<?xml version="1.0" encoding="utf-8"?>
<!-- Generator: Adobe Illustrator 17.0.0, SVG Export Plug-In . SVG Version: 6.00 Build 0)  -->
<!DOCTYPE svg PUBLIC "-//W3C//DTD SVG 1.1//EN" "http://www.w3.org/Graphics/SVG/1.1/DTD/svg11.dtd">
<svg version="1.1" id="Layer_1" xmlns="http://www.w3.org/2000/svg" xmlns:xlink="http://www.w3.org/1999/xlink" x="0px" y="0px"
	 width="800px" height="600px" viewBox="0 0 800 600" enable-background="new 0 0 800 600" xml:space="preserve">
<g>
	<path fill="#070606" d="M342.638,196.885c-32.517,4.369-65.662,14.233-92.203,34.141c-10.761,8.072-20.225,17.988-27.024,29.639
		c-6.437,11.031-10.108,23.379-10.815,36.124c-1.002,18.081,4.188,36.211,13.729,51.517c12.135,19.467,30.831,33.856,51.309,43.711
		c30.571,14.712,65.121,20.012,98.733,21.397c31.242,1.287,62.908-0.843,93.378-8.101c27.068-6.448,54.859-17.463,74.473-37.908
		c7.07-7.369,12.767-16.005,16.653-25.453c4.237-10.303,6.043-21.448,6.069-32.553c-0.025-12.41-2.496-24.726-7.473-36.106
		c-5.053-11.553-12.546-21.853-21.493-30.697c-21.475-21.228-50.593-33.457-79.554-40.429c-18.204-4.383-36.888-6.698-55.575-7.616
		C382.763,193.566,362.572,194.207,342.638,196.885z M495.816,216.914c24.528,10.887,47.287,27.915,59.473,52.374
		c5.992,12.026,8.866,25.388,8.893,38.793c-0.033,14.204-3.232,28.294-10.236,40.715c-6.513,11.549-16.006,21.13-26.745,28.796
		c-23.784,16.978-53.4,25.109-81.926,29.525c-33.381,5.169-67.909,5.385-101.383,1.058c-29.722-3.842-59.975-12.076-85-29.107
		c-16.894-11.498-30.857-27.375-38.141-46.62c-7.259-19.18-7.429-40.72,0.354-59.779c10.753-26.33,34.963-44.471,60.165-55.865
		c33.721-15.246,71.57-20.273,108.302-20.004C425.625,197.063,462.64,202.188,495.816,216.914z"/>
	<path fill="#070606" d="M281.279,194.15c0.122,0.068,0.245,0.128,0.368,0.17c0.105,0.046,0.181,0.065,0.235,0.065
		c3.339,0.984,7.116-1.14,9.412-3.449c0.997-1.003,1.928-2.443,1.563-3.913c-0.428-1.727-2.595-3.424-4.097-4.175
		c-3.86-1.929-8.63-0.751-10.949,2.917C275.684,189.13,278.084,192.6,281.279,194.15z M290.59,185.374
		C290.831,185.502,290.809,185.566,290.59,185.374L290.59,185.374z M280.222,190.053c0.323-1.171,1.087-2.192,1.933-3.037
		c0.985-0.984,2.258-1.617,3.586-1.986c0.915-0.254,1.89-0.24,2.825-0.156c0.464,0.042,0.919,0.154,1.371,0.265
		c-0.005,1.661-2.271,3.55-3.261,4.293c-1.708,1.282-4.353,2.64-6.634,2.304C279.965,191.172,280.073,190.595,280.222,190.053z"/>
	<path fill="#070606" d="M308.887,422.35c-3.86-1.929-8.631-0.751-10.949,2.917c-2.127,3.365,0.274,6.835,3.468,8.385
		c0.122,0.068,0.245,0.128,0.369,0.17c0.105,0.046,0.181,0.065,0.235,0.065c3.339,0.984,7.116-1.14,9.412-3.449
		c0.997-1.003,1.928-2.443,1.563-3.913C312.555,424.798,310.389,423.101,308.887,422.35z M306.802,428.935
		c-1.708,1.281-4.353,2.64-6.634,2.304c-0.077-0.565,0.031-1.141,0.18-1.684c0.323-1.171,1.087-2.191,1.933-3.036
		c0.985-0.984,2.258-1.617,3.586-1.985c0.915-0.254,1.89-0.24,2.825-0.156c0.465,0.041,0.919,0.154,1.371,0.265
		C310.058,426.303,307.792,428.192,306.802,428.935z M310.716,424.876C310.958,425.004,310.935,425.068,310.716,424.876
		L310.716,424.876z"/>
	<path fill="#070606" d="M491.644,182.78c-3.807,1.902,0.724,6.27,2.429,7.788c2.527,2.249,6.577,5.041,10.154,3.821
		c3.732-1.608,1.392-5.929-0.507-8.002C500.626,183.01,496.17,180.518,491.644,182.78z M502.041,185.69
		C501.896,185.597,501.936,185.603,502.041,185.69L502.041,185.69z M494.269,189.891c-0.128-0.086-0.209-0.133-0.261-0.16
		c-0.01-0.043-0.051-0.125-0.158-0.284c-0.3-0.445-0.467-0.958-0.547-1.484c-0.157-1.031,0.647-1.813,1.447-2.287
		c1.278-0.756,2.969-0.919,4.412-0.823c0.673,0.044,1.33,0.225,1.966,0.436c0.332,0.111,0.644,0.266,0.95,0.433
		c0.082,0.073,0.19,0.184,0.28,0.327c1.216,1.923,0.992,4.483-1.236,5.443C498.831,192.273,496.169,191.167,494.269,189.891z"/>
	<path fill="#070606" d="M465.285,422.282c-3.806,1.902,0.724,6.27,2.429,7.788c2.528,2.249,6.577,5.04,10.154,3.821
		c3.732-1.608,1.392-5.929-0.507-8.002C474.267,422.513,469.81,420.02,465.285,422.282z M475.682,425.192
		C475.537,425.099,475.577,425.106,475.682,425.192L475.682,425.192z M467.91,429.393c-0.128-0.086-0.209-0.133-0.261-0.16
		c-0.01-0.042-0.051-0.125-0.158-0.284c-0.3-0.445-0.467-0.958-0.547-1.484c-0.158-1.031,0.647-1.813,1.447-2.287
		c1.278-0.756,2.969-0.919,4.412-0.823c0.673,0.045,1.33,0.225,1.967,0.436c0.332,0.11,0.644,0.266,0.95,0.433
		c0.082,0.073,0.19,0.184,0.28,0.327c1.216,1.923,0.992,4.483-1.236,5.443C472.472,431.775,469.81,430.668,467.91,429.393z"/>
	<path fill="#070606" d="M650.093,330.726c-0.463-6.298-4.308-11.983-9.11-16.054c3.824-4.914,7.423-10.727,7.377-17.137
		c-0.036-4.97-2.97-9.273-6.37-12.657c-7.88-7.84-18.521-11.498-27.285-18.085c-1.277-0.96-1.958-1.546-2.829-2.702
		c-2.311-3.064-3.271-6.943-3.359-10.723c-0.161-6.989,2.865-13.598,3.247-20.541c0.371-6.741-2.846-12.879-8.826-16.129
		c-5.733-3.116-12.813-1.652-18.144,1.648c-1.61-2.296-3.25-4.573-4.886-6.854c0.359-1.936,0.446-3.909,0.059-5.86
		c-0.826-4.167-4.653-7.4-8.531-8.668c-1.87-0.611-3.863-0.829-5.894-0.788c-13.009-12.236-27.392-23.117-43.566-30.816
		c-15.055-7.166-31.404-11.045-48.016-12.061c-19.481-1.192-39.017,1.419-58.048,5.428c-0.116,0.024,2.123,2.517,2.267,2.651
		c0.462,0.431,2.041,2.236,2.802,2.076c18.171-3.827,36.732-6.328,55.336-5.566c16.759,0.687,33.276,4.417,48.57,11.331
		c14.653,6.624,27.804,16.095,39.557,27.003c-4.091,0.26-8.277,1.46-11.887,2.517c-4.391,1.285-8.591,3.328-13.031,4.395
		c-2.117,0.508-4.481,0.661-6.526-0.205c-0.431-0.183-0.513-0.237-0.967-0.535c0.278,0.182,0.08,0.035-0.084-0.086
		c-0.053-0.049-0.189-0.167-0.274-0.241c0.047,0.027-0.498-0.558-0.493-0.551c-0.326-0.416-0.637-0.864-0.887-1.269
		c-1.261-2.035-2.189-4.261-3.067-6.482c-2.017-5.098-3.735-10.343-6.49-15.112c-2.978-5.154-7.344-9.711-12.906-12.027
		c-5.596-2.331-11.632-1.771-17.444-0.722c-13.268,2.395-26.316,5.586-39.894,5.517c-7.705-0.039-15.498-1.179-22.685-4.031
		c-7.73-3.067-14.178-8.212-19.094-14.896c-1.42-1.93-2.673-3.97-3.84-6.062c-1.496-2.679-3.317-5.051-5.526-7.199
		c-2.974-2.892-6.781-5.752-11.095-5.962c-5.437-0.265-9.832,3.838-12.544,8.163c-1.752,2.793-3.2,5.727-5.11,8.434
		c-2.55,3.615-5.571,6.886-8.95,9.739c-0.564-0.415-1.193-0.732-1.861-0.873c-18.17-3.827-36.675-6.273-55.274-5.572
		c-16.653,0.628-33.071,4.195-48.324,10.947c-17.109,7.573-32.264,18.919-45.716,31.812c-0.089,0.086-0.15,0.187-0.188,0.299
		c-3.137-0.088-6.365,0.42-8.575,2.573c-2.366,2.304-2.251,5.952-1.716,8.944c0.061,0.344,0.13,0.686,0.206,1.029
		c-0.396-0.213-0.687-0.295-0.775-0.172c-1.735,2.427-3.474,4.843-5.178,7.28c-0.578-0.653-1.263-1.229-1.978-1.708
		c-6.11-4.09-15.7-6.363-21.539-0.54c-2.76,2.751-3.454,7.172-3.399,10.9c0.062,4.21,1.283,8.342,2.181,12.425
		c1.72,7.818,1.547,15.922-4.44,21.923c-3.592,3.601-8.231,6.116-12.618,8.6c-6.917,3.916-15.123,7.812-19.49,14.782
		c-5.299,8.458,0.075,18.098,5.475,25.052c-4.885,3.36-8.568,8.662-9.31,14.612c-0.966,7.736,2.17,15.372,7.922,20.517
		c4.601,4.116,10.141,5.912,15.986,7.496c2.653,0.719,5.31,1.448,7.8,2.631c2.174,1.034,3.153,2.244,4.01,4.576
		c1.662,4.522,0.723,9.542,1.172,14.238c0.526,5.498,3.646,9.644,7.571,13.296c7.064,6.574,16.061,8.8,25.499,7.862
		c6.269,8.19,13.373,15.805,21.19,22.344c-0.461,1.426-0.77,2.906-0.839,4.468c-0.35,7.872,9.461,15.209,16.898,13.344
		c1.412-0.354,2.724-0.901,3.97-1.575c0.097,0.079,0.191,0.151,0.275,0.214c31.939,23.634,74.714,32.712,113.69,26.288
		c4.565-0.752,9.086-1.76,13.555-2.957c4.818,9.273,12.074,21.015,24.145,19.871c6.845-0.649,12.415-6.187,16.531-11.194
		c2.177-2.721,4.058-5.629,5.848-8.6c0.301,0.173,0.606,0.311,0.912,0.394c39.386,10.638,83.533,4.463,118.3-17.037
		c2.775-1.716,5.472-3.558,8.094-5.499c0.374-0.277-0.567-1.694-1.782-2.959c2.553,1.726,5.396,3.2,8.409,3.379
		c3.948,0.235,8.421-2.174,10.48-5.536c1.977-3.228,1.482-6.954,0.139-10.517c5.375-4.286,10.252-9.243,14.816-14.369
		c1.586-1.781,3.127-3.601,4.627-5.455c0.241,0.141,0.486,0.241,0.725,0.266c8.178,0.864,16.882-0.226,24.153-4.241
		c3.952-2.183,7.366-5.414,8.949-9.701c1.664-4.508,0.867-9.465,1.201-14.149c0.461-6.466,4.439-10.608,10.281-12.794
		c5.314-1.988,11.026-2.712,16.095-5.376C647.13,347.273,650.689,338.839,650.093,330.726z M591.847,234.118
		c6.467,12.503,10.277,26.207,12.444,40.07c0.082,0.522,0.151,1.045,0.228,1.568c-2.41-4.649-6.259-8.805-9.926-12.339
		c-4.848-4.672-11.002-7.647-16.464-11.49c-5.254-3.696-8.797-8.18-8.192-14.932c0.688-7.679,6.264-14.104,8.794-21.246
		c0.168-0.473,0.325-0.952,0.473-1.434C583.765,220.703,588.222,227.109,591.847,234.118z M623.549,312.973
		c-4.228,0.28-8.116,2.091-11.131,5.28c-1.121,1.186-2.091,2.471-2.937,3.83c0.059-0.685,0.123-1.37,0.172-2.056
		c0.427-6.01,0.448-12.076,0.217-18.129c0.873,1.495,1.868,2.933,3.015,4.297C615.758,309.609,619.424,311.998,623.549,312.973z
		 M606.737,304.184c0.202,9.943-0.373,19.783-2.251,29.563c-0.293,1.524-0.624,3.041-0.973,4.552
		c-1.675-4.805-5.171-8.99-8.681-12.609c-2.809-2.896-5.963-5.736-6.594-9.933c-0.574-3.824,0.766-7.424,3.437-10.125
		c2.388-2.415,5.443-4.095,8.065-6.232c2.656-2.163,4.634-4.799,5.888-7.918c0.22,0.779,0.454,1.553,0.703,2.321
		C606.533,297.26,606.667,300.723,606.737,304.184z M378.865,146.316c2.031-3.8,5.222-7.528,9.446-8.851
		c3.999-1.252,7.627,0.664,10.322,3.562c1.905,2.048,3.056,4.555,4.519,6.91c1.31,2.108,2.742,4.133,4.291,6.072
		c5.404,6.759,12.24,12.268,20.1,15.911c6.982,3.237,14.609,4.731,22.254,5.191c13.938,0.84,27.619-2.171,41.199-4.853
		c5.652-1.116,11.487-2.243,17.171-0.699c5.068,1.376,7.748,4.908,10.088,9.458c4.511,8.772,5.97,21.033,15.106,26.551
		c-3.126,0.3-6.228-0.339-8.762-2.597c-3.775-3.363-5.92-8.493-8.156-12.919c-2.198-4.351-4.755-8.849-8.367-12.183
		c-4.139-3.822-8.845-4.565-14.316-4.083c-8.405,0.741-16.588,3.218-24.939,4.399c-8.895,1.257-17.898,1.832-26.88,1.76
		c-8.871-0.071-17.809-0.835-26.449-2.906c-3.832-0.919-7.586-2.182-11.143-3.883c-3.796-1.816-8.243-4.118-10.045-8.13
		c-1.896-4.221,1.01-14.335,7.164-10.857c0.131,0.074,0.25,0.167,0.306,0.211c0.046,0.063,0.106,0.161,0.232,0.374
		c0.451,0.762,0.707,1.599,0.675,2.488c-0.087,2.48-3.382,2.736-5.183,2.686c-0.667-0.018,0.746,1.58,0.83,1.668
		c0.54,0.566,1.625,1.8,2.501,1.824c1.822,0.05,4.361-0.09,5.299-1.959c0.765-1.525-0.107-3.39-0.923-4.689
		c-2.051-3.263-6.662-7.711-10.925-6.535c-2.385,0.657-3.412,3.395-3.933,5.54c-0.108,0.446-0.186,0.887-0.24,1.322
		c-0.65-1.941-1.742-3.74-3.146-5.174c-2.829-2.888-6.637-2.72-9.772-0.509c-2.908,2.051-3.634,5.421-1.405,8.236
		c2.342,2.958,6.437,3.543,9.843,2.416c1.594-0.527-0.996-3.59-2.439-3.113c-1.561,0.516-3.851,0.89-5.214-0.329
		c-1.415-1.265,1.38-3.814,2.178-4.447c1.384-1.098,3.494-1.818,5.06-0.735c1.357,0.938,1.882,3.281,2.098,4.783
		c1.183,8.208-8.801,12.94-15.017,15.32c-17.54,6.718-37.321,6.302-55.643,3.751c-4.797-0.668-9.562-1.573-14.266-2.728
		c-4.581-1.125-8.959-2.459-13.717-2.589c-7.585-0.208-14.727,2.825-20.07,8.148c-2.429,2.419-4.361,5.283-5.989,8.286
		c-1.841,3.395-3.181,6.952-5.465,10.108c-1.703,2.352-3.827,4.342-6.448,5.551c0.166-0.169,0.331-0.34,0.49-0.524
		c3.161-3.635,4.7-8.61,6.374-13.036c1.927-5.096,3.937-10.294,7.386-14.582c3.792-4.714,9.153-6.992,15.138-7.153
		c5.538-0.148,11.166,1.391,16.555,2.483c14.038,2.847,28.465,5.268,42.788,3.2c7.669-1.107,15.091-3.715,21.611-7.926
		C368.725,161.573,374.582,154.327,378.865,146.316z M401.581,154.179c0.075,0.075,0.113,0.108,0.151,0.151
		C401.696,154.294,401.65,154.248,401.581,154.179z M260.165,168.791c15.231-6.814,31.688-10.265,48.324-10.947
		c16.564-0.679,33.175,1.402,49.424,4.597c-5.371,3.635-11.469,6.071-17.822,7.469c-14.403,3.17-29.358,0.943-43.616-1.885
		c-10.756-2.133-23.677-6.329-32.99,1.783c-8.196,7.139-9.132,18.915-14.503,27.817c-2.272,3.766-5.713,6.322-10.278,5.866
		c-3.968-0.396-7.741-2.383-11.476-3.641c-2.955-0.995-5.962-1.879-9.014-2.538C230.712,185.792,244.596,175.756,260.165,168.791z
		 M202.404,215.25c1.224,2.722,2.739,5.333,4.32,7.75c4.255,6.505,4.385,13.816-0.297,20.051
		c-4.515,6.012-11.342,10.034-17.28,14.467c-3.943,2.943-8.105,6.505-11.303,10.641c0.592-2.757,1.244-5.495,1.974-8.203
		c2.683-9.949,6.569-19.543,11.712-28.475C194.788,225.82,198.599,220.542,202.404,215.25z M176.088,334.837
		c-0.22-0.725-0.451-1.445-0.698-2.158c-0.856-5.317-1.383-10.691-1.569-16.087c-0.301-8.73-0.087-17.592,0.709-26.405
		c2.15,4.097,5.667,7.608,9.384,10.307c2.357,1.712,5.108,3.212,6.466,5.896c1.879,3.714,0.814,8.364-1.361,11.658
		c-2.355,3.567-5.826,6.315-8.567,9.571C178.644,329.768,177.098,332.203,176.088,334.837z M169.788,321.941
		c-0.327-0.423-0.667-0.841-1.022-1.253c-3.451-4.006-7.424-6.89-12.267-7.912c5.859-0.757,9.813-4.542,12.594-9.487
		C168.99,309.532,169.167,315.748,169.788,321.941z M196.174,389.235c-8.58,0.903-20.048-0.39-24.834-8.698
		c-2.6-4.513-1.862-9.987-2.037-14.959c-0.122-3.472-1.057-6.758-3.129-9.565c-3.55-4.81-8.762-7.229-14.345-8.819
		c-2.775-0.79-5.586-1.459-8.305-2.436c-2.236-0.803-4.913-1.835-6.551-3.639c-4.471-4.924-5.519-13.187-3.635-19.351
		c1.415-4.631,4.747-8.667,8.729-11.354c0.171-0.115-0.259-0.672-0.287-0.707c-4.012-5.058-7.945-11.173-7.49-17.912
		c0.327-4.856,3.539-8.831,7.101-11.861c8.081-6.872,18.711-10.087,26.546-17.268c3.732-3.42,5.771-8.12,6.119-13.147
		c0.438-6.315-1.99-12.435-2.921-18.6c-0.871-5.77-0.07-12.629,5.387-15.875c5.248-3.121,12.318-1.54,17.232,1.539
		c-3.372,4.85-6.59,9.791-9.338,15.066c-6.438,12.356-10.326,25.848-12.594,39.554c-1.007,6.084-1.687,12.215-2.127,18.364
		c-1.508,5.959-3.721,11.703-8.206,16.095c-3.71,3.633-10.333,4.63-14.948,2.245c-3.195-1.651-3.962-6.148-4.254-9.328
		c-0.325-3.536,0.474-7.179,2.965-9.801c3.772-3.969,10.402-3.132,12.263,2.228c0.588,1.695,0.624,3.781-0.33,5.358
		c-1.164,1.923-3.339,2.363-5.43,2.254c-1.121-0.059-0.998,1.266-0.645,1.921c0.524,0.972,1.545,1.768,2.668,1.827
		c2.849,0.149,5.736-0.73,7.156-3.377c1.277-2.38,1.006-5.306,0.067-7.754c-2.222-5.795-8.511-10.002-14.724-8.327
		c-7.145,1.927-8.696,10.316-7.497,16.592c1.259,6.585,5.34,11.559,11.619,12.991c-2.398,0.302-4.703,1.151-6.617,2.671
		c-3.117,2.475-4.219,6.62-4.613,10.405c-0.731,7.032,3.892,13.832,10.396,16.502c5.809,2.385,12.462-0.922,14.197-6.951
		c1.837-6.384-5.196-12.53-11.223-12.231c-0.561,0.028,0.957,1.603,1.081,1.728c0.501,0.507,1.915,2.187,2.74,2.146
		c1.097-0.055,2.211-0.01,3.26,0.291c0.019,0.059,0.039,0.118,0.058,0.177c0.22,0.699,0.282,1.46,0.259,2.189
		c-0.088,2.823-1.715,5.446-3.82,7.228c-2.278,1.927-5.308,2.708-8.225,2.204c-0.861-0.149-1.789-0.425-2.591-0.855
		c-0.181-0.203-0.505-0.564-0.711-0.926c-0.47-0.826-0.75-1.77-0.984-2.685c-1.013-3.969-0.177-8.817,1.779-12.376
		c1.559-2.836,4.361-4.597,7.437-5.365c2.91-0.726,6.055-0.461,8.931,0.288c3.231,0.842,4.525,2.132,6.339,5.007
		c0.849,1.344,1.564,2.759,2.187,4.217c0.18,1.336,0.38,2.67,0.607,4.004c2.753,16.21,8.792,31.789,17.128,45.929
		c2.668,4.525,5.588,8.982,8.731,13.305C196.54,389.282,196.344,389.217,196.174,389.235z M159.448,326.584
		c-0.675-0.661-0.467-0.991-0.064-0.157C159.409,326.478,159.426,326.532,159.448,326.584z M220.019,412.918
		c-0.235-0.201-0.468-0.404-0.7-0.607c-0.027-0.023-0.047-0.04-0.067-0.058c-0.047-0.042-0.112-0.1-0.203-0.182
		c-0.642-0.573-1.275-1.155-1.904-1.742c-2.883-2.69-5.922-5.831-8.78-9.084c-8.877-10.099-16.333-21.418-22.1-33.564
		c-1.425-3.001-2.732-6.053-3.919-9.149c3.79,4.354,8.441,8.067,12.547,10.88c4.354,2.983,9.05,5.474,13.827,7.705
		c2.725,1.272,5.507,2.419,8.31,3.505c2.696,1.044,5.495,1.937,7.883,3.619c5.81,4.093,4.324,12.092,1.85,17.672
		c-1.754,3.956-4.413,7.607-6.002,11.631C220.513,413.336,220.265,413.129,220.019,412.918z M364.842,450.759
		c-39.467,10.661-84.131,4.214-118.543-18.093c-1.358-0.88-2.688-1.805-4-2.753c5.487-3.702,9.902-9.478,16.412-11.249
		c3.809-1.036,8.69-1.11,12.38,0.408c2.433,1.001,3.891,3.068,5.213,5.251c3.905,6.447,6.897,13.068,12.541,18.288
		c3.755,3.474,8.257,6.087,13.229,7.337c5.218,1.312,10.74,0.707,15.92-0.448c5.964-1.331,11.714-3.549,17.453-5.608
		c5.223-1.874,10.765-4.373,16.365-4.693c7.499-0.428,11.152,5.861,14.167,11.816C365.561,450.785,365.16,450.673,364.842,450.759z
		 M382.252,469.788c-2.331-0.99-3.937-2.514-5.429-4.262c-0.839-0.984-1.569-2.056-2.135-3.068
		c-3.936-7.027-6.968-15.001-12.626-20.888c-2.731-2.841-6.049-5.137-9.96-5.933c-4.911-1-9.672,0.888-14.251,2.411
		c-11.082,3.685-22.476,9.359-34.436,8.761c-5.304-0.266-10.273-2.488-14.092-6.14c-2.569-2.457-4.415-5.616-6.122-8.699
		c-3.261-5.89-6.347-12.21-12.506-15.597c-2.51-1.381-5.21-2.002-7.999-2.14c3.273-1.273,6.733-1.785,10.256-0.965
		c4.297,1,5.946,3.38,7.883,7.283c1.72,3.464,3.455,6.902,5.638,10.104c3.648,5.349,9.359,10.957,16.124,11.572
		c4.585,0.417,8.813-0.983,13.102-2.417c5.571-1.862,11.188-3.586,16.887-5.013c9.373-2.347,19.163-3.83,28.822-2.695
		c4.128,0.485,8.191,1.5,12.071,2.983c3.247,1.241,7.143,2.948,9.52,5.574c1.991,2.2,3.646,5.295,3.815,8.305
		c0.193,3.421-1.739,7.201-4.76,8.844c-0.628,0.342-1.33,0.481-2.033,0.545c-0.556,0.051-1.105-0.085-1.634-0.234
		c-0.148-0.056-0.296-0.112-0.444-0.169c-0.053-0.031-0.101-0.059-0.148-0.086c-0.815-1.3-1.061-2.93-0.854-4.424
		c0.403-2.906,3.052-4.547,5.777-3.493c0.207,0.08-0.873-1.209-1.002-1.336c-0.614-0.606-1.402-1.532-2.232-1.853
		c-3.063-1.184-5.602,0.699-6.038,3.842c-0.536,3.862,2.846,6.906,5.5,9.118c3.185,2.654,6.731,2.2,9.256-1.076
		c1.216-1.578,1.827-3.357,1.951-5.183c0.887,1.969,2.358,3.737,3.846,5.125c2.89,2.695,6.113,3.989,9.327,0.917
		c2.403-2.297,2.947-5.995,1.11-8.761c-1.666-2.51-4.693-5.06-7.799-3.83c0.25-0.099,2.281,3.21,3.096,2.888
		c0.791-0.313,1.537-0.473,2.389-0.352c0.005,0.001,0.009,0.002,0.013,0.003c0.607,1.566,0.329,3.356-0.305,4.865
		c-0.751,1.788-2.334,3.262-4.122,3.958c-0.908,0.353-1.9,0.284-2.818,0.029c-0.357-0.099-0.759-0.481-0.808-0.486
		c-0.31-0.492-0.558-1.026-0.791-1.555c-3.374-7.664,4.121-15.077,10.054-18.672c19.059-11.549,43.084-4.369,62.485,2.269
		c6.576,2.25,13.119,3.387,19.093-0.99c5.117-3.75,8.124-9.94,11.088-15.367c3.159-5.786,8.574-9.583,15.214-9.952
		c2.364-0.131,4.721,0.173,7.015,0.803c-4.703-0.73-9.654-0.022-13.448,2.643c-5.299,3.722-7.571,10.776-10.892,16.063
		c-4.669,7.431-11.74,12.853-20.67,13.711c-11.102,1.066-22.327-4.374-32.543-7.937c-7.45-2.598-15.835-6.058-22.293,0.364
		c-2.535,2.521-4.3,5.802-6.083,8.863c-0.411,0.705-0.824,1.408-1.241,2.109c-0.521-0.07-0.542,0.248-0.385,0.647
		c-1.85,3.089-3.792,6.11-6.05,8.932C399.395,466.119,391.13,473.557,382.252,469.788z M401.907,448.944
		C401.323,448.393,401.512,448.203,401.907,448.944L401.907,448.944z M536.357,427.658c-32.219,23.84-75.807,32.295-114.907,24.903
		c-1.728-0.327-3.448-0.694-5.159-1.094c0.051-0.088,0.103-0.176,0.154-0.264c1.91-3.279,3.847-6.685,6.703-9.245
		c2.906-2.604,6.632-3.128,10.372-2.464c2.634,0.468,5.184,1.498,7.714,2.339c3.152,1.048,6.271,2.195,9.398,3.316
		c10.339,3.705,22.007,7.898,32.876,3.874c8.085-2.993,13.085-9.904,17.034-17.175c3.027-5.574,6.051-11.625,12.692-13.338
		c3.983-1.027,9.09-0.767,12.813,0.973c4.081,1.908,7.451,5.377,10.995,8.098C536.768,427.513,536.531,427.529,536.357,427.658z
		 M549.683,428.23c-4.234,1.947-7.968,0.46-11.546-2.109c-3.294-2.365-6.301-5.092-9.604-7.439
		c-5.134-4.079-10.985-7.295-17.566-7.953c-7.95-0.795-14.535,3.44-18.272,10.284c-3.396,6.22-6.994,13.394-13.659,16.658
		c-3.704,1.814-7.912,1.671-11.824,0.698c-5.508-1.37-10.845-3.638-16.304-5.227c-10.403-3.029-21.346-5.255-32.224-4.221
		c-8.842,0.841-18.205,4.039-24.503,10.535c-2.442,2.519-4.204,5.669-4.772,9.146c-0.058-0.158-0.115-0.315-0.178-0.472
		c-1.372-3.371-4.02-6.157-6.668-8.571c-3.077-2.807-6.501-5.077-10.286-6.814c-9.255-4.245-19.71-4.867-29.694-3.705
		c-11.524,1.341-22.61,5.01-33.57,8.646c-3.904,1.295-8.139,1.918-12.174,0.896c-3.322-0.841-5.323-2.609-7.228-5.333
		c-2.332-3.337-3.991-7.06-5.857-10.658c-1.857-3.581-4.607-6.562-7.692-9.124c-6.128-5.089-13.474-4.422-20.188-0.788
		c-3.72,2.013-7.008,4.785-10.044,7.706c-5.827,4.809-14.091,12.764-20.944,6.761c-2.401-2.103-1.382-6.596-0.488-9.299
		c0.198,0.052,0.318,0.012,0.28-0.19c-0.021-0.108-0.057-0.218-0.1-0.327c1.077-3.04,2.855-5.76,4.415-8.561
		c2.914-5.234,5.171-11.406,3.323-17.381c-3.094-10.001-14.409-12.889-22.845-16.534c-12.308-5.318-30.431-14.89-30.536-30.604
		c-0.051-7.677,5.504-13.312,10.485-18.481c2.76-2.864,5.203-5.974,5.809-10.012c0.56-3.729-0.716-7.537-3.027-10.441
		c-4.508-5.667-12.28-7.905-14.785-15.129c-3.618-10.437,4.48-19.719,11.859-26.096c9.839-8.504,28.405-16.467,24.168-32.51
		c-0.536-2.031-1.466-3.971-2.48-5.802c-0.133-0.241-1.815-2.922-1.09-1.789c-0.454-0.709-0.883-1.434-1.3-2.165
		c-1.59-2.785-2.89-5.511-3.862-8.542c-0.925-2.885-1.675-6.465-0.264-9.321c1.582-3.202,5.335-3.875,8.662-3.879
		c0.784,0.439,1.54,0.585,1.986,0.158c0.028-0.027,0.056-0.053,0.083-0.079c3.649,0.255,7.275,1.185,10.773,2.191
		c4.13,1.188,8.08,2.996,12.199,4.189c0.052,0.025,0.105,0.048,0.158,0.068c7.078,2.576,14.296,2.635,19.858-3.008
		c2.719-2.759,4.596-6.336,6.198-9.822c1.538-3.347,3.325-6.457,5.715-9.277c5.277-6.227,12.759-9.486,20.896-9.263
		c5.04,0.138,9.823,1.911,14.69,3.032c4.952,1.14,9.977,1.957,15.019,2.583c8.299,1.03,16.799,1.584,25.236,1.251
		c-28.666,3.349-57.114,10.947-82.414,24.836c-3.965,2.176-7.848,4.535-11.618,7.068c-6.369,2.13-12.925,0.094-18.993-2.751
		c-3.041-1.426-6.009-3.007-9.142-4.228c-2.297-0.895-4.975-1.623-7.408-0.867c-1.932,0.601-3.68,2.085-4.219,4.056
		c-0.571,2.089,0.419,4.534,1.237,6.419c2.453,5.657,6.249,10.638,8.257,16.506c0.994,2.905,1.286,6.028,0.142,8.831
		c-4.465,5.898-8.307,12.262-11.376,19.078c-0.638-0.541-1.183-0.854-1.459-0.677c-6.565,4.218-14.588,9.303-17.765,16.817
		c-2.141,5.065-0.253,10.284,2.377,14.751c4.585,7.788,9.766,16.104,8.682,25.544c-0.544,4.738-2.908,9.019-5.797,12.724
		c-2.51,3.218-5.425,5.981-7.091,9.781c-1.405,3.206-1.132,6.478,0.98,9.276c3.043,4.029,7.293,7.198,11.785,9.432
		c9.013,4.484,19.053,6.538,27.9,11.412c2.641,3.016,5.424,5.912,8.33,8.684c-1.085,0.134-0.896,1.364-0.53,2.128
		c2.967,6.189,0.078,14.08-1.784,20.17c-1.411,4.615-4.308,11.681,1.024,14.953c4.748,2.914,10.37-2.394,14.069-4.912
		c5.889-4.007,12.95-8.431,20.406-7.389c0.867,0.121,1.293-0.128,1.417-0.555c13.524,6.978,28.014,12.152,42.78,15.888
		c33.96,8.591,69.895,10.359,104.754,7.929c28.948-2.018,58.182-7.347,85.061-18.555c1.406-0.586,2.805-1.194,4.198-1.819
		c0.335,0.127,0.68,0.188,1.023,0.14c7.173-1.003,13.641,2.813,19.356,6.67c2.551,1.721,5.049,3.572,7.769,5.022
		c1.715,0.914,4.111,2.034,6.066,1.211c4.436-1.868,0.719-10.364-0.185-13.322c-1.804-5.9-4.214-13.067-2.063-19.198
		c7.76-6.395,14.655-13.764,20.237-22.2c0.215,0.106,0.421,0.157,0.592,0.103c8.75-2.775,17.627-7.887,23.194-15.341
		c2.018-2.702,3.491-6.025,3.228-9.457c-0.179-2.338-1.348-4.545-2.538-6.515c-3.187-5.276-6.944-9.929-8.311-16.097
		c-1.413-6.374-0.309-13.422,2.871-19.107c1.894-3.386,4.41-6.362,6.622-9.535c1.835-2.632,3.565-5.611,3.38-8.932
		c-0.243-4.359-4.102-7.963-7.167-10.608c-6.203-5.353-13.967-8.899-21.41-12.135c-0.02-0.009-0.035-0.013-0.053-0.02
		c-1.676-2.802-3.477-5.53-5.389-8.18c0.135-0.415-0.299-1.227-0.51-1.554c-3.126-4.839,0.604-11.828,2.924-16.172
		c1.455-2.726,3.057-5.372,4.44-8.136c1.036-2.071,2.104-4.383,2.105-6.743c0.001-2.746-2.004-5.111-4.12-6.637
		c-0.861-0.62-2.269-1.638-3.754-2.099c-1.194-0.372-2.453-0.405-3.687-0.254c-2.915,0.356-5.704,1.811-8.312,3.07
		c-3.226,1.557-6.42,3.175-9.801,4.379c-5.334,1.9-10.939,2.326-16.068-0.381c-0.001-0.001-0.003-0.001-0.004-0.002
		c-13.887-9.111-29.203-16.116-44.987-21.305c-35.508-11.674-73.968-14.906-111.14-12.766c-1.898,0.109-3.798,0.239-5.699,0.382
		c5.761-0.91,11.429-2.343,16.913-4.444c6.2-2.374,14.753-6.785,15.477-14.292c0.514,1.36,1.293,2.653,2.297,3.875
		c5.453,6.636,13.678,10.901,21.777,13.383c16.814,5.152,35.476,4.766,52.777,2.824c8.589-0.964,16.902-3.09,25.416-4.453
		c3.215-0.515,6.519-0.898,9.773-0.578c1.074,0.106,2.131,0.33,3.142,0.708c0.399,0.149,0.781,0.332,1.149,0.544
		c0.473,0.274,0.241,0.116,0.472,0.33c-0.271-0.25,0.273,0.307,0.303,0.343c0.23,0.271,0.44,0.555,0.648,0.843
		c0.55,0.76,1.054,1.554,1.54,2.355c0.979,1.612,1.93,3.244,2.788,4.923c1.929,3.777,3.781,7.581,6.261,11.04
		c2.886,4.026,6.71,7.852,11.342,9.789c5.163,2.159,10.648,0.579,15.301-2.053c1.655-0.544,3.309-1.191,4.963-1.775
		c5.495-1.939,11.881-4.147,17.983-4.218c0.414,0.307,0.76,0.501,0.866,0.389c0.062-0.066,0.012-0.206-0.102-0.386
		c1.028,0.019,2.047,0.1,3.05,0.259c0.875,0.138,1.729,0.367,2.533,0.738c-0.025-0.012,0.205,0.137,0.357,0.228
		c0.172,0.265,0.31,0.584,0.493,1.173c0.226,0.731,0.308,1.479,0.337,2.241c0.13,3.424-1.014,6.891-2.313,10.012
		c-3.205,7.7-9.302,14.649-7.853,23.565c2.282,14.038,18.713,18.061,27.641,26.665c3.753,3.617,7.331,7.734,8.771,12.842
		c1.352,4.797-0.032,10.219-2.878,14.201c-3.977,5.566-11.847,7.629-14.556,14.158c-3.561,8.582,3.386,15.322,8.763,20.97
		c4.628,4.86,7.579,10.472,6.437,17.25c-1.064,6.315-5.271,11.705-9.809,15.987c-7.522,7.096-17.08,11.925-26.575,15.78
		c-4.813,1.954-9.817,3.407-13.584,7.182c-2.41,2.415-3.684,5.696-3.821,9.072c-0.243,5.96,2.842,11.478,5.725,16.463
		c1.793,3.1,3.496,6.466,3.781,10.092C556.264,423.323,553.493,426.478,549.683,428.23z M519.415,216.123
		c0.686,1.047,1.729,1.857,2.819,2.432c0.891,0.47,1.787,0.858,2.687,1.172c1.022,0.702,2.038,1.412,3.042,2.14
		c9.532,6.911,17.643,14.744,24.607,24.256c0.139,0.243,0.284,0.485,0.438,0.723c0.203,0.315,0.466,0.644,0.767,0.957
		c0.242,0.344,0.486,0.683,0.725,1.031c7.174,10.449,12.252,22.276,15.071,34.622c1.78,7.793,2.596,15.79,2.61,23.779
		c-0.03,14.739-2.855,29.355-9.222,42.698c-5.754,12.058-14.311,22.567-24.415,31.25c-21.534,18.505-49.334,28.658-76.717,34.704
		c-30.47,6.728-62.028,8.417-93.133,6.783c-33.412-1.754-67.472-7.804-97.626-22.86c-5.779-2.885-11.364-6.143-16.72-9.753
		c-2.435-1.642-4.8-3.387-7.115-5.193c-1.815-1.416-4.457-3.665-5.931-5.001c-3.969-3.596-7.119-6.898-10.689-11.227
		c-3.042-3.69-6.023-7.936-8.579-12.17c-9.502-15.737-14.677-33.944-14.794-52.33c-0.085-13.358,2.693-26.6,8.16-38.787
		c5.517-12.297,13.754-23.217,23.473-32.501c22.945-21.917,53.61-34.52,84.178-41.417c18.626-4.203,37.719-6.237,56.793-6.702
		c19.584-0.477,39.262,0.648,58.635,3.581C466.625,192.572,495.095,200.934,519.415,216.123z M561.125,212.114
		c0.017,0.013,0.03,0.022,0.046,0.035c0.042,0.114,0.089,0.246,0.115,0.367c0.102,0.463,0.039,0.983-0.01,1.45
		c-0.267,2.519-1.621,4.91-2.795,7.101c-2.873,5.361-6.574,10.705-7.542,16.833c-0.192,1.214-0.193,2.397-0.028,3.547
		c-0.286-0.335-0.569-0.673-0.859-1.006c-6.428-7.386-13.609-13.968-21.345-19.815c5.03,0.667,10.119-0.646,15.008-2.781
		c3.151-1.376,6.175-3.025,9.329-4.395c2.281-0.99,4.989-2.069,7.513-1.531C560.879,211.988,561.306,212.249,561.125,212.114z
		 M576.731,320.982c0.306,0.649,0.633,1.292,0.982,1.926c2.175,3.95,5.428,7.438,7.02,11.69c2.086,5.575-1.5,11.018-5.244,14.914
		c-3.92,4.08-8.842,7.326-14.066,9.722c0.403-0.721,0.798-1.449,1.182-2.184C572.461,345.845,575.659,333.518,576.731,320.982z
		 M576.271,297.694c-1.05-8.294-3.051-16.451-6.063-24.289c-1.864-4.851-4.109-9.533-6.67-14.034
		c0.493,0.476,1.041,0.911,1.619,1.162c4.695,2.041,9.354,4.21,13.76,6.827c2.322,1.379,4.809,2.895,6.544,4.95
		c2.355,2.788,2.296,6.392,0.837,9.559c-1.654,3.592-4.408,6.628-6.663,9.842C578.263,293.665,577.145,295.636,576.271,297.694z
		 M538.796,401.864c0.853,2.9,1.853,5.77,2.476,8.732c0.3,1.424,0.84,4.099-0.831,4.957c-1.537,0.789-3.352-0.528-4.625-1.289
		c-2.741-1.639-5.301-3.584-7.988-5.311c-3.528-2.268-7.34-4.36-11.368-5.527c7.033-3.549,13.816-7.628,20.133-12.289
		C536.811,394.771,537.787,398.434,538.796,401.864z M238.293,412.71c-0.042-0.94,0.149-1.887,0.341-2.799
		c0.63-2.993,1.671-5.901,2.533-8.832c1.792-6.096,3.216-12.72,0.946-18.799c0.007,0.006,0.014,0.013,0.021,0.019
		c7.421,6.578,15.487,12.269,24.005,17.183c-5.633,0.313-10.82,2.819-15.654,5.891c-2.631,1.672-5.143,3.523-7.776,5.19
		C241.574,411.282,239.647,412.471,238.293,412.71z M194.592,352.362c-0.028-0.044-0.055-0.087-0.077-0.128
		c-3.147-5.767,2.888-12.088,6.315-16.053c2.271-2.627,4.161-5.586,5.386-8.813c0.253,0.889,0.513,1.775,0.789,2.657
		c4.147,13.233,10.963,25.307,19.574,36.012c-0.08-0.05-0.159-0.103-0.24-0.149c-6.224-3.543-13.032-5.823-19.739-8.252
		c-3.079-1.115-6.152-2.267-9.109-3.68C196.494,353.479,195.528,352.946,194.592,352.362z M202.342,302.672
		c-1.266-2.284-2.629-4.521-3.935-6.784c-1.699-2.946-3.049-6.22-2.912-9.676c0.146-3.676,2.18-6.922,4.519-9.624
		c1.997-2.308,4.314-4.342,6.767-6.209C203.41,280.797,201.984,291.756,202.342,302.672z M223.729,231.082
		c-1.418-2.873-3.052-5.63-4.586-8.441c-1.173-2.15-2.446-4.475-2.784-6.934c-0.313-2.275,0.765-3.546,2.489-4.826
		c2.041-1.516,4.749-0.984,6.975-0.253c6.578,2.162,12.269,6.308,19.112,7.844c0.179,0.04,0.358,0.074,0.537,0.11
		c-7.105,5.368-13.679,11.416-19.447,18.127C225.441,234.751,224.599,232.844,223.729,231.082z M561.688,212.55
		C561.846,212.679,561.814,212.667,561.688,212.55L561.688,212.55z M557.277,413.366c-0.895-1.738-1.868-3.371-2.695-4.809
		c-2.943-5.115-5.538-11.476-3.302-17.35c1.485-3.904,5.01-6.53,8.615-8.341c2.794-1.403,5.861-2.311,8.75-3.502
		c2.734-1.127,5.422-2.364,8.069-3.68c5.857-2.911,12.667-6.929,18.084-12.055c-2.435,5.289-5.196,10.43-8.254,15.38
		c-3.191,5.165-6.719,10.241-10.558,15.091c-0.027-0.003-0.054-0.004-0.081-0.007c-0.174-0.018-0.19,0.095-0.126,0.267
		C570.247,401.319,564.062,407.794,557.277,413.366z M646.589,330.976c-0.392,7.223-4.205,13.727-10.614,17.096
		c-5.037,2.647-10.803,3.35-16.09,5.329c-5.742,2.149-9.25,6.271-9.987,12.432c-0.579,4.841,0.344,9.664-1.195,14.399
		c-1.357,4.176-4.855,7.248-8.511,9.448c-5.798,3.489-12.846,4.791-19.655,4.693c5.952-7.72,11.163-16.011,15.519-24.731
		c4.078-8.161,7.285-16.711,9.595-25.498c0.162,0.129,0.258,0.232,0.243,0.3c1.855-8.638,3.685-17.804,10.139-24.315
		c4.124-4.161,10.615-5.448,16.203-3.9c0.704,0.195,1.381,0.475,2.041,0.786c0.383,0.18,0.742,0.403,1.098,0.63
		c0.042,0.027,0.074,0.046,0.108,0.067c0.026,0.055,0.078,0.137,0.175,0.266c1.325,1.754,1.905,3.986,2.341,6.099
		c0.776,3.762,0.445,7.847-1.714,11.101c-1.559,2.35-4.127,3.858-6.874,4.334c-1.299,0.225-2.631,0.133-3.904-0.185
		c-0.767-0.192-1.497-0.502-2.204-0.852c-0.264-0.13-0.516-0.288-0.762-0.454c0.277,0.155-0.484-0.548-0.68-0.851
		c-1.441-2.233-1.986-5.149-0.93-7.641c1.171-2.764,4.277-3.509,6.999-3.374c-0.081-0.004-1.15-1.35-1.288-1.479
		c-0.347-0.323-1.043-1.156-1.565-1.182c-2.842-0.141-5.681,0.645-6.999,3.374c-1.1,2.277-0.488,5.085,0.618,7.226
		c2.55,4.938,8.521,9.123,14.193,7.96c7.195-1.476,9.078-9.188,7.936-15.49c-1.116-6.158-5.862-11.574-11.957-13.135
		c0.331-0.02,0.662-0.041,0.997-0.078c3.045-0.339,5.873-1.598,7.954-3.885c2.718-2.987,3.611-7.598,3.661-11.5
		c0.089-7.051-4.491-14.372-11.749-15.811c-5.849-1.159-11.305,2.715-12.684,8.438c-1.593,6.613,4.37,12.698,10.893,12.356
		c2.882-0.151-1.013-5.012-2.972-4.909c-0.697,0.036-1.435,0.072-2.123-0.075c-0.199-0.042-0.451-0.161-0.613-0.231
		c-0.007-0.018-0.013-0.034-0.022-0.055c-0.225-0.543-0.269-1.163-0.297-1.763c-0.129-2.745,1.565-5.423,3.563-7.142
		c1.984-1.707,4.762-2.398,7.268-1.63c0.149,0.046,0.227,0.067,0.268,0.076c0.032,0.02,0.106,0.057,0.264,0.13
		c-0.023-0.01,0.451,0.259,0.545,0.301c0.117,0.09,0.316,0.242,0.399,0.3c0.124,0.128,0.332,0.34,0.375,0.375
		c0.801,0.965,1.284,2.335,1.546,3.689c0.754,3.905-0.046,8.838-2.272,12.16c-1.75,2.612-4.567,3.918-7.603,4.33
		c-2.332,0.317-5.478-0.252-7.218-1.01c-0.178-0.078-0.952-0.521-1.034-0.547c-0.43-0.31-0.825-0.712-1.327-1.205
		c-1.471-1.441-2.619-3.32-3.524-5.155c-2.33-4.727-3.419-9.945-4.447-15.093c-0.79-7.703-2.029-15.361-3.806-22.898
		c-2.626-11.134-6.656-21.926-12.233-31.923c-1.642-2.943-3.437-5.782-5.307-8.57c0.071-0.004,0.135-0.023,0.189-0.06
		c3.677-2.461,7.912-3.878,12.361-3.712c1.845,0.069,3.737,0.501,5.365,1.386c0.713,0.387,0.724,0.436,1.208,1.274
		c0.623,1.078,0.987,2.299,1.287,3.499c2.072,8.29-2.461,16.674-2.785,24.934c-0.543,13.858,12.191,21.039,22.641,26.932
		c5.608,3.162,12.535,6.362,15.635,12.134c4.368,8.13-1.231,17.243-6.252,23.573c-0.466,0.588,1.958,2.512,2.317,2.754
		C644.437,318.256,646.929,324.712,646.589,330.976z M622.293,297.899L622.293,297.899c0.006,0.005,0.011,0.009,0.018,0.015
		C622.304,297.908,622.299,297.905,622.293,297.899z"/>
</g>
</svg>
