<?xml version="1.0" encoding="utf-8"?>
<!-- Generator: Adobe Illustrator 17.0.0, SVG Export Plug-In . SVG Version: 6.00 Build 0)  -->
<!DOCTYPE svg PUBLIC "-//W3C//DTD SVG 1.1//EN" "http://www.w3.org/Graphics/SVG/1.1/DTD/svg11.dtd">
<svg version="1.1" id="Layer_1" xmlns="http://www.w3.org/2000/svg" xmlns:xlink="http://www.w3.org/1999/xlink" x="0px" y="0px"
	 width="800px" height="600px" viewBox="0 0 800 600" enable-background="new 0 0 800 600" xml:space="preserve">
<g>
	<path fill-rule="evenodd" clip-rule="evenodd" fill="#FFFFFF" d="M255.411,161.988c-0.773,0.773-0.773,1.546-1.546,1.546
		c-1.546,0-1.546,0-2.319,0c-1.543,0.77-4.632,3.089-6.178,4.635c0,0.771-3.862,7.724-3.862,7.724v1.546
		c3.862,0,4.635-1.546,6.181-3.864c1.543-2.319,2.316-3.089,4.632-4.635c0.773-0.771,2.319-2.316,2.319-3.089
		c1.546-0.773,2.316,0,3.862-1.546c0.773-1.543,3.862-3.862,3.862-6.178h-1.543C257.727,158.126,261.589,161.988,255.411,161.988
		L255.411,161.988z"/>
	<path fill-rule="evenodd" clip-rule="evenodd" fill="#FFFFFF" d="M243.052,188.251h6.178c1.546,0.773,6.181,5.408,5.408,8.497
		v4.635c3.089,2.319,2.316,4.635,8.497,5.405c3.862,0,10.043,0.775,10.043-3.087v-2.319c3.089-0.773,5.408-3.862,4.632-6.953
		l-0.77-7.724l0,0c-3.862-0.773-3.089-3.862-4.635-6.181c-0.773-0.77-4.635-7.721-4.635-7.721c0-1.548,2.319-6.954,2.319-8.499
		c0-3.089-1.546-6.178-3.092-6.951c-1.543,0.773-1.543,1.546-2.316,3.862c-0.773,2.319-1.546,2.319-2.319,4.635
		c-1.543,2.319-3.862,6.181-5.408,8.497c-2.316,2.316-5.408,3.092-7.724,6.178C246.914,185.162,243.052,184.389,243.052,188.251
		L243.052,188.251z"/>
	<path fill-rule="evenodd" clip-rule="evenodd" fill="#FFFFFF" d="M280.901,189.024c0.773,0,2.316,4.635,2.316,4.635
		c0,3.862-1.543,3.862-3.86,5.405c0,5.408-5.408,10.043-10.043,10.043h-1.546c-2.316,0-2.316-0.773-4.635-0.773v1.546
		c0,1.546-2.316,0.771-2.316,7.724c1.543-0.77,3.862,0,6.178-0.77c1.546-0.775,3.862-1.548,5.408-2.319
		c3.862-1.543,5.405-3.864,7.727-6.951c3.86-3.862,10.04-11.588,11.584-17.769h-2.316c0-3.862-3.089-3.089-6.953-3.089
		L280.901,189.024z"/>
	<path fill-rule="evenodd" clip-rule="evenodd" fill="#FFFFFF" d="M279.358,216.058l-0.773,3.862
		c2.316,4.637,10.04,3.864,13.129-0.771c3.864-4.635-2.316-11.586-3.089-14.677h-0.773h0.773L279.358,216.058z"/>
	<path fill-rule="evenodd" clip-rule="evenodd" d="M474.789,216.834c0.77,0,1.543,0,1.543-1.548c0-0.77-1.543-2.314-2.316-2.314
		C472.47,214.515,474.016,214.515,474.789,216.834L474.789,216.834z"/>
	<polygon fill-rule="evenodd" clip-rule="evenodd" points="481.74,223.012 481.74,221.466 478.651,221.466 	"/>
	<path fill-rule="evenodd" clip-rule="evenodd" d="M499.507,238.46c0,1.546,6.178,3.862,7.724,4.635
		c0-3.089-4.635-3.862-6.951-5.408L499.507,238.46L499.507,238.46z"/>
	<path fill-rule="evenodd" clip-rule="evenodd" fill="#667279" d="M454.704,253.137c-0.773-1.543,0.773-0.773-1.543-1.543
		C453.931,253.137,453.16,253.137,454.704,253.137L454.704,253.137z"/>
	<path fill-rule="evenodd" clip-rule="evenodd" fill="#FFFFFF" d="M292.488,199.837v0.773c0,1.546,0.773,1.546,1.546,3.092
		c0.773,1.543,0,2.316,0,3.862c0,0.77,1.546,1.543,2.316,2.316v2.316c0.773,0.775,1.546,1.546,1.546,3.089v0.773
		c0,6.181-6.951,11.588-13.132,11.588c-5.405,0-13.132-2.319-13.905-7.726l-5.405,2.319c2.316,0.773,2.316,3.862,4.635,5.408
		c2.316,1.546,3.862,0,6.178,3.089c0.773,1.546,3.864,3.092,5.408,3.862c0.771,0.773,3.862,4.635,4.635,5.408
		c2.316,3.089,1.543,0.773,4.635,5.408c0.77,2.319,3.862,3.089,5.405,4.635c2.319,3.089,7.727,6.178,7.727,11.586l-1.546,0.773
		c0,1.546,0,2.316,1.546,2.316l0,0c2.316,0,3.862-5.405,6.951-7.724c0,0,6.178-6.951,6.178-7.724l1.546,1.543l9.27-10.04
		c-3.862,0-3.862-3.092-6.178-4.635c-2.316-1.546-3.864-1.546-6.181-4.635c-1.546-3.089-3.089-3.089-4.635-5.408
		c-1.546-3.089,0-3.862-3.862-6.181c0-4.635-1.546-3.087-3.089-6.178c-0.773-2.316-0.773-3.862-2.319-6.954
		c-0.77-1.543-1.543-4.632-3.089-6.178c-2.319-2.316-0.773-3.862-3.862-5.408C294.806,195.975,292.488,199.837,292.488,199.837
		L292.488,199.837z"/>
	<path fill-rule="evenodd" clip-rule="evenodd" fill="#FFFFFF" d="M344.242,272.45c1.546-1.546,1.546-1.546,1.546-3.862
		C344.242,269.358,344.242,270.131,344.242,272.45L344.242,272.45z"/>
	<path fill-rule="evenodd" clip-rule="evenodd" d="M472.47,321.113c0,1.546,11.586-3.089,13.905-3.089
		c0.773,0,1.546-0.773,1.546-0.773c0-1.543,0-0.773-0.773-2.316l-1.546-0.773C483.286,314.934,472.47,318.024,472.47,321.113
		L472.47,321.113z"/>
	<path fill-rule="evenodd" clip-rule="evenodd" fill="#FFFFFF" d="M454.704,253.137c-1.543,0-0.773,0-1.543-1.543
		C455.477,252.364,453.931,251.594,454.704,253.137L454.704,253.137z M507.231,243.095c-1.546-0.773-7.724-3.089-7.724-4.635
		l0.773-0.773C502.596,239.233,507.231,240.006,507.231,243.095L507.231,243.095z M478.651,221.466h3.089v1.546L478.651,221.466z
		 M476.332,215.285c0,1.548-0.773,1.548-1.543,1.548c-0.773-2.319-2.319-2.319-0.773-3.862
		C474.789,212.972,476.332,214.515,476.332,215.285L476.332,215.285z M428.44,226.874c0,1.546,0.773,3.862,1.546,5.408l-2.319,2.316
		v2.319c0,2.316,3.092,9.267,4.638,10.04v2.319l3.086,3.089c0,3.862,7.727,8.497,12.361,8.497c2.316,0,3.862-0.773,5.408-1.543
		c4.632-1.546,2.316-1.546,3.862-3.864c3.089-3.089,5.408-3.86,5.408-9.27c2.314-2.316,2.314-6.951,3.86-10.813
		c0.775-1.543,2.319-8.497,3.092-10.813l0.77-0.773l3.092-0.773c2.316,3.862,1.546,4.635,4.635,7.724
		c2.316,2.319,3.862,4.635,6.178,6.951c3.864,4.635,7.726,8.497,12.361,13.132c3.862,3.864,7.724,8.499,11.586,13.134
		c3.089,2.316,11.586,10.813,13.132,12.356c0.773,0.773,11.586,13.134,11.586,13.134c3.862,3.862,8.497,10.043,12.359,13.129
		c3.865,2.319,22.401,27.039,23.947,27.039c1.543,0,1.543-1.546,2.316-1.546s1.546,0.773,2.319,1.546
		c0.773,0,5.408-3.092,5.408-4.635v-0.773c0-1.546-13.134-24.718-14.677-27.809c-3.089-4.635-5.408-10.043-8.497-13.905
		c-1.546-2.316-3.089-5.408-4.635-6.951c-3.089-2.319-2.316-3.862-4.635-5.408c0-3.862-3.862-6.951-5.408-10.813
		c-1.543-3.864-3.862-6.954-5.405-10.816c-1.546-4.635-8.497-15.448-11.589-20.083c-3.862-6.181-7.724-13.905-11.586-20.085
		c-1.546-3.862-3.862-6.178-6.181-10.04c-1.546-3.864-3.089-6.954-6.178-10.043c-3.089-2.319-6.181-3.862-10.043-5.408
		c-3.862-2.319-7.724-3.089-12.359-3.089c-10.043,0.77-20.085,1.546-25.491,6.951c-6.954,6.181-10.813,6.181-15.451,16.221
		c-1.546,2.319-0.77,3.092-1.546,5.408c-1.543,2.316-2.316,3.092-3.086,5.408C431.529,216.058,428.44,224.558,428.44,226.874
		L428.44,226.874z"/>
	<path fill-rule="evenodd" clip-rule="evenodd" fill="#FFFFFF" d="M575.979,334.244c0,0.775,0.773,1.546,2.319,1.546
		c1.543,0,2.316-1.546,2.316-3.862c0-0.773-0.773-1.546-1.543-1.546C578.298,330.382,575.979,332.701,575.979,334.244
		L575.979,334.244z"/>
	<path fill-rule="evenodd" clip-rule="evenodd" d="M300.214,335.02h-0.773c-1.546,0-0.773-0.775-2.319-0.775
		c-2.316,0-1.543,1.546-3.089,1.546c-2.319,0-2.319,0-3.862,0v3.092c3.089,0,14.678-0.775,14.678-3.092
		c0-1.546-0.773-2.316-2.319-2.316C300.987,333.474,301.757,335.02,300.214,335.02L300.214,335.02z"/>
	<path fill-rule="evenodd" clip-rule="evenodd" d="M291.715,355.103v1.543c0,0.773,0,0.773,0.773,2.319
		c3.092-0.773,13.132-1.546,13.132-3.862c0-1.546,0-1.546-0.77-2.319L291.715,355.103z"/>
	<path fill-rule="evenodd" clip-rule="evenodd" d="M477.878,358.965v1.546c1.543,0,1.543,0,1.543-1.546v-3.089
		C478.651,356.646,477.878,356.646,477.878,358.965L477.878,358.965z"/>
	<path fill-rule="evenodd" clip-rule="evenodd" d="M438.483,388.317c0-3.089,2.316-5.408,3.862-7.724
		c0.773-2.319,1.543-6.181,4.635-6.951C446.98,377.504,440.799,387.544,438.483,388.317L438.483,388.317z M444.661,278.628
		c0,1.546,1.546,1.546,2.319,1.546v1.543c0,0.773,2.316,3.862,3.089,4.635v1.546c0,0.773,0.773,0.773,0.773,2.319v1.543
		c0,1.546,0,1.546-0.773,2.319c3.092,4.632,5.408,11.586,3.862,20.083c0,1.546-1.543,0.773-1.543,4.635
		c0,3.089-0.773,3.089-0.773,5.408c0,3.089-1.546,9.27,0,10.816c1.546-0.775,1.546-3.092,0.773-5.408l1.543-8.499h0.773l1.546,2.319
		c-0.773,3.089-0.773,7.724-1.546,11.588c-2.316,6.949-3.089-0.775-3.089,10.04c0,10.816-7.727,26.264-11.588,33.988
		c-2.316,3.862-6.178,10.043-8.497,13.132c-3.089,3.092-9.267,10.043-9.267,13.905c4.635,0,12.359-10.813,16.221-14.678
		c3.092-3.089,10.813-13.132,10.813-20.083v-0.773h-1.543v-3.092c6.178,0,3.862-3.087,3.862-6.949c0-2.319,3.089-12.361,3.862-15.45
		c0-2.319,0-2.319,0.773-3.862c0-1.546,0.773-2.316,0.773-3.864c0.77-3.089,0.77-6.178,1.543-9.267
		c2.319-13.132-2.316-23.947-2.316-34.76c0-2.319-1.546-2.319-0.773-5.408l-1.546-1.546c0-3.089-3.862-10.813-6.951-10.813
		C446.207,275.539,444.661,277.855,444.661,278.628L444.661,278.628z"/>
	<path fill-rule="evenodd" clip-rule="evenodd" d="M344.242,272.45c0-2.319,0-3.092,1.546-3.862
		C345.788,270.904,345.788,270.904,344.242,272.45L344.242,272.45z M329.567,298.711v5.408c-3.862,6.181-2.319,2.316-3.089,10.816
		c-0.773,3.089-0.773,9.27,0,13.132c0,3.089,1.543,10.04,1.543,13.132c0,3.862,0.773,10.04,1.546,13.132
		c0.773,1.546,0.773,1.546,1.546,5.408c0.77,2.316,0.77,3.089,2.316,4.635c1.546,2.316,3.089,7.724,4.635,10.04
		c0.77,3.862,3.089,5.408,5.408,9.27l7.724,6.954c1.543,0,1.543-1.546,3.862-1.546c0.773,3.089,2.316,5.408,6.178,5.408
		c3.092,0-4.632-4.635-4.632-5.408c-3.092-1.546-3.864-2.319-6.181-5.408c-3.862-3.089-8.497-8.497-10.813-13.132
		c-0.775-2.316-2.319-5.408-3.092-7.724c-0.77-2.316-0.77-2.316-0.77-5.408c0-3.089-1.546-2.316-1.546-4.635
		c-0.773-3.862-1.546-5.408-1.546-9.27c0-1.546,0-3.862,0.773-5.408c0-3.862-0.773-3.087-0.773-4.632s2.319-7.726,3.092-9.27
		c0.77-1.546,0-3.092,0.77-4.635c0.773-1.546,2.316-2.319,1.546-3.862l-3.862,3.089c-0.773-0.773-0.773-0.773-0.773-1.546
		s1.546-9.27,1.546-10.04c0.773-3.092,3.089-7.724,2.316-10.045c0-4.632,6.181-12.356,6.181-18.537
		c1.543-2.319,1.543-4.635,3.089-7.724c2.316-2.316,3.862-3.089,5.408-6.181v-1.543l-0.773-0.773
		C336.518,266.269,335.747,294.852,329.567,298.711L329.567,298.711z"/>
	<path fill-rule="evenodd" clip-rule="evenodd" d="M297.895,378.275L297.895,378.275c0,1.546,0.773,1.546,1.546,1.546
		c0.773,0,10.813-4.635,10.813-6.178c0-1.546-0.773-1.546-1.543-2.319C305.619,372.096,297.895,374.413,297.895,378.275
		L297.895,378.275z"/>
	<path fill-rule="evenodd" clip-rule="evenodd" fill="#FFFFFF" d="M438.483,388.317c2.316-0.773,8.497-10.813,8.497-14.675
		c-3.092,0.77-3.862,4.632-4.635,6.951C440.799,382.909,438.483,385.228,438.483,388.317L438.483,388.317z"/>
	<path fill-rule="evenodd" clip-rule="evenodd" d="M304.076,389.09v1.546l4.635,2.316l5.405-4.635c1.546,0,0.773,0.773,2.319,0.773
		c1.543,0,2.316-1.546,2.316-2.319v-1.543l-0.773-0.773C315.662,384.455,307.165,388.317,304.076,389.09L304.076,389.09z"/>
	<path fill-rule="evenodd" clip-rule="evenodd" d="M328.021,412.262l-3.089-0.771l1.546,2.316
		c-4.635-1.546-10.043-9.27-13.905-12.359c-1.546-1.543-1.546-1.543-3.092-3.092c-1.543-1.543-1.543-2.316-3.089-3.86
		c-0.773-1.546-5.405-6.181-6.951-6.181c0-5.408-6.954-13.132-6.954-19.312c-2.316-0.771-3.862-4.632-5.408-6.951
		c0-3.862-0.77-6.178-0.77-6.951v-3.864c0-3.089,0.77-3.862,0.77-6.949v-1.548c0-1.543-0.77-0.773-0.77-2.316v-5.405l3.089-15.45
		c0.773,0,1.546,0.773,3.862,0.773c0.773,0,2.319-0.773,3.862-0.773c3.092,0,5.408-1.546,9.27-1.546l0.773-0.773
		c-0.773-1.543-0.773-2.316-2.316-2.316h-4.635c-5.408,0-6.954,2.316-10.043,2.316v-10.04v-0.775c0-4.632,7.724-3.862,10.043-3.087
		c1.543-0.775,1.543-1.546,3.862-1.546c1.543,0,2.316,0.77,3.862,0.77h3.089l0.773-1.543v-1.543c-1.546,0-1.546,0-3.089,0
		l-0.773-0.775l-10.816,1.546c-0.773-0.771-2.316-0.771-2.316-2.316v-1.546c0-0.773,0.773-0.773,1.543-1.543
		c0-6.954,3.865-9.272,3.865-10.816v-2.319c2.316-0.773,4.635-5.408,4.635-8.497c1.543-2.316,2.316-2.316,3.089-5.405
		c1.543-2.319,3.089-2.319,4.635-3.862c1.543-2.319,0.77-3.864,3.862-4.635c3.092-0.773,1.543-1.546,4.635-3.864
		c1.543-0.771,8.497-5.405,10.043-6.951c1.543-1.546-0.773-3.089,3.862-4.635c3.089-2.319,2.316-0.773,4.635-3.862
		c1.543-1.546,9.267-5.408,11.586-5.408c4.635-0.77,3.089,0,6.178-2.316c0.773-0.773,4.635-2.319,6.181-2.319
		c4.635-1.543,25.491-4.635,30.125-4.635l6.954,0.773l7.724-0.773h2.316c2.319,0,3.089,1.546,4.635,1.546s1.546-1.546,3.862-1.546
		c2.319,0,0,6.181,0,9.27v0.773c0,7.724,4.635,19.312,8.497,22.402c3.862,3.089,5.408,3.862,10.043,6.181
		c2.316,0.771,3.865,0.771,6.178,0.771c2.319,0.773,3.864,3.864,4.635,3.864c2.319,0,8.499-4.635,10.043-5.408
		c4.635-2.319,4.635-6.953,7.724-8.497c2.319,1.543,5.408,9.27,6.953,13.132c0.773,2.316,2.316,5.405,3.089,7.724
		c1.546,3.089,5.408,3.089,5.408,5.405v1.546c0,2.319-0.773,2.319-1.546,3.862l3.092,0.773c0,3.092,3.089,5.408,3.089,6.954
		l-0.773,6.951c-2.316,0.773-7.724,3.862-10.043,4.635c-3.862,1.546-9.27,1.546-9.27,4.635c10.816,0,16.223-6.951,23.174-6.951
		c0,2.316-1.543,2.316-1.543,3.087c0,3.092,3.089,7.726,2.316,7.726l-0.773,8.497c-4.635,0-2.316,5.408-1.543,6.954
		c-4.635,3.089-1.546,1.543-7.727,3.089c-1.543,0.773-7.724,1.543-7.724,3.089c0,1.543,0,1.543,1.546,1.543h2.316
		c3.089,0,8.497-2.314,10.816-2.314c1.543,0,0.773,3.087,0.773,4.632c-1.546,3.862-0.773,1.546-0.773,5.408
		c0,3.862-15.451,3.862-15.451,6.178c0,1.546,0.773,1.546,1.546,1.546h4.635c1.543,0,6.178-1.546,7.724-1.546v3.092
		c0,0.773,0,0.773-0.773,2.316c0,3.864,0,10.043-3.089,10.813c-2.319,0.775-11.588,0.775-11.588,3.092
		c0,1.546,1.546,2.316,2.319,2.316h0.773c3.089,0,3.862-1.543,6.951-1.543c0.773,0,1.546,0.773,1.546,1.543
		c0,1.546-6.951,11.588-7.724,13.134c-3.089,0-13.905,1.543-13.905,3.862c0,1.543,0.773,1.543,1.546,2.316
		c1.543-0.773,10.04-3.862,10.04-0.773c0,5.408-6.178,1.546-8.497,6.181c-1.543,3.089,0.773,3.089-3.089,3.862
		c-3.089,0-4.635,0.773-6.951,1.543l1.543,3.092l5.408-0.771c0,3.86-2.319,1.543-3.862,3.86c-0.773,2.319,0.773,3.089-3.862,3.089
		c0,4.635-0.773,3.092-3.864,5.408c-1.543,0.773-3.862,3.092-5.405,3.864c-3.864,1.543-3.092,0.771-6.951,3.089
		c-0.775,1.543-3.092,3.86-5.408,3.86h-3.862c-1.546-0.771-1.546-1.543-2.319-1.543c-1.546,0-6.951,3.089-8.497,3.864
		c-1.546-0.775-0.773-0.775-1.546-0.775c-2.316,0-9.27,2.319-10.043,3.862l-10.813,0.775h-13.905l-6.178-3.092h-3.862l-1.546-0.771
		c-7.724,0-11.586-0.775-16.221-3.864h-2.319c-3.862-2.316-7.724-3.862-11.586-6.951c-1.546-0.773-3.862-3.092-5.408-3.092
		C330.34,416.127,328.021,414.581,328.021,412.262L328.021,412.262z M338.064,418.443l-3.862-2.316
		C334.975,418.443,335.747,418.443,338.064,418.443L338.064,418.443z M320.297,408.4l2.316-2.316c6.954,0,2.319-3.092,10.816-3.092
		c0.773-0.771,0.773-0.771,0.773-2.316c0-0.77-0.773-1.546-1.546-1.546c-1.543,0-6.178,2.319-7.724,3.092
		c-3.862,1.543-4.635,0.771-6.181,4.635L320.297,408.4z M575.979,334.244c0-1.543,2.319-3.862,3.092-3.862
		c0.771,0,1.543,0.773,1.543,1.546c0,2.316-0.773,3.862-2.316,3.862C576.752,335.79,575.979,335.02,575.979,334.244L575.979,334.244
		z M428.44,226.874c0-2.316,3.089-10.816,3.865-13.132c0.77-2.316,1.543-3.092,3.086-5.408c0.775-2.316,0-3.089,1.546-5.408
		c4.638-10.04,8.497-10.04,15.451-16.221c5.405-5.405,15.448-6.181,25.491-6.951c4.635,0,8.497,0.77,12.359,3.089
		c3.862,1.546,6.954,3.089,10.043,5.408c3.089,3.089,4.632,6.178,6.178,10.043c2.319,3.862,4.635,6.178,6.181,10.04
		c3.862,6.181,7.724,13.905,11.586,20.085c3.092,4.635,10.043,15.448,11.589,20.083c1.543,3.862,3.862,6.951,5.405,10.816
		c1.546,3.862,5.408,6.951,5.408,10.813c2.319,1.546,1.546,3.089,4.635,5.408c1.546,1.543,3.089,4.635,4.635,6.951
		c3.089,3.862,5.408,9.27,8.497,13.905c1.543,3.092,14.677,26.264,14.677,27.809v0.773c0,1.543-4.635,4.635-5.408,4.635
		c-0.773-0.773-1.546-1.546-2.319-1.546s-0.773,1.546-2.316,1.546c-1.546,0-20.083-24.72-23.947-27.039
		c-3.862-3.087-8.497-9.267-12.359-13.129c0,0-10.813-12.361-11.586-13.134c-1.546-1.543-10.043-10.04-13.132-12.356
		c-3.862-4.635-7.724-9.27-11.586-13.134c-4.635-4.635-8.497-8.497-12.361-13.132c-2.316-2.316-3.862-4.632-6.178-6.951
		c-3.089-3.089-2.319-3.862-4.635-7.724l-3.092,0.773l-0.77,0.773c-0.773,2.316-2.316,9.27-3.092,10.813
		c-1.546,3.862-1.546,8.497-3.86,10.813c0,5.41-2.319,6.181-5.408,9.27c-1.546,2.319,0.77,2.319-3.862,3.864
		c-1.546,0.77-3.092,1.543-5.408,1.543c-4.635,0-12.361-4.635-12.361-8.497l-3.086-3.089v-2.319
		c-1.546-0.773-4.638-7.724-4.638-10.04v-2.319l2.319-2.316C429.213,230.736,428.44,228.42,428.44,226.874L428.44,226.874z
		 M288.625,204.472h-0.773H288.625c0.773,3.092,6.954,10.043,3.089,14.677c-3.089,4.635-10.813,5.408-13.129,0.771l0.773-3.862
		L288.625,204.472z M284.763,227.647c6.181,0,13.132-5.408,13.132-11.588v-0.773c0-1.543-0.773-2.314-1.546-3.089v-2.316
		c-0.77-0.773-2.316-1.546-2.316-2.316c0-1.546,0.773-2.319,0-3.862c-0.773-1.546-1.546-1.546-1.546-3.092v-0.773
		c0,0,2.319-3.862,2.319-4.635c3.089,1.546,1.543,3.092,3.862,5.408c1.546,1.546,2.319,4.635,3.089,6.178
		c1.546,3.092,1.546,4.637,2.319,6.954c1.543,3.092,3.089,1.543,3.089,6.178c3.862,2.319,2.316,3.092,3.862,6.181
		c1.546,2.319,3.089,2.319,4.635,5.408c2.316,3.089,3.865,3.089,6.181,4.635c2.316,1.543,2.316,4.635,6.178,4.635l-9.27,10.04
		l-1.546-1.543c0,0.773-6.178,7.724-6.178,7.724c-3.089,2.319-4.635,7.724-6.951,7.724l0,0c-1.546,0-1.546-0.771-1.546-2.316
		l1.546-0.773c0-5.408-5.408-8.497-7.727-11.586c-1.543-1.546-4.635-2.316-5.405-4.635c-3.092-4.635-2.319-2.319-4.635-5.408
		c-0.773-0.773-3.864-4.635-4.635-5.408c-1.543-0.77-4.635-2.316-5.408-3.862c-2.316-3.089-3.862-1.543-6.178-3.089
		c-2.319-1.546-2.319-4.635-4.635-5.408l5.405-2.319C271.632,225.328,279.358,227.647,284.763,227.647L284.763,227.647z
		 M269.315,209.107c4.635,0,10.043-4.635,10.043-10.043c2.316-1.543,3.86-1.543,3.86-5.405c0,0-1.543-4.635-2.316-4.635l1.543-2.319
		c3.864,0,6.953-0.773,6.953,3.089h2.316c-1.543,6.181-7.724,13.907-11.584,17.769c-2.321,3.087-3.864,5.408-7.727,6.951
		c-1.546,0.77-3.862,1.543-5.408,2.319c-2.316,0.77-4.635,0-6.178,0.77c0-6.953,2.316-6.178,2.316-7.724v-1.546
		c2.319,0,2.319,0.773,4.635,0.773H269.315z M243.052,188.251c0-3.862,3.862-3.089,6.178-7.727c2.316-3.087,5.408-3.862,7.724-6.178
		c1.546-2.316,3.864-6.178,5.408-8.497c0.773-2.316,1.546-2.316,2.319-4.635c0.773-2.316,0.773-3.089,2.316-3.862
		c1.546,0.773,3.092,3.862,3.092,6.951c0,1.546-2.319,6.951-2.319,8.499c0,0,3.862,6.951,4.635,7.721
		c1.546,2.319,0.773,5.408,4.635,6.181l0,0l0.77,7.724c0.775,3.092-1.543,6.181-4.632,6.953v2.319c0,3.862-6.181,3.087-10.043,3.087
		c-6.181-0.77-5.408-3.087-8.497-5.405v-4.635c0.773-3.089-3.862-7.724-5.408-8.497H243.052z M255.411,161.988
		c6.178,0,2.316-3.862,5.408-3.862h1.543c0,2.316-3.089,4.635-3.862,6.178c-1.546,1.546-2.316,0.773-3.862,1.546
		c0,0.773-1.546,2.319-2.319,3.089c-2.316,1.546-3.089,2.316-4.632,4.635c-1.546,2.319-2.319,3.864-6.181,3.864v-1.546
		c0,0,3.862-6.953,3.862-7.724c1.546-1.546,4.635-3.864,6.178-4.635c0.773,0,0.773,0,2.319,0
		C254.638,163.534,254.638,162.761,255.411,161.988L255.411,161.988z M272.404,169.712c0.773-1.543,2.319-6.178,2.319-9.27v-0.773
		c0-9.267-10.816-3.089-12.362-7.724h-3.089c-4.635,0-13.132,8.497-15.448,11.588c-2.319,2.316-3.862,4.635-5.408,8.497
		c0,0.773-3.089,10.04-3.089,10.04c0,0.773,1.543,1.546,1.543,3.092l0,0c0,3.089,0.773,7.724,5.408,7.724
		c2.316,0,3.862-0.773,5.408-1.546l2.316,1.546l0.773,0.773l-2.319,5.405l6.181,5.408v0.773c-0.773,1.543-1.546,3.089-1.546,4.635
		c0,2.316,1.546,3.862,2.319,4.635c0,3.862,1.543,7.724,3.089,9.27c2.319,3.089,3.862,4.635,7.724,5.408
		c3.092,0.771,13.134,8.495,14.677,10.04c3.089,6.951,0.773,3.089,5.408,7.724c3.089,2.319,3.862,3.862,6.178,6.181
		c2.319,1.546,10.043,13.132,10.043,15.451l-2.316,2.316c0,6.178-1.546,3.862-3.092,6.178c-1.543,1.546,0,0.773-1.543,2.319
		c-1.546,1.543-0.773,0.773-1.546,2.316c-0.773,2.319-4.635,10.043-6.181,11.588v2.316c-3.862,6.181,0,16.994-5.408,25.491
		l-1.543,27.036v3.862c0,2.319-0.77,1.546-0.77,3.864v3.862l0.77,6.178c1.543,3.089,2.316,3.864,2.316,9.27
		c2.319,0.773,5.408,6.181,5.408,9.27c7.724,11.586,14.678,18.537,25.491,27.036c5.41,3.862,10.816,6.951,16.223,10.813
		c3.862,2.319,14.675,6.178,16.994,9.27h2.316l6.181,3.092c7.724,0,13.905,1.543,20.083,3.862c1.546,0,20.086,1.543,23.175,1.543
		c2.319,0,3.089-1.543,5.405-0.773c1.548,0,3.864,0,6.181-0.771c2.319,0,7.724-1.546,10.816-2.319
		c6.951-1.543,13.132-3.862,18.537-7.726c5.408-3.86,12.361-5.405,15.45-10.813c3.089-4.635,8.497-9.27,12.359-14.677
		c2.316-3.087,2.316-4.635,5.408-7.722c2.316-3.092,3.089-5.408,5.408-8.499c1.543-3.089,2.316-5.405,3.862-9.267
		c2.316-3.092,1.543-6.181,3.089-9.27c3.089-5.408,5.408-13.905,6.954-20.085c0.77-3.86,0.77-7.724,1.543-11.586
		c0.773-2.319,0-4.635,0-6.951c0-3.092,1.546-3.092,1.546-5.408c0-1.546-1.546-2.319-1.546-4.635c0-5.408,2.319-4.635,1.546-10.816
		c-0.773-3.862-1.546-8.497-1.546-10.813c-0.773-5.408-1.543-6.181-3.089-9.27c-1.546-2.319-2.319-6.953-3.089-9.27
		c-1.546-3.862-3.092-4.635-4.635-9.27c-0.773-2.316-3.092-5.408-3.865-7.724c-0.77-1.546-4.632-6.953-5.405-7.724
		c-0.773-1.546-1.546-2.319-3.089-3.089c-2.319-0.775-3.092-0.775-3.092-3.092c0,0,1.546-8.497,1.546-9.27
		c1.546-3.862,0-6.951,2.316-8.497c3.862,1.546,21.629,22.401,27.036,27.036c4.635,4.635,7.724,9.27,12.359,13.905
		c4.635,3.862,9.27,9.267,13.132,13.902c2.319,2.319,3.865,5.408,6.181,7.727c3.089,2.316,3.089,3.86,6.178,6.951
		c4.635,4.635,8.497,9.27,13.132,13.905c5.408,5.408,7.727,8.497,12.362,13.905c2.316,2.316,11.586,13.132,13.902,13.132
		c1.546,0,7.727-3.864,8.499-6.178c0-1.546-1.546-10.043-1.546-13.134c-1.546-3.089-3.092-6.178-5.408-9.27
		c-2.319-3.862-3.089-6.181-5.408-10.043c-3.089-4.632-7.724-13.902-10.04-20.083c-0.773-2.316-2.319-2.316-3.092-3.862
		c-0.77-1.546-1.543-4.635-2.316-6.178c-1.546-3.092-3.862-5.408-5.408-9.27c-0.773-3.862-0.773-2.319-2.316-4.635
		c-0.773-1.546-1.546-3.862-2.319-5.408c-1.546-3.862-3.089-5.405-4.635-10.043c-1.546-3.089-2.316-2.316-3.862-3.862
		c0-0.773-1.546-4.635-2.316-5.405c-1.546-3.092-3.092-5.408-5.408-9.27c-1.546-3.092-1.546-2.319-3.089-4.637
		c-1.546-1.543-0.773-3.087-2.319-4.635c-3.089-4.635-3.089-4.635-6.178-9.267c-1.546-3.862-3.865-5.408-6.181-9.27
		c-1.546-3.089-3.092-6.181-5.408-9.27c-1.546-2.316-6.178-4.635-8.497-6.178c-3.862-3.092-6.951-1.546-9.27-5.408
		c-5.408,0-3.089-2.319-6.951-2.319c-2.319,0-3.092,0.773-5.408,0.773s-3.862-0.773-6.178,0c-5.408,0.773-6.954,0-10.816,2.316
		c-6.181,3.862-12.359,4.637-18.537,9.27c-2.321,1.546-4.638,4.635-6.954,6.953c-1.546,3.089-0.773,2.316-2.316,5.408
		c0,0.77-1.546,2.316-2.319,3.862c-1.546,1.546-0.773,3.862-1.546,5.408c-0.773,1.543-2.316,2.316-3.862,3.087
		c-2.316,3.092-2.316,5.408-2.316,10.816c-0.773,0-1.546,0.773-2.319,0.773l-16.994-3.089l-5.408,0.771
		c-4.635,0-8.497,0.773-12.359,1.546c-3.089,0-9.27,0-12.359,0.773c-2.316,0-19.312,5.408-20.856,6.181c-0.773,0-0.773,0-2.319,0
		c-6.951,0-15.448,5.408-18.537,9.267l-3.092-0.771c-1.543-2.319-5.408-4.635-7.724-6.953c-2.319-2.316-4.635-6.178-6.181-8.497
		v-2.316c-1.543-1.546-2.316-3.092-3.862-4.635c-1.543-2.319-1.543-4.635-2.316-6.181c-0.773-1.546-2.319-4.632-3.089-6.178
		c-1.546-4.635-0.773-1.546-3.092-5.408c0-3.089-0.77-4.635-2.316-6.181c-3.092-3.089-1.546-1.543-3.862-5.405
		c-0.773-0.773-10.816-3.092-13.134-3.092c-0.771,0,0,0-2.314,0c-0.773-3.862-3.092-3.089-4.637-5.408
		C273.951,175.12,273.178,172.031,272.404,169.712L272.404,169.712z"/>
	<path fill-rule="evenodd" clip-rule="evenodd" fill="#FFFFFF" d="M338.064,418.443c-2.316,0-3.089,0-3.862-2.316L338.064,418.443z
		 M318.751,406.857c1.546-3.864,2.319-3.092,6.181-4.635c1.546-0.773,6.181-3.092,7.724-3.092c0.773,0,1.546,0.775,1.546,1.546
		c0,1.546,0,1.546-0.773,2.316c-8.497,0-3.862,3.092-10.816,3.092l-2.316,2.316L318.751,406.857z M304.076,389.09
		c3.089-0.773,11.586-4.635,13.902-4.635l0.773,0.773v1.543c0,0.773-0.773,2.319-2.316,2.319c-1.546,0-0.773-0.773-2.319-0.773
		l-5.405,4.635l-4.635-2.316V389.09z M297.895,378.275c0-3.862,7.724-6.178,10.816-6.951c0.77,0.773,1.543,0.773,1.543,2.319
		c0,1.543-10.04,6.178-10.813,6.178C298.668,379.82,297.895,379.82,297.895,378.275L297.895,378.275z M477.878,358.965
		c0-2.319,0.773-2.319,1.543-3.089v3.089c0,1.546,0,1.546-1.543,1.546V358.965z M304.849,352.784c0.77,0.773,0.77,0.773,0.77,2.319
		c0,2.316-10.04,3.089-13.132,3.862c-0.773-1.546-0.773-1.546-0.773-2.319v-1.543L304.849,352.784z M300.214,335.02
		c1.543,0,0.773-1.546,2.316-1.546c1.546,0,2.319,0.771,2.319,2.316c0,2.316-11.588,3.092-14.678,3.092v-3.092
		c1.543,0,1.543,0,3.862,0c1.546,0,0.773-1.546,3.089-1.546c1.546,0,0.773,0.775,2.319,0.775H300.214z M472.47,321.113
		c0-3.089,10.816-6.178,13.132-6.951l1.546,0.773c0.773,1.543,0.773,0.773,0.773,2.316c0,0-0.773,0.773-1.546,0.773
		C484.056,318.024,472.47,322.658,472.47,321.113L472.47,321.113z M450.842,290.217c0-1.546-0.773-1.546-0.773-2.319v-1.546
		c-0.773-0.773-3.089-3.862-3.089-4.635v-1.543c-0.773,0-2.319,0-2.319-1.546c0-0.773,1.546-3.089,2.319-3.089
		c3.089,0,6.951,7.724,6.951,10.813l1.546,1.546c-0.773,3.089,0.773,3.089,0.773,5.408c0,10.813,4.635,21.629,2.316,34.76
		c-0.773,3.089-0.773,6.178-1.543,9.267c0,1.548-0.773,2.319-0.773,3.864c-0.773,1.543-0.773,1.543-0.773,3.862
		c-0.773,3.089-3.862,13.132-3.862,15.45c0,3.862,2.316,6.949-3.862,6.949v3.092h1.543v0.773c0,6.951-7.721,16.994-10.813,20.083
		c-3.862,3.864-11.586,14.678-16.221,14.678c0-3.862,6.178-10.813,9.267-13.905c2.319-3.089,6.181-9.27,8.497-13.132
		c3.862-7.724,11.588-23.172,11.588-33.988c0-10.816,0.773-3.092,3.089-10.04c0.773-3.864,0.773-8.499,1.546-11.588l-1.546-2.319
		h-0.773l-1.543,8.499c0.773,2.316,0.773,4.632-0.773,5.408c-1.546-1.546,0-7.726,0-10.816c0-2.319,0.773-2.319,0.773-5.408
		c0-3.862,1.543-3.089,1.543-4.635c1.546-8.497-0.77-15.45-3.862-20.083c0.773-0.773,0.773-0.773,0.773-2.319V290.217z
		 M329.567,298.711c6.181-3.86,6.951-32.442,21.629-36.304l0.773,0.773v1.543c-1.546,3.092-3.092,3.864-5.408,6.181
		c-1.546,3.089-1.546,5.405-3.089,7.724c0,6.181-6.181,13.905-6.181,18.537c0.773,2.321-1.543,6.953-2.316,10.045
		c0,0.771-1.546,9.267-1.546,10.04s0,0.773,0.773,1.546l3.862-3.089c0.77,1.543-0.773,2.316-1.546,3.862
		c-0.77,1.543,0,3.089-0.77,4.635c-0.773,1.543-3.092,7.724-3.092,9.27s0.773,0.771,0.773,4.632
		c-0.773,1.546-0.773,3.862-0.773,5.408c0,3.862,0.773,5.408,1.546,9.27c0,2.319,1.546,1.546,1.546,4.635
		c0,3.092,0,3.092,0.77,5.408c0.773,2.316,2.316,5.408,3.092,7.724c2.316,4.635,6.951,10.043,10.813,13.132
		c2.316,3.089,3.089,3.862,6.181,5.408c0,0.773,7.724,5.408,4.632,5.408c-3.862,0-5.405-2.319-6.178-5.408
		c-2.319,0-2.319,1.546-3.862,1.546l-7.724-6.954c-2.319-3.862-4.638-5.408-5.408-9.27c-1.546-2.316-3.089-7.724-4.635-10.04
		c-1.546-1.546-1.546-2.319-2.316-4.635c-0.773-3.862-0.773-3.862-1.546-5.408c-0.773-3.092-1.546-9.27-1.546-13.132
		c0-3.092-1.543-10.043-1.543-13.132c-0.773-3.862-0.773-10.043,0-13.132c0.77-8.499-0.773-4.635,3.089-10.816V298.711z
		 M328.021,412.262c0,2.319,2.319,3.864,4.635,4.635c1.546,0,3.862,2.319,5.408,3.092c3.862,3.089,7.724,4.635,11.586,6.951h2.319
		c4.635,3.089,8.497,3.864,16.221,3.864l1.546,0.771h3.862l6.178,3.092h13.905l10.813-0.775c0.773-1.543,7.726-3.862,10.043-3.862
		c0.773,0,0,0,1.546,0.775c1.546-0.775,6.951-3.864,8.497-3.864c0.773,0,0.773,0.773,2.319,1.543h3.862
		c2.316,0,4.632-2.316,5.408-3.86c3.86-2.319,3.087-1.546,6.951-3.089c1.543-0.773,3.862-3.092,5.405-3.864
		c3.092-2.316,3.864-0.773,3.864-5.408c4.635,0,3.089-0.771,3.862-3.089c1.543-2.316,3.862,0,3.862-3.86l-5.408,0.771l-1.543-3.092
		c2.316-0.771,3.862-1.543,6.951-1.543c3.862-0.773,1.546-0.773,3.089-3.862c2.319-4.635,8.497-0.773,8.497-6.181
		c0-3.089-8.497,0-10.04,0.773c-0.773-0.773-1.546-0.773-1.546-2.316c0-2.319,10.816-3.862,13.905-3.862
		c0.773-1.546,7.724-11.588,7.724-13.134c0-0.77-0.773-1.543-1.546-1.543c-3.089,0-3.862,1.543-6.951,1.543h-0.773
		c-0.773,0-2.319-0.77-2.319-2.316c0-2.316,9.27-2.316,11.588-3.092c3.089-0.771,3.089-6.949,3.089-10.813
		c0.773-1.543,0.773-1.543,0.773-2.316v-3.092c-1.546,0-6.181,1.546-7.724,1.546h-4.635c-0.773,0-1.546,0-1.546-1.546
		c0-2.316,15.451-2.316,15.451-6.178c0-3.862-0.773-1.546,0.773-5.408c0-1.546,0.77-4.632-0.773-4.632
		c-2.319,0-7.727,2.314-10.816,2.314h-2.316c-1.546,0-1.546,0-1.546-1.543c0-1.546,6.181-2.316,7.724-3.089
		c6.181-1.546,3.092,0,7.727-3.089c-0.773-1.546-3.092-6.954,1.543-6.954l0.773-8.497c0.773,0-2.316-4.635-2.316-7.726
		c0-0.771,1.543-0.771,1.543-3.087c-6.951,0-12.359,6.951-23.174,6.951c0-3.089,5.408-3.089,9.27-4.635
		c2.319-0.773,7.727-3.862,10.043-4.635l0.773-6.951c0-1.546-3.089-3.862-3.089-6.954l-3.092-0.773
		c0.773-1.543,1.546-1.543,1.546-3.862v-1.546c0-2.316-3.862-2.316-5.408-5.405c-0.773-2.319-2.316-5.408-3.089-7.724
		c-1.546-3.862-4.635-11.588-6.953-13.132c-3.089,1.543-3.089,6.178-7.724,8.497c-1.543,0.773-7.724,5.408-10.043,5.408
		c-0.771,0-2.316-3.092-4.635-3.864c-2.314,0-3.862,0-6.178-0.771c-4.635-2.319-6.181-3.092-10.043-6.181
		c-3.862-3.089-8.497-14.678-8.497-22.402v-0.773c0-3.089,2.319-9.27,0-9.27c-2.316,0-2.316,1.546-3.862,1.546
		s-2.316-1.546-4.635-1.546h-2.316l-7.724,0.773l-6.954-0.773c-4.635,0-25.491,3.092-30.125,4.635c-1.546,0-5.408,1.546-6.181,2.319
		c-3.089,2.316-1.543,1.546-6.178,2.316c-2.319,0-10.043,3.862-11.586,5.408c-2.319,3.089-1.546,1.543-4.635,3.862
		c-4.635,1.546-2.319,3.089-3.862,4.635c-1.546,1.546-8.499,6.181-10.043,6.951c-3.092,2.319-1.543,3.092-4.635,3.864
		c-3.092,0.77-2.319,2.316-3.862,4.635c-1.546,1.543-3.092,1.543-4.635,3.862c-0.773,3.089-1.546,3.089-3.089,5.405
		c0,3.089-2.319,7.724-4.635,8.497v2.319c0,1.543-3.865,3.862-3.865,10.816c-0.77,0.77-1.543,0.77-1.543,1.543v1.546
		c0,1.546,1.543,1.546,2.316,2.316l10.816-1.546l0.773,0.775c1.543,0,1.543,0,3.089,0v1.543l-0.773,1.543h-3.089
		c-1.546,0-2.319-0.77-3.862-0.77c-2.319,0-2.319,0.77-3.862,1.546c-2.319-0.775-10.043-1.546-10.043,3.087v0.775v10.04
		c3.089,0,4.635-2.316,10.043-2.316h4.635c1.543,0,1.543,0.773,2.316,2.316l-0.773,0.773c-3.862,0-6.178,1.546-9.27,1.546
		c-1.543,0-3.089,0.773-3.862,0.773c-2.316,0-3.089-0.773-3.862-0.773l-3.089,15.45v5.405c0,1.543,0.77,0.773,0.77,2.316v1.548
		c0,3.087-0.77,3.86-0.77,6.949v3.864c0,0.773,0.77,3.089,0.77,6.951c1.546,2.319,3.092,6.181,5.408,6.951
		c0,6.181,6.954,13.905,6.954,19.312c1.546,0,6.178,4.635,6.951,6.181c1.546,1.543,1.546,2.316,3.089,3.86
		c1.546,1.548,1.546,1.548,3.092,3.092c3.862,3.089,9.27,10.813,13.905,12.359l-1.546-2.316L328.021,412.262z"/>
</g>
</svg>
