<?xml version="1.0" encoding="utf-8"?>
<!-- Generator: Adobe Illustrator 17.0.0, SVG Export Plug-In . SVG Version: 6.00 Build 0)  -->
<!DOCTYPE svg PUBLIC "-//W3C//DTD SVG 1.1//EN" "http://www.w3.org/Graphics/SVG/1.1/DTD/svg11.dtd">
<svg version="1.1" id="Layer_1" xmlns="http://www.w3.org/2000/svg" xmlns:xlink="http://www.w3.org/1999/xlink" x="0px" y="0px"
	 width="800px" height="600px" viewBox="0 0 800 600" enable-background="new 0 0 800 600" xml:space="preserve">
<g>
	<polygon fill="#FFFFFF" points="779.395,336.766 779.478,341.312 753.598,365.332 753.598,358.591 	"/>
	<path fill="#231F20" d="M551.693,388.194c0,0,33.069-14.207,33.484-14.389c12.251-5.256,15.935,13.842,13.714,21.887
		c-3.015,10.933-22.525,22.588-33.967,22.515C564.915,418.207,545.702,418.078,551.693,388.194z"/>
	<path fill="#231F20" d="M545.928,407.367c3.033,8.601,10.741,13.72,17.212,11.439c6.471-2.281,9.257-11.107,6.222-19.708
		c-3.033-8.598-10.741-13.722-17.212-11.439C545.679,389.943,542.893,398.769,545.928,407.367z"/>
	<path fill="#FFFFFF" d="M550.074,405.401c2.273,6.442,7.747,10.386,12.231,8.806c4.478-1.583,6.266-8.09,3.99-14.534
		c-2.273-6.439-7.747-10.385-12.228-8.806C549.586,392.449,547.799,398.956,550.074,405.401z"/>
	<path fill="#231F20" d="M554.999,404.534c0.802,2.268,2.729,3.656,4.302,3.098c1.578-0.555,2.205-2.844,1.406-5.111
		s-2.727-3.653-4.302-3.098C554.827,399.978,554.199,402.269,554.999,404.534z"/>
	<path fill="#231F20" d="M483.235,397.125c0,0,33.085-14.215,33.485-14.389c12.324-5.287,16.799,15.795,14.062,23.558
		c-3.365,9.561-24.274,20.912-34.32,20.844C496.436,427.137,477.245,426.995,483.235,397.125z"/>
	<path fill="#231F20" d="M477.467,416.298c3.033,8.598,10.744,13.719,17.214,11.439c6.468-2.283,9.257-11.107,6.219-19.707
		c-3.033-8.598-10.741-13.722-17.212-11.439C477.218,398.873,474.432,407.697,477.467,416.298z"/>
	<path fill="#FFFFFF" d="M481.614,414.328c2.275,6.442,7.75,10.386,12.23,8.806c4.478-1.58,6.266-8.087,3.993-14.532
		c-2.273-6.44-7.752-10.388-12.23-8.806C481.128,401.379,479.338,407.886,481.614,414.328z"/>
	<path fill="#231F20" d="M486.54,413.465c0.799,2.268,2.724,3.653,4.302,3.098c1.575-0.555,2.205-2.844,1.406-5.111
		c-0.802-2.268-2.729-3.653-4.302-3.098C486.369,408.909,485.741,411.199,486.54,413.465z"/>
	<path fill="#231F20" d="M122.252,303.951l33.486-14.386c0,0,25.052,2.73,10.169,30.509l-30.426,13.891
		C135.481,333.964,116.257,333.845,122.252,303.951z"/>
	<path fill="#231F20" d="M116.484,323.127c3.036,8.601,10.744,13.72,17.214,11.439c6.468-2.283,9.257-11.104,6.22-19.708
		c-3.033-8.598-10.741-13.722-17.212-11.439C116.237,305.7,113.45,314.526,116.484,323.127z"/>
	
		<ellipse transform="matrix(-0.943 0.3329 -0.3329 -0.943 356.0909 575.5866)" fill="#FFFFFF" cx="128.743" cy="318.295" rx="8.601" ry="12.374"/>
	
		<ellipse transform="matrix(-0.9431 0.3326 -0.3326 -0.9431 355.7178 577.6776)" fill="#231F20" cx="128.411" cy="319.287" rx="3.026" ry="4.352"/>
	<path fill="#231F20" d="M146.309,338.645l33.486-14.389c0,0,25.052,2.73,10.17,30.511l-30.425,13.891
		C159.54,368.658,140.316,368.536,146.309,338.645z"/>
	<path fill="#231F20" d="M140.543,357.818c3.034,8.598,10.744,13.72,17.213,11.439c6.469-2.283,9.257-11.107,6.22-19.708
		c-3.032-8.598-10.741-13.722-17.212-11.439C140.295,340.393,137.507,349.217,140.543,357.818z"/>
	<path fill="#FFFFFF" d="M144.69,355.849c2.273,6.442,7.748,10.386,12.229,8.806c4.478-1.58,6.267-8.087,3.992-14.532
		c-2.273-6.44-7.748-10.388-12.228-8.806C144.204,342.9,142.415,349.407,144.69,355.849z"/>
	
		<ellipse transform="matrix(-0.943 0.3327 -0.3327 -0.943 414.0198 637.0657)" fill="#231F20" cx="152.469" cy="353.978" rx="3.026" ry="4.352"/>
	<path fill="#231F20" d="M610.23,386.21c0,0,33.054-14.2,33.484-14.387c12.568-5.371,17.386,17.025,14.236,24.767
		c-3.619,8.899-24.966,19.697-34.488,19.632C623.431,416.222,604.242,416.08,610.23,386.21z"/>
	<path fill="#231F20" d="M604.465,405.385c3.036,8.598,10.744,13.72,17.212,11.436c6.471-2.283,9.257-11.104,6.222-19.707
		c-3.03-8.598-10.741-13.72-17.212-11.437C604.216,387.961,601.429,396.782,604.465,405.385z"/>
	<path fill="#FFFFFF" d="M608.611,403.413c2.273,6.445,7.749,10.388,12.23,8.806c4.478-1.58,6.268-8.085,3.99-14.529
		c-2.273-6.442-7.747-10.388-12.225-8.806C608.126,390.464,606.338,396.971,608.611,403.413z"/>
	
		<ellipse transform="matrix(-0.943 0.3328 -0.3328 -0.943 1331.2727 575.0933)" fill="#231F20" cx="616.39" cy="401.545" rx="3.025" ry="4.353"/>
	<path fill="#231F20" d="M238.333,340.072l-109.138-84.663c0,0-27.117,0.659-21.827,14.55l56.222,93.267L238.333,340.072z"/>
	<path fill="#231F20" d="M424.859,292.448c0,0-321.462,37.703-347.918,143.534c0,0-29.102,33.072,44.978,29.105
		c0,0,232.83-13.229,402.822-170.652l-0.664-14.555L424.859,292.448z"/>
	<g>
		<polygon fill="#FFFFFF" points="222.459,430.692 221.798,437.967 753.598,365.332 753.889,357.437 		"/>
		<path fill="#231F20" d="M220.325,439.508l0.907-9.989l1.045-0.143l532.998-73.471l-0.389,10.591l-1.108,0.151L220.325,439.508z
			 M223.686,431.864l-0.414,4.561l529.04-72.259l0.192-5.199L223.686,431.864z"/>
	</g>
	<polygon fill="#231F20" points="428.829,291.786 411.631,271.943 428.829,267.974 455.287,281.865 	"/>
	<path fill="#231F20" d="M424.859,292.448c0,0,21.166-10.583,30.428-28.441l62.177-116.415l24.474-5.29
		c0,0-37.703,130.967-34.395,138.242C507.543,280.544,435.445,300.387,424.859,292.448z"/>
	<path fill="#231F20" d="M222.459,430.692l531.347-72.222l25.59-21.703l-423.986,44.978
		C355.409,381.744,246.934,399.605,222.459,430.692z"/>
	<path fill="#231F20" d="M485.051,314.277l146.181-8.601l26.456-2.644l-149.484-0.662
		C508.204,302.371,482.405,307.003,485.051,314.277z"/>
	<path fill="#FFFFFF" d="M85.705,416.469c0,0,19.842,3.804,32.907,1.323l-0.166,12.072c0,0-34.063,1.487-37.371-4.797
		C81.075,425.067,83.72,417.13,85.705,416.469z"/>
	<rect x="448.508" y="310.308" fill="#FFFFFF" width="3.969" height="3.97"/>
	<rect x="442.39" y="312.622" fill="#FFFFFF" width="3.97" height="3.97"/>
	<rect x="437.429" y="314.278" fill="#FFFFFF" width="3.967" height="3.969"/>
	<polygon fill="#FFFFFF" points="262.558,363.801 262.477,365.871 264.625,365.949 264.625,367.521 260.822,367.521 
		261.152,363.884 	"/>
	<polygon fill="#FFFFFF" points="270.957,365.622 267.391,365.721 267.462,362.312 268.801,362.005 268.813,363.941 
		270.822,364.143 	"/>
	<polygon fill="#FFFFFF" points="277.379,363.728 274.05,363.92 273.867,360.739 275.134,360.21 275.239,362.011 277.111,362.338 	
		"/>
	<polygon fill="#FFFFFF" points="283.839,361.824 280.749,362.12 280.305,359.165 281.508,358.415 281.706,360.08 283.436,360.532 	
		"/>
	<polygon fill="#FFFFFF" points="290.3,359.925 287.448,360.319 286.742,357.59 287.881,356.619 288.169,358.15 289.762,358.726 	
		"/>
	<polygon fill="#FFFFFF" points="296.757,358.031 294.141,358.518 293.184,356.017 294.249,354.824 294.633,356.22 296.086,356.92 	
		"/>
	<polygon fill="#FFFFFF" points="303.217,356.126 300.84,356.718 299.621,354.445 300.622,353.029 301.1,354.289 302.411,355.115 	
		"/>
	<polygon fill="#FFFFFF" points="309.769,354.248 307.63,354.933 306.151,352.889 307.088,351.249 307.655,352.375 308.83,353.33 	
		"/>
	<polygon fill="#FFFFFF" points="316.218,352.351 314.317,353.138 312.582,351.316 313.45,349.456 314.11,350.45 315.142,351.524 	
		"/>
	<polygon fill="#FFFFFF" points="322.668,350.455 321.003,351.337 319.01,349.747 319.809,347.663 320.565,348.522 321.459,349.718 
			"/>
	<polygon fill="#FFFFFF" points="329.116,348.556 327.691,349.539 325.436,348.177 326.172,345.873 327.018,346.594 
		327.774,347.918 	"/>
	<polygon fill="#FFFFFF" points="335.566,346.662 334.378,347.741 331.864,346.605 332.533,344.078 333.472,344.664 
		334.089,346.112 	"/>
	<polygon fill="#FFFFFF" points="342.015,344.765 341.064,345.943 338.294,345.032 338.894,342.282 339.927,342.739 
		340.402,344.311 	"/>
	<polygon fill="#FFFFFF" points="348.463,342.869 347.751,344.145 344.722,343.463 345.255,340.492 346.381,340.811 
		346.719,342.505 	"/>
	<polygon fill="#FFFFFF" points="354.913,340.969 354.438,342.344 351.15,341.89 351.617,338.699 352.835,338.884 353.034,340.705 	
		"/>
	<polygon fill="#FFFFFF" points="361.362,339.076 361.123,340.549 357.579,340.321 357.976,336.906 359.289,336.958 
		359.347,338.899 	"/>
	<polygon fill="#FFFFFF" points="365.744,335.028 365.662,337.098 367.812,337.176 367.812,338.749 364.007,338.749 
		364.339,335.111 	"/>
	<polygon fill="#FFFFFF" points="235.004,402.347 234.922,404.415 237.072,404.498 237.072,406.068 233.267,406.068 233.599,402.43 
			"/>
	<polygon fill="#FFFFFF" points="243.402,404.166 239.836,404.267 239.909,400.855 241.248,400.549 241.26,402.484 243.269,402.69 	
		"/>
	<polygon fill="#FFFFFF" points="249.825,402.272 246.495,402.464 246.313,399.283 247.581,398.756 247.685,400.554 
		249.557,400.884 	"/>
	<polygon fill="#FFFFFF" points="256.285,400.37 253.194,400.663 252.751,397.711 253.954,396.958 254.151,398.624 255.882,399.078 
			"/>
	<polygon fill="#FFFFFF" points="262.746,398.468 259.893,398.865 259.189,396.136 260.328,395.163 260.614,396.694 
		262.207,397.272 	"/>
	<polygon fill="#FFFFFF" points="269.203,396.574 266.587,397.062 265.629,394.561 266.696,393.368 267.078,394.763 
		268.533,395.466 	"/>
	<polygon fill="#FFFFFF" points="275.664,394.675 273.286,395.262 272.067,392.989 273.069,391.572 273.545,392.833 
		274.858,393.658 	"/>
	<polygon fill="#FFFFFF" points="282.216,392.792 280.075,393.479 278.598,391.432 279.533,389.797 280.101,390.924 
		281.275,391.873 	"/>
	<polygon fill="#FFFFFF" points="288.664,390.898 286.764,391.681 285.027,389.86 285.895,388.002 286.557,388.993 287.589,390.067 
			"/>
	<polygon fill="#FFFFFF" points="295.113,388.999 293.449,389.883 291.455,388.293 292.255,386.21 293.011,387.068 293.904,388.267 
			"/>
	<polygon fill="#FFFFFF" points="301.563,387.102 300.136,388.085 297.883,386.72 298.617,384.417 299.464,385.138 300.22,386.461 	
		"/>
	<polygon fill="#FFFFFF" points="308.011,385.205 306.823,386.285 304.311,385.148 304.978,382.624 305.919,383.213 
		306.535,384.661 	"/>
	<polygon fill="#FFFFFF" points="314.461,383.311 313.509,384.489 310.74,383.581 311.339,380.831 312.374,381.285 312.849,382.855 
			"/>
	<polygon fill="#FFFFFF" points="320.91,381.412 320.197,382.689 317.167,382.009 317.701,379.036 318.827,379.358 319.164,381.054 
			"/>
	<polygon fill="#FFFFFF" points="327.359,379.516 326.884,380.893 323.595,380.437 324.062,377.245 325.282,377.427 
		325.479,379.248 	"/>
	<polygon fill="#FFFFFF" points="386.579,328.415 386.497,330.483 388.647,330.565 388.647,332.135 384.843,332.135 385.174,328.5 	
		"/>
	<polygon fill="#FFFFFF" points="392.864,327.092 392.782,329.159 394.931,329.242 394.931,330.812 391.127,330.812 
		391.458,327.175 	"/>
	<polygon fill="#FFFFFF" points="399.145,325.107 399.065,327.175 401.213,327.255 401.213,328.827 397.41,328.827 397.74,325.19 	
		"/>
	<polygon fill="#FFFFFF" points="404.77,323.124 404.688,325.19 406.837,325.273 406.837,326.845 403.033,326.845 403.364,323.208 	
		"/>
	<polygon fill="#FFFFFF" points="410.06,320.478 409.979,322.546 412.127,322.626 412.127,324.199 408.323,324.199 408.655,320.561 
			"/>
	<polygon fill="#FFFFFF" points="414.689,319.487 414.608,321.552 416.757,321.633 416.757,323.208 412.953,323.208 
		413.284,319.568 	"/>
	<polygon fill="#FFFFFF" points="421.969,319.155 421.886,321.22 424.034,321.303 424.034,322.876 420.231,322.876 420.563,319.238 
			"/>
	<polygon fill="#FFFFFF" points="417.67,348.922 417.59,350.987 419.738,351.067 419.738,352.642 415.934,352.642 416.266,349.002 	
		"/>
	<polygon fill="#FFFFFF" points="426.598,346.272 426.514,348.34 428.665,348.421 428.665,349.993 424.859,349.993 425.191,346.356 
			"/>
	<polygon fill="#FFFFFF" points="434.534,344.952 434.454,347.02 436.602,347.1 436.602,348.675 432.798,348.675 433.131,345.032 	
		"/>
	<polygon fill="#FFFFFF" points="441.482,341.317 441.402,343.382 443.55,343.463 443.55,345.038 439.746,345.038 440.078,341.395 	
		"/>
	<polygon fill="#FFFFFF" points="180.044,385.135 179.962,387.203 182.112,387.286 182.112,388.856 178.307,388.856 
		178.639,385.218 	"/>
	<polygon fill="#FFFFFF" points="186.841,383.374 186.76,385.439 188.909,385.522 188.909,387.094 185.104,387.094 185.436,383.457 
			"/>
	<polygon fill="#FFFFFF" points="193.639,381.609 193.557,383.675 195.707,383.758 195.707,385.33 191.903,385.33 192.234,381.693 	
		"/>
	<polygon fill="#FFFFFF" points="200.436,379.845 200.356,381.91 202.504,381.993 202.504,383.566 198.701,383.566 199.032,379.928 
			"/>
	<polygon fill="#FFFFFF" points="207.235,378.081 207.154,380.146 209.303,380.229 209.303,381.801 205.498,381.801 205.83,378.164 
			"/>
	<polygon fill="#FFFFFF" points="214.034,376.317 213.954,378.384 216.102,378.465 216.102,380.037 212.299,380.037 212.631,376.4 	
		"/>
	<polygon fill="#FFFFFF" points="220.833,374.552 220.751,376.62 222.901,376.701 222.901,378.273 219.096,378.273 219.428,374.635 
			"/>
	<polygon fill="#FFFFFF" points="227.631,372.788 227.549,374.853 229.698,374.936 229.698,376.509 225.895,376.509 
		226.226,372.871 	"/>
	<polygon fill="#FFFFFF" points="234.428,371.024 234.348,373.092 236.496,373.172 236.496,374.744 232.692,374.744 
		233.023,371.107 	"/>
	<polygon fill="#FFFFFF" points="241.227,369.26 241.145,371.33 243.295,371.408 243.295,372.98 239.49,372.98 239.822,369.343 	"/>
	<polygon fill="#FFFFFF" points="346.56,372.072 346.48,374.137 348.628,374.22 348.628,375.793 344.825,375.793 345.157,372.155 	
		"/>
	<polygon fill="#FFFFFF" points="353.359,370.308 353.277,372.373 355.427,372.456 355.427,374.028 351.622,374.028 
		351.954,370.391 	"/>
	<polygon fill="#FFFFFF" points="360.157,368.543 360.075,370.611 362.225,370.692 362.225,372.264 358.421,372.264 
		358.752,368.627 	"/>
	<polygon fill="#FFFFFF" points="366.954,366.779 366.874,368.844 369.022,368.928 369.022,370.5 365.219,370.5 365.549,366.862 	
		"/>
	<polygon fill="#FFFFFF" points="373.753,365.015 373.671,367.083 375.821,367.163 375.821,368.736 372.016,368.736 
		372.348,365.098 	"/>
	<polygon fill="#FFFFFF" points="380.552,363.251 380.472,365.319 382.62,365.399 382.62,366.971 378.816,366.971 379.147,363.334 	
		"/>
	<polygon fill="#FFFFFF" points="387.351,361.487 387.269,363.557 389.418,363.638 389.418,365.207 385.614,365.207 
		385.946,361.569 	"/>
	<polygon fill="#FFFFFF" points="394.148,359.722 394.067,361.79 396.216,361.871 396.216,363.443 392.411,363.443 392.743,359.805 
			"/>
	<polygon fill="#FFFFFF" points="157.296,420.828 157.214,422.893 159.363,422.976 159.363,424.548 155.558,424.548 155.89,420.911 
			"/>
	<polygon fill="#FFFFFF" points="164.093,419.063 164.011,421.131 166.161,421.212 166.161,422.784 162.357,422.784 
		162.688,419.146 	"/>
	<polygon fill="#FFFFFF" points="170.89,417.299 170.81,419.367 172.958,419.447 172.958,421.02 169.155,421.02 169.486,417.382 	
		"/>
	<polygon fill="#FFFFFF" points="177.689,415.535 177.608,417.6 179.756,417.683 179.756,419.255 175.952,419.255 176.284,415.618 	
		"/>
	<polygon fill="#FFFFFF" points="184.487,413.771 184.405,415.838 186.555,415.919 186.555,417.491 182.75,417.491 183.082,413.854 
			"/>
	<polygon fill="#FFFFFF" points="191.287,412.006 191.205,414.077 193.355,414.155 193.355,415.727 189.55,415.727 189.882,412.089 
			"/>
	<polygon fill="#FFFFFF" points="198.085,410.242 198.003,412.313 200.152,412.393 200.152,413.963 196.348,413.963 196.68,410.328 
			"/>
	<polygon fill="#FFFFFF" points="204.882,408.478 204.8,410.546 206.95,410.626 206.95,412.198 203.147,412.198 203.477,408.561 	
		"/>
	<polygon fill="#FFFFFF" points="211.681,406.714 211.599,408.784 213.748,408.864 213.748,410.434 209.944,410.434 
		210.275,406.797 	"/>
	<polygon fill="#FFFFFF" points="218.478,404.952 218.397,407.02 220.546,407.1 220.546,408.672 216.741,408.672 217.074,405.035 	
		"/>
	<path fill="#FFFFFF" d="M251.563,357.437c0,0,8.929,7.194,8.681,22.569l-7.69,1.24c0,0-5.953-17.609-11.906-21.083
		C240.648,360.164,244.37,355.947,251.563,357.437z M242.2,360.101c5.095,2.973,10.611,19.905,10.611,19.905l6.582-1.058
		c0.211-13.167-7.892-20.704-7.892-20.704C245.342,356.97,242.2,360.101,242.2,360.101z"/>
	<path fill="#FFFFFF" d="M375.916,323.371c0,0,8.929,7.194,8.681,22.572l-7.689,1.24c0,0-5.953-17.611-11.906-21.085
		C365.002,326.098,368.722,321.884,375.916,323.371z M366.552,326.035c5.096,2.973,10.612,19.908,10.612,19.908l6.582-1.061
		c0.211-13.167-7.892-20.704-7.892-20.704C369.695,322.904,366.552,326.035,366.552,326.035z"/>
	<path fill="#FFFFFF" d="M428.502,308.157c0,0,8.927,7.194,8.681,22.572l-7.69,1.24c0,0-5.954-17.611-11.906-21.085
		C417.587,310.884,421.307,306.67,428.502,308.157z M419.136,310.824c5.096,2.971,10.611,19.905,10.611,19.905l6.585-1.061
		c0.21-13.167-7.892-20.704-7.892-20.704C422.28,307.693,419.136,310.824,419.136,310.824z"/>
	<path fill="#FFFFFF" d="M412.954,363.884l-9.258,2.317l-0.332-20.67l9.261-1.821L412.954,363.884z M412.329,344.872l-8.304,1.634
		l0.296,18.532l8.302-2.078L412.329,344.872z"/>
	<path fill="#FFFFFF" d="M230.396,418.783l-9.26,2.317l-0.331-20.67l9.261-1.821L230.396,418.783z M229.77,399.771l-8.303,1.634
		l0.297,18.53l8.301-2.076L229.77,399.771z"/>
	<path fill="#FFFFFF" d="M339.205,379.759l-9.258,2.317l-0.332-20.673l9.261-1.819L339.205,379.759z M338.58,360.75l-8.305,1.629
		l0.297,18.535l8.302-2.078L338.58,360.75z"/>
	<path fill="#FFFFFF" d="M153.007,439.29l-9.259,2.314l-0.332-20.667l9.261-1.821L153.007,439.29z M152.381,420.278l-8.305,1.632
		l0.297,18.532l8.301-2.075L152.381,420.278z"/>
	<polygon fill="#FFFFFF" points="530.039,180.008 511.85,185.301 510.526,195.554 524.747,197.536 	"/>
	<polygon fill="#FFFFFF" points="516.647,228.543 500.442,230.195 497.795,241.772 512.511,246.237 	"/>
	<polygon fill="#FFFFFF" points="523.091,204.152 506.889,207.626 503.913,218.043 517.801,221.68 	"/>
	<g>
		<polygon fill="#FFFFFF" points="755.552,364.159 778.134,345.121 777.914,339.363 753.806,358.469 		"/>
		<path fill="#231F20" d="M754.872,366.471l-2.602-8.479l26.871-21.296l0.345,9.021L754.872,366.471z M755.342,358.947l0.89,2.901
			l20.551-17.323l-0.096-2.493L755.342,358.947z"/>
	</g>
</g>
</svg>
