<?xml version="1.0" encoding="utf-8"?>
<!-- Generator: Adobe Illustrator 17.0.0, SVG Export Plug-In . SVG Version: 6.00 Build 0)  -->
<!DOCTYPE svg PUBLIC "-//W3C//DTD SVG 1.1//EN" "http://www.w3.org/Graphics/SVG/1.1/DTD/svg11.dtd">
<svg version="1.1" id="Layer_1" xmlns="http://www.w3.org/2000/svg" xmlns:xlink="http://www.w3.org/1999/xlink" x="0px" y="0px"
	 width="800px" height="600px" viewBox="0 0 800 600" enable-background="new 0 0 800 600" xml:space="preserve">
<g>
	<g>
		<polygon fill="#FFFFFF" points="431.065,260.514 541.058,515.718 429.123,489.295 		"/>
		<polygon fill="#231F20" points="502.433,432.739 435.386,423.652 435.307,424.667 503.107,433.814 		"/>
		<polygon fill="#231F20" points="488.84,444.693 435.498,435.698 435.398,436.712 489.343,445.764 		"/>
		<polygon fill="#231F20" points="488.267,445.325 491.856,504.387 492.863,504.262 489.192,444.546 		"/>
		<polygon fill="#231F20" points="501.672,433.583 507.935,507.751 508.942,507.615 502.566,432.621 		"/>
		<polygon fill="#231F20" points="519.489,468.599 521.627,512.274 522.638,512.138 520.427,467.978 		"/>
		<polygon fill="#231F20" points="479.349,452.637 434.317,447.596 434.289,448.614 479.826,453.666 		"/>
		<polygon fill="#231F20" points="478.762,453.791 480.794,503.055 481.805,502.934 479.708,453.125 		"/>
		<polygon fill="#231F20" points="464.598,464.826 466.592,500.395 467.595,500.232 465.534,464.273 		"/>
		<polygon fill="#231F20" points="452.902,475.032 452.666,495.248 453.665,495.07 453.865,474.639 		"/>
		<polygon fill="#231F20" points="448.149,302.18 432.964,298.887 432.995,299.905 448.348,303.19 		"/>
		<polygon fill="#231F20" points="454.902,315.376 433.521,312.265 433.549,313.283 455.171,316.386 		"/>
		<polygon fill="#231F20" points="461.301,331.939 433.129,327.292 433.097,328.307 461.587,332.965 		"/>
		<polygon fill="#231F20" points="467.213,345.158 433.188,340.322 433.157,341.336 467.564,346.188 		"/>
		<polygon fill="#231F20" points="473.116,357.87 433.911,352.863 433.876,353.881 473.525,358.899 		"/>
		<polygon fill="#231F20" points="479.152,374.01 435.405,366.808 435.326,367.823 479.568,375.066 		"/>
		<polygon fill="#231F20" points="485.674,387.857 435.587,381.42 435.534,382.434 486.183,388.901 		"/>
		<polygon fill="#231F20" points="491.625,402.767 434.879,395.974 434.826,396.988 492.208,403.815 		"/>
		<polygon fill="#231F20" points="498.346,418.623 435.632,409.881 435.553,410.896 498.97,419.69 		"/>
		<polygon fill="#231F20" points="465.161,464.561 435.012,459.952 434.985,460.97 465.468,465.587 		"/>
		<polygon fill="#231F20" points="453.54,474.536 433.392,472.875 433.498,473.886 453.865,475.524 		"/>
	</g>
	<polygon fill="#FFFFFF" points="426.41,34.438 235.25,463.535 429.801,502.851 	"/>
	<g>
		<polygon fill="#231F20" points="426.862,73.419 409.801,71.269 409.746,71.837 426.974,73.87 		"/>
		<polygon fill="#231F20" points="425.789,86.691 403.008,84.601 403.023,85.054 425.619,87.031 		"/>
		<polygon fill="#231F20" points="425.619,100.195 399.844,97.031 399.636,97.595 425.846,100.871 		"/>
		<polygon fill="#231F20" points="426.862,114.654 394.663,108.893 394.379,109.289 426.862,115.22 		"/>
		<polygon fill="#231F20" points="428.079,129.812 387.892,121.971 387.524,122.348 428.06,130.377 		"/>
		<polygon fill="#231F20" points="428.124,143.422 383.185,135.194 382.779,135.566 428.109,143.987 		"/>
		<polygon fill="#231F20" points="429.625,158.231 378.154,147.647 377.678,148 429.591,158.794 		"/>
		<polygon fill="#231F20" points="427.273,173.115 371.534,159.455 371.005,159.78 427.22,173.678 		"/>
		<polygon fill="#231F20" points="428.001,187.025 367.002,172.511 366.429,172.829 427.95,187.589 		"/>
		<polygon fill="#231F20" points="426.902,201.769 360.63,183.396 359.995,183.677 426.83,202.331 		"/>
		<polygon fill="#231F20" points="426.635,216.012 355.272,195.593 354.59,195.858 426.557,216.574 		"/>
		<polygon fill="#231F20" points="428.959,232.146 349.092,207.732 348.329,207.959 428.874,232.708 		"/>
		<polygon fill="#231F20" points="429.002,249.101 344.674,221.55 343.865,221.751 428.908,249.661 		"/>
		<polygon fill="#231F20" points="427.848,264.015 338.624,232.929 337.765,233.098 427.744,264.575 		"/>
		<polygon fill="#231F20" points="427.451,279.258 333.826,244.355 332.92,244.491 427.337,279.814 		"/>
		<polygon fill="#231F20" points="429.032,293.832 328.628,256.745 327.667,256.862 428.921,294.388 		"/>
		<polygon fill="#231F20" points="430.747,308.439 322.779,268.59 321.754,268.685 430.637,308.999 		"/>
		<polygon fill="#231F20" points="428.892,323.781 318.195,279.338 317.135,279.391 428.768,324.337 		"/>
		<polygon fill="#231F20" points="427.757,334.831 313.404,291.557 312.322,291.618 427.647,335.391 		"/>
		<polygon fill="#231F20" points="429.197,353.094 307.871,303.621 306.72,303.629 429.076,353.65 		"/>
		<polygon fill="#231F20" points="427.379,367.285 302.44,314.793 301.254,314.774 427.256,367.845 		"/>
		<polygon fill="#231F20" points="428.071,382.695 298.309,327.088 297.079,327.043 427.946,383.255 		"/>
		<polygon fill="#231F20" points="373.829,493.11 248.497,435.819 247.295,435.755 373.688,493.666 		"/>
		<polygon fill="#231F20" points="332.072,482.518 245.107,444.633 243.906,444.569 330.829,482.968 		"/>
		<polygon fill="#231F20" points="310.831,478.563 241.124,451.331 240.927,452.266 309.138,478.45 		"/>
		<polygon fill="#231F20" points="429.085,412.663 289.288,349.329 287.967,349.215 428.957,413.219 		"/>
		<polygon fill="#231F20" points="397.218,495.835 253.822,425.246 252.458,425.068 397.072,496.391 		"/>
		<polygon fill="#231F20" points="429.401,425.545 283.686,359.743 282.318,359.607 429.273,426.109 		"/>
		<polygon fill="#231F20" points="429.611,442.472 279.505,369.703 278.088,369.51 429.472,443.028 		"/>
		<polygon fill="#231F20" points="428.478,456.932 272.713,381.609 271.25,381.393 428.344,457.492 		"/>
		<polygon fill="#231F20" points="428.351,473.428 268.796,393.597 267.295,393.344 428.211,473.988 		"/>
		<polygon fill="#231F20" points="428.383,486.029 264.51,402.063 262.971,401.772 428.24,486.586 		"/>
		<polygon fill="#231F20" points="427.7,500.035 259.231,413.859 257.655,413.548 427.56,500.595 		"/>
	</g>
	<polygon fill="#231F20" points="425.055,65.622 328.287,500.478 329.135,500.815 425.903,66.638 	"/>
	<path fill="#FFFFFF" d="M539.164,529.288c0,0-24.855,14.914-164.498,7.682c0,0-100.326-5.423-145.065-35.247
		c0,0,12.654-9.037,28.471-8.587l96.257,9.037C354.329,502.173,533.287,527.933,539.164,529.288z"/>
	<path fill="#FFFFFF" d="M290.497,499.801l-23.726,9.151c0,0,55.586,11.523,62.024,11.523l16.27-14.573
		C345.065,505.901,299.647,498.783,290.497,499.801z"/>
	<path fill="#231F20" d="M354.216,502.851c0,0-22.031,6.441-29.487,19.66c0,0,75.583,6.778,96.598-6.781
		C421.328,515.729,375.909,505.56,354.216,502.851z"/>
	<path fill="#231F20" d="M539.841,527.706c0,0-86.089-11.75-119.985-14.01l2.939,2.486l116.37,13.105L539.841,527.706z"/>
	<path fill="#231F20" d="M290.157,540.134c0,0,61.46,54.683,209.237,20.337C499.394,560.471,389.127,556.857,290.157,540.134z"/>
	<path fill="#231F20" d="M545.037,530.193c0,0,1.357,28.019-38.413,31.183c0,0-153.199,4.068-223.699-22.146
		c0,0-48.805-19.432-53.777-26.66c0,0-1.807-8.136,0.452-10.846c0,0,28.47,23.046,118.402,31.633c0,0,67.334,10.395,190.709-2.259
		l1.807-4.068l3.616-0.904L545.037,530.193z"/>
	<path fill="#231F20" d="M539.277,527.933c0,0,1.695,0.678,1.016,3.841c0,0-101.961,9.449-130.377,8.481
		c-27.458-0.937-69.43,1.614-120.888-15.713c0,0-53.552-14.914-59.428-20.787c0,0-2.032-2.71,7.231-7.005
		c0,0-4.518,3.614-4.067,5.646c0,0,28.697,15.368,56.49,19.436c0,0,57.393,15.141,124.728,13.783
		C413.982,535.615,492.617,536.743,539.277,527.933z"/>
	<path fill="#FFFFFF" d="M545.037,530.193c0,0-3.614,18.978-13.555,19.209c0,0,10.168-9.945,11.75-21.018L545.037,530.193z"/>
	<path fill="#231F20" d="M232.99,501.723c0,0,18.979-10.168,30.052-8.136c0,0-8.135-3.614-18.754-0.45
		C244.288,493.137,231.408,498.559,232.99,501.723z"/>
	<path fill="#231F20" d="M244.4,504.883c0,0,108.122,42.032,176.248,17.964l0.679-7.118c0,0-47.452,12.541-96.598,3.731
		c0,0-46.435-7.799-64.06-13.559C260.67,505.901,261.009,506.241,244.4,504.883z"/>
	<path fill="#231F20" d="M261.009,493.7l82.023,14.914c0,0,9.49-6.441,13.557-6.441l-69.821-8.81l-6.78,2.032
		C279.989,495.396,268.805,492.005,261.009,493.7z"/>
	<polygon fill="#231F20" points="427.992,501.269 230.956,461.954 230.052,464.663 428.444,504.433 	"/>
	<polygon fill="#231F20" points="433.867,488.618 544.587,516.183 538.259,516.633 433.415,491.328 	"/>
	<polygon fill="#231F20" points="429.123,69.69 540.973,523.865 545.037,523.865 429.123,60.877 	"/>
	<polygon fill="#231F20" points="428.105,243.901 331.846,500.815 333.88,500.815 429.123,244.919 	"/>
	<polygon fill="#231F20" points="233.944,465.564 229.576,463.679 425.733,28.791 425.733,40.539 	"/>
	
		<rect x="481.866" y="242.215" transform="matrix(-0.9188 0.3947 -0.3947 -0.9188 1080.1165 545.497)" fill="#231F20" width="4.181" height="283.238"/>
	<polygon fill="#231F20" points="432.51,527.029 427.54,526.124 425.28,26.758 429.797,26.758 	"/>
</g>
</svg>
