<?xml version="1.0" encoding="utf-8"?>
<!-- Generator: Adobe Illustrator 17.0.0, SVG Export Plug-In . SVG Version: 6.00 Build 0)  -->
<!DOCTYPE svg PUBLIC "-//W3C//DTD SVG 1.1//EN" "http://www.w3.org/Graphics/SVG/1.1/DTD/svg11.dtd">
<svg version="1.1" id="Layer_1" xmlns="http://www.w3.org/2000/svg" xmlns:xlink="http://www.w3.org/1999/xlink" x="0px" y="0px"
	 width="800px" height="600px" viewBox="0 0 800 600" enable-background="new 0 0 800 600" xml:space="preserve">
<g>
	<g>
		<path fill="#333333" d="M284.881,170.034c-0.532,0-0.532,0-1.061,0.532c-1.064,2.125-2.656,3.72-4.252,5.844
			c0,0.532,0,1.593-0.532,2.657c-4.249,3.72-5.842,7.97-4.249,12.751c-0.532,1.063-1.064,1.595-1.593,2.657
			c-6.377,14.346-8.501,29.222-6.909,44.629c-2.657,11.689-3.718,23.909-4.249,36.13c0,20.72,1.593,40.909,5.845,60.037
			c-0.532,1.063-0.532,1.595-0.532,2.657c0,6.376-1.064,12.751-1.064,19.127c-1.061,15.939,0,30.815,3.72,45.161
			c-2.125,6.906-1.064,13.814,3.718,21.252c2.657,3.72,5.845,7.438,9.033,11.158c0.532,0,0.532,0.532,1.064,1.593
			c0,0,0.529,0,1.061,0c1.064,1.063,2.125,2.125,2.657,2.657c2.125,2.125,3.72,3.188,5.313,4.251
			c5.313,3.718,11.69,6.375,18.064,7.97c8.501,2.657,16.471,3.718,24.972,4.781l0,0c0,0.532,0,1.062,0,1.062
			c0.532,0.532,0.532,0.532,0.532,1.063c0,0.532,0,0.532,0,1.064c0.532,0.53,0.532,0.53,1.061,1.062c1.596,0,3.72,0.531,5.313,1.063
			c0.532,0,0.532,1.062,0.532,1.593c1.595,3.188,3.188,6.908,4.781,9.565c4.784,8.499,11.158,14.875,18.596,19.125
			c1.064,1.063,2.127,1.595,3.188,2.656c6.377,5.845,12.751,7.44,19.127,5.313c0-0.53-0.532-0.53-0.532-1.062
			c2.657,0.532,5.313,1.062,7.97,1.062c3.188-0.53,5.845-2.125,7.97-3.718c5.313,0,11.158-0.532,16.471-1.063
			c1.593,0,3.72,0,5.313,0c10.094-0.532,18.064-4.25,24.441-11.158c1.061-1.062,1.593-1.593,2.656-2.125
			c5.845-2.656,8.501-6.375,9.562-11.158c0.532-0.53,2.125-0.53,3.72-1.062c3.188-1.063,5.845-2.125,9.031-2.125
			c15.939,0.53,26.565,9.031,31.349,25.502c0.529,1.064,1.061,1.593,1.061,2.125c1.064,1.063,1.595,1.595,2.125,1.595
			c0,0.53,0.532,1.062,1.064,1.062c0.532,0,1.064,0,1.593,0c0-0.532,0-0.532,0.532-1.062c0,0,0.532-0.532,1.064-0.532
			c0-0.532,0-1.063,0-1.063c0-0.532,0-1.062-0.532-1.062c0-0.532,0-1.064-0.532-1.064c0-1.593-0.532-2.657-1.061-4.249
			c-0.532-1.595-1.064-3.188-1.595-4.783c0-0.53,0-1.062,0-1.062c0-0.532-0.532-1.595-0.532-2.125
			c-1.061-2.657-2.656-5.313-4.781-6.908c-0.532-0.532-1.061-1.062-1.061-1.062c0-0.532,0-1.064,0-1.064c0-0.531,0-0.531,0-1.063
			c-1.595-2.657-2.657-3.718-5.313-4.25c-1.064-0.531-1.595-0.531-2.657-1.063h-0.532c-3.72-3.718-7.97-4.781-13.814-3.718
			c-3.188,0-5.845-0.532-8.501-0.532s-5.313,0.532-7.97,0.532c-0.532,0.532-1.061,0.532-1.593,1.062c-1.064,0-1.596,0-2.125,0
			c-2.657-5.843-7.97-7.97-16.471-5.843c-12.222,3.186-24.972,6.906-36.659,11.688c-3.188,3.188-6.377,6.376-9.565,8.501
			c0,0.532,0,1.593,0,2.125c0,3.72,0,7.438,1.064,11.157c-6.909,1.064-13.283,1.064-19.659,1.064
			c-3.718-3.188-7.438-5.313-11.687-7.97c-1.595-1.064-3.188-2.127-4.252-3.188c-5.313-5.313-9.031-11.158-11.687-18.596
			c4.249,0,9.031-1.595,13.283-3.72c0.529-0.532,0.529-1.062,0.529-1.593s0-0.532,0-0.532c7.44,1.593,15.41,2.125,23.909,2.125
			c5.845-0.532,11.69-1.593,16.471-3.718c2.657-0.532,4.781-1.064,6.377-2.127c0.532-0.53,0.532-0.53,1.061-0.53
			c1.064,0,2.657-0.532,4.252-1.064c4.781,0,9.562,0,14.344-0.531l0,0c0.532,0,1.064,0,1.064,0c0.532,0,0.532-0.532,1.064-1.062
			c5.313-5.845,9.031-11.158,12.219-17.534c3.188-2.657,6.377-5.845,9.562-9.031c0-0.532,0-0.532-0.529-1.064
			c-0.532-2.125-1.064-3.72-1.595-5.844c-0.532,0-0.532,0-0.532,0c-0.529,1.595-1.061,2.657-1.593,4.781l-1.064,1.063
			c1.595-6.376,2.657-12.751,3.188-19.659c0,0,0,0-0.532,0c0.532-2.125,0.532-4.25,0.532-6.375
			c-0.532-0.532-0.532-0.532-0.532-1.063c0-22.846,0.532-45.693,0.532-68.538c0-13.814-0.532-27.096-1.593-40.379
			c0-6.906-0.532-13.814,0-20.721c0-18.596-0.532-36.659-2.656-54.723c0.532,0.53,1.061,1.062,1.593,2.125
			c1.064-0.532,1.595-1.063,2.657-1.595c0-0.53,0-0.53-0.532-1.062c-1.061-1.063-1.593-2.657-2.125-3.72
			c-1.061-3.188-2.125-5.845-3.188-8.501c0-1.593,0-3.718-0.529-5.313c-0.532,0-0.532-0.53-1.064-1.062
			c-1.064-1.063-1.593-1.595-2.657-2.125c-1.064-1.595-1.593-2.657-2.657-3.72c-0.532-0.531-0.532-1.063-0.532-1.593
			c0,0,0-0.532,0-1.064c0,0,0-0.531-0.532-1.063c-0.529,0-0.529-0.53-0.529-0.53c-0.532-0.532-1.064-1.064-1.064-1.064
			c-6.377-6.376-12.751-11.157-20.188-14.346c-7.44-3.186-14.878-4.25-22.316-4.25c-2.656-1.063-5.313-1.063-8.501-1.593
			c-3.718,1.062-7.97,2.125-12.219,2.657c0-2.127,0-3.188,0.532-4.783c0-0.53,0-1.062,0-1.062c0-1.063,0-2.125,0-3.188
			c0-3.72-0.532-7.438-1.595-10.626c0-0.531,0-1.063,0-1.593c-0.532-5.845-2.657-10.096-7.97-13.283c-0.532,0-1.061,0-1.593,0
			c-1.595-0.532-2.656-2.127-4.252-3.188v0.532c-0.529,0-1.061,0-1.593,0c-0.532,1.062-1.593,1.593-2.125,2.125
			c-1.596,1.593-3.188,3.718-4.252,6.375c0-0.53,0-0.53,0-0.53v0.53c-0.529,0-1.061,0-1.593,0c-1.064,1.063-1.593,2.657-2.125,3.72
			c-2.656,4.782-4.781,10.095-4.781,15.408c-0.532-3.718,0-6.906,2.125-10.095c-0.532,0-0.532,0-1.064,0
			c-5.845,5.313-6.906,11.158-3.188,18.064c0.532,0,1.596,0,1.596,0c0,1.063,0,2.657,0.532,3.188c0,0.532,0.529,1.064,1.061,1.064
			c0,0.53,0.532,0.53,1.064,1.062c-15.407,1.063-30.817,1.595-46.224,2.125c-8.501,0.532-13.814,3.188-17.532,8.501
			C283.288,173.753,283.82,171.629,284.881,170.034z M364.044,137.626h-0.529c0.529-0.532,0.529-1.064,0.529-1.595
			C364.044,136.562,364.044,137.094,364.044,137.626z M348.105,161.535c0.532,0,0.532,0,0.532,0s0,0.53-0.532,1.062
			C348.105,162.064,348.105,161.535,348.105,161.535z M365.64,162.596c-1.595,0-3.188,0-4.781,0l0,0
			c1.061-0.532,2.657-1.062,3.718-1.062C364.576,161.535,365.64,162.064,365.64,162.596z M355.546,164.191
			c-1.064,0-2.657,0-3.72,0.53c-0.532,0-1.064,0-1.064,0c0-0.53,1.064-1.062,1.064-1.593c0,0.532,0,0.532,0.532,1.064
			C353.418,164.191,354.482,164.191,355.546,164.191z M388.485,166.316c2.125,0.532,3.72,1.062,5.313,1.062
			c3.188,0.532,6.377,1.063,9.565,1.595c8.499,4.25,17,8.501,24.438,12.219c0-0.532,0-0.532-0.529-1.062
			c-1.064-1.064-1.595-2.127-2.657-3.188c2.125,1.593,4.249,3.188,5.842,5.845c1.064,1.062,2.657,2.657,3.72,4.249
			c0,0.532,0,0.532,0,1.064c0.532,1.062,1.593,2.125,2.125,3.186c0.532,0,0.532,0.532,0.532,0.532
			c0.532,0.531,0.532,1.063,1.064,1.063c0,0.532,0.529,1.062,0.529,1.062c2.127,2.657,3.72,4.783,5.845,7.44
			c0,1.593,1.064,2.657,1.064,4.249h0.532c1.061,11.69,1.061,23.377,1.061,35.598c-0.532,5.843,0,11.688,0,17.532
			c1.064,16.471,2.125,32.942,2.125,49.411c0,26.565,0,53.13,0,80.227c0,3.188-0.529,6.376-1.061,9.565
			c-2.657,13.283-7.438,25.502-14.878,36.659c-2.657,1.593-5.313,3.188-8.499,4.781c0.529,0.532,1.061,0.532,1.593,1.064
			c-0.532,0.53-0.532,0.53-0.532,0.53c-0.532,0-0.532,0-0.532,0c-1.061,0.532-1.593,1.063-2.125,1.063
			c-0.532,0.532-1.061,0.532-2.125,0.532c0,0,0,0-0.532,0c-2.125,0.532-4.249,1.062-5.845,1.062c-6.374,0-12.751,0-19.125,1.063
			c-8.501,0.532-17.535,0-26.036-0.531c-3.718-0.532-7.438,0.531-10.626,1.595c-19.125,1.062-37.72-0.532-55.255-5.845v0.532
			c-0.532,0-1.061,0-1.593,0c0,0.53,0,0.53-0.532,0.53c-0.532,0.532-0.532,0.532-0.532,1.063
			c-4.781-3.188-9.031-6.906-13.283-10.626c0,0,0,0-0.532,0c0,0.532-0.529,0.532-1.061,0.532c-1.595-1.595-2.657-3.188-4.252-4.781
			c-4.249-10.096-6.906-21.252-7.97-32.41c0.532,3.188,1.064,5.845,1.596,9.031c1.593-10.094,2.125-20.72,2.125-31.346
			c0-27.097,0-53.662,0-80.227c0-26.565-0.532-53.13-2.125-79.696c-0.532,5.313-1.064,11.689-1.596,17.534c0-1.063,0-1.595,0-2.125
			c0.532-11.69,2.127-22.847,4.784-34.005c2.125-3.718,5.313-6.906,9.562-10.094c4.249-3.188,7.438-6.906,9.033-10.095
			c-5.845,1.593-11.158,4.25-15.939,9.033c0,0,0,0-0.532,0.53c0.532-0.53,0.532-1.593,0.532-2.657
			c5.842-4.781,13.283-7.438,21.252-7.438c14.875,0.531,28.69-0.532,42.504-3.718c13.283-0.532,26.033-1.595,38.252-3.188
			C384.767,166.316,386.892,166.316,388.485,166.316z M275.85,189.693c0-1.063,0-1.593,0.529-2.657c0-0.531,0-0.531,0.532-0.531
			C276.379,187.568,276.379,188.629,275.85,189.693z M268.942,249.2c0.532,2.657,0.532,5.313,0.532,7.97
			c0,6.906,0,14.344-0.532,21.782c-0.532,15.409,0.532,30.285,1.064,45.161c0,0.532,0,1.063-0.532,2.127
			c-1.064-9.565-1.064-19.127-1.593-28.692C267.349,281.078,267.881,265.139,268.942,249.2z M366.172,450.032
			c1.593,0,3.718,0,5.842,0c-1.593,0-2.656,0-3.718,0c0,0.532,1.061,1.064,1.593,1.064
			C368.296,451.095,367.233,450.563,366.172,450.032z M357.67,446.312c-0.532,0-0.532,0-1.064,0c-4.249,0-8.501,0-12.751,0
			c0.532,0,1.064,0,1.064,0C349.169,446.312,353.418,446.312,357.67,446.312z M348.637,461.189c0,0.532,0,1.062,0.532,1.062
			C348.637,462.251,348.637,461.721,348.637,461.189z M436.834,468.096c0,0.531,0,0.531-0.532,0.531
			c-4.249,5.845-6.906,11.69-9.562,18.596c-2.125,0-4.252,1.064-6.377,1.064l0,0c2.657-5.313,5.845-10.096,9.033-15.409
			c-1.064,0-1.596,0.532-1.596,0.532c-5.842,4.781-9.031,9.033-10.626,14.878c-1.593,0-3.718,0-5.842,0l0,0
			c0-1.064,0-1.595,0.529-2.127c0-0.53,0-0.53,0.532-1.062c4.252-3.188,6.909-7.438,8.501-12.221c0-0.53-0.532-0.53-1.064,0
			c-1.593,1.063-3.186,2.127-4.249,3.188c-3.72,3.188-5.845,6.376-5.845,9.565c-0.532,0-0.532,0-1.061-0.532
			c-1.595-1.063-3.188-2.125-4.252-3.188c0,0,0-0.531,0-1.063c0,0,0-0.53,0-1.062c1.064-1.063,2.657-2.125,4.252-3.188
			c6.906-3.72,14.344-6.906,22.313-10.626c1.064,0,2.125-0.531,3.188-1.063c3.72-1.062,7.438-1.593,11.158-2.657
			c3.188,0,5.845,0,8.501,0c0.529,0,0.529,0.532,1.061,1.063c0.532,0,0.532,0.532,1.064,0.532c-0.532,0.532-0.532,0.532-1.064,1.062
			c0.532,0,1.595,1.063,2.125,1.063c0,0.532,0,1.064,0,1.064c0,0.53,0,0.53,0,1.062c0,0.531,0,0.531,0,1.063s0,0.532-0.529,1.062
			c-2.127,1.595-4.252,3.72-6.377,5.845c-1.593,1.063-3.188,2.657-4.781,3.72c-0.532,0-1.064,0-1.064,0.532
			c-0.532,0.53-1.061,0.53-1.593,1.062c0.532-0.532,1.593-1.593,2.657-1.593c0-0.532,0-1.063,0.532-1.063
			c3.186-3.718,6.374-7.438,9.031-11.158c-0.532,0-0.532,0-1.061,0c-1.064,0-2.127,0-3.188,0.532c0,0.531,0,0.531,0,0.531
			c-3.188,2.657-5.845,5.313-8.501,8.501c0,0-0.532,0-1.064,0c-1.593,1.062-2.656,2.657-3.186,4.781
			c0.529,0,1.593,0.532,2.125,0.532c-3.188,1.593-6.377,3.188-9.565,3.718c2.127-5.843,4.784-11.688,7.97-17.533
			C438.427,468.627,437.898,468.627,436.834,468.096z M430.457,444.187c0,0.531,0.532,0.531,1.064,0.531
			c0.532,0,0.532,0,1.064-0.531c0,0.531,0,0.531,0.529,0.531l0,0c0,0-0.529,1.064-1.061,1.593c-1.064-0.53-2.657-0.53-3.72-1.062
			C428.865,444.719,429.396,444.719,430.457,444.187z"/>
		<path fill="#333333" d="M440.554,281.078c0-1.595-0.532-2.127-2.127-2.657c-13.812-1.064-27.626-1.064-41.972,0.53
			c-3.188,0-6.906,0.532-10.094,1.063c-26.565,1.064-53.662,0-80.227-2.657c-5.845-2.125-11.158-1.063-16.471,1.064
			c-1.061,0.53-2.125,1.593-2.657,2.657c0,0.53-1.061,1.593-1.061,2.125s0,0.532,0,1.062c0,0.532,0,0.532,0,1.063
			c0,0,0,0.532-0.532,1.064c-0.532,0-0.532,0.53-1.064,1.062c-1.593,22.847-2.125,46.756-1.061,70.664
			c0.532,11.156,1.061,22.314,1.593,33.471c0.532,3.72,1.064,7.438,1.064,11.158c0,0,0.532,0.532,1.061,1.062c0,0,0,0.532,0,1.063
			c0,0,0,0.532,0,1.064v0.53c0,0.532,0,1.063,0,1.063c0,0.532,0,1.064,0,1.064c0,0.53,0,1.062,0,1.062c0,0.531,0,0.531,0,1.063
			c0,0.532,0,0.532,0,1.062c0.532,0.532,0.532,0.532,0.532,1.063c0.532,0.532,0.532,0.532,1.064,1.064c0,0,0,0.53,0,1.062
			c0,0,0,0.531,0,1.063c2.125,3.718,4.781,6.375,7.97,8.501c2.125,1.593,4.781,2.657,6.906,2.657
			c24.972,6.375,49.413,7.438,74.383,3.718c0.532,0,0.532,0.531,0.532,0.531c0,0.532,0,1.064,0.532,1.064
			c0.532,0.53,0.532,1.062,0.532,1.062c1.593,0.531,3.186,0.531,4.781,0.531c4.249-0.531,9.031-0.531,13.814-1.593
			c1.593,0,2.657-0.532,4.249-1.595c1.064,0,1.593-0.532,2.125-1.062c1.595-0.532,2.657-0.532,4.252-1.064
			c0.529,0,1.061,0,1.593-0.531c1.064,0,1.593,0,2.657-0.532c0,0,0.532,0,1.064-0.53c10.094-7.44,17-17.534,20.72-29.222
			c3.718-11.69,5.845-24.44,5.845-37.191C441.615,334.208,441.615,307.643,440.554,281.078z M435.241,284.264
			c0,3.72,0,7.97,0.529,12.221c-4.781-3.72-9.031-7.438-14.344-10.626c-0.532,0-0.532,0-0.532,0c-0.532,0-0.532,0-1.064,0.532
			h-0.529c0,0.53,0,1.062,0.529,1.062c4.784,4.781,10.097,8.501,15.939,11.157c-0.529,1.593-0.529,3.72,0,5.313
			c-3.186-3.72-6.906-6.906-11.687-9.033c0,0,0,0-0.532,0c-0.532,0-0.532,0-1.064,0c0,0.532,0,0.532-0.529,0.532c0,0,0,0,0,0.531
			c0.529,1.064,1.061,1.593,2.125,2.657c-3.72-2.125-7.97-4.781-12.222-7.438c-0.529,0-1.061,0-1.593,0
			c-0.532,0.532-1.064,1.062-1.593,1.593c4.249,2.657,7.97,5.844,12.219,8.501c4.781,3.72,9.562,4.782,13.814,4.25
			c0,0,0.532,0,1.061,0.532c-0.529,7.438-0.529,15.407,0,22.847c-1.061-1.064-1.061-1.595-1.593-2.656c0,0-1.064-0.532-1.064-1.064
			c-3.718-2.657-7.97-6.376-11.687-9.033c0.532,0,0.532,0,1.061,0c1.064,0,1.595,0,2.127,0c0.529,0,0.529,0,1.061,0
			c0-0.53,0-0.53,0-0.53c-3.188-3.188-6.906-5.313-11.158-6.908c0,0,0,0-0.529,0c-0.532,0.531-0.532,0.531-0.532,0.531
			c-7.97-6.376-15.939-12.751-24.441-18.064c-0.532,0-0.532,0-0.532,0c-0.532,0-0.532,0-1.061,0c0,0,0,0-0.532,0
			c0,0.532,0,0.532,0,0.532c8.501,7.438,17.532,14.875,26.565,22.845c-0.532-0.531-1.064-0.531-2.125-0.531
			c-0.532,0-0.532,0-0.532,0.531c-1.064,1.593,0,2.125,2.125,2.657c0,0.532,0.532,1.593,0.532,2.125
			c0.532,0.531,0.532,0.531,1.061,1.063c3.72,1.593,6.377,3.718,9.565,6.906c1.061,0,2.657-0.532,3.718-1.062
			c0.532,0.53,1.064,1.062,1.596,1.593c2.657,2.125,4.781,3.72,6.374,4.25c-0.529,3.188-0.529,6.376-0.529,9.033
			c-0.532,0-1.064-1.063-1.064-1.593c-3.188-3.188-5.845-5.845-8.501-7.97v-0.532c-0.532,0-0.532,0-1.061,0
			c-16.471-15.407-35.067-28.69-54.194-39.848c-0.532,0-0.532,0-1.064,0c0,0-0.529,0-1.061,0.532c0,0,0,0-0.532,0.53
			c14.346,9.565,27.629,20.191,40.911,31.349c9.031,7.438,18.064,13.812,26.565,19.657c-0.532,6.376-0.532,12.751-0.532,19.127
			c0,13.814-2.656,26.565-7.97,39.316c-6.377,13.814-17.003,22.315-32.41,24.44c0,0,0-0.531,0-1.063c-0.532,0-1.064-0.53-1.064-0.53
			c-1.061,0-1.593,0-2.125-0.532c-5.313,0.532-10.094,1.062-15.407,1.593c-1.064,0.531-2.657,0.531-3.72,0.531
			c-3.718,0-7.438,0-11.155,0c0,0,0,0-0.532,0c-3.72-2.125-7.97-4.249-11.69-5.844c1.595,0.531,3.188,0,4.252-0.532
			c-0.532,0-0.532,0-0.532-0.53c3.188,1.593,6.374,2.125,9.562,1.593c0,0,0,0-0.532-0.531c-1.593-1.062-2.657-1.593-4.249-2.657
			c5.845,2.657,11.158,4.781,17.003,6.908c0.529-0.532,0.529-0.532,0-1.064c-3.72-2.125-7.44-4.249-11.158-5.844
			c3.718,1.063,7.438,1.595,11.158,2.125c0-0.53,0-0.53-0.532-0.53c-16.471-8.501-32.41-17.003-48.349-27.097
			c0.532,0,0.532,0,0.532-0.532c0-0.531-1.064-0.531-1.596-0.531c-0.529,0-0.529,0-1.061,0c-5.845-3.718-12.222-7.97-17.535-12.219
			c-0.529,0-0.529,0-1.061,0c0,0.532-0.532,0.532-1.064,0.532c0,0.53,0,0.53-0.532,0.53c1.064,2.657,3.188,4.783,7.44,7.44
			c1.593,1.062,3.186,1.593,4.781,2.657c-0.532,0-1.595,0-2.125,0c-2.127-1.595-4.252-2.657-6.377-4.251c-0.532,0-0.532,0-0.532,0
			c-0.532,0.531-0.532,0.531-1.061,0.531c-0.532,0.532-0.532,0.532-0.532,1.064c1.593,1.062,2.657,1.593,4.781,2.657
			c-2.125,0-4.249,0.53-5.845,1.593c-2.125-1.593-4.249-2.656-6.374-4.249l-0.532,0.53c1.593,1.595,3.718,3.188,5.313,4.251v0.532
			c0,0,0,0.53,0.532,0.53c0,0.532,1.061,0.532,1.593,0.532c9.562,7.438,19.659,14.346,30.815,20.72c0,0-0.529,0-0.529-0.53
			c-1.064,0-2.657,0-3.72,0.53c-0.532,0-1.064,0-1.064,0.532c1.064,0.531,2.657,1.063,3.72,1.595
			c6.906,3.718,13.814,6.906,20.72,10.094c-2.125,0-4.249,0-6.374,0.532c-17.003-10.096-34.006-19.659-50.474-30.285
			c-1.064,0-2.127,0-3.188,0c-0.532,0.532-0.532,0.532-0.532,0.532c1.064,0.532,2.657,1.062,3.72,1.593
			c15.407,12.221,31.878,21.783,48.878,28.16c-1.593,0-2.657,0-4.249,0c-6.909-3.188-13.814-6.377-20.191-10.096
			c-1.061,0-2.125,0-3.186-0.53v0.53c-0.532,0-0.532,0-1.064,0c-0.532,1.595,0.532,2.657,3.188,2.657
			c0.532,0.532,1.593,1.063,1.593,1.063c4.781,2.657,9.033,4.782,13.814,6.377l0,0c-13.283,1.062-24.972-1.595-36.128-6.908
			c-1.595-2.125-3.72-4.25-5.845-6.375v-0.532c0-0.532,0-1.063,0-1.063c-0.532-0.532-0.532-1.062-0.532-1.062
			c-0.532-0.532-0.532-1.064-1.064-1.064c-1.593-13.814-2.657-27.096-2.657-40.379c-1.593-27.097-1.593-53.13,0-79.164
			c0.532-0.531,0.532-0.531,1.064-1.063c0-0.53,0-0.53,0.532-1.062c0-0.532,0-0.532,0-1.063c0-0.532,0-1.062,0-2.125
			c0,0,0-0.531,0.532-0.531c0.529-0.532,0.529-1.062,1.061-1.062c17.003-0.532,34.003,0.53,50.474,2.657
			c3.72,1.062,7.438,1.062,11.158,1.062C382.111,286.391,409.205,285.327,435.241,284.264z M415.582,317.206
			c0-0.531,0-1.063-0.532-1.593c1.595,1.062,3.188,2.657,4.781,4.249c-1.061-0.531-2.657-1.063-3.186-1.593
			C416.114,317.737,416.114,317.737,415.582,317.206z M345.449,415.497c1.064,0.532,1.596,1.593,2.657,1.593
			c-13.283-6.906-26.565-14.344-38.784-21.782c2.656,0.53,5.313,0.53,7.438,0.53c2.125,1.063,4.252,2.657,6.377,3.72
			C330.573,404.871,338.011,410.184,345.449,415.497z M343.856,408.591c-0.532,0-0.532,0-1.064,0
			c-7.97-4.783-15.407-9.033-22.845-13.814c0.532-0.532,1.064-0.532,2.125-0.532c9.565,5.845,19.127,11.69,28.69,17.003
			c-2.125-1.064-4.249-1.595-6.374-2.657C344.388,408.591,344.388,408.591,343.856,408.591z"/>
		<path fill="#333333" d="M434.178,312.424c0-0.532-0.532-0.532-1.064-1.063c-4.781-4.782-11.155-7.97-17.532-9.563
			c-0.532,0.532-0.532,0.532-0.532,0.532c-6.906-4.783-13.283-9.033-20.72-12.753c0,0,0,0-0.532,0c-0.532,0-0.532,0-1.061,0
			c0,0.532,0,0.532-0.532,0.532c0,0,0,0,0,0.531c12.219,9.033,24.97,18.064,38.784,26.565c0,0,0.532-0.531,1.064-0.531v-0.532
			c0-0.53-1.064-1.062-1.064-1.062c-3.188-2.657-6.374-5.313-9.562-7.97c3.718,2.125,6.906,4.25,10.626,6.375
			c0.532,0,1.061,0,1.593-0.53C434.178,312.956,434.178,312.424,434.178,312.424z"/>
		<path fill="#333333" d="M402.299,320.394c0,0,0,0-0.532,0c0,0-0.532,0-1.061,0.532c0,0,0,0-0.532,0.53
			c0.532,0.532,1.061,1.063,1.593,2.127c-15.939-12.221-31.878-23.909-48.349-34.535v0.53c-0.529,0.532-1.061,0.532-1.593,1.063
			c0,0.532,0,0.532,0,0.532c2.657,2.657,5.313,4.25,7.97,6.375c13.814,10.096,28.158,20.191,41.973,30.817c-0.532,0-0.532,0-1.061,0
			c0,0.532,0,0.532,0,0.532c1.061,2.125,2.657,3.718,4.249,5.843c5.845,6.376,12.219,10.096,20.188,11.689
			c1.064,1.593,1.596,2.125,2.657,1.064c-3.186-4.783-6.374-8.501-10.626-11.69c2.127,1.064,4.252,1.593,6.909,2.125
			c0-0.532,0-0.532-0.532-1.062c-0.532-0.532-1.064-1.595-1.593-2.127c-0.532,0-1.064-0.53-2.127-1.062
			C413.457,329.957,408.144,325.707,402.299,320.394z M424.083,345.364L424.083,345.364c-4.781-3.186-10.094-6.906-14.878-11.156
			C413.989,337.926,418.77,341.646,424.083,345.364z"/>
		<path fill="#333333" d="M299.227,292.766c-0.532,0-0.532,0-1.064,0.531c6.909,4.25,14.878,4.782,23.909,2.125
			c0.532,0,1.064-0.532,1.064-1.593c0,0,0-0.532,0-1.063c0,0,0,0-0.532-0.532c-5.313-0.53-10.626-0.53-16.471-1.062
			C304.008,291.704,301.883,291.704,299.227,292.766z"/>
		<path fill="#333333" d="M331.105,306.048c-0.532,0-0.532,0-0.532,0c-0.532,0-1.064,0.531-2.125,1.063
			c3.718,3.718,7.97,7.438,13.283,10.626c7.97,4.781,16.471,10.626,23.909,16.471c10.094,7.438,20.189,14.875,30.283,22.314
			c6.909,6.908,14.346,12.751,22.316,17.534c0.532,0,1.064,0,1.593,0.53c1.064,1.063,2.657,2.127,4.252,3.188
			c-1.064-1.062-2.125-2.125-3.188-3.188c1.064,0,1.593,0,2.125,0c-0.532-0.53-1.061-0.53-1.593-1.062
			c-1.595-1.063-3.188-2.125-4.781-3.188c-6.377-6.906-13.283-13.283-20.723-19.127
			C375.734,334.738,353.418,319.862,331.105,306.048z"/>
		<path fill="#333333" d="M322.604,307.643c-0.532,0.53-0.532,0.53-0.532,1.062c1.595,1.063,2.656,2.125,4.781,3.72
			c-5.842-1.595-12.219-2.125-18.064-2.125c-1.593,0-3.188,0-5.313,0.53c-0.532,0.532-0.532,0.532-1.061,0.532
			c0,0.531-0.532,1.063-0.532,1.595c7.97,3.186,16.471,3.718,25.502,3.186c0.532-0.53,0.532-0.53,0.532-1.062
			c0.532,0,0.532-0.532,0.532-1.063l0,0c10.626,8.501,21.784,16.47,32.939,24.972c20.723,14.876,40.911,30.283,61.632,45.693
			c0,0,0.532-0.532,1.064-1.064l-0.532-0.531c-11.158-10.626-22.845-20.189-34.535-29.754c-20.72-16.469-42.504-31.878-64.82-46.222
			C323.667,307.643,323.136,307.643,322.604,307.643z"/>
		<path fill="#333333" d="M325.792,321.987c-1.064,0.531-2.125,0.531-2.657,1.063c0,0.532,0,0.532-0.532,1.062
			c1.064,0.532,1.593,1.063,2.657,1.595c2.125,1.593,4.781,3.188,6.906,4.781c0.532,0,1.064,0,1.595-0.531c0.532,0,0.532,0,1.061,0
			c10.097,5.844,20.191,12.221,29.222,19.127c11.158,8.501,21.784,16.471,32.942,24.972c2.657,2.125,5.313,4.249,8.501,5.843
			c5.313,4.783,10.626,8.501,15.939,12.753c0.532,0,0.532,0,1.061,0c0.532,0,0.532-0.532,0.532-0.532
			c0.532-0.532,0.532-1.063,0.532-1.063c-1.064-1.062-2.657-2.125-3.188-3.188c0.532,0.532,1.064,0.532,2.125,0.532
			c0,0-0.529,0-0.529-0.532c-1.595-1.062-3.72-2.657-5.313-3.186c-7.97-6.908-15.939-13.283-23.909-19.659
			C372.014,348.552,349.701,333.677,325.792,321.987z"/>
		<path fill="#333333" d="M303.476,340.051c-0.532,0-0.532,0-1.061,0.532c0.529,0.531,1.061,1.063,1.593,1.063
			c4.249,1.062,9.033,1.593,13.283,2.125c11.158,10.095,22.845,19.127,36.128,27.097c5.845,3.188,11.69,7.438,17.535,11.688
			c2.657,2.127,6.374,4.251,9.562,6.376c-2.657-0.531-5.313-2.125-7.438-3.188c-0.532,0-1.064,0-1.593,0.531h-0.532
			c7.438,4.25,14.875,8.501,21.784,13.814c0.529,0,1.593,0,2.125,0c1.061,0.532,2.125,1.062,3.188,1.062
			c6.374,4.251,12.751,7.97,19.125,11.689c-17.532-15.407-36.128-29.222-56.316-41.972c-4.252-2.657-9.033-5.313-13.283-7.438
			c-9.565-5.845-19.127-12.221-27.097-19.659c1.593,0,3.188,0,4.781,0c5.845,3.72,11.69,7.438,17.003,11.158
			c13.283,8.501,26.565,17.001,39.316,26.033c5.313,5.313,11.158,9.563,17.532,12.751c2.657,1.595,4.781,3.188,6.909,4.781
			c1.061,0,1.593,0,2.125,0c0,0,0-0.53,0.532-1.062c-0.532,0-1.064-0.532-1.595-1.063c1.064,0.531,2.125,0.531,3.188,1.063
			c-0.532-0.532-1.064-1.063-1.593-1.063c-2.127-1.062-4.252-2.656-6.377-3.718c-9.033-6.908-18.064-13.283-27.629-19.659
			c-14.344-9.562-28.69-19.659-43.033-29.222c1.061,0,2.125,0,3.186-0.531c11.69,7.97,23.379,15.407,35.067,23.377
			c5.845,3.72,11.158,7.44,16.471,11.158c0.532,0,0.532,0,0.532,0.531c9.031,6.377,18.596,12.751,27.626,18.064
			c0,0.531,0.532,1.063,1.064,1.063c0,0.532,0,1.062,0.532,1.062c0.532,0,1.061-0.53,1.593-1.062c0.532,0,0.532-0.532,0.532-1.063
			c-3.72-2.125-6.906-4.782-10.626-7.438c3.188,1.593,6.377,2.656,9.562,3.72c0-0.532,0-0.532,0-0.532
			c-6.906-3.72-13.812-7.438-20.189-10.626c-5.845-4.251-11.69-7.97-17.532-12.221c-13.283-9.563-27.097-19.125-41.443-27.627
			c0-0.532,0-0.532,0-0.532c0.532-0.531,0.532-1.063,0-1.063c0-0.53,0-0.53-0.532-1.062c-1.593,0-2.656,0-3.718,0
			c-6.909-4.251-14.346-8.501-21.784-12.751c0,0-1.064,0-1.064,0.53c-0.529,0.532-0.529,1.063,0,1.063
			c5.313,3.72,11.158,7.438,16.471,11.158c-0.532-0.532-2.125-0.532-3.188-0.532c-5.313-3.72-10.626-6.906-15.939-10.626h-1.061
			c2.125,3.72,5.313,7.438,9.562,10.626c-0.532,0-1.061,0-1.061,0C310.914,337.395,307.197,337.926,303.476,340.051z"/>
		<path fill="#333333" d="M347.044,299.674c-0.532,0.53-0.532,0.53-1.064,0.53c7.438,4.783,13.814,9.565,21.252,14.878
			c10.094,7.438,20.72,15.939,31.346,23.909c4.784,6.375,10.626,11.158,18.066,14.876c3.186,2.657,6.374,5.313,10.094,8.501
			c1.061,0,1.593,0,2.657,0.532c0.532,0,1.061,0,1.061,0c-1.593-2.125-3.186-4.251-4.781-5.845
			c-3.718-3.72-7.438-7.438-11.687-11.157c-20.191-17.533-41.975-32.94-65.352-46.754h-0.532
			C347.576,299.142,347.044,299.142,347.044,299.674z"/>
		<path fill="#333333" d="M335.886,301.266c-0.532,0-0.532,0.532-0.532,1.064c9.565,6.375,19.127,13.812,29.222,21.252
			c9.565,7.438,19.659,15.407,29.754,22.845c5.845,7.438,12.751,12.751,20.72,17.003c2.657,2.125,5.313,4.249,7.97,6.375
			c0,0,0.532-0.532,1.064-1.062l-0.532-0.532c-0.532-0.532-1.593-1.063-2.125-2.125c0.532,0,1.061,0,1.593,0.53
			c-0.532-0.53-1.061-0.53-1.593-1.062s-1.064-0.532-1.064-1.063c-5.845-5.845-11.687-11.688-18.064-17.001
			c-19.659-17.534-41.441-33.473-64.288-47.288c-0.532,0-0.532,0-1.061,0c0,0-0.532,0-1.064,0.532
			C335.886,300.735,335.886,300.735,335.886,301.266z"/>
		<path fill="#333333" d="M356.075,407.527c-0.529,0.532-0.529,0.532-0.529,1.064c0,0,0,0,0,0.53
			c2.657,0.532,5.313,1.063,7.438,3.188c7.438,5.844,14.875,9.033,23.377,10.094c0-0.53,0-0.53-0.532-0.53
			C376.266,417.09,366.172,411.777,356.075,407.527L356.075,407.527z"/>
		<path fill="#333333" d="M347.576,386.807c5.842,3.188,11.687,6.906,17,10.626c11.158,8.501,23.377,15.407,35.067,21.252
			c0.532,0,1.064-0.532,1.064-1.063c0.529,0,0.529,0,0-0.532c-1.064-0.53-1.595-1.062-2.657-2.125
			c-3.188-1.593-6.377-3.718-9.565-5.313c1.064,0,2.657,0.531,4.252,1.063c-0.532-0.532-1.064-0.532-1.595-1.063
			c-3.188-1.062-5.845-2.657-8.501-3.718c-1.593-1.064-2.657-2.127-4.249-3.188c-17.003-10.626-33.471-21.784-49.942-33.473
			c0-0.53,0-0.53,0-0.53c0-0.532,0-0.532-0.532-1.064c-0.532,0-1.064,0-1.593,0c-4.784-3.72-9.565-6.906-14.346-10.094
			c0,0,0,0-0.532,0c-0.532,0-0.532,0-1.061,0l-0.532,0.532c2.657,3.186,5.845,5.843,9.031,8.499c-2.657-0.53-5.313-0.53-7.438-1.062
			c-2.125-1.595-4.249-3.188-6.906-4.251l0,0c0,0.532-0.532,0.532-1.064,1.063c0,0,0,0,0,0.532c1.064,0.532,1.595,1.062,2.657,2.125
			c-1.593-0.531-2.657-0.531-4.249-0.531c0,0.531-1.064,0.531-1.064,0.531c-0.532,0.532-0.532,1.064-1.061,1.064
			c0,0.53,0,1.062,0.529,1.062c0.532,0.531,0.532,0.531,0.532,1.063h0.532c0,0.532,0.532,1.062,1.593,1.593
			c24.441,13.814,47.817,28.69,70.133,44.629c5.845,4.251,11.158,6.376,15.939,6.908c-3.188-2.657-6.377-5.313-9.562-7.97
			c2.657,1.593,6.374,3.718,9.562,4.781c0.532,0,1.064,0,1.593-0.531c-0.529,0-1.061-0.532-1.593-0.532c-0.532,0-0.532,0-0.532,0
			c1.595,0,3.188,0.532,4.781,1.063c-7.438-4.249-14.875-9.033-22.313-14.346c-16.471-11.156-32.942-21.782-49.942-32.408
			c1.061,0,2.657,0,3.718,0C332.166,377.242,339.607,382.026,347.576,386.807z M315.166,371.4
			c4.781,3.718,10.626,7.438,15.939,11.156c4.781,2.657,9.562,6.376,14.344,9.565c-12.219-7.97-24.438-14.878-37.191-21.784
			C310.385,370.868,312.51,370.868,315.166,371.4z"/>
		<path fill="#333333" d="M396.986,403.808c0,0,0,0-0.532,0c-0.532,0-1.061-0.53-1.061-1.062c-4.784-3.188-9.565-6.376-14.346-9.033
			c-1.064-0.532-2.125-1.062-3.188-1.593c-21.784-14.878-44.629-28.69-66.945-42.504l-1.061,0.532
			c11.158,9.031,23.377,17.532,36.128,24.97c5.845,3.72,11.69,7.438,17.535,11.157c15.939,11.158,32.407,20.721,49.942,27.629
			C407.612,411.247,402.299,407.527,396.986,403.808z"/>
		<path fill="#333333" d="M341.731,210.413c0,0,0,0,0-0.532c-7.97-2.657-16.471-3.186-24.972-1.593
			c-6.374,0.532-13.283,1.064-19.657,1.064h-0.532c0,0.53,0,1.062,0.532,1.062c0,0.531,0,1.063,0.529,1.063
			c0.532,0.532,0.532,1.062,0.532,1.062c14.346,2.657,28.69,2.657,43.036,0.532c0.532,0,0.532,0,0.532-0.532c0,0,0-0.53,0-1.062
			C342.263,211.477,342.263,210.945,341.731,210.413z"/>
		<path fill="#333333" d="M294.446,240.698c0.529,0.532,1.061,1.062,1.593,1.062c7.438,1.595,14.875,1.063,22.316-1.593
			c0,0,0,0,0-0.531c0.529-0.532,0.529-1.593,0.529-2.125c0,0-0.529,0-0.529-0.531c-2.127-1.062-3.72-1.593-5.845-1.593
			C306.133,236.447,300.288,238.042,294.446,240.698z"/>
		<path fill="#333333" d="M320.479,263.012c-0.532,0-0.532,0-0.532-0.53c-0.532,0-1.064-0.532-1.593-1.064
			c-1.064,0.532-2.656,1.064-3.72,1.064c-7.97,1.062-14.875,2.657-19.659,5.843c7.44,3.72,15.939,4.251,23.909,0.532
			c0.532,0,0.532,0,0.532-0.532C321.011,266.732,321.011,265.139,320.479,263.012z"/>
		<path fill="#333333" d="M444.272,468.627c-0.532,0-0.532,0-1.061,0.532c-4.784,3.718-8.501,8.501-11.69,13.814
			c0.532,0.53,1.064,0.53,1.593,0.53c0.532,0,1.064,0,1.595-0.53c0-0.532,0-0.532,0.532-1.064
			C438.959,478.19,441.615,473.409,444.272,468.627z"/>
	</g>
</g>
</svg>
