<?xml version="1.0" encoding="utf-8"?>
<!-- Generator: Adobe Illustrator 17.0.0, SVG Export Plug-In . SVG Version: 6.00 Build 0)  -->
<!DOCTYPE svg PUBLIC "-//W3C//DTD SVG 1.1//EN" "http://www.w3.org/Graphics/SVG/1.1/DTD/svg11.dtd">
<svg version="1.1" id="Layer_1" xmlns="http://www.w3.org/2000/svg" xmlns:xlink="http://www.w3.org/1999/xlink" x="0px" y="0px"
	 width="800px" height="600px" viewBox="0 0 800 600" enable-background="new 0 0 800 600" xml:space="preserve">
<g>
	<g>
		<path fill="#01050A" d="M482.179,410.231c0,0-8.509-37.959,38.94-29.779c0,0,15.055,6.871,14.727,31.745
			C535.846,412.196,466.755,447.389,482.179,410.231z"/>
	</g>
	<g>
		<path fill="#01050A" d="M301.05,410.486c0,16.187-13.113,29.314-29.291,29.314c-16.177,0-29.291-13.127-29.291-29.314
			s13.114-29.308,29.291-29.308C287.937,381.177,301.05,394.299,301.05,410.486z"/>
	</g>
	<g>
		<path fill="#01050A" d="M239.587,403.16c0,0-6.804-30.362,31.145-23.816c0,0,12.039,5.496,11.777,25.383
			C282.509,404.727,230.951,428.023,239.587,403.16z"/>
	</g>
	<g>
		<ellipse fill="#FFFFFF" cx="261.692" cy="412.233" rx="21.334" ry="26.87"/>
		<path fill="#01050A" d="M261.694,440.138c-12.335,0-22.37-12.519-22.37-27.905c0-15.386,10.036-27.905,22.37-27.905
			c12.334,0,22.367,12.519,22.367,27.905C284.061,427.619,274.028,440.138,261.694,440.138z M261.694,386.399
			c-11.193,0-20.3,11.589-20.3,25.834c0,14.246,9.106,25.834,20.3,25.834c11.191,0,20.297-11.589,20.297-25.834
			C281.991,397.987,272.885,386.399,261.694,386.399z"/>
	</g>
	<g>
		<g>
			<path fill="#01050A" d="M260.968,429.443c-6.704,0-12.159-7.504-12.159-16.729c0-9.221,5.455-16.723,12.159-16.723
				c6.7,0,12.152,7.502,12.152,16.723C273.12,421.939,267.668,429.443,260.968,429.443z M260.968,397.027
				c-6.134,0-11.124,7.037-11.124,15.687c0,8.653,4.99,15.693,11.124,15.693c6.13,0,11.116-7.041,11.116-15.693
				C272.084,404.063,267.098,397.027,260.968,397.027z"/>
		</g>
		<g>
			<path fill="#01050A" d="M262.219,398.412c0.514,0,1.015,0.053,1.514,0.137c-6.28,0.212-11.322,6.711-11.322,14.713
				c0,7.484,4.408,13.655,10.123,14.595c-0.104,0.004-0.208,0.022-0.316,0.022c-6.426,0-11.639-6.6-11.639-14.735
				C250.579,405.008,255.792,398.412,262.219,398.412z"/>
		</g>
		<g>
			<path fill="#01050A" d="M257.998,403.016c0,0-5.324,15.649,7.868,21.242c0,0-4.293,0.556-5.93-1.539
				C259.937,422.719,251.3,411.404,257.998,403.016z"/>
		</g>
		<g>
			<path fill="#01050A" d="M262.219,400.994c0,0.708,0.514,1.288,1.143,1.288c0.631,0,1.139-0.58,1.139-1.288
				c0-0.718-0.509-1.294-1.139-1.294C262.732,399.7,262.219,400.276,262.219,400.994z"/>
		</g>
		<g>
			<path fill="#01050A" d="M259.028,405.624c0,0.712,0.512,1.29,1.135,1.29c0.635,0,1.145-0.578,1.145-1.29
				c0-0.712-0.51-1.284-1.145-1.284C259.54,404.34,259.028,404.913,259.028,405.624z"/>
		</g>
		<g>
			<path fill="#01050A" d="M260.495,417.868c0,0.71,0.512,1.286,1.144,1.286c0.63,0,1.139-0.576,1.139-1.286
				c0-0.718-0.51-1.292-1.139-1.292C261.006,416.576,260.495,417.15,260.495,417.868z"/>
		</g>
		<g>
			<path fill="#01050A" d="M267.156,423.027c0,0.716,0.505,1.29,1.143,1.29c0.626,0,1.137-0.574,1.137-1.29
				c0-0.71-0.511-1.288-1.137-1.288C267.661,421.739,267.156,422.317,267.156,423.027z"/>
		</g>
		<g>
			<path fill="#01050A" d="M271.296,405.665c0,0-4.096,0.764-3.442,5.607c0,0-0.654,4.709,4.29,5.949
				C272.144,417.221,273.415,412.449,271.296,405.665z"/>
		</g>
		<g>
			<path fill="#01050A" d="M258.595,411.756c0,0.716,0.515,1.29,1.143,1.29c0.633,0,1.143-0.574,1.143-1.29
				c0-0.712-0.51-1.292-1.143-1.292C259.11,410.463,258.595,411.044,258.595,411.756z"/>
		</g>
	</g>
	<g>
		<path fill="#01050A" d="M359.452,403.681c0,16.199-11.364,29.336-25.385,29.336s-25.386-13.137-25.386-29.336
			c0-16.199,11.365-29.333,25.386-29.333S359.452,387.482,359.452,403.681z"/>
	</g>
	<g>
		<polygon fill="#660202" points="470.768,293.667 505.252,292.893 506.448,380.611 473.159,380.998 		"/>
	</g>
	<g>
		<path fill="#01050A" d="M177.825,309.99l2.617,106.779l55.658,2.445c0,0-2.792-41.178,23.38-41.699
			c26.171-0.526,27.741,44.486,27.741,44.486l193.144,9.425c0,0-10.992-50.247,34.545-49.723l-4.186-93.698L177.825,309.99z"/>
	</g>
	<g>
		<path fill="#01050A" d="M236.709,430.031c0,0,10.467,2.265,8.202-3.142l-3.664-9.16l-3.839,1.045L236.709,430.031z"/>
	</g>
	<g>
		<path fill="#01050A" d="M478.271,446.778c0,0,13.085-3.316,19.539-2.443c0,0-13.084-14.484-9.246-25.126
			C488.564,419.209,479.841,420.256,478.271,446.778z"/>
	</g>
	<g>
		<ellipse fill="#01050A" cx="579.553" cy="408.393" rx="30.098" ry="34.778"/>
	</g>
	<g>
		<ellipse fill="#01050A" cx="522.369" cy="421.478" rx="29.443" ry="34.024"/>
	</g>
	<g>
		<path fill="#FFFFFF" d="M544.484,419.907c0,18.791-13.183,34.026-29.445,34.026c-16.26,0-29.442-15.234-29.442-34.026
			c0-18.787,13.182-34.02,29.442-34.02C531.301,385.887,544.484,401.119,544.484,419.907z"/>
		<path fill="#01050A" d="M515.04,454.968c-16.805,0-30.477-15.728-30.477-35.061c0-19.329,13.672-35.055,30.477-35.055
			c16.807,0,30.48,15.726,30.48,35.055C545.519,439.24,531.846,454.968,515.04,454.968z M515.04,386.922
			c-15.663,0-28.406,14.798-28.406,32.984c0,18.191,12.743,32.99,28.406,32.99c15.665,0,28.409-14.8,28.409-32.99
			C543.449,401.72,530.705,386.922,515.04,386.922z"/>
	</g>
	<g>
		<path fill="#FFFFFF" d="M243.304,381.523l-57.192-0.651l-0.348,2.091l57.058,0.72
			C242.847,382.937,243.004,382.192,243.304,381.523z"/>
	</g>
	<g>
		<path fill="#FFFFFF" d="M243.739,382.874l-57.189-0.649l-0.35,2.093l57.06,0.72C243.283,384.285,243.439,383.547,243.739,382.874z
			"/>
	</g>
	<g>
		<path fill="#FFFFFF" d="M277.538,382.486c0.488,0.649,0.516,0.793,0.672,1.595l211.926,2.677l1.832-2.18L277.538,382.486z"/>
	</g>
	<g>
		<path fill="#FFFFFF" d="M277.242,383.258c0.489,0.651,0.812,1.415,0.968,2.218l211.926,2.679l2.093-2.445L277.242,383.258z"/>
	</g>
	<g>
		<path fill="#FFFFFF" d="M238.828,411.97l-55.017-1.662l-0.368,2.091l55.352,1.739C238.671,413.416,238.676,412.678,238.828,411.97
			z"/>
	</g>
	<g>
		<path fill="#FFFFFF" d="M238.828,413.191l-55.017-1.66l-0.368,2.087l55.352,1.741
			C238.671,414.639,238.676,413.901,238.828,413.191z"/>
	</g>
	<g>
		<path fill="#FFFFFF" d="M286.505,413.416c-0.062,0.776-0.277,1.535-0.637,2.214l191.006,6.374l0.873-2.267L286.505,413.416z"/>
	</g>
	<g>
		<path fill="#FFFFFF" d="M286.855,414.639c-0.062,0.773-0.278,1.533-0.638,2.21l191.007,6.378l0.872-2.271L286.855,414.639z"/>
	</g>
	<g>
		<polygon fill="#FFFFFF" points="183.975,351.732 467.888,350.816 466.189,354.368 184.76,354.308 		"/>
	</g>
	<g>
		<polygon fill="#FFFFFF" points="184.455,322.375 467.493,313.454 465.663,309.961 184.105,318.541 		"/>
	</g>
	<g>
		<polygon fill="#FFFFFF" points="471.64,293.417 505.314,291.672 505.75,381.568 472.688,381.001 		"/>
	</g>
	<g>
		<path fill="#01050A" d="M504.834,292.586l3.272,87.021c0,0,34.022-4.449,44.752,31.401l6.283,2.097l-4.319-123.987
			L504.834,292.586z"/>
	</g>
	<g>
		<path fill="#FFFFFF" d="M549.253,342.086c0,1.632-1.268,2.948-2.832,2.948h-30.219c-1.565,0-2.835-1.316-2.835-2.948v-39.593
			c0-1.628,1.27-2.948,2.835-2.948h30.219c1.564,0,2.832,1.32,2.832,2.948V342.086z"/>
	</g>
	<g>
		<path fill="#01050A" d="M612.965,368.786c0,0,1.048,6.111-0.698,6.632c0,0,3.139,36.986-0.175,42.05c0,0-2.355,5.931-27.916,6.454
			c0,0-6.632,1.134-10.993-1.923c0,0-14.656-6.452-16.922-10.116c0,0-6.806-23.553,2.616-33.15
			C558.878,378.733,579.292,361.288,612.965,368.786z"/>
	</g>
	<g>
		<path fill="#01050A" d="M612.268,375.418c0,0,9.244,4.883,5.757,19.713c0,0,1.754,18.027-5.928,20.354
			C612.097,415.486,610.349,378.383,612.268,375.418z"/>
	</g>
	<g>
		<path fill="#01050A" d="M559.957,391.937c0,0-5.878,0.754-3.523,20.383c0,0-5.844-20.413-2.879-23.903
			C553.555,388.417,561.527,386.006,559.957,391.937z"/>
	</g>
	<g>
		<path fill="#FFFFFF" d="M582.599,385.127c0,0,2.127-5.864,16.944-6.434c7.141-0.275,11.517,1.102,11.517,1.102l0.524,2.356
			c0,0-10.468-3.286-10.468,3.347l-1.505,34.895l-2.159,0.35l0.349-35.245c0,0-2.008-10.357-15.268,1.856L582.599,385.127z"/>
	</g>
	<g>
		<path fill="#01050A" d="M576.382,379.606c0,0-8.638-0.295-16.457,12.385c0,0-1.92-6.281-7.153-1.571
			C552.772,390.421,561.901,367.217,576.382,379.606z"/>
	</g>
	<g>
		<path fill="#01050A" d="M565.682,363.118l14.132,9.68c0,0,14.023-8.064,33.392-3.876c0,0-14.811-12.347-31.298-13.396
			C581.908,355.525,559.401,352.389,565.682,363.118z"/>
	</g>
	<g>
		<path fill="#01050A" d="M540.95,315.486c0,0.578-0.468,1.048-1.047,1.048h-6.413c-0.577,0-1.395-0.787-1.395-2.532l-1.481-12.78
			c0-0.578,0.467-1.047,1.045-1.047h8.244c0.578,0,1.047,0.469,1.047,1.047V315.486z"/>
	</g>
	<g>
		<path fill="#FFFFFF" d="M540.251,314.697c0,0.5-0.405,0.906-0.905,0.906h-5.544c-0.502,0-1.211-0.681-1.211-2.188l-1.282-11.057
			c0-0.5,0.406-0.902,0.909-0.902h7.128c0.499,0,0.905,0.402,0.905,0.902V314.697z"/>
	</g>
	<g>
		<path fill="#01050A" d="M550.502,292.893c0,0,3.512,91.097,2.794,97.444c0,0,13.259-17.014,26.87-18.061
			c0,0-5.934-4.885-11.168-9.247l18.144-2.445l-2.159-61.522l26.368,0.131v-4.776C611.351,294.418,553.643,286.612,550.502,292.893z
			"/>
	</g>
	<g>
		<path fill="#01050A" d="M610.872,287.656c0,0-9.159-93.386-26.608-98.969c0,0-37.687-20.718-94.216-11.647l-262.323,34.547
			c0,0-41.874-4.188-48.155,49.549l-2.094,43.968L610.872,287.656z"/>
	</g>
	<g>
		<path fill="#01050A" d="M595.78,202.948c0,0-0.262-26.435-74.065-30.621c0,0,18.255,4.451,19.891,24.995L595.78,202.948z"/>
	</g>
	<g>
		<path fill="#01050A" d="M539.511,189.21c0,0,14.263,81.654,10.337,97.881c0,0,59.279,5.361,61.635,3.792
			c0,0-5.76-62.024-17.275-87.672L539.511,189.21z"/>
	</g>
	<g>
		<path fill="#FFFFFF" d="M551.172,225.22c-0.427-0.429-0.743-2.17-0.743-2.17l-3.016-22.999c0,0-0.236-1.252,0.392-1.822
			c0.727-0.661,2.822-0.19,2.822-0.19l16.393,3.816c0,0,1.32,0.212,2.01,1.054c0.515,0.629,0.521,1.767,0.521,1.767l2.789,21.79
			c0,0,0.116,0.995-0.455,1.436c-0.743,0.57-1.541,0.346-1.541,0.346l-16.661-2.228C553.684,226.018,551.772,225.82,551.172,225.22z
			"/>
	</g>
	<g>
		<path fill="#FFFFFF" d="M580.877,229.921c-0.364-0.384-0.693-1.994-0.693-1.994l-3.425-21.295c0,0-0.244-1.159,0.24-1.713
			c0.559-0.643,2.27-0.287,2.27-0.287l13.398,2.946c0,0,1.075,0.146,1.667,0.906c0.44,0.564,0.495,1.624,0.495,1.624l3.19,20.18
			c0,0,0.138,0.924-0.305,1.353c-0.574,0.562-1.229,0.382-1.229,0.382l-13.548-1.454
			C582.936,230.57,581.385,230.459,580.877,229.921z"/>
	</g>
	<g>
		<polygon fill="#01050A" points="539.249,188.684 595.845,202.948 594.34,203.601 539.903,190.258 		"/>
	</g>
	<g>
		<polygon fill="#01050A" points="564.833,235.925 595.125,241.811 594.469,243.253 564.768,237.36 		"/>
	</g>
	<g>
		<polygon fill="#01050A" points="565.621,273.173 596.306,276.447 595.778,277.938 565.679,274.615 		"/>
	</g>
	<g>
		<path fill="#FFFFFF" d="M607.425,269.425c0,5.233,0.524,5.757-5.365,5.757l-39.257-5.235c-1.96,0-4.973-1.571-4.973-3.533
			l-3.401-22.377c0-1.959,2.62-4.317,4.579-4.317l42.382,7.805c1.96,0,3.55,1.591,3.55,3.551L607.425,269.425z"/>
	</g>
	<g>
		<path fill="#FFFFFF" d="M536.311,221.174c0,2.066-2.147,4.839-5.779,5.308l-48.085,3.434c-4.839,0.625-6.557-1.87-6.557-5.777
			l0.937-17.796c0-2.655,1.874-6.402,6.87-7.338l39.341-4.525c6.049-0.273,10.148-0.39,11.319,8.626L536.311,221.174z"/>
	</g>
	<g>
		<path fill="#FFFFFF" d="M463.019,226.081c0,2.077-1.215,5.484-3.292,5.484l-50.614,5.015c-2.076,0-2.742-3.098-2.742-5.171
			v-19.277c0-2.077,1.683-3.761,3.761-3.761l48.186-4.857c2.077,0,4.23,1.529,4.23,3.604L463.019,226.081z"/>
	</g>
	<g>
		<path fill="#FFFFFF" d="M397.969,234.016c0,2.109-1.13,5.565-3.061,5.565l-47.082,5.088c-1.933,0-2.55-3.14-2.55-5.247v-19.552
			c0-2.105,1.566-3.814,3.498-3.814l44.823-4.928c1.931,0,3.937,1.551,3.937,3.66L397.969,234.016z"/>
	</g>
	<g>
		<path fill="#FFFFFF" d="M338.438,240.074c0,2.006-1.045,5.302-2.835,5.302l-43.589,4.849c-1.787,0-2.36-2.993-2.36-5.001v-18.628
			c0-2.01,1.449-3.64,3.237-3.64l41.497-4.693c1.788,0,3.646,1.476,3.646,3.484L338.438,240.074z"/>
	</g>
	<g>
		<path fill="#FFFFFF" d="M283.468,245.972c0,1.98-0.904,5.227-2.452,5.227l-37.726,4.778c-1.546,0-2.042-2.95-2.042-4.93v-18.361
			c0-1.976,1.253-3.581,2.802-3.581l35.916-4.627c1.548,0,3.153,1.454,3.153,3.432L283.468,245.972z"/>
	</g>
	<g>
		<path fill="#FFFFFF" d="M232.57,233.336l0.718,20.797c0,0-0.718,3.108-3.108,3.585l-32.989,2.629c0,0-4.541-1.67-2.39-7.405
			c0,0,4.9-19.248,17.211-21.276c0,0,4.422-0.72,16.256-1.672C228.268,229.994,232.57,229.755,232.57,233.336z"/>
	</g>
	<g>
		<path fill="#01050A" d="M521.715,172.328L224.41,211.587c0,0-30.36-0.526-39.782,29.312c0,0,10.469-19.891,53.914-20.417
			l284.36-33.342c0,0,5.224-0.418,10.066-0.418c3.008,0,6.805,2.224,6.805,2.224S541.606,174.947,521.715,172.328z"/>
	</g>
	<g>
		<path fill="#FFFFFF" d="M188.294,253.808c0,0-4.188-26.518,29.313-30.708L468.5,194.836l-0.698,2.791l-250.895,27.219
			C216.908,224.846,193.877,225.195,188.294,253.808z"/>
	</g>
	<g>
		<path fill="#FFFFFF" d="M477.506,243.964c-0.053-0.574-0.582-0.999-1.187-0.944l-248.171,21.926
			c-0.606,0.055-1.054,0.564-1.004,1.138l0,0c0.052,0.576,0.581,1.003,1.186,0.946l248.172-21.925
			C477.105,245.054,477.555,244.543,477.506,243.964L477.506,243.964z"/>
	</g>
	<g>
		<path fill="#FFFFFF" d="M474.683,286.163c-0.03-0.576-0.548-1.019-1.153-0.989l-248.801,12.984
			c-0.605,0.033-1.073,0.526-1.043,1.104l0,0c0.03,0.576,0.546,1.017,1.152,0.987l248.801-12.986
			C474.244,287.233,474.71,286.742,474.683,286.163L474.683,286.163z"/>
	</g>
	<g>
		<polygon fill="#FFFFFF" points="177.476,305.104 547.363,285.913 611.483,291.016 611.219,294.678 547.843,290.446 
			177.825,309.99 		"/>
	</g>
	<g>
		<path fill="#01050A" d="M547.231,293.239c0,0-0.742,10.729-9.289,11.255l0.348-1.656c0,0,7.764-1.876,4.23-9.207L547.231,293.239z
			"/>
	</g>
	<g>
		<circle fill="#01050A" cx="536.762" cy="304.231" r="2.094"/>
	</g>
	<g>
		<path fill="#FFFFFF" d="M582.708,343.47c0,0.526,0.556,3.589-1.028,3.589l-19.236,0.989c0-1.695,1.978-9.285-4.697-15.352
			l-0.793-30.714c0-0.528,0.425-0.956,0.951-0.956h22.821c0.527,0,0.953,0.429,0.953,0.956L582.708,343.47z"/>
	</g>
	<g>
		<rect x="556.262" y="330.924" fill="#01050A" width="28.656" height="2.619"/>
	</g>
	<g>
		<polygon fill="#FFFFFF" points="576.457,423.528 577.024,377.859 578.943,378.209 578.069,423.749 		"/>
	</g>
	<g>
		<path fill="#01050A" d="M612.005,375.024c0,0-12.823-4.449-35.593,4.582c0,0-5.103-2.728-7.11-3.51c0,0,19.41-11.409,43.88-7.221
			C613.183,368.875,614.034,373.979,612.005,375.024z"/>
	</g>
	<g>
		<path fill="#FFFFFF" d="M577.001,379.43c0,0,20.61-9.947,35.091-4.711l0.176,1.484c0,0-20.066-4.099-33.675,4.101L577.001,379.43z
			"/>
	</g>
	<g>
		<ellipse fill="#FFFFFF" cx="568.997" cy="395.045" rx="3.141" ry="6.891"/>
	</g>
	<g>
		<path fill="#FFFFFF" d="M568.999,404.729c-2.642,0-4.78-4.693-4.78-10.486c0-3.585,0.821-6.746,2.071-8.638
			c-1.73,1.581-2.944,5.318-2.944,9.684c0,5.793,2.139,10.489,4.781,10.489c1.005,0,1.938-0.686,2.71-1.85
			C570.269,404.44,569.65,404.729,568.999,404.729z"/>
	</g>
	<g>
		<path fill="#FFFFFF" d="M617.88,388.849c0,2.509-0.873,4.539-1.949,4.539c-1.077,0-1.948-2.03-1.948-4.539
			c0-2.503,0.872-4.534,1.948-4.534C617.007,384.316,617.88,386.346,617.88,388.849z"/>
	</g>
	<g>
		<polygon fill="#01050A" points="474.693,299.085 504.572,296.903 505.925,377.248 476.787,377.596 		"/>
	</g>
	<g>
		<path fill="#01050A" d="M552.858,411.007c0,0-6.716-34.804-46.672-33.494c0,0-34.983,4.446-29.224,52.601
			c0,0,7.328,4.449,6.805-3.403c0,0-4.973-41.087,27.217-41.087c0,0,17.273-3.923,31.93,21.719
			C542.914,407.343,552.334,416.768,552.858,411.007z"/>
	</g>
	<g>
		<path fill="#01050A" d="M291.538,420.827c0,0-3.795-48.372-32.757-46.977c-28.963,1.391-22.682,45.364-22.682,45.364h4.885
			c0,0-6.369-39.085,18.843-39.085c27.22,0,20.937,39.778,20.937,39.778S291.538,424.663,291.538,420.827z"/>
	</g>
	<g>
		<path fill="#FFFFFF" d="M466.058,345.059c0,1.733-1.399,3.14-3.123,3.14h-56.566c-1.725,0-3.123-1.407-3.123-3.14v-22.336
			c0-1.731-0.175-4.532,3.297-4.532l54.803-1.219c3.665,0,4.191,1.618,4.191,5.057L466.058,345.059z"/>
	</g>
	<g>
		<path fill="#FFFFFF" d="M400.63,345.496c0,1.735-1.25,3.138-2.79,3.138h-50.515c-1.54,0-2.79-1.403-2.79-3.138v-19.978
			c0-1.735,0.302-5.583,3.401-5.583l50.368-1.484c1.54,0,1.858,1.403,1.858,3.142L400.63,345.496z"/>
	</g>
	<g>
		<path fill="#FFFFFF" d="M339.737,345.74c0,1.6-1.15,2.894-2.566,2.894h-46.51c-1.419,0-2.567-1.294-2.567-2.894v-20.591
			c0-1.6-0.145-4.184,2.71-4.184l46.793-1.203c1.419,0,2.489,2.342,2.489,3.937L339.737,345.74z"/>
	</g>
	<g>
		<path fill="#FFFFFF" d="M284.253,346.262c0,1.601-1.026,2.896-2.292,2.896h-41.56c-1.269,0-2.295-1.294-2.295-2.896V328.31
			c0-1.6-0.436-6.457,4.449-6.457l36.988-0.869c4.057,0,4.535,3.634,4.535,5.231L284.253,346.262z"/>
	</g>
	<g>
		<path fill="#FFFFFF" d="M232.609,346.068c0,1.513-0.973,2.742-2.172,2.742h-39.36c-1.201,0-2.174-1.23-2.174-2.742v-17.004
			c0-1.514-0.413-6.113,4.212-6.113l35.032-0.827c3.842,0,4.296,3.443,4.296,4.956L232.609,346.068z"/>
	</g>
	<g>
		<path fill="#FFFFFF" d="M374.284,401.414c0,1.735-1.406,3.142-3.14,3.142h-0.699c-1.735,0-3.141-1.407-3.141-3.142v-9.771
			c0-1.733,1.406-3.138,3.141-3.138h0.699c1.734,0,3.14,1.405,3.14,3.138V401.414z"/>
	</g>
	<g>
		<path fill="#01050A" d="M372.191,402.67c0,0.695-0.564,1.256-1.258,1.256h-0.28c-0.693,0-1.256-0.56-1.256-1.256v-3.909
			c0-0.692,0.563-1.256,1.256-1.256h0.28c0.694,0,1.258,0.564,1.258,1.256V402.67z"/>
	</g>
	<g>
		<rect x="456.984" y="394.436" fill="#FFFFFF" width="10.818" height="11.864"/>
	</g>
	<g>
		<rect x="607.067" y="302.66" fill="#01050A" width="1.635" height="13.874"/>
	</g>
	<g>
		<path fill="#01050A" d="M612.07,310.512c0,1.264-1.025,2.291-2.289,2.291c-1.264,0-2.29-1.027-2.29-2.291
			c0-1.262,1.026-2.289,2.29-2.289C611.044,308.222,612.07,309.25,612.07,310.512z"/>
	</g>
	<g>
		<path fill="#01050A" d="M610.304,297.888l-0.067,6.149c0,0,7.395,5.037,1.506,7.197l-0.392-1.573c0,0,2.487-2.287-2.42-5.296
			l0.328-6.349L610.304,297.888z"/>
	</g>
	<g>
		<g>
			<polygon fill="#FFFFFF" points="409.309,354.403 410.748,354.403 410.618,384.87 409.439,385.102 			"/>
		</g>
		<g>
			<polygon fill="#FFFFFF" points="408.523,354.316 409.964,354.316 409.832,386.037 408.653,386.281 			"/>
		</g>
	</g>
	<g>
		<g>
			<polygon fill="#FFFFFF" points="409.397,387.118 410.837,387.118 410.706,417.583 409.528,417.816 			"/>
		</g>
		<g>
			<polygon fill="#FFFFFF" points="408.612,387.033 410.052,387.033 409.921,418.752 408.743,418.995 			"/>
		</g>
	</g>
	<g>
		<g>
			<polygon fill="#FFFFFF" points="344.404,354.316 345.843,354.316 346.281,383.968 344.711,383.881 			"/>
		</g>
		<g>
			<polygon fill="#FFFFFF" points="343.619,354.231 345.059,354.231 344.927,385.952 343.749,386.192 			"/>
		</g>
	</g>
	<g>
		<g>
			<polygon fill="#FFFFFF" points="344.232,386.334 345.67,386.334 346.106,415.984 344.536,415.897 			"/>
		</g>
		<g>
			<polygon fill="#FFFFFF" points="343.445,386.247 344.885,386.247 344.755,417.967 343.576,418.21 			"/>
		</g>
	</g>
	<g>
		<g>
			<polygon fill="#FFFFFF" points="294.94,354.225 296.38,354.225 296.249,383.111 295.071,383.331 			"/>
		</g>
		<g>
			<polygon fill="#FFFFFF" points="294.154,354.144 295.595,354.144 295.464,384.221 294.287,384.449 			"/>
		</g>
	</g>
	<g>
		<g>
			<polygon fill="#FFFFFF" points="294.766,385.63 296.206,385.63 296.074,414.518 294.898,414.734 			"/>
		</g>
		<g>
			<polygon fill="#FFFFFF" points="293.981,385.549 295.421,385.549 295.29,415.624 294.112,415.854 			"/>
		</g>
	</g>
	<g>
		<g>
			<polygon fill="#FFFFFF" points="216.076,354.395 217.517,354.395 217.386,382.033 216.208,382.245 			"/>
		</g>
		<g>
			<polygon fill="#FFFFFF" points="215.292,354.316 216.732,354.316 216.6,383.094 215.422,383.311 			"/>
		</g>
	</g>
	<g>
		<g>
			<polygon fill="#FFFFFF" points="215.553,384.754 216.994,384.754 216.862,412.395 215.685,412.603 			"/>
		</g>
		<g>
			<polygon fill="#FFFFFF" points="214.769,384.676 216.208,384.676 216.076,413.452 214.899,413.67 			"/>
		</g>
	</g>
	<g>
		<polygon fill="#FFFFFF" points="224.41,270.211 480.364,247.703 482.457,282.247 224.41,296.903 		"/>
	</g>
	<g>
		<g>
			<g>
				<g>
					<path fill="#FFFFFF" d="M503.204,415.068c2.467-9.025,10.348-13.942,17.611-10.98c7.256,2.96,11.137,12.673,8.669,21.699
						c-2.466,9.021-10.348,13.936-17.608,10.978C504.621,433.8,500.737,424.09,503.204,415.068z"/>
				</g>
				<g>
					<path fill="#01050A" d="M516.196,438.217c-1.56,0-3.105-0.305-4.592-0.912c-7.519-3.072-11.573-13.109-9.04-22.378
						c2.009-7.352,7.606-12.292,13.927-12.292c1.561,0,3.108,0.307,4.597,0.916c7.517,3.065,11.571,13.105,9.036,22.376
						C528.115,433.279,522.517,438.217,516.196,438.217z M516.491,403.819c-5.702,0-10.785,4.578-12.647,11.39
						c-2.389,8.742,1.336,18.171,8.305,21.016c1.315,0.536,2.676,0.807,4.047,0.807c5.703,0,10.785-4.576,12.648-11.386
						c2.391-8.748-1.332-18.175-8.301-21.018C519.227,404.092,517.863,403.819,516.491,403.819z"/>
				</g>
			</g>
			<g>
				<g>
					<path fill="#01050A" d="M508.075,431.449c0.124-0.831,0.745-1.373,1.389-1.215c0.644,0.16,1.067,0.954,0.943,1.788
						c-0.125,0.829-0.748,1.375-1.394,1.217C508.369,433.08,507.952,432.284,508.075,431.449z"/>
				</g>
			</g>
			<g>
				<g>
					<path fill="#01050A" d="M503.728,424.889c0.132-0.829,0.747-1.377,1.393-1.215c0.643,0.156,1.067,0.956,0.942,1.785
						c-0.125,0.833-0.751,1.377-1.395,1.219C504.024,426.519,503.608,425.72,503.728,424.889z"/>
				</g>
			</g>
			<g>
				<g>
					<path fill="#01050A" d="M503.932,416.299c0.127-0.831,0.746-1.375,1.395-1.219c0.645,0.156,1.059,0.958,0.936,1.788
						c-0.119,0.831-0.742,1.379-1.391,1.217C504.23,417.929,503.807,417.126,503.932,416.299z"/>
				</g>
			</g>
			<g>
				<g>
					<path fill="#01050A" d="M507.903,408.656c0.127-0.829,0.749-1.373,1.39-1.219c0.646,0.16,1.065,0.961,0.94,1.794
						c-0.126,0.827-0.745,1.369-1.393,1.213C508.2,410.29,507.779,409.489,507.903,408.656z"/>
				</g>
			</g>
			<g>
				<g>
					<path fill="#01050A" d="M515.105,405.827c0.126-0.831,0.744-1.377,1.393-1.217c0.641,0.158,1.062,0.958,0.935,1.788
						c-0.124,0.831-0.747,1.375-1.39,1.217C515.401,407.452,514.977,406.658,515.105,405.827z"/>
				</g>
			</g>
			<g>
				<g>
					<path fill="#01050A" d="M521.764,408.633c0.125-0.831,0.749-1.373,1.398-1.217c0.643,0.158,1.057,0.956,0.932,1.792
						c-0.121,0.825-0.747,1.375-1.388,1.217C522.061,410.265,521.641,409.464,521.764,408.633z"/>
				</g>
			</g>
			<g>
				<g>
					<path fill="#01050A" d="M525.717,415.428c0.125-0.831,0.749-1.377,1.393-1.219c0.644,0.158,1.064,0.957,0.939,1.792
						c-0.124,0.827-0.746,1.377-1.388,1.215C526.014,417.057,525.593,416.259,525.717,415.428z"/>
				</g>
			</g>
			<g>
				<g>
					<path fill="#01050A" d="M525.79,423.617c0.123-0.827,0.747-1.373,1.39-1.217c0.651,0.158,1.062,0.961,0.939,1.789
						c-0.124,0.829-0.743,1.377-1.388,1.217C526.086,425.251,525.664,424.45,525.79,423.617z"/>
				</g>
			</g>
			<g>
				<g>
					<path fill="#01050A" d="M521.644,430.862c0.126-0.833,0.749-1.377,1.392-1.219c0.639,0.158,1.066,0.957,0.938,1.79
						c-0.126,0.829-0.75,1.379-1.394,1.219C521.94,432.492,521.519,431.689,521.644,430.862z"/>
				</g>
			</g>
			<g>
				<g>
					<path fill="#01050A" d="M514.624,433.574c0.127-0.829,0.749-1.373,1.393-1.217c0.641,0.156,1.064,0.958,0.94,1.788
						c-0.122,0.829-0.748,1.375-1.394,1.219C514.924,435.206,514.502,434.403,514.624,433.574z"/>
				</g>
			</g>
		</g>
		<g>
			<g>
				<g>
					<path fill="#01050A" d="M516.584,431.6c-0.642,0-1.291-0.079-1.929-0.235c-5.089-1.248-8.491-7.158-7.585-13.17
						c0.779-5.183,4.577-8.946,9.031-8.946c0.644,0,1.294,0.079,1.932,0.237c5.08,1.245,8.484,7.156,7.585,13.172
						C524.838,427.839,521.039,431.6,516.584,431.6z M516.101,409.843c-4.12,0-7.643,3.547-8.378,8.432
						c-0.863,5.731,2.324,11.348,7.105,12.519c0.581,0.143,1.172,0.214,1.756,0.214c4.121,0,7.645-3.547,8.381-8.428
						c0.855-5.735-2.332-11.352-7.106-12.521C517.278,409.915,516.687,409.843,516.101,409.843z"/>
				</g>
			</g>
			<g>
				<g>
					<path fill="#01050A" d="M511.469,419.452c0.525-3.498,3.12-5.804,5.795-5.144c2.678,0.655,4.419,4.022,3.893,7.516
						c-0.528,3.494-3.12,5.797-5.793,5.142C512.685,426.311,510.942,422.946,511.469,419.452z"/>
				</g>
			</g>
			<g>
				<g>
					<path fill="#01050A" d="M512.622,428.302c0.085-0.564,0.558-0.93,1.05-0.807c0.489,0.119,0.822,0.678,0.733,1.244
						c-0.086,0.572-0.553,0.936-1.043,0.813C512.869,429.431,512.54,428.873,512.622,428.302z"/>
				</g>
			</g>
			<g>
				<g>
					<path fill="#01050A" d="M509.606,425.227c0.084-0.566,0.552-0.93,1.042-0.807c0.495,0.117,0.823,0.675,0.739,1.242
						c-0.088,0.57-0.557,0.932-1.044,0.811C509.85,426.353,509.518,425.795,509.606,425.227z"/>
				</g>
			</g>
			<g>
				<g>
					<path fill="#01050A" d="M508.47,421.178c0.087-0.57,0.558-0.932,1.052-0.813c0.486,0.121,0.821,0.681,0.734,1.248
						c-0.086,0.57-0.55,0.928-1.049,0.807C508.713,422.303,508.391,421.747,508.47,421.178z"/>
				</g>
			</g>
			<g>
				<g>
					<path fill="#01050A" d="M509.044,416.192c0.088-0.568,0.552-0.936,1.049-0.813c0.491,0.119,0.818,0.677,0.733,1.248
						c-0.087,0.568-0.553,0.93-1.042,0.811C509.287,417.316,508.959,416.758,509.044,416.192z"/>
				</g>
			</g>
			<g>
				<g>
					<path fill="#01050A" d="M512.735,412.5c0.078-0.57,0.546-0.934,1.04-0.813c0.491,0.119,0.82,0.683,0.737,1.245
						c-0.089,0.57-0.555,0.936-1.048,0.811C512.973,413.622,512.642,413.068,512.735,412.5z"/>
				</g>
			</g>
			<g>
				<g>
					<path fill="#01050A" d="M517.563,412.002c0.085-0.57,0.555-0.932,1.048-0.813c0.493,0.123,0.822,0.68,0.738,1.248
						c-0.089,0.568-0.558,0.932-1.049,0.811C517.812,413.127,517.481,412.566,517.563,412.002z"/>
				</g>
			</g>
			<g>
				<g>
					<path fill="#01050A" d="M521.089,415.982c0.086-0.568,0.552-0.93,1.043-0.807c0.495,0.115,0.825,0.673,0.736,1.246
						c-0.085,0.564-0.552,0.926-1.044,0.809C521.333,417.108,521.003,416.552,521.089,415.982z"/>
				</g>
			</g>
			<g>
				<g>
					<path fill="#01050A" d="M522.526,420.105c0.085-0.566,0.555-0.926,1.048-0.807c0.493,0.117,0.822,0.68,0.737,1.244
						c-0.085,0.572-0.557,0.934-1.049,0.815C522.771,421.233,522.443,420.673,522.526,420.105z"/>
				</g>
			</g>
			<g>
				<g>
					<path fill="#01050A" d="M521.392,425.287c0.085-0.568,0.555-0.936,1.047-0.813c0.487,0.119,0.821,0.68,0.739,1.25
						c-0.091,0.564-0.555,0.928-1.049,0.809C521.637,426.414,521.305,425.854,521.392,425.287z"/>
				</g>
			</g>
			<g>
				<g>
					<path fill="#01050A" d="M517.699,428.563c0.091-0.566,0.557-0.93,1.048-0.809c0.492,0.121,0.821,0.68,0.738,1.246
						c-0.088,0.57-0.557,0.932-1.044,0.811C517.946,429.691,517.618,429.133,517.699,428.563z"/>
				</g>
			</g>
		</g>
	</g>
	<g>
		<path fill="#FFFFFF" d="M508.66,336.817c-1.733,0-2.212-0.518-2.212-1.966v-4.798c0-1.446-0.503-1.581,1.233-1.581v-1.211
			c-1.736,0-3.153,0.164-3.153,1.802v6.232c0,2.699,0.599,2.665,4.101,2.665L508.66,336.817z"/>
	</g>
	<g>
		<path fill="#FFFFFF" d="M478.356,336.271c1.728-0.129,2.169-0.679,2.06-2.123l-0.357-4.786c-0.107-1.44,0.384-1.614-1.347-1.484
			l-0.089-1.205c1.73-0.129,3.154-0.069,3.276,1.559l0.464,6.218c0.2,2.689-0.4,2.699-3.892,2.96L478.356,336.271z"/>
	</g>
</g>
</svg>
