<?xml version="1.0" encoding="utf-8"?>
<!-- Generator: Adobe Illustrator 17.0.0, SVG Export Plug-In . SVG Version: 6.00 Build 0)  -->
<!DOCTYPE svg PUBLIC "-//W3C//DTD SVG 1.1//EN" "http://www.w3.org/Graphics/SVG/1.1/DTD/svg11.dtd">
<svg version="1.1" id="Layer_1" xmlns="http://www.w3.org/2000/svg" xmlns:xlink="http://www.w3.org/1999/xlink" x="0px" y="0px"
	 width="800px" height="600px" viewBox="0 0 800 600" enable-background="new 0 0 800 600" xml:space="preserve">
<g>
	<path fill="#120E0F" d="M241.759,280.805c-0.639-2.243-0.799-4.583,1.118-6.213c1.685-1.433,4.261-1.885,6.334-2.437
		c4.208-1.119,8.324-2.58,11.404-5.432c-0.101,1.885-0.157,3.775-0.163,5.667c-0.002,0.724,1.589,1.891,2.059,2.293
		c0.123,0.105,1.601,1.35,1.602,0.838c0.058-20.329,5.883-40.147,14.598-58.381c5.813-12.161,12.601-23.884,21.934-33.675
		c17.333-18.184,40.574-30.69,65.469-34.376c0.183-0.027-1.466-1.901-1.559-1.988c-0.426-0.397-1.419-1.516-2.091-1.417
		c-11.253,1.666-22.317,5.176-32.655,10.229c1.785-5.171-0.524-12.211-4.304-15.822c-2.206-2.107-4.901-3.272-7.962-2.66
		c-3.214,0.642-5.466,2.821-5.928,6.052c-0.343,2.4,0.587,5.86-1.94,7.27c-2.539,1.073-5.093,0.862-7.596-0.222
		c-0.838-0.363-1.633-0.847-2.372-1.38c-0.22-0.159-0.433-0.328-0.645-0.5c-0.006-0.005-0.012-0.011-0.017-0.015
		c-0.368-0.335-2.282-1.422-1.594-0.059c3.419,6.774,8.74,13.094,16.37,15.117c0.633,0.168,1.286,0.279,1.949,0.342
		c-4.584,3.1-8.941,6.527-13.01,10.251c0.676-4.346-0.896-8.981-2.755-12.828c-1.402-2.901-3.163-5.724-5.212-8.218
		c-0.135-0.164-1.654-1.378-1.607-1.101c0.719,4.236,0.98,9.738-1.49,13.451c-1.852,2.785-4.865,2.379-7.73,1.903
		c-3.87-0.643-7.396,0.265-8.757,4.308c-1.68,6.046,4.675,11.338,9.795,13.022c2.454,0.807,5.07,0.82,7.524,0.189
		c-1.069,1.29-2.11,2.602-3.114,3.941c-1.947,2.597-3.702,5.342-5.368,8.137c0.061-1.685-0.141-3.37-0.62-4.958
		c-1.535-5.09-5.84-9.023-11.24-9.411c-4.398-0.316-8.809,3.092-7.239,7.851c0.865,2.619,3.244,4.768,2.082,7.683
		c-2.061,5.171-8.38,3.099-12.355,2.265c-0.365-0.077-0.42,0.342-0.3,0.582c2.155,4.292,5.532,7.707,10.115,9.314
		c3.93,1.379,8.411,0.989,12.151-0.764c0.213-0.109,0.42-0.225,0.624-0.345c-2.31,4.509-4.435,9.112-6.361,13.798
		c-0.192-1.095-0.475-2.146-0.847-3.116c-2.82-7.359-10.649-11.065-18.18-10.009c-0.441,0.062,0.277,0.883,0.362,0.978
		c2.348,2.61,7.087,4.586,7.456,8.439c0.086,4.292-3.621,6.122-7.45,5.108c-2.214-0.586-4.17-1.383-5.806,0.798
		c-3.266,4.355,0.573,10.593,4.179,13.248c4.235,3.117,10.24,3.422,14.697,0.589c-0.828,2.915-1.559,5.855-2.188,8.816
		c-1.102-2.064-2.62-3.866-4.49-5.152c-5.239-3.602-12.096-0.141-12.938,5.955c-0.079,0.574-0.091,1.152-0.067,1.729
		c-1.594-0.74-3.348-0.902-5.109-0.265c-1.947,0.704-3.381,2.65-3.457,4.711c-0.122,3.289,1.94,6.084,4.632,7.846
		c-2.566,0.986-4.725,2.88-5.655,5.586c-1.614,4.995,0.47,9.221,3.988,12.718C240.563,281.614,242.132,282.114,241.759,280.805z
		 M299.096,148.681C299.24,148.799,299.166,148.74,299.096,148.681L299.096,148.681z M300.886,151.573
		c3.309,2.1,7.363,3.223,11.04,1.636c0.03-0.013,0.047-0.034,0.07-0.051c0.028-0.009,0.059-0.012,0.086-0.026
		c2.121-1.106,2.005-3.603,2.042-5.683c0.055-3.124,0.893-5.631,3.927-6.992c2.687-1.206,5.653-1.014,7.371,1.52
		c1.584,2.336,2.209,5.474,2.283,8.249c0.174,6.551-5.619,10.641-11.627,11.272C309.199,162.219,304.116,157.081,300.886,151.573z
		 M277.127,173.592c1.439-4.276,5.151-4.879,9.138-4.179c2.833,0.497,5.506,0.526,7.349-2.032c2.303-3.196,2.264-8.192,1.731-12.18
		c0.765,1.165,1.529,2.435,2.121,3.531c2.195,4.053,3.852,8.696,3.394,13.366c-0.567,5.785-5.717,10.378-11.261,11.412
		C283.746,184.599,275.158,180.68,277.127,173.592z M265.519,209.241c-4.013-0.721-7.127-3.393-9.079-6.85
		c3.115,0.698,6.126,1.584,9.266,0.385c2.496-0.953,3.98-3.92,3.305-6.476c-0.605-2.29-2.587-4.084-2.562-6.552
		c0.022-2.098,1.322-3.837,3.18-4.696c4.5-2.081,9.883,0.759,11.604,5.114c2.463,6.235,0.252,14.585-6.005,17.792
		C272.177,209.39,268.838,209.838,265.519,209.241z M258.821,239.038c-2.608,0.436-5.365,0.041-7.7-1.198
		c-2.709-1.438-3.892-4.72-3.734-7.642c0.112-2.081,1.251-4.371,3.547-4.539c1.456-0.107,2.952,0.82,4.391,1.036
		c1.661,0.25,3.354-0.197,4.653-1.248c1.307-1.058,1.767-2.837,1.735-4.443c-0.412-4.301-4.641-6.487-7.552-9.188
		c3.554-0.411,7.197,0.035,10.247,2.034c2.976,1.95,4.336,5.645,4.691,9.037c0.193,1.838,0.096,3.727-0.28,5.538
		c-0.518,1.401-1.015,2.809-1.491,4.225C265.632,235.888,262.787,238.376,258.821,239.038z M238.479,270.05
		c1.058-3.078,4.086-5.133,7.242-5.561c1.519-0.206-0.365-2.164-1.076-2.347c-2.819-0.726-5.419-2.926-5.087-6.103
		c0.355-3.409,4.611-4.847,7.173-2.902c0.389,0.295,1.587,0.654,1.476-0.251c-0.389-3.183,0.587-6.369,3.412-8.136
		c2.176-1.361,5.28-1.502,7.245,0.299c1.835,1.682,2.958,4.236,3.505,6.774c-0.571,3.164-1.022,6.349-1.342,9.548
		c-0.714,1.228-1.613,2.357-2.634,3.347c-3.86,3.746-9.302,4.442-14.2,6.024c-1.713,0.553-3.53,1.36-4.558,2.911
		c-0.617,0.932-0.828,1.994-0.818,3.078C237.856,274.738,237.678,272.53,238.479,270.05z"/>
	<path fill="#120E0F" d="M330.926,146.3c0.024,0.038,0.041,0.074,0.069,0.114c2.202,3.191,5.701,5.229,9.639,4.531
		c4.014-0.712,6.957-3.836,9.147-7.057c1.615-2.375,3.238-4.925,5.751-6.445c3.877-2.345,8.437-0.713,12.117,1.194
		c0.619,0.321,1.465,0.008,1.164-0.8c-0.946-2.539-2.19-5.225-3.833-7.549c0.308,0.021,0.533-0.129,0.539-0.557
		c0.051-3.653,1.423-7.378,5.198-8.523c3.089-0.937,6.563,0.626,8.297,3.238c0.174,0.261,2.151,2.041,2.237,0.869
		c0.364-4.995,3.427-9.369,8.665-9.926c4.962-0.528,8.513,2.731,8.835,7.607c0.041,0.613,1.741,2.55,2.339,1.637
		c1.729-2.64,4.593-4.016,7.738-3.413c3.048,0.585,5.056,3.012,4.73,6.147c-0.05,0.485,0.431,1.098,0.977,1.523
		c-1.741,1.598-2.958,3.805-3.856,5.965c-0.038,0.076-0.063,0.157-0.069,0.243c-0.003,0.037,0.002,0.076,0.005,0.115
		c0.002,0.025,0,0.05,0.004,0.076c0.01,0.062,0.028,0.124,0.05,0.187c0.003,0.008,0.004,0.016,0.007,0.023
		c0.013,0.033,0.03,0.066,0.045,0.099c0.375,0.828,1.608,1.667,2.13,1.074c1.503-1.706,3.976-2.402,6.172-2.273
		c2.851,0.167,5.414,1.961,7.472,3.79c3.17,2.818,5.093,6.874,8.485,9.41c4.328,3.236,9.994,2.76,13.636-1.268
		c0.595-0.658,1.058-1.358,1.399-2.078c-0.492,2.561-0.069,5.352,1.094,7.899c0.986,2.159,2.467,4.155,4.22,5.898
		c-12.344-7.475-25.976-12.716-40.418-14.912c2.385-0.407,4.877-0.357,7.247-0.174c0.009,0.001,0.014-0.002,0.023-0.001
		c0.055,0.005,0.104,0.002,0.148-0.008c0.006-0.001,0.012-0.003,0.017-0.004c0.042-0.013,0.078-0.031,0.109-0.057v0
		c0.137-0.114,0.159-0.347,0.019-0.632c-0.313-0.637-0.906-1.159-1.538-1.477c-0.019-0.01-0.036-0.018-0.054-0.028
		c-0.016-0.008-0.032-0.017-0.048-0.025c-5.625-2.613-11.94-3.201-17.664-0.554c-4.932,2.281-8.604,6.593-10.644,11.566
		c-1.996,4.867-2.049,10.433,0.197,15.217c0.529,1.126,1.203,2.232,1.996,3.268c-1.644-0.822-3.421-1.216-5.126-0.87
		c3.845-8.408-0.721-18.105-7.36-23.936c-7.081-6.219-15.859-5.702-24.606-4.387c-0.563-0.084,0.449,1.234,0.492,1.28
		c0.263,0.285,0.58,0.602,0.933,0.846c0.324,0.257,0.643,0.422,0.887,0.385c3.077,0.457,6.179,2.382,8.735,4.045
		c2.096,1.364,5.482,4.079,3.711,6.966c-1.289,2.102-4.789,2.61-6.73,3.951c-0.334,0.231-0.643,0.495-0.932,0.781
		c-0.437-0.573-1.03-1.203-1.44-1.183c-18.277,0.879-35.081,9.788-48.775,21.487c-6.689,5.715-12.7,12.237-17.93,19.308
		c-4.386,5.93-7.771,12.451-10.681,19.213c-4.048,9.405-7.197,19.229-9.593,29.179c-1.69,7.014-3.57,14.781-2.89,22.057
		c0.047,0.502,0.872,1.117,1.215,1.405c0.057,0.048,1.04,0.821,1.006,0.459c-0.499-5.327,0.56-10.854,1.586-16.056
		c1.468-7.446,3.527-14.782,5.933-21.977c2.483-7.426,5.411-14.736,9.032-21.685c3.592-6.892,8.237-13.12,13.388-18.922
		c14.845-16.72,35.484-30.671,58.301-32.288c-1.002,1.389-1.614,3.106-1.825,4.738c-0.701,5.413,3.655,10.206,8.331,12.183
		c4.5,1.902,9.826,1.053,13.862-1.599c-0.158,1.443,0.091,2.921,0.813,4.18c2.119,3.696,6.834,5.095,10.555,2.999
		c1.866-1.051,3.241-2.842,3.764-4.915c0.327-1.295,0.094-2.528-0.447-3.644c2.223,1.499,4.774,2.418,7.424,2.343
		c3.798-0.107,7.349-2.475,9.457-5.591c0.726,0.617,1.565,1.097,2.476,1.327c14.71,3.712,27.972,11.506,38.762,21.995
		c10.9,10.596,19.125,23.975,24.926,38.036c6.631,16.072,10.049,33.588,10.08,50.966c0.002,1.284,0.98,2.447,1.968,3.288
		c-0.107,0.023-0.21,0.063-0.303,0.131c-2.465,1.809-4.706,4.298-5.882,7.137c-1.916,4.629,1.306,8.28,5.078,10.561
		c-3.247,1.526-5.283,4.343-5.172,8.257c0.134,4.744,3.221,9.216,6.524,12.378c0.326,0.312,1.971,1.124,1.797-0.01
		c-0.447-2.908-1.005-6.412,0.576-9.092c1.299-2.202,4.086-3.487,6.472-4.067c4.088-0.993,11.484,0.759,13.875-3.792
		c1.266-2.41,0.878-5.486-0.619-7.682c-1.533-2.249-4.453-2.906-6.964-3.236c-3.107-0.409-6.304-0.27-9.316-1.244
		c-3.416-1.104-4.195-4.32-4.024-7.587c0.01-0.185-0.052-0.389-0.159-0.59c0.817,0.346,1.696,0.514,1.694-0.328
		c-0.057-31.809-11.023-63.954-31.897-88.148c-12.818-14.857-29.467-26.181-48.367-31.541c0.957-3.496-0.203-7.068-2.771-9.803
		c-1.642-1.749-3.632-3.066-5.605-4.404c-1.613-1.094-3.716-2.2-3.061-4.452c0.735-2.528,4.013-4.427,6.325-5.251
		c0.062,0.471,0.302,1.003,0.509,1.321c0.796,1.223,2.235,2.588,3.75,2.792c30.907,4.158,57.335,22.858,75.109,47.994
		c14.996,21.207,24.372,46.722,25.906,72.696c0.11,1.865,5.442,5.71,5.278,2.94c-0.251-4.245-0.717-8.474-1.374-12.676
		c0.341,0.346,0.7,0.674,1.077,0.979c3.9,3.156,9.344,2.857,13.067,6.192c2.747,2.461,3.757,6.778,2.284,10.198
		c-0.249,0.578,1.391,2.027,1.775,1.462c2.278-3.36,4.014-7.336,4.779-11.318c0.55-2.857,0.409-5.886-0.905-8.519
		c-1.155-2.314-3.086-4.018-5.304-5.236c1.913-1.136,3.519-2.774,3.586-5.153c0.068-2.409-1.455-4.592-3.126-6.183
		c-3.206-3.054-8.997-4.47-10.591,0.55c-1.368-0.993-2.925-1.584-4.696-1.432c-2.236,0.192-4.082,2.101-4.954,4.043
		c-0.009,0.019-0.016,0.039-0.025,0.059c-0.787-2.956-1.67-5.887-2.644-8.79c0.468,0.438,0.953,0.846,1.45,1.212
		c5.162,3.807,14.638,4.26,17.302-2.8c1.189-3.151-0.819-6.309-3.032-8.397c-1.101-1.039-2.352-1.621-3.809-1.973
		c-1.741-0.421-3.674-0.284-5.317-1.068c-1.31-0.625-1.221-3.107-1.081-4.293c0.181-1.536,0.835-3.007,1.573-4.347
		c0.832-1.51,1.901-2.966,3.108-4.201c0.516-0.527-1.102-2.147-1.83-1.974c-0.803-0.073-1.585-0.038-2.344,0.094
		c1.207-1.63,1.979-3.577,2.411-5.558c0.087-0.398-1.856-2.246-2.21-2.061c-2.868,1.502-6.47,2.091-9.673,1.754
		c-0.665-0.07-1.317-0.223-1.944-0.452c-0.075-0.256-0.108-0.527-0.115-0.788c-0.057-2.072,1.604-4.111,2.821-5.613
		c0.107-0.132-0.319-0.618-0.826-1.086c1.905-2.21,2.71-4.983,0.807-7.482c-1.671-2.194-4.034-3.957-6.77-4.485
		c-1.125-0.217-2.181-0.178-3.165,0.065c0.225-0.582,0.386-1.225,0.469-1.937c0.548-4.709-3.682-10.09-8.256-11.05
		c-1.471-0.309-3.035-0.008-4.529-0.172c-0.695-0.076-1.375-0.241-2.04-0.448c-0.296-0.092-0.581-0.215-0.865-0.338
		c-0.268-0.117-0.609-0.392-0.734-0.473c-1.048-1.526-1.3-3.643-1.303-5.413c-0.003-1.623,0.226-3.319,0.703-4.875
		c0.11-0.357-2.109-2.388-2.374-2.215c-0.219,0.143-0.431,0.296-0.642,0.45c0.713-1.14,1.345-2.327,1.897-3.519
		c0.213-0.46-1.974-2.473-2.443-2.278c-3.639,1.515-7.779,2.922-11.776,2.497c-0.337-0.036-0.665-0.115-0.992-0.199
		c-0.128-0.577-0.074-1.22-0.097-1.784c-0.08-1.959-0.541-3.892-1.263-5.709c-1.17-2.942-3.416-5.452-6.039-7.186
		c-2.735-1.809-5.839-1.46-8.544,0.199c-1.702,1.147-2.879,2.631-3.592,4.29c0.395-2.74-0.84-5.506-3.462-7.305
		c2.901-4.058,0.035-9.11-4.058-11.459c-2.296-1.318-4.919-1.874-7.52-1.267c-3.017,0.704-4.954,3.321-6.048,6.06
		c-3.79-1.447-8.003-2.517-11.953-1.153c-0.571,0.197-1.1,0.456-1.598,0.758c-0.322-7.35-10.087-11.718-15.555-7.034
		c-1.586-4.255-5.472-7.342-10.231-7.735c-5.819-0.48-10.148,3.723-11.197,9.06c-2.344-2.271-5.461-3.745-8.798-3.413
		c-4.892,0.487-6.948,4.936-7.161,9.33c-2.11-2.181-4.733-3.722-8.006-3.965c-2.27-0.169-4.722,0.519-6.755,1.703
		c-1.495-3.183-4.629-5.387-8.381-4.934c-3.106,0.375-5.367,2.399-6.465,5.298c-1.088,2.875-0.165,5.787,1.581,8.103
		c-1.447,0.582-2.818,1.452-3.93,2.507c-2.806,2.661-2.233,6.404-0.331,9.414C330.833,146.169,330.879,146.234,330.926,146.3z
		 M503.972,298.917c3.099,0.425,6.371,0.249,9.373,1.21c2.682,0.859,2.286,5.011,0.818,6.802c-1.567,1.911-4.748,1.906-6.982,2.033
		c-2.658,0.151-5.361,0.214-7.85,1.257c-2.3,0.964-4.343,2.349-5.431,4.652c-0.933,1.974-0.9,4.355-0.646,6.597
		c-1.678-2.218-2.859-4.81-3.035-7.613c-0.26-4.144,2.736-6.792,6.458-7.845c0.599-0.17,0.339-0.891-0.192-1.489
		c-0.218-0.309-0.501-0.579-0.803-0.705c-2.318-0.96-5.056-2.193-5.81-4.806c-0.484-1.68,0.316-3.599,1.172-5.013
		c0.754-1.246,1.728-2.417,2.809-3.458C494.903,295.235,498.785,298.206,503.972,298.917z M370.181,175.302
		c-2.672-0.585-4.347-1.987-5.175-4.584c-0.787-2.468-0.254-5.215,1.061-7.39c1.613-2.668,4.311-3.486,6.938-4.813
		c3.098-1.565,2.721-4.203,1.245-6.928c-1.587-2.929-5.026-5.091-7.786-6.757c-0.991-0.598-2.033-1.211-3.113-1.77
		c5.498-0.71,11.228-0.937,16.218,1.731c3.592,1.921,6.018,5.729,7.608,9.359c1.549,3.538,1.527,7.688,0.369,11.33
		C385.23,172.766,377.63,176.933,370.181,175.302z M393.595,180.984c-2.493,1.404-6.467,1.168-7.187-2.059
		c-0.526-2.356,0.642-4.875,2.39-6.414c2.368-2.086,5.418-1.386,7.723,0.34C398.996,175.54,396.092,179.577,393.595,180.984z
		 M403.37,149.105c0.519,2.703,3.661,4.661,5.74,6.071c2.723,1.846,5.449,3.57,6.072,7.04c0.301,1.676,0.048,3.306-0.59,4.8
		c-0.853-0.12-0.876,0.605-0.677,1.308c-2.023,3.309-5.931,5.694-9.582,5.928c-6.164,0.394-10.067-5.831-10.756-11.212
		c-0.848-6.623,2.437-13.445,7.351-17.741c3.489-3.05,7.709-4.469,12.015-4.461c-1.504,0.255-2.975,0.677-4.374,1.335
		C406.101,143.333,402.779,146.031,403.37,149.105z M463.61,163.532c3.354,1.25,7.032,1.425,10.48,0.319
		c1.773-0.569,3.35-1.479,4.755-2.614c-1.294,2.445-1.96,5.211-1.792,7.971c0.304,3.205,1.674,6.335,3.659,9.058
		C475.435,172.879,469.711,167.93,463.61,163.532z M488.459,186.865c-1.203-1.454-2.437-2.883-3.699-4.287
		c1.211,1.008,2.501,1.883,3.824,2.585c2.588,1.373,6.097,2.002,9.073,1.385c-1.47,2.344-1.91,5.038-1.723,7.853
		c0.064,0.968,0.2,1.915,0.39,2.844C493.843,193.67,491.221,190.202,488.459,186.865z M510.109,221.483
		c-1.874-4.126-3.935-8.167-6.165-12.109c0.546,0.417,1.11,0.817,1.703,1.186c2.74,1.703,6.022,2.316,9.092,1.741
		c-2.02,2.28-3.519,5.115-4.296,7.696C510.295,220.485,510.187,220.982,510.109,221.483z M522.077,243.392
		c1.906-1.704,4.534-1.539,6.346,0.172c0.24,0.226,0.462,0.353,0.651,0.405c0.31,0.136,0.574,0.134,0.632-0.129
		c0.938-4.207,5.07-4.445,8.01-1.919c1.363,1.171,2.318,2.883,2.177,4.716c-0.186,2.415-2.402,3.979-4.399,4.919
		c-0.813,0.383,0.716,1.572,1.075,1.71c2.938,1.133,5.192,3.005,5.969,6.143c0.635,2.563,0.199,5.29-0.499,7.79
		c-0.467,1.675-1.103,3.341-1.869,4.944c-0.149-0.842-0.387-1.661-0.696-2.423c-1.802-4.44-5.977-6.923-10.348-8.187
		c-2.136-0.618-4.266-1.312-6.1-2.606c-0.796-0.561-1.437-1.261-1.952-2.048c-0.479-2.792-1.044-5.571-1.693-8.331
		C519.693,246.588,520.593,244.719,522.077,243.392z M520.246,222.243c1.8,2.912,5.356,2.988,8.345,3.514
		c4.139,0.728,4.968,5.55,2.766,8.568c-2.301,3.154-6.582,3.819-10.154,3.023c-2.873-0.641-5.041-2.389-6.552-4.691
		c-0.698-1.935-1.434-3.857-2.211-5.763c-0.859-5.874,2.287-11.659,7.154-15.188c0.692-0.502,1.444-0.915,2.234-1.218
		C519.356,213.969,517.887,218.428,520.246,222.243z M510.323,184.905c2.986,1.248,1.252,5.472-0.444,7.371
		c-0.101,0.113,0.325,0.609,0.83,1.088c-1.386,1.716-3.171,4.052-2.593,6.386c0.396,1.6,2.427,3.196,3.856,3.834
		c2.526,1.129,5.878,0.967,8.813,0.16c-1.616,3.319-4.458,5.807-8.332,6.544c-2.343,0.446-4.777,0.054-6.966-0.836
		c-0.844-0.343-1.58-0.784-2.235-1.303c-1.348-2.335-2.759-4.632-4.226-6.891c-1.705-5.438-1.311-11.922,3.444-15.667
		C504.688,183.845,507.818,183.858,510.323,184.905z M495.104,171.454c1.49,0.002,2.739-0.02,4.113,0.631
		c0.169,0.08,0.345,0.235,0.451,0.335c0.135,0.192,0.262,0.389,0.382,0.591c0.358,0.606,0.61,1.269,0.816,1.939
		c0.765,2.482,0.288,5.261-1.431,7.224c-2.319,2.649-6.565,2.859-9.738,2.112c-4.352-1.024-7.259-4.183-9.032-8.143
		c-0.667-1.492-1.084-3.096-1.239-4.721c-0.246-4.053,1.3-8.126,4.004-11.162c0.007,1.142,0.139,2.277,0.417,3.355
		C485.12,168.547,490.325,171.447,495.104,171.454z M470.009,152.273C469.276,152.047,469.598,151.843,470.009,152.273
		L470.009,152.273z M456.695,140.122c3.022-1.853,6.956-2.2,8.968,1.169c0.934,1.566,1.439,3.367,1.759,5.148
		c0.261,1.455-0.133,3.362,0.659,4.666c2.79,4.594,8.017,4.26,12.711,2.876c-1.814,2.774-4.127,5.173-7.131,6.748
		c-3.429,1.798-7.411,1.957-11.087,0.903c-4.622-1.325-8.141-4.598-9.715-9.163C451.277,147.882,452.626,142.865,456.695,140.122z
		 M419.031,129.323c3.674-1.588,8.047-0.222,11.539,1.18c0.366,0.147,0.922,0.274,1.096-0.212c1.632-4.572,5.733-7.578,10.543-5.474
		c3.818,1.67,5.174,5.911,2.106,9.007c-0.627,0.633,0.602,1.75,1.102,1.971c4.967,2.194,2.932,7.511-0.58,10.118
		c-1.877,1.393-4.35,1.948-6.623,1.423c-3.67-0.847-5.561-4.866-7.838-7.466c-3.447-3.936-8.385-8.143-13.989-7.737
		c-0.355,0.026-0.717,0.076-1.08,0.148C416.285,131.03,417.495,129.987,419.031,129.323z M333.729,138.383
		c1.143-1.018,2.644-1.778,4.108-2.221c0.862-0.261,0.008-1.497-0.307-1.806c-3.9-3.831-1.467-10.253,3.708-11.148
		c1.861-0.322,3.569,0.174,4.547,1.829c0.287,0.486,0.49,1.004,0.659,1.54c0.054,0.173,0.253,1.121,0.18,0.659
		c0.137,0.854,1.412,2.362,2.36,1.595c1.555-1.258,3.888-2.179,6-2.377c5.564-0.519,8.801,4.526,10.751,9.143
		c-2.909-1.309-6.142-2.218-9.286-1.524c-2.858,0.631-5.015,2.514-6.777,4.767c-2.124,2.716-3.676,5.686-6.469,7.84
		c-3.384,2.61-7.769,2.776-10.364-0.819C331.207,143.167,331.291,140.554,333.729,138.383z"/>
	<path fill="#120E0F" d="M539.505,349.695c2.511-3.158,3.749-6.456,1.828-10.28c-1.079-2.147-2.593-4.129-4.193-5.934
		c-0.212-0.428-0.72-0.858-1.125-1.191c-0.357-0.338-0.738-0.655-1.146-0.898c-0.172-0.103-0.231-0.1-0.228-0.043
		c-0.022,0.002-0.031,0.016-0.022,0.048c0.648,2.23,0.332,4.061-0.559,5.601c-0.119-3.935-0.83-7.841-2.593-11.4
		c-1.949-3.934-5.191-7.228-8.975-9.426c-3.764-2.186-8.516-3.895-12.921-3.351c-4.869,0.601-8.836,3.88-10.546,8.431
		c-1.866,5.766,4.237,13.208,10.283,11.687c2.089-0.526,3.876-1.976,5.854-2.803c1.935-0.809,4.041-1.197,6.134-1.128
		c5.265,0.173,8.371,4.285,10.43,8.682c0.073,0.155,0.512,0.62,0.99,1.045c-2.187,2.221-5.574,3.727-8.335,5.005
		c-1.924,0.89-3.603,2.176-4.983,3.728c0.688-3.964,1.242-7.95,1.641-11.95c0.181-1.812-4.561-5.075-4.716-3.519
		c-1.837,18.398-6.774,36.574-13.744,53.673c-3.277,8.04-7.133,15.879-11.793,23.212c-4.124,6.49-9.074,12.508-14.249,18.182
		c-14.156,15.519-32.129,28.125-53.111,31.466c1.598-1.694,2.995-3.509,4.119-5.279c0.182-0.287-2.2-2.575-2.561-2.388
		c-1.487,0.769-3.023,1.451-4.577,2.071c-1.203,0.48-2.433,0.894-3.694,1.189c-0.621,0.145-1.264,0.238-1.902,0.223
		c-0.176-0.004-0.347-0.037-0.517-0.075c-2.276-3.141-1.897-7.43-1.259-11.013c0.334-1.875-0.249-3.717-1.345-5.233
		c-2.452-3.389-6.368-5.871-10.623-5.724c-0.963,0.033-1.843,0.212-2.64,0.513c1.038-3.764-1.111-8.049-4.242-10.121
		c-1.351-0.894-1.61,0.167-1.051,1.05c-0.071-0.031-0.143-0.061-0.216-0.085c-3.433-1.15-6.739-0.011-7.875,3.589
		c-0.801,2.54-0.111,5.333,1.515,7.372c-2.541-2.245-5.71-3.655-9.214-3.301c-3.477,0.351-6.355,2.389-7.711,5.623
		c-0.021,0.049-0.038,0.098-0.058,0.147c-0.679-0.588-1.451-1.054-2.206-1.128c-13.575-1.338-25.977-6.899-36.414-15.473
		c-4.833-3.971-9.35-8.852-13.473-14.067c-4.105-5.192-7.74-10.898-10.958-16.717c-9.284-16.783-15.875-35.706-18.097-54.802
		c-0.145-1.247-1.587-2.535-2.697-3.285c0.025-0.395,0.03-0.797,0.004-1.211c-0.432-6.91-7.487-11.931-13.613-13.443
		c-10.94-2.701-18.918,6.494-24.356,14.628c-0.38,0.3,0.119,1.13,0.784,1.717c0.002,0.002,0.004,0.004,0.007,0.006
		c0.064,0.056,0.129,0.109,0.196,0.16c0.018,0.014,0.035,0.028,0.053,0.042c0.039,0.029,0.078,0.055,0.118,0.082
		c0.514,0.354,1.036,0.517,1.233,0.223c3.595-2.841,7.902-5.369,12.414-6.322c1.357-0.287,2.807-0.35,4.144,0.061
		c0.196,0.06,0.377,0.144,0.556,0.235c0.026,0.059,0.056,0.136,0.084,0.251c0.162,0.654,0.162,1.357,0.191,2.026
		c0.141,3.281,1.122,5.796,3.773,7.868c4.232,3.308,9.659,2.185,12.502-1.342c1.572,9.959,4.361,19.739,7.872,29.17
		c4.818,12.94,11.15,25.368,19.227,36.585c13.901,19.304,33.884,35.332,58,38.429c0.059,3.106,1.483,6.184,3.047,8.824
		c1.272,2.146,2.729,4.366,1.987,6.951c-0.537,1.869-2.257,2.933-3.969,3.579c-2.618,0.987-6.197,1.332-9.228,0.707
		c-0.853-0.284-1.706-0.569-2.559-0.853c-0.64-0.583-1.445-1-2.275-1.002c-4.871-0.013-9.795-1.699-14.298-3.598
		c-6.497-2.739-12.565-6.409-18.283-10.513c-13.402-9.62-24.06-22.02-32.316-36.237c-11.758-20.247-21.169-42.508-25.166-65.665
		c-0.235-1.363-1.181-2.503-2.444-3.078c-0.771-0.351-2.499-0.428-2.263,0.933c0.84,4.869,1.91,9.688,3.18,14.451
		c-1.201-3.118-3.521-5.838-6.003-8.239c-2.231-2.157-4.596-4.171-6.838-6.316c-1.866-1.785-3.83-3.73-4.837-6.152
		c-0.931-2.24,0.131-4.272,1.874-5.715c0.585-0.484-1.316-2.255-1.937-2.012c-3.091,1.212-6.098,3.087-8.357,5.523
		c-1.799,2.063-3.392,4.919-2.378,7.707c0.796,2.189,2.591,3.633,4.646,4.59c-3.437,1.768-5.439,5.634-3.936,9.579
		c0.78,2.048,2.826,3.633,4.872,4.245c1.47,0.44,2.964,0.36,4.409-0.005c-0.808,2.365-0.821,4.881,0.504,7.277
		c1.438,2.602,4.161,4.553,7.127,4.896c0.795,0.092,1.584,0.083,2.355-0.014c-1.571,0.405-3.043,1.142-4.27,2.264
		c-2.541,2.323-3.471,6.863-2.116,10.012c1.07,2.487,3.289,4.448,5.987,4.915c1.39,0.24,2.582-0.287,3.898-0.593
		c3.053-0.711,2.154,2.738,1.214,4.269c-2.309,3.313-5.528,4.925-9.373,3.108c-0.778-0.368-0.66,0.426-0.396,0.852
		c3.572,5.769,10.184,9.986,16.938,6.946c2.772-1.247,5.111-3.705,6.502-6.375c1.534-2.945,1.63-6.327,1.374-9.575
		c1.434,3.181,2.936,6.331,4.498,9.447c1.924,3.839,3.937,7.616,6.067,11.313c-2.801-3.09-6.797-5.178-10.859-5.71
		c-3.672-0.48-7.742,0.467-10.19,3.397c-3.227,3.863-1.848,9.52-0.117,13.69c0.14,0.339,1.812,1.749,1.831,1.438
		c0.135-2.2,0.768-4.459,2.022-6.283c1.312-1.607,4.605-3.333,6.077-0.82c0.651,1.111,0.005,2.344-0.604,3.3
		c-1.577,2.477-3.108,4.503-2.769,7.609c0.594,5.442,6.298,8.995,11.379,7.241c7.355-2.538,8.681-12.035,6.374-18.617
		c3.63,5.82,7.615,11.391,12.088,16.614c-3.724-2.191-8.189-2.917-12.391-1.173c-2.963,1.231-5.408,3.743-6.268,6.853
		c-0.845,3.051,0.791,5.955,2.965,7.981c2.534,2.362,6.055,3.466,9.12,1.532c1.761-1.111,3.009-2.971,3.213-5.045
		c0.082-0.842-0.119-1.633-0.477-2.363c1.642,2.031,2.551,4.749,2.008,7.449c-1.007,5.006-6.31,5.854-10.597,5.375
		c-0.281-0.031,0.107,0.52,0.131,0.551c4.029,5.17,11.836,6.584,16.943,2.082c4.458-3.93,4.675-10.807,2.232-15.886
		c8.037,7.843,17.196,14.607,27.111,19.884c6.943,3.695,15.004,7.187,23.015,7.208c0.829,0.002,1.102-0.562,1.083-1.193
		c0.625,0.238,1.292,0.439,1.988,0.603c0.235,0.078,0.469,0.156,0.704,0.235c4.025,3.828,9.356,5.433,14.835,4.212
		c0.242-0.054,0.48-0.119,0.719-0.183c-1.603,1.404-3.086,2.906-4.438,4.339c-0.816,0.865,1.053,2.364,1.912,2.09
		c2.89-0.919,10.026-2.565,10.38,2.122c0.161,2.131-0.184,4.291,0.531,6.359c0.397,1.151,1.199,2.013,2.074,2.815
		c0.069,0.072,0.147,0.144,0.237,0.216c0.102,0.091,0.202,0.163,0.302,0.226c1.436,1.016,3.165,1.352,4.715,0.239
		c2.371-1.702,2.334-4.493,2.425-7.128c0.244-7.023,8.226-5.046,12.894-4.618c0.879,0.081,0.537-1.14,0.22-1.495
		c-4.354-4.868-9.68-10.381-16.533-11.168c-1.916-0.22-3.762-0.01-5.53,0.509c1.248-1.264,2.345-2.667,3.249-4.153
		c1.31-2.154,2.148-4.5,2.489-6.902c0.058,0.433,0.124,0.864,0.199,1.291c1.027,5.853,5.026,10.981,10.527,13.312
		c5.934,2.515,11.964,0.201,16.839-3.735c0.01,0.012,0.022,0.028,0.03,0.037c0.754,0.875,2.04,2.059,3.304,1.927
		c7.849-0.821,15.353-2.963,22.433-6.098c-0.601,1.076-1.093,2.243-1.453,3.485c-0.451,1.554-0.669,3.174-0.64,4.785
		c-0.402-0.481-0.869-0.935-1.373-1.362c-1.829-1.548-3.769-1.987-6.018-1.075c-2.78,1.127-5.06,3.554-7.205,5.567
		c-2.226,2.09-4.484,4.368-7.281,5.685c-4.758,2.239-8.875-1.456-10.681-5.633c-0.005-0.481-1.472-1.398-1.495-1.205
		c-0.495,4.316,1.61,9.074,4.508,12.194c3.126,3.365,7.098,4.923,11.267,2.841c1.332,2.427,3.122,4.579,5.558,5.987
		c2.635,1.523,6.29,1.302,8.488-0.872c2.316-2.291,2.617-6.356,2.019-9.363c-0.543-2.733,2.15-5.106,3.177-7.472
		c0.021-0.048,0.035-0.094,0.053-0.141c0.075,0.186,0.151,0.371,0.234,0.554c1.363,3.018,4.928,5.506,7.953,6.583
		c3.528,1.256,8.04-0.025,8.685-4.146c0.238-1.522-0.125-3.104-0.256-4.62c-0.147-1.701-0.011-3.551,0.541-5.172
		c0.437-1.285,1.383-2.149,2.677-2.508c0.767-0.213,1.614-0.161,2.397-0.102c0.897,0.068,2.411,0.122,3.196,0.565
		c2.037,1.152,4.073,2.304,6.11,3.457c0.174,0.099,0.236,0.083,0.237,0.013c0.035-0.001,0.05-0.02,0.03-0.069
		c-2.589-6.302-8.329-12.393-14.928-14.505c-0.946-0.303-1.882-0.496-2.8-0.594c3.105-2.04,6.102-4.259,8.98-6.625
		c-1.155,7.821,4.662,16.516,13.293,16.688c0.726,0.014,0.224-0.824-0.002-1.107c-2.183-2.729-6.039-7.71-2.176-10.632
		c2.675-2.024,5.745,1.964,7.743,3.373c3.2,2.256,6.262,2.495,9.589,0.382c4.35-2.762,4.925-8.387,2.571-12.594
		c-0.034-0.071-0.078-0.15-0.135-0.239c-2.446-3.827-5.945-6.542-10.4-7.583c-2.562-0.598-5.318-0.606-7.964-0.068
		c3.593-3.839,6.971-7.896,10.086-12.133c-0.108,3.792,0.892,7.607,3.139,10.658c3.76,5.106,11.226,8.755,16.835,4.183
		c3.296-2.686,3.307-7.236,1.95-10.908c-0.822-2.224-2.247-4.102-3.793-5.865c-1.393-1.588-3.746-3.458-3.055-5.837
		c1.105-3.807,5.299-2.22,7.417-0.533c1.527,1.216,2.894,2.701,4.099,4.248c0.253,0.745,2.142,1.978,2.207,1.61
		c1.132-6.355-2.76-12.677-8.854-14.785c-3.286-1.137-6.768-0.515-9.859,1.094c1.956-3.728,3.755-7.54,5.417-11.414
		c1.608,8.443,10.644,17.364,19.594,13.038c0.493-0.238-1.174-1.794-1.303-1.9c-1.589-1.304-3.178-2.628-4.562-4.153
		c-0.548-0.604-1.086-1.316-1.07-2.166c0.03-1.574,2.765-2.473,3.901-2.919c2.545-1,5.114-1.893,6.964-4.018
		c2.256-2.591,2.458-6.72,1.254-9.805c-2.372-6.074-10.082-8.941-16.04-6.997c-0.738,0.241-1.424,0.563-2.065,0.948
		c0.268-0.835,0.532-1.671,0.79-2.509c0.855-2.773,1.654-5.568,2.395-8.379c1.818,5.045,6.645,9.591,11.665,10.663
		c2.929,0.626,7.116-0.047,8.918-2.654c1.492-2.159,1.153-5.239,0.146-7.507c-0.508-1.145-1.288-2.256-2.228-3.25
		c2.932,0.676,5.997,0.159,7.488-2.986C543.31,354.64,541.677,351.802,539.505,349.695z M267.222,327.695
		C267.207,327.676,267.207,327.672,267.222,327.695L267.222,327.695z M276.11,337.5c-1.821,0.248-4.248-0.387-5.277-1.997
		c-0.77-1.204-0.699-2.963-0.757-4.334c-0.122-2.837-1.445-4.676-4.081-5.796c-2.632-1.119-5.751-0.4-8.315,0.527
		c-0.782,0.283-1.558,0.611-2.325,0.966c3.454-3.931,7.623-7.129,13.003-7.841c6.654-0.881,15.197,3.542,14.84,11.095
		C283.016,333.969,279.805,336.997,276.11,337.5z M250.798,368.32c-4.907-1.448-3.413-7.805-1.394-10.933
		c0.128-0.181,0.256-0.362,0.384-0.543c0.508-0.718-1.375-2.324-2.077-1.936c-2.993,1.655-9.333,3.549-9.469-1.737
		c-0.096-3.742,2.925-6.535,6.381-7.237c0.937-0.191-1.163-1.995-1.6-2.089c-2.404-0.515-5.307-1.259-5.275-4.187
		c0.022-2.027,1.284-3.887,2.563-5.355c1.143-1.233,2.477-2.317,3.914-3.242c-0.094,2.572,1.655,5.255,3.547,7.441
		c3.903,4.507,8.966,7.887,12.73,12.516c3.952,4.861,3.032,12.644-2.288,16.033C256.121,368.384,253.215,369.033,250.798,368.32z
		 M271.56,395.054c-3.579,5.946-11.608,8.651-17.006,3.417c-0.428-0.415-0.804-0.882-1.152-1.37
		c3.672,1.165,6.919-0.283,9.251-3.628c1.852-3.015,1.014-6.296-2.22-7.905c-1.354-0.674-2.689-0.586-4.08-0.089
		c-1.507,0.538-3.537,0.416-4.5-0.997c-2.31-3.39,0.14-8.656,3.157-10.656c3.627-2.404,8.812-1.526,12.427,0.38
		c3.624,1.91,5.287,5.595,5.799,9.5C273.741,387.549,273.604,391.656,271.56,395.054z M261.888,370.596
		c-1.537-0.345-3.151-0.431-4.712-0.217c3.77-1.004,6.876-4.135,7.725-8.025c0.35-1.601,0.365-3.117,0.126-4.555
		c1.71,6.056,3.738,12.022,6.027,17.89C268.682,373.189,265.518,371.411,261.888,370.596z M288.183,420.196
		c-0.685,3.689-2.78,6.99-6.146,8.741c-2.375,1.236-6.515,1.659-7.935-1.124c-1.582-3.098-0.432-6.243,1.403-8.875
		c1.472-2.11,2.132-3.678,0.383-5.847c-2.381-2.952-6.125-4.47-8.903-1.067c-0.715,1.039-1.219,2.222-1.556,3.453
		c-0.797-4.291-0.061-8.701,4.264-11.05c4.573-2.483,11.019-1.218,14.894,2.007C288.337,409.553,289.012,415.734,288.183,420.196z
		 M307.113,447.233c-1.307,2.985-3.736,5.12-6.874,5.994c-3.128,0.871-7.171,0.341-9.533-2.034c2.569,0.248,5.212,0.108,7.478-1.248
		c2.255-1.349,3.193-4.11,3.132-6.617c-0.089-3.658-3.071-7.116-5.93-9.2c-0.118-0.102-0.223-0.174-0.315-0.225
		c-0.334-0.223-0.42-0.186-0.368-0.028c-0.063,0.12,0.064,0.415,0.461,0.804c3.242,3.174-0.077,7.96-3.588,9.056
		c-3.795,1.184-7.378-2.327-7.513-5.944c-0.116-3.112,2.15-5.816,4.574-7.469c3.12-2.127,7.111-2.499,10.654-1.358
		c1.352,0.435,2.566,1.078,3.635,1.874c1.024,1.148,2.067,2.282,3.143,3.393C308.473,437.995,308.989,442.949,307.113,447.233z
		 M392.705,463.441c5.194,0.158,9.567,4.145,13.049,7.896c-4.03-0.542-8.671-1.368-11.328,2.337c-1.148,1.6-0.979,3.848-1.007,5.709
		c-0.02,1.329-0.436,2.568-1.291,3.584c-0.433,0.514-1.834,1.514-2.555,0.94c-1.289-1.154-1.478-2.155-1.572-3.915
		c-0.135-2.535,0.233-4.846-1.465-6.948c-1.929-2.387-5.022-2.921-8.056-2.667C382.439,466.628,387.192,463.274,392.705,463.441z
		 M387.641,428.46c0.956-2.669,3.591-3.35,6.088-2.514c0.608,0.204,0.965-0.255,0.765-0.82c-0.028-0.08-0.063-0.158-0.102-0.234
		c1.842,1.737,2.158,4.705,1.327,7.038c-0.952,2.671-4.647,4.21-7.105,2.562C386.825,433.292,387.018,430.199,387.641,428.46z
		 M389.834,451.352c-2.812,9.89-15.997,18.364-25.154,12.056c3.748,0.224,7.709-0.607,10.177-2.837
		c2.48-2.24,1.784-5.772,0.417-8.389c-1.903-3.646-4.291-6.78-3.9-11.122c0.003-0.034,0.009-0.066,0.012-0.099
		c0.49-0.164,0.44-0.719,0.225-1.262c1.381-5.366,7.765-7.661,12.671-5.017c2.836,1.528,4.704,4.959,5.636,7.922
		C390.812,445.441,390.639,448.522,389.834,451.352z M387.945,435.989c0.142,0.11,0.287,0.219,0.436,0.319
		c1.68,1.126,3.687,1.427,5.482,0.985c-0.591,1.295-0.941,2.748-1.047,4.243c-0.189,1.019-0.308,2.06-0.376,3.108
		c-0.247-1.163-0.61-2.313-1.108-3.433C390.511,439.364,389.358,437.551,387.945,435.989z M405.35,463.873
		c-2.668-0.112-5.987-1.062-7.556-3.334c-1.488-2.154-2.188-4.824-2.565-7.38c-0.442-3.004-0.406-6.239,0.148-9.233
		c0.334-4.741,2.985-8.774,7.989-9.219c1.977-0.176,4.055,0.344,5.763,1.336c0.094,0.056,0.185,0.117,0.277,0.178
		c0.276,0.378,0.492,0.79,0.68,1.219c0.435,0.996,0.534,2.087,0.427,3.159c-0.346,3.47-0.945,6.586,0.411,9.941
		c0.901,2.228,3.113,4.848,5.27,5.935c1.335,0.673,3.172,0.194,4.749-0.374C416.795,460.558,411.288,464.121,405.35,463.873z
		 M442.19,471.797c-0.698,1.131-1.493,2.217-1.963,3.47c-0.471,1.255,0.124,2.633,0.201,3.917c0.2,3.378-1.053,7.44-4.513,8.667
		c-1.615,0.573-3.426,0.479-5.007-0.126c-2.364-0.905-3.67-3.419-4.658-5.59c-0.127-0.279-1.074-1.412-1.445-1.193
		c-3.88,2.292-8.002,1.54-10.641-2.166c-1.679-2.358-2.842-5.441-2.9-8.413c1.718,2.665,4.235,5.032,7.146,5.908
		c5.971,1.797,11.112-5.119,14.978-8.526c1.962-1.729,4.451-3.836,7.241-3.628c1.717,0.127,3.024,1.611,3.189,3.266
		C443.974,468.951,442.975,470.524,442.19,471.797z M469.192,456.034c2.25,1.855,3.943,4.435,5.082,7.108
		c-3.676-2.126-7.595-4.947-12.08-3.703c-2.583,0.716-2.903,3.864-3.003,6.096c-0.169,3.811,1.532,7.653-2.489,10.043
		c-1.918,1.14-4.355,0.76-6.309-0.039c-2.469-1.009-3.429-2.792-3.947-5.284c-0.816-3.924,0.203-8.168,2.222-11.566
		c2.052-3.452,5.682-5.922,9.68-6.364C462.252,451.895,466.232,453.594,469.192,456.034z M487.781,433.531
		c4.061,0.347,7.311,2.413,9.479,5.804c2.878,4.848-0.023,11.104-5.365,12.553c-3.639,0.987-6.466-2.639-9.113-4.475
		c-1.059-0.735-2.409-1.491-3.75-1.321c-1.699,0.216-3.076,1.633-3.514,3.238c-0.835,3.062,1.594,6.518,3.588,9.047
		c-4.672-0.468-7.922-3.746-9.024-8.375c-0.804-3.376-0.131-6.759,1.633-9.586c1.755-1.566,3.476-3.18,5.156-4.843
		C480.152,433.788,484.115,433.218,487.781,433.531z M515.166,406.367c1.896,2.197,2.404,5.285,2.097,8.115
		c-2.185-2.552-4.791-4.953-7.728-6.35c-2.141-1.018-4.287-0.971-5.733,1.09c-1.919,2.736,1.523,6.001,3.191,7.839
		c2.891,3.185,5.062,7.412,3.793,11.792c-0.933,3.221-3.921,5.257-7.136,5.649c-8.668,1.058-11.572-8.244-10.637-15.157
		c0.293-2.168,0.993-4.234,2.02-6.111c0.402-0.623,0.795-1.251,1.185-1.881c2.375-3.305,5.845-5.812,9.886-6.908
		C509.018,403.657,513.06,403.926,515.166,406.367z M517.511,375.672c2.9-0.946,6.663-0.662,9.261,0.971
		c2.826,1.775,2.406,6.747,1.274,9.335c-1.188,2.715-3.956,4.111-6.571,5.119c-1.622,0.625-3.537,1.187-4.819,2.426
		c-1.161,1.122-0.434,2.738,0.306,3.868c1.424,2.176,3.418,3.998,5.441,5.69c-2.688,1.063-5.666,0.862-8.279-0.406
		c-3.451-1.675-5.019-5.589-5.497-9.184C507.931,386.884,510.499,377.96,517.511,375.672z M515.754,327.069
		c-1.865,0.38-3.643,1.171-5.306,2.076c-1.971,1.074-3.895,2.186-6.22,1.673c-2.84-0.626-3.673-5.016-2.896-7.416
		c1.526-4.062,4.681-6.972,8.89-8.067c3.789-0.985,7.806,0.133,11.291,1.676c7.36,3.258,9.895,10.593,10.159,18.061
		C528.058,329.737,522.606,325.673,515.754,327.069z M538.385,356.594c-1.878,2.222-4.849,2.178-7.405,1.305
		c-0.651-0.359-1.316-0.655-1.978-0.867c-0.278-0.089,0.407,0.725,0.424,0.744c0.523,0.566,1.146,1.236,1.837,1.602
		c0.592,0.314,1.225,0.592,1.877,0.821c0.026,0.015,0.052,0.032,0.078,0.047c-0.169-0.07,0.322,0.386,0.438,0.563
		c0.22,0.337,0.383,0.71,0.546,1.076c0.577,1.3,0.769,2.751,0.656,4.16c-0.238,2.943-2.167,4.463-4.832,5.27
		c-3.248,0.983-7.717,0.314-9.841-2.55c-1.959-2.641-2.588-5.756-2.303-8.976c0.271-3.065,1.275-6.046,2.996-8.599
		c1.833-2.718,4.518-4.304,7.432-5.626c4.532-2.055,9.802-5.042,9.2-10.43c0.603,0.903,1.159,1.847,1.584,2.756
		c1.668,3.568-0.145,6.887-2.426,9.665c-0.253,0.308,1.87,2.024,2.114,2.189c0.035,0.024,0.062,0.041,0.092,0.06
		c0.018,0.046,0.055,0.115,0.122,0.218c0.194,0.295,0.324,0.636,0.453,0.963c0.279,0.711,0.36,1.481,0.332,2.238
		C539.735,354.475,539.182,355.651,538.385,356.594z"/>
	<path fill="#120E0F" d="M415.621,482.918c-0.525,3.003-2.254,5.43-5.087,6.637c-3.286,1.399-7.645,0.463-9.665-2.555
		c-0.115-0.173-1.409-1.278-1.418-1.217c-0.574,3.994-3.376,6.877-7.29,7.747c-1.806,0.402-3.711,0.228-5.453-0.363
		c-2.452-0.831-3.627-2.841-4.089-5.28c-0.046-0.246-1.364-1.47-1.467-1.313c-1.744,2.664-4.539,3.984-7.709,3.629
		c-3.679-0.412-5.998-3.201-5.615-6.875c0.004-0.038-0.002-0.077-0.013-0.117c3.657-3.198,4.892-8.636,4.672-13.285
		c-0.025-0.535-1.896-2.669-2.266-1.902c-1.835,3.797-4.619,7.496-9.044,8.183c-5.128,0.796-9.541-3.505-12.543-7.088
		c-2.734-3.84-9.681-9.585-13.841-4.57c-0.221,0.266-0.405,0.54-0.569,0.819c-0.105-1.558-0.533-3.117-1.083-4.526
		c-2.492-6.374-8.738-11.675-15.526-12.66c-2.954-0.429-6.452,0.047-8.627,2.262c-2.9,3.274-3.655,7.145-2.066,11.215
		c0.822,2.106,2.24,4.056,3.846,5.639c0.058,0.057,1.149,0.899,1.097,0.563c-0.429-2.75-0.048-5.718,2.307-7.495
		c0.747-0.564,1.663-0.86,2.593-0.872c0.267-0.003,0.554,0.032,0.819,0.112c0.007,0.019,0.014,0.036,0.021,0.057
		c0.093,0.275,0.111,0.571,0.124,0.858c0.062,1.386-0.719,2.731-0.863,4.113c-0.166,1.594,0.316,3.286,1.151,4.638
		c1.529,2.477,4.015,4.467,6.888,5.07c3.399,0.714,6.844-1.453,8.427-4.372c0.084-0.156,0.16-0.314,0.232-0.474
		c0.202,1.097,0.651,2.18,1.262,3.178c0.568,0.928,1.876,2.195,1.955,3.308c0.078,1.112-0.298,2.3-0.499,3.383
		c-0.506,2.724-0.426,5.258,1.023,7.679c1.401,2.342,4.04,3.945,6.659,4.502c5.142,1.093,9.917-2.388,10.675-7.435
		c3.858,1.906,8.132,2.452,11.845,0.105c0.58,2.775,2.732,5.015,5.28,6.396c3.463,1.877,7.607,1.128,10.122-1.724
		c1.544,3.34,4.902,5.782,8.59,6.184c4.925,0.537,9.409-2.62,10.358-7.428c2.007,2.228,4.687,3.812,7.764,3.904
		c4.37,0.131,7.761-3.087,8.491-7.264C417.176,483.773,415.597,483.052,415.621,482.918z M317.528,459.475
		C317.357,459.311,317.418,459.246,317.528,459.475L317.528,459.475z M331.699,467.944c-1.419,3.382-5.285,5.339-8.82,4.596
		c-2.248-0.472-3.537-2.151-4.048-4.299c-0.444-1.866,0.274-3.402,0.616-5.184c0.386-2.014-0.702-3.648-2.403-4.69
		c-1.512-0.927-3.251-0.651-4.672,0.321c-2.113,1.445-2.636,4.189-2.474,6.582c-0.598-0.919-1.091-1.906-1.459-2.938
		c-1.32-3.705-0.194-7.342,2.347-10.21c2.404-2.45,6.152-2.635,9.346-2.079c4.512,0.785,8.105,3.676,10.336,7.595
		C332.222,460.717,333.115,464.571,331.699,467.944z M353.318,481.873c-0.189-0.105-0.907-0.463-0.953,0.009
		c-0.429,4.373-3.685,7.365-8.043,7.616c-2.117,0.122-4.47-0.65-5.476-2.626c-1.048-2.055-0.446-4.668-0.031-6.807
		c0.296-1.53,0.497-2.797-0.316-4.185c-1.165-1.991-2.842-3.714-2.761-6.173c0.086-2.656,2.42-5.041,5.08-4.865
		c2.496,0.166,4.773,2.166,6.131,4.128c0.093,0.134,0.202,0.273,0.323,0.408c3.528,4.217,8.316,8.775,14.115,9.103
		c3.339,0.189,6.016-1.471,8.065-3.811c-0.651,2.271-1.764,4.388-3.462,6.133C362.499,484.388,357.448,484.172,353.318,481.873z"/>
	<path fill="#120E0F" d="M361.907,172.907c1.665-0.359-2.583-5.608-4.551-5.184c-14.399,3.107-27.667,9.951-38.51,19.925
		c-10.331,9.502-18.119,21.51-23.768,34.294c-8.009,18.123-12.004,38.126-12.031,57.919c-0.002,1.455,1.536,2.847,2.586,3.646
		c0.296,0.225,2.901,1.918,2.903,0.532c0.037-27.045,7.304-55.153,23.091-77.359C323.784,189.582,341.318,177.349,361.907,172.907z"
		/>
	<path fill="#120E0F" d="M417.698,440.404c15.143-4.282,28.949-12.283,40.409-23.044c11.451-10.753,20.266-24.088,26.666-38.379
		c6.861-15.317,10.796-31.904,12.08-48.616c0.088-1.145-0.824-2.158-1.702-2.781c-0.378-0.268-2.265-1.234-2.352-0.093
		c-2.445,31.83-14.732,63.736-38.089,86.065c-11.314,10.817-25.096,18.744-40.16,23.003
		C412.82,437.048,416.051,440.869,417.698,440.404z"/>
	<path fill="#120E0F" d="M267.054,287.362c-3.427,1.971-8.206-1.308-10.827-3.256c-3.091-2.298-6.251-5.247-8.22-8.596
		c-0.177-0.3-2.139-2.103-2.132-1.638c0.087,6.133,4.036,11.797,8.194,15.994c4.624,4.668,10.783,8.62,17.539,8.746
		c3.378,0.063,6.55-1.058,8.98-3.408c2.617-2.531,3.929-6.194,3.771-9.795c-0.155-3.519-2.13-6.813-4.647-9.176
		c-2.554-2.398-6.12-4.796-9.795-3.906c-0.01,0.003-0.014,0.013-0.02,0.019c-0.026,0.003-0.053,0.002-0.078,0.01
		c-2.996,0.974-6.237,4.68-4.241,7.91c0.859,1.39,2.223,2.249,2.71,3.879C268.678,285.46,268.237,286.681,267.054,287.362z
		 M269.815,284.366c-0.426-0.773-0.993-1.445-1.576-2.102c-0.935-1.055-1.247-1.927-0.919-3.334
		c0.512-2.196,2.524-3.866,4.577-4.554c3.379-0.798,6.739,1.144,8.581,3.916c1.774,2.672,2.079,6.129,1.306,9.18
		c-0.705,2.782-2.486,5.188-4.72,6.937c-2.169,1.697-5.114,2.19-7.805,2.14c-9.693-0.18-19.938-9.509-21.087-19.297
		c1.856,2.305,4.049,4.37,6.254,6.286c3.164,2.748,7.055,5.746,11.339,6.271c1.591,0.195,3.622,0.009,4.529-1.5
		C271.023,287.096,270.43,285.481,269.815,284.366z"/>
	<path fill="#120E0F" d="M288.327,330.117c2.956-2.829,4.811-6.71,4.699-10.839c-0.117-4.32-2.87-7.943-6.035-10.764
		c2.321-0.665,4.126-2.25,4.984-4.582c1.534-4.17-0.593-8.948-2.604-12.547c-0.211-0.378-2.473-2.438-2.507-1.985
		c-0.509,6.956-6.158,12.003-12.944,12.502c-3.684,0.18-8.035-0.638-11.362,1.369c-3.997,2.412,0.681,7.407,3.116,8.77
		c3.749,2.098,8.546,1.725,12.665,2.44c1.06,0.184,2.105,0.445,3.1,0.859c0.29,0.121,1.095,0.772,0.646,0.286
		c0.621,0.672,1.277,1.225,1.816,1.979c2.024,2.835,2.746,6.778,1.875,10.134C285.633,328.291,287.951,330.476,288.327,330.117z
		 M287.605,321.813c-0.615-1.422-1.401-2.76-2.394-3.952c-0.917-1.101-2.011-2.102-2.699-2.769
		c-3.21-3.113-7.832-3.261-12.024-3.715c-2.036-0.221-4.15-0.452-6.05-1.261c-0.112-0.049-0.22-0.105-0.329-0.16
		c-0.199-0.384-0.289-0.815-0.358-1.238c-0.161-0.986,0.076-1.856,0.751-2.585c1.42-1.534,4.145-1.65,6.072-1.761
		c1.895-0.109,3.792,0.046,5.684-0.047c4.671-0.343,8.738-2.403,11.163-6.494c0.679-1.146,1.231-2.445,1.591-3.78
		c0.85,2.437,1.214,5.016,0.413,7.502c-0.784,2.434-2.961,4.198-5.431,4.701c-0.501,0.102,1.415,1.871,1.616,2.023
		c5.444,4.102,5.891,10.82,2.817,16.103C288.24,323.504,287.965,322.644,287.605,321.813z"/>
	<path fill="#120E0F" d="M238.533,313.266c3.247,3.554,7.206,7.49,11.992,8.785c4.466,1.209,8.728-1.798,9.311-6.316
		c0.416-3.219-1.093-6.461-3.588-8.444c2.118-1.092,3.645-3.074,3.974-5.557c0.444-3.356-1.677-6.234-4.404-7.918
		c-3.62-2.235-8.193-1.571-11.594,0.623c-4.413,2.848-7.655,7.144-11.877,10.229c-0.363,0.266-0.072,0.912,0.434,1.459
		C234.531,308.631,236.475,311.013,238.533,313.266z M254.37,295.209c2.576,0.603,3.642,2.645,3.205,5.189
		c-0.464,2.699-2.687,4.571-5.262,5.165c-1.179,0.272,0.987,2.278,1.476,2.398c3.547,0.876,4.114,4.996,2.956,8.007
		c-1.452,3.778-5.839,4.606-9.15,2.962c-3.487-1.732-6.332-4.855-8.842-7.757c-1.226-1.417-2.617-3.164-3.645-4.584
		c3.075-2.328,5.694-5.235,8.62-7.74C246.846,296.18,250.14,294.218,254.37,295.209z"/>
	<path fill="#120E0F" d="M370.954,132.521c1.985,0.44,3.704,1.25,5.07,2.783c1.12,1.257,2.03,2.694,3.081,4.008
		c2.603,3.256,6.397,6.167,10.647,6.615c9.256,0.977,12.158-12.652,21.077-12.598c1.051,0.006,0.109-1.367-0.245-1.661
		c-2.242-1.862-4.74-3.151-7.707-3.167c-2.372-0.013-4.578,0.882-6.784,1.635c-0.502,0.171-1.03,0.354-1.565,0.399
		c-0.01-0.059-0.02-0.119-0.03-0.178c-0.14-0.808-0.154-1.619-0.339-2.424c-0.523-2.277-2.178-4.414-4.456-5.12
		c-1.883-0.584-3.674,0.466-4.632,2.064c-0.699,1.165-0.843,2.486-0.882,3.814c-0.009,0.311-0.023,2.443-0.728,2.276
		c-0.923-0.219-1.805-0.887-2.674-1.263c-1.27-0.549-2.574-0.886-3.959-0.937c-2.45-0.09-5.262,0.446-7.533,1.417
		c-0.183,0.001-0.272,0.1-0.302,0.241C368.687,131.072,370.141,132.611,370.954,132.521z M378.267,131.071
		c2.33-0.042,3.998,1.401,6.094,2.082c2.1,0.682,2.195-1.767,2.238-3.22c0.061-2.071,1.059-4.9,3.542-4.974
		c2.175-0.065,1.79,3.745,2.215,5.169c0.473,1.584,2.183,2.871,3.839,2.709c1.804-0.177,3.525-1.102,5.261-1.584
		c1.94-0.539,3.907-0.587,5.705,0.037c-3.205,0.783-5.671,3.209-7.998,5.615c-2.933,3.031-6.223,6.94-10.852,6.72
		c-4.51-0.215-7.396-4.328-9.839-7.58c-1.413-1.881-3.047-3.329-4.962-4.362C375.074,131.289,376.712,131.099,378.267,131.071z"/>
	<path fill="#120E0F" d="M545.314,303.814c-2.173-2.701-4.611-5.227-7.179-7.55c-2.688-2.431-6.911-6.215-10.953-6.06
		c0.915-0.541,1.785-1.154,2.587-1.858c5.301-4.931,6.051-12.955,3.495-19.482c-0.178-0.455-2.482-2.503-2.542-1.964
		c-0.45,4.052-1.718,8.538-4.834,11.376c-1.186,1.08-2.68,1.551-4.259,1.297c-1.805-0.29-2.417-1.733-3.231-3.163
		c-2.42-4.254-6.221-10.036-11.421-9.616c-1.7-18.274-6.775-36.119-15.27-52.407c-3.504-6.716-7.563-13.387-12.373-19.258
		c-5.224-6.378-11.22-12.096-17.593-17.313c-12.972-10.619-28.892-20.343-45.866-22.265c-0.886-0.1,0.679,1.791,1.314,1.863
		c17.766,2.012,34.231,12.604,47.467,24.064c6.148,5.323,11.797,11.191,16.516,17.823c4.721,6.636,8.722,13.766,12.097,21.174
		c6.511,14.293,10.379,29.749,11.772,45.376c0.031,0.344,0.45,0.777,0.895,1.109c-0.529,0.124-1.069,0.308-1.625,0.569
		c-5.857,2.754-8.661,9.535-5.937,15.45c2.273,4.937,7.641,8.179,12.738,9.413c3.639,0.881,7.639,0.84,11.325-0.183
		c-1.929,1.576-3.249,3.882-3.26,6.431c-0.011,2.615,1.705,4.479,3.882,5.501c-1.917,1.28-3.149,3.274-2.896,5.817
		c0.297,2.986,2.685,5.445,5.283,6.686c3.702,1.769,8.092,0.166,11.304-1.893c3.763-2.413,6.728-6.118,8.981-9.928
		C545.927,304.49,545.499,304.044,545.314,303.814z M510.492,290.268c-2.688-0.391-5.574-1.301-7.736-3.002
		c-1.954-1.537-2.748-4.182-2.848-6.572c-0.15-3.571,1.446-6.442,4.039-8.787c2.22-2.007,6.565-4.314,9.179-1.6
		c2.107,2.188,3.12,5.308,4.968,7.711c1.78,2.316,4.938,4.659,7.999,3.931c3.067-0.729,4.902-3.749,5.979-6.975
		c-0.206,4.115-1.775,8.112-4.863,10.984C522.672,289.941,516.348,291.12,510.492,290.268z M527.348,315.416
		c-2.874,0.088-5.01-1.544-5.153-4.458c-0.144-2.944,2.171-5.033,4.754-5.91c0.767-0.26-1.189-1.948-1.736-1.959
		c-1.284-0.024-3.176-0.09-3.714-1.484c-0.443-1.147-0.242-2.452,0.108-3.592c0.86-2.799,3.409-4.988,6.191-5.705
		c3.901-0.911,7.931,2.984,10.512,5.384c1.868,1.737,3.635,3.613,5.269,5.579C540.113,309.025,534.512,315.197,527.348,315.416z"/>
	<path fill="#120E0F" d="M300.618,404.471c5.29,8.414,11.143,16.437,18.219,23.445c7.816,7.741,17.092,13.933,27.328,17.977
		c8.299,3.279,17.063,5.004,25.889,6.1c1.309,0.163,0.258-1.634-0.548-1.733c-13.032-1.619-25.716-4.823-37.049-11.676
		c-16.473-9.961-27.923-25.985-37.242-42.467c-5.355-9.47-9.72-19.44-13.079-29.785c-2.654-8.177-4.625-16.546-6.891-24.833
		c-0.212-0.774-2.113-1.69-1.768-0.426c3.627,13.26,6.837,26.533,12.287,39.208C291.378,388.684,295.752,396.731,300.618,404.471z"
		/>
	<path fill="#120E0F" d="M415.384,452.11c16.207-2.302,30.883-11.398,43.405-21.515c5.877-4.748,11.403-9.955,16.479-15.552
		c4.506-4.969,8.211-10.271,11.611-16.049c11.382-19.345,18.496-40.586,20.399-62.971c0.072-0.844-1.934-2.19-2.038-0.964
		c-1.59,18.704-6.876,36.705-15.361,53.437c-3.646,7.189-7.675,14.323-12.77,20.596c-4.413,5.434-9.389,10.42-14.598,15.088
		c-13.418,12.023-30.009,23.376-48.232,25.964C413.064,450.317,414.544,452.229,415.384,452.11z"/>
</g>
</svg>
