<?xml version="1.0" encoding="utf-8"?>
<!-- Generator: Adobe Illustrator 17.0.0, SVG Export Plug-In . SVG Version: 6.00 Build 0)  -->
<!DOCTYPE svg PUBLIC "-//W3C//DTD SVG 1.1//EN" "http://www.w3.org/Graphics/SVG/1.1/DTD/svg11.dtd">
<svg version="1.1" id="Layer_1" xmlns="http://www.w3.org/2000/svg" xmlns:xlink="http://www.w3.org/1999/xlink" x="0px" y="0px"
	 width="800px" height="600px" viewBox="0 0 800 600" enable-background="new 0 0 800 600" xml:space="preserve">
<g>
	<g>
		<path fill="#333333" d="M577.894,361.297c0-0.532,0-1.062,0-1.062c0-0.532,0-1.064,0-1.064c-1.064-2.657-2.127-3.72-4.784-4.249
			c-1.061-1.595-2.656-3.188-3.718-4.783c-0.532,0-0.532-0.53-0.532-1.062c-1.064-1.595-3.188-2.656-5.313-3.72h-0.532
			c2.657,2.656,5.845,5.844,7.438,9.565c-0.529,0-1.061,0-1.593,0c-1.064-1.064-2.125-2.127-3.188-3.188
			c-3.718-7.438-9.031-14.346-14.875-20.191c-6.377-5.313-12.751-11.156-19.127-16.469c-8.501-7.97-16.471-15.939-24.972-23.379l0,0
			c0,0,0-0.53,0-1.062c-3.718-2.657-6.906-5.313-10.626-8.501c-4.249-3.72-8.499-6.906-12.751-10.626c0,0,0,0,0.532,0
			s1.064,0,1.593,0c-0.529-0.531-1.061-1.063-1.593-1.063c-15.939-16.469-35.598-25.502-57.912-27.627l0,0c-2.656,0-5.313,0-7.438,0
			c-6.377-0.532-12.753,0-18.596,1.062c2.125,0.532,4.249,0.532,6.374,0.532c-2.125,0-4.249,0-6.906,0.531
			c-7.438,0.532-14.878,1.064-22.316,1.593c1.595-1.062,2.657-1.593,3.72-2.657c-3.72,0.532-7.438,1.063-11.158,1.063
			c-16.471-0.531-32.942-0.531-48.881-1.063c0-2.125,0-4.25-0.529-6.375c-1.064-12.221-7.44-18.596-19.127-19.659
			c-0.532,0.531-1.596,1.063-2.657,1.063c-1.596,1.062-3.188,2.125-4.781,3.188c-7.44,5.843-10.097,13.812-7.44,22.845
			c-1.593,0.532-3.186,1.593-5.313,2.657c-7.438-0.531-15.407-0.531-23.377-1.063c-1.593,0.532-4.249,1.063-6.906,1.063
			c-3.72,0-7.97,0.532-11.69,1.064c-3.718,0.53-6.906,1.062-10.094,1.593c2.125-1.063,4.781-2.125,7.97-2.657
			c0-0.531,0-0.531-0.532-0.531c-1.061-0.532-2.657-1.062-4.249-1.593c-5.845,1.062-10.626,3.718-14.878,7.438
			c-4.249,2.657-7.438,6.377-10.094,11.69c-9.031,18.064-12.219,36.659-10.626,56.848l0,0c-0.532,17.534,0,34.535,3.188,52.069
			h0.532c0,2.657,0,5.843,0,9.031c0,0,0,0.531,0,1.063c-3.188-5.845-4.252-12.221-4.252-19.659c0,0.531,0,0.531-0.529,0.531
			c-1.595,14.346,2.657,23.909,13.283,29.754c-1.595,0.532-1.064,1.062,0.529,2.657c1.596,1.062,3.188,2.125,4.784,2.125
			c0,0.532,0,0.532,0,1.064c0.529,0,0.529,0.53,1.061,1.062c10.094,3.188,21.252,5.313,31.878,7.438c0,2.657,0,6.376,0,9.033
			c0,3.188,0,6.377,0,9.563c0.532,0.532,1.595,1.063,1.595,1.595c0.529,1.062,1.061,2.125,1.593,3.188
			c0.532,0.53,1.064,0.53,1.064,1.062c5.313,0.531,10.094,0.531,14.875,0c4.781,1.595,9.562,1.063,14.875-1.593
			c9.565-3.72,15.41-10.094,18.596-18.596c57.914,2.125,115.826,2.657,174.269,1.593c1.593,0,2.656,0,4.249,0
			c0.532,4.251,2.657,7.97,6.909,11.689c3.186,2.657,6.374,4.781,10.094,5.845c14.875,4.781,26.033,0.53,34.003-13.283
			c0.532-1.595,1.064-2.657,1.593-4.783c0,1.063,0,1.595,0,2.127c0.532,0,0.532-0.532,0-1.064c0,0,0-0.531,0-1.063
			c1.596,0.532,2.657,0.532,4.784,1.063c0.529,0,1.061,0,2.125,0c3.188,0.532,6.374,0.532,10.094,1.064c0,0,0,0,0.532,0
			c5.845,0,12.219,0,18.064-1.064c0-0.531,0-0.531-0.532-0.531c-1.061-0.532-2.657-0.532-3.718-0.532
			c2.657-1.062,4.249-2.656,5.313-5.313c-2.127,0.532-4.252,1.595-5.845,2.127c1.593-1.595,2.656-3.188,3.718-4.783
			c1.596-1.593,2.656-3.186,3.72-4.781c-1.064,1.595-2.125,3.72-3.72,5.313c6.377-4.25,11.158-10.095,13.283-17.001
			c0.532-0.532,1.064-1.595,2.127-1.595c0.529-1.062,1.061-1.593,1.593-2.657c0.532-1.062,0.532-2.125,0.532-3.188
			c0-0.53-0.532-0.53-1.064-0.53c0-0.532-1.061-1.064-1.593-1.595c0-0.532,0-1.062,0-1.593c0-4.251-0.532-7.97-1.064-11.158
			c0,0,0,0,0.532,0.532c0-0.532,0-0.532-0.532-1.063l0,0c-0.532-1.593-1.061-3.188-1.593-4.25v-0.532
			C577.894,361.297,577.894,361.297,577.894,361.297z M304.801,234.315c1.064,0.532,1.064,1.064,1.064,1.064
			c0,2.657,0.532,5.313,2.125,7.97c-1.061-0.532-2.125-0.532-3.188-0.532c-5.313,0-10.094,0-14.344,1.062c0,0,0-0.53,0-1.062
			c0.532,0,0.532-0.532,0.532-1.063c0.529,0,1.061-0.532,1.593-1.062c0,0,0.532,0,0.532-0.532c0,0,0-0.532-0.532-1.063
			c0,0,0-0.532-0.532-1.062c-0.532,0-0.532-0.532-0.532-1.064c1.595-1.593,2.656-3.72,3.72-5.313
			c0.532-1.063,1.064-2.125,1.593-2.657c1.596,0,3.188,0,5.313,0c0,0,0,0,0,0.532c0,0,0,0.532,0,1.062
			C303.74,231.659,304.801,232.723,304.801,234.315z M319.148,248.13v-0.532c0.532,0,0.532-0.531,1.064-1.063
			c0.529,0,0.529,0,0.529-0.53c11.158,0.53,22.848,1.062,34.006,1.593c-1.064,0-2.657,0-3.72,0c-7.97,0-16.471-0.531-24.441-1.063
			v0.532C324.461,247.598,321.272,247.598,319.148,248.13z M314.898,243.878c-0.532-0.53-1.595-0.53-2.127-0.53
			c-0.529-1.064-1.061-2.657-1.593-3.72c-1.593-5.313-4.249-10.094-7.97-14.346c-2.125,0-4.249,0-6.377-0.53
			c0.532-0.532,1.596-0.532,1.596-0.532c9.031-1.595,14.344,2.125,15.939,10.094C315.427,238.036,315.427,241.222,314.898,243.878z
			 M309.585,245.473c0,1.062,0,1.593,0,2.125c0.529,0.532,1.061,0.532,1.593,1.064c-0.532,0-1.064,0-1.064,0.53
			c-1.593,0-2.656,0-4.249,0c-1.064-0.53-2.125-1.062-2.657-1.062c-6.906,0-13.283-0.532-19.659-0.532
			c7.44-2.125,14.346-2.657,21.252-2.125C306.397,245.473,307.458,245.473,309.585,245.473z M307.458,251.848
			c2.656,0,5.313,0,7.97,0.532c6.909,0.531,13.283,0.531,20.723,0.531c2.125,0,4.781,0,6.906,0c6.377,0,12.219,0,19.127-0.531
			c2.125,0.531,4.781,0.531,6.906,1.063c-1.061,0.532-3.188,1.062-4.249,2.125c2.125-0.531,4.249-0.531,6.374-1.063
			c1.064-0.53,1.595-0.53,2.657-0.53c0,0,0,0,0.532,0c13.814,1.593,27.629,2.657,40.38,1.593c0-0.531,0-0.531,0-0.531
			c11.69,1.063,23.909,3.188,35.598,5.313c-1.064,0-1.595,0-2.127,0.531c-6.374,1.593-12.751,4.25-18.596,8.501
			c-3.186,2.657-5.313,5.313-6.374,9.031c-5.313,14.346-5.313,29.222-0.532,44.099c0.532,0,1.593,0,2.125,0
			c11.158,10.626,24.972,13.814,41.443,10.094c-1.064-1.063-2.657-1.593-4.784-1.593c-10.626,1.062-19.125-0.532-26.565-4.783
			c9.565,1.595,19.659,2.127,29.754,2.657c5.845,0,12.222,0.532,18.064,1.063c10.626,4.25,21.784,4.25,34.006,0.532
			c0,0,1.061,0,1.593,0c2.657-0.532,5.313-0.532,7.97-0.532c3.188,0,6.377-0.531,8.501-1.593
			c6.906,5.313,13.283,10.094,19.657,15.939c3.72,3.718,7.97,6.906,12.222,10.626c-1.064,0.53-1.596,0.53-2.657,0.53
			c0-0.53,0-0.53-0.532-0.53c-0.532,0-1.064-0.532-1.593-1.064c-1.595,0-3.72,0-5.845,0c-0.532,0-1.596,1.064-1.596,1.064
			c-1.061,0-1.593,0-2.656,0c-2.125,0.53-4.249,2.125-6.374,4.249c-6.377,8.501-7.438,17.003-3.72,26.565
			c0.532,0.532,1.064,0.532,1.595,1.064c0.529,0,0.529,0,0.529,0c1.596,4.781,6.377,7.97,14.346,8.499c0,0,0.532-0.53,1.064-0.53
			c0-1.064,0-1.595,0-2.127c3.186,1.063,6.374,1.063,10.094,0c-2.125,4.783-4.781,9.033-7.97,13.283
			c-0.532,0.532-1.064,1.063-1.596,1.595c-3.186,0-5.842,1.062-9.031,1.593c1.593,0,3.188,0,4.781,0.531
			c-2.125,1.593-4.781,2.125-7.97,2.656c-3.72-0.531-6.906-1.063-10.626-1.063c-0.532,0-1.064,0-1.593-0.53
			c-0.532,0.53-0.532,0.53-0.532,0.53c-1.064,0-2.125,0-3.188,0c0-0.53,0-1.062,0-1.062c-1.064-2.657-1.593-5.313-2.657-7.438
			c-1.593-4.251-3.72-7.44-6.906-10.626c5.842,2.657,10.626,5.843,15.939,9.562c3.718,1.593,4.781,1.593,4.781-0.531
			c-0.532,0-1.064,0-1.064-0.532c-7.97-3.718-14.875-7.97-21.784-12.751c-1.061,0-2.125,0-3.186,0
			c-4.252-3.188-9.565-4.782-15.939-5.845c-0.532,0-0.532,0-1.064,0.532c-3.188-2.125-5.845-3.718-9.033-5.313l-0.529,0.531
			c2.125,1.593,4.781,3.72,6.906,5.845c0,0-0.532,0-1.593,0.532c-2.657,1.062-5.313,3.186-7.97,4.781
			c-4.784-2.657-9.565-5.313-14.878-7.438h-0.532c3.72,3.718,8.501,6.375,13.814,8.499c-5.313,4.251-7.97,9.565-9.031,16.471
			c-4.784-2.125-9.565-4.782-14.878-7.438h-0.532c4.252,3.72,10.097,6.377,15.41,8.501c0,1.062,0,1.593,0,2.657
			c0,0.532,0,0.532,0.529,1.062c-0.529,0-0.529,0.532,0,1.063c-2.125-0.531-4.249-0.531-5.842-1.063
			c-8.501-2.657-15.939-6.906-22.848-12.219c-1.593,0-1.593,0-0.532,1.064c5.845,5.313,12.753,9.031,20.191,11.156
			c-6.909-0.53-14.346-1.062-21.784-1.062h-5.313c-0.532,0-1.064,0-1.593,0c-10.626-3.72-21.784-7.438-32.41-12.751
			c-2.125,0-2.656,0-0.532,1.062c3.72,1.595,6.906,3.72,10.094,5.313c3.72,2.657,7.438,4.781,11.69,6.376
			c-5.845-0.532-11.158-0.532-16.471-0.532c-11.158-4.249-21.784-7.97-32.942-11.157h-0.529c4.781,3.72,11.155,6.908,18.596,9.565
			c0.529,0.53,2.125,1.062,3.186,1.062c-5.842,0-11.155,0-17-0.532c-10.094-2.657-20.191-5.313-30.285-8.499h-0.532
			c3.72,3.718,8.501,5.843,15.939,7.438c1.064,0.532,1.596,0.532,2.657,1.062c-3.186-0.53-6.906-0.53-10.626-0.53
			c-6.906-1.595-13.812-4.251-21.252-7.44c-1.061-0.53-1.061-0.53-1.061,0c5.313,3.188,10.094,5.845,15.407,7.44
			c-2.656-0.532-5.313-0.532-7.438,0c0-0.532,0-0.532-0.532-0.532c-7.438-2.125-14.346-4.781-21.252-8.501l0,0
			c5.313,4.782,12.219,7.97,20.188,9.033c-1.061,0-2.656,0-4.781,0v0.53c-3.188,0-6.374,0-10.094,0c0.532,0,0.532,0,1.064,0
			c0,0,0,0,0.529-0.53c-1.061-0.532-1.593-1.595-2.657-1.595c-8.499-3.718-16.468-7.438-24.438-11.688c-2.127,0-3.188,0-4.784-0.532
			v0.532c-1.061-0.532-1.061,0-0.529,0c0.529,1.593,2.657,2.657,4.781,3.186c0.532,0.532,1.061,0.532,1.061,0.532
			c7.44,3.188,14.878,6.376,21.252,10.094c-4.781,0-9.031,0-13.812,0c20.72,1.595,41.441,2.657,63.225,2.657
			c-24.972,0-49.413,0-74.383,0l0,0c-0.532,0-0.532,0-1.064,0c0,0,0,0-0.532,0c0.532-1.062,0.532-1.593,1.064-2.657
			c0.532-2.125,0.532-3.718-1.064-5.843c-5.313-12.753-14.875-20.191-28.69-21.252c-0.532-0.532-0.532-0.532-1.061-1.064
			c-6.377-3.188-12.753-6.376-19.127-10.094h-0.532c4.781,5.313,11.158,9.031,19.127,11.158c-3.188-0.532-5.845-0.532-9.033,0l0,0
			c-2.657,1.062-5.313,3.186-6.906,5.843c-5.845-3.186-11.158-7.438-14.878-13.283c-0.529,0-0.529,0-1.061,0
			c0,0-0.532,0-1.064,0.532v0.531c3.72,6.906,9.033,11.69,15.407,13.814c-1.061,1.593-1.593,3.188-2.125,5.313
			c-6.906-3.188-12.751-7.97-17-14.346l-1.064,0.531c4.249,7.438,10.094,12.219,18.064,14.346c-0.532,0.53-0.532,1.062-0.532,1.593
			c-0.529,1.064-0.529,2.657-1.593,3.72c0,1.062,0,1.593,0,2.125s0,0.532,0,0.532c-10.094-6.377-20.72-13.814-30.815-21.252h-0.532
			c0,2.125,1.061,3.718,2.657,4.781c2.657,2.125,4.781,4.25,7.438,6.375c6.377,5.845,13.283,9.565,20.72,12.221l0,0
			c-6.374-1.595-13.283-3.188-19.657-4.781c-3.72-2.657-7.44-5.313-11.158-7.44c-0.532-0.53-0.532-1.062-1.064-1.062
			c-1.593-2.125-4.249-3.72-6.374-5.313c-0.532,0-0.532,0-1.064,0c0,0-0.532,0-1.064,0.532v0.53c0,0.532,1.064,1.063,1.596,1.595
			c3.188,2.657,6.906,5.845,10.626,8.501c-2.657-1.064-4.781-2.127-6.377-2.657c-5.313-3.188-9.562-6.908-12.219-11.158
			c0.532,0.532,1.061,0,2.125,0c0-0.532,0-1.063,0-1.063c0.532-19.657,0.532-38.253,0-57.38c1.064-17.002,2.125-34.003,3.188-50.474
			c0,0.532,0,0.532,0,1.062c0.532-1.062,1.061-1.593,1.061-2.656c3.188-7.438,7.44-12.751,12.753-17.001c0,0.532,0,0.532,0,0.532
			c0.529,0,1.061,0,1.593,0c0-0.532,0-1.064,0-1.064c0.532-0.531,0.532-0.531,0.532-1.063c9.031-2.125,17.532-3.186,27.097-3.718
			c1.061,0,2.657,0,3.718,0C270.798,251.848,288.862,251.848,307.458,251.848z M417.439,251.848c3.72,0,7.438,0,11.158,0
			c11.687,1.063,22.845,3.72,33.471,8.501l0.532,0.531c1.593,1.064,3.72,2.657,5.313,4.25c0,0-0.532,0-1.064,0c0,0,0,0-0.529,0.532
			c-0.532,0-0.532,0.531-0.532,1.063c-2.657-0.532-6.377,0-9.033,0c-0.532,0-1.061,0-2.125-0.532
			c-3.188,0.532-6.377,1.064-9.562,1.593c0.529,0,1.593-0.53,2.125-1.062c-0.532,0-0.532,0-1.064,0.532
			c-1.061,0.53-1.593,0.53-2.657,1.062c-1.593,0.531-3.718,1.063-5.313,1.063c6.377-4.251,14.878-5.313,24.44-4.251
			c0-0.53,0-0.53-0.532-1.062c-2.657-2.125-6.374-3.72-10.626-3.72h-0.532C439.755,256.631,429.129,253.443,417.439,251.848z
			 M429.658,247.598c-4.781,0-9.562-0.531-14.344,0c1.593-0.531,3.718-0.531,5.845-1.063
			C423.816,247.067,427.001,247.598,429.658,247.598z M434.442,274.163c-1.595,1.064-3.72,2.125-4.784,3.72
			c1.064-1.064,2.127-2.657,3.188-3.72C432.846,274.163,433.378,274.163,434.442,274.163z M425.408,286.383
			c0.532-0.53,0.532-1.062,0.532-1.062c3.188-4.781,6.906-9.033,11.158-12.221c11.155-2.125,22.313-2.657,33.471-1.593
			c5.313,0,9.033,2.657,12.219,6.377c0,0,0.532,0,0.532-0.532c2.125,2.125,4.252,4.25,6.909,5.845
			c4.249,4.249,9.031,8.499,14.344,13.283c6.377,5.313,13.283,11.156,19.659,16.469c2.656,3.188,5.313,5.845,8.501,8.501
			c-1.064,0-1.596,0.531-2.127,1.063c-1.061-1.063-2.656-2.125-3.718-3.188c-0.532,1.064,0,2.125,1.061,3.72
			c-1.061,0-2.657,1.062-3.718,1.062c-3.72,0-7.438,0-11.158,0.531c0.532-0.531,1.064-1.593,2.125-2.125
			c-0.532,0-1.061-0.532-1.593-1.063c-0.532,0-0.532,0-0.532,0c-26.565,2.657-52.599,3.72-78.632,3.72
			c-3.188-1.595-5.845-3.72-8.501-6.908c0-5.843-0.532-11.688-0.532-18.064c0-4.25,0-9.031,0-13.283
			C425.408,286.383,425.408,286.383,425.408,286.383z M535.389,325.169c-0.532,0-0.532,0-0.532,0
			c-1.064-1.063-2.125-1.595-3.188-2.125c0-0.532,1.064-1.064,1.593-1.595c3.188,3.188,6.377,6.376,9.565,9.033
			c-2.657-1.595-4.781-2.656-6.377-4.251C535.919,325.701,535.389,325.169,535.389,325.169z M504.572,385.206
			c0.532,0,1.064,0,1.064,0h-0.532H504.572z M499.791,385.737c0.532,0,0.532,0,1.064,0c0,0,0,0,0.529,0.532
			c-0.529,0-0.529,0-0.529,0c-1.064,0-1.595,0-2.657,0.532c-0.532,0.53-0.532,0.53-1.064,0.53c0.532,0,1.064,0,1.593,0
			c-1.061,0.532-2.125,0.532-3.718,1.595c-1.064,0.532-2.125,1.062-3.188,2.125c-0.532-0.531-1.064-0.531-1.064-1.063
			C492.885,388.394,496.071,386.801,499.791,385.737z M500.323,391.05c2.125-0.531,4.249-1.063,6.374-1.063
			c2.657,1.595,4.784,2.657,6.909,4.251c2.657,1.593,5.313,3.188,7.97,4.781c1.061,3.72,2.125,6.906,2.657,10.626
			c0,0.532,0,0.532,0,1.064c0,0,0,0-0.532,0v0.53c-0.532,0-0.532,0-0.532,0.532c0,0.531,0,0.531,0,0.531s1.064,0,1.064,0.532
			c0.532,1.062,0.532,2.125,0.532,3.188c-3.188,6.375-9.565,10.094-20.191,10.626l0,0c-0.532-0.532-0.532-0.532-1.061-0.532
			c-0.532,0.532-0.532,0.532-0.532,1.062c0,0,0,0.532,0.532,0.532c2.125,1.063,4.249,1.595,5.842,1.595
			c0,0.53-1.061,0.53-1.061,0.53c-3.188,0.532-6.377,0-9.033-1.062c-1.593,0-2.656-1.063-3.718-1.063c1.061,0,2.125,0,3.718,0
			c-7.438-2.125-12.219-6.906-13.283-13.814c0.532,0,1.064,0,1.064,0c0.532,0,0.532,0,1.061-0.53
			c-1.061-0.532-1.593-0.532-2.125-0.532c-0.532-0.532-0.532-1.063-0.532-1.595c0-1.062,0-2.125,0.532-2.657
			c0.532-1.593,1.064-3.186,1.064-4.25c5.313-9.033,13.814-12.751,26.565-10.094c-0.532-0.532-1.064-0.532-1.596-1.063
			C508.292,391.582,504.04,391.05,500.323,391.05z M482.788,399.02c1.596-3.188,3.72-5.844,6.909-7.97c0.532,0,1.061,0,1.061,0.532
			c-1.593,1.062-2.657,2.125-3.718,3.718l0,0c-1.596,1.063-3.188,2.127-4.252,3.188C482.788,398.488,482.788,398.488,482.788,399.02
			z M486.508,421.335c-1.064-1.595-1.064-3.188-1.593-4.783c0.529,1.063,1.593,2.657,2.125,3.72c0.532,1.593,1.593,2.657,2.657,3.72
			C488.101,422.928,487.04,422.397,486.508,421.335z M571.517,362.892c0.532,0,1.064,0,1.593-0.532
			c1.064,5.845,1.064,11.158,0,17.001c-3.718,0.532-7.438,1.063-11.155,2.127c-4.252-0.532-7.97-0.532-12.222-1.064
			c-0.532,0-0.532-0.531-0.532-1.063c-0.529-1.062-1.061-2.125-1.061-3.186c0,0,0-0.532,0-1.064c0-1.063,0-2.657,0-3.72
			c0-0.53,0-1.062,0-1.062C554.514,363.954,561.955,361.297,571.517,362.892z M543.888,369.798c0.532-1.063,0.532-2.125,1.064-3.188
			c0,0,0,0.531-0.532,1.063C544.42,368.205,543.888,368.735,543.888,369.798z M543.359,374.048c0,0,0,1.063,0,1.595v-0.532V374.048z
			 M565.672,384.144c2.125-0.532,4.781-1.064,6.377-2.127c0.532,0,0.532,0,0.532,0.532c0,1.063,0,2.125-0.532,3.72
			c-4.252,1.062-9.033,1.593-13.814,1.062c0-0.53,0-0.53,0-1.062c-0.532,0-1.593,0-2.125-0.532c0.532-0.531,1.061-1.063,1.593-1.593
			C560.359,384.144,563.016,384.144,565.672,384.144z M515.198,391.582c-1.061-0.532-2.125-1.063-3.188-1.595
			C513.074,390.519,514.137,391.05,515.198,391.582z M555.578,392.114c-1.064,0-2.125-0.532-3.188-0.532
			c-2.657-1.063-4.781-2.657-5.845-4.781c0.532-0.532,1.064-0.532,2.127-0.532c2.125,2.125,4.781,3.718,6.906,5.313
			C555.578,391.582,555.578,391.582,555.578,392.114z M547.608,385.206c-1.064,0-1.593,0-2.125-0.532h1.061
			C547.077,385.206,547.077,385.206,547.608,385.206z M292.051,229.002v-0.531c0.532-1.062,1.064-2.125,2.125-3.188
			c2.127-0.53,2.657-0.53,1.596,0C294.707,226.878,293.646,227.939,292.051,229.002z M263.361,386.269c0,0-1.064,0.532-1.064,1.062
			c-1.593,0-2.657,0-4.249,0c0.532-0.53,1.064-1.062,1.593-1.062c0,0,0,0,0.532,0C261.236,386.269,262.297,386.269,263.361,386.269z
			 M257.516,390.519L257.516,390.519c-0.532,1.595-1.593,4.251-3.188,6.908c-0.529,0-0.529,0.53-1.061,1.062
			C253.798,395.3,255.391,392.643,257.516,390.519z M258.579,398.488c2.125-1.062,4.249-1.593,6.374-2.125
			c10.626-2.656,17.003,1.064,18.596,11.69c2.127,10.626-3.186,17.001-15.939,19.657c-0.529,0-0.529,0-0.529,0
			c-1.064-1.062-2.657-2.125-3.72-2.657c0-0.532,0-1.062-0.532-1.062C256.455,414.959,254.859,406.458,258.579,398.488z
			 M266.017,392.643c-2.125,1.063-3.188,1.595-4.781,2.127c1.061-1.595,2.125-3.188,2.657-4.251
			c10.626-0.532,19.127,3.72,25.502,12.221c0.532,2.125,1.064,3.718,2.125,5.843c1.064,2.657,1.064,4.251,0,6.908
			c-3.186,4.781-6.906,8.501-11.687,10.626c1.061-1.063,2.657-1.595,3.718-2.657c2.657-2.125,4.252-4.781,4.784-7.97
			C288.862,400.083,280.893,392.643,266.017,392.643z M249.546,425.585c0-2.657,0-5.313,0-7.97c2.125,3.72,4.252,6.377,7.438,9.563
			c1.595,1.595,3.188,2.656,4.784,3.72c-3.188,0-6.377-1.063-9.565-1.063c0-0.53,0-1.062,0-1.062
			c-0.532-1.063-1.061-1.595-2.125-2.125C250.078,426.117,250.078,426.117,249.546,425.585z M286.206,392.643
			c3.72,2.656,5.845,6.376,6.909,10.096c-0.532,0-0.532,0-0.532-0.532c-5.313-6.908-11.69-11.689-20.72-13.814
			c2.657,0,5.313,0,7.97-0.531C281.956,389.987,283.549,391.05,286.206,392.643z"/>
		<path fill="#333333" d="M404.688,321.449c0-1.593,0-2.657,0-3.718c0.532,0,1.061,0,1.593,0c-0.532-1.064-0.532-1.064-1.061-1.595
			c0.529,0,1.061-1.062,1.593-1.062c0,0,0.532,0,0.532-0.532c-0.532-0.532-0.532-0.532-0.532-0.532
			c-2.657-0.531-5.313-1.063-7.97-1.063c-1.064,0-2.125,0.532-3.188,1.063c-3.188-0.531-5.845-0.531-8.501-0.531
			c-0.529,0-1.061,0-2.657,0.531c-2.125,0-3.718,0-6.374,0c0,0-0.532,0-1.064,0s-0.532,0-0.532,0c-3.186,0-5.842,0-9.031,0
			c-0.532-0.531-0.532-1.063-0.532-1.593c0.532-3.188,0.532-5.845,0-8.501c0.532-6.376,0-12.221-1.064-18.596
			c1.064,0,1.596,0,2.127,0c0,0,0.529-0.532,1.061-1.063c-0.532,0-1.061-0.532-1.061-0.532c-1.064,0-2.127,0-2.127,0
			c0-0.53,0-0.53,0-1.062c-0.529,0-1.061,0-1.061,0.532v0.53c-1.596-0.53-2.657-0.53-3.72-0.53l-0.532-0.532
			c-4.781,0-10.094-0.532-14.875-1.063c-2.125,1.063-4.249,2.125-6.377,2.125c-0.529,0-1.061,0-1.061,0.532v0.531
			c3.718,0.532,7.97,0.532,11.687,0.532c-4.249,0.532-8.499,1.062-13.283,2.125c0-0.531,0-0.531,0-0.531
			c-0.529-0.532-1.061-0.532-0.529,0c-0.532,0.531-0.532,0.531,0,0.531c-1.064,0-2.127,0-3.188,0.532l0.532,0.532
			c0.529,0,1.061,0,2.125,0c-1.064,7.97-0.532,14.875,0.532,21.782c-10.097,0.532-20.191,1.595-29.754,3.188
			c1.593,0.531,3.188,0.531,4.781,1.063c-1.593,0.532-2.657,0.532-4.249,1.062c0-0.53,0-0.53,0-0.53
			c-1.064-0.532-1.064-0.532-2.127-1.064c-0.529,0-1.061,0-1.061,0.532c0,0.532,0,1.062,0,1.593l0,0l0,0
			c0,3.188-0.532,6.376-1.595,9.033v-1.063c0-3.718,0-6.375,0-9.563c0,0.532,0,0.532-0.529,0.532
			c-3.188,10.094-3.188,20.188-1.064,30.283c-0.532,0-1.064,0-1.064,0c0,0.531,0,1.063,0.532,1.063c-0.532,0-0.532,0-0.532,0.532
			c0,0.53,0,0.53,0.532,0.53c3.72,0.532,7.97,1.063,11.69,1.595c-2.125-0.532-4.781-0.532-6.909,0h-1.061
			c10.626,0,20.72,0.532,30.283,0.532c0,0.53,0,1.062,0,1.593c0,0.532,0,1.593,0,2.657c0,0.532,0,0.532,0,1.064
			c0,0.53,0,1.593,0.532,2.657c-0.532,3.718,0,6.906,0.532,10.626c0,0.53,0,0.53,0,1.062c-1.064,0.531-1.064,0.531,0,1.595
			c0.532,2.657,0.532,4.249,0.532,6.375c0,1.063,0,2.657,0.532,3.72v0.532l0,0c0,1.062,0,1.593,0.529,2.125
			c0,0.532,0.532,0.532,1.064,1.062c0,0.532,0,0.532,0,0.532c1.064,0,1.593,0,2.125,0c0,0,0-0.532,0-1.062c0,0,0,0,0-0.532
			c4.781,1.593,10.094,2.125,15.939,1.593c6.377,3.188,12.222,2.657,17.003-2.657c0,0,0-0.532,0-1.062c0,0,0,0,0-0.532
			c0.532,0,0.532,0,0.532,0.532c0.529-0.532,1.061-1.064,2.125-1.595c0-0.532,0-1.062,0-1.062c-0.532-0.532-0.532-1.064-0.532-1.595
			c-1.593-6.375-2.657-12.751-3.72-19.127c-0.529-2.125-0.529-4.25-0.529-6.375c1.593,0.532,3.718,0.532,5.842,0
			c0.532,0,0.532,0,1.064,0c8.501,0.532,17.532-0.532,26.565-2.657c0-0.532,0-0.532,0-1.063c0.532,0,0.532,0,1.064-0.532
			c0.529,0.532,0.529,1.595,0.529,2.657c0.532,0,1.064-0.53,1.064-1.062c0.532,0,0.532,0,0.532,0
			c0.532-1.063,0.532-2.125,0.532-3.188h0.529c1.064,0,2.127,0,3.72,0c0-0.531,0-0.531,0-0.531
			c-1.064-1.062-2.125-1.593-3.188-2.125c-0.532-3.188-0.532-5.844-1.593-8.501c-0.532-3.718-1.595-6.906-2.656-10.626
			c0-1.062,0-1.593,0-2.125V321.449z M390.874,317.731c3.72-0.532,6.906-0.532,10.094,0c1.064,1.593,1.595,3.718,2.125,5.843
			c-0.529,6.376,0,12.753,1.064,19.127c-1.064,0-1.593,0-2.656,0c-1.064,0-1.593,0.531-2.657,1.063c-1.593,0-3.72,1.062-5.313,1.593
			c-5.845-0.532-11.69-0.532-17.532-0.532c0,0,0,0,0.529,0c0-0.53,0-0.53-0.529-1.062c-11.158-10.094-22.316-21.252-34.006-31.346
			c1.064-0.532,1.595-0.532,2.656-1.064l0,0c-1.061-0.531-1.593-1.063-2.656-1.593c-2.125,0-3.186,0-4.249,0.53
			c0.532-7.438,0.532-14.876-1.064-21.782c7.97,0,16.471-0.532,24.972-2.127c-0.532,0.532-0.532,1.063-0.532,1.063
			c0.532,6.377,1.064,12.751,1.064,19.127c-3.72-5.845-7.438-11.158-12.222-15.407h-0.529c2.657,6.375,6.906,11.688,12.751,17.001
			c0.532,2.657,1.061,4.781,2.125,6.908c-1.064,0-2.125,0.53-3.188,1.062c1.064,0,1.595,0,2.125,0h1.064
			c0.532,0.531,0.532,0.531,0.532,1.063c-1.596,0.532-2.657,0.532-4.252,1.593c1.064,0.531,2.127,1.063,3.72,1.063
			c7.97,8.501,15.939,15.939,24.972,21.784c-0.532-0.532-0.532-0.532-1.064-1.064c-7.438-6.906-14.875-14.346-22.845-20.72
			c0.529,0,0.529,0,0.529,0c0-0.532,1.064-0.532,1.064-0.532c0.532,0.532,1.064,0.532,1.064,1.064c0-0.532,0-0.532,0-1.064
			c2.657,0,4.781-0.531,7.438-0.531h0.532c4.781,7.97,11.155,15.407,19.125,20.72c0-0.53,0-0.53,0-0.53
			c-5.842-6.377-12.219-13.814-18.064-20.722C381.84,317.731,386.092,317.731,390.874,317.731z M403.093,319.856
			c0-1.063-1.061-1.595-1.061-2.125c0-0.532,1.061-0.532,1.061,0C403.093,318.261,403.093,318.793,403.093,319.856z
			 M364.308,286.383c0-0.53,0-0.53,0.532-0.53c-0.532,1.062-0.532,2.125-0.532,3.186
			C364.308,287.978,364.308,287.446,364.308,286.383z M336.68,314.011v-0.531c1.595-0.532,2.657-0.532,4.252-1.062
			c0,0.53,0,1.062,0,1.593c0,0,0,0-0.532,0C339.336,314.011,338.275,314.011,336.68,314.011z M308.522,333.67
			c0-2.127,0-3.72,0-5.845c4.249,4.781,9.033,9.563,13.814,14.344c-1.595,0-3.188,0-4.252,0.532
			C314.366,340.045,311.178,336.857,308.522,333.67z M307.458,342.17c0-0.53,0-0.53,0-0.53c0,0.53,0,1.062,0,1.062
			c0,0.531,0,1.063,0,1.063c-1.061,0.532-2.657,0.532-3.718,1.062c0-0.53,0-1.062,0-1.593c0.532,0.532,1.061,0.532,1.061,0.532
			c1.064,0,2.127,0,2.657-0.532C307.458,342.701,307.458,342.701,307.458,342.17z M307.458,338.983h-0.529
			c-0.532-1.064-1.064-2.657-1.064-3.72C306.929,336.327,306.929,337.388,307.458,338.983z M314.898,323.044h-0.532
			c5.313,7.438,10.626,13.283,16.471,18.596c-1.595,0-3.188,0-4.784,0c-5.842-5.313-11.687-10.626-18.064-15.409
			c-0.532-3.186-1.061-6.375-1.061-9.563c11.155,1.064,23.377,0.532,35.064-1.063c10.097,10.096,20.723,19.659,31.878,29.222
			c0.532,0,0.532,0,1.064,0c-1.593,0-3.72,0-5.313,0.532c-9.562-7.97-19.659-16.471-30.285-24.441c-0.529-0.53-1.061-0.53-0.529,0
			c10.094,9.033,19.657,18.066,29.222,27.628c-1.064,0-2.127,0-2.127,0.532c-10.626-7.438-19.657-16.471-27.626-26.565h-0.532
			c7.97,11.688,17.532,21.784,29.222,29.222c0.532,2.125,0.532,3.718,0,5.845c0-0.532-1.064-1.064-1.064-1.064
			c-0.529-0.531-1.061-1.063-1.593-1.593c0-0.532-1.064-1.064-1.064-1.064l0,0c-9.562-7.438-17-15.939-23.909-24.972l0,0
			c6.377,10.096,13.814,18.596,22.848,26.565c0,1.595,0,3.72,0.532,5.845c-10.097-11.688-19.127-23.377-28.693-35.067
			c-0.529-0.53-0.529-0.53-0.529,0c7.97,13.814,17.532,25.504,29.751,36.13c0,4.25,0,9.031,1.064,14.344h0.532
			c0.532,0,0.532,0,0.532,0.532v0.531c0.529,0,0.529,0.532,0.529,1.064c1.064,0,2.127,0,2.657-0.532c0,0,0,0,0-0.532
			c0,1.064,0,2.657,0.532,3.72c-1.061,0-2.125,0-3.188,0.53c0-0.53-0.529-1.593-1.061-1.593c0,0,0,0-0.532,0
			c-3.188,0-6.377,0-9.562,0.532c-1.595-0.532-3.188-0.532-4.784-0.532c0,0,0,0,0.532-0.531c0,0,0,0,0.532,0.531
			c-0.532-0.531-0.532-0.531-0.532-1.063c-0.532-0.53-1.061-1.593-1.061-2.125c-0.532-0.532-1.064-1.062-1.595-1.593
			c-2.125-3.72-5.845-6.908-8.501-9.565v-1.062c-0.529-0.532-0.529-0.532,0-1.063c2.657,3.72,5.313,7.438,8.501,11.689
			c1.064,0.532,2.125,0.532,3.188,1.593c0,0.531,1.064,0.531,1.064,1.063c0.529,0,1.593-0.532,2.125-0.532
			c0.532,0,0.532,0,0.532-0.531c-0.532-0.532-1.064-0.532-1.064-1.062c-0.532,0-0.532,0-0.532-0.532c0.532,0,1.595,0,2.125-0.532
			c-0.529,0-0.529-0.531-0.529-1.063c-6.377-5.843-11.69-12.219-16.471-19.125h-0.532l0,0c-0.532-0.532-0.532-0.532-1.064-1.064
			c0-1.063-0.529-2.125-0.529-3.188c-0.532-0.532-0.532-1.593-0.532-1.593l0,0c-0.532-0.532-0.532-1.063-0.532-1.063
			c1.064-0.532,1.593-0.532,3.188-0.532c1.593,1.063,3.718,2.657,5.313,3.72c1.061,2.657,3.188,5.845,5.845,9.033
			c4.249,4.781,8.499,7.97,13.812,10.094c-0.529-0.532-0.529-0.532-0.529-0.532c-6.377-7.97-13.283-15.407-20.723-22.315l0,0
			c0,0.532,0,1.063,1.064,2.127c-1.064-1.064-2.125-1.595-3.72-2.127c1.595-0.53,2.127-0.53,2.657-1.062
			c2.127,1.593,4.252,3.718,6.377,5.845c0.532-0.532,1.064-0.532,1.593-0.532c-0.529,0-0.529-0.532-1.061-0.532
			c-1.596-2.125-3.188-3.188-4.781-4.781c0.529-0.532,0.529-1.063,0.529-1.595c0-0.53,0-1.062,0-1.062c0-0.532,0-0.532,0-0.532
			c-1.593-0.531-2.656-0.531-4.781-1.063c-6.374-6.906-12.751-13.283-19.657-19.657h-0.532c5.313,6.906,11.158,13.283,17.532,19.127
			c-1.061,0-2.657,0-3.718,0C327.117,336.327,320.74,329.95,314.898,323.044z M366.965,358.641
			c-1.064,0.531-1.064,1.595-1.064,2.125c0-0.53,0-0.53-0.529-0.53c-0.532-1.064-1.064-2.127-1.064-3.188
			c0.532,0.532,1.593,1.062,1.593,1.593H366.965z M338.807,361.297c-0.532-1.062-0.532-1.593-0.532-2.657
			c1.061,1.595,2.125,3.72,3.718,5.313C340.932,362.892,339.336,362.36,338.807,361.297z M339.336,372.986c0-1.595,0-2.657,0-3.72
			c2.657,3.188,5.313,5.844,7.97,7.97c0.532,0.531,1.064,1.063,2.127,1.595c-1.064-0.532-2.127-1.064-2.657-1.595
			C344.12,376.175,341.993,374.58,339.336,372.986z M339.868,377.767c0,0,0,0,0-0.531c0-0.532,0-0.532,0-0.532
			c0.532,0,0.532,0,1.064,0.532c1.061,1.063,2.125,2.125,3.718,3.188c-1.593,0-3.186,0-4.781,0
			c-0.532-1.063-0.532-1.593-0.532-2.657H339.868z M340.4,383.081c-0.532,0-0.532,0-0.532,0.532v-0.532
			C339.868,383.081,339.868,383.081,340.4,383.081z M329.774,348.546c0,0,0,0,0.532,0.532c0.532-0.532,0.532-0.532,1.061-0.532
			c1.064-0.531,1.596-0.531,2.657-0.531c0,0.531,0,1.063,0,1.063c-4.249,0-7.97,0-12.751,0c2.125,0,4.781,0,7.438-0.532H329.774z
			 M309.585,343.765c0-0.532,0-0.532,0-1.063c-0.532-2.657-0.532-5.313-0.532-8.501c2.125,3.188,3.718,5.845,5.845,8.501
			C312.771,342.701,311.178,343.233,309.585,343.765z"/>
		<path fill="#333333" d="M381.311,341.64v-0.532c-0.532-0.532-0.532-1.063-0.532-1.063c-9.565-9.563-18.596-18.596-27.629-27.627
			h-0.532c8.501,10.626,18.066,20.188,28.161,29.751C380.779,341.64,380.779,341.64,381.311,341.64z"/>
		<path fill="#333333" d="M390.342,323.044l-0.532,0.53c1.595,5.313,4.252,10.626,7.97,15.409c1.596-0.532,2.657-0.532,4.252-1.064
			c0,0,0,0-0.532-0.531c-0.532,0-1.064-0.532-2.125-1.062c0,0,0,0,0-0.532C395.123,332.075,392.467,327.825,390.342,323.044z"/>
		<path fill="#333333" d="M344.649,293.823c0,0,0,0-0.529,0c-0.532,0-0.532,0-1.064,0v0.53v0.532
			c1.593,2.656,4.249,4.781,6.377,7.438c-2.127-1.062-3.188-2.125-4.784-3.186c-1.593-0.532-1.593,0-1.061,1.062
			c2.125,2.125,3.718,4.781,5.845,6.908c0.529,0.53,1.061,0.53,1.593,1.593c1.593,2.125,3.72,4.25,6.377,6.377
			c0-0.532,0.529-0.532,1.061-0.532c0.532-0.532,0.532-0.532,1.064-0.532c-0.532-1.063-1.064-1.593-1.595-2.125
			c0-0.532,0-0.532-0.529-1.063c0.529,0,0.529,0,1.061,0c0.532-0.532,1.064-0.532,1.595-1.062c-0.532-0.532-0.532-0.532-1.064-0.532
			C353.682,303.917,349.433,299.136,344.649,293.823z"/>
		<path fill="#333333" d="M360.059,321.449c-2.127-1.593-3.188-2.657-5.313-3.718c0-0.532,0-1.064,0-1.064
			c-4.784-5.313-9.033-10.626-13.814-15.407H340.4c-0.532,0-1.064,0-1.064,0.532l0,0c0.532,2.125,1.595,4.249,3.72,6.906
			C347.306,315.075,352.619,319.324,360.059,321.449z"/>
		<path fill="#333333" d="M340.932,354.922c-1.595,0-1.595,0.53-1.064,1.593c4.781,6.377,10.094,12.219,15.939,18.596
			c0.532,0,1.064,0,1.595,0c0,0.532,0,1.064,0.529,1.064c0,0.53,0.532,0.53,1.064,1.062c0.532,0.531,1.593,0.531,1.593,0.531
			s0,0,0-0.531c0-0.532,0-0.532,0-1.062c0-0.532,0-1.064,0-2.127c-0.529,0-1.061-0.53-1.593-0.53
			C352.619,367.141,346.776,361.297,340.932,354.922z"/>
		<path fill="#333333" d="M428.065,398.488v0.531c-0.532,0-0.532,0-1.064,0.532c0,0.532,0,0.532,0,0.532
			c10.626,5.843,21.252,9.031,32.41,9.031l0,0C448.785,405.396,438.159,402.208,428.065,398.488z"/>
		<path fill="#333333" d="M468.976,395.3c-0.532-0.53-1.064-0.53-1.064,0c3.188,2.127,5.845,4.251,9.033,5.845c0,0,0,0-0.532-0.532
			C474.289,398.488,472.162,396.363,468.976,395.3z"/>
		<path fill="#333333" d="M534.858,391.05c-1.596,0-1.596,0.532-0.532,1.593c4.249,3.72,9.033,6.908,14.346,9.033
			c1.593,0,2.657,0,4.249-0.531c0,0,0,0-0.532-0.532C545.484,399.02,540.171,395.3,534.858,391.05z"/>
		<path fill="#333333" d="M548.14,397.427l-0.532,0.53c1.593,1.595,3.72,2.127,6.377,2.127c0-0.532,0-0.532,0-0.532
			C551.858,398.488,550.265,397.956,548.14,397.427z"/>
		<path fill="#333333" d="M269.737,280.008c0.529,0,0.529-0.532,0.529-1.063c0,0,0-0.532,0-1.062c0,0-0.529,0-0.529-0.532
			c-0.532-0.532-1.064-0.532-1.064-0.532c-0.532-0.531-0.532-1.593-0.532-1.593c-0.532-1.064-1.061-1.064-1.593-1.595
			c-5.845-1.062-11.158-1.593-17.003-2.125c-2.125,1.064-5.845,1.593-9.562,1.593c0,0-0.532,0-1.064,0.532
			c1.064,0.531,2.657,0.531,3.72,0.531c-1.596,0-3.72,0-5.313,0.532c-2.125,0.532-4.252,0.532-6.377,0.532
			c-7.438,1.062-12.751,2.657-16.471,5.313c0.532,0,0.532,0,0.532,0.53c-0.532,0-0.532,0-1.061,0.532c0,0,0,0.531,0,1.063
			c0,0,0,0.532-0.532,1.062c0,0,0,0.532-0.532,0.532c0,0.531,0,1.063,0,1.063c0,1.062,0,1.593,0,2.125c0,0.532,0,0.532,0,1.064
			c0,0.53,0,0.53,0,1.062c0,0.531,0,0.531,0,1.063c-0.532,0-0.532,0.532-0.532,1.062c-0.532,0-0.532,0.532-1.061,1.063
			c0,1.593,0,3.72,0,5.845c0,1.593,0,2.657,0,4.25c0,2.657,0,5.844,0,9.033c0,1.062,0,2.125,0,3.188c0.529,0,0.529,0.53,1.061,1.062
			c0,0,0,0.531,0.532,0.531c0,0.532,0,1.064,0,1.064c0,0.53,0,1.062,0,1.062c0.532,0.531,0.532,0.531,0.532,1.063
			c0.532,0.532,1.593,0.532,1.593,0.532c0.532,0,1.064,0.53,1.064,1.062c4.781,0,8.501,1.063,12.219,2.657
			c14.346,5.844,28.69,5.844,41.443-1.062c0,0,0-0.532-0.532-0.532c1.061-0.532,2.125-1.063,3.188-2.125
			c0.529-1.595,1.593-3.72,2.657-5.313c0.529,0,0.529,0,0.529-0.532c0-0.532,0-0.532,0-1.063c0-3.188-0.529-5.845-1.061-9.031
			c0-0.532,0-0.532,0-1.064c-0.532,0.532-0.532,0.532-1.064,0.532c-1.061,2.657-1.061,5.313-1.061,7.97c0,0.532,0,0.532-0.532,0.532
			c-1.595-5.313-2.125-10.626-2.125-15.939c-0.532-5.313-0.532-10.626-1.064-15.939C269.206,280.54,269.737,280.54,269.737,280.008z
			 M264.954,285.321c0-0.532,0-1.063,0-1.595c0-0.53,0-1.062-0.529-1.062c-1.064-1.063-1.595-2.125-2.127-2.657
			c1.064,0,2.657,0,3.72,0.532c-0.532,1.593-1.064,3.718-0.532,5.843h-0.532C264.954,286.383,264.954,285.853,264.954,285.321z
			 M260.172,279.476c1.064,4.25,2.125,8.501,2.125,13.283c0.532,6.906,1.596,13.814,3.188,21.252c1.064,0,2.125,1.064,3.188,1.064
			c0,0.53,0,0.53,0,1.062c-5.313,3.72-11.158,5.313-17.532,5.313c-1.595,0-2.127,0.531-1.595,1.595
			c-10.626-0.532-20.72-2.657-30.815-5.313c-0.532-0.532-1.064-1.064-1.064-1.064c-0.532-0.531-0.532-0.531-1.061-1.063
			c0-0.53,0-0.53-0.532-1.062c0-4.781,0-9.565,0-14.346c0-2.125,0-4.782,0-6.906c-0.532-3.188,0-5.845,1.061-9.033
			c1.064-0.532,2.127-1.062,3.188-1.593c0.532,0,1.064,0,2.125,0C234.671,278.945,247.422,277.883,260.172,279.476z"/>
		<path fill="#333333" d="M271.862,373.518l-1.064-0.532c5.845,6.906,12.751,11.158,20.72,12.751c0-0.531-0.529-0.531-1.061-1.063
			C284.613,380.424,278.236,376.704,271.862,373.518z"/>
		<path fill="#333333" d="M343.056,207.219L343.056,207.219c-7.438,0.531-12.751,3.188-15.939,7.97c0.532,0,1.064,0,1.064,0
			C335.619,215.188,340.932,212,343.056,207.219z"/>
		<path fill="#333333" d="M326.054,197.124c-0.529-0.531-1.061-0.531-1.593-1.063c-1.064-0.53-1.593,0-2.125,0.532
			c-4.781,3.72-9.565,7.438-14.878,11.157c0.532,0.532,0.532,0.532,1.064,0.532c1.064,0.532,1.593,1.062,2.657,1.062
			c0-0.53,1.064-1.062,1.064-1.062C317.555,205.094,321.804,201.906,326.054,197.124z"/>
		<path fill="#333333" d="M299.488,188.623c0,0-0.529,0-0.529,0.531c-1.595,5.313-1.064,10.626,0.529,15.408
			c0-0.532,0.532-0.532,0.532-0.532C301.084,199.249,301.084,193.936,299.488,188.623z"/>
		<path fill="#333333" d="M273.987,200.844c0.532,1.062,0.532,1.062,0.532,2.125c1.061,3.718,3.718,6.906,6.374,10.094
			c1.064,0,1.064,0,1.596-0.531c0-0.532,0.532-1.062,1.061-1.593c0-0.532,0-0.532-0.529-1.063c-2.657-3.188-4.784-6.906-7.44-10.626
			c0,0-0.529,0-1.061,0c0,0,0,0-0.532,0.531C273.987,200.312,273.987,200.312,273.987,200.844z"/>
		<path fill="#333333" d="M268.674,216.783c-0.532,0-1.064,0-1.593,0c0,0.53-0.532,0.53-1.064,0.53c0,0.532,0,0.532,0,0.532
			c-0.532,0.531-0.532,1.063-0.532,1.063c3.188,3.188,6.909,5.313,11.158,6.906c1.064-0.532,1.593-1.062,2.657-1.593
			c-0.532-0.532-0.532-0.532-1.064-1.063c-2.657-2.125-5.842-4.25-9.031-6.375C268.674,216.783,268.674,216.783,268.674,216.783z"/>
	</g>
</g>
</svg>
