<?xml version="1.0" encoding="utf-8"?>
<!-- Generator: Adobe Illustrator 17.0.0, SVG Export Plug-In . SVG Version: 6.00 Build 0)  -->
<!DOCTYPE svg PUBLIC "-//W3C//DTD SVG 1.1//EN" "http://www.w3.org/Graphics/SVG/1.1/DTD/svg11.dtd">
<svg version="1.1" id="Layer_1" xmlns="http://www.w3.org/2000/svg" xmlns:xlink="http://www.w3.org/1999/xlink" x="0px" y="0px"
	 width="800px" height="600px" viewBox="0 0 800 600" enable-background="new 0 0 800 600" xml:space="preserve">
<g id="Livello_x0020_1">
	<g id="_56427272">
		
			<ellipse id="_56249280" fill="#FFFFFF" stroke="#1F1A17" stroke-width="0.0753" cx="530.381" cy="453.411" rx="26.772" ry="24.958"/>
		
			<ellipse id="_56248368" fill="#1F1A17" stroke="#1F1A17" stroke-width="0.0753" cx="530.381" cy="453.411" rx="21.909" ry="20.425"/>
		
			<ellipse id="_56247456" fill="#FFFFFF" stroke="#1F1A17" stroke-width="0.0753" cx="530.381" cy="453.411" rx="18.56" ry="17.303"/>
		<path id="_56246184" fill="#1F1A17" stroke="#1F1A17" stroke-width="0.0753" d="M452.039,313.599
			c-12.375-1.571-23.762-4.262-31.566,4.684c0,0,0.974,5.684,5.139,10.832c3.385,4.184,9.075,9.86,12.183,14.049
			c5.933,7.997,8.466,15.353,8.716,14.908c0.619-1.1,0.477-0.946,0.989-2.143c-2.544-11.613-25.25-25.909-26.285-37.08
			c7.042-10.741,28.889-3.997,30.621-2.837C451.989,314.508,452.045,314.385,452.039,313.599L452.039,313.599z"/>
		<path id="_56245040" fill="#1F1A17" stroke="#1F1A17" stroke-width="0.0753" d="M451.671,306.109
			c-13.605,2.059-24.353-0.298-31.985,7.233c3.397-4.4,7.833-5.608,15.375-6.477l-1.159-0.861c9.716,0.955,17.32-0.967,17.184-0.898
			L451.671,306.109L451.671,306.109z"/>
		<path id="_56243896" fill="#1F1A17" stroke="#1F1A17" stroke-width="0.0753" d="M450.861,303.162
			c-13.041,1.974-23.345-0.285-30.661,6.934c3.256-4.217,7.508-5.376,14.738-6.209l-1.111-0.825
			c9.314,0.916,16.603-0.927,16.473-0.861L450.861,303.162L450.861,303.162z"/>
		<path id="_56242752" fill="#1F1A17" stroke="#1F1A17" stroke-width="0.0753" d="M449.988,299.894
			c-12.321,1.865-22.055-0.27-28.966,6.55c3.076-3.984,7.093-5.079,13.924-5.865l-1.049-0.78c8.799,0.865,15.685-0.876,15.562-0.813
			L449.988,299.894L449.988,299.894z"/>
		<path id="_56240912" fill="#1F1A17" stroke="#1F1A17" stroke-width="0.0753" d="M452.107,309.444
			c-13.605,2.059-24.353-0.298-31.985,7.233c3.397-4.4,7.833-5.608,15.375-6.477l-1.159-0.861c9.716,0.955,17.32-0.967,17.184-0.898
			L452.107,309.444L452.107,309.444z"/>
		<path id="_56239640" fill="#1F1A17" stroke="#1F1A17" stroke-width="0.0753" d="M426.054,321.219c0,0,1.129-5.065,5.932-5.9
			c4.802-0.835,9.301,3.142,9.301,3.142s-2.629,4.323-6.845,5.524C430.226,325.186,426.054,321.219,426.054,321.219L426.054,321.219
			z M424.416,321.465c0,0,1.471-5.867,7.295-6.88c5.824-1.013,11.18,3.534,11.18,3.534s-3.188,5.244-8.302,6.7
			C429.474,326.275,424.416,321.465,424.416,321.465z"/>
		<ellipse id="_56238872" fill="#1F1A17" stroke="#1F1A17" stroke-width="0.0753" cx="432.733" cy="320.028" rx="3.4" ry="3.058"/>
		<path id="_56237376" fill="#1F1A17" d="M443.2,334.432c0.745-0.464,1.385-1.404,0.338-2.147c-1.189-0.844-2.657,0.336-2.949,1.282
			c-0.367,1.192,0.487,2.547,1.866,2.978c3.131,0.978,5.241-2.507,3.764-4.86c-1.449-2.307-4.635-2.425-6.56-1.114
			c-3.443,2.344-1.562,7.701,3.044,8.375c3.425,0.501,6.559-1.793,6.9-4.759c0.433-3.769-3.413-7.228-7.616-7.254
			c-9.128-0.057-8.605,11.236-2.675,16.113l-0.106,0.13c-3.879-2.949-6.643-7.722-5.253-12.055
			c1.648-5.133,8.857-7.395,14.062-3.458c4.291,3.246,4.369,9.002,0.382,11.69c-3.052,2.058-7.807,1.819-10.589-1.308
			c-3.306-3.718-1.334-8.654,3.262-9.591c3.113-0.634,6.593,1.622,6.929,4.594c0.33,2.918-3.169,5.842-6.438,4.045
			c-2.827-1.555-2.22-4.992,0.595-5.59C444.28,331.054,445.45,334.116,443.2,334.432L443.2,334.432z"/>
		<path id="_56236584" fill="#1F1A17" stroke="#1F1A17" stroke-width="0.0753" d="M425.183,322.991c0,0,1.186,1.691,5.225,3.132
			c4.039,1.44,4.477,1.551,4.477,1.551l-3.509,5.062c0,0-2.72-2.086-4.434-4.812C425.226,325.198,425.183,322.991,425.183,322.991
			L425.183,322.991z"/>
		<path id="_56234816" fill="#1F1A17" stroke="#1F1A17" stroke-width="0.0753" d="M421.699,322.518c0,0,0.607,7.846,7.741,15.882
			c12.467,14.045,14.156,25.01,14.436,24.591c0.694-1.035,0.543-0.894,1.141-2.03c-1.537-11.497-22.539-26.871-22.64-37.842
			C422.021,322.722,422.059,322.819,421.699,322.518L421.699,322.518z"/>
		<path id="_56233776" fill="#1F1A17" d="M427.095,349.401c-0.787,0.412-1.511,1.308-0.531,2.123
			c1.113,0.925,2.687-0.154,3.063-1.079c0.474-1.166-0.258-2.58-1.599-3.106c-3.043-1.193-5.466,2.147-4.2,4.601
			c1.241,2.406,4.416,2.743,6.459,1.564c3.653-2.108,2.254-7.593-2.291-8.583c-3.379-0.736-6.72,1.343-7.327,4.285
			c-0.772,3.739,2.763,7.461,6.963,7.776c9.122,0.684,9.614-10.644,4.124-15.927l0.118-0.122c3.613,3.215,5.949,8.177,4.168,12.415
			c-2.109,5.019-9.52,6.786-14.371,2.492c-3.999-3.54-3.56-9.301,0.668-11.715c3.237-1.848,7.97-1.283,10.47,2.035
			c2.971,3.945,0.556,8.745-4.124,9.366c-3.169,0.421-6.446-2.074-6.515-5.069c-0.068-2.94,3.694-5.624,6.801-3.603
			c2.687,1.749,1.771,5.144-1.097,5.548C425.711,352.705,424.816,349.562,427.095,349.401L427.095,349.401z"/>
		<path id="_56232704" fill="#1F1A17" stroke="#1F1A17" stroke-width="0.0753" d="M447.535,352.295
			c-1.021-3.772-2.943-6.365-5.779-9.943c2.611,0.3,7.28-0.408,9.064-2.852C450.17,342.469,449.027,348.024,447.535,352.295z"/>
		<path id="_56231936" fill="#1F1A17" stroke="#1F1A17" stroke-width="0.0753" d="M421.697,333.938
			c1.882,3.787,5.629,5.958,2.818,6.716c-2.811,0.758-2.148,0.448-4.113,1.62c-0.765,0.456-3.389,2.054-3.389,1.483l0.037-24.41
			C419.581,320.284,419.814,330.151,421.697,333.938L421.697,333.938z"/>
		<path id="_56231168" fill="#FFFFFF" d="M420.917,333.303c2.062,4.737,5.296,6.088,3.332,6.793
			c-1.964,0.704-2.907,0.591-4.279,1.68c-0.534,0.423-3.045,1.734-3.044,1.202l0.031-23.374
			C418.725,320.475,419.18,329.312,420.917,333.303L420.917,333.303z"/>
		<path id="_56229824" fill="#1F1A17" stroke="#1F1A17" stroke-width="0.0753" d="M451.515,316.784
			c-0.201,3.599-0.274,7.287,0.785,10.628c-2.133-2.197-4.611-3.146-8.808-2.712C447.27,322.814,448.246,318.547,451.515,316.784
			L451.515,316.784z"/>
		<path id="_56228416" fill="#1F1A17" stroke="#1F1A17" stroke-width="0.0753" d="M448.634,294.492
			c-11.283-0.799-20.723,0.565-30.965,12.379c7.205-40.278-0.22-49.066,0.222-48.774c1.094,0.72,0.901,0.635,1.975,1.465
			c5.037,10.244,1.668,34.919-0.972,44.362c6.861-9.558,18.534-12.064,29.189-12.498
			C448.227,292.212,448.465,293.54,448.634,294.492L448.634,294.492z"/>
		<path id="_56227160" fill="#1F1A17" stroke="#1F1A17" stroke-width="0.0753" d="M447.695,288.928
			c-9.751-0.69-17.911,0.489-26.762,10.699c6.227-34.811-0.191-42.406,0.192-42.154c0.945,0.622,0.778,0.549,1.707,1.266
			c4.354,8.853,1.441,30.179-0.84,38.341c5.929-8.261,16.018-10.427,25.227-10.802C447.343,286.957,447.548,288.105,447.695,288.928
			L447.695,288.928z"/>
		<path id="_55934592" fill="#1F1A17" stroke="#1F1A17" stroke-width="0.0753" d="M446.49,283.99
			c-8.278-0.586-15.204,0.415-22.718,9.082c5.286-29.551-0.162-35.998,0.163-35.784c0.802,0.528,0.661,0.466,1.449,1.075
			c3.696,7.515,1.223,25.619-0.713,32.547c5.034-7.012,13.598-8.851,21.415-9.17C446.191,282.316,446.365,283.291,446.49,283.99
			L446.49,283.99z"/>
		<path id="_56201984" fill="#1F1A17" stroke="#1F1A17" stroke-width="0.0753" d="M418.164,248.086
			c8.248-39.058,43.162-64.063,79.819-73.707c-3.259,1.35-7.745,5.369-7.745,5.369c-34.494,16.219-50.804,28.583-60.594,60.519
			L418.164,248.086L418.164,248.086z"/>
		
			<ellipse id="_56196480" fill="#FFFFFF" stroke="#1F1A17" stroke-width="0.0753" cx="530.381" cy="453.411" rx="26.772" ry="24.958"/>
		
			<ellipse id="_56200440" fill="#1F1A17" stroke="#1F1A17" stroke-width="0.0753" cx="530.381" cy="453.411" rx="21.909" ry="20.425"/>
		
			<ellipse id="_56197728" fill="#FFFFFF" stroke="#1F1A17" stroke-width="0.0753" cx="530.381" cy="453.411" rx="18.56" ry="17.303"/>
		
			<ellipse id="_56194552" fill="#FFFFFF" stroke="#1F1A17" stroke-width="0.0753" cx="530.381" cy="453.411" rx="26.772" ry="24.958"/>
		
			<ellipse id="_56193640" fill="#1F1A17" stroke="#1F1A17" stroke-width="0.0753" cx="530.381" cy="453.411" rx="21.909" ry="20.425"/>
		
			<ellipse id="_56192696" fill="#FFFFFF" stroke="#1F1A17" stroke-width="0.0753" cx="530.381" cy="453.411" rx="18.56" ry="17.303"/>
		
			<ellipse id="_56191784" fill="#FFFFFF" stroke="#1F1A17" stroke-width="0.0753" cx="530.381" cy="453.411" rx="26.772" ry="24.958"/>
		
			<ellipse id="_56190736" fill="#1F1A17" stroke="#1F1A17" stroke-width="0.0753" cx="530.381" cy="453.411" rx="21.909" ry="20.425"/>
		
			<ellipse id="_56189824" fill="#FFFFFF" stroke="#1F1A17" stroke-width="0.0753" cx="530.381" cy="453.411" rx="18.56" ry="17.303"/>
		<path id="_56186816" fill="#1F1A17" stroke="#1F1A17" stroke-width="0.0753" d="M443.874,361.155
			c-10.592-1.603-18.959,0.232-24.901-5.631c2.644,3.425,6.098,4.366,11.97,5.042l-0.902,0.67
			c7.564-0.744,13.484,0.753,13.378,0.699L443.874,361.155L443.874,361.155z"/>
		<path id="_56186048" fill="#FFFFFF" stroke="#1F1A17" stroke-width="0.0753" d="M419.724,245.594
			c9.103-35.986,39.857-59.541,74.747-69.825c-2.055,1.478-4.584,3.692-4.584,3.692c-34.683,15.19-52.59,31.309-61.582,60.297
			L419.724,245.594L419.724,245.594z"/>
		
			<ellipse id="_56180768" fill="#FFFFFF" stroke="#1F1A17" stroke-width="0.0753" cx="538.561" cy="330.314" rx="13.387" ry="12.48"/>
		
			<ellipse id="_56179720" fill="#1F1A17" stroke="#1F1A17" stroke-width="0.0753" cx="538.561" cy="330.314" rx="10.955" ry="10.213"/>
		
			<ellipse id="_56178808" fill="#FFFFFF" stroke="#1F1A17" stroke-width="0.0753" cx="538.561" cy="330.314" rx="9.281" ry="8.652"/>
		
			<ellipse id="_56177896" fill="#FFFFFF" stroke="#1F1A17" stroke-width="0.0753" cx="577.118" cy="317.781" rx="10.673" ry="9.95"/>
		
			<ellipse id="_56176984" fill="#1F1A17" stroke="#1F1A17" stroke-width="0.0753" cx="577.118" cy="317.781" rx="8.734" ry="8.142"/>
		
			<ellipse id="_56176056" fill="#FFFFFF" stroke="#1F1A17" stroke-width="0.0753" cx="577.118" cy="317.781" rx="7.399" ry="6.898"/>
		
			<ellipse id="_56175144" fill="#1F1A17" stroke="#1F1A17" stroke-width="0.0753" cx="606.271" cy="267.99" rx="10.955" ry="10.213"/>
		<ellipse id="_56174232" fill="#FFFFFF" stroke="#1F1A17" stroke-width="0.0753" cx="606.271" cy="267.99" rx="9.281" ry="8.652"/>
		
			<ellipse id="_56173320" fill="#FFFFFF" stroke="#1F1A17" stroke-width="0.0753" cx="634.165" cy="211.442" rx="18.814" ry="17.539"/>
		
			<ellipse id="_56172408" fill="#1F1A17" stroke="#1F1A17" stroke-width="0.0753" cx="634.165" cy="211.442" rx="15.396" ry="14.353"/>
		
			<ellipse id="_56171496" fill="#FFFFFF" stroke="#1F1A17" stroke-width="0.0753" cx="634.165" cy="211.442" rx="13.043" ry="12.159"/>
		
			<ellipse id="_56170448" fill="#FFFFFF" stroke="#1F1A17" stroke-width="0.0753" cx="538.561" cy="330.314" rx="13.387" ry="12.48"/>
		
			<ellipse id="_56169536" fill="#1F1A17" stroke="#1F1A17" stroke-width="0.0753" cx="538.561" cy="330.314" rx="10.955" ry="10.213"/>
		
			<ellipse id="_56168624" fill="#FFFFFF" stroke="#1F1A17" stroke-width="0.0753" cx="538.561" cy="330.314" rx="9.281" ry="8.652"/>
		
			<ellipse id="_56167712" fill="#FFFFFF" stroke="#1F1A17" stroke-width="0.0753" cx="577.118" cy="317.781" rx="10.673" ry="9.95"/>
		
			<ellipse id="_56166800" fill="#1F1A17" stroke="#1F1A17" stroke-width="0.0753" cx="577.118" cy="317.781" rx="8.734" ry="8.142"/>
		
			<ellipse id="_56165888" fill="#FFFFFF" stroke="#1F1A17" stroke-width="0.0753" cx="577.118" cy="317.781" rx="7.399" ry="6.898"/>
		
			<ellipse id="_56164976" fill="#1F1A17" stroke="#1F1A17" stroke-width="0.0753" cx="606.271" cy="267.99" rx="10.955" ry="10.213"/>
		<ellipse id="_55959232" fill="#FFFFFF" stroke="#1F1A17" stroke-width="0.0753" cx="606.271" cy="267.99" rx="9.281" ry="8.652"/>
		
			<ellipse id="_55958320" fill="#FFFFFF" stroke="#1F1A17" stroke-width="0.0753" cx="634.165" cy="211.442" rx="18.814" ry="17.539"/>
		
			<ellipse id="_55957408" fill="#1F1A17" stroke="#1F1A17" stroke-width="0.0753" cx="634.165" cy="211.442" rx="15.396" ry="14.353"/>
		
			<ellipse id="_55956360" fill="#FFFFFF" stroke="#1F1A17" stroke-width="0.0753" cx="634.165" cy="211.442" rx="13.043" ry="12.159"/>
		
			<ellipse id="_55955448" fill="#1F1A17" stroke="#1F1A17" stroke-width="0.0753" cx="538.561" cy="330.314" rx="10.955" ry="10.213"/>
		
			<ellipse id="_55954536" fill="#FFFFFF" stroke="#1F1A17" stroke-width="0.0753" cx="538.561" cy="330.314" rx="9.281" ry="8.652"/>
		
			<ellipse id="_55953624" fill="#1F1A17" stroke="#1F1A17" stroke-width="0.0753" cx="577.118" cy="317.781" rx="8.734" ry="8.142"/>
		
			<ellipse id="_55952712" fill="#FFFFFF" stroke="#1F1A17" stroke-width="0.0753" cx="577.118" cy="317.781" rx="7.399" ry="6.898"/>
		
			<ellipse id="_55951800" fill="#1F1A17" stroke="#1F1A17" stroke-width="0.0753" cx="634.165" cy="211.442" rx="15.396" ry="14.353"/>
		
			<ellipse id="_55950856" fill="#FFFFFF" stroke="#1F1A17" stroke-width="0.0753" cx="634.165" cy="211.442" rx="13.043" ry="12.159"/>
		
			<ellipse id="_55949944" fill="#FFFFFF" stroke="#1F1A17" stroke-width="0.0753" cx="606.271" cy="267.99" rx="13.387" ry="12.48"/>
		
			<ellipse id="_55949032" fill="#1F1A17" stroke="#1F1A17" stroke-width="0.0753" cx="606.271" cy="267.99" rx="10.955" ry="10.213"/>
		<ellipse id="_55948120" fill="#FFFFFF" stroke="#1F1A17" stroke-width="0.0753" cx="606.271" cy="267.99" rx="9.281" ry="8.652"/>
		
			<ellipse id="_55947040" fill="#1F1A17" stroke="#1F1A17" stroke-width="0.0753" cx="651.335" cy="148.508" rx="10.955" ry="10.213"/>
		
			<ellipse id="_55946128" fill="#FFFFFF" stroke="#1F1A17" stroke-width="0.0753" cx="651.335" cy="148.508" rx="9.281" ry="8.652"/>
		
			<ellipse id="_55945216" fill="#1F1A17" stroke="#1F1A17" stroke-width="0.0753" cx="651.335" cy="148.508" rx="10.955" ry="10.213"/>
		
			<ellipse id="_55944304" fill="#FFFFFF" stroke="#1F1A17" stroke-width="0.0753" cx="651.335" cy="148.508" rx="9.281" ry="8.652"/>
		
			<ellipse id="_55943392" fill="#FFFFFF" stroke="#1F1A17" stroke-width="0.0753" cx="651.335" cy="148.508" rx="13.387" ry="12.48"/>
		
			<ellipse id="_55942480" fill="#1F1A17" stroke="#1F1A17" stroke-width="0.0753" cx="651.335" cy="148.508" rx="10.955" ry="10.213"/>
		
			<ellipse id="_55941712" fill="#FFFFFF" stroke="#1F1A17" stroke-width="0.0753" cx="651.335" cy="148.508" rx="9.281" ry="8.652"/>
		<path id="_55940944" fill="#1F1A17" stroke="#1F1A17" stroke-width="0.0753" d="M444.05,261.772c0,0,14.995-36.909,39.655-55.513
			c24.66-18.604,31.182-22.569,31.182-22.569s10.282,21.458,3.808,33.726c-6.475,12.268-26.62,23.822-30.33,2.897
			c-19.556,9.234-2.726,20.958-3.749,24.707c-1.022,3.749-6.475,8.86-20.447,11.927C450.198,260.014,444.05,261.772,444.05,261.772
			L444.05,261.772z"/>
		<path id="_55328264" fill="#1F1A17" stroke="#1F1A17" stroke-width="0.0753" d="M517.3,182.26
			c2.131,5.09,2.969,7.583,5.483,19.651c2.513,12.068,11.757-25.388,35.101-16.869c-25.737,22.328,15.883,21.351,29.477,28.796
			l3.629,1.988c0,0,14.45-23.017,14.879-40.673c0.429-17.657-1.67-33.714-1.67-33.714s-15.767,3.842-45.102,18.79
			C529.761,175.176,517.3,182.26,517.3,182.26z"/>
		<path id="_55347440" fill="#1F1A17" stroke="#1F1A17" stroke-width="0.0753" d="M456.671,324.082
			c28.078-4.718,42.654-8.733,38.878-17.123c-11.674-25.942-25.418-18.319-29.507-7.072c0,0-8.775-10.65,2.726-18.061
			c11.501-7.412,12.609-5.112,12.268-8.179c-0.341-3.067-5.452-16.698-5.452-16.698c-11.369,3.919-30.77,7.026-30.503,7.718
			C452.86,284.845,454.506,302.697,456.671,324.082L456.671,324.082z"/>
		<path id="_55342768" fill="#FFFFFF" stroke="#1F1A17" stroke-width="0.0753" d="M458.223,321.843
			c24.782-4.164,39.606-7.111,36.273-14.517c-11.592-24.238-23.046-18.233-27.802-4.927c-5.219-3.408-9.408-15.995,2.058-22.536
			c11.465-6.542,11.129-4.512,10.828-7.219c-0.301-2.707-5.516-13.803-5.516-13.803c-10.034,3.459-27.158,6.201-26.922,6.812
			C454.008,283.464,456.312,302.969,458.223,321.843L458.223,321.843z"/>
		<path id="_55289232" fill="#1F1A17" d="M477.703,300.967c0.948,0.466,2.336,0.568,2.479-0.853
			c0.163-1.613-1.988-2.385-3.167-2.147c-1.486,0.3-2.396,1.87-2.006,3.441c0.888,3.566,5.872,3.692,7.455,0.97
			c1.552-2.668-0.28-5.815-2.85-6.957c-4.595-2.042-9.11,2.72-6.994,7.545c1.573,3.588,5.926,5.359,9.274,4.06
			c4.255-1.652,5.553-7.271,3-11.351c-5.545-8.86-17.175-2.149-18.695,6.265l-0.202-0.032c0.739-5.371,4.093-10.668,9.533-11.703
			c6.444-1.226,13.264,4.504,12.294,11.701c-0.8,5.933-6.844,9.172-12.137,6.792c-4.052-1.822-6.72-6.552-5.118-10.96
			c1.905-5.24,8.34-6.044,12.153-2.114c2.583,2.662,2.332,7.267-0.607,9.225c-2.885,1.922-8.129,0.144-8.235-4.004
			c-0.091-3.589,3.92-4.89,6.281-2.496C481.942,300.155,479.419,302.97,477.703,300.967L477.703,300.967z"/>
		<path id="_55273312" fill="#1F1A17" stroke="#1F1A17" stroke-width="0.0753" d="M488.877,300.054
			c1.857,8.048-5.224,13.692-13.12,11.587c-10.668-2.845-20.364-16.214-14.142-27.518c3.427-6.227,12.525-9.282,14.44-10.055
			c3.526-1.423-2.09-11.614-3.332-13.275l-23.206,6.036c3.361,7.321,9.485,43.968,9.712,52.821
			c4.918-0.131,34.038-3.693,33.915-9.471C493.022,304.401,488.877,300.055,488.877,300.054L488.877,300.054z"/>
		<path id="_55720592" fill="#FFFFFF" stroke="#1F1A17" stroke-width="0.0753" d="M446.501,259.844c0,0,14.156-34.844,37.437-52.408
			c23.281-17.564,30.245-21.731,30.245-21.731s9.231,19.851,3.011,31.671c-6.219,11.819-24.418,21.123-27.92,1.369
			c-22.551,8.888-5.784,22.248-6.749,25.787c-0.965,3.539-6.113,8.365-19.303,11.26
			C450.032,258.687,446.501,259.844,446.501,259.844L446.501,259.844z"/>
		<path id="_55719488" fill="#1F1A17" stroke="#1F1A17" stroke-width="0.0753" d="M449.839,257.423c0,0,13.349-32.936,34.75-49.082
			c21.401-16.146,28.91-20.403,28.91-20.403s8.485,17.908,2.768,28.773c-5.717,10.865-23.301,18.667-26.52,0.508
			c-24.777,11.206-9.601,23.698-10.489,26.951c-0.887,3.253-5.619,7.689-17.745,10.351
			C449.39,257.183,449.839,257.423,449.839,257.423L449.839,257.423z"/>
		<path id="_55718352" fill="#FFFFFF" stroke="#1F1A17" stroke-width="0.0753" d="M519.084,182.465
			c1.951,4.661,3.466,10.411,5.02,17.991c1.554,7.581,10.393-26.33,36.14-15.785c-27.236,22.974,17.834,17.851,30.226,28.184
			c0,0,13.145-22.095,13.537-38.261c0.392-16.166-1.529-30.867-1.529-30.867s-14.453,3.621-41.294,17.203
			C534.343,174.512,519.084,182.465,519.084,182.465L519.084,182.465z"/>
		<path id="_55716960" fill="#1F1A17" stroke="#1F1A17" stroke-width="0.0753" d="M521.221,182.872
			c1.785,4.264,3.392,8.74,3.887,14.286c0.495,5.546,12.55-26.233,37.601-12.563c-24.922,21.022,15.637,15.737,26.976,25.193
			c0,0,12.028-20.218,12.387-35.01c0.359-14.792-1.399-28.244-1.399-28.244s-13.225,3.314-37.785,15.741
			C538.328,174.703,521.221,182.872,521.221,182.872L521.221,182.872z"/>
		<path id="_55715464" fill="#1F1A17" d="M535.454,270.349c0.304,3.853,2.574,8.411,7.311,6.209c5.38-2.5,3.793-10.707,0.843-13.974
			c-3.718-4.116-10.358-4.048-14.571,0.115c-9.561,9.449-0.652,25.366,10.866,25.265c11.293-0.1,17.771-11.737,16.567-21.954
			c-2.155-18.269-25.566-23.583-36.798-7.918c-8.351,11.647-5.797,28.649,4.543,36.756c13.142,10.304,33.245,3.896,41.313-11.753
			c17.522-33.986-25.304-58.047-54.615-47.122l-0.279-0.696c18.279-7.703,41.204-7.041,54.617,8.141
			c15.89,17.985,10.596,50.14-13.858,60.525c-20.16,8.561-41.634-4.408-44.029-25.502c-1.834-16.15,8.066-33.374,24.927-36.564
			c20.041-3.791,34.587,14.953,29.341,34.288c-3.553,13.097-18.51,20.905-30.157,15.314c-11.435-5.488-15.632-25.307-2.777-33.382
			c11.121-6.986,22.704,3.202,19.578,15.101C545.921,282.17,532.356,279.489,535.454,270.349L535.454,270.349z"/>
		<path id="_55714696" fill="#1F1A17" stroke="#1F1A17" stroke-width="0.0753" d="M485.2,229.554
			c8.181,10.108,22.265,8.996,33.291-7.687c10.81-16.356,21.086-35.574,33.601-34.78c0,0-10.394,6.816-8.86,12.098
			c1.534,5.282,26.05,11.42,33.993,14.374c15.004,5.58-1.615,23.241-2.942,53.435c-12.045-48.965-62.739-32.334-67.775-28.917
			C492.053,247.885,488.042,249.434,485.2,229.554L485.2,229.554z"/>
		<path id="_55710672" fill="#1F1A17" stroke="#1F1A17" stroke-width="0.0753" d="M625.47,304.266
			c-16.923,2.908-40.5-6.282-46.388-26.845c-2.797-9.769-0.598-21.904-0.598-21.904c-0.783,13.834,22.633,39.344,44.649,19.542
			c0.25,7.629-17.231,20.003-31.342,14.687c4.547,7.718,25.21,7.999,30.981-4.977L625.47,304.266L625.47,304.266z"/>
		<path id="_55709472" fill="#1F1A17" stroke="#1F1A17" stroke-width="0.0753" d="M588.552,267.466
			c5.928-18.296,25.933-18.444,32.501-5.305c0,0,17.555-5.327,47.993-24.087c13.86-8.542-1.415-22.724,0.444-31.137
			c-14.313,7.838,0.821,16.212-4.887,26.095c-5.708,9.883-13.499-13.949-38.222,7.387
			C617.823,223.759,584.44,235.448,588.552,267.466L588.552,267.466z"/>
		<path id="_55706232" fill="#1F1A17" stroke="#1F1A17" stroke-width="0.0753" d="M610.396,162.667
			c1.673,23.639-23.659,65.772-26.686,74.618c-3.027,8.847-3.334,14.209-2.823,18.639s2.045,9.371,2.045,9.371
			s-4.653-13.514,8.434-27.774c8.663-9.439,29.084-8.608,24.161-15.114c-7.701-10.178-3.063-18.054-1.414-20.923
			C623.302,185.492,611.586,164.069,610.396,162.667L610.396,162.667z"/>
		<path id="_55706152" fill="#1F1A17" stroke="#1F1A17" stroke-width="0.0753" d="M606.85,140.545
			c12.729,35.626,15.464,39.46,12.027,55.337c26.167-17.005,49.184,11.902,30.934,30.696c0,0,6.73,5.577,9.882-0.557
			s-0.899-15.284,3.702-19.714s5.537-3.038,5.537-3.038c-3.757-10.635,0.882-34.45,10.894-52.437
			c-11.315-1.073-9.646,19.708-35.058,13.377c-12.851-3.201-9.028-25.793-17.77-6.89c-7.17-21.847,11.862-23.774,14.229-30.234
			C628.078,132.268,619.167,135.256,606.85,140.545L606.85,140.545z"/>
		<path id="_55706376" fill="#1F1A17" stroke="#1F1A17" stroke-width="0.0753" d="M746.676,71.221
			c-30.33,24.877-43.082,46.753-63.755,74.613c-6.029-20.086,28.184-45.037,33.425-49.736c-5.089,2.956-33.267,29.46-70.771,29.242
			C685.718,110.422,706.195,97.121,746.676,71.221L746.676,71.221z"/>
		<path id="_56695872" fill="#1F1A17" stroke="#1F1A17" stroke-width="0.0753" d="M518.524,238.97
			c-7.384,7.277-18.215,14.836-17.193,37.583c1.022,22.747,21.537,30.658,21.537,30.658s-14.313,5.878-20.191-1.789
			c-5.13-6.692-19.795-29.247-36.024-12.6c-3.382-13.399,20.427-11.402,16.6-21.649c-2.456-6.575-7.308-15.898,1.78-19.846
			C494.12,247.379,518.524,238.97,518.524,238.97L518.524,238.97z"/>
		<path id="_56415144" fill="#FFFFFF" stroke="#1F1A17" stroke-width="0.0753" d="M486.524,232.161
			c7.445,9.198,24.128,4.971,34.162-10.211c9.837-14.885,16.299-30.692,28.644-33.73c0,0-9.243,6.419-7.847,11.226
			c1.396,4.807,26.7,13.146,33.928,15.835c13.654,5.078-1.469,21.15-2.677,48.628c-7.285-24.33-29.199-33.542-47.663-32.759
			c-10.413,0.442-17.623,4.896-22.17,7.828C495.77,243.577,489.11,250.253,486.524,232.161L486.524,232.161z"/>
		<path id="_56419096" fill="#FFFFFF" stroke="#1F1A17" stroke-width="0.0753" d="M514.564,241.215
			c-6.249,6.159-15.887,14.773-14.256,36.067s18.274,29.191,18.274,29.191s-9.714,3.989-14.688-2.499
			c-4.341-5.663-22.593-27.344-36.328-13.255c-2.671-9.109,20.023-9.911,16.785-18.582c-2.078-5.564-7.008-16.898,1.577-20.24
			C494.513,248.554,514.564,241.215,514.564,241.215L514.564,241.215z"/>
		<path id="_56382216" fill="#1F1A17" stroke="#1F1A17" stroke-width="0.0753" d="M457.014,351.685l-0.208-15.337
			c0,0,11.623,9.968,29.258,6.39c17.635-3.578,27.462-7.791,30.16-0.765c2.698,7.026-6.855,10.477-10.436,7.833
			c-3.581-2.644,1.711-8.902,5.977-3.192c-5.434-12.754-18.091-1.087-10.24,5.866c8.222,7.28,21.7-3.515,24.446-8.191
			c13.586,3.251,21.285,2.837,46.603-4.213c25.318-7.05,52.755-32.52,52.755-32.52s-32.228,40.582-76.68,46.751
			C504.197,360.475,457.014,351.685,457.014,351.685L457.014,351.685z"/>
		<path id="_55218832" fill="#1F1A17" stroke="#1F1A17" stroke-width="0.0753" d="M577.667,285.01
			c0.442,0.813-6.091,18.442,4.511,21.201c6.968,1.814,14.003,14.41,0.1,25.946c10.731-3.596,32.071-16.401,39.812-24.289
			C598.669,308.138,585.723,300.127,577.667,285.01L577.667,285.01z"/>
		<path id="_55222784" fill="#1F1A17" stroke="#1F1A17" stroke-width="0.0753" d="M529.434,314.854
			c10.372-0.416,16.897,1.169,20.208,4.477c10.109,10.099-0.329,27.784,29.061,13.849c-10.491-2.788-14.403-7.947-14.536-14.143
			c-0.214-9.924,11.398-16.375,10.155-25.204C563.66,303.509,546.098,309.817,529.434,314.854L529.434,314.854z"/>
		<path id="_56312960" fill="#1F1A17" stroke="#1F1A17" stroke-width="0.0753" d="M456.671,326.514c0,0,19.178-1.537,39.195-4.65
			c20.017-3.113,33.567-7.01,33.567-7.01c-9.762,9.315-9.456,20.02-4.738,25.674c-8.91-10.106-25.788-3.221-35.497-1.603
			c-10.611,1.769-23.016,2.29-32.445-6.389L456.671,326.514L456.671,326.514z"/>
		<path id="_56116992" fill="#1F1A17" stroke="#1F1A17" stroke-width="0.0753" d="M455.432,358.423c0,0,62.512-0.2,76.015,2.732
			c13.503,2.932,20.72,4.602,18.771,15.831s-21.56,11.432-20.188,0.256c1.371-11.176,14.223-7.847,9.892,1.648
			c6.073-2.15,4.316-9.076,1.231-11.258c-15.736-11.133-77.679-4.35-54.191,5.771C482.584,373.94,448.247,370.701,455.432,358.423
			L455.432,358.423z"/>
		<path id="_56380600" fill="#1F1A17" stroke="#1F1A17" stroke-width="0.0753" d="M451.129,365.897c0,0-0.08,3.424,14.744,9.047
			s26.515-0.312,26.515-0.312s-1.196-0.515-3.373-3.037s-0.484-4.24,7.718-5.79c8.19-1.548,26.036-2.601,35.623,1.593
			c-18.088,18.451,10.064,35.114,27.704,9.342c0,0,4.889,5.551,8.08,11.962c3.191,6.411,6.95,15.737,6.95,15.737
			s-24.106,7.564-42.508,0.152c-18.402-7.412-22.187-15.615-20.655-22.126c1.532-6.512,8.165-10.931,10.214-12.513
			c-5.238-2.154-20.709-1.318-23.771-0.295c-3.062,1.023,3.915,4.959,3.915,4.959s-2.616,10.402-22.279,9.636
			c-19.663-0.766-32.917-11.371-32.917-11.371L451.129,365.897L451.129,365.897z"/>
		<path id="_56328568" fill="#1F1A17" stroke="#1F1A17" stroke-width="0.0753" d="M444.078,377.966
			c8.447,8.334,45.221,18.19,59.621,2.601c-3.566,29.183,55.749,35.965,73.308,29.608c3.031,10.989,5.82,20.425,6.533,28.408
			c0.712,7.983-62.511-22.154-79.195-34.858c-16.684-12.704-29.257,21.694,0.506,10.199c-9.655,18.678-39.52,13.275-30.936-16.085
			c-14.208,0.866-25.365-0.308-37.699-8.159L444.078,377.966L444.078,377.966z"/>
		<path id="_56404872" fill="#1F1A17" stroke="#1F1A17" stroke-width="0.0753" d="M536.789,425.292
			c-45.978-9.5-55.738,54.455-6.509,59.296c13.603,1.338,32.696-8.247,50.831-18.582c0.511,5.112-10.57,21.242-20.989,33.586
			c-10.418,12.344-24.145,20.963-24.145,20.963c-12.955-4.913-25.365-11.911-36.692-20.697c-8.266-6.411-15.956-13.775-22.86-21.974
			c-3.552-4.218-4.258-6.522-7.27-24.907c-1.879-11.473-14.134-21.17-12.835-1.415c-36.106-59.467,9.186-62.118,12.178-36.151
			c-5.524-14.219-21.462,3.966-1.656,14.382c12.614,6.634,42.74,2.919,43.146-18.477
			C520.474,416.864,536.789,425.291,536.789,425.292L536.789,425.292z"/>
		<path id="_56462224" fill="#1F1A17" stroke="#1F1A17" stroke-width="0.0753" d="M553.676,433.664
			c9.207,9.773,12.492,26.982-0.128,39.708c11.64-6.812,18.216-8.888,28.978-12.227c1.594-4.577,2.183-17.314,1.602-17.51
			C573.245,443.719,562.028,439.35,553.676,433.664L553.676,433.664z"/>
		<path id="_56382504" fill="#FFFFFF" stroke="#1F1A17" stroke-width="0.0753" d="M465.105,435.26c0,0,12.524,6.134,12.779,23.258
			c0.256,17.124,5.367,23.003,20.702,33.482c15.335,10.479,36.293,17.635,36.293,17.635c19.678-10.058,29.701-21.405,42.683-38.338
			c-27.109,26.586-79.493,24.07-85.11-12.013c-2.19-14.069,5.879-24.792,5.879-24.792
			C489.55,435.687,473.202,439.594,465.105,435.26L465.105,435.26z"/>
		<path id="_55931784" fill="#1F1A17" stroke="#1F1A17" stroke-width="0.0753" d="M421.479,243.202
			c8.266-32.482,36.719-55.131,69.73-65.869c-1.927,1.386-1.896,1.541-1.896,1.541c-32.845,13.961-53.598,32.865-61.782,60.261
			L421.479,243.202L421.479,243.202z"/>
		
			<ellipse id="_57090496" fill="#FFFFFF" stroke="#1F1A17" stroke-width="0.0753" cx="303.63" cy="453.411" rx="26.772" ry="24.958"/>
		
			<ellipse id="_56513632" fill="#1F1A17" stroke="#1F1A17" stroke-width="0.0753" cx="303.63" cy="453.411" rx="21.909" ry="20.425"/>
		
			<ellipse id="_56552832" fill="#FFFFFF" stroke="#1F1A17" stroke-width="0.0753" cx="303.63" cy="453.411" rx="18.56" ry="17.303"/>
		<path id="_54748400" fill="#1F1A17" stroke="#1F1A17" stroke-width="0.0753" d="M381.974,313.599
			c12.375-1.571,23.762-4.262,31.566,4.684c0,0-0.974,5.684-5.139,10.832c-3.385,4.184-9.075,9.86-12.183,14.049
			c-5.933,7.997-8.466,15.353-8.716,14.908c-0.619-1.1-0.477-0.946-0.989-2.143c2.544-11.613,25.25-25.909,26.285-37.08
			c-7.042-10.741-28.889-3.997-30.621-2.837C382.024,314.508,381.967,314.385,381.974,313.599L381.974,313.599z"/>
		<path id="_56805360" fill="#1F1A17" stroke="#1F1A17" stroke-width="0.0753" d="M382.342,306.109
			c13.605,2.059,24.353-0.298,31.985,7.233c-3.397-4.4-7.833-5.608-15.375-6.477l1.159-0.861c-9.716,0.955-17.32-0.967-17.184-0.898
			L382.342,306.109L382.342,306.109z"/>
		<path id="_85397760" fill="#1F1A17" stroke="#1F1A17" stroke-width="0.0753" d="M383.149,303.162
			c13.041,1.974,23.345-0.285,30.661,6.934c-3.256-4.217-7.508-5.376-14.738-6.209l1.111-0.825
			c-9.314,0.916-16.603-0.927-16.473-0.861L383.149,303.162L383.149,303.162z"/>
		<path id="_56317400" fill="#1F1A17" stroke="#1F1A17" stroke-width="0.0753" d="M384.024,299.894
			c12.321,1.865,22.055-0.27,28.966,6.55c-3.076-3.984-7.093-5.079-13.924-5.865l1.049-0.78c-8.799,0.865-15.685-0.876-15.562-0.813
			L384.024,299.894L384.024,299.894z"/>
		<path id="_85994152" fill="#1F1A17" stroke="#1F1A17" stroke-width="0.0753" d="M381.905,309.444
			c13.605,2.059,24.353-0.298,31.985,7.233c-3.397-4.4-7.833-5.608-15.375-6.477l1.159-0.861c-9.716,0.955-17.32-0.967-17.184-0.898
			L381.905,309.444L381.905,309.444z"/>
		<path id="_26978440" fill="#1F1A17" stroke="#1F1A17" stroke-width="0.0753" d="M407.956,321.219c0,0-1.129-5.065-5.932-5.9
			c-4.802-0.835-9.301,3.142-9.301,3.142s2.629,4.323,6.845,5.524C403.784,325.186,407.956,321.219,407.956,321.219L407.956,321.219
			z M409.595,321.465c0,0-1.471-5.867-7.295-6.88c-5.824-1.013-11.18,3.534-11.18,3.534s3.188,5.244,8.302,6.7
			C404.536,326.275,409.595,321.465,409.595,321.465z"/>
		<ellipse id="_56501960" fill="#1F1A17" stroke="#1F1A17" stroke-width="0.0753" cx="401.28" cy="320.028" rx="3.4" ry="3.058"/>
		<path id="_85857128" fill="#1F1A17" d="M390.813,334.432c-0.745-0.464-1.385-1.404-0.338-2.147
			c1.189-0.844,2.657,0.336,2.949,1.282c0.367,1.192-0.487,2.547-1.866,2.978c-3.131,0.978-5.241-2.507-3.764-4.86
			c1.449-2.307,4.635-2.425,6.56-1.114c3.443,2.344,1.562,7.701-3.044,8.375c-3.425,0.501-6.559-1.793-6.9-4.759
			c-0.433-3.769,3.413-7.228,7.616-7.254c9.128-0.057,8.604,11.236,2.675,16.113l0.106,0.13c3.879-2.949,6.643-7.722,5.253-12.055
			c-1.648-5.133-8.857-7.395-14.062-3.458c-4.291,3.246-4.369,9.002-0.382,11.69c3.052,2.058,7.807,1.819,10.589-1.308
			c3.306-3.718,1.334-8.654-3.262-9.591c-3.113-0.634-6.593,1.622-6.929,4.594c-0.33,2.918,3.169,5.842,6.438,4.045
			c2.827-1.555,2.22-4.992-0.595-5.59C389.732,331.054,388.562,334.116,390.813,334.432L390.813,334.432z"/>
		<path id="_55218856" fill="#1F1A17" stroke="#1F1A17" stroke-width="0.0753" d="M408.827,322.991c0,0-1.186,1.691-5.225,3.132
			c-4.039,1.44-4.476,1.551-4.476,1.551l3.509,5.062c0,0,2.72-2.086,4.434-4.812C408.784,325.198,408.827,322.991,408.827,322.991
			L408.827,322.991z"/>
		<path id="_55908584" fill="#1F1A17" stroke="#1F1A17" stroke-width="0.0753" d="M412.314,322.518c0,0-0.607,7.846-7.741,15.882
			c-12.467,14.045-14.156,25.01-14.436,24.591c-0.694-1.035-0.543-0.894-1.141-2.03c1.537-11.497,22.539-26.871,22.64-37.842
			C411.992,322.722,411.954,322.819,412.314,322.518L412.314,322.518z"/>
		<path id="_85798712" fill="#1F1A17" d="M406.918,349.401c0.787,0.412,1.511,1.308,0.531,2.123
			c-1.113,0.925-2.687-0.154-3.063-1.079c-0.474-1.166,0.258-2.58,1.599-3.106c3.043-1.193,5.466,2.147,4.2,4.601
			c-1.241,2.406-4.416,2.743-6.459,1.564c-3.653-2.108-2.254-7.593,2.291-8.583c3.379-0.736,6.72,1.343,7.327,4.285
			c0.772,3.739-2.763,7.461-6.963,7.776c-9.122,0.684-9.614-10.644-4.124-15.927l-0.118-0.122
			c-3.613,3.215-5.949,8.177-4.168,12.415c2.109,5.019,9.52,6.786,14.371,2.492c3.999-3.54,3.56-9.301-0.668-11.715
			c-3.237-1.848-7.97-1.283-10.47,2.035c-2.971,3.945-0.556,8.745,4.124,9.366c3.169,0.421,6.446-2.074,6.515-5.069
			c0.068-2.94-3.694-5.624-6.801-3.603c-2.687,1.749-1.771,5.144,1.097,5.548C408.301,352.705,409.196,349.562,406.918,349.401
			L406.918,349.401z"/>
		<path id="_55706192" fill="#1F1A17" stroke="#1F1A17" stroke-width="0.0753" d="M386.478,352.295
			c1.021-3.772,2.943-6.365,5.779-9.943c-2.611,0.3-7.28-0.408-9.064-2.852C383.842,342.469,384.986,348.024,386.478,352.295z"/>
		<path id="_56797416" fill="#1F1A17" stroke="#1F1A17" stroke-width="0.0753" d="M412.316,333.938
			c-1.882,3.787-5.629,5.958-2.818,6.716c2.811,0.758,2.148,0.448,4.113,1.62c0.765,0.456,3.389,2.054,3.389,1.483l-0.037-24.41
			C414.432,320.284,414.198,330.151,412.316,333.938L412.316,333.938z"/>
		<path id="_56466256" fill="#FFFFFF" d="M413.093,333.303c-2.062,4.737-5.296,6.088-3.332,6.793
			c1.964,0.704,2.907,0.591,4.279,1.68c0.534,0.423,3.045,1.734,3.044,1.202l-0.031-23.374
			C415.286,320.475,414.83,329.312,413.093,333.303L413.093,333.303z"/>
		<path id="_54746640" fill="#1F1A17" stroke="#1F1A17" stroke-width="0.0753" d="M382.497,316.784
			c0.201,3.599,0.274,7.287-0.785,10.628c2.133-2.197,4.611-3.146,8.808-2.712C386.742,322.814,385.766,318.547,382.497,316.784
			L382.497,316.784z"/>
		<path id="_53997720" fill="#1F1A17" stroke="#1F1A17" stroke-width="0.0753" d="M385.378,294.492
			c11.283-0.799,20.723,0.565,30.965,12.379c-7.205-40.278,0.22-49.066-0.222-48.774c-1.094,0.72-0.901,0.635-1.975,1.465
			c-5.037,10.244-1.668,34.919,0.972,44.362c-6.861-9.558-18.534-12.064-29.189-12.498
			C385.785,292.212,385.548,293.54,385.378,294.492L385.378,294.492z"/>
		<path id="_56328448" fill="#1F1A17" stroke="#1F1A17" stroke-width="0.0753" d="M386.315,288.928
			c9.751-0.69,17.911,0.489,26.762,10.699c-6.227-34.811,0.191-42.406-0.192-42.154c-0.945,0.622-0.778,0.549-1.707,1.266
			c-4.354,8.853-1.441,30.179,0.84,38.341c-5.929-8.261-16.019-10.427-25.227-10.802
			C386.667,286.957,386.462,288.105,386.315,288.928L386.315,288.928z"/>
		<path id="_85400352" fill="#1F1A17" stroke="#1F1A17" stroke-width="0.0753" d="M387.52,283.99
			c8.278-0.586,15.204,0.415,22.718,9.082c-5.286-29.551,0.162-35.998-0.163-35.784c-0.802,0.528-0.661,0.466-1.449,1.075
			c-3.696,7.515-1.223,25.619,0.713,32.547c-5.034-7.012-13.598-8.851-21.415-9.17C387.819,282.316,387.645,283.291,387.52,283.99
			L387.52,283.99z"/>
		<path id="_56525656" fill="#1F1A17" stroke="#1F1A17" stroke-width="0.0753" d="M415.848,248.086
			c-8.248-39.058-43.162-64.063-79.819-73.707c3.259,1.35,7.745,5.369,7.745,5.369c34.494,16.219,50.804,28.583,60.594,60.519
			L415.848,248.086L415.848,248.086z"/>
		
			<ellipse id="_56471824" fill="#FFFFFF" stroke="#1F1A17" stroke-width="0.0753" cx="303.63" cy="453.411" rx="26.772" ry="24.958"/>
		
			<ellipse id="_85992808" fill="#1F1A17" stroke="#1F1A17" stroke-width="0.0753" cx="303.63" cy="453.411" rx="21.909" ry="20.425"/>
		
			<ellipse id="_56526112" fill="#FFFFFF" stroke="#1F1A17" stroke-width="0.0753" cx="303.63" cy="453.411" rx="18.56" ry="17.303"/>
		
			<ellipse id="_85993872" fill="#FFFFFF" stroke="#1F1A17" stroke-width="0.0753" cx="303.63" cy="453.411" rx="26.772" ry="24.958"/>
		
			<ellipse id="_56703376" fill="#1F1A17" stroke="#1F1A17" stroke-width="0.0753" cx="303.63" cy="453.411" rx="21.909" ry="20.425"/>
		
			<ellipse id="_56382800" fill="#FFFFFF" stroke="#1F1A17" stroke-width="0.0753" cx="303.63" cy="453.411" rx="18.56" ry="17.303"/>
		
			<ellipse id="_55904032" fill="#FFFFFF" stroke="#1F1A17" stroke-width="0.0753" cx="303.63" cy="453.411" rx="26.772" ry="24.958"/>
		
			<ellipse id="_57356832" fill="#1F1A17" stroke="#1F1A17" stroke-width="0.0753" cx="303.63" cy="453.411" rx="21.909" ry="20.425"/>
		
			<ellipse id="_56383736" fill="#FFFFFF" stroke="#1F1A17" stroke-width="0.0753" cx="303.63" cy="453.411" rx="18.56" ry="17.303"/>
		<path id="_56770080" fill="#1F1A17" stroke="#1F1A17" stroke-width="0.0753" d="M390.138,361.155
			c10.592-1.603,18.959,0.232,24.901-5.631c-2.644,3.425-6.098,4.366-11.97,5.042l0.902,0.67
			c-7.564-0.744-13.484,0.753-13.378,0.699L390.138,361.155L390.138,361.155z"/>
		<path id="_56463392" fill="#FFFFFF" stroke="#1F1A17" stroke-width="0.0753" d="M414.287,245.594
			c-9.103-35.986-39.857-59.541-74.747-69.825c2.055,1.478,4.584,3.692,4.584,3.692c34.683,15.19,52.59,31.309,61.582,60.297
			L414.287,245.594L414.287,245.594z"/>
		<g>
			<path id="_55711880" fill="#1F1A17" stroke="#1F1A17" stroke-width="0.0753" d="M435.561,368.867
				c-2.686,0.031-5.066-0.21-7.284-1.022c-2.265-0.829-4.521-2.082-6.899-4.074c0.978,6.703,0.38,10.775-0.264,13.013
				c-0.625,2.171-1.291,2.461-1.209,2.467c0.401,0.019,0.329,0,0.736-0.028c1.11-1.191,1.726-4.08,1.923-7.078
				c0.193-2.951-0.165-5.862-0.654-7.429c1.527,1.651,3.644,2.824,5.889,3.752c2.196,0.908,4.603,1.473,6.96,1.76
				C434.968,369.874,435.314,369.289,435.561,368.867L435.561,368.867z"/>
			<path id="_56317376" fill="#1F1A17" stroke="#1F1A17" stroke-width="0.0753" d="M437.637,365.828
				c-3.439,0.231-6.462,0.099-9.289-0.678c-2.87-0.789-5.751-2.032-8.833-4.046c1.566,7.372,1.036,11.959,0.362,14.46
				c-0.65,2.414-1.428,2.695-1.335,2.705c0.489,0.05,0.401,0.025,0.89,0.019c1.28-1.301,1.892-4.568,1.989-7.948
				c0.095-3.317-0.5-6.544-1.181-8.238c1.983,1.72,4.673,2.888,7.515,3.802c2.796,0.899,5.856,1.394,8.855,1.573
				C436.873,367.054,437.318,366.344,437.637,365.828L437.637,365.828z"/>
			<path id="_56383832" fill="#1F1A17" stroke="#1F1A17" stroke-width="0.0753" d="M439.807,362.328
				c-4.329,0.5-8.114,0.547-11.646-0.113c-3.606-0.673-7.196-1.779-11.052-3.652c2.296,7.801,1.914,12.798,1.236,15.52
				c-0.646,2.593-1.571,2.836-1.45,2.855c0.582,0.091,0.478,0.056,1.06,0.084c1.456-1.366,2.028-4.943,1.966-8.645
				c-0.06-3.617-0.961-7.06-1.89-8.817c2.516,1.67,5.869,2.724,9.426,3.539c3.493,0.801,7.333,1.169,11.107,1.169
				C438.889,363.772,439.422,362.934,439.807,362.328L439.807,362.328z"/>
			<path id="_56184944" fill="#1F1A17" stroke="#1F1A17" stroke-width="0.0753" d="M423.469,367.769c0,0,0.85,2.762,0.637,5.268
				c-0.212,2.507-0.637,2.167-0.637,2.167s4.716-1.614,3.654-3.229s2.846,0.765,3.909,0.595c1.062-0.17,2.294-1.105,2.294-1.105
				C429.254,371.224,426.32,369.863,423.469,367.769L423.469,367.769z"/>
			<path id="_85597056" fill="#1F1A17" stroke="#1F1A17" stroke-width="0.0753" d="M398.451,368.867
				c2.686,0.031,5.066-0.21,7.284-1.022c2.265-0.829,4.521-2.082,6.899-4.074c-0.978,6.703-0.38,10.775,0.264,13.013
				c0.625,2.171,1.291,2.461,1.209,2.467c-0.401,0.019-0.329,0-0.736-0.028c-1.11-1.191-1.726-4.08-1.923-7.078
				c-0.193-2.951,0.165-5.862,0.654-7.429c-1.527,1.651-3.644,2.824-5.889,3.752c-2.196,0.908-4.603,1.473-6.96,1.76
				C399.045,369.874,398.699,369.289,398.451,368.867L398.451,368.867z"/>
			<path id="_57223432" fill="#1F1A17" stroke="#1F1A17" stroke-width="0.0753" d="M396.375,365.828
				c3.439,0.231,6.462,0.099,9.289-0.678c2.87-0.789,5.751-2.032,8.833-4.046c-1.566,7.372-1.036,11.959-0.362,14.46
				c0.65,2.414,1.428,2.695,1.335,2.705c-0.489,0.05-0.401,0.025-0.89,0.019c-1.28-1.301-1.892-4.568-1.989-7.948
				c-0.095-3.317,0.5-6.544,1.181-8.238c-1.983,1.72-4.673,2.888-7.515,3.802c-2.796,0.899-5.856,1.394-8.855,1.573
				C397.139,367.054,396.694,366.344,396.375,365.828L396.375,365.828z"/>
			<path id="_56363888" fill="#1F1A17" stroke="#1F1A17" stroke-width="0.0753" d="M394.206,362.328
				c4.329,0.5,8.114,0.547,11.646-0.113c3.606-0.673,7.196-1.779,11.052-3.652c-2.296,7.801-1.914,12.798-1.236,15.52
				c0.646,2.593,1.571,2.836,1.45,2.855c-0.582,0.091-0.478,0.056-1.06,0.084c-1.456-1.366-2.028-4.943-1.966-8.645
				c0.06-3.617,0.961-7.06,1.89-8.817c-2.516,1.67-5.869,2.724-9.426,3.539c-3.493,0.801-7.333,1.169-11.107,1.169
				C395.123,363.772,394.59,362.934,394.206,362.328L394.206,362.328z"/>
			<path id="_25894640" fill="#1F1A17" stroke="#1F1A17" stroke-width="0.0753" d="M410.544,367.769c0,0-0.85,2.762-0.637,5.268
				s0.637,2.167,0.637,2.167s-4.716-1.614-3.654-3.229c1.062-1.614-2.846,0.765-3.909,0.595c-1.062-0.17-2.294-1.105-2.294-1.105
				C404.758,371.224,407.693,369.863,410.544,367.769L410.544,367.769z"/>
		</g>
		
			<ellipse id="_55909136" fill="#FFFFFF" stroke="#1F1A17" stroke-width="0.0753" cx="295.451" cy="330.314" rx="13.387" ry="12.48"/>
		
			<ellipse id="_56789416" fill="#1F1A17" stroke="#1F1A17" stroke-width="0.0753" cx="295.451" cy="330.314" rx="10.955" ry="10.213"/>
		
			<ellipse id="_56516200" fill="#FFFFFF" stroke="#1F1A17" stroke-width="0.0753" cx="295.451" cy="330.314" rx="9.281" ry="8.652"/>
		
			<ellipse id="_56760560" fill="#FFFFFF" stroke="#1F1A17" stroke-width="0.0753" cx="256.894" cy="317.781" rx="10.673" ry="9.95"/>
		
			<ellipse id="_56312848" fill="#1F1A17" stroke="#1F1A17" stroke-width="0.0753" cx="256.894" cy="317.781" rx="8.734" ry="8.142"/>
		
			<ellipse id="_55642344" fill="#FFFFFF" stroke="#1F1A17" stroke-width="0.0753" cx="256.894" cy="317.781" rx="7.399" ry="6.898"/>
		
			<ellipse id="_57352656" fill="#1F1A17" stroke="#1F1A17" stroke-width="0.0753" cx="227.74" cy="267.99" rx="10.955" ry="10.213"/>
		<ellipse id="_56405104" fill="#FFFFFF" stroke="#1F1A17" stroke-width="0.0753" cx="227.74" cy="267.99" rx="9.281" ry="8.652"/>
		
			<ellipse id="_55912952" fill="#FFFFFF" stroke="#1F1A17" stroke-width="0.0753" cx="199.846" cy="211.442" rx="18.814" ry="17.539"/>
		
			<ellipse id="_55910848" fill="#1F1A17" stroke="#1F1A17" stroke-width="0.0753" cx="199.846" cy="211.442" rx="15.396" ry="14.353"/>
		
			<ellipse id="_26015456" fill="#FFFFFF" stroke="#1F1A17" stroke-width="0.0753" cx="199.846" cy="211.442" rx="13.043" ry="12.159"/>
		
			<ellipse id="_85801008" fill="#FFFFFF" stroke="#1F1A17" stroke-width="0.0753" cx="295.451" cy="330.314" rx="13.387" ry="12.48"/>
		
			<ellipse id="_56312112" fill="#1F1A17" stroke="#1F1A17" stroke-width="0.0753" cx="295.451" cy="330.314" rx="10.955" ry="10.213"/>
		
			<ellipse id="_56766016" fill="#FFFFFF" stroke="#1F1A17" stroke-width="0.0753" cx="295.451" cy="330.314" rx="9.281" ry="8.652"/>
		
			<ellipse id="_56311216" fill="#FFFFFF" stroke="#1F1A17" stroke-width="0.0753" cx="256.894" cy="317.781" rx="10.673" ry="9.95"/>
		
			<ellipse id="_56765600" fill="#1F1A17" stroke="#1F1A17" stroke-width="0.0753" cx="256.894" cy="317.781" rx="8.734" ry="8.142"/>
		
			<ellipse id="_57094128" fill="#FFFFFF" stroke="#1F1A17" stroke-width="0.0753" cx="256.894" cy="317.781" rx="7.399" ry="6.898"/>
		
			<ellipse id="_56528104" fill="#1F1A17" stroke="#1F1A17" stroke-width="0.0753" cx="227.74" cy="267.99" rx="10.955" ry="10.213"/>
		<ellipse id="_55710712" fill="#FFFFFF" stroke="#1F1A17" stroke-width="0.0753" cx="227.74" cy="267.99" rx="9.281" ry="8.652"/>
		
			<ellipse id="_56547976" fill="#FFFFFF" stroke="#1F1A17" stroke-width="0.0753" cx="199.846" cy="211.442" rx="18.814" ry="17.539"/>
		
			<ellipse id="_56403472" fill="#1F1A17" stroke="#1F1A17" stroke-width="0.0753" cx="199.846" cy="211.442" rx="15.396" ry="14.353"/>
		
			<ellipse id="_55911400" fill="#FFFFFF" stroke="#1F1A17" stroke-width="0.0753" cx="199.846" cy="211.442" rx="13.043" ry="12.159"/>
		
			<ellipse id="_56409824" fill="#1F1A17" stroke="#1F1A17" stroke-width="0.0753" cx="295.451" cy="330.314" rx="10.955" ry="10.213"/>
		
			<ellipse id="_56412432" fill="#FFFFFF" stroke="#1F1A17" stroke-width="0.0753" cx="295.451" cy="330.314" rx="9.281" ry="8.652"/>
		
			<ellipse id="_56554320" fill="#1F1A17" stroke="#1F1A17" stroke-width="0.0753" cx="256.894" cy="317.781" rx="8.734" ry="8.142"/>
		
			<ellipse id="_57021896" fill="#FFFFFF" stroke="#1F1A17" stroke-width="0.0753" cx="256.894" cy="317.781" rx="7.399" ry="6.898"/>
		
			<ellipse id="_56318848" fill="#1F1A17" stroke="#1F1A17" stroke-width="0.0753" cx="199.846" cy="211.442" rx="15.396" ry="14.353"/>
		
			<ellipse id="_56316144" fill="#FFFFFF" stroke="#1F1A17" stroke-width="0.0753" cx="199.846" cy="211.442" rx="13.043" ry="12.159"/>
		<ellipse id="_56304456" fill="#FFFFFF" stroke="#1F1A17" stroke-width="0.0753" cx="227.74" cy="267.99" rx="13.387" ry="12.48"/>
		
			<ellipse id="_55715272" fill="#1F1A17" stroke="#1F1A17" stroke-width="0.0753" cx="227.74" cy="267.99" rx="10.955" ry="10.213"/>
		<ellipse id="_56383856" fill="#FFFFFF" stroke="#1F1A17" stroke-width="0.0753" cx="227.74" cy="267.99" rx="9.281" ry="8.652"/>
		
			<ellipse id="_56521448" fill="#1F1A17" stroke="#1F1A17" stroke-width="0.0753" cx="182.677" cy="148.508" rx="10.955" ry="10.213"/>
		
			<ellipse id="_85994224" fill="#FFFFFF" stroke="#1F1A17" stroke-width="0.0753" cx="182.677" cy="148.508" rx="9.281" ry="8.652"/>
		
			<ellipse id="_85993848" fill="#1F1A17" stroke="#1F1A17" stroke-width="0.0753" cx="182.677" cy="148.508" rx="10.955" ry="10.213"/>
		
			<ellipse id="_56319128" fill="#FFFFFF" stroke="#1F1A17" stroke-width="0.0753" cx="182.677" cy="148.508" rx="9.281" ry="8.652"/>
		
			<ellipse id="_56795280" fill="#FFFFFF" stroke="#1F1A17" stroke-width="0.0753" cx="182.677" cy="148.508" rx="13.387" ry="12.48"/>
		
			<ellipse id="_56308128" fill="#1F1A17" stroke="#1F1A17" stroke-width="0.0753" cx="182.677" cy="148.508" rx="10.955" ry="10.213"/>
		
			<ellipse id="_56547736" fill="#FFFFFF" stroke="#1F1A17" stroke-width="0.0753" cx="182.677" cy="148.508" rx="9.281" ry="8.652"/>
		<path id="_56765448" fill="#1F1A17" stroke="#1F1A17" stroke-width="0.0753" d="M389.962,261.772c0,0-14.995-36.909-39.655-55.513
			c-24.66-18.604-31.182-22.569-31.182-22.569s-10.282,21.458-3.808,33.726c6.475,12.268,26.62,23.822,30.33,2.897
			c19.556,9.234,2.726,20.958,3.749,24.707c1.022,3.749,6.475,8.86,20.447,11.927C383.815,260.014,389.962,261.772,389.962,261.772
			L389.962,261.772z"/>
		<path id="_57091320" fill="#1F1A17" stroke="#1F1A17" stroke-width="0.0753" d="M316.71,182.26
			c-2.131,5.09-2.969,7.583-5.483,19.651c-2.513,12.068-11.757-25.388-35.1-16.869c25.737,22.328-15.883,21.351-29.477,28.796
			l-3.629,1.988c0,0-14.45-23.017-14.879-40.673c-0.429-17.657,1.67-33.714,1.67-33.714s15.767,3.842,45.102,18.79
			C304.249,175.176,316.71,182.26,316.71,182.26L316.71,182.26z"/>
		<path id="_56552512" fill="#1F1A17" stroke="#1F1A17" stroke-width="0.0753" d="M377.339,324.082
			c-28.078-4.718-42.654-8.733-38.878-17.123c11.674-25.942,25.419-18.319,29.507-7.072c0,0,8.775-10.65-2.726-18.061
			c-11.501-7.412-12.609-5.112-12.268-8.179c0.341-3.067,5.453-16.698,5.453-16.698c11.369,3.919,30.77,7.026,30.503,7.718
			C381.15,284.845,379.505,302.697,377.339,324.082L377.339,324.082z"/>
		<path id="_85802720" fill="#FFFFFF" stroke="#1F1A17" stroke-width="0.0753" d="M375.789,321.843
			c-24.782-4.164-39.606-7.111-36.273-14.517c11.592-24.238,23.046-18.233,27.802-4.927c5.219-3.408,9.408-15.995-2.058-22.536
			c-11.465-6.542-11.129-4.512-10.828-7.219c0.301-2.707,5.516-13.803,5.516-13.803c10.034,3.459,27.158,6.201,26.922,6.812
			C380.004,283.464,377.7,302.969,375.789,321.843L375.789,321.843z"/>
		<path id="_56549760" fill="#1F1A17" d="M356.309,300.967c-0.948,0.466-2.336,0.568-2.479-0.853
			c-0.163-1.613,1.988-2.385,3.167-2.147c1.486,0.3,2.396,1.87,2.006,3.441c-0.888,3.566-5.872,3.692-7.455,0.97
			c-1.552-2.668,0.28-5.815,2.85-6.957c4.595-2.042,9.11,2.72,6.994,7.545c-1.573,3.588-5.926,5.359-9.274,4.06
			c-4.255-1.652-5.553-7.271-3-11.351c5.545-8.86,17.175-2.149,18.695,6.265l0.202-0.032c-0.739-5.371-4.093-10.668-9.533-11.703
			c-6.444-1.226-13.264,4.504-12.294,11.701c0.8,5.933,6.844,9.172,12.137,6.792c4.052-1.822,6.72-6.552,5.118-10.96
			c-1.905-5.24-8.34-6.044-12.153-2.114c-2.583,2.662-2.332,7.267,0.607,9.225c2.885,1.922,8.129,0.144,8.235-4.004
			c0.091-3.589-3.92-4.89-6.281-2.496C352.071,300.155,354.593,302.97,356.309,300.967L356.309,300.967z"/>
		<path id="_56517216" fill="#1F1A17" stroke="#1F1A17" stroke-width="0.0753" d="M345.136,300.054
			c-1.857,8.048,5.224,13.692,13.12,11.587c10.668-2.845,20.364-16.214,14.142-27.518c-3.427-6.227-12.525-9.282-14.44-10.055
			c-3.526-1.423,2.09-11.614,3.332-13.275l23.206,6.036c-3.361,7.321-9.485,43.968-9.712,52.821
			c-4.918-0.131-34.038-3.693-33.915-9.471C340.991,304.401,345.136,300.055,345.136,300.054L345.136,300.054z"/>
		<path id="_56804816" fill="#FFFFFF" stroke="#1F1A17" stroke-width="0.0753" d="M387.509,259.844c0,0-14.156-34.844-37.437-52.408
			s-30.245-21.731-30.245-21.731s-9.231,19.851-3.011,31.671c6.219,11.819,24.418,21.123,27.92,1.369
			c22.551,8.888,5.784,22.248,6.749,25.787c0.965,3.539,6.113,8.365,19.303,11.26C383.979,258.687,387.509,259.844,387.509,259.844
			L387.509,259.844z"/>
		<path id="_55714736" fill="#1F1A17" stroke="#1F1A17" stroke-width="0.0753" d="M384.173,257.423c0,0-13.349-32.936-34.75-49.082
			c-21.401-16.146-28.91-20.403-28.91-20.403s-8.485,17.908-2.768,28.773c5.717,10.865,23.301,18.667,26.52,0.508
			c24.777,11.206,9.601,23.698,10.489,26.951c0.887,3.253,5.619,7.689,17.745,10.351
			C384.623,257.183,384.173,257.423,384.173,257.423L384.173,257.423z"/>
		<path id="_54636672" fill="#FFFFFF" stroke="#1F1A17" stroke-width="0.0753" d="M314.929,182.465
			c-1.951,4.661-3.466,10.411-5.02,17.991c-1.554,7.581-10.393-26.33-36.14-15.785c27.236,22.974-17.834,17.851-30.226,28.184
			c0,0-13.145-22.095-13.537-38.261c-0.392-16.166,1.529-30.867,1.529-30.867s14.453,3.621,41.294,17.203
			C299.669,174.512,314.929,182.465,314.929,182.465L314.929,182.465z"/>
		<path id="_56903928" fill="#1F1A17" stroke="#1F1A17" stroke-width="0.0753" d="M312.79,182.872
			c-1.785,4.264-3.392,8.74-3.887,14.286c-0.495,5.546-12.55-26.233-37.601-12.563c24.922,21.022-15.637,15.737-26.976,25.193
			c0,0-12.028-20.218-12.387-35.01c-0.359-14.792,1.4-28.244,1.4-28.244s13.225,3.314,37.785,15.741
			C295.683,174.703,312.79,182.872,312.79,182.872L312.79,182.872z"/>
		<path id="_56416032" fill="#1F1A17" d="M298.558,270.349c-0.304,3.853-2.574,8.411-7.311,6.209
			c-5.38-2.5-3.793-10.707-0.843-13.974c3.718-4.116,10.358-4.048,14.571,0.115c9.561,9.449,0.652,25.366-10.866,25.265
			c-11.293-0.1-17.771-11.737-16.567-21.954c2.155-18.269,25.566-23.583,36.798-7.918c8.351,11.647,5.797,28.649-4.543,36.756
			c-13.142,10.304-33.245,3.896-41.313-11.753c-17.522-33.986,25.304-58.047,54.615-47.122l0.279-0.696
			c-18.279-7.703-41.204-7.041-54.617,8.141c-15.89,17.985-10.597,50.14,13.858,60.525c20.16,8.561,41.634-4.408,44.029-25.502
			c1.834-16.15-8.066-33.374-24.927-36.564c-20.041-3.791-34.587,14.953-29.341,34.288c3.553,13.097,18.51,20.905,30.157,15.314
			c11.435-5.488,15.632-25.307,2.777-33.382c-11.121-6.986-22.704,3.202-19.578,15.101
			C288.091,282.17,301.656,279.489,298.558,270.349L298.558,270.349z"/>
		<path id="_56384080" fill="#1F1A17" stroke="#1F1A17" stroke-width="0.0753" d="M348.812,229.554
			c-8.181,10.108-22.265,8.996-33.291-7.687c-10.81-16.356-21.086-35.574-33.601-34.78c0,0,10.394,6.816,8.86,12.098
			c-1.534,5.282-26.05,11.42-33.993,14.374c-15.004,5.58,1.615,23.241,2.942,53.435c12.045-48.965,62.739-32.334,67.775-28.917
			C341.959,247.885,345.971,249.434,348.812,229.554L348.812,229.554z"/>
		<path id="_85993944" fill="#1F1A17" stroke="#1F1A17" stroke-width="0.0753" d="M208.541,304.266
			c16.923,2.908,40.5-6.282,46.388-26.845c2.797-9.769,0.598-21.904,0.598-21.904c0.783,13.834-22.633,39.344-44.649,19.542
			c-0.25,7.629,17.231,20.003,31.342,14.687c-4.547,7.718-25.21,7.999-30.981-4.977L208.541,304.266L208.541,304.266z"/>
		<path id="_55905920" fill="#1F1A17" stroke="#1F1A17" stroke-width="0.0753" d="M245.46,267.466
			c-5.928-18.296-25.933-18.444-32.501-5.305c0,0-17.555-5.327-47.993-24.087c-13.86-8.542,1.415-22.724-0.444-31.137
			c14.313,7.838-0.821,16.212,4.887,26.095c5.708,9.883,13.499-13.949,38.222,7.387C216.189,223.759,249.572,235.448,245.46,267.466
			L245.46,267.466z"/>
		<path id="_56424672" fill="#1F1A17" stroke="#1F1A17" stroke-width="0.0753" d="M223.616,162.667
			c-1.673,23.639,23.659,65.772,26.686,74.618c3.027,8.847,3.334,14.209,2.823,18.639c-0.511,4.43-2.045,9.371-2.045,9.371
			s4.653-13.514-8.434-27.774c-8.663-9.439-29.084-8.608-24.161-15.114c7.701-10.178,3.063-18.054,1.414-20.923
			C210.71,185.492,222.426,164.069,223.616,162.667L223.616,162.667z"/>
		<path id="_56739416" fill="#1F1A17" stroke="#1F1A17" stroke-width="0.0753" d="M227.162,140.545
			c-12.729,35.626-15.464,39.46-12.027,55.337c-26.167-17.005-49.184,11.902-30.934,30.696c0,0-6.73,5.577-9.882-0.557
			c-3.152-6.134,0.899-15.284-3.702-19.714c-4.601-4.43-5.537-3.038-5.537-3.038c3.757-10.635-0.882-34.45-10.894-52.437
			c11.315-1.073,9.646,19.708,35.058,13.377c12.851-3.201,9.028-25.793,17.77-6.89c7.17-21.847-11.862-23.774-14.229-30.234
			C205.933,132.268,214.844,135.256,227.162,140.545L227.162,140.545z"/>
		<path id="_56419184" fill="#1F1A17" stroke="#1F1A17" stroke-width="0.0753" d="M87.335,71.221
			c30.33,24.877,43.082,46.753,63.755,74.613c6.029-20.086-28.184-45.037-33.425-49.736c5.089,2.956,33.267,29.46,70.771,29.242
			C148.294,110.422,127.817,97.121,87.335,71.221L87.335,71.221z"/>
		<path id="_56377280" fill="#1F1A17" stroke="#1F1A17" stroke-width="0.0753" d="M315.489,238.97
			c7.384,7.277,18.215,14.836,17.193,37.583c-1.022,22.747-21.537,30.658-21.537,30.658s14.313,5.878,20.191-1.789
			c5.13-6.692,19.795-29.247,36.024-12.6c3.383-13.399-20.427-11.402-16.6-21.649c2.456-6.575,7.308-15.898-1.78-19.846
			C339.892,247.379,315.489,238.97,315.489,238.97L315.489,238.97z"/>
		<path id="_56213432" fill="#FFFFFF" stroke="#1F1A17" stroke-width="0.0753" d="M347.489,232.161
			c-7.445,9.198-24.128,4.971-34.162-10.211c-9.837-14.885-16.299-30.692-28.644-33.73c0,0,9.243,6.419,7.847,11.226
			c-1.396,4.807-26.7,13.146-33.928,15.835c-13.654,5.078,1.469,21.15,2.677,48.628c7.285-24.33,29.199-33.542,47.663-32.759
			c10.413,0.442,17.623,4.896,22.17,7.828C338.242,243.577,344.903,250.253,347.489,232.161L347.489,232.161z"/>
		<path id="_56214704" fill="#FFFFFF" stroke="#1F1A17" stroke-width="0.0753" d="M319.449,241.215
			c6.249,6.159,15.887,14.773,14.256,36.067c-1.631,21.294-18.274,29.191-18.274,29.191s9.714,3.989,14.688-2.499
			c4.341-5.663,22.593-27.344,36.328-13.255c2.671-9.109-20.023-9.911-16.785-18.582c2.078-5.564,7.008-16.898-1.577-20.24
			C339.5,248.554,319.449,241.215,319.449,241.215L319.449,241.215z"/>
		<path id="_56215496" fill="#1F1A17" stroke="#1F1A17" stroke-width="0.0753" d="M376.999,351.685l0.208-15.337
			c0,0-11.623,9.968-29.258,6.39c-17.635-3.578-27.462-7.791-30.16-0.765c-2.698,7.026,6.855,10.477,10.436,7.833
			c3.581-2.644-1.711-8.902-5.977-3.192c5.434-12.754,18.091-1.087,10.24,5.866c-8.222,7.28-21.7-3.515-24.446-8.191
			c-13.586,3.251-21.285,2.837-46.603-4.213c-25.318-7.05-52.755-32.52-52.755-32.52s32.228,40.582,76.681,46.751
			C329.815,360.475,376.999,351.685,376.999,351.685L376.999,351.685z"/>
		<path id="_56183840" fill="#1F1A17" stroke="#1F1A17" stroke-width="0.0753" d="M256.345,285.01
			c-0.442,0.813,6.091,18.442-4.511,21.201c-6.968,1.814-14.003,14.41-0.1,25.946c-10.731-3.596-32.071-16.401-39.812-24.289
			C235.343,308.138,248.289,300.127,256.345,285.01L256.345,285.01z"/>
		<path id="_56217128" fill="#1F1A17" stroke="#1F1A17" stroke-width="0.0753" d="M304.578,314.854
			c-10.372-0.416-16.897,1.169-20.208,4.477c-10.109,10.099,0.329,27.784-29.061,13.849c10.491-2.788,14.403-7.947,14.536-14.143
			c0.214-9.924-11.398-16.375-10.155-25.204C270.352,303.509,287.914,309.817,304.578,314.854L304.578,314.854z"/>
		<path id="_55345624" fill="#1F1A17" stroke="#1F1A17" stroke-width="0.0753" d="M377.339,326.514c0,0-19.178-1.537-39.195-4.65
			c-20.017-3.113-33.567-7.01-33.567-7.01c9.762,9.315,9.456,20.02,4.738,25.674c8.91-10.106,25.788-3.221,35.497-1.603
			c10.611,1.769,23.016,2.29,32.445-6.389L377.339,326.514L377.339,326.514z"/>
		<path id="_56217576" fill="#1F1A17" stroke="#1F1A17" stroke-width="0.0753" d="M378.581,358.423c0,0-62.512-0.2-76.014,2.732
			c-13.503,2.932-20.72,4.602-18.771,15.831c1.949,11.229,21.56,11.432,20.188,0.256s-14.223-7.847-9.892,1.648
			c-6.073-2.15-4.316-9.076-1.231-11.258c15.736-11.133,77.679-4.35,54.191,5.771C351.429,373.94,385.765,370.701,378.581,358.423
			L378.581,358.423z"/>
		<path id="_56218720" fill="#1F1A17" stroke="#1F1A17" stroke-width="0.0753" d="M382.884,365.897c0,0,0.08,3.424-14.744,9.047
			c-14.824,5.623-26.515-0.312-26.515-0.312s1.196-0.515,3.373-3.037c2.177-2.522,0.484-4.24-7.718-5.79
			c-8.19-1.548-26.036-2.601-35.623,1.593c18.088,18.451-10.064,35.114-27.704,9.342c0,0-4.889,5.551-8.08,11.962
			c-3.191,6.411-6.95,15.737-6.95,15.737s24.106,7.564,42.508,0.152c18.402-7.412,22.187-15.615,20.655-22.126
			c-1.532-6.512-8.165-10.931-10.214-12.513c5.238-2.154,20.709-1.318,23.771-0.295c3.062,1.023-3.915,4.959-3.915,4.959
			s2.616,10.402,22.279,9.636s32.917-11.371,32.917-11.371L382.884,365.897L382.884,365.897z"/>
		<path id="_56203032" fill="#1F1A17" stroke="#1F1A17" stroke-width="0.0753" d="M389.935,377.966
			c-8.447,8.334-45.221,18.19-59.621,2.601c3.566,29.183-55.749,35.965-73.308,29.608c-3.031,10.989-5.82,20.425-6.533,28.408
			c-0.712,7.983,62.511-22.154,79.195-34.858c16.684-12.704,29.257,21.694-0.506,10.199c9.655,18.678,39.52,13.275,30.936-16.085
			c14.208,0.866,25.365-0.308,37.699-8.159L389.935,377.966L389.935,377.966z"/>
		<path id="_56220552" fill="#1F1A17" stroke="#1F1A17" stroke-width="0.0753" d="M297.222,425.292
			c45.978-9.5,55.738,54.455,6.509,59.296c-13.603,1.338-32.696-8.247-50.831-18.582c-0.511,5.112,10.57,21.242,20.989,33.586
			c10.418,12.344,24.145,20.963,24.145,20.963c12.955-4.913,25.365-11.911,36.692-20.697c8.266-6.411,15.956-13.775,22.86-21.974
			c3.552-4.218,4.258-6.522,7.27-24.907c1.879-11.473,14.134-21.17,12.835-1.415c36.106-59.467-9.186-62.118-12.178-36.151
			c5.524-14.219,21.462,3.966,1.656,14.382c-12.614,6.634-42.74,2.919-43.146-18.477
			C313.538,416.864,297.222,425.291,297.222,425.292L297.222,425.292z"/>
		<path id="_56188648" fill="#1F1A17" stroke="#1F1A17" stroke-width="0.0753" d="M280.335,433.664
			c-9.207,9.773-12.492,26.982,0.128,39.708c-11.64-6.812-18.216-8.888-28.978-12.227c-1.594-4.577-2.183-17.314-1.602-17.51
			C260.765,443.719,271.983,439.35,280.335,433.664L280.335,433.664z"/>
		<path id="_56181680" fill="#FFFFFF" stroke="#1F1A17" stroke-width="0.0753" d="M368.905,435.26c0,0-12.524,6.134-12.779,23.258
			s-5.367,23.003-20.702,33.482c-15.335,10.479-36.293,17.635-36.293,17.635c-19.678-10.058-29.701-21.405-42.683-38.338
			c27.109,26.586,79.493,24.07,85.11-12.013c2.19-14.069-5.878-24.792-5.878-24.792C344.461,435.687,360.808,439.594,368.905,435.26
			L368.905,435.26z"/>
		<g>
			<path id="_56326736" fill="#1F1A17" stroke="#1F1A17" stroke-width="0.0753" d="M422.639,383.23c0,0-3.575-0.638-1.532,7.15
				c2.043,7.788,4.341,16.215,3.192,22.855c-1.149,6.639-7.278,12.896-7.278,12.896l-0.255-6.895c0,0,5.145-5.257,5.162-10.942
				c0.039-13.448-7.407-21.07-2.896-25.739C420.981,380.535,422.639,383.23,422.639,383.23L422.639,383.23z"/>
			<path id="_55713128" fill="#1F1A17" stroke="#1F1A17" stroke-width="0.0753" d="M416.898,394.664l-0.059,21.221
				c2.458-4.609,3.007-6.324,3.055-10.26C419.969,399.582,416.898,394.664,416.898,394.664L416.898,394.664z"/>
			<path id="_56210864" fill="#1F1A17" stroke="#1F1A17" stroke-width="0.0753" d="M411.372,383.23c0,0,3.575-0.638,1.532,7.15
				c-2.043,7.788-4.341,16.215-3.192,22.855c1.149,6.639,7.278,12.896,7.278,12.896l0.255-6.895c0,0-5.145-5.257-5.162-10.942
				c-0.039-13.448,7.407-21.07,2.896-25.739C413.029,380.535,411.372,383.23,411.372,383.23L411.372,383.23z"/>
			<path id="_56209368" fill="#1F1A17" stroke="#1F1A17" stroke-width="0.0753" d="M417.115,394.664l0.059,21.221
				c-2.458-4.609-3.007-6.324-3.055-10.26C414.044,399.582,417.115,394.664,417.115,394.664L417.115,394.664z"/>
		</g>
		<path id="_56209328" fill="#1F1A17" stroke="#1F1A17" stroke-width="0.0753" d="M412.533,243.202
			c-8.266-32.482-36.719-55.131-69.73-65.869c1.927,1.386,1.896,1.541,1.896,1.541c32.845,13.961,53.598,32.865,61.782,60.261
			L412.533,243.202L412.533,243.202z"/>
	</g>
</g>
</svg>
