<?xml version="1.0" encoding="utf-8"?>
<!-- Generator: Adobe Illustrator 17.0.0, SVG Export Plug-In . SVG Version: 6.00 Build 0)  -->
<!DOCTYPE svg PUBLIC "-//W3C//DTD SVG 1.1//EN" "http://www.w3.org/Graphics/SVG/1.1/DTD/svg11.dtd">
<svg version="1.1" id="Layer_1" xmlns="http://www.w3.org/2000/svg" xmlns:xlink="http://www.w3.org/1999/xlink" x="0px" y="0px"
	 width="800px" height="600px" viewBox="0 0 800 600" enable-background="new 0 0 800 600" xml:space="preserve">
<path fill="#FFFFFF" d="M702.082,82.832c0,0-40.328-7.476-110.531,13.442c0,0-107.533-1.495-129.939-5.981
	c0,0-128.451-49.285-147.874-40.327c0,0-5.967,34.36,11.947,67.212c0,0-11.947,137.416,0,186.7c0,0,301.715,70.203,313.67,64.222
	l40.328-23.895c0,0-13.443-152.345,1.495-174.745C681.177,169.461,714.029,81.337,702.082,82.832z"/>
<path fill="#231F20" d="M636.481,371.958L636.481,371.958c-33.268-0.007-300.241-62.037-311.587-64.673l-2.096-0.491l-0.512-2.089
	c-11.524-47.558-1.338-173.032-0.171-186.789c-17.682-33.234-12.071-67.11-11.817-68.551l0.314-1.802l1.666-0.771
	c2.055-0.949,4.819-1.407,8.445-1.407c33.214,0,137.708,39.945,142.139,41.645c20.495,4.055,119.986,5.619,128.206,5.742
	c66.714-19.785,106.666-14.193,111.22-13.449l0.089-0.007c1.775,0,3.318,0.819,4.355,2.308c6.411,9.237-13.442,65.355-22.277,89.059
	l-0.369,0.717c-11.694,17.539-4.629,130.465-0.921,172.5l0.192,2.192l-42.219,25.014
	C639.894,371.74,638.569,371.958,636.481,371.958z M328.6,300.971c25.841,5.987,276.933,63.99,307.881,63.997
	c1.174,0,1.556-0.096,1.57-0.096l37.959-22.55c-2.001-23.321-12.255-151.458,2.02-174.432c12.705-34.135,24.776-73.971,23.13-81.665
	c-3.734-0.608-43.338-6.049-108.612,13.402l-0.512,0.15l-0.533-0.007c-4.404-0.062-108.114-1.55-130.575-6.049
	c-1.645-0.574-108.277-41.345-140.207-41.345c-1.7,0-2.929,0.123-3.816,0.28c-0.888,7.797-2.772,36.033,11.852,62.85l0.498,0.921
	l-0.089,1.051C329.051,118.831,317.732,251.085,328.6,300.971z"/>
<path fill="#231F20" d="M684.904,81.337c0,0-87.878,56.753-45.55,286.764c0,0,13.443,1.994,18.413-5.967
	c0,0,9.961-16.931,19.914-13.948c0,0-7.967-172.26,4.984-184.208C682.665,163.979,732.694,66.399,684.904,81.337z"/>
<path fill="#FFFFFF" d="M196.298,410.429c0,0,1.004,34.853,53.77,51.77c0,0,48.8,47.803,35.849,85.639
	c0,0,353.485,8.964,371.406-34.853c0,0,0-18.924-16.924-22.904c-4.806-12.46-8.882-25.52-11.62-38.6
	c-2.396-11.449,3.707-34.627-6.567-42.888c-9.531-7.653-33.426,3.318-44.54,5.816c0,0-14.44-34.353-46.302-30.373L196.298,410.429z"
	/>
<path fill="#231F20" d="M358.461,552.091h-0.007c-42.287,0-72.326-0.751-72.626-0.758l-4.759-0.123l1.543-4.506
	c11.367-33.214-29.124-76.026-34.429-81.44c-53.698-17.566-55.337-53.218-55.381-54.733l-0.095-3.325l338.391-26.653
	c1.734-0.226,3.57-0.335,5.352-0.335c25.404,0,39.058,22.147,43.14,30.087c2.02-0.573,4.321-1.304,6.779-2.089
	c8.083-2.58,18.146-5.789,26.359-5.789c4.902,0,8.827,1.153,11.674,3.441c8.158,6.56,7.749,19.6,7.394,31.104
	c-0.164,5.311-0.321,10.329,0.403,13.79c2.43,11.606,6.069,23.854,10.835,36.416c14.009,4.362,17.784,18.604,17.784,25.806
	l-0.259,1.325C647.786,545.53,489.227,552.091,358.461,552.091z M290.505,544.444c9.879,0.205,35.241,0.656,67.95,0.656
	c174.787,0,284.853-12.255,295.346-32.811c-0.198-3.188-1.755-15.88-14.2-18.808l-1.796-0.417l-0.669-1.727
	c-5.202-13.49-9.162-26.659-11.776-39.139c-0.895-4.281-0.731-9.701-0.553-15.436c0.307-9.879,0.655-21.069-4.786-25.444
	c-1.57-1.263-4.021-1.898-7.292-1.898c-7.127,0-16.61,3.024-24.236,5.454c-3.844,1.229-7.325,2.335-10.056,2.949l-2.847,0.635
	l-1.14-2.689c-0.122-0.308-13.783-31.828-42.649-28.264l-331.56,26.12c1.744,8.684,10.182,32.197,50.896,45.243l0.785,0.252
	l0.594,0.581C254.492,461.639,299.141,505.939,290.505,544.444z"/>
<path fill="#FFFFFF" d="M124.607,283.964c0,0-53.771,80.655,29.875,126.464c0,0,30.865,17.921,47.789-2
	c0,0,47.796,67.718,74.681,13.948C276.953,422.376,262.015,246.129,124.607,283.964z"/>
<path fill="#231F20" d="M250.546,446.619h-0.004c-20.966,0-41.577-23.833-48.619-32.831c-5.601,5.004-12.675,7.537-21.085,7.537
	c-14.378,0-27.558-7.551-28.11-7.872c-25.253-13.832-40.894-32.258-46.413-54.726c-9.517-38.744,14.364-75.173,15.384-76.702
	l0.724-1.086l1.256-0.348c13.132-3.611,25.759-5.448,37.532-5.448c105.536,0,119.101,145.465,119.225,146.939l0.082,0.976
	l-0.437,0.881C272.556,438.993,262.619,446.619,250.546,446.619z M202.525,402.735l2.601,3.68
	c0.236,0.328,23.738,33.214,45.417,33.214h0.004c8.985,0,16.658-6.028,22.83-17.921c-1.345-12.446-17.426-139.573-112.165-139.573
	c-10.76,0-22.314,1.632-34.371,4.848c-3.765,6.186-21.662,37.917-13.726,70.121c5.045,20.467,19.529,37.378,43.048,50.261
	c0.192,0.11,12.217,6.971,24.677,6.971c7.848,0,14.163-2.745,18.771-8.165L202.525,402.735z"/>
<path fill="#FFFFFF" d="M124.109,267.539c0,0,38.832,0,103.805,59.743c0,0,50.035,68.701,34.354,114.258
	c0,0,236.735-46.295,262.125-70.947c0,0,44.806-2.984,34.353-53.019c0,0-73.186-125.468-165.788-113.521
	c0,0-147.868,32.114-181.477,41.072C211.482,245.125,136.05,248.613,124.109,267.539z"/>
<path fill="#231F20" d="M256.991,446.134l1.973-5.735c14.917-43.331-33.385-110.387-33.876-111.063
	c-62.413-57.293-100.618-58.303-100.996-58.303l-6.271-0.055l3.332-5.305c12.37-19.607,80.28-23.566,89.793-24.024
	c33.993-9.005,179.795-40.689,181.269-41.01c4.568-0.608,8.923-0.881,13.245-0.881c87.598,0,153.541,111.316,156.306,116.053
	l0.403,1.044c3.537,16.918,1.413,30.647-6.295,40.806c-9.81,12.923-25.444,15.736-29.991,16.289
	c-29.992,25.24-253.346,69.145-262.942,71.015L256.991,446.134z M131.649,264.978c14.48,2.82,49.073,14.159,98.631,59.73
	c2.444,3.249,47.574,65.936,36.911,112.299c83.003-16.406,235.711-50.418,254.765-68.919l0.915-0.895l1.283-0.089
	c0.164-0.013,16.822-1.324,26.182-13.715c6.322-8.363,8.042-19.983,5.107-34.531c-4.833-8.015-69.22-112.108-149.984-112.108
	c-4.021,0-8.077,0.259-12.05,0.772c-1.188,0.266-147.881,32.148-181.026,40.983l-0.74,0.109
	C193.441,249.46,147.86,253.973,131.649,264.978z"/>
<path fill="#231F20" d="M175.64,276.495c0,0,51.53,19.416,72.442,46.301c0,0,73.93,78.416,36.593,112.019
	c0,0,27.63-24.639-40.327-109.028C244.347,325.787,198.039,284.708,175.64,276.495z"/>
<path fill="#231F20" d="M205.515,303.387c0,0-27.636-8.227-31.37-20.918c0,0-47.045-38.839-56.009,8.22
	c0,0-6.725,21.655-2.239,24.646c0,0,14.193-29.882,61.238-22.407C177.134,292.928,201.773,314.583,205.515,303.387z"/>
<path fill="#231F20" d="M207.01,328.026c0,0-79.167-52.275-94.849,10.459c0,0,14.187-53.777,94.849-5.23
	C207.01,333.255,209.986,334,207.01,328.026z"/>
<path fill="#231F20" d="M202.763,347.442l-5.721-3.987l-3.981-4.724l-3.741-4.478h-15.177l-2.239-3.735l-5.728-2.239l-0.245-3.236
	l-15.682-0.252c0,0-9.469-7.721-13.941-0.744l1.242,1.741c0,0,3.488-3.488,12.698,1.987c0,0,10.951-1.987,13.682,1.249
	c0,0,7.482,5.475,7.721,8.465c0,0,11.456-1.748,16.679,2.239C188.331,339.727,200.531,355.403,202.763,347.442z"/>
<path fill="#231F20" d="M204.518,302.636c0,0,76.423,61.477,56.999,134.8c0,0,10.466-83.523-60.856-131.81L204.518,302.636z"/>
<path fill="#231F20" d="M243.972,357.526c0,0-16.057,12.323-37.344,5.981c0,0-59.737-50.042-78.785-21.287
	c0,0,20.912-19.792,76.177,23.894c0,0,22.4,8.213,42.942-3.358C246.962,362.756,246.586,356.782,243.972,357.526z"/>
<path fill="#231F20" d="M140.166,344.084c0,0,15.682-5.598,71.316,31.739c0,0,27.267-8.213,43.318,11.203
	c0,0-17.546-13.818-44.062-7.844C210.738,379.181,187.963,357.526,140.166,344.084z"/>
<path fill="#231F20" d="M138.296,348.186c0,0,62.734,26.14,74.681,35.48c0,0,41.454-8.213,48.172,19.04l0.368,10.452
	c0,0-18.297-21.28-40.696-23.894C220.821,389.265,141.654,352.296,138.296,348.186z"/>
<path fill="#231F20" d="M259.653,423.243c0,0-83.638-66.086-129.564-60.119l0.369,4.11c0,0,45.557-7.094,127.331,58.999
	L259.653,423.243z"/>
<path fill="#231F20" d="M148.755,376.198c0,0,30.619-2.99,111.65,55.641C260.405,431.838,202.9,395.983,148.755,376.198z"/>
<path fill="#231F20" d="M129.591,370.101c0,0,13.941,16.924,30.859,15.928c0,0,19.921,1.993,48.8,30.373
	c0,0,46.95,41.024,80.3,12.145c0,0-15.982,41.815-84.055-8.623l-0.731-0.539c0,0-12.944-24.4-49.783-28.872
	C154.981,390.514,129.591,381.55,129.591,370.101z"/>
<path fill="#231F20" d="M473.71,419.318l-59.593,31.541c0,0-25.8-2.178-16.017-16.48l70.019-24.031
	C468.118,410.347,478.345,408.087,473.71,419.318z M463.039,415.891l-48.813,18.685c0,0,6.82,4.67,14.924,3.488l35.125-18.337
	C464.275,419.727,466.117,415.986,463.039,415.891z"/>
<path fill="#231F20" d="M458.772,393.867l49.612,45.666c0,0,6.548,25.034-10.193,20.59l-46.014-57.996
	C452.177,402.127,446.64,393.252,458.772,393.867z M459.099,405.069l33.897,39.788c0,0,2.13-7.988-1.693-15.231l-28.988-27.008
	C462.315,402.618,458.164,402.134,459.099,405.069z"/>
<path fill="#231F20" d="M281.603,436.003c0,0,92.588,5.462,159.145-32.469c0,0,74.675,5.427,91.162-19.177
	c0,0,0.348-7.68-1.216-9.469c-1.228-1.393-6.711-4.499-6.711-4.499s-56.822,27.492-104.12,23.39
	C419.864,393.778,320.441,435.348,281.603,436.003z"/>
</svg>
