<?xml version="1.0" encoding="utf-8"?>
<!-- Generator: Adobe Illustrator 17.0.0, SVG Export Plug-In . SVG Version: 6.00 Build 0)  -->
<!DOCTYPE svg PUBLIC "-//W3C//DTD SVG 1.1//EN" "http://www.w3.org/Graphics/SVG/1.1/DTD/svg11.dtd">
<svg version="1.1" id="Layer_1" xmlns="http://www.w3.org/2000/svg" xmlns:xlink="http://www.w3.org/1999/xlink" x="0px" y="0px"
	 width="800px" height="600px" viewBox="0 0 800 600" enable-background="new 0 0 800 600" xml:space="preserve">
<g>
	<g>
		<path fill="#231F20" d="M476.516,390.585l103.531,2.196c0,0,11.734-56.35-52.402-56.35
			C463.505,336.431,476.516,390.585,476.516,390.585z"/>
	</g>
	<g>
		<path fill="#231F20" d="M173.476,378.786l6.656,0.91l96.979,5.016c0,0,11.729-56.348-52.405-56.348
			C160.566,328.364,173.476,378.786,173.476,378.786z"/>
	</g>
	<g>
		<path fill="#FFFFFF" d="M307.824,288.586c8.998,2.724,120.492,34.935,186.998-21.82c0,0,8.864-9.158,24.133-9.854
			C392.582,212.294,322.165,274.017,307.824,288.586z"/>
	</g>
	<g>
		<path fill="#231F20" d="M534.148,260.303c0,0-115.711-81.807-240.643,29.172l11.563,2.065c0,0,73.592-87.61,220.576-32.186
			L534.148,260.303z"/>
	</g>
	<g>
		<path fill="#231F20" d="M645.469,342.553l-90.393-71.963c-37.311-29.409-61.462-4.429-61.462-4.429
			c-69.34,59.172-187.585,21.64-187.585,21.64c-145.108-12.302-196.535,53.438-196.535,53.438
			c2.739,21.437,33.3,32.427,67.09,37.994c5.934-20.02,24.46-34.629,46.403-34.629c23.838,0,43.639,17.234,47.652,39.921
			c0.078-0.003,0.12-0.004,0.12-0.004l209.727,5.848c2.808-24.063,23.251-42.74,48.066-42.74c25.636,0,46.607,19.935,48.284,45.145
			l43.172,0.394C687.957,378.783,645.469,342.553,645.469,342.553z"/>
	</g>
	<g>
		<path fill="#231F20" d="M307.824,288.586c8.998,2.724,120.492,34.935,186.998-21.82c0,0,8.864-9.158,24.133-9.854
			C392.582,212.294,322.165,274.017,307.824,288.586z M492.797,264.516c-14.855,12.656-33.261,21.76-54.708,27.05
			c-17.495,4.311-37.085,6.128-58.227,5.392c-29.939-1.043-55.482-7.011-66.141-9.855c9.454-8.712,28.909-23.825,58.611-33.678
			c40.651-13.484,85.916-12.548,134.684,2.719C498.661,259.012,493.685,263.639,492.797,264.516z"/>
	</g>
	<g>
		<path fill="#FFFFFF" d="M112.514,339.771c35.843,4.142,47.253-25.574,49.442-32.621
			C132.808,319.712,117.455,334.428,112.514,339.771z"/>
	</g>
	<g>
		<path fill="#FFFFFF" d="M160.327,371.182c0.163,5.345-4.036,9.81-9.381,9.975l-23.282,0.714c-5.345,0.162-9.81-4.036-9.973-9.381
			l-0.132-4.233c-0.162-5.342,4.038-9.807,9.381-9.973l23.282-0.713c5.345-0.163,9.81,4.035,9.973,9.38L160.327,371.182z"/>
		<path fill="#231F20" d="M127.366,383.466c-6.129,0-11.077-4.8-11.265-10.928l-0.132-4.232c-0.186-6.21,4.712-11.419,10.922-11.613
			l23.633-0.717c6.128,0,11.074,4.8,11.262,10.926l0.13,4.23c0.191,6.213-4.709,11.422-10.92,11.615L127.366,383.466z
			 M150.524,359.157l-23.535,0.717c-4.457,0.138-7.975,3.878-7.839,8.335l0.132,4.232c0.134,4.399,3.685,7.845,8.085,7.845v1.59
			l0.25-1.595l23.282-0.714c4.459-0.137,7.976-3.876,7.839-8.336l-0.132-4.23C158.471,362.601,154.921,359.157,150.524,359.157z"/>
	</g>
	<g>
		<g>
			<path fill="#FFFFFF" d="M546.721,281.328c0.025,0.877-1.715,1.643-3.889,1.708l-20.25,0.621c-2.174,0.067-3.957-0.59-3.985-1.467
				l0,0c-0.028-0.874,1.715-1.641,3.885-1.707l20.25-0.621C544.907,279.795,546.693,280.452,546.721,281.328L546.721,281.328z"/>
		</g>
		<g>
			<path fill="#FFFFFF" d="M546.941,288.586c0.028,0.876-1.711,1.64-3.888,1.708l-20.247,0.621c-2.174,0.065-3.957-0.59-3.988-1.467
				l0,0c-0.025-0.877,1.717-1.641,3.892-1.708l20.247-0.62C545.13,287.052,546.913,287.709,546.941,288.586L546.941,288.586z"/>
		</g>
		<g>
			<path fill="#FFFFFF" d="M547.14,295.036c0.028,0.879-1.714,1.643-3.888,1.709l-20.247,0.621c-2.174,0.065-3.957-0.59-3.988-1.466
				l0,0c-0.025-0.877,1.714-1.643,3.888-1.708l20.25-0.623C545.329,293.503,547.112,294.16,547.14,295.036L547.14,295.036z"/>
		</g>
	</g>
	<g>
		<path fill="#FFFFFF" d="M560.449,327.669c-4.361,0.135-7.2,2.207-7.156,3.522l0.009,0.357c0.04,1.312,2.997,3.208,7.358,3.075
			c0,0,57.782-1.772,68.764-2.109c-3.882-3.095-7.64-6.083-8.417-6.702C619.286,325.865,560.449,327.669,560.449,327.669z"/>
	</g>
	<g>
		<path fill="#FFFFFF" d="M655.929,360.115c-17.703-2.497-57.39-4.967-56.943,31.459l19.132,0.933
			C653.873,384.938,659.054,371.318,655.929,360.115z"/>
		<path fill="#231F20" d="M618.246,394.107l-0.205-0.012l-20.626-1.006l-0.018-1.494c-0.121-9.951,2.677-17.893,8.324-23.608
			c9.417-9.534,26.77-12.782,50.433-9.447l1.028,0.146l0.28,1.002c1.559,5.586,0.929,10.759-1.87,15.374
			c-5.143,8.479-17.638,14.872-37.143,19.002L618.246,394.107z M600.583,390.06l17.409,0.849
			c18.492-3.94,30.229-9.826,34.879-17.495c2.159-3.562,2.758-7.55,1.779-11.869c-5.463-0.732-10.625-1.101-15.355-1.101
			c-14.368,0-24.903,3.29-31.313,9.777C603.235,375.026,600.75,381.694,600.583,390.06z"/>
	</g>
	<g>
		<path fill="#FFFFFF" d="M314.218,290.372c-1.176-0.309-2.216-0.592-3.109-0.838c-1.902,2.859-5.678,9.561-8.574,21.199
			c-3.482,14.003-6.268,38.117-0.253,74.269l3.065-0.012C294.602,321.086,311.37,294.349,314.218,290.372z"/>
	</g>
	<g>
		<path fill="#FFFFFF" d="M453.243,382.875l3.062-0.176c3.789-36.452-0.469-60.349-4.805-74.115
			c-1.801-5.721-3.749-10.198-5.505-13.585c-1.008,0.298-2.016,0.582-3.028,0.859C449.119,307.526,458.402,334.078,453.243,382.875z
			"/>
	</g>
	<g>
		<path fill="#231F20" d="M440.113,312.826c0.06,2.005-1.513,3.678-3.518,3.74l-13.307,0.407c-2.002,0.062-3.679-1.513-3.74-3.516
			l0,0c-0.06-2.003,1.513-3.679,3.519-3.741l13.304-0.407C438.376,309.247,440.051,310.821,440.113,312.826L440.113,312.826z"/>
	</g>
	<g>
		<path fill="#FFFFFF" d="M436.405,312.031c0.04,1.287-0.972,2.362-2.257,2.402l-8.546,0.262c-1.287,0.04-2.364-0.974-2.402-2.26
			l0,0c-0.039-1.286,0.974-2.362,2.259-2.401l8.544-0.263C435.29,309.733,436.366,310.744,436.405,312.031L436.405,312.031z"/>
	</g>
	<g>
		<path fill="#FFFFFF" d="M319.818,291.882c-0.045,0.001-0.09-0.005-0.134-0.003c-5.087,0.157-9.071,4.817-8.898,10.414
			c0.171,5.594,4.434,10.002,9.52,9.844c0.045,0,0.09-0.008,0.134-0.009L319.818,291.882z"/>
	</g>
	<g>
		<g>
			<g>
				<path fill="#231F20" d="M478.733,390.284c0.038-1.034,0.233-2.686,0.441-3.707l3.261,0.402
					c-0.196,0.951-0.239,2.488-0.273,3.456L478.733,390.284z"/>
			</g>
			<g>
				<path fill="#FFFFFF" d="M475.453,390.232c0.044-1.099,0.23-2.969,0.447-4.055l3.264,0.399c-0.208,1.02-0.345,2.673-0.382,3.707
					L475.453,390.232z"/>
			</g>
		</g>
		<g>
			<g>
				<polygon fill="#231F20" points="479.665,383.51 479.165,386.577 475.901,386.178 476.435,382.91 				"/>
			</g>
			<g>
				<polygon fill="#FFFFFF" points="482.901,384.109 482.435,386.979 479.174,386.577 479.671,383.51 				"/>
			</g>
			<g>
				<path fill="#231F20" d="M479.674,383.494c0.214-1.012,0.531-2.006,0.792-3.011l3.18,0.798c-0.239,0.938-0.547,1.867-0.745,2.814
					L479.674,383.494z"/>
			</g>
			<g>
				<path fill="#FFFFFF" d="M476.435,382.893c0.23-1.081,0.565-2.14,0.845-3.212l3.18,0.8c-0.261,1.005-0.581,1.999-0.789,3.012
					L476.435,382.893z"/>
			</g>
		</g>
		<g>
			<g>
				<path fill="#231F20" d="M481.404,377.511c-0.422,0.96-0.674,1.967-0.944,2.971l-3.18-0.8c0.292-1.065,0.559-2.14,1.006-3.165
					L481.404,377.511z"/>
			</g>
			<g>
				<path fill="#FFFFFF" d="M484.529,378.503c-0.398,0.896-0.627,1.84-0.882,2.778l-3.18-0.798c0.273-1.003,0.522-2.011,0.944-2.97
					L484.529,378.503z"/>
			</g>
			<g>
				<polygon fill="#231F20" points="481.417,377.498 482.553,374.583 485.594,375.767 484.535,378.491 				"/>
			</g>
			<g>
				<polygon fill="#FFFFFF" points="478.292,376.503 479.507,373.397 482.547,374.582 481.41,377.495 				"/>
			</g>
		</g>
		<g>
			<g>
				<path fill="#231F20" d="M483.951,371.773c-0.466,0.938-0.991,1.851-1.404,2.809l-3.041-1.185
					c0.438-1.019,0.997-1.994,1.494-2.992L483.951,371.773z"/>
			</g>
			<g>
				<path fill="#FFFFFF" d="M486.908,373.142c-0.428,0.876-0.926,1.732-1.314,2.624l-3.041-1.183
					c0.413-0.958,0.938-1.871,1.404-2.808L486.908,373.142z"/>
			</g>
			<g>
				<path fill="#231F20" d="M483.964,371.762c0.469-0.937,0.944-1.873,1.553-2.738l2.851,1.545
					c-0.578,0.807-1.016,1.683-1.453,2.562L483.964,371.762z"/>
			</g>
			<g>
				<path fill="#FFFFFF" d="M481.007,370.389c0.503-0.998,1.006-1.992,1.652-2.916l2.851,1.547
					c-0.609,0.866-1.087,1.803-1.553,2.739L481.007,370.389z"/>
			</g>
		</g>
		<g>
			<g>
				<polygon fill="#231F20" points="487.228,366.367 485.51,369.019 482.659,367.472 484.491,364.651 				"/>
			</g>
			<g>
				<polygon fill="#FFFFFF" points="489.97,368.091 488.367,370.569 485.516,369.024 487.234,366.371 				"/>
			</g>
			<g>
				<path fill="#231F20" d="M487.243,366.357c0.627-0.849,1.311-1.661,1.963-2.495l2.609,1.882c-0.609,0.781-1.249,1.54-1.839,2.334
					L487.243,366.357z"/>
			</g>
			<g>
				<path fill="#FFFFFF" d="M484.498,364.637c0.671-0.908,1.395-1.775,2.093-2.662l2.609,1.882
					c-0.652,0.834-1.336,1.648-1.963,2.496L484.498,364.637z"/>
			</g>
		</g>
		<g>
			<g>
				<path fill="#231F20" d="M491.293,361.46c-0.77,0.744-1.454,1.555-2.093,2.398l-2.609-1.882c0.683-0.896,1.41-1.759,2.227-2.553
					L491.293,361.46z"/>
			</g>
			<g>
				<path fill="#FFFFFF" d="M493.775,363.503c-0.724,0.693-1.363,1.45-1.96,2.241l-2.609-1.882c0.64-0.843,1.323-1.655,2.093-2.399
					L493.775,363.503z"/>
			</g>
			<g>
				<polygon fill="#231F20" points="491.312,361.452 493.536,359.157 495.865,361.342 493.784,363.491 				"/>
			</g>
			<g>
				<polygon fill="#FFFFFF" points="488.833,359.411 491.203,356.967 493.53,359.152 491.306,361.449 				"/>
			</g>
		</g>
		<g>
			<g>
				<polygon fill="#231F20" points="495.977,357.063 493.53,359.152 491.203,356.967 493.806,354.743 				"/>
			</g>
			<g>
				<polygon fill="#FFFFFF" points="498.157,359.391 495.865,361.342 493.536,359.157 495.983,357.069 				"/>
			</g>
			<g>
				<path fill="#231F20" d="M495.996,357.058c0.789-0.724,1.655-1.365,2.553-1.966l2.007,2.449c-0.839,0.56-1.653,1.16-2.392,1.839
					L495.996,357.058z"/>
			</g>
			<g>
				<path fill="#FFFFFF" d="M493.818,354.731c0.848-0.767,1.767-1.451,2.724-2.092l2.003,2.449
					c-0.898,0.601-1.761,1.242-2.556,1.966L493.818,354.731z"/>
			</g>
		</g>
		<g>
			<g>
				<path fill="#231F20" d="M501.207,353.243c-0.907,0.59-1.77,1.231-2.662,1.845l-2.003-2.449c0.944-0.654,1.87-1.336,2.833-1.961
					L501.207,353.243z"/>
			</g>
			<g>
				<path fill="#FFFFFF" d="M503.043,355.818c-0.848,0.551-1.655,1.154-2.488,1.724l-2.007-2.449
					c0.888-0.612,1.758-1.253,2.662-1.842L503.043,355.818z"/>
			</g>
			<g>
				<polygon fill="#231F20" points="501.226,353.241 504.052,351.631 505.701,354.305 503.055,355.81 				"/>
			</g>
			<g>
				<polygon fill="#FFFFFF" points="499.387,350.67 502.4,348.951 504.046,351.625 501.219,353.235 				"/>
			</g>
		</g>
		<g>
			<g>
				<path fill="#231F20" d="M506.966,350.168c-1,0.443-1.994,0.884-2.92,1.457l-1.646-2.674c0.981-0.606,2.044-1.082,3.106-1.551
					L506.966,350.168z"/>
			</g>
			<g>
				<path fill="#FFFFFF" d="M508.428,352.945c-0.935,0.412-1.867,0.822-2.727,1.36l-1.649-2.674
					c0.919-0.573,1.919-1.016,2.919-1.457L508.428,352.945z"/>
			</g>
			<g>
				<path fill="#231F20" d="M506.984,350.168c1-0.435,1.972-0.927,2.994-1.317l1.261,2.854c-0.956,0.362-1.863,0.826-2.798,1.233
					L506.984,350.168z"/>
			</g>
			<g>
				<path fill="#FFFFFF" d="M505.521,347.392c1.065-0.464,2.106-0.986,3.19-1.399l1.261,2.853c-1.019,0.388-1.994,0.882-2.994,1.317
					L505.521,347.392z"/>
			</g>
		</g>
		<g>
			<g>
				<polygon fill="#231F20" points="513.078,347.778 509.972,348.845 508.711,345.992 512.022,344.852 				"/>
			</g>
			<g>
				<polygon fill="#FFFFFF" points="514.14,350.71 511.239,351.706 509.978,348.851 513.084,347.786 				"/>
			</g>
			<g>
				<path fill="#231F20" d="M513.096,347.78c1.025-0.396,2.1-0.632,3.168-0.887l0.851,2.985c-1,0.236-2.006,0.454-2.96,0.828
					L513.096,347.78z"/>
			</g>
			<g>
				<path fill="#FFFFFF" d="M512.037,344.846c1.09-0.416,2.233-0.673,3.376-0.946l0.848,2.986c-1.068,0.255-2.146,0.489-3.165,0.885
					L512.037,344.846z"/>
			</g>
		</g>
		<g>
			<g>
				<path fill="#231F20" d="M519.473,346.143c-1.084,0.199-2.14,0.498-3.212,0.744l-0.848-2.986c1.137-0.261,2.267-0.576,3.42-0.787
					L519.473,346.143z"/>
			</g>
			<g>
				<path fill="#FFFFFF" d="M520.116,349.181c-1.013,0.185-2,0.47-3,0.697l-0.851-2.985c1.069-0.244,2.13-0.545,3.212-0.742
					L520.116,349.181z"/>
			</g>
			<g>
				<polygon fill="#231F20" points="519.488,346.148 522.762,345.679 523.184,348.743 520.128,349.177 				"/>
			</g>
			<g>
				<polygon fill="#FFFFFF" points="518.849,343.112 522.333,342.61 522.759,345.672 519.488,346.141 				"/>
			</g>
		</g>
		<g>
			<g>
				<path fill="#231F20" d="M526.048,345.38c-1.106,0.034-2.205,0.096-3.289,0.292l-0.426-3.062c1.155-0.205,2.323-0.273,3.5-0.315
					L526.048,345.38z"/>
			</g>
			<g>
				<path fill="#FFFFFF" d="M526.259,348.469c-1.028,0.031-2.059,0.087-3.075,0.273l-0.422-3.064
					c1.081-0.194,2.18-0.256,3.286-0.292L526.259,348.469z"/>
			</g>
			<g>
				<polygon fill="#231F20" points="526.064,345.385 529.368,345.23 529.368,348.317 526.278,348.468 				"/>
			</g>
			<g>
				<polygon fill="#FFFFFF" points="525.849,342.295 529.368,342.133 529.368,345.222 526.064,345.379 				"/>
			</g>
		</g>
		<g>
			<g>
				<polygon fill="#231F20" points="532.67,345.379 529.368,345.222 529.368,342.133 532.884,342.295 				"/>
			</g>
			<g>
				<polygon fill="#FFFFFF" points="532.458,348.468 529.368,348.317 529.368,345.23 532.67,345.385 				"/>
			</g>
			<g>
				<path fill="#231F20" d="M532.688,345.387c1.103,0.036,2.202,0.098,3.286,0.292l-0.422,3.064
					c-1.016-0.186-2.044-0.242-3.075-0.273L532.688,345.387z"/>
			</g>
			<g>
				<path fill="#FFFFFF" d="M532.903,342.295c1.171,0.042,2.345,0.11,3.5,0.315l-0.425,3.062c-1.084-0.196-2.184-0.258-3.289-0.292
					L532.903,342.295z"/>
			</g>
		</g>
		<g>
			<g>
				<polygon fill="#231F20" points="539.248,346.141 535.978,345.672 536.403,342.61 539.888,343.112 				"/>
			</g>
			<g>
				<polygon fill="#FFFFFF" points="538.608,349.177 535.552,348.743 535.974,345.679 539.248,346.148 				"/>
			</g>
			<g>
				<path fill="#231F20" d="M539.264,346.151c1.081,0.197,2.14,0.499,3.208,0.742l-0.851,2.985c-1-0.227-1.988-0.512-3-0.697
					L539.264,346.151z"/>
			</g>
			<g>
				<path fill="#FFFFFF" d="M539.9,343.113c1.155,0.211,2.286,0.527,3.422,0.787l-0.848,2.986c-1.071-0.246-2.127-0.545-3.211-0.744
					L539.9,343.113z"/>
			</g>
		</g>
		<g>
			<g>
				<path fill="#231F20" d="M545.64,347.772c-1.022-0.396-2.099-0.63-3.165-0.885l0.848-2.986c1.143,0.273,2.286,0.53,3.376,0.946
					L545.64,347.772z"/>
			</g>
			<g>
				<path fill="#FFFFFF" d="M544.581,350.706c-0.953-0.374-1.96-0.592-2.96-0.828l0.851-2.985c1.068,0.255,2.143,0.491,3.168,0.887
					L544.581,350.706z"/>
			</g>
			<g>
				<polygon fill="#231F20" points="545.652,347.786 548.758,348.851 547.497,351.706 544.596,350.71 				"/>
			</g>
			<g>
				<polygon fill="#FFFFFF" points="546.714,344.852 550.025,345.992 548.764,348.845 545.655,347.778 				"/>
			</g>
		</g>
		<g>
			<g>
				<path fill="#231F20" d="M551.758,350.162c-1-0.435-1.975-0.929-2.994-1.317l1.261-2.853c1.087,0.413,2.124,0.935,3.186,1.399
					L551.758,350.162z"/>
			</g>
			<g>
				<path fill="#FFFFFF" d="M550.292,352.939c-0.932-0.407-1.839-0.871-2.795-1.233l1.261-2.854c1.022,0.39,1.994,0.882,2.994,1.317
					L550.292,352.939z"/>
			</g>
			<g>
				<path fill="#231F20" d="M551.764,350.174c1,0.441,2,0.884,2.92,1.457l-1.646,2.674c-0.863-0.539-1.795-0.949-2.727-1.36
					L551.764,350.174z"/>
			</g>
			<g>
				<path fill="#FFFFFF" d="M553.231,347.399c1.062,0.469,2.124,0.946,3.106,1.551l-1.646,2.674
					c-0.925-0.573-1.919-1.014-2.919-1.457L553.231,347.399z"/>
			</g>
		</g>
		<g>
			<g>
				<polygon fill="#231F20" points="557.517,353.235 554.69,351.625 556.336,348.951 559.349,350.67 				"/>
			</g>
			<g>
				<polygon fill="#FFFFFF" points="555.678,355.81 553.038,354.305 554.684,351.631 557.511,353.241 				"/>
			</g>
			<g>
				<path fill="#231F20" d="M557.523,353.251c0.907,0.589,1.777,1.23,2.659,1.842l-2,2.449c-0.832-0.57-1.64-1.173-2.491-1.724
					L557.523,353.251z"/>
			</g>
			<g>
				<path fill="#FFFFFF" d="M559.362,350.678c0.963,0.626,1.888,1.307,2.833,1.961l-2.006,2.449
					c-0.888-0.613-1.752-1.255-2.659-1.845L559.362,350.678z"/>
			</g>
		</g>
		<g>
			<g>
				<path fill="#231F20" d="M562.747,357.054c-0.795-0.724-1.659-1.365-2.559-1.966l2.006-2.449
					c0.957,0.641,1.876,1.325,2.721,2.092L562.747,357.054z"/>
			</g>
			<g>
				<path fill="#FFFFFF" d="M560.573,359.38c-0.745-0.679-1.553-1.278-2.392-1.839l2-2.449c0.907,0.601,1.771,1.242,2.559,1.966
					L560.573,359.38z"/>
			</g>
			<g>
				<polygon fill="#231F20" points="562.753,357.069 565.2,359.157 562.871,361.342 560.579,359.391 				"/>
			</g>
			<g>
				<polygon fill="#FFFFFF" points="564.934,354.743 567.536,356.967 565.207,359.152 562.76,357.063 				"/>
			</g>
		</g>
		<g>
			<g>
				<polygon fill="#231F20" points="567.431,361.449 565.207,359.152 567.536,356.967 569.903,359.411 				"/>
			</g>
			<g>
				<polygon fill="#FFFFFF" points="564.952,363.491 562.871,361.342 565.2,359.157 567.425,361.452 				"/>
			</g>
			<g>
				<path fill="#231F20" d="M567.437,361.463c0.77,0.744,1.453,1.556,2.093,2.399l-2.609,1.882
					c-0.603-0.791-1.236-1.548-1.957-2.241L567.437,361.463z"/>
			</g>
			<g>
				<path fill="#FFFFFF" d="M569.915,359.422c0.82,0.794,1.547,1.657,2.23,2.553l-2.609,1.882c-0.64-0.843-1.323-1.654-2.093-2.398
					L569.915,359.422z"/>
			</g>
		</g>
		<g>
			<g>
				<path fill="#231F20" d="M571.499,366.353c-0.628-0.848-1.311-1.662-1.963-2.496l2.609-1.882
					c0.696,0.887,1.423,1.753,2.087,2.662L571.499,366.353z"/>
			</g>
			<g>
				<path fill="#FFFFFF" d="M568.76,368.078c-0.59-0.794-1.23-1.553-1.839-2.334l2.609-1.882c0.652,0.834,1.336,1.646,1.963,2.495
					L568.76,368.078z"/>
			</g>
			<g>
				<polygon fill="#231F20" points="571.506,366.371 573.22,369.024 570.369,370.569 568.766,368.091 				"/>
			</g>
			<g>
				<polygon fill="#FFFFFF" points="574.245,364.651 576.077,367.472 573.226,369.019 571.512,366.367 				"/>
			</g>
		</g>
		<g>
			<g>
				<path fill="#231F20" d="M574.779,371.759c-0.472-0.936-0.944-1.873-1.553-2.739l2.851-1.547
					c0.646,0.924,1.149,1.918,1.652,2.916L574.779,371.759z"/>
			</g>
			<g>
				<path fill="#FFFFFF" d="M571.822,373.131c-0.435-0.879-0.882-1.755-1.454-2.562l2.851-1.545
					c0.609,0.865,1.081,1.801,1.553,2.738L571.822,373.131z"/>
			</g>
			<g>
				<path fill="#231F20" d="M574.779,371.776c0.466,0.936,0.988,1.849,1.404,2.808l-3.044,1.183
					c-0.385-0.893-0.882-1.749-1.311-2.624L574.779,371.776z"/>
			</g>
			<g>
				<path fill="#FFFFFF" d="M577.736,370.404c0.497,0.999,1.056,1.974,1.497,2.992l-3.044,1.185
					c-0.416-0.958-0.938-1.871-1.404-2.809L577.736,370.404z"/>
			</g>
		</g>
		<g>
			<g>
				<polygon fill="#231F20" points="577.326,377.495 576.189,374.582 579.233,373.397 580.444,376.503 				"/>
			</g>
			<g>
				<polygon fill="#FFFFFF" points="574.201,378.491 573.139,375.767 576.183,374.583 577.32,377.498 				"/>
			</g>
			<g>
				<path fill="#231F20" d="M577.326,377.512c0.416,0.96,0.671,1.967,0.944,2.97l-3.18,0.798c-0.255-0.938-0.484-1.882-0.882-2.778
					L577.326,377.512z"/>
			</g>
			<g>
				<path fill="#FFFFFF" d="M580.451,376.517c0.447,1.025,0.714,2.099,1.006,3.165l-3.18,0.8c-0.274-1.003-0.522-2.011-0.944-2.971
					L580.451,376.517z"/>
			</g>
		</g>
		<g>
			<g>
				<path fill="#231F20" d="M579.065,383.494c-0.205-1.014-0.528-2.008-0.789-3.012l3.18-0.8c0.28,1.071,0.615,2.131,0.845,3.212
					L579.065,383.494z"/>
			</g>
			<g>
				<path fill="#FFFFFF" d="M575.829,384.095c-0.192-0.947-0.497-1.876-0.739-2.814l3.18-0.798c0.261,1.005,0.578,1.999,0.789,3.011
					L575.829,384.095z"/>
			</g>
			<g>
				<polygon fill="#231F20" points="579.065,383.51 579.562,386.577 576.301,386.979 575.835,384.109 				"/>
			</g>
			<g>
				<polygon fill="#FFFFFF" points="582.302,382.91 582.836,386.178 579.568,386.577 579.071,383.51 				"/>
			</g>
		</g>
		<g>
			<g>
				<path fill="#231F20" d="M579.885,389.664c-0.037-1.036-0.106-2.067-0.317-3.087l3.268-0.399
					c0.217,1.085,0.292,2.185,0.329,3.286L579.885,389.664z"/>
			</g>
			<g>
				<path fill="#FFFFFF" d="M576.593,389.864c-0.038-0.967-0.093-1.935-0.292-2.886l3.261-0.402c0.211,1.02,0.273,2.053,0.317,3.087
					L576.593,389.864z"/>
			</g>
			<g>
				<polygon fill="#231F20" points="579.879,389.68 580.047,392.781 576.748,392.781 576.593,389.878 				"/>
			</g>
			<g>
				<polygon fill="#FFFFFF" points="583.171,389.481 583.345,392.781 580.047,392.781 579.885,389.68 				"/>
			</g>
		</g>
	</g>
	<g>
		<g>
			<g>
				<path fill="#231F20" d="M178.295,374.644c-0.402,0.975-1.013,3.406-1.272,4.426l-3.157-0.528
					c0.276-1.089,1.025-3.868,1.452-4.909L178.295,374.644z"/>
			</g>
			<g>
				<path fill="#FFFFFF" d="M181.279,375.655c-0.38,0.91-1.084,2.991-1.325,3.946l-2.893-0.531c0.258-1.02,0.837-3.449,1.239-4.424
					L181.279,375.655z"/>
			</g>
			<g>
				<polygon fill="#231F20" points="178.307,374.63 179.392,371.665 182.3,372.867 181.285,375.641 				"/>
			</g>
			<g>
				<polygon fill="#FFFFFF" points="175.324,373.618 176.481,370.456 179.386,371.662 178.301,374.628 				"/>
			</g>
		</g>
		<g>
			<g>
				<path fill="#231F20" d="M180.727,368.802c-0.443,0.955-0.944,1.885-1.34,2.86l-2.906-1.207c0.422-1.037,0.953-2.03,1.425-3.048
					L180.727,368.802z"/>
			</g>
			<g>
				<path fill="#FFFFFF" d="M183.553,370.196c-0.413,0.893-0.887,1.761-1.253,2.671l-2.907-1.202
					c0.394-0.977,0.898-1.907,1.34-2.862L183.553,370.196z"/>
			</g>
			<g>
				<path fill="#231F20" d="M180.742,368.791c0.447-0.955,0.899-1.907,1.482-2.786l2.721,1.573
					c-0.548,0.822-0.966,1.713-1.385,2.604L180.742,368.791z"/>
			</g>
			<g>
				<path fill="#FFFFFF" d="M177.914,367.393c0.478-1.014,0.963-2.028,1.581-2.968l2.722,1.576
					c-0.584,0.879-1.036,1.833-1.485,2.786L177.914,367.393z"/>
			</g>
		</g>
		<g>
			<g>
				<polygon fill="#231F20" points="183.857,363.298 182.217,366.002 179.495,364.426 181.242,361.551 				"/>
			</g>
			<g>
				<polygon fill="#FFFFFF" points="186.476,365.053 184.944,367.578 182.224,366.005 183.863,363.304 				"/>
			</g>
			<g>
				<path fill="#231F20" d="M183.871,363.29c0.6-0.865,1.252-1.693,1.876-2.541l2.492,1.916c-0.581,0.795-1.194,1.565-1.757,2.375
					L183.871,363.29z"/>
			</g>
			<g>
				<path fill="#FFFFFF" d="M181.251,361.537c0.638-0.922,1.332-1.805,1.997-2.707l2.494,1.915c-0.626,0.849-1.279,1.677-1.877,2.54
					L181.251,361.537z"/>
			</g>
		</g>
		<g>
			<g>
				<path fill="#231F20" d="M187.741,358.306c-0.736,0.758-1.388,1.581-1.999,2.44l-2.494-1.915c0.652-0.913,1.348-1.79,2.129-2.599
					L187.741,358.306z"/>
			</g>
			<g>
				<path fill="#FFFFFF" d="M190.111,360.383c-0.691,0.707-1.3,1.479-1.871,2.283l-2.492-1.916c0.612-0.859,1.264-1.683,2-2.44
					L190.111,360.383z"/>
			</g>
			<g>
				<polygon fill="#231F20" points="187.758,358.298 189.883,355.959 192.106,358.184 190.12,360.372 				"/>
			</g>
			<g>
				<polygon fill="#FFFFFF" points="185.39,356.217 187.654,353.732 189.878,355.956 187.752,358.293 				"/>
			</g>
		</g>
		<g>
			<g>
				<polygon fill="#231F20" points="192.217,353.83 189.878,355.956 187.654,353.732 190.142,351.468 				"/>
			</g>
			<g>
				<polygon fill="#FFFFFF" points="194.296,356.198 192.106,358.184 189.883,355.959 192.22,353.835 				"/>
			</g>
			<g>
				<path fill="#231F20" d="M192.232,353.825c0.756-0.736,1.581-1.39,2.441-2.002l1.915,2.494c-0.805,0.57-1.576,1.179-2.283,1.87
					L192.232,353.825z"/>
			</g>
			<g>
				<path fill="#FFFFFF" d="M190.154,351.454c0.808-0.78,1.685-1.477,2.598-2.131l1.918,2.496c-0.862,0.612-1.686,1.264-2.443,2.001
					L190.154,351.454z"/>
			</g>
		</g>
		<g>
			<g>
				<path fill="#231F20" d="M197.209,349.941c-0.865,0.6-1.693,1.253-2.539,1.878l-1.918-2.496c0.902-0.663,1.786-1.357,2.707-1.994
					L197.209,349.941z"/>
			</g>
			<g>
				<path fill="#FFFFFF" d="M198.964,352.561c-0.809,0.562-1.581,1.175-2.376,1.756l-1.915-2.494
					c0.848-0.623,1.676-1.278,2.539-1.877L198.964,352.561z"/>
			</g>
			<g>
				<polygon fill="#231F20" points="197.226,349.938 199.927,348.3 201.502,351.021 198.976,352.553 				"/>
			</g>
			<g>
				<polygon fill="#FFFFFF" points="195.475,347.32 198.351,345.571 199.924,348.294 197.223,349.934 				"/>
			</g>
		</g>
		<g>
			<g>
				<path fill="#231F20" d="M202.71,346.812c-0.953,0.449-1.907,0.898-2.786,1.482l-1.573-2.722c0.936-0.616,1.95-1.101,2.964-1.579
					L202.71,346.812z"/>
			</g>
			<g>
				<path fill="#FFFFFF" d="M204.107,349.639c-0.893,0.418-1.783,0.835-2.606,1.382l-1.575-2.721
					c0.88-0.584,1.832-1.033,2.786-1.483L204.107,349.639z"/>
			</g>
			<g>
				<path fill="#231F20" d="M202.727,346.811c0.955-0.442,1.885-0.944,2.86-1.34l1.204,2.904c-0.912,0.371-1.778,0.843-2.673,1.257
					L202.727,346.811z"/>
			</g>
			<g>
				<path fill="#FFFFFF" d="M201.333,343.984c1.016-0.475,2.008-1.005,3.047-1.426l1.205,2.906c-0.975,0.394-1.907,0.895-2.86,1.34
					L201.333,343.984z"/>
			</g>
		</g>
		<g>
			<g>
				<polygon fill="#231F20" points="208.55,344.379 205.584,345.464 204.379,342.559 207.539,341.399 				"/>
			</g>
			<g>
				<polygon fill="#FFFFFF" points="209.564,347.362 206.791,348.374 205.587,345.471 208.554,344.385 				"/>
			</g>
			<g>
				<path fill="#231F20" d="M208.568,344.379c0.977-0.402,2.002-0.643,3.023-0.902l0.812,3.039
					c-0.955,0.241-1.913,0.463-2.825,0.842L208.568,344.379z"/>
			</g>
			<g>
				<path fill="#FFFFFF" d="M207.557,341.394c1.042-0.426,2.134-0.685,3.221-0.963l0.812,3.039c-1.022,0.258-2.047,0.5-3.024,0.901
					L207.557,341.394z"/>
			</g>
		</g>
		<g>
			<g>
				<path fill="#231F20" d="M214.658,342.713c-1.034,0.203-2.045,0.508-3.068,0.758l-0.812-3.039
					c1.09-0.267,2.169-0.589,3.267-0.803L214.658,342.713z"/>
			</g>
			<g>
				<path fill="#FFFFFF" d="M215.268,345.806c-0.964,0.188-1.909,0.477-2.865,0.71l-0.812-3.039
					c1.023-0.248,2.033-0.554,3.067-0.758L215.268,345.806z"/>
			</g>
			<g>
				<polygon fill="#231F20" points="214.674,342.717 217.798,342.24 218.202,345.359 215.282,345.803 				"/>
			</g>
			<g>
				<polygon fill="#FFFFFF" points="214.062,339.625 217.39,339.116 217.795,342.233 214.671,342.711 				"/>
			</g>
		</g>
		<g>
			<g>
				<path fill="#231F20" d="M220.937,341.938c-1.053,0.034-2.106,0.098-3.142,0.295l-0.405-3.117
					c1.103-0.208,2.222-0.278,3.344-0.318L220.937,341.938z"/>
			</g>
			<g>
				<path fill="#FFFFFF" d="M221.14,345.081c-0.986,0.033-1.968,0.088-2.938,0.278l-0.404-3.118
					c1.034-0.197,2.086-0.261,3.138-0.296L221.14,345.081z"/>
			</g>
			<g>
				<polygon fill="#231F20" points="220.952,341.941 224.108,341.784 224.108,344.927 221.157,345.081 				"/>
			</g>
			<g>
				<polygon fill="#FFFFFF" points="220.75,338.798 224.108,338.632 224.108,341.776 220.952,341.936 				"/>
			</g>
		</g>
		<g>
			<g>
				<polygon fill="#231F20" points="227.263,341.936 224.108,341.776 224.108,338.632 227.465,338.798 				"/>
			</g>
			<g>
				<polygon fill="#FFFFFF" points="227.06,345.081 224.108,344.927 224.108,341.784 227.263,341.941 				"/>
			</g>
			<g>
				<path fill="#231F20" d="M227.279,341.944c1.054,0.036,2.106,0.099,3.14,0.296l-0.406,3.118c-0.967-0.19-1.952-0.245-2.938-0.278
					L227.279,341.944z"/>
			</g>
			<g>
				<path fill="#FFFFFF" d="M227.484,338.798c1.12,0.04,2.239,0.11,3.344,0.318l-0.405,3.117c-1.037-0.197-2.089-0.261-3.143-0.295
					L227.484,338.798z"/>
			</g>
		</g>
		<g>
			<g>
				<polygon fill="#231F20" points="233.545,342.711 230.422,342.233 230.827,339.116 234.155,339.625 				"/>
			</g>
			<g>
				<polygon fill="#FFFFFF" points="232.933,345.803 230.013,345.359 230.419,342.24 233.542,342.717 				"/>
			</g>
			<g>
				<path fill="#231F20" d="M233.557,342.719c1.033,0.204,2.045,0.51,3.065,0.758l-0.809,3.039c-0.957-0.233-1.901-0.522-2.867-0.71
					L233.557,342.719z"/>
			</g>
			<g>
				<path fill="#FFFFFF" d="M234.171,339.628c1.101,0.214,2.179,0.536,3.269,0.803l-0.814,3.039
					c-1.022-0.25-2.033-0.555-3.065-0.758L234.171,339.628z"/>
			</g>
		</g>
		<g>
			<g>
				<path fill="#231F20" d="M239.649,344.371c-0.975-0.401-2.002-0.643-3.024-0.901l0.814-3.039c1.089,0.278,2.18,0.537,3.221,0.963
					L239.649,344.371z"/>
			</g>
			<g>
				<path fill="#FFFFFF" d="M238.638,347.357c-0.91-0.379-1.871-0.601-2.825-0.842l0.809-3.039c1.023,0.26,2.052,0.5,3.025,0.902
					L238.638,347.357z"/>
			</g>
			<g>
				<polygon fill="#231F20" points="239.663,344.385 242.63,345.471 241.426,348.374 238.651,347.362 				"/>
			</g>
			<g>
				<polygon fill="#FFFFFF" points="240.676,341.399 243.838,342.559 242.634,345.464 239.667,344.379 				"/>
			</g>
		</g>
		<g>
			<g>
				<path fill="#231F20" d="M245.492,346.805c-0.953-0.446-1.884-0.946-2.857-1.34l1.203-2.906c1.037,0.421,2.03,0.951,3.047,1.426
					L245.492,346.805z"/>
			</g>
			<g>
				<path fill="#FFFFFF" d="M244.097,349.631c-0.893-0.413-1.761-0.885-2.671-1.257l1.203-2.904c0.975,0.396,1.905,0.898,2.859,1.34
					L244.097,349.631z"/>
			</g>
			<g>
				<path fill="#231F20" d="M245.502,346.817c0.955,0.45,1.907,0.899,2.786,1.483l-1.573,2.721
					c-0.822-0.547-1.713-0.964-2.606-1.382L245.502,346.817z"/>
			</g>
			<g>
				<path fill="#FFFFFF" d="M246.9,343.992c1.014,0.478,2.028,0.963,2.968,1.579l-1.576,2.722c-0.879-0.584-1.831-1.033-2.786-1.482
					L246.9,343.992z"/>
			</g>
		</g>
		<g>
			<g>
				<polygon fill="#231F20" points="250.994,349.934 248.292,348.294 249.868,345.571 252.744,347.32 				"/>
			</g>
			<g>
				<polygon fill="#FFFFFF" points="249.242,352.553 246.715,351.021 248.288,348.3 250.989,349.938 				"/>
			</g>
			<g>
				<path fill="#231F20" d="M251.003,349.946c0.863,0.6,1.693,1.255,2.541,1.877l-1.917,2.494c-0.795-0.581-1.565-1.194-2.374-1.756
					L251.003,349.946z"/>
			</g>
			<g>
				<path fill="#FFFFFF" d="M252.758,347.329c0.919,0.637,1.803,1.331,2.707,1.994l-1.917,2.496
					c-0.848-0.624-1.677-1.278-2.541-1.878L252.758,347.329z"/>
			</g>
		</g>
		<g>
			<g>
				<path fill="#231F20" d="M255.988,353.82c-0.756-0.738-1.581-1.39-2.44-2.001l1.917-2.496c0.912,0.654,1.791,1.351,2.596,2.131
					L255.988,353.82z"/>
			</g>
			<g>
				<path fill="#FFFFFF" d="M253.91,356.187c-0.705-0.691-1.479-1.3-2.283-1.87l1.917-2.494c0.859,0.612,1.685,1.266,2.439,2.002
					L253.91,356.187z"/>
			</g>
			<g>
				<polygon fill="#231F20" points="255.997,353.835 258.334,355.959 256.111,358.184 253.921,356.198 				"/>
			</g>
			<g>
				<polygon fill="#FFFFFF" points="258.077,351.468 260.563,353.732 258.339,355.956 256,353.83 				"/>
			</g>
		</g>
		<g>
			<g>
				<polygon fill="#231F20" points="260.463,358.293 258.339,355.956 260.563,353.732 262.827,356.217 				"/>
			</g>
			<g>
				<polygon fill="#FFFFFF" points="258.095,360.372 256.111,358.184 258.334,355.959 260.459,358.298 				"/>
			</g>
			<g>
				<path fill="#231F20" d="M260.47,358.31c0.736,0.756,1.388,1.581,2.002,2.44l-2.496,1.916c-0.57-0.804-1.179-1.576-1.87-2.283
					L260.47,358.31z"/>
			</g>
			<g>
				<path fill="#FFFFFF" d="M262.839,356.231c0.78,0.809,1.475,1.686,2.129,2.599l-2.494,1.915c-0.61-0.859-1.264-1.682-2.002-2.44
					L262.839,356.231z"/>
			</g>
		</g>
		<g>
			<g>
				<path fill="#231F20" d="M264.352,363.286c-0.599-0.863-1.253-1.691-1.877-2.54l2.494-1.915c0.666,0.902,1.359,1.785,1.996,2.707
					L264.352,363.286z"/>
			</g>
			<g>
				<path fill="#FFFFFF" d="M261.734,365.041c-0.564-0.809-1.177-1.579-1.758-2.375l2.496-1.916
					c0.621,0.848,1.275,1.675,1.873,2.541L261.734,365.041z"/>
			</g>
			<g>
				<polygon fill="#231F20" points="264.355,363.304 265.993,366.005 263.273,367.578 261.74,365.053 				"/>
			</g>
			<g>
				<polygon fill="#FFFFFF" points="266.973,361.551 268.722,364.426 266.001,366.002 264.36,363.298 				"/>
			</g>
		</g>
		<g>
			<g>
				<path fill="#231F20" d="M267.481,368.788c-0.447-0.953-0.898-1.907-1.48-2.786l2.721-1.576c0.617,0.94,1.103,1.954,1.581,2.968
					L267.481,368.788z"/>
			</g>
			<g>
				<path fill="#FFFFFF" d="M264.656,370.182c-0.418-0.891-0.837-1.783-1.384-2.604l2.721-1.573
					c0.582,0.879,1.034,1.831,1.483,2.786L264.656,370.182z"/>
			</g>
			<g>
				<path fill="#231F20" d="M267.483,368.803c0.442,0.955,0.946,1.885,1.34,2.862l-2.906,1.202c-0.368-0.91-0.842-1.778-1.253-2.671
					L267.483,368.803z"/>
			</g>
			<g>
				<path fill="#FFFFFF" d="M270.308,367.407c0.475,1.019,1.005,2.011,1.427,3.048l-2.906,1.207c-0.396-0.975-0.897-1.905-1.34-2.86
					L270.308,367.407z"/>
			</g>
		</g>
		<g>
			<g>
				<polygon fill="#231F20" points="269.915,374.628 268.829,371.662 271.735,370.456 272.893,373.618 				"/>
			</g>
			<g>
				<polygon fill="#FFFFFF" points="266.93,375.641 265.917,372.867 268.823,371.665 269.909,374.63 				"/>
			</g>
			<g>
				<path fill="#231F20" d="M269.915,374.646c0.402,0.975,0.645,2.003,0.904,3.024l-3.041,0.812
					c-0.24-0.953-0.461-1.917-0.842-2.826L269.915,374.646z"/>
			</g>
			<g>
				<path fill="#FFFFFF" d="M272.899,373.633c0.426,1.041,0.685,2.134,0.961,3.222l-3.036,0.814c-0.261-1.022-0.5-2.05-0.904-3.025
					L272.899,373.633z"/>
			</g>
		</g>
		<g>
			<g>
				<path fill="#231F20" d="M271.581,380.733c-0.203-1.031-0.508-2.044-0.756-3.064l3.036-0.814c0.267,1.09,0.589,2.168,0.805,3.268
					L271.581,380.733z"/>
			</g>
			<g>
				<path fill="#FFFFFF" d="M268.489,381.346c-0.19-0.966-0.48-1.91-0.711-2.865l3.041-0.812c0.247,1.02,0.553,2.034,0.755,3.066
					L268.489,381.346z"/>
			</g>
			<g>
				<polygon fill="#231F20" points="271.576,380.75 272.253,384.535 268.935,384.28 268.491,381.362 				"/>
			</g>
			<g>
				<polygon fill="#FFFFFF" points="274.668,380.138 275.429,384.584 272.253,384.535 271.584,380.748 				"/>
			</g>
		</g>
	</g>
	<g>
		<ellipse fill="#FFFFFF" cx="385.679" cy="348.382" rx="33.914" ry="29.976"/>
	</g>
	<g>
		<g>
			<g>
				<polygon fill="#231F20" points="419.312,351.584 419.596,349.101 422.079,349.101 421.784,351.817 				"/>
			</g>
			<g>
				<polygon fill="#FFFFFF" points="416.83,351.353 417.103,349.101 419.588,349.101 419.305,351.584 				"/>
			</g>
			<g>
				<polygon fill="#231F20" points="419.304,351.598 419.02,354.083 416.579,353.619 416.829,351.366 				"/>
			</g>
			<g>
				<polygon fill="#FFFFFF" points="421.784,351.83 421.467,354.548 419.026,354.083 419.309,351.598 				"/>
			</g>
		</g>
		<g>
			<g>
				<path fill="#231F20" d="M418.428,356.496c0.303-0.78,0.572-1.569,0.598-2.413l2.441,0.464c-0.04,0.921-0.328,1.783-0.651,2.637
					L418.428,356.496z"/>
			</g>
			<g>
				<path fill="#FFFFFF" d="M416.037,355.808c0.281-0.706,0.534-1.421,0.542-2.189l2.441,0.464
					c-0.023,0.843-0.293,1.631-0.595,2.412L416.037,355.808z"/>
			</g>
			<g>
				<polygon fill="#231F20" points="418.42,356.506 417.592,358.866 415.279,357.962 416.033,355.819 				"/>
			</g>
			<g>
				<polygon fill="#FFFFFF" points="420.813,357.197 419.911,359.773 417.599,358.869 418.425,356.509 				"/>
			</g>
		</g>
		<g>
			<g>
				<path fill="#231F20" d="M416.675,361.185c0.463-0.697,0.604-1.548,0.924-2.315l2.312,0.904c-0.346,0.837-0.52,1.761-1.014,2.52
					L416.675,361.185z"/>
			</g>
			<g>
				<path fill="#FFFFFF" d="M414.446,360.073c0.43-0.635,0.539-1.415,0.832-2.111l2.314,0.904c-0.318,0.767-0.46,1.62-0.924,2.317
					L414.446,360.073z"/>
			</g>
			<g>
				<polygon fill="#231F20" points="416.662,361.194 415.353,363.325 413.235,362.025 414.44,360.082 				"/>
			</g>
			<g>
				<polygon fill="#FFFFFF" points="418.888,362.307 417.476,364.624 415.356,363.328 416.667,361.196 				"/>
			</g>
		</g>
		<g>
			<g>
				<polygon fill="#231F20" points="414.049,365.46 415.356,363.328 417.476,364.624 416.047,366.935 				"/>
			</g>
			<g>
				<polygon fill="#FFFFFF" points="412.047,363.98 413.235,362.025 415.353,363.325 414.044,365.455 				"/>
			</g>
			<g>
				<path fill="#231F20" d="M414.036,365.466c-0.422,0.72-1.096,1.25-1.63,1.884l-1.871-1.635c0.489-0.582,1.124-1.062,1.506-1.727
					L414.036,365.466z"/>
			</g>
			<g>
				<path fill="#FFFFFF" d="M416.04,366.949c-0.466,0.776-1.179,1.353-1.759,2.039l-1.871-1.635c0.536-0.632,1.21-1.161,1.634-1.884
					L416.04,366.949z"/>
			</g>
		</g>
		<g>
			<g>
				<polygon fill="#231F20" points="410.702,369.182 412.409,367.353 414.28,368.988 412.437,370.964 				"/>
			</g>
			<g>
				<polygon fill="#FFFFFF" points="408.963,367.398 410.535,365.715 412.406,367.35 410.699,369.179 				"/>
			</g>
			<g>
				<path fill="#231F20" d="M410.688,369.189c-0.562,0.615-1.115,1.244-1.829,1.688l-1.59-1.91c0.669-0.405,1.171-0.991,1.687-1.559
					L410.688,369.189z"/>
			</g>
			<g>
				<path fill="#FFFFFF" d="M412.426,370.973c-0.61,0.663-1.21,1.335-1.975,1.817l-1.587-1.91c0.714-0.444,1.265-1.071,1.828-1.689
					L412.426,370.973z"/>
			</g>
		</g>
		<g>
			<g>
				<polygon fill="#231F20" points="406.841,372.355 408.864,370.88 410.451,372.79 408.283,374.378 				"/>
			</g>
			<g>
				<polygon fill="#FFFFFF" points="405.394,370.327 407.269,368.967 408.859,370.876 406.839,372.35 				"/>
			</g>
			<g>
				<polygon fill="#231F20" points="406.827,372.357 404.807,373.83 403.518,371.704 405.383,370.333 				"/>
			</g>
			<g>
				<polygon fill="#FFFFFF" points="408.275,374.386 406.096,375.963 404.81,373.836 406.831,372.361 				"/>
			</g>
		</g>
		<g>
			<g>
				<polygon fill="#231F20" points="402.573,374.95 404.81,373.836 406.096,375.963 403.706,377.161 				"/>
			</g>
			<g>
				<polygon fill="#FFFFFF" points="401.437,372.734 403.518,371.704 404.807,373.83 402.573,374.947 				"/>
			</g>
			<g>
				<polygon fill="#231F20" points="402.56,374.95 400.304,376.034 399.333,373.748 401.426,372.739 				"/>
			</g>
			<g>
				<polygon fill="#FFFFFF" points="403.695,377.168 401.28,378.324 400.305,376.039 402.563,374.956 				"/>
			</g>
		</g>
		<g>
			<g>
				<path fill="#231F20" d="M397.995,376.966c0.826-0.163,1.558-0.568,2.311-0.927l0.975,2.286
					c-0.809,0.381-1.598,0.811-2.474,0.989L397.995,376.966z"/>
			</g>
			<g>
				<path fill="#FFFFFF" d="M397.179,374.611c0.775-0.142,1.453-0.53,2.154-0.863l0.971,2.286c-0.753,0.357-1.485,0.766-2.312,0.927
					L397.179,374.611z"/>
			</g>
			<g>
				<polygon fill="#231F20" points="397.979,376.964 395.567,377.626 394.92,375.228 397.168,374.614 				"/>
			</g>
			<g>
				<polygon fill="#FFFFFF" points="398.793,379.318 396.221,380.031 395.57,377.634 397.98,376.969 				"/>
			</g>
		</g>
		<g>
			<g>
				<polygon fill="#231F20" points="393.157,378.293 395.57,377.634 396.221,380.031 393.643,380.73 				"/>
			</g>
			<g>
				<polygon fill="#FFFFFF" points="392.67,375.851 394.92,375.228 395.567,377.626 393.154,378.289 				"/>
			</g>
			<g>
				<path fill="#231F20" d="M393.145,378.29c-0.794,0.292-1.651,0.22-2.472,0.338l-0.325-2.465c0.77-0.11,1.575-0.029,2.309-0.31
					L393.145,378.29z"/>
			</g>
			<g>
				<path fill="#FFFFFF" d="M393.631,380.733c-0.848,0.304-1.753,0.239-2.632,0.363l-0.326-2.463
					c0.824-0.118,1.682-0.045,2.472-0.336L393.631,380.733z"/>
			</g>
		</g>
		<g>
			<g>
				<polygon fill="#231F20" points="388.182,378.855 390.673,378.633 390.999,381.096 388.346,381.332 				"/>
			</g>
			<g>
				<polygon fill="#FFFFFF" points="388.018,376.369 390.348,376.164 390.673,378.629 388.182,378.849 				"/>
			</g>
			<g>
				<polygon fill="#231F20" points="388.169,378.849 385.68,379.073 385.68,376.588 388.009,376.372 				"/>
			</g>
			<g>
				<polygon fill="#FFFFFF" points="388.331,381.336 385.68,381.562 385.68,379.079 388.169,378.857 				"/>
			</g>
		</g>
		<g>
			<g>
				<polygon fill="#231F20" points="383.187,378.857 385.68,379.079 385.68,381.562 383.024,381.337 				"/>
			</g>
			<g>
				<polygon fill="#FFFFFF" points="383.349,376.372 385.68,376.588 385.68,379.073 383.189,378.849 				"/>
			</g>
			<g>
				<polygon fill="#231F20" points="383.176,378.849 380.684,378.629 381.007,376.164 383.336,376.369 				"/>
			</g>
			<g>
				<polygon fill="#FFFFFF" points="383.012,381.332 380.358,381.098 380.684,378.633 383.176,378.855 				"/>
			</g>
		</g>
		<g>
			<g>
				<path fill="#231F20" d="M378.212,378.298c0.79,0.29,1.648,0.218,2.472,0.336l-0.326,2.465c-0.876-0.126-1.784-0.059-2.631-0.365
					L378.212,378.298z"/>
			</g>
			<g>
				<path fill="#FFFFFF" d="M378.699,375.854c0.735,0.281,1.539,0.2,2.308,0.31l-0.323,2.465c-0.823-0.118-1.68-0.045-2.472-0.337
					L378.699,375.854z"/>
			</g>
			<g>
				<polygon fill="#231F20" points="378.201,378.289 375.788,377.626 376.438,375.228 378.688,375.851 				"/>
			</g>
			<g>
				<polygon fill="#FFFFFF" points="377.713,380.733 375.135,380.031 375.786,377.634 378.199,378.293 				"/>
			</g>
		</g>
		<g>
			<g>
				<polygon fill="#231F20" points="373.374,376.969 375.786,377.634 375.135,380.031 372.562,379.32 				"/>
			</g>
			<g>
				<polygon fill="#FFFFFF" points="374.188,374.616 376.438,375.228 375.788,377.626 373.377,376.964 				"/>
			</g>
			<g>
				<path fill="#231F20" d="M373.365,376.961c-0.826-0.162-1.559-0.568-2.312-0.927l0.974-2.286
					c0.696,0.335,1.376,0.722,2.151,0.863L373.365,376.961z"/>
			</g>
			<g>
				<path fill="#FFFFFF" d="M372.551,379.315c-0.879-0.18-1.668-0.607-2.475-0.989l0.974-2.287c0.753,0.359,1.488,0.766,2.314,0.929
					L372.551,379.315z"/>
			</g>
		</g>
		<g>
			<g>
				<polygon fill="#231F20" points="368.795,374.958 371.049,376.039 370.076,378.326 367.663,377.169 				"/>
			</g>
			<g>
				<polygon fill="#FFFFFF" points="369.928,372.74 372.026,373.748 371.053,376.034 368.795,374.95 				"/>
			</g>
			<g>
				<polygon fill="#231F20" points="368.785,374.947 366.548,373.832 367.837,371.706 369.919,372.734 				"/>
			</g>
			<g>
				<polygon fill="#FFFFFF" points="367.65,377.161 365.26,375.964 366.548,373.836 368.784,374.95 				"/>
			</g>
		</g>
		<g>
			<g>
				<polygon fill="#231F20" points="364.526,372.363 366.548,373.836 365.26,375.964 363.083,374.386 				"/>
			</g>
			<g>
				<polygon fill="#FFFFFF" points="365.972,370.333 367.837,371.706 366.548,373.832 364.53,372.358 				"/>
			</g>
			<g>
				<polygon fill="#231F20" points="364.519,372.35 362.499,370.876 364.086,368.967 365.96,370.327 				"/>
			</g>
			<g>
				<polygon fill="#FFFFFF" points="363.072,374.378 360.904,372.79 362.494,370.881 364.515,372.355 				"/>
			</g>
		</g>
		<g>
			<g>
				<path fill="#231F20" d="M360.665,369.193c0.562,0.615,1.113,1.245,1.829,1.688l-1.59,1.909
					c-0.763-0.482-1.363-1.154-1.975-1.817L360.665,369.193z"/>
			</g>
			<g>
				<path fill="#FFFFFF" d="M362.401,367.407c0.514,0.572,1.017,1.155,1.685,1.559l-1.587,1.91
					c-0.716-0.444-1.271-1.073-1.831-1.688L362.401,367.407z"/>
			</g>
			<g>
				<polygon fill="#231F20" points="360.659,369.181 358.951,367.351 360.823,365.715 362.394,367.4 				"/>
			</g>
			<g>
				<polygon fill="#FFFFFF" points="358.92,370.964 357.078,368.99 358.948,367.354 360.656,369.182 				"/>
			</g>
		</g>
		<g>
			<g>
				<path fill="#231F20" d="M357.314,365.471c0.426,0.722,1.096,1.25,1.634,1.884l-1.87,1.635c-0.582-0.686-1.297-1.264-1.763-2.041
					L357.314,365.471z"/>
			</g>
			<g>
				<path fill="#FFFFFF" d="M359.316,363.991c0.38,0.662,1.017,1.141,1.508,1.724l-1.873,1.637c-0.536-0.634-1.21-1.165-1.632-1.885
					L359.316,363.991z"/>
			</g>
			<g>
				<polygon fill="#231F20" points="357.312,365.457 356.003,363.325 358.123,362.025 359.309,363.98 				"/>
			</g>
			<g>
				<polygon fill="#FFFFFF" points="355.306,366.937 353.88,364.624 355.997,363.328 357.309,365.46 				"/>
			</g>
		</g>
		<g>
			<g>
				<polygon fill="#231F20" points="354.689,361.197 355.997,363.328 353.88,364.624 352.467,362.307 				"/>
			</g>
			<g>
				<polygon fill="#FFFFFF" points="356.916,360.082 358.123,362.025 356.003,363.325 354.694,361.194 				"/>
			</g>
			<g>
				<path fill="#231F20" d="M354.688,361.183c-0.464-0.697-0.606-1.55-0.921-2.314l2.312-0.907c0.292,0.699,0.399,1.477,0.831,2.111
					L354.688,361.183z"/>
			</g>
			<g>
				<path fill="#FFFFFF" d="M352.459,362.295c-0.497-0.761-0.668-1.685-1.014-2.52l2.312-0.905c0.32,0.767,0.461,1.619,0.924,2.315
					L352.459,362.295z"/>
			</g>
		</g>
		<g>
			<g>
				<polygon fill="#231F20" points="352.932,356.509 353.758,358.869 351.445,359.775 350.543,357.197 				"/>
			</g>
			<g>
				<polygon fill="#FFFFFF" points="355.325,355.819 356.079,357.962 353.767,358.869 352.936,356.509 				"/>
			</g>
			<g>
				<path fill="#231F20" d="M352.932,356.495c-0.298-0.78-0.57-1.569-0.595-2.412l2.441-0.464c0.01,0.769,0.264,1.483,0.542,2.191
					L352.932,356.495z"/>
			</g>
			<g>
				<path fill="#FFFFFF" d="M350.54,357.184c-0.323-0.854-0.61-1.716-0.649-2.637l2.441-0.464c0.023,0.846,0.294,1.633,0.596,2.413
					L350.54,357.184z"/>
			</g>
		</g>
		<g>
			<g>
				<polygon fill="#231F20" points="352.046,351.598 352.332,354.083 349.891,354.548 349.572,351.83 				"/>
			</g>
			<g>
				<polygon fill="#FFFFFF" points="354.528,351.366 354.778,353.619 352.337,354.083 352.053,351.598 				"/>
			</g>
			<g>
				<polygon fill="#231F20" points="352.049,351.584 351.768,349.101 354.253,349.101 354.525,351.353 				"/>
			</g>
			<g>
				<polygon fill="#FFFFFF" points="349.572,351.817 349.276,349.101 351.764,349.101 352.045,351.584 				"/>
			</g>
		</g>
		<g>
			<g>
				<polygon fill="#231F20" points="352.045,346.615 351.764,349.101 349.276,349.101 349.571,346.384 				"/>
			</g>
			<g>
				<polygon fill="#FFFFFF" points="354.525,346.846 354.253,349.101 351.768,349.101 352.049,346.615 				"/>
			</g>
			<g>
				<polygon fill="#231F20" points="352.053,346.603 352.337,344.12 354.778,344.582 354.528,346.837 				"/>
			</g>
			<g>
				<polygon fill="#FFFFFF" points="349.572,346.37 349.891,343.652 352.332,344.116 352.046,346.603 				"/>
			</g>
		</g>
		<g>
			<g>
				<path fill="#231F20" d="M352.928,341.703c-0.303,0.78-0.573,1.57-0.596,2.413l-2.441-0.464c0.039-0.919,0.326-1.781,0.646-2.635
					L352.928,341.703z"/>
			</g>
			<g>
				<path fill="#FFFFFF" d="M355.32,342.393c-0.278,0.708-0.532,1.424-0.542,2.19l-2.441-0.463c0.025-0.847,0.297-1.634,0.595-2.415
					L355.32,342.393z"/>
			</g>
			<g>
				<polygon fill="#231F20" points="352.936,341.694 353.767,339.333 356.079,340.239 355.325,342.38 				"/>
			</g>
			<g>
				<polygon fill="#FFFFFF" points="350.543,341.004 351.445,338.426 353.758,339.332 352.93,341.691 				"/>
			</g>
		</g>
		<g>
			<g>
				<path fill="#231F20" d="M354.682,337.016c-0.463,0.696-0.604,1.547-0.924,2.315l-2.312-0.905
					c0.346-0.837,0.517-1.761,1.014-2.52L354.682,337.016z"/>
			</g>
			<g>
				<path fill="#FFFFFF" d="M356.91,338.127c-0.432,0.637-0.539,1.413-0.831,2.112l-2.312-0.905
					c0.315-0.767,0.456-1.618,0.921-2.314L356.91,338.127z"/>
			</g>
			<g>
				<polygon fill="#231F20" points="354.694,337.007 356.003,334.876 358.12,336.173 356.916,338.119 				"/>
			</g>
			<g>
				<polygon fill="#FFFFFF" points="352.466,335.893 353.88,333.575 355.997,334.873 354.689,337.004 				"/>
			</g>
		</g>
		<g>
			<g>
				<polygon fill="#231F20" points="357.306,332.741 355.997,334.873 353.88,333.575 355.306,331.264 				"/>
			</g>
			<g>
				<polygon fill="#FFFFFF" points="359.309,334.221 358.12,336.173 356.003,334.876 357.312,332.744 				"/>
			</g>
			<g>
				<path fill="#231F20" d="M357.319,332.733c0.422-0.721,1.096-1.25,1.632-1.885l1.873,1.637c-0.491,0.582-1.127,1.062-1.508,1.725
					L357.319,332.733z"/>
			</g>
			<g>
				<path fill="#FFFFFF" d="M355.315,331.252c0.464-0.778,1.177-1.354,1.759-2.041l1.873,1.633
					c-0.537,0.635-1.211,1.166-1.634,1.885L355.315,331.252z"/>
			</g>
		</g>
		<g>
			<g>
				<polygon fill="#231F20" points="360.656,329.017 358.948,330.845 357.075,329.211 358.92,327.239 				"/>
			</g>
			<g>
				<polygon fill="#FFFFFF" points="362.392,330.8 360.823,332.485 358.951,330.848 360.659,329.02 				"/>
			</g>
			<g>
				<path fill="#231F20" d="M360.667,329.013c0.562-0.617,1.113-1.245,1.833-1.688l1.587,1.909
					c-0.668,0.405-1.171,0.991-1.685,1.561L360.667,329.013z"/>
			</g>
			<g>
				<path fill="#FFFFFF" d="M358.929,327.228c0.612-0.665,1.213-1.335,1.975-1.819l1.59,1.91c-0.718,0.443-1.267,1.071-1.831,1.687
					L358.929,327.228z"/>
			</g>
		</g>
		<g>
			<g>
				<polygon fill="#231F20" points="364.515,325.845 362.494,327.32 360.904,325.41 363.072,323.823 				"/>
			</g>
			<g>
				<polygon fill="#FFFFFF" points="365.96,327.873 364.086,329.233 362.499,327.324 364.519,325.849 				"/>
			</g>
			<g>
				<polygon fill="#231F20" points="364.53,325.841 366.548,324.369 367.837,326.494 365.97,327.866 				"/>
			</g>
			<g>
				<polygon fill="#FFFFFF" points="363.083,323.815 365.259,322.24 366.544,324.364 364.526,325.837 				"/>
			</g>
		</g>
		<g>
			<g>
				<polygon fill="#231F20" points="368.784,323.248 366.544,324.364 365.259,322.24 367.65,321.036 				"/>
			</g>
			<g>
				<polygon fill="#FFFFFF" points="369.919,325.466 367.837,326.494 366.548,324.369 368.785,323.254 				"/>
			</g>
			<g>
				<polygon fill="#231F20" points="368.795,323.248 371.053,322.167 372.026,324.453 369.928,325.461 				"/>
			</g>
			<g>
				<polygon fill="#FFFFFF" points="367.661,321.032 370.076,319.877 371.048,322.162 368.795,323.243 				"/>
			</g>
		</g>
		<g>
			<g>
				<path fill="#231F20" d="M373.363,321.232c-0.829,0.163-1.562,0.57-2.316,0.93l-0.972-2.286c0.806-0.38,1.596-0.812,2.475-0.989
					L373.363,321.232z"/>
			</g>
			<g>
				<path fill="#FFFFFF" d="M374.177,323.588c-0.775,0.143-1.455,0.53-2.151,0.865l-0.974-2.286
					c0.753-0.357,1.486-0.767,2.312-0.929L374.177,323.588z"/>
			</g>
			<g>
				<polygon fill="#231F20" points="373.374,321.234 375.788,320.574 376.438,322.973 374.188,323.585 				"/>
			</g>
			<g>
				<polygon fill="#FFFFFF" points="372.562,318.884 375.135,318.17 375.786,320.568 373.373,321.231 				"/>
			</g>
		</g>
		<g>
			<g>
				<polygon fill="#231F20" points="378.199,319.906 375.786,320.568 375.135,318.17 377.713,317.471 				"/>
			</g>
			<g>
				<polygon fill="#FFFFFF" points="378.688,322.349 376.438,322.973 375.788,320.574 378.199,319.912 				"/>
			</g>
			<g>
				<path fill="#231F20" d="M378.212,319.908c0.79-0.292,1.648-0.218,2.472-0.336l0.323,2.463c-0.769,0.112-1.576,0.03-2.308,0.311
					L378.212,319.908z"/>
			</g>
			<g>
				<path fill="#FFFFFF" d="M377.724,317.465c0.849-0.301,1.756-0.238,2.634-0.362l0.324,2.463c-0.823,0.12-1.68,0.045-2.472,0.339
					L377.724,317.465z"/>
			</g>
		</g>
		<g>
			<g>
				<polygon fill="#231F20" points="383.173,319.345 380.682,319.566 380.358,317.103 383.01,316.865 				"/>
			</g>
			<g>
				<polygon fill="#FFFFFF" points="383.336,321.83 381.007,322.035 380.684,319.572 383.173,319.35 				"/>
			</g>
			<g>
				<polygon fill="#231F20" points="383.187,319.349 385.677,319.127 385.677,321.611 383.349,321.829 				"/>
			</g>
			<g>
				<polygon fill="#FFFFFF" points="383.024,316.864 385.677,316.637 385.677,319.122 383.187,319.344 				"/>
			</g>
		</g>
		<g>
			<g>
				<polygon fill="#231F20" points="388.169,319.344 385.677,319.122 385.677,316.637 388.331,316.864 				"/>
			</g>
			<g>
				<polygon fill="#FFFFFF" points="388.006,321.829 385.677,321.611 385.677,319.127 388.169,319.349 				"/>
			</g>
			<g>
				<polygon fill="#231F20" points="388.182,319.35 390.673,319.572 390.348,322.035 388.018,321.83 				"/>
			</g>
			<g>
				<polygon fill="#FFFFFF" points="388.343,316.865 390.999,317.103 390.673,319.566 388.182,319.345 				"/>
			</g>
		</g>
		<g>
			<g>
				<path fill="#231F20" d="M393.145,319.905c-0.79-0.294-1.648-0.219-2.472-0.339l0.326-2.463c0.874,0.124,1.784,0.061,2.632,0.362
					L393.145,319.905z"/>
			</g>
			<g>
				<path fill="#FFFFFF" d="M392.657,322.346c-0.735-0.281-1.542-0.199-2.309-0.311l0.325-2.463
					c0.822,0.118,1.679,0.044,2.472,0.337L392.657,322.346z"/>
			</g>
			<g>
				<polygon fill="#231F20" points="393.154,319.912 395.567,320.574 394.917,322.973 392.67,322.349 				"/>
			</g>
			<g>
				<polygon fill="#FFFFFF" points="393.643,317.471 396.221,318.17 395.567,320.568 393.157,319.906 				"/>
			</g>
		</g>
		<g>
			<g>
				<polygon fill="#231F20" points="397.98,321.231 395.567,320.568 396.221,318.17 398.791,318.884 				"/>
			</g>
			<g>
				<polygon fill="#FFFFFF" points="397.168,323.585 394.917,322.973 395.567,320.574 397.979,321.234 				"/>
			</g>
			<g>
				<path fill="#231F20" d="M397.991,321.238c0.828,0.162,1.559,0.572,2.312,0.929l-0.971,2.286c-0.7-0.336-1.379-0.722-2.154-0.865
					L397.991,321.238z"/>
			</g>
			<g>
				<path fill="#FFFFFF" d="M398.805,318.888c0.877,0.177,1.666,0.609,2.475,0.989l-0.975,2.286c-0.753-0.36-1.485-0.767-2.311-0.93
					L398.805,318.888z"/>
			</g>
		</g>
		<g>
			<g>
				<polygon fill="#231F20" points="402.563,323.243 400.305,322.162 401.28,319.877 403.695,321.032 				"/>
			</g>
			<g>
				<polygon fill="#FFFFFF" points="401.426,325.461 399.333,324.453 400.304,322.167 402.559,323.248 				"/>
			</g>
			<g>
				<polygon fill="#231F20" points="402.57,323.254 404.806,324.369 403.518,326.494 401.437,325.466 				"/>
			</g>
			<g>
				<polygon fill="#FFFFFF" points="403.706,321.036 406.096,322.24 404.81,324.364 402.573,323.248 				"/>
			</g>
		</g>
		<g>
			<g>
				<polygon fill="#231F20" points="406.831,325.837 404.81,324.364 406.096,322.24 408.27,323.815 				"/>
			</g>
			<g>
				<polygon fill="#FFFFFF" points="405.383,327.866 403.518,326.494 404.806,324.369 406.827,325.841 				"/>
			</g>
			<g>
				<polygon fill="#231F20" points="406.839,325.849 408.859,327.323 407.269,329.233 405.394,327.873 				"/>
			</g>
			<g>
				<polygon fill="#FFFFFF" points="408.283,323.823 410.451,325.41 408.864,327.32 406.841,325.845 				"/>
			</g>
		</g>
		<g>
			<g>
				<path fill="#231F20" d="M410.691,329.006c-0.562-0.615-1.113-1.244-1.828-1.687l1.587-1.91c0.763,0.483,1.365,1.154,1.975,1.819
					L410.691,329.006z"/>
			</g>
			<g>
				<path fill="#FFFFFF" d="M408.955,330.794c-0.516-0.57-1.017-1.155-1.687-1.561l1.59-1.91c0.714,0.444,1.267,1.073,1.829,1.69
					L408.955,330.794z"/>
			</g>
			<g>
				<polygon fill="#231F20" points="410.699,329.02 412.406,330.848 410.535,332.485 408.963,330.8 				"/>
			</g>
			<g>
				<polygon fill="#FFFFFF" points="412.437,327.239 414.28,329.211 412.409,330.845 410.702,329.017 				"/>
			</g>
		</g>
		<g>
			<g>
				<path fill="#231F20" d="M414.043,332.73c-0.424-0.719-1.098-1.252-1.634-1.885l1.871-1.633c0.581,0.686,1.293,1.262,1.759,2.041
					L414.043,332.73z"/>
			</g>
			<g>
				<path fill="#FFFFFF" d="M412.041,334.21c-0.382-0.663-1.017-1.143-1.506-1.725l1.871-1.637c0.534,0.635,1.208,1.165,1.63,1.885
					L412.041,334.21z"/>
			</g>
			<g>
				<polygon fill="#231F20" points="414.044,332.744 415.353,334.873 413.235,336.173 412.047,334.221 				"/>
			</g>
			<g>
				<polygon fill="#FFFFFF" points="416.047,331.264 417.476,333.573 415.356,334.872 414.049,332.739 				"/>
			</g>
		</g>
		<g>
			<g>
				<polygon fill="#231F20" points="416.667,337.004 415.356,334.872 417.476,333.573 418.888,335.893 				"/>
			</g>
			<g>
				<polygon fill="#FFFFFF" points="414.44,338.117 413.235,336.173 415.353,334.873 416.661,337.007 				"/>
			</g>
			<g>
				<path fill="#231F20" d="M416.669,337.018c0.464,0.696,0.606,1.547,0.924,2.316l-2.314,0.902
					c-0.294-0.696-0.402-1.472-0.832-2.109L416.669,337.018z"/>
			</g>
			<g>
				<path fill="#FFFFFF" d="M418.897,335.904c0.494,0.759,0.668,1.685,1.014,2.522l-2.312,0.904
					c-0.32-0.767-0.461-1.618-0.924-2.314L418.897,335.904z"/>
			</g>
		</g>
		<g>
			<g>
				<polygon fill="#231F20" points="418.425,341.691 417.599,339.33 419.911,338.426 420.813,341.003 				"/>
			</g>
			<g>
				<polygon fill="#FFFFFF" points="416.033,342.379 415.279,340.236 417.592,339.333 418.42,341.694 				"/>
			</g>
			<g>
				<path fill="#231F20" d="M418.425,341.705c0.302,0.781,0.572,1.568,0.595,2.412l-2.441,0.466
					c-0.008-0.769-0.261-1.482-0.542-2.19L418.425,341.705z"/>
			</g>
			<g>
				<path fill="#FFFFFF" d="M420.816,341.015c0.323,0.854,0.61,1.717,0.651,2.637l-2.441,0.464
					c-0.026-0.845-0.295-1.634-0.598-2.413L420.816,341.015z"/>
			</g>
		</g>
		<g>
			<g>
				<polygon fill="#231F20" points="419.309,346.603 419.026,344.116 421.467,343.652 421.784,346.368 				"/>
			</g>
			<g>
				<polygon fill="#FFFFFF" points="416.829,346.836 416.579,344.582 419.02,344.116 419.304,346.603 				"/>
			</g>
			<g>
				<polygon fill="#231F20" points="419.305,346.615 419.588,349.101 417.103,349.101 416.83,346.846 				"/>
			</g>
			<g>
				<polygon fill="#FFFFFF" points="421.784,346.382 422.079,349.101 419.596,349.101 419.312,346.615 				"/>
			</g>
		</g>
	</g>
	<g>
		<g>
			<path fill="#231F20" d="M394.14,327.626v43.085h-11.945v-28.187c-1.924,1.461-3.783,2.643-5.573,3.547
				c-1.801,0.904-4.052,1.772-6.758,2.598v-9.636c3.999-1.293,7.105-2.853,9.316-4.671c2.211-1.819,3.938-4.062,5.187-6.735H394.14z
				"/>
		</g>
	</g>
	<g>
		<path fill="#FFFFFF" d="M173.172,309.807c0,0,69.384-23.799,104.477-14.924l-0.806,9.279
			C276.842,304.163,243.361,296.497,173.172,309.807z"/>
	</g>
	<g>
		<path fill="#FFFFFF" d="M461.994,297.101c0,0,31.467-10.287,38.12-26.018l9.681,18.154L461.994,297.101z"/>
	</g>
	<g>
		<g>
			<path fill="#FFFFFF" d="M601.185,312.867l-2.739-3.65c-4.963-0.163-13.61-0.343-24.797-0.194l0.957,3.044
				C583.724,311.986,592.712,312.213,601.185,312.867z"/>
		</g>
		<g>
			<path fill="#FFFFFF" d="M527.843,311.275c-8.057,0.696-16.455,1.589-25.039,2.728l1.016,3.221
				c7.398-0.915,15.912-1.863,25.049-2.697L527.843,311.275z"/>
		</g>
		<g>
			<path fill="#FFFFFF" d="M562.741,303.183c-8.864,0.374-18.368,1.216-27.67,2.273l0.96,3.045
				c9.06-0.824,18.505-1.464,27.835-1.756L562.741,303.183z"/>
		</g>
		<g>
			<path fill="#FFFFFF" d="M526.343,306.513c-8.985,1.155-17.508,2.444-24.757,3.623l0.733,2.34
				c7.342-1.05,15.837-2.149,24.921-3.109L526.343,306.513z"/>
		</g>
		<g>
			<path fill="#FFFFFF" d="M595.713,305.574c-5.802-1.896-14.25-2.626-23.977-2.604l1.137,3.61
				c8.498-0.04,16.753,0.266,24.381,1.045L595.713,305.574z"/>
		</g>
		<g>
			<path fill="#FFFFFF" d="M564.642,309.203c-8.405,0.23-17.837,0.651-27.956,1.375l1.009,3.199
				c9.019-0.708,18.461-1.261,27.903-1.537L564.642,309.203z"/>
		</g>
		<g>
			<path fill="#FFFFFF" d="M538.099,315.064l0.525,1.655c9.631-0.618,19.247-1,27.999-1.228l-0.609-1.94
				C557.629,313.792,548.199,314.25,538.099,315.064z"/>
		</g>
		<g>
			<path fill="#FFFFFF" d="M504.369,318.967l0.394,1.253c7.699-1.222,16.247-2.154,24.999-2.86l-0.472-1.509
				C521.249,316.639,512.885,317.659,504.369,318.967z"/>
		</g>
		<g>
			<path fill="#FFFFFF" d="M601.862,313.772c-3.373-0.17-13.113-0.572-26.847-0.404l0.609,1.933
				c15.995-0.262,27.35-0.046,27.35-0.046L601.862,313.772z"/>
		</g>
		<g>
			<path fill="#FFFFFF" d="M492.977,311.584c-8.246,1.43-13.436,2.461-13.436,2.461c-0.102,0.525-0.155,1.255-0.168,2.095
				c2.898-0.519,7.861-1.379,14.293-2.376L492.977,311.584z"/>
		</g>
		<g>
			<path fill="#FFFFFF" d="M479.795,323.551c0.18,1.846,0.351,3.199,0.351,3.199c4.028-1.969,9.557-3.607,16.048-4.969l-0.441-1.393
				C490.455,321.321,485.125,322.369,479.795,323.551z"/>
		</g>
		<g>
			<path fill="#FFFFFF" d="M494.129,315.232c-4.883,0.738-9.805,1.556-14.737,2.468c0.025,0.935,0.084,1.932,0.155,2.912
				c3.124-0.492,8.532-1.315,15.567-2.263L494.129,315.232z"/>
		</g>
	</g>
	<g>
		<g>
			<path fill="#FFFFFF" d="M268.719,392.427c0,24.018-19.474,43.491-43.49,43.491c-24.021,0-43.496-19.474-43.496-43.491
				c0-24.024,19.475-43.491,43.496-43.491C249.245,348.935,268.719,368.403,268.719,392.427z"/>
			<path fill="#231F20" d="M225.229,437.508c-24.861,0-45.086-20.222-45.086-45.082s20.225-45.082,45.086-45.082
				c24.858,0,45.08,20.222,45.08,45.082S250.087,437.508,225.229,437.508z M225.229,350.525c-23.108,0-41.906,18.797-41.906,41.901
				c0,23.105,18.798,41.901,41.906,41.901c23.103,0,41.9-18.797,41.9-41.901C267.129,369.322,248.332,350.525,225.229,350.525z"/>
		</g>
		<g>
			<circle fill="#231F20" cx="225.227" cy="392.427" r="33.668"/>
		</g>
		<g>
			<path fill="#FFFFFF" d="M253.471,392.427c0,15.598-12.644,28.242-28.242,28.242c-15.601,0-28.249-12.644-28.249-28.242
				c0-15.601,12.649-28.248,28.249-28.248C240.827,364.179,253.471,376.826,253.471,392.427z"/>
		</g>
		<g>
			<path fill="#FFFFFF" d="M225.229,359.57c-18.152,0-32.858,14.709-32.858,32.857c0,18.145,14.706,32.857,32.858,32.857
				c18.14,0,32.854-14.713,32.854-32.857C258.083,374.279,243.369,359.57,225.229,359.57z M245.515,412.717
				c-5.417,5.414-12.622,8.405-20.286,8.405c-7.671,0-14.875-2.991-20.292-8.405c-5.421-5.42-8.403-12.625-8.403-20.291
				c0-7.668,2.982-14.874,8.403-20.291c5.417-5.42,12.62-8.404,20.292-8.404c7.664,0,14.869,2.984,20.286,8.404
				c5.42,5.417,8.406,12.622,8.406,20.291C253.921,400.092,250.935,407.298,245.515,412.717z"/>
		</g>
		<g>
			<g>
				<path fill="#535456" d="M225.091,378.217c-3.912,0-8.703-3.6-10.371-6.814c-0.652-1.258-0.686-2.385-0.104-3.342
					c0.742-1.224,2.458-2.137,5.103-2.714c1.975-0.429,4.126-0.584,5.372-0.584c1.248,0,3.404,0.155,5.376,0.584
					c2.64,0.578,4.356,1.491,5.1,2.714c0.586,0.957,0.553,2.084-0.101,3.342C233.8,374.618,229.009,378.217,225.091,378.217
					L225.091,378.217z"/>
			</g>
			<g>
				<path fill="#FFFFFF" d="M214.89,371.263c-2.811-5.42,7.375-6.258,10.201-6.258c2.831,0,13.012,0.838,10.201,6.258
					c-1.687,3.255-6.468,6.712-10.201,6.712C221.361,377.975,216.578,374.518,214.89,371.263z"/>
			</g>
			<g>
				<g>
					<path fill="#231F20" d="M217.27,370.813c-2.152-4.156,5.653-4.801,7.821-4.801c2.173,0,9.973,0.646,7.824,4.801
						c-1.295,2.491-4.957,5.143-7.824,5.143C222.227,375.956,218.564,373.304,217.27,370.813z"/>
				</g>
			</g>
		</g>
		<g>
			<g>
				<path fill="#535456" d="M225.091,406.443c3.915,0,8.707,3.597,10.372,6.808c0.657,1.261,0.689,2.385,0.104,3.345
					c-0.744,1.224-2.46,2.134-5.1,2.712c-1.975,0.428-4.132,0.584-5.376,0.584c-1.245,0-3.401-0.156-5.375-0.584
					c-2.641-0.578-4.354-1.488-5.1-2.712c-0.582-0.96-0.554-2.084,0.104-3.345C216.385,410.04,221.174,406.443,225.091,406.443
					L225.091,406.443z"/>
			</g>
			<g>
				<path fill="#FFFFFF" d="M235.292,413.394c2.812,5.417-7.372,6.258-10.201,6.258c-2.826,0-13.012-0.842-10.201-6.258
					c1.688-3.255,6.471-6.712,10.201-6.712C228.824,406.682,233.605,410.14,235.292,413.394z"/>
			</g>
			<g>
				<g>
					<path fill="#231F20" d="M232.914,413.848c2.154,4.152-5.654,4.795-7.824,4.795c-2.171,0-9.973-0.643-7.821-4.795
						c1.29-2.497,4.957-5.147,7.821-5.147C227.957,408.701,231.619,411.351,232.914,413.848z"/>
				</g>
			</g>
		</g>
		<g>
			<g>
				<path fill="#535456" d="M212.869,385.267c-1.958,3.392-7.47,5.746-11.088,5.578c-1.415-0.062-2.404-0.593-2.946-1.578
					c-0.688-1.255-0.618-3.199,0.202-5.777c0.613-1.926,1.562-3.867,2.182-4.948c0.624-1.078,1.834-2.867,3.194-4.357
					c1.823-2,3.465-3.032,4.895-3.062c1.129-0.028,2.084,0.565,2.848,1.758C214.104,375.928,214.827,381.882,212.869,385.267
					L212.869,385.267z"/>
			</g>
			<g>
				<path fill="#FFFFFF" d="M201.747,390.628c-6.1-0.273-1.735-9.516-0.318-11.964c1.415-2.454,7.231-10.846,10.521-5.708
					c1.974,3.093,2.58,8.963,0.711,12.197C210.793,388.386,205.409,390.796,201.747,390.628z"/>
			</g>
			<g>
				<g>
					<path fill="#231F20" d="M202.544,388.342c-4.674-0.208-1.326-7.292-0.242-9.175c1.087-1.882,5.549-8.315,8.068-4.373
						c1.511,2.373,1.978,6.87,0.546,9.342C209.481,386.622,205.353,388.473,202.544,388.342z"/>
				</g>
			</g>
		</g>
		<g>
			<g>
				<path fill="#535456" d="M237.317,399.384c1.954-3.392,7.467-5.74,11.085-5.578c1.416,0.065,2.405,0.6,2.946,1.59
					c0.686,1.249,0.617,3.19-0.203,5.768c-0.612,1.932-1.556,3.87-2.18,4.945c-0.623,1.081-1.833,2.87-3.196,4.367
					c-1.818,2-3.471,3.025-4.895,3.059c-1.126,0.028-2.081-0.562-2.844-1.761C236.078,408.723,235.356,402.778,237.317,399.384
					L237.317,399.384z"/>
			</g>
			<g>
				<path fill="#FFFFFF" d="M248.438,394.026c6.097,0.279,1.73,9.516,0.317,11.964c-1.415,2.451-7.232,10.852-10.523,5.705
					c-1.969-3.09-2.575-8.957-0.711-12.19C239.389,396.268,244.777,393.858,248.438,394.026z"/>
			</g>
			<g>
				<g>
					<path fill="#231F20" d="M247.638,396.315c4.676,0.211,1.326,7.289,0.244,9.165c-1.082,1.882-5.542,8.324-8.063,4.379
						c-1.515-2.367-1.98-6.864-0.548-9.349C240.699,398.039,244.828,396.188,247.638,396.315z"/>
				</g>
			</g>
		</g>
		<g>
			<g>
				<path fill="#535456" d="M212.869,399.384c1.954,3.389,1.235,9.339-0.713,12.389c-0.764,1.193-1.719,1.789-2.848,1.761
					c-1.43-0.034-3.072-1.059-4.895-3.065c-1.36-1.497-2.575-3.28-3.194-4.361c-0.624-1.078-1.569-3.019-2.182-4.945
					c-0.82-2.578-0.89-4.519-0.202-5.768c0.54-0.991,1.531-1.525,2.946-1.59C205.396,393.644,210.911,395.992,212.869,399.384
					L212.869,399.384z"/>
			</g>
			<g>
				<path fill="#FFFFFF" d="M211.95,411.695c-3.29,5.147-9.109-3.258-10.523-5.705c-1.415-2.454-5.777-11.685,0.32-11.964
					c3.659-0.171,9.046,2.242,10.914,5.479C214.529,402.738,213.922,408.605,211.95,411.695z"/>
			</g>
			<g>
				<g>
					<path fill="#231F20" d="M210.369,409.86c-2.519,3.944-6.984-2.497-8.068-4.379c-1.084-1.876-4.432-8.954,0.242-9.165
						c2.809-0.128,6.937,1.724,8.372,4.196C212.347,402.996,211.88,407.493,210.369,409.86z"/>
				</g>
			</g>
		</g>
		<g>
			<g>
				<path fill="#535456" d="M237.317,385.267c-1.96-3.385-1.239-9.333,0.713-12.386c0.759-1.193,1.718-1.786,2.844-1.758
					c1.424,0.031,3.075,1.062,4.895,3.062c1.363,1.491,2.573,3.283,3.196,4.361c0.624,1.078,1.569,3.019,2.18,4.945
					c0.82,2.578,0.89,4.516,0.203,5.771c-0.54,0.991-1.529,1.522-2.946,1.584C244.784,391.017,239.274,388.665,237.317,385.267
					L237.317,385.267z"/>
			</g>
			<g>
				<path fill="#FFFFFF" d="M238.238,372.956c3.284-5.137,9.102,3.261,10.516,5.715c1.415,2.448,5.78,11.681-0.317,11.958
					c-3.66,0.168-9.049-2.243-10.917-5.476C235.657,381.919,236.263,376.049,238.238,372.956z"/>
			</g>
			<g>
				<g>
					<path fill="#231F20" d="M239.819,374.795c2.52-3.941,6.981,2.497,8.063,4.373c1.082,1.885,4.432,8.963-0.244,9.175
						c-2.809,0.131-6.938-1.721-8.367-4.199C237.839,381.665,238.303,377.168,239.819,374.795z"/>
				</g>
			</g>
		</g>
		<g>
			<path fill="#231F20" d="M236.564,391.703c0,6.233-5.055,11.293-11.293,11.293c-6.24,0-11.295-5.06-11.295-11.293
				c0-6.24,5.055-11.299,11.295-11.299C231.509,380.404,236.564,385.463,236.564,391.703z"/>
		</g>
		<g>
			<path fill="#231F20" d="M233.275,391.635c0,4.46-3.609,8.069-8.071,8.069c-4.455,0-8.071-3.609-8.071-8.069
				c0-4.454,3.615-8.069,8.071-8.069C229.666,383.566,233.275,387.181,233.275,391.635z"/>
		</g>
		<g>
			<path fill="#FFFFFF" d="M232.761,391.504c0,4.18-3.382,7.56-7.557,7.56c-4.171,0-7.561-3.379-7.561-7.56
				c0-4.171,3.39-7.553,7.561-7.553C229.378,383.951,232.761,387.333,232.761,391.504z"/>
		</g>
		<g>
			<path fill="#231F20" d="M228.313,391.364c0,1.575-1.277,2.848-2.858,2.848c-1.581,0-2.857-1.273-2.857-2.848
				c0-1.571,1.276-2.848,2.857-2.848C227.037,388.516,228.313,389.793,228.313,391.364z"/>
		</g>
		<g>
			<ellipse fill="#FFFFFF" cx="225.328" cy="391.287" rx="2.676" ry="2.572"/>
		</g>
		<g>
			<g>
				<path fill="#231F20" d="M232.169,392.352c-0.419,0.761-1.381,1.034-2.14,0.612c-0.762-0.422-1.033-1.382-0.609-2.143
					c0.421-0.758,1.381-1.031,2.143-0.606C232.323,390.638,232.593,391.597,232.169,392.352z"/>
			</g>
			<g>
				<polygon fill="#FFFFFF" points="229.805,392.187 229.787,391.029 230.778,390.436 231.784,391.001 231.802,392.157 
					230.809,392.743 				"/>
			</g>
			<g>
				<circle fill="#231F20" cx="230.795" cy="391.591" r="0.721"/>
			</g>
		</g>
		<g>
			<g>
				<path fill="#231F20" d="M221.233,392.352c-0.419,0.761-1.381,1.034-2.14,0.612c-0.762-0.422-1.033-1.382-0.609-2.143
					c0.421-0.758,1.381-1.031,2.143-0.606C221.387,390.638,221.657,391.597,221.233,392.352z"/>
			</g>
			<g>
				<polygon fill="#FFFFFF" points="218.87,392.187 218.851,391.029 219.842,390.436 220.848,391.001 220.867,392.157 
					219.873,392.743 				"/>
			</g>
			<g>
				<circle fill="#231F20" cx="219.859" cy="391.591" r="0.721"/>
			</g>
		</g>
		<g>
			<g>
				<path fill="#231F20" d="M224.563,398.43c-0.761-0.419-1.034-1.379-0.612-2.14c0.422-0.761,1.382-1.031,2.143-0.609
					c0.758,0.422,1.031,1.382,0.606,2.143C226.277,398.585,225.318,398.856,224.563,398.43z"/>
			</g>
			<g>
				<polygon fill="#FFFFFF" points="224.727,396.067 225.886,396.048 226.479,397.039 225.914,398.045 224.758,398.064 
					224.171,397.07 				"/>
			</g>
			<g>
				<circle fill="#231F20" cx="225.324" cy="397.057" r="0.721"/>
			</g>
		</g>
		<g>
			<g>
				<path fill="#231F20" d="M224.563,387.494c-0.761-0.419-1.034-1.379-0.612-2.14c0.422-0.761,1.382-1.031,2.143-0.609
					c0.758,0.422,1.031,1.382,0.606,2.143C226.277,387.65,225.318,387.92,224.563,387.494z"/>
			</g>
			<g>
				<polygon fill="#FFFFFF" points="224.727,385.131 225.886,385.112 226.479,386.103 225.914,387.109 224.758,387.128 
					224.171,386.134 				"/>
			</g>
			<g>
				<circle fill="#231F20" cx="225.324" cy="386.122" r="0.721"/>
			</g>
		</g>
	</g>
	<g>
		<g>
			<path fill="#FFFFFF" d="M572.45,392.427c0,24.018-19.474,43.491-43.488,43.491c-24.022,0-43.498-19.474-43.498-43.491
				c0-24.024,19.476-43.491,43.498-43.491C552.976,348.935,572.45,368.403,572.45,392.427z"/>
			<path fill="#231F20" d="M528.961,437.508c-24.863,0-45.088-20.222-45.088-45.082s20.225-45.082,45.088-45.082
				c24.856,0,45.079,20.222,45.079,45.082S553.817,437.508,528.961,437.508z M528.961,350.525
				c-23.109,0-41.908,18.797-41.908,41.901c0,23.105,18.798,41.901,41.908,41.901c23.102,0,41.898-18.797,41.898-41.901
				C570.859,369.322,552.063,350.525,528.961,350.525z"/>
		</g>
		<g>
			<path fill="#231F20" d="M562.626,392.427c0,18.595-15.073,33.671-33.665,33.671c-18.596,0-33.672-15.076-33.672-33.671
				s15.076-33.671,33.672-33.671C547.553,358.756,562.626,373.832,562.626,392.427z"/>
		</g>
		<g>
			<path fill="#FFFFFF" d="M557.2,392.427c0,15.598-12.641,28.242-28.239,28.242c-15.602,0-28.251-12.644-28.251-28.242
				c0-15.601,12.648-28.248,28.251-28.248C544.559,364.179,557.2,376.826,557.2,392.427z"/>
		</g>
		<g>
			<path fill="#FFFFFF" d="M528.961,359.57c-18.154,0-32.86,14.709-32.86,32.857c0,18.145,14.706,32.857,32.86,32.857
				c18.138,0,32.854-14.713,32.854-32.857C561.815,374.279,547.099,359.57,528.961,359.57z M549.246,412.717
				c-5.417,5.414-12.622,8.405-20.284,8.405c-7.671,0-14.877-2.991-20.294-8.405c-5.421-5.42-8.403-12.625-8.403-20.291
				c0-7.668,2.982-14.874,8.403-20.291c5.417-5.42,12.622-8.404,20.294-8.404c7.662,0,14.868,2.984,20.284,8.404
				c5.42,5.417,8.408,12.622,8.408,20.291C557.653,400.092,554.665,407.298,549.246,412.717z"/>
		</g>
		<g>
			<g>
				<path fill="#535456" d="M528.822,378.217c-3.91,0-8.703-3.6-10.371-6.814c-0.652-1.258-0.686-2.385-0.104-3.342
					c0.744-1.224,2.458-2.137,5.105-2.714c1.975-0.429,4.125-0.584,5.37-0.584c1.248,0,3.404,0.155,5.376,0.584
					c2.64,0.578,4.354,1.491,5.1,2.714c0.584,0.957,0.553,2.084-0.099,3.342C537.53,374.618,532.738,378.217,528.822,378.217
					L528.822,378.217z"/>
			</g>
			<g>
				<path fill="#FFFFFF" d="M518.619,371.263c-2.81-5.42,7.376-6.258,10.203-6.258c2.829,0,13.01,0.838,10.203,6.258
					c-1.69,3.255-6.47,6.712-10.203,6.712C525.091,377.975,520.308,374.518,518.619,371.263z"/>
			</g>
			<g>
				<g>
					<path fill="#231F20" d="M521.001,370.813c-2.153-4.156,5.653-4.801,7.821-4.801c2.171,0,9.973,0.646,7.823,4.801
						c-1.295,2.491-4.957,5.143-7.823,5.143C525.958,375.956,522.296,373.304,521.001,370.813z"/>
				</g>
			</g>
		</g>
		<g>
			<g>
				<path fill="#535456" d="M528.822,406.443c3.916,0,8.706,3.597,10.37,6.808c0.658,1.261,0.69,2.385,0.106,3.345
					c-0.745,1.224-2.46,2.134-5.1,2.712c-1.975,0.428-4.131,0.584-5.376,0.584c-1.245,0-3.401-0.156-5.376-0.584
					c-2.64-0.578-4.354-1.488-5.098-2.712c-0.582-0.96-0.554-2.084,0.104-3.345C520.116,410.04,524.905,406.443,528.822,406.443
					L528.822,406.443z"/>
			</g>
			<g>
				<path fill="#FFFFFF" d="M539.024,413.394c2.811,5.417-7.373,6.258-10.203,6.258c-2.826,0-13.012-0.842-10.203-6.258
					c1.689-3.255,6.472-6.712,10.203-6.712C532.555,406.682,537.335,410.14,539.024,413.394z"/>
			</g>
			<g>
				<g>
					<path fill="#231F20" d="M536.645,413.848c2.156,4.152-5.653,4.795-7.823,4.795c-2.171,0-9.973-0.643-7.821-4.795
						c1.289-2.497,4.957-5.147,7.821-5.147C531.688,408.701,535.35,411.351,536.645,413.848z"/>
				</g>
			</g>
		</g>
		<g>
			<g>
				<path fill="#535456" d="M516.6,385.267c-1.958,3.392-7.47,5.746-11.088,5.578c-1.415-0.062-2.404-0.593-2.946-1.578
					c-0.688-1.255-0.618-3.199,0.202-5.777c0.613-1.926,1.562-3.867,2.182-4.948c0.624-1.078,1.834-2.867,3.194-4.357
					c1.823-2,3.464-3.032,4.895-3.062c1.129-0.028,2.084,0.565,2.848,1.758C517.835,375.928,518.557,381.882,516.6,385.267
					L516.6,385.267z"/>
			</g>
			<g>
				<path fill="#FFFFFF" d="M505.478,390.628c-6.1-0.273-1.735-9.516-0.318-11.964c1.415-2.454,7.231-10.846,10.521-5.708
					c1.974,3.093,2.58,8.963,0.711,12.197C514.524,388.386,509.14,390.796,505.478,390.628z"/>
			</g>
			<g>
				<g>
					<path fill="#231F20" d="M506.274,388.342c-4.674-0.208-1.326-7.292-0.242-9.175c1.087-1.882,5.549-8.315,8.068-4.373
						c1.511,2.373,1.978,6.87,0.546,9.342C513.212,386.622,509.084,388.473,506.274,388.342z"/>
				</g>
			</g>
		</g>
		<g>
			<g>
				<path fill="#535456" d="M541.049,399.384c1.951-3.392,7.466-5.74,11.082-5.578c1.416,0.065,2.407,0.6,2.947,1.59
					c0.686,1.249,0.618,3.19-0.202,5.768c-0.615,1.932-1.559,3.87-2.18,4.945c-0.624,1.081-1.833,2.87-3.199,4.367
					c-1.817,2-3.469,3.025-4.895,3.059c-1.124,0.028-2.081-0.562-2.842-1.761C539.807,408.723,539.086,402.778,541.049,399.384
					L541.049,399.384z"/>
			</g>
			<g>
				<path fill="#FFFFFF" d="M552.168,394.026c6.097,0.279,1.73,9.516,0.317,11.964c-1.416,2.451-7.23,10.852-10.523,5.705
					c-1.969-3.09-2.575-8.957-0.711-12.19C543.118,396.268,548.51,393.858,552.168,394.026z"/>
			</g>
			<g>
				<g>
					<path fill="#231F20" d="M551.367,396.315c4.677,0.211,1.329,7.289,0.246,9.165c-1.084,1.882-5.544,8.324-8.063,4.379
						c-1.516-2.367-1.979-6.864-0.55-9.349C544.429,398.039,548.559,396.188,551.367,396.315z"/>
				</g>
			</g>
		</g>
		<g>
			<g>
				<path fill="#535456" d="M516.6,399.384c1.953,3.389,1.235,9.339-0.713,12.389c-0.764,1.193-1.719,1.789-2.848,1.761
					c-1.431-0.034-3.072-1.059-4.895-3.065c-1.36-1.497-2.575-3.28-3.194-4.361c-0.624-1.078-1.569-3.019-2.182-4.945
					c-0.82-2.578-0.89-4.519-0.202-5.768c0.54-0.991,1.531-1.525,2.946-1.59C509.127,393.644,514.642,395.992,516.6,399.384
					L516.6,399.384z"/>
			</g>
			<g>
				<path fill="#FFFFFF" d="M515.68,411.695c-3.29,5.147-9.109-3.258-10.523-5.705c-1.415-2.454-5.777-11.685,0.32-11.964
					c3.659-0.171,9.046,2.242,10.914,5.479C518.26,402.738,517.653,408.605,515.68,411.695z"/>
			</g>
			<g>
				<g>
					<path fill="#231F20" d="M514.1,409.86c-2.519,3.944-6.984-2.497-8.068-4.379c-1.084-1.876-4.432-8.954,0.242-9.165
						c2.809-0.128,6.937,1.724,8.372,4.196C516.078,402.996,515.611,407.493,514.1,409.86z"/>
				</g>
			</g>
		</g>
		<g>
			<g>
				<path fill="#535456" d="M541.049,385.267c-1.963-3.385-1.242-9.333,0.711-12.386c0.761-1.193,1.718-1.786,2.842-1.758
					c1.425,0.031,3.075,1.062,4.895,3.062c1.367,1.491,2.575,3.283,3.199,4.361c0.621,1.078,1.565,3.019,2.18,4.945
					c0.82,2.578,0.888,4.516,0.202,5.771c-0.54,0.991-1.531,1.522-2.947,1.584C548.516,391.017,543.006,388.665,541.049,385.267
					L541.049,385.267z"/>
			</g>
			<g>
				<path fill="#FFFFFF" d="M541.969,372.956c3.286-5.137,9.1,3.261,10.517,5.715c1.416,2.448,5.78,11.681-0.317,11.958
					c-3.659,0.168-9.05-2.243-10.917-5.476C539.388,381.919,539.994,376.049,541.969,372.956z"/>
			</g>
			<g>
				<g>
					<path fill="#231F20" d="M543.549,374.795c2.519-3.941,6.979,2.497,8.063,4.373c1.084,1.885,4.432,8.963-0.246,9.175
						c-2.808,0.131-6.938-1.721-8.367-4.199C541.571,381.665,542.034,377.168,543.549,374.795z"/>
				</g>
			</g>
		</g>
		<g>
			<path fill="#231F20" d="M540.295,391.703c0,6.233-5.053,11.293-11.293,11.293c-6.24,0-11.295-5.06-11.295-11.293
				c0-6.24,5.055-11.299,11.295-11.299C535.241,380.404,540.295,385.463,540.295,391.703z"/>
		</g>
		<g>
			<path fill="#231F20" d="M537.005,391.635c0,4.46-3.609,8.069-8.069,8.069c-4.457,0-8.072-3.609-8.072-8.069
				c0-4.454,3.615-8.069,8.072-8.069C533.396,383.566,537.005,387.181,537.005,391.635z"/>
		</g>
		<g>
			<path fill="#FFFFFF" d="M536.49,391.504c0,4.18-3.379,7.56-7.553,7.56s-7.563-3.379-7.563-7.56c0-4.171,3.388-7.553,7.563-7.553
				S536.49,387.333,536.49,391.504z"/>
		</g>
		<g>
			<path fill="#231F20" d="M532.042,391.364c0,1.575-1.273,2.848-2.858,2.848c-1.578,0-2.857-1.273-2.857-2.848
				c0-1.571,1.279-2.848,2.857-2.848C530.769,388.516,532.042,389.793,532.042,391.364z"/>
		</g>
		<g>
			<ellipse fill="#FFFFFF" cx="529.059" cy="391.287" rx="2.676" ry="2.572"/>
		</g>
		<g>
			<g>
				<path fill="#231F20" d="M535.9,392.352c-0.419,0.761-1.379,1.034-2.14,0.612c-0.761-0.422-1.034-1.382-0.609-2.143
					c0.419-0.758,1.382-1.031,2.143-0.606C536.055,390.638,536.322,391.597,535.9,392.352z"/>
			</g>
			<g>
				<polygon fill="#FFFFFF" points="533.536,392.187 533.518,391.029 534.508,390.436 535.515,391.001 535.533,392.157 
					534.539,392.743 				"/>
			</g>
			<g>
				<circle fill="#231F20" cx="534.527" cy="391.591" r="0.721"/>
			</g>
		</g>
		<g>
			<g>
				<path fill="#231F20" d="M524.964,392.352c-0.419,0.761-1.382,1.034-2.14,0.612c-0.764-0.422-1.031-1.382-0.609-2.143
					c0.422-0.758,1.379-1.031,2.143-0.606C525.116,390.638,525.39,391.597,524.964,392.352z"/>
			</g>
			<g>
				<polygon fill="#FFFFFF" points="522.6,392.187 522.582,391.029 523.573,390.436 524.579,391.001 524.597,392.157 
					523.604,392.743 				"/>
			</g>
			<g>
				<circle fill="#231F20" cx="523.588" cy="391.591" r="0.721"/>
			</g>
		</g>
		<g>
			<g>
				<path fill="#231F20" d="M528.293,398.43c-0.761-0.419-1.034-1.379-0.612-2.14c0.422-0.761,1.382-1.031,2.143-0.609
					c0.758,0.422,1.031,1.382,0.606,2.143C530.008,398.585,529.048,398.856,528.293,398.43z"/>
			</g>
			<g>
				<polygon fill="#FFFFFF" points="528.458,396.067 529.617,396.048 530.21,397.039 529.644,398.045 528.489,398.064 
					527.902,397.07 				"/>
			</g>
			<g>
				<circle fill="#231F20" cx="529.054" cy="397.057" r="0.721"/>
			</g>
		</g>
		<g>
			<g>
				<path fill="#231F20" d="M528.293,387.494c-0.761-0.419-1.034-1.379-0.612-2.14c0.422-0.761,1.382-1.031,2.143-0.609
					c0.758,0.422,1.031,1.382,0.606,2.143C530.008,387.65,529.048,387.92,528.293,387.494z"/>
			</g>
			<g>
				<polygon fill="#FFFFFF" points="528.458,385.131 529.617,385.112 530.21,386.103 529.644,387.109 528.489,387.128 
					527.902,386.134 				"/>
			</g>
			<g>
				<circle fill="#231F20" cx="529.054" cy="386.122" r="0.721"/>
			</g>
		</g>
	</g>
</g>
</svg>
