<?xml version="1.0" encoding="utf-8"?>
<!-- Generator: Adobe Illustrator 17.0.0, SVG Export Plug-In . SVG Version: 6.00 Build 0)  -->
<!DOCTYPE svg PUBLIC "-//W3C//DTD SVG 1.1//EN" "http://www.w3.org/Graphics/SVG/1.1/DTD/svg11.dtd">
<svg version="1.1" id="Layer_1" xmlns="http://www.w3.org/2000/svg" xmlns:xlink="http://www.w3.org/1999/xlink" x="0px" y="0px"
	 width="800px" height="600px" viewBox="0 0 800 600" enable-background="new 0 0 800 600" xml:space="preserve">
<g>
	<g>
		<path fill="#333333" d="M451.808,230.421c-0.325-1.632-0.652-2.937-0.978-4.242c-4.895-17.298-16.644-27.415-34.594-30.678
			c-0.652,0.327-1.305,0.653-1.632,0.98c-0.327,0.327-0.652,0.327-0.978,0.979c-1.958,0-3.917,0-5.875,0.327
			c-0.325,0-0.978,0.326-1.632,0.653c-3.589,0.652-6.527,2.284-8.811,4.569c-1.958,1.305-3.59,2.284-4.895,3.59
			c-4.569,0.652-9.139,1.632-14.034,2.284c-4.895-1.958-9.791-2.937-15.338-2.937c-0.98,0.326-1.958,0.326-2.937,0.653
			c-3.59,0-6.854,0.979-10.117,2.284c0.652-0.652,0.978-0.979,1.632-1.305c-3.917,0.326-7.18,1.632-10.117,3.917
			c-2.61,1.957-4.242,3.916-5.874,6.2c0-0.978,0.652-1.958,1.305-2.937c-0.327,0-0.327,0-0.327,0
			c-0.327,0.327-0.978,0.327-0.978,0.327c-3.264,3.264-5.222,6.852-6.854,11.096c-0.98,1.958-1.632,4.242-1.958,6.2
			c0,0.327,0,0.653,0,0.653c-0.327,1.305-0.978,2.61-0.978,3.916c0-3.264,0-6.854,0-10.443c0,0,0,0-0.327,0
			c-1.958,7.832-1.958,15.664,0.327,23.823c0.652,1.632,0.978,3.917,1.632,5.549c0,1.632,0.652,3.589,1.305,4.895h-0.653
			c0.327,0.325,0.653,0.325,0.653,0.652c0.978,2.937,2.284,5.875,3.915,9.139c3.59,7.506,7.834,14.686,13.054,21.213
			c0.98,9.791,1.632,19.255,1.307,29.045c-0.653,2.611-1.632,5.222-1.958,7.832c-0.653,2.285-0.98,4.569-1.305,6.201
			c0,1.632-0.327,3.264-0.327,4.895c-5.549,15.012-7.832,31.004-6.527,47.322c0.327,4.895,1.305,9.791,2.61,14.359
			c2.285,9.791,6.854,18.276,14.359,25.456c0.327,0,0.327,0.327,0.327,0.652v-0.325c0.653-0.327,0.98-0.327,1.632-0.327l0,0
			c0.327,0,0.653-0.327,0.653-0.327c0.652,0,1.305,0.327,1.632,0.979c1.958-0.325,3.915-0.652,5.874-0.652c0-0.327,0-0.327,0-0.653
			c0-3.264,0-6.527-0.978-9.464c0-0.326,0-0.978,0-1.305c0.327,0.327,0.652,0.979,0.327,1.632c0.652,0,0.978,0,1.632-0.327
			l-0.653-0.326c-0.978-3.59-1.632-7.179-1.958-10.769c-0.327-2.285-0.327-4.895-0.652-7.18c0.325-5.547,0.978-11.096,1.632-16.644
			c-0.653,0.653-1.307,1.306-1.632,2.611c0-0.653,0-0.653,0-1.305c0.325-4.895,1.632-10.117,2.937-15.339
			c0.978-1.632,1.632-3.264,2.284-5.222c0.98-2.937,2.612-5.547,4.244-7.833c0-0.326,0.652-0.978,0.978-1.305
			c4.569-2.285,9.464-4.243,14.034-5.548c5.547,0,11.096,0.326,16.643,1.632c0,0,0,0,0.327,0.326
			c0.653,0.653,0.98,1.632,1.632,2.611c1.305,1.306,2.285,2.938,3.264,4.57c-2.284-2.285-4.895-4.57-7.506-6.854
			c-0.653,0-0.98,0.327-0.327,0.979c3.59,2.612,6.854,5.875,9.137,9.791c1.632,1.958,2.939,4.243,3.917,6.527
			c0.327,0.326,0.327,0.653,0.653,0.98c-0.327,0.978,0,2.284,0,2.937c0.652,2.611,0.978,5.547,1.632,8.159
			c0.325,2.937,0.325,5.874,0.325,9.138l0,0v0.326c0,0,0,0.327,0,1.305c-0.652,7.832-0.978,15.666-1.305,23.498
			c-0.652-1.632-0.978-3.264-1.632-4.569c-0.327-0.327-0.652,0-0.652,0c0.325,2.284,0.652,3.916,0.978,5.547
			c-0.327,0-0.653,0.653-0.978,1.632c-0.653,3.264,0.325,6.527,2.284,9.139c-0.327,0.978-0.327,2.284,0,3.264
			c0.327,0.325,0.653,0.652,0.98,0.978c1.305,0,2.937,0,4.242,0c0.653-0.326,1.305-0.653,1.958-1.305
			c0.327-0.327,0.652-0.653,1.305-0.653c0.327-0.979,0.653-1.632,0.978-2.611c1.958-0.98,2.939-2.937,3.917-5.222v-0.326
			c5.549-6.201,9.464-14.033,11.422-23.497c0,0,0-0.327-0.327-0.327c0-0.327,0-0.327,0-0.653c0.327-2.284,0.653-4.895,1.305-7.179
			c2.285-11.749,1.958-23.825-0.652-35.899c-0.653-2.285-0.98-4.895-1.632-7.507c0,0.326,0,0.653,0.327,0.653
			c0.652,0,0.978,0,0.978,0c-0.653-1.305-1.632-2.937-2.285-4.569c-1.632-6.854-3.264-13.708-4.895-20.235
			c0.327-4.895,0.653-9.464,1.307-14.033c0.325,0,0.325-0.327,0.652-0.653v-0.326c0.653-5.222,1.632-10.443,2.937-15.665
			c-0.325,0.327-0.325,0.327-0.652,0.327c0,0.652-0.327,1.305-0.327,1.957c0.327-2.937,0.978-5.874,1.632-8.811l0,0
			c-0.978,0.979-1.632,2.611-2.61,3.916c-0.327,0.98-0.327,2.285-0.653,3.59c0-1.632,0.327-3.264,0.978-5.222
			c1.632-3.589,3.59-6.853,4.895-10.443c7.507-9.464,11.749-20.561,12.402-32.962c0-1.632,0-3.264,0-4.895s0-3.264,0-4.895
			c-0.327,0-0.327,0-0.327,0.327l0,0C452.134,232.053,452.134,231.074,451.808,230.421z M449.524,242.824
			c0.978-1.632,0.978-3.264,1.305-5.222c0,0.652,0,1.305,0,1.958c-0.978,3.264-1.632,6.2-2.61,9.137
			C448.871,246.739,449.197,244.455,449.524,242.824z M402.202,202.681c-0.327,0.326-0.653,0.653-0.653,0.978
			c-0.652,0.327-1.632,0.653-2.284,0.98c-1.307,0.327-2.285,0.652-3.264,0.979c-0.327,0-0.327,0-0.327,0.327
			C397.959,204.639,399.917,203.66,402.202,202.681z M401.876,204.639c0.653-0.326,1.632-0.653,2.285-0.98
			c6.527-0.978,13.054-0.652,19.255,0.327c0.327,0.327,0.652,0.327,1.305,0.653c0,0,0,0,0,0.327c1.305,0.652,2.285,1.305,3.59,1.957
			c-0.653-0.325-1.632-0.325-2.285-0.325v0.325c0.98,0,1.958,0.327,2.937,0.653c5.549,3.59,9.466,9.139,12.402,15.991
			c2.937,8.486,4.242,16.971,3.264,25.456c-0.327-2.285-0.653-4.895-0.98-7.18c-0.652,1.305-0.978,3.264-0.978,6.2
			c0,3.59-0.327,6.854-0.653,10.444c-5.22,11.096-10.442,21.54-15.664,32.309c0,0,0,0.326,0,0.653l-0.327-0.327
			c-3.915-6.527-8.159-13.054-12.074-19.908c-0.327,0-0.653,0-0.653,0c3.59,7.832,7.506,14.686,12.728,20.561
			c-0.978,1.957-1.632,3.916-2.284,6.2c-2.612-5.548-5.875-11.422-9.139-16.644c-0.327,0-0.652,0-0.327,0.327
			c2.612,6.2,5.875,11.749,9.466,17.623c-0.98,2.937-1.307,6.201-0.653,9.464c-2.937-4.895-5.549-9.464-8.486-14.033
			c-0.978,0.327-0.978,0.979,0,2.284c2.285,2.938,4.244,6.202,5.875,10.117c1.305,2.937,2.61,5.222,4.569,7.18
			c-0.327,1.632-0.327,3.264-0.327,4.569c-3.264-7.506-7.506-14.686-12.401-20.886c-0.327-0.327-0.653-0.327-0.653,0
			c6.527,10.769,12.076,22.192,16.644,33.614c0.327,2.937,0.652,5.222,1.305,7.832c0.327,6.854,1.958,12.729,5.874,18.276
			c0.327-0.652,0.327-0.652,0.327-0.652c0.98,1.632,1.958,2.937,3.264,3.264c0.327,6.527,0.653,13.38,0,20.233
			c0,3.264-0.978,6.2-1.305,9.139c1.305-8.159,1.305-16.644,0-25.13c-0.653,3.264-1.305,7.18-1.305,11.749
			c0,14.686-3.59,28.067-10.444,40.468c-0.652-0.326-1.305-0.326-1.958-0.326c0.327,0,0.653,0.326,1.307,0.326
			c0,0.327,0,0.653,0.325,0.653c-1.305,2.284-2.61,4.569-3.915,6.853c-0.653,0.327-1.305,0.327-1.958,0.327h-0.327
			c-0.652-1.632-1.632-3.264-2.284-4.895c0.652-0.979,0.978-1.958,0.652-2.937l0,0c-0.327,0-0.327,0-0.327,0
			c0.327-0.653,0.327-1.632,0.327-1.958c0-0.979,0.327-1.305,0.653-1.632c0,0.326,0,0.326,0,0.653
			c1.632,2.937,2.937,5.222,4.895,6.527c0-0.327,0-0.653-0.327-0.653c-1.632-3.916-3.264-8.159-4.569-12.401
			c0-2.285,0-4.895,0-7.507c0-0.652,0-0.979,0-1.305c0.978,3.59,2.284,7.832,3.264,11.749c0.652,0,1.305,0,1.632,0
			c0-0.326,0-0.326,0-0.326c-1.305-5.222-2.612-9.791-4.244-14.686c0,0,0,0,0-0.652c0-2.285,0-4.243,0-6.854
			c0-2.285-0.325-4.895-0.652-7.18c2.284,6.853,3.264,14.034,2.937,21.539c0.327,0,0.327,0,0.653-0.326c0.325,0,0.325,0,0.325-0.327
			c0-2.937,0-5.547,0-7.832c1.307,3.264,1.958,6.527,2.939,9.791c0.652,0.98,0.978,0.98,1.305,0c0-0.327,0-0.652,0-0.652
			c-1.305-4.243-2.612-8.486-4.244-12.402c-0.325-4.895-1.305-9.791-2.937-14.36c-1.632-9.137-5.547-16.644-11.096-22.845
			c3.264,3.264,5.874,6.854,7.832,11.096c0-1.305,0-2.611-0.652-3.264c-0.653-1.632-1.632-3.264-2.285-4.569
			c0.327,0.327,0.327,0.327,0.653,0.653c-0.327-0.327-0.327-0.653-0.653-0.653c-0.327-0.653-0.653-0.978-0.978-1.632
			c-1.307-1.632-2.285-2.937-3.917-4.242c1.305,0.325,2.61,0.652,3.917,0.978c0,0,0,0-0.327-0.326
			c-1.958-0.979-3.917-1.958-5.875-2.611c-5.547-9.139-13.054-16.318-22.192-21.54h-0.327c8.159,5.549,15.013,12.401,20.561,20.235
			c-0.327-0.327-0.98-0.327-0.98-0.653c-0.327-0.326-0.652-0.326-0.978-0.326c-0.653-0.652-0.98-1.305-1.632-1.958l-0.327,0.327
			c0,0,0,0,0,0.326c-0.653-0.653-1.632-0.978-2.285-1.632c-0.325,0-0.325,0-0.325,0c-0.327-0.326-0.327-0.326-0.327-0.326
			c0.978,0.326,2.284,0.326,3.264,0.653c-0.327-0.327-0.98-0.327-1.305-0.653c-1.958-0.979-3.59-1.632-5.549-2.284
			c-0.978-0.98-2.285-1.958-3.264-2.285c0.327-0.326,0.653-0.326,0.978-0.653c-0.325,0.327-0.652,0.327-1.305,0.327
			c-5.222-3.916-9.791-8.159-14.359-12.728c-0.653,0-0.653,0-0.327,0.327c3.917,4.569,8.486,8.811,13.381,12.728
			c-0.978,0-2.285,0.327-3.264,1.305c-0.653-0.327-1.305-0.327-1.632-0.652v0.325c-0.327,0-0.653,0-1.305,0
			c-4.569-3.589-9.464-7.179-14.686-10.116l0,0c0,0.325,0,0.325-0.327,0.652c0,0,0,0,0,0.326c1.305,0.327,2.61,1.305,3.59,2.285
			c2.937,2.61,5.547,4.895,8.486,7.179c-0.327,0.326-0.98,0.326-1.632,0.98c-1.307,0-2.612,0.652-3.917,0.652
			c-3.264,0.98-6.2,2.611-7.832,4.895c-2.937-3.264-5.222-6.527-7.18-10.117c-0.652-0.325-0.978,0-0.652,0.327
			c1.632,4.243,3.915,7.832,7.179,11.096c-1.305,1.632-1.632,3.59-1.305,6.202l0,0l-0.327,0.652c0,0-0.327-0.327-0.652-0.652
			c-2.939-5.222-6.202-10.444-9.139-15.992l-0.652,0.327c2.284,5.875,5.22,11.749,8.811,17.298c0.327-0.327,0.98-0.653,1.632-0.653
			c-0.327,0-0.327,0-0.327,0c-0.325,0.653-0.325,0.979-0.652,1.632c-0.98,1.305-1.632,1.958-2.285,2.937
			c-0.327,0.653-0.327,1.632-0.327,1.958c-0.325,0.653-0.978,1.632-0.978,1.958c-3.264-6.854-6.2-13.381-9.464-19.908h-0.327
			c1.958,7.833,4.895,15.013,8.812,21.866c-0.98,2.61-1.307,5.547-1.632,7.832c-3.264-5.875-5.875-12.076-8.486-18.603
			c-0.327-0.327-0.327,0-0.653,0c0.653-2.937,0.98-5.874,1.305-8.811c1.958-12.402,2.285-24.803,1.307-36.879
			c0-1.632,0-2.937,0-4.242c0.652,1.958,0.978,4.242,1.305,5.874c0.652-2.611,0.652-4.895,0.327-7.506c0-0.327,0-0.327,0-0.653
			c0.325-11.096-3.264-20.887-10.117-29.699c0-0.325-0.653-0.652-0.98-0.652c-0.325-0.327-0.325-0.327-0.325-0.327
			c-0.653-0.978-1.632-1.958-2.612-3.264c-1.632-2.61-3.59-5.548-5.547-8.485c-0.327,0-0.327,0-0.327,0.326
			c1.305,1.632,1.958,3.264,2.937,5.222c-0.653-0.327-0.978-0.653-1.305-0.98c-0.327-1.305-1.305-2.611-1.632-3.916
			c-0.653-0.98-1.305-2.285-1.632-3.917c-0.653-1.632-1.305-3.264-1.632-4.895c-0.98-5.874-0.653-11.422,0.327-17.623
			c0.325-1.305,0.978-2.937,1.632-4.242c-1.632,3.916-1.958,7.832-1.307,12.401c0.327,0,0.327-0.326,0.653-0.326
			s0.327-0.327,0.327-0.652c-0.327-3.917,0-7.507,1.632-11.097c1.632-4.895,5.222-8.811,9.791-11.096
			c4.242-2.284,8.486-4.242,13.054-5.874c6.854-0.98,14.033-0.653,20.886,1.305c-1.632-1.632-3.264-2.285-4.895-2.285
			c-2.937-0.327-5.874-0.327-8.486-0.652c6.854,0,13.708,0.979,20.235,2.284c-0.98,0.653-2.285,1.306-3.59,1.958
			c-2.61,1.632-4.895,3.264-5.874,4.895c0.325-0.327,0.978-0.652,1.632-1.305c2.937-2.61,6.527-4.242,10.116-4.895
			c0.653,0,0.98,0,1.632,0.327c0.653,0.652,1.632,0.979,2.612,1.632c-3.917,1.305-7.832,3.264-11.422,5.547l0,0
			c0.327,0.327,0.652,0.327,0.978,0.327s0.327,0,0.653,0c3.59-1.632,7.179-3.264,11.096-4.895c0.653,0.326,1.305,0.98,1.958,1.632
			c0-0.327,0-0.327-0.327-0.652c-0.327-0.327-0.978-0.653-1.305-0.98c2.284-1.305,4.569-1.958,6.527-2.937h-0.327
			c-2.285,0.653-4.895,0.979-7.18,1.632c-0.325,0-0.652-0.326-0.978-0.653c0.653,0,1.305,0.327,1.632,0.653
			c-0.327-0.326-0.978-0.653-0.978-0.653c-0.653-0.325-0.98-0.325-1.307-0.652c-0.325-0.327-0.652-0.653-0.978-0.98c0,0,0,0,0.327,0
			c0,0,0,0-0.327,0c0,0,0,0-0.327,0c-0.327-0.327-0.652-0.652-1.305-0.979c1.632-0.653,3.264-1.632,4.895-2.285
			C395.349,209.861,399.266,207.903,401.876,204.639z M383.926,211.493c-0.978-0.653-1.958-0.98-2.61-1.306
			c1.957,0,3.589,0,5.874,0.327C386.211,210.84,384.905,211.166,383.926,211.493z M379.031,211.166
			c-4.569-1.305-9.464-1.958-14.359-1.958c-3.59,0.326-6.854,0.653-10.444,0.978C362.713,207.903,370.872,208.229,379.031,211.166z
			 M427.658,202.028c0.327,0,0.327,0,0.653,0.327c0,0,0,0,0.327,0c4.569,1.958,8.484,5.222,12.074,10.117c0,0,0.327,0,0.653-0.327
			c0.978,1.632,2.284,3.264,3.264,5.222c-1.632-2.284-3.917-4.242-6.2-5.874c-4.244-4.57-9.139-8.159-15.339-11.097
			C424.721,200.723,426.352,201.376,427.658,202.028z M422.435,197.786c-0.325,0-0.652,0-0.652,0
			c-1.632-0.327-3.264-0.327-5.222-0.327c-0.327-0.327-0.327-0.327-0.327-0.327c-0.327,0-0.327,0-0.652,0.327
			c-0.327-0.327-0.653-0.327-0.98,0C417.215,196.807,419.825,196.807,422.435,197.786z M419.172,200.071
			c0.327,0.325,0.327,0.652,0.327,0.652c0.653,0.653,1.632,0.98,2.612,1.305c-0.98,0-2.285-0.652-3.59-0.652
			c-2.285-0.653-4.244-0.653-6.2,0.652l0,0c-2.285,0-4.57,0.327-6.854,0.98c2.284-0.98,4.895-1.632,7.179-2.937
			C414.603,200.071,416.888,199.744,419.172,200.071L419.172,200.071z M442.997,266.32c1.632-3.59,3.264-7.179,4.895-10.443
			c0-0.327,0.327-0.653,0.652-0.98c-1.632,5.875-3.915,11.422-7.179,16.971C442.344,269.91,442.67,267.952,442.997,266.32z
			 M433.206,281.66c1.305-2.612,2.937-5.548,4.242-8.159c0.653-0.98,1.632-2.285,1.958-3.264c-1.305,2.937-2.937,6.2-3.917,9.464
			c-1.632,2.937-2.937,6.201-3.915,9.464c-0.327,0.326-0.653,0.653-0.98,0.98C431.248,287.534,432.226,284.27,433.206,281.66z
			 M428.963,292.755c-0.325,0-0.325,0-0.325,0.327s0,0.327-0.327,0.652c0.327-0.979,0.652-1.957,0.978-2.937
			C429.289,291.124,429.289,292.102,428.963,292.755z M372.504,344.646c-1.632,0.98-2.937,2.285-3.917,3.59
			c0-0.326,0-0.326-0.325-0.326c-0.327,0-0.327,0-0.327-0.327C368.913,346.278,370.545,345.299,372.504,344.646z M379.357,343.014
			c-0.653,0.326-1.305,0.98-1.632,1.305c-1.958,1.306-3.59,2.938-5.222,4.57c0,0.325-0.653,0.325-0.978,0.652
			c-0.327,0-0.653,0.326-0.653,0.326c-0.327,0.327-0.327,0.653-0.653,1.305c-0.978,0.98-1.957,2.285-2.937,3.59
			c-0.652,0.327-1.305,0.653-1.632,1.305c0.653-0.979,0.98-1.958,1.632-2.937c2.937-3.917,6.2-7.506,10.444-9.791
			C378.052,343.014,378.704,343.014,379.357,343.014z M381.968,346.278L381.968,346.278c1.958-0.979,3.59-1.632,5.222-1.632
			c0.653,0,1.305,0.653,1.632,0.653c-0.327,0.327-0.653,0.327-0.978,0.327C385.885,345.626,383.926,346.278,381.968,346.278z
			 M388.495,339.751c0-0.327,0.327-0.652,0.98-0.979c0.325,0.327,0.652,0.979,1.305,1.305
			C390.127,339.751,389.148,339.751,388.495,339.751z M395.349,343.014v0.326l0,0c0.327,0,0.653,0.327,0.978,0.653
			c-1.305-0.327-2.61-0.653-3.915-0.653C393.39,343.014,394.044,343.014,395.349,343.014z M395.675,345.299
			c-1.305,0-2.612-0.327-3.59-0.653c-0.653,0.326-0.978,0.326-1.305,0.653c-0.653-0.327-0.98-0.653-1.305-0.98
			C391.432,344.319,393.39,344.646,395.675,345.299z M396.98,345.626c0.327,0.652,0.653,0.652,0.978,0.652c-0.652,0-1.305,0-1.957,0
			C396.327,345.626,396.654,345.626,396.98,345.626z M427.331,318.537c0-0.652,0-0.979,0-1.305c0,0,0,0.653,0.327,0.979
			c-0.327,2.938,0,6.202,0,9.465c-0.652-2.612-1.632-5.549-2.937-8.159c0.653-1.632,0.978-2.612,1.305-4.243
			c0,0.326,0.327,0.326,0.327,0.653c0,0.979,0,2.284,0,3.264C426.679,318.864,427.006,318.537,427.331,318.537z M426.026,302.546
			c0,0.653,0,1.305,0.327,1.958c0.327-1.305,0.653-2.285,1.305-3.59c-0.327,1.305-0.652,2.937-0.652,4.242
			c-0.327,1.306-0.653,2.611-0.98,3.59c0,1.305-0.652,2.285-0.652,3.917c-0.653-0.653-0.98-1.632-1.307-2.285
			C424.721,307.768,425.374,305.157,426.026,302.546z M426.352,314.947c0-0.325,0-0.325,0-0.652c0-0.653,0-0.98,0.327-1.632
			C426.352,313.642,426.352,313.968,426.352,314.947z M434.185,338.445c0.327,0.327,0.327,0.327,0.327,0.327
			c1.632,5.222,2.61,10.443,3.59,15.665c-0.653-0.979-1.305-1.632-1.632-2.937c-0.98-4.569-1.958-9.791-3.264-14.686
			C433.533,337.467,433.858,338.119,434.185,338.445z M335.626,268.605c0.325,0.327,0.325,0.979,0.652,0.979s0.327,0.653,0.653,0.98
			c-0.327-0.327-0.327-0.653-0.653-0.98C335.951,269.584,335.951,268.932,335.626,268.605z M335.951,272.196
			c1.307,0.652,2.285,1.305,2.612,2.61c0.327,0.327,0.327,0.979,1.305,0.979c0.978,1.958,1.958,3.917,2.937,5.875
			c-1.632-1.958-3.264-3.917-4.569-5.875c-0.978-1.632-2.285-3.264-2.937-4.569C335.626,271.216,335.626,271.869,335.951,272.196z
			 M345.417,290.145c0,0.325,0,0.652,0.325,0.978c-2.937-4.242-5.547-8.485-7.832-13.054c1.958,2.611,3.917,5.222,6.527,7.506
			c0,0.327,0.653,1.306,0.653,2.285C345.417,288.513,345.417,289.492,345.417,290.145z M345.417,334.855
			c0.325-1.632,0.978-3.59,0.978-5.547c0,0,0-0.327,0.327-0.653c-0.327,1.632-0.327,3.59-0.327,5.222
			C346.069,333.876,345.742,334.529,345.417,334.855z M346.722,334.855c0,0,0-0.327,0-0.652c0.652-1.958,0.978-3.59,1.305-5.549
			c-1.632,16.318-3.59,32.309-4.895,47.648c1.958-7.18,3.264-14.359,4.569-21.54c1.958,8.159,5.222,15.339,9.464,22.519
			c0,0,0,0,0,0.326c0,1.305-0.325,2.937-0.652,4.242c-0.327-1.957-0.98-4.242-1.632-5.874c-0.327,0-0.327,0.327-0.327,0.327
			c0.978,2.937,1.305,5.547,0.978,8.159c-0.325,0-0.325,0-0.325-0.327c-2.612-7.18-5.222-14.359-7.507-21.539
			c-0.327,0-0.327,0-0.327,0c-0.325,0-0.652,0-0.978,0.326c1.632,8.812,4.569,16.971,9.137,24.15h0.327c0,0.653,0,1.632,0.327,2.285
			c0,0.979,0,2.284,0,3.59c-0.327-0.653-0.653-1.306-0.978-1.958c0,0.327,0,0.327,0,0.652c0.652,2.285,0.652,4.243,0.652,6.854
			c-0.327,0-0.327,0-0.327-0.327c-3.589-7.506-6.527-15.011-8.811-23.17h-0.327c0.653,5.547,1.958,10.769,3.264,16.318
			c1.305,4.569,3.59,7.179,6.854,8.811c0.652,4.895,1.632,9.139,3.264,13.381c0.327,3.264,0.327,6.201,0.652,9.464
			c-1.957-0.327-3.589,0-4.895,0.653c0.327,0,0.653,0.327,0.98,0.652c-0.327,0-0.653,0-0.653,0
			c-0.327-0.325-0.978-0.652-0.978-0.652c-0.327-0.327-0.327-0.653-0.653-0.653c0,0,0-0.327,0-0.652
			c-0.327-0.327-0.652-0.327-0.652-0.653c0,0.327,0,0.327,0,0.653c0,0.325,0,0.325,0,0.652c-0.327-0.327-0.98-0.652-0.98-0.979
			c-2.61-6.2-5.222-12.728-8.486-18.603h-0.325c1.305,4.243,2.61,8.812,4.569,13.054c-1.632-2.611-2.937-5.874-3.264-8.811h-0.327
			c0,0.652,0,0.652,0.327,1.305c-1.958-6.527-3.264-13.054-3.917-19.908c0.653,3.917,1.632,8.159,2.937,12.401
			c1.307,4.243,3.59,7.834,6.202,10.117c1.632,3.264,3.264,5.875,5.547,8.812c0.327,0,0.653-0.653,0.98-0.653
			c0-0.327,0-0.652,0-0.652c0.325-0.98,0-1.958-0.327-2.612c-0.327,0.326-0.327,0.326-0.327,0.653c0,0.652-0.327,0.979-0.327,1.305
			c-0.327,0-0.327,0-0.327-0.326c-4.242-7.506-7.506-15.013-10.442-22.845c0.327,2.285,0.978,4.895,1.632,7.18
			c-2.285-5.222-3.59-10.444-4.244-15.991c-0.325-3.264-0.652-6.527-0.652-9.791c0,0,0,0,0-0.327c0-3.917,0.327-8.159,0.327-12.075
			c0.652-5.874,1.305-11.422,1.632-16.97c0.325-1.632,0.652-2.938,1.305-4.243h-0.327c-0.327,0.326-0.327,0.653-0.327,0.98
			c0.327-1.958,0.653-3.917,1.305-5.875c-0.325,0.326-0.652,0.98-0.978,1.632c0.327-0.979,0.327-1.632,0.327-2.611
			c0.327-0.653,0.652-1.632,0.978-2.285l0,0C346.395,334.855,346.395,334.855,346.722,334.855z M363.366,366.839
			c-0.327,0.325-0.327,0.652-0.653,1.305c0,1.632-0.653,3.264-0.653,4.895c0-1.305,0-2.937,0-4.243
			C362.386,368.144,362.713,367.491,363.366,366.839z M356.186,386.745h0.327v0.327
			C356.186,386.745,356.186,386.745,356.186,386.745z M359.449,383.157L359.449,383.157c0,4.242,0,8.159,0,12.075
			c0-0.652-0.653-1.632-0.653-2.611c0-1.632,0-3.264,0-4.895c0,0,0,0,0,0.327c0.327-0.327,0.327-0.653,0.327-0.98
			c0-0.979,0-1.632,0-2.937c0-0.326,0-0.978,0.327-1.632C359.449,382.83,359.449,383.157,359.449,383.157z M438.102,354.763
			c0,1.305,0.327,2.937,0.652,3.917c-0.978-0.98-1.632-2.285-2.284-3.264C437.122,355.416,437.775,355.416,438.102,354.763z
			 M366.955,348.563c0.327,0.327,0.327,0.327,0.653,0.652c-0.653,0.653-1.305,1.632-1.958,2.285
			C365.977,350.521,366.303,349.541,366.955,348.563z M365.323,357.048c-0.325,0.652-0.652,0.978-0.978,1.305
			c0.327,0,0.327-0.327,0.653-0.653l0,0c0,0,0,0,0-0.652C364.998,357.048,364.998,357.048,365.323,357.048z M431.574,411.549
			c0.978-2.611,1.958-5.547,2.937-8.159c0.327-0.327,0.653-0.652,0.978-0.652C434.511,405.675,432.88,408.612,431.574,411.549z
			 M414.603,420.361c-0.327-1.305-0.652-2.612-0.652-3.917c0.325,0.326,0.652,0.98,0.652,1.632c0,0.326,0,0.653,0,0.98
			c0,0.325,0,0.325,0,0.652l0,0C414.603,419.708,414.603,420.034,414.603,420.361z M416.888,424.603c0-1.305,0-1.958,0-2.937
			c0.652,1.305,1.632,1.958,2.61,2.937C418.52,424.603,417.867,424.603,416.888,424.603z M416.888,428.193
			c-0.327-0.326-0.653-0.326-0.653-0.326s0-0.327,0-0.652C416.235,427.54,416.562,427.867,416.888,428.193z"/>
		<path fill="#333333" d="M399.591,219.325c-0.325-0.326-0.978,0-1.305,0.327c-5.874,1.632-11.096,4.569-15.338,8.486
			c0.325,0,0.652,0,0.978,0.325c0.327-0.325,0.653-0.325,0.978-0.325C390.127,225.199,395.022,222.262,399.591,219.325z"/>
		<path fill="#333333" d="M403.181,233.685c-1.305,0-1.958,0-2.937,0c-5.222,1.305-10.117,2.612-14.686,4.895
			c0,0.326,0,0.326,0.327,0.326C392.412,238.254,397.959,236.622,403.181,233.685z"/>
		<path fill="#333333" d="M404.813,225.199c-0.327,0-0.652,0-0.652,0c-6.527,0.98-12.076,2.938-16.644,6.202
			c0.327,0,0.978,0,1.305,0C394.37,229.443,399.591,227.484,404.813,225.199z"/>
		<path fill="#333333" d="M421.457,257.183c-0.327,0-0.653,0-0.653,0c1.632,4.242,3.59,7.832,6.202,10.769c0-0.327,0-0.652,0-0.652
			C425.374,263.71,423.742,260.446,421.457,257.183z"/>
		<path fill="#333333" d="M419.499,268.279c-0.327-0.326-0.327,0-0.327,0c1.632,4.569,3.264,8.812,6.202,12.728l0,0
			C423.742,276.438,421.457,272.521,419.499,268.279z"/>
		<path fill="#333333" d="M397.307,329.308c-0.327,0-0.327,0-0.327,0c7.832,11.096,16.318,22.192,24.477,33.288
			c0-0.327,0-0.652-0.327-0.979C414.603,349.868,406.444,338.772,397.307,329.308z"/>
		<path fill="#333333" d="M408.076,303.199c-0.327-0.327-0.652-0.327-0.327,0c8.812,11.422,15.339,23.823,19.908,37.531
			c0.327,0,0.327,0,0.327-0.327C424.067,326.696,417.215,313.968,408.076,303.199z"/>
		<path fill="#333333" d="M423.089,366.185h-0.327c1.305,2.937,2.612,6.201,4.244,9.464c1.957,3.264,3.915,5.875,5.22,8.159
			c0.327-0.652,0.327-0.652,0-0.979C429.616,377.281,426.352,371.407,423.089,366.185z"/>
		<path fill="#333333" d="M420.479,374.344c-0.653-0.326-0.98,0-0.653,0.653c2.937,7.832,6.2,15.338,9.464,23.17
			c0.653,0,1.305,0,1.632,0c0-0.325,0-0.652,0-0.652C427.331,389.684,423.742,382.177,420.479,374.344z"/>
		<path fill="#333333" d="M430.594,388.704c0-0.327,0-0.652,0-0.979c-2.284-4.569-4.895-9.464-7.506-14.034
			c0.327,1.958,1.305,4.57,3.264,7.834C427.984,384.462,429.289,387.072,430.594,388.704z"/>
		<path fill="#333333" d="M347.374,388.377l-0.325,0.327c2.61,6.527,4.895,13.381,7.179,20.234c0.98,3.264,2.285,5.222,3.59,6.2
			v-0.326c0.327-3.59-0.653-6.527-2.937-8.159c0,0,0,0,0-0.327C352.596,400.453,350.312,394.252,347.374,388.377z"/>
	</g>
</g>
</svg>
