<?xml version="1.0" encoding="utf-8"?>
<!-- Generator: Adobe Illustrator 17.0.0, SVG Export Plug-In . SVG Version: 6.00 Build 0)  -->
<!DOCTYPE svg PUBLIC "-//W3C//DTD SVG 1.1//EN" "http://www.w3.org/Graphics/SVG/1.1/DTD/svg11.dtd">
<svg version="1.1" id="Layer_1" xmlns="http://www.w3.org/2000/svg" xmlns:xlink="http://www.w3.org/1999/xlink" x="0px" y="0px"
	 width="800px" height="600px" viewBox="0 0 800 600" enable-background="new 0 0 800 600" xml:space="preserve">
<g>
	<g>
		<path fill="#231F20" d="M476.68,210.681c0,0-20.47,3.225-29.359,12.334c0,0-3.588-1.283-0.428-3.73
			c0,0,21.674-11.742,30.702-10.743C477.595,208.542,479.046,208.906,476.68,210.681z"/>
	</g>
	<g>
		<path fill="#231F20" d="M465.873,186.625c0,0,19.88-4.995,26.138,14.495l-6.421,6.116l4.097,24.731l-4.352,1.977l-9.775-27.54
			c0,0-11.396-2.183-10.726-4.346c0,0-6.054-4.199-12.598,0.428l0.042-3.443c0,0,5.34-4.975,15.39,1.527
			c0,0,5.056-1.547,6.362,0.531c0,0-1.204-6.262,7.564-2.08c0,0,5.014-1.06,1.669-2.325c0,0-11.091-11.761-18.307-7.929
			C464.956,188.766,461.368,187.481,465.873,186.625z"/>
	</g>
	<g>
		
			<rect x="343.024" y="218.88" transform="matrix(0.9965 0.083 -0.083 0.9965 20.069 -28.0381)" fill="#FFFFFF" width="8.101" height="16.693"/>
		<path fill="#231F20" d="M350.93,236.486l-9.187-0.767l1.477-17.752l9.19,0.767L350.93,236.486z M342.949,234.697l6.959,0.579
			l1.296-15.519l-6.961-0.579L342.949,234.697z"/>
	</g>
	<g>
		<path fill="#231F20" d="M409.101,361.401c-0.999,11.978-11.377,20.892-23.175,19.909c-1.575-0.129-3.092-0.437-4.542-0.887
			L266.827,346.99c-4.763-1.029-8.145-5.51-7.721-10.573c0.433-5.218,4.748-9.159,9.819-9.155l0.006-0.042l0.741,0.063
			c0.024,0.002,0.041,0.002,0.061,0.004c0.026,0.002,0.05,0.006,0.074,0.009l119.732,10.632
			C401.342,338.91,410.099,349.417,409.101,361.401z M387.805,339.437l-116.202-10.265c-0.026-0.004-0.048-0.009-0.074-0.011
			c-0.018-0.002-0.037,0-0.059-0.002l-0.719-0.063l-0.009,0.037c-4.916-0.037-9.076,3.439-9.461,8.082
			c-0.376,4.497,2.908,7.853,7.538,8.799l111.364,31.163c1.407,0.411,2.88,0.692,4.409,0.821
			c11.453,0.955,21.458-6.904,22.343-17.553C407.825,349.795,399.26,340.391,387.805,339.437z"/>
	</g>
	<g>
		<polygon fill="#231F20" points="605.018,312.117 550.169,361.55 551.064,362.963 605.355,314.155 		"/>
	</g>
	<g>
		<polygon fill="#231F20" points="594.727,302.182 547.894,356.905 548.928,358.17 595.3,304.124 		"/>
	</g>
	<g>
		<polygon fill="#231F20" points="583.112,293.652 543.264,353.656 544.444,354.785 583.921,295.511 		"/>
	</g>
	<g>
		<polygon fill="#231F20" points="570.003,285.533 540.955,351.447 542.314,352.36 571.113,287.226 		"/>
	</g>
	<g>
		<polygon fill="#231F20" points="552.36,284.156 549.806,356.14 551.41,356.485 554.018,285.319 		"/>
	</g>
	<g>
		<polygon fill="#231F20" points="538.381,282.256 546.813,358.008 548.447,358.124 540.406,281.605 		"/>
	</g>
	<g>
		<polygon fill="#231F20" points="523.781,286.086 542.991,359.841 544.625,359.723 525.691,285.148 		"/>
	</g>
	<g>
		<polygon fill="#231F20" points="507.62,290.349 540.708,359.011 542.285,358.578 509.313,289.062 		"/>
	</g>
	<g>
		<polygon fill="#231F20" points="486.094,311 547.468,356.199 548.661,355.078 486.99,309.071 		"/>
	</g>
	<g>
		<polygon fill="#231F20" points="478.607,323.749 543.199,364.213 544.3,363.007 479.354,321.754 		"/>
	</g>
	<g>
		<polygon fill="#231F20" points="468.397,335.237 539.069,363.789 539.945,362.404 468.786,333.144 		"/>
	</g>
	<g>
		<polygon fill="#231F20" points="469.354,367.884 544.335,354.196 544.335,352.563 468.563,365.906 		"/>
	</g>
	<g>
		<polygon fill="#231F20" points="473.474,380.731 548.119,365.306 548.084,363.671 472.64,378.778 		"/>
	</g>
	<g>
		<polygon fill="#231F20" points="475.244,396.451 544.011,363.571 543.579,361.993 473.966,394.754 		"/>
	</g>
	<g>
		<polygon fill="#231F20" points="497.194,417.997 541.923,356.282 540.795,355.102 495.262,417.114 		"/>
	</g>
	<g>
		<polygon fill="#231F20" points="507.664,426.295 551.182,363.717 550.029,362.553 505.715,425.449 		"/>
	</g>
	<g>
		<polygon fill="#231F20" points="522.11,432.539 547.791,360.776 546.373,359.955 520.006,432.236 		"/>
	</g>
	<g>
		<polygon fill="#231F20" points="536.076,434.866 542.333,358.902 540.752,358.476 533.961,435.113 		"/>
	</g>
	<g>
		<polygon fill="#231F20" points="550.184,434.733 539.917,359.208 538.283,359.129 548.176,435.432 		"/>
	</g>
	<g>
		<polygon fill="#231F20" points="565.306,434.938 550.944,360.082 549.308,360.095 563.339,435.745 		"/>
	</g>
	<g>
		<polygon fill="#231F20" points="577.995,427.449 549.111,356.916 547.507,357.252 576.23,428.63 		"/>
	</g>
	<g>
		<polygon fill="#231F20" points="591.38,419.926 542.397,361.53 540.972,362.339 590.056,421.591 		"/>
	</g>
	<g>
		<polygon fill="#231F20" points="601.94,409.838 542.045,362.697 540.817,363.778 600.98,411.739 		"/>
	</g>
	<g>
		<polygon fill="#231F20" points="610.699,397.71 547.61,354.936 546.463,356.099 609.877,399.67 		"/>
	</g>
	<g>
		<polygon fill="#231F20" points="617.699,384.292 547.604,354.357 546.699,355.723 617.271,386.375 		"/>
	</g>
	<g>
		<polygon fill="#231F20" points="620.337,369.7 544.357,363.606 543.937,365.19 620.59,371.817 		"/>
	</g>
	<g>
		<polygon fill="#231F20" points="620.531,353.029 545.063,363.724 544.999,365.36 621.241,355.03 		"/>
	</g>
	<g>
		<polygon fill="#231F20" points="616.922,338.901 542.502,355.393 542.565,357.029 617.782,340.846 		"/>
	</g>
	<g>
		<polygon fill="#231F20" points="613.694,324.815 543.889,355.419 544.265,357.014 614.918,326.554 		"/>
	</g>
	<g>
		<polygon fill="#231F20" points="486.256,407.905 541.731,355.631 540.835,354.257 484.521,406.679 		"/>
	</g>
	<g>
		<path fill="#FFFFFF" d="M624.079,366.341c-3.679,44.183-42.483,77.015-86.666,73.334c-44.183-3.682-77.018-42.481-73.334-86.666
			c3.682-44.183,42.483-77.02,86.668-73.336C594.93,283.357,627.761,322.158,624.079,366.341z M551.427,286.682
			c-40.89-3.406-76.803,26.977-80.21,67.872c-3.406,40.888,26.977,76.797,67.87,80.205c40.89,3.408,76.801-26.977,80.207-67.867
			C622.703,325.997,592.317,290.091,551.427,286.682z"/>
		<path fill="#231F20" d="M544.169,441.076c-2.27,0-4.575-0.096-6.85-0.286c-21.665-1.805-41.334-11.94-55.376-28.537
			c-14.044-16.597-20.785-37.668-18.978-59.337c3.487-41.854,39.077-74.643,81.023-74.643c2.272,0,4.577,0.096,6.854,0.286
			c44.725,3.727,78.079,43.15,74.352,87.877C621.709,408.289,586.119,441.076,544.169,441.076z M543.988,280.51
			c-40.792,0-75.401,31.886-78.794,72.593c-1.757,21.071,4.798,41.565,18.456,57.705c13.658,16.14,32.785,25.996,53.858,27.753
			c2.211,0.183,4.453,0.277,6.662,0.277c40.794,0,75.405-31.886,78.796-72.591c3.625-43.497-28.814-81.833-72.311-85.46
			C548.44,280.604,546.199,280.51,543.988,280.51z M545.342,436.138C545.34,436.138,545.344,436.138,545.342,436.138
			c-2.107,0-4.241-0.087-6.349-0.264c-41.439-3.454-72.342-39.975-68.89-81.411c3.229-38.782,36.206-69.161,75.073-69.161
			c2.102,0,4.237,0.092,6.345,0.266c41.439,3.452,72.342,39.977,68.887,81.418C617.179,405.761,584.203,436.138,545.342,436.138z
			 M545.176,287.539c-37.713,0-69.709,29.479-72.844,67.107c-3.349,40.209,26.638,75.648,66.849,78.999
			c2.045,0.171,4.119,0.256,6.162,0.256c37.709,0,69.702-29.474,72.838-67.103c3.352-40.209-26.636-75.65-66.847-79.002
			C549.29,287.626,547.217,287.539,545.176,287.539z"/>
	</g>
	<g>
		<path fill="#231F20" d="M627.26,366.608c-3.828,45.937-44.17,80.076-90.112,76.246c-45.94-3.826-80.079-44.172-76.251-90.109
			c3.828-45.942,44.174-80.076,90.114-76.251C596.951,280.324,631.088,320.668,627.26,366.608z M551.718,283.778
			c-42.518-3.542-79.856,28.052-83.397,70.57c-3.542,42.516,28.052,79.854,70.568,83.397c42.516,3.544,79.856-28.05,83.397-70.568
			C625.829,324.66,594.234,287.325,551.718,283.778z"/>
	</g>
	<g>
		<path fill="#231F20" d="M490.705,237.47l28.543,89.096l29.876,31.722c0,0,2.596,8.263-6.186,6.218l-31.46-33.414l-27.56-91.969
			C483.918,239.124,485.976,238.062,490.705,237.47z"/>
	</g>
	<g>
		<polygon fill="#FFFFFF" points="543.963,362.603 458.608,354.604 459.072,349.059 545.827,357.569 		"/>
		<path fill="#231F20" d="M544.339,363.199l-0.428-0.039l-85.906-8.051l0.557-6.662l0.564,0.055l87.477,8.582L544.339,363.199z
			 M459.211,354.099l84.376,7.907l1.464-3.952l-85.471-8.384L459.211,354.099z"/>
	</g>
	<g>
		<circle fill="#FFFFFF" cx="545.222" cy="360.755" r="3.561"/>
	</g>
	<g>
		<path fill="#231F20" d="M459.327,355.812c4.077-48.911,47.034-85.257,95.945-81.18c17.392,1.446,33.191,7.815,46.152,17.615
			c-14.331-14.294-33.591-23.794-55.341-25.607c-48.911-4.077-91.866,32.271-95.943,81.182
			c-2.626,31.519,11.536,60.568,35.033,78.326C467.269,408.296,457.064,382.977,459.327,355.812z"/>
	</g>
	<g>
		<polygon fill="#231F20" points="332.916,290.228 278.062,339.662 278.962,341.077 333.252,292.269 		"/>
	</g>
	<g>
		<polygon fill="#231F20" points="322.627,280.296 275.789,335.019 276.825,336.284 323.199,282.238 		"/>
	</g>
	<g>
		<polygon fill="#231F20" points="311.014,271.77 271.162,331.768 272.342,332.899 311.816,273.625 		"/>
	</g>
	<g>
		<polygon fill="#231F20" points="297.901,263.649 268.852,329.561 270.209,330.472 299.011,265.342 		"/>
	</g>
	<g>
		<polygon fill="#231F20" points="280.257,262.27 277.706,334.256 279.305,334.599 281.916,263.433 		"/>
	</g>
	<g>
		<polygon fill="#231F20" points="266.276,260.369 274.71,336.122 276.344,336.238 268.3,259.718 		"/>
	</g>
	<g>
		<polygon fill="#231F20" points="251.679,264.197 270.891,337.959 272.521,337.837 253.591,263.26 		"/>
	</g>
	<g>
		<polygon fill="#231F20" points="235.517,268.462 268.605,337.125 270.183,336.694 237.208,267.175 		"/>
	</g>
	<g>
		<polygon fill="#231F20" points="213.992,289.114 275.365,334.315 276.558,333.192 214.888,287.182 		"/>
	</g>
	<g>
		<polygon fill="#231F20" points="206.502,301.863 271.096,342.329 272.202,341.119 207.251,299.87 		"/>
	</g>
	<g>
		<polygon fill="#231F20" points="196.294,313.351 266.967,341.901 267.843,340.522 196.683,311.26 		"/>
	</g>
	<g>
		<polygon fill="#231F20" points="197.251,345.998 272.235,332.309 272.235,330.677 196.46,344.023 		"/>
	</g>
	<g>
		<polygon fill="#231F20" points="201.372,358.847 276.017,343.42 275.979,341.785 200.537,356.892 		"/>
	</g>
	<g>
		<polygon fill="#231F20" points="203.144,374.565 271.909,341.685 271.479,340.107 201.866,372.87 		"/>
	</g>
	<g>
		<polygon fill="#231F20" points="225.091,396.113 269.825,334.396 268.693,333.212 223.155,395.23 		"/>
	</g>
	<g>
		<polygon fill="#231F20" points="235.563,404.409 279.08,341.829 277.926,340.669 233.612,403.563 		"/>
	</g>
	<g>
		<polygon fill="#231F20" points="250.008,410.655 275.689,338.89 274.271,338.069 247.901,410.349 		"/>
	</g>
	<g>
		<polygon fill="#231F20" points="263.973,412.98 270.231,337.016 268.649,336.592 261.861,413.231 		"/>
	</g>
	<g>
		<polygon fill="#231F20" points="278.083,412.849 267.817,337.322 266.182,337.247 276.073,413.546 		"/>
	</g>
	<g>
		<polygon fill="#231F20" points="293.203,413.05 278.842,338.195 277.205,338.209 291.237,413.859 		"/>
	</g>
	<g>
		<polygon fill="#231F20" points="305.893,405.567 277.009,335.03 275.407,335.364 304.125,406.749 		"/>
	</g>
	<g>
		<polygon fill="#231F20" points="319.28,398.042 270.294,339.644 268.87,340.455 317.954,399.707 		"/>
	</g>
	<g>
		<polygon fill="#231F20" points="329.837,387.954 269.943,340.813 268.715,341.897 328.88,389.851 		"/>
	</g>
	<g>
		<polygon fill="#231F20" points="338.596,375.824 275.51,333.048 274.36,334.215 337.775,377.786 		"/>
	</g>
	<g>
		<polygon fill="#231F20" points="345.597,362.404 275.501,332.471 274.597,333.834 345.168,364.489 		"/>
	</g>
	<g>
		<polygon fill="#231F20" points="348.236,347.818 272.257,341.722 271.835,343.304 348.487,349.926 		"/>
	</g>
	<g>
		<polygon fill="#231F20" points="348.429,331.143 272.962,341.838 272.894,343.474 349.138,333.148 		"/>
	</g>
	<g>
		<polygon fill="#231F20" points="344.815,317.015 270.402,333.509 270.46,335.143 345.68,318.962 		"/>
	</g>
	<g>
		<polygon fill="#231F20" points="341.594,302.927 271.787,333.535 272.165,335.128 342.818,304.67 		"/>
	</g>
	<g>
		<polygon fill="#231F20" points="214.153,386.021 269.624,333.743 268.732,332.371 212.419,384.793 		"/>
	</g>
	<g>
		<path fill="#FFFFFF" d="M351.979,344.457c-3.682,44.181-42.485,77.018-86.668,73.334c-44.183-3.68-77.018-42.488-73.334-86.668
			c3.684-44.185,42.485-77.016,86.666-73.336C322.828,261.471,355.66,300.27,351.979,344.457z M279.324,264.798
			c-40.892-3.408-76.801,26.977-80.21,67.867c-3.406,40.89,26.977,76.803,67.869,80.21c40.893,3.408,76.799-26.979,80.21-67.867
			C350.6,304.116,320.215,268.205,279.324,264.798z"/>
		<path fill="#231F20" d="M272.069,419.192c-2.27,0-4.575-0.096-6.852-0.286c-21.665-1.802-41.332-11.94-55.376-28.537
			c-14.044-16.601-20.785-37.672-18.978-59.337c3.489-41.858,39.081-74.645,81.029-74.645c2.268,0,4.571,0.096,6.843,0.286
			c44.729,3.73,78.086,43.149,74.358,87.879C349.606,386.405,314.016,419.192,272.069,419.192z M271.892,258.624
			c-40.794,0-75.407,31.886-78.8,72.591c-1.757,21.071,4.798,41.565,18.456,57.708c13.66,16.142,32.787,26,53.855,27.755
			c2.215,0.184,4.457,0.278,6.666,0.278c40.792,0,75.403-31.886,78.796-72.591c3.623-43.497-28.817-81.835-72.316-85.462
			C276.338,258.718,274.098,258.624,271.892,258.624z M273.24,414.254C273.237,414.254,273.242,414.254,273.24,414.254
			c-2.106,0-4.241-0.087-6.349-0.264c-20.073-1.672-38.295-11.062-51.306-26.439c-13.013-15.377-19.258-34.901-17.584-54.976
			c3.231-38.777,36.206-69.156,75.069-69.156c2.104,0,4.241,0.092,6.349,0.266c41.439,3.452,72.342,39.975,68.89,81.418
			C345.075,383.875,312.098,414.254,273.24,414.254z M273.069,265.655c-37.707,0-69.703,29.476-72.84,67.102
			c-1.621,19.481,4.438,38.426,17.062,53.347c12.626,14.923,30.307,24.034,49.787,25.657c2.045,0.17,4.118,0.255,6.161,0.255
			c37.705,0,69.7-29.474,72.84-67.103c3.349-40.211-26.638-75.65-66.849-79.001C277.186,265.742,275.112,265.655,273.069,265.655z"
			/>
	</g>
	<g>
		<path fill="#231F20" d="M355.158,344.72c-3.828,45.942-44.174,80.079-90.112,76.251c-45.942-3.828-80.079-44.172-76.251-90.112
			c3.828-45.942,44.174-80.079,90.114-76.251C324.849,258.436,358.988,298.782,355.158,344.72z M279.617,261.897
			c-42.518-3.546-79.856,28.047-83.4,70.568c-3.542,42.516,28.05,79.854,70.57,83.397c42.514,3.542,79.854-28.052,83.397-70.568
			C353.727,302.776,322.131,265.439,279.617,261.897z"/>
	</g>
	<g>
		<path fill="#231F20" d="M279.381,338.552c-0.411,4.931-4.739,8.595-9.675,8.185c-4.934-0.411-8.595-4.739-8.185-9.675
			c0.411-4.934,4.741-8.593,9.675-8.183C276.13,329.286,279.792,333.618,279.381,338.552z"/>
	</g>
	<g>
		
			<rect x="186.594" y="330.605" transform="matrix(0.9965 0.083 -0.083 0.9965 28.4709 -17.7829)" fill="#FFFFFF" width="82.858" height="5.565"/>
		<path fill="#231F20" d="M269.589,340.203l-0.557-0.046l-83.129-6.926l0.555-6.662l0.557,0.048l83.127,6.926L269.589,340.203z
			 M187.109,332.209l81.457,6.789l0.369-4.431l-81.455-6.786L187.109,332.209z"/>
	</g>
	<g>
		<path fill="#FFFFFF" d="M272.549,337.341c-0.164,1.96-1.883,3.415-3.843,3.255c-1.962-0.166-3.415-1.883-3.251-3.848
			c0.162-1.958,1.883-3.413,3.841-3.249C271.258,333.664,272.713,335.384,272.549,337.341z"/>
	</g>
	<g>
		<path fill="#231F20" d="M187.225,333.931c4.075-48.913,47.032-85.261,95.945-81.187c17.392,1.451,33.189,7.815,46.154,17.619
			c-14.333-14.293-33.591-23.798-55.341-25.611c-48.913-4.075-91.868,32.273-95.945,81.182
			c-2.626,31.524,11.536,60.565,35.03,78.331C195.169,386.414,184.963,361.091,187.225,333.931z"/>
	</g>
	<g>
		<polygon fill="#231F20" points="489.359,247.706 346.722,234.918 345.579,227.924 489.892,241.343 		"/>
	</g>
	<g>
		<polygon fill="#231F20" points="494.395,268.572 410.064,340.4 405.963,335.506 492.763,260.059 		"/>
	</g>
	<g>
		<polygon fill="#231F20" points="346.906,234.686 276.506,324.649 268.435,324.959 346.029,227.467 		"/>
	</g>
	<g>
		<polygon fill="#231F20" points="350.657,231.345 391.377,359.267 383.977,359.389 342.324,232.497 		"/>
	</g>
	<g>
		<path fill="#231F20" d="M388.508,337.855c-11.798-0.986-22.163,7.787-23.147,19.585c-0.983,11.803,7.787,22.166,19.585,23.147
			c11.803,0.983,22.164-7.783,23.149-19.585C409.079,349.203,400.311,338.84,388.508,337.855z M397.488,346.177l2.233-2.661
			l0.752,3.393l3.22,1.302l-2.993,1.765l-0.243,3.461l-2.602-2.301l-3.369,0.839l1.385-3.184l-1.84-2.949L397.488,346.177z
			 M374.167,343.572l3.186,1.385l2.945-1.842l-0.332,3.459l2.661,2.229l-3.391,0.754l-1.304,3.221l-1.763-2.991l-3.461-0.243
			l2.299-2.604L374.167,343.572z M370.505,362.12l-0.214-3.465l-2.976-1.787l3.234-1.274l0.782-3.382l2.209,2.676l3.459-0.301
			l-1.866,2.93l1.357,3.201l-3.362-0.872L370.505,362.12z M375.241,370.272l-3.369,0.839l1.383-3.188l-1.838-2.945l3.457,0.334
			l2.233-2.661l0.752,3.395l3.22,1.3l-2.993,1.763l-0.245,3.463L375.241,370.272z M388.228,378.221l-2.928-1.873l-3.199,1.361
			l0.87-3.365l-2.277-2.617l3.467-0.216l1.789-2.976l1.274,3.229l3.382,0.787l-2.677,2.209L388.228,378.221z M390.389,345.237
			l0.302,3.463l-2.93-1.868l-3.199,1.354l0.87-3.362l-2.277-2.62l3.465-0.216l1.791-2.976l1.272,3.234l3.387,0.782L390.389,345.237z
			 M398.366,372.173l-1.302,3.221l-1.761-2.991l-3.463-0.247l2.301-2.602l-0.839-3.369l3.186,1.383l2.945-1.835l-0.332,3.454
			l2.657,2.235L398.366,372.173z M402.644,362.308l-2.62,2.272l-0.212-3.465l-2.976-1.787l3.231-1.274l0.782-3.382l2.209,2.676
			l3.461-0.301l-1.868,2.93l1.357,3.201L402.644,362.308z"/>
	</g>
	<g>
		<g>
			<path fill="#231F20" d="M389.312,361.393l15.393,34.047l-3.69-0.059l-14.558-35.212
				C386.456,360.169,386.334,355.725,389.312,361.393z"/>
		</g>
		<g>
			<path fill="#FFFFFF" d="M390.949,358.493c-0.177,2.159-2.078,3.767-4.239,3.585c-2.163-0.179-3.769-2.078-3.59-4.236
				c0.179-2.165,2.08-3.771,4.243-3.59C389.524,354.431,391.13,356.33,390.949,358.493z"/>
		</g>
		<g>
			<path fill="#231F20" d="M394.267,395.556l20.781-3.03c0,0,4.553,2.515,0.081,6.906l-21.569,2.635
				C393.56,402.067,389.605,398.287,394.267,395.556z"/>
		</g>
		<g>
			<path fill="#FFFFFF" d="M406.931,397.268c-0.127,1.529-1.473,2.67-3.002,2.541c-1.532-0.125-2.67-1.471-2.541-3.004
				c0.127-1.529,1.47-2.668,3.002-2.539C405.922,394.393,407.06,395.737,406.931,397.268z"/>
		</g>
	</g>
	<g>
		<path fill="#231F20" d="M416.475,344.853c0,0-8.626-14.761-17.859-13.313l-127.851-5.973c0,0-12.742,5.093,2.102,7.319
			c0,0,125.667,5.541,129.521,9.559C402.387,342.445,417.759,356.044,416.475,344.853z"/>
	</g>
	<g>
		<path fill="#231F20" d="M325.22,207.176c0,0-4.466-8.504,8.543-7.912c0,0,46.709,1.182,51.642,9.972
			c0,0-7.158,11.964-21.755,9.762c0,0-15.537,0.184-20.123,4.975c0,0-3.505-8.176-14.392-4.647c0,0-2.998-5.423,9.906-3.609
			l-4.361-6.767C334.681,208.95,323.508,209.99,325.22,207.176z"/>
	</g>
	<g>
		<path fill="#231F20" d="M454.859,200.875c0.415,1.003-0.064,2.15-1.066,2.565l-15.884,6.559c-1.001,0.413-2.15-0.063-2.565-1.064
			l-1.311-3.181c-0.415-1.001,0.063-2.148,1.066-2.563l15.884-6.561c1.003-0.411,2.15,0.068,2.565,1.068L454.859,200.875z"/>
	</g>
	<g>
		<path fill="#231F20" d="M465.801,188.653c0.33,1.033-0.236,2.141-1.269,2.473l-16.358,5.266c-1.031,0.33-2.137-0.238-2.471-1.267
			l-1.053-3.273c-0.33-1.031,0.236-2.137,1.269-2.471l16.356-5.266c1.031-0.334,2.141,0.234,2.473,1.267L465.801,188.653z"/>
	</g>
	<g>
		<path fill="#FFFFFF" d="M495.087,235.123c0.313,1.04-0.275,2.137-1.315,2.449l-9.871,2.967c-1.04,0.312-2.137-0.275-2.447-1.315
			l-0.778-2.587c-0.31-1.038,0.275-2.132,1.315-2.447l9.874-2.967c1.038-0.312,2.135,0.275,2.447,1.318L495.087,235.123z"/>
		<path fill="#231F20" d="M483.333,241.184c-1.105,0-2.1-0.741-2.414-1.8l-0.778-2.587c-0.398-1.328,0.358-2.74,1.689-3.142
			l9.873-2.967c1.315-0.398,2.758,0.398,3.144,1.691l0.776,2.583c0.402,1.335-0.356,2.746-1.689,3.146l-9.871,2.967
			C483.824,241.147,483.58,241.184,483.333,241.184z M492.43,231.697c-0.135,0-0.273,0.022-0.404,0.061l-9.874,2.967
			c-0.741,0.223-1.162,1.009-0.942,1.752l0.778,2.587c0.216,0.721,1.027,1.158,1.75,0.939l9.871-2.967
			c0.743-0.223,1.165-1.009,0.942-1.752l-0.776-2.583C493.599,232.112,493.047,231.697,492.43,231.697z"/>
	</g>
	<g>
		<path fill="#231F20" d="M179.593,292.238c3.631,2.089,8.294,0.97,10.553-2.6c2.261-3.572,1.274-8.266-2.172-10.649
			L179.593,292.238z"/>
	</g>
	<g>
		<path fill="#231F20" d="M502.839,241.85c-5.388,1.449-8.722,6.887-7.49,12.382c1.237,5.491,6.581,8.982,12.07,7.981
			L502.839,241.85z"/>
	</g>
</g>
</svg>
