<?xml version="1.0" encoding="utf-8"?>
<!-- Generator: Adobe Illustrator 17.0.0, SVG Export Plug-In . SVG Version: 6.00 Build 0)  -->
<!DOCTYPE svg PUBLIC "-//W3C//DTD SVG 1.1//EN" "http://www.w3.org/Graphics/SVG/1.1/DTD/svg11.dtd">
<svg version="1.1" id="Layer_1" xmlns="http://www.w3.org/2000/svg" xmlns:xlink="http://www.w3.org/1999/xlink" x="0px" y="0px"
	 width="800px" height="600px" viewBox="0 0 800 600" enable-background="new 0 0 800 600" xml:space="preserve">
<g>
	<path fill-rule="evenodd" clip-rule="evenodd" fill="#020000" d="M157.021,291.331c1.344-2.419,3.229-4.838,5.109-6.985
		c4.566-6.717,11.82-10.746,18.801-14.507c3.495-1.88,7.523-0.537,11.016,0.269c3.495,0.537,6.713,2.686,8.865,5.373
		c1.611,1.88,2.959,3.76,4.569,5.64c2.953,3.493,4.564,7.523,6.715,11.285c0.806,1.611,0.806,3.493,1.074,5.372
		c0,7.256-0.268,14.507-1.609,21.762c0.799,1.074,1.879,2.145,2.145,3.76c0.538,2.685,1.074,5.644,3.223,7.791
		c1.078,1.344,2.685,0.27,4.031,0.536c2.149,0,4.566,0.538,6.45,2.419c1.071,1.074,2.951,1.611,4.296,0.27
		c1.614-3.225,2.151-7.255,4.294-10.21c2.153-1.611,5.111-1.881,7.526-2.685c3.495-1.346,6.716-2.955,9.94-4.566
		c4.031-1.614,7.523-4.569,11.82-5.912c5.912-1.879,11.82-3.76,17.731-5.908c3.225-1.345,5.374-4.301,7.791-6.45
		c4.836-4.029,8.865-9.135,14.239-12.896c3.761-3.222,7.254-6.448,10.746-9.941c2.955-2.954,6.18-5.64,9.672-7.789
		c3.49-2.419,8.059-3.223,12.358-4.031c4.838-0.805,9.672-1.611,14.507-0.268c2.953,0.805,5.908,1.076,8.865,1.613
		c2.685,1.073,5.102,2.955,7.789,4.029c2.689,1.074,5.104,2.417,7.255,4.298c2.685-5.909,5.106-12.089,8.597-17.732
		c1.074-1.61,1.879-3.223,1.879-5.103c0-5.104-0.538-10.207-0.538-15.313c0.268-4.298,0.808-8.327,1.613-12.626
		c0.536-2.955,2.151-5.91,2.685-8.867c0-2.418-0.803-4.566-1.339-6.716c-1.346-5.105-1.883-10.478-2.691-15.85
		c-0.534-3.761-0.534-7.523,0.808-11.016c2.153-4.835,4.298-9.671,6.716-14.505c2.147-4.299,6.177-7.523,10.746-9.134
		c2.685-1.073,5.104-2.418,7.523-4.029c-4.838-2.955-9.132-7.255-11.014-12.36c-0.538-0.805-0.27-2.148,0.803-1.88
		c3.495,0.537,6.718,2.688,10.48,2.417c3.492-0.267,7.519-0.537,10.478-2.685c-5.374,0-10.746-1.613-14.509-5.373
		c-1.879-2.149-3.489-4.3-5.64-6.18c-0.808-0.805,0-2.148,0.536-2.954c0.805,0.537,1.345,1.074,2.151,1.344
		c-1.614-2.15-3.225-4.03-4.836-6.18c0.538-0.269,0.805-0.537,0.805-0.805c4.301,1.075,8.595,1.343,12.627,0.268
		c3.493-1.074,6.45-3.222,8.867-5.91c-2.959,1.074-5.644,2.688-8.867,2.956c-3.761,0.266-8.059,0.266-11.552-1.343
		c0-0.538-0.268-0.807-0.268-1.345c5.104,0.27,10.75,0.807,15.85-0.805c4.569-2.954,9.405-5.64,13.701-8.864
		c1.614-1.342,3.225-2.956,4.3-4.836c-2.421,0.537-5.106,1.343-7.521,2.685c-4.299,2.688-8.329,5.106-12.897,7.524
		c-3.491,1.342-7.523,2.686-11.014,1.342c2.685-1.611,5.912-1.881,8.865-2.955c4.566-1.343,8.595-4.566,11.821-7.791
		c-3.225,1.88-7.791,4.03-11.284,1.074c2.691-1.88,6.45-2.417,9.135-4.567c3.225-2.955,6.447-6.448,7.789-10.746
		c1.074-3.76,2.685-7.252,3.495-11.015c1.611-8.058,5.64-16.387,12.625-21.49c5.642-4.569,12.627-7.254,20.148-7.254
		c4.298,0,8.599,0.805,12.898,1.611c-0.27-4.566-0.81-8.866,0-13.431c0.801-5.91,3.76-12.09,9.402-14.775
		c-3.223,6.446-5.91,13.163-6.45,20.146c1.616-1.88,2.691-4.028,5.106-5.103c4.298-2.954,9.403-4.567,14.504-4.567
		c2.962-0.268,5.912,0.805,8.601,2.15c-1.611,0.269-3.225,0.269-4.836,0c-2.685-0.269-5.372,0.805-7.793,1.611
		c-4.296,1.882-8.864,4.298-11.012,8.598c8.061-3.494,16.656-5.911,25.521-5.103c2.953,0.534,5.64,0.534,8.595,0.266
		c4.566,0.268,8.865,1.614,12.895,3.223c5.642,2.42,11.014,5.105,15.582,8.865c3.76,2.955,6.18,6.986,8.869,11.015
		c-0.268,0.538-0.54,1.075-1.078,1.613c-1.073-1.074-2.147-2.148-3.491-3.492c-3.223-3.492-7.521-5.64-11.82-7.523
		c1.879,2.954,3.49,6.448,6.448,8.867c4.296,4.028,7.791,8.596,11.284,13.163c3.223,4.298,6.985,8.328,8.863,13.433
		c2.417,5.641,5.644,11.013,7.255,16.923c1.343,5.643,4.301,11.015,5.912,16.658c1.341,4.298,4.834,7.791,6.445,12.357
		c-0.806,0-1.881,0.537-2.685,0c-5.37-3.76-9.135-9.403-13.433-14.238c1.611,5.372,5.104,10.21,6.983,15.582
		c0.808,3.223,3.223,5.641,5.108,8.329c-0.268,0.537-0.538,1.074-0.538,1.343c-4.031-2.151-6.448-6.179-9.67-9.134
		c2.685,5.641,5.37,11.284,7.791,17.193c5.638,1.88,11.28,2.419,16.919,3.761c-5.1,2.15-10.742,2.955-16.386,3.224
		c1.346,4.298,3.227,8.865,3.495,13.431c0,1.075-0.808,1.613-1.074,2.419c-2.421-2.687-4.031-5.641-6.716-8.059
		c-3.76-3.493-7.523-7.523-12.628-8.865c0.27,2.149,0.81,4.298,1.346,6.177c1.074,3.762,3.493,6.717,4.564,10.21
		c6.718,2.418,14.241,4.566,21.762,2.956c-1.881,1.61-3.493,3.223-5.642,4.027c-4.031,1.345-8.329,1.345-12.36,1.345
		c0.81,1.611,2.153,2.686,3.765,3.76c-0.27,0.537-0.806,1.344-1.074,1.881c1.879,2.686,4.564,4.837,6.716,7.523
		c1.879,2.417,5.102,4.029,5.644,7.522c-3.495,0-6.722-1.881-9.675-3.492c1.074,2.417,2.151,4.835,3.763,6.986
		c2.417,3.223,4.296,6.446,6.178,9.941c2.415,4.567,4.834,9.67,5.372,15.043c0.272,5.105,2.952,9.672,4.031,14.507
		c2.415,9.133,1.879,18.536,2.951,27.939c0.27,4.3,1.879,8.865,2.689,13.165c0.806,4.836,2.419,9.941,0.806,15.045
		c-0.536,2.687-1.074,5.642-0.266,8.595c1.341,6.986,1.071,13.971,1.071,21.226c0,2.952-0.534,6.176-0.804,9.132
		c-0.806,3.76-1.346,7.521-2.685,11.014c-3.225,8.327-6.72,16.656-9.942,24.717c-3.49,8.595-2.955,18.001-5.374,26.866
		c-1.076,3.489,0.268,6.984,0.54,10.476c0.536,5.106,1.611,10.21,0.536,15.045c-0.536,1.879-1.882,3.495-2.957,4.836
		c-1.074,0.803-0.536,2.419-0.804,3.49c0.268,3.76,0,7.255,0,11.02c4.836-2.691,8.059-7.794,13.431-10.211
		c1.344-0.538,2.957-1.344,4.57-1.074c2.419,0,4.029,2.147,5.64,3.76c2.419,2.957,5.64,5.106,8.059,8.063
		c2.151,2.685,4.031,5.908,6.448,8.595c2.683,3.223,4.568,6.984,6.715,10.478c4.569,8.059,7.789,16.652,13.433,24.177
		c2.417,3.225,4.03,6.985,5.912,10.746c2.953,5.64,5.638,11.819,6.445,18.269c0.54,3.492,1.078,7.251,1.078,11.011
		c0,7.526-1.884,14.781-4.299,21.492c-1.881,5.111-5.376,9.942-10.75,11.556c-3.76,0.805-7.519,0.268-11.281-0.268
		c-1.881-0.538-3.491-1.883-4.029-3.761c-1.613-4.836-4.566-9.137-7.251-13.436c-4.569-7.791-9.137-15.846-15.051-23.101
		c-2.681-3.22-2.951-7.521-5.1-11.016c-0.538,3.227-0.538,6.716-1.611,9.675c-0.268,2.147-2.689,2.952-4.57,3.221
		c-1.341-0.536-2.421-1.611-3.49-2.421c-2.421-2.147-5.642-2.951-8.601-4.296c-1.611-0.536-3.76-0.536-5.1,0.806
		c-2.149,1.879-4.031,4.3-6.18,6.448c-2.421,2.417-5.374,4.301-7.255,7.253c-3.225,4.3-6.175,8.597-9.942,12.358
		c-4.296,3.76-8.055,8.329-11.818,12.625c-2.955,3.495-6.447,6.18-9.672,9.405c-4.029,3.761-8.863,6.444-13.701,8.597
		c-3.763,1.342-7.253,3.49-11.016,5.104c-4.298,1.881-8.059,4.832-12.357,6.981c-3.761,1.616-8.063,2.691-11.822,4.301
		c-2.951,1.342-5.91,2.417-9.4,2.417c-2.691,0-5.37-1.607-7.791-2.687c-4.836-1.611-8.329-5.372-12.36-8.327
		c-3.49-2.415-5.91-6.18-8.862-9.133c-1.344-1.613-1.614-4.031-2.149-6.18c-0.808-6.716-1.344-13.431-1.881-20.148
		c-0.54-7.524-2.151-15.045-2.689-22.566c-1.611-15.58,0.268-30.895,0.268-46.209c0-10.742,3.221-21.222,2.957-31.966
		c-0.808-8.599,0.264-17.196,0.264-25.793c0.272-1.879-1.611-2.685-2.68-3.763c-3.495-3.221-6.722-6.981-10.211-10.206
		c-7.526-7.255-15.046-13.971-22.3-21.492c-4.566-4.834-10.21-8.595-15.312-12.895c-5.374-4.299-11.284-7.521-16.926-11.55
		c-4.564-3.225-9.673-5.374-14.239-8.869c-2.147-1.881-4.566-2.951-7.255-3.76c-0.801,1.074-1.341,1.879-2.415,2.689
		c-1.074,0.534-2.685,0.27-3.76,0.804c-5.106,2.685-9.407,6.447-14.241,9.671c-5.372,3.493-10.746,6.985-15.846,11.014
		c-3.495,2.685-7.796,4.3-11.556,6.715c-2.685,1.614-5.104,2.957-8.059,3.761c-7.791,2.151-16.116,5.374-21.492,11.554
		c-2.415,3.221-4.834,6.447-8.059,8.597c-6.178,4.294-12.627,8.595-19.61,11.55c-2.419,1.879-2.957,5.374-5.378,7.255
		c-2.95,2.419-5.638,5.37-9.13,6.178c-1.614,0.806-2.959-0.538-4.3-1.076c-1.611-1.073-2.685-2.683-4.299-3.761
		c-2.151-1.881-4.566-3.221-6.716-5.102c-4.834,4.566-9.402,8.863-14.236,13.161c-2.689,2.421-5.106,5.106-8.059,6.987
		c-1.882,1.614-4.569,1.614-6.72,0.804c-4.029-1.339-7.523-3.76-10.476-6.981c-2.417-2.689-5.106-5.108-6.985-8.601
		c-2.151-4.028-4.301-8.059-5.642-12.358c-1.344-5.1-2.689-9.936-3.76-15.042c-2.691-6.985-3.223-14.776-4.569-22.03
		c-1.611-9.672-3.221-19.071-6.445-28.206c-2.688-7.525-1.613-15.584-1.882-23.105C148.963,312.552,151.649,301.539,157.021,291.331
		L157.021,291.331z M427.016,284.613c-1.346,4.567-2.147,9.134-4.298,13.43c6.18,4.031,12.893,6.72,19.339,10.212
		c-0.803-7.523-1.611-15.044-3.49-22.297c-1.344-7.793-6.988-14.24-7.791-22.031c-0.538-2.685-0.808-5.64-1.344-8.327
		c-1.343,3.492-3.225,6.985-4.029,10.745c0.804,3.762,2.415,7.255,2.687,11.015C428.359,279.778,427.554,282.195,427.016,284.613
		L427.016,284.613z M560.535,348.554c-0.542,2.415-1.078,5.102-1.883,7.521c2.687,1.341,4.836,3.761,6.985,5.64
		c0.806-4.566,0.806-9.13,1.074-13.969c0.272-3.221,0-6.447-0.808-9.672C564.025,341.299,561.34,344.524,560.535,348.554z"/>
	<g>
		<path fill-rule="evenodd" clip-rule="evenodd" fill="#FFFFFF" d="M539.311,42.83c-5.374-3.492-11.554-5.911-18.001-7.255
			c-2.419-0.536-5.106-1.611-7.519-0.805c2.685,1.345,5.908,2.149,8.86,3.492c2.691,0.807,4.569,2.688,7.255,2.688
			C533.133,41.218,536.353,42.024,539.311,42.83z"/>
		<path fill-rule="evenodd" clip-rule="evenodd" fill="#FFFFFF" d="M533.401,47.934c-5.644-4.567-12.629-7.255-19.345-9.671
			c-4.031-1.073-8.323-1.344-12.355-0.267c-3.495,1.88-6.984,4.029-9.67,6.985c3.22-1.881,6.445-4.835,10.474-5.105
			c4.834-0.27,9.94,0,14.236,2.15c5.378,2.418,10.75,5.103,15.584,8.865c5.108,4.836,10.208,10.476,12.628,17.193
			c1.881,5.64,3.76,11.283,7.249,15.85c-1.341-4.567-1.879-9.403-4.83-13.165c-2.149-4.835-4.301-9.403-6.45-14.237
			C539.581,52.771,536.353,50.353,533.401,47.934z"/>
		<path fill-rule="evenodd" clip-rule="evenodd" fill="#FFFFFF" d="M519.432,47.934c-5.376-2.686-11.286-3.491-17.194-4.029
			c-2.151-0.269-3.495,1.343-5.106,2.418c2.419,0.805,4.839,1.612,7.254,1.612c3.225,0,6.18,1.344,8.865,2.419
			c12.895,4.567,23.641,15.313,27.67,28.743c1.611,4.569,2.685,9.135,4.57,13.704c0.801,2.148,2.683,3.76,4.296,5.372
			c2.415,1.88,4.031,4.836,6.18,6.986c-1.884-5.643-6.448-9.941-7.793-15.85c-1.073-4.837-2.419-9.403-4.297-13.701
			c-1.345-2.42-1.881-5.375-2.685-8.06C537.433,57.874,528.564,51.965,519.432,47.934z"/>
		<path fill-rule="evenodd" clip-rule="evenodd" fill="#FFFFFF" d="M493.101,37.456c-3.49,1.073-6.445,3.494-9.132,5.643
			c-1.879,2.149-2.687,4.835-2.687,7.521c2.149-1.342,3.495-3.76,4.838-5.91C487.73,41.755,490.686,39.605,493.101,37.456z"/>
		<path fill-rule="evenodd" clip-rule="evenodd" fill="#FFFFFF" d="M527.221,61.635c-5.638-5.372-12.629-9.135-20.15-11.282
			c5.374,3.223,11.284,5.91,15.58,10.745c4.569,4.298,6.718,9.941,9.673,15.313c2.687,4.299,5.108,9.135,8.597,12.626
			c-1.074-4.566-2.689-9.133-4.029-13.43C535.012,70.231,530.981,65.665,527.221,61.635z"/>
		<path fill-rule="evenodd" clip-rule="evenodd" fill="#FFFFFF" d="M556.234,76.141c-1.611-2.418-2.951-5.103-5.1-7.253
			c1.611,5.372,2.685,11.283,5.1,16.387c1.881,3.492,4.029,6.986,6.45,10.209C560.803,89.036,559.993,82.052,556.234,76.141z"/>
		<path fill-rule="evenodd" clip-rule="evenodd" fill="#FFFFFF" d="M497.67,53.308c-1.611-1.074-3.495-1.343-5.106-1.612
			c4.032,9.939,12.897,16.387,21.492,21.759c0.27-2.687,1.346-5.372-0.264-7.522c-1.882-3.222-4.569-6.178-8.059-8.059
			C503.042,56.263,500.087,54.919,497.67,53.308z"/>
		<path fill-rule="evenodd" clip-rule="evenodd" fill="#FFFFFF" d="M472.687,44.442c-4.838-0.27-9.673-0.807-14.507,0.267
			c-7.254,1.613-13.431,6.447-18.001,12.09c-1.611,2.15-2.419,4.835-3.223,7.52c5.102-3.76,10.474-6.446,15.85-9.94
			c3.763-2.147,8.059-4.298,12.355-5.103c2.689-0.267,5.11-1.613,7.526-2.687C472.955,46.054,472.687,45.248,472.687,44.442z"/>
		<path fill-rule="evenodd" clip-rule="evenodd" fill="#FFFFFF" d="M490.416,53.037c-1.074,0.271-2.415,0.271-3.495,0
			c0.27,1.613,0.27,3.494,0.81,5.374c1.342,3.761,4.301,6.717,6.716,9.941c-5.91-1.881-9.67-7.522-10.206-13.701
			c-4.569,1.881-8.869,4.567-11.822,8.864c-2.417,3.494-5.108,6.986-5.912,11.283c-1.346,6.18-5.642,11.015-6.987,16.926
			c-1.879,3.223,1.344,7.253-1.071,10.208c-0.808-0.538-1.345-1.343-2.149-1.881c-0.81,5.374-0.27,10.746-1.616,16.121
			c-0.536,1.611,0,3.491,0.542,5.103c1.342-4.568,0.805-9.403,2.415-13.701c0.268,0,0.808,0,0.808,0
			c-0.27,5.91-0.54,11.553-1.616,17.193c-0.533,3.225,0.536,6.716,0.536,9.941c0,3.222,0,6.448,0.54,9.671
			c0.54,1.075,0.54,2.418,1.343,3.224c4.028,2.151,7.793,4.835,12.088,5.911c3.225,0.267,6.18-1.076,9.405-1.076
			c1.074-0.269,2.415,0.539,2.149,1.614c0,1.342-1.074,1.881-2.149,2.418c-1.614,0.805-3.225,1.612-4.836,2.417
			c1.076,3.492,2.151,6.986,4.3,9.941c1.341-1.88,2.685-3.762,4.031-5.643c1.069-2.148,1.879-4.298,3.221-6.177
			c0.268,0.268,0.805,0.537,1.074,0.537c0,3.223-0.806,6.177-1.881,9.133c-1.076,2.15-1.614,4.298-1.614,6.716
			c5.644-3.761,10.21-8.864,15.314-13.165c2.957-3.222,6.447-5.909,9.405-8.865c0.806-1.074,0.536-2.685,0.536-4.029
			c0-3.492,0.806-7.253,0-11.014c-1.879,2.956-4.031,5.374-6.984,7.254c0.804,2.955,1.611,5.91,1.879,8.595
			c-0.538,0.269-1.074,0.54-1.611,0.54c-0.538-2.688-1.074-5.375-1.879-8.06c-1.346,1.074-2.691,1.611-3.495,2.954
			c-0.266,1.881-0.266,3.76-0.805,5.64c-0.54-2.417-3.491-4.835-1.611-7.252c2.415-2.687,5.64-4.569,8.862-6.178
			c3.765-3.225,4.839-8.597,6.988-12.895c1.341,1.342,2.951,3.492,4.836,2.685c4.026-2.419,6.175-6.716,8.327-10.476
			c1.609-4.029,0.538-8.33-0.536-12.359c-0.536,0-1.074,0-1.616,0c-0.533,1.344-1.069,2.687-1.611,4.029
			c1.078-0.268,2.421-0.268,3.491,0c0,0.269,0.272,0.807,0.272,1.344c-0.806,0.536-1.883,1.073-2.685,1.881
			c-0.272,1.61,0.266,3.223,0.266,4.566c-0.803,2.15-3.223,3.224-5.104,2.15c0.27-1.074,0.806-1.881,1.342-2.418
			c0.808-1.074,0.808-2.417,1.076-3.76c-0.808,0.537-1.344,1.072-1.879,1.342c0-4.837,1.879-9.403,3.49-13.701
			c0.272-1.345,1.611-3.493,0.272-4.568c-2.151-2.687-3.227-5.642-4.301-8.598c-1.076,1.614-2.151,3.225-2.955,4.838
			c1.613,4.029,2.151,8.595,1.345,13.163c-0.268,2.955-3.225,4.298-5.374,6.178c-5.106,3.492-5.106,10.478-7.791,15.583
			c-2.151,4.298-3.225,9.133-6.984,12.088c-2.957,2.151-6.18,4.301-9.942,4.569c2.687-2.955,5.372-5.911,8.331-8.329
			c1.341-1.074,1.881-2.954,2.415-4.835c1.076-5.643,2.417-11.283,2.685-17.192c0-3.493,3.76-6.448,6.988-5.375
			c1.073,0.269,1.882-0.805,2.683-1.342c1.078-0.806,2.151-1.613,2.959-2.955c1.071-3.493,0-6.985-1.074-10.478
			c-0.806-1.611,0.266-3.76,1.611-5.103c1.879-2.151,2.685-5.374,2.953-8.328c-0.268-1.882-0.805-3.492-1.074-5.375
			C504.386,71.038,495.251,63.515,490.416,53.037L490.416,53.037z M496.596,72.381c0,0.269,0,0.805,0,1.074
			c-1.613,0-2.957,0-4.564,0.537c-1.08,1.614-1.346,3.494-2.153,5.103c-0.806-0.266-1.879-0.534-2.149-1.609
			c-0.54-1.614,1.074-2.957,2.149-4.031C491.49,71.306,494.447,72.113,496.596,72.381L496.596,72.381z M506.265,78.829
			c1.346,2.687,3.495,5.372,3.495,8.597c-1.342-1.345-2.421-3.225-4.028-4.3c-1.883-0.805-3.761-0.536-5.914-0.536
			c-1.342,0.805-2.687,2.148-3.76,3.222c2.147-0.267,4.568-0.267,6.711,1.075c2.691,1.343,4.031,4.299,6.18,6.448
			c0,0,0,0.537-0.268,0.805c-1.343-0.537-2.683-1.074-4.296-1.881c-1.344-1.343-2.149-2.954-4.299-3.225
			c-1.611-1.074-3.225-0.534-4.836,0.271c2.419,1.343,4.836,2.417,6.987,4.567c-3.495,0-7.255-0.269-9.942-2.418
			c-1.344-1.882-1.611-4.029-2.417-6.18c-1.074-1.88-0.268-4.029,0-5.909c1.881,0,3.76,1.342,5.642,0.537
			c2.685-1.074,5.37-2.151,8.329-2.955C504.923,76.679,505.733,78.024,506.265,78.829L506.265,78.829z M483.701,73.455
			c-0.27,2.151,0,4.031,0.805,6.179c-0.805,3.224-2.685,6.447-5.64,8.327c-2.687,1.345-5.104,3.225-6.715,5.643
			c0.805-0.268,2.149-1.075,2.951-0.268c1.344,1.88,2.419,4.029,3.495,5.909c1.343-0.806,1.613-2.149,1.613-3.492
			c2.951-0.269,4.296,2.955,5.91,5.103c0.268-0.268,0.536-0.534,1.071-0.534c-0.27-1.614-0.534-2.956,0-4.569
			c3.225,1.343,2.689,5.103,3.495,7.791c1.879,3.223,3.49,6.447,4.031,9.94c0.266,4.568-2.421,8.865-3.227,13.434
			c-1.074,4.029-1.074,8.595-4.028,12.088c-0.542-0.267-1.342-0.805-1.882-1.075c0.272-1.88,0.54-3.492,0.54-5.372
			c-1.879,1.074-3.495,2.687-5.644,2.418c-2.687-0.268-5.64-0.805-8.325-1.073c-2.421-0.807-5.376-2.15-6.718-4.568
			c-0.272-2.688,1.879-5.105,1.879-7.792c0-2.148-1.341-4.029-2.151-6.177c-0.264,4.835-0.536,9.671-1.881,14.237
			c-0.803,0-1.879,0.27-2.685,0.27c0-5.374,1.883-10.478,1.616-15.851c0-2.151-0.81-4.568,0.266-6.448
			c1.882-3.762,4.568-6.985,6.715-10.477c0.81-1.343,0.538-2.955,1.342-4.568c1.074-1.611,2.152-2.956,2.957-4.568
			c-1.611-0.535-3.49-0.805-5.372-0.805c0-0.805,0-1.344,0-2.15c2.151-0.805,4.568-0.536,6.716,0.269
			c0.266-0.269,0.536-0.805,0.805-1.074c-1.074-1.074-2.421-1.611-4.031-1.611c-1.607,0-3.218,0-4.298-1.344
			c2.149-0.537,4.569-1.343,6.718-1.074c1.881,0.537,3.491,1.612,5.37,2.419c-1.879-2.15-3.76-4.567-5.1-6.984
			c-1.881,0.267-3.765,0.804-5.376,0c1.346-1.614,3.227-3.225,5.376-4.03c2.687,0.805,3.761,4.298,5.64,6.448
			c0.806-1.614,1.342-3.226,2.151-4.569C482.625,73.455,483.161,73.455,483.701,73.455L483.701,73.455z M478.865,140.618
			c-1.345,0.538-2.955,1.343-4.3,0.804c-4.296-1.88-8.865-1.61-13.165-2.684c0.538-1.613,1.612-3.225,2.421-4.836
			C468.655,136.588,474.029,138.2,478.865,140.618L478.865,140.618z M493.371,149.483c-1.611,2.151-4.029,2.954-6.45,3.493
			C488.267,150.558,490.952,150.02,493.371,149.483z"/>
		<path fill-rule="evenodd" clip-rule="evenodd" fill="#FFFFFF" d="M569.132,97.366c-1.344-4.567-2.689-9.404-5.91-12.896
			c0,4.031,1.611,7.791,2.415,11.82c0.536,2.955,0.536,5.911,1.346,8.597c0.265,1.88,1.611,2.954,2.685,4.299
			c2.147,2.955,4.296,5.911,6.984,8.596C574.503,110.797,571.279,104.351,569.132,97.366z"/>
		<path fill-rule="evenodd" clip-rule="evenodd" fill="#FFFFFF" d="M522.922,71.844c-0.536-0.805-1.339-1.343-1.881-2.149
			c1.881,5.103,4.838,9.672,6.45,14.776c2.415,5.911,2.415,12.627,5.102,18.537C533.401,91.724,529.642,80.441,522.922,71.844z"/>
		<path fill-rule="evenodd" clip-rule="evenodd" fill="#FFFFFF" d="M472.15,53.037c-2.421-0.803-4.569,0-6.99,0.539
			c-4.296,0.805-8.592,2.955-12.891,4.835c-2.419,1.074-4.298,3.224-6.18,5.375c-2.955,3.76-6.448,6.983-8.599,11.283
			c-3.491,6.715-5.372,14.238-9.132,20.685c4.834-3.492,8.597-7.792,12.625-12.358c3.495-3.761,6.447-8.327,9.405-12.628
			c4.03-5.908,9.672-10.745,15.852-14.505C468.119,54.919,470.27,54.113,472.15,53.037z"/>
		<path fill-rule="evenodd" clip-rule="evenodd" fill="#FFFFFF" d="M522.119,82.859c-0.272-4.298-2.957-8.329-5.378-12.09
			c0,1.613-0.264,2.955,0.272,4.568c0.808,1.074,2.149,1.88,3.223,2.956c-0.805,0-2.149-0.268-2.685-0.539
			c1.341,5.374,2.685,10.478,5.1,15.314C522.922,89.844,522.652,86.351,522.119,82.859z"/>
		<path fill-rule="evenodd" clip-rule="evenodd" fill="#FFFFFF" d="M560.263,98.171c-3.491-1.612-5.908-5.104-8.595-8.061
			c1.345,4.3,4.3,7.792,6.18,11.821c1.609,2.688,2.955,5.642,5.104,8.06c0.806,1.074,1.611,2.15,2.149,3.492
			c-0.806,0.268-1.879,1.076-2.687,0.268c-1.879-1.342-3.761-2.955-5.91-4.029c4.3,4.3,8.059,8.597,12.629,12.358
			c-1.344-4.029-3.229-7.792-4.031-12.089c-1.076-4.298-1.343-8.327-1.879-12.626C562.414,97.634,561.34,98.44,560.263,98.171z"/>
		<path fill-rule="evenodd" clip-rule="evenodd" fill="#FFFFFF" d="M464.09,63.246c-4.838,3.225-8.863,7.793-11.82,13.165
			c-2.955,5.106-7.521,9.403-10.478,14.776c-5.914,10.745-14.775,19.342-24.713,26.328c-3.495,2.418-7.794,2.149-11.82,2.418
			c1.879,1.611,4.296,2.417,6.447,4.03c0.804,0.537,1.074,1.611,0.536,2.148c-0.536,0.808-1.611,1.074-2.419,1.345
			c3.493,1.88,7.256,3.76,11.552,3.492c4.03-0.537,8.327-1.882,11.819-4.3c4.568-3.222,7.255-8.059,9.137-13.163
			c-4.57,4.836-9.942,9.403-16.39,11.553c-3.492,1.61-7.523-0.27-11.282-0.807c6.445-3.76,14.776-4.298,19.881-10.208
			c-4.029,1.075-6.985,4.835-11.016,5.641c-2.421,0.806-5.106,0.269-7.523-0.268c4.028-3.492,9.133-5.106,13.165-8.598
			c2.953-2.148,5.644-5.103,8.059-7.79c4.834-5.373,9.403-10.746,12.897-16.926c2.685-4.835,5.37-9.671,8.059-14.237
			C460.06,68.62,462.211,65.933,464.09,63.246z"/>
		<path fill-rule="evenodd" clip-rule="evenodd" fill="#FFFFFF" d="M558.653,118.32c-5.106-3.493-10.478-6.716-15.312-10.746
			c1.341,4.03,2.687,8.329,5.102,11.821c2.691,3.76,6.18,6.447,8.871,9.94c1.879,2.418,3.76,4.568,5.908,6.716
			c1.341,1.074,2.147,2.955,3.761,4.031c2.415,1.612,5.37,2.418,8.059,3.492c-2.689-5.643-5.109-11.283-8.869-16.118
			C564.025,124.23,561.34,121.007,558.653,118.32z"/>
		<path fill-rule="evenodd" clip-rule="evenodd" fill="#FFFFFF" d="M530.443,143.304c0-8.328,0.81-16.657-0.536-24.716
			c-1.074,6.449-1.343,12.896-1.879,19.612c-0.27,5.104,0.536,10.208,2.685,15.043c1.344,3.494,1.613,8.061,5.106,10.212
			c0.534,0.537,1.342,1.074,1.879,1.342C534.742,157.811,531.789,150.826,530.443,143.304z"/>
		<path fill-rule="evenodd" clip-rule="evenodd" fill="#FFFFFF" d="M556.234,138.2c-4.566-4.029-8.862-8.597-13.163-13.433
			c1.078,3.493,2.153,6.986,3.763,10.209c2.953,5.105,8.595,7.792,13.701,9.94c5.908,2.418,12.357,4.298,18.803,3.762
			c-5.374-2.15-11.016-3.762-16.116-6.447C561.073,140.885,558.383,139.813,556.234,138.2z"/>
		<path fill-rule="evenodd" clip-rule="evenodd" fill="#FFFFFF" d="M487.19,103.812c-2.149-0.267-4.029-1.073-5.37-2.418
			c-1.344,0.538-2.955,2.418-4.569,1.075c-1.073-1.075-1.879-2.147-2.685-3.223c-1.346,0.537-2.957,0.537-4.296-0.537
			c-1.346,2.685-2.689,5.374-4.3,8.059c-0.538,1.074-1.611,2.15-1.346,3.492c0,1.074,0.272,1.882,0.536,2.955
			c1.614-2.686,1.614-7.253,5.11-8.058c3.491,0.268,6.981,1.342,9.94,2.685c4.296,1.881,6.711,6.18,8.595,10.21
			c0.536-1.612,1.074-3.225,0.806-4.837C489.341,109.992,487.73,107.037,487.19,103.812z"/>
		<path fill-rule="evenodd" clip-rule="evenodd" fill="#FFFFFF" d="M480.21,112.141c-1.879-2.419-5.108-3.224-8.059-3.492
			c-1.08,0.268-2.149,0.805-2.691,1.88c-1.069,1.881-0.268,3.76,0,5.643c0.27-1.345,0.27-3.225,1.611-4.031
			c2.421-1.075,4.839-0.537,6.99,0.536c2.685,1.345,4.029,4.03,5.37,6.18c0.538,0.806,1.611,0.538,2.421,0.806
			C483.969,117.245,482.357,114.56,480.21,112.141z"/>
		<path fill-rule="evenodd" clip-rule="evenodd" fill="#FFFFFF" d="M577.46,152.437c-2.149,0-4.031,0-5.91,0
			c2.415,2.419,4.836,4.837,7.253,6.716C578.534,157.006,577.996,154.588,577.46,152.437z"/>
		<path fill-rule="evenodd" clip-rule="evenodd" fill="#FFFFFF" d="M541.997,143.841c-0.804-2.148-1.074-4.566-2.953-6.448
			c0,3.492,0.268,6.985,0.538,10.478c0.536,6.18,3.76,11.552,7.521,16.121c4.566,6.178,11.822,9.67,18.535,12.625
			c-0.536-1.342-1.343-3.223,0.266-4.029c1.884-0.537,3.765,0.269,5.912,0.269c-4.296-2.15-9.132-3.761-13.163-6.717
			C551.134,160.767,544.682,152.977,541.997,143.841z"/>
		<path fill-rule="evenodd" clip-rule="evenodd" fill="#FFFFFF" d="M547.909,146.528c-1.074-1.88-2.685-3.492-4.568-4.835
			c1.341,5.103,4.568,9.403,7.793,13.7c0.803,1.075,1.879,1.881,3.221,2.955C552.472,154.319,550.324,150.289,547.909,146.528z"/>
		<path fill-rule="evenodd" clip-rule="evenodd" fill="#FFFFFF" d="M521.583,150.02c-1.616-5.105-2.151-10.745-1.882-16.388
			c-0.808,1.881-1.613,4.029-1.613,6.18c-0.266,4.029,1.344,7.79,2.415,11.55c0.538,1.613,0.538,3.493,0.808,5.106
			c1.074,0.537,2.687,1.074,3.761,0.268C523.732,154.588,522.652,152.437,521.583,150.02z"/>
		<path fill-rule="evenodd" clip-rule="evenodd" fill="#FFFFFF" d="M559.727,151.096c-2.149-1.075-4.564-1.882-6.715-2.956
			c2.955,5.103,4.836,11.014,9.402,14.776C561.61,158.886,560.535,154.856,559.727,151.096z"/>
		<path fill-rule="evenodd" clip-rule="evenodd" fill="#FFFFFF" d="M483.161,130.41c-2.151-1.075-4.296-2.15-6.447-2.15
			c-1.879,0.267-2.953-1.076-4.296-1.88c-1.348-0.539-2.417,0.266-3.495,0.804c3.763,1.881,7.523,4.031,11.552,4.031
			C481.55,131.216,482.357,130.678,483.161,130.41z"/>
		<path fill-rule="evenodd" clip-rule="evenodd" fill="#FFFFFF" d="M515.671,151.634c-0.808-0.271-1.614-0.538-2.419-0.808
			c0,0.537,0,1.342,0,2.151c0.805,0,1.341-0.268,1.879-0.268C515.131,152.437,515.402,151.9,515.671,151.634z"/>
		<path fill-rule="evenodd" clip-rule="evenodd" fill="#FFFFFF" d="M442.866,123.962c-3.225,3.222-5.91,6.716-9.942,8.596
			c-1.881,1.074-4.026,1.074-5.908,1.613c-2.687,1.88-4.568,4.835-7.525,5.91c-4.834,1.342-9.938,1.881-14.773,1.075
			c2.955,2.685,6.18,5.64,10.476,6.178c1.884,1.074,3.765-0.268,5.644-0.805c2.685-0.805,5.102-0.805,7.791-1.074
			c1.341,0,2.415-1.343,3.221-1.881c-2.685-0.269-5.37,0.537-8.061,0.268c-3.22-0.268-6.979,0-10.206-1.073
			c3.227-1.074,6.716-1.345,9.94-2.42c3.225-1.342,6.716-1.88,9.942-3.76C438.298,134.171,440.983,129.065,442.866,123.962z"/>
		<path fill-rule="evenodd" clip-rule="evenodd" fill="#FFFFFF" d="M512.982,155.124c-0.805-0.535-2.149-2.147-3.221-1.073
			c-0.268,0.805-0.268,1.612-0.268,2.148C510.833,156.199,511.909,155.932,512.982,155.124z"/>
		<path fill-rule="evenodd" clip-rule="evenodd" fill="#FFFFFF" d="M530.981,165.871c-4.028-2.688-8.329-5.105-12.893-6.448
			c0,2.955,0.805,6.178,0.268,9.134c-0.535,1.343-1.074,2.955-2.151,4.298c-0.803-4.838-0.803-9.672-1.343-14.507
			c-2.953,1.613-4.029,4.567-5.64,7.253c-1.076,2.417-2.421,5.105-2.957,8.06c-0.805,5.643-4.564,10.209-8.595,14.238
			c-1.611,1.88-4.299,2.151-6.18,3.762c-1.074,1.611-1.341,3.492-1.611,5.103c2.953-2.954,7.253-3.492,11.012-5.372
			c2.151-1.343,4.841-1.076,6.99-1.076c2.951-0.537,5.638-1.072,8.595-1.343c2.147,0,4.296,1.076,6.175,1.613
			c-0.266,0.537-0.266,1.074-0.533,1.343c-1.883,0.269-3.763,0.537-5.642,1.075c-3.765,0.805-7.794,1.074-11.554,1.611
			c-4.568,1.611-9.132,4.029-13.701,5.64c-1.343,0-1.881-1.343-2.417-2.148c0,0.268-0.268,0.805-0.538,1.342
			c1.074,0.805,2.419,1.881,2.419,3.493c-0.27,2.686-2.955,3.76-5.106,4.03c-2.685,0.536-5.908,1.612-8.865,0
			c-2.415-1.074-5.374-3.225-4.296-6.448c1.073-0.269,2.147-0.537,3.491-0.806c0-1.343-0.27-2.685-0.27-4.029
			c-2.421-0.805-4.834-1.343-6.716-2.956c-0.805-0.804-1.074-2.147-0.533-3.223c0.801-1.611,2.143-3.222,3.218-4.835
			c-1.879-0.806-4.028-0.269-5.638,0.537c1.074,6.179,2.149,12.358,4.031,18.269c1.607,4.566,1.339,9.403,1.879,14.238
			c1.339-2.151,3.491-3.762,5.64-5.105c1.611-0.806,3.49,1.074,2.955,2.688c-1.076,2.954-3.225,5.64-3.49,9.132
			c-0.272,2.954-1.076,6.18-0.272,9.134c0.806,3.223,1.074,6.716,1.616,9.941c0,2.149,0.801,4.298,1.069,6.716
			c0.54,2.151,0.272,4.298,1.076,6.448c1.074,1.88,2.149,3.76,3.765,5.372c0.536,0.537,1.339,0.537,2.147,0.269
			c3.761-1.074,7.251-2.149,11.014-3.224c1.879-0.268,4.299,0.269,6.178,1.075c1.881,1.074,3.221,3.222,4.031,5.372
			c1.881-3.492,2.955-7.522,4.834-11.282c-2.421-0.27-4.834-0.805-6.985-2.151c2.685-1.343,5.642-2.685,8.595-3.223
			c5.106-1.343,8.595-5.372,11.016-9.671c-4.569,0.807-9.133,1.612-13.701,1.612c1.341-1.074,2.955-1.88,4.834-2.687
			c2.419-0.805,5.106-0.805,7.793-1.343c1.881-0.537,3.76-1.342,5.644-1.342c0.801,4.568-2.151,8.328-4.57,11.82
			c-1.611,1.88-3.49,3.492-5.106,5.106c-1.611,2.685-2.145,5.909-3.761,8.864c-1.879,3.493-3.76,7.254-5.908,10.746
			c-1.074,1.343-0.272,2.954-0.804,4.567c-2.957,2.419-6.45,4.298-10.211,5.104c-4.298,1.613-8.865,0.269-12.893-1.343
			c-0.268,6.447,1.879,12.628,3.761,18.808c1.073,3.22,3.489,5.91,6.176,7.521c1.881,1.611,3.493,3.76,6.18,4.298
			c2.417,0.536,4.834,0,7.255,0.536c3.221,0.536,6.178,1.881,8.863,3.495c-1.073,1.611-2.953,2.145-4.832,2.145
			c-3.495-0.535-6.99-1.609-10.48-1.074c2.953,3.495,7.791,3.495,11.55,4.299c2.151,0.806,3.761-0.54,5.64-0.54
			c-1.611,3.765-5.64,5.646-9.67,5.376c0,1.074,0,2.417,0.808,3.225c1.611,1.074,2.951,2.149,4.564,2.955
			c2.419,1.611,5.106,0.805,7.526,1.881c-1.884,1.614-4.3,1.879-6.45,2.685c2.955,4.3,5.912,8.864,9.131,13.165
			c1.078,1.879,3.229,2.415,4.568,4.029c0.808,1.076,0.272,3.491,2.421,3.491c2.149,0,4.296-1.881,5.104-3.761
			c1.879-4.296,3.76-8.595,3.76-13.165c1.076-4.296-0.803-8.862,1.076-12.891c1.613-5.644,4.568-11.02,5.102-17.196
			c-0.534-4.834-3.49-9.133-5.91-13.431c-2.415-3.761-4.028-8.061-6.18-11.821c-1.879-3.762-4.564-6.717-6.446-10.478
			c-0.805-2.15-3.223-3.223-5.374-2.685c-1.339,0.805-2.147,2.148-3.221,3.222c-1.344,1.342-3.223,2.418-5.106,2.955
			c-1.613,0.268-2.953-0.805-4.028-1.613c2.149-2.954,5.374-4.835,7.523-7.789c2.419-2.686,2.951-6.448,4.298-9.941
			c2.415-4.03,5.908-7.254,8.059-11.283c1.345-2.15,3.225-4.569,2.955-7.523c-0.27-3.76,0-7.79,0.806-11.55c0.268,0,0.805,0,1.074,0
			c1.341,5.372,2.151,11.012,5.104,15.581c1.611,3.492,5.642,5.104,7.523,8.596c1.614,2.419,2.149,5.374,3.493,8.329
			c2.685,5.64,4.566,11.82,6.715,17.73c1.882,4.837,2.957,10.209,5.642,14.776c0.805,1.342,1.879,2.417,1.879,4.029
			c0,2.421-2.415,4.299-2.147,6.986c0.536,2.415,1.342,4.834,1.883,7.253c2.685,9.672,3.489,19.881,4.296,30.087
			c0,6.986,0.536,14.237-0.536,21.225c-0.81,4.296,0,8.327-0.81,12.357c-0.264,1.879-0.535,3.76-0.801,5.374
			c1.073-0.54,2.683-0.54,3.491-1.344c1.076-4.029,0.54-8.059,1.341-11.82c0.538-2.685,1.346-5.106,1.346-7.525
			c0.533-10.476-2.147-20.952-1.883-31.432c-0.536-9.94-0.264-19.881,1.614-29.551c-2.419-2.685-5.644-5.102-7.255-8.596
			c-1.076-2.954-2.687-5.64-4.029-8.327c-1.881-4.568-3.495-9.134-5.376-13.432c-1.611-4.031-1.611-8.597-3.49-12.627
			c-1.346-3.762-3.493-7.255-5.642-10.478c-1.342-1.88-3.76-2.954-4.298-5.373c-1.346-4.029-1.883-8.059-2.421-12.09
			c-0.536-3.76-0.804-7.789,0.27-11.549c0.268-1.074,0.538-1.883,0.538-2.688c-0.538-2.687-1.612-5.105-3.223-7.522
			c0.266,0,0.536-0.539,0.536-0.539c1.879,0.539,3.76,1.076,5.102,2.688c3.227,3.76,5.912,8.327,7.256,13.433
			c0.534,3.223,2.955,5.64,5.102,8.058c2.689,2.956,4.838,6.717,7.523,9.941c3.761,4.03,8.597,7.523,11.286,12.358
			c0.804,1.342,0.536,2.955,0.536,4.569c-1.346,0-2.417,0-3.495-0.806c-2.685-1.88-5.642-3.225-8.327-4.568
			c-0.804,0.805-2.149,1.613-2.415,2.956c-0.538,2.955,1.073,6.177,1.879,9.132c1.611,4.301,5.104,7.523,7.253,11.284
			c2.421,4.029,4.836,7.791,8.329,10.746c3.49,3.223,5.102,8.061,7.521,12.09c2.691,4.566,2.957,10.476,0.806,15.042
			c-0.268,0-0.806-0.27-1.076-0.27c-0.268-2.415,0.27-4.832-0.268-6.981c-0.803-2.151-2.147-4.031-3.493-6.18
			c-1.607,0.805-4.298,1.341-4.564,3.76c-1.345,4.031-1.345,8.599-1.613,12.63c-0.536,4.566,0.268,9.132,0.268,13.701
			c0,5.64,0.538,11.281,2.419,16.651c1.073,1.614,2.957,2.959,3.223,5.109c1.345,6.715,4.568,13.971,1.345,20.416
			c-0.268,0-0.806-0.268-1.078-0.268c0-4.031,0-7.791-0.803-11.552c-1.882,5.376-1.882,11.552-3.495,17.196
			c-0.536,3.22,0.808,6.711-0.536,9.67c-2.953-0.538-5.638-2.959-8.865-1.881c-1.879,0.536-1.879,2.953-2.685,4.566
			c-0.804,2.955-2.687,6.176-5.646,7.525c-3.49,1.611-5.638,5.102-9.13,6.713c-1.879,0.808-3.493-0.536-5.104-0.536
			c-1.074,0-2.153,0.536-2.955,1.344c1.611,1.881,3.76,3.491,5.908,4.836c2.421,0.536,5.106,1.074,7.791,1.611
			c1.341-1.346,3.225-2.417,5.106-3.495c1.879-1.341,2.145-3.76,3.761-5.37c1.879-1.341,5.104-2.955,7.255-0.806
			c-1.074,1.346-2.421,2.151-3.495,3.495c-0.266,1.071-0.266,2.145-0.536,3.221c2.149,0,4.031,0.27,5.642,0.808
			c1.342,0.536,1.879,2.147,1.342,3.491c-1.074-0.27-2.417-1.076-3.493-1.345c-1.071,0.268-1.611,1.614-2.419,2.415
			c1.348,0.54,3.227,0.808,3.495,2.421c0.268,1.343-0.808,2.417-1.883,2.689c-2.149,0.801-4.564,1.339-6.985,0.536
			c-5.37-1.616-10.21-5.912-16.12-6.18c0,1.614-1.073,3.493,0.27,4.298c5.374,1.882,9.941,5.106,14.239,8.595
			c0.536,0.542,1.071,1.078,1.879,1.346c2.687,0,5.642-0.536,8.331-0.804c3.76,0.268,7.791,0.804,11.82,0
			c0.536-3.227,1.071-6.452,0.536-9.673c-0.806-4.568-1.345-9.137-1.881-13.699c-0.536-2.689,0.536-5.644,0.806-8.329
			c1.341-7.791,1.341-15.582,4.028-23.105c3.223-8.057,6.18-16.658,9.403-24.717c2.687-8.329,3.493-17.191,3.223-25.791
			c-0.266-8.595-1.345-17.46-4.028-25.788c-0.268-1.074-0.536-2.418,0-3.763c1.074,1.075,2.149,2.151,2.953,3.225
			c0.808-3.493-0.27-6.985-0.805-10.477c-1.074-5.643-2.955-11.283-3.495-17.193c-1.073-10.211-0.264-20.956-4.832-30.626
			c-0.538,1.88-0.808,3.76-1.08,5.64c-0.533-0.268-1.069-0.268-1.341-0.534c-0.266-2.151,0-4.569,0.272-6.718
			c0.27-2.417-0.272-4.835-0.538-6.985c-1.344-11.549-6.988-22.298-14.243-31.163c-1.609-1.88-3.76-2.685-5.91-4.029
			c-3.49-1.882-5.638-5.373-9.13-6.985c-3.225-1.612-6.985-2.417-9.67-5.104c1.069-0.268,2.413-0.268,3.49-0.268
			c-2.687-1.882-5.64-3.762-8.595-4.569C540.384,172.856,535.55,169.632,530.981,165.871L530.981,165.871z M544.953,182.527
			c0,0.267-0.272,0.806-0.272,1.074c-2.685,0.537-5.37,0.805-7.789,1.88c-1.611,0.537-1.881,2.418-2.955,3.492
			c-1.345,1.343-2.685,2.151-4.296,3.225c-0.81-0.806-2.151-2.149-1.614-3.494c1.342-2.686,3.761-4.566,6.18-6.177
			C537.433,180.915,541.462,181.452,544.953,182.527L544.953,182.527z M544.414,198.914c5.644,5.106,8.869,12.626,9.941,19.881
			c-1.883-2.689-3.221-5.643-4.568-8.598c-1.344-3.76-3.76-7.253-6.984-9.941c-1.881-1.612-4.298-2.417-6.45-3.76
			C539.311,196.228,542.265,197.302,544.414,198.914L544.414,198.914z M592.773,269.57c0.536,2.418,2.415,4.298,3.221,6.716
			c-1.341-0.268-2.955-0.268-3.76-1.613c-2.421-3.76-2.149-8.595-1.883-13.163C592.235,263.927,591.965,266.882,592.773,269.57
			L592.773,269.57z M526.147,279.239c-0.268,4.031-4.836,5.911-8.059,7.254c-0.536,1.882-1.346,3.761-2.417,5.643
			c-2.959,4.03-8.869,6.447-13.699,4.298c2.952-1.881,6.175-3.223,9.132-5.104c2.689-1.613,2.689-4.838,4.299-7.254
			c0.803-0.806,1.879-0.538,2.685-0.806c2.685-0.537,5.106-2.418,6.985-4.298C525.342,278.973,525.878,278.973,526.147,279.239
			L526.147,279.239z M527.757,301.002c-1.344,1.611-3.49,3.222-5.372,4.296c-2.419,1.346-5.372,1.346-7.523,0
			c2.689-1.074,5.64-1.345,8.059-3.223c2.957-2.151,5.374-5.102,7.791-8.059C530.981,296.703,529.37,299.123,527.757,301.002z"/>
		<path fill-rule="evenodd" clip-rule="evenodd" fill="#FFFFFF" d="M571.816,181.989c-0.803-1.074-2.417-0.537-3.493-1.074
			c1.882,2.419,4.569,4.299,7.256,5.91C574.234,185.214,573.164,183.602,571.816,181.989z"/>
		<path fill-rule="evenodd" clip-rule="evenodd" fill="#FFFFFF" d="M507.612,158.08c-0.272-0.269-0.81-0.269-1.346-0.537
			c-0.805,0.805-1.613,1.611-2.149,2.685c0.806,0.27,1.616,0.538,2.419,0.27C507.072,159.961,507.34,158.886,507.612,158.08z"/>
		<path fill-rule="evenodd" clip-rule="evenodd" fill="#FFFFFF" d="M503.042,163.183c-1.341-0.268-2.415-0.268-3.761-0.268
			c0,1.076,0.538,2.149,1.074,3.223C501.431,165.064,502.238,164.258,503.042,163.183z"/>
		<path fill-rule="evenodd" clip-rule="evenodd" fill="#FFFFFF" d="M503.58,170.974c0.27-1.342-0.538-2.685-1.074-4.028
			c-2.955,2.417-5.374,5.103-8.331,7.52c-2.415,1.883-4.564,4.3-6.713,6.717c2.149,0.805,3.223,2.955,4.298,4.835
			c2.687-0.805,4.566-2.954,6.18-5.104C500.355,177.959,502.77,174.736,503.58,170.974z"/>
		<path fill-rule="evenodd" clip-rule="evenodd" fill="#FFFFFF" d="M454.685,151.363c-0.266-0.805-0.266-1.88-0.536-2.685
			c-2.417,1.342-4.569,2.956-6.984,4.565c0.266,0.808,0.266,1.881,0.536,2.689C449.579,153.781,451.999,152.168,454.685,151.363z"/>
		<path fill-rule="evenodd" clip-rule="evenodd" fill="#FFFFFF" d="M498.206,167.215c-0.805-0.268-2.147-0.268-2.685,0.537
			c-0.805,0.805-0.538,2.149-0.27,3.222C496.326,169.901,498.206,169.095,498.206,167.215z"/>
		<path fill-rule="evenodd" clip-rule="evenodd" fill="#FFFFFF" d="M466.775,161.035c-1.074-3.761-4.298-5.104-6.985-7.255
			c0.538,4.3,1.881,8.328,3.223,12.628c1.076,2.149,3.493,3.76,5.378,5.641C467.581,168.289,467.311,164.529,466.775,161.035z"/>
		<path fill-rule="evenodd" clip-rule="evenodd" fill="#FFFFFF" d="M443.67,152.708c-1.879-0.808-4.03-1.345-6.18-1.882
			c-0.535,0.537-1.071,1.074-1.613,1.612c0.81,1.076,1.882,2.419,2.421,3.761c0,0.807-0.268,1.612-0.538,2.419
			c-2.951-1.881-4.836-5.104-7.251-7.522c-1.881-2.151-4.84-1.342-7.255-0.807c-4.296,1.074-8.597,2.954-12.357,5.643
			c-3.225,2.149-7.256,2.686-9.941,5.372c-3.76,2.688-5.102,7.523-6.985,11.552c-1.882,4.837-4.834,9.403-4.029,14.776
			c1.344,7.254,2.147,14.776,4.566,22.029c0.81,4.298-1.341,8.328-2.419,12.358c-0.803,4.567-3.223,8.866-2.415,13.433
			c0.535,5.64,1.613,11.283,0.535,17.192c-1.343,3.223-3.221,6.18-4.566,9.403c-2.147,5.373-5.106,10.478-5.642,16.118
			c-0.804,5.912,0.536,12.089,0.268,18.27c0.538,2.149,1.342,4.03,2.417,5.908c-0.268-8.595,0.542-17.192,2.421-25.521
			c1.341-5.105,1.341-10.478,4.031-15.044c1.611-2.15,3.221-4.567,5.64-6.179c1.879-1.075,3.491,0.267,5.104,1.075
			c-0.268,0.268-0.268,0.805-0.538,1.074c-1.074,0-2.687-0.537-3.49,0.537c-1.882,2.686-4.301,5.372-4.838,8.866
			c-1.609,7.252-2.689,14.774-2.953,22.295c-0.272,3.495-1.076,6.986-0.54,10.476c0,1.614,1.074,2.689,1.614,4.3
			c2.415-1.071,4.564-2.415,6.981-2.951c4.03-0.27,7.791,1.341,11.284,2.145c0.27-8.595,7.791-14.505,9.94-22.297
			c1.074-3.76-0.804-7.521-0.265-11.282c2.145,3.761,3.491,8.059,2.95,12.358c-0.268,4.837-2.95,8.865-5.37,12.895
			c-1.879,2.953-3.489,6.182-2.417,9.673c5.638-6.45,9.938-14.241,11.549-22.568c0.54-4.03-0.266-7.791-1.611-11.551
			c-0.805-2.954-2.419-6.18-0.805-9.402c1.074-2.687,2.685-5.375,2.415-8.598c-2.145,4.299-4.029,8.598-6.711,12.358
			c-1.884-1.075-4.029-3.492-2.421-5.91c2.685-4.568,4.834-9.134,6.18-14.238c1.073-3.762,2.685-7.523,2.149-11.552
			c-1.076-6.177-2.417-12.626-5.908-17.732c-3.231-3.76-6.72-7.522-9.675-11.281c3.227,1.074,5.376,4.029,8.061,6.447
			c4.028,3.76,6.18,8.866,8.059,14.238c0.536-2.955,0-5.642-0.804-8.327c-1.074-3.225-0.27-6.716-0.808-10.209
			c-0.808-3.492-3.222-6.18-4.832-9.403c-0.268-1.613-0.268-3.224,0-5.105c2.413,1.613,2.95,4.567,4.566,6.716
			c3.225,4.029,6.446,8.06,9.4,12.627c0.806,1.344,2.421,2.955,1.881,4.569c-1.074,0.266-1.881-0.271-2.415-1.074
			c-1.076-1.345-2.151-2.957-3.761-4.031c1.881,5.64,2.953,11.551,4.832,17.193c2.149,8.865,5.644,17.463,11.824,23.91
			c1.611,1.073,3.49,1.614,5.37,2.419c0.805-4.031,1.076-8.06,1.884-11.821c0-3.493-1.08-6.717-1.613-9.94
			c-1.074-5.372-2.957-10.746-3.495-16.389c-0.536-4.835-1.342-9.67-1.881-14.507c-0.266-5.64-1.071-11.283-1.341-17.192
			c-0.272-4.298,0.27-8.595,0.536-13.163C443.134,165.064,444.478,158.886,443.67,152.708L443.67,152.708z M433.999,165.871
			c2.421,2.955,4.841,5.91,6.448,9.132c0.536,1.881,0.536,4.031,0.272,5.911c-0.81-0.268-1.614-0.268-2.151-0.538
			c-1.078-1.342-1.344-2.955-2.149-4.298c-3.227,4.03-6.18,8.597-11.286,10.478c-2.147,0.537-4.564,1.343-6.984,1.074
			c1.879-1.882,4.029-3.761,5.91-5.642c2.689-2.685,5.642-5.64,6.718-9.403c0.803-3.492-0.808-6.716-0.268-9.941
			C431.85,163.454,433.193,164.529,433.999,165.871L433.999,165.871z M416,157.811c-2.417,1.074-5.102,1.612-7.253,3.224
			c-4.838,3.222-6.985,8.865-8.865,13.968c-1.074,3.492-1.613,7.256-1.884,11.015c-0.264,5.374,1.884,9.941,2.691,15.046
			c0.538,2.684,2.149,5.64,1.074,8.595c-1.881,6.18-3.223,12.358-4.029,18.538c-0.805,3.76,0,7.253,0.264,10.745
			c0.542,2.419,1.616,4.836,0.81,7.254c-1.074-0.268-2.421-0.805-2.953-1.881c-1.076-2.417-1.346-4.836-1.616-7.254
			c-0.536-2.954-0.805-5.909-0.266-8.864c0.806-5.912,1.882-11.823,3.49-17.732c0.536-1.342,1.078-2.955,0.808-4.566
			c-0.536-2.688-1.073-5.643-2.415-8.328c-2.687-5.91-1.346-12.358-0.272-18.268c0.536-3.492,2.415-6.448,3.761-9.403
			c1.613-3.224,2.955-6.717,5.914-9.134C408.209,158.348,412.241,156.737,416,157.811L416,157.811z M406.06,254.794
			c1.613,1.612,3.493,3.223,3.223,5.64c0,1.344-0.536,3.492-2.147,3.224c-1.613-1.074-1.076-3.492-1.879-4.835
			c-1.884-3.492-5.376-5.104-8.601-6.986c0.805-0.806,1.341-1.881,2.421-1.612C402.029,250.764,404.178,252.643,406.06,254.794z"/>
		<path fill-rule="evenodd" clip-rule="evenodd" fill="#FFFFFF" d="M493.101,173.124c-0.268-0.805-1.069-1.612-1.611-1.88
			c-0.805,0.805-1.611,1.88-2.417,2.954c0.268,0.268,0.538,0.805,0.806,1.075C490.952,174.736,492.032,174.198,493.101,173.124z"/>
		<path fill-rule="evenodd" clip-rule="evenodd" fill="#FFFFFF" d="M457.641,174.467c-0.808-5.103-0.808-10.209-2.151-15.044
			c-1.073,2.686-0.536,5.641-0.536,8.329c0.272,5.909,1.346,11.552,1.614,17.192c0.536,5.372,1.611,10.746,2.417,16.121
			c0.804,0,1.342,0,2.149,0c-0.54-5.106-1.614-9.672-2.419-14.508C457.909,182.527,458.179,178.496,457.641,174.467z"/>
		<path fill-rule="evenodd" clip-rule="evenodd" fill="#FFFFFF" d="M451.195,160.228c-1.074,0.27-2.149,0.538-3.223,0.807
			c0.266,9.402,2.149,18.803,2.953,28.209c0.536,4.298,1.344,8.595,2.149,13.163c0.806-0.27,1.611-0.27,2.417-0.538
			c-1.073-7.522-2.417-14.776-3.221-22.565C451.461,173.124,451.195,166.677,451.195,160.228z"/>
		<path fill-rule="evenodd" clip-rule="evenodd" fill="#FFFFFF" d="M488,177.154c-1.881-1.612-2.691,0.805-3.76,1.882
			c0.264,0.537,0.536,1.074,0.801,1.612C486.12,179.304,487.19,178.23,488,177.154z"/>
		<path fill-rule="evenodd" clip-rule="evenodd" fill="#FFFFFF" d="M467.311,174.736c-0.804-0.537-1.879-1.074-2.687-1.343
			c0.272,0.805-0.264,2.149,0.808,2.419C466.24,176.349,466.775,175.004,467.311,174.736z"/>
		<path fill-rule="evenodd" clip-rule="evenodd" fill="#FFFFFF" d="M482.09,183.065c-0.27-0.805-0.54-1.881-0.808-2.955
			c-1.342,0.537-3.493,1.343-2.685,3.224C479.671,184.676,481.01,183.602,482.09,183.065z"/>
		<path fill-rule="evenodd" clip-rule="evenodd" fill="#FFFFFF" d="M470.27,176.885c-1.346,0-2.421,0.537-2.959,1.345
			c0.808,0.805,1.613,1.342,2.419,1.88C470.002,179.035,470.002,177.959,470.27,176.885z"/>
		<path fill-rule="evenodd" clip-rule="evenodd" fill="#FFFFFF" d="M474.566,181.989c0.806-0.805,0-2.685-1.346-2.417
			c-1.339,0.266-1.069,1.88-1.339,2.955C472.687,182.527,473.761,182.527,474.566,181.989z"/>
		<path fill-rule="evenodd" clip-rule="evenodd" fill="#FFFFFF" d="M476.986,192.467c1.074-2.688-0.272-5.642-1.884-8.06
			c-1.611,1.882-3.221,4.03-4.031,6.447C472.687,191.93,474.836,192.734,476.986,192.467z"/>
		<path fill-rule="evenodd" clip-rule="evenodd" fill="#FFFFFF" d="M448.774,192.734c-0.536-5.103-0.264-10.475-1.611-15.313
			c-0.27,4.568,0.266,9.403,0.266,14.24c0.542,4.566,0.542,9.133,1.616,13.701c0.533-0.808,1.342-1.343,1.342-2.418
			C450.388,199.452,449.314,196.228,448.774,192.734z"/>
		<path fill-rule="evenodd" clip-rule="evenodd" fill="#FFFFFF" d="M461.401,203.212c-2.952,0.808-6.447,1.343-9.132,3.493
			c-1.074,0.805-2.955,1.881-2.691,3.76c0.542,8.33,3.227,16.387,4.569,24.716c3.761-0.268,7.253-2.149,11.284-2.686
			c-0.536-4.568-1.611-9.135-2.153-13.7C462.745,213.421,462.477,208.318,461.401,203.212z"/>
		<path fill-rule="evenodd" clip-rule="evenodd" fill="#FFFFFF" d="M465.7,235.451c-0.54,0-1.076,0-1.611,0.268
			c0,2.954,1.071,5.643,1.343,8.597c0.538,6.18,2.687,11.821,2.959,18c0.533,6.179,1.339,12.357,1.611,18.537
			c0.268,4.298,0.805,8.595,0.805,13.163c0,5.108,0.264,10.478,0.534,15.582c0.268,2.417,0.268,5.106,0.81,7.521
			c0.805,2.955,3.76,4.566,4.296,7.525c0.805,2.953,0,6.18-1.074,8.862c2.149-1.071,3.225-3.491,2.959-5.908
			c-2.152-7.253-2.691-14.772-3.765-22.028c-1.074-6.445-1.346-12.895-2.147-19.343c-0.538-3.76-1.348-7.523-1.613-11.552
			c-0.805-6.715-2.151-13.163-2.415-19.61C467.849,248.346,466.507,241.899,465.7,235.451z"/>
		<path fill-rule="evenodd" clip-rule="evenodd" fill="#FFFFFF" d="M463.013,245.122c0-2.956-0.268-5.91-1.074-8.865
			c-0.538,0.269-1.611,0.806-2.149,1.074c1.074,7.523,2.421,15.313,2.955,23.104c0.268,4.3,1.076,8.598,0.534,12.896
			c0,6.448,1.616,12.627,3.495,18.538c0.27-3.762-0.805-7.523-0.805-11.552c0-6.985-1.074-14.238-1.611-21.492
			C464.09,254.257,463.013,249.689,463.013,245.122z"/>
		<path fill-rule="evenodd" clip-rule="evenodd" fill="#FFFFFF" d="M457.641,238.406c-1.073,0-1.883,0-2.957,0
			c1.074,5.373,2.149,10.477,3.765,15.581C458.716,248.614,457.909,243.511,457.641,238.406z"/>
		<path fill-rule="evenodd" clip-rule="evenodd" fill="#FFFFFF" d="M500.087,265.807c-2.685-0.536-6.716-0.536-8.055,2.42
			c2.415,0.805,5.1,0.805,7.787,0.534C500.087,267.69,500.087,266.615,500.087,265.807z"/>
		<path fill-rule="evenodd" clip-rule="evenodd" fill="#FFFFFF" d="M445.285,260.704c-2.685-1.343-4.301-4.838-7.794-4.838
			c1.078,3.494,2.689,6.985,4.029,10.478c1.08,4.031,4.569,7.255,7.255,10.21c1.614,1.611,4.299,2.148,5.106,4.298
			c0,1.074-1.341,1.881-2.419,1.343c-1.882-0.268-3.49-1.343-4.834-2.417c0.536,6.179,1.882,12.358,3.223,18.265
			c0,2.151,2.149,2.959,3.223,4.031c3.227,2.149,6.178,4.029,9.403,5.644c-0.538-2.955-2.687-6.18-0.806-8.865
			c0.268-1.345,1.342-2.687,0.806-4.031c-0.806-4.568-1.883-9.402-4.028-13.432c-0.54-1.342-1.08-2.417-1.08-3.762
			c0-3.492,0-7.253-1.069-10.746c-0.27-1.074-1.074-1.61-1.882-2.147C451.731,262.584,448.238,262.047,445.285,260.704z"/>
		<path fill-rule="evenodd" clip-rule="evenodd" fill="#FFFFFF" d="M562.952,324.373c0.806-2.149-0.268-4.3-1.613-5.908
			c-1.882,5.104-5.642,9.132-6.716,14.505c-1.611,6.178-2.151,13.165-6.18,18.265c1.614-0.266,3.493-0.534,5.104-0.534
			c1.616-4.566,1.076-9.672,3.767-13.701C559.993,333.24,561.61,328.674,562.952,324.373z"/>
		<path fill-rule="evenodd" clip-rule="evenodd" fill="#FFFFFF" d="M497.402,319.539c-4.031-2.685-9.135-3.225-13.701-1.881
			c-1.076,4.026-0.27,8.595,1.076,12.355c0.803,2.151,3.223,2.691,4.834,4.031c4.836,2.955,7.791,8.061,9.67,13.165
			c3.489,6.715,1.611,15.315-3.49,20.686c2.149,0.806,4.028,1.881,6.18,2.955c0.534-2.415,0.534-4.834,1.879-6.985
			c1.073-1.611,3.221-0.54,4.296,0.54c2.151,2.95,4.3,5.908,6.985,8.325c-1.074-4.029-2.149-8.061-2.953-12.09
			c-1.074-5.374-2.417-10.746-3.227-16.116c-0.268-4.03-2.415-8.061-1.879-12.36c0.54,0,1.074,0,1.611,0
			c1.614,5.106,2.959,10.48,3.763,15.852c1.881,7.789,3.225,16.12,5.642,23.641c0.268,1.341,0.536,2.689,0.805,4.03
			c2.419,1.611,5.106,3.221,8.061,2.685c-1.881-8.057-3.76-16.386-5.106-24.715c-0.265-1.881-0.265-4.029-1.074-5.91
			c-1.881-3.221-4.296-6.18-6.18-9.132c-2.415-3.495-4.026-7.255-6.711-10.48C504.923,324.373,501.163,321.954,497.402,319.539z"/>
		<path fill-rule="evenodd" clip-rule="evenodd" fill="#FFFFFF" d="M464.896,309.329c-0.536-0.266-1.074-0.536-1.616-0.806
			c-0.534,0.806-0.803,2.151-1.879,2.151c-3.222-0.27-6.175-1.881-9.402-2.419c1.074,2.687,3.491,4.029,5.642,5.64
			c2.687,2.149,5.908,3.763,8.865,5.374C465.97,316.044,465.432,312.824,464.896,309.329z"/>
		<path fill-rule="evenodd" clip-rule="evenodd" fill="#FFFFFF" d="M353.407,268.762c-0.538-0.534-1.346-0.804-2.421-0.804
			c-2.415,0.269-4.834,0.269-7.521,0.269c-4.298,0.268-8.599,1.342-12.36,3.223c-6.445,3.76-11.009,9.94-16.654,14.775
			c-3.76,4.298-8.865,7.253-12.087,11.819c1.611-0.801,3.491-1.609,5.1-2.683c0.272,1.613,1.346,3.493,0.272,5.104
			c-2.151,2.149-4.569,3.489-7.251,5.104c-3.765,2.415-7.525,4.566-11.822,5.91c-3.229,0.806-6.448,0-9.403,1.074
			c-4.836,1.611-9.675,2.687-13.971,5.64c-4.298,2.691-9.135,4.838-13.701,7.523c-2.685,1.344-5.644,1.881-8.595,2.959
			c-1.074,2.685-1.879,5.64-2.689,8.595c1.345-0.536,2.689-1.076,3.225-2.151c0.805-1.614,2.415-3.76,4.564-2.955
			c2.691,0.806,4.569,3.225,6.18,5.91c2.421,3.761,4.301,7.791,4.836,12.09c0,1.341-0.266,2.955-1.609,3.76
			c-1.074,0.806-2.957-0.268-3.227-1.609c-1.074-3.761-2.953-7.526-5.91-10.21c-0.803-0.54-2.149-1.342-3.221-1.076
			c-2.417,0.806-4.838,1.076-7.255,1.881c1.074,3.765,2.147,7.255,3.227,11.014c1.069,4.838,2.685,9.671,3.22,14.511
			c0.27,1.611,0.27,3.49-0.535,5.1c-1.074,0.81-2.955,0.54-3.495-1.074c-2.149-5.374-3.76-10.746-4.834-16.656
			c-0.268-4.029-1.346-8.059-2.957-11.818c-0.804-2.151-2.419-4.031-4.566-5.372c2.147,7.791,4.838,15.042,6.176,22.833
			c1.614,6.448,2.689,12.898,4.838,19.345c1.611,6.715,4.301,13.163,5.104,20.146c-0.266,5.91,3.223,11.55,2.687,17.732
			c3.493-5.912,4.836-12.629,5.104-19.343c-0.536-8.329-1.611-16.39,0-24.447c0.538-4.029,1.076-8.059,2.959-11.554
			c0.533-1.071,2.415-1.341,3.218-0.535c0.81,0.805,0.542,1.614,0.542,2.415c-1.344,6.18-2.691,12.358-3.227,18.539
			c0.536,3.761,1.346,7.521,1.882,11.012c3.223-8.057,7.255-15.85,10.21-24.175c1.074-3.495,3.761-6.446,5.64-9.671
			c1.613-3.225,3.223-6.715,5.376-9.942c3.49-4.294,5.638-9.94,9.132-14.235c1.343-1.078,1.879-3.229,3.76-3.229
			c1.343,0,1.884,1.35,2.689,2.151c-1.074,2.959-3.49,5.108-4.836,8.059c0.536,1.611,1.611,2.96,2.415,4.301
			c0.81,1.879,3.495,2.685,4.839,1.074c2.415-2.151,5.372-4.029,7.521-6.447c3.489-3.495,4.031-8.599,5.106-13.165
			c0.266-1.614,1.074-3.225,2.685-3.495c2.953-0.805,6.18-1.341,9.133-1.611c4.298-0.538,8.057,1.342,12.089,2.687
			c1.613-5.106,4.298-9.941,7.255-14.507c-4.031,1.343-8.595,2.151-11.822,5.106c-2.415-1.344-4.834-2.685-6.175-5.374
			c-2.959-5.372-2.691-12.09,0-17.462c0.801-1.879,2.415-3.491,1.879-5.374c-0.538-1.342-1.879-2.148-2.417-3.76
			c0.268-2.149,2.685-2.954,4.298-3.222c2.151-0.27,4.296,0.537,5.642,2.148c1.609-1.074,3.49-2.418,5.368-1.342
			c0.81,0.268,1.08,0.806,1.08,1.612c-0.538,1.881-1.884,3.492-2.689,5.372c1.879,0.268,4.029,0.268,5.91,0.268
			c0.27-0.534,0.27-1.074,0.27-1.611c-1.076-0.806-1.881-1.612-2.691-2.687c0.54-1.074,1.614-2.686,3.225-2.417
			c4.301,0.269,8.595,0.537,12.897,1.074c1.879,0,2.953,1.075,4.569,1.611c2.415,0,4.564-0.536,6.713,0
			c0.268,0.807,0.536,1.613,0.808,2.419c-1.346,1.076-2.151,2.686-2.957,4.031c2.685,0.805,5.376,1.342,8.327,1.879
			c-0.803-2.149-0.803-4.029-1.073-6.179c-0.808-2.955-2.959-5.104-4.569-7.523c-1.341-2.147-3.22-4.028-4.834-5.91
			C359.587,272.525,355.825,271.45,353.407,268.762z"/>
		<path fill-rule="evenodd" clip-rule="evenodd" fill="#FFFFFF" d="M474.299,324.913c-0.538-1.344-1.613-2.689-2.959-2.419
			c-1.881,0.268-2.685,2.685-2.685,4.3c0,2.149,1.879,3.76,3.225,5.1c0.27-0.268,0.806-0.534,1.074-0.534
			C473.491,329.209,475.102,327.06,474.299,324.913L474.299,324.913z M472.955,325.449c0.264,1.345-0.805,2.415-1.884,3.225
			c-0.264-1.346-1.069-2.691,0.27-3.761C471.609,323.835,472.419,324.913,472.955,325.449z"/>
		<path fill-rule="evenodd" clip-rule="evenodd" fill="#FFFFFF" d="M432.118,323.835c-4.564-6.981-9.67-13.971-12.895-21.76
			c-2.145,2.959-4.566,5.908-5.908,9.135c1.342,2.953,3.763,5.104,4.834,8.059c0.54,1.614,0,2.955-0.27,4.3
			c1.881,1.074,4.031,2.147,6.18,3.225c-1.881-3.495-2.685-7.525-4.299-11.284c-0.801-2.417-2.147-4.836-2.682-7.526
			c0.535,0.272,1.071,0.54,1.611,1.08c4.03,5.1,5.908,11.55,9.94,16.386c0.804,1.345,0,2.415-0.81,3.493
			c2.691,1.611,5.374,3.221,8.059,4.832c5.642,4.031,11.552,7.255,17.732,10.211c-3.76-6.716-7.251-13.433-9.67-20.688
			c-1.341-3.76-2.149-7.525-3.493-11.284c-1.343-1.341-2.957-1.611-4.569-2.417c0.542,5.106,3.227,9.405,4.841,14.237
			c1.073,2.689,2.685,5.374,3.76,8.059c0.27,1.076,0.27,2.689-0.808,2.961c-1.071,0.534-1.879-0.272-2.687-0.81
			C437.49,331.089,434.809,327.596,432.118,323.835z"/>
		<path fill-rule="evenodd" clip-rule="evenodd" fill="#FFFFFF" d="M559.457,357.955c-1.343-2.151-3.76-2.689-5.91-2.955
			c1.882,12.355,4.301,24.985,6.988,37.34c1.879-3.223,1.343-6.983,1.074-10.474c-1.074-4.84-0.536-9.672-1.074-14.779
			C560.263,364.135,560.263,360.91,559.457,357.955z"/>
		<path fill-rule="evenodd" clip-rule="evenodd" fill="#FFFFFF" d="M552.744,368.435c-0.808-4.569-0.808-9.405-2.687-13.705
			c-1.614,0.27-3.223,0.805-4.834,1.344c-2.959,1.074-4.84,4.836-8.331,4.566c-4.3-0.805-8.597-2.955-11.55-6.445
			c1.611,7.789,4.836,15.31,5.638,23.369c1.344-0.268,2.957-0.538,3.761-1.879c1.611-1.611,2.955-3.225,4.57-4.836
			c3.76,1.074,6.18,4.298,8.597,7.255c2.685,3.221,5.104,6.713,7.789,9.67C554.623,381.326,554.083,374.879,552.744,368.435z"/>
		<path fill-rule="evenodd" clip-rule="evenodd" fill="#FFFFFF" d="M480.746,332.164c-1.074,2.151-2.685,3.491-4.568,5.106
			c1.342,2.147,3.493,4.029,5.372,5.91c3.491,4.03,6.45,9.405,5.37,15.045c2.691,1.341,5.376,2.95,7.526,5.1
			c1.074-1.879,2.149-3.76,2.415-5.91c0.27-3.76-1.071-7.251-2.951-10.206c-2.151-1.074-4.569,0-6.72-0.535
			c-1.071,0-1.881-1.08-1.881-2.151c0-1.881,1.881-2.419,3.227-3.495C485.852,338.074,483.161,335.389,480.746,332.164z"/>
		<path fill-rule="evenodd" clip-rule="evenodd" fill="#FFFFFF" d="M415.732,317.658c-1.884-4.031-5.102-7.525-8.329-10.476
			c-2.685-0.808-5.64-1.614-8.325-2.419c-2.691-0.81-5.106,0.805-7.255,1.881c0.805,0.268,1.879,0.268,2.685,0.268
			c1.879,0.27,2.953,1.881,4.836,1.881c1.344,0.27,3.223,0,4.029,1.341c1.345,2.151,1.884,4.839,3.763,6.45
			c1.611-0.54,3.221-1.344,4.568-2.151c0.536,0.54,1.074,0.806,1.611,1.076c-1.611,1.881-3.761,3.493-3.761,6.175
			c0.805,0.81,2.151,1.346,2.955,1.884c1.074-0.27,2.149-0.538,2.955-1.344C416.268,320.883,416.268,319.269,415.732,317.658z"/>
		<path fill-rule="evenodd" clip-rule="evenodd" fill="#FFFFFF" d="M360.928,289.717c-1.076-0.537-2.151-0.805-3.491-1.074
			c0,1.345-0.27,2.688-0.27,3.762c1.341,0.268,2.685,0.268,3.761,0.538C360.928,291.868,360.928,290.793,360.928,289.717z"/>
		<path fill-rule="evenodd" clip-rule="evenodd" fill="#FFFFFF" d="M353.407,288.375c-0.538,0-1.074,0-1.882,0
			c0,1.073-0.268,1.88-0.268,2.956c0.804,0,1.341,0.267,2.151,0.267C353.677,290.522,353.677,289.448,353.407,288.375z"/>
		<path fill-rule="evenodd" clip-rule="evenodd" fill="#FFFFFF" d="M463.013,341.835c-3.761-5.372-7.787-10.21-12.088-15.312
			c2.417,7.521,5.908,14.506,9.67,20.952c3.495,2.959,7.525,4.84,11.286,7.255C469.192,350.164,465.97,346.135,463.013,341.835z"/>
		<path fill-rule="evenodd" clip-rule="evenodd" fill="#FFFFFF" d="M377.317,299.924c-3.495-2.681-7.791-3.221-11.822-3.758
			c-5.644-0.538-11.014-1.881-16.658-2.151c-5.91-0.268-11.552-1.073-17.46-1.342c-1.341,0-2.151,1.612-2.687,2.687
			c-0.27,2.953-0.27,5.912,0.266,9.134c0.27,1.341,1.08,3.225,2.421,4.299c1.611,1.071,3.76,0.27,5.638,0.27
			c2.421-0.808,5.106,0.266,7.526,0.801c3.49,0.81,5.908,3.763,8.055,6.45c1.884,2.689,3.765,5.106,5.644,7.791
			c1.346,2.149,4.298,2.149,6.716,2.419c1.879-1.074,3.225-2.419,5.372-3.225c-0.803-2.415,0.268-5.106,0.268-7.525
			c0.54-3.49,0.54-7.251,1.614-10.74c0-0.81,0.534-1.345,0.805-1.881c0.806,6.711,1.341,13.701-0.27,20.416
			c3.227,0.536,6.45,1.074,9.672,1.881c-1.339-0.536-2.95-1.076-3.76-2.419c-0.536-0.806-0.27-1.881,0.81-2.147
			c1.339-0.27,2.415,1.071,3.489,1.879c0.27-0.808,0.538-2.419,0.805-3.223c-1.344-1.614-3.225-2.955-4.029-5.106
			c1.879-0.538,3.763-0.538,5.644-0.27c0.266-0.268,0.266-0.536,0.536-0.804c-1.074-0.535-2.685-1.614-3.76-2.417
			c0-0.538,0-1.078-0.27-1.612c1.074-0.536,2.149-1.346,3.223-1.346c0.806,0.272,1.341,0.81,2.149,1.08c0-0.27,0-0.54,0-0.808
			c-1.879-1.343-4.028-2.421-6.176-3.492C379.196,303.689,378.658,301.272,377.317,299.924L377.317,299.924z M371.942,299.388
			c0.804,0.806,1.614,2.151,1.074,3.225c-1.074,1.341-3.223,0.804-4.298-0.27c-1.073-0.804,0-2.419-0.272-3.489
			C369.527,298.853,370.867,298.583,371.942,299.388L371.942,299.388z M365.762,299.123c0,1.071-0.266,2.149-0.805,3.22
			c-0.806,1.346-2.685,1.074-3.491,0c-1.074-0.804-0.538-2.955,0.536-3.76C363.077,298.043,364.687,298.853,365.762,299.123
			L365.762,299.123z M379.196,306.644c0.272,4.029-0.538,8.329-1.345,12.358c-0.534,0-1.074,0-1.611,0.266
			c-0.538-1.344-0.804-2.685-0.538-4.029c0.806-2.955,1.074-5.91,1.883-8.865C378.122,306.374,378.658,306.374,379.196,306.644
			L379.196,306.644z M358.507,298.313c0,1.074,0,2.151-0.803,2.959c-0.808,0.803-2.149,0.536-3.493,0.536
			c0.27-1.076,0-2.151,0.536-2.685C355.825,298.043,357.436,298.313,358.507,298.313L358.507,298.313z M349.645,301.539
			c-1.074,0.804-2.149-0.266-3.223-1.074c0.804-1.341,2.149-2.687,3.76-3.221C350.986,298.583,351.256,300.464,349.645,301.539
			L349.645,301.539z M343.195,297.509c1.074,0.535,1.074,2.149,0.27,2.955c-1.074,1.074-2.687,1.074-3.76,0.268
			C338.361,298.853,341.586,296.434,343.195,297.509L343.195,297.509z M335.674,296.166c1.073,1.611-0.538,4.566-2.687,3.758
			c-1.611-0.266-2.151-1.881-2.687-3.221C331.915,295.898,334.064,294.286,335.674,296.166z"/>
		<path fill-rule="evenodd" clip-rule="evenodd" fill="#FFFFFF" d="M347.765,288.375c-0.538,0-1.879,0.268-2.417,0.537
			c-0.272,0.536-0.272,1.342-0.272,2.149c0.81,0,1.612,0,2.421,0.27C347.765,290.254,347.765,289.18,347.765,288.375z"/>
		<path fill-rule="evenodd" clip-rule="evenodd" fill="#FFFFFF" d="M332.987,289.988c0-1.613-0.806-2.688-1.882-4.031
			c-1.339,0.805-2.685,1.343-4.296,1.88c0.268,0.805,0.268,1.611,0.268,2.151C329.226,289.988,331.105,289.988,332.987,289.988z"/>
		<path fill-rule="evenodd" clip-rule="evenodd" fill="#FFFFFF" d="M394.508,312.824c-0.806-1.882-2.955-2.691-4.566-4.031
			c-1.879,6.447-3.495,13.161-3.495,19.611c2.961,1.074,6.18,1.341,8.871-0.27c1.611-0.538,1.879-2.151,2.143-3.491
			c0.272-1.881,0.808-3.76,1.346-5.64C397.197,317.118,395.318,315.239,394.508,312.824z"/>
		<path fill-rule="evenodd" clip-rule="evenodd" fill="#FFFFFF" d="M422.448,329.209c-2.149-1.612-4.299-2.685-6.716-4.029
			c-1.342,0.536-2.683,1.344-4.028,1.881c1.074,1.345,2.143,2.953,2.685,4.566c0.538,1.614,0,3.229,1.342,4.299
			c0.806,1.074,1.881,2.149,2.147,3.492c0.538,1.613,0.81,3.493,1.881,4.838c1.342-4.299,2.419-8.599,3.227-13.165
			C423.255,330.553,423.255,329.479,422.448,329.209z"/>
		<path fill-rule="evenodd" clip-rule="evenodd" fill="#FFFFFF" d="M404.988,323.299c-1.078-1.074-2.689-1.345-4.3-1.614
			c-0.27,2.421-0.27,5.109-1.611,7.258c-1.616,1.611-4.299,2.147-6.45,2.683c-1.341,1.344-2.685,2.149-3.49,3.493
			c-0.54,1.614-0.272,2.955-0.272,4.566c3.493-1.071,6.988-2.685,10.748-2.951c1.613-0.27,3.223,1.073,4.836,1.881
			c1.074-3.76,0.808-7.525,1.879-11.018C406.868,325.984,406.06,324.373,404.988,323.299z"/>
		<path fill-rule="evenodd" clip-rule="evenodd" fill="#FFFFFF" d="M431.314,334.583c-2.415-1.343-4.566-2.419-6.716-3.76
			c-0.808,6.447-2.687,12.623-3.76,19.071c1.881,1.341,3.76,2.421,5.642,3.225C428.09,346.939,429.165,340.495,431.314,334.583
			L431.314,334.583z M426.208,342.105c-1.074,0.805-2.149-0.54-2.419-1.342c0.27-1.346,1.344-1.882,2.151-2.419
			C426.48,339.417,427.554,341.029,426.208,342.105z"/>
		<path fill-rule="evenodd" clip-rule="evenodd" fill="#FFFFFF" d="M438.568,338.88c-1.881-1.074-3.76-2.417-5.908-3.761
			c-1.616,6.447-2.691,12.627-4.301,19.077c1.881,1.071,3.76,2.149,5.64,3.49C435.611,351.505,436.688,345.06,438.568,338.88z"/>
		<path fill-rule="evenodd" clip-rule="evenodd" fill="#FFFFFF" d="M326.271,294.554c-3.49,4.3-3.761,10.48-1.611,15.31
			c0.806,2.421,3.495,1.614,5.376,1.881c-1.616-1.881-3.227-4.026-3.765-6.446C325.466,301.808,326.005,298.043,326.271,294.554z"/>
		<path fill-rule="evenodd" clip-rule="evenodd" fill="#FFFFFF" d="M445.285,342.643c-1.614-0.808-3.227-1.881-4.838-2.689
			c-1.879,6.18-2.957,12.63-4.569,18.807c1.882,0.805,3.495,1.879,5.378,2.413C442.058,355,443.67,348.82,445.285,342.643
			L445.285,342.643z M442.599,349.09c-0.542,0.805-1.08,1.879-1.881,2.415c-1.078-0.27-1.346-1.611-1.614-2.415
			C440.179,348.554,441.52,348.554,442.599,349.09z"/>
		<path fill-rule="evenodd" clip-rule="evenodd" fill="#FFFFFF" d="M411.704,330.823c-0.536-1.078-1.616-2.149-2.421-2.959
			c-1.611,3.495-0.266,7.525-2.147,11.016c0,1.614-1.343,2.685-2.687,2.685c-4.301,0-8.331,2.421-12.09,4.029
			c-1.883,0.27-3.493-0.534-5.372-0.534c0.268,0.804,0,1.879,0.804,2.685c0.806,0.808,1.882,0,2.685,0
			c4.301-1.341,8.867-0.806,13.165-0.27c1.616,0.27,2.957,1.614,4.298,2.419c1.882-4.03,2.149-8.595,3.493-12.895
			C412.241,335.119,412.509,332.97,411.704,330.823z"/>
		<path fill-rule="evenodd" clip-rule="evenodd" fill="#FFFFFF" d="M451.999,346.405c-1.611-1.08-3.225-1.881-4.836-2.691
			c-1.344,4.569-2.685,9.405-3.223,14.511c0,1.341-0.806,2.685,0,4.029c1.074,1.071,2.687,1.341,3.76,2.151
			C449.314,358.493,450.388,352.315,451.999,346.405z"/>
		<path fill-rule="evenodd" clip-rule="evenodd" fill="#FFFFFF" d="M458.716,350.434c-1.611-1.08-3.225-2.151-5.106-3.225
			c-1.071,6.176-2.685,12.357-3.76,18.535c1.344,0.54,2.689,1.343,3.76,1.881c1.344-4.566,2.421-9.131,3.76-13.701
			C457.641,352.585,458.179,351.505,458.716,350.434L458.716,350.434z M454.954,359.03c-1.344-0.268-1.881-1.614-1.881-2.955
			c0.536,0,1.345,0,1.881,0C454.954,357.149,454.954,358.225,454.954,359.03z"/>
		<path fill-rule="evenodd" clip-rule="evenodd" fill="#FFFFFF" d="M464.624,353.656c-1.611-1.071-3.223-1.881-4.834-2.955
			c-0.804,6.18-2.685,12.358-4.299,18.27c1.614,1.074,3.225,1.879,4.569,2.953C461.135,365.744,463.013,359.566,464.624,353.656z"/>
		<path fill-rule="evenodd" clip-rule="evenodd" fill="#FFFFFF" d="M470.27,356.881c-1.346-0.806-2.689-1.614-4.029-2.417
			c-1.345,6.177-3.495,12.357-3.763,18.803c1.073,0.538,2.147,1.345,2.955,1.881C467.045,368.971,468.391,363.059,470.27,356.881z"
			/>
		<path fill-rule="evenodd" clip-rule="evenodd" fill="#FFFFFF" d="M478.597,361.985c-2.419-1.611-4.836-2.955-7.257-4.299
			c-1.071,6.18-2.95,12.36-4.029,18.54c2.149,1.339,4.298,2.415,6.45,3.49c0.805-3.49,1.879-7.255,2.685-11.014
			C476.986,366.284,477.521,363.865,478.597,361.985L478.597,361.985z M474.566,362.791c0,0.805,0.27,1.345,0.27,1.879
			c-0.536,0.536-1.074,0.806-1.344,1.346c-1.073-0.54-1.882-1.881-1.341-2.957C472.955,363.059,474.029,362.791,474.566,362.791
			L474.566,362.791z M471.34,375.686c-1.611-0.806-1.881-2.419-1.339-4.03c0.805,0,1.339-0.27,2.149-0.27
			C472.955,372.731,472.687,374.611,471.34,375.686z"/>
		<path fill-rule="evenodd" clip-rule="evenodd" fill="#FFFFFF" d="M484.505,364.94c-1.611-0.804-3.495-1.881-5.106-2.685
			c-0.534,6.447-2.413,12.625-4.028,18.801c1.614,0.81,2.959,1.614,4.568,2.421C481.55,377.297,483.161,371.116,484.505,364.94z"/>
		<path fill-rule="evenodd" clip-rule="evenodd" fill="#FFFFFF" d="M487.73,367.087c-0.268-0.266-1.074-0.803-1.611-1.071
			c-1.078,6.445-2.151,12.625-4.03,19.07c0.535,0,0.805,0.272,1.341,0.54C484.505,379.445,486.12,373.267,487.73,367.087z"/>
		<path fill-rule="evenodd" clip-rule="evenodd" fill="#FFFFFF" d="M413.847,338.074c-1.339,5.372-1.339,11.016-4.294,15.582
			c1.614,0.54,2.955,0.808,4.566,0.808c1.344-2.959,4.298-6.18,2.419-9.675c-1.611,2.957-2.149,6.716-4.298,9.407
			c-1.611-1.611-0.272-3.761,0.268-5.642c0.806-2.419,1.881-4.839,2.685-7.255C415.464,340.225,414.389,339.148,413.847,338.074z"/>
		<path fill-rule="evenodd" clip-rule="evenodd" fill="#FFFFFF" d="M490.686,371.924c0.266-1.343,1.074-3.223-1.074-4.029
			c-1.344,6.45-1.881,12.897-5.106,18.537c0.805,0.805,1.614,1.074,2.415,1.879C488.537,382.937,489.341,377.297,490.686,371.924z"
			/>
		<path fill-rule="evenodd" clip-rule="evenodd" fill="#FFFFFF" d="M495.791,371.924c-0.808-0.808-1.881-1.343-2.959-1.879
			c-0.536,6.715-2.683,13.161-3.76,19.879c0.268,0.266,0.806,0.266,1.076,0.536C492.564,384.281,493.639,377.836,495.791,371.924z"
			/>
		<path fill-rule="evenodd" clip-rule="evenodd" fill="#FFFFFF" d="M499.281,373.805c-0.805-0.27-1.611-0.808-2.419-1.344
			c-1.611,6.447-3.491,12.897-5.102,19.075c0.804,0.27,1.611,0.805,2.415,1.076C496.059,386.432,497.402,379.985,499.281,373.805z"
			/>
		<path fill-rule="evenodd" clip-rule="evenodd" fill="#FFFFFF" d="M502.506,375.416c-0.534-0.268-1.342-0.804-1.879-1.071
			c-0.808,3.76-1.076,7.521-2.151,11.28c-0.806,2.955-2.151,5.64-2.151,8.595c0.27,0.27,1.076,0.806,1.344,1.346
			C499.819,389.117,500.892,382.134,502.506,375.416z"/>
		<path fill-rule="evenodd" clip-rule="evenodd" fill="#FFFFFF" d="M505.461,377.565l-1.074-1.339
			c-1.074,6.981-2.685,13.966-4.299,20.68c0.268,0.272,0.805,0.54,1.344,0.81C502.506,390.731,504.386,384.281,505.461,377.565z"/>
		<path fill-rule="evenodd" clip-rule="evenodd" fill="#FFFFFF" d="M382.686,329.479c-0.803-0.536-1.607-0.536-2.685-1.074
			c-0.268,2.685-0.804,4.836-1.074,7.521c0,1.345,1.074,2.419,1.881,3.223c0-1.613-0.27-3.223,0-4.834
			C381.079,332.434,381.883,331.089,382.686,329.479z"/>
		<path fill-rule="evenodd" clip-rule="evenodd" fill="#FFFFFF" d="M378.122,328.134c-0.805-0.538-1.345-0.806-1.881-1.074
			c-1.074,0.805-2.685,1.614-2.685,3.225c0,2.955,0.535,6.178,0.535,9.132c0,4.298,1.882,8.329,1.612,12.628
			c-2.415-2.419-4.028-5.64-4.836-8.865c-1.074-3.763-2.149-7.525-2.421-11.286c0-1.881,0.54-3.489,0.54-5.37
			c-3.225,2.151-3.491,6.18-4.836,9.402c0,4.3,0.536,8.599,1.881,12.629c0.536,1.611,1.076,3.491,2.687,4.031
			c5.104,2.681,9.67,5.37,14.239,8.59c-0.54-2.145-0.54-4.564-0.804-6.711c-0.27-2.959,1.074-6.448-0.27-9.403
			c-0.804-2.151-3.225-2.417-4.566-3.761c-0.808-1.344-1.881-2.685-1.614-4.3C375.703,334.044,376.777,331.089,378.122,328.134z"/>
		<path fill-rule="evenodd" clip-rule="evenodd" fill="#FFFFFF" d="M509.492,379.445c-0.542-0.538-1.074-0.805-1.611-1.074
			c-0.81,4.031-1.346,8.061-2.421,12.09c-0.538,3.225-1.611,6.445-1.344,9.67c1.344-1.879,1.616-4.296,2.149-6.445
			C507.612,389.117,508.682,384.281,509.492,379.445z"/>
		<path fill-rule="evenodd" clip-rule="evenodd" fill="#FFFFFF" d="M514.862,382.67c-1.071-0.804-2.417-1.344-3.491-2.151
			c-1.346,6.986-2.953,13.971-4.569,20.688c1.08,0.808,2.149,1.344,3.223,1.879C511.371,396.105,514.056,389.655,514.862,382.67z"/>
		<path fill-rule="evenodd" clip-rule="evenodd" fill="#FFFFFF" d="M525.072,388.581c-2.687-1.613-5.91-2.955-8.867-4.3
			c0.536,1.614,2.419,2.419,3.761,3.225c7.791,4.569,15.315,9.135,23.104,13.161C537.433,396.371,530.981,392.876,525.072,388.581z"
			/>
		<path fill-rule="evenodd" clip-rule="evenodd" fill="#FFFFFF" d="M535.012,399.327c-6.18-4.299-12.627-7.521-18.807-11.552
			c-0.266,0.806-0.266,1.613-0.534,2.417C522.385,392.876,528.564,395.835,535.012,399.327z"/>
		<path fill-rule="evenodd" clip-rule="evenodd" fill="#FFFFFF" d="M355.017,332.434c1.074-2.149-1.341-3.76-2.421-5.106
			c-0.801,0-1.611,0.268-2.415,0.536c-0.806,3.495-0.264,7.525-1.611,11.016c-0.54,1.074-0.806,2.955-2.149,3.225
			c-2.685,0.268-5.106-1.342-8.061-1.076c-4.566,0-9.135-1.074-13.701-0.535c-2.415,0.268-5.106,0-7.523,0.535
			c-3.221,5.376-5.642,11.286-9.941,15.852c-4.832,6.178-9.672,12.355-16.118,16.654c-1.343,0.81-2.685,0.27-4.028,0
			c-1.074-0.268-1.616,0.54-2.417,1.076c-3.763,4.029-7.256,8.595-9.405,13.969c-1.074,2.685-1.879,5.64-3.76,8.061
			c-0.805,1.074-1.884,1.879-3.495,1.879c-0.804-0.535-1.341-1.614-1.071-2.415c1.071-4.569,2.415-8.869,4.566-12.628
			c2.147-5.64,4.566-10.746,6.716-16.122c-4.836,3.227-8.059,8.601-10.212,14.241c-1.879,5.372-4.564,10.48-6.18,16.12
			c0.54,2.685,0.808,5.37,0.54,8.325c1.341-0.264,2.955,0,4.029-1.074c5.642-3.492,8.597-9.67,12.625-14.776
			c4.568-5.91,10.748-10.206,15.852-15.312c6.987-6.715,13.971-13.433,19.611-20.956c1.884-2.149,3.763-4.029,5.91-5.64
			c1.074-0.538,2.421-0.538,3.495,0c-0.27,3.222-3.225,5.102-4.839,7.791c-7.521,10.21-17.461,18.805-26.592,27.67
			c3.76-1.074,7.519-2.149,11.012-3.76c6.18-3.495,12.09-7.791,15.85-14.241c2.959-3.76,5.91-7.251,8.329-11.549
			c1.341-1.611,2.151-4.031,4.3-4.569c1.341-0.806,3.221-0.272,4.566-0.272c2.687,0.54,5.64,0.54,7.789-1.071
			c2.153-1.609,4.568-3.223,5.912-5.91C351.796,339.148,353.407,335.655,355.017,332.434z"/>
		<path fill-rule="evenodd" clip-rule="evenodd" fill="#FFFFFF" d="M427.554,357.415c-1.346-1.341-3.225-1.881-4.568-2.685
			c0.536,2.685,1.611,5.374,1.343,8.329c-0.54-0.268-1.611-0.534-2.151-1.344c-1.076-2.685-1.879-5.91-3.22-8.595
			c-0.542,1.344-0.81,3.225-2.149,3.761c-1.883,1.074-4.031,1.074-6.18,1.344c2.685,4.029,5.638,8.059,8.862,11.55
			c-0.533-2.151-1.342-3.76-1.879-5.91c-0.27-0.806,1.346-1.341,1.611-0.806c3.225,4.028,6.18,8.057,9.675,11.552
			c-0.27-3.225-0.808-6.447-1.616-9.672c-0.266-0.804,0-1.881,0.536-2.685c1.883,2.151,2.421,5.1,3.761,7.521
			c2.149,3.221,4.031,6.45,5.644,9.94c-0.536-4.029-1.346-8.059-1.879-11.82c-0.27-1.611-0.27-2.955-0.27-4.3
			c0.803,0,1.613,0,2.149,0.27c1.074,2.685,1.616,5.37,2.149,8.059c1.611,5.372,3.761,10.746,4.298,16.386
			c0.538,4.836,2.419,9.405,2.957,14.241c0.536,5.91,1.611,12.087,1.611,17.997c0,17.731-1.344,35.459-2.687,53.192
			c0,8.867-0.266,17.999-0.266,27.136c-0.27,9.94,0.266,19.879,1.609,29.554c1.881,9.67,2.685,19.611,3.495,29.551
			c0.27,2.951,0.806,5.91,1.343,8.59c0.538,1.884,1.879,2.96,2.953,4.301c2.149,2.421,4.031,4.57,6.716,6.448
			c3.223,2.151,5.91,4.836,9.133,6.447c3.765,2.149,8.063,4.566,12.36,2.955c4.026-1.339,7.791-2.955,11.822-4.298
			c2.145-0.803,3.223-3.221,4.834-4.568c2.421-2.685,5.64-4.564,8.061-7.255c7.251-7.251,15.04-14.237,20.952-22.561
			c3.225-3.765,5.644-8.331,8.869-12.09c0.265,0.268,0.536,0.533,0.801,0.533c-2.683,8.063-7.253,15.317-12.891,21.497
			c-2.957,3.76-6.718,6.711-9.672,10.474c3.491-1.343,6.981-2.417,10.208-4.564c4.028-2.151,6.985-5.376,9.94-8.331
			c5.644-5.104,9.938-11.55,15.044-16.924c5.106-5.644,9.942-11.556,12.897-18.535c1.074-2.691,2.953-5.376,2.685-8.601
			c-0.27-3.76-1.074-8.061-3.221-11.28c-1.08-2.153-2.149-4.031-3.229-6.18c-2.68,0-5.37,0.81-8.057,1.611
			c1.883,4.569,4.568,9.133,5.642,13.969c0.805,4.301,1.346,8.871,0,12.897c-0.536,0.805-1.344,1.344-2.149,1.074
			c-0.806-0.27-1.346-1.074-1.882-1.611c-1.611,5.37-2.413,10.744-5.908,15.04c-2.685,4.031-6.716,6.452-11.016,8.063
			c3.495-5.372,8.331-9.674,10.75-15.582c-0.538,0-1.08,0.27-1.616,0.27c3.763-5.642,5.912-12.897,4.568-19.881
			c-0.536,1.611-1.073,2.957-1.611,4.569c-1.879-2.959-2.957-6.18-4.031-9.139c-2.953-2.951-6.713-5.37-10.744-6.444
			c-2.957,1.882-4.568,5.372-5.642,8.329c-0.268,3.223,1.074,6.447,1.074,9.67c0.272,2.685,1.073,5.376,0,7.791
			c-2.149,4.836-3.491,10.211-6.176,15.045c-3.493,5.91-7.255,11.82-11.822,17.191c-2.421,2.691-4.836,5.644-8.059,7.255
			c3.759-5.372,8.059-10.744,11.818-16.386c4.57-6.448,8.867-13.971,9.942-22.03c0-3.76,0-7.791-1.611-11.281
			c-1.879,1.341-3.761,2.682-4.3,5.372c-0.538,4.298-2.149,8.599-3.76,12.893c-0.272,2.417,0.268,5.106-0.272,7.526
			c-0.538,3.76-2.953,6.175-5.106,9.13c-2.685,3.49-5.372,7.521-9.133,9.942c-1.881,1.341-4.296,1.879-6.716,2.419
			c2.957-5.104,7.526-9.403,11.286-13.971c1.341-1.611,2.685-3.223,4.3-4.839c1.343-1.609,2.149-4.028,2.417-6.175
			c-3.495,2.685-6.716,6.175-10.746,8.055c1.881-2.413,3.76-4.832,5.37-7.519c2.421-4.3,5.91-8.063,7.255-12.893
			c1.346-3.229,1.346-6.988,1.346-10.748c-2.421,0-4.836,0.808-6.984-0.272c-1.883-1.069-3.227-2.685-4.301-4.564
			c0-0.266,0.27-0.536,0.27-0.806c2.953,0.54,6.18,1.611,9.134,0.806c3.221-0.806,6.18-2.415,8.327-5.106
			c2.421-3.489,4.3-7.249,5.91-11.28c-4.296,1.611-5.106,6.981-8.595,9.132c-3.491,1.879-6.985-1.073-9.67-2.951
			c2.685-0.542,5.91,0.536,8.059-1.616c1.611-2.415,3.221-4.564,5.1-6.984c-2.149-2.149-4.028-4.564-6.175-6.448
			c-3.495-1.881-6.452-4.832-10.478-6.176c-4.028-1.879-8.597-3.761-13.167-4.566c-2.683-0.808-6.445-1.614-8.592,0.804
			c-0.54,1.882-0.81,3.493-1.346,5.376c4.026,2.681,8.327,5.102,12.357,8.055c-1.881,1.881-4.299,0.27-5.91-0.535
			c-4.3-1.881-8.331-4.301-13.163-4.301c0,1.074-0.806,2.691,0,3.761c2.419,2.691,4.832,5.104,7.791,7.254
			c5.642,3.227,11.822,5.642,17.194,9.135c-6.447-1.074-12.627-3.223-18.269-6.18c-3.223-1.611-5.374-4.834-8.059-7.519
			c-1.074,6.445-1.881,12.891-1.616,19.339c0.272,4.301,0,8.597,0.81,12.897c1.342,7.255,2.957,14.504,4.568,21.758
			c-2.957-2.685-5.106-5.908-6.716-9.403c-2.421-6.18-2.421-13.159-4.031-19.609c-1.879-6.716-1.609-13.973-2.689-20.952
			c-0.536-6.988-1.611-13.971-2.683-20.689c-0.538-4.568-0.806-8.863-1.613-13.433c-0.536-3.223-1.074-6.448-1.612-9.67
			c-0.266-4.569,0-8.865-0.803-13.165c-0.808-4.834-1.616-9.67-2.691-14.505c-1.074-8.061-3.22-16.12-4.564-24.451
			c-0.536-5.37-2.685-10.476-4.301-15.85c-1.343-4.296-2.145-8.592-4.028-12.623c-0.808-1.078-0.536-2.689-1.074-4.029
			c-2.951-2.419-6.447-4.03-9.673-6.18c0.542,1.342,0.806,2.955,0.806,4.301c-0.536,0.264-1.074,0.264-1.611,0.534
			C429.701,362.525,428.628,359.836,427.554,357.415L427.554,357.415z M452.539,436.938c0,5.104,0.266,9.938,0.534,14.775
			c0.268,9.134,0.536,18.535,1.345,27.67c0.266,5.64-0.27,11.55-0.27,17.194c-0.268,6.18,1.343,12.357,1.343,18.269
			c0,5.102,0,9.938,0.81,14.776c1.341,8.329,0.804,17.189,3.489,25.248c3.49,6.99,9.402,12.36,14.776,17.732
			c2.421,2.421,5.374,4.031,7.791,6.18c0.538,0.538,1.344,0.27,2.149,0c3.225-0.536,6.447-1.341,9.942-1.611
			c-0.808,2.419-2.687,4.299-5.106,5.106c-4.031,1.611-8.595,2.953-12.895,2.147c-4.566-1.343-8.327-4.298-11.822-7.523
			c-1.879-1.609-4.029-3.491-6.175-5.37c-1.08-1.344-1.08-3.225-1.345-4.839c-1.614-5.1-2.151-10.206-3.225-15.582
			c-1.881-6.18-1.881-12.891-2.685-19.609c-1.074-8.059-1.074-16.386-1.616-24.445c-0.533-7.256,0-14.237,0.81-21.227
			c0.536-5.1,0-10.206,0-15.04c0-12.628-0.538-24.987,0-37.342c0-4.569-1.074-9.405,0.27-13.971
			C451.731,425.116,452.539,431.026,452.539,436.938L452.539,436.938z M537.161,515.38c0.536,3.761,1.073,7.791-0.538,11.556
			c-0.805,2.415-2.149,4.566-3.76,6.715c0.27-5.638,2.149-11.016,1.344-16.654c-0.27-2.957-1.074-5.644-0.54-8.595
			C536.353,509.471,536.893,512.695,537.161,515.38z"/>
		<path fill-rule="evenodd" clip-rule="evenodd" fill="#FFFFFF" d="M533.401,402.282c-5.644-4.03-12.09-6.985-17.999-10.746
			c0,0.805,0,1.341-0.272,2.151C521.583,396.105,527.491,399.327,533.401,402.282z"/>
		<path fill-rule="evenodd" clip-rule="evenodd" fill="#FFFFFF" d="M537.161,408.192c-7.254-4.566-14.775-8.865-22.298-12.895
			c0,0.538-0.27,1.074-0.27,1.344c7.526,4.834,15.314,9.4,23.376,13.431c1.612,0.805,3.223,1.614,4.834,2.149
			C541.462,410.341,539.311,409.266,537.161,408.192z"/>
		<path fill-rule="evenodd" clip-rule="evenodd" fill="#FFFFFF" d="M529.102,408.998c-5.104-3.491-10.478-6.447-15.045-10.478
			c-0.264,0.536-0.264,0.806-0.536,1.346C518.088,403.896,523.998,406.041,529.102,408.998z"/>
		<path fill-rule="evenodd" clip-rule="evenodd" fill="#FFFFFF" d="M610.234,438.547c-1.611-2.149-4.298-3.76-7.255-3.22
			c-2.149,0.804-4.296,2.149-5.91,4.028c3.761,1.613,8.059,1.882,11.016,4.568c2.957,2.685,5.642,5.91,7.251,9.405
			c1.078,2.147,2.151,4.564,2.961,6.711c1.879,4.569,3.22,9.403,5.638,13.701c1.341,2.689,3.49,4.839,5.372,7.258
			c2.689,3.22,4.569,6.981,6.718,10.474c2.951,4.836,6.445,9.137,8.865,14.507c2.147,3.761,2.957,8.059,4.296,12.358
			c2.151,8.863,2.421,18.539-0.27,27.672c-1.611,3.76-4.83,6.175-7.521,9.132c3.225-0.536,6.452-2.421,8.063-5.642
			c2.953-5.91,4.298-12.09,5.102-18.535c0.536-7.523-0.268-15.314-2.415-22.565c-3.229-8.061-6.988-15.852-12.089-22.84
			c-3.495-4.832-5.91-10.206-8.601-15.312c-2.415-5.102-5.1-9.402-8.059-13.971C619.101,450.369,615.336,443.923,610.234,438.547z"
			/>
		<path fill-rule="evenodd" clip-rule="evenodd" fill="#FFFFFF" d="M201.351,280.315c-2.419-1.342-4.569-3.223-7.519-2.956
			c-1.884,0.268-4.031-0.267-5.91,0c-6.722,3.76-13.707,8.328-18.002,15.045c-6.18,8.059-8.869,18.269-9.94,28.208
			c-0.54,4.566,0,9.4,0,14.241c0,5.1,0.536,10.206,1.071,15.31c0.272,3.491,0.81,6.984,1.881,10.21
			c2.151,6.176,3.765,12.623,5.376,19.071c1.344,5.106,2.149,10.48,3.761,15.582c2.419,6.988,3.761,14.239,5.104,21.224
			c1.342,6.446,5.91,11.552,9.94,16.118c-1.343-3.221-3.491-6.445-4.834-9.672c2.953,1.616,4.834,4.569,7.253,6.988
			c2.685,2.951,4.836,6.447,8.327,8.594c-5.91-8.327-12.627-16.118-16.926-25.521c-1.073-2.685-2.685-5.102-2.685-8.061
			c2.149,1.614,3.763,3.495,5.374,5.376c2.685,2.685,5.37,5.642,7.791,8.864c-4.031-8.329-11.286-14.504-13.971-23.639
			c-0.538-1.611-0.538-3.221-0.538-5.106c2.957,3.225,5.644,6.986,9.135,9.675c-3.227-5.376-7.523-10.212-10.208-15.852
			c-1.342-3.223-3.225-6.178-3.225-9.67c2.687,1.881,4.298,4.296,6.716,6.447c3.761,3.489,5.91,8.325,9.133,12.085
			c-0.268-1.611-0.803-3.49-1.879-4.83c-2.419-2.961-4.566-6.18-6.716-9.405c-3.223-5.374-6.718-10.206-10.208-15.045
			c-2.152-3.491-4.031-7.251-4.301-11.28c0-0.54,0.27-1.346,0.27-1.881c1.076,0.801,1.879,1.611,2.687,2.415
			c-1.346-2.955-2.415-5.64-3.225-8.863c-0.268-1.613-1.073-3.223-0.536-4.838c0.805-0.268,1.614,0,1.879,0.806
			c6.716,7.521,10.478,17.46,17.732,24.715c0-2.955-2.147-5.374-3.489-7.789c-4.301-8.597-10.212-16.118-14.243-24.717
			c-0.533-2.151-2.149-4.568-1.074-6.715c3.227,2.415,5.106,6.177,7.791,9.134c4.031,4.566,7.255,9.672,10.212,15.044
			c1.074,2.149,2.149,4.029,3.489,5.908c-0.536-4.3-1.341-8.595-2.685-12.625c-5.374-9.94-14.505-17.997-17.196-29.283
			c0.27-0.268,0.538-0.268,0.81-0.534c2.685,2.682,5.1,5.91,8.059,8.592c4.838,4.3,7.253,10.48,11.822,15.049
			c-0.54-2.151-1.882-4.03-2.959-5.644c-4.298-6.716-8.864-13.165-12.089-20.416c-1.074-2.419-2.149-5.106-1.613-8.061
			c2.959,2.421,4.569,5.91,6.988,8.865c3.491,5.106,6.447,10.476,10.474,15.316c-0.268-1.614-1.074-3.225-1.879-4.84
			c-2.955-5.64-5.376-11.55-7.793-17.46c-1.343-3.492-2.683-6.985-1.881-10.746c0.808,0.268,1.612,0.538,1.881,1.342
			c2.689,5.642,5.91,11.284,9.139,16.654c-0.81-3.489-2.421-6.981-3.765-10.206c-1.611-4.03-3.489-8.327-3.225-12.627
			c2.421,2.686,3.761,6.178,5.644,9.402c3.225,4.839,5.372,9.942,7.791,15.045c0.266-2.417,0-5.104-0.806-7.525
			c-1.613-5.64-3.223-11.549-5.908-17.192c-0.81-1.611-1.346-3.223-1.882-4.835c3.761,1.88,5.642,5.64,7.523,9.135
			c1.341,2.147,1.879,4.834,2.953,6.981c0.808-6.981-0.803-14.236-4.834-20.146c0.805-0.805,1.074-1.342,1.611-1.882
			c1.879,1.343,4.3,2.686,5.374,4.837c1.611,2.686,3.227,5.641,3.76,8.864c1.074,6.179,0.806,12.356-0.533,18.536
			c-1.346,8.599-2.962,17.194-3.765,26.06c-0.266,1.881-0.805,4.031-0.536,6.18c0.27,2.151,0,4.031,0,6.18
			c0,2.681,0,5.102,0.27,7.521c0,2.419-0.538,4.836-0.27,7.251c0.27,6.72,1.074,13.435,1.881,20.419
			c0.805,4.836,0.805,9.672,2.149,14.507c0.805,2.955,0.272,6.445,1.611,9.403c2.151,7.253,2.689,14.774,1.879,22.296
			c1.613-1.344,3.761-3.223,4.301-5.638c0.54-3.495,0.268-6.988,0.268-10.746c0-8.061-2.417-16.122-3.493-24.181
			c-1.345-13.701-4.03-27.132-4.294-41.103c0-6.984,1.069-14.239,2.149-21.224c0.801-7.791,3.49-15.315,5.1-22.836
			c0.27-5.91-1.341-11.819-3.221-17.192C204.84,284.345,203.771,281.658,201.351,280.315z"/>
		<path fill-rule="evenodd" clip-rule="evenodd" fill="#FFFFFF" d="M476.446,386.968c-1.611-0.803-2.955-1.882-4.296-2.687
			c-0.81,1.884-0.542,3.765,0,5.644C473.491,388.847,474.836,387.774,476.446,386.968z"/>
		<path fill-rule="evenodd" clip-rule="evenodd" fill="#FFFFFF" d="M397.197,355.535c-2.151,0-4.3,0-6.448-0.268
			c1.611,3.763,3.49,7.258,5.638,11.018c1.074,2.417,3.495,3.761,5.376,5.64c1.879,1.881,3.225,4.031,5.374,5.64
			c-2.419-4.298-4.569-8.594-6.448-13.159C399.344,361.447,397.197,359.03,397.197,355.535z"/>
		<path fill-rule="evenodd" clip-rule="evenodd" fill="#FFFFFF" d="M520.236,406.847c-2.415-1.341-4.298-3.492-6.985-4.566
			c-0.27,1.074-0.27,1.879-0.27,2.955c4.031,2.419,8.601,4.299,12.629,6.984c7.523,4.296,14.773,8.865,22.564,12.357
			c-2.951-3.492-7.253-4.832-11.014-6.981C531.522,414.102,525.878,410.341,520.236,406.847z"/>
		<path fill-rule="evenodd" clip-rule="evenodd" fill="#FFFFFF" d="M483.161,391.536c-1.341-0.804-2.951-2.419-4.83-1.881
			c-1.344,0.27-2.152,1.342-2.959,2.421c2.417,2.415,4.568,5.102,6.448,8.055c3.221,4.029,4.3,9.405,4.031,14.777
			c0,2.953-0.81,6.178-3.227,8.059c-2.953,2.957-7.253,3.225-11.016,3.489c-2.149,0-4.564,1.08-4.834,3.495
			c-0.268,2.685-0.268,5.644,1.344,7.791c1.882,3.225,3.221,6.985,6.18,9.675c1.611,1.611,2.952,3.49,5.372,4.296
			c3.223,1.343,6.716,1.614,9.94,2.415c5.64,1.078,11.82,0.538,16.388,4.031c2.419,1.613,4.298,4.028,6.447,6.176
			c2.957,2.691,4.296,6.722,6.986,9.673c3.22,4.028,5.372,8.329,7.789,12.898c2.421,4.296,6.986,6.983,11.822,8.057
			c4.028,0.533,8.329-0.266,12.625-0.806c3.225-0.54,6.447-0.805,9.405-2.687c4.028-2.419,8.325-5.102,11.01-9.134
			c2.959-4.301,4.57-8.865,5.912-13.971c2.959-9.4,5.102-19.071,5.91-29.013c0.266-2.957,0.266-5.908,0.538-8.867
			c-2.421,0-4.836,0-7.255,0c0.27,4.84,1.613,9.403,1.345,14.239c0,4.301,1.341,8.865,0.538,13.165
			c-0.808,0.268-1.612,0.268-2.419,0.536c-0.81-1.879-1.074-4.029-1.342-6.18c-0.536-5.91-1.611-11.549-1.883-17.461
			c-1.345,0.27-2.685,0.54-4.03,0.808c0.806,4.296,2.151,8.594,2.417,12.891c0.808,7.521,2.959,14.781,2.149,22.302
			c-1.341,0-2.415,0-3.492-0.272c-0.54-0.538-0.54-1.339-0.54-2.149c0-6.448-1.611-12.893-2.145-19.339
			c-0.54-4.031-1.076-8.329-1.614-12.36c-1.073,0-2.415,0-3.76,0c0.27,8.601,2.149,17.194,2.419,26.061
			c0,4.834,0.268,9.94,1.071,15.04c0,1.614,0.54,3.763-0.534,5.374c-1.074,1.346-3.491,1.074-4.029-0.536
			c-1.613-8.059-1.346-16.388-1.882-24.447c-0.805-7.521-1.343-14.774-1.879-22.298c-2.955-0.805-5.376-2.415-6.984-5.104
			c0.268,2.689,0.806,5.104,0.268,7.789c-0.268,3.495,0,6.986-0.538,10.481c0.538,1.611,1.076,3.22,0.81,5.1
			c0.266,5.108,1.339,10.208,2.413,15.049c0.808,3.491,0.808,7.251,0.808,11.012c0,2.149,0,4.569-0.808,6.718
			c-0.803,1.341-2.953,1.341-4.028,0.536c-3.492-1.884-6.179-4.568-8.597-7.525c-3.489-4.031-7.255-8.327-9.133-13.701
			c-2.147-6.18-6.447-11.012-10.748-15.85c-1.609-1.883-3.76-3.493-6.448-3.761c-3.489-0.806-7.253-1.339-10.742-1.074
			c-4.839,0.536-9.675-1.344-13.971-2.955c-2.959-1.071-4.299-4.031-5.638-6.18c-1.616-2.951-1.616-6.983,1.339-8.862
			c2.687-1.613,5.372-0.27,8.059,0.266c2.153,1.345,4.301-0.266,5.912-1.879c2.151-1.611,2.955-4.298,3.761-6.716
			c1.879-4.3,1.341-8.867,1.074-13.431c-2.149-2.151-5.106-3.495-7.525-5.109C492.564,397.446,487.73,394.757,483.161,391.536
			L483.161,391.536z M499.551,404.697c0.804,1.344,2.421,2.691,1.881,4.569c-0.804,4.836-1.344,10.746-5.64,14.239
			c-3.227,2.419-7.255,1.073-10.75-0.268c2.149-1.611,4.569-1.611,6.99-1.611c0.801-2.151,2.685-3.765,2.951-5.912
			c0-1.879-0.536-4.028-2.151-5.108c-1.881-0.801-4.296-0.535-5.912-1.881c0.81-1.071,1.884-1.879,3.229-2.149
			C493.101,406.041,496.326,404.967,499.551,404.697L499.551,404.697z M478.865,429.148c0,1.074-0.268,2.421,0.266,3.761
			c1.345,4.03,3.763,7.249,6.72,10.208c4.834,4.031,11.01,7.523,17.461,6.447c4.299-0.535,9.133-0.535,13.165,1.076
			c4.834,1.609,7.791,5.91,10.206,9.938c3.495,5.642,4.839,12.897,9.135,18.002c2.687,2.953,4.836,6.18,7.789,8.865
			c1.616,1.609,4.031,2.685,5.912,4.294c0,0.27-0.268,0.81-0.268,1.08c-2.959-0.27-5.91-1.08-9.133-1.346
			c-4.3-0.538-8.329-2.685-10.748-6.448c-3.759-5.376-7.251-10.746-10.208-16.386c-1.341-2.689-3.76-5.104-5.91-7.255
			c-0.806-1.345-2.419-2.685-1.881-4.296c0.27-2.149,2.421-2.149,4.031-2.959c-3.493-1.341-7.256-1.611-11.016-1.341
			c-3.223,0.268-6.716,0.268-9.94-0.54c-4.836-1.879-10.478,0-15.047-2.952c-2.413-2.149-5.37-4.028-6.713-6.99
			c-0.806-1.607-2.417-4.028-0.806-5.638c1.611-1.881,4.298-0.536,6.18-0.536c-0.81-2.421-0.81-4.836,0-7.255
			C478.331,428.877,478.597,428.877,478.865,429.148z"/>
		<path fill-rule="evenodd" clip-rule="evenodd" fill="#FFFFFF" d="M544.682,417.597c-4.834-3.495-10.208-5.91-15.312-8.331
			C534.208,412.221,539.311,415.446,544.682,417.597z"/>
		<path fill-rule="evenodd" clip-rule="evenodd" fill="#FFFFFF" d="M568.323,432.101c-5.908-1.613-8.865-7.787-14.776-9.403
			c-0.803-0.268-1.344-0.268-2.147-0.268c1.613,3.763,6.178,4.838,8.594,7.793c1.346,1.346,2.149,3.489,4.031,3.489
			C565.637,433.983,566.984,432.909,568.323,432.101z"/>
		<path fill-rule="evenodd" clip-rule="evenodd" fill="#FFFFFF" d="M606.744,449.297c-2.959-3.227-7.26-4.028-11.286-5.374
			c1.883,1.879,4.026,3.495,5.91,5.64c1.881,2.685,3.493,5.912,5.106,8.865c2.149,4.03,2.685,8.865,4.296,13.165
			c2.421,5.104,1.884,11.014,3.495,16.118c1.071,1.879,2.415,4.028,4.564,4.838c4.836,2.151,10.211,2.685,15.047,4.836
			c-1.613-2.685-3.491-5.376-5.106-8.331c-2.151-4.03-5.374-6.985-7.789-10.474c-3.763-4.839-4.838-11.286-7.255-16.924
			C611.844,457.354,610.234,452.518,606.744,449.297z"/>
		<path fill-rule="evenodd" clip-rule="evenodd" fill="#FFFFFF" d="M600.564,456.278c-1.881-3.49-5.106-6.18-8.329-8.324
			c-0.542,1.074-0.806,2.415-1.341,3.49c6.979,6.18,10.74,15.314,12.085,24.445c0.536,3.76,0.27,7.791-1.879,11.286
			c-0.536,0.805-1.616,1.613-1.616,2.685c0.272,3.495,1.08,6.718,1.616,9.94c0.534,4.569,4.028,7.521,7.255,10.21
			c1.341-0.538,2.415-1.609,4.029-1.609c2.951,0.534,5.37,2.685,8.061,4.294c1.611-0.534,2.951-1.609,4.83-2.415
			c1.881-0.27,2.959,2.149,4.301,3.221c3.76,3.495,5.638,8.601,6.18,13.701c0,4.569-1.611,8.597-1.881,13.165
			c-0.272,2.149,1.339,4.297,3.49,4.564c1.344,0.27,3.493,0.81,4.839-0.533c1.341-2.957,2.415-5.914,2.951-9.137
			c0.808-3.49-0.266-6.983-0.266-10.744s-1.345-7.521-2.421-11.016c-0.803-3.76-2.685-7.253-5.104-10.206
			c-2.415-1.884-5.37-3.495-8.595-4.301c-6.18,0.27-13.435-0.804-17.196-6.445c-2.685-2.689-2.415-6.178-3.22-9.405
			c-0.54-4.564-1.344-8.865-2.151-13.429C605.394,464.879,603.249,460.577,600.564,456.278z"/>
		<path fill-rule="evenodd" clip-rule="evenodd" fill="#FFFFFF" d="M590.352,467.027c-1.611-3.493-3.76-6.18-5.908-9.135
			c-0.538,2.147-1.346,4.566-1.611,6.716c1.339,1.611,3.221,2.685,4.296,4.569c6.985,9.67,9.137,22.831,6.18,34.383
			c-0.536,2.687-1.344,5.374-2.415,8.059c2.145,1.074,4.026,2.419,5.91,3.495c2.147-3.763,1.069-8.331,1.069-12.627
			c-0.268-3.495-1.069-6.99-1.607-10.48C595.725,483.414,594.384,474.548,590.352,467.027z"/>
		<path fill-rule="evenodd" clip-rule="evenodd" fill="#FFFFFF" d="M547.372,446.608c-1.08,0.54-2.959,0.81-3.223,2.689
			c0,1.073,0,2.417,1.074,3.221c1.069,0.27,1.879,0.538,2.951,0.81C548.713,450.908,548.443,448.487,547.372,446.608z"/>
		<path fill-rule="evenodd" clip-rule="evenodd" fill="#FFFFFF" d="M543.607,446.07c-1.611-0.268-3.223-0.536-4.834-0.536
			c-0.268,1.614-0.54,3.225-0.268,4.564c0.806,1.616,2.149,2.691,3.223,3.765C540.922,450.908,542.265,448.219,543.607,446.07z"/>
		<path fill-rule="evenodd" clip-rule="evenodd" fill="#FFFFFF" d="M219.616,341.565c-3.489-4.03-4.026-9.672-7.254-13.969
			c-0.264,2.149-0.799,4.298-1.341,6.448c0.272,2.689,1.341,5.104,2.151,7.521c1.342,3.495,3.221,6.718,5.102,9.67
			c2.151,3.229,5.374,5.109,8.331,7.258c-0.272-3.493-1.076-6.718-2.151-9.94C223.647,345.595,221.5,343.714,219.616,341.565z"/>
		<path fill-rule="evenodd" clip-rule="evenodd" fill="#FFFFFF" d="M581.219,486.639c-0.806-2.959-1.881-5.64-2.685-8.601
			c-1.611,3.763-3.76,6.986-5.91,10.481c2.687,1.071,3.22,4.3,4.029,6.979c1.074,4.031,1.074,8.333,1.074,12.36
			c1.611-1.611,3.76-3.221,3.76-5.908c0.268-2.687,0-5.372,0-8.059C581.487,491.473,582.023,489.054,581.219,486.639z"/>
		<path fill-rule="evenodd" clip-rule="evenodd" fill="#FFFFFF" d="M208.335,344.254c-0.538-1.344-1.074-2.955-1.882-4.299
			c-1.071,6.45-0.536,12.895,0,19.341c0.27,0.808,0.27,1.614,0.808,2.151c4.568,5.374,10.476,9.403,16.12,13.165
			c3.761,2.685,6.713,6.445,9.671,9.94c-1.344-6.715-3.495-13.435-7.793-19.075c-2.957-4.029-8.059-5.91-10.746-9.941
			C211.829,352.045,209.682,348.284,208.335,344.254z"/>
		<path fill-rule="evenodd" clip-rule="evenodd" fill="#FFFFFF" d="M219.616,378.907c-3.759-2.417-7.519-5.102-11.28-7.791
			c0.806,2.419,1.074,5.109,2.419,7.525c4.836,3.761,11.014,6.445,13.699,12.357c0.806,1.614,1.342,3.76,0,5.374
			c-1.073,0.806-2.417,0.534-3.76,0.806c0.806,2.149,2.417,3.49,3.76,5.104c2.151,2.151,2.419,5.106,2.689,7.791
			c1.341-1.611,2.951-3.495,2.951-5.912c0-2.953,1.08-6.175,0.538-9.133C229.557,388.311,224.721,382.67,219.616,378.907z"/>
		<path fill-rule="evenodd" clip-rule="evenodd" fill="#FFFFFF" d="M219.888,391.536c-2.687-3.225-5.374-6.45-8.325-9.133
			c0.535,6.445,2.145,12.625,3.22,19.073c0.808,5.102,0.27,10.478,1.611,15.312c0.27,0.27,0.808,0.27,1.08,0.538
			c1.341-0.808,2.685-1.343,3.49-2.417c1.074-2.151,1.611-4.301,1.341-6.716c0-2.151-1.879-3.495-3.22-5.106
			c-1.882-2.149-3.493-4.834-2.957-7.789C216.393,393.416,218.273,392.612,219.888,391.536z"/>
		<path fill-rule="evenodd" clip-rule="evenodd" fill="#FFFFFF" d="M493.371,149.483c-2.419,0.537-5.104,1.074-6.45,3.493
			C489.341,152.437,491.76,151.634,493.371,149.483z"/>
	</g>
</g>
</svg>
