<?xml version="1.0" encoding="utf-8"?>
<!-- Generator: Adobe Illustrator 17.0.0, SVG Export Plug-In . SVG Version: 6.00 Build 0)  -->
<!DOCTYPE svg PUBLIC "-//W3C//DTD SVG 1.1//EN" "http://www.w3.org/Graphics/SVG/1.1/DTD/svg11.dtd">
<svg version="1.1" id="Layer_1" xmlns="http://www.w3.org/2000/svg" xmlns:xlink="http://www.w3.org/1999/xlink" x="0px" y="0px"
	 width="800px" height="600px" viewBox="0 0 800 600" enable-background="new 0 0 800 600" xml:space="preserve">
<g>
	<g>
		<path fill="#333333" d="M595.725,199.304v0.278c-0.557,0-0.834,0-1.391,0c-2.225,1.391-3.893,3.06-5.841,5.007
			c-1.114,1.112-2.225,2.226-3.339,3.617c-1.391,2.782-2.225,6.119-2.225,9.736c0,2.503,0.277,5.285,0.557,7.789
			c0.277,0.278,0.834,0.834,1.111,1.112c-1.391,1.669-2.502,3.339-3.893,5.008c-11.407,13.631-23.368,26.427-35.887,38.667
			c-3.059-2.782-8.068-4.173-15.023-3.617c-3.893-3.894-7.509-8.067-11.127-12.24c-9.179-12.24-18.082-24.758-26.427-37.833
			c-5.564-8.623-12.238-16.691-19.473-23.923c0.837-1.391,1.948-2.782,2.505-4.173c1.391-2.226,1.948-4.451,2.225-6.677
			c1.391-11.127-3.339-16.412-13.909-15.856c-0.557,0.278-0.834,0.278-1.391,0.556c-0.277,0-0.557,0-0.557,0.278
			c-1.945,1.112-3.616,3.06-5.007,5.008c-2.502,3.337-3.339,6.955-2.502,11.127c-0.557,0.277-0.837,0.834-1.391,1.112
			c-0.837,0.556-1.671,1.669-2.228,2.782c-0.277,0.556-0.554,0.834-0.554,1.112c-7.234,6.121-14.189,12.518-20.587,19.751
			c-3.896,4.173-7.789,7.51-12.241,10.849c-1.391,0.834-2.502,1.948-3.893,2.782c-7.789-10.293-15.58-20.864-23.368-30.878
			c1.671-5.285,3.062-10.57,4.173-15.856c0.557-3.339,0.557-6.677,0.28-10.015c-0.557-1.112-1.391-1.669-2.505-1.948
			c-6.955-0.834-13.909-1.112-20.864-1.391c-5.564,0.557-10.293,2.782-14.466,6.955c-0.277,0.278-0.277,0.557-0.277,0.835
			c0.557,0.556,0.834,1.112,1.391,1.668c0.277,0.278,0.834,0.557,1.391,0.835c0.557-0.278,0.834-0.278,1.391-0.278
			c0,0,0,0,0.277,0.278c0,0.278,0,0.556,0,1.112c0,0.557,0,1.391-0.277,1.948c0,0,0,0.277,0,0.556
			c-1.948,1.112-3.339,2.226-5.007,3.617c-9.736,7.789-19.196,15.577-28.654,23.089c-1.112-3.894-1.669-8.067-1.669-12.24
			c-0.557-1.112-1.391-1.669-2.503-1.948c-4.173-0.556-8.067-1.112-12.24-1.112c-0.557-0.834-1.114-1.669-1.669-2.225
			c-0.278,0-0.278,0-0.556,0.277c-0.557,0-1.391,0.557-1.948,1.114c0.277,0.277,0.277,0.277,0.277,0.277c-1.668,0-3.337,0-5.007,0
			c-1.948,0.557-3.616,1.391-5.564,1.948c0,0.278-0.557,0.557-0.557,0.557c-0.277,2.782-0.277,5.285,0,7.789
			c0,4.173,0.835,8.067,1.391,11.961c1.114,5.842,2.226,11.684,3.617,17.526c0.556,0.834,0.835,1.391,1.391,1.946
			c0,0.278,0.278,0.835,0.556,1.114c-10.57,12.795-21.141,25.592-31.99,38.667c-3.338,3.616-6.398,7.51-9.18,11.683
			c-0.278-1.391-0.556-2.503-1.112-3.616c-0.556-0.278-1.113-0.557-1.669-0.557c-1.669,0-3.338,0-5.007,0
			c-3.895,1.114-7.789,1.669-11.962,1.669c-8.345,0.278-15.3,2.503-20.864,6.955c0.278,2.226,0.278,4.173-0.278,6.121
			c-1.669,8.624-3.06,16.691-3.616,25.036c0.278,0.556,0.556,0.834,0.835,1.391c0.556,0,1.113,0.278,1.669,0.556
			c5.285-3.059,10.849-3.337,16.969-1.946c6.677,1.669,13.353,3.06,19.751,4.173c0.556-0.835,1.391-1.391,1.947-1.948
			c1.669-2.225,3.895-4.173,6.398-5.007c0.556-1.948,1.112-3.894,0.835-6.121c-0.278-7.789-1.113-15.578-3.06-22.81
			c0.556-0.835,1.391-1.391,2.504-1.669c0.557-0.278,1.113-0.557,1.669-0.557c10.015-11.961,19.752-24.201,29.209-36.442
			c4.173-5.285,9.459-8.901,15.3-10.57c2.782-0.834,5.564-1.669,8.068-2.225c0.557,0.277,0.834,0.834,1.112,1.112
			c0.278-0.278,0.556-0.557,0.835-0.835c0.277-0.277,0.277-0.834,0.556-0.834c3.337-0.834,6.676-1.669,10.015-2.225
			c0.557-6.955,0-13.632-2.505-20.308c-0.556-1.391-0.834-2.782-1.391-4.173c0.557-0.278,0.835-0.556,1.114-0.834
			c11.127-6.399,21.698-13.631,31.711-21.421c0.837,3.894,0.28,7.511-2.225,10.849c-0.277,0.278-0.277,0.557-0.277,0.835
			c0.277,0.556,0.834,0.834,1.391,1.112c5.284,1.112,10.847,1.112,16.691,1.112c0,0,0,0,0.277,0c0.28,0,0.834,0,0.834-0.278
			c3.339-0.277,6.4-0.556,9.459-1.112c1.391,2.503,3.059,4.73,4.73,6.955c3.339,4.451,6.675,8.902,10.013,13.075
			c2.505,3.337,5.287,6.676,7.789,10.015c-4.45,3.894-8.623,7.51-12.795,11.683c-4.173-5.285-9.459-7.233-16.134-5.842l0,0
			c-0.28,0.278-0.834,0.278-1.114,0.278c-1.391,1.112-2.502,2.503-3.616,3.617c-0.277,0-0.277,0.556-0.277,0.834s0,0.557-0.28,1.112
			c-0.557,2.226-1.391,4.451-1.948,6.676c-0.277,0.835-0.277,1.391-0.834,2.226c0,0,0,0.556,0,0.834c0,0.557,0,1.391-0.277,1.948
			c0,0.278,0,0.556,0,1.112c-1.114,0.557-1.948,1.391-2.505,1.948c-0.277,0-0.834,0.556-0.834,1.112
			c-5.007,23.089-10.57,46.178-16.968,69.546c-4.173,15.022-8.068,30.043-11.684,45.065c-2.225-1.391-4.73-2.503-7.789-3.059
			c-1.391,0.277-2.782,1.112-3.896,1.668c-5.841,3.06-8.623,7.79-8.623,13.632c-13.354,7.789-26.984,15.022-40.894,21.976
			c-11.684,5.842-22.255,12.797-31.434,20.864c-0.278,0-0.278,0-0.278,0c-3.06-1.948-6.955-3.06-11.962-3.339v0.278
			c-0.278,0-0.556,0-1.112,0.278c-0.278,0-0.278,0-0.278,0.278c-1.391,2.225-3.06,4.45-4.451,6.676
			c-1.391,1.946-2.782,3.337-4.451,4.451c0,3.337,0,6.676-0.278,10.013c0,3.06,0.557,6.121,1.669,8.624
			c-10.015,13.631-21.142,25.872-33.66,36.721c-2.782-2.503-6.955-3.339-11.962-2.782c0.278-3.339,0.278-6.676,0-10.015
			c-0.557-25.315-0.835-50.907-0.835-76.5c0-2.503,0-5.285,0-8.067c2.503-0.278,5.007-0.557,7.789-1.112
			c0.834,0.277,1.669,0.556,2.503,1.112c0.556-0.278,0.556-0.557,0.835-1.112c0,0,0-0.278,0-0.835
			c-0.278-0.278-0.278-0.278-0.278-0.556c0.278,0,0.278,0,0.556,0c2.782,0.556,5.286-0.278,7.511-2.226c0-0.278,0-0.278,0-0.834
			c0-1.112-0.557-2.226-1.391-2.782c-0.278-0.278-0.278-0.557-0.278-0.835c0.278-1.668,0.278-3.337,0.278-5.285
			c0.278,0.557,0.556,0.557,0.556,0.835c0.835,0,1.391,0,1.947-0.278c0-0.557,0.278-1.391,0.835-1.948c0-0.556,0-0.834,0-0.834
			c0-0.557-0.556-0.835-0.556-1.112c-1.391-1.391-2.225-2.505-3.616-3.896c-0.556-1.391-0.835-3.059-1.113-4.45
			c1.948-1.669,3.895-3.06,5.286-5.564c0.835-0.278,1.947-1.114,2.503-1.948c8.902-10.849,16.691-21.976,23.924-33.939
			c0-0.277,0-0.556,0-1.112c0-0.278,0-0.556,0-0.834c0.835-0.278,1.112-0.557,1.669-0.835c0.557,0,0.835-0.556,1.391-0.834
			c0-0.278,0-0.557,0-0.834c-0.834-1.391-2.225-1.669-3.895-2.226c0,0.557,0,0.557-0.278,0.557c-0.556,0-0.834,0-1.391,0
			c-0.278,0.556-0.834,0.834-0.834,1.391c-7.511,16.134-17.525,30.043-29.766,41.727c-0.834-2.782-1.947-5.285-2.782-7.79
			c-0.556-0.277-1.113-0.556-1.669-0.556c-3.338,0-6.398,0-9.458-0.278c0-9.179,0-18.639,0-28.097
			c0.278-25.036,0.557-50.073,0.835-75.388c0.278-25.592,0.556-51.185,0.556-76.5c0.278-25.313-1.113-50.073-3.616-74.552
			c-0.557-0.278-0.835-0.557-1.113-1.112c0,0,0-0.557,0-0.835c0-2.503-0.835-5.285-1.391-7.789
			c-0.556,7.511-0.556,15.857-0.278,25.315c0.278,9.458,0.556,18.916,0.834,28.374c0.557,25.315,1.113,50.63,1.391,76.5
			c0,25.315,0,50.351-0.834,75.388c-0.557,19.751-0.835,39.502-0.835,58.697c-4.173,0.278-8.068,1.669-11.406,3.894
			c-0.278,0.278-0.556,0.557-0.835,0.835c0,4.728,0,9.736,0,14.743c0,0.557,0,1.391,0,1.948c-0.278,0-0.278,0-0.278,0.277
			c0,0.278,0,0.835,0,0.835s0,0,0.278,0.278c0,3.894,0,7.51,0.278,11.404c3.617,2.505,7.789,4.173,12.24,4.73
			c0,18.082,0.278,36.164,0.835,54.246c0,13.909,0,28.097-0.835,42.006c-2.504,2.503-5.007,5.285-7.511,8.067
			c-0.278,0.278-0.835,0.557-1.112,0.834c0,0.557,0,1.114,0,1.669c-8.624,0.278-16.969,1.948-24.758,4.73
			c-1.113,0.278-2.225,0.556-3.338,0.834c9.18-0.278,18.36-0.556,28.097-0.556c0,1.391,0.278,3.059,0.835,4.45
			c1.391,3.617,3.338,6.399,5.842,7.79c0,1.391-0.278,3.06-0.556,4.728c-1.391,0.557-1.669,1.669-1.391,2.782
			c0.835,0,1.669,0,2.504,0c0.278-0.277,0.278-0.277,0.278-0.556c0-0.278,0-0.557,0-0.835c1.113-0.834,1.947-1.668,1.947-3.059
			c0.278-0.557,0.556-1.391,0.556-1.948c2.504,0.279,5.286-0.278,8.624-1.112c6.676-2.226,10.571-6.399,11.962-11.963
			c4.729,0,10.014,0.278,15.3,0.557c11.683,0.557,23.367,1.112,35.329,1.669c34.495,1.391,68.989,1.112,103.761-0.557
			c11.964-0.556,23.925-1.391,35.887-2.225c40.336-3.06,80.396-3.894,120.732-2.503c10.291,0.556,20.864,1.112,31.154,1.668
			c38.668,2.226,77.337,3.339,116.282,2.782c5.284,0,10.291,0,15.577-0.556c-13.909-1.391-28.375-2.226-43.118-2.782
			c-25.036-0.557-50.073-1.669-75.109-2.782c-15.023-0.557-30.043-1.112-44.786-1.948c-24.202-0.556-48.128-1.112-72.327-1.112
			c-1.391,0-2.505,0-3.896,0.278c-13.352,0.278-26.704,0.834-40.059,1.946c-14.743,0.835-29.209,1.948-43.672,2.505
			c-31.991,1.668-63.705,1.668-95.139,0.277c-15.578-0.556-31.156-1.112-46.734-1.112c-2.782,0-5.842,0-8.902,0
			c0-1.946-0.556-3.894-1.669-5.564c0-0.556-0.556-1.112-0.835-1.669c12.797-10.57,24.202-22.532,33.66-35.885
			c0.556,0.557,0.834,1.112,1.112,1.948c3.06,3.337,6.676,3.894,11.406,2.225c8.067-4.173,11.962-10.849,11.962-19.473
			c0-1.946,0-3.616-0.278-5.285c5.007-6.398,10.014-12.797,14.465-19.473c17.526-9.179,34.772-18.639,52.298-27.261
			c7.79,9.458,15.578,9.179,23.644-1.114c0-0.277,0-0.556,0-0.834c1.114-5.842,0.837-10.293-1.111-13.631
			c6.675-19.194,11.961-38.945,16.968-58.697c4.453-17.803,9.179-35.607,14.189-53.411c4.727,4.173,10.57,5.842,16.968,4.451
			c2.505-2.503,4.173-5.564,5.007-8.901c1.114-4.451,1.671-9.181,1.391-13.632c5.287-3.616,10.293-7.51,15.3-11.127
			c10.57,13.909,20.307,28.654,29.489,43.954c0.554,0,1.111,0.556,1.668,0.834c0.277,0.557,0.834,1.112,1.114,1.948
			c1.668,3.337,3.893,6.955,6.118,9.736c3.339,3.06,6.121,6.119,8.345,9.736c0,0.556,0,1.391,0.557,1.946
			c0,0.278,0,0.835,0.28,1.114c0.277,0.277,0.277,0.556,0.554,1.112c2.228,3.616,5.01,6.955,7.791,9.736
			c0.554,0.278,0.834,1.391,1.111,1.669c1.948,3.894,4.173,7.51,6.677,10.849c0.277,0.556,0.277,1.391,0.557,1.946
			c0.277,0.557,0.277,0.835,0.277,1.114c0.277,0.277,0.834,0.834,1.114,1.112c2.782,3.337,5.284,6.676,7.509,10.292
			c-0.277,0.835-0.277,1.391-0.277,2.226c-0.277,9.458,0.277,18.916,0.834,28.374c0.557,0,0.834,0,1.391,0c0,0,0.557,0,0.834,0
			c0-0.556,0.557-1.391,0.557-1.946c0.28-0.557,0.28-0.835,0.557-1.112c12.795,1.112,23.645-3.06,32.825-12.241
			c0.28-0.556,0.28-1.391,0.28-1.946c0.277-0.557,0.277-1.391,0.277-1.948c-0.277,0-0.834-0.556-1.114-0.834
			c-0.834-1.948-1.668-3.617-1.668-5.285c5.287-0.557,10.57-1.948,15.857-4.173c8.066-3.339,15.577-5.842,22.811-6.677
			c0.554,0.835,0.834,2.226,1.391,3.06c2.225,4.73,4.45,9.181,6.955,13.631c0.277,1.391,0.277,2.782,0,4.173
			c0,0.557,0,1.114,0,1.669c3.616,1.948,7.789,2.226,12.238,0.557c1.114,0.278,2.225,0.278,3.339,0c0-0.278,0-0.835-0.277-0.835
			c-0.28-0.277-0.28-0.277-0.28-0.277c2.505-1.391,5.007-2.505,7.512-3.617c2.225,1.669,4.173,3.339,6.398,4.73
			c0.557-0.278,0.834-0.835,1.391-0.835c0.28-0.277,0.28-0.556,0.557-0.834c-0.277-0.557-0.277-0.557-0.557-0.834
			c-1.391-1.391-2.502-2.505-3.616-3.896c1.391-0.556,2.505-1.112,3.896-1.946c5.284-1.948,6.955-5.842,5.007-11.963
			c-1.114-3.059-2.225-6.119-3.062-9.179c2.505-0.557,4.453-1.948,5.564-5.007c1.391-0.557,2.228-1.669,3.339-3.06
			c8.068-12.518,17.525-23.09,28.652-31.991c0.837-0.835,1.671-1.112,2.228-1.112c5.841,0,11.961,0,18.082-0.278l0,0
			c0.277,0.834,1.111,1.391,2.502,1.391c0.28-0.557,0.834-0.557,1.114-1.112c0.277,0,0.277-0.278,0.557-0.835
			c4.173-0.278,8.066-0.556,11.961-1.112c1.111-1.391,1.391-3.06,1.111-4.73c-0.277,0-0.277-0.556-0.277-0.834
			c-2.782-14.466-5.564-28.931-8.068-43.118c-0.554-0.278-0.834-0.557-1.391-0.557c-0.554,0-0.834,0-1.111,0
			c-1.391,0.557-3.339,1.114-5.287,1.391c-7.789,4.451-16.134,8.068-24.757,10.572c0,0.278,0,0.556,0,0.834c0,0.557,0,1.391,0,1.948
			c0,0.556,0.554,0.834,0.554,1.112c0.837,0.834,1.391,1.948,1.948,3.06c0,0.278,0,0.556,0,0.834
			c1.114,3.617,1.948,7.233,2.782,10.849c-1.391-0.556-2.502-1.112-3.339-1.668c-0.277,0-0.554,0-0.554,0
			c-0.557,0.277-0.837,0.277-1.114,0.556c-0.277,0.278-0.277,0.557-0.277,0.835c0.554,0.556,1.391,1.112,2.502,1.668
			c0.834,0.835,2.225,1.669,3.339,2.505c0,2.782,0.557,5.841,0.834,8.623c-0.277,0.278-0.557,0.278-0.834,0.557
			c-3.339,2.225-6.677,4.73-10.013,7.511c-1.114,1.112-2.228,2.503-3.062,3.337c-9.457,11.684-18.639,23.09-28.095,34.217
			c-1.391-5.287-2.782-10.85-3.896-16.135c-0.277-0.278-0.557-0.556-0.834-0.834c-1.668-2.782-3.896-3.339-7.232-2.782v0.278
			c-0.557,0-1.114,0-1.391,0c-10.573,4.45-19.753,9.458-28.655,15.022c-0.277,1.946-0.277,3.337-0.277,5.007
			c0,1.112,0,1.948,0.277,3.06c-10.57,3.894-20.864,7.511-31.434,10.57c-2.502,0.835-4.73,1.391-6.955,2.505
			c-3.893-5.842-6.955-12.518-9.179-19.196c0,0-0.557-0.556-0.834-0.556c-0.557-0.557-1.671-1.391-2.505-1.948v0.557
			c-0.557,0-0.834,0-1.111,0c-3.339,3.337-6.955,7.233-10.85,10.57c-0.557-0.834-1.114-1.669-1.668-2.225
			c-0.28,0-0.557,0-0.837,0.278c-0.277,0-0.834,0.556-1.391,1.112c0,0.278,0.557,1.391,0.837,1.669
			c0.277,0.556,0.554,1.112,0.554,1.391c-0.277,0.277-0.834,0.556-1.668,1.112c-4.73-6.955-10.013-14.466-15.023-21.699v-0.556
			c-2.782-4.173-6.118-8.067-8.9-12.24c-0.28-0.278-0.557-1.114-0.837-1.669c-4.45-7.233-9.457-13.909-15.02-20.864
			c-5.844-8.624-11.961-17.803-18.082-26.706c-5.007-6.955-10.016-13.909-15.023-20.585c13.909-11.127,26.984-23.645,39.502-36.999
			c0.557,0,0.834,0,1.668,0c0.557,0.557,0.837,0.835,1.114,1.114c3.059,2.503,6.121,3.616,9.736,3.894
			c5.564,6.398,10.85,13.352,15.577,20.585c13.355,20.03,27.264,39.502,42.007,58.14c-0.834,1.391-1.948,2.782-3.062,4.451
			c-2.782,3.894-3.616,8.624-3.059,13.352c4.173,5.564,9.736,7.233,16.968,5.287c6.4-1.669,9.736-5.564,10.85-11.406
			c0.557-4.173,0.277-7.79-0.557-10.293c8.068-7.233,15.857-14.743,23.368-22.255c3.893-3.616,7.232-7.233,10.293-11.127
			c2.502-3.337,5.007-6.676,7.232-10.292c5.007,4.45,10.293,4.173,16.414-1.114c4.727,0,7.789-1.946,8.623-6.398
			c1.391-4.73,1.391-9.736,0.834-14.743c-0.277-0.557-0.277-0.835-0.557-1.114C609.078,200.695,603.237,198.191,595.725,199.304z
			 M608.801,210.153c0,0.557,0,1.391,0,1.948c0,0,0,0.556,0,0.834c-0.557,0-1.114,0-1.391,0c-1.948,1.391-3.339,3.06-4.45,5.008
			c0,0.556,0,1.391-0.28,1.946c0,0.557,0,1.391-0.277,1.948c0,0.278-0.28,0.556-0.557,0.834c-0.277,0.278-0.834,0.835-0.834,1.112
			c-3.339,0.278-6.398,0-9.459-1.112c0,0,0-0.278,0-0.556c0.28-0.278,0.28-0.557,0.557-0.835c-0.557-0.556-1.114-0.834-1.391-1.112
			c-0.557-0.557-1.114-0.834-1.668-1.391c0-0.278,0-0.557,0-0.834c0-5.564,2.225-9.736,6.675-12.797
			C601.569,203.476,605.742,205.146,608.801,210.153z M640.791,246.873c0.834,0,1.948-0.278,3.339-0.835
			c5.284-1.668,10.57-3.894,15.857-6.955c0-0.277,0-0.277,0.277-0.277c0.557,0,1.114,0.277,1.391,0.556
			c0.277,0.278,0.277,0.557,0.277,0.557c0,0.834,0,1.391,0,2.225c0,0.557,0,1.112,0,1.948c0,0.556,0,1.391,0,1.946
			c1.391,3.339,2.228,6.955,2.505,10.572c0.277,0.834,0.277,1.669,0.277,2.782c-3.893-5.564-9.179-9.736-15.854-12.518
			c-0.28,0.278-0.837,0.278-0.837,0.556c-0.554,0.278-1.391,0.835-1.945,1.391c0,1.669,1.391,2.505,3.893,2.782
			c0.28,0.278,0.28,0.835,0.834,0.835c5.287,4.451,10.293,8.901,15.3,13.631c0.557-0.278,0.837-0.834,1.391-0.834c0,0,0,0,0,0.277
			c0,0.557,0,0.835,0,1.114c0.28,1.668,0.557,3.337,1.114,5.007c0,1.112,0,2.225,0,3.616c-0.834,0.278-1.948,0.278-2.782,0.557
			c-3.059,0.278-6.121,0.557-9.179,0.834c0-0.277-0.557-0.556-0.557-0.834c-3.339-3.06-6.677-5.285-10.013-7.789
			c0-1.391,0-3.06,0-4.451c-0.28-1.391-0.28-2.782-0.557-4.173c0.277,0.278,0.557,0.556,0.834,0.834
			c3.896,5.285,8.345,10.293,13.352,14.466c0.557,0,1.114-0.557,1.391-0.835c0.557-0.556,1.114-1.112,1.671-1.668
			c-0.28-0.278-0.557-0.835-0.837-0.835c-4.45-4.728-8.623-9.736-12.518-14.743c-0.554,0-0.834-0.557-1.391-0.835
			c-0.554-0.277-0.834-0.277-1.111-0.277c0-0.278-0.28-0.835-0.557-1.114c-0.557-0.556-1.114-1.391-1.948-1.946
			c-0.277,0-0.277-0.557-0.277-0.557c-0.28-0.278-0.557-0.556-1.114-0.834c-0.557-0.835-0.834-1.391-1.668-2.226
			C641.348,248.264,640.791,247.429,640.791,246.873z M470.823,172.876c0.277,0,0.554,0.278,0.554,0.557
			c0,1.946,0,3.894,0.557,5.841c0,3.339-0.557,6.399-1.948,8.902c-0.834,0-1.668,0-2.782-0.278c0-0.278,0-0.278-0.277-0.278
			s-0.557,0-0.834,0c-0.28,0-0.28,0-0.557,0s-0.557,0-0.834,0c-0.834-0.277-1.948-0.834-2.505-1.391
			c0.557-0.556,0.834-1.391,1.114-1.946c0.277-0.278,0.557-0.835,0.557-1.112c0-0.557-0.557-1.391-0.837-1.948
			c0-0.278-0.277-0.557-0.277-1.112c-1.114,0-1.948-0.557-2.782-1.112v-0.278c0.834-1.112,1.391-1.948,1.948-3.06
			c0.834-1.112,1.111-1.948,2.225-2.782c1.668-0.278,3.059-0.557,4.73-0.557C469.432,172.32,470.266,172.32,470.823,172.876z
			 M539.532,273.3l0.28-0.278c0.277,0.278,0.557,0.834,1.111,1.391c-1.391,1.112-2.502,2.225-3.893,3.616
			c-0.28-1.112-0.557-1.946-0.834-2.782c0.834-0.556,1.668-0.834,2.225-1.391C538.698,273.856,539.255,273.3,539.532,273.3z
			 M542.871,277.752c1.948,4.728,0.28,8.901-5.284,12.24c-3.896,0-7.234,0-10.85,0c-0.277,0-0.834-0.557-1.114-0.835
			c0-0.277-0.554-0.556-0.554-1.112c0-0.556,0-1.391,0-1.946c-0.28-3.06,1.111-5.842,3.616-8.345c0,0.556,0.277,1.112,0.557,1.668
			c0.554,1.114,1.111,2.226,1.668,3.06c0.557,0.557,1.391,0.557,1.948,0.835c1.111,0,2.225,0,3.339-0.835c0,0,0,0,0.277,0
			c0.277,0,0.557-0.278,1.391-0.556C539.532,280.533,541.203,279.143,542.871,277.752z M492.521,336.17
			c-0.28-0.835-0.557-1.669-1.114-2.226c0.557-0.556,1.391-0.834,1.948-1.391c3.339,5.285,6.955,10.572,10.57,15.857
			c0.557,0.278,0.834,0.556,1.391,0.834c0.28,0.278,0.557,0.278,0.834,0.278c0,0.278,0.28,0.834,0.557,0.834
			c0.557,0.835,0.834,1.391,1.671,2.226c1.668,0.556,3.336,0.278,4.727-0.278c-0.554-0.557-0.834-0.834-1.111-1.112
			c-4.73-6.955-10.016-13.909-15.58-20.585c2.782-2.226,5.564-4.451,7.791-7.233c1.111,0.556,2.225,1.669,3.336,3.894
			c2.505,3.894,4.453,8.067,6.4,12.24c-0.837,0.557-1.671,0.835-2.228,1.112c0.837,0.557,1.948,0.835,2.782,1.114
			c1.114,2.782,1.948,5.564,2.505,8.623c-3.896,2.782-8.068,5.008-12.518,6.121c-1.391-1.948-2.782-3.894-3.896-6.121
			c-0.554,0-1.111-0.277-1.391-0.556c-3.336-2.782-6.955-6.676-9.736-10.293c0.557,0,1.391-0.278,2.228-0.834
			c0.277-0.557,0.277-0.835,0.554-1.391C492.241,337.004,492.241,336.447,492.521,336.17z M562.067,323.929
			c-0.28-0.556-0.28-0.834-0.557-1.112c-0.277-0.278-0.277-0.834-0.277-0.834c0-0.557,0-0.835,0-1.112c0-0.278,0-0.835,0-1.114
			c0-0.277,0-0.556,0-0.834c0.554-0.278,0.834-0.557,1.391-0.834c4.173-2.226,8.345-4.173,12.518-5.842
			c4.173,8.345,10.57,15.3,19.473,20.307c1.111-0.556,1.668-0.834,2.502-1.391c0,0-0.277-0.556-0.277-0.834
			c-6.398-6.399-12.798-12.797-18.639-19.473c2.782-1.391,5.564-2.782,8.622-3.617c0.28-0.277,0.28-0.277,0.28-0.277
			c0.557-0.278,1.391-0.278,1.948,0v0.277c0.277,3.896,1.111,7.79,2.782,11.127c1.668,3.339,3.336,6.677,5.007,10.015
			c0,0.835,0,1.948,0.557,2.782c0.834,1.948,1.391,3.894,1.111,6.121c0,1.391-0.277,2.503-0.834,3.894
			c-2.782,0.834-5.287,1.948-7.789,2.503c-6.121-6.119-12.241-12.518-18.916-18.916c0,0-0.28,0-0.557,0
			c-0.557,0.278-0.834,0.278-1.114,0.278c-0.277,0.277-0.277,0.556-0.557,0.834c4.453,7.233,10.016,13.909,16.137,19.751
			c-2.505,0.556-5.287,1.391-8.068,2.225c-2.225-2.225-4.173-4.451-6.398-6.398c-0.557-2.226-0.834-4.173-1.114-6.399
			c-0.557-3.337-1.391-6.676-2.225-9.736c-0.557-0.277-0.834-0.277-1.391-0.556C564.291,324.486,563.178,323.929,562.067,323.929z
			 M489.182,347.019c0-0.835,0-1.391,0-2.503c1.948,3.337,4.45,6.398,7.789,8.901c0.557,1.669,1.671,3.06,2.505,4.173
			c-2.505,0-5.287,0.557-7.789,0c-0.28,0-0.28-0.278-0.557-0.556c-0.834-0.557-1.671-1.391-1.948-2.226
			C489.182,352.304,489.182,349.522,489.182,347.019z M650.528,275.804c0.277,0.278,0.557,0.557,0.834,0.834
			c-1.111-0.277-2.502-0.277-3.339-0.277c-0.277-0.278-0.554-0.278-0.554-0.557c-0.28-0.278-0.28-0.278-0.557-0.557
			c0-0.834,0-1.946-0.28-2.782C648.023,273.3,649.137,274.691,650.528,275.804z M301.688,192.071L301.688,192.071
			c0.278-0.278,0.278-0.278,0.556-0.278c2.505,0,5.008,0,6.955,0.278c3.617,6.399,7.79,11.127,12.518,14.188
			c1.391,6.121,2.782,12.518,4.73,18.639c-3.339-0.278-6.398-0.278-9.458,0.277c-4.451-5.007-9.181-10.013-13.909-14.743
			c-1.112-5.007-1.946-10.015-2.503-15.022c6.955,8.345,13.909,16.691,20.864,24.758c0.834-0.557,1.668-0.834,2.503-1.391
			c-0.278-0.278-0.278-0.557-0.278-0.834C316.988,208.483,309.755,199.861,301.688,192.071z M319.491,192.349
			c0.278,0.278,0.278,0.557,0.278,1.112c0.278,2.503,0.556,5.008,1.112,7.511c-1.948-2.782-3.894-5.842-6.121-8.902
			C316.432,192.071,317.823,192.071,319.491,192.349z M305.305,224.34c0-0.557,0-1.391-0.28-1.948
			c-0.277-1.946-0.556-3.894-1.111-6.119c2.782,3.337,5.841,6.676,8.623,9.736c-1.391,0.278-2.503,0.834-3.894,1.112
			C307.252,226.565,306.416,225.453,305.305,224.34z M389.037,167.313c0.277,1.112,0,2.225-0.277,3.616
			c-0.557,3.339-1.114,6.677-1.948,9.736c-3.896-4.728-7.789-9.179-12.241-13.631C379.577,167.034,384.307,167.034,389.037,167.313z
			 M384.587,187.62c-0.28,0-0.28,0-0.28,0c-0.834-1.668-2.225-2.782-4.173-3.337c0-0.278-0.557-0.835-0.557-1.112
			c-4.173-5.564-9.179-10.293-14.743-14.466v-0.278c1.114-0.278,2.225-0.278,3.339-0.834c0.557,0,1.391,0,1.948-0.278
			c0.277-0.278,0.557-0.278,0.834-0.278c0.557,0,1.114,0,1.668,0c-0.554,0.278-1.111,0.557-1.668,0.835
			c4.45,5.564,9.179,10.849,14.743,15.577c0,0,0.28,0,0.557,0C385.698,184.838,385.141,186.229,384.587,187.62z M379.3,189.846
			c-1.114,0.278-2.505,0.278-3.616,0.278c-1.114-0.557-2.225-1.391-3.339-1.948c0-0.278-0.557-0.557-0.834-1.112
			c-1.671-2.503-3.896-4.73-6.398-6.676v-0.278c0.277,0,0.554-0.557,0.554-0.835c0.28-0.277,0.28-0.556,0.557-1.112
			c-0.557-1.112-0.557-2.225-0.834-3.616c0-0.278,0-0.278,0-0.278C370.398,179.274,374.851,184.561,379.3,189.846z M369.007,190.68
			c-1.391,0.278-2.782,0.278-4.173,0.278c0.834-1.112,0.834-2.225,0.834-3.339C366.782,188.733,367.896,189.567,369.007,190.68z
			 M387.089,246.038c0,0.278,0,0.835,0.28,0.835c0.277,0.556,0.277,0.834,0.834,1.112c0.557,0,0.834,0,1.391,0
			c0.557-1.391,1.391-2.503,2.502-3.616c0,4.728-1.111,8.901-3.616,13.074c-2.225,0.557-2.502,0-1.391-1.946
			c-0.557-0.278-1.391-1.391-1.948-1.669c-0.834,0.278-1.668,0.834-2.225,1.391c-2.225,0.556-3.893,0-5.284-1.112
			c0-0.278,0-0.835,0-0.835c0-5.842,0.834-11.406,2.502-16.691c5.007-1.669,8.902-0.556,11.407,3.339c0,0,0,0.556,0.277,0.834
			C390.151,242.7,388.76,244.091,387.089,246.038z M224.075,296.946c0,0.278,0,0.278,0.278,0.278
			c4.173,5.007,8.624,9.179,13.909,12.518c-5.285-0.557-10.849-0.835-16.135-0.278C222.684,305.291,223.241,301.119,224.075,296.946
			z M225.744,286.097c0.556,0,1.391,0,2.226-0.278c1.947,3.337,4.451,6.676,7.511,9.458c3.338,3.06,6.398,5.842,9.18,8.902
			c5.285,5.564,10.014,6.955,14.465,3.894c-0.278-0.278-0.556-0.557-0.556-0.835c-10.015-6.119-19.195-13.631-27.262-21.976
			c2.504-0.278,5.285-0.556,8.067-1.391c1.669,1.948,3.616,4.173,5.286,6.121c4.451,5.007,9.18,7.233,14.465,7.233
			c0,1.391,0,2.503,0.278,3.894c0.556,1.946,0.556,4.173,0.278,6.676c-0.556,0.557-1.112,1.391-1.669,1.948
			c-0.835,0.556-1.391,1.391-1.948,1.946c-0.834,0.835-2.225,1.391-3.616,1.391c-1.948-0.556-3.895-0.834-5.564-1.391
			c-6.12-5.842-12.797-11.127-20.586-15.856c-0.278,0-0.278,0-0.556,0c-0.278,0-0.835,0-1.112,0.277
			c0,0.278-0.278,0.278-0.557,0.557c0.278-1.112,0.278-2.503,0.557-3.616C224.909,290.825,225.466,288.6,225.744,286.097z
			 M168.161,371.498c0-1.946,0-3.616,0-5.285c2.225,1.391,4.729,3.06,6.955,4.451c0,1.669,0,3.616,0.278,5.564
			C172.889,374.837,170.386,372.889,168.161,371.498z M168.161,363.153c0-2.225,0-4.173,0.278-6.398c2.225,0,4.173-0.557,6.12-0.835
			c0.278,0,0.278,0,0.556,0c0,3.617,0,6.955,0,10.293c0,0.278,0,0.278,0,0.557C172.889,365.379,170.386,364.265,168.161,363.153z
			 M168.161,379.288c0-0.835,0-2.226,0-3.06c2.225,1.391,4.729,3.06,7.232,4.728c-0.278,0.557-0.278,0.835,0,1.391
			C172.889,381.791,170.108,380.679,168.161,379.288z M180.122,356.198c0-0.278,0-0.278,0-0.556
			c1.947,0.277,4.451,0.556,6.955,0.834c0.556,1.112,1.112,2.503,1.669,3.894c0,0.557,0,0.557,0.278,1.112
			C186.242,359.537,183.461,357.589,180.122,356.198z M179.288,358.98c4.173,3.617,8.067,7.233,12.24,10.849
			c0,2.226,0,4.173,0,6.399c0,0.278,0,0.834,0,1.391c-4.173-2.782-8.067-5.564-12.24-8.345
			C179.288,365.934,179.288,362.319,179.288,358.98z M190.415,381.513c-1.669,0.557-3.617,0.834-5.286,1.112
			c-1.947-1.391-3.895-2.503-5.842-3.894c0-1.669,0-3.616,0-5.285C182.904,376.228,186.798,378.731,190.415,381.513z
			 M251.893,428.804c-0.556-1.112-1.113-1.948-1.669-3.06c2.225-1.669,4.173-3.616,5.842-5.842c0-0.277,0-0.277-0.278-0.277
			c0.835-0.557,1.391-0.835,2.225-1.391C255.788,421.571,253.841,425.188,251.893,428.804z M237.428,439.653
			c-0.556-0.834-0.835-1.669-0.835-2.782c-0.278,0-0.278,0-0.278,0c-0.278-0.834-0.556-1.946-1.113-2.782c0,0,0-0.278,0-0.556
			c1.948,0,3.616,0,5.564-0.278c0,0.278,0,0.278,0.278,0.278c0.556,0.556,1.391,0.834,1.947,1.391c0,0.834-0.278,1.946-0.278,2.782
			c-0.835,1.112-1.669,1.946-2.225,3.059c-0.835,0-1.669,0-2.504,0C237.984,440.488,237.706,440.21,237.428,439.653z
			 M252.45,281.089c0.278-0.278,0.556-0.278,0.834-0.278c0.557-0.277,1.391-0.277,2.504,0c0,0.278,0,0.278,0,0.557
			c0.278,0.278,0.556,0.557,0.835,1.112c0,0,0.278,0.557,0.556,0.835c0,0.556,0,1.112,0,1.668c0,0.278-0.278,0.835-0.556,0.835
			c0.278,0.278,0.556,0.278,0.834,0.278c0.557,3.337,0.835,6.955,1.391,10.292c-4.451-5.007-9.458-9.458-14.743-13.352
			C246.886,282.48,249.668,281.646,252.45,281.089z M326.724,386.798c-0.278-0.278-0.278-0.556-0.556-0.556
			c-0.557-0.557-0.835-1.391-1.114-1.948c1.391-0.557,2.782-1.112,3.616-2.503c0,0,0-0.557,0-0.835
			c-1.668-3.337-1.391-6.676,0.557-10.013c2.225-0.278,4.173,0,6.398,1.112c0.557,0,1.391,0,1.948,0
			c0.277,0.278,0.277,0.834,0.277,1.391c-0.277,0.278-0.277,0.834-0.277,1.391c-0.277,0.278-0.557,0.556-0.557,0.834
			c-0.557,1.391-1.391,2.782-1.948,3.894c-0.277,0.278-0.277,0.835-0.277,1.114c0,0.277,0,0.556,0.277,0.834
			c0,0.278,0.557,0.834,0.557,1.112c0.834-0.278,1.671-0.278,2.225-0.556c-0.277,0.556-0.277,1.112-0.277,1.668
			c-0.557,1.114-1.391,2.226-2.505,3.06C332.287,386.798,329.506,386.798,326.724,386.798z M233.533,451.337
			c-0.278-0.557-0.278-0.835-0.278-1.112c-0.278-0.278-0.556-0.835-0.556-0.835s0.278,0,0.556,0
			c0.556,1.112,1.391,1.948,2.504,2.782C234.924,451.892,234.089,451.337,233.533,451.337z M238.541,447.443c0,0,0-0.557,0-0.835
			s0-0.278,0-0.278c2.782-0.277,5.285-1.668,7.232-4.173c-0.278,1.391-0.556,3.06-1.112,4.73
			C242.435,448.277,240.488,448.555,238.541,447.443z M179.844,491.395c0.835,0,1.669,0,2.226,0.278c0,1.112,0,1.669,0.278,2.503
			c-0.834,0.557-1.391,1.112-2.225,1.669h-0.557C179.566,494.455,179.566,492.786,179.844,491.395z M188.189,488.613l0.278-0.278
			c0.278,0.278,0.278,0.278,0.556,0.278c-0.278,0.278-0.835,0.834-0.835,1.112C188.189,489.447,188.189,488.891,188.189,488.613z
			 M189.024,496.402c0.278-0.556,0.278-1.391,0.556-1.946c-0.278-0.278-0.278-0.278-0.278-0.557
			c0.835-0.556,1.948-1.391,2.782-1.946c1.113,1.391,1.391,2.782,1.391,4.728C192.084,496.402,190.415,496.402,189.024,496.402z
			 M188.189,501.41c0-0.557,0.278-0.835,0.278-1.112c1.391,0,2.782,0,4.173,0.277c-0.278,0.278-0.557,0.835-0.557,1.391
			c-4.729,3.339-9.18,5.008-13.909,5.008c0-0.557,0-1.112,0-1.669c1.113,0,2.225-0.557,3.616-1.112
			c-0.835-0.835-1.947-1.391-3.06-1.948c0-0.556,0-1.112,0.278-1.669c0-0.277,0.278-0.277,0.556-0.277c1.391,0,3.06,0,4.451,0
			c0.278,0.277,0.556,0.834,0.835,1.112c0.556,0.278,1.112,0.556,1.669,0.834C187.077,501.965,187.355,501.41,188.189,501.41z"/>
	</g>
</g>
</svg>
