<?xml version="1.0" encoding="utf-8"?>
<!-- Generator: Adobe Illustrator 17.0.0, SVG Export Plug-In . SVG Version: 6.00 Build 0)  -->
<!DOCTYPE svg PUBLIC "-//W3C//DTD SVG 1.1//EN" "http://www.w3.org/Graphics/SVG/1.1/DTD/svg11.dtd">
<svg version="1.1" id="Layer_1" xmlns="http://www.w3.org/2000/svg" xmlns:xlink="http://www.w3.org/1999/xlink" x="0px" y="0px"
	 width="800px" height="600px" viewBox="0 0 800 600" enable-background="new 0 0 800 600" xml:space="preserve">
<g>
	<g>
		<path fill="#333333" d="M581.998,379.22c4.81-10.221,7.816-21.047,10.823-31.269c3.007-7.819,5.415-16.84,6.014-26.459
			c2.408-40.894-6.612-79.38-27.061-114.86h-0.599c-0.605,0-1.204,0.602-1.204,1.201c-3.606-5.412-7.816-11.425-12.027-16.837
			c-3.007-4.211-6.014-8.418-9.619-12.629c-1.809-4.208-3.612-8.418-6.618-12.629c0,0-0.599,0-1.204,0
			c-0.599,0.602-1.198,0.602-1.803,0.602c0,0.602,0,0.602,0,1.204c-3.007-3.007-6.014-5.412-9.02-8.418c0,0,0-0.602,0-1.204
			c-0.599,0-1.204,0-1.803,0c-37.884-33.075-83.591-46.905-138.312-40.891c-72.163,7.214-122.679,43.296-152.142,109.445
			c-29.469,64.346-24.054,126.285,15.034,185.219c19.844,30.068,46.306,51.714,78.775,66.149l-4.211,0.599
			c76.373,22.251,146.134,7.819,209.277-43.898l9.619-1.204l23.455-28.262L581.998,379.22z M581.998,278.193
			c0-0.602,0-1.803-0.599-3.007c-1.809-6.014-4.211-12.027-7.217-17.439c-1.803-8.418-3.612-16.238-6.014-24.656
			c-0.605-1.803-1.204-3.609-1.803-4.81c-1.204-6.616-3.007-13.231-5.415-19.847c4.81,6.616,8.421,13.833,12.027,21.047
			c0.599,3.609,1.803,7.819,3.606,12.027c7.217,24.054,9.625,48.108,6.014,71.561c0-1.201-0.599-2.405-1.198-3.606
			c0-6.616-0.605-13.231-1.809-19.245c0.605-0.602,1.204-0.602,1.809-0.602c0-0.602,0.599-1.201,0.599-1.803
			c0-1.204,0-1.806,0-2.405C580.195,281.802,580.195,279.397,581.998,278.193z M578.392,332.917c0,1.201-0.605,2.405-0.605,3.007
			c-0.599-1.806-1.204-3.007-1.204-4.813c0,0,0.605,0,0.605,0.602c0.599,0.602,0.599,0.602,0.599,1.204
			C578.392,332.917,578.392,332.917,578.392,332.917z M580.794,350.356c-0.599,1.803-0.599,3.609-1.204,6.014
			c-0.599,0.602-1.198,1.803-1.803,2.405c0-0.602,0-0.602,0-1.201C578.991,355.166,580.195,352.761,580.794,350.356z
			 M572.978,349.152c0-2.405,0-4.81,0.599-6.613c0.605,0,0.605,0.599,1.204,0.599c0.605,0,0.605,0,0.605,0
			C574.78,344.944,573.577,346.747,572.978,349.152z M480.366,234.296c1.809-1.806,4.211-4.211,6.014-6.616
			c0,2.405,0.605,4.81,1.204,6.616c-1.204,1.201-2.402,1.803-3.606,3.007C483.373,236.098,482.175,235.496,480.366,234.296z
			 M477.36,206.031h0.605c-4.81,9.02-10.823,18.041-16.837,25.857c-0.605,0-0.605,0-0.605,0c-0.599,0.602-1.204,0.602-1.803,1.204
			c0,0.602,0,0.602,0,1.204c-3.606,4.208-7.218,8.418-11.428,12.626c0.605-0.599,0.605-0.599,1.204-1.201
			C457.516,232.49,467.141,218.66,477.36,206.031z M505.026,165.14c-0.605,0-0.605,0.599-0.605,0.599S504.421,165.14,505.026,165.14
			z M527.876,178.368c1.204-1.803,1.803-3.007,3.007-4.208c1.803,1.803,3.606,4.208,6.014,5.412
			c-0.599,3.609-0.599,7.816-1.204,11.425c-1.803-4.211-4.211-8.418-6.612-12.629C529.08,178.368,528.475,178.368,527.876,178.368z
			 M514.645,161.531c1.803,1.201,3.612,2.405,5.415,3.609c-4.211,5.412-8.421,10.823-12.632,16.837
			c-2.402,2.405-4.81,4.81-7.211,7.217C505.026,179.572,509.835,170.551,514.645,161.531z M509.835,157.922
			c0.599,0.602,1.204,1.204,2.408,1.803c-3.007,0.602-4.816,1.806-6.014,3.609C507.427,161.531,508.631,159.725,509.835,157.922z
			 M518.856,205.429c-0.599,0-0.599-0.602-1.204-1.201c-1.204,0-2.402,0-3.007,0c-0.599,1.201-1.204,1.201-1.803,1.803
			c-0.599-0.602-0.599-1.803-1.204-2.405c-1.803,0.602-3.007,1.803-4.211,1.803c0,1.806,0,4.211,0.605,6.014c0,0,0,0,0,0.602
			c-1.803,2.405-3.612,4.211-5.415,6.014c-1.204-1.803-2.402-3.609-3.606-5.412c6.014-7.217,12.027-14.432,18.041-21.649
			c1.204,6.616,3.007,12.629,4.81,19.245c0,1.201,0.599,1.201,0.599,2.405c-1.198,0.602-2.402,2.405-4.205,3.007
			c-0.605-1.204-1.204-2.405-1.809-3.609C517.652,209.639,518.257,207.833,518.856,205.429z M528.475,198.813
			c0-1.201,0-1.803,0-2.405s0-0.602,0.605-0.602c1.204,2.408,2.402,4.813,4.211,7.217c-1.204,1.204-1.809,2.405-3.007,2.405
			C529.679,203.626,529.08,201.221,528.475,198.813z M492.393,221.065c0-0.602,0.605-0.602,1.204-1.803
			c0.605,1.803,1.803,3.606,2.408,5.412c-0.605,0.602-1.803,1.803-2.408,3.007C492.998,225.275,492.393,223.469,492.393,221.065z
			 M506.229,226.476c0-0.602,0-0.602,0.599-1.201l0.599-0.602v0.602l0,0C506.828,225.874,506.828,226.476,506.229,226.476
			L506.229,226.476z M536.896,210.241c0,1.803,0,3.007,0.599,4.81c0,0.602,0,1.204,0,1.803c0,5.415,0.605,10.826,1.204,15.636
			c-1.803-6.616-4.211-13.228-6.612-20.446c1.204-0.602,2.402-2.405,3.606-3.609C536.297,209.037,536.297,209.639,536.896,210.241z
			 M543.509,187.99c0.605,0.602,0.605,0.602,0.605,1.204c1.803,8.418,3.606,16.837,5.409,26.459
			c-1.803-2.405-3.007-4.211-4.205-6.014c-0.605-0.602-1.204-1.204-1.204-3.007c-1.204-6.014-1.803-12.629-1.803-18.643
			C542.91,187.99,542.91,187.99,543.509,187.99z M503.822,153.113c-13.231,19.844-27.061,39.088-42.095,57.129
			c-22.85,28.864-43.898,58.932-62.543,90.802c-0.599-0.599-0.599-0.599-0.599-0.599c-0.599,0-1.204,0-1.204,0
			c-1.204,1.201-3.007,1.201-4.81,2.405c0,0.602,0,0.602,0,1.201c0,0.602,0,1.204,0,1.806s0,0.602,0,1.201c0,0.602,0,0.602,0,1.204
			c-0.599,1.803-0.599,3.007,0.599,3.609c0.605,0,0.605,0,0.605,0c0.599,1.803,0.599,3.007,1.204,4.81c-2.408,0-4.211,0-6.618,0
			c2.408,0,4.81,0.602,6.618,1.204c2.402,9.622,3.606,19.844,4.205,30.068c1.809,22.248,5.415,43.898,11.428,65.547
			c6.014,20.445,12.626,40.891,19.844,60.136c-22.85,3.609-46.905,3.007-72.762-1.204l-1.803-2.405l-27.061-3.609l1.198-2.405
			c-7.211-4.208-13.83-8.418-20.443-13.228c-59.537-40.894-84.795-96.819-76.972-167.781
			c7.211-68.554,43.898-115.459,108.843-141.918C400.387,118.232,454.509,121.841,503.822,153.113z M408.204,305.254
			c-0.599,0-0.599,0.602-1.198,1.204c0,0,0,0,0,0.599c-1.809-1.201-3.007-2.405-4.816-3.606c2.408-3.007,5.415-6.014,8.421-9.02
			c0,0.599,0,1.201,0,1.201s-0.599,0-0.599,0.602c0,0-0.605,0.602-0.605,1.204c1.803,1.201,3.007,1.803,4.81,3.007
			c0,0.599,0,1.201,0.605,1.201c0.599,1.204,0.599,2.405,1.204,3.609c0.599,0,0.599,0,1.198,0.602
			c-3.007-0.602-5.409-1.204-7.816-1.204C408.809,304.652,408.204,305.254,408.204,305.254z M400.992,310.064
			c-0.605,0-0.605-0.599,0-1.201c3.606,3.007,7.816,6.014,11.422,9.02c0.605,0,0.605,0.602,1.204,0.602
			c-3.606-0.602-7.816-1.204-10.823-1.204c-0.605-1.803-0.605-3.609-1.204-5.412C401.591,311.268,400.992,310.666,400.992,310.064z
			 M532.685,257.748L532.685,257.748c0.605,1.803,1.204,4.81,1.803,6.616h-0.599C533.29,262.557,532.685,260.153,532.685,257.748z
			 M539.903,283.605c0,0,0,0.602,0,1.204c-1.204-2.405-1.803-4.211-3.007-6.616c-0.599-1.803-0.599-3.609-1.204-6.014
			c0,0,0.605,0,0.605-0.602C537.495,275.789,538.699,279.397,539.903,283.605z M557.944,282.404
			c-1.204-2.408-1.803-4.813-3.007-7.217c-1.803-6.616-3.007-13.83-4.211-21.047C553.134,263.159,555.536,272.782,557.944,282.404z
			 M523.066,239.707c0,0.602,0,0.602,0,1.201c0,0,0,0-0.605,0.602c-0.599-3.007-1.803-5.412-2.402-8.418
			c0.599,2.405,1.204,3.609,1.803,5.412C522.461,238.503,522.461,239.105,523.066,239.707z M503.822,260.755
			c1.803-1.204,4.211-3.007,6.014-4.211c0.599,3.007,1.204,6.014,1.803,9.02c-1.803,0.602-3.606,1.806-4.81,3.007
			C505.624,266.166,504.421,263.761,503.822,260.755z M505.026,239.707c1.204,2.405,2.402,4.81,3.606,7.214
			c0,0.602,0,1.204,0.605,1.806c-3.007,1.201-6.014,3.007-8.421,4.81c-1.204-2.405-1.803-4.208-2.408-6.014
			C500.815,244.517,503.223,242.112,505.026,239.707z M497.808,285.411c-0.599,0-0.599-0.602-0.599-0.602
			c1.803-1.204,3.007-3.007,4.81-4.211c0,0.602,0.599,1.204,0.599,1.806C500.815,283.605,499.611,284.207,497.808,285.411z
			 M496.604,275.789c-1.204,0.602-1.803,1.803-2.402,1.803c-1.204-2.405-2.408-4.81-3.612-7.214
			c1.803-1.204,3.007-1.806,4.211-3.007c1.204,2.405,2.408,4.81,4.211,7.214C497.808,275.187,497.209,275.187,496.604,275.789z
			 M510.434,277.591c-0.599-1.201-1.198-1.803-1.198-2.405c1.198-0.602,2.402-1.803,3.606-3.007c0,1.204,0,2.405,0.599,3.609
			C512.243,276.391,511.039,276.989,510.434,277.591z M520.059,267.37c0.599,1.201,1.204,1.803,1.803,3.007
			c-1.204,1.201-1.803,1.201-3.007,1.803c0-1.204,0-2.405-0.599-3.609C518.856,268.571,519.454,267.37,520.059,267.37z
			 M521.263,282.404c1.803-0.602,3.007-1.806,4.205-2.408c4.816,15.636,9.02,31.874,12.632,48.108
			c-1.204-1.803-3.007-4.208-4.211-6.613C528.475,308.863,524.27,295.632,521.263,282.404z M515.849,286.612
			c0.599,3.007,1.204,4.813,1.803,7.217c-0.599,0-0.599-0.602-0.599-1.204c-0.605-1.803-1.803-3.007-2.408-5.412
			C514.645,287.214,515.25,286.612,515.849,286.612z M493.597,308.261c0.605,0,1.204,0,1.803-0.602
			c2.408,4.211,4.211,9.02,6.014,13.231C499.012,316.68,496.005,312.472,493.597,308.261z M505.624,302.85
			c1.803-1.204,3.007-2.405,4.81-3.007c5.415,14.432,11.428,28.864,18.646,43.296C520.059,329.911,512.842,316.68,505.624,302.85z
			 M508.631,295.03c-2.402,0.602-4.211,1.204-5.409,1.806c-0.605-0.602-1.204-1.204-1.204-1.204
			c1.803-1.201,3.606-2.405,5.409-3.007C507.427,293.227,508.032,293.829,508.631,295.03z M559.148,326.904
			c-3.612-13.231-7.217-27.061-11.428-40.292c1.803,3.007,3.007,6.014,4.81,9.02C554.338,306.458,556.74,316.68,559.148,326.904
			L559.148,326.904z M486.38,259.551c0.605-1.201,1.809-2.405,2.408-3.007c0.599,1.204,1.204,2.405,1.803,3.007
			c-1.204,0.602-1.803,1.806-3.007,2.405C486.985,260.755,486.985,260.153,486.38,259.551z M461.727,256.544c0,0,0,0.602,0,1.204
			c0-0.602,0-0.602,0-0.602C461.727,256.544,461.727,256.544,461.727,256.544z M468.944,248.126l0.599-0.602
			c0.605,1.204,1.204,2.405,1.803,3.609c-0.599,0.602-1.198,0.602-1.803,1.204C469.543,251.132,468.944,249.928,468.944,248.126z
			 M455.713,266.768c-0.599,0-0.599,0.602-1.204,1.803c-0.599,0-0.599-0.602-0.599-0.602c0.599-1.201,1.204-1.803,1.803-2.405
			C455.713,265.564,455.713,266.166,455.713,266.768z M479.767,267.37c-1.803,1.201-3.007,1.803-4.211,2.405
			c1.204-1.204,2.408-2.405,3.612-3.609C479.168,266.768,479.168,266.768,479.767,267.37z M485.182,278.795
			c-1.204-1.204-1.809-1.806-2.408-2.405c0-0.602,0.599-0.602,0.599-1.204C483.978,276.391,484.577,277.591,485.182,278.795z
			 M434.067,302.85c0-0.602,0-1.204-0.605-1.204c0.605,0.602,1.204,1.204,1.803,1.806
			C434.666,303.452,434.666,302.85,434.067,302.85z M446.094,292.625c0,0.602,0,1.204,0,1.204l0,0
			c-0.605-0.602-0.605-0.602-0.605-1.204C445.489,292.625,445.489,292.625,446.094,292.625z M415.421,295.632c0,0,0,0,0.605,0
			c0,0,0.599,0,0.599,0.602l0,0C416.026,296.234,416.026,296.234,415.421,295.632z M426.849,316.078
			c0.599,1.204,1.803,2.408,2.402,4.211c0.605,0,1.809,0.602,2.408,0.602c0.599,0,1.204-0.602,1.204-1.204
			c0.599,0,0.599-0.602,0.599-0.602c3.612,1.204,6.619,2.408,10.224,3.609c3.606,1.204,7.217,3.007,11.428,4.211
			c0.599,1.201,1.803,3.007,3.007,4.208h0.599c1.204,2.408,2.408,4.211,3.007,6.616c-1.803-1.201-4.211-2.405-6.014-3.609
			c-2.408-1.201-4.81-3.007-7.816-4.208v-0.602c-0.605-0.602-0.605-1.204-1.204-1.803h-0.599c-0.605,0.599-1.204,0.599-1.809,0.599
			c-4.205-1.803-9.02-3.606-13.225-5.412c-7.217-4.208-13.836-9.02-21.047-13.83C415.421,311.268,421.435,313.673,426.849,316.078z
			 M419.033,326.302c0,0.602,0,0.602,0,1.204c0,1.201,0,2.405-0.605,3.007c-0.599,0.599-0.599,1.201-1.204,1.803
			c0,0.602,0,1.204-0.599,1.803c-2.408,8.421-4.81,16.84-7.217,25.258c-2.402-13.231-4.81-26.459-6.613-39.69
			c4.211,0.602,7.816,1.806,11.422,3.007c2.408,1.204,4.816,1.806,7.217,3.007C420.231,325.7,419.632,325.7,419.033,326.302z
			 M423.842,326.904c0.599,0,1.204,0,1.803,0.602c4.81,3.007,9.619,6.014,15.034,9.02c-3.606,10.221-7.218,20.445-11.428,30.667
			c-4.81,13.231-7.816,26.462-8.415,39.69c0.599-0.602,1.204-1.201,2.402-1.803c0-0.602,0-1.204,0-1.806
			c8.421-21.646,16.238-42.694,22.856-64.343c1.803,1.201,3.606,1.803,5.409,3.007c21.047,9.02,40.891,19.242,59.537,30.67
			c-14.435,27.061-28.864,54.122-43.299,81.782c-4.81,3.007-7.217,7.217-8.421,12.027c-6.014,2.408-12.626,4.211-19.239,5.415
			c0.599-0.602,0.599-1.204,0.599-1.204c0-0.602,0-1.204,0-1.803c0.599-0.602,1.204-1.806,1.803-3.007
			c15.639-33.075,33.075-66.149,51.72-98.023c0-0.602-0.605-1.201-1.204-1.201c-0.605-0.602-1.803-1.204-3.007-1.204l0,0
			c-0.605,0.602-1.204,0.602-1.803,0.602c-0.605,1.201-1.204,2.405-1.809,3.007c-19.239,30.67-34.272,61.938-46.3,93.812
			c-0.605,0.599-0.605,1.201-1.204,1.803c-0.605,1.204-1.204,1.803-1.204,3.007c0,0.602,0.599,1.803,1.204,3.007
			c0,0.602,0.599,0.602,0.599,1.204c-1.204,0.599-2.402,0.599-3.007,0.599c-0.599,0-0.599,0-0.599-0.599
			c-3.007-9.622-6.619-19.847-9.02-30.67c0.599-0.602,1.204-1.204,2.402-2.405c0-0.602,0-1.204,0.605-1.204
			c10.823-28.265,23.449-54.724,39.088-79.38c0,0-0.605-0.599-0.605-1.201s-0.599-1.204-1.198-1.806c-1.204,0-1.809,0-2.408,0.602
			c-0.599,0-0.599,0-0.599,0c-0.605,1.204-0.605,1.806-1.204,2.405c-17.442,23.455-30.068,49.312-37.884,76.975
			c-5.415-20.445-9.625-40.894-13.231-61.941c-0.605-1.803-0.605-4.208-1.204-6.014c0.599-0.599,0.599-0.599,1.204-1.201
			c0-0.602,0-0.602,0.599-1.204c4.211-9.622,7.816-19.844,9.625-30.67c0.599-0.599,1.198-1.803,1.803-3.007c0-0.599,0-0.599,0-1.201
			C423.842,328.707,423.842,327.506,423.842,326.904z M487.584,292.625c0,0,0,0,0.605,0c-0.605,0-1.204,0.602-1.204,0.602l0,0
			C486.985,292.625,487.584,292.625,487.584,292.625z M475.557,292.625c-1.803,1.204-3.007,3.007-4.211,3.609
			c-1.198-3.007-2.402-6.616-4.205-9.622c1.198-0.602,2.402-1.201,3.007-1.803C471.951,287.214,473.754,289.619,475.557,292.625z
			 M478.563,310.064c1.803,0.602,4.211,0.602,6.619,0c4.81,10.826,10.218,21.047,16.232,31.272c1.204,2.405,2.408,4.81,3.612,7.217
			c-3.612-1.806-6.618-4.211-9.625-6.616C489.387,331.112,483.373,320.89,478.563,310.064z M452.107,296.836l0.599-0.602
			c2.408,3.609,4.211,8.418,6.612,12.027c-3.606-3.609-7.211-8.418-10.823-12.027C449.101,296.836,450.299,296.836,452.107,296.836z
			 M452.107,303.452c1.803,2.405,3.606,4.81,5.409,7.214c0,0.602-0.599,0.602-0.599,1.204c-2.408-3.007-4.211-5.412-6.014-8.418
			c-0.605-1.204-1.204-1.806-1.803-3.609C449.7,301.646,450.903,302.248,452.107,303.452z M476.761,342.54c0,0,0,0,0.599,0.599
			c-0.599-0.599-0.599-0.599-1.198-0.599C476.761,342.54,476.761,342.54,476.761,342.54z M489.387,356.37c0,0,0,0,0.605,0
			c1.204,0.602,2.402,1.803,3.606,2.405C492.393,358.173,490.591,356.972,489.387,356.37z M485.781,353.965
			c0,0.602,0,0.602,0.599,1.201c-6.612-3.606-13.225-7.214-19.844-10.823C473.155,347.349,479.168,350.958,485.781,353.965z
			 M468.339,340.132v-0.599c0.605-1.204,0.605-1.806,0.605-3.007c0,0,0,0,0.599,0.599c0.605,0.602,0.605,1.806,1.204,3.007
			c0.599,0.602,1.204,1.204,2.408,1.806C471.346,341.336,469.543,340.734,468.339,340.132z M561.549,355.768
			c0.605,0.602,1.204,1.204,1.809,1.204c0.599,1.201,1.198,3.007,2.402,4.208c0,1.806,0,3.609,0,4.813
			c-0.599,2.405-1.803,3.609-3.606,4.81c0-0.602,0-1.201,0-1.803C561.549,364.788,561.549,359.978,561.549,355.768z
			 M552.529,338.329c0.605,3.609,1.204,7.217,3.007,10.224c-0.599,1.803-0.599,3.606-1.198,6.014
			c-1.809-7.819-3.612-16.238-5.415-24.054C550.127,333.519,551.331,335.924,552.529,338.329z M548.923,370.802c0,0,0,0,0.599,0
			c0.605,0.602,1.204,1.204,1.809,1.806c0.599,1.201,1.198,2.405,1.803,3.606c-2.408-1.201-5.415-2.405-7.816-4.208
			c-0.605-0.602-0.605-0.602-0.605-1.204C545.917,370.802,547.12,370.802,548.923,370.802z M559.747,378.019v-0.602
			c1.803,0.602,3.612,1.204,5.415,1.204c2.402-2.408,4.81-5.415,6.612-8.421c0.605,0,1.803,0,2.408-0.599
			c-0.605,1.803-1.803,3.007-2.408,4.208c-3.007,6.014-6.612,11.425-10.823,16.84c-0.599,0-0.599-0.602-1.204-0.602
			c-1.803-1.806-3.606-3.007-5.409-4.813c1.803,0,3.007,0,4.81-0.599c1.803,0,3.007-1.204,3.606-3.609
			c-0.599-0.602-1.803-1.806-2.402-1.806c-0.605-0.599-1.204-0.599-1.204-0.599S559.148,378.621,559.747,378.019z M515.849,375.614
			c4.81,3.007,9.02,5.412,13.83,8.418c-5.409,11.425-10.823,21.649-16.837,32.473c-5.415,9.622-9.619,19.245-11.428,28.864
			c-10.823,7.819-22.85,13.833-34.877,18.643C485.182,435.75,502.019,406.281,515.849,375.614z M527.277,362.383
			c-1.204-2.405-2.408-4.81-3.612-7.816c-1.803-3.007-3.007-6.014-4.211-9.02c4.211,6.613,9.02,13.228,13.231,20.446
			C530.883,364.788,529.08,363.587,527.277,362.383z M541.107,392.451c3.606,2.405,7.217,4.81,10.823,7.217
			c-0.599,0.599-1.204,1.201-1.803,1.803l-3.007,0.602c-12.027,15.034-25.258,28.262-39.088,38.486
			c10.224-16.837,18.64-34.877,26.456-53.52c0,0.602,0.605,0.602,1.204,1.201C537.495,389.444,539.304,390.648,541.107,392.451z"/>
		<path fill="#333333" d="M269.293,195.207c4.211,1.803,7.816,4.81,10.224,8.418c5.409,7.816,10.224,10.823,15.633,9.02
			c-0.599-1.204-1.204-2.405-1.803-3.007c0-0.602,0-1.204-0.599-1.204c0-1.201,0-1.201,0-1.803
			c-1.809-0.602-2.408-1.204-3.612-2.405c-4.81-6.014-11.422-9.622-18.64-12.027c0,0.599,0,0.599-0.605,0.599
			c0,0.602-0.599,0.602-0.599,1.204C269.293,194.004,269.293,194.605,269.293,195.207z"/>
		<path fill="#333333" d="M303.571,222.867c-0.605,0-0.605,0-1.204,0c-1.204,0.602-2.408,1.204-3.606,1.806
			c2.402,2.405,4.81,4.81,8.415,6.014c0,0.602,0.605,1.201,0.605,1.803c2.402,4.813,6.014,6.616,10.218,6.014
			c-0.599-1.201-1.198-2.405-1.803-3.007c-1.204-1.803-1.204-3.007-1.803-4.81c-0.599-0.602-1.204-0.602-1.803-1.204
			C310.184,226.476,307.177,224.673,303.571,222.867z"/>
		<path fill="#333333" d="M331.231,257.748h-1.204c3.007,4.81,6.619,9.02,11.428,12.027c1.204,0.602,2.408,0.602,3.606,0.602
			c0.605,0.599,1.204,1.201,1.204,1.201c1.204,0.602,1.803,1.204,3.007,1.204c0,0,0-0.602-0.599-0.602
			C343.863,266.166,337.85,261.357,331.231,257.748z"/>
		<path fill="#333333" d="M366.109,289.619c-0.599,0-0.599,0.602-1.198,1.204c0.599,0.602,0.599,0.602,1.198,1.201
			c2.408,0.602,4.211,1.204,6.619,1.806c0.599,0.602,1.803,1.803,3.007,2.405c1.803,2.405,4.81,4.81,7.816,6.616
			c1.204,0,1.803-0.602,2.408-1.204c0.599,0,1.198,0,1.198-0.602c-0.599-1.201-1.198-1.803-1.803-2.405
			c-1.204-1.803-2.402-3.007-4.211-3.609c0-0.599-0.599-1.201-0.599-1.803c-0.599-0.602-0.599-0.602-1.204-1.204
			c-0.599-0.599-1.204-1.201-2.402-1.201c-2.408-1.204-5.415-1.806-7.822-2.405l0,0
			C367.918,289.017,367.313,289.619,366.109,289.619z"/>
	</g>
</g>
</svg>
