<?xml version="1.0" encoding="utf-8"?>
<!-- Generator: Adobe Illustrator 17.0.0, SVG Export Plug-In . SVG Version: 6.00 Build 0)  -->
<!DOCTYPE svg PUBLIC "-//W3C//DTD SVG 1.1//EN" "http://www.w3.org/Graphics/SVG/1.1/DTD/svg11.dtd">
<svg version="1.1" id="Layer_1" xmlns="http://www.w3.org/2000/svg" xmlns:xlink="http://www.w3.org/1999/xlink" x="0px" y="0px"
	 width="800px" height="600px" viewBox="0 0 800 600" enable-background="new 0 0 800 600" xml:space="preserve">
<g>
	<polygon fill-rule="evenodd" clip-rule="evenodd" fill="#FFFFFF" points="258.509,367.039 301.466,366.796 300.884,449.214 
		262.873,449.741 	"/>
	<polygon fill-rule="evenodd" clip-rule="evenodd" fill="#FFFFFF" points="392.149,304.683 436.221,304.506 437.567,451.268 
		396.021,453.924 	"/>
	<path fill-rule="evenodd" clip-rule="evenodd" d="M530.654,135.827l-0.053,0.923c-0.112,1.847,11.4,10.867,12.972,15.59
		c0.924,0.056,2.768,0.165,2.657,2.011l-0.053,0.924c-3.749,0.702-12.655,10.365-16.513,12.916
		c-5.809,4.287-11.623,8.576-17.38,11.939c-4.835,3.419-11.624,8.575-16.516,12.917c-2.875,1.681-5.755,3.364-8.686,5.97
		c-1.901,0.814-7.66,4.178-7.824,6.949c-1.845-0.111-9.614,5.914-10.645,7.705c-1.955,1.737-8.636,5.046-11.517,6.728
		c-7.71,5.102-15.423,10.204-23.138,15.303c-6.734,4.233-16.348,10.149-23.085,14.381c-2.93,2.605-20.368,15.467-23.139,15.303
		c-0.107,1.846-11.62,8.575-11.62,8.575l-0.922-0.055c-1.145,3.638-24.989,15.195-28.846,17.746
		c-4.778,2.496-26.72,13.236-28.785,16.821l-2.768-0.164c-3.044,4.451-9.725,7.761-15.483,11.124
		c-5.756,3.366-10.591,6.783-16.35,10.148c-12.382,5.751-23.897,12.482-36.28,18.232c-22.92,11.61-48.774,25.826-72.507,35.535
		c0.759,2.826,3.85,13.199,6.51,15.21l1.033-1.793l0.923,0.055c-0.054,0.922-0.109,1.846,0.815,1.901
		c1.845,0.109,0.108-1.846,0.218-3.693c0.11-1.846,7.603-3.255,9.504-4.068c1.846,0.108,7.55-2.334,8.581-4.124
		c0.978-0.867,7.548-2.331,9.45-3.145c2.879-1.683,6.68-3.311,9.559-4.992l8.582-4.123c2.824-0.759,7.548-2.333,9.503-4.07
		c4.835-3.419,11.46-5.804,17.22-9.169c5.757-3.365,11.458-5.806,17.216-9.169c2.879-1.682,5.757-3.364,8.582-4.124
		c2.878-1.681,6.681-3.309,8.637-5.047c2.878-1.681,6.68-3.309,8.578-4.123c3.804-1.627,5.759-3.363,9.561-4.991
		c2.878-1.681,14.394-8.412,16.349-10.149l1.845,0.109c1.033-1.79,12.494-7.596,15.372-9.279c4.833-3.419,9.669-6.837,14.449-9.333
		c10.536-5.861,20.15-11.776,29.817-18.613c2.881-1.684,4.781-2.496,7.659-4.178c1.899-0.813,0.977-0.868,3.859-2.551
		c0.923,0.055,2.878-1.682,3.801-1.628c4.835-3.419,9.667-6.837,14.502-10.256c4.781-2.496,9.669-6.839,14.449-9.335
		c2.878-1.68,3.965-4.396,6.789-5.157c2.878-1.679,4.835-3.419,7.715-5.099c8.743-6.892,19.279-12.754,28.027-19.646
		c2.879-1.681,3.911-3.473,5.918-6.133c1.901-0.815,5.76-3.364,7.714-5.101c3.857-2.55,10.538-5.858,14.449-9.333l6.735-4.234
		c1.954-1.738,5.81-4.287,7.711-5.101c1.034-1.792,1.955-1.735,3.857-2.551c0.978-0.867,1.032-1.79,2.935-2.604
		c1.956-1.736,4.888-4.342,6.788-5.156c5.757-3.365,9.776-8.684,13.635-11.235c3.855-2.549,9.019-11.506,13.634-11.233l-0.055,0.922
		l2.713,1.088c-0.107,1.846,7.708,10.647,9.553,10.755c0.925,0.055,1.903-0.814,1.903-0.814c0.164-2.768-0.811-1.899-0.704-3.748
		c0.438-7.383,2.831-16.506,5.003-21.935c1.034-1.791,3.207-7.219,5.107-8.033c0.057-0.925,6.902-7.003,3.208-7.221
		c-0.923-0.055-1.845-0.109-2.826,0.758l-1.845-0.108c-1.844-0.11-1.735-1.957-3.582-2.066l-7.384-0.437
		c-0.925-0.055-0.979,0.868-1.901,0.813l-5.485-1.251l-0.977,0.869l-8.308-0.493l0,0c-0.923-0.055-0.923-0.055-1.791-1.033
		c-4.616-0.273-3.638-1.142-7.44,0.486l-0.924-0.055l-4.616-0.272l-2.715-1.088C532.501,135.937,530.765,133.981,530.654,135.827
		L530.654,135.827z"/>
	<path fill-rule="evenodd" clip-rule="evenodd" d="M604.376,189.292l1.844,0.109l12.057-0.213l0,0
		c2.77,0.164,3.583,2.067,7.275,2.284l4.616,0.273c2.769,0.165,2.876-1.681,3.801-1.628l2.769,0.165l-0.327,5.538
		c-0.491,8.31,2.489,20.528,1.943,29.759c-0.274,4.614,1.244,10.264,1.027,13.956c0.648,4.67,0.266,11.13,0.916,15.801
		c0.649,4.672-0.599,10.155,0.048,14.825c0.592,5.592,0.32,10.21-0.009,15.749c-0.381,6.461,0.324,10.207-0.006,15.746
		c0.652,4.669,2.167,10.319,1.894,14.933c-0.274,4.616-0.652,11.079-0.004,15.748c-0.277,4.615-0.604,10.153-0.985,16.617
		c-0.496,8.306-1.423,24-0.935,31.438c1.351,8.42,0.477,23.189-0.072,32.42c-0.327,5.538,0.323,10.209-0.004,15.747
		c-0.164,2.768-0.328,5.538-0.493,8.307c0.704,3.749-1.303,6.407-1.303,6.407c-0.221,3.693-1.308,6.408,1.461,6.572l-0.054,0.923
		l-1.846-0.111l0,0l-25.901-0.607l-3.692-0.218l0.382-6.462l0.923,0.054l0.22-3.692l-0.868-0.977
		c0.053-0.923,0.053-0.923,1.03-1.793l-1.791-1.031l0.054-0.923l0,0l0.057-0.923l0.922,0.054l0,0l-2.689-64.076
		c0.22-3.693,0.328-5.538,0.601-10.154c-0.704-3.746,0.492-8.308,0.71-12.001c-0.483-7.439-0.968-14.878-1.454-22.317
		c0.437-7.385-0.917-15.803-0.478-23.189c0.38-6.462,1.041-17.537,0.444-23.132c-0.543-6.517-1.895-14.935-1.457-22.316
		c0.274-4.616-0.543-6.518-1.246-10.264c0.109-1.847,0.547-9.233,0.711-12.001c0.437-7.385,0.875-14.771,0.389-22.21
		c-0.704-3.746,0.438-7.384-0.213-12.053C604.861,196.731,604.158,192.984,604.376,189.292L604.376,189.292z M600.901,185.379
		c-0.602,10.153,2.382,22.374,1.779,32.528c-0.384,6.461-0.657,11.076-1.038,17.54c-0.384,6.46,0.267,11.132-0.062,16.669
		c-0.273,4.616,1.242,10.264,0.861,16.726l0.973,14.879c1.516,5.649,0.265,11.132-0.119,17.594
		c-0.379,6.46,1.193,11.186,0.864,16.725c-0.6,10.153,1.514,21.394,0.856,32.473c-0.546,9.23-0.608,25.902,0.8,33.394
		c-0.274,4.616-0.765,12.925-1.039,17.54c-0.331,5.538,1.3,9.341,0.864,16.724c-0.274,4.617-0.658,11.08-0.062,16.671
		c0.815,1.901,0.212,12.057-0.007,15.748l0.814,1.901l5.539,0.328c5.538,0.326,10.21-0.323,14.879-0.971
		c5.536,0.327,12.813,2.61,16.615,0.983c0.329-5.538-1.189-11.186-0.917-15.801c0.327-5.538-0.265-11.132,0.116-17.593
		c0.603-10.153,0.445-23.132,1.156-35.133c0.272-4.617-0.104-13.902,0.985-16.617c0.219-3.693-1.135-12.109,0.115-17.595
		c1.526-10.098-0.481-23.184,0.177-34.263c0.162-2.77-0.158-12.978-0.917-15.802c-0.597-5.593-0.266-11.133-0.861-16.725
		c-0.651-4.67,0.656-11.076,0.059-16.671c-1.518-5.649-1.189-11.186-0.805-17.647c0.327-5.539-1.299-9.341-0.915-15.802
		c0.217-3.693-0.215-12.056-0.917-15.802c0.328-5.538-1.247-10.265-1.839-15.858c-0.65-4.669,2.663-13.736-2.875-14.064
		c-1.845-0.11-3.747,0.705-7.438,0.486c-3.693-0.22-6.406-1.306-9.175-1.472c-4.618-0.272-12.925-0.766-16.563-1.908
		L600.901,185.379z"/>
	<path fill-rule="evenodd" clip-rule="evenodd" d="M429.208,300.264c-1.85-0.109-2.881,1.684-3.804,1.628l-3.638-1.142l-3.802,1.628
		l-9.231-0.548l-1.845-0.108l-13.903,0.103l-3.91,3.474l-0.613,41.647l1.791,1.034l-1.033,1.792l0.375,9.286l0.869,0.978
		c-0.438,7.384-0.602,10.152,0.918,15.801c0.703,3.747,1.19,11.188,0.972,14.879c0.869,0.977,0.869,0.977,1.791,1.033
		c0.922,0.055,0.922,0.055,0.977-0.868l0.108-1.847l1.793,1.034l0.327-5.541l1.252-5.482c0.055-0.923-0.869-0.978-0.815-1.903
		l0.383-6.46c0.055-0.924-0.87-0.978-1.791-1.033l0.977-0.869l0.873-14.771l0,0c-0.813-1.899,0.162-2.768-2.604-2.933l1.088-2.715
		l0,0l-0.704-3.747c0.056-0.923-0.811-1.899-0.811-1.899l0.977-0.87c0.164-2.769-2.006-13.086-1.896-14.934
		c0,0,0.976-0.867,0.11-1.844l1.095-18.464c-0.87-0.976-0.925-0.054-0.815-1.901l0.922,0.056l11.078,0.656
		c3.692,0.218,4.562,1.196,7.385,0.437c1.845,0.111,7.495-1.408,7.495-1.408l4.613,0.273c1.847,0.109,2.716,1.087,3.585,2.065
		l1.033-1.791l0.923,0.054c1.846,0.111,3.036,11.295,2.111,11.242l0.432,8.361l0.431,8.361l0,0l-0.383,6.462l0.433,8.363
		l-1.204,20.308l1.734,1.957l-0.922-0.055l-0.054,0.924l-0.546,9.23l0.649,4.672l0,0l0.923,0.055l-0.054,0.921l-1.903,0.815
		l0.816,1.9l-0.328,5.538l0.868,0.978l0.321,10.21l-0.164,2.768l-0.98,0.87c1.684,2.878-0.435,7.384,2.279,8.472l-0.978,0.869
		l-1.308,6.406l2.77,0.165l-1.9,0.812l0.704,3.749l-0.436,7.384l0,0c-0.055,0.924,0.868,0.978,0.811,1.9l-0.327,5.541l0,0
		c-0.056,0.922-1.033,1.79-1.088,2.713c0,0,0.868,0.977,1.792,1.034l2.879-1.682l0.219-3.693l-1.681-2.879l0.976-0.869
		c0.924,0.057,0.924,0.057,1.034-1.79l0.055-0.923c0.053-0.922,0.053-0.922-0.816-1.9l0.98-0.869l-1.791-1.031l0.109-1.847
		l1.846,0.108l-0.761-2.823c0.055-0.924,1.031-1.791,1.031-1.791c0.111-1.847-0.868-0.979-0.813-1.904l0.172-18.516
		c0.055-0.921,0.055-0.921,0.108-1.846c0.056-0.923-0.811-1.9-0.811-1.9l1.094-18.462l-1.738-1.954l1.901-0.815l0.054-0.923
		l-1.792-1.033l1.033-1.791l-0.055,0.922l-0.539-6.516l-2.716-1.088l2.771,0.164l-0.43-8.362l-0.927-0.053l1.958-1.736l-0.868-0.978
		c0.109-1.847,0.109-1.847,0.165-2.77c0.053-0.922-0.817-1.899-0.817-1.899c0.111-1.847,0,0,1.034-1.792
		c-1.682-2.88-0.916-15.802,0.172-18.519l-0.869-0.976l1.031-1.791l-0.65-4.669c0.923,0.053,0.978-0.869,0.978-0.869
		c0.108-1.847,0.108-1.847-0.759-2.824l1.088-2.715l-0.923-0.055c0.977-0.868,0.977-0.868,1.031-1.792
		c0.165-2.768-0.592-5.594-0.539-6.515l-0.486-7.441l1.957-1.736c-2.714-1.087-1.682-2.881-5.429-2.175
		C431.921,301.352,432.898,300.482,429.208,300.264L429.208,300.264z"/>
	<path fill-rule="evenodd" clip-rule="evenodd" d="M505.187,268.64l-1.9,0.812l0.869,0.977l1.845,0.11l-0.383,6.462l0.111-1.847
		c-2.823,0.758-2.174,5.43-1.415,8.254c1.844,0.109,2.657,2.008,2.549,3.855c-0.055,0.923-0.055,0.923-0.98,0.869l-1.733-1.955
		l-0.111,1.846c-0.111,1.846-0.111,1.846,0.758,2.823l0.977-0.869l-0.166,2.77l-1.899,0.813l0.65,4.67l0,0l0.98-0.868l-0.057,0.922
		l-0.977,0.869l1.574,4.725l-1.848-0.11l0,0c0.76,2.824,2.012-2.66,1.521,5.647l-1.793-1.033c-0.055,0.924-0.055,0.924-0.112,1.847
		c-0.107,1.846,0.816,1.901,0.597,5.592c-0.055,0.923,0.924,0.054,0.814,1.901l-0.053,0.924c-0.055,0.922-0.925-0.055-1.033,1.79
		l0,0c-0.111,1.847,0.812,1.902,0.704,3.748c-0.054,0.922-0.054,0.922-1.035,1.791l1.792,1.034
		c-0.055,0.923-0.977,0.869-1.032,1.791l-0.053,0.923c-0.11,1.845,1.681,2.88,1.681,2.88l-0.165,2.769l-1.031,1.79
		c-0.055,0.924,0.87,0.978,0.814,1.901l-0.165,2.77l0.924,0.054l-1.251,5.485l0.923,0.055l-1.087,2.713l0.813,1.901
		c-0.922-0.055-0.922-0.055-0.976,0.869l-0.057,0.923c-0.109,1.845,0.87,0.977,0.815,1.9l-0.979,0.869l0.321,10.209
		c-0.056,0.922-1.033,1.791-1.088,2.715c-0.054,0.923,0.87,0.978,1.739,1.955l-1.033,1.793l-1.142,3.637
		c-0.056,0.923,0.869,0.978,0.814,1.901l0.323,10.209l0.868,0.977c-0.977,0.868-0.977,0.868-1.033,1.793l-0.219,3.691l0.814,1.901
		l-0.218,3.692l2.767,0.166l-0.055,0.922l-2.821,0.759l0.486,7.44l0.868,0.976c-0.978,0.869-0.978,0.869-1.032,1.793l-0.057,0.923
		c-0.053,0.922,0.705,3.747-0.273,4.615l0.595,5.593c-0.108,1.846-1.033,1.792-1.089,2.714l0.598,5.595
		c-0.054,0.922,0.812,1.9,0.812,1.9c-0.054,0.923-0.108,1.846-1.086,2.716l0.867,0.976c-0.219,3.693,0.815,1.901,1.628,3.803
		c-3.692-0.22-1.034,1.791-1.251,5.483l-1.034,1.792c0.868,0.977,0.868,0.977,0.815,1.9c-0.162,2.769-10.263,1.247-13.031,1.081
		c-0.981,0.869-0.981,0.869-1.901,0.815l-0.923-0.054l-10.157-0.603l-2.769-0.164c-1.844-0.109-1.791-1.033-3.638-1.142
		l-1.845-0.109c-1.845-0.109-0.977,0.868-3.746,0.705l-1.302-9.342c0,0,0,0,0.111-1.846c0.054-0.923,0.109-1.844-0.813-1.9
		l0.055-0.923c0.923,0.054,0.923,0.054,0.977-0.869l0.109-1.845c0.109-1.847-0.758-2.824-1.625-3.803l1.898-0.815l0.384-6.461
		c0.053-0.923-0.869-0.978-0.814-1.901l0.164-2.769l-0.868-0.977l1.361-7.33l0.328-5.539c0.055-0.924-0.816-1.9-0.763-2.823
		c0.056-0.923,1.035-1.791,1.035-1.791c0.055-0.923-0.869-0.978-0.813-1.901c0.054-0.924,0.977-0.869,1.031-1.791
		c-0.812-1.901-0.969-14.88-0.86-16.727c0.054-0.922,0.054-0.922,0.11-1.845l0.274-4.615l0.93-15.695l-0.816-1.899l1.752-29.54
		l0.169-18.516l0.6-10.156l0.165-2.768l0.164-2.769l0.22-3.693c0.215-3.692-0.433-8.364,0.656-11.076l-0.868-0.978
		c0.054-0.921,0.976-0.868,1.032-1.79l0.055-0.927l-0.432-8.361l6.516-0.539l2.769,0.164c6.465,0.383,6.465,0.383,12.055-0.213
		c4.67-0.646,8.42-1.353,12.112-1.134L505.187,268.64z M506.549,261.308l-13.957,1.026c-3.691-0.218-19.329-2.071-21.394,1.514
		c-0.923-0.056-0.923-0.056-1.848-0.112c-0.922-0.053-0.053,0.923-1.901,0.813l-0.113,17.595l-0.165,2.768
		c-0.054,0.924-0.979,0.87-1.034,1.792l-0.055,0.923c-0.054,0.924,0.87,0.978,0.813,1.9c-0.326,5.539,0.378,9.286,0.048,14.825
		c-0.219,3.692-1.141,3.638-1.25,5.485l-0.381,6.461l0.922,0.054l-0.109,1.846l-0.868-0.978l-0.164,2.769
		c-1.032,1.792-2.229,6.354-2.34,8.199c-0.054,0.923-0.054,0.923,0.868,0.978l2.011-2.659l-0.054,0.922l-0.055,0.922
		c-0.108,1.847,0,0-1.033,1.794l0.924,0.053l-0.327,5.539c-0.924-0.056-0.924-0.056-1.032,1.792l-0.165,2.768l-0.054,0.923
		l-0.057,0.924c1.686,2.879,0.597,5.593-0.544,9.231c0.866,0.976,0.866,0.976,0.814,1.9l-0.604,10.153l0.925,0.054l-0.165,2.77
		l0.704,3.746l-1.031,1.792l0.813,1.901l-0.923-0.054l-1.085,2.713l0.812,1.901l-0.438,7.387l0.869,0.976
		c-0.164,2.77-1.251,5.485-0.435,7.387c-0.111,1.844-0.22,3.69-0.384,6.46c-0.33,5.539,0.375,9.284,0.048,14.825l-0.056,0.922
		l-0.168,18.517l0.868,0.978c-0.976,0.868-1.031,1.792-1.141,3.638l0,0l-0.439,7.384l0.814,1.901l-0.273,4.614l1.844,0.109
		l-1.032,1.794l-0.054,0.923l27.803-0.207l0,0c0.922,0.055,0.87,0.978,2.714,1.089l0,0c1.845,0.109,0.976-0.871,1.9-0.817
		l10.211-0.32l7.439-0.485l-1.52-5.648l-0.922-0.055l-0.22,3.693l-0.813-1.902c-0.922-0.054-2.822,0.759-2.768-0.164l2.12-4.505
		l-1.63-3.803l2.012-2.659l0.485,7.439l1.789,1.033c0.056-0.923,0.056-0.923,0.11-1.845l0.054-0.923
		c0.056-0.924-0.594-5.596-0.484-7.44c0.109-1.847,1.306-6.407,1.415-8.254c0.163-2.768-1.024-13.956-2.82-14.987
		c0,0-0.975,0.869-0.053,0.922l0.919,15.803l-0.922-0.054l-0.111,1.845l0.597,5.593l-2.718-1.088l1.034-1.791
		c-0.87-0.978-0.87-0.978-0.815-1.9l0.054-0.924l1.902-0.814l0,0l-1.574-4.726l0,0l-0.922-0.054l1.088-2.714l0.384-6.464
		l-0.924-0.054c0.054-0.922,0.108-1.846,0.108-1.846c0.11-1.844-0.922-0.054-0.759-2.823l1.847,0.108l0,0l-1.792-1.032l1.362-7.33
		c0.054-0.924-0.815-1.901-0.759-2.824c0.055-0.922,1.031-1.791,1.031-1.791l-0.869-0.979l-0.485-7.438l0.977-0.869l1.793,1.033
		l0.162-2.769c0.057-0.923,0.057-0.923-0.811-1.901c-0.056,0.924-1.957,1.738-1.847-0.108l1.141-3.638l-1.846-0.109l0.054-0.923
		c3.586,2.065,1.47-9.177,1.69-12.868l-0.815-1.901l0.383-6.461c0.22-3.692-0.54-6.518-0.431-8.363l1.47-9.176l-1.793-1.034
		l1.033-1.792l0.767-12.922l-1.681-2.879l0.923,0.053l1.141-3.637l-0.869-0.977c0.165-2.769-0.649-4.67,1.253-5.485l-1.465-6.57
		c0.924,0.053,0.978-0.87,0.978-0.87c0.055-0.922-0.704-3.747-0.543-6.515c0.111-1.847,0.166-2.77,1.143-3.637l-0.814-1.903
		l-0.65-4.669l1.033-1.792c0.054-0.922-0.865-0.977-0.811-1.901l0.109-1.845c0.107-1.846,0,0,0.976-0.87
		c-0.869-0.976-0.869-0.976-0.814-1.899l0.053-0.925c0.057-0.922,1.958-1.735,2.066-3.58c0,0-0.869-0.978-0.813-1.902l-1.9,0.815
		l0.163-2.77c2.991-3.53,4.945-5.266,1.58-11.021l0.055-0.925l-1.682-2.878L506.549,261.308z"/>
	<path fill-rule="evenodd" clip-rule="evenodd" fill="#FDFEFF" d="M504.539,263.969c-3.692-0.219-7.442,0.488-12.112,1.134
		c-5.59,0.596-5.59,0.596-12.055,0.213l-2.769-0.164l-6.516,0.539l0.432,8.361l-0.055,0.927c-0.055,0.922-0.977,0.869-1.032,1.79
		l0.868,0.978c-1.089,2.713-0.44,7.384-0.656,11.076l-0.22,3.693l-0.164,2.769l-0.165,2.768l-0.6,10.156l-0.169,18.516l-1.752,29.54
		l0.816,1.899l-0.93,15.695l-0.274,4.615c-0.055,0.923-0.055,0.923-0.11,1.845c-0.109,1.847,0.047,14.826,0.86,16.727
		c-0.054,0.922-0.977,0.867-1.031,1.791c-0.055,0.923,0.869,0.978,0.813,1.901c0,0-0.978,0.868-1.035,1.791
		c-0.053,0.923,0.818,1.899,0.763,2.823l-0.328,5.539l-1.361,7.33l0.868,0.977l-0.164,2.769c-0.055,0.923,0.867,0.978,0.814,1.901
		l-0.384,6.461l-1.898,0.815c0.866,0.978,1.734,1.956,1.625,3.803l-0.109,1.845c-0.054,0.923-0.054,0.923-0.977,0.869l-0.055,0.923
		c0.923,0.056,0.868,0.977,0.813,1.9c-0.111,1.846-0.111,1.846-0.111,1.846l1.302,9.342c2.769,0.162,1.901-0.815,3.746-0.705
		l1.845,0.109c1.847,0.109,1.794,1.033,3.638,1.142l2.769,0.164l10.157,0.603l0.923,0.054c0.921,0.054,0.921,0.054,1.901-0.815
		c2.768,0.166,12.868,1.688,13.031-1.081c0.053-0.923,0.053-0.923-0.815-1.9l1.034-1.792c0.218-3.692-2.441-5.703,1.251-5.483
		c-0.814-1.901-1.847-0.11-1.628-3.803l-0.867-0.976c0.977-0.87,1.031-1.793,1.086-2.716c0,0-0.867-0.978-0.812-1.9l-0.598-5.595
		c0.057-0.922,0.981-0.868,1.089-2.714l-0.595-5.593c0.978-0.868,0.22-3.693,0.273-4.615l0.057-0.923
		c0.054-0.924,0.054-0.924,1.032-1.793l-0.868-0.976l-0.486-7.44l2.821-0.759l0.055-0.922l-2.767-0.166l0.218-3.692l-0.814-1.901
		l0.219-3.691c0.055-0.925,0.055-0.925,1.033-1.793l-0.868-0.977l-0.323-10.209c0.055-0.923-0.87-0.978-0.814-1.901l1.142-3.637
		l1.033-1.793c-0.869-0.976-1.793-1.031-1.739-1.955c0.055-0.924,1.031-1.793,1.088-2.715l-0.321-10.209l0.979-0.869
		c0.055-0.923-0.924-0.055-0.815-1.9l0.057-0.923c0.054-0.924,0.054-0.924,0.976-0.869l-0.813-1.901l1.087-2.713l-0.923-0.055
		l1.251-5.485l-0.924-0.054l0.165-2.77c0.057-0.923-0.869-0.977-0.814-1.901l1.031-1.79l0.165-2.769c0,0-1.792-1.035-1.681-2.88
		l0.053-0.923c0.055-0.922,0.977-0.868,1.032-1.791l-1.792-1.034c0.981-0.869,0.981-0.869,1.035-1.791
		c0.108-1.846-0.815-1.901-0.704-3.748l0,0c0.107-1.845,0.977-0.868,1.033-1.79l0.053-0.924c0.111-1.847-0.869-0.978-0.814-1.901
		c0.219-3.691-0.704-3.746-0.597-5.592c0.056-0.923,0.056-0.923,0.112-1.847l1.793,1.033c0.491-8.307-0.761-2.823-1.521-5.647l0,0
		l1.848,0.11l-1.574-4.725l0.977-0.869l0.057-0.922l-0.98,0.868l0,0l-0.65-4.67l1.899-0.813l0.166-2.77l-0.977,0.869
		c-0.869-0.977-0.869-0.977-0.758-2.823l0.111-1.846l1.733,1.955c0.924,0.054,0.924,0.054,0.98-0.869
		c0.108-1.847-0.705-3.746-2.549-3.855c-0.759-2.824-1.408-7.496,1.415-8.254l-0.111,1.847L506,270.54l-1.845-0.11l-0.869-0.977
		l1.9-0.812L504.539,263.969z"/>
	<path fill-rule="evenodd" clip-rule="evenodd" d="M321.356,447.649l0.165-2.77l2.878-1.682l-1.627-3.802
		c1.089-2.714,0.109-1.845,0.273-4.615c0.109-1.846-0.65-4.669-1.574-4.724l1.144-3.638l-1.793-1.034l-0.758-2.824l1.846,0.108
		l0.107-1.844c0.056-0.924,0.056-0.924,1.035-1.793l-0.925-0.055l-1.679-2.877l0.922,0.055l1.956-1.737l-2.715-1.09l1.033-1.79
		l1.251-5.484l-1.736-1.956l1.031-1.792l-1.79-1.033l1.845,0.109c0.054-0.922,1.033-1.791,1.033-1.791
		c0.11-1.846-1.735-1.955-0.813-1.901l0.273-4.616l-1.846-0.109l0.977-0.869l0.22-3.691l-0.055,0.922l-1.736-1.954l0.054-0.923
		c0.923,0.054,1.791,1.033,1.847,0.109c0.164-2.77,0.217-3.693-0.596-5.594c0,0,0.976-0.869,1.033-1.792
		c0.054-0.922-0.814-1.9-0.759-2.823c0.054-0.924,0.054-0.924,0.977-0.869l-0.649-4.669l1.031-1.791l-0.923-0.056l0.11-1.846
		l-0.048-14.825l0.384-6.461c0.054-0.924-0.871-0.977-0.816-1.901c0.055-0.923,0.978-0.869,1.034-1.791l14.878-0.971l0.925,0.054
		c2.768,0.164,27.8-0.205,27.8-0.205c0.869,0.977,0.26,26.879,0.205,27.802c-0.055,0.923-0.055,0.923-0.108,1.846l-1.032,1.792
		l0.87,0.978l0.484,7.44l-1.195,4.561l0.319,10.209c-0.218,3.691-1.306,6.407-0.546,9.23c-0.165,2.77,0.594,5.593,0.43,8.364
		l0.326,10.21l0,0l-0.112,1.845c-0.054,0.924-0.108,1.846-0.108,1.846c0.703,3.747-1.143,3.638,1.408,7.495
		c-1.033,1.792-2.012,2.658-2.012,2.658c-0.107,1.846,0.87,0.978,0.816,1.901l-0.055,0.924c-0.054,0.922-0.054,0.922-1.031,1.791
		l0.594,5.593c0.868,0.977,0.813,1.902,0.757,2.824l-0.053,0.922l-2.878,1.682l-1.681-2.878l2.714,1.086l0.055-0.922
		c0.054-0.922,0.054-0.922-0.869-0.978l-0.924-0.054c-0.922-0.054-1.846-0.108-2.823,0.759l0.815,1.901l-1.848-0.109
		c0.979-0.87,1.088-2.714-0.758-2.823c-2.767-0.166-2.823,0.757-2.933,2.604l-0.925-0.055c0.111-1.846,0.111-1.846-0.814-1.901l0,0
		l-10.152-0.602c-1.845-0.108,0,0-0.922-0.054c-0.923-0.054-1.904,0.814-3.75,0.704l-3.692-0.219l-2.768-0.165l-5.595,0.596
		l-0.11,1.846c1.901-0.813,1.901-0.813,1.901-0.813c1.847,0.109,0.923,0.055,2.769,0.165c-0.219,3.693,0.055-0.922-1.033,1.791
		c-2.769-0.164-1.791-1.033-2.714-1.087c-1.846-0.109-0.924-0.055-2.826,0.758l0.111-1.846l0.924,0.055l-2.551-3.856
		L321.356,447.649z M321.356,447.649l-0.054,0.921l-0.924-0.054l-0.165,2.77c-0.053,0.922-0.976,0.869-1.03,1.791
		c-0.054,0.923,0.869,0.98,1.736,1.957l1.957-1.738l3.637,1.143c0.868,0.977,0.868,0.977,1.792,1.031l5.538,0.328
		c0.923,0.054,1.899-0.812,2.824-0.758l10.154,0.601l1.9-0.815c3.636,1.143,11.187-1.19,15.748,0.006
		c0.055-0.922,0.055-0.922,0.978-0.867l0.921,0.055c1.848,0.108,1.848,0.108,1.793,1.031c2.769,0.163,0.978-0.868,2.011-2.659
		l-0.868-0.981c0.976-0.865,0.976-0.865,1.03-1.788c0.055-0.924-0.922-0.054-1.791-1.034l0.108-1.847
		c0.056-0.922,0.979-0.867,1.035-1.788l0.055-0.924c0.164-2.769-0.815-1.901-2.551-3.857l1.845,0.11l0.111-1.846l-0.923-0.055
		l1.142-3.638l-0.925-0.054l1.088-2.715l-1.681-2.877l1.845,0.108c0.108-1.846-0.704-3.747-0.594-5.592
		c0.055-0.924,1.033-1.793,1.033-1.793l-0.43-8.361l-0.758-2.824l0.922,0.054c0.054-0.922-1.625-3.801-1.625-3.801
		c0.053-0.924,0.976-0.869,1.031-1.791c0,0-0.055,0.922,0.053-0.925l0.111-1.846c-1.792-1.031-0.703-3.747-0.486-7.438l0.978-0.869
		c0.054-0.922-0.87-0.978-0.815-1.901l-0.43-8.361l0.976-0.87l0.978-0.868l-1.79-1.033l1.087-2.714l0.435-7.385
		c0.055-0.922,0.055-0.922-0.812-1.901l0.165-2.77l0.977-0.868c-0.868-0.978-0.814-1.901-0.758-2.823l0,0
		c0.11-1.846,0.11-1.846,0.165-2.77c-0.543-6.515,1.906-16.562-0.592-21.34c-2.823,0.759-21.284-0.334-26.877,0.259
		c-3.692-0.218-9.231-0.547-12.056,0.213c-4.618-0.274-8.363,0.431-12.978,0.158c-0.165,2.769,0.812,1.902,0.704,3.746l-0.384,6.462
		l0.816,1.901l-1.847-0.108l-0.923-0.056l2.661,2.01c-0.055,0.923-1.035,1.792-1.035,1.792c-0.054,0.924,0.816,1.9,0.816,1.9
		l-0.109,1.847l0.758,2.823l-2.715-1.085l-0.055,0.922l1.793,1.033l0.923,0.055l-1.033,1.793l0.315,25.955l0,0l-1.031,1.79
		c0.758,2.826,0.594,5.596,0.431,8.364c0.648,4.669-1.253,5.484,3.418,4.834l-0.055,0.924l-2.878,1.681
		c0.705,3.746-0.553,24.979,2.161,26.065l-0.054,0.925l-0.922-0.055l0.647,4.669C321.63,443.034,318.643,446.562,321.356,447.649
		L321.356,447.649z"/>
	<path fill-rule="evenodd" clip-rule="evenodd" fill="#FDFEFF" d="M540.231,224.397l1.625,3.803l-1.303,6.408
		c-0.109,1.846-0.33,5.536-0.493,8.307c0.815,1.9,0.815,1.9,0.705,3.746c-0.055,0.924-0.112,1.847-0.221,3.693
		c0.598,5.593,0.268,11.133-0.06,16.67c1.19,11.185,0.532,22.263,0.857,32.474l0.464,54.681c-0.381,6.461,0.048,14.824-0.497,24.056
		c-0.438,7.383,0.048,14.823,0.476,23.185c-0.437,7.384,0.919,15.802,0.426,24.11c-0.274,4.615,1.354,8.417,1.19,11.186
		c-0.272,4.616,0.377,9.287,0.213,12.056l5.538,0.328c3.689,0.218,4.562,1.195,8.307,0.491c3.691,0.219,5.648-1.518,8.418-1.354
		c2.769,0.164,3.637,1.143,6.407,1.307c2.822-0.759,2.877-1.682,4.723-1.572l2.768,0.163l-0.539-6.515l0.055-0.923
		c0.054-0.924,0.11-1.846,1.088-2.715l-0.869-0.978c0.221-3.691-1.466-6.571-1.3-9.34c0.219-3.692,0.608-25.902-0.203-27.804
		l-0.27-11.132c0.109-1.845-0.811-1.9-0.757-2.822l0.976-0.869l-1.844-0.11c0.107-1.846,0.054-0.922,0.107-1.846
		c0.109-1.846,1.142-3.637,1.25-5.484l-0.867-0.977c0.108-1.846,0.054-0.924,0.108-1.846l1.307-6.408l-0.869-0.977
		c0.11-1.845,1.251-5.483-0.543-6.515l1.035-1.793l0.164-2.768c-0.87-0.98-0.87-0.98-0.761-2.824l0,0
		c0.055-0.924,0.055-0.924,1.032-1.792l-1.68-2.877l0.976-0.87l0.055-0.922l-0.377-9.286c-0.868-0.978-0.921-0.055-0.814-1.902
		l0.437-7.383l0.925,0.054l0.055-0.923l-0.925-0.056l0.164-2.769l0.925,0.055l-0.815-1.9l-0.923-0.055l1.087-2.714l0.868,0.978
		l-0.761-2.826l0.109-1.846l-0.646-4.669l0.327-5.538l-0.812-1.902c0.547-9.23-0.97-14.879-1.404-23.241
		c-1.572-4.725-0.698-19.495-0.424-24.113l0.053-0.921c0.057-0.922,0.057-0.922-0.868-0.977l0.822-13.848
		c-0.759-2.824-1.409-7.495-0.212-12.055c0.164-2.769,0.272-4.614-2.55-3.856c-2.824,0.758-2.77-0.165-6.462-0.385
		C556.847,225.382,548.539,224.89,540.231,224.397L540.231,224.397z"/>
	<path fill-rule="evenodd" clip-rule="evenodd" d="M298.728,407.403l1.628,3.801l-0.922-0.054l-1.034,1.792l0,0l2.879-1.682
		l0.543,6.516c-0.056,0.922-0.056,0.922-0.111,1.847l-1.9,0.814l-0.055,0.922l1.9-0.814c-0.108,1.846,0.815,1.901,0.815,1.901
		l-1.252,5.483l0,0l-0.108,1.847l2.77,0.165l1.14-3.638l-1.735-1.956c0.977-0.869,0.923,0.055,1.033-1.793l0.164-2.768
		c0.054-0.924-0.869-0.98-0.869-0.98c0.978-0.867,0.978-0.867,1.033-1.791c0.111-1.846-0.759-2.823-1.627-3.801l1.9-0.814
		c-0.869-0.977-0.923-0.055-0.815-1.901l0.108-1.845c-2.768-0.165,0.055-0.923-1.79-1.034c-0.924-0.054-1.846-0.109-1.846-0.109
		L298.728,407.403z"/>
	<path fill-rule="evenodd" clip-rule="evenodd" fill="#FDFEFF" d="M640.329,301.655c0.329-5.538-0.376-9.284,0.006-15.746
		c0.33-5.539,0.602-10.157,0.009-15.749c-0.648-4.67,0.6-10.153-0.048-14.825c-0.65-4.67-0.268-11.13-0.916-15.801
		c0.218-3.692-1.301-9.342-1.027-13.956c0.546-9.232-2.434-21.45-1.943-29.759l0.327-5.538l-2.769-0.165
		c-0.924-0.053-1.031,1.793-3.801,1.628l-4.616-0.273c-3.692-0.217-4.505-2.12-7.275-2.284l0,0l-12.057,0.213l-1.844-0.109
		c-0.218,3.692,0.485,7.439,0.265,11.133c0.651,4.669-0.491,8.307,0.213,12.053c0.485,7.439,0.047,14.825-0.389,22.21
		c-0.164,2.768-0.602,10.153-0.711,12.001c0.703,3.746,1.52,5.647,1.246,10.264c-0.438,7.382,0.914,15.8,1.457,22.316
		c0.597,5.595-0.063,16.67-0.444,23.132c-0.439,7.385,0.915,15.803,0.478,23.189c0.486,7.439,0.971,14.878,1.454,22.317
		c-0.218,3.692-1.414,8.254-0.71,12.001c-0.273,4.616-0.381,6.461-0.601,10.154l2.689,64.076l0,0l-0.922-0.054l-0.057,0.923l0,0
		l-0.054,0.923l1.791,1.031c-0.977,0.87-0.977,0.87-1.03,1.793l0.868,0.977l-0.22,3.692l-0.923-0.054l-0.382,6.462l3.692,0.218
		l25.901,0.607l0,0l1.846,0.111l0.054-0.923c-2.769-0.164-1.682-2.879-1.461-6.572c0,0,2.007-2.658,1.303-6.407
		c0.165-2.769,0.329-5.539,0.493-8.307c0.327-5.538-0.323-10.209,0.004-15.747c0.548-9.231,1.422-24,0.072-32.42
		c-0.489-7.438,0.439-23.132,0.935-31.438c0.381-6.464,0.709-12.002,0.985-16.617c-0.648-4.669-0.27-11.132,0.004-15.748
		C642.496,311.975,640.981,306.325,640.329,301.655L640.329,301.655z"/>
	<path fill-rule="evenodd" clip-rule="evenodd" d="M576.608,360.873c1.794,1.033,0.652,4.67,0.543,6.515l0.869,0.977l-1.307,6.408
		c-0.054,0.922,0,0-0.108,1.846l0.867,0.977c-0.108,1.847-1.141,3.638-1.25,5.484c-0.053,0.924,0,0-0.107,1.846l1.844,0.11
		l-0.976,0.869c-0.054,0.922,0.867,0.977,0.757,2.822l0.27,11.132c0.811,1.901,0.422,24.112,0.203,27.804
		c-0.166,2.769,1.521,5.649,1.3,9.34l0.869,0.978c-0.978,0.869-1.033,1.791-1.088,2.715l-0.055,0.923l0.539,6.515l-2.768-0.163
		c-1.846-0.111-1.901,0.813-4.723,1.572c-2.77-0.164-3.638-1.143-6.407-1.307c-2.77-0.164-4.727,1.573-8.418,1.354
		c-3.745,0.704-4.619-0.273-8.307-0.491l-5.538-0.328c0.164-2.769-0.485-7.44-0.213-12.056c0.164-2.769-1.465-6.571-1.19-11.186
		c0.492-8.308-0.863-16.726-0.426-24.11c-0.427-8.362-0.914-15.802-0.476-23.185c0.545-9.233,0.115-17.595,0.497-24.056
		l-0.464-54.681c-0.325-10.211,0.333-21.29-0.857-32.474c0.328-5.537,0.658-11.076,0.06-16.67c0.109-1.846,0.166-2.769,0.221-3.693
		c0.11-1.846,0.11-1.846-0.705-3.746c0.164-2.772,0.384-6.461,0.493-8.307l1.303-6.408l-1.625-3.803
		c8.308,0.493,16.617,0.985,24.978,0.553c3.692,0.22,3.638,1.143,6.462,0.385c2.822-0.758,2.714,1.087,2.55,3.856
		c-1.197,4.56-0.548,9.23,0.212,12.055l-0.822,13.848c0.924,0.055,0.924,0.055,0.868,0.977l-0.053,0.921
		c-0.274,4.618-1.148,19.388,0.424,24.113c0.433,8.361,1.951,14.01,1.404,23.241l0.812,1.902l-0.327,5.538l0.646,4.669l-0.109,1.846
		l0.761,2.826l-0.868-0.978l-1.087,2.714l0.923,0.055l0.815,1.9l-0.925-0.055l-0.164,2.769l0.925,0.056l-0.055,0.923l-0.925-0.054
		l-0.437,7.383c-0.107,1.847-0.054,0.924,0.814,1.902l0.377,9.286l-0.055,0.922l-0.976,0.87l1.68,2.877
		c-0.977,0.868-0.977,0.868-1.032,1.792l0,0c-0.109,1.845-0.109,1.845,0.761,2.824l-0.164,2.768L576.608,360.873z M577.319,223.817
		l0.922,0.054c-1.681-2.878-2.66-2.012-6.296-3.153c-1.846-0.109-5.43-2.176-8.252-1.414l-20.421,0.642l-0.869-0.977
		c-2.769-0.165-4.67,0.649-4.833,3.419l-0.109,1.845l0.78,80.638c-0.329,5.539,0.05,14.826-0.224,19.441
		c-0.274,4.615,0.046,14.823,0.696,19.494c0.598,5.593-0.819,13.846-0.224,19.441c0.484,7.44,0.266,11.13-0.115,17.592l1.709,64.947
		l-0.381,6.461c2.77,0.164,1.738,1.954,3.583,2.065c0.922,0.053,0.977-0.869,1.033-1.792l1.846,0.11l-0.109,1.845l25.089-1.292
		c2.822-0.759,11.188-1.19,11.295-3.035l0.22-3.693l-0.809-17.65l-0.945-77.867l0,0l-0.813-1.9l1.197-4.561l-0.761-2.823
		c0.111-1.846,0,0,0.981-0.868c-0.87-0.978-0.87-0.978-0.817-1.904l0.438-7.385l-0.813-1.9c0,0,0.978-0.867,0.111-1.845l0.493-8.308
		l-0.486-7.439l-0.535-22.263l0,0l0.055-0.922l-2.314-54.792L577.319,223.817z"/>
	<path fill-rule="evenodd" clip-rule="evenodd" d="M271.377,368.729c4.616,0.272,9.286-0.377,13.901-0.104
		c1.85,0.109,5.54,0.328,7.387,0.437c2.77,0.165,2.877-1.681,5.646-1.517l1.463,6.571l-1.031,1.791l2.331,7.549l1.846,0.108
		l-0.053,0.925l-1.848-0.111c-0.923-0.054-0.869-0.977-1.737-1.954c-0.977,0.867-0.923-0.055-1.032,1.792
		c0,0,0.814,1.899,1.681,2.877l0.978-0.869c-0.11,1.846-0.164,2.77-1.143,3.638l-0.054,0.923l0.923,0.055l-0.054,0.923l-2.769-0.165
		l-0.054,0.923l2.769,0.164c-0.924-0.054-0.924-0.054-1.034,1.792l0.87,0.977l1.955-1.735l-0.164,2.769l-0.868-0.978l-2.011,2.661
		c-0.055,0.922-0.055,0.922-0.11,1.845l-0.22,3.693l2.824-0.759c-0.054,0.924-0.109,1.846-1.031,1.792l-1.847-0.111
		c-0.055,0.925-0.055,0.925,1.792,1.035l1.848,0.11l0.108-1.846c0.923,0.053,1.845,0.107,1.9-0.815l0.054-0.923
		c0.111-1.847-0.868-0.978-0.758-2.824l0.054-0.922l-0.923-0.055l0.109-1.846c0.923,0.055,0.923,0.055,0.978-0.87
		c0.109-1.845-0.868-0.977-0.814-1.899l0.327-5.539c0,0-0.924-0.055-0.814-1.901c0,0,1.033-1.791,1.088-2.714l-0.815-1.901
		l0.602-10.154l-1.791-1.032c0.923,0.054,1.845,0.109,1.955-1.738l0.109-1.847c0.055-0.922-1.734-1.954-2.662-2.01
		c0,0-7.493,1.409-9.337,1.3c-2.769-0.164-6.461-0.383-10.155-0.602c-3.691-0.219-6.515,0.542-10.208,0.323
		c-1.845-0.109-2.769-0.165-5.538-0.327c-2.77-0.165-1.957,1.734-3.802,1.626l-0.923-0.054l-2.77-0.165
		c-0.923-0.054,0,0-1.792-1.034l-0.976,0.869l-0.274,4.616l0.868,0.977l0.219-3.693l1.847,0.111l-0.055,0.923l-0.219,3.692
		l-0.054,0.923l-2.715-1.088l-0.055,0.924l1.681,2.878l1.52,5.65c-2.716-1.088-1.793-1.033-1.958,1.737l1.793,1.032l-1.846-0.111
		c-0.111,1.848,0.813,1.901,0.704,3.747c0,0-0.924-0.055-1.033,1.793l1.847,0.109l-1.955,1.734l0.869,0.979l-0.979,0.869
		c2.661,2.01,2.661,2.01,2.441,5.702l0.87,0.978l-2.824,0.758l0.814,1.901l-0.055,0.923l-0.922-0.053l-0.055,0.921
		c-0.108,1.847,1.737,1.957,1.682,2.878l-0.109,1.847l-1.087,2.715c0.868,0.977-0.055,0.922-0.111,1.845
		c0,0,0.869,0.977,0.814,1.902c-0.054,0.922-0.977,0.868-0.977,0.868c-0.055,0.923,0,0-0.055,0.923
		c-0.108,1.845-1.032,1.791,1.739,1.954c-1.034,1.793-0.98,0.869-1.089,2.716l-0.054,0.923c-0.055,0.922,2.605,2.933,2.55,3.855
		c-0.109,1.847-0.109,1.847-1.953,1.738l0.108-1.845c0.053-0.924,0.053-0.924-0.869-0.977l-1.196,4.559l0.813,1.901
		c-0.054,0.923-0.054,0.923,0.816,1.901c-1.089,2.715-2.231,6.352,1.461,6.571l-1.087,2.715l2.77,0.164l-0.108,1.846l1.899-0.814
		l-1.791-1.033l1.087-2.715c0.054-0.922-0.869-0.977-0.814-1.9l0.329-5.539l-1.848-0.107l2.12-4.507l-0.923-0.056
		c0.109-1.845,0.979-0.868,1.089-2.714l0.054-0.922c0.11-1.846-0.869-0.98-0.815-1.903c0.054-0.923,1.033-1.791,1.089-2.714
		l-1.848-0.109l0.165-2.77l0.922,0.055l-0.758-2.824l0.977-0.868l-1.626-3.801l0.923,0.054l-0.055,0.923
		c1.956-1.736,0.055-0.923,0.164-2.77c0.111-1.845,0.111-1.845,0.22-3.692l0.053-0.921l0.055-0.925
		c0.109-1.845-0.758-2.823-0.704-3.745c0.055-0.924,0.978-0.869,1.033-1.792c-0.869-0.978-0.922-0.056-0.869-0.978l1.141-3.637
		l-0.921-0.054l0.976-0.871c-1.627-3.801,0.33-5.538,0.603-10.153c0.054-0.922,0.109-1.846-0.814-1.901l0.711-12
		c1.846,0.111,1.9-0.813,2.769,0.165l6.461,0.383L271.377,368.729z"/>
	<path fill-rule="evenodd" clip-rule="evenodd" fill="#FDFEFF" d="M321.356,447.649l1.902-0.813l2.551,3.856l-0.924-0.055
		l-0.111,1.846c1.901-0.814,0.979-0.868,2.826-0.758c0.923,0.054-0.055,0.923,2.714,1.087c1.088-2.713,0.813,1.903,1.033-1.791
		c-1.846-0.109-0.922-0.055-2.769-0.165c0,0,0,0-1.901,0.813l0.11-1.846l5.595-0.596l2.768,0.165l3.692,0.219
		c1.846,0.109,2.827-0.758,3.75-0.704c0.922,0.054-0.923-0.054,0.922,0.054l10.152,0.602l0,0c0.924,0.055,0.924,0.055,0.814,1.901
		l0.925,0.055c0.109-1.847,0.166-2.77,2.933-2.604c1.846,0.109,1.738,1.953,0.758,2.823l1.848,0.109l-0.815-1.901
		c0.977-0.868,1.901-0.814,2.823-0.759l0.924,0.054c0.923,0.057,0.923,0.057,0.869,0.978l-0.055,0.922l-2.714-1.086l1.681,2.878
		l2.878-1.682l0.053-0.922c0.056-0.922,0.111-1.847-0.757-2.824l-0.594-5.593c0.977-0.869,0.977-0.869,1.031-1.791l0.055-0.924
		c0.054-0.923-0.923-0.055-0.816-1.901c0,0,0.979-0.867,2.012-2.658c-2.551-3.857-0.705-3.747-1.408-7.495
		c0,0,0.054-0.922,0.108-1.846l0.112-1.845l0,0l-0.326-10.21c0.165-2.77-0.594-5.593-0.43-8.364
		c-0.759-2.823,0.328-5.539,0.546-9.23l-0.319-10.209l1.195-4.561l-0.484-7.44l-0.87-0.978l1.032-1.792
		c0.053-0.923,0.053-0.923,0.108-1.846c0.055-0.922,0.664-26.824-0.205-27.802c0,0-25.033,0.369-27.8,0.205l-0.925-0.054
		l-14.878,0.971c-0.055,0.922-0.978,0.868-1.034,1.791c-0.055,0.924,0.87,0.977,0.816,1.901l-0.384,6.461l0.048,14.825l-0.11,1.846
		l0.923,0.056l-1.031,1.791l0.649,4.669c-0.923-0.055-0.923-0.055-0.977,0.869c-0.054,0.923,0.814,1.901,0.759,2.823
		c-0.057,0.923-1.033,1.792-1.033,1.792c0.812,1.9,0.759,2.823,0.596,5.594c-0.056,0.923-0.924-0.055-1.847-0.109l-0.054,0.923
		l1.736,1.954l0.055-0.922l-0.22,3.691l-0.977,0.869l1.846,0.109l-0.273,4.616c-0.922-0.054,0.923,0.055,0.813,1.901
		c0,0-0.978,0.869-1.033,1.791l-1.845-0.109l1.79,1.033l-1.031,1.792l1.736,1.956l-1.251,5.484l-1.033,1.79l2.715,1.09l-1.956,1.737
		l-0.922-0.055l1.679,2.877l0.925,0.055c-0.978,0.869-0.978,0.869-1.035,1.793l-0.107,1.844l-1.846-0.108l0.758,2.824l1.793,1.034
		l-1.144,3.638c0.924,0.054,1.684,2.878,1.574,4.724c-0.164,2.77,0.816,1.901-0.273,4.615l1.627,3.802l-2.878,1.682L321.356,447.649
		z"/>
	<path fill-rule="evenodd" clip-rule="evenodd" d="M395.771,395.552l2.826-0.762l-4.562-1.195l-1.845-0.109l1.681,2.879
		l-1.033,1.792l0.542,6.515l0.813,1.902l-1.033,1.791l1.025,13.955l0.705,3.747c-0.108,1.847-0.22,3.693-2.066,3.584l-0.165,2.769
		c-0.055,0.923,0.813,1.901,1.739,1.957l1.845,0.108l-0.053,0.923l-1.846-0.11l-0.053,0.922l2.713,1.089
		c-1.846-0.109-2.769-0.165-2.878,1.681l-0.055,0.923c-0.109,1.847,0.812,1.901,0.703,3.747l-0.923-0.055l0.814,1.901
		c-0.054,0.923-0.054,0.923-0.165,2.77l-0.054,0.923l-2.823,0.757l1.627,3.804l2.771,0.162c0.922,0.056,0.922,0.056,0.869,0.978
		l3.797-1.628l0,0l12.927,0.766l0.977-0.869c0.868,0.977,0.868,0.977,1.79,1.033l2.773,0.164c1.845,0.111,5.645-1.517,10.261-1.242
		c4.615,0.273,6.464,0.381,10.154,0.6c0.054-0.923,0.054-0.923,0.109-1.847l0.165-2.768l-4.615-0.273l-1.034,1.792
		c-4.559-1.198-5.428-2.174-8.361,0.43l-3.638-1.142c-0.924-0.056-2.826,0.759-2.877,1.682l-0.925-0.055l0.054-0.923l-1.791-1.033
		l0,0l-0.055,0.923l0.055-0.923l-6.57,1.465c-0.924-0.056-2.716-1.088-3.639-1.143c-2.823,0.758-2.01,2.66-2.823,0.758l-4.616-0.272
		l-1.845-0.111l-0.815-1.899l1.846,0.108l0.22-3.692l0.921,0.054c0.109-1.846,0.494-8.307-3.199-8.526
		c0.055-0.923,1.033-1.791,1.956-1.738l0.923,0.056l0.274-4.615c0.054-0.925-0.817-1.901-1.738-1.957l0.921,0.055l0.11-1.847
		c0.109-1.847,0.109-1.847,1.088-2.715l-2.715-1.088l2.065-3.581l-1.572-4.725c0.924,0.054,1.901-0.815,1.956-1.738l-1.519-5.648
		c-0.649-4.67-1.792-1.032-2.497-4.78l1.794,1.033c0.976-0.868,0.868,0.977,0.976-0.868c0.055-0.924-0.868-0.978-0.811-1.901
		c0.053-0.923,0.976-0.868,1.031-1.791c0.108-1.847-1.736-1.958-2.662-2.011L395.771,395.552z"/>
	<path fill-rule="evenodd" clip-rule="evenodd" d="M303.88,429.94c-1.847-0.111-3.75,0.703-3.804,1.626l-0.758-2.822l-0.977,0.867
		l-0.055,0.923l0,0l-0.108,1.847c-0.054,0.922-0.054,0.922,0.868,0.977c0.922,0.055,0,0,1.847,0.11
		c-1.034,1.79-2.769-0.166-2.935,2.604l-0.107,1.846c-0.055,0.924,0.921,0.054,0.813,1.901l-0.111,1.846
		c1.847,0.109,1.957-1.738,2.066-3.582l-0.925-0.056l0.055-0.923c1.793,1.033,3.749-0.703,2.715,1.088
		c-1.033,1.791-1.899,0.812-2.118,4.506l-1.957,1.735c1.628,3.803-0.109,1.848-3.801,1.628l-1.846-0.109l-14.01,1.948l-0.978,0.87
		l0,0l0.055-0.924c-3.693-0.218-8.362,0.431-10.319,2.168c-0.867-0.977-1.737-1.956-2.66-2.01l-0.922-0.055
		c-0.925-0.053-0.925-0.053-1.901,0.814c-0.868-0.976-2.661-2.01-2.825,0.759c-0.053,0.923,2.769,0.164,3.693,0.218l-1.957,1.737
		l-0.921-0.053l1.735,1.956l0,0l1.033-1.792c0.87,0.978,0.814,1.901,1.738,1.956c0.922,0.055,1.031-1.792,2.01-2.66l1.792,1.033
		l-1.846-0.109l-0.111,1.846l1.9-0.813c1.848,0.108,1.848,0.108,2.77,0.163l0.923,0.054c1.847,0.111,0.978-0.868,1.089-2.714
		c0.922,0.054,1.899-0.814,2.821-0.759c0.925,0.054-0.053,0.923,2.717,1.087l0.811,1.901l-1.033,1.793l0.056-0.924l10.207-0.321
		l5.595-0.595l0.977-0.87l0.868,0.978c3.693,0.22,0.221-3.691-1.627-3.8l0.112-1.848l0.921,0.055
		c2.77,0.165,1.575,4.726,4.343,4.888c0.109-1.844-1.684-2.877,1.087-2.714c1.848,0.111-0.111,1.846-0.164,2.769l-0.054,0.924
		l2.934-2.604c0.053-0.924-0.868-0.978-0.815-1.902c0.055-0.924,2.009-2.659,2.064-3.583l-0.812-1.9l-2.824,0.758
		c1.087-2.714,2.824-0.758,3.043-4.451c0.054-0.922,0.054-0.922-0.814-1.9c0.977-0.869,0.868,0.978,0.977-0.869
		c0.11-1.846,0.11-1.846-0.758-2.824c0.977-0.868,0.977-0.868,1.032-1.791l0.054-0.924
		C304.803,429.994,304.803,429.994,303.88,429.94L303.88,429.94z"/>
	<path fill-rule="evenodd" clip-rule="evenodd" fill="#FDFEFF" d="M201.634,420.176c-0.869-0.976-0.869-0.976-1.792-1.033
		l-1.847-0.108l1.184,26.933l-0.218,3.693l5.539,0.328c1.845,0.108,0.922,0.054,1.845,0.108l-0.054,0.923l0.923,0.055l0.055-0.923
		l1.844,0.109c0.925,0.055,0.871,0.977,1.794,1.031l0.976-0.868l15.749,0.007l-0.056,0.923l0.924,0.055l2.878-1.684l0.868,0.978
		l-0.108,1.846l2.877-1.682l0.869,0.978c1.252-5.483,1.416-8.254,0.875-14.77c-0.54-6.516-0.431-8.362-0.103-13.901l0.057-0.922
		l0.272-4.617l-2.768-0.165c-1.848-0.108-4.727,1.574-7.496,1.409c-2.769-0.165-5.537-0.328-8.361,0.431
		C214.667,419.098,203.533,419.362,201.634,420.176L201.634,420.176z"/>
	<path fill-rule="evenodd" clip-rule="evenodd" d="M201.634,420.176c1.899-0.815,13.033-1.079,16.725-0.862
		c2.824-0.759,5.592-0.596,8.361-0.431c2.769,0.165,5.647-1.518,7.496-1.409l2.768,0.165l-0.272,4.617l-0.057,0.922
		c-0.328,5.538-0.438,7.384,0.103,13.901c0.542,6.515,0.378,9.287-0.875,14.77l-0.869-0.978l-2.877,1.682l0.108-1.846l-0.868-0.978
		l-2.878,1.684l-0.924-0.055l0.056-0.923l-15.749-0.007l-0.976,0.868c-0.923-0.054-0.869-0.976-1.794-1.031l-1.844-0.109
		l-0.055,0.923l-0.923-0.055l0.054-0.923c-0.923-0.054,0,0-1.845-0.108l-5.539-0.328l0.218-3.693l-1.184-26.933l1.847,0.108
		C200.765,419.2,200.765,419.2,201.634,420.176L201.634,420.176z M204.621,416.648c0.11-1.845-9.122-2.392-9.175-1.471
		c-0.978,0.869,0.321,10.211,0.211,12.057c-0.163,2.769,0.487,7.44,0.268,11.13c-0.273,4.615-0.548,9.233-0.82,13.847l1.736,1.958
		l1.899-0.816l17.541,1.041c2.768,0.163,8.307,0.492,12.924,0.764c3.692,0.219,7.495-1.408,12.109-1.136
		c0.978-0.868,1.901-0.814,2.011-2.659c0,0-1.792-1.033-1.739-1.955c0,0,0.923,0.055,0.979-0.87l0.053-0.922
		c0.111-1.847-0.812-1.903-1.734-1.956l0.813,1.901c-0.922-0.055-1.847-0.111-1.792-1.033c0.108-1.847,0.108-1.847,1.088-2.716
		l-0.923-0.054l-0.212-12.055l-0.814-1.901c0.055-0.923,0.976-0.868,1.031-1.791c0.055-0.923-0.868-0.978-1.792-1.034l0.056-0.921
		l1.844,0.108c0.273-4.616,2.613-12.814-1.08-13.034c-1.845-0.109-1.087,2.715-4.78,2.496l-0.923-0.053
		c-1.845-0.111-0.922-0.054-1.79-1.034l-1.901,0.815l-4.672,0.65l-1.845-0.111l-0.976,0.869c-0.871-0.978-1.739-1.954-2.662-2.011
		c0,0-2.878,1.683-4.723,1.573c0,0-0.924-0.054-0.87-0.977l-1.033,1.791l-1.736-1.956l-0.055,0.923l-2.716-1.087l-1.086,2.714
		L204.621,416.648z"/>
</g>
</svg>
