<?xml version="1.0" encoding="utf-8"?>
<!-- Generator: Adobe Illustrator 17.0.0, SVG Export Plug-In . SVG Version: 6.00 Build 0)  -->
<!DOCTYPE svg PUBLIC "-//W3C//DTD SVG 1.1//EN" "http://www.w3.org/Graphics/SVG/1.1/DTD/svg11.dtd">
<svg version="1.1" id="Layer_1" xmlns="http://www.w3.org/2000/svg" xmlns:xlink="http://www.w3.org/1999/xlink" x="0px" y="0px"
	 width="800px" height="600px" viewBox="0 0 800 600" enable-background="new 0 0 800 600" xml:space="preserve">
<g>
	<path fill="#231F20" d="M472.991,416.664l-12.925-1.6c-12.46-1.546-22.091-2.346-31.222-2.589l-0.869-0.134
		c-4.39-0.055-8.758-0.18-13.127-0.325c-10.765-0.702-19.676-1.118-28.105-1.314l-6.559-0.372
		c-21.973-1.252-44.692-2.546-67.062-2.068l-4.251,0.086l2.63-3.338c1.373-1.746,2.53-3.213,3.629-4.728
		c5.573-5.571,11.216-10.734,16.673-15.724l0.329-0.298c10.612-9.721,21.558-18.635,32.53-26.497
		c8.537-6.12,17.725-12.005,27.383-17.544c-0.176-0.008-0.349-0.016-0.525-0.023c-6.422-0.29-13.062-0.597-19.563-0.628
		c-2.909-0.016-5.816-0.063-8.723-0.11c-5.498-0.086-10.997-0.173-16.501-0.055c-2.416,0.047-4.853,0.196-7.293,0.345
		c-4.48,0.267-9.145,0.55-13.688,0.235c-1.373-0.094-2.473-0.836-3.017-2.04c-0.625-1.381-0.384-3.178,0.6-4.457
		c0.357-0.463,0.732-0.926,1.134-1.404c-18.764-0.522-35.108-4.025-49.836-10.663c-17.703-7.987-29.476-18.132-34.995-30.165
		c-15.869-34.551,16.077-63.7,36.532-77.995c33.949-23.739,76.477-38.121,126.407-42.746c25.19-2.346,48.382-2.582,69.31-0.706
		c18.235,1.636,41.501,4.935,59.716,16.022c16.824,10.239,29.292,28.207,32.544,46.897c2.68,15.41-0.942,29.796-10.473,41.593
		c-13.06,16.155-32.913,24.834-46.713,29.957c-17.299,6.426-34.824,11.251-52.709,15.888c0.644,0.361,1.261,0.718,1.862,1.083
		l1.96,1.153c6.689,4.943,14.433,10.569,22.487,15.653l2.833,1.797l-2.915,1.652c-4.596,2.605-9.417,4.955-14.08,7.23
		c-3.55,1.73-7.093,3.46-10.553,5.304l-5.708,2.369c-8.192,3.382-16.666,6.874-24.72,10.753c-4.582,2.201-9.157,4.551-13.751,6.909
		c-6.214,3.193-12.597,6.473-19.082,9.416c10.604,3.303,20.979,6.94,29.949,10.153c5.889,2.691,11.632,5.273,17.385,7.839
		c4.406,1.962,8.821,4.013,13.251,6.073c2.654,1.24,5.312,2.475,7.978,3.695L472.991,416.664z M429.052,408.464
		c6.034,0.165,12.223,0.557,19.227,1.24c-3.337-1.549-6.667-3.084-9.99-4.559c-5.767-2.573-11.524-5.163-17.266-7.795
		c-10.224-3.652-22.495-7.944-34.79-11.608l-5.381-1.601l5.177-2.173c8.062-3.389,16.065-7.497,23.806-11.471
		c4.627-2.377,9.235-4.747,13.847-6.96c8.158-3.927,16.683-7.446,24.929-10.847l5.524-2.287c3.327-1.781,6.915-3.531,10.506-5.281
		c3.617-1.765,7.328-3.574,10.926-5.5c-7.125-4.645-13.902-9.576-19.706-13.876l-1.838-1.071c-1.811-1.106-3.804-2.158-6.277-3.303
		l-5.098-2.369l5.445-1.397c19.573-5.029,38.694-10.118,57.474-17.097c13.354-4.959,32.548-13.331,44.986-28.718
		c8.782-10.867,12.115-24.143,9.639-38.384c-3.058-17.576-14.812-34.492-30.675-44.147c-17.507-10.659-40.185-13.856-57.986-15.453
		c-20.685-1.852-43.633-1.616-68.578,0.706c-49.227,4.558-91.107,18.701-124.477,42.036c-19.431,13.582-49.835,41.126-35.185,73.029
		c5.102,11.122,16.205,20.604,32.996,28.18c15.587,7.026,32.338,10.322,52.721,10.377l4.804,0.008l-3.382,3.413
		c-1.64,1.651-2.88,3.044-3.908,4.378c-0.016,0.02-0.031,0.047-0.043,0.071c4.211,0.251,8.517-0.012,12.721-0.267
		c1.077-0.067,2.152-0.133,3.227-0.188l-7.701,0.133c-1.322,0-2.346-0.965-2.43-2.236c-0.092-1.404,0.922-2.695,2.262-2.872
		c9.282-1.185,19.245-2.346,29.282-2.778l0.267-0.012l7.228,1.589c2.516,0.573,5.147,1.098,7.828,1.624
		c2.413,0.478,4.865,0.965,7.309,1.506l-0.58,3.421c1.952,0.078,3.892,0.169,5.814,0.259c2.518,0.114,5.037,0.228,7.554,0.329
		l7.444,0.298l-6.583,3.484l-0.965-1.13l-0.01,0.227l0.608,1.106c-3.745,2.056-7.426,4.166-11.034,6.324
		c3.648-2.056,7.427-4.108,11.35-6.159l0.435-0.228l2.16-0.055l0.736,1.652c0.326,1.04-0.051,2.15-0.938,2.766
		c-4.355,2.994-8.895,5.893-13.288,8.702c-8.399,5.363-17.085,10.91-24.767,17.305c-2.332,1.942-4.769,3.809-7.207,5.677
		c-3.484,2.667-7.083,5.429-10.283,8.36c-1.126,1.032-2.191,2.083-3.248,3.127c-2.733,2.699-5.559,5.485-9.157,7.638
		c-1.557,0.946-3.578,0.286-4.312-1.381c-0.396-0.906-0.382-1.907,0.004-2.758c-4.049,3.727-8.125,7.532-12.036,11.416
		c-0.286,0.412-0.602,0.844-0.934,1.287c21.118-0.251,42.495,0.965,63.176,2.142l6.491,0.369c8.419,0.196,17.383,0.62,28.144,1.318
		c4.37,0.149,8.803,0.274,13.239,0.329L429.052,408.464z M355.402,335.337c2.632,0.02,5.265,0.063,7.897,0.102
		c2.893,0.047,5.786,0.094,8.682,0.11c1.85,0.008,3.708,0.039,5.565,0.086c-2.611-0.196-5.037-0.306-7.377-0.329
		C365.241,335.247,360.317,335.275,355.402,335.337z M416.669,406.974c-2.929-0.243-5.565-0.506-8.196-0.769
		c-7.132-0.722-14.506-1.464-21.815-1.464l-0.582,0.004c-2.715,0.012-5.453,0.079-8.199,0.141c-3.15,0.074-6.31,0.149-9.459,0.149
		c-4.015,0-7.338-0.118-10.459-0.377c-1.342-0.11-2.309-1.196-2.252-2.526c0.059-1.451,1.261-2.629,2.677-2.629l2.309,0.012
		c5.692,0,11.375-0.255,16.871-0.506c5.427-0.243,11.039-0.495,16.589-0.495c8.889,0,16.316,0.659,23.37,2.072
		c1.603,0.321,2.609,1.671,2.448,3.287C419.799,405.616,418.348,406.974,416.669,406.974z M287.782,312.842l-1.059-0.188
		c-13.435-4.935-30.165-11.079-38.306-26.536c-6.618-12.577-4.574-28.913,5.61-44.826c10.153-15.865,25.701-25.465,38.109-32.052
		c19.137-10.165,38.692-18.545,58.125-24.908l0.789-0.129c1.183,0,2.15,0.84,2.354,2.044c0.22,1.294-0.508,2.581-1.695,2.997
		c-15.743,5.586-31.726,12.754-47.497,21.298c-12.825,6.944-27.36,14.818-37.646,27.674c-6.599,8.239-20.565,29.329-7.823,47.089
		c7.415,10.33,19.129,15.963,30.459,21.404c1.447,0.695,2.099,2.06,1.777,3.472C290.627,311.724,289.283,312.842,287.782,312.842z
		 M265.748,232.96c-3.035,3.146-5.863,6.63-8.337,10.498c-4.439,6.936-13.856,24.794-5.439,40.789
		c4.523,8.588,11.957,14.021,20.122,18.074c-6.33-3.833-12.127-8.419-16.615-14.672c-14.345-19.996,0.781-42.99,7.95-51.942
		C264.185,234.764,264.958,233.846,265.748,232.96z"/>
</g>
</svg>
