<?xml version="1.0" encoding="utf-8"?>
<!-- Generator: Adobe Illustrator 17.0.0, SVG Export Plug-In . SVG Version: 6.00 Build 0)  -->
<!DOCTYPE svg PUBLIC "-//W3C//DTD SVG 1.1//EN" "http://www.w3.org/Graphics/SVG/1.1/DTD/svg11.dtd">
<svg version="1.1" id="Layer_1" xmlns="http://www.w3.org/2000/svg" xmlns:xlink="http://www.w3.org/1999/xlink" x="0px" y="0px"
	 width="800px" height="600px" viewBox="0 0 800 600" enable-background="new 0 0 800 600" xml:space="preserve">
<path fill-rule="evenodd" clip-rule="evenodd" fill="#7B8E92" d="M534.719,411.521c26.037,13.691,51.904-12.397,47.827-26.6
	c-6.225-21.682-1.109-32.975-0.682-51.117c-2.837-7.696-0.481-16.134-12.839-22.469c-10.347-5.305-8.888,3.258-27.285-5.458
	c-14.326-6.787-15.802,4.958-37.553-4.814c-6.119-2.749-6.603,2.591-26.963,3.852c-11.074,0.686-18.455,17.081-12.841,27.644
	c21.189,39.867,36.796,8.183,61.749,6.261c19.786-1.525,40.277,23.043,23.619,30.53c-7.154,3.216-12.621,15.582-15.073,22.95
	c-24.312-19.858-32.337-10.539-44.856-12.107c-12.518-1.568-19.982-12.901-32.5-16.217
	C465.451,401.138,473.046,435.217,534.719,411.521L534.719,411.521z M394.39,302.013c-4.214,6.238-2.468,15.86,6.438,24.576
	c4.631,4.533,11.784,9.728,16.204,10.416c1.577,2.664,3.638,5.326,6.124,7.759c7.858,7.691,18.671,13.296,25.066,11.757
	c5.556-1.339-1.98-17.319-9.839-25.01c-2.326-2.277-8.383-7.951-10.725-9.252c-1.354-5.263-4.676-10.993-9.522-15.737
	c-8.906-8.715-19.532-10.746-23.748-4.508H394.39L394.39,302.013z M600.205,214.495c-5.94-4.492-13.899,1.276-15.212,10.451
	c-0.984,6.872-3.213,12.638-1.436,16.694c-2.733,1.9-5.361,5.17-7.264,9.353c-2.935,6.454-3.25,13.214-1.19,17.222
	c-2.906,2.06-5.824,6.259-7.718,11.632c-3.101,8.794-1.853,16.66,1.538,21.894c2.43,3.752,10.122-6.672,13.223-15.466
	c2.034-5.764,2.392-11.426,1.251-15.145c3.46-1.455,7.031-6.66,9.433-11.946c2.809-6.181,3.441-10.331,1.664-14.388
	c2.733-1.899,5.16-6.076,7.062-10.26c3.83-8.424,2.868-16.851-1.35-20.041H600.205L600.205,214.495z M546.719,183.523
	c-8.841-1.105-12.352,6.546-13.973,17.226c-1.189,7.835,0.693,13.856,2.913,18.585c-2.504,3.118-3.526,7.938-4.331,13.242
	c-1.242,8.183,0.611,15.706,4.278,19.309c-2.648,3.361-4.38,8.105-4.787,14.708c-0.666,10.806,3.041,19.394,7.141,23.398
	c3.855,3.766,10.949-10.202,11.615-21.008c0.438-7.085-1.006-13.419-3.529-17.059c3.48-2.908,4.028-5.081,5.958-14.429
	c1.602-7.753,0.677-15.058-2.683-18.825c2.502-3.117,4.701-8.412,5.507-13.716C556.446,194.273,555.849,184.665,546.719,183.523
	L546.719,183.523L546.719,183.523z M438.75,198.198c-6.081,1.165-10.208,7.496-8.078,17.533c1.563,7.363,6.483,14.988,10.903,18.027
	c-1.271,3.659-1.665,8.444-0.459,13.394c1.754,7.201,6.894,9.812,10.579,15.552c-1.326,3.928-1.208,9.683,0.664,15.674
	c3.064,9.805,10.986,18.098,16.24,19.302c5.123,1.174,5.026-15.059,1.962-24.865c-2.008-6.428-5.516-11.515-9.112-13.829
	c2.255-3.826,1.843-8.602,0.53-14.904c-1.524-7.314-2.248-11.579-8.848-16.429c0.359-6.855,1.322-11.612,0.265-16.595
	c-2.13-10.037-8.564-14.022-14.645-12.858V198.198L438.75,198.198z M491.573,173.552c-6.203,0-11.468,6.007-11.468,17.246
	c0,8.244,2.949,18.404,6.84,21.602c-2.008,3.677-4.379,7.31-4.379,12.891c0,8.611,4.105,17.371,8.276,20.343
	c-2.116,3.953-3.199,10.172-2.61,17.003c0.963,11.183,7.592,20.689,11.924,22.928c4.731,2.444,8.039-13.982,7.076-25.165
	c-0.632-7.331-3.012-13.528-6.055-16.76c3.007-3.651,4.976-8.447,4.976-16.921c0-7.059-1.351-13.645-5.242-16.844
	c2.008-3.676,2.815-13.973,2.815-19.554C503.727,179.081,497.777,173.552,491.573,173.552L491.573,173.552z"/>
<path fill-rule="evenodd" clip-rule="evenodd" fill="#7B8E92" d="M198.51,424.233c-26.772,14.076-53.369-12.747-49.177-27.352
	c6.401-22.294,1.141-33.905,0.701-52.56c2.917-7.913,0.494-16.589,13.201-23.103c10.64-5.455,9.139,3.351,28.055-5.611
	c14.73-6.978,16.249,5.098,38.612-4.95c6.294-2.827,6.79,2.664,27.724,3.961c11.387,0.705,18.976,17.563,13.203,28.424
	c-21.787,40.99-37.834,8.415-63.491,6.438c-20.344-1.568-41.414,23.693-24.285,31.392c7.355,3.306,12.977,16.021,15.497,23.597
	c24.998-20.417,33.25-10.836,46.121-12.448c12.871-1.614,20.546-13.265,33.418-16.676
	C269.733,413.556,261.924,448.595,198.51,424.233L198.51,424.233z M342.799,311.633c4.333,6.413,2.538,16.307-6.619,25.269
	c-4.762,4.66-12.116,10.001-16.661,10.71c-1.623,2.74-3.741,5.477-6.297,7.978c-8.08,7.907-19.199,13.671-25.775,12.087
	c-5.714-1.375,2.037-17.808,10.117-25.715c2.393-2.342,8.618-8.176,11.028-9.514c1.393-5.411,4.807-11.303,9.791-16.18
	c9.157-8.962,20.083-11.05,24.417-4.636H342.799L342.799,311.633z M131.176,221.647c6.108-4.618,14.293,1.312,15.642,10.746
	c1.012,7.066,3.303,12.994,1.476,17.165c2.81,1.953,5.513,5.315,7.469,9.617c3.018,6.637,3.342,13.588,1.225,17.707
	c2.988,2.119,5.988,6.437,7.935,11.961c3.189,9.042,1.906,17.128-1.581,22.511c-2.499,3.859-10.408-6.861-13.597-15.903
	c-2.09-5.927-2.458-11.747-1.286-15.573c-3.557-1.495-7.229-6.848-9.7-12.283c-2.889-6.355-3.537-10.622-1.711-14.794
	c-2.809-1.953-5.305-6.248-7.261-10.55C125.849,233.59,126.839,224.925,131.176,221.647L131.176,221.647L131.176,221.647z
	 M186.171,189.801c9.091-1.136,12.701,6.731,14.368,17.713c1.222,8.055-0.713,14.246-2.994,19.109
	c2.574,3.206,3.626,8.162,4.454,13.615c1.277,8.415-0.628,16.149-4.4,19.855c2.723,3.455,4.504,8.334,4.923,15.122
	c0.685,11.111-3.127,19.941-7.343,24.058c-3.964,3.871-11.257-10.49-11.943-21.602c-0.449-7.283,1.036-13.797,3.63-17.539
	c-3.578-2.99-4.142-5.224-6.127-14.836c-1.646-7.971-0.695-15.484,2.759-19.356c-2.573-3.206-4.834-8.651-5.662-14.104
	C176.169,200.854,176.784,190.974,186.171,189.801L186.171,189.801L186.171,189.801z M297.187,204.89
	c6.253,1.197,10.495,7.707,8.305,18.027c-1.607,7.57-6.666,15.411-11.211,18.536c1.308,3.764,1.712,8.682,0.472,13.772
	c-1.804,7.405-7.088,10.089-10.877,15.993c1.362,4.037,1.242,9.956-0.683,16.116c-3.151,10.082-11.296,18.609-16.698,19.847
	c-5.266,1.206-5.168-15.485-2.017-25.566c2.066-6.609,5.672-11.841,9.369-14.22c-2.318-3.933-1.894-8.845-0.544-15.324
	c1.567-7.52,2.312-11.905,9.097-16.892c-0.368-7.049-1.36-11.94-0.271-17.064c2.19-10.321,8.806-14.418,15.057-13.221
	L297.187,204.89L297.187,204.89z M242.873,179.547c6.378,0,11.792,6.176,11.792,17.732c0,8.477-3.033,18.924-7.034,22.212
	c2.066,3.781,4.501,7.516,4.501,13.254c0,8.855-4.22,17.862-8.509,20.918c2.175,4.064,3.289,10.458,2.684,17.483
	c-0.991,11.498-7.806,21.272-12.261,23.574c-4.865,2.512-8.266-14.377-7.275-25.874c0.649-7.538,3.096-13.91,6.226-17.233
	c-3.092-3.755-5.117-8.685-5.117-17.4c0-7.258,1.39-14.03,5.389-17.318c-2.065-3.78-2.894-14.368-2.894-20.106
	C230.377,185.234,236.495,179.547,242.873,179.547L242.873,179.547z"/>
</svg>
