<?xml version="1.0" encoding="utf-8"?>
<!-- Generator: Adobe Illustrator 17.0.0, SVG Export Plug-In . SVG Version: 6.00 Build 0)  -->
<!DOCTYPE svg PUBLIC "-//W3C//DTD SVG 1.1//EN" "http://www.w3.org/Graphics/SVG/1.1/DTD/svg11.dtd">
<svg version="1.1" id="Layer_1" xmlns="http://www.w3.org/2000/svg" xmlns:xlink="http://www.w3.org/1999/xlink" x="0px" y="0px"
	 width="800px" height="600px" viewBox="0 0 800 600" enable-background="new 0 0 800 600" xml:space="preserve">
<g>
	<g>
		<path id="_350540496" fill="#1F1A17" d="M517.565,271.039c-12.882,2.414-26.291,10.563-41.501,21.126
			c-18.964,12.236-39.125,25.246-61.121,27.142l-0.684-4.191c21.002-1.81,40.736-14.545,59.301-26.524
			c14.878-9.598,29.023-18.726,42.803-21.672L517.565,271.039L517.565,271.039z"/>
		<path id="_350540424" fill="#1F1A17" d="M467.981,297.03c-9.855,8.643-17.234,22.49-24.937,39.33
			c-10.078,20.195-20.793,41.663-38.75,54.502l-2.723-3.255c17.149-12.259,27.636-33.276,37.5-53.043
			c7.907-15.842,15.424-30.905,25.783-40.46L467.981,297.03L467.981,297.03z"/>
		<path id="_350540352" fill="#FFFFFF" d="M269.328,229.903c-26.025-9.983-47.265,8.658-48.781,38.745
			c-1.159,23.031,24.086,45.858,24.69,68.909c0.741,28.301-15.467,36.531-7.294,63.639c5.83,19.339,23.72,35.571,36.483,47.949
			c4.614-17.776,11.874-27.693,26.586-24.932c1.706-22.637,13.043-41.591,30.097-42.822c13.837-39.786,46.486-14.093,55.609,1.658
			c-4.718-13.148,0.494-29.375,9.727-22.917c-10.777-52.858-50.786-84.908-60.242-133.403
			C328.263,186.026,288.326,173.492,269.328,229.903L269.328,229.903z"/>
		<path id="_350540280" fill="#1F1A17" d="M268.578,231.88c-3.987-1.53-7.835-2.352-11.48-2.533
			c-7.014-0.352-13.371,1.635-18.641,5.474c-5.322,3.877-9.579,9.665-12.345,16.868c-1.943,5.061-3.141,10.805-3.459,17.063
			c-0.57,11.328,5.749,22.922,12.064,34.516c6.158,11.299,12.316,22.604,12.62,34.245c0.333,12.706-2.623,21.411-5.374,29.508
			c-3.374,9.94-6.424,18.921-2.005,33.58c5.27,17.477,20.931,32.577,33.224,44.423c0.052,0.052,0.105,0.1,0.157,0.152
			c2.262-7.593,5.146-13.609,9.081-17.662c4.281-4.41,9.689-6.477,16.688-5.707c1.164-11.181,4.647-21.387,9.983-28.985
			c5.198-7.403,12.164-12.35,20.484-13.395c2.509-6.776,5.598-11.665,9.047-15.034c5.013-4.904,10.734-6.6,16.526-6.196
			c5.626,0.394,11.271,2.799,16.36,6.168c4.276,2.832,8.187,6.362,11.371,9.95c-0.147-3.108,0.143-6.087,0.808-8.648
			c0.642-2.466,1.644-4.604,2.946-6.163c1.483-1.777,3.35-2.846,5.54-2.932c0.437-0.019,0.889,0.009,1.345,0.076
			c-5.826-24.704-18.094-44.946-30.097-64.751c-12.426-20.503-24.576-40.551-29.294-64.751
			c-2.381-12.207-7.707-21.739-14.445-27.422c-4.015-3.383-8.529-5.384-13.205-5.735c-4.657-0.352-9.522,0.941-14.25,4.139
			c-7.831,5.293-15.277,15.728-20.907,32.449c-0.233,0.699-0.47,1.392-0.703,2.091C269.941,232.403,269.257,232.141,268.578,231.88
			L268.578,231.88z M257.292,225.128c3.469,0.176,7.061,0.851,10.739,2.067c5.878-16.512,13.628-27.028,21.839-32.577
			c5.56-3.754,11.337-5.27,16.926-4.851c5.574,0.418,10.915,2.765,15.614,6.728c7.441,6.277,13.295,16.655,15.866,29.831
			c4.585,23.507,16.531,43.221,28.752,63.383c12.82,21.154,25.939,42.798,31.485,70.002c0.352,1.725,0.703,3.45,1.055,5.175
			c-1.444-1.007-2.884-2.019-4.324-3.027c-1.112-0.779-2.086-1.112-2.913-1.079c-0.898,0.033-1.73,0.551-2.447,1.411
			c-0.898,1.079-1.616,2.647-2.105,4.528c-1.145,4.41-0.988,10.283,0.931,15.623c2.623,7.313,5.246,14.621,7.874,21.934
			c-3.892-6.724-7.788-13.442-11.68-20.166c-3.051-5.265-8.862-11.703-15.709-16.232c-4.533-2.998-9.484-5.137-14.312-5.474
			c-4.657-0.328-9.261,1.05-13.309,5.008c-3.207,3.136-6.106,7.888-8.463,14.678c-0.152,0.437-0.304,0.874-0.456,1.316
			c-0.461,0.033-0.922,0.067-1.383,0.1c-7.565,0.546-13.946,4.956-18.717,11.746c-5.255,7.479-8.572,17.809-9.423,29.128
			c-0.062,0.784-0.119,1.568-0.176,2.352c-0.775-0.147-1.544-0.29-2.319-0.437c-6.576-1.235-11.461,0.328-15.182,4.158
			c-3.949,4.063-6.762,10.677-8.981,19.225c-0.304,1.164-0.604,2.333-0.908,3.497c-0.865-0.836-1.73-1.673-2.594-2.504
			c-0.903-0.87-1.801-1.739-2.704-2.609c-12.644-12.183-28.757-27.716-34.345-46.258c-4.804-15.937-1.549-25.531,2.058-36.141
			c2.637-7.759,5.469-16.103,5.156-28.049c-0.276-10.62-6.196-21.482-12.107-32.33c-6.605-12.121-13.21-24.238-12.582-36.73
			c0.337-6.733,1.635-12.92,3.721-18.37c3.055-7.964,7.821-14.402,13.813-18.769C242.03,227.005,249.295,224.729,257.292,225.128
			L257.292,225.128z"/>
		<g>
			<g>
				<path id="_350540208" fill="#1F1A17" d="M493.783,495.132l0.551-17.315c-5.184,3.711-12.483,4.756-19.449,5.75
					c-8.563,1.221-16.555,2.362-17.42,8.42c-0.618,4.329,1.525,6.12,5.027,6.619c4.661,0.665,11.523-0.527,18.208-1.696
					C485.33,496.111,489.882,495.318,493.783,495.132L493.783,495.132z"/>
				<path id="_350540136" fill="#1F1A17" d="M499.328,453.394l-1.392,43.872l-0.067,2.072l-2.077-0.033
					c-3.868-0.062-9.076,0.846-14.388,1.772c-7.004,1.221-14.193,2.476-19.51,1.711c-6.001-0.86-9.674-3.939-8.61-11.394
					c1.316-9.194,10.82-10.553,21.007-12.007c11.347-1.611,18.009-1.744,20.195-6.296l0.627-19.833L499.328,453.394L499.328,453.394
					z"/>
			</g>
			<path id="_350540040" fill="#1F1A17" d="M459.376,143.732c-8.121-20.095-15.566-42.295-20.266-64.157l-73.413,39.676
				c6.709,6.719,13.732,15.267,19.163,23.554c5.949,9.08,11.266,19.506,16.232,29.755
				C413.865,165.903,449.74,149.258,459.376,143.732L459.376,143.732z"/>
			<g>
				<path id="_350539968" fill="#1F1A17" d="M562.478,466.385l4.319,16.773c-3.692,1.269-7.845,3.307-12.065,5.379
					c-6.092,2.994-12.34,6.063-17.001,6.728c-3.502,0.499-6.063-0.618-6.681-4.951c-0.865-6.058,6.486-9.389,14.364-12.963
					C551.825,474.448,558.544,471.398,562.478,466.385L562.478,466.385z"/>
				<path id="_350539896" fill="#1F1A17" d="M556.348,442.588l4.253,18.883c-2.618,5.54-9.974,8.876-16.93,12.027
					c-9.37,4.248-18.118,8.211-16.802,17.405c1.064,7.455,5.455,9.385,11.456,8.529c5.322-0.76,11.87-3.977,18.251-7.109
					c4.842-2.376,9.589-4.704,13.319-5.73l2-0.551l-0.518-2.01l-10.948-42.508L556.348,442.588L556.348,442.588z"/>
			</g>
			<g>
				<path id="_350539800" fill="#1F1A17" d="M504.237,385.231c14.374,41.991,30.168,63.349,43.677,87.127
					c6.705-1.958,20.247-5.906,26.951-7.864c-11.651-29.199-20.095-63.083-33.399-95.561
					C529.055,374.368,516.643,379.8,504.237,385.231L504.237,385.231z"/>
				<path id="_350539728" fill="#1F1A17" d="M502.241,385.906c11.39,33.276,23.644,53.646,34.968,72.468
					c2.994,4.975,5.921,9.841,8.867,15.03l0.827,1.454l1.606-0.47l26.951-7.864l2.224-0.651l-0.86-2.157
					c-5.45-13.666-10.211-28.405-15.101-43.544c-5.536-17.13-11.233-34.777-18.303-52.031l-0.822-2l-1.972,0.865l-37.229,16.293
					l0.841,1.934L502.241,385.906L502.241,385.906z M540.825,456.202c-11.005-18.289-22.898-38.061-33.96-69.826l33.461-14.64
					c6.652,16.507,12.093,33.357,17.382,49.731c4.657,14.412,9.194,28.467,14.345,41.648l-23.136,6.747
					C546.356,465.401,543.619,460.844,540.825,456.202L540.825,456.202z"/>
			</g>
			<g>
				<path id="_350539632" fill="#1F1A17" d="M460.906,383.601c2.409,44.338,10.178,69.84,17.633,96.449c8.254,0,16.507,0,24.766,0
					c1.739-33.889,3.483-67.778,5.227-101.662C492.657,380.128,476.782,381.867,460.906,383.601L460.906,383.601z"/>
				<path id="_350539560" fill="#1F1A17" d="M463.121,385.483c2.371,40.446,9.289,65.017,16.208,89.583l0.808,2.875H501.3
					l4.994-97.181L463.121,385.483L463.121,385.483z M475.266,476.202c-7.09-25.184-14.184-50.368-16.469-92.496l2.105-0.105
					l-0.223-2.095l47.621-5.213l2.457-0.271l-0.128,2.476l-5.227,101.662l-0.105,2.005h-2.005h-24.766h-1.597l-0.437-1.544
					L475.266,476.202L475.266,476.202z"/>
			</g>
			<path id="_350539464" fill="#FFFFFF" d="M491.906,280.252l-18.66-0.033c-15.129,32.53-6.163,82.589-4.2,118.15
				c19.548-4.153,45.198-10.938,64.015-12.274C523.99,347.607,511.554,305.83,491.906,280.252L491.906,280.252z"/>
			<path id="_350539392" fill="#1F1A17" d="M490.856,282.357l-16.251-0.029c-11.162,25.36-7.992,61.487-5.251,92.71
				c0.627,7.151,1.235,14.046,1.649,20.746c4.31-0.936,8.41-1.867,12.62-2.827c15.642-3.564,32.82-7.479,46.823-8.762
				c-4.395-18.432-9.579-37.524-15.975-55.148C507.981,311.185,500.255,294.863,490.856,282.357L490.856,282.357z M473.246,278.109
				l18.66,0.029h1.045l0.632,0.827c9.964,12.972,18.085,30.007,24.851,48.648c6.724,18.522,12.122,38.679,16.678,58.004l0.565,2.409
				l-2.466,0.176c-14.131,1.003-32.254,5.132-48.667,8.871c-5.512,1.254-10.834,2.471-15.063,3.369l-2.404,0.508l-0.138-2.461
				c-0.385-6.942-1.074-14.844-1.796-23.074c-2.832-32.245-6.111-69.626,6.191-96.084L473.246,278.109L473.246,278.109z"/>
			<path id="_350539320" fill="#1F1A17" d="M501.851,271.58c0,0,60.08,112.434,53.974,115.052
				c-6.106,2.618-53.765,14.174-53.765,14.174l-7.855-126.87L501.851,271.58L501.851,271.58z"/>
			<path id="_350539248" fill="#1F1A17" d="M503.895,270.449c0.176,0.328,60.95,114.615,52.758,118.127
				c-6.158,2.642-53.19,10.691-53.271,10.715l-2.324,0.717l-0.38-2.395c-0.052-0.323-6.795-95.898-8.296-120.042
				c-0.033-0.765-0.632-5.384-0.005-5.517l10.767-3.013L503.895,270.449L503.895,270.449z M554.063,384.884
				c3.497-1.497-39.197-86.233-50.976-107.469c2.832,19.591-1.254,102.028,1.345,117.148
				C511.35,392.444,549.05,387.032,554.063,384.884L554.063,384.884z"/>
			<path id="_350539176" fill="#1F1A17" d="M457.409,280.922c0,0-9.461,124.76-2.822,124.646c6.638-0.119,35.847-5.255,35.847-5.255
				S458.682,280.651,457.409,280.922L457.409,280.922z"/>
			<path id="_350539104" fill="#1F1A17" d="M459.509,281.084l-0.181,2.419c8.349,22.285,33.699,117.333,33.78,117.642l0.627,2.343
				l-2.419,0.29c-0.086,0.009-29.974,3.778-36.692,3.896c-8.943,0.162,0.646-126.551,0.675-126.912l0.119-1.582l1.544-0.328
				c0.271-0.057,0.737,0.703,1.359,2.138L459.509,281.084L459.509,281.084z M459.077,286.876
				c-1.777,24.267-7.061,116.383-3.293,116.316c5.431-0.1,25.464-2.409,32.649-3.298
				C484.693,385.217,464.351,305.488,459.077,286.876L459.077,286.876z"/>
			<path id="_350539032" fill="#FFFFFF" d="M476.078,294.517c39.244-6.624,64.765-55.903,48.652-94.91
				c-14.916-36.108-39.021-55.609-76.431-49.712c-11.661,5.626-25.17,10.734-36.768,18.617c-16.702,17.9-21.62,45.321-16.474,69.883
				C406.005,290.668,444.1,299.915,476.078,294.517L476.078,294.517z"/>
			<path id="_350538960" fill="#1F1A17" d="M475.717,292.435c3.93-0.665,7.707-1.763,11.295-3.245
				c13.618-5.626,24.809-16.754,31.95-30.33c7.156-13.604,10.245-29.641,7.641-45.046c-0.77-4.562-2.034-9.057-3.825-13.395
				c-7.308-17.681-16.821-31.271-29.033-39.681c-12.05-8.296-26.837-11.58-44.837-8.8c-3.169,1.525-6.324,2.946-9.532,4.395
				c-8.886,4.006-18.208,8.211-26.481,13.799c-7.721,8.344-12.82,18.826-15.481,30.107c-2.875,12.198-2.898,25.331-0.299,37.728
				c4.728,22.57,14.583,36.863,26.771,45.312C439.224,293.889,458.383,295.362,475.717,292.435L475.717,292.435z M488.627,293.082
				c-3.901,1.611-7.983,2.803-12.197,3.516c-18.284,3.089-38.555,1.482-54.939-9.865c-13.034-9.028-23.535-24.162-28.51-47.906
				c-2.718-12.972-2.69-26.742,0.333-39.553c2.841-12.05,8.163-23.183,16.503-32.117c7.731-6.191,18.836-10.62,27.821-14.673
				c2.471-1.117,8.544-2.861,10.325-4.676c19.278-3.041,35.162,0.494,48.177,9.451c12.92,8.895,22.917,23.117,30.529,41.539
				c1.929,4.666,3.279,9.465,4.096,14.298c2.761,16.346-0.499,33.333-8.068,47.716C515.113,275.23,503.187,287.066,488.627,293.082
				L488.627,293.082z"/>
			<path id="_350538888" fill="#1F1A17" d="M414.972,224.448c1.468-0.622,3.939,1.311,5.517,4.315
				c1.578,3.008,1.663,5.949,0.195,6.572c-1.468,0.622-3.939-1.311-5.517-4.319C413.589,228.012,413.499,225.071,414.972,224.448z
				 M432.254,212.902c1.468-0.622,3.939,1.311,5.517,4.319c1.578,3.003,1.663,5.944,0.195,6.572
				c-1.473,0.622-3.944-1.311-5.517-4.315C430.871,216.466,430.785,213.529,432.254,212.902L432.254,212.902z"/>
			<path id="_350538816" fill="#1F1A17" d="M409.541,171.828l3.545,21.411l-4.167,0.699l-3.545-21.411L409.541,171.828
				L409.541,171.828z M431.175,159.008l7.427,13.937l-3.721,1.972l-7.427-13.937L431.175,159.008z M441.116,154.775l6.614,12.245
				l-3.716,1.991l-6.614-12.245L441.116,154.775z M450.063,149.367l14.521,11.737l-2.661,3.283l-14.521-11.737L450.063,149.367z
				 M419.372,164.183l7.954,14.692l-3.706,2l-7.954-14.692L419.372,164.183L419.372,164.183z"/>
			<path id="_350538744" fill="#1F1A17" d="M506.703,168.664c2.922-4.324,6.937-5.521,10.748-4.661
				c2.305,0.518,4.495,1.815,6.267,3.626c1.734,1.777,3.089,4.072,3.754,6.624c1.34,5.137-0.029,11.276-6.491,16.317l-2.585-3.326
				c4.875-3.801,5.954-8.254,4.999-11.912c-0.48-1.829-1.449-3.478-2.694-4.752c-1.212-1.24-2.675-2.119-4.162-2.457
				c-2.191-0.494-4.543,0.261-6.334,2.908L506.703,168.664z"/>
			<path id="_350538672" fill="#1F1A17" d="M434.078,268.506c1.806,6.747,7.265,9.461,13.409,9.461
				c6.153,0,13.224-2.661,19.254-6.98c6.02-4.315,10.957-10.249,12.844-16.807c2.319-8.054,0.076-17.405-10.986-25.564
				c-2.309-1.706-0.204-4.196,1.753-2.998c13.509,8.254,16.056,20.09,13.281,29.731c-2.162,7.517-7.702,14.241-14.431,19.064
				c-6.719,4.818-14.692,7.778-21.71,7.778c-7.959,0-14.602-5.845-16.389-13.376C430.153,264.823,433.033,264.605,434.078,268.506
				L434.078,268.506z"/>
			<polygon id="_350538600" fill="#1F1A17" points="368.657,185.081 488.604,129.211 490.39,133.036 370.439,188.906 			"/>
			<polygon id="_350538528" fill="#FFFFFF" points="392.525,155.24 453.218,127.818 454.586,130.855 393.898,158.272 			"/>
			<path id="_350538456" fill="#1F1A17" d="M397.97,172.883c-4.894-10.112-10.121-19.81-15.961-28.719
				c-5.802-8.857-12.226-16.949-19.558-23.915l-2.11-2.005l2.571-1.378l76.25-40.936l2.49-1.34l0.57,2.761
				c4.676,22.651,11.537,44.138,19.895,64.818l-3.906,1.582c-8.125-20.095-14.844-40.917-19.544-62.784l-71.237,38.241
				c6.709,6.719,12.673,14.36,18.104,22.647c5.949,9.08,11.257,18.926,16.222,29.18L397.97,172.883L397.97,172.883z"/>
			<path id="_350538384" fill="#1F1A17" d="M481.224,323.017c3.972-0.993,6.719,1.53,7.474,4.552s-0.475,6.543-4.448,7.536
				c-3.972,0.993-6.719-1.53-7.474-4.552C476.021,327.531,477.252,324.01,481.224,323.017L481.224,323.017z M484.223,326.571
				c-2.404-1.449-4.343,0.314-4.604,2.162c-0.261,1.853,1.159,3.797,3.82,3.131C485.948,331.238,486.413,327.888,484.223,326.571
				L484.223,326.571z"/>
			<path id="_350538312" fill="#1F1A17" d="M485.382,339.6c3.972-0.993,6.719,1.53,7.474,4.552c0.755,3.022-0.475,6.543-4.448,7.536
				c-3.972,0.993-6.719-1.53-7.474-4.552C480.179,344.119,481.41,340.598,485.382,339.6z M488.38,343.16
				c-2.404-1.449-4.343,0.314-4.604,2.162c-0.261,1.848,1.159,3.797,3.82,3.131C490.105,347.826,490.571,344.476,488.38,343.16
				L488.38,343.16z"/>
			<path id="_350538240" fill="#1F1A17" d="M477.105,306.567c3.972-0.993,6.719,1.53,7.474,4.552
				c0.755,3.022-0.475,6.543-4.448,7.536c-3.972,0.993-6.714-1.53-7.474-4.552C471.902,311.081,473.132,307.56,477.105,306.567
				L477.105,306.567z M480.103,310.126c-2.404-1.449-4.343,0.309-4.604,2.162c-0.257,1.848,1.159,3.797,3.82,3.131
				C481.828,314.787,482.293,311.437,480.103,310.126z"/>
			<g>
				<path id="_350538168" fill="#1F1A17" d="M449.041,294.36l10.782,28.035l10.938-20.679l33.319-1.278l-9.641-25.564
					l-23.602,22.029C470.842,296.902,449.369,292.706,449.041,294.36L449.041,294.36z"/>
				<path id="_350538096" fill="#1F1A17" d="M451.213,295.068l8.876,23.079l8.943-18.679l0.185-0.299
					C463.981,298.513,453.679,295.272,451.213,295.068z M458.155,322.989l-10.957-30.857c3.193-0.798,19.525,2.699,23.15,3.117
					l22.737-21.943l1.896-2.019l1.136,3.022l9.641,25.559l1.026,2.727l-2.523-0.1l-32.611,0.385l-10.283,20.841l-1.815,2.927
					L458.155,322.989L458.155,322.989z M472.657,298.822l28.714-0.537l-7.47-19.814L472.657,298.822z"/>
			</g>
		</g>
		<path id="_350537976" fill="#1F1A17" d="M270.051,379.305c10.078,11.594,22.366,15.757,34.255,16.08
			c20.389,0.551,39.581-10.007,44.856-14.141l2.594,3.321c-5.602,4.395-25.977,15.614-47.55,15.034
			c-12.953-0.352-26.348-4.894-37.339-17.534L270.051,379.305L270.051,379.305z"/>
		<g>
			<path id="_350537904" fill="#FFFFFF" d="M434.734,493.593l26.167-55.808c-5.479,11.528-27.788,58.284-33.271,69.812
				c11.642,14.417,30.254,24.1,38.541,15.148C474.192,514.072,456.825,494.158,434.734,493.593L434.734,493.593z"/>
			<path id="_350537832" fill="#1F1A17" d="M462.807,438.697l-16.802,35.248l-8.444,17.714c9.888,0.941,18.679,5.464,24.604,10.948
				c2.523,2.338,4.547,4.87,5.94,7.394c1.459,2.651,2.228,5.322,2.167,7.793c-0.062,2.385-0.874,4.576-2.552,6.391
				c-0.423,0.456-0.87,0.874-1.34,1.255c-4.243,3.431-10.069,3.602-16.289,1.511c-5.826-1.962-12.074-5.959-17.619-11.09
				c-2.3-2.129-4.486-4.457-6.477-6.923l16.208-36.811c6.334-13.29,12.696-26.633,16.788-35.238L462.807,438.697L462.807,438.697z
				 M435.618,495.736l-5.507,11.561c1.63,1.929,3.388,3.768,5.227,5.464c5.122,4.737,10.834,8.41,16.099,10.183
				c4.709,1.587,14.431,1.829,14.616-5.255c0.043-1.72-0.537-3.664-1.639-5.659c-1.169-2.124-2.913-4.296-5.118-6.334
				C453.655,500.478,445.131,496.23,435.618,495.736z"/>
			<path id="_350537760" fill="none" d="M457.585,501.48c5.935,18.075-16.674,8.586-26.472-2.685"/>
			<path id="_350537688" fill="#1F1A17" d="M459.585,500.82c1.288,3.92,1.359,6.833,0.546,8.895
				c-0.846,2.148-2.495,3.359-4.685,3.801c-1.82,0.371-4.015,0.157-6.386-0.513c-6.4-1.801-12.996-6.828-17.976-12.554l1.616-3.041
				c4.49,5.165,11.798,9.931,17.5,11.537c6.405,1.853,9.043-1.164,5.963-7.65L459.585,500.82L459.585,500.82z"/>
		</g>
		<g>
			<path id="_350537592" fill="#FFFFFF" d="M518.577,292.673c-3.374,4.196-12.849,7.731-18.018,3.611
				c-5.241-4.177-1.378-12.088,2.043-16.341c3.569-4.433,11.527-11.675,16.997-7.322
				C525.923,277.667,522.711,287.536,518.577,292.673z"/>
			<path id="_350537520" fill="#1F1A17" d="M520.221,294.003c-2.119,2.637-6.267,5.032-10.516,5.887
				c-3.702,0.741-7.569,0.352-10.468-1.953l-0.019-0.019l-0.014-0.014l0,0c-3.35-2.694-3.83-6.462-2.932-10.207
				c0.798-3.34,2.761-6.662,4.614-8.985l0.067-0.086l0.005-0.005c2.252-2.799,6.172-6.657,10.278-8.429
				c3.288-1.416,6.705-1.582,9.679,0.784l0.038,0.028l0.005,0.005c3.806,3.06,4.761,7.474,4.148,11.87
				c-0.575,4.101-2.571,8.216-4.828,11.052l-0.005,0.005L520.221,294.003L520.221,294.003z M508.879,295.747
				c3.321-0.665,6.496-2.457,8.059-4.4l0.048-0.057l0,0c1.844-2.309,3.473-5.664,3.939-8.995c0.423-3.032-0.171-6.025-2.609-7.997
				l-0.038-0.029c-1.511-1.202-3.426-1.036-5.35-0.209c-3.378,1.454-6.724,4.775-8.677,7.204l0,0l-0.071,0.086
				c-1.54,1.934-3.165,4.657-3.801,7.327c-0.542,2.267-0.328,4.486,1.483,5.94l0.014,0.014l0.01,0.005l0,0
				C503.681,296.07,506.289,296.265,508.879,295.747L508.879,295.747z"/>
		</g>
		<path id="_350537424" fill="#FFFFFF" d="M370.472,322.932l-11.442,9.746c9.461,3.744,17.353,22.922,10.872,25.83
			c9.636,13.595,32.459-15.514,26.942-22.2C390.814,344.88,373.514,333.561,370.472,322.932L370.472,322.932z"/>
		<path id="_350537352" fill="#1F1A17" d="M369.589,326.457l-6.866,5.849c3.863,2.68,7.227,7.322,9.318,11.984
			c1.036,2.314,1.777,4.661,2.119,6.795c0.371,2.319,0.28,4.438-0.38,6.106h-0.01c-0.219,0.556-0.499,1.064-0.841,1.511
			c1.834,1.483,4.091,1.525,6.424,0.665v-0.005c1.91-0.708,3.873-1.958,5.735-3.526c1.92-1.616,3.754-3.583,5.346-5.659
			c2.742-3.583,4.775-7.356,5.189-9.959c-0.622,0.352-1.288,0.627-1.981,0.827c-2.248,0.641-4.785,0.475-7.365-0.304
			c-2.433-0.732-4.932-2.015-7.261-3.654C375.086,334.321,371.565,330.473,369.589,326.457L369.589,326.457z M357.657,331.076
			l11.442-9.746l2.499-2.129l0.903,3.15c1.169,4.086,4.771,8.344,8.943,11.28c1.972,1.388,4.053,2.461,6.039,3.06
			c1.839,0.556,3.573,0.699,5.004,0.285c1.031-0.295,1.934-0.903,2.623-1.886l1.592-2.262l1.763,2.138
			c2.956,3.583,0.323,11.238-4.676,17.771c-1.753,2.286-3.806,4.481-5.992,6.32c-2.247,1.886-4.628,3.402-6.975,4.272h-0.01
			c-4.714,1.744-9.289,1.126-12.635-3.602l-1.483-2.095l2.343-1.05c0.366-0.166,0.637-0.494,0.813-0.941h-0.005
			c0.375-0.946,0.399-2.309,0.147-3.892c-0.28-1.768-0.912-3.749-1.806-5.74c-2.214-4.937-5.959-9.788-9.941-11.361l-3.264-1.292
			L357.657,331.076L357.657,331.076z"/>
		<path id="_350537280" fill="#FFFFFF" d="M364.799,335.965c30.192-23.72,31.827-67.445,0.171-93.057
			c-30.249-24.476-71.038-37.714-93.56-15.942c-30.126,29.123-7.052,71.622,12.939,101.61
			C301.511,354.321,340.195,355.3,364.799,335.965L364.799,335.965z"/>
		<path id="_350537208" fill="#1F1A17" d="M363.492,334.307c29.617-23.274,30.273-65.369,0.147-89.75
			c-63.772-51.608-115.641-20.176-102.508,32.378c3.939,15.771,17.158,40.741,26.928,53.171
			C305.821,352.701,341.444,351.632,363.492,334.307L363.492,334.307z M376.597,327.313c-7.593,9.389-17.624,16.446-29.042,20.332
			c-24.504,8.344-52.934,1.715-64.97-17.895c-9.518-15.505-20.974-33.471-25.554-51.789c-6.743-26.989,3.364-51.014,24.424-60.151
			c31.651-13.728,77.219,10.924,95.646,34.378C394.829,274.74,394.43,305.27,376.597,327.313L376.597,327.313z"/>
		<path id="_350537136" fill="#1F1A17" d="M327.85,307.745c4.966,7.94,14.554,10.796,22.48,10.311
			c3.093-0.19,6.054-1.017,8.591-2.476c2.499-1.435,4.609-3.492,6.058-6.168c3.554-6.567,3.359-16.659-4.167-31.057
			c-1.597-3.055,0.903-3.868,2.704-0.922c9.356,15.296,9.37,26.253,5.184,33.979c-1.834,3.393-4.509,6.006-7.674,7.821
			c-3.122,1.796-6.719,2.808-10.444,3.036c-9.323,0.575-20.665-3.169-25.497-13.081C323.474,305.887,325.916,304.657,327.85,307.745
			L327.85,307.745z"/>
		<path id="_350537064" fill="#1F1A17" d="M310.944,254.427c1.349-0.898,4.177,0.561,6.32,3.26c2.143,2.699,2.784,5.617,1.44,6.519
			c-1.345,0.903-4.177-0.561-6.32-3.26C310.24,258.242,309.594,255.325,310.944,254.427z"/>
		<path id="_350536992" fill="#1F1A17" d="M325.997,239.64c1.349-0.898,4.177,0.561,6.32,3.26c2.143,2.699,2.784,5.617,1.44,6.519
			c-1.345,0.903-4.177-0.561-6.32-3.26C325.289,243.46,324.647,240.542,325.997,239.64z"/>
		<path id="_350536920" fill="#1F1A17" d="M280.628,374.73c10.525-9.964,5.407-36.854-4.025-47.598
			c-0.836-1.359-1.692-2.746-2.552-4.163c2.666,6.971,3.987,12.906,2.604,20.541c0.328,5.194-7.284,29.745-11.642,33.281
			c-6.096,4.947-10.069,3.844-4.029-1.24c4.585-3.863,12.188-27.607,11.528-32.782c2.238-12.407-5.768-26.4-11.399-36.93
			c-8.862-16.579-17.757-33.219-11.376-55.324c1.53-5.293,3.269-10.116,5.692-13.951c2.571-4.072,5.887-7.037,10.454-8.311
			l4.842-1.349l-2.433,4.4c-4.723,8.548-7.033,18.446-7.508,28.686c-0.546,11.703,1.288,23.853,4.633,34.958
			c3.535,11.737,9.465,21.359,14.773,29.974c9.313,11.532,15.048,40.517,3.896,50.928
			C276.755,382.689,273.358,381.61,280.628,374.73L280.628,374.73z M262.353,299.183c-0.342-0.993-0.67-2.005-0.979-3.032
			c-3.464-11.513-5.369-24.143-4.799-36.346c0.399-8.482,1.986-16.759,5.065-24.333c-0.974,0.955-1.848,2.076-2.642,3.336
			c-2.176,3.45-3.782,7.921-5.213,12.882C248.459,270.131,254.84,284.861,262.353,299.183L262.353,299.183z"/>
		<path id="_350536848" fill="#1F1A17" d="M385.778,242.985c-14.07,0.185-11.033-12.62-23.036-20.708
			c-8.52-5.745-29.004-9.608-39.543-10.972c-5.768-0.746-11.627-1.074-16.944-1.174c-9.275-0.176-17.006,1.606-22.761,4.699
			c-3.877,2.081-6.842,4.756-8.748,7.807c7.009-3.321,13.918-5.156,20.603-5.849c9.665-1.003,18.826,0.375,27.099,3.079
			c3.768,1.231,8.553,2.143,13.576,3.098c11.242,2.138,21.639,4.728,28.173,11.589c5.688,7.322,20.879,22.542,29.28,18.075
			c2-1.064,3.34,1.036,0.447,2.851c-8.829,5.545-23.649-11.071-30.767-18.246c-5.598-5.878-17.301-8.106-27.906-10.126
			c-5.175-0.984-10.107-1.924-14.103-3.231c-7.769-2.537-16.346-3.839-25.369-2.903c-7.769,0.808-15.89,3.274-24.124,8.04
			l-4.186,2.423l1.074-4.709c1.449-6.358,5.968-11.87,12.958-15.623c6.358-3.416,14.797-5.384,24.828-5.194
			c5.455,0.105,11.471,0.437,17.405,1.207c11.143,1.44,30.739,5.156,39.786,11.252c12.064,6.329,11.917,22.385,23.654,20.579
			C392.492,238.133,391.275,242.909,385.778,242.985L385.778,242.985z"/>
		<path id="_350536776" fill="#1F1A17" d="M265.755,295.486c-3.445,6.063-4.452,11.071-3.911,14.958
			c0.356,2.58,1.416,4.666,2.879,6.215c1.464,1.549,3.345,2.585,5.355,3.079c2.599,0.632,5.407,0.366,7.812-0.879l1.934,3.749
			c-3.326,1.715-7.18,2.095-10.734,1.226c-2.789-0.68-5.398-2.124-7.436-4.286c-2.038-2.157-3.502-5.018-3.987-8.529
			c-0.66-4.733,0.47-10.663,4.424-17.614L265.755,295.486L265.755,295.486z"/>
		<path id="_350536704" fill="#1F1A17" d="M333.224,220.989c7.246-3.393,13.243-4.053,17.914-3.022
			c3.459,0.765,6.196,2.447,8.187,4.647c1.991,2.2,3.226,4.918,3.682,7.74c0.014,4.172,0.261,6.852-2.067,10.606l-3.588-2.214
			c1.444-7.28,1.392-14.792-7.128-16.669c-3.83-0.846-8.9-0.233-15.22,2.723L333.224,220.989L333.224,220.989z"/>
		<path id="_350536632" fill="#FFFFFF" d="M371.095,368.795c-6.643-3.022-19.377,2.732-28.206,9.779
			c3.602,2.509,12.217,10.112,15.818,12.62C368.396,383.677,382.257,373.874,371.095,368.795z"/>
		<path id="_350536560" fill="#1F1A17" d="M370.216,370.719c-2.552-1.159-6.41-0.68-10.634,0.789
			c-4.391,1.521-9.085,4.101-13.191,7.056c1.682,1.326,3.721,3.008,5.754,4.69c2.39,1.977,4.78,3.958,6.534,5.293l0.508-0.39
			c5.512-4.243,11.779-9.071,13.533-12.925C373.49,373.546,372.981,371.978,370.216,370.719z M358.208,367.526
			c5.194-1.801,10.14-2.3,13.761-0.651c5.583,2.542,6.424,6.101,4.6,10.116c-2.181,4.79-8.895,9.959-14.806,14.512l-1.768,1.364
			l-1.231,0.95l-1.264-0.884c-1.863-1.297-4.956-3.858-8.049-6.419c-3.013-2.495-6.03-4.989-7.769-6.201l-2.324-1.616l2.214-1.768
			C346.467,373.019,352.544,369.489,358.208,367.526L358.208,367.526z"/>
		<path id="_350536488" fill="#FFFFFF" d="M396.806,329.37c1.288-9.114,14.198-17.757,23.15-18.845
			c0.238,4.381,2.176,15.709,2.414,20.09C410.885,334.906,395.091,341.511,396.806,329.37z"/>
		<path id="_350536416" fill="#1F1A17" d="M394.715,329.08c0.684-4.837,4.129-9.461,8.6-13.1c4.951-4.029,11.257-6.928,16.393-7.555
			l2.233-0.271l0.124,2.262c0.114,2.091,0.651,5.982,1.193,9.869c0.546,3.963,1.098,7.931,1.221,10.221l0.086,1.54l-3.359,1.259
			c-7.085,2.67-15.243,5.74-20.518,4.994C396.369,337.695,393.87,335.091,394.715,329.08L394.715,329.08z M405.972,319.254
			c-3.711,3.022-6.557,6.724-7.08,10.406c-0.418,2.96,0.589,4.215,2.366,4.462c5.735,0.808,13.704-2.975,18.878-4.923
			c-0.214-2.181-0.642-5.26-1.069-8.33c-0.39-2.813-0.779-5.631-1.017-7.845C414.117,313.984,409.65,316.26,405.972,319.254
			L405.972,319.254z"/>
		<g>
			<path id="_350536344" fill="#FFFFFF" d="M551.991,328.42l-54.696,42.827c9.836-8.13,57.215-44.385,67.051-52.515
				c-4.457-17.985-17.234-34.63-28.529-30.016C524.878,293.181,532.21,318.57,551.991,328.42L551.991,328.42z"/>
			<path id="_350536272" fill="#1F1A17" d="M495.955,369.622c5.08-4.201,19.33-15.253,33.571-26.301
				c6.543-5.075,13.091-10.154,18.722-14.55c-8.372-5.037-14.303-12.739-17.315-20.114c-1.302-3.198-2.072-6.344-2.262-9.204
				c-0.204-3.008,0.233-5.754,1.345-7.983c1.064-2.138,2.727-3.778,5.008-4.709c0.575-0.233,1.159-0.428,1.744-0.57
				c5.293-1.311,10.644,0.993,15.395,5.521c4.457,4.243,8.429,10.506,11.285,17.496c1.183,2.903,2.186,5.94,2.946,9.009
				c-5.303,4.999-27.683,23.316-34.279,28.439c-14.36,11.138-28.724,22.281-33.48,26.215L495.955,369.622L495.955,369.622z
				 M551.844,325.968c4.319-3.378,7.864-6.182,10.126-8.011c-0.665-2.442-1.483-4.847-2.428-7.161
				c-2.642-6.462-6.263-12.202-10.283-16.032c-3.597-3.426-12.316-7.755-15.476-1.411c-0.755,1.521-1.045,3.53-0.893,5.821
				c0.162,2.438,0.827,5.146,1.958,7.911C537.717,314.108,543.557,321.478,551.844,325.968z"/>
			<path id="_350536200" fill="none" d="M534.609,311.613c2.257-18.888,18.741-0.737,22.86,13.618"/>
			<path id="_350536128" fill="#1F1A17" d="M532.519,311.366c0.584-4.918,2.87-11.257,9.114-9.755
				c1.81,0.437,3.711,1.559,5.574,3.16c5.042,4.338,8.7,12.079,10.791,19.368l-2.561,1.677c-1.886-6.586-6.496-13.998-10.981-17.857
				c-4.961-4.875-8.463-2.3-8.62,3.687L532.519,311.366L532.519,311.366z"/>
		</g>
		<path id="_350536032" fill="#FFFFFF" d="M385.136,350.867c-41.838,0.993-18.113,32.796,21.734,30.24
			c-3.83,28.738-0.062,48.139,25.792,43.554c14.236-2.528-1.354,43.302-33.276,19.995c-4.395,29.023,32.639,36.697,50.087,10.088
			c14.131-21.554,32.136,1.763,46.528-16.137c15.163-18.859-7.432-36.54,17.092-36.388c15.6,0.1,29.27-11.204,20.323-23.274
			c-13.167-17.762,20.176-35.704-17.443-52.33c-1.131,52.905-37.096,15.049-90.058,36.422
			C425.15,315.975,378.835,319.439,385.136,350.867L385.136,350.867z"/>
		<path id="_350535960" fill="#1F1A17" d="M366.281,358.412c-1.003,1.283-1.259,2.765-0.874,4.31
			c0.442,1.791,1.701,3.706,3.645,5.578c6.633,6.401,20.907,13.457,38.028,12.359c-0.656,5.403-2.509,25.041,1.145,32.825
			c3.255,6.938,12.283,11.181,24.081,9.09c3.169-0.561,5.374,0.589,6.662,2.808c3.127,5.398-3.825,19.111-11.832,23.754
			c-6.814,3.949-15.557,4.139-26.97-3.412c-0.76,9.537,4.333,19.13,14.093,22.138c12.887,4.158,26.405-3.53,33.452-14.279
			c8.078-12.321,17.139-11.29,26.191-10.264c7.151,0.813,14.298,1.625,20.461-6.039c6.367-7.921,5.474-15.804,4.78-21.957
			c-0.214-1.905-0.413-3.668-0.404-5.346c0.038-6.158,2.49-9.945,14.364-9.869c6.125,0.038,11.908-1.791,15.899-4.752
			c5.122-3.801,6.819-9.636,2.727-15.158c-5.854-7.897-3.602-15.481-1.373-22.993c2.761-9.294,5.483-18.465-12.388-27.327
			c-1.53,30.453-15.243,29.698-37.5,28.472c-14.459-0.798-32.815-1.81-53.77,6.643c-0.95,0.38-1.896,0.765-2.841,1.145
			c-0.019-1.022-0.033-2.048-0.048-3.07c-0.28-17.154-6.766-27.161-14.336-31.299c-3.008-1.644-6.177-2.357-9.171-2.214
			c-2.937,0.143-5.707,1.112-7.964,2.832c-6.61,5.042-6.101,13.1-4.647,20.342C381.002,351.674,370.677,352.791,366.281,358.412
			L366.281,358.412z M382.679,348.857c-2.015-16.018,14.013-28.881,28.814-20.784c8.263,4.524,15.414,16.479,16.422,33.599
			c20.646-7.641,38.555-8.32,52.791-7.531c20.304,1.121,32.539,1.796,33.171-27.56c0.024-1.055,0.043-2.11,0.067-3.169
			c0.965,0.428,1.924,0.851,2.889,1.278c24.381,10.777,21.003,22.162,17.572,33.713c-1.934,6.515-3.887,13.091,0.713,19.297
			c5.488,7.403,3.359,15.899-3.602,21.055c-4.685,3.473-11.39,5.621-18.427,5.578c-8.387-0.052-10.116,2.129-10.135,5.673
			c-0.01,1.373,0.181,3.051,0.385,4.866c0.784,6.914,1.787,15.771-5.688,25.065c-7.617,9.475-15.913,8.534-24.21,7.588
			c-7.769-0.879-15.543-1.763-22.195,8.382c-8.111,12.373-23.578,20.722-38.275,15.98c-4.448-1.435-8.344-4.025-11.19-7.66
			c-5.488-7.004-5.208-15.058-3.953-23.316c8.163,5.959,18.194,11.789,28.078,5.65c4.044-2.509,6.961-6.462,8.563-10.316
			c1.506-3.621,1.853-7.004,0.85-8.738c-0.375-0.651-1.126-0.969-2.281-0.76c-14.051,2.495-22.171-1.677-26.296-10.468
			c-3.668-7.816-3.892-19.301-2.262-32.943c-17.244,0.504-31.361-5.241-38.346-11.984c-2.518-2.428-4.177-5.037-4.813-7.607
			C358.427,352.14,374.877,349.289,382.679,348.857L382.679,348.857z"/>
		<g>
			<path id="_350535888" fill="#FFFFFF" d="M413.689,397.509c-2.666,6.914-10.634,9.565-17.8,5.921
				c-7.165-3.64-10.815-12.198-8.154-19.106s10.634-9.565,17.8-5.921S416.355,390.595,413.689,397.509z"/>
			<path id="_350535816" fill="#1F1A17" d="M415.656,398.269c-2.965,7.693-11.385,10.772-19.049,7.783
				c-0.565-0.219-1.126-0.466-1.668-0.741c-14.759-7.47-8.753-22.765-8.563-23.103C396.379,364.599,422.418,380.736,415.656,398.269
				L415.656,398.269z M408.605,383.359c-5.617-5.626-15.514-7.085-18.897,1.725c-3.626,9.437,6.643,20.579,16.194,17.31
				C414.055,399.609,414.145,388.909,408.605,383.359L408.605,383.359z"/>
		</g>
		<path id="_350535720" fill="#1F1A17" d="M514.971,303.507c-13.884,6.662-26.614,19.986-40.66,36.602
			c-17.795,19.658-36.711,40.556-61.092,49.398l-2.048-4.547c23.283-8.444,41.796-28.904,59.215-48.144
			c13.96-15.424,27.232-30.083,41.972-37.619L514.971,303.507L514.971,303.507z"/>
		<g>
			<path id="_350535648" fill="#FFFFFF" d="M267.632,366.633c-3.839-3.778-13.656-6.187-18.318-1.497
				c-4.718,4.756,0.033,12.169,3.925,15.994c4.058,3.991,12.806,10.259,17.728,5.298
				C276.67,380.688,272.331,371.256,267.632,366.633z"/>
			<path id="_350535576" fill="#1F1A17" d="M255.363,364.68c-5.902,0.827-9.579,6.073-0.722,14.868l0,0
				c10.259,9.969,16.103,7.051,16.612,0.96C271.975,371.817,264.178,363.44,255.363,364.68z M257.972,360.494
				c9.38,0.765,14.892,7.047,16.797,13.656c2.609,9.057-1.554,18.731-11.808,15.671c-7.47-2.233-23.559-14.958-15.167-26.148
				C249.633,361.216,254.527,360.213,257.972,360.494L257.972,360.494z"/>
		</g>
	</g>
	<path id="_350535456" fill="#1F1A17" d="M306.273,169.201c-3.065-0.252-5.935-0.276-8.615-0.067
		c-2.765,0.209-5.602-0.043-8.51-0.755c-1.188-0.285-2.271-0.798-3.245-1.544c-1.003-0.736-1.858-1.597-2.561-2.561
		c-1.872-2.537-2.228-5.141-1.074-7.821c1.159-2.68,3.397-4.229,6.705-4.647c0.594-0.057,1.269,0.009,2.015,0.19
		c0.713,0.209,1.326,0.451,1.839,0.746c-0.223-0.532-0.371-1.164-0.456-1.886c-0.071-0.741-0.019-1.407,0.162-1.986
		c1.036-3.165,2.979-5.056,5.835-5.683c2.856-0.613,5.35,0.233,7.479,2.542c0.808,0.879,1.483,1.882,2.019,3.003
		c0.532,1.102,0.831,2.267,0.893,3.483c0.133,3.013-0.171,5.849-0.898,8.505C307.133,163.328,306.605,166.15,306.273,169.201
		L306.273,169.201z"/>
	<path id="_350535384" fill="#1F1A17" d="M327.76,140.615c-1.863-2.447-3.763-4.595-5.716-6.443
		c-2.005-1.915-3.716-4.191-5.137-6.828c-0.58-1.074-0.927-2.224-1.026-3.445c-0.124-1.24-0.057-2.447,0.19-3.616
		c0.632-3.089,2.328-5.099,5.089-6.03c2.77-0.931,5.417-0.309,7.94,1.872c0.437,0.404,0.841,0.946,1.207,1.625
		c0.323,0.67,0.551,1.288,0.675,1.867c0.247-0.523,0.613-1.055,1.098-1.601c0.508-0.546,1.036-0.95,1.582-1.207
		c3.041-1.349,5.754-1.169,8.125,0.532c2.366,1.711,3.407,4.134,3.117,7.261c-0.114,1.188-0.409,2.362-0.879,3.511
		c-0.461,1.136-1.126,2.134-1.991,2.994c-2.153,2.115-4.462,3.787-6.923,5.023C332.697,137.327,330.245,138.823,327.76,140.615
		L327.76,140.615z"/>
	<path id="_350535312" fill="#1F1A17" d="M300.794,133.986c-4.229-1.022-8.244-1.673-12.041-1.962
		c-3.911-0.309-7.831-1.273-11.751-2.903c-1.601-0.661-3.008-1.611-4.21-2.865c-1.245-1.25-2.252-2.637-3.027-4.139
		c-2.072-3.953-2.005-7.679,0.195-11.176c2.205-3.502,5.673-5.184,10.397-5.051c0.841,0.047,1.772,0.285,2.78,0.703
		c0.95,0.442,1.758,0.922,2.414,1.445c-0.195-0.794-0.266-1.706-0.228-2.737c0.067-1.055,0.28-1.972,0.656-2.742
		c2.134-4.2,5.27-6.429,9.399-6.686c4.129-0.238,7.436,1.492,9.917,5.184c0.941,1.407,1.663,2.956,2.176,4.642
		c0.508,1.663,0.67,3.35,0.494,5.065c-0.47,4.248-1.506,8.154-3.103,11.708C303.265,125.956,301.915,129.79,300.794,133.986z"/>
	<path id="_350535240" fill="#1F1A17" d="M386.02,458.392c-1.829,30.335,23.316,30.197,32.611,25.92
		C399.805,487.886,388.933,479.243,386.02,458.392z"/>
	<path id="_350535168" fill="#1F1A17" d="M389.322,452.975c2.599,25.806,24.333,29.156,31.784,26.766
		C405.312,480.212,394.72,471.293,389.322,452.975z"/>
	<path id="_350535096" fill="#1F1A17" d="M264.838,454.22c-10.972-7.921-27.626-30.216-30.99-37.59
		C245.209,431.08,257.254,444.342,264.838,454.22z"/>
	<path id="_350535024" fill="#1F1A17" d="M257.701,455.489c-9.613-6.942-24.21-26.481-27.156-32.943
		C240.5,435.209,251.053,446.831,257.701,455.489z"/>
</g>
</svg>
