<?xml version="1.0" encoding="utf-8"?>
<!-- Generator: Adobe Illustrator 17.0.0, SVG Export Plug-In . SVG Version: 6.00 Build 0)  -->
<!DOCTYPE svg PUBLIC "-//W3C//DTD SVG 1.1//EN" "http://www.w3.org/Graphics/SVG/1.1/DTD/svg11.dtd">
<svg version="1.1" id="Layer_1" xmlns="http://www.w3.org/2000/svg" xmlns:xlink="http://www.w3.org/1999/xlink" x="0px" y="0px"
	 width="800px" height="600px" viewBox="0 0 800 600" enable-background="new 0 0 800 600" xml:space="preserve">
<g>
	<path fill="#231F20" d="M424.9,407.422c-0.466-3.913-5.249-6.001-8.657-4.335c-0.286,0.136-0.387,0.409-0.387,0.703
		c-1.324,0.695-2.256,2.036-2.541,3.482c-0.791,3.974,2.92,6.814,6.639,6.454C423.066,413.427,425.274,410.473,424.9,407.422z
		 M420.16,411.458c-2.277,0.624-4.841-0.976-4.841-3.386c0-1.829,1.227-2.836,2.704-3.192c1.869,0.211,3.882,0.378,4.546,2.41
		C423.159,409.079,421.888,410.965,420.16,411.458z"/>
	<path fill="#231F20" d="M407.494,352.332c-0.752-1.068-1.847-1.385-3.007-1.261c-2.097-0.071-4.089,0.4-5.281,2.343
		c-1.363,2.207,0.185,4.906,1.565,6.656c1.943,2.466,4.652,1.284,6.085-0.985C407.986,357.287,408.826,354.244,407.494,352.332z
		 M405.225,357.08c-0.29,0.642-0.66,1.244-1.17,1.741c-0.343,0.326-0.69,0.387-0.853,0.317c-1.187-0.537-2.106-2.445-2.229-3.755
		c0.981-0.51,1.895-1.161,2.924-1.548c0.545-0.211,1.372-0.312,1.495-0.202C406.069,354.183,405.634,356.104,405.225,357.08z"/>
	<path fill="#231F20" d="M396.256,298.575c-1.904-4.128-6.947-1.415-8.89,1.046c-0.141,0.176-0.203,0.4-0.224,0.611
		c-0.611,1.108-0.906,2.418-0.699,3.803c0.598,3.957,5.377,5.047,8.265,2.792C397.078,304.989,397.447,301.138,396.256,298.575z
		 M393.724,304.339c-1.099,1.816-4.195,1.785-4.924-0.361c-0.404-1.191-0.079-2.339,0.589-3.297c1.323-0.976,3.531-2.484,4.52-1.209
		C394.942,300.835,394.537,302.997,393.724,304.339z"/>
	<path fill="#231F20" d="M585.697,254.6c-1.464-6.771-8.12-8.34-14.139-7.294c2.88-2.154,5.359-4.88,7.162-7.87
		c0.404-0.673-0.013-1.407-0.682-1.662c-5.715-2.255-13.757,0.928-18.637,5.742c0.721-4.568,0.07-10.011-1.209-14.087
		c-0.286-0.91-1.447-1.266-2.154-0.563c-5.324,5.351-6.604,13.744-4.273,20.822c-8.02-1.13-16.509-0.875-24.467-1.539
		c-10.943-0.932-22.11-1.086-32.997,0.44c-9.681,1.336-19.191,3.693-28.674,5.979c-6.336,1.53-12.803,2.537-19.191,3.785
		c0.14-1.913,0.435-3.803,1.007-5.667c0.04-0.035,0.101-0.061,0.149-0.101c0.185-0.132,0.167-0.405,0.044-0.541
		c0.009-0.048,0.026-0.079,0.031-0.118c0.101-0.286-0.356-0.479-0.479-0.202c-0.053,0.11-0.092,0.224-0.145,0.334
		c-4.634,1.82-9.378,3.355-14.205,4.568c18.914-7.764,35.661-21.117,47.532-37.679c0.281,0,0.55-0.11,0.699-0.422
		c0.268-0.593,0.563-1.174,0.844-1.772c0.866-1.284,1.719-2.585,2.532-3.909c4.876-7.905,8.31-16.487,10.561-25.386
		c5.104-13.146,8.78-26.722,9.052-41.289c0.233-12.908-3.051-25.32-8.749-36.588c5.878,5.127,14.527,5.957,20.906,0.976
		c6.459-5.043,10.6-12.42,13.212-20.07c4.946-14.535,3.997-32.922-6.806-44.63c-10.31-11.163-26.516-9.747-39.051-3.513
		c-11.968,5.944-23.016,19.319-17.107,33.142c-32.165-24.564-77.582-31.665-114.962-15.265c-8.389,3.671-16.309,8.371-23.573,13.933
		c-0.62-2.44-3.346-5.241-4.583-6.916c-0.488-0.66-1.271-0.796-1.913-0.237c-1.071,0.897-2.124,1.943-3.146,3.065
		c-0.163-7.641-5.219-15.177-9.996-20.651c-5.12-5.856-11.809-10.323-19.336-12.346c-13.166-3.539-26.554,2.744-34.188,13.528
		c-9.039,12.755-8.239,30.491-0.451,43.536c7.442,12.447,27.103,24.801,41.273,15.718c0.62,0.369,1.295,0.554,2.031,0.576
		c-10.802,21.789-10.486,46.771-4.337,69.941c1.123,11.444,4.645,22.664,10.176,32.943c11.739,21.812,31.383,37.13,53.84,45.004
		c-0.439-0.079-0.883-0.132-1.323-0.215c-2.968-0.537-5.878-1.363-8.727-2.326c-2.941-0.981-5.654-2.955-8.657-3.623
		c-0.218-0.044-0.411-0.018-0.589,0.031c-0.426-0.426-1.27-0.255-1.347,0.541c-0.326,3.016-0.503,6.164-0.481,9.339
		c-11.855-2.484-23.61-5.127-35.411-8.266c-9.749-2.603-21.737-5.887-32.702-6.01c-0.009-0.154-0.009-0.312-0.031-0.453
		c-0.061-0.339-0.374-0.519-0.699-0.523c-0.519-3.284-1.556-6.6-2.794-9.549c-1.169-2.796-2.719-6.899-5.575-8.464
		c-1.836-1.007-3.168,0.673-3.463,2.33c-0.178,1.016-0.193,2.066-0.101,3.143c-3.509-4.599-9.075-7.896-14.797-6.45
		c-0.721,0.185-1.022,1.038-0.681,1.658c1.904,3.368,4.381,6.326,7.015,9.145c1.789,1.904,3.779,4.076,5.955,5.799
		c-4.838-3.082-11.22-2.919-16.625-1.46c-1.06,0.277-1.022,1.521-0.271,2.097c3.849,2.959,9.578,4.607,14.867,4.537
		c-3.205,2.299-5.35,6.335-5.847,10.051c-0.077,0.541,0.552,1.148,1.077,1.086c3.3-0.374,6.643-1.978,9.54-4.137
		c-1.728,4.291-2.152,9.919,2.889,9.162c3.693-0.541,5.366-3.891,6.683-7.07c0.789-1.877,1.781-4.137,2.385-6.406
		c3.686,0.791,7.411,1.477,11.042,2.418c7.806,2.005,15.333,4.863,22.99,7.334c11.453,3.693,23.48,8.468,35.621,10.147
		c0.497,2.335,1.178,4.594,2.132,6.74c0.418,0.958,1.447,0.774,1.979,0.154c6.863,2.532,16.527,4.335,23.487,2.115
		c-1.882,5.14-3.46,10.389-4.854,15.559c-4.089,15.261-6.502,30.996-8.384,46.652c-3.926,32.57-3.355,67.044,6.951,98.471
		c0.374,1.139,1.868,1.315,2.541,0.598c9.167,0.796,18.307,2.282,27.461,3.5c0.391,8.432,3.522,16.887,5.171,25.096
		c2.123,10.578,3.926,21.218,5.227,31.928c2.502,20.51,3.254,41.746-0.365,62.225c-0.853-0.286-1.851,0.281-2.013,1.148
		c-0.897,0.123-1.803,0.343-2.717,0.435c-3.13,0.308-6.274,0.326-9.4,0.427c-5.869,0.176-12.042,0.378-17.455,2.858
		c-6.806,3.113-19.16,11.506-10.934,19.644c6.89,6.823,20.123,6.529,28.723,4.265c12.486-3.276,21.57-14.667,15.314-26.824
		c8.076-18.497,8.564-38.277,7.294-58.449c-0.673-10.719-2.313-21.372-4.071-31.95c-1.636-9.897-4.414-19.763-5.659-29.73
		c6.23,0.62,12.474,0.985,18.739,0.748c14.935-0.545,29.659-4.907,42.836-11.827c0.229-0.114,0.448-0.255,0.682-0.387
		c2.48,12.372,9.048,25.315,19.059,28.684c9.101,3.051,16.58-1.583,22.788-8.011c3.812-3.939,8.305-9.84,10.789-15.973
		c0.132,2.524,0.307,5.078,0.268,7.597c-0.066,4.282-0.176,8.586-0.268,12.86c-0.119,6.072-0.567,12.275,1.363,18.131
		c1.596,4.836,6.257,8.397,11.466,7.809c5.184-0.594,8.138-5.997,9.875-10.314c3.803-9.422,0.66-20.857-2.989-29.849
		c-1.922-4.739-4.577-9.387-8.481-12.772c-2.352-2.058-6.27-3.917-9.338-2.585c-0.022-0.55-0.062-1.117-0.136-1.658
		c-0.149-1.051-1.605-1.007-2.075-0.277c-5.716,8.863-18.58,36.54-32.891,25.43c-7.176-5.593-9.47-15.195-10.622-24.384
		c9.338-6.305,17.679-14.096,25.061-22.559c9.734-11.181,19.037-24.625,19.086-39.903c-0.11-0.682-0.194-1.35-0.255-2.023
		c-0.334-0.114-0.673-0.246-1.007-0.426c-0.589-0.286-1.148-0.655-1.688-1.09c-11.273-4.366-21.095-11.027-30.605-18.514
		c-9.778-7.698-19.073-16.021-27.932-24.775c-9.554-9.444-18.506-19.534-26.521-30.337c-2.383-3.214-4.647-6.529-6.814-9.897
		c3.517,0.176,7.171-0.488,10.464-1.249c5.39-1.253,11.598-3.073,16.562-5.755c0.497,0.035,1.024-0.308,1.209-0.818
		c0.014-0.04,0.014-0.092,0.031-0.141c0.009-0.053,0.031-0.092,0.031-0.145c0.101-1.411,0.106-2.836,0.084-4.269
		c5.561-0.466,11.348-2.282,16.408-3.614c9.572-2.519,18.927-5.733,28.578-7.993c10.653-2.493,21.697-2.902,32.583-3.143
		c9.083-0.202,19.182,0.914,28.367-0.479c-0.193,6.705,3.654,14.698,7.866,18.809c0.396,0.378,1.077,0.317,1.354-0.172
		c1.868-3.297,2.757-6.797,1.93-10.345c1.178,1.086,2.471,2.044,3.662,2.981c2.277,1.759,5.056,3.751,8.059,3.803
		c2.699,0.04,3.882-2.81,3.416-5.078c-0.488-2.295-2.633-4.344-4.832-5.632c3.851,0.189,7.87-0.541,11.123-1.578
		C585.521,255.739,585.82,255.193,585.697,254.6z M261.168,261.599c-0.814,1.262-2.06,2.176-3.665,1.957
		c-1.323-0.198-0.989-2.462-0.912-3.328c0.2-2.185,1.038-4.164,1.95-6.133c0.892-0.879,1.728-1.811,2.425-2.761
		c0.442-0.615-0.38-1.169-0.921-0.923c-4.647,2.119-7.536,6.634-12.583,7.905c0.936-3.746,3.601-6.032,6.001-8.907
		c0.982-0.127,1.935-0.307,2.827-0.585c0.998-0.294,0.765-1.706-0.242-1.767c-5.808-0.317-11.337,0.123-16.454-2.476
		c4.77-0.831,9.462-0.233,14.232,0.998c0.148,0.044,0.295-0.083,0.295-0.233c0.635,0.439,1.277,0.835,1.936,1.187
		c0.875,0.431,1.658-0.598,1.029-1.341c-2.3-2.66-5.335-4.788-7.813-7.32c-2.44-2.484-4.678-5.179-6.529-8.12
		c5.654-0.515,9.688,4.295,13.359,8.305c0.38,1.359,0.875,2.651,1.378,3.843c0.402,0.945,1.719,0.224,1.565-0.659
		c-0.512-2.801-1.255-5.597-1.319-8.455c-0.006-0.62,0.374-1.851,0.079-1.904c0.774,0.14,1.541,1.556,1.922,2.097
		c1.803,2.686,3.043,5.79,3.979,8.859c0.721,2.348,1.2,4.81,2.222,7.039C264.311,253.096,263.738,257.647,261.168,261.599z
		 M380.112,591.93c-6.415,1.108-20.427,0.888-23.544-6.529c-1.622-3.865,3.241-7.47,5.856-9.29
		c5.056-3.535,10.236-5.135,16.316-5.663c5.026-0.431,10.091-0.308,15.116-0.879c1.059-0.127,2.51-0.29,3.68-0.769
		C403.651,580.995,391.596,589.964,380.112,591.93z M523.037,436.676c3.144,3.113,5.14,7.448,6.745,11.502
		c2.902,7.338,5.474,16.738,3.438,24.586c-1.187,4.568-4.304,11.638-10.103,10.838c-6.212-0.858-7.329-8.138-7.637-13.155
		c-0.294-4.788,0.075-9.659,0.145-14.452c0.119-7.307,1.556-16.012-0.818-23.06c-0.04-0.136-0.119-0.264-0.202-0.365
		C517.849,433.471,520.39,434.043,523.037,436.676z M493.17,105.524c-2.857-4.986-6.203-9.707-9.923-14.13
		c0.079-0.031,0.172-0.062,0.255-0.097c0.048,0.035,0.11,0.048,0.167,0.035c0.092-0.027,0.136-0.088,0.176-0.158
		c5.593-1.881,13.296,0.251,17.895,3.843C499.502,99.316,496.653,102.349,493.17,105.524z M519.968,47.119
		c0.747,0.712,1.42,1.486,2.062,2.269c-0.409-0.299-1.055-0.33-1.411,0.242c-8.569,13.427-18.677,25.126-32.631,33.168
		c-0.268,0.154-0.031,0.558,0.25,0.426c14.417-6.973,25.839-19.046,34.039-32.631c0.163-0.264,0.189-0.528,0.11-0.756
		c7.487,9.567,8.107,23.487,5.615,34.896c-1.433,6.538-4.19,12.895-8.301,18.176c-2.704,3.477-5.957,6.489-10.244,7.795
		c-4.911,1.513-9.092-1.275-13.058-3.737c3.702-2.717,6.767-8.89,8.033-11.941c0.035-0.097,0.053-0.194,0.062-0.303
		c12.799-5.39,22.053-18.066,23.104-32.051c0.049-0.62-0.857-0.69-1.02-0.154c-1.983,6.52-3.733,12.816-7.465,18.606
		c-3.619,5.632-8.939,9.936-14.94,12.777c-0.022-0.013-0.031-0.044-0.053-0.053c-3.61-2.937-8.371-4.647-12.97-5.232
		c-1.547-0.198-4.752-0.554-6.753,0.316c0.04-0.172,0.084-0.352,0.11-0.58c0.176-2.014,0.299-4.054,0.431-6.072
		c0.255-3.913,0.677-7.9,0.427-11.818c-0.031-0.598-0.488-1.209-1.143-1.161c-1.35,0.092-3.078,0.145-4.92,0.268
		c2.686-5.109,5.645-9.492,10.209-13.374c5.069-4.304,11.396-7.756,17.71-9.796c0.237-0.075,0.131-0.448-0.11-0.378
		c-12.113,3.1-26.102,10.772-29.862,23.72c-3.715,0.382-7.501,1.231-9.329,3.46c-0.031,0.04-0.049,0.088-0.071,0.123
		C462.605,47.832,502.052,29.762,519.968,47.119z M483.001,90.065c-0.123,0.211-0.215,0.453-0.272,0.708
		c-1.183-1.372-2.392-2.735-3.653-4.05c-3.399-3.557-7.057-6.841-10.895-9.897c0.488-0.475,0.892-0.963,1.556-1.323
		c0.945-0.519,2.013-0.809,3.029-1.157c0.422-0.145,0.615-0.549,0.611-0.936c0.651-0.211,1.314-0.418,1.996-0.558
		c2.541-0.567,5.149-0.857,7.742-1.13c0.189,3.785-0.105,7.641-0.277,11.405C482.738,85.453,482.39,87.854,483.001,90.065z
		 M321.986,69.586c1.277,2.036,2.44,4.445,4.065,6.072c-5.24,4.221-10.103,8.881-14.487,13.968
		C312.817,82.31,316.086,74.062,321.986,69.586z M274.951,108.294c-7.714-2.669-14.032-8.749-18.338-15.516
		c-7.65-11.981-7.604-28.033-0.077-40.023c6.474-10.336,18.795-15.718,30.734-13.295c6.628,1.359,12.399,5.236,17.169,9.884
		c3.251,3.165,5.916,6.877,8.062,10.864c2.167,4.058,2.646,8.2,3.554,12.583c-4.236,5.694-7.327,13.018-6.854,19.508
		c-2.369-0.202-4.801-0.73-7.147-0.809c-4.15-0.158-8.518-0.378-12.568,0.669c-0.681,0.172-1.101,0.923-0.908,1.587
		c0.914,3.122,2.277,11.699,5.817,15.177C287.682,109.837,281.711,110.633,274.951,108.294z M293.582,101.87
		c-0.897-2.44-1.471-5.003-2.152-7.523c4.095-0.866,8.47-0.541,12.623-0.541c1.022,0,2.594,0.101,4.049-0.062
		c-3.546,4.586-6.707,9.466-9.424,14.627C296.286,106.412,294.807,105.137,293.582,101.87z M292.32,161.625
		c-0.356-2.831-0.642-5.689-0.798-8.556c-0.706-13.805,1.858-27.343,7.628-39.886c9.433-20.568,26.863-36.945,46.703-47.36
		c44.454-23.381,102.001-10.508,134.861,26.582c14.298,16.131,21.715,36.901,20.532,58.422c-0.374,6.727-1.614,13.379-3.355,19.908
		c0.154-1.451,0.277-2.902,0.378-4.361c0.211-3.214,0.251-6.393,0.189-9.572c-0.325-3.179-0.668-6.402-1.094-9.607
		c-0.106-0.484-0.198-0.967-0.303-1.46c-1.284-12.056-4.151-23.887-10.468-34.39c-6.257-10.407-16.215-17.652-27.096-23.051
		c-0.136-1.759-0.193-3.522-0.145-5.281c0.009-0.285-0.448-0.356-0.488-0.07c-0.264,1.587-0.378,3.214-0.396,4.854
		c-5.715-2.761-11.651-5.038-17.437-6.999c-1.218-0.409-2.44-0.805-3.671-1.178c-0.053-1.772-0.062-3.522-0.009-5.272
		c0.018-0.374-0.593-0.461-0.651-0.083c-0.238,1.671-0.387,3.337-0.479,5.008c-9.36-2.84-19.05-4.832-28.824-5.931
		c0.29-0.959,0.589-1.904,0.945-2.805c0.141-0.369-0.417-0.563-0.611-0.255c-0.602,0.932-1.112,1.908-1.556,2.919
		c-2.475-0.255-4.955-0.479-7.439-0.624c0.493-1.157,1.051-2.269,1.71-3.293c0.185-0.277-0.255-0.51-0.448-0.264
		c-0.831,1.103-1.552,2.269-2.176,3.518c-5.724-0.303-11.453-0.286-17.138,0.07c-1.781,0.114-3.539,0.286-5.281,0.479
		c0.51-0.378,0.998-0.791,1.548-1.152c0.224-0.149,0.031-0.475-0.216-0.361c-1.099,0.515-2.154,1.117-3.152,1.768
		c-3.965,0.55-7.852,1.323-11.624,2.37c0.936-0.844,1.922-1.64,2.937-2.37c0.33-0.255,0.022-0.818-0.343-0.572
		c-1.587,1.038-3.052,2.216-4.445,3.451c-4.181,1.231-8.252,2.774-12.188,4.625c0.897-0.954,1.803-1.89,2.744-2.809
		c0.299-0.29-0.149-0.699-0.453-0.444c-1.772,1.42-3.412,2.981-5.016,4.594c-5.373,2.748-10.53,6.059-15.472,9.954
		c-4.027,3.192-7.999,6.876-11.763,10.921c0.728-1.513,1.495-2.972,2.308-4.384c0.108-0.185-0.169-0.339-0.28-0.163
		c-1.447,2.185-2.748,4.392-3.917,6.63C302.287,120.732,291.755,141.369,292.32,161.625z M319.021,230.229
		c-16.168-17.41-25.252-41.143-23.078-64.823c-0.409-1.649-0.703-3.267-0.912-4.88c1.145-16.259,6.845-31.471,16.626-45.329
		c0.171-0.255,0.365-0.497,0.549-0.761c-0.789,2.581-1.402,5.245-1.75,8.063c-0.937,7.641,0.503,17.459,5.474,23.579
		c0.635,0.796,2.115-0.061,1.736-0.998c-1.433-3.548-3.238-6.793-4.229-10.526c-1.038-3.935-1.115-8.028-0.875-12.056
		c0.224-3.834,1.029-7.716,2.229-11.502c6.94-8.85,15.458-16.755,25.043-22.805c-4.994,6.357-8.958,13.577-11.877,21.042
		c-4.39,11.172-6.505,26.389,0.31,37.116c0.642,1.002,2.462,0.361,2.014-0.853c-2.168-5.856-3.764-11.145-3.843-17.454
		c-0.077-6.252,1.371-12.429,3.385-18.299c2.935-8.604,7.69-16.54,13.449-23.601c4.137-2.374,8.451-4.37,12.895-5.97
		c-3.948,4.612-6.854,10.081-8.811,15.99c-2.906,8.762-3.702,20.528,1.029,28.851c0.479,0.862,1.913,0.286,1.6-0.681
		c-2.924-9.053-3.776-17.231-1.345-26.599c1.728-6.657,5.095-13.049,9.672-18.299c1.205-0.396,2.423-0.791,3.654-1.112
		c2.519-0.69,5.065-1.257,7.646-1.71c-5.105,5.016-8.499,11.959-10.503,18.619c-1.526,5.052-2.216,10.345-2.361,15.603
		c-0.123,4.463-0.07,10.535,2.167,14.527c0.334,0.606,1.363,0.361,1.315-0.352c-0.255-4.388-1.539-8.622-1.64-13.089
		c-0.114-5.105,0.598-10.213,1.829-15.155c1.952-7.923,5.615-14.966,11.26-20.497c8.208-1.302,16.619-1.565,24.994-1.117
		c-3.029,7.945-2.919,17.811-2.229,25.571c0.466,5.188,1.587,10.49,4.212,15.032c1.767,3.056,5.729,6.815,9.602,5.799
		c0.945-0.246,0.8-1.456,0-1.759c-1.658-0.651-3.192-0.765-4.74-1.802c-1.829-1.218-3.042-3.245-4.018-5.157
		c-2.432-4.762-3.144-10.464-3.482-15.714c-0.413-6.498-0.413-14.953,1.754-21.908c2.488,0.158,4.955,0.387,7.421,0.66
		c-1.776,5.9-1.525,12.662-0.677,18.474c1.103,7.395,3.75,18.356,11.177,22.062c1.046,0.528,2.299-0.866,1.306-1.693
		c-10.134-8.582-13.238-25.377-10.306-38.65c5.694,0.673,11.322,1.618,16.804,2.787c4.137,0.875,8.389,1.922,12.645,3.139
		c-0.035,6.3,0.954,12.543,2.796,18.699c2.234,7.527,6.235,17.301,12.773,22.075c0.751,0.558,1.781-0.519,1.27-1.262
		c-2.031-2.972-4.516-5.544-6.428-8.617c-2.449-3.966-4.238-8.314-5.702-12.715c-1.886-5.698-2.963-11.748-3.359-17.793
		c7.18,2.119,14.351,4.801,21.047,8.2c0.316,5.474,1.697,11.005,3.315,16.021c1.82,5.636,5.878,16.887,12.592,18.413
		c0.866,0.203,1.569-0.857,0.888-1.517c-2.493-2.431-4.906-4.097-6.907-7.1c-2.308-3.469-3.9-7.395-5.263-11.299
		c-1.552-4.454-2.744-9.132-3.364-13.863c6.67,3.509,12.834,7.782,17.991,12.979c14.702,14.839,16.716,36.668,18.026,56.747
		c-0.132,9.031-1.24,18.013-3.509,26.762c-3.46,8.767-8.085,17.156-11.383,25.958c-8.292,12.869-19.741,23.742-32.654,31.911
		c-10.284,6.498-21.513,11.005-33.076,13.537c-0.448,0-0.888,0.022-1.337,0.013c-0.281,0-0.554-0.022-0.831-0.026
		c-0.774,0.307-1.658,0.4-2.546,0.277c-0.334-0.057-0.646-0.123-0.963-0.181c-1.631,0.576-3.315,1.073-5.056,1.425
		c0.163,0.061,0.316,0.131,0.479,0.193c-8.648,1.025-17.385,0.963-25.971-0.158c0-0.057,0.009-0.101,0.013-0.158
		c-3.258,0.444-6.511-0.062-9.36-1.517C350.655,254.727,332.881,245.125,319.021,230.229z M404.79,263.758
		c-0.123,1.099-0.326,2.216-0.58,3.315c-0.062,0.246-0.11,0.497-0.181,0.73c-1.952,7.334-6.868,14.109-14.192,14.175
		c-9.163,0.097-10.996-10.112-10.934-18.527C387.454,264.567,396.155,264.703,404.79,263.758z M352.813,279.164
		c-3.816-0.365-7.532-1.319-11.33-1.82c-1.917-4.616-2.414-9.365-2.663-14.179c0.04-0.163,0.071-0.348,0.108-0.515
		c-0.037-0.005-0.084-0.031-0.139-0.035c-0.117-2.629-0.187-5.249-0.38-7.892c4.401,3.908,12.869,5.201,18.185,6.023
		c3.5,0.558,7.048,0.76,10.548,0.497c2.18,0.537,4.379,0.989,6.595,1.394c-3.214,5.179-5.882,10.732-8.098,16.487
		c-0.022-0.009-0.031-0.022-0.053-0.022C361.303,278.997,357.144,279.585,352.813,279.164z M422.561,291.993
		c8.055,11.049,17.239,21.262,26.903,30.922c9.114,9.097,18.831,17.591,28.939,25.544c9.765,7.677,20.022,14.663,31.805,18.751
		c0.158,15.731-10.028,29.316-20.088,40.638c-6.476,7.276-13.753,13.796-21.737,19.328c-0.018-0.194-0.04-0.405-0.057-0.598
		c-2.761,2.326-5.839,4.181-8.921,6.041c0,0.053,0.018,0.119,0.027,0.163c-0.892,0.497-1.776,1.016-2.673,1.486
		c-13.414,7.039-28.53,10.679-43.636,10.952c-17.393,0.339-34.421-4.568-51.766-4.568c-0.07-1.016-0.14-2.049-0.224-3.051
		c-0.07-0.761-0.62-1.143-1.17-1.143c-8.481-28.93-8.96-60.018-5.808-89.788c1.636-15.516,4.151-31.035,7.861-46.204
		c3.218-13.181,8.143-25.377,14.047-37.428c0.031,0.018,0.066,0.018,0.101,0.035c-1.302,9.505,3.939,21.086,13.673,21.869
		c9.114,0.734,15.459-8.683,17.463-18c1.345,3.012,2.994,5.918,4.559,8.714C415.065,281.322,418.727,286.726,422.561,291.993z
		 M443.92,262.505c-0.374,2.867-0.928,6.652-0.022,9.615c-4.502,0.598-8.899,2.642-13.19,3.935
		c-5.056,1.503-9.624,1.627-14.597,1.596c-0.439-0.721-0.888-1.424-1.323-2.137c-2.37-3.939-4.322-8.169-6.569-12.196
		c2.651-0.378,5.289-0.862,7.914-1.442c2.853-0.207,5.632-0.611,7.953-0.949c7.712-1.108,15.859-3.315,22.458-7.659
		C445.287,256.257,444.346,259.176,443.92,262.505z M565.35,253.391c-0.598-0.202-1.17,0.673-0.642,1.108
		c1.833,1.464,4.084,2.299,6.494,2.717c0.031,0.11,0.092,0.211,0.215,0.281c2.076,1.266,3.957,3.043,5.153,5.179
		c0.888,1.609,0.348,3.763-1.781,3.785c-1.103,0.009-2.264-0.611-3.214-1.086c-3.821-1.944-6.903-5.311-9.761-8.433
		c-0.602-0.664-1.591,0.185-1.196,0.932c0.431,0.818,1.002,1.565,1.64,2.269c0.37,3.5-0.083,6.595-1.618,9.716
		c-5.144-5.724-6.221-13.603-6.01-21.038c0.018-0.519-0.404-0.721-0.792-0.668c-0.936-5.443-0.782-11.071,2.462-15.603
		c0.792,4.431,0.018,8.723,0.475,13.243c0.013,0.246,0.114,0.439,0.237,0.598c-0.51,0.765-0.936,1.556-1.262,2.348
		c-0.101,0.277,0.273,0.554,0.506,0.378c5.412-4.137,12.166-11.339,19.684-9.603c-2.84,4.102-6.723,6.454-10.794,9.382
		c-0.994,0.708-0.163,2.062,0.928,1.596c0.892-0.378,1.75-0.827,2.612-1.315c5.504-0.651,12.614-1.029,14.636,4.968
		C577.124,255.984,571.518,255.316,565.35,253.391z"/>
	<path fill="#231F20" d="M437.655,175.905c-3.57-6.3-12.166-11.792-19.447-8.529c-7.566,3.377-12.847,13.594-12.178,21.702
		c0.022,0.233,0.356,0.383,0.479,0.132c3.267-6.428,4.485-13.621,10.723-18.109c7.334-5.281,13.406,1.75,18.492,6.291
		C436.749,178.314,438.367,177.154,437.655,175.905z"/>
	<path fill="#231F20" d="M348.214,166.026c-8.046-4.243-13.126,4.885-14.707,11.431c-0.418,1.75,2.123,2.431,2.682,0.743
		c1.943-6.001,5.364-13.392,12.451-8.618c5.219,3.5,8.222,10.39,10.06,16.136c0.14,0.431,0.813,0.37,0.796-0.11
		C359.281,178.112,355.029,169.635,348.214,166.026z"/>
	<path fill="#231F20" d="M448.154,206.154c-4.845-1.262-9.391-4.537-9.092-10.143c0.018-0.343-0.541-0.435-0.602-0.088
		c-0.44,2.48-0.589,4.625,0.356,6.723c-0.365,0.088-0.69,0.334-0.814,0.835c-0.031,0.149-0.061,0.295-0.101,0.444
		c-3.834,4.59-7.044,9.58-11.528,13.713c-4.537,4.181-9.954,7.184-15.744,9.224c-9.286,3.267-19.376,4.142-29.145,3.733
		c-20.18-0.831-42.089-9.039-49.345-29.479c-0.147-0.404-0.706-0.242-0.635,0.176c1.486,9.694,7.164,16.764,14.707,21.768
		c-1.179,9.395,9.065,18.954,15.515,24.036c9.083,7.123,19.363,10.143,30.86,9.479c11.686-0.668,23.17-5.412,31.788-13.33
		c10.732-9.84,13.23-24.722,15.858-38.391c1.917,2.198,4.74,3.359,7.624,3.561C449.16,208.514,449.384,206.47,448.154,206.154z
		 M374.379,251.012c0.163-0.022,0.312-0.11,0.356-0.326c-0.013,0.031,4.928-2.677,5.329-2.933c2.866-1.873,5.817-3.689,8.982-5.021
		c3.174-1.337,6.815-1.53,10.218-1.345c5.707,0.325,8.508,3.288,11.607,7.628h0.004c-5.056,2.339-10.512,3.838-15.933,4.529
		C388.087,254.406,380.978,253.43,374.379,251.012z M424.786,238.838c-3.284,3.741-7.334,6.731-11.748,9.07
		c-1.877-9.804-15.696-10.372-23.17-8.261c-4.243,1.205-8.23,4.028-11.796,6.511c-1.134,0.783-4.449,2.625-4.326,4.405
		c0.009,0.11,0.07,0.194,0.132,0.273c-12.091-4.594-22.335-14.117-25.826-26.617c9.418,5.632,21.262,8.34,31.454,9.114
		c10.666,0.805,21.724-0.334,31.875-3.737c9.431-3.17,18.607-9.945,24.823-18.307C434.014,221.164,431.737,230.88,424.786,238.838z"
		/>
	<path fill="#231F20" d="M276.121,99.773c-14.544-2.673-20.506-19.081-20.227-32.35c0.007-0.352-0.519-0.347-0.55,0
		c-1.154,12.57,5.047,33.516,20.629,33.476C276.6,100.899,276.772,99.888,276.121,99.773z"/>
	<path fill="#231F20" d="M280.217,92.36c-13.581-6.072-19.785-19.618-19.893-34.025c0-0.497-0.728-0.488-0.752,0
		c-0.627,14.007,5.127,31.185,20.11,35.3C280.434,93.847,280.959,92.695,280.217,92.36z"/>
	<path fill="#231F20" d="M287.983,78.102c-9.833-6.968-15.263-17.244-22.643-26.468c-0.2-0.246-0.605,0.079-0.433,0.347
		c6.305,9.857,12.058,21.06,22.418,27.268C288.069,79.698,288.68,78.59,287.983,78.102z"/>
	<path fill="#231F20" d="M299.39,54.91c-5.157-7.215-13.581-9.809-22.123-8.96c-0.31,0.04-0.326,0.536,0,0.506
		c9.332-0.611,16.782,2.898,21.535,11.014c4.082,6.951,4.832,15.129,5.817,22.932c0.123,1.003,1.517,1.047,1.578,0
		C306.732,71.67,304.525,62.09,299.39,54.91z"/>
</g>
</svg>
