<?xml version="1.0" encoding="utf-8"?>
<!-- Generator: Adobe Illustrator 17.0.0, SVG Export Plug-In . SVG Version: 6.00 Build 0)  -->
<!DOCTYPE svg PUBLIC "-//W3C//DTD SVG 1.1//EN" "http://www.w3.org/Graphics/SVG/1.1/DTD/svg11.dtd">
<svg version="1.1" id="Layer_1" xmlns="http://www.w3.org/2000/svg" xmlns:xlink="http://www.w3.org/1999/xlink" x="0px" y="0px"
	 width="800px" height="600px" viewBox="0 0 800 600" enable-background="new 0 0 800 600" xml:space="preserve">
<polygon fill="#FFFFFF" points="604.656,321.896 602.783,321.896 602.783,318.031 604.656,318.031 604.656,321.896 "/>
<polygon fill="#FFFFFF" points="607.615,321.896 605.743,321.896 605.743,318.031 607.615,318.031 607.615,321.896 "/>
<polygon fill="#FFFFFF" points="610.695,322.078 608.823,322.078 608.823,318.212 610.695,318.212 610.695,322.078 "/>
<polygon fill="#FFFFFF" points="618.97,328.057 617.158,328.057 617.158,318.273 618.97,318.273 618.97,328.057 "/>
<polygon fill="#FFFFFF" points="621.597,327.996 619.785,327.996 619.785,318.212 621.597,318.212 621.597,327.996 "/>
<polygon fill="#FFFFFF" points="615.92,327.815 614.108,327.815 614.108,318.031 615.92,318.031 615.92,327.815 "/>
<polygon fill="#FFFFFF" points="613.504,326.788 611.813,324.433 611.692,318.031 613.504,318.031 613.504,326.788 "/>
<polygon fill="#FFFFFF" points="609.095,324.916 606.377,324.916 606.377,323.769 609.095,323.769 609.095,324.916 "/>
<polygon fill="#FFFFFF" points="606.739,325.701 606.739,327.695 609.88,327.695 609.095,325.701 606.739,325.701 "/>
<path fill="#FFFFFF" d="M611.088,330.473l1.268,2.899h5.678v-1.026h-4.711C613.323,332.345,611.148,329.929,611.088,330.473
	L611.088,330.473z"/>
<polygon fill="#FFFFFF" points="621.718,333.432 619.906,333.432 619.906,332.466 621.718,332.466 621.718,333.432 "/>
<polygon fill="#FFFFFF" points="621.657,345.814 619.906,345.814 619.906,339.109 621.657,339.109 621.657,345.814 "/>
<polygon fill="#FFFFFF" points="621.899,347.746 619.725,347.746 619.725,346.659 621.899,346.659 621.899,347.746 "/>
<polygon fill="#FFFFFF" points="621.778,350.163 619.604,350.163 619.604,349.075 621.778,349.075 621.778,350.163 "/>
<polygon fill="#FFFFFF" points="621.657,353.846 619.483,353.846 619.483,352.76 621.657,352.76 621.657,353.846 "/>
<polygon fill="#FFFFFF" points="622.02,338.204 619.846,338.204 619.846,337.117 622.02,337.117 622.02,338.204 "/>
<polygon fill="#FFFFFF" points="621.96,335.969 619.785,335.969 619.785,334.882 621.96,334.882 621.96,335.969 "/>
<polygon fill="#FFFFFF" points="631.656,333.905 630.405,333.905 630.405,333.01 631.656,333.01 631.656,333.905 "/>
<polygon fill="#FFFFFF" points="631.614,345.377 630.405,345.377 630.405,339.165 631.614,339.165 631.614,345.377 "/>
<polygon fill="#FFFFFF" points="631.781,347.167 630.28,347.167 630.28,346.16 631.781,346.16 631.781,347.167 "/>
<polygon fill="#FFFFFF" points="631.698,349.406 630.196,349.406 630.196,348.398 631.698,348.398 631.698,349.406 "/>
<polygon fill="#FFFFFF" points="631.614,352.82 630.113,352.82 630.113,351.812 631.614,351.812 631.614,352.82 "/>
<polygon fill="#FFFFFF" points="631.865,338.326 630.364,338.326 630.364,337.318 631.865,337.318 631.865,338.326 "/>
<polygon fill="#FFFFFF" points="631.822,336.255 630.321,336.255 630.321,335.247 631.822,335.247 631.822,336.255 "/>
<path fill="#FFFFFF" d="M623.046,331.862l-0.181,1.027c0,0,2.053,1.208,3.684,1.812c1.631,0.604,2.174,0.423,2.174,0.423
	l0.121-1.087C628.845,334.036,624.315,333.191,623.046,331.862L623.046,331.862z"/>
<path fill="#FFFFFF" d="M623.046,334.097l-0.181,1.027c0,0,2.053,1.208,3.684,1.812c1.631,0.604,2.174,0.423,2.174,0.423
	l0.121-1.087C628.845,336.271,624.315,335.425,623.046,334.097L623.046,334.097z"/>
<path fill="#FFFFFF" d="M622.805,336.512l-0.181,1.027c0,0,2.053,1.208,3.684,1.812c1.631,0.604,2.174,0.423,2.174,0.423
	l0.121-1.087C628.603,338.687,624.073,337.841,622.805,336.512L622.805,336.512z"/>
<path fill="#FFFFFF" d="M623.228,330.292v0.604c0,0,3.141,1.51,3.262,1.087C626.61,331.56,623.228,330.292,623.228,330.292
	L623.228,330.292z"/>
<polygon fill="#FFFFFF" points="622.805,340.257 622.805,344.908 627.878,344.908 627.878,345.814 622.986,345.814 622.986,348.35 
	628.663,347.746 628.663,340.922 622.805,340.257 "/>
<polygon fill="#FFFFFF" points="628.482,348.954 622.986,348.954 622.986,350.826 628.422,350.826 628.482,348.954 "/>
<polygon fill="#FFFFFF" points="628.06,352.034 622.926,352.941 622.926,354.33 627.999,353.182 628.06,352.034 "/>
<polygon fill="#FFFFFF" points="641.226,332.587 633.314,332.587 633.314,331.439 641.226,331.439 641.226,332.587 "/>
<polygon fill="#FFFFFF" points="641.226,334.338 633.495,334.338 633.495,333.251 641.226,333.251 641.226,334.338 "/>
<polygon fill="#FFFFFF" points="641.347,336.271 633.616,336.271 633.616,335.063 641.347,335.063 641.347,336.271 "/>
<polygon fill="#FFFFFF" points="641.347,343.337 632.831,343.337 632.831,337.237 641.347,337.237 641.347,343.337 "/>
<polygon fill="#FFFFFF" points="640.925,345.874 632.771,345.874 632.771,344.545 640.925,344.545 640.925,345.874 "/>
<polygon fill="#FFFFFF" points="641.045,348.29 633.555,348.29 633.555,347.142 641.045,347.142 641.045,348.29 "/>
<polygon fill="#FFFFFF" points="640.622,352.034 633.073,352.034 633.073,350.947 640.622,350.947 640.622,352.034 "/>
<polygon fill="#FFFFFF" points="644.548,343.881 642.978,343.881 642.978,340.317 644.548,340.317 644.548,343.881 "/>
<polygon fill="#FFFFFF" points="644.79,339.533 643.038,339.533 643.038,337.358 644.79,337.358 644.79,339.533 "/>
<polygon fill="#FFFFFF" points="644.608,336.573 643.642,336.573 643.642,335.486 644.608,335.486 644.608,336.573 "/>
<polygon fill="#FFFFFF" points="644.367,346.237 642.797,346.237 642.797,344.968 644.367,344.968 644.367,346.237 "/>
<polygon fill="#FFFFFF" points="644.246,348.592 642.978,348.592 642.978,347.565 644.246,347.565 644.246,348.592 "/>
<polygon fill="#FFFFFF" points="621.778,361.94 619.181,361.94 619.181,361.155 621.778,361.155 621.778,361.94 "/>
<polygon fill="#FFFFFF" points="620.812,365.322 619.06,365.322 619.06,364.355 620.812,364.355 620.812,365.322 "/>
<polygon fill="#FFFFFF" points="618.758,367.194 618.758,381.871 621.174,381.871 621.174,367.376 620.51,367.376 620.51,378.972 
	619.725,378.972 619.725,367.255 618.758,367.194 "/>
<polygon fill="#FFFFFF" points="617.671,382.173 616.041,382.173 616.041,367.073 617.671,367.073 617.671,382.173 "/>
<polygon fill="#FFFFFF" points="615.376,382.233 612.356,382.233 612.356,367.134 615.376,367.134 615.376,382.233 "/>
<polygon fill="#FFFFFF" points="605.079,382.475 602.723,382.475 602.723,367.013 605.079,367.013 605.079,382.475 "/>
<polygon fill="#FFFFFF" points="608.038,382.233 605.682,382.233 605.682,366.771 608.038,366.771 608.038,382.233 "/>
<polygon fill="#FFFFFF" points="611.36,382.233 609.004,382.233 609.004,366.771 611.36,366.771 611.36,382.233 "/>
<g>
	<path fill="#333333" d="M367.598,195.446c-3.081,0-6.163,0-9.5,0c-4.879,0-9.755-0.256-14.634-0.513
		c-7.702-0.257-15.66-0.257-23.62,0v0.257c-4.876,0-10.011,0-15.146-0.257c-2.312,0-4.623,0.257-6.677,0.513
		c-0.256,0-0.514,0-0.77,0c-0.77,0.258-1.284,0.514-2.053,0.514c-0.258,0-0.258,0-0.258,0s-0.256-0.256-0.511-0.256
		c0,0,0,0-0.258,0.256c-0.256,0-0.514,0.257-0.77,0.514c-1.028,0.256-2.053,1.027-2.567,2.053l0,0
		c-3.081,3.337-5.39,7.188-6.932,11.553c0.258,0,0.258,0,0.258,0c-1.284,2.053-2.567,4.108-3.851,5.904
		c-1.542,1.798-2.826,3.851-4.365,5.649c-0.258,0.514-0.514,1.028-0.77,1.541c0-0.257,0-0.257,0-0.257s0,0,0,0.257
		c-0.772,1.284-1.284,2.567-1.542,3.851l0,0c-0.514,0.257-0.514,0.771-0.514,1.796c0.258,0.258,0.258,0.514,0.258,0.771
		c0-0.257-0.258-0.513-0.258-0.771c0,0-0.256,0-0.256,0.258c0,0.513,0,1.025,0,1.539c0.256,1.541,0.77,3.081,1.028,4.621
		c1.539,8.986,3.851,17.459,6.93,25.931l0,0c0.258,0.77,0.514,1.539,0.514,2.309c0.258-0.256,0.514-0.513,0.77-0.513l0,0
		c0.258-0.257,0.772-0.257,1.028-0.513c0-0.258,0-0.514-0.256-0.771c0.256-0.257,0.511-0.513,1.025-0.771
		c0,1.028,0,2.055,0.258,3.081c0.256,0.257,0.256,0.514,0.511,0.77c-0.256,3.338,0,6.677,0,10.014
		c0.514,3.337,1.028,6.932,1.542,10.525c1.025,4.365,1.798,8.73,2.309,13.095c1.798,8.986,3.851,17.713,6.418,26.443
		c0.772,2.053,1.284,4.365,2.056,6.674c2.309,8.73,4.362,17.459,6.16,26.187c1.798,8.73,3.595,17.457,5.649,26.187
		c2.053,8.729,3.851,17.457,5.649,26.443c2.053,8.986,4.107,17.716,6.674,26.443c0.258-0.256,0.258-0.256,0.514-0.513
		c-0.256-0.513-0.256-1.027-0.256-1.284c0,0.257,0.511,0.257,1.284,0.513h0.256c0,0.258,0.256,0.258,0.256,0.514
		c0,0-0.256,0-0.511,0l0,0c0.256,0,0.511,0,0.77,0.257l0,0c0,0.257,0,0.513,0,0.771c0,0,0,0,0,0.256
		c0.514,0.257,1.025,0.257,1.539,0.257c0,0-0.256,0-0.256,0.257c0.77,0,1.284,0,1.798,0c0,0,0,0,0.256,0h0.256h0.258
		c0.256,0.256,0.256,0.514,0.256,0.77c0.77,0.257,1.798,0,2.567-0.256c0,0,0,0,0.258,0v0.256c0,0.257,0,0.257,0,0.514l0.256,0.256
		c0.256,0.258,0.514,0.514,0.77,0.771c0,0,0,0.257,0.258,0.257c0.256,0,0.256,0,0.511,0c0.258,0,0.258,0,0.514,0
		c0,0.256,0.258,0.256,0.258,0.256c0.511,0,1.025,0,1.539,0c0,0.258,0,0.258,0,0.258c0.514,0,1.028,0,1.539,0
		c0,0,0.258,0,0.258-0.258h0.256c1.798,0,3.595,0,5.393-0.256l0,0l0,0c0.511-0.257,1.284-0.514,2.053-0.514h0.256
		c-0.256,0.257-0.514,0.257-0.514,0.514c0,0.256-0.256,0.256-0.256,0.256c0.77,0.258,1.284,0.258,1.798,0.514
		c0.256,0.514,0.256,1.028,0.514,1.541c0,0,0.256-0.257,0.256-0.513l0,0c0.256,0,0.514,0,0.514,0c0,0.256,0,0.256,0,0.256
		c0.256,0,0.514,0.257,0.77,0.257c0.256-0.257,0.514-0.257,0.77-0.257c1.284-0.256,2.567-0.514,3.595-1.284
		c0.77-0.256,1.539-0.256,2.309-0.514c-1.025,0.771-2.053,1.798-2.823,2.567c0.256,0,0.77-0.256,1.028-0.256
		c1.795-1.284,3.851-2.053,5.646-3.081c2.056-0.514,3.851-1.027,5.649-1.539c0-0.258,0-0.258,0-0.514c0.258,0,0.514,0,0.77-0.257
		c0,0.257,0,0.257,0,0.257c0.258,0.256,0.258,0.514,0.258,0.77c0,0.257,0.256,0.257,0.256,0.514c0,0,0,0.256,0.258,0.256
		c0,0.258,0,0.258,0,0.258c0,0.256,0,0.256,0,0.513c0,0.257,0.256,0.513,0.511,0.771l0,0c1.284-0.514,2.826-0.771,4.109-1.284
		c4.876-2.055,9.5-3.851,14.376-5.906c-2.309,1.284-4.365,2.31-6.418,3.594c1.284-0.256,2.312-0.77,3.595-1.284
		c6.16-2.31,11.809-5.135,17.202-8.472c0.511-0.257,1.025-0.514,1.284-0.514c1.539-0.77,3.079-1.539,4.621-2.053
		c2.053-1.028,4.365-2.053,6.418-3.081c0,0.257,0,0.514,0,0.77c0.256-0.256,0.514-0.513,0.514-0.513
		c0.256-0.257,0.256-0.513,0.256-0.513c0.256-0.258,0.77-0.514,1.028-0.514c0,0,0,0,0,0.256c0.256-0.256,0.256-0.256,0.256-0.256
		c0-0.257,0-0.257,0.256-0.257c0.258-0.257,0.772-0.257,1.284-0.513c0.514-0.514,1.284-0.771,2.056-1.028h0.256
		c8.472-3.594,16.688-6.932,25.159-10.012c1.284-0.513,2.567-1.027,3.851-1.541c8.472-3.594,17.202-6.932,26.701-10.269
		c2.053-1.027,4.365-1.798,6.418-2.567c-0.258,0.77-0.258,1.284-0.258,1.798c0,0,0,0,0-0.257c0.258,0,0.258-0.257,0.258-0.513
		c0-0.258,0.256-0.258,0.256-0.514c0-0.257,0.258-0.514,0.258-0.77c5.39-2.055,11.039-4.109,16.429-6.418v0.256v-0.256
		c0,0,0,0,0-0.258c2.826-1.025,5.393-2.053,7.96-3.337v-0.256c0.256-0.514,0.256-1.028,0-1.542
		c-1.542-1.284-2.567-2.823-3.081-4.876l-0.258-0.258c-0.256-0.256-0.256-0.256-0.511-0.513c1.539-0.513,3.079-1.027,4.621-1.541
		c3.081-1.027,5.904-2.567,8.216-4.107c0-0.258,0-0.258,0-0.258c-3.081-2.567-5.907-5.39-8.216-8.472
		c-0.258,0-0.514,0.257-0.258,0.514c1.798,3.337,4.109,5.904,6.932,7.958c-1.539,1.028-3.337,1.798-5.135,2.312
		c-1.025,0.514-2.053,0.77-2.823,1.027c0-0.513,0.256-1.284,0.514-2.055c-0.258,0-0.258,0-0.258,0
		c-0.514,0.771-0.77,1.542-1.025,2.312c-1.542,0.514-2.826,1.027-4.365,1.539c-0.258,0-0.258,0-0.514,0.258
		c1.284-3.595,2.567-7.189,3.337-10.783c-0.256,0-0.256,0.256-0.256,0.256c-1.542,3.338-2.567,6.932-3.595,10.528
		c-0.77,0.256-1.798,0.77-2.567,1.025c0,0,0,0,0-0.256c-0.256,0-0.256,0-0.256,0c1.025-2.312,2.053-4.879,2.823-7.446
		c1.028-1.025,1.798-1.796,2.567-2.823c4.879-5.904,10.783-9.755,17.971-11.553c0.514-0.257,0.77-0.257,1.284-0.257h8.472
		c1.028,0.257,2.312,0.771,3.34,1.284c0,0.257,0.256,0.771,0.256,1.284c0-0.513,0-0.771,0-1.284
		c0.256,0.257,0.256,0.257,0.256,0.257s0-0.257-0.256-0.257c0-1.284,0-2.31-0.514-3.338c-0.514-1.796-1.284-3.593-2.567-5.135
		c-2.053-3.337-4.876-6.16-7.702-8.472l-16.174-10.269c-0.514-0.256-0.77-0.514-1.028-0.514c-1.795-1.539-3.851-3.08-5.904-4.621
		c-0.256-0.256-0.256-0.256-0.514-0.256c-6.16-5.649-12.064-11.553-17.457-17.716c-2.567-3.081-4.621-6.418-6.674-9.755
		c-10.014-15.918-18.485-32.605-25.931-50.063c-1.284-3.595-2.567-7.188-3.851-10.783c0,0,0.258,0,0.514,0
		c0.514-0.77,1.028-1.539,1.542-2.31c0.256-0.257,0.256-0.257,0.256-0.513c0-0.258-0.256-0.258-0.256-0.258l0,0v-0.256
		c0.256,0,0.256,0,0.511,0c0-0.257,0.258-0.257,0.258-0.514c-0.258,0-0.258,0-0.514,0c0-0.256,0-0.256,0-0.256
		c-0.256-1.028-0.77-2.055-1.028-3.081c0-0.257,0-0.514,0-0.514c-1.284-4.107-2.309-7.958-3.593-11.809
		c-0.514-1.542-1.028-2.826-1.542-3.851c-0.77-2.826-2.309-5.393-4.362-7.702c0.256,0,0.511,0,0.77,0c-0.258,0-0.258,0-0.258,0
		c-0.256-0.258-0.77-0.514-1.025-0.514c0-0.257,0-0.257,0-0.257c-0.258,0-0.258-0.257-0.514-0.257s-0.514-0.256-0.514-0.514l0,0l0,0
		c-0.256-0.256-0.514-0.256-0.514-0.513c0,0,0.258,0,0.514,0c-0.256,0-0.514,0-0.77,0c-0.256-0.257-0.514-0.257-0.514-0.513
		c-0.514,0-0.77,0-1.284-0.258c-0.256,0.258-0.514,0.258-0.514,0.258c-1.795-0.258-3.593-0.514-5.39-0.771
		c-11.297-1.796-22.592-3.08-33.889-3.851c-6.418-0.513-12.578-1.027-18.997-1.796C370.165,195.446,368.882,195.446,367.598,195.446
		z M346.287,199.811c0,0-0.256,0-0.256,0.257c-1.798,0-3.851,0-5.649,0c2.312,0,4.879,0.257,7.446,0.513h0.256
		c2.826-0.256,5.393,0.258,7.702,1.028c1.284,0.256,2.567,0.256,3.595,0.514c0.256,0,0.256,0,0.256,0
		c3.595,0.256,7.188,0.513,10.528,0.513c8.213,0.513,16.174,0.257,24.389-0.257c2.309,0,4.621,0,6.93-0.256
		c1.284,0.256,2.567,0.256,3.595,0.256c3.337,0.257,6.418,0.257,9.755,0.257c0.514,0.257,1.028,0.257,1.542,0.257
		c1.284,0.256,2.567,0.256,3.851,0.514c1.025,0,2.053,0,3.079,0.256c2.567,0.257,5.135,0.514,7.702,0.77
		c0.258,0.258,0.772,0.514,1.284,0.514c1.028,0.77,1.542,1.541,2.056,2.824c0.77,1.284,1.539,2.824,2.053,4.108
		c0.256,1.027,0.77,2.053,1.025,2.823c0.514,2.055,1.028,4.109,1.542,6.163c0.256-0.257,0.256-0.514,0.514-0.77
		c0.511,1.539,1.025,3.08,1.539,4.621c0.256,0.77,0.514,1.539,0.77,2.31l0,0c0.258,1.541,0.258,2.824,0.514,4.364v0.258
		c-1.539,0-3.081-0.258-4.621-0.258c-1.284,0.258-2.567,0.514-3.851,0.514c-2.053,0.514-4.109,0.77-6.163,1.028
		c2.053-1.284,3.595-2.567,5.135-4.109c-2.053,1.284-4.107,2.312-6.16,3.851c0.256,0,0.511,0,0.511,0.258
		c-2.053,0.256-4.107,0.513-6.16,0.77c-4.621-0.257-9.244,0-13.865,0.256c-1.025-0.256-2.309-0.256-3.337,0l0,0
		c-4.879,0.258-9.755,0.258-14.89,0.514c-6.418,0.257-13.095,0.514-19.513,0.77c-6.16,0.258-12.064,0.514-17.971,0.771
		c-5.646,0.257-11.295,0.513-16.943,0.513c3.851-0.513,7.702-0.77,11.553-1.025l0,0c-3.851-0.514-7.446-0.771-11.297-0.771
		c-4.876,0.771-10.011,1.284-14.89,2.055c-2.053,0.256-4.107,0.256-6.16,0.513c0.511,0,1.025,0.257,1.539,0.257
		c-0.256,0-0.514,0.256-0.77,0.256c-0.514,0-0.77-0.256-1.284-0.256c-2.312,0-4.365-0.257-6.677-0.257
		c-1.025-0.257-2.053-0.257-3.079,0c0.256-0.257,0.256-0.257,0.256-0.513c0-0.258,0-0.258,0.256-0.514h-0.256
		c0-0.257,0.256-0.514,0.256-0.514c-0.77,0.514-1.284,1.028-2.053,1.798c-3.081,2.823-6.16,5.904-9.241,8.986
		c0,0,0,0.256-0.258,0.256c0.772-0.77,1.284-1.796,1.798-2.567c-0.256,0-0.514,0-0.514,0c-1.025,1.542-2.309,3.338-3.337,4.879
		c-1.539,1.539-2.823,3.081-4.107,4.878c2.823-4.878,5.649-9.757,8.472-14.377c-0.256-0.256-0.514,0-0.514,0
		c-3.337,5.135-6.418,10.269-8.986,15.661c-0.77,1.027-1.798,2.31-2.309,3.594c-0.258,0.257-0.258,0.257-0.772,0.514l0,0
		c-1.025-3.851-2.053-7.702-3.337-11.297c0-0.256,0-0.513,0-0.77c0,0,0,0,0-0.256c0,0-0.256-0.258-0.256-0.514
		c-0.77-3.595-1.798-7.188-2.826-10.783c1.028-5.135,2.312-9.755,4.623-14.376c-0.258,0-0.258,0.256-0.514,0.256
		c-2.053,3.851-3.595,7.959-4.365,12.067c0-0.514,0-1.284,0-1.798c0,0,0,0,0.256,0c0-0.256-0.256-0.256-0.256-0.256
		c0-0.258,0-0.258-0.256-0.514c0-0.514,0-1.028,0-1.541c0-0.257,0-0.513,0-0.771c0.256-0.513,0.511-1.284,0.511-2.053
		c1.284-1.539,2.312-3.081,3.34-4.878c1.284-1.796,2.567-3.851,3.851-5.906c0.77-1.025,1.539-1.796,2.309-2.567
		c-0.256,0.258-0.514,0.258-1.025,0.514c3.079-4.365,6.16-8.729,9.241-13.092c0,0,0-0.258,0.256-0.258
		c0,0.258,0.258,0.258,0.514,0.514c-0.256,0-0.256,0.257-0.514,0.514c0.258,0,0.514,0,0.514-0.257c0.258,0,0.258,0,0.514,0l0,0
		c0,0.257,0.256,0.513,0.256,0.771c-0.256-0.514-0.511-0.514-0.77-0.258c0.258,0.258,0.258,0.771,0.514,1.028
		c0,0.256,0,0.256,0,0.256c0,0.258,0,0.258,0,0.514c0.256,0.257,0.514,0.77,0.77,1.284c1.542,8.472,4.109,16.432,7.188,24.134
		c0.258,0.513,0.258,1.025,0.514,1.539l0,0c0.258,0,0.258,0.257,0.258,0.514c0.256,0,0.256,0.256,0.511,0.256l0,0
		c0.772,1.284,1.284,2.826,1.798,4.365c0.258,0,0.258-0.256,0.514-0.256c0,0,0-0.258,0.256-0.258
		c-0.77-1.284-1.284-2.823-1.795-4.107c0-0.257,0.256-0.257,0.256-0.257c-0.256-2.055-0.514-4.108-1.028-6.418
		c-1.539-8.473-3.851-16.688-6.674-24.902c1.028-0.514,2.053-0.771,3.081-1.028h0.256c0.77,0,1.542,0,2.567,0c0,0,0.258,0,0.514,0
		c0,0.257,0.256,0.257,0.256,0.514c0-0.257,0-0.257,0-0.257c0-0.513,0.258-0.771,0.772-1.027c0,0,0.256,0,0.511,0l0,0
		c5.907-0.514,11.553-0.257,17.202,1.027c3.337,0,6.418,0,9.755,0c1.798-0.257,3.34,0.257,4.879,0.771c3.081,0,6.418,0,9.5-0.258
		c-0.258,0-0.77,0-1.028,0c2.312,0,4.621,0,6.932,0.258c-1.028,0-2.312,0-3.337,0.256c-0.77,0-1.542,0-2.312,0c0,0,0,0-0.256,0l0,0
		C346.287,199.811,346.287,199.811,346.287,199.811z M345.262,199.297c-0.514-0.256-0.77-0.256-1.284-0.256
		c-1.028,0-2.053,0-3.081-0.257c1.284,0,2.567,0,3.851,0c1.028,0,1.798,0.257,2.567,0.257
		C346.545,199.042,346.031,199.042,345.262,199.297z M342.436,196.474c0.514,0,0.772,0,1.028-0.257c4.879,0,9.755,0,14.634,0
		c-0.514,0-0.77,0-1.284,0.257c1.025,0,1.798,0.256,2.823,0.514c-2.309,0-4.621,0-6.674,0.256c-5.135,0-10.014-0.256-14.89-0.514
		c-2.056-0.256-3.851-0.256-5.907-0.256c2.567,0,5.135,0,7.702,0C340.641,196.474,341.667,196.474,342.436,196.474z
		 M361.691,198.785c-0.511,0-1.025,0-1.539,0c-1.028-0.257-2.053-0.257-3.081-0.257c5.649,0,11.553,0.257,17.202,0.514
		c0.256,0,0.514,0,0.77,0c0.258,0,0.258,0,0.514,0c-2.823,0-5.649-0.257-8.216-0.257
		C365.542,198.785,363.489,198.785,361.691,198.785z M364.003,196.73c-1.028,0-2.053-0.256-3.081-0.513
		c3.081,0.257,5.904,0.257,8.986,0.513C367.854,196.73,365.8,196.73,364.003,196.73z M352.964,200.068c4.107,0,8.216,0,12.323,0.257
		c3.851,0.256,7.702,0.256,11.553,0.514c1.284,0,2.567,0.256,3.851,0.256s2.312,0.257,3.595,0.257
		c-7.96,0-16.176-0.257-24.134-0.771C357.84,200.325,355.273,200.325,352.964,200.068z M285.955,207.258c0,0,0,0.256-0.256,0.513
		c0,0.257-0.256,0.257-0.256,0.513C285.7,208.027,285.7,207.513,285.955,207.258z M299.82,195.446c-0.256,0-0.256,0-0.256,0
		s0,0-0.258,0C299.564,195.446,299.564,195.446,299.82,195.446z M293.146,198.014c0-0.256,0.256-0.256,0.256-0.256
		c0.256,0,0.256-0.257,0.514-0.257C293.657,197.758,293.401,197.758,293.146,198.014z M292.632,198.528L292.632,198.528h0.256
		c-0.514,0.257-0.77,0.514-1.284,1.028C291.862,199.042,292.118,198.785,292.632,198.528z M295.199,202.893v-0.257
		c0.256,0.513,0.514,1.284,0.77,1.796l0.256,0.258c0.514,1.539,1.028,3.337,1.284,4.876c0.772,3.595,1.542,6.932,2.567,10.269
		c0.258,0.771,0.514,1.542,0.772,2.312c0,0.256,0,0.514,0,0.77c0,0,0,0,0-0.256c-1.798-6.418-3.595-13.095-5.649-19.513
		C295.199,203.148,295.199,203.148,295.199,202.893z M305.982,195.705c-0.258,0-0.258,0-0.514,0c0,0.256,0,0.256-0.258,0.256
		c-0.511,0-1.284,0-2.053,0v-0.256c-0.514,0-0.77,0-1.284,0c0.77,0,1.542,0,2.312,0
		C304.699,195.705,305.468,195.705,305.982,195.705z M315.738,196.73L315.738,196.73c-0.514-0.256-0.77-0.256-1.028-0.513
		c2.826,0.257,5.649,0.513,8.73,0.771C320.872,196.73,318.305,196.73,315.738,196.73z M296.225,248.59c0-0.256,0-0.256,0.258-0.256
		c3.081-2.826,5.649-5.906,7.188-9.244c0.256,0.514,0.256,1.284,0.256,1.798l0,0v0.257l0,0c0.514,1.796,0.772,3.338,1.284,5.135
		c-0.256,1.027-0.511,2.055-0.77,3.08c0.258,0,0.258-0.256,0.514-0.256c0-0.257,0-0.257,0.256-0.514
		c0-0.514,0.258-1.027,0.258-1.284c0.256,0.514,0.256,1.028,0.514,1.541c1.795,4.878,3.593,9.757,5.646,14.377
		c0,0.256,0,0.256,0,0.256c-0.511-0.77-0.77-1.539-1.284-2.309h-0.256c0.77,1.539,1.284,2.823,1.798,4.107
		c0,0.77,0.256,1.284,0.256,2.053c0.514,0.514,0.77,1.028,1.284,1.798c0.77,2.053,1.542,4.365,2.312,6.418
		c2.309,6.163,4.621,12.323,6.932,18.228c2.053,4.108,3.851,8.215,5.904,12.324c7.958,16.174,16.943,31.833,27.213,46.724
		c10.014,14.633,21.053,28.497,32.861,41.848c2.567,2.823,5.393,5.647,8.474,8.472l6.93,5.649l1.542,1.025l-0.514-0.513
		c1.539,0,3.081,0,4.621-0.257c6.163-0.77,12.067-1.539,17.971-2.823c-0.514,2.053-1.025,3.851-1.284,5.904
		c-1.798,0.77-3.337,1.284-5.135,2.31c0.514-1.284,1.028-2.055,1.798-3.08c0-0.258,0-0.258,0-0.514
		c0.256-0.77,0.514-1.798,0.77-2.567c-0.514,1.284-1.284,2.567-2.053,3.851c-0.77,1.027-1.028,1.798-1.284,2.567
		c-0.77,0.256-1.798,0.77-2.823,1.284c1.025-2.824,2.053-5.392,3.079-8.216c-0.256,0-0.511,0-0.511,0
		c-1.284,2.824-2.567,5.649-3.595,8.73c-1.028,0.513-2.312,1.025-3.337,1.539c0.256-1.798,0.514-3.594,0.77-5.39v-0.258l0,0
		c0.256-1.025,0.256-1.796,0.514-2.823h-0.258c-0.77,1.798-1.284,3.594-1.539,5.39c-0.514,0.771-0.77,1.542-1.028,2.312
		c0.258-1.541,0.258-3.337,0.514-4.879c0,0-0.256,0-0.256,0.258c-0.258,2.053-0.514,4.364-0.77,6.418
		c-0.772,0.256-1.542,0.77-2.056,1.025c0.514-2.053,0.772-4.107,1.284-6.418c-0.256,0-0.256,0-0.511,0.258
		c-0.514,2.309-1.028,4.364-1.284,6.418c-0.258,0.256-0.772,0.513-1.028,0.513c0.77-3.594,1.798-7.189,2.823-10.782
		c-0.256,0-0.256,0-0.256,0.256c-1.539,3.337-2.567,7.188-3.081,10.783c-0.514,0.256-0.77,0.514-1.284,0.77
		c-1.284,0.514-2.567,1.284-3.851,1.798c-7.702,3.594-15.404,6.932-23.362,9.755c-2.312,1.028-4.621,2.053-6.677,3.595
		c-2.053,0.513-4.107,1.284-6.16,1.796v-0.257c0-0.514,0-0.77-0.258-1.027c0,0,0,0,0.258,0l-0.258-0.257
		c0.258,0,0.514-0.256,1.028-0.256c-0.256,0-0.514-0.258-0.77-0.258c-0.258-0.256-0.258-0.513-0.258-0.77c0,0,0,0-0.256,0h-0.256
		l0,0c-0.514-1.284-1.028-2.31-1.798-3.337c0,0.256,0,0.256,0,0.256c-0.258-0.513-0.77-1.284-1.028-1.796
		c-2.053-7.189-4.365-14.377-6.932-21.309c-3.079-8.472-5.904-16.943-8.472-25.673c-2.823-8.727-5.39-17.457-8.216-25.929
		c-2.823-8.472-5.39-16.688-7.958-24.39c-2.053-5.649-4.621-13.094-7.702-22.079c-1.028-3.338-2.053-6.931-3.337-10.526
		c-3.081-8.472-5.904-17.201-8.216-25.929c-2.312-8.73-4.621-17.458-7.188-25.931l0,0c0.77,5.135,1.798,10.269,3.081,15.404
		c0.256,1.542,0.77,2.826,1.025,4.109c2.053,8.727,4.621,17.2,7.446,25.929c2.309,7.188,4.621,14.12,7.188,21.308
		c1.539,5.393,3.081,10.783,4.621,16.432c1.028,3.337,2.053,6.418,3.081,9.5l0,0c-0.256,1.284-0.77,2.823-1.028,4.107
		c0.258-1.027,0.514-2.053,0.772-3.337c-0.258,0-0.258,0.256-0.258,0.256c-1.284,3.081-2.053,6.163-2.567,9.244
		c0.258,0,0.514-0.258,0.514-0.514c0.256,0,0.256-0.257,0.256-0.257c0-0.513,0.258-1.027,0.514-1.541
		c0-0.256,0.258-0.256,0.258-0.514c0,0,0-0.256,0.256-0.256c0.77-2.312,1.284-4.365,1.284-6.675
		c1.798,5.647,3.595,10.782,5.39,15.404c1.028,2.31,2.056,4.622,2.826,7.189h-0.258c-1.284,3.851-2.567,7.444-3.337,11.039
		c0-0.257,0.258-0.257,0.258-0.257c1.539-3.338,2.823-6.931,3.593-10.269c1.542,4.364,3.081,8.986,4.621,13.863
		c-1.025,1.284-1.539,2.567-1.795,4.365c-0.514,2.053-1.284,4.107-2.056,6.161c-0.511,1.027-0.77,2.055-0.77,2.824
		c0,0.256,0,0.514,0,0.77v-0.256v0.256c0-0.256,0-0.256,0.258-0.514c2.053-4.107,3.593-8.472,4.621-12.837
		c0,0.514,0.256,1.284,0.514,1.798c0,0.257,0.256,0.77,0.256,1.028c-1.539,4.107-3.081,7.958-4.365,11.809c0,0,0,0,0.258-0.256
		c1.539-3.338,3.079-6.677,4.621-10.269c0.256,1.539,0.77,3.08,1.284,4.364c-1.284,3.08-2.567,5.906-3.851,8.729
		c0.514-0.77,0.77-1.798,1.025-2.823c-0.256,0-0.256,0-0.256,0.256c-1.028,1.798-1.798,3.595-2.312,5.649
		c0.258,0,0.258-0.257,0.258-0.257c0.256-0.513,0.514-0.771,0.514-1.284c0.256,0,0.511,0,0.511,0l0.258-0.257
		c1.798-3.081,3.081-6.161,4.107-9.5c1.028,3.595,2.312,7.189,3.337,10.528c0.514,1.284,1.028,2.567,1.284,3.851
		c-0.77,1.539-1.539,3.337-2.309,4.876v0.258c-0.77,2.823-1.284,5.39-1.798,7.958l0.256-0.256c1.542-4.109,3.081-8.216,4.109-12.324
		c0.514,1.027,0.77,2.31,1.284,3.594c0,0.257,0,0.257,0.256,0.514c1.028,3.851,2.312,7.702,3.595,11.553c-0.258,0-0.258,0-0.258,0
		h-0.256c0.256,0.256,0.256,0.256,0.256,0.256c-2.053,4.622-3.851,9.244-5.646,13.865c0.256,0,0.256-0.257,0.256-0.257
		c2.312-4.108,4.107-8.215,5.649-12.58c0.256,0.514,0.514,1.284,0.77,1.798c-2.053,4.364-3.851,8.472-5.649,12.323
		c0.258,0,0.258,0,0.258-0.257c2.309-3.594,4.107-7.445,5.646-11.296c0.258,1.027,0.772,2.053,1.028,3.081
		c0.514,1.539,1.028,2.823,1.539,4.364c0,0,0,0,0.258,0.257c0.256,0.77,0.514,1.539,0.77,2.567c0.514,1.284,1.028,2.053,1.539,2.31
		c0.258,0.257,0.258,0.257,0.258,0.257c-1.028,0.256-2.053,0.77-3.081,1.027c-0.514,0.257-1.284,0.257-2.053,0.513
		c0.77-1.539,1.539-2.823,2.309-4.364l0,0c-1.539,1.284-2.567,2.824-3.079,4.622c-0.514,0-1.028,0.256-1.542,0.256
		c1.284-2.053,2.312-4.365,3.081-6.674l0,0c-0.77,1.284-1.539,2.309-2.312,3.593c-0.77,1.284-1.025,2.312-1.284,3.338
		c-0.511,0-1.284,0.257-1.795,0.513c0-0.256-0.258-0.256-0.514-0.513l0,0c-0.258,0-0.258,0-0.258,0c-0.256,0-0.511,0-0.77,0
		c-1.539,0-3.081-0.257-4.876-0.257l0,0c0-0.256,0-0.514,0-0.514c1.539,0,3.079,0,4.621,0c-1.542,0-3.081-0.256-4.621-0.256
		c-0.772-5.135-2.056-10.014-3.851-14.89c-0.258,0-0.258,0-0.258,0c0.77,3.593,1.542,6.931,2.312,10.269
		c-0.258-0.514-0.514-1.028-0.77-1.542c-0.514-2.053-1.028-3.851-1.798-5.904l0,0c-0.514-1.539-0.77-3.337-1.284-5.135
		c-0.258,0-0.258,0-0.258,0.257c0.514,4.364,1.542,8.986,2.826,13.094c0,0.514,0,1.027,0.256,1.539
		c-0.77-1.796-1.798-3.851-2.823-5.39h-0.258c1.284,2.31,2.312,4.878,3.34,7.445c-1.028,0-1.798-0.257-2.567-0.257
		c0-0.256,0-0.256,0-0.256c-1.798-8.986-3.34-17.716-5.135-26.444c-0.258,1.027-0.514,2.31-0.258,3.851
		c1.284,7.702,2.826,15.404,4.621,22.849c-2.309-0.256-4.362-0.514-6.674-0.77c-0.256-2.053-0.77-3.851-1.798-5.649
		c0-0.256,0-0.256,0.258-0.514c0-0.256,0-0.77-0.258-1.025c-0.256,0-0.256,0.256-0.256,0.256c-0.258,0.514-0.258,1.028-0.258,1.798
		c0.514,1.539,1.028,3.337,1.542,5.135c-1.542-0.257-3.081-0.514-4.621-0.77l0,0c-0.258,0-0.258,0-0.514,0
		c-0.258,0-0.77-0.258-1.028-0.258c-0.514-4.364-1.284-8.727-2.309-12.837c-0.258,0-0.258,0-0.258,0
		c0.258,4.365,0.77,8.473,1.542,12.837c-1.798-0.256-3.34-0.77-5.135-1.025v0.256c-0.258-1.539-0.772-3.081-1.028-4.621
		c-2.053-8.986-4.107-17.715-5.904-26.443c-1.798-8.473-3.595-16.688-5.135-24.903c-1.798-8.73-3.595-17.457-5.393-26.443
		c-0.256-0.771-0.511-1.542-0.77-2.567c0.77,2.567,1.542,4.876,2.567,7.188v-0.257c-2.053-6.931-3.851-14.12-5.135-21.31
		c-0.256,0-0.256,0-0.256,0.258c0.256,1.796,0.514,3.593,0.77,5.39c-1.028-3.594-2.053-7.445-3.081-11.039
		c-2.823-8.73-5.135-17.457-6.674-26.443c-0.77-4.365-1.542-8.73-2.826-13.095c-1.795-8.727-2.823-17.713-2.823-26.699
		c-0.256,0-0.256,0-0.514-0.258v-0.256c0-1.284,0-2.312-0.514-3.595c1.798-1.539,3.34-3.337,5.135-4.876c0-0.258,0-0.258,0-0.258
		c-0.77,3.338-1.284,6.677-1.284,9.757v-0.257c0.772-3.337,1.284-6.674,2.056-10.012c0-0.257,0.256-0.257,0.256-0.513
		c0.514-0.258,0.77-0.514,1.028-0.771c-0.258,0.513-0.258,1.027-0.514,1.541c-0.258,2.053-0.514,3.851-0.514,5.39l0.256-0.256
		c0.514-2.567,1.284-5.135,2.056-7.702c0.77-0.77,1.539-1.541,2.309-2.312c-0.514,2.826-1.284,5.649-1.798,8.473v-0.257
		C294.941,254.495,295.713,251.672,296.225,248.59z M318.819,246.28c0.256,0,0.256-0.257,0.256-0.257v-0.256
		c-0.256-0.258-0.256-0.258-0.514-0.258c-2.567-2.053-5.39-3.851-7.958-5.647c2.823-0.257,5.39-0.513,8.216-0.513
		c1.795,0,3.593,0,5.135,0c3.079,2.823,6.674,4.621,10.525,5.39c-0.256,0-0.77-0.256-1.028-0.256c0-0.258-0.256-0.258-0.256-0.258
		c-2.823-1.284-5.904-3.08-8.73-4.876c0.258,0,0.514,0,0.772,0c2.053,0,4.107,0,6.16,0c3.081,1.539,5.904,3.08,8.986,4.621
		c0-0.257,0-0.257,0-0.257c-2.823-1.541-5.649-3.08-8.216-4.364c1.284,0,2.567,0,4.109-0.258c2.823,1.798,6.16,3.595,9.5,4.879
		l0.256-0.257v-0.257c-0.256-0.256-0.256-0.256-0.514-0.256c-2.823-1.284-5.904-2.567-8.727-4.109c4.107,0,7.958-0.256,11.809-0.513
		c0-0.257,0.256-0.257,0-0.513l0,0c2.823,0,5.649-0.258,8.73-0.258c3.593,2.567,7.958,4.109,12.578,4.622c-0.256,0-0.256,0-0.256,0
		c-4.109-1.284-8.216-2.824-12.067-4.622c2.053,0,4.107-0.256,5.904-0.256c0.514,0,1.028,0,1.284,0l0,0
		c3.851,2.31,7.96,3.337,12.323,3.594v-0.257c-4.107-0.514-7.702-1.798-11.553-3.337c0.258,0,0.258,0,0.258,0
		c2.823-0.257,5.649-0.257,8.472-0.257c2.823,2.824,6.163,4.364,10.014,4.622c-0.258,0-0.258,0-0.258,0
		c-3.593-0.771-6.674-2.312-9.5-4.622c1.284,0,2.826,0,4.109,0c3.593,1.796,7.444,2.824,11.553,3.338c0,0,0,0-0.258,0
		c-3.337-1.284-6.93-2.312-10.525-3.338c2.312,0.257,4.621,0.257,6.932,0.513c0.256,0,0.77,0,1.025,0
		c2.312-0.256,4.365-0.513,6.418-0.513c3.851,2.567,7.96,4.364,13.095,5.135c0,0,0,0-0.258,0c-4.107-1.541-8.472-3.08-12.323-5.392
		c0.514,0,1.284,0,2.053,0c1.028-0.514,2.312-0.77,3.851-0.77c1.284,0,2.567,0,3.595-0.257c1.539-0.257,3.337-0.513,4.879-0.513
		c0.77,0,1.539-0.258,2.053-0.258c5.135,0,10.269,0,15.404,0.258c2.053,1.284,3.851,2.823,5.649,4.364c0.256,0,0.511,0,0.77,0.257
		c0.256,0,0.77,0.256,1.284,0.514c0.256,0,0.77,0,1.025,0h0.258c0,0,0,0-0.258-0.258c-2.823-1.539-5.646-3.08-8.472-4.876
		c2.053,0,4.109,0,5.904,0c1.542,1.539,3.081,2.823,5.135,3.851v-0.258c-1.539-1.025-3.079-2.309-4.362-3.593
		c1.539,0,3.337,0,5.135,0.256c1.025,0,2.309,0,3.337,0c0.77,2.053,1.539,4.365,2.309,6.675c0.514,1.541,1.028,3.08,1.542,4.878
		c6.16,17.457,14.376,34.145,24.903,49.549c4.876,7.189,10.781,13.865,17.457,19.769c0.256,0.257,0.514,0.514,0.77,0.77
		c-2.312-1.796-4.621-3.593-6.674-5.647h-0.258c3.081,3.338,6.677,6.418,10.269,9.498c0.77,0.771,1.798,1.284,2.567,2.055
		c3.337,2.824,6.677,5.647,10.014,7.959c-8.216-0.77-16.688-1.284-25.159-1.541l0,0h-0.258c-0.256,0-0.256,0.257-0.256,0.257
		c8.216,1.027,16.943,1.539,25.929,1.539c2.567,1.798,5.135,3.338,7.702,4.879c-1.025-0.77-2.309-1.798-3.337-2.567
		c0.77,0.514,1.539,1.284,2.312,1.798l12.064,8.986c2.312,2.823,4.623,6.16,6.418,9.498c0.258,0.771,0.514,1.541,0.772,2.31
		c-0.772-0.514-1.542-1.027-2.056-1.284c-0.511-0.256-1.025-0.514-1.539-0.514c-3.595-1.284-7.446-1.284-11.039,0.258
		c-0.77,0-1.542,0.256-2.053,0.77c-7.191,2.823-12.837,7.445-17.716,13.606c0,0,0,0,0,0.257c-0.77,0.771-1.798,1.541-2.567,2.31
		c-0.514,0.257-1.028,0.77-1.539,1.284c-0.258,0.257-0.514,0.257-0.772,0.514c-1.284,1.027-2.567,1.798-3.593,2.823
		c-0.514,0.258-1.028,0.514-1.284,0.771c-2.567,1.796-5.135,2.824-7.702,3.594c0-0.256,0.256-0.256,0.256-0.514
		c-0.256,0.258-0.256,0.514-0.514,0.514c-0.77,0.257-1.795,0.514-2.823,0.514c-1.539,0.256-3.081,0.514-4.879,0.514
		c-4.876-2.312-9.497-4.879-13.862-7.96c-0.514,0-0.514,0-0.258,0.258c3.851,3.593,8.474,6.16,13.351,7.702
		c-2.823,0.256-5.39,0.513-7.958,0.513c0.77-0.257,1.539-0.257,2.309-0.257c-0.256-0.256-0.77-0.256-1.025-0.256
		c-3.081,0.513-6.163,0.256-9.244,0c-1.284-0.258-2.309-0.258-3.337-0.514c-0.256,0-0.514-0.257-1.025-0.257
		c-0.514-0.257-1.028-0.257-1.798-0.513c0,0,0,0,0.256,0c-0.256,0-0.256,0-0.256,0c-0.514-0.258-1.028-0.514-1.284-0.771
		c1.284,0.257,2.567,0.257,4.107,0.257c1.028,0.514,2.053,0.77,3.337,1.027c0,0,0,0-0.256-0.257
		c-0.514-0.256-1.284-0.514-2.053-0.77c2.567,0,5.135-0.257,7.702-0.514c-1.542,0-2.826,0-4.109,0c0.258,0,0.258,0,0.514-0.256
		c-0.256,0-0.514-0.258-0.77-0.258c-2.312-1.284-4.621-2.567-6.674-3.851c-0.514,0.258-0.514,0.771,0.511,1.284
		c1.028,0.514,2.056,1.284,3.081,1.798c0.77,0.77,1.542,1.028,2.053,1.284c-1.284-0.256-2.567-0.256-3.593-0.256
		c-2.567-1.542-4.621-3.338-6.677-5.393c-0.511,0-0.511,0-0.256,0.258c1.539,2.053,3.337,3.851,5.39,4.876
		c-1.539,0-3.337-0.256-4.876-0.513c-2.312-1.284-4.365-2.824-6.163-4.622c-0.256-0.256-0.514-0.256-0.256,0
		c1.539,1.542,3.081,3.081,5.135,4.365c-0.514,0-0.77,0-1.284,0c-0.514-0.256-1.284-0.256-1.798-0.514
		c-2.567-1.284-5.135-3.08-7.446-5.135c-0.256,0.514,0,1.028,1.028,1.798c1.028,0.77,2.053,1.541,3.081,2.312
		c0.256,0.256,0.514,0.513,0.77,0.77c-0.77-0.257-1.539-0.257-2.053-0.514c-2.312-1.284-4.621-2.823-6.932-4.365
		c-0.256-0.256-0.256-0.256-0.256,0c1.539,1.542,3.337,2.826,5.135,3.851c-1.542-0.513-3.081-1.025-4.623-1.539
		c-1.539-0.77-2.823-1.798-4.107-2.824c-0.256,0-0.256,0-0.256,0c1.025,1.027,1.795,1.796,2.823,2.567
		c-1.028-0.513-2.053-0.771-3.337-1.284c0,0-0.258,0-0.514,0c-2.053-1.796-4.107-3.338-6.163-4.622h-0.256
		c1.539,1.284,3.081,2.567,4.621,3.851c-5.649-2.053-11.039-4.107-16.429-6.16c-0.772-0.514-1.542-0.771-2.056-1.028
		c-2.309-1.284-4.621-2.567-6.93-3.851c0,0-0.258,0-0.258-0.256c2.312,1.284,4.879,2.053,7.702,2.567
		c1.028,0,2.053,0.256,2.826,0.256c0.511,0.257,1.025,0.257,1.284,0.257c1.795,0.771,3.337,1.284,4.876,1.541
		c3.851,0.77,7.96,1.284,11.811,1.539c9.241,1.028,17.713-1.025,25.159-6.16c-2.567,1.539-5.649,2.823-8.73,3.593
		c1.284-0.513,2.312-1.284,3.337-2.053c1.798-1.027,3.595-2.053,5.135-3.337c-1.025,0.514-2.053,1.027-3.079,1.284
		c1.025-1.028,1.795-2.053,2.567-3.337c1.284,2.053,2.823,3.851,4.876,5.39c0.514,0.257,1.028,0.77,1.542,1.284
		c0.77,0.77,1.795,1.541,2.567,2.312c3.593,3.08,7.188,5.135,11.295,6.16c0,0,0.258,0,0.258,0.258
		c2.053,0.513,4.107,1.025,6.16,1.539c6.163,1.284,11.553,0,15.918-4.107l0,0c-1.284,0.77-2.567,1.284-3.851,1.796l-0.256-0.257
		c-0.772-0.77-1.028-1.027-1.028-0.256c-1.539,0-2.823,0-4.107-0.258c-1.284-0.256-2.567-0.513-3.851-0.77
		c-0.772-0.256-1.542-0.256-2.312,0.257c3.595,1.284,7.188,2.055,10.783,1.541c-3.337,1.284-6.932,1.539-10.528,1.284
		c-1.795-0.514-3.593-1.284-5.39-2.053c-2.312-1.284-4.879-2.312-7.446-3.595c-3.337-1.539-6.16-3.337-8.727-5.39
		c-2.312-2.055-3.851-4.622-4.879-7.189c0-0.257,0.258-0.771,0.258-1.027c0,0.256-0.258,0.514-0.258,0.77l0,0
		c0-0.514,0.258-0.77,0.258-1.027l0,0c-3.34,4.622-7.702,7.702-13.095,9.498c-6.16,1.284-12.067,1.542-18.485,1.028
		c-3.851-0.257-7.702-0.77-11.809-1.541h-0.256c0.511,0,1.025,0,1.539,0c3.595,0.513,7.188,0.771,10.783,0.771l0,0
		c-1.798-0.258-3.337-0.514-5.135-0.514c-5.135-0.77-10.269-1.798-15.148-3.595c5.393,1.542,11.039,2.312,16.688,2.312
		c-1.284,0-2.823-0.257-4.107-0.514c-0.77-0.256-1.542-0.256-2.312-0.514c-6.674-1.025-13.092-2.823-19.255-5.39
		c-3.081-2.824-6.418-5.392-9.5-8.216c-6.16-5.135-12.323-10.269-18.227-15.404c-0.256-0.256-0.256-0.514-0.514-0.77h-0.256
		c-0.258-0.257-0.77-0.514-1.028-1.028h-0.256c-5.904-6.931-11.811-13.862-17.716-20.794c-5.904-6.932-11.039-14.377-15.66-22.079
		c-4.621-7.702-8.73-15.661-12.581-23.877c-2.823-6.16-5.39-12.323-7.444-18.741c0.256-1.027,0.511-2.31,0.511-3.337l0,0
		c-0.256,1.027-0.511,1.798-0.77,2.567c-0.256-0.77-0.514-1.798-0.77-2.824c0.77-0.513,1.798-0.771,2.823-1.027
		c0.772,0,1.542,0,2.567-0.257C313.17,241.916,315.993,244.225,318.819,246.28z M305.21,239.605c0.514,0,1.028,0,1.798,0
		c-0.77,0.257-1.539,0.514-2.309,1.028c-0.258-0.514-0.258-0.771-0.258-1.028C304.44,239.605,304.954,239.605,305.21,239.605z
		 M302.387,239.349c0.256-0.514,0.514-0.771,0.77-1.284c0.258,0,0.258,0,0.258-0.258c0.77,0.258,1.795,0.514,2.823,0.514
		c-0.77,0.257-1.284,0.514-2.053,1.028c0-0.514-0.258-1.028-0.258-1.284c-0.256,0-0.256,0-0.256,0c0,0.256,0,0.77,0,1.025
		c-0.77,0.514-1.539,1.028-2.053,1.798C301.873,240.374,302.131,239.862,302.387,239.349c0,0.256-0.256,0.256-0.256,0.256
		S302.131,239.349,302.387,239.349z M321.128,285.816c-1.284-4.107-2.823-8.216-4.621-12.323c3.337,6.418,6.932,12.58,11.039,18.741
		c4.109,6.418,8.472,12.581,13.351,18.485c2.312,2.567,4.621,5.39,6.932,8.216c2.823,6.418,6.16,12.323,9.755,18.227
		c0-0.256,0-0.256,0-0.514c-2.823-5.647-5.649-11.295-8.73-16.688c4.365,5.135,8.986,10.014,13.865,14.891
		c-0.77-0.771-1.539-1.541-2.312-2.055v-0.256c-1.539-1.028-2.823-2.312-4.107-3.595c-0.256-0.256-0.514-0.256-0.256,0
		c1.539,1.798,3.079,3.338,4.876,5.135c2.567,5.649,5.649,11.04,8.986,16.432c0-0.257,0-0.257,0.258-0.514
		c-0.258,0-0.258-0.256-0.258-0.256c-2.823-5.135-5.649-10.014-8.472-15.148c3.081,3.081,6.163,5.904,9.5,8.472
		c0.77,0.771,1.539,1.542,2.309,2.055l0,0c2.056,6.161,5.393,11.553,9.5,16.431c0,0,0.258-0.256,0.258-0.514
		c0,0-0.258,0-0.258-0.256c-3.593-4.621-6.674-9.755-9.241-15.148c3.081,2.826,6.16,5.393,9.755,7.96
		c0.256,0.513,0.77,0.77,1.284,1.025c5.39,4.879,11.553,8.986,17.971,12.581c-1.284-1.028-2.567-2.312-4.107-3.337
		c0.256,0,0.511,0,0.511,0.256c5.649,3.081,11.553,5.904,17.716,8.216c0.256,0,0.514,0.256,0.77,0.256
		c-4.621-1.539-8.986-3.337-13.351-5.135c-0.256,0-0.511,0-0.256,0c1.539,1.284,3.081,2.312,5.135,3.081
		c5.39,1.798,11.039,3.851,16.943,5.649c0.258,0.256,0.514,0.514,1.028,0.77l0.256-0.256l0,0c2.826,0.77,5.649,1.796,8.474,2.567
		c0,0,0.256,0,0.511,0.256c-2.823-0.514-5.135-1.027-7.702-1.798c0.772,0.258,1.542,0.514,2.312,0.771
		c0.77,0.257,1.798,0.513,2.567,0.771c5.904,1.284,11.809,2.567,17.716,3.08c2.309,0.257,4.362,0.513,6.674,0.771l0,0
		c5.135,0.256,10.269,0.256,15.148,0c0.256,0,0.511,0,0.77,0c-1.028,1.796-2.053,3.593-3.081,5.647l0,0
		c-0.256,0.513-0.514,1.027-0.77,1.284c-1.284,0.771-2.567,1.284-3.851,1.796v-0.256c0.77-1.028,1.284-2.312,2.053-3.337
		c-0.256,0-0.256,0.256-0.514,0.256c-0.256,0.514-0.77,1.284-1.284,1.798c0.514-2.312,1.284-4.621,2.567-6.675c0,0,0,0-0.256,0
		c-1.798,2.567-3.081,5.135-3.337,8.215c0,0.258-0.258,0.514-0.514,0.771c-1.284,0.513-2.826,1.027-4.109,1.541
		c0.258-0.514,0.514-1.284,0.772-2.312c-0.514,0.771-1.028,1.798-1.542,2.826h-0.256c0.256-0.514,0.256-0.771,0.514-1.284h-0.258
		c-0.256,0.513-0.77,1.025-1.025,1.539c-0.772,0.257-1.542,0.514-2.312,0.77c0.256-0.256,0.256-0.513,0.256-1.025v0.256
		c-0.256,0.257-0.511,0.77-0.511,1.028c-1.028,0.256-2.056,0.77-2.826,1.025c0-0.256,0-0.513,0.258-0.77c-0.258,0-0.258,0-0.258,0
		c-0.256,0.257-0.514,0.514-0.514,0.77c-1.795,0.771-3.593,1.284-5.646,1.798c0.256-0.514,0.256-0.77,0.256-1.284l0,0
		c-0.514,0.514-0.77,1.028-1.028,1.541c-0.77,0.257-1.795,0.513-2.567,0.771c0.258-0.258,0.258-0.514,0.514-0.771h-0.256
		c-0.258,0.257-0.258,0.513-0.514,0.771c-1.284,0.513-2.312,0.77-3.595,1.025c0.258-0.513,0.514-1.025,0.514-1.539
		c-0.256,0-0.256,0-0.256,0.256c-0.258,0.514-0.514,1.028-0.77,1.542c-1.284,0.256-2.567,0.77-3.851,1.025
		c0.256-0.513,0.511-1.284,0.77-1.796c-0.258,0-0.258,0-0.514,0c-0.256,0.771-0.514,1.284-0.77,1.796
		c-1.028,0.258-1.798,0.514-2.826,0.771c0.258-0.257,0.258-0.771,0.514-1.284c-0.256,0-0.256,0.257-0.256,0.257
		c-0.258,0.256-0.514,0.77-0.514,1.284c-7.958,1.798-15.918,3.594-23.876,4.878c-1.284,0.257-2.312,0.513-3.595,0.771l-5.904-5.906
		c-1.284-1.284-2.312-2.567-3.595-3.851c-3.337-3.338-6.674-6.675-9.755-10.269c-11.809-13.349-22.336-27.728-31.833-42.618
		c-9.758-15.404-18.999-31.322-27.471-47.751C324.209,294.546,322.412,290.181,321.128,285.816z M430.753,203.407c0,0,0,0,0.256,0
		c-0.256,0-0.256,0-0.511,0C430.753,203.407,430.753,203.407,430.753,203.407z M443.076,232.417c0,0.256,0,0.256,0.258,0.256
		c-0.772,0-1.542,0-2.056,0C441.792,232.673,442.562,232.673,443.076,232.417z M430.753,233.7c-0.514,0-0.77,0-1.028,0
		c2.056-0.257,4.109-0.514,6.163-0.77c-0.256,0.256-0.77,0.256-1.028,0.256c-0.511,0-1.025,0.257-1.284,0.257
		C432.551,233.7,431.523,233.7,430.753,233.7z M494.68,372.336c0.256-0.257,0.77-0.514,1.025-1.028
		c-0.256,0.771-0.514,1.284-1.025,2.055c-0.772,1.541-1.028,3.08-1.284,4.622c-0.514,0.256-1.028,0.256-1.542,0.513l-0.77,0.513
		c0.256-0.256,0.256-0.77,0.514-1.025c-0.258,0-0.514,0-0.514,0.256c-0.256,0.257-0.514,0.77-0.77,1.028l-2.053,1.025
		c0.256-0.513,0.77-1.539,1.025-2.309c-0.256,0-0.256,0-0.256,0.256c-0.258,0.514-0.514,0.77-0.77,1.284
		c-0.258,0-0.258,0-0.258,0.257c0,0-0.256,0.257-0.256,0.513c0,0.258-0.258,0.258-0.514,0.514l-2.312,1.284
		c0-0.256,0-0.256,0.258-0.256c-0.258,0-0.258,0-0.258,0v0.256l-2.309,1.028c0.77-1.028,1.539-2.055,2.053-3.081h-0.256
		c-0.514,0.514-1.028,1.027-1.284,1.539c0-0.256,0-0.513,0-0.77c-0.258,0.514-0.514,1.028-0.772,1.798
		c-0.256,0.256-0.511,0.77-1.025,1.284h-0.258c0.258-0.514,0.514-1.028,0.772-1.541l0,0c-0.772,0.513-1.284,1.284-1.798,2.055
		l-0.77,0.513c-1.798,1.027-3.595,2.055-5.135,3.08c1.025-2.053,2.309-3.851,3.337-5.647c4.365-1.027,8.216-2.824,11.809-5.647
		C491.341,375.417,493.138,373.875,494.68,372.336z M418.686,372.591c0,0,0,0,0-0.256c-1.798-0.77-3.851-1.541-5.904-2.312
		c3.337,1.284,6.674,2.567,10.014,3.851l0,0C421.512,373.362,420.228,373.105,418.686,372.591z M421.767,365.917
		c-1.028-0.257-1.798-0.257-2.823-0.514c3.593,0.257,7.444,0.514,11.295,0.514c0.258,0,0.258,0,0.258,0
		C427.672,366.173,424.849,366.173,421.767,365.917z M448.98,356.675v-0.257c0,0,0,0.257,0.258,0.514
		C448.98,356.932,448.98,356.675,448.98,356.675L448.98,356.675z M443.076,362.066c0.258-0.257,0.77-0.514,1.028-0.77
		c-0.258,0.256-0.258,0.513-0.514,0.513C443.334,361.809,443.334,362.066,443.076,362.066z M444.359,379.78c0.258,0,0.514,0,0.77,0
		c0,0,0.258,0,0.258,0.257C445.129,379.78,444.617,379.78,444.359,379.78z M458.224,397.239c0.256,0,0.256-0.258,0.514-0.258
		c-0.514,1.284-0.772,2.567-1.028,3.595c-0.77,0.256-1.539,0.514-2.312,0.77h0.258C456.426,400.062,457.454,398.523,458.224,397.239
		z M455.398,398.264c0.514-0.256,1.284-0.256,1.798-0.513c-0.77,1.284-1.284,2.567-1.798,3.851c-0.77,0.257-1.539,0.513-2.309,0.771
		C454.114,401.09,454.887,399.806,455.398,398.264z M457.965,400.576c0.514-1.284,1.028-2.567,1.542-3.851
		c1.284-0.514,2.567-1.284,3.851-1.798c-0.514,1.028-1.028,1.798-1.284,2.824c0,0,0.256,0,0.514,0c0-0.257,0-0.257,0-0.513
		c0.511-0.771,1.025-1.798,1.539-2.826c1.539-0.513,2.823-1.284,4.107-2.053c-0.511,1.028-1.284,2.053-2.053,3.081v0.256
		c0,0.258,0,0.514,0,0.771c0.258,0,0.514,0,0.514,0c0.514-1.027,1.028-2.055,1.798-2.824c0-0.256,0-0.256,0-0.256
		c0.256,0,0.256-0.258,0.514-0.258c0-0.513,0.256-1.025,0.511-1.284c0.514-0.256,1.028-0.513,1.284-0.77
		c-0.511,1.798-0.77,3.337-0.511,4.879c0-0.258,0-0.258,0-0.514c0,0,0-0.257,0-0.514c0.256-0.256,0.256-0.256,0.256-0.514
		c0.514-1.284,1.028-2.567,1.539-3.593c0.258,0,0.258,0,0.772-0.258c0-0.256,0-0.256,0-0.513l0,0
		c2.053-1.284,3.851-2.567,5.904-3.594c-0.258,0.514-0.77,1.027-1.028,1.798c-1.025,0.256-1.284,0.513-1.025,1.284
		c0.256,0,0.256,0,0.511,0c0.772-1.028,1.542-2.055,2.312-3.081c0,0.256,0.256,0.256,0.256,0.256
		c0.258-0.513,0.772-1.025,1.284-1.539c-0.256,0.77-0.77,1.539-1.025,2.31c-0.77,2.055-1.284,3.851-1.028,5.647
		c-4.876,1.798-9.755,3.338-14.634,5.135C462.589,398.778,460.533,399.548,457.965,400.576z M452.061,399.548
		c0.77-0.256,1.798-0.513,2.567-1.025c-0.77,1.539-1.539,2.823-2.309,4.107c-0.514,0.257-1.028,0.514-1.798,0.77
		C451.036,402.115,451.547,400.832,452.061,399.548z M427.93,406.225c1.025-0.258,2.053-0.514,3.079-0.514
		c-0.511,1.027-0.77,2.053-1.025,3.337v0.257c0,0.513,0,0.771,0,1.284c-0.514,0.257-1.028,0.257-1.542,0.513
		c-0.511,0.258-1.025,0.514-1.539,0.771C427.416,410.076,427.672,408.021,427.93,406.225z M430.239,411.615L430.239,411.615
		c0.514-0.256,1.028-0.514,1.542-0.77c0,0.256,0,0.514-0.258,0.77c-1.539,0.514-3.337,1.284-5.135,2.053c0,0,0,0,0-0.256
		C427.672,412.899,428.955,412.129,430.239,411.615L430.239,411.615z M430.497,411.101c0-0.256,0-0.256,0-0.513
		c0.511-0.257,0.77-0.257,1.284-0.513c-0.514,0-0.772,0.256-1.284,0.256c0.511-1.539,0.77-3.337,1.025-4.878
		c0.77-0.257,1.542-0.257,2.312-0.513c-0.77,1.796-1.284,3.593-1.798,5.647C431.523,410.588,431.009,410.845,430.497,411.101z
		 M429.983,410.845l0.256,0.256c-1.284,0.514-2.309,1.028-3.593,1.542v-0.258C427.93,411.872,428.955,411.359,429.983,410.845z
		 M426.132,413.668c0,0,0,0,0,0.258c-1.798,0.77-3.595,1.539-5.649,2.309C422.537,415.466,424.335,414.439,426.132,413.668z
		 M426.388,412.643L426.388,412.643c-0.514,0.256-0.77,0.513-1.284,0.513C425.618,413.156,425.874,412.899,426.388,412.643z
		 M432.292,410.588c0.772-0.257,1.542-0.771,2.312-1.027c-0.77,0.256-1.539,0.514-2.312,0.77c0.772-1.798,1.542-3.594,2.312-5.649
		c1.284-0.256,2.567-0.513,3.851-0.77c-0.514,1.798-1.028,3.337-1.284,5.135c-1.798,0.77-3.337,1.541-5.135,2.312
		C432.037,411.101,432.292,410.845,432.292,410.588z M444.873,402.115c-0.514,1.028-0.77,2.055-1.028,3.081
		c0.258,0,0.514-0.256,0.772-0.256c0.256-1.284,0.77-2.055,1.025-3.081c2.053-0.77,3.851-1.284,5.649-2.053
		c-0.514,1.284-1.028,2.567-1.284,3.851c-2.823,1.025-5.904,2.309-9.241,3.851l0.256-0.258c0.514-1.539,1.028-3.08,1.798-4.621
		C443.334,402.374,444.103,402.374,444.873,402.115z M439.225,403.657c0.77-0.258,1.542-0.514,2.567-0.771
		c-0.77,1.541-1.284,3.08-1.539,4.878c-1.028,0.514-1.798,0.77-2.826,1.284C437.941,407.25,438.711,405.454,439.225,403.657z
		 M496.219,379.523c-0.256,0-0.256,0-0.256,0c-1.284,2.312-2.056,4.879-2.567,7.702c-1.028,0.257-2.056,0.77-3.081,1.284
		c1.539-3.081,2.567-5.904,3.593-8.986c1.542-0.77,3.081-1.284,4.879-1.798l0,0c0.514,2.055,1.539,4.109,3.081,5.649
		c-1.798,0.77-3.595,1.541-5.393,2.312c0.514-1.798,1.028-3.851,1.542-5.649h-0.258c-0.77,1.798-1.539,3.851-1.795,5.904
		c-0.514,0.257-1.284,0.514-1.798,0.77C494.936,384.402,495.45,381.835,496.219,379.523z M492.882,379.78c0,0,0,0,0.256,0
		c-1.284,3.08-2.309,5.906-3.081,8.729c-0.256,0.257-0.77,0.257-1.025,0.514c-3.081,1.284-5.904,2.567-8.986,3.594
		c0-0.513,0.256-1.027,0.256-1.541c0,0,0,0-0.256,0c1.025-2.31,1.798-4.621,2.309-6.932c0.514-0.256,1.028-0.513,1.798-0.77
		c-1.284,2.567-2.567,5.135-3.593,7.959c0.256,0,0.511-0.257,1.025-0.257v-0.256c1.028-2.055,1.798-4.365,2.567-6.677
		c0.258,0.514,0.77,0.514,1.028,0.258c0.256-0.258,0.256-0.258,0.514-0.514c0.256-0.257,0.77-0.77,1.025-1.028
		c-1.025,2.312-2.053,4.879-2.823,7.446c0.256,0,0.256-0.257,0.514-0.514l0.256-0.256c1.028-2.567,1.798-5.135,2.823-7.702
		c0.514-0.258,1.028-0.258,1.798-0.514c-0.514,0.514-0.77,1.284-1.025,1.798c-0.772,2.053-1.284,3.593-0.772,5.135
		c0-0.258,0-0.258,0-0.514c1.028-2.312,1.798-4.621,2.826-6.932C491.085,380.551,491.855,380.293,492.882,379.78z M484.411,383.888
		c0-0.257,0-0.514,0.256-0.77c0.256-0.258,0.77-0.258,1.028-0.514C485.436,383.119,484.922,383.631,484.411,383.888z
		 M473.369,386.97c0.258-0.514,0.258-1.028,0.514-1.542c-0.77,1.028-1.539,2.312-2.309,3.851c-0.258,0-0.514,0.258-0.772,0.258
		c1.028-2.055,2.056-4.365,3.081-6.418c0.258-0.258,0.77-0.258,1.028-0.258c0.77,0,1.284-0.256,2.053-0.256
		C475.681,383.888,474.397,385.428,473.369,386.97z M480.302,385.428L480.302,385.428c0-0.256,0.258-0.256,0.258-0.256
		S480.56,385.428,480.302,385.428L480.302,385.428z M479.532,392.36c0,0.257-0.256,0.514-0.256,0.514s0,0,0-0.257
		C479.276,392.617,479.532,392.617,479.532,392.36z M385.055,353.336c-2.826-2.309-5.649-4.364-8.216-6.674
		c-2.053-1.541-3.851-3.081-5.904-4.621c-0.77-1.028-1.798-2.055-2.567-2.826c1.798,1.798,3.851,3.338,5.904,4.879
		C377.867,347.176,381.46,350.256,385.055,353.336z M393.783,359.755c-0.256-0.256-0.511-0.513-0.77-0.77
		c0.77,0.514,1.284,0.77,2.312,1.284c0.256,0.257,0.77,0.514,1.284,0.514C395.58,360.526,394.81,360.269,393.783,359.755z
		 M406.363,362.836c-0.77-0.256-1.539-0.256-2.312-0.514c-0.77,0-1.284-0.256-1.795-0.513
		C403.54,362.322,405.08,362.58,406.363,362.836z M363.747,335.623c0.256,0,0.256,0,0.256,0c0.514,0.513,1.028,1.025,1.539,1.796
		C365.031,336.907,364.517,336.393,363.747,335.623z M412.526,417.007c0,0.513-0.258,1.027-0.258,1.541c0,0-0.256,0.256-0.514,0.256
		C412.012,418.29,412.268,417.519,412.526,417.007z M323.954,435.749c0,0-0.258,0-0.258-0.258c0.77,0.258,1.542,0.258,2.312,0.514
		c-0.258,0-0.514,0.257-0.514,0.257c-0.514,0-1.028,0-1.539-0.257C323.954,436.004,323.954,436.004,323.954,435.749z
		 M324.465,436.518c-0.256,0-0.511,0-0.511,0v-0.257C323.954,436.261,324.209,436.518,324.465,436.518L324.465,436.518z
		 M352.194,439.086L352.194,439.086c-0.258,0.256-0.772,0.514-1.028,0.77c-1.284,0.257-2.312,0.77-3.337,1.028c0,0,0,0,0-0.258
		c-0.258,0-0.514,0-0.77,0c0-0.513,0-1.025,0-1.539C348.854,439.086,350.396,439.086,352.194,439.086z M341.153,437.545
		c0,0.257,0,0.513,0.258,0.513c-2.312,0-4.621-0.256-6.677-0.513c-0.256-0.257-0.256-0.257-0.256-0.513
		C336.79,437.288,339.099,437.545,341.153,437.545z M336.79,438.829c0,0-0.258,0-0.514,0l-0.258,0.257
		c-0.256,0.256-0.256,0.256-0.256,0.514c-0.256,0-0.77,0-1.028,0l0,0c0-0.514,0-0.771,0-1.284c1.542,0.256,3.34,0.513,5.135,0.513
		c-0.77,0-1.539,0.257-2.309,0.513c-0.258,0-0.258-0.256-0.258-0.256C337.046,439.086,337.046,438.829,336.79,438.829z
		 M345.004,436.004c0,0,0,0,0.258,0.257l0,0c0.256,0.513,0.256,0.771,0.514,1.284c-0.258,0-0.258,0-0.514,0
		C345.262,437.032,345.004,436.518,345.004,436.004z M345.262,437.802c0.256,0,0.256,0,0.514,0c0,0.256,0,0.514,0,0.77h-0.258
		C345.517,438.316,345.262,438.058,345.262,437.802z M344.492,437.802c0,0.256,0.256,0.514,0.256,0.514c-1.028,0-1.798,0-2.823,0
		c0-0.258,0-0.514,0-0.514C342.694,437.802,343.72,437.802,344.492,437.802z M346.031,439.086L346.031,439.086
		c0,0.514,0.256,0.77,0.256,1.284c-0.256,0-0.256,0-0.511,0c0-0.257,0-0.514,0-0.514c0-0.256,0-0.256,0.256-0.514
		C346.031,439.341,346.031,439.341,346.031,439.086z M346.287,441.396L346.287,441.396c0,0,0,0,0.258,0c0,0.257,0,0.257,0,0.513
		h-0.258l0,0C346.287,441.653,346.287,441.653,346.287,441.396z M333.709,437.032c0,0,0.256,0.256,0.256,0.513
		c-0.77,0-1.539-0.257-2.309-0.257c0-0.256,0.256-0.256,0.256-0.514C332.425,436.774,333.195,436.774,333.709,437.032z
		 M333.451,438.316c0.258,0,0.514,0,0.772,0c0,0.513,0,0.77,0,1.284c-0.258,0-0.514,0-0.772,0l0,0
		c-0.256-0.258-0.256-0.514-0.511-0.771c0-0.257-0.258-0.513-0.258-0.771L333.451,438.316z M330.883,436.518
		c0,0,0,0.256-0.256,0.256c0,0-0.256-0.256-0.514-0.256C330.372,436.518,330.628,436.518,330.883,436.518z"/>
	<path fill="#333333" d="M413.551,208.283c0-0.256,0.258-0.256,0.258-0.256c2.309-1.541,4.621-2.824,6.93-4.108
		c-0.256,0-0.256,0-0.511,0c-2.056,1.027-4.365,2.31-6.677,3.338c0,0.256-0.256,0.256-0.256,0.513c0,0,0,0,0,0.257
		C413.296,208.027,413.551,208.027,413.551,208.283z"/>
	<path fill="#333333" d="M321.386,199.297c0-0.256-0.258-0.256-0.514,0c-2.312,2.312-4.365,4.622-6.163,7.189
		c0.258-0.257,0.514-0.257,0.514-0.513C317.535,203.919,319.589,201.609,321.386,199.297z"/>
	<path fill="#333333" d="M324.209,201.865c-0.256,0.258-0.256,0.258-0.256,0.258c-3.081,3.593-5.907,7.188-8.474,10.782
		c0.258,0,0.514-0.257,0.514-0.257l0.258-0.256C319.33,209.054,321.898,205.716,324.209,201.865z"/>
	<path fill="#333333" d="M324.465,217.527c-1.025,1.025-2.053,2.053-2.823,3.08c-1.798,2.055-3.081,4.108-3.595,6.161l0.258-0.256
		c2.567-3.851,5.649-7.702,8.727-11.04C326.007,215.985,325.237,216.499,324.465,217.527z"/>
	<path fill="#333333" d="M317.021,221.12c0.256-0.256,0.256-0.256,0.256-0.256c3.337-3.337,6.418-6.932,9.244-10.526
		c0,0-0.258,0-0.258,0.257c-3.337,3.594-6.674,7.188-9.755,10.525C316.763,221.12,316.763,221.12,317.021,221.12z"/>
	<path fill="#333333" d="M317.021,215.985c0.256,0,0.256-0.256,0.256-0.256c3.595-3.595,6.932-6.932,10.269-10.526
		c-1.284,0.771-2.309,1.796-3.081,2.824c-2.823,2.823-5.646,5.39-8.472,7.958C316.252,216.243,316.507,216.499,317.021,215.985z"/>
	<path fill="#333333" d="M322.67,233.956c0,0,0.256,0,0.256-0.256c0.77-0.77,1.539-1.541,2.312-2.053c-0.258,0-0.514,0-0.514,0.256
		c-1.284,0.514-2.053,1.284-2.567,2.312C322.156,234.214,322.412,234.214,322.67,233.956z"/>
	<path fill="#333333" d="M322.156,228.566c0,0,0,0,0.256,0c2.312-2.312,4.365-4.879,5.904-7.702c0,0-0.256,0-0.256,0.256
		C326.007,223.687,323.954,226.254,322.156,228.566z"/>
	<path fill="#333333" d="M285.7,230.619v0.257c-1.284,5.135-3.081,10.012-4.879,14.891c0,0,0.258,0,0.514,0
		c0-0.258,0-0.258,0.258-0.514C283.902,240.633,285.186,235.754,285.7,230.619z"/>
	<path fill="#333333" d="M284.416,227.538c-0.256-0.256-0.514,0-0.514,0c-2.053,5.135-3.337,10.269-3.851,15.404
		c0,0,0.258,0,0.258-0.256C281.593,237.551,282.877,232.417,284.416,227.538z"/>
	<path fill="#333333" d="M283.388,224.201c0,0-0.256,0-0.256,0.257c-1.539,4.878-3.081,9.757-4.879,14.891
		c0.514-0.258,0.514-0.514,0.772-0.514c0,0,0-0.257,0.256-0.257C280.821,233.956,282.363,229.08,283.388,224.201z"/>
	<path fill="#333333" d="M289.806,241.402h-0.256c-2.823,5.135-5.135,10.269-6.674,15.404c0,0,0.256,0,0.256-0.257
		C285.186,251.415,287.497,246.28,289.806,241.402z"/>
	<path fill="#333333" d="M276.2,233.956v0.258c0.258,0.77,0.514,1.539,0.514,2.309c0-0.77-0.256-1.539-0.256-2.567H276.2z"/>
	<path fill="#333333" d="M400.715,215.472v-0.257c-1.284-1.798-3.337-2.567-5.649-2.053c-0.256,0-0.256,0-0.511,0
		c-1.028,0.256-1.798,0.77-2.312,1.798l0,0c-0.256,0-0.256,0-0.256,0c-2.567-1.028-5.393-1.542-8.474-1.284
		c-1.539,0-3.079,0-4.876-0.258h-0.258c-0.256,0-0.256,0-0.511,0c-0.258,0-0.514,0-0.772,0c-1.284,0-2.309,0-3.337,0
		c-1.539-0.256-2.823,0-3.337,0.771c-2.567,0.257-5.135,0.771-7.446,1.541c-0.256,0.256-0.511,0.256-0.77,0.256v-0.256
		c-1.284-2.053-3.337-3.081-6.16-2.567c-0.258,0-0.772,0-1.028,0.256c-0.77,0-1.539,0-2.053,0.258c-0.258,0-0.258,0-0.514,0
		c-0.514,0.256-1.284,0.77-1.798,1.284c0,0,0,0.256-0.256,0.256c0,1.028,0,2.053,0,3.337c0,0.514,0.256,1.028,0.514,1.798
		c0,0.77,0.511,1.798,1.284,2.567c1.795,2.053,3.851,2.824,5.904,2.312c0,0.256,0.256,0.256,0.256,0h0.258
		c1.025-0.514,1.795-1.028,2.567-1.798l0,0c0.256-0.257,0.256-0.257,0.256-0.257c0.256,0,0.256-0.257,0.514-0.257
		c0.256-0.514,0.77-0.77,1.025-1.284c0.772,0,1.542,0.257,2.312,0.257s1.539,0,2.312,0c-1.798,1.027-3.34,2.567-4.365,4.622
		c0,0,0.256,0.256,0.514,0.256c0-0.256,0-0.256,0.256-0.256c1.798-1.542,3.337-3.081,4.365-4.622c0.77,0,1.539,0,2.309,0
		c-1.284,0.513-2.309,1.541-3.337,2.31c0,0.257-0.256,0.514-0.514,0.514c-0.256,0.514-0.256,0.77,0,1.027
		c1.028-0.771,2.056-1.541,3.081-2.31c0.77-0.514,1.542-1.028,2.312-1.541c1.025,0,2.053,0,3.337,0
		c-2.312,1.284-4.621,2.824-6.674,4.364c0.256,0,0.511,0,0.511-0.256c2.567-1.028,4.879-2.567,6.932-4.108
		c3.337,0,6.932-0.257,10.269-0.257c-2.567,1.284-4.876,3.081-6.932,5.135c0.258,0,0.258,0.257,0.514,0.257
		c0.258,0,0.514-0.257,0.514-0.257c2.312-1.798,4.621-3.337,6.674-5.135c1.284,0,2.312,0,3.595,0
		c-1.539,1.284-3.081,2.567-4.621,4.108c0.514,0,0.77-0.257,1.284-0.257c1.025-0.77,2.309-1.539,3.337-2.31
		c0.514-0.257,1.028-0.771,1.284-1.027c0.256,0,0.514,0,0.77,0c-1.284,0.77-2.309,2.053-3.337,3.337c0.256,0,0.256,0,0.256,0
		c0.514-0.256,1.028-0.514,1.542-0.77c-0.514,0.514-0.77,0.77-0.77,1.284h0.256c0.514-0.514,1.028-0.77,1.539-1.028
		c0-0.256,0.258-0.256,0.514-0.256c0.77-0.514,1.542-1.284,2.567-1.798c0.77,0,1.542,0.257,2.312,0
		c-1.028,1.028-2.053,1.798-3.595,2.312c0.258,0,0.77,0.256,1.284,0.256c0,0,0,0,0.258,0c1.025-0.514,1.795-1.284,2.053-2.567
		c1.798-0.256,3.337-1.027,4.621-2.053c0-1.284,0-2.312,0-3.337C402.257,216.756,401.743,215.985,400.715,215.472z M396.864,218.297
		c0,0,0,0-0.256,0C396.864,218.297,396.864,218.297,396.864,218.297L396.864,218.297z M396.864,217.269L396.864,217.269
		c-2.823-1.025-6.16-1.539-9.241-1.796c-1.798-0.257-3.595-0.257-5.393,0.513c3.595,0,7.191,0.514,10.783,1.542
		c-0.77,0-1.539-0.258-2.053-0.258c-2.053,0.258-3.851,0.258-5.904,0.514c1.798,0.257,3.593,0.257,5.39,0.514l0,0h-0.256
		c1.025,0.77,2.053,1.284,3.337,1.284l0,0c-0.256,0-0.256,0.256-0.514,0.256c-0.514,0-1.284,0-1.798-0.256
		c-0.511,0-1.025,0-1.539-0.257c-0.256,0-0.514-0.257-0.77-0.257c-1.284-0.256-2.567-0.256-3.851-0.256
		c-1.798,0.256-3.337,0.256-5.135,0.256v0.257c-0.514,0-1.028,0-1.284,0h-0.258c-0.77-0.257-1.795-0.513-2.823-0.513
		c-3.081,0.513-6.163,0.77-9.5,1.284c0.258,0,0.514,0,1.028-0.258c-0.258,0-0.514,0-0.77,0c-0.258,0-0.514,0-0.772-0.256l0,0
		c-0.256,0-0.511,0-0.77,0.256l0,0c-0.256,0-0.256,0.258-0.256,0.258v0.256h-0.258c0.258,0,0.258-0.256,0.258-0.256l0,0
		c-0.258,0-0.514,0.256-0.77,0.256c-0.514,0-0.772,0-1.284,0.257c0,0,0.256,0,0.511,0c-0.511,0-1.284,0.257-1.795,0.513
		c-0.514,0-1.028,0-1.284,0.258c-0.772-0.258-1.542-0.771-2.056-1.284c0,0,0,0,0-0.258l0,0c3.595-0.513,7.446-1.025,11.553-1.284
		c0-0.256-0.256-0.256-0.256-0.256c-1.539-0.257-3.081-0.257-4.621-0.257c-0.258,0-0.77,0.257-1.028,0.257c-0.256,0-0.77,0-1.025,0
		c0-0.257,0-0.257,0-0.514c0.77,0,1.539-0.256,2.309-0.256c1.028,0,2.053-0.258,3.081-0.258l0,0c0-0.77,0.256-1.025,0.77-1.284
		c0.258,0,0.258,0,0.514,0c3.337-0.513,6.932-1.025,10.269-1.284v-0.256c-0.256,0-0.77,0-1.028,0
		c6.163-0.257,12.067,0.256,17.971,1.798c0.514,0,0.772,0.256,0.772,0.77C397.122,217.269,397.122,217.269,396.864,217.269z
		 M396.864,219.066c0,0,0,0,0.258,0l0,0c-0.258,0.257-0.258,0.257-0.258,0.257c0,0.257,0,0.257,0,0.257s0,0,0,0.256
		c-0.256,0-0.514,0.258-0.77,0.258l0.256-0.258c-0.511,0-1.284,0-1.795,0c-0.258,0.258-0.258,0.258-0.514,0.514l0,0
		c0-0.256,0.256-0.514,0.256-0.77C395.066,219.323,395.838,219.323,396.864,219.066z M398.661,216.243
		c0,0.256,0.256,0.256,0.256,0.513c0,0,0-0.257-0.256-0.257c0,0,0,0-0.256-0.256H398.661z M400.459,217.783L400.459,217.783
		c0.256,0.77,0.256,1.541-0.258,2.053v-0.256C400.201,219.066,400.201,218.297,400.459,217.783z M398.661,220.094
		c-0.256,0-0.256,0-0.256,0c0.256-0.258,0.511-0.258,0.511-0.258l0,0L398.661,220.094z M398.661,220.35c0,0.257,0,0.257,0,0.257
		s0,0-0.256,0l0,0C398.661,220.607,398.661,220.607,398.661,220.35z M394.555,222.661c-0.258,0.256-0.514,0.513-0.514,0.513
		s0.256-0.257,0.256-0.513C394.555,222.661,394.555,222.661,394.555,222.661z M381.204,220.607L381.204,220.607
		c-0.258,0-0.258,0-0.258,0S380.946,220.607,381.204,220.607z M362.205,215.985c-0.256,0-0.514,0-0.77,0.258
		c-0.256-0.258-0.256-0.258-0.256-0.514c-0.258,0-0.514-0.257-0.514-0.257c-0.77-0.513-1.542-1.027-2.053-1.284
		C359.638,214.189,360.921,214.96,362.205,215.985z M362.205,218.297L362.205,218.297c-1.539,0-3.081,0.256-4.365,0.77
		c-0.256,0-0.256,0-0.511,0c0-0.256,0-0.256,0-0.256c0.511,0,0.77-0.258,1.284-0.258c0.256-0.513,1.025-0.77,1.795-0.77
		c0.258,0,0.514,0,0.772-0.256C361.435,217.783,361.949,218.04,362.205,218.297z M359.382,217.013c-0.258,0-0.258,0-0.258,0
		c-0.256,0-0.256,0-0.511-0.257C358.868,216.756,359.124,216.756,359.382,217.013z M359.124,222.403c0.258,0,0.514,0,0.772,0l0,0
		c-0.258,0-0.258,0.258-0.258,0.258c-0.514,0.256-0.77,0.256-1.284,0.256c0.258,0,0.258-0.256,0.514-0.256L359.124,222.403z
		 M355.273,214.96c0.772,0,1.542,0,2.567,0c-1.795,0.256-3.079,0.513-4.362,1.284C353.989,215.729,354.761,215.215,355.273,214.96z
		 M352.194,215.215L352.194,215.215c-0.258,0.257-0.514,0.514-0.514,0.77c0-0.256,0-0.256,0-0.256
		C351.936,215.472,351.936,215.472,352.194,215.215z M358.612,216.756c-0.772-0.257-1.284-0.513-2.056-0.513
		c0.772,0,1.798,0,2.567,0.513C358.868,216.756,358.612,216.756,358.612,216.756z M354.503,216.756c0.258,0,0.258,0,0.258,0.257
		c-0.258,0-0.514,0.256-0.772,0.256c-0.256,0.258-0.511,0.514-0.77,0.771c0,0.513,0,1.284,0,2.055c0,0,0,0,0,0.256
		c0-0.256,0-0.256,0-0.256c0-0.514,0-0.771,0-1.028c0-0.514,0-0.77,0-1.027c0-0.257,0-0.257,0-0.513
		C353.733,217.269,353.989,216.756,354.503,216.756z M354.503,218.04l0.258-0.257c0.256,1.028,0.256,2.053,0,2.824
		c0,0-0.258-0.257-0.514-0.513v-0.258C354.247,219.066,354.247,218.552,354.503,218.04z M353.989,221.378h0.258
		c0.256,0,0.256,0,0.256,0c0,0.256,0,0.256,0,0.513l0.258,0.257c0.256,0,0.511,0,0.511,0s-0.256,0-0.511,0c0,0-0.258,0-0.514-0.257
		c0,0,0,0-0.258,0c0,0,0,0,0,0.257c0-0.257,0-0.257,0-0.257c-0.77-0.513-1.025-0.771-0.511-1.027
		C353.478,221.12,353.733,221.378,353.989,221.378z M357.584,222.148c0,0,0.256,0,0.514,0c-0.258,0-0.258,0-0.258,0
		c-0.511,0-0.77,0-1.284,0c0.258,0,0.772,0,1.028-0.257C357.584,221.891,357.584,221.891,357.584,222.148L357.584,222.148
		L357.584,222.148z"/>
	<path fill="#333333" d="M383.513,221.891h-0.256c-2.567,1.541-5.135,3.08-7.702,4.622c0.514,0.256,0.77,0.256,1.028,0.513
		l0.256-0.257C379.407,225.229,381.718,223.687,383.513,221.891z"/>
	<path fill="#333333" d="M378.893,221.891h-0.256c-2.312,1.284-4.365,2.567-6.418,4.364c0.514,0,0.77,0,1.025,0.258
		c0-0.258,0.258-0.258,0.258-0.258C375.811,224.971,377.609,223.687,378.893,221.891z"/>
	<path fill="#333333" d="M387.622,224.201h-0.258c-1.025,0.77-1.795,1.284-2.309,2.053c0.256,0,0.256,0,0.256,0
		C386.339,225.742,387.109,224.971,387.622,224.201z"/>
	<path fill="#333333" d="M366.056,221.891c-0.256,0-0.514,0-0.514,0c-2.309,1.796-4.107,3.851-5.39,6.161c0,0,0,0,0.256,0
		C362.463,225.999,364.258,223.945,366.056,221.891z"/>
	<path fill="#333333" d="M329.088,230.876c-0.514,0-1.028-0.257-1.542-0.257c-0.256,0-0.256,0-0.256,0.257
		c0.514,1.027,1.539,1.027,2.567-0.257C329.6,230.619,329.344,230.876,329.088,230.876z"/>
	<path fill="#333333" d="M418.686,208.797c0-0.256,0.258-0.256,0.514-0.514c1.028-0.77,1.798-1.539,2.312-2.567
		c-0.258,0-0.258,0-0.514,0C419.97,206.744,419.2,207.77,418.686,208.797z"/>
	<path fill="#333333" d="M424.849,208.541c-0.258,0-0.258,0-0.258,0c-2.309,2.309-5.135,4.107-7.958,5.39
		c0,0.514,0.256,0.514,0.77,0.257c2.567-1.541,4.879-3.338,7.188-5.135c0,0,0.258,0,0.258-0.257V208.541z"/>
	<path fill="#333333" d="M430.753,220.094c-0.256,0-0.256,0-0.256,0c-2.826,3.08-5.907,5.647-9.758,7.702
		c0.258,0,0.258,0,0.514-0.258C425.363,225.999,428.441,223.431,430.753,220.094z"/>
	<path fill="#333333" d="M427.93,216.243c0,0-0.258,0-0.258,0.256c-2.567,1.798-4.621,3.851-6.16,5.649l0.256-0.257
		C424.335,220.35,426.388,218.297,427.93,216.243z"/>
	<path fill="#333333" d="M427.672,211.109c-0.256,0.256-0.514,0.256-0.514,0.256c-2.823,2.312-5.646,4.621-8.727,6.675
		c0.256,0,0.514-0.257,0.514-0.257C422.281,215.985,425.104,213.932,427.672,211.109z"/>
	<path fill="#333333" d="M422.023,230.363c0.258,0,0.514,0,0.772,0c3.079-2.055,6.16-4.109,8.986-6.677
		c-0.258,0-0.514,0.258-0.514,0.258C428.186,226.254,425.104,228.309,422.023,230.363z"/>
	<path fill="#333333" d="M301.617,244.739l0.256-0.256v-0.258l0,0c-1.284,2.826-2.309,5.649-2.823,8.473
		c0.256,0,0.256-0.257,0.256-0.257C300.334,249.874,301.103,247.564,301.617,244.739z"/>
	<path fill="#333333" d="M299.306,246.023c-0.256,0-0.256,0-0.256,0c-1.542,2.824-2.567,5.649-3.081,8.472c0,0,0,0,0-0.256
		C297.252,251.672,298.28,248.847,299.306,246.023z"/>
	<path fill="#333333" d="M288.011,257.576c0,0-0.258,0-0.258,0.257c-1.025,2.567-1.798,5.135-1.798,7.959
		c0-0.257,0-0.514,0.258-0.514c0-0.256,0-0.256,0.256-0.514C286.983,262.455,287.239,259.888,288.011,257.576z"/>
	<path fill="#333333" d="M301.873,252.698l0.258-0.257c1.025-2.053,1.539-4.107,1.284-6.161c0.256-0.257,0.256-0.257,0.256-0.513
		c0.256,0,0.256,0,0.256-0.258c-0.256,0-0.511,0-0.511,0.258C302.901,248.076,302.387,250.388,301.873,252.698z"/>
	<path fill="#333333" d="M302.387,267.331c0,1.028,0,2.567,0.256,4.109c1.798,8.986,4.109,17.457,7.191,25.673
		c0-1.284-0.258-2.567-0.514-3.851C307.008,284.79,304.699,276.061,302.387,267.331z"/>
	<path fill="#333333" d="M310.859,288.641c-0.256,0-0.514,0-0.256,0c0.77,4.878,1.539,9.498,2.823,14.12l0.258-0.257
		C312.656,297.883,311.887,293.263,310.859,288.641z"/>
	<path fill="#333333" d="M295.713,264.508c0.511,3.594,1.025,6.932,1.539,10.525c0.77,3.851,1.539,7.702,2.053,11.553
		c1.284,8.986,3.595,17.715,6.418,25.931c-1.798-7.189-3.337-14.379-4.621-21.567c-1.539-8.729-3.337-17.714-5.135-26.443H295.713z"
		/>
	<path fill="#333333" d="M293.401,278.114c1.028,4.365,1.798,8.73,2.567,13.094c1.284,8.986,3.337,17.971,5.649,26.957
		c0-0.257,0.256-0.513,0.256-0.513c-2.053-8.473-3.851-16.946-5.39-25.417c-1.798-8.986-3.081-17.714-4.109-26.7
		C292.118,269.386,292.374,273.75,293.401,278.114z"/>
	<path fill="#333333" d="M294.685,301.99c-0.256,0-0.514,0-0.514,0.258c0.514,5.904,1.284,11.809,2.826,17.2
		c0-0.257,0-0.257,0-0.257C295.969,313.543,295.199,307.896,294.685,301.99z"/>
	<path fill="#333333" d="M315.993,307.125c-0.514,0.258-0.514,0.514-0.514,1.284c1.284,8.73,3.081,17.716,5.135,26.444
		c0.258-0.257,0.258-0.513,0.514-0.513c0-0.258,0-0.514,0-0.771C319.075,324.84,317.277,316.11,315.993,307.125z"/>
	<path fill="#333333" d="M339.099,328.947c-0.256,0-0.256,0-0.256,0c-0.258,2.567-0.258,4.879,0.256,7.189v-0.257
		C339.099,333.569,339.099,331.258,339.099,328.947z"/>
	<path fill="#333333" d="M336.276,331.258c0.256-1.541,0.256-3.081,0-4.621c-0.258,0-0.258,0-0.258,0
		c-0.256,2.053-0.256,3.593,0.258,4.876C336.276,331.258,336.276,331.258,336.276,331.258z"/>
	<path fill="#333333" d="M334.993,332.542c0.256-3.337,0-6.675-0.514-10.014c-0.256,0-0.256,0-0.256,0
		c0.256,3.851,0.511,7.189,0.77,10.269V332.542z"/>
	<path fill="#333333" d="M325.749,335.879c-0.256,0-0.256,0-0.511,0.257c-0.514,1.027-1.028,2.31-0.772,3.594l0.258-0.256
		c0-0.258,0-0.258,0-0.514C324.979,337.932,325.237,336.907,325.749,335.879z"/>
	<path fill="#333333" d="M346.031,343.325c-0.256,0-0.256,0-0.256,0c-0.514,2.823-0.258,5.39,0.256,7.702c0-0.258,0-0.258,0-0.514
		C346.287,348.202,346.287,345.634,346.031,343.325z"/>
	<path fill="#333333" d="M342.95,339.987c0.258-2.055,0-4.108-0.514-5.906c-0.256,0-0.256,0-0.256,0
		c0.256,2.312,0.514,4.365,0.256,6.677c0.258-0.258,0.258-0.258,0.514-0.514V339.987z"/>
	<path fill="#333333" d="M330.883,352.053c0-1.025,0-2.053-0.256-3.08c-0.256,1.284-0.514,2.567-1.028,4.364
		c-0.511,1.798-0.77,3.338-0.77,4.622c1.028-1.796,1.542-3.594,2.053-5.647V352.053z"/>
	<path fill="#333333" d="M333.965,357.187h-0.256c-0.258,0.258-0.514,0.514-0.514,0.771c0.256-1.284,0.514-2.31,0.77-3.594
		l-0.256,0.256c-0.514,1.542-1.028,3.081-1.542,4.622c-0.77,1.284-1.025,2.567-1.025,3.851c0.256,0,0.256-0.257,0.256-0.257
		c0-0.256,0-0.256,0-0.256c0,0.513,0,0.77,0,1.284c0,0,0.258-0.258,0.258-0.514c0,0,0.256,0,0.256-0.257
		c0.256-1.027,0.514-1.796,0.514-2.824C332.939,359.242,333.451,358.215,333.965,357.187z"/>
	<path fill="#333333" d="M334.734,372.336c0.258-0.257,0.514-0.77,0.514-1.028c-0.256,1.284-0.256,2.826-0.514,4.109
		c0,0,0.258,0,0.258-0.258c0.77-2.567,1.284-5.39,1.284-8.215l0,0c0-1.027,0-2.055,0-3.338l-0.258,0.258
		c-0.256,3.08-1.025,6.16-2.053,9.241c0.258,0,0.514-0.256,0.77-0.256C334.734,372.591,334.734,372.591,334.734,372.336z"/>
	<path fill="#333333" d="M340.897,371.566c-0.256,0-0.514,0-0.514,0.513c-1.025,2.31-2.053,4.878-2.823,7.445
		c-1.284,2.824-1.798,5.649-1.798,7.959c0,0,0.256,0,0.256-0.257C337.56,381.835,339.357,376.7,340.897,371.566z"/>
	<path fill="#333333" d="M349.627,348.46h-0.258c0,3.08,0,5.904,0.258,8.472c0,0,0,0,0-0.257
		C349.882,353.85,349.882,351.283,349.627,348.46z"/>
	<path fill="#333333" d="M352.194,359.755c0-0.256,0.256-0.256,0.511-0.513v-0.257c0-1.539,0-3.081-0.256-4.621v0.256
		C352.194,356.418,352.194,357.958,352.194,359.755z"/>
	<path fill="#333333" d="M354.761,356.675v0.257c-0.258,1.798-0.258,3.337-0.258,5.135c0,0,0.258-0.257,0.514-0.514v-0.256
		C355.017,359.755,355.017,358.215,354.761,356.675z"/>
	<path fill="#333333" d="M358.098,364.12c0.256-1.027,0-2.053,0-3.081c-0.258-0.256-0.258,0-0.258,0
		c-0.256,1.284-0.256,2.567,0.258,3.338V364.12z"/>
	<path fill="#333333" d="M360.921,362.322c-0.256,0-0.514,0-0.514,0c0.258,2.567,0.514,4.879,0.772,7.189l0.256-0.257
		C361.435,366.944,361.18,364.634,360.921,362.322z"/>
	<path fill="#333333" d="M362.463,366.944c-0.258,2.055-0.258,4.108-0.258,5.906c0-0.258,0-0.258,0-0.258
		c0.77-1.796,0.77-3.851,0.514-5.647C362.463,366.944,362.463,366.944,362.463,366.944z"/>
	<path fill="#333333" d="M363.747,368.228c-0.258,0.257-0.258,0.257-0.258,0.257c0,2.823-0.256,5.39-0.77,7.958
		c0.256-0.256,0.514-0.256,1.028-0.513v-0.257C363.747,373.105,363.747,370.795,363.747,368.228z"/>
	<path fill="#333333" d="M366.314,369.768h-0.258c0,3.594,0,7.188-0.514,10.783c0,0.256,0,0.256-0.256,0.513
		c0.256-0.257,0.514-0.257,0.77-0.513c0-0.258,0-0.258,0-0.514C366.826,376.7,366.826,373.362,366.314,369.768z"/>
	<path fill="#333333" d="M369.651,377.47c0,0.256-0.258,0.256-0.258,0.256c-0.511,4.109-1.025,7.96-1.025,12.067
		c0.256,0,0.256-0.256,0.514-0.256c0-0.258,0-0.258,0-0.514C369.137,385.172,369.393,381.321,369.651,377.47z"/>
	<path fill="#333333" d="M341.411,374.903c-0.77,3.081-1.798,6.418-2.826,10.012c-0.511,1.284-0.511,2.31-0.511,3.08
		c0.256,0,0.256-0.256,0.256-0.256C340.127,383.374,341.153,379.268,341.411,374.903z"/>
	<path fill="#333333" d="M328.06,385.172c0-1.541-0.256-2.824-0.514-4.108c-1.539-8.986-3.593-17.971-5.649-26.7
		c0,1.284,0.258,2.823,0.514,4.621C323.954,367.971,326.007,376.7,328.06,385.172z"/>
	<path fill="#333333" d="M347.315,392.617c-0.514,0.513-0.77,1.284-1.028,1.796c0-0.256,0.258-0.77,0.258-1.025
		c-0.258,0-0.514,0-0.514,0c-0.256,1.025-0.514,2.053-0.77,3.08c-0.77,1.541-1.542,2.824-2.567,4.364c0,0.514,0,1.028,0.514,1.284
		c0.256-0.256,0.511-0.513,0.256-1.025l0.256-0.258c0.514-0.77,1.028-1.539,1.542-2.309c-0.258,1.025,0,2.053,0.256,3.08
		c0,0.513,0,1.284,0,2.055c-0.256-0.258-0.256,0-0.256,0c-1.284,2.309-1.542,4.364-1.028,6.16v-0.256
		c0.258-2.053,0.77-3.851,1.284-5.904v0.256c0.258,0,0.258-0.256,0.258-0.256c0.256-2.055,0.511-3.851,0.77-5.649
		c-0.258,0-0.514,0-0.514,0c0,0.514-0.256,0.77-0.256,1.284c0-1.028,0.256-1.798,0.256-2.567c0.514-1.541,1.028-2.824,1.284-4.365
		C347.315,392.36,347.315,392.36,347.315,392.617z"/>
	<path fill="#333333" d="M336.276,404.17c0.256,0.257,0.514,0.513,0.77,0.513c-1.284-5.904-2.567-12.066-3.851-17.971
		c-1.798-8.986-3.595-17.971-5.39-26.957c-1.798-8.986-3.595-17.971-5.649-26.957c1.025,6.163,2.053,12.581,3.593,19.513
		c1.798,8.727,3.595,17.713,5.393,26.699C332.939,387.482,334.734,395.955,336.276,404.17z"/>
	<path fill="#333333" d="M344.492,413.927c0,0,0.256,0,0.256-0.258c1.539-3.08,2.312-6.418,2.567-9.755c0,0-0.256,0-0.256,0.257
		C346.031,407.508,345.004,410.845,344.492,413.927z"/>
	<path fill="#333333" d="M327.032,421.37v-0.256c-0.511-4.879-1.284-9.5-2.309-14.377l-0.258,0.257
		c0.772,4.878,1.542,9.755,2.312,14.89C326.777,421.629,327.032,421.629,327.032,421.37z"/>
	<path fill="#333333" d="M333.451,427.276c-0.256,0-0.256-0.257-0.256-0.257c-0.77-3.081-1.284-6.418-1.798-9.755
		c-1.798-8.986-3.593-17.971-5.39-26.957c-1.798-8.986-3.595-17.971-5.649-26.957c-1.798-8.986-3.595-17.971-5.39-26.957
		c-1.798-8.986-3.851-17.971-5.649-26.957c0.514,4.107,1.284,8.216,2.053,12.837c2.053,8.986,3.851,17.971,5.649,26.957
		c1.798,8.986,3.593,17.971,5.39,26.957c1.798,8.986,3.595,17.971,5.393,26.7c1.539,8.215,3.337,16.175,5.135,23.877
		c0,0,0,0,0,0.256c0,0,0.256,0,0.256,0.257C333.195,427.276,333.195,427.276,333.451,427.276z"/>
	<path fill="#333333" d="M353.989,411.872c-0.256,0-0.511,0-0.511,0.257c-0.772,2.567-1.798,5.135-3.081,7.702
		c0,0.256,0,0.256-0.258,0.514c0,0.256,0,0.513,0.258,0.513c-0.258,1.541-0.514,3.08-0.77,4.622c0.77,0.256,1.025,0,1.025-0.771
		c0,0,0,0,0-0.257c0.514-3.081,1.284-6.161,2.312-9.241l0,0C353.219,413.927,353.733,412.899,353.989,411.872z"/>
	<path fill="#333333" d="M354.761,415.723c0,0,0,0-0.258,0c-0.514,1.796-1.284,3.851-1.798,5.647
		c-0.77,1.542-1.539,3.081-2.053,4.879c-0.514,1.798-1.025,3.081-1.025,3.851c0.256,0,0.256,0,0.256-0.257
		c0.77-1.541,1.539-3.338,2.053-5.135C353.219,421.629,353.989,418.803,354.761,415.723z"/>
	<path fill="#333333" d="M358.098,428.047c-0.258,0-0.258,0.256-0.258,0.256c-1.795,3.081-3.337,6.163-4.621,9.243h0.258
		c0.256-0.257,0.256-0.257,0.256-0.513C355.273,434.207,356.815,431.127,358.098,428.047z"/>
	<path fill="#333333" d="M355.273,419.317c-0.77,1.541-1.539,3.337-2.309,5.135c-0.77,2.053-1.284,3.851-1.284,5.392
		c0-0.257,0-0.257,0-0.513C353.219,425.992,354.247,422.654,355.273,419.317z"/>
	<path fill="#333333" d="M372.474,380.807c-0.256,0-0.256,0-0.256,0.257c-0.258,3.338-0.258,6.675-0.258,10.269
		c0,0.513,0.258,0.513,0.772,0.257v-0.257C372.733,387.739,372.733,384.402,372.474,380.807z"/>
	<path fill="#333333" d="M371.96,380.037c-0.256-0.257-0.256-0.257-0.256,0c-0.77,3.851-1.028,7.445-1.284,11.296
		c0.256-0.257,0.256-0.257,0.256-0.257C371.191,387.225,371.705,383.631,371.96,380.037z"/>
	<path fill="#333333" d="M378.123,399.806c0.514-3.338,0.77-6.677,0.77-10.269c-0.256,0-0.256,0-0.256,0.256
		c-0.514,3.851-0.77,7.188-0.514,10.269V399.806z"/>
	<path fill="#333333" d="M386.339,396.211c-0.258,0-0.258,0-0.258,0c-0.256,5.135-0.256,10.014,0.258,14.634
		c0-0.257,0-0.257,0-0.514C386.595,405.711,386.595,400.832,386.339,396.211z"/>
	<path fill="#333333" d="M381.204,392.36c-0.258,0-0.258,0-0.258,0.257c-0.77,3.338-1.025,6.418-0.77,9.757c0,0,0.258,0,0.258-0.258
		C380.435,398.778,380.946,395.697,381.204,392.36z"/>
	<path fill="#333333" d="M391.987,413.156c0-0.257,0-0.257,0-0.513c0.256-2.826,0.511-5.649,0.77-8.73
		c0,0.257-0.258,0.257-0.258,0.257c-0.511,3.08-0.77,6.161-1.025,9.243C391.729,413.413,391.987,413.156,391.987,413.156z"/>
	<path fill="#333333" d="M388.906,413.156c0.256-3.851,0.514-7.702,0.77-11.553c-0.256,0-0.514,0-0.514,0.257
		c-0.514,4.107-0.514,7.958-0.514,11.553C388.648,413.413,388.648,413.413,388.906,413.156z"/>
	<path fill="#333333" d="M395.066,407.25c0,0,0,0,0,0.258c-0.511,3.851-0.77,7.958-1.284,12.066
		c0.258-0.257,0.514-0.257,0.514-0.513v-0.258C394.81,414.952,395.066,411.101,395.066,407.25z"/>
	<path fill="#333333" d="M397.892,410.076h-0.258c-0.511,4.107-1.025,8.215-1.539,12.323c0.256-0.257,0.514-0.514,0.77-0.514
		c0-0.256,0-0.256,0-0.256C397.122,417.778,397.378,413.927,397.892,410.076z"/>
	<path fill="#333333" d="M400.201,414.182c-0.256,0-0.256,0-0.256,0.257c-0.77,3.08-1.028,6.161-0.514,8.729v-0.256
		C399.689,420.087,399.945,417.007,400.201,414.182z"/>
	<path fill="#333333" d="M402.512,418.033c-0.256-0.256-0.256,0-0.256,0c-0.258,1.798-0.514,3.595-0.772,5.135
		c-5.135,2.053-10.781,3.851-16.174,5.649c-4.365,1.284-7.958,3.081-11.039,5.649c5.135-2.826,10.525-4.879,16.432-6.418
		c3.851-1.284,7.702-2.826,10.781-4.622c0,0.257,0,0.257,0,0.257c0.258,0,0.258,0,0.258-0.257l0,0
		c0.256-0.257,0.514-0.257,0.77-0.513c-0.256,0-0.514,0.256-0.77,0.256C402.512,421.37,402.768,419.574,402.512,418.033z"/>
	<path fill="#333333" d="M303.415,324.583c0.256,2.824,0.77,5.647,1.539,8.729c1.798,8.986,3.595,17.971,5.39,26.957
		c1.798,8.986,3.595,17.971,5.393,26.957c1.798,8.986,3.593,17.971,5.649,26.701c0,0,0.256-0.258,0.256-0.514
		c-0.514-2.567-1.028-5.392-1.539-8.216c-1.798-8.986-3.595-17.714-5.393-26.7c-1.798-8.986-3.593-17.971-5.39-26.957
		C307.266,342.554,305.468,333.569,303.415,324.583z"/>
	<path fill="#333333" d="M317.021,363.35c-1.798-8.986-3.851-17.971-5.649-26.957c0.256,3.594,0.77,7.445,1.539,11.296
		c1.798,8.986,3.851,17.971,5.393,26.957c1.798,9.243,3.851,17.971,6.16,26.444c-0.77-3.595-1.284-7.189-2.053-10.783
		C320.614,381.321,318.819,372.336,317.021,363.35z"/>
	<path fill="#333333" d="M322.412,428.816c0-1.028-0.256-2.312-0.514-3.595c-2.053-8.727-4.107-17.457-5.904-26.186
		c-0.256,0.771-0.256,2.055,0,3.851C317.535,411.872,319.844,420.601,322.412,428.816z"/>
	<path fill="#333333" d="M367.598,436.518c0,0.256,0,0.256-0.258,0.514c0.258-0.258,0.258-0.258,0.258-0.258
		S367.598,436.774,367.598,436.518z"/>
	<path fill="#333333" d="M346.545,413.156c0-0.257,0-0.257,0.256-0.513c1.798-4.109,2.826-8.473,3.337-12.837
		c-1.025,3.08-2.053,6.418-3.337,10.011C346.287,411.101,346.287,412.385,346.545,413.156z"/>
	<path fill="#333333" d="M319.589,239.862L319.589,239.862c2.053,2.567,4.876,4.364,8.472,5.392c0,0,0,0-0.256,0
		C324.979,243.97,322.156,242.172,319.589,239.862z"/>
	<path fill="#333333" d="M314.968,239.862c-0.258,0-0.258,0-0.258,0c3.081,2.567,5.904,4.364,8.986,5.647c0,0,0-0.256-0.256-0.256
		C320.614,243.456,317.791,241.916,314.968,239.862z"/>
	<path fill="#333333" d="M315.479,247.051c0.258,0,0.258,0,0.514,0c0-0.258,0-0.258-0.256-0.258c0-0.256,0-0.256-0.258-0.256
		c-2.567-2.053-5.135-3.337-7.958-4.621v0.256c-0.256,0-0.514,0-0.514,0h-0.256C309.833,243.456,312.656,245.253,315.479,247.051z"
		/>
	<path fill="#333333" d="M387.109,238.065h-0.256c3.337,2.053,7.188,3.337,11.553,3.851l0,0
		C394.555,240.633,390.96,239.349,387.109,238.065z"/>
	<path fill="#333333" d="M413.551,237.551C413.551,237.551,413.296,237.551,413.551,237.551c3.595,2.31,7.446,3.851,11.297,4.878
		l0,0C420.998,240.888,417.147,239.349,413.551,237.551z"/>
	<path fill="#333333" d="M408.675,237.551h-0.258c2.826,2.567,5.904,4.107,9.5,4.878l0,0
		C414.579,240.888,411.498,239.349,408.675,237.551z"/>
	<path fill="#333333" d="M413.81,241.916c0,0,0,0-0.258,0c-4.107-1.028-7.958-2.567-11.809-4.365h-0.258
		C405.08,240.119,409.186,241.658,413.81,241.916z"/>
	<path fill="#333333" d="M346.031,239.091c-0.256-0.256-0.256-0.256-0.256,0c3.079,2.055,5.904,3.338,9.241,4.365l-0.256-0.256
		C351.936,241.916,348.854,240.633,346.031,239.091z"/>
	<path fill="#333333" d="M340.383,239.091c0,0,0,0-0.256,0c0,0.258,0,0.258,0,0.258c3.851,1.539,7.188,3.337,10.783,5.135
		c0,0,0.256,0,0.511,0c0.258,0,0.258,0,0.258,0c0-0.258,0-0.258-0.258-0.258C347.829,242.172,344.234,240.633,340.383,239.091z"/>
	<path fill="#333333" d="M362.463,243.97c0.256,0,0.256,0,0.511,0c0.258,0,0.258,0,0.258,0c0-0.257,0-0.257,0-0.257
		c-3.851-2.824-8.216-4.364-12.581-4.878l-0.256,0.256C354.503,239.862,358.612,241.402,362.463,243.97z"/>
	<path fill="#333333" d="M408.675,266.819c0,0.257,0,0.257,0,0.513c-0.258-0.77-0.772-1.284-1.028-1.796c0,0.257,0,0.257,0,0.513
		c0,0,0,0-0.256,0c-1.028-0.256-1.798-0.513-2.826-0.513c0,0,0,0,0-0.257c0,0,0-0.256-0.256-0.256c-0.258,0-0.514,0-0.514,0.256
		c-0.256,0-0.514,0.257-0.514,0.257c-0.256,0-0.256,0-0.256,0c-0.514,0.257-1.284,0.513-1.798,0.771
		c-2.053,0.513-4.107,1.025-6.163,1.284v-0.258c-0.511,0-0.511,0-0.511,0.258c0,0,0,0,0,0.256c-0.258,0-0.258,0-0.258,0h0.258
		c0,0.514,0,1.284,0,1.798c-0.772,0-1.542,0.256-2.312,0.514c0.514,0.513,1.028,0.513,1.798,0.513l0.256-0.257
		c0.258,0,0.258,0,0.514,0c0,7.702-1.284,14.89-4.365,21.053c0,0.256,0.258,0.256,0.514,0.256c-0.514,1.284-1.028,2.567-1.539,3.595
		c-0.514,0.256-0.772,0.514-1.028,0.77l0,0l0,0c-0.77,0.514-1.539,1.028-2.053,1.541c0.256,0,0.514,0,0.514,0
		c0.77-0.257,1.539-0.771,2.053-1.027c0.256,0,0.514,0,0.77-0.257l0,0c3.337,0.513,6.418,0,9.755-1.796
		c1.542-0.514,2.567-1.284,3.337-2.312c0.258,0.514,0.258,1.028,0.514,1.284c0,0.257,0,0.514-0.256,1.028
		c0.256-0.258,0.514-0.258,0.514-0.514c0.256,0.256,0.256,0.514,0.511,0.77l0,0c0,0.77,0.258,1.798,0.772,2.567
		c1.539,4.879,3.593,9.243,6.16,13.606c0.514,0.771,1.028,1.542,1.542,2.312c1.284,3.081,2.823,5.904,4.876,8.729
		c2.567,5.135,6.418,9.243,11.297,12.324c0,0,0,0,0-0.258c0,0.514,0,1.028,0.256,1.542c-0.256,0.513-0.256,1.025-0.256,1.796
		c-0.258,0.513-0.258,1.284-0.77,1.796c-0.258,0.771-0.514,1.284-0.772,2.055c-0.511-0.513-1.025-1.027-1.539-1.284
		c0,0-0.256,0-0.256,0.257c0,0,0,0,0.256,0.256c0,0,0.256,0.258,0.514,0.514c0.256,0.257,0.514,0.514,0.77,0.77
		c-0.256,0.514-0.256,1.028-0.256,1.284c0.256,0,0.256-0.256,0.511-0.256c0-0.257,0.258-0.257,0.258-0.257
		c0.256,0.257,0.514,0.771,0.514,1.027c0.256,0,0.256,0.257,0.511,0.257c0,0.257,0.258,0.257,0.258,0.257
		c0,0.256,0.256,0.256,0.256,0.514c0,0.256,0.258,0.513,0.514,0.77c0.514,0.256,0.77,0.256,1.284,0.256
		c0.256-0.513,0.77-0.513,1.284-0.77c1.539,0,2.823-0.256,4.107-0.77c0,0.514,0,0.77,0,1.284h0.258
		c0.256-0.257,0.256-0.257,0.256-0.514c0-0.256,0-0.514,0.258-0.77c2.053-0.514,3.851-1.284,5.646-2.053
		c0,0.77,0.258,1.796,0.258,2.567c0.256,0,0.256-0.258,0.256-0.258c0.258-1.025,0.258-1.796,0.514-2.823
		c0.514-0.257,1.028-0.514,1.539-0.77c0,0.513,0,1.284,0,1.796c0.258,0,0.514,0,0.772,0v-0.257c0.256-0.77,0.256-1.539,0.511-2.31
		c1.028-0.513,2.312-1.027,3.595-1.541c-0.256,0-0.256,0.257-0.514,0.514c0.258-0.257,0.77-0.257,0.77-0.514
		c0.258-0.256,0.514-0.256,0.772-0.514c1.284-0.513,2.823-1.025,4.621-1.284c2.309-0.513,3.593-1.539,4.107-3.08
		c1.028,0,1.798-0.257,2.567-0.771c-0.256-0.256-0.256-0.256-0.256-0.513c0,0-0.258,0-0.514-0.257c0,0-0.256,0-0.256-0.256
		c0,0,0-0.258-0.258-0.258c0-0.256,0-0.256,0-0.256c-0.256-0.257-0.256-0.257-0.514-0.514c-2.567-2.053-5.135-2.823-7.958-1.798
		c-2.823-2.053-5.649-3.851-8.472-5.647c-0.258,0-0.258,0-0.258,0c-1.539-1.027-3.079-2.055-4.621-3.338
		c-0.256-0.513-0.514-0.77-0.77-1.284c-3.595-4.364-6.674-8.727-9.5-13.349c-2.567-4.622-4.876-9.498-6.932-14.12
		c-3.851-8.473-7.702-16.431-12.064-24.389c0.77,2.567,2.053,5.392,3.337,8.473c0,0.256,0.256,0.513,0.256,0.77
		c-0.256-0.514-0.77-1.028-1.025-1.541c-1.284-2.31-2.312-4.364-3.595-6.675C408.931,267.59,408.675,267.076,408.675,266.819z
		 M406.363,266.819h-0.256c1.025,1.284,2.053,2.824,3.079,4.364c0.514,1.284,1.028,2.567,1.542,3.851
		c1.025,2.312,2.309,4.365,3.337,6.418c1.028,2.567,2.312,5.135,3.337,7.702l0,0c-0.256-0.256-0.514-0.256-0.514-0.513
		c-0.256,0.257-0.256,0.257-0.511,0.513c0,0.258,0,0.771,0,1.028c-0.772-1.028-1.542-2.312-2.312-3.337
		c0.256,1.284,0.77,2.823,1.798,4.621c0,0.256,0,0.256,0.256,0.256c-1.284,5.649-2.053,11.297-2.567,16.946
		c-2.053-3.081-3.851-6.163-5.904-9.244c1.798-5.904,3.081-11.809,4.107-17.713c-0.511,0.77-1.025,1.539-1.025,2.567
		c-1.284,4.876-2.567,9.498-3.337,14.633c-0.258-0.257-0.258-0.257-0.258-0.257c-0.256-0.514-0.77-1.284-1.025-1.798
		c0-0.256-0.258-0.256-0.258-0.256v-0.257c1.028-6.161,2.312-12.324,3.595-18.484c0,0-0.258,0-0.514,0
		c-1.284,3.08-2.053,6.418-2.567,9.755c-0.256,3.337-0.514,6.161-0.514,8.729c-0.256-0.513-0.514-1.284-0.77-1.796
		c-0.256-0.771-0.514-1.798-0.77-2.567c1.798-5.649,3.081-11.04,3.851-16.688c-0.258,0-0.258,0-0.258,0
		c-1.284,5.135-2.567,10.269-3.851,15.404c-0.256-0.771-0.256-1.542-0.511-2.312c1.284-3.594,2.309-6.932,2.823-10.525
		c0,0,0,0-0.256,0h-0.258l0,0l-0.256,0.256c-0.258,0.77-0.514,1.798-0.77,2.567c0.511-2.31,0.77-4.621,1.025-6.932l-0.256,0.258
		c0.514-2.055,0.77-4.109,1.025-6.163c-1.284,3.595-2.567,7.702-3.337,11.81c-0.514,2.824-1.284,5.392-2.053,7.702
		c-0.256,0-0.256-0.257-0.256-0.257c0,0.257,0,0.514,0,0.77c-0.514,0-1.028,0-1.542,0c0,0.258-0.256,0.258-0.256,0.258
		c-1.028,0.77-2.053,1.539-3.081,2.053c-0.256,0.256-0.514,0.514-0.77,0.77c0-0.77,0-1.539,0.256-2.053c0,0,0,0,0.258-0.257
		c0,0,0,0,0-0.257c0.256,0,0.256-0.256,0.256-0.514c0,0.771,0,1.542,0,2.312v-0.257c0.514-1.541,1.028-3.08,1.284-4.878
		c2.312-4.879,4.107-9.755,5.649-14.634l0,0c-0.258,0-0.514,0-0.514,0c0,0.257-0.256,0.257-0.256,0.257
		c-1.028,2.567-2.056,4.878-2.826,7.445c0.77-2.823,1.284-5.39,2.312-7.958c-1.028,1.796-1.798,3.593-2.567,5.39
		c0.77-2.31,1.284-4.878,1.798-7.445c0.77-0.513,1.539-0.771,2.053-1.284c1.539-0.257,3.081-0.513,4.621-0.513
		c0,0.77,0.514,1.539,1.028,2.823c0,0.257,0,0.514,0.256,0.514c0,0.256,0,0.256,0,0.256
		C408.161,268.873,407.133,267.845,406.363,266.819z M398.406,269.386c0.77-0.513,1.539-0.771,2.309-1.027
		c-2.309,5.904-4.107,11.553-5.135,17.457c0-1.027,0-2.31-0.256-3.337C396.608,278.114,397.633,273.75,398.406,269.386z
		 M397.633,269.643L397.633,269.643c-0.511,2.31-1.284,4.365-1.795,6.418c0-1.798,0-3.595-0.258-5.392c0,0-0.256-0.257-0.256,0
		c0-0.257,0-0.257,0-0.513C396.094,270.157,396.864,269.899,397.633,269.643z M395.324,269.386c0-0.513-0.258-1.027-0.258-1.284
		c0.258,0,0.514,0,0.772-0.257c1.539-0.256,3.337-0.514,4.876-0.77C398.917,268.102,397.122,268.873,395.324,269.386z
		 M396.094,286.586c0-0.256,0.256-0.513,0.256-1.025c0,0.256,0,0.256,0,0.256C396.35,286.073,396.094,286.33,396.094,286.586z
		 M394.555,285.302v0.258c0,2.053,0,3.851,0.511,5.647c-0.511,0.257-1.025,0.771-1.539,1.027c0.256,0,0.514,0,0.514-0.256
		c2.567-0.514,4.876-1.798,6.674-3.338c-0.256,0.513-0.514,1.027-0.514,1.541c-2.567,1.027-4.876,2.053-7.444,2.567
		c-0.258,0.256-0.258,0.256-0.258,0.514c-0.256,0.256-0.511,0.256-0.511,0.513c-0.514,0.257-1.028,0.513-1.284,0.771
		c0.77-1.284,1.539-2.826,2.053-4.365h0.256v-0.257c0-0.257,0.258-0.513,0.258-0.771c0-0.256,0.256-0.256,0.256-0.513
		c0,0,0,0,0-0.257C393.783,287.357,394.297,286.33,394.555,285.302z M403.282,286.073c-0.256-0.257-0.256-0.771-0.256-1.027
		c-0.514,1.027-0.77,2.053-0.514,3.594c0.256,0,0.256,0,0.256,0.257h-0.256c0-0.77-0.256-1.541-0.514-2.053l0,0
		c1.028-3.081,2.053-6.163,2.826-9.244C404.052,280.426,403.54,283.249,403.282,286.073z M401.998,288.898
		c-0.256-0.257-0.256-0.514-0.514-0.77c0.258-0.258,0.258-0.771,0.514-1.028C401.998,287.614,401.998,288.384,401.998,288.898z
		 M401.229,289.153c0,0.258,0,0.258,0,0.258c0,0.256-0.256,0.256-0.256,0.256C400.973,289.412,400.973,289.412,401.229,289.153z
		 M400.459,291.208c0.256-0.257,0.77-0.771,1.284-1.027c0,0.514,0.256,0.77,0.514,1.284c-3.34,2.31-7.191,3.851-11.297,4.365
		c1.284-0.771,3.081-1.284,4.621-1.798c1.542-0.514,2.567-1.284,3.337-2.053c0.258,0,0.258,0,0.514-0.258c0,0,0,0,0,0.258
		c0.258,0,0.258,0,0.514,0.256c0-0.256,0.256-0.256,0.256-0.514C400.201,291.465,400.201,291.465,400.459,291.208z M414.065,309.692
		v-0.256c1.028-5.392,1.798-10.783,2.823-16.174c0.514,0.77,0.772,1.539,1.284,2.309c-0.511,0.258-1.025,0.771-1.284,1.542
		c0,0,0,0.256,0,0.513c0.258,4.622,0,9.243-0.511,13.863c-0.258,0-0.258,0.257-0.258,0.257c0,0.257,0,0.257-0.256,0.513v0.258
		C415.349,311.49,414.835,310.72,414.065,309.692z M413.296,310.72L413.296,310.72L413.296,310.72c0,0.514,0.256,1.027,0.514,1.539
		c-1.284-2.053-2.312-4.107-3.34-6.418C411.498,307.383,412.268,309.179,413.296,310.72L413.296,310.72z M420.228,290.695
		c-0.258-0.514-0.514-0.771-0.772-1.284c-1.539-3.338-3.079-6.677-4.621-10.014c0,0,0,0,0.258,0
		C416.633,282.993,418.43,286.844,420.228,290.695z M422.537,296.855c0.258,0.258,0.258,0.514,0.514,0.771
		c0.514,0.771,1.028,1.796,1.539,2.824c1.284,2.567,2.567,5.135,3.851,7.445c-1.025-1.284-1.795-2.567-2.823-3.851
		C424.59,301.734,423.565,299.167,422.537,296.855z M419.456,297.369L419.456,297.369c-0.77,6.932-1.025,13.351-0.77,19.769
		c0.258,0,0.258-0.257,0.258-0.257c0.511-6.418,0.77-12.837,0.77-18.998c0.514,0.514,0.77,1.284,1.025,1.798
		c1.028,1.284,2.056,2.823,2.826,4.107v0.257c-0.77,6.418-1.284,12.58-1.284,18.998c-0.258-0.514-0.514-0.77-0.77-1.284
		c-0.258-0.256-0.514-0.77-0.772-1.027c0-6.675,0.258-13.094,0.772-19.512l0,0c-0.514,0-1.028,0.257-0.772,0.77
		c0,0,0,0.258-0.256,0.258c-0.514,5.904-0.77,11.553-0.256,17.457c-1.284-2.312-2.826-4.621-4.109-6.675h0.258
		c0,0,0.256,0,0.256-0.257c1.028-5.135,1.539-10.525,1.028-15.918c0.256,0,0.256-0.256,0.256-0.256
		c0.256-0.257,0.514-0.514,0.514-0.77C418.686,296.343,418.944,296.855,419.456,297.369z M419.2,293.518
		c0.77,1.284,1.284,2.824,2.053,4.108c-1.539-2.055-2.823-3.851-4.107-5.906c0.256-0.77,0.256-1.539,0.514-2.309
		C418.172,290.695,418.686,291.979,419.2,293.518z M416.888,318.165L416.888,318.165c2.056,2.824,4.109,5.392,6.163,7.959
		c0.77,1.284,2.053,2.31,3.081,3.081c0.77,0.77,1.798,1.284,2.567,1.796c0,0,0,0.257,0,0.513h-0.258c0,0,0.258,0.258,0.258,0.514
		c0,0.257,0,0.514,0,1.028C424.079,328.691,419.97,323.812,416.888,318.165z M427.672,309.179c1.542,1.796,2.826,3.338,4.365,5.135
		c1.539,2.824,3.337,5.392,5.39,8.215c3.851,5.649,8.73,9.244,14.634,11.04c-6.418-3.594-11.809-8.729-15.918-14.891
		c0.514,0.258,0.772,0.771,1.284,1.284l0.514,0.258c2.053,2.053,4.109,3.851,6.418,5.39c0,0.514,0.258,0.77,0.514,1.028
		c0.256,0,0.514,0.256,0.514,0.256c2.823,2.053,5.39,3.337,7.958,3.851c-0.77,0-1.284,0.257-1.025,0.514
		c1.539,0.256,3.079,0,4.362-0.257c0.258,0,0.772-0.257,1.028-0.257c-1.028,0.257-1.798,0.77-2.823,1.284
		c-2.056,1.284-4.109,2.312-6.163,3.337c0-0.256,0-0.513,0.256-0.77c-0.256,0-0.256,0-0.256,0c-0.256,0.257-0.514,0.77-0.514,1.028
		c-0.514,0-0.77,0.256-1.025,0.513c0.256-1.284,0.511-2.567,0.77-3.851c-0.258-0.257-0.258,0-0.258,0c0,0.513,0,1.027-0.256,1.284
		c-0.256,0.257-0.256,0.257-0.514,0.257c0,0.256,0,0.256,0,0.514c-0.514,0.77-0.77,1.539-1.025,2.309
		c-0.514,0-1.028,0.258-1.284,0.514c0.256-1.798,0.77-3.594,1.025-5.39c-0.77,1.539-1.539,3.593-2.053,5.647
		c-1.028,0.257-1.798,0.513-2.823,0.771l0,0c0.77-2.567,1.539-5.135,2.567-7.96c-1.542,1.542-2.567,3.338-3.081,5.649
		c-0.258,1.028-0.514,1.798-0.514,2.824c-0.77,0.257-1.284,0.257-2.053,0.513c0-0.256,0.256-0.513,0.256-0.77
		c0.514-1.284,1.284-2.31,1.798-3.594c-0.256,0-0.256,0.257-0.256,0.257c-0.514,0.514-0.772,0.77-1.028,1.284
		c0.514-2.312,1.028-4.879,1.539-7.188l-0.256,0.256c-1.284,3.337-2.312,6.675-3.081,10.269c-0.77,0.257-1.539,0.77-2.309,1.284
		c0.77-4.365,1.539-8.472,2.567-12.837c0.511,0.514,0.77,0.77,1.284,1.284c-0.258-0.514-0.772-1.284-1.028-1.798
		c0-1.025,0.256-2.309,0.514-3.337c-0.514,0.77-0.77,1.541-1.284,2.567c-2.567-3.851-4.621-7.958-6.418-12.067
		C429.214,313.03,428.441,311.234,427.672,309.179z M425.874,308.408c1.284,3.081,2.567,6.163,3.851,9.244
		c-0.511,4.364-1.025,8.472-1.025,12.837c-2.312-1.798-4.365-4.109-5.904-6.677l0,0c0.256-6.418,0.77-12.837,1.539-18.997
		c0.256,1.025,0.77,2.053,1.284,2.823c-0.514,5.904-0.514,11.553-0.256,17.457c0.256-0.256,0.256-0.513,0.511-0.513
		c0-0.257,0-0.257,0-0.257C426.132,318.936,426.132,313.543,425.874,308.408z M460.021,331.514c0.256,0,0.256,0.258,0.256,0.258
		c0,0.256,0.256,0.256,0.256,0.513c0,0,0,0,0,0.257c-1.284,0.256-2.823,0.514-4.362,1.027l0,0c-0.258,0-0.258,0-0.258,0
		c-1.025,0.771-1.798,1.284-2.309,1.796c-0.514,0.258-1.028,0.258-1.284,0.514c0-0.256,0.256-0.256,0.511-0.514
		c-0.256,0-0.511,0-0.77,0c-0.77,0.514-1.539,1.028-2.567,1.542c-0.256,0.256-0.77,0.513-1.284,0.77c0-0.257,0-0.514,0-0.514
		c3.851-1.798,7.446-3.851,11.039-6.161h-0.256c-0.256-0.257-0.77-0.257-1.028-0.257c0.258,0,0.258,0,0.514,0
		c-0.256,0-0.77-0.256-1.025-0.256c0,0,0.256,0,0.511-0.258c-0.256,0-0.256,0-0.256,0c-0.77,0-1.798,0-2.567,0l0,0
		c-1.028-0.256-1.798-0.256-2.567-0.513c1.798,0,3.595,0,5.39,0.257c0.258,0.256,0.258,0.256,0.514,0.256
		c0.258,0.514,0.77,0.771,1.284,1.028L460.021,331.514z M452.319,328.947c-0.258,0-0.514,0-0.514,0.258c-0.258,0-0.258,0-0.514,0
		c-1.284-0.514-2.567-1.028-4.107-1.798c0.256-0.257,0.256-0.257,0.511-0.514c-0.256,0-0.511-0.256-0.77-0.256
		c0.514,0,1.028,0.256,1.542,0.513C449.752,327.921,451.036,328.434,452.319,328.947z M444.103,339.216c0-0.256,0-0.256,0-0.513
		c0.514,0,1.025-0.257,1.284-0.513c0,0.256,0,0.256,0,0.513C444.873,338.96,444.617,338.96,444.103,339.216z M447.696,337.42v0.257
		c-0.256,0.256-0.77,0.256-1.025,0.514c0-0.258,0-0.258,0-0.514C447.185,337.677,447.44,337.42,447.696,337.42z M442.82,339.73
		c-0.77,0.257-1.798,0.77-2.826,1.028c0-0.258,0-0.258,0.258-0.514c0.77-0.257,1.798-0.77,2.823-1.028
		C443.076,339.474,442.82,339.474,442.82,339.73z M439.483,340.5c0,0,0,0.258,0,0.514c-0.772,0.257-1.542,0.514-2.312,0.77
		c0-0.256,0-0.513,0.256-0.77C438.199,340.758,438.711,340.758,439.483,340.5z M456.17,333.826c0.256,0,0.511,0,0.77,0l0,0
		c-0.514,0.256-1.284,0.514-1.798,0.77C455.398,334.34,455.912,334.081,456.17,333.826z M432.037,322.016
		c0.514,1.027,1.284,2.055,2.053,3.08c-1.025,3.338-1.798,6.677-1.798,9.757c-0.511-0.513-0.77-0.771-1.284-1.284
		C431.267,329.718,431.523,325.867,432.037,322.016z M431.523,321.245c-0.256,0.771-0.256,1.542-0.256,2.312
		c-0.258,1.539-0.514,3.081-0.77,4.878c-0.258,1.284-0.258,2.824-0.258,4.108c-0.256-0.257-0.77-0.514-1.025-1.028l0,0
		c0.256,0.258,0.511,0.514,0.77,0.771c0-0.257,0-0.257,0-0.513c0-0.258-0.258-0.258-0.258-0.514c-0.256,0-0.256,0-0.511,0l0,0
		c0.256,0,0.511,0,0.77,0c-0.258,0-0.514-0.257-0.514-0.257c0.256-4.108,0.514-8.215,0.77-12.324
		C430.753,319.706,431.009,320.475,431.523,321.245z M434.348,325.61c0.511,0.514,1.284,1.284,1.795,1.798
		c-0.77,1.798-1.284,3.851-1.539,5.904c-0.256,2.824-0.514,5.392-1.028,7.959c-1.025,0.771-2.053,1.284-3.079,2.31
		c1.025-0.514,1.795-0.77,2.823-1.284c0,0.257,0,0.514,0,0.77c0.256,0,0.514-0.256,0.77-0.77c0,0,0,0,0-0.256
		c0.77-0.258,1.542-0.514,2.312-0.771c0,0.257,0,0.771,0,1.027c-1.284,0.257-2.312,0.77-3.337,1.284c-0.258,0-0.258,0-0.258,0
		c-0.77,0.257-1.798,0.77-2.823,1.028c0,0,0,0-0.258,0c0-0.258-0.256-0.514-0.256-0.514c-0.256-0.257-0.514-0.514-0.77-0.77
		c-0.258-0.514-0.514-0.771-0.77-1.284c1.795-2.055,2.309-4.365,1.795-7.446c0.258,0.257,0.514,0.514,0.772,0.514
		c0,0.514,0.256,1.027,0.256,1.539c0.256,0,0.256-0.256,0.256-0.256c0-0.257,0-0.514,0-0.77c0.258,0,0.514,0.256,0.772,0.513
		c0.256,0,0.256,0,0.256,0c0,1.541,0,3.08,0.256,4.622V340.5C432.806,335.365,433.576,330.489,434.348,325.61z M432.292,335.109
		c-0.256,0.256-0.256,0.514-0.256,0.77c-0.256-0.256-0.514-0.514-1.028-1.027c0-0.257,0-0.513,0-0.771
		C431.523,334.34,431.781,334.595,432.292,335.109z M429.469,333.569c0,0-0.256,0-0.256-0.257c0-0.256,0-0.77,0-1.027
		c0.256,0.257,0.77,0.771,1.025,1.027c0,0.257,0,0.77,0.258,1.028C429.983,334.081,429.725,333.826,429.469,333.569L429.469,333.569
		L429.469,333.569z M429.214,334.34L429.214,334.34c0,0,0,0,0,0.256C429.214,334.34,429.214,334.34,429.214,334.34z"/>
	<path fill="#333333" d="M399.431,287.87v-0.256c1.798-6.163,3.337-12.323,4.879-18.485c-0.77,1.284-1.284,2.567-1.798,4.108
		c-0.514,1.796-1.028,3.594-1.539,5.135C399.945,281.965,399.175,285.047,399.431,287.87z"/>
	<path fill="#333333" d="M414.065,284.019c-0.256,0-0.514,0-0.514,0.514c-1.539,5.392-2.823,10.783-3.593,16.432
		c0-0.258,0-0.258,0-0.258C411.754,295.059,413.296,289.667,414.065,284.019z"/>
	<path fill="#333333" d="M414.065,288.641h-0.256c-1.542,5.135-2.312,10.269-2.056,15.147c0,0,0,0,0.258-0.256
		C412.526,298.653,413.296,293.518,414.065,288.641z"/>
	<path fill="#333333" d="M428.186,315.855c-0.256,0.256-0.256,0.256-0.256,0.256c0.256,4.109,0.256,7.96,0.256,12.067
		c0,0,0.256-0.256,0.514-0.256c0-0.258,0-0.258,0-0.514C428.955,323.557,428.7,319.706,428.186,315.855z"/>
	<path fill="#333333" d="M421.767,236.268c-0.256,0-0.514,0-0.514,0c3.081,2.567,5.904,4.365,9.244,5.649
		c-0.258-0.258-0.514-0.258-0.772-0.514C427.158,239.862,424.335,238.065,421.767,236.268z"/>
	<path fill="#333333" d="M469.777,303.532c-1.542-0.514-2.826-0.771-4.365-1.028l0,0c1.284,0.77,2.823,1.028,4.365,1.284
		C469.777,303.532,469.777,303.532,469.777,303.532z"/>
	<path fill="#333333" d="M464.642,303.788h-0.258c4.109,1.798,8.73,3.081,13.865,3.595c0,0,0,0-0.256,0
		C473.628,306.099,469.007,304.816,464.642,303.788z"/>
	<path fill="#333333" d="M470.546,315.341l-0.256,0.257c5.39,1.027,11.039,1.541,16.688,2.055c0-0.258,0-0.258,0-0.258
		c-5.135-1.025-10.014-1.796-14.892-2.053C471.574,315.341,471.06,315.341,470.546,315.341z"/>
	<path fill="#333333" d="M468.749,310.206l-0.256,0.257c4.107,0.771,8.472,1.284,12.578,1.541h-0.256
		C476.709,311.234,472.858,310.72,468.749,310.206z"/>
	<path fill="#333333" d="M474.397,317.652l-0.256,0.256c4.876,1.028,9.497,1.798,14.376,2.567c-0.256-0.256-0.256-0.256-0.256-0.256
		C483.639,319.192,479.018,318.422,474.397,317.652z"/>
	<path fill="#333333" d="M513.163,338.191c-1.795-0.771-3.593-1.028-5.646-1.028l0,0c2.053,0.514,3.851,1.028,5.904,1.284
		C513.421,338.446,513.421,338.446,513.163,338.191z"/>
	<path fill="#333333" d="M507.258,339.474h-0.256c3.593,0.513,6.932,1.284,10.525,2.823c0-0.256,0-0.256-0.256-0.256
		C514.191,340.244,510.854,339.474,507.258,339.474z"/>
	<path fill="#333333" d="M511.879,341.271l-0.256,0.257c3.081,0.77,6.163,1.798,9.241,3.337c0,0-0.256,0-0.256-0.256
		C518.042,342.811,514.96,341.783,511.879,341.271z"/>
	<path fill="#333333" d="M518.297,345.893c-0.77,0.256-1.284,0.256-2.053,0.256c3.081,0.77,6.163,1.798,9.244,3.337
		c0.256,0,0.256,0,0.511,0c-0.256-0.256-0.256-0.256-0.511-0.256c-2.312-1.284-4.365-2.312-6.932-3.337
		C518.556,345.893,518.556,345.893,518.297,345.893z"/>
	<path fill="#333333" d="M524.46,350.256c-0.256,0-0.514-0.257-0.514-0.257c-1.539-0.77-3.081-1.284-4.621-1.798
		c-0.514,0.258-0.256,0.514,0.256,0.771C521.379,349.485,522.921,349.999,524.46,350.256z"/>
	<path fill="#333333" d="M519.325,351.027c-0.256,0.513,0,0.77,1.284,1.284c3.081,0.77,6.163,1.796,8.986,2.823c0,0,0,0,0-0.256
		C526.258,353.336,522.921,352.053,519.325,351.027z"/>
	<path fill="#333333" d="M496.219,327.408c0-0.257,0-0.257,0-0.257c-5.39-1.027-10.525-2.055-15.918-2.824h-0.256
		C485.436,325.867,490.829,326.893,496.219,327.408z"/>
	<path fill="#333333" d="M496.219,328.691L496.219,328.691c-3.851-1.028-7.702-1.798-11.809-2.053l0,0
		C488.004,327.663,492.113,328.434,496.219,328.691z"/>
	<path fill="#333333" d="M492.624,323.557h-0.256c-6.163-0.77-12.323-1.541-18.485-3.081c-0.256,0-0.256,0-0.256,0
		C480.046,322.529,486.206,323.557,492.624,323.557z"/>
	<path fill="#333333" d="M464.128,366.944c0,0-0.256-0.257-0.514-0.257c-3.851-2.053-7.444-4.107-11.039-6.674
		c-0.256,0-0.256,0,0,0.256C456.17,363.093,460.021,365.403,464.128,366.944z"/>
	<path fill="#333333" d="M481.585,369.511c0.258,0.257,0.514,0.257,0.77,0.513c2.312,0.258,4.365,0.258,6.163,0
		c0-0.256,0-0.256,0-0.256c-1.539-0.514-3.337-0.77-5.39-0.77l0,0c-0.514,0-1.284,0.256-1.798,0.256
		C481.33,369.511,481.33,369.511,481.585,369.511z"/>
	<path fill="#333333" d="M488.518,363.864c-0.256,0-0.256,0,0,0.256c2.312,0.514,4.621,0.514,6.932,0.257h-0.258
		c-2.053-0.513-4.362-0.771-6.418-1.027c0,0.256,0,0.256-0.256,0.256C488.518,363.606,488.518,363.606,488.518,363.864z"/>
	<path fill="#333333" d="M486.978,366.431c0,0.256,0,0.256,0,0.513c2.823,0.513,5.39,0.771,7.958,0.771c0-0.258,0-0.258-0.256-0.258
		c-2.312-0.513-4.879-1.025-7.446-1.284c0,0.258,0,0.258,0,0.258H486.978z"/>
	<path fill="#333333" d="M485.436,367.715L485.436,367.715c-0.256,0-0.256,0.256-0.256,0.256v0.257c1.798,0.513,3.593,0.513,5.135,0
		c0-0.257-0.258-0.257-0.258-0.257C488.518,367.971,486.978,367.715,485.436,367.715z"/>
	<path fill="#333333" d="M447.44,371.566L447.44,371.566c5.135,4.621,11.039,7.444,17.716,8.986l0,0
		C458.993,378.24,453.089,375.417,447.44,371.566z"/>
	<path fill="#333333" d="M482.869,377.726c0,0,0,0-0.256,0c-1.542-0.513-3.337-0.77-4.879-1.284h-0.256
		C478.762,377.726,480.56,378.24,482.869,377.726z"/>
	<path fill="#333333" d="M479.532,379.268v-0.258c-3.081,0-5.904-1.025-8.216-2.823h-0.256
		C472.858,378.754,475.681,379.78,479.532,379.268z"/>
	<path fill="#333333" d="M476.709,380.551L476.709,380.551c-4.623-1.284-8.73-3.081-12.837-5.393h-0.258
		C467.209,378.24,471.574,380.037,476.709,380.551z"/>
	<path fill="#333333" d="M340.127,313.287c-0.514,0.256-0.258,0.77,0.256,1.539c2.312,2.567,4.365,5.135,5.904,8.216
		c2.056,3.337,3.851,6.675,5.649,9.755l0,0C349.113,325.61,345.262,318.936,340.127,313.287z"/>
	<path fill="#333333" d="M340.383,316.369c-0.77-2.567-2.053-4.879-3.081-7.446c-0.256,0-0.511,0-0.256,0.257
		c0.77,2.824,2.053,5.135,3.337,7.445V316.369z"/>
	<path fill="#333333" d="M452.575,383.631L452.575,383.631c0.77,2.055,2.053,3.851,3.851,5.392c0.256,0,0.256-0.257,0.256-0.257
		v-0.257l-0.256-0.256C454.887,386.711,453.603,385.172,452.575,383.631z"/>
	<path fill="#333333" d="M450.263,386.456c-0.256,0-0.256,0-0.256,0.256c1.028,2.055,2.567,3.595,4.621,4.109
		c0,0,0-0.258-0.256-0.258C452.831,389.537,451.547,388.253,450.263,386.456z"/>
	<path fill="#333333" d="M439.994,383.631h-0.256c1.798,3.08,3.851,5.906,6.163,8.729c0,0,0.256,0,0.511,0
		c0.258,0,0.258,0,0.258-0.256l0,0C444.103,389.537,442.05,386.711,439.994,383.631z"/>
	<path fill="#333333" d="M443.845,383.631h-0.256c1.798,3.08,4.107,5.647,6.932,8.215l0.256-0.256c0,0,0-0.257-0.256-0.257
		c0-0.257,0-0.257-0.258-0.257C447.954,388.766,445.901,386.199,443.845,383.631z"/>
	<path fill="#333333" d="M437.685,391.846c0,0,0,0-0.258-0.256c-2.823-2.824-5.39-6.163-7.958-9.243
		c-0.256-0.257-0.256-0.257-0.256,0C431.523,386.456,434.348,389.537,437.685,391.846z"/>
	<path fill="#333333" d="M440.766,391.333c0.511,0,0.77,0,1.284,0c0-0.257,0-0.257,0-0.257c-0.514,0-0.772-0.256-1.028-0.256
		c0-0.258-0.256-0.258-0.256-0.258c-1.542-2.053-2.826-4.107-4.365-5.904h-0.258C437.685,386.97,438.969,389.279,440.766,391.333z"
		/>
	<path fill="#333333" d="M420.228,379.01c-0.258,0-0.258,0-0.258,0c3.081,4.109,6.677,7.189,10.528,9.757
		c-0.258-0.257-0.258-0.257-0.258-0.257C426.646,385.428,423.307,382.091,420.228,379.01z"/>
	<path fill="#333333" d="M423.821,387.225c-0.256-0.256-0.256-0.256-0.514-0.514c-3.337-3.593-6.418-7.444-9.497-11.295h-0.258
		c2.826,4.364,6.163,8.472,10.014,12.066c0.256,0,0.256,0,0.256,0C423.821,387.225,423.821,387.225,423.821,387.225z"/>
	<path fill="#333333" d="M417.147,383.631c0,0,0-0.257-0.258-0.257c-3.593-4.107-7.188-8.216-10.525-12.323h-0.256
		c0.77,1.539,1.795,2.823,2.823,4.107c0.77,1.028,1.539,2.055,2.312,3.081C412.782,380.551,414.835,382.348,417.147,383.631z"/>
	<path fill="#333333" d="M389.932,360.013L389.932,360.013c0.514,1.796,1.542,3.593,2.567,5.39c1.284,2.053,2.826,3.851,4.623,5.135
		c-0.258-0.256-0.772-0.514-1.028-0.77c0-0.257,0-0.257,0-0.257C394.041,366.173,391.987,363.093,389.932,360.013z"/>
	<path fill="#333333" d="M375.556,355.648c0-0.257,0-0.257,0-0.257c-2.823-5.392-5.904-10.526-9.241-15.661
		c0-0.256-0.258-0.256-0.258,0C369.137,345.379,372.219,350.513,375.556,355.648z"/>
	<path fill="#333333" d="M380.435,352.053c-0.258,0-0.514,0-0.258,0.258c2.826,5.39,6.418,10.269,10.783,14.376v-0.256
		C386.853,362.066,383.513,357.187,380.435,352.053z"/>
	<path fill="#333333" d="M399.689,368.228c0,0-0.258,0,0,0.257c3.079,4.107,6.418,7.958,9.755,11.553c0,0,0,0,0-0.257
		C406.619,375.672,403.54,371.822,399.689,368.228z"/>
	<path fill="#333333" d="M352.964,324.84h-0.258c3.081,4.878,5.907,9.755,8.216,14.89c0.258,0,0.258,0,0.514,0
		c0-0.256,0-0.256,0-0.256c-0.256-0.258-0.256-0.258-0.256-0.514C358.868,333.826,356.301,329.205,352.964,324.84z"/>
	<path fill="#333333" d="M280.051,264.764c0,0,0,0,0-0.256c0,0.256-0.256,0.256-0.256,0.514
		C280.051,264.764,280.051,264.764,280.051,264.764z"/>
	<path fill="#333333" d="M503.666,365.66c-0.258,0-0.258,0-0.258,0c-1.798,3.338-3.337,6.675-4.365,10.012c0.258,0,0.258,0,0.258,0
		C501.098,372.336,502.638,368.999,503.666,365.66z"/>
</g>
</svg>
