<?xml version="1.0" encoding="utf-8"?>
<!-- Generator: Adobe Illustrator 17.0.0, SVG Export Plug-In . SVG Version: 6.00 Build 0)  -->
<!DOCTYPE svg PUBLIC "-//W3C//DTD SVG 1.1//EN" "http://www.w3.org/Graphics/SVG/1.1/DTD/svg11.dtd">
<svg version="1.1" id="Layer_1" xmlns="http://www.w3.org/2000/svg" xmlns:xlink="http://www.w3.org/1999/xlink" x="0px" y="0px"
	 width="800px" height="600px" viewBox="0 0 800 600" enable-background="new 0 0 800 600" xml:space="preserve">
<path fill-rule="evenodd" clip-rule="evenodd" fill="#020000" d="M530.287,384.677c-6.841,0.466-11.87,4.788-17.437,7.591
	c-5.38,2.717-10.587,4.751-14.342,6.475c-1.907,0.874-4.651,3.653-7.312,2.81c-1.41-0.453-1.476-2.648-2.813-3.38
	c-11.262-1.129-25.53-0.633-37.968-1.122c-4.686-0.186-9.988-1.37-13.501-0.843c-2.717,0.409-5.269,4.496-6.751-0.279
	c-8.599,0.335-18.516-0.949-29.813-0.565c-10.345,0.354-25.548-0.316-35.434,0.844c-2.62,0.31-6.332,2.375-7.594-1.123
	c-16.243,15.815-31.831,32.293-46.405,49.783c-6.053,1.625-14.94,4.217-21.656,6.748c-2.45,0.918-5.061,2.295-6.748,1.972
	c-3.886-0.75-2.543-5.296-4.785-8.441c0.602-7.74-1.361-17.873-1.966-27.282c-0.537-8.317-1.16-16.416-1.687-24.187
	c-12.99-0.589-28.488-2.251-42.191-2.251c-6.772,0-12.416,1.352-15.743-3.088c0.356-2.66,0.353-4.987-1.69-6.754
	c0.173-1.575,1.491-1.544,1.405-3.095c-0.072-1.308-1.858-1.91-1.966-3.088c-0.102-1.085,1.231-2.233,1.402-3.38
	c0.341-2.264-0.208-5.843-0.279-9.278c-0.344-16.993-0.797-30.556,0-49.503c0.105-2.474,0.89-5.408,0.564-7.026
	c-0.31-1.526-2.288-2.462-2.533-4.224c3.966-3.02,3.076-9.402,3.659-16.875c1.606-20.752,2.248-42.985,2.248-62.434
	c0-11.399-1.433-22.68,0.282-32.342c0.292-1.607-1.439-1.191-1.125-2.81c1.544-2.208,1.739-5.761,5.063-6.189
	c5.836-8.037,11.253-16.491,17.719-23.908c0.025-0.72,0.155-1.339,0.561-1.68c-0.012-0.49,0.208-0.732,0.561-0.85
	c9.393,3.194,22.085,4.726,33.186,6.748c11.132,2.04,22.984,3.659,32.91,6.475c10.373,2.933,21.071,5.731,31.496,8.156
	c5.253,1.222,10.292,3.008,15.468,4.217c26.668,6.221,52.436,12.397,77.625,21.093c10.152,3.51,20.597,6.14,31.217,8.155
	c10.71,2.04,21.378,4.559,32.346,5.911c2.174,1.005,4.735,1.631,7.873,1.687c2.326,1.644,1.421,3.585,1.408,6.748
	c-0.025,3.814,1.759,7.653,2.245,12.094c1.123,10.165,2.348,22.339,3.941,34.03c1.953,14.395,3.483,28.56,4.496,42.75
	c0.797,11.114,3.597,21.452,4.782,32.907c0.573,5.526,1.727,10.611,2.815,16.59c0.856,4.713,1.699,12.912,3.374,15.753
	c0.682,1.16,2.843,1.55,3.373,3.095C530.904,382.283,530.46,383.219,530.287,384.677z M247.92,163.618
	c-1.836,16.131-0.657,33.571-0.843,50.626c-0.189,17.092-0.227,34.365-0.847,50.905c-0.664,17.812-2.401,33.372-1.684,51.749
	c0.574,14.711,1.172,32.584,1.684,49.497c17.932,2.661,37.164,1.396,54.843,3.374c1.138,1.83,3.619,0.347,5.625,1.408
	c4.003,2.108,2.756,6.121,2.533,11.25c-0.738,16.795,2.58,35.711,2.81,50.626c2.787-1.649,5.163-4.211,7.315-6.754
	c13.846-16.348,28.836-30.215,43.032-46.402c2.124-2.425,5.333-6.443,7.874-7.033c1.671-0.385,4.943,0.527,7.594,0.564
	c3.123,0.044,6.443,0,9.281,0c19.421,0,36.644,2.208,53.435,1.973c6.258,1.848,12.965,1.085,19.688,1.402
	c19.995,0.955,40.114,2.933,60.465,2.251c-9.901-47.823-12.946-105.686-22.215-155.809c-11.024-1.625-21.71-4.434-32.346-6.468
	c-21.688-4.15-41.1-11.4-60.465-17.155c-25.17-7.492-51.826-12.714-77.061-19.97c-4.974-1.427-10.119-2.946-15.188-4.217
	c-20.485-5.154-44.046-8.205-65.247-12.658C247.976,162.806,247.349,163.705,247.92,163.618z M226.824,187.247
	c4.698-4.775,8.695-10.245,12.937-15.467c0.701,0.025,0.871,0.521,1.408,0c-0.133-1.922,0.137-3.429,0.282-5.067
	C236.161,172.772,230.431,181.38,226.824,187.247z M224.294,200.463c5.157-4.31,9.318-12.056,16.029-15.753
	c0.14-0.986,0.422-1.83,0.285-3.095C234.276,187.005,229.609,194.057,224.294,200.463z M227.389,207.217
	c3.584-4.484,8.716-7.411,11.811-12.379c0.676,0.111,0.611-0.515,1.408-0.286c0-0.75,0-1.501,0-2.245
	C236.127,195.886,230.657,202.417,227.389,207.217z M226.545,217.618c-0.779,0.626-2.223,0.589-1.969,2.251
	c1.727,0.093,2.583-2.004,3.656-3.095c3.64-3.722,7.446-7.467,10.689-11.25c0.654,0,1.309,0,1.969,0
	c-0.255-0.775,0.577-2.642-0.568-2.537C235.783,207.918,229.981,211.583,226.545,217.618z M225.702,208.619
	c2-2.208-0.701,0.025-0.844,1.408C225.531,209.469,225.317,209.04,225.702,208.619z M233.01,224.365
	c3.384-3.144,7.961-6.382,7.88-10.965c-0.189,0-0.375,0-0.568,0c-3.166,2.561-5.879,5.557-8.717,8.434
	c-2.75,2.797-5.972,5.923-6.748,10.407C227.702,230.35,229.999,227.175,233.01,224.365z M226.545,240.397
	c-0.397,0.539-1.368,0.509-1.969,0.843c0,1.315,0,2.63,0,3.938c2.419-1.544,3.882-4.167,6.469-6.754
	c3.711-3.708,10.223-7.863,9.278-12.366C235.625,230.734,230.037,234.518,226.545,240.397z M224.294,252.491
	c-0.208,2.152-0.186,2.797-0.279,5.067c6.199-5.519,10.745-12.695,16.593-18.562c-0.018-0.955,0.506-1.203-0.285-1.693
	C235.051,242.438,230.601,248.391,224.294,252.491z M223.729,269.651c4.695-6.468,10.835-11.479,15.47-18.004
	c0.375,0,0.751,0,1.123,0c-0.177-0.949,0.366-2.611-0.279-3.095C234.865,255.66,226.598,261.167,223.729,269.651z M225.419,276.957
	c-1.129,0.657-2.85,0.713-2.53,2.816c3.464-3.287,8.264-7.988,12.094-11.815c1.858-1.854,3.579-4.347,5.061-4.217
	c-0.431-1.228,1.153-2.965-0.283-3.374C234.744,265.657,229.717,270.947,225.419,276.957z M224.014,288.207
	c-0.827,0.254-0.865,0.254-1.69,0c-0.381,1.234,0.18,1.662-0.282,2.816c6.013-4.776,10.568-10.996,15.753-16.59
	c0.332-0.329,0.995-0.323,1.69-0.286c-0.044-0.806,0.778-2.195,0-2.815C233.897,276.535,228.614,282.024,224.014,288.207z
	 M225.702,296.083c-2.382,2.338-5.123,4-4.221,8.441c5.65-5.321,12.481-11.895,17.718-18.568c-0.474-0.695,0.543-2.723-0.279-3.653
	C234.775,286.532,230.272,291.593,225.702,296.083z M238.074,295.804c-5.963,6.127-12.084,12.094-17.154,19.126
	c5.787-4.664,10.537-10.227,15.468-15.753c0.862-0.967,2.499-1.451,2.533-3.095C238.558,296.071,238.53,295.724,238.074,295.804z
	 M220.92,334.895c6.388-4.949,11.718-10.965,17.719-16.311c-0.766-0.732,0.427-3.429-0.843-3.653
	C231.736,321.151,224.288,325.982,220.92,334.895z M220.92,341.363c0.053,1.929,0.013,3.771-0.282,5.346
	c5.241-3.467,10.853-10.407,15.47-14.903c1.513-1.476,3.755-2.226,2.248-5.346C233.1,331.986,227.02,336.681,220.92,341.363z
	 M220.92,354.586c0.208,1.333-0.319,1.934-0.282,3.088c5.461-4.292,10.915-11.015,16.032-16.596c0.881,0.062,2.062-0.186,2.53,0.285
	c-0.139-1.556,0.273-2.76-0.561-3.095C232.694,343.67,226.595,348.917,220.92,354.586z M235.826,350.927
	c-3.929,4.13-9.548,8.385-11.812,12.937c4.63-4.366,9.185-8.813,13.781-13.222c0.66,0,0.824,0.49,1.69,0.285
	c-0.339-1.576,0.201-2.754-0.565-3.374C237.476,348.452,236.936,349.754,235.826,350.927z M221.481,374.27
	c6.934-4.41,11.765-10.922,18.28-15.753c-0.046-0.415,0.102-1.036-0.276-1.123C233.501,363.039,226.976,368.143,221.481,374.27z
	 M242.294,372.583c-4.943,4.155-10.106,8.081-14.344,12.937c2.965,0.571,4.024-2.288,5.625-3.659c3.61-3.07,8.022-5.16,11.25-8.714
	C244.127,372.813,243.169,372.738,242.294,372.583z M252.984,373.426c-3.703,5.204-10.435,7.381-14.345,12.373
	c1.196-0.161,1.857,0.204,2.812,0.285c3.008-5.619,9.099-8.155,13.216-12.658C254.106,373.426,253.545,373.426,252.984,373.426z
	 M262.826,373.706c-3.448,5.551-10.32,7.684-14.345,12.658c2.105,0.328,4.561,0.316,7.03,0.285c-0.09-0.664-0.443-1.054-0.279-1.973
	c3.197-4.211,8.046-6.766,11.529-10.686C265.077,373.811,264.463,374.096,262.826,373.706z M221.763,381.861
	c2.651-1.203,6.748-4.868,8.156-7.312C227.453,377.241,222.7,377.644,221.763,381.861z M285.326,374.834
	c-4.136,5.048-11.231,7.145-15.188,12.373c0.843,0,1.687,0,2.531,0c4.406-4.496,10.416-7.393,14.342-12.373
	C286.449,374.834,285.887,374.834,285.326,374.834z M282.514,386.649c4.918-3.616,10.422-6.642,14.621-10.977
	c-1.237-0.069-2.174-0.446-3.653-0.273C291.64,380.776,284.793,382.642,282.514,386.649z M393.322,379.052
	c-2.146,4.701-7.207,6.481-10.124,10.407c0.936,0,1.876,0,2.812,0c2.692-4.056,6.915-6.586,10.125-10.128
	C395.18,379.256,393.852,379.554,393.322,379.052z M381.51,379.331c-2.211,4.261-6.539,6.4-9.001,10.407
	c3.064-0.323,4.877-3.088,6.75-4.781c2.013-1.805,4.475-3.231,5.907-5.625C383.948,379.331,382.729,379.331,381.51,379.331z
	 M402.886,381.582c-1.247,1.284-3.101,2.549-4.782,3.938c-1.374,1.135-4.022,2.965-3.656,3.939c1.296,0.012,2.748-0.124,3.656,0.279
	c2.9-3.752,7.204-6.109,10.125-9.842c-1.38-0.31-3.219-0.155-4.499-0.565C403.506,380.137,403.158,380.826,402.886,381.582z
	 M362.387,390.023c0.747,0,1.497,0,2.248,0c2.416-3.864,6.087-6.481,8.438-10.406C367.907,381.477,365.746,386.351,362.387,390.023z
	 M282.793,393.955c-0.558,0.682-1.336-0.466-1.969,0.285c0,1.216,0,2.437,0,3.653c7.164-4.651,13.704-9.923,19.97-15.468
	c0.589-0.161,0.803-0.7,1.687-0.564c-0.164-0.912,0.192-1.302,0.279-1.966C295.909,384.392,289.717,389.539,282.793,393.955z
	 M416.663,380.453c-2.958,3.603-7.185,5.941-10.404,9.284c1.408,0,2.813,0,4.221,0c2.719-3.467,6.521-5.848,9.56-8.999
	C419.193,380.36,417.891,380.453,416.663,380.453z M428.195,381.303c-2.62,3.38-6.617,5.377-9.56,8.434
	c1.197,0.025,1.969,0.471,3.374,0.285c3.197-2.996,6.977-5.402,10.124-8.441C430.601,381.712,429.823,381.08,428.195,381.303z
	 M440.853,382.147c-3.129,2.871-7.052,4.949-10.125,7.876c0.924,0.571,2.847,0.149,4.217,0.279c3.067-2.747,6.435-5.191,9.281-8.156
	C443.105,382.147,441.979,382.147,440.853,382.147z M452.947,382.425c-1.904,3.92-7.874,5.241-9.282,8.72c1.312,0,2.623,0,3.939,0
	c3.151-2.946,7.054-5.135,9.842-8.434C455.716,382.847,454.761,382.202,452.947,382.425z M465.884,382.99
	c-2.1,3.715-6.611,5.011-9.002,8.434c1.219,0,2.437,0,3.656,0c2.549-3.355,6.499-5.309,9.563-8.155
	C468.972,383.189,467.797,382.934,465.884,382.99z M261.136,386.928c0.565,0,1.126,0,1.691,0c-0.056-1.377,1.848-2.263,1.405-3.095
	C263.065,384.733,261.672,385.396,261.136,386.928z M477.134,391.424c1.845,0.428,3.606,0.149,6.186,0.279
	c-0.561-4.174,4.062-5.204,6.186-7.591C484.384,385.557,480.954,388.683,477.134,391.424z M494.853,386.928
	c-3.032,1.718-5.058,3.095-6.751,5.061c1.219,0,2.437,0,3.656,0c2.704-2.921,6.351-4.9,9.564-7.312
	C498.983,384.324,497.175,385.613,494.853,386.928z M505.542,388.615c3.361-0.763,6.013-2.239,8.434-3.938
	C509.002,383.833,508.295,387.244,505.542,388.615z M302.199,388.894c-5.464,4.068-10.965,8.825-16.311,12.658
	c-1.755,1.252-4.509,2.245-4.781,4.781c3.473-0.968,6.189-3.852,9.281-5.904c4.115-2.741,8.301-5.544,12.372-7.882
	C302.459,391.449,303.414,389.087,302.199,388.894z M469.257,391.145c1.588,0.546,2.45-2.282,2.248-1.687
	C470.848,390.116,469.633,390.209,469.257,391.145z M281.667,414.21c7.377-3.411,13.784-7.783,19.688-12.658
	c0.747-0.217,1.6,1.618,1.687,0.279c-0.087-0.018,0.502-3.113-0.561-3.088C296.44,404.796,286.836,407.283,281.667,414.21z
	 M303.885,408.3c-0.359-0.013-0.387-0.36-0.843-0.279c-6.308,4.85-14.013,8.298-20.814,12.658c0.097,1.216-0.316,2.945,0.565,3.368
	c7.191-4.341,14.816-8.236,21.093-13.495C303.885,409.801,303.885,409.05,303.885,408.3z M303.606,418.142
	c-5.07,3.212-10.574,6.537-16.032,9.284c-1.646,0.825-4.317,1.625-4.499,3.938c6.863-3.262,15.275-7.411,21.657-12.094
	c-0.797,0.05,0.232-1.736-0.565-1.687C304.164,417.956,303.674,417.838,303.606,418.142z M287.854,435.582
	c3.144-1.116,6.252-2.493,9.281-3.939c2.918-1.383,6.36-2.723,8.159-5.346C299.339,428.127,292.945,431.954,287.854,435.582z
	 M305.293,433.609c-2.918,1.588-6.357,2.648-8.999,4.503c3.324-1.172,6.391-2.605,9.56-3.938
	C305.824,433.833,305.771,433.51,305.293,433.609z"/>
</svg>
