<?xml version="1.0" encoding="utf-8"?>
<!-- Generator: Adobe Illustrator 17.0.0, SVG Export Plug-In . SVG Version: 6.00 Build 0)  -->
<!DOCTYPE svg PUBLIC "-//W3C//DTD SVG 1.1//EN" "http://www.w3.org/Graphics/SVG/1.1/DTD/svg11.dtd">
<svg version="1.1" id="Layer_1" xmlns="http://www.w3.org/2000/svg" xmlns:xlink="http://www.w3.org/1999/xlink" x="0px" y="0px"
	 width="800px" height="600px" viewBox="0 0 800 600" enable-background="new 0 0 800 600" xml:space="preserve">
<path fill-rule="evenodd" clip-rule="evenodd" fill="#020000" d="M418.963,200.757c2.928-0.099,4.518,2.059,7.359,3.399
	c4.868,2.288,11.697,3.659,18.125,6.226c5.985,2.394,12.59,4.186,17.273,7.083c1.519,0.936,4.012,2.797,5.098,3.963
	c1.321,1.42,1.969,4.372,3.113,6.797c0.744,1.575,1.355,3.368,2.267,5.092c1.038,1.972,4.961,7.721,4.245,10.195
	c-0.372,1.296-1.631,0.657-2.546,1.699c-1.435,1.637-1.532,5.483-2.831,7.647c-0.98,1.631-2.741,3.318-3.966,5.092
	c-3.498,5.073-7.327,10.009-10.76,15.579c-2.22,3.597-4.646,7.268-7.08,10.76c-2.487,3.567-4.505,7.25-6.794,10.761
	c-1.919,2.94-4.788,5.984-7.079,9.34c-2.295,3.367-6.168,7.107-6.795,9.625c-0.282,1.135,0.543,1.929,0,2.834
	c-1.191,1.978-4.456,1.544-5.098,4.248c-0.335,1.414,1.11,3.523-0.85,4.534c-0.57,0.292-1.262-0.391-1.699,0
	c-1.339,1.203-3.845,7.523-5.098,9.625c-3.73,6.258-6.906,12.224-10.478,18.408c-1.786,3.095-4.735,6.629-5.38,9.061
	c-0.391,1.489,0.227,3.113-0.85,4.249c-0.772,0.812-1.001,0.062-1.981,0.564c-0.195,0.1-2.006,2.171-2.26,2.834
	c-0.319,0.812,0.18,1.525-0.288,2.264c-0.438,0.694-1.576,0.936-2.264,1.699c-1.687,1.867-2.574,4.974-4.248,7.641
	c-1.398,2.239-3.33,4.378-4.813,6.803c-0.478,0.775-0.72,1.966-1.135,2.542c-0.453,0.639-1.647,0.955-2.264,1.7
	c-3.141,3.789-2.915,6.196-6.229,7.647c-4.211,1.842-6.053,4.379-10.761,4.813c-2.385,0.224-4.964-0.403-7.362,0
	c-1.057,0.18-2.133,1.029-3.116,1.135c-6.571,0.701-16.636-3.659-20.671-5.947c-0.952-0.539-2.146-1.805-3.113-1.978
	c-0.797-0.149-1.966,0.465-2.549,0.279c-2.065-0.645-5.38-5.048-7.362-7.076c-1.265-1.296-2.251-2.679-3.398-3.963
	c-1.194-1.34-2.806-2.239-3.681-3.399c-3.69-4.906-4.853-10.388-8.779-16.137c-2.949-4.329-7.123-9.259-11.039-13.88
	c-3.737-4.403-6.586-9.489-10.76-14.158c-3.805-4.249-8.525-8.999-11.046-13.595c-0.248-0.446-0.145-1.333-0.565-2.263
	c-0.741-1.637-2.443-2.413-2.267-3.678c0.232-1.693,1.659-0.937,2.831-1.985c0.54-0.484,0.998-1.569,1.696-2.264
	c4.242-4.236,8.633-9.129,13.027-13.594c5.29-5.371,8.685-12.23,14.444-15.858c0.521-0.328,1.718-0.478,2.546-0.849
	c0.89-0.391,1.99-1.371,2.549-1.414c2.084-0.161,5.588,2.183,7.647,2.549c5.879,1.035,11.151,0.378,14.723,3.113
	c1.721,1.321,2.797,5.142,4.813,7.932c1.718,2.37,3.575,5.135,5.38,7.077c1.247,1.346,2.837,2.059,3.681,3.113
	c0.899,1.123,1.262,2.865,2.263,3.969c0.673,0.726,1.836,1.141,2.267,1.693c0.871,1.129,1.061,4.031,2.267,3.969
	c0.481-0.025,2.738-4.862,3.398-6.227c7.002-14.512,14.816-29.247,23.502-41.912c7.405-10.803,14.072-23.66,20.386-35.958
	c1.089-2.121,2.183-4.155,3.398-5.947c1.253-1.848,2.986-3.231,4.249-5.104c1.749-2.592,2.918-6.078,4.816-9.061
	c1.842-2.89,4.456-5.333,5.662-7.926c0.564-1.216,0.707-3.913,1.414-4.528C414.86,200.986,417.94,200.788,418.963,200.757z
	 M419.527,207.554c-2.255,5.538-6.283,10.674-9.625,15.567c-3.368,4.936-6.937,9.762-9.914,15.294
	c-6.193,11.523-11.718,22.054-18.404,31.995c-6.736,10.022-13.291,20.41-18.689,31.722c-3.861,8.075-8.692,16.466-12.741,25.192
	c-1.213,2.617-2.965,8.056-3.963,8.782c-0.595,0.434-4.691,1.191-5.951,0.85c-2.115-0.565-3.854-4.465-5.374-6.227
	c-2.53-2.927-5.773-5.693-8.782-8.782c-6.149-6.32-10.187-11.455-16.704-18.401c-1.132-1.21-7.238-9.155-8.779-9.068
	c-1.119,0.069-2.028,2.37-3.116,3.684c-3.439,4.167-6.713,7.212-9.907,10.475c-4.078,4.168-6.757,8.552-11.328,12.459
	c0.236-0.198-2.078,2.04-1.982,1.414c-0.025,0.161,2.401,2.288,2.831,2.834c1.238,1.588,1.616,2.871,2.264,3.683
	c1.978,2.456,4.484,3.914,5.947,5.663c3.849,4.589,6.316,9.662,9.911,14.438c3.253,4.329,7.089,8.732,10.757,13.594
	c3.513,4.646,6.348,10.109,9.631,14.723c3.861,5.42,9.021,11.206,13.874,15.002c2.893,2.27,7.349,5.575,10.757,6.804
	c7.489,2.685,12.879,1.216,17.558-2.549c1.318-1.061,3.551-3.318,5.098-5.098c2.375-2.729,4.636-4.397,5.098-6.512
	c0.546-2.5,2.196-4.28,3.399-6.512c5.519-10.239,11.471-20.299,16.422-30.581c0.841-1.749,2.093-3.436,2.831-5.098
	c0.98-2.214,1.266-4.732,2.549-6.797c1.346-2.164,3.414-4.298,5.098-7.641c0.874-1.743,4.649-6.772,4.813-7.932
	c0.133-0.949-0.822-2.314-0.568-3.114c0.307-0.961,2.08-1.544,3.116-2.549c3.194-3.114,4.745-7.839,7.08-12.181
	c2.685-4.986,5.175-9.607,7.647-14.438c0.496-0.98,0.502-2.556,0.843-3.114c0.288-0.471,1.721-0.98,2.27-1.699
	c1.622-2.146,2.676-5.401,3.963-7.932c1.377-2.704,2.937-5.228,4.531-7.647c3.175-4.806,5.547-9.96,8.779-15.281
	c2.803-4.621,6.823-9.402,9.628-14.45c1.39-2.5,2.31-4.807,4.242-7.926c1.113-1.786,4.804-6.816,4.537-7.647
	c-0.093-0.279-2.472-1.371-3.684-1.978c-3.488-1.749-5.361-1.978-8.775-3.399c-1.61-0.663-3.03-1.947-4.816-2.549
	c-7.436-2.5-16.094-4.565-21.803-7.647c-0.304-0.161,0.08-0.186-0.283,0C419.468,207.163,419.682,207.175,419.527,207.554z
	 M463.418,232.473c0.332,1.005,0.26,1.824,0.568,2.829c0.356,1.178,3.389,8.943,3.681,9.061c0.372,0.149,1.858-0.881,1.981-1.699
	c0.236-1.557-6.565-13.42-6.797-13.309C461.713,229.918,463.089,231.474,463.418,232.473z M450.673,249.174
	c-0.013,0.49,1.15,2.592,1.417,3.114c0.459,0.899,1.746,2.555,2.546,4.248c1.197,2.512,1.65,5.675,3.119,3.684
	c0.471-0.645,2.267-3.43,2.264-3.399c0.003-0.589-2.5-3.256-3.681-5.098c-1.417-2.214-2.865-5.693-3.396-5.662
	C452.738,246.067,450.701,248.102,450.673,249.174z M463.136,250.024c1.535,2.586-1.051-2.443-0.85-1.414
	C462.41,249.249,462.928,249.683,463.136,250.024z M446.992,260.22c0.881,1.879,2.897,9.563,3.969,9.625
	c0.701,0.043,0.319-0.558,0.847-1.414c0.307-0.497,0.862-1.03,0.85-1.414c-0.028-0.992-6.844-10.679-6.512-10.76
	C444.148,256.722,446.602,259.377,446.992,260.22z M439.634,267.296c-0.006,1.172,5.705,10.928,6.227,10.761
	c1.541-0.49-0.754-3.957-1.696-5.942c-1.085-2.294-2.85-6.555-3.684-6.233C440.558,265.851,439.634,266.614,439.634,267.296z
	 M433.683,276.927c0.025,1.439,3.092,6.177,3.966,7.926c1.476,2.952,1.207,3.337,2.831,1.135c1.904-2.58,0.05-2.735-2.263-6.227
	c-1.69-2.561-2.286-5.476-3.399-5.104C434.483,274.77,433.668,275.731,433.683,276.927z M433.971,296.185
	c0.332-0.013,1.795-1.786,1.696-2.834c-0.043-0.496-1.799-2.059-3.113-3.969c-1.749-2.524-2.782-5.433-3.396-4.807
	C427.714,286.02,433.196,296.197,433.971,296.185z M309.097,293.065c0.53,0.558,1.349,2.301,2.264,2.828
	c0.387,0.229,2.465,0.173,2.831,0.292c0.682,0.204,1.237,1.11,2.267,1.408c2.205,0.651,7.709,0.502,7.647,0.57
	c0.338-0.341-0.629-1.116-1.132-1.978c-1.243-2.121-1.011-2.487-4.252-2.834c-4.607-0.496-6.887-0.565-9.91-1.414
	c-0.273-0.081-0.201,0.149-0.282,0.279C308.461,292.327,309.023,292.99,309.097,293.065z M421.224,299.298
	c0.068,0.993,1.659,2.741,2.27,3.957c1.525,3.051,1.696,5.029,3.396,2.834c0.859-1.104,3.634-4.199,3.401-5.376
	c-0.009-0.025-2.168-1.867-2.267-1.979c-1.988-2.387-3.113-5.681-3.963-5.383C423.373,293.586,421.186,298.696,421.224,299.298z
	 M321.836,303.255c-0.347,0.043-2.754-0.292-3.114,0c-1.603,1.321,2.862,1.985,4.531,2.27c0.782,0.137,5.272,1.805,6.23,0.85
	c0.586-0.583-2.304-4.18-2.831-4.527c0.025,0.012-0.022,0.272,0,0.285C325.07,301.878,323.182,303.118,321.836,303.255z
	 M420.659,315.435c1.904-0.496-3.386-8.316-3.681-8.211C414.272,308.185,420.591,315.454,420.659,315.435z M331.464,311.751
	c-1.293,0.794-3.854-0.613-5.095,0.291c-0.351,0.248,1.603,2.345,2.549,2.543c1.451,0.311,6.028-0.775,6.227-1.135
	c0.865-1.525-2.716-3.337-2.264-3.398C332.149,310.145,332.184,311.317,331.464,311.751z M410.184,318.269
	c0.006,1.073,3.923,7.126,4.248,7.077c0.5-0.074,1.712-3.808,1.696-3.963c-0.142-1.47-4.496-5.892-4.245-5.947
	C411.645,315.491,410.178,317.463,410.184,318.269z M334.866,320.533c-0.294,0.676,2.09,2.735,2.829,2.828
	c0.849,0.111,4.006-1.507,3.966-1.414c0.75-1.736-1.436-2.413-3.399-2.263C336.99,319.783,334.86,320.539,334.866,320.533z
	 M404.237,328.465c-0.018,0.539,1.649,3.324,1.985,3.956c1.011,1.941,2.006,4.527,2.828,2.834c0.527-1.079,1.464-2.375,1.417-3.113
	c-0.071-1.123-4.236-6.158-4.813-5.947C405.579,326.22,404.249,328.118,404.237,328.465z M398.007,340.069
	c0.05,0.62,4.118,7.113,3.966,7.083c0.85,0.167,3.402-4.689,3.396-4.812c-0.034-1.055-4.351-5.96-4.813-6.518
	c-0.326-0.391-0.199-0.112-0.568,0C399.244,336.063,397.939,339.157,398.007,340.069z M394.609,352.814
	c1.181,2.201,1.339,5.147,2.834,2.834c0.198-0.311,0.847-1.327,0.849-1.421c0.041-1.848-4.195-6.189-4.248-6.226
	c0.006,0.006,0,0.285,0,0.285C391.883,349.056,394.022,351.716,394.609,352.814z M389.799,361.589
	c1.256,1.755,1.262,3.442,2.261,3.119c1.823-0.595-2.937-7.268-3.396-7.082C386.437,358.532,389.163,360.708,389.799,361.589z
	 M381.87,371.214c0.41,1.557,1.228,0.453,1.978,1.135c1.864,1.706,1.266,3.039,2.834,0.85c1.604-2.239,0.54-2.332-0.85-4.248
	c-1.352-1.854-1.156-2.568-1.985-2.264C383.302,366.892,381.656,370.415,381.87,371.214z M379.603,384.245
	c0.437-0.031,2.295-3.386,2.267-3.684c-0.17-1.687-3.597-3.429-3.684-3.398C375.234,378.222,377.991,384.362,379.603,384.245z
	 M373.091,388.493c0.037-0.056-4.317,4.726-2.267,5.662c0.707,0.323,4.484-3.286,4.53-4.248c0.074-1.426-1.581-2.09-1.981-1.978
	C372.97,388.028,373.299,388.208,373.091,388.493z M364.03,400.388c0.831,1.649,5.219-3.529,1.696-1.991
	C365.528,398.49,363.816,399.96,364.03,400.388z"/>
</svg>
