<?xml version="1.0" encoding="utf-8"?>
<!-- Generator: Adobe Illustrator 17.0.0, SVG Export Plug-In . SVG Version: 6.00 Build 0)  -->
<!DOCTYPE svg PUBLIC "-//W3C//DTD SVG 1.1//EN" "http://www.w3.org/Graphics/SVG/1.1/DTD/svg11.dtd">
<svg version="1.1" id="Layer_1" xmlns="http://www.w3.org/2000/svg" xmlns:xlink="http://www.w3.org/1999/xlink" x="0px" y="0px"
	 width="800px" height="600px" viewBox="0 0 800 600" enable-background="new 0 0 800 600" xml:space="preserve">
<path fill="#120E0F" d="M730.161,212.693c-0.042-0.258-0.138-0.499-0.259-0.732c-0.677-4.251-2.175-8.403-4.71-12.303
	c-9.24-14.217-28.796-17.152-44.321-18.263c-16.801-1.202-33.852-0.965-50.694-1.258c-20.943-0.363-41.89-0.533-62.835-0.575
	c-51.68-0.103-103.37,0.632-155.017,2.507c-35.061,1.273-70.087,3.385-105.126,5.143c-63.845,3.204-127.699,6.417-191.573,8.99
	c-18.332,0.878-35.862,7.732-48.946,20.771c-12.895,12.852-19.209,30.885-20.088,48.803c-0.272,5.54-0.012,11.064,0.696,16.532
	c0.689,20.297,3.764,40.604,9.322,60.114c5.36,18.813,13.528,36.11,27.905,49.514c0.511,1.5,1.009,3.007,1.472,4.526
	c0.371,1.214,2.284,1.056,4.089,0.244c3.624,2.862,7.404,5.43,11.324,7.704c0.17,0.523,0.347,1.045,0.515,1.569
	c0.684,2.125,3.744,2.578,6.098,1.944c21.686,10.528,46.781,13.427,71.139,12.504c1.016,1.148,2.987,0.803,4.784-0.233
	c4.639-0.269,9.242-0.665,13.778-1.169c18.874-2.097,37.449-6.243,55.781-11.108c2.155-0.572,4.306-1.158,6.457-1.747
	c0.797-0.032,1.676-0.283,2.476-0.683c5.071-1.409,10.127-2.868,15.165-4.385c0.003,0.004,0.005,0.009,0.008,0.013
	c0.831,1.447,4.769-0.214,6.899-2.128c4.381-1.37,8.746-2.795,13.097-4.261c2.542,0.49,5.948-0.528,6.966-2.397
	c3.376-1.184,6.745-2.388,10.099-3.637c21.017-7.828,41.611-16.768,62.254-25.518c23.539-9.977,47.044-19.996,70.143-30.963
	c6.432-3.054,12.823-6.184,19.173-9.398c0.977-0.01,1.741-0.318,2.021-1.029c6.208-3.165,12.372-6.416,18.482-9.767
	c-0.217,15.308-1.178,30.835,0.566,46.077c0.07,0.608,0.15,1.224,0.232,1.84c-0.32,16.463,1.723,33.486,10.553,47.697
	c6.731,10.836,17.686,17.283,29.68,20.026c1.174,0.699,2.476,0.894,3.508,0.691c4.312,0.721,8.716,0.988,13.07,0.825
	c19.383-0.724,38.675-12.043,54.836-21.74c19.887-11.934,38.292-26.07,56.151-40.817c1.249-1.031,2.501-2.07,3.753-3.112
	c0.529-0.305,0.975-0.669,1.297-1.081c4.036-3.369,8.078-6.8,12.087-10.306c1.135,0.105,2.155,0.007,1.724-0.793
	c-0.089-0.164-0.169-0.33-0.256-0.495c18.752-16.527,36.614-34.751,49.093-56.094c0.314-0.538,0.624-1.079,0.929-1.622
	c1.055-0.02,1.948-0.315,1.62-1.313c-0.114-0.348-0.224-0.697-0.337-1.045c2.68-5.077,4.902-10.385,6.321-15.91
	c0.364-0.237,0.529-0.536,0.388-0.895c-0.035-0.09-0.067-0.182-0.102-0.273c0.714-3.04,1.188-6.143,1.347-9.311
	C734.057,247.321,732.86,229.515,730.161,212.693z M61.103,236.08c9.253-21.179,28.809-33.8,51.669-34.894
	c68.99-2.781,137.96-6.256,206.918-9.766c38.536-1.961,77.049-4.089,115.624-5.211c50.294-1.464,100.621-1.903,150.934-1.57
	c19.288,0.128,38.574,0.39,57.856,0.841c17.102,0.399,34.931-0.578,51.598,3.845c7.921,2.103,15.346,5.841,20.557,12.308
	c5.005,6.211,6.533,15.143,5.637,22.886c-0.852,7.363-3.803,14.458-7.616,21.11c-0.184,0.151-0.287,0.324-0.298,0.518
	c-1.933,3.322-4.07,6.533-6.269,9.606c-1.865-0.287-3.231,0.095-2.482,1.692c0.165,0.351,0.311,0.708,0.471,1.06
	c-0.967,1.302-1.937,2.58-2.896,3.825c-13.855,17.992-30.2,34.234-47.655,49.183c-2.397-0.601-4.615-0.696-4.363-0.009
	c0.347,0.946,0.681,1.894,1.01,2.846c-13.075,10.988-26.709,21.287-40.358,31.054c-0.04-0.153-0.089-0.303-0.127-0.457
	c-0.726-2.978-9.546,0.181-8.724,3.548c0.215,0.884,0.46,1.757,0.728,2.622c-3.734,2.589-7.496,5.142-11.298,7.638
	c-2.923-0.12-5.953,0.634-5.233,2.054c0.169,0.333,0.35,0.66,0.521,0.991c-8.967,5.73-18.135,11.142-27.56,16.038
	c-0.267,0.138-0.538,0.279-0.809,0.419c-1.614-0.373-2.877-0.116-2.567,1.315c-12.737,6.459-29.1,13.493-42.894,8.249
	c-8.347-3.172-12.851-11.425-15.357-19.504c-3.601-11.611-3.613-24.086-3.422-36.118c0.306-19.413,0.552-38.827,0.809-58.24
	c0.037-2.8-4.669-1.222-5.938-0.617c-4.094,1.95-8.2,3.878-12.314,5.792c-1.7,0.319-3.336,1.029-4.055,1.87
	c-2.921,1.349-5.844,2.692-8.774,4.024c-2.111-0.381-4.027-0.063-3.411,1.54c-3.094,1.398-6.193,2.788-9.298,4.166
	c-3.117-1.386-6.823-1.352-5.191,2.296c-3.035,1.336-6.075,2.66-9.118,3.979c-0.865,0.197-1.749,0.58-2.473,1.072
	c-3.912,1.687-7.829,3.361-11.752,5.02c-2.527-0.306-5.674,0.711-6.14,2.584c-6.754,2.829-13.52,5.625-20.303,8.375
	c-21.403,8.678-43.066,16.98-64.931,24.722c-2.897-1.061-6.703-0.573-5.946,2.093c-3.726,1.299-7.457,2.582-11.195,3.847
	c-1.51-0.347-2.708-0.244-2.27,0.761c-10.41,3.501-20.861,6.864-31.351,10.067c-1.496,0.068-3.029,0.517-4.103,1.243
	c-3.924,1.182-7.854,2.337-11.788,3.473c-0.955-0.177-2.541,0.341-4.01,1.157c-3.249,0.924-6.5,1.832-9.755,2.723
	c-7.696,2.103-15.502,4.151-23.385,6c-0.193-0.001-0.471,0.061-0.816,0.189c-11.444,2.663-23.046,4.901-34.702,6.278
	c-0.027-0.082-0.056-0.163-0.082-0.245c-0.267-0.832-2.064-0.362-3.875,0.676c-5.118,0.516-10.244,0.856-15.369,0.987
	c-1.032-1.728-3.488-1.266-5.553,0.058c-3.77-0.02-7.539-0.156-11.301-0.433c-19.404-1.429-38.413-7-54.476-18.185
	c-17.165-11.953-29.121-29.575-37.404-48.521C54.223,287.601,50.658,259.984,61.103,236.08z M714.574,293.959
	c-2.953-6.843-5.667-13.762-9.742-20.088c-0.469-0.729-1.391-1.374-2.475-1.865c2.043-2.351,4.047-4.745,5.997-7.186
	c3.053,7.909,5.378,16.065,8.032,24.134c0.118,0.359,0.303,0.683,0.515,0.99C716.161,291.298,715.379,292.634,714.574,293.959z
	 M703.803,309.051c-2.973-7.389-5.714-14.87-8.826-22.204c-0.499-1.176-2.353-1.987-4.146-2.288
	c1.489-1.547,2.971-3.099,4.433-4.672c0.884-0.951,1.764-1.912,2.641-2.877c4.037,7.121,6.564,14.992,10.15,22.346
	c0.378,0.777,0.949,1.445,1.623,2.01C707.805,303.989,705.836,306.548,703.803,309.051z M695.005,319.24
	c-3.832-8.131-8.177-15.975-10.499-24.746c-0.212-0.801-1.337-1.018-2.71-0.856c2.027-1.975,4.032-3.969,6.017-5.986
	c3.524,8.477,6.619,17.124,10.204,25.576c0.206,0.486,0.645,0.91,1.213,1.26C697.833,316.094,696.423,317.681,695.005,319.24z
	 M682.529,332.326c-3.684-9.696-6.345-19.787-9.182-29.746c-0.06-0.21-0.232-0.361-0.478-0.47c1.133-1.042,2.25-2.101,3.372-3.155
	c2.791,9.557,7.866,18.07,11.844,27.159c0.051,0.119,0.125,0.22,0.209,0.314C686.394,328.414,684.475,330.382,682.529,332.326z
	 M657.917,355.02c-4.392-8.807-6.596-18.683-11.371-27.337c-0.392-0.711-1.071-1.17-1.886-1.422c1.656-1.33,3.311-2.662,4.953-4.009
	c1.266-1.036,2.52-2.087,3.777-3.135c3.212,9.906,6.014,19.911,10.999,29.166c0.128,0.238,0.29,0.461,0.473,0.672
	C662.567,350.999,660.249,353.019,657.917,355.02z M643.605,366.91c-4.498-9.708-9.798-19.032-14.158-28.805
	c2.846-2.146,5.675-4.315,8.484-6.509c5.077,9.478,7.229,20.339,12.61,29.645C648.242,363.147,645.928,365.036,643.605,366.91z
	 M629.993,377.647c-6.397-8.609-13.334-17.471-17.075-27.511c3.527-2.475,7.027-4.987,10.499-7.539
	c4.426,9.84,9.772,19.239,14.267,29.044C635.129,373.659,632.564,375.661,629.993,377.647z M614.358,389.186
	c-6.331-9.061-12.354-18.422-17.385-28.252c0.437-0.285,0.874-0.57,1.309-0.856c2.24-1.468,4.469-2.954,6.688-4.454
	c4.186,9.999,11.385,18.858,17.747,27.529C619.958,385.197,617.171,387.209,614.358,389.186z M597.513,400.326
	c-4.475-7.89-8.831-15.845-12.46-24.169c-1.003-2.3-9.44-1.451-8.263,1.249c4.055,9.3,9.015,18.14,14.038,26.942
	c-2.397,1.4-4.812,2.765-7.245,4.093c-5.954-9.371-14.249-17.042-19.408-26.955c-0.109-0.21-0.268-0.421-0.457-0.631
	c8.831-4.53,17.377-9.707,25.725-15.045c5.271,9.593,11.407,18.755,17.748,27.646c0.101,0.141,0.229,0.27,0.378,0.389
	C604.255,396.066,600.903,398.227,597.513,400.326z M550.64,421.998c-6.761-9.398-13.546-18.741-19.458-28.715
	c2.948-0.639,5.848-1.455,8.633-2.35c5.623,9.913,10.781,20.211,18.008,29.089c0.005,0.006,0.011,0.012,0.017,0.019
	C555.463,420.8,553.058,421.461,550.64,421.998z M479.499,309.296c-3.509-7.206-6.895-14.47-10.458-21.649
	c1.715-0.782,3.43-1.566,5.142-2.354c3.183,7.181,7.077,14.063,10.579,21.086C483.009,307.354,481.26,308.337,479.499,309.296z
	 M466.471,316.183c-3.518-7.55-7.587-14.823-11.156-22.352c2.529-1.126,5.057-2.253,7.579-3.391
	c3.577,7.333,7.021,14.73,10.648,22.039C471.192,313.727,468.836,314.962,466.471,316.183z M452.096,323.44
	c-3.707-7.761-6.895-15.762-10.514-23.565c2.273-0.987,4.544-1.982,6.814-2.979c3.664,7.391,7.658,14.611,10.961,22.181
	c0.086,0.196,0.2,0.388,0.334,0.577C457.164,320.928,454.635,322.193,452.096,323.44z M438.56,329.942
	c-3.641-8.051-8.09-15.701-11.73-23.751c2.536-1.072,5.068-2.152,7.599-3.237c3.667,7.91,6.892,16.02,10.665,23.878
	C442.921,327.877,440.742,328.913,438.56,329.942z M423.975,336.709c-4.46-7.87-8.3-16.099-12.315-24.199
	c2.243-0.921,4.486-1.84,6.725-2.772c3.727,8.015,8.19,15.665,11.737,23.769c0.046,0.104,0.1,0.205,0.16,0.3
	C428.182,334.778,426.083,335.751,423.975,336.709z M487.026,290.701c-1.549-3.071-3.028-6.173-4.357-9.337
	c1.506-0.704,3.009-1.421,4.512-2.13C487.13,283.056,487.077,286.878,487.026,290.701z M395.61,349.276
	c-4.456-8.298-8.061-17.024-12.471-25.352c2.333-0.909,4.665-1.824,6.994-2.743c4.27,8.306,7.926,16.942,12.892,24.864
	C400.554,347.125,398.084,348.204,395.61,349.276z M380.072,355.935c-3.813-8.815-7.733-17.584-11.539-26.403
	c2.224-0.841,4.448-1.68,6.667-2.532c4.468,8.418,8.104,17.246,12.621,25.631C385.24,353.737,382.656,354.837,380.072,355.935z
	 M363.698,362.846c-4.4-8.851-8.557-17.821-12.824-26.737c2.593-0.949,5.184-1.907,7.773-2.869
	c3.852,8.958,7.835,17.859,11.714,26.805C368.141,360.981,365.919,361.914,363.698,362.846z M348.189,369.334
	c-4.055-9.326-8.756-18.356-13.169-27.514c2.923-1.037,5.844-2.077,8.762-3.13c-0.335,0.524-0.473,1.017-0.283,1.411
	c4.159,8.659,8.201,17.376,12.444,25.993C353.358,367.175,350.773,368.255,348.189,369.334z M320.289,380.717
	c-5.308-9.438-11.155-18.606-16.057-28.258c3.35-1.131,6.694-2.269,10.031-3.412c4.519,8.547,8.772,17.196,12.594,26.089
	c0.399,0.926,1.259,1.6,2.2,2.089C326.139,378.403,323.218,379.571,320.289,380.717z M303.136,387.181
	c-5.141-9.901-11.336-19.129-16.963-28.754c3.084-0.994,6.162-2.001,9.235-3.018c5.028,9.745,10.97,19.019,16.291,28.607
	C308.852,385.09,305.997,386.144,303.136,387.181z M284.225,393.686L284.225,393.686c-5.65-9.771-11.416-19.446-16.566-29.491
	c2.973-0.889,5.94-1.796,8.902-2.718c5.683,9.719,11.944,19.035,17.111,29.047C290.533,391.603,287.387,392.665,284.225,393.686z
	 M207.582,412.282c-4.1-10.678-9.629-20.729-13.619-31.441c1.731-0.23,3.458-0.471,5.178-0.729c1.72-0.258,3.435-0.546,5.152-0.828
	c-0.04,0.465,0.023,0.928,0.226,1.375c4.634,10.189,9.545,20.265,13.647,30.684c-3.497,0.663-7.001,1.271-10.511,1.821
	C207.708,412.857,207.689,412.561,207.582,412.282z M227.54,408.376c-3.975-10.496-8.857-20.606-13.538-30.8
	c2.954-0.561,5.904-1.153,8.847-1.778c3.511,11.086,9.186,21.019,13.992,31.512c-3.034,0.731-6.076,1.427-9.126,2.088
	C227.719,409.055,227.667,408.712,227.54,408.376z M144.764,382.114c2.941,11.56,7.603,22.712,11.472,34.007
	c-3.127-0.2-6.246-0.501-9.35-0.896c0.19-0.293,0.246-0.596,0.115-0.895c-4.907-11.164-9.184-22.555-12.863-34.168
	c3.507,0.715,7.045,1.282,10.607,1.713C144.751,381.954,144.744,382.036,144.764,382.114z M126.551,410.997
	c-4.997-12.197-10.188-24.694-13.844-37.414c3.536,1.497,7.128,2.795,10.77,3.898c3.706,12.262,8.076,24.273,13.13,36.038
	C133.219,412.818,129.862,411.985,126.551,410.997z M110.77,404.713c-4.255-13.207-9.003-26.244-13.556-39.349
	c2.02,1.326,4.096,2.576,6.227,3.745c0.751,0.412,1.508,0.806,2.265,1.197c3.718,13.093,9.088,25.95,14.221,38.489
	c-3.089-1.139-6.125-2.435-9.106-3.873C110.805,404.854,110.793,404.785,110.77,404.713z M67.804,356.258
	c-4.81-12.7-8.193-26.089-10.388-39.686c1.853,4.073,3.88,8.056,6.059,11.918c0.132,0.235,0.274,0.464,0.408,0.698
	c3.334,13.781,7.258,27.376,12.27,40.646c1.113,2.946,2.266,5.874,3.412,8.803C74.756,371.85,70.86,364.327,67.804,356.258z
	 M93.377,393.77c0.144-0.398,0.181-0.802,0.06-1.199c-2.767-9.066-6.464-17.781-9.834-26.631c-2.214-5.813-4.195-11.7-6.015-17.638
	c2.2,2.47,4.514,4.832,6.936,7.079c4.794,14.39,10.05,28.62,14.883,42.996C97.303,396.928,95.296,395.39,93.377,393.77z
	 M164.161,416.44c-0.162-0.003-0.323-0.01-0.485-0.013c0.138-0.384,0.18-0.76,0.067-1.104c-3.592-10.918-8.109-21.662-11.299-32.727
	c3.952,0.27,7.922,0.39,11.898,0.381c0.024,0.159,0.06,0.318,0.12,0.47c4.314,10.944,9.1,21.711,13.042,32.797
	C173.058,416.436,168.609,416.512,164.161,416.44z M187.679,415.596c0.036-0.351,0.008-0.694-0.102-1.021
	c-3.65-10.836-8.23-21.32-12.52-31.914c3.176-0.178,6.347-0.428,9.508-0.735c0.012,0.054,0.019,0.109,0.036,0.162
	c3.604,11.217,9.26,21.548,13.76,32.39C194.805,414.921,191.243,415.294,187.679,415.596z M243.824,405.575
	c-4.616-10.557-10.353-20.415-14.209-31.264c3.83-0.872,7.648-1.802,11.461-2.765c3.837,10.603,8.59,21.283,14.74,30.791
	C251.836,403.459,247.838,404.543,243.824,405.575z M263.875,400.007c-6.259-9.27-10.995-20.016-14.841-30.531
	c3.143-0.842,6.281-1.708,9.412-2.599c5.091,10.164,10.859,19.919,16.557,29.739C271.312,397.77,267.602,398.902,263.875,400.007z
	 M333.028,375.616c-4.208-9.626-8.856-19.005-13.835-28.263c0.516-0.177,1.033-0.354,1.547-0.531
	c2.267-0.781,4.529-1.576,6.793-2.367c4.199,8.619,8.592,17.152,12.389,25.956c0.295,0.685,0.88,1.255,1.611,1.7
	c-0.012,0.005-0.026,0.011-0.038,0.016C338.678,373.301,335.855,374.462,333.028,375.616z M409.72,343.096
	c-4.775-7.909-8.317-16.506-12.627-24.67c2.372-0.949,4.738-1.911,7.106-2.87c4.061,8.185,7.935,16.506,12.444,24.458
	c-0.68,0.305-1.358,0.615-2.038,0.918C412.979,341.658,411.349,342.375,409.72,343.096z M496.793,384.831
	c1.218,1.473,2.592,2.813,4.123,4.008c0.131,0.326,0.314,0.679,0.571,1.069c6.455,9.779,11.824,20.778,19.121,30.093
	c-2.886-1.315-5.685-3.024-8.355-5.213C503.271,407.423,498.834,396.43,496.793,384.831z M530.919,423.036
	c-8.19-8.268-13.694-19.256-19.744-29.319c3.659,0.881,7.482,1.088,11.331,0.833c5.919,10.002,12.718,19.366,19.494,28.784
	C538.271,423.643,534.558,423.582,530.919,423.036z M566.407,416.873c-0.029-0.452-0.206-0.91-0.573-1.36
	c-6.906-8.486-11.825-18.287-17.2-27.759c3.297-1.31,6.553-2.738,9.769-4.265c5.492,9.114,13.339,16.507,18.766,25.672
	c0.4,0.677,0.957,1.304,1.603,1.846c-1.392,0.723-2.79,1.436-4.194,2.133C571.945,414.443,569.21,415.703,566.407,416.873z
	 M660.591,314.546c-0.119-0.324-0.362-0.633-0.694-0.926c2.138-1.834,4.262-3.684,6.37-5.554
	c2.885,10.242,5.736,20.554,9.853,30.369c0.015,0.035,0.048,0.059,0.067,0.09c-1.839,1.755-3.699,3.491-5.572,5.215
	C666.657,334.245,664.149,324.24,660.591,314.546z M713.922,258.962c-0.113-0.241-0.302-0.483-0.548-0.721
	c1.106-1.526,2.18-3.074,3.225-4.638c2.282,6.827,4.254,13.762,6.876,20.467c0.008,0.021,0.022,0.041,0.032,0.061
	c-0.182,0.67-0.375,1.34-0.592,2.012c-0.377,1.172-0.786,2.332-1.223,3.481C719.443,272.615,717.062,265.66,713.922,258.962z
	 M722.5,246.312c-0.127-0.323-0.452-0.591-0.903-0.804c1.123-1.986,2.193-4,3.188-6.049c0.09-0.187,0.177-0.376,0.267-0.562
	c0.19,4.198,0.31,8.4,0.371,12.604c0.016,1.06,0.029,2.111,0.036,3.155C724.536,251.851,723.576,249.061,722.5,246.312z"/>
</svg>
