<?xml version="1.0" encoding="utf-8"?>
<!-- Generator: Adobe Illustrator 17.0.0, SVG Export Plug-In . SVG Version: 6.00 Build 0)  -->
<!DOCTYPE svg PUBLIC "-//W3C//DTD SVG 1.1//EN" "http://www.w3.org/Graphics/SVG/1.1/DTD/svg11.dtd">
<svg version="1.1" id="Layer_1" xmlns="http://www.w3.org/2000/svg" xmlns:xlink="http://www.w3.org/1999/xlink" x="0px" y="0px"
	 width="800px" height="600px" viewBox="0 0 800 600" enable-background="new 0 0 800 600" xml:space="preserve">
<path fill="#120E0F" d="M642.72,297.105c-1.06-13.334-2.786-27.579-8.646-39.769c-0.423-0.88-1.234-1.611-2.212-2.154
	c-5.56-16.556-19.532-31.048-29.631-44.345c-15.238-20.066-29.969-40.511-46.144-59.847c-8.25-9.863-16.867-19.412-25.681-28.772
	c-13.882-14.612-30.495-30.09-50.931-34.232c-18.092-3.667-38.084,2.186-49.706,17.016c-9.088,11.598-11.089,27.917-11.641,42.144
	c-0.426,10.999,0.976,21.856,1.221,32.804c-51.803-2.425-103.206-13.071-155.223-9.699c-36.505,2.366-76.28,12.52-101.471,40.802
	c-16.046,18.016-24.042,41.833-24.421,65.846c-0.228,0.408-0.375,0.824-0.412,1.242c-2.4,27.064,2.914,53.221,11.007,78.919
	c3.315,10.527,6.222,21.48,10.561,31.631c4.543,10.626,11.551,19.99,19.843,27.974c16.611,15.994,39.391,24.835,61.867,28.408
	c27.381,4.353,55.407,4.517,82.994,2.324c28.578-2.271,57.252-7.197,84.532-16.179c1.583,11.253,3.993,22.388,7.502,33.179
	c6.075,18.679,16.436,37.359,33.872,47.532c18.744,10.937,42.398,12.653,62.681,5.381c18.538-6.648,33.77-20.526,46.441-35.184
	c19.373-22.411,35.245-48.271,51.048-73.211c5.573-8.796,11.029-17.668,16.241-26.683c4.243-7.34,8.688-14.81,11.395-22.877
	C644.398,339.726,644.34,317.511,642.72,297.105z M627.195,301.376c-0.1-0.644-0.386-1.096-0.774-1.419
	c2.07-4.74,3.847-9.569,5.22-14.492c1.235,9.433,1.669,18.992,1.644,28.491c-0.014,5.444-0.24,10.901-0.73,16.332
	C630.821,320.654,628.692,311.071,627.195,301.376z M219.087,181.905c32.054-11.039,67.123-10.128,100.464-7.616
	c34.506,2.599,68.797,7.88,103.41,9.053c1.031,0.035,5.985,0.085,5.97-1.774c-0.183-22.417-4.241-45.012,4.607-66.529
	c6.336-15.404,22.767-27.293,39.771-24.428c19.045,3.209,35.233,19.457,47.941,32.834c18.334,19.47,35.276,40.002,51.361,61.355
	c7.717,10.244,15.276,20.612,23.134,30.749c7.887,10.177,16.258,19.97,22.529,31.278c6.423,11.582,7.732,23.223,4.623,36
	c-3.189,13.108-9.9,25.333-16.618,36.919c-12.621,21.771-26.542,42.247-42.567,61.542c-0.939,0.093-1.547,0.617-1.457,1.756
	c-1.128,1.343-2.267,2.68-3.416,4.012c-2.71,3.138-5.443,6.255-8.184,9.368c-1.181-0.16-1.986,0.015-1.836,0.691
	c0.083,0.374,0.152,0.751,0.234,1.126c-5.978,6.778-11.974,13.54-17.838,20.417c-1.972,2.312-3.944,4.607-5.93,6.882
	c-0.794,0.056-1.3,0.409-1.259,1.173c0.005,0.085,0.011,0.169,0.016,0.254c-7.589,8.622-15.48,16.835-24.766,23.842
	c-3.066,2.314-6.31,4.517-9.694,6.49c-1.458,0.233-3.547,1.348-5.096,2.728c-4.878,2.373-10.004,4.181-15.31,5.072
	c-9.869,1.657-19.302-1.545-27.419-7.067c-27.37-18.62-28.745-59.819-23.481-89.399c0.302-1.695-5.42-1.374-6.098-1.263
	c-16.126,2.639-32.363,4.79-48.64,6.533c-2.345-1.41-6.303-1.402-6.705,0.706c-10.727,1.071-21.468,1.965-32.202,2.686
	c-1.881,0.126-3.775,0.248-5.672,0.365c-0.8-1.107-2.835-0.753-4.532,0.27c-15.764,0.898-32.012,1.364-48.134,0.482
	c-0.051-0.215-0.103-0.429-0.153-0.644c-0.44-1.869-3.689-1.317-6.167,0.222c-23.483-1.826-46.52-6.776-67.181-17.723
	c-18.475-9.789-32.308-25.623-38.989-45.466c-3.396-10.086-5.359-20.859-5.849-31.706c0.087-2.925,0.249-5.857,0.51-8.799
	c0.059-0.66-0.145-1.123-0.529-1.42c0.389-9.212,1.858-18.34,4.494-27.005C162.255,213.567,188.096,192.579,219.087,181.905z
	 M611.047,328.154c2.397,15.952,5.466,31.922,5.534,48.099c0.001,0.317,0.107,0.651,0.263,0.99c-0.977,1.73-1.963,3.457-2.959,5.178
	c-1.974-15.535-4.201-31.016-7.739-46.287c-0.01-0.04-0.036-0.075-0.05-0.115C607.742,333.424,609.4,330.803,611.047,328.154z
	 M580.421,435.08c-2.211-16.441-5.592-32.692-9.008-48.925c-0.115-0.546-0.45-1.108-0.926-1.648
	c2.261-2.659,4.501-5.334,6.715-8.031c4.279,16.186,7.294,32.615,8.295,49.356c0.023,0.397,0.178,0.758,0.415,1.088
	C584.091,429.647,582.258,432.366,580.421,435.08z M585.343,373.873c-0.339-1.233-2.157-2.089-4.072-2.42
	c3.182-3.984,6.29-8.026,9.305-12.143c2.659,15.85,3.896,31.905,6.479,47.774c0.065,0.404,0.495,0.784,1.103,1.117
	c-1.544,2.419-3.1,4.831-4.666,7.237C591.907,401.391,589.101,387.552,585.343,373.873z M534.551,492.427
	c-1.846,1.609-3.731,3.16-5.655,4.64c-3.016-17.695-6.755-35.228-8.081-53.181c-0.057-0.762-0.568-1.411-1.331-1.935
	c1.787-1.714,3.54-3.471,5.264-5.261c1.588,17.862,4.743,35.378,8.279,53.023c0.204,1.016,0.802,1.884,1.566,2.624
	C534.578,492.367,534.564,492.396,534.551,492.427z M514.335,506.353c-4.569-17.201-6.635-35.229-7.836-52.898
	c-0.011-0.156-0.06-0.293-0.104-0.432c1.766-1.287,3.491-2.629,5.181-4.019c1.867,17.613,5.593,34.887,8.398,52.387
	c0.075,0.467,0.392,0.896,0.866,1.273C518.715,503.991,516.548,505.227,514.335,506.353z M499.972,510.29
	c-4.606-15.814-8.036-31.867-8.589-48.334c2.119-0.985,4.177-2.057,6.184-3.203c1.319,17.212,3.582,34.666,8.303,51.275
	c-2.023,0.733-4.079,1.372-6.169,1.911C499.988,511.354,500.116,510.786,499.972,510.29z M465.369,511.152
	c-5.026-12.817-8.729-27.033-7.892-40.808c0.042-0.689-0.207-1.364-0.653-1.994c2.343,0.236,4.705,0.323,7.072,0.271
	c-0.082,0.224-0.135,0.452-0.119,0.689c0.995,14.843,3.713,29.457,8.488,43.547C469.943,512.422,467.636,511.852,465.369,511.152z
	 M430.457,476.97c-4.186-9.134-7.115-18.921-9.205-28.883c2.793,3.668,6.055,7.017,9.809,9.985
	c-0.627,0.675-1.044,1.435-1.044,2.207C430.018,465.848,430.053,471.433,430.457,476.97z M390.882,429.681
	c-2.507-18.297-6.054-36.473-7.525-54.897c1.898-0.235,3.796-0.477,5.692-0.724c-1.094,18.303,2.052,36.689,6.066,54.502
	C393.708,428.945,392.296,429.317,390.882,429.681z M359.916,436.031c-3.678-19.14-6.895-38.322-8.461-57.764
	c1.728-0.168,3.455-0.336,5.18-0.509c0.216-0.022,0.431-0.045,0.646-0.066c3.613,17.733,5.799,35.546,8.055,53.496
	c0.23,1.836,2.672,2.978,4.86,3.069C366.778,434.898,363.351,435.488,359.916,436.031z M365.378,376.852
	c3.278-0.35,6.557-0.717,9.833-1.095c-0.937,0.913-1.548,1.901-1.48,2.788c1.363,17.961,4.753,35.678,7.277,53.496
	c-2.773,0.615-5.556,1.193-8.346,1.737c0.727-0.419,1.158-1.114,1.031-2.126C371.381,413.263,369.152,395.017,365.378,376.852z
	 M316.095,440.597c-2.556-19.633-6.119-38.809-13.996-57.131c-0.245-0.571-0.843-1.146-1.618-1.665
	c3.8-0.115,7.601-0.267,11.399-0.462c0,0.086-0.017,0.172-0.006,0.258c2.433,19.768,8.232,38.902,11.126,58.582
	C320.7,440.337,318.399,440.478,316.095,440.597z M302.97,441.048c-4.342-19.776-14.721-38.076-16.275-58.438
	c-0.016-0.206-0.058-0.4-0.109-0.588c2.202,0,4.406-0.019,6.609-0.052c7.98,18.638,11.321,38.148,13.833,58.147
	c0.035,0.278,0.139,0.556,0.291,0.829C305.869,440.988,304.42,441.023,302.97,441.048z M257.172,382.348
	c4.579,19.428,9.416,38.794,15.173,57.909c-2.025-0.145-4.048-0.314-6.069-0.497c-4.055-20.369-15.715-38.528-18.432-59.241
	c-0.024-0.189-0.081-0.379-0.159-0.567c2.148,0.245,4.283,0.47,6.391,0.664c1.068,0.099,2.139,0.175,3.208,0.262
	C257.107,381.359,257.056,381.854,257.172,382.348z M282.833,440.687c-6.059-19.501-11.077-39.287-15.796-59.147
	c2.716,0.14,5.436,0.238,8.155,0.316c-0.054,0.247-0.077,0.508-0.056,0.787c1.563,20.475,11.918,38.613,16.27,58.419
	c-2.848-0.042-5.694-0.111-8.539-0.224C282.856,440.788,282.849,440.737,282.833,440.687z M239.313,435.812
	c-1.038-0.237-2.07-0.493-3.101-0.754c-0.04-0.119-0.083-0.239-0.141-0.363c-8.967-19.403-15.306-39.794-20.282-60.548
	c3.069,0.806,6.159,1.525,9.253,2.179c-0.509,0.219-0.806,0.497-0.765,0.826C226.746,397.289,232.136,416.876,239.313,435.812z
	 M218.17,429.049c-9.051-19.64-16.202-39.961-21.066-61.022c2.909,1.168,5.872,2.234,8.87,3.219
	c-0.804,0.703-1.214,1.691-0.91,2.969c4.619,19.457,10.423,38.602,18.436,56.926C221.706,430.482,219.926,429.793,218.17,429.049z
	 M198.804,417.962c-10.373-17.779-12.644-38.521-18.225-58.065c1.784,1.066,3.597,2.095,5.452,3.061
	c-0.043,0.144-0.051,0.294-0.017,0.452c4.338,20.299,10.773,39.955,18.97,58.968c-2.065-1.23-4.096-2.523-6.076-3.905
	C198.918,418.294,198.897,418.121,198.804,417.962z M158.229,348.904c-1.313-4.206-2.522-8.43-3.629-12.671
	c4.762,6.854,10.553,12.688,17.073,17.654c-0.941,0.758-1.515,1.618-1.248,2.392c5.451,15.802,7.665,32.778,13.027,48.599
	C169.699,389.104,164.419,368.743,158.229,348.904z M250.428,437.893c-7.449-19.244-12.998-39.207-15.548-59.714
	c1.644,0.271,3.28,0.519,4.913,0.754c3.298,20.865,15.243,39.219,18.644,60.011c-2.267-0.265-4.531-0.546-6.79-0.863
	C251.239,438.024,250.834,437.953,250.428,437.893z M330.772,439.581c-2.643-19.765-8.461-38.934-11.158-58.691
	c2.479-0.157,4.955-0.329,7.43-0.511c2.357,17.585,6.894,34.675,10.408,52.042c0.449,2.222,8.592,3.144,8.07,0.568
	c-3.523-17.41-8.152-34.538-10.425-52.186c-0.049-0.381-0.262-0.714-0.571-1.008c3.325-0.275,6.647-0.562,9.962-0.867
	c-0.314,0.547-0.498,1.112-0.456,1.661c1.461,19.05,4.544,37.843,8.105,56.589c-5.363,0.738-10.735,1.375-16.107,1.911
	C334.279,439.263,332.526,439.427,330.772,439.581z M404.246,425.911c-3.767-17.141-6.592-34.783-5.49-52.341
	c0.018-0.293-0.047-0.56-0.176-0.801c3.263-0.461,6.522-0.94,9.777-1.442c-1.845,11.308-2.619,23.701-1.5,35.813
	c-0.262,0.369-0.399,0.856-0.367,1.479c0.279,5.391,0.716,10.789,1.324,16.17C406.628,425.173,405.438,425.542,404.246,425.911z
	 M449.608,503.298c-3.173-2.382-5.952-5.22-8.431-8.322c0.413-0.725,0.584-1.503,0.324-2.26c-3.313-9.652-3.724-20.015-3.775-30.189
	c2.832,1.555,5.777,2.8,8.804,3.744c-0.149,0.299-0.249,0.644-0.273,1.05c-0.775,12.728,2.271,26.044,6.638,38.224
	C451.765,504.841,450.667,504.094,449.608,503.298z M480.02,513.831c-0.021-0.001-0.042-0.004-0.063-0.005
	c1.178-0.726,1.933-1.62,1.635-2.471c-4.928-14.082-7.741-28.707-8.849-43.566c3.284-0.54,6.54-1.329,9.726-2.342
	c0.363,16.413,3.627,32.409,8.123,48.162C487.151,513.975,483.628,514.063,480.02,513.831z M541.189,486.236
	c-3.536-18.315-6.479-36.565-7.481-55.286c-0.042-0.793-0.616-1.627-1.459-2.398c1.642-1.849,3.267-3.711,4.881-5.579
	c1.842,17.646,4.994,35.029,8.323,52.478c0.25,1.311,2.584,1.51,4.791,1.045C547.351,479.847,544.333,483.114,541.189,486.236z
	 M553.996,472.038c-3.672-19.306-7.095-38.543-8.715-58.157c-0.009-0.107-0.054-0.196-0.094-0.288
	c0.776-0.9,1.552-1.798,2.328-2.689c1.103-1.268,2.211-2.534,3.317-3.799c3.106,16.602,5.077,33.407,8.194,50.011
	c0.227,1.205,2.018,2.422,3.945,3.238C560.138,464.253,557.148,468.179,553.996,472.038z M566.999,454.693
	c-3.116-18.039-5.199-36.261-9.167-54.145c-0.066-0.298-0.242-0.595-0.475-0.887c2.25-2.565,4.494-5.134,6.729-7.708
	c3.339,16.082,6.458,32.211,8.234,48.556c0.116,1.063,1.057,2.191,2.291,3.107c-2.077,3.038-4.158,6.071-6.239,9.097
	C567.922,453.37,567.46,454.032,566.999,454.693z M603.391,399.892c-2.164-15.785-3.5-31.68-6.71-47.312
	c-0.063-0.309-0.334-0.599-0.718-0.865c1.252-1.831,2.478-3.684,3.688-5.55c2.488,12.655,4.234,25.428,5.838,38.238
	c0.234,1.873,3.266,2.744,5.7,2.631C608.64,391.348,606.037,395.632,603.391,399.892z M624.08,363.782
	c-1.214-11.189-3.232-22.316-4.872-33.424c-0.267-1.807-3.986-4.532-6.386-5.078c2.483-4.057,4.913-8.177,7.197-12.366
	c2.747,14.853,6.26,29.557,6.782,44.705C625.974,359.701,625.064,361.749,624.08,363.782z"/>
</svg>
