<?xml version="1.0" encoding="utf-8"?>
<!-- Generator: Adobe Illustrator 17.0.0, SVG Export Plug-In . SVG Version: 6.00 Build 0)  -->
<!DOCTYPE svg PUBLIC "-//W3C//DTD SVG 1.1//EN" "http://www.w3.org/Graphics/SVG/1.1/DTD/svg11.dtd">
<svg version="1.1" id="Layer_1" xmlns="http://www.w3.org/2000/svg" xmlns:xlink="http://www.w3.org/1999/xlink" x="0px" y="0px"
	 width="800px" height="600px" viewBox="0 0 800 600" enable-background="new 0 0 800 600" xml:space="preserve">
<g>
	<path fill="none" d="M441.532,119.062c0.314-0.396,0.615-0.795,0.913-1.195c5.461-7.486,7.279-16.745,5.576-25.799
		c-0.831-4.426-2.312-8.114-5.661-11.224c-1.539-1.43-3.266-2.67-5.08-3.728c-1.406-0.817-3.144-1.933-4.75-2.24
		c-0.804-0.29-7.539-2.278-7.33,0.266c0.107,1.299,2.005,2.623,2.839,3.455c4.023,4.017,7.08,8.865,5.761,14.782
		c-1.713,7.942-6.483,11.936-11.349,14.751c2.93,2.318,5.797,4.733,8.825,6.925C434.286,117.23,437.911,118.4,441.532,119.062z"/>
	<path fill="none" d="M335.5,157.47c2.172-7.893,6.156-15.908,12.786-20.974c-1.751,0.508-3.698,1.063-5.503,0.551
		c2.25-0.125,4.398-0.575,6.229-1.959c-1.568,0.109-5.608-0.086-6.272-2.02c0.198,0.575,3.355,1.312,3.903,1.399
		c1.388,0.22,3.467,0.358,4.621-0.633c-1.934-0.363-4.982-0.942-5.753-3.097c2.714,2.082,5.485,2.808,8.765,1.443
		c-2.702-0.831-4.935-1.065-6.525-3.733c2.007,1.992,4.73,2.68,7.461,3.067l-0.065-0.599c4.471-1.605,8.876-1.119,13.515-1.21
		c5.146,0.549,10.233,0.073,15.337-0.648c0.724-0.24,0.929-0.491,1.045-0.81c0.35-1.112-0.508-2.62-0.949-3.582
		c-0.59-1.282-1.237-2.536-1.851-3.808c-1.377-2.851-1.805-6.309,0.337-8.924c-3.765-0.443-8.114-0.443-13.243,0.129
		c-2.03,1.837-2.738,4.145-2.691,6.816c0.024,1.486,0.216,2.963,0.432,4.433c0.127,0.869,0.488,2.038,0.265,2.917
		c-0.203,0.803-1.609-1.078-1.751-1.252c-0.864-1.041-1.738-2.077-2.567-3.149c-1.577-2.036-2.718-4.19-3.489-6.65
		c-3.712,2.014-7.21,4.428-10.473,7.105c0.234,0.207,0.472,0.412,0.711,0.613c-0.314-0.136-0.628-0.279-0.936-0.431
		c-2.923,2.412-5.726,5.036-8.25,7.864c-3.663,7.77-4.11,16.478-8.33,24.016c-1.061,1.893-2.244,3.689-3.52,5.393
		c1.854-0.411,3.638-0.765,5.363-1.076C334.538,158.222,334.997,157.83,335.5,157.47z"/>
	<path fill="none" d="M391.724,169.42c2.005-6.311,2.923-13.027,2.038-19.623c-0.679-5.056-2.493-10.703-6.775-13.862
		c-2.332-1.398-4.692-1.891-6.486-2.037c-0.336,0.012-0.666,0.032-1.005,0.09c-0.615,0.047-1.225,0.146-1.834,0.277
		c-8.711,2.257-13.695,11.934-16.502,19.708c1.64-5.719,4.091-11.602,8.386-15.855c-4.024-6.675-12.098-6.144-18.175-2.642
		c-6.287,3.622-10.696,10.008-13.37,16.627c-0.635,1.579-1.183,3.173-1.637,4.814c2.609-1.542,5.619-2.043,8.593-2.299
		c-1.832-5.202,1.121-12.471,7.154-12.968c2.985-0.246,5.855,1.552,6.59,4.535c0.735,2.995-0.129,6.019-1.834,8.529
		c4.614,0.496,9.172,1.563,13.521,3.176c0.069-6.497,6.577-14.175,13.484-10.131c6.187,3.624,3.6,12.81-0.599,16.887
		c1.219,0.841,2.399,1.71,3.558,2.631C388.605,167.658,390.278,168.365,391.724,169.42z"/>
	<path fill="none" d="M419.596,129.457c0,0.032,0.002,0.065,0.002,0.098c0.136,0,0.292-0.002,0.43-0.002
		C419.883,129.521,419.741,129.491,419.596,129.457z"/>
	<path fill="none" d="M347.516,100.733c-3.919-2.412-7.337-5.423-9.175-9.742c-1.905-4.472-2.357-9.541-0.063-13.939
		c1.475-2.831,3.814-4.826,5.784-7.266c0.368-0.457,0.996-1.258,0.448-1.812c-1.39-1.405-4.42-0.295-5.902,0.273
		c-3.77,1.508-7.348,3.988-9.905,7.159c-2.402,2.978-3.342,6.743-3.966,10.449c-0.706,4.144-0.742,8.445,0.087,12.574
		c0.65,3.304,1.82,7.411,3.912,10.143c1.112,1.847,2.422,3.642,3.977,5.36c0.283,0.315,0.568,0.594,0.851,0.857
		C336.906,108.86,341.598,104.101,347.516,100.733z"/>
	<path fill="none" d="M325.798,144.208c-0.283,1.767-0.582,3.537-0.74,5.319c-0.029,0.313-0.279,2.643,0.383,2.346
		c0.809-0.364,1.435-1.826,1.869-2.568c0.68-1.161,1.326-2.342,1.983-3.517c1.662-2.983,3.353-5.951,5.189-8.83
		c1.878-2.943,3.899-5.812,6.194-8.447c1.125-1.298,2.333-2.514,3.562-3.712c1.127-1.097,2.587-2.085,3.572-3.304
		c2.702-2.335,5.588-4.466,8.629-6.336c0.749-0.46,1.533-0.868,2.273-1.344c0.619-0.398,0.258-1.175,0.243-1.848
		c-0.033-1.672,0.178-3.349,0.464-4.994c0.111,3.828,0.432,7.517,2.021,11.054c0.84,1.867,2.125,3.485,3.395,5.073
		c0.176,0.223,2.137,2.813,2.061,1.691c-0.243-3.664-2.157-7.201-0.158-10.755c2.059-3.664,6.608-5.441,10.418-6.568l0.249,0.046
		c-1.337,0.667-2.709,1.262-4.037,1.938c12.122-0.575,25.96,5.017,32.508,15.658c3.208,5.105,5.153,11.467,5.245,17.489
		c0.049,3.286-0.532,6.541-1.573,9.653c-0.109,0.327-1.829,4.134-0.504,3.204c1.974-1.384,3.38-3.986,4.505-6.038
		c1.341-2.455,2.417-5.047,3.186-7.739c0.827-2.886,1.339-5.923,1.522-8.922c0.105-1.845,0.419-4.669-0.25-6.428
		c-0.791-5.857-2.76-11.952-5.376-17.248c4.07,5.62,6.63,12.084,6.94,19.056c0.047,0.012,0.091,0.024,0.136,0.037
		c10.03,2.5,22.05,2.516,31.911-0.778c2.264-0.756,4.371-1.9,6.443-3.071c0.994-0.561,2.232-1.155,2.976-2.059
		c1.19-1.45-5.213-1.119-5.797-1.114c-5.091,0.042-10.23-0.001-15.228-1.112c-4.754-1.057-8.214-3.403-12.002-6.305
		c-8.036-6.155-16.571-13.062-26.127-16.7c2.244,1.913,4.356,4.089,6.336,6.414c-2.961-2.707-6.448-4.735-9.658-7.118
		c-2.89-2.153-6.207-3.885-9.741-4.66c-3.66-0.802-7.971-0.707-11.434,0.831c-3.092,1.372-5.623,3.827-7.724,6.428
		c1.076-1.668,2.299-3.259,3.707-4.661c-7.167,0.355-14.372,2.408-20.905,5.316c-6.719,2.992-12.648,7.369-16.772,13.528
		c-0.675,0.995-1.272,2.038-1.847,3.089c-3.059,5.566-4.853,11.749-6.198,17.927C326.923,137.469,326.335,140.835,325.798,144.208z"
		/>
	<path fill="none" d="M336.706,135.209c-2.544,3.526-4.786,7.255-6.978,11.007c-0.546,0.937-3.589,7.328-4.886,6.922
		c-1.566-0.489,0.321-9.48,0.483-10.587c0.671-4.554,1.515-9.091,2.694-13.544c-4.42-3.585-8.488-7.613-12.258-11.874
		c-3.235-3.659-6.486-7.538-8.832-11.844c-0.076,0.028-0.151,0.05-0.227,0.085c-0.441-0.705-1.101-2.046-2.094-2.04
		c-1.105,0.007-2.103,1.385-2.725,2.123c-1.221,1.444-2.19,2.974-2.959,4.7c-1.838,4.123-2.774,8.687-3.05,13.177
		c-0.668,10.858,3.259,21.995,13.539,27.011c5.621,2.721,13.617,3.375,21.698,2.67C334.179,147.387,334.99,141.292,336.706,135.209z
		"/>
	<path fill="none" d="M313.069,112.427c4.563,5.554,9.805,10.575,15.321,15.171c1.036-3.653,2.337-7.245,4.024-10.648
		c-8.034-1.827-12.394-5.504-20.88-11.641c-0.517-0.376-2.678-2.135-3.355-1.395c-0.459,0.502,0.205,1.66,0.45,2.15
		C309.786,108.366,311.441,110.445,313.069,112.427z"/>
	<path fill="none" d="M301.956,168.225c-1.172-1.958-3.863-8.799,0.958-8.307c-2.034-0.79-4.897-1.128-5.603,1.513
		c-0.158,0.599-0.528,3.53,0.1,3.986c-0.506-0.368-0.644-2.216-0.679-2.804c-0.051-0.88,0.08-1.813,0.604-2.545
		c0.695-0.969,1.881-1.34,3.032-1.294c3.756,0.147,7.796,3.327,10.144,6.022c3.837-1.292,7.738-2.422,11.654-3.458
		c-5.265-4.244-11.322-8.862-18.436-8.608c-5.387,0.192-9.228,3.829-10.175,9.063c-0.45,2.496-0.082,6.566,0.582,10.801
		C296.732,170.899,299.37,169.456,301.956,168.225z"/>
	<path fill="none" d="M454.663,239.869c-0.098,4.225-0.918,7.96-3.193,11.583c-2.511,3.998-5.479,7.598-7.394,11.957
		c-1.78,4.046-3.478,9.021-2.756,13.498c1.308,8.085,13.181,8.279,19.41,8.766c5.349,0.417,10.721,0.699,16.081,0.949
		c5.051,0.236,10.186,0.407,15.201-0.383c3.64-0.573,7.254-1.753,10.204-4.027c3.217-2.482,5.334-6.048,6.76-9.804
		c-1.263-0.473-2.529-0.956-3.799-1.454c-5.095-2.306-10.449-4.07-15.375-6.758c-3.888-2.12-7.39-4.924-10.678-7.866
		c-7.433-6.653-14.326-14.254-20.506-22.082c-0.501-0.607-1.003-1.211-1.5-1.813C454.804,234.003,454.721,237.366,454.663,239.869z"
		/>
	<path fill="none" d="M543.043,273.216c0.368,0.037,0.693,0.225,0.96,0.594C543.736,273.439,543.411,273.253,543.043,273.216z"/>
	<path fill="none" d="M578.534,284.336c-1.185,2.383-2.034,4.97-2.065,7.655c-0.024,2.441,0.749,4.69,1.495,6.98
		c6.403,0.946,14.381-0.969,19.405-5.106c-4.376,0.844-8.836,1.034-13.198,0.036c5.135,0.127,10.153-0.388,15.143-1.614
		c3.979-0.978,8.8-2.749,11.608-5.895c2.116-2.373-0.884-4.055-2.876-4.913c-3.727-1.605-7.726-2.521-11.55-3.858
		c-3.571-1.247-7.655-2.397-10.168-3.711C583.201,277.322,580.612,280.152,578.534,284.336z"/>
	<path fill="none" d="M381.407,163.396c0.488,0.312,0.974,0.647,1.462,0.977c3.874-3.55,6.842-12.604,0.88-15.821
		c-6.12-3.303-12.153,4.281-12.142,9.818c1.618,0.657,3.211,1.367,4.766,2.158c-1.727-4.505,2.843-12.199,8.065-8.589
		c0.078-0.038,0.16-0.052,0.243-0.071c0.201-0.235,0.483-0.383,0.791-0.383c0.615,0,1.112,0.573,1.112,1.278
		c0,0.491-0.25,0.903-0.602,1.118c0.472,1.077,0.626,2.377,0.305,3.785C385.64,160.511,383.603,162.794,381.407,163.396z"/>
	<path fill="none" d="M507.118,355.584c-5.187-0.683-8.522,6.008-10.672,9.635l-0.766-0.452l0.762,0.452
		c-3.522,5.907-7.987,11.152-11.931,16.768c-3.128,4.454-7.12,10.539-4.253,16.08c1.704,3.293,5.104,5.296,7.731,7.779
		c2.493,2.355,4.783,4.915,6.933,7.585c4.151,5.157,7.686,10.763,11.746,15.988c4.683-4.388,8.803-9.386,11.857-15.047
		c2.927-5.415,4.841-11.324,6.408-17.259c3.471-13.147,4.516-26.84,2.339-40.294C520.942,361.946,513.806,356.466,507.118,355.584z"
		/>
	<path fill="none" d="M378.829,167.647c2.012-0.623,4.166-0.844,6.263-0.645c-7.321-5.212-15.691-9.075-24.53-10.849
		c-8.408-1.528-17.213-1.717-25,2.262C350.581,155.883,367.449,156.041,378.829,167.647z"/>
	<path fill="none" d="M355.621,154.612c0.283,0.024,0.564,0.04,0.847,0.069c1.7-2.34,2.654-5.423,1.831-8.279
		c-0.728-2.397-2.854-4.093-5.43-3.775c-5.474,0.675-8.711,6.898-6.964,11.916c1.372-0.097,2.749-0.163,4.137-0.17
		c-2.825-3.879,1.677-11.694,6.379-8.282c0.183-0.16,0.41-0.27,0.666-0.27c0.584,0,1.056,0.498,1.056,1.112
		c0,0.362-0.176,0.668-0.43,0.871c0.361,0.92,0.45,2.016,0.14,3.191C357.465,152.461,356.637,153.737,355.621,154.612z"/>
	<path fill="none" d="M454.668,136.094c-7.067,6.628-15.145,11.888-23.767,16.269c2.074,3.937,3.324,8.179,3.903,12.581
		c3.618,0.975,7.308,1.701,11.031,2.138c8.464,0.994,17.979,0.794,25.039-4.593c5.133-3.916,8.012-9.907,9.072-16.173
		c1-5.913,0.586-12.119-0.945-17.906c-0.606-2.284-1.388-4.553-2.518-6.635c-0.742-1.365-3.342-6.103-5.244-4.919
		c-0.254-0.234-0.492-0.413-0.706-0.519c-1.096,3.577-4.052,6.865-6.381,9.685C461.213,129.579,458.032,132.939,454.668,136.094z"/>
	<path fill="none" d="M447.471,130.571c-7.842,1.666-16.177,1.588-24.066,0.298c-1.051,0.009-2.103,0.015-3.155,0.017
		c-0.167,5.528-1.294,11.232-3.531,16.301c-1.072,2.428-2.408,4.746-4.099,6.799c-0.998,1.211-2.709,3.303-4.472,3.303
		c-2.384,0.05-0.281-5.189-0.031-6.298c0.615-2.717,1.034-5.463,1.058-8.253c-0.013-5.135-1.593-10.053-4.177-14.462
		c-2.234-3.853-4.888-7.554-8.424-10.315c-3.754-2.927-8.281-4.546-12.958-5.239c-2.584,3.088-0.506,6.86,0.973,9.889
		c1.139,2.34,3.558,6.669-0.354,7.76c-5.213,0.737-10.411,1.221-15.669,0.666c-2.927,0.097-5.842-0.283-8.765,0.107
		c1.165,0.119,2.422,0.509,3.587,0.509l-0.018,0.166c2.82,0.65,5.294,2.325,6.993,4.662c2.805-2.348,5.888-3.588,8.967-3.814
		c1.462-0.255,2.823,0.044,4.273,0.17c1.851,0.165,3.718,0.182,5.574,0.109c1.691-0.066,3.371-0.173,4.959-0.804
		c0.33-0.131,2.885-1.119,2.885-1.565l0.893,0.978c-2.188,2.187-4.36,3.423-7.495,3.741c1.377,0.566,3.348,0.792,4.799,0.372
		c1.025-0.296,2.863-0.967,3.64-1.745l1.961-1.115l-1.038,2.003c-1.192,2.278-4.476,2.972-6.766,3.228
		c3.021,0.891,5.527,0.272,8.297-0.985c0.327-0.11,0.579-0.241,0.907-0.032c0.535,0.382,0.125,0.703,0.009,1.093
		c-0.047,0.039-0.094,0.075-0.183,0.136c-2.215,1.55-4.12,2.428-6.904,2.244c1.152,0.996,3.409,2.084,4.997,2.084l-0.009,1.309
		c-2.353,0.483-4.832-0.743-6.833-1.836c3.832,8.775,2.977,19.079,0.107,27.984c0.396,0.555,0.782,1.409,1.161,2.454
		c0.642,1.035,1.159,2.208,1.482,3.548c1.241,1.387,2.368,2.721,3.213,4.393c-0.976-1.218-1.976-2.393-3.008-3.521
		c0.205,1.079,0.372,2.271,0.524,3.501c0.664,2.904,1.172,5.7,1.299,7.406c7.749,6.638,16.25,14.549,19.285,24.626
		c3.634,10.208,4.75,21.3,1.981,31.862c-2.662,10.145-8.457,19.057-15.533,26.685c5.984-2.861,11.416-6.844,16.199-11.419
		c-0.105-0.95-0.149-1.987-0.151-3.083c0.005-6.255,1.02-12.569,1.9-18.75c0.934-6.546,1.874-12.72-0.559-19.073
		c-2.424-6.332-5.465-12.091-5.77-19.033c-0.145-3.336,0.323-6.693,1.555-9.807c0.827-2.1,2.223-4.933,4.863-4.948
		c4.897,0.252,7.063,7.477,7.985,11.253c0.633,2.591,0.439,6.358,2.449,8.367c2.275,2.203,6.075,0.39,8.366-0.841
		c-0.802-8.507-2.829-15.883-5.033-21.751c-0.374,5.38-1.372,11.356-3.037,17.687l0.221-6.554c0.66-7.651,0.354-10.861-0.036-18.531
		c-0.354-6.964-1.419-13.761-4.806-19.946c-3.28,1.557-6.612,3.01-10.017,4.271c-0.626,0.232-1.002,0.365-1.007,0.365l-0.519,0.183
		l-0.276-0.477c0,0-0.02-0.032-0.054-0.085l-0.374-0.626l0.655-0.316c0.261-0.127,0.532-0.257,0.856-0.418
		c10.801-5.278,21.771-10.976,31.144-18.575c4.614-3.741,9.021-7.79,12.998-12.205c1.667-1.847,3.262-3.775,4.661-5.834
		c0.593-0.876,1.626-2.135,1.689-3.253c-1.25,0.207-2.462,1.271-3.473,1.962c0.323,0.185,0.637,0.584,0.626,1.043
		c-0.116,1.473-1.918,2.538-3.008,3.316c-1.551,1.106-3.17,2.114-4.792,3.113C454.14,128.801,450.805,129.863,447.471,130.571z"/>
	<path fill="none" d="M413.224,460.916c4.545-4.24,8.794-7.367,12.182-9.558c-4.077,0.684-7.584,1.723-10.607,2.93
		C414.899,456.738,414.277,459.058,413.224,460.916z"/>
	<path fill="none" d="M463.029,512.201c-4.175,1.115-6.474,4.601-8.76,7.954c1.245,3.667,3.462,6.336,5.474,9.544
		c0.856,1.176,2.81,4.933,2.585,4.63c-0.668-0.882-1.319-1.778-1.956-2.682c0.236,5.619,1.981,13.492,7.08,16.687
		c3.799,2.384,5.249-4.22,5.855-6.675c1.176-4.781,2.201-9.634,2.896-14.508c-0.154,1.952-0.39,3.894-0.684,5.761
		c0.693-0.909,1.544-2.215,2.444-4.082c1.618-3.373,2.829-8.529,3.233-11.665C475.802,514.741,469.187,510.558,463.029,512.201z"/>
	<path fill="none" d="M413.596,453.8c-0.428-5.185-3.856-8.505-7.499-11.802c-3.393-3.081-6.929-6.119-9.562-9.909
		c0.925,0.877,2.081,1.947,3.368,3.136c4.596-3.939,9.44-8.675,11.207-14.633c1.56-5.267,0.523-10.771-1.063-15.9
		c-4.826-0.172-9.449-1.293-14.094-2.536c-2.763-0.74-5.788-1.455-8.294-2.901c6.626,1.709,13.481,3.375,20.316,3.902
		c3.297,0.253,6.61,0.18,9.912,0.062c3.112-0.11,6.149-0.163,8.999-1.572c4.839-2.39,7.648-7.557,7.495-12.89
		c-0.094-3.156-1.17-6.244-2.948-8.844c-1.537-2.244-4.873-5.48-7.891-5.378c-5.657-1.148-11.432,1.532-15.634,5.168
		c-4.828,4.176-10.175,7.406-16.146,9.693c2.351-1.311,5.487-3.135,8.613-5.173c-6.394-8.757-15.072-16.398-25.278-20.321
		c-10.603-4.075-22.065-0.33-31.514,4.934c2.52,5.92,3.863,12.197,5.837,18.298c0.896,2.763,1.816,5.666,3.302,8.183
		c-5.089-7.787-6.307-17.069-9.774-25.54c-2.93-7.163-8.049-14.687-16.805-12.568c-11.345,2.657-3.239,19.4,0.31,25.29
		c2.575,4.28,5.681,8.1,9.547,11.281c2.965,2.449,6.526,5.149,10.128,6.57c0.263,0.134,0.504,0.255,0.74,0.371
		c-8.84-2.635-16.202-9.432-21.081-17.056c-4.447,8.229-3.832,17.868-1.388,26.618c3.055,10.94,9.386,19.703,18.777,26.069
		c2.736-1.127,5.066-2.853,7.089-4.993c1.566-1.654,2.983-3.513,4.931-4.746c-3.44,4.054-6.552,8.687-11.817,10.508
		c-4.275,1.44-7.183,4.811-9.674,8.377c-2.849,4.748-3.642,10.876-0.543,15.706c3.168,4.947,9.302,5.237,13.303,1.103
		c2.587-2.672,3.6-6.218,4.703-9.667c1.061-3.319,2.126-6.668,3.712-9.781c1.952-3.812,4.79-6.969,8.303-9.401
		c-0.096,1.516-2.283,2.852-3.21,3.912c-1.372,1.573-2.529,3.32-3.516,5.158c10.551,2.934,21.916,4.526,32.211-0.04
		c-0.55-5.095-0.724-10.255-0.566-15.378c0.047,2.017,0.149,4.935,0.394,8.227c0.147,2.01,0.337,4.017,0.582,6.019
		c0.125,1.048,0.272,2.094,0.432,3.137c1.069,6.892,2.789,14.068,8.954,18.206c3.226,2.164,7.41,2.783,10.866,0.742
		C412.651,461.479,413.896,457.487,413.596,453.8z"/>
	<path fill="none" d="M394.605,460.334c-3.966-4.6-5.113-10.907-5.815-16.77c-10.429,4.447-22.097,2.726-32.706-0.32
		c-2.059,4.043-3.518,8.38-4.855,12.705c4.781,3.148,9.781,5.928,14.965,8.347c3.549,1.658,7.203,3.293,10.952,4.446
		c0.37,0.129,0.755,0.267,1.192,0.416c-4.021-0.447-7.744-1.476-11.503-2.946c1.359,3.891,3.144,7.547,4.79,11.314
		c0.976,2.236,1.865,4.509,2.645,6.82c0.593,1.78,1.13,3.577,1.609,5.391c-0.735-1.486-1.468-3.031-2.194-4.598
		c-5.621,8.096-8.335,17.833-8.876,27.628c-0.062,1.138-0.109,4.715,1.649,2.508c2.905-3.725,7.263-5.362,11.821-3.714l0.357,0.127
		c3.239,1.281,6.024,3.406,8.987,5.18c0.693,0.414,2.351,1.528,3.001,0.481c0.659-1.074,0.543-2.978,0.586-4.193
		c0.241-6.986-1.68-13.841-1.584-20.815c-0.397,0.6-0.793,1.201-1.185,1.803c1.805-3.654,4.342-8.751,6.586-12.154
		c3.235-4.908,5.233-7.93,8.999-12.443c1.437-1.722,3.988-3.385,5.418-4.882C404.071,467.534,398.221,464.527,394.605,460.334z"/>
	<path fill="none" d="M600.319,469.644c-1.116-0.316-1.344,0.635-1.165,1.536c0.468,2.347,1.582,4.36,1.671,6.831
		c0.087,2.454-0.479,4.932-1.738,7.049c-2.832,4.773-8.437,5.044-12.474,8.368c-2.13,1.755-4.148,4.058-4.975,6.741
		c-0.539,1.749-0.924,4.572,0,6.293c5.461-1.2,9.727,0.501,14.627,2.715c3.025,1.368,6.523,1.541,9.366-0.363
		c3.284-2.2,4.861-6.224,5.608-9.949c0.969-4.827,1.177-10.223,0.058-15.045c-0.862-3.703-2.794-6.939-5.372-9.7
		C604.438,472.533,602.504,470.265,600.319,469.644z"/>
	<path fill="none" d="M581.958,497.559c-3.554,3.892-6.207,8.514-9.963,12.245c-2.466,2.452-6.29,5.273-9.531,2.405
		c-2.219-1.963-3.772-5.18-5.059-7.807c-1.433-2.925-2.569-5.989-3.598-9.077c-3.061-9.182-5.338-18.604-8.504-27.753
		c-3.03-8.746-6.831-17.161-11.209-25.314c-4.543-8.466-9.184-17.112-14.662-25.02c-3.727,6.04-8.687,11.377-13.274,16.765
		c6.053,0.258,12.345,0.577,17.618,3.921c3.906,2.479,6.432,6.171,7.961,10.487c1.602,4.513,3.335,8.979,5.071,13.44
		c4.021,10.337,8.148,20.632,11.966,31.046c1.729,4.721,3.224,9.494,4.741,14.285c1.17,3.686,2.943,7.495,5.971,10.022
		c5.619,4.692,11.89,1.141,15.968-3.663c2.034-2.294,3.703-4.631,5.271-6.78C580.374,503.686,580.412,500.301,581.958,497.559z"/>
	<path fill="none" d="M367.919,514.981c0.238,4.246,0.633,9.083,1.999,13.109c0.838,2.469,1.586,4.585,2.727,6.933
		c0.722,1.488,1.508,3.239,2.805,4.327c2.829,2.379,5.147-4.385,5.906-6.064c1.633-3.618,1.934-7.455,2.54-11.331
		c-0.102,2.317-0.216,4.652-0.657,6.933c0.581-0.847,1.223-1.938,1.927-3.257c1.524-2.849,2.128-5.708,2.364-7.762
		C381.672,513.501,373.948,507.864,367.919,514.981z"/>
	<path fill="none" d="M375.656,272.989c-7.53,6.332-17.01,10.694-26.267,13.891c2.186,1.245,5.022,1.694,7.462,2.192
		c2.571,0.526,5.18,0.874,7.802,0.989c5.824,0.261,11.692-0.674,16.986-3.168c5.164-2.431,9.458-6.401,13.617-10.236
		c1.927-1.776,3.785-3.625,5.581-5.533c1.497-1.591,3.643-3.451,4.663-5.389c4.645-5.864,8.473-12.522,10.213-19.851
		c3.22-9.517,2.208-20.745-0.715-30.204c-3.072-9.943-9.745-17.797-17.438-24.604c0.149,4.206,0.178,8.419,0.098,12.628
		c-0.615-6.37-1.303-12.742-2.277-19.067c-0.782-5.093-1.341-11.55-6.352-14.356c-4.819-2.698-11.282-1.132-15.858,1.345
		c-3.536,1.914-6.63,4.729-8.994,7.976c3.014-5.197,8.005-9.392,13.575-11.583c-3.139-3.008-6.864-5.283-10.946-6.772
		c-2.268-0.817-4.603-1.4-6.978-1.805c-8.459-1.383-17.15-0.608-25.545,0.859c-7.918,1.383-15.928,3.306-23.514,5.979
		c-1.784,0.628-3.54,1.34-5.267,2.119c-8.384,3.788-16.152,9.324-21.889,16.569c-6.107,7.71-8.845,16.62-10.144,26.251
		c-1.138,8.422-1.392,17.223,1.337,25.383c1.577,4.71,4.108,9.008,7.181,12.894c1.76,2.231,3.685,4.331,5.688,6.348
		c1.49,1.502,3.059,3.386,4.819,4.562c0.345,0.302,0.686,0.605,1.036,0.901c-7.644-4.346-14.339-10.822-18.757-18.448
		c-3.696,3.002-4.743,7.769-2.829,12.106c3.288,7.454,11.897,12.425,19.167,15.188c4.556,1.741,9.315,2.854,14.132,3.58
		c2.052,0.31,4.115,0.545,6.176,0.752c0.312,0.031,1.707,0.067,1.707,0.067c13.272,0.821,27.288-0.531,39.851-5.07
		c7.198-2.052,14.123-4.886,20.851-8.151c6.338-3.073,12.815-5.875,19.118-9.005c-7.301,5.1-15.288,9.23-23.427,12.812
		c-8.459,3.723-17.168,6.955-26.187,9.015c-16.852,3.852-35.941,5.272-52.495-0.629c0.749,9.104,12.955,12.448,20.214,14.092
		c12.098,2.739,24.668,1.08,36.429-2.456C357.289,282.216,366.722,277.979,375.656,272.989z M403.726,231.766
		c0.368-1.603,2.491-1.85,3.81-1.539c1.321,0.31,3.115,1.473,2.742,3.077c-0.37,1.605-2.491,1.85-3.81,1.541
		C405.145,234.536,403.354,233.37,403.726,231.766z M286.025,193.991c-1.956,3.516-3.168,7.206-4.304,11.05
		c-1.203,4.079-2.304,8.21-2.992,12.411c0.994-6.838,2.116-14.032,5.071-20.339c2.705-5.777,6.403-11.368,10.752-16.044
		c1.798-1.937,3.761-3.733,5.681-5.549C294.948,181.134,289.783,187.238,286.025,193.991z M387.395,230.533
		c-0.372,1.603-2.495,1.848-3.812,1.539c-1.323-0.311-3.112-1.474-2.74-3.078c0.37-1.604,2.493-1.852,3.812-1.539
		C385.976,227.762,387.77,228.93,387.395,230.533z M386.099,198.764c-2.297,1.079-4.835-1.002-6.02-2.822
		c-1.687-2.599-1.918-6.354-1.361-9.334c0.419-2.221,2.13-5.586,4.906-3.856c-1.738-1.935-4.287-3.034-6.165-0.684
		c-0.586,0.734-1.473,2.227-1.568,3.026c0.437-2.782,2.39-6.049,5.666-4.617c3.213,1.404,4.984,5.563,6.035,8.664
		c0.189,0.557,0.301,1.067,0.385,1.555C388.645,193.218,388.99,197.403,386.099,198.764z M392.172,220.196
		c-0.034-1.474,1.729-1.967,2.905-1.846c1.232,0.128,2.856,0.932,3.005,2.333c0.167,1.543-1.7,2.086-2.903,1.961
		C393.921,222.511,392.21,221.666,392.172,220.196z"/>
	<path fill="none" d="M239.301,324.753c-0.602-4.496-2.625-8.408-4.761-12.331c-5.55,2.241-11.195,3.897-17.019,5.249
		c-2.437,0.567-4.897,1.116-7.272,1.928c-1.422,0.487-3.152,1.086-4.124,2.312c-2.549,3.212,4.848,7.204,6.909,8.171
		c5.401,2.538,11.416,3.436,17.333,3.638c-4.454,0.722-8.916,0.361-13.261-0.831c0.976,1.205,2.594,2.565,5.307,3.894
		c4.946,2.423,9.277,2.801,12.516,2.52C237.923,334.721,240.053,330.394,239.301,324.753z"/>
	<path fill="#1B1B1B" d="M432.758,430.614c-0.639-0.606-1.085-0.982-1.158-0.926C431.965,429.975,432.359,430.292,432.758,430.614z"
		/>
	<path fill="#1B1B1B" d="M387.591,189.141c-1.052-3.101-2.823-7.261-6.035-8.664c-3.275-1.432-5.229,1.836-5.666,4.617
		c0.096-0.799,0.982-2.291,1.568-3.026c1.878-2.351,4.427-1.251,6.165,0.684c-2.776-1.73-4.487,1.634-4.906,3.856
		c-0.557,2.98-0.325,6.735,1.361,9.334c1.185,1.82,3.723,3.901,6.02,2.822c2.892-1.36,2.547-5.545,1.878-8.067
		C387.892,190.208,387.781,189.698,387.591,189.141z"/>
	<path fill="#1B1B1B" d="M294.551,181.069c-4.349,4.676-8.047,10.267-10.752,16.044c-2.954,6.307-4.077,13.501-5.071,20.339
		c0.688-4.201,1.789-8.331,2.992-12.411c1.136-3.844,2.348-7.535,4.304-11.05c3.759-6.753,8.923-12.858,14.208-18.471
		C298.312,177.337,296.349,179.132,294.551,181.069z"/>
	<path fill="#1B1B1B" d="M406.469,234.844c1.319,0.31,3.44,0.065,3.81-1.541c0.372-1.604-1.421-2.767-2.742-3.077
		c-1.319-0.311-3.442-0.063-3.81,1.539C403.354,233.37,405.145,234.536,406.469,234.844z"/>
	<path fill="#1B1B1B" d="M384.655,227.455c-1.319-0.312-3.442-0.065-3.812,1.539c-0.372,1.604,1.417,2.767,2.74,3.078
		c1.317,0.308,3.44,0.063,3.812-1.539C387.77,228.93,385.976,227.762,384.655,227.455z"/>
	<path fill="#1B1B1B" d="M398.083,220.683c-0.149-1.4-1.773-2.205-3.005-2.333c-1.176-0.121-2.939,0.372-2.905,1.846
		c0.038,1.469,1.749,2.315,3.008,2.447C396.383,222.769,398.25,222.226,398.083,220.683z"/>
	<path fill="none" d="M419.596,129.457c0,0.032,0.002,0.065,0.002,0.098c0.136,0,0.292-0.002,0.43-0.002
		C419.883,129.521,419.741,129.491,419.596,129.457z"/>
	<path fill="none" d="M381.407,163.396c0.488,0.312,0.974,0.647,1.462,0.977c3.874-3.55,6.842-12.604,0.88-15.821
		c-6.12-3.303-12.153,4.281-12.142,9.818c1.618,0.657,3.211,1.367,4.766,2.158c-1.727-4.505,2.843-12.199,8.065-8.589
		c0.078-0.038,0.16-0.052,0.243-0.071c-0.196,0.229-0.319,0.546-0.319,0.895c0,0.706,0.495,1.278,1.11,1.278
		c0.187,0,0.354-0.066,0.51-0.159c0.472,1.077,0.626,2.377,0.305,3.785C385.64,160.511,383.603,162.794,381.407,163.396z"/>
	<path fill="none" d="M391.724,169.42c2.005-6.311,2.923-13.027,2.038-19.623c-0.679-5.056-2.493-10.703-6.775-13.862
		c-2.332-1.398-4.692-1.891-6.486-2.037c-0.336,0.012-0.666,0.032-1.005,0.09c-0.615,0.047-1.225,0.146-1.834,0.277
		c-8.711,2.257-13.695,11.934-16.502,19.708c1.64-5.719,4.091-11.602,8.386-15.855c-4.024-6.675-12.098-6.144-18.175-2.642
		c-6.287,3.622-10.696,10.008-13.37,16.627c-0.635,1.579-1.183,3.173-1.637,4.814c2.609-1.542,5.619-2.043,8.593-2.299
		c-1.832-5.202,1.121-12.471,7.154-12.968c2.985-0.246,5.855,1.552,6.59,4.535c0.735,2.995-0.129,6.019-1.834,8.529
		c4.614,0.496,9.172,1.563,13.521,3.176c0.069-6.497,6.577-14.175,13.484-10.131c6.187,3.624,3.6,12.81-0.599,16.887
		c1.219,0.841,2.399,1.71,3.558,2.631C388.605,167.658,390.278,168.365,391.724,169.42z"/>
	<path fill="none" d="M441.532,119.062c0.314-0.396,0.615-0.795,0.913-1.195c5.461-7.486,7.279-16.745,5.576-25.799
		c-0.831-4.426-2.312-8.114-5.661-11.224c-1.539-1.43-3.266-2.67-5.08-3.728c-1.406-0.817-3.144-1.933-4.75-2.24
		c-0.804-0.29-7.539-2.278-7.33,0.266c0.107,1.299,2.005,2.623,2.839,3.455c4.023,4.017,7.08,8.865,5.761,14.782
		c-1.713,7.942-6.483,11.936-11.349,14.751c2.93,2.318,5.797,4.733,8.825,6.925C434.286,117.23,437.911,118.4,441.532,119.062z"/>
	<path fill="none" d="M313.069,112.427c4.563,5.554,9.805,10.575,15.321,15.171c1.036-3.653,2.337-7.245,4.024-10.648
		c-8.034-1.827-12.394-5.504-20.88-11.641c-0.517-0.376-2.678-2.135-3.355-1.395c-0.459,0.502,0.205,1.66,0.45,2.15
		C309.786,108.366,311.441,110.445,313.069,112.427z"/>
	<path fill="none" d="M347.516,100.733c-3.919-2.412-7.337-5.423-9.175-9.742c-1.905-4.472-2.357-9.541-0.063-13.939
		c1.475-2.831,3.814-4.826,5.784-7.266c0.368-0.457,0.996-1.258,0.448-1.812c-1.39-1.405-4.42-0.295-5.902,0.273
		c-3.77,1.508-7.348,3.988-9.905,7.159c-2.402,2.978-3.342,6.743-3.966,10.449c-0.706,4.144-0.742,8.445,0.087,12.574
		c0.65,3.304,1.82,7.411,3.912,10.143c1.112,1.847,2.422,3.642,3.977,5.36c0.283,0.315,0.568,0.594,0.851,0.857
		C336.906,108.86,341.598,104.101,347.516,100.733z"/>
	<path fill="none" d="M325.798,144.208c-0.283,1.767-0.582,3.537-0.74,5.319c-0.029,0.313-0.279,2.643,0.383,2.346
		c0.809-0.364,1.435-1.826,1.869-2.568c0.68-1.161,1.326-2.342,1.983-3.517c1.662-2.983,3.353-5.951,5.189-8.83
		c1.878-2.943,3.899-5.812,6.194-8.447c1.125-1.298,2.333-2.514,3.562-3.712c1.127-1.097,3.128-2.42,4.683-4.086
		c2.999-2.333,4.476-3.684,7.517-5.554c0.749-0.46,1.533-0.868,2.273-1.344c0.619-0.398,0.258-1.175,0.243-1.848
		c-0.033-1.672,0.178-3.349,0.464-4.994c0.111,3.828,0.432,7.517,2.021,11.054c0.84,1.867,2.125,3.485,3.395,5.073
		c0.176,0.223,2.137,2.813,2.061,1.691c-0.243-3.664-2.157-7.201-0.158-10.755c2.059-3.664,6.608-5.441,10.418-6.568l0.249,0.046
		c-1.337,0.667-2.709,1.262-4.037,1.938c12.122-0.575,25.96,5.017,32.508,15.658c3.208,5.105,5.153,11.467,5.245,17.489
		c0.049,3.286-0.532,6.541-1.573,9.653c-0.109,0.327-1.829,4.134-0.504,3.204c1.974-1.384,3.38-3.986,4.505-6.038
		c1.341-2.455,2.417-5.047,3.186-7.739c0.827-2.886,1.339-5.923,1.522-8.922c0.105-1.845,0.419-4.669-0.25-6.428
		c-0.791-5.857-2.76-11.952-5.376-17.248c4.07,5.62,6.63,12.084,6.94,19.056c0.047,0.012,0.091,0.024,0.136,0.037
		c10.03,2.5,22.05,2.516,31.911-0.778c2.264-0.756,4.371-1.9,6.443-3.071c0.994-0.561,2.232-1.155,2.976-2.059
		c1.19-1.45-5.213-1.119-5.797-1.114c-5.091,0.042-10.23-0.001-15.228-1.112c-4.754-1.057-8.214-3.403-12.002-6.305
		c-8.036-6.155-16.571-13.062-26.127-16.7c2.244,1.913,4.356,4.089,6.336,6.414c-2.961-2.707-6.448-4.735-9.658-7.118
		c-2.89-2.153-6.207-3.885-9.741-4.66c-3.66-0.802-7.971-0.707-11.434,0.831c-3.092,1.372-5.623,3.827-7.724,6.428
		c1.076-1.668,2.299-3.259,3.707-4.661c-7.167,0.355-14.372,2.408-20.905,5.316c-6.719,2.992-12.648,7.369-16.772,13.528
		c-0.675,0.995-1.272,2.038-1.847,3.089c-3.059,5.566-4.853,11.749-6.198,17.927C326.923,137.469,326.335,140.835,325.798,144.208z"
		/>
	<path fill="none" d="M335.5,157.47c2.172-7.893,6.156-15.908,12.786-20.974c-1.751,0.508-3.698,1.063-5.503,0.551
		c2.25-0.125,4.398-0.575,6.229-1.959c-1.568,0.109-5.608-0.086-6.272-2.02c0.198,0.575,3.355,1.312,3.903,1.399
		c1.388,0.22,3.467,0.358,4.621-0.633c-1.934-0.363-4.982-0.942-5.753-3.097c2.714,2.082,5.485,2.808,8.765,1.443
		c-2.702-0.831-4.935-1.065-6.525-3.733c2.007,1.992,4.73,2.68,7.461,3.067l2.152-0.58c5.22-1.778,6.659-1.138,11.298-1.229
		c5.146,0.549,10.233,0.073,15.337-0.648c0.724-0.24,0.929-0.491,1.045-0.81c0.35-1.112-0.508-2.62-0.949-3.582
		c-0.59-1.282-1.237-2.536-1.851-3.808c-1.377-2.851-1.805-6.309,0.337-8.924c-3.765-0.443-8.114-0.443-13.243,0.129
		c-2.03,1.837-2.738,4.145-2.691,6.816c0.024,1.486,0.216,2.963,0.432,4.433c0.127,0.869,0.488,2.038,0.265,2.917
		c-0.203,0.803-1.609-1.078-1.751-1.252c-0.864-1.041-1.738-2.077-2.567-3.149c-1.577-2.036-2.718-4.19-3.489-6.65
		c-2.76,1.497-5.398,3.214-7.911,5.095c-0.869,0.65-4.019,3.219-4.625,3.749c-2.257,1.974-4.423,4.076-6.412,6.306
		c-3.663,7.77-4.11,16.478-8.33,24.016c-1.061,1.893-2.244,3.689-3.52,5.393c1.854-0.411,3.638-0.765,5.363-1.076
		C334.538,158.222,334.997,157.83,335.5,157.47z"/>
	<path fill="none" d="M543.043,273.216c0.368,0.037,0.693,0.225,0.96,0.594C543.736,273.439,543.411,273.253,543.043,273.216z"/>
	<path fill="none" d="M454.663,239.869c-0.098,4.225-0.918,7.96-3.193,11.583c-2.511,3.998-5.479,7.598-7.394,11.957
		c-1.78,4.046-3.478,9.021-2.756,13.498c1.308,8.085,13.181,8.279,19.41,8.766c5.349,0.417,10.721,0.699,16.081,0.949
		c5.051,0.236,10.186,0.407,15.201-0.383c3.64-0.573,7.254-1.753,10.204-4.027c3.217-2.482,5.334-6.048,6.76-9.804
		c-1.263-0.473-2.529-0.956-3.799-1.454c-5.095-2.306-10.449-4.07-15.375-6.758c-3.888-2.12-7.39-4.924-10.678-7.866
		c-7.433-6.653-14.326-14.254-20.506-22.082c-0.501-0.607-1.003-1.211-1.5-1.813C454.804,234.003,454.721,237.366,454.663,239.869z"
		/>
	<path fill="none" d="M378.829,167.647c2.012-0.623,4.166-0.844,6.263-0.645c-7.321-5.212-15.691-9.075-24.53-10.849
		c-8.408-1.528-17.213-1.717-25,2.262C350.581,155.883,367.449,156.041,378.829,167.647z"/>
	<path fill="none" d="M507.118,355.584c-5.187-0.683-8.522,6.008-10.672,9.635l-0.766-0.452l0.762,0.452
		c-3.522,5.907-7.987,11.152-11.931,16.768c-3.128,4.454-7.12,10.539-4.253,16.08c1.704,3.293,5.104,5.296,7.731,7.779
		c2.493,2.355,4.783,4.915,6.933,7.585c4.151,5.157,7.686,10.763,11.746,15.988c4.683-4.388,8.803-9.386,11.857-15.047
		c2.927-5.415,4.841-11.324,6.408-17.259c3.471-13.147,4.516-26.84,2.339-40.294C520.942,361.946,513.806,356.466,507.118,355.584z"
		/>
	<path fill="none" d="M578.534,284.336c-1.185,2.383-2.034,4.97-2.065,7.655c-0.024,2.441,0.749,4.69,1.495,6.98
		c6.403,0.946,14.381-0.969,19.405-5.106c-4.376,0.844-8.836,1.034-13.198,0.036c5.135,0.127,10.153-0.388,15.143-1.614
		c3.979-0.978,8.8-2.749,11.608-5.895c2.116-2.373-0.884-4.055-2.876-4.913c-3.727-1.605-7.726-2.521-11.55-3.858
		c-3.571-1.247-7.655-2.397-10.168-3.711C583.201,277.322,580.612,280.152,578.534,284.336z"/>
	<path fill="none" d="M355.621,154.612c0.283,0.024,0.564,0.04,0.847,0.069c1.7-2.34,2.654-5.423,1.831-8.279
		c-0.728-2.397-2.854-4.093-5.43-3.775c-5.474,0.675-8.711,6.898-6.964,11.916c1.372-0.097,2.749-0.163,4.137-0.17
		c-2.825-3.879,1.677-11.694,6.379-8.282c-0.232,0.203-0.39,0.498-0.39,0.842c0,0.613,0.472,1.111,1.056,1.111
		c0.24,0,0.448-0.099,0.626-0.24c0.361,0.92,0.45,2.016,0.14,3.191C357.465,152.461,356.637,153.737,355.621,154.612z"/>
	<path fill="none" d="M447.471,130.571c-7.842,1.666-16.177,1.588-24.066,0.298c-1.051,0.009-2.103,0.015-3.155,0.017
		c-0.167,5.528-1.294,11.232-3.531,16.301c-1.072,2.428-2.408,4.746-4.099,6.799c-0.998,1.211-2.709,3.303-4.472,3.303
		c-2.384,0.05-0.281-5.189-0.031-6.298c0.615-2.717,1.034-5.463,1.058-8.253c-0.013-5.135-1.593-10.053-4.177-14.462
		c-2.234-3.853-4.888-7.554-8.424-10.315c-3.754-2.927-8.281-4.546-12.958-5.239c-2.584,3.088-0.506,6.86,0.973,9.889
		c1.139,2.34,3.558,6.669-0.354,7.76c-5.213,0.737-10.411,1.221-15.669,0.666c-2.927,0.097-5.842-0.283-8.765,0.107
		c1.165,0.119,5.211,1.151,5.978,1.515c1.811,0.862,3.389,2.179,4.585,3.822c2.805-2.348,5.888-3.588,8.967-3.814
		c1.462-0.255,2.823,0.044,4.273,0.17c1.851,0.165,3.718,0.182,5.574,0.109c1.691-0.066,3.371-0.173,4.959-0.804
		c0.24-0.096,1.646-0.642,2.402-1.105c0.29-0.269,0.483-0.46,0.483-0.46c0,0.121-0.198,0.285-0.483,0.46
		c-1.092,1.01-3.926,3.424-6.403,3.674c1.377,0.566,1.776,1.667,5.084,0.957c1.043-0.224,2.863-0.967,3.64-1.745l1.961-1.115
		c0,0-5.514,4.975-7.804,5.231c2.785,2.228,8.876-1.225,9.203-1.017c0.535,0.382-4.293,3.657-7.078,3.472
		c1.152,0.996,3.409,2.084,4.997,2.084c0,0-4.841,0.566-6.842-0.527c3.832,8.775,2.977,19.079,0.107,27.984
		c0.396,0.555,0.782,1.409,1.161,2.454c0.642,1.035,1.159,2.208,1.482,3.548c1.241,1.387,2.368,2.721,3.213,4.393
		c-0.976-1.218-1.976-2.393-3.008-3.521c0.205,1.079,0.372,2.271,0.524,3.501c0.664,2.904,1.172,5.7,1.299,7.406
		c7.749,6.638,16.25,14.549,19.285,24.626c3.634,10.208,4.75,21.3,1.981,31.862c-2.662,10.145-8.457,19.057-15.533,26.685
		c5.984-2.861,11.416-6.844,16.199-11.419c-0.105-0.95-0.149-1.987-0.151-3.083c0.005-6.255,1.02-12.569,1.9-18.75
		c0.934-6.546,1.874-12.72-0.559-19.073c-2.424-6.332-5.465-12.091-5.77-19.033c-0.145-3.336,0.323-6.693,1.555-9.807
		c0.827-2.1,2.223-4.933,4.863-4.948c4.897,0.252,7.063,7.477,7.985,11.253c0.633,2.591,0.439,6.358,2.449,8.367
		c2.275,2.203,6.075,0.39,8.366-0.841c-0.802-8.507-2.829-15.883-5.033-21.751c-0.374,5.38-1.372,11.356-3.037,17.687l0.221-6.554
		c0.66-7.651,0.354-10.861-0.036-18.531c-0.354-6.964-1.419-13.761-4.806-19.946c-3.28,1.557-12.247,3.632-12.247,3.632
		s23.282-11.71,32.655-19.31c4.614-3.741,9.021-7.79,12.998-12.205c1.667-1.847,3.262-3.775,4.661-5.834
		c0.593-0.876,1.626-2.135,1.689-3.253c-1.25,0.207-2.462,1.271-3.473,1.962c0.323,0.185,0.637,0.584,0.626,1.043
		c-0.116,1.473-1.918,2.538-3.008,3.316c-1.551,1.106-3.17,2.114-4.792,3.113C454.14,128.801,450.805,129.863,447.471,130.571z"/>
	<path fill="none" d="M454.668,136.094c-7.067,6.628-15.145,11.888-23.767,16.269c2.074,3.937,3.324,8.179,3.903,12.581
		c3.618,0.975,7.308,1.701,11.031,2.138c8.464,0.994,17.979,0.794,25.039-4.593c5.133-3.916,8.012-9.907,9.072-16.173
		c1-5.913,0.586-12.119-0.945-17.906c-0.606-2.284-1.388-4.553-2.518-6.635c-0.742-1.365-4.099-7.469-5.951-5.438
		c-1.096,3.577-4.052,6.865-6.381,9.685C461.213,129.579,458.032,132.939,454.668,136.094z"/>
	<path fill="none" d="M336.706,135.209c-2.544,3.526-4.786,7.255-6.978,11.007c-0.546,0.937-3.589,7.328-4.886,6.922
		c-1.566-0.489,0.321-9.48,0.483-10.587c0.671-4.554,1.515-9.091,2.694-13.544c-4.42-3.585-8.488-7.613-12.258-11.874
		c-2.698-3.051-5.405-6.256-7.593-9.733c-0.434-0.693-2.567-4.073-3.56-4.066c-1.105,0.007-2.103,1.385-2.725,2.123
		c-1.221,1.444-2.19,2.974-2.959,4.7c-1.838,4.123-2.774,8.687-3.05,13.177c-0.668,10.858,3.259,21.995,13.539,27.011
		c5.621,2.721,13.617,3.375,21.698,2.67C334.179,147.387,334.99,141.292,336.706,135.209z"/>
	<path fill="none" d="M581.958,497.559c-3.554,3.892-6.207,8.514-9.963,12.245c-2.466,2.452-6.29,5.273-9.531,2.405
		c-2.219-1.963-3.772-5.18-5.059-7.807c-1.433-2.925-2.569-5.989-3.598-9.077c-3.061-9.182-5.338-18.604-8.504-27.753
		c-3.03-8.746-6.831-17.161-11.209-25.314c-4.543-8.466-9.184-17.112-14.662-25.02c-3.727,6.04-8.687,11.377-13.274,16.765
		c6.053,0.258,12.345,0.577,17.618,3.921c3.906,2.479,6.432,6.171,7.961,10.487c1.602,4.513,3.335,8.979,5.071,13.44
		c4.021,10.337,8.148,20.632,11.966,31.046c1.729,4.721,3.224,9.494,4.741,14.285c1.17,3.686,2.943,7.495,5.971,10.022
		c5.619,4.692,11.89,1.141,15.968-3.663c2.034-2.294,3.703-4.631,5.271-6.78C580.374,503.686,580.412,500.301,581.958,497.559z"/>
	<path fill="none" d="M301.956,168.225c-1.172-1.958-3.863-8.799,0.958-8.307c-2.034-0.79-4.897-1.128-5.603,1.513
		c-0.158,0.599-0.528,3.53,0.1,3.986c-0.506-0.368-0.644-2.216-0.679-2.804c-0.051-0.88,0.08-1.813,0.604-2.545
		c0.695-0.969,1.881-1.34,3.032-1.294c3.756,0.147,7.796,3.327,10.144,6.022c3.837-1.292,7.738-2.422,11.654-3.458
		c-5.265-4.244-11.322-8.862-18.436-8.608c-5.387,0.192-9.228,3.829-10.175,9.063c-0.45,2.496-0.082,6.566,0.582,10.801
		C296.732,170.899,299.37,169.456,301.956,168.225z"/>
	<path fill="none" d="M463.029,512.201c-4.175,1.115-6.474,4.601-8.76,7.954c1.245,3.667,3.462,6.336,5.474,9.544
		c0.856,1.176,2.81,4.933,2.585,4.63c-0.668-0.882-1.319-1.778-1.956-2.682c0.236,5.619,1.981,13.492,7.08,16.687
		c3.799,2.384,5.249-4.22,5.855-6.675c1.176-4.781,2.201-9.634,2.896-14.508c-0.154,1.952-0.39,3.894-0.684,5.761
		c0.693-0.909,1.544-2.215,2.444-4.082c1.618-3.373,2.829-8.529,3.233-11.665C475.802,514.741,469.187,510.558,463.029,512.201z"/>
	<path fill="none" d="M600.319,469.644c-1.116-0.316-1.344,0.635-1.165,1.536c0.468,2.347,1.582,4.36,1.671,6.831
		c0.087,2.454-0.479,4.932-1.738,7.049c-2.832,4.773-8.437,5.044-12.474,8.368c-2.13,1.755-4.148,4.058-4.975,6.741
		c-0.539,1.749-0.924,4.572,0,6.293c5.461-1.2,9.727,0.501,14.627,2.715c3.025,1.368,6.523,1.541,9.366-0.363
		c3.284-2.2,4.861-6.224,5.608-9.949c0.969-4.827,1.177-10.223,0.058-15.045c-0.862-3.703-2.794-6.939-5.372-9.7
		C604.438,472.533,602.504,470.265,600.319,469.644z"/>
	<path fill="none" d="M413.224,460.916c4.545-4.24,8.794-7.367,12.182-9.558c-4.077,0.684-7.584,1.723-10.607,2.93
		C414.899,456.738,414.277,459.058,413.224,460.916z"/>
	<path fill="none" d="M432.758,430.614c-0.639-0.606-1.085-0.982-1.158-0.926C431.965,429.975,432.359,430.292,432.758,430.614z"/>
	<path fill="none" d="M239.301,324.753c-0.602-4.496-2.625-8.408-4.761-12.331c-5.55,2.241-11.195,3.897-17.019,5.249
		c-2.437,0.567-4.897,1.116-7.272,1.928c-1.422,0.487-3.152,1.086-4.124,2.312c-2.549,3.212,4.848,7.204,6.909,8.171
		c5.401,2.538,11.416,3.436,17.333,3.638c-4.454,0.722-8.916,0.361-13.261-0.831c0.976,1.205,2.594,2.565,5.307,3.894
		c4.946,2.423,9.277,2.801,12.516,2.52C237.923,334.721,240.053,330.394,239.301,324.753z"/>
	<path fill="none" d="M375.656,272.989c-7.53,6.332-17.01,10.694-26.267,13.891c2.186,1.245,5.022,1.694,7.462,2.192
		c2.571,0.526,5.18,0.874,7.802,0.989c5.824,0.261,11.692-0.674,16.986-3.168c5.164-2.431,9.458-6.401,13.617-10.236
		c1.927-1.776,3.785-3.625,5.581-5.533c1.497-1.591,3.643-3.451,4.663-5.389c4.645-5.864,8.473-12.522,10.213-19.851
		c3.22-9.517,2.208-20.745-0.715-30.204c-3.072-9.943-9.745-17.797-17.438-24.604c0.149,4.206,0.178,8.419,0.098,12.628
		c-0.615-6.37-1.303-12.742-2.277-19.067c-0.782-5.093-1.341-11.55-6.352-14.356c-4.819-2.698-11.282-1.132-15.858,1.345
		c-3.536,1.914-6.63,4.729-8.994,7.976c3.014-5.197,8.005-9.392,13.575-11.583c-3.139-3.008-6.864-5.283-10.946-6.772
		c-2.268-0.817-4.603-1.4-6.978-1.805c-8.459-1.383-17.15-0.608-25.545,0.859c-7.918,1.383-15.928,3.306-23.514,5.979
		c-1.784,0.628-3.54,1.34-5.267,2.119c-8.384,3.788-16.152,9.324-21.889,16.569c-6.107,7.71-8.845,16.62-10.144,26.251
		c-1.138,8.422-1.392,17.223,1.337,25.383c1.577,4.71,4.108,9.008,7.181,12.894c1.76,2.231,3.685,4.331,5.688,6.348
		c1.49,1.502,3.059,3.386,4.819,4.562c0.345,0.302,0.686,0.605,1.036,0.901c-7.644-4.346-14.339-10.822-18.757-18.448
		c-3.696,3.002-4.743,7.769-2.829,12.106c3.288,7.454,11.897,12.425,19.167,15.188c4.556,1.741,9.315,2.854,14.132,3.58
		c2.052,0.31,4.115,0.545,6.176,0.752c0.312,0.031,1.707,0.067,1.707,0.067c13.272,0.821,27.288-0.531,39.851-5.07
		c7.198-2.052,14.123-4.886,20.851-8.151c6.338-3.073,12.815-5.875,19.118-9.005c-7.301,5.1-15.288,9.23-23.427,12.812
		c-8.459,3.723-17.168,6.955-26.187,9.015c-16.852,3.852-35.941,5.272-52.495-0.629c0.749,9.104,12.955,12.448,20.214,14.092
		c12.098,2.739,24.668,1.08,36.429-2.456C357.289,282.216,366.722,277.979,375.656,272.989z"/>
	<path fill="none" d="M367.919,514.981c0.238,4.246,0.633,9.083,1.999,13.109c0.838,2.469,1.586,4.585,2.727,6.933
		c0.722,1.488,1.508,3.239,2.805,4.327c2.829,2.379,5.147-4.385,5.906-6.064c1.633-3.618,1.934-7.455,2.54-11.331
		c-0.102,2.317-0.216,4.652-0.657,6.933c0.581-0.847,1.223-1.938,1.927-3.257c1.524-2.849,2.128-5.708,2.364-7.762
		C381.672,513.501,373.948,507.864,367.919,514.981z"/>
	<path fill="none" d="M394.605,460.334c-3.966-4.6-5.113-10.907-5.815-16.77c-10.429,4.447-22.097,2.726-32.706-0.32
		c-2.059,4.043-3.518,8.38-4.855,12.705c4.781,3.148,9.781,5.928,14.965,8.347c3.549,1.658,7.203,3.293,10.952,4.446
		c0.37,0.129,0.755,0.267,1.192,0.416c-4.021-0.447-7.744-1.476-11.503-2.946c1.359,3.891,3.144,7.547,4.79,11.314
		c0.976,2.236,1.865,4.509,2.645,6.82c0.593,1.78,1.13,3.577,1.609,5.391c-0.735-1.486-1.468-3.031-2.194-4.598
		c-5.621,8.096-8.335,17.833-8.876,27.628c-0.062,1.138-0.109,4.715,1.649,2.508c2.905-3.725,7.263-5.362,11.821-3.714l0.357,0.127
		c3.239,1.281,6.024,3.406,8.987,5.18c0.693,0.414,2.351,1.528,3.001,0.481c0.659-1.074,0.543-2.978,0.586-4.193
		c0.241-6.986-1.68-13.841-1.584-20.815c-0.397,0.6-0.793,1.201-1.185,1.803c1.805-3.654,4.342-8.751,6.586-12.154
		c3.235-4.908,5.233-7.93,8.999-12.443c1.437-1.722,3.988-3.385,5.418-4.882C404.071,467.534,398.221,464.527,394.605,460.334z"/>
	<path fill="none" d="M413.596,453.8c-0.428-5.185-3.856-8.505-7.499-11.802c-3.393-3.081-6.929-6.119-9.562-9.909
		c0.925,0.877,2.081,1.947,3.368,3.136c4.596-3.939,9.44-8.675,11.207-14.633c1.56-5.267,0.523-10.771-1.063-15.9
		c-4.826-0.172-9.449-1.293-14.094-2.536c-2.763-0.74-5.788-1.455-8.294-2.901c6.626,1.709,13.481,3.375,20.316,3.902
		c3.297,0.253,6.61,0.18,9.912,0.062c3.112-0.11,6.149-0.163,8.999-1.572c4.839-2.39,7.648-7.557,7.495-12.89
		c-0.094-3.156-1.17-6.244-2.948-8.844c-1.537-2.244-4.873-5.48-7.891-5.378c-5.657-1.148-11.432,1.532-15.634,5.168
		c-4.828,4.176-10.175,7.406-16.146,9.693c2.351-1.311,5.487-3.135,8.613-5.173c-6.394-8.757-15.072-16.398-25.278-20.321
		c-10.603-4.075-22.065-0.33-31.514,4.934c2.52,5.92,3.863,12.197,5.837,18.298c0.896,2.763,1.816,5.666,3.302,8.183
		c-5.089-7.787-6.307-17.069-9.774-25.54c-2.93-7.163-8.049-14.687-16.805-12.568c-11.345,2.657-3.239,19.4,0.31,25.29
		c2.575,4.28,5.681,8.1,9.547,11.281c2.965,2.449,6.526,5.149,10.128,6.57c0.263,0.134,0.504,0.255,0.74,0.371
		c-8.84-2.635-16.202-9.432-21.081-17.056c-4.447,8.229-3.832,17.868-1.388,26.618c3.055,10.94,9.386,19.703,18.777,26.069
		c2.736-1.127,5.066-2.853,7.089-4.993c1.566-1.654,2.983-3.513,4.931-4.746c-3.44,4.054-6.552,8.687-11.817,10.508
		c-4.275,1.44-7.183,4.811-9.674,8.377c-2.849,4.748-3.642,10.876-0.543,15.706c3.168,4.947,9.302,5.237,13.303,1.103
		c2.587-2.672,3.6-6.218,4.703-9.667c1.061-3.319,2.126-6.668,3.712-9.781c1.952-3.812,4.79-6.969,8.303-9.401
		c-0.096,1.516-2.283,2.852-3.21,3.912c-1.372,1.573-2.529,3.32-3.516,5.158c10.551,2.934,21.916,4.526,32.211-0.04
		c-0.55-5.095-0.724-10.255-0.566-15.378c0.047,2.017,0.149,4.935,0.394,8.227c0.147,2.01,0.337,4.017,0.582,6.019
		c0.125,1.048,0.272,2.094,0.432,3.137c1.069,6.892,2.789,14.068,8.954,18.206c3.226,2.164,7.41,2.783,10.866,0.742
		C412.651,461.479,413.896,457.487,413.596,453.8z"/>
	<path fill="#1B1B1B" d="M397.024,130.577c0,0-0.194,0.192-0.483,0.46C396.826,130.862,397.024,130.698,397.024,130.577z"/>
	<path fill="#1B1B1B" d="M600.673,468.692c-1.99-1.085-3.199-0.177-2.295,1.972c2.063,4.927,1.856,11.096-1.602,15.37
		c-1.557,1.926-3.404,2.669-5.635,3.546c-2.909,1.144-5.503,3.155-7.495,5.549c-3.649,2.707-5.986,7.112-8.86,10.56
		c-2.192,2.631-5.568,6.87-9.442,6.619c-3.251-0.209-5.131-4.084-6.53-6.591c-1.486-2.66-2.662-5.475-3.683-8.343
		c-3.104-8.723-5.189-17.777-8.063-26.576c-2.927-8.971-6.617-19.317-10.957-27.693c-4.964-9.582-9.591-19.063-15.662-27.995
		c8.326-13.801,10.545-29.544,10.17-45.457c-0.483-20.636-7.08-40.291-17.877-57.783c11.472-9.227,24.211-18.187,38.871-21.19
		c7.412,0.717,13.216,7.636,18.904,11.733c1.809,1.303,4.173,3.069,6.512,3.186c3.478,0.175,1.791-3.99,1.201-5.804
		c3.507,0.512,7.1,0.068,10.489-0.892c3.553-1.007,7.528-2.505,10.061-5.334c3.128-0.732,20.312-7.054,12.701-11.574
		c-3.302-1.96-7.281-2.843-10.904-4.007c-4.532-1.455-8.936-3.255-13.283-5.187c0.639-0.733,2.33-2.504,0.755-3.168
		c-1.241-0.522-2.827-0.755-4.171-0.78c-3.738-0.068-7.559,1.206-10.984,2.582c-4.32,1.734-8.141,4.552-12.666,5.737
		c-4.489,1.177-9.197,1.535-13.822,1.684c-0.742-2.332-0.704-7.654-4.353-6.558c-1.604,0.482-3.665,1.667-5.443,2.833
		c-1.553,1.018-2.834,1.806-4.445,2.721c-8.689-1.977-16.253-4.936-24.505-8.251c-8.33-3.344-16.861-6.696-23.999-12.246
		c-7.49-5.823-13.875-13.03-19.775-20.418c-6.951-8.701-13.27-17.9-19.323-27.242c-0.125-0.193-0.25-0.387-0.374-0.579
		c-0.786-13.808-4.991-26.07-8.921-34.751c0.04-2.992-0.056-5.692-0.31-8.148c15.671,5.275,38.129,3.768,44.906-13.993
		c2.239-5.864,2.504-12.38,1.611-18.545c-0.7-4.83-2.039-10.042-4.832-14.125c-1.432-2.095-4.304-6.589-7.379-4.673
		c-2.87,0.882-5.592,3.154-8.041,4.837c-4.015-0.07-11.454,0.635-18.619-0.476c5.984-7.343,8.918-16.886,7.176-26.287
		c-0.74-3.999-2.143-7.96-4.839-11.064c-2.364-2.718-5.416-4.81-8.658-6.344c-2.709-1.283-5.692-2.297-8.702-2.504
		c-0.811-0.056-4.023-0.204-3.899,1.279c0.118,1.387,2.154,2.815,3.041,3.709c1.871,1.892,3.649,3.927,4.812,6.343
		c2.07,4.295,1.424,9.061-0.584,13.273c-2.068,4.344-5.761,7.227-9.995,9.309c-7.88-6.161-17.567-13.084-24.823-13.99
		c-6.519-3.642-15.676-4.841-21.734,0.352c-6.497-0.131-16.618,2.091-25.069,6.441c-2.798-1.475-5.565-3.077-7.622-5.538
		c-2.547-3.042-3.957-7.271-3.955-11.225c0-6.1,4.139-9.575,7.599-13.947c0.974-1.233,0.702-2.142-0.922-2.413
		c-2.542-0.423-5.378,0.578-7.662,1.584c-3.275,1.44-6.314,3.567-8.622,6.311c-2.682,3.184-4.042,7.274-4.768,11.323
		c-0.913,5.082-0.599,10.357,0.936,15.287c1.589,5.088,4.63,10.88,8.974,14.141c-0.196,0.362-0.401,0.717-0.593,1.087
		c-4.708-1.066-8.91-3.327-12.842-6.07c-1.97-1.375-3.883-2.827-5.831-4.232c-2.087-1.507-4.362-3.453-6.811-4.321
		c-2.901-1.939-5.681,1.973-7.212,3.968c-1.328,1.733-2.279,3.761-3.057,5.793c-2.114,5.516-3.021,11.614-2.538,17.504
		c0.541,6.559,3.055,12.939,7.967,17.45c6.985,6.414,17.429,8.651,26.662,8.17c0.397-0.02,0.793-0.047,1.19-0.077
		c-1.23,2.046-2.616,3.979-4.108,5.797c-0.744,0.178-1.488,0.356-2.252,0.551c-6.508-5.203-15.099-11.438-23.921-8.84
		c-9.633,2.839-8.39,13.553-7.169,21.464c-10.231,7.087-17.757,17.399-20.172,29.725c-2.252,11.486-4.478,24.341,0.176,35.542
		c-4.681,2.625-6.595,8.208-5.416,13.298c2.181,9.422,12.064,16.571,20.401,20.192c0.247,5.388,4.166,9.405,8.568,12.039
		c8.395,5.022,18.884,7.18,28.578,7.077c-11.334,11.56-25.514,20.497-41.161,24.909c-1.179-1.15-2.346-2.311-3.482-3.502
		c-0.824-0.869-1.838-1.898-3.159-1.488c-2.584,0.802-3.371,5.63-4.485,7.721c-0.586,0.092-1.11,0.028-1.938,0.101
		c-3.634,0.321-7.428,0.131-10.879-1.132c-4.222-1.546-7.446-5.09-11.454-7.133c-3.012-1.536-6.515-2.945-9.957-2.886
		c-1.29,0.023-2.987,0.125-4.171,0.68c-1.306,0.611-0.446,2.275,0.013,3.18c-4.737,1.63-9.518,3.159-14.381,4.359
		c-4.128,1.018-8.437,1.75-12.39,3.368c-2.29,0.939-4.844,2.676-2.928,5.295c2.738,3.746,6.875,6.215,11.238,7.626
		c1.553,2.955,4.977,4.73,7.934,5.924c3.373,1.363,7.034,2.02,10.67,1.71c-0.922,1.407-4.541,6.425-0.325,6.017
		c3.248-0.315,6.519-2.405,9.244-4.017c7.533-4.454,15.297-10.586,24.51-9.576c7.597,2.739,14.355,7.185,20.798,11.984
		c5.503,4.103,10.75,8.551,15.758,13.244c0.595,15.451,2.52,30.939,6.577,45.882c2.09,7.709,4.685,15.284,8.593,22.275
		c3.64,6.512,8.205,12.489,13.41,17.826c-4.496,6.313-5.156,17.208,2.547,21.526c6.312,3.541,12.826-1.375,15.054-7.347
		c4.639,2.926,9.402,5.423,14.161,7.422c2.756,6.374,5.191,11.53,8.096,17.839c-4.681,7.29-7.582,16.862-8.776,25.44
		c-0.158,1.136-0.931,11.63,2.649,7.241c0.493,7.454,2.856,15.555,6.713,21.963c1.098,1.818,3.055,4.135,5.031,1.943
		c1.274-1.408,2.032-2.892,2.825-4.594c0.724-1.546,1.361-3.623,1.769-5.282c2.649-3.346,4.964-7.152,5.454-11.383
		c0.606,0.441,1.203,1.065,2.032,0.579c0.775-0.452,0.947-1.858,1.074-2.658c0.379-2.381,0.252-4.846,0.089-7.24
		c-0.401-5.866-1.432-11.686-1.582-17.57c5.717-8.568,11.63-17.389,18.811-24.808c5.964-6.161,12.839-11.442,20.111-15.965
		c6.554-0.703,13.165-0.916,19.757-0.901c3.485,6.61,6.907,13.875,7.818,21.385c0.628,5.167-1.41,10.332-2.749,15.244
		c-1.98,7.271-4.188,14.723-4.685,22.278c-0.227,3.463-0.227,7.494,1.109,10.762c0.767,1.876,1.582,3.302,3.019,1.524
		c0.784,2.544,2.411,4.384,3.999,6.519c1.092,1.461,2.05,3.012,2.223,4.888c0.323,3.529,1.121,7.116,2.515,10.369
		c0.973,2.268,4.868,9.438,8.294,7.553c1.927-1.06,3.395-6.087,3.854-7.998c0.74-3.101,1.279-7.945,1.778-8.667
		c4.425-6.399,5.822-10.585,6.365-16.366c0.871,0.388,2.424,1.604,3.157,0.285c0.457-0.82,0.363-2.188,0.408-3.108
		c0.14-2.915-0.267-5.804-1.114-8.594c-1.408-4.643-4.171-8.58-5.986-13.033c-1.575-3.871-2.268-8.004-1.747-12.167
		c0.55-4.393,2.246-8.565,4.106-12.549c1.789-3.828,3.776-7.456,6.189-10.924c5.639-8.102,11.521-13.54,17.91-21.045
		c3.113-0.223,11.772-0.357,16.776,2.554c6.682,3.89,8.68,10.224,11.22,16.998c5.735,15.293,12.897,30.757,17.861,46.327
		c2.123,6.659,4.273,15.634,11.926,17.983c8.553,2.622,14.415-7.891,18.619-13.454c3.95-0.665,7.918,0.179,11.556,1.743
		c3.021,1.301,5.686,2.987,9.112,2.25c7.074-1.521,9.524-10.179,10.182-16.356c0.731-6.876-0.241-13.587-4.665-19.084
		C605.844,472.84,603.451,470.206,600.673,468.692z M524.932,397.113c-1.566,5.934-3.48,11.844-6.408,17.259
		c-3.055,5.661-7.174,10.66-11.857,15.047c-4.059-5.224-7.595-10.831-11.746-15.988c-2.15-2.67-4.44-5.23-6.933-7.585
		c-2.627-2.483-6.027-4.486-7.731-7.779c-2.867-5.541,1.125-11.626,4.253-16.08c3.943-5.617,8.408-10.861,11.931-16.768
		l-0.762-0.452l0.766,0.452c2.15-3.627,5.485-10.318,10.672-9.635c6.688,0.882,13.824,6.362,20.154,1.234
		C529.448,370.273,528.403,383.966,524.932,397.113z M596.495,277.621c3.823,1.337,7.822,2.252,11.55,3.858
		c1.992,0.858,4.993,2.54,2.876,4.913c-2.807,3.146-7.629,4.917-11.608,5.895c-4.991,1.226-10.008,1.741-15.143,1.614
		c4.362,0.998,8.823,0.809,13.198-0.036c-5.024,4.137-13.002,6.052-19.405,5.106c-0.746-2.29-1.519-4.539-1.495-6.98
		c0.031-2.685,0.88-5.272,2.065-7.655c2.079-4.184,4.667-7.015,7.793-10.426C588.84,275.224,592.924,276.375,596.495,277.621z
		 M544.003,273.81c-0.267-0.369-0.592-0.557-0.96-0.594C543.411,273.253,543.736,273.439,544.003,273.81z M458.618,234.248
		c6.18,7.828,13.073,15.43,20.506,22.082c3.288,2.942,6.791,5.746,10.678,7.866c4.926,2.688,10.28,4.453,15.375,6.758
		c1.27,0.498,2.535,0.981,3.799,1.454c-1.426,3.756-3.542,7.322-6.76,9.804c-2.95,2.274-6.563,3.454-10.204,4.027
		c-5.015,0.79-10.15,0.619-15.201,0.383c-5.36-0.25-10.732-0.532-16.081-0.949c-6.229-0.487-18.102-0.681-19.41-8.766
		c-0.722-4.477,0.976-9.452,2.756-13.498c1.916-4.359,4.884-7.959,7.394-11.957c2.275-3.623,3.095-7.358,3.193-11.583
		c0.058-2.503,0.14-5.866,2.455-7.435C457.615,233.037,458.116,233.641,458.618,234.248z M470.533,116.338
		c1.852-2.031,5.209,4.074,5.951,5.438c1.13,2.082,1.912,4.351,2.518,6.635c1.531,5.787,1.945,11.993,0.945,17.906
		c-1.06,6.266-3.939,12.257-9.072,16.173c-7.06,5.387-16.576,5.586-25.039,4.593c-3.723-0.437-7.413-1.163-11.031-2.138
		c-0.579-4.402-1.829-8.644-3.903-12.581c8.622-4.381,16.701-9.641,23.767-16.269c3.364-3.155,6.546-6.516,9.484-10.071
		C466.48,123.203,469.437,119.915,470.533,116.338z M461.855,123.91c1.09-0.779,2.892-1.844,3.008-3.316
		c0.011-0.459-0.303-0.858-0.626-1.043c1.011-0.691,2.223-1.755,3.473-1.962c-0.062,1.117-1.096,2.377-1.689,3.253
		c-1.399,2.059-2.994,3.987-4.661,5.834c-3.977,4.415-8.384,8.464-12.998,12.205c-9.373,7.6-32.655,19.31-32.655,19.31
		s8.967-2.074,12.247-3.632c3.387,6.185,4.451,12.981,4.806,19.946c0.39,7.67,0.695,10.88,0.036,18.531l-0.221,6.554
		c1.664-6.332,2.662-12.307,3.037-17.687c2.203,5.868,4.231,13.244,5.033,21.751c-2.29,1.231-6.091,3.045-8.366,0.841
		c-2.01-2.009-1.816-5.776-2.449-8.367c-0.922-3.776-3.088-11.001-7.985-11.253c-2.64,0.015-4.037,2.848-4.863,4.948
		c-1.232,3.115-1.7,6.471-1.555,9.807c0.305,6.942,3.346,12.701,5.77,19.033c2.433,6.353,1.493,12.528,0.559,19.073
		c-0.88,6.181-1.896,12.495-1.9,18.75c0.002,1.096,0.047,2.133,0.151,3.083c-4.783,4.575-10.215,8.559-16.199,11.419
		c7.076-7.629,12.871-16.54,15.533-26.685c2.769-10.561,1.653-21.653-1.981-31.862c-3.034-10.077-11.536-17.988-19.285-24.626
		c-0.127-1.706-0.635-4.502-1.299-7.406c-0.151-1.23-0.318-2.422-0.524-3.501c1.032,1.128,2.032,2.303,3.008,3.521
		c-0.844-1.672-1.972-3.006-3.213-4.393c-0.323-1.34-0.84-2.513-1.482-3.548c-0.379-1.045-0.764-1.899-1.161-2.454
		c2.87-8.905,3.725-19.209-0.107-27.984c2.001,1.093,6.842,0.527,6.842,0.527c-1.588,0-3.845-1.088-4.997-2.084
		c2.785,0.185,7.613-3.09,7.078-3.472c-0.327-0.208-6.418,3.245-9.203,1.017c2.29-0.256,7.804-5.231,7.804-5.231l-1.961,1.115
		c-0.777,0.779-2.598,1.522-3.64,1.745c-3.309,0.71-3.707-0.391-5.084-0.957c2.477-0.25,5.311-2.664,6.403-3.674
		c-0.755,0.463-2.161,1.009-2.402,1.105c-1.589,0.632-3.268,0.739-4.959,0.804c-1.856,0.072-3.723,0.056-5.574-0.109
		c-1.45-0.127-2.812-0.425-4.273-0.17c-3.079,0.226-6.162,1.466-8.967,3.814c-1.196-1.643-2.774-2.96-4.585-3.822
		c-0.766-0.364-4.812-1.396-5.978-1.515c2.923-0.39,5.837-0.01,8.765-0.107c5.258,0.555,10.456,0.071,15.669-0.666
		c3.912-1.091,1.493-5.419,0.354-7.76c-1.479-3.029-3.558-6.801-0.973-9.889c4.676,0.693,9.204,2.312,12.958,5.239
		c3.536,2.762,6.189,6.462,8.424,10.315c2.585,4.409,4.164,9.326,4.177,14.462c-0.024,2.79-0.443,5.536-1.058,8.253
		c-0.249,1.11-2.353,6.349,0.031,6.298c1.762,0,3.473-2.092,4.472-3.303c1.691-2.053,3.028-4.371,4.099-6.799
		c2.237-5.069,3.364-10.773,3.531-16.301c1.052-0.002,2.103-0.008,3.155-0.017c7.889,1.29,16.224,1.368,24.066-0.298
		c3.333-0.709,6.668-1.77,9.591-3.549C458.685,126.024,460.304,125.016,461.855,123.91z M357.713,147.803
		c-0.178,0.14-0.386,0.24-0.626,0.24c-0.584,0-1.056-0.498-1.056-1.111c0-0.344,0.158-0.639,0.39-0.842
		c-4.701-3.412-9.204,4.404-6.379,8.282c-1.388,0.008-2.765,0.073-4.137,0.17c-1.747-5.018,1.49-11.241,6.964-11.916
		c2.575-0.317,4.701,1.378,5.43,3.775c0.822,2.856-0.131,5.938-1.831,8.279c-0.283-0.029-0.564-0.044-0.847-0.069
		c1.016-0.874,1.845-2.151,2.232-3.617C358.163,149.819,358.074,148.723,357.713,147.803z M360.562,156.153
		c8.838,1.774,17.209,5.637,24.53,10.849c-2.097-0.199-4.251,0.022-6.263,0.645c-11.38-11.606-28.248-11.764-43.266-9.231
		C343.349,154.437,352.154,154.625,360.562,156.153z M385.981,153.882c-0.156,0.094-0.323,0.159-0.51,0.159
		c-0.615,0-1.11-0.571-1.11-1.278c0-0.349,0.123-0.665,0.319-0.895c-0.082,0.019-0.165,0.034-0.243,0.071
		c-5.222-3.611-9.792,4.084-8.065,8.589c-1.555-0.791-3.148-1.5-4.766-2.158c-0.011-5.537,6.022-13.121,12.142-9.818
		c5.962,3.217,2.994,12.27-0.88,15.821c-0.488-0.33-0.974-0.665-1.462-0.977c2.197-0.603,4.233-2.885,4.879-5.729
		C386.607,156.259,386.453,154.959,385.981,153.882z M383.274,164.645c4.2-4.077,6.786-13.263,0.599-16.887
		c-6.907-4.045-13.414,3.634-13.484,10.131c-4.349-1.613-8.907-2.68-13.521-3.176c1.704-2.51,2.569-5.533,1.834-8.529
		c-0.735-2.983-3.605-4.781-6.59-4.535c-6.033,0.497-8.985,7.765-7.154,12.968c-2.974,0.256-5.984,0.757-8.593,2.299
		c0.454-1.641,1.002-3.235,1.637-4.814c2.674-6.619,7.083-13.004,13.37-16.627c6.078-3.501,14.152-4.033,18.175,2.642
		c-4.295,4.253-6.746,10.136-8.386,15.855c2.807-7.774,7.791-17.451,16.502-19.708c0.608-0.131,1.219-0.231,1.834-0.277
		c0.339-0.058,0.668-0.078,1.005-0.09c1.794,0.146,4.153,0.639,6.486,2.037c4.282,3.159,6.096,8.806,6.775,13.862
		c0.884,6.596-0.033,13.312-2.038,19.623c-1.446-1.055-3.119-1.761-4.892-2.143C385.673,166.355,384.492,165.486,383.274,164.645z
		 M419.596,129.457c0.145,0.033,0.287,0.063,0.432,0.096c-0.138,0-0.294,0.002-0.43,0.002
		C419.598,129.522,419.596,129.489,419.596,129.457z M433.801,93.378c1.319-5.917-1.738-10.765-5.761-14.782
		c-0.833-0.832-2.732-2.157-2.839-3.455c-0.209-2.544,6.526-0.556,7.33-0.266c1.606,0.307,3.344,1.424,4.75,2.24
		c1.814,1.058,3.54,2.298,5.08,3.728c3.349,3.11,4.83,6.799,5.661,11.224c1.702,9.054-0.116,18.314-5.576,25.799
		c-0.299,0.4-0.599,0.799-0.913,1.195c-3.62-0.662-7.245-1.831-10.255-4.008c-3.028-2.191-5.895-4.606-8.825-6.925
		C427.318,105.314,432.088,101.32,433.801,93.378z M332.713,113.933c-1.555-1.719-2.865-3.514-3.977-5.36
		c-2.092-2.732-3.262-6.839-3.912-10.143c-0.829-4.13-0.793-8.43-0.087-12.574c0.624-3.706,1.564-7.471,3.966-10.449
		c2.558-3.172,6.136-5.651,9.905-7.159c1.482-0.568,4.511-1.678,5.902-0.273c0.548,0.555-0.08,1.356-0.448,1.812
		c-1.97,2.441-4.309,4.436-5.784,7.266c-2.295,4.398-1.842,9.466,0.063,13.939c1.838,4.319,5.256,7.33,9.175,9.742
		c-5.918,3.368-10.609,8.127-13.951,14.056C333.281,114.527,332.996,114.248,332.713,113.933z M333.845,116.204
		c0.575-1.051,1.172-2.094,1.847-3.089c4.124-6.159,10.053-10.536,16.772-13.528c6.532-2.907,13.737-4.96,20.905-5.316
		c-1.408,1.401-2.631,2.993-3.707,4.661c2.101-2.6,4.632-5.055,7.724-6.428c3.462-1.538,7.773-1.633,11.434-0.831
		c3.534,0.774,6.851,2.506,9.741,4.66c3.21,2.383,6.697,4.411,9.658,7.118c-1.981-2.325-4.093-4.501-6.336-6.414
		c9.556,3.637,18.091,10.545,26.127,16.7c3.787,2.902,7.247,5.248,12.002,6.305c4.997,1.111,10.137,1.154,15.228,1.112
		c0.584-0.005,6.987-0.336,5.797,1.114c-0.744,0.903-1.983,1.497-2.976,2.059c-2.072,1.171-4.18,2.315-6.443,3.071
		c-9.861,3.294-21.88,3.277-31.911,0.778c-0.044-0.012-0.089-0.025-0.136-0.037c-0.31-6.971-2.87-13.436-6.94-19.056
		c2.616,5.296,4.585,11.39,5.376,17.248c0.668,1.759,0.354,4.583,0.25,6.428c-0.183,2.999-0.695,6.035-1.522,8.922
		c-0.769,2.691-1.845,5.283-3.186,7.739c-1.125,2.052-2.531,4.654-4.505,6.038c-1.326,0.93,0.394-2.876,0.504-3.204
		c1.041-3.111,1.622-6.366,1.573-9.653c-0.091-6.022-2.036-12.384-5.245-17.489c-6.548-10.641-20.385-16.233-32.508-15.658
		c1.328-0.676,2.7-1.271,4.037-1.938l-0.249-0.046c-3.81,1.127-8.359,2.904-10.418,6.568c-1.999,3.555-0.085,7.091,0.158,10.755
		c0.076,1.122-1.885-1.468-2.061-1.691c-1.27-1.588-2.555-3.206-3.395-5.073c-1.589-3.537-1.909-7.226-2.021-11.054
		c-0.285,1.645-0.497,3.322-0.464,4.994c0.016,0.673,0.377,1.45-0.243,1.848c-0.74,0.476-1.524,0.883-2.273,1.344
		c-3.041,1.87-4.518,3.222-7.517,5.554c-1.555,1.666-3.556,2.989-4.683,4.086c-1.23,1.198-2.437,2.414-3.562,3.712
		c-2.295,2.636-4.315,5.504-6.194,8.447c-1.836,2.88-3.527,5.847-5.189,8.83c-0.657,1.175-1.303,2.356-1.983,3.517
		c-0.434,0.742-1.06,2.203-1.869,2.568c-0.662,0.297-0.412-2.033-0.383-2.346c0.158-1.782,0.457-3.552,0.74-5.319
		c0.537-3.373,1.125-6.739,1.849-10.077C328.992,127.953,330.786,121.771,333.845,116.204z M308.179,103.914
		c0.677-0.741,2.838,1.018,3.355,1.395c8.486,6.137,12.846,9.814,20.88,11.641c-1.686,3.403-2.988,6.996-4.024,10.648
		c-5.516-4.596-10.759-9.617-15.321-15.171c-1.628-1.982-3.284-4.06-4.44-6.363C308.384,105.574,307.72,104.416,308.179,103.914z
		 M309.413,150.346c-10.28-5.016-14.208-16.153-13.539-27.011c0.276-4.49,1.212-9.054,3.05-13.177
		c0.769-1.725,1.738-3.256,2.959-4.7c0.622-0.738,1.62-2.116,2.725-2.123c0.994-0.007,3.126,3.373,3.56,4.066
		c2.188,3.477,4.895,6.682,7.593,9.733c3.77,4.261,7.838,8.289,12.258,11.874c-1.179,4.453-2.023,8.99-2.694,13.544
		c-0.163,1.107-2.05,10.098-0.483,10.587c1.297,0.405,4.34-5.986,4.886-6.922c2.192-3.752,4.433-7.481,6.978-11.007
		c-1.716,6.083-2.526,12.178-5.594,17.808C323.03,153.721,315.035,153.068,309.413,150.346z M332.259,154.344
		c4.22-7.538,4.668-16.246,8.33-24.016c1.99-2.23,4.155-4.332,6.412-6.306c0.606-0.529,3.756-3.098,4.625-3.749
		c2.513-1.881,5.151-3.598,7.911-5.095c0.771,2.461,1.912,4.614,3.489,6.65c0.829,1.072,1.702,2.108,2.567,3.149
		c0.143,0.174,1.548,2.055,1.751,1.252c0.223-0.88-0.138-2.048-0.265-2.917c-0.216-1.47-0.408-2.948-0.432-4.433
		c-0.047-2.671,0.662-4.98,2.691-6.816c5.129-0.573,9.478-0.573,13.243-0.129c-2.141,2.614-1.713,6.073-0.337,8.924
		c0.615,1.271,1.261,2.526,1.851,3.808c0.441,0.962,1.299,2.471,0.949,3.582c-0.116,0.319-0.321,0.57-1.045,0.81
		c-5.104,0.722-10.191,1.198-15.337,0.648c-4.639,0.09-6.078-0.549-11.298,1.229l-2.152,0.58c-2.732-0.386-5.454-1.075-7.461-3.067
		c1.591,2.668,3.823,2.902,6.525,3.733c-3.279,1.366-6.051,0.639-8.765-1.443c0.771,2.154,3.819,2.734,5.753,3.097
		c-1.154,0.99-3.233,0.853-4.621,0.633c-0.548-0.087-3.705-0.824-3.903-1.399c0.664,1.934,4.703,2.129,6.272,2.02
		c-1.831,1.385-3.979,1.835-6.229,1.959c1.805,0.511,3.752-0.043,5.503-0.551c-6.63,5.066-10.614,13.081-12.786,20.974
		c-0.504,0.36-0.963,0.752-1.399,1.191c-1.725,0.311-3.509,0.665-5.363,1.076C330.015,158.034,331.198,156.237,332.259,154.344z
		 M293.555,161.793c0.947-5.234,4.788-8.872,10.175-9.063c7.114-0.254,13.171,4.363,18.436,8.608
		c-3.917,1.036-7.818,2.165-11.654,3.458c-2.348-2.695-6.387-5.875-10.144-6.022c-1.152-0.046-2.337,0.325-3.032,1.294
		c-0.524,0.733-0.655,1.665-0.604,2.545c0.036,0.588,0.174,2.436,0.679,2.804c-0.628-0.456-0.258-3.387-0.1-3.986
		c0.706-2.641,3.569-2.303,5.603-1.513c-4.821-0.492-2.13,6.348-0.958,8.307c-2.587,1.231-5.224,2.674-7.82,4.369
		C293.473,168.359,293.105,164.29,293.555,161.793z M311.049,287.615c-7.259-1.644-19.465-4.987-20.214-14.092
		c16.554,5.902,35.643,4.482,52.495,0.629c9.019-2.061,17.728-5.292,26.187-9.015c8.139-3.581,16.126-7.712,23.427-12.812
		c-6.303,3.13-12.78,5.932-19.118,9.005c-6.728,3.265-13.653,6.099-20.851,8.151c-12.563,4.538-26.579,5.891-39.851,5.069
		c0,0-1.395-0.034-1.707-0.066c-2.061-0.207-4.124-0.442-6.176-0.752c-4.817-0.726-9.576-1.839-14.132-3.58
		c-7.27-2.763-15.878-7.733-19.167-15.188c-1.914-4.337-0.867-9.103,2.829-12.106c4.418,7.626,11.113,14.102,18.757,18.448
		c-0.35-0.296-0.691-0.599-1.036-0.901c-1.76-1.175-3.329-3.06-4.819-4.562c-2.003-2.017-3.928-4.117-5.688-6.348
		c-3.072-3.887-5.603-8.184-7.181-12.894c-2.729-8.16-2.475-16.96-1.337-25.383c1.299-9.63,4.037-18.541,10.144-26.251
		c5.737-7.245,13.506-12.782,21.889-16.569c1.727-0.779,3.482-1.49,5.267-2.119c7.586-2.672,15.596-4.595,23.514-5.979
		c8.395-1.467,17.086-2.242,25.545-0.859c2.375,0.404,4.71,0.988,6.978,1.805c4.082,1.488,7.807,3.764,10.946,6.772
		c-5.57,2.191-10.56,6.386-13.575,11.583c2.364-3.247,5.458-6.062,8.994-7.976c4.576-2.476,11.039-4.043,15.858-1.345
		c5.011,2.806,5.57,9.263,6.352,14.356c0.974,6.325,1.662,12.697,2.277,19.067c0.08-4.208,0.74-9.462,0.59-13.668
		c7.693,6.806,14.923,13.385,17.997,23.33c2.923,9.458,4.55,23.144,1.332,32.66c-1.74,7.329-6.022,13.022-10.665,18.886
		c-1.02,1.937-9.729,9.97-11.657,11.746c-4.159,3.835-8.453,7.806-13.617,10.236c-5.294,2.494-11.162,3.429-16.986,3.168
		c-2.622-0.116-5.231-0.463-7.802-0.989c-2.44-0.498-5.276-0.947-7.462-2.192c9.257-3.197,18.737-7.559,26.267-13.891
		c-8.934,4.989-18.367,9.227-28.179,12.169C335.716,288.695,323.146,290.354,311.049,287.615z M222.413,336.784
		c-2.713-1.329-4.331-2.689-5.307-3.894c4.344,1.192,8.807,1.553,13.261,0.831c-5.917-0.203-11.933-1.101-17.333-3.638
		c-2.061-0.967-9.458-4.959-6.909-8.171c0.971-1.225,2.702-1.825,4.124-2.312c2.375-0.812,4.835-1.361,7.272-1.928
		c5.824-1.352,11.469-3.008,17.019-5.249c2.137,3.922,4.16,7.835,4.761,12.331c0.753,5.641-1.377,9.968-4.371,14.551
		C231.69,339.584,227.359,339.207,222.413,336.784z M385.165,525.631c-0.704,1.319-1.346,2.411-1.927,3.257
		c0.441-2.281,0.555-4.616,0.657-6.933c-0.606,3.877-0.907,7.713-2.54,11.331c-0.76,1.68-3.077,8.444-5.906,6.064
		c-1.297-1.087-2.083-2.839-2.805-4.327c-1.141-2.348-1.889-4.465-2.727-6.933c-1.366-4.026-1.76-8.863-1.999-13.109
		c6.029-7.117,13.753-1.48,19.61,2.887C387.293,519.923,386.689,522.781,385.165,525.631z M404.025,469.545
		c-3.765,4.513-5.764,7.535-8.999,12.443c-2.244,3.403-4.781,8.501-6.586,12.154c0.392-0.603,0.789-1.203,1.185-1.803
		c-0.096,6.974,1.825,13.83,1.584,20.815c-0.042,1.215,0.073,3.119-0.586,4.193c-0.651,1.047-2.308-0.067-3.001-0.481
		c-2.963-1.774-5.748-3.899-8.987-5.18l-0.357-0.127c-4.558-1.648-8.916-0.011-11.821,3.714c-1.758,2.208-1.711-1.369-1.649-2.508
		c0.541-9.795,3.255-19.532,8.876-27.628c0.726,1.567,1.459,3.112,2.194,4.598c-0.479-1.814-1.016-3.61-1.609-5.391
		c-0.78-2.31-1.669-4.584-2.645-6.82c-1.647-3.767-3.431-7.423-4.79-11.314c3.759,1.47,7.481,2.5,11.503,2.946
		c-0.437-0.148-0.822-0.286-1.192-0.416c-3.749-1.153-7.403-2.788-10.952-4.446c-5.184-2.419-10.184-5.199-14.965-8.347
		c1.337-4.324,2.796-8.662,4.855-12.705c10.609,3.045,22.277,4.767,32.706,0.32c0.702,5.863,1.849,12.17,5.815,16.77
		c3.616,4.193,9.466,7.201,14.838,4.329C408.013,466.16,405.462,467.823,404.025,469.545z M409.329,463.442
		c-3.456,2.041-7.639,1.422-10.866-0.742c-6.165-4.137-7.885-11.313-8.954-18.206c-0.16-1.043-0.308-2.089-0.432-3.137
		c-0.245-2.002-0.434-4.009-0.582-6.019c-0.245-3.292-0.347-6.209-0.394-8.227c-0.158,5.123,0.016,10.283,0.566,15.378
		c-10.295,4.566-21.66,2.974-32.211,0.04c0.987-1.838,2.143-3.585,3.516-5.158c0.927-1.06,3.115-2.396,3.21-3.912
		c-3.513,2.432-6.352,5.589-8.303,9.401c-1.586,3.112-2.651,6.462-3.712,9.781c-1.103,3.449-2.116,6.995-4.703,9.667
		c-4.001,4.134-10.135,3.844-13.303-1.103c-3.099-4.83-2.306-10.958,0.543-15.706c2.491-3.566,5.398-6.937,9.674-8.377
		c5.265-1.821,8.377-6.454,11.817-10.508c-1.947,1.232-3.364,3.091-4.931,4.746c-2.023,2.14-4.353,3.865-7.089,4.993
		c-9.391-6.366-15.722-15.129-18.777-26.069c-2.444-8.75-3.059-18.389,1.388-26.618c4.879,7.624,12.24,14.421,21.081,17.056
		c-0.236-0.116-0.477-0.237-0.74-0.371c-3.603-1.421-7.163-4.122-10.128-6.57c-3.865-3.181-6.971-7.001-9.547-11.281
		c-3.549-5.891-11.654-22.634-0.31-25.29c8.756-2.12,13.875,5.405,16.805,12.568c3.467,8.471,4.685,17.753,9.774,25.54
		c-1.486-2.518-2.406-5.421-3.302-8.183c-1.974-6.101-3.317-12.378-5.837-18.298c9.449-5.263,20.911-9.009,31.514-4.934
		c10.206,3.924,18.884,11.564,25.278,20.321c-3.126,2.038-6.263,3.862-8.613,5.173c5.971-2.287,11.318-5.516,16.146-9.693
		c4.202-3.636,9.977-6.316,15.634-5.168c3.019-0.102,6.354,3.135,7.891,5.378c1.778,2.6,2.854,5.688,2.948,8.844
		c0.154,5.333-2.656,10.5-7.495,12.89c-2.849,1.409-5.886,1.461-8.999,1.572c-3.302,0.118-6.615,0.19-9.912-0.062
		c-6.835-0.527-13.69-2.193-20.316-3.902c2.506,1.446,5.532,2.161,8.294,2.901c4.645,1.243,9.268,2.364,14.094,2.536
		c1.586,5.129,2.622,10.633,1.063,15.9c-1.767,5.957-6.61,10.694-11.207,14.633c-1.288-1.189-2.444-2.259-3.368-3.136
		c2.633,3.79,6.169,6.828,9.562,9.909c3.643,3.297,7.071,6.617,7.499,11.802C413.896,457.487,412.651,461.479,409.329,463.442z
		 M413.224,460.916c1.054-1.858,1.675-4.179,1.575-6.628c3.023-1.206,6.53-2.246,10.607-2.93
		C422.017,453.55,417.769,456.677,413.224,460.916z M477.963,528.83c-0.9,1.867-1.751,3.173-2.444,4.082
		c0.294-1.867,0.53-3.81,0.684-5.761c-0.695,4.875-1.72,9.727-2.896,14.508c-0.606,2.455-2.056,9.059-5.855,6.675
		c-5.1-3.195-6.844-11.068-7.08-16.687c0.637,0.905,1.288,1.8,1.956,2.682c0.225,0.303-1.729-3.453-2.585-4.63
		c-2.012-3.208-4.229-5.877-5.474-9.544c2.286-3.353,4.585-6.839,8.76-7.954c6.158-1.643,12.773,2.54,18.167,4.964
		C480.792,520.302,479.581,525.457,477.963,528.83z M503.216,434.914c-6.666,7.859-14.023,15.57-19.182,24.55
		c-2.58,4.488-4.919,9.322-6.751,14.164c-1.597,4.219-2.64,8.728-2.047,13.253c1.118,8.542,8.29,14.746,9.631,23.307
		c0.296,1.887,0.194,3.739,0.009,5.627c-0.122,1.252-0.392,2.032-1.744,1.393c-1.874-0.884-3.609-2.079-5.456-3.02
		c-6.011-3.067-13.893-6.166-19.662-0.985c-1.8,1.619-2.838,4.455-4.819,5.754c-1.764,1.158-2.451-1.693-2.667-2.87
		c-2.564-13.862,4.799-27.206,7.296-40.495c0.196,0.639,2.816,8.97,3.075,8.858c0.566-0.244-1.791-8.997-2.041-10.123
		c-0.485-2.179-0.851-4.54-1.646-6.635c-1.756-6.913-5.084-13.469-8.408-19.737c-3.346-6.342-8.807-11.327-14.254-15.871
		c-0.624-0.522-1.219-1.008-1.791-1.471c2.032,1.926,6.051,6.232,6.555,6.774c3.217,3.471,6.35,7.138,8.713,11.256
		c-11.164-0.788-23.068-0.381-33.321,4.605c-0.472-3.816-2.658-6.573-5.329-9.16c-2.834-2.742-5.735-5.413-8.629-8.086
		c4.692-3.999,9.658-8.833,11.514-14.876c1.667-5.427,0.61-11.113-1.027-16.409c6.608,0.096,14.72,0.383,19.924-4.36
		c4.717-4.297,5.784-11.17,3.589-17.008c-2.304-6.131-7.624-10.77-14.415-10.341c-7.787,0.491-12.993,6.58-19.089,10.64
		c-6.521-8.884-15.344-16.631-25.717-20.621c-10.857-4.173-22.596-0.32-32.267,5.08c-3.324-7.496-9.322-15.081-18.4-11.941
		c-4.558,1.594-5.744,6.42-5.387,10.772c0.463,5.667,2.894,11.171,5.842,15.963c-4.652,8.325-4.12,18.111-1.698,27.047
		c3.01,11.106,9.295,20.16,18.732,26.717c-3.168,1.163-5.888,2.935-8.125,5.486c-5.091-5.084-9.64-10.74-13.281-16.955
		c-3.93-6.71-6.459-14.021-8.515-21.493c-3.995-14.499-5.942-29.533-6.599-44.538c3.019,2.891,4.795,4.781,4.795,4.781
		c-6.04-9.069-14.789-16.744-23.716-22.86c-10.057-6.891-21.916-12.325-34.375-11.688c3.995,0.184,7.976,0.913,11.815,2.023
		c-7.862,0.115-15.248,5.823-21.742,9.618c-2.266,1.325-4.685,2.869-7.252,3.549c-0.615,0.164-1.248,0.234-1.822-0.115
		c-1.177-0.718,0.688-2.786,1.136-3.401c2.359-3.24,5.098-6.651,5.835-10.695c0.764-4.175-0.394-8.491-2.052-12.309
		c-0.713-1.642-1.56-3.208-2.446-4.758c-0.415-0.724-1.943-2.708-1.328-3.601c0.521-0.763,2.406-0.664,3.186-0.771
		c1.595-0.226,3.302,0.107,4.835,0.549c3.413,1,6.599,2.775,9.507,4.793c1.731,1.202,3.284,2.699,5.133,3.72
		c1.923,1.061,4.066,1.677,6.225,2.031c2.903,0.319,5.601,0.289,8.502-0.056c-0.666,1.154-1.37,2.291-2.116,3.399
		c0.212,0.526,1.715-1.537,3.239-4.084c1.359-2.278,2.359-5.194,2.97-6.221c0.711-1.193,1.657-1.132,2.468-0.482
		c1.014,0.511,1.791,1.598,2.671,2.307c1.19,0.954,2.865,2.478,4.137,3.313c-0.054-0.051-0.535-0.785-0.593-0.842
		c16.516-4.787,31.046-14.274,43.396-26.082c5.61-0.341,11.906-1.434,18.788-3.607c1.482,1.313,3.458,1.768,5.318,2.26
		c2.33,0.615,4.69,1.123,7.078,1.468c5.011,0.723,10.166,0.738,15.123-0.369c9.716-2.172,19.361-9.907,26.37-16.57
		c16.888-8.665,28.11-17.104,36.206-31.611c-4.712,5.958-10.333,11.14-15.791,16.393c-0.624-6.129,0.619-12.404,1.392-18.467
		c0.787-6.189,2.264-12.426,0.909-18.646c-0.722-3.314-2.257-6.259-3.565-9.357c-1.372-3.245-2.469-6.631-3.001-10.12
		c-0.497-3.275-0.468-6.648,0.354-9.869c0.504-1.97,1.716-6.608,4.429-6.581c2.633-0.217,4.556,4.161,5.34,6.021
		c0.949,2.25,1.577,4.633,1.952,7.044c0.341,2.194,0.582,4.494,2.201,6.171c2.83,2.696,7.1,0.915,10.021-0.663
		c0.702,4.827,2.045,9.536,2.758,14.36c0.096-1.346,0.165-2.682,0.189-4.007c3.678,4.527,7.927,9.912,12.454,15.453
		c-3.166,1.663-3.781,5.445-3.877,8.699c-0.069,2.382-0.122,4.657-0.867,6.949c-0.74,2.29-2.023,4.32-3.395,6.278
		c-2.731,3.906-5.349,7.777-7.027,12.275c-1.571,4.223-3.161,9.526-1.657,13.987c2.647,7.867,14.016,8.161,20.802,8.68
		c5.32,0.407,10.658,0.693,15.99,0.941c5.169,0.24,10.425,0.407,15.555-0.403c9.048-1.427,15.834-6.987,18.661-15.806
		c7.963,2.92,15.076,5.132,20.611,6.334c-0.363,0.197-1.094,0.849-1.277,0.944c1.651-0.362,11.886-8.331,13.751-5.618
		c0.742,1.082,0.983,2.078,1.357,3.341c0.446,1.499,1.167,2.809,1.762,3.92c-0.165-0.491-0.33-0.982-0.492-1.475
		c2.016,0,4.033-0.078,6.038-0.271c2.239-0.216,4.431-0.795,6.653-1.025c3.885-0.934,6.996-2.948,10.545-4.676
		c3.164-1.541,6.494-2.884,9.952-3.585c1.281-0.321,2.651-0.446,3.97-0.368c0.942,0.055,2.847,0.157,3.6,0.832
		c0.969,0.872-4.119,5.502-4.781,6.265c-2.364,2.737-4.574,5.734-6.027,9.064c-1.693,3.874-1.58,7.469-0.238,11.42
		c0.443,1.307,3.362,6.173,1.02,6.804c-1.6,0.432-3.442-1.02-4.663-1.85c-6.049-4.107-11.262-10.063-18.548-12.031
		c3.097-0.49,5.726-0.645,7.749-0.664c-19.223-2.084-37.247,9.885-50.777,22.283c-3.725,3.418-6.508,6.44-8.433,8.709
		c1.257-1.187,4.465-4.144,8.981-7.829c7.8,12.649,13.546,26.475,16.012,41.173l-0.495,0.536c-3.442,3.722-8.065,2.907-12.463,1.583
		c-3.097-0.932-6.59-2.799-9.912-2.105c-3.05,0.637-5.227,3.36-6.942,5.76c-2.927,4.094-5.331,8.508-8.344,12.558
		c-2.796,3.762-5.779,7.41-8.275,11.387c-2.132,3.4-4.168,7.404-3.732,11.544c0.573,5.453,5.178,8.238,8.84,11.64
		c3.654,3.394,6.853,7.241,9.83,11.233c3.239,4.344,6.196,8.897,9.56,13.147c0.091,0.116,0.337,0.421,0.337,0.421
		C505.152,432.698,504.183,433.806,503.216,434.914z M575.453,513.542c-4.077,4.803-10.349,8.355-15.968,3.663
		c-3.028-2.528-4.801-6.336-5.971-10.022c-1.517-4.79-3.012-9.563-4.741-14.285c-3.819-10.414-7.945-20.71-11.966-31.046
		c-1.735-4.461-3.469-8.927-5.071-13.44c-1.528-4.316-4.055-8.008-7.961-10.487c-5.273-3.344-11.565-3.663-17.618-3.921
		c4.587-5.388,9.547-10.725,13.274-16.765c5.479,7.908,10.119,16.553,14.662,25.02c4.378,8.153,8.179,16.568,11.209,25.314
		c3.166,9.149,5.443,18.571,8.504,27.753c1.029,3.088,2.166,6.151,3.598,9.077c1.288,2.627,2.841,5.844,5.059,7.807
		c3.242,2.868,7.065,0.047,9.531-2.405c3.756-3.731,6.41-8.352,9.963-12.245c-1.546,2.742-1.584,6.127-1.234,9.204
		C579.155,508.911,577.487,511.249,575.453,513.542z M611.238,498.865c-0.746,3.725-2.324,7.749-5.608,9.949
		c-2.843,1.904-6.341,1.731-9.366,0.363c-4.899-2.213-9.166-3.914-14.627-2.715c-0.924-1.721-0.539-4.544,0-6.293
		c0.827-2.682,2.845-4.986,4.975-6.741c4.037-3.324,9.643-3.595,12.474-8.368c1.259-2.118,1.825-4.595,1.738-7.049
		c-0.089-2.471-1.203-4.484-1.671-6.831c-0.178-0.901,0.049-1.852,1.165-1.536c2.186,0.62,4.12,2.888,5.605,4.475
		c2.578,2.761,4.509,5.998,5.372,9.7C612.414,488.642,612.207,494.038,611.238,498.865z"/>
</g>
</svg>
