<?xml version="1.0" encoding="utf-8"?>
<!-- Generator: Adobe Illustrator 17.0.0, SVG Export Plug-In . SVG Version: 6.00 Build 0)  -->
<!DOCTYPE svg PUBLIC "-//W3C//DTD SVG 1.1//EN" "http://www.w3.org/Graphics/SVG/1.1/DTD/svg11.dtd">
<svg version="1.1" id="Layer_1" xmlns="http://www.w3.org/2000/svg" xmlns:xlink="http://www.w3.org/1999/xlink" x="0px" y="0px"
	 width="800px" height="600px" viewBox="0 0 800 600" enable-background="new 0 0 800 600" xml:space="preserve">
<g id="_x23_231f20ff">
	<path fill="#231F20" d="M475.529,128.17h6.629c11.119,0.155,22.299,1.033,33.117,3.736c10.37,2.571,20.497,6.667,29.139,13.035
		c7.237,5.283,13.161,12.371,16.97,20.489c3.504,7.38,5.029,15.562,5.377,23.686v4.198c-0.351,8.384-2.308,16.779-6.339,24.177
		c-4.391,8.094-10.648,15.074-17.771,20.86c-2.492,2.016-5.087,3.896-7.606,5.874c-8.586,6.512-18.728,10.654-29.092,13.377
		c-11.324,2.843-22.902,4.71-34.553,5.505c-12.064,0.787-24.289,0.524-36.142-2.021c-9.633-2.08-19.047-5.704-27.085-11.482
		c-8.279-5.886-15.127-13.664-20.307-22.375c-5.851-9.756-9.519-20.948-9.738-32.368c-0.252-10.464,2.65-20.869,7.655-30.016
		c2.779-5.037,6.254-9.656,10.025-13.989c6.24-7.884,14.954-13.872,24.695-16.478c5.66-1.504,11.435-2.51,17.233-3.3
		C450.266,129.419,462.883,128.319,475.529,128.17 M462.789,134.272c-10.733,0.524-21.425,1.72-32.038,3.396
		c-5.696,0.872-11.473,1.781-16.794,4.095c-5.081,2.156-9.665,5.391-13.541,9.311c-1.928,1.986-3.958,3.923-5.453,6.272
		c-4.566,6.678-8.205,14.074-10.045,21.983c-2.051,8.518-2.007,17.517,0.064,26.026c2.408,10.075,7.395,19.438,13.971,27.407
		c3.853,4.718,8.22,9.074,13.278,12.503c4.473,3.007,9.34,5.403,14.413,7.217c11.227,3.955,23.244,5.207,35.095,5.034
		c11.982-0.214,23.911-1.755,35.668-4.025c9.545-1.869,18.991-4.716,27.536-9.446c3.686-2.056,7.334-4.25,10.505-7.059
		c6.447-5.219,12.596-10.984,17.16-17.97c5.459-8.325,8.232-18.303,8.214-28.238c-0.003-10.461-2.776-21.077-8.785-29.724
		c-4.923-7.196-11.926-12.783-19.655-16.724c-9.89-5.046-20.802-7.828-31.777-9.218
		C488.064,133.602,475.388,133.728,462.789,134.272z"/>
	<path fill="#231F20" d="M370.733,240.738c2.121-1.334,4.953-1.591,7.167-0.331c2.571,1.419,3.993,4.23,4.631,6.997
		c0.649,2.914,0.696,6.143-0.711,8.852c-1.033,2.027-3.224,3.443-5.52,3.39c-2.41-0.053-4.596-1.296-6.5-2.674
		c-2.042-1.486-3.774-3.613-4.142-6.178c-0.415-2.399,0.43-4.958,2.267-6.573C368.08,242.619,369.484,241.554,370.733,240.738
		 M373.808,243.587c-1.308,0.424-2.484,1.176-3.689,1.822c-1.512,1.594-1.741,4.318-0.366,6.073
		c1.132,1.445,2.694,2.495,4.288,3.373c0.983,0.468,2.241,1.03,3.259,0.366c1.082-0.954,1.366-2.507,1.436-3.882
		c0.056-2.457-0.392-5.163-2.135-7.021C375.92,243.52,374.791,243.274,373.808,243.587z"/>
	<path fill="#231F20" d="M356.59,252.41c0.91-0.287,2.021-0.278,2.77,0.383c0.43,0.448,0.731,1.033,1.322,1.299
		c1.887,1.015,3.414,2.911,3.531,5.108c0.199,2.402-1.328,4.78-3.543,5.696c-2.027,0.895-4.561,0.43-6.117-1.156
		c-2.378-2.264-2.642-6.12-1.094-8.919C354.127,253.635,355.332,252.845,356.59,252.41 M356.312,257.584
		c-0.234,1.194-0.079,2.492,0.5,3.572c0.977,1.837,4.131,1.711,4.929-0.231c0.998-2.244-0.497-4.777-2.58-5.748
		C358.117,255.82,356.672,256.262,356.312,257.584z"/>
	<path fill="#231F20" d="M296.262,255.18c8.524-2.627,17.95-2.191,26.202,1.185c9.264,3.75,16.8,11.411,20.55,20.655
		c2.097,5.005,2.998,10.432,3.121,15.837c0.208,7.085-0.682,14.161-2.08,21.097c1.512,0.003,3.095,0.088,4.426,0.889
		c2.952,1.682,5.204,4.698,5.678,8.097c0.623,4.309-0.369,8.7-2.106,12.64c-2.293,5.327-6.26,9.993-11.359,12.813
		c5.397,2.252,9.77,6.36,13.407,10.85c3.63,4.502,6.825,9.355,9.566,14.448c2.027,3.66,3.619,7.533,5.339,11.341
		c4.233,9.361,5.76,19.602,8.123,29.525c1.805,7.205,3.387,14.553,6.599,21.299c1.89,3.967,4.525,7.688,8.135,10.262
		c3.458,2.486,7.705,3.832,11.964,3.812c4.932,0.038,9.724-1.337,14.621-1.711c1.884-0.146,3.853-0.003,5.564,0.872
		c0.992,0.579,2.492,0.407,3.001,1.647c1.463,3.189,1.559,6.831,1.153,10.262c-0.679,5.233-2.478,10.23-4.294,15.156
		c-1.062,2.759-2.042,5.59-3.674,8.077c-0.5,0.407-1.191,0.494-1.755,0.799c-2.96,1.468-6.699,1.67-9.61-0.015
		c-2.475-1.46-3.97-4.183-4.42-6.962c-0.541-3.44,0.058-6.98,1.34-10.192c-9.969,0.974-20.296-2.34-27.743-9.054
		c-1.349-1.188-2.484-2.586-3.738-3.861c-2.337-2.068-4.122-4.657-6.243-6.93c-2.46-2.773-5.476-5.04-8.808-6.652
		c-0.635-0.272-1.498-0.644-2.097-0.105c-0.641,0.597-0.14,1.504-0.082,2.238c0.761,3.7,0.559,7.957-1.942,10.99
		c-0.872,1.056-2.112,2.308-3.621,1.896c-1.319-0.333-1.846-1.729-2.229-2.881c-0.687,1.471-1.521,2.984-2.89,3.926
		c-0.72,0.532-1.641,0.357-2.46,0.243c-1.088,2.653-0.965,5.59-0.611,8.381c0.72,5.552,2.577,10.862,4.192,16.2
		c0.386,1.357,1.202,2.516,1.872,3.738c0.515,1.202-0.588,2.144-1.322,2.928c-1.305,1.556-3.197,2.437-5.09,3.048
		c-3.598,1.147-7.36,1.729-11.131,1.863h-3.964c-3.063-0.176-6.152-0.401-9.127-1.208c-1.173-0.298-2.305-0.86-3.543-0.772
		c-1.068,0.018-2.144-0.527-2.665-1.469c-1.389-2.346-1.67-5.242-1.074-7.869c1.071-4.019,3.835-7.582,7.497-9.56
		c2.773-1.483,6.049-1.594,9.095-1.085c-2.735-4.189-3.642-9.209-4.464-14.056c-0.799-4.552-1.316-9.218-0.646-13.822
		c-1.115,0.936-2.53,1.381-3.981,1.237c0.644,3.423,1.155,6.936,0.731,10.417c-0.231,1.586-0.743,3.358-2.182,4.262
		c-1.536,0.916-3.569,0.588-4.879-0.576c-0.562,0.831-1.272,1.755-2.375,1.79c-1.492,0.12-2.612-1.036-3.461-2.109
		c-1.425,1.945-4.637,1.679-5.927-0.278c-1.916-2.712-2.247-6.143-2.609-9.349c-0.559-4.976,0.57-9.911,0.793-14.863
		c-0.468-3.709-0.383-7.454-0.076-11.169c0.568-6.816,1.126-13.652,0.831-20.495c-0.076-1.957-0.298-3.905-0.348-5.859
		c-0.158-5.169,0.196-10.367-0.497-15.51c-0.386-3.306-1.474-6.482-3.025-9.419c-1.217-0.512-2.387-1.123-3.507-1.814
		c-1.302,2.007-2.785,3.932-4.675,5.423c-1.91,1.536-4.294,2.551-6.766,2.577c-2.934,0.035-6.052-0.816-8.106-3.019
		c-2.375-2.539-3.2-6.14-3.235-9.531c-0.091-4.461,1.425-8.799,3.61-12.637c-4.142-4.71-6.509-10.715-7.685-16.815
		c-1.77-0.158-3.551-0.582-5.067-1.547c-2.943-1.817-4.824-4.909-6.047-8.068c-1.691-4.499-2.369-9.373-2.039-14.167
		c0.427-4.54,2.416-9.098,6.026-11.997c1.919-1.583,4.599-1.743,6.918-1.1c1.422-10.206,4.508-20.413,10.537-28.884
		C280.843,263.432,287.942,257.71,296.262,255.18 M291.915,263.134c-6.869,3.759-12.02,10.078-15.375,17.06
		c-4.797,9.946-6.556,21.042-7.149,31.979c-0.357,7.22-0.275,14.471,0.369,21.676c0.541,6.096,2.182,12.038,4.359,17.742
		c3.25-5.11,7.454-9.914,13.073-12.441c0.825-0.336,1.021-1.331,1.583-1.948c1.963-2.498,4.362-4.651,6.971-6.459
		c3.598-2.396,7.737-4.286,12.131-4.341c3.741-0.02,7.691,1.436,9.987,4.499c1.585,2.074,1.787,4.792,1.878,7.307
		c0.108,2.975-0.69,5.868-1.088,8.793c-0.047,0.72-0.907,0.81-1.442,0.986c-1.182,0.284-2.197-0.532-3.186-1.033
		c-2.811-1.591-6.213-2.413-9.376-1.433c-0.693,0.064-1.059,0.685-1.422,1.196c-0.962,1.416-1.793,2.914-2.568,4.438
		c-2.776,5.479-4.169,11.54-7.038,16.975c2.729,0.822,5.643,1.164,8.463,0.649c4.449-0.778,8.475-3.136,11.844-6.076
		c7.357-6.31,12.722-14.609,16.879-23.291c2.13-4.365,3.548-9.022,5.432-13.488c1.931-7.986,3.449-16.107,4.005-24.315
		c0.295-5.043,0.333-10.133-0.41-15.141c-0.974-6.409-3.967-12.476-8.413-17.189c-4.18-4.473-9.668-7.708-15.624-9.139
		C307.834,258.102,299.099,259.106,291.915,263.134 M259.327,307.2c-1.185,1.896-2.138,3.967-2.592,6.169
		c-0.477,2.308-0.374,4.692-0.097,7.021c0.41,3.069,1.229,6.167,2.96,8.767c1.232,1.896,3.159,3.329,5.388,3.8
		c-0.878-6.506-0.825-13.082-0.769-19.629c-0.41,0.044-0.857-0.032-1.24,0.152c-1.676,1.234-2.738,3.276-2.53,5.388
		c-0.316-0.205-0.497-0.489-0.538-0.848c-0.342-2.062-0.14-4.286,0.883-6.134c0.72-1.246,2.232-1.656,3.572-1.746
		c0.079-1.743,0.214-3.481,0.333-5.219c-0.86-0.301-1.808-0.828-2.712-0.36C260.854,305.144,260.012,306.15,259.327,307.2
		 M342.885,319.001c-0.29,1.106-0.608,2.209-0.939,3.306c1.729,0.453,3.332,1.612,3.97,3.332c1.132,3.045-0.099,6.602-2.472,8.703
		c-0.468,0.649-1.387-0.257-0.772-0.755c0.822-1.097,1.155-2.507,0.737-3.832c-0.38-1.477-0.845-3.522-2.694-3.674
		c-0.565,1.641-1.258,3.244-1.662,4.938c-1.284,4.835-3.112,9.519-5.321,14.006c1.354,0.813,2.99,0.29,4.286-0.374
		c2.293-1.182,4.277-2.89,6.067-4.733c3.344-3.484,5.277-8.135,6.006-12.865c0.445-2.826-0.31-6.096-2.747-7.822
		C346.024,318.231,344.359,318.963,342.885,319.001 M286.085,343.292c-4.964,4.151-9.144,9.381-11.531,15.434
		c-1.278,3.303-1.805,7.053-0.644,10.47c0.585,1.825,1.761,3.627,3.624,4.335c2.522,0.916,5.488,0.354,7.541-1.366
		c2.329-1.939,3.946-4.566,5.406-7.184c1.313-2.364,2.565-4.777,3.455-7.334c1.869-5.23,4.087-10.487,7.743-14.738
		c-1.211,0.041-2.419,0.281-3.502,0.837c-3.349,1.606-5.792,4.502-8.097,7.325c-2.618,3.11-4.894,6.485-7.065,9.917
		c-0.813-0.12-0.427-0.831-0.231-1.322c1.252-2.884,2.51-5.775,4.084-8.498c2.156-3.756,4.982-7.17,8.46-9.768
		c-1.635-0.383-3.367-0.544-5.014-0.126C288.881,341.911,287.255,342.148,286.085,343.292 M330.057,351.565
		c-4.359,6.588-9.498,12.845-16.048,17.364c-3.975,2.773-8.826,4.309-13.684,4.022c2.829,5.818,2.823,12.459,2.729,18.786
		c-0.187,5.745,0.26,11.491,0,17.236c-0.348,8.723-1.223,17.42-2.32,26.082c0.073,2.82,0.366,5.637,0.298,8.463
		c-0.073,2.756,0.328,5.491,0.728,8.211c0.281,1.735,0.682,3.519,1.679,4.999c0.462,0.845,1.457,0.135,2.159,0.105
		c-0.632-1.539-1.176-3.151-1.182-4.833c-0.029-2.469,0.629-4.871,0.942-7.301c0.035-0.559,0.895-0.603,0.904,0.009
		c0.351,3.581,0.295,7.319,1.805,10.666c0.506,1.088,1.038,2.32,2.153,2.911c0.541-0.132,0.916-0.579,1.343-0.901
		c-1.088-3.97-0.5-8.138,0.067-12.14c-0.123-0.547,0.731-0.828,0.825-0.228c0.503,3.578-0.035,7.243,0.673,10.803
		c0.199,0.842,0.48,1.746,1.179,2.32c0.775,0.626,2.036,0.486,2.668-0.284c0.679-0.819,0.845-1.922,0.945-2.946
		c0.26-3.952-0.661-7.84-1.404-11.689c0.878-1.155,2.472,0.064,3.578-0.611c1.328-0.696,1.899-2.176,2.422-3.49
		c-1.708-0.181-3.411-0.641-4.879-1.55c-1.858-1.173-3.183-3.013-4.151-4.95c-2.065-4.157-2.975-8.776-3.434-13.36
		c-0.497-5.061-0.614-10.151-1.167-15.206c-0.518-6.126-0.693-12.321,0.14-18.426c0.354-2.89,1.34-5.722,3.051-8.088
		c0.494-0.635,0.796-1.384,1.252-2.039c-0.073,2.15-0.532,4.271-0.655,6.421c3.399-0.231,6.57,1.448,9.27,3.347
		c4.057,2.723,8.106,5.605,11.175,9.466c-0.149-4.83-0.015-9.738-1.173-14.463c-0.301-1.381-1-2.621-1.378-3.973
		c1.153,0.717,1.948,1.855,2.685,2.966c2.639,4.239,2.995,9.373,3.303,14.229c0.404,10.069,3.031,20.05,1.922,30.165
		c0.357,2.296,0.57,4.721-0.193,6.974c-0.968,1.916-1.468,4.148-3.151,5.625c-1.346,1.428-3.566,1.53-5.28,0.752
		c-0.298-0.123-0.606-0.216-0.916-0.298c-0.781,1.91-2.349,3.54-2.498,5.669c-0.72,4.561-0.348,9.215,0.342,13.755
		c0.614,3.756,1.325,7.521,2.606,11.116c0.889,2.504,1.919,5.514,4.631,6.544c2.039,0.968,3.668,2.571,5.245,4.148
		c0.202,0.293,0.693,0.529,0.553,0.96c-0.018,0.398-0.565,0.851-0.924,0.538c-1.234-0.737-2.489-1.442-3.844-1.939
		c-3.06-1.208-6.286-2.258-9.621-2.071c-4.947,0.123-9.378,4.394-9.849,9.288c-0.214,1.562,0.553,2.987,1.1,4.397
		c7.398,0.436,14.939,1.021,22.238-0.623c2.212-0.468,4.186-1.603,6.213-2.551c-0.503-1.059-0.957-2.141-1.319-3.256
		c-1.641-5.154-3.209-10.361-3.896-15.744c-0.705-2.656-1.033-5.45-0.509-8.173c-0.84-0.202-1.711-0.506-2.267-1.205
		c-1.22-1.46-1.442-3.449-1.515-5.277c-0.029-3.004,0.079-6.049,0.913-8.954c-1.322,0.117-2.712,0.015-3.891-0.644
		c-1.72-0.91-2.761-2.712-3.314-4.517c-0.161-0.453,0.573-0.638,0.734-0.216c1.15,1.328,2.642,2.425,4.385,2.799
		c1.006,0.24,2.016-0.111,3.016-0.222c0.641-1.229,0.921-2.77,2.08-3.639c-0.009,0.635-0.108,1.27-0.237,1.893
		c-0.813,3.961-0.98,8.012-1.079,12.04c0.05,1.6,0.044,3.329,0.869,4.757c0.43,0.649,1.229,0.173,1.621-0.257
		c0.749-0.837,1.662-1.82,1.392-3.039c-0.205-2.501,0.57-4.917,0.962-7.357c0.053-0.348,0.184-0.664,0.322-0.977
		c0.424,2.761,0.79,5.538,0.983,8.325c0.108,1.144,0.275,2.343,0.942,3.314c0.837-0.451,1.272-1.331,1.738-2.112
		c0.594-1.068,1.275-2.097,1.714-3.241c0.155-2.331,0.231-4.692,0.758-6.98c0.225,0.43,0.328,0.904,0.372,1.392
		c0.225,2.141,0.477,4.283,0.88,6.401c0.231,1.153,0.436,2.369,1.196,3.317c1.536-0.933,2.367-2.642,2.87-4.303
		c0.837-3.016,0.29-6.175-0.193-9.203c-0.155-1.366-0.924-2.536-1.477-3.762c-1.284-2.776-3.402-5.043-4.838-7.729
		c-1.082-1.966-1.881-4.09-2.349-6.286c-0.696-3.095-0.67-6.286-1.003-9.428c-0.79-8.176-1.252-16.382-1.922-24.569
		c-0.427-5.16-1.41-10.271-3.019-15.188c0.477-0.515,0.696,0.287,0.904,0.573c1.937,3.978,3.174,8.255,4.06,12.579
		c2.016,9.94,2.761,20.073,3.63,30.163c0.178,2.642,0.483,5.312,1.425,7.808c1.363,3.698,4.171,6.643,5.529,10.344
		c0.486,0.936,1.077,2.027,2.109,2.428c3.741,0.155,7.032,2.247,9.838,4.563c1.404,1.22,2.747,2.51,4.107,3.776
		c3.443,3.388,6.368,7.328,10.297,10.198c5.456,4.075,12.152,6.456,18.956,6.752c2.691,0.143,5.353-0.31,8.03-0.462
		c1.67-1.776,3.768-3.361,6.298-3.475c-1.849,2.361-3.443,4.926-4.774,7.614c-1.407,3.303-2.408,6.959-1.767,10.563
		c0.313,1.647,1.088,3.455,2.764,4.095c2.206,0.851,4.593,0.114,6.851-0.099c0.529-2.838,1.703-5.497,2.592-8.229
		c1.258-3.695,2.408-7.448,3.013-11.309c0.506-3.253,0.398-6.678-0.904-9.741c-2.475,0.556-5.023,0.568-7.518,0.983
		c-3.674,0.567-7.345,1.281-11.072,1.378c-6.403,0.237-12.778-2.285-17.54-6.517c-4.613-4.092-7.351-9.806-9.419-15.507
		c-2.577-7.354-4.388-14.945-6.251-22.501c-2.185-8.676-4.212-17.505-8.202-25.573c-3.414-8.08-7.895-15.729-13.418-22.548
		c-3.051-3.712-6.599-7.193-11.014-9.226C335.934,351.284,332.883,351.094,330.057,351.565 M312.535,385.03
		c-0.448,3.092-0.415,6.231-0.503,9.346c-0.161,6.752,0.775,13.453,1.129,20.181c0.316,5.148,0.72,10.402,2.642,15.244
		c0.734,1.831,1.545,3.739,3.066,5.064c1.723,1.489,4.239,1.331,6.014,2.741c1.65-4.183,5.008-8.135,9.607-9.025
		c0.497-0.059,0.813-0.474,1.173-0.769c-0.304-7.755-0.48-15.527-1.501-23.23c-0.018-1.387-1.097-2.396-1.527-3.654
		c-1.483-3.832-4.455-6.831-7.658-9.297c-1.939-1.492-3.94-2.908-5.991-4.239C317.028,386.194,314.893,385.021,312.535,385.03
		 M329.279,436.298c2.601,0.272,4.797-1.77,5.646-4.078C332.503,432.604,330.757,434.499,329.279,436.298z"/>
	<path fill="#231F20" d="M300.416,267.592c2.662-0.626,5.757-0.064,7.658,2.013c0.79,0.889,0.161,2.603-1.077,2.627
		c-2.001-0.032-4.011-0.81-6.003-0.246c-2.723,0.673-4.689,2.855-6.362,4.97c-1.135,1.512-2.364,2.955-3.347,4.575
		c-0.421,0.702-1.703,0.094-1.469-0.667c0.249-1.176,0.608-2.326,0.93-3.481C292.076,272.822,295.645,268.642,300.416,267.592z"/>
	<path fill="#231F20" d="M318.272,270.239c2.563-0.532,5.274,0.418,7.237,2.083c3.545,3.063,5.283,8.062,4.324,12.666
		c-0.216,0.638-0.035,1.858-0.954,1.937c-1.033,0.023-0.84-1.237-1.021-1.925c-0.559-2.519-1.568-4.953-2.943-7.135
		c-0.939-1.375-2.15-2.797-3.853-3.165c-1.319-0.275-2.735,0.105-3.999-0.451c-0.88-0.404-1.366-1.536-0.945-2.431
		C316.51,270.97,317.4,270.467,318.272,270.239z"/>
	<path fill="#231F20" d="M299.795,278.099c1.828-0.418,3.882,0.231,5.043,1.729c0.869,1.041,1.021,2.431,1.34,3.701
		c0.491,2.115-0.483,4.441-2.273,5.646c-1.679,1.173-4.019,1.246-5.795,0.246c-1.512-0.825-2.571-2.419-2.723-4.133
		c-0.161-1.951,0.272-4.104,1.735-5.505C297.894,279.068,298.742,278.336,299.795,278.099z"/>
	<path fill="#231F20" d="M315.32,279.287c1.284-0.407,2.732-0.471,3.973,0.123c2.004,0.851,3.332,3.072,3.077,5.245
		c-0.105,0.866-0.105,1.743-0.24,2.606c-0.43,2.217-2.416,3.955-4.639,4.224c-1.463,0.149-3.036-0.146-4.212-1.076
		c-1.98-1.492-2.826-4.306-2.01-6.646C311.924,281.809,313.392,280.071,315.32,279.287z"/>
	<path fill="#231F20" d="M290.508,296.517c2.899-1.036,5.985-1.264,9.016-1.632c-0.158,0.339-0.369,0.67-0.746,0.784
		c-2.835,1.261-5.412,3.001-8.068,4.584c-2.299,1.425-4.443,3.537-4.92,6.307c-0.494,2.443,0.632,4.929,2.378,6.605
		c2.489,2.489,5.953,3.598,9.302,4.37c4.09,0.889,8.325,1.059,12.485,0.644c3.99-0.401,7.857-2.41,10.285-5.628
		c2.785-3.589,2.191-9.399-1.392-12.236c-0.316-0.249-0.576-0.538-0.784-0.878c2.408,0.538,4.95,1.612,6.278,3.818
		c2.08,3.013,2.036,7.094,0.433,10.306c-1.322,2.46-3.074,4.765-5.488,6.243c-4.938,3.089-11.008,3.695-16.7,3.177
		c-5.304-0.506-10.803-1.512-15.276-4.587c-2.838-1.901-4.985-4.871-5.678-8.235c-0.529-2.469-0.208-5.143,1.059-7.34
		C284.406,299.846,287.284,297.626,290.508,296.517z"/>
</g>
</svg>
