<?xml version="1.0" encoding="utf-8"?>
<!-- Generator: Adobe Illustrator 17.0.0, SVG Export Plug-In . SVG Version: 6.00 Build 0)  -->
<!DOCTYPE svg PUBLIC "-//W3C//DTD SVG 1.1//EN" "http://www.w3.org/Graphics/SVG/1.1/DTD/svg11.dtd">
<svg version="1.1" id="Layer_1" xmlns="http://www.w3.org/2000/svg" xmlns:xlink="http://www.w3.org/1999/xlink" x="0px" y="0px"
	 width="800px" height="600px" viewBox="0 0 800 600" enable-background="new 0 0 800 600" xml:space="preserve">
<g>
	<g>
		<path fill-rule="evenodd" clip-rule="evenodd" fill="#141414" d="M233.305,171.789c-6.278-0.769-11.459-4.603-14.539-9.209
			c-3.076-4.604-4.104-10.865-0.339-12.889c3.778-2.037,22.192,7.01,28.227,5.579c-13.517-17.182-23.782-41.305-25.834-61.196
			c-2.054-19.886,4.104-33.698,5.816-24.491c1.709,9.206,5.919,27.205,10.948,39.407c8.518,20.67,16.422,32.228,20.472,36.208
			c2.616-3.242,6.212-5.188,7.577-6.006c-1.538-3.131-5.132-12.339-6.84-16.942c-1.712-4.603-6.197-20.253-7.169-35.586
			c-0.401-6.342-1.028-18.73,3.748-34.759c2.907-9.762,5.32-9.664,5.983-0.739c0.468,6.233,1.201,14.734,1.885,20.625
			c0.681,5.891,4.058,20.78,5.336,25.257c4.537,15.905,9.374,30.358,16.077,39.654c7.93-1.066,12.329,5.322,19.582,6.607
			c5.87,1.039,18.394-0.743,21.628-1.573c12.807-3.279,18.878-7.099,21.871,1.695c5.643,16.572-9.064,29.754-23.327,29.461
			c31.311,30.332,62.331,70.756,72.309,85.861c18.223,0.271,39.478,0.556,49.773,2.99c27.569,6.524,50.805,11.76,65.571,12.801
			c12.293,0.866,26.623-1.551,39.169,1.256c10.181,2.282,21.744,7.278,30.106,12.279c10.988-5.792,21.59,12.069,30.14,17.042
			c8.555,4.972,21.522,9.404,32.997,4.355c3.409-1.501,6.344-5.093,9.251-6.565c0.143,4.81-1.367,10.314-3.993,14.118
			c5.021-2.147,7.758-4.358,12.03-5.094c0.297,7.623-8.422,20.791-24.306,29.641c-15.884,8.845-33.162,6.269-42.738-7.728
			c-0.626,16.922-5.726,30.647-12.214,43.605c-4.172,8.336-10.889,15.274-13.156,24.862c-2.273,9.648,2.224,18.04,7.896,20.458
			c6.611,2.815,16.675,1.895,17.832,10.7c1.162,8.842-8.815,12.11-13.447,16.993c-6.133,6.46-16.501,18.366-23.684,34.386
			c2.144,7.003,5.597,12.885,2.931,20.373c-1.893,5.32-14.901,10.122-22.6,12.592c-9.118,2.927-38.291,7.44-43.272-2.024
			c6.691-3.975,15.487-9.564,18.227-11.512c-4.714-0.462-13.096-2.116-16.003-7.641c8.039-5.409,31.813-15.101,46.352-19.337
			c6.386-4.621,16.784-20.791,20.805-28.412c1.664-3.16,6.651-10.684,6.137-14.792c-0.51-4.055-8.195-5.429-13.156-6.922
			c-16.619-5.007-30.251-7.44-41.503-18.566c-5.129,4.702-13.527,26.842-4.385,33.358c1.855,1.321,5.804,1.506,6.139,4.092
			c0.389,2.999-5.128,7.878-6.726,9.44c-6.802,6.661-16.916,17.382-21.877,25.854c0.462,6.256,0.516,13.628-1.504,17.892
			c-16.284,5.132-53.537,10.705-57.587,6.296c5.692-6.252,14.108-10.56,21.634-13.849c-6.159-0.763-15.224-1.502-18.711-5.352
			c10.161-4.987,27.948-9.038,43.846-9.123c7.189-9.492,19.902-21.401,22.803-26.123c-2.269-1.598-9.966-3.991-16.639-15.78
			c-6.669-11.781-5.874-27.533-4.995-42.441c-25.19,6.549-62.82,10.781-90.102,2.112c-2.463,19,2.168,35.101,5.043,52.018
			c2.405,14.142,8.639,35.089,12.062,42.638c3.419,7.553,10.867,18.936,8.4,25.023c-16.097,13.274-69.536,24.079-78.867,21.201
			c5.874-5.955,20.197-12.612,26.256-18.37c-7.786,1.795-17.023,2.899-27.769-2.2c9.721-4.477,38.97-12.399,53.198-21.714
			c2.415-13.487-2.471-30.753-4.65-43.348c-4.105-23.758-9.747-39.41-12.303-47.288c-1.733,31.889-5.148,63.798-2.237,94.796
			c-8.721,4.055-47.548,14.367-76.392,10.002c1.478-3.738,18.083-4.863,21.337-6.922c-3.236-0.301-13.873-0.867-19.584-4.409
			c16.657-7.693,43.17-15.061,58.462-22.028c6.129-20.116,4.547-71.845,1.982-93.206c-5.216-3.264-10.261-6.262-16.077-11.97
			c-5.816-5.71-12.997-14.773-16.89-28.891c-6.962-25.243-5.079-56.276-14.909-79.308c-6.76-15.843-14.031-28.013-23.676-39.965
			c-8.763,4.704-23.26,6.234-30.69,15.105c-2.831,3.377-9.699,11.301-8.476,16.047c2.106,8.168,14.25,11.851,8.093,25.296
			c17.103,6.628,24.453,25.208,17.336,40.165c-1.255-4.439-3.311-10.332-7.009-14.162c0.791,9.537-1.614,18.617-7.605,23.286
			c0.357-4.357,1.215-9.996-0.291-14.79c-1.235,8.406-4.656,17.249-13.738,19.513c2.24-5.027,5.38-11.528,4.122-17.92
			c-6.001,13.91-15.236,21.323-20.199,21.066c3.61-3.937,6.914-8.772,9.596-14.62c4.445-9.688,3.718-24.94-1.706-32.9
			c-1.177-1.729-5.477-5.22-8.043-5.401c-2.566-0.188-4.694,5.855-6.669,8.837c-2.124,3.195-6.43,3.776-11.01-0.29
			c-2.676,4.524-6.707,9.161-11.399,8.575c-9.98-1.25,0.401-19.149-1.538-25.412c-2.739-8.841-9.922-13.259-10.606-27.254
			c-0.685-13.997,3.252-24.307,8.554-28.177c5.298-3.868,10.996-5.904,14.539-10.31
			C209.874,200.885,223.212,183.207,233.305,171.789z"/>
		<path fill-rule="evenodd" clip-rule="evenodd" fill="#FAF1E0" d="M298.681,154.01c1.672,10.595,10.739,17.408,22.028,19.25
			c17.101,16.88,67.528,81.954,69.753,86.58c-8.978,1.087-20.271,2.283-23.21,6.153c15.595-2.345,34.304-2.816,49.319-2.345
			c8.703,0.273,27.223,0.764,41.337,5.44c14.12,4.675,51.046,9.544,72.274,9.544c6.593,0,14.138-0.308,20.168,0.947
			c1.849,0.383,19.564,5.47,30.984,13.533c8.593-4.379,12.353,1.511,19.711,8.51c7.354,7,26.438,20.118,46.641,10.689
			c-0.841,5.071-3.029,6.993-7.017,10.382c3.987,1.214,11.686-3.205,16.306-5.416c-5.009,10.562-16.739,21.346-29.592,24.309
			c-8.105,1.867-16.418,0.186-21.893-3.132c-5.475-3.315-9.581-10.127-11.973-15.468c-2.393-5.341-2.698-15.909-7.868-18.969
			c-0.514,3.497,1.197,6.816,2.736,13.811c1.54,6.998,2.224,18.046,0.512,27.437c-1.71,9.395-5.639,20.075-9.062,27.254
			c-3.421,7.186-8.185,14.759-11.654,22.561c-5.294,11.893-2.502,27.019,7.306,31.154c5.943,2.506,14.806,0.988,15.784,7.24
			c0.881,5.593-3.489,6.681-6.139,8.496c-9.747,6.681-23.596,27.231-28.558,39.385c-2.231,1.799-8.856,0.145-10.899-1.618
			c4.678-4.015,14.724-17.868,21.162-28.215c7.005-11.251,9.996-19.012,3.935-22.465c-6.059-3.457-14.013-5.481-20.419-7.227
			c-15.328-4.184-29.396-9.853-37.416-22.662c-8.095-12.925-12.349-40.222-4.674-55.387c1.755-3.476,4.497-7.788,7.015-11.331
			c2.837-3.992,11.807-14.074,3.505-18.251c-1.996,1.28,0.984,4.229,0,5.977c-2.913,5.203-6.958,10.063-10.1,14.781
			c-8.207,12.337-10.765,26.893-6.268,46.275c-30.747,12.419-79.305,20.61-114.872,8.813c-1.899-4.541,1.785-7.304,1.461-11.018
			c-0.261-2.969-4.816-7.67-6.43-10.071c-2.369-3.519-4.646-7.099-7.601-8.813c-2.754,6.312,9.61,13.009,10.231,19.515
			c0.169,1.779-0.536,5.842-0.727,7.195c-3.044,21.727,1.574,38.165,4.818,57.635c2.961,17.767,6.645,33.672,12.277,46.259
			c-1.367,3.272-8.291,2.112-11.106,0.948c-0.265-20.297-13.26-72.246-15.535-80.686c-1.67-6.196-3.604-18.96-6.501-24.308
			c-1.953-3.614-6.667-5.894-12.656-8.842c-5.987-2.945-16.816-12.659-25.23-22.433c-11.184-13.001-11.97-40.011-14.322-61.997
			c-3.411-31.906-18.372-54.289-31.568-74.272c3.704-2.333,7.651-6.242,9.856-11.199c2.367-5.305,3.28-17.383-1.339-18.859
			c0.518,3.685,0.518,10.314-1.367,16.023c-1.879,5.708-6.497,9.575-12.409,12.774c-9.175,4.97-21.901,6.7-29.323,14.298
			c-4.832,4.944-11.474,14.078-11.895,17.802c-1.044,9.3,11.827,9.268,10.014,21.238c-0.484,3.189-1.2,5.892-4.457,8.662
			c13.718,0.36,26.519,14.909,23.441,30.194c-2.562-7.733-6.499-10.865-11.289-15.099c2.538,5.714,3.25,14.363,0.171,23.571
			c-0.893-5.959-2.048-13.443-5.017-16.949c0.229,6.085-1.652,21.187-7.98,24.87c3.25-6.999,2.736-16.574-0.343-20.443
			c-0.311,5.425-4.877,14.699-8.721,16.76c4.618-16.393,4.443-28.729-1.711-37.57c-1.371-1.967-5.816-6.075-10.092-6.445
			c-5.467-0.471-6.326,11.233-11.632,11.233c-5.3,0,0.028-8.296,1.606-10.751c8.99-14.004,17.751-28.664,26.306-44.058
			c2.991-5.382,8.352-13.145,9.891-17.378c1.536-4.239,1.195-8.471-1.883-9.024c-4.8-0.861-9.739,2.398-12.1,5.945
			c4.403-0.973,9.446-4.704,10.733-0.42c1.285,4.282-6.714,15.314-9.856,21.192c-3.15,5.877-15.884,27.352-24.555,40.595
			c-4.13,6.31-9.036,17.397-15.706,17.766c-6.671,0.366,2.152-12.428,0.801-19.654c-2.024-10.807-10.339-16.936-11.11-29.269
			c-0.52-8.312,2.566-18.515,8.187-23.287c3.293-2.8,7.179-3.903,10.229-6.609c6.623-5.88,12.038-15.247,18.709-22.975
			c6.633-7.686,12.459-15.857,19.289-22.345c8.938-8.486,15.621-20.386,26.679-26.472c7.065,2.233,12.546-2.356,18.043-2.479
			c7.199-0.163,12.77,6.185,19.584,6.293c3.102,0.048,16.499-1.166,19.875-1.889c6.547-1.4,11.919-3.324,15.202-2.832
			c5.109,0.769,4.758,11.413,2.921,15.736c-6.272,14.74-32.913,15.606-39.797,1.347C305.005,153.658,300.767,149.985,298.681,154.01
			z M271.435,182.607c9.028-6.634,6.706-23.95-4.031-24.505c-8.408-0.439-14.061,8.336-12.861,17.308
			C255.645,183.653,264.609,187.625,271.435,182.607z"/>
		<path fill-rule="evenodd" clip-rule="evenodd" fill="#141414" d="M205.732,253.46c-1.16-0.092-1.984-2.059-2.186-4.325
			c-4.276,1.657-0.502,8.836-2.738,10.128c-6.141-4.786-1.024-16.022,3.08-20.441c4.104-4.421,9.151-4.121,9.576,0.734
			C213.893,244.413,210.387,250.791,205.732,253.46z"/>
		<path fill-rule="evenodd" clip-rule="evenodd" fill="#E9E5C1" d="M235.527,168.288c0,0-5.473-0.553-9.916-3.683
			c-4.738-3.333-6.784-11.639-4.451-11.231c5.304,0.92,14.961,6.028,22.75,6.259C240.49,163.686,235.527,168.288,235.527,168.288z"
			/>
		<path fill-rule="evenodd" clip-rule="evenodd" fill="#C7A672" d="M224.756,99.047c-2.086-10.538-1.273-22.816-0.518-24.308
			c1.028-2.025,1.767,7.915,5.134,20.071c3.421,12.338,9.92,28.176,14.539,36.464c4.615,8.286,8.725,13.074,10.946,16.023
			c-1.174,1.289-3.592,3.864-5.473,4.97C247.211,152.07,230.911,130.168,224.756,99.047z"/>
		<path fill-rule="evenodd" clip-rule="evenodd" fill="#D9BB85" d="M257.593,56.139c1.54-3.316,2.393,15.101,2.907,19.519
			c0.514,4.42,1.66,11.468,3.983,19.187c4.712,15.666,8.996,29.566,15.688,41.585c-1.717,2.452-6.698,2.689-10.53,1.941
			c-4.758-8.286-8.312-18.356-11.295-29.991c-1.564-6.103-2.293-10.623-3.489-23.33C253.66,72.345,256.053,59.454,257.593,56.139z"
			/>
		<path fill-rule="evenodd" clip-rule="evenodd" fill="#FFFFFF" d="M258.448,178.236c-2.542-4.337-1.369-11.788,2.738-15.286
			c3.738-3.188,9.857-3,12.146,2.395c1.99,4.696,0.522,11.456-2.74,14.363C267.837,182.161,260.992,182.568,258.448,178.236z"/>
		<path fill-rule="evenodd" clip-rule="evenodd" fill="#141414" d="M266.25,169.248c1.45-1.446,3.997-1.746,5.499,0.183
			c1.437,1.845,1.064,4.176-0.205,5.359c-1.508,1.402-4.262,1.616-5.722-0.729C264.643,172.168,265.127,170.374,266.25,169.248z"/>
		<path fill-rule="evenodd" clip-rule="evenodd" fill="#C7A77B" d="M301.311,496.73c14.178-3.59,37.414-14.098,50.696-18.691
			c1.885,1.658,5.477,3.132,9.237,2.578c1.279,3.449,1.1,9.456,1.741,13.596c-13.489,6.766-40.566,11.447-56.645,12.001
			c10.604-3.867,27.864-8.93,34.039-15.286C338.156,488.904,318.998,501.797,301.311,496.73z"/>
		<path fill-rule="evenodd" clip-rule="evenodd" fill="#D9BD93" d="M347.201,513.718c14.373-5.818,28.571-9.793,41.411-17.262
			c4.011,1.036,9.936,1.43,14.146,1.474c2.855,4.585,6.009,8.255,7.288,14.535c-14.646,9.926-43.951,17.836-65.732,20.084
			c10.259-8.151,32.758-18.554,40.303-28.585c-6.119-1.574-7.808,7.589-19.95,10.167
			C352.519,516.714,347.201,513.931,347.201,513.718z"/>
		<path fill-rule="evenodd" clip-rule="evenodd" fill="#E4D7BA" d="M357.723,383.749c3.533,0.185,6.944,3.325,7.97,6.272
			c1.024,2.943-1.624,59.044-4.166,86.882c-2.301,0.743-5.037-0.345-6.728-1.261c2.989-16.418,4.662-41.622,3.804-64.83
			C358.235,400.99,357.47,391.928,357.723,383.749z"/>
		<path fill-rule="evenodd" clip-rule="evenodd" fill="#C7A77B" d="M437.871,503.271c3.144-2.807,12.136-6.726,17.482-9.376
			c5.188-2.574,11.102-4.369,15.202-8.5c-3.309-2.554-14.724,3.879-14.724,3.879s-8.384-1.104-13.513-2.393
			c5.17-2.686,17.627-5.099,25.896-5.886c6.284-0.598,13.67-0.775,16.523,2.939c1.196,3.682,0.785,7.97,0.137,11.849
			C451.896,505.664,439.176,504.969,437.871,503.271z"/>
		<path fill-rule="evenodd" clip-rule="evenodd" fill="#E4D7BA" d="M483.159,392.302c7.565-2.172,13.686-4.212,20.13-6.348
			c1.116,6.456,5.22,14.929,9.645,19.193c-9.897,14.338-11.435,25.938-8.185,32.752c3.248,6.814,8.062,6.689,8.478,9.42
			c0.415,2.734-20.135,20.285-28.061,32.732c-2.136-0.984-4.365-1.638-4.365-1.638s16.079-19.707,22.779-27.946
			c-0.096-4.208-10.464-5.569-17.306-17.727C479.437,420.585,479.647,406.042,483.159,392.302z"/>
		<path fill-rule="evenodd" clip-rule="evenodd" fill="#D9BD93" d="M538.073,487.603c-8.54,6.561-20.058,18.418-33.614,9.44
			c6.964-2.51,32.12-15.342,36.535-15.101c2.919,3.1,7.918,7.039,13.184,4.204c1.889,5.051,5.093,11.022,3.184,16.88
			c-0.805,2.469-5.975,5.517-9.351,6.922c-9.669,4.023-31.461,11.183-45.145,5.846c6.842-4.605,15.414-8.802,22.931-14.343
			C533.313,495.903,539.127,492.59,538.073,487.603z"/>
		<path fill-rule="evenodd" clip-rule="evenodd" fill="#FFFFFF" d="M392.74,272.087c11.094-2.391,40.13-0.54,56.685,4.322
			c16.555,4.859,48.657,22.144,31.6,29.705c-17.055,7.563-40.128,14.583-72.234,4.861
			C376.685,301.254,360.13,279.108,392.74,272.087z"/>
		<path fill-rule="evenodd" clip-rule="evenodd" fill="#FFFFFF" d="M556.272,288.832c17.41,4.838,24.079,19.444,25.583,35.644
			c1.506,16.202-9.528,45.367-17.557,55.093c-8.026,9.721-15.049-30.789-17.557-48.612
			C544.231,313.136,540.721,284.509,556.272,288.832z"/>
		<path fill-rule="evenodd" clip-rule="evenodd" fill="#FFFFFF" d="M342.575,208.896c10.303,9.354,18.559,27.004,20.066,34.565
			c1.502,7.563-19.064,3.779-30.6-13.503C320.503,212.676,316.992,185.671,342.575,208.896z"/>
		<path fill-rule="evenodd" clip-rule="evenodd" fill="#FFFFFF" d="M324.517,148.946c7.35-2.375,15.047-3.243,16.551-1.082
			c1.508,2.161-8.524,15.125-19.56,11.344C310.471,155.426,314.485,152.186,324.517,148.946z"/>
		<path fill-rule="evenodd" clip-rule="evenodd" fill="#FFFFFF" d="M225.192,193.23c8.002-9.201,16.051-17.821,18.56-18.901
			c2.507-1.079,0,15.664-14.549,28.625C214.656,215.916,203.118,218.618,225.192,193.23z"/>
		<path fill-rule="evenodd" clip-rule="evenodd" fill="#F1D59B" d="M264.78,100.702c1.542,4.986,5.716,17.429,7.617,22.761
			c1.905,5.33-6.665-1.233-10.285-17.225c-3.616-15.995-1.901-28.502-1.331-23.374C261.353,87.986,263.254,95.782,264.78,100.702z"
			/>
		<path fill-rule="evenodd" clip-rule="evenodd" fill="#F1D59B" d="M373.336,516.541c4.802-3.1,9.711-7.175,11.614-9.227
			c1.907-2.048,3.449,7.372-9.327,14.359c-12.76,6.966-19.618,5.533-16.187,3.891C362.862,523.925,368.574,519.621,373.336,516.541z
			"/>
		<path fill-rule="evenodd" clip-rule="evenodd" fill="#F1D59B" d="M523.408,505.062c6.119-4.264,12.381-8.818,14.094-10.869
			c1.715-2.052,2.475,8.408-8.95,14.559c-11.427,6.151-18.856,5.537-14.854,2.871C517.692,508.956,520.169,507.314,523.408,505.062z
			"/>
		<path fill-rule="evenodd" clip-rule="evenodd" fill="#C4A072" d="M519.218,498.705c2.752-0.373,7.426-3.489,10.283-5.541
			c2.859-2.044-10.853,1.847-14.854,3.284C510.647,497.882,513.122,499.524,519.218,498.705z"/>
		<path fill-rule="evenodd" clip-rule="evenodd" fill="#C4A072" d="M372.955,509.976c2.877-1.803,4.001-3.481,4.953-4.505
			c0.953-1.024-12.19,4.919-16.189,6.766C357.719,514.084,363.814,515.722,372.955,509.976z"/>
	</g>
	<path fill-rule="evenodd" clip-rule="evenodd" fill="#ECE1CB" d="M286.769,219.416c0,0,5.238-4.048,7.856-9.046
		c2.62-4.999,2.857-10.236,2.381-14.52c-0.476-4.284,7.621,6.19,3.572,16.425C296.531,222.51,286.769,219.416,286.769,219.416z"/>
	<path fill-rule="evenodd" clip-rule="evenodd" fill="#ECE1CB" d="M255.878,180.556c0,0,4.16,5.801,10.676,4.535
		c8.348-1.618,9.817-8.994,9.817-8.994s0.693,11.321-9.544,12.748C256.593,190.275,255.878,180.556,255.878,180.556z"/>
	<path fill-rule="evenodd" clip-rule="evenodd" fill="#ECE1CB" d="M513.556,326.245c-2.749,4.309-8.948,10.263-12.371,23.158
		c-3.413,12.866-2.104,19.083-1.315,23.818c0.789,4.738,1.711,7.368,1.711,7.368s-6.581,2.766-13.816,4.738
		c-7.238,1.975-13.16,0.398-13.686-9.078c-0.524-9.473,1.843-23.553,12.502-35.923C497.236,327.953,518.423,318.612,513.556,326.245
		z"/>
	<path fill-rule="evenodd" clip-rule="evenodd" fill="#ECE1CB" d="M388.554,388.756c0,0,8.157,2.995,19.58,4.353
		c11.425,1.361,22.849,1.903,31.552,0.546c8.703-1.361-10.919-9.741-25.296-11.696C386.376,378.154,388.554,388.756,388.554,388.756
		z"/>
	<path fill-rule="evenodd" clip-rule="evenodd" fill="#ECE1CB" d="M594.168,315.867c0,0,1.594,17,14.142,22.302
		c19.311,8.159,30.737-3.535,30.737-3.535s-11.526,2.007-21.487-1.63C600.424,326.747,594.168,315.867,594.168,315.867z"/>
	<path fill-rule="evenodd" clip-rule="evenodd" fill="#ECE1CB" d="M598.25,317.228c0,0,6.527,8.431,17.679,12.783
		c11.148,4.352,19.58,3.263,19.58,3.263s-10.608-4.078-19.311-8.159C607.495,321.036,598.25,317.228,598.25,317.228z"/>
</g>
</svg>
