<?xml version="1.0" encoding="utf-8"?>
<!-- Generator: Adobe Illustrator 17.0.0, SVG Export Plug-In . SVG Version: 6.00 Build 0)  -->
<!DOCTYPE svg PUBLIC "-//W3C//DTD SVG 1.1//EN" "http://www.w3.org/Graphics/SVG/1.1/DTD/svg11.dtd">
<svg version="1.1" id="Layer_1" xmlns="http://www.w3.org/2000/svg" xmlns:xlink="http://www.w3.org/1999/xlink" x="0px" y="0px"
	 width="800px" height="600px" viewBox="0 0 800 600" enable-background="new 0 0 800 600" xml:space="preserve">
<g id="_x23_272324ff">
	<path fill="#272324" d="M307.307,138.47h4.286c6.418,0.418,12.878,1.504,18.826,4.037c3.33,1.446,6.57,3.402,8.806,6.325
		c1.736,2.243,2.612,5.124,2.405,7.954c-0.072,1.894-0.801,3.675-1.059,5.538c-0.197,1.315-0.738,2.543-1.415,3.675
		c0.928,4.413,2.598,8.668,3.019,13.181c0.245,2.747,0.39,5.511,0.248,8.271c-0.069,1.504-0.386,2.988-0.438,4.496
		c0.031,0.48-0.169,0.914-0.39,1.328c0.383,10.027,1.908,20.045,1.121,30.096c-0.625,9.12-2.902,18.005-4.776,26.922
		c-1.149,4.834-1.998,9.779-3.847,14.42c-0.69,1.805-1.732,3.451-2.422,5.259c-2.091,5-6.635,8.764-11.794,10.297
		c-0.669,5.103-0.59,10.269-0.638,15.403c1.108,1.153,2.022,2.484,3.261,3.509c1.484,1.263,2.919,2.585,4.234,4.027
		c0.473,0.59,1.256,0.666,1.939,0.863c2.861,0.68,5.659,1.625,8.564,2.126c3.789,0.663,7.622,1.052,11.442,1.498
		c3.772,0.431,7.481,1.567,11.308,1.366c2.612-0.1,5.452-0.48,7.816,0.911c-4.189,0.459-8.43,1.025-12.646,0.559
		c2.522,0.894,5.069,1.78,7.388,3.14c-7.709-2.215-15.7-3.137-23.554-4.669c-3.209-0.469-6.439-1.066-9.42-2.384
		c3.054,3.875,5.987,7.854,8.709,11.97c2.536,3.982,4.952,8.143,6.266,12.705c-1.877-2.809-3.913-5.507-6.049-8.123
		c-3.747-4.876-7.181-9.99-11.063-14.765c-2.433-2.902-5.055-5.638-7.45-8.571c2.516,9.154,3.226,18.657,4.41,28.043
		c2.267,18.35,4.424,36.745,5.003,55.241c0.266,7.326-0.041,14.71,1.125,21.973c-0.176,0.255-0.352,0.511-0.525,0.77
		c-0.017-1.863-0.604-3.64-0.935-5.452c-0.852-4.455-1.232-8.978-1.494-13.495c-0.411-7.702-0.749-15.414-1.542-23.081
		c-0.828-2.07-1.501-4.203-1.794-6.422c-0.449-3.395-1.781-6.567-2.909-9.772c-1.221-3.357-3.271-6.318-5.273-9.244
		c-1.397-2.019-2.667-4.134-4.299-5.973c-1.111,0.345-2.271,0.49-3.43,0.449c0.059,3.637-0.286,7.267-0.204,10.904
		c0.066,3.464,0.135,6.939-0.093,10.4c-0.338,4.634,0.211,9.299,1.291,13.809c0.631,2.691,1.763,5.241,2.281,7.964
		c0.28,1.787,1.308,3.313,2.032,4.941c2.74,5.68,5.438,11.387,7.898,17.194c2.612,6.063,5.179,12.153,8.257,17.998
		c0.583,1.125,1.284,2.201,1.691,3.416c-0.725-0.901-1.239-1.936-1.781-2.947c-5.052-9.351-9.406-19.058-14.448-28.409
		c-6.487-12.332-12.039-25.124-17.633-37.874c-4.962-11.318-9.786-22.695-14.427-34.151c-2.25-5.662-4.672-11.256-6.749-16.987
		c-1.511,2.146-3.63,3.771-5.273,5.79c-2.098,6.763-3.009,13.833-3.426,20.886c-0.393,5.338-0.4,10.707-0.883,16.038
		c-0.328-1.867-0.324-3.768-0.49-5.645c-0.397-5.638-0.769-11.301-0.362-16.949c0.297-3.723,0.473-7.484,1.449-11.107
		c-3.827,3.164-7.847,6.101-12.029,8.771c4.258-3.809,8.557-7.595,12.47-11.767c1.825-2.005,3.644-4.065,4.896-6.487
		c0.611-1.166,1.304-2.295,2.184-3.281c-1.166-3.851-1.539-7.874-2.381-11.798c-1.139-5.476-2.226-10.963-3.385-16.435
		c-1.508-7.119-3.989-14.034-4.786-21.294c-1.318,0.742-2.905,0.876-4.331,0.376c-2.264-0.832-4.051-2.574-5.6-4.368
		c-3.768-4.513-6.977-9.814-7.698-15.755c-0.324-2.678-0.248-5.652,1.387-7.923c1.259-1.791,3.464-2.467,5.483-2.985
		c-0.466-1.253-0.852-2.536-1.415-3.751c-1.56-3.313-2.34-6.915-3.057-10.483c-1.96-9.065-2.515-18.547-0.649-27.674
		c1.07-4.9,3.188-10,7.519-12.874c-1.204,2.436-2.502,4.831-3.42,7.391c-1.711,4.503-2.126,9.375-2.188,14.154
		c0.017,5.693,0.738,11.377,1.967,16.932c0.825,3.882,2.529,7.505,3.413,11.37c1.032,2.923,3.223,5.207,4.962,7.712
		c2.65,3.137,4.061,7.105,4.948,11.059c0.459,2.384,0.849,4.803,0.783,7.239c2.046-0.942,4.327-0.959,6.532-1.073
		c-0.894-1.142-1.622-2.395-2.467-3.568c-1.732-2.415-2.491-5.362-3.04-8.243c-0.669-3.823-1.48-8.178,0.783-11.646
		c0.045,3.05-0.038,6.118,0.421,9.144c0.393,2.992,1.349,5.873,2.516,8.644c0.707,1.643,1.256,3.461,2.629,4.7
		c0.952,0.939,2.188,1.48,3.278,2.226c-2.063,0.901-4.341,0.514-6.515,0.652c-1.767,0.121-3.589,0.255-5.203,1.046
		c-0.259-1.001-0.487-2.012-0.569-3.043c-0.297-4.227-1.394-8.388-3.102-12.257c-0.69-1.605-1.729-3.033-2.992-4.234
		c-0.587-0.525-1.097-1.339-1.991-1.277c-2.281-0.138-4.9,0.473-6.308,2.412c-1.56,2.519-1.218,5.666-0.594,8.423
		c0.977,4.272,2.567,8.488,5.286,11.97c1.339,1.781,3.112,3.299,5.217,4.075c1.322,0.507,2.629-0.197,3.841-0.669
		c-0.041-0.997-0.066-1.998-0.086-2.999c1.394,1.249,1.211,3.199,1.608,4.869c1.052,5.128,2.857,10.055,4.244,15.089
		c2.07,7.001,3.402,14.185,4.865,21.328c0.987,4.869,2.308,9.696,2.66,14.672c0.069,1.353,0.99,2.44,1.649,3.561
		c3.426,5.321,8.219,10.083,14.282,12.236c2.177,0.89,4.541,0.362,6.815,0.455c2.095,0.052,4.127-0.514,6.211-0.604
		c2.453-0.107,4.745-1.322,6.584-2.885c3.302-3.019,4.903-7.712,4.351-12.129c-0.311-3.206-0.594-6.415-1.066-9.6
		c-0.342-2.184-0.276-4.4-0.338-6.604c-5.076,0.435-10.231,0.169-15.224-0.852c-3.351-0.804-6.756-1.801-9.634-3.751
		c4.303-0.269,8.33,1.591,12.557,2.005c6.701,0.652,13.982,0.562,19.931-2.978c2.861-1.86,4.82-4.738,6.725-7.498
		c0.897-1.235,1.187-2.76,1.625-4.189c1.501-5.183,2.308-10.528,3.537-15.773c2.609-11.349,5.521-22.822,5.183-34.561
		c-0.242-6.591-1.266-13.354,0.604-19.813c-0.787-0.183-1.591-0.273-2.395-0.214c-3.654,0.169-7.471,0.321-10.8,2.008
		c-1.494,0.711-2.698,1.863-3.951,2.916c1.397-2.043,3.278-3.778,5.531-4.827c3.42-1.625,7.27-1.832,10.987-2.084
		c-0.248-3.872-0.259-7.757-0.638-11.618c-0.376-4.382-2.001-8.516-2.733-12.833c-1.273,0.335-2.578,0.594-3.899,0.552
		c-4.831-0.179-9.665,0.242-14.496-0.048c-5.714-0.204-11.325-1.377-16.936-2.388c-3.885-0.711-7.871-1.287-11.494-2.943
		c2.526,0.652,5.134,0.783,7.729,0.821c3.854,0.017,7.636,0.828,11.453,1.253c8.892,1.187,17.874,0.404,26.804,0.352
		c1.577-0.497,2.93-1.729,3.747-3.164c-0.473-1.715-0.276-3.547-0.89-5.231c-1.594-5.138-5.983-8.92-10.773-11.049
		c-8.433-3.63-17.898-4.12-26.911-2.926c-13.733,1.715-27.377,5.697-39.178,13.071c-1.57,0.942-3.012,2.081-4.596,3.002
		c4.852-5.262,10.838-9.468,17.398-12.312c3.599-1.584,7.419-2.553,11.187-3.637C293.284,140.33,300.237,138.856,307.307,138.47
		 M312.442,311.801c1.235,0.735,1.732,2.167,2.277,3.42c0.842,2.343,2.119,4.496,3.326,6.667c1.128,2.019,2.678,3.747,3.968,5.656
		c-0.963-8.192-1.981-16.373-2.833-24.575C317.973,306.549,315.641,309.754,312.442,311.801 M281.666,306.614
		c3.485,9.027,7.402,17.888,11.001,26.87c0.435,1.68,2.377,2.001,3.62,2.905c-0.035-6.58,0.973-13.102,2.005-19.582
		c0.138-1.056,0.759-1.96,1.598-2.591c-2.032-0.014-4.068-0.169-6.09-0.349C289.043,312.95,285.175,309.758,281.666,306.614
		 M307.608,313.557c-1.846,0.003-3.633,0.493-5.369,1.07c-0.839,0.286-1.798,0.842-1.853,1.836
		c-0.097,1.266-0.732,2.616-0.138,3.844c1.584,4.041,5.859,6.384,7.053,10.642c1.736,0.29,3.392-0.614,5.103-0.383
		c0.038,0.224,0.114,0.673,0.148,0.901c1.318,0.445,2.215,1.556,2.974,2.66c1.67,2.46,2.854,5.2,4.086,7.895
		c1.608,3.212,3.575,6.239,5.11,9.493c0.048,0.031,0.148,0.097,0.2,0.131c-0.738-5.832-1.346-11.677-2.098-17.505
		c-0.083-0.473-0.366-0.876-0.58-1.29c-1.694-2.981-2.574-6.325-3.947-9.451c-1.032-2.298-1.912-4.745-3.675-6.604
		c0.645,4.5-0.359,9.165-2.308,13.23c0-2.336,0.466-4.638,0.594-6.967c0.19-2.533-0.279-5.052-0.204-7.584
		c0.224-1.28-1.152-1.932-2.057-2.478C309.612,312.936,308.65,313.543,307.608,313.557 M299.285,322.767
		c-0.649,3.91-1.09,7.864-2.032,11.722c-0.259,1.011-0.556,2.019-0.663,3.064c-1.056,0.252-1.87-0.525-2.688-1.042
		c4.372,10.552,8.606,21.176,13.564,31.469c-0.59-4.265-0.362-8.589-0.825-12.86c-0.455-4.796-0.342-9.62-0.645-14.42
		c-0.166-2.798-0.259-5.697,0.735-8.368c-0.645-0.48-0.828-1.332-1.501-1.774c-1.466-1.101-2.353-2.74-3.42-4.189
		C300.938,325.189,300.082,323.998,299.285,322.767z"/>
	<path fill="#272324" d="M279.896,164.087c-0.11,0.504-0.259,1.001-0.459,1.48c-2.391,5.593-3.268,11.708-3.478,17.746
		c-0.211,5.297,0.028,10.704-1.418,15.856c-0.155-0.428-0.276-0.87-0.297-1.325c-0.469-7.067-0.866-14.237,0.424-21.245
		C275.458,172.103,277.197,167.776,279.896,164.087z"/>
	<path fill="#272324" d="M291.007,194.176c4.22-1.435,8.758-0.7,12.971,0.366c2.733,0.749,5.511,1.774,7.622,3.73
		c0.28,0.141,0.697,0.956,0.09,0.89c-2.16-0.145-4.003-1.449-6.004-2.153c-3.985-1.48-8.323-2.605-12.588-1.856
		c-2.619,0.449-4.424,2.588-6.805,3.575C286.666,196.35,288.867,194.853,291.007,194.176z"/>
	<path fill="#272324" d="M329.543,199.746c2.208-0.732,4.703-1.101,6.946-0.304c1.27,0.424,2.136,1.594,2.35,2.898
		c-1.335-0.79-2.785-1.377-4.331-1.57c0.68,1.339,0.887,3.03-0.059,4.296c-1.19,1.794-4.161,1.529-5.259-0.235
		c-0.683-0.935-0.673-2.132-0.411-3.209c-0.535,0.028-1.066,0.059-1.598,0.097C327.283,200.474,328.573,200.129,329.543,199.746
		 M329.75,202.044c-0.718,0.587-0.524,1.856,0.345,2.191c0.921,0.397,1.894-0.687,1.56-1.587
		C331.444,201.858,330.375,201.443,329.75,202.044z"/>
	<path fill="#272324" d="M271.117,206.25c1.46-1.725,2.654-3.654,3.478-5.759c-0.093,4.227-2.674,8.14-6.166,10.39
		C268.709,209.062,270.086,207.692,271.117,206.25z"/>
	<path fill="#272324" d="M292.618,203.238c2.871-1.884,6.37-2.685,9.776-2.598c1.891,0.083,4.13,0.859,4.779,2.816
		c-2.112-0.576-4.282-0.977-6.484-0.925c1.518,1.653,1.242,4.469-0.642,5.714c-1.749,1.297-4.382,0.524-5.518-1.222
		c-0.524-0.814-0.373-1.836-0.39-2.754c-1.753,0.914-3.095,2.353-4.5,3.699C289.551,205.929,290.989,204.266,292.618,203.238
		 M295.541,204.408c-0.797,0.531-0.642,1.925,0.273,2.236c0.773,0.362,1.684-0.424,1.605-1.232
		C297.459,204.494,296.279,203.783,295.541,204.408z"/>
	<path fill="#272324" d="M322.09,201.06h0.204c0.631,3.351,1.491,6.67,2.681,9.869c1.166,3.123,3.33,5.762,4.448,8.906
		c-2.343-0.48-3.627-2.798-4.562-4.789C323.001,210.653,321.479,205.888,322.09,201.06z"/>
	<path fill="#272324" d="M330.326,206.775c2.005,0.048,3.975-0.483,5.983-0.324c-1.542,1.366-3.709,1.273-5.635,1.346
		c-0.973,0.062-1.939-0.107-2.843-0.452C328.56,206.823,329.457,206.754,330.326,206.775z"/>
	<path fill="#272324" d="M298.27,209.38c1.925-0.066,3.854-0.359,5.78-0.09c-1.687,1.152-3.83,1.197-5.797,1.121
		c-1.656-0.138-3.333-0.217-4.945-0.642C294.947,209.497,296.611,209.442,298.27,209.38z"/>
	<path fill="#272324" d="M251.239,223.724c0.604-1.919,2.843-3.716,4.879-2.709c2.547,1.259,3.578,4.203,3.903,6.853
		c0.235,1.256-0.531,2.553,0.086,3.761c0.397,0.945,0.776,1.925,0.656,2.974c-2.184,0.604-3.651-1.767-3.589-3.675
		c-0.135-1.287,0.783-2.277,1.201-3.406c-0.317-1.473-1.056-2.847-2.005-4.01c-0.528-0.631-1.418-1.322-2.267-0.849
		c-1.039,0.48-1.449,1.691-1.501,2.76c-0.135,1.429,0.342,2.805,0.759,4.151C251.836,228.089,250.745,225.881,251.239,223.724z"/>
	<path fill="#272324" d="M322.107,226.012c2.802-0.452,5.124-2.353,7.933-2.767c0.152,0.041,0.459,0.121,0.614,0.162
		c-0.594,1.677-2.267,2.671-3.775,3.44c-3.423,1.546-7.56,2.084-11.063,0.48C317.732,226.253,320.016,226.457,322.107,226.012z"/>
	<path fill="#272324" d="M334.567,233.248c0.807,0.3,1.484,0.932,1.663,1.801c0.452,1.919,0.193,4.037-0.814,5.749
		c-0.794-0.901-0.487-2.212-0.487-3.306C335.099,236.063,335.002,234.621,334.567,233.248z"/>
	<path fill="#272324" d="M294.751,239.88c-1.177-2.509,1.146-5.652,3.806-5.738c-0.259,1.263-1.339,2.091-1.867,3.226
		c-0.538,0.963-0.576,2.081-0.759,3.143C295.461,241.232,295.027,240.249,294.751,239.88z"/>
	<path fill="#272324" d="M332.19,236.695c0.197-0.359,0.431-0.69,0.676-1.011c0.269,2.253-0.438,4.451-0.576,6.687
		c-0.128,1.656-0.759,3.202-1.228,4.776c-0.849,4.372-4.893,7.871-9.337,8.109c-1.963,0.076-3.906,0.549-5.876,0.366
		c-4.662-0.324-8.758-3.485-11.066-7.426c-1.242-2.257-2.66-4.444-3.533-6.884c-0.569-1.598-1.739-2.978-1.874-4.724
		c3.796,1.998,8.226,1.301,12.343,1.339c4.586,0.128,9.175-0.152,13.758,0.162C327.735,237.882,330.223,238.016,332.19,236.695
		 M325.982,238.972c-5.411,0.845-10.904,0.635-16.359,0.756c-2.55,0.083-5.155,0.048-7.591-0.804c0.542,1.36,1.07,2.747,1.891,3.968
		c1.242,0.697,2.65,1.07,4.023,1.418c4.117,0.369,8.261,0.269,12.374-0.045c2.926-0.297,5.945-0.631,8.633-1.905
		c1.408-0.573,2.195-2.07,2.091-3.558C329.357,238.938,327.662,238.817,325.982,238.972z"/>
	<path fill="#272324" d="M517.677,251.467c21.528-1.691,43.053-3.385,64.581-5.076c1.829-0.217,3.665-0.093,5.5-0.038
		c1.142-0.197,1.025,1.915-0.031,1.839c-3.827,0.911-7.778,0.935-11.673,1.311c-41.207,3.237-82.397,6.673-123.607,9.814
		c-21.025,1.687-42.056,3.523-63.149,4.003c2.967,14.893,5.107,29.934,7.381,44.944c4.462,30.552,8.423,61.172,12.809,91.731
		c2.253,16,4.503,32.001,6.76,48.001c0.373,2.098,0.469,4.227,0.476,6.359c4.5-0.873,9.079-1.222,13.633-1.691
		c10.117-0.945,20.272-1.432,30.41-2.105c8.84-0.576,17.677-1.197,26.518-1.801c1.384-0.09,2.774-0.28,4.168-0.162
		c-0.311-1.439-0.742-3.206,0.3-4.444c1.132-1.073,2.902-0.594,4.054,0.207c2.084,1.466,3.647,3.527,5.328,5.417
		c-1.484-3.606-2.75-7.578-1.77-11.49c0.242-1.17,1.142-2.412,2.474-2.277c2.733,0.179,4.475,2.657,5.814,4.772
		c-0.362-1.967-0.562-4.234,0.756-5.911c0.597-0.825,1.705-0.666,2.56-0.431c2.364,0.642,4.165,2.547,5.307,4.638
		c0.211,0.314,0.338,0.821,0.794,0.866c-0.701-0.556-0.456-1.542-0.562-2.315c0.01-1.484,0.255-3.495,1.867-4.082
		c2.343-0.525,4.217,1.525,5.2,3.406c1.529,3.043,2.529,6.377,2.912,9.765c3.264-0.507,6.58-0.58,9.869-0.89
		c9.772-0.766,19.544-1.515,29.313-2.346c9.078-0.773,18.161-1.577,27.263-1.998c4.134-0.176,8.275-0.4,12.412-0.159
		c0.521-0.086,0.866,0.176,1.046,0.656c-3.602,0.942-7.322,1.328-11.011,1.763c-9.089,1.052-18.212,1.708-27.336,2.34
		c-12.305,0.852-24.603,1.829-36.901,2.774c-1.556,0.107-3.109,0.338-4.669,0.228c-0.39,1.68,0.286,3.623-0.801,5.107
		c-0.749,1.101-2.288,1.484-3.495,0.966c-1.411-0.587-2.308-1.912-3.005-3.206c-0.318,1.577-0.866,3.206-2.07,4.337
		c-0.911,0.863-2.343,1.18-3.499,0.638c-1.104-0.504-1.777-1.57-2.398-2.56c-0.107,1.981-0.369,4.444-2.264,5.559
		c-1.677,0.921-3.506-0.231-4.61-1.498c-0.148,1.242-0.914,2.481-2.184,2.809c-1.936,0.5-3.737-0.756-5.069-2.022
		c-1.308-1.208-1.591-3.037-2.236-4.607c-0.983,2.723-2.533,5.255-4.551,7.339c0.562-3.181,1.049-6.604,3.054-9.248
		c-0.397-0.669-0.783-1.342-1.152-2.022c-1.887,0.725-3.944,0.566-5.921,0.776c-9.365,0.697-18.751,1.208-28.102,2.063
		c3.009,1.429,6.335,2.081,9.531,2.995c4.82,1.146,9.572,2.598,14.451,3.502c2.357,0.476,4.993,0.186,7.06,1.622
		c0.445,0.293,1.139,0.925,0.404,1.353c-1.953,0.714-4.099,0.414-6.097,0.062c-3.633-0.773-7.236-1.718-10.752-2.926
		c-3.254-1.104-6.29-2.747-9.52-3.916c-1.801-0.666-3.627-1.332-5.255-2.367c-0.59-0.462-1.349-0.273-2.029-0.242
		c-11.615,0.901-23.233,1.867-34.886,2.032c-2.067-0.014-4.141,0.014-6.19-0.279c0.135-1.601-0.697-3.037-0.873-4.593
		c-0.956-6.332-1.767-12.684-2.688-19.02c-2.774-1.853-4.765-4.575-7.084-6.922c-4.896-4.703-9.327-9.896-13.143-15.514
		c-2.043-3.064-3.606-6.411-5.248-9.696c2.698,3.634,5.687,7.043,8.509,10.586c2.409,2.974,4.917,5.876,7.681,8.53
		c2.892,2.823,5.911,5.518,8.64,8.502c-3.968-28.033-7.961-56.062-11.932-84.095c-3.671-26.804-8.202-53.522-10.276-80.516
		c7.957-1.139,15.956-1.994,23.968-2.681C447.491,256.801,482.591,254.224,517.677,251.467 M518.553,436.057
		c-0.59,2.108,0.131,4.272,0.386,6.38c0.21,1.408-0.342,2.919,0.435,4.217c1.187,2.277,1.643,5.366,4.241,6.525
		c0.811-0.997,1.487-2.336,1.128-3.644c-0.576-2.288-0.569-4.682-1.28-6.939c-0.645-2.329-0.939-5.117-3.033-6.667
		C519.895,435.456,518.819,435.132,518.553,436.057 M509.226,436.878c0.597,2.271,0.99,4.596,1.125,6.946
		c0.055,1.66,0.721,3.206,1.063,4.817c0.566,2.253,1.308,4.731,3.288,6.152c0.58,0.466,1.384,0.141,1.743-0.438
		c0.911-1.329,1.273-2.93,1.77-4.437c0.407-1.008-0.338-1.936-0.673-2.84c-0.828-2.112-1.736-4.189-2.788-6.194
		c-0.814-1.539-1.674-3.112-2.974-4.289C510.996,435.908,509.992,436.498,509.226,436.878 M501.604,438.141
		c-0.849,0.835-0.811,2.167-0.863,3.275c0.148,2.657,0.828,5.266,1.677,7.778c1.218,2.691,1.908,5.766,4.092,7.898
		c0.442,0.459,1.163,1.159,1.725,0.435c1.249-1.477,1.373-3.533,1.736-5.355c0.311-1.691-1.008-2.981-1.701-4.368
		c-1.622-3.15-2.502-6.853-5.255-9.279C502.656,438.227,502.042,437.727,501.604,438.141 M492.681,446.605
		c0.207,2.343,1.228,4.506,2.198,6.618c0.4,1.215,1.48,1.991,2.184,3.019c1.087,1.449,2.754,3.106,4.71,2.781
		c0.428-0.918,0.68-1.905,1.101-2.823c-0.286-0.7-0.518-1.449-1.083-1.977c-1.56-1.636-2.357-3.816-3.851-5.5
		c-1.225-1.422-2.467-3.178-4.437-3.533C492.739,445.149,492.629,446.025,492.681,446.605z"/>
	<path fill="#272324" d="M588.683,247.012c0.197-0.024,0.59-0.076,0.79-0.1c1.963,12.688,3.285,25.462,4.686,38.219
		c3.516,33.423,6.228,66.924,9.513,100.371c1.715,17.757,3.344,35.527,5.117,53.281v1.073c-0.152,0.845,0.114,1.812-0.321,2.574
		c-0.742,0.652-1.791-0.079-1.732-0.97c-1.018-4.075-1.035-8.309-1.539-12.457c-3.392-35.558-6.967-71.1-10.29-106.661
		c-1.549-17.008-3.416-33.988-4.738-51.017C589.494,263.233,589.145,255.118,588.683,247.012z"/>
	<path fill="#272324" d="M321.055,259.307c2.357-0.497,4.344-1.908,6.515-2.864c-0.576,3.043-3.599,4.907-6.518,5.145
		c-3.996,0.366-8.344-0.659-11.346-3.426C313.418,258.937,317.238,260.193,321.055,259.307z"/>
	<path fill="#272324" d="M369.325,311.069c4.406,3.737,7.426,8.796,10.417,13.671c3.799,6.577,7.843,13.012,12.222,19.223
		c2.657,3.73,4.783,7.805,7.157,11.718c-0.59,0.148-0.977-0.328-1.349-0.666c-2.526-2.453-4.572-5.335-6.663-8.147
		c-2.895-3.713-5.621-7.557-8.105-11.56c-3.754-6.09-7.747-12.049-11.042-18.409C371.019,314.985,369.97,313.105,369.325,311.069z"
		/>
	<path fill="#272324" d="M369.404,319.109c-0.331-1.812-0.849-3.599-1.008-5.438c4.938,12.263,8.009,25.186,10.731,38.095
		c2.398,11.542,4.431,23.316,3.699,35.151l-0.342,0.014c-0.628-8.713-2.157-17.329-3.923-25.873
		C375.719,347.028,372.386,333.108,369.404,319.109z"/>
	<path fill="#272324" d="M245.797,323.426c2.295-1.739,4.434-3.747,7.05-4.996c-0.856,1.401-2.288,2.302-3.347,3.537
		c-3.702,4.217-7.878,7.988-11.639,12.15c-3.437,3.702-6.539,7.781-10.669,10.762c2.888-4.993,6.874-9.199,10.652-13.513
		c-4.745,3.102-9.593,6.039-14.482,8.909c-1.653,0.894-3.351,1.836-5.231,2.146c-0.035-0.166-0.1-0.49-0.135-0.652
		c1.325-1.546,3.026-2.712,4.717-3.823c4.506-2.829,8.958-5.742,13.43-8.623C239.341,327.321,242.85,325.81,245.797,323.426z"/>
	<path fill="#272324" d="M337.635,335.568c2.16-1.115,4.092-2.764,6.501-3.33c0.821-0.224,1.674-0.021,2.346,0.487
		c-1.059,1.705-3.085,2.302-4.827,3.04c-2.564,0.956-4.689,2.778-7.257,3.727C334.339,337.535,336.147,336.417,337.635,335.568z"/>
	<path fill="#272324" d="M335.085,339.302c3.295,0.186,6.349,1.546,9.32,2.878c3.109,1.415,6.47,2.923,8.468,5.835
		c-0.273-0.045-0.814-0.131-1.083-0.173c-3.185-1.301-6.09-3.188-9.248-4.548C339.964,342.159,337.224,341.203,335.085,339.302z"/>
	<path fill="#272324" d="M267.353,345.661c2.519-1.832,5.807-1.963,8.799-1.76c2.654,0.221,5.407-0.01,7.957,0.883
		c0.383,0.186,1.501,0.738,0.735,1.152c-1.339,0.414-1.891,1.753-2.836,2.66c-1.522,1.567-3.233,2.954-4.569,4.696
		c-1.784,2.139-3.199,4.551-4.886,6.76c-0.034-3.602,2.46-6.432,4.569-9.085c1.152-1.501,2.298-3.012,3.609-4.382
		C276.311,345.875,271.835,345.42,267.353,345.661z"/>
	<path fill="#272324" d="M216.374,348.518c0.328-1.453,0.497-2.947,1.018-4.351c0.597,8.782-2.036,17.329-2.898,26.004
		c-0.952,7.971-1.556,15.98-1.932,23.996c-0.438,10.555-0.221,21.121,0.01,31.676c0.649,5,1.867,9.914,2.688,14.886
		c0.908-3.416,2.032-6.843,3.972-9.824c-0.386,5.621-1.929,11.09-2.305,16.715c-0.386,4.893,0.421,9.779,1.404,14.558
		c0.449,2.357,1.525,4.517,2.329,6.76c0.21,0.911,1.218,1.125,1.953,1.467c4.01,1.511,8.292,2.119,12.522,2.64
		c6.063,0.742,12.194,0.538,18.25-0.176c-6.473-1.556-13.516-2.919-18.516-7.653c1.449,0.6,2.833,1.36,4.317,1.887
		c5.662,2.115,11.701,2.802,17.612,3.872c7.422,1.339,14.893,2.612,22.45,2.76c6.221,0.035,12.446-0.221,18.637-0.832
		c4.855-0.442,9.634-1.442,14.465-2.074c1.146-0.121,2.412-0.3,3.468,0.29c0.897,0.414,0.373,2.063-0.628,1.791
		c-2.671-0.411-5.193,0.742-7.798,1.087c-4.382,0.89-8.847,1.19-13.288,1.618c-7.595,0.673-15.259,1.163-22.86,0.342
		c1.335,2.326,1.922,4.965,2.412,7.574h-3.164c-0.293-1.235-0.497-2.491-0.925-3.689c-0.535-1.553-1.463-2.923-2.25-4.348
		c-3.026-0.383-6.004-1.101-9.013-1.539c-11.773,2.609-24.406,3.223-35.941-0.804c-3.13-0.994-5.528-3.74-6.294-6.908
		c-1.152-4.727-2.274-9.544-2.132-14.444c0-1.063,0.173-2.16-0.2-3.178c-1.094-3.212-1.166-6.635-1.791-9.945
		c-0.597-3.295-0.87-6.632-1.239-9.952c-1.032-5.117-1.173-10.348-1.494-15.542v-15.704c0.552-9.855,1.194-19.734,2.819-29.482
		C213.113,361.427,214.962,355.019,216.374,348.518z"/>
	<path fill="#272324" d="M219.365,350.603c4.023,0.618,6.725,4.082,8.771,7.305c3.444,5.804,6.387,11.905,8.771,18.219
		c1.173,3.157,2.488,6.27,3.568,9.465c-0.317-0.252-0.594-0.545-0.776-0.904c-3.837-6.97-7.298-14.141-10.956-21.207
		C226.305,358.746,223.451,354.105,219.365,350.603z"/>
	<path fill="#272324" d="M353.187,355.823c0.3-1.712,0.3-3.544,1.135-5.103c1.235,4.42,0.121,9.037-0.949,13.371
		c-1.846,7.291-3.979,14.51-5.987,21.759c-2.022,7.191-4.22,14.358-7.198,21.221c-1.504,3.271-2.933,6.642-5.021,9.593
		c0.014-0.604,0.072-1.201,0.259-1.77c1.642-5.845,4.362-11.308,6.163-17.098c2.588-7.812,4.679-15.773,7.125-23.63
		C350.499,368.135,352.369,362.079,353.187,355.823z"/>
	<path fill="#272324" d="M273.726,363.076c3.771,3.834,7.343,7.864,11.097,11.715c5.055,5.297,10.21,10.493,15.466,15.586
		c4.724,4.593,9.437,9.21,13.764,14.185c2.719,3.192,5.428,6.442,7.588,10.052c-3.064-2.812-5.959-5.814-8.975-8.682
		c-4.437-4.417-8.74-8.972-13.23-13.34c-4.658-4.538-9.251-9.154-13.513-14.075C281.583,373.594,277.787,368.228,273.726,363.076z"
		/>
	<path fill="#272324" d="M239.748,389.394c3.561,3.206,5.466,7.743,7.419,12.015c3.816,8.437,6.653,17.27,9.551,26.052
		c1.425,4.089,1.732,8.53,3.689,12.443c1.353,0.255,2.629,1.08,4.044,0.814c6.491-0.694,12.933-1.784,19.334-3.057
		c6.753-1.335,13.575-2.985,20.507-2.595c-0.7,0.538-1.591,0.714-2.415,0.98c-7.305,2.195-14.838,3.451-22.329,4.81
		c-6.004,1.094-12.06,2.412-18.198,2.063c-1.642-0.145-3.337-0.242-4.883-0.863c0.714-0.193,1.435-0.355,2.153-0.525
		c-2.353-0.776-4.865-0.876-7.315-1.135c-4.413-0.435-8.495,2.019-11.48,5.062c-2.008,1.963-3.464,4.382-4.727,6.867
		c1.025-6.38,5.624-12.491,12.06-14.113c-1.439-0.404-2.947-0.839-4.451-0.5c-4.645,0.883-8.578,3.792-11.918,7.005
		c-2.081,1.994-3.723,4.41-4.838,7.067c0.069-4.151,2.578-7.802,5.562-10.493c3.723-3.347,8.437-5.932,13.526-6.111
		c-0.083-2.754,0.259-5.507-0.055-8.254c0.031-1.946-0.735-3.758-1.052-5.652c-0.566-3.068-0.835-6.201-1.787-9.186
		c-1.291-4.299-3.302-8.33-4.945-12.495c0.279,0.314,0.531,0.659,0.749,1.032c1.829,3.237,3.941,6.335,5.31,9.814
		c-0.276-4.268-0.797-8.526-0.721-12.809C241.542,394.915,240.179,392.286,239.748,389.394 M244.896,405.933
		c1.094,7.226,2.35,14.437,3.023,21.722c0.107,2.816,0.649,5.628,0.355,8.451c0.559,0.542,1.046,1.156,1.439,1.832
		c2.595-0.155,5.086,0.59,7.553,1.273c-1.063-2.771-1.632-5.697-2.56-8.509c-3.399-9.558-6.397-19.261-10.19-28.674
		C244.548,403.335,244.713,404.635,244.896,405.933z"/>
	<path fill="#272324" d="M384.435,421.802c-1.725-10.055-2.06-20.31-1.48-30.483c0.542,4.607,0.732,9.258,1.339,13.861
		c0.604,5.221,1.391,10.417,2.371,15.579c0.179,0.597-0.117,1.163-0.349,1.698c-3.606,1.211-7.453,1.152-11.19,1.608
		c-4.155,0.483-8.375,0.818-12.536,0.224c-4.751-0.669-9.586-1.108-14.375-0.559c-3.575,0.404-7.184,1.225-10.787,0.614
		c0.39-0.311,0.811-0.573,1.28-0.738c3.261-1.277,6.777-1.646,10.238-1.96c2.874-0.269,5.769-0.266,8.654-0.097
		c1.056-1.184,2.291-2.298,2.874-3.813c0.631-1.708,0.932-3.568,0.642-5.38c-2.36,2.088-5.279,3.426-8.354,4.058
		c-6.987,1.484-14.223,1.573-21.121,3.516c3.778-3.088,8.792-3.906,13.485-4.586c5.431-0.742,10.904-1.608,16.031-3.62
		c0.604,0.99,1.408,1.922,1.584,3.112c0.487,2.495-0.421,5.069-2.015,6.994c3.872,0.48,7.788,0.625,11.687,0.39
		C376.426,422.106,380.422,421.098,384.435,421.802z"/>
	<path fill="#272324" d="M330.095,406.295c0.186-0.231,0.376-0.456,0.566-0.68c0.269,3.319,1.684,6.784,0.538,10.069
		C330.747,412.565,330.506,409.418,330.095,406.295z"/>
	<path fill="#272324" d="M318.739,427.406c4.013-2.453,7.74-5.517,12.208-7.132c-0.645,1.27-1.794,2.146-2.812,3.095
		c-2.829,2.547-6.045,4.617-9.337,6.508c-1.674,0.921-3.068,2.233-4.607,3.351c1.48,2.733,1.798,5.863,2.277,8.882
		c0.583,3.309,1.094,6.663,2.305,9.82c5.604,3.244,12.081,4.368,18.423,5.155c2.039,0.207,4.13,0.469,6.166,0.104
		c0.945-0.493,1.808-1.135,2.667-1.763c0.614-0.535,1.422-1.004,1.58-1.874c0.711-2.726-0.311-5.576,0.407-8.295
		c0.676-2.315,2.402-4.186,2.916-6.556c0.49-2.578-1.156-5.045-0.611-7.626c0.38-1.553,1.049-3.337,2.712-3.885
		c-0.255,0.835-0.594,1.653-0.728,2.526c-0.424,3.147,1.525,6.249,0.487,9.368c-1.049,2.774-3.112,5.162-3.464,8.188
		c-0.304,2.705-1.591,5.455-0.745,8.171c0.262,0.01,0.79,0.024,1.052,0.035c1.853-1.97,1.263-4.869,2.377-7.163
		c0.711-1.715,2.243-2.912,3.005-4.593c0.701-1.746,0.366-3.73,1.166-5.442c0.476-1.208,1.325-2.395,1.159-3.751
		c-0.145-0.783-1.025-0.894-1.611-1.177c2.74-1.17,5.69-1.805,8.606-2.367c6.622-0.794,13.375-1.104,19.775-3.143
		c1.439-0.487,2.964-0.939,4.127-1.963c0.725-0.618,1.118-1.753,0.597-2.612c-0.452-0.759-1.442-0.769-2.188-0.997
		c0.104-0.176,0.314-0.528,0.418-0.707c1.877-0.307,3.702,1.097,3.83,3.005c0.245,1.874-1.339,3.223-2.719,4.179
		c1.308,4.496,1.781,9.192,2.671,13.785c1.152,6.342,2.647,12.615,4.003,18.916c1.653,7.402,3.209,14.844,5.493,22.084h-2.75
		c-2.243-6.701-3.758-13.613-5.269-20.507c-1.121-5.255-2.367-10.486-3.42-15.759c-1.18-5.8-1.87-11.687-2.926-17.508
		c-8.571,2.398-17.57,2.329-26.297,3.861c0.476,2.191-0.766,4.151-1.339,6.183c-0.504,1.625-0.531,3.385-1.249,4.948
		c-0.845,1.732-2.381,3.03-3.133,4.817c-0.673,1.663-0.556,3.561-1.46,5.145c-0.942,1.653-2.553,3.168-4.558,3.206
		c-1.632,0.09-3.081,0.935-4.676,1.208c-4.71,1.004-9.517,0.055-14.158-0.876c-3.223-0.645-6.57-1.422-9.199-3.516
		c0.221,0.818,0.845,1.694,0.445,2.557c-0.38,0.89-1.353,1.266-2.181,1.622c-1.732,0.628-3.295,1.68-5.117,2.063
		c1.039,2.571,2.491,4.986,3.223,7.678c-2.591-1.425-4.158-4.099-5.466-6.653c-2.674-5.711-4.134-11.918-4.986-18.143
		c-0.421-3.078-1.056-6.163-0.828-9.286c-0.221-0.031-0.666-0.097-0.89-0.128c2.098-1.591,4.748-1.95,7.215-2.633
		c0.638-0.166,1.304-0.169,1.96-0.179C314.564,429.618,316.79,428.621,318.739,427.406 M305.951,434.338
		c0.77,2.415,1.035,4.941,1.467,7.426c1.273,6.004,2.892,11.943,5.059,17.688c1.487-0.994,3.206-1.546,4.748-2.433
		c0.732-0.431,1.563-0.645,2.409-0.69c-2.56-2.626-3.516-6.294-4.22-9.786c-0.842-4.424-1.984-8.802-2.35-13.302
		C310.817,434.204,308.343,434.183,305.951,434.338z"/>
	<path fill="#272324" d="M338.718,461.412c0.097-0.656,0.159-1.542,1.004-1.598c1.318,3.823,1.884,7.867,2.774,11.808
		c0.725,4.034,1.722,8.016,3.009,11.908h-2.685c-1.38-5.003-2.402-10.096-3.24-15.214
		C339.243,466.025,338.484,463.751,338.718,461.412z"/>
	<path fill="#272324" d="M307.735,464.752c1.432-0.418,3.24,0.635,3.226,2.215c-0.135,1.881-2.874,2.843-4.11,1.373
		C305.686,467.26,306.007,465.007,307.735,464.752 M306.59,465.656c0.369,0.728,0.573,1.567,1.094,2.212
		c0.966,0.887,3.005-0.259,2.377-1.546C309.36,465.104,307.715,465.028,306.59,465.656z"/>
	<path fill="#272324" d="M300.441,465.753c1.301-0.528,2.916-0.003,3.765,1.087c0.904,1.184,0.386,3.247-1.132,3.613
		c-1.756,0.424-3.499-1.228-3.216-3.009c-0.179,0.069-0.535,0.204-0.711,0.273C299.726,467.15,299.595,466.07,300.441,465.753
		 M299.944,466.636c1.097,0.255,1.394,1.339,2.012,2.126c0.638,0.718,1.967,0.242,1.805-0.773
		C303.539,466.329,301.221,465.753,299.944,466.636z"/>
	<path fill="#272324" d="M347.721,466.443c1.646-1.467,4.448-0.707,5.452,1.159c1.349,2.464-1.077,6.128-3.927,5.466
		c-1.349-0.224-2.415-1.487-2.136-2.888c1.139,0.466,2.053,2.057,3.437,1.429c1.863-0.652,2.391-3.699,0.359-4.479
		c-1.753-0.828-3.361,0.642-4.068,2.136C346.679,468.244,346.872,467.112,347.721,466.443z"/>
	<path fill="#272324" d="M295.248,466.087c0.949-0.518,2.305-0.324,2.933,0.604c0.945,1.346,0.635,3.689-1.028,4.324
		c-1.729,0.552-4.134-1.08-3.689-2.985C293.988,467.326,294.54,466.612,295.248,466.087 M295.831,466.66
		c-1.263-0.034-1.836,1.522-1.125,2.464c0.58,0.863,2.26,1.442,2.785,0.238C298.212,468.175,297.439,466.153,295.831,466.66z"/>
	<path fill="#272324" d="M287.684,468.675c-0.09-1.332,1.729-2.771,2.809-1.663c1.729,0.286,2.56,2.612,1.37,3.892
		C290.203,472.129,287.584,470.742,287.684,468.675 M289.682,467.336c-0.676,0.431-1.011,1.325-0.6,2.063
		c0.421,0.987,2.305,1.242,2.533-0.003C292.056,468.22,290.758,467.222,289.682,467.336z"/>
</g>
</svg>
