<?xml version="1.0" encoding="utf-8"?>
<!-- Generator: Adobe Illustrator 17.0.0, SVG Export Plug-In . SVG Version: 6.00 Build 0)  -->
<!DOCTYPE svg PUBLIC "-//W3C//DTD SVG 1.1//EN" "http://www.w3.org/Graphics/SVG/1.1/DTD/svg11.dtd">
<svg version="1.1" id="Layer_1" xmlns="http://www.w3.org/2000/svg" xmlns:xlink="http://www.w3.org/1999/xlink" x="0px" y="0px"
	 width="800px" height="600px" viewBox="0 0 800 600" enable-background="new 0 0 800 600" xml:space="preserve">
<g>
	<path fill="#5A4A42" d="M498.862,312.494c2.034,32.76-10.661,54.324-38.089,64.695c5.995,11.367,29.314,15.774,30.02,24.497
		c-14.332,3.3-46.192-1.585-50.229-19.481c-18.013,1.752-35.759-5.232-50.087-15.774c-19.72,18.318-41.868,25.974-66.439,22.97
		c-10.024,21.772-60.885,43.58-88.54,21.882c24.981-2.976,47.074-6.282,62.083-28.788c-0.339-0.1-0.632-0.219-0.876-0.364
		c-7.216-2.908-14.363-5.864-21.444-8.869c-44.388-18.901-62.922-51.126-55.607-96.681c9.574-59.397,58.091-82.935,112.674-75.816
		c32.902,6.689,56.919,21.712,72.038,45.068C450.988,224.619,495.968,264.35,498.862,312.494L498.862,312.494z"/>
	<path fill="#F5F0DF" d="M225.248,264.731c-10.396,38.314,11.916,89.755,51.174,105.33c4.433,1.815,15.512,7.29,24.349,7.642
		c10.055,20.451-39.643,35.127-52.119,36.194c35.17,10.675,56.498-15.808,78.946-31.551c23.459,1.673,40.527-3.511,57.937-19.7
		h-0.074c0.631-0.484,1.28-0.967,1.963-1.451c2.379,0.632,4.823,0.993,7.344,1.09l-0.074,0.071
		c15.748,11.099,31.645,15.851,47.686,14.249c3.901,9.108,21.077,18.394,30.02,19.484c-5.969-3.795-13.364-9.278-16.212-16.067
		c0.814-4.413,4.885-8.135,8.795-9.961c16.479-7.75,25.957-20.935,28.427-39.543c6.143-46.992-31.178-104.994-85.775-79.885
		c-2.728-0.524-4.911-3.471-6.908-5.235C359.065,187.893,246.428,188.892,225.248,264.731L225.248,264.731z"/>
	<path fill="#FFFFFF" d="M312.961,206.281c-46.591,1.613-93.719,39.332-83.035,81.578s30.105,49.043,30.105,49.043
		s27.192-26.219,68.467-21.365c41.276,4.854,61.67,32.533,61.67,32.533s12.624-15.051,43.216-17.965s47.103,15.051,47.103,15.051
		s19.057-47.768-5.89-77.45c-24.947-29.681-65.554-10.379-65.554-10.379S372.568,204.219,312.961,206.281z"/>
</g>
</svg>
