<?xml version="1.0" encoding="utf-8"?>
<!-- Generator: Adobe Illustrator 17.0.0, SVG Export Plug-In . SVG Version: 6.00 Build 0)  -->
<!DOCTYPE svg PUBLIC "-//W3C//DTD SVG 1.1//EN" "http://www.w3.org/Graphics/SVG/1.1/DTD/svg11.dtd">
<svg version="1.1" id="Layer_1" xmlns="http://www.w3.org/2000/svg" xmlns:xlink="http://www.w3.org/1999/xlink" x="0px" y="0px"
	 width="800px" height="600px" viewBox="0 0 800 600" enable-background="new 0 0 800 600" xml:space="preserve">
<path fill="#242021" d="M354.436,58.364c10.414-11.116,24.985-17.778,40.009-19.626c10.303-1.691,20.966,0.12,30.409,4.463
	c13.269,6.126,24.957,15.671,33.994,27.119c7.632,12.234,9.508,27.286,8.676,41.441c0.249,0.333,0.748,1.007,0.998,1.34
	c5.507-1.266,11.772-3.234,17.048-0.166c4.38,2.855,6.209,8.316,6.976,13.241c-0.333,10.441-4.01,22.425-13.915,27.572
	c0.952,2.31,2.125,4.694,4.343,6.052c7.909,5.239,18.203,4.666,26.149,9.785c4.223,2.661,4.019,8.473,2.208,12.548
	c-2.781,6.135-8.473,10.293-14.193,13.5c-6.228,3.326-13.139,6.385-20.383,5.442c-12.261-1.303-22.823-8.177-33.495-13.786
	c-5.673,7.799-16.447,8.991-22.388,16.512c1.608,12.76-1.137,25.567-0.268,38.365c15.939,6.366,31.185,14.303,46.292,22.407
	c4.897,2.569,9.813,5.442,13.38,9.776c5.507,6.228,13.102,10.903,16.604,18.702c1.719,3.631-0.222,7.466-2.864,10.016
	c7.762,9.942,10.681,23.451,7.882,35.731c-1.654,7.235-6.246,14.276-13.435,16.928c-7.725,2.901-16.133,0.758-23.46-2.273
	c-0.887,7.244-1.284,14.572-0.49,21.843c4.158-1.072,8.852-2.227,12.927-0.259c1.58,0.674,2.07,2.43,2.818,3.844
	c4.371-0.046,7.253,3.336,8.954,6.967c5.599-1.903,12.409-2.07,17.076,2.079c7.494,6.662,8.713,18.924,3.659,27.387
	c-2.375,4.093-6.782,6.468-11.337,7.207c-0.471,3.936-2.569,7.651-6.089,9.619c-7.66,4.463-16.983,4.528-25.539,3.474
	c8.565,16.595,13.832,34.946,14.664,53.638c-5.904,1.608-10.894,5.285-16.521,7.549c3.197,17.048,2.504,34.493,3.872,51.716
	c1.229,3.012,4.833,4.5,7.9,4.916c8.584,0.841,16.447-3.576,24.791-4.676c5.368-0.813,10.866,2.005,13.694,6.57
	c3.557,5.35,3.751,12.252,1.857,18.249c-10.413,3.169-21.261,4.675-32.091,5.461c-8.649,0.462-17.538,0.619-25.927-1.839
	c-3.798-1.183-7.965-3.345-9.175-7.438c-1.183-4.204,0.952-8.288,2.874-11.892c-6.08-17.353-5.479-36.211-11.319-53.62
	c-5.248-0.222-10.737-1.987-13.943-6.394c-6.219-8.344-6.357-19.284-10.432-28.589c-5.701,6.93-5.923,16.235-7.623,24.634
	c-0.961,4.546-2.375,9.582-6.385,12.4c-2.67,1.959-6.108,2.153-9.286,2.319c-2.079,14.904-8.187,28.847-11.236,43.511
	c1.478,2.393,2.107,5.119,0.998,7.826c4.435,2.846,6.708,8.344,6.44,13.509c-0.074,1.977-1.562,4.121-3.77,3.77
	c-4.038-0.092-7.817,1.479-11.689,2.384c-12.271,3.058-24.736,5.757-37.404,6.348c-6.172,0.157-12.622,0.092-18.351-2.467
	c-3.945-1.737-7.179-5.535-7.364-9.961c-0.305-9.61,8.917-19.783,18.905-17.972c4.149,1.026,7.854,4.019,12.326,3.502
	c5.877-0.656,11.153-5.165,17.279-3.28c-0.129-3.52,1.719-6.551,4.546-8.51c-0.222-13.102,1.229-26.353,5.701-38.725
	c-5.877-0.397-12.585-1.294-16.614-6.08c-2.652-3.142-1.83-7.475-0.545-10.996c-4.916-8.048-5.027-17.99-4.019-27.082
	c1.044-6.967,3.058-14.913,9.554-18.757c1.294-2.319,2.301-4.796,2.726-7.41c-10.146,3.132-16.78,11.947-25.345,17.648
	c-6.043,4.139-13.574,6.311-20.882,5.341c-8.168-3.308-14.858-9.942-18.702-17.824c-3.779-7.789-5.027-16.623-4.537-25.198
	c0.259-4.768,3.955-8.436,7.835-10.746c9.397-5.618,20.531-7.263,30.067-12.585c-3.188-5.507-0.795-11.836-0.517-17.713
	c3.114-1.294,6.219-2.587,9.351-3.844c1.728-5.285,2.717-10.774,4.213-16.124c-7.447,0.231-15.043-2.966-19.367-9.166
	c-7.836-10.986-7.512-26.269-1.543-38.023c-2.837-2.199-7.512-3.862-7.337-8.14c0.638-3.585,2.892-6.588,4.777-9.619
	c8.196-12.04,19.977-21.095,32.285-28.626c11.3-6.856,23.313-12.465,35.537-17.473c-5.082-11.735,0.425-24.597-2.292-36.683
	c-0.453-1.672-0.924-3.511-2.393-4.574c-4.444-3.336-9.914-4.796-14.793-7.309c-17.556-10.303-30.769-27.6-36.045-47.272
	c-4.574,0.212-9.388-0.564-13.019-3.548c-6.348-5.036-8.833-13.703-8.011-21.538c0.582-6.135,3.641-12.428,9.259-15.403
	c3.354-1.922,7.318-2.079,11.088-1.968C334.884,89.91,341.593,71.864,354.436,58.364 M358.964,63.798
	c-11.984,11.282-19.293,26.768-22.601,42.735c14.775-5.461,30.557-7.605,46.237-8.307c17.02-0.665,34.105,0.323,50.959,2.846
	c0.638-2.181,1.229-4.38,1.654-6.607c-21.76-4.241-44.093-2.19-66.084-4.121c1.183-10.238,9.545-18.083,18.923-21.326
	c11.033-3.982,24.246-3.751,34.207,2.901c6.052,3.973,9.647,10.857,10.395,17.963c2.698,0.628,5.636,1.589,7.124,4.13
	c1.682,2.421,1.146,5.489,0.638,8.205c7.42,0.591,14.59,2.717,21.548,5.258c0.48-3.585,0.822-7.253,0.074-10.829
	c-1.719-9.305-7.41-17.214-9.757-26.325c-7.872-5.239-14.701-11.864-22.564-17.094c-7.096-4.805-15.422-8.196-24.089-8.14
	C388.523,45.484,371.392,51.896,358.964,63.798 M338.285,113.675c-1.451,13.684-1.183,27.609,0.822,41.238
	c1.756,10.709,11.143,17.149,18.24,24.347c8.861,10.099,20.522,17.898,33.532,21.455c14.276,4.315,30.862,0.859,41.238-10.136
	c7.993-7.835,15.191-16.595,20.559-26.454c8.094-14.581,11.393-31.545,10.275-48.131c-6.69-6.394-16.022-8.741-24.93-9.979
	c-9.462-1.238-19.025-1.58-28.552-1.525c2.236,2.744,5.766,4.352,7.087,7.817c-6.403-0.277-11.134-5.137-17.168-6.597
	c2.522,3.641,6.126,6.32,9.055,9.61c-5.128,3.659-10.229-1.386-13.823-4.749c0.573,1.414,1.127,2.809,1.663,4.26
	c-3.262-0.388-6.523-1.266-9.231-3.179c-4.158-2.486-6.773-6.819-10.663-9.554C362.845,101.829,349.659,106.533,338.285,113.675
	 M322.826,115.532c-5.821,3.447-8.316,10.672-8.03,17.159c0.194,4.426,1.95,9.443,6.237,11.458
	c3.243,1.515,6.875,0.554,10.035-0.674c0.342-4.37,0.693-8.741,0.702-13.121c-1.127-0.952-2.236-1.903-3.336-2.864
	c-1.599,1.229-3.058,2.8-5.036,3.41c-1.358,0.582-2.883-0.416-3.031-1.83c-0.536-3.604,2.07-7.568,5.757-8.094
	c2.19-0.397,4.269,0.601,6.292,1.257c0.388-2.68,0.933-5.332,1.552-7.956C330.246,113.703,326.162,113.463,322.826,115.532
	 M467.035,121.141c0.213,0.832,0.638,2.504,0.85,3.345c3.881-1.192,8.39-1.515,12.021,0.61c1.072,0.582,1.562,1.746,1.562,2.938
	c-3.807,2.698-9.841,1.617-12.474,6.08c-1.811,4.315-0.434,9.074-0.397,13.574c3.973-0.628,8.002-1.968,10.885-4.916
	c5.054-5.073,7.032-12.4,7.752-19.321c-0.674-3.142-3.668-5.331-6.736-5.812C475.748,116.789,470.925,118.452,467.035,121.141
	 M465.695,157.519c-6.255,8.741-9.785,19.829-19.025,26.149c4.943,4.657,11.476,7.29,18.147,8.214
	c9.831,1.377,20.328,0,28.977-5.091c4.943-2.855,8.806-7.558,10.182-13.148c-10.977-4.167-24.292-7.041-30.474-18.147
	C470.953,156.355,468.255,156.697,465.695,157.519 M392.699,209.383c0.961,2.079,1.857,4.232,2.061,6.551
	c1.118,10.82-1.857,21.594-0.924,32.414c0.185,3.206,1.793,6.884,5.359,7.364c6.098,1.183,14.599-2.208,14.849-9.286
	c0.933-12.871-5.174-25.484-2.458-38.337C405.478,209.937,399.001,210.159,392.699,209.383 M422.091,247.803
	c-0.619,3.003-1.811,6.015-4.334,7.928c-6.08,4.869-14.766,6.699-22.213,4.278c-3.742-1.155-6.311-4.435-7.364-8.094
	c-1.885,0.277-3.761,0.573-5.636,0.915c3.437,5.165,7.706,9.748,10.839,15.117c4.334,7.799,7.429,16.678,13.943,22.998
	c5.969,2.282,13.167,1.432,18.277,5.941c0.758-2.218,2.596-3.557,4.694-4.37c3.659-12.557,5.184-25.622,6.135-38.632
	C431.618,251.896,427.469,248.246,422.091,247.803 M372.223,257.302c8.335,8.824,12.659,20.513,20.559,29.67
	c2.439,2.911,5.646,5.147,9.323,6.209c-4.186-8.686-9.619-16.697-14.673-24.883c-2.652-3.982-5.35-8.27-9.582-10.728
	C376.132,256.433,374.071,256.923,372.223,257.302 M433.207,293.06c1.608-0.028,3.225-0.037,4.842-0.028
	c2.541-11.605,5.701-23.239,5.683-35.204C436.173,268.066,438.862,281.963,433.207,293.06 M363.676,260.868
	c-7.845,2.855-12.751,10.506-20.651,13.287c-5.47,8.917-12.696,16.54-18.554,25.179c10.192,1.404,17.223,9.443,25.669,14.424
	c1.793-4.13,2.911-9.203,7.272-11.439c0.388,5.997-4.232,10.737-4.371,16.669c2.153-1.423,4.213-3.271,4.777-5.914
	c1.682-6.496-0.887-13.102-0.296-19.644c0.231-2.282,2.624-3.41,4.592-3.862c4.638-0.979,10.173-0.231,13.352,3.631
	c0.425-1.321,0.841-2.966,2.439-3.243c4.139-0.693,8.325,0.416,12.502,0.231c-6.145-8.898-11.698-18.24-18.656-26.537
	C369.913,261.192,366.679,259.686,363.676,260.868 M448.462,260.637c-2.846,10.792-4.731,21.899-9.009,32.266
	c2.079,1.016,3.086,3.04,3.705,5.174c1.562,0.564,3.594,0.711,4.537,2.301c0.693,1.441,0.564,3.123,0.998,4.666
	c1.294,1.571,2.855,2.892,4.315,4.315c1.839-5.045,7.919-7.919,12.945-5.932c2.245,0.748,3.317,2.984,4.278,4.971
	c1.478-3.068,3.114-6.135,5.609-8.492c4.167-4.241,10.201-5.738,15.957-6.08C480.47,279.311,465.298,267.992,448.462,260.637
	 M364.693,293.181c1.848,3.881,2.938,9.148-0.832,12.28c0.444,2.652,0.878,5.47-0.222,8.048c-2.227,5.525-7.734,9.185-13.389,10.469
	c-3.548,0.795-8.039,0.536-10.349-2.661c-1.987-2.735-1.358-6.283-0.961-9.388c-2.975-2.292-5.978-4.851-9.878-5.221
	c-6.2,9.767-9.36,22.241-5.184,33.403c2.606,7.022,10.025,10.709,17.103,11.485c14.839,1.802,29.651-1.876,44.518-1.09
	c-5.064-1.746-10.478-2.014-15.588-3.594c-0.249-1.589-0.499-3.169-0.721-4.731c5.692-0.554,11.282,1.441,16.974,0.702
	c-0.342-0.943-0.684-1.876-1.035-2.79c-4.934-0.434-9.767,0.878-14.682,1.118c-0.499-2.966-0.647-6.006-0.139-8.972
	c2.051-0.111,4.112,0.046,6.172,0.037c-2.837-1.247-7.253-2.532-6.681-6.477c1.478-6.071,8.769-7.531,14.128-7.447
	c-5.544-4.463-14.747,1.404-19.007-5.119c5.47-4.611,6.514-12.991,3.216-19.164C366.984,293.754,365.838,293.467,364.693,293.181
	 M407.649,295.417c-9.249,2.984-16.808,13.241-13.851,23.1c1.765,7.466,10.571,10.912,17.538,9.831
	c9.379-2.042,14.082-13.241,11.873-21.982C421.796,299.593,414.589,293.901,407.649,295.417 M433.771,297.921
	c1.127,0.804,1.83,0.61,2.116-0.564C434.75,296.526,434.048,296.72,433.771,297.921 M376.344,298.872
	c0.046,4.481-1.441,8.732-3.52,12.65c3.862-0.092,7.965,0.268,11.236,2.522c2.855,1.774,5.396,5.433,3.825,8.852
	c-2.125,3.835-7.096,3.825-10.903,4.26c4.592,1.423,9.693,2.338,13.38,5.636c1.894,1.608,0.942,4.13,0.231,6.08
	c14.692,2.458,29.531-0.85,43.696-4.638c-2.31-1.275-4.962-2.162-6.773-4.149c-0.896-1.368-2.134-3.705-0.148-4.703
	c4.731-3.419,10.922-2.07,16.216-1.044c-3.04-4.796-10.792-5.516-11.402-11.92c0.804-0.148,2.412-0.443,3.206-0.591
	c-1.358-4.675,3.788-6.311,7.013-7.872c-4.509-2.92-10.025-1.109-15.024-1.497c2.208,4.74,2.56,10.09,1.977,15.237
	c-0.795,6.985-5.988,13.638-13.112,14.913c-11.153,2.014-23.765-5.202-26.676-16.364c-1.617-6.329,1.451-12.613,5.553-17.27
	C388.864,298.549,382.6,299.103,376.344,298.872 M475.462,310.21c6.616,1.802,10.45,8.418,11.698,14.766
	c0.758,3.844,0.453,8.565-2.79,11.254c-2.938,2.227-6.865,2.181-10.377,2.292c-6.08-0.092-13.01-1.839-16.512-7.253
	c-2.587-4.103-1.497-9.231,0.425-13.361c-6.145,0.36-9.323-5.535-14.488-7.512c2.717,4.047,9.73,5.091,9.212,10.968
	c-4.038-1.931-8.122-3.89-12.566-4.703c3.641,2.92,7.337,6.45,8.445,11.162c-0.139,2.449-2.929,1.441-4.454,1.053
	c-3.872-1.137-8.852-3.41-11.966,0.406c3.622,2.43,8.048,3.816,10.996,7.161c1.395,1.441,0.536,3.382-0.055,4.99
	c-4.879-1.534-10.099-2.957-15.209-1.756c-0.425,0.943-0.776,1.922-1.072,2.938c9.379-1.857,18.942,0.092,27.896,2.984
	c9.563,2.837,19.367,6.847,29.531,5.378c6.2-0.989,10.432-6.607,11.883-12.391c2.328-9.12,1.266-19.016-2.421-27.628
	c-1.7-3.594-4.195-7.789-8.501-8.39C480.488,302.402,477.79,306.865,475.462,310.21 M460.012,313.278
	c0.832-0.85,1.682-1.682,2.532-2.504c-0.018-1.571-0.037-3.151-0.055-4.703C460.89,308.168,459.846,310.607,460.012,313.278
	 M341.269,316.521c0.832,3.132,3.262,5.784,6.791,5.017c-0.037-0.721-0.129-2.171-0.166-2.892
	C345.686,317.907,343.478,317.195,341.269,316.521 M468.855,317.075c-5.424,1.497-7.928,8.362-5.895,13.324
	c2.264,4.241,8.113,3.899,11.994,2.421c3.89-1.404,8.371-4.953,7.152-9.6C480.387,317.805,474.094,315.181,468.855,317.075
	 M390.777,344.869c9.647-0.259,19.737,2.439,29.032-1.127C410.153,344.62,400.082,341.266,390.777,344.869 M385.824,348.02
	c1.571,1.894,4.121,3.696,3.816,6.477c-1.312,1.977-3.909,2.181-6.052,2.439c-7.743,0.564-15.459-0.638-23.174-1.053
	c-0.416,2.615-0.924,5.211-1.46,7.817c7.346,1.765,15.246,2.347,21.816,6.385c3.123,1.848,5.027,5.073,6.154,8.436
	c4.029,0.111,8.344,0.018,11.947,2.125c2.606,1.321,3.678,4.195,4.546,6.801c8.122-11.947,9.536-26.713,14.313-40.037
	C407.104,348.029,396.46,347.641,385.824,348.02 M408.693,389.776c6.006-13.583,10.561-27.766,15.172-41.876
	C417.287,361.242,412.676,375.472,408.693,389.776 M434.094,348.27c4.953,16.373,15.209,30.455,26.556,42.994
	c-0.286-2.005-0.028-3.992,0.388-5.941C450.976,373.763,445.478,358.757,434.094,348.27 M445.487,349.314
	c4.796,8.094,9.489,16.253,14.239,24.384c-1.746-7.78-3.308-15.726-2.661-23.738C453.267,349.055,449.349,348.852,445.487,349.314
	 M428.486,352.307c-4.195,13.592-12.437,25.549-16.188,39.298c-2.569,9.064-2.282,18.794,0.462,27.785
	c5.258,1.395,10.626,2.366,16.05,2.735c11.023,0.693,22.703,0.065,32.608-5.313c0.73-3.65,1.284-7.614-0.785-10.94
	C451.003,387.429,441.921,368.366,428.486,352.307 M352.034,373.033c2.292,2.07,5.341,2.994,8.279,3.761
	c5.646,1.331,12.095,1.34,16.928-2.292c-5.489-3.105-11.421-6.145-17.87-6.218C356.22,368.191,353.217,370.104,352.034,373.033
	 M469.058,379.224c1.793,0.065,3.604,0.037,5.405-0.139C472.902,377.329,470.786,378.373,469.058,379.224 M336.695,381.395
	c-0.471,3.484-1.081,6.967-1.072,10.515c6.052-2.467,12.954-3.326,19.21-1.044c14.775,5.064,23.802,22.296,19.875,37.367
	c4.86,0.268,9.545,1.682,14.331,2.467c-0.037-11.069-0.213-22.777-5.452-32.811c-2.92-5.821-9.249-9.61-15.791-9.092
	c-7.263-0.028-16.558,1.22-21.243-5.738C343.219,382.762,339.976,381.995,336.695,381.395 M471.83,384.638
	c-1.423,1.968-3.216,3.604-5.137,5.082c0.157,1.968,0.453,4.047,2.079,5.387c0.296-1.192,0.582-2.375,0.869-3.548
	c2.606-1.044,5.368-2.43,8.261-1.774c2.43,0.49,4.093,2.624,5.073,4.768c4.029,9.074,2.624,19.958,8.399,28.358
	c-3.465,2.236-6.634,5.35-10.811,6.145c-1.894,0.416-3.437-0.961-5.017-1.7c0.462,1.22,0.952,2.486,1.451,3.724
	c6.034-0.444,11.966-2.624,16.54-6.653c-1.469-14.497-6.671-28.237-12.391-41.525C478.058,383.576,474.944,384.111,471.83,384.638
	 M384.531,385.987c2.975,4.176,9.951,3.363,12.261-1.081C392.782,383.723,387.913,382.827,384.531,385.987 M494.265,389.572
	c2.596,2.412,5.156,5.036,6.477,8.399c2.522,5.535,2.273,11.781,1.562,17.695c7.032-5.332,6.015-16.115,1.645-22.823
	C501.962,389.489,497.869,388.362,494.265,389.572 M471.119,395.569c2.495,9.822,4.583,19.764,7.752,29.402
	c2.874-0.785,5.683-1.82,8.418-3.003c-3.151-10.164-4.897-20.91-10.146-30.289C475.148,392.991,473.189,394.368,471.119,395.569
	 M390.666,398.406c0.231,1.229,0.471,2.467,0.711,3.714c3.659-1.183,7.466-2.218,10.654-4.454c1.303-0.711,0.49-2.292-0.933-1.848
	C397.707,397.047,394.464,399.237,390.666,398.406 M325.543,402.536c2.707,1.802,5.544,3.456,7.965,5.655
	c9.092,7.734,13.647,19.432,15.172,31.028c5.128-2.375,9.748-6.708,10.663-12.511c1.691-10.414-4.796-21.03-13.906-25.807
	C339.199,397.519,331.133,398.165,325.543,402.536 M392.523,407.683c1.21,7.54,1.672,15.181,2.818,22.74
	c7.946-1.016,11.864-9.61,11.615-16.835c-0.083-3.622-1.118-8.279-4.999-9.573C398.363,403.118,395.175,405.613,392.523,407.683
	 M311.544,408.644c6.024,2.901,11.726,6.708,15.967,11.947c6.126,7.207,9.231,16.392,11.088,25.539
	c4.472-5.452,5.137-13.038,3.151-19.617c-2.393-8.298-7.937-16.364-16.262-19.506C320.867,405.206,315.748,406.306,311.544,408.644
	 M305.307,412.266c-4.472,0.979-8.316,4.906-8.501,9.61c-0.48,7.863,2.061,15.708,6.145,22.37
	c2.975,4.712,6.912,9.111,12.123,11.356c4.906,2.208,11.134,0.665,14.673-3.308c2.476-3.871,2.199-8.833,1.331-13.158
	c-2.051-8.649-6.819-16.678-13.453-22.582C314.279,413.698,309.872,411.083,305.307,412.266 M413.092,425.303
	c-3.16,4.777-8.159,8.177-13.777,9.351c-10.256,2.282-20.836,0.721-31.157-0.286c-0.314,3.557-1.146,7.032-1.922,10.515
	c10.201,1.441,20.411,2.837,30.557,4.62c3.557,13.241-1.654,26.593-4.029,39.575c-11.679-0.388-22.823,5.1-34.558,3.391
	c-0.425,2.356-0.887,4.712-1.331,7.078c6.431,2.495,13.185,4.093,20.014,5.017c6.653,0.785,13.62,1.275,20.078-0.869
	c3.548-1.137,6.884-4.029,7.133-7.946c0.48-9.85,4.158-19.071,6.644-28.496c2.125-7.632,3.003-15.81,0.721-23.516
	c6.126,1.164,9.859,6.745,11.365,12.409c3.881,12.881,2.984,26.851,8.242,39.381c14.756,5.276,30.058-1.044,43.89-6.163
	c-0.203-3.105-0.277-6.219-0.49-9.305c-8.408,2.495-15.2,9.693-24.357,9.674c-6.486-0.037-11.097-5.535-13.481-11.014
	c-4.481-10.192-5.886-21.622-4.86-32.654c9.101-3.761,18.591-6.468,28.043-9.184c-1.358-4.537-1.867-9.259-2.199-13.962
	C443.094,425.904,427.756,429.609,413.092,425.303 M437.19,447.914c3.955,4.176,2.901,10.478,5.747,15.2
	c1.691,2.661,5.276,2.328,7.965,1.82c6.209-1.497,11.125-5.858,15.893-9.859c-1.866-4.435-3.271-9.055-5.276-13.426
	C452.851,438.674,445.219,445.816,437.19,447.914 M359.269,453.19c-3.068,2.754-3.641,7.106-3.53,11.014
	c6.006,3.012,12.705,4.574,19.432,4.518c5.424-0.111,11.596-1.174,15.218-5.636c2.421-2.901,2.356-6.865,2.07-10.414
	c-5.978-1.266-11.994-2.476-18.092-2.948C369.211,449.42,363.325,449.54,359.269,453.19 M448.231,469.748
	c-3.419,0.527-6.708-0.767-9.536-2.559c2.874,5.452,3.539,12.474,8.51,16.567c5.405,0.028,10.875-1.109,15.745-3.474
	c3.779-1.876,7.475-4.962,8.325-9.296c0.785-3.548-0.878-6.93-2.486-9.961C462.128,464.305,455.771,468.842,448.231,469.748
	 M354.418,469.729c-0.924,5.461-0.822,11.033-1.802,16.493c12.04,2.966,24.366-0.388,36.544,0.508
	c0.952-5.803,0.48-11.689,0.73-17.538C378.414,472.28,365.857,473.74,354.418,469.729 M447.631,503.141
	c5.073,13.417,5.535,27.951,6.376,42.107c3.003-0.12,6.006-0.453,8.935-1.183c-1.21-14.664-3.779-29.171-6.681-43.585
	C453.387,501.385,450.504,502.263,447.631,503.141 M382.018,508.777c-0.009,2.615-1.987,4.01-4.232,4.786
	c-2.763,11.19-5.563,22.389-7.558,33.754c3.391,0.499,6.514,1.94,9.554,3.465c-0.453-14.017,2.033-28.016,6.616-41.229
	C384.928,509.295,383.468,509.027,382.018,508.777 M453.332,549.508c0.85,4.352,6.219,4.62,9.175,2.236
	C459.282,551.744,456.122,551.171,453.332,549.508 M363.177,552.427c-1.035,0.887,0.259,2.966,1.515,2.319
	C365.663,553.841,364.425,551.706,363.177,552.427 M368.176,553.277c-0.61,1.146-1.21,2.31-1.802,3.484
	c3.456,1.728,7.364,1.451,11.116,1.358c0.739-1.211,1.515-2.366,2.273-3.539C375.984,553.582,372.085,553.167,368.176,553.277
	 M487.76,560.484c-0.074-1.09-0.129-2.181-0.166-3.252c-6.098,2.07-12.252-0.397-18.221-1.571c-0.342,0.443-1.026,1.34-1.358,1.783
	c-3.835,0.85-7.531,2.504-11.532,2.365c-0.139,0.73-0.416,2.181-0.554,2.911c18.535,2.68,37.708,2.578,55.967-1.876
	c-0.942-2.532-2.199-5.821-5.396-5.951C499.809,554.977,494.441,560.106,487.76,560.484 M320.784,567.276
	c14.128,2.984,28.699,1.266,42.846-0.684c-1.497-1.654-3.058-3.243-4.62-4.814c-9.24,4.74-19.404,0.055-29.06,0.286
	C326.153,562,322.854,564.227,320.784,567.276 M454.746,568.394c0.213,0.795,0.628,2.384,0.841,3.179
	c4.971,1.996,10.275,3.095,15.625,3.419c13.629,0.905,27.193-1.266,40.721-2.596c-0.111-1.848-0.222-3.696-0.296-5.526
	C492.657,566.602,473.688,571.85,454.746,568.394 M340.807,572.293c-1.46-0.139-2.855,0.434-4.26,0.684
	c-6.551,1.497-13.435,1.118-19.866-0.721c5.59,6.255,14.719,6.496,22.499,6.671c14.581-0.018,29.023-2.606,43.613-2.763
	c0.527-1.719,1.95-3.798,0.711-5.489C369.257,567.313,355.092,574.714,340.807,572.293z"/>
<path fill="#242021" d="M397.864,95.093c0.444-1.58,2.356-2.005,3.77-1.663c1.626,0.915,0.61,3.511-0.471,4.454
	C399.832,97.44,398.197,96.563,397.864,95.093z"/>
<path fill="#242021" d="M405.755,95.629c-0.61-1.793,1.247-2.911,2.837-2.707c0.166,1.127,0.222,2.255,0.323,3.4
	C407.853,96.119,406.79,95.916,405.755,95.629z"/>
<path fill="#242021" d="M413.461,93.43c2.134-1.386,5.295,2.171,2.855,3.622C414.348,97.376,412.482,95.315,413.461,93.43z"/>
<path fill="#242021" d="M420.659,94.364c1.321-0.591,3.326-0.804,4.38,0.425c0.471,1.719-1.164,3.336-2.633,3.955
	C419.929,100.009,418.95,95.315,420.659,94.364z"/>
<path fill="#242021" d="M428.042,95.214c1.118-0.712,2.236-0.712,3.345-0.009c-0.176,1.552-1.035,3.982-2.975,3.687
	C427.469,98.041,426.896,96.101,428.042,95.214z"/>
<path fill="#242021" d="M368.167,112.936c4.703-1.839,8.676,3.428,8.371,7.752c0.305,4.167-3.169,9.323-7.826,8.094
	C362.161,126.574,361.939,115.689,368.167,112.936z"/>
<path fill="#242021" d="M424.494,113.777c4.444-2.125,8.658,2.624,8.658,6.865c0.628,4.343-2.772,10.053-7.725,8.852
	C418.931,127.378,418.58,116.817,424.494,113.777z"/>
<path fill="#242021" d="M381.084,128.515c4.084-4.869,10.654-6.995,16.891-6.431c-2.301,6.505-11.153,8.122-12.511,15.181
	c-1.173,4.611-0.517,10.894,4.223,13.259c10.09,5.008,23.1-0.712,28.053-10.376c0.73-1.146,1.589-3.271,3.345-2.578
	c1.774,1.894,1.46,4.768,1.247,7.161c-0.471,4.879-3.428,9.554-7.983,11.541c-6.514,2.901-14.054,1.95-20.596-0.351
	c-6.45-2.412-12.927-6.44-15.902-12.899C375.531,138.078,377.407,132.238,381.084,128.515z"/>
<path fill="#242021" d="M430.315,154.645c2.781-1.488,4.139-5.341,7.66-5.313c1.968-0.213,5.202,0.083,5.368,2.652
	c-0.767,4.084-5.59,4.472-8.658,6.071c-5.128,2.985-8.991,8.418-15.218,9.277c-14.461,2.245-29.374,0.767-43.456-2.985
	c-5.627-1.451-11.836-4.731-13.352-10.802c2.874,0.24,5.248,1.903,7.503,3.567c8.288,6.061,19.071,7.263,29.051,6.625
	C410.024,162.878,420.927,160.217,430.315,154.645z"/>
<path fill="#242021" d="M387.229,170.436c10.561,1.968,21.335-0.342,31.933,1.044c-1.83,5.045-8.14,4.823-12.557,4.98
	C399.915,176.073,392.043,175.777,387.229,170.436z"/>
<path fill="#242021" d="M403.371,299.621c3.622-1.441,7.909-1.423,11.448,0.305c8.011,3.909,9.933,16.577,2.994,22.37
	c-4.943,3.52-12.687,3.936-17.14-0.628C394.658,315.698,395.111,303.382,403.371,299.621 M406.439,305.008
	c-0.776,1.432-1.608,2.827-2.43,4.25c1.94,0.231,3.899,0.508,5.849,0.748c0.111-1.728,0.222-3.456,0.305-5.174
	C408.915,304.86,407.677,304.925,406.439,305.008z"/>
<path fill="#242021" d="M303.515,415.99c4.315-1.515,8.852,0.665,12.067,3.511c5.581,4.99,9.425,11.864,11.07,19.145
	c0.832,4.278,0.979,9.471-2.236,12.853c-2.744,2.652-6.948,1.349-9.813-0.379c-6.015-3.724-10.589-9.471-13.795-15.717
	c-2.144-4.398-3.733-9.471-2.513-14.35C298.802,418.466,301.242,416.895,303.515,415.99 M304.66,426.8
	c3.363,0.739,5.295,3.622,7.346,6.098c-0.176-3.382-1.164-7.253-4.389-8.972C305.612,423.187,305.39,425.534,304.66,426.8z"/>
<path fill="#242021" d="M454.182,451.129c1.506-0.342,3.142-0.638,4.648-0.083c1.894,1.257,0.508,3.65-0.434,5.1
	c-1.488,1.913-3.751,4.343-6.431,3.548C449.645,457.191,449.913,451.332,454.182,451.129z"/>
<path fill="#242021" d="M367.058,458.355c3.465-0.638,7.152-0.887,10.497,0.434c-1.756,3.641-5.812,5.692-9.711,5.951
	C364.268,464.703,365.487,460.083,367.058,458.355z"/>
</svg>
