<?xml version="1.0" encoding="utf-8"?>
<!-- Generator: Adobe Illustrator 17.0.0, SVG Export Plug-In . SVG Version: 6.00 Build 0)  -->
<!DOCTYPE svg PUBLIC "-//W3C//DTD SVG 1.1//EN" "http://www.w3.org/Graphics/SVG/1.1/DTD/svg11.dtd">
<svg version="1.1" id="Layer_1" xmlns="http://www.w3.org/2000/svg" xmlns:xlink="http://www.w3.org/1999/xlink" x="0px" y="0px"
	 width="800px" height="600px" viewBox="0 0 800 600" enable-background="new 0 0 800 600" xml:space="preserve">
<path fill="#242021" d="M379.28,142.86c9.33-20.29,17.78-42.39,35.55-56.96c-9.97,18.35-20.54,36.54-27.3,56.39
	c3.43-0.65,6.92-1.05,10.41-0.76c3.98-8.48,8.01-17.16,14.09-24.36c-2.67,8.24-7.1,15.95-8.2,24.67c3.87-0.12,7.8-0.17,11.58,0.87
	c5.14-9.49,11.37-18.68,19.81-25.55c3.47-2.11,6.33-5.49,10.61-5.95c-1.54,4.58-5.31,7.81-8.45,11.27
	c-6.23,6.32-12.75,13.22-14.44,22.27c3.81,2.19,8.74,2.53,12.24-0.49c6.33-5.16,12.57-10.89,20.57-13.32
	c-5.52,7-13.69,11.43-18.63,18.94c2.66,0.87,5.29,1.82,7.87,2.92c4.88-3.11,10.27-6.45,16.3-5.99c-1.92,4.44-7.01,5.98-10.19,9.32
	c9.03,7.3,17.79,15.86,21.67,27.1c2.38,6.6,2.88,13.76,2.08,20.7c-1.7,15.42-4.14,30.78-7.88,45.84c3.42-0.08,7.18-0.15,10.06,2.01
	c3.53,2.51,4.58,7.16,4.43,11.27c-0.31,6.41-2.52,12.84-6.65,17.8c-2.2,2.62-3.03,6.08-5.15,8.75
	c-4.63,6.39-12.11,10.09-19.72,11.57c-3.84,0.06-5.4,4.43-9.12,4.87c-7.65,15.34-10.89,32.52-19.24,47.54
	c-2.62,4.76-5.96,9.1-9.89,12.84c-0.86,4.17-3.71,7.52-4.8,11.58c-0.69,1.76,0.93,3.24,2.52,3.56c9.94,2.97,20.93-1.15,30.54,3.42
	c5.94,2.6,9.56,8.38,11.81,14.22c19.32-1.97,39.15-1.05,57.88,4.35c13.91,4.04,25.15,15.49,29.55,29.22
	c4.06,12.29,2.69,26.38-3.94,37.52c-5.8,5.87-15.46,2.93-21.89,7.84c-0.81,5.85-3.4,12.12-1.44,17.92
	c6.78,1.76,14.17-0.37,20.74,2.36c3.18,1.35,2.5,5.18,1.76,7.85c11.42,1.54,22.83,3.11,34.27,4.48c0,0.92,0.01,1.84,0.03,2.78
	c-10.5-2.17-21.32-1.74-31.82-3.81c-7.47-1.62-14.46,2.36-21.17,4.99c-12.85,4.95-25.48,10.49-38.61,14.69
	c-6.48,2.04-11.99,7.24-19.08,7.05c-17.44-1.03-33.99-7.11-51.02-10.46c-17.67-3.66-35.54-6.38-53.13-10.43
	c-8.4-1.84-16.55-4.68-25.07-5.95c-4.85-1.17-10.42-1.6-14.2-5.18c-5.36-7.17-3.21-17.05-7.47-24.71c-2.26-0.82-4.71-0.78-7.07-1.03
	c-19.39-1.34-38.82-1.71-58.23-2.51c0-0.95,0-2.83,0-3.77c21.16,0.96,42.36,1.05,63.48,2.69c-6.62-18.69-12.24-37.71-19.19-56.28
	c-1.87-5.7-4.05-11.75-2.97-17.82c0.48-3.08,3.84-4.59,6.67-3.78c41.26,8.24,83.35,11.68,124.41,21
	c5.11-7.19,12.7-12.01,20.47-15.91c-1.62-2.02-3.42-4.03-5.87-5.04c-11.23-4.89-24.38-1.31-35.41-6.8
	c-5.35-2.68-6.37-9.25-5.55-14.61c-9.98,0.81-21.08-0.84-28.45-8.23c-8.33-8.31-11.03-20.32-13.08-31.5
	c-1.46-8.4-2.43-16.87-3.81-25.28c-1.79-10.86,0.82-21.94-1.07-32.78c-1.54-7.58-8.67-11.9-12.08-18.44
	c-1.69-3.12-1.23-6.77-0.29-10.04c-7.21-9.09-7.8-21.67-5.58-32.63c-4.96-5.4-0.42-12.56,2.28-17.86c-1.67-1.62-3.46-3.57-3.16-6.09
	c0.55-5.66,4.83-10.08,9.21-13.29c-1.08-1.86-2.42-3.99-1.56-6.21c1.36-3.72,4.99-5.8,7.86-8.25c4.13-3.14,5.12-8.81,9.19-12.02
	c4.68-3.66,10.26-6.18,16.16-7.03c1.26-17.12,7.13-34.31,18.69-47.25c-4.73,14.56-9.02,29.4-9.87,44.77
	C374.6,143.13,376.93,142.79,379.28,142.86 M386.8,144.94c-1.22,4.02-1.41,8.46-3.64,12.11c-1.23,2.35-5.48,2.76-6.31-0.1
	c-0.87-3.74,0.59-7.5,1.27-11.15c-1.87,0.22-3.72,0.43-5.58,0.58c-0.45,0.96-0.93,1.9-1.45,2.82c-3.47,0.68-7.18-0.2-10.53,1.27
	c-6.81,2.44-10.56,9.03-14.68,14.5c-2.72,4.06-8.56,3.75-11.61,7.41c-1.3,1.65-0.15,3.64,0.28,5.38c7.39-4.17,16.22-7.84,24.79-5.52
	c-1.74,2.23-4.88,1.89-7.33,2.76c-8.51,2.41-17.24,6.06-23.06,12.99c-1.63,2.37-4.28,5.7-1.82,8.39c5.02-5.52,11.21-10.5,18.73-11.9
	c3.75-0.57,7.99-0.97,11.34,1.2c-5.36,3.49-12.06,3.69-17.56,6.9c-6.9,3.56-12.03,10.14-13.9,17.67
	c5.19-10.03,16.39-15.16,27.13-16.63c9.83-1.29,20.91,0.11,28.47,7.07c4.89,4.41,6.8,11.1,6.88,17.5
	c4.63-5.64,8.48-12.13,14.48-16.48c5.46-4.15,12.62-4.77,19.23-4.03c8.01,0.67,17.31,2.01,22.52,8.85
	c6.04,8.72,8.19,19.88,7.01,30.33c-1.59,11.74-10.2,20.57-17.6,29.15c-4.85,5.59-12.64,7.62-19.81,7.15
	c-10.04-0.65-19.96-4.95-26.95-12.25c-3.86-3.95-6.19-9.23-6.4-14.76c-6.29,4.78-10.85,12.11-18.7,14.55
	c-11.14,3.65-23.21-1.22-31.49-8.82c0.25,6.77,7.01,9.42,11.21,13.47c2.6,2.31,2.44,6.03,1.47,9.09
	c6.41,17.41,1.85,36.48,6.46,54.22c1.64,3.21,3.03,6.61,2.92,10.3c-0.02,7.92,2.02,16.08,7.21,22.23
	c10.65,13.08,31.97,14.97,45.12,4.61c11.14-8.6,17.58-21.71,22.3-34.66c9.69-26.05,19.46-52.29,33.66-76.29
	c2.43-4.31,3.81-9.12,5.19-13.84c3.66-13.66,5.1-27.98,3.74-42.07c-0.97-9.22-3.21-18.57-8.29-26.44
	c-3.07-4.84-7.64-8.43-11.94-12.11c-2.36-2.38-5.89-0.95-8.82-1.26c0.46-1.47,1.01-2.89,1.6-4.31c-3.82-2.49-8.2-0.34-12.31-0.47
	c-1.92-0.37-1.05-2.77-1.29-4.11c-2.32-1.05-4.6-2.2-6.85-3.37c-1.15,3.23-4.23,6.26-7.92,5.47c-2.84-1.06-1.14-4.41-0.47-6.36
	c-3.38-0.25-6.75-0.58-10.14-0.42c-1.22,2.97-1.06,7.54-4.31,9c-4-1.14-3.98-6.54-2.64-9.74C393.2,144.93,390,145.03,386.8,144.94
	 M349.47,196.59c-8,2.18-14.9,8.06-18.19,15.68c-4.75,11.07-3.79,24.51,2.82,34.63c3.8,5.87,9.8,10.53,16.77,11.78
	c6.66,1.3,13.25-1.58,18.76-5.05c4.92-3.29,9.86-7.58,11.27-13.58c2.22-8.48,3.22-17.49,1.3-26.12
	c-1.39-6.26-4.92-12.33-10.65-15.51C364.87,194.72,356.71,194.74,349.47,196.59 M410.11,201.1c-6,2.17-9.74,7.78-13.07,12.9
	c-4.19,6.81-8.42,13.9-9.89,21.87c-2.01,12.77,5.58,26.56,17.64,31.37c12.46,4.69,27.09-1.26,34.63-11.76
	c4.76-7.13,5.79-16.04,5.68-24.42c-0.37-8.82-2.16-18.22-8.05-25.11c-3.61-4.21-10.41-7.23-15.17-3.11
	C417.98,202.2,414.15,199.7,410.11,201.1 M464.85,255.85c-1.08,1.33-1.05,3.14-1.44,4.73c2.59-0.21,5.75-0.93,7.8,1.19
	c4.11,4.38,2.15,13.49-4.25,14.51c1.19-2.25,3.24-4.57,2.43-7.3c-0.76-2.97-4.68-4.67-7.23-2.82c-1.94,1.27-2.21,3.71-2.72,5.76
	c2.25,1.99,4.26,4.93,2.45,7.93c-1.49,2.72-2,8.23-6.14,7.43c0-3.97,5.75-7.86,2.34-11.28c-4.12,7.73-11.59,13.41-14.04,22.07
	c4.35,0.17,8.89-0.09,12.85-2.08c6.41-3.02,10.41-9.12,14.59-14.56c3.58-4.24,4.3-10,5.02-15.32c0.2-3.66,0.76-7.92-1.59-11.04
	C472.05,252.84,467.17,252.8,464.85,255.85 M391.91,377.34c-0.01,3.91,0.67,8.18,3.58,11.05c11.3,3.03,23.41,1.44,34.6,5.14
	c4.51,1.44,8.75,4.7,9.96,9.47c0.71,3.03,3.45,4.83,5.72,6.66c0.24-5.16-0.17-10.46-2.26-15.23c-1.03-2.69-2.97-5.1-5.72-6.12
	c-10.35-4.05-22.16-0.35-32.37-4.84c-4.31-1.88-4.34-7.02-3.38-10.94C398.51,373.9,396.01,377.53,391.91,377.34 M288.94,402.04
	c43.37,6.59,86.33,15.54,129.61,22.62c2.67,0.52,5.53,0.54,7.99,1.84c3,1.88,4.65,5.21,5.9,8.4c2.82,7.5,3.48,15.56,5.32,23.32
	c4.85,20.92,13.51,40.72,18.48,61.61c0.72,2.87,0.92,5.92,2.23,8.62c2.61-5.05-0.18-10.38-1.69-15.27
	c-9.09-29.17-16.11-58.94-25.11-88.13c-32.54-5.75-64.55-14.62-97.52-17.78C319.08,405.68,304.24,400.3,288.94,402.04
	 M451.93,402.85c-0.91,1.91-1.54,3.93-1.91,6.01c7.68,0.65,14.1,5.22,19.7,10.16c-0.89-5.97-2.37-11.85-4.63-17.46
	C460.67,401.61,456.32,402.43,451.93,402.85 M468.65,401.96c0.93,6.93,5.01,13.08,5.32,20.12c0.29,2.1-1.93,3.7-3.83,2.69
	c-5.19-2.26-7.27-8.61-12.85-10.34c-0.34,11.5,5.93,21.4,10.91,31.25c5.48,11.86,8.12,24.74,11.15,37.38
	c0.77,2.87,0.31,5.92-1.49,8.3c10.16,0.87,20.1,3.37,30.28,4.1c-0.04-0.77-0.12-2.31-0.16-3.08c-2.76-0.07-4.65-1.95-5.09-4.6
	c-1.02,1.53-1.95,3.66-4.04,3.86c-2.66,0.35-4.76-2.2-5.12-4.62c-0.55-2.55,0.99-4.87,1.77-7.17c-2.59,2.31-3.1,5.88-4.93,8.67
	c-1.96,2.65-6.2,0.93-7.29-1.71c-1.68-4.06-0.18-8.76,2.59-11.97c-5.24-0.89-7.28-7.61-4.94-11.91c1.08-2.05,3.81-2.48,5.79-1.57
	c1.52,0.88,0.91,2.85,0.95,4.26c4.73,3.4,11.23,2.43,15.84-0.71c0.47-14.08-3.45-27.96-2.39-42.06c0-1.65,0.81-3.1,1.69-4.43
	c0.65,0.38,1.93,1.13,2.57,1.5c3.68-0.51,7.6-0.16,10.78,1.92c6.28,3.96,9.77,11.13,11.29,18.19c1.31,6.71,1.09,14.4-3.22,20.05
	c-2.71,3.6-7.25,5.22-11.64,5.25c3.34,1.03,5.88,3.8,6,7.4c4.25-1.35,9.05-0.94,13-3.16c3.01-2.66,3.89-6.93,4.83-10.67
	c2.18-12.78-0.66-26.22-6.86-37.51c-4.13-7.8-12.27-12.4-20.49-14.76C495.95,402.87,482.18,402.71,468.65,401.96 M286.42,404.34
	c7.44,31.61,21.23,61.17,31.32,91.93c44.34,12.66,89.96,19.85,135,29.49c-8.63-32.13-16.52-64.5-27.26-96.01
	C379.31,420.29,332.75,412.96,286.42,404.34 M432.91,408.98c1.43,4.86,4.81,8.67,7.72,12.69c0.8-3.12,1.93-6.14,3.12-9.12
	c-1.87-1.87-3.54-4.08-5.95-5.28C435.93,406.26,434.34,408.06,432.91,408.98 M420.61,419.44c4.75,1.16,9.76,1.56,14.24,3.65
	c1.71,1.81,2.12,4.41,2.76,6.75c3.6,19.41,12.18,37.4,17.05,56.48c-2.21-18.9-2.6-37.99-1.77-57c-3.75-1.59-6.02-5.03-8.78-7.81
	c-0.08,3.64,0.91,7.28,0.2,10.9c-3.73-1.1-4.83-5.22-6.49-8.26c-1.92-4.54-5.21-8.26-7.85-12.36
	C426.77,414.24,423.09,416.17,420.61,419.44 M505.23,422.77c-0.96,13.38,1.27,26.67,1.8,40.01c5.14-2.14,12.06-0.21,16-4.69
	c2.73-7.1,0.68-14.95-0.36-22.22C521.6,427.74,513.48,421.16,505.23,422.77 M484.92,466.45c-2,6.34,7.01,4.36,9.08,8.6
	c-4.38,2.32-8.66,6.25-8.13,11.7c3.93-2.22,4.55-7.22,7.9-9.98c1.56-1.27,5.39-1.63,5.5,1.13c-0.25,3.92-2.53,7.35-3.05,11.24
	c4.96-1.41,4.12-7.56,7.16-10.72c0.9-0.91,3.59-1.23,3.63,0.6c0.01,3.53-1.3,6.96-1.04,10.53c5.88-3.55,1.07-13.85,8.68-15.72
	c-0.49-2.65-1.46-6.14-4.72-6.37c-6.45-0.35-12.34,3.93-18.84,3.01C488.46,470.22,486.7,468.12,484.92,466.45 M456.04,492.15
	c0.75,3.13,1.63,6.23,2.7,9.27c12.01,2.16,23.96,4.91,36.16,5.85c0.18,0.7,0.56,2.08,0.74,2.78c-10.51,4.13-19.86,11.68-31.49,12.5
	c-0.07,0.64-0.2,1.91-0.27,2.54c21.01-8.3,42.19-16.13,63.14-24.57C503.26,498.66,479.59,495.75,456.04,492.15 M317.46,501.22
	c24.63,8.93,50.36,14.26,76.06,19c19.53,3.43,39.02,7.16,58.57,10.53c-27.05-6.57-54.24-12.54-81.51-18.12
	C352.83,509.05,335.19,504.92,317.46,501.22 M460.78,532.02c20.89-6.72,40.99-15.73,61.87-22.48c3.4-1.28,7.23-3.01,8.2-6.89
	C507.33,512.02,483.75,521.35,460.78,532.02 M459.8,504.93c0.32,1.04,0.65,2.08,0.99,3.13c9.07-0.37,18.2,5.65,27.03,1.63
	C478.59,507.45,468.89,507.87,459.8,504.93 M461.66,511.34c0.44,0.81,0.89,1.63,1.34,2.46c5.91,0.4,12.82,4.23,18.07-0.13
	C474.68,512.22,467.98,513.2,461.66,511.34 M463.32,517.23c0.16,0.43,0.48,1.29,0.64,1.71c2.54,0.1,5.12-0.14,7.53-1.02
	C468.78,517.46,466.05,517.25,463.32,517.23z"/>
<path fill="#242021" d="M388.99,176.02c8.98,0.85,17.03-4.86,25.99-4.26c6.16,0.46,12.64,1.03,18.17,4.03
	c1.88,0.84,2.29,2.91,2.26,4.78c-3.76-0.98-7.02-3.39-10.92-3.91c-11.7-2.17-22.83,4.13-34.5,3.3c-7.99-0.5-15.71-3.18-22.83-6.73
	C374.63,171.77,381.68,175.26,388.99,176.02z"/>
<path fill="#242021" d="M388.98,192.89c7.82-0.61,14.17-6.3,22.01-6.93c7.36-0.63,15.41,0.01,21.64,4.37
	c2.9,1.95,4.48,5.19,5.31,8.5c-5.08-3.72-10.28-8.36-16.91-8.61c-2.72,0.13-5.43,0.06-8.14-0.05c-8.97,1.08-16.74,7.2-25.95,6.96
	c-5.34-0.01-9.34-3.87-13.64-6.46c-1.84-1.32-4.26-2.14-5.33-4.25c4.02-0.02,8.18,0.73,11.65,2.88
	C382.48,191.03,385.43,193.27,388.98,192.89z"/>
<path fill="#242021" d="M442.62,197.51c5.71-0.39,9.48,4.9,11.34,9.63c3.62,9.62,4.08,20.91-0.53,30.28
	c-0.5-9.52-0.57-19.37-4.29-28.32C447.56,204.9,443.9,201.86,442.62,197.51z"/>
<path fill="#242021" d="M348.35,225.51c8.94-3.69,19.94,3.05,21.06,12.53c0.76,5.86-3.93,11.14-9.47,12.33
	c-7.47,1.75-16.87-0.42-20.92-7.43C335.57,235.87,341.12,227.27,348.35,225.51 M354.81,236.74c2.5,0.45,4.99,0.96,7.48,1.5
	c0.32-1.07,0.62-2.14,0.93-3.21C360.41,235.57,357.61,236.18,354.81,236.74z"/>
<path fill="#242021" d="M411.46,230.68c4.32-0.9,9.1-0.45,12.85,2c7.18,4.64,8.31,16.71,1.28,21.99c-6.52,4.84-16.5,4.73-22.75-0.51
	c-4.5-3.8-4.87-10.67-2.41-15.7C402.56,234.24,406.96,231.64,411.46,230.68 M413.55,242.77c2.87,0.89,5.91,0.75,8.87,1.07
	c0-1.29,0.01-2.59,0.02-3.88C419.39,240.62,416.41,241.56,413.55,242.77z"/>
<path fill="#242021" d="M430.72,271.67c7.77-4.16,13.46-11.06,19.4-17.38c-0.7,7.48-4.89,14.56-11.32,18.51
	c-6.01,3.89-13.56,4.69-20.45,3.12C422.62,274.98,426.9,273.86,430.72,271.67z"/>
<path fill="#242021" d="M366.49,273.44c1.76-3.51,5.03-6.99,9.23-7c-4.64,8.63-5.76,19.36-1.8,28.45c2.1,5.01,6.55,9.25,12.07,10.03
	c3.47,0.69,6.63-1.6,8.9-3.98c2.53-2.89,4.53-6.23,7.41-8.83c3.05,2.81,1.93,7.82-0.46,10.73c-4.59,5.94-12.98,7.31-19.98,5.93
	c-6.69-1.62-11.49-7.35-14.27-13.37C364.54,288.61,363.29,280.4,366.49,273.44z"/>
<path fill="#242021" d="M380.5,315.79c6.37-0.94,14.66-1.16,18.8,4.76c3.85,6.41,2.2,14.29,1.29,21.28
	c-0.98,5.18-0.25,11.41-4.39,15.39c-4.82,4.24-11.98,3.93-17.8,2.29c-4.82-1.51-10.18-4.32-11.66-9.54
	c-1.08-5.82,1.76-11.32,3.48-16.71c1.5-4.17,1.68-8.71,3.43-12.79C374.82,317.74,377.68,316.25,380.5,315.79 M379.02,319.37
	c-0.76,1.5-1.47,3.02-2.12,4.57c6.02-0.36,11.91,0.95,17.79,2.03c-0.6-1.82-0.87-4.03-2.66-5.12
	C388.17,318.38,383.34,319.28,379.02,319.37z"/>
<path fill="#242021" d="M359.52,344.6c1.01-6.84,2.06-14.04,6.16-19.81C365.82,331.63,366.05,340.41,359.52,344.6z"/>
<path fill="#242021" d="M404.7,348.88c-0.49-6.92-0.54-14.52,2.91-20.74c1.57,4.8,0.63,9.9-0.29,14.72
	C406.72,344.93,406.63,347.51,404.7,348.88z"/>
<path fill="#242021" d="M370.02,360.48c7.05,0.2,13.18,6.18,20.48,3.76c-0.92,2.22-3.01,3.71-5.47,3.49
	C379.42,367.54,373.02,365.6,370.02,360.48z"/>
<path fill="#242021" d="M350.31,455.37c1.54-1.42,3.77-0.75,5.65-0.74c9.69,0.88,19.65,1.09,28.95,4.24
	c4.63,1.15,6.27,7.27,4.09,11.13c-1.22,2.27-4.05,1.3-6,0.89c-9.99-2.77-20.59-2.81-30.37-6.39
	C348.71,463.7,347.85,458.06,350.31,455.37 M352.17,457.05c0.1,1.45,0.23,2.91,0.37,4.37c11.11,2.51,22.34,4.66,33.72,5.38
	c-0.02-1.01-0.07-3.04-0.09-4.05C375.21,459.06,363.59,458.25,352.17,457.05z"/>
</svg>
