<?xml version="1.0" encoding="utf-8"?>
<!-- Generator: Adobe Illustrator 17.0.0, SVG Export Plug-In . SVG Version: 6.00 Build 0)  -->
<!DOCTYPE svg PUBLIC "-//W3C//DTD SVG 1.1//EN" "http://www.w3.org/Graphics/SVG/1.1/DTD/svg11.dtd">
<svg version="1.1" id="Layer_1" xmlns="http://www.w3.org/2000/svg" xmlns:xlink="http://www.w3.org/1999/xlink" x="0px" y="0px"
	 width="800px" height="600px" viewBox="0 0 800 600" enable-background="new 0 0 800 600" xml:space="preserve">
<g id="_x23_231f20ff">
	<path fill="#231F20" d="M525.523,97.298h7.458c17.195,0.56,34.633,2.218,50.921,8.086c12.181,4.385,23.682,11.476,31.73,21.772
		c5.364,6.783,9.258,14.694,11.587,23.011c2.509,9.33,3.663,18.968,4.176,28.598v6.377c-0.329,5.372-0.757,10.753-1.769,16.04
		c-2.342,12.322-7.591,24.422-16.579,33.35c-10.266,9.954-22.841,17.348-36.21,22.315c-14.844,5.531-30.675,8.108-46.48,8.458
		c-1.235,3.885-2.923,7.608-4.659,11.288c-5.492,11.54-12.361,22.571-21.392,31.684c-4.898,4.889-10.168,9.523-16.271,12.861
		c-6.313,3.453-13.331,5.364-20.383,6.616c-4.167,1.09-8.518,1.923-12.826,1.252c1.744-0.274,3.539-0.342,5.219-0.936
		c5.655-1.902,10.736-5.176,15.382-8.864c5.449-4.368,10.459-9.262,15.186-14.399c4.248-4.479,7.377-9.86,10.433-15.181
		c4.394-7.834,7.347-16.549,7.8-25.559c-10.053-1.086-20.233,0.757-30.235-1.086c-16.045-2.757-31.675-9.117-44.288-19.541
		c-11.313-9.266-20.528-21.597-24.371-35.846c-4.411-16.156-1.902-33.705,5.347-48.656c1.5-3.231,3.441-6.223,5.086-9.373
		c4.394-8.168,10.001-15.758,17.019-21.862c10.912-9.736,23.969-16.87,37.727-21.699C491.297,100.315,508.431,97.721,525.523,97.298
		 M472.085,111.932c-14.472,5.432-27.867,13.903-38.565,25.106c-4.988,5.753-9.193,12.177-12.54,19.015
		c-6.762,13.831-10.078,29.816-6.941,45.07c2.846,13.976,11.113,26.418,21.823,35.663c11.348,10.001,25.563,16.374,40.317,19.396
		c11.976,3.017,24.452,0.03,36.526,2.171c1.227,0.449,2.15,1.752,2.005,3.077c-0.342,2.411-0.038,4.86-0.44,7.27
		c-1.748,13.433-8.416,25.725-16.763,36.201c-4.881,6.108-10.903,11.177-17.079,15.921c8.834-5.06,16.72-11.745,23.289-19.52
		c8.86-10.608,15.442-22.926,20.733-35.637c0.35-1.539,0.539-3.116,0.953-4.642c0.355-1.274,1.718-1.949,2.975-1.846
		c15.72-0.026,31.461-2.658,46.228-8.078c11.266-4.154,21.943-10.108,31.021-18.007c6.018-5.21,10.771-11.831,13.844-19.169
		c5.954-14.237,6.565-30.106,4.907-45.271c-1.355-12.45-4.325-25.187-11.702-35.534c-4.825-6.702-11.202-12.207-18.314-16.357
		c-13.527-7.873-29.145-11.168-44.544-12.895C523.771,100.991,496.767,102.606,472.085,111.932z"/>
	<path fill="#231F20" d="M363.101,255.125c6.834-4.616,14.656-8.104,22.943-8.826c7.839-0.718,15.887,1.205,22.528,5.437
		c5.714,3.603,10.365,8.852,13.305,14.934c3.958,8.095,5.616,17.126,5.945,26.08c2.218-0.325,4.565-0.368,6.646,0.586
		c3.971,1.633,6.655,5.672,7.009,9.907c0.483,5.154-1.355,10.172-3.483,14.78c-2.022,4.112-4.556,8.279-8.561,10.724
		c-1.932,1.218-4.283,1.428-6.497,1.107c-0.936,3.278-2.03,6.509-3.257,9.689c-2.086,5.71-5.18,11.305-10.134,15.01
		c-2.564,1.769-5.137,3.599-8.112,4.62c0.457,2.983,0.299,6.018-0.077,9.001c9.155,3.744,18.665,6.548,28.264,8.89
		c4.244,1.004,8.441,2.582,12.869,2.389c9.117-0.09,17.451-4.218,25.576-7.89c1.987-0.833,3.616-2.274,5.27-3.62
		c1.936-1.671,4-3.543,4.676-6.103c0.415-1.308-0.423-2.475-1.039-3.539c2.483-1.12,5.522-1.483,7.911,0.068
		c2.013,1.133,3.013,3.419,3.013,5.667c2.462-1.329,5.193-2.073,7.95-2.44c2.393-0.303,5.031-0.457,7.193,0.812
		c1.539,0.872,2.808,2.705,2.175,4.53c-0.103,0.769-0.97,0.645-1.517,0.611c-1.009,1.073-2.081,2.086-3.201,3.039
		c1.936,0.893,4.065,1.722,5.407,3.462c0.945,1.154,0.795,2.975-0.308,3.975c-1.616,1.509-3.962,1.693-6.061,1.876
		c1.859,1.479,3.385,3.808,2.855,6.283c-0.239,1.188-1.462,1.889-2.616,1.842c-3.026-0.004-5.59-1.816-8.219-3.069
		c-2.641,0.757-5.428,0.521-8.121,0.244c-3.013-0.359-5.937-1.872-7.599-4.475c-2.299,2.688-5.33,4.59-8.129,6.71
		c-6.591,4.479-13.745,8.574-21.695,9.967c-5.449,0.932-10.642-1.522-15.664-3.265c-3.017-1.205-6.227-1.748-9.373-2.479
		c-0.846,7.039-0.88,14.16-0.355,21.225c0.496,6.061,0.18,12.164,0.927,18.212c0.299,2.201,0.197,4.509,1.094,6.586
		c1.556,3.979,3.351,7.877,5.561,11.54c1.953,3.278,4.368,6.266,6.176,9.634c1.795,3.287,3.086,6.932,3.201,10.702
		c-0.227,4.103-2.911,7.586-5.958,10.129c-4.898,4.077-10.796,6.646-16.429,9.527c0.603,4.146,1.923,8.146,2.56,12.288
		c3.864-3.064,9.168-4.432,13.985-3.188c4.167,1.111,7.035,5.095,7.646,9.24c0.577,4.09,0.265,8.373-1.274,12.232
		c-0.5,1.197-0.103,3.052-1.573,3.624c-2.902,0.88-5.988,0.568-8.98,0.769c-7.941,0.402-16.143,0.085-23.61-2.915
		c-1.979,1.761-4.381,3.099-7.044,3.436h-1.735c-2.667-0.462-5.189-1.808-6.813-4.009c-2.889-3.727-4.142-8.441-4.689-13.053
		c-0.59-4.59-0.355-9.317,0.953-13.771c1.056-2.449,1.863-5.095,3.68-7.125c1.949-2.218,4.761-3.351,7.347-4.637
		c-0.517-2.278-0.449-4.633-0.898-6.92c-1.039-6.138-3.124-12.019-4.753-18.007c-1.039-3.868-3.612-7.044-5.21-10.668
		c-0.945-2.257-2.364-4.265-3.347-6.497c-2.667-5.954-4.394-12.262-6.437-18.442c-1.893-5.65-3.838-11.284-5.625-16.964
		c-1.098-3.714-2.808-7.202-4.783-10.518c-5.129-0.756-10.3-1.581-15.173-3.423c3.492,3.398,6.753,7.022,10.228,10.437
		c3.099,3.18,6.873,5.885,8.907,9.937c0.65,1.141,0.192,2.496-0.051,3.688c-1.009,0.936-2.453,1.154-3.774,1.244
		c-6.702,0.12-13.395,0.889-20.105,0.487c-1.013,30.957,0.009,61.922,1.051,92.862c0.154,2.299-0.201,4.697,0.658,6.898
		c0.727,1.504-0.91,3.3-2.483,2.71c-4.539-1.034-9.202-0.295-13.797-0.492c-8.535-0.235-17.071-1.137-25.614-0.521
		c-10.382,0.727-20.793,1.111-31.201,1.043c-6.702-0.047-13.408-0.038-20.101-0.479c-7.544-0.521-15.13-0.577-22.678-0.026
		c-3.958,0.333-8.253,1.227-11.98-0.611c-1.539-0.906-0.47-2.663-0.291-3.975c-0.308-1.363-0.825-2.705-0.757-4.124
		c0.363-9.548,0.218-19.105,0.235-28.657c-0.021-9.416-0.966-18.793-1.321-28.192c-0.509-11.749-0.466-23.571,1.244-35.227
		c-9.104-0.521-18.182-1.641-27.311-1.577c-0.774,0.111-1.351-0.368-1.68-1.022v-1.829c4.402-4.065,7.945-8.928,11.882-13.421
		c4.543-5.27,9.416-10.236,14.13-15.352c4.218-4.428,8.001-9.249,12.172-13.715c-0.244-2.385-0.094-4.778,0.013-7.163
		c0.154-9.279,1-18.566,0.192-27.837c-0.009-0.94-0.316-2.522,0.962-2.74c4.757-1.197,9.698-0.492,14.523-0.244
		c1.15-0.047,1.787,0.893,2.171,1.838c0.68,1.893,0.286,3.941,0.325,5.902c-0.03,4.77-0.637,9.574,0.043,14.322
		c7.27-6.659,13.074-14.711,20.144-21.567c4.501-4.603,9.599-8.574,13.968-13.305c0.953-0.782,1.611-1.94,2.667-2.569
		c1.923,0.192,3.971,0.906,5.137,2.539c0.718,1.116,1.338,2.317,2.304,3.253c3.825,3.898,7.924,7.539,11.454,11.715
		c5.749,6.753,11.412,13.583,17.378,20.148c4.646,5.069,9.087,10.322,13.583,15.523c2.329,2.663,4.266,5.629,6.411,8.441
		c-0.449-4.672,1.064-9.535,4.368-12.912c3.009-3.176,7.339-4.736,11.621-5.159c5.283-0.526,10.608-0.03,15.848,0.701
		c2.988,0.449,6.035,0.825,8.843,2.022c1.338,0.607,2.804,0.769,4.248,0.962c-0.073-1.581-0.329-3.137-0.581-4.697
		c-5.095-1.453-9.788-4.137-13.827-7.548c-5.86-4.932-10.463-11.215-14.036-17.96c-4.167-0.171-8.343-1.312-11.826-3.65
		c-5.526-3.637-8.441-10.292-8.702-16.759c-0.214-4.65,0.342-9.813,3.59-13.416c1.855-2.128,4.719-3.03,7.484-2.932
		c-0.167-6.851,0.18-13.818,2.133-20.426C349.924,268.409,355.433,260.353,363.101,255.125 M385.24,251.681
		c-7.83,1.248-15.442,4.449-21.456,9.668c-5.471,4.663-9.326,11.066-11.232,17.972c-2.616,9.339-2.214,19.233-0.748,28.73
		c2.107,12.989,7.061,25.879,16.062,35.671c4.924,5.475,11.172,10.206,18.571,11.536c2.453,0.65,4.954,0.021,7.394-0.346
		c4.697-0.825,9.467-2.278,13.207-5.351c2.406-1.928,4.107-4.565,5.501-7.283c2.603-5.163,4.12-10.775,5.65-16.323
		c2.517-9.48,3.885-19.263,4.013-29.072c0.064-9.027-1.167-18.229-4.885-26.52c-2.906-6.471-7.779-12.185-14.143-15.442
		C397.708,252.027,391.365,251.014,385.24,251.681 M427.866,297.605c-0.038,1.517-0.09,3.039-0.175,4.56
		c4.385,0.457,7.257,6.138,4.535,9.779c-0.953-2.338-2.073-5.206-4.808-5.873c-0.633,6.441-1.688,12.835-3.197,19.131
		c1.68-0.013,3.235-0.778,4.419-1.94c3.065-2.902,5.069-6.74,6.522-10.659c0.846-2.44,1.74-4.945,1.684-7.561
		c-0.064-2.402-0.97-4.907-2.894-6.432C432.264,297.255,429.9,296.998,427.866,297.605 M342.184,303.375
		c-1.581,1.21-2.214,3.218-2.684,5.073c-1.15,5.09-0.641,10.766,2.398,15.134c2.389,3.265,6.283,5.112,10.215,5.706
		c-2.607-6.039-4.368-12.399-5.731-18.819c-1.103,0.167-2.21,0.739-2.705,1.787c-1.141,2.488-1.111,5.394-0.269,7.971
		c-0.056,0.12-0.171,0.363-0.227,0.483c-1.727-2.787-3.368-6.206-2.163-9.518c0.722-2.193,2.714-3.633,4.889-4.171
		c-0.18-1.368-0.333-2.74-0.509-4.103C344.316,302.828,343.107,302.67,342.184,303.375 M275.957,327.408
		c-4.167,3.795-8.343,7.586-12.164,11.737c-5.996,6.42-11.437,13.408-18.152,19.122c-0.722,0.786-2.146,0.603-2.573-0.397
		c-0.274-3.069-0.62-6.159-0.389-9.245c0.303-4.432,1.056-8.826,1.231-13.267c-0.898,0.218-1.816,0.419-2.744,0.333
		c-3.834-0.286-7.676-0.846-11.523-0.423c0.496,5.432,0.598,10.895,0.62,16.352c0.115,5.992-0.368,11.976-0.329,17.968
		c0.252,2.15-1.227,3.919-2.393,5.561c-4.488,5.706-9.527,10.95-14.493,16.237c-4.206,4.355-8.257,8.864-12.527,13.164
		c-3.129,3.15-6.693,5.821-10.283,8.416c8.01-0.68,16.019,0.214,24.012,0.607c2.492,0.15,5.261-0.316,7.471,1.094
		c1.094,1.077-0.466,2.329-0.457,3.547c-2.312,16.468-1.222,33.15-0.175,49.669c0.812,11.232,0.419,22.503,0.406,33.752
		c0.034,3.569-0.423,7.172,0.171,10.719c0.09,0.804-0.047,1.611-0.098,2.423c1.252,0.107,2.509,0.214,3.765,0.128
		c9.642-1.154,19.396-1.09,29.085-0.547c15.805,0.487,31.654,0.68,47.425-0.65c8.967-0.816,17.955-0.056,26.926,0.273
		c4.372,0.227,8.745-0.38,13.113-0.034c-1.098-29.452-2.193-58.931-1.466-88.404c0.043-3.689,0.385-7.377,0.124-11.057
		c0.979-0.821,2.445-0.521,3.637-0.748c6.868-0.795,13.758-1.44,20.674-1.718c-4.189-4.595-8.822-8.753-13.074-13.288
		c-4.099-4.441-8.578-8.51-12.749-12.882c-4.458-4.599-7.911-10.023-12.031-14.908c-5.432-6.8-11.395-13.151-16.844-19.938
		c-4.154-5.107-8.134-10.356-12.249-15.498c-2.013-2.556-4.398-4.787-6.582-7.193c-1.957-2.163-3.445-4.736-5.578-6.732
		c-1.175-0.509-2.428-0.825-3.607-1.325C280.659,323.091,278.184,325.19,275.957,327.408 M478.402,358.805
		c0.966,0.919,1.958,2.064,1.71,3.513c-0.299,3.257-3.013,5.462-5.18,7.608c-1.21,1.406-2.851,2.329-4.428,3.261
		c-3.68,2.069-7.364,4.159-11.228,5.873c-4.966,2.154-10.091,4.261-15.549,4.663c-4.197,0.338-8.322-0.744-12.348-1.782
		c-10.612-2.791-21.293-5.757-31.102-10.779c-0.992-0.393-1.658-1.355-1.782-2.398c-0.385-2.817-0.658-5.646-1.094-8.454
		c-3.535,0.731-7.18,0.919-10.762,0.47c-0.077,2.658-0.09,6.33-3.082,7.42c-1.966-0.086-3.701-1.24-5.663-1.432
		c-5.308-1.231-10.736-1.94-16.177-2.175c-3.851-0.15-7.83-0.231-11.519,1.047c-4.436,1.483-7.753,5.749-8.24,10.373
		c0.201,2.415,1.026,4.907,2.838,6.599c2.936,2.894,7.069,3.979,10.954,4.958c8.189,1.945,16.771,3.077,24.242,7.197
		c0.021-0.718,0-1.436,0.115-2.141c0.423-1.051,2.167-1.056,2.552,0.03c0.239,2.291,0.218,4.663,1.086,6.847
		c0.675,2.039,2.594,3.291,3.492,5.206c0.59,1.103-0.919,1.838-0.893,2.949c-0.415,2.936-1.859,6.15-0.35,8.993
		c0.346,0.855,1.453,0.645,2.064,0.235c1.825-1.197,2.906-3.171,3.949-5.022c0.974-1.56,0.825-3.471,1.299-5.184
		c0.256-0.962,1.859-0.556,1.714,0.415c0.154,3.406-0.97,7.172,1.103,10.232c1.693-2.21,2.633-4.898,3.214-7.591
		c0.201-0.765,0.333-1.603,0.885-2.201c0.974-0.081,1.039,1.039,1.051,1.757c-0.064,1.466-0.299,2.923-0.41,4.389
		c0.504,0.509,1.013,1.017,1.534,1.517c2.231-3.906,2.53-8.595,2.223-12.993c0.162-0.141,0.479-0.423,0.637-0.56
		c0.158,0.303,0.47,0.915,0.628,1.222c1.385,0.047,2.979,0.594,4.21-0.308c1.5-1.171,2.022-3.129,2.133-4.945
		c-2.24,1.598-5.24,1.342-7.475-0.12c-0.603-0.064-1.363,0.201-1.825-0.299c-1.389-1.359-2.278-3.141-3.663-4.505
		c-3.714-3.791-8.676-6.031-13.66-7.625c-5.12-1.59-10.377-2.936-15.763-3.129c-4.142-0.167-8.446-0.509-12.198-2.432
		c-1.564-0.816-3.103-2.094-3.466-3.906c-0.453-2,1.021-3.736,2.368-5.009c0.889,0.346,0.043,1.312,0.064,1.949
		c-0.466,1.308,0.389,2.71,1.624,3.193c5.449,2.526,11.6,1.586,17.353,2.688c7.83,1.282,15.737,3.402,22.4,7.864
		c3.325,2.18,5.907,5.287,8.125,8.54c1.543,1.534,3.992,1.569,6.005,1.145c0.641,0.231,1.398,0.244,1.945,0.705
		c1.304,4.522-2.774,10.035-7.668,9.095c0.188,3.689,0.662,7.719-1.18,11.087c-1.077,1.876-3.629,1.932-5.283,0.812
		c-0.786,1.492-2.111,3.146-4.009,2.876c-2.167-0.368-3.287-2.582-3.744-4.522c-1.41,1.53-3.026,3.304-5.244,3.419
		c-2.005-0.017-3.351-1.966-3.689-3.765c-0.68-3.12,0.577-6.202,2.077-8.873c-3.381-1.051-4.633-4.834-5.086-7.997
		c-2.919-2.419-6.693-3.3-10.343-3.898c2.65,4.774,3.983,10.108,5.834,15.207c2.44,6.83,4.59,13.754,6.856,20.644
		c1.406,4.167,3.141,8.215,4.637,12.352c0.59,1.829,1.936,3.257,2.966,4.847c2.073,2.932,3.449,6.279,4.518,9.689
		c2.299,7.347,4.714,14.78,5.09,22.533c3.12-1.436,6.223-2.945,9.129-4.787c-0.534-2.641-0.791-5.325-1.188-7.984
		c-0.816-6.069-1.735-12.245-0.692-18.344c-0.051-0.855,1.269-1.257,1.693-0.504c1.881,1.996,3.932,3.834,5.697,5.941
		c3.304,3.804,6.616,7.834,8.125,12.728c0.432,1.261-0.308,2.466-0.607,3.667c-0.132,0.97-1.098,1.423-1.778,1.987
		c-3.261,2.325-6.578,4.573-9.993,6.668c-3.996,2.381-8.347,4.06-12.613,5.881c-2.368,1.017-4.842,1.816-7.056,3.159
		c-1.269,0.748-2.193,1.919-3.3,2.872c-0.124,5.522-0.38,11.091,0.517,16.575c0.739,4.77,2.453,10.035,6.971,12.493
		c2.44,0.004,5.09-0.778,6.633-2.787c1.782-2.423,2.022-5.625,1.517-8.505c-1.073-5.659-4.676-10.762-9.664-13.638l-0.09-0.504
		c1.94-0.03,3.851,0.504,5.603,1.308c2.099-3.983,6.172-6.308,9.903-8.548c6.518-3.77,13.668-6.544,19.596-11.266
		c2.539-2.034,5.125-4.838,4.851-8.334c-1.18-7.321-6.693-12.698-10.027-19.037c-2.411-4.368-3.851-9.159-5.372-13.882
		c-1.192-4.586-1.026-9.369-1.231-14.066c-0.034-5.415-0.701-10.805-0.688-16.22c-0.03-4.937,0.372-9.873,1.124-14.75
		c-0.979-0.718-3.432-1.547-2.393-3.064c1.372-0.056,2.701,0.346,4.035,0.62c3.364,0.816,6.877,0.744,10.236,1.616
		c4.381,0.987,8.441,3.146,12.92,3.744c2.667,0.372,5.317-0.372,7.839-1.167c7.069-2.299,13.318-6.454,19.391-10.638
		c2.133-1.453,4.086-3.582,6.834-3.71c0.821,0.517,0.876,1.701,1.718,2.223c1.509,1.06,3.402,1.282,5.18,1.543
		c2.364,0.299,4.821,0.56,7.146-0.12c0.581-0.269,1.128,0.12,1.603,0.432c2.65,1.936,5.59,3.889,8.971,4.048
		c0.111-1.855-0.945-3.526-2.308-4.689c-1.393-1.342-3.402-1.906-4.539-3.526c0.444-0.654,1.12-1.188,1.966-0.94
		c2.804,0.568,6.086,1.137,8.552-0.722c-2.577-3.086-6.924-3.445-10.625-4.065c-0.851-0.175-2.663-0.658-1.667-1.808
		c2.616-1.41,5.612-1.483,8.514-1.475c1.466,0.154,2.449-1.086,3.231-2.124c-0.692-0.68-1.462-1.346-2.462-1.457
		c-4.783-0.923-9.407,1-14.04,1.842c-0.893,0.218-1.74,0.581-2.62,0.838c0.103-0.859-0.026-1.774,0.372-2.573
		c0.397-0.983,1.03-2.107,0.372-3.133C483.706,359.758,480.928,358.775,478.402,358.805 M412.697,472.73
		c1.821-1.368,3.714-2.667,5.813-3.577c-1.504-5.71-5.296-10.335-8.74-14.981C410.671,460.369,411.445,466.588,412.697,472.73
		 M402.602,497.361c0.094,1-0.235,2.171,0.568,2.966c3.791,4.932,5.274,11.886,2.881,17.75c9.074,2.684,18.639,1.812,27.931,1.158
		c0.795-4.389,2.176-9.078,0.35-13.399c-0.902-2.372-3.513-3.492-5.89-3.633c-3.116-0.265-6.159,0.953-8.621,2.795
		c-2.705,1.859-4.522,4.748-7.356,6.441c-0.295-0.462-0.838-0.893-0.521-1.483c0.44-1.727,1.445-3.223,2.381-4.71
		c-0.996-4.689-2.171-9.343-2.945-14.074C408.239,492.891,404.978,494.604,402.602,497.361z"/>
	<path fill="#231F20" d="M393.908,256.929c2.988-1.133,6.317-0.171,8.967,1.389c2.821,1.594,5.227,4.176,6.014,7.377
		c-1.047,1.71-2.231-0.628-3.265-1.18c-3.137-2.009-6.702-4.736-10.651-3.637c-1.299,0.543-2.855-0.65-2.654-2.043
		C392.348,257.912,393.058,257.19,393.908,256.929z"/>
	<path fill="#231F20" d="M376.91,258.733c1.59-0.286,3.428-0.41,4.8,0.615c0.645,0.462,1.15,1.44,0.667,2.184
		c-0.68,0.748-1.769,0.62-2.676,0.697c-4.056-0.013-7.916,1.637-11.283,3.778c-1.009,0.517-1.333,1.795-2.334,2.278
		c-0.222-2.111,1.154-4.039,2.573-5.475C370.927,260.677,373.893,259.387,376.91,258.733z"/>
	<path fill="#231F20" d="M393.549,265.157c3.253-1.124,7.099,1.312,7.386,4.753c0.235,2.658,0.744,5.898-1.398,7.958
		c-2.257,2.487-6.586,2.385-8.736-0.188c-1.872-1.953-1.457-4.872-1.282-7.33C389.621,267.995,391.28,265.819,393.549,265.157z"/>
	<path fill="#231F20" d="M373.765,267.516c3.231-1.231,7.035,1.158,7.497,4.539c0.218,2.573,0.774,5.659-1.244,7.702
		c-2.21,2.624-6.633,2.62-8.834-0.021c-1.812-1.799-1.487-4.505-1.329-6.817C369.922,270.555,371.491,268.264,373.765,267.516z"/>
	<path fill="#231F20" d="M365.554,291.763c2.898-4.206,8.057-6.3,13.027-6.535c-0.098,0.201-0.295,0.603-0.393,0.804
		c-3.432,1.769-6.77,4.107-8.728,7.527c-1.069,1.804-1.363,4.193-0.171,6.014c2.496,4.039,7.227,6.005,11.715,6.868
		c9.668,1.624,20.374-1.069,27.251-8.287c1.992-1.962,3.526-4.902,2.663-7.732c-0.436-1.551-1.765-2.552-3.043-3.389
		c0.111-0.218,0.329-0.65,0.44-0.868c1.992,0.637,4.163,1.355,5.432,3.141c1.834,2.646,1.714,6.249,0.282,9.048
		c-2.821,6.048-8.83,9.92-14.968,12.006c-7.877,2.599-16.776,3.026-24.516-0.256c-3.838-1.663-7.638-4.056-9.745-7.783
		C362.913,299.046,363.383,294.78,365.554,291.763z"/>
	<path fill="#231F20" d="M402.995,314.59c3.15-0.752,6.086-2.158,9.189-3.052c0.158,0.188,0.483,0.556,0.641,0.739
		c-1.094,1.744-2.855,2.911-4.599,3.928c0.077,6.676-2.022,13.164-4.496,19.289c-0.214,1.804-0.543,4.137-2.663,4.625
		c-3.535,0.902-7.065,1.928-10.685,2.423c-3.385,0.393-7.005-0.137-9.873-2.064c-0.667-0.393-0.316-1.261-0.389-1.868
		c-3.689-4.676-5.052-10.63-8.206-15.617c-0.714-1.18-1.658-2.265-1.885-3.667c-2.295-0.684-4.475-1.923-5.967-3.83
		c-0.303-0.491,0.244-0.791,0.504-1.124c2.227,1.697,5.069,2.116,7.779,2.393c4.565,0.346,9.151,0.214,13.715-0.017
		C391.741,316.424,397.494,316.172,402.995,314.59 M389.049,320.014c-4.714,0.269-9.45,0.551-14.168,0.167
		c1.351,2.167,2.368,4.518,3.197,6.928c5.796-0.248,11.6,1.637,17.357,0.329c3.518-0.782,6.42-3.06,8.937-5.531
		c0.111-1.393,0.124-2.791,0.064-4.184C399.435,319.176,394.224,319.685,389.049,320.014z"/>
	<path fill="#231F20" d="M385.736,344.957l0.295-0.115c0.876,0.68,1.654,1.598,2.812,1.791c3.133,0.641,6.129-0.816,9.146-1.389
		c0.804-0.197,2.15,0.132,2.013,1.201c-0.534,1.581-2.205,2.359-3.706,2.774c-3.547,0.979-8.022,0.586-10.326-2.629
		C385.758,346.154,384.745,345.081,385.736,344.957z"/>
	<path fill="#231F20" d="M261.789,430.348c3.137-1.834,6.997-1.744,10.488-1.265c3.026,0.427,5.988,1.308,9.052,1.479
		c5.996,0.209,11.993,0.013,17.989,0.094c2.099,0.133,4.539-0.017,6.193,1.513c2.137,6.283,0.992,12.976,0.992,19.46
		c-0.03,6.556,0.385,13.104,0.56,19.652c-0.338,3.12,0.859,6.236,0.286,9.326c-0.876,1.175-2.299,1.889-3.676,2.338
		c-4.949,1.171-10.057,0.521-15.053,0.081c-8.377-0.658-17.002,1.022-25.191-1.423c-1.261-0.291-1.21-1.722-1.128-2.727
		c-1.248-1.53-1.274-3.59-1.372-5.458c-0.124-7.407-0.487-14.814-0.479-22.221C260.267,444.243,259.391,437.042,261.789,430.348
		 M264.016,432.473c-0.59,3.941-0.278,7.933-0.077,11.895c0.286,5.12,0.363,10.253,0.534,15.382
		c0.115,4.697,0.415,9.39,0.359,14.092c0.009,1.393-0.214,2.774-0.543,4.129c8.086,2.201,16.489,0.393,24.708,1.103
		c4.966,0.457,10.044,0.91,14.934-0.359c0.004-0.932,0.111-1.881-0.188-2.774c-0.987-3.154-0.757-6.497-0.821-9.753
		c-0.15-5.992-0.513-11.984-0.209-17.972c0.209-4.53,0.453-9.078-0.038-13.596c-7.531-0.581-15.109,0.265-22.631-0.491
		C274.727,433.443,269.427,431.554,264.016,432.473z"/>
</g>
<g id="_x23_00adefff">
	<path fill="#00ADEF" d="M275.957,327.408c2.227-2.218,4.701-4.317,6.176-7.15c1.18,0.5,2.432,0.816,3.607,1.325
		c2.133,1.996,3.62,4.569,5.578,6.732c2.184,2.406,4.569,4.637,6.582,7.193c4.116,5.142,8.095,10.39,12.249,15.498
		c5.449,6.787,11.412,13.138,16.844,19.938c4.12,4.885,7.574,10.309,12.031,14.908c4.171,4.372,8.651,8.441,12.749,12.882
		c4.253,4.535,8.886,8.693,13.074,13.288c-6.915,0.278-13.805,0.923-20.674,1.718c-1.192,0.227-2.658-0.073-3.637,0.748
		c0.261,3.68-0.081,7.368-0.124,11.057c-0.727,29.474,0.368,58.952,1.466,88.404c-4.368-0.346-8.74,0.261-13.113,0.034
		c-8.971-0.329-17.96-1.09-26.926-0.273c-15.771,1.329-31.619,1.137-47.425,0.65c-9.689-0.543-19.443-0.607-29.085,0.547
		c-1.257,0.085-2.513-0.021-3.765-0.128c0.051-0.812,0.188-1.62,0.098-2.423c-0.594-3.547-0.137-7.15-0.171-10.719
		c0.013-11.249,0.406-22.52-0.406-33.752c-1.047-16.519-2.137-33.201,0.175-49.669c-0.009-1.218,1.551-2.47,0.457-3.547
		c-2.21-1.41-4.979-0.945-7.471-1.094c-7.992-0.393-16.002-1.286-24.012-0.607c3.59-2.594,7.155-5.266,10.283-8.416
		c4.27-4.3,8.322-8.809,12.527-13.164c4.966-5.287,10.006-10.531,14.493-16.237c1.167-1.641,2.646-3.411,2.393-5.561
		c-0.038-5.992,0.445-11.976,0.329-17.968c-0.021-5.458-0.124-10.92-0.62-16.352c3.847-0.423,7.689,0.137,11.523,0.423
		c0.927,0.085,1.846-0.115,2.744-0.333c-0.175,4.441-0.927,8.834-1.231,13.267c-0.231,3.086,0.115,6.176,0.389,9.245
		c0.427,1,1.851,1.184,2.573,0.397c6.715-5.714,12.155-12.702,18.152-19.122C267.614,334.994,271.79,331.203,275.957,327.408
		 M261.789,430.348c-2.398,6.693-1.522,13.895-1.338,20.849c-0.009,7.407,0.355,14.814,0.479,22.221
		c0.098,1.868,0.124,3.928,1.372,5.458c-0.081,1.004-0.133,2.436,1.128,2.727c8.189,2.445,16.814,0.765,25.191,1.423
		c4.996,0.44,10.104,1.09,15.053-0.081c1.376-0.449,2.799-1.163,3.676-2.338c0.573-3.09-0.624-6.206-0.286-9.326
		c-0.175-6.548-0.59-13.096-0.56-19.652c0-6.484,1.145-13.177-0.992-19.46c-1.654-1.53-4.095-1.38-6.193-1.513
		c-5.996-0.081-11.993,0.115-17.989-0.094c-3.064-0.171-6.026-1.051-9.052-1.479C268.786,428.605,264.926,428.515,261.789,430.348z"
		/>
</g>
</svg>
