<?xml version="1.0" encoding="utf-8"?>
<!-- Generator: Adobe Illustrator 17.0.0, SVG Export Plug-In . SVG Version: 6.00 Build 0)  -->
<!DOCTYPE svg PUBLIC "-//W3C//DTD SVG 1.1//EN" "http://www.w3.org/Graphics/SVG/1.1/DTD/svg11.dtd">
<svg version="1.1" id="Layer_1" xmlns="http://www.w3.org/2000/svg" xmlns:xlink="http://www.w3.org/1999/xlink" x="0px" y="0px"
	 width="800px" height="600px" viewBox="0 0 800 600" enable-background="new 0 0 800 600" xml:space="preserve">
<g id="_x23_242021ff">
	<path fill="#242021" d="M300.289,78.117h1.34c1.265,0.348,2.399,1.164,2.994,2.35c1.531,2.709,0.924,5.961,1.927,8.828
		c0.999,3.72,2.653,7.215,3.757,10.901c0.127,0.472,0.404,0.842,0.827,1.111c-0.034-2.881,0.299-5.752,1.081-8.525
		c0.782-2.713,1.22-5.542,2.343-8.147c0.73-1.669,2.032-3.402,3.985-3.589c1.564-0.191,2.788,1.25,2.997,2.683
		c0.311,2.114-0.09,4.255,0.105,6.377c0.528,6.403-1.108,12.884,0.359,19.227c2.492-3.548,5.95-6.519,10.078-7.956
		c2.23-0.778,5.014-0.805,6.841,0.898c1.654,1.583,2.702,3.993,2.208,6.291c-1.254-1.841-1.83-4.565-4.195-5.318
		c-3.375-0.711-6.564,1.242-9.135,3.218c-2.301,1.938-4.622,4.045-5.886,6.833c-2.223-1.392-2.522-4.378-2.709-6.762
		c-0.094-6.407,1.254-12.727,1.669-19.1c-0.131-1.373-0.483-2.848-1.422-3.903c-0.756-0.775-1.86-0.105-2.309,0.655
		c-1.179,1.852-1.77,4.004-2.485,6.062c-1.212,3.476-1.62,7.17-2.863,10.631c1.149,0.064,2.298,0.195,3.39,0.573
		c-2.118,0.995-4.513,0.921-6.747,1.478c-3.514,0.834-6.814,2.402-9.943,4.184c-2.474,1.4-5.351,2.129-7.507,4.056
		c-0.928,0.786-1.31,1.961-1.834,3.016c-0.086-1.534,0.389-3.024,1.4-4.187c-2.878-1.83-4.521-4.936-6.197-7.791
		c-1.063-2.126-2.354-4.116-3.611-6.13c-0.46-0.674-0.932-1.388-1.639-1.826c-0.835-0.509-1.965-0.015-2.402,0.797
		c-0.625,1.1-0.539,2.474-0.094,3.622c2.747,7.626,6.758,14.71,10.976,21.607c2.043,3.349,4.247,6.672,7.177,9.322
		c1.508,1.385,3.237,2.676,5.306,3.031c0.995,0.273,2.167,0.277,2.975,0.995c0.61,3.843,1.56,7.63,2.096,11.492
		c0.277,2.462,1.168,4.786,1.789,7.17c3.963,14.504,6.059,29.421,9.135,44.123c0.823,3.851,1.564,7.72,2.234,11.601
		c0.303,1.725,0.236,3.484,0.097,5.224c2.204,0.67,4.502,0.109,6.743,0.449c-1.044-5.43-1.504-11.099-0.269-16.536
		c0.775-3.503,2.556-6.848,5.396-9.101c-0.142-3.484-1.605-6.691-2.425-10.029c-0.861-3.405-2.133-6.683-3.102-10.055
		c-2.137-7.147-3.611-14.471-4.861-21.82c-0.449-2.717-0.909-5.437-1.134-8.184c-0.015-1.373-1.074-2.664-0.486-4.038
		c0.606-2.047,2.515-3.267,3.45-5.13c2.99-5.325,4.427-11.518,8.453-16.248c2.29-2.885,5.849-5.246,9.696-4.502
		c-1.246,1.231-2.971,1.725-4.438,2.627c-1.65,0.921-3.061,2.249-4.049,3.866c-3.192,5.044-4.367,11.047-7.365,16.196
		c-0.782,1.512-1.834,2.881-3.214,3.896c0.262,2.402,0.812,4.76,1.295,7.129c1.452,7.896,2.75,15.844,4.902,23.59
		c1.018,3.738,2.234,7.421,3.312,11.14c0.943,3.308,2.204,6.545,2.676,9.973c5.486-2.309,12.3-2.35,17.206,1.34
		c-0.161-2.204,0.528-4.288,1.037-6.392c1.411-12.36,4.517-24.72,10.755-35.576c5.916-10.426,14.965-19.201,25.963-24.111
		c9.748-4.416,20.761-5.377,31.314-4.225c14.284,1.628,27.946,7.346,39.599,15.687c3.652,2.642,7.17,5.501,10.34,8.715
		c5.261,5.374,9.307,11.971,11.481,19.182c2.129,6.938,2.462,14.332,1.583,21.506c-0.969,7.915-3.263,15.597-5.976,23.07
		c3.712-0.573,7.424,1.108,9.98,3.746c2.878,2.874,4.333,6.927,4.558,10.938c0.341,5.658-1.205,11.238-3.289,16.443
		c5.101-4.947,10.399-9.685,15.653-14.475c8.682-8.158,17.124-16.6,24.938-25.6c1.957-2.414,4.292-4.622,5.523-7.529
		c1.003-2.765,1.923-5.613,2.077-8.573c0.172-9.236-1.388-18.404-3.454-27.374c-0.344-1.661-1.16-3.158-1.733-4.734
		c0.846,0.24,1.313,1.044,1.804,1.714c2.451,3.671,3.222,8.12,3.888,12.401c0.902,5.344,1.108,10.807,0.52,16.196
		c-0.269,1.98,0.052,3.974-0.094,5.961c-0.082,1.983-0.782,3.862-1.201,5.785c-0.614,2.556-2.429,4.547-4.012,6.552
		c-6.725,7.937-14.059,15.343-21.678,22.415c-4.854,4.524-9.977,8.745-14.983,13.097c-3.151,2.698-6.047,5.677-9.093,8.487
		c-2.324,3.911-4.498,8.042-7.896,11.163c-3.244,3.177-7.825,5.112-12.401,4.442c-0.558,1.658-1.197,3.286-1.957,4.865
		c-0.921,1.688-0.501,3.667-0.621,5.505c-0.172,4.91,1.052,10.078,4.244,13.913c1.366,1.695,3.42,2.511,5.43,3.166
		c-2.709-0.138-5.366-1.231-7.207-3.252c-3.379-3.607-4.502-8.697-4.977-13.472c-0.853,1.396-1.755,2.758-2.649,4.124
		c0.296,1.504,0.314,3.05,0.625,4.554c1.022,5.187,4.446,10.018,9.378,12.128c3.712,1.545,7.784,2.552,11.821,2.021
		c2.017-0.251,3.997-0.73,6.002-1.078c0.161-1.328,0.505-2.627,1.115-3.817c-7.578,0.468-14.662-5.25-16.739-12.379
		c1.699,4.281,5.179,7.9,9.64,9.269c2.054,0.573,4.172,1.126,6.324,1.029c1.467-0.153,2.803-0.909,3.997-1.733
		c0.165-1.4-0.427-2.717-0.853-4.012c-3.664,0.258-7.473-0.868-10.164-3.42c-4.161-4.128-6.137-10.336-5.074-16.11
		c0.891,3.525,1.25,7.293,3.218,10.444c1.837,2.941,4.67,5.561,8.173,6.216c2.051,0.509,3.63-1.287,4.906-2.608
		c2.425-4.217,5.232-8.206,8.203-12.057c8.296-10.946,17.251-21.371,26.071-31.894c5.591-6.515,11.189-13.034,16.761-19.56
		c1.254-2.451,2.979-4.824,5.486-6.1c0.651-0.374,1.407-0.348,2.103-0.105c1.355,0.438,2.803,0.281,4.176,0.019
		c2.773-0.531,5.359-1.706,7.915-2.87c2.818-1.291,5.587-2.814,7.844-4.973c1.568-1.516,3.181-3.087,4.109-5.097
		c4.928-2.642,10.759-2.844,15.758-5.333c1.317-0.692,2.604-1.871,2.664-3.461c-0.101-0.801-0.924-1.168-1.624-1.254
		c-2.013-0.296-3.982,0.363-5.939,0.718c-3.211,0.501-6.092,2.354-9.4,2.35c-1.998,0.18-3.854-1.153-4.738-2.87
		c-0.471-0.958,0.681-1.235,1.295-1.609c4.154-2.032,7.873-4.816,11.675-7.413c1.358-1.523,2.709-3.229,3.155-5.265
		c0.232-0.857-0.453-1.654-1.261-1.819c-1.527-0.363-3.203-0.314-4.674,0.225c-2.26,1.295-4.232,3.046-6.582,4.199
		c-2.881,1.459-5.407,3.506-8.236,5.056c1.347-2.672,4.053-4.158,6.496-5.673c2.904-1.695,4.932-4.592,8.057-5.954
		c0.314-0.876,0.921-1.766,0.733-2.728c-0.831-1.56-3.061-2.152-4.595-1.306c-1.946,0.936-3.529,2.444-5.235,3.738
		c-2.414,1.871-5.037,3.454-7.537,5.205c-1.351,0.951-2.881,1.62-4.502,1.938c3.97,2.653,7.765,5.774,10.272,9.913
		c1.429,2.279,2.346,4.999,1.901,7.713c-0.943-0.666-1.194-1.83-1.587-2.84c-1.56-4.636-4.726-8.659-8.674-11.511
		c-1.512-1.1-2.608-2.619-3.851-3.985c-0.868-0.995-2.084-1.542-3.211-2.174c1.134,0.135,2.178,0.599,3.229,1.01
		c0.142-0.101,0.419-0.299,0.558-0.397c0.879,0.677,1.935,0.232,2.829-0.153c4.633-2.088,8.783-5.067,12.914-7.989
		c2.242-1.478,5.048-3.05,7.784-1.991c2.129,0.883,2.646,3.69,1.534,5.565c1.706-0.049,3.581,0.191,4.898,1.388
		c1.018,0.947,0.894,2.533,0.453,3.731c-0.876,2.215-2.829,3.757-4.842,4.902c-2.036,1.415-3.701,3.308-5.815,4.622
		c-1.733,1.063-3.375,2.271-4.771,3.753c2.5,1.437,5.299-0.015,7.926-0.187c2.664-0.191,5.265-0.786,7.885-1.284
		c1.826-0.374,4.075,0.404,4.476,2.425v1.31c-0.359,0.969-0.887,1.905-1.721,2.541c-1.923,1.523-4.21,2.507-6.519,3.293
		c-3.02,0.995-6.047,2.069-9.224,2.421c-0.4,1.912-1.362,3.66-2.717,5.063c-4.292,4.532-10.137,7.162-16.009,8.989
		c-1.953,0.602-4.012,0.7-6.04,0.647c-1.826,1.295-3.791,2.466-5.31,4.135c-1.407,2.073-2.754,4.191-4.292,6.175
		c-5.636,7.29-11.485,14.418-17.513,21.386c-8.233,9.655-16.428,19.347-24.088,29.465c-2.485,3.125-4.614,6.556-7.555,9.295
		c2.597,2.41,2.399,6.915,0.221,9.531c-0.984,1.388-3.02,1.321-3.974,2.736c-1.059,1.269-1.287,3.087-2.631,4.135
		c-1.56,1.4-3.686,1.83-5.703,2.062c-0.913,2.44-2.485,4.539-3.918,6.691c-2.967,4.251-6.032,8.442-8.861,12.791
		c-7.989,11.975-16.465,23.643-23.77,36.059c-5.894,10.111-11.451,20.417-17.603,30.379c-2.32,3.693-4.502,7.503-7.278,10.886
		c8.697-3.297,16.787-8.057,25.675-10.875c3.847-1.197,7.806-2.305,11.87-2.245c4.502,0.116,8.981,1.306,12.952,3.413
		c4.315,3.911,7.241,9.086,9.599,14.351c1.265,2.945,3.379,5.434,4.625,8.382c-2.694,2.893-5.276,5.89-7.713,9.007
		c-2.53,3.08-5.348,6.601-9.569,7.181c0.165,0.584,0.314,1.179,0.457,1.778c-1.16-1.171-2.096-2.567-3.424-3.563
		c-2.941-2.286-6.616-3.345-10.224-4.015c-6.455-1.123-13.068-0.423-19.44,0.868c-6.388,1.28-12.596,3.297-18.954,4.685
		c1.647,2.051,2.889,4.464,4.97,6.141c3.54,2.885,7.226,5.591,11.069,8.057c6.653,4.285,13.053,9.015,18.718,14.557
		c4.303,4.247,8.064,9.411,9.213,15.462c0.876,5.018,0.861,10.358-1.059,15.144c-1.321,3.278-3.978,5.845-6.998,7.593
		c-3.574,2.084-7.548,3.327-11.428,4.696c-4.146,1.433-8.124,3.293-12.102,5.13c-2.129,1.044-4.423,1.864-6.212,3.476
		c-4.584,3.929-8.12,9.019-10.497,14.549c-0.486,0.995-0.142,2.174-0.588,3.173c-0.965,1.321-2.732,1.628-4.251,1.864
		c-6.451,0.947-12.802-1.875-17.67-5.943c-2.518,1.467-5.258,3.533-5.763,6.59c5.31,5.288,11.717,9.812,19.081,11.642
		c3.566,0.936,7.293,0.52,10.845-0.258c3.166-0.977,6.56-1.624,9.857-0.932c2.556,0.494,4.801,2.29,5.789,4.711
		c0.273,0.741,0.883,1.852,0.026,2.444c-0.733,0.632-1.568-0.03-2.167-0.49c-4.809,2.331-10.276,2.661-15.534,2.414
		c-8.51-0.539-17.075-0.015-25.551-1.141c5.516,0.262,11.036,0.341,16.559,0.202c5.737-0.191,11.522,0.681,17.218-0.322
		c2.503-0.419,4.913-1.313,7.103-2.593c-0.827-1.16-1.792-2.283-3.113-2.889c-3.196-1.553-6.912-1.478-10.347-0.932
		c-1.572,0.18-2.713,1.422-4.18,1.897c-3.39,1.183-7.103,0.464-10.366-0.797c-6.014-2.402-11.601-6.463-14.736-12.24
		c-0.415-0.202-0.823-0.404-1.227-0.606c-2.485,1.763-5.901,1.721-8.51,0.251c-2.137-1.239-4.199-3.024-4.782-5.527
		c-6.261,2.604-10.86,8.173-13.427,14.329c3.701,3.671,9.022,4.708,13.636,6.743c-2.152-0.228-4.202-0.98-6.227-1.706
		c-2.743-1.063-5.572-2.227-7.656-4.382c-0.206,0.805-0.404,1.602-0.662,2.402c-0.595-0.404-0.412-1.197-0.445-1.8
		c0.183-4.884,2.934-9.224,6.096-12.772c2.298-2.511,5.329-4.883,8.932-4.633c2.043-2.683,5.119-4.33,7.151-7.02
		c1.153-1.493,2.384-2.934,3.836-4.146c-1.007-2.59-1.845-5.321-1.8-8.128c-0.045-1.269,0.756-2.324,1.385-3.349
		c3.847-5.86,9.587-10.179,15.593-13.636c3.768-2.174,7.649-4.386,11.979-5.172c1.254-0.273,2.653-0.037,3.772-0.767
		c1.429-0.853,3.05-1.28,4.678-1.538c-0.131-1.052-0.157-2.107-0.071-3.155c-1.968-1.448-3.66-3.402-4.064-5.886
		c-3.671-0.965-7.376-1.837-10.957-3.121c-9.43-3.308-18.613-7.29-27.677-11.5c-11.679-5.49-22.98-11.829-33.537-19.268
		c-8.611-6.197-16.899-13.236-22.733-22.202c-3.551-6.017-7.72-11.75-10.25-18.306c-0.561,0.116-1.119,0.24-1.676,0.359
		c-0.404,1.508-0.879,3.009-1.632,4.382c-2.328,4.464-6.912,7.159-9.4,11.511c-3.499,6.081-6.107,12.611-9.045,18.969
		c-0.251,0.019-0.748,0.06-0.995,0.082c0.037,2.26,0.239,4.67-0.778,6.773c-0.486,1.048-1.508,1.849-2.679,1.92
		c-2.223,0.198-4.206-1.13-5.725-2.612c-1.766-1.77-3.383-3.708-4.651-5.868c-2.257,5.449-4.61,11.062-4.955,17.008
		c0.909,5.4,1.201,11.167-0.939,16.327c-0.726,1.894-2.414,3.102-3.768,4.517c-1.908,1.837-4.711,2.496-7.293,2.204
		c-3.51-0.423-6.721-2.47-8.805-5.291c-2.01-2.676-2.361-6.118-3.679-9.123c-0.082-1.789,0.168-3.776-0.928-5.325
		c-0.939-1.4-2.627-1.894-4.012-2.706c0.954-0.161,1.923-0.228,2.889-0.232c3.929-2.395,8.18-4.356,12.727-5.205
		c-2.107-4.139-3.881-8.502-4.805-13.071c-1.673-7.271-2.331-14.733-2.545-22.176c-0.09-5.505,0.322-11.11-1.22-16.469
		c1.972,5.434,2.013,11.275,2.601,16.959c0.775,7.885,1.632,15.803,3.563,23.504c1.07,4.408,3.218,8.472,4.221,12.899
		c-0.225-0.097-0.681-0.299-0.906-0.397c-1.523,0.617-3.14,0.932-4.711,1.392c-2.807,0.775-5.542,1.774-8.278,2.765
		c2.533,1.665,3.349,5.007,2.331,7.791c3.364-1.194,6.848-2.032,10.156-3.383c2.253-0.849,4.453-2.032,6.908-2.155
		c-2.462,2.923-6.485,3.529-9.977,4.457c-2.575,0.737-5.299,0.79-7.84,1.617c0.543,0.318,1.089,0.647,1.632,0.973
		c0.651,2.653,1.766,5.246,3.604,7.301c2.137,2.436,5.295,4.064,8.573,4.019c1.706-0.022,3.394-0.756,4.524-2.043
		c2.324-2.515,2.915-6.223,2.268-9.497c-0.367-2.111-1.388-4.023-1.901-6.088c2.552,1.373,3.529,4.356,4.049,7.024
		c0.352-3.024,0.363-6.081,0.213-9.112c-0.662-4.708-1.62-9.43-3.577-13.786c-0.58-1.328-1.321-2.578-1.916-3.896
		c1.497,1.714,2.904,3.514,4.135,5.43c1.138,1.751,1.691,3.783,2.182,5.793c0.359-3.985,1.467-7.862,3.076-11.514
		c1.703-4.105,3.42-8.21,5.407-12.188c0.576-1.239,1.553-2.41,1.433-3.858c-0.183-2.706-1.093-5.527-3.158-7.387
		c-0.801-0.711-1.774-1.527-2.919-1.366c-0.988,0.348-1.19,1.527-1.508,2.402c-0.958,3.791-2.039,7.555-3.36,11.238
		c-1.145,3.102-2.889,6.392-6.148,7.66c2.765-2.286,3.911-5.789,4.928-9.097c-1.014-1.418-1.688-3.031-2.5-4.562
		c-0.951-1.617-1.276-3.488-1.819-5.258c-0.659-2.189-0.707-4.483-1.014-6.732c-0.135-0.932,0.03-1.89,0.505-2.702
		c0.909-1.617,1.59-3.349,2.582-4.917c2.283-3.604,4.539-7.226,6.71-10.897c4.199-7.23,7.32-15.062,12.027-22
		c3.229-4.753,7.069-9.213,11.915-12.375c3.881-2.556,8.558-4.045,13.232-3.66c4.951,0.314,9.572,2.634,13.322,5.793
		c5.478,4.592,9.524,10.56,13.696,16.289c3.402,4.655,6.616,9.449,9.569,14.4c-1.216-5.235-2.069-10.545-2.717-15.878
		c-0.98-8.364-2.088-16.712-3.226-25.054c-2.313-16.682-4.502-33.384-6.268-50.133c-0.887-8.352-1.748-16.712-2.118-25.106
		c-0.007-1.029-0.494-1.953-0.707-2.938c-0.464-2.44-0.554-4.947-1.201-7.346c-0.374-0.864-0.715-1.927-1.665-2.305
		c-3.615-1.557-6.167-4.861-7.754-8.364c-1.182-2.578-1.007-5.478-1.037-8.24c0.015-1.83,0.082-3.768,1.089-5.362
		c-1.179-0.655-2.466-1.669-2.294-3.185c0.161-2.709,2.537-4.315,4.318-6.01c-0.359-3.042-1.602-5.909-2.047-8.944
		c-0.573-4.027-1.733-7.933-2.414-11.941c-2.234-12.248-3.989-24.582-6.242-36.826c-0.756-3.51-1.433-7.035-2.032-10.572
		c-0.509-3.256-2.765-5.875-3.402-9.097c-3.166-1.287-5.725-3.66-7.862-6.272c-4.202-5.13-6.998-11.2-9.838-17.139
		c-2.556-5.478-5.894-11.163-5.074-17.45c0.168-2.103,2.941-3.054,4.558-1.879c2.638,1.778,3.491,4.999,4.592,7.791
		c1.819,2.698,3.671,5.482,6.242,7.533c-1.358-5.404-3.675-10.538-4.685-16.031c-0.483-2.354,0.094-4.711,0.498-7.028
		c0.528-2.387,3.368-3.881,5.643-3.02c1.373,0.49,2.339,1.647,3.244,2.732c0.247-1.254,0.363-2.541,0.711-3.776
		C297.104,79.322,298.751,78.473,300.289,78.117 M296.94,84.714l-0.494-0.075c1.123,6.586,4.655,12.532,5.362,19.205
		c2.425-1.183,5.022-1.976,7.645-2.59c-2.111-2.938-2.923-6.549-3.331-10.081c-0.146-1.796-0.924-3.45-1.265-5.209
		c-0.64-2.133-1.478-4.607-3.521-5.767C298.859,79.838,297.194,82.54,296.94,84.714 M288.898,84.778
		c-0.906,1.033-0.977,2.451-1.463,3.679c0.46,2.324,1.029,4.625,1.643,6.912c1.19,4.367,3.342,8.409,4.412,12.806
		c2.855-1.227,5.411-3.012,8.218-4.333c-0.419-0.311-0.767-0.685-1.044-1.119c-2.537-4.019-4.075-8.644-4.554-13.371
		c0.015-0.902-0.644-1.553-1.07-2.275c-0.816-1.261-1.572-2.773-3.08-3.312C290.848,83.285,289.583,83.865,288.898,84.778
		 M379.207,132.767c-9.12,7.17-15.197,17.435-19.519,28.044c2.982-0.258,5.83,0.954,8.259,2.575
		c-2.601-1.422-5.591-2.384-8.577-1.729c-0.24,0.565-0.479,1.13-0.726,1.695c2.975-0.284,5.894,0.876,8.285,2.575
		c-2.638-1.313-5.617-2.358-8.592-1.676c-2.754,7.297-4.917,14.811-6.601,22.423c-0.195,1.452-0.082,3.188,1.078,4.232
		c1.014,1.052,1.224,2.578,1.321,3.978c0.105,2.111,0.389,4.296-0.329,6.339c1.347-0.816,3.327-1.313,4.521,0.037
		c-1.635,0.498-3.375,0.4-5.041,0.771c-1.156-2.14-0.18-4.517-0.296-6.788c-0.513-0.969-1.302-1.785-1.688-2.825
		c-0.344-0.647-0.404-1.516-1.055-1.953c-2.399-1.643-5.16-2.975-8.124-3.016c-4.307-0.183-9.075,0.951-11.919,4.423
		c-2.96,3.641-3.48,8.581-3.36,13.109c0.254,5.164,0.984,10.31,2.208,15.331c1.235,4.977,3.072,9.894,6.103,14.074
		c1.415,1.927,3.095,3.753,5.254,4.846c1.688,0.861,3.768,1.048,5.52,0.266c2.638-2.852,1.938-6.998,2.062-10.545
		c0.217-4.569,0.374-9.179,1.115-13.7c-0.326,8.76,0.808,17.532,2.795,26.053c2.013,8.375,6.403,15.87,10.22,23.508
		c3.042,5.905,5.303,12.166,7.548,18.404c2.358,6.481,5.115,12.925,9.284,18.471c3.274,4.382,7.533,8.068,12.495,10.407
		c7.611,3.622,16.563,4.034,24.601,1.643c0.973-0.284,1.822-0.857,2.642-1.437c0.116,0.105,0.355,0.318,0.475,0.423
		c4.973-2.137,9.527-5.269,13.064-9.389c2.545-3.012,5.1-6.111,6.74-9.73c2.039-3.955,4.461-7.698,6.927-11.399
		c3.795-5.538,8.251-10.605,11.758-16.346c4.244-6.676,7.967-13.842,9.576-21.648c0.936-4.947,1.153-10.205-0.617-14.995l-0.464-0.4
		c0.404,0.019,0.808,0.034,1.216,0.045l-0.333,0.617l0.528,0.112c-0.64-3.297-1.546-6.545-2.941-9.606
		c4.461,7.099,5.359,15.979,3.877,24.107c-0.666,2.829-1.212,5.681-1.89,8.506c1.77,1.059,3.884,0.475,5.808,0.337
		c4.266-2.432,6.949-6.796,9.209-11.017c2.997-5.542,5.273-11.552,6.036-17.835c0.453-3.802-0.026-7.945-2.417-11.065
		c-2.421-3.244-6.313-5.86-10.515-5.396c-1.014,1.022-2.215,1.819-3.331,2.721c-1.003,0.797-1.665,2.081-3.016,2.365
		c0.363-2.028,1.28-3.899,1.804-5.886c2.496-7.858,1.819-16.245,1.018-24.32c-0.715-6.358-1.474-13.038-4.985-18.557
		c-1.048-1.748-2.657-3.016-4.139-4.371c4.363,1.235,6.942,5.49,8.409,9.501c1.822,5.029,2.462,10.377,3.155,15.653
		c0.958,7.585,0.846,15.399-1.197,22.805c0.412-0.427,1.078-0.722,1.093-1.396c0.947-5.856,1.856-11.728,2.496-17.629
		c0.82-7.578,1.265-15.331-0.37-22.834c-1.168-5.561-3.701-10.792-7.147-15.294c-4.476-5.883-10.295-10.613-16.521-14.534
		c-12.678-7.971-27.437-13.079-42.511-13.071C398.684,122.768,387.705,125.964,379.207,132.767 M312.473,218.821
		c0.266,2.148,3.72,0.524,3.982,2.623c-0.307,1.538-2.043,2.455-1.908,4.131c0.067,1.864,0.24,3.727,0.258,5.594
		c0.034,2.002,1.115,3.742,2.006,5.467c0.546,0.932,0.962,2.159,2.152,2.421c4.019,1.516,8.33,0.333,12.473,0.326
		c-0.385,0.326-0.778,0.666-1.284,0.778c-3.465,1.037-7.215,1.523-10.747,0.528c0.823,0.924,1.77,1.774,2.878,2.335
		c2.87,0.064,5.729,0.606,8.603,0.303c2.444-0.123,4.82-0.73,7.2-1.254c-0.172,0.984-1.209,1.332-1.972,1.759
		c-3.345,1.684-7.204,1.594-10.837,1.272c-0.082,1.695-0.49,3.432,0.086,5.089c1.134,3.821,1.759,7.765,2.492,11.679
		c1.351,7.443,2.474,14.927,3.667,22.4c0.977,4.887,2.387,9.673,3.708,14.475c2.208,7.791,3.955,15.709,5.291,23.695
		c0.7,4.655,1.418,9.31,2.26,13.943c-3.476-12.128-5.303-24.664-8.813-36.785c2.908,20.185,6.115,40.336,8.33,60.615
		c0.965,9.243,2.893,18.34,4.251,27.523c0.273,0.947,1.074,1.602,1.718,2.309c2.395,2.421,4.809,4.857,7.544,6.904
		c-4.453-6.399-6.646-14.089-7.69-21.734c-0.434-3.592-0.831-7.211-0.561-10.83c-0.026,6.044,0.816,12.102,2.474,17.914
		c1.744,5.658,4.337,11.219,8.491,15.519c-2.436-5.557-3.551-11.552-5.13-17.378c2.301,6.668,3.405,14.055,7.974,19.68
		c1.302,1.849,3.533,2.552,5.46,3.536c1.965,0.977,4.079,1.617,6.04,2.597l-0.292,0.483c-3.997-0.015-7.922-1.205-11.507-2.908
		c-4.801-2.264-8.824-5.827-12.428-9.662c-0.995-1.16-2.447-1.759-3.533-2.814c-1.411-1.355-2.526-2.975-3.727-4.506
		c-7.903-10.658-14.808-22.022-22.857-32.571c-3.533-4.378-7.196-9.015-12.394-11.477c-3.847-1.879-8.438-1.538-12.308,0.086
		c-4.352,1.826-7.877,5.149-10.822,8.764c-5.056,6.223-8.513,13.509-12.663,20.323c-3.125,5.187-6.927,9.913-10.572,14.736
		c2.885-0.793,6.059-0.333,8.547,1.34c4.027,2.646,6.654,6.893,8.693,11.155c2.5,5.546,4.315,11.485,4.719,17.577
		c0.138,1.212-0.127,2.474,0.202,3.66c0.075,0.019,0.221,0.052,0.296,0.071c1.235-9.441,5.254-18.64,11.863-25.559
		c0.258-0.269,0.46-0.573,0.602-0.909c1.725-4.528,2.889-9.4,2.264-14.265c-0.329-4.053-1.901-7.851-3.91-11.339
		c2.14,1.261,3.548,3.439,4.476,5.692c1.871,4.663,1.946,9.827,1.358,14.755c1.186-2.103,1.83-4.498,1.871-6.908
		c0.094-4.408-0.438-8.813-1.325-13.124c-0.225-1.149-0.584-2.283-0.558-3.465c0.322,0.457,0.595,0.943,0.79,1.478
		c1.968,5.381,3.72,11.009,3.432,16.81c1.639-0.318,2.511-1.837,3.001-3.289c1.224-3.742,1.531-7.694,1.92-11.582
		c0.314,0.719,0.322,1.508,0.378,2.283c0.142,2.489,0.475,4.985,0.183,7.477c-0.161,2.182-1.385,4.12-1.313,6.339
		c0.382,0.546,0.763,1.1,1.093,1.688c1.778,3.503,3.881,6.833,5.823,10.25c2.818,4.955,6.567,9.325,10.789,13.127
		c3.753,3.297,7.597,6.526,11.754,9.299c-4.434-4.674-8.558-9.7-11.645-15.38c-3.084-5.677-5.711-11.593-8.371-17.472
		c3.312,6.369,6.373,12.888,10.235,18.954c3.402,5.318,7.6,10.07,12.053,14.527c1.456,1.407,2.702,3.072,4.464,4.124
		c3.495,2.253,7.013,4.487,10.643,6.519c-3.282-2.653-6.451-5.452-9.329-8.543c-8.951-9.426-15.822-20.548-22.445-31.666
		l0.206-0.094c4.839,7.791,9.898,15.474,15.638,22.636c6.496,8.18,14.134,15.496,22.902,21.21c3.181,2.257,6.762,3.832,10.242,5.568
		c6.044,2.919,12.173,5.662,18.381,8.218c7.821,3.11,15.676,6.152,23.433,9.423c1.729,0.726,3.256,1.845,4.951,2.631
		c2.653,0.872,5.246,1.916,7.93,2.691c-4.273,0.659-8.633,0.034-12.824-0.861c3.177,3.14,7.249,5.239,11.496,6.53
		c3.181,1.014,6.631,1.313,9.868,0.37c-2.687,1.583-5.894,2.155-8.981,1.953c-3.353-0.202-6.5-1.486-9.505-2.885
		c1.067,6.769,6.886,12.603,13.745,13.393c-1.744,0.801-3.772,0.505-5.475-0.258c-2.732-1.183-4.764-3.42-6.93-5.377
		c-0.894-0.827-1.572-1.845-2.208-2.87c-0.909,0.303-1.83,0.558-2.769,0.748c-0.109,0.135-0.329,0.408-0.438,0.543
		c-3.375,0.883-6.717,1.893-9.95,3.207c-4.891,1.923-9.438,4.592-13.876,7.376c-3.439,2.148-6.294,5.056-9.479,7.533
		c0.329,8.251,5.172,15.743,11.533,20.746c3.806,3.05,8.723,4.741,13.606,4.446c1.669-0.086,3.649-0.891,4.023-2.702
		c0.775-3.615,1.8-7.211,3.514-10.504c2.586-5.258,7.29-9.142,12.383-11.848c3.005-1.62,6.38-2.275,9.632-3.2
		c4.15-1.662,8.476-2.953,12.371-5.187c2.732-1.568,5.142-3.989,5.991-7.095c1.257-4.558,0.947-9.498-0.659-13.928
		c-2.425-6.586-7.589-11.634-12.806-16.11c-6.631-5.797-14.104-10.751-19.627-17.708c-0.797-1.111-2.066-1.695-3.14-2.485
		c-2.305-1.605-3.798-4.038-5.651-6.092c-7.118,1.25-14.692,1.306-21.457-1.531c-6.915-2.769-12.525-8.51-15.23-15.44
		c-2.739-6.642-2.436-13.996-1.785-21.005c0.445-3.873,0.733-7.806,1.886-11.552c0.629-1.826,1.265-3.738,2.649-5.149
		c-3.828-8.102-7.189-16.469-9.251-25.207c-3.263,4.715-5.699,9.924-8.453,14.939c-0.685,1.209-1.261,2.507-2.2,3.551
		c1.647-4.318,3.45-8.588,5.493-12.734c2.717-5.325,5.931-10.56,10.572-14.426c0.943-0.737,2.148-1.56,3.398-1.096
		c0.359,1.579,1.497,2.848,2.436,4.128c-0.883-2.84-2.167-5.737-4.543-7.649c-1.063-0.823-1.995-1.815-2.679-2.979
		c-3.809-6.534-5.108-14.201-5.063-21.686c-0.629,1.508-1.149,3.061-1.74,4.588c-2.174,5.512-3.263,11.369-4.337,17.173
		c-1.557,8.431-2.257,16.993-2.653,25.547c-0.071,1.415-0.067,2.837-0.333,4.236c-0.251-8.139-0.378-16.308,0.419-24.425
		c0.76-7.237,2.028-14.452,4.27-21.386c0.868-2.915,1.95-5.778,3.533-8.379c0.498-1.628,0.531-3.364,0.838-5.033
		c0.498-2.638,0.094-5.348,0.565-7.989c0.097-0.969,0.614-1.976,0.116-2.915c-1.695-4.678-3.263-9.415-5.407-13.913
		c1.284,9.962,1.048,20.058,0.505,30.06c-0.326-4.386-0.172-8.794-0.385-13.184c-0.236-6.856-0.928-13.715-2.526-20.395
		c-0.116-2.208-1.456-4.008-2.365-5.935c-3.113-6.193-5.909-12.615-7.35-19.418c-1.725,0.849-3.577,1.542-5.52,1.62
		c-1.98-0.045-3.903-0.827-5.445-2.054c-3.229-2.518-5.639-5.946-7.424-9.599c-2.361,1.594-5.299,1.826-8.068,1.789
		c-2.118,0.056-3.555-1.714-5.011-2.982c1.471,0.359,2.728,1.392,4.277,1.452c2.814,0.041,5.411-1.16,8.105-1.796
		c-1.942-4.723-3.166-9.703-4.307-14.665c-0.662,0.674-1.366,1.441-2.358,1.587c-1.991,0.318-3.914-0.505-5.662-1.358
		c-1.022,0.206-2.122,0.03-2.462-1.119C314.06,215.599,312.836,217.04,312.473,218.821 M445.263,288.256
		c-3.529,7.222-7.286,14.561-13.135,20.215c-3.795,3.757-8.618,6.283-13.614,8.057c-2.844,7.136-3.615,14.838-4.775,22.374
		c-1.313,8.569-3.454,17.004-4.438,25.63l-0.344,0.846c-0.251-6.874,1.194-13.651,2.215-20.413
		c1.052-6.201,1.22-12.517,2.369-18.707c0.573-2.967,0.98-5.987,2.047-8.831c-2.485,0.647-5.022,1.078-7.582,1.295
		c-2.848,4.91-5.347,10.152-9.408,14.213c-2.032,2.036-4.913,3.585-7.866,3.009c3.503-0.468,6.077-3.166,7.974-5.939
		c2.41-3.521,4.266-7.372,6.201-11.163c-4.431-0.112-8.876-0.898-12.955-2.676c-6.575-2.78-12.229-7.518-16.428-13.266
		c-3.151-4.217-5.445-8.985-7.398-13.85c-0.198,7.421,0.011,14.886,1.141,22.239c0.887,5.115,1.965,10.369,4.723,14.852
		c0.745,1.474,2.313,2.309,3.054,3.787c0.745,1.572,1.665,3.057,2.331,4.666c4.622,0.314,9.396,1.34,13.165,4.176
		c0.849-0.262,1.796-0.558,2.638-0.09c1.95,0.977,3.166,2.896,4.3,4.678c4.27,7.234,6.579,15.38,9.322,23.25
		c0.195,1.074,0.513,2.141,0.494,3.248c-0.984-0.647-1.156-1.882-1.602-2.878c-3.095-7.967-5.901-16.121-10.22-23.534
		c-1.123-1.751-2.32-3.753-4.442-4.382c1.8,1.841,3.177,4.15,3.802,6.627c-2.455,5.059-5.164,10.006-8.087,14.811
		c-1.287,1.841-2.024,3.989-2.661,6.126c0.082,3.783-0.206,7.735,1.291,11.309c1.141,2.556,2.709,4.913,4.468,7.088
		c2.829,3.413,6.264,6.59,10.553,8.008c3.997,1.332,8.24,0.127,12.083-1.16c0.404-3.529,1.927-6.792,3.686-9.834
		c2.47-4.259,4.951-8.51,7.394-12.787c6.354-10.942,12.128-22.232,19.074-32.822c-8.379,9.625-16.578,19.459-23.658,30.098
		c-0.569,0.767-0.932,1.785-1.882,2.174c0.569-1.426,1.512-2.653,2.316-3.944c9.078-13.973,19.987-26.614,30.614-39.405
		c2.066-2.938,4.094-5.905,6.088-8.891c-7.885,8.555-15.919,16.986-23.71,25.634c-2.724,2.911-5.213,6.044-8.019,8.869
		c1.171-1.763,2.698-3.252,4.03-4.891c9.977-11.492,19.882-23.051,30.034-34.39c1.643-1.953,3.495-3.75,4.898-5.894
		c2.885-4.236,6.025-8.289,9.303-12.222c-4.782-0.909-9.745-2.623-13.041-6.392c-3.611-4.03-4.868-9.688-4.367-14.976
		C453.305,277.591,449.184,282.853,445.263,288.256 M370.544,335.714c1.71-0.617,3.51-0.921,5.318-1.089
		c-0.314-0.763-0.64-1.519-0.992-2.257C373.294,333.3,371.85,334.434,370.544,335.714 M370.297,337.63
		c-1.489,0.486-2.657,1.669-3.125,3.166c3.11,8.109,8.094,15.376,10.86,23.635c2.028-1.385,4.543-0.951,6.747-0.322
		c1.31-1.231,2.163-2.874,3.177-4.348c2.298-5.071,4.116-10.369,6.856-15.234c-3.054-4.547-8.461-6.871-13.76-7.428
		C377.482,336.773,373.747,336.436,370.297,337.63 M376.995,366.762c-1.733,4.24-2.586,8.775-2.96,13.326
		c-0.524,6.35-1.22,12.839,0.191,19.13c1.063,5.007,3.765,9.662,7.686,12.97c5.812,4.962,13.677,7.058,21.222,6.702
		c9.494-0.573,18.46-4.034,27.688-6.025c7.084-1.59,14.49-1.965,21.663-0.756c4.91,0.831,9.943,3.132,12.469,7.645
		c2.29-1.34,4.397-2.997,6.137-5.007c3.51-3.832,5.722-8.779,9.86-12.042c-2.668-2.242-3.963-5.561-5.347-8.656
		c-1.968-4.509-5.149-8.315-7.683-12.491c-5.011-1.908-10.515-2.114-15.766-1.212c-4.509,0.808-8.918,2.144-13.165,3.843
		c-6.665,2.694-12.993,6.148-19.717,8.697c-4.116,1.508-8.379,2.911-12.802,3.031c-5.609,0.161-10.68-3.08-14.486-6.938
		c-2.904-3.173-5.804-6.556-7.267-10.669c-1.332-3.854-1.093-7.997-0.771-11.994c-1.22-0.269-2.399-0.726-3.645-0.861
		C379.042,365.359,378.013,366.152,376.995,366.762 M256.128,392.452c-0.311,3.458,1.179,6.713,2.316,9.894
		c0.191,1.654,1.444,2.803,2.432,4.034c0.838-3.488,1.471-7.024,2.144-10.549c0.453-2.324,0.647-4.704,1.358-6.972
		C261.318,388.227,257.258,389.189,256.128,392.452 M266.786,389.877c-0.329,2.036-0.82,4.038-1.328,6.036
		c1.759-0.097,3.533,0.509,4.805,1.736c1.89,1.89,2.747,4.547,3.312,7.099c0.659-0.812,1.433-1.527,2.369-2.002
		C273.66,398.013,271.201,392.983,266.786,389.877 M273.705,409.307c-1.804,3.252-3.375,6.627-4.925,10.006
		c2.103,2.631,3.862,5.681,6.77,7.529c0.846,0.535,2.025,1.119,2.949,0.427c1.1-0.921,1.418-2.444,1.62-3.794
		c0.146-6.298-0.677-12.719-3.271-18.509C275.501,406.171,274.588,407.754,273.705,409.307 M373.747,509.846
		c-1.927,1.508-4.071,2.721-6.006,4.217c0.662,1.991,2.361,3.574,4.064,4.767c2.335,1.549,5.314,1.141,7.754,0.075
		c0.217-3.136,2.754-5.43,5.198-7.076c-2.141-2.111-3.952-4.532-5.434-7.14C377.47,506.415,375.816,508.361,373.747,509.846z"/>
	<path fill="#242021" d="M310.161,116.523c2.799-2.2,6.466-3.6,10.055-2.997c0.412,0.127,1.033,0.131,1.175,0.632
		c-3.454,0.834-7.23,1.16-10.137,3.413c-1.654,1.377-3.155,3.256-3.327,5.475c-0.079,1.048,0.685,1.834,1.19,2.664
		c-1.014-0.591-2.043-1.422-2.159-2.679C306.666,120.467,308.204,118.049,310.161,116.523z"/>
	<path fill="#242021" d="M389.632,134.646c4.056-2.343,8.828-3.454,13.502-2.953c7.342,0.662,13.977,4.303,20.028,8.293
		c4.779,3.222,9.501,6.549,14.531,9.385c-2.706-3.974-2.444-8.955-2.593-13.535c0.427,0.617,0.21,1.433,0.311,2.137
		c0.176,3.832,0.486,8.019,2.968,11.144c1.003,1.362,2.597,2.024,4.068,2.743c-2.567-2.167-3.978-5.366-4.487-8.633
		c-0.486-2.612-0.419-5.276-0.573-7.915c0.49,4.042,0.539,8.281,2.455,11.99c1.168,2.53,3.308,4.412,5.576,5.95
		c1.572,0.838,3.241,1.482,4.812,2.331c-0.666-0.704-1.299-1.459-1.65-2.373c-1.212-3.162-1.819-6.571-1.456-9.954
		c0.857,1.246,0.835,2.837,1.59,4.135c1.875,3.611,4.371,6.994,7.57,9.539c-2.137-3.443-4.292-7.32-3.693-11.529
		c1.617,2.373,3.196,4.775,4.835,7.132c1.463,2.137,3.473,3.892,4.644,6.219c-1.546-0.733-2.646-2.099-3.738-3.364
		c-1.983-2.376-3.413-5.13-4.981-7.78c0.355,3.675,2.204,6.923,3.854,10.145c-0.198-0.019-0.595-0.06-0.793-0.079
		c-3.544-2.567-6.388-6.04-8.218-10.018c0.254,2.874,0.629,6.066,2.979,8.053c0.034,0.21,0.101,0.621,0.135,0.827
		c-6.343-1.429-12.416-3.944-18.082-7.114c-5.127-2.833-9.617-6.635-14.624-9.647c-5.026-3.076-10.609-5.651-16.589-5.864
		c-6.062-0.217-11.964,2.346-16.495,6.268c-7.585,6.56-12.207,16.376-12.525,26.389c-1.126-4.453-0.127-9.172,1.437-13.401
		C377.414,145.651,382.526,138.713,389.632,134.646z"/>
	<path fill="#242021" d="M563.69,143.058c1.407-0.644,3.271-1.111,4.532,0.086c1.74,1.864,1.605,4.82,0.535,6.998
		c-1.635,3.259-3.925,6.13-5.673,9.329c-1.396,2.395-2.848,5.052-5.422,6.35l-0.46-0.105l-0.21-0.438
		c0.464-1.269,1.328-2.339,2.084-3.446c2.271-3.065,3.806-6.601,6.163-9.606c1.624-2.155,3.248-5.052,2.047-7.772
		C566.639,143.073,564.966,143.189,563.69,143.058z"/>
	<path fill="#242021" d="M561.587,145.648c0.879-0.711,1.718-1.594,2.885-1.789c-2.822,5.041-6.901,9.236-10.227,13.939
		c-2.279,3.136-4.446,6.784-8.233,8.259c3.978,3.675,6.335,9.415,5.097,14.804c0.004,0.644-0.711,0.894-1.149,0.453
		c-1.078-3.465-1.482-7.162-3.196-10.411c-0.879-1.867-2.339-3.338-3.712-4.842c-1.078-1.145-1.849-2.773-1.104-4.318
		c-1.444,0.112-1.134-1.456-1.175-2.41c0.082-2.642-0.857-5.213-2.178-7.462c-0.973-1.564-2.264-3.196-4.161-3.6
		c-0.958-0.225-1.882,0.202-2.795,0.415c0.958-1.358,2.743-2.103,4.352-1.493c3.039,1.07,4.741,4.098,5.995,6.871
		c0.977,2.324,1.781,5.276,0.094,7.481c0.097,1.632,1.381,2.683,2.563,3.615c1.759-1.774,3.742-3.334,5.273-5.329
		C553.676,155.007,556.924,149.689,561.587,145.648z"/>
	<path fill="#242021" d="M399.032,157.637c5.082-1.302,10.818-0.887,15.309,1.991c3.469,2.227,5.362,6.204,6.051,10.164
		c0.195,1.373,0.591,2.78,0.341,4.169c-0.569,0.314-1.299,0.277-1.579-0.385c-1.923-2.855-3.892-5.856-6.889-7.694
		c-3.544-2.066-7.72-3.185-11.825-2.646c-5.759,0.535-10.871,3.499-15.616,6.59c0.165-1.624,1.059-3.054,1.953-4.375
		C389.688,161.417,394.28,158.861,399.032,157.637z"/>
	<path fill="#242021" d="M438.572,169.309c3.828-2.661,8.903-3.922,13.393-2.279c4.491,1.718,8.154,5.449,9.864,9.932
		c1.04,2.754,1.347,5.696,1.923,8.562c0.449,2.185,0.67,4.618-0.438,6.65c-0.479,0.303-1.078,0.064-1.34-0.393
		c-1.658-2.271-2.245-5.078-3.185-7.679c-1.018-3.035-3.035-5.598-5.078-8.008c-2.395-2.84-6.103-4.431-9.808-4.259
		c-3.649,0.03-7.039,1.617-9.954,3.701C434.283,172.808,436.428,170.791,438.572,169.309z"/>
	<path fill="#242021" d="M365.907,173.713c1.602-1.983,3.611-3.907,6.193-4.438c0.887-0.183,0.715,0.797,0.262,1.175
		c-1.811,2.073-4.307,3.45-5.943,5.699c-4.547,5.546-6.665,12.607-7.739,19.586C358.793,187.907,361.035,179.937,365.907,173.713z"
		/>
	<path fill="#242021" d="M380.419,179.94c0.823-1.894,1.624-3.896,3.102-5.381c-0.707,1.624-1.658,3.136-2.279,4.805
		c-2.709,6.668-3.05,13.977-3.128,21.087C377.8,193.577,377.938,186.452,380.419,179.94z"/>
	<path fill="#242021" d="M433.239,178.41c-0.932,4.558-2.949,8.787-4.206,13.251c-1.901,7.488-2.092,15.358-0.936,22.98
		c-0.659-1.07-0.872-2.331-1.1-3.544c-0.726-4.273-0.352-8.637,0.296-12.895C428.225,191.331,430.942,184.899,433.239,178.41z"/>
	<path fill="#242021" d="M417.616,207.396c3.375-7.978,3.405-16.802,3.667-25.315c0.157,7.589,0.281,15.369-1.942,22.703
		c-1.366,4.273-3.686,8.483-7.387,11.144C414.233,213.373,416.329,210.6,417.616,207.396z"/>
	<path fill="#242021" d="M392.843,184.285c5.018-1.347,10.545,0.853,13.816,4.764c1.598,1.849,2.578,4.116,3.357,6.41
		c-0.161,0.307-0.318,0.61-0.475,0.917c-0.939-3.952-3.611-7.387-7.013-9.542c-3.742-2.395-8.801-2.597-12.671-0.374
		c-3.813,2.137-6.264,5.98-7.971,9.89c1.048-3.031,2.133-6.227,4.472-8.532C388.173,186.122,390.452,184.94,392.843,184.285z"/>
	<path fill="#242021" d="M386.358,190.856c4.236-3.974,11.155-5.336,16.312-2.376c3.432,1.916,5.879,5.333,6.998,9.06
		c-0.004-0.573,0.262-1.078,0.524-1.56c0.457,2.975,0.883,6.1-0.161,9.007c-0.621,1.647-1.115,3.473-2.402,4.738
		c0.464-2.485,1.893-4.756,1.826-7.342c-0.09-3.45-1.658-6.698-3.738-9.385c-1.819-2.343-4.442-4.225-7.458-4.535
		c-4.479-0.516-9.382,1.025-12.259,4.618c-2.406,2.844-3.241,6.586-3.776,10.179C381.684,198.808,383.113,194.018,386.358,190.856z"
		/>
	<path fill="#242021" d="M330.327,198.247c0.704-2.698,2.571-5.411,5.441-6.04c2.956-0.64,5.898,0.932,7.907,3.009
		c3.327,3.439,5.385,8.652,3.753,13.359c-2.444,0.453-3.854,3.087-3.701,5.415c0.236,1.523,0.932,2.926,1.575,4.311
		c0.359,0.808,0.906,1.62,0.719,2.556c-2.657-1.07-4.584-3.664-4.947-6.485c-0.531-3.405,2.159-6.713,5.325-7.634
		c-0.995-3.869-2.268-8.064-5.542-10.635c-1.647-1.37-4.116-1.789-5.995-0.632c-3.443,2.032-4.958,6.523-3.847,10.302
		C329.661,203.531,329.71,200.713,330.327,198.247z"/>
	<path fill="#242021" d="M434.639,196.076c2.646-2.713,6.717-3.824,10.403-3.08c3.989,0.793,7.593,3.237,9.924,6.552
		c1.961,2.941,1.972,6.691,1.478,10.066c-0.127-3.203-0.4-6.582-2.279-9.303c-2.503-3.57-6.567-6.291-11.017-6.414
		c-3.211-0.15-6.579,0.98-8.712,3.458c-2.215,2.414-3.405,5.497-4.696,8.453C430.736,202.311,431.997,198.688,434.639,196.076z"/>
	<path fill="#242021" d="M386.912,201.974c-0.165-4.786,4.902-8.73,9.512-7.844c3.241,0.599,6.298,3.308,6.414,6.751
		c-0.004,2.829-0.861,5.894-3.155,7.731c2.29,0.307,4.588,0.516,6.889,0.741c-3.97,0.898-8.117,0.251-12.035-0.617
		c-2.503-0.689-5.074-1.104-7.578-1.781c-1.852-0.464-3.349-1.699-4.865-2.792c2.309,0.591,4.322,2.066,6.762,2.234
		C388.019,205.02,386.9,203.68,386.912,201.974 M389.647,197.154c-2.369,2.384-2.986,6.882-0.269,9.236
		c2.825,0.55,5.606,1.306,8.435,1.841c0.969-0.752,2.077-1.407,2.754-2.462c1.246-2.088,1.661-4.809,0.543-7.039
		C399.152,194.553,392.705,193.82,389.647,197.154z"/>
	<path fill="#242021" d="M432.813,201.394c3.454-4.584,10.074-6.639,15.444-4.453c2.971,1.16,5.437,3.577,6.564,6.571
		c1.706,4.169,1.269,8.955-0.487,13.03c-0.183,0.367-0.408,0.704-0.677,1.014c0.546-3.48,1.527-7.005,0.883-10.549
		c-0.726-4.075-3.832-7.709-7.795-8.955c-5.202-1.43-11.043,1.126-13.756,5.74c-1.718,2.593-2.099,5.729-2.395,8.745
		C430.358,208.751,430.515,204.597,432.813,201.394z"/>
	<path fill="#242021" d="M392.779,198.404c2.548-0.999,5.407,1.703,4.547,4.303c-0.617,2.664-4.39,3.521-6.137,1.444
		C389.501,202.348,390.429,199.108,392.779,198.404z"/>
	<path fill="#242021" d="M459.382,211.984c2.275-3.933,3.334-8.487,3.443-13.008c0.651,4.483-0.423,9.236-3.046,12.944
		C459.681,211.939,459.479,211.969,459.382,211.984z"/>
	<path fill="#242021" d="M439.822,202.517c4.266-1.778,9.711,0.528,11.38,4.831c1.194,3.491-0.311,7.522-3.214,9.707
		c1.426,0.109,2.863,0.183,4.255,0.543c-1.826,0.651-3.813,0.535-5.722,0.599c-5.355-0.079-11.092-1.033-15.324-4.565
		c1.905,0.539,3.723,1.343,5.639,1.849c-1.261-1.609-2.088-3.563-1.935-5.643C434.77,206.655,436.847,203.606,439.822,202.517
		 M436.371,207.119c-0.587,1.837-0.793,3.843-0.4,5.744c0.161,1.07,0.883,1.935,1.811,2.455c-0.228,0.019-0.685,0.056-0.913,0.071
		c2.309,1.033,4.876,1.227,7.368,1.452c0.883,0.004,1.908,0.341,2.664-0.299c2.462-1.676,4.098-4.805,3.465-7.799
		c-0.849-3.596-4.666-6.126-8.308-5.654C439.657,203.332,437.206,204.758,436.371,207.119z"/>
	<path fill="#242021" d="M360.59,206.973c4.019-2.264,8.944-2.541,13.337-1.287c-0.61,0.258-1.272-0.007-1.897-0.03
		c-3.907-0.457-8.143-0.206-11.522,2.01c-3.566,2.234-5.804,6.092-6.736,10.122C354.34,213.455,356.687,209.144,360.59,206.973z"/>
	<path fill="#242021" d="M440.346,207.112c2.088-1.171,5.033,0.284,5.116,2.739c0.438,2.35-1.852,4.599-4.195,3.963
		C438.138,213.339,437.614,208.482,440.346,207.112z"/>
	<path fill="#242021" d="M380.999,207.67c2.159,0.299,4.33,0.501,6.478,0.909c5.093,1.022,10.392,0.752,15.403,2.253
		c-2.792,0.067-5.535-0.756-8.326-0.917C389.965,209.645,385.49,208.556,380.999,207.67z"/>
	<path fill="#242021" d="M331.573,208.216c0.524,4.109,0.928,8.409,3.132,12.031c1.332,2.331,3.652,3.997,6.234,4.674
		c0.868,0.299,1.905,0.277,2.578,0.992c-3.196,0.752-6.665-0.636-8.491-3.353C332.187,218.406,331.382,213.152,331.573,208.216z"/>
	<path fill="#242021" d="M474.788,217.13c1.415-1.31,3.495-2.178,5.407-1.523c1.894,0.655,3.301,2.373,3.836,4.277
		c0.913,3.207,0.816,6.702-0.254,9.861c0.498-3.113,0.79-6.609-0.988-9.389c-0.958-1.396-2.646-2.75-4.442-2.234
		c-1.598,0.666-2.567,2.242-3.338,3.712c-0.876,1.86-1.56,3.851-1.763,5.905c1.194,2.717,1.983,5.725,1.493,8.708
		c-0.348,2.376-1.617,4.835-3.922,5.812c-0.644,0.486-1.4-0.445-1.007-1.044c0.621-2.006,2.062-3.742,2.159-5.909
		c0.352-2.44-0.816-4.711-1.029-7.099c-0.161-1.302,0.415-2.526,0.543-3.798C471.821,221.736,472.797,219.016,474.788,217.13z"/>
	<path fill="#242021" d="M435.649,217.788c6.122,2.709,13.12,0.146,19.242,2.81c-1.673-0.254-3.308-0.752-5.011-0.812
		C445.12,219.435,440.031,220.105,435.649,217.788z"/>
	<path fill="#242021" d="M399.99,224.225c1.385-3.289,5.295-5.16,8.749-4.506c1.714,0.318,3.17,1.474,4.068,2.945
		c-1.242-0.644-2.343-1.62-3.757-1.864c-3.596-0.7-7.713,1.83-8.296,5.535c-0.217,1.149,0.123,2.29,0.352,3.409
		C399.863,228.225,399.197,226.111,399.99,224.225z"/>
	<path fill="#242021" d="M414.753,222.443c4.259-1.935,9.501-1.568,13.427,0.984c2.006,1.295,3.413,3.465,3.63,5.864
		c-0.733-1.654-1.396-3.428-2.848-4.607C425.123,221.328,419.461,220.864,414.753,222.443z"/>
	<path fill="#242021" d="M457.761,221.171c2.096-0.15,4.273,0.445,5.808,1.935c1.519,1.34,2.376,3.207,3.267,4.984
		c-0.135,0.243-0.269,0.486-0.404,0.73c-0.857-2.739-2.522-5.422-5.13-6.773C460.209,221.448,458.955,221.377,457.761,221.171z"/>
	<path fill="#242021" d="M440.682,230.818c-0.322-2.664-2.313-4.666-4.296-6.279c1.669,0.834,3.379,1.804,4.464,3.375
		c1.785,2.552,1.239,6.575-1.519,8.229C439.743,234.358,440.884,232.719,440.682,230.818z"/>
	<path fill="#242021" d="M403.639,229.19c0.805-1.145,2.268-1.59,3.604-1.216c2.593,0.588,4.116,3.039,5.321,5.205
		c-2.309-0.969-4.453-2.32-6.822-3.143c-0.558-0.292-1.104-0.138-1.575,0.213C403.987,229.894,403.811,229.542,403.639,229.19z"/>
	<path fill="#242021" d="M479.526,237.999c1.909-2.077,3.08-4.674,3.993-7.308c0.73,3.66-1.59,7.02-4.131,9.396
		c-1.766,1.546-3.679,3.117-5.995,3.708C475.331,241.76,477.733,240.192,479.526,237.999z"/>
	<path fill="#242021" d="M429.71,235.84c1.437-1.396,3.196-2.518,5.142-3.039c1.291-0.374,2.908-0.097,3.652,1.126
		c0.472,0.595-0.213,1.546-0.917,1.392c-0.999-0.258-1.957-0.737-3.009-0.681C432.869,234.59,431.275,235.245,429.71,235.84z"/>
	<path fill="#242021" d="M414.416,233.09c1.13,0.632,2.215,1.396,3.491,1.721c2.915,0.827,5.957,0.116,8.929,0.363
		c-0.82,0.801-2.028,0.894-3.098,1.074C420.363,236.712,416.759,235.608,414.416,233.09z"/>
	<path fill="#242021" d="M372.628,238.074c0.775,0.614,1.433,1.448,2.421,1.74c3.016,0.917,6.201,1.022,9.333,1.059
		c5.13,0.146,10.268-0.337,15.395,0.049c13.344,1.033,26.719,2.691,39.637,6.317c2.638,0.696,5.101,2.144,7.873,2.279
		c2.462,0.191,4.266-1.972,6.713-1.916c0.135,1.725-0.928,3.158-2.047,4.348c-2.62,2.649-4.693,5.77-7.185,8.536
		c-0.917,1.852-2.118,3.518-3.585,4.973c-2.503,3.832-4.633,7.948-7.69,11.395c-2.268,2.518-5.033,4.925-8.435,5.643
		c3.469-1.822,6.347-4.588,8.495-7.855c-0.539-1.624-1.212-3.244-2.451-4.464c-2.148-2.155-4.498-4.229-7.361-5.362
		c-4.247-1.908-9.06-2.721-13.644-1.695c2.679,3.061,4.169,6.885,6.025,10.448c-2.279-2.997-3.69-6.657-6.549-9.202
		c-3.877-3.488-9.254-4.524-14.284-5.007c-3.383-0.131-7.608-0.022-9.625,3.192c0.876,3.48,1.299,7.275,3.619,10.171
		c3.222,4.408,8.566,6.635,13.82,7.454c6.474,0.939,12.925,2.421,19.504,2.253c0.554-0.034,1.078,0.075,1.583,0.326
		c-4.303,2.242-9.374,1.59-13.977,0.853c-3.615-0.718-7.342-1.04-10.8-2.384c-3.802-1.433-7.301-3.802-9.804-7.028
		c-3.686-4.636-5.703-10.287-7.836-15.739c-1.59-3.94-2.971-7.96-4.528-11.911c-0.595-1.74-2.137-2.896-2.949-4.517
		C373.661,240.746,372.695,239.564,372.628,238.074 M380.101,243.066c0.138,1.826,0.254,3.75,1.179,5.385
		c1.044,1.272,2.582,2.017,4.056,2.683c3.297,1.34,6.803,2.054,10.283,2.728c12.525,2.193,25.17,3.678,37.84,4.704
		c2.773,0.168,5.613,0.101,8.293-0.715c0.501-0.195,1.175-0.269,1.366-0.864c0.947-1.972,1.875-3.974,2.339-6.122
		c-2.301-0.621-4.483-1.59-6.762-2.271c-4.053-1.239-8.218-2.043-12.368-2.87c-8.281-1.609-16.656-2.736-25.069-3.383
		c-2.747-0.195-5.505-0.483-8.255-0.172C388.715,242.602,384.431,243.482,380.101,243.066z"/>
	<path fill="#242021" d="M389.958,281.157c0.902,1.052,1.594,2.283,2.664,3.185c4.925,4.262,11.765,4.618,17.929,5.37
		c4.161,0.498,8.48,0.898,12.559-0.307c1.501-0.408,2.844-1.22,4.315-1.714c-1.059,2.212-3.316,3.577-5.572,4.311
		c-4.356,1.321-8.985,0.808-13.423,0.262c-3.877-0.546-7.945-0.763-11.477-2.623C393.621,287.871,391.208,284.675,389.958,281.157z"
		/>
	<path fill="#242021" d="M418.039,294.543c2.354-0.251,4.696,0.879,6.122,2.732c1.845,2.313,2.223,5.654,0.995,8.341
		c-1.115,2.691-3.177,4.839-5.419,6.631c-0.221-0.685,0.524-1.033,0.921-1.452c2.384-2.054,4.341-4.895,4.498-8.124
		c0.198-2.837-0.999-5.972-3.619-7.346C420.49,294.666,419.229,294.666,418.039,294.543z"/>
	<path fill="#242021" d="M223.676,378.049c2.111-2.092,5.108-3.301,8.087-3.054c3.001,0.176,5.864,1.845,7.469,4.389
		c-1.141-0.917-2.264-1.938-3.716-2.32c-4.124-1.306-8.835,0.606-11.174,4.18c-2.938,4.509-3.94,10.025-3.922,15.339
		c0.094,7.858,2.054,15.582,4.857,22.891c1.602,4.191,3.132,8.427,5.153,12.443c0.988,2.081,2.178,4.09,2.848,6.309
		c-0.879-0.183-1.37-0.969-1.897-1.609c-3.301-4.229-5.568-9.131-7.814-13.966c-2.799-6.126-4.738-12.667-5.632-19.347
		c-0.097-3.985-0.041-7.978-0.03-11.964C218.437,386.495,220.099,381.506,223.676,378.049z"/>
	<path fill="#242021" d="M242.35,382.996c1.871,2.799,2.324,6.219,2.777,9.479c1.04,6.298,1.815,12.712,4.034,18.733
		c1.168,3.054,2.945,6.017,5.688,7.9c0.55,0.464,1.497,0.984,1.299,1.83c-1.714,1.096-3.577-0.513-4.745-1.71
		c-4.528-4.932-5.909-11.788-6.957-18.187C243.364,395.064,244.052,388.867,242.35,382.996z"/>
	<path fill="#242021" d="M351.777,532.419c0.917,1.306,0.79,3.035,1.067,4.554c2.896,0.797,5.658,2.2,8.697,2.41
		c1.665,0.153,3.327-0.097,4.992-0.06c0.363,0.692-0.516,0.898-0.917,1.194c-1.471,0.733-3.177,0.782-4.782,0.617
		c-2.986-0.337-5.808-1.415-8.682-2.23c-0.475-0.183-1.149-0.254-1.254-0.864C350.905,536.138,351.197,534.23,351.777,532.419z"/>
	<path fill="#242021" d="M367.284,536.195c0.37-1.197,1.673-1.953,2.896-1.781c1.864,0.157,3.368,1.684,3.937,3.402
		c0.277,0.677,0.004,1.366-0.382,1.95c3.63,0.21,7.196,0.891,10.714,1.785c10.572,2.129,21.615,2.451,32.182,0.116
		c3.753-0.831,7.267-2.889,11.185-2.84l0.284,0.389c-1.216,1.444-2.964,2.29-4.651,3.05c-5.901,2.395-12.312,3.121-18.61,3.619
		h-5.385c-4.696-0.191-9.378-0.719-13.977-1.673c-4.042-0.748-8.236-1.471-11.728-3.783c-0.086-0.146-0.258-0.434-0.344-0.58
		c-1.246-0.202-1.31-1.643-1.841-2.53c-0.419-0.965-1.789-1.785-2.713-0.995c-0.763,0.756-0.921,1.89-1.343,2.844
		C367.296,538.197,366.918,537.167,367.284,536.195z"/>
</g>
</svg>
