<?xml version="1.0" encoding="utf-8"?>
<!-- Generator: Adobe Illustrator 17.0.0, SVG Export Plug-In . SVG Version: 6.00 Build 0)  -->
<!DOCTYPE svg PUBLIC "-//W3C//DTD SVG 1.1//EN" "http://www.w3.org/Graphics/SVG/1.1/DTD/svg11.dtd">
<svg version="1.1" id="Layer_1" xmlns="http://www.w3.org/2000/svg" xmlns:xlink="http://www.w3.org/1999/xlink" x="0px" y="0px"
	 width="800px" height="600px" viewBox="0 0 800 600" enable-background="new 0 0 800 600" xml:space="preserve">
<g id="_x23_231f20ff">
	<path fill="#231F20" d="M311.368,133.098h2.183c5.954,0.429,11.267,3.825,15.282,8.076c4.247,4.569,7.442,9.968,11.267,14.87
		c2.791,3.617,6.008,6.974,9.886,9.435c10.197,6.691,22.427,9.836,34.546,10.079c11.754,0.243,23.508-1.997,34.482-6.165
		c0.751-0.265,1.574-0.53,2.376-0.279c1.32,0.358,2.133,1.703,2.268,3.006c0.204,1.345-0.651,2.54-0.719,3.864
		c-0.322,2.977-1.653,5.703-2.812,8.426c-4.369,10.315-11.264,19.533-19.776,26.792c-10.119,8.391-22.302,14.699-35.448,16.395
		c-0.902,1.292-2.562,1.889-3.088,3.474c4.376-2.777,9.729-3.761,14.849-3.292c6.72,0.787,12.985,4.494,17.099,9.836
		c3.707,4.737,5.399,10.813,5.439,16.774c0.029,10.097-4.333,20.152-11.779,26.978c4.426,4.057,8.108,9.06,10.04,14.781
		c4.057,12.215,1.878,26.449-6.122,36.611c-4.004,5.371-8.981,9.933-14.233,14.055c-1.764,1.056-2.19,3.206-2.898,4.977
		c-0.726,1.692-0.369,3.542-0.322,5.317c0.637,16.259-0.064,32.685-3.635,48.608c-4.58,21.014-14.985,40.833-30.213,56.082
		c-8.705,8.713-18.953,15.908-30.195,20.953c-11.099,5.038-23.2,7.75-35.369,8.151h-5.059c-12.158-0.347-24.338-3.192-35.068-9.006
		c-8.97-4.787-16.724-11.654-23.046-19.579c-7.746-9.707-13.436-20.932-17.536-32.621c-6.297-18.355-9.439-37.831-8.927-57.242
		c-0.233-2.129-1.002-4.172-1.614-6.211c-1.127-2.115-2.43-4.176-3.993-5.993c-4.651-3.8-9.024-8.008-12.559-12.888
		c-3.564-4.877-6.183-10.462-7.5-16.362c-2.694-11.725-0.032-24.327,6.297-34.453c-4.125-2.315-7.85-5.414-10.616-9.271
		c-5.915-7.839-9.042-17.693-8.841-27.501c0.125-4.236,0.948-8.519,2.891-12.316c1.113-2.258,2.78-4.161,4.258-6.179
		c3.986-4.526,10.087-6.584,15.947-7.156c6.086-0.419,12.548,0.637,17.622,4.208c0.179-1.585,0.454-3.156,0.884-4.687
		c-15.178-1.793-29.444-8.001-42.568-15.6c-6.988-4.161-13.894-9.457-17.203-17.132c-0.497-0.372-0.988-0.78-1.288-1.338v-0.823
		c3.925-6.612,9.4-12.283,15.754-16.599c9.743-6.612,21.479-9.593,33.075-10.72c10.298-0.97,20.663-0.569,30.964,0.14
		c4.294,0.268,8.637,0.429,12.895-0.293c6.916-1.206,13.894-3.782,18.896-8.888c6.512-6.254,9.568-15.239,16.337-21.264
		c2.48-2.229,5.872-4,9.281-3.113c3.803,1.084,6.716,4.219,8.391,7.707c4.072-3.728,9.571-5.757,15.06-5.918
		c3.7-0.122,7.378,0.945,10.512,2.891c0.916-2.09,2.129-4.086,3.839-5.621C304.241,134.662,307.819,133.434,311.368,133.098
		 M306.219,142.777c-2.397,2.601-3.077,6.262-3.356,9.671c-0.433,6.559,0.565,13.096,0.716,19.647
		c0.157,5.721-0.347,11.689-3.074,16.831c-2.598,4.92-7.213,9.042-12.777,10.108c-5.474,0.92-11.135-1.488-14.86-5.478
		c-4.165-4.394-5.925-10.523-6.247-16.452c-0.583-7.879,1.453-15.79,0.115-23.633c-0.505-2.658-1.149-5.521-3.167-7.471
		c-0.612-0.608-1.542-1.245-2.397-0.687c-2.608,1.338-4.512,3.678-6.154,6.043c-3.317,4.884-6.097,10.187-10.137,14.548
		c-4.83,5.124-11.042,8.945-17.804,10.927c-4.276,1.267-8.748,1.782-13.199,1.846c-7.907,0.115-15.754-1.052-23.64-1.385
		c-11.26-0.558-22.774-0.329-33.634,3.016c-7.081,2.183-13.74,5.839-19.168,10.902c-2.587,2.362-4.802,5.084-6.877,7.897
		c1.725,2.276,3.85,4.211,6.072,5.986c4.465-7.768,12.448-12.917,20.924-15.343c9.063-2.666,18.642-2.995,28.009-2.304
		c11.933,0.984,23.812,3.857,35.841,2.68c5.406-0.501,10.698-1.986,15.668-4.151c3.217-1.442,6.337-3.267,8.763-5.861
		c1.989-2.1,3.124-4.809,4.544-7.292c1.632-2.984,3.632-5.965,6.644-7.7c0.823-0.483,1.893,0.15,2.118,1.016
		c1.95,5.585,1.685,11.596,1.542,17.421c-0.097,4.437-0.247,9.045,1.388,13.253c1.048,2.762,3.134,5.124,5.807,6.408
		c5.743,2.802,12.373,3.514,18.652,2.558c6.169-0.959,12.19-3.578,16.688-7.972c3.295-3.199,5.607-7.41,6.423-11.936
		c1.267-6.716-1.084-13.561,0.369-20.259c0.59-2.576,1.846-5.195,4.079-6.727c1.295-0.909,3.081-0.669,4.244,0.336
		c3.331,2.58,4.501,6.805,6.398,10.376c2.43,4.437,6.287,7.882,10.283,10.884c5.915,4.415,12.67,7.782,19.89,9.414
		c8.194,1.85,16.645,1.388,24.982,1.467c10.612-0.05,21.647-0.691,31.322-5.482c1.281-2.387,2.458-4.838,3.381-7.389
		c-10.63,3.21-21.805,4.669-32.897,4.086c-12.348-0.637-24.724-3.997-35.151-10.763c-3.9-2.573-7.65-5.485-10.562-9.167
		c-4.058-5.056-7.206-10.777-11.425-15.704c-2.437-2.78-5.353-5.399-9.002-6.387C312.359,139.707,308.541,140.261,306.219,142.777
		 M274.028,152.791c0.844,6.902-0.211,13.829-0.286,20.738c0,4.075,0.293,8.326,2.204,12.008c1.496,2.866,4.05,5.371,7.278,6.104
		c2.848,0.694,5.94-0.258,8.065-2.233c2.422-2.258,3.882-5.381,4.587-8.58c1.056-4.87,0.637-9.89,0.233-14.806
		c-0.479-5.245-0.766-10.537-0.204-15.786c-1.431-1.277-2.751-2.877-4.716-3.317C284.962,145.059,278.135,148.033,274.028,152.791
		 M315.604,161.475c-1.725,1.081-2.401,3.188-2.716,5.095c-0.798,6.018,0.866,12.083-0.089,18.094
		c-0.823,4.984-2.866,9.807-6.097,13.711c-3.786,4.533-9.042,7.732-14.699,9.349c-7.732,2.236-16.123,1.61-23.669-1.02
		c-4.777-1.635-8.541-5.728-9.761-10.63c-2.268-8.891,0.515-18.216-1.728-27.114c-3.693,3.381-4.759,8.602-8.136,12.223
		c-3.764,4-8.552,6.963-13.69,8.859c-5.628,2.068-11.621,3.031-17.6,3.202c-7.285,0.215-14.541-0.68-21.744-1.667
		c-8.441-1.138-16.989-1.904-25.504-1.281c-6.301,0.483-12.648,1.75-18.33,4.605c-5.313,2.619-9.825,6.834-12.731,12.004
		c3.889,2.658,8.079,4.838,12.319,6.877c11.4,5.582,23.347,10.455,35.999,12.183c5.385-0.258,11.035,0.225,16.108-1.957
		c8.28-3.034,16.974-4.78,25.715-5.786c13.768-1.664,27.633-2.297,41.484-2.709c11.625-0.315,23.272-0.254,34.879,0.54
		c6.873,0.533,13.775,0.583,20.642,1.22c6.763,0.626,13.572,1.875,19.762,4.766c2.233,0.941,4.573,1.585,6.816,2.505
		c0.959,0.44,2.029,0.2,3.041,0.168c8.53-0.655,16.28-4.687,23.79-8.462c5.725-3.009,11.249-6.473,16.119-10.748
		c4.884-4.247,9.124-9.221,12.584-14.691c-7.983,2.798-16.516,3.456-24.914,3.585c-8.004,0.082-16.051,0.476-24.009-0.587
		c-12.434-1.578-24.116-7.793-32.736-16.838c-1.449-1.556-2.923-3.12-3.997-4.97c-1.886-3.167-3.059-6.745-5.328-9.682
		C316.957,161.83,316.324,161.168,315.604,161.475 M278.987,221.841c10.552,3.313,20.627,8.111,29.945,14.065
		c1.635-2.809,4.308-4.719,6.859-6.619c5.682-3.603,12.849-4.222,19.339-2.959c5.317,1.206,10.441,3.535,14.645,7.038
		c3.743,3.099,6.562,7.51,7.059,12.412c0.751,5.743-1.463,11.611-5.41,15.772c2.143,2.83,4.773,5.278,7.678,7.314
		c0.172-5.897,0.429-11.8,0.211-17.701c-0.125-4.09-0.955-8.108-1.66-12.126c-0.508-2.78-1.106-5.603-2.458-8.111
		c-1.378-0.025-2.533-0.823-3.696-1.456c-2.812-1.624-5.553-3.431-8.619-4.551c-3.41-0.444-6.841-0.748-10.258-1.116
		c-8.312-0.877-16.674-0.991-25.014-1.417C298.079,221.848,288.526,221.604,278.987,221.841 M250.591,222.971
		c2.007,1.535,3.778,3.617,4.197,6.183c0.129,1.048,0.315,2.268-0.369,3.177c-0.547,0.827-1.778,1.252-2.623,0.601
		c-1.803-1.263-3.256-2.955-5.063-4.215c-1.796-1.27-3.868-2.118-6.011-2.59c-6.916-1.514-14.083-0.233-20.763,1.757
		c-6.111,1.818-11.84,5.328-15.722,10.448c-1.803,2.494-3.725,5.07-4.344,8.158c0.05,0.866-1.27,0.615-1.227-0.097
		c-0.272-2.344-0.39-4.755,0.125-7.074c0.916-4.025,3.642-7.321,6.591-10.072c-1.857,0.508-3.592,1.374-5.464,1.839
		c-0.923,0.197-1.231,1.191-1.764,1.846c-1.768,2.365-2.372,5.331-2.784,8.194c-0.565,4.158-1.603,8.247-3.016,12.194
		c-0.401,1.145-0.487,2.365-0.583,3.564c-0.204,4.551,0,9.113,0.211,13.657c0.58,2.186,1.721,4.258,1.753,6.569
		c0.984-0.29,1.957-0.633,2.966-0.827c0.623,0.283,0.669,1.166-0.018,1.381c-2.823,1.589-5.378,3.607-7.761,5.793
		c-3.728,3.435-7.439,6.92-10.684,10.824c-5.825,6.959-9.661,15.751-10.072,24.871c-0.336,6.949,1.578,13.962,5.317,19.822
		c-2.415-8.058-3.338-16.867-0.895-25.028c1.281-4.29,3.95-7.997,6.941-11.26c0.15-0.072,0.447-0.222,0.598-0.293
		c-0.347,1.048-1.238,1.782-1.764,2.734c-3.485,5.653-4.462,12.495-4.283,19.032c0.218,7.897,2.794,15.568,6.576,22.449
		c0.569,0.97,0.984,2.079,1.846,2.841c2.848,2.53,6.043,4.651,8.748,7.342c0.719,0.741,1.782,1.034,2.462,1.821
		c0.88,0.927,1.313,2.208,1.256,3.478c-0.125,17.078,1.37,34.26,5.696,50.815c3.206,12.201,7.707,24.184,14.534,34.847
		c5.875,9.213,13.507,17.511,22.989,23.082c10.537,6.201,22.928,8.823,35.083,8.53c11.189-0.276,22.306-2.887,32.478-7.546
		c18.606-8.577,33.762-23.862,43.266-41.91c5.979-11.346,9.582-23.83,11.46-36.482c2.258-15.214,2.179-30.675,1.166-45.989
		c-0.2-1.721,0.594-3.431,1.889-4.541c1.034-0.988,2.512-1.231,3.639-2.086c1.485-1.084,3.345-1.556,4.712-2.812
		c2.744-2.372,5.514-4.755,7.925-7.475c4.201-6.823,5.997-15.429,3.589-23.207c-1.954-6.723-6.144-12.666-11.382-17.246
		c-0.286-0.218-0.454-0.522-0.587-0.837c1.864,1.081,3.492,2.523,5.156,3.886c4.651,3.968,8.745,8.949,10.376,14.945
		c0.869,2.97,0.898,6.09,0.862,9.16c1.213-4.133,1.803-8.498,1.195-12.788c-0.572-4.619-2.537-9.006-5.435-12.634
		c-3.832-4.841-8.942-8.566-14.47-11.257c-6.344-3.081-13.357-4.548-20.359-5.052c-2.15-0.247-4.276-0.773-6.458-0.669
		c-1.31,0.057-1.556-2.154-0.347-2.508c2.759-0.78,5.381-2.039,8.229-2.497c-1.31-1.36-2.472-2.852-3.51-4.426
		c-2.029,1.252-4.208,2.265-6.48,2.977c-4.977,1.639-10.348,1.488-15.443,0.551c2.122,6.333,2.626,13.221,1.224,19.765
		c-2.211,10.537-8.548,19.923-16.724,26.792c-10.809,9.024-25.2,13.446-39.212,12.52c-6.852-0.469-13.622-2.025-20.016-4.516
		c-9.55-3.735-18.398-9.7-24.671-17.89c-5.206-6.748-8.391-15.067-8.834-23.59c-6.537-1.234-11.951-6.151-14.513-12.198
		c-1.649-3.932-2.591-8.355-1.968-12.602c-0.032,4.455,1.345,8.856,3.807,12.559c2.895,4.444,7.188,8.344,12.552,9.328
		c0.025-2.719,0.24-5.439,0.698-8.119c-1.707-1.059-3.886-0.916-5.492-2.179c-3.002-2.211-4.834-5.696-5.811-9.228
		c-1.199-4.705-1.546-9.725-0.343-14.466c0.862-3.574,3.031-6.687,5.657-9.203c5.199-4.952,12.434-7.596,19.583-7.471
		c4.326,0.064,8.573,1.442,12.237,3.707c1.975,1.209,3.134,3.292,4.272,5.235c3.836-1.159,7.775-2.004,11.772-2.358
		c0.98-0.258,1.535,1.374,0.64,1.793c-4.809,2.358-9.657,4.702-14.094,7.732c-7.02,4.734-12.999,11.235-16.37,19.057
		c-3.521,8.165-3.896,17.633-1.059,26.055c-0.544-3.356-0.762-6.78-0.365-10.165c1.066-8.806,4.759-17.464,11.088-23.773
		c4.483-4.487,10.634-7.063,16.906-7.657c0.662-0.247,1.174,0.136,1.07,0.834c-5.664,0.827-10.874,3.739-14.874,7.782
		c-5.707,5.75-9.468,13.382-10.659,21.386c-1.12,7.943,0.411,16.391,4.984,23.064c1.549,2.186,3.134,4.455,5.374,5.997
		c5.217,3.871,11.131,6.805,17.371,8.605c11.858,3.46,25.021,2.759,36.21-2.594c6.276-3.059,11.8-7.671,15.897-13.328
		c2.887-4.05,5.231-8.63,5.965-13.593c0.662-10.036-2.34-20.588-9.306-28.013c-3.667-3.975-8.523-6.745-13.733-8.126
		c-0.025-0.193-0.075-0.583-0.1-0.776c6.351,0.394,12.419,3.385,16.838,7.929c-0.59-1.399-1.177-2.802-1.757-4.208
		c-0.383-0.841-0.175-1.828-0.633-2.648c-0.937-1.936-1.381-4.068-1.546-6.201c-8.09-5.371-16.645-10.087-25.715-13.589
		c-6.734-2.684-13.797-4.397-20.817-6.133c-2.014-0.537-3.975-1.31-6.043-1.621C253.017,222.771,251.804,222.939,250.591,222.971
		 M224.622,233.53c-4.798,1.191-9.414,3.775-12.362,7.822c-2.855,3.925-3.388,9.07-2.741,13.765
		c0.558,3.761,1.904,7.653,4.805,10.255c0.984,0.97,2.44,1.041,3.71,1.349c1.059-3.854,2.612-7.582,4.691-10.999
		c-5.274-1.796-7.678-8.859-4.594-13.504c2.136-3.099,6.605-3.993,9.936-2.433c2.226,0.844,3.757,2.852,4.698,4.963
		c2.991-2.251,6.262-4.118,9.693-5.614c-1.009-2.308-3.184-3.811-5.399-4.827C233.138,232.703,228.712,232.517,224.622,233.53
		 M365.378,237.119c-0.827,0.451-1.81,0.92-2.147,1.871c0.558,2.955,1.256,5.897,1.503,8.906c2.662-2.884,6.591-4.462,10.484-4.526
		c3.982,0.064,8.004,2.283,9.832,5.886c1.084,2.014,1.116,4.394,0.866,6.616c-0.004,0.365-0.19,0.601-0.551,0.708
		c-0.651-2.97-2.397-5.682-4.823-7.507c-2.115-1.581-4.981-2.147-7.5-1.281c-1.746,0.637-3.553,1.385-4.866,2.744
		c-1.059,1.088-1.206,2.759-0.744,4.151c1.295,4.05,3.889,7.639,4.591,11.886c0.326,1.785,0.029,3.635-0.748,5.267
		c3.496,1.166,6.82,2.82,9.936,4.784c5.904-4.68,9.561-11.904,10.369-19.346c0.58-5.26-0.515-10.849-3.743-15.128
		c-2.855-3.936-7.392-6.569-12.23-7.074C372.073,234.578,368.556,235.645,365.378,237.119 M161.809,243.08
		c-1.671,0.626-3.374,1.31-4.791,2.412c-1.864,3.134-2.855,6.727-3.435,10.308c-1.106,8.24,1.138,16.731,5.371,23.808
		c2.834,4.372,6.644,8.552,11.761,10.137c2.812-3.063,6.129-5.646,9.732-7.718c-3.353-3.592-4.97-9.296-2.433-13.775
		c1.245-2.587,4.032-3.836,5.61-6.143c0.812-1.063,0.061-2.379-0.655-3.256c-2.175-2.569-5.031-4.541-8.172-5.746
		c-2.845-1.088-6.179-1.642-9.035-0.29c-2.895,1.449-4.53,4.587-5.134,7.653c-0.73,3.31-0.179,6.712,0.705,9.929
		c-0.143-0.111-0.433-0.329-0.576-0.44c-1.535-3.675-2.855-7.603-2.608-11.639c0.197-3.589,2.208-7.067,5.331-8.884
		c2.669-1.567,5.918-1.814,8.924-1.331c5.26,0.848,10.09,3.685,13.679,7.582c-0.107-1.871-0.029-3.753-0.143-5.621
		c-0.937-2.376-2.483-4.634-4.773-5.879C175.334,240.804,168.057,241.015,161.809,243.08 M365.092,258.959
		c-0.004,2.404-0.122,4.809-0.093,7.213c0.601,1.56,1.65,2.923,2.762,4.165c0.769-1.367,1.002-3.002,0.601-4.523
		C367.754,263.331,366.316,261.17,365.092,258.959 M180.977,271.915c-0.716,3.138,1.474,5.9,3.435,8.086
		c1.778-3.252,2.351-6.952,2.92-10.562c0.1-1.492-0.426-2.941-0.54-4.419C184.816,267.267,181.782,268.838,180.977,271.915z"/>
	<path fill="#231F20" d="M536.581,173.562c15.564-2.022,31.179-3.904,46.883-4.358c14.895-0.454,29.952,0.318,44.457,3.939
		c11.793,2.913,23.365,7.628,32.871,15.328c9.267,7.593,16.749,17.511,20.928,28.782c2.254,5.889,3.238,12.162,3.725,18.423v3.227
		c-0.376,5.099-1.023,10.208-2.494,15.117c-1.893,6.516-4.977,12.684-9.07,18.098c-7.02,9.378-16.377,16.77-26.452,22.624
		c-9.646,5.736-20.313,9.442-31.022,12.634c-13.496,3.964-27.408,6.365-41.373,7.925c-17.035,1.9-34.185,2.483-51.313,2.859
		c-6.916,0.143-13.843,0.39-20.756,0.072c-1.503-0.157-2.827,0.68-4.222,1.063c-1.628,0.569-3.431,0.859-4.812,1.95
		c-0.54,0.701-0.791,1.571-1.191,2.351c-2.512,5.084-6.101,9.535-9.897,13.711c-5.081,5.582-10.849,10.573-17.271,14.559
		c-3.145,1.946-6.483,3.549-9.761,5.26c-6.372,3.313-13.114,5.861-19.955,8.018c-3.288,1.088-6.766,1.406-10.044,2.523
		c-3.181,0.959-6.466,1.488-9.743,1.982c-0.873,0.104-1.796,0.422-2.619-0.018c13.818-6.004,27.658-12.913,38.525-23.576
		c8.026-7.825,14.233-17.998,15.55-29.286c-4.859-0.812-9.786-1.528-14.423-3.252c-2.143-0.733-3.964-2.086-5.56-3.65
		c-8.172-3.657-15.046-9.79-20.445-16.863c-7.707-10.187-12.552-22.416-14.47-35.015c-1.925-12.763-0.787-26.148,4.279-38.092
		c4.562-10.795,12.555-20.098,22.574-26.184c10.867-6.612,23.415-9.768,35.881-11.65
		C495.784,179.341,516.146,176.178,536.581,173.562 M568.472,177.348c-14.62,1.217-29.168,3.131-43.706,5.074
		c-10.498,1.474-21.014,2.859-31.458,4.673c-5.321,0.891-10.709,1.234-16.033,2.09c-8.755,1.331-17.529,3.134-25.719,6.605
		c-4.594,1.939-9.067,4.261-12.992,7.364c-5.009,3.836-9.156,8.727-12.326,14.169c-6.008,10.519-7.947,22.985-6.966,34.957
		c1.149,13.074,5.592,25.991,13.446,36.571c6.73,9.113,16.373,16.212,27.383,19.146c3.929,1.252,8.072,1.438,12.076,2.315
		c1.442,0.462,2.308,2.029,2.197,3.499c-0.14,6.988-2.226,13.829-5.374,20.03c-4.845,9.453-12.409,17.339-21.15,23.293
		c6.383-2.78,12.097-6.841,17.464-11.235c6.211-4.956,11.822-10.666,16.538-17.071c3.317-4.383,6.233-9.256,7.306-14.713
		c0.236-1.642,1.646-3.217,3.41-3.056c3.299,0.655,6.695,0.701,10.054,0.68c6.305,0.63,12.613-0.451,18.921-0.569
		c17.461-0.369,34.94-1.045,52.307-2.991c15.475-1.735,30.886-4.555,45.724-9.367c11.024-3.582,21.794-8.276,31.311-14.963
		c8.648-6.115,16.534-13.704,21.504-23.164c2.973-5.582,4.698-11.779,5.224-18.073c0.97-8.09-0.326-16.362-3.27-23.93
		c-4.161-10.62-11.646-19.794-20.892-26.413c-10.609-7.661-23.393-11.686-36.181-13.84
		C601.146,175.852,584.709,176.085,568.472,177.348z"/>
	<path fill="#231F20" d="M515.23,192.651c0.809-0.444,1.757,0.068,2.186,0.801c0.952,1.514,1.259,3.328,1.521,5.074
		c0.819,6.78,0.841,13.647,1.95,20.395c0.479,2.988,1.671,5.889,1.617,8.945c-0.172,2.254-3.449,3.202-4.805,1.424
		c-2.218-3.235-2.716-7.249-3.231-11.038c-0.848-6.999-0.794-14.062-0.952-21.096C513.52,195.563,513.481,193.377,515.23,192.651z"
		/>
	<path fill="#231F20" d="M615.162,202.816c1.964-4.748,6.226-9.128,11.636-9.306c4.948-0.394,10.018,2.744,11.464,7.564
		c0.229,0.687-0.143,1.349-0.404,1.961c0.683,0.422,1.453,0.866,1.753,1.664c0.576,1.302-0.082,2.963-1.392,3.514
		c-1.793,0.841-3.821,0.487-5.725,0.472c-3.818-0.079-7.707,0.107-11.367,1.277c0.984,1.76,2.734,2.977,4.623,3.603
		c2.386,0.905,4.984,0.734,7.492,0.748c2.24,0.14,3.456,3.238,2.043,4.945c-0.984,1.302-2.755,1.42-4.247,1.581
		c-5.524,0.422-11.539-1.689-14.738-6.398C613.906,211.114,613.448,206.544,615.162,202.816 M622.099,203.278
		c4-0.948,8.14-1.016,12.233-0.905c-1.607-1.657-3.743-3.013-6.129-2.938C625.645,199.499,623.38,201.134,622.099,203.278z"/>
	<path fill="#231F20" d="M594.495,200.247c1.585-2.197,3.757-4.24,6.533-4.676c2.501-0.454,5.213,0.691,6.569,2.859
		c2.179,3.317,2.308,7.424,2.537,11.253c0.061,2.011,0.651,4.079,0.011,6.05c-0.408,1.36-2.025,2.276-3.374,1.7
		c-1.585-0.737-2.351-2.505-2.591-4.143c-0.49-3.514-0.165-7.153-1.209-10.577c-0.179-0.726-0.759-1.224-1.256-1.732
		c-2.265,0.401-3.861,2.165-5.585,3.528c0.734,3.174,0.827,6.451,1.542,9.629c0.247,0.977,0.265,2.075-0.315,2.945
		c-0.769,1.31-2.648,1.742-3.929,0.941c-1.106-0.698-1.639-1.979-1.961-3.188c-0.852-3.353-0.64-6.877-1.542-10.222
		c-0.293-0.891-0.651-1.889-1.492-2.397c-1.95-0.254-3.693,0.93-5.127,2.1c0.247,4.312,0.265,8.677,1.342,12.888
		c0.748,2.594-2.73,4.651-4.837,3.285c-0.877-0.562-1.099-1.642-1.363-2.569c-1.242-4.802-0.862-9.811-0.583-14.702
		c0.2-1.392,0.011-3.081,1.095-4.151c0.88-0.98,2.383-0.809,3.245,0.104c2.201-2.065,5.446-3.199,8.398-2.229
		C592.316,197.424,593.604,198.759,594.495,200.247z"/>
	<path fill="#231F20" d="M559.305,199.177c4.587-1.32,9.779,0.855,12.269,4.877c2.075,3.091,2.047,7.249,0.365,10.509
		c-2.168,4.337-6.763,7.704-11.729,7.553c-5.235-0.204-9.614-4.823-10.219-9.908c-0.351-2.598,0.082-5.6,2.111-7.442
		c1.174-0.869,1.732-2.294,2.859-3.213C556.192,200.433,557.702,199.624,559.305,199.177 M560.668,205.485
		c-1.936,0.723-2.988,2.859-5.07,3.277c-0.433,2.816,1.256,5.821,3.925,6.841c1.839,0.63,3.646-0.479,4.963-1.678
		c1.36-1.249,2.555-3.041,2.183-4.973C566.26,206.315,563.169,204.419,560.668,205.485z"/>
	<path fill="#231F20" d="M480.584,200.984c1.539-0.98,3.775,0.44,3.56,2.247c-0.626,6.945-3.177,13.518-4.34,20.37
		c-0.462,2.612-0.347,5.274-0.258,7.911c0.147,2.036-2.34,3.564-4.143,2.798c-1.285-0.63-2.837-0.701-3.868-1.793
		c-2.694-2.637-4.383-6.076-6.19-9.332c-1.066,3.177-2.601,6.297-2.658,9.714c-0.147,1.506,0.2,3.349-1.081,4.465
		c-1.095,1.077-2.855,1.02-4.061,0.172c-2.283-1.009-3.506-3.288-4.712-5.331c-3.138-4.995-6.122-10.154-8.051-15.751
		c-0.487-1.521-0.891-3.077-1.07-4.666c-0.165-1.252,1.124-2.458,2.365-2.175c0.53,0.111,0.869,0.569,1.177,0.984
		c3.818,5.346,6.43,11.435,10.137,16.853c1.292-4.065,3.349-7.836,4.669-11.89c0.44-0.995-0.293-2.143,0.329-3.088
		c0.895-1.703,3.914-2.201,4.795-0.243c1.546,4.254,3.678,8.269,6.054,12.115c1.045-6.669,3.828-12.87,5.61-19.343
		C479.303,203.643,479.232,201.846,480.584,200.984z"/>
	<path fill="#231F20" d="M536.77,200.959c3.063-0.995,6.347,1.088,7.235,4.061c0.129,1.109-0.938,2.226-2.057,2.054
		c-0.877-0.236-1.478-1.202-2.455-1.084c-1.585,0.125-2.648,1.496-3.639,2.583c-2.175,2.794-4.269,6.043-4.254,9.711
		c-0.068,1.056,0.848,1.914,1.857,2.029c4.118,0.78,8.094-0.998,12.083-1.696c2.78-0.2,3.628,4.029,1.446,5.381
		c-3.557,2.057-7.743,2.941-11.825,2.891c-3.056-0.082-6.415-0.927-8.362-3.464c-1.957-2.576-1.818-6.083-1.059-9.07
		c1.113-4.204,3.696-7.89,6.816-10.863C533.768,202.383,535.167,201.406,536.77,200.959z"/>
	<path fill="#231F20" d="M493.97,206.745c2.258-1.081,4.995-1.202,7.263-0.079c1.918,0.866,3.159,2.641,4.412,4.254
		c1.195,1.628,2.43,3.435,2.458,5.535c-0.036,1.177-0.54,2.533-1.692,3.034c-5.016,2.022-10.509,2.229-15.636,3.886
		c0.555,1.399,1.768,2.43,3.192,2.877c3.532,1.22,7.353,0.404,10.799-0.708c1.213-0.494,2.769-0.619,3.761,0.401
		c1.352,1.227,1.116,3.625-0.433,4.587c-3.192,2.061-7.084,2.841-10.845,2.784c-3.825-0.097-7.886-1.245-10.53-4.158
		c-2.161-2.34-2.848-5.686-2.569-8.788C484.656,214.498,488.667,209.196,493.97,206.745 M497.566,211.801
		c-2.362,0.984-4.265,2.845-5.718,4.916c3.195-0.862,6.419-1.607,9.668-2.226c-0.143-0.726-0.208-1.481-0.487-2.172
		C500.11,211.446,498.703,211.303,497.566,211.801z"/>
	<path fill="#231F20" d="M637.689,223.544c1.202-0.562,2.816-0.204,3.557,0.93c0.54,0.798,0.394,1.803,0.347,2.709
		c-0.68,9.092-3.274,17.879-4.795,26.839c-0.569,3.124-0.605,6.466-2.215,9.292c-0.844,1.678-3.728,1.506-4.347-0.276
		c-0.995-2.648-0.587-5.535-0.064-8.237c1.753-9.743,4.845-19.218,6.036-29.061C636.286,224.817,636.823,223.927,637.689,223.544z"
		/>
	<path fill="#231F20" d="M607.036,228.51c1.435-0.769,3.514,0.2,3.675,1.871c2.057,14.949,0.955,30.077,1.7,45.105
		c-0.021,1.678,0.197,3.693-1.116,4.977c-1.292,1.274-3.657,0.784-4.444-0.816c-0.816-1.674-0.823-3.592-0.912-5.41
		c-1.803,1.249-3.85,2.19-6.04,2.462c-3.12,0.426-6.512-0.53-8.688-2.87c-1.549-1.628-2.315-3.939-2.086-6.172
		c0.533-5.675,4.684-10.795,10.083-12.57c1.95-0.58,4.551,0,5.421,2.018c0.326,1.002,0.916,2.877-0.741,2.913
		c-0.626-0.701-1.556-0.977-2.39-0.454c-3.209,1.599-5.739,4.816-6.118,8.43c-0.208,1.088,0.63,2.054,1.685,2.215
		c2.458,0.462,4.938-0.655,6.791-2.215c0.547-0.519,1.249-0.798,1.982-0.948c-0.075-11.969,0.533-23.948-0.15-35.906
		C605.612,230.109,606.063,228.975,607.036,228.51z"/>
	<path fill="#231F20" d="M470.337,249.663c0.977-1.088,1.975-2.676,3.66-2.497c1.796,0.05,3.041,1.971,2.469,3.657
		c2.465,3.163,2.837,7.288,3.778,11.053c0.698,2.218,1.174,4.494,1.782,6.737c1.603,0.651,2.007,2.651,1.188,4.075
		c1.317,4.48,3.542,8.648,4.684,13.185c0.716,2.591-3.281,4.53-4.877,2.387c-2.945-4.004-4.193-8.909-5.632-13.586
		c-2.862,0.361-5.761,0.598-8.559,1.335c-1.027,0.315-2.186,0.619-2.798,1.581c-0.344,0.565-0.97,0.776-1.556,0.984
		c-1.091,2.587-1.302,5.489-2.68,7.958c-1.191,1.957-4.562,1.199-5.092-0.934c-0.261-1.213-0.122-2.476,0.125-3.675
		c1.109-4.691,3.077-9.113,5.152-13.443C464.898,262.276,465.914,255.113,470.337,249.663 M473.113,256.036
		c-2.075,4.655-3.138,9.679-5.138,14.359c2.58-0.73,5.235-1.149,7.89-1.506c-0.329-1.492-0.608-2.995-0.998-4.473
		C474.09,261.664,473.886,258.791,473.113,256.036z"/>
	<path fill="#231F20" d="M488.188,249.735c0.1-2.458,4.133-2.208,4.44,0.036c1.242,5.303,2.358,10.638,3.574,15.944
		c2.587-2.111,6.215-2.848,9.421-1.904c3.41,0.998,6.344,3.85,6.938,7.424c0.544,2.913-0.655,6.165-3.192,7.782
		c-2.773,1.871-6.237,2.662-9.546,2.179c-0.043,1.166,0,2.412-0.547,3.478c-0.759,1.191-2.626,1.17-3.567,0.218
		c-1.442-1.478-2.068-3.528-2.522-5.489C491.086,269.604,488.363,259.821,488.188,249.735 M497.53,271.264
		c0.34,1.338,0.662,2.68,1.013,4.015c2.608,0.061,5.668,0.512,7.761-1.435c0.909-0.812,0.555-2.175-0.021-3.07
		C504.199,268.058,499.169,268.065,497.53,271.264z"/>
	<path fill="#231F20" d="M579.403,254.558c1.646-0.723,3.778-0.794,5.174,0.497c1.993,1.839,1.961,5.031,0.937,7.364
		c-0.916,1.911-3.814,1.964-5.07,0.386c-0.551-0.594-0.605-1.42-0.698-2.179c-2.569,1.399-4.812,3.285-7.228,4.916
		c0.261,3.599,1.088,7.117,1.911,10.62c0.565,2.047-1.378,4.158-3.449,3.85c-1.406-0.118-2.186-1.442-2.573-2.648
		c-1.36-3.803-1.463-7.897-1.624-11.89c0.054-2.233,0.007-4.537,0.683-6.687c0.386-1.421,2.168-2.387,3.503-1.599
		c1.034,0.623,1.127,1.929,1.327,2.995C574.375,257.989,576.587,255.789,579.403,254.558z"/>
	<path fill="#231F20" d="M544.17,264.115c1.732-2.769,4.462-5.142,7.786-5.61c1.571-0.268,3.163,0.175,4.53,0.955
		c1.263-1.442,4.283-1.46,4.791,0.673c0.472,4.576-0.415,9.199,0.243,13.765c0.204,1.66,1.349,3.088,1.32,4.787
		c-0.039,1.8-1.932,3.328-3.7,2.766c-1.739-0.53-2.619-2.311-3.188-3.896c-3.045,1.124-6.473,1.9-9.65,0.862
		c-2.501-0.798-4.086-3.295-4.419-5.807C541.432,269.6,542.577,266.616,544.17,264.115 M551.426,264.609
		c-1.911,1.664-3.324,4.058-3.446,6.627c-0.032,0.522,0.097,1.295,0.773,1.302c2.283,0.315,4.372-0.959,6.598-1.234
		c0.068-2.587,0.351-5.163,0.64-7.732C554.414,263.013,552.642,263.514,551.426,264.609z"/>
	<path fill="#231F20" d="M525.678,260.337c3.478-0.837,7.449-0.093,10.086,2.422c3.431,3.07,4.591,8.426,2.526,12.58
		c-1.295,2.537-3.421,4.601-5.807,6.115c-3.252,2.079-7.625,2.118-10.977,0.258c-4.083-2.315-6.473-7.285-5.675-11.918
		c0.422-2.537,1.75-5.002,3.829-6.544c1.488-0.182,2.383-1.474,3.696-2.047C524.093,260.834,524.873,260.537,525.678,260.337
		 M521.481,268.799c-0.766,2.866,0.583,6.072,3.149,7.543c1.274,0.648,2.827,0.54,4.068-0.136c1.961-1.027,3.796-2.723,4.286-4.956
		c0.451-2.648-2.05-5.081-4.644-4.952C525.775,266.355,524.108,268.949,521.481,268.799z"/>
	<path fill="#231F20" d="M628.014,269.665c2.612-1.009,5.235,1.317,5.854,3.753c0.311,1.564,0.354,3.349-0.53,4.744
		c-1.284,1.918-3.972,2.744-6.097,1.814c-2.097-0.88-3.467-3.32-2.913-5.564C624.901,272.463,625.939,270.341,628.014,269.665z"/>
	<path fill="#231F20" d="M351.76,292.883c4.676-1.081,9.596,1.531,11.965,5.571c1.904,3.235,2.676,7.17,1.975,10.87
		c-0.483,2.494-1.896,4.906-4.136,6.197c-0.895,0.537-2.333-0.268-2.1-1.367c0.379-3.621,1.209-7.439-0.143-10.963
		c-0.798-2.218-2.687-4.061-5.034-4.523c-3.625-0.755-7.228,0.572-10.555,1.875c-0.633,0.358-1.299-0.619-0.776-1.091
		C345.313,296.647,348.043,293.734,351.76,292.883z"/>
	<path fill="#231F20" d="M190.763,298.257c3.496-1.077,7.364-0.204,10.38,1.76c2.018,1.281,3.553,3.145,5.335,4.709
		c1.327,1.177,3.016,1.796,4.501,2.73c0.68,0.451,0.122,1.746-0.705,1.51c-3.167-0.236-6.158-1.424-9.124-2.476
		c-2.383-0.937-4.637-2.583-7.306-2.472c-2.065,0.086-3.735,1.646-4.566,3.446c-1.607,3.403-1.678,7.328-1.03,10.977
		c0.018,1.324-1.954,1.678-2.594,0.615c-3.224-4.362-3.728-10.591-1.281-15.425C185.668,301.076,188.011,299.073,190.763,298.257z"
		/>
	<path fill="#231F20" d="M350.383,306.536c1.796-1.184,5.006-0.168,4.984,2.236c-0.222,1.549-0.962,2.97-1.517,4.419
		c-1.674,4.19-4.694,7.61-7.539,11.038c-1.124,1.073-1.252,2.701-1.703,4.108c-0.311,1.446-0.92,2.887-0.751,4.394
		c0.608,5.224,0.526,10.491,0.623,15.74c0.05,14.67-1.002,29.472-4.73,43.709c-2.827,10.573-7.593,21.007-15.643,28.635
		c-4.77,4.562-10.816,7.671-17.218,9.21c-8.881,2.179-18.126,1.703-27.154,0.945c-13.597-1.124-27.64-3.059-39.623-10.04
		c-4.462-2.501-8.144-6.219-10.881-10.516c-6.541-7.299-10.301-16.57-13.368-25.751c-2.73-8.187-4.973-16.566-6.076-25.132
		c-0.988-7.213-1.42-14.495-1.578-21.769c-0.061-1.9,0.114-3.796,0.161-5.693c-0.394-1.592-1.056-3.106-1.624-4.637
		c-0.308-0.952-1.209-1.481-1.875-2.154c-4.666-4.39-8.244-9.807-11.228-15.443c-0.272-0.869,0.984-1.256,1.467-0.633
		c7.621,5.929,15.697,11.267,24.087,16.04c12.255,6.859,25.791,11.403,39.691,13.368c14.058,2.043,28.417,1.288,42.346-1.317
		c6.666-1.292,13.264-3.17,19.386-6.143c6.093-3.002,11.779-6.891,16.588-11.707C341.66,315.199,345.388,310.197,350.383,306.536
		 M290.826,349.394c0.927,5.321,0.193,10.731-0.855,15.972c0.122,3.295-0.837,6.634-2.558,9.446
		c-0.755,2.741-3.507,4.19-5.968,5.142c-7.789,2.698-16.473,1.696-23.976-1.446c-0.905-0.411-1.918-0.437-2.859-0.726
		c-2.877-0.891-5.442-3.084-6.362-6c-0.279-0.794-0.308-1.7-0.852-2.372c-2.072-2.751-3.546-5.94-4.312-9.296
		c-1.077-4.734-1.904-9.593-1.556-14.466c-8.151-2.383-16.037-5.718-23.307-10.112c0.147,5.882,0.236,11.772,0.798,17.636
		c0.644,7.986,2.39,15.836,4.523,23.547c1.571,5.628,3.134,11.271,5.238,16.727c2.336-2.551,5.188-4.58,8.287-6.104
		c7.689-3.968,16.706-4.687,25.172-3.456c4.465,0.773,9.435,1.546,12.645,5.074c3.947-3.313,8.913-5.084,13.797-6.512
		c8.58-2.319,17.747-2.658,26.427-0.669c5.542,1.302,11.131,3.893,14.505,8.666c2.777-10.645,4.122-21.633,4.458-32.617
		c0.211-7.396,0.179-14.81-0.462-22.184C321.057,344.331,305.722,347.537,290.826,349.394 M248.928,347.516
		c0.1,3.907-0.225,7.822,0.089,11.725c0.25,3.811,0.333,7.75,1.85,11.321c0.676,1.9,2.118,3.506,4.065,4.133
		c3.99,1.038,8.151,0.97,12.244,0.92c3.528-0.057,7.145-0.011,10.541-1.127c2.136-0.691,4.015-1.954,6.101-2.759
		c0.082-4.083,0.92-8.09,1.249-12.151c0.462-3.192,0.19-6.43-0.301-9.603C272.782,350.822,260.671,350.07,248.928,347.516
		 M287.155,389.271c-2.998,0.859-5.821,2.204-8.634,3.524c-2.916,1.421-5.825,3.156-7.736,5.854
		c-0.451,0.941-2.165,0.705-2.147-0.404c0.787-2.483,2.179-4.748,3.796-6.777c-3.142-0.136-6.154-1.12-9.249-1.553
		c-5.478-0.63-11.085-0.526-16.445,0.852c-5.821,1.277-11.199,4.326-15.403,8.534c1.088,2.118,2.276,4.183,3.453,6.251
		c0.508,0.873,0.959,1.828,1.778,2.465c4.694,4.065,10.29,7.042,16.205,8.895c7.879,2.419,16.083,3.607,24.284,4.24
		c-0.716-3.936-0.512-8.015,0.437-11.89c1.016-4.093,3.31-7.907,6.669-10.494c0.479-0.386,1.181-0.147,1.685-0.494
		c2.344-1.413,5.088-1.972,7.793-2.068c3.338-0.161,6.981-0.179,9.85,1.793c2.612,0.759,4.927,2.447,6.362,4.773
		c2.573,4.032,2.787,8.988,3.034,13.625c0.043,0.032,0.129,0.097,0.175,0.132c6.523-4.269,10.913-11.099,13.883-18.176
		c-0.805-0.401-1.542-0.941-1.997-1.732c-1.957-3.038-4.777-5.542-8.144-6.902c-3.592-1.446-7.457-2.14-11.31-2.397
		C299.335,386.989,293.091,387.554,287.155,389.271 M284.447,402.052c-1.292,3.832-1.753,7.9-1.689,11.929
		c0.047,2.587,0.433,5.21,1.453,7.603c7.052,0.243,14.251,0.39,21.103-1.556c-0.447-3.546,0.358-7.131-0.286-10.659
		c-0.429-2.54-1.37-4.959-2.508-7.26c-3.217,0.615-6.387-0.497-9.596-0.576C290.096,401.444,287.205,401.283,284.447,402.052z"/>
	<path fill="#231F20" d="M337.184,414.2c0.494-0.544,1.31,0.186,0.941,0.798c-2.14,8.591-6.158,17.099-13.038,22.899
		c-2.591,2.254-5.775,3.596-8.77,5.203c-5.886,2.855-12.366,4.122-18.756,5.274c-12.709,2.258-25.833,2.798-38.568,0.429
		c-6.541-1.234-13.013-3.56-18.305-7.693c-7.299-5.56-12.505-13.317-16.971-21.214c-0.58-0.701,0.583-1.56,1.138-0.891
		c7.854,6.462,14.287,14.895,23.662,19.332c6.279,2.995,13.242,4.272,20.148,4.691c8.809,0.483,17.668,0.007,26.381-1.363
		c1.034-0.175,2.115-0.243,3.059-0.741c2.755-1.36,5.854-1.689,8.806-2.408c4.387-1.03,8.934-2.043,12.684-4.673
		C326.975,428.773,330.986,420.44,337.184,414.2z"/>
</g>
</svg>
