<?xml version="1.0" encoding="utf-8"?>
<!-- Generator: Adobe Illustrator 17.0.0, SVG Export Plug-In . SVG Version: 6.00 Build 0)  -->
<!DOCTYPE svg PUBLIC "-//W3C//DTD SVG 1.1//EN" "http://www.w3.org/Graphics/SVG/1.1/DTD/svg11.dtd">
<svg version="1.1" id="Layer_1" xmlns="http://www.w3.org/2000/svg" xmlns:xlink="http://www.w3.org/1999/xlink" x="0px" y="0px"
	 width="800px" height="600px" viewBox="0 0 800 600" enable-background="new 0 0 800 600" xml:space="preserve">
<path fill="#242021" d="M375.539,130.062c11.704-6.453,26.313-7.668,38.814-2.786c7.477,2.905,14.037,8.668,16.943,16.264
	c2.143,5.132,2.155,10.775,1.964,16.228c3.346-0.31,6.703-0.762,10.109-0.691c-7.441,3.286-15.431,5.524-22.027,10.489
	c-21.86,14.657-31.611,43.255-26.611,68.639c3.322,18.109,14.466,36.159,32.361,42.767c8.406,3.393,17.597,2.548,26.313,1.072
	c4.893,3.369,4.084,10.096,6.37,14.978l1.584,0.441c0.059-3.941-2.608-7.81-0.964-11.74c2.477-6.334,9.346-8.906,14.026-13.275
	c7.727-7.227,11.716-17.502,13.99-27.622c3.227-15.097,2.858-30.92-0.714-45.922c-2.524-10.037-6.56-20.074-13.799-27.658
	c-2.988-2.941-6.382-5.929-10.632-6.691c-6.501-1.298-13.025-2.667-19.24-5.001c9.656-1.453,19.955,0.583,27.968,6.298
	c9.346,6.584,15.299,16.966,18.728,27.694c5.965,19.229,5.596,40.338-0.488,59.495c-4.239,13.097-12.228,25.956-25.098,31.968
	c0.643,2.988,1.25,5.989,1.822,9.013c0.822-0.06,2.488-0.179,3.31-0.238c3.203,2.357,8.37,1.024,10.454,4.941
	c2.917,5.001,2.226,11.692-1.417,16.157c2.619,0.345,5.644,0.726,7.239,3.179c4.024,5.536,3.143,13.323-0.405,18.871
	c7.382,3.369,6.084,17.585-3.203,16.621c2.56-4.715,2.405-10.37-0.274-15.002c-7.68,3.858-16.966,3.786-23.979,8.977
	c-3.631,2.643-3.762,7.394-3.941,11.442c-1.822-0.833-4.358-1.286-4.691-3.631c-1.119-4,1.143-7.822,3.858-10.585
	c-0.691-0.464-2.084-1.393-2.774-1.857l2.286-0.393c-1.881-1.905-4.715-3.215-5.382-6.001c-1.179-3.667-0.357-7.763,2.286-10.573
	c7.406-2.131,13.275-7.81,21.003-9.204c-0.036,0.321-0.095,0.976-0.119,1.31c-5.798,4.131-13.99,5.513-17.633,12.168
	c-1.143,2.869-2.727,7.656,1.131,9.061c-0.643,0.762-1.262,1.536-1.845,2.322c10.62,0.833,20.931-2.488,30.385-7.096
	c0.869-6.668-0.881-14.085-6.763-18.002c-0.917,0.274-2.738,0.81-3.643,1.083c5.905-4.108,6.703-14.311,0.917-18.776
	c-5.536-2.274-11.037,2.179-15.002,5.655c-4.81,4.751-9.965,11.882-7.001,18.907c-0.5,0.643-0.976,1.298-1.441,1.941
	c-2-1.869-4.405-3.798-4.762-6.691c-1.06-7.299,2.929-14.99,9.346-18.586c-2.131-4.489-2.846-9.43-3.536-14.287
	c-8.715,1.881-17.955,1.869-26.36-1.322c-11.049-3.965-20.253-12.335-25.789-22.622c-7.608,5.001-19.229,8.811-26.86,1.953
	c8.561,3.465,17.824-0.274,24.134-6.37c-0.679-3.917-3.334-7.346-4.679-11.109c-2.167-0.238-4.334-0.5-6.453-0.857
	c1.727-1.167,3.548-2.203,5.37-3.262c-0.571-2.631-1.238-5.251-1.857-7.87c-5.596,1.119-11.966,0.738-16.3-3.405
	c-3.024-2.477-3.786-6.477-3.739-10.18c2.988,3.238,5.739,7.144,10.109,8.62c2.893,1.191,6.155,0.679,8.965-0.548
	c0.81-8.287,1.179-16.704,3.703-24.717c4.941-18.002,17.871-33.516,34.528-41.862c-3-2.298-3.738-6.156-5.834-9.096
	c-5.334-2.096-10.93,1.238-16.395,1.072c-11.418-0.31-23.277-1.75-33.302-7.632c-7.31,5.167-12.764,12.609-16.181,20.824
	c-6.263,14.883-7.81,31.278-7.703,47.28c-3.072-0.941-6.703-1.798-9.394,0.5c-5.417,4.465-6.965,12.299-6.12,18.979
	c0.667,4.941,5.763,6.882,8.787,10.168c1.31,2.25,1.31,5.013,2.072,7.465c3.536-1.774,2.536-6.001,2.131-9.204
	c-2.155-0.964-3.87-2.286-3.631-4.882c-2.667-3.691-3.429-9.168,1.06-11.787c-0.952-1.238-1.881-2.465-2.822-3.691
	c-1.619,1.917-2.977,4.143-5.286,5.298c-0.024-4.441,4.358-10.858,9.192-7.429c5.155,5.894-1.464,15.157,4.096,21.026
	c6.572,11.882,1.846,26.229,5.286,38.898c5.644,7.668,15.133,10.763,23.717,13.871c1.595,5.775,4.417,11.132,5.977,16.931
	c0.964,3.572,0.441,7.31,0.572,10.954c-0.833-0.19-2.5-0.583-3.334-0.774c-4.37,3.024-9.227,5.989-11.692,10.894
	c-1.012,4.429,1.56,8.62,2.536,12.835c2.56-8.013,6.191-15.597,9.977-23.098c1.512,0.464,3.024,0.952,4.143,2.215
	c4.774,0.405,8.715-2.703,12.537-5.072c-2.25-7.775,0.56-15.776-0.726-23.622c7.406-0.822,10.335-9.561,17.312-10.894
	c-0.214,6.072-5.834,10.108-11.001,12.156c-0.476,4.679-0.595,9.382-0.643,14.073c4.501,4.977,11.216,8.251,12.906,15.299
	c9.239,2.143,14.823,11.323,24.396,12.752c-0.155-5.56,3.25-10.692,8.311-12.918c-0.857,4.465-2.869,8.692-2.953,13.299
	c-0.715,12.192,4.334,23.729,4.893,35.79c-6.751-9.025-9.787-20.288-9.93-31.444c-1.774-1.06-3.453-2.238-5.001-3.572
	c-6.227-0.083-11.537-3.405-16.204-7.179c3.06,10.358,6.846,20.919,5.894,31.897c-4.834-14.752-6.596-31.075-16.169-43.851
	c4.215,42.077,3.441,85.141-7.203,126.254c3.75-6.406,6.072-13.514,8.93-20.336c5.429-14.18,10.751-28.408,16.562-42.446
	c-3.167-2.762-7.215-4.167-10.466-6.739c-1.726-1.369-1.488-3.977,0.095-5.346c2.643-2.548,6.036-4.084,9.251-5.81
	c-0.167,3.727-3.56,5.501-5.989,7.727c3.524,3.405,8.691,6.846,7.894,12.466c-1.262,10.204-5.072,19.907-9.275,29.218
	c-9.096,18.205-17.74,36.635-25.622,55.412c-4.429,9.823-8.918,19.741-15.085,28.599c-1.036,1.857-3.06,2.024-4.917,1.81
	c1.762-14.252-2.238-28.23-4.084-42.243c-0.619-3.917-0.405-7.941-1.274-11.811c-8.573-20.693-22.098-39.35-27.325-61.377
	c-0.81-3.87-2.203-8.168-0.071-11.87c3.631-6.62,10.728-10.263,14.978-16.431c-2.893-0.798-6.929-0.19-8.537-3.286
	c0.726-4.548,2.715-8.751,4.274-13.049c-6.584,6.025-13.895,11.192-21.622,15.657c-1.988,2.822-3.953,5.763-4.131,9.346
	c-5.334,31.98,1.679,64.425-1.822,96.548c-1.107,8.763,0.607,17.812-1.846,26.408c-3.203-11.74-2.75-24.051-2.762-36.112
	c0.393-18.717-2.929-37.266-2.798-55.959c0.036-8.584,1.131-17.228,4.215-25.277c-1.679-3.965-1.476-8.537,0.917-12.168
	c1.381-2.881,4.882-3.084,7.394-4.536c9.489-4.905,14.049-15.466,22.86-21.264c3.227-1.917,4.298-5.858,7.263-8.096
	c6.084-4.822,13.883-6.608,20.36-10.811c-1.893-6.62-4.37-13.049-7.013-19.395c-6.751-1-13.43-4.06-17.407-9.787
	c-6.179-8.596-7.668-19.455-8.596-29.73c-1.869-0.429-4.417,0.107-5.525-1.81c-1.274-2.5-1.25-5.441-2.369-7.989
	c-2.691-4-7.679-6.834-8.001-12.097c-0.762-6.775-1.476-14.43,2.488-20.395c2.369-3.619,6.93-4.382,10.93-4.655
	c-0.393-16.573,0.941-33.492,6.667-49.185c3.893-10.858,10.751-20.991,20.884-26.896c0.81,0.274,1.643,0.56,2.5,0.833
	c1.56-1.083,3.203-2.072,4.929-2.929C376.825,130.729,375.968,130.288,375.539,130.062 M381.016,130.098
	c8.882,3.167,18.574,1.191,27.789,1.703c4.298,1.453,6.453,7.108,11.644,6.346c-2.405-4.477-6.894-7.358-11.763-8.43
	C399.59,127.669,390.113,128.502,381.016,130.098 M401.412,318.609c-0.714,5.167,1.596,10.204,3.87,14.716
	c0.298-3.715,0.095-7.441-0.19-11.156C403.817,321.014,402.602,319.823,401.412,318.609 M351.239,353.613
	c2.155,0.929,4.262,1.965,6.346,3.108c-4.596,7.858-11.847,13.68-16.562,21.455c11.251,20.526,13.383,44.886,25.968,64.758
	c2.06-29.92-0.286-59.912-0.881-89.844c-0.405-5.536,0.929-11.061,0.012-16.562c-0.703-4.37,1-8.692,0-13.037
	C355.513,329.658,354.835,343.148,351.239,353.613 M376.278,337.206c-2.524,5.405-4.143,11.216-4.346,17.181
	c-1.036,0.643-2.036,1.274-3.024,1.917c1.107,19.717,1.191,39.481,2.143,59.198c4.608-20.074,6.775-40.874,14.466-60.15
	C379.921,350.875,377.933,343.85,376.278,337.206 M401.971,339.445c-2.119,4.81-4.393,9.632-5.203,14.871
	c-0.036,1.643-1.25,2.715-2.215,3.858c6.834,21.598,3.679,44.625,7.227,66.699c6.12-17.657,5.275-36.647,5.275-55.066
	C406.746,359.566,406.889,348.732,401.971,339.445z"/>
<path fill="#242021" d="M360.788,174.663c3.084-7.608,12.478-11.513,20.169-9.239c3,0.822,4.096,3.905,5.274,6.441
	c-4.596-0.369-9.18,0.202-13.347,2.167C369.063,175.841,364.741,176.222,360.788,174.663z"/>
<path fill="#242021" d="M421.664,175.651c10.501-7.06,24.015-8.18,36.1-5.239c-12.382,1.619-26.598,1.107-36.278,10.311
	c8.584-2.619,20.598,1.274,21.705,11.323c-1.917-3.155-4.632-6.025-8.358-6.81c-8.668-2.084-17.597,2.715-22.562,9.715
	c-1.06,1.714-4.727,3.393-1.607,5.286c-0.214,5.632,0.643,11.918,5.155,15.811c7.036,6.548,19.55,4.632,24.61-3.453
	c3.274-4.548,2.75-10.311,3.262-15.585c1.369,3.346,0.833,6.965,0.441,10.442c4.691-0.833,9.823,2.453,9.858,7.453
	c-0.798,8.596-2.679,17.169-5.977,25.17c-1.857,4.072-4.155,8.549-8.418,10.501c-2.881,1.405-5.846-0.25-8.525-1.214
	c-1.798,7.12-1.976,14.538-4,21.61c13.847,7.322,30.337,2.607,43.029-4.929c-7.144,8.275-18.443,12.311-29.218,11.37
	c-16.871-1.214-32.718-13.144-37.6-29.48c-2.953-9.513-1.143-19.621-3.012-29.313C400.602,202.237,407.651,184.962,421.664,175.651
	 M409.175,249.124c2.619,7.429,6.965,14.347,13.133,19.359c6.763-11.692,4.143-25.765,7.072-38.445
	c3.441,4.56,1.512,10.525,1.786,15.764c0.964-0.369,2.893-1.119,3.858-1.488c0.917,1.714,1.833,3.453,2.834,5.143
	c2.75-2.941,5.727-5.739,8.108-9.013c3.108-5.929,3.905-12.835,3.858-19.455c-0.095-4.346-1.143-9.87-6.108-10.978
	c-1.56,3.655-2.953,7.62-6.072,10.263c-6.798,6.31-18.502,5.679-24.694-1.167c-3.881-3.929-5.036-9.561-5.286-14.895
	C403.603,218.859,404.055,234.789,409.175,249.124z"/>
<path fill="#242021" d="M470.289,179.008c8.918,6.858,12.835,18.133,14.704,28.837c2.453,15.657,1.203,32.028-4.334,46.922
	c-1.357,4.298-5.179,7.001-7.751,10.525c6.632-12.978,9.918-27.503,10.299-42.041c0.226-11.466-1.179-23.253-6.179-33.695
	C475.266,185.735,472.48,182.556,470.289,179.008z"/>
<path fill="#242021" d="M365.765,182.914c1.893-2.215,4.87-1.917,7.429-1.369c-2.357,1.726-4.989,3.334-6.37,6.013
	c-2.846,4.905-2.822,10.716-3.727,16.145C360.657,196.987,360.811,188.474,365.765,182.914z"/>
<path fill="#242021" d="M375.349,181.378c3.072,0.988,6.453,2.405,7.703,5.679c2.703,6.644,1.238,14.918-3.536,20.252
	c-2.286,2.822-6.072,2.703-9.323,2.798c2.727-1.595,6.025-2.655,7.834-5.441C382.814,197.582,382.171,186.974,375.349,181.378z"/>
<path fill="#242021" d="M369.753,189.343c3.036-1.262,8.239-0.952,8.977,3.036c1.643,4.715-3.905,8.692-8.168,7.287
	C366.098,198.582,365.324,190.974,369.753,189.343z"/>
<path fill="#242021" d="M422.057,194.07c6.703-4.381,14.526,3.227,13.061,10.239c-0.226,5.87-7.12,9.465-12.24,6.882
	C415.866,208.536,415.08,197.284,422.057,194.07z"/>
<path fill="#242021" d="M440.19,220.347c1.703-2.25,4.667-2,7.203-1.976c-0.524,3.25-1.214,6.513-2.738,9.465
	c-1.655-1.345-0.893-3.762-1.31-5.56c-4.298,4.31-0.322,10.287-1.56,15.395c-1.119,3.25-6.727,2.298-6.572-1.131
	C435.094,230.86,436.44,224.776,440.19,220.347z"/>
<path fill="#242021" d="M358.371,241.933c8.703,1.524,17.097,4.882,26.098,4.381c-5.929,3.06-12.775,2.179-19.181,2.203
	c0.869,5.382,3.274,10.311,4.667,15.55C363.098,258.578,362.562,249.148,358.371,241.933z"/>
<path fill="#242021" d="M382.481,272.258c5.691-0.214,11.144-2.238,16.871-2.31c-4.167,10.882-22.205,10.835-26.539,0.107
	C375.944,271.032,379.099,272.437,382.481,272.258z"/>
<path fill="#242021" d="M484.898,354.47c2.691,0.179,6.953-0.06,7.644,3.393c0.941,10.18-2.393,20.503-8.549,28.623
	c7.025,5.155,8.822,14.276,9.608,22.431c0.822,11.43,0.214,23.05-2.25,34.242c-2.977,10.918-17.978,13.645-26.253,7.251
	c-14.585-15.633-24.074-35.385-29.801-55.828c1.214,26.122,0.107,52.542-5.739,78.093c-2.107,8.846-4.655,17.657-8.596,25.872
	c3.179-37.731,11.394-75.176,9.561-113.228c-0.262-5.786-0.893-11.609,0.036-17.383c1.786,1.226,2.572,3.31,3.512,5.191
	c0.417-2.191,0.893-4.382,1.536-6.525c4.286,14.359,2.762,30.254,9.572,43.982c0.155-3.703-1.298-7.537-0.095-11.12
	c1.846-2.215,3.179,1.072,3.762,2.453c2.322,7.489,1.822,15.573,4.405,23.015c0.357-3.119,0.643-6.239,1.155-9.334
	c4.096,9.001,4.227,19.681,10.418,27.741c3.393,4.596,9.608,6.644,15.133,5.405c5.024-3.036,7.001-9.073,7.941-14.549
	c2.06-13.847-0.345-27.872-3.441-41.362c-1.536,3.87-2.774,8.156-6.024,11.001c-3.179,3.084-7.668,3.941-11.835,4.798
	c1.167,0.25,3.489,0.738,4.655,0.988c-2.774,1.286-6.31,2.822-8.977,0.548c-5.013-4.072-5.81-10.882-8.061-16.526
	c-3.239-2.786-5.703-6.334-5.608-10.787c-0.048-2.024-0.786-7.239,2.631-5.453c1.869,3.989,2.072,8.501,3.429,12.668
	c0.155,1.893,1.953,2.441,3.417,3.191c1.143,3.774,2.703,8.037,6.596,9.775c3.465,1.822,7.025-1.048,10.656-0.476
	c2.941-4.239,3.822-9.382,5.251-14.24c-2.548,1.203-5.286,1.798-8.072,1.417c5.274-6.203,11.775-11.823,13.894-20.05
	c-0.321-0.381-0.976-1.131-1.298-1.512C489.804,364.591,485.648,358.947,484.898,354.47z"/>
<path fill="#242021" d="M458.99,358.173c5.763-2.893,12.799-3.512,18.883-1.25c-5.215,1.381-10.763,1.179-15.811,3.119
	c-2.893,0.81-3.024,5.334-0.738,6.965c2.691,2.155,6.37,2,9.608,2.679c-4.762,3.524-12.418,2.405-15.799-2.488
	C453.049,363.757,455.752,359.661,458.99,358.173z"/>
<path fill="#242021" d="M329.343,393.57c-0.167-5.965-1.667-12.573,1.714-17.943c6.703,24.622,7.596,50.435,14.538,75.009
	c3.965,13.764,7.775,27.777,8.251,42.172c-6.024-7.513-9.168-16.728-11.585-25.908c-2.25,8.299-3.227,16.919-5.882,25.11
	c-2.5-11.359-0.226-22.896,1.143-34.23c1.833-13.073-6.453-24.932-5.394-37.969C332.796,410.918,329.593,402.393,329.343,393.57z"/>
</svg>
