<?xml version="1.0" encoding="utf-8"?>
<!-- Generator: Adobe Illustrator 17.0.0, SVG Export Plug-In . SVG Version: 6.00 Build 0)  -->
<!DOCTYPE svg PUBLIC "-//W3C//DTD SVG 1.1//EN" "http://www.w3.org/Graphics/SVG/1.1/DTD/svg11.dtd">
<svg version="1.1" id="Layer_1" xmlns="http://www.w3.org/2000/svg" xmlns:xlink="http://www.w3.org/1999/xlink" x="0px" y="0px"
	 width="800px" height="600px" viewBox="0 0 800 600" enable-background="new 0 0 800 600" xml:space="preserve">
<path fill="#FFFFFF" d="M358.72,150.35c15.93-4.8,33.31-3.15,48.92,2.16c9.42,3.42,18.75,8.14,25.65,15.57
	C410.52,155.64,384.3,151.75,358.72,150.35z"/>
<path fill="#FFFFFF" d="M348.51,154.71c8.49-1.13,17.08-0.43,25.55,0.49c18.93,2.24,37.98,6.22,55.11,14.86
	c7,3.79,14.47,8.06,18.33,15.34c1.69,2.49,2.92,5.26,3.57,8.21c-18.59-7.15-38.1-12.04-57.94-13.92c-6.11-0.5-12.28-1.03-18.39-0.33
	c25.69,4.71,52.34,7.47,76.21,18.82c0,1.78,0,3.55,0.02,5.33c-23.7-6.72-48.45-9.14-73.02-8.85c-21.91,0.37-44.02,2.75-64.89,9.7
	c0.21-1.52,0.45-3.02,0.67-4.52c15.52-8.71,33.84-9.76,51.25-9.46c19.1,0.45,38.1,2.73,57.2,3.29c-16.2-3.2-32.69-4.98-49.16-6.07
	c-19.54-0.92-39.92-0.55-58.16,7.38c3.89-11.48,9.07-22.9,17.41-31.85c17.65-2.77,35.51,0.76,53.11,2.47
	c-15.61-5.34-32.41-8.73-48.88-5.78C339.67,156.59,344.17,155.34,348.51,154.71z"/>
<path fill="#FFFFFF" d="M479.28,191.94c4.97-3.17,11-4.82,16.87-3.56c10.75,2.01,19.9,9.16,30.89,10.25
	c3.81,0.49,7.59-0.42,11.23-1.46c-4.71,4.49-10.47,9.33-17.43,8.67c-4.56-1.53-7.7-5.63-12.18-7.36c-8.23-3.23-17.9-3.6-25.96,0.3
	C481.65,196.45,480.45,194.2,479.28,191.94z"/>
<path fill="#FFFFFF" d="M461.44,188.46c5.18-0.84,10.93,0.59,14.14,5c5.67,7.53,6.3,19.26,0.23,26.73
	c-0.45-6.61,0.28-13.56-2.32-19.81c-0.77-2.18-2.77-3.38-4.74-4.31c3.16,8.4,5.02,18.3,1.06,26.74c-2.07,4.53-7.49,5.69-11.95,4.59
	c-1.02-2.27-2.21-4.45-3.68-6.46c-0.57-10.18,3.36-20.4,0.51-30.47c1.9,0.38,4.14,0.83,4.97,2.87c2.84,6.12,1.93,13.12,3,19.64
	C467.31,205.61,465.75,195.64,461.44,188.46z"/>
<path fill="#FFFFFF" d="M316.67,207.77c17.82-7.25,37.37-8.32,56.39-8.41c18.66,0.03,37.28,1.47,55.93,1.97
	c7.27,0.08,14.86,1.39,20.87,5.74c-0.11,6.94-0.11,13.96-1.89,20.72c-1.83-1.65-3.84-3.05-6.06-4.1c1.68,9.5,9.04,17.38,8.73,27.35
	c0.18,4.38-2.98,8.03-6.6,10.07c-3.88,2.38-8.38,3.34-12.78,4.22c5.23,6.58,15.36,4,20.56-1.29c1.53,12.46,2.16,25.07,0.92,37.58
	c-10.97-4.71-23.95-5.12-35.17-1.11c11.05,1.67,22.74,1.06,33.11,5.79c9.98,5.09,15.67,15.38,19.57,25.44
	c7.44,16.39,9.19,35.21,5.45,52.78c-2.43,11-7.97,22.36-18.38,27.77c-14.61,7.87-31.11,11.32-47.38,13.75
	c-11.87,1.58-23.87,2.68-35.85,2.21c-12.68-1.1-25.41-2.2-37.86-4.99c0.63-3.63,1.53-7.19,2.54-10.72
	c8.22,3.71,17.4,3.05,26.18,3.19c18.36,0.46,37.02,1.07,55.02-3.27c4.93-1.27,9.83-2.84,14.3-5.33
	c-28.18,3.88-56.79,7.06-85.21,3.88c-3.19-0.26-6.18-1.44-9.17-2.49c0.56-1.32,1.12-2.62,1.69-3.93c24.5,2,49.32,1.1,73.51-3.4
	c13.07-2.59,26.15-6.03,38.11-11.99c4.81-6.53,4.75-15.47,3.18-23.13c-2.64-11.26-8.32-21.86-16.2-30.32
	c-8.23-6.49-19.56-5.32-29.27-3.92c-28.68,4.92-57.94,6.24-86.95,4.11c-7.84-0.74-15.51,4.09-18.83,11.1
	c-2.92,6.37-4.76,13.2-5.91,20.1c-1.19,8.29-1.66,17.83,3.71,24.85c4.5,5.66,12.3,5.81,18.41,8.75c-0.55,1.1-1.08,2.2-1.61,3.31
	c-6.99-1.52-12.73-6.16-19.6-7.99c4.14,5.72,10.47,9.4,17.18,11.3c-1.57,3.38-3.17,6.75-4.5,10.24
	c-9.31,0.15-18.73-3.52-24.91-10.59c-8.91-10.04-11.91-23.95-12-37.06c0.12-15.36,3.92-31.35,13.73-43.49
	c2.24-3.29,4.37-6.74,7.41-9.37c8.43-7.64,19.46-11.33,30.08-14.8c-6.27-0.69-12.6-0.05-18.75,1.24
	c-1.6-12.33-0.03-24.76,1.86-36.96c3.18,3.21,6.55,7.72,11.68,7.01c2.22-0.11,6.35-1.6,5.06-4.47c-3.46-2.23-8.65-0.17-11.42-3.67
	c-1.34-2-2.95-4.08-3.44-6.44c2.43-11.43,6.42-22.52,8.37-34.06c-1.67,1.7-3.06,3.64-4.47,5.55c-0.59-6.98-1.66-13.89-2.69-20.81
	C314.04,208.56,315.56,208.38,316.67,207.77 M318.79,211.34c3.12,1.88,6.93,1.37,10.39,2.07c4.75,0.54,9.32,2.31,13.08,5.3
	c-5.27-0.34-11.08,0.09-15.34,3.55c0.24,2.71,3.94,1.48,5.83,2.06c-3.04,6.98-2.48,16.19,3.56,21.41c3.27,3,7.92,3.39,12.13,2.9
	c-1.3,2.66-2.39,5.85-5.46,6.94c-7.35,3.8-16.75-1.13-18.68-8.97c-3.62,5.93,1.32,12.65,6.49,15.6c3.54,0.88,7.23,0.94,10.88,1.01
	c-4.53,13.31-3.3,29.7,7.15,39.95c16.25,15.81,45.93,13.24,59.67-4.66c4.19-4.77,6.07-11.32,5.4-17.58
	c-0.67-2.8-0.98-6.34-3.89-7.75c0.04,4.57-0.49,9.22-2.68,13.31c-6.27,12.71-20.52,19.97-34.33,20.39c-5.23,0-11.06-0.03-15.27-3.6
	c-6.58-4.73-9.02-13.38-8.13-21.15c1.18-11.03,6.4-21.66,14.5-29.25c5.31-5.17,13.12-6.08,18.85-10.63
	c-10.59-1.03-19.55,5.31-28.45,9.95c3.1-7.36,8.78-13.07,13.94-18.98c-1.06-5.27-5.85-8.34-10.29-10.62
	c-3.46-1.7-6.26-4.48-9.83-5.94c-6.37-2.84-12.09-7.57-19.22-8.38C325.38,207.77,321.8,209.32,318.79,211.34 M400.94,225.29
	c2,4.74,3.25,9.76,5.31,14.48c1.58,3.64,4.69,6.88,8.77,7.45c4.99,0.71,10.34,0.11,14.78-2.4c4.3-2.44,7.22-6.97,8.08-11.8
	c0.31-5.25-2.79-10.05-6.73-13.27c2.2-0.9,7.49-1.34,6.09-4.85C424.35,213.22,412.08,219.52,400.94,225.29 M430.94,254.47
	c-4.31,1.24-8.72,0.12-12.8-1.36c4.16,7.52,15.03,7.69,21.75,3.79c3.47-1.84,3.67-6.11,2.28-9.36
	C439.06,250.71,435.39,253.56,430.94,254.47 M299.64,330.61c-8.14,10.21-11.98,23.41-12.48,36.33c-0.36,9.64,2.28,20.4,10.63,26.2
	c-7.06-14.08-4.56-30.57-0.98-45.26c1.55-5.14,2.61-10.76,6.26-14.91c4.01-4.6,9.96-6.84,14.14-11.26
	C310.59,322.59,303.81,325.15,299.64,330.61 M454.9,335.12c0.76,8.26,4.81,15.76,6.17,23.92c2.12,11.09,2.78,23.66-3.58,33.55
	c-2.18,3.62-5.88,5.73-9.23,8.08c4.46-0.78,9.19-1.6,12.82-4.54c5.48-4.25,7.3-11.55,7.35-18.19c0.01-11.07-3.17-21.9-7.48-32.01
	C459.18,342.2,457.77,338.18,454.9,335.12z"/>
<path fill="#FFFFFF" d="M484.22,202.72c9.37-3.34,19.94-2.12,28.73,2.33c12.31,7,17.37,21.67,29.37,29.1
	c-10.24-0.49-17.8-8.08-24.95-14.53c-6.56-6.02-15.19-11.16-24.43-9.74c-1.84,0.1-3.07,1.49-4.25,2.7c4.35,1.69,9.15,0.9,13.58,2.19
	c11.42,6.41,19.95,17.54,32.69,21.69c6.23,2.21,12.94,1.47,19.2-0.19c-13.42,6.95-29.44,7.84-44.02,4.52
	c-8.13-1.77-15.4-6.02-22.14-10.74c-3.36-2.58-7.31-5.57-7.87-10.07C481.03,214.11,485.7,208.99,484.22,202.72z"/>
<path fill="#FFFFFF" d="M417.5,222.66c4.65-1.14,10.11-1.16,14.08,1.88c2.83,2.18,3.39,6.16,2.51,9.45
	c-0.98,4.98-5.69,8.07-10.14,9.73c-4.41,1.67-10.37,1.87-13.58-2.15c-2.73-4.27-1.5-9.77,0.07-14.25
	C411.35,224.31,414.86,223.55,417.5,222.66 M422.03,223.14c-3.26,0.47-5.6,3.76-4.84,7.01c0.75,4.49,4.03,9.24,8.82,9.88
	c5.17-0.18,7.42-6.66,6.01-10.98C431.06,224.71,426.34,221.82,422.03,223.14z"/>
<path fill="#FFFFFF" d="M333.45,231.06c1.01-2.48,2.42-4.77,3.58-7.18c6.31,0.86,13.13,0.3,18.94,3.29
	c2.44,3.24,2.23,8.14-0.14,11.4c-3.46,4.82-10.12,7.3-15.84,5.57C334.75,242.59,331.22,236.21,333.45,231.06 M340.42,226.37
	c-3.52,2.52-4.87,7.62-3.23,11.59c1.68,4.04,7.81,5.07,10.77,1.87c1.77-1.8,2.5-4.4,2.52-6.87
	C351.14,227.96,344.51,224.55,340.42,226.37z"/>
<path fill="#FFFFFF" d="M288.48,258.67c5.41-1.7,11.21-0.08,15.8,2.98c-0.57,3.77-1.27,7.53-1.93,11.29
	c-4.71-8.28-17.43-8.93-23.99-2.63c-2.86,2.72-3.08,6.95-2.34,10.6c2.84-2.06,3.18-5.89,5.58-8.28c2.98-2.52,7.13-3.79,11.01-3.06
	c2.89,0.52,5.29,3.34,4.87,6.35c-0.71,4.6-4.96,8.3-4.06,13.2c0.56,4.22,3.98,7.18,7.45,9.22c0.71,2.5,1.45,5,2.21,7.5
	c-3.27,2.03-7.14,3.51-11.01,2.54c-7.33-1.63-13.22-7.11-17.32-13.17C266.51,282.39,274.06,263.06,288.48,258.67z"/>
<path fill="#FFFFFF" d="M459.07,264.29c4.74-3.75,10.71-6.44,16.89-5.5c7.81,1.02,16.14,6.68,16.71,15.14
	c0.6,9.15-3.49,17.9-8.44,25.35c-4.46,5.94-8.77,13.48-16.84,14.64c-3.46-3.33-6.42-7.18-10.3-10.04c0.08-0.61,0.26-1.84,0.35-2.45
	c3.24-0.4,7.11-0.83,8.94-3.96c3.6-6.29,1.15-14.17,4.47-20.56c2.41-4.54,8.61-5.68,13.1-3.88c1.2,0.34,1.36,1.78,1.69,2.79
	c0.75,3.23,1.25,6.53,2.5,9.63c3.37-4.15,3.2-11.13-1.41-14.31c-5.9-4.1-14.44-3.73-20.24,0.38c-3.9,2.72-5.52,7.78-4.68,12.35
	c0.72,4.55,1.93,10.28-2.58,13.33C460.21,286.24,459.82,275.25,459.07,264.29z"/>
<path fill="#FFFFFF" d="M300.79,292.74c-2.43-2.27-1.91-5.89,0.03-8.28C301.01,287.21,301,289.98,300.79,292.74z"/>
<path fill="#FFFFFF" d="M392.16,339.61c7.27,0.49,13.62-4.13,20.79-4.19c3.07-0.29,3.28,3.37,4,5.54c0.76,4.6,2.54,9.73,0.26,14.15
	c-5.07,1.91-9.84,4.77-15.19,5.85c-3.39,0.78-7.64-0.74-8.44-4.43C392.23,350.98,393.25,345.2,392.16,339.61z"/>
<path fill="#FFFFFF" d="M345.2,341.24c12.06,0.51,24.2,0.82,36.19-0.91c-1.06,7.55-0.05,15.59-3.28,22.7
	c-2.84,4.83-8.99,5.94-14.03,7.12c-5.86,1.15-13.49,1.69-17.34-3.88C342.08,358.77,344.24,349.46,345.2,341.24z"/>
<path fill="#FFFFFF" d="M341.06,382.08c10.68-8.11,24.28-11.87,37.58-11.65c-1.37,2.28-4.12,2.72-6.31,3.87
	c-14.54,6.61-29.12,15.72-36.71,30.32c-6.86,12.25-7.08,26.6-10.19,39.97c-1.42,6.3-3.89,12.49-8.23,17.37
	c0.25-5.73-0.9-11.69-4.73-16.14c-0.41,8.72-0.56,18.33-6.05,25.62c-5,6.49-14.25,6.92-21.6,5.16c-7.83-1.85-13.73-7.87-18.35-14.12
	c-3.02-4.26-7.56-7.37-9.79-12.2c-1.82-3.97-1.39-9.49,2.48-12.1c6.56-4.81,14.46-7.25,22.05-9.89c7.82-2.59,16.25-5.49,24.49-3.04
	c1.25,3.9,1.32,8.5-1.52,11.75c-5.46,6.42-14.02,8.47-21.1,12.5c11.08,2.8,20.15-5.5,27.73-12.25c0.39,0.45,1.17,1.35,1.56,1.8
	c1.98-5.27,1.84-11.17,4.53-16.2c1.92-3.38,2.37-7.3,3.65-10.92C324.36,400.32,331.22,389.48,341.06,382.08 M276.1,434.16
	c-3.93,2.55-8.8,3.63-12.03,7.21c2.65,2.52,6.42,3.19,9.97,3.09c8.02-0.41,16.02-3.16,22.51-7.93c2.83-1.73,2.94-6.95-0.52-7.97
	C288.88,426.7,282.13,430.87,276.1,434.16z"/>
<path fill="#FFFFFF" d="M355.35,388.04c8.05-3.43,15.31-10.21,24.64-9.28c2.79-0.18,4.81,2.2,5.29,4.76
	c1.22,5.57,0.48,11.32,1.24,16.95c-10.75,0.86-21.55,1.47-32.34,0.87C354.45,396.89,355,392.47,355.35,388.04z"/>
<path fill="#FFFFFF" d="M306.84,421.34c1.59,0.46,3.16,0.98,4.74,1.49c-0.35,0.6,0.07,1.95-0.99,1.93
	C309.19,423.78,308,422.57,306.84,421.34z"/>
<g id="_x23_231f20ff">
	<path fill="#231F20" d="M604.468,126.98c7.187-2.792,15.444-1.991,22.363,1.199c6.145,2.811,10.934,8.22,13.309,14.509
		c1.139,2.913,1.542,6.034,2.084,9.09v2.88c-0.764,3.293-1.093,6.692-2.297,9.873c-4.01,11.499-13.05,20.515-23.025,27.114
		c-6.446,4.385-13.439,7.919-20.696,10.744c-15.597,6.215-32.134,10.156-48.893,11.272c-2.524,0.222-4.913,1.139-7.377,1.653
		c-2.894,0.593-5.39,2.241-8.049,3.432c-6.757,3.529-13.805,6.432-20.848,9.322c-6.377,4.075-13.462,6.803-20.538,9.391
		c-9.128,3.232-18.686,5.446-28.388,5.793c-8.442,0.333-16.958-1.107-24.785-4.302c-3.603-1.51-7.076-3.557-9.665-6.53
		c-3.32-3.788-4.821-9.09-3.996-14.059c0.56-3.834,2.621-7.261,5.094-10.174c4.427-5.205,10.623-8.59,17.065-10.656
		c8.674-2.76,17.861-3.496,26.924-3.418c12.666,0.157,25.276,1.51,37.927,1.931c1.917,0.032,3.871,0.301,5.775-0.093
		c12.216-2.834,23.826-8.225,33.88-15.727c9.216-6.914,17.139-15.384,24.539-24.169c5.367-6.354,9.767-13.504,15.602-19.468
		C594.465,132.546,599.124,129.022,604.468,126.98 M595.92,140.108c-4.599,4.436-8.03,9.864-12.054,14.782
		c-9.577,11.962-20.404,23.131-33.231,31.629c-4.844,3.297-10.114,5.863-15.412,8.322c0.347,0.537,0.496,1.607,1.399,1.371
		c11.156-0.44,22.571,0.009,33.37-3.293c5.766-1.848,11.29-4.348,16.889-6.636c2.237-0.898,4.636-1.44,6.706-2.718
		c6.627-4.321,12.777-9.341,18.505-14.787c-4.9,6.719-10.748,12.832-17.621,17.56c-4.446,3.13-9.021,6.252-14.245,7.928
		c-6.821,2.899-14.05,4.816-21.404,5.742c-6.002,0.63-11.971,1.551-17.991,2.001c-19.617,1.223-39.242-0.389-58.85-1.056
		c-8.794-0.292-17.709-0.218-26.322,1.806c-5.863,1.352-11.8,3.144-16.722,6.729c-3.399,2.524-6.293,6.108-7.09,10.35
		c-0.597,3.172,1.023,6.293,3.357,8.35c-0.389-2.001-0.787-4.047-0.496-6.094c0.454-4.367,3.492-8.35,7.595-9.919
		c-0.426,0.625-0.991,1.135-1.547,1.639c-3.695,3.394-5.307,9.03-3.501,13.786c0.57,1.375,1.056,3.084,2.598,3.658
		c8.002,3.797,17.074,5.168,25.864,4.344c9.424-0.755,18.561-3.441,27.373-6.752c7.886-2.843,15.791-5.645,23.632-8.623
		c2.829-1.287,5.52-2.857,8.331-4.196c0.533-0.306,1.454-0.574,1.204-1.394c0.153-0.917-1.07-0.871-1.649-0.94
		c-12.369-0.565-24.687-2.014-37.071-2.445c-10.109-0.301-20.524,0.491-29.906,4.561c-1.69,0.676-3.228,1.695-4.955,2.274
		c0.329-0.82,1.098-1.273,1.797-1.75c12.161-8.308,27.42-10.521,41.854-9.734c11.744,0.621,23.437,1.996,35.2,2.288
		c21.58,0.676,43.146-3.932,63.031-12.189c6.048-3.394,12.142-6.817,17.597-11.142c6.34-5.006,11.211-11.6,15.342-18.482
		c2.584-4.251,4.668-8.979,4.923-14.009c0.13-1.732-0.31-3.441-0.199-5.168c0.681,3.394,0.537,6.914-0.245,10.276
		c-1.403,5.867-3.455,11.661-6.821,16.708c-1.862,2.973-4.274,5.525-6.548,8.174c3.163-2.667,6.094-5.617,8.595-8.919
		c5.298-7.039,9.618-15.731,8.484-24.78c-1.468-10.934-12.846-18.737-23.548-17.704C605.881,132.254,600.319,135.797,595.92,140.108
		z"/>
	<path fill="#231F20" d="M299.467,150.176c6.418-5.238,14.523-8.248,22.756-8.873c10.892-0.898,22.034,2.26,30.879,8.66
		c5.103,3.663,9.327,8.419,12.911,13.545c5.242,7.553,9.035,15.981,12.541,24.447c3.149,7.47,5.867,15.138,9.628,22.34
		c7.155,14.587,16.903,27.674,24.9,41.78c3.936,6.96,7.502,14.194,9.818,21.872c2.487,8.211,3.436,17.13,1.172,25.502
		c-3.658,13.846-15.81,25.215-30.082,27.262c-7.933,1.246-16.069-0.847-22.988-4.737c-4.024-2.278-7.664-5.33-10.313-9.137
		c-2.885-4.33-4.937-9.234-5.979-14.333c-0.37-2.505-1.292-4.872-2.024-7.28c-1.477,1.135-3.14,1.977-4.7,2.973
		c-0.963,1.199-1.477,2.765-1.579,4.293c0.296,2.144,0.639,4.321,0.324,6.488c-0.315,1.866,0.144,3.751-0.162,5.622
		c-0.287,2.195-0.449,4.432-0.037,6.627c2.973,0.412,5.863,2.13,7.229,4.867c1.843,3.626,1.477,7.993,0.009,11.679
		c-1.718,4.436-4.515,8.776-8.831,11.045c-3.186,1.519-7.002,1.764-10.341,0.602c-0.912-0.37-1.977,0.273-2.237,1.186
		c-0.773,1.755-1.792,3.399-2.468,5.196c-0.065,0.917,0.028,1.839,0.051,2.765c2.686,1.676,5.747,2.922,8.961,2.867
		c2.626-0.079,5.302-0.079,7.859-0.746c3.719-1.44,6.798-4.348,8.627-7.877c1.033-1.723,1.371-3.742,2.283-5.511
		c0.213,6.891-4.636,13.643-11.295,15.514c-3.056,0.801-6.141,1.681-9.327,1.639c-3.95,0.083-7.669-1.44-11.531-2.028
		c-1.815-0.282-3.543-0.991-5.113-1.926c1.866,0.463,3.663,1.181,5.529,1.644c2.172,0.329,4.344,0.704,6.53,0.908
		c-0.634-0.384-1.255-0.801-1.94-1.07c-5.131-1.653-10.225-3.969-14.268-7.585c3.26,2.57,7.067,4.307,11.063,5.386
		c-5.571-4.228-11.068-8.572-16.231-13.3c-5.71-5.316-12.263-9.665-19.274-13.068c-4.654-2.278-9.855-3.005-14.949-3.575
		c-1.088-0.13-2.153,0.194-3.223,0.333c-5.446,0.773-10.952-0.051-16.292-1.148c-3.353-0.278-6.669-1.236-9.521-3.047
		c-0.926-0.537-1.76-1.324-2.853-1.491c-3.084-0.602-6.303-0.556-9.35,0.208c-3.492,0.797-6.456,2.931-9.808,4.098
		c-3.895,1.565-8.243,2.019-12.337,0.977l0.046-0.287c4.159,1.116,8.553-0.069,12.142-2.278c3.612-2.218,7.113-4.904,11.387-5.678
		c-5.006-1.514-10.521-0.644-15.273,1.375c-3.881,1.612-7.812,3.552-12.101,3.594c-4.557,0.065-8.868-2.478-11.526-6.09
		c-4.071-5.492-5.043-13.295-2.024-19.487c0.551-0.991,1.014-2.149,2.061-2.709c-1.639,2.672-2.89,5.687-2.681,8.887
		c0.25,5.339,2.792,10.674,7.034,13.985c3.751,2.927,9.049,2.843,13.221,0.889c3.566-1.663,7.169-3.256,10.934-4.395
		c1.158-1.732,0.542-3.908,0.972-5.835c0.885-4.816,2.283-9.716,5.256-13.689c2.218-2.88,5.353-5.062,8.827-6.136
		c1.463-0.486,3.08-0.445,4.473-1.158c1.422-0.611,2.399-1.913,3.144-3.218c4.219-9.887,11.767-18.436,21.261-23.534
		c-0.157-1.672,0.222-3.316,0.445-4.964c1.121-7.961,2.172-15.958,4.112-23.77c0.324-1.116-0.528-2.116-0.852-3.135
		c-0.496-1.672-2.343-2.186-3.381-3.432c-2.408-2.667-3.607-6.159-4.594-9.549c-1.95-6.951-3.325-14.277-2.149-21.492
		c1.204-6.849,3.987-13.481,8.34-18.931c3.33-4.186,7.748-7.433,12.596-9.651c2.255-1.514,4.344-3.325,6.261-5.247
		C293.238,155.992,296.216,152.853,299.467,150.176 M298.61,167.431c-2.283,4.673-2.302,9.952-3.242,14.962
		c-3.441-1.412-3.959-5.497-5.15-8.563c-3.121,1.274-6.039,3.135-8.313,5.64c-3.913,4.302-6.678,9.637-7.984,15.301
		c-1.185,5.168-0.746,10.535,0.074,15.722c0.292,2.13,1.297,4.071,2.241,5.969c-2.283-7.627-1.385-16.208,2.292-23.238
		c-1.25,3.455-1.908,7.113-1.871,10.79c0.069,4.918,0.477,10.007,2.677,14.49c1.306-2.089,2.237-4.399,3.695-6.395
		c2.098-2.834,4.038-5.816,6.553-8.313c3.126-3.107,6.506-6.039,10.42-8.118c0.37-1.051,0.764-2.093,1.153-3.135
		c-0.533-2.464-1.084-4.932-1.561-7.4c0.208-0.028,0.621-0.079,0.829-0.107c2.2,2.584,4.673,4.932,6.766,7.622
		c1.528,2.01,3.899,3.038,6.247,3.751c-1.236-1.158-2.528-2.255-3.635-3.543c-2.848-3.001-4.288-7.058-4.881-11.082
		c1.065,1.329,1.769,2.913,2.927,4.177c4.066,4.636,8.762,9.197,14.861,10.915c2.843,1.037,5.881,0.292,8.776-0.097
		c4.798-0.713,9.095-3.163,13.814-4.191c1.297-0.278,2.371-1.385,3.779-1.209c1.723,0.037,3.112,1.612,3.089,3.311
		c0.357,8.15,1.769,16.204,3.478,24.169c3.297,16.074,8.104,31.995,15.935,46.485c3.547,6.303,7.604,12.332,12.165,17.945
		c2.112,2.885,4.098,5.891,6.724,8.35c-0.31,0.194-0.718,1.042-1.158,0.505c-3.269-2.329-6.826-4.27-9.808-6.979
		c-2.172-2.089-4.214-4.325-6.057-6.71c-0.482,0.301-0.968,0.588-1.463,0.857c2.589,5.251,4.974,10.734,8.938,15.129
		c0.949,1.098,2.149,1.954,3.043,3.103c-6.613-3.621-10.989-10.119-14.796-16.426c-1.94,1.329-4.052,2.376-6.006,3.672
		c-1.686,1.801-2.028,4.367-2.468,6.696c-0.134,1.227-0.607,2.519-0.125,3.728c1.547,4.552,3.617,9.053,6.909,12.624
		c7.933,8.521,21.71,11.897,32.157,6.113c-8.285,1.486-17.449-0.616-23.775-6.27c2.64,1.737,5.363,3.432,8.442,4.284
		c7.02,2.163,14.935,1.315,21.307-2.362c1.361-0.773,2.306-2.056,3.279-3.246c2.014-2.63,3.668-5.59,4.589-8.78
		c0.528-3.936,0.269-7.974-0.621-11.841c-1.533-6.479-3.89-12.814-7.386-18.501c-0.412-0.13-1.542-1.547-0.81-1.473
		c3.487,4.923,6.956,9.956,9.151,15.62c-0.384-2.691-1.255-5.289-2.126-7.854c-4.867-13.481-13.485-25.09-20.621-37.395
		c-2.547-4.145-4.626-8.549-7.164-12.689c1.431,5.904,2.788,11.869,5.122,17.5c2.529,6.298,6.97,11.531,10.304,17.38
		c-0.069,0.176-0.204,0.528-0.269,0.709c-4.362-2.454-7.28-6.752-9.776-10.966c-3.932-6.886-7.951-13.786-10.684-21.261
		c-3.186-8.873-5.326-18.098-6.798-27.406c-0.185-1.843-1.135-3.464-1.811-5.154c-3.941-9.234-7.877-18.653-14.11-26.628
		c-5.029-6.405-11.749-11.675-19.538-14.235c-8.257-1.718-17.667,0.148-23.696,6.33c-1.783,1.709-2.955,3.895-4.274,5.951
		c1.079-4.534,3.57-8.97,7.567-11.545c1.135-0.746,2.394-1.269,3.58-1.926C310.697,153.575,302.157,159.016,298.61,167.431
		 M323.585,205.145c-5.196-0.051-10.614-0.658-15.25-3.186c-2.788,2.227-5.955,4.01-8.368,6.673
		c-2.422,2.686-4.478,5.668-6.604,8.586c-0.366,0.514-0.834,0.949-1.366,1.292c0.352-1.436,1.352-2.566,2.056-3.834
		c2.654-4.399,5.238-9.095,9.479-12.179c1-0.792,2.362-1.098,3.168-2.135c-2.065-0.088-4.094,0.505-6.053,1.088
		c-3.487,1.172-5.353,4.561-7.683,7.15c-2.445,3.422-4.839,7.044-5.918,11.165c-4.626,12.003-6.085,24.891-8.331,37.478
		c8.396-1.755,17.222-0.759,25.234,2.19c7.067,2.621,13.786,6.164,19.973,10.47c5.529,3.89,10.702,8.368,14.907,13.684
		c4.83-2.853,9.734-5.594,14.314-8.845c1.107-0.773,2.126-1.69,3.344-2.306c-4.251,5.58-10.151,9.6-15.787,13.657
		c0.746,1.162,1.473,2.339,2.139,3.552c5.983-6.233,14.208-9.54,20.834-14.958c1.181-1.686,1.607-3.839,1.871-5.853
		c0.241-2.352-1.366-4.205-2.352-6.168c-7.757-14.37-12.425-30.189-15.537-46.156c-1.125-5.946-2.63-11.86-2.843-17.931
		C338.894,203.371,331.031,204.95,323.585,205.145 M273.034,265.023c3.783,0.018,7.849,0.361,10.994,2.691
		c1.991,1.417,3.029,4.089,2.325,6.46c-0.181,0.079-0.546,0.241-0.727,0.32c-1.385-0.472-2.237-1.829-3.459-2.589
		c-1.764-1.357-4.103-1.385-6.224-1.241c-6.659,0.583-13.369,2.681-18.542,7.044c-1.727,1.848-3.015,4.047-4.529,6.062
		c-0.815,1.051-1.436,2.306-1.588,3.635c1.023,1.292,2.964,1.311,4.316,2.177c0.157-2.681,1.741-5.006,3.589-6.849
		c2.01-1.964,4.515-3.834,7.465-3.756c3.256-0.088,6.303,1.514,8.424,3.922c-0.315-2.26-1.172-4.599-3.005-6.062
		c-1.593-1.292-3.783-1.63-5.756-1.209c0.5-0.648,1.454-0.496,2.172-0.648c2.533-0.315,5.219,0.778,6.636,2.936
		c2.153,3.168,2.163,7.21,1.954,10.887c-0.333,3.992-1.348,8.456-4.807,10.92c1.079,1.422,2.167,2.904,2.598,4.673
		c-1.223-0.82-2.144-2.01-3.385-2.792c-3.742-2.436-8.34-2.941-12.693-3.093c-3.422-0.088-7.169,0.773-9.47,3.496
		c-2.075,2.528-3.515,5.932-2.755,9.234c0.741,2.996,3.181,5.381,6.076,6.349c4.858,1.755,9.924,2.917,15.027,3.723
		c3.584,0.482,7.354,0.801,10.846-0.357c2.251-0.727,4.247-2.519,4.774-4.886c0.241-0.769,0.204-1.686,0.88-2.237
		c0.797,3.348,0,7.104-2.644,9.433c5.015-0.153,9.632,2.172,14.05,4.26c7.224,3.473,13.365,8.706,19.348,13.944
		c1.315-0.829,2.186-2.366,3.07-3.658c1.621-2.908,3.126-6.381,1.954-9.72c-1.709-5.432-5.437-10.452-10.679-12.892
		c4.219,0.986,7.748,3.904,10.197,7.4c-0.935-2.542-2.765-4.626-4.673-6.488c-4.219-4.015-9.994-6.34-15.833-6.205
		c0.148-0.486,0.482-0.713,0.996-0.667c5.988-0.658,12.369,0.38,17.366,3.899c5.011,3.473,8.118,9.373,8.456,15.426
		c0.445,6.233-2.042,12.624-6.724,16.792c2.112,1.908,3.964,4.131,6.335,5.733c2.209-3.566,2.95-8.002,5.946-11.082
		c1.542-1.625,2.394-3.746,3.774-5.492c-0.222,2.195-0.773,4.353-1.607,6.4c2.709,1.811,6.437,2.644,9.415,0.982
		c5.108-3.005,8.363-8.831,8.576-14.722c0.181-2.802-1.663-5.497-4.335-6.335c-2.19-0.741-4.585,0.014-6.418,1.283
		c-2.334,2.737-4.45,5.775-5.154,9.387c-1.167-0.537-1.82-1.658-2.528-2.654c-1.269-1.811-3.015-3.209-4.358-4.95
		c2.241,1.436,4.835,2.353,6.701,4.325c1-3.802,2.987-7.511,6.053-10.035c1.338-2.306,1.574-5.08,1.542-7.697
		c-0.019-3.825-1.51-7.4-2.366-11.073c-0.366,9.188-5.048,17.82-11.915,23.798l-0.551-0.12l0.005-0.533
		c2.348-3.311,4.825-6.581,6.465-10.327c1.991-4.297,2.834-9.026,3.246-13.712c0.347-3.473-0.871-6.812-2.019-10.021
		c-3.654-5.344-8.785-9.475-13.939-13.305c-7.822-5.585-16.62-9.998-26.058-12.017C288.302,261.568,280.151,261.799,273.034,265.023
		 M261.669,282.884c-2.139,1.778-4.172,4.339-3.848,7.289c0.014,1.144,1.283,1.524,1.973,2.223c0.797,0.764,1.788,1.218,2.871,1.417
		c-0.088-1.07-0.083-2.139-0.042-3.205c0.57,1.116,1.246,2.45,2.667,2.579c2.126,0.412,4.006-2.079,2.987-4.006
		c-0.579-1.366-2.172-1.825-3.533-1.565c2.978-2.603,7.761-1.829,10.332,0.986c-0.199-3.469-2.603-7.02-6.187-7.604
		C266.333,280.309,263.605,281.138,261.669,282.884 M243.993,292.215c1.584,0.069,3.288,0.273,4.534,1.348
		c-3.357-0.658-7.497-0.972-10.058,1.76c-3.594,3.654-5.423,8.808-5.844,13.846c-0.195,1.422-0.065,3.2,1.195,4.112
		c2.519,0.394,5.066,0.815,7.4,1.899c-2.269-5.242-0.908-11.494,2.626-15.838c3.084-3.946,8.067-6.168,13.036-6.233
		C252.921,291.197,248.152,290.511,243.993,292.215z"/>
	<path fill="#231F20" d="M451.773,251.093c5.691-3.871,14.476-1.788,17.811,4.251c2.482,3.913,2.186,8.845,0.922,13.119
		c-0.894,2.241-2.227,4.279-3.302,6.437c2.288,0.685,4.548-0.454,6.669-1.204c8.729-3.705,16.213-9.655,24.025-14.916
		c4.51-3.098,9.067-6.789,14.694-7.437c2.955-0.38,6.747,1.116,7.011,4.483c2.704-1.463,6.409-1.213,8.488,1.199
		c2.093,2.519,1.612,6.358-0.139,8.928c2.26-0.241,4.876,0.046,6.303,2.056c1.621,2.075,0.505,4.904-0.968,6.729
		c-1.653,1.899-3.144,3.959-5.057,5.613c-2.681,2.445-5.789,4.358-8.447,6.821c-2.352,2.005-4.455,4.478-7.4,5.631
		c-1.102,0.449-2.237,0.815-3.39,1.098c0.134-0.421,0.398-1.26,0.533-1.681c5.441-3.223,10.596-6.919,15.537-10.859
		c2.681-2.121,4.645-4.946,6.692-7.641c0.704-1.352,1.26-3.399-0.018-4.594c-1.366-1.01-3.26-1.195-4.839-0.607
		c-3.219,1.047-6.071,2.955-8.664,5.094c-4.297,3.552-8.289,7.456-12.439,11.179c-1.125,1.01-2.376,1.866-3.677,2.63
		c1.741,2.329,3.487,4.728,4.529,7.46l-0.023,0.806c-0.718-0.556-1.278-1.26-1.806-1.977c-5.187-6.877-12.013-12.365-19.431-16.662
		c-0.046-0.218-0.139-0.644-0.181-0.857c2.269,0.394,4.358,1.403,6.418,2.394c3.936-2.834,7.868-5.728,11.304-9.178
		c4.46-4.335,9.169-8.414,14.184-12.096c-0.361-1.324-1.093-2.904-2.612-3.117c-2.644-0.107-5.043,1.195-7.271,2.45
		c-1.792,1.074-3.57,2.186-5.182,3.52c-5.409,4.964-11.531,9.132-18.033,12.522c-4.761,2.575-9.827,5.376-15.421,5.099
		c-1.778-0.042-3.172-1.422-3.932-2.917c-0.116-3.181,2.116-5.779,2.908-8.748c0.621-3.339-0.102-7.025-2.403-9.6
		c-1.783-1.987-4.131-3.538-6.729-4.191c-3.033-0.273-6.233,0.199-8.877,1.783C449.416,252.686,450.828,251.889,451.773,251.093
		 M508.733,265.977c-3.473,3.14-7.141,6.094-10.193,9.665c-1.403,1.686-3.191,2.964-5.029,4.122
		c2.635,1.588,4.955,3.645,7.058,5.881c3.983-2.223,7.081-5.636,10.512-8.572c4.279-3.719,8.836-7.155,13.833-9.855
		c1.107-1.862,2.005-4.043,2.135-6.238c-0.056-2.566-3.14-3.751-5.312-3.098C516.74,259.276,512.508,262.527,508.733,265.977z"/>
	<path fill="#231F20" d="M447.323,254.2c4.214,0.722,7.159,4.927,7.141,9.086c0,3.932-1.223,8.09-4.066,10.915
		c-1.195,1.311-3.219,1.338-4.335,2.718c-4.084,4.645-6.446,10.767-6.571,16.954c-0.102,4.186,0.648,8.326,1.19,12.466
		c0.264,2.714,2.339,4.714,3.172,7.224c-0.746-0.408-1.417-0.898-2.038-1.463c0.329,2.112-0.296,4.182-1.098,6.113
		c-2.102,5.219-4.367,10.369-6.696,15.486c1.028,3.376,4.14,5.293,6.446,7.724c3.084,3.2,6.368,6.215,9.984,8.808
		c1.139-1.917,2.487-3.77,3.093-5.941c1.098-3.922,3.311-7.391,4.802-11.156c1.07-2.667,2.153-5.353,3.746-7.761
		c0.708-0.963,0.861-2.167,1.047-3.311c-1.153-0.986-2.454-1.959-2.922-3.473c4.362,1.218,8.794,2.732,13.406,2.209
		c11.258-1.019,21.918-5.696,31.3-11.841c2.765-1.732,4.983-4.381,8.178-5.363c2.079-0.986,4.001-2.302,6.205-3.029
		c6.006-2.121,12.031-4.483,17.236-8.229c2.089-1.537,2.524-4.399,1.931-6.78c-3.654-1.204-7.437,0.19-10.744,1.741
		c-5.043,2.422-10.086,4.95-15.518,6.405c0.13-0.213,0.389-0.63,0.514-0.843c3.686-0.792,7.104-2.487,10.508-4.066
		c3.584-1.621,6.71-4.145,10.452-5.437c2.102-0.718,4.603-0.912,6.544,0.357c2.278,1.38,3.26,4.552,2.047,6.946
		c-1.528,3.168-4.524,5.242-7.507,6.9c-5.228,2.825-10.994,4.423-16.5,6.581c-6.062,3.126-10.771,8.28-16.731,11.568
		c-6.377,3.524-12.851,7.071-19.931,8.975c-4.534,1.195-9.429,1.889-13.976,0.375c-4.497,3.969-5.863,10.044-7.72,15.481
		c4.103,3.256,7.646,7.146,10.91,11.23c2.885,3.645,6.201,6.993,8.428,11.11c0.996,1.774,2.575,3.77,1.621,5.904
		c-1.074,2.181-3.144,3.621-4.705,5.427c-2.172,2.019-3.76,4.534-5.603,6.835c-4.26,5.594-8.729,11.026-13.332,16.342
		c-6.743,7.752-13.476,15.518-20.496,23.02c-10.082,10.67-21.279,20.709-34.699,26.957c-14.101,6.673-30.133,9.007-45.573,6.928
		c-6.844-0.792-13.439-2.843-19.908-5.131c0.695,9.554,1.723,19.103,3.617,28.499c1.375,6.882,3.251,13.647,5.224,20.381
		c-2.343,0.171-4.687,0.357-7.034,0.505h-0.783c-3.566-8.549-6.516-17.357-8.632-26.378c-0.884-3.584-1.371-7.252-2.431-10.79
		c-2.223-8.099-2.857-16.532-2.714-24.9c0.111-1.848,0.797-3.589,1.176-5.381c0.611,1.926,1.375,3.927,2.959,5.284
		c2.515,2.2,5.895,2.834,8.989,3.834c4.886,1.329,9.693,2.996,14.708,3.807c8.331,1.482,16.889,1.366,25.238,0.088
		c-5.455-0.037-10.836-0.903-16.227-1.676c0.852-0.44,1.811-0.634,2.76-0.431c3.557,0.463,7.141,0.176,10.707-0.028
		c7.798-0.491,15.611-1.644,23.043-4.122c3.885-1.672,7.53-3.862,11.04-6.21c10.586-7.266,19.519-16.611,28.04-26.137
		c8.34-9.577,17.269-18.63,25.229-28.531c3.191-3.811,5.677-8.234,9.53-11.457c-1.436-0.514-2.857-1.047-4.223-1.713
		c-6.983-3.445-13.953-7.081-20.057-11.966c-1.639-1.38-3.64-2.214-5.39-3.427c-3.825-2.598-7.386-5.696-9.97-9.563
		c-0.496,1.825-1.13,3.607-1.922,5.321c-3.297,7.03-6.719,14.022-10.781,20.649c-2.904,4.362-4.788,9.29-7.553,13.735
		c-2.32,4.14-4.7,8.368-8.206,11.642c-1.514,1.449-3.649,2.246-4.816,4.057c-0.63,0.954,0.37,1.825,0.834,2.598
		c5.752,2.464,10.475,7.738,11.559,13.995c-2.927-2.802-5.71-5.784-8.85-8.35c-2.445-1.829-5.849-3.77-8.813-1.894
		c-1.463,0.644-1.366,2.422-1.167,3.756c4.01,1.278,7.497,3.904,10.174,7.118c2.26,2.742,3.163,6.391,2.908,9.901
		c-0.496-0.542-0.908-1.13-1.246-1.764c-2.853-5.488-7.683-10.239-13.768-11.874c1.399,1.148,2.955,2.167,3.992,3.691
		c2.695,3.723,4.686,7.923,6.321,12.202c-1.612-2.691-3.237-5.404-5.376-7.724c-1.783-1.903-3.515-4.08-6.057-4.978
		c-2.056-0.727-4.163-1.306-6.127-2.269c-5.83,1.774-12.017,1.917-18.061,1.709c-4.886-0.338-9.78-0.699-14.62-1.482
		c-4.497-0.718-8.762-2.38-12.934-4.145c-3.218-1.357-6.678-2.278-9.554-4.321c-2.283-1.63-3.399-4.297-5.238-6.34
		c-1.148,3.385-4.812,4.501-7.757,5.798c-3.978,2.093-8.396,3.186-12.823,3.802c-6.803,1-13.67,0.324-20.496,0.032
		c-4.08-0.421-8.206,0.283-12.258-0.491c-1.741,3.927-3.834,7.748-4.807,11.971c-1.681,7.146-2.927,14.43-3.089,21.784
		c-0.301,7.743,1.07,15.402,1.834,23.081c0.917,8.025,2.024,16.199,5.414,23.618c0.769,1.774,1.917,3.357,2.635,5.159
		c-1.399-0.922-2.195-2.436-3.098-3.788c-4.978-7.822-7.146-17.023-8.498-26.086c-1.417-9.868-2.616-19.894-1.426-29.856
		c0.75-4.756,0.528-9.66,2.061-14.277c1.098-3.07,1.621-6.321,3.005-9.285c-3.501-0.824-6.993-2.556-10.67-1.579
		c-1.426,0.537-2.783,1.26-4.237,1.732c-8.354,2.663-16.356,6.298-24.345,9.878c-4.172,2.056-8.118,4.524-12.156,6.821
		c-4.339,2.459-8.771,4.765-13.013,7.4c-4.061,2.417-7.724,5.418-11.216,8.586c4.214-4.997,9.544-8.878,14.708-12.823
		c-9.688,4.964-19.116,10.433-28.355,16.185c-1.459-1.19-2.834-2.478-4.26-3.709c5.02-4.284,10.54-7.947,15.972-11.684
		c11.749-8.099,24.627-14.342,37.46-20.501c8.326-3.816,16.657-7.812,25.475-10.355c0.352-0.778,0.982-1.556,0.773-2.459
		c-0.171-1.056-1.255-1.514-2.047-2.042c-6.979-4.145-12.48-11.059-14.143-19.084c-1.63-8.007-0.551-16.208-1-24.298
		c-0.176-2.616-0.653-5.224-0.421-7.854c-10.577-1.537-21.441-4.747-29.559-12.008c-5.696-5.261-9.581-12.647-10.04-20.441
		c-0.329-5.363,1.236-10.985,4.867-15.027c2.079-2.334,5.163-3.807,8.326-3.547c-0.959,1.047-2.464,1.125-3.64,1.811
		c-3.918,2.07-6.469,6.113-7.516,10.332c-1.223,4.733-0.329,9.813,1.783,14.157c2.885,5.057,7.743,8.887,13.309,10.572
		c-2.654-0.32-5.196-1.223-7.521-2.528c2.575,2.691,5.673,4.987,9.299,6.02c9.313,3.038,19.774,2.158,28.577-2.07
		c0.597-0.245,1.218-0.417,1.866-0.514c-0.31,0.491-0.709,0.884-1.195,1.181c-4.2,2.227-8.817,3.533-13.494,4.284
		c6.465,0.662,13.476,0.773,19.214-2.741c1.348-0.662,2.325-2.042,3.802-2.385c0.611,0.894-0.56,1.357-1.093,1.875
		c-6.224,4.552-14.11,5.766-21.599,6.502c6.618,1.241,13.522,1.801,20.144,0.259c3.978-0.889,7.511-3.117,11.475-4.043
		c0.667-0.333,1.181,0.403,1.426,0.912c-0.366,1.204-1.681,1.69-2.57,2.445c4.395,1.565,8.766,3.561,13.518,3.649
		c-0.704-1.977-1.301-4.006-1.436-6.108c1.556,2.2,2.728,4.663,4.487,6.724c2.079,2.353,3.746,5.238,6.71,6.599
		c-2.742-3.339-5.326-6.937-6.752-11.049c2.153,2.755,3.783,5.909,6.159,8.512c4.64,5.668,10.98,9.674,17.755,12.304
		c-4.724-4.223-8.47-9.66-10.466-15.685c3.172,2.982,4.367,7.405,7.335,10.549c4.117,4.08,9.322,6.96,14.814,8.739
		c-2.843-2.033-5.775-4.006-8.164-6.581c-2.098-2.228-3.432-5.02-4.853-7.701c2.098,2.728,4.77,4.904,7.243,7.271
		c4.288,4.034,9.493,7.081,15.111,8.822c2.862,0.611,5.779,0.908,8.674,1.301c4.816,0.435,9.679,1.255,14.495,0.347
		c3.251-0.653,6.78-1.329,9.262-3.7c3.469-3.075,6.923-6.659,8.072-11.29c0.699-2.491-0.06-5.015-0.908-7.354
		c2.718,2.139,3.357,6.113,2.417,9.303c-1.445,4.876-5.289,8.604-9.415,11.364c-5.39,4.27-12.545,5.492-19.255,5.089
		c-1.542,0.051-3.455-0.634-4.626,0.727c-1.269,3.422-1.903,7.057-2.806,10.596c-0.94,4.297-2.478,8.475-2.904,12.874
		c1.227,0.431,2.292,1.204,3.084,2.232c1.63,2.089,3.709,3.797,5.979,5.15c1.899,1.162,4.154,1.398,6.233,2.079
		c3.274,1.019,6.469,2.32,9.831,3.047c5.163,1.162,10.466,1.51,15.731,1.876c6.386,0.352,12.976,0.445,19.093-1.681
		c1.936-0.704,3.922-1.306,5.775-2.218c0.746-0.949,1.241-2.107,2.209-2.871c1.125-1.01,2.607-1.417,3.936-2.065
		c0.611-1.246,0.834-2.686,1.774-3.751c3.219-3.839,6.229-7.882,8.586-12.314c2.547-5.089,5.085-10.188,7.961-15.101
		c3.538-5.983,7.099-11.966,9.975-18.301c1.663-3.7,2.487-7.734,4.436-11.309c0.996-1.875,2.519-3.376,3.774-5.066
		c0.588-0.94,1.676-1.306,2.612-1.788c0.245-2.177,0.945-4.251,1.815-6.247c1.848-4.242,2.385-8.915,4.219-13.166
		c-2.931-6.178-3.733-13.295-2.079-19.945c1.135-4.418,2.894-9.081,6.752-11.827c1.334-1.116,3.172-1.649,4.145-3.163
		c1.899-2.788,3.39-5.895,4.112-9.202c0.472-2.329,0.533-4.937-0.75-7.025C449.995,256.025,448.406,255.363,447.323,254.2
		 M250.263,337.978c0.028,2.288-0.232,4.58-0.051,6.868c0.079,0.644,0.097,1.399,0.662,1.843c2.005,1.75,4.58,2.626,6.946,3.77
		c4.946,2.278,10.257,3.598,15.578,4.645c2.056,0.389,4.135,0.834,6.242,0.699c2.223-0.167,4.821-0.375,6.085-2.501
		c-3.996-2.255-7.4-5.367-10.716-8.493c-1.093-1.246-1.903-2.714-2.978-3.973c-1.973,1.042-4.279,0.542-6.307-0.028
		c-3.538-1.079-7.238-2.441-9.711-5.33C254.163,336.454,252.199,337.182,250.263,337.978 M237.283,342.007
		c1.496,8.586,0.028,17.357,1.07,25.984c0.917,7.118,5.117,13.74,11.239,17.509c7.122,4.348,15.907,6.02,24.099,4.307
		c6.423-1.343,12.916-3.265,18.315-7.122c1.431-0.959,2.561-2.278,3.946-3.288c-1.167,4.21-4.256,7.618-7.748,10.114
		c-7.442,5.131-16.769,7.266-25.729,6.534c-1.473-0.32-2.01,1.839-1.116,2.732c1.084,1.19,2.792,1.301,4.265,1.663
		c0.496-0.602,1-1.737,1.973-1.375c1.514,0.435,3.038,0.885,4.636,0.871c4.01-0.014,7.984,0.625,11.989,0.861
		c6.057,0.426,12.235,0.315,18.13-1.274c2.598-0.718,5.261-1.125,7.905-1.63c2.681-0.621,5.446-1.996,6.798-4.506
		c0.588-2.589,0.699-5.275,1.44-7.836c0.57-6.405,1.278-12.842,3.005-19.052c-0.375-0.593-0.755-1.176-1.139-1.75
		c-9.41-1.51-18.876-3.547-27.508-7.715c-1.825-0.426-3.788-0.213-5.627,0.083c-3.195,1.088-6.317,2.436-9.637,3.14
		c-6.104,1.361-12.633,1.223-18.57-0.824c-6.113-2.339-10.22-8.081-12.499-13.999c-0.653-2.065-1.746-4.038-3.459-5.4
		c-0.236,0.935-0.357,1.908-0.139,2.871c0.685,3.566,1.019,7.192,1.82,10.739c-2.19-3.746-2.616-8.192-4.395-12.105
		c-0.347-0.57-0.579-1.588-1.44-1.463C238.269,340.571,237.311,341.118,237.283,342.007 M459.145,342.178
		c-1.95,3.441-3.168,7.257-4.159,11.073c3.996,2.621,8.234,4.839,12.49,7.007c2.542,1.273,5.214,2.417,8.076,2.7
		c-1.616-3.107-3.751-5.9-5.853-8.688c-3.13-4.247-6.465-8.354-10.174-12.115C459.433,342.16,459.238,342.174,459.145,342.178
		 M250.865,348.018c2.427,4.83,6.729,8.84,12.054,10.165c5.191,1.602,10.748,0.926,15.833-0.736
		c-5.02-0.792-9.822-2.45-14.597-4.126C259.581,351.94,255.033,350.38,250.865,348.018z"/>
	<path fill="#231F20" d="M296.827,275.618c1.718-2.121,3.992-4.154,6.835-4.409c3.408-0.412,6.692,1.199,9.299,3.26
		c4.172,3.464,7.113,8.132,9.521,12.934c0.922,1.899,1.713,4.182,0.824,6.247c-0.551,1.236-2.241,1.287-3.228,0.56
		c-2.218-1.473-3.001-4.177-4.325-6.344c-2.431-4.575-5.65-9.123-10.535-11.281C302.611,275.317,299.647,275.248,296.827,275.618z"
		/>
	<path fill="#231F20" d="M466.069,281.402c0.162-0.185,0.496-0.546,0.662-0.732c3.001,0.671,4.677,3.853,4.853,6.733
		c0.412,5.738-3.066,11.207-7.794,14.231c-0.449,0.347-1.01,0.426-1.537,0.551c3.908-2.88,5.478-7.845,6.252-12.434
		C469.037,286.714,467.685,283.861,466.069,281.402z"/>
	<path fill="#231F20" d="M510.493,294.077c-0.366-0.63,1.547-1.199,1.463-0.37C511.521,294.063,511.035,294.183,510.493,294.077z"/>
	<path fill="#231F20" d="M509.493,294.026C509.618,294.156,509.618,294.156,509.493,294.026z"/>
	<path fill="#231F20" d="M295.781,298.805c4.075-0.963,8.336-0.357,12.309,0.783c2.352,0.736,4.835,1.931,6.034,4.21
		c0.343,0.514,0.083,1.449-0.63,1.449c-2.839-1-5.423-2.635-8.34-3.408c-4.571-1.148-9.345-1.343-14.009-0.755
		C292.224,299.653,294.155,299.31,295.781,298.805z"/>
	<path fill="#231F20" d="M474.937,302.065c4.964-2.135,10.558-4.108,15.967-2.51c-0.343,0.82-1.311,0.482-1.982,0.588
		c-5.423-0.018-10.772,1.236-15.782,3.265C473.284,302.533,474.279,302.422,474.937,302.065z"/>
	<path fill="#231F20" d="M322.515,301.153c2.968-0.533,6.724-0.357,8.613,2.371c-2.116-0.685-4.316-1.241-6.557-1.07
		c-1.741-0.023-3.408,0.625-5.14,0.625l-0.329-0.551C319.931,301.551,321.352,301.477,322.515,301.153z"/>
	<path fill="#231F20" d="M319.537,305.099c2.607-0.38,5.39,0.116,7.798,1.172c1.079,0.537,2.663,1.95,1.806,3.218
		C326.141,307.622,322.95,306.071,319.537,305.099z"/>
	<path fill="#231F20" d="M318.986,307.747c2.547,1.199,4.492,3.501,5.427,6.136c0.329,0.922,0.153,1.917-0.352,2.746
		c-0.671-1.287-0.917-2.741-1.635-4.001C321.427,310.901,320.19,309.331,318.986,307.747z"/>
	<path fill="#231F20" d="M340.775,329.957c-1.931-2.468,0.218-6.502,3.246-6.669c3.7-0.542,7.257,3.482,5.881,7.062
		c-1.241,3.126-3.927,5.386-6.446,7.493c1.741-2.473,3.645-4.918,4.654-7.808c0.829-2.163-0.996-4.654-3.209-4.858
		c-1.186-0.028-2.635,0.648-2.792,1.954c-0.144,2.158,1.519,4.348,0.389,6.437c-0.926,1.598-2.783,2.95-4.7,2.575
		c0.273-1.473,2.218-0.894,3.005-1.94C342.155,333.097,341.779,331.157,340.775,329.957z"/>
	<path fill="#231F20" d="M245.952,355.83c0.5,0.153,0.843,0.477,1.023,0.977c1.255,2.579,1.463,5.71,3.533,7.859
		c2.63,2.732,6.451,3.816,10.068,4.52c3.223,0.593,6.594,1.042,9.822,0.232c2.862-0.722,5.386-2.283,7.998-3.594
		c0.607-0.533,1.774-0.273,1.25,0.709c-3.881,5.201-10.947,6.854-17.13,6.145c-5.154-0.644-10.466-2.579-13.976-6.562
		C246.244,363.217,246.554,359.285,245.952,355.83z"/>
	<path fill="#231F20" d="M270.125,426.697c-0.565-3.848,2.848-7.812,6.761-7.692c1.436,0,2.718,0.973,3.404,2.19
		c-0.333,0.783-1.01-0.009-1.5-0.065c-3.274-1.403-7.391,2.209-6.391,5.65c0.528,1.76,2.061,3.381,3.996,3.441
		c1.565,0.042,2.797-1.07,4.149-1.69c0.093,1.408-1.311,2.265-2.473,2.663C274.849,432.074,270.857,430.073,270.125,426.697z"/>
	<path fill="#231F20" d="M239.51,419.904c0.824-0.922,1.236,0.685,0.648,1.213c-3.353,7.465-5.015,15.518-7.414,23.307
		c-2.45,8.627-4.622,17.412-5.275,26.378c1.621-8.664,3.848-17.232,6.877-25.512c1.954-4.904,4.256-9.674,6.733-14.333
		c-2.13,6.604-3.811,13.342-5.965,19.936c-2.76,8.776-4.812,17.778-6.025,26.901c-3.626-1.649-7.187-3.436-10.73-5.251
		c0.621-4.057,1.389-8.09,2.204-12.11c-4.367,1.366-7.873,4.455-11.684,6.854c-2.371-1.431-4.756-2.834-7.081-4.339
		c6.456-5.191,13.42-10.142,21.506-12.369c2.232-6.817,4.765-13.62,8.706-19.654C234.421,427.188,236.949,423.53,239.51,419.904z"/>
	<path fill="#231F20" d="M346.651,438.307c4.64,1.079,9.192,2.542,13.897,3.362c-0.046,0.185-0.13,0.551-0.171,0.736
		c-4.288-0.75-8.59-1.621-12.61-3.33C347.332,438.904,346.961,438.645,346.651,438.307z"/>
	<path fill="#231F20" d="M269.338,451.991c-1.186-3.589,2.051-7.502,5.645-7.766c1.825-0.162,3.566,0.972,4.353,2.593
		c-1.593-0.213-3.191-1.088-4.798-0.528c-2.607,0.736-4.108,4.27-2.459,6.525c1.63,1.741,4.228,0.732,6.289,0.769
		c-0.195,1.195-1.542,1.371-2.51,1.625C273.307,455.752,270.264,454.557,269.338,451.991z"/>
	<path fill="#231F20" d="M276.919,470.237c2.019-1.037,4.233-0.079,5.853,1.236c-2.001-0.509-4.506-0.5-6.016,1.098
		c-1.848,2.362,0.959,6.155,3.765,5.321c1.778-0.301,2.774-1.936,4.265-2.751c-0.185,3.473-4.441,5.4-7.423,4.043
		C273.751,477.85,273.154,471.756,276.919,470.237z"/>
</g>
</svg>
