<?xml version="1.0" encoding="utf-8"?>
<!-- Generator: Adobe Illustrator 17.0.0, SVG Export Plug-In . SVG Version: 6.00 Build 0)  -->
<!DOCTYPE svg PUBLIC "-//W3C//DTD SVG 1.1//EN" "http://www.w3.org/Graphics/SVG/1.1/DTD/svg11.dtd">
<svg version="1.1" id="Layer_1" xmlns="http://www.w3.org/2000/svg" xmlns:xlink="http://www.w3.org/1999/xlink" x="0px" y="0px"
	 width="800px" height="600px" viewBox="0 0 800 600" enable-background="new 0 0 800 600" xml:space="preserve">
<path fill="#FFFFFF" d="M358.72,150.35c15.93-4.8,33.31-3.15,48.92,2.16c9.42,3.42,18.75,8.14,25.65,15.57
	C410.52,155.64,384.3,151.75,358.72,150.35z"/>
<path fill="#FFFFFF" d="M348.51,154.71c8.49-1.13,17.08-0.43,25.55,0.49c18.93,2.24,37.98,6.22,55.11,14.86
	c7,3.79,14.47,8.06,18.33,15.34c1.69,2.49,2.92,5.26,3.57,8.21c-18.59-7.15-38.1-12.04-57.94-13.92c-6.11-0.5-12.28-1.03-18.39-0.33
	c25.69,4.71,52.34,7.47,76.21,18.82c0,1.78,0,3.55,0.02,5.33c-23.7-6.72-48.45-9.14-73.02-8.85c-21.91,0.37-44.02,2.75-64.89,9.7
	c0.21-1.52,0.45-3.02,0.67-4.52c15.52-8.71,33.84-9.76,51.25-9.46c19.1,0.45,38.1,2.73,57.2,3.29c-16.2-3.2-32.69-4.98-49.16-6.07
	c-19.54-0.92-39.92-0.55-58.16,7.38c3.89-11.48,9.07-22.9,17.41-31.85c17.65-2.77,35.51,0.76,53.11,2.47
	c-15.61-5.34-32.41-8.73-48.88-5.78C339.67,156.59,344.17,155.34,348.51,154.71z"/>
<path fill="#FFFFFF" d="M479.28,191.94c4.97-3.17,11-4.82,16.87-3.56c10.75,2.01,19.9,9.16,30.89,10.25
	c3.81,0.49,7.59-0.42,11.23-1.46c-4.71,4.49-10.47,9.33-17.43,8.67c-4.56-1.53-7.7-5.63-12.18-7.36c-8.23-3.23-17.9-3.6-25.96,0.3
	C481.65,196.45,480.45,194.2,479.28,191.94z"/>
<path fill="#FFFFFF" d="M461.44,188.46c5.18-0.84,10.93,0.59,14.14,5c5.67,7.53,6.3,19.26,0.23,26.73
	c-0.45-6.61,0.28-13.56-2.32-19.81c-0.77-2.18-2.77-3.38-4.74-4.31c3.16,8.4,5.02,18.3,1.06,26.74c-2.07,4.53-7.49,5.69-11.95,4.59
	c-1.02-2.27-2.21-4.45-3.68-6.46c-0.57-10.18,3.36-20.4,0.51-30.47c1.9,0.38,4.14,0.83,4.97,2.87c2.84,6.12,1.93,13.12,3,19.64
	C467.31,205.61,465.75,195.64,461.44,188.46z"/>
<path fill="#FFFFFF" d="M316.67,207.77c17.82-7.25,37.37-8.32,56.39-8.41c18.66,0.03,37.28,1.47,55.93,1.97
	c7.27,0.08,14.86,1.39,20.87,5.74c-0.11,6.94-0.11,13.96-1.89,20.72c-1.83-1.65-3.84-3.05-6.06-4.1c1.68,9.5,9.04,17.38,8.73,27.35
	c0.18,4.38-2.98,8.03-6.6,10.07c-3.88,2.38-8.38,3.34-12.78,4.22c5.23,6.58,15.36,4,20.56-1.29c1.53,12.46,2.16,25.07,0.92,37.58
	c-10.97-4.71-23.95-5.12-35.17-1.11c11.05,1.67,22.74,1.06,33.11,5.79c9.98,5.09,15.67,15.38,19.57,25.44
	c7.44,16.39,9.19,35.21,5.45,52.78c-2.43,11-7.97,22.36-18.38,27.77c-14.61,7.87-31.11,11.32-47.38,13.75
	c-11.87,1.58-23.87,2.68-35.85,2.21c-12.68-1.1-25.41-2.2-37.86-4.99c0.63-3.63,1.53-7.19,2.54-10.72
	c8.22,3.71,17.4,3.05,26.18,3.19c18.36,0.46,37.02,1.07,55.02-3.27c4.93-1.27,9.83-2.84,14.3-5.33
	c-28.18,3.88-56.79,7.06-85.21,3.88c-3.19-0.26-6.18-1.44-9.17-2.49c0.56-1.32,1.12-2.62,1.69-3.93c24.5,2,49.32,1.1,73.51-3.4
	c13.07-2.59,26.15-6.03,38.11-11.99c4.81-6.53,4.75-15.47,3.18-23.13c-2.64-11.26-8.32-21.86-16.2-30.32
	c-8.23-6.49-19.56-5.32-29.27-3.92c-28.68,4.92-57.94,6.24-86.95,4.11c-7.84-0.74-15.51,4.09-18.83,11.1
	c-2.92,6.37-4.76,13.2-5.91,20.1c-1.19,8.29-1.66,17.83,3.71,24.85c4.5,5.66,12.3,5.81,18.41,8.75c-0.55,1.1-1.08,2.2-1.61,3.31
	c-6.99-1.52-12.73-6.16-19.6-7.99c4.14,5.72,10.47,9.4,17.18,11.3c-1.57,3.38-3.17,6.75-4.5,10.24
	c-9.31,0.15-18.73-3.52-24.91-10.59c-8.91-10.04-11.91-23.95-12-37.06c0.12-15.36,3.92-31.35,13.73-43.49
	c2.24-3.29,4.37-6.74,7.41-9.37c8.43-7.64,19.46-11.33,30.08-14.8c-6.27-0.69-12.6-0.05-18.75,1.24
	c-1.6-12.33-0.03-24.76,1.86-36.96c3.18,3.21,6.55,7.72,11.68,7.01c2.22-0.11,6.35-1.6,5.06-4.47c-3.46-2.23-8.65-0.17-11.42-3.67
	c-1.34-2-2.95-4.08-3.44-6.44c2.43-11.43,6.42-22.52,8.37-34.06c-1.67,1.7-3.06,3.64-4.47,5.55c-0.59-6.98-1.66-13.89-2.69-20.81
	C314.04,208.56,315.56,208.38,316.67,207.77 M318.79,211.34c3.12,1.88,6.93,1.37,10.39,2.07c4.75,0.54,9.32,2.31,13.08,5.3
	c-5.27-0.34-11.08,0.09-15.34,3.55c0.24,2.71,3.94,1.48,5.83,2.06c-3.04,6.98-2.48,16.19,3.56,21.41c3.27,3,7.92,3.39,12.13,2.9
	c-1.3,2.66-2.39,5.85-5.46,6.94c-7.35,3.8-16.75-1.13-18.68-8.97c-3.62,5.93,1.32,12.65,6.49,15.6c3.54,0.88,7.23,0.94,10.88,1.01
	c-4.53,13.31-3.3,29.7,7.15,39.95c16.25,15.81,45.93,13.24,59.67-4.66c4.19-4.77,6.07-11.32,5.4-17.58
	c-0.67-2.8-0.98-6.34-3.89-7.75c0.04,4.57-0.49,9.22-2.68,13.31c-6.27,12.71-20.52,19.97-34.33,20.39c-5.23,0-11.06-0.03-15.27-3.6
	c-6.58-4.73-9.02-13.38-8.13-21.15c1.18-11.03,6.4-21.66,14.5-29.25c5.31-5.17,13.12-6.08,18.85-10.63
	c-10.59-1.03-19.55,5.31-28.45,9.95c3.1-7.36,8.78-13.07,13.94-18.98c-1.06-5.27-5.85-8.34-10.29-10.62
	c-3.46-1.7-6.26-4.48-9.83-5.94c-6.37-2.84-12.09-7.57-19.22-8.38C325.38,207.77,321.8,209.32,318.79,211.34 M400.94,225.29
	c2,4.74,3.25,9.76,5.31,14.48c1.58,3.64,4.69,6.88,8.77,7.45c4.99,0.71,10.34,0.11,14.78-2.4c4.3-2.44,7.22-6.97,8.08-11.8
	c0.31-5.25-2.79-10.05-6.73-13.27c2.2-0.9,7.49-1.34,6.09-4.85C424.35,213.22,412.08,219.52,400.94,225.29 M430.94,254.47
	c-4.31,1.24-8.72,0.12-12.8-1.36c4.16,7.52,15.03,7.69,21.75,3.79c3.47-1.84,3.67-6.11,2.28-9.36
	C439.06,250.71,435.39,253.56,430.94,254.47 M299.64,330.61c-8.14,10.21-11.98,23.41-12.48,36.33c-0.36,9.64,2.28,20.4,10.63,26.2
	c-7.06-14.08-4.56-30.57-0.98-45.26c1.55-5.14,2.61-10.76,6.26-14.91c4.01-4.6,9.96-6.84,14.14-11.26
	C310.59,322.59,303.81,325.15,299.64,330.61 M454.9,335.12c0.76,8.26,4.81,15.76,6.17,23.92c2.12,11.09,2.78,23.66-3.58,33.55
	c-2.18,3.62-5.88,5.73-9.23,8.08c4.46-0.78,9.19-1.6,12.82-4.54c5.48-4.25,7.3-11.55,7.35-18.19c0.01-11.07-3.17-21.9-7.48-32.01
	C459.18,342.2,457.77,338.18,454.9,335.12z"/>
<path fill="#FFFFFF" d="M484.22,202.72c9.37-3.34,19.94-2.12,28.73,2.33c12.31,7,17.37,21.67,29.37,29.1
	c-10.24-0.49-17.8-8.08-24.95-14.53c-6.56-6.02-15.19-11.16-24.43-9.74c-1.84,0.1-3.07,1.49-4.25,2.7c4.35,1.69,9.15,0.9,13.58,2.19
	c11.42,6.41,19.95,17.54,32.69,21.69c6.23,2.21,12.94,1.47,19.2-0.19c-13.42,6.95-29.44,7.84-44.02,4.52
	c-8.13-1.77-15.4-6.02-22.14-10.74c-3.36-2.58-7.31-5.57-7.87-10.07C481.03,214.11,485.7,208.99,484.22,202.72z"/>
<path fill="#FFFFFF" d="M417.5,222.66c4.65-1.14,10.11-1.16,14.08,1.88c2.83,2.18,3.39,6.16,2.51,9.45
	c-0.98,4.98-5.69,8.07-10.14,9.73c-4.41,1.67-10.37,1.87-13.58-2.15c-2.73-4.27-1.5-9.77,0.07-14.25
	C411.35,224.31,414.86,223.55,417.5,222.66 M422.03,223.14c-3.26,0.47-5.6,3.76-4.84,7.01c0.75,4.49,4.03,9.24,8.82,9.88
	c5.17-0.18,7.42-6.66,6.01-10.98C431.06,224.71,426.34,221.82,422.03,223.14z"/>
<path fill="#FFFFFF" d="M333.45,231.06c1.01-2.48,2.42-4.77,3.58-7.18c6.31,0.86,13.13,0.3,18.94,3.29
	c2.44,3.24,2.23,8.14-0.14,11.4c-3.46,4.82-10.12,7.3-15.84,5.57C334.75,242.59,331.22,236.21,333.45,231.06 M340.42,226.37
	c-3.52,2.52-4.87,7.62-3.23,11.59c1.68,4.04,7.81,5.07,10.77,1.87c1.77-1.8,2.5-4.4,2.52-6.87
	C351.14,227.96,344.51,224.55,340.42,226.37z"/>
<path fill="#FFFFFF" d="M288.48,258.67c5.41-1.7,11.21-0.08,15.8,2.98c-0.57,3.77-1.27,7.53-1.93,11.29
	c-4.71-8.28-17.43-8.93-23.99-2.63c-2.86,2.72-3.08,6.95-2.34,10.6c2.84-2.06,3.18-5.89,5.58-8.28c2.98-2.52,7.13-3.79,11.01-3.06
	c2.89,0.52,5.29,3.34,4.87,6.35c-0.71,4.6-4.96,8.3-4.06,13.2c0.56,4.22,3.98,7.18,7.45,9.22c0.71,2.5,1.45,5,2.21,7.5
	c-3.27,2.03-7.14,3.51-11.01,2.54c-7.33-1.63-13.22-7.11-17.32-13.17C266.51,282.39,274.06,263.06,288.48,258.67z"/>
<path fill="#FFFFFF" d="M459.07,264.29c4.74-3.75,10.71-6.44,16.89-5.5c7.81,1.02,16.14,6.68,16.71,15.14
	c0.6,9.15-3.49,17.9-8.44,25.35c-4.46,5.94-8.77,13.48-16.84,14.64c-3.46-3.33-6.42-7.18-10.3-10.04c0.08-0.61,0.26-1.84,0.35-2.45
	c3.24-0.4,7.11-0.83,8.94-3.96c3.6-6.29,1.15-14.17,4.47-20.56c2.41-4.54,8.61-5.68,13.1-3.88c1.2,0.34,1.36,1.78,1.69,2.79
	c0.75,3.23,1.25,6.53,2.5,9.63c3.37-4.15,3.2-11.13-1.41-14.31c-5.9-4.1-14.44-3.73-20.24,0.38c-3.9,2.72-5.52,7.78-4.68,12.35
	c0.72,4.55,1.93,10.28-2.58,13.33C460.21,286.24,459.82,275.25,459.07,264.29z"/>
<path fill="#FFFFFF" d="M300.79,292.74c-2.43-2.27-1.91-5.89,0.03-8.28C301.01,287.21,301,289.98,300.79,292.74z"/>
<path fill="#FFFFFF" d="M392.16,339.61c7.27,0.49,13.62-4.13,20.79-4.19c3.07-0.29,3.28,3.37,4,5.54c0.76,4.6,2.54,9.73,0.26,14.15
	c-5.07,1.91-9.84,4.77-15.19,5.85c-3.39,0.78-7.64-0.74-8.44-4.43C392.23,350.98,393.25,345.2,392.16,339.61z"/>
<path fill="#FFFFFF" d="M345.2,341.24c12.06,0.51,24.2,0.82,36.19-0.91c-1.06,7.55-0.05,15.59-3.28,22.7
	c-2.84,4.83-8.99,5.94-14.03,7.12c-5.86,1.15-13.49,1.69-17.34-3.88C342.08,358.77,344.24,349.46,345.2,341.24z"/>
<path fill="#FFFFFF" d="M341.06,382.08c10.68-8.11,24.28-11.87,37.58-11.65c-1.37,2.28-4.12,2.72-6.31,3.87
	c-14.54,6.61-29.12,15.72-36.71,30.32c-6.86,12.25-7.08,26.6-10.19,39.97c-1.42,6.3-3.89,12.49-8.23,17.37
	c0.25-5.73-0.9-11.69-4.73-16.14c-0.41,8.72-0.56,18.33-6.05,25.62c-5,6.49-14.25,6.92-21.6,5.16c-7.83-1.85-13.73-7.87-18.35-14.12
	c-3.02-4.26-7.56-7.37-9.79-12.2c-1.82-3.97-1.39-9.49,2.48-12.1c6.56-4.81,14.46-7.25,22.05-9.89c7.82-2.59,16.25-5.49,24.49-3.04
	c1.25,3.9,1.32,8.5-1.52,11.75c-5.46,6.42-14.02,8.47-21.1,12.5c11.08,2.8,20.15-5.5,27.73-12.25c0.39,0.45,1.17,1.35,1.56,1.8
	c1.98-5.27,1.84-11.17,4.53-16.2c1.92-3.38,2.37-7.3,3.65-10.92C324.36,400.32,331.22,389.48,341.06,382.08 M276.1,434.16
	c-3.93,2.55-8.8,3.63-12.03,7.21c2.65,2.52,6.42,3.19,9.97,3.09c8.02-0.41,16.02-3.16,22.51-7.93c2.83-1.73,2.94-6.95-0.52-7.97
	C288.88,426.7,282.13,430.87,276.1,434.16z"/>
<path fill="#FFFFFF" d="M355.35,388.04c8.05-3.43,15.31-10.21,24.64-9.28c2.79-0.18,4.81,2.2,5.29,4.76
	c1.22,5.57,0.48,11.32,1.24,16.95c-10.75,0.86-21.55,1.47-32.34,0.87C354.45,396.89,355,392.47,355.35,388.04z"/>
<path fill="#FFFFFF" d="M306.84,421.34c1.59,0.46,3.16,0.98,4.74,1.49c-0.35,0.6,0.07,1.95-0.99,1.93
	C309.19,423.78,308,422.57,306.84,421.34z"/>
<path fill="#242021" d="M442.361,69.49c5.489-1.067,10.674-3.257,16.085-4.637c0.91-0.387,2.001,0.329,2.088,1.297
	c-0.049,0.544-0.441,0.955-0.749,1.367c-2.364,2.883-5.708,4.785-9.196,5.975c-5.415,1.853-11.168,2.31-16.843,2.689
	c-10.991,0.729-21.982-0.383-32.945-1.095c-7.952-0.502-16.007-0.906-23.889,0.49c-5.975,1.046-11.922,3.332-16.386,7.557
	c-5.366,5.032-9.509,11.695-10.518,19.071c-0.535,3.739,0.103,7.565,1.577,11.028c-3.941-4.785-5.197-11.506-3.83-17.494
	c1.445-6.416,5.403-12.012,10.184-16.415c6.14-5.605,14.265-8.561,22.419-9.616c10.905-1.462,21.875,0.111,32.768,0.885
	C422.866,71.298,432.712,71.055,442.361,69.49z"/>
<path fill="#242021" d="M460.835,69.477c0.111-1.573,2.726-2.117,3.208-0.519c0.96,4.773-0.227,9.863-2.973,13.857
	c-3.772,5.518-9.612,9.224-15.624,11.897c-4.987,2.178-10.262,3.706-15.649,4.489c-7.454,0.997-15.006,0.869-22.464,1.87
	c-4.942,0.651-9.871,1.857-14.306,4.192c-5.279,2.714-9.661,6.82-13.721,11.086c-0.515,0.457-0.955,1.215-1.758,1.095
	c1.462-5.02,4.851-9.319,8.994-12.432c4.703-3.55,10.246-5.79,15.875-7.388c10.225-2.936,20.969-3.204,31.26-5.839
	c7.586-1.874,15.258-4.909,20.706-10.723C457.462,77.816,459.599,73.764,460.835,69.477z"/>
<path fill="#242021" d="M368.26,87.037c1.828-1.272,3.966-2.154,6.206-2.286c-4.744,1.849-8.561,5.712-10.563,10.369
	c-1.684,3.813-2.302,8.055-2.117,12.202c0.066,2.397,1.157,4.608,1.268,6.997c0.659,0.029,1.322,0.058,1.989,0.095
	c0.128-5.123,3.08-9.645,6.49-13.26c3.55-3.822,8.108-6.515,12.832-8.632c6.054-2.714,12.498-4.386,18.886-6.111
	c0.704-0.198,1.425-0.346,2.154-0.441c-7.981,3.076-16.028,6.441-22.769,11.815c-3.27,2.722-6.696,5.444-8.912,9.146
	c-1.524,2.467-1.927,5.411-2.203,8.24c0.717,0.379,1.688,0.441,2.125,1.211c1.075,1.742-0.321,4.522-2.467,4.353
	c-2.895-0.494-5.712-1.445-8.648-1.734c-2.631-0.334-5.316,0.082-7.923-0.494c-0.593-0.054-1.351-0.527-0.947-1.223
	c0.96-1.285,2.496-1.894,3.933-2.471c-1.968-4.316-0.502-9.2,0.96-13.441C360.658,95.99,363.475,90.512,368.26,87.037z"/>
<path fill="#242021" d="M453.583,95.281c1.359,1.128,2.314,2.631,3.319,4.065c7.948,12.165,11.106,26.718,12.717,40.967
	c0.478-1.384,1.083-2.957,2.52-3.595c1.511-0.651,3.204,0.132,4.246,1.268c2.034,2.166,3.089,5.003,4.369,7.639
	c1.256,2.751,2.64,5.465,3.587,8.347c1.635,0.877,3.673,1.359,4.748,2.99c1.075,1.787,0.124,3.9-0.914,5.465
	c1.791,0.119,3.801,0.548,4.913,2.104c0.795,1.03,0.708,2.384,0.618,3.607c1.1,0.276,2.08,1.054,2.294,2.216
	c0.544,2.586-0.939,4.983-2.096,7.17c4.682,6.07,8.351,13.174,9.159,20.887c0.379,3.875,0.185,8.162-2.281,11.378
	c8.014,10.752,14.026,22.872,18.729,35.399c2.903,7.602,4.925,15.496,7.676,23.148c1.334,3.83,2.615,7.845,2.178,11.951
	c-0.156,1.33,0.338,2.722-0.284,3.986c-1.001,2.438-3.381,3.916-5.691,4.95c-4.015,1.734-8.372,2.467-12.68,3.072
	c-5.09,0.712-10.275,1.042-15.393,0.453c-3.224-0.412-6.511-1.19-9.237-3.031c-0.642-0.268-0.544-0.98-0.453-1.536
	c4.25,0.012,8.496,0.383,12.754,0.354c5.601,0.049,11.205-0.564,16.658-1.833c2.475-0.622,4.979-1.359,7.128-2.784
	c1.108-0.725,2.203-1.462,3.348-2.129c-5.938-24.663-15.385-48.28-25.075-71.663c-0.778,0.511-1.52,1.141-2.442,1.355
	c-1.1,0.161-2.117-0.902-2.026-1.977c0.029-2.108,1.482-3.789,1.964-5.778c1.12-4.205,0.729-8.636-0.301-12.815
	c-0.951-4.332-2.199-8.623-4.036-12.667c-0.638,0.152-0.955,0.828-1.425,1.231c1.89,2.549,2.603,5.872,1.874,8.969
	c-1.083,4.818-4.155,8.92-7.594,12.346c-1.635,1.614-3.451,3.043-5.407,4.258c4.077,7.478,6.762,15.591,9.682,23.568
	c2.059,5.856,5.012,11.436,6.169,17.584c0.535,2.722,0.539,5.564-0.226,8.244c3.566,0.766,7.277,1.935,9.925,4.571
	c0.992,1.05-0.301,2.747-1.59,2.496c-2.187-0.292-4.11-1.445-6.025-2.458c-3.245-1.779-6.815-2.899-10.452-3.529
	c-1.174-0.21-2.384-0.292-3.496-0.749c3.257-1.272,6.906-0.881,10.312-0.531c-1.458-2.063-2.314-4.464-2.957-6.885
	c-2.084-8.034-4.793-15.888-7.713-23.65c-2.17-5.86-4.221-11.897-4.443-18.198c-2.64,1.338-5.596,2.29-8.59,1.96
	c-3.014-0.309-5.728-2.141-7.396-4.637c-2.685,7.281-6.556,14.574-13.046,19.133c-4.773,3.426-10.839,4.452-16.6,4.139
	c-9.373-0.531-18.342-4.505-25.619-10.336c-4.032-3.27-7.623-7.161-10.258-11.65c-1.05-1.334,1.198-3.373,2.314-2.026
	c5.473,6.799,12.095,12.811,19.878,16.847c5.465,2.809,11.765,4.563,17.918,3.43c5.86-1.046,10.917-4.806,14.487-9.459
	c4.184-5.465,6.581-12.062,8.216-18.688c2.31-9.562,3.229-19.4,3.521-29.214c0.251-10.291,0.342-20.636-1.112-30.853
	c-1.116-7.94-2.426-15.908-5.049-23.51C457.252,105.482,455.098,100.486,453.583,95.281 M472.966,139.061
	c-1.87,2.553-2.343,6.119-0.988,9.019c0.791,2.195,2.5,3.859,3.504,5.934c1.565-0.515,3.224-0.622,4.863-0.655
	c-1.882-4.406-2.825-9.274-5.531-13.297C474.383,139.551,473.724,138.381,472.966,139.061 M470.162,149.269
	c0.148,2.413,0.161,4.831,0.202,7.248c1.054-0.82,2.158-1.631,3.463-1.993c0.988,0.194,0.992-1.429,0.033-1.305
	C472.036,152.605,471.08,150.818,470.162,149.269 M474.264,156.962c-1.643,0.762-3.356,1.956-3.776,3.834
	c-0.309,1.536-0.321,3.632,1.297,4.456c2.063,0.803,4.345,0.218,6.412-0.28c2.755-0.861,5.827-1.952,7.437-4.518
	c0.885-1.433-0.301-2.846-0.881-4.122C481.384,155.014,477.5,155.479,474.264,156.962 M483.447,166.948
	c-1.874,1.087-3.892,2.697-4.056,5.028c0.008,1.861,2.253,2.335,3.731,2.211c2.232,0.049,3.974-1.474,5.691-2.677
	c-0.218-1.499,0.922-2.376,2.137-2.92c0.247-0.943,0.708-2.158-0.132-2.928c-1.264-0.931-2.953-0.675-4.423-0.684
	C485.074,164.939,484.538,166.446,483.447,166.948 M470.195,168.002c-0.288,8.261-1.182,16.518-2.99,24.589
	c1.528,1.141,3.274,2.03,5.181,2.302c4.196,0.667,8.541-1.058,11.461-4.077c1.796-1.804,3.459-4.159,3.253-6.828
	c-0.527-2.356-1.437-4.608-2.092-6.927c-2.792,0.955-5.979-0.214-7.787-2.458c-1.33-1.742-0.63-4.114,0.362-5.839
	C475.12,169.3,472.435,169.287,470.195,168.002 M492.387,171.342c-1.388,1.841-2.969,3.546-4.975,4.723
	c0.313,0.807,0.659,1.602,1.05,2.376c2.607-1.573,4.349-4.493,4.74-7.487C492.997,171.054,492.589,171.247,492.387,171.342
	 M489.678,181.098c0.416,2.45,0.334,5.041-0.795,7.305c-2.533,5.226-8.113,8.879-13.931,9.023c-2.965,0.119-5.885-0.861-8.298-2.549
	c-0.259,0.992-0.527,1.985-0.795,2.977c2.022,1.1,2.936,3.373,4.748,4.707c1.532,1.124,3.562,0.84,5.292,0.416
	c4.476-1.194,8.137-4.32,11.082-7.783c2.281-2.759,4.283-5.988,4.633-9.628c0.185-1.734-0.264-3.459-0.976-5.024
	C490.398,180.678,489.916,180.958,489.678,181.098z"/>
<path fill="#242021" d="M350.322,114.023c0.14-0.082,0.428-0.243,0.568-0.325c1.046,0.066,0.095,0.89-0.078,1.277
	c-5.115,6.222-6.441,14.611-6.235,22.439c0.329,8.842,1.322,18.004,5.675,25.874c1.66,3.064,3.715,6.342,3.138,9.99
	c-0.012,0.964-1.145,1.59-1.989,1.161c-3.455-1.252-5.625-4.518-7.231-7.647c-4.975-10.18-6.087-21.966-4.312-33.072
	C341.085,126.286,344.264,118.775,350.322,114.023z"/>
<path fill="#242021" d="M446.953,116.901c2.199-0.56,4.74-0.375,6.688,0.844c-3.29,0.362-6.754,1.742-8.401,4.802
	c-2.598,4.81-1.841,10.571-0.749,15.698c1.128,4.765,2.78,9.435,5.143,13.734c1.738,3.051,3.937,5.992,7.013,7.8
	c1.161,0.824,2.636,1.688,2.866,3.224c0.124,1.272-1.128,1.944-1.82,2.809c-2.57,3.224-6.367,5.378-10.411,6.107
	c-3.78,0.679-7.639,1.8-11.494,1.058c-0.881-0.062-1.137-1.33-0.391-1.779c2.458-2.211,5.951-2.141,9.006-2.8
	c3.323-0.605,6.548-1.977,8.998-4.345c-3.068-2.076-5.44-5.016-7.231-8.232c-3.01-5.399-4.793-11.432-5.642-17.539
	c-0.634-4.995-0.754-10.209,0.819-15.052C442.241,120.5,444.053,117.749,446.953,116.901z"/>
<path fill="#242021" d="M374.746,117.865c3.356,1.021,5.794,3.904,7.433,6.885c2.52,4.765,3.385,10.205,3.649,15.533
	c0.235,5.082,0.284,10.246-0.861,15.233c-0.647,2.599-1.676,5.345-3.912,6.988c-0.943,0.832-2.636,0.49-3.06-0.733
	c-1.413-2.994-0.103-6.276,0.469-9.307c1.474-7.804,2.401-15.982,0.346-23.778C377.925,124.915,376.257,121.406,374.746,117.865z"/>
<path fill="#242021" d="M412.752,131.207c2.636-0.795,5.424-0.082,7.89,0.935c-4.892,0.914-9.677,3.406-12.548,7.569
	c-2.64,3.793-2.714,8.973-6.066,12.313c-1.116,0.132-1.264-1.165-1.548-1.952c-0.84-3.595,0.498-7.273,2.24-10.382
	C404.89,135.791,408.337,132.365,412.752,131.207z"/>
<path fill="#242021" d="M451.149,134.601c1.128-0.77,2.846-0.189,3.311,1.083c0.688,1.61,1.005,3.344,1.532,5.012
	c0.408,1.272,0.684,2.809-0.206,3.945c-1.021,1.429-3.282,1.528-4.509,0.313c-1.903-1.816-2.162-4.732-1.717-7.19
	C449.819,136.618,450.169,135.338,451.149,134.601z"/>
<path fill="#242021" d="M350.412,154.862c-1.178-4.538-0.803-9.505,1.244-13.738c-0.033,5.675,1.025,11.382,3.356,16.571
	c0.927,1.96,2.1,4.419,4.534,4.686c1.684,0.185,3.072,1.264,4.019,2.619c0.531-0.202,1.062-0.404,1.598-0.605
	c-3.29-4.983-3.525-11.304-2.817-17.057c0.325-1.602,0.321-3.41,1.367-4.752c-1.017,7.544,2.582,14.842,7.137,20.619
	c4.501-0.268,9.76,0.807,12.325,4.909c-0.548,0.062-1.1,0.107-1.635-0.029c-3.966-0.807-8.006-1.75-12.074-1.301
	c-2.421,0.251-4.921,1.342-6.206,3.504c-1.948,3.237-1.594,7.343-0.206,10.723c2.063,5.049,5.786,9.183,9.591,12.997
	c3.369,3.373,8.298,5.658,13.108,4.6c2.829-0.815,3.418-4.077,5.345-5.909c1.058-0.955,2.78-0.346,3.43,0.799
	c1.161,2.121,1.19,4.917-0.218,6.935c-1.021,1.548-2.607,2.586-4.233,3.402c3.999,4.715,4.357,11.259,4.435,17.16
	c-0.103,4.592-0.029,9.649-2.796,13.569c2.277,1.248,4.48,2.747,7.042,3.36c7.73,2.018,15.871,0.992,23.502-0.972
	c4.176-1.091,8.216-2.66,12.062-4.616c1.347-0.782,3.229-0.42,4.069,0.927c0.976,1.359,0.688,3.443-0.684,4.431
	c-4.048,2.973-8.986,4.46-13.882,5.3c-6.811,1.104-13.791,0.943-20.595-0.115c-3.727-0.655-7.557-1.565-10.691-3.78
	c-1.227-0.84-2.137-2.038-2.854-3.319c-1.025,0.086-2.421,0.07-2.743-1.161c-0.642-2.813,0.63-5.58,1.31-8.269
	c0.906-3.896,1.413-7.919,1.215-11.926c-0.132-3.311-1.178-6.482-1.569-9.756c-3.006,0.857-6.268,1.124-9.282,0.177
	c-6.144-1.816-11.214-6.173-15.056-11.181c-3.064-4.102-5.65-8.718-6.663-13.783c-0.844-3.949-0.103-8.269,2.45-11.461
	C355.095,164.947,351.788,160.211,350.412,154.862z"/>
<path fill="#242021" d="M416.495,145.67c1.145-0.754,2.916-0.156,3.241,1.207c0.325,1.865-0.054,3.826,0.568,5.646
	c0.556,1.614,1.8,3.266,1.079,5.041c-0.63,1.808-3.006,2.335-4.534,1.342c-2.1-1.293-2.714-3.953-2.874-6.247
	C413.86,150.167,414.494,147.313,416.495,145.67z"/>
<path fill="#242021" d="M369.524,171.26c1.738-0.572,3.587,0.074,5.086,0.98c2.986,1.725,5.255,4.394,7.33,7.091
	c0.988,1.322,1.812,2.986,1.375,4.674c-0.124,0.692-0.745,1.38-1.511,1.186c-1.458-0.276-2.158-1.754-2.8-2.928
	c-0.873-1.783-2.092-3.369-3.447-4.806c-1.503-1.52-3.327-3.262-5.625-3.117c-1.577,0.165-2.318,1.672-3.134,2.813
	c-0.243,0.511-1.1-0.218-0.898-0.614C366.16,174.365,367.329,172.005,369.524,171.26z"/>
<path fill="#242021" d="M457.511,172.763c1.627-0.251,2.458,1.285,3.126,2.483c0.799,1.52,1.421,3.224,1.285,4.971
	c-0.062,1.1-0.791,2.17-1.886,2.463c-0.832-0.029-1.025-1.03-1.408-1.594c-3.006,5.951-9.002,10.188-15.447,11.642
	c-10.736,1.763-20.903-4.217-31.631-3.327c0.428,1.651,1.05,3.245,1.511,4.888c0.321,2.038-2.825,3.29-3.999,1.573
	c-2.949-3.682-2.356-9.237,0.21-12.96c0.173-0.494,1.038-0.745,1.223-0.181c0.288,1.833,0.358,3.702,0.791,5.518
	c4.662-1.684,9.702-1.865,14.603-1.507c6.284,0.321,12.857,1.948,18.96-0.338c5.448-2.059,8.244-7.647,13.001-10.711
	C457.482,174.748,457.421,173.755,457.511,172.763z"/>
<path fill="#242021" d="M444.053,198.019c2.87-0.185,5.131-2.174,7.796-3.002c1.437-0.453,2.631,1.507,1.808,2.677
	c-1.128,1.886-3.253,2.891-5.3,3.443c-3.274,0.799-7.021,0.733-9.863-1.272C439.725,198.097,442.159,198.328,444.053,198.019z"/>
<path fill="#242021" d="M383.073,232.125c0.712-0.292,1.791-0.766,2.265,0.148c0.572,0.762-0.288,1.375-0.832,1.787
	c-6.074,4.678-12.111,9.5-17.139,15.323c-4.905,5.708-9.632,11.568-14.22,17.535c-7.417,9.698-14.891,19.61-19.437,31.042
	c-1.668,4.192-3.08,8.487-4.233,12.848c-0.383,1.462-0.992,2.854-1.643,4.221c6.128,0.358,11.16,4.324,16.958,5.864
	c3.727,1.005,7.585,1.314,11.395,1.857c0.787-6.642,3.669-12.774,6.515-18.746c2.063-4.279,4.423-8.607,8.162-11.662
	c0.358-0.235,1.211-1.013,1.338-0.091c-1.083,3.57-2.969,6.844-4.312,10.316c1.882,18.647,4.456,37.248,5.222,55.989
	c0.486,9.735,0.745,19.483,0.68,29.23c-0.058,4.567-0.169,9.591-3.105,13.367c5.386,0.733,10.666,2.088,16.061,2.784
	c4.386,0.597,8.825,0.502,13.24,0.453c7.058-0.107,14.109-0.741,21.064-1.96c7.606-1.277,15.159-2.94,22.546-5.16
	c3.813-1.165,7.573-2.611,10.987-4.69c2.038-1.244,4.32-2.446,6.791-2.183c1.149,0.062,2.343,1.157,2.03,2.376
	c-0.663,2.199-2.376,3.904-4.188,5.234c-4.526,3.159-9.933,4.686-15.241,5.951c-8.578,1.861-17.189,3.69-25.927,4.641
	c-8.883,0.943-17.881,1.524-26.78,0.428c-7.668-1.042-15.867-1.927-22.299-6.642c-0.519,0.14-1.034,0.297-1.565,0.383
	c-0.964-0.288-0.889-1.437-0.972-2.236c-0.107-4.242,2.294-8.084,2.191-12.334c0.152-11.564-0.247-23.135-1.231-34.658
	c-0.782-9.323-1.742-18.634-2.66-27.945c-0.412-4.023-0.539-8.067-0.638-12.103c-0.824,1.915-1.087,4.007-1.709,5.992
	c-0.581,2.286-1.511,4.452-2.178,6.708c-0.379,1.128-1.676,1.384-2.689,1.623c-5.069,0.98-10.172-0.688-14.817-2.607
	c-5.531-2.38-11.308-4.74-15.64-9.072c-0.984,0.931-2.722,0.951-3.356-0.387c-1.194-3.035-0.288-6.375,0.733-9.327
	c1.779-4.789,3.22-9.719,5.473-14.319c5.337-10.715,12.437-20.459,20.298-29.453c5.325-6.194,10.896-12.173,16.629-17.992
	C371.637,239.797,376.612,234.719,383.073,232.125z"/>
<path fill="#242021" d="M439.981,233.537c2.743,0.255,5.197,1.647,7.639,2.817c6.939,3.657,14.594,5.79,22.328,6.922
	c3.537,0.605,7.137,1.219,10.415,2.747c1.898,0.91,3.756,2.244,4.608,4.238c0.42,0.881-0.432,1.66-1.268,1.721
	c-3.822,0.836-7.264-1.482-10.839-2.372c-6.927-1.8-14.059-3.159-20.496-6.428c-3.739-1.841-7.211-4.221-10.254-7.071
	C441.315,235.337,440.38,234.621,439.981,233.537z"/>
<path fill="#242021" d="M479.63,258.234c1.318-2.582,3.5-5.041,6.478-5.596c-0.721,1.483-1.717,2.825-2.306,4.378
	c-1.964,4.888-2.491,10.221-2.578,15.451c-0.021,4.011-0.091,8.104,1.017,12.004c0.523,1.898,1.297,3.768,1.347,5.765
	c-0.054,1.021-1.03,1.874-2.034,1.861c-0.832-0.194-1.59-0.918-2.483-0.63c-3.789,0.737-7.61-0.432-11.115-1.787
	c-1.664-0.717-3.364-1.425-4.818-2.52c-0.453-0.375-0.338-1.211,0.239-1.326c2.932-0.552,5.815,0.494,8.656,1.067
	c1.585,0.346,3.216,0.239,4.826,0.194c-1.466-4.748-1.137-9.809-0.614-14.681C476.825,267.59,477.426,262.632,479.63,258.234z"/>
<path fill="#242021" d="M459.323,279.413c0.235-0.758,0.276-1.738,1.116-2.088c2.792,8.817,1.857,18.194,1.763,27.286
	c-0.119,20.174,0.008,40.386,1.668,60.507c0.651,8.059,3.739,15.937,2.697,24.103c-0.235,0.836-0.058,2.162-1.141,2.401
	c-1.157-0.428-1.639-1.758-2.306-2.71c-3.71-6.593-3.904-14.364-4.649-21.706c-1.989-20.393-1.425-40.905-0.89-61.351
	C457.795,297.034,457.182,288.057,459.323,279.413z"/>
<path fill="#242021" d="M327.207,321.599c0.943-0.782,2.496,0.317,2.129,1.466c-2.607,12.033-2.681,24.42-2.463,36.676
	c0.239,10.732,2.059,21.455,0.997,32.195c0.045,0.914-0.589,1.935-1.614,1.828c-0.852-0.441-1.285-1.367-1.717-2.174
	c-1.664-3.504-1.013-7.483-1.067-11.226c-0.14-7.688-0.914-15.36-0.828-23.057c0.045-7.581,0.852-15.126,1.384-22.678
	C324.423,330.189,324.786,325.457,327.207,321.599z"/>
<path fill="#242021" d="M348.473,346.986c1.38-5.411,4.102-10.341,6.507-15.336c-1.816,5.514-2.479,11.3-3.846,16.925
	c-2.759,11.473-4.435,23.259-4.349,35.078c-0.037,4.106,1.153,8.372-0.313,12.354c-0.07,0.799-1.227,1.013-1.553,0.276
	c-2.442-3.402-2.195-7.837-2.092-11.819C343.078,371.794,345.137,359.197,348.473,346.986z"/>
<path fill="#242021" d="M317.624,407.349c0.095-4.596,2.232-9.262,6.206-11.745c-0.671,4.41-2.73,8.64-2.343,13.19
	c0.161,2.594,1.483,4.999,3.385,6.737c2.351,2.22,4.962,4.637,8.327,5.003c3.537,0.494,7.548,0.523,10.538-1.717
	c1.75-1.252,2.277-3.472,3.504-5.119c1.717-0.655,3.237,0.832,3.925,2.265c1.231,2.475,2.22,5.09,2.866,7.779
	c1.618,0.251,1.804,2.751,0.268,3.229c-3.962,0.894-8.059,0.354-12.045-0.086c-7.013-0.787-14.191-1.182-21.146,0.292
	c-0.605,0.189-1.194-0.045-1.775-0.181c-0.712,0.609-1.524,1.408-2.561,1.025c-1.569-0.358-1.915-2.203-1.882-3.57
	c0.078-3.414,1.903-7.112,5.201-8.434c-1.425-2.347-2.133-5.016-2.463-7.717c-1.948,0.894-3.216,2.788-4.077,4.678
	c-1.758,4.056-1.861,8.541-2.442,12.857c-0.148,1.351-1.721,2.323-2.99,1.82c-0.898-0.428-0.914-1.548-1.005-2.397
	c-0.251-4.369,1.042-8.784,3.393-12.453C312.155,410.244,314.597,408.058,317.624,407.349 M345.602,420.259
	c-2.907,1.903-6.515,2.199-9.9,2.071c-3.488-0.156-7.133-0.029-10.39-1.478c-1.487-0.634-2.706-1.73-3.789-2.903
	c-1.849,2.24-2.726,5.37-2.211,8.187c5.329-2.117,11.131-2.648,16.822-2.631c4.81,0.041,9.628-0.264,14.434,0.021
	c-0.539-2.174-1.087-4.349-1.907-6.432C347.781,418.27,346.867,419.465,345.602,420.259z"/>
<path fill="#242021" d="M347.003,397.75c1.882,0.782,3.072,2.537,4.596,3.813c1.997,1.915,4.583,3.014,7.145,3.945
	c0.741,0.321,1.935,0.568,1.828,1.631c-1.12,1.61-2.792,2.747-4.365,3.887c2.553,2.467,3.822,5.881,4.608,9.27
	c0.259,1.079,0.272,2.199,0.218,3.307c5.16-1.738,10.732,0.28,15.064,3.171c0.663-5.411,1.569-10.884,0.885-16.341
	c-0.202-1.351,2.096-1.96,2.512-0.622c0.939,3.27,0.828,6.721,0.704,10.085c-0.161,3.187,0.086,6.498-1.124,9.525
	c4.237,6.095,4.246,14.014,3.488,21.113c0.609-0.041,1.627-0.247,1.676,0.667c2.323,13.157,4.163,26.504,3.62,39.9
	c-0.206,4.225-0.647,8.516-2.154,12.503c-0.931,2.409-2.38,4.785-4.695,6.078c-1.31,0.663-2.088,1.964-3.274,2.792
	c-2.94,2.158-6.515,3.237-10.056,3.924c0.21,3.575-0.605,7.075-1.264,10.563c-0.692,3.245-1.581,6.523-3.373,9.352
	c5.214,0.173,10.254,1.919,15.488,1.796c3.031-0.066,6.074-0.317,9.101,0.016c5.222-16.526,9.381-33.385,12.725-50.385
	c-1.347,2.557-2.615,5.251-4.769,7.252c-0.297,0.539-1.429,0.733-1.342-0.144c0.601-4.386,3.076-8.183,4.48-12.321
	c-1.26,1.174-2.52,2.45-4.143,3.105c-0.988,0.399-1.977-0.89-1.433-1.771c1.763-3.657,4.604-6.634,6.737-10.06
	c2.388-3.616,3.142-7.985,5.218-11.753c0.712-1.31,0.737-2.846,1.075-4.27c1.878-10.168,4.579-20.174,5.971-30.428
	c0.165-1.363,0.787-2.586,1.425-3.776c0.338-1.071,0.338-2.22,0.572-3.311c0.383,0.185,0.877,0.329,0.824,0.865
	c1.936,14.656,6.803,28.687,11.008,42.799c2.36,4.831,5.679,9.299,10.044,12.503c2.796,2.224,6.07,4.501,7.054,8.141
	c-0.161,0.169-0.482,0.511-0.647,0.679c-2.467-0.519-4.559-2.08-6.465-3.661c-2.586-2.261-4.896-4.822-7.038-7.503
	c-0.074-0.033-0.222-0.107-0.297-0.144c2.323,8.611,3.966,17.415,6.803,25.89c3.241,9.706,7.915,18.898,10.645,28.79
	c0.449,1.882,1.186,3.764,1.03,5.736c4.336-0.346,8.627,1.244,12.951,0.511c3.558-0.712,6.902-2.265,9.949-4.213
	c-2.331-3.117-3.591-6.865-4.423-10.629c-1.211-5.3-1.59-10.752-2.85-16.04c-2.207-9.723-4.308-19.474-5.942-29.312
	c-2.088-13.087-3.854-26.273-4.06-39.542c-0.185-11.214,1.285-22.394,3.517-33.369c-0.041-0.696,1.186-0.77,0.877,0.058
	c-0.881,6.255-1.272,12.577-1.174,18.898c0.259,13.948,1.66,27.871,3.896,41.638c2.529,14.916,5.872,29.679,9.245,44.422
	c1.301,5.811,1.985,11.794,4.114,17.387c0.803,2.043,1.301,4.217,2.421,6.128c0.803,1.952-1.244,3.414-2.409,4.674
	c4.983,2.356,10.559,4.13,16.114,3.113c5.576-0.799,10.056-4.929,15.69-5.477c0.832-0.28,1.178,0.535,1.47,1.145
	c1.676,1.165,2.998,2.755,4.275,4.336c0.42,0.688,0.997,1.532,0.688,2.376c-4.999,5.444-11.802,8.874-18.799,10.991
	c-7.437,2.302-15.451,3.01-23.107,1.458c-0.857-0.202-1.997,0.099-2.549-0.77c-0.684-0.914-1.384-1.816-2.228-2.586
	c-0.21,1.853-1.569,3.257-3.142,4.11c-3.78,2.216-8.854,2.611-12.572,0.049c-1.289,0.634-2.936,0.111-3.566-1.19
	c-1.124-2.141-1.038-4.653-1.017-7.001c0.152-3.196-0.132-6.568,1.285-9.542c-1.137,0.465-2.701,0.428-3.319-0.807
	c-2.586-4.789-4.571-9.883-6.404-15.002c-3.776-10.81-6.675-21.904-9.15-33.081c-2.421-11.004-4.637-22.056-7.462-32.965
	c-1.664-6.766-3.785-13.417-5.168-20.253c-2.01,13.211-4.378,26.364-6.548,39.55c-2.953,17.91-7.219,35.564-11.823,53.111
	c-1.137,4.089-2.454,8.137-4.147,12.041c-0.482,0.885,0.589,1.907-0.066,2.792c-0.49,1.005-1.779,0.984-2.701,1.305
	c1.668,3.117,2.133,6.828,1.314,10.266c-0.342,1.149-1.009,2.533-2.31,2.784c-0.828,0.107-1.252-0.671-1.433-1.338
	c-2.833,2.199-6.712,1.586-10.023,1.248c-1.161-0.132-1.425-1.375-1.725-2.29c-8.121,3.505-17.123,4.513-25.899,4.102
	c-5.679-0.259-11.535-0.626-16.794-2.977c-1.944-0.828-3.583-2.17-5.152-3.558c0.152-0.292,0.305-0.577,0.457-0.857
	c5.469,0.754,10.583,3.171,16.11,3.579c6.964,0.593,14.216,0.457,20.796-2.15c3.525-1.351,6.885-3.159,10.551-4.118
	c1.207-0.367,2.619,0.239,3.097,1.421c0.507,1.013,0.037,2.117-0.107,3.159c2.286-0.025,4.579-0.103,6.828-0.531
	c0.964-0.198,1.944-0.099,2.891,0.132c0.325-2.912,0.124-5.848-0.103-8.755c-5.667,0.231-11.16-1.404-16.769-1.857
	c-2.133-0.202-4.27-0.465-6.334-1.042c-1.536,2.57-4.258,4.11-7.05,4.958c-4.855,1.491-10.011,1.594-15.039,1.235
	c-4.567-0.358-9.146-1.384-13.211-3.558c-0.498-0.247-0.91-0.626-1.305-1.005c4.048-0.115,8.014,0.906,12.029,1.268
	c7.079,0.836,14.512-0.424,20.578-4.291c-1.009-0.383-1.952-1.272-1.779-2.446c0.585-4.225,2.994-7.87,4.489-11.794
	c0.98-2.343,1.091-4.905,1.643-7.351c-4.979,0.655-10.007,0.745-15.014,1.021c-15.365,0.754-30.836,1.367-46.147-0.552
	c-4.666-0.609-9.529-1.367-13.544-3.99c-3.01-1.944-5.028-5.181-5.774-8.656c-1.281-5.827-0.358-11.815-0.601-17.712
	c-0.099-3.434-0.35-7.046,1.046-10.275c0.523-1.067,1.1-2.294,2.314-2.689c0.321,9.797-1.371,19.8,1.137,29.436
	c0.91,3.756,3.962,6.651,7.495,8.014c6.033,2.401,12.647,2.228,19.017,2.631c13.318,0.91,26.817,1.268,40.003-1.174
	c6.157-1.104,12.61-1.47,18.284-4.332c2.183-1.116,4.378-2.211,6.502-3.422c2.232-3.019,4.176-6.404,4.756-10.168
	c1.511-8.5,0.684-17.205-0.581-25.676c-0.667-4.246-1.124-8.512-1.561-12.783c-0.227,3.797-0.737,7.796-2.804,11.073
	c-0.478,0.601-1.1,0.054-1.561-0.231c-1.441,3.554-5.428,4.863-8.792,5.901c-5.284,1.384-10.855,2.957-16.328,1.725
	c-1.001-0.28-2.047-0.581-2.866-1.244c-0.638-0.819-0.169-2.199,0.889-2.351c5.156-1.305,10.695-0.478,15.71-2.438
	c3.583-1.421,7.009-4.151,11.082-3.476c-0.346-2.944,0.107-5.893,0.618-8.784c0.749-4.019,1.005-8.104,1.202-12.177
	c0.111-4.275-0.231-8.961-3.031-12.416c-2.607-3.286-6.832-4.637-10.818-5.304c-1.705-0.231-3.336-0.824-4.826-1.672
	c-0.539,0.227-1.268,0.729-1.721,0.062c-1.581-1.96-0.877-4.658-1.363-6.951c-0.507-2.31-1.956-4.237-3.257-6.157
	c-1.734,0.618-4.093,0.523-5.008-1.334c-0.474-1.536,1.511-1.903,2.607-1.812c1.779,0.148,3.484-0.404,5.045-1.215
	c-3.682-1.417-7.001-3.953-8.973-7.408C347.373,399.574,347.093,398.672,347.003,397.75 M449.217,536.019
	c-1.207,3.719-0.976,7.705-0.399,11.518c0.371,1.763,0.766,3.546,0.589,5.366c3.945-0.482,8.389-0.42,11.473-3.34
	c1.091-0.618,0.416-2.36,1.75-2.755c3.167-1.515,6.634,0.918,8.01,3.768c4.781-1.528,9.776,0.527,14.632-0.333
	c8.141-1.207,16.159-4.439,22.336-9.97c-1.12-1.314-2.154-2.697-3.204-4.06c-3.846,3.348-8.928,4.855-13.874,5.621
	c-7.017,1.071-14.459-0.811-19.944-5.358c-3.752,1.499-7.775,2.071-11.761,2.533C455.337,539.342,452.351,537.168,449.217,536.019z"
	/>
<path fill="#242021" d="M289.704,430.699c4.596-2.636,10.085-3.014,15.27-3.023c-4.637,1.61-9.797,2.248-13.791,5.329
	c-3.496,2.755-4.781,7.314-5.218,11.564c-0.507,5.498-0.659,11.041-0.251,16.546c0.231,3.303,1.268,6.515,1.223,9.842
	c-0.119,0.7,0.086,1.59-0.539,2.104c-0.852,0.931-2.483,0.799-3.179-0.247c-1.816-2.598-2.043-5.893-2.265-8.953v-8.837
	c0.156-4.299,0.416-8.623,1.412-12.82C283.341,437.687,285.565,433.1,289.704,430.699z"/>
<path fill="#242021" d="M327.232,464.508c2.739-2.129,6.441-2.323,9.743-1.841c3.192,0.457,6.371,1.812,8.45,4.353
	c3.072,3.55,3.768,8.755,2.36,13.149c-0.329,0.947-1.4,1.112-2.244,1.314c-0.486,2.52-3.035,3.727-5.279,4.312
	c-2.29,0.552-4.67,1.075-7.03,0.791c-1.227-0.115-2.479-1.054-2.426-2.376c0.782-1.198,2.454-1.141,3.71-1.38
	c3.315-0.185,6.124-2.195,9.336-2.821c0.111-3.014,0.601-6.222-0.717-9.06c-1.067-2.446-3.57-3.957-6.119-4.419
	c-3.323-0.605-6.745,0.194-10.044-0.642c0.63,5.885,0.511,12.082,3.332,17.465c1.244,2.1-2.174,4.32-3.591,2.351
	c-1.903-2.825-2.722-6.235-3.134-9.575c-6.399,2.483-13.376,1.005-19.993,0.482c-5.551-0.544-11.514-0.725-16.341-3.854
	c-0.016-0.124-0.041-0.367-0.054-0.49c0.572-0.704,1.573-0.655,2.384-0.803c5.555-0.589,10.975,1.186,16.493,1.413
	c4.509,0.189,9.072,0.284,13.528-0.535c1.322-0.255,2.66-0.412,4.007-0.432C324.061,469.215,324.744,466.065,327.232,464.508z"/>
<path fill="#242021" d="M323.41,548.772c1.227-2.323,2.611-5.316,5.605-5.547c-0.445,2.582-0.889,5.333-2.57,7.446
	C325.222,552.083,322.397,550.551,323.41,548.772z"/>
</svg>
