<?xml version="1.0" encoding="utf-8"?>
<!-- Generator: Adobe Illustrator 17.0.0, SVG Export Plug-In . SVG Version: 6.00 Build 0)  -->
<!DOCTYPE svg PUBLIC "-//W3C//DTD SVG 1.1//EN" "http://www.w3.org/Graphics/SVG/1.1/DTD/svg11.dtd">
<svg version="1.1" id="Layer_1" xmlns="http://www.w3.org/2000/svg" xmlns:xlink="http://www.w3.org/1999/xlink" x="0px" y="0px"
	 width="800px" height="600px" viewBox="0 0 800 600" enable-background="new 0 0 800 600" xml:space="preserve">
<g>
	<path fill="#231F20" d="M512.359,417.561c-3.898,0-7.879-0.22-11.836-0.651c-18.287-3.857-35.93-13.433-48.902-26.426
		c-22.995,21.165-56.403,24.37-74.506,24.37c-9.243,0-18.419-0.785-27.281-2.338c-10.392-1.82-19.965-6.218-27.101-12.428
		c-8.758,2.817-17.313,4.096-25.708,3.841c-23.076-0.742-52.162-8.031-64.594-26.265c-14.653-21.479-17.069-44.837-6.469-62.48
		c7.636-12.695,16.599-21.263,27.378-26.167c2.811-9.894,9.204-18.376,11.883-21.632c3.635-4.425,8.468-8.266,14.078-11.205
		c-8.356-10.247-11.828-23.59-9.796-37.878c2.485-17.454,12.668-33.154,27.242-42.013c10.671-6.489,23.463-10.063,36.019-10.063
		c18.984,0,34.253,8.215,42.342,22.648c13.276-12.029,33.727-16.36,47.725-16.36c2.02,0,3.994,0.079,5.893,0.243
		c15.767,1.326,28.594,7.179,36.118,16.477c5.859,7.234,8.46,16.179,7.746,26.627c4.433-1.212,9.055-1.828,13.776-1.828
		c16.475,0,30.869,7.387,38.502,19.753c7.546,12.221,9.516,25.351,5.596,36.54c10.59,0.023,20.789,3.287,26.002,8.333
		c10.032,9.706,19.121,25.908,11.724,39.624c-7.356,13.645-22.03,21.467-40.253,21.467h-0.002c-9.961,0-20.265-2.311-29.392-6.548
		c1.724,17.533,9.425,36.728,20.538,50.879c1.96,2.503,4.172,4.975,6.573,7.352c1.004,1.13,1.932,2.134,2.903,3.099
		c4.841,4.818,10.518,9.274,16.873,13.253l3.134,1.958l-3.35,1.565c-1.067,0.499-1.801,0.84-2.566,1.153
		c-8.329,3.421-18.168,5.088-30.075,5.1H512.359z M451.729,384.811l1.401,1.468c12.538,13.146,30.043,22.868,48.027,26.669
		c3.613,0.384,7.45,0.597,11.202,0.597v2.009l0.21-2.009c10.902-0.008,19.933-1.452,27.568-4.41
		c-5.343-3.597-10.181-7.54-14.412-11.754c-1.034-1.024-2.022-2.091-2.991-3.193c-2.428-2.393-4.755-4.994-6.817-7.63
		c-12.332-15.704-20.63-37.399-21.652-56.622l-0.188-3.546l3.136,1.671c9.308,4.947,20.216,7.673,30.72,7.673
		c9.815,0,27.636-2.514,36.718-19.356c6.772-12.554-3.717-27.803-10.981-34.83c-4.892-4.731-15.881-7.775-26.093-7.116l-3.362,0.22
		l1.406-3.06c4.845-10.537,3.323-23.546-4.176-35.692c-6.897-11.173-20.012-17.846-35.082-17.846c-5.331,0-10.52,0.847-15.42,2.515
		l-3.043,1.036l0.402-3.186c1.338-10.639-0.875-19.608-6.583-26.654c-6.144-7.587-16.336-12.66-28.992-14.508
		c19.401,3.342,31.952,16.147,32.044,32.782c0.002,0.84-0.353,1.656-1.002,2.307c-1.724,1.73-4.675,1.055-5.118-1.185
		c-1.864-9.404-4.529-15.881-12.056-19.129c-7.379-3.189-13.586-4.825-19.533-5.143c-9.851-0.53-18.427,0.977-27.128,4.873
		c-5.59,2.499-9.467,5.959-13.955,9.961l-2.222,1.969c-1.447,1.263-3.835,0.843-4.76-0.773c-0.55-0.961-0.53-2.122,0.049-3.103
		c7.585-12.852,21.862-21.365,38.146-23.052c-13.429,1.043-30.487,5.845-41.193,16.826L374,195.638l-1.245-2.582
		c-6.991-14.5-21.568-22.813-39.99-22.813c-11.66,0-24.025,3.456-33.931,9.478c-13.354,8.117-23.068,23.115-25.351,39.145
		c-1.997,14.033,1.738,27.034,10.518,36.615l0.993,1.083c3.24-1.632,6.622-2.958,10.053-3.939
		c-5.604-4.66-9.108-9.941-10.904-16.367c-3.225-11.518-3.111-21.75,0.337-30.412c4.417-11.083,11.997-20.377,21.346-26.167
		c6.942-4.296,19.565-8.952,28.239-7.619c1.251,0.192,2.138,1.252,2.111,2.519c-0.031,1.334-1.032,2.448-2.326,2.589
		c-16.94,1.883-37.486,15.944-41.059,33.872l-0.09,0.439c-4.245,13.339,1.357,30.659,14.269,44.123l2.534,2.641l-4.184,0.785
		c-0.135,0-0.268-0.012-0.398-0.031c-11.42,2.801-19.957,6.862-26.085,12.409c-6.84,6.195-9.443,13.476-11.64,21.22
		c2.605-0.455,5.186-0.722,7.709-0.801l0.487-0.016c8.282,0.251,15.632,0.581,23.296,2.111c1.691,0.337,3.362,0.746,5.033,1.153
		l-0.561,3.97c-7.258-0.533-14.523-0.455-21.673,0.247c-6.604,0.648-12.399,2.044-17.222,4.151
		c-6.471,1.903-11.444,4.728-15.441,8.721c-4.851,3.68-8.743,10.208-11.465,19.066l-0.145,0.463
		c-0.973,3.256-1.789,6.775-2.346,10.157c-1.357,8.207-0.219,16.563,3.374,24.837l5.987,13.766l-9.394-11.711
		c-7.326-9.133-10.288-18.721-9.321-30.169c0.967-11.542,6.563-23.17,15.753-32.746c4.753-4.947,10.645-8.666,17.537-11.059
		c-0.192-5.716,1.069-11.118,3.409-16.046c-2.071,3.543-4.08,7.768-5.235,12.248l-0.245,0.949l-0.902,0.392
		c-10.524,4.551-18.919,12.476-26.42,24.943c-9.771,16.258-7.397,37.995,6.346,58.145c11.585,16.995,39.316,23.805,61.405,24.515
		c8.38,0.275,16.618-1.044,25.412-4.002l1.124-0.377l0.875,0.801c6.661,6.116,15.881,10.455,25.963,12.221
		c8.631,1.514,17.578,2.279,26.587,2.279c17.88,0,51.158-3.193,73.162-24.613L451.729,384.811z M262.995,297.639l-1.502,0.471
		c-6.885,2.158-12.715,5.688-17.333,10.498c-8.556,8.913-13.758,19.678-14.649,30.302c-0.374,4.433-0.098,8.56,0.863,12.476
		c-0.208-3.405-0.035-6.81,0.523-10.192c0.587-3.546,1.44-7.242,2.47-10.687l0.151-0.47c3.011-9.8,7.275-16.83,12.674-20.903
		c4.276-4.292,9.808-7.45,16.701-9.462c3.884-1.711,8.521-2.997,13.711-3.81c-0.392-0.012-0.789-0.027-1.185-0.035l-0.455,0.016
		c-3.248,0.098-6.676,0.557-10.126,1.365L262.995,297.639z M301.273,255.289l-1.251,0.255
		c-18.696,3.766-37.113,18.788-37.225,37.897c2.391-8.686,5.114-17.568,13.341-25.014c6.198-5.61,14.555-9.792,25.484-12.734
		C301.504,255.56,301.391,255.426,301.273,255.289z M311.177,181.291c-1.171,0.593-2.258,1.196-3.238,1.805
		c-8.619,5.339-15.626,13.947-19.73,24.237c-3.072,7.717-3.14,17.344-0.2,27.843c1.377,4.924,3.935,9.102,7.907,12.852
		c-7.911-12.436-10.679-26.352-7.048-37.764C291.226,198.376,300.306,188.047,311.177,181.291z M423.204,180.463
		c-13.931,0-26.744,5.304-35.277,14.245c3.048-2.511,6.301-4.798,10.367-6.618c9.302-4.163,18.436-5.779,28.986-5.218
		c6.438,0.35,13.082,2.087,20.91,5.469c1.713,0.738,3.209,1.616,4.525,2.609c-5.701-5.488-13.67-8.627-21.346-9.847
		C428.696,180.679,425.948,180.463,423.204,180.463z M548.971,326.804l-2.228-3.327c2.209-1.773,3.904-4.08,5.037-6.849
		c3.362-8.215,3.127-19.486-4.98-26.156c-5.392-4.425-15.189-9.2-22.721-9.333l-0.404-0.008c-2.35,0-4.81,0.33-7.528,1.004
		l-1.196-3.825c2.85-1.083,5.598-1.805,8.403-2.209c7.403-1.04,15.408,0.486,24.704,4.724c7.183,4.37,11.553,9.957,13.201,16.712
		c1.518,6.23,0.912,13.3-1.666,19.404C556.725,321.264,553.214,324.465,548.971,326.804z M542.683,282.896
		c2.522,1.404,4.807,2.942,6.667,4.472c6.981,5.743,9.129,14.217,8.319,22.087c0.62-3.617,0.546-7.454-0.314-10.965
		c-1.387-5.684-5.147-10.439-11.177-14.127C544.993,283.83,543.828,283.339,542.683,282.896z M520.203,255.748
		c-1.161,0-2.119-0.757-2.436-1.93c-2.958-10.875-9.345-18.737-18.478-22.739c-5.043-2.209-9.823-2.507-13.833-2.507
		c-1.652,0-3.303,0.059-4.967,0.114c-4.29,0.141-8.623,0.173-12.175-0.282c-1.246-0.165-2.156-1.189-2.164-2.444
		c-0.006-1.345,0.969-2.499,2.267-2.68c1.762-0.243,3.505-0.514,5.234-0.785c5.051-0.792,9.821-1.542,14.7-1.542
		c6.669,0,12.219,1.436,17.462,4.516c11.82,6.948,17.988,16.697,17.368,27.45C523.094,254.426,521.704,255.748,520.203,255.748z"/>
</g>
</svg>
