<?xml version="1.0" encoding="utf-8"?>
<!-- Generator: Adobe Illustrator 17.0.0, SVG Export Plug-In . SVG Version: 6.00 Build 0)  -->
<!DOCTYPE svg PUBLIC "-//W3C//DTD SVG 1.1//EN" "http://www.w3.org/Graphics/SVG/1.1/DTD/svg11.dtd">
<svg version="1.1" id="Layer_1" xmlns="http://www.w3.org/2000/svg" xmlns:xlink="http://www.w3.org/1999/xlink" x="0px" y="0px"
	 width="800px" height="600px" viewBox="0 0 800 600" enable-background="new 0 0 800 600" xml:space="preserve">
<path fill="#FFFFFF" d="M358.72,150.35c15.93-4.8,33.31-3.15,48.92,2.16c9.42,3.42,18.75,8.14,25.65,15.57
	C410.52,155.64,384.3,151.75,358.72,150.35z"/>
<path fill="#FFFFFF" d="M348.51,154.71c8.49-1.13,17.08-0.43,25.55,0.49c18.93,2.24,37.98,6.22,55.11,14.86
	c7,3.79,14.47,8.06,18.33,15.34c1.69,2.49,2.92,5.26,3.57,8.21c-18.59-7.15-38.1-12.04-57.94-13.92c-6.11-0.5-12.28-1.03-18.39-0.33
	c25.69,4.71,52.34,7.47,76.21,18.82c0,1.78,0,3.55,0.02,5.33c-23.7-6.72-48.45-9.14-73.02-8.85c-21.91,0.37-44.02,2.75-64.89,9.7
	c0.21-1.52,0.45-3.02,0.67-4.52c15.52-8.71,33.84-9.76,51.25-9.46c19.1,0.45,38.1,2.73,57.2,3.29c-16.2-3.2-32.69-4.98-49.16-6.07
	c-19.54-0.92-39.92-0.55-58.16,7.38c3.89-11.48,9.07-22.9,17.41-31.85c17.65-2.77,35.51,0.76,53.11,2.47
	c-15.61-5.34-32.41-8.73-48.88-5.78C339.67,156.59,344.17,155.34,348.51,154.71z"/>
<path fill="#FFFFFF" d="M479.28,191.94c4.97-3.17,11-4.82,16.87-3.56c10.75,2.01,19.9,9.16,30.89,10.25
	c3.81,0.49,7.59-0.42,11.23-1.46c-4.71,4.49-10.47,9.33-17.43,8.67c-4.56-1.53-7.7-5.63-12.18-7.36c-8.23-3.23-17.9-3.6-25.96,0.3
	C481.65,196.45,480.45,194.2,479.28,191.94z"/>
<path fill="#FFFFFF" d="M461.44,188.46c5.18-0.84,10.93,0.59,14.14,5c5.67,7.53,6.3,19.26,0.23,26.73
	c-0.45-6.61,0.28-13.56-2.32-19.81c-0.77-2.18-2.77-3.38-4.74-4.31c3.16,8.4,5.02,18.3,1.06,26.74c-2.07,4.53-7.49,5.69-11.95,4.59
	c-1.02-2.27-2.21-4.45-3.68-6.46c-0.57-10.18,3.36-20.4,0.51-30.47c1.9,0.38,4.14,0.83,4.97,2.87c2.84,6.12,1.93,13.12,3,19.64
	C467.31,205.61,465.75,195.64,461.44,188.46z"/>
<path fill="#FFFFFF" d="M316.67,207.77c17.82-7.25,37.37-8.32,56.39-8.41c18.66,0.03,37.28,1.47,55.93,1.97
	c7.27,0.08,14.86,1.39,20.87,5.74c-0.11,6.94-0.11,13.96-1.89,20.72c-1.83-1.65-3.84-3.05-6.06-4.1c1.68,9.5,9.04,17.38,8.73,27.35
	c0.18,4.38-2.98,8.03-6.6,10.07c-3.88,2.38-8.38,3.34-12.78,4.22c5.23,6.58,15.36,4,20.56-1.29c1.53,12.46,2.16,25.07,0.92,37.58
	c-10.97-4.71-23.95-5.12-35.17-1.11c11.05,1.67,22.74,1.06,33.11,5.79c9.98,5.09,15.67,15.38,19.57,25.44
	c7.44,16.39,9.19,35.21,5.45,52.78c-2.43,11-7.97,22.36-18.38,27.77c-14.61,7.87-31.11,11.32-47.38,13.75
	c-11.87,1.58-23.87,2.68-35.85,2.21c-12.68-1.1-25.41-2.2-37.86-4.99c0.63-3.63,1.53-7.19,2.54-10.72
	c8.22,3.71,17.4,3.05,26.18,3.19c18.36,0.46,37.02,1.07,55.02-3.27c4.93-1.27,9.83-2.84,14.3-5.33
	c-28.18,3.88-56.79,7.06-85.21,3.88c-3.19-0.26-6.18-1.44-9.17-2.49c0.56-1.32,1.12-2.62,1.69-3.93c24.5,2,49.32,1.1,73.51-3.4
	c13.07-2.59,26.15-6.03,38.11-11.99c4.81-6.53,4.75-15.47,3.18-23.13c-2.64-11.26-8.32-21.86-16.2-30.32
	c-8.23-6.49-19.56-5.32-29.27-3.92c-28.68,4.92-57.94,6.24-86.95,4.11c-7.84-0.74-15.51,4.09-18.83,11.1
	c-2.92,6.37-4.76,13.2-5.91,20.1c-1.19,8.29-1.66,17.83,3.71,24.85c4.5,5.66,12.3,5.81,18.41,8.75c-0.55,1.1-1.08,2.2-1.61,3.31
	c-6.99-1.52-12.73-6.16-19.6-7.99c4.14,5.72,10.47,9.4,17.18,11.3c-1.57,3.38-3.17,6.75-4.5,10.24
	c-9.31,0.15-18.73-3.52-24.91-10.59c-8.91-10.04-11.91-23.95-12-37.06c0.12-15.36,3.92-31.35,13.73-43.49
	c2.24-3.29,4.37-6.74,7.41-9.37c8.43-7.64,19.46-11.33,30.08-14.8c-6.27-0.69-12.6-0.05-18.75,1.24
	c-1.6-12.33-0.03-24.76,1.86-36.96c3.18,3.21,6.55,7.72,11.68,7.01c2.22-0.11,6.35-1.6,5.06-4.47c-3.46-2.23-8.65-0.17-11.42-3.67
	c-1.34-2-2.95-4.08-3.44-6.44c2.43-11.43,6.42-22.52,8.37-34.06c-1.67,1.7-3.06,3.64-4.47,5.55c-0.59-6.98-1.66-13.89-2.69-20.81
	C314.04,208.56,315.56,208.38,316.67,207.77 M318.79,211.34c3.12,1.88,6.93,1.37,10.39,2.07c4.75,0.54,9.32,2.31,13.08,5.3
	c-5.27-0.34-11.08,0.09-15.34,3.55c0.24,2.71,3.94,1.48,5.83,2.06c-3.04,6.98-2.48,16.19,3.56,21.41c3.27,3,7.92,3.39,12.13,2.9
	c-1.3,2.66-2.39,5.85-5.46,6.94c-7.35,3.8-16.75-1.13-18.68-8.97c-3.62,5.93,1.32,12.65,6.49,15.6c3.54,0.88,7.23,0.94,10.88,1.01
	c-4.53,13.31-3.3,29.7,7.15,39.95c16.25,15.81,45.93,13.24,59.67-4.66c4.19-4.77,6.07-11.32,5.4-17.58
	c-0.67-2.8-0.98-6.34-3.89-7.75c0.04,4.57-0.49,9.22-2.68,13.31c-6.27,12.71-20.52,19.97-34.33,20.39c-5.23,0-11.06-0.03-15.27-3.6
	c-6.58-4.73-9.02-13.38-8.13-21.15c1.18-11.03,6.4-21.66,14.5-29.25c5.31-5.17,13.12-6.08,18.85-10.63
	c-10.59-1.03-19.55,5.31-28.45,9.95c3.1-7.36,8.78-13.07,13.94-18.98c-1.06-5.27-5.85-8.34-10.29-10.62
	c-3.46-1.7-6.26-4.48-9.83-5.94c-6.37-2.84-12.09-7.57-19.22-8.38C325.38,207.77,321.8,209.32,318.79,211.34 M400.94,225.29
	c2,4.74,3.25,9.76,5.31,14.48c1.58,3.64,4.69,6.88,8.77,7.45c4.99,0.71,10.34,0.11,14.78-2.4c4.3-2.44,7.22-6.97,8.08-11.8
	c0.31-5.25-2.79-10.05-6.73-13.27c2.2-0.9,7.49-1.34,6.09-4.85C424.35,213.22,412.08,219.52,400.94,225.29 M430.94,254.47
	c-4.31,1.24-8.72,0.12-12.8-1.36c4.16,7.52,15.03,7.69,21.75,3.79c3.47-1.84,3.67-6.11,2.28-9.36
	C439.06,250.71,435.39,253.56,430.94,254.47 M299.64,330.61c-8.14,10.21-11.98,23.41-12.48,36.33c-0.36,9.64,2.28,20.4,10.63,26.2
	c-7.06-14.08-4.56-30.57-0.98-45.26c1.55-5.14,2.61-10.76,6.26-14.91c4.01-4.6,9.96-6.84,14.14-11.26
	C310.59,322.59,303.81,325.15,299.64,330.61 M454.9,335.12c0.76,8.26,4.81,15.76,6.17,23.92c2.12,11.09,2.78,23.66-3.58,33.55
	c-2.18,3.62-5.88,5.73-9.23,8.08c4.46-0.78,9.19-1.6,12.82-4.54c5.48-4.25,7.3-11.55,7.35-18.19c0.01-11.07-3.17-21.9-7.48-32.01
	C459.18,342.2,457.77,338.18,454.9,335.12z"/>
<path fill="#FFFFFF" d="M484.22,202.72c9.37-3.34,19.94-2.12,28.73,2.33c12.31,7,17.37,21.67,29.37,29.1
	c-10.24-0.49-17.8-8.08-24.95-14.53c-6.56-6.02-15.19-11.16-24.43-9.74c-1.84,0.1-3.07,1.49-4.25,2.7c4.35,1.69,9.15,0.9,13.58,2.19
	c11.42,6.41,19.95,17.54,32.69,21.69c6.23,2.21,12.94,1.47,19.2-0.19c-13.42,6.95-29.44,7.84-44.02,4.52
	c-8.13-1.77-15.4-6.02-22.14-10.74c-3.36-2.58-7.31-5.57-7.87-10.07C481.03,214.11,485.7,208.99,484.22,202.72z"/>
<path fill="#FFFFFF" d="M417.5,222.66c4.65-1.14,10.11-1.16,14.08,1.88c2.83,2.18,3.39,6.16,2.51,9.45
	c-0.98,4.98-5.69,8.07-10.14,9.73c-4.41,1.67-10.37,1.87-13.58-2.15c-2.73-4.27-1.5-9.77,0.07-14.25
	C411.35,224.31,414.86,223.55,417.5,222.66 M422.03,223.14c-3.26,0.47-5.6,3.76-4.84,7.01c0.75,4.49,4.03,9.24,8.82,9.88
	c5.17-0.18,7.42-6.66,6.01-10.98C431.06,224.71,426.34,221.82,422.03,223.14z"/>
<path fill="#FFFFFF" d="M333.45,231.06c1.01-2.48,2.42-4.77,3.58-7.18c6.31,0.86,13.13,0.3,18.94,3.29
	c2.44,3.24,2.23,8.14-0.14,11.4c-3.46,4.82-10.12,7.3-15.84,5.57C334.75,242.59,331.22,236.21,333.45,231.06 M340.42,226.37
	c-3.52,2.52-4.87,7.62-3.23,11.59c1.68,4.04,7.81,5.07,10.77,1.87c1.77-1.8,2.5-4.4,2.52-6.87
	C351.14,227.96,344.51,224.55,340.42,226.37z"/>
<path fill="#FFFFFF" d="M288.48,258.67c5.41-1.7,11.21-0.08,15.8,2.98c-0.57,3.77-1.27,7.53-1.93,11.29
	c-4.71-8.28-17.43-8.93-23.99-2.63c-2.86,2.72-3.08,6.95-2.34,10.6c2.84-2.06,3.18-5.89,5.58-8.28c2.98-2.52,7.13-3.79,11.01-3.06
	c2.89,0.52,5.29,3.34,4.87,6.35c-0.71,4.6-4.96,8.3-4.06,13.2c0.56,4.22,3.98,7.18,7.45,9.22c0.71,2.5,1.45,5,2.21,7.5
	c-3.27,2.03-7.14,3.51-11.01,2.54c-7.33-1.63-13.22-7.11-17.32-13.17C266.51,282.39,274.06,263.06,288.48,258.67z"/>
<path fill="#FFFFFF" d="M459.07,264.29c4.74-3.75,10.71-6.44,16.89-5.5c7.81,1.02,16.14,6.68,16.71,15.14
	c0.6,9.15-3.49,17.9-8.44,25.35c-4.46,5.94-8.77,13.48-16.84,14.64c-3.46-3.33-6.42-7.18-10.3-10.04c0.08-0.61,0.26-1.84,0.35-2.45
	c3.24-0.4,7.11-0.83,8.94-3.96c3.6-6.29,1.15-14.17,4.47-20.56c2.41-4.54,8.61-5.68,13.1-3.88c1.2,0.34,1.36,1.78,1.69,2.79
	c0.75,3.23,1.25,6.53,2.5,9.63c3.37-4.15,3.2-11.13-1.41-14.31c-5.9-4.1-14.44-3.73-20.24,0.38c-3.9,2.72-5.52,7.78-4.68,12.35
	c0.72,4.55,1.93,10.28-2.58,13.33C460.21,286.24,459.82,275.25,459.07,264.29z"/>
<path fill="#FFFFFF" d="M300.79,292.74c-2.43-2.27-1.91-5.89,0.03-8.28C301.01,287.21,301,289.98,300.79,292.74z"/>
<path fill="#FFFFFF" d="M392.16,339.61c7.27,0.49,13.62-4.13,20.79-4.19c3.07-0.29,3.28,3.37,4,5.54c0.76,4.6,2.54,9.73,0.26,14.15
	c-5.07,1.91-9.84,4.77-15.19,5.85c-3.39,0.78-7.64-0.74-8.44-4.43C392.23,350.98,393.25,345.2,392.16,339.61z"/>
<path fill="#FFFFFF" d="M345.2,341.24c12.06,0.51,24.2,0.82,36.19-0.91c-1.06,7.55-0.05,15.59-3.28,22.7
	c-2.84,4.83-8.99,5.94-14.03,7.12c-5.86,1.15-13.49,1.69-17.34-3.88C342.08,358.77,344.24,349.46,345.2,341.24z"/>
<path fill="#FFFFFF" d="M341.06,382.08c10.68-8.11,24.28-11.87,37.58-11.65c-1.37,2.28-4.12,2.72-6.31,3.87
	c-14.54,6.61-29.12,15.72-36.71,30.32c-6.86,12.25-7.08,26.6-10.19,39.97c-1.42,6.3-3.89,12.49-8.23,17.37
	c0.25-5.73-0.9-11.69-4.73-16.14c-0.41,8.72-0.56,18.33-6.05,25.62c-5,6.49-14.25,6.92-21.6,5.16c-7.83-1.85-13.73-7.87-18.35-14.12
	c-3.02-4.26-7.56-7.37-9.79-12.2c-1.82-3.97-1.39-9.49,2.48-12.1c6.56-4.81,14.46-7.25,22.05-9.89c7.82-2.59,16.25-5.49,24.49-3.04
	c1.25,3.9,1.32,8.5-1.52,11.75c-5.46,6.42-14.02,8.47-21.1,12.5c11.08,2.8,20.15-5.5,27.73-12.25c0.39,0.45,1.17,1.35,1.56,1.8
	c1.98-5.27,1.84-11.17,4.53-16.2c1.92-3.38,2.37-7.3,3.65-10.92C324.36,400.32,331.22,389.48,341.06,382.08 M276.1,434.16
	c-3.93,2.55-8.8,3.63-12.03,7.21c2.65,2.52,6.42,3.19,9.97,3.09c8.02-0.41,16.02-3.16,22.51-7.93c2.83-1.73,2.94-6.95-0.52-7.97
	C288.88,426.7,282.13,430.87,276.1,434.16z"/>
<path fill="#FFFFFF" d="M355.35,388.04c8.05-3.43,15.31-10.21,24.64-9.28c2.79-0.18,4.81,2.2,5.29,4.76
	c1.22,5.57,0.48,11.32,1.24,16.95c-10.75,0.86-21.55,1.47-32.34,0.87C354.45,396.89,355,392.47,355.35,388.04z"/>
<path fill="#FFFFFF" d="M306.84,421.34c1.59,0.46,3.16,0.98,4.74,1.49c-0.35,0.6,0.07,1.95-0.99,1.93
	C309.19,423.78,308,422.57,306.84,421.34z"/>
<g id="_x23_272324ff">
	<path fill="#272324" d="M383.979,33.352h5.132c5.002,0.245,9.969,0.95,14.882,1.899c9.452,1.815,18.837,5.19,26.353,11.355
		c6.991,5.555,12.541,13.201,14.623,21.966c2.073,8.016,1.48,16.371,0.843,24.534c-0.254,3.188-0.192,6.425-0.945,9.554
		c2.853,2.109,5.537,4.481,7.651,7.356c2.158,2.207,3.879,4.869,4.77,7.838c0.655,2.537,0.642,5.435-0.785,7.717
		c-1.525,2.301-4.387,3.437-7.084,3.299c-3.299-0.152-6.549-1.235-9.287-3.081c-0.655,4.507-1.828,8.912-2.92,13.326
		c0.468,1.409,1.36,2.657,1.676,4.124c0.789,3.397,0.37,6.951-0.504,10.285c-1.605,5.667-4.556,11.043-8.783,15.176
		c-1.128,1.239-3.032,1.797-3.602,3.478c-3.865,9.813-8.123,19.563-14.017,28.355c-3.255,4.672-6.665,9.412-11.315,12.8
		c-2.323,1.748-5.087,2.711-7.749,3.79c-6.05,2.341-12.751,2.39-19.086,1.409c-5.854-0.994-11.913-3.393-15.488-8.368
		c6.046,2.809,12.573,4.824,19.291,4.864c4.574,0.129,9.068-0.878,13.495-1.922c2.751-0.687,5.506-1.614,7.816-3.308
		c2.613-1.832,4.311-4.597,6.237-7.075c10.999-15.181,17.789-32.854,24.004-50.397c3.758-11.19,8.101-22.359,9.34-34.182
		c0.343-2.269,0.486-4.605,1.364-6.75c0.036-0.103,0.111-0.312,0.152-0.415c-2.791-1.507-5.412-3.317-8.284-4.672
		c-8.654-4.369-18.525-6.866-28.23-5.43c-5.435,0.673-10.548,2.697-15.613,4.668c3.825,1.529,7.116,4.441,9.064,8.074
		c-3.237-1.155-5.974-3.286-8.841-5.114c-1.538-0.927-3.42-1.971-5.225-1.146c-6.202,2.18-13.103,3.339-19.488,1.253
		c-7.156-2.238-14.597-5.814-18.547-12.51c-4.779,2.367-9.251,5.404-13.308,8.85c-0.299,2.751-1.248,5.649-0.299,8.373
		c1.69,0.82,3.308,1.886,4.463,3.393c1.962,2.363,1.4,5.667,1.93,8.493c0.152,4.115,1.757,8.507-0.134,12.43
		c-1.908-3.888-0.901-8.359-1.672-12.492c-0.504-2.394-0.37-5.065-1.881-7.12c-0.838-1.346-2.595-1.583-4.035-1.716
		c-3.023-0.138-5.631,1.917-7.254,4.298c-2.746,4.053-3.959,9.126-3.384,13.986c0.419,3.914,1.404,7.82,3.33,11.28
		c1.088,1.975,2.604,3.665,4.017,5.408c0.976,1.119,1.975,2.318,3.366,2.934c0.932,0.388,1.935-0.009,2.885-0.125
		c0.366-4.204,0.999-8.377,1.511-12.559c0.571,5.988,1.699,11.917,1.89,17.94c0.522,11.512,2.35,22.898,3.571,34.343
		c1.034,9.947,1.971,19.92,2.149,29.929c0.107,5.065,0.312,10.152-0.285,15.194c-0.098,0.847-0.196,1.708-0.009,2.555
		c1.708,8.395,4.628,16.5,8.203,24.271c2.639,5.618,5.314,11.231,7.557,17.022c2.483,3.228,5.444,6.072,8.11,9.158
		c4.235,4.9,8.966,9.684,11.298,15.858c1.699-5.261,3.656-10.45,6.139-15.395c1.288-2.488,1.654-5.31,2.416-7.976
		c2.662-10.647,4.882-21.405,6.576-32.243c1.494-9.363,2.051-18.841,3.317-28.23c0.441-3.099,1.413-6.237,3.576-8.587
		c-1.239,5.667-1.525,11.476-1.413,17.258c0.169,6.902-0.464,13.794-1.534,20.602c-1.48,9.158-2.965,18.337-5.497,27.272
		c0.669-0.776,1.302-1.587,2.046-2.292c0.334-0.651,1.592,0.111,1.173,0.753c-1.297,4.186-3.634,7.954-5.711,11.788
		c-2.599,4.588-4.565,9.496-6.447,14.414c-5.872,15.823-9.92,32.283-12.689,48.922c-0.758-4.503-0.651-9.113-0.183-13.638
		c1.021-9.421,3.87-18.498,6.607-27.526c-2.336-4.65-5.519-8.859-9.354-12.372c-5.586-5.127-12.22-9.242-16.71-15.466
		c5.6,3.972,11.427,7.624,16.87,11.819c-2.43-3.228-5.288-6.17-7.178-9.773c-0.486-0.856-0.834-1.828-1.618-2.465
		c-4.503-3.914-7.53-9.193-10.152-14.481c-2.381-5.002-4.539-10.116-6.349-15.35c-1.048-2.893-1.529-5.943-2.425-8.877
		c-1.168-3.941-0.878-8.101-0.887-12.158c-3.313,1.966-6.135,4.614-9.024,7.133c-3.522,3.304-7.191,6.46-10.455,10.022
		c1.939-5.033,5.729-9.037,9.371-12.903c3.112-3.183,5.97-6.861,10.112-8.765c0.058-9.461-0.566-18.912-1.404-28.328
		c-1.28-14.031-3.174-28.039-3.179-42.154c-2.688-0.098-5.341-1.124-7.343-2.929c-6.589-5.8-10.678-14.329-11.191-23.081
		c-0.205-5.484,0.976-11.271,4.383-15.685c1.98-2.622,5.105-4.115,8.328-4.449c-0.312-4.882-0.82-9.764-0.566-14.659
		c0.49-9.96,2.033-20,5.943-29.234c2.925-6.893,6.91-13.545,12.711-18.395c5.475-4.49,11.396-8.805,18.368-10.557
		c0.602-0.638,1.257-1.231,2.033-1.659C371.139,34.948,377.613,33.695,383.979,33.352 M368.723,38.274
		c-1.627,0.495-3.17,1.235-4.811,1.672c-5.716,3.406-11.775,6.567-16.224,11.65c-5.511,6.318-9.536,13.874-11.984,21.882
		c-2.679,8.52-3.999,17.45-4.039,26.38c3.678-3.375,8.297-5.591,13.125-6.772c-0.597-5.412,0.941-10.709,1.935-15.974
		c1.534-9.149,3.923-18.235,7.936-26.625c1.93-3.763,4.69-7.989,9.273-8.538c-1.404,0.945-2.983,1.685-4.102,2.992
		c-2.938,3.241-4.374,7.499-5.497,11.645c-1.904,7.593-2.965,15.364-3.861,23.134c-0.437,4.07-1.346,8.092-1.418,12.198
		c16.558-4.525,33.946-6.282,51.03-4.24c9.452,1.253,19.019,2.929,27.731,6.977c1.859,0.807,3.593,1.935,5.568,2.461
		c2.14,0.62,4.204,1.471,6.197,2.461c-0.312-4.133,0.406-8.235,0.834-12.332c0.339-4.753,0.611-9.559-0.111-14.294
		c-1.659-10.098-7.735-19.34-16.282-24.945c-11.026-7.45-24.32-10.798-37.468-11.636C380.564,36.018,374.47,36.468,368.723,38.274
		 M345.767,95.738c3.308,4.659,8.975,6.438,13.995,8.578c5.863,2.568,12.604,2.965,18.756,1.235
		c9.786-2.684,19.095-7.677,29.43-7.887c12.296,0.027,24.548,4.088,34.463,11.351c3.295,2.327,5.279,5.974,6.937,9.545
		c0.531,2.189,1.489,4.244,1.939,6.456c1.284-0.642,2.26-1.89,2.104-3.397c-0.272-3.54-2.278-6.656-4.458-9.345
		c-3.589-4.329-8.141-7.784-13.001-10.571c-4.739-1.913-9.63-3.522-14.628-4.614c-5.123-1.03-10.343-1.52-15.564-1.645
		c-7.945-0.134-16.028,0.736-23.442,3.723c-4.293,1.494-8.458,4.173-13.179,3.678c-6.322-0.669-12.969-2.648-17.37-7.495
		c3.723,2.363,8.145,2.969,12.283,4.253c2.84,0.785,5.818,1.253,8.765,0.936c2.051-0.205,4.013-0.878,5.974-1.485
		c6.71-2.127,13.295-4.824,20.295-5.881c2.376-0.383,4.779-0.464,7.169-0.704c-10.901-1.953-22.038-2.622-33.086-1.761
		C363.89,91.346,354.483,92.358,345.767,95.738 M440.4,112.336c0.959,3.357,0.624,6.919,0.201,10.339
		c1.766,1.418,3.807,2.737,6.144,2.822c0.642,0.04,1.623,0.062,1.77-0.776c0.646-2.051-0.722-3.914-1.235-5.823
		c-0.985-3.259-3.977-5.19-6.407-7.307C440.708,111.837,440.552,112.082,440.4,112.336 M436.214,142.528
		c-2.238,7.009-4.588,13.99-6.866,20.986c1.627-2.113,3.183-4.298,4.365-6.696c1.623-3.192,3.148-6.581,3.25-10.223
		C436.985,145.212,437.101,143.692,436.214,142.528z"/>
	<path fill="#272324" d="M344.238,98.841c-0.036-0.589,0.192-1.101,0.655-1.458c1.146,5.653-0.08,11.413-0.134,17.111
		c-0.138,6.505,1.748,12.809,2.367,19.247c0.111,1.173,0.165,2.372,0.575,3.495c-2.546,1.988-6.38,1.694-8.89-0.21
		c2.39-0.455,4.828-0.268,7.245-0.446c-2.992-5.332-3.767-11.61-3.504-17.633C342.824,112.225,343.792,105.555,344.238,98.841z"/>
	<path fill="#272324" d="M409.651,116.273c5.279-3.718,11.94-5.283,18.342-4.935c3.112,0.29,6.46,0.896,8.903,2.983
		c-6.077,0.281-12.167-0.771-18.244-0.178C415.549,114.343,412.553,115.203,409.651,116.273z"/>
	<path fill="#272324" d="M367.809,119.167c3.206-3.963,8.609-4.967,13.42-5.297c3.063-0.12,6.563-0.37,9.131,1.609
		c0.388,0.473,1.333,1.101,0.785,1.788c-1.066,0.187-2.064-0.437-3.05-0.749c-1.65-0.736-3.478-0.803-5.247-0.945
		c0.825,1.757,1.173,3.91-0.076,5.573c1.864-0.094,3.901-0.41,5.649,0.406l0.031,0.468c-3.05,1.025-6.318,0.753-9.479,0.762
		c-3.134-0.071-6.371,0.281-9.38-0.807c1.529-0.156,3.067-0.218,4.605-0.259c-1.239-1.235-2.113-2.831-1.868-4.637
		C370.76,117.633,369.249,118.337,367.809,119.167 M375.13,117.851c-1.181,0.927-0.753,3.107,0.753,3.424
		c1.467,0.401,2.724-1.404,2.06-2.706C377.55,117.472,375.999,117,375.13,117.851z"/>
	<path fill="#272324" d="M407.778,118.431c0.183,6.581-1.061,13.183-0.138,19.746c0.379,3.179,1.141,6.313,1.222,9.523
		c-2.314-2.617-2.992-6.251-3.339-9.617C405.036,131.454,406.383,124.873,407.778,118.431z"/>
	<path fill="#272324" d="M412.433,120.036c2.889-2.029,6.741-1.427,9.84-0.232c2.751,1.159,5.555,2.769,7.102,5.417
		c-1.65-0.245-2.755-1.703-4.218-2.412c-0.129,1.494-1.177,2.564-2.443,3.228c2.492-0.062,5.368-0.281,7.294,1.636
		c-5.698-0.303-11.605,0.018-17.058-1.953c1.088-0.205,2.194-0.294,3.304-0.276c-1.556-1.663-0.847-4.057,0.245-5.751
		C415.13,119.653,413.775,119.813,412.433,120.036 M418.273,121.694c-1.645,0.709-1.141,3.879,0.807,3.531
		C421.042,124.713,420.373,121.003,418.273,121.694z"/>
	<path fill="#272324" d="M327.278,122.051c2.006-0.874,4.69-0.798,6.202,0.963c1.601,1.672,2.064,4.757-0.013,6.264
		c-1.132-1.146-1.288-2.813-2.127-4.12c-1.017-1.302-2.925-0.785-4.102,0c-1.761,1.097-3.174,2.853-3.531,4.935
		c-0.691,2.778-0.508,5.649-0.089,8.449c-1.128-1.917-2.381-3.91-2.381-6.219C320.88,128.088,323.337,123.732,327.278,122.051z"/>
	<path fill="#272324" d="M331.241,133.233c0.972-0.91,1.609-2.095,2.336-3.192c1.066,2.211-0.281,4.539-1.141,6.567
		c-0.767,1.48,0.103,3.099-0.125,4.641c-0.165,1.083-1.436,2.073-2.488,1.458c-1.832-1.088-2.225-3.58-1.672-5.493
		C328.611,135.524,330.064,134.423,331.241,133.233z"/>
	<path fill="#272324" d="M403.24,153.126c1.993-0.464,3.424-2.247,5.519-2.394c-0.321,2.55-2.992,3.843-5.239,4.329
		c-4.106,0.941-8.235-0.704-11.61-2.969C395.54,153.246,399.468,154.018,403.24,153.126z"/>
	<path fill="#272324" d="M358.339,164.415c-0.633-3.036,0.923-6.603,3.977-7.646c-0.646,2.024-1.489,4.106-1.213,6.277
		c0.049,1.07,0.419,2.336-0.37,3.237C359.565,166.492,358.527,165.511,358.339,164.415z"/>
	<path fill="#272324" d="M364.425,162.413c9.064,3.313,18.48,5.586,27.994,7.16c-2.341,0.624-4.797,0.535-7.196,0.473
		c-6.398-0.339-12.911-1.881-18.293-5.47c2.122,2.327,3.674,5.158,5.979,7.321c2.051,0.874,3.932,2.18,6.144,2.657
		c1.774,0.415,3.58,0.74,5.288,1.409c3.723,1.552,7.838,0.829,11.73,0.562c3.076-0.178,6.072-0.883,9.082-1.485
		c1.864-1.306,3.856-2.452,5.185-4.369c-5.546,1.066-11.293,0.589-16.75-0.758c4.797,0.486,9.67,0.196,14.338-1.048
		c1.85-0.41,3.879-1.092,5.711-0.25c-1.364,1.329-1.819,3.264-3.063,4.69c-3.308,4.115-7.664,7.659-12.885,8.93
		c-3.116,0.557-6.246-0.218-9.358-0.424c-3.932-0.285-8.114-0.477-11.516-2.706C370.76,175.244,367.969,168.329,364.425,162.413z"/>
	<path fill="#272324" d="M415.616,164.392c3.344,0.232,4.534,4.507,2.867,7c-0.432,0.548-1.311,1.025-1.908,0.441
		c-0.62-1.418,0.611-2.822,0.428-4.267C416.9,166.381,416.151,165.404,415.616,164.392z"/>
	<path fill="#272324" d="M394.122,187.799c2.644-0.468,5.033-1.73,7.285-3.143c0.076,1.65-1.418,2.764-2.555,3.718
		c-4.177,2.96-9.648,2.782-14.49,2.06c-3.576-0.482-7.423-1.815-9.34-5.105C380.975,187.946,387.689,189.109,394.122,187.799z"/>
	<path fill="#272324" d="M398.081,225.552c4.949,3.665,7.9,9.403,9.804,15.136c1.012,3.326,2.006,6.705,2.318,10.183
		c0.218-0.357,0.437-0.713,0.66-1.066c1.378,0.816,2.684,1.748,3.995,2.671c2.265,1.601,4.904,2.519,7.356,3.79
		c7.156,3.643,14.129,7.637,21.302,11.262c7.053,3.625,14.218,7.414,19.884,13.072c0.486,0.352,0.749,0.999,0.272,1.494
		c-0.651,0.089-1.271-0.147-1.877-0.325c-4.004-1.333-7.526-3.705-11.177-5.751c-11.418-6.282-22.595-12.987-33.772-19.684
		c-2.274-1.516-4.766-3.148-5.863-5.76c-0.187,0.317-0.366,0.638-0.539,0.963c1.859,9.135,2.336,18.467,3.62,27.686
		c0.593,4.525,2.042,8.868,3.665,13.117c0.909,2.216,1.003,4.623,1.52,6.937c-2.287,0.401-2.604-2.327-3.995-3.491
		c-5.011-4.053-8.431-9.813-13.932-13.313c-2.158-1.324-4.646-1.975-6.768-3.362c5.368-0.098,10.063,3.067,14.075,6.304
		c1.944,1.529,3.843,3.125,5.626,4.846c-0.86-6.469-1.81-12.92-3.001-19.336c-1.743-9.666-2.746-19.514-5.787-28.899
		c-1.391-4.387-3.148-8.663-5.377-12.689C399.414,228.08,398.54,226.916,398.081,225.552z"/>
	<path fill="#272324" d="M318.58,252.035c0.388,0.415,0.508,0.959,0.544,1.52c0.99,8.729,2.675,17.361,4.485,25.952
		c1.284,6.38,3.464,12.586,4.039,19.1c2.158-4.329,5.198-8.123,8.373-11.743c2.951-3.281,6.696-6.737,11.418-6.572
		c-2.301,2.519-5.127,4.476-7.593,6.821c-4.9,4.32-8.4,9.92-11.734,15.466c-0.651,0.963-0.749,2.14-0.963,3.255
		c-0.361,0.058-1.079,0.169-1.436,0.223c0.085-0.918,0.285-1.868-0.058-2.755c-1.868-5.885-3.058-11.957-4.169-18.025
		C319.431,274.345,317.358,263.199,318.58,252.035z"/>
	<path fill="#272324" d="M308.981,260.354c2.015-1.097,3.87-2.608,6.184-3.041c-0.482,1.98-1.881,3.531-3.335,4.877
		c-2.238,2.029-4.815,3.638-7.423,5.149c-10.589,6.046-21.454,11.65-32.765,16.237c-3.683,1.529-7.481,2.782-11.092,4.481
		c-3.723,1.672-7.285,3.669-10.968,5.43c-0.932,3.237-2.791,6.099-4.556,8.93c-8.926,13.536-16.603,27.869-23.326,42.613
		c-8.319,18.819-15.738,38.181-19.938,58.373c-0.366,1.404-0.218,3.13-1.471,4.128c-2.35,2.162-5.506,3.072-8.128,4.828
		c-2.639,1.569-5.395,3.705-8.658,3.228c0.178-1.239,1.235-1.984,2.211-2.595c2.483-1.534,4.989-3.032,7.508-4.503
		c2.341-1.387,4.655-3.094,7.459-3.313c1.364-18.208,6.215-36.015,13.067-52.89c5.872-14.262,12.711-28.137,20.62-41.383
		c3.946-6.531,8.31-13.027,14.392-17.762c0.183,0.004,0.553,0.013,0.74,0.018c1.587-2.969,4.476-4.913,7.321-6.549
		c5.814-3.17,11.676-6.264,17.704-9.015c8.337-3.865,16.567-7.972,24.561-12.515C302.266,263.266,305.766,262.111,308.981,260.354z"
		/>
	<path fill="#272324" d="M464.605,282.593c3.705,2.492,6.527,6.046,8.993,9.719c2.55,3.807,5.172,7.708,6.335,12.203
		c3.29-2.63,6.572-5.274,9.969-7.771c2.412-1.77,4.65-3.874,7.441-5.047c0.49-0.406,1.703-0.147,1.057,0.629
		c-2.042,2.755-5.033,4.561-7.691,6.661c-7.334,5.733-14.748,11.364-22.024,17.165c-2.136,1.725-4.356,3.344-6.585,4.944
		c-1.244,0.959-2.644,1.819-3.486,3.188c-0.107-0.036-0.317-0.107-0.424-0.143c5.631-6.442,12.278-11.877,18.899-17.254
		c-1.449-3.161-2.613-6.438-4.021-9.612C470.797,292.071,466.959,287.751,464.605,282.593z"/>
	<path fill="#272324" d="M539.862,287.84c1.922-1.757,4.708-2.385,7.187-1.534c4.204,1.351,7.539,4.436,10.629,7.463
		c2.269,2.35,4.498,4.753,6.527,7.316c-2.577-0.25-4.556-2.185-6.451-3.772c-3.143-2.831-6.286-5.711-9.831-8.034
		C545.537,287.68,542.595,287.804,539.862,287.84z"/>
	<path fill="#272324" d="M534.053,294.595c2.029-2.43,3.388-5.332,5.47-7.722c-0.232,3.513-2.202,6.581-4.204,9.358
		c-1.333,2.015-3.754,2.969-4.967,5.096c1.587,0.339,3.223,0.58,4.73,1.235c0.963,0.41,2.033,0.682,3.081,0.388
		c3.678-0.972,6.309-3.941,9.608-5.64c-0.04,0.366-0.125,1.106-0.165,1.476c1.743-0.013,3.473,0.259,5.185,0.58
		c9.724,1.828,19.367,4.044,29.02,6.215c10.878,2.385,21.735,4.842,32.6,7.272c4.628,1.057,9.082,2.791,13.785,3.54v0.633
		c-11.708,15.578-23.317,31.249-35.698,46.3c1.048-1.788,2.292-3.446,3.46-5.154c9.742-13.977,19.924-27.642,30.103-41.298
		c-4.677-0.963-9.452-1.315-14.115-2.336c-18.93-3.901-37.892-7.659-56.782-11.748c-2.795-0.499-5.573-1.208-8.128-2.479
		c-2.296,3.767-6.852,6.572-11.347,5.56c-2.006-0.66-4.12-1.667-5.319-3.473c-1.128-1.89,0.031-3.981,1.217-5.506
		c-7.365-0.994-14.681-2.314-22.033-3.397c-3.767-0.646-7.606-1.266-11.119-2.831c4.347-0.428,8.707,0.143,13.014,0.731
		C518.979,292.504,526.554,293.288,534.053,294.595z"/>
	<path fill="#272324" d="M496.357,294.84c0.562,0.334,1.079,0.767,1.525,1.262c5.288,5.872,11.525,10.771,17.606,15.778
		c5.265,4.409,10.865,8.422,15.872,13.134c1.654,1.654,3.326,3.513,3.825,5.876c-2.684-0.825-4.668-2.96-6.719-4.766
		c-2.978-2.965-6.282-5.569-9.51-8.252c-17.41,1.627-34.815,3.651-52.31,4.07c16.585-2.844,33.384-4.182,50.121-5.849
		c-5.805-5.707-12.582-10.428-17.74-16.781C498.007,297.912,496.727,296.587,496.357,294.84z"/>
	<path fill="#272324" d="M387.069,313.899c1.73-0.548,3.981,0.29,4.521,2.122c0.25,1.293-0.241,2.925-1.534,3.482
		c-1.355,0.575-2.211,2.523-3.941,1.788C383.034,319.931,383.957,314.693,387.069,313.899 M386.681,319.383
		c0.892-0.103,1.819-0.156,2.559,0.464c0.584-1.195,2.087-3.241,0.446-4.209C387.444,314.622,385.246,317.439,386.681,319.383z"/>
	<path fill="#272324" d="M611.258,315.607c0.758-0.147,1.529-0.241,2.314-0.281c-0.62,0.901-1.676,1.275-2.635,1.681
		c-4.048,1.609-8.44,1.873-12.675,2.72c-9.996,2.22-20.152,3.638-30.125,5.956c6.202,6.282,12.359,12.613,18.591,18.868
		c2.608,2.697,5.225,5.43,7.356,8.533c-3.362-2.131-6.233-4.931-9.131-7.633c-4.427-4.298-8.912-8.529-13.375-12.787
		c-2.091-2.131-4.467-3.995-6.309-6.353c-9.215,1.979-18.511,3.955-27.972,4.133c11.792-4.267,24.285-6.054,36.563-8.355
		C586.287,319.695,598.837,318.032,611.258,315.607z"/>
	<path fill="#272324" d="M449.134,316.244c0.843,2.657,0.914,5.47,0.99,8.239c0.415,9.367,1.311,18.707,1.837,28.07
		c0.16,2.341,1.186,4.498,1.899,6.705c2.586,7.102,4.846,14.329,7.682,21.342c2.483,6.313,5.515,12.381,8.533,18.444
		c-0.076-1.507-0.062-3.085,0.865-4.356c-1.119-8.622-1.177-17.548,1.404-25.921c2.229-7.16,6.014-14.039,11.775-18.957
		c2.8-2.318,5.832-4.548,9.412-5.461c-1.329-2.84-1.868-6.014-3.562-8.685c-5.448-1.538-10.865-3.174-16.295-4.757
		c-4.828-1.369-9.434-3.388-14.173-5.029c3.375,0.37,6.732,0.95,10.036,1.721c9.108,2.466,18.199,4.989,27.294,7.503
		c26.389,7.374,52.827,14.579,79.029,22.591c4.499,1.387,8.872,3.143,13.38,4.503c0.571,0.098,0.936,0.526,1.213,1.016
		c-4.962-1.039-9.956-1.98-14.837-3.348c-11.208-2.992-22.403-6.037-33.558-9.202c-2.202,6.331-3.643,12.898-5.711,19.274
		c-1.904,6.05-4.646,11.797-7.606,17.392c-2.813,5.417-6.928,10-9.831,15.364c3.375-10.816,10.415-20.107,13.331-31.106
		c2.14-7.303,3.491-14.811,5.751-22.078c-9.563-2.653-19.095-5.426-28.636-8.177c-1.69,2.158-3.313,4.365-4.748,6.701
		c-1.516,2.465-3.402,4.73-4.485,7.441c-1.748,4.494-2.416,9.305-3.807,13.906c-1.525-5.729,0.045-11.717,2.323-17.018
		c-0.905-1.355-1.445-2.893-1.953-4.423c1.079,0.557,2.158,1.115,3.228,1.699c1.507-3.326,3.157-6.63,5.502-9.461
		c-3.79-1.088-7.575-2.185-11.355-3.308c1.239,2.35,2.399,4.739,3.723,7.044c0.392,0.999,1.364,2.211,0.624,3.264
		c-1.092,0.504-2.408-0.147-3.531,0.397c-6.581,2.403-12.104,7.303-15.702,13.277c-4.03,6.674-5.836,14.418-6.982,22.056
		c-0.704,6.041-1.315,12.323,0.486,18.239c0.66,2.22,1.391,4.561,3.027,6.286c1.324,1.449,3.46,0.709,4.993,0.04
		c4.218-2.082,6.897-6.268,8.703-10.464c-3.776-3.081-7.361-6.433-10.299-10.339c-2.439-3.156-4.779-6.549-5.653-10.513
		c1.899,1.85,3.567,3.914,5.328,5.894c3.299,3.857,7.12,7.227,11.168,10.277c5.163,3.848,10.272,7.936,16.282,10.406
		c3.62,1.739,7.624,2.871,11.663,2.22c-0.12,1.418-1.476,2.292-2.693,2.742c-2.577,0.82-5.354,0.41-7.923-0.241
		c-5.832-1.592-10.874-5.114-15.631-8.721c-3.121,3.299-4.637,7.762-7.882,10.945c-1.895,1.837-4.721,3.206-7.37,2.301
		c-1.712-0.695-3.491-1.378-4.873-2.639c-2.555-2.207-3.995-5.323-5.568-8.235c-2.399-4.244-4.686-8.556-6.567-13.059
		c-3.165-7.454-5.207-15.31-7.307-23.112c-0.361,7.905-1.128,15.787-2.1,23.638c-1.85,14.927-3.576,29.867-5.631,44.766
		c-1.235,8.77-2.336,17.584-4.49,26.188c-1.226,4.655-2.323,9.496-5.06,13.545c-1.681,2.63-4.075,4.686-6.576,6.505
		c0.12,1.957,0.267,3.91,0.348,5.872c0.053,2.497,0.597,4.976,0.268,7.477c3.13,4.614,3.999,10.272,4.539,15.702
		c1.146,12.822,2.956,25.573,4.146,38.396c1.057,9.447,1.213,18.957,1.641,28.444c0.134,5.069,0.143,10.205-0.945,15.181h-0.629
		c-0.794-4.628-0.535-9.336-1.03-13.986c-0.539-6.068-1.659-12.06-2.301-18.114c-0.691-6.237-1.15-12.497-1.85-18.734
		c-1.088-9.496-2.372-18.979-3.058-28.516c-0.33-4.878-1.177-9.697-2.385-14.427c-3.099,3.964-8.257,4.842-12.684,6.563
		c2.532-2.501,5.925-3.874,8.489-6.331c1.413-1.422,2.836-3.272,2.59-5.395c-0.143-3.411-0.477-6.83-0.201-10.241
		c-4.124,2.305-8.627,3.932-13.281,4.757c4.94-4.106,10.95-6.741,15.635-11.173c2.969-2.724,5.096-6.304,6.282-10.138
		c2.274-10.178,4.494-20.388,5.76-30.749c1.534-11.106,2.951-22.225,4.378-33.344c1.877-14.837,4.066-29.675,4.494-44.651
		c0.169-9.813,0.285-19.644-0.276-29.448C448.006,323.208,448.082,319.628,449.134,316.244z"/>
	<path fill="#272324" d="M275.369,331.474c0.606,2.969,0.299,6.023,0.303,9.033c-0.08,5.542-0.878,11.039-1.748,16.496
		c0.767,3.513,1.052,7.098,1.449,10.664c1.56,9.875,3.914,19.612,5.47,29.492c0.486,4.307,1.752,8.498,1.962,12.84
		c35.279,9.051,70.527,18.235,105.561,28.195c6.121,1.583,12.051,3.79,18.092,5.64c-0.076,0.767-0.12,1.547-0.049,2.327
		c2.055,19.229,2.26,38.587,2.827,57.901c1.627,0.094,3.21-0.268,4.748-0.767c-1.181,1.663-2.987,2.666-4.672,3.736
		c0.477,15.083,0.976,30.165,1.231,45.257c-0.085,2.577,0.227,5.27-0.829,7.704c-0.99,0.379-1.926,0.892-2.746,1.569
		c-3.669,3.014-7.856,5.292-11.908,7.731c-6.937,3.879-13.634,8.181-20.687,11.841c-2.662,1.498-5.644,2.327-8.243,3.941
		c-2.064-0.918-4.378-0.794-6.554-1.253c-5.742-1.177-11.373-2.853-17.022-4.405c-3.549-0.936-7.013-2.185-10.633-2.818
		c-1.217,1.73-2.465,3.469-3.977,4.958c-1.141,0.704-2.439,1.387-2.63,2.876c-3.005,3.749-8.284,4.311-12.764,4.155
		c-5.074-0.085-9.706-2.31-14.32-4.151c-2.697-1.141-5.618-1.645-8.252-2.934c-3.036-1.458-5.176-4.28-6.567-7.272
		c-1.939-4.244-2.43-8.944-3.014-13.518c-1.489-0.37-2.974-0.718-4.467-1.048c-0.129,8.573-1.364,17.071-1.913,25.613
		c-0.147,1.65,0.036,3.375-0.593,4.953c-0.334-2.969-0.156-5.961-0.241-8.935c-0.009-7.41-0.045-14.82,0.018-22.225
		c-8.694-1.77-17.2-4.343-25.747-6.701c-11.07-3.17-22.145-6.34-33.197-9.581c-8.721-2.644-17.584-4.886-26.028-8.355
		c-1.288-0.611-2.679-0.838-4.088-0.892c-0.78-1.07-1.079-2.448-1.333-3.736v-47.575c0.285-2.35,0.12-4.717,0.174-7.071
		c0.178-18.123-0.085-36.264,1.124-54.356c0.058-1.569,0.419-3.179,0.022-4.721c1.543,0.361,3.152-0.022,4.69,0.397
		c4.628,1.079,9.26,2.18,13.808,3.58c0.432-2.229,1.025-4.476,2.314-6.38c-1.721-1.609-3.081-3.598-3.709-5.885
		c3.29,3.727,7.526,6.442,12.073,8.386c7.905,3.923,16.322,7.325,25.234,7.793c5.702,0.303,11.253-1.529,16.937-1.485
		c0.696-0.103,0.901,0.794,0.883,1.324c-1.663,1.779-3.968,2.751-6.157,3.723c-0.682,1.997-1.378,3.995-2.118,5.974
		c9.768,1.73,19.22,4.837,28.756,7.512c22.461,6.518,44.958,12.934,67.286,19.902c6.456,1.873,12.635,4.592,19.086,6.474
		c-0.04-0.272-0.125-0.816-0.169-1.088c0.12,0.192,0.352,0.58,0.468,0.771c1.966-1.73,4.062-3.321,6.371-4.561
		c5.863-3.379,11.779-6.67,17.718-9.915c5.653-3.072,11.293-6.233,17.374-8.395c-8.734-2.238-17.619-3.856-26.34-6.153
		c-34.539-8.765-68.851-18.404-103.216-27.842c-4.61-1.173-9.001-3.018-13.487-4.583c-1.498,4.735-1.828,9.782-3.705,14.405
		c-1.841-4.53-0.379-9.434,0.406-14.022c2.024-10.335,4.588-20.553,7.031-30.794c1.922-9.327,4.971-18.373,7.142-27.642
		C274.121,342.295,274.812,336.887,275.369,331.474 M271.383,367.6c-2.943,12.644-5.297,25.462-9.403,37.807
		c6.126,1.422,12.323,2.546,18.435,4.026c-1.467-3.005-2.042-6.313-2.76-9.545C275.066,389.232,272.788,378.479,271.383,367.6
		 M204.191,428.809c-0.843,4.77-1.609,9.577-3.005,14.231c-0.138,0.589-0.424,1.146-0.874,1.565
		c0.299-7.289,1.043-14.565,1.926-21.806c-3.469-0.7-6.777-2.006-10.268-2.626c-2.363-0.678-5.247-1.088-6.679-3.326
		c-0.361,0.816-0.214,1.703-0.143,2.568c0.887,18.868,0.758,37.767,0.918,56.653c0.036,16.688,0.263,33.38,0.058,50.068
		c-0.21,2.372,0.196,4.917-0.981,7.098c8.043,1.083,15.899,3.255,23.714,5.421c18.707,5.181,37.437,10.303,56.024,15.907
		c5.216,1.494,10.25,3.549,15.404,5.23c-0.638-5.729-1.734-11.659-5.23-16.407c2.871,1.966,4.953,4.913,6.157,8.154
		c2.568,6.643,2.546,13.932,4.806,20.656c0.963,2.969,3.085,5.488,5.765,7.075c3.495,2.118,7.512,3.076,11.382,4.262
		c7.138,2.113,14.913,1.922,21.971-0.366c2.171-1.752,2.474-4.717,3.625-7.098c-2.073-0.406-4.102-0.985-6.184-1.315
		c-1.48-0.236-3.272-0.909-3.486-2.613c-0.366-2.934-0.325-5.912-0.959-8.81c1.449,2.029,2.127,4.441,2.902,6.777
		c0.259,1.271,1.685,1.262,2.693,1.498c1.043,0.169,1.975,0.727,3.014,0.918c4.441,0.682,8.908,1.511,13.063,3.29
		c8.417,2.488,17.169,4.079,25.185,7.775c-1.534-7.512-1.034-15.212-1.128-22.822c-0.29-15.306-0.695-30.611-0.95-45.917
		c-0.312-15.578-0.687-31.173,0.156-46.737c-4.53-0.317-8.796-1.899-13.139-3.076c-13.139-3.446-26.13-7.41-39.158-11.253
		c-16.451-4.877-32.885-9.822-49.278-14.904c-4.597-1.453-9.019-3.388-13.562-4.98c-1.177,3.281-2.51,6.5-3.995,9.652
		c3.816,3.937,6.639,8.685,9.175,13.509c4.102,7.847,7.98,15.814,11.984,23.714c2.443-0.869,4.993-1.36,7.53-1.881
		c7.686-1.73,15.439-3.148,23.152-4.766c6.532-1.23,12.969-3.058,19.621-3.558l0.727,0.589c-2.764,0.379-5.363,1.494-8.096,2.015
		c-8.886,1.739-17.758,3.558-26.621,5.39c-5.319,1.003-10.606,2.26-15.983,2.893c2.189,4.293,4.36,8.591,6.567,12.876
		c5.132,10.192,11.092,19.956,17.905,29.109c9.456-2.608,19.104-4.414,28.645-6.674c4.249-0.901,8.462-2.305,12.849-2.225
		c-0.254,0.325-0.575,0.553-0.959,0.682c-6.545,2.269-13.438,3.25-20.147,4.904c-6.54,1.436-12.903,3.839-19.63,4.276
		c2.176,2.8,4.472,5.51,6.995,8.007c1.132,1.155,2.452,2.127,3.478,3.393c-5.921-2.194-10.343-7.004-14.2-11.815
		c-7.361-9.554-13.897-19.742-19.581-30.375c-5.64-10.664-10.816-21.561-16.313-32.296c-3.923-7.535-8.591-14.641-12.742-22.038
		c1.583,0.802,2.96,1.926,4.378,2.983c0.419-2.457,1.418-4.757,1.913-7.191c0.468-2.158,0.878-4.32,1.387-6.465
		c-6.723,1.021-13.629-0.04-19.987-2.336c-6.674-2.421-12.501-6.576-18.333-10.522C206.679,420.151,204.922,424.351,204.191,428.809
		 M402.816,446.821c-3.642,2.755-7.709,4.869-11.694,7.08c-5.381,2.885-10.758,5.787-16.184,8.591
		c-3.749,1.886-7.379,4.12-11.525,5.038c1.659,20.482,2.301,41.03,2.876,61.57c0.361,13.388,0.878,26.773,1.11,40.161
		c0.018,4.641,0.535,9.34-0.303,13.937c6.772-5.386,14.516-9.314,21.962-13.66c6.3-3.602,12.506-7.459,19.309-10.058
		c-0.709-2.171-0.981-4.449-1.021-6.719c-0.727-20.504-0.945-41.021-1.489-61.53c-0.366-15.542-0.651-31.106,0.227-46.635
		C404.965,445.292,403.877,446.036,402.816,446.821z"/>
	<path fill="#272324" d="M378.589,341.849c-0.883-3.027,1.128-6.866,4.414-7.258c1.239-0.254,2.853,0.165,3.214,1.538
		c0.794,2.162,1.222,4.944-0.343,6.861c-0.629,0.74-1.436-0.031-2.122-0.245c0.651-0.201,1.427-0.459,1.538-1.239
		c0.437-1.596,0.352-3.379-0.424-4.86c-2.162,0.094-4.556,1.511-4.588,3.897c-0.12,1.48,1.284,2.247,2.327,2.96
		C381.073,344.319,379.08,343.516,378.589,341.849z"/>
	<path fill="#272324" d="M370.047,354.002c3.201-0.883,6.514-1.226,9.782-1.788c2.675-0.441,5.64-0.691,8.052,0.807
		c-1.783,1.338-4.142,1.262-6.255,1.471c-4.2,0.076-8.444,1.168-12.599,0.12C369.267,354.243,369.61,354.038,370.047,354.002z"/>
	<path fill="#272324" d="M201.476,445.109c0.557,0.401,1.017,0.918,1.324,1.538c6.853,12.283,14.423,24.213,23.362,35.096
		c7.771,9.474,15.653,18.85,23.415,28.333c6.121,7.539,12.466,14.904,18.391,22.604c2.354,3.219,4.824,6.402,6.652,9.96
		c-4.721-3.237-8.453-7.682-12.332-11.837c-4.356,1.627-9.037,2.122-13.522,3.299c-5.6,1.19-11.079,3.781-16.92,3.179
		c0.914-1.025,2.265-1.422,3.509-1.872c4.779-1.56,9.849-1.832,14.704-3.09c3.848-0.771,7.602-2.02,11.512-2.439
		c-6.135-7.303-12.18-14.681-18.351-21.957c-4.779-5.729-9.594-11.431-14.195-17.307c-5.19,1.895-10.589,3.183-16.028,4.124
		c4.926-1.948,9.777-4.173,14.944-5.421c-6.96-8.685-13.433-17.78-18.908-27.481c-2.269-4.137-4.949-8.074-6.723-12.461
		C201.802,448.012,201.351,446.58,201.476,445.109z"/>
	<path fill="#272324" d="M315.575,472.171c0.143-0.303,0.294-0.597,0.45-0.887c3.46,5.626,4.65,12.185,6.625,18.386
		c1.659,4.507,3.032,9.108,4.534,13.665c1.181,3.62,3.063,7.031,3.741,10.807c-3.54-4.115-5.105-9.465-6.71-14.543
		c-1.752-6.153-4.057-12.127-5.965-18.23C317.233,478.337,316.52,475.221,315.575,472.171z"/>
	<path fill="#272324" d="M213.126,495.15c4.655,10.107,9.073,20.321,13.874,30.361c1.623,3.785,3.428,7.677,3.576,11.859
		c-1.467-1.204-2.046-3.081-2.809-4.739C223.117,520.045,217.049,507.999,213.126,495.15z"/>
	<path fill="#272324" d="M302.315,536.243c7.414,4.944,16.79,6.514,23.362,12.778c3.027,2.947,5.194,6.928,9.122,8.832
		c4.084,2.011,8.77,1.306,13.09,2.283c-1.832,2.461-5.426,2.537-8.11,1.641c-6.264-2.1-10.673-7.289-16.081-10.803
		C316.538,546.131,308.316,542.631,302.315,536.243z"/>
	<path fill="#272324" d="M316.128,558.075c5.979,3.718,13.014,4.846,19.514,7.285c2.376,0.954,4.98,0.419,7.419,0.04
		c2.465-0.383,4.539-2.176,5.337-4.53c1.333,1.552,0.143,3.576-1.043,4.811c-2.171,2.639-5.925,3.393-9.162,2.8
		c-3.767-0.66-7.356-2.038-10.999-3.165C322.953,563.969,318.709,561.838,316.128,558.075z"/>
</g>
</svg>
