<?xml version="1.0" encoding="utf-8"?>
<!-- Generator: Adobe Illustrator 17.0.0, SVG Export Plug-In . SVG Version: 6.00 Build 0)  -->
<!DOCTYPE svg PUBLIC "-//W3C//DTD SVG 1.1//EN" "http://www.w3.org/Graphics/SVG/1.1/DTD/svg11.dtd">
<svg version="1.1" id="Layer_1" xmlns="http://www.w3.org/2000/svg" xmlns:xlink="http://www.w3.org/1999/xlink" x="0px" y="0px"
	 width="800px" height="600px" viewBox="0 0 800 600" enable-background="new 0 0 800 600" xml:space="preserve">
<g>
	<path fill="#231F20" d="M423.219,394.361c-0.402-3.372-4.523-5.171-7.46-3.735c-0.246,0.118-0.333,0.352-0.333,0.606
		c-1.141,0.599-1.944,1.754-2.19,3.001c-0.682,3.425,2.516,5.872,5.721,5.562C421.638,399.536,423.541,396.99,423.219,394.361z
		 M419.134,397.839c-1.962,0.538-4.171-0.841-4.171-2.917c0-1.576,1.057-2.444,2.33-2.75c1.61,0.182,3.345,0.326,3.917,2.076
		C421.718,395.789,420.623,397.415,419.134,397.839z"/>
	<path fill="#231F20" d="M408.22,346.891c-0.648-0.921-1.591-1.193-2.591-1.087c-1.807-0.061-3.523,0.344-4.55,2.019
		c-1.174,1.902,0.159,4.228,1.349,5.736c1.674,2.125,4.008,1.106,5.243-0.849C408.644,351.161,409.368,348.539,408.22,346.891z
		 M406.265,350.983c-0.25,0.553-0.568,1.072-1.008,1.5c-0.296,0.28-0.595,0.334-0.735,0.273c-1.023-0.462-1.814-2.107-1.921-3.235
		c0.845-0.44,1.633-1,2.519-1.334c0.47-0.182,1.182-0.269,1.288-0.174C406.993,348.487,406.617,350.142,406.265,350.983z"/>
	<path fill="#231F20" d="M398.537,300.57c-1.641-3.557-5.986-1.22-7.66,0.902c-0.121,0.152-0.175,0.345-0.193,0.527
		c-0.527,0.955-0.781,2.084-0.602,3.277c0.515,3.41,4.633,4.349,7.122,2.406C399.245,306.097,399.563,302.779,398.537,300.57z
		 M396.355,305.537c-0.947,1.565-3.614,1.538-4.243-0.311c-0.348-1.026-0.068-2.015,0.508-2.841c1.14-0.841,3.042-2.141,3.895-1.042
		C397.404,302.517,397.055,304.381,396.355,305.537z"/>
	<path fill="#231F20" d="M561.774,262.678c-1.262-5.834-6.997-7.187-12.184-6.285c2.481-1.856,4.618-4.205,6.171-6.781
		c0.348-0.58-0.011-1.212-0.587-1.432c-4.925-1.943-11.854,0.8-16.059,4.948c0.621-3.936,0.061-8.626-1.042-12.138
		c-0.246-0.784-1.246-1.091-1.856-0.485c-4.588,4.611-5.69,11.843-3.682,17.942c-6.91-0.974-14.226-0.754-21.083-1.326
		c-9.43-0.803-19.052-0.936-28.432,0.379c-8.342,1.151-16.537,3.182-24.708,5.152c-5.459,1.318-11.032,2.186-16.537,3.262
		c0.121-1.648,0.375-3.277,0.867-4.883c0.034-0.03,0.087-0.053,0.129-0.087c0.159-0.114,0.144-0.349,0.038-0.466
		c0.007-0.042,0.022-0.068,0.026-0.102c0.087-0.246-0.307-0.413-0.413-0.174c-0.046,0.095-0.08,0.193-0.125,0.288
		c-3.993,1.568-8.081,2.891-12.24,3.936c16.298-6.69,30.728-18.196,40.957-32.467c0.242,0,0.474-0.095,0.602-0.364
		c0.231-0.511,0.485-1.011,0.727-1.527c0.746-1.106,1.481-2.228,2.182-3.368c4.201-6.811,7.16-14.207,9.1-21.875
		c4.398-11.327,7.566-23.026,7.8-35.578c0.201-11.123-2.629-21.818-7.539-31.527c5.065,4.417,12.517,5.133,18.014,0.841
		c5.565-4.345,9.134-10.702,11.384-17.294c4.262-12.525,3.444-28.368-5.864-38.457c-8.884-9.619-22.848-8.399-33.649-3.027
		c-10.312,5.122-19.833,16.646-14.741,28.558c-27.716-21.166-66.851-27.285-99.061-13.154c-7.228,3.164-14.053,7.213-20.312,12.006
		c-0.534-2.103-2.883-4.516-3.949-5.96c-0.421-0.568-1.095-0.685-1.648-0.204c-0.923,0.773-1.83,1.674-2.711,2.641
		c-0.14-6.584-4.497-13.078-8.613-17.795c-4.412-5.046-10.176-8.895-16.662-10.638c-11.344-3.05-22.881,2.364-29.459,11.657
		c-7.789,10.99-7.099,26.273-0.388,37.514c6.412,10.725,23.354,21.37,35.564,13.544c0.534,0.318,1.116,0.477,1.75,0.496
		c-9.308,18.775-9.035,40.302-3.737,60.267c0.968,9.861,4.002,19.529,8.769,28.387c10.115,18.795,27.042,31.994,46.393,38.779
		c-0.379-0.068-0.761-0.114-1.14-0.185c-2.557-0.462-5.065-1.175-7.52-2.004c-2.534-0.845-4.872-2.546-7.459-3.122
		c-0.188-0.038-0.354-0.015-0.508,0.026c-0.367-0.367-1.095-0.22-1.161,0.466c-0.28,2.599-0.434,5.312-0.415,8.047
		c-10.216-2.141-20.344-4.417-30.513-7.123c-8.401-2.243-18.73-5.073-28.178-5.179c-0.008-0.133-0.008-0.269-0.027-0.39
		c-0.053-0.292-0.322-0.447-0.602-0.451c-0.447-2.83-1.341-5.687-2.408-8.229c-1.007-2.41-2.343-5.944-4.803-7.293
		c-1.582-0.867-2.73,0.58-2.984,2.008c-0.153,0.875-0.166,1.78-0.087,2.709c-3.023-3.963-7.82-6.804-12.75-5.558
		c-0.621,0.159-0.881,0.894-0.587,1.428c1.64,2.902,3.775,5.451,6.044,7.88c1.542,1.641,3.256,3.512,5.131,4.997
		c-4.169-2.656-9.668-2.515-14.326-1.258c-0.913,0.239-0.881,1.311-0.233,1.807c3.317,2.55,8.253,3.97,12.811,3.91
		c-2.762,1.981-4.61,5.459-5.039,8.66c-0.066,0.466,0.476,0.989,0.928,0.936c2.843-0.322,5.724-1.705,8.221-3.565
		c-1.489,3.697-1.854,8.547,2.489,7.895c3.182-0.466,4.624-3.353,5.759-6.092c0.68-1.618,1.534-3.565,2.055-5.52
		c3.176,0.682,6.385,1.273,9.515,2.084c6.727,1.728,13.212,4.19,19.81,6.319c9.869,3.182,20.232,7.297,30.694,8.744
		c0.428,2.012,1.015,3.959,1.837,5.808c0.36,0.826,1.246,0.667,1.705,0.133c5.914,2.182,14.241,3.735,20.238,1.822
		c-1.622,4.429-2.982,8.952-4.183,13.407c-3.523,13.15-5.603,26.709-7.225,40.199c-3.383,28.065-2.891,57.77,5.99,84.85
		c0.322,0.981,1.61,1.133,2.19,0.515c7.899,0.686,15.775,1.966,23.663,3.016c0.337,7.266,3.035,14.551,4.456,21.625
		c1.829,9.115,3.383,18.283,4.504,27.512c2.156,17.673,2.804,35.971-0.315,53.618c-0.735-0.246-1.595,0.242-1.735,0.989
		c-0.773,0.106-1.553,0.295-2.341,0.375c-2.697,0.265-5.406,0.281-8.1,0.368c-5.058,0.151-10.377,0.325-15.04,2.462
		c-5.865,2.682-16.51,9.915-9.422,16.927c5.937,5.88,17.34,5.626,24.75,3.675c10.759-2.823,18.586-12.638,13.195-23.113
		c6.959-15.938,7.38-32.983,6.285-50.364c-0.58-9.236-1.993-18.415-3.508-27.531c-1.409-8.528-3.804-17.029-4.876-25.618
		c5.368,0.534,10.748,0.849,16.147,0.644c12.869-0.47,25.557-4.228,36.911-10.191c0.197-0.099,0.386-0.22,0.587-0.333
		c2.137,10.661,7.796,21.814,16.423,24.716c7.842,2.629,14.286-1.364,19.636-6.903c3.285-3.394,7.156-8.479,9.297-13.764
		c0.114,2.175,0.265,4.376,0.231,6.546c-0.057,3.69-0.151,7.399-0.231,11.082c-0.102,5.232-0.489,10.577,1.174,15.623
		c1.375,4.167,5.391,7.236,9.88,6.728c4.467-0.512,7.012-5.167,8.509-8.888c3.277-8.119,0.568-17.972-2.576-25.72
		c-1.656-4.084-3.944-8.089-7.308-11.005c-2.027-1.773-5.402-3.375-8.047-2.228c-0.019-0.474-0.053-0.962-0.118-1.428
		c-0.129-0.905-1.383-0.867-1.788-0.239c-4.925,7.637-16.01,31.486-28.342,21.912c-6.183-4.819-8.16-13.093-9.153-21.011
		c8.047-5.433,15.234-12.146,21.594-19.439c8.388-9.634,16.404-21.219,16.446-34.384c-0.095-0.587-0.167-1.163-0.22-1.743
		c-0.288-0.098-0.58-0.212-0.867-0.367c-0.507-0.246-0.989-0.564-1.455-0.94c-9.714-3.762-18.177-9.501-26.371-15.953
		c-8.426-6.633-16.435-13.805-24.068-21.348c-8.232-8.138-15.946-16.832-22.852-26.141c-2.053-2.769-4.004-5.626-5.872-8.528
		c3.031,0.151,6.179-0.421,9.016-1.076c4.644-1.08,9.994-2.648,14.271-4.959c0.428,0.03,0.883-0.265,1.042-0.704
		c0.012-0.034,0.012-0.08,0.027-0.121c0.007-0.045,0.026-0.08,0.026-0.125c0.087-1.216,0.091-2.444,0.072-3.679
		c4.792-0.402,9.778-1.966,14.138-3.114c8.248-2.171,16.309-4.94,24.625-6.887c9.179-2.148,18.696-2.5,28.076-2.709
		c7.827-0.174,16.529,0.788,24.443-0.413c-0.166,5.778,3.148,12.665,6.778,16.207c0.341,0.326,0.928,0.273,1.167-0.148
		c1.61-2.841,2.375-5.857,1.663-8.914c1.015,0.936,2.129,1.762,3.156,2.569c1.962,1.516,4.357,3.232,6.944,3.277
		c2.326,0.034,3.345-2.421,2.944-4.376c-0.421-1.977-2.269-3.743-4.163-4.853c3.318,0.163,6.781-0.466,9.585-1.36
		C561.622,263.659,561.88,263.189,561.774,262.678z M282.134,268.709c-0.701,1.087-1.775,1.875-3.158,1.686
		c-1.14-0.171-0.852-2.122-0.786-2.868c0.172-1.883,0.894-3.588,1.68-5.285c0.769-0.758,1.489-1.561,2.089-2.379
		c0.381-0.53-0.328-1.007-0.794-0.795c-4.004,1.826-6.493,5.717-10.842,6.811c0.807-3.228,3.103-5.198,5.171-7.675
		c0.846-0.11,1.667-0.265,2.436-0.504c0.86-0.254,0.659-1.47-0.208-1.523c-5.004-0.273-9.769,0.106-14.178-2.133
		c4.111-0.716,8.153-0.201,12.263,0.86c0.127,0.038,0.254-0.072,0.254-0.201c0.547,0.379,1.101,0.72,1.669,1.023
		c0.754,0.371,1.428-0.515,0.887-1.155c-1.982-2.292-4.597-4.126-6.732-6.308c-2.103-2.14-4.031-4.463-5.626-6.997
		c4.872-0.443,8.348,3.701,11.511,7.156c0.328,1.171,0.754,2.285,1.187,3.311c0.347,0.815,1.482,0.193,1.349-0.568
		c-0.441-2.413-1.082-4.823-1.137-7.286c-0.005-0.534,0.322-1.595,0.068-1.64c0.667,0.121,1.328,1.341,1.656,1.807
		c1.553,2.315,2.622,4.989,3.429,7.634c0.621,2.023,1.034,4.144,1.915,6.065C284.843,261.382,284.348,265.303,282.134,268.709z
		 M384.625,553.348c-5.527,0.955-17.601,0.765-20.287-5.626c-1.398-3.33,2.792-6.437,5.046-8.005
		c4.357-3.046,8.82-4.425,14.059-4.88c4.331-0.371,8.695-0.265,13.025-0.758c0.913-0.11,2.163-0.25,3.171-0.663
		C404.909,543.926,394.521,551.655,384.625,553.348z M507.781,419.57c2.709,2.682,4.429,6.418,5.812,9.911
		c2.5,6.323,4.717,14.423,2.962,21.185c-1.023,3.936-3.709,10.028-8.706,9.339c-5.353-0.739-6.315-7.013-6.581-11.335
		c-0.254-4.126,0.064-8.323,0.125-12.453c0.102-6.296,1.341-13.797-0.704-19.87c-0.034-0.118-0.102-0.227-0.174-0.315
		C503.311,416.808,505.5,417.301,507.781,419.57z M482.046,134.222c-2.462-4.296-5.345-8.365-8.551-12.176
		c0.068-0.027,0.148-0.053,0.22-0.083c0.042,0.03,0.095,0.042,0.144,0.03c0.08-0.023,0.118-0.076,0.151-0.137
		c4.819-1.621,11.457,0.216,15.419,3.311C487.501,128.873,485.046,131.487,482.046,134.222z M505.137,83.896
		c0.644,0.614,1.224,1.28,1.777,1.955c-0.352-0.258-0.909-0.284-1.216,0.208c-7.384,11.57-16.093,21.651-28.118,28.58
		c-0.231,0.133-0.027,0.481,0.216,0.367c12.423-6.008,22.265-16.412,29.331-28.118c0.14-0.227,0.163-0.455,0.095-0.652
		c6.452,8.244,6.986,20.238,4.838,30.069c-1.235,5.633-3.611,11.111-7.153,15.661c-2.33,2.996-5.133,5.592-8.827,6.717
		c-4.232,1.303-7.834-1.099-11.252-3.22c3.19-2.341,5.831-7.66,6.922-10.289c0.03-0.083,0.045-0.167,0.053-0.261
		c11.028-4.645,19.003-15.567,19.908-27.618c0.042-0.534-0.739-0.595-0.879-0.133c-1.709,5.618-3.216,11.043-6.433,16.033
		c-3.118,4.853-7.702,8.562-12.873,11.009c-0.019-0.011-0.026-0.038-0.045-0.045c-3.111-2.531-7.213-4.004-11.176-4.508
		c-1.333-0.171-4.095-0.478-5.819,0.273c0.034-0.148,0.072-0.303,0.095-0.5c0.152-1.735,0.258-3.493,0.371-5.232
		c0.22-3.372,0.583-6.808,0.368-10.183c-0.027-0.515-0.421-1.042-0.985-1c-1.163,0.08-2.652,0.125-4.239,0.231
		c2.315-4.402,4.864-8.179,8.797-11.525c4.368-3.709,9.82-6.683,15.26-8.441c0.204-0.064,0.113-0.386-0.095-0.326
		c-10.437,2.671-22.492,9.282-25.731,20.439c-3.201,0.329-6.463,1.061-8.039,2.981c-0.027,0.034-0.042,0.076-0.061,0.106
		C455.708,84.51,489.699,68.939,505.137,83.896z M473.283,120.902c-0.106,0.182-0.185,0.39-0.235,0.61
		c-1.019-1.182-2.061-2.357-3.148-3.49c-2.929-3.065-6.081-5.895-9.388-8.528c0.421-0.409,0.769-0.83,1.341-1.14
		c0.814-0.447,1.735-0.697,2.61-0.997c0.364-0.125,0.53-0.473,0.527-0.807c0.561-0.182,1.132-0.36,1.72-0.481
		c2.19-0.489,4.436-0.739,6.671-0.974c0.163,3.262-0.091,6.584-0.239,9.827C473.056,116.928,472.756,118.996,473.283,120.902z
		 M334.54,103.255c1.101,1.754,2.103,3.83,3.502,5.232c-4.516,3.637-8.706,7.653-12.483,12.036
		C326.639,114.219,329.456,107.112,334.54,103.255z M294.011,136.609c-6.647-2.3-12.091-7.539-15.802-13.37
		c-6.592-10.324-6.552-24.155-0.066-34.487c5.579-8.907,16.196-13.544,26.483-11.456c5.711,1.171,10.684,4.512,14.794,8.516
		c2.802,2.728,5.098,5.925,6.946,9.361c1.868,3.497,2.28,7.066,3.063,10.843c-3.65,4.906-6.313,11.218-5.906,16.809
		c-2.042-0.174-4.137-0.629-6.158-0.697c-3.576-0.136-7.34-0.325-10.829,0.576c-0.587,0.148-0.949,0.796-0.782,1.367
		c0.788,2.69,1.962,10.081,5.012,13.078C304.98,137.938,299.836,138.624,294.011,136.609z M310.064,131.074
		c-0.773-2.103-1.267-4.311-1.854-6.482c3.529-0.746,7.298-0.466,10.877-0.466c0.881,0,2.235,0.087,3.489-0.053
		c-3.055,3.952-5.779,8.157-8.121,12.604C312.394,134.987,311.12,133.889,310.064,131.074z M308.977,182.563
		c-0.307-2.44-0.553-4.902-0.687-7.372c-0.608-11.896,1.601-23.561,6.573-34.369c8.128-17.723,23.148-31.835,40.243-40.809
		c38.305-20.147,87.892-9.054,116.207,22.905c12.32,13.9,18.711,31.797,17.692,50.341c-0.322,5.797-1.39,11.528-2.891,17.154
		c0.132-1.25,0.239-2.5,0.326-3.758c0.182-2.77,0.216-5.509,0.163-8.248c-0.28-2.739-0.576-5.516-0.943-8.278
		c-0.091-0.417-0.171-0.834-0.261-1.258c-1.106-10.388-3.576-20.583-9.02-29.634c-5.391-8.967-13.972-15.211-23.349-19.863
		c-0.117-1.515-0.166-3.034-0.125-4.55c0.008-0.246-0.386-0.307-0.421-0.061c-0.227,1.367-0.326,2.77-0.341,4.182
		c-4.925-2.379-10.039-4.341-15.025-6.031c-1.049-0.352-2.103-0.693-3.163-1.015c-0.046-1.527-0.053-3.034-0.008-4.542
		c0.015-0.322-0.511-0.398-0.561-0.072c-0.205,1.44-0.334,2.875-0.413,4.315c-8.066-2.448-16.415-4.164-24.837-5.111
		c0.25-0.826,0.507-1.641,0.814-2.417c0.121-0.318-0.36-0.485-0.526-0.22c-0.519,0.803-0.959,1.644-1.341,2.515
		c-2.133-0.22-4.27-0.413-6.41-0.538c0.424-0.997,0.905-1.955,1.474-2.838c0.159-0.239-0.22-0.44-0.386-0.227
		c-0.716,0.951-1.337,1.955-1.875,3.031c-4.933-0.261-9.869-0.246-14.767,0.061c-1.534,0.099-3.05,0.246-4.55,0.413
		c0.44-0.325,0.86-0.682,1.334-0.992c0.193-0.129,0.026-0.409-0.186-0.311c-0.947,0.443-1.856,0.962-2.716,1.523
		c-3.417,0.474-6.766,1.14-10.017,2.042c0.807-0.727,1.656-1.413,2.531-2.042c0.284-0.22,0.019-0.705-0.295-0.493
		c-1.368,0.894-2.629,1.909-3.83,2.974c-3.603,1.061-7.111,2.39-10.502,3.986c0.773-0.822,1.553-1.629,2.364-2.421
		c0.258-0.25-0.129-0.602-0.39-0.383c-1.527,1.224-2.94,2.569-4.322,3.959c-4.63,2.368-9.074,5.22-13.332,8.577
		c-3.47,2.75-6.893,5.925-10.136,9.411c0.627-1.303,1.288-2.561,1.989-3.777c0.093-0.159-0.146-0.292-0.241-0.14
		c-1.246,1.883-2.368,3.785-3.375,5.713C317.566,147.327,308.49,165.109,308.977,182.563z M331.985,241.678
		c-13.932-15.002-21.759-35.452-19.886-55.857c-0.352-1.421-0.606-2.815-0.786-4.205c0.987-14.01,5.899-27.118,14.326-39.059
		c0.147-0.22,0.314-0.428,0.473-0.656c-0.68,2.224-1.208,4.52-1.508,6.948c-0.807,6.585,0.434,15.044,4.717,20.318
		c0.547,0.686,1.822-0.053,1.496-0.86c-1.235-3.057-2.79-5.853-3.644-9.07c-0.894-3.391-0.961-6.918-0.754-10.388
		c0.193-3.303,0.886-6.648,1.921-9.911c5.98-7.626,13.32-14.438,21.579-19.651c-4.303,5.478-7.719,11.699-10.234,18.132
		c-3.783,9.627-5.605,22.739,0.267,31.982c0.553,0.864,2.122,0.311,1.735-0.735c-1.868-5.046-3.243-9.604-3.311-15.04
		c-0.066-5.387,1.182-10.71,2.917-15.768c2.529-7.414,6.626-14.252,11.589-20.337c3.565-2.046,7.282-3.766,11.112-5.144
		c-3.402,3.974-5.906,8.687-7.592,13.778c-2.504,7.55-3.19,17.688,0.887,24.86c0.413,0.743,1.648,0.246,1.379-0.587
		c-2.519-7.801-3.254-14.847-1.159-22.92c1.489-5.736,4.391-11.244,8.334-15.768c1.038-0.341,2.088-0.682,3.149-0.959
		c2.171-0.595,4.364-1.084,6.588-1.473c-4.398,4.322-7.323,10.304-9.051,16.044c-1.315,4.353-1.909,8.914-2.034,13.445
		c-0.106,3.845-0.061,9.077,1.868,12.517c0.288,0.523,1.175,0.311,1.133-0.303c-0.22-3.781-1.326-7.429-1.413-11.279
		c-0.099-4.398,0.515-8.8,1.576-13.059c1.682-6.827,4.838-12.896,9.702-17.662c7.073-1.122,14.32-1.349,21.537-0.962
		c-2.61,6.846-2.515,15.347-1.921,22.034c0.402,4.471,1.368,9.039,3.63,12.953c1.523,2.633,4.936,5.872,8.274,4.997
		c0.814-0.212,0.689-1.254,0-1.516c-1.428-0.561-2.75-0.659-4.084-1.553c-1.576-1.049-2.621-2.796-3.462-4.444
		c-2.095-4.103-2.709-9.017-3.001-13.54c-0.356-5.599-0.356-12.885,1.512-18.878c2.144,0.137,4.27,0.333,6.395,0.568
		c-1.53,5.084-1.314,10.911-0.583,15.919c0.951,6.372,3.232,15.817,9.631,19.011c0.902,0.455,1.981-0.746,1.125-1.459
		c-8.733-7.395-11.407-21.867-8.88-33.304c4.906,0.58,9.755,1.394,14.479,2.402c3.565,0.754,7.228,1.656,10.896,2.705
		c-0.03,5.429,0.822,10.808,2.409,16.112c1.925,6.486,5.372,14.908,11.006,19.022c0.647,0.481,1.534-0.447,1.095-1.087
		c-1.75-2.561-3.891-4.777-5.539-7.425c-2.11-3.417-3.652-7.164-4.914-10.956c-1.625-4.91-2.553-10.123-2.894-15.332
		c6.187,1.826,12.366,4.137,18.136,7.066c0.273,4.717,1.462,9.482,2.856,13.805c1.568,4.857,5.065,14.552,10.85,15.866
		c0.746,0.175,1.352-0.739,0.765-1.307c-2.148-2.095-4.228-3.531-5.952-6.118c-1.989-2.989-3.36-6.372-4.535-9.736
		c-1.337-3.838-2.364-7.869-2.898-11.945c5.747,3.023,11.059,6.706,15.502,11.184c12.669,12.786,14.404,31.596,15.533,48.898
		c-0.114,7.782-1.068,15.521-3.023,23.06c-2.981,7.554-6.967,14.783-9.808,22.367c-7.145,11.089-17.01,20.458-28.137,27.497
		c-8.861,5.599-18.537,9.482-28.501,11.665c-0.386,0-0.765,0.019-1.152,0.011c-0.242,0-0.477-0.019-0.716-0.023
		c-0.667,0.265-1.428,0.345-2.194,0.239c-0.288-0.049-0.557-0.106-0.829-0.156c-1.405,0.497-2.857,0.924-4.357,1.228
		c0.14,0.053,0.273,0.113,0.413,0.166c-7.452,0.883-14.98,0.83-22.379-0.136c0-0.049,0.008-0.087,0.011-0.137
		c-2.807,0.383-5.611-0.053-8.066-1.307C359.243,262.788,343.928,254.513,331.985,241.678z M405.89,270.569
		c-0.106,0.947-0.28,1.909-0.5,2.856c-0.053,0.212-0.095,0.428-0.156,0.629c-1.682,6.32-5.918,12.157-12.229,12.214
		c-7.895,0.083-9.475-8.714-9.422-15.964C390.952,271.266,398.449,271.384,405.89,270.569z M361.103,283.844
		c-3.289-0.315-6.49-1.137-9.763-1.568c-1.652-3.978-2.08-8.07-2.294-12.218c0.034-0.14,0.061-0.299,0.093-0.443
		c-0.032-0.004-0.072-0.026-0.119-0.03c-0.1-2.266-0.161-4.523-0.328-6.8c3.792,3.368,11.089,4.481,15.669,5.19
		c3.015,0.481,6.073,0.655,9.089,0.428c1.879,0.462,3.773,0.852,5.683,1.201c-2.77,4.463-5.069,9.248-6.978,14.207
		c-0.019-0.008-0.026-0.019-0.045-0.019C368.418,283.7,364.834,284.207,361.103,283.844z M421.203,294.899
		c6.941,9.52,14.855,18.321,23.182,26.644c7.853,7.838,16.226,15.158,24.936,22.011c8.414,6.615,17.252,12.634,27.406,16.158
		c0.137,13.555-8.641,25.261-17.309,35.017c-5.581,6.27-11.85,11.888-18.73,16.654c-0.015-0.167-0.034-0.349-0.049-0.515
		c-2.379,2.004-5.031,3.603-7.687,5.205c0,0.046,0.015,0.102,0.023,0.14c-0.769,0.428-1.53,0.875-2.304,1.281
		c-11.558,6.065-24.583,9.202-37.6,9.437c-14.987,0.292-29.66-3.936-44.606-3.936c-0.061-0.875-0.121-1.766-0.193-2.629
		c-0.061-0.656-0.534-0.985-1.008-0.985c-7.308-24.928-7.721-51.717-5.004-77.368c1.409-13.37,3.576-26.743,6.774-39.813
		c2.773-11.358,7.016-21.867,12.104-32.251c0.027,0.015,0.057,0.015,0.087,0.03c-1.122,8.191,3.394,18.17,11.782,18.844
		c7.853,0.633,13.32-7.482,15.048-15.51c1.159,2.595,2.58,5.099,3.929,7.509C414.744,285.704,417.9,290.36,421.203,294.899z
		 M439.607,269.489c-0.322,2.47-0.8,5.732-0.019,8.285c-3.879,0.515-7.668,2.277-11.365,3.391
		c-4.357,1.295-8.293,1.402-12.578,1.375c-0.379-0.621-0.765-1.227-1.14-1.841c-2.042-3.394-3.724-7.039-5.66-10.509
		c2.285-0.326,4.557-0.743,6.819-1.243c2.459-0.178,4.853-0.526,6.853-0.818c6.645-0.955,13.665-2.856,19.352-6.6
		C440.786,264.106,439.975,266.621,439.607,269.489z M544.241,261.636c-0.516-0.174-1.008,0.58-0.553,0.955
		c1.58,1.262,3.519,1.981,5.596,2.341c0.026,0.095,0.08,0.182,0.185,0.242c1.788,1.091,3.41,2.622,4.44,4.463
		c0.765,1.387,0.299,3.243-1.534,3.262c-0.951,0.008-1.951-0.526-2.769-0.936c-3.292-1.675-5.948-4.577-8.411-7.266
		c-0.519-0.572-1.371,0.159-1.03,0.803c0.371,0.704,0.864,1.348,1.413,1.955c0.318,3.015-0.072,5.683-1.394,8.373
		c-4.433-4.933-5.361-11.722-5.179-18.128c0.015-0.447-0.348-0.621-0.682-0.576c-0.807-4.69-0.674-9.539,2.122-13.445
		c0.682,3.818,0.015,7.516,0.409,11.411c0.011,0.212,0.099,0.379,0.204,0.515c-0.44,0.659-0.807,1.341-1.087,2.023
		c-0.087,0.239,0.235,0.477,0.436,0.326c4.664-3.565,10.483-9.771,16.961-8.274c-2.448,3.535-5.793,5.562-9.301,8.085
		c-0.856,0.61-0.14,1.777,0.8,1.375c0.769-0.326,1.508-0.712,2.25-1.133c4.743-0.561,10.869-0.886,12.612,4.281
		C554.387,263.871,549.556,263.295,544.241,261.636z"/>
	<path fill="#231F20" d="M434.209,194.868c-3.076-5.429-10.483-10.161-16.757-7.35c-6.52,2.91-11.07,11.714-10.494,18.7
		c0.019,0.201,0.307,0.33,0.413,0.114c2.815-5.539,3.864-11.737,9.24-15.604c6.32-4.55,11.551,1.508,15.935,5.421
		C433.428,196.944,434.823,195.944,434.209,194.868z"/>
	<path fill="#231F20" d="M357.14,186.355c-6.933-3.656-11.311,4.209-12.672,9.85c-0.36,1.508,1.829,2.095,2.311,0.64
		c1.674-5.171,4.622-11.54,10.729-7.426c4.497,3.016,7.085,8.952,8.668,13.904c0.121,0.371,0.701,0.319,0.685-0.095
		C366.676,196.77,363.012,189.466,357.14,186.355z"/>
	<path fill="#231F20" d="M443.256,220.933c-4.175-1.087-8.092-3.91-7.834-8.74c0.015-0.296-0.466-0.375-0.519-0.076
		c-0.379,2.137-0.508,3.986,0.307,5.793c-0.315,0.076-0.595,0.288-0.701,0.72c-0.026,0.129-0.053,0.254-0.087,0.383
		c-3.304,3.955-6.069,8.255-9.934,11.816c-3.91,3.603-8.577,6.19-13.566,7.948c-8.001,2.815-16.696,3.569-25.114,3.216
		c-17.389-0.716-36.267-7.789-42.52-25.402c-0.127-0.348-0.608-0.208-0.547,0.152c1.28,8.354,6.173,14.445,12.672,18.757
		c-1.016,8.096,7.812,16.332,13.369,20.711c7.827,6.138,16.684,8.74,26.591,8.168c10.07-0.576,19.965-4.663,27.391-11.486
		c9.248-8.479,11.4-21.303,13.665-33.081c1.652,1.894,4.084,2.894,6.569,3.069C444.123,222.967,444.316,221.205,443.256,220.933z
		 M379.685,259.587c0.14-0.019,0.269-0.095,0.307-0.28c-0.011,0.026,4.247-2.307,4.592-2.527c2.47-1.614,5.012-3.178,7.74-4.326
		c2.735-1.152,5.872-1.319,8.804-1.159c4.918,0.28,7.331,2.834,10.002,6.573h0.003c-4.357,2.015-9.058,3.307-13.729,3.902
		C391.498,262.511,385.372,261.67,379.685,259.587z M423.12,249.096c-2.83,3.224-6.319,5.8-10.123,7.815
		c-1.618-8.448-13.525-8.937-19.965-7.119c-3.656,1.038-7.092,3.47-10.164,5.611c-0.977,0.675-3.834,2.262-3.728,3.796
		c0.007,0.095,0.061,0.167,0.114,0.235c-10.419-3.959-19.246-12.165-22.254-22.935c8.115,4.853,18.321,7.187,27.103,7.853
		c9.191,0.693,18.719-0.288,27.466-3.22c8.127-2.731,16.033-8.57,21.39-15.775C431.072,233.867,429.109,242.239,423.12,249.096z"/>
	<path fill="#231F20" d="M295.019,129.267c-12.532-2.304-17.669-16.442-17.429-27.876c0.006-0.303-0.447-0.299-0.474,0
		c-0.994,10.831,4.349,28.88,17.776,28.846C295.431,130.237,295.579,129.365,295.019,129.267z"/>
	<path fill="#231F20" d="M298.548,122.879c-11.703-5.232-17.048-16.904-17.141-29.319c0-0.428-0.627-0.421-0.648,0
		c-0.54,12.07,4.417,26.871,17.328,30.418C298.735,124.16,299.188,123.167,298.548,122.879z"/>
	<path fill="#231F20" d="M305.24,110.593c-8.473-6.005-13.152-14.858-19.511-22.807c-0.173-0.212-0.521,0.068-0.373,0.299
		c5.433,8.494,10.39,18.147,19.317,23.496C305.314,111.969,305.84,111.014,305.24,110.593z"/>
	<path fill="#231F20" d="M315.069,90.609c-4.444-6.217-11.703-8.452-19.063-7.721c-0.267,0.034-0.28,0.462,0,0.436
		c8.041-0.526,14.46,2.497,18.556,9.49c3.517,5.989,4.163,13.036,5.012,19.76c0.106,0.864,1.307,0.902,1.36,0
		C321.396,105.051,319.494,96.796,315.069,90.609z"/>
</g>
</svg>
