<?xml version="1.0" encoding="utf-8"?>
<!-- Generator: Adobe Illustrator 17.0.0, SVG Export Plug-In . SVG Version: 6.00 Build 0)  -->
<!DOCTYPE svg PUBLIC "-//W3C//DTD SVG 1.1//EN" "http://www.w3.org/Graphics/SVG/1.1/DTD/svg11.dtd">
<svg version="1.1" id="Layer_1" xmlns="http://www.w3.org/2000/svg" xmlns:xlink="http://www.w3.org/1999/xlink" x="0px" y="0px"
	 width="800px" height="600px" viewBox="0 0 800 600" enable-background="new 0 0 800 600" xml:space="preserve">
<g>
	<path fill="#FFFFFF" d="M290.829,318.972c-0.065-2.331-0.402-4.229-0.595-6.63c-0.94,0.105-1.616,0.388-2.23,0.451
		c-0.186,2.053,0.561,3.781,0.595,5.423C289.293,318.518,289.946,318.859,290.829,318.972z"/>
	<path fill="#FFFFFF" d="M285.923,313.697c-0.868,1.181-2.154,1.936-2.974,3.162c0.994,0.351,2.154,0.53,3.42,0.604
		C286.481,315.943,286.212,314.811,285.923,313.697z"/>
	<path fill="#FFFFFF" d="M302.276,399.565c0.404-12.061-2.957-23.537-9.218-30.279c-2.113-0.118-6.183-0.398-7.582-2.409
		c4.041-0.397,6.778,1.044,11.151-0.303c2.81-1.788,6.717-8.813,6.988-9.491c1.255-3.142,0.723-10.238-0.595-12.955
		c-2.961-6.103-8.245-11.822-13.233-14.462c-5.218-1.902-12.054-1.672-16.8,0.905c-3.5,2.721-4.843,8.406-8.623,11.147
		c-4.581,3.32-8.349,6.744-8.029,13.708c0.542,4.646,3.093,10.435,3.717,12.504c1,3.309,0.65,7.117,2.379,10.395
		c2.238,13.456,10.08,21.621,14.57,32.688C287.796,412.079,296.839,406.493,302.276,399.565z M283.098,372.9
		c0.482,0.086,0.974,4.919,2.23,8.437c1.108,3.103,3.986,6.846,8.92,12.051c-0.77,0.611-6.137-3.63-7.845-5.84
		C283.42,383.69,281.822,378.465,283.098,372.9z M265.404,364.916c-0.703-0.843,5.411-5.85,8.178-5.422
		C272.44,362.212,269.113,364.796,265.404,364.916z"/>
	<path fill="#FFFFFF" d="M295.884,321.229c-0.429-2.641-0.357-7.022-0.595-10.694c-1.148,0.292-1.813,1.074-3.123,1.204
		c-0.064,2.638,0.552,6.504,1.04,8.587C294.158,320.568,294.736,321.186,295.884,321.229z"/>
	<path fill="#FFFFFF" d="M282.8,482.719c2.931,1.283,7.54,1.672,10.557,3.315c1.194-0.647,2.47-1.212,3.42-2.108
		c-3.782-1.592-8.165-2.574-12.787-3.315C283.483,481.523,283.191,481.72,282.8,482.719z"/>
	<path fill="#FFFFFF" d="M336.026,322.586c-0.034,2.158-0.389,4.151-0.594,6.326c-1.886,19.897-1.57,35.066-3.124,53.779
		c-0.051,0.181,0.148,1.246,0.149,1.507c1.186-0.405,2.332-0.85,3.42-1.354c1.299-20.043,2.875-39.611,4.906-59.656
		C338.917,322.943,337.973,322.691,336.026,322.586z"/>
	<path fill="#FFFFFF" d="M308.522,330.721c0.909,1.085,1.545,2.449,2.675,3.315c-0.485-5.661-0.239-13.426-0.892-18.982
		c-1.045-0.611-2.445-1.622-3.42-1.808C306.995,319.457,308.15,324.93,308.522,330.721z"/>
	<path fill="#FFFFFF" d="M309.561,429.392c2.485,0.091,4.218,0,6.84,0.149c-0.191-1.263-0.993-1.904-1.486-2.861
		c-1.657-0.264-3.185-0.051-4.908,0C310.442,427.993,309.281,428.197,309.561,429.392z"/>
	<path fill="#FFFFFF" d="M355.503,376.366c2.416-16.013,3.115-37.442,5.501-52.124c-1.713-0.105-3.357,0.161-5.054-0.15
		c-1.325,17.26-4.397,37.606-4.164,53.629C352.282,377.702,354.429,376.795,355.503,376.366z"/>
	<path fill="#FFFFFF" d="M306.29,328.31c-0.744-5.83-0.826-10.932-1.485-16.42c-0.982-0.762-1.945-1.545-3.122-2.108
		c-0.124,5.926,1.703,10.59,1.338,16.118C304.145,326.667,305.147,327.56,306.29,328.31z"/>
	<path fill="#FFFFFF" d="M290.68,487.088c-2.068-1.172-6.109-1.94-8.178-2.109C283.216,487.733,288.097,488.483,290.68,487.088z"/>
	<path fill="#FFFFFF" d="M289.788,436.171c-0.478,0.973-1.848,1.146-1.933,2.108c1.348,0.186,1.951,0.424,3.271,0.149
		C290.942,437.41,290.155,437.004,289.788,436.171z"/>
	<path fill="#FFFFFF" d="M288.45,445.21c0.559,1.24,1.056,2.545,1.636,3.766c8.11,1.072,17.817,2.688,25.871,2.71
		c0.657-1.242,2.852-2.229,3.865-3.613c-10.212-1.138-20.055-2-31.372-3.165C288.45,445.009,288.45,445.107,288.45,445.21z"/>
	<path fill="#FFFFFF" d="M285.03,478.953c4.771,0.941,9.397,2.027,13.529,3.615c1.4-0.94,2.223-2.469,3.42-3.615
		c-5.109-1.283-9.532-2.461-15.462-3.013C285.849,476.752,285.224,478.129,285.03,478.953z"/>
	<path fill="#FFFFFF" d="M303.615,439.032c6.128,0.162,13.028,0.951,19.477,1.054c-0.247-1.27,0.342-2.127-0.149-3.464
		c-5.416-0.844-11.313-0.51-16.353-0.752C306.106,437.44,304.443,437.814,303.615,439.032z"/>
	<path fill="#FFFFFF" d="M287.409,442.647c11.057,1.813,22.172,2.619,33.749,3.617c0.707-1.193,1.145-2.656,1.487-4.22
		c-13.446-0.992-24.469-1.719-35.385-1.959C287.452,440.707,287.081,441.851,287.409,442.647z"/>
	<path fill="#FFFFFF" d="M289.342,468.709c5.82,1.233,12.163,1.938,17.692,3.465c0.47-1.532,0.953-3.052,1.189-4.82
		c-5.151-1.392-11.663-1.556-17.543-2.563C290.148,466.012,289.904,467.522,289.342,468.709z"/>
	<path fill="#FFFFFF" d="M291.721,456.81c6.778,0.729,11.858,1.449,19.03,1.807c0.814-1.786,1.937-3.259,3.123-4.67
		c-6.919-1.275-16.303-2.342-23.045-2.561C291.111,452.669,291.477,455.001,291.721,456.81z"/>
	<path fill="#FFFFFF" d="M287.26,474.132c5.005,0.378,10.415,2.234,16.355,3.165c0.885-1.012,1.505-2.292,2.23-3.466
		c-5.519-1.51-10.605-2.422-17.247-3.163C288.055,471.723,287.636,472.906,287.26,474.132z"/>
	<path fill="#FFFFFF" d="M291.275,462.984c5.249,0.866,12.325,1.338,17.544,2.56c-0.248-1.838,0.908-3.475,1.338-5.121
		c-6.477-0.433-12.643-1.172-18.436-1.808C291.639,459.762,291.539,461.311,291.275,462.984z"/>
	<path fill="#FFFFFF" d="M301.087,324.393c-0.236-5.322-1.313-10.588-1.486-16.42c-1.017,0.325-1.536,1.156-2.379,1.658
		c-0.196,4.701,0.652,9.191,0.744,12.955C299.194,322.996,299.857,323.982,301.087,324.393z"/>
	<path fill="#FFFFFF" d="M418.617,89.046c-10.548,5.484-20.832,7.301-34.127,7.424c0.182,0.581,0.251,2.428,0.5,3.464
		c7.654,0.387,14.942,2.522,19.073,6.929C411.029,103.107,416.921,97.456,418.617,89.046z"/>
	<path fill="#FFFFFF" d="M424.49,81.405c0.136-3.246-0.596-7.178-2.035-9.95c-1.487-2.864-3.238-6.274-6.438-6.32
		c3.681,4.856,6.417,11.883,6.986,17.776C423.153,82.058,424.26,82.176,424.49,81.405z"/>
	<path fill="#FFFFFF" d="M395.697,85.582c-4.317,1.59-7.789,1.424-12.379,0.495c0.023,2.913,0.09,5.304,0.669,7.92
		c13.811,0.563,25.637-2.633,35.299-8.085c-0.387-2.341-0.023-4.447-0.502-6.763c-0.453-2.19-1.923-7.899-3.346-8.25
		c-1.231-0.303-4.672,1.639-5.855,2.475C405.192,76.472,401.429,83.473,395.697,85.582z"/>
	<path fill="#FFFFFF" d="M391.348,110.164c3.585,0.821,7.199-1.719,10.205-2.475c-3.244-3.73-9.404-5.461-15.558-5.774
		C386.257,103.983,388.975,109.62,391.348,110.164z"/>
	<path fill="#FFFFFF" d="M383.318,84.098c11.822,4.388,18.635-6.349,24.257-11.714c1.923-1.89,4.261-3.426,7.193-3.96
		c-4.144-6.472-10.289-10.97-21.079-10.888C386.575,64.103,382.977,73.554,383.318,84.098z"/>
	<path fill="#FFFFFF" d="M388.51,220.9c2.801-0.998,5.9-3.102,7.286-4.821c-1.978,1.398-9.031,3.22-10.558,3.315
		c-8.785,0.548-16.983-4.64-15.461-14.613c-0.257,0.06-0.382-0.224-0.447,0c-0.526,2.797-0.268,5.854,0.596,8.587
		C372.28,220.831,379.806,224.006,388.51,220.9z"/>
	<path fill="#FFFFFF" d="M372.612,71.229c-0.15,6.475,3.107,10.447,8.531,12.208c-0.058-11.001,4.114-18.707,8.364-24.912
		c-8.845,0.758-14.241,5.855-17.565,11.878C372.056,70.787,372.499,70.845,372.612,71.229z"/>
	<path fill="#FFFFFF" d="M345.096,346.689c0.989-7.195,2.985-15.696,1.784-21.843c-0.007-0.42,0.601-0.986,0.297-1.205
		c-1.439,0.073-3.101-0.104-4.608-0.303c0.654,1.233-0.157,1.874-0.298,2.712c-1.097,6.603-1.305,14.794-2.08,22.747
		c-1.106,11.31-1.951,22.83-1.934,32.991c1.224-0.066,2.148-0.434,3.122-0.752C342.047,369.192,343.51,358.216,345.096,346.689z"/>
	<path fill="#FFFFFF" d="M382.711,208.548c4.304,1.253,9.076-1.007,12.192,0.754c-3.122,2.565-8.489,2.573-12.935,2.108
		c-4.679-0.481-7.373-2.976-10.557-4.971c0.163,7.398,6.806,12.95,15.76,10.997c2.033-0.444,4.594-1.477,6.541-2.261
		c3.217-1.293,5.828-2.923,9.218-3.615c6.283-1.283,8.472-1.053,12.661-4.634c8.571-7.328,13.363-22.127,5.627-32.123
		c-2.38-3.076-7.495-7.002-11.002-8.135c-5.375-1.735-14.836,0.343-19.477,3.916c-3.188,2.456-4.122,3.878-3.718,6.026
		c-1.361,0.16-3.359,0.368-4.609,1.055c-3.95,2.172-7.5,9.492-9.663,13.709c-1.579,3.077-3.496,6.778-1.19,9.641
		C373.869,204.603,378.267,207.253,382.711,208.548z M399.065,204.48c0.511,0.256,0.366,0.84,0.446,1.205
		c4.698,3.472,13.786-0.329,12.638-6.477c-0.995-0.799-3.185-0.388-3.122-2.26c2.435-0.19,4.3,0.396,5.054,2.109
		c2.563,5.809-10.363,12.794-15.61,8.286C397.763,206.734,397.024,204.635,399.065,204.48z"/>
	<path fill="#FFFFFF" d="M399.065,244.853c6.154-1.24,14.237-5.463,20.654-8.306c2.727-1.207,8.882-2.662,9.676-3.293
		c-2.829-9.154-13.135-13.076-22.152-14.462C402.264,226.488,398.372,234.428,399.065,244.853z"/>
	<path fill="#FFFFFF" d="M367.397,324.092c-1.156-0.067-3.444,0.056-4.163,0.15c-1.256,3.816-1.379,7.681-2.081,12.504
		c-1.674,11.502-2.059,27.014-3.271,39.167c1.212-0.458,2.194-0.313,3.569-0.45c0.037-0.651-0.635-0.475-0.298-1.056
		C362.56,358.134,364.763,339.824,367.397,324.092z"/>
	<path fill="#FFFFFF" d="M368.289,375.009c0.723,0.334,1.428,0.177,2.082,0.304c0.788-1.203,0.611-2.547,0.743-4.22
		c0.823-10.386,3.582-22.335,4.313-31.786c0.174-2.261,1.578-4.827,1.04-7.229c-0.254-1.136-1.579-1.891-2.082-3.015
		c-2.116,13.889-5.922,31.2-6.096,45.495C368.036,374.62,368.321,374.753,368.289,375.009z"/>
	<path fill="#FFFFFF" d="M349.259,378.775c0.783-14.108,3.118-32.284,4.311-46.851c0.228-2.77,0.577-5.589-0.297-7.833
		c-1.402,0.065-2.618-0.06-3.866-0.15c-0.691,19.375-6.026,37.79-5.649,55.889c0,0.101,0,0.2,0,0.302
		C345.582,380.272,347.509,379.212,349.259,378.775z"/>
	<path fill="#FFFFFF" d="M325.917,318.668c14.223,3.481,33.221,5.221,46.387,2.411c1.06-1.728,0.34-4.736-0.445-6.628
		c-3.658-0.267-7.201,0.284-10.557,0.451c-21.473,1.066-43.895-6.035-57.984-17.023c-2.639,1.042-3.742,3.641-4.46,6.629
		c-0.192,0.353,0.706,0.886,0.743,1.507C306.756,311.868,315.3,316.071,325.917,318.668z"/>
	<path fill="#FFFFFF" d="M381.144,85.582c-5.57-1.822-9.486-5.274-10.539-11.548c-3.067,4.939-2.939,10.529-1.841,16.333
		c3.15,2.28,8.014,2.875,12.882,3.464C381.326,91,381.248,88.263,381.144,85.582z"/>
	<path fill="#FFFFFF" d="M387.333,109.999c-1.148-2.829-3.115-4.847-4.015-7.919c-2.223,0.3-4.784,0.904-4.852,2.64
		C378.368,107.248,385.298,110.69,387.333,109.999z"/>
	<path fill="#FFFFFF" d="M335.433,227.981c4.208-2.316,15.895-7.632,23.639-18.076c1.619-2.185,6.111-5.418,6.542-7.984
		c0.311-1.852-0.716-3.419,0-5.122c-0.296,0.72-1.313,1.699-1.636,2.862c-2.34,1.53-3.406,4.407-5.055,6.326
		c-2.799,3.262-5.784,6.445-9.367,9.642c-5.129,4.578-12.316,10.232-21.261,10.244c-0.356-0.642-0.549-1.662-0.445-1.958
		c-0.225-2.59,1.157-3.547,1.635-5.423c-3.057,3.215-6.386,6.295-5.65,11.449C328.2,232.308,332.129,229.8,335.433,227.981z"/>
	<path fill="#FFFFFF" d="M382.147,95.976c-3.852-0.355-9.353-1.566-12.213-2.64c1.228,3.643,3.892,7.26,6.524,10.063
		c1.696-1.517,3.736-2.694,6.523-3.134C382.799,98.741,382.47,97.361,382.147,95.976z"/>
	<path fill="#FFFFFF" d="M359.964,201.618c2.413-3.007,4.888-6.395,4.758-10.545c-0.141-4.472-2.204-7.715-4.162-10.695
		c-1.316,1.681-2.192,3.806-4.461,4.52c-0.08-1.131,0.643-2.274,1.486-3.315c5.035-6.215,8.675-17.571,7.435-28.321
		c-0.722-0.2-1.453-0.088-2.528-1.356c7.807-1.625,11.445-4.736,15.017-7.08c8.738-5.735,15.56-17.206,24.234-23.35
		c1.799-1.274,3.445-2.677,5.353-3.917c7.589-4.93,18.442-7.946,18.288-19.734c-0.804,1.06-0.162,3.037-2.231,3.012
		c-0.069-6.55,9.338-16.026,4.164-17.927c-4.353-0.354-4.227,3.819-4.461,6.328c-0.295,3.152-1.75,5.838-2.773,8.314
		c-2.171,5.26-14.334,18.99-31.72,17.747c-1.479,0.94-13.635,5.147-16.228,6.25c-8.82,3.754-13.667,9.301-20.793,14.689
		c-0.218,0.536,0.477,0.903,0.148,1.055c-0.948,0.877-2.816,0.239-3.865,0.602c-3.902,1.351-4.458,6.597-4.907,10.093
		c0.125,0.426,0.681,0.415,0.743,0.903c-7.285,14.323-9.716,31.108-8.177,46.852c0.44,4.503,2.724,9.167,2.527,13.406
		c3.316-6.369,6.255-10.273,9.962-14.764c0.654-0.792,2.518-3.732,3.42-3.615c0.819,0.108-3.871,7.031-5.204,8.889
		c-1.565,2.179-2.978,4.331-4.311,6.477c-1.426,2.297-3.593,10.797-5.947,9.941c0.151-1.503,0.77-8.368-0.446-9.941
		c-1.843,3.458-3.123,9.183-4.312,13.257c-0.433,1.48-1.256,2.703-1.189,4.82c6.301-0.891,10.759-3.469,15.166-6.778
		C351.049,212.851,355.164,207.599,359.964,201.618z M351.192,174.351c-0.084,1.379,0.026,3.649-0.743,3.767
		c-2.272,0.347-0.853-8.707-0.596-10.093c0.644-3.462,2.085-11.543,7.583-14.01c-0.225,1.055-1.064,1.655-1.636,2.711
		C353.115,161.727,351.605,167.449,351.192,174.351z"/>
	<path fill="#FFFFFF" d="M369.777,323.641c-1.595,6.139-2.776,13.32-3.717,20.639c-1.288,10-2.525,22.83-2.826,31.033
		c1.023-0.285,1.974,0.219,2.975-0.153c1.047-17.426,4.365-32.876,6.838-48.959C371.741,325.565,371.526,323.825,369.777,323.641z"
		/>
	<path fill="#FFFFFF" d="M431.774,470.365c-1.082-1.045-3.101-2.359-4.607-0.903c0.63,0.816,0.774,2.127,1.485,2.862
		C429.604,471.582,431.166,471.456,431.774,470.365z"/>
	<path fill="#FFFFFF" d="M429.991,475.94c1.686-0.5,2.989-1.388,4.459-2.109c-0.159-0.79-0.419-1.483-1.04-1.808
		C431.572,472.761,427.731,473.708,429.991,475.94z"/>
	<path fill="#FFFFFF" d="M386.726,391.881c-13.136-3.096-32.213-3.223-44.009,1.958c3.291,13.518,12.16,25.618,18.436,37.661
		c0.218-0.634,0.628-1.07,1.486-1.054c0.062,0.189,0.192,0.308,0.446,0.301c-0.152,3.938,0.652,8.194,2.302,11.803
		c1.189,2.598,4.707,7.438,8.402,7.328c5.492,6.712,13.243,13.709,20.221,19.887c0.342,0.302,5.554,5.433,6.691,5.573
		c0.165,0.02,2.55-0.17,3.12-0.152c7.303,0.246,12.487-9.303,12.787-17.021c-4.083-5.581-5.543-12.601-9.069-18.078
		c-3.764-5.848-8.479-13.455-14.272-15.968c-1.463,3.779-2.924-2.085-3.122-3.765c-0.446-3.768-0.662-8.202-0.893-11.903
		C388.889,402.591,387.466,397.183,386.726,391.881z M380.036,443.703c-0.442,0.105-0.648,0.447-1.34,0.301
		c1.105-5.606,1.553-11.292-2.377-14.463c2.648-2.055,5.268,4.37,5.352,7.081C381.755,439.348,380.614,441.7,380.036,443.703z
		 M390.74,437.074c2.212,6.558,6.553,12.095,12.638,15.215c0.008,0.745,0.948,1.178,0.595,1.808
		c-3.125-0.185-7.091-3.392-9.069-5.725c-2.51-2.957-4.768-6.725-5.65-10.997C389.656,437.181,390.079,437.007,390.74,437.074z"/>
	<path fill="#FFFFFF" d="M427.909,518.874c7.342-2.907,14.412-6.085,20.815-9.943c-0.211-1.494-0.688-2.717-0.892-4.217
		c-7.284,3.159-14.655,7.141-21.262,11.448C426.954,517.13,427.514,517.919,427.909,518.874z"/>
	<path fill="#FFFFFF" d="M401.742,476.994c2.274,2.403,4.467,4.653,6.988,7.232c1.938,1.984,3.647,4.471,5.501,5.875
		c2.331,1.769,6.4,4.106,10.407,3.314c3.703-0.732,7.02-6.64,5.947-10.847c-1.22-4.786-4.782-8.907-5.947-13.407
		c-2.214-2.729-4.299-6.39-6.542-8.587C417.685,468.678,411.712,477.303,401.742,476.994z"/>
	<path fill="#FFFFFF" d="M424.49,510.135c0.339,1.414,0.615,2.892,1.338,3.919c7.385-3.797,13.788-7.722,21.409-11.148
		c0.042-1.952-0.512-3.298-1.04-4.671C438.738,501.978,431.398,505.838,424.49,510.135z"/>
	<path fill="#FFFFFF" d="M430.734,477.898c-0.293,0.838,0.864,1.431,0.892,2.108c1.893-0.743,4.018-1.251,5.649-2.259
		c-1.029-0.504-0.747-2.135-2.081-2.26C434.98,475.467,430.932,477.331,430.734,477.898z"/>
	<path fill="#FFFFFF" d="M429.692,492.209c5.106-2.31,10.742-5.386,16.06-7.983c-0.084-1.422-0.608-2.399-1.34-3.162
		c-3.973,2.049-7.738,4.309-12.191,5.874C431.762,489.081,431.179,491.103,429.692,492.209z"/>
	<path fill="#FFFFFF" d="M432.518,484.677c3.696-1.327,7.217-2.833,10.11-4.971c-3.131-2.719-6.979,1.436-10.259,2.261
		C432.298,482.986,432.732,483.976,432.518,484.677z"/>
	<path fill="#FFFFFF" d="M313.429,424.722c-0.438-3.219-7.78-3.816-4.461,0C310.517,424.928,311.567,424.849,313.429,424.722z"/>
	<path fill="#FFFFFF" d="M396.836,244.401c0.016-10.992,4.488-20.2,8.922-26.965c-0.658-0.691-1.228-1.47-2.231-1.809
		c-9.385,10.435-13.733,30.979-6.988,45.494c0.933-0.944,2.898-1.88,2.825-3.465c-0.035-0.751-0.965-1.411-1.19-1.958
		C396.825,252.411,396.831,247.777,396.836,244.401z"/>
	<path fill="#FFFFFF" d="M483.835,256.835c-0.343-5.373,3.762-8.49,8.343-8.605c3.22,0.428,8.309,1.095,10.557-0.302
		c-6.974,0.268-13.512-0.701-20.071-1.657c-8.536-1.244-11.275-4.646-20.409-1.116c-1.767,0.683-3.026,1.987-4.609,0
		c-0.425-1.815-1.58-3.238-2.825-4.368c-5.131-4.653-15.669-7.983-23.968-5.917c-1.518,0.378-14.894,5.896-19.595,8.478
		c6.945,12.095,24.191,15.059,35.237,23.5c4.038,2.469,7.267,1.29,9.962-0.904c3.926,1.026,13.728,0.56,17.691,0.303
		c7.758-0.507,16.665-2.95,18.922-4.156C488.373,262.386,484.065,260.46,483.835,256.835z M448.725,252.688
		c-3.021,0.256-7.06-0.703-9.813-1.658c-5.31-1.842-13.28-9.572-12.636-10.395c5.823,4.17,11.245,9.281,20.219,9.942
		c1.497,0.11,3.304-0.411,4.016,0.754C450.581,252.459,449.352,252.634,448.725,252.688z"/>
	<path fill="#FFFFFF" d="M409.176,243.949c-2.811,1.57-6.976,1.77-10.259,2.861c-0.205,3.235,0.867,7.382,2.379,10.244
		c4.626-1.941,9.818-3.307,13.381-6.327C412.188,249.133,411.304,245.911,409.176,243.949z"/>
	<path fill="#FFFFFF" d="M534.7,249.434c-2.444,0.487-4.159,1.713-6.244,2.561c1.722-2.958,4.524-3.709,6.194-4.072
		c5.704-1.24,12.803-2.384,11.648-7.227c-3.131-1.712-6.472,1.186-9.814,2.11c-3.742,1.032-8.018,1.726-12.787,4.067
		c-2.268,1.316-3.456,3.729-5.649,5.121c0.672-3.131,2.761-5.512,3.559-6.102c2.819-2.082,6.691-4.27,8.483-6.1
		c0.999-1.018,1.819-3.114,0.596-4.368c-0.117-0.034-0.295-0.004-0.297-0.151c-5.803,0.505-10.131,4.406-12.192,6.177
		c-4.607,5.503-8.684,12.431-17.693,11.599c-4.167-0.384-9.204-1.845-11.448,1.207c-1.299,1.128-1.086,3.747,0.892,4.066
		c1.821,0.296,3.811-0.597,5.65-0.452c5.188,0.408,9.158,3.403,12.639,6.176c7.598,3.702,15.528-1.246,22.003-3.314
		c1.066-0.339,3.161-0.521,4.163-0.301c4.102,0.901,12.705,9.572,12.489,3.766c-3.951-3.655-7.633-9.319-15.017-7.682
		c-0.426-1.138,0.798-1.667,1.487-1.808c5.775-1.169,19.559,3.688,17.396-3.014C546.81,249.94,539.666,250.074,534.7,249.434z"/>
	<path fill="#FFFFFF" d="M380.779,375.764c0.899-5.463,3.409-11.965-0.743-15.366c-0.686,4.518-1.805,10.329-1.935,15.065
		C378.903,375.811,379.653,375.573,380.779,375.764z"/>
	<path fill="#FFFFFF" d="M363.977,377.118c-5.506,0.288-10.29,2.156-15.611,3.766c-5.895,1.785-11.968,3.042-16.205,5.423
		c-0.782-0.075-2.144,0.243-2.826,0.304c0,0.099,0,0.199,0,0.301c0.716,1.653-0.242,4.553,0.745,6.477
		c3.224-1.019,5.693-2.166,8.622-3.313c2.325-0.912,4.557-2.069,6.989-2.862c5.076-1.658,10.264-2.352,16.057-2.562
		c8.55-0.31,17.983,0.709,26.167,1.96c0.715,0.465,0.245,1.233,1.189,1.505c0.843-3.031,1.957-9.282-2.824-8.586
		C379.659,376.807,371.485,376.729,363.977,377.118z"/>
	<path fill="#FFFFFF" d="M399.214,218.19c0.873-1.1,3.486-2.88,2.231-4.219c-3.568,3.493-7.837,6.88-12.935,8.737
		c-11.687,4.256-21.439-2.405-21.559-15.215c-0.013-1.384,0.772-2.602-0.594-3.315c-13.399,17.618-27.374,23.876-29.588,25.008
		c-3.779,1.931-8.796,4.953-13.529,2.56c-1.794,6.814-5.652,11.888-6.096,18.681c-0.299,4.581,0.284,8.335-0.892,12.504
		c-1.589,5.633-5.552,10.587-9.07,14.763c-2.662,3.158-6.265,4.744-5.5,9.642c-0.459,3.565,2.52,6.12,4.906,8.135
		c7.81,3.441,15.14,8.468,24.234,11.298c2.355,0.732,5.654,1.033,8.772,1.657c11.293,2.257,26.877,2.628,37.169-1.056
		c0.922-2.946,3.018-3.45,3.866-6.325c0.617-2.096-0.189-4.693-0.743-7.081c-0.478-2.06-2.574-4.078-2.676-5.423
		c-0.087-1.132,7.861-9.555,10.556-13.257c3.098-4.255,5.077-8.274,7.73-13.107C387.731,250.226,392.649,227.855,399.214,218.19z"/>
	<path fill="#FFFFFF" d="M383.752,368.833c-0.127,2.585-0.834,4.298-0.743,7.381c0.772,0.174,1.347,0.545,2.379,0.453
		C385.384,374.092,385.138,370.504,383.752,368.833z"/>
	<path fill="#FFFFFF" d="M372.898,375.159c0.85,0.294,2.19,0.092,3.272,0.153c-0.069-10.828,6.386-22.288,0.742-30.129
		C374.338,355.341,373.624,363.68,372.898,375.159z"/>
	<path fill="#FFFFFF" d="M421.666,503.057c8.747-4.145,17.124-8.659,24.977-13.71c0-1.205,0.078-2.49-0.297-3.314
		c-9.72,4.514-18.804,9.671-28.101,14.612C419.731,501.098,420.513,502.265,421.666,503.057z"/>
	<path fill="#FFFFFF" d="M317.888,318.518c-0.412,16.231-0.966,33.111-1.783,49.109c1.298,0.175,2.529,0.762,3.865,0.453
		c0.275-15.93,1.205-34.245,1.338-48.808C320.168,319.102,318.972,318.25,317.888,318.518z"/>
	<path fill="#FFFFFF" d="M323.24,319.875c-0.355,15.586-1.42,31.64-1.338,48.055c0.889,0.506,1.802,0.987,3.123,1.054
		c0.921-17.245,1.205-34.02,2.676-48.055C326.148,320.643,324.859,320.09,323.24,319.875z"/>
	<path fill="#FFFFFF" d="M330.377,382.541c1.384-9.435,1.314-19.194,1.636-29.074c0.352-10.842,1.91-21.55,1.783-31.333
		c-1.463-0.017-2.923-0.696-4.014-0.604c-2.311,15.112-2.174,31.805-2.825,48.358c0.35,0.55,1.134,0.658,1.189,1.505
		c-0.182,0.852-1.581-0.39-1.487,0.602c1.411,4.559,2.238,8.643,2.975,12.504C329.984,383.852,330.276,383.225,330.377,382.541z"/>
	<path fill="#FFFFFF" d="M334.838,396.25c1.966,0.954,4.143,1.554,6.689,1.355c-0.211-1.092-0.466-2.138-0.595-3.314
		C338.733,395.108,336.888,395.212,334.838,396.25z"/>
	<path fill="#FFFFFF" d="M412.299,490.853c0.319,1.734,0.751,3.358,1.485,4.67c1.209-0.332,1.925-1.163,3.122-1.507
		C415.456,492.697,413.512,492.564,412.299,490.853z"/>
	<path fill="#FFFFFF" d="M310.899,367.326c1.107-0.117,1.773,0.213,2.824,0.15c0.789-1.366,0.662-3.479,0.447-5.725
		C313.602,364.14,312.185,365.666,310.899,367.326z"/>
	<path fill="#FFFFFF" d="M429.248,520.981c0.619,0.779,0.872,1.928,1.636,2.564c6.345-2.91,13.023-5.483,19.179-8.588
		c-0.307-1.296-0.373-2.836-0.893-3.919c-6.057,2.523-11.043,5.932-17.692,8.137C430.998,520.045,429.417,519.798,429.248,520.981z"
		/>
	<path fill="#FFFFFF" d="M278.042,413.273c3.984,8.507,9.081,15.621,14.57,23.198c-0.171,0.178-0.168,0.532-0.148,0.903
		c7.517,3.97,14.746-2.389,15.314-8.737c0.244-2.742-1.603-4.639-2.379-6.627c-2.246-5.764-2.172-13.219-3.123-19.132
		C296.609,408.648,288.357,413.19,278.042,413.273z"/>
	<path fill="#FFFFFF" d="M313.131,344.73c-1.511-12.911-12.729-18.56-22.451-23.351c-3.14-1.546-7.508-3.245-11.746-2.258
		c-0.637,0.436-3.29,2.711-1.636,4.819c2.478,0.035,4.765-0.777,7.137-0.603c6.808,0.502,14.577,6.032,17.99,10.395
		c7.546,9.647,8.196,25.384-0.149,33.593c1.328,0.548,4.026,0.069,5.799,0C314.102,362.994,314.108,353.085,313.131,344.73z"/>
	<path fill="#FFFFFF" d="M315.807,317.463c-1.191-0.299-2.128-0.855-3.271-1.204c-0.009,9.218,0.044,20.8,2.677,29.525
		c0.281-10.295,1.203-17.701,0.148-27.267C315.568,318.226,316.102,317.808,315.807,317.463z"/>
	<path fill="#FFFFFF" d="M418.841,494.771c-0.177,1.362-3.147,1.104-3.866,2.411c0.639,0.508,0.929,1.368,1.635,1.807
		c2.541-0.94,4.779-2.19,6.841-3.615C421.472,495.295,420.511,495.12,418.841,494.771z"/>
	<path fill="#FFFFFF" d="M434.005,539.21c5.098-1.613,9.372-4.062,14.421-5.724c0.403-1.199,1.013-2.189,1.339-3.465
		c-5.758,2.15-11.461,4.354-16.503,7.231C433.705,537.707,433.631,538.685,434.005,539.21z"/>
	<path fill="#FFFFFF" d="M432.816,534.993c5.836-2.43,11.761-4.858,17.693-7.532c0.342-1.459,0.457-2.983,0.444-4.219
		c-6.258,2.104-13.207,4.787-18.585,8.285C432.563,532.44,432.537,533.81,432.816,534.993z"/>
	<path fill="#FFFFFF" d="M447.386,536.047c-4.044,1.193-8.142,2.651-11.447,4.971C440.965,544.081,445.679,539.915,447.386,536.047z
		"/>
	<path fill="#FFFFFF" d="M432.073,529.118c5.983-2.976,12.402-5.511,18.881-7.986c0.013-1.517-0.273-2.733-0.444-4.065
		c-6.643,2.761-13.633,5.168-19.329,8.887C431.539,526.995,431.96,528.265,432.073,529.118z"/>
	<path fill="#FFFFFF" d="M320.713,434.362c-0.931-0.815-2.111-1.375-2.528-2.712c-3.274-0.686-5.986-0.132-9.068-0.451
		c-0.122,1.188-0.67,1.783-1.041,3.013C312.56,434.101,317.1,434.775,320.713,434.362z"/>
	<path fill="#FFFFFF" d="M446.643,491.759c-8.269,4.408-15.493,8.967-24.085,12.955c0.732,0.813,0.887,2.214,1.337,3.313
		c7.492-3.807,14.625-7.979,22.154-11.749C446.316,494.843,446.527,493.349,446.643,491.759z"/>
	<path fill="#333333" d="M265.404,364.916c3.708-0.12,7.036-2.704,8.178-5.422C270.815,359.066,264.701,364.073,265.404,364.916z"/>
	<path fill="#333333" d="M294.248,393.388c-4.934-5.205-7.813-8.948-8.92-12.051c-1.256-3.518-1.748-8.351-2.23-8.437
		c-1.276,5.564,0.323,10.789,3.305,14.648C288.111,389.758,293.478,393.999,294.248,393.388z"/>
	<path fill="#333333" d="M357.436,154.015c-5.498,2.467-6.939,10.548-7.583,14.01c-0.257,1.387-1.677,10.44,0.596,10.093
		c0.77-0.118,0.659-2.388,0.743-3.767c0.413-6.902,1.923-12.624,4.608-17.625C356.373,155.67,357.212,155.069,357.436,154.015z"/>
	<path fill="#333333" d="M376.319,429.541c3.93,3.171,3.483,8.857,2.377,14.463c0.691,0.146,0.897-0.195,1.34-0.301
		c0.578-2.003,1.719-4.355,1.635-7.081C381.587,433.911,378.967,427.486,376.319,429.541z"/>
	<path fill="#333333" d="M394.903,448.372c1.978,2.333,5.944,5.54,9.069,5.725c0.354-0.63-0.587-1.063-0.595-1.808
		c-6.085-3.12-10.426-8.657-12.638-15.215c-0.661-0.067-1.084,0.106-1.487,0.301C390.136,441.647,392.394,445.415,394.903,448.372z"
		/>
	<path fill="#333333" d="M398.471,207.344c5.247,4.508,18.173-2.477,15.61-8.286c-0.754-1.713-2.619-2.3-5.054-2.109
		c-0.063,1.872,2.127,1.461,3.122,2.26c1.148,6.148-7.939,9.948-12.638,6.477c-0.08-0.365,0.065-0.949-0.446-1.205
		C397.024,204.635,397.763,206.734,398.471,207.344z"/>
	<path fill="#333333" d="M446.494,250.577c-8.974-0.661-14.395-5.772-20.219-9.942c-0.645,0.822,7.326,8.553,12.636,10.395
		c2.754,0.955,6.792,1.914,9.813,1.658c0.628-0.054,1.857-0.229,1.785-1.356C449.798,250.166,447.991,250.688,446.494,250.577z"/>
	<path fill="#333333" d="M549.122,245.969c2.907-1.563,4.064-7.211,1.041-8.887c-3.896-2.16-10.177-1.144-13.827,0.903
		c0.916-2.852-0.689-5.252-3.421-6.326c-3.422-2.028-15.735,2.823-22.002,10.243c-0.685,0.809-1.095,1.75-1.785,1.959
		c-1.405,0.423-13.23-0.425-16.504-0.754c-6.952-0.699-11.854-3.12-17.592-3.594c-4.705-0.39-8.218-0.588-13.224,1.121
		c-7-6.223-16.222-10.714-27.655-11.599c-3.845-7.904-11.552-12.698-22.004-13.408c-0.319-0.48-0.967-0.626-1.041-1.355
		c6.108-1.364,9.78-5.085,13.977-10.997c10.14-15.504,2.395-37.638-14.868-41.577c-12.164-1.734-22.382,2.778-27.506,10.997
		c-6.915,1.831-8.737,8.821-12.34,14.01c-0.12-3.883-1.943-7.614-4.46-9.942c2.743-6.911,4.741-13.46,4.609-20.94
		c10.021-6.095,17.231-15.13,26.166-23.199c5.309-4.794,10.328-10.345,16.653-13.708c4.897-2.605,10.096-4.034,13.449-8.961
		c2.992-4.601,2.682-12.855,4.392-18.757c1.478-5.1,3.403-10.891-1.933-12.956c-0.28-2.012-4.468-15.228-10.911-17.774
		c-2.013-0.795-3.907-0.508-4.604-0.411c-4.177-4.327-10.84-6.609-15.536-7.271c-13.666-1.925-22.608,5.922-25.565,8.75
		c-8.475,8.103-10.52,19.953-9.215,26.953c2.07,11.104,7.705,20.276,18.255,25.002c-7.904,1.238-18.261,6.444-24.829,11.6
		c-3.436,2.696-6.395,6.263-10.11,8.736c-9.175,0.596-7.696,11.224-10.11,18.078c-1.247,1.758-4.348,13.201-5.203,17.023
		c-2.454,10.966-3.829,22.658-0.298,32.841c-1.768,4.083-3.244,6.924-3.864,12.171c-1.086,0.913-3.839,3.229-5.799,6.508
		c-1.677,2.803-1.66,5.855-2.38,9.19c-0.991,4.593-3.86,9.528-5.798,14.763c-3.108,8.395,0.479,19.386-5.649,24.403
		c-3.63,2.598-7.887,6.678-9.219,10.848c-0.409,1.28-1.716,2.15-2.23,3.464c-1.695,4.334,0.416,9.559,0,15.367
		c-1.461,1.833-2.357,4.238-2.975,6.928c-5.334,1.132-10.554,3.121-12.786,7.835c-5.637,2.021-9.108,6.235-10.11,12.954
		c-3.702,3.68-4.972,6.596-8.946,9.48c-1.259,0.915-3.302,2.835-4.584,3.928c-6.265,5.347-7.562,17.139-4.392,25.837
		c1.894,5.196,3.097,10.792,4.541,15.892c1.897,6.7,4.708,13.307,7.285,18.981c5.436,11.966,12.771,22.989,19.626,32.84
		c-0.845,0.038-0.95,0.551-1.19,0.903c-3.754,5.515,0.131,13.214,1.784,18.528c0.614,1.977,1.435,4.426,1.487,6.026
		c0.196,6.076-3.527,13.932-5.948,18.681c-1.443,2.831-3.949,6.348-3.122,10.242c0.496,2.335,1.71,4.255,4.912,5.854
		c2.391,0.534,4.594,0.851,7.344,0.413c10.915-1.73,17.214-11.225,19.788-14.882c3.472-5.246,5.982-13.069,7.06-19.554
		c8.827-5.603,17.625-23.233,11.447-27.87c-2.227-1.159-3.518-3.264-5.798-4.369c-2.486-5.666-5.724-10.57-11.747-12.653
		c-4.873-13.795-0.611-27.219-6.838-40.373c5.926-0.52,13.266-1.528,19.03,1.208c1.564,5.571,2.491,12.502,3.272,18.376
		c1.17,4.655,2.81,6.156,6.839,7.232c3.601,0.961,6.926,3.119,9.664,4.52c4.952,9.845,10.186,19.404,15.909,28.471
		c0.278,1.392,1.948,10.065,3.588,12.976c2.042,3.624,6.364,7.563,10.685,8.566c11.348,15.823,33.299,29.052,34.196,33.443
		c0.214,1.052-0.197,1.408,0,2.409c1.195,6.094,5.722,10.077,9.515,13.408c0.992,0.871,2.705,2.086,3.271,3.162
		c1.002,1.907,1.162,5.365,2.081,7.833c1.212,3.253,2.778,7.207,4.313,9.943c1.305,2.331,2.607,4.046,2.973,6.629
		c0.499,3.51,0.316,8.776,2.082,11.148c4.747,6.382,13.515,5.91,19.01,0.609c4.284-4.136,5.732-14.813,5.819-15.223
		c0.931-4.415,0.327-11.821-0.298-16.118c-0.546-3.754-1.251-7.486-1.934-11.148c-0.372-2.003-1.328-4.057-1.485-5.726
		c-0.27-2.832,0.761-6.082,0.594-9.037c-0.16-2.853-0.175-6.162-1.338-8.436c-2.012-3.937-7.847-4.453-11.448-6.178
		c-2.774-4.751-7.581-9.75-13.826-9.49c-7.428-8.415-10.563-19.809-16.317-29.686c-1.742-2.986-6.276-11.327-13.717-14.303
		c-0.398-7.713-1.143-16.02-2.23-23.348c-0.221-1.489-1.184-3.083-1.189-4.52c-0.006-1.562,1.503-3.307,1.783-4.821
		c0.782-4.201-0.485-9.572-3.716-11.448c-0.976-7.564-4.265-13.823-6.097-20.94c1.097-5.587-1.934-10.71-3.419-15.216
		c2.929-4.787-0.107-11.833-1.189-13.857c-0.595-1.114-1.67-2.525-1.784-3.466c-0.23-1.899,1.56-3.579,0.892-5.574
		c1.942-1.627,2.13-3.897,3.421-6.477c1.552-3.109,4.975-5.093,5.798-7.984c1.193-4.199-3.083-8.087-3.597-12.28
		c2.486-4.424,6.903-8.033,9.543-12.276c2.313-3.716,4.645-8.704,7.138-12.352c1.51-2.209,2.854-2.237,5.353-3.014
		c3.832-1.19,7.314-3.351,11.002-4.971c5.998,5.563,15.458,6.62,22.449,11.299c4.082,3.744,8.516,4.957,10.855,5.121
		c4.625,0.325,7.72-0.273,12.575-0.712c10.409,1.038,17.415-0.541,26.414-2.525c5.737-1.263,8.068-3.235,12.789-3.932
		c7.064,6.348,22.466,3.148,29.886-1.206c4.162,2.561,8.776,5.979,14.763,6.153c6.922-1.561,4.616-5.891,1.59-10.973
		c3.812-0.208,5.935-2.889,6.543-5.573C556.249,249.807,553.162,246.77,549.122,245.969z M429.395,233.254
		c-0.794,0.631-6.949,2.086-9.676,3.293c-6.417,2.843-14.5,7.065-20.654,8.306c-0.693-10.425,3.198-18.364,8.178-26.061
		C416.261,220.178,426.566,224.1,429.395,233.254z M372.75,191.375c2.163-4.217,5.713-11.537,9.663-13.709
		c1.25-0.687,3.248-0.894,4.609-1.055c-0.404-2.148,0.53-3.57,3.718-6.026c4.641-3.573,14.102-5.651,19.477-3.916
		c3.507,1.132,8.622,5.059,11.002,8.135c7.736,9.996,2.944,24.795-5.627,32.123c-4.19,3.581-6.378,3.351-12.661,4.634
		c-3.39,0.692-6.001,2.322-9.218,3.615c-1.947,0.784-4.508,1.816-6.541,2.261c-8.954,1.953-15.597-3.599-15.76-10.997
		c3.184,1.995,5.878,4.489,10.557,4.971c4.445,0.465,9.813,0.457,12.935-2.108c-3.116-1.761-7.889,0.499-12.192-0.754
		c-4.444-1.295-8.323-4.464-11.15-7.532C369.254,198.153,371.171,194.452,372.75,191.375z M369.33,204.781
		c0.065-0.224,0.19,0.06,0.447,0c-1.522,9.974,6.676,15.161,15.461,14.613c1.526-0.096,8.58-1.917,10.558-3.315
		c-1.386,1.72-4.485,3.823-7.286,4.821c-8.704,3.105-16.229-0.069-18.584-7.532C369.063,210.635,368.804,207.578,369.33,204.781z
		 M422.455,71.455c1.439,2.772,2.171,6.705,2.035,9.95c-0.23,0.771-1.337,0.653-1.487,1.506c-0.569-5.893-3.306-12.919-6.986-17.776
		C419.217,65.181,420.968,68.591,422.455,71.455z M415.438,70.899c1.423,0.35,2.893,6.059,3.346,8.25
		c0.479,2.316,0.115,4.422,0.502,6.763c-9.662,5.452-21.487,8.648-35.299,8.085c-0.579-2.616-0.646-5.007-0.669-7.92
		c4.59,0.93,8.061,1.095,12.379-0.495c5.731-2.108,9.495-9.11,13.886-12.208C410.767,72.538,414.207,70.596,415.438,70.899z
		 M384.99,99.935c-0.249-1.037-0.318-2.884-0.5-3.464c13.295-0.123,23.579-1.94,34.127-7.424
		c-1.696,8.409-7.588,14.061-14.554,17.818C399.933,102.458,392.645,100.322,384.99,99.935z M401.553,107.689
		c-3.006,0.755-6.62,3.295-10.205,2.475c-2.373-0.544-5.091-6.18-5.353-8.249C392.148,102.228,398.309,103.959,401.553,107.689z
		 M393.689,57.536c10.79-0.082,16.936,4.416,21.079,10.888c-2.933,0.534-5.271,2.07-7.193,3.96
		c-5.622,5.365-12.435,16.102-24.257,11.714C382.977,73.554,386.575,64.103,393.689,57.536z M389.508,58.525
		c-4.25,6.205-8.422,13.91-8.364,24.912c-5.424-1.761-8.682-5.733-8.531-12.208c-0.113-0.384-0.557-0.442-0.67-0.825
		C375.267,64.381,380.663,59.284,389.508,58.525z M370.604,74.033c1.053,6.274,4.969,9.727,10.539,11.548
		c0.104,2.682,0.183,5.418,0.502,8.249c-4.868-0.589-9.731-1.184-12.882-3.464C367.666,84.562,367.537,78.972,370.604,74.033z
		 M369.935,93.336c2.86,1.074,8.361,2.285,12.213,2.64c0.322,1.386,0.651,2.766,0.835,4.29c-2.787,0.44-4.827,1.617-6.523,3.134
		C373.826,100.596,371.163,96.979,369.935,93.336z M378.467,104.72c0.067-1.735,2.629-2.339,4.852-2.64
		c0.899,3.072,2.867,5.09,4.015,7.919C385.298,110.69,378.368,107.248,378.467,104.72z M330.972,219.395
		c1.189-4.074,2.469-9.799,4.312-13.257c1.216,1.573,0.598,8.438,0.446,9.941c2.355,0.855,4.522-7.645,5.947-9.941
		c1.333-2.146,2.746-4.299,4.311-6.477c1.333-1.858,6.023-8.78,5.204-8.889c-0.901-0.117-2.766,2.823-3.42,3.615
		c-3.707,4.49-6.646,8.395-9.962,14.764c0.196-4.239-2.087-8.903-2.527-13.406c-1.539-15.743,0.892-32.529,8.177-46.852
		c-0.063-0.488-0.618-0.478-0.743-0.903c0.449-3.496,1.005-8.742,4.907-10.093c1.049-0.363,2.917,0.275,3.865-0.602
		c0.328-0.152-0.366-0.519-0.148-1.055c7.126-5.387,11.973-10.934,20.793-14.689c2.593-1.103,14.749-5.31,16.228-6.25
		c17.386,1.243,29.549-12.487,31.72-17.747c1.023-2.476,2.479-5.162,2.773-8.314c0.234-2.509,0.108-6.682,4.461-6.328
		c5.174,1.9-4.233,11.376-4.164,17.927c2.069,0.025,1.428-1.953,2.231-3.012c0.154,11.788-10.699,14.804-18.288,19.734
		c-1.907,1.24-3.554,2.643-5.353,3.917c-8.675,6.144-15.496,17.615-24.234,23.35c-3.571,2.343-7.21,5.455-15.017,7.08
		c1.075,1.269,1.807,1.157,2.528,1.356c1.24,10.749-2.399,22.106-7.435,28.321c-0.844,1.041-1.566,2.184-1.486,3.315
		c2.269-0.714,3.145-2.839,4.461-4.52c1.958,2.98,4.021,6.224,4.162,10.695c0.13,4.15-2.345,7.538-4.758,10.545
		c-4.8,5.98-8.915,11.232-15.016,15.818c-4.407,3.31-8.865,5.888-15.166,6.778C329.716,222.098,330.539,220.875,330.972,219.395z
		 M329.484,218.491c-0.478,1.876-1.859,2.833-1.635,5.423c-0.103,0.296,0.089,1.316,0.445,1.958
		c8.944-0.012,16.132-5.666,21.261-10.244c3.583-3.196,6.568-6.38,9.367-9.642c1.648-1.919,2.715-4.796,5.055-6.326
		c0.323-1.163,1.34-2.143,1.636-2.862c-0.716,1.703,0.311,3.27,0,5.122c-0.431,2.566-4.923,5.8-6.542,7.984
		c-7.744,10.444-19.431,15.76-23.639,18.076c-3.304,1.819-7.232,4.327-11.599,1.96C323.099,224.786,326.428,221.706,329.484,218.491
		z M298.857,304.508c0.718-2.988,1.821-5.587,4.46-6.629c14.09,10.988,36.512,18.09,57.984,17.023
		c3.355-0.167,6.898-0.718,10.557-0.451c0.785,1.892,1.505,4.9,0.445,6.628c-13.166,2.81-32.164,1.07-46.387-2.411
		c-10.617-2.597-19.161-6.8-26.316-12.653C299.564,305.394,298.665,304.86,298.857,304.508z M366.209,375.159
		c-1.001,0.372-1.951-0.132-2.975,0.153c0.301-8.203,1.538-21.033,2.826-31.033c0.941-7.318,2.122-14.5,3.717-20.639
		c1.749,0.185,1.964,1.924,3.27,2.56C370.574,342.283,367.256,357.733,366.209,375.159z M374.385,329.063
		c0.503,1.124,1.828,1.879,2.082,3.015c0.538,2.402-0.866,4.969-1.04,7.229c-0.73,9.451-3.489,21.4-4.313,31.786
		c-0.132,1.673,0.045,3.017-0.743,4.22c-0.654-0.127-1.359,0.03-2.082-0.304c0.032-0.256-0.253-0.389,0-0.451
		C368.463,360.263,372.269,342.951,374.385,329.063z M361.451,375.463c-1.375,0.138-2.357-0.008-3.569,0.45
		c1.213-12.153,1.598-27.665,3.271-39.167c0.702-4.823,0.825-8.688,2.081-12.504c0.719-0.095,3.007-0.218,4.163-0.15
		c-2.635,15.732-4.838,34.042-6.244,50.315C360.816,374.988,361.488,374.811,361.451,375.463z M349.407,323.941
		c1.248,0.091,2.464,0.216,3.866,0.15c0.874,2.244,0.525,5.064,0.297,7.833c-1.193,14.566-3.528,32.742-4.311,46.851
		c-1.75,0.437-3.677,1.497-5.501,1.356c0-0.102,0-0.201,0-0.302C343.381,361.731,348.716,343.316,349.407,323.941z M340.19,348.797
		c0.775-7.953,0.983-16.145,2.08-22.747c0.141-0.838,0.952-1.478,0.298-2.712c1.508,0.198,3.17,0.376,4.608,0.303
		c0.304,0.219-0.304,0.785-0.297,1.205c1.201,6.147-0.795,14.647-1.784,21.843c-1.586,11.527-3.049,22.504-3.717,34.348
		c-0.974,0.318-1.898,0.686-3.122,0.752C338.239,371.627,339.084,360.106,340.19,348.797z M335.878,382.844
		c-1.088,0.504-2.233,0.949-3.42,1.354c-0.001-0.261-0.2-1.326-0.149-1.507c1.554-18.713,1.238-33.882,3.124-53.779
		c0.205-2.175,0.56-4.168,0.594-6.326c1.946,0.105,2.891,0.358,4.758,0.602C338.753,343.232,337.177,362.801,335.878,382.844z
		 M355.95,324.092c1.696,0.312,3.341,0.046,5.054,0.15c-2.386,14.682-3.085,36.111-5.501,52.124
		c-1.074,0.429-3.221,1.336-3.717,1.354C351.554,361.698,354.625,341.352,355.95,324.092z M311.197,334.035
		c-1.13-0.865-1.766-2.23-2.675-3.315c-0.372-5.791-1.527-11.264-1.637-17.475c0.975,0.186,2.375,1.196,3.42,1.808
		C310.958,320.609,310.712,328.374,311.197,334.035z M301.683,309.781c1.177,0.563,2.14,1.347,3.122,2.108
		c0.659,5.488,0.741,10.59,1.485,16.42c-1.143-0.75-2.145-1.643-3.27-2.41C303.386,320.371,301.559,315.707,301.683,309.781z
		 M297.222,309.631c0.843-0.502,1.362-1.333,2.379-1.658c0.174,5.832,1.25,11.098,1.486,16.42c-1.229-0.41-1.893-1.397-3.121-1.807
		C297.874,318.822,297.025,314.332,297.222,309.631z M295.289,310.535c0.238,3.672,0.166,8.054,0.595,10.694
		c-1.147-0.043-1.726-0.661-2.677-0.903c-0.488-2.083-1.105-5.949-1.04-8.587C293.477,311.609,294.141,310.827,295.289,310.535z
		 M288.004,312.793c0.614-0.064,1.29-0.346,2.23-0.451c0.193,2.401,0.53,4.299,0.595,6.63c-0.883-0.112-1.536-0.454-2.23-0.756
		C288.564,316.574,287.818,314.846,288.004,312.793z M285.923,313.697c0.289,1.113,0.559,2.246,0.446,3.766
		c-1.266-0.073-2.426-0.253-3.42-0.604C283.769,315.633,285.055,314.878,285.923,313.697z M262.431,378.324
		c-1.729-3.277-1.379-7.086-2.379-10.395c-0.624-2.068-3.175-7.857-3.717-12.504c-0.32-6.964,3.448-10.388,8.029-13.708
		c3.78-2.741,5.124-8.427,8.623-11.147c4.746-2.577,11.582-2.808,16.8-0.905c4.988,2.64,10.272,8.359,13.233,14.462
		c1.317,2.717,1.85,9.813,0.595,12.955c-0.271,0.679-4.178,7.703-6.988,9.491c-4.373,1.347-7.109-0.095-11.151,0.303
		c1.4,2.011,5.469,2.291,7.582,2.409c6.261,6.742,9.622,18.219,9.218,30.279c-5.438,6.929-14.48,12.515-25.275,11.448
		C272.511,399.945,264.669,391.78,262.431,378.324z M282.502,484.979c2.068,0.169,6.11,0.937,8.178,2.109
		C288.097,488.483,283.216,487.733,282.502,484.979z M293.356,486.033c-3.017-1.643-7.625-2.031-10.557-3.315
		c0.391-0.999,0.683-1.195,1.189-2.109c4.622,0.741,9.005,1.724,12.787,3.315C295.826,484.821,294.551,485.386,293.356,486.033z
		 M298.56,482.568c-4.132-1.588-8.758-2.674-13.529-3.615c0.193-0.824,0.818-2.201,1.487-3.013
		c5.93,0.552,10.353,1.729,15.462,3.013C300.782,480.1,299.96,481.628,298.56,482.568z M303.615,477.297
		c-5.94-0.931-11.35-2.787-16.355-3.165c0.376-1.226,0.794-2.409,1.338-3.464c6.642,0.741,11.728,1.653,17.247,3.163
		C305.12,475.005,304.5,476.285,303.615,477.297z M307.034,472.174c-5.529-1.526-11.872-2.231-17.692-3.465
		c0.562-1.188,0.806-2.697,1.338-3.918c5.88,1.007,12.392,1.171,17.543,2.563C307.987,469.122,307.504,470.642,307.034,472.174z
		 M308.819,465.545c-5.22-1.223-12.295-1.694-17.544-2.56c0.264-1.673,0.364-3.223,0.446-4.368
		c5.794,0.636,11.96,1.375,18.436,1.808C309.727,462.07,308.571,463.707,308.819,465.545z M310.751,458.616
		c-7.172-0.357-12.252-1.077-19.03-1.807c-0.244-1.809-0.609-4.141-0.892-5.425c6.742,0.22,16.126,1.286,23.045,2.561
		C312.688,455.357,311.565,456.83,310.751,458.616z M315.956,451.686c-8.054-0.022-17.761-1.638-25.871-2.71
		c-0.579-1.221-1.077-2.525-1.636-3.766c0-0.103,0-0.201,0-0.303c11.317,1.165,21.16,2.027,31.372,3.165
		C318.808,449.456,316.613,450.443,315.956,451.686z M321.158,446.265c-11.577-0.998-22.692-1.805-33.749-3.617
		c-0.329-0.797,0.043-1.94-0.149-2.562c10.917,0.24,21.939,0.967,35.385,1.959C322.304,443.608,321.865,445.071,321.158,446.265z
		 M287.855,438.279c0.084-0.963,1.455-1.136,1.933-2.108c0.368,0.833,1.154,1.239,1.338,2.258
		C289.806,438.703,289.203,438.465,287.855,438.279z M322.942,436.622c0.491,1.337-0.098,2.194,0.149,3.464
		c-6.448-0.103-13.349-0.892-19.477-1.054c0.828-1.219,2.491-1.592,2.974-3.162C311.629,436.112,317.526,435.778,322.942,436.622z
		 M314.915,426.68c0.493,0.957,1.296,1.599,1.486,2.861c-2.622-0.149-4.354-0.059-6.84-0.149c-0.28-1.194,0.881-1.398,0.445-2.712
		C311.73,426.629,313.258,426.416,314.915,426.68z M313.429,424.722c-1.861,0.127-2.912,0.206-4.461,0
		C305.648,420.905,312.99,421.503,313.429,424.722z M309.116,431.199c3.082,0.319,5.794-0.235,9.068,0.451
		c0.417,1.337,1.598,1.897,2.528,2.712c-3.613,0.413-8.153-0.262-12.638-0.15C308.446,432.982,308.994,432.387,309.116,431.199z
		 M305.399,422.011c0.775,1.988,2.623,3.885,2.379,6.627c-0.568,6.349-7.797,12.707-15.314,8.737
		c-0.02-0.371-0.022-0.726,0.148-0.903c-5.489-7.577-10.585-14.691-14.57-23.198c10.314-0.083,18.567-4.625,24.234-10.395
		C303.227,408.792,303.153,416.247,305.399,422.011z M308.075,367.326c-1.772,0.069-4.471,0.548-5.799,0
		c8.346-8.209,7.695-23.946,0.149-33.593c-3.413-4.363-11.182-9.894-17.99-10.395c-2.372-0.174-4.659,0.639-7.137,0.603
		c-1.654-2.108,0.999-4.383,1.636-4.819c4.237-0.987,8.606,0.712,11.746,2.258c9.721,4.791,20.94,10.439,22.451,23.351
		C314.108,353.085,314.102,362.994,308.075,367.326z M313.724,367.477c-1.051,0.063-1.717-0.268-2.824-0.15
		c1.285-1.66,2.703-3.187,3.272-5.574C314.386,363.998,314.513,366.11,313.724,367.477z M315.212,345.784
		c-2.633-8.726-2.685-20.308-2.677-29.525c1.143,0.349,2.08,0.905,3.271,1.204c0.296,0.345-0.238,0.763-0.446,1.055
		C316.415,328.083,315.493,335.489,315.212,345.784z M319.97,368.08c-1.336,0.309-2.567-0.278-3.865-0.453
		c0.817-15.998,1.371-32.878,1.783-49.109c1.084-0.268,2.28,0.584,3.42,0.755C321.175,333.835,320.245,352.15,319.97,368.08z
		 M325.025,368.983c-1.321-0.066-2.234-0.548-3.123-1.054c-0.082-16.415,0.983-32.469,1.338-48.055
		c1.619,0.215,2.908,0.768,4.461,1.054C326.23,334.964,325.946,351.738,325.025,368.983z M326.659,371.996
		c-0.094-0.992,1.306,0.25,1.487-0.602c-0.056-0.847-0.84-0.955-1.189-1.505c0.651-16.554,0.514-33.246,2.825-48.358
		c1.091-0.093,2.551,0.587,4.014,0.604c0.127,9.783-1.432,20.491-1.783,31.333c-0.321,9.88-0.252,19.64-1.636,29.074
		c-0.101,0.684-0.393,1.311-0.743,1.959C328.897,380.639,328.07,376.555,326.659,371.996z M334.838,396.25
		c2.05-1.038,3.896-1.142,6.095-1.958c0.129,1.176,0.384,2.222,0.595,3.314C338.981,397.804,336.804,397.204,334.838,396.25z
		 M412.299,490.853c1.213,1.71,3.157,1.844,4.607,3.163c-1.197,0.344-1.913,1.175-3.122,1.507
		C413.05,494.212,412.618,492.588,412.299,490.853z M416.609,498.988c-0.706-0.439-0.996-1.299-1.635-1.807
		c0.719-1.307,3.69-1.049,3.866-2.411c1.67,0.35,2.631,0.524,4.609,0.602C421.389,496.798,419.15,498.048,416.609,498.988z
		 M422.558,504.714c8.592-3.988,15.816-8.547,24.085-12.955c-0.115,1.59-0.326,3.084-0.594,4.519
		c-7.529,3.77-14.662,7.942-22.154,11.749C423.444,506.928,423.29,505.526,422.558,504.714z M435.938,541.018
		c3.306-2.319,7.403-3.777,11.447-4.971C445.679,539.915,440.965,544.081,435.938,541.018z M448.426,533.486
		c-5.049,1.662-9.323,4.11-14.421,5.724c-0.374-0.525-0.3-1.503-0.743-1.958c5.042-2.876,10.745-5.08,16.503-7.231
		C449.438,531.297,448.829,532.287,448.426,533.486z M450.51,527.461c-5.933,2.674-11.858,5.103-17.693,7.532
		c-0.279-1.184-0.253-2.554-0.447-3.466c5.378-3.498,12.327-6.181,18.585-8.285C450.967,524.477,450.852,526.002,450.51,527.461z
		 M450.954,521.132c-6.479,2.476-12.898,5.011-18.881,7.986c-0.113-0.854-0.534-2.123-0.892-3.165
		c5.696-3.719,12.686-6.126,19.329-8.887C450.681,518.398,450.967,519.614,450.954,521.132z M450.063,514.957
		c-6.155,3.105-12.834,5.678-19.179,8.588c-0.764-0.636-1.017-1.784-1.636-2.564c0.169-1.183,1.75-0.936,2.229-1.807
		c6.65-2.205,11.636-5.613,17.692-8.137C449.689,512.121,449.756,513.661,450.063,514.957z M448.725,508.931
		c-6.403,3.858-13.474,7.036-20.815,9.943c-0.395-0.955-0.955-1.744-1.338-2.712c6.606-4.308,13.978-8.289,21.262-11.448
		C448.036,506.214,448.514,507.436,448.725,508.931z M425.828,514.054c-0.723-1.026-0.999-2.505-1.338-3.919
		c6.908-4.297,14.248-8.157,21.707-11.899c0.528,1.373,1.082,2.719,1.04,4.671C439.616,506.332,433.213,510.257,425.828,514.054z
		 M446.643,489.347c-7.853,5.051-16.229,9.565-24.977,13.71c-1.153-0.792-1.935-1.959-3.421-2.411
		c9.297-4.941,18.381-10.099,28.101-14.612C446.721,486.856,446.643,488.142,446.643,489.347z M445.752,484.226
		c-5.317,2.598-10.953,5.674-16.06,7.983c1.486-1.107,2.069-3.128,2.528-5.272c4.453-1.565,8.219-3.825,12.191-5.874
		C445.145,481.826,445.668,482.804,445.752,484.226z M442.628,479.706c-2.894,2.138-6.414,3.643-10.11,4.971
		c0.215-0.701-0.22-1.69-0.148-2.71C435.649,481.143,439.497,476.987,442.628,479.706z M437.275,477.748
		c-1.632,1.008-3.757,1.516-5.649,2.259c-0.027-0.678-1.185-1.271-0.892-2.108c0.197-0.567,4.246-2.432,4.46-2.41
		C436.528,475.613,436.246,477.244,437.275,477.748z M434.45,473.831c-1.47,0.722-2.773,1.609-4.459,2.109
		c-2.26-2.232,1.581-3.18,3.419-3.917C434.031,472.349,434.291,473.041,434.45,473.831z M431.774,470.365
		c-0.608,1.091-2.17,1.217-3.122,1.959c-0.711-0.735-0.855-2.046-1.485-2.862C428.674,468.006,430.692,469.32,431.774,470.365z
		 M424.639,469.161c1.165,4.5,4.727,8.621,5.947,13.407c1.072,4.207-2.244,10.114-5.947,10.847
		c-4.008,0.792-8.076-1.546-10.407-3.314c-1.853-1.404-3.563-3.891-5.501-5.875c-2.521-2.578-4.714-4.828-6.988-7.232
		c9.97,0.309,15.942-8.316,16.354-16.42C420.34,462.772,422.425,466.432,424.639,469.161z M393.268,424.118
		c5.794,2.513,10.509,10.12,14.272,15.968c3.526,5.478,4.986,12.497,9.069,18.078c-0.3,7.719-5.484,17.268-12.787,17.021
		c-0.57-0.018-2.955,0.172-3.12,0.152c-1.138-0.141-6.35-5.271-6.691-5.573c-6.977-6.178-14.728-13.175-20.221-19.887
		c-3.695,0.109-7.214-4.73-8.402-7.328c-1.649-3.608-2.454-7.865-2.302-11.803c-0.254,0.007-0.385-0.111-0.446-0.301
		c-0.858-0.017-1.268,0.42-1.486,1.054c-6.276-12.043-15.146-24.143-18.436-37.661c11.796-5.181,30.873-5.054,44.009-1.958
		c0.74,5.302,2.163,10.71,2.527,16.569c0.23,3.701,0.446,8.136,0.893,11.903C390.344,422.033,391.805,427.897,393.268,424.118z
		 M389.104,388.115c-0.944-0.271-0.475-1.04-1.189-1.505c-8.185-1.251-17.617-2.27-26.167-1.96
		c-5.793,0.21-10.98,0.903-16.057,2.562c-2.433,0.793-4.664,1.95-6.989,2.862c-2.929,1.147-5.398,2.295-8.622,3.313
		c-0.987-1.924-0.029-4.823-0.745-6.477c0-0.102,0-0.202,0-0.301c0.683-0.061,2.044-0.379,2.826-0.304
		c4.237-2.381,10.31-3.638,16.205-5.423c5.321-1.609,10.105-3.478,15.611-3.766c7.508-0.39,15.682-0.312,22.303,2.411
		C391.061,378.833,389.947,385.084,389.104,388.115z M383.752,368.833c1.386,1.671,1.632,5.259,1.636,7.834
		c-1.032,0.092-1.607-0.279-2.379-0.453C382.918,373.131,383.625,371.418,383.752,368.833z M380.036,360.397
		c4.152,3.401,1.643,9.903,0.743,15.366c-1.126-0.19-1.876,0.048-2.678-0.301C378.231,370.727,379.351,364.916,380.036,360.397z
		 M376.17,375.313c-1.082-0.061-2.422,0.141-3.272-0.153c0.726-11.479,1.44-19.818,4.014-29.976
		C382.556,353.024,376.101,364.484,376.17,375.313z M387.767,275.283c-2.694,3.702-10.643,12.125-10.556,13.257
		c0.102,1.345,2.198,3.363,2.676,5.423c0.555,2.388,1.36,4.985,0.743,7.081c-0.848,2.875-2.944,3.379-3.866,6.325
		c-10.292,3.684-25.876,3.313-37.169,1.056c-3.117-0.624-6.417-0.925-8.772-1.657c-9.095-2.83-16.424-7.857-24.234-11.298
		c-2.387-2.015-5.365-4.569-4.906-8.135c-0.765-4.897,2.838-6.483,5.5-9.642c3.519-4.176,7.482-9.13,9.07-14.763
		c1.176-4.169,0.593-7.923,0.892-12.504c0.443-6.793,4.302-11.866,6.096-18.681c4.733,2.393,9.75-0.629,13.529-2.56
		c2.214-1.132,16.189-7.39,29.588-25.008c1.366,0.714,0.581,1.932,0.594,3.315c0.12,12.81,9.872,19.471,21.559,15.215
		c5.099-1.857,9.367-5.244,12.935-8.737c1.255,1.339-1.358,3.119-2.231,4.219c-6.565,9.664-11.483,32.035-3.717,43.985
		C392.844,267.009,390.864,271.028,387.767,275.283z M396.538,261.122c-6.744-14.516-2.396-35.06,6.988-45.494
		c1.003,0.339,1.573,1.117,2.231,1.809c-4.434,6.765-8.906,15.973-8.922,26.965c-0.005,3.376-0.011,8.01,1.337,11.298
		c0.225,0.547,1.155,1.207,1.19,1.958C399.436,259.242,397.471,260.178,396.538,261.122z M401.296,257.055
		c-1.512-2.862-2.584-7.009-2.379-10.244c3.283-1.092,7.448-1.291,10.259-2.861c2.128,1.962,3.012,5.184,5.501,6.778
		C411.114,253.748,405.922,255.113,401.296,257.055z M474.147,266.245c-3.964,0.258-13.766,0.724-17.691-0.303
		c-2.695,2.194-5.924,3.373-9.962,0.904c-11.046-8.441-28.292-11.405-35.237-23.5c4.701-2.581,18.077-8.1,19.595-8.478
		c8.299-2.066,18.837,1.264,23.968,5.917c1.245,1.13,2.4,2.553,2.825,4.368c1.583,1.987,2.843,0.683,4.609,0
		c9.134-3.529,11.873-0.128,20.409,1.116c6.56,0.956,13.098,1.925,20.071,1.657c-2.248,1.396-7.337,0.73-10.557,0.302
		c-4.581,0.115-8.685,3.232-8.343,8.605c0.23,3.625,4.538,5.551,9.234,5.254C490.813,263.295,481.905,265.738,474.147,266.245z
		 M533.362,254.707c-0.689,0.141-1.913,0.67-1.487,1.808c7.384-1.638,11.065,4.026,15.017,7.682
		c0.216,5.807-8.388-2.864-12.489-3.766c-1.002-0.221-3.097-0.038-4.163,0.301c-6.475,2.068-14.405,7.017-22.003,3.314
		c-3.48-2.772-7.451-5.768-12.639-6.176c-1.839-0.145-3.828,0.748-5.65,0.452c-1.978-0.319-2.191-2.938-0.892-4.066
		c2.244-3.052,7.281-1.591,11.448-1.207c9.01,0.832,13.086-6.096,17.693-11.599c2.062-1.771,6.39-5.672,12.192-6.177
		c0.002,0.148,0.18,0.117,0.297,0.151c1.224,1.254,0.403,3.351-0.596,4.368c-1.792,1.829-5.664,4.018-8.483,6.1
		c-0.799,0.591-2.888,2.972-3.559,6.102c2.193-1.393,3.382-3.806,5.649-5.121c4.77-2.342,9.045-3.035,12.787-4.067
		c3.342-0.925,6.683-3.822,9.814-2.11c1.155,4.843-5.943,5.986-11.648,7.227c-1.67,0.363-4.473,1.114-6.194,4.072
		c2.085-0.849,3.8-2.074,6.244-2.561c4.966,0.641,12.11,0.507,16.059,2.26C552.921,258.395,539.138,253.538,533.362,254.707z"/>
</g>
</svg>
