<?xml version="1.0" encoding="utf-8"?>
<!-- Generator: Adobe Illustrator 17.0.0, SVG Export Plug-In . SVG Version: 6.00 Build 0)  -->
<!DOCTYPE svg PUBLIC "-//W3C//DTD SVG 1.1//EN" "http://www.w3.org/Graphics/SVG/1.1/DTD/svg11.dtd">
<svg version="1.1" id="Layer_1" xmlns="http://www.w3.org/2000/svg" xmlns:xlink="http://www.w3.org/1999/xlink" x="0px" y="0px"
	 width="800px" height="600px" viewBox="0 0 800 600" enable-background="new 0 0 800 600" xml:space="preserve">
<path fill-rule="evenodd" clip-rule="evenodd" fill="#040404" d="M283.336,42.07c-33.479,5.67-40.393,66.214-4.747,73.547
	c2.107,1.546,4.621,3.282,6.54,5.248c-16.177,9.033-26.495,26.416-42.449,35.852c-17.872-2.532-21.44,15.177-22.723,28.717
	c3.145,1.709,6.706-1.1,8.854-3.233c0.248,1.02,0.726,2.633,2.158,2.781c4.754-3.872,8.37-0.343,12.409-6.231
	c3.657,4.542,7.002-3.553,9.979-5.925c15.571,6.304,31.074-9.453,44.266-16.319c26.199,1.175,48.221,19.878,54.965,45.136
	c-1.119,2.502-0.326,6.749-3.156,7.69c-25.257,6.758-52.06,15.624-68.498,38.362c-11.467,24.166-7.842,52.611,13.315,70.334
	c3.906,5.562,6.411,11.799,9.914,17.568c-16.214,3.122-36.908,11.737-34.631,32.472c32.406,37.691,74.202,70.498,103.459,111.393
	c0.341,3.663-0.3,7.764,1.472,11.163c3.805,3.124,8.013,6.01,12.764,7.448c20.808,24.269,40.474,50.437,65.634,71.056
	c45.203,21.223,98.692,0.642,145.935-3.327c1.728-2.734,3.017-6.052,2.053-9.484c-43.526-10.48-76.736-43.021-113.168-69.516
	c5.272-41.077,13.973-87.811,0.167-130.341c-2.752-2.55-6.276-3.832-9.592-4.71c-5.335-0.605-10.397,0.426-14.981,3.056
	c-7.238-6.851-14.093-14.733-22.674-19.897c-3.68-14.764-9.164-29.041-18.861-41.307c4.543-13.674,22.353-17.67,25.216-32.496
	c5.205-7.568,15.16-14.11,13.111-24.234c0.097-2.666,0.186-5.523,0.473-8.197c3.332,11.306,1.688,26.082,16.095,28.757
	c3.177-12.178-4.289-24.947-8.034-36.649c6.009-12.705,3.562-27.519,1.365-41.314c1.953-31.954-15.936-59.622-33.906-84.625
	c-23.865-18.833-50.349-36.941-79.821-43.292c-10.82,5.136-22.308,9.079-32.239,15.826C313.515,55.953,299.52,43.246,283.336,42.07
	L283.336,42.07z M285.908,45.245c-3.236,0.737-6,2.894-9.019,4.254c-8.117,11.159-9.925,26.956-4.895,39.826
	c11.481-3.736,22.934-8.502,33.063-15.448c2.264-9.698-7.684-18.071-15.779-21.416c-1.259-0.567-4.536-0.844-3.195-2.943
	c2.23-0.504,4.544,1.049,6.618,1.773c5.616,2.431,10.287,6.932,15.145,10.615C305.257,53.645,293.794,48.187,285.908,45.245
	L285.908,45.245z M314.458,63.886c-0.42-0.188-0.609,0.231-0.782,0.649c2.003,3.993,4.022,8.411,6.025,12.418
	C321.937,71.948,316.264,68.107,314.458,63.886L314.458,63.886z M313.687,69.845c-0.206,0.009-0.395,0.413-0.386,0.618
	c1.978,3.391,3.365,7.423,5.342,10.813C317.462,77.236,315.674,73.441,313.687,69.845L313.687,69.845z M400.437,73.022
	c-0.205,0.008-0.625-0.18-0.608,0.231c1.831,4.823,2.649,9.702,3.666,14.764c0.641,0.577,1.662,0.74,2.305,1.332
	c0.205-0.009,0.403-0.223,0.394-0.429C405.145,83.449,405.076,76.715,400.437,73.022L400.437,73.022z M313.972,76.776
	c0.322,2.84,2.103,6.444,3.028,9.275c-0.008-0.206,0.394-0.428,0.386-0.635C316.438,82.397,315.513,79.566,313.972,76.776
	L313.972,76.776z M362.586,76.826c-2.643,0.109-5.301,0.217-7.728,0.921c-7.748,10.129-11.424,25.194-3.623,36.111
	c0.239,0.799,0.265,1.416-0.526,1.861c-10.952-7.729-12.198-23.402-7.143-34.641c-2.617,1.122-4.566,3.453-6.309,5.774
	c-10.609,15.351,2.315,41.37,21.52,41.612c-0.216-0.61-2.505-1.531-0.9-2.215c1.647,0.345,3.096,0.889,4.734,1.026
	c-7.106-3.989-8.232-11.708-11.38-18.522c-0.231-0.608-0.47-1.422,0.335-1.852c4.902,5.109,8.134,13.963,16.203,16.691
	c5.44,2.836,10.284,6.52,16.088,8.533c5.188,2.038,10.237,5.714,15.396,6.722c0.355-1.029,0.106-2.446,0.255-3.482
	c-13.865-4.535-28.193-14.979-34.838-27.782c4.587,2.46,6.863,8.088,11.087,11.401c3.394,3.126,7.748,4.579,11.717,6.667
	c4.148,1.463,8.316,3.733,12.646,4.584c2.08-4.174,3.278-9.738,5.992-13.116c2.742,1.932-1.559,6.801,0.318,7.753
	c1.011-0.453,2.221-0.709,3.241-0.956c2.987-1.756,6.722-5.38,10.031-4.295c-1.387,5.984-6.717,10.498-9.546,16.129
	c-0.575,1.039-1.151,2.093-1.305,3.32c6.35-4.762,13.051-15.656,21.022-10.674c-4.878,5.511-13.164,7.895-18.864,13.438
	c-3.361,7.699,3.663,14.353,3.167,22.345c1.087,1.382,4.107,0.45,4.397,2.482c-5.439,1.856-6.785,8.853-9.876,13.481
	c6.173,0.967,12.766,2.124,18.762,4.128c7.004,1.14,13.099,5.596,18.978,9.429c0.756-1.664,1.291-3.318,1.224-4.947
	c-6.049-8.328-11.957-17.896-22.871-19.699c-3.31-1.085-2.433-4.797,0.73-2.28c4.191,2.491,9.509,2.684,13.716,5.571
	c2.342-7.45,3.373-17.097,7.435-22.78c1.499,1.777-0.03,4.296,0.259,6.328c0.045,6.132-4.345,13.46-2.498,18.695
	c3.378-7.288,2.821-15.854,4.125-23.867c-0.117-2.862-1.436-5.25-2.573-7.865c-1.781-3.604-3.365-7.422-4.939-11.035
	c-0.915-2.213-3.09-5.389-1.552-7.703c4.652,3.693,5.143,10.615,8.201,15.608c7.439,11.741,2.685,25.63-1.112,37.421
	c0.645,1.003,1.492,1.571,2.348,2.359c3.427-10.76,8.892-22.016,6.76-34.196c-10.889-36.325-48.457-50.713-79.302-65.788
	C371.847,78.489,367.104,77.244,362.586,76.826L362.586,76.826z M406.515,77.068c-0.61-0.181-0.37,0.617-0.354,1.03
	c1.592,4.024,1.776,8.502,2.563,12.97c1.677,0.74,3.366,2.113,5.226,2.639C414.284,87.163,411.976,80.727,406.515,77.068
	L406.515,77.068z M305.417,82.643c-0.816-0.172-1.407,0.47-1.993,0.891c0.933,3.036,2.278,6.04,3.628,8.853
	c1.622-0.273,2.163-2.134,2.919-3.401C308.867,86.782,308.1,83.152,305.417,82.643L305.417,82.643z M333.674,84.131
	c-3.477,4.85-4.206,11.822-6.013,17.618c0.646,5.695,3.917,10.871,7.362,15.23c-0.042-1.028-0.494-2.024-0.742-3.043
	C328.808,104.968,329.969,93.476,333.674,84.131L333.674,84.131z M300.061,86.54c-0.594,0.23-1.424,0.058-2.001,0.699
	c1.96,2.98,2.293,6.438,4.246,9.211c0.419,0.188,1.036,0.163,1.447,0.147c0.206-0.008,0.586-0.421,0.577-0.627
	C303.587,92.515,302.211,89.1,300.061,86.54L300.061,86.54z M415.326,82.413c-0.617,0.025-0.378,0.839-0.361,1.25
	c0.966,3.843,0.951,8.125,1.721,12.182c1.267,0.772,2.938,1.718,4.38,2.071c-0.02-5.515-1.504-11.587-5.74-15.488V82.413
	L415.326,82.413z M294.654,89.204c-1.021-0.149-1.614,0.478-2.404,0.922c2.2,3.793,3.867,9.652,8.798,10.465
	c0.395-0.428,0.164-1.021,0.138-1.639C299.21,95.562,297.627,91.744,294.654,89.204L294.654,89.204z M289.041,91.478
	c-5.998,3.321-12.638,5.638-19.321,7.339c1.558,3.201,4.539,5.947,7.283,8.276c1.751-2.116,1.815-5.59,4.406-7.329
	c4.048-0.99,8.56-0.351,12.437-0.51C292.51,96.455,290.574,94.078,289.041,91.478L289.041,91.478z M422.729,88.655
	c-0.205,0.008-0.411,0.016-0.402,0.223c1.188,4.231-0.767,11.063,4.412,12.894C426.957,97.056,426.131,91.987,422.729,88.655
	L422.729,88.655z M314.436,93.099c-4.515,4.672-9.238,8.954-13.538,13.838c-4.765,3.255-10.06-1.426-15.353-1.003
	c-1.333,2.29,0.011,5.309,1.315,7.3c2.057,0.313,4.254-0.998,6.056-1.881c0.419,0.175,0.824,0.363,1.038,0.561
	c0.692,1.81-1.521,2.724-2.92,3.385c-3.982,2.62-7.162-0.309-8.531-3.931c-0.378,0.824-0.756,1.664-1.347,2.306
	c7.379,5.61,15.994,16.288,26.207,11.382C313.94,115.801,315.308,104.3,314.436,93.099L314.436,93.099z M429.433,92.865
	c-0.412,0.017-0.807,0.048-1.005,0.248c0.553,3.448,0.285,6.946,0.839,10.394c1.26,0.963,2.521,1.941,3.978,2.69
	C432.863,101.521,433.649,95.972,429.433,92.865L429.433,92.865z M267.119,99.939c-0.822,0.034-1.423,0.47-2.222,0.708
	c2.398,3.58,6.813,6.869,10.576,8.966C273.291,106.231,269.691,103.113,267.119,99.939L267.119,99.939z M436.863,99.724
	c-0.263,3.276,1.354,7.902,2.519,11.532c8.386,10.084,13.374,22.338,20.172,33.502c1.466,0.955,2.562,2.543,3.822,3.52
	c-0.272-1.622-0.34-3.266-0.604-4.682C456.604,127.713,446.429,113.834,436.863,99.724L436.863,99.724z M305.164,111.247
	c-4.856,1.023-8.394,4.433-12.581,7.061c-0.19,0.406-0.379,0.825-0.147,1.433c0.428,0.394,0.839,0.378,1.251,0.361
	c2.584-1.548,5.191-2.875,7.785-4.202c2.041-0.084,4.082-0.169,5.875-1.271C308.308,112.957,306.415,111.608,305.164,111.247
	L305.164,111.247z M301.208,119.176c-1.636,0.273-5.265,1.437-3.528,3.616C299.937,123.317,303.944,121.315,301.208,119.176
	L301.208,119.176L301.208,119.176z M328.232,130.731c-6.419,2.719-13.051,5.638-19.264,8.351c1.688,1.357,3.189,3.134,5.074,4.292
	c11.162,13.221,29.287,11.874,44.382,11.255c1.368,3.21-5.083,5.519-7.451,7.66c15.258,8.361,32.715,10.498,49.764,12.667
	c1.051-4.132,2.102-8.265,2.756-12.38c-3.343-1.908-7.441-2.137-11.172-3.425c-20.298-1.815-39.819-9.397-57.409-20.104
	C332.754,136.267,330.194,133.725,328.232,130.731L328.232,130.731z M280.661,136.361c-9.225,4.261-17.97,10.136-26.083,16.396
	c1.361,3.416,5.133,5.717,6.896,8.911c1.26,0.962,2.742,1.932,3.402,3.331c0.016,0.411-0.371,0.633-0.568,0.847
	c-5.384-1.824-9.074-6.791-13.103-10.7c-0.6,0.423-1.636,0.274-2.213,0.9c3.847,4.137,7.941,9.279,12.965,12.339
	c7.266-2.138,14.064-5.681,20.422-10.237c1.4-0.661,5.983-3.305,1.916-3.138c-3.3-0.482-6.576-0.745-9.681-1.853
	c-3.516-1.077-8.139,0.951-11.08-1.179c10.624-4.936,24.38-3.044,35.871-1.883c-2.794-3.563-7.56-4.999-11.701-6.257
	c-2.051-0.534-11.862-0.527-6.439-2.795c1.407-0.47,3.037-0.536,4.667-0.603c1.225-0.257,2.88,0.293,4.074-0.374
	C289.401,135.384,283.936,136.638,280.661,136.361L280.661,136.361z M243.027,160.174c-3.02,0.948-6.056,1.882-9.059,3.24
	c-2.18,1.723-4.798,2.433-7.217,3.355c3.289,5.587,8.732-1.182,13.474-0.347c2.752,2.535,6.094,4.03,10.136,3.261
	C248.982,165.857,245.005,163.563,243.027,160.174L243.027,160.174z M462.202,154.446c-1.304,8.025-5.069,15.945-5.342,24.326
	c4.031,8.615,8.251,16.826,12.676,25.014c1.152-1.679,0.244-4.085,0.771-5.944C468.28,183.215,468.26,167.684,462.202,154.446
	L462.202,154.446z M355.565,174.559c-0.206,0.008-1.022-0.164-0.791,0.445c7.526,4.177,16.754,5.019,25.256,3.243
	C372.005,176.944,363.394,176.076,355.565,174.559L355.565,174.559z M398.98,181.971c-1.028,0.042-1.819,0.486-2.846,0.529
	c-4.115,4.037-11.343,2.098-16.783,3.954c-5.482,0.828-11.587,1.49-16.922,0.9c3.914,5.753,6.816,11.973,10.525,17.748
	c10.331,2.636,20.936,7.305,31.618,3.807c-0.711-2.634,1.589-11.097-2.978-8.056c-4.589,2.85-9.811,0.006-12.439-4.181
	c-0.232-1.005-0.891-2.008-0.316-3.047c5.053-1.236,9.192-4.672,12.935-8.091C401.502,183.912,400.035,182.942,398.98,181.971
	L398.98,181.971z M412.993,185.072c-8.653-1.895-13.207,6.47-19.831,9.595c6.135,5.059,11.378-6.6,17.594-4.605
	c3.93,6.178,1.574,13.629,0.837,20.396c-2.713,3.788-5.532,9.626-3.102,14.012c0.825,0.377,1.852,0.336,2.668,0.508
	c3.676-5.049,3.375-12.391,6.014-17.603c1.819-0.486,3.132-3.614,5.231-2.259c-0.675,8.603-3.319,18.728-0.325,27.181
	c0.642,0.59,1.283,1.167,2.289,0.921c1.298-3.114,3.846-5.88,3.285-9.534c-0.62-5.079-0.812-9.763,0.625-14.53
	c0.163-1.021,0.952-1.878,1.983-1.507c4.861,8.788,0.928,22.643,8.966,29.255c3.55-8.118,0.333-16.973-0.833-25.294
	c0.584-0.847,0.508-2.684,1.949-2.331c0.866,1.391,1.952,2.773,2.02,4.418c1.872,5.836-1.372,16.397,6.053,18.137
	c1.005-0.247,1.169-1.284,0.93-2.083c-3.482-10.285-4.345-21.281-6.213-32.03C435.014,189.067,423.867,186.259,412.993,185.072
	L412.993,185.072z M296.915,243.567c-9.897,7.952-16.875,22.138-13.5,34.457c10.133,12.867,27.229,11.548,40.542,17.34
	c-3.735,3.625-11.316,3.112-15.421,7.37c-1.045-0.369-1.902-1.556-1.548-2.584c1.175-1.489,3.629-1.179,4.796-2.859
	c-1.672-0.946-3.91-0.663-5.77-1.189c-6.149-0.367-12.175-2.766-18.078-2.524c2.207,3.984,5.404,7.325,8.198,10.887
	c2.8,3.371,5.42,7.337,9.571,9.212c13.151-3.187,25.279-11.245,37.488-17.674c0.089-2.857,1.207-5.359,1.09-8.223
	c-7.434-1.931-15.712,0.645-23.146-1.286c-3.762-2.096,2.335-2.964,4.162-3.245c3.474,0.063,6.965,0.538,10.205-0.42
	c-5.824-7.512-16.097-8.738-23.655-13.737c-0.436-0.585-0.042-1.013,0.138-1.638c5.268-1.025,10.733-2.279,15.769-3.912
	c-1.055-0.972-2.693-1.111-3.96-1.882c-0.422-0.601-0.258-1.621,0.541-1.86c15.88,3.436,33.119-4.419,39.431-19.8
	c-9.357-9.014-22.502-20.727-36.401-16.068c7.212,1.543,20.943,2.818,26.207,11.382c-13.856-3.932-30.21-4.275-44.043,2.013
	c-11.849,5.179-18.656,18.534-23.513,29.559C285.065,258.762,292.492,250.485,296.915,243.567L296.915,243.567z M395.733,222.553
	c-30.244,19.626-49.984,56.178-44.189,92.713c9.871,11.863,24.813,17.574,39.506,17.177c-1.387,5.984-11.57,6.609-17.537,5.618
	c6.067,13.445,19.688,11.665,31.358,7.509c3.885,0.047,7.438-2.967,10.912-2.904c-3.042,5.435-9.212,9.571-15.715,10.25
	c-4.041,1.181-8.741,0.962-12.576,2.149c6.307,4.228,14.591,7.168,22.936,6.208c9.986-0.41,20.174-1.24,28.738,3.512
	c3.738,1.494,8.273,2.324,10.845,5.484c-14.021-3.308-31.198-3.618-45.946,0.459c-1.043,4.337-1.69,8.644-2.947,12.785
	c-2.899,8.9,2.795,18.271,5.796,26.533c8.791,0.241,18.634-3.634,27.821-3.805c-4.148,3.23-10.912,2.904-16.173,4.135
	c-2.904,3.796,7.807,6.019,11.298,6.478c12.727,1.523,29.129-2.004,38.477,6.805c-23.416,1.771-47.342,6.223-69.718,13.274
	c-2.632,0.726-1.668,4.158-1.995,6.216c5.912,4.656,12.048,9.713,18.726,13.323c15.539,0.186,32.858-0.731,46.368,4.833
	c-6.106,0.663-12.898-0.691-19.432-0.423c-3.243,0.544-16.217-1.982-12.206,1.119c17.143,9.504,37.115,13.391,56.409,15.453
	c-1.204-4.246-2.393-8.476-4.19-12.492c-16.294-8.524-35.746-9.77-53.584-11.495c16.566-4.548,38.324-1.97,53.14-14.021
	c5.093-15.33-10.637-25.509-22.148-32.186c-9.84-5.729,0.047-3.885,4.915,0.416c4.799,2.245,9,5.337,13.783,7.186
	c0.904-2.685,1.815-5.59,1.69-8.644c-11.335-12.406-28.466-16.6-43.598-21.906c4.567-3.055,13.859-5.673,20.212-5.331
	c-0.696,3.103-5.645,1.864-7.817,3.792c5.444,3.263,13.717,5.571,20.706,6.711c-0.571-3.86-1.331-7.697-2.715-11.318
	c0.128-26.981-28.522-38.058-46.614-50.597c4.204-2.217,14.433,7.983,15.204,2.038c-0.092-2.247-0.579-4.066-1.873-5.85
	c-4.894-4.904-8.799-10.465-13.098-15.598c-5.637,2.07-7.566,9.9-13.863,10.571c-1.975,1.713-4.112,4.464-6.769,4.572
	c3.296-4.635,9.056-8.343,10.435-14.518c0.482-3.3,4.019-6.711,2.882-9.723c-6.23,2.697-11.749,7.631-18.859,8.54
	c-2.222,0.694-5.998,3.305-7.523,0.912c5.217-2.259,9.132-6.493,13.483-10.159c1.744-2.307,4.987-2.852,6.302-5.567
	c-8.992-5.148-19.694-7.15-29.391-9.414c-0.068-1.63,1.802-0.883,2.807-1.13c4.304,0.22,8.789-0.155,13.087,0.272
	c7.258-2.343,16.422,1.988,24.801,1.85c6.269-6.39,15.569-8.817,20.567-16.377c-7.275,1.931-14.072,5.476-20.241,9.613
	c6.716-10.896,27.039-13.156,31.503-29.079c-11.676,14.379-28.083,22.818-44.601,28.189c-1.438,0.059-3.01,1.55-4.065,0.579
	c16.16-9.444,43.408-17.519,45.927-40.701c-0.461-1.202-1.844-0.13-2.658,0.109c-0.087,7.564-13.472,5.053-14.956-1.019
	c-8.407,9.126-15.324-5.298-12.982-12.749c-1.374,1.277-0.426,4.313-2.656,4.816c-4.691,0.383-9.072-2.084-12.251-4.616
	c-12.91,8.708-24.671,21.031-32.91,34.239c-1.547,2.109-2.012,5.805-4.415,6.727C367.128,247.01,383.559,234.496,395.733,222.553
	L395.733,222.553z M393.177,289.656c-2.824,0.734-6.263,1.492-7.991,4.211c-3.423,1.17-7.572-0.293-10.773,1.266
	c-0.181,0.61-0.361,1.236,0.272,1.621c3.688,0.261,7.393,0.918,10.71,2.209c4.265-0.366,8.733-1.167,12.098-3.762
	c1.606-0.669,4.33,0.852,5.046-1.429C401.581,290.135,396.1,290.977,393.177,289.656L393.177,289.656z M342.567,305.838
	c-4.231,1.189-8.939,1.176-13.183,2.379c-5.757,8.811-11.735,17.632-18.973,25.489c1.51,6.69,2.825,13.99,8.334,18.867
	c13.326,1.086,27.574-0.116,40.334,2.228c2.914,1.102,7.237,2.145,8.39,5.172c-3.432,0.95-7.376-0.521-11.047-0.371
	c-8.147,0.747-16.41,3.336-24.713,5.309c-0.396,0.016-1.004,0.248-0.988,0.643c13.741,6.188,28.676,11.694,41.029,19.16
	c-0.574,1.053-1.802,0.898-2.815,0.939c-15.297-4.285-31.341-7.098-46.259-12.207c0.899,2.213,3.583,2.721,5.271,4.078
	c14.28,9.622,31.319,11.585,47.586,14.8c0.073-13.285-0.102-27.575-5.714-39.596c-6.493-9.133-15.587-16.732-23.864-24.158
	C343.811,321.099,345.114,313.088,342.567,305.838L342.567,305.838z M339.05,329.472c-3.449,0.554-7.341,0.302-10.782,1.061
	c-2.138,2.735-3.437,5.848-5.797,8.195c0.017,0.412,0.24,0.815,0.462,1.217c0.61,0.166,1.021,0.15,1.638,0.124
	c4.747-3.666,9.923-6.937,15.568-8.802C340.303,330.23,339.669,329.859,339.05,329.472L339.05,329.472z M304.891,338.64
	c-7.292,1.521-14.37,3.237-21.2,5.974c-6.319,5.157-10.863,14.125-6.257,21.703c12.902-4.207,27.671-2.768,40.293,1.215
	c0.269-3.482,0.11-7.359-1.052-10.591C309.04,354.811,306.006,345.743,304.891,338.64L304.891,338.64z M290.076,365.798
	c-3.86,0.57-7.925,1.149-11.546,2.518c3.089,5.388,8.188,10.284,12.463,14.815c4.642-1.22,10.354-1.454,15.3-0.628
	c1.396-5.778,6.777-9.059,10.734-12.295c-1.703-1.357-4.158-1.667-6.027-2.4C304.177,366.043,297.023,365.924,290.076,365.798
	L290.076,365.798z M378.222,363.21c-0.625-0.18-0.395,0.414-0.377,0.825c2.631,9.291,2.029,19.332,2.635,29.103
	c3.294,0.689,6.39,1.576,9.847,1.229C388.442,383.221,384.335,372.754,378.222,363.21L378.222,363.21z M486.788,360.387
	c-1.366,1.483-1.265,3.935-1.601,5.788c2.663,30.117,4.946,60.676-2.88,88.974c0.342,3.664,1.923,7.069,3.679,10.071
	c0.518-2.066,0.426-4.312,1.164-6.387C497.131,428.197,494.209,391.75,486.788,360.387L486.788,360.387z M301.052,384.145
	c-2.025,0.495-4.922-0.21-6.501,1.091c2.577,2.954,5.535,5.48,8.31,8.234c0.955-1.466,0.443-3.901,0.993-5.557
	c0.369-1.044,0.739-2.074,0.902-3.096C303.703,384.242,302.082,384.515,301.052,384.145L301.052,384.145z M326.371,383.93
	c-3.81,1.789,3.683,5.158,5.388,6.927c2.108,1.547,4.011,3.102,6.11,4.442c1.5,1.777,4.999,2.457,5.09,4.689
	c-7.656-2.333-14.033-8.617-21.145-12.399c-0.93,2.083-2.895,4.002-4.244,5.895c0.849,0.981,2.099,1.342,3.146,2.108
	c1.87,0.747,3.146,2.121,5.015,2.868c2.306,1.332,5.78,1.396,6.923,4.201c0.018,0.412-0.377,0.84-0.779,1.062
	c-8.036-1.92-15.422-7.339-22.7-10.512c5.188,6.729,14.88,9.2,22.561,12.15c3.952,1.677-1.488,3.533-3.398,1.772
	c-1.828,0.281-4.999-2.457-5.712,0.235c22.374,2.553,45.807,1.18,68.894,1.056c0.791-0.445,2.857,0.089,2.585-1.533
	c-4.785-2.26-11.805,0.882-17.361-0.111c-6.363-0.563-12.496-0.914-18.85-1.272c-1.031-0.369-2.247,0.093-3.088-0.682
	C346.472,395.975,335.464,391.514,326.371,383.93L326.371,383.93z M350.558,390.894c-1.216,0.462-2.574,2.15-2.721,3.583
	c12.098,10.947,29.886,11.438,45.095,8.578c-0.272-1.621-0.948-3.034-1.403-4.443c-5.318-0.194-10.306-2.033-15.582-1.199
	C368.019,393.443,358.825,393.422,350.558,390.894L350.558,390.894z M322.957,410.413c-0.206,0.008-0.808,0.034-0.586,0.436
	c4.218,3.504,7.859,7.65,11.895,11.367c3.291,0.263,7.505-1.337,8.605-4.648c0.046-8.577-10.612-4.462-15.602-6.714
	C325.845,410.912,324.207,410.773,322.957,410.413L322.957,410.413z M344.878,411.969c-0.396,0.017-1.022-0.164-1.201,0.461
	c4.521,5.537-1.787,11.311-7.055,12.336c5.322,5.298,9.893,12.053,16.004,16.508c5.826-2.49,9.659-8.368,11.054-14.147
	c0.126-6.948-5.534-15.497-13.271-14.767C348.557,412.025,346.524,412.314,344.878,411.969L344.878,411.969z M360.828,412.124
	c-0.616,0.026-2.468-0.296-1.801,0.898c11.967,8.084,6.116,24.665-4.884,30.442c5.792,6.705,12.199,13.384,18.773,19.454
	c17.97-10.136,19.128-36.748,4.483-50.237C372.055,411.869,366.154,412.524,360.828,412.124L360.828,412.124z M382.699,412.462
	c-0.608,0.231-2.057-0.327-2.023,0.495c9.398,10.028,12.776,27.452,4.875,39.22c-0.156,1.227-1.136,2.091-1.291,3.318
	c4.015-1.798,8.691-2.195,12.946-3.179c-1.334-2.402-5.607-2.226-6.349-5.255c2.696-4.2,1.777-11.517,6.584-13.758
	c-1.084-6.693,0.467-13.698-1.843-20.149C391.465,412.102,386.814,413.101,382.699,412.462L382.699,412.462z M481.042,444.375
	c-0.617,0.025-0.797,0.649-1.399,0.675c-2.877,4.81-8.077,7.479-13.574,7.911c4.354,1.454,8.948,3.722,13.107,5.787
	C479.805,454.03,480.222,449.115,481.042,444.375L481.042,444.375z M389.992,460.775c-1.21,0.255-2.205,1.12-2.971,2.166
	c6.607,6.877,15.195,11.835,21.027,19.568c2.768,2.946,5.749,5.691,8.321,8.851c0.856,0.789,2.09,1.135,2.553,2.352
	c-3.152,2.777-6.316-4.448-9.823-5.319c-0.792,0.445-0.345,1.647-0.716,2.28c-0.172,0.816-0.335,1.853-0.919,2.685
	c-9.392,0.179-18.358-4.35-26.715-8.7c0.931,2.61,4.036,3.703,5.946,5.463c3.986,2.499,7.964,4.792,12.335,6.657
	c27.758,4.376,56.547-0.894,83.51-5.884c1.529-2.519,2.431-5.615,2.725-8.495c-7.942,0.737-13.923,4.455-21.642,5.594
	c-8.691,2.195-17.861,2.778-26.783,4.365c-4.495-0.227-9.176,0.376-13.326-1.086C412.683,481.098,402.015,469.887,389.992,460.775
	L389.992,460.775z M378.988,461.433c-1.58,1.3-6.187,3.725-2.637,5.623C377.31,465.384,378.035,463.31,378.988,461.433
	L378.988,461.433z M421.09,461.955c5.074,4.292,15.48,8.763,23.145,11.303c9.42,5.541,20.517,7.129,31.266,5.262
	c-10.883-1.392-21.708-6.051-32.592-7.444C435.828,467.689,428.343,464.511,421.09,461.955L421.09,461.955z M420.064,466.689
	c-0.206,0.008-0.83-0.157-0.815,0.239c4.729,5.528,9.047,11.484,13.175,17.448c0.016,0.397-0.56,1.038-0.98,0.85
	c-2.981-2.731-5.347-5.914-7.924-8.868c-2.259-5.217-6.981-0.935-10.858-0.775c3.674,4.953,7.974,10.087,12.612,13.778
	c13.771,1.892,28.099-2.373,41.078-4.745c-1.886-1.157-4.149-1.463-6.216-1.995c-6.398-1.782-12.261-5.219-18.871-6.786
	C434.013,473.28,426.94,470.084,420.064,466.689L420.064,466.689z M493.975,495.736c-3.827,1.379-10.216-0.198-11.875,4.165
	c5.636,7.947,17.926,8.869,26.616,6.674c-1.918-1.966-4.25-4.326-6.753-5.444C499.238,499.609,496.7,497.256,493.975,495.736
	L493.975,495.736z M479.4,498.996c-1.44-0.353-2.84,0.308-3.192,1.764c-0.139,1.638-0.269,3.482,0.209,5.095
	c0.866,1.391,1.952,2.773,3.221,3.956c11.759,7.681,26.972,9.925,40.451,5.077c-2.743-2.344-5.698-4.458-8.631-6.383
	c-10.526,2.271-22.815,1.745-30.888-6.087C479.912,501.418,480.059,499.984,479.4,498.996L479.4,498.996z M473.902,499.413
	c-5.884,1.065-12.438,0.51-17.177,4.382c-2.343,2.758-1.576,6.405-0.635,9.631c0.71,2.221,2.2,3.793,3.298,5.793
	c21.572,22.81,58.936,27.205,86.403,14.428c-6.811-6.457-15.383-11.415-23.165-16.818c-0.821,0.034-1.621,0.272-2.443,0.306
	c-15.118,4.71-35.021,2.865-45.765-10.183C473.495,504.548,473.591,501.882,473.902,499.413L473.902,499.413z M402.804,504.17
	c-0.411,0.017-1.019,0.248-1.003,0.659c2.142,2.368,4.498,4.919,6.639,7.288c2.46,0.105,5.292-0.423,7.267-2.137
	C417.232,502.357,406.954,505.647,402.804,504.17L402.804,504.17z M454.24,503.088c-3.458,0.348-7.128,0.498-10.8,0.65
	c10.082,11.633,0.572,28.982-12.984,31.994c18.214,20.904,44.417,37.185,72.462,28.488c4.074-0.373,8.132-0.746,12.205-1.119
	c1.82-0.486,3.655-0.562,5.465-1.253c-5.17-1.628-11.218,0.46-16.758-0.121c-7.812-1.107-16.725,0.686-24.34-0.634
	c-0.225-0.814,0.36-1.25,0.969-1.466c27.117-6.232,56.033-8.433,83.406-13.44c-4.86-4.095-10.115-7.763-15.581-11.216
	c-30.034,14.72-75.589,9.647-94.417-20.836C452.706,510.505,452.538,506.423,454.24,503.088L454.24,503.088z M440.199,504.282
	c-3.647,0.752-7.343,0.302-11.211,0.652c5.412,7.544-1.963,17.039-9.871,18.599c2.191,3.588,6.194,6.483,8.994,9.839
	C441.98,533.009,451.629,514.021,440.199,504.282L440.199,504.282z M422.042,505.219c-1.21,0.255-2.865-0.28-4.059,0.373
	c0.488,2.229,0.812,5.085-1.362,6.601c-1.785,1.294-4.041,1.181-5.834,2.284c1.071,1.383,1.969,3.184,3.641,4.13
	c3.716,5.981,10.824-0.032,13.506-4.231C429.602,510.233,427.308,503.782,422.042,505.219L422.042,505.219z M453.235,563.185
	c-0.411,0.017-0.831-0.172-1.225,0.256c3.203,3.134,7.163,5.016,10.935,7.317c3.095,0.888,6.201,1.996,9.303,2.677
	c39.546,3.084,78.612-5.873,117.494-9.307c2.6-1.137,7.525-0.515,8.195-4.22c-0.222-0.402-0.033-0.821-0.658-1.002
	C549.396,556.988,499.615,583.345,453.235,563.185L453.235,563.185z"/>
</svg>
