<?xml version="1.0" encoding="utf-8"?>
<!-- Generator: Adobe Illustrator 17.0.0, SVG Export Plug-In . SVG Version: 6.00 Build 0)  -->
<!DOCTYPE svg PUBLIC "-//W3C//DTD SVG 1.1//EN" "http://www.w3.org/Graphics/SVG/1.1/DTD/svg11.dtd">
<svg version="1.1" id="Layer_1" xmlns="http://www.w3.org/2000/svg" xmlns:xlink="http://www.w3.org/1999/xlink" x="0px" y="0px"
	 width="800px" height="600px" viewBox="0 0 800 600" enable-background="new 0 0 800 600" xml:space="preserve">
<g>
	<path fill-rule="evenodd" clip-rule="evenodd" fill="#FDFEFF" d="M633.473,239.515c-1.3,0.973-3.572,2.272-3.572,3.895
		c0,3.895,10.062,12.335,15.257,12.335s9.09-1.622,9.09-7.14v-0.325c0-1.947-6.817-5.845-8.762-6.817
		C638.667,238.54,641.59,239.515,633.473,239.515L633.473,239.515z"/>
	<path fill-rule="evenodd" clip-rule="evenodd" fill="#FDFEFF" d="M423.445,263.862l9.09,0.973l1.624,0.975
		c7.466,0,9.738,2.922,15.581-0.975c0-7.14,0-7.465-5.519-11.037c-5.194-3.57-6.167-3.895-13.958-4.218
		c-4.545-0.327-11.037,0.973-12.985,3.895c-1.299,1.947-0.649,5.192,0.65,6.815C420.199,263.212,420.849,262.239,423.445,263.862
		L423.445,263.862z"/>
	<path fill-rule="evenodd" clip-rule="evenodd" fill="#FDFEFF" d="M550.046,262.887c0-3.57-4.545-6.492-6.817-8.115
		c-3.57-2.597-4.87-4.545-10.712-4.545c-15.257,0-8.44,13.309-2.597,14.607c3.247,0.975,8.44,4.545,11.037,4.222
		C543.554,268.732,550.046,265.809,550.046,262.887L550.046,262.887z"/>
	<path fill-rule="evenodd" clip-rule="evenodd" fill="#FDFEFF" d="M421.823,270.029l-0.325,1.298c0.974,5.195,0,15.582,0,23.049
		c0,3.245,0,9.087-0.325,11.685c-1.298,6.169-0.324,5.842,1.624,10.064c2.272,0,1.947-0.65,3.571-0.65
		c5.517,0,8.765,1.298,13.633-0.65c2.921-1.298,9.414-2.272,9.414-5.842c0-0.65-1.622-6.817-1.622-7.467
		c-0.325-0.325-0.649-6.167-0.649-7.79c0-3.57,0-4.545,0-8.115c0-3.897,0.974-6.492,0.974-8.117v-1.947
		c0-1.622-2.597-3.57-4.545-3.57c-4.22,0-4.87,0.65-10.063,0c-3.895-0.65-5.842-2.92-8.115-2.92h-0.325
		C422.797,269.057,424.744,269.704,421.823,270.029L421.823,270.029z"/>
	<path fill-rule="evenodd" clip-rule="evenodd" d="M334.826,294.698h-0.649v0.327c0,0.323,0.324,0.323,0.324,0.648
		c0,0.973-0.649,0,0.325,0.973c0,0,1.947,0.975,2.272,0.975l7.141-1.298l-0.974-0.975l-4.22-1.298l-2.921-0.325L334.826,294.698z"/>
	<path fill-rule="evenodd" clip-rule="evenodd" fill="#FDFEFF" d="M623.083,253.147c2.272,9.092,1.622,14.934,0,25.322
		c-0.973,4.545-0.973,6.817-1.623,12.012c-0.973,4.545-1.295,9.087-1.295,12.982c-1.95,1.3-2.922,3.897-2.922,7.142v1.298
		c1.295,0.327,2.272,1.95,5.84,2.597c1.95,0.65,5.522,0.975,7.794,1.3c6.167,0.973,8.113-3.57,13.63,0.325
		c0.65-3.572,1.95-1.3,1.95-3.572v-0.65c0-2.595-0.973-2.92-0.973-4.867c0-1.622,1.622-2.922,1.945-4.22
		c0.65-1.625,0.65-3.247,0.977-5.195c0.645-5.192-0.327-6.817,1.945-10.387l2.272-25.969l-1.622-0.325
		c-0.973,0-1.3,0.325-2.922,0.325h-0.65c-0.973,0-8.762-2.922-10.385-3.57c-2.6-1.3-6.167-4.87-7.794-6.817l-3.568-0.65
		L623.083,253.147z"/>
	<path fill-rule="evenodd" clip-rule="evenodd" fill="#FDFEFF" d="M518.883,296.323c5.843,9.09,12.336,6.167,25.644,6.167
		c2.272-3.247,2.272-6.492,1.95-11.687c0-5.842,1.298-9.412,1.298-13.634c0-4.218-4.22-4.867-7.142-4.867
		c-1.622,0-1.298,1.298-2.272,1.298c-8.764,0-10.387-4.22-16.23-8.115c-0.325,0.325-0.325,0.325-1.299,0.325
		c-0.974,0,0-0.65-2.597-0.975c0,4.222,1.623,10.712,1.947,15.257C520.831,285.611,519.207,290.481,518.883,296.323L518.883,296.323
		z"/>
	<path fill-rule="evenodd" clip-rule="evenodd" fill="#FDFEFF" d="M334.826,296.646c-0.974-0.973-0.325,0-0.325-0.973
		c0-0.325-0.324-0.325-0.324-0.648v-0.327h0.649l1.299-0.973l2.921,0.325l4.22,1.298l0.974,0.975l-7.141,1.298
		C336.773,297.621,334.826,296.646,334.826,296.646L334.826,296.646z M313.726,289.181l0.324,5.845l5.519,5.192
		c5.194,0,13.309,4.22,22.074,4.22c2.921,0,8.44-0.65,9.739-1.947c0.649-0.975,5.518-6.492,5.518-6.817
		c0-3.895-4.545-6.817-7.142-8.44c-5.194-3.247-6.492-2.272-12.335-3.895C330.606,281.066,313.076,283.664,313.726,289.181
		L313.726,289.181z"/>
	<path fill-rule="evenodd" clip-rule="evenodd" fill="#FDFEFF" d="M517.584,306.386c0,4.87,1.947,6.492,3.571,9.09h3.571
		l2.272-0.325l5.844,0.975c4.868,0.648,13.634-0.975,13.634-5.52c0-2.597-0.65-3.245-2.275-4.22c-0.648,0.325-7.14,1.947-7.14,1.947
		h-5.195c-4.869,0-8.115-2.92-11.686-2.92C518.883,305.413,519.857,305.738,517.584,306.386L517.584,306.386z"/>
	<path fill-rule="evenodd" clip-rule="evenodd" fill="#FDFEFF" d="M315.349,307.036l2.272,13.957h-0.649
		c0.649,5.845,0.649,6.817,7.141,7.142c3.895,0.325,7.466,1.625,12.011,1.625h0.649c4.22,0,21.749-1.3,21.749-6.17
		c0-1.298-0.974-4.87-1.299-6.817c-0.324-2.92,0.65-3.895,0.65-6.817c0-0.973-0.974-3.57-2.597-3.57h-0.324
		c-2.922,0-6.817,4.545-13.309,4.22l-7.466-0.65c-2.597-1.622-5.195-1.298-8.44-2.27c-1.948-0.65-7.467-3.247-7.791-3.247
		C316.322,304.438,315.999,305.738,315.349,307.036L315.349,307.036z"/>
	<path fill-rule="evenodd" clip-rule="evenodd" d="M532.517,456.033h-7.142h-1.622v-1.622l-4.87-0.65h-4.22v-0.973h-1.622v0.973
		c-3.246,0-8.116,0-9.09-1.947l-1.623,0.325l-7.792-1.298c-2.595,1.298-6.816,0-9.412-1.625l-1.947,0.65l-4.87-0.65
		c-0.974-0.973-1.624-0.973-3.247-0.973h-0.324c-2.597,0-1.299,0.325-4.22-0.65l-1.622,1.298c-0.325-0.973,0-0.973-1.299-0.973
		h-1.624c-1.299,0-1.299,0-1.947,0.325l-2.597-1.622l-1.947,0.648l-1.624-0.975l-1.621,1.625c-0.326-0.325-0.975-0.975-1.3-0.975
		c-1.298,0-0.649,0-2.272,0.325v-0.975h-1.298c-1.299,0-1.624,0.327-2.597,0.65c-0.974-2.92-7.466-0.65-11.361-0.65l-1.299-0.973
		c-5.843,0-8.765-1.947-12.336,0c-2.921-0.65-4.22-1.298-6.817-1.298c-2.272-0.325-5.519,0-6.167-1.625l-4.545-0.648l-1.622,0.973
		l-3.571-0.648l-2.597-0.975v1.622l-7.141-2.595l0.649,1.622l-1.947-0.65l-2.596-0.325c-0.975,0-1.624,0.65-2.272,0.975v-0.325
		l0.324-1.298h-0.974l-0.324,1.298l-1.949-0.975l-2.596,0.325l-0.325-1.622c-0.649,0.325-0.649,0.65-1.622,0.325l-2.597,0.325
		h-0.974l-4.87-0.65l0.325-1.623h-0.974v1.298l-0.325,0.325l-4.22-3.572l-1.622,0.65c-0.65-0.65-0.65-0.973-1.949-0.973h-4.544
		c0,4.22-2.922,0.973-3.896,3.895h-1.299l-0.324-2.597l-1.624,1.298l1.624,0.975l-0.65,0.325l-0.324-0.65l-3.571,0.325l3.571-3.247
		l-2.597-0.973l0.325,0.325l-2.922,4.22h-2.596l2.272-1.623l-0.325-0.65l-2.272,1.298l0.974-2.92l3.571,0.973
		c-1.947-2.92-3.246-3.245-4.545-0.973h-4.545l-2.272,0.973l1.299-2.597l-2.272,0.325c-0.649-1.622-2.596-0.325-4.545,0
		c1.624-3.245-0.324-1.947-1.298-1.947h-0.65c-1.947,0-0.324,0.325-1.298-0.325l-1.623,1.947c-2.272-1.298-3.246-2.27-2.597,0.975
		h-2.921l0.649-2.272l-0.324-0.325l-1.624,1.3l-1.947-0.65l-1.623,0.973v-0.973h-2.272h-5.844c-0.649,0.325-1.622,0.973-2.272,0.973
		c-1.624,0-1.624-0.648-2.272-1.622l-1.299,0.325l-2.272-1.622l-4.544,0.973l0.649-1.622h-3.571v0.973h-0.974l0.325-1.298
		l-7.466,0.975l-1.624-1.298v0.648l-11.361-1.947l-0.325,0.65l-0.974-0.975l-5.844,0.325l-0.649-1.622l-1.947,0.973v-0.973
		l-1.947,0.325l-2.597-0.65v0.973h-0.974l-0.65-1.622h-2.921c-0.325,0.975-0.325,1.622-1.622,1.622
		c-1.947,0-2.272-0.323-2.597-1.622h-3.895c-2.272,0-0.325-0.973-3.571,0.65l-0.649-1.3h-7.467h-0.649
		c-1.299,0-1.947-0.323-2.921-0.973c-1.299,0.325-1.624,0.65-3.246,0.65h-1.299l-4.22-0.65h-3.895c-1.948,0-0.325,0-1.623,0.325
		l-1.299-1.3l-0.649,0.325l0.649,1.622l-0.974,1.625l-2.272-0.975l0.325,1.947l-2.272-1.622l0.324-0.325h-2.596l-2.921-1.622
		c0.649-3.895-0.975,0-1.949-3.895c1.949-0.975,4.221-4.22,5.519-6.167c2.272-2.922,2.272-4.222,5.519-6.17
		c0-2.92,12.66-20.124,15.257-20.124l-0.649-1.622c1.947-0.65,3.895-3.572,4.869-5.52c1.299-2.597,2.597-3.572,4.545-5.52
		c1.949-2.27,7.141-10.062,10.063-10.062l-0.974-2.597c2.271-1.622,2.921-5.517,5.842-5.517l1.299-4.22l2.272-0.325v-1.622
		c0-1.622,1.624-2.922,3.246-3.572l-2.597-0.325l1.949-3.245c0.324,0.325,1.298,0.975,1.622,0.975v-0.325l9.09-1.3l1.622,1.3
		c5.518,0,25.32,4.22,27.918,0.973l-1.624-0.325l1.947-2.27c-1.622-0.325-2.921-1.947-4.869-2.597c-1.949-0.65-3.896,0-6.169,0
		h-0.649h-3.571l-7.466-0.975c-3.246-0.323-10.063,0.975-10.063-3.57c0-1.3,0.65-1.95,1.299-2.597l-0.974-2.92l1.947-0.65
		l-2.272-2.922c0.975-5.52-3.245-9.737-3.245-10.062c0-1.3,0.324-1.625,0.649-2.597c-0.974-0.325-1.624,0-1.624-0.975
		c0-1.298,0.325-0.65,0.65-1.947l-1.624-0.65c0.325-1.298,0.65-0.973,0.65-1.947c0-0.973-2.272-5.192-2.272-5.517v-0.65
		c0-0.973,0.324-0.973,0.974-1.947c-2.272-5.195-0.65-5.517,1.947-7.142l3.246,1.3l9.738,0.975l9.09,0.648v0.65l1.299-0.65
		l18.502,1.623c0.974-0.65,1.624-1.623,3.571-1.623h1.299c4.87,0,4.87,6.167,4.22,10.712c-0.974,5.517,0.65,9.09,1.299,13.959
		c0.649,4.545,0.974,8.115,0.649,12.335c-0.324,5.517-1.298,8.115-0.324,12.66c0.649,4.22,0.649,9.74,0.974,14.932
		c0,3.572,2.272,8.44,2.921,12.012c1.299,11.687,1.947,17.852,0.974,27.267c1.624,0.65-0.649,2.272,5.519,2.922
		c3.896,0.325,5.193,1.298,8.115,2.272c7.142,2.597,7.792,3.245,16.881,1.947c8.44-1.298,9.413-0.65,15.582-5.195
		c0.974-0.65,3.895-0.973,6.167-2.92c1.624-0.975,2.921-4.545,4.22-6.492c-2.596-5.52-2.596-13.959-2.596-20.777
		c0-10.387-2.274-22.397-3.896-32.462c-1.299-8.44-1.299-24.669-4.869-31.487c0.324-1.3,0.649-2.597,1.298-3.897
		c1.299-2.272,2.272-1.298,2.272-3.245c0,0-3.246-6.167-3.895-7.79c-1.299-3.897-1.622-4.87-4.22-7.142
		c-2.272-1.947-3.896-3.572-6.492-5.195c-2.922-1.622-5.844-0.973-8.765-2.922c-3.571,0-8.765-0.973-11.687-0.973
		c-5.517-0.325-7.79,0.973-12.01,1.947c-2.922,0.65-6.817,2.597-9.09,4.545c-2.272,1.947-1.947,6.817-3.571,10.387
		c-7.791-1.947-13.958-3.247-21.424-3.247h-0.974l-9.09-0.648l-5.193-0.65c-1.622,2.597-5.844,1.625-9.089,1.625l0.649,1.947
		c-6.817-1.3-9.09-14.284-9.09-20.127c0-1.947-1.947-1.947-0.974-5.195c-0.325-0.325-1.299-1.298-1.299-1.298
		c0-1.947,0.65-1.947,0.65-3.57c-2.272-0.65-1.947-1.95-1.624-3.572c-1.947-0.973-2.921-5.517-2.921-6.815l-0.974-2.275h-1.298
		l-2.272,3.895l-0.649-0.323v0.973l2.272,0.65l-1.624,1.947c0.325,1.3,0.325,0.65,0,1.947l0.974,11.687
		c0.974,1.622,3.895,7.465,2.921,9.415c0.65,0.648,2.597,5.517,2.597,6.167c0,2.27-4.545,7.465-4.22,7.79l-0.649,2.272l-1.299-1.298
		c-0.974,2.27-3.571,3.57-4.869,5.517c-1.624,1.947-1.624,0.65-2.597,2.922c-0.974,1.298-1.299,1.947-2.272,3.245
		c-1.947,2.597-9.739,10.064-8.765,12.012c-2.922,0.325-12.984,14.282-14.283,17.204l-1.947-0.65
		c-0.65,2.922-3.895,8.115-6.169,8.115v2.272c-3.57,0.975-3.246,3.247-5.194,5.845c-1.298,1.622-2.271,0.973-3.246,2.272
		c-0.974,1.298-0.974,2.27-2.272,3.57c-2.596,2.922-2.596,3.57-4.545,6.492c-0.974,1.298-5.192,4.545-5.517,5.517l-1.949-0.323
		v-2.275h-0.974l-0.649-2.92l0.649-0.975l-1.298-1.622l0.974-1.623h-0.974l0.649-2.597l-0.974-1.298
		c1.947-2.272-0.65-3.895-0.65-9.74c-0.649-0.973-1.622-1.298-1.622-2.597c0-0.973,0.649-0.973,1.299-1.947
		c-1.299-0.323-1.624-0.65-1.624-2.597v-1.947h-0.974v-1.947c0-1.298-0.324-0.975-0.974-1.622v-1.3l-0.649-4.543
		c-2.597-1.947-1.949,0.648-1.949-3.572c2.597-0.973-1.622-0.65-1.622-3.245c0-0.325,5.844-9.415,7.141-10.712
		c2.922-3.247,6.169-6.167,9.09-9.414c3.571-3.57,5.194-5.842,9.413-9.412c2.272-2.272,9.09-6.817,10.064-9.74l0,0h0.65l6.816-5.842
		l5.519-6.495l2.272-0.323l1.947-1.3c-0.649-1.298,6.169-7.465,8.116-8.765c3.57-2.595,1.947-0.973,4.869-4.543
		c1.299-1.3,3.896-2.275,5.844-3.572l1.299,0.65c0.649-0.973,1.622-1.3,1.622-2.272v-1.623l2.921,1.298l-0.324-0.975l3.571-1.622
		l-1.3-0.648c3.571,0.648,3.571,0,7.791,1.298c1.624,0.65,5.195,0.65,8.441,0.65l3.895,1.947l1.299-0.65l4.545-0.325
		c3.57-0.325,8.44,1.95,13.958,1.95l1.298,0.648h2.597l1.947,1.622l2.922-0.65l0.325,1.625l0.974-1.625h2.271
		c0.975,0,1.948,0.65,2.597,0.975c1.622-0.648,6.492-1.298,7.142,1.622h1.623c0.325-1.947,3.895,0.975,5.519,1.947l1.624-0.973
		c0.324,0.65-0.975,0.325,0.974,0.325h1.947l3.57-0.325c2.597-0.325,4.545,0.325,7.466,0.325c3.247,4.867,6.817,2.597,13.31,3.245
		c0.974,0,6.492,0.65,7.142,0.65c2.596,0.973,3.246,2.272,6.492,2.272h0.974c5.194,0,10.712-1.622,15.257,1.298l0.974-1.298
		l1.623,0.975l10.712,0.648v0.975h2.597c1.624,0,3.246-0.325,3.896,1.622c1.298-0.325,1.298-0.65,2.596-0.65
		c1.947,0,1.947,0.325,2.597,1.622h0.974v-0.973h6.167c2.272-0.325,1.624-1.298,3.896-1.298h1.622c1.622,0,1.947,0.648,2.921,1.298
		l0.325,3.895l0.325,9.739v9.412c0,5.845,2.596,15.257-4.221,15.257c-1.298,0-7.466-3.245-12.01-3.57
		c-2.272,0-11.687-0.975-12.336-2.272h-1.947c0,0-3.246,0.65-4.22,0.975v-0.975l-6.492-0.65c-1.947-0.323-5.844,1.3-7.142,1.947
		c3.571,5.195,15.582,5.52,24.022,5.52l1.299,0.975l10.712,1.622c1.947,0.325,6.817-1.3,7.142-1.3h1.622
		c3.246,0,3.571,3.895,3.571,5.842v4.222v18.177c0,1.947,0,0-0.65,1.622l0.65,1.95l0.649,7.465l-0.649,13.635
		c0,2.922,1.622,3.57,1.947,5.192c0.325,2.597-0.65,3.895-0.325,7.142c0,2.272-0.649,8.765-0.649,13.635
		c0,8.44-1.299,4.87,2.597,11.362c2.271,4.22,5.517,5.842,7.141,8.44c2.921,0,3.895,1.947,8.44,1.947h0.974
		c11.037,0,12.011-7.142,20.776-7.142l0.649-6.492c0.65-0.973,0.974-0.973,0.974-1.947l0.326-0.975l-1.949-18.827
		c0-0.973,1.623-2.597,1.623-5.517c0-0.65-1.298-2.597-1.298-4.22c-0.325-1.947,0.65-1.622,0-4.545
		c-0.325-2.272-0.325-7.467-0.325-10.065c0-2.595,0-8.437,0-10.062c-0.325-3.572,0.649-5.842,0.649-10.062v-0.65
		c0-3.895-2.271-5.195-2.596-9.09l1.947-1.947l13.634,1.3l8.115,1.623l1.299,1.622c2.596-0.65,7.141,0.325,11.037,0.325
		c4.218,0,7.466,0.648,10.062,2.595l11.687,0.65c0.973,1.3,1.622,1.947,1.622,4.545v0.975l-0.65,5.842v3.57l-0.973,22.399v2.922
		c0,1.622,0.325,1.947,0.649,3.245l-2.272,3.897h-1.299c-1.947,0-24.022-4.22-24.347-4.547l-1.622,0.975l-20.126-1.298v1.298
		c0,1.3-0.65,1.3-1.299,2.272c1.947,0,6.492,2.597,9.413,2.922c3.895,0.648,6.169,0.648,10.388,0.648
		c4.219-0.323,17.853,1.625,19.801,2.922c0.65-0.325,1.3-0.975,1.624-0.975c1.947,0,0.325-0.323,1.624,0.65l1.298-1.298
		c2.921,1.623,4.87-0.65,5.519,4.87c0,0.648-0.974,6.817-1.299,8.44c0,2.595,0,4.87-0.974,8.115
		c-0.649,2.922-1.623,5.842-1.623,8.44v0.65c0,1.622,4.22,8.765,5.194,9.412c1.299,0.975,8.116,5.845,9.09,5.845h3.895
		c7.141,0,12.336-6.167,19.153-6.492l2.597-1.622c0.323-4.545,0.973-8.765,1.947-13.635c0.325-2.922-0.325-9.09-0.325-14.282
		l1.947-4.222c-3.57-5.517-1.297-13.957-1.297-21.749c0-5.192,1.622-20.125,0.323-22.074l2.597-4.545
		c4.219,0.975,5.846,1.947,9.741,2.922c4.218,0.975,6.49,0,9.412,1.947l9.412,0.325l0.973,0.65l13.635,2.597l0.977,0.65l8.762,0.973
		c0.65,0.975,1.95,1.947,1.95,3.57c0,3.897-2.6,12.012-3.25,16.557c-0.323,2.92-1.945,17.852-1.295,18.827
		c-0.65,1.298-2.272,4.545-4.222,4.545c-1.945,0-3.895-1.622-5.84-1.947c-2.277,0-3.9-0.65-6.817-0.65
		c-0.327-0.325-1.3-0.973-1.3-0.973c-1.3,0-1.3,0.323-2.272,0.973l-2.922-1.298l-1.945-0.65h-4.222
		c-2.272-1.298-6.817-1.298-10.062-1.622c-4.867-0.325-5.195,0.648-9.739,0.648c0.323,2.597,1.949,2.922,4.544,2.922v2.272
		l3.572-1.298l1.622,0.973l9.739,0.65l0.323,1.622c2.272-0.325,1.3-0.648,3.245-0.648c0.65,0,0.977,0.973,1.3,1.298l2.595,0.325
		v-1.622l2.6,0.973v-0.973c2.272,0.323,2.595,1.947,6.167,2.27c2.272,0.325,4.545-0.323,6.817-0.323c2.272,0,3.572,1.622,3.572,3.57
		c0,3.247-0.65,6.167-1.3,8.765c-0.977,2.922-1.3,5.195-1.95,8.115c-0.973,2.597-2.272,5.195-2.595,7.467
		c-0.65,2.595-3.572,6.492-3.572,7.14v3.247c0,1.298,1.3,0.973,1.3,3.895c8.117,1.947,8.762,9.09,22.074,9.09h4.868
		c5.517,0,10.712-7.142,14.284-9.737l5.195-19.154c0-3.57,1.622-12.335,2.918-13.632l0.977-4.22c0.323-1.3-0.977-2.597-0.977-4.545
		c0-3.247,0.977-3.572,0.977-6.817c1.622-2.597,2.595-9.09,2.595-13.31c0-1.625,1.95-9.09,1.95-9.09c0-4.545,0.65-8.765,4.545-8.765
		c1.295,0,2.272,0.975,3.245,1.622l21.102,3.572l1.622-1.625l3.895,0.65c0.65,0,1.945-0.973,3.245-0.973v-1.625
		c0-1.298,0.323-1.298,0.323-2.595c-2.268,0.648-11.035-0.975-14.607-1.3c-2.922-0.325-4.545-0.65-7.467-1.298
		c-0.323,0-6.49,0-7.14,0l-0.65,0.323l-1.945-0.323c-2.272,0.323,0,0-1.622,0.648c-0.977-1.947-2.6-2.92-2.6-5.192l0.65-0.975
		l2.922-18.179v-2.92v-6.167l0.973-1.625c0-4.543,1.622-4.867,1.622-7.465c0-6.167,3.25-12.01,2.922-19.477
		c0-3.895,0.65-4.87,0.65-10.062c0-5.52,1.95-6.817,1.95-10.065c0-7.79-0.977-4.87,1.622-11.687c1.622-4.543-3.25-6.167-4.545-9.087
		c-2.922-6.167-9.417-11.037-18.179-11.037h-4.222c-3.895,0-6.49,1.622-9.09,2.272c-4.54,1.298-4.218,1.947-6.49,5.192
		c0.323,3.897,2.595,7.467,2.595,11.039c0,1.298-2.272,3.245-2.595,3.245c-6.495,0-12.012-4.22-19.802-4.545l-11.362-2.597
		c-6.49,0-17.202-2.272-21.747-4.545c-1.95-1.298-8.767-0.65-11.69-1.622c-3.569-1.298-6.166-1.947-11.036-1.947
		c-1.297,0-1.297,0.325-2.595,0.65c0,0.323-0.325,1.298-0.325,1.298c0,2.922,4.867,3.895,7.79,4.545
		c5.195,0.973,5.195,0.65,9.739,2.272c2.272,0.973,18.179,3.895,19.479,3.895l6.167,0.325l2.918,2.272l0.977-0.65l28.892,4.87
		l0.323-0.975l2.595,4.222c-0.973,1.623-2.595,15.255-2.272,18.502c0.327,2.597-0.973,6.817-1.295,9.74
		c-1.3,6.492,1.295,5.517-3.895,8.44c-3.572-1.947-2.272-0.975-5.195-2.922c-1.622-0.973-5.195-0.973-7.14-1.622
		c-0.65-0.325-11.362-1.947-13.962-2.272l-0.323-0.975l-2.922-0.973c-4.222,2.272-11.685-4.87-15.58-1.947l-1.627-0.975
		l-4.545,0.325l-0.645,1.622l-1.95-0.65c1.3,5.195,17.202,8.765,20.452,7.142c1.945,3.247,5.195,2.272,8.112,2.272
		c0.327,0,9.74,2.597,12.662,2.922c8.762,1.622,2.595,2.272,12.012,0c1.945,2.92,2.922,3.57,1.945,8.115
		c-0.323,1.622-0.65,1.947-0.973,4.545c-0.323,2.597,0.323,2.922,0.323,4.545l-2.595,17.204c-1.3,0.325-2.595,1.622-3.245,1.622
		c0,0-18.829-4.87-21.424-5.52c-4.545-0.973-6.495-1.298-11.362-2.27c-1.3-0.325-10.062-2.272-10.389-2.272
		c-0.973,0-0.973,0.325-1.945,0.648l-3.895,0.325c-1.95,0-2.272-0.648-4.546-0.648c-4.22-5.845-1.622-6.17-1.622-10.712
		c0-6.494-0.65-23.049,3.246-25.647l2.273-4.22c-7.144-1.947-0.327-17.852-0.327-22.722v-2.597c0-2.922-4.869-7.467-6.816-9.09
		c-1.622-1.298-2.595-2.595-4.22-3.57c-2.272-1.3-3.57-0.975-5.842-2.597c-4.545,0-7.142-1.947-9.74-1.947h-4.869
		c-3.57,0-4.87,1.947-7.791,1.947c0,3.895-1.947,3.572-1.947,5.52c0,3.57,1.947,6.49,1.947,9.737c0,1.298-1.298,6.817-1.622,9.415
		c-0.649,3.895,0.325,7.465-3.246,8.44c-0.974-3.572-25.969-7.792-31.488-7.467l-1.623-1.298l-19.153-1.95v0.327l-2.597,2.272
		c2.274,3.245,12.336,4.543,16.231,4.543c0.974,0,0.974,0.325,1.947,0.975c0.975-0.325,12.986,2.272,15.907,2.922
		c2.272,0.323,15.906,3.245,16.556,3.245l5.194-0.65c4.545,6.817-0.65,12.337,0.65,18.829c0.974,6.167,1.298,1.298,0.324,9.087
		c-0.324,2.922,0.65,9.09-2.596,9.09c-2.274,0-3.896-1.298-5.844-2.272c-2.596-1.298-3.896-0.648-7.142-1.298
		c-2.271-0.65-3.571-1.298-6.492-1.622c-1.623-0.325-4.22-0.325-6.167-0.65c-9.414-1.622-17.528-2.597-27.917-2.597h-2.272
		c-1.622-6.167-1.299-0.973-1.299-9.415l-0.324-3.895l-0.975-17.852c-0.324-0.65-0.974-0.65-0.974-1.95v-2.92
		c0-2.597,3.896-3.895,4.546-4.22c-0.326-0.975-0.975-0.975-0.975-1.95v-0.648c0-2.922,1.623-3.57,1.623-4.87v-1.622
		c0-1.3-2.596-2.922-3.57-5.195c0-0.325-2.921-5.517-3.246-5.842c-2.597-3.247-7.791-4.545-11.037-6.492l-5.842-0.65h-8.766
		c-5.194,0-8.115,3.247-10.387,6.167c-1.947,2.275-3.246,10.064-3.246,13.959c-1.947,0-2.597-0.65-3.571-1.947
		c-1.947-1.3-1.947-0.65-4.22-1.947c-2.596-0.975-7.141-1.3-10.062-1.947c-4.545-1.3-16.881-1.625-19.802-3.572l-5.519,0.325
		c-0.974,0-1.299-0.325-1.947-0.648l-8.116-0.65c-0.974-0.975-1.299-1.625-2.596-1.625h-1.623v-1.62h-1.299v0.973h-2.272
		c-1.298,0-6.492-1.623-7.466-2.272l-6.492-0.65c-0.974,0-2.272,0.65-2.596,0.975l-0.975-0.325c-1.298,0-0.649,0-1.947,0.325
		l-1.622-1.625c-0.974,0.65-0.974,0.65-2.272,0.65c-2.272,0-7.142-0.65-9.09-1.947l-1.947,0.975l-0.649-1.947
		c-0.65,0.323-0.65,0.973-1.949,0.973c-0.974,0-0.974-0.65-1.947-0.973c-0.649,0.323-0.324,0.648-1.622,0.323l-5.844-0.648
		l-4.545,0.325l-1.299-2.275c-2.596,0.65-7.79,0.975-10.712-0.323c-3.57-1.625-7.791-2.272-11.037-0.325l-19.152-2.272v0.65h-1.622
		l-3.896-0.65c-1.299,0.65-1.947,1.623-3.57,1.623h-0.65c-5.518,0-4.545-3.57-6.492-7.79h0.649l-0.649-3.895l-0.325-6.17
		l-1.298-3.57l0.974-1.298h-0.325l-0.974-3.247h1.299l-6.492-18.179c4.22,0,1.623-2.27,7.79-0.648
		c3.571,0.973,4.87,0.648,7.791,2.272c0.65-0.325,0.65-0.65,1.624-0.65l9.09,0.65c1.622,2.27,12.01,2.27,13.308,1.947l0.974,0.975
		c2.272-1.3,13.958,1.622,17.53,2.27c2.597,0.65,6.492,0.325,9.09,0.975c0.974,0.325,8.44,2.272,8.44,2.272
		c2.597,0,2.272-0.325,6.492,0c3.246,0.325,3.895,1.623,7.466,1.623l0.325,0.973l3.571-1.298l1.298,1.625l10.712,1.622v0.648
		l6.169-0.323l1.947,1.947l1.624-1.3c4.22,2.275,11.361,3.247,16.554,3.247c1.299,0,1.299,0.325,1.947,0.975
		c2.922,0,6.492,0.323,8.116,0.323c1.947-0.323,4.22,0.975,6.817,0.975c0.974,0,5.194,0.973,7.141,1.298
		c3.246,0.975,4.22,0.65,6.492,0.975l31.813,5.517c2.596-1.623,12.984,0.975,16.231,1.625c2.921,0.323,4.22,0.973,7.466,1.298
		c2.597,0,6.169,0.325,7.79,0.65c1.624,0.648,29.542,5.517,30.515,4.868c2.597,1.95,16.231,4.22,21.424,4.22
		c0.325,1.3,8.115,2.597,10.063,2.597h6.167c1.624,0,2.271-0.65,2.921-1.947l-8.115-3.57l-12.336-1.625l-1.299-0.973
		c-8.44,0-30.838-7.142-35.059-6.167l-1.622-0.975l-5.519-0.648c-0.974-0.65-0.974-0.975-1.947-0.975l-1.623,0.325l-23.697-3.247
		c-0.649-0.325-1.298-0.973-1.622-0.973c-1.298,0-1.298,0-1.947,0l-12.986-1.947l0.325-0.65c-0.974-0.325-2.921,0.65-3.57,0.65
		l-4.221-1.622h-1.947c-0.974-0.65-0.974-0.975-1.947-0.975h-3.246c-1.299,0-0.974,0-1.948,0l-6.169-0.65l-1.298-0.65l-7.791-0.973
		l-1.299,0.973l-7.141-1.947v0.65l-1.623-0.975l-5.194-0.973c0,0-0.649,0.325-0.974,0.325h-2.597c-1.298-0.975-2.921-1.3-5.519-1.3
		l-4.544-0.323v-0.975l-1.947,0.648l-0.975-0.973l-12.335-1.623l-15.582-2.272l-1.624-1.298c-0.649,0.323-0.649,0.648-1.947,0.648
		h-0.649c0,0-8.44-2.272-10.063-2.595c-1.947-0.325-10.064-1.625-10.064-1.625c-1.622,0-3.245,1.3-4.22-0.975
		c-1.622,0.327-14.607-0.648-15.582-2.92c-0.973,0.325-1.298,0.325-2.596,0.325h-0.325c-5.519,0-19.152-1.622-21.424-2.922
		c-6.492,1.622-19.802-3.895-21.1-0.325l-4.869-1.947l-2.272-2.272v-3.245l-1.622-1.947c0-0.975,0.649-1.3,0.649-1.947
		l-2.597-18.179l-1.298-1.623c0-7.467-1.299-13.635-4.87-18.829c2.597,0,1.624-0.973,2.597-0.648l2.272-0.325l1.298,1.298
		l32.138,4.545l1.299,1.3c6.816-3.247,12.66,0,19.801,0.323c3.246,0,6.492,0.975,10.063,0.975c1.624,0,10.063,2.272,10.712,2.272
		h2.922c1.298,0,1.298-0.325,2.596-0.65v1.298l2.597-0.648l0.974,1.622h1.948c0.325,0,10.063,2.922,10.063,2.922l1.623-0.975
		c7.466,3.572,14.608,2.597,23.048,4.22c7.141,1.3,17.204,3.897,22.723,3.897c1.299,0,11.362,2.595,13.958,2.92
		c3.571,0.65,13.31,1.622,14.932,1.947c5.844,1.623,22.399,5.195,27.918,5.195l1.298,0.973l1.299-0.323l1.299,0.973l9.413,0.975
		l47.07,8.115c2.272,1.622,14.932,2.597,19.802,3.895c1.947,0.65,20.449,4.22,21.099,4.22c7.791,0,14.608,3.57,23.049,3.57
		l1.3,0.975v-0.65l27.914,5.845l4.545,1.298c3.245-1.298,20.452,4.545,25.969,4.545l1.622,0.648l10.712,2.922l8.767,1.947
		l0.323-0.323l1.3,0.973c6.49,0,50.639,10.387,53.884,12.66l2.922-0.323l1.622-3.572c-3.245-2.597-3.245-2.922-8.762-3.245
		c-3.895,0-5.844-1.947-9.089-2.272c-2.595,0-1.95-0.325-3.572-1.3c-2.272-0.973-2.272,0-4.545-0.323
		c-2.595-0.65-8.44-0.975-9.735-2.597v0.65l-12.012-3.572c-1.95,0.65-7.145-0.65-9.412-1.298c-0.977-0.327-8.444-2.922-8.767-2.922
		c-5.517,0-1.945,0.648-6.817-0.973c-2.272-0.65-5.845-0.65-6.49-2.275l-7.145-0.323c-3.568-2.272-14.607-2.272-16.229-4.547
		c-2.922,0.65-1.3-0.323-3.895-0.323h-4.222l0.327-0.65l-4.222-1.622v0.973c-5.517-0.973-6.817-2.272-13.307-2.272l-1.95-1.622
		c-0.65,0.325-0.65,0.325-1.622,0.325c-2.595,0-6.167-0.65-7.467-2.272c-2.272,0.975-6.491,0.65-7.139-0.973h-1.625
		c-1.298,0-1.298,0-1.947,0l-51.615-9.74l-5.842-0.648c-5.519-3.572-26.294-2.6-31.813-6.495c-5.194,0.975-17.205-3.57-24.346-3.57
		c-2.921,0-7.466-1.947-12.336-1.947c0,0-1.947-1.623-3.571-1.95l0.325,0.327l-11.361-0.975l-1.624-0.973
		c-5.194,0-4.545-0.975-7.791-1.947c-2.596-0.65-5.842-0.327-8.765-0.975c-2.596-0.65-5.842-1.3-8.44-1.947
		c-3.246-0.325-5.842,1.298-6.816-1.3c-2.274,0.325-21.749-2.272-23.373-4.22l-10.712-1.298l-8.44-0.975l-0.325,0.65l-1.299-1.622
		c-1.947,0.973-8.765-0.325-9.738-1.947h-1.298c-0.325,0-5.844-2.922-8.441-3.57c-3.246-0.652-8.115-0.325-12.011-0.652
		c-3.246-0.648-20.126-2.92-22.398-1.947c-0.649-0.648-0.649-0.973-1.947-0.973h-2.922c-4.544,0-5.194-0.325-10.062-1.298
		c-0.974-0.325-7.466-0.325-10.388-0.65c-7.466-1.298-10.387-1.623-20.776-1.623c-2.596-5.195-6.816-11.037-5.194-18.18l-1.299-0.65
		l0.325-5.517c0.325-2.597-2.597-2.272-3.246-4.22l-0.649-0.325l-2.272,4.545l1.622,11.037c1.623,2.272,2.597,3.57,2.597,7.79
		c0,3.57-1.299,4.545-4.869,4.545c-4.545,6.492-18.504,13.959-24.347,20.452c-2.272,2.92-22.074,18.827-25.645,18.827
		c-0.974,4.545-7.466,6.817-9.738,10.387c-2.596,3.895-7.141,6.492-9.414,11.037l-1.622-0.975v1.625h-2.272l-2.272-13.309
		c-1.947-3.245-0.974-1.947-0.974-5.192c0-0.975-0.325-0.975-0.65-1.95l-0.649-8.115l-1.622-1.623l0.974-1.3l-1.624-0.648
		c0.65-0.975-0.325-8.117-0.325-9.74c-0.649-5.517-0.325-5.842-4.22-8.44l-2.272,0.65l-1.299,8.115
		c0.65,0.65,0.975,0.65,0.975,1.947v1.947c1.622,0.65,1.622,1.625,1.622,3.572l0.325,1.298l0.649,1.298l0.65,7.142l0.324-0.325
		l2.597,9.415c-0.325,0.973-0.65,1.298-0.65,1.947l1.299,9.09c2.597,4.22,1.298,11.037,1.298,16.879v0.973
		c0,0.65,2.921,5.845,3.246,6.817c1.299,2.272,0.325,4.87,1.947,7.467l-0.974,1.298c0.325,0.65,0.974,1.625,0.974,2.597
		c0,0.975,0,0.65-0.649,1.947h1.299l-0.65,3.572l1.624-0.975c0,2.272,1.299,5.842,1.299,6.167c0,2.597-0.975,3.572,1.298,5.52
		l0.975,6.817l1.947,2.27c-1.947,4.22,0.324,5.845,0.649,9.09c0.325,2.922,0.974,5.845,0.974,10.065l1.299-0.325v1.298
		c0,1.622-0.974,2.272,1.299,3.572l-1.299,2.27l0.649-0.323l1.949,7.79l0.649,7.465l1.299,0.65v0.975h-0.974v1.298l1.622-0.648
		l2.922,14.607c4.543,2.922,2.271,7.14,4.219,10.062l-1.622,0.975l2.921,0.973c-0.324,1.3-0.974,6.17-0.649,7.467
		c1.623,5.842,2.597,2.272,3.246,5.192l-1.624,0.327l1.299,1.298v2.597c0.65,0.973,1.949,4.543,1.949,6.167
		c0,1.622-0.325,1.947-0.65,3.57l0.65-0.325l0.974,5.517l1.947,1.625c-0.974,2.597-0.649,9.737,1.622,10.712v1.947
		c0,1.947,1.624,7.79,2.272,9.415c0.974,2.922,1.299,5.842,1.299,10.062c1.947,0.65,1.299,1.3,0.974,3.572h0.974v1.298
		c0,1.947,0.325,0.325-0.325,1.622l1.3,0.975l0.974,4.22h-0.974l0.974,4.545l1.622-0.65c-0.325,3.895-0.649,5.517,1.623,8.44
		l2.922,0.65l0.974-1.625l-1.947-0.323l-0.325-2.922h0.974v-0.973c-1.947-0.65,0-1.95,0.325-4.222l-3.571,0.975
		c0.325-0.325,1.622-2.922,1.622-2.922c0-2.597-0.649-3.245-0.974-4.545l0.325-2.595l-1.622-1.947l-0.325-5.52l0.649-0.325
		l-0.649-1.298l-2.596-7.792v-4.543l-1.3-0.327l0.325-0.973l1.949-3.57l2.596,0.325c3.246-1.95,5.194-4.547,8.116-7.142
		c0.974-0.975,6.167-7.792,6.167-9.09c2.272,0,4.87-5.842,7.791-7.792c2.596-1.622,4.869-6.815,6.816-9.087
		c2.273-2.597,0.975-0.325,3.247-3.895c0.324-0.327,3.57-3.895,3.895-4.545c1.947-1.947,4.869-8.117,7.791-8.442l-0.65-0.323
		l2.272-2.272l0.325,0.648c0-3.245,6.817-9.737,8.765-12.01c1.947-2.922,4.545-10.712,9.09-11.037v-0.975l2.596,0.65l1.947,10.065
		h-0.649c0.325,0.325,1.622,2.595,1.622,2.595c0,4.545,0,3.572,0.65,8.117c0.324,1.947,2.921,4.22,1.947,6.817l0.974,0.323
		c0,3.247,1.947,8.442,1.947,9.09l-0.324,3.247l-3.896,6.167l0.65,2.597h-0.975v1.622l-1.947-0.65
		c-0.649,0.325-5.843,6.167-5.519,6.167v2.597h-0.649v-1.622c-2.272,0.65-1.298,0.325-0.974,2.597
		c-2.922-1.3-1.623,1.622-3.246,3.895c-0.974,1.623-3.246,1.947-3.571,4.545c-1.947,0.648-3.246,2.922-3.246,5.192
		c-2.596,0.325-6.817,6.495-8.115,8.765c-1.624,2.922-6.817,5.845-7.142,9.415c-2.596,0.325-5.193,3.895-5.193,6.817h-1.299
		l-4.545,7.14l0.325,0.325c-2.921,0.65-3.895,5.845-5.842,8.117c-1.624,1.947-4.545,5.842-3.896,8.765l-4.545,4.868l-7.141-0.973
		v-2.597c-0.65,0.65-0.974,0-0.974,1.622v2.597h0.974v1.947c0,1.947,0,0.325,0.649,1.622h-1.623l-0.325,2.275l0.974,0.323
		l-0.649,1.298l0.649,2.275l7.142-0.65c0.324-2.272,0.974-1.947,2.921-2.597c2.596-0.973,0.974-0.973,2.921-2.597
		c0.325,1.3,0.649,2.597,1.624,2.597c1.623,0,1.299-0.648,1.623-1.947h0.974v1.3l2.597-0.325c0.324,0.325,0.974,0.973,1.299,0.973
		c1.298,0,0.649-0.325,2.272-0.325l-1.299,1.625l4.545-0.65l0.324,1.622l2.272-1.622l6.492-0.65l0.649-1.622v1.622l0.65,0.325
		l11.686,0.648v-0.323v0.65l2.597,0.648l1.947-1.947l-0.974,2.597h2.921c1.947,0,1.947-1.298,2.272-3.245l0.325,1.298h1.947v-1.298
		c2.921,0.323,0.974,1.298,2.921,1.298h1.624l0.974,1.622l1.947-3.245l0.974,0.648l-1.299,1.625l1.624,1.298
		c1.622-0.65,2.597-0.975,2.921,1.298l7.466,0.65c1.299,0.325,0.974,0.325,2.272,0.973c0.325-0.323,0.325-0.648,1.299-0.323
		l8.765-0.325l1.947,1.298l5.519,0.325h1.622v0.65l4.221-0.65l1.299,1.298v-0.648l12.335,2.597l1.624-1.3l1.947,1.3h3.895
		c2.597-0.325,4.87,1.298,7.791,1.298c1.624,0,2.272-0.65,4.545-0.973l0.325,2.27l4.22-1.298l0.324,1.947l1.299-2.272l0.325,1.3
		c3.895-0.65,4.545,1.622,8.115,0.973l3.896-0.325c0.324,0.325,0.974,1.622,1.622,1.622c1.949,0,0.974-0.323,2.922-0.648
		l0.649,1.298l4.545-0.973l1.622,0.973l9.09,0.325v0.325c1.299-0.325,0.974-0.325,1.947-0.325c1.947,0,0.325-0.325,1.624,0.325
		l2.271-0.65l0.325,0.325l-0.974,1.622l2.272-1.622l4.87,0.973l0.324,1.625l1.624-0.975l8.115,0.975h4.87l12.335,1.622l1.299-0.973
		l12.011,2.272l1.299-0.975c1.624,1.947,3.571,0.975,4.545,0.975l6.167,0.323l8.441-0.323v0.973h2.271
		c1.299,0,1.299,0.325,2.597,0.65v-1.622c0.974,0.973,3.895,1.947,5.844,1.947c0.974,0,0.649-0.975,1.622-0.975
		c1.299,0,1.624,0.975,2.921,0.975c1.949,0,0.325,0.323,1.624-0.325c0.325,0.325,1.299,0.975,1.622,0.648l10.063,0.327l1.622,0.648
		l2.274,0.325c1.947,0,3.245-1.3,4.219,0.975h0.974l0.325-0.65l1.299,0.323h4.545l7.791,2.275l1.299-1.3v2.272l3.895-1.3
		l0.324,0.327l-1.298,1.622h3.571v-1.3l5.844,2.272l0.324-0.325l0.65,0.975l1.947-1.623l0.974,1.623l0.974-0.65l2.271-0.648
		l1.299,0.973l11.037,1.3l0.65,1.298c0.974-0.325,6.167,0.325,6.491,0.65c4.546,1.622,2.597,0.65,7.143,0.65h1.622
		c1.297,0,1.297,0.648,2.597,1.298c0.648-0.325,0.648-0.325,1.947-0.325c1.622,0,0.325,0.325,2.595,0.975v-1.3l1.95,1.3
		c3.245-2.275,4.545,0.323,7.464,0.323v-0.973c2.6,0.325,3.25,2.272,6.167,2.272c0.327,0,0.977-0.975,1.627-1.3l9.735,4.22
		l1.3-0.973l4.222,0.325l1.295,0.973l1.622-0.325l1.622,1.95c1.3-0.65,6.495,0.973,8.44,0.973c2.922,0,0.977-0.325,3.9,0.973
		c1.295,0.65,2.272,0,4.867,0c0.973,0.65,0.973,0.975,1.945,0.975h0.65c1.3,0,0.977,0,1.95-0.325l3.245,1.625l0.65-0.65l0.65,0.973
		c1.3-0.323,0.973-0.323,1.95-0.323c0,0,3.568,1.947,6.813,1.947c1.622,0.973,4.545,1.298,5.195-2.272l-1.622,1.622l-1.623-0.65
		l-0.327-0.325l2.922-0.973l-0.973-1.947l0.973-1.298l-3.895-0.325l-1.295-2.597v0.973l-5.522,0.65
		c-1.295,0.325-1.295-0.65-1.622-1.3l-7.14-0.323c-6.167-4.22-20.774-1.947-29.864-8.117l-1.622,0.65v-0.973h-5.845v-1.625
		c-0.65,0.325-1.3,0.975-1.622,0.975c-1.95,0-2.272-0.325-2.6-0.975l-7.464-0.973c-0.65,0.325-1.3,0.973-1.622,0.973
		c-1.3,0-1.3-0.325-1.625-1.622l-1.947,0.65c-1.947-1.3-2.597-1.95-1.947,0.973h-1.298l-1.3-2.272l-2.92-0.65
		c-0.65,0.327-0.65,0.327-1.622,0.327c0,0-3.572-1.3-4.547-1.3l0.975,0.973L532.517,456.033z M631.85,392.41l0.65,10.712
		c-3.249,4.543-2.922,11.685-3.249,17.202c-0.973,7.467-7.463,8.442-9.735,11.687c-2.922,0-2.922,0.975-4.545,0.975
		c-9.417,0-20.774-5.845-16.557-16.232c2.272-5.842,2.922-4.22,4.545-12.985c0.323-2.272,2.595-12.01,2.595-14.282v-10.065
		c7.467,0,7.467,1.625,12.012,3.572c7.467,2.922,5.845,0.975,12.662,0.975c1.945,0,5.195,0.648,5.195,2.595
		C635.422,386.566,632.173,392.085,631.85,392.41L631.85,392.41z M606.531,369.361c0-2.272,0.973-2.597,1.622-4.545
		c4.218,0,9.09,6.492,18.179,6.492c3.245,0,3.895-0.973,7.14-0.973c1.95,0,2.595,0.648,4.545,0.973v3.57
		C638.018,384.618,606.531,376.503,606.531,369.361L606.531,369.361z M421.498,368.388c0.649-1.3,1.623-2.597,3.571-2.597
		c2.597,0,6.167,3.57,12.984,1.622c4.545-1.3,6.492-5.195,12.011-1.622l0.649,26.294c-2.272,4.22-8.44,7.465-15.257,7.465h-0.974
		c-5.842,0-14.607-6.167-12.336-11.362l-0.649-1.298C423.77,382.021,421.823,372.931,421.498,368.388L421.498,368.388z
		 M541.932,382.021v0.975c0,2.597,0.323,20.774,0,21.749c-1.3,4.22-10.713,7.465-17.531,7.465c-5.194,0-11.686-4.545-11.036-9.737
		c0.649-5.842,2.921-12.012,2.921-18.502l-0.325-0.975l0.325-26.294v-1.622c0-1.3,1.298-1.947,2.596-1.947
		c1.623,0,4.545,3.57,11.037,3.57h2.597c2.272,0,7.467-1.3,9.09-2.272c2.272,2.272,2.272,7.79,1.298,12.659
		C542.254,370.984,541.932,377.476,541.932,382.021L541.932,382.021z M428.315,361.571c-3.896,0-7.791-1.622-7.466-5.845
		l0.324-6.167l-0.324-4.22c0-1.298,1.947-2.597,2.921-2.597c1.624,0,8.765,4.22,12.011,3.895c5.193-0.323,9.413-3.245,12.011-3.245
		c1.299,0,1.299,0.975,2.597,1.622c-3.571,6.817,4.22,9.09-5.519,13.635C440.651,360.921,434.483,361.571,428.315,361.571
		L428.315,361.571z M359.497,342.419l2.921,24.669c0.324,2.272-1.299,2.597-1.299,4.22v1.622c0,0.975,1.299,1.625,1.947,2.922
		l-0.974,5.195c1.299,1.622,2.921,1.622,2.921,4.545v2.92c0,4.545-1.299,6.492-4.869,7.792c-1.624,0.325-8.441,3.245-9.738,3.245
		h-1.624c-4.22,0-17.53-0.973-20.776-1.947c-5.518-1.947-9.088-13.309-1.947-13.309h0.325c1.622,0,1.622,0.975,2.272,1.625
		l5.519,0.648l1.947-0.325l4.22,0.325h1.947c6.492,0,10.388-2.272,14.608-2.272c2.921,0,2.597-2.597,3.57-4.545
		c-4.544-0.973-11.361,2.922-15.906,2.272c-4.869-0.648-13.31-0.325-16.556-0.325l-3.895,0.325c-0.65-2.272-1.624-1.298-1.624-3.245
		v-0.975c0-1.298,0.325-1.298,0.325-2.595c5.843,0,11.362,3.57,18.828,3.245c5.194-0.325,15.581-1.625,16.879-5.52
		c-0.649-0.323-0.649-0.648-1.622-0.648h-1.624c-4.868,0-13.633,0-17.204,0.975l-10.064-0.327c-1.622-0.323-1.947,0-2.921,0.327
		c-8.44-5.52-1.947-6.495-6.167-12.662h0.649l-2.596-24.347c-0.325-1.622,0.324-3.895,1.947-3.895h0.649
		c1.947,0,5.194,1.947,6.492,2.922l15.257,0.648c5.194,0,12.011-2.92,15.582-4.867l3.246,1.622v1.947
		C360.146,336.25,359.172,341.119,359.497,342.419L359.497,342.419z M446.168,339.497l-9.089,0.325l-3.895-0.325l-10.388,0.325v0.65
		c-0.325-0.975-1.947-3.897-1.947-4.222l0.324-4.543l-0.324-8.442v-1.298c0-2.272,0.974-2.597,2.596-3.247
		c2.922,1.947,7.466,3.895,11.037,3.572c5.195-0.325,11.362-4.22,12.336-4.22c1.299,0,2.921,0.973,2.921,2.595
		C449.74,325.862,449.74,336.899,446.168,339.497L446.168,339.497z M614.643,320.02c0-0.65,0.977-1.3,1.95-1.3h0.973
		c2.922,0,7.14,1.947,12.662,2.272c3.568,0.325,2.918,0.325,6.817,0c2.918,0,3.895-1.298,5.84-1.298c1.3,0,2.272,0.65,2.272,1.947
		v0.973c0,4.547-4.218,11.039-3.245,17.857l-1.3,11.035c0.65,3.247-0.65,5.842-1.295,9.09c-0.327,2.597-3.895,5.195-5.845,5.195
		h-8.767c-2.918,0-6.49-1.947-8.44-3.247c-2.918-1.947-6.813-0.973-6.813-5.517c0-4.87,3.568-12.66,4.218-17.205
		C614.321,332.355,614.643,327.485,614.643,320.02L614.643,320.02z M518.234,320.02c0.974-0.65,1.298-1.3,2.597-1.3h0.974
		c2.272,0,5.194,2.272,11.037,2.272l0.648,0.325l11.687-1.622v0.325l-0.65,5.192l-0.973,1.3l0.325,5.842l1.298,1.3
		c-1.622,6.817,0.65,12.982-4.22,16.23c-7.467,0-21.1,3.247-23.697-4.87C515.636,340.144,520.506,324.565,518.234,320.02
		L518.234,320.02z M546.476,310.605c0,4.545-8.767,6.167-13.634,5.52l-5.844-0.975l-2.272,0.325h-3.571
		c-1.623-2.597-3.571-4.22-3.571-9.09c2.273-0.648,1.299-0.973,2.597-0.973c3.571,0,6.817,2.92,11.686,2.92h5.195
		c0,0,6.492-1.622,7.14-1.947C545.826,307.36,546.476,308.008,546.476,310.605L546.476,310.605z M358.522,323.59
		c0,4.87-17.529,6.17-21.749,6.17h-0.649c-4.545,0-8.116-1.3-12.011-1.625c-6.492-0.325-6.492-1.298-7.141-7.142h0.649
		l-2.272-13.957c0.65-1.298,0.974-2.597,2.597-2.597c0.324,0,5.842,2.597,7.791,3.247c3.245,0.973,5.842,0.648,8.44,2.27l7.466,0.65
		c6.492,0.325,10.387-4.22,13.309-4.22h0.324c1.624,0,2.597,2.597,2.597,3.57c0,2.922-0.974,3.897-0.65,6.817
		C357.549,318.72,358.522,322.292,358.522,323.59L358.522,323.59z M313.726,289.181c-0.65-5.517,16.879-8.115,23.697-5.842
		c5.842,1.622,7.141,0.648,12.335,3.895c2.597,1.622,7.142,4.545,7.142,8.44c0,0.325-4.87,5.842-5.518,6.817
		c-1.299,1.298-6.817,1.947-9.739,1.947c-8.765,0-16.881-4.22-22.074-4.22l-5.519-5.192L313.726,289.181z M422.797,316.125
		c-1.947-4.222-2.921-3.895-1.624-10.064c0.325-2.597,0.325-8.44,0.325-11.685c0-7.467,0.974-17.854,0-23.049l0.325-1.298
		c2.921-0.325,0.974-0.973,3.246-0.973h0.325c2.272,0,4.22,2.27,8.115,2.92c5.193,0.65,5.843,0,10.063,0
		c1.947,0,4.545,1.947,4.545,3.57v1.947c0,1.625-0.974,4.22-0.974,8.117c0,3.57,0,4.545,0,8.115c0,1.622,0.324,7.465,0.649,7.79
		c0,0.65,1.622,6.817,1.622,7.467c0,3.57-6.492,4.545-9.414,5.842c-4.869,1.947-8.116,0.65-13.633,0.65
		C424.744,315.475,425.069,316.125,422.797,316.125L422.797,316.125z M546.476,290.803c0.323,5.195,0.323,8.44-1.95,11.687
		c-13.309,0-19.801,2.922-25.644-6.167c0.325-5.842,1.948-10.712,1.298-16.232c-0.324-4.545-1.947-11.035-1.947-15.257
		c2.597,0.325,1.623,0.975,2.597,0.975c0.974,0,0.974,0,1.299-0.325c5.842,3.895,7.466,8.115,16.23,8.115
		c0.975,0,0.65-1.298,2.272-1.298c2.922,0,7.142,0.65,7.142,4.867C547.774,281.391,546.476,284.961,546.476,290.803L546.476,290.803
		z M550.046,262.887c0,2.922-6.492,5.845-9.09,6.17c-2.597,0.323-7.79-3.247-11.037-4.222c-5.842-1.298-12.659-14.607,2.597-14.607
		c5.842,0,7.142,1.947,10.712,4.545C545.502,256.394,550.046,259.317,550.046,262.887L550.046,262.887z M423.445,263.862
		c-2.596-1.623-3.246-0.65-5.517-3.572c-1.299-1.622-1.949-4.867-0.65-6.815c1.947-2.922,8.44-4.222,12.985-3.895
		c7.791,0.323,8.765,0.648,13.958,4.218c5.519,3.572,5.519,3.897,5.519,11.037c-5.842,3.897-8.115,0.975-15.581,0.975l-1.624-0.975
		L423.445,263.862z M617.243,310.605c0-3.245,0.973-5.842,2.922-7.142c0-3.895,0.323-8.438,1.295-12.982
		c0.65-5.195,0.65-7.467,1.623-12.012c1.622-10.387,2.272-16.23,0-25.322l2.599-2.92l3.568,0.65
		c1.627,1.947,5.195,5.517,7.794,6.817c1.622,0.648,9.412,3.57,10.385,3.57h0.65c1.623,0,1.95-0.325,2.922-0.325l1.622,0.325
		l-2.272,25.969c-2.272,3.57-1.3,5.195-1.945,10.387c-0.327,1.947-0.327,3.57-0.977,5.195c-0.323,1.298-1.945,2.597-1.945,4.22
		c0,1.947,0.973,2.272,0.973,4.867v0.65c0,2.272-1.3,0-1.95,3.572c-5.517-3.895-7.463,0.648-13.63-0.325
		c-2.272-0.325-5.845-0.65-7.794-1.3c-3.568-0.648-4.545-2.27-5.84-2.597V310.605z M633.473,239.515
		c8.117,0,5.195-0.975,12.012,1.947c1.945,0.973,8.762,4.87,8.762,6.817v0.325c0,5.517-3.895,7.14-9.09,7.14
		s-15.257-8.44-15.257-12.335C629.901,241.787,632.173,240.488,633.473,239.515L633.473,239.515z M197.188,223.933
		c0.325-3.895,2.272-0.973,3.895-3.895c0.975-1.298,2.272-2.272,3.571-3.572c2.597-2.595,4.545-4.868,7.466-7.14
		c4.545-2.922,10.387-12.984,16.556-12.984h0.325c1.622,0,1.298,0.648,1.622,1.622h-1.622c0,0.973-0.325,1.3-0.325,1.947
		l0.649,8.117c0,1.947,0.65,5.517,1.949,7.79c-0.65,0.325-0.975,0.648-0.975,1.947c0,1.622,1.299,1.947,1.299,5.517l1.299,1.95
		h-1.299l1.299,5.517c0.649,0.65,2.922,4.545,2.922,5.842v4.545c0,1.298-15.582,14.284-18.18,16.557
		c-1.947,1.622-2.272,1.622-4.545,3.57c-1.622,1.622-2.921,2.597-4.869,3.895c-2.272,1.622-1.624,2.272-4.545,4.22
		c-1.622,0.975-3.246,2.597-3.896,4.545l-1.622-0.325c-0.325,2.597-1.624,2.597-3.571,3.57c-0.649,0.325-1.947,2.275-3.246,3.247
		c-2.272,2.597-3.57,5.195-7.466,6.167c0,2.922-0.325,1.947-1.947,3.245c-1.622,1.3-0.974,1.625-2.272,2.922
		c-1.947,1.947-3.895,2.922-5.519,4.87c-3.246,3.895-5.842,7.467-10.387,9.74v-12.012c-1.624-2.597-5.518-7.14-2.922-12.335h-1.623
		l0.325-2.922l-0.65-3.57c0.325-0.325-0.324-0.975-0.649-1.622v-2.597l-1.624-0.975c1.299-2.27-0.974-2.27-0.974-3.57
		c0-0.975,0-0.65,0.325-1.947l-1.624-0.65c0.65-6.492,5.844-9.737,10.063-12.66c1.947-1.622,3.896-3.895,5.519-5.842
		c1.947-1.947,5.844-2.597,5.844-5.195C180.958,241.462,192.644,224.908,197.188,223.933L197.188,223.933z M180.309,174.267
		c0.649-0.973,8.44-8.44,9.413-9.09c2.921-1.947,2.921-1.947,5.194-3.895c1.947-1.298,3.246-3.247,4.869-4.22
		c3.571-2.597,6.817-5.52,10.064-8.115c1.947-1.622,2.272-3.247,4.545-4.545c1.298-0.65,4.868-2.597,5.193-3.572
		c3.246,0.65,2.597,5.845,2.597,8.442v0.648c0,7.142-0.65,4.545,1.299,11.687h-0.975c0.325,3.245,1.624,4.22,1.949,8.44
		c0,2.597,1.622,5.842,1.622,7.79l-0.324,0.975c1.298,2.272,0.324,0.973,1.298,3.57c0.325,0.975,1.624,2.922,1.624,2.922
		c0,4.22-5.519,7.142-8.116,9.737c-0.974,0.975-9.088,7.142-10.062,7.467c-0.325,2.272-5.195,4.545-7.142,6.817
		c-0.974,0.973-2.272,2.92-3.246,3.895c-1.299,1.298-1.622,0.65-3.571,2.922c0,0.323-6.491,6.492-6.816,6.817
		c-3.571,2.595-4.22,3.245-7.142,5.842c-4.869,4.22-10.712,8.115-14.607,12.985c-1.624,2.272-1.947,0.325-3.896,3.245
		c-0.974,0.975-1.947,2.272-2.921,3.572c-1.299,1.622-5.194,5.517-7.466,5.517h-0.649c-2.272,0-1.949-5.192-1.949-7.465h-0.974
		l0.974-3.247l-1.947-5.842c0-6.492-4.869-12.012-2.596-14.932l-1.299-6.492c-1.947-2.922-1.299-2.597-2.597-6.817
		c-1.299-4.22,0.325-3.245,0.65-6.817c4.544-0.973,6.167-5.195,9.739-4.545c-0.65-1.622,6.816-8.115,9.088-8.765
		c0.325-4.22,13.958-10.387,16.231-14.932H180.309z"/>
	<path fill-rule="evenodd" clip-rule="evenodd" fill="#FDFEFF" d="M532.842,320.993c-5.844,0-8.765-2.272-11.037-2.272h-0.974
		c-1.3,0-1.624,0.65-2.597,1.3c2.272,4.545-2.597,20.124-0.974,24.994c2.597,8.117,16.229,4.87,23.697,4.87
		c4.87-3.247,2.597-9.412,4.22-16.23l-1.298-1.3l-0.325-5.842l0.973-1.3l0.65-5.192v-0.325l-11.687,1.622L532.842,320.993z"/>
	<path fill-rule="evenodd" clip-rule="evenodd" fill="#FDFEFF" d="M446.168,339.497c3.571-2.597,3.571-13.634,3.571-18.829
		c0-1.622-1.622-2.595-2.921-2.595c-0.974,0-7.141,3.895-12.336,4.22c-3.571,0.323-8.115-1.625-11.037-3.572
		c-1.622,0.65-2.596,0.975-2.596,3.247v1.298l0.324,8.442l-0.324,4.543c0,0.325,1.622,3.247,1.947,4.222v-0.65l10.388-0.325
		l3.895,0.325L446.168,339.497z"/>
	<path fill-rule="evenodd" clip-rule="evenodd" d="M389.686,357.349l1.622,0.325c0.325,3.897,7.791,3.572,11.361,3.572
		c0.325,0.325,1.299,0.973,1.299,0.973c1.949,0,5.843-2.27,6.167-2.92l-1.947,0.325l0.65-1.95c-0.65,0-6.817-1.947-8.116-2.272
		c-2.272-0.973-4.544-0.648-7.79-1.298l0.324,0.325L389.686,357.349z"/>
	<path fill-rule="evenodd" clip-rule="evenodd" fill="#FDFEFF" d="M428.315,361.571c6.167,0,12.336-0.65,16.556-2.922
		c9.739-4.545,1.947-6.817,5.519-13.635c-1.299-0.648-1.299-1.622-2.597-1.622c-2.597,0-6.817,2.922-12.011,3.245
		c-3.246,0.325-10.387-3.895-12.011-3.895c-0.974,0-2.921,1.3-2.921,2.597l0.324,4.22l-0.324,6.167
		C420.524,359.949,424.419,361.571,428.315,361.571L428.315,361.571z"/>
	<path fill-rule="evenodd" clip-rule="evenodd" fill="#FDFEFF" d="M637.045,320.993c-3.899,0.325-3.25,0.325-6.817,0
		c-5.522-0.325-9.74-2.272-12.662-2.272h-0.973c-0.973,0-1.95,0.65-1.95,1.3c0,7.465-0.323,12.335-0.973,19.802
		c-0.65,4.545-4.218,12.335-4.218,17.205c0,4.545,3.895,3.57,6.813,5.517c1.95,1.3,5.522,3.247,8.44,3.247h8.767
		c1.95,0,5.517-2.597,5.845-5.195c0.645-3.247,1.945-5.842,1.295-9.09l1.3-11.035c-0.973-6.817,3.245-13.309,3.245-17.857v-0.973
		c0-1.298-0.973-1.947-2.272-1.947C640.94,319.695,639.963,320.993,637.045,320.993L637.045,320.993z"/>
	<path fill-rule="evenodd" clip-rule="evenodd" fill="#FDFEFF" d="M638.018,371.309c-1.95-0.325-2.595-0.973-4.545-0.973
		c-3.245,0-3.895,0.973-7.14,0.973c-9.09,0-13.962-6.492-18.179-6.492c-0.65,1.947-1.622,2.272-1.622,4.545
		c0,7.142,31.487,15.257,31.487,5.517V371.309z"/>
	<path fill-rule="evenodd" clip-rule="evenodd" fill="#FDFEFF" d="M359.497,342.419c-0.325-1.3,0.649-6.169,0.649-7.792v-1.947
		l-3.246-1.622c-3.571,1.947-10.388,4.867-15.582,4.867l-15.257-0.648c-1.299-0.975-4.545-2.922-6.492-2.922h-0.649
		c-1.624,0-2.272,2.272-1.947,3.895l2.596,24.347h-0.649c4.22,6.167-2.272,7.142,6.167,12.662c0.974-0.327,1.298-0.65,2.921-0.327
		l10.064,0.327c3.571-0.975,12.336-0.975,17.204-0.975h1.624c0.974,0,0.974,0.325,1.622,0.648
		c-1.299,3.895-11.686,5.195-16.879,5.52c-7.466,0.325-12.985-3.245-18.828-3.245c0,1.298-0.325,1.298-0.325,2.595v0.975
		c0,1.947,0.974,0.973,1.624,3.245l3.895-0.325c3.246,0,11.687-0.323,16.556,0.325c4.545,0.65,11.362-3.245,15.906-2.272
		c-0.973,1.947-0.649,4.545-3.57,4.545c-4.22,0-8.116,2.272-14.608,2.272h-1.947l-4.22-0.325l-1.947,0.325l-5.519-0.648
		c-0.65-0.65-0.65-1.625-2.272-1.625h-0.325c-7.141,0-3.571,11.362,1.947,13.309c3.246,0.975,16.556,1.947,20.776,1.947h1.624
		c1.298,0,8.115-2.92,9.738-3.245c3.57-1.3,4.869-3.247,4.869-7.792v-2.92c0-2.922-1.622-2.922-2.921-4.545l0.974-5.195
		c-0.649-1.298-1.947-1.947-1.947-2.922v-1.622c0-1.622,1.622-1.947,1.299-4.22L359.497,342.419z"/>
	<path fill-rule="evenodd" clip-rule="evenodd" fill="#FDFEFF" d="M421.498,368.388c0.325,4.543,2.272,13.632,0,18.502l0.649,1.298
		c-2.271,5.195,6.494,11.362,12.336,11.362h0.974c6.817,0,12.984-3.245,15.257-7.465l-0.649-26.294
		c-5.519-3.572-7.466,0.323-12.011,1.622c-6.817,1.947-10.387-1.622-12.984-1.622C423.12,365.791,422.147,367.089,421.498,368.388
		L421.498,368.388z"/>
	<path fill-rule="evenodd" clip-rule="evenodd" fill="#FDFEFF" d="M541.932,382.021c0-4.545,0.323-11.037,0.973-14.932
		c0.975-4.87,0.975-10.387-1.298-12.659c-1.622,0.973-6.817,2.272-9.09,2.272h-2.597c-6.492,0-9.414-3.57-11.037-3.57
		c-1.299,0-2.596,0.648-2.596,1.947v1.622l-0.325,26.294l0.325,0.975c0,6.49-2.272,12.66-2.921,18.502
		c-0.65,5.192,5.842,9.737,11.036,9.737c6.817,0,16.231-3.245,17.531-7.465c0.323-0.975,0-19.152,0-21.749V382.021z"/>
	<path fill-rule="evenodd" clip-rule="evenodd" fill="#FDFEFF" d="M631.85,392.41c0.323-0.325,3.572-5.845,3.572-5.845
		c0-1.947-3.25-2.595-5.195-2.595c-6.817,0-5.195,1.947-12.662-0.975c-4.545-1.947-4.545-3.572-12.012-3.572v10.065
		c0,2.272-2.272,12.01-2.595,14.282c-1.622,8.765-2.272,7.142-4.545,12.985c-4.218,10.387,7.14,16.232,16.557,16.232
		c1.623,0,1.623-0.975,4.545-0.975c2.272-3.245,8.762-4.22,9.735-11.687c0.327-5.517,0-12.66,3.249-17.202L631.85,392.41z"/>
	<path fill-rule="evenodd" clip-rule="evenodd" d="M646.457,426.169c1.622-4.87,4.218-10.387,4.545-14.282
		c0.65-5.195,5.195-10.715,5.195-14.285v-0.973c0-1.3-3.895-3.572-4.222-3.572c-1.945,0-5.517,0.65-5.517,2.597
		c0,1.298,1.3,1.298,1.95,2.597c0.973,1.298,0.645,1.947,1.295,3.57c-1.945,1.3-7.14,17.205-7.14,20.777l-1.622,1.298v2.597
		l-2.922,7.465l-1.622,4.22c0,4.22-4.872,13.309-5.517,18.827c-0.65,4.222-3.249,15.584-7.144,16.557v4.22l5.195,2.597
		c1.623-1.622,3.572-1.622,3.572-4.87v-4.87l5.195-15.255c1.622-2.922,3.245-10.714,4.54-14.934c0.977-3.57,0.65-5.192,1.622-7.465
		C644.835,430.714,645.807,428.442,646.457,426.169L646.457,426.169z"/>
</g>
</svg>
