<?xml version="1.0" encoding="utf-8"?>
<!-- Generator: Adobe Illustrator 17.0.0, SVG Export Plug-In . SVG Version: 6.00 Build 0)  -->
<!DOCTYPE svg PUBLIC "-//W3C//DTD SVG 1.1//EN" "http://www.w3.org/Graphics/SVG/1.1/DTD/svg11.dtd">
<svg version="1.1" id="Layer_1" xmlns="http://www.w3.org/2000/svg" xmlns:xlink="http://www.w3.org/1999/xlink" x="0px" y="0px"
	 width="800px" height="600px" viewBox="0 0 800 600" enable-background="new 0 0 800 600" xml:space="preserve">
<g>
	<path fill-rule="evenodd" clip-rule="evenodd" fill="#050202" d="M787.73,340.331c-1.014,0-2.017,0.201-2.629-0.404
		c-2.01-1.617-4.437-3.23-4.639-5.852c-0.402-1.818-2.021-3.431-1.007-5.048c3.227-5.244,6.863-10.494,8.678-16.545
		c0.398-1.011,0-2.019-1.014-2.627c-4.23-2.622-8.677-5.449-13.516-7.062c-1.818,2.423-3.23,5.249-4.849,7.871
		c-0.605-2.222-0.605-4.641-1.811-6.662c-1.615-2.823-4.038-5.045-6.258-7.466c-4.034,0.404-7.468,3.026-10.09,5.853
		c-1.818-1.009-3.636-2.423-5.447-3.227c-3.031-0.204-5.852,1.412-8.681,2.218c-2.014-2.218-4.241-4.44-5.852-7.062
		c-0.605-1.213-1.21-2.626-2.825-2.827c-3.636-0.605-7.265-1.008-10.897-0.404c-1.619-3.431-3.636-6.863-7.07-8.88
		c-2.622-2.222-6.251-1.614-9.278-1.009c-1.21,0.404-2.622,0.205-3.43,1.214c-2.829,2.821-5.853,5.449-8.076,8.88
		c-2.423-1.818-5.244-3.431-7.265-5.653c-2.622-3.835-2.829-8.477-3.831-12.715c-1.619-3.431-5.451-4.64-8.275-6.457
		c-6.863-4.034-14.327-6.457-21.393-10.088c-3.227-1.619-6.863-2.827-10.09-4.645c-5.049-2.421-10.293-4.035-14.733-7.066
		c-3.23-2.218-6.66-3.832-10.093-5.244c-0.605-2.019-0.199-4.241-1.612-5.854c-2.22-2.622-5.649-4.034-8.474-5.852
		c-6.863-4.035-14.331-6.657-21.599-10.092c-9.887-4.84-19.778-9.485-29.665-14.329c-4.643-1.812-8.88-4.236-13.722-4.84
		c-0.409-6.461,4.639-10.901,6.66-16.35c1.811-4.036,2.419-8.679,4.237-12.71c1.01,1.003,2.017,2.017,3.227,3.022
		c1.21,1.008,2.622,1.617,3.636,2.826c4.436,5.853,10.897,10.092,17.554,13.119c2.828,1.412,6.055,1.816,8.88,2.825
		c2.626,0.806,5.049,2.218,7.671,1.614c3.031-0.603,6.258-0.808,8.475-2.622c5.048-3.43,6.863-9.887,6.457-15.741
		c-0.199-5.248-0.804-10.497-3.625-14.937c-2.633-3.835-4.042-9.079-8.685-11.301c-9.083-4.84-17.554-10.693-27.242-14.128
		c3.835-9.889,3.024-20.582,3.024-30.874c-0.402-9.083-0.402-18.163-2.216-27.043c-1.014-4.444-1.822-8.884-3.437-13.119
		c-1.206-3.23-1.811-6.662-4.234-9.284c-3.832-4.844-8.475-8.88-13.928-11.707c-5.244-2.827-11.296-4.438-16.949-6.861
		c-5.045-2.22-10.293-4.44-15.537-6.255c-7.066-3.029-14.737-4.44-22.001-7.066c-6.461-2.624-13.519-1.412-20.382-1.21
		c-6.664,0.806-13.32,1.009-19.98,2.624c-6.055,2.017-10.496,7.267-15.942,10.695c-4.241,3.634-9.691,6.258-12.313,11.305
		c-6.255,7.665-13.925,14.932-17.358,24.415c-2.017,5.045-3.021,10.497-5.65,15.138c-0.601,1.412-2.017,2.826-2.017,4.44
		c0,6.256-3.835,11.705-3.835,17.963c0,5.043,4.646,8.878,3.636,13.923c-1.21,4.239-2.825,8.075-4.444,12.111
		c-5.65-2.622-11.296-4.645-16.949-7.062c-6.863-3.031-14.124-5.653-21.19-8.074c-5.05-2.423-10.09-5.249-14.934-7.872
		c-5.253-2.622-10.702-4.44-15.946-6.861c-4.035-1.818-8.071-3.632-12.31-5.045c-7.267-1.412-14.934-2.626-22.204-0.199
		c-2.017,0.603-4.034-0.61-6.053-1.213c-2.622-1.011-5.447-1.213-8.071-2.222c-14.327-5.246-29.464-7.468-44.196-10.897
		c-8.478-2.218-17.156-4.236-25.63-6.457c-10.496-1.818-20.585-5.045-30.881-7.067c-9.686-2.014-18.968-4.44-28.453-6.857
		c-13.927-3.835-28.457-4.44-42.181-8.478c-3.026-1.01-6.255-1.01-8.878-2.823c1.614-1.818,5.853-3.23,4.641-6.457
		c-0.402-1.416-2.017-2.222-3.229-2.626c-2.423,0-4.844,0.404-7.064,1.615c-3.835,2.419-7.468,5.246-11.301,8.072
		c-7.871,6.054-14.732,13.319-22.604,19.173c-7.265,6.256-16.145,10.492-21.594,18.364c-4.844,6.662-9.284,14.732-6.66,23.006
		c1.816,4.44,4.237,8.88,8.275,11.707c2.419,2.017,5.447,3.431,8.678,2.827c4.237,0.199,8.677-0.81,12.31-3.435
		c4.44-3.022,8.88-6.053,12.918-9.485c3.833-3.631,7.263-7.466,11.5-10.293c4.442-1.813,9.487-1.005,13.928-0.804
		c10.291,1.412,20.381,2.622,30.271,4.844c7.265,1.613,14.53,3.027,21.596,5.449c9.483,2.622,18.968,4.236,28.453,6.658
		c6.863,1.412,13.32,4.038,20.182,5.652c7.267,1.613,14.128,4.241,21.394,5.65c-1.211,1.617-1.615,3.835-3.433,4.844
		c-3.428,1.818-6.66,4.239-10.088,6.258c-3.23,1.208-6.66,1.816-9.487,3.631c-7.064,4.04-15.137,5.248-21.998,9.489
		c-1.816,1.813-2.622,4.639-4.643,6.253c-1.815,1.213-4.44,1.213-5.853,2.827c-1.613,1.818-3.229,3.43-4.44,5.449
		c-1.009,7.671,0.607,15.54,0.607,23.412c0,17.559,0.404,35.113,1.816,52.673c-0.605,9.687,0.808,19.173,0.808,28.86
		c1.009,13.319,0.605,26.838,0.605,40.363c-1.21,16.954-0.806,34.108-1.412,51.264c-1.412,19.372-0.807,39.15,4.844,57.718
		c3.43,11.1,10.09,20.784,13.119,32.086c1.411,4.241,1.411,9.489,5.851,11.912c2.017,1.818,5.248,2.017,6.662,4.44
		c1.814,3.026,3.833,6.256,7.466,7.262c3.229,0.809,6.255,2.423,9.282,4.036c2.626,1.412,5.855,3.23,8.879,2.021
		c4.038-1.617,7.873-3.634,11.707-5.648c7.064-3.841,14.935-6.057,22.201-9.693c4.842-2.417,10.293-3.831,15.135-6.053
		c2.627-1.208,4.44-3.43,6.461-5.043c2.216,10.897,3.026,21.998,4.844,32.895c2.014,10.293,3.23,20.585,6.457,30.679
		c2.421,7.667,4.034,15.738,7.261,23.204c-0.196-1.412-0.4-2.622-0.605-4.036c0.409,2.019,0.605,3.232,0.605,3.232
		s25.431,15.535,81.539,29.67c56.102,14.124,89.001-33.306,131.58-20.386c34.514,10.492,54.697,4.034,61.35,1.213
		c0.612,0.6,1.42,0.804,2.227,0.4c1.409-0.4,1.21-2.218,0.801-3.232c-1.412-5.244-3.028-10.488-3.626-15.941
		c2.622,2.827,5.038,5.653,7.667,8.275c3.231,3.631,7.664,5.648,11.299,8.878c3.433,2.622,5.852,6.258,9.688,8.475
		c3.433,0.608,6.66-1.003,9.688-2.416c4.436-2.626,8.88-5.253,13.117-8.076c7.062-5.045,14.527-9.284,20.991-14.937
		c3.632-3.43,8.069-6.052,12.111-8.878c8.268-5.045,13.719-13.32,20.379-19.977c3.836-3.835,7.062-8.275,10.293-12.516
		c5.65-7.466,9.485-16.344,13.726-24.821c1.612-3.431,2.825-7.065,5.248-9.889c4.64-5.652,8.275-12.109,11.705-18.568
		c3.832-7.873,10.09-14.128,13.52-22.199c2.622-5.449,5.048-10.901,8.681-15.54c2.216-2.827,4.038-5.854,4.636-9.284
		c1.011-4.036,4.038-6.863,6.461-9.889c5.852-6.861,8.88-15.741,12.11-24.017c1.612-4.236,3.23-8.275,3.835-12.715
		c2.622,0.605,5.049,1.614,7.464,2.827c1.416-1.009,2.622-2.222,3.832-3.43c1.416,0.199,2.633,0.404,4.042,0.603
		c4.034,0.204,7.265,4.241,11.506,2.624c1.608,0,2.622-1.411,3.43-2.823C788.94,346.79,787.926,343.557,787.73,340.331
		L787.73,340.331z M306.805,154.253c2.218,0.404,4.232,1.412,6.454,2.222c0,1.614,0,3.23,0,4.844
		c-3.227-1.412-6.454-2.622-9.281-4.44C303.774,155.466,305.588,154.657,306.805,154.253L306.805,154.253z M336.066,167.173
		c-1.412,0.804-3.031,2.222-4.844,1.612c-3.636-1.208-6.861-2.825-10.497-4.239c-0.199-1.614-0.605-3.227-0.804-4.639
		C324.964,162.932,330.413,165.355,336.066,167.173L336.066,167.173z M666.236,369.392c-0.203-4.039-0.605-8.074-0.811-11.909
		c-0.399-2.823,1.213-5.449,2.423-7.871c0.405,4.645,1.412,9.085,3.027,13.523c1.412,5.854,2.626,12.312,0.808,18.365
		c-1.818,4.643-2.017,10.293-5.045,14.532C666.236,387.151,666.841,378.272,666.236,369.392L666.236,369.392z M194.592,116.518
		c-10.897-3.835-22.401-5.653-33.5-8.681c-6.459-1.412-12.514-4.236-19.173-5.447c-10.495-2.224-20.991-4.645-31.08-8.072
		c-1.211,0.805-2.22,1.814-3.431,2.419c-1.211,0.205-1.614-1.409-2.22-2.017c-2.22-3.027-6.255-3.831-9.686-5.246
		c1.412-2.021,2.827-4.035,3.834-6.461c0.203-2.014,0.404-4.236,0.404-6.253c-1.211-0.809-2.624-1.613-4.036-1.414
		c-3.227,0.406-6.256,2.423-8.274,4.844c-4.844,5.65-10.899,10.09-15.944,15.338c-6.457,5.852-12.715,12.31-20.788,15.537
		c-3.026,1.619-6.255,1.418-9.483,1.619c-1.615-2.627-3.433-5.449-3.027-8.681c0.404-2.421,0.605-5.043,2.22-7.06
		c3.43-3.836,7.668-6.863,12.109-9.69c5.046-3.835,10.291-7.665,15.338-11.705c5.449-4.236,11.705-8.071,18.568-9.28
		c3.229-0.81,6.457,0.4,9.688,0.804c15.539,2.218,31.079,4.241,45.811,9.889c13.724,5.249,28.455,7.267,42.784,10.698
		c17.758,3.835,35.521,8.274,53.279,12.714c8.679,1.613,17.559,3.23,26.439,5.045c3.229,0.81,6.253,2.421,9.079,4.035
		c-1.414,2.627-3.022,5.048-3.022,8.076c0,5.648-2.829,10.897-6.662,14.932c-6.26-1.412-12.715-2.827-18.771-4.639
		c-2.018-0.608-4.037-0.404-6.056,0.199c-1.814-1.812-3.43-4.239-5.852-5.248c-3.631-0.605-7.466,0.404-11.1,0.608
		C212.957,121.157,203.472,119.544,194.592,116.518L194.592,116.518z M251.909,268.686c-1.414,6.053-2.626,12.306-4.44,18.564
		c-0.808,2.222-1.615,4.844-0.808,7.47c1.816,5.449,3.633,11.301,3.633,17.15c-0.605,4.241-3.431,7.67-5.853,11.102
		c-3.027,4.239-5.852,8.679-8.478,13.32c-2.015,3.634-4.842,6.861-8.071,9.487c-3.229-7.47-6.66-15.137-8.478-23.211
		c-2.017-6.863-4.44-13.923-5.046-21.19c-0.804-9.284-1.813-18.363-1.813-27.647c0.402-5.653,1.614-11.102,2.419-16.55
		c0.406-4.44,3.833-7.87,4.643-12.31c0.607-2.019,1.213-4.645,3.632-5.855c2.825-1.412,5.855-2.825,8.274-5.244
		c2.827-2.426,4.239-6.057,5.451-9.489c1.615-5.244,3.633-10.697,5.246-16.145c2.626-4.034,4.643-8.679,6.258-13.318
		c1.614-3.431,2.018-7.667,4.64-10.494c4.844-5.248,10.7-9.284,16.953-12.715c3.23-2.017,7.066-3.231,9.892-5.853
		c1.614-1.008,1.414-3.23,1.815-4.844c0.808,0,2.017-0.201,2.827-0.201c1.412,4.845,2.222,9.889,2.825,14.934
		c0.4,4.034,2.622,7.466,3.431,11.506c1.614,7.062,3.431,14.124,6.863,20.582c-2.627,0.808-5.449,1.213-7.267,3.435
		c-4.645,4.639-9.688,9.079-13.925,14.124c-4.844,4.844-8.681,10.697-12.514,16.35c-3.43,4.639-4.237,10.693-6.861,15.941
		C255.541,261.217,252.918,264.647,251.909,268.686L251.909,268.686z M322.137,203.094c-2.421-0.404-3.83-2.622-5.244-4.438
		c-2.622-3.636-5.449-7.062-8.478-10.293c-1.815-2.019-2.622-4.641-3.431-7.062c-1.414-4.241-2.418-8.681-3.227-13.324
		c4.239,2.421,8.071,5.048,12.514,6.662c5.65,2.017,11.098,4.643,16.951,5.653c3.227-0.205,6.659,0.4,9.688-0.81
		c-1.012,2.622-2.426,5.248-2.827,8.275c1.414,0.199,3.028,0.605,4.44,0.199c1.414-0.804,2.423-2.421,3.835-3.026
		c2.218-0.404,4.241,0.199,6.457,0.605c-4.44,5.853-7.87,12.515-9.889,19.776c-2.222-0.4-4.444-0.804-6.66-1.208
		C331.622,202.895,326.782,203.499,322.137,203.094L322.137,203.094z M636.564,408.545c-1.608-4.239-4.838-7.671-6.453-11.909
		c-0.203-3.227,1.814-6.258,1.814-9.485c0.605-6.662-3.028-12.918-3.227-19.577c0.605-3.026,2.22-5.652,3.227-8.475
		c2.622-6.861,6.461-13.119,9.89-19.576c1.612-2.827,1.007-6.258,0.808-9.489c-1.213-9.483-3.632-19.173-6.866-28.252
		c-1.21-4.034-3.626-7.87-3.024-12.31c4.846,2.017,9.485,4.844,14.331,7.062c-1.619,2.017-3.433,4.038-3.227,6.662
		c-1.014,4.034,4.035,4.844,5.045,8.071c1.206,6.057,1.007,12.31,2.216,18.568c0.406,2.017,1.412,3.631,2.622,5.449
		c-2.216,0.808-5.045,1.212-6.255,3.231c-0.601,4.034,1.011,8.275,3.028,11.705c0.199,3.227-0.405,6.457-0.605,9.684
		c-0.605,5.855,0.804,11.506,0.402,17.36c0.605,10.287,0.605,20.784,1.412,30.878c0.405,3.631,0.808,7.261,0.605,11.097
		c-2.22,3.835-4.842,7.267-7.261,10.897c-1.21-1.412-2.423-2.622-3.433-4.034c-2.017-2.019,0.811-4.844-0.203-7.263
		C640.001,415.403,637.778,412.172,636.564,408.545z"/>
	<path fill-rule="evenodd" clip-rule="evenodd" fill="#FFFFFF" d="M483.393,26.709c0.605-0.607,1.612-0.809,2.622-0.809
		c4.034,0.809,7.874,2.423,11.705,3.431c12.712,3.229,24.42,8.882,36.528,13.927c4.44,1.815,7.265,5.854,8.88,10.09
		c-9.485-5.045-19.173-9.889-28.857-14.532c-4.643-2.22-9.688-3.43-14.534-5.449c-3.835-1.615-8.076-2.624-12.31-2.017
		c0,0.402,0,1.009,0,1.414c7.671,1.208,13.929,5.449,20.585,9.079c4.241,2.624,8.072,5.854,12.107,8.882
		c4.237,2.825,5.653,7.87,8.08,12.105c1.811,3.23,3.021,7.066,1.811,10.696c-2.017,8.681-7.265,17.76-16.344,20.386
		c-6.461,2.823-13.722,0.404-20.39-0.404c-4.838-1.009-9.883-1.009-14.53-3.028c-2.821-1.211-5.646-2.017-8.268-3.835
		c-1.818-3.23-3.031-6.66-4.846-9.887c-0.608,0-1.014,0.199-1.412,0.199c-0.409,3.23-0.608,6.457-1.014,9.688
		c-1.003-1.612-2.419-3.23-2.216-5.248c-0.605-8.071,1.213-16.145,3.024-24.017c1.619-7.667,6.863-14.124,11.911-20.18
		C478.746,33.972,480.564,29.938,483.393,26.709z"/>
	<path fill-rule="evenodd" clip-rule="evenodd" fill="#FFFFFF" d="M443.635,33.57c5.849-3.835,12.104-7.066,19.173-7.267
		c5.244,0,11.097-1.21,15.739,1.816c-3.031,8.476-10.09,14.331-13.928,22.2c-1.412,3.028-3.227,6.053-4.234,9.284
		c-1.011,4.036-1.818,7.872-3.028,11.906c-1.818,6.053,0.196,12.312,0.402,18.369c-5.849-0.405-11.3-2.222-16.953-3.435
		c-8.069-1.613-15.946-4.236-23.613-7.667c0.808-5.249,2.021-10.293,3.835-15.337c2.419-7.267,9.691-11.506,13.52-18.163
		c0-1.414-0.602-2.425-1.412-3.433C436.772,39.218,440.201,36.395,443.635,33.57z"/>
	<path fill-rule="evenodd" clip-rule="evenodd" fill="#FFFFFF" d="M423.857,47.494c2.216-1.008,4.437-1.812,6.454-3.026
		c-3.832,5.045-8.88,8.88-12.31,14.329c-2.22,3.43-3.227,7.265-4.846,10.896c-1.412,4.241-3.024,8.48-4.639,12.715
		c-2.018,0.605-4.035,1.414-6.056,2.222c1.416-4.239,2.626-8.275,4.44-12.31C411.946,63.64,416.592,54.561,423.857,47.494z"/>
	<path fill-rule="evenodd" clip-rule="evenodd" fill="#FFFFFF" d="M63.209,70.098c9.284-7.871,17.963-16.547,28.861-22.399
		c-1.814,1.613-2.222,3.631-2.222,5.852c-1.815,1.011-4.236,1.614-5.246,3.633c-0.806,2.216,0.607,4.034,1.615,5.852
		C79.356,63.64,73.1,67.07,67.649,71.107c-7.868,5.852-15.538,11.906-23.611,17.154c-5.045,2.627-7.871,7.871-10.698,12.516
		c-1.814,3.225-2.017,7.06-3.026,10.492c-0.402-4.643-0.201-9.889,2.624-13.923c3.632-5.852,8.275-10.901,13.925-14.732
		C52.515,78.572,57.963,74.337,63.209,70.098z"/>
	<path fill-rule="evenodd" clip-rule="evenodd" fill="#FFFFFF" d="M545.546,48.303c4.646,3.026,8.478,7.062,12.716,10.293
		c2.423,5.045,3.23,10.494,4.44,15.741c2.426,9.079,2.017,18.568,2.224,28.053c0.398,7.466,0.398,14.932-0.409,22.401
		c0,2.624-1.003,5.246-1.815,7.868c-1.612-1.009-3.227-2.014-4.842-3.028c1.615-2.421,3.633-4.639,3.836-7.665
		c0.608-7.067,0.199-13.925-0.203-20.79c-0.203-6.859-1.615-13.52-2.419-20.178c-0.811-6.662-3.437-12.918-6.258-18.972
		c-1.011-1.617-2.423-3.028-3.433-4.645C547.77,54.561,546.561,51.329,545.546,48.303z"/>
	<path fill-rule="evenodd" clip-rule="evenodd" fill="#FFFFFF" d="M88.64,57.587c1.208-0.608,2.22-1.008,3.229-1.414
		c0.607,0.806,1.412,1.818,2.22,2.624c1.614,0,3.43,0,4.641-1.414c1.009-1.813,3.229-0.404,4.643-0.199
		c8.474,3.026,17.154,4.236,25.831,5.648c12.916,2.017,25.429,6.258,38.346,9.085c9.688,1.816,19.373,4.438,29.06,6.657
		c9.487,1.617,18.568,4.645,28.055,6.662c15.539,4.44,31.887,6.053,47.224,11.502c3.026,1.009,5.853,2.626,8.475,4.44
		c-1.005,0.807-2.218,1.416-2.827,2.425c-0.603,1.614,0.205,3.024,0.608,4.44c-3.634-2.426-6.861-5.856-11.1-7.469
		c-9.889-3.028-19.978-4.236-30.07-6.255c-5.451-1.412-11.1-2.021-16.348-3.836c-7.466-2.626-15.337-3.835-22.804-5.651
		c-6.258-1.614-12.514-3.028-18.771-4.844c-11.502-3.227-23.611-3.832-34.711-8.275c-10.494-4.236-21.594-6.255-32.694-8.071
		c-5.451-1.008-10.899-1.414-16.145-2.622C92.877,60.613,90.86,58.999,88.64,57.587z"/>
	<path fill-rule="evenodd" clip-rule="evenodd" fill="#FFFFFF" d="M546.358,59.4c0.399,0,1.007-0.199,1.615-0.4
		c1.611,7.667,1.007,15.738,1.611,23.613c0.203,9.079-1.814,17.96-3.433,26.838c-1.206,5.249-1.811,10.902-4.839,15.542
		c9.282,4.44,18.163,9.483,27.242,13.923c-5.447-1.009-10.897-2.421-16.75-3.026c-8.069-1.414-16.551-1.21-24.62-2.827
		c-7.671-1.614-15.338-2.418-23.008-4.236c-6.863-1.818-14.128-2.622-20.991-5.048c-5.447-2.017-11.1-3.835-15.135-8.071
		c-5.65-5.852-13.726-8.88-17.558-16.346c5.451,1.009,10.293,3.431,15.54,4.239c8.681,1.411,17.358,3.431,25.829,5.65
		c10.702,2.827,21.802,4.639,32.091,8.475c5.451,1.818,10.492,4.645,15.946,6.457c0.804-4.844,2.423-9.483,4.234-13.923
		c3.839-14.531,3.839-29.664,3.031-44.602C547.165,63.64,546.756,61.621,546.358,59.4z"/>
	<path fill-rule="evenodd" clip-rule="evenodd" fill="#FFFFFF" d="M404.884,88.26c3.027-1.614,6.664-2.421,9.89-1.816
		c8.275,1.617,16.345,4.038,24.417,6.662c-0.808,0.404-1.612,1.412-2.622,1.212c-6.457-1.212-12.313-5.047-19.173-5.248
		c-3.433-1.008-6.457,1.614-9.688,2.218c-3.433,0.808-7.265,2.827-8.272,6.662c-1.213,4.44,0,8.878,1.007,13.319
		c-1.412-2.421-3.632-4.844-2.825-7.87c0.406-4.036,1.412-8.071,2.622-12.111C401.048,89.473,403.272,89.069,404.884,88.26z"/>
	<path fill-rule="evenodd" clip-rule="evenodd" fill="#FFFFFF" d="M409.324,106.424c2.622-5.045,7.269-8.679,10.293-13.724
		c1.21,0.405,2.622,0.81,3.832,1.414c-1.608,3.23-4.842,6.256-4.234,10.091c4.842-0.808,7.87-4.844,11.904-7.066
		c2.017,0.404,4.034,1.213,6.052,2.017c-5.845,4.645-11.901,9.489-16.547,15.542c-2.419,3.431-5.041,6.861-7.265,10.494
		c3.027-2.624,5.856-5.449,9.086-7.872c6.052-4.44,11.3-10.088,17.152-14.729c1.21,2.014,2.419,4.033,3.633,6.054
		c-9.887,6.857-18.973,14.934-27.647,23.207c-2.825,2.423-6.863,3.835-8.681,7.67c-3.23,5.246-4.842,11.098-7.464,16.547
		c-0.608-4.44,0.199-8.88,1.409-13.119c1.213-3.832,3.636-7.466,3.839-11.701c-3.43,3.835-6.059,8.273-8.275,12.713
		c-0.203-2.626-1.014-5.452,0.402-7.87c2.419-5.048,4.237-10.497,6.052-15.741C404.481,115.504,406.702,110.864,409.324,106.424z"/>
	<path fill-rule="evenodd" clip-rule="evenodd" fill="#FFFFFF" d="M441.617,98.757c0.601-0.603,1.412-1.012,2.017-1.412
		c1.007,5.248,5.244,8.88,8.88,12.31c3.223,2.622,6.657,4.844,9.688,7.466c3.021,2.823,6.052,5.449,9.883,6.659
		c7.67,2.626,15.544,4.239,23.211,6.662c5.45,1.412,10.698,3.23,16.351,4.034c9.485,1.619,18.763,3.232,28.252,4.645
		c13.922,2.827,28.455,4.639,41.576,10.494c3.43,1.213,7.055,2.421,9.883,4.844c4.038,3.835,7.464,8.071,10.097,12.915
		c0.804,4.04,1.003,8.275,0.804,12.31c-0.199,3.031-2.223,5.249-4.44,6.863c2.419-6.053,2.017-12.915,0.605-19.372
		c-1.213-4.645-5.244-7.871-9.083-10.294c-4.437-3.23-9.688-4.639-14.729-6.66c-5.248-2.218-10.898-3.028-16.352-4.641
		c-5.646-2.421-11.904-3.23-17.96-4.239c-14.131-2.622-28.654-3.832-42.583-8.071c-6.059-2.017-12.516-2.622-18.568-4.44
		c-7.87-2.622-15.743-5.653-22.2-10.696c-4.237-4.036-9.079-7.468-11.705-12.716C443.834,103.198,442.823,100.976,441.617,98.757z"
		/>
	<g>
		<path fill-rule="evenodd" clip-rule="evenodd" fill="#FFFFFF" d="M301.757,102.993c2.417-0.603,4.844-2.216,7.466-1.614
			c4.844,1.614,9.284,4.236,13.928,6.457c3.832,1.614,7.667,3.227,11.705,4.645c4.036,1.409,7.059,4.639,10.695,6.857
			c-5.049,1.617-9.284-2.218-13.724-3.835c-3.227-1.813-7.066-1.813-10.293-3.426c-4.036-1.818-8.48-3.231-12.312-5.653
			c-1.614-0.81-3.227-1.614-4.844-2.218c0.81,1.009,1.617,2.019,2.426,2.827c-0.608,1.008-1.012,2.218-1.822,3.227
			c-2.622,2.622-6.454,3.431-10.088,3.431c-2.827,0.199-7.068-1.613-6.258-5.249c0.204-2.216,1.818-4.639,4.239-5.244
			C295.703,102.592,298.731,103.198,301.757,102.993L301.757,102.993z M296.513,104.002c-3.031,0.809-5.858,3.431-5.048,6.863
			c0.404,0,1.008,0,1.412,0c0.605-1.008,1.005-2.017,1.814-2.823c1.213-1.008,2.827-1.008,4.239-1.416
			c1.008,1.012,1.613,3.634,3.431,3.029c2.222-1.008,0.809-4.239-0.605-5.248C300.344,102.993,298.122,103.802,296.513,104.002z"/>
	</g>
	<path fill-rule="evenodd" clip-rule="evenodd" fill="#FFFFFF" d="M308.015,108.442c4.239,2.222,9.079,3.636,12.71,6.863
		c-2.218,0.199-4.639,0-6.861-0.806C311.845,112.481,309.828,110.663,308.015,108.442z"/>
	<g>
		<path fill-rule="evenodd" clip-rule="evenodd" fill="#FFFFFF" d="M284.398,110.259c3.43,1.213,5.049,4.844,8.275,6.457
			c2.825,1.414,6.057,1.213,9.083,1.414c-0.605,1.008-1.214,2.622-2.622,2.421c-4.645-0.808-9.287-2.222-13.928-1.818
			c1.818,3.028,5.854,3.636,8.88,4.846c3.636,0.603,6.861,2.626,10.497,3.026c2.622,0.605,4.236-1.815,6.054-3.431
			c7.87,4.036,16.75,5.449,24.824,8.88c6.053,2.421,12.312,4.04,18.564,5.653c1.818,0.603,3.836,1.009,5.045,2.216
			c3.43,4.44,6.859,8.681,10.496,12.715c1.21,1.009,2.828,2.018,4.241,1.214c1.815-1.009,2.419-3.431,1.815-5.248
			c-0.605-1.818-1.815-3.431-2.622-5.246c1.412,0.806,2.622,2.014,4.237,2.823c4.237,2.626,9.079,3.835,13.317,6.057
			c1.822,0.605,1.822,2.622,2.22,4.036c1.21,4.639,3.433,9.284,3.433,14.123c-4.846-1.813-9.891-3.43-14.534-5.444
			c-4.034-1.213-7.667-3.031-11.097-5.048c-2.017-0.406-5.248-2.423-6.863-0.201c-0.405,0.605-1.213,1.614-1.818,2.218
			c-0.399-0.404-1.612-1.009-2.216-1.412c0.402-1.21,0.804-2.622,1.213-3.832c-1.213-0.204-2.224-0.404-3.234-0.404
			c-0.605,1.008-1.007,2.017-1.416,3.225c-1.206-0.199-2.622-0.603-3.831-1.008c0.811-1.813,2.223-3.631,1.21-5.449
			c-0.804-1.614-3.021-1.614-4.639-2.216c-6.457-1.619-12.111-5.454-18.364-8.275c-8.48-4.04-17.154-7.267-25.634-11.301
			c-4.639-2.222-9.688-4.241-14.528-6.057c-3.431-1.21-6.457-2.823-9.889-3.832c0.809-1.213,1.812-2.222,2.823-3.031
			C283.39,115.504,283.593,112.682,284.398,110.259L284.398,110.259z M340.301,140.734c-0.199,1.213,0.404,2.626,1.614,3.026
			c2.222,0.81,6.662,1.414,6.053-2.421c-1.61,0-3.227-0.201-4.84-0.201c0.404-0.603,0.81-1.412,1.213-2.017
			c-0.605-0.404-1.414-0.809-2.017-1.213C341.514,138.716,340.502,139.524,340.301,140.734L340.301,140.734z M358.668,150.218
			c-0.402,1.009,0.203,2.222,1.011,2.825c1.612,1.414,3.43,3.027,5.852,2.423c0.605-0.605,1.21-1.818,0.399-2.423
			c-1.811-1.614-3.43-3.23-5.038-4.844C360.081,148.808,359.07,149.413,358.668,150.218z"/>
	</g>
	<path fill-rule="evenodd" clip-rule="evenodd" fill="#FFFFFF" d="M442.823,112.682c0.811-0.605,1.416-1.21,2.224-1.619
		C444.439,111.674,443.635,112.277,442.823,112.682z"/>
	<g>
		<path fill-rule="evenodd" clip-rule="evenodd" fill="#FFFFFF" d="M445.652,112.882c4.034,3.835,7.261,8.88,12.513,11.102
			c7.468,3.227,13.519,8.676,21.393,10.897c4.838,1.009,9.887,2.218,13.921,5.449c2.423,3.43,2.829,7.87,3.031,12.111
			c-5.049,2.825-8.073,7.87-12.31,11.705c-2.832,3.028-5.454,6.659-7.468,10.494c-2.829,3.634-2.829,8.679-5.049,12.915
			c-1.206,2.222-2.825,4.44-2.622,7.267c3.633-1.414,5.451-5.045,6.66-8.681c2.22-8.475,9.083-14.932,16.142-19.571
			c3.839-2.827,7.671-5.249,12.114-6.463c0.808,3.636-2.224,6.463-2.829,10.093c-0.203,1.008-0.402,2.017-0.605,3.026
			c3.024-2.826,5.849-6.457,9.887-7.87c3.031-0.81,5.856,0.605,8.681,1.213c1.615,0.4,3.027-0.405,4.643-0.81
			c0-0.404,0-1.008,0-1.213c-2.423-2.218-4.846-4.034-7.268-5.849c1.01-1.412,1.615-3.031,2.825-4.239
			c3.234-1.414,6.859-2.218,10.495-1.818c3.835,1.009,7.468,4.239,11.506,2.626c2.216-0.807,5.248-0.608,6.66,1.414
			c1.409,2.218,1.21,5.244,0.605,7.667c-0.406,2.017-2.622,2.622-4.444,2.421c-3.629-0.808-5.849,2.423-8.474,3.835
			c-2.017,0.605-4.44-1.208-6.255,0.405c-1.822,2.216-3.433,4.64-5.65,6.253c-5.048,2.827-10.698,3.835-16.149,5.452
			c1.213,2.218,3.835,2.823,6.059,3.227c4.234,0.809,8.275-1.412,12.306-1.614c3.23,0.804,5.248,3.835,7.87,5.648
			c1.214,0.605,1.011,2.223,1.214,3.636c0.804,3.631-1.818,7.262-5.045,8.676c0-2.017,1.416-3.832,2.22-5.65
			c-2.017-0.203-4.031-0.203-6.059-0.404c-2.622-1.213-4.031-5.045-7.464-4.44c-5.041,0.201-10.09-0.404-15.334,0
			c-0.406-1.008-0.808-2.017-1.217-3.026c-2.017,0.804-3.227,2.421-3.629,4.639c4.639,2.222,9.887,1.213,14.732,2.423
			c7.062,1.213,12.911,5.653,16.953,11.301c-1.42,3.431-2.014,7.67-5.451,9.688c-0.406-1.614,0.405-3.836-1.213-4.643
			c-4.64-2.014-9.079-4.641-13.722-6.658c-2.22-1.008-3.227-3.23-5.244-4.44c-0.405,2.826-0.203,5.449-0.405,8.275
			c-0.608,1.614-1.818,3.631-3.836,3.832c-1.814,0-3.831,0.205-5.653,0.608c0.808,3.227,4.241,4.639,5.856,7.267
			c0.605,1.003,2.021,2.622,0.811,4.034c-0.811,2.218-2.829,3.835-5.049,4.64c-4.646,0.605-8.677-2.421-12.915-3.835
			c3.629,6.059,11.296,9.889,18.361,8.076c5.451-1.613,8.275-7.066,12.111-11.102c2.822-2.218,5.853-4.236,9.485-5.248
			c-3.835,3.634-7.87,7.265-11.097,11.506c-3.636,4.643-8.88,7.67-14.534,8.474c-2.423,0.404-5.048,1.412-7.468,0.205
			c-4.034-2.222-6.859-5.653-10.694-8.275c-2.22-1.818-4.042-4.44-6.664-5.653c0.605,4.844,4.646,7.872,8.072,10.897
			c-0.402,0.608-1.007,1.214-1.409,1.818c-5.653-2.823-10.898-6.659-15.338-11.098c-1.818-1.816-4.44-3.435-5.248-6.256
			c-1.615-4.239-4.237-7.871-6.664-11.707c-0.605,0.201-1.003,0.405-1.612,0.605c1.818,6.057,3.43,12.111,5.248,18.369
			c0.808,3.631,1.608,7.265,3.227,10.896c3.031,5.65,3.43,12.107,5.248,18.164c-3.43,3.835-6.66,8.275-11.506,10.088
			c-2.216,0.81-4.234,1.213-6.454,1.619c-1.818,0-4.034,1.208-5.447-0.406c-3.433-3.43-5.86-7.67-7.471-12.31
			c-1.615-5.248-2.622-10.497-4.842-15.542c-2.825-9.483-3.028-19.372-3.43-29.264c-0.409-3.832-0.203-7.667-1.213-11.502
			c-2.423,18.164-3.028,36.931,2.017,54.692c1.01,4.239,2.626,8.478,2.825,12.713c-1.007,1.818-2.622,3.031-4.437,3.836
			c-5.248-5.043-8.076-11.906-12.31-17.758c-1.416-1.818-3.433-3.431-3.433-6.054c-1.213-8.275-2.22-16.75-2.017-25.23
			c-0.203-9.684,1.21-19.171,1.409-28.855c0.608-9.085,0-18.369,0.207-27.448c0-5.653,1.409-10.897,2.419-16.346
			c1.615,1.21,3.433,2.823,5.45,3.428c2.017,0.608,4.034,0.404,6.258,0.203c1.412,2.019,2.017,5.045,4.433,6.053
			c1.014-3.43,0.811-7.062,1.416-10.492c0-1.214-0.203-2.423-0.402-3.431c-3.835,0.804-7.066,4.44-11.299,3.63
			c-1.818-0.804-3.234-2.218-4.646-3.431c2.426,0.205,4.845,0.605,7.468,0.605c2.017,0.204,2.825-2.017,3.636-3.631
			c0.203-1.412,0.808-4.034-1.01-4.64c-1.612-0.405-3.23,0.199-4.846,0.199c0.808-0.605,1.615-1.412,2.22-2.017
			c2.22,0.404,4.842,1.818,6.66,0c0.804-2.017-0.605-4.44-0.199-6.662c2.825-2.823,5.849-5.244,9.079-7.466
			c-0.405,3.23-1.21,6.662-0.605,10.092c1.21,6.658-0.808,13.519,2.423,19.778c1.612-6.258,0.605-12.918,2.419-19.173
			C440.604,124.588,442.219,118.33,445.652,112.882L445.652,112.882z M524.961,160.915c-0.398,1.009-0.605,2.423,0,3.431
			c2.423,2.222,6.258,1.614,8.681-0.201c1.818-1.213,3.835,0.201,5.454,0.4c0.196-1.409,0-3.026-1.419-3.631
			C533.841,158.696,528.597,158.492,524.961,160.915L524.961,160.915z M427.287,171.008c-0.203,6.858,2.622,13.52,5.849,19.372
			c2.223,4.239,6.664,6.457,10.499,8.475c-2.017-4.236-3.835-8.475-6.055-12.511c-2.626-4.643-3.835-10.091-6.052-14.932
			c-1.822-3.031-1.619-6.867-1.619-10.293C427.892,163.941,427.084,167.577,427.287,171.008z"/>
	</g>
	<path fill-rule="evenodd" clip-rule="evenodd" fill="#FFFFFF" d="M320.526,118.535c1.009-0.809,1.816-1.614,2.825-2.423
		c0.806,0.405,2.019,1.21,2.827,1.614c-0.608,0.405-1.009,1.008-1.416,1.414C323.552,119.14,321.534,118.734,320.526,118.535z"/>
	<path fill-rule="evenodd" clip-rule="evenodd" fill="#FFFFFF" d="M327.586,122.37c1.414-1.009,1.619-3.231,3.431-3.836
		c3.636,1.21,7.267,3.431,11.102,4.44c4.639,0.804,9.483-1.414,14.122,0.605c5.86,2.626,11.912,5.043,18.169,6.861
		c5.447,2.218,10.492,4.844,15.739,6.861c0,3.232,0.402,6.457,0.605,9.485c-5.244-0.4-9.887-2.622-14.53-4.84
		c-2.22-1.012-4.643-1.213-6.66-2.423c-1.615-1.816-2.622-3.835-4.035-5.651c-3.23,0.603-6.258,4.239-9.688,2.017
		c-9.689-3.026-18.973-7.267-28.86-9.684c-2.419-0.81-4.846-1.822-7.267-2.626C322.342,123.379,325.37,124.384,327.586,122.37z"/>
	<path fill-rule="evenodd" clip-rule="evenodd" fill="#FFFFFF" d="M315.276,118.939c1.414,1.414,2.827,3.027,4.239,4.44
		c-1.412-0.404-2.825-0.608-4.035-1.412C315.077,120.956,315.077,119.944,315.276,118.939z"/>
	<path fill-rule="evenodd" clip-rule="evenodd" fill="#FFFFFF" d="M273.3,121.561c1.009,0.405,2.218,0.81,3.428,1.21
		c-1.005,3.435-1.814,6.861-3.428,10.093c-2.017,2.222-5.248,3.026-8.072,3.631c1.009-1.614,2.622-2.622,3.835-4.236
		C270.674,128.827,272.087,125.193,273.3,121.561z"/>
	<g>
		<path fill-rule="evenodd" clip-rule="evenodd" fill="#FFFFFF" d="M222.444,129.029c3.631-1.21,7.267-2.218,10.898-3.028
			c2.622,3.028,4.842,6.054,7.062,9.284c2.019,4.44,4.038,8.88,5.451,13.724c0.201,2.826,0.808,6.256-1.615,8.275
			c-0.808,0.804-2.22,1.208-3.229,0.404c-2.22-1.617-3.634-4.04-5.248-6.258c2.626-0.808,5.047-2.222,7.267-3.43
			c-1.01-2.019-2.019-4.44-3.835-5.653c-2.22-1.21-4.239,1.012-6.459,1.012c-4.237-1.816-7.062-5.853-9.684-9.487
			c-1.214,1.412-3.231,1.008-5.047,0.603C219.414,132.659,220.423,130.24,222.444,129.029L222.444,129.029z M226.884,129.432
			c-0.203,0.605-0.405,1.213-0.607,1.818c1.412-0.605,2.827-1.011,4.237-1.818C229.104,129.231,228.093,129.432,226.884,129.432z"/>
	</g>
	<path fill-rule="evenodd" clip-rule="evenodd" fill="#FFFFFF" d="M281.172,129.432c0.605-1.414,1.812-3.431,3.634-2.423
		c7.062,3.23,14.124,5.854,21.391,8.476c-1.213,1.412-2.023,3.634-3.835,4.038c-4.036,0.605-8.071-1.213-12.107-1.012
		c-1.822-0.605-3.23,0.404-4.444,1.412c0.205,0.405,0.605,1.011,0.81,1.619c4.239,0,8.675,0.404,12.713,2.018
		c-1.211,1.21-2.626,3.026-4.643,2.421c-3.227-0.404-6.258-2.622-9.688-1.816c-7.667,1.412-14.524,5.248-21.996,7.67
		c-4.44,1.412-9.081,3.43-13.925,3.631c0.201-2.423,0.201-4.844,0-7.267c5.046-0.808,10.09-2.622,14.734-4.84
		c4.033-1.816,8.475-2.222,12.306-4.643C279.154,136.699,279.555,132.458,281.172,129.432z"/>
	<path fill-rule="evenodd" clip-rule="evenodd" fill="#FFFFFF" d="M243.835,135.689c2.624,0.201,5.047,0.605,7.468,1.411
		c-2.019,0.808-4.036,1.617-6.053,2.425C244.845,138.112,244.441,136.898,243.835,135.689z"/>
	<path fill-rule="evenodd" clip-rule="evenodd" fill="#FFFFFF" d="M218.808,136.494c1.012,0,2.627,0,3.433,0
		c0.81,2.222,1.414,4.643,3.029,6.662c2.016,3.026,5.244,5.043,7.464,8.071c2.22,2.826,3.433,6.256,6.256,8.478
		c1.212,0.806,2.825,1.414,4.239,1.814c-1.01,6.457-2.624,12.918-2.22,19.376c0.201,2.218-1.414,3.835-3.027,5.045
		c-1.815,0.809-3.633,1.818-5.853,2.017c-1.211-0.404-2.017-1.614-2.826-2.421c1.211-0.605,2.626-0.806,3.632-1.613
		c1.617-2.019,1.818-4.641,3.634-6.457c1.008-1.213,2.624-1.818,4.036-2.627c-2.017-0.4-3.835-0.804-5.652-1.005
		c-1.412-5.048-3.833-9.487-5.851-14.128c-1.414-3.43-2.423-7.066-4.643-10.091c-1.009-1.614-2.827-3.028-2.624-5.249
		c0.404-1.208,1.214-2.017,1.818-3.026c-0.809-0.201-1.617-0.804-2.423-0.605c-2.22,1.008-3.431,3.23-4.842,5.045
		c-3.23-1.414-6.662-1.613-9.89-2.419C210.335,140.935,214.368,137.907,218.808,136.494z"/>
	<path fill-rule="evenodd" clip-rule="evenodd" fill="#FFFFFF" d="M364.318,137.708c0.808-0.405,1.213,0.804,0.405,1.009
		C364.119,138.916,363.713,137.907,364.318,137.708z"/>
	<path fill-rule="evenodd" clip-rule="evenodd" fill="#FFFFFF" d="M246.661,141.543c4.44-1.619,9.081-3.431,14.126-3.232
		c-4.44,2.224-9.081,3.431-13.722,4.44C246.862,142.347,246.661,141.947,246.661,141.543z"/>
	<path fill-rule="evenodd" clip-rule="evenodd" fill="#FFFFFF" d="M413.764,142.146c-0.199-1.816,0.608-3.23,1.818-4.438
		c0.199,1.208,0.399,2.216,0.804,3.43C415.582,141.338,414.568,141.742,413.764,142.146z"/>
	<path fill-rule="evenodd" clip-rule="evenodd" fill="#FFFFFF" d="M418.606,142.146c0.203-1.612,0.808-3.026,2.22-3.835
		C420.623,139.725,419.823,141.137,418.606,142.146z"/>
	<path fill-rule="evenodd" clip-rule="evenodd" fill="#FFFFFF" d="M311.037,139.12c0.808,0,1.617,0.201,2.626,0.201
		c-2.017,3.026-5.248,4.643-7.667,7.265c-2.426,2.827-4.444,6.258-5.452,9.889c-1.613-2.017-0.804-4.64,0.205-6.662
		C303.569,145.778,307.001,142.146,311.037,139.12z"/>
	<path fill-rule="evenodd" clip-rule="evenodd" fill="#FFFFFF" d="M315.481,144.569c5.849,2.823,11.705,5.244,17.759,7.466
		c-0.605,0.605-1.009,1.213-1.412,1.818c-3.431-0.404-6.863-1.412-10.09-0.205c-1.412,1.009-3.43,2.017-3.835,3.835
		c-0.404,1.818-0.203,3.636-0.404,5.653C313.864,157.284,317.902,150.622,315.481,144.569z"/>
	<path fill-rule="evenodd" clip-rule="evenodd" fill="#FFFFFF" d="M196.41,148.808c5.246-2.421,11.299-2.222,16.951-1.009
		c0.808,0.4,2.22,0.605,2.423,1.815c0.607,4.844,2.622,9.483,3.229,14.531c0.807,5.045,2.423,9.889,3.229,14.934
		c0,0.808-0.607,1.613-1.213,2.222c-1.208,1.412-2.22,3.026-3.227,4.64c-0.201-1.818-0.607-3.636-0.201-5.449
		c0.404-4.844-1.615-9.483-2.825-14.128c-0.81-4.036-2.22-7.667-3.23-11.502c0.805-1.008,1.615-1.818,2.421-2.827
		c-0.201-0.605-0.605-1.208-0.806-1.816c-3.634,0.808-6.863,2.626-8.88,5.652c-0.808,1.21-1.412,3.027-3.23,3.027
		c-6.255,0.808-12.513,2.222-18.767,3.43c-3.23,1.614-6.863,1.614-10.493,1.614c0,1.213,0,2.222,0.402,3.431
		c2.827,1.008,6.055,0.605,9.284,0.605c5.652,0.205,11.502,0,17.156,1.213c1.815,0.404,2.825,2.421,4.035,3.835
		c3.026,4.841,6.861,8.879,9.485,13.923c1.01,1.414,0,3.026-0.201,4.44c-4.844-2.823-8.274-7.667-11.906-11.906
		c-1.615-2.017-3.23-3.835-4.44-6.057c-2.827,1.012-5.047,3.03-8.074,3.634c-6.256,0.806-12.511,1.213-18.769,1.213
		c-1.411,0-2.823,1.008-3.026,2.419c-0.404,3.231,0.203,6.461,0.402,9.487c-1.614,1.815-4.842,3.431-3.834,6.255
		c1.614,2.626,4.44,4.239,7.064,6.057c-0.404,6.457-2.827,12.714-2.827,19.171c1.212,8.476,1.212,16.951,1.414,25.63
		c0.203,3.835,4.034,6.658,3.633,10.698c-0.607,7.665-1.412,15.541-1.011,23.412c0,8.475-1.21,16.949-1.21,25.63
		c0,8.674,2.423,17.354,2.015,26.233c-0.402,9.889,0.408,19.982-0.806,29.869c-1.412,14.329-2.22,28.86-1.21,43.189
		c0.808,10.289,7.062,18.972,9.083,28.861c1.008,3.832,0.806,7.872,2.419,11.502c1.212,3.431,2.019,6.858,3.633,10.088
		c1.617,3.435,1.816,7.065,2.021,10.901c-1.414-1.009-2.827-2.021-4.038-3.026c-2.017-7.875-4.237-15.546-7.87-22.608
		c-3.835-7.866-7.67-15.738-9.689-24.216c-3.229-14.329-5.043-29.062-3.832-43.593c2.421-16.951,0-33.902,1.612-50.655
		c0.81-8.275,0.81-16.545,0.607-24.821c-0.402-13.724-0.402-27.247-1.009-40.767c-0.404-2.622,3.634-3.835,2.421-6.258
		c-2.421-4.035-2.622-8.88-3.833-13.319c-1.009-13.119-1.009-26.239-1.414-39.354c-0.201-9.488-1.412-18.767-1.21-28.255
		c1.21-3.227,4.643-3.835,7.671-4.641c3.43-1.009,4.237-5.043,6.658-7.265c2.622-2.218,6.054-3.027,9.083-4.645
		C186.316,152.035,191.564,151.026,196.41,148.808z"/>
	<path fill-rule="evenodd" clip-rule="evenodd" fill="#FFFFFF" d="M300.344,157.688c7.265,3.026,13.722,7.667,21.393,9.889
		c3.633,1.208,6.863,3.227,10.695,3.631c2.017,0.605,3.835-0.809,5.651-1.613c4.44-2.827,8.676-6.057,12.712-9.688
		c4.241,2.421,8.685,4.44,12.313,7.67c-2.216,2.218-4.44,4.44-7.062,6.256c-2.021,0.806-4.237-0.608-6.258,0.4
		c-2.015,0.605-3.43,2.222-5.046,3.431c-0.4-2.218-0.605-4.64-1.815-6.457c-1.816-1.008-3.43,0.605-4.844,1.21
		c-2.622,1.416-5.651,1.213-8.275,0.203c-6.457-2.421-12.915-5.043-19.376-7.665C306.6,163.338,302.566,161.52,300.344,157.688z"/>
	<path fill-rule="evenodd" clip-rule="evenodd" fill="#FFFFFF" d="M260.788,167.173c4.842-1.414,9.282-4.036,14.33-5.249
		c-5.449,3.636-11.301,7.062-15.946,11.909c-4.034,4.236-8.475,8.471-11.098,13.925c-2.019,3.43-2.825,7.466-6.055,10.088
		c-1.615,1.614-3.835,2.626-4.44,5.049c-1.816,6.658-3.43,13.318-6.256,19.778c-0.607,1.816-2.421,2.825-3.832,4.236
		c-3.232,2.626-6.463,5.248-9.69,8.074c-3.229,2.827-4.036,7.267-4.641,11.301c-1.816,14.733-3.634,29.465-2.22,44.398
		c0.806,6.863,0.404,13.928,2.22,20.79c1.208,5.449,2.017,11.098,3.428,16.346c2.22,7.468,4.44,14.733,7.068,21.999
		c-1.414,1.614-2.627,3.431-4.038,5.045c-2.423-11.303-4.643-22.604-7.669-33.906c-1.211-7.062-2.825-13.923-3.633-20.991
		c-1.211-8.274-0.607-16.545-1.211-24.62c-0.201-6.658-1.615-13.519-0.201-19.977c1.211-6.057,2.825-11.911,5.045-17.559
		c0.808-1.818,1.211-3.835,3.026-4.844c3.833-3.835,9.487-6.057,12.109-10.903c2.424-3.225,3.029-7.262,3.23-11.298
		c-2.019,1.815-4.036,3.227-5.65,5.449c-1.414,2.019-2.626,4.44-4.643,6.255c-2.624,2.021-5.449,4.04-8.072,6.256
		c-3.026,2.222-6.459,3.835-9.686,5.855c-0.203-0.605-0.404-2.019-0.607-2.827c-2.419,0.808-5.047,1.816-6.861,3.634
		c-4.44,4.44-9.284,8.676-14.534,12.312c-0.605,0.603-1.812,0.603-2.419,0c-2.021-1.414-2.22-4.036-2.626-6.258
		c-1.208-9.284-0.603-18.568-0.806-28.051c0-3.835,0.607-7.872,0.404-11.906c-0.404-2.423-2.624-3.835-4.239-5.653
		c0.806-1.008,1.615-2.218,2.423-3.227c-0.605-2.827-1.011-5.449-1.412-8.275c6.256-0.205,12.511-1.412,18.769-1.412
		c4.641,2.622,7.468,7.466,11.504,10.696c3.43,2.823,7.466,4.64,11.705,5.648c0.605-2.216,1.411-4.438,2.22-6.656
		c1.009,2.017,1.816,4.236,2.622,6.253c-2.622,1.414-4.842,4.44-8.071,3.636c-4.239-0.605-5.248-5.653-8.679-7.471
		c-5.047-3.426-9.487-7.866-15.339-10.088c-4.034-0.201-7.868,1.208-11.906,1.412c2.624,2.222,5.851,3.431,8.275,5.854
		c3.835,3.835,5.851,9.079,9.686,12.915c1.615,1.613,4.844,0.807,5.852,3.23c2.22,4.236,1.211,8.88,2.017,13.318
		c0.405,2.019,2.827,1.414,4.44,1.614c1.615-4.639,3.229-9.483,6.662-13.318c2.017-0.205,4.237,0,6.053-0.81
		c3.631-2.218,6.055-5.648,9.081-8.275c3.029-2.622,5.651-5.449,8.476-8.071c1.816-1.614,4.641-1.816,6.459-3.43
		c1.412-1.21,3.633-2.019,4.034-4.036c0.607-4.643,0.405-9.284,0.405-14.128C250.897,170.199,255.743,168.585,260.788,167.173z"/>
	<g>
		<path fill-rule="evenodd" clip-rule="evenodd" fill="#FFFFFF" d="M371.989,164.75c2.216,0.809,4.237,1.613,6.457,2.423
			c-4.035,5.244-9.083,9.282-12.915,14.731c-2.825,4.236-6.258,8.275-8.072,13.116c-1.01,2.627-2.22,5.452-3.027,8.275
			c-2.419,7.267-1.615,15.341-1.615,23.008c0.405,7.066,0.804,14.327,2.423,21.394c2.22,5.043,4.035,10.293,5.849,15.537
			c0.409,1.012,1.412,1.818,2.426,2.021c1.815,0,3.43-2.021,2.622-3.836c-0.206-2.017-1.01-3.634-1.818-5.449
			c-3.632-9.284-5.447-19.375-5.248-29.264c0-6.457-0.199-13.119,1.615-19.372c1.416-5.852,2.622-11.911,5.45-17.36
			c3.636-7.87,9.688-14.327,14.733-21.389c2.017,0.81,4.034,1.813,6.055,2.827c-3.633,4.84-7.873,9.483-10.698,14.932
			c-1.815,3.631-3.832,7.062-5.65,10.698c-2.017,5.043-3.23,10.492-4.042,15.941c-2.216,12.111-2.416,24.826,1.014,36.732
			c1.21,4.844,2.423,9.889,5.045,14.327c1.213,1.613,3.43,0.809,4.842,0.204c-0.402-1.412-0.199-2.421-1.007-3.634
			c-3.23-5.045-5.045-10.898-6.457-16.551c-1.412-6.857-0.608-13.724,0.199-20.582c0.605-5.452,2.017-10.901,3.227-16.145
			c1.014-5.249,2.224-10.497,4.65-15.137c3.625-6.863,7.663-13.32,12.708-19.173c1.814,0.808,3.433,1.412,5.048,2.218
			c-4.237,4.844-7.671,10.092-10.901,15.541c-3.027,5.249-5.852,10.698-6.66,16.75c-1.21,7.671-2.622,15.338-3.024,23.209
			c-0.203,5.043-0.409,10.293,1.007,15.341c1.412,5.043,2.626,10.293,4.444,15.335c0.399,1.414,2.017,2.827,3.625,2.019
			c2.021-0.809,1.416-3.835,1.014-5.449c-1.619-6.662-4.44-13.324-4.845-20.181c-0.605-11.301,1.21-22.403,4.639-33.102
			c2.426-7.06,6.464-13.114,10.897-18.968c1.42,1.01,2.829,1.814,4.241,2.827c-5.244,9.28-8.275,19.573-11.097,29.865
			c-1.615,9.688-1.818,19.781,0.605,29.266c1.206,5.853,3.426,11.501,5.451,17.154c-4.038,0.404-8.275,0.605-12.513,1.614
			c-1.416,0.404-2.622,1.412-3.636,2.622c2.423,1.009,5.048,0.205,7.468,0c3.43-0.4,6.859-0.199,10.09-1.812
			c0.405,0.804,1.01,1.812,1.615,2.821c-5.451,1.213-11.104,1.617-16.145,4.04c4.038,1.008,8.275,0.605,12.513,0.201
			c3.433-0.405,7.87-2.019,10.293,1.208c-9.887,2.627-20.386,2.627-30.679,4.241c-4.433,0.404-8.876,0.808-13.117,1.617
			c-3.832-5.454-6.656-11.506-9.279-17.559c-1.619-4.036-3.636-8.074-4.445-12.515c-1.005-4.844-1.812-9.889-2.418-14.732
			c-1.21-14.534,1.009-29.261,6.457-42.581c1.818-4.04,4.643-7.47,6.863-11.301C362.102,176.252,367.346,170.804,371.989,164.75
			L371.989,164.75z M359.48,268.282c-1.014,0.404-1.619,1.208-2.224,2.017c2.018,1.009,4.241,1.813,6.657,1.614
			c3.031-0.404,6.059-1.614,9.086-2.017c1.206-0.201,1.615-1.614,2.017-2.423C369.772,267.069,364.517,266.666,359.48,268.282
			L359.48,268.282z M365.126,274.336c-2.017-0.405-2.825,1.412-3.629,2.622c5.038,1.213,10.293,0.203,15.135-0.806
			c-0.203-0.608-0.608-1.816-1.01-2.421C372.188,273.53,368.559,273.731,365.126,274.336z"/>
	</g>
	<path fill-rule="evenodd" clip-rule="evenodd" fill="#FFFFFF" d="M544.341,173.63c-1.416,4.438-3.028,9.483-7.066,12.31
		c-0.199-3.431,0.602-7.062,2.423-10.088C540.907,174.639,542.721,174.233,544.341,173.63z"/>
	<path fill-rule="evenodd" clip-rule="evenodd" fill="#FFFFFF" d="M402.059,190.579c1.612,5.049,0.804,10.293,0.199,15.542
		c-1.003,6.053-1.003,12.31-1.003,18.367c-0.409,5.449-1.619,10.693-0.608,16.142c1.814,8.88,4.44,17.963,9.887,25.431
		c2.622,3.634,5.447,7.265,8.275,10.696c0.807,1.008,0.405,2.423,0.405,3.631c-0.203,4.241-0.608,8.48-0.608,12.715
		c2.017-0.804,4.038-1.812,5.65-3.227c3.835-3.431,9.086-4.444,12.915-7.671c2.021-1.213,3.433-3.227,5.454-4.236
		c3.027-1.012,6.055-0.81,9.079-1.213c-0.199,1.213-0.199,3.431-0.199,4.44c-2.216,0-4.44-0.404-6.457,0.605
		c-4.846,2.222-9.289,5.048-14.327,6.861c-6.863,3.636-12.317,9.485-18.568,13.724c-5.451,4.034-12.111,6.258-17.561,10.093
		c-8.88,6.457-16.953,14.128-26.64,19.372c-0.808-3.431-4.038-5.449-5.045-8.675c-1.615-4.44-2.423-9.085-4.237-13.324
		c-0.807-2.017-1.818-3.832-2.825-5.853c1.21-0.201,2.423-0.605,3.636-0.804c0,3.225,2.821,6.052,6.052,5.244
		c9.083-0.806,17.963-2.419,26.843-3.428c-5.451,3.832-11.307,7.062-15.743,12.311c-1.217,1.009-2.017,2.622-3.839,3.026
		c-1.003-0.204-2.017-1.008-3.021-1.614c-0.206,2.418,1.811,5.045,4.433,4.236c2.629-0.605,4.646-2.421,6.664-4.034
		c3.629-2.827,7.265-5.854,11.506-7.871c4.437-2.421,8.069-6.053,12.712-8.074c1.814-0.806,4.237-0.806,5.649-2.218
		c0.811-2.222,0-4.64,0.811-6.662c1.003-1.21,3.021-1.412,4.034-2.622c0.605-3.835,0.605-7.67,0-11.506
		c-1.412,0.205-3.031,0.608-4.643,1.009c0-2.014,0.608-3.832-0.203-5.648c-1.213-3.232-4.639-4.036-6.859-6.258
		c-4.846-4.44-7.268-10.693-9.086-16.951c-3.43-11.301-4.237-23.412-1.615-34.912C395.804,208.343,398.224,199.059,402.059,190.579z
		"/>
	<path fill-rule="evenodd" clip-rule="evenodd" fill="#FFFFFF" d="M534.852,203.699c2.423,1.414,4.846,2.627,7.265,4.036
		c2.017,1.008,1.412,3.835,3.43,4.844c4.447,2.626,9.289,5.653,14.733,5.449c4.237-0.404,7.873,2.222,11.709,3.431
		c5.646,2.021,10.694,5.449,15.739,8.478c-0.199,1.21-0.605,2.423-0.804,3.835c4.237,2.218,8.474,4.036,12.915,5.449
		c-0.605,1.005-1.412,1.814-2.22,2.823c-4.846-2.218-9.485-4.44-14.124-7.062c-0.207-1.414,0.605-3.431-1.014-4.036
		c-7.062-3.835-13.722-8.478-21.795-9.688c-2.423-0.404-5.048,1.009-7.261-0.404c-4.241-1.614-8.079-3.835-11.911-6.054
		c0-1.412,0.811-3.23-0.808-3.835c-2.216-1.213-4.845-1.818-7.261-3.23C533.841,206.326,534.247,204.912,534.852,203.699z"/>
	<path fill-rule="evenodd" clip-rule="evenodd" fill="#FFFFFF" d="M305.393,209.957c5.849-0.404,11.5-2.622,17.349-2.423
		c2.627-0.199,5.249,0.405,7.875,0.809c-5.449,1.818-11.102,2.622-16.954,3.227c-4.236,0.404-8.27,2.017-12.511,2.421
		c-0.608-1.009-1.213-1.816-1.818-2.622C301.353,210.764,303.37,210.161,305.393,209.957z"/>
	<path fill-rule="evenodd" clip-rule="evenodd" fill="#FFFFFF" d="M290.859,216.213c1.21-1.211,2.218-2.421,3.431-3.634
		c1.813,1.008,4.035,1.412,5.449,3.031c0.804,3.43,0,7.062-0.605,10.492c-0.809,5.244-2.622,10.698-6.461,14.528
		c-3.832,3.835-8.477,6.662-12.312,10.298c-4.844,4.84-10.088,9.079-14.932,13.923c-1.818,1.815-4.241,3.227-6.66,4.44
		c8.073-10.897,18.365-19.577,28.455-28.256c3.43-2.823,6.256-6.053,8.274-9.889c0.605-1.21,0.605-2.423,0.605-3.631
		c-2.418,1.412-4.44,3.631-7.062,5.043c-5.248,3.227-9.487,7.871-14.531,11.502c3.435-4.84,8.074-8.475,12.715-12.31
		c3.029-2.218,4.239-5.855,5.248-9.284C293.277,220.048,292.069,218.028,290.859,216.213z"/>
	<path fill-rule="evenodd" clip-rule="evenodd" fill="#FFFFFF" d="M530.821,217.019c2.216,0.404,4.433,2.222,6.657,1.213
		c1.01-0.405,2.22-1.008,3.227-0.405c3.836,2.222,7.874,4.236,11.705,6.457c0,1.213-0.199,2.223-0.402,3.636
		c2.419,1.614,4.846,3.227,7.468,4.236c5.041,1.818,9.684,4.44,14.331,6.861c2.22,1.011,5.041,2.019,6.859,0.205
		c0.605-0.404,1.21-1.009,2.017-1.412c4.241,2.418,8.677,4.236,12.915,6.457c-1.007,1.009-2.216,1.818-3.223,2.622
		c-3.842-1.614-7.671-5.65-12.313-3.631c-2.825,1.409-5.653-1.009-8.275-2.019c-7.873-3.026-15.135-7.265-22.201-11.705
		c-2.017-1.213-2.017-3.835-4.038-4.844c-1.611-1.009-3.43-1.818-5.041-2.423c-2.423-0.808-4.845,0.405-7.062,0.201
		c-2.224-0.605-4.241-1.613-6.258-2.622C528.394,218.837,529.405,217.826,530.821,217.019z"/>
	<path fill-rule="evenodd" clip-rule="evenodd" fill="#FFFFFF" d="M516.686,229.733c1.416-1.614,2.828-3.225,4.447-4.64
		c1.811,2.018,4.433,3.227,7.066,4.236c15.537,5.049,29.661,13.724,44.397,20.79c2.622,1.21,5.244,2.218,7.464,4.036
		c1.612,1.213,3.433,2.222,5.244,3.026c-0.199,1.008-0.399,2.017-0.804,3.23c-5.048-2.017-10.296-3.23-15.135-5.853
		c-10.495-5.449-21.194-10.897-32.091-15.946C530.615,234.982,523.549,232.76,516.686,229.733z"/>
	<path fill-rule="evenodd" clip-rule="evenodd" fill="#FFFFFF" d="M339.697,244.266c-0.199-5.653-0.199-11.707,1.009-17.358
		c0.204,11.909,1.21,24.219,6.258,35.318c3.227,8.275,7.468,16.35,12.107,24.017c-2.419,0.404-4.842,0.808-6.863,2.017
		c-3.227-5.65-5.244-11.906-7.667-17.96C341.719,262.024,340.502,253.146,339.697,244.266z"/>
	<path fill-rule="evenodd" clip-rule="evenodd" fill="#FFFFFF" d="M512.449,234.377c15.341,6.658,30.273,14.329,45.411,21.594
		c5.248,2.622,10.496,5.449,16.149,7.263c3.832,1.412,8.073,3.431,12.307,2.222c1.412-0.201,2.216-1.818,2.423-3.23
		c0.402-5.849,4.444-10.693,8.275-14.934c3.835-4.034,7.265-8.679,11.1-12.915c0.605,0.605,1.21,1.21,1.814,1.614
		c-4.639,5.248-9.079,10.493-12.915,16.145c-2.22,3.431-5.045,6.457-6.258,10.294c-0.605,3.026-0.203,6.052-0.203,8.878
		c-3.227-0.404-5.248-3.431-8.471-3.23c-3.636-0.201-6.664-2.423-9.894-3.631c-6.258-2.423-12.31-5.249-18.568-7.671
		c-5.244-2.218-10.09-5.449-15.537-7.466c-5.653-2.019-10.293-6.053-15.743-8.681C518.91,239.016,515.48,236.999,512.449,234.377z"
		/>
	<path fill-rule="evenodd" clip-rule="evenodd" fill="#FFFFFF" d="M602.261,251.328c2.821-3.227,5.045-6.863,7.471-10.494
		c0.8,0.404,1.811,0.809,2.622,1.21c-3.636,4.44-8.681,7.466-11.911,12.31c-1.21,1.617-2.22,3.23-3.43,4.645
		C597.821,255.971,600.24,253.749,602.261,251.328z"/>
	<path fill-rule="evenodd" clip-rule="evenodd" fill="#FFFFFF" d="M614.57,242.852c5.045,2.622,9.485,6.258,14.733,8.275
		c5.451,2.218,10.698,5.045,16.348,7.267c8.478,4.639,17.963,7.261,26.032,12.511c1.21,0.808,1.21,2.222,1.412,3.431
		c0.206,3.634,1.818,6.861,3.433,10.092c-3.433-1.412-6.465-3.026-9.485-5.248c-0.405-1.818,0.399-4.036-1.01-5.449
		c-6.863-6.258-15.341-9.889-23.609-13.925c-4.241-1.816-8.685-3.03-12.915-4.844c-5.653-2.222-11.712-4.034-16.352-7.87
		C611.746,245.678,613.962,244.061,614.57,242.852z"/>
	<path fill-rule="evenodd" clip-rule="evenodd" fill="#FFFFFF" d="M181.474,266.465c2.423-8.275,8.88-14.532,15.741-19.372
		c-0.805,4.84-2.421,9.483-3.026,14.528c-1.213,8.475-1.414,16.954-0.808,25.63c1.007,17.762,1.814,35.721,4.237,53.48
		c0.808,6.459,2.825,12.715,1.617,19.377c-2.223,14.528-5.249,28.861-8.074,43.389c-0.808,2.826-1.213,6.258-3.23,8.675
		c-1.814,1.412-4.034,2.827-6.457,2.226c-1.412-0.408-2.624-0.608-4.038-0.608c-1.814-6.861-1.814-14.124-2.22-21.19
		c-0.603-14.532,2.22-29.06,1.414-43.593c0.203-5.852,0.404-11.5,0.806-17.354c0.809-9.688-0.402-19.577,0.809-29.465
		c1.614-9.083-0.404-18.566,1.009-27.651C179.859,271.712,180.868,269.291,181.474,266.465z"/>
	<path fill-rule="evenodd" clip-rule="evenodd" fill="#FFFFFF" d="M602.865,261.42c0.808-2.017,2.017-3.835,3.028-5.651
		c7.87,3.23,15.54,6.861,23.211,10.897c7.062,3.23,14.323,6.256,21.389,9.887c8.275,3.431,15.743,8.275,24.221,11.307
		c5.041,1.812,9.279,5.244,13.114,8.878c1.011,1.21,0.804,3.027,1.011,4.641c-6.258-4.844-13.925-6.863-20.792-10.698
		c-8.474-3.83-16.746-7.665-25.224-11.501C629.104,274.135,616.385,267.069,602.865,261.42z"/>
	<path fill-rule="evenodd" clip-rule="evenodd" fill="#FFFFFF" d="M564.321,265.255c3.227,0.605,6.251,2.218,9.278,3.632
		c-10.492,4.239-16.141,14.932-25.829,20.18c0.402-3.835,2.423-7.265,5.244-9.887C557.458,275.144,561.09,270.3,564.321,265.255z"/>
	<path fill-rule="evenodd" clip-rule="evenodd" fill="#FFFFFF" d="M597.013,268.482c6.66,2.222,12.915,5.449,19.173,8.477
		c5.447,2.626,11.1,4.643,16.547,7.066c7.468,2.827,14.331,6.861,21.595,10.088c7.464,2.826,14.733,6.258,21.994,9.489
		c4.241,2.218,8.681,3.832,12.31,6.656c0.605,0.605,1.014,1.213,1.416,2.019c-7.866-3.431-14.935-8.476-23.207-10.897
		c-3.031-0.605-5.653-2.218-8.275-3.631c-2.622-1.414-5.849-1.614-8.478-2.827c-5.451-2.222-10.492-5.045-15.74-7.67
		c-4.44-2.423-9.286-4.236-13.523-7.062c-4.639-2.017-9.485-3.636-13.925-5.853c-3.227-1.414-6.255-3.835-9.688-4.44
		C597.013,269.491,597.013,268.887,597.013,268.482z"/>
	<path fill-rule="evenodd" clip-rule="evenodd" fill="#FFFFFF" d="M699.736,285.433c1.818-0.804,3.835-1.005,5.852-1.005
		c4.234,1.414,6.66,5.852,8.275,9.889c0.605,1.21-0.199,2.622-0.608,3.832c-1.007-4.036-2.622-8.071-5.849-10.897
		c-0.409,0.404-1.014,0.807-1.412,1.213c1.615,7.062,1.615,14.327-0.406,21.19c-1.818,0-4.237,0.404-4.838,2.622
		c-2.633,4.44-0.206,9.284,1.409,13.523c-0.808,0.605-1.818,0.81-2.423,1.614c-1.007,1.213-0.605,2.622-0.402,4.036
		c1.21-0.806,2.22-1.814,3.433-2.624c1.206-0.404,2.622-0.199,3.832-0.199c-0.207,2.423-0.207,4.84-0.811,7.466
		c-3.021-1.213-5.643-2.626-8.674-3.431c-2.622-7.265-2.224-15.137-2.829-22.602c-0.605-4.44-0.402-8.88,0-13.523
		c0.206-2.218,1.615-4.036,2.622-6.053C697.921,288.868,698.526,286.85,699.736,285.433z"/>
	<path fill-rule="evenodd" clip-rule="evenodd" fill="#FFFFFF" d="M459.374,294.316c0.405,0,1.011-0.204,1.412-0.204
		c0,2.826,0,6.461-2.622,8.275c-1.822,1.008-4.444,2.826-6.66,1.412c-1.615-1.008-3.633-1.613-4.241-3.63
		c-0.804-1.818,0.804-3.231,2.423-3.431c0.808,1.814,1.412,4.237,3.633,4.845c1.818,0.804,3.433-0.608,4.643-2.022
		C458.972,298.148,458.972,296.134,459.374,294.316z"/>
	<path fill-rule="evenodd" clip-rule="evenodd" fill="#FFFFFF" d="M716.08,296.334c2.829-2.421,7.066-1.213,10.702-1.412
		c1.21,2.622,2.419,5.248,3.426,7.87c-1.409-1.412-2.622-2.827-4.038-4.239c-0.402,0.205-1.007,0.608-1.608,1.009
		c0.199,5.048,1.003,10.293-0.206,15.341c-1.412,2.218-3.227,3.835-4.234,6.053c-1.818,3.23-2.22,6.861-2.423,10.494
		c0,2.222,1.21,4.239,1.818,6.457c-2.227,0.608-4.44,1.412-6.867,1.412c-1.409-1.412-3.227-3.227-2.829-5.648
		c-0.398-7.671,1.014-15.338,2.629-22.809C714.063,306.021,714.469,301.177,716.08,296.334z"/>
	<path fill-rule="evenodd" clip-rule="evenodd" fill="#FFFFFF" d="M452.109,296.738c1.612-0.603,3.23-1.009,4.842-1.212
		c-0.402,1.614-1.213,3.231-2.419,4.438C453.522,298.956,452.714,297.947,452.109,296.738z"/>
	<path fill-rule="evenodd" clip-rule="evenodd" fill="#FFFFFF" d="M752.213,303.601c2.213-1.414,4.437-2.827,6.856-4.04
		c2.024,2.222,4.44,4.44,5.451,7.267c0.808,4.034-0.406,7.87-1.213,11.705c-0.605-2.421-0.605-5.043-1.814-7.265
		c-0.808-1.414-2.825-1.21-3.836,0c-3.027,2.222-3.027,6.256-4.234,9.483C752.818,315.103,752.612,309.249,752.213,303.601z"/>
	<path fill-rule="evenodd" clip-rule="evenodd" fill="#FFFFFF" d="M743.731,302.387c2.021,0.199,3.835,1.613,5.649,2.826
		c-0.199,4.44-0.199,8.679-0.199,12.915c-0.405-4.037-1.21-7.872-2.622-11.707c-0.406,0.204-1.014,0.204-1.21,0.405
		c0.196,5.449-1.014,10.901-2.22,16.145c-0.409,1.414-0.409,3.231-1.822,4.037c-2.419,1.816-4.842,3.43-6.856,5.852
		c-1.416,1.818-2.227,4.034-2.829,6.258c-1.416,0.199-3.027,0.199-4.44,1.008c-1.21,0.603-1.21,2.216-1.619,3.43
		c3.031,0.81,6.258,1.614,9.083,2.827c-2.017,1.21-3.832,3.227-6.251,3.227c-2.227-1.412-4.646-3.026-6.258-5.244
		c-0.206-2.827,2.423-5.048,3.629-7.471c3.835-6.052,4.241-13.318,6.258-19.977c1.01-4.034,1.615-8.274,4.034-11.506
		C738.483,304.001,741.105,302.992,743.731,302.387z"/>
	<g>
		<path fill-rule="evenodd" clip-rule="evenodd" fill="#FFFFFF" d="M652.717,303.197c3.832-0.809,7.667,1.208,10.897,3.026
			c4.64,2.218,8.275,6.662,9.279,11.707c0.409,1.611,1.412,3.63,0.409,5.248c-0.605,1.21-1.619,2.622-1.209,4.034
			c0.399,1.614,2.419,1.614,3.831,1.414c1.007-0.81,1.612-2.017,2.416-3.23c2.021,0.808,4.042,1.614,6.059,2.421
			c0.405,2.622,0.199,5.65,2.017,7.872c1.615,1.613,4.237-0.404,6.059,1.008c3.227,2.017,7.055,3.23,9.887,6.054
			c5.65,4.44,8.073,11.506,10.492,17.963c0.811,2.222,0,6.256,3.433,6.457c0.399-2.423,0.605-4.64,0.808-7.062
			c0.399-1.412,1.011-3.026,2.423-3.431c3.831-1.412,8.069-1.008,12.107-0.404c2.829-1.009,5.248-3.026,8.072-4.239
			c2.622-1.009,5.244-2.218,8.073-3.631c1.412,1.412,2.825,2.421,4.237,3.631c-1.412,4.844-3.027,10.091-6.656,13.927
			c-2.629,2.823-5.049,6.054-7.471,9.079c-4.44,5.653-11.097,9.489-18.162,10.897c-3.636-1.613-6.863-5.449-11.1-4.838
			c-4.846,1.003-9.688,1.208-14.53,1.003c-1.213,0.205-2.626-0.4-3.633,0.608c-1.01,0.806-1.822,1.818-2.828,2.827
			c1.611,1.411,3.23,2.823,4.849,4.44c-3.238,0.605-4.849,3.631-6.664,5.849c-1.818,2.423-2.423,5.449-4.038,7.875
			c-6.255,9.079-14.124,16.75-21.389,25.226c-6.055,6.858-11.708,13.923-18.166,20.381c-4.034,3.835-7.671,8.074-11.705,11.906
			c-3.227,3.435-5.248,7.875-8.073,11.506c-2.622,3.631-5.447,6.861-7.87,10.494c-1.213,2.017,0.406,4.239,0.605,6.256
			c3.437-2.222,6.457-4.844,8.681-8.27c4.237-5.454,10.086-9.693,15.334-14.332c7.471-6.658,14.331-14.329,20.589-22.204
			c6.052-8.066,13.523-14.727,19.781-22.599c4.639-5.248,8.877-10.897,13.313-16.145c4.034-4.84,9.083-8.476,14.327-11.906
			c2.224-1.619,5.251-1.213,8.072-1.818c4.245-1.21,8.88,0.199,13.125-0.201c-3.636,8.88-7.671,17.76-12.111,26.436
			c-1.818,3.634-3.23,7.47-4.643,11.1c-2.419,4.645-5.856,8.88-8.072,13.724c-3.426,7.267-8.076,14.128-11.506,21.394
			c-2.213,4.64-5.244,9.079-8.272,13.116c-3.433,4.438-6.457,9.083-9.887,13.523c-3.636,4.44-6.464,9.483-10.698,13.319
			c-3.636,3.431-7.062,7.267-10.093,11.303c-3.227,4.64-8.674,7.062-13.32,10.088c-5.041,2.826-10.09,5.653-15.135,8.275
			c-3.227,1.213-6.457,2.222-9.891,2.826c-2.416,0.404-5.038,0.808-7.066-1.008c-5.244-5.249-7.866-12.312-10.492-19.173
			c2.021-1.414,4.44-1.818,6.866-1.21c5.653,1.409,10.691-1.617,15.537-4.242c2.22-1.21,5.244-2.823,5.447-5.849
			c-3.43,0.404-6.45,1.614-9.481,2.622c-7.468,2.017-15.138-0.4-21.795-3.633c2.018-8.878,9.079-14.935,13.918-22.199
			c3.636-5.248,6.461-10.901,11.104-15.137c5.049-4.645,10.09-9.284,14.53-14.531c4.038-4.641,8.88-8.88,12.712-13.925
			c4.845-6.457,10.097-12.511,14.736-18.972c4.241-5.648,8.275-11.502,12.516-17.154c5.244-6.255,8.275-13.925,11.904-21.19
			c0.605-1.21,1.615-2.624,0.405-4.036c-3.23-4.239-5.251-9.284-7.67-13.923c-1.818-3.835-2.829-8.076-3.43-12.312
			c-0.406-3.23-0.207-6.457-1.21-9.487c-1.619-5.246-4.846-9.485-7.471-14.329c-1.21-2.017-2.021-4.236-3.23-6.457
			c-3.227-5.045-7.059-9.889-11.502-14.128C649.686,305.413,651.301,303.396,652.717,303.197L652.717,303.197z M721.531,401.079
			c-7.062,5.648-12.107,13.116-16.547,20.786c-3.027,5.244-7.265,9.684-10.492,14.732c-3.433,5.244-6.055,11.097-9.489,16.545
			c-2.622,4.239-5.649,8.275-8.681,12.31c-3.021,4.241-5.646,9.079-8.674,13.52c-3.227,5.253-7.265,9.892-10.293,15.341
			c-1.011,1.818-2.017,3.633-3.227,5.244c-3.031,3.841-6.863,6.662-9.894,10.497c6.055-2.421,11.911-5.853,16.149-10.696
			c4.643-4.037,7.059-9.483,10.492-14.329c3.839-5.853,7.066-11.906,11.1-17.355c4.639-6.256,9.083-12.515,12.516-19.577
			c4.237-8.074,10.086-15.341,14.327-23.412c2.423-4.44,4.437-9.284,7.062-13.52C717.902,407.937,720.926,405.11,721.531,401.079z"
			/>
	</g>
	<path fill-rule="evenodd" clip-rule="evenodd" fill="#FFFFFF" d="M774.207,306.021c3.633,1.815,6.856,4.236,10.492,5.849
		c-0.399,1.418-0.808,2.827-1.21,4.04c-2.426-0.808-4.639-2.017-7.065-2.222c0,0.605,0,1.213,0,1.818
		c1.619,1.009,3.433,2.017,5.048,3.026c-0.409,0.605-1.206,1.818-1.615,2.423c-3.433-2.423-7.062-4.239-10.499-6.258
		C770.977,311.87,772.795,309.049,774.207,306.021z"/>
	<path fill-rule="evenodd" clip-rule="evenodd" fill="#FFFFFF" d="M677.738,311.066c2.622,0.804,5.045,1.818,7.468,3.026
		c-1.213,1.21-2.423,2.624-3.835,3.837C679.756,315.91,677.941,313.893,677.738,311.066z"/>
	<path fill-rule="evenodd" clip-rule="evenodd" fill="#FFFFFF" d="M654.734,318.333c1.412,2.418,3.227,4.844,4.234,7.667
		c0.406,1.617-0.804,3.23-2.216,4.034C655.741,326.203,655.132,322.168,654.734,318.333z"/>
	<path fill-rule="evenodd" clip-rule="evenodd" fill="#FFFFFF" d="M756.65,325.595c1.206,2.222,1.811,4.645,2.622,7.065
		c-2.825,1.614-6.055,1.414-8.88-0.203c0.808-2.019,1.21-4.236,3.23-5.449C754.426,326.608,755.838,326,756.65,325.595z"/>
	<path fill-rule="evenodd" clip-rule="evenodd" fill="#FFFFFF" d="M764.718,327.617c2.626,1.614,5.451,3.026,8.275,4.236
		c-1.21,2.622-2.419,5.043-3.836,7.466c-2.216-1.614-4.44-3.431-6.653-5.244C763.509,332.057,764.114,329.835,764.718,327.617z"/>
	<path fill-rule="evenodd" clip-rule="evenodd" fill="#FFFFFF" d="M663.408,328.421c2.224,3.028,3.835,6.662,5.248,10.094
		c0.605,3.63,0,7.466-0.608,11.097c-0.605-4.035-0.804-8.071-1.608-11.906C665.226,334.679,663.81,331.652,663.408,328.421z"/>
	<path fill-rule="evenodd" clip-rule="evenodd" fill="#FFFFFF" d="M422.644,336.293c0.608-1.614,1.612-3.028,2.626-4.44
		c0.804,3.231,1.608,6.256,3.024,9.284c1.412,2.827,1.01,6.256,0.605,9.284c-1.412,8.475-2.825,17.154-5.041,25.429
		c-0.409-9.083,0-18.164-0.206-27.247C423.252,344.367,422.238,340.331,422.644,336.293z"/>
	<path fill-rule="evenodd" clip-rule="evenodd" fill="#FFFFFF" d="M660.786,334.074c0.605,0.4,0.605,0.605,0,1.009
		C660.181,334.679,660.181,334.475,660.786,334.074z"/>
	<path fill-rule="evenodd" clip-rule="evenodd" fill="#FFFFFF" d="M776.224,337.506c0.199,0,1.01,0,1.213,0
		c-1.014,2.825-2.825,5.449-4.846,7.665C773.802,342.549,775.217,340.128,776.224,337.506z"/>
	<path fill-rule="evenodd" clip-rule="evenodd" fill="#FFFFFF" d="M650.895,339.927c3.028-1.412,6.863-2.626,9.891-0.608
		c2.223,0.809,1.814,3.431,2.223,5.248c-3.839-0.199-7.468-0.603-11.104-1.009C651.503,342.344,651.301,341.137,650.895,339.927z"/>
	<path fill-rule="evenodd" clip-rule="evenodd" fill="#FFFFFF" d="M241.414,339.319c0.605,0.404,1.211,0.608,1.816,1.012
		c-0.605,5.65-1.414,11.298-2.22,16.951c-0.404,2.423,0.201,5.045,1.21,7.267c0.607,1.812,3.029,2.218,4.442,1.008
		c1.007-1.008,1.007-2.622,1.21-3.634c0.806-4.44,1.011-8.88,1.615-13.116c1.211,1.412,2.624,3.026,2.423,5.043
		c0.402,5.449,1.815,10.897,0.201,16.147c-0.808,4.034-3.433,7.062-5.248,10.696c-2.017,4.236-2.421,9.079-2.827,13.72
		c-0.605,10.092-1.007,20.384-1.21,30.477c-4.036-3.634-8.072-7.466-12.111-11.102c-2.622-2.222-3.026-5.648-5.246-8.27
		c-0.404,0.4-1.008,0.804-1.615,1.208c0.203,4.036-0.199,8.272,0.809,12.312c2.22,9.079,4.844,18.162,7.466,27.042
		c-4.036,0.605-7.064,3.227-10.092,5.65c-5.043-6.255-3.835-14.732-3.428-21.996c0.402-5.248-1.416-10.296-3.433-14.937
		c-2.622,5.045-3.229,11.102-4.237,16.752c-1.01,9.887-1.816,19.98-2.423,30.073c-1.412,2.014-3.028,3.83-4.44,5.849
		c-1.615-3.835-2.017-7.871-2.622-11.703c-1.213,1.815-1.816,4.036-3.23,5.854c-3.028,3.631-3.43,8.471-3.633,13.114
		c-3.631-4.236-4.643-10.088-3.835-15.336c1.01-2.423-1.009-4.645-0.808-7.068c-0.402-7.67-0.201-15.335,1.213-22.803
		c1.815-3.43,5.447-5.248,8.074-7.665c-2.021,5.04-2.223,10.693-5.249,15.335c-1.211,2.218-1.818,5.045-0.806,7.463
		c0.603,2.022,2.421,4.04,4.842,3.435c1.615,0,1.816-2.017,2.421-3.23c0.808-3.831,1.01-7.667,1.818-11.297
		c1.412-6.867,4.842-13.119,6.457-19.986c1.411-7.06,9.284-10.693,9.89-18.159c4.033-1.412,7.868-3.23,12.105-4.44
		c2.423-0.808,4.643-3.435,4.239-6.057c-1.211-2.421-3.431-4.236-5.045-6.457c-2.624-3.835-5.047-7.67-7.669-11.301
		c-1.009-1.412-1.615-3.227-0.806-4.64c3.835-6.662,9.686-11.506,15.135-16.55C238.589,344.162,239.798,341.54,241.414,339.319z"/>
	<path fill-rule="evenodd" clip-rule="evenodd" fill="#FFFFFF" d="M749.58,339.523c5.049,2.421,10.293,4.034,15.341,6.053
		c0,0.808,0,2.216,0,3.026c-5.447-1.813-11.3-3.227-16.145-6.658C748.979,341.137,749.381,340.331,749.58,339.523z"/>
	<path fill-rule="evenodd" clip-rule="evenodd" fill="#FFFFFF" d="M780.266,339.319c1.412,1.012,2.825,2.423,4.034,3.835
		c-0.605,1.008-1.014,2.222-1.619,3.23c-1.619-0.605-3.227-1.412-4.64-2.017C778.647,342.75,779.455,340.935,780.266,339.319z"/>
	<path fill-rule="evenodd" clip-rule="evenodd" fill="#FFFFFF" d="M442.823,414.599c2.224-1.213,4.44,0.4,6.258,1.614
		c2.224,1.813,1.011,5.045,1.21,7.667c-0.605,4.438-4.241,7.873-8.674,8.679c1.811-1.614,4.234-2.823,5.447-5.045
		c1.615-2.421,2.419-5.449,1.815-8.275c-0.811-3.43-5.65-3.836-7.671-1.213c-2.622,2.222-3.629,5.854-3.227,9.085
		c-0.402,2.421,1.615,4.034,2.825,5.853c-1.615-0.605-4.44-0.804-4.44-3.227c-1.007-3.431,0.405-7.065,2.017-10.091
		C439.394,417.826,440.408,415.203,442.823,414.599z"/>
	<path fill-rule="evenodd" clip-rule="evenodd" fill="#FFFFFF" d="M440.408,429.531c-1.217-4.038,1.003-8.071,4.031-10.693
		c0.608,0.201,1.412,0.601,2.021,1.005c-0.203,2.423-0.409,4.844-1.818,6.861C443.635,428.118,442.016,428.927,440.408,429.531z"/>
	<path fill-rule="evenodd" clip-rule="evenodd" fill="#FFFFFF" d="M562.901,556.88c-6.653,2.821-22.197,16.142-60.745,4.44
		c-38.545-11.711-76.687,32.692-132.793,18.358c-56.104-14.124-80.93-33.295-80.93-33.295s-0.196-1.213-0.605-3.232
		c-1.003-7.665-2.222-15.336-2.825-23.003c-0.806-8.074-2.624-15.946-3.831-23.816c-1.21-10.693-4.036-21.391-2.017-32.292
		c4.438,9.284,8.071,18.972,12.713,28.256c4.236,8.275,7.667,16.954,12.306,25.025c1.014,1.21,1.414,2.827,2.827,3.432
		c1.414,0.804,3.835,0.199,4.241-1.818c-1.21-3.631-3.431-6.861-4.846-10.293c-9.483-19.777-15.537-40.763-24.417-60.747
		c-2.424-6.053-4.844-12.111-6.861-18.365c-1.213-4.038-5.048-6.861-5.248-11.301c-1.818-11.906-2.22-23.816-4.241-35.722
		c-2.22-14.934-3.229-30.07-4.237-45.002c-0.203-6.457-1.815-12.715-1.411-19.173c0.402-9.085-0.203-18.164,1.411-27.042
		c0.404-4.04,1.414-8.076,3.835-11.307c0.605,0.205,1.009,0.81,1.615,1.213c-0.404,6.258-0.806,12.511-1.213,18.767
		c-0.605,4.241,0.607,8.477,2.22,12.516c1.213-3.028,2.825-5.653,3.234-8.88c0.603-5.25,1.208-10.698,0.804-16.145
		c0-7.267,3.631-14.329,8.275-19.982c-0.806,6.662-1.008,13.32-2.423,19.982c-2.017,8.679-2.421,17.558-3.026,26.438
		c-1.008,19.573-0.81,38.948,0.605,58.322c0.608,13.322,4.236,26.239,7.665,39.153c2.426,7.671,4.241,15.741,7.066,23.412
		c0.605-5.853,1.01-11.707,0.809-17.559c4.236,8.474,9.281,16.75,14.729,24.621c4.643,5.048,8.478,10.696,13.324,15.54
		c2.825,2.622,4.64,6.255,7.671,8.679c0.804,0.605,1.813,1.21,2.821,0.806c1.818-0.605,2.423-2.827,1.614-4.241
		c-2.017-4.639-5.045-8.674-6.657-13.523c-1.414-4.44-4.036-8.27-6.053-12.505c-3.23-6.057-5.653-12.719-8.076-19.173
		c-7.47-21.195-14.327-42.585-17.958-64.787c-1.014-6.658-0.405-13.519,0.804-19.979c5.248,6.255,7.062,14.733,10.901,21.999
		c1.21,2.017,3.227,3.835,3.832,6.253c2.421,6.662,6.256,12.516,10.897,17.76c-2.017-9.485-7.263-17.96-9.485-27.444
		c-4.64-16.549-10.492-32.895-14.733-49.849c-2.622-12.312-4.838-24.621-5.043-37.337c0-6.256,1.812-12.509,6.052-17.355
		c4.44-5.248,10.294-9.284,16.147-13.119c2.017-0.603,2.626-3.631,1.009-4.844c-1.818-1.208-3.631-1.816-5.449-2.622
		c2.017-3.026,6.053-3.634,9.083-4.643c5.246-1.011,10.09-3.431,15.539-2.823c-2.827,8.475-7.263,16.346-13.119,23.408
		c-3.022,3.634-6.454,6.861-8.477,11.301c-1.412,3.835-2.017,7.872-1.816,12.111c0.203,11.503,2.017,22.804,3.43,34.309
		c0.81,5.248,0.81,10.697,1.619,16.145c1.412,8.275,2.017,16.75,5.043,24.821c2.423,10.294,3.835,20.991,8.076,30.879
		c2.216,5.043,4.236,10.492,6.452,15.541c4.241,8.88,7.875,18.164,13.119,26.434c5.249,8.076,10.294,16.15,17.154,22.809
		c3.636,3.43,6.664,7.265,10.499,10.292c-0.409-1.21-0.808-2.423-1.412-3.63c-3.227-6.457-6.863-12.716-10.499-18.773
		c-3.629-6.053-6.457-12.511-9.079-18.968c-2.423-6.662-5.248-13.32-8.074-19.98c-3.431-8.476-6.053-17.355-8.275-26.235
		c-3.627-11.306-7.866-22.604-10.494-34.309c-1.211-8.074-0.603-16.35-0.804-24.421c0.605-0.405,1.009-0.605,1.614-1.008
		c1.818,8.475,4.036,16.549,5.852,24.824c2.622,11.301,7.667,21.795,11.303,32.897c2.821,9.279,6.857,18.159,10.896,26.838
		c4.038,7.872,7.268,15.946,11.506,23.613c-0.409-6.863-3.839-12.915-6.461-19.173c-7.866-19.372-15.741-38.948-20.182-59.735
		c-1.412-7.671-2.017-15.741-3.631-23.613c-1.818-9.688-2.826-19.781-2.426-29.668c0-3.232,1.418-6.258,2.627-9.079
		c2.017,3.225,2.626,7.265,4.034,10.693c2.626,7.265,3.835,15.137,7.267,21.998c1.619,3.431,2.017,7.065,2.622,10.698
		c2.22,13.119,5.447,26.233,8.88,39.352c3.031,11.502,5.048,23.412,9.083,34.715c2.825,8.071,5.447,16.345,9.083,24.012
		c2.419,5.253,4.237,10.497,7.262,15.546c-0.601-6.256-2.419-12.315-3.629-18.367c-2.017-10.094-6.457-19.374-9.079-29.266
		c-1.619-4.639-1.014-9.887-1.619-14.733c-1.003-7.262-2.825-14.528-3.43-21.793c3.23-1.213,6.052-3.232,9.083-5.045
		c2.419,4.84,4.241,10.492,8.674,14.124c3.234,2.021,7.268-0.406,9.691-2.622c4.64-4.236,8.478-9.081,12.712-13.32
		c0.808,6.053,1.416,12.111,2.622,18.164c1.416,6.662,2.423,13.724,5.251,20.182c0.808,2.017,0.808,4.239,1.206,6.256
		c0.405,6.457,1.619,12.715,1.416,19.173c-4.846-6.861-7.265-14.932-11.503-21.999c-1.21-2.017-2.223-4.239-4.444-5.248
		c-1.814-1.21-4.639,0-4.842,2.018c-0.608,9.687,2.017,19.377,4.038,28.864c1.007,4.84,2.021,9.885,4.237,14.53
		c1.818,4.034,3.835,8.071,5.451,12.31c2.821,7.466,6.258,15.137,6.457,23.207c0.402,9.69,0.808,19.378,1.815,28.861
		c1.01,6.255,2.22,12.312,3.633,18.363c1.412-8.27,2.017-16.949,1.619-25.429c-0.605-7.261-1.213-14.732-1.412-22.198
		c0.399-5.853,1.003-11.906,1.206-17.963c0.206-5.852,0-11.906,1.619-17.556c0.804-7.062,0.605-14.124,1.608-21.19
		c1.213-8.275,2.223-16.75,3.636-25.025c2.224-10.293,1.815-20.989,3.836-31.281c0.804-8.477,1.01-16.951,2.22-25.431
		c0.807-5.648,2.419-10.897,3.43-16.545c0.409-2.222,2.626-3.835,4.643-5.249c2.622-1.612,5.248-3.634,7.667-5.648
		c5.653-3.031,12.31-3.031,18.169-5.653c7.062-2.622,13.519-6.662,20.379-9.889c2.224-1.412,3.433-3.835,5.251-5.652
		c2.01-2.218,4.234-4.036,6.048-6.255c3.839-4.438,5.856-10.092,8.88-14.935c1.615,1.213,2.828,2.827,4.237,4.643
		c-4.64,9.485-9.883,18.968-17.156,26.639c-4.64,2.218-10.488,3.431-13.114,8.275c3.835,0.81,8.076,0.201,11.705-1.213
		c2.423-1.008,5.251,0,7.67-1.208c3.028-2.423,5.856-5.045,9.083-7.468c4.437-3.03,7.066-7.87,11.3-11.1
		c-1.007,5.043-2.018,10.091-2.822,15.137c-0.608,3.835-3.839,7.466-2.223,11.502c1.21,3.026,3.227,5.449,4.237,8.478
		c2.017,4.236,2.825,8.88,3.027,13.519c-2.021-2.218-3.433-4.844-5.451-6.861c-1.003-1.009-2.622-1.818-4.034-1.009
		c-1.01,0.605-2.223,1.614-1.615,3.231c1.615,3.63,4.845,6.457,6.863,10.088c2.423,4.44,5.248,8.48,7.667,12.92
		c1.213,2.017,4.643,1.614,5.248-0.608c1.818-5.854,1.01-11.908,1.213-17.76c0.203-10.492-0.808-21.19,1.003-31.483
		c1.22-6.256,3.636-12.31,4.241-18.568c2.224,1.818,5.451,4.036,4.241,7.267c-2.017,9.889-4.44,19.776-4.034,29.869
		c-0.406,12.715-1.818,25.226-2.829,37.94c-3.031,0-5.852,0-8.88,0c-1.615-2.622-2.825-5.852-4.237-8.679
		c-1.615-3.431-4.437-6.053-7.265-8.475c-5.447-4.241-10.293-9.079-15.544-13.32c-4.838-3.631-7.667-9.083-12.107-13.119
		c-2.017-1.812-3.831-4.239-6.258-5.449c-4.035-0.603-7.866,0.405-11.499,1.619c-6.258,2.018-12.715,4.035-18.97,6.253
		c-3.23,1.213-6.055-3.227-9.083-1.414c-2.017,2.019-2.622,5.249-3.027,8.076c0,3.631-1.213,7.062-1.818,10.696
		c-1.615,7.062-1.412,14.329-2.825,21.391c-1.615,6.861-2.017,13.722-2.223,20.784c-0.399,12.715-1.21,25.431-2.014,38.144
		c-0.203,5.454-1.818,10.698-3.231,15.942c-1.814,8.074-0.807,16.349-1.412,24.625c0,6.659-1.01,13.52,0.406,20.182
		c1.213,6.053,0.804,12.105,1.007,18.162c0.207,6.258,1.619,12.312,3.836,17.96c1.409-7.87,0.605-15.941,2.22-23.812
		c1.01-4.44,0.807-9.287,2.017-13.728c1.01-3.426,2.017-7.261,4.038-10.289c3.426-1.816,7.265-2.827,9.684-6.057
		c4.241-4.236,4.444-10.693,3.43-16.341c-0.601-3.031-4.234-5.049-3.223-8.48c0.804-8.071,2.017-16.145,2.22-24.42
		c1.003-5.244,3.024-10.494,3.227-15.942c-0.808-0.199-1.619-0.404-2.423-0.404c-4.234,4.645-6.055,10.696-9.282,15.741
		c-3.632,6.057-5.244,13.119-8.073,19.377c0-3.636,0.402-7.062,1.007-10.698c1.217-6.861,1.01-14.128,1.615-20.989
		c0.207-4.641,0-9.284,1.619-13.52c1.814-4.444,2.821-8.883,3.832-13.525c2.22-9.687,6.258-18.972,10.897-27.647
		c2.825-3.026,6.052-5.653,9.688-7.671c-1.007,8.275-2.423,16.551-4.44,24.621c-1.213,5.248-3.23,10.293-4.034,15.542
		c-0.203,1.009,0.199,2.216,1.007,3.026c1.412,1.412,4.034,1.008,4.846-0.81c2.213-4.44,5.045-8.475,7.667-12.713
		c5.852-10.289,10.492-21.391,18.365-30.07c2.021-2.622,5.244-3.227,8.072-4.44c6.258,4.645,11.502,10.293,17.76,14.937
		c-2.021,4.236-5.248,7.466-7.265,11.701c-3.836,7.671-9.489,14.332-13.117,22.204c-4.241,8.674-7.87,17.554-12.719,26.034
		c-3.024,5.449-6.859,10.697-8.471,16.954c0.399,0.4,0.808,0.804,1.412,1.208c2.622-3.23,5.443-6.457,8.072-9.887
		c7.066-9.085,11.3-19.781,17.152-29.67c3.028-5.65,6.66-11.098,10.698-16.147c3.633-4.64,7.062-9.483,11.702-13.319
		c1.619,2.827,2.223,6.457,4.845,8.679c2.825,1.614,6.258,0.804,9.482,1.414c1.619,0,3.842,0.603,5.048-1.01
		c1.416-2.222,1.209-4.844,1.815-7.265c1.014-8.679,1.822-17.156,2.223-25.835c4.034-2.622,7.262-6.457,10.897-9.483
		c7.066-5.449,12.31-12.716,19.575-17.965c1.412-1.208,3.433-1.208,5.248-1.612c-1.615,5.043-2.419,10.293-4.639,15.336
		c-2.22,4.645-3.839,9.489-5.856,14.329c-6.052,14.532-9.286,29.869-15.334,44.198c-3.234,8.679-5.856,17.762-6.258,27.042
		c4.437-6.857,7.468-14.329,11.502-21.19c6.055-9.684,8.072-20.986,12.915-31.079c4.241-9.079,10.093-17.154,15.341-25.429
		c4.643-7.062,10.09-13.923,17.351-18.164c2.828,0.405,5.255,2.423,8.275,3.031c0.605,5.045,0.406,9.889,0,14.932
		c-1.003,6.658-4.034,13.119-5.038,19.982c-0.811,2.216,1.612,4.64,3.828,3.227c2.224-1.21,3.842-3.431,5.856-5.045
		c-2.22,5.648-5.251,10.697-8.272,15.741c-3.031,4.844-7.066,8.679-10.499,13.119c-1.21,1.21-1.21,3.426,0,4.639
		c1.209,1.213,3.027,0.605,4.639,0.406c4.241-1.818,8.076-4.641,11.912-7.468c4.034-3.03,8.88-5.449,11.104-10.293
		c1.811-2.626,2.821-6.662,6.45-7.466c0.811,5.449,3.23,11.702-0.203,16.546c-2.622,4.241-5.041,8.681-7.059,13.32
		c-1.615,3.431-4.444,6.258-6.258,9.688c-2.622,5.045-4.444,10.494-7.464,15.337c-4.846,8.275-8.076,17.759-13.726,25.835
		c-1.011,1.816-2.825,4.438-1.412,6.656c1.01,1.818,3.633,1.213,5.045,0.205c3.231-2.626,6.863-4.844,9.282-8.071
		c4.447-5.653,5.451-13.119,5.451-19.98c1.209-4.04,3.43-7.468,5.244-11.102c1.822,6.053,3.636,12.918,1.217,18.972
		c-1.014,2.218-0.608,4.639-0.811,6.863c-0.605,2.216-1.815,4.236-2.825,6.457c-1.815,4.844-2.22,10.088-3.227,15.335
		c-0.405,2.423-1.01,5.855,1.412,7.671c2.825,1.21,7.265,0,8.478-3.23c0.405-2.222-2.423-2.821-4.042-3.43
		c1.209-6.054,1.416-12.712,4.643-18.164c2.825,4.64,4.643,9.688,7.268,14.532c0.804,1.213,0.605,2.827-0.203,4.036
		c-2.622,4.239-5.653,8.275-8.073,12.515c-1.412,2.017,1.007,4.639,3.027,4.036c3.23-1.213,5.045-5.454,8.88-4.641
		c-1.213,2.417-3.23,4.235-5.045,6.253c-3.031,3.431-5.856,7.067-8.88,10.493c-1.416,1.414-2.626,3.031-4.643,3.431
		c-5.248,0.608-9.485,3.836-13.523,6.662c-6.863,5.853-15.135,9.684-23.004,13.923c-5.049,4.239-9.286,9.489-11.705,15.745
		c-1.619,4.036-3.636,8.067-4.646,12.507c1.01,0.409,1.818,0.409,3.027,0.813c2.22-5.452,5.856-10.293,9.083-15.341
		c3.23-4.844,7.262-9.284,12.31-12.511c3.835-2.222,7.671-4.639,11.303-7.267c3.836-2.421,7.265-6.053,11.908-7.466
		c-4.846,5.653-10.897,10.093-16.753,14.732c-5.447,4.44-9.485,10.492-12.915,16.75c-3.024,6.053-4.44,12.715-6.859,18.972
		c-2.22,4.84,0,10.09,1.213,14.934c2.018,8.071,4.64,16.145,8.674,23.408c-0.605,0.203-1.01,0.608-1.619,0.808
		c-2.216-1.614-4.842-3.026-6.45-5.449c-6.461-9.889-13.929-19.372-18.169-30.273c0.203-4.84,1.619-9.28,2.426-13.925
		c0.807-2.825,0.199-5.853,1.814-8.475c2.825-5.653,6.657-10.697,11.1-14.937c5.852-5.449,11.502-11.097,18.162-15.537
		c6.056-4.239,11.908-8.88,18.771-11.506c1.612-0.804,3.43-1.213,4.44-2.622c0.608-1.818,0-4.239-1.818-4.44
		c-2.423,0-4.643,1.008-6.863,1.818c-6.457,2.218-12.915,4.236-19.571,6.053c-2.427,0.404-5.049,1.009-7.671,1.009
		c1.612-4.239,4.237-8.071,6.859-11.707c2.829-3.43,6.457-6.457,8.475-10.492c1.213-3.031-0.199-6.258-2.419-8.477
		c-2.825-2.421-5.048-5.651-8.478-7.265c-3.43-1.614-4.035-5.854-6.052-8.676c-1.007-2.627,1.412-4.849,3.028-6.463
		c4.034-3.43,7.67-7.062,10.492-11.301c7.265-9.284,14.334-18.767,20.991-28.457c1.21-1.412,0.605-3.835-1.014-4.438
		c-1.608-0.605-3.021,0.199-4.23,1.208c-3.237,2.426-6.461,4.645-10.093,6.463c-4.846,2.622-9.489,5.244-14.733,7.062
		c1.003-4.645,1.814-9.69,3.43-14.329c1.416-2.827,3.227-5.653,3.835-8.88c1.815-7.47,4.636-14.732,7.667-21.998
		c1.619-4.645,4.44-9.284,4.846-14.329c0.199-5.653,2.825-11.102,1.612-16.75c0.815-2.627-2.216-3.431-4.234-3.231
		c-2.828-0.605-4.444,2.421-5.653,4.643c-4.44,9.485-6.461,20.181-8.478,30.47c-0.808,4.444-2.419,8.679-4.035,12.918
		c-2.828,6.662-4.436,13.52-5.041,20.786c0,4.645-2.828,8.679-3.636,13.32c-1.21,7.671-2.622,15.541-5.451,22.807
		c-3.23,11.097-7.671,21.59-12.513,32.087c-3.024,6.662-5.451,13.523-8.275,20.182c-2.821,5.651-6.258,11.301-7.468,17.557
		c-1.412,5.449-2.821,11.098-3.227,16.951c9.688-13.519,13.519-30.068,22.606-43.588c-1.014,13.519,1.615,27.242-1.014,40.761
		c-1.21,4.44-1.612,9.289-3.629,13.525c-1.615,3.435-3.234,6.662-4.846,9.887c-4.031,7.671-6.255,16.147-9.286,24.221
		c-2.622,7.062-4.035,14.528-3.021,22.198c0.199,1.614,1.608,3.835,3.426,2.823c1.818-0.4,2.22-2.417,2.021-3.831
		c-0.409-8.88,2.828-17.359,5.849-25.63c1.619,3.636,3.636,7.466,4.035,11.703c0.811,7.066,2.828,14.131,4.646,21.194
		C561.894,555.667,562.303,556.475,562.901,556.88z"/>
</g>
</svg>
