<?xml version="1.0" encoding="utf-8"?>
<!-- Generator: Adobe Illustrator 17.0.0, SVG Export Plug-In . SVG Version: 6.00 Build 0)  -->
<!DOCTYPE svg PUBLIC "-//W3C//DTD SVG 1.1//EN" "http://www.w3.org/Graphics/SVG/1.1/DTD/svg11.dtd">
<svg version="1.1" id="Layer_1" xmlns="http://www.w3.org/2000/svg" xmlns:xlink="http://www.w3.org/1999/xlink" x="0px" y="0px"
	 width="800px" height="600px" viewBox="0 0 800 600" enable-background="new 0 0 800 600" xml:space="preserve">
<g>
	<path fill="#231F20" d="M448.571,391.041c0-20.124-16.564-36.439-36.983-36.439c-20.432,0-36.996,16.314-36.996,36.439
		c0,14.826,9.01,27.567,21.921,33.251c-1.79,43.455-3.075,129.701,15.029,129.701c16.551,0,16.098-86.057,14.806-129.55
		C439.417,418.818,448.571,405.991,448.571,391.041z"/>
	<g>
		<path fill="#231F20" d="M582.829,226.646c0,99.545-80.693,180.244-180.244,180.244c-99.542,0-180.245-80.699-180.245-180.244
			c0-99.552,80.703-180.248,180.245-180.248C502.136,46.398,582.829,127.094,582.829,226.646z"/>
		<g>
			<g>
				<path fill="#231F20" d="M521.192,109.436c64.444,65.742,63.415,171.32-2.354,235.797
					c-65.749,64.464-171.326,63.408-235.784-2.341c-64.473-65.769-63.444-171.34,2.318-235.804
					C351.144,42.618,456.695,43.664,521.192,109.436z"/>
				<g>
					<path fill="none" d="M494.183,358.977c6.832-6.465,15.16-9.357,17.403-7.58c0.413,0.328,0.622,0.787,0.622,1.331
						c0.669-0.8,1.384-1.573,2.145-2.327c0.039-0.027,0.079-0.053,0.098-0.092c-0.524,0.019-0.977-0.105-1.344-0.4
						c-2.177-1.823,0.597-9.705,7.338-16.393c6.741-6.682,14.242-8.97,15.573-6.275c0.066,0.132,0.105,0.263,0.138,0.414
						c0.466-0.63,0.925-1.246,1.384-1.863c0-0.019-0.013-0.039-0.026-0.052c-1.285-2.748,1.973-11.397,8.387-18.065
						c1.941-2.02,3.888-3.547,5.698-4.623c0.388-0.767,0.767-1.541,1.148-2.315c-4.288,2.59-8.249,2.616-10.406-0.905
						c-3.062-5.022-0.833-15.803,5.725-23.029c5.836-6.406,12.183-7.632,15.364-3.829c0.347-1.246,0.682-2.472,1.023-3.718
						c-1.128-6.079,0.013-14.728,3.403-20.59c0.243-0.407,0.473-0.78,0.722-1.128c0.229-1.914,0.432-3.81,0.603-5.724
						c-2.262-0.099-4.544-1.679-6.406-4.971c-3.974-6.996-3.908-18.996,0.072-25.711c1.679-2.852,3.692-4.314,5.705-4.511
						c-0.111-1.01-0.256-2.039-0.393-3.049c-3.41,2.708-8.354,1.207-12.105-4.872c-4.734-7.639-6.905-18.826-3.429-24.511
						c1.771-2.852,4.571-3.908,7.462-3.318c-0.472-1.305-0.964-2.597-1.456-3.882c-3.108,2.925-9.868,1.299-15.639-5.062
						c-6.57-7.265-8.918-17.344-6.124-21.429c1.764-2.597,4.964-2.38,8.597-0.197c-0.675-1.115-1.37-2.21-2.072-3.318
						c-2.006,2.459-9.095,0.171-15.357-6.387c-6.629-6.931-9.265-15.344-6.99-17.612c0.76-0.767,1.875-0.807,3.265-0.322
						c-0.715-0.741-1.41-1.489-2.131-2.229c-2.826-1.299-6.911-4.026-10.78-7.928c-2.249-2.243-4.006-4.498-5.291-6.485
						c-1.889-1.482-3.797-2.918-5.738-4.315c-0.085,0.066-0.197,0.151-0.302,0.21c-3.042,1.554-11.979-1.571-18.734-8.029
						c-2.354-2.253-4.033-4.531-5.095-6.617c-2.17-1.059-4.341-2.062-6.544-3.02c-5.022,1.692-14.616-1.62-21.718-5.973
						c-1.39-0.856-2.564-1.761-3.482-2.676c-4.039-1.026-8.105-1.908-12.196-2.629c-6.328,1.584-15.311,0.777-21.206-2.37
						c-1.227-0.059-2.453-0.102-3.692-0.131c0.622,0.259,1.233,0.544,1.803,0.855c6.964,3.892,7.449,10.741,0.118,15.439
						c-7.318,4.698-19.665,4.649-26.543,0.052c-6.885-4.587-5.81-11.186,1.416-15.183c0.131-0.075,0.282-0.138,0.42-0.216
						c-2.255,0.249-4.518,0.551-6.767,0.904c0.059,2.646-1.961,5.702-6.177,8.236c-7.541,4.547-18.472,6.807-23.862,3.813
						c-1.62-0.895-2.577-2.112-2.981-3.502c-8.799,3.282-17.399,7.324-25.658,12.151c0.122,2.797-2.325,7.675-7.18,12.298
						c-6.829,6.465-15.17,9.351-17.403,7.587c-0.433-0.341-0.626-0.78-0.626-1.338c-0.672,0.786-1.383,1.567-2.161,2.315
						c-0.019,0.033-0.058,0.066-0.085,0.098c0.534-0.019,0.98,0.105,1.347,0.407c2.18,1.816-0.606,9.705-7.324,16.386
						c-6.731,6.688-14.255,8.977-15.593,6.282c-0.066-0.132-0.089-0.269-0.132-0.414c-0.472,0.616-0.934,1.24-1.39,1.856
						c0.01,0.026,0.023,0.04,0.033,0.059c1.289,2.754-1.98,11.397-8.387,18.065c-1.94,2.006-3.894,3.547-5.707,4.623
						c-0.581,1.128-1.131,2.262-1.676,3.403c4.623-3.088,9.013-3.298,11.354,0.505c3.15,5.069,0.941,15.908-5.61,23.147
						c-6.128,6.741-12.875,7.757-15.944,3.226c-0.302,1.016-0.574,2.039-0.836,3.062c1.587,6.138,0.544,15.646-3.095,21.914
						c-0.439,0.761-0.901,1.423-1.364,2.026c-0.177,1.614-0.357,3.22-0.488,4.839c2.466-0.164,4.99,1.456,7.029,5.01
						c4.02,7.049,3.964,19.049-0.03,25.77c-1.803,3.036-3.997,4.485-6.173,4.505c0.141,1.115,0.305,2.223,0.472,3.338
						c3.42-3.101,8.63-1.685,12.541,4.616c4.771,7.665,7.128,18.787,3.646,24.452c-1.856,2.983-4.902,3.987-7.99,3.213
						c0.528,1.449,1.076,2.885,1.63,4.315c2.957-3.383,10.039-1.856,16.022,4.741c6.594,7.278,8.941,17.337,6.122,21.396
						c-1.856,2.689-5.266,2.295-9.089-0.132c1.338,2.164,2.728,4.322,4.174,6.433c0.026-0.073,0.052-0.164,0.092-0.243
						c1.59-3.036,9.222-0.793,15.891,6.138c6.649,6.918,9.222,15.226,6.839,17.396c-0.804,0.735-1.981,0.735-3.423,0.19
						c0.767,0.774,1.554,1.56,2.321,2.308c2.862,1.383,6.938,4.111,10.737,7.934c1.748,1.731,3.174,3.462,4.325,5.049
						c1.58,1.207,3.161,2.386,4.77,3.514c0.049-0.026,0.085-0.066,0.144-0.098c3.079-1.515,12.036,1.599,18.799,8.059
						c2.128,2.045,3.731,4.124,4.796,6.059c2.439,1.174,4.931,2.302,7.44,3.357c5.19-1.259,14.383,1.771,21.17,5.921
						c1.16,0.715,2.137,1.436,2.964,2.197c4.531,1.141,9.108,2.078,13.704,2.833c5.875-1.174,13.6-0.492,19.141,2.045
						c1.193,0.059,2.4,0.099,3.6,0.132c-0.223-0.111-0.459-0.21-0.682-0.348c-6.938-3.836-7.39-10.636-0.066-15.285
						c7.331-4.675,19.639-4.629,26.491-0.105c6.57,4.348,5.803,10.538-0.662,14.531c1.842-0.223,3.692-0.472,5.541-0.767
						c0.216-2.485,2.243-5.266,6.144-7.613c7.554-4.518,18.413-6.832,23.757-3.901c1.377,0.747,2.282,1.757,2.754,2.905
						c8.629-3.246,17.048-7.232,25.16-11.96C486.884,368.465,489.317,363.593,494.183,358.977z M298.424,307.837
						c-7.381-7.724-9.227-18.721-3.482-25.245c5.728-6.518,17.105-5.574,24.957,2.695c7.859,8.262,8.826,20.281,2.633,26.268
						C316.332,317.528,305.801,315.562,298.424,307.837z M333.908,324.794c7.853,7.711,8.748,18.255,2.77,22.95
						c-6.013,4.695-16.078,2.066-23.31-5.088c-7.226-7.16-9.429-16.623-4.027-21.855
						C314.712,315.548,326.059,317.076,333.908,324.794z M511.159,150.038c7.338,7.738,9.154,18.799,3.475,25.39
						c-5.678,6.59-16.944,5.705-24.734-2.577c-7.79-8.288-8.78-20.373-2.643-26.433
						C493.396,140.373,503.828,142.307,511.159,150.038z M475.908,133.094c-7.849-7.771-8.813-18.432-2.892-23.18
						c5.922-4.754,15.914-2.131,23.14,5.076c7.213,7.187,9.462,16.74,4.144,22.052C495.002,142.366,483.744,140.865,475.908,133.094
						z M458.931,204.482c8.17,8.55,8.111,22.091-0.184,30.452c-8.275,8.373-21.849,8.399-30.202-0.191
						c-8.393-8.596-8.249-22.497,0.236-30.832C437.266,195.572,450.748,195.932,458.931,204.482z M416.795,189.119
						c-8.433-8.498-8.262-21.861,0.091-29.691c8.348-7.816,21.606-7.377,29.901,0.866c8.301,8.235,8.603,21.337,0.393,29.435
						C438.964,197.827,425.221,197.617,416.795,189.119z M414.519,221.84c-8.616,8.446-22.517,8.308-30.93-0.302
						c-8.419-8.616-8.184-22.353,0.413-30.714c8.603-8.347,22.314-8.242,30.759,0.263
						C423.194,199.598,423.142,213.374,414.519,221.84z M426.48,236.751c8.38,8.59,8.104,22.268-0.459,30.602
						c-8.59,8.334-22.282,8.256-30.694-0.203c-8.426-8.478-8.367-22.229,0.256-30.681
						C404.198,228.023,418.099,228.161,426.48,236.751z M381.3,254.376c-8.505,8.315-22.019,7.953-30.248-0.597
						c-8.236-8.544-8.206-22.104,0.124-30.498c8.334-8.367,21.947-8.348,30.36,0.263C389.936,232.167,389.818,246.055,381.3,254.376
						z M393.287,269.117c8.419,8.452,8.223,21.718-0.138,29.507c-8.354,7.784-21.606,7.364-29.914-0.813
						c-8.301-8.17-8.603-21.239-0.367-29.291C371.104,260.448,384.868,260.665,393.287,269.117z M406.192,279.392
						c8.55-8.158,22.307-8.112,30.399,0.013c8.072,8.111,7.482,20.944-0.97,28.773c-8.439,7.829-21.613,7.953-29.789,0.177
						C397.661,300.565,397.654,287.549,406.192,279.392z M449.816,291.267c8.426-8.111,21.679-8.131,28.262-1.213
						c6.596,6.938,5.023,18.465-3.003,26.177c-8.033,7.718-19.842,9.055-26.891,2.537
						C441.128,312.243,441.377,299.404,449.816,291.267z M438.623,277.438c-8.072-8.131-7.855-21.796,0.663-30.222
						c8.531-8.433,21.927-8.302,29.737,0.006c7.81,8.302,7.298,21.495-0.97,29.744C459.771,285.235,446.682,285.569,438.623,277.438
						z M481.731,259.425c8.026-8.288,20.32-8.209,26.537-0.806c6.223,7.423,4.787,19.37-2.846,27.297
						c-7.626,7.914-18.845,9.167-25.403,2.216C473.442,281.162,473.711,267.72,481.731,259.425z M470.964,245.222
						c-7.784-8.308-7.633-22.052,0.354-30.248c8-8.196,20.459-7.724,27.842,0.583c7.377,8.321,7.206,21.331-0.367,29.514
						C491.206,253.248,478.773,253.517,470.964,245.222z M460.865,202.529c-8.164-8.544-8.223-22.039-0.38-29.744
						c7.849-7.718,20.039-6.603,27.842,1.718c7.816,8.308,8.544,20.931,1.069,28.845
						C481.894,211.263,469.023,211.073,460.865,202.529z M500.891,213.656c-7.338-8.308-7.364-21.711-0.944-28.786
						c6.426-7.068,17.068-5.816,24.091,2.138c7.009,7.953,7.927,19.96,1.718,27.475C519.559,222.01,508.241,221.977,500.891,213.656
						z M476.885,160.378c-6.734,6.702-19.921,6.315-28.196-1.902c-8.288-8.216-8.341-20.792-1.148-27.087
						c7.193-6.282,18.983-4.702,26.845,3.101C482.262,142.287,483.632,153.703,476.885,160.378z M433.259,145.789
						c-8.045,7.397-21.652,7.141-29.842-0.649c-8.197-7.784-7.823-19.75,0.289-26.662c8.091-6.918,20.714-6.38,28.806,0.97
						C440.584,126.806,441.299,138.392,433.259,145.789z M389.949,133.783c-8.341,7.469-21.92,7.324-29.042,0.787
						c-7.101-6.544-5.869-17.377,2.164-24.478c8-7.115,20.118-8.006,27.665-1.692C398.277,114.715,398.309,126.328,389.949,133.783z
						 M401.424,146.982c8.19,7.816,8.21,20.845-0.334,29.016c-8.538,8.17-22.327,8.111-30.425-0.026
						c-8.118-8.144-7.522-21.016,0.918-28.858C380.035,139.271,393.228,139.166,401.424,146.982z M357.386,164.051
						c-8.446,8.137-21.793,8.059-28.422,1.095c-6.639-6.957-5.078-18.537,2.967-26.275c8.045-7.737,19.901-9.049,26.996-2.478
						C366.002,142.956,365.826,155.913,357.386,164.051z M368.612,177.939c8.092,8.157,7.888,21.822-0.636,30.261
						c-8.538,8.44-21.954,8.295-29.79-0.026c-7.842-8.315-7.331-21.534,0.948-29.809
						C347.413,170.11,360.534,169.782,368.612,177.939z M325.423,195.932c-8.036,8.301-20.432,8.164-26.705,0.721
						c-6.265-7.449-4.852-19.455,2.787-27.389c7.645-7.928,18.911-9.167,25.514-2.177S333.449,187.63,325.423,195.932z
						 M336.233,210.168c7.82,8.327,7.679,22.091-0.338,30.275c-7.99,8.196-20.488,7.724-27.9-0.604
						c-7.413-8.334-7.262-21.35,0.34-29.54C315.918,202.102,328.417,201.84,336.233,210.168z M349.104,255.733
						c8.21,8.538,8.282,21.986,0.4,29.672c-7.885,7.665-20.147,6.551-28.019-1.751c-7.878-8.301-8.646-20.891-1.111-28.799
						C327.918,246.96,340.888,247.183,349.104,255.733z M306.247,241.74c7.371,8.321,7.413,21.731,0.977,28.786
						c-6.443,7.056-17.114,5.777-24.156-2.184c-7.04-7.96-7.994-19.979-1.79-27.474C287.5,233.36,298.86,233.413,306.247,241.74z
						 M333.007,297.719c6.79-6.629,20.032-6.255,28.327,1.896c8.295,8.15,8.334,20.609,1.069,26.852
						c-7.259,6.243-19.065,4.702-26.957-3.049C327.557,315.68,326.21,304.362,333.007,297.719z M374.009,309.549
						c8.052-7.377,21.645-7.128,29.822,0.622c8.184,7.764,7.79,19.692-0.301,26.576c-8.111,6.892-20.721,6.38-28.786-0.931
						C366.665,328.493,365.976,316.939,374.009,309.549z M417.267,321.483c8.341-7.442,21.849-7.403,28.917-0.892
						c7.095,6.504,5.816,17.285-2.163,24.367c-8.006,7.101-20.058,8.033-27.58,1.771
						C408.906,340.466,408.926,328.938,417.267,321.483z M458.301,329.253c8.092-7.488,19.855-8.714,25.54-3.252
						c5.705,5.462,3.561,15.002-3.927,22.019c-7.475,7.029-18.013,9.239-24.308,4.262
						C449.318,347.305,450.197,336.754,458.301,329.253z M507.861,347.252c-6.747,6.557-15.088,9.889-19.606,6.387
						c-4.512-3.502-2.813-12.944,4.688-20.183c7.501-7.246,17.403-9.003,21.173-4.82
						C517.887,332.807,514.621,340.695,507.861,347.252z M485.704,324.204c-5.646-5.495-4.289-16.905,3.633-24.806
						c7.895-7.914,18.918-8.845,24.019-2.78c5.095,6.085,2.656,16.327-4.702,23.639
						C501.317,327.574,491.357,329.698,485.704,324.204z M540.752,301.496c3.095,4.964-0.551,13.541-7.101,20.197
						c-6.563,6.655-14.111,9.494-17.836,5.265c-3.731-4.236-1.58-14.452,5.607-21.849
						C528.608,297.719,537.644,296.533,540.752,301.496z M540.771,267.287c4.669,6.695,2.347,17.35-4.537,24.655
						c-6.885,7.291-16.059,8.97-21.108,2.846c-5.055-6.111-3.626-18.131,3.646-26.012
						C526.051,260.894,536.083,260.579,540.771,267.287z M510.038,256.698c-6.21-7.456-6.065-20.859,1.023-28.826
						c7.089-7.96,17.784-7.534,23.678,0.249c5.895,7.784,5.429,19.875-1.357,27.553C526.601,263.36,516.241,264.133,510.038,256.698
						z M561.722,238.56c4.006,7.003,3.239,18-1.397,25.422c-4.622,7.43-13.311,8.25-17.96,1.528
						c-4.662-6.741-3.443-18.937,2.046-26.557C549.918,231.341,557.702,231.564,561.722,238.56z M555.027,200.293
						c4.773,7.659,4.996,19.068,0.249,26.301c-4.754,7.246-13.292,7.495-19.108-0.289c-5.816-7.796-6.341-20.419-0.905-27.435
						C540.68,191.84,550.24,192.64,555.027,200.293z M542.129,163.211c6.603,7.312,8.911,17.751,4.426,24.183
						c-4.485,6.439-14.209,5.914-21.2-2.006c-6.997-7.921-8.308-19.757-3.449-25.593
						C526.779,153.966,535.512,155.907,542.129,163.211z M533.191,152.655c-3.842,5.127-13.514,3.744-20.813-3.954
						c-7.291-7.685-8.963-18.216-4.505-22.629c4.466-4.426,12.741-1.548,19.423,5.442
						C533.971,138.491,537.041,147.533,533.191,152.655z M492.589,95.331c4.131-2.721,11.777,1.207,18.189,7.633
						c6.394,6.433,9.79,13.567,6.433,17.009c-3.371,3.443-12.748,1.186-19.928-5.974C490.098,106.839,488.451,98.046,492.589,95.331
						z M458.275,78.034c5.771-3.351,15.16-0.073,21.973,6.436c6.8,6.501,9.042,14.166,3.954,18.009
						c-5.095,3.836-16.078,1.823-23.573-5.167C453.141,90.328,452.511,81.391,458.275,78.034z M421.529,67.309
						c6.806-3.829,17.606-2.856,25.029,1.722c7.403,4.577,8.262,13.488,1.797,17.875c-6.479,4.387-18.354,2.642-26.006-2.751
						C414.676,78.748,414.723,71.122,421.529,67.309z M433.207,94.879c7.154-5.288,18.406-3.489,25.94,3.534
						c7.528,7.01,8.905,16.833,2.288,22.452c-6.616,5.619-19.101,4.452-27.153-2.879C426.217,110.649,426.08,100.177,433.207,94.879
						z M393.346,85.083c7.724-5.321,19.586-5.184,27.252,0.291c7.672,5.466,8.045,15.793,0.453,21.865
						c-7.607,6.065-20.819,5.869-28.399-0.439C385.077,100.492,385.622,90.401,393.346,85.083z M355.695,80.82
						c7.337-6.4,18.38-7.485,25.251-2.826c6.866,4.646,6.655,13.718-1.2,20.367c-7.855,6.649-20.111,7.672-26.491,2.656
						C346.882,95.994,348.37,87.227,355.695,80.82z M324.98,82.548c6.774-6.265,15.793-9.714,21.141-6.688
						c5.351,3.017,4.393,11.616-3.098,18.397c-7.512,6.774-18.157,8.78-22.793,5.239C315.604,95.961,318.207,88.811,324.98,82.548z
						 M351.399,102.682c6.341,5.036,5.475,15.632-2.629,23.14c-8.127,7.521-19.957,8.721-25.701,3.193
						c-5.728-5.508-3.639-15.134,3.885-22.17C334.463,99.816,345.059,97.639,351.399,102.682z M298.729,107.41
						c6.783-6.577,15.202-9.862,19.786-6.295c4.577,3.58,2.914,13.095-4.623,20.347c-7.518,7.266-17.488,9.016-21.334,4.761
						C288.706,121.973,291.939,114,298.729,107.41z M321.203,130.819c5.708,5.554,4.381,17.009-3.563,24.937
						c-7.928,7.934-18.989,8.846-24.15,2.721c-5.151-6.13-2.757-16.445,4.626-23.782
						C305.489,127.357,315.512,125.265,321.203,130.819z M265.828,153.468c-3.167-5.036,0.413-13.698,7-20.387
						c6.59-6.675,14.229-9.475,18.025-5.18c3.803,4.308,1.689,14.59-5.521,22.006C278.11,157.329,269.018,158.497,265.828,153.468z
						 M266.031,187.912c-4.737-6.754-2.465-17.475,4.433-24.799c6.892-7.324,16.144-8.971,21.258-2.793
						c5.111,6.163,3.698,18.222-3.59,26.13C280.844,194.352,270.756,194.647,266.031,187.912z M296.948,198.594
						c6.256,7.469,6.187,20.93-0.915,28.904c-7.121,7.968-17.868,7.528-23.813-0.288c-5.94-7.81-5.498-19.928,1.299-27.632
						C280.303,191.873,290.693,191.112,296.948,198.594z M244.983,216.666c-4.078-7.043-3.334-18.072,1.321-25.521
						c4.648-7.442,13.4-8.236,18.117-1.456c4.718,6.78,3.57,19.009-1.973,26.635C256.907,223.951,249.042,223.689,244.983,216.666z
						 M251.783,255.019c-4.813-7.686-5.056-19.108-0.275-26.341c4.787-7.226,13.403-7.455,19.258,0.348
						c5.866,7.816,6.469,20.432,1.017,27.428C266.343,263.458,256.605,262.704,251.783,255.019z M264.923,292.054
						c-6.619-7.311-8.951-17.744-4.456-24.17c4.492-6.406,14.252-5.842,21.285,2.072c7.009,7.927,8.327,19.757,3.443,25.56
						C280.313,301.319,271.552,299.371,264.923,292.054z M276.149,305.05c3.921-5.029,13.698-3.567,21.032,4.112
						c7.35,7.678,8.977,18.117,4.426,22.452c-4.538,4.322-12.918,1.39-19.619-5.58C275.277,319.057,272.225,310.08,276.149,305.05z
						 M316.745,362.045c-4.226,2.636-11.97-1.324-18.367-7.73c-6.419-6.406-9.737-13.449-6.272-16.8
						c3.456-3.338,12.922-1.017,20.111,6.098C319.4,350.741,320.978,359.416,316.745,362.045z M348.822,377.107
						c-5.787,3.338-15.19,0.059-21.99-6.42c-6.809-6.492-9.022-14.117-3.905-17.94c5.111-3.817,16.114-1.804,23.599,5.16
						C354.009,364.865,354.612,373.77,348.822,377.107z M385.602,387.566c-6.806,3.796-17.6,2.846-25.003-1.698
						c-7.403-4.551-8.301-13.22-1.81-17.6c6.492-4.374,18.413-2.774,26.052,2.57C392.487,376.216,392.415,383.776,385.602,387.566z
						 M373.976,360.302c-7.154,5.291-18.432,3.508-25.96-3.482c-7.514-6.99-8.872-16.799-2.236-22.393
						c6.629-5.599,19.141-4.446,27.173,2.853C381.005,344.577,381.123,355.016,373.976,360.302z M413.785,369.914
						c-7.711,5.292-19.553,5.161-27.186-0.269c-7.659-5.429-8.039-15.619-0.433-21.685c7.62-6.059,20.8-5.895,28.354,0.367
						C422.066,354.583,421.502,364.636,413.785,369.914z M451.272,373.98c-7.305,6.393-18.314,7.514-25.14,2.944
						c-6.826-4.596-6.61-13.599,1.246-20.248c7.836-6.636,20.052-7.692,26.38-2.734C460.085,358.891,458.557,367.6,451.272,373.98z
						 M481.717,372.019c-6.741,6.243-15.665,9.757-20.95,6.819c-5.305-2.95-4.334-11.488,3.141-18.242
						c7.488-6.767,18.065-8.799,22.642-5.337C491.108,358.708,488.471,365.783,481.717,372.019z"/>
					<path fill="#FFFFFF" d="M291.798,103.882c0.778-0.747,1.489-1.528,2.161-2.315c0-0.171,0.023-0.355,0.059-0.551
						c-1.223,1.056-2.41,2.145-3.617,3.226c0.473-0.171,0.915-0.263,1.312-0.263C291.739,103.948,291.778,103.915,291.798,103.882z"
						/>
					<path fill="#FFFFFF" d="M260.267,146.622c6.407-6.668,9.676-15.311,8.387-18.065c-0.01-0.019-0.023-0.033-0.033-0.059
						c-5.347,7.279-10.036,14.885-14.062,22.747C256.373,150.169,258.327,148.628,260.267,146.622z"/>
					<path fill="#FFFFFF" d="M285.736,120.773c6.718-6.682,9.504-14.57,7.324-16.386c-0.367-0.301-0.813-0.426-1.347-0.407
						c-1.955,1.902-4.017,3.423-5.852,4.59c-5.79,5.711-11.069,11.757-15.849,18.072c0.043,0.144,0.066,0.282,0.132,0.414
						C271.481,129.75,279.005,127.462,285.736,120.773z"/>
					<path fill="#FFFFFF" d="M290.401,104.243c-1.367,1.259-2.724,2.531-4.052,3.843c-0.174,0.164-0.324,0.321-0.488,0.485
						c1.836-1.167,3.898-2.689,5.852-4.59C291.316,103.98,290.874,104.072,290.401,104.243z"/>
					<path fill="#FFFFFF" d="M290.401,104.243c-1.367,1.259-2.724,2.531-4.052,3.843c-0.174,0.164-0.324,0.321-0.488,0.485
						c1.836-1.167,3.898-2.689,5.852-4.59C291.316,103.98,290.874,104.072,290.401,104.243z"/>
					<path fill="#FFFFFF" d="M294.585,102.905c2.233,1.764,10.573-1.121,17.403-7.587c4.855-4.623,7.301-9.501,7.18-12.298
						c-8.317,4.845-16.294,10.462-23.848,16.881c-0.426,0.551-0.889,1.109-1.361,1.666
						C293.958,102.125,294.152,102.564,294.585,102.905z"/>
					<path fill="#FFFFFF" d="M295.319,99.902c-0.433,0.367-0.876,0.754-1.302,1.115c-0.036,0.197-0.059,0.381-0.059,0.551
						C294.43,101.01,294.893,100.452,295.319,99.902z"/>
					<path fill="#FFFFFF" d="M295.319,99.902c-0.433,0.367-0.876,0.754-1.302,1.115c-0.036,0.197-0.059,0.381-0.059,0.551
						C294.43,101.01,294.893,100.452,295.319,99.902z"/>
					<path fill="#FFFFFF" d="M241.848,184.588c-2.075,7.876-3.564,15.882-4.459,23.94c0.463-0.603,0.925-1.265,1.364-2.026
						C242.392,200.233,243.435,190.726,241.848,184.588z"/>
					<path fill="#FFFFFF" d="M258.628,178.3c6.551-7.239,8.76-18.078,5.61-23.147c-2.341-3.803-6.731-3.593-11.354-0.505
						c-4.203,8.708-7.616,17.705-10.199,26.878C245.753,186.057,252.5,185.04,258.628,178.3z"/>
					<path fill="#FFFFFF" d="M285.333,149.907c7.209-7.416,9.324-17.698,5.521-22.006c-3.796-4.295-11.436-1.495-18.025,5.18
						c-6.587,6.688-10.167,15.351-7,20.387C269.018,158.497,278.11,157.329,285.333,149.907z"/>
					<path fill="#FFFFFF" d="M313.893,121.461c7.537-7.252,9.2-16.766,4.623-20.347c-4.584-3.567-13.003-0.282-19.786,6.295
						c-6.79,6.59-10.023,14.563-6.171,18.812C296.404,130.478,306.374,128.727,313.893,121.461z"/>
					<path fill="#FFFFFF" d="M343.023,94.256c7.491-6.78,8.449-15.38,3.098-18.397c-5.348-3.026-14.367,0.423-21.141,6.688
						c-6.773,6.263-9.376,13.413-4.751,16.948C324.866,103.036,335.511,101.03,343.023,94.256z"/>
					<path fill="#FFFFFF" d="M347.806,74.371c5.39,2.993,16.32,0.734,23.862-3.813c4.216-2.534,6.236-5.59,6.177-8.236
						c-11.207,1.699-22.268,4.544-33.019,8.548C345.229,72.26,346.186,73.476,347.806,74.371z"/>
					<path fill="#FFFFFF" d="M243.9,244.147c3.994-6.721,4.05-18.721,0.03-25.77c-2.039-3.554-4.563-5.174-7.029-5.01
						c-0.968,11.751-0.679,23.58,0.826,35.284C239.904,248.632,242.098,247.183,243.9,244.147z"/>
					<path fill="#FFFFFF" d="M262.448,216.325c5.544-7.626,6.691-19.856,1.973-26.635c-4.718-6.78-13.469-5.987-18.117,1.456
						c-4.656,7.449-5.4,18.478-1.321,25.521C249.042,223.689,256.907,223.951,262.448,216.325z"/>
					<path fill="#FFFFFF" d="M288.133,186.45c7.288-7.908,8.701-19.967,3.59-26.13c-5.115-6.177-14.367-4.531-21.258,2.793
						c-6.898,7.324-9.17,18.045-4.433,24.799C270.756,194.647,280.844,194.352,288.133,186.45z"/>
					<path fill="#FFFFFF" d="M293.49,158.477c5.161,6.125,16.222,5.213,24.15-2.721c7.944-7.928,9.271-19.383,3.563-24.937
						c-5.691-5.554-15.714-3.462-23.087,3.876C290.733,142.032,288.339,152.346,293.49,158.477z"/>
					<path fill="#FFFFFF" d="M323.069,129.015c5.744,5.528,17.573,4.328,25.701-3.193c8.104-7.508,8.971-18.105,2.629-23.14
						c-6.341-5.043-16.937-2.866-24.445,4.164C319.43,113.881,317.341,123.507,323.069,129.015z"/>
					<path fill="#FFFFFF" d="M353.255,101.016c6.38,5.016,18.636,3.994,26.491-2.656c7.855-6.649,8.066-15.721,1.2-20.367
						c-6.872-4.659-17.914-3.573-25.251,2.826C348.37,87.227,346.882,95.994,353.255,101.016z"/>
					<path fill="#FFFFFF" d="M382.776,76.817c6.878,4.597,19.225,4.646,26.543-0.052c7.331-4.698,6.845-11.547-0.118-15.439
						c-0.57-0.312-1.18-0.597-1.803-0.855c-7.594-0.2-15.219,0.111-22.787,0.947c-0.138,0.079-0.289,0.141-0.42,0.216
						C376.966,65.63,375.891,72.23,382.776,76.817z"/>
					<path fill="#FFFFFF" d="M432.296,62.971c-7.01-1.242-14.092-2.029-21.206-2.37C416.985,63.748,425.968,64.555,432.296,62.971z"
						/>
					<path fill="#FFFFFF" d="M254.386,281.057c3.482-5.665,1.125-16.786-3.646-24.452c-3.911-6.302-9.121-7.718-12.541-4.616
						c1.64,10.944,4.36,21.77,8.196,32.281C249.484,285.045,252.53,284.041,254.386,281.057z"/>
					<path fill="#FFFFFF" d="M271.782,256.455c5.452-6.997,4.849-19.613-1.017-27.428c-5.855-7.803-14.471-7.573-19.258-0.348
						c-4.781,7.233-4.538,18.655,0.275,26.341C256.605,262.704,266.343,263.458,271.782,256.455z"/>
					<path fill="#FFFFFF" d="M272.221,227.21c5.944,7.816,16.692,8.256,23.813,0.288c7.101-7.974,7.171-21.435,0.915-28.904
						c-6.255-7.482-16.645-6.721-23.428,0.983C266.723,207.282,266.281,219.4,272.221,227.21z"/>
					<path fill="#FFFFFF" d="M301.506,169.264c-7.639,7.934-9.053,19.94-2.787,27.389c6.272,7.442,18.669,7.58,26.705-0.721
						c8.026-8.302,8.2-21.855,1.597-28.845S309.151,161.336,301.506,169.264z"/>
					<path fill="#FFFFFF" d="M331.931,138.871c-8.045,7.738-9.607,19.318-2.967,26.275c6.629,6.964,19.977,7.042,28.422-1.095
						c8.44-8.137,8.616-21.094,1.541-27.658C351.833,129.822,339.977,131.134,331.931,138.871z"/>
					<path fill="#FFFFFF" d="M363.071,110.092c-8.033,7.101-9.265,17.934-2.164,24.478c7.121,6.537,20.701,6.682,29.042-0.787
						c8.36-7.455,8.328-19.068,0.787-25.383C383.189,102.085,371.071,102.977,363.071,110.092z"/>
					<path fill="#FFFFFF" d="M392.651,106.8c7.58,6.308,20.792,6.504,28.399,0.439c7.593-6.072,7.219-16.4-0.453-21.865
						c-7.665-5.475-19.527-5.613-27.252-0.291C385.622,90.401,385.077,100.492,392.651,106.8z"/>
					<path fill="#FFFFFF" d="M448.354,86.906c6.465-4.387,5.606-13.298-1.797-17.875c-7.423-4.577-18.223-5.551-25.029-1.722
						c-6.807,3.813-6.853,11.439,0.819,16.846C430.001,89.548,441.876,91.292,448.354,86.906z"/>
					<path fill="#FFFFFF" d="M447.974,68.277c7.101,4.354,16.695,7.665,21.718,5.973c-8.21-3.573-16.629-6.455-25.199-8.649
						C445.41,66.515,446.584,67.421,447.974,68.277z"/>
					<path fill="#FFFFFF" d="M270.169,314.722c2.819-4.059,0.472-14.118-6.122-21.396c-5.983-6.597-13.065-8.125-16.022-4.741
						c3.541,8.951,7.885,17.652,13.055,26.006C264.904,317.017,268.313,317.411,270.169,314.722z"/>
					<path fill="#FFFFFF" d="M285.195,295.516c4.885-5.803,3.567-17.632-3.443-25.56c-7.033-7.914-16.793-8.478-21.285-2.072
						c-4.495,6.426-2.163,16.858,4.456,24.17C271.552,299.371,280.313,301.319,285.195,295.516z"/>
					<path fill="#FFFFFF" d="M281.277,240.869c-6.204,7.495-5.249,19.514,1.79,27.474c7.042,7.961,17.714,9.239,24.156,2.184
						c6.436-7.055,6.394-20.465-0.977-28.786C298.86,233.413,287.5,233.36,281.277,240.869z"/>
					<path fill="#FFFFFF" d="M307.994,239.839c7.413,8.328,19.911,8.8,27.9,0.604c8.017-8.184,8.158-21.947,0.338-30.275
						c-7.816-8.327-20.314-8.066-27.898,0.131C300.732,218.488,300.582,231.505,307.994,239.839z"/>
					<path fill="#FFFFFF" d="M338.186,208.174c7.836,8.321,21.252,8.466,29.79,0.026c8.524-8.439,8.728-22.104,0.636-30.261
						c-8.078-8.158-21.199-7.829-29.478,0.426C330.855,186.64,330.345,199.859,338.186,208.174z"/>
					<path fill="#FFFFFF" d="M370.665,175.972c8.098,8.137,21.888,8.196,30.425,0.026c8.544-8.17,8.524-21.199,0.334-29.016
						c-8.196-7.816-21.389-7.711-29.842,0.132C363.143,154.956,362.547,167.828,370.665,175.972z"/>
					<path fill="#FFFFFF" d="M403.707,118.478c-8.112,6.911-8.485,18.878-0.289,26.662c8.19,7.79,21.796,8.046,29.842,0.649
						c8.039-7.397,7.324-18.983-0.747-26.341C424.42,112.098,411.798,111.56,403.707,118.478z"/>
					<path fill="#FFFFFF" d="M434.283,117.987c8.052,7.331,20.537,8.498,27.153,2.879c6.617-5.619,5.239-15.442-2.288-22.452
						c-7.534-7.023-18.787-8.822-25.94-3.534C426.08,100.177,426.217,110.649,434.283,117.987z"/>
					<path fill="#FFFFFF" d="M460.629,97.312c7.495,6.99,18.478,9.003,23.573,5.167c5.088-3.843,2.846-11.508-3.954-18.009
						c-6.813-6.508-16.203-9.786-21.973-6.436C452.511,81.391,453.141,90.328,460.629,97.312z"/>
					<path fill="#FFFFFF" d="M481.33,83.886c6.754,6.459,15.691,9.583,18.734,8.029c0.105-0.059,0.217-0.144,0.302-0.21
						c-7.705-5.544-15.771-10.357-24.131-14.436C477.298,79.355,478.976,81.633,481.33,83.886z"/>
					<path fill="#FFFFFF" d="M288.077,344.315c2.383-2.17-0.191-10.478-6.839-17.396c-6.669-6.931-14.301-9.173-15.891-6.138
						c-0.04,0.079-0.066,0.171-0.092,0.243c5.472,8.032,11.741,15.678,18.77,22.858c0.207,0.217,0.423,0.414,0.63,0.623
						C286.096,345.049,287.273,345.049,288.077,344.315z"/>
					<path fill="#FFFFFF" d="M301.608,331.613c4.55-4.334,2.924-14.773-4.426-22.452c-7.334-7.679-17.111-9.141-21.032-4.112
						c-3.925,5.03-0.872,14.007,5.839,20.983C288.69,333.003,297.07,335.935,301.608,331.613z"/>
					<path fill="#FFFFFF" d="M319.899,285.287c-7.852-8.269-19.229-9.213-24.957-2.695c-5.744,6.525-3.898,17.521,3.482,25.245
						c7.377,7.724,17.908,9.691,24.107,3.718C328.725,305.568,327.757,293.549,319.899,285.287z"/>
					<path fill="#FFFFFF" d="M321.485,283.654c7.872,8.302,20.134,9.417,28.019,1.751c7.882-7.686,7.81-21.134-0.4-29.672
						c-8.216-8.55-21.186-8.773-28.73-0.878C312.84,262.763,313.607,275.353,321.485,283.654z"/>
					<path fill="#FFFFFF" d="M351.176,223.282c-8.331,8.393-8.36,21.953-0.124,30.498c8.229,8.55,21.743,8.912,30.248,0.597
						c8.518-8.321,8.636-22.209,0.236-30.832C373.124,214.934,359.511,214.915,351.176,223.282z"/>
					<path fill="#FFFFFF" d="M384.002,190.824c-8.597,8.36-8.832,22.098-0.413,30.714c8.413,8.61,22.314,8.748,30.93,0.302
						c8.623-8.466,8.675-22.242,0.242-30.753C406.316,182.582,392.605,182.477,384.002,190.824z"/>
					<path fill="#FFFFFF" d="M446.787,160.294c-8.295-8.243-21.554-8.682-29.901-0.866c-8.354,7.83-8.524,21.193-0.091,29.691
						c8.426,8.498,22.17,8.708,30.386,0.61C455.39,181.631,455.089,168.529,446.787,160.294z"/>
					<path fill="#FFFFFF" d="M447.541,131.39c-7.193,6.295-7.141,18.871,1.148,27.087c8.275,8.217,21.462,8.603,28.196,1.902
						c6.747-6.675,5.377-18.091-2.498-25.887C466.524,126.688,454.735,125.107,447.541,131.39z"/>
					<path fill="#FFFFFF" d="M496.156,114.99c-7.226-7.207-17.219-9.829-23.14-5.076c-5.921,4.748-4.957,15.409,2.892,23.18
						c7.836,7.77,19.094,9.271,24.393,3.947C505.618,131.73,503.369,122.177,496.156,114.99z"/>
					<path fill="#FFFFFF" d="M497.284,114c7.18,7.16,16.557,9.417,19.928,5.974c3.357-3.443-0.04-10.577-6.433-17.009
						c-6.412-6.427-14.058-10.354-18.189-7.633C488.451,98.046,490.098,106.839,497.284,114z"/>
					<path fill="#FFFFFF" d="M522.175,110.433c-0.013,0-0.013-0.013-0.019-0.013c-5.108-5.206-10.479-10.019-16.052-14.399
						c1.285,1.987,3.042,4.242,5.291,6.485C515.264,106.407,519.349,109.134,522.175,110.433z"/>
					<path fill="#FFFFFF" d="M286.975,346.813c4.822,4.681,9.858,9.003,15.062,12.983c-1.151-1.587-2.577-3.318-4.325-5.049
						C293.913,350.925,289.838,348.196,286.975,346.813z"/>
					<path fill="#FFFFFF" d="M312.217,343.613c-7.19-7.115-16.655-9.436-20.111-6.098c-3.465,3.351-0.147,10.393,6.272,16.8
						c6.397,6.406,14.141,10.367,18.367,7.73C320.978,359.416,319.4,350.741,312.217,343.613z"/>
					<path fill="#FFFFFF" d="M313.368,342.656c7.232,7.154,17.297,9.784,23.31,5.088c5.977-4.695,5.082-15.239-2.77-22.95
						c-7.849-7.718-19.196-9.246-24.567-3.994C303.939,326.033,306.142,335.495,313.368,342.656z"/>
					<path fill="#FFFFFF" d="M362.403,326.466c7.265-6.243,7.226-18.701-1.069-26.852c-8.294-8.151-21.537-8.525-28.327-1.896
						c-6.797,6.643-5.45,17.961,2.439,25.698C343.337,331.168,355.143,332.709,362.403,326.466z"/>
					<path fill="#FFFFFF" d="M363.235,297.811c8.308,8.177,21.56,8.597,29.914,0.813c8.36-7.79,8.557-21.055,0.138-29.507
						c-8.419-8.452-22.183-8.668-30.419-0.597C354.632,276.572,354.934,289.641,363.235,297.811z"/>
					<path fill="#FFFFFF" d="M395.326,267.15c8.413,8.459,22.104,8.538,30.694,0.203c8.564-8.334,8.839-22.012,0.459-30.602
						c-8.38-8.59-22.282-8.728-30.898-0.282C386.959,244.921,386.9,258.671,395.326,267.15z"/>
					<path fill="#FFFFFF" d="M428.545,234.744c8.354,8.59,21.927,8.564,30.202,0.191c8.295-8.361,8.354-21.902,0.184-30.452
						c-8.184-8.55-21.665-8.911-30.15-0.571C420.296,212.247,420.152,226.148,428.545,234.744z"/>
					<path fill="#FFFFFF" d="M488.327,174.503c-7.803-8.321-19.993-9.436-27.842-1.718c-7.843,7.705-7.784,21.199,0.38,29.744
						c8.158,8.544,21.029,8.734,28.531,0.82C496.871,195.434,496.143,182.811,488.327,174.503z"/>
					<path fill="#FFFFFF" d="M489.901,172.851c7.79,8.282,19.055,9.167,24.734,2.577c5.679-6.59,3.862-17.652-3.475-25.39
						c-7.331-7.731-17.763-9.665-23.901-3.62C481.121,152.477,482.111,164.562,489.901,172.851z"/>
					<path fill="#FFFFFF" d="M507.874,126.072c-4.458,4.413-2.787,14.944,4.505,22.629c7.298,7.698,16.97,9.081,20.813,3.954
						c3.849-5.121,0.78-14.164-5.895-21.141C520.615,124.524,512.34,121.645,507.874,126.072z"/>
					<path fill="#FFFFFF" d="M521.041,112.984c-2.276,2.268,0.361,10.682,6.99,17.612c6.262,6.557,13.351,8.846,15.357,6.387
						c-5.495-8.525-11.869-16.675-19.081-24.321C522.916,112.177,521.801,112.216,521.041,112.984z"/>
					<path fill="#FFFFFF" d="M325.751,371.272c-6.764-6.459-15.721-9.574-18.799-8.059c-0.059,0.032-0.095,0.072-0.144,0.098
						c7.594,5.377,15.527,10.052,23.74,14.019C329.482,375.396,327.879,373.317,325.751,371.272z"/>
					<path fill="#FFFFFF" d="M346.527,357.908c-7.485-6.964-18.488-8.977-23.599-5.16c-5.118,3.823-2.905,11.448,3.905,17.94
						c6.8,6.479,16.203,9.758,21.99,6.42C354.612,373.77,354.009,364.865,346.527,357.908z"/>
					<path fill="#FFFFFF" d="M372.953,337.279c-8.033-7.299-20.544-8.452-27.173-2.853c-6.636,5.594-5.278,15.403,2.236,22.393
						c7.528,6.99,18.806,8.773,25.96,3.482C381.123,355.016,381.005,344.577,372.953,337.279z"/>
					<path fill="#FFFFFF" d="M403.529,336.747c8.092-6.884,8.485-18.812,0.301-26.576c-8.177-7.751-21.77-8-29.822-0.622
						c-8.033,7.39-7.344,18.944,0.735,26.268C382.808,343.128,395.418,343.639,403.529,336.747z"/>
					<path fill="#FFFFFF" d="M435.62,308.178c8.452-7.829,9.043-20.662,0.97-28.773c-8.092-8.125-21.849-8.17-30.399-0.013
						c-8.538,8.157-8.531,21.173-0.361,28.963C414.007,316.132,427.181,316.007,435.62,308.178z"/>
					<path fill="#FFFFFF" d="M469.023,247.222c-7.81-8.308-21.206-8.439-29.737-0.006c-8.518,8.425-8.734,22.091-0.663,30.222
						c8.059,8.131,21.148,7.797,29.429-0.472C476.321,268.717,476.832,255.524,469.023,247.222z"/>
					<path fill="#FFFFFF" d="M499.16,215.557c-7.383-8.308-19.842-8.78-27.842-0.583c-7.987,8.196-8.137,21.941-0.354,30.248
						c7.809,8.295,20.242,8.026,27.829-0.151C506.366,236.888,506.536,223.879,499.16,215.557z"/>
					<path fill="#FFFFFF" d="M525.755,214.482c6.21-7.515,5.292-19.521-1.718-27.475c-7.023-7.954-17.665-9.206-24.091-2.138
						c-6.42,7.075-6.394,20.478,0.944,28.786C508.241,221.977,519.559,222.01,525.755,214.482z"/>
					<path fill="#FFFFFF" d="M521.907,159.795c-4.859,5.836-3.548,17.672,3.449,25.593c6.991,7.921,16.715,8.446,21.2,2.006
						c4.485-6.433,2.177-16.872-4.426-24.183C535.512,155.907,526.779,153.966,521.907,159.795z"/>
					<path fill="#FFFFFF" d="M536.863,140.497c-2.793,4.085-0.446,14.164,6.124,21.429c5.771,6.361,12.531,7.987,15.639,5.062
						c-3.541-9.18-7.927-18.117-13.167-26.688C541.827,138.117,538.627,137.901,536.863,140.497z"/>
					<path fill="#FFFFFF" d="M337.987,380.688c7.865,3.331,15.937,6.039,24.134,8.118c-0.827-0.761-1.803-1.482-2.964-2.197
						C352.37,382.458,343.177,379.429,337.987,380.688z"/>
					<path fill="#FFFFFF" d="M358.789,368.268c-6.492,4.38-5.593,13.048,1.81,17.6c7.403,4.544,18.197,5.495,25.003,1.698
						c6.813-3.79,6.885-11.35-0.761-16.727C377.202,365.495,365.281,363.894,358.789,368.268z"/>
					<path fill="#FFFFFF" d="M414.519,348.328c-7.554-6.263-20.734-6.427-28.354-0.367c-7.606,6.065-7.226,16.255,0.433,21.685
						c7.632,5.429,19.475,5.56,27.186,0.269C421.502,364.636,422.066,354.583,414.519,348.328z"/>
					<path fill="#FFFFFF" d="M444.02,344.957c7.98-7.082,9.259-17.862,2.163-24.367c-7.068-6.511-20.576-6.551-28.917,0.892
						c-8.341,7.456-8.36,18.983-0.827,25.245C423.962,352.99,436.014,352.059,444.02,344.957z"/>
					<path fill="#FFFFFF" d="M475.075,316.23c8.026-7.712,9.599-19.239,3.003-26.177c-6.583-6.917-19.835-6.898-28.262,1.213
						c-8.439,8.137-8.688,20.976-1.632,27.501C455.233,325.286,467.042,323.948,475.075,316.23z"/>
					<path fill="#FFFFFF" d="M505.422,285.916c7.632-7.927,9.069-19.874,2.846-27.297c-6.216-7.403-18.511-7.482-26.537,0.806
						c-8.02,8.295-8.288,21.737-1.712,28.707C486.577,295.084,497.795,293.831,505.422,285.916z"/>
					<path fill="#FFFFFF" d="M534.739,228.121c-5.895-7.784-16.59-8.209-23.678-0.249c-7.088,7.967-7.232,21.37-1.023,28.826
						c6.203,7.436,16.564,6.662,23.344-1.023C540.168,247.996,540.634,235.905,534.739,228.121z"/>
					<path fill="#FFFFFF" d="M535.263,198.87c-5.435,7.016-4.911,19.639,0.905,27.435c5.816,7.784,14.354,7.534,19.108,0.289
						c4.747-7.233,4.524-18.642-0.249-26.301C550.24,192.64,540.68,191.84,535.263,198.87z"/>
					<path fill="#FFFFFF" d="M552.62,174.188c-3.475,5.685-1.305,16.872,3.429,24.511c3.751,6.079,8.695,7.58,12.105,4.872
						c-1.561-11.088-4.269-22.045-8.072-32.701C557.191,170.28,554.391,171.336,552.62,174.188z"/>
					<path fill="#FFFFFF" d="M375.825,391.638c6.347,1.049,12.727,1.731,19.141,2.045
						C389.425,391.146,381.7,390.464,375.825,391.638z"/>
					<path fill="#FFFFFF" d="M424.309,378.078c-6.852-4.524-19.16-4.57-26.491,0.105c-7.324,4.649-6.872,11.449,0.066,15.285
						c0.223,0.138,0.459,0.236,0.682,0.348c8.38,0.23,16.747-0.171,25.082-1.207C430.112,388.616,430.879,382.425,424.309,378.078z"
						/>
					<path fill="#FFFFFF" d="M453.758,353.941c-6.328-4.957-18.544-3.902-26.38,2.734c-7.855,6.649-8.072,15.652-1.246,20.248
						c6.826,4.571,17.835,3.449,25.14-2.944C458.557,367.6,460.085,358.891,453.758,353.941z"/>
					<path fill="#FFFFFF" d="M479.914,348.02c7.488-7.017,9.632-16.557,3.927-22.019c-5.685-5.462-17.448-4.236-25.54,3.252
						c-8.104,7.501-8.983,18.052-2.695,23.029C461.901,357.258,472.439,355.049,479.914,348.02z"/>
					<path fill="#FFFFFF" d="M513.356,296.618c-5.101-6.065-16.124-5.135-24.019,2.78c-7.921,7.902-9.279,19.311-3.633,24.806
						c5.652,5.495,15.613,3.37,22.95-3.947C516.011,312.945,518.451,302.703,513.356,296.618z"/>
					<path fill="#FFFFFF" d="M518.772,268.776c-7.272,7.882-8.701,19.901-3.646,26.012c5.049,6.124,14.223,4.446,21.108-2.846
						c6.884-7.305,9.206-17.96,4.537-24.655C536.083,260.579,526.051,260.894,518.772,268.776z"/>
					<path fill="#FFFFFF" d="M544.411,238.954c-5.489,7.62-6.708,19.816-2.046,26.557c4.649,6.721,13.338,5.901,17.96-1.528
						c4.636-7.422,5.403-18.419,1.397-25.422C557.702,231.564,549.918,231.341,544.411,238.954z"/>
					<path fill="#FFFFFF" d="M562.843,211.131c-3.98,6.715-4.046,18.715-0.072,25.711c1.863,3.292,4.144,4.872,6.406,4.971
						c1.023-11.718,0.82-23.514-0.629-35.192C566.535,206.817,564.521,208.279,562.843,211.131z"/>
					<path fill="#FFFFFF" d="M459.088,380.327c-5.344-2.931-16.203-0.616-23.757,3.901c-3.901,2.347-5.928,5.128-6.144,7.613
						c11.082-1.744,22.025-4.616,32.655-8.609C461.37,382.084,460.466,381.074,459.088,380.327z"/>
					<path fill="#FFFFFF" d="M486.55,355.259c-4.577-3.462-15.153-1.43-22.642,5.337c-7.475,6.754-8.445,15.292-3.141,18.242
						c5.285,2.938,14.209-0.577,20.95-6.819C488.471,365.783,491.108,358.708,486.55,355.259z"/>
					<path fill="#FFFFFF" d="M492.943,333.456c-7.502,7.239-9.2,16.682-4.688,20.183c4.518,3.502,12.858,0.171,19.606-6.387
						c6.76-6.557,10.026-14.446,6.255-18.616C510.346,324.453,500.445,326.21,492.943,333.456z"/>
					<path fill="#FFFFFF" d="M521.421,305.109c-7.187,7.397-9.337,17.613-5.607,21.849c3.725,4.229,11.273,1.391,17.836-5.265
						c6.551-6.655,10.196-15.233,7.101-20.197C537.644,296.533,528.608,297.719,521.421,305.109z"/>
					<path fill="#FFFFFF" d="M548.063,276.802c-6.558,7.226-8.787,18.006-5.725,23.029c2.157,3.521,6.118,3.495,10.406,0.905
						c4.426-8.977,7.987-18.275,10.682-27.763C560.246,269.169,553.899,270.395,548.063,276.802z"/>
					<path fill="#FFFFFF" d="M564.449,269.255c1.849-7.154,3.226-14.413,4.125-21.718c-0.249,0.348-0.479,0.721-0.722,1.128
						C564.463,254.527,563.321,263.176,564.449,269.255z"/>
					<path fill="#FFFFFF" d="M511.586,351.397c-2.243-1.777-10.571,1.115-17.403,7.58c-4.865,4.616-7.299,9.488-7.181,12.295
						c8.315-4.846,16.302-10.472,23.849-16.885c0.42-0.557,0.872-1.108,1.357-1.659
						C512.208,352.184,511.999,351.724,511.586,351.397z"/>
					<path fill="#FFFFFF" d="M536.017,327.24c-1.331-2.695-8.832-0.406-15.573,6.275c-6.741,6.688-9.515,14.57-7.338,16.393
						c0.367,0.295,0.82,0.42,1.344,0.4c1.948-1.889,4.013-3.416,5.842-4.564c5.797-5.731,11.082-11.777,15.862-18.091
						C536.123,327.502,536.083,327.371,536.017,327.24z"/>
					<path fill="#FFFFFF" d="M545.899,307.673c-6.413,6.668-9.672,15.317-8.387,18.065c0.013,0.013,0.026,0.033,0.026,0.052
						c5.357-7.272,10.032-14.878,14.058-22.74C549.788,304.126,547.84,305.654,545.899,307.673z"/>
					<path fill="#FFFFFF" d="M514.353,350.4c-0.761,0.754-1.476,1.528-2.145,2.327c0,0.171-0.019,0.348-0.059,0.545
						c1.227-1.062,2.42-2.131,3.607-3.22c-0.473,0.171-0.912,0.256-1.305,0.256C514.431,350.347,514.392,350.373,514.353,350.4z"/>
					<path fill="#FFFFFF" d="M510.851,354.387c0.432-0.361,0.865-0.747,1.298-1.115c0.04-0.197,0.059-0.374,0.059-0.545
						C511.723,353.279,511.271,353.829,510.851,354.387z"/>
					<path fill="#FFFFFF" d="M510.851,354.387c0.432-0.361,0.865-0.747,1.298-1.115c0.04-0.197,0.059-0.374,0.059-0.545
						C511.723,353.279,511.271,353.829,510.851,354.387z"/>
					<path fill="#FFFFFF" d="M515.756,350.052c1.357-1.259,2.715-2.525,4.052-3.829c0.177-0.164,0.328-0.322,0.485-0.479
						c-1.829,1.148-3.894,2.675-5.842,4.564C514.844,350.308,515.283,350.223,515.756,350.052z"/>
					<path fill="#FFFFFF" d="M515.756,350.052c1.357-1.259,2.715-2.525,4.052-3.829c0.177-0.164,0.328-0.322,0.485-0.479
						c-1.829,1.148-3.894,2.675-5.842,4.564C514.844,350.308,515.283,350.223,515.756,350.052z"/>
				</g>
			</g>
			<g>
				<path fill="#231F20" d="M279.136,143.914L279.136,143.914c-2.974,3.009-4.577,5.934-5.245,7.914
					c1.364-0.505,3.173-1.515,5.085-3.475c2.816-2.898,4.098-5.914,4.616-8.012C282.369,141.061,280.831,142.202,279.136,143.914z"
					/>
				<path fill="#231F20" d="M304.89,118.386c-2.269,2.19-3.564,4.131-4.289,5.554c1.961-0.538,4.623-1.804,7.15-4.249
					c2.253-2.164,3.459-4.381,4.023-6.053C310.125,114.295,307.702,115.659,304.89,118.386z"/>
				<path fill="#231F20" d="M330.997,93.666c-1.272,1.174-2.121,2.203-2.776,3.095c2.354-0.413,5.695-1.606,8.855-4.465
					c1.636-1.475,2.531-2.852,3.033-3.908C338.026,88.886,334.521,90.404,330.997,93.666z"/>
				<path fill="#231F20" d="M256.124,198.522L256.124,198.522c-0.453,0.007-1.43,0.531-2.295,1.921
					c-1.718,2.748-2.62,6.479-2.62,9.915c0,2.478,0.469,4.787,1.443,6.472c0.279,0.492,0.505,0.721,0.646,0.846
					c0.258-0.144,1.036-0.637,1.99-1.948c2.23-3.069,3.249-7.147,3.249-10.616c0-2.368-0.479-4.459-1.376-5.758
					C256.989,199.112,256.52,198.509,256.124,198.522z"/>
				<path fill="#231F20" d="M276.916,173.788c-2.783,2.964-4.514,6.899-4.514,10.275c0,1.377,0.308,2.537,0.882,3.351
					c0.456,0.656,1.013,0.958,1.859,1.017c1.961,0.131,4.446-1.167,6.482-3.371c4.593-4.984,5.157-12.216,3.285-14.478
					c-0.358-0.426-0.675-0.577-1.226-0.597C281.811,169.933,279.152,171.421,276.916,173.788z"/>
				<path fill="#231F20" d="M304.361,145.586v0.007c-4.364,4.341-5.757,9.809-4.082,11.803c0.522,0.623,1.518,0.794,2.272,0.827
					c2.787,0.118,6.161-1.462,8.832-4.118c2.774-2.774,4.485-6.439,4.459-9.567c-0.01-1.456-0.426-2.38-0.82-2.767
					C313.627,140.405,308.768,141.212,304.361,145.586z"/>
				<path fill="#231F20" d="M332.987,117.921c-2.656,2.505-4.324,5.475-4.338,7.757c0,0.852,0.22,1.239,0.557,1.56
					c1.685,1.62,8.259,1.581,13.538-3.298c2.544-2.354,4.072-5.311,3.973-7.718c-0.032-0.912-0.314-1.587-0.833-2.013
					C343.61,112.413,337.616,113.606,332.987,117.921z"/>
				<path fill="#231F20" d="M361.524,92.105c-2.537,2.223-3.429,4.334-3.429,5.468v0.132c0,0.144,0,0.459,0.636,0.944
					c2.584,2.046,10.144,1.902,15.298-2.446c2.295-1.941,3.043-3.744,2.99-4.793c-0.013-0.269-0.039-0.804-1.029-1.469
					C372.323,87.463,365.707,88.453,361.524,92.105z"/>
				<path fill="#231F20" d="M388.71,74.584c4.314,2.112,11.842,1.889,15.836-0.672c0.006-0.003,0.006-0.003,0.019-0.003
					C399.326,73.853,394.015,74.106,388.71,74.584z"/>
				<path fill="#231F20" d="M260.667,236.672c-0.4,0.019-1.095,0.485-1.764,1.501c-1.262,1.921-1.996,4.747-1.996,7.744
					c0,3.318,0.869,6.596,2.383,9.01c0.807,1.278,1.885,2.046,2.964,2.098c1.154,0.052,2.016-0.728,2.538-1.403
					c2.928-3.764,2.384-12.019-1.105-16.668C262.5,237.373,261.294,236.672,260.667,236.672z"/>
				<path fill="#231F20" d="M280.162,210.049h-0.009c-3.882,4.413-4.295,11.928-0.886,16.406c1.207,1.587,2.81,2.492,4.515,2.564
					c1.954,0.079,3.954-0.925,5.633-2.807c4.046-4.537,4.399-12.957,0.744-17.33c-1.125-1.331-2.449-2.026-3.928-2.046
					C284.195,206.817,281.981,207.984,280.162,210.049z"/>
				<path fill="#231F20" d="M307.883,180.018c-2.705,2.819-4.266,6.433-4.266,9.907c0,2.216,0.643,4.17,1.885,5.64
					c1.233,1.456,3.124,2.302,5.321,2.38c2.944,0.105,5.944-1.194,8.233-3.567c4.82-4.977,4.771-13.16,1.521-16.602
					c-1.128-1.18-2.577-1.784-4.328-1.797C313.433,175.959,310.381,177.441,307.883,180.018z"/>
				<path fill="#231F20" d="M338.059,149.867c-2.757,2.656-4.407,6.079-4.407,9.154c0,1.285,0.295,3.128,1.718,4.63
					c1.381,1.442,3.682,2.308,6.328,2.374c3.511,0.065,7-1.292,9.544-3.744c2.498-2.413,3.927-5.685,3.901-8.99
					c-0.026-2.387-0.839-4.498-2.236-5.797C349.432,144.288,342.773,145.35,338.059,149.867z"/>
				<path fill="#231F20" d="M368.947,121.324L368.947,121.324c-2.413,2.145-3.823,4.781-3.836,7.24
					c-0.019,1.599,0.583,2.977,1.797,4.098c3.593,3.298,12.203,3.547,17.147-0.866c2.229-1.994,3.429-4.472,3.39-6.97
					c-0.033-1.973-0.879-3.751-2.406-5.022C380.966,116.387,373.746,117.069,368.947,121.324z"/>
				<path fill="#231F20" d="M398.375,96.99h-0.007c-0.99,0.675-2.177,1.836-2.262,3.521c-0.065,1.397,0.721,2.846,2.21,4.085
					c4.354,3.62,12.879,3.79,17.206,0.334c1.43-1.148,2.21-2.583,2.177-4.039c-0.059-1.764-1.252-2.99-2.242-3.698
					C410.827,93.895,402.998,93.803,398.375,96.99z"/>
				<path fill="#231F20" d="M425.869,79.643L425.869,79.643c-0.111,0.059-0.164,0.108-0.249,0.16
					c0.269,0.391,0.767,0.98,1.823,1.718c5.246,3.698,13.14,4.557,15.928,2.666c0.479-0.322,0.472-0.482,0.472-0.604
					c-0.013-0.596-0.616-1.583-1.941-2.403C437.135,78.243,429.64,77.519,425.869,79.643z"/>
				<path fill="#231F20" d="M268.926,276.979L268.926,276.979c-0.672,0.039-0.964,0.256-1.207,0.61
					c-0.462,0.656-0.714,1.672-0.714,2.866c0,3.232,1.754,7.252,4.475,10.262c2.505,2.748,5.092,3.974,6.439,3.954
					c0.281-0.013,0.311-0.032,0.502-0.242c1.508-1.81,1.409-8.662-3.308-13.98C273.152,278.231,270.716,276.874,268.926,276.979z"/>
				<path fill="#231F20" d="M292.824,248.836h-0.01c-1.849,0.026-3.478,0.819-4.705,2.288c-3.34,4.033-2.616,11.186,1.597,15.967
					c2.118,2.387,4.708,3.777,7.111,3.803c1.505,0.007,2.807-0.57,3.872-1.731c3.269-3.593,3.508-11.77-1.066-16.937
					C297.637,249.99,295.231,248.789,292.824,248.836z"/>
				<path fill="#231F20" d="M322.335,217.505L322.335,217.505c-2.803,0.013-5.475,1.226-7.512,3.416
					c-4.547,4.912-4.636,12.656-0.223,17.632c1.977,2.216,4.607,3.475,7.404,3.541c2.787,0.059,5.472-1.082,7.561-3.22
					c4.731-4.846,4.832-13.108,0.216-18.033C327.748,218.679,325.102,217.492,322.335,217.505z"/>
				<path fill="#231F20" d="M345.387,189.244c-2.551,2.557-3.96,5.869-3.96,9.331c0,3.056,1.148,5.941,3.21,8.137
					c2.075,2.21,4.941,3.449,8.055,3.508c3.357,0.059,6.57-1.259,9.049-3.711c2.531-2.499,3.921-5.797,3.934-9.298
					c0.013-3.239-1.174-6.236-3.345-8.426c-2.111-2.131-4.957-3.318-7.986-3.324C351.026,185.453,347.845,186.798,345.387,189.244z"
					/>
				<path fill="#231F20" d="M377.608,158.222v0.006c-2.426,2.23-3.783,5.187-3.842,8.302c-0.059,2.911,1.062,5.679,3.173,7.803
					c4.728,4.754,12.99,4.695,18.026-0.125c2.393-2.288,3.711-5.278,3.711-8.393c-0.006-2.983-1.207-5.744-3.37-7.816
					C390.48,153.395,382.703,153.487,377.608,158.222z"/>
				<path fill="#231F20" d="M409.444,129.822v0.006c-1.954,1.666-3.069,3.909-3.134,6.328c-0.065,2.59,1.069,5.141,3.22,7.174
					c4.794,4.57,13.082,4.82,17.737,0.557c1.869-1.731,2.826-3.77,2.82-6.059c-0.007-2.583-1.272-5.147-3.541-7.219
					C421.653,126.17,414.139,125.823,409.444,129.822z"/>
				<path fill="#231F20" d="M438.492,106.609c-1.01,0.748-1.521,1.705-1.58,2.918c-0.013,0.04-0.013,0.249-0.013,0.249
					c0,2.039,1.22,4.328,3.345,6.269c5.397,4.918,12.891,4.865,15.468,2.675c0.754-0.636,1.095-1.344,1.115-2.288
					c0.052-2.111-1.377-4.754-3.711-6.924C448.583,105.285,442.033,103.98,438.492,106.609z"/>
				<path fill="#231F20" d="M463.351,90.204c0.177,1.095,0.977,3.056,3.324,5.239c3.993,3.725,8.636,4.702,10.983,4.675
					c-0.524-1.127-1.573-2.76-3.528-4.622C469.508,91.069,465.056,90.063,463.351,90.204z"/>
				<path fill="#231F20" d="M288.365,324.499c2.948,3.063,5.511,4.315,6.915,4.708c-0.03-1.836-0.977-5.639-4.485-9.311
					c-3.039-3.167-5.944-4.125-7.465-4.256C283.513,317.411,284.884,320.88,288.365,324.499z"/>
				<path fill="#231F20" d="M304.824,291.779L304.824,291.779c-1.436,0.026-2.525,0.453-3.239,1.272
					c-0.98,1.115-1.187,2.617-1.187,3.672c0,3.115,1.663,6.708,4.426,9.613c2.58,2.695,5.875,4.413,8.587,4.465
					c1.675,0.04,2.488-0.564,2.96-1.017c2.125-2.039,2.043-8.583-2.895-13.796C310.955,293.339,307.637,291.72,304.824,291.779z"/>
				<path fill="#231F20" d="M333.948,262.592L333.948,262.592c-2.781,0-5.315,1.069-7.167,2.997c-1.82,1.914-2.78,4.4-2.78,7.213
					c0,3.338,1.423,6.747,3.898,9.357c2.456,2.577,5.642,4.091,8.757,4.157c2.564,0.052,4.813-0.846,6.672-2.662
					c4.458-4.328,4.176-12.196-0.604-17.167C340.302,263.97,337.183,262.586,333.948,262.592z"/>
				<path fill="#231F20" d="M357.452,234.141c-2.354,2.393-3.659,5.587-3.659,9.016c0,3.429,1.298,6.649,3.645,9.095
					c2.374,2.466,5.534,3.856,8.905,3.908c3.285,0.052,6.4-1.193,8.78-3.514c5.049-4.945,5.088-13.154,0.073-18.301
					c-2.4-2.453-5.574-3.817-8.944-3.829C362.934,230.501,359.806,231.787,357.452,234.141z"/>
				<path fill="#231F20" d="M390.179,201.787c-2.485,2.42-3.862,5.633-3.901,9.062v0.066c0,0-0.007,0.04-0.013,0.073
					c0.007,3.383,1.299,6.557,3.665,8.963c2.4,2.472,5.652,3.849,9.134,3.888c3.496,0.026,6.78-1.292,9.253-3.711
					c2.466-2.42,3.829-5.646,3.868-9.095c0.013-3.423-1.305-6.655-3.711-9.102C403.484,196.909,395.267,196.843,390.179,201.787z"/>
				<path fill="#231F20" d="M422.938,170.503L422.938,170.503c-2.223,2.085-3.469,4.931-3.528,8.039l-0.013,0.132v0.091
					c0,3.233,1.311,6.335,3.692,8.728c4.931,4.971,13.114,5.22,17.888,0.538c2.145-2.124,3.338-4.977,3.345-8
					c0-3.285-1.332-6.426-3.77-8.846C435.555,166.234,427.83,165.933,422.938,170.503z"/>
				<path fill="#231F20" d="M453.364,142.674c-1.344,1.18-2.124,3.049-2.204,5.266c0,0.105,0,0.21,0,0.308
					c0,3.069,1.358,6.171,3.777,8.557c5.377,5.344,12.892,4.702,15.705,1.908c1.141-1.134,1.718-2.629,1.718-4.426
					c0-3.003-1.535-6.249-4.21-8.905C463.534,140.805,456.898,139.592,453.364,142.674z"/>
				<path fill="#231F20" d="M478.57,121.435c-0.282,0.223-0.459,0.787-0.499,1.515c-0.013,0.105-0.013,0.203-0.013,0.302
					c0,2.505,1.567,5.679,4.078,8.164c4.886,4.832,10.728,5.147,11.881,3.986c0.112-0.118,0.348-0.341,0.348-1.193
					c0-1.941-1.383-5.272-4.465-8.348C485.311,121.285,480.131,120.183,478.57,121.435z"/>
				<path fill="#231F20" d="M315.515,331.744c-0.108,0.111-0.322,0.315-0.322,1.076c0,0.013,0,0.013,0,0.019
					c0,1.869,1.358,5.108,4.416,8.137c4.636,4.59,9.967,5.672,11.607,4.393c0.262-0.21,0.443-0.741,0.485-1.43
					c0.141-2.478-1.43-5.698-3.993-8.216C322.659,330.781,316.768,330.538,315.515,331.744z"/>
				<path fill="#231F20" d="M339.193,308.67c-1.124,1.095-1.695,2.558-1.705,4.328c0,0,0,0,0,0.007c0,2.925,1.515,6.105,4.161,8.701
					c4.655,4.564,11.377,5.764,14.97,2.662c1.364-1.174,2.151-3.009,2.229-5.18c0.098-3.062-1.259-6.222-3.725-8.649
					C350.114,305.621,342.442,305.49,339.193,308.67z"/>
				<path fill="#231F20" d="M369.065,279.451v0.007c-2.157,2.118-3.357,4.931-3.357,7.928c-0.007,3.253,1.331,6.347,3.751,8.734
					c4.996,4.924,12.754,5.2,17.652,0.629c2.223-2.072,3.482-4.898,3.547-7.974c0.059-3.259-1.233-6.387-3.639-8.799
					C382.061,275.012,373.845,274.769,369.065,279.451z"/>
				<path fill="#231F20" d="M401.792,247.406c-2.478,2.419-3.856,5.652-3.876,9.075c0,3.456,1.318,6.636,3.692,9.036
					c4.97,4.983,13.153,5.029,18.242,0.091c2.472-2.4,3.855-5.613,3.894-9.029c0.052-3.403-1.226-6.603-3.6-9.029
					c-2.393-2.446-5.626-3.817-9.095-3.855C407.568,243.655,404.27,244.973,401.792,247.406z"/>
				<path fill="#231F20" d="M434.99,214.843h-0.006c-5.062,4.97-5.102,13.186-0.105,18.321c2.374,2.433,5.515,3.777,8.833,3.79
					c3.304,0.013,6.412-1.278,8.76-3.639c4.859-4.918,4.898-13.036,0.059-18.098c-2.353-2.452-5.488-3.829-8.819-3.888
					C440.44,211.276,437.345,212.535,434.99,214.843z"/>
				<path fill="#231F20" d="M466.695,183.71L466.695,183.71c-2.046,2-3.161,4.845-3.161,7.993c0,3.436,1.358,6.839,3.731,9.325
					c2.374,2.485,5.442,3.849,8.609,3.849c2.734-0.013,5.246-1.082,7.075-3.003c4.111-4.347,3.646-11.678-1.075-16.688
					c-2.4-2.564-5.528-4.066-8.57-4.131C470.799,181.008,468.511,181.926,466.695,183.71z"/>
				<path fill="#231F20" d="M493.468,157.343c-0.813,0.826-1.305,2.393-1.305,4.216c0,3.371,1.567,7.036,4.19,9.842
					c2.466,2.617,5.685,4.203,8.413,4.144c1.384-0.026,2.453-0.472,3.167-1.291c2.472-2.879,1.017-9.069-3.187-13.514
					c-2.558-2.676-5.777-4.367-8.419-4.413C495.107,156.307,494.202,156.628,493.468,157.343z"/>
				<path fill="#231F20" d="M518.805,147.219c2.938,3.101,5.711,4.039,7.173,4.177c-0.131-1.652-1.409-5.305-5.082-9.161
					c-2.826-2.951-5.239-4.177-6.617-4.61C514.327,140.084,515.71,143.953,518.805,147.219z"/>
				<path fill="#231F20" d="M329.427,364.295c0.524,1.108,1.57,2.741,3.521,4.603c4.672,4.44,9.147,5.41,10.829,5.259
					c-0.167-1.003-0.886-2.931-3.285-5.153C336.593,365.37,331.79,364.275,329.427,364.295z"/>
				<path fill="#231F20" d="M351.498,345.803l-0.013,0.007c-0.741,0.636-1.095,1.344-1.128,2.288c0,2.144,1.417,4.728,3.692,6.845
					c4.532,4.197,11.108,5.469,14.669,2.84c1.003-0.748,1.528-1.699,1.587-2.918c0.105-2.039-1.127-4.446-3.304-6.413
					C361.609,343.554,354.088,343.62,351.498,345.803z"/>
				<path fill="#231F20" d="M380.009,320.683c-1.882,1.724-2.826,3.751-2.826,6.02l0,0c0.013,2.576,1.259,5.121,3.508,7.173
					c4.872,4.413,12.386,4.741,17.095,0.735c1.961-1.659,3.075-3.895,3.134-6.295c0.066-2.564-1.056-5.088-3.18-7.115
					C393.031,316.742,384.579,316.492,380.009,320.683z"/>
				<path fill="#231F20" d="M412.303,290.401c-2.386,2.295-3.698,5.272-3.698,8.38c0,2.957,1.187,5.717,3.345,7.777
					c4.806,4.563,12.564,4.452,17.659-0.269c2.426-2.249,3.79-5.186,3.849-8.295c0.066-2.885-1.062-5.633-3.141-7.731
					C425.594,285.536,417.359,285.602,412.303,290.401z"/>
				<path fill="#231F20" d="M445.515,258.12L445.515,258.12c-2.511,2.492-3.915,5.797-3.934,9.311
					c-0.013,3.226,1.167,6.203,3.324,8.374c2.105,2.124,4.918,3.291,7.928,3.305c3.318,0,6.498-1.351,8.951-3.803
					c4.892-4.872,5.239-12.675,0.793-17.41c-2.072-2.197-4.911-3.43-8.013-3.488C451.207,254.35,447.994,255.674,445.515,258.12z"/>
				<path fill="#231F20" d="M477.665,225.767c-2.406,2.472-3.62,5.823-3.62,9.167c0,3.22,1.128,6.426,3.377,8.839
					c2.013,2.144,4.629,3.318,7.37,3.311c2.793-0.013,5.456-1.226,7.502-3.429c4.544-4.905,4.649-12.635,0.242-17.606
					c-1.947-2.203-4.55-3.443-7.324-3.508C482.432,222.475,479.757,223.616,477.665,225.767z"/>
				<path fill="#231F20" d="M506.51,195.434L506.51,195.434c-1.515,1.665-2.42,4.458-2.42,7.481c0,3.6,1.227,6.97,3.443,9.488
					c1.955,2.203,4.341,3.403,6.708,3.364c1.816-0.033,3.488-0.853,4.688-2.308c3.345-4.059,2.649-11.232-1.534-15.986
					c-2.105-2.38-4.662-3.757-7.036-3.777C508.857,193.689,507.566,194.266,506.51,195.434z"/>
				<path fill="#231F20" d="M529.198,169.847c-0.256,0-0.301,0.019-0.472,0.236c-0.433,0.505-0.879,1.705-0.879,3.554
					c0,2.799,1.088,7.029,4.158,10.498c1.921,2.184,4.315,3.521,6.085,3.43c0.669-0.04,0.958-0.269,1.213-0.63
					c1.672-2.407,0.426-8.557-3.738-13.18C533.1,171.041,530.542,169.828,529.198,169.847z"/>
				<path fill="#231F20" d="M363.747,380.216c-0.322,0.216-0.433,0.373-0.453,0.42c0.007,0.459,0.531,1.43,1.941,2.282
					c4.76,2.931,12.261,3.646,16.052,1.528c0.098-0.052,0.144-0.085,0.21-0.138c-0.282-0.374-0.78-0.925-1.75-1.607
					C374.547,379.055,366.599,378.288,363.747,380.216z"/>
				<path fill="#231F20" d="M391.68,359.494c-0.99,0.794-2.177,2.105-2.177,3.836v0.197c0.052,1.62,1.24,2.82,2.223,3.508
					c4.603,3.272,12.413,3.364,17.048,0.183c1.403-0.944,2.197-2.177,2.256-3.462c0.059-1.364-0.702-2.793-2.164-3.993
					C404.461,356.105,396.12,355.98,391.68,359.494z"/>
				<path fill="#231F20" d="M423.168,332.702c-2.203,1.961-3.403,4.381-3.403,6.807c0,0.052,0,0.092,0,0.144
					c0.039,1.941,0.839,3.619,2.347,4.872c4.046,3.383,11.232,2.668,16.026-1.574c2.374-2.118,3.81-4.813,3.842-7.233
					c0-1.547-0.596-2.898-1.783-3.993C436.571,328.387,428.342,328.092,423.168,332.702z"/>
				<path fill="#231F20" d="M455.961,302.263c-2.498,2.4-3.928,5.64-3.928,8.879v0.15c0.013,2.321,0.787,4.315,2.171,5.587
					c3.429,3.173,10.032,2.092,14.727-2.427c4.531-4.354,5.764-10.492,2.734-13.672c-1.311-1.377-3.606-2.236-6.118-2.295
					C462.026,298.408,458.524,299.791,455.961,302.263z"/>
				<path fill="#231F20" d="M488.097,270.186c-2.466,2.557-3.882,6.098-3.882,9.717c0,2.741,0.833,5.259,2.243,6.761
					c1.101,1.154,2.524,1.75,4.242,1.757c2.807,0.013,5.856-1.456,8.347-4.039c4.538-4.708,5.626-11.652,2.426-15.455
					c-1.187-1.423-3.03-2.249-5.147-2.321C493.415,266.494,490.412,267.806,488.097,270.186z"/>
				<path fill="#231F20" d="M517.677,238.364c-2.053,2.321-3.285,5.863-3.285,9.482c0,3.069,0.898,5.915,2.453,7.796
					c1.088,1.286,2.374,1.961,3.823,1.981c2.026,0.033,4.242-1.135,6.072-3.207c3.882-4.393,4.308-11.868,0.925-16.334
					c-1.174-1.56-2.728-2.452-4.381-2.518C521.349,235.485,519.356,236.481,517.677,238.364z"/>
				<path fill="#231F20" d="M542.273,208.902l-0.02,0.007c-2.938,3.803-2.445,12.071,1.017,16.701
					c1.325,1.79,2.466,2.229,2.892,2.223c0.373-0.013,1.049-0.472,1.705-1.488c2.806-4.269,2.642-11.941-0.348-16.76
					c-0.793-1.246-1.849-2.02-2.852-2.072C543.611,207.466,542.784,208.24,542.273,208.902z"/>
				<path fill="#231F20" d="M403.923,389.586c4.249-0.026,8.557-0.269,12.898-0.649
					C412.926,387.717,407.568,387.946,403.923,389.586z"/>
				<path fill="#231F20" d="M433.109,368.052h-0.013c-2.302,1.954-3.056,3.744-2.997,4.767c0.013,0.243,0.04,0.735,0.984,1.37
					c3.606,2.413,10.183,1.391,14.36-2.255c2.413-2.118,3.462-4.295,3.436-5.508c-0.007-0.223-0.013-0.453-0.59-0.898
					C445.797,363.574,438.145,363.776,433.109,368.052z"/>
				<path fill="#231F20" d="M464.308,340.361c-2.491,2.308-3.98,5.115-3.98,7.495c0,0,0,0.111,0,0.21
					c0.059,1.311,0.603,1.744,0.78,1.882c2.229,1.77,8.157,0.531,12.754-3.777c2.675-2.518,4.36-5.482,4.36-7.731
					c0.007-0.879-0.256-1.207-0.505-1.442C476.026,335.377,469.376,335.679,464.308,340.361z"/>
				<path fill="#231F20" d="M495.599,310.27h-0.007c-2.826,2.819-4.498,6.393-4.465,9.547c0.007,1.416,0.393,2.295,0.754,2.649
					c1.377,1.331,6.157,0.485,10.53-3.876c4.643-4.622,5.561-9.993,4.151-11.659c-0.512-0.629-1.58-0.767-2.164-0.787
					C501.625,306.028,498.248,307.601,495.599,310.27z"/>
				<path fill="#231F20" d="M525.283,279.392L525.283,279.392c-4.577,4.957-5.18,12.131-3.331,14.36
					c0.322,0.393,0.597,0.525,1.095,0.545c1.403,0.039,4.013-0.931,6.741-3.823c4.452-4.714,5.527-10.904,3.711-13.52
					c-0.42-0.597-0.944-0.879-1.757-0.931C529.802,275.884,527.323,277.176,525.283,279.392z"/>
				<path fill="#231F20" d="M551.597,248.75L551.597,248.75c-2.242,3.108-3.278,7.232-3.278,10.701c0,2.328,0.459,4.36,1.331,5.626
					c0.085,0.125,0.557,0.774,0.911,0.767c0.414-0.013,1.384-0.538,2.249-1.934c1.724-2.754,2.629-6.511,2.629-9.948
					c0-2.445-0.453-4.728-1.403-6.38c-0.216-0.381-0.387-0.584-0.531-0.728C553.125,247.065,552.43,247.603,551.597,248.75z"/>
				<path fill="#231F20" d="M469.849,371.776c-1.495,1.364-2.393,2.603-2.911,3.58c2.04-0.544,5.266-1.98,8.76-5.219
					c1.141-1.056,1.961-1.98,2.577-2.774C475.967,367.861,472.826,369.088,469.849,371.776z"/>
				<path fill="#231F20" d="M499.094,344.44L499.094,344.44c-2.085,2.026-3.259,4.039-3.875,5.639
					c1.679-0.747,3.967-2.151,6.472-4.577c2.065-2,3.338-3.784,4.111-5.161C503.959,340.898,501.559,342.065,499.094,344.44z"/>
				<path fill="#231F20" d="M527.768,315.896c-2.564,2.642-3.81,5.337-4.406,7.449c1.115-0.715,2.445-1.699,3.98-3.259
					c2.918-2.964,4.44-5.672,5.141-7.534C531.165,313.103,529.526,314.099,527.768,315.896z"/>
			</g>
		</g>
	</g>
</g>
</svg>
