<?xml version="1.0" encoding="utf-8"?>
<!-- Generator: Adobe Illustrator 17.0.0, SVG Export Plug-In . SVG Version: 6.00 Build 0)  -->
<!DOCTYPE svg PUBLIC "-//W3C//DTD SVG 1.1//EN" "http://www.w3.org/Graphics/SVG/1.1/DTD/svg11.dtd">
<svg version="1.1" id="Layer_1" xmlns="http://www.w3.org/2000/svg" xmlns:xlink="http://www.w3.org/1999/xlink" x="0px" y="0px"
	 width="800px" height="600px" viewBox="0 0 800 600" enable-background="new 0 0 800 600" xml:space="preserve">
<g>
	<path fill="#231F20" d="M455.691,213.042c-6.429,2.671-12.578,4.83-19.12,6.171c-0.341-0.807-1.769-0.819-1.989,0.269
		c-0.007,0.042-0.022,0.072-0.026,0.114c-2.008,0.345-4.057,0.64-6.168,0.815c-8.187,0.697-16.366,1.007-24.576,0.545
		c-8.013-0.44-16.654-1.712-24.674-4.444c-0.019-0.08-0.053-0.148-0.068-0.227c-0.152-0.526-0.853-0.553-1.205-0.231
		c-4.406-1.603-8.604-3.659-12.381-6.3c0.008-0.155-0.004-0.315,0-0.466c0-0.708-0.852-0.834-1.307-0.481
		c-2.421-1.823-4.649-3.898-6.611-6.266c-0.235-0.299-0.693,0.053-0.474,0.352c2.008,2.758,4.262,5.153,6.717,7.24
		c-2.542,21.874,16.677,37.521,36.502,41.324c23.193,4.459,51.698-8.126,52.004-34.619c1.428-0.731,2.83-1.508,4.179-2.406
		C457.267,213.909,456.532,212.697,455.691,213.042z M402.425,223.331c8.44,0.629,16.953,0.367,25.371-0.36
		c1.974-0.166,3.94-0.386,5.902-0.659c-0.648,1.485-1.568,2.743-2.641,3.834c-0.28,0.061-0.507,0.28-0.587,0.553
		c-6.634,5.94-19.238,5.826-27.179,5.027c-5.338-0.542-10.683-1.823-15.472-4.266c-3.879-1.966-6.259-4.724-7.774-8.361
		C387.15,221.543,394.81,222.778,402.425,223.331z M374.92,235.549c-6.3-6.645-9.009-15.12-9.388-24.057
		c3.694,2.845,7.808,5.039,12.149,6.744c0.28,3.713,2.323,6.619,5.232,8.88c-1.663,2.099-2.891,4.516-3.701,7.058
		c-0.296,0.89-0.803,2.516-0.515,3.664c-0.042,0.367-0.061,0.735-0.076,1.102C377.334,237.872,376.076,236.769,374.92,235.549z
		 M399.921,248.748c-7.153-1.364-14.116-4.304-19.95-8.714c0.007-0.03,0.026-0.034,0.034-0.068c0.095-0.349,0.174-0.701,0.261-1.061
		c0.144-0.076,0.273-0.186,0.333-0.356c0.553-1.394,0.413-3.175,0.894-4.675c0.651-2.016,1.595-4.004,2.72-5.827
		c5.8,3.845,14.161,5.554,19.572,6.115c8.554,0.871,20.946,0.485,27.898-5.581c3.05,3.375,5.092,7.467,5.895,11.979
		c0.019,0.106,0.064,0.193,0.114,0.284C427.455,248.54,412.566,251.131,399.921,248.748z M439.692,239.205
		c-0.996-4.535-3.129-8.914-6.706-11.911c1.349-1.489,2.413-3.247,3.095-5.349c4.762-0.807,9.441-2.023,13.851-3.944
		C449.512,227.01,445.564,234.06,439.692,239.205z"/>
	<path fill="#231F20" d="M532.199,165.061c-0.621-4.44-2.822-8.528-5.978-11.672c-1.3-1.3-3.129-2.553-5.111-3.375
		c8.267-6.297,2.201-19.064-3.724-24.648c-6.471-6.115-17.855-10.043-26.33-5.993c0.549-2.716-0.492-6.039-1.367-8.452
		c-1.269-3.496-3.576-6.554-6.285-9.058c-3.114-2.872-7.153-4.44-11.164-4.421c1.618-8.168-4.361-17.109-10.46-21.931
		c-6.441-5.065-14.995-6.815-23.008-6.668c-6.959,0.132-13.688,3.015-19.817,6.054c-1.348,0.667-8.857,4.341-9.089,7.145
		c-3.296-2.455-7.819-3.417-12.172-3.144c-6.478,0.417-15.911,3.796-20.117,9.57c-5.743-8.468-18.321-9.236-27.05-3.216
		c-4.879,3.364-8.38,8.679-10.664,14.051c-1.182,2.766-1.966,5.69-2.413,8.653c-0.216,1.39-0.689,3.811,0.031,5.255
		c-4.202-0.701-8.748,0.678-12.256,3.86c-2.383,2.171-3.925,5.38-3.963,8.331c-5.581-3.038-12.919-0.97-17.779,2.553
		c-6.384,4.633-10.176,12.4-12.017,19.878c-1.871,7.626-1.333,16.033,2.724,22.848c3.523,5.891,9.195,8.46,15.267,8.721
		c-6.732,4.838-5.133,17.874-2.603,24.254c1.917,4.876,6.372,9.975,11.509,11.589c-12.612,12.805,15.627,28.126,27.372,18.598
		c1.803,3.137,3.925,6.1,6.399,8.8c8.486,9.271,19.992,14.249,32.191,16.124c-4.713,0.879-9.498,3.989-13.18,6.311
		c-5.285,3.323-11.449,7.433-15.578,12.237c-0.394,0-0.784,0.319-0.727,0.773c0.258,2.364,1.227,4.705,2.387,6.925
		c-3.243,3.486-6.065,7.903-7.872,10.331c-4.485,6.031-10.49,13.991-11.911,21.738c-0.849,0.83-1.269,2.103-0.762,3.436
		c1.769,4.713,6.899,8.463,10.778,11.396c2.872,2.178,6.016,4.232,9.286,5.982c-2.182,5.523-2.489,12.676,2.076,16.252
		c-0.174,0.867-0.182,1.815-0.261,2.55c-0.299,2.637-0.367,5.312-0.439,7.96c-0.046,1.568-1.027,7.482,1.421,7.907l0,0
		c-0.004,0.068-0.027,0.129-0.027,0.208c0.08,1.527,0.182,3.065,0.242,4.592c0.053,1.273-0.447,2.807-0.383,4.122
		c-0.974,0.367-1.989,0.727-3.023,1.057c-0.564,0.186-0.386,1.012,0.14,1.099c0.587,0.099,1.167,0.121,1.75,0.129
		c-1.655,3.94-2.137,8.532-2.902,12.695c-0.924,5.02-1.724,10.066-2.538,15.097c-0.091,0.583,0.36,1.197,0.962,1.258
		c4.899,0.515,9.687,1.557,14.461,2.664c-1.364,4.573-1.55,9.903-2.603,14.514c-0.667,2.894-2.182,5.493-2.777,8.395
		c-0.114,0.508-0.019,1.038,0.193,1.512c-0.291,1.443,0.356,3.19,1.754,3.944c10.517,5.637,27.58,2.898,38.995,1.936
		c5.872-0.489,11.706-1.22,17.578-1.788c-1.618,11.983-3.213,23.973-4.792,35.971c-1.269,9.649-2.349,19.317-3.812,28.932
		c-1.239,8.142-3.83,15.821-5.925,23.663c-7.74-0.724-15.987,7.49-19.731,13.195c-0.413,0.629-0.208,1.277,0.413,1.644
		c5.573,3.273,15.862,9.255,22.253,5.145c3.512-2.269,3.611-7.168,2.743-10.744c-0.572-2.356-2.042-5.743-4.152-7.748
		c0.25-0.011,0.489-0.026,0.727-0.034c0.076,0.06,0.163,0.102,0.224,0.163c0.038-0.068,0.064-0.129,0.098-0.193
		c0.28-0.034,0.383-0.333,0.299-0.568c2.743-5.186,4.398-11.157,5.865-16.601c2.811-10.342,4.626-20.852,6.429-31.414
		c2.368-13.942,4.41-27.94,6.365-41.954c5.959-0.265,11.93-0.019,17.87-0.485c-1.068,1.913-1.883,4.463-2.163,5.016
		c-2.281,4.66-3.364,9.388-2.122,14.502c1.087,4.455,7.422,17.275,13.68,10.793c2.379-2.459,2.387-6.925,2.508-10.1
		c0.133-3.697-0.121-7.38-0.856-10.998c-1.315-6.539-5.705-15.661-13.169-12.979c-4.705-1.307-9.789-1.739-14.915-1.766
		c0.947-6.887,1.894-13.759,2.841-20.647c0.587,0.076,1.182,0.155,1.777,0.227c7.058,0.822,16.586,1.803,22.147-3.584
		c0.44-0.14,0.886-0.307,1.341-0.421c0.519-0.132,1.068-0.485,1.106-1.099c0.352-6.668,1.061-13.294,1.489-19.946
		c0.685,0.008,1.36-0.114,2-0.386c0.394-0.174,0.466-0.826,0.008-0.981c-0.701-0.239-1.428-0.519-2.171-0.826
		c0.053-0.08,0.087-0.174,0.11-0.261c0.39-2.137-0.242-4.777-0.14-6.993c0.114-2.527,0.5-5.069,0.538-7.607
		c0.549-0.098,1.083-0.204,1.629-0.28c0.568-0.064,1-0.519,1.087-1.08c0.576-3.762,0.167-7.372-0.519-11.104
		c-0.454-2.455-0.576-5.505-1.201-8.081c4.349,1.148,8.225-3.41,9.967-7.073c1.508-3.141,2.262-6.819,1.137-10.176
		c-0.496-1.432-1.47-2.713-2.652-3.827c1.155-1.174,2.277-2.402,3.41-3.576c3.326-3.467,6.546-7.001,9.744-10.578
		c1.561-1.743,0.762-3.804-0.754-4.879c-0.315-5.005-8.369-11.168-11.07-14.154c-4.198-4.648-8.335-9.338-12.498-14.017
		c1.201-1,2.296-2.103,3-3.334c0.758-0.083,1.243-1.057,0.523-1.743c-4.883-4.63-9.467-9.824-14.76-14.002
		c-0.955-0.739-9.877-5.762-12.726-6.706c3.637-0.921,7.221-2.08,10.71-3.614c7.974-3.485,15.199-8.467,21.238-14.566
		c5.785,1.762,14.953-1.182,15.267-7.535c4.971,1.144,10.843-0.553,15.025-3.042c5.319-3.129,10.884-10.161,6.774-16.082
		c7.478,0.341,14.968-4.209,19.052-10.642c4.243-6.709,3.849-15.339-0.86-21.166C529.778,182.366,533.199,172.24,532.199,165.061z
		 M410.006,541.502c1.462,3.936,0.762,9.453-4.213,9.99c-5.33,0.58-11.6-2.72-16.332-5.421c3.762-5.425,9.327-10.108,15.779-11.574
		C407.111,536.778,408.903,538.551,410.006,541.502z M449.012,442.687c0.208-0.026,0.417-0.042,0.621-0.068
		c0.114-0.012,0.182-0.087,0.261-0.133c0.913,0.674,1.735,1.655,2.481,2.989c1.47,2.61,2.209,5.645,2.735,8.554
		c0.894,4.97,1.087,10.729-0.28,15.62c-1.095,3.906-4.69,2.595-6.713,0.22c-1.982-2.334-3.201-5.49-3.917-8.433
		c-0.958-3.944-0.03-7.755,1.489-11.43C446.678,447.632,448.14,445.135,449.012,442.687z M354.027,329.071
		c-3.463-3.307-6.785-7.399-10.434-10.615c3.561-6.418,6.857-12.782,11.21-18.821c1.981-2.75,4.11-5.372,6.357-7.895
		c1.55,2.36,3.645,4.918,6.179,5.319c0.095,0.011,0.189,0.011,0.288,0.007c0.08,0.485,0.871,0.705,1.281,0.299
		c1.095-1.084,2.031-2.315,2.982-3.519c0.061-0.08,0.129-0.152,0.189-0.227c-0.288,0.985-0.576,1.962-0.841,2.951
		c-1.565,5.66-2.883,11.362-4.27,17.048c-0.629,2.622-1.288,5.232-1.962,7.846c-0.762,2.932-2.122,5.925-2.231,8.971
		c-0.004,0.318,0.11,0.564,0.288,0.739c-1.262,0.292-2.444,0.86-3.338,1.716c-0.114,0.045-0.22,0.121-0.31,0.246
		c-0.167,0.201-0.326,0.436-0.489,0.655C357.312,332.189,355.641,330.632,354.027,329.071z M357.751,343.653
		c0.175-2.648,1.315-4.997,2.254-7.414c0.864-1.254,1.576-2.508,3.22-3.152c1.894-0.746,3.993,0.311,5.436,1.47
		c3.789,3.069,3.864,8.35,1.853,12.373c-1.538,3.069-6.122,7.925-9.899,5.561C357.899,350.791,357.585,346.453,357.751,343.653z
		 M410.324,438.236c-7.391,0.292-14.771,0.788-22.159,0.921c-6.153,0.099-12.297-1.122-18.382-1.402
		c0.765-1.66,1.36-3.501,1.674-4.645c1.368-5.001,3.735-10.737,3.455-16.108c1.777,0.394,3.55,0.784,5.353,1.117
		c4.175,0.773,8.395,1.072,12.631,0.974c3.368-0.08,7.221-0.015,10.229-1.697c0.72-0.413,0.834-1.205,0.561-1.792
		c0.106-0.076,0.204-0.163,0.273-0.288c0.409-0.792-0.008-1.754-0.08-2.595c-0.121-1.655,0.201-3.398,0.439-5.02
		c0.019-0.14,0.072-0.326,0.102-0.493c0.045,0.375,0.08,0.762,0.125,1.141c0.227,1.833,0.326,4.69,1.322,6.581
		c-0.516,0.394-0.042,1.193,0.553,1.155c0.095-0.007,0.182-0.023,0.265-0.03c0.015,0.015,0.023,0.015,0.03,0.03
		c0.398,0.36,0.917,0.212,1.231-0.136c3.872-0.345,7.615-0.811,11.574-0.587c1.906,0.11,3.8,0.315,5.683,0.549
		c-1,7.225-1.989,14.457-2.962,21.701C418.132,437.789,414.097,438.088,410.324,438.236z M458.99,391.896
		c-2.898,5.55-2.845,12.737-3.091,18.908c-1.402,0.489-2.648,1.148-3.97,1.925c-0.193,0.118-0.299,0.273-0.367,0.432
		c-7.217,3.103-15.635,1.561-23.349,0.576c-6.084-0.762-13.885-2.224-19.969,0.053c-0.186-2.19-1.163-4.792-1.463-6.706
		c-0.459-2.985-0.852-6.069-1.663-8.982c-0.11-0.386-0.678-0.254-0.739,0.095c-0.114,0.667-0.159,1.352-0.208,2.034
		c-1.421,1.667-1.932,6.312-2.228,7.884c-0.246,1.25-1.159,5.38-0.011,7.028c-3.311,1.375-7.263,1.235-10.786,1.329
		c-4.417,0.121-8.854-0.636-13.176-1.462c-7.6-1.455-15.025-3.664-22.769-4.304c0.735-4.652,1.47-9.301,2.243-13.945
		c0.701-4.285,1.947-8.71,2.031-13.067c4.868-0.561,9.259-4.281,11.722-8.399c4.463,0.746,9.024,1.193,13.259,1.773
		c8.869,1.216,17.749,2.421,26.637,3.512c8.52,1.046,16.901,1.254,25.368-0.182c3.383-0.572,6.959-1.106,10.505-1.788
		c-0.148,3.478,2.353,6.766,4.675,9.1C453.312,389.391,456.225,391.475,458.99,391.896z M361.1,372.771
		c2.356,0.875,4.861,1.508,7.399,2.023c-1.72,2.622-4.008,4.341-6.652,5.626c0.095-0.735,0.076-1.497,0.068-2.163
		C361.888,376.389,361.615,374.567,361.1,372.771z M457.399,383.008c-0.091,1.595-0.405,3.989,0.174,5.743
		c-4.251-2.216-8.16-5.671-8.031-10.68c3.027-0.671,6.008-1.496,8.804-2.61C457.687,377.889,457.555,380.537,457.399,383.008z
		 M469.833,343.971c-0.981,3.41-4.159,9.444-8.622,7.755c-4.63-1.735-5.198-9.903-4.319-13.866c0.978-4.402,4.126-6.145,7.71-5.899
		c1.375,1.455,2.982,2.648,4.296,4.156C470.879,338.398,470.617,341.255,469.833,343.971z M468.564,308.159
		c0.826,0.875,4.592,5.319,7.952,7.736c-2.349,2.974-4.637,5.993-6.819,9.088c-1.235,1.746-2.614,3.497-3.868,5.315
		c-3.137-1.201-6.319-0.477-8.675,2.076c-0.326-5.27-3.452-10.797-5.118-15.715c-1.947-5.751-3.614-11.581-5.751-17.252
		c-0.689-1.864-1.492-3.686-2.333-5.478c0.685-0.102,1.413-0.295,2.114-0.553c0.14,0.057,0.292,0.099,0.447,0.091
		c1.288-0.026,2.402-0.94,3.497-1.576c0.792-0.459,1.568-0.94,2.349-1.44C457.619,296.49,463.037,302.408,468.564,308.159z
		 M436.688,262.932c3.171,1.811,6.361,3.538,9.255,5.789c5.084,3.963,8.88,9.585,14.139,13.309c-2.36,1.39-4.501,3.481-6.744,4.97
		c-0.053,0.049-0.129,0.076-0.189,0.121c-0.845,0.455-1.705,0.902-2.553,1.36c0.045,0.049,0.087,0.095,0.125,0.148
		c-0.512,0.307-1.008,0.648-1.527,0.955c-0.129,0.08-0.273,0.148-0.409,0.22c-0.106-0.008-0.22,0.007-0.337,0.072
		c-0.375,0.201-0.724,0.436-1.068,0.663c-0.167,0.095-0.334,0.201-0.497,0.299c-0.386,0.254-0.758,0.507-1.167,0.72
		c-0.758,0.417-1.546,0.796-2.296,1.243c-1.568-3.277-3.243-6.501-4.815-9.774c-2.655-5.531-4.758-11.267-6.626-17.101
		c-0.068-0.227-0.383-0.114-0.375,0.091c0.761,11.873,7.982,22.193,12.111,33.036c2.167,5.671,3.758,11.551,5.611,17.328
		c0.913,2.872,1.955,5.698,3.023,8.516c1.053,2.781,1.549,5.918,2.917,8.539c0.166,0.322,0.421,0.489,0.67,0.553
		c-0.231,0.394-0.477,0.781-0.685,1.208c-2.614,5.494-1.182,14.987,4.224,18.397c-0.599,2.137-0.053,4.751,0.242,6.838
		c0.557,4.005,1.292,7.857,0.852,11.881c-0.595,0.114-1.167,0.258-1.746,0.44c-3.486,0.735-6.835,2.034-10.365,2.648
		c-4.13,0.716-8.213,1.633-12.335,2.383c-8.702,1.587-17.351,1.106-26.083,0.053c-8.414-1.023-16.81-2.224-25.231-3.311
		c-8.039-1.026-16.276-3.269-24.368-3.751c-0.042-0.731,0.019-2,0.011-2.5c-0.053-2.197,0.008-4.372,0.015-6.554
		c0.015-1.501,0.44-4.262,0.235-6.479c4.857,1.823,9.956-3.538,12.047-7.346c2.94-5.353,1.549-12.4-3.614-15.821
		c-1.307-0.868-2.996-1.209-4.66-1.103c0.008-0.012,0.023-0.03,0.034-0.045c2.201-4.349,2.989-9.657,4.103-14.374
		c1.349-5.683,2.607-11.396,4.005-17.075c2.743-11.203,6.107-22.375,11.278-32.729c0.125-0.246-0.265-0.481-0.413-0.246
		c-4.372,7.126-7.494,14.711-10.017,22.572c-1.243,0.936-2.137,2.383-3.065,3.603c-0.637,0.856-1.25,1.728-1.834,2.618
		c-0.121-0.223-0.299-0.428-0.572-0.595c-2.05-1.197-3.425-2.789-4.793-4.717c-2.463-3.47-3.936-7.573-6.217-11.119
		c4.736-3.088,8.861-7.41,13.529-10.687c2.803-1.974,5.755-3.724,8.831-5.259c2.667-1.322,5.565-2.068,8.255-3.285
		c2.712,1.515,6.281,2.118,8.997,2.618c0.762,0.133,1.523,0.254,2.292,0.345c-4.395,11.6,24.659,17.01,25.194-0.311
		c0.007-0.03-0.012-0.042-0.008-0.068c2.91-0.36,5.808-0.856,8.66-1.492c0.008,0.045-0.019,0.106,0,0.159
		C433.233,262.087,435.9,262.477,436.688,262.932z M400.163,262.747c4.557,0.5,9.206,0.466,13.752,0.28
		c2.603-0.095,5.19-0.269,7.766-0.526c-0.727,6.505-6.558,9.149-12.578,8.57C403.724,270.555,401.258,267.558,400.163,262.747z
		 M465.048,240.141c-0.216-0.007-0.436-0.023-0.64-0.034c-0.417-0.007-0.742,0.519-0.341,0.822c0.034,0.027,0.091,0.046,0.133,0.072
		c-5.778,5.55-12.597,10.017-19.897,13.294c-9.074,4.054-18.685,5.425-28.512,6.039c-5.558,0.345-11.119,0.352-16.654-0.208
		c-2.504-0.246-4.993-0.682-7.456-1.227c-0.898-0.201-1.78-0.489-2.674-0.769c-0.053-0.402-0.299-0.788-0.815-0.913
		c-6.47-1.622-12.983-2.917-19.135-5.546c-5.952-2.542-11.119-6.637-15.453-11.377c-2.455-2.69-4.501-5.653-6.16-8.801
		c-0.053-0.178-0.14-0.341-0.265-0.474c-2.838-5.531-4.512-11.642-5.141-17.908c-1.989-19.563,5.951-39.264,15.108-56.111
		c0.064-0.121,0.095-0.235,0.095-0.341c4.91,5.023,12.835,7.501,19.802,7.652c5.698,0.129,11.498-1.205,16.309-4.322
		c3.254-2.103,5.444-4.982,6.849-8.267c1.902,7.445,11.487,10.161,19.719,9.255c-1.367,3.235-0.886,7.221,0.72,10.274
		c2.637,5.004,8.054,8.244,13.081,10.422c5.383,2.315,11.536,3.584,17.393,2.959c4.3-0.455,8.179-2.565,11.384-5.459
		c0.974,6.065,5.312,10.642,11.563,12.498c1.724,0.515,3.732,0.848,5.826,0.985c-1.488,4-0.159,7.562,2.455,10.164
		c-0.913,5.686-1.72,11.229-3.675,16.749c-2.004,5.652-5.198,10.687-8.918,15.351C468.291,236.757,466.708,238.493,465.048,240.141z
		 M523.178,191.69c0.875,4.258-0.507,8.675-2.803,12.244c-5.278,8.248-14.753,10.604-23.894,8.656
		c-0.481-0.102-0.591,0.58-0.212,0.784c1.481,0.83,3.023,1.36,4.577,1.701c0.019,0.068,0.019,0.114,0.053,0.182
		c1.273,2.754,2.102,4.956,0.886,7.914c-1.205,2.966-4.156,5.118-6.88,6.611c-5.27,2.917-12.684,4.198-18.192,1.197
		c-0.341-0.182-0.743,0.311-0.47,0.591c1.14,1.167,2.47,1.985,3.902,2.523c-1.958,2.448-2.966,4.538-6.236,5.743
		c-1.909,0.708-3.819,0.682-5.74,0.542c9.035-9.808,15.086-22.219,16.453-35.744c2.682,1.701,6.001,2.648,9.096,2.447
		c1.049-0.061,0.966-1.587,0.011-1.758c-3.247-0.602-6.524-1.678-8.888-3.493c0.007-0.204,0.03-0.405,0.042-0.614
		c0.034-1.061-1.095-1.515-1.769-1.068c-1.474-1.86-2.175-4.281-1.519-7.433c5.095,0.049,10.494-1.148,13.839-4.236
		c0.58-0.542,0.072-1.386-0.682-1.174c-6.391,1.754-11.824,3.705-18.598,2.402c-6.823-1.303-10.702-5.978-11.816-12.366
		c1.622-1.762,3.023-3.728,4.152-5.736c0.299-0.53-0.496-1.148-0.936-0.727c-1.36,1.3-2.663,2.641-3.978,3.936
		c-0.511-0.208-1.227-0.007-1.269,0.667c-0.011,0.186-0.004,0.375-0.011,0.561c-3.224,3.008-6.698,5.512-11.502,6.118
		c-4.906,0.614-10.077-0.595-14.669-2.228c-4.698-1.682-9.286-4.327-12.415-8.274c-3.004-3.777-2.444-7.115-1.394-11.062
		c2.674-0.557,5.096-1.504,6.895-2.819c0.621-0.466,0.034-1.318-0.636-1.121c-1.997,0.606-4.001,1.114-6.016,1.462
		c-0.22-0.14-0.504-0.182-0.697,0.008c-0.042,0.03-0.068,0.08-0.114,0.125c-2.849,0.436-5.747,0.561-8.71,0.174
		c-5.845-0.754-9.649-3.845-12.028-8.929c0.864-2.766,1.258-5.736,1.307-8.725c0.019-0.762-0.966-0.902-1.163-0.163
		c-1.871,6.993-2.902,13.074-9.312,17.381c-4.398,2.963-10.043,3.925-15.256,3.804c-10.221-0.212-20.564-5.236-23.701-15.544
		c-0.053-0.182-0.318-0.087-0.318,0.087c0.239,3.66,1.614,6.732,3.69,9.233c-0.33-0.042-0.656,0.049-0.86,0.394
		c-10.464,17.537-18.158,38.616-15.783,59.32c0.667,5.74,2.368,11.244,4.937,16.328c-6.065,2.902-12.335,3.008-18.742,0.212
		c-2.962-1.292-5.804-3.444-7.3-6.365c-1.781-3.478-0.148-6.725,1.474-9.835c2.515,0.405,5.137-0.061,7.683-1.838
		c0.572-0.413,0.159-1.36-0.531-1.254c-4.103,0.595-7.671,1.118-11.381-1.246c-3.318-2.114-5.448-5.74-6.861-9.316
		c-1.561-3.921-2.057-8.202-1.69-12.384c0.341-3.948,2.164-6.857,3.971-10.168c4.004-0.121,8.115-1.19,11.812-2.936
		c0.879-0.405,0.587-1.894-0.443-1.686c-5.891,1.178-11.755,3.129-17.752,1.371c-3.864-1.133-7.047-4.497-8.964-7.933
		c-3.349-6.046-3.262-13.48-1.796-20.045c1.463-6.581,4.895-12.983,9.945-17.476c2.334-2.061,5.152-3.569,8.187-4.262
		c3.197-0.72,6.145,0.027,9.248,0.546c0.447,2.349,2.015,4.372,5.133,5.292c1.167,0.341,1.818-1.129,0.746-1.727
		c-5.634-3.156-3.989-8.748,0.106-12.559c5.686-5.296,12.638-3.868,18.135,0.746c0.182,0.163,0.436-0.099,0.296-0.292
		c-1.97-2.697-4.565-4.345-7.35-5.031c0.523-0.86,0.481-1.996,0.644-2.996c0.36-2.455,0.947-4.823,1.72-7.172
		c1.587-4.86,4.205-9.376,7.687-13.119c3.849-4.156,9.202-6.637,14.881-6.584c7.774,0.061,11.509,4.762,14.946,11.017
		c0.439,0.811,1.962,0.606,1.708-0.447c-0.348-1.462-0.867-2.75-1.474-3.951c5.224-4.133,10.123-7.49,16.98-8.755
		c3.337-0.629,6.827-0.523,10.024,0.633c3.868,1.409,5.728,4.694,7.305,8.248c0.383,0.867,1.769,0.542,1.621-0.424
		c-0.455-2.898-1.735-5.167-3.531-6.872c1.007-0.83,1.883-1.849,2.959-2.637c2.281-1.697,4.876-2.97,7.437-4.186
		c4.914-2.315,10.206-4.429,15.65-4.91c16.635-1.462,32.475,8.793,32.816,26.379c-2.057,0.353-4.05,1.137-5.872,2.425
		c-0.387,0.277-0.019,0.872,0.405,0.705c6.475-2.599,12.339-1.796,17.583,2.91c2.459,2.197,4.194,5.163,5.387,8.191
		c1.167,2.944,0.64,5.834,1.379,8.763c0.015,0.042,0.034,0.061,0.049,0.099c-0.341,0.242-0.689,0.466-1.008,0.746
		c-0.754,0.629-0.053,2.076,0.894,1.565c8.873-4.83,18.329-3.178,26.129,3.027c3.451,2.75,6.092,6.44,7.433,10.63
		c1.519,4.77-0.421,8.653-2.027,12.979c-1.902-0.655-3.891-0.886-5.645-0.326c-0.223,0.064-0.208,0.398-0.007,0.485
		c3.777,1.542,7.085,2,10.092,5.084c2.599,2.655,4.126,6.213,4.842,9.804c0.678,3.482,0.318,7.069-1.171,10.293
		c-1.826,3.959-5.129,4.891-8.74,6.368c-1.042-0.875-2.208-1.659-3.508-2.296c-0.909-0.443-1.591,0.853-0.871,1.466
		C518.909,183.708,522.159,186.731,523.178,191.69z"/>
	<path fill="#231F20" d="M385.055,192.436c-0.405,2.963-2.875,5.061-5.508,4.69c-2.637-0.356-4.44-3.053-4.031-6.008
		c0.413-2.963,2.879-5.065,5.516-4.698C383.668,186.784,385.471,189.474,385.055,192.436z"/>
	<path fill="#231F20" d="M437.934,202.604c-0.413,2.963-2.879,5.073-5.516,4.705c-2.629-0.364-4.433-3.069-4.023-6.024
		c0.413-2.955,2.883-5.065,5.516-4.698C436.54,196.956,438.344,199.657,437.934,202.604z"/>
</g>
</svg>
