<?xml version="1.0" encoding="utf-8"?>
<!-- Generator: Adobe Illustrator 17.0.0, SVG Export Plug-In . SVG Version: 6.00 Build 0)  -->
<!DOCTYPE svg PUBLIC "-//W3C//DTD SVG 1.1//EN" "http://www.w3.org/Graphics/SVG/1.1/DTD/svg11.dtd">
<svg version="1.1" id="Layer_1" xmlns="http://www.w3.org/2000/svg" xmlns:xlink="http://www.w3.org/1999/xlink" x="0px" y="0px"
	 width="800px" height="600px" viewBox="0 0 800 600" enable-background="new 0 0 800 600" xml:space="preserve">
<path fill-rule="evenodd" clip-rule="evenodd" fill="#080807" d="M412.745,37.432c-28.345-5.518-48.299,18.102-46.183,44.614
	c-18.65,1.04-3.156,27.815-2.891,39.626c-2.098,4.46-7.88,6.293-7.085,12.868c-19.162,9.713-37.793,20.73-56.425,29.384
	c-14.966,29.668-32.295,58.277-33.069,92.121c-11.3,13.644-23.621,27.041-35.695,39.38c-7.087-0.528-14.701-3.42-21.788-2.362
	c-6.292,4.97-8.919,12.585-11.281,19.672c0,19.69,24.395,32.03,39.625,18.632c11.811,21.523,36.735-6.029,54.857-5.234
	c-14.701,11.281-25.207,37.528-47.241,32.539c2.362,7.862,12.585,18.104,19.936,23.092c-33.579,27.286-75.851,49.074-99.717,87.132
	c-1.058,14.702,0,29.668,8.654,41.723c6.029,5.783,13.38,9.713,20.73,13.662c64.834,11.282,132.01-7.35,196.579,1.04
	c24.414,7.351,46.183,22.846,61.98,44.105c7.937,6.292,14.967,14.418,22.45,20.465c7.029-4.46,8.107-13.38,6.369-20.994
	c-1.663-6.822-7.993-10.507-13.322-14.173c0.264-20.219-19.294-34.901-26.039-53.288c2.967-16.005,8.711-37-11.281-44.879
	c-15.23,0.263-28.08,11.299-43.047,12.603c-1.303-9.448-2.362-18.895-3.665-28.344c18.102-3.666,35.695-11.016,53.004-17.838
	c10.185,2.873,17.14,12.849,24.85,20.2c2.399,8.655,0.453,19.161,7.747,25.719c6.991,3.931,16.534,4.989,24.282,2.362
	c5.291-3.402,10.317-7.35,14.437-12.34c21.958-44.879,67.347-119.671,8.787-149.583c0.34-2.098,1.417-3.95,1.002-6.311
	c-2.4-6.029-4.593-11.547-2.04-18.103c3.684,2.89,7.633,5.254,11.148,8.39c2.796,2.891,6.765,3.95,9.713,6.312
	c13.737,26.247,24.716,53.004,29.251,81.878c15.968,14.967,41.496-2.627,53.156,17.594c-6.331,2.361-14.078,25.189,1.303,17.573
	c-1.001,8.673,9.75,11.281,13.133,17.063c17.214-10.506,22.128-27.815,20.804-46.976c-0.358-11.545-6.821-18.367-17.8-20.994
	c0.472-3.685,5.782-4.723,6.708-8.409c-24.282-32.275-47.959-65.079-67.724-100.246c-34.411-22.051-47.6-61.678-68.235-94.482
	c-23.695-9.448-46.845-19.956-66.006-38.058c3.326-7.351,15.911-23.885,3.1-26.512C462.84,72.598,439.749,41.098,412.745,37.432
	L412.745,37.432z M393.584,53.438c1.323,13.908,21.788,18.632,32.275,11.546c-3.402-1.058-0.51-3.156,0.265-4.989
	c-3.137,0.793-8.654,7.88-9.958,2.626c-1.478,1.924-2.788,1.433-3.372,0.171c-0.455-0.982,3.171-5.3,0.216-3.571
	c-1.058,1.304-1.569,4.969-3.93,3.665c-0.397-0.917-0.397-1.899-0.397-2.915c0-1.016,2.648-4.932-0.397-3.114
	c-0.265,2.098-2.626,7.333-4.989,2.873C400.141,64.983,396.211,55.8,393.584,53.438L393.584,53.438z M385.97,58.691
	c-7.597,1.567-10.488,9.977-12.586,16.533c-2.89,11.547,0.775,22.828-1.322,34.638c2.627,9.713,6.558,21.524,3.156,31.237
	c-2.362-0.529-0.793-4.46-1.323-6.292c-0.511-6.313-0.511-12.869-3.665-18.387c-0.795,16.024,0.265,39.89,19.161,44.88
	c18.368,0,36.734-13.909,41.193-32.276c-2.607,2.098-5.233,4.989-7.086,7.88c-0.774,2.627-5.764,5.234-3.931,0.51
	c0.793-0.775,1.324-1.833,1.834-3.137c8.408-9.448,15.495-20.219,16.798-32.804c3.629-9.977,6.331-22.317,0-32.029
	c-0.775-0.793-1.569-1.569-2.891-1.304C419.037,79.155,395.682,78.117,385.97,58.691L385.97,58.691z M378.108,85.713
	c-0.529,0-1.322,0.265-1.587,0.794c2.891,6.292,8.938,11.281,13.398,16.534c-4.46-1.833-9.184-7.085-14.172-5.782
	c-1.853,2.362,2.361,11.3,4.459,7.087c-0.794-4.725,1.04,0,1.569,2.116c1.832,3.665,5.252,1.568,7.616,0.775
	c0,0.265,0.794,0.53,0.529,1.059c-5.253,3.93,4.988,3.402,7.086,1.832C396.74,99.375,384.93,92.535,378.108,85.713L378.108,85.713z
	 M362.878,86.506c-1.833,0.265-2.098,3.42-1.833,4.989c1.04-1.587,3.156-1.569,4.194,0
	C365.239,89.662,364.446,87.564,362.878,86.506L362.878,86.506z M361.044,92.535c-1.323,4.214-1.323,11.299,2.362,14.437
	c0-0.511,0-1.04,0-1.569C360.515,101.472,362.878,96.749,361.044,92.535L361.044,92.535z M430.583,97.787
	c-7.86,1.323-14.946,6.312-21.768,10.771c-0.264-1.323,0-2.891-0.793-4.213c-0.529-0.775-1.833-0.511-2.361,0
	c0,1.058-0.53,1.852-0.53,2.627c-0.265,7.086-6.292,13.662-4.723,20.219c4.988-0.264,6.557-6.558,7.879-10.242
	c3.931,2.627,8.654,2.098,7.087-3.401c2.891,2.361,8.125,3.665,9.712-1.324c0.529-0.264,1.04-0.793,1.569-0.528
	c-0.265,2.097-4.46,3.42-1.832,5.517c3.665-1.058,7.879-5.782,7.615-9.712c-4.46-1.833-9.449,0.794-13.661,0.265
	c0.529-0.794,1.323-1.059,2.116-1.569c3.136-3.156,7.596-3.949,10.486-7.087C431.642,98.316,430.848,98.052,430.583,97.787
	L430.583,97.787z M448.176,103.041c-2.91-0.529-5.669,2.098-5.725,4.988c1.019-0.263,1.756-1.832,3.023-1.322
	c0.548,0.529,1.077,1.059,0.869,1.852c-5.045,3.401-4.422,9.959-9.183,13.114c-0.264,0.793-0.53,1.323-0.793,2.098
	c7.577-1.833,9.372-12.34,12.074-18.632C448.383,104.345,448.63,103.57,448.176,103.041L448.176,103.041z M390.183,128.759
	c-0.794-0.265-1.324,0.263-1.588,0.793c2.362,7.615,13.908,8.125,17.858,1.833c-2.627-2.627-7.087,0.794-9.978,1.568
	C393.849,132.443,392.28,130.082,390.183,128.759L390.183,128.759z M438.993,130.082c-1.833,0-3.156,1.832-4.46,2.872
	c-13.133,19.69-29.932,39.38-31.5,64.041c6.557-18.104,18.367-34.373,29.667-50.133c2.098-3.665,5.234-7.332,9.883-6.822
	c1.55,1.059,1.076,2.892,1.134,4.46c-12.868,26.248-27.815,52.495-25.718,83.465c9.449-15.74,23.015-30.177,39.021-39.89
	c-0.113-11.81,6.198-24.15,15.835-30.707c12.189,0,20.05,12.339,27.816,20.465c7.181,8.145,14.568,17.063,23.28,23.62
	c-5.517-27.551-29.327-48.016-57.143-49.867c-8.768,8.143-13.151,18.896-17.668,29.402c-0.51,0.266-0.812-0.794-0.641-1.303
	c0.547-4.215,1.852-8.674,3.798-12.868c0.736-7.351,8.012-13.38,7.161-20.465C456.15,138.207,445.341,135.581,438.993,130.082
	L438.993,130.082z M381.774,133.483c-0.795,0-1.833-0.265-2.098,0.794c-0.265,2.362,2.098,2.891,3.156,4.724
	c7.351,2.098,14.947,3.136,21.768,6.557c1.323,0.265,2.627-0.265,3.42-1.567c0-0.53-0.263-1.058-0.529-1.587
	c-7.351-2.098-14.701-5.764-22.562-5.5C384.136,135.581,382.832,134.276,381.774,133.483L381.774,133.483z M367.073,138.736
	c-0.775,24.414-2.627,56.161-23.356,70.597c0.264-3.665,4.195-7.085,5.782-10.506c6.821-11.018,11.016-23.357,11.81-36.47
	c0.529-5.253,0.775-10.771,0-16.005c-14.437,20.2-39.116,36.734-33.862,64.55c-2.891-4.459-1.833-11.81-1.833-17.308
	c0.264-18.122,15.212-30.707,23.355-45.673c-25.982,1.833-35.165,30.971-44.879,50.661c-0.793,1.57-0.528,3.667-2.098,4.724
	c-3.684-7.35,3.666-16.798,4.99-24.942c0.528-3.156,3.93-7.087,3.136-9.978c-1.569-0.265-3.402-0.511-4.969,0
	c-12.076,15.759-21.788,33.333-28.099,51.965c-1.304,26.777-3.931,53.287-10.489,78.742c0.266,4.195,0.266,8.654,1.833,12.075
	c8.92-8.144,13.134-19.955,16.005-30.971c4.215-12.604,2.892-26.777,3.686-40.42c0.529-11.545,2.627-23.357,6.027-33.598
	c1.058,2.098,0,5.518,0.264,8.143c-1.833,7.617,0.529,15.213,1.569,22.563c1.058,7.087,2.362,14.172,2.626,21.259
	c16.025-18.897,14.173-44.35,18.897-66.648c2.362,6.292,1.588,14.683,3.157,22.033c-0.266,6.557,0.529,13.133-1.304,19.426
	c-2.627,9.977-8.674,18.896-13.663,28.08c-6.027,9.712-14.437,22.581-7.596,33.598c22.563,13.379,51.172,6.028,76.36,7.086
	c-4.989-5.518-11.016-11.545-18.366-12.34c-16.006-3.93-36.225,7.88-47.771-7.616c-1.833-4.723-2.891-9.957-1.569-14.946
	C330.073,226.397,385.97,191.495,367.073,138.736L367.073,138.736z M390.428,144.499c-2.098-0.774-4.195,1.587-2.872,3.42
	c2.627,0.794,4.723,2.628,7.35,2.628c2.098-1.059,0.511-3.157-0.529-4.195C393.32,145.293,391.487,145.293,390.428,144.499
	L390.428,144.499z M383.343,162.886c-1.569,0-3.137,0.264-4.46,1.039c0.794,7.086,1.587,15.496,8.409,19.161
	c0.774-0.528,1.832-0.528,2.627-1.039c1.303-5.253,2.872-10.242,4.194-15.496C391.222,163.925,386.498,164.454,383.343,162.886
	L383.343,162.886z M481.774,167.874c-8.749-0.794-12.226,10.223-14.645,16.535c1.209,1.832,3.118,2.872,4.989,3.93
	c35.866,9.978,50.019,50.907,69.936,78.213c-5.007-1.833-9.032-8.673-13.246-12.604c-6.576-8.919-13.889-17.328-21.259-25.717
	c4.252,24.149,27.002,36.998,44.292,51.965c3.704,3.156,7.333,6.292,10.677,9.712c0.869,1.569,3.571,3.402,2.098,5.254
	c-10.828-6.047-20.956-16.535-32.143-23.11c-4.441-3.665-9.07-7.332-14.172-9.958c7.199,20.465,31.859,28.61,48.432,40.665
	c11.016,14.437,24.641,27.306,32.615,43.311c-0.264,1.058-1.417,1.058-2.305,0.793c-10.923-11.81-23.885-21.523-37.019-30.442
	c1.418,6.028,2.835,12.321,3.893,18.632c1.644,8.39,5.461,16.005,7.672,24.395c3.987,0.793,8.05-0.775,11.811-1.832
	c15.589-7.351,32.747-9.449,50.51-8.92c-2.287-3.156-4.819-6.293-7.087-9.713c-0.133,1.059-0.472,3.156-2.231,2.363
	c-30.365-21.524-41.118-57.729-64.569-84.506c-0.51-0.793-1.569-2.627-0.245-3.156c7.672,6.312,13.927,15.496,20.333,23.357
	c15.797,18.897,26.682,41.477,44.35,59.05c-17.404-25.717-34.411-51.964-52.494-77.418c-31.216-23.62-59.807-51.172-80.045-84.505
	C488.917,171.54,485.383,169.178,481.774,167.874L481.774,167.874z M421.135,174.961c-9.448,6.027-13.114,16.779-15.212,27.022
	c1.04,7.88,3.402,15.741,5.764,23.356C414.313,208.275,419.037,192.005,421.135,174.961L421.135,174.961z M374.423,179.156
	c-6.027,18.102-16.27,36.735-30.442,51.435c1.058,17.593,17.592,28.345,32.804,33.599c0.264,0.529,0.264,1.039,0.264,1.569
	c-12.85,3.931-23.62-9.713-34.636-14.702c0.774,8.673,3.135,17.858,7.615,25.719c8.39,4.478,17.045,8.938,26.757,8.674
	c13.398-13.398,18.897-31.237,20.219-49.603c-1.587-17.329-2.891-33.863,0-50.927c-3.156,1.323-6.821,2.627-9.448,4.725
	C382.303,187.81,379.147,182.047,374.423,179.156L374.423,179.156z M459.457,192.534c-56.161,27.816-44.35,99.472-68.5,147.243
	c-5.763-1.322,1.833-14.172-0.529-19.956c-38.567,29.932-87.132,43.841-124.924,74.548c19.161-4.46,37.018-14.172,54.591-23.11
	c14.967-8.391,30.177-17.045,44.105-26.758c1.569,2.362-2.116,3.931-2.627,6.028c-57.218,50.132-141.213,55.65-191.062,117.838
	c-1.322,8.938-3.155,18.632,0.511,27.305c3.157,5.764,6.576,11.811,11.547,16.8c51.19,27.815,110.505,3.401,160.373-8.674
	c-11.036,6.047-25.208,8.938-37.547,13.662c-6.557,3.402,4.724,3.137,7.616,2.608c3.42,0,6.821-0.245,9.977-0.511
	c2.891,0,6.029,0,8.919-0.265c18.367-0.263,37.529-1.322,55.121,1.569c0-33.069-6.047-65.344-11.81-97.374
	c-28.344,0.795-53.023,14.967-76.908,28.61c-24.66,14.701-44.615,55.385-75.586,46.467c5.253-3.156,11.036-5.783,16.534-8.674
	c3.156-1.304,6.047-3.137,8.674-5.253c2.362-2.098,5.498-3.931,7.615-6.292c-11.564,4.194-23.374,8.654-35.694,8.919
	c-3.42-5.763,4.988-7.086,8.654-8.919c3.666-1.569,7.616-2.627,11.281-3.666c6.558-1.058,12.605-3.156,18.632-5.518
	c0.794-0.529,2.627-0.529,3.156-1.569c-18.368-4.725-39.362-1.852-56.954-4.459c2.627-3.685,8.655-4.989,13.379-5.253
	c9.978-1.059,20.22-1.833,30.706-1.587c47.242,0.265,83.201-40.665,131.236-39.626c2.362,3.155,1.039,7.88,3.402,11.036
	c15.759-5.783,33.862-12.34,43.575-27.835c8.654-25.454-2.627-52.23-13.379-74.793c-4.989-31.235-3.156-65.873,13.114-92.913
	c3.42-6.028,6.293-14.172,11.281-18.633c0.926,8.41-4.723,16.535-8.125,24.415c-7.086,29.384-20.729,64.57-3.685,93.16
	c-7.861-30.953,0.794-67.177,12.34-96.05c1.87-1.568,4.403,0.264,4.723,2.361c5.801,35.431-28.08,67.707-6.027,100.774
	c1.908,5.254,3.117,11.036,5.763,15.496c5.329-8.145,9.637-17.329,12-26.777c7.161,2.363,4.912-19.426,5.592-29.648
	c-1.927-6.822-1.889-25.719,1.833-9.712c8.371,26.511,4.138,57.482-11.224,80.045c-2.249-2.891,1.587-7.351,0.983-11.016
	c1.265-6.822,3.042-13.663,4.119-20.485c-5.064,11.811-8.919,24.15-12.51,36.49c-0.887,14.965-6.293,29.138-3.363,44.085
	c7.369,7.087,16.515,13.134,22.695,21.259c-4.593-8.92-13.871-14.438-19.596-22.034c-0.189-23.111,12.301-40.155,28.004-56.179
	c0.416-22.297,12.887-41.988,25.019-60.09c-2.664-20.995-11.13-40.42-13.341-61.414c-0.189-6.046-1.418-14.171,1.776-18.895
	c3.213,6.821,1.89,15.741,5.518,22.826c4.271,17.064,7.427,34.638,13.134,51.172c3.307-0.775,7.521-1.304,6.482-5.763
	C508.096,251.585,498.799,204.08,459.457,192.534L459.457,192.534z M386.233,217.723c-0.529,0-1.039,0.266-1.303,0.793
	c-2.362,12.34-1.058,26.248-1.058,38.852c0,0.263,0.528,0.774,0.794,0.774c0.793,0,1.039-0.774,1.304-1.04
	c2.626-12.339,1.322-26.247,1.057-38.587C387.027,217.989,386.233,218.252,386.233,217.723L386.233,217.723z M453.164,224.036
	c-3.892,1.038-0.85,5.252-1.568,8.125c0.207,3.685,1.304,7.35,0.774,11.035c3.893,28.61-16.004,52.23-16.799,80.311
	c2.098,4.988,3.837,10.751,7.351,14.947c3.345,0.528,2.967-3.402,3.685-5.5c-0.605-9.714-0.774-19.426-1.058-29.138
	c5.802-21.523,18.085-44.086,11.281-66.667c-0.547-3.665-0.831-7.35-1.644-11.016C454.846,225.339,454.034,224.299,453.164,224.036
	L453.164,224.036z M266.034,265.229c-8.125,3.95-14.702,12.34-18.897,20.22c0.794,11.81-2.098,25.189,1.323,36.47
	c2.872-1.304,5.5-3.402,8.654-3.93C260.78,300.396,263.407,282.822,266.034,265.229L266.034,265.229z M243.735,292.8
	c-1.587-0.53-2.362,1.303-3.685,1.832c-0.264,5.518-1.832,11.545,0.265,16.535c1.058-0.794,2.098-0.529,3.156-1.058
	C243.981,304.61,244.775,298.298,243.735,292.8L243.735,292.8z M213.029,295.426c-7.35,2.607-13.661,13.643-9.978,20.994
	c2.363-5.253,6.029-18.122,14.173-11.81c0.774,0.51,1.568,0.51,2.098,1.304c2.097,1.057,3.93,4.724,1.039,5.782
	c-1.303,0.775-2.873,1.04-4.459,1.04c-2.627-0.265-5.235-1.04-7.862-0.265c-3.685,6.576-0.528,15.23,6.822,17.328
	c-0.264-1.568-2.362-1.833-2.627-3.156c-2.098-1.569-3.156-5.498,0.264-6.292c8.919-3.157,15.476,12.339,23.885,3.42
	c-0.794-7.616-1.853-15.76-3.42-23.375C226.672,297.523,219.322,297.788,213.029,295.426L213.029,295.426z M510.647,295.672
	c-13.321,1.587-16.969,17.327-20.294,27.835c-5.651,9.448-10.47,19.67-10.942,30.971c6.708,21.258,16.326,45.125,6.747,67.706
	c-0.473,0.265-0.926,0.265-1.493,0.265c1.171-11.282-0.774-28.08-3.949-37.018c-0.681,2.626,0.945,8.144-2.835,8.144
	c-1.625-2.361-0.434-6.028-1.7-8.655c-1.341-3.949-2.76-7.88-3.42-12.075c-1.908,2.363-4.082,5.254-6.216,7.861
	c3.76,8.409,4.761,16.799,4.194,26.247c1.455,18.387-2.589,39.117,3.213,56.425c2.589,2.117,5.347,4.214,8.598,5.253
	c6.575,0.529,12.282-2.098,17.78-4.989c3.101-3.136,5.028-7.085,7.862-10.223c11.772-28.344,27.778-54.856,33.938-84.769
	c-3.609-20.484-22.203-38.058-42.725-41.743c-0.964-0.529-1.492-1.569-1.889-2.362c-0.151-1.568,0.416-2.891,1.625-3.931
	C509.325,317.459,521.4,304.873,510.647,295.672L510.647,295.672z M393.584,304.08c-6.027,1.04-11.81,2.628-18.103,2.891
	c1.304,2.098,6.293,2.363,5.253,5.5c-7.615-0.51-15.23-5.763-22.846-5.5c4.46,4.99,10.77,8.92,14.966,14.438
	c6.822-4.215,13.115-9.713,19.936-14.172C393.055,306.177,393.849,305.12,393.584,304.08L393.584,304.08z M311.177,305.649
	c-3.931,2.098-4.989,7.615-7.88,11.036c-1.304,1.832-3.136,3.666-4.459,5.234c4.724-1.832,9.183-4.459,14.172-5.234
	c0.265-4.214,4.723-5.782,8.145-7.087c8.919,1.04,17.573,2.098,26.511,2.608c0.51-0.245,0.775-0.511,1.04-1.04
	c-5.254-3.685-12.85-4.195-19.69-3.685C322.987,307.746,316.695,306.971,311.177,305.649L311.177,305.649z M519.83,312.735
	c-0.868,0-1.813-0.265-2.568,0.264c-1.304,3.931-5.462,9.978-0.586,12.868C520.946,323.771,526.104,315.362,519.83,312.735
	L519.83,312.735z M298.063,315.891c-14.966,8.125-32.824,8.39-46.731,17.838c0.264,1.323,1.587,1.587,2.628,1.323
	c13.133-4.989,25.982-9.978,39.625-13.398C295.436,320.086,297.269,318.253,298.063,315.891L298.063,315.891z M528.75,319.292
	c-0.718,0-1.417,0-2.04,0.266c-2.155,3.949-6.331,10.506-0.057,12.603C532.681,331.896,535.043,321.144,528.75,319.292
	L528.75,319.292z M338.218,319.292c-20.485-2.098-47.505,2.362-51.72,25.737c-1.569,3.931-3.136,8.127-4.195,12.321
	c-1.832,2.891-1.832,7.087-4.459,8.938c-3.156-4.989,1.833-12.603-0.264-17.857c-2.627,3.156-6.027,5.517-7.861,9.184
	c0.774,3.684,3.401,7.085,4.194,10.77c-3.684,3.93-6.821-6.821-11.035-7.88c-3.402,0.53-7.862,0.794-10.223,2.363
	c7.086,4.195,8.125,15.741,17.574,14.966c9.712-3.948,14.7-14.437,22.316-21.522c2.627-7.351,3.156-15.231,6.027-22.317
	c5.253,0.263,1.059,9.448,2.363,12.868c14.172-18.121,37.283-19.69,58.276-21.523C353.959,319.292,345.304,320.351,338.218,319.292
	L338.218,319.292z M537.404,329.799c-0.567,0-1.208,0-1.776,0c-1.966,3.156-2.286,7.615,0.208,10.242
	C542.318,341.079,542.374,331.632,537.404,329.799L537.404,329.799z M487.801,337.414c-0.679,0-1.379,0-1.776,0.529
	c-5.991,14.948,0.908,30.952,4.856,45.125c2.117-14.418-7.616-28.59-2.551-43.027C488.312,338.982,488.539,338.188,487.801,337.414
	L487.801,337.414z M542.922,342.402c-2.287,1.57-4.252,6.029-1.323,8.126C544.529,349.224,544.056,344.765,542.922,342.402
	L542.922,342.402z M510.383,347.126c-0.794,0-1.549,0-1.794,0.775c0.945,7.88,4.894,15.23,7.483,22.581
	c-2.702-0.795-3.704-3.685-5.519-5.783c-1.152-1.304-2.569,0.265-1.757,1.587c1.285,2.873,2.76,5.234,3.987,8.125
	c6.198,7.087,10.582,15.496,10.185,25.19c-1.644,8.674-5.158,16.799-7.294,25.473c2.173-1.588,2.645-4.46,4.063-6.576
	c4.951-20.465,23.79-39.626,15.76-61.414c-0.642-0.245-1.531-0.51-1.965,0.265c0.15,4.724,3.59,11.036-0.058,14.702
	C525.652,364.7,517.262,355.781,510.383,347.126L510.383,347.126z M633.21,352.625c-2.702,0-5.291,0.265-7.88,0.53
	c-19.388-2.627-37.981,4.988-51.644,17.857c0.019,1.833-0.511,4.195,0.775,5.498c2.323-0.775,3.836-2.891,6.179-3.665
	c16.572-14.436,39.494-12.869,59.655-16.534C639.219,353.155,635.59,353.419,633.21,352.625L633.21,352.625z M300.67,354.988
	c-3.665,1.322-6.821,5.781-9.183,8.937C295.701,362.867,299.631,359.202,300.67,354.988L300.67,354.988z M385.459,355.251
	c-3.42-0.263-6.047,2.627-9.449,2.627c-47.241,23.885-94.236,50.662-144.085,68.765c-1.323,1.303-4.724,1.303-4.724,3.665
	c2.362,0.793,4.724-1.039,7.087-0.775c50.378-22.317,104.44-38.321,151.171-69.557C387.027,358.937,387.82,355.781,385.459,355.251
	L385.459,355.251z M621.909,368.12c-5.48,0.265-17.139-0.793-12.528,7.862c1.625,4.477,3.118,9.448,7.463,12.603
	c3.345,3.156,6.18,6.557,8.542,10.241c2.248-0.264,4.611-1.832,5.725-3.949c-3.478-6.027-8.881-12.849-6.52-20.728
	c4.195-3.666,11.376,1.586,13.076,6.047c0.53,5.762,4.045,13.643-1.398,18.367c-6.576,5.253-20.257,4.989-20.597,16.005
	c10.62-10.752,36.924-9.183,32.483-30.177c0.378-3.156,1.398-6.822,0.983-9.978C640.39,371.521,631.414,368.12,621.909,368.12
	L621.909,368.12z M414.578,372.845c-29.913,1.568-56.425,16.27-84.77,24.395c-2.362,3.42-7.616,2.627-10.242,5.782
	c1.059,1.568,3.156,0,4.724,0.265c29.402-9.448,60.639-12.605,89.512-24.15C415.637,377.568,417.733,373.885,414.578,372.845
	L414.578,372.845z M646.588,406.689c-6.5,1.587-12.547,4.988-18.839,7.35c0.34,1.852-1.266,2.891-1.059,4.724
	c6.142-4.46,13.758-7.087,20.087-11.018C647.004,407.217,646.72,406.952,646.588,406.689L646.588,406.689z M648.422,415.097
	c-2.91,0-5.536,1.569-7.823,3.157c0.202,0.96,2.739-0.633,4.352-0.673C647.023,417.528,648.846,417.308,648.422,415.097
	L648.422,415.097z M272.59,423.486c-18.368,5.518-35.942,14.702-55.366,17.063c-0.794,0.53-1.588,1.059-1.323,2.098
	c20.484,6.822,37.527-11.016,55.65-17.573C271.815,424.546,272.59,424.281,272.59,423.486L272.59,423.486z M638.708,424.016
	c-2.929-0.53-5.934,2.097-4.667,4.988C635.799,427.946,637.764,425.85,638.708,424.016L638.708,424.016z M429.015,462.867
	c-9.712,2.628-21.258,4.195-28.609,11.282c8.919,3.665,20.219,11.281,16.27,23.092c-3.137,11.281-11.016,0-11.282-6.558
	c-4.988-2.891-10.487-5.518-16.004-6.822c1.039,11.81,1.039,23.886,2.097,35.431c31.237,13.38,58.787,35.167,80.102,62.718
	c0.624,0.794,1.606,1.323,2.494,0.794c6.576-10.507-2.91-20.994-12.472-24.679c2.098-23.621-28.665-35.942-24.716-60.619
	c-0.529-4.195,0-8.92,0.774-13.114c0.265-3.686,1.247-7.616,0.795-11.301C437.837,468.013,434.171,464.611,429.015,462.867
	L429.015,462.867z M350.028,464.171c-1.059,0-2.362,0-3.42,0c-17.063,8.409-36.225,11.546-52.494,22.052
	c-11.811,7.616-23.091,16.27-36.735,20.201c-6.047,3.156-13.397,3.949-19.16,6.821c6.557,1.852,14.172-2.097,20.993-3.136
	c29.403-9.713,56.69-25.472,87.132-31.235c12.074,6.557,24.679,16.534,31.5,28.609c0.529,0.529,1.304,1.04,2.098,0.775
	C379.147,490.154,364.975,474.413,350.028,464.171L350.028,464.171z M238.482,466.269c-3.42,0-6.557,0-9.977,0
	c-3.156,0.793-7.88,1.059-9.713,3.686c0,0.263,0.53,0.774,0.793,0.774c4.99-0.265,10.488-0.265,14.947,1.587
	c5.253-0.264,10.242-1.058,15.231-2.361c0.529-0.53,0.264-1.059,0.264-1.588C246.872,466.269,241.884,468.102,238.482,466.269
	L238.482,466.269z M231.925,487.792c-11.565,0.529-22.317,4.195-33.069,7.616c-0.794,0.529-1.587,1.304-1.587,2.361
	c0.264,0.529,0.264,1.04,0.794,1.57c12.339,3.683,24.149-3.402,34.372-9.184C232.965,489.361,232.435,488.321,231.925,487.792
	L231.925,487.792z"/>
</svg>
