<?xml version="1.0" encoding="utf-8"?>
<!-- Generator: Adobe Illustrator 17.0.0, SVG Export Plug-In . SVG Version: 6.00 Build 0)  -->
<!DOCTYPE svg PUBLIC "-//W3C//DTD SVG 1.1//EN" "http://www.w3.org/Graphics/SVG/1.1/DTD/svg11.dtd">
<svg version="1.1" id="Layer_1" xmlns="http://www.w3.org/2000/svg" xmlns:xlink="http://www.w3.org/1999/xlink" x="0px" y="0px"
	 width="800px" height="600px" viewBox="0 0 800 600" enable-background="new 0 0 800 600" xml:space="preserve">
<path fill-rule="evenodd" clip-rule="evenodd" fill="#0E0D0C" d="M534.194,106.535c6.252,5.623,0.563,17.153,6.86,22.065
	c2.482-4.14-0.656-9.873,0.512-14.292c2.789,2.924,4.306,7.159,5.507,11.141c1.03,4.855-0.811,10.771,2.279,14.953
	c4.184-1.809,0.616-7.622,1.911-10.919c5.185,5.049,3.078,13.296,5.268,19.566c4.497,1.719,2.678-6.032,2.208-8.68
	c4.749,4.981,6.85,11.694,10.43,17.515c2.885,8.327,5.179,20.009,0.68,27.392c-0.716-0.042-0.942-0.733-1.419-1.103
	c-2.087-9.986-10.538-16.067-15.009-24.628c-23.355-18.471-42.314-41.616-66.478-59.697c-0.388-0.814-0.052-1.572-0.154-2.4
	c4.85-6.877,13.824-5.698,21.072-4.605c5.927,1.83,11.496,5.408,16.998,8.439c2.309,4.829,2.721,10.48,3.661,15.778
	c0.253,0.962,1.454,1.39,2.212,0.72c2.65-4.029-0.817-9.014,0.102-13.115C532.23,104.492,533.037,106.38,534.194,106.535
	L534.194,106.535z M428.761,51.929c3.027,2.6,4.262,6.867,4.317,10.706C429.551,60.651,430.139,55.03,428.761,51.929L428.761,51.929
	z M459.685,78.569c4.177,2.765,3.035,8.462-0.142,11.551c-10.359,0.298-20.898,1.457-30.597,4.789
	c-0.282,0.034-0.529,0.352-0.725-0.054c3.191-5.377,8.428-7.882,13.677-10.376c0.498-0.635,0.667-1.505,0.561-2.355
	c-0.537-0.928-1.509-0.663-2.381-0.833c-17.692,3.171-18.102,25.153-25.816,37.641c0.287-6.875,3.374-14.084,6.018-20.399
	c4.114-8.196,5.205-19.005,12.78-24.505C441.944,71.084,451.501,75.746,459.685,78.569L459.685,78.569z M440.555,68.98
	c1.421,1.106-1.457,0.886-2.182,0.832c-5.703-2.421-12.266-0.185-16.114,4.422c-2.927,7.334-5.681,15.077-7.431,22.839
	c1.664-9.596,1.515-20.118,7.621-28.274C428.021,65.536,435.172,65.799,440.555,68.98L440.555,68.98z M488.468,107.625
	c22.144,20.044,44.912,39.591,63.516,62.204c0.949,3.022,2.451,5.961,3.115,9.017c-2.318,6.552-4.803,12.989-8.797,18.743
	c-0.836,0.114-1.383-0.822-1.884-1.47c-17.204-33.182-40.042-62.401-67.978-88.002C480.012,104.825,484.932,103.08,488.468,107.625
	L488.468,107.625z M408.399,48.46c0.318,0.248,0.218,0.681,0.253,0.963c-4.724,8.982-10.046,17.769-13.861,27.203
	c-3.057,0.665-6.417,1.09-9.657,1.337C389.862,66.706,397.135,54.129,408.399,48.46L408.399,48.46z M402.443,44.07
	c0.353,0.53,1.666,0.788,1.33,1.547c-7.947,10.519-16.823,20.587-21.608,32.569c-1.799,0.366-3.766,0.621-5.613,0.694
	c-0.99-6.849,0.235-14.27,2.393-20.943c3.979-7.046,10.764-10.878,17.402-14.826C398.465,42.994,400.563,43.881,402.443,44.07
	L402.443,44.07z M411.841,52.166c-2.858,7.899-8.242,15.105-11.233,23.177c-0.804,0.374-1.922,0.524-2.773,0.628
	C400.645,67.504,405.12,58.841,411.841,52.166L411.841,52.166z M414.886,56.055c0.317,0.246,0.194,0.407,0.511,0.653
	c-2.193,6.392-7.253,11.571-9.297,18.1c-0.77,0.658-1.652,0.481-2.524,0.311C405.302,68.344,409.361,60.87,414.886,56.055
	L414.886,56.055z M463.517,106.158c3.241,2.018-4.42,3.396-3.365,0.405c0.443,0.089,0.715,0.066,1.122-0.128
	C462.111,106.32,462.835,106.375,463.517,106.158L463.517,106.158z M465.366,111.905c28.232,23.28,51.901,50.119,67.193,82.831
	c-3.583,7.846-6.867,16.946-13.85,22.647c-10.176-20.108-1.373-50.254-20.337-66.557c-3.214-3.017-5.753-8.538-9.854-9.455
	c-0.74,3.219,3.649,5.382,4.844,8.085c8.106,11.395,8.729,26.828,12.277,40.489c-0.585,1.076-0.888,2.098-1.632,3.052
	c-2.566-1.253-5.92-12.229-7.38-6.777c1.196,2.704,2.379,5.396,3.566,8.11c14.961,13.949,11.556,38.156,5.587,55.548
	c-10.765,15.436-23.144,29.343-37.871,40.43c-0.803,0.378-1.675,0.208-2.186-0.445c-0.649-1.767-0.601-3.771,0.187-5.439
	c10.999-8.905,19.234-21.734,28.685-32.868c10.138-7.804,7.509-21.024,9.468-31.652c-3.314,1.978-2.78,7.47-3.45,11.254
	c0.03,2.56-0.654,5.053-0.897,7.657c-11.153,14.627-21.369,32.262-37.397,40.783c-11.848-1.373-26.602-18.21-16.913-29.65
	c6.638-8.511,11.881-21.41,23.464-23.274c0.901-0.829-0.199-1.687-1.047-1.583c-8.224-0.826-13.578,5.381-19.1,10.195
	c-6.564,6.798-13.995,14.69-16.85,23.871c-0.633,0.51-1.234,0.296-1.959,0.241c4.22-15.47,18.724-25.947,29.964-36.452
	c5.625-1.69,11.61,0.697,17.553-0.745c2.603-4.321-7.888-2.871-10.95-4.49c3.785-2.887,9.196-3.977,13.601-4.101
	c-7.198,1.743-1.185,5.427,3.619,2.823c2.705-1.173,6.26-1.195,8.419-3.306c-7.197-6.38-20.607-3.153-27.587,0.274
	c4.712-4.428,11.186-6.223,17.057-8.232c-3.336-2.858-9.731-0.508-13.563-3.735c-7.234-17.049-20.495-29.927-30.241-45.394
	c-11.366-15.965,10.328-40.853,27.325-36.975c1.508,0.663,1.796-1.65,0.233-1.609c-18.216-6.853-38.244,13.278-37.257,31.531
	c7.128,20.761,27.615,34.457,34.667,54.666c-3.814-3.231-7.157-8.373-10.643-12.35c-5.941-6.678-10.852-14.048-16.147-21.228
	c-2.668-3.084-5.042-6.214-7.167-9.644c-12.986-11.639-8.014-29.059,1.925-40.818C440.018,111.901,453.595,111.084,465.366,111.905
	L465.366,111.905z M457.433,106.468c1.682,2.078-1.623,1.78-2.915,1.796c-1.118-2.147,1.672-1.489,2.904-1.785L457.433,106.468
	L457.433,106.468z M451.319,106.518c1.522,1.954-1.442,2.177-2.634,1.76C447.761,106.535,450.199,106.666,451.319,106.518
	L451.319,106.518z M445.668,106.929c1.787,2.925-1.974,2.53-3.808,2.612C440.4,106.872,443.984,107.147,445.668,106.929
	L445.668,106.929z M438.66,107.796c0.511,0.653,1.047,1.582,0.869,2.464c-0.963,0.252-2.048,0.684-2.932,0.507
	c-1.646-1.796,0.218-2.879,2.055-2.961L438.66,107.796L438.66,107.796z M432.957,108.931c1.61,1.513,1.298,3.55-1.077,3.978
	c-0.941-0.735-1.513-1.945-1.66-3.066C431.032,109.456,431.96,108.919,432.957,108.931L432.957,108.931z M407.308,91.463
	c0.118,2.116-3.071,3.937-4.121,5.91c-9.516,2.47-19.373,5.677-28.746,6.979c-0.005-2.286,0.723-4.508,0.164-6.714
	c1.789,0.629,2.518,1.965,3.9,2.79c3.514-3.85,9.481-0.455,13.037-4.032c1.648-2.767,3.26-5.817,5.701-7.963
	C400.745,89.136,404.37,89.683,407.308,91.463L407.308,91.463z M427.72,111.433c1.418,1.108,2.999,3.618,0.033,3.841
	C425.507,114.269,425.389,112.152,427.72,111.433L427.72,111.433z M536.155,197.286c0.263,0.952,0.809,1.888,1.059,2.852
	c-4.905,8.584-10.758,17.704-17.261,25.059c-0.662-0.768,0.549-1.339,0.604-2.061C526.824,215.101,530.921,205.612,536.155,197.286
	L536.155,197.286z M391.634,86.846c-1.468,1.885-4.901,1.745-7.048,2.863C385.245,86.921,389.323,86.561,391.634,86.846
	L391.634,86.846z M409.655,102.418c0.509,13.319-5.141,26.414-12.181,37.383c-3.118-2.178,5.152-10.162-0.455-9.479
	c-0.44-0.089-0.077-0.555-0.236-0.678c2.023-5.52,7.097-9.429,8.875-14.631c-0.854-1.175-2.154-0.164-2.613,0.753
	c-4.931,2.742-9.881,6.492-15.348,8.305C394.403,116.127,403.462,111.019,409.655,102.418L409.655,102.418z M424.207,115.283
	c2.382,0.853,2.569,3.538,0.748,4.889c-1.315-0.258-1.62-1.501-2.678-2.086C423.012,117.141,422.986,115.863,424.207,115.283
	L424.207,115.283z M405.009,100.564c0.159,0.124,0.6,0.213,0.354,0.531c-4.599,4.279-9.733,7.61-15.696,10.06
	c0.224-1.598,3.119-2.386,2.472-4.15c-4.019,0.917-8.439,4.314-12.437,4.245C386.528,105.423,396.206,103.078,405.009,100.564
	L405.009,100.564z M423.124,121.536c1.825,0.913-0.219,2.877-0.918,4.102c-1.156-0.132-1.6-1.503-2.767-1.646
	c-0.569-1.212,0.693-2.504,1.554-3.606C421.865,120.555,422.41,121.492,423.124,121.536L423.124,121.536z M371.475,81.508
	c0.748,0.328,0.693,1.052,0.64,1.775c-2.388,1.423-5.126,2.336-7.615,2.933C364.057,82.567,369.236,83.066,371.475,81.508
	L371.475,81.508z M379.894,88.587c-0.517,1.621-3.652,7.28-5.506,3.808c-0.318-0.248-0.6-0.213-1.042-0.302
	c-1.483,0.614-0.154,2.162-0.186,3.16c-1.655-0.801-2.18-2.724-3.439-3.707C372.445,89.364,376.6,89.559,379.894,88.587
	L379.894,88.587z M552.009,224.084c14.118,16.341,10.806,41.39,10.743,61.615c-2.073,3.968-5.477,6.368-8.915,8.506
	c-1.043,4.26,6.048-0.594,8.959-0.112c0.795,1.899,0.36,4.096,0.164,5.966c-12.913,0.315-26.289-0.738-37.696-6.588
	c-0.352-0.529-0.977-1.016-0.21-1.697c9.082-4.812,2.175-13.505-0.185-19.908c0.823-1.384,2.511-1.582,3.538-2.569
	c14.086-5.731,3.183-22.611-3.44-30.058c6.236-6.031,11.937-13.993,18.41-20.35c3.402,2.142,4.443,6.002,6.139,9.35
	c7.25,10.217,5.518,23.812,7.654,35.368C559.143,250.691,557.576,235.782,552.009,224.084L552.009,224.084z M384.643,94.829
	c1.261,0.981-4.005,0.926-1.302-0.269C383.861,94.218,384.24,95.021,384.643,94.829L384.643,94.829z M420.546,127.136
	c2.408,3.393-4.99,1.181-2.426-1.126c0.168,0.112,0.318,0.248,0.478,0.373C419.311,126.427,419.981,127.205,420.546,127.136
	L420.546,127.136z M417.811,130.313c2.212,0.722,0.53,3.207-0.214,4.158C414.174,134.322,415.191,128.782,417.811,130.313
	L417.811,130.313z M415.593,135.427c2.065,0.606,1.449,3.666,0.105,4.407C412.592,139.931,413.009,134.178,415.593,135.427
	L415.593,135.427z M414.749,141.376c1.898,1.479-0.422,3.466-2.157,2.113C411.827,141.872,413.014,140.022,414.749,141.376
	L414.749,141.376z M414.874,145.78c1.849,1.186-0.616,3.06-2.123,2.395C411.544,146.467,413.274,145.536,414.874,145.78
	L414.874,145.78z M415.11,150.015c0.817,0.893,1.557,2.239,1.854,3.471c-0.652,0.511-1.458,0.89-2.225,1.568
	C413.162,153.824,411.986,150.116,415.11,150.015L415.11,150.015z M418.047,155.352c1.1,0.86,0.593,2.491,1.571,3.509
	c-0.647,0.499-1.266,1.293-2.217,1.554c-0.432-1.085-1.25-1.979-1.672-3.074C416.302,156.275,417.277,156.011,418.047,155.352
	L418.047,155.352z M420.744,160.998c1.1,0.857,1.671,2.067,2.498,2.97c-0.608,0.786-1.105,1.419-1.716,2.201
	C419.542,165.134,417.6,162.104,420.744,160.998L420.744,160.998z M424.924,166.027c1.612,1.514,4.677,4.414,1.135,5.704
	C424.571,170.059,421.69,167.577,424.924,166.027L424.924,166.027z M430.047,171.812c1.419,1.107,2.385,3.12,0.09,4.121
	C428.038,175.044,427.365,172,430.047,171.812L430.047,171.812z M519.112,242.536c4.984,4.655,10.082,10.146,10.542,17.348
	c-2.454,5.442-10.397,4.557-13.169,9.748c1.655,5.342,7.127,9.372,7.139,15.204c-2.147,2.12-4.395,4.674-7.221,6.029
	c-5.519-2.024-11.288-3.731-16.721-6.197c-0.788-6.455,3.276-12.645,6.931-17.661c4.286-2.243,9.222-3.705,13.131-6.751
	C525.509,255.136,520.178,247.676,519.112,242.536L519.112,242.536z M433.409,175.947c0.807,1.892,5.015,3.657,2.732,5.928
	C434.722,180.769,430.626,177.574,433.409,175.947L433.409,175.947z M438.646,182.57c1.055,1.572,4.314,3.876,2.698,5.643
	C439.801,187.267,435.728,184.347,438.646,182.57L438.646,182.57z M443.474,189.365c1.877,2.485,4.306,4.891,5.649,7.71
	c-2.27-2.282-4.948-4.371-6.425-7.039C442.944,189.719,443.192,189.402,443.474,189.365L443.474,189.365z M420.751,177.227
	c3.115,4.454,5.707,9.269,8.699,13.883c0.107,6.671-1.055,13.375-2.092,19.902c-4.109,1.358-8.195,1.732-11.994-0.23
	c-1.436-0.099-2.625-0.515-3.863-1.224c-0.498-0.645-1.78-0.64-2.166-1.433c4.844-0.037,10.272,0.144,14.319-2.775
	c0.066-0.715-0.287-1.246-0.923-1.742c-4.378-3.159-10.33-5.265-14.282-9.625c2.105-5.95,4.095-11.753,8.148-16.95
	C417.943,177.574,419.359,177.397,420.751,177.227L420.751,177.227z M430.139,217.507c0.158,0.125,0.477,0.372,0.52,0.643
	c-1.393,3.731-0.714,8.075-1.984,11.647c-0.716-0.066-1.587-0.235-2.098-0.889C428.245,225.155,426.428,219.668,430.139,217.507
	L430.139,217.507z M424.555,217.203c0.317,0.247,0.476,0.372,0.782,0.611c-0.886,3.104-1.786,6.199-1.845,9.2
	c-0.125,0.16-0.371,0.477-0.656,0.511c-0.316-0.247-0.623-0.484-0.94-0.735c0.906-3.105,1.954-6.084,1.978-9.369
	C423.99,217.273,424.432,217.363,424.555,217.203L424.555,217.203z M420.577,216.127c0.317,0.248,0.353,0.531,0.386,0.813
	c-1.84,2.362-1.24,6.134-2.957,8.333c-0.475-0.372-0.783-0.611-1.259-0.983c0.934-2.812,1.9-5.361,2.982-8.057
	C419.977,215.915,420.329,216.444,420.577,216.127L420.577,216.127z M415.057,214.102c0.318,0.247,0.477,0.371,0.795,0.62
	c-0.377,2.752-1.618,5.326-2.118,8.239c-0.875-0.19-1.783-0.641-2.577-1.26c0.527-2.619,1.653-5.044,2.631-7.583
	C414.15,213.649,414.651,214.296,415.057,214.102L415.057,214.102z M410.545,212.096c0.316,0.249,0.623,0.488,0.658,0.771
	c-1.445,2.179-1.777,5.202-3.414,6.973c-0.148-0.116-0.464-0.364-0.624-0.487C408.008,216.964,408.553,213.337,410.545,212.096
	L410.545,212.096z M406.415,209.9c0.32,0.247,0.476,0.372,0.797,0.619c-0.733,2.224-1.654,5.045-3.131,6.94
	c-0.635-0.496-1.498-0.675-1.894-1.476C403.663,214.086,404.086,210.619,406.415,209.9L406.415,209.9z M528.475,313.714
	c1.27,0.989-0.085,2.726-0.819,3.669c-1.919,1.805-3.706,3.44-5.784,5.122c-22.039,9.42-47.692,8.172-70.942,7.775
	c0.248-4.879,1.742-10.046,2.273-14.943c5.888-4.294,9.259-11.539,12.141-18.158c4.017-0.939,8.162-0.735,12.296-0.813
	c3.877,1.507,7.472,4.058,11.487,5.419c5.007,1.37,10.388,2.26,15.567,3.765c-11.872,7.731-28.02,3.752-41.054,7.781
	c4.26,1.042,9.204-0.43,13.828,0.148c5.128-0.071,10.088-0.254,15.107,0.121c6.422,1.195,12.895-0.6,18.847-3.039
	C517.446,309.674,522.937,312.695,528.475,313.714L528.475,313.714z M413.905,228.917c0.305,0.239,0.623,0.487,0.942,0.736
	c-0.735,9.061-9.894,15.605-18.721,13.284c2.267-3.562,7.511-3.778,10.4-6.854c0.858-1.101,2.601-2.023,1.986-3.506
	c-0.476-0.372-0.909-0.471-1.463-0.394c-4.709,5.709-12.907,5.154-18.597,8.563c5.74-5.414,12.376-9.363,17.628-15.138
	C408.836,225.986,411.275,228.381,413.905,228.917L413.905,228.917z M443.51,270.256c0.818,0.893,2.007,1.311,2.554,2.248
	c-1.341,3.005-2.206,6.384-3.816,9.432c-0.898-1.447-2.996-2.335-3.769-3.942C440.919,275.846,440.839,271.714,443.51,270.256
	L443.51,270.256z M437.235,265.619c1.135,1.141,2.644,1.806,3.249,3.3c-1.717,2.201-2.764,5.181-4.648,7.269
	c-1.894-1.478-3.878-2.515-5.358-4.177C432.752,269.73,434.577,267.086,437.235,265.619L437.235,265.619z M433.435,263.658
	c0.319,0.248,0.476,0.372,0.795,0.621c-2.133,2.406-4.609,4.269-6.892,6.54c-2.039-0.31-3.967-1.067-5.916-1.822
	C424.86,266.861,428.947,261.946,433.435,263.658L433.435,263.658z M448.966,277.559c4.932,3.082,0.075,8.675-1.034,12.37
	C443.798,286.452,446.071,280.613,448.966,277.559L448.966,277.559z M454.121,283.606c0.986,1.025,2.123,2.168,2.579,3.526
	c-1.43,3.446-2.69,7.027-4.118,10.474C448.78,293.382,452.251,287.969,454.121,283.606L454.121,283.606z M425.267,262.106
	c0.16,0.123,0.6,0.213,0.352,0.53c-2.906,1.783-5.638,3.977-8.509,6.045c-1.599-0.243-3.106-0.907-4.704-1.132
	C416.32,265.786,420.546,261.981,425.267,262.106L425.267,262.106z M458.642,290.163c3.423,4.713-2.377,9.553-3.506,14.254
	c-0.443-0.088-0.353-0.529-0.672-0.777C454.883,298.891,456.57,294.131,458.642,290.163L458.642,290.163z M403.239,247.46
	c0.751,2.615,2.082,7.719-1.838,8.204c-0.754-2.613,0.223-5.153,0.194-7.714C402.142,247.884,402.832,247.655,403.239,247.46
	L403.239,247.46z M396.964,247.384c1.89,3.755,0.043,8.393,0.554,12.605c-0.577,1.066-1.786,1.636-3.065,1.66
	c-0.713-4.606,0.541-9.469,1.415-13.842C396.08,247.205,396.557,247.579,396.964,247.384L396.964,247.384z M391.637,245.767
	c0.747,0.328,0.694,1.052,0.924,1.742c-1.936,5.079-2.965,10.609-5.047,15.573c-0.6-0.213-0.92-0.461-1.395-0.834
	c0.745-5.494,1.023-11.373,3.4-16.363C390.188,245.658,391.07,245.839,391.637,245.767L391.637,245.767z M384.405,247.225
	c-0.366,2.761-0.914,6.388-2.73,9.022C381.894,253.37,382.881,249.833,384.405,247.225L384.405,247.225z M412.573,275.783
	c1.161,2.421-2.366,4.997-3.878,6.61c-6.251,0.199-12.154-0.353-18.251-1.311c-0.623-0.487-0.611-1.483-0.841-2.172
	c0.744-0.954,1.706-1.207,2.644-1.755C398.989,277.616,405.764,274.778,412.573,275.783L412.573,275.783z M443.666,310.675
	c0.848,8.013-3.978,17.428-1.157,25.21c-1.281,0.006-2.685,0.189-3.513-0.714C435.928,326.446,442.114,318.841,443.666,310.675
	L443.666,310.675z M432.765,303.195c-2.987,10.334-7.106,20.809-9.071,31.449c-1.735-1.354-0.597-3.771-1.531-5.502
	c1.542-3.615,3.414-6.972,5.238-10.623C428.023,313.183,430.206,307.785,432.765,303.195L432.765,303.195z M404.326,287.344
	c-4.628,7.543-16.909,14.188-16.745,24.717c2.362,6.404,7.365,10.05,13.102,4.635c1.406,4.465-2.329,4.568-2.13,6.566
	c0.607,5.995,8.434,9.898,14.585,8.351c3.21-0.809,5.626-14.555,6.998-7.356c-0.095,2.719-2.183,5.396-1.518,8.451
	c10.97,16.166,13.097,39.105,12.525,58.698c-4.271,3.511-9.579,5.448-13.656,9.368c3.589,4.826,9.839,8.185,13.34,13.453
	c3.008,20.831,0.064,43.134-11.58,60.662c-6.273-12.757-21.318-20.422-31.222-31.45c-7.742-7.297,0.148,4.677,2.524,7.809
	c6.4,14.863,24.001,24.796,25.979,40.793c-1.221,1.565-2.804,2.613-4.391,3.659c-9.652-7.768-19.744-16.915-30.595-22.843
	c-5.298-2.615-10.347-6.555-15.708-8.454c9.657,15.906,27.465,27.516,43.121,38.959c1.166,3.701-0.31,7.862-1.726,11.319
	c-20.616-15.825-50.156-26.691-62.359-51.665c0.839-12.776,25.736,6.64,17.308-6.283c-1.768-1.617-3.857-3.501-4.961-5.642
	c10.022,0.465,18.951,10.474,28.865,7.824c-2.648-7.649-10.634-12.363-15.279-18.759c1.914,0.469,7.247,4.373,6.716,0.162
	c-8.728-7.317-14.256-17.45-15.68-28.962c0.83-3.663,3.766-6.444,5.662-9.528c10.909,1.921,22.719,5.313,33.726,0.957
	c9.934,9.025,17.267,21.077,25.593,30.875c1.742-5.485,0.058-13.387-4.832-17.2c-0.477-0.375-0.694-1.053-1.455-1.391
	c-3.386-4.433,8.317,6.23,5.086-0.343c-4.295-4.881-10.644-7.808-14.859-13.122c13.585-6.374,13.944-20.803,11.161-34.128
	c-0.26-3.248-0.65-6.327-1.18-9.531c-0.361-4.097-0.882-8.3-1.537-12.349c-0.619-2.766,0.478-7.749-2.502-8.795
	c-1.024,3.254-0.096,7.26-0.371,10.864c0.261,13.634,3.117,27.522,2.507,40.986c-2.789,3.904-7.233,6.022-11.419,7.81
	c-4.865-11.64,2.685-25.534,1.284-38.032c-16.081-12.542-18.478-34.174-27.431-51.286c-0.877-6.013,4.138-11.484,4.678-16.39
	c-5.638,3.982-9.662,11.735-9.202,18.939c1.06,11.977,5.246,22.849,8.76,33.949c0.048,1.552,2.17,3.721,0.466,4.927
	c-1.35-0.542-2.665-0.821-3.527-1.984c-4.863-15.199-14.29-30.418-11.784-46.968C377.381,287.116,391.796,286.186,404.326,287.344
	L404.326,287.344z M417.034,298.024c-2.016,9.066-13.505,16.331-10.66,26.652c1.014,1.3,2.274,2.282,3.668,3.115
	c0.183,0.397,1.498,0.676,1.012,1.3c-2.398,1.436-4.995-0.101-7.013-1.418c-3.15-4.739-0.445-10.478,3.227-14.2
	C410.322,308.245,412.629,302.69,417.034,298.024L417.034,298.024z M392.143,307.499c1.435,2.396,4.131,3.478,5.938,5.397
	c-1.176,0.854-2.977,1.219-4.232,1.518C391.682,312.979,390.699,309.677,392.143,307.499L392.143,307.499z M454.383,365.167
	c7.748,13.139,8.736,29.114,9.476,44.402c-5.482,8.644-13.626,16.49-23.131,20.228c0.352-4.031-0.202-8.516,0.431-12.583
	c6.208-8.591,14.071-16.401,17.261-26.34c-0.317-0.249-0.386-0.814-0.828-0.904c-3.968,2.492-7.912,6.259-12.743,7.564
	C448.527,386.97,452.327,376.248,454.383,365.167L454.383,365.167z M497.846,432.281c0.838,0.892,2.901,1.497,2.227,2.996
	c-31.605,41.503-62.963,82.69-95.607,123.893c-1.337,0.729-2.444,2.148-3.767,2.885c-1.82,0.37-3.691,0.168-5.412,0.105
	c-20.542-8.429-41.894-15.192-61.499-25.153c2.734-2.193,5.457-4.377,8.557-5.754c18.896,6.635,37.171,15.048,56.381,20.65
	c10.086-7.08,20.477-17.479,27.154-27.983c-3.26-3.308-9.427-2.535-11.6-6.256c1.866-5.643,9.438-11.142,4.996-17.145
	c1.199-4.136,2.843-8.184,4.316-12.344c9.332-0.59,18.798,8.073,28.005,3.08c9.969-6.934,10.433-20.515,15.65-30.132
	c-0.239-1.959-2.507-2.96-2.342-5.113c3.945-11.888,7.594-23.732,11.867-35.363C483.974,423.743,490.973,428.434,497.846,432.281
	L497.846,432.281z M402.612,358.749c0.318,0.25,0.759,0.338,0.829,0.905c-1.971,4.795-2.194,9.95-4.47,14.506
	c-14.608,0.524-30.827,4.097-43.578-4.588c0.987-3.535,6.325,1.648,7.743-1.81c-0.447-1.369,0.978-2.539,0.363-4.021
	c-1.929-1.762-4.941-0.825-7.084-1.985c1.218-2.849,1.366-6.29,3.331-8.81c6.115-0.048,11.883,1.66,17.855,2.776
	C386.056,354.963,394.566,357.038,402.612,358.749L402.612,358.749z M470.58,415.575c-1.203,13.243-7.853,26.309-9.902,39.674
	c-2.104,1.387-4.706,1.145-6.884,0.709c1.971-9.36,2.524-19.824,5.781-29.199C463.089,422.91,466.214,418.249,470.58,415.575
	L470.58,415.575z M396.381,367.067c1.372,0.835,2.305,2.566,1.643,4.071c-3.268,1.268-7.719,2.106-10.59-0.392
	c-0.14-1.13-0.629-2.772,0.23-3.872C390.558,366.085,393.537,367.131,396.381,367.067L396.381,367.067z M402.118,378.897
	c-0.393,6.026,1.874,15.148-3.723,19.396c-1.944,0.529-3.867,1.053-5.986,1.172c-10.108-2.318-19.686-5.973-29.118-9.79
	c-0.797-0.621-1.667-0.79-1.93-1.763c0.11-1.428,0.651-2.776,1.193-4.123C374.953,379.263,389.303,380.051,402.118,378.897
	L402.118,378.897z M449.974,435.493c0.311,7.086-2.637,14.422-3.323,21.48c0.41,5.65,8.626,2.931,12.623,3.002
	c-1.335,5.292-3.315,10.098-5.408,15.054c-3.171,0.813-6.725,0.831-9.903,1.654c-3.642-1.836-7.585-2.63-11.201-4.173
	c1.401-10.568,4.274-20.756,6.866-30.889C442.394,438.704,446.855,437.877,449.974,435.493L449.974,435.493z M353.543,363.821
	c2.607,1.524-0.415,2.471-1.955,1.524C350.982,363.851,352.512,363.531,353.543,363.821L353.543,363.821z M392.706,423.769
	c4.45,3.725,8.482,8.641,10.657,13.642c-2.4,0.152-3.653-3.108-5.672-4.426c-1.894-1.478-3.6-3.831-6.079-4.231
	c0.386,0.812,1.577,1.229,1.963,2.044c4.641,4.111,7.984,9.255,11.327,14.399c1.813,5.466,8.609,9.762,8.056,15.664
	c-0.282,0.034-0.847,0.105-1.042-0.301c-12.258-15.147-28.866-27.333-43.894-40.567c-0.733-2.617-1.804-5.478-1.877-8.311
	c1.602-2.052,4.309-0.962,5.876,0.259C379.321,414.606,386.038,419.334,392.706,423.769L392.706,423.769z M395.404,465.163
	c3.08,4.173,6.929,7.685,10.144,11.707c1.752,3.905,6.69,7.008,6.937,11.249c-0.531,0.353-1.123,0.13-1.689,0.199
	c-12.402-10.422-27.066-18.575-39.709-28.69c-0.352-0.53-0.865-1.185-0.66-1.774c1.602-2.053,3.433,1.143,5.145,1.22
	C381.698,462.593,388.641,463.449,395.404,465.163L395.404,465.163z M401.677,522.778c0.588,0.204,0.659,0.769,1.134,1.143
	c-0.758,4.224-2.197,8.668-5.063,12.014c-9.087-2.012-18.11-4.742-26.556-8.538c0.641-1.781,4.339-2.966,2.42-4.718
	c-1.843,0.094-3.392,1.424-4.657,2.718c-0.734,0.943-1.979,1.229-2.964,0.222c4.513-6.115,11.718-10.131,18.63-12.842
	c0.555,0.926-2.058,1.68-1.205,2.854c0.476,0.375,0.818,0.896,1.349,0.544C391.212,513.102,396.033,520.914,401.677,522.778
	L401.677,522.778z M366.277,495.677c3.803,4.228,8.624,7.476,12.948,11.359c-3.094,2.659-6.359,6.19-10.376,7.129
	c-0.159-0.126-0.476-0.372-0.636-0.496C367.903,507.586,367.129,501.418,366.277,495.677L366.277,495.677z M345.525,485.572
	c2.415,5.679,3.927,12.187,5.121,18.447c-0.734,0.942-0.913,1.825-1.805,2.644c-5.397,2.379-12.182,1.649-17.002-1.602
	c-1.031-4.853-1.282-10.38-1.624-15.464c0.246-0.318,0.686-0.23,1.087-0.413c2.26,3.28,0.9,7.294,1.906,10.869
	c0.625,5.047,6.323,6.19,10.455,6.11c0.706,0.056,1.553-0.048,2.081-0.402c3.862-5.602-0.752-12.997-0.996-19.52
	C344.996,485.924,345.242,485.606,345.525,485.572L345.525,485.572z M380.755,517.102c2.362,1.84-2.624,5.305-4.394,3.67
	C375.799,518.564,378.902,517.186,380.755,517.102L380.755,517.102z M341.577,487.054c2.674,4.366,2.561,10.356,3.302,15.26
	c-0.489,0.624-0.985,1.26-1.776,1.642c-8.864,0.954-7.915-8.708-7.806-14.701C337.163,488.173,339.722,488.144,341.577,487.054
	L341.577,487.054z M363.689,520.78c1.259,0.984-1.478,1.894-2.053,2.961c-12.947-4.53-26.848-7.507-39.712-12.466
	C335.611,514.849,349.912,517.644,363.689,520.78L363.689,520.78z M314.652,490.383c0.761,3.893,1.791,8.749,1.155,12.817
	c-5.278-0.067-6.516-6.598-10.009-9.58C306.555,489.394,311.688,490.605,314.652,490.383L314.652,490.383z M397.686,566.549
	c0.318,0.248,0.795,0.619,0.546,0.937c-6.221,7.321-14.817,11.512-23.243,15.833c-44.28-13.749-84.724-37.939-126.945-56.926
	c5.515-3.819,12.965-4.597,19.245-6.799c17.101,8.284,33.974,16.881,51.308,24.561c5.394,2.183,11.158,6.165,16.53,7.07
	c-3.32-3.865-8.929-5.448-13.396-8.166c-7.822-3.31-15.207-7.81-22.929-11.55c-5.544-3.303-12.211-5.473-16.977-9.445
	c33.485,11.679,64.501,33.334,98.825,42.603c-4.462-4.995-13.003-6.071-18.113-10.566c0.461-0.919,1.519-0.332,2.242-0.279
	C376.068,557.555,387.02,562.044,397.686,566.549L397.686,566.549z M299.85,497.34c4.324,3.884,7.903,8.701,9.197,14.528
	c-4.296-1.324-8.535-3.354-12.741-5.119C297.487,503.618,299.099,500.57,299.85,497.34L299.85,497.34z M338.739,529.698
	c0.317,0.247,0.739,0.338,0.658,0.769c-2.508,1.602-4.825,3.591-7.335,5.192c-2.188-0.447-4.296-1.326-6.193-2.802
	c2.486-1.877,5.145-3.343,7.666-4.936C335.283,528.279,336.982,529.349,338.739,529.698L338.739,529.698z M329.762,526.255
	c0.16,0.124,0.477,0.373,0.5,0.647c-3.472,1.854-7.198,6.302-11.046,2.791C322.259,527.756,326.166,523.706,329.762,526.255
	L329.762,526.255z M323.141,523.373c0.318,0.247,0.749,0.329,0.659,0.769c-3.259,1.254-7.074,6.145-10.48,2.721
	C316.386,525.201,319.617,521.388,323.141,523.373L323.141,523.373z M315.796,520.436c0.318,0.247,0.477,0.371,0.784,0.611
	c-2.872,2.067-7.189,6.292-10.231,2.402C309.324,522.231,312.473,518.849,315.796,520.436L315.796,520.436z M306.829,516.982
	c0.601,0.214,0.069,0.565-0.177,0.884c-2.332,0.718-4.602,4.259-6.997,2.134C301.283,518.242,304.344,515.3,306.829,516.982
	L306.829,516.982z M300.241,514.383c0.162,0.124,0.478,0.371,0.626,0.487c-1.763,0.65-3.765,2.885-5.503,1.531
	C296.666,515.387,298.567,514.588,300.241,514.383L300.241,514.383z"/>
</svg>
