<?xml version="1.0" encoding="utf-8"?>
<!-- Generator: Adobe Illustrator 17.0.0, SVG Export Plug-In . SVG Version: 6.00 Build 0)  -->
<!DOCTYPE svg PUBLIC "-//W3C//DTD SVG 1.1//EN" "http://www.w3.org/Graphics/SVG/1.1/DTD/svg11.dtd">
<svg version="1.1" id="Layer_1" xmlns="http://www.w3.org/2000/svg" xmlns:xlink="http://www.w3.org/1999/xlink" x="0px" y="0px"
	 width="800px" height="600px" viewBox="0 0 800 600" enable-background="new 0 0 800 600" xml:space="preserve">
<path fill-rule="evenodd" clip-rule="evenodd" fill="#020000" d="M477.841,175.315c6.915-1.445-0.118,8.404-1.842,11.405
	c-5.141,8.974-8.211,15.952-13.607,24.646c-0.961,1.55-3.026,3.287-2.946,4.409c0.099,1.34,6.407,6.797,7.728,8.093
	c14.227,14.004,25.13,27.4,30.532,50.396c3.088,13.161,4.099,27.474,1.097,41.199c-0.7,3.219-2.685,6.494-3.311,10.295
	c-0.224,1.402,0.359,2.53,0,4.416c-0.85,4.459-5.03,8.844-5.88,13.979c-0.255,1.519,0.775,1.606,0.366,3.312
	c-0.285,1.184-2.146,3.82-3.312,5.885c-2.878,5.098-5.619,7.851-9.191,12.503c-2.09,2.716-3.553,5.507-5.154,7.728
	c-1.644,2.276-3.423,3.281-4.781,5.147c-4.112,5.656-8.701,11.957-14.717,16.553c-3.318,2.542-7.089,4.366-10.661,6.989
	c-3.913,2.878-7.045,6.828-11.771,9.191c-3.944,1.984-8.317,3.529-12.509,5.519c-11.325,5.396-26.346,11.083-39.723,13.613
	c-16.497,3.119-38.03,0.645-56.282-2.574c-2.171-0.384-4.726-0.254-6.617-0.738c-3.119-0.794-7.87-4.273-11.777-6.252
	c-1.65-0.837-5.086-1.153-6.252-2.207c-1.364-1.235-0.335-3.219-1.836-4.781c-0.663-0.695-1.959,0.583-2.945,0
	c-0.8-0.472,0.13-1.631-0.366-2.58c-0.912-1.736-5.284-4.093-8.093-6.983c-1.303-1.339-2.531-2.909-3.678-4.043
	c-1.414-1.402-3.206-3.473-3.678-3.684c-0.707-0.316-2.567,0.347-2.946,0c-0.453-0.422,0.669-1.234,0.372-2.208
	c-0.391-1.252-7.033-7.845-8.46-9.557c-12.496-14.997-23.102-40.765-23.542-65.845c-0.335-18.711,7.343-39.059,14.711-52.97
	c1.222-2.301,1.774-5.222,2.94-6.617c0.267-0.31,1.576,0.137,2.208-0.372c0.974-0.782,1.228-3.547,1.842-4.409
	c1.271-1.799,3.386-3.269,4.781-5.154c3.913-5.277,8.887-11.213,13.979-15.814c3.585-3.243,8.559-5.705,13.241-8.831
	c3.088-2.059,5.532-4.85,8.831-6.99c7.752-5.036,16.435-9.073,25.378-13.607c1.805-0.918,2.909-2.493,4.409-3.312
	c1.569-0.843,1.898-0.149,5.154-1.842c3.529-1.823,3.033-2.5,4.05-1.098c1.619,2.239-3.566,4.335-3.683,4.416
	c-8.888,5.861-20.74,14.717-28.69,22.805c-3.572,3.634-7.461,7.659-9.198,10.667c-0.633,1.104-0.638,2.952-1.104,3.671
	c-1.327,2.102-3.833,3.715-5.147,6.257c-3.101,5.979-5.917,13.328-8.093,20.231c-0.416,1.321-0.347,2.673-0.732,4.05
	c-1.296,4.577-3.417,9.439-3.684,15.083c-0.949,20.106,5.836,37.136,15.083,51.122c5.191,7.851,12.46,16.379,19.865,20.968
	c7.492,4.646,16.832,9.433,25.744,11.4c10.146,2.245,21.508,4.651,33.106,3.311c12.211-1.402,23.66-5.451,34.216-9.929
	c9.798-4.155,19.883-9.917,27.951-16.181c3.225-2.505,9.216-7.535,10.667-11.405c5.65-15.052,3.101-36.56-4.043-50.024
	c-1.197-2.251-4.025-6.897-4.781-7.362c-1.755-1.067-5.074,1.029-4.043-3.678c0.831-3.833-2.27,2.685-2.215,2.574
	c-2.691,4.899-6.046,8.601-7.355,14.716c-0.316,1.482,0.031,3.666-0.366,4.416c-0.67,1.266-6.407,5.018-8.093,6.252
	c-2.307,1.681-6.797,5.761-8.459,5.886c-0.286,0.018-3.728-0.899-5.154-2.208c-1.736-1.606-3.734-6.754-5.513-9.929
	c-3.883-6.952-6.872-13.867-10.295-20.596c-5.061-9.936-9.694-21.272-14.717-31.27c-2.834-5.638-5.191-9.514-7.728-15.449
	c-1.457-3.405-3.399-4.881-1.47-8.831c0.744-1.532,2.977-2.896,4.41-4.781c1.197-1.563,2.27-3.386,3.684-5.514
	c1.972-2.977,5.352-10.035,7.721-10.667c0.967-0.26,3.287,0.707,4.416,0.732c6.977,0.149,14.711-2.896,22.438-4.044
	c18.37-2.728,34.736-9.421,51.494-14.716c3.51-1.104,7.244-3.002,9.936-3.306c1.873-0.217,4.477,1.321,6.251,0.732
	C476.861,177.238,476.83,175.533,477.841,175.315z M455.768,185.617c-4.993,0.626-10.233,3.442-15.815,5.148
	c-11.25,3.441-20.441,6.257-33.844,8.093c-1.91,0.26-17.08,2.772-17.656,3.683c-0.428,0.664,1.966,5.142,1.476,4.044
	c6.909,15.541,13.117,30.079,19.864,44.504c1.662,3.572,5.328,13.675,7.715,15.821c0.961,0.85,2.623,0.651,3.311,1.104
	c2.462,1.612,2.221,4.317,4.416,4.416c2.623,0.112,5.848-5.259,7.361-7.362c1.991-2.778,5.086-6.772,6.252-8.825
	c1.668-2.952,2.332-8.112,5.148-9.197c1.811-0.695,5.042-0.056,6.257,0.738c1.538,0.998,3.709,6.865,5.514,10.295
	c2.108,4.019,4.155,6.939,5.885,9.935c6.047,10.463,8.962,23.083,9.929,37.881c0.521,7.858-1.898,11.411-4.043,16.187
	c-1.098,2.437-1.433,5.178-2.208,6.624c-0.88,1.637-2.778,3.045-4.043,4.775c-4.124,5.662-7.678,10.159-12.875,14.351
	c-12.962,10.475-28.975,20.472-47.078,25.384c-9.78,2.643-19.492,5.669-30.904,5.514c-6.884-0.093-14.525-1.96-21.335-3.678
	c-3.92-0.986-7.647-3.225-11.405-4.05c-1.575-0.341-3.169-0.018-4.781-0.366c-11.313-2.449-24.169-9.594-32.733-16.553
	c-6.543-5.309-9.818-11.163-13.613-18.754c-1.736-3.485-3.696-6.834-5.147-9.935c-3.114-6.649-5.514-16.15-6.258-24.274
	c-1.55-17.148,2.561-31.233,8.093-44.511c1.898-4.552,4.863-9.098,6.99-12.503c2.121-3.386,0.962-1.482,4.05-5.892
	c0.856-1.222,3.436-5.265,0.366-6.617c-1.073-0.478-6.883,5.545-9.929,8.832c-4.428,4.757-6.382,7.206-8.46,11.399
	c-6.977,14.103-12.782,30.625-13.979,48.92c-0.627,9.569,0.7,16.385,2.201,23.542c0.838,3.963,1.544,8.404,2.58,12.503
	c5.464,21.694,20.764,42.538,38.253,52.976c1.966,1.172,4.626,1.699,6.624,2.94c2.183,1.358,3.907,3.324,5.886,4.043
	c1.203,0.446,2.623-0.081,4.043,0.372c1.116,0.347,2.561,1.377,3.678,1.836c4.174,1.712,7.932,3.169,12.137,4.416
	c5.737,1.693,12.187,3.714,18.029,4.043c16.949,0.974,41.527-1.191,58.849-4.416c5.364-0.993,11.504-2.146,16.187-4.404
	c1.805-0.881,3.386-2.952,5.514-4.056c18.183-9.358,30.42-23.089,41.937-41.558c10.742-17.235,19.034-35.53,18.028-58.49
	c-0.533-12.081-4.124-26.581-8.099-35.679c-4.763-10.928-13.093-21.167-20.962-29.062c-2.251-2.258-5.88-6.723-8.831-8.093
	c-1.668-0.769-5.96-0.211-6.252-3.678c-0.13-1.569,2.958-5.7,4.043-7.721c3.194-5.948,5.309-9.371,8.1-15.449
	c0.738-1.625,3.386-8.366,1.097-9.563c-0.93-0.49-1.023,0.446-2.573,0.366C460.81,185.524,458.695,185.251,455.768,185.617z
	 M375.578,213.941c-2.313,3.113-5.445,4.93-5.519,7.721c-0.044,2.04,0.744,2.667,1.476,1.476c1.767-2.89,3.083-5.209,4.781-8.093
	c2.047-3.48,6.655-10.159,4.416-8.831C379.039,207.224,377.457,211.423,375.578,213.941z M377.786,219.826
	c-1.718,2.778-5.396,6.097-5.148,8.46c0.025,0.217,1.321,2.263,1.836,2.208c0.415-0.043,3.826-6.407,5.154-8.459
	c1.923-2.983,5.234-6.655,5.148-8.831c-0.062-1.719-1.501-2.195-1.47-2.208C382.208,211.193,379.697,216.738,377.786,219.826z
	 M386.245,218.722c-1.811,2.388-5.86,7.486-8.087,11.405c-0.633,1.104-1.854,4.124-1.842,4.409c0,0.044,2.81,4.825,2.574,4.788
	c1.358,0.236,4.285-6.034,5.52-8.1c1.593-2.654,5.098-6.332,5.154-8.825c0.031-2.034-2.549-4.416-2.58-4.416
	C386.531,218.034,386.469,218.437,386.245,218.722z M386.245,235.275c-1.327,2.065-4.658,5.613-4.781,7.355
	c-0.062,0.899,2.394,5.848,2.58,5.886c1.073,0.224,4.242-5.78,5.52-7.721c1.395-2.14,5.389-5.761,5.513-7.728
	c0.1-1.6-2.945-5.582-3.678-6.252c0.013,0.013-0.006,0.372,0,0.372C390.58,227.38,387.976,232.596,386.245,235.275z
	 M391.033,245.576c-1.333,1.96-4.694,5.334-4.788,6.989c-0.049,0.906,2.072,5.117,2.208,5.147c1.47,0.372,4.719-5.693,5.885-7.355
	c1.854-2.642,5.551-6.04,5.52-8.093c-0.013-0.924-3.244-4.732-3.312-4.782c0.018,0.012-0.006,0.366,0,0.366
	C394.699,238.091,392.844,242.891,391.033,245.576z M400.962,247.785c-1.47,2.406-4.335,5.023-5.519,6.617
	c-1.185,1.6-4.392,5.824-4.41,7.721c-0.012,1.16,2.487,4.999,2.94,5.892c1.184,2.307,4.44-4.378,5.886-6.624
	c1.079-1.674,5.129-7.113,5.147-8.459c0.031-1.532-3.119-5.985-3.671-6.624c0.006,0.019-0.006,0.372,0,0.372
	C401.093,246.73,401.099,247.555,400.962,247.785z M401.694,265.441c-1.302,1.941-5.234,5.607-5.147,7.722
	c0.037,0.893,1.29,2.623,1.835,2.573c-0.105,0.013,4-5.848,5.154-7.355c1.631-2.127,5.178-6.133,5.154-7.721
	c-0.038-1.929-2.108-2.561-1.842-2.58C405.093,258.222,403.034,263.444,401.694,265.441z M443.259,267.642
	c-0.056,0.143-1.836,3.287-0.732,3.312c0.589,0.013,2.103-6.028,2.202-6.252c0.316-0.62,4.955-6.859,3.684-6.99
	c-0.62-0.068-1.973,3.554-1.842,3.312c-0.062,0.118-1.054,2.115-1.842,3.678C444.301,265.559,443.873,266.179,443.259,267.642z
	 M447.675,268.746c-0.54,1.172-3.293,9.682-1.47,5.52c0.912-2.084,7.721-12.614,4.781-11.771
	C449.684,262.867,448.611,266.737,447.675,268.746z M404.64,272.43c-1.228,1.581-5.005,4.993-5.147,6.245
	c-0.118,1.029,2.499,4.794,2.939,4.788c0.757-0.018,3.448-5.526,4.782-7.361c1.408-1.923,4.999-5.148,5.147-6.984
	c0.18-2.214-2.369-3.727-2.568-3.678C409.087,265.596,406.507,270.018,404.64,272.43z M450.62,273.894
	c-0.111,0.198-3.578,6.283-1.842,6.257c0.056,0,2.865-4.285,3.684-5.513c1.433-2.177,4.261-6.81,1.835-6.258
	C453.126,268.647,451.576,272.183,450.62,273.894z M408.318,280.518c-1.259,1.873-4.409,5.854-4.416,7.355
	c0,0.88,1.333,2.94,1.842,2.945c0.298,0,3.944-5.594,5.148-7.355c1.463-2.14,4.806-6.251,4.781-7.728
	c-0.031-1.929-2.065-2.537-1.836-2.573C413.155,273.268,409.744,278.384,408.318,280.518z M450.62,284.196
	c-0.068,1.036,1.898,4.416,2.202,4.416c0.633,0.006,1.117-2.134,0.738-1.47c1.228-2.164,6.568-7.752,6.624-9.563
	c0.056-1.997-3.188-3.61-2.574-3.684C456.388,274.031,450.683,283.203,450.62,284.196z M411.63,288.245
	c-0.955,1.432-3.808,6.084-3.678,7.721c0.056,0.769,1.569,3.064,2.202,2.946c0.459-0.086,0.552-1.953,1.476-3.678
	c0.7-1.308,1.724-2.183,2.207-2.945c1.563-2.456,2.574-5.507,3.672-6.983c0.676-0.906,1.799-0.875,1.842-1.842
	c0.087-1.786-2.338-2.53-1.842-2.573C416.56,280.983,412.963,286.236,411.63,288.245z M258.977,282.725
	c-1.489,3.393-5.377,8.503-6.617,11.399c-0.695,1.632-2.289,7.604,0,4.056c1.799-2.81,6.307-8.763,6.983-10.674
	c0.695-1.953,0.645-6.276,0.366-6.251C259.684,281.256,258.984,282.707,258.977,282.725z M453.932,293.027
	c-0.05,0.626,1.798,6.971,1.836,6.99c0.75,0.31,0.942-0.862,1.104-1.104c1.762-2.728,6.363-8.441,6.617-11.039
	c0.285-2.853-1.675-5.185-2.202-5.148C459.682,282.831,454.044,291.427,453.932,293.027z M419.723,288.977
	c-0.837,1.532-6.276,10.277-5.519,10.667c0.521,0.273,7.386-5.34,7.721-6.252c0.843-2.263-0.316-6.221-1.47-5.886
	C420.244,287.569,419.841,288.754,419.723,288.977z M463.124,295.601c-1.544,2.251-6.301,6.667-6.617,8.825
	c-0.13,0.868,1.16,5.805,1.47,5.892c-0.167-0.05,3.157-4.893,3.312-5.154c1.036-1.743,5.725-10.779,2.574-11.039
	C463.316,294.087,463.303,295.34,463.124,295.601z M257.141,296.705c-2.189,3.492-7.709,9.96-8.459,12.875
	c-0.701,2.692-1.166,8.516,1.097,5.148c2.574-3.833,6.946-8.671,8.093-12.503c0.49-1.625,0.899-7.275,0.366-7.355
	C258.01,294.825,257.29,296.463,257.141,296.705z M457.61,316.197c-0.67,2.419-0.72,9.576-0.738,9.564
	c0.596,0.285,2.462-4.571,2.574-4.781c0.769-1.47,6.363-13.284,4.043-13.607C462.584,307.247,457.579,316.302,457.61,316.197z
	 M256.769,308.841c-1.327,1.811-7.926,9.681-8.459,11.771c-0.415,1.644-0.155,6.996,0.372,7.355
	c0.936,0.658,1.693-1.953,2.568-3.311c3.423-5.265,8.528-10.519,5.891-16.919c0.006,0.025-0.012,0.366,0,0.366
	C257.197,308.11,256.782,308.829,256.769,308.841z M253.457,327.236c-1.141,1.867-3.932,5.42-4.043,6.617
	c-0.025,0.26,1.625,5.216,1.47,5.154c1.048,0.453,3.752-5.129,4.788-6.623c2.865-4.174,6.99-8.404,2.94-13.607
	c0.012,0.012-0.013,0.366,0,0.366C257.662,319.205,254.76,325.109,253.457,327.236z M260.819,331.28
	c-1.395,2.462-8.006,10.19-8.1,13.607c-0.025,1.123,1.296,4.031,1.842,4.05c0.272,0.013,3.064-5.073,4.05-6.624
	c1.402-2.207,3.826-5.271,4.043-6.983c0.366-2.859-1.116-4.819-1.476-4.788C260.695,330.591,261.012,330.939,260.819,331.28z
	 M263.021,340.843c-0.937,2.623-6.853,8.279-6.99,11.033c-0.074,1.55,1.563,4.912,2.58,4.781c0.062-0.006,2.387-4.546,3.306-5.885
	c1.271-1.836,3.504-3.635,3.683-5.514c0.174-1.879-1.829-5.234-2.214-5.154C262.947,340.211,263.169,340.428,263.021,340.843z
	 M260.081,361.08c0.298,8.342,9.142-6.127,9.197-6.624c0.192-1.786-2.487-4.062-2.58-4.05
	C265.322,350.605,260.038,359.877,260.081,361.08z M263.759,368.429c0.013,1.34,1.656,3.442,2.574,3.312
	c0.458-0.068,2.362-3.963,3.312-5.513c1.507-2.462,4.806-8.317,1.104-7.728C269.899,358.636,263.747,367.139,263.759,368.429z
	 M268.175,375.418c0.056,0.695,1.662,1.706,2.574,2.946c2.208,3.02,1.886,4.006,3.678,0.732c0.98-1.786,5.129-6.468,5.147-8.093
	c0.031-1.743-4.707-5.848-4.416-5.879C273.911,365.272,268.051,373.967,268.175,375.418z M276.268,382.408
	c-0.633,0.688-1.835,0.763-1.842,1.47c-0.006,0.707,3.548,4.124,4.043,4.049c0.782-0.117,6.351-10.4,6.258-11.039
	c-0.261-1.78-2.865-2.357-3.312-2.202C279.853,375.22,277.893,380.647,276.268,382.408z M285.831,381.676
	c-0.347,0.478-5.154,8.186-5.148,8.459c0,1.092,2.834,3.752,3.306,3.678c0.831-0.13,6.748-9.948,6.623-10.667
	c-0.279-1.606-3.46-2.543-3.312-2.574C287.27,380.578,286.098,381.31,285.831,381.676z M286.197,396.753
	c0.081,0.545,1.966,2.22,2.202,2.208c0.695-0.037,8.186-10.55,8.1-11.034c-0.193-1.066-3.188-1.779-2.946-1.842
	C292.337,386.377,286.005,395.426,286.197,396.753z M290.979,401.906c0.186,1.24,3.753,3.969,5.154,3.678
	c1.085-0.229,8.255-11.275,8.087-12.137c-0.335-1.762-5.904-3.039-5.147-3.312C298.241,390.433,290.812,400.803,290.979,401.906z
	 M307.532,396.387c-1.563,1.935-8.807,10.345-8.459,11.771c0.167,0.701,2.672,2.003,3.306,1.842c0.942-0.248,2.673-4.825,4.05-6.623
	c1.439-1.873,5.203-4.435,4.781-6.252c-0.298-1.278-2.834-1.83-3.678-1.476C307.438,395.692,307.6,396.3,307.532,396.387z
	 M313.417,399.699c-1.104,2.208-8.843,10.462-8.093,12.509c-0.025-0.081,2.215,1.097,2.208,1.097
	c1.147-0.192,3.07-4.713,4.416-6.617c1.594-2.27,5.061-5.123,4.781-6.252c-0.26-1.029-3.572-1.352-3.312-1.476
	C313.336,398.998,313.467,399.606,313.417,399.699z M314.887,407.792c-0.596,0.725-5.415,5.656-5.148,6.617
	c0.379,1.37,6.444,2.878,7.355,2.207c-0.502,0.372-0.117-2.766-0.366-1.842c0.397-1.451,2.338-3.479,4.044-5.879
	c1.241-1.749,4.224-4.968,3.678-6.257c-0.533-1.259-4.546-1.055-4.409-1.098C318.689,402.031,316.462,405.876,314.887,407.792z
	 M321.511,413.305c-0.844,1.055-4.329,3.17-4.05,4.05c0.149,0.465,5.432,2.084,5.892,2.208c3.175,0.862,3.721-3.696,5.514-6.624
	c1.29-2.096,4.595-5.296,4.043-6.623c-0.533-1.296-5.812-1.228-5.148-1.47C325.12,405.814,323.204,411.178,321.511,413.305z
	 M424.132,406.316c1.154-1.873-0.279-1.055,0-1.098C420.84,405.764,422.886,408.344,424.132,406.316z M417.143,409.628
	c0.93,0.161,2.171-5.452-0.366-2.573C417.298,406.465,415.996,409.429,417.143,409.628z M405.744,408.896
	c-0.161,0.124,0.031,1.24,0,1.47c-0.186,1.227-6.611,8.893-1.47,5.519c1.711-1.129,3.373-7.238,5.519-6.99
	c2.363,0.273,1.179,2.915,2.94,0.366c1.433-2.084,0.93-1.346-0.372-1.47C411.742,407.73,406.681,408.115,405.744,408.896z
	 M328.128,420.667c0.211,0.403,3.567,1.29,4.416,1.47c6.871,1.451,7.138-2.183,9.929-6.252c0.484-0.701,4.559-5.693,3.678-6.624
	c-0.322-0.347-9.017-1.339-9.557-1.104C335.756,408.524,327.539,419.514,328.128,420.667z M398.382,412.208
	c-0.304,0.558-3.07,3.622-3.671,4.409c-1.78,2.32,0.614,2.561,2.574,1.104c0.391-0.292,1.581-3.015,2.574-4.416
	c1.779-2.512,2.759-3.473,2.208-3.678C399.052,408.524,399.238,410.658,398.382,412.208z M386.618,411.104
	c-0.112,0.081-0.781,3.032-0.738,2.94c-0.49,0.936-1.352,1.476-1.836,2.208c-1.141,1.718-3.312,4.788-2.945,5.148
	c0.173,0.173,7.795-1.52,7.721-1.476c1.271-0.775,3.87-6.04,4.782-7.349c1.873-2.679,1.296-2.233-1.097-2.207
	C391.424,410.372,387.548,410.403,386.618,411.104z M349.096,411.464c-0.67,1.711-2.332,3.969-3.678,5.892
	c-0.682,0.974-4.118,4.832-3.312,5.514c0.459,0.391,5.104,0.025,5.154,0c1.03-0.533,2.388-4.075,3.678-5.886
	c0.608-0.855,2.859-3.355,3.312-4.043c2.009-3.064-4.546-2.586-5.154-2.207C349.009,410.788,349.14,411.365,349.096,411.464z
	 M354.25,417.355c-0.31,0.422-3.647,4.664-3.312,5.148c0.546,0.812,8.633,0.831,8.826,0.738c0.242-0.118,2.599-4.757,3.306-5.886
	c0.018-0.025,3.727-5.476,3.318-5.892c-0.986-0.98-7.3,0.173-7.728,0.372C357.047,412.567,355.788,415.209,354.25,417.355z
	 M369.327,413.677c-1.21,2.872-3.697,5.47-5.148,8.094c-1.296,2.326,2.183,1.848,2.94,1.469c1.389-0.701,4.075-7.207,5.154-8.831
	c1.303-1.966,2.772-2.493,0.366-2.574C369.674,411.737,369.978,412.127,369.327,413.677z M374.474,416.983
	c-0.329,0.509-3.175,5.284-2.94,5.52c-0.081-0.081,4.912-0.105,5.886-0.732c0.819-0.533,5.792-9.873,5.519-10.308
	c-0.173-0.26-4.391,0.533-4.05,0.372C377.34,412.574,376.112,414.49,374.474,416.983z"/>
</svg>
