<?xml version="1.0" encoding="utf-8"?>
<!-- Generator: Adobe Illustrator 17.0.0, SVG Export Plug-In . SVG Version: 6.00 Build 0)  -->
<!DOCTYPE svg PUBLIC "-//W3C//DTD SVG 1.1//EN" "http://www.w3.org/Graphics/SVG/1.1/DTD/svg11.dtd">
<svg version="1.1" id="Layer_1" xmlns="http://www.w3.org/2000/svg" xmlns:xlink="http://www.w3.org/1999/xlink" x="0px" y="0px"
	 width="800px" height="600px" viewBox="0 0 800 600" enable-background="new 0 0 800 600" xml:space="preserve">
<g>
	<path fill="#090909" d="M643.412,363.036c-0.91-25.424-5.837-56.223-17.15-75.008c-3.038-5.044-7.565-13.051-11.093-15.757
		c-7.775-5.926-20.197-0.5-27.863,0.747c-11.343,1.871-22.556,5.316-34.668,6.76c-3.168,0.762-5.226,0.595-9.294,2.244
		c-5.087,3.535-1.829,14.094-1.069,18.004c-4.467,1.649-9.904,1.289-14.301,2.259c0-0.382,6.826-9.557,7.865-11.251
		c7.905-12.957,13.292-29.222,17.869-44.26c5.697-5.039,10.454-11.021,17.869-14.258c1.639,3.726,12.902,9.634,16.45,9.752
		c3.128,0.13,6.406-2.701,9.644-4.874c9.115-6.081,16.839-13.934,23.945-19.493c5.027-6.094,11.413-10.771,14.651-18.763
		c-0.12-5.372-1.729-10.014-5.716-15.37c-7.245-10.181-16.46-19.428-27.163-28.502c-10.154-8.61-22.276-14.988-34.299-21.377
		c-9.314-4.942-18.948-10.149-30.032-10.873c-8.944-0.592-11.573,1.369-16.879,5.736c-12.892,10.631-32.719,31.768-30.291,39.643
		c-0.23,1.576,1.939,1.906,1.079,3.003c-4.297,6.866-11.183,12.575-18.238,16.494c-6.716,3.743-14.531,5.199-23.235,7.501
		c-0.58-1.604-0.62-2.851-1.21-4.46c-1.659-4.732-5.067-9.539-10.573-12.035c-5.686-2.588-15.091-2.196-20.727,2.251
		c-4.207,3.3-6.026,7.693-6.216,14.521c-9.494-7.96-26.144-1.017-27.373,11.72c-16.47-18.893-38.016-1.449-37.776,18.578
		c0.12,10.811,6.156,16.442,14.901,20.058c-3.198,1.087-5.516-2.189-8.225-3.758c-9.504-5.521-20.907-4.51-29.302,4.877
		c-4.927,5.319-10.703,14.691-5.716,28.895c-8.615,2.398-10.843,11.99-8.215,22.499c2.139,5.536,4.507,7.933,7.845,10.866
		c2.289,1.989,4.937,3.543,7.156,4.877c-0.41,0.068-0.38,0.595-0.35,1.122c-11.582-9.342-32.39-4.325-30.381,12.38
		c-3.048-0.442-5.506-0.147-7.495,1.119c-0.77-4.502-1.349-8.387-3.228-11.62c-3.957-6.763-14.131-12.49-22.716-9.716
		c-6.047,1.944-12.152,6.151-14.081,13.469c-11.663-7.977-29.252,0-27.013,17.065c-9.134-0.155-17.979,7.803-14.811,15.942
		c1.289,2.631,3.847,4.832,6.436,6.004c-11.573-0.615-23.365,6.631-20.727,20.987c1.369,7.443,9.214,10.611,14.761,14.196
		c3.977,2.591,7.106,5.074,10.243,7.553c-9.684,3.653-12.222,11.823-9.114,20.02c1.579,3.358,4.107,4.627,7.025,7.216
		c12.313,6.468,23.625,13.374,35.358,18.918c2.718,1.357,6.875,2.721,8.555,2.986c-4.897,5.462-2.469,10.301,2.848,13.499
		c3.468,2.076,6.886,3.798,10.394,5.727c3.048,1.679,6.086,3.997,9.274,5.522c1.069,0.514,2.938,1.622,4.087,2.076
		c2.219,0.88,3.648,1.614,5.187,2.046c2.418,0.682,5.896,1.187,8.794,1.721c6.586,1.227,11.963,0.807,18.369,1.292
		c5.067,0.375,10.003,1.891,14.661,2.251c7.885,0.587,13.342-1.107,19.808-2.046c14.281-2.046,28.762-2.948,42.384-5.089
		c9.025-1.421,16.509-6.238,24.305-8.255c0.6,3.13,1.149,5.417,3.218,7.882c13.032,13.867,34.009,2.339,33.949-15.745
		c4.287,8.33,17.219,8.454,23.585,2.993c2.928-2.516,3.198-5.729,4.987-9.005c5.417,5.189,11.713,5.844,17.879,4.127
		c4.857-1.342,11.253-5.779,12.872-10.486c3.977-11.623-3.328-20.225-11.193-23.825c15.37-13.572,34.648-14.586,58.004-17.065
		c0.979,2.928,2.089,6.556,4.647,7.128c1.459,0.33,4.877-0.255,6.706-0.372c22.986-1.512,41.614-5.149,59.403-9.754
		C642.383,403.543,643.911,377.02,643.412,363.036z"/>
	<path fill="#FFFFFF" d="M614.38,337.957c-1.119-30.644-7.415-58.331-16.869-74.047l-1.129-1.879
		c-2.809-4.722-6.656-11.203-9.484-13.359c-5.347-4.065-13.781-1.943-20.567-0.237c-2.129,0.544-4.147,1.046-5.946,1.334
		c-4.737,0.779-9.364,1.814-14.271,2.913c-6.556,1.474-13.331,3.001-20.367,3.835c-1.089,0.265-2.049,0.412-2.968,0.573
		c-1.729,0.279-3.378,0.544-5.767,1.504c-3.178,2.441-1.479,9.959-0.559,14.021c0.16,0.717,0.31,1.349,0.409,1.892l0.32,1.634
		l-1.499,0.545c-2.888,1.062-6.027,1.349-9.064,1.626c-1.949,0.17-3.818,0.345-5.467,0.697l-2.199,0.485l-0.01-2.361
		c0-0.852,0-0.852,4.427-7.018c1.549-2.141,3.298-4.562,3.728-5.272c7.935-13.017,13.292-29.434,17.659-43.805l0.17-0.528l0.4-0.36
		c1.419-1.257,2.829-2.621,4.178-3.93c4.117-3.978,8.344-8.09,14.171-10.626l1.619-0.702l0.739,1.679
		c1.209,2.739,11.663,8.525,14.841,8.635c1.969,0.065,4.427-1.654,6.776-3.315c0.6-0.43,1.21-0.857,1.839-1.264
		c5.626-3.765,10.683-8.185,15.57-12.447c2.828-2.466,5.486-4.792,8.095-6.861c1.519-1.811,3.138-3.498,4.707-5.135
		c3.708-3.86,7.216-7.503,9.355-12.572c-0.2-4.927-1.809-9.084-5.347-13.846c-6.596-9.287-15.13-18.234-26.833-28.158
		c-9.864-8.344-21.836-14.701-33.409-20.849l-0.58-0.307l-0.51-0.265c-8.994-4.772-18.299-9.719-28.802-10.403
		c-8.485-0.565-10.714,1.287-15.63,5.329c-15.21,12.537-31.49,31.673-29.691,37.532l0.14,0.427l-0.03,0.235
		c0.05,0.077,0.12,0.147,0.19,0.21c1.639,1.689,1.079,3.113,0.519,3.865c-4.098,6.506-10.783,12.567-18.848,17.055
		c-5.606,3.125-11.932,4.717-18.628,6.391l-5.017,1.279l-1.569,0.4l-0.6-1.571c-0.32-0.917-0.499-1.706-0.66-2.464
		c-0.16-0.674-0.31-1.309-0.56-2.029c-1.029-2.925-3.628-8.225-9.584-10.933c-4.997-2.281-13.782-2.006-18.888,2.021
		c-3.718,2.926-5.307,6.698-5.496,13.045l-0.1,3.842l-2.878-2.401c-3.957-3.331-9.774-3.905-15.18-1.512
		c-5.267,2.321-8.734,6.783-9.214,11.93l-0.42,4.273l-2.758-3.17c-6.066-6.946-13.282-9.157-20.358-6.231
		c-8.364,3.473-14.351,13.349-14.241,23.485c0.11,8.772,4.347,14.416,13.751,18.287l4.757,1.968l-4.877,1.654
		c-3.188,1.087-5.657-0.865-7.635-2.434c-0.71-0.562-1.369-1.082-2.029-1.472c-9.364-5.431-19.727-3.695-27.103,4.547
		c-7.096,7.648-8.895,16.689-5.307,26.87l0.69,1.981l-1.929,0.542c-8.225,2.289-8.985,11.82-6.966,20.032
		c2.009,5.119,4.197,7.298,7.296,10.012c2.039,1.789,4.448,3.225,6.566,4.487l0.31,0.19l4.637,2.778l-4.017,0.609l0.2,3.506
		l-3.188-2.573c-6.036-4.862-15.361-5.662-21.657-1.872c-4.387,2.641-6.446,7.086-5.796,12.49l0.3,2.471l-2.369-0.33
		c-2.748-0.397-4.757-0.117-6.296,0.865l-2.289,1.459l-0.47-2.771l-0.11-0.64c-0.66-4.055-1.239-7.545-2.868-10.308
		c-3.608-6.189-12.972-11.36-20.617-8.897c-3.928,1.269-10.844,4.532-12.862,12.152l-0.67,2.521l-2.089-1.429
		c-5.347-3.645-12.502-3.71-17.829-0.167c-4.907,3.248-7.216,8.857-6.366,15.355l0.29,2.229l-2.139-0.037
		c-4.777-0.087-9.784,2.448-12.192,6.143c-1.039,1.592-2.029,4.123-0.909,7.063c1.029,2.062,3.128,3.982,5.486,5.037l-0.819,3.695
		c-6.506-0.335-12.672,2.011-16.07,6.131c-2.758,3.338-3.688,7.568-2.778,12.582c0.969,5.222,5.926,8.14,10.693,10.963
		c1.149,0.674,2.229,1.299,3.248,1.966c3.928,2.544,7.076,5.03,10.104,7.428l0.28,0.227l2.708,2.134l-3.178,1.21
		c-4.047,1.526-6.916,3.99-8.255,7.128c-1.279,2.986-1.219,6.556,0.19,10.289c0.959,2.031,2.349,3.13,4.237,4.642
		c0.679,0.549,1.379,1.092,2.119,1.736c4.717,2.501,9.334,5.054,13.791,7.548c7.285,4.048,14.171,7.875,21.327,11.263
		c2.618,1.312,6.636,2.589,8.055,2.816l3.448,0.55l-2.389,2.676c-1.629,1.804-2.329,3.535-2.109,5.112
		c0.26,1.884,1.879,3.79,4.547,5.397c2.228,1.349,4.437,2.524,6.766,3.768l3.567,1.929c1.329,0.727,2.668,1.584,3.958,2.406
		c1.699,1.099,3.468,2.221,5.217,3.065c0.44,0.22,0.969,0.497,1.539,0.815c0.859,0.455,1.809,0.967,2.418,1.209
		c0.84,0.33,1.569,0.637,2.209,0.917c1.099,0.47,1.959,0.827,2.838,1.077c1.639,0.47,3.917,0.852,6.106,1.239l2.508,0.447
		c4.168,0.762,7.825,0.867,11.683,0.969c2.089,0.057,4.237,0.11,6.516,0.277c2.688,0.198,5.307,0.705,7.835,1.209
		c2.399,0.455,4.657,0.882,6.816,1.049c5.626,0.425,9.943-0.36,14.501-1.187c1.578-0.295,3.218-0.595,4.906-0.845
		c6.746-0.959,13.592-1.679,20.208-2.368c7.715-0.822,14.98-1.577,22.156-2.713c5.037-0.792,9.654-2.713,14.121-4.575
		c3.408-1.416,6.636-2.766,10.024-3.638l1.849-0.485l0.38,1.966c0.58,2.919,1.049,4.862,2.768,6.951
		c5.157,5.449,12.203,6.973,18.879,4.085c7.265-3.146,11.923-10.421,11.892-18.523l-0.03-7.648l3.468,6.731
		c1.429,2.751,4.167,4.672,7.735,5.404c4.637,0.97,9.894-0.232,13.082-2.983c1.589-1.356,2.198-2.933,3.018-4.949
		c0.44-1.144,0.889-2.296,1.569-3.52l1.139-2.073l1.679,1.619c4.387,4.195,9.824,5.426,16.17,3.688
		c4.397-1.224,10.243-5.337,11.613-9.304c3.668-10.683-3.198-18.201-10.203-21.382l-2.708-1.239l2.258-2.004
		c14.661-12.942,32.819-14.811,53.846-16.974l5.157-0.535l1.439-0.14l0.47,1.407l0.11,0.337c0.739,2.209,1.749,5.229,3.198,5.559
		c0.739,0.163,2.808-0.08,4.177-0.227c0.749-0.08,1.449-0.155,2.028-0.182c19.998-1.315,38.196-4.298,59.023-9.687
		C612.871,377.05,614.94,353.312,614.38,337.957z"/>
	<g>
		<path fill="#040404" d="M238.954,304.13c-1.729-4.897,0.04-11.241-1.069-14.621c-8.705-2.054-13.002,9.05-8.215,16.117
			C232.938,305.304,237.025,305.862,238.954,304.13z M231.099,294.743c1.719-2.448,3.148-1.289,4.657-2.243
			c-0.919,3.418-0.16,5.888,0,9.754C231.469,305.569,228.49,298.506,231.099,294.743z"/>
		<path fill="#040404" d="M307.581,246.006c0.44-4.574-1.559-9.866,1.439-13.511c-2.479-2.943-6.506-1.169-9.654-1.499
			c-3.118,2.061-3.048,9.921-1.799,14.248C301.465,245.682,304.793,245.969,307.581,246.006z M299.706,234.753
			c1.509-0.694,2.988-1.376,5.377-1.124c0.05,1.999-0.8,6.368,0,9.372c-1.559,0.772-3.668,0.183-5.377,0
			C299.536,239.785,299.156,238.421,299.706,234.753z"/>
		<path fill="#040404" d="M336.173,187.488c-0.869-1.229-2.068-1.054-3.228-0.744c-5.686,1.499-8.535,11.398-6.066,18.004
			c3.658,2.373,8.715-1.407,11.443-2.631C335.674,198.746,333.695,192.26,336.173,187.488z M329.737,202.878
			c-2.348-4.102-1.029-10.493,2.858-12.017c-0.519,2.826,0.16,7.493,1.789,10.129C332.815,201.601,331.416,202.391,329.737,202.878z
			"/>
		<path fill="#040404" d="M345.817,354.376c0,0.255,0,0.505,0,0.762c2.249,2.793,11.893-1.057,15.73-2.626
			C357.37,350.246,348.675,351.648,345.817,354.376z"/>
		<path fill="#040404" d="M361.188,389.639c0.68-0.08,11.003-0.967,13.592-4.877C369.223,384.258,363.296,384.887,361.188,389.639z"
			/>
		<path fill="#040404" d="M378.706,421.142c0.08,0.292,12.663-1.842,13.222-5.626C380.925,414.616,377.917,420.605,378.706,421.142z
			"/>
		<path fill="#040404" d="M615.279,337.876c-0.909-25.409-5.836-56.207-17.149-75.008c-3.048-5.03-7.545-13.049-11.093-15.735
			c-7.765-5.942-20.187-0.522-27.853,0.742c-11.333,1.874-22.566,5.307-34.669,6.751c-3.178,0.762-5.226,0.602-9.304,2.251
			c-5.077,3.528-1.819,14.094-1.069,18.003c-4.467,1.642-9.914,1.282-14.301,2.251c0-0.375,6.836-9.557,7.875-11.258
			c7.886-12.935,13.272-29.222,17.859-44.258c5.686-5.032,10.463-11.028,17.869-14.251c1.649,3.725,12.912,9.636,16.44,9.761
			c3.138,0.105,6.416-2.718,9.644-4.885c9.115-6.086,16.85-13.926,23.955-19.49c5.036-6.094,11.413-10.773,14.65-18.758
			c-0.13-5.379-1.729-10.026-5.716-15.378c-7.256-10.189-16.45-19.435-27.163-28.497c-10.154-8.617-22.277-15-34.309-21.379
			c-9.304-4.939-18.948-10.154-30.021-10.876c-8.945-0.595-11.573,1.369-16.87,5.742c-12.892,10.611-32.73,31.763-30.301,39.637
			c-0.21,1.574,1.949,1.892,1.08,2.996c-4.287,6.868-11.193,12.585-18.219,16.502c-6.746,3.745-14.531,5.192-23.245,7.503
			c-0.58-1.599-0.64-2.853-1.219-4.47c-1.669-4.737-5.057-9.529-10.573-12.033c-5.677-2.596-15.081-2.188-20.727,2.244
			c-4.197,3.315-6.016,7.707-6.216,14.528c-9.494-7.955-26.154-1.019-27.383,11.733c-16.44-18.898-38.006-1.469-37.767,18.568
			c0.12,10.823,6.157,16.455,14.901,20.055c-3.198,1.092-5.526-2.181-8.214-3.742c-9.514-5.529-20.927-4.525-29.302,4.862
			c-4.937,5.319-10.723,14.693-5.726,28.897c-8.615,2.391-10.833,11.983-8.215,22.491c2.139,5.536,4.507,7.942,7.855,10.88
			c2.278,1.981,4.926,3.543,7.165,4.87c-0.429,0.068-0.42,0.587-0.38,1.129c-11.573-9.342-32.38-4.332-30.371,12.38
			c-3.048-0.442-5.496-0.147-7.505,1.12c-0.739-4.495-1.319-8.395-3.208-11.628c-3.968-6.768-14.131-12.497-22.726-9.724
			c-6.046,1.949-12.142,6.159-14.081,13.47c-11.673-7.97-29.252,0.015-27.023,17.072c-9.124-0.155-17.979,7.803-14.801,15.935
			c1.309,2.639,3.848,4.847,6.436,6.007c-11.563-0.602-23.366,6.643-20.737,20.999c1.379,7.435,9.234,10.603,14.781,14.203
			c3.977,2.574,7.106,5.067,10.254,7.546c-9.704,3.645-12.232,11.822-9.124,20.027c1.569,3.343,4.098,4.612,7.005,7.2
			c12.322,6.461,23.625,13.367,35.368,18.933c2.719,1.349,6.876,2.699,8.555,2.963c-4.887,5.469-2.458,10.309,2.858,13.507
			c3.448,2.069,6.896,3.798,10.394,5.734c3.048,1.672,6.076,3.997,9.264,5.514c1.059,0.515,2.928,1.622,4.087,2.076
			c2.219,0.872,3.658,1.614,5.207,2.061c2.399,0.675,5.877,1.179,8.784,1.714c6.586,1.212,11.973,0.807,18.369,1.277
			c5.067,0.367,10.003,1.907,14.661,2.251c7.885,0.595,13.322-1.099,19.788-2.031c14.301-2.062,28.782-2.956,42.393-5.097
			c9.044-1.414,16.52-6.239,24.305-8.247c0.59,3.123,1.159,5.416,3.208,7.882c13.022,13.851,34.019,2.331,33.959-15.76
			c4.287,8.345,17.229,8.462,23.575,3.008c2.938-2.531,3.218-5.734,5.007-9.007c5.407,5.192,11.713,5.824,17.869,4.13
			c4.857-1.342,11.243-5.787,12.872-10.508c3.988-11.6-3.328-20.21-11.183-23.803c15.361-13.579,34.648-14.591,57.994-17.069
			c0.979,2.918,2.099,6.546,4.647,7.133c1.449,0.317,4.867-0.27,6.706-0.387c22.976-1.497,41.615-5.134,59.403-9.754
			C614.25,378.391,615.789,351.868,615.279,337.876z M612.781,333.014c-2.988-0.432-5.676-3.578-9.654-4.135
			c-8.944-5.611-18.059-11.058-27.513-16.117c-9.634-7.905-20.187-14.828-32.17-20.262c-0.17-2.066-1.21-3.218-1.779-4.875
			c-0.06-0.434,0.07-0.669,0.35-0.742c5.646,2.551,11.752,6.116,17.169,9.372c8.615,5.192,16.65,11.593,25.354,16.507
			c8.805,4.949,18.369,8.572,25.744,13.867c0.51-0.198,1.839,0.44,1.789-0.375C613.23,329.479,612.091,330.089,612.781,333.014z
			 M612.781,342.004c-16.489-8.945-32.46-18.418-46.461-30.007c-4.867-3.21-14.601-8.395-19.658-12.377
			c-1.149-0.894-1.839-2.778-2.139-4.487c1.559-0.447,3.238,0.732,4.637,1.497c10.564,5.617,21.387,13.661,31.101,20.627
			c11.273,5.309,20.767,12.465,32.16,17.629C612.871,336.937,612.651,338.691,612.781,342.004z M570.247,302.254
			c-9.924-5.954-18.688-13.127-30.011-17.621c-0.479-2.259-0.999-4.457-2.159-5.999c26.514,10.568,48.99,26.868,73.284,41.247
			c0.47,2.172,0.56,2.781,0.71,4.884C597.071,318.364,583.779,310.186,570.247,302.254z M611.362,317.637
			c-20.237-11.233-41.614-25.827-64.34-36.76c-5.877-2.831-10.763-3.908-13.572-9.377c27.203,10.081,53.577,24.277,77.192,39.375
			C610.422,313.604,611.252,315.241,611.362,317.637z M579.192,247.875c4.527,3.737,10.873,5.576,13.571,11.253
			c-5.916-2.289-12.412-7.231-18.229-10.878C575.614,247.118,578.032,247.855,579.192,247.875z M571.676,247.875
			c7.505,5.636,15.89,10.344,23.955,15.376c0.38,1.964,1.599,3.058,2.499,4.502c-11.803-3.755-22.516-11.88-33.23-17.996
			C566.33,248.258,568.698,247.748,571.676,247.875z M562.392,249.757c11.923,7.23,23.275,15.078,36.817,20.619
			c1.249,1.689,1.659,4.24,2.858,5.991c-15.83-6.394-31.71-15.962-45.751-25.481C558.455,250.624,560.773,250.548,562.392,249.757z
			 M545.953,253.497c7.305-4.457,13.661,1.989,19.298,5.257c11.573,6.695,25.924,14.695,37.516,20.247
			c0.14,1.966,1.959,3.805,1.439,5.257c-21.287-8.16-38.307-20.824-58.614-30.011C545.533,253.819,545.673,253.576,545.953,253.497z
			 M542.735,254.246c21.557,10.016,41.484,23.72,62.891,32.637c0.31,1.417,0.62,2.861,0.719,4.502
			c-25.984-10.164-48.76-23.758-71.835-35.263C536.738,254.948,540.206,255.088,542.735,254.246z M550.25,265.874
			c19.128,9.901,37.647,19.8,56.815,27.755c0.15,1.841,0.909,3.035,1.069,4.877c-29.132-12.187-54.925-27.88-84.327-39.753
			C531.652,253.19,543.194,262.231,550.25,265.874z M554.887,274.513c17.669,8.747,35.538,17.709,53.967,26.244
			c0.34,2.384,0.609,4.855,1.069,7.121c-11.622-6.731-25.054-13.404-37.167-20.252c-10.364-5.839-21.636-10.905-33.23-15.745
			c-2.688-1.122-6.186-1.641-8.225-3.006c-3.308-2.194-5.497-7.678-10.364-9.364C532.541,263.161,543.614,268.912,554.887,274.513z
			 M495.564,324.01c1.34,11.05-5.396,20.707-16.44,19.505c-6.126-0.675-11.833-4.532-13.941-11.255
			c-0.42-2.054,0.03-3.528,0.71-5.26c-1.689,0.772-3.408,1.519-5.207,0.962c-9.534-1.849-13.062-16.037-5.147-21.961
			c-3.838-1.349-7.606-1.496-10.734-3.747c-6.776-4.899-11.413-17.841-3.697-25.886c1.699-1.766,4.667-5.689,6.926-5.616
			c15.291,5.514,26.643,13.134,47.161,9.747c3.638,1.584,4.957,5.564,6.446,9.379c0.809,4.847,0.03,8.065-1.799,12.003
			c-2.439,4.809-9.564,6.578-14.022,7.862C489.818,313.127,494.894,318.489,495.564,324.01z M494.135,277.879
			c-16.56,3.418-29.242-4.334-41.454-8.25c-0.07-0.44,0.07-0.674,0.349-0.754c4.098-3.228,11.153-6.571,17.869-6.738
			c3.418-0.105,6.016,0.46,8.755,0.732c-2.818-12.635,10.993-21.374,21.626-16.5c0.33-2.221-0.06-3.593,0.71-6.371
			c1.689-6.131,12.522-6.368,15.37-1.492C511.844,253.966,505.028,268.068,494.135,277.879z M602.767,177.741
			c-1.849-4.755-1.479-9.746-2.139-15.373C603.447,166.588,606.095,173.759,602.767,177.741z M602.068,178.488
			c-1.089,1.224-1.369,3.341-3.228,3.758c-1.119-11.815-3.408-20.434-4.277-29.257C601.308,157.991,598.31,170.743,602.068,178.488z
			 M588.126,145.114c1.169,2.011,2.788,3.583,4.287,5.257c1.879,8.24,3.478,19.758,4.647,28.117c0.45,3.338,1.799,6.976-2.149,7.88
			c-1.439-13.152-3.468-27.788-7.496-40.882C587.397,144.53,587.677,145.037,588.126,145.114z M585.608,142.496
			c0.06,0.924-0.549,1.147-0.71,1.866c4.408,7.428,6.096,21.459,7.516,31.883c0.879,6.523,3.328,12.272-1.789,15
			c-2.459-15.168-4.708-35.125-10.714-52.877C582.12,137.916,583.309,141.784,585.608,142.496z M578.113,135.738
			c0.14,0.909-0.65,0.812-0.35,1.874c6.316,13.919,9.604,37.189,11.423,54.381c-0.929,1.387-1.889,2.751-3.578,3.385
			c-3.398-20.869-5.536-43.128-12.852-63.768C574.485,131.57,576.214,134.738,578.113,135.738z M570.607,128.992
			c3.677,10.648,7.695,26.396,10.373,40.497c0.889,4.677,0.64,9.254,1.419,14.259c0.919,5.901,4.527,14.361-2.138,16.497
			c-4.687-25.422-7.675-46.956-14.661-73.135C566.87,125.287,568.498,129.249,570.607,128.992z M563.462,124.48
			c7.146,24.552,11.093,49.074,15.73,77.264c-1.419,0.522-2.019,1.894-3.228,2.625c-6.326-24.722-10.513-56.777-18.578-82.878
			C558.974,120.035,561.213,124.157,563.462,124.48z M554.537,118.49c9.284,25.574,14.042,58.986,19.998,87.376
			c-2.429,0.335-2.618,3.013-5.356,3.013c-3.018-31.783-12.872-61.269-18.589-92.265
			C552.039,117.102,552.719,118.386,554.537,118.49z M544.164,113.237c2.199-0.192,2.479,1.651,4.287,1.874
			c0.68,6.858,4.067,13.12,5.357,19.885c0.479,2.456,0.16,4.667,0.729,7.126c0.37,1.644,1.349,3.098,1.779,4.867
			c4.927,20.292,9.494,41.731,12.152,63.01c-1.619,1.179-3.128,2.479-5.357,2.998c-4.557-31.413-11.822-67.233-18.948-99.011
			C544.164,113.739,544.164,113.484,544.164,113.237z M535.939,108.739c2.389,10.438,3.818,19.685,6.796,29.629
			c0.54-4.225-1.14-8.972-2.129-13.889c-0.959-4.612-2.339-9.627-2.529-14.616c1.149,0.797,2.529,1.354,3.938,1.874
			c7.195,28.218,13.851,60.01,18.238,90.007c-6.956-6.774-7.885-18.134-10.004-30.377c-2.008-11.483-4.977-22.981-6.446-32.999
			c0.08-0.32-0.14-0.352-0.36-0.375c1.649,16.78,6.446,33.492,8.584,51.001c-0.719,1.596-1.919-2.366-3.218-2.626
			c-0.99-1.464-2.109-2.793-3.578-3.758c-3.198-25.309-9.304-53.269-14.651-75.371C532.551,106.066,534.4,108.232,535.939,108.739z
			 M522.357,102.733c2.169,0.747,3.668,2.158,6.076,2.625c6.626,23.748,12.032,48.32,15.37,74.629
			c-6.007-1.956-6.536-7.116-7.865-15.368c-0.93-5.874-1.609-12.15-3.208-18.756c-0.54-2.229-1.429-5.162-2.149-8.999
			c-0.11-0.612,0.11-1.879,0-2.251c-3.208-10.221-4.298-20.579-8.225-31.126C522.357,103.24,522.357,102.986,522.357,102.733z
			 M520.229,102.363c7.785,21.929,11.902,45.122,15.71,70.124c-1.779,0.392-5.897-4.392-7.865-6.376
			c-2.778-19.773-6.606-44.152-12.862-64.875C517.34,101.311,518.15,101.661,520.229,102.363z M513.073,100.859
			c4.367,9.182,4.697,21.075,9.284,30.376c-1.02,4.045,3.018,19.143,3.587,26.631c0.26,3.468-0.369,4.832,0.72,7.125
			c-2.529-0.739-3.688-2.891-6.096-3.75c-2.489-18.081-7.036-40.947-12.143-60.382C509.945,99.987,511.164,101.077,513.073,100.859z
			 M509.855,110.613c0.65,2.511,0.73,5.467,1.429,8.252c3.338,13.197,6.306,27.45,7.865,40.884
			c-1.809-0.859-3.208-2.138-5.007-3.011c-2.978-17.099-6.556-38.119-10.714-55.503C507.696,99.602,508.955,107.138,509.855,110.613
			z M501.64,103.11c5.357,16.075,8.285,34.011,10.723,52.122c-2.149-0.367-3.208-1.882-4.997-2.618
			c-2.898-15.316-6.226-30.808-8.945-45.762c-0.29-0.19-0.59-0.385-1.079-0.362C498.163,104.715,500.001,104.03,501.64,103.11z
			 M496.273,107.24c3.888,13.924,7.066,28.572,9.294,44.257c-1.639,0.09-2.228-0.924-3.578-1.127
			c-3.897-11.735-5.297-28.342-9.644-39.381C493.066,109.119,494.485,107.98,496.273,107.24z M490.557,112.49
			c2.518,1.754,2.958,6.518,3.928,10.871c1.739,7.772,4.477,16.047,5.007,25.497c-1.739-1.034-3.818-1.751-5.726-2.618
			c-0.88-7.525-4.078-19.983-6.066-28.125C486.929,114.958,488.249,112.897,490.557,112.49z M485.55,116.237
			c3.138,9.794,4.747,17.394,6.446,29.249c-1.349-0.725-3.228-0.857-4.298-1.871c-0.14-8.515-3.248-16.725-5.007-24.75
			C483.642,117.971,484.95,117.476,485.55,116.237z M480.903,120.357c3.178,6.343,5.357,14.986,5.007,22.885
			c-1.069-0.357-2.138-0.754-3.218-1.122c-0.629-7.325-3.108-12.732-3.928-19.885C479.654,121.806,480.343,121.154,480.903,120.357z
			 M476.986,124.859c2.338,4.78,3.238,9.841,3.917,16.877c-0.889-0.305-1.909-0.49-3.218-0.374
			C478.085,134.851,472.648,129.052,476.986,124.859z M473.048,128.619c2.498,2.973,2.149,8.84,3.218,12.37
			c-0.6,0.627-2.099,0.29-3.218,0.373C471.869,136.537,469.66,132.082,473.048,128.619z M469.83,134.244
			c0.86,1.831,0.57,4.912,1.439,6.745c-0.869,0.712-2.338,0.802-3.937,0.747c0.12,0.64-0.28,0.712-0.73,0.76
			C467.791,139.853,468.571,136.802,469.83,134.244z M361.238,178.426c2.428-5.806,8.535-9.322,14.611-8.409
			c3.287,0.492,5.107,1.116,8.214,3.595c0.869,0.712,2.349,1.634,3.658,2.259c-0.47-2.616-0.67-8.487,0.239-11.343
			c3.058-9.639,18.768-12.747,26.124-5.911c3.028,2.831,6.966,7.158,6.066,12.752c-20.847,8.972-39.526,19.173-59.673,28.133
			c0.49-1.627,0.25-3.71-0.03-5.824C359.589,187.453,359.339,183.343,361.238,178.426z M340.111,176.997
			c12.172-1.364,22.206,12.477,16.43,25.119c-7.715,3.908-14.191,9.115-19.658,15.383
			C313.277,215.213,320.183,179.218,340.111,176.997z M335.104,223.495c11.922-15.74,31.061-24.077,51.458-33.384
			c14.331-6.521,27.603-14.049,41.104-17.991c4.687-1.372,9.854-2.061,14.291-3.758c2.958-1.127,4.977-2.956,8.215-4.495
			c3.658-1.746,8.685-5.911,11.443-8.635c3.068-3.006,5.926-9.974,8.934-11.245c1.999-0.85,4.567,0.17,7.135,0.36
			c7.975,0.567,18.438,5.504,25.384,9.394c1.999,1.124,5.037,2.786,6.796,3.688c4.387,2.244,7.445,4.12,11.782,7.191
			c12.203,8.635,22.756,21.489,31.46,33.122c-11.533,5.404-19.568,12.862-28.592,20.885c0.41-6.314,1.619-10.641-1.429-16.13
			c-0.569,1.724-0.899,4.44-0.729,6.751c0.66,8.522-1.639,18.351-3.568,25.881c-6.086-5.082-20.137-3.655-19.658,7.498
			c-10.803-2.751-22.086,4.722-22.865,17.252c-9.764-1.674-20.947,2.706-27.163,8.25c-5.197-2.171-10.234-4.512-14.661-7.503
			c2.089,0.065,3.158,0.284,5.727-0.367c15.79-3.373,33.679-10.523,44.672-21.382c0.93-2.061,1.439-4.03,1.789-6.002
			c-1.229,2.104-3.398,3.573-4.727,4.722c-11.723,10.089-28.792,18.129-44.592,20.402c-9.994,1.439-20.308-0.595-30.871-2.179
			c-2.739-0.41-6.596-1.501-9.654-0.68c-3.108,0.842-6.406,3.608-8.795,5.484c-7.505,5.896-11.113,15.97-18.059,22.988
			c-2.369,2.391-4.167,4.802-7.485,7.275c-5.127,2.771-11.303,7.575-19.128,6.481c-5.356-0.724-8.055-3.437-10.813-8.08
			c-1.529-4.804-0.97-9.019,1.519-13.244c5.687-7.368,9.824-12.575,14.291-21.052c3.908-7.386,5.187-17.826,10.384-23.997
			c6.256-7.453,18.269-12.04,26.074-19.128c2.568-2.321,6.146-6.094,6.076-10.496c-2.928,5.304-6.956,8.407-8.584,9.691
			c-6.606,5.227-16.76,8.612-25.015,17.689c-5.677,6.249-6.746,15.043-11.433,24.377c-7.695,1.462-20.227,1.879-27.513,1.117
			c-0.07-0.317,0.13-0.353,0.36-0.375C323.341,244.14,329.867,233.824,335.104,223.495z M299.007,223.868
			c3.688-3.64,10.364-7.805,17.779-6.788c5.616,0.764,11.203,3.758,14.391,7.16c-4.137,9.557-10.544,19.948-15.73,29.632
			c-8.385-0.565-14.061-2.809-21.447-3.743C289.312,239.855,293.95,228.844,299.007,223.868z M296.868,285
			c-3.747-2.069-8.655-7.231-10.384-10.869c-2.748-5.867-2.728-17.978,5.017-20.26c2.978-0.872,9.514-0.065,12.872,0.754
			c11.883,2.956,26.034,3.915,39.296,1.864c-3.558,12.142-18.698,17.296-13.932,34.523C319.404,287.925,305.872,289.987,296.868,285
			z M301.145,289.877c10.804,1.517,20.678,2.081,31.451,4.509c1.149,1.304,1.779,2.389,3.218,2.983
			c-11.873,14.189-33.629,15.746-51.817,21.01C291.171,310.826,295.798,300.23,301.145,289.877z M233.957,285.382
			c13.522-3.763,23.615,8.785,22.885,20.245c-0.429,1.842-0.709,2.763-1.449,4.502c-4.617,10.186-23.035,8.982-29.651,1.129
			c-2.039-2.031-3.578-3.937-3.928-6.761C220.775,294.276,226.562,287.441,233.957,285.382z M219.316,299.621
			c-2.728,22.514,34.898,27.968,40.015,8.639c2.089-1.674,3.448-2.706,6.006-2.546c2.089,0.133,4.597,0.287,7.225,0.667
			c-1.789-2.002-2.778-4.305-2.518-7.121c0.3-3.078,1.699-5.712,4.298-7.501c5.397-3.74,16.549-4.15,21.087,1.497
			c-3.108,11.358-10.294,18.449-16.07,26.998c-9.394,2.831-18.029,1.993-28.952,1.504c-13.461-0.617-22.925,0.91-35.388-5.251
			c-7.056-2.676-11.143-4.802-19.278-4.165C192.952,299.818,209.012,289.832,219.316,299.621z M424.078,444.021
			c-2.358,7.97-12.862,12.897-20.017,11.63c-4.847-0.88-12.012-5.302-10.353-12.38c10.763-3.203,20.057-7.955,30.371-11.631
			C424.878,436.1,425.188,440.33,424.078,444.021z M484.84,422.272c-1.799,10.486-17.129,13.631-26.443,7.868
			c-1.709-1.349-1.689-1.966-3.228-3.74c-0.809,3.748-1.809,7.098-3.928,10.111c-2.078,2.993-7.076,4.805-12.502,4.137
			c-5.886-0.735-10.804-4.525-11.433-10.883c-0.06-0.322,0.13-0.36,0.36-0.382c5.147-1.956,9.005-3.93,14.651-6.738
			c6.606-2.638,13.482-6.094,18.938-10.506c4.877-3.997,7.705-5.486,10.723-8.999C479.714,406.607,486.679,411.491,484.84,422.272z
			 M494.855,386.649c-8.115,2.573-13.991,6.951-20.737,11.623c-6.416,4.442-11.963,9.354-18.588,13.829
			c-6.166,4.143-14.561,8.065-22.146,11.672c-8.785,4.157-16.969,8.118-26.094,10.876c-9.274,3.923-19.907,8.637-31.091,12.745
			c-1.269,0.462-3.638,0.937-5.766,1.546c-11.843,3.468-28.952,3.903-43.903,6.711c-3.328,0.615-7.106,0.887-10.734,1.502
			c-6.076,1.027-10.223,0.992-16.09,0c-11.813-2.031-24.195-1.721-33.939-3.753c-9.095-1.907-16.08-7.326-23.935-11.25
			c-5.746-2.874-16.18-7.311-8.944-14.262c12.842,1.509,24.455,9.649,39.645,10.289c15.521,0.645,29.112-6.938,44.762-8.552
			c6.816-0.694,13.362-0.49,20.667-0.607c-6.176-2.596-12.233-2.891-15.081-2.853c-18.808,0.257-27.053,7.083-43.523,8.485
			c-10.194,0.857-21.456-2.319-30.741-5.267c-8.085-2.543-15.181-3.672-22.156-6.363c-11.273-4.35-22.226-12.715-32.979-17.864
			c-5.486-3.475-14.531-5.814-12.422-16.645c0.69-3.38,5.536-8.534,10.373-8.25c2.748,0.17,5.917,2.971,9.294,4.13
			c1.679,0.569,3.758,0.937,5.207,1.364c2.448,0.725,4.897,1.444,7.655,2.381c12.172,4.165,25.484,10.341,38.226,13.134
			c16.4,2.456,34.728-4.767,51.488-5.801c6.196-0.387,11.912,0.66,17.849,0.917c-6.406-3.058-10.154-3.673-14.291-3.858
			c-18.059-0.792-33.099,7.648-50.868,5.881c-3.238-0.33-7.875-1.069-12.712-2.676c-12.912-4.275-23.466-8.433-35.038-12.468
			c-4.507-1.574-9.005-2.521-12.642-4.654c-2.149-1.262-10.593-8.193-13.322-9.944c-8.075-5.154-18.768-8.47-15.151-21.412
			c2.149-7.642,12.573-10.846,21.097-8.992c9.474,8.985,18.988,17.586,32.52,21.377c2.508,0.697,5.616,1.064,8.215,1.489
			c7.276,1.209,15.041,0.777,22.506,1.504c8.675,0.857,17.029,2.103,25.384,1.876c10.743-0.28,20.547-2.111,32.5-2.626
			c-1.08-2.199-7.465-1.959-8.925-1.869c-10.174,0.6-21.017,2.499-33.229,1.869c-7.415-0.389-15.301-1.739-22.876-2.243
			c-21.697-1.459-37.837-4.927-49.669-19.498c-2.828-4.21-14.061-8.72-14.301-14.256c-0.18-4.363,3.328-8.08,8.585-9.379
			c14.301-3.268,25.534,3.023,34.299,7.503c8.604,0.645,16.53,0.285,24.315,0.375c7.845,0.087,15.751,1.539,23.226,0.755
			c6.736-0.742,13.511-3.74,19.648-5.646c13.252-4.078,25.614-5.037,37.177-11.616c3.807-2.163,8.664-7.795,11.793-8.257
			c2.259,0.432,3.238,1.057,4.647,1.137c10.183,0.508,18.379-6.014,23.945-10.88c4.348-3.815,8.835-8.447,12.143-13.874
			c1.519-2.478,2.518-5.112,4.287-7.495c3.058-4.12,9.204-9.979,15.73-10.508c1.779-0.145,5.346,1.072,6.616,1.246
			c6.136,0.932,12.672,1.107,18.628,2.221c7.835,1.497,13.072,5.009,19.418,7.795c-5.657,4.475-11.013,10.978-9.994,20.615
			c0.889,8.447,8.045,15.875,15.72,17.247c-5.317,9.956,0.34,23.618,12.152,24.008c1.499,13.074,16.919,18.641,27.163,13.132
			c11.073-5.954,10.144-26.721,1.069-33.387c13.422-1.509,17.039-20.34,9.654-31.121c9.504-0.974,14.641-1.531,23.585-4.127
			c1.829-0.535,4.857-2.853,6.426-2.633c3.408,0.507,5.677,8.454,7.495,13.134c1.479,3.782,2.758,7.927,3.938,11.24
			c1.259,3.563,4.047,11.873,4.557,13.977c6.316,25.826,4.657,49.496-4.197,70.036C526.225,382.136,508.226,382.387,494.855,386.649
			z M544.164,387.763c-0.44-0.015,0.09-2.121,0.36-2.633c0.939,0.894,2.159,1.497,3.218,2.266
			C547.222,388.495,544.184,387.161,544.164,387.763z M544.523,384.39c0.19-1.182,1.049-1.652,1.069-3.008
			c3.078,1.659,5.836,3.623,8.215,6.014C548.841,388.355,548.391,384.58,544.523,384.39z M556.316,387.014
			c-2.609-4.105-12.342-4.73-8.925-11.631c3.918,3.763,8.115,7.223,12.493,10.501C559.005,386.596,557.435,386.567,556.316,387.014z
			 M547.741,373.882c0.11-1.372,0.869-2.069,1.069-3.373c6.756,4.04,11.593,10.081,17.509,15.003
			C556.966,384.96,553.638,378.084,547.741,373.882z M562.752,379.888c-0.66-0.632-1.959-0.617-2.498-1.129
			c-3.738-3.463-7.005-8.083-10.723-10.129c-0.11-1.737,0.719-2.486,0.719-4.12c8.645,6.518,15.281,12.912,23.216,19.88
			C568.948,385.922,565.141,382.212,562.752,379.888z M575.614,383.633c-8.755-5.214-16.72-15.5-25.025-20.627
			c0.55-1.672,0.85-3.6,1.439-5.242c10.084,8.292,18.729,18.096,29.671,25.501C579.772,383.921,577.303,384.645,575.614,383.633z
			 M574.905,375.758c-1.01-0.732-2.309-0.8-3.228-1.49c-1.079-0.834-1.708-2.353-2.858-3.388
			c-5.556-5.007-10.903-10.308-16.43-14.246c-0.08-2.466,0.34-4.385,0.71-6.381c8.934,7.231,16.639,15.303,25.734,22.878
			c2.358,1.974,4.767,4.619,7.146,6.014c1.389,0.792,3.258,0.997,3.927,2.99C582.58,384.645,579.112,378.896,574.905,375.758z
			 M593.123,381.764c-14.98-9.526-27.133-22.037-40.025-33.762c0.369-1.649,0.649-2.755,0.71-5.616
			c16.699,11.615,31.41,24.625,46.471,37.127C598.08,380.458,595.162,380.658,593.123,381.764z M602.767,378.759
			c-12.732-9.007-24.594-18.928-36.087-29.245c-4.887-2.743-9.614-5.669-13.222-9.761c0.69-2.024-0.57-2.206,0-4.12
			c12.073,5.843,20.137,15.875,31.81,22.131c6.126,6.561,15.26,9.978,21.436,16.504
			C605.685,376.065,603.447,376.588,602.767,378.759z M607.424,372.01c-19.168-11.893-35.918-26.323-54.326-38.996
			c0-1.634,0-3.263,0-4.884c19.618,12.168,36.677,27.016,56.105,39.386C609.073,369.497,608.234,370.736,607.424,372.01z
			 M610.283,365.639c-20.957-11.388-37.657-27.243-57.544-39.753c-0.45-1.489-0.27-4.495-0.71-4.877
			c2.628-0.299,4.677,2.576,7.155,4.13c7.476,4.692,15.44,9.994,22.516,15.003c9.354,6.908,18.978,13.571,29.662,19.115
			C611.282,361.702,610.642,363.528,610.283,365.639z M612.421,357.015c-5.886-0.8-10.773-5.029-15.72-8.258
			c-9.874-6.424-19.188-13.329-28.952-20.245c-5.307-3.763-11.443-6.379-16.08-10.509c-0.25-2.191-1.559-4.994-0.71-7.128
			c22.136,12.028,39.995,28.527,61.462,41.257C613.021,353.774,611.752,356.4,612.421,357.015z M612.781,350.254
			c-2.198-0.887-2.868-1.247-4.647-2.251c-19.828-13.681-38.985-28.078-59.682-40.879c-0.56-1.534-0.34-3.888-1.429-4.87
			c0.06-0.44,0.649-0.322,1.079-0.375c20.947,13.582,42.734,30.688,64.68,42.004C612.751,345.899,613.261,348.003,612.781,350.254z"
			/>
	</g>
</g>
</svg>
