<?xml version="1.0" encoding="utf-8"?>
<!-- Generator: Adobe Illustrator 17.0.0, SVG Export Plug-In . SVG Version: 6.00 Build 0)  -->
<!DOCTYPE svg PUBLIC "-//W3C//DTD SVG 1.1//EN" "http://www.w3.org/Graphics/SVG/1.1/DTD/svg11.dtd">
<svg version="1.1" id="Layer_1" xmlns="http://www.w3.org/2000/svg" xmlns:xlink="http://www.w3.org/1999/xlink" x="0px" y="0px"
	 width="800px" height="600px" viewBox="0 0 800 600" enable-background="new 0 0 800 600" xml:space="preserve">
<g>
	<path fill-rule="evenodd" clip-rule="evenodd" fill="#010101" d="M585.41,119.246c0.591,0.371,0.84,0.533,1.095,0.677
		c2.687,1.536,3.658,4.327,1.748,6.562c-1.492,1.752-1.853,3.619-2.056,5.644c-0.492,4.841-1.095,9.677-1.328,14.529
		c-0.222,4.503-0.01,9.028-0.04,13.549c-0.04,2.781,0.35,5.447,1.627,8.012c0.266,0.544,0.196,1.496-0.146,1.989
		c-1.876,2.666-2.915,5.668-4.181,8.592c-1.068,2.406-2.107,4.806-3.018,7.267c-0.678,1.852-1.568,3.636-2.345,5.458
		c-0.215,0.516-0.351,1.056-0.54,1.582c-0.439,1.192-0.878,2.379-1.307,3.572c-0.621,1.728-1.155,3.483-1.859,5.174
		c-1.59,3.841-3.424,7.602-4.854,11.492c-1.152,3.155-3.331,5.753-4.637,8.806c-0.794,1.85-1.365,3.733-1,5.766
		c0.483,2.616,0.393,2.715-2.4,2.569c-0.665,1.404-1.572,2.83-1.992,4.364c-0.821,3.014-2.858,5.411-4.132,8.178
		c-0.646,1.414-1.475,2.779-1.923,4.25c-0.716,2.365-1.444,4.667-2.727,6.86c-0.673,1.161-0.768,2.671-1.841,3.703
		c-0.508,0.503-1.034,1.039-1.678,1.339c-1.258,0.595-2.873-0.025-2.993-1.236c-0.15-1.692-1.154-2.685-2.455-3.594
		c-0.661-0.463-1.18-1.12-1.883-1.502c-0.667-0.364-1.568-0.786-2.231-0.647c-1.608,0.336-2.486-0.375-2.987-1.578
		c-0.743-1.802-2.419-2.623-3.904-3.663c-0.926-0.654-1.665-0.266-2.609,0.257c-2.524,1.403-3.339,3.997-4.992,5.999
		c-0.542,0.661-1.013,1.382-1.608,1.996c-1.507,1.566-2.911,3.127-3.904,5.103c-0.709,1.404-2.189,2.454-3.297,3.672
		c-4.019,4.41-8.048,8.817-12.014,13.262c-0.796,0.898-1.359,1.999-2.043,2.984c-0.576,0.817-1.167,1.632-1.798,2.402
		c-0.547,0.654-1.378,1.154-1.739,1.879c-2.016,3.969-5.836,6.618-8.225,10.329c-0.773,1.205-2.132,2.053-3.413,3.239
		c0.68,0.622,1.138,1.161,1.71,1.544c1.754,1.183,3.596,2.244,5.312,3.471c1.121,0.807,2.035,1.868,3.118,2.721
		c2.716,2.109,5.471,4.163,8.191,6.264c2.188,1.687,4.293,3.48,6.543,5.095c3.32,2.395,6.786,4.622,10.104,7.013
		c1.714,1.234,3.229,2.723,4.888,4.022c3.693,2.878,7.416,5.698,11.11,8.56c1.446,1.121,2.832,2.299,4.24,3.455
		c3.164,2.584,6.319,5.164,9.481,7.758c4.337,3.572,8.539,7.319,13.067,10.67c3.864,2.855,7.167,6.193,10.521,9.517
		c2.569,2.543,5.203,5.04,7.811,7.555c1.011,0.984,2.149,1.671,3.658,1.879c1.689,0.235,2.197,0.84,2.047,2.468
		c-0.41,4.492-0.585,9.014-1.79,13.426c-0.388,1.421-0.272,2.964-0.576,4.412c-0.568,2.699-1.294,5.365-1.921,8.049
		c-0.234,0.962-0.412,1.935-0.526,2.915c-0.477,4.07-0.711,8.177-1.439,12.202c-0.481,2.559-0.675,5.262-2.911,7.375
		c-1.762,1.668-2.815,3.978-4.51,5.721c-2.147,2.199-4.168,4.519-6.83,6.29c-1.908,1.27-3.409,3.11-5.078,4.709
		c-1.469,1.396-2.809,2.92-4.371,4.199c-4.451,3.615-8.818,7.35-13.544,10.629c-4.344,3.026-9.108,5.521-13.685,8.265
		c-0.61,0.37-1.165,0.816-1.763,1.197c-0.488,0.307-0.964,0.657-1.501,0.843c-1.021,0.359-2.246,0.399-3.117,0.951
		c-1.921,1.241-4.179,0.847-6.243,1.358c-0.471,0.117-1.286-0.523-1.779-0.969c-4.27-3.778-7.831-8.146-11.431-12.47
		c-0.735-0.887-1.539-1.731-2.242-2.648c-0.967-1.243-1.655-2.651-3.732-2.59c-1.055,0.03-1.444-1.044-1.279-1.927
		c0.335-1.75-0.772-2.999-1.611-4.273c-0.411-0.607-1.389-1.082-2.176-1.192c-1.207-0.172-1.878-0.785-1.786-1.767
		c0.215-2.04-1.167-3.312-2.269-4.695c-1.832-2.312-3.768-4.55-5.707-6.785c-1.663-1.906-3.402-3.749-5.074-5.652
		c-3.824-4.337-7.579-8.709-11.429-13.012c-1.304-1.444-2.813-2.702-4.2-4.07c-0.568-0.558-1.108-1.144-1.606-1.759
		c-1.674-2.068-3.221-4.238-5.017-6.213c-1.302-1.435-2.909-2.618-4.363-3.928c-2.699-2.422-5.477-4.756-7.999-7.32
		c-2.077-2.101-4.156-4.186-6.34-6.186c-0.837-0.762-1.293-1.896-2.074-2.719c-1.353-1.409-2.646-2.999-4.301-3.983
		c-2.053-1.212-3.764-2.423-4.703-4.656c-0.427-1.014-1.714-1.725-2.657-2.518c-0.712-0.602-1.498-0.641-2.139,0.123
		c-1.345,1.588-2.74,3.143-3.985,4.805c-2.609,3.502-5.11,7.088-7.737,10.586c-1.017,1.368-2.23,2.622-3.414,3.859
		c-0.997,1.031-1.707,2.379-2.667,3.247c-2.186,1.983-3.497,4.74-6.271,6.212c-1.465,0.776-1.386,0.9-1.125,2.758
		c-1.16-0.49-1.968-0.131-2.618,0.789c-1.077,1.51-2.373,2.887-2.599,4.824c-0.046,0.411-0.448,0.809-0.745,1.172
		c-1.635,1.983-4.183,3.037-5.55,5.389c-1.017,1.737-2.761,3.08-4.164,4.608c-0.343,0.368-0.794,0.724-0.929,1.166
		c-0.715,2.092-2.674,3.307-3.91,5.029c-1.454,2.007-3.322,3.742-4.972,5.627c-1.649,1.882-3.267,3.801-4.88,5.707
		c-2.326,2.728-4.752,5.381-6.933,8.209c-2.583,3.353-5.269,6.58-8.426,9.476c-2.011,1.847-3.857,3.85-5.698,5.855
		c-0.767,0.838-1.265,1.9-1.997,2.777c-0.596,0.697-1.444,1.19-2.035,1.888c-2.28,2.707-5.874,3.112-8.852,4.565
		c-1.006,0.501-2.55,0.461-3.716,0.169c-2.286-0.571-4.486-1.479-6.705-2.281c-0.699-0.248-1.33-0.679-2.04-0.874
		c-3.108-0.845-5.951-2.234-8.784-3.682c-4.427-2.27-8.833-4.618-13.435-6.529c-5.313-2.218-10.573-4.457-15.329-7.653
		c-2.234-1.497-4.652-2.74-6.859-4.258c-3.503-2.384-6.236-5.484-8.69-8.807c-0.398-0.539-0.566-1.335-0.558-2.013
		c0.032-3.517-0.371-7.043,0.411-10.552c0.315-1.34-0.039-2.811-0.091-4.221c-0.198-4.573-0.526-9.145-0.573-13.722
		c-0.032-3.229,0.241-6.469,0.499-9.696c0.087-1.04,0.005-1.879-0.627-2.781c-0.996-1.424-0.334-3.944,1.222-4.815
		c3.934-2.208,7.141-5.183,10.205-8.362c2.998-3.105,6.143-6.084,9.33-9.02c1.43-1.308,3.114-2.37,4.678-3.551
		c3.545-2.669,7.152-5.277,10.616-8.038c2.733-2.17,5.261-4.573,7.937-6.797c2.069-1.713,4.248-3.292,6.342-4.97
		c2.429-1.948,4.832-3.939,7.241-5.911c2.53-2.072,5.081-4.121,7.571-6.223c1-0.842,1.831-1.856,2.835-2.682
		c3.035-2.484,6.148-4.883,9.179-7.386c2.071-1.71,4.021-3.566,6.066-5.315c3.309-2.83,6.642-5.649,9.991-8.437
		c2.723-2.26,5.494-4.469,8.439-6.861c-0.792-0.942-1.379-1.841-2.174-2.543c-2.938-2.616-6.001-5.102-8.904-7.758
		c-2.715-2.474-5.239-5.123-7.911-7.638c-1.659-1.579-3.465-3.033-5.154-4.586c-0.519-0.479-0.829-1.159-1.346-1.652
		c-1.559-1.487-3.223-2.878-4.745-4.403c-2.38-2.397-4.651-4.883-7.01-7.315c-1.086-1.135-2.053-2.497-3.389-3.286
		c-1.997-1.183-3.094-2.927-4.356-4.642c-0.851-1.147-1.958-2.108-2.976-3.137c-1.828-1.853-3.665-3.685-5.501-5.536
		c-1.227-1.235-2.686-1.331-4.539,0.065c-2.549,1.905-4.877,4.093-7.47,5.94c-2.689,1.913-4.663,4.48-7.156,6.55
		c-0.171,0.14-0.302,0.374-0.494,0.42c-2.7,0.701-4.492,2.702-6.672,4.136c-0.286,0.184-0.704,0.385-1.008,0.325
		c-1.654-0.338-3.486-0.454-4.894-1.234c-1.017-0.558-1.654-1.956-2.142-3.098c-2.11-4.968-4.108-9.964-6.113-14.962
		c-1.302-3.234-2.484-6.512-3.854-9.712c-3.002-7.008-6.047-14-9.204-20.95c-1.071-2.376-2.53-4.599-3.84-6.877
		c-2.478-4.337-5-8.645-7.466-12.986c-1.971-3.473-4.148-6.875-5.737-10.498c-1.681-3.845-4.23-7.085-6.645-10.465
		c-0.812-1.149-1.298-2.503-2.087-3.678c-1.296-1.956-2.7-3.846-4.081-5.755c-0.457-0.633-0.973-1.231-1.462-1.854
		c-0.098-0.112-0.186-0.225-0.256-0.351c-1.306-2.441-0.505-3.897,2.671-4.269c0.216-1.919,0.542-3.922,0.653-5.928
		c0.19-3.795,0.314-7.591,0.399-11.393c0.03-1.615-0.131-3.237-0.126-4.854c0.007-2.606,0.182-5.215,0.093-7.818
		c-0.09-2.527-0.435-5.051-0.677-7.58c-0.154-1.617-0.445-3.244-0.417-4.859c0.012-0.75,0.521-1.554,1.004-2.209
		c0.202-0.268,1.177-0.421,1.365-0.235c1.422,1.374,3.945,1.477,4.634,3.773c0.166,0.598,1.274,1.094,2.063,1.354
		c1.334,0.455,2.486,1.033,3.628,1.928c3.21,2.506,6.679,4.67,10.495,6.356c3.299,1.459,6.42,3.267,9.645,4.899
		c1.32,0.659,2.666,1.279,3.995,1.895c3.89,1.776,7.77,3.554,11.665,5.292c3.027,1.354,6.113,2.604,9.135,3.969
		c3.148,1.43,6.234,2.967,9.364,4.408c1.394,0.634,2.861,1.128,4.286,1.723c2.106,0.871,4.189,1.743,6.278,2.651
		c6.708,2.894,13.36,5.886,20.456,7.926c6.264,1.8,12.446,3.845,18.677,5.774c1.76,0.541,3.541,1.086,5.328,1.565
		c0.626,0.167,1.319,0.16,1.983,0.198c1.47,0.081,2.967-0.03,4.385,0.256c2.562,0.509,3.413,2.216,2.579,4.589
		c-0.234,0.658-0.475,1.369-0.443,2.052c0.119,2.815,0.333,5.626,0.536,8.442c0.206,2.879,0.442,5.758,0.668,8.635
		c0.168,2.166,0.652,4.1,2.695,5.567c1.773,1.268,3.231,2.922,4.843,4.385c0.365,0.335,0.831,0.585,1.222,0.894
		c2.347,1.852,4.694,3.718,7.053,5.567c1.992,1.565,4.021,3.087,5.989,4.668c0.981,0.773,1.849,1.655,2.812,2.445
		c3.969,3.212,7.952,6.402,11.924,9.616c1.591,1.277,3.082,2.667,4.736,3.86c2.908,2.083,5.998,3.943,8.839,6.099
		c2.878,2.184,6.256,3.697,8.624,6.587c1.171,1.439,3.18,2.263,4.798,3.351c1.609-1.051,3.239-2.014,4.757-3.136
		c1.856-1.386,3.524-3.023,5.426-4.343c2.097-1.469,3.887-3.167,5.683-4.961c2.427-2.43,5.376-4.38,8.022-6.623
		c1.095-0.93,1.857-2.217,2.97-3.118c5.08-4.15,9.626-8.802,14.196-13.433c1.98-2.002,3.919-4.051,5.907-6.051
		c1.619-1.63,3.343-3.168,4.914-4.834c0.502-0.52,0.907-1.339,0.901-2.016c-0.055-3.511-0.342-7.017-0.395-10.532
		c-0.044-3.674,0.15-7.344,0.135-11.02c0.008-2.171-0.247-4.351-0.217-6.522c0.019-1.093,0.272-2.245,0.705-3.257
		c0.483-1.151,1.783-0.795,2.771-0.862c2.894-0.171,5.585-1.102,8.305-1.92c0.914-0.279,1.471-1.331,2.752-0.966
		c0.344,0.102,0.971-0.677,1.579-1.138c0.802,1.102,1.798,0.597,2.874,0.22c0.874-0.297,1.524-0.594,1.115-2.171
		c1.239,1.4,2.134,1.34,3.115,0.502c0.46-0.388,1.144-0.715,1.756-0.737c1.226-0.051,1.915-0.628,2.277-1.387
		c0.658,0.065,1.271,0.299,1.752,0.139c2.292-0.753,4.489-1.847,6.836-2.345c1.309-0.27,2.541-0.368,3.493-1.345
		c0.08-0.084,0.277-0.119,0.418-0.113c3.041,0.105,5.268-1.936,8.02-2.69c3.105-0.849,6.039-2.285,9.016-3.544
		c3.995-1.679,8.018-3.312,11.919-5.172c5.306-2.531,10.557-5.153,15.718-7.942c3.709-2.014,7.292-4.264,10.779-6.597
		c1.798-1.2,3.269-2.83,4.899-4.264c0.64-0.558,1.345-1.04,1.938-1.634c1.237-1.265,2.368-2.632,3.641-3.844
		C583.515,120.407,584.486,119.892,585.41,119.246z M314.83,227.503c0.125-0.469,0.369-0.948,0.361-1.418
		c-0.031-1.899-0.058-3.801-0.258-5.69c-0.069-0.524-0.741-0.995-1.467-1.911c-0.431,1.148-0.832,1.752-0.845,2.367
		c-0.037,1.538,0.128,3.088,0.158,4.633c0.022,1.332,0.782,1.903,2.087,1.988c-0.738,0.203-1.489,0.405-2.546,0.691
		c0.061,4.706-1.022,9.586,0.819,14.376c-1.507,0.598-1.507,0.598-0.965,3.576c0.547,0.182,1.126,0.375,1.879,0.629
		c0.38-3.069,1.475-5.866,1.055-8.891c-0.142-1.021,0.058-2.109,0.203-3.15C315.629,232.27,315.562,229.873,314.83,227.503z
		 M566.499,177.65c-1.129,2.121-1.482,4.402-1.543,6.75c-0.015,0.984,0.055,1.976-0.038,2.951c-0.789,7.78-0.876,15.608-1.897,23.37
		c-0.163,1.229-0.101,2.486-0.148,3.728c0.483-0.139,0.688-0.288,0.705-0.454c0.739-6.369,1.513-12.728,2.153-19.103
		c0.424-4.269,0.703-8.563,0.958-12.851c0.085-1.452-0.144-2.908-0.23-4.368c0.253-0.509,0.699-1.013,0.719-1.533
		c0.087-2.164-0.01-4.34,0.085-6.504c0.067-1.324,0.26-2.661,0.595-3.94c0.255-0.952,1.402-1.465,2.085-1.125
		c1.003,0.514,0.585,1.231,0.357,2.013c-0.399,1.352-0.77,2.744-0.882,4.14c-0.276,3.498-0.355,7.017-0.608,10.522
		c-0.262,3.365-0.701,6.72-0.956,10.089c-0.22,3.022-0.296,6.059-0.414,9.088c-0.101,2.275-0.165,4.553-0.247,6.831
		c0.931-1.227,1.669-2.444,2.155-3.752c0.485-1.313,0.977-2.695,1.049-4.066c0.198-3.309,0.131-6.631,0.209-9.941
		c0.07-2.889,0.179-5.765,0.304-8.651c0.177-3.582,0.47-7.173,0.601-10.758c0.139-3.668,0.16-7.332,0.152-11.005
		c-0.006-0.663-0.401-1.332-0.62-1.997c-0.192-0.001-0.388-0.007-0.566-0.009c-0.399,0.728-0.888,1.415-1.18,2.18
		c-1.19,3.034-2.343,6.085-3.499,9.139c-0.538,1.45-1.22,2.873-0.158,4.45c0.312,0.447,0,1.237,0.04,1.868
		C565.754,175.734,565.402,176.876,566.499,177.65z M463.292,369.969c-1.708-1.806-3.421-3.617-5.264-5.566
		c-0.078,2.104-0.125,3.837-0.198,5.566c-0.127,3.161-0.173,6.328-0.445,9.476c-0.209,2.374-0.779,4.719-1.079,7.088
		c-0.403,3.152-0.701,6.317-1.062,9.474c-0.258,2.235,0.47,3.976,2.845,5.168c0.494-1.809,1.174-3.477,1.357-5.19
		c0.679-6.311,1.209-12.639,1.747-18.97c0.067-0.753-0.01-1.601-0.308-2.289c-0.743-1.678-0.262-2.871,1.245-3.841
		c0.426-0.276,0.798-0.628,1.192-0.947c0.644,2.967,1.095,5.98,0.829,8.989c-0.511,5.818-1.252,11.613-1.891,17.415
		c-0.298,2.724-0.614,5.442-0.874,8.169c-0.042,0.388,0.047,0.899,0.289,1.186c1.005,1.183,2.104,2.299,3.552,3.867
		c0.374-1.513,0.686-2.493,0.844-3.493c0.587-3.906,1.29-7.813,1.636-11.742c0.388-4.349,0.485-8.734,0.599-13.103
		c0.04-1.594-0.637-3.306-0.245-4.778c0.629-2.352-1.229-2.872-2.446-3.96c-0.211-0.183-0.287-0.503-0.485-0.705
		C464.529,371.163,463.915,370.574,463.292,369.969z M539.247,428.792c2.634,0.697,3.229,1.929,2.36,4.656
		c-0.559,1.745-1.125,3.497-1.486,5.28c-1.045,5.195-2.024,10.406-2.944,15.621c-0.2,1.06-0.101,2.17-0.15,3.526
		c2.149-1.06,3.995-2.044,5.207-3.635c0.692-0.896,0.819-2.188,1.152-3.315c0.146-0.468,0.103-0.983,0.224-1.458
		c0.804-3.077,1.606-6.159,2.471-9.225c1.535-5.401,2.457-10.904,2.989-16.467c0.076-0.731-0.08-1.478-0.164-2.675
		c-3.466,2.762-6.56,5.232-9.66,7.699c-0.836,0.426-1.691,0.839-2.529,1.277c-0.58,0.298-1.102,0.755-1.714,0.912
		c-1.452,0.359-2.037,1.262-2.225,2.58c-0.386,2.865-0.73,5.737-1.239,8.585c-0.817,4.437-1.813,8.849-2.617,13.289
		c-0.426,2.321-0.622,4.671-0.958,7.299c1.822-0.567,3.407-1.12,4.128-2.358c0.832-1.448,1.22-3.166,1.61-4.811
		c1.323-5.565,2.615-11.144,3.816-16.741c0.363-1.706,0.551-3.49,0.485-5.232C537.942,431.835,538.168,430.245,539.247,428.792z
		 M414.856,344.09c-0.54,0.169-1.246,0.187-1.577,0.53c-1.684,1.688-3.286,3.439-4.866,5.204c-1.413,1.594-2.977,3.12-4.121,4.885
		c-1.085,1.699-2.624,3.313-2.415,5.573c0.139,1.519,0.549,3.086-0.827,4.367c-0.163,0.152-0.091,0.536-0.129,0.82
		c-0.409,3.144-0.761,6.302-1.256,9.441c-0.783,4.951-1.692,9.887-2.493,14.838c-0.161,1.038-0.022,2.118-0.022,3.182
		c0.216,0.051,0.446,0.106,0.666,0.17c1.831-3.114,6.132-4.735,5.738-9.204c-0.009-0.188,0.172-0.39,0.204-0.594
		c0.555-2.771,1.131-5.541,1.622-8.321c0.434-2.433,0.798-4.882,1.115-7.336c0.4-3.154,0.768-6.31,1.035-9.474
		c0.093-1.184-0.226-2.369-1.29-3.157c0.43-0.812,0.841-1.619,1.243-2.4c2.68,0.296,3.106,0.622,2.945,2.95
		c-0.335,4.63-0.756,9.259-1.266,13.879c-0.337,3.085-0.91,6.149-1.328,9.231c-0.105,0.791-0.011,1.609,0,2.414
		c0.186,0.061,0.374,0.119,0.566,0.178c2.255-2.432,3.971-5.22,5.693-7.996c-2.435-1.698-2.434-1.694-1.375-4.441
		c0.146-0.391,0.23-0.813,0.293-1.228c0.35-2.233,0.789-4.46,0.992-6.707c0.315-3.503,0.498-7.015,0.678-10.528
		c0.11-2.102,0.087-4.203,0.134-6.304c1.384,0.386,2.49,1.106,2.561,2.588c0.119,2.604,0.314,5.224,0.122,7.811
		c-0.341,4.781-0.944,9.539-1.421,14.31c-0.03,0.345,0.141,0.712,0.26,1.209c1.462-1.022,2.232-1.965,1.624-3.667
		c-0.528-1.473-0.097-2.001,1.402-2.601c0.322-0.134,0.66-0.227,0.928-0.316c0.416-1.4,1.033-2.645,1.119-3.923
		c0.19-3.061-0.071-6.152,0.212-9.196c0.297-3.045-0.2-6.028-0.37-9.034c-0.055-0.918-0.603-1.815-0.962-2.851
		c-0.787,0.294-1.441,0.376-1.852,0.718c-1.189,1.005-2.35,2.061-3.353,3.219C414.747,342.722,414.911,343.492,414.856,344.09z
		 M523.265,205.928c0.361,0.092,0.756,0.321,1.072,0.243c1.308-0.314,1.699,0.368,1.948,1.346c-0.606,0.165-1.125,0.316-1.644,0.449
		c0.726,0.524,1.516,0.875,2.189,0.743c1.933-0.38,3.187-0.003,4.057,1.572c0.382,0.677,0.627,1.424,0.977,2.232
		c1.058,0.06,2.457,0.021,2.296,1.546c-0.186,1.733,1.098,2.504,2.102,3.484c0.549,0.539,1.228,0.978,1.794,1.433
		c0.781-0.082,1.477-0.151,2.431-0.256c-0.302,1.028-0.513,1.78-0.726,2.512c1.144,1.153,2.298,2.301,3.55,3.557
		c0.536-0.615,1.146-0.999,1.127-1.348c-0.051-0.957-0.376-1.901-0.629-2.998c2.565-2.01,1.501-5.406,2.949-7.974
		c0.443-0.763,0.973-1.726,0.831-2.491c-0.302-1.622,0.682-2.764,1.15-4.106c0.247-0.737,0.367-1.511,0.58-2.258
		c0.496-1.768,0.091-3.717,1.152-5.392c0.557-0.862,1.173-1.741,1.499-2.694c1.543-4.55,2.353-9.332,4.859-13.579
		c1.684-2.833,1.999-6.096,3.096-9.122c0.741-2.053,1.292-4.179,2.146-6.19c1.385-3.269,2.927-6.475,4.416-9.702
		c2.887-6.304,5.794-12.606,8.658-18.925c0.568-1.258,0.975-2.586,1.61-4.316c-0.724,0.374-0.979,0.497-1.207,0.633
		c-2.849,1.647-5.802,3.095-8.586,4.868c-3.495,2.217-7.482,3.721-11.22,5.612c-2.879,1.45-5.652,3.099-8.546,4.52
		c-2.558,1.258-5.207,2.388-7.864,3.462c-4.097,1.654-8.246,3.194-12.37,4.815c-4.048,1.591-8.054,3.296-12.142,4.816
		c-3.048,1.129-6.307,1.811-9.251,3.126c-2.942,1.301-6.382,1.55-8.905,3.72c-0.251,0.214-0.695,0.216-1.055,0.312
		c-2.358,0.63-4.747,1.184-7.069,1.905c-2.007,0.616-2.377,2.008-0.84,3.326c1.323,1.137,2.881,2.015,4.375,3.026
		c0.065,0.486-0.019,1.218,0.308,1.692c0.939,1.372,2.676,2.02,3.66,3.466c0.333,0.498,1.475,0.503,2.273,0.741
		c0.446,1.128,0.887,2.242,1.357,3.445c-1.165,1.093-2.011,2.566-4.103,2.264c-0.452-0.062-1.072,0.456-1.492,0.821
		c-1.796,1.558-3.588,3.131-5.312,4.765c-2.4,2.292-4.736,4.659-7.128,6.97c-1.974,1.906-4.025,3.735-5.961,5.667
		c-2.049,2.049-4.018,4.16-5.994,6.276c-0.783,0.836-1.271,2.051-2.225,2.591c-2.362,1.364-3.588,3.67-5.482,5.414
		c-2.34,2.147-4.476,4.487-6.766,6.68c-2.199,2.083-4.474,4.08-6.722,6.106c-1.133,1.021-2.225,2.072-3.449,2.984
		c-1.188,0.879-2.09,2.018-3.415,2.799c-1.212,0.718-2.119,1.91-3.198,2.856c-2.214,1.948-4.473,3.868-6.703,5.81
		c-1.005,0.882-1.928,1.885-3.039,2.652c-1.967,1.365-4.37,1.597-6.338,0.473c-2.712-1.537-5.083-3.623-7.582-5.481
		c-1.688-1.243-3.353-2.495-5.048-3.73c-0.883-0.638-1.861-1.165-2.702-1.848c-1.462-1.189-2.829-2.468-4.278-3.671
		c-0.231-0.192-0.768-0.35-0.96-0.237c-0.794,0.508-1.026-0.132-1.428-0.51c-0.991-0.955-1.843-2.33-3.039-2.717
		c-1.498-0.479-2.035-1.559-2.923-2.452c-0.5-0.507-0.869-1.156-1.411-1.618c-1.653-1.422-3.35-2.801-5.054-4.178
		c-4.859-3.973-9.728-7.939-14.595-11.904c-3.27-2.661-6.533-5.323-9.806-7.967c-1.185-0.963-2.454-1.848-3.604-2.839
		c-2.755-2.358-5.451-4.776-8.206-7.146c-1.422-1.226-2.988-2.318-4.334-3.612c-1.201-1.153-2.315-2.177-4.214-2.063
		c-0.514,0.031-1.567-0.598-1.534-0.811c0.158-1.124-0.919-0.561-1.205-0.896c0.428-0.565,1.208-1.155,1.154-1.651
		c-0.181-1.419,0.884-1.813,1.738-2.427c2.136-1.517,4.385-2.915,6.366-4.587c1.112-0.928,2.48-1.867,2.667-3.824
		c-1.051-0.378-2.122-0.82-3.235-1.149c-3.989-1.198-7.974-2.337-11.936-3.543c-1.928-0.584-3.812-1.274-5.707-1.905
		c-4.867-1.613-9.762-3.102-14.562-4.877c-3.522-1.296-6.894-2.973-10.345-4.466c-5.416-2.346-10.844-4.669-16.28-7.009
		c-1.002-0.444-2.024-0.863-3.026-1.34c-3.527-1.681-7.031-3.442-10.591-5.051c-2.352-1.067-4.888-1.765-7.19-2.908
		c-5.138-2.556-10.176-5.283-15.258-7.95c-2.864-1.516-5.724-3.043-8.608-4.536c-0.33-0.168-0.793-0.101-1.611-0.191
		c0.447,0.926,0.717,1.553,1.052,2.137c0.735,1.266,1.135,2.804,3.11,2.996c0.332,0.035,0.834,0.892,0.811,1.347
		c-0.121,2.756,2.183,4.296,3.176,6.649c1.162-1.405,0.314-3.187,2.035-4.473c0.225,0.895,0.464,1.511,0.518,2.14
		c0.151,1.834,0.039,3.703,0.393,5.496c0.674,3.37,2.501,6.319,4.258,9.268c0.247,0.416,0.653,0.895,1.09,1.019
		c1.728,0.495,1.928,1.767,2.085,3.149c0.106,0.98,0.396,1.946,0.518,2.93c0.424,3.431,2.919,6.005,4.158,9.112
		c1.54,3.902,3.46,7.674,5.206,11.511c0.977,2.142,1.937,4.286,2.908,6.428c0.155,0.318,0.297,0.646,0.417,0.978
		c1.21,3.272,2.364,6.56,3.62,9.813c1.152,2.982,2.536,5.885,3.562,8.895c1.053,3.079,1.782,6.25,2.687,9.376
		c1.003,3.461,2.393,6.767,4,9.938c1.488-0.913,3.036-1.563,4.173-2.614c2.568-2.386,5.658-4.242,7.623-7.272
		c0.775-1.189,1.686-2.064,1.037-3.289c1.075-0.707,2.119-1.212,2.885-1.968c0.814-0.788,1.364-1.825,2.174-2.933
		c-0.159-0.509-0.428-1.338-0.702-2.163c0.129-0.054,0.26-0.109,0.392-0.165c0.528,0.722,1.064,1.433,1.575,2.115
		c1.578-0.294,0.298-1.05,0.478-1.809c0.607-0.051,1.521-0.399,1.941-0.11c0.941,0.684,2.089,1.094,2.636,2.425
		c0.577,1.447,1.304,2.905,2.883,3.95c1.825,1.217,3.298,2.935,4.856,4.5c2.087,2.093,4.084,4.266,6.153,6.373
		c0.534,0.541,1.408,0.846,1.788,1.45c2.084,3.287,5.522,5.356,8.053,8.256c2.44,2.817,5.61,5.045,7.64,8.238
		c0.377,0.596,1.026,1.031,1.557,1.522c1.479,1.389,3.049,2.711,4.453,4.158c2.462,2.542,4.722,5.263,7.263,7.707
		c2.462,2.34,5.192,4.436,7.79,6.636c4.11,3.496,7.234,7.927,11.668,11.132c0.399,0.295,0.697,0.733,1.051,1.096
		c0.953,0.984,1.862,2.013,2.863,2.931c2.254,2.041,4.609,3.988,6.816,6.063c1.739,1.625,1.229,4.097-0.916,5.185
		c-0.38,0.199-0.669,0.565-1.064,0.75c-2.522,1.204-3.218,4.593-6.509,4.898c-0.117,0.01-0.235,0.176-0.311,0.286
		c-0.925,1.157-2.025,1.984-3.586,2.317c-0.579,0.126-1.054,0.747-1.547,1.17c-0.725,0.618-1.387,1.285-2.107,1.895
		c-3.918,3.317-7.813,6.66-11.791,9.924c-2.057,1.687-3.677,3.774-6.001,5.221c-1.968,1.231-3.892,2.673-5.427,4.355
		c-3.982,4.385-8.671,8.028-13.288,11.762c-1.92,1.548-3.751,3.203-5.579,4.84c-0.758,0.671-1.376,1.486-2.156,2.126
		c-5.163,4.273-10.354,8.524-15.568,12.749c-2.356,1.909-4.789,3.741-7.197,5.597c-1.131,0.876-2.311,1.703-3.435,2.605
		c-1.162,0.942-2.235,1.982-3.398,2.917c-2.241,1.782-4.584,3.453-6.768,5.287c-2.23,1.849-4.315,3.848-6.474,5.76
		c-2.112,1.866-4.367,3.603-6.35,5.579c-2.442,2.446-4.644,5.106-7.6,7.063c-0.406,0.273-0.826,0.695-0.972,1.134
		c-0.168,0.458-0.223,1.184,0.049,1.49c1.064,1.17,2.258,2.239,3.442,3.303c1.233,1.109,2.548,2.146,3.789,3.245
		c1.456,1.303,2.736,2.825,4.341,3.918c5.461,3.699,11,7.277,16.555,10.847c4.585,2.955,9.372,5.545,14.825,6.831
		c0.697,0.17,1.336,0.61,2.011,0.926c1.454,0.683,2.882,1.419,4.369,2.037c2.352,0.978,4.765,1.816,7.092,2.834
		c2.469,1.081,4.848,1.269,7.21-0.15c1.318-0.789,2.646-1.51,3.26-3.043c0.516-1.282,1.586-2.211,2.919-2.801
		c0.336-0.152,0.712-0.282,0.959-0.525c2.111-2.091,4.213-4.172,6.241-6.325c3.219-3.405,6.363-6.861,9.541-10.295
		c3.425-3.681,6.841-7.364,10.286-11.025c3.266-3.462,6.433-6.961,9.28-10.767c2.595-3.456,5.916-6.411,8.898-9.605
		c2.316-2.475,4.633-4.944,6.874-7.475c3.39-3.813,6.688-7.692,10.057-11.526c1.995-2.268,4.076-4.468,6.059-6.755
		c1.877-2.172,3.689-4.399,5.504-6.623c1.489-1.83,2.898-3.723,4.427-5.526c0.885-1.038,2.129-1.834,2.859-2.943
		c1.095-1.642,3.073-1.894,4.546-2.905c0.971-0.659,2.187,0.013,2.967,0.878c1.418,1.536,2.754,3.127,4.138,4.678
		c2.791,3.113,5.371,6.343,8.56,9.164c3.801,3.348,6.997,7.296,10.447,10.996c2.615,2.818,5.215,5.651,7.818,8.48
		c0.682,0.741,1.273,1.557,2.013,2.251c2.801,2.633,5.907,5.026,8.413,7.888c4.931,5.637,10.355,10.888,14.812,16.902
		c1.328,1.794,2.942,3.394,4.398,5.092c1.743,2.024,3.263,4.253,5.245,6.04c4.34,3.912,8.046,8.34,11.963,12.601
		c1.019,1.113,2.277,2.039,3.255,3.193c1.279,1.535,2.4,3.168,3.987,4.485c1.277,1.072,2.362,2.355,3.611,3.472
		c2.204,1.977,4.531,3.824,6.655,5.865c1.902,1.842,3.622,2.009,5.564,0.252c0.414-0.38,0.887-0.955,1.372-0.984
		c2.305-0.127,4.01-1.496,5.73-2.578c2.9-1.82,5.536-4,8.2-6.125c2.995-2.397,5.912-4.901,8.858-7.365
		c2.016-1.669,4.065-3.31,6.019-5.049c1.184-1.053,2.202-2.278,3.324-3.401c1.729-1.744,3.573-3.393,5.239-5.199
		c4.217-4.59,7.381-9.855,10.471-15.162c0.701-1.215,0.513-2.484-0.492-3.511c-0.566-0.561-1.239-1.017-1.853-1.535
		c-1.002-0.842-1.99-1.693-2.97-2.546c-0.604-0.526-1.212-1.049-1.8-1.59c-0.686-0.626-1.479-1.186-1.999-1.92
		c-2.387-3.383-5.203-6.384-8.514-8.97c-2.185-1.701-4.371-3.385-6.486-5.158c-5.469-4.609-10.828-9.328-16.676-13.513
		c-0.658-0.471-1.298-0.994-1.784-1.611c-1.574-2.006-3.85-3.254-5.766-4.875c-2.786-2.349-5.813-4.444-8.715-6.67
		c-3.233-2.49-6.416-5.045-9.669-7.511c-3.501-2.649-7.089-5.203-10.57-7.865c-2.14-1.643-3.979-3.752-6.325-5.044
		c-2.82-1.554-5.22-3.466-7.548-5.571c-2.296-2.086-5.409-3.26-7.187-5.953c-0.441-0.664-1.34-1.015-2.345-0.363
		c-0.943,0.612-1.688,0.083-2.115-0.837c-0.449-0.936-0.922-1.87-1.378-2.795c-2.959,1.253-3.657,0.862-4.23-1.901
		c-0.146-0.703-0.623-1.508-1.205-1.937c-1.821-1.349-3.704-2.643-5.68-3.758c-2.484-1.393-2.714-1.787-1.37-4.137
		c0.276-0.479,0.701-0.884,1.112-1.263c1.769-1.589,3.616-3.094,5.308-4.741c1.176-1.161,2.121-2.539,3.24-3.759
		c0.882-0.949,2.155-1.66,2.775-2.721c2.123-3.668,5.644-6.244,8.044-9.739c2.438-3.544,5.576-6.728,8.805-9.769
		c2.767-2.621,5.222-5.545,7.776-8.366c0.644-0.705,0.884-1.756,2.106-1.922c0.209-0.037,0.443-0.4,0.53-0.658
		c0.869-2.843,3.803-4.136,5.414-6.479c1.486-2.165,3.831-3.79,5.646-5.775c0.848-0.929,1.406-2.109,2.012-3.218
		c0.437-0.811,0.907-1.472,1.676-2.114c1.309-1.08,2.324-2.51,3.345-3.866c1.357-1.792,2.605-3.663,4.046-5.712
		c0.036-0.23,0.025-0.846,0.194-1.408c0.207-0.658,0.57-1.266,0.85-1.863c-2.858-2.108-2.917-2.238-1.94-4.243L523.265,205.928z
		 M353.324,443.788c0.105,0.059,0.199,0.12,0.305,0.184c1.503-1.864,3.052-3.693,4.484-5.602c0.383-0.514,0.743-1.334,0.594-1.888
		c-0.4-1.393-0.083-2.651,0.343-3.939c0.434-1.272,0.913-2.542,1.213-3.846c0.785-3.302,1.583-6.609,2.201-9.938
		c1.113-5.895,2.103-11.813,3.108-17.724c0.064-0.338-0.197-0.722-0.353-1.227c-0.409,0.277-0.675,0.405-0.87,0.601
		c-2.46,2.513-5.187,4.851-7.287,7.608c-1.78,2.339-3.688,4.478-5.824,6.503c-0.718,0.679-1.078,1.82-1.321,2.813
		c-0.797,3.296-1.439,6.626-2.194,9.925c-0.641,2.823-1.39,5.622-2.025,8.444c-0.727,3.246-1.387,6.501-2.072,9.753
		c-0.067,0.346-0.135,0.695-0.154,1.048c-0.112,2.975-0.767,5.847-1.768,8.65c-0.057,0.123,0.183,0.337,0.314,0.546
		c0.247-0.082,0.495-0.095,0.631-0.218c1.509-1.525,3.091-2.999,4.483-4.623c0.518-0.599,0.594-1.544,0.821-2.35
		c0.369-1.288,0.613-2.605,1.039-3.882c0.205-0.651,0.798-1.201,0.972-1.855c1.3-4.844,2.564-9.703,3.812-14.562
		c0.45-1.779,1.02-3.557,1.211-5.369c0.306-3.05,1.888-5.979,0.911-9.172c-0.358-1.178,0.836-2.551,1.966-2.597
		c0.89-0.032,1.749,0.848,1.742,2.119c-0.015,1.472-0.131,2.968-0.44,4.405C357.257,426.336,355.281,435.06,353.324,443.788z
		 M554.775,444.69c1.256-1.197,2.235-2.124,3.212-3.052c1.456-1.374,2.434-3.008,2.834-4.932c0.707-3.39,1.503-6.773,2.029-10.189
		c0.798-5.213,2.702-10.271,2.334-15.656c-0.053-0.808,0.503-1.64,1.444-1.562c0.601,0.046,1.266,0.602,1.688,1.099
		c0.264,0.32,0.232,0.951,0.162,1.415c-0.152,1.191-0.416,2.365-0.638,3.546c-0.68,3.539-1.351,7.083-2.028,10.618
		c-0.41,2.078-0.895,4.147-1.252,6.233c-0.137,0.849,0,1.745,0.011,2.67c1.783-0.213,2.687-1.241,3.392-2.265
		c0.405-0.602,0.169-1.579,0.268-2.387c0.108-0.769,0.26-1.523,0.429-2.281c0.578-2.688,1.277-5.355,1.763-8.061
		c0.468-2.64,0.728-5.313,1.062-7.969c0.359-2.738,0.734-5.467,1.015-8.207c0.097-0.93-0.091-1.88-0.154-2.928
		c-0.517,0.163-0.781,0.18-0.92,0.309c-2.334,2.054-4.671,4.113-6.973,6.198c-2.064,1.865-3.961,3.825-3.748,6.852
		c0.051,0.681-0.24,1.387-0.409,2.076c-0.735,3-1.482,5.994-2.223,8.991c-0.051,0.203-0.002,0.428-0.04,0.635
		c-0.756,3.949-1.513,7.902-2.284,11.849C555.328,439.862,554.169,441.926,554.775,444.69z M255.384,157.283
		c-0.207,0.006-0.414,0.007-0.627,0.019c-0.027,0.872-0.055,1.745-0.088,2.61c-0.19,4.088-0.457,8.171-0.585,12.267
		c-0.137,4.24-0.137,8.479-0.208,12.719c-0.112,5.92-0.231,11.837-0.345,17.746c-0.011,0.355-0.123,0.76,0.02,1.045
		c1.378,2.623,2.833,5.195,4.8,7.939c0.111-0.699,0.189-0.961,0.201-1.23c0.228-4.723,0.454-9.449,0.68-14.174
		c0.043-1.057,0.06-2.11,0.104-3.157c0.22-5.152,0.392-10.299,0.705-15.438c0.144-2.532,0.565-5.043,0.804-7.564
		c0.071-0.697,0.043-1.44-0.138-2.116C259.668,164.07,257.731,160.577,255.384,157.283z M322.76,227.781
		c0.077,1.092,0.164,1.717,0.159,2.345c-0.099,4.018-0.154,8.042-0.353,12.059c-0.188,3.949-0.501,7.883-0.814,11.822
		c-0.161,2.098,1.383,4.573,3.564,5.55c0.101-0.099,0.291-0.188,0.293-0.287c0.26-3.567,0.694-7.13,0.697-10.691
		c0.019-4.224-0.234-8.45-0.566-12.667c-0.135-1.69,0.516-2.479,1.135-2.373c1.205,0.188,1.345,1.241,1.418,2.142
		c0.117,1.614,0.099,3.234,0.139,4.854c0.082,5.286,0.198,10.573,0.252,15.861c0.014,1.471,0.096,2.996-0.224,4.415
		c-0.427,1.812,0.222,2.967,1.909,4.069c0.337-0.653,0.727-1.172,0.864-1.746c0.5-2.274,1.127-4.546,1.344-6.848
		c0.487-5.05,0.789-10.111,1.105-15.169c0.107-1.716-0.079-3.469-1.531-4.713c-2.595-2.215-5.305-4.315-7.442-6.978
		C324.277,228.882,323.632,228.503,322.76,227.781z M321.663,428.597c-0.107,0.44-0.276,0.906-0.321,1.381
		c-0.291,3.29-0.515,6.588-0.855,9.871c-0.281,2.731-0.638,5.454-1.079,8.163c-0.56,3.475-1.268,6.938-1.865,10.41
		c-0.254,1.467,0,3.07,1.142,3.945c1.516,1.172,3.421,1.912,5.595,2.083c0.123-0.622,0.229-1.093,0.282-1.567
		c0.235-2.309,0.305-4.646,0.714-6.93c1.316-7.18,1.83-14.419,1.989-21.702C327.343,430.706,325.519,428.522,321.663,428.597z
		 M270.37,238.293c1.135-2.089,1.234-4.208,1.307-6.381c0.135-4.153,0.618-8.303,0.75-12.453c0.184-5.791,0.176-11.583,0.262-17.375
		c0.03-2.035,0.167-4.074,0.228-6.115c0.022-0.805,0.155-1.698-0.118-2.423c-1.541-3.896-3.175-7.749-4.791-11.612
		c-0.092-0.241-0.271-0.443-0.411-0.666c-0.206,1.844-0.019,3.617,0.013,5.401c0.149,6.263,0.405,12.527,0.314,18.789
		c-0.043,3.309-0.527,6.607-0.107,9.935c0.085,0.756-0.147,1.547-0.137,2.326c-0.005,2.664,0.032,5.332,0.05,8.004
		c0.009,1.747-0.02,3.488,0.002,5.237c0,0.485,0.017,1.008,0.19,1.451C268.699,234.386,269.544,236.336,270.37,238.293z
		 M371.621,421.567c0.159,0.074,0.332,0.151,0.502,0.228c1.933-2.111,3.87-4.217,5.79-6.34c0.237-0.26,0.512-0.624,0.499-0.924
		c-0.117-1.993,1.132-3.594,1.614-5.403c0.525-1.969,0.774-4.008,1.231-5.996c1.471-6.436,1.725-12.997,2.18-19.534
		c0.082-1.136-0.232-2.296-0.407-3.796c-2.761,1.516-3.942,3.739-5.263,5.749c-0.652,1-0.549,2.451-0.748,3.707
		c-0.983,6.186-1.912,12.374-2.921,18.559c-0.247,1.525-0.708,3.019-1.051,4.529c-0.42,1.855-0.705,3.744-1.288,5.548
		C371.351,419.167,371.349,420.338,371.621,421.567z M250.086,198.167c0.195-0.052,0.391-0.104,0.577-0.151
		c0.096-0.827,0.218-1.65,0.28-2.48c0.121-1.892,0.219-3.781,0.314-5.677c0.178-3.583,0.408-7.165,0.527-10.753
		c0.165-4.937,0.205-9.88,0.401-14.817c0.144-3.521,0.638-7.042,0.607-10.563c-0.011-2.354-0.874-4.621-3.289-6.63
		c-0.377,2.894-0.959,5.325-0.952,7.756c0.012,4.817-1.563,9.461-1.27,14.319c0.204,3.488-0.348,7.014-0.505,10.521
		c-0.092,2.171-0.024,4.346-0.12,6.516c-0.037,0.665-0.294,1.401-0.684,1.951c-0.601,0.839-0.486,1.529-0.024,2.354
		c0.868,1.564,1.617,3.177,2.457,4.754C248.935,196.253,249.524,197.2,250.086,198.167z M313.55,460.408
		c0.226-0.431,0.426-0.661,0.478-0.91c0.73-3.368,1.351-6.763,2.182-10.111c1.592-6.344,2.243-12.778,2.302-19.285
		c0.035-3.744-1.487-5.298-5.692-5.67c-0.032,0.699-0.032,1.394-0.089,2.088c-0.373,4.41-0.594,8.841-1.185,13.222
		c-0.659,4.873-1.694,9.698-2.468,14.557c-0.137,0.926,0.063,1.942,0.289,2.869C309.873,459.222,312.163,459.151,313.55,460.408z
		 M563.053,178.081c-0.258-0.048-0.528-0.107-0.798-0.157c-0.426,0.936-0.943,1.848-1.258,2.817
		c-0.722,2.222-1.383,4.459-1.98,6.713c-0.285,1.067-0.523,2.114-0.236,3.313c0.283,1.103-0.051,2.356-0.209,3.536
		c-0.15,1.176-0.502,2.339-0.587,3.518c-0.287,3.78-0.467,7.561-0.701,11.339c-0.013,0.213-0.078,0.423-0.101,0.629
		c-0.338,2.295-0.673,4.582-1.011,6.874c-0.566,3.896-1.203,7.795-1.667,11.702c-0.23,1.917-0.903,3.85-0.165,6.022
		c0.289-0.357,0.521-0.543,0.625-0.771c1.266-2.71,2.776-5.345,3.674-8.162c0.958-3.012,1.524-6.167,1.914-9.299
		c0.405-3.197,0.313-6.453,0.57-9.67c0.308-3.857,0.829-7.69,1.119-11.553c0.302-3.793,0.435-7.592,0.618-11.39
		C562.951,181.722,562.993,179.9,563.053,178.081z M517.066,427.882c-0.163,0.072-0.336,0.141-0.511,0.204
		c-0.015,0.549,0.012,1.102-0.059,1.64c-0.593,4.872-1.275,9.736-1.809,14.61c-0.509,4.816-0.91,9.642-1.296,14.471
		c-0.131,1.593-0.152,3.214-0.021,4.809c0.139,1.699,1.095,2.381,3.335,2.517c0.38-2.03,0.855-4.083,1.144-6.161
		c0.513-3.703,0.874-7.421,1.363-11.124c0.277-2.094,0.705-4.162,1.002-6.248c0.26-1.884,0.534-3.776,0.637-5.669
		c0.082-1.533,0.374-3.251-0.222-4.557C519.854,430.7,518.29,429.364,517.066,427.882z M507.588,438.719
		c-0.255,0.981-0.597,1.903-0.737,2.858c-0.266,1.68-0.129,3.46-0.68,5.032c-0.992,2.853-0.825,5.709-0.658,8.606
		c0.146,2.505,1.729,4.016,3.951,5.326c0.302-0.533,0.625-0.873,0.686-1.246c0.473-3.489,0.908-6.989,1.328-10.485
		c0.042-0.449-0.247-0.925-0.327-1.396c-0.032-0.186-0.011-0.464,0.108-0.565c1.026-0.875,1.026-2.089,0.76-3.122
		c-0.257-0.975,0-1.692,0.534-2.4c-1.317-0.714-1.406-1.087-0.753-2.088c0.439-0.692,1.076-1.451,1.095-2.19
		c0.059-2.814-0.019-5.628-0.213-8.436c-0.055-0.868,0.017-1.528,0.688-2.087c0.349-0.298,0.743-0.556,1.174-0.883
		c-1.6-1.215-2.197-3.251-4.477-3.61c-0.093,0.419-0.181,0.747-0.232,1.087c-0.521,3.13-1.192,6.248-1.477,9.397
		c-0.156,1.891-0.834,4.076,1.275,5.607c0.086,0.056-0.055,0.382-0.103,0.664C508.93,438.769,508.358,438.748,507.588,438.719z
		 M440.128,383.923c0.175-0.08,0.348-0.16,0.534-0.241c0.234-1.375,0.568-2.743,0.686-4.131c0.502-5.555,0.929-11.119,1.372-16.678
		c0.078-0.917,0.177-1.849,0.078-2.755c-0.35-3.345,0.255-6.603,0.95-9.837c0.224-1.087,0.023-1.785-0.751-2.428
		c-1.306-1.129-2.663-2.211-4.268-3.53c-0.202,1.11-0.43,1.97-0.496,2.845c-0.156,2.007-0.232,4.027-0.347,6.036
		c-0.111,1.813-0.267,3.623-0.304,5.437c-0.048,2.604,0.002,5.204,0.002,7.81c0,1.967,0.031,3.934-0.015,5.906
		c-0.074,2.878-0.197,5.752-0.304,8.922C438.055,382.005,439.088,382.967,440.128,383.923z M308.595,218.068
		c-0.144-0.027-0.292-0.056-0.444-0.09c-0.496,0.959-0.984,1.926-1.474,2.87c-0.466,0.05-1.428-0.008-1.482,0.184
		c-0.575,1.884-3.176,3.001-2.264,5.414c-0.435,6.869-0.732,13.746-2.028,20.542c-0.232,1.247-0.01,2.567-0.004,3.85
		c0.162,0.046,0.31,0.082,0.475,0.124c0.594-0.66,1.562-1.259,1.69-1.991c0.167-0.874,0.501-1.23,1.251-1.479
		c0.873-0.299,1.731-0.604,2.618-0.912c0.174-0.936,0.046-2.11,0.596-2.8c0.821-1.033,1.053-2.055,1.111-3.241
		c0.103-2.088,0.428-4.174,0.375-6.257c-0.034-1.517,0.299-3.186-0.886-4.532c1.158-1.597,1.628-3.952,0.828-5.544
		c-0.514-1.013-0.696-1.783-0.277-2.922C309.039,220.342,308.663,219.149,308.595,218.068z M284.731,446.876
		c0.502-0.905,0.902-1.412,1.079-1.975c0.317-1.008,0.492-2.054,0.736-3.086c1.403-5.866,1.841-11.854,2.311-17.83
		c0.156-2.138,0.031-4.417-0.584-6.464c-0.753-2.519-0.496-3.781,2.259-4.886c-1.768-0.558-2.344-2.634-4.505-2.33
		c-0.273,0.04-0.659-0.453-0.958-0.736c-0.278-0.255-0.5-0.56-1.092-1.245c-0.076,1.936-0.143,3.385-0.177,4.833
		c-0.065,3.934,0.018,7.875-0.235,11.8c-0.28,4.293-0.818,8.572-1.353,12.847c-0.326,2.629,0.881,4.944,1.398,7.403
		C283.698,445.644,284.142,446.017,284.731,446.876z M271.037,435.76c0.214-1.356,0.412-2.302,0.514-3.269
		c0.256-2.46,0.467-4.921,0.691-7.378c0.428-4.857,0.967-9.702,1.23-14.564c0.152-2.808-0.011-5.648-0.286-8.455
		c-0.14-1.561-0.622-3.416-2.203-4.066c-1.088-0.439-1.516-0.811-1.712-1.802c-0.079-0.377-0.524-0.687-0.836-1.079
		c-0.256,1.546-0.633,2.899-0.677,4.264c-0.084,2.294,0.036,4.59,0.064,6.888c0.044,3.462,0.017,6.919,0.154,10.38
		c0.125,3.235,0.203,6.499,0.704,9.692c0.263,1.623,0.76,3.029-0.16,4.623c-0.534,0.932-0.459,2.386,0.73,2.761
		C270.271,434.086,270.127,434.905,271.037,435.76z M431.976,336.575c-0.894,0.929-0.877,1.663-0.803,2.565
		c0.207,2.389,0.411,4.817,0.152,7.181c-0.498,4.339-1.129,8.64-1.077,13.031c0.048,3.448-0.347,6.901-0.523,10.352
		c-0.032,0.697,0.01,1.408,0.083,2.108c0.227,2.274,1.776,3.57,3.754,4.695c1.106-1.391,1.04-2.944,1.093-4.358
		c0.256-7.198,0.391-14.399,0.557-21.6c0.031-1.247-0.146-2.547,0.156-3.73c0.615-2.354-0.325-4.616-0.215-6.926
		c0.011-0.239-0.193-0.544-0.385-0.731C433.878,338.317,432.975,337.5,431.976,336.575z M345.798,421.094
		c-0.202-0.104-0.407-0.207-0.608-0.309c-0.551,0.851-1.059,1.734-1.668,2.548c-0.398,0.535-0.931,0.986-1.439,1.431
		c-0.861,0.752-1.94,1.34-2.596,2.224c-0.948,1.313-1.659,2.793-2.362,4.25c-0.361,0.737-0.656,1.575-0.691,2.372
		c-0.135,3.804-0.188,7.608-0.259,11.408c-0.017,1.409,0.069,2.823,0.005,4.226c-0.133,2.726-0.375,5.453-0.48,8.173
		c-0.035,0.703,0.261,1.421,0.433,2.276c0.445-0.262,0.717-0.374,0.92-0.558c0.207-0.196,0.407-0.446,0.479-0.703
		C340.634,446.056,343.622,433.655,345.798,421.094z M264.222,224.022c0.183-0.037,0.383-0.071,0.571-0.112
		c0.203-4.045,0.428-8.098,0.606-12.145c0.045-1.121-0.079-2.248-0.136-3.362c-0.065-1.127-0.223-2.246-0.219-3.366
		c0.042-3.73,0.219-7.467,0.166-11.198c-0.056-3.805-0.254-7.606-0.523-11.407c-0.109-1.621,0.05-2.923,2.112-3.336
		c-1.164-2.171-2.235-4.148-3.301-6.126c-0.159,0.024-0.325,0.048-0.49,0.075c-0.48,3.371-0.95,6.74-0.947,10.172
		c0.006,3.387-0.093,6.78-0.189,10.17c-0.088,3.444-0.281,6.891-0.336,10.34c-0.06,3.406-0.013,6.822-0.027,10.302
		c-0.814-0.028-1.362-0.048-2.232-0.08C261.002,217.455,262.612,220.739,264.222,224.022z M278.455,441.399
		c0.203-1.34,0.433-2.696,0.609-4.056c0.387-2.939,0.835-5.871,1.098-8.816c0.353-3.935,0.593-7.881,0.784-11.819
		c0.115-2.316,0.072-4.645,0.069-6.968c0-0.331-0.16-0.698-0.347-0.98c-0.873-1.288-1.506-2.636-1.806-4.161
		c-0.075-0.421-0.905-0.936-1.428-0.989c-0.628-0.064-0.873,0.504-0.9,1.192c-0.19,4.301-0.445,8.594-0.712,12.886
		c-0.123,2.244-0.302,4.491-0.477,6.734c-0.226,2.885-0.492,5.77-0.677,8.657c-0.048,0.831-0.164,1.808,0.217,2.478
		c0.63,1.128,0.792,2.184,0.699,3.431C275.465,440.628,276.202,441.213,278.455,441.399z M556.066,197.525
		c-0.192-0.034-0.372-0.066-0.566-0.098c-1.108,3.5-2.372,6.96-3.309,10.502c-1.33,5.052-2.611,10.134-3.552,15.257
		c-0.329,1.798-1.655,3.753-0.133,5.671c0.072,0.086,0.057,0.324-0.017,0.403c-0.95,1.005-0.39,2.092-0.262,3.173
		c0.108,0.829,0.07,1.67,0.01,2.506c-0.272,3.945-0.585,7.887-0.834,11.834c-0.046,0.654,0.112,1.315,0.179,1.975
		c0.177,0.016,0.365,0.036,0.542,0.047c0.293-0.828,0.608-1.647,0.882-2.482c0.205-0.593,0.163-1.423,0.581-1.772
		c0.903-0.752,1.004-1.685,1.097-2.661c0.175-1.959,0.253-3.923,0.479-5.874c0.369-3.02,0.768-6.027,1.264-9.021
		c0.526-3.257,1.363-6.47,1.767-9.738c0.751-6.024,1.296-12.077,1.91-18.11C556.155,198.603,556.081,198.06,556.066,197.525z
		 M505.677,243.875c-0.175-0.129-0.35-0.256-0.525-0.394c-0.557,0.381-1.197,0.685-1.653,1.156
		c-2.402,2.475-4.745,4.999-7.132,7.491c-0.622,0.654-0.823,1.39-0.331,2.128c0.954,1.452,0.804,2.966,0.503,4.518
		c-0.234,1.172-0.509,2.349-0.663,3.53c-0.437,3.291-0.846,6.581-1.229,9.869c-0.236,1.991-0.412,3.986-0.65,6.284
		c1.37-0.614,1.883-1.311,2.121-2.252c0.336-1.372,0.795-2.721,1.081-4.1c0.724-3.442,1.636-6.87,1.999-10.349
		c0.327-3.046,0.99-6.136,0.097-9.254c-0.317-1.088,0.707-2.242,1.545-2.247c0.808-0.006,1.311,0.772,1.193,2.181
		c-0.372,4.436-0.749,8.872-1.258,13.294c-0.228,2.06-0.77,4.091-1.182,6.263c2.64-0.953,2.809-1.243,2.678-3.473
		c-0.049-0.773,0.108-1.55,0.253-2.318c0.967-5.551,2.024-11.081,2.915-16.647C505.732,247.698,505.612,245.772,505.677,243.875z
		 M484.333,430.628c0.745-4.099,1.52-7.685,2.026-11.311c0.965-7.129,1.562-14.299,1.022-21.501
		c-0.15-1.957-1.541-3.128-3.155-4.167c-0.249,0.79-0.258,1.484-0.31,2.174c-0.31,4.015-0.435,8.045-0.963,12.027
		c-0.629,4.668-1.33,9.357-2.501,13.916C479.459,425.608,481.515,427.878,484.333,430.628z M582.506,132.005
		c-0.177,0.001-0.351,0-0.538,0.007c-0.937,2.194-1.874,4.392-2.813,6.592c-0.302,0.704-0.334,1.371,0.302,1.949
		c0.935,0.847,0.568,1.766,0.255,2.745c-0.422,1.333-0.91,2.69-1.009,4.058c-0.355,4.933-0.562,9.874-0.844,14.81
		c-0.028,0.628-0.152,1.259-0.224,1.889c-0.663,4.973-0.684,9.959-0.182,14.95c0.032,0.359,0.23,0.707,0.454,1.35
		c0.751-1.167,1.484-1.996,1.843-2.965c0.749-1.976,1.431-4.002,1.895-6.061c0.346-1.507,1.083-3.11-0.276-4.618
		c-0.285-0.317-0.226-0.958-0.207-1.44c0.135-3.019,0.291-6.03,0.452-9.05c0.277-5.278,0.578-10.555,0.798-15.835
		C582.533,137.598,582.487,134.803,582.506,132.005z M238.185,175.823c1.324-4.594,1.213-9.124,1.472-13.598
		c0.235-3.948,0.237-7.907,0.433-11.857c0.231-4.492,0.691-8.988,0.808-13.483c0.071-2.954-1.482-5.441-3.354-7.864
		c-0.057,2.803-0.091,5.376-0.122,7.953c-0.012,0.778,0.023,1.556-0.01,2.331c-0.128,2.877-0.201,5.765-0.436,8.632
		c-0.365,4.35-1.066,8.691-1.214,13.043c-0.117,2.925-0.315,5.906,0.374,8.834c0.146,0.639-0.125,1.388-0.296,2.059
		C235.419,173.587,236.043,174.746,238.185,175.823z M476.177,421.936c0.253-0.106,0.502-0.216,0.762-0.324
		c2.125-5.379,2.765-11.052,3.415-16.722c0.27-2.366,0.35-4.753,0.671-7.113c0.215-1.506,0.228-2.91-0.376-4.358
		c-0.268-0.658-0.433-1.728-0.065-2.19c1.344-1.675,0.31-2.7-0.836-3.782c-0.612-0.574-1.239-1.134-2.035-1.854
		c-0.148,0.859-0.247,1.469-0.353,2.079c-0.331,1.859,0.126,3.766-0.658,5.639c-0.498,1.172-0.372,2.602-0.401,3.923
		c-0.023,0.852,0.348,1.601,0.123,2.585c-0.781,3.28-1.224,6.634-1.756,9.965c-0.333,2.021-0.346,4.123-0.963,6.054
		c-0.591,1.84-0.167,3.094,1.207,4.331C475.445,420.649,475.76,421.34,476.177,421.936z M281.6,263.444
		c0.177-1.032,0.429-2.065,0.515-3.107c0.206-2.569,0.286-5.149,0.509-7.716c0.407-4.758,0.918-9.499,1.321-14.254
		c0.168-2.029,0.097-4.07,0.303-6.089c0.095-0.83-0.198-1.865,0.902-2.478c0.234-0.135,0.329-0.971,0.125-1.279
		c-1.891-2.845-2.679-6.06-3.48-9.166c-0.388,4.283-0.88,8.612-1.158,12.95c-0.34,5.639-1.02,11.224-2.286,16.74
		C277.17,254.208,278.098,259.04,281.6,263.444z M305.907,421.558c-0.052,1.49,0.026,2.817-0.152,4.121
		c-0.561,3.897-1.269,7.778-1.808,11.678c-0.668,4.856-1.241,9.722-1.821,14.594c-0.22,1.803,0.252,2.574,1.88,3.397
		c1.172,0.591,1.633,0.346,1.814-0.823c0.329-2.009,0.695-4.014,1.066-6.013c1.5-8.018,3.842-15.946,2.305-24.244
		C308.844,422.409,308.647,422.049,305.907,421.558z M490.513,437.266c0.485-1.741,1.079-3.332,1.33-4.968
		c0.711-4.722,1.376-9.453,1.855-14.196c0.435-4.308,0.619-8.643,0.872-12.968c0.021-0.32-0.091-0.737-0.319-0.964
		c-0.973-1.018-2.011-1.977-3.387-3.312c-0.249,1.402-0.475,2.274-0.559,3.158c-0.201,2.524-0.306,5.049-0.511,7.566
		c-0.179,2.173-0.437,4.336-0.684,6.5c-0.27,2.516-0.302,5.098-0.931,7.529c-0.701,2.665-0.57,5.305-0.589,7.969
		C487.587,435.318,488.6,436.429,490.513,437.266z M497.435,407.913c-0.163,0.034-0.321,0.068-0.485,0.102
		c-0.044,1.254-0.013,2.51-0.152,3.755c-0.372,3.568,0.893,7.306-1.192,10.694c-0.07,0.113-0.048,0.283-0.055,0.421
		c-0.093,2.743-0.363,5.448-0.941,8.152c-0.534,2.457-0.581,5.01-1.091,7.471c-0.576,2.798,0.707,4.687,2.951,6.511
		c0.222-0.61,0.46-1.037,0.549-1.495c0.372-1.938,0.734-3.882,1.036-5.837c0.783-5.139,1.423-10.307,2.324-15.424
		c0.481-2.723,0.975-5.404,0.403-8.166c-0.053-0.308,0.076-0.722,0.27-0.995c0.673-0.911,0.203-1.643-0.428-2.276
		C499.614,409.815,498.51,408.881,497.435,407.913z M243.721,138.907c-0.255,1.104-0.545,1.879-0.58,2.664
		c-0.22,4.156-0.314,8.32-0.557,12.467c-0.196,3.314-0.63,6.61-0.833,9.925c-0.2,3.237-0.276,6.487-0.316,9.73
		c-0.017,1.113,0.26,2.238,0.362,3.358c0.07,0.825,0.325,1.78,0.016,2.486c-1.036,2.358,0.684,3.731,1.821,5.375
		c0.269-0.629,0.39-1.231,0.418-1.837c0.282-5.439,0.48-10.877,0.831-16.315c0.173-2.591,0.712-5.162,0.978-7.757
		c0.428-4.204,0.596-8.423,1.214-12.597C247.534,143.302,246.305,141.129,243.721,138.907z M275.139,248.841
		c0.544-1.826,1.072-3.276,1.415-4.765c0.819-3.508,1.43-7.025,1.43-10.658c0.01-3.66,0.578-7.312,0.692-10.976
		c0.082-2.518,0.635-5.069-0.304-7.588c-0.199-0.514-0.024-1.352,0.33-1.81c0.923-1.231,0.701-2.339,0.034-3.558
		c-0.261-0.488-0.246-1.098-0.465-1.614c-0.644-1.575-0.956-3.31-2.36-5.004c-0.096,2.701-0.179,5.002-0.257,7.3
		c-0.08,2.236-0.077,4.477-0.259,6.703c-0.355,4.277-0.955,8.532-1.187,12.811c-0.266,4.926-0.202,9.865-0.377,14.796
		C273.781,245.947,274.044,247.256,275.139,248.841z M514.076,234.132c-0.154-0.078-0.315-0.147-0.469-0.217
		c-2.549,1.973-4.314,4.614-6.078,6.652c0.186,1.387,0.521,2.454,0.454,3.501c-0.163,2.032-0.595,4.044-0.834,6.074
		c-0.561,4.83-1.083,9.664-1.608,14.493c-0.051,0.52-0.04,1.036-0.068,1.996c1.655-1.676,3.004-3.011,4.32-4.374
		c0.239-0.252,0.378-0.622,0.46-0.96c0.699-3.236,1.389-6.472,2.073-9.711c0.274-1.292,0.678-2.582,0.777-3.89
		C513.493,243.184,513.763,238.656,514.076,234.132z M501.982,452.188c0.264-0.977,0.498-1.641,0.629-2.32
		c0.912-4.713,1.893-9.417,2.679-14.153c0.713-4.303,1.365-8.632,1.722-12.967c0.148-1.843-0.39-3.776-0.867-5.607
		c-0.205-0.782-1.043-1.42-1.591-2.12c-0.563,0.792-0.688,1.456-0.772,2.125c-0.224,1.672-0.371,3.356-0.631,5.023
		c-0.756,4.717-1.574,9.43-2.334,14.147c-0.523,3.252-0.831,6.545-1.541,9.755C498.71,448.642,499.62,450.407,501.982,452.188z
		 M521.268,466.59c1.906-0.65,2.887-1.856,3.219-3.71c0.562-3.12,1.167-6.24,1.933-9.325c1.481-5.895,2.664-11.826,3.102-17.885
		c0.019-0.441-0.057-0.888-0.082-1.274c-1.634,0.442-3.094,0.837-4.751,1.284c-0.173,1.066-0.481,2.359-0.57,3.673
		c-0.232,3.222-0.659,6.398-1.346,9.583c-1.015,4.758-1.57,9.61-2.263,14.431C520.359,464.451,520.283,465.608,521.268,466.59z
		 M298.209,453.244c0.357-0.928,0.596-1.357,0.679-1.813c0.745-4.383,1.496-8.765,2.175-13.159
		c0.614-3.981,1.142-7.972,1.665-11.961c0.254-1.976,0.209-3.95-0.62-5.837c-0.661-1.493-1.823-2.303-3.898-2.399
		c0.135,1.101,0.402,2.051,0.335,2.974c-0.386,4.688-0.578,9.412-1.355,14.05c-0.768,4.533-1.252,9.057-1.215,13.641
		C295.984,450.44,297.143,451.57,298.209,453.244z M486.99,263.869c-0.22-0.151-0.448-0.293-0.682-0.442
		c-0.16,0.318-0.247,0.717-0.504,0.939c-1.972,1.687-2.949,4.206-5.31,5.6c-0.91,0.537-0.673,1.478,0.029,2.203
		c0.96,0.984,0.983,2.179,0.838,3.39c-0.498,4.117-0.999,8.232-1.539,12.343c-0.196,1.596-0.547,3.172-0.768,4.765
		c-0.192,1.404,0.384,2.44,1.75,3.019c2.191-1.592,2.151-1.592,2.233-3.826c0.034-0.979,0.165-1.964,0.384-2.917
		c0.783-3.434,1.617-6.851,2.41-10.279c0.144-0.616,0.22-1.25,0.287-1.874c0.262-2.516,0.551-5.028,0.741-7.544
		C487.005,267.459,487.585,265.665,486.99,263.869z M285.352,264.051c1.356-0.955,2.41-1.611,3.351-2.376
		c0.644-0.528,1.121-1.378,0.499-2.062c-0.605-0.685-0.191-1.087,0.169-1.424c0.624-0.603,0.71-1.268,0.826-2.068
		c0.346-2.513,0.755-5.031,1.387-7.479c1.106-4.289,0.781-8.694,1.334-13.022c0.059-0.472-0.198-0.969-0.31-1.457
		c-0.853,0.765-1.089,1.832-1.769,2.241c-0.789,0.486-1.968,0.385-3.168,0.571c-0.338,2.213-0.777,4.476-1.019,6.752
		c-0.186,1.745-0.011,3.526-0.202,5.266c-0.341,2.936-0.975,5.838-1.242,8.778C285.032,259.688,285.281,261.648,285.352,264.051z
		 M363.408,431.041c0.129,0.042,0.269,0.08,0.401,0.121c1.05-1.07,2.173-2.097,3.103-3.251c0.325-0.395,0.224-1.131,0.216-1.706
		c-0.014-0.761-0.373-1.579-0.173-2.264c1.602-5.505,3.123-11.028,4.203-16.653c1.009-5.276,2.05-10.544,3.057-15.821
		c0.101-0.5,0.047-1.027,0.079-1.977c-2.564,2.949-4.786,5.501-7.108,8.171c1.742,0.774,1.783,2.018,1.368,3.438
		c-0.208,0.734-0.297,1.508-0.419,2.264c-0.487,3.063-0.919,6.14-1.452,9.205c-0.916,5.275-1.903,10.54-2.856,15.813
		C363.662,429.262,363.551,430.153,363.408,431.041z M452.095,395.415c0.239-0.568,0.494-0.939,0.557-1.337
		c0.38-2.653,0.728-5.305,1.038-7.967c0.386-3.436,0.774-6.873,1.043-10.318c0.245-3.209,0.711-6.423-0.055-9.658
		c-0.169-0.674,0.509-1.505,0.76-2.275c0.154-0.487,0.54-1.206,0.342-1.439c-1.197-1.381-2.535-2.644-3.833-3.944
		c-0.148,0.045-0.291,0.091-0.441,0.139c-0.08,2.231-0.114,4.47-0.241,6.7c-0.232,3.783-0.513,7.562-0.8,11.346
		c-0.099,1.337-0.266,2.669-0.388,4.004c-0.243,2.872-0.299,5.772-0.779,8.612C448.866,391.883,449.503,393.845,452.095,395.415z
		 M338.915,272.878c0.207-4.133,0.55-7.972,0.573-11.815c0.034-4.354-0.266-8.701-0.282-13.053c-0.019-1.029,0.532-2.05,0.862-3.246
		c-0.965-0.891-2.114-1.944-3.437-3.163c-0.18,0.634-0.354,1.014-0.384,1.402c-0.216,3.435-1.041,6.791-1.07,10.268
		c-0.037,4.435-0.636,8.86-1.016,13.289C333.921,269.267,335.412,271.46,338.915,272.878z M527.645,218.481
		c-0.074,0.939-0.16,1.743-0.194,2.558c-0.053,1.335,0.245,2.769-0.173,3.984c-0.827,2.385-0.253,4.742-0.291,7.102
		c-0.051,2.611,0.622,5.218,0.082,7.837c-0.154,0.676,0.059,1.21,0.798,1.566c1.617,0.788,3.206,1.636,4.935,2.514
		c0.53-1.344,0.329-2.375-0.127-2.908c0.258-1.642,0.564-2.866,0.587-4.091c0.027-1.755-0.053-3.523-0.257-5.261
		c-0.213-1.792,0.137-3.612-0.642-5.386c-0.72-1.658-1.393-3.352-1.526-5.222C530.739,219.749,529.774,218.731,527.645,218.481z
		 M445.974,350.995c-0.165,1.879-0.31,3.533-0.433,5.182c-0.046,0.423-0.028,0.852-0.099,1.268c-0.53,2.837-0.057,5.709-0.428,8.586
		c-0.64,4.957-0.745,9.978-1.007,14.979c-0.091,1.752,0.086,3.523-0.011,5.28c-0.108,1.816,0.03,2.127,2.134,2.928
		c0.135-0.464,0.327-0.911,0.386-1.374c0.342-3.074,0.593-6.166,1.015-9.236c1.066-7.757,1.511-15.543,1.241-23.364
		c-0.01-0.205-0.019-0.448-0.129-0.61C447.783,353.438,446.909,352.256,445.974,350.995z M300.029,226.963
		c0.148,0.219,0.294,0.434,0.443,0.648c-2.114,1.398-4.252,2.797-6.379,4.193c0.178,0.113,0.358,0.22,0.531,0.326
		c0.016,0.796,0.055,1.589,0.045,2.385c-0.008,0.913-0.067,1.831-0.097,2.743c-0.117,2.932-0.174,5.865-0.369,8.792
		c-0.199,2.796-0.551,5.592-0.799,8.389c-0.005,0.28,0.275,0.584,0.57,1.21c0.303-0.962,0.504-1.572,0.815-2.514
		c0.317,0.671,0.478,1.004,0.819,1.75c0.984-1.569,2.059-2.684,2.38-4.349c0.451-2.481,0.783-4.967,1.147-7.455
		c0.726-4.977,1.138-9.946,1.191-14.958C300.332,227.737,300.131,227.355,300.029,226.963z M350.418,284.929
		c0.297-0.683,0.489-1.048,0.621-1.439c0.905-2.655,0.937-5.403,1.007-8.165c0.152-5.427,0.741-10.839,0.214-16.274
		c-0.076-0.738-0.278-1.606-0.752-2.145c-0.971-1.101-2.177-2.021-3.332-3.057c-0.064,5.144-0.108,10.194-0.191,15.243
		c-0.057,2.952-0.178,5.908-0.3,8.86c-0.04,0.839,0.096,1.828-0.324,2.481c-0.675,1.059-0.335,1.704,0.461,2.375
		C348.567,283.462,349.378,284.089,350.418,284.929z M355.696,260.583c-0.198,0.041-0.393,0.087-0.59,0.131
		c-0.073,0.654-0.215,1.313-0.2,1.97c0.092,3.797-0.014,7.576-0.255,11.363c-0.255,4.135-0.235,8.291-0.559,12.426
		c-0.086,1.184-0.075,2.037,0.965,2.764c0.826,0.593,1.111,1.903,2.621,1.78c0.095-0.378,0.201-0.706,0.248-1.04
		c0.37-3.491,0.775-6.977,1.084-10.475c0.149-1.671,0.236-3.362,0.168-5.046c-0.11-2.873-0.733-5.777-0.442-8.608
		C358.998,263.067,356.733,262.3,355.696,260.583z M473.991,393.81c0.27-3.142,0.473-6.156,0.815-9.162
		c0.304-2.685-1.195-4.561-2.946-6.355c-0.101-0.09-0.409,0.002-0.924,0.018c-0.124,3.547-0.199,7.065-0.384,10.581
		c-0.264,4.971-0.578,9.939-0.903,14.911c-0.11,1.615-0.335,3.223-0.525,4.832c-0.163,1.359-0.386,2.711-0.581,4.064
		c-0.154,0.044-0.308,0.088-0.466,0.126c0.618,0.641,1.226,1.286,1.994,2.083c0.31-0.561,0.521-0.782,0.572-1.039
		c1.028-5.191,2.136-10.374,3.02-15.592c0.239-1.398,0.173-2.959-0.813-4.268c-0.069-0.086-0.019-0.255-0.023-0.385
		C473.174,393.68,473.509,393.731,473.991,393.81z M292.002,413.695c0.075,1.785,0.216,3.283,0.175,4.766
		c-0.025,0.958-0.512,1.915-0.469,2.859c0.276,5.099-0.39,10.124-1.002,15.164c-0.463,3.782-1.924,7.5-0.666,11.425
		c0.447,1.387,0.225,1.499,2.236,1.521c0.098-0.307,0.255-0.627,0.294-0.96c0.638-4.877,1.485-9.737,1.852-14.641
		c0.447-5.878,1.95-11.755,0.141-17.71C294.142,414.719,293.506,414.123,292.002,413.695z M547.138,450.573
		c0.148,0.096,0.308,0.191,0.46,0.282c0.555-0.687,1.305-1.304,1.636-2.082c3.044-7.149,4.597-14.682,6.072-22.233
		c0.553-2.845,1.176-5.678,1.79-8.511c0.245-1.082,0.597-2.15-0.099-3.406c-2.51,1.287-4.3,3.086-5.99,5.148
		c1.325,1.02,1.461,2.248,1.199,3.676c-0.699,3.968-1.286,7.952-1.976,11.921c-0.276,1.597-0.734,3.161-1.009,4.76
		c-0.258,1.5-0.473,3.016-0.551,4.533c-0.085,1.624-1.072,2.943-1.465,4.452C547.098,449.577,547.157,450.088,547.138,450.573z
		 M384,407.06c0.22,0.03,0.444,0.059,0.661,0.088c1.298-1.634,1.999-3.558,2.392-5.549c0.67-3.459,1.188-6.946,1.785-10.422
		c0.393-2.367,0.852-4.725,1.186-7.096c0.464-3.21,0.857-6.433,1.25-9.651c0.154-1.257,0.394-2.534-0.29-3.988
		c-2.132,2.51-4.092,4.815-6.129,7.216c2.082,2.176,2.011,4.616,1.69,7.11c-0.867,6.699-1.725,13.405-2.556,20.111
		C383.89,405.59,383.996,406.334,384,407.06z M361.405,266.839c-0.028,0.852-0.102,1.516-0.063,2.188
		c0.114,2.364,0.544,4.758,0.32,7.086c-0.274,2.733,0.151,5.449-0.245,8.196c-0.454,3.193-0.245,6.476-0.222,9.716
		c0.007,0.567,0.334,1.25,0.737,1.681c0.591,0.603,1.378,1.002,2.25,1.609c0.479-2.982,1.166-5.791,1.329-8.635
		c0.194-3.521-0.257-7.066-0.002-10.579c0.162-2.458-0.941-4.875-0.107-7.326c0.062-0.216-0.114-0.552-0.273-0.779
		C364.272,268.768,363.465,267.449,361.405,266.839z M486.469,287.491c0.281,0.187,0.566,0.375,0.855,0.558
		c0.302-0.481,0.545-1.041,0.948-1.442c2.184-2.19,2.497-5.079,3.096-7.8c0.732-3.31,1.1-6.697,1.625-10.053
		c0.564-3.696,0.956-7.414,0.747-11.164c-0.027-0.437-0.175-0.864-0.372-1.786c-1.735,1.89-3.17,3.437-4.677,5.08
		c1.283,1.037,1.418,2.202,1.118,3.547c-0.519,2.319-1.021,4.651-1.353,6.993c-0.65,4.526-1.182,9.063-1.754,13.601
		C486.597,285.839,486.534,286.67,486.469,287.491z M424.739,367.979c0.416,0.21,0.97,0.473,1.704,0.834
		c0.413-3.731,0.85-7.216,1.147-10.709c0.381-4.366,0.705-8.735,0.935-13.103c0.131-2.384,0.21-4.79-0.043-7.153
		c-0.154-1.395-0.422-2.619,0.953-3.547c-0.644-0.62-1.128-1.144-1.686-1.609c-1.152-0.965-2.571-0.568-2.839,0.831
		c-0.128,0.669-0.014,1.382,0.045,2.086c0.038,0.467,0.22,0.943,0.215,1.413c0,2.952,0.012,5.898-0.062,8.841
		c-0.097,3.88-0.337,7.752-0.398,11.629c-0.048,2.743,0.081,5.499,0.099,8.25C424.821,366.423,424.768,367.104,424.739,367.979z
		 M329.903,431.614c0.074,1.618,0.231,3.095,0.147,4.553c-0.176,3.212-0.487,6.42-0.77,9.625c-0.277,3.091-0.658,6.169-0.864,9.264
		c-0.122,1.8-0.135,3.627,0.062,5.413c0.155,1.378,0.714,2.713,1.17,4.365c0.724-1.63,1.619-3.102,2.035-4.687
		c0.855-3.274,1.303-6.605,1.102-10.031c-0.182-3.085-0.022-6.193,0.013-9.293c0.028-2.1,0.01-4.208,0.171-6.299
		C333.107,432.687,332.161,431.644,329.903,431.614z M393.881,396.448c-0.22-1.445-0.537-2.416-0.474-3.359
		c0.094-1.546,0.272-3.124,0.701-4.611c2.088-7.176,2.872-14.563,3.869-21.912c0.126-0.968-0.076-1.974-0.156-3.391
		c-0.739,0.834-1.05,1.288-1.47,1.627c-1.156,0.918-2.08,1.845-1.08,3.404c0.16,0.24,0.018,0.673-0.047,1.006
		c-0.751,4.226-1.543,8.448-2.259,12.681c-0.758,4.449-1.485,8.899-2.125,13.363c-0.217,1.468-0.134,2.975-0.183,4.463
		c0.131,0.04,0.249,0.071,0.385,0.105C392.047,398.63,393.061,397.435,393.881,396.448z M342.252,247.499
		c-0.178,1.024-0.441,1.555-0.324,1.98c0.714,2.563-0.201,5.092,0.051,7.707c0.472,4.96,0.048,9.988,0.024,14.997
		c-0.018,1.515,0.034,3.029,0.053,4.78c0.48,0.303,1.18,0.75,2.24,1.414c0.29-2.915,0.653-5.467,0.766-8.038
		c0.2-4.574,0.391-9.161,0.296-13.733C345.292,253.53,344.536,250.521,342.252,247.499z M318.644,252.574
		c0.271-0.536,0.652-0.977,0.713-1.47c0.433-3.416,1.021-6.84,1.124-10.276c0.105-3.546-0.116-7.133-0.543-10.663
		c-0.201-1.601-0.249-2.86,1.228-3.764c-2.283-2.922-2.283-2.922-3.709-3.46c-0.076,0.267-0.243,0.538-0.202,0.778
		c0.89,4.855-0.192,9.695-0.008,14.546c0.146,3.877,0.01,7.759,0.008,11.643C317.248,250.914,317.343,251.866,318.644,252.574z
		 M580.807,391.126c-0.184-0.073-0.361-0.148-0.549-0.223c-1.443,1.914-3.717,3.351-3.624,6.138
		c-1.043,1.046-0.483,2.265-0.382,3.427c0.076,0.832,0.458,1.693,0.336,2.491c-0.458,2.901-1.089,5.782-1.617,8.678
		c-0.067,0.374-0.019,0.948,0.224,1.155c0.832,0.675,0.192,1.227,0.047,1.877c-0.359,1.601-0.762,3.222-0.819,4.848
		c-0.04,1.005,0.578,2.012-0.013,3.068c-0.072,0.131,0.418,0.547,0.642,0.834c0.167-0.021,0.333-0.038,0.51-0.06
		c1.157-6.647,2.377-13.28,3.478-19.932C579.714,399.339,580.227,395.225,580.807,391.126z M534.437,222.305
		c0.066,1.421,0.08,2.476,0.173,3.52c0.317,3.641,0.661,7.284,0.983,10.926c0.183,2.035,0.312,4.075,0.549,6.105
		c0.198,1.766,1.441,2.701,3.164,3.385c0.047-1.324,0.006-2.451,0.139-3.568c0.401-3.396-0.053-6.733-0.673-10.064
		c-0.342-1.868-1.002-3.728-1.051-5.597c-0.029-1.373-0.542-2.279-1.454-3.143C535.807,223.426,535.294,223.033,534.437,222.305z
		 M520.315,248.994c0.315-0.198,0.576-0.271,0.656-0.427c1.27-2.409,3.056-4.551,2.805-7.588c-0.251-2.861,0.135-5.777,0.232-8.666
		c0.097-2.807,0.184-5.621,0.278-8.438c0.026-0.721,0.051-1.446,0.076-2.172c-0.188-0.064-0.382-0.126-0.564-0.199
		c-0.817,1.132-2.001,2.16-2.343,3.401c-0.462,1.665-0.249,3.49-0.34,5.242c-0.205,3.94-0.374,7.878-0.64,11.811
		c-0.133,1.963-0.451,3.92-0.62,5.889C519.823,248.193,520.137,248.56,520.315,248.994z M368.441,300.896
		c0.284-1.789,0.51-3.378,0.797-4.955c0.396-2.224,1.038-4.422,1.228-6.654c0.322-4,0.392-8.016,0.514-12.025
		c0.021-0.692-0.171-1.405-0.379-2.074c-0.277-0.861-0.823-1.632-1.899-1.421c-0.982,0.182-0.79,1.059-0.762,1.747
		c0.08,2.036,0.285,4.076,0.241,6.108c-0.103,3.933-0.321,7.867-0.534,11.801c-0.101,1.604-0.092,3.276-0.58,4.779
		C366.583,299.66,367.084,300.29,368.441,300.896z M372.569,297.16c0.767-0.426,1.592-0.797,2.314-1.297
		c0.881-0.608,1.431-1.349,1.102-2.538c-0.147-0.536-0.042-1.355,0.314-1.756c1.68-1.888,0.577-4.441,1.821-6.394
		c-0.411-2.638-1.738-4.747-4.084-6.558c-0.358,3.358-0.878,6.466-0.988,9.585C372.94,291.318,371.557,294.409,372.569,297.16z
		 M543.504,250.892c0.26-0.656,0.565-1.13,0.61-1.63c0.124-1.665,0.143-3.338,0.222-5.01c0.118-2.532,0.285-5.065,0.361-7.596
		c0.049-1.481,0.068-2.981-0.11-4.442c-0.224-1.752-1.287-2.99-3.316-3.999c-0.133,1.087-0.338,1.812-0.317,2.529
		c0.148,3.083,0.344,6.154,0.536,9.23c0.156,2.664,0.331,5.338,0.494,8.003C542.052,249.045,542.248,250.041,543.504,250.892z
		 M476.26,291.748c0.547-2.833,1.138-5.435,1.536-8.064c0.335-2.077,0.523-4.184,0.61-6.283c0.04-0.774-0.382-1.559-0.707-2.748
		c-1.401,1.637-2.499,2.906-3.577,4.171c-1.154,1.35-1.484,2.857-1.197,4.571c0.257,1.461,0.511,2.956,0.41,4.417
		C473.204,289.743,474.033,290.88,476.26,291.748z M518.877,228.195c-2.575,1.41-2.968,2.295-2.708,4.41
		c0.19,1.669,0.234,3.387,0.072,5.06c-0.519,5.117-1.169,10.226-1.754,15.339c-0.078,0.728-0.059,1.46-0.084,2.193
		c0.2,0.052,0.405,0.104,0.606,0.16c0.644-0.891,1.661-1.721,1.851-2.693c0.409-2.125,0.365-4.328,0.58-6.494
		c0.38-3.921,0.849-7.836,1.203-11.766C518.814,232.398,518.806,230.38,518.877,228.195z M486.281,179.54
		c0.066,2.298,0.211,4.323,0.154,6.343c-0.061,2.107-0.317,4.207-0.532,6.616c2.307-1.199,3.917-2.308,3.592-4.717
		c-0.061-0.405,0.103-0.835,0.129-1.256c0.104-1.974,0.188-3.933-1.836-5.293C487.267,180.879,486.931,180.286,486.281,179.54z
		 M573.137,192.123c0.201,0.054,0.395,0.105,0.601,0.161c0.437-0.926,0.939-1.818,1.29-2.766c0.462-1.245,0.726-2.559,1.233-3.776
		c0.359-0.855,0.329-1.396-0.483-2.004c-1.04-0.792-1.463-1.937-1.418-3.214c0.046-1.199,0.087-2.397,0.11-3.596
		c0.023-1.276,0.065-2.554,0.029-3.82c-0.047-1.169-0.184-2.333-0.266-3.495c-0.103,0.001-0.202,0.011-0.302,0.014
		C573.671,177.125,573.407,184.621,573.137,192.123z M233.504,152.924c0.096,0.015,0.176,0.026,0.263,0.047
		c0.085-0.185,0.242-0.36,0.253-0.544c0.294-3.137,0.582-6.278,0.875-9.419c0.067-0.771,0.197-1.538,0.205-2.306
		c0.007-3.793,0.001-7.593,0.001-11.388c0-1.411,0.095-2.844-0.939-3.971C233.948,134.556,233.726,143.735,233.504,152.924z
		 M574.448,161.035c0.192,0.004,0.376-0.002,0.553-0.01c0.561-4.969,1.051-9.935,0.863-14.968c-0.58,0.635-0.952,1.299-1.349,1.966
		c-0.5,0.849-0.895,1.786-1.539,2.524c-0.859,0.982-1.366,1.979-1.099,3.254c2.09,0.659,2.851,1.745,2.704,3.762
		C574.503,158.72,574.492,159.879,574.448,161.035z M356.183,179.816c-1.182,0.904-2.707,0.928-2.253,2.458
		c0.708,2.38,1.408,4.774,2.332,7.078c0.644,1.598,0.75,2.987-0.404,4.357c-0.124,0.142-0.102,0.383-0.171,0.675
		c0.488,0.286,0.982,0.56,1.735,0.999C357.697,190.123,356.781,185.226,356.183,179.816z M482.583,192.539
		c1.444-3.822,1.731-11.668,0.439-14.045C482.503,183.374,482.11,187.941,482.583,192.539z M351.416,183.471
		c-0.761,2.609,0.218,6.94,1.861,8.133C352.102,188.933,353.216,186.195,351.416,183.471z M383.149,288.667
		c-0.4-1.186-0.923-2.193-2.414-2.655c-0.647,1.609-0.649,3.093-0.056,4.688C381.566,289.971,382.332,289.343,383.149,288.667z
		 M468.013,285.823c0.697,0.521,1.326,1.012,2.052,1.553c0.853-2.421,0.887-3.012,0.357-4.601
		C469.689,283.701,468.955,284.626,468.013,285.823z"/>
	<path fill-rule="evenodd" clip-rule="evenodd" fill="#010101" d="M523.318,205.9c-2.828-0.505-3.755-2.676-4.751-4.933
		c1.691-0.195,1.929,1.523,3.024,2.007c-0.015,1.967,1.484,1.613,2.953,1.606c-0.481,0.506-0.876,0.929-1.279,1.348L523.318,205.9z"
		/>
</g>
</svg>
