<?xml version="1.0" encoding="utf-8"?>
<!-- Generator: Adobe Illustrator 17.0.0, SVG Export Plug-In . SVG Version: 6.00 Build 0)  -->
<!DOCTYPE svg PUBLIC "-//W3C//DTD SVG 1.1//EN" "http://www.w3.org/Graphics/SVG/1.1/DTD/svg11.dtd">
<svg version="1.1" id="Layer_1" xmlns="http://www.w3.org/2000/svg" xmlns:xlink="http://www.w3.org/1999/xlink" x="0px" y="0px"
	 width="800px" height="600px" viewBox="0 0 800 600" enable-background="new 0 0 800 600" xml:space="preserve">
<path fill-rule="evenodd" clip-rule="evenodd" fill="#020000" d="M456.354,193.214c0.236-0.05,0.264,0.112,0.279,0.279
	c2.642,0.111,3.215,2.871,5.063,4.217c4.217,3.083,10.261,5.166,15.468,7.319c5.399,2.227,10.468,4.912,15.752,6.748
	c0.983,2.239,3.455,2.505,3.939,4.781c0.539,2.561-0.589,7.665-1.132,11.529c-3.622,26.035-3.851,52.518-6.183,80.153
	c-1.281,15.17-3.166,30.687-4.22,45.559c-0.834,11.784-0.98,23.754-1.402,33.751c-0.269,6.308-0.508,12.013-0.567,16.881
	c-3.095,1.767-6.255,0.087-9.557,0c-12.425-0.341-26.348,2.406-38.25,3.374c-4.466,0.359-9.405-0.267-14.628,0
	c-39.642,2.003-84.568,7.014-126.561,5.904c-10.735-7.733-21.613-15.319-32.904-22.5c-0.239-12.912-2.279-27.276-3.659-41.342
	c-1.2-12.249-2.335-24.646-3.371-37.124c-0.76-9.055-2.09-17.929-3.095-27.276c-1.854-17.272-4.282-37.087-2.251-54.564
	c-1.193-1.247-2.542-3.827-2.533-5.346c1.489-2.103,4.599-0.85,6.469-2.53c32.612-3.269,66.09-11.275,100.401-15.753
	c17.331-2.258,34.91-3.238,52.031-5.904C422.685,198.69,439.972,197.301,456.354,193.214z M449.886,211.212
	c3.036,2.227,6.093,5.055,9.842,5.346c-5.97-3.684-11.697-7.622-17.155-11.815c-0.391-0.359-0.173-1.327-0.568-1.687
	c-0.849,0.18-2.418-0.359-2.809,0.285C442.453,206.157,446.283,208.576,449.886,211.212z M427.944,204.743
	c0.31,1.687,4.081,3.883,6.471,5.911c3.69,3.126,6.993,5.03,9.564,8.156c1.489-0.298,3.014-0.552,4.781-0.565
	c-5.523-5.067-13.601-7.585-18.001-13.787C429.807,204.538,428.477,204.241,427.944,204.743z M428.229,214.028
	c2.155,1.966,5.15,4.595,7.879,5.067c-6.369-3.485-11.027-8.67-17.44-12.1C421.547,209.655,424.554,212.173,428.229,214.028z
	 M416.697,214.306c3.21,2.152,6.155,4.856,9.563,5.904c-6.189-4.211-12.27-8.54-18.562-12.652
	C410.076,210.294,413.556,212.198,416.697,214.306z M398.137,208.96c-0.381-0.198-3.42-0.303-4.217,0.565
	c2.285,2.152,5.538,4.05,8.716,6.468c3.442,2.623,7.907,7.895,13.216,5.346C409.834,218.679,403.768,211.987,398.137,208.96z
	 M482.508,213.742c-4.028-1.407-8.366-4-12.09-4.781C474.659,210.225,477.636,215.721,482.508,213.742z M399.26,224.434
	c0.766-0.459,2.077-0.366,3.098-0.564c-3.852-3.461-9.083-6.462-13.505-9.842c-2.072-1.594-3.34-4.038-5.907-3.659
	C387.567,215.876,394.562,219.007,399.26,224.434z M470.699,215.708c-2.18-1.097-4.924-3.138-7.033-3.368
	C466.175,213.109,467.4,216.663,470.699,215.708z M371.978,219.931c2.952,2.407,6.716,7.635,11.25,6.754
	c-6.264-4.986-13.365-9.135-19.685-14.065c-0.189,0-0.375,0-0.565,0C365.178,215.243,368.229,216.88,371.978,219.931z
	 M362.418,220.775c-3.306-2.444-7.985-7.083-12.094-6.469c3.913,5.836,12.509,9.427,18.283,14.339
	c1.12-0.186,1.91-0.707,3.371-0.558C369.473,225.458,365.993,223.424,362.418,220.775z M338.795,215.993
	c3.429,3.982,9.139,7.678,14.062,10.971c2.202,1.476,4.519,3.864,6.469,3.095c-5.045-4.428-11.634-7.306-15.75-12.658
	c-0.453-0.924,0.974-1.991-0.285-1.966C341.89,215.708,340.578,216.093,338.795,215.993z M330.916,217.401
	c-0.763,0.025-0.561-0.471-1.123,0c2.747,2.94,8.931,7.802,12.937,10.971c2.236,1.762,3.746,4.292,6.466,3.089
	C343.127,226.747,335.818,223.281,330.916,217.401z M325.012,222.183c-2.409-1.736-5.154-4.663-7.874-2.53
	c3.114,2.623,5.895,4.732,10.125,7.876c3.082,2.282,7.736,6.922,11.811,5.619C335.347,229.718,329.641,225.526,325.012,222.183z
	 M472.104,221.904c-3.941,0.422-8.087,1.321-12.094,1.687c-7.421,0.67-17.924,0.571-23.061,3.095
	c-5.693-1.438-12.134,0.862-18.566,1.123c-1.445,3.857-5.086,1.303-7.87,1.122c-2.757-0.173-6.723,0.775-10.131,1.408
	c-23.164,4.298-47.689,5.985-69.184,10.407c-0.577,1.991-1.966,3.87-4.217,3.938c-1.848,0.05-3.088-1.811-5.063-1.972
	c-4.621-0.366-10.202,3.151-15.188,2.815c-0.927,0.93-2.19,2.189-3.653,2.251c-1.182,0.043-2.159-1.097-3.38-1.129
	c-1.718-0.037-4.202,1.296-6.183,1.687c-2.409,0.484-4.63,0.664-7.03,1.123c-0.338,5.16-0.183,10.915,0.561,16.875
	c0.859,6.865,0.76,15.722,2.812,20.534c-0.772,5.061,0.645,10.227,1.126,15.467c1.377,14.997,2.35,31.456,3.935,47.531
	c0.453,1.222,2.087,0.942,2.251,2.53c0.145,1.352-1.423,2.208-1.687,3.659c-0.478,2.623,0.384,7.436,0.843,11.529
	c1.448,12.931,2.726,28.262,4.499,40.498c27.458-0.974,56.493-2.307,84.934-4.211c7.526-0.509,14.984-1.451,22.501-1.972
	c7.771-0.552,15.6-0.323,23.344-0.843c15.2-1.03,30.221-2.723,45-3.38c0.84-17.582,1.311-35.331,2.813-53.714
	c0.899-10.984,2.071-22.178,3.092-33.192c2.102-22.649,2.754-45.367,4.217-67.216c0.54-7.988,2.388-15.809,1.976-23.623
	C483.177,220.57,478.3,221.234,472.104,221.904z M312.635,224.434c-2.611-2.09-4.967-5.259-8.438-2.53
	c2.556,2.139,5.659,4.645,9.282,7.312c3.464,2.543,8.565,8.205,13.501,5.904C322.605,232.311,317.132,228.031,312.635,224.434z
	 M310.67,238.209c1.005,0.422,2.242-0.285,3.653-0.273c-5.883-5.178-13.151-8.974-18.562-14.63c-0.328,0.043-0.797-0.05-0.843,0.285
	C300.551,228.08,305.584,233.172,310.67,238.209z M389.979,225.557c0.561,0,1.125,0,1.69,0c-0.152-1.067-1.101-1.339-1.969-1.687
	C389.495,224.725,389.985,224.893,389.979,225.557z M285.918,224.713c-0.66,0.093-1.051,0.446-1.966,0.279
	c2.996,3.591,8.407,8.49,12.655,11.815c2.195,1.712,4.924,4.738,7.03,2.53C297.751,234.444,291.909,229.507,285.918,224.713z
	 M283.667,234.276c-3.206-2.685-6.859-6.629-10.124-7.876c-0.046,0.329-0.443,0.304-0.84,0.285
	c5.845,5.967,11.96,11.654,19.967,15.461C290.861,239.133,287.081,237.13,283.667,234.276z M267.638,231.746
	c-1.736-1.377-4.828-4.868-6.186-3.101c3.764,2.475,9.042,8.918,13.216,12.379c2.397,1.985,5.551,4.682,7.597,2.251
	C277.787,240.205,272.401,235.504,267.638,231.746z M275.232,248.901c-7.089-5.433-13.154-11.281-19.685-16.876
	c-0.062-0.341-0.316-0.173-0.568,0c0,1.036,0,2.065,0,3.095c8.165,7.207,16.519,14.234,25.313,20.814
	C280.962,252.225,277.35,250.525,275.232,248.901z M260.891,253.682c-2.149-1.774-4.745-5.253-6.193-4.781
	c0.614-0.044,0.133,0.998,0.282,1.407c5.864,4.54,12.016,9.198,17.722,14.06c2.899,2.475,5.104,6.097,8.713,7.312
	c-0.403-0.906-0.264-2.357-0.276-3.653C274.6,263.004,266.971,258.718,260.891,253.682z M280.572,262.123
	c0.084-0.738-0.099-1.216-0.843-1.129C279.226,261.478,279.819,262.098,280.572,262.123z M256.109,271.115
	c8.797,6.952,17.334,14.165,26.996,20.249c-0.04-1.736-0.285-3.274-0.84-4.496c-10.202-5.178-17.405-13.347-26.439-19.691
	C255.699,268.715,256.332,269.491,256.109,271.115z M281.701,280.121c0-0.657,0-1.315,0-1.973c-2.037-0.682-4.072-2.859-5.904-2.815
	C277.989,276.71,279.602,278.657,281.701,280.121z M262.857,295.303c7.743,6.636,15.105,12.553,22.5,18.004
	c-0.328-1.923-0.272-4.23-0.567-6.189c-11.554-2.556-17.517-12.497-26.997-17.998C257.777,291.712,260.757,293.504,262.857,295.303z
	 M284.231,301.492c0-0.936,0-1.873,0-2.815c-4.642-0.608-7.365-4.633-10.689-5.619C276.922,296.053,280.358,298.993,284.231,301.492
	z M260.609,314.708c1.057-0.211,1.343,0.347,2.248,0.285c7.842,6.593,15.712,13.166,24.187,19.126c0.136-1.73-0.5-2.685-0.283-4.503
	c-9.021-5.978-17.936-12.062-26.435-18.562C260.162,312.531,260.823,313.182,260.609,314.708z M263.421,324.557
	c-0.204-1.203-1.581-1.235-2.251-1.966C261.164,323.993,262.639,323.93,263.421,324.557z M271.297,330.182
	c0.062,0.217,0.003,0.552,0.276,0.565c5.504,4.527,10.311,9.749,16.314,13.774c0.145-1.55-0.158-2.648-0.283-3.932
	C280.715,338.573,276.919,333.463,271.297,330.182z M262.292,333.555c8.401,7.356,17.241,14.259,26.439,20.814
	c-3.535-4.459-8.45-7.535-12.934-11.25c-4.379-3.622-9.064-8.013-13.784-10.692C261.991,332.917,262.072,333.308,262.292,333.555z
	 M286.761,360.552c-4.13-2.524-8.121-5.185-11.808-8.156c-0.53-0.018-0.596,0.217-0.286,0.565c5.225,3.492,9.387,8.05,15.188,10.971
	c0.115-1.334-0.499-1.941-0.276-3.38C289.109,360.174,287.937,360.782,286.761,360.552z M263.7,354.648
	c8.974,6.586,17.331,13.793,27.282,19.406c0.14-1.259-0.143-2.108-0.279-3.095c-0.958-0.26-2.062-0.379-3.098-0.565
	c-8.124-5.563-15.799-11.572-23.905-17.154C263.7,353.712,263.7,354.177,263.7,354.648z M264.829,365.619
	c8.5,7.058,17.191,13.929,26.994,19.685c0-1.123,0-2.251,0-3.374c-10.221-4.589-18.143-11.486-26.994-17.433
	C264.829,364.862,264.829,365.241,264.829,365.619z M268.481,378.271c2.785,1.972,5.489,4.174,8.438,5.91
	c0.466-0.787-1.169-1.377-1.966-1.972c-2.862-2.134-5.973-4.776-9.005-6.184C265.874,377.539,267.576,377.632,268.481,378.271z
	 M275.232,392.33c6.196,4.527,12.063,10.178,19.123,13.223c-0.025-1.477-0.468-2.531-0.279-4.224c-1.284-0.136-1.597,0.49-2.533,0
	c-8.122-4.434-14.934-10.183-23.344-14.339C269.598,389.682,272.727,390.501,275.232,392.33z"/>
</svg>
