<?xml version="1.0" encoding="utf-8"?>
<!-- Generator: Adobe Illustrator 17.0.0, SVG Export Plug-In . SVG Version: 6.00 Build 0)  -->
<!DOCTYPE svg PUBLIC "-//W3C//DTD SVG 1.1//EN" "http://www.w3.org/Graphics/SVG/1.1/DTD/svg11.dtd">
<svg version="1.1" id="Layer_1" xmlns="http://www.w3.org/2000/svg" xmlns:xlink="http://www.w3.org/1999/xlink" x="0px" y="0px"
	 width="800px" height="600px" viewBox="0 0 800 600" enable-background="new 0 0 800 600" xml:space="preserve">
<g>
	<path fill="#231F20" d="M609.989,127.443c0.721,12.251-20.195,15.158-27.64,18.965c-17.787,9.066-30.94,22.355-43.991,37.547
		c-13.017,15.123-25.866,30.661-36.893,47.426c-5.153,7.839-9.921,15.954-14.941,23.879c-1.691,2.698-3.297,5.398-5.504,7.44
		c-1.909,4.914-4.235,9.621-7.513,13.722c-6.527,8.184-14.507,14.724-23.157,20.365c-9.439,6.159-19.108,11.87-28.378,18.306
		c-8.65,5.987-17.336,12.355-26.79,16.939c-0.351,0.174-0.736,0.347-1.102,0.52c0.1,0.156,0.201,0.346,0.284,0.554
		c3.732,10.969-8.718,22.978-17.283,27.477c-6.291,3.305-12.951,5.018-19.645,5.364c-13.05,23.238-22.403,48.672-35.787,71.806
		c-11.53,19.932-25.166,42.358-44.056,55.733c-5.673,4.014-11.678,6.939-17.685,8.341c-5.924,0.259-11.913-0.658-17.77-3.202
		c-12.799-5.537-19.861-19.223-24.128-32.131c-8.551-25.799-12.097-61.84,7.864-82.984c0.769-0.45,1.556-0.865,2.41-1.229
		c10.674-4.429,16.949,9.274,18.806,17.442c1.656,7.318,1.558,14.949,2.076,22.406c0.601,8.323,2.375,15.763,4.885,23.67
		c0.034,0.104,0.034,0.191,0.051,0.313c3.313-0.14,6.458-2.631,9.168-6.679c7.128-10.624,12.985-22.096,19.292-33.239
		c10.91-19.31,22.955-37.686,35.59-55.836c-15.478-16.871-25.618-47.844-5.02-61.374c-3.281-15.866,3.83-33.256,9.788-48.224
		c5.119-12.838,11.243-25.453,15.56-38.602c2.726-8.374,1.389-15.347,1.89-23.792c0.118-2.146,1.106-3.633,2.159-5.363
		c6.527-10.78,26.636-5.97,30.234,4.897c3.144,9.482,2.81,19.915,0.569,29.587c-0.687,3.011-1.704,6.178-2.493,9.379
		c1.975-2.612,4.351-5,6.341-7.354c7.43-8.807,17.452-15.122,23.976-24.776c14.323-21.213,20.263-47.22,37.112-67.032
		c6.66-7.838,26.319-29.467,37.062-16.091c3.749,4.689,0.486,14.309-1.457,19.05c-3.129,7.595-8.599,14.153-12.063,21.507
		c0.467,1.316,0.803,2.699,0.954,4.188c0.719,7.111,1.474,13.98,2.795,20.729c8.718-4.067,14.774-11.905,21.902-18.36
		c10.007-9.065,20.062-17.994,31.34-25.348c12.932-8.427,31.973-20.469,47.484-12.579c0.603,0.312,0.835,0.848,0.854,1.402
		c5.519-1.004,11.126-1.35,16.664-0.832C592.268,112.147,609.321,115.937,609.989,127.443z M600.185,132.928
		c7.077-4.083,0.753-8.824-1.941-10.382c-6.426-3.737-13.921-5.242-21.267-5.156c-15.828,0.224-30.835,5.122-43.487,15.14
		c-12.78,10.122-20.661,22.961-30.283,35.973c-7.629,10.311-20.263,18.583-25.598,30.314c-0.019,0.036-0.053,0.069-0.068,0.104
		c1.689,3.08,3.495,6.09,5.504,8.962c2.744,3.946,6.927,7.355,8.967,11.749c4.049,8.704-2.645,17.217-5.269,25.452
		c-1.273,4.014-2.461,8.167-3.799,12.234c2.793-4.05,5.005-8.946,7.043-12.493c3.516-6.16,7.096-12.302,10.993-18.22
		c9.086-13.808,19.495-26.837,30.069-39.468c17.803-21.23,35.087-40.159,60.854-50.784
		C594.596,135.246,597.66,134.399,600.185,132.928z M562.254,113.272c-19.459-5.572-43.672,13.048-57.726,24.848
		c-8.265,6.92-15.878,14.517-23.908,21.68c-4.385,3.91-8.986,7.941-14.59,9.447c1.288,6.039,3.043,11.992,5.688,17.926
		c1.155,2.559,2.375,5.121,3.664,7.647c2.96-5.277,7.111-9.446,11.494-13.651c7.278-6.973,13.135-14.811,18.774-23.221
		c9.084-13.583,19.493-25.989,33.313-34.623C546.057,118.896,554.005,115.366,562.254,113.272z M480.736,247.058
		c3.246-10.832,9.989-20.66,1.472-30.834c-5.741-6.869-10.19-15.33-13.771-23.584c-3.713-8.617-6.927-17.562-8.65-26.853
		c-0.717-3.91-0.417-12.787-2.057-19.5c-0.402-0.346-0.601-0.935-0.451-1.645c-1.256-3.997-3.379-6.904-7.163-6.851
		c-12.348,0.172-20.111,13.928-19.842,25.503c0.201,8.843,2.624,17.079,5.572,25.315c1.355,3.789,2.728,7.544,4.032,11.298
		c0.954,3.582,2.007,7.147,2.994,10.728c1.556,5.537,2.844,11.16,3.364,16.905c0.351,3.979,0.535,9.343-1.29,13.271
		c-0.368-0.259-0.62-0.71-0.635-1.402c-0.052-1.85-0.167-3.685-0.353-5.502c-4.4,13.843-25.181,21.319-35.453,27.079
		c-11.545,6.472-24.53,12.943-33.281,23.412c-3.914,2.993-7.479,6.35-10.441,10.157c-0.216,0.294-0.45,0.623-0.685,0.952
		c3.246-6.783,7.881-13.376,9.906-15.192c9.921-8.946,21.887-15.936,33.647-21.975c10.957-5.623,30.067-12.061,35.254-25.418
		c-7.21-3.253-11.061-11.385-19.36-13.428c-8.9-2.197-17.867-0.657-26.885-1.383c-0.672-0.052-0.372-1.021,0.199-1.039
		c8.451-0.276,19.977-4.671,28.344-1.383c7.229,2.837,12.181,7.475,17.888,12.371c-1.708-9.706-5.005-18.911-8.485-28.324
		c-3.831-10.278-8.783-21.456-9.035-32.667c-0.167-6.749,0.719-14.102,3.914-20.158c0.989-1.869,2.193-3.616,3.649-5.191
		c4.167-4.481,11.327-10.261,17.92-9.049c3.882,0.71,6.927,2.854,8.968,5.882c2.911-5.276,6.711-10.173,9.202-15.659
		c1.389-3.063,2.761-6.298,3.366-9.621c0.499-2.076,0.685-4.186,0.552-6.333c-4.286-5.225-8.819-6.315-13.604-3.322
		c-15.376,8.131-26.268,25.245-34.25,40.887c-0.537,1.056-1.055,2.094-1.558,3.114c-7.194,14.586-12.397,32.115-23.491,44.209
		c-5.337,5.814-11.361,10.848-16.947,16.384c-4.719,4.69-11.211,10.348-13.602,17.027c0.015,1.92,0.3,3.806,0.986,5.658
		c1.74,4.792,4.25,9.205,6.041,13.963c0.535,1.385-1.556,2.977-2.444,1.575c-3.497-5.502-8.081-12.907-8.183-19.777
		c-0.133-8.893,3.766-17.043,4.787-25.815c1.087-9.395,1.639-28.515-11.477-29.38c-3.833-0.243-10.039-0.415-13.086,2.63
		c-4.65,4.637-1.387,10.001-1.706,15.226c-1.021,17.252-10.691,33.775-17,49.469c-7.244,18.047-14.638,36.094-9.972,54.988
		c0.537,2.942,1.355,5.762,2.561,8.462c-0.068,0.121-0.15,0.241-0.267,0.311c-1.539-1.937-2.928-4.048-4.402-6.124
		c-0.852-1.921-1.522-3.859-2.024-5.815c-18.725,19.086-4.804,54.175,16.981,64.886c10.845,5.329,23.46,7.856,35.29,4.639
		c8.8-2.406,27.959-12.666,24.595-25.091c-0.067-0.276-0.084-0.536-0.067-0.796c-0.199,2.613-18.22,5.069-20.563,5.33
		c-5.339,0.604-10.809,0.881-16.182,0.778c-10.809-0.242-22.553-2.821-29.581-12.095c-0.567-1.056-2.51-4.793-3.747-8.149
		c1.491,2.352,3.495,4.533,6.274,6.435c8.117,5.556,17.3,8.289,27.039,8.41c18.22,0.242,35.153-4.257,50.73-14.102
		c15.228-9.603,30.755-19.517,45.53-29.847c7.16-5,14.573-10.486,19.776-17.737C475.28,265.312,477.924,256.419,480.736,247.058z
		 M351.681,365.91c-7.83-0.518-15.577-2.854-22.771-6.781c-2.711-1.489-5.438-3.547-8.049-6.022
		c-7.16,12.545-16.245,23.981-23.659,36.388c-8.517,14.241-16.247,28.948-24.513,43.344c-4.25,7.406-9.469,18.358-19.074,17.717
		c-10.088-0.692-10.942-12.51-15.209-19.188c-0.436-0.676,0.518-1.506,1.055-0.882c2.76,3.253,3.616,7.422,6.24,10.711
		c1.307,1.626,2.628,2.802,3.916,3.616c-3.931-7.509-4.216-16.628-4.753-25.019c-0.368-5.902-0.434-12.268-2.159-17.944
		c-1.704-5.605-7.576-20.642-16.899-12.059c-8.399,7.734-10.591,20.018-11.845,31.058c-0.736,6.315-0.116,12.544,0.436,18.773
		c2.275,15.469,7.28,30.868,16.7,42.894c8.35,10.641,20.094,17.337,33.313,10.814c8.784-4.343,16.262-10.762,23.157-17.821
		c15.174-15.556,27.037-34.191,37.043-53.639C334.08,403.493,342.028,384.131,351.681,365.91z"/>
	<path fill="none" d="M598.244,122.546c2.694,1.558,9.018,6.299,1.941,10.382c-2.525,1.471-5.588,2.318-8.282,3.426
		c-25.767,10.625-43.05,29.554-60.854,50.784c-10.574,12.631-20.983,25.66-30.069,39.468c-3.897,5.918-7.477,12.06-10.993,18.22
		c-2.039,3.547-4.25,8.443-7.043,12.493c1.338-4.067,2.527-8.219,3.799-12.234c2.624-8.235,9.319-16.749,5.269-25.452
		c-2.04-4.395-6.223-7.804-8.967-11.749c-2.009-2.872-3.815-5.882-5.504-8.962c0.015-0.035,0.049-0.068,0.068-0.104
		c5.335-11.732,17.969-20.003,25.598-30.314c9.623-13.012,17.503-25.851,30.283-35.973c12.652-10.018,27.659-14.915,43.487-15.14
		C584.322,117.304,591.818,118.81,598.244,122.546z"/>
	<path fill="none" d="M504.528,138.119c14.055-11.8,38.267-30.419,57.726-24.848c-8.249,2.094-16.197,5.624-23.291,10.053
		c-13.82,8.633-24.229,21.039-33.313,34.623c-5.639,8.41-11.496,16.248-18.774,23.221c-4.383,4.205-8.534,8.374-11.494,13.651
		c-1.29-2.526-2.51-5.087-3.664-7.647c-2.645-5.935-4.4-11.887-5.688-17.926c5.604-1.506,10.205-5.537,14.59-9.447
		C488.65,152.636,496.262,145.04,504.528,138.119z"/>
	<path fill="none" d="M482.208,216.224c8.517,10.174,1.774,20.003-1.472,30.834c-2.812,9.361-5.455,18.254-11.16,26.212
		c-5.204,7.251-12.617,12.737-19.776,17.737c-14.776,10.329-30.302,20.244-45.53,29.847c-15.577,9.845-32.51,14.344-50.73,14.102
		c-9.739-0.121-18.922-2.854-27.039-8.41c-2.778-1.903-4.783-4.083-6.274-6.435c1.237,3.356,3.18,7.093,3.747,8.149
		c7.028,9.274,18.772,11.853,29.581,12.095c5.373,0.103,10.843-0.174,16.182-0.778c2.343-0.261,20.364-2.717,20.563-5.33
		c-0.017,0.26,0,0.52,0.067,0.796c3.364,12.424-15.795,22.684-24.595,25.091c-11.83,3.218-24.445,0.691-35.29-4.639
		c-21.785-10.71-35.706-45.8-16.981-64.886c0.501,1.956,1.171,3.893,2.024,5.815c1.474,2.076,2.863,4.187,4.402,6.124
		c0.116-0.069,0.199-0.19,0.267-0.311c-1.205-2.699-2.024-5.52-2.561-8.462c-4.667-18.894,2.728-36.942,9.972-54.988
		c6.309-15.695,15.979-32.218,17-49.469c0.319-5.225-2.944-10.589,1.706-15.226c3.047-3.045,9.253-2.873,13.086-2.63
		c13.116,0.865,12.564,19.985,11.477,29.38c-1.021,8.772-4.92,16.922-4.787,25.815c0.101,6.871,4.686,14.275,8.183,19.777
		c0.888,1.402,2.979-0.19,2.444-1.575c-1.791-4.758-4.301-9.17-6.041-13.963c-0.685-1.852-0.971-3.738-0.986-5.658
		c2.391-6.679,8.883-12.337,13.602-17.027c5.586-5.536,11.61-10.571,16.947-16.384c11.094-12.095,16.298-29.623,23.491-44.209
		c0.503-1.02,1.021-2.058,1.558-3.114l4.197,2.405c-3.195,6.057-4.081,13.41-3.914,20.158c0.252,11.212,5.204,22.39,9.035,32.667
		c3.48,9.413,6.777,18.618,8.485,28.324c-5.707-4.896-10.659-9.533-17.888-12.371c-8.367-3.288-19.893,1.107-28.344,1.383
		c-0.571,0.018-0.871,0.987-0.199,1.039c9.018,0.727,17.986-0.814,26.885,1.383c8.299,2.042,12.149,10.175,19.36,13.428
		c-5.187,13.356-24.297,19.794-35.254,25.418c-11.761,6.039-23.726,13.029-33.647,21.975c-2.025,1.816-6.66,8.409-9.906,15.192
		c0.235-0.329,0.469-0.658,0.685-0.952c2.962-3.807,6.527-7.164,10.441-10.157c8.751-10.468,21.736-16.94,33.281-23.412
		c10.272-5.76,31.053-13.236,35.453-27.079c0.186,1.817,0.3,3.652,0.353,5.502c0.015,0.693,0.267,1.143,0.635,1.402
		c1.825-3.928,1.641-9.292,1.29-13.271c-0.52-5.745-1.808-11.368-3.364-16.905c-0.987-3.582-2.04-7.147-2.994-10.728
		c-1.305-3.754-2.677-7.509-4.032-11.298c-2.947-8.236-5.371-16.473-5.572-25.315c-0.269-11.575,7.494-25.331,19.842-25.503
		c3.784-0.053,5.908,2.854,7.163,6.851c-0.15,0.71,0.049,1.298,0.451,1.645c1.641,6.713,1.34,15.59,2.057,19.5
		c1.723,9.291,4.937,18.236,8.65,26.853C472.018,200.894,476.467,209.355,482.208,216.224z"/>
	<path fill="none" d="M473.141,106.939c0.133,2.147-0.053,4.257-0.552,6.333c-0.605,3.323-1.977,6.558-3.366,9.621
		c-2.491,5.485-6.291,10.383-9.202,15.659c-2.041-3.028-5.085-5.173-8.968-5.882c-6.593-1.212-13.752,4.568-17.92,9.049
		c-1.457,1.575-2.66,3.322-3.649,5.191l-4.197-2.405c7.982-15.642,18.874-32.755,34.25-40.887
		C464.321,100.624,468.855,101.714,473.141,106.939z"/>
</g>
</svg>
