<?xml version="1.0" encoding="utf-8"?>
<!-- Generator: Adobe Illustrator 17.0.0, SVG Export Plug-In . SVG Version: 6.00 Build 0)  -->
<!DOCTYPE svg PUBLIC "-//W3C//DTD SVG 1.1//EN" "http://www.w3.org/Graphics/SVG/1.1/DTD/svg11.dtd">
<svg version="1.1" id="Layer_1" xmlns="http://www.w3.org/2000/svg" xmlns:xlink="http://www.w3.org/1999/xlink" x="0px" y="0px"
	 width="800px" height="600px" viewBox="0 0 800 600" enable-background="new 0 0 800 600" xml:space="preserve">
<path fill="#1E1E1D" d="M309.778,240.828c-3.078,0-15.713,4.374-17.172,6.643c-1.458,2.268-4.698,2.43-7.128,2.43
	c-2.43,0-13.771,4.698-15.391,11.664c-1.62,6.967-1.457,18.793,1.134,23.491c2.592,4.698,4.86,10.206,1.944,11.826
	c-2.917,1.62-3.101,1.679-4.464,3.617c-1.364,1.939-1.724,5.239,0.287,6.963c2.01,1.724,2.871,2.226,2.871,2.226
	s-2.368,3.518-2.44,4.164c-0.072,0.646,1.435,2.799,2.943,3.086c1.507,0.287,1.794,0.287,1.794,0.574
	c0,0.288-2.154,5.313-1.149,6.03c1.005,0.718,4.164,1.22,3.661,2.01c-0.503,0.79-0.144,7.25,2.799,8.04
	c2.943,0.789,5.313-0.072,8.327,0c3.015,0.071,5.814-0.288,5.743,0c-0.071,0.287-2.728,6.389-7.25,8.542
	c-4.522,2.153-9.116,2.873-10.05,1.796c-0.933-1.077-1.435-2.226-0.861-3.158c0.573-0.934,0.143-1.149-0.718-0.934
	c-0.861,0.215-3.949,3.947-1.867,5.742c2.082,1.795,3.158,2.943,8.255,3.016c5.097,0.071,15.825-2.242,15.434-2.011
	c-4,2.371-16.731,2.851-22.396,4.379c-4.522,1.221-12.993,3.158-15.434,3.733c-2.441,0.574-10.626,1.508-16.583,2.656
	c-5.958,1.148-16.295,3.876-16.223,5.168c0.072,1.292,0.718,1.651,1.795,1.795c1.078,0.144,2.153,0.287,2.943,1.077
	c0.79,0.789,1.795,1.291,3.303,1.005c1.507-0.287,6.891-1.579,9.117-1.436c2.225,0.144,4.522,0.79,4.522,1.077
	c0,0.287-5.311,4.809-9.619,8.542c-4.308,3.733-9.834,8.256-9.978,9.835c-0.144,1.579-1.579,4.451-1.436,6.174
	c0.144,1.723,0.646,2.225,1.938,1.579c1.292-0.646,1.507-0.646,1.651-0.072c0.144,0.574,0.431,2.585,3.948,2.226
	c3.518-0.358,5.168-1.651,5.241-1.076c0.071,0.574-1.22,2.153,0.933,2.009c2.153-0.143,9.978-4.02,13.854-8.255
	c3.877-4.234,4.882-6.03,7.035-6.102c2.153-0.071,31.729-2.297,40.846-4.091c9.116-1.795,11.342-3.015,14.142-6.317
	c2.8-3.303,5.671-5.6,7.682-8.04c2.01-2.44,7.754-6.819,7.968-6.174c0.215,0.647-2.872,9.835-3.087,12.347
	c-0.215,2.513-0.574,10.696,11.557,13.424c12.132,2.728,21.679,2.656,24.479,1.651c2.799-1.005,10.695-3.445,11.485-6.676
	c0.79-3.23,0.718-6.964,1.077-6.532c0.359,0.431,3.661,2.8,8.543,3.302c4.882,0.502,19.239-0.432,23.833-3.876
	c4.594-3.446,12.491-10.051,12.993-10.696c0.502-0.645,2.082-0.646,2.226,0.144c0.143,0.789,9.619,11.988,16.152,16.08
	c6.533,4.091,14.716,8.9,22.756,10.911c8.04,2.01,28.572,6.173,33.022,5.24c4.45-0.934,6.102-0.287,7.466-0.934
	c1.363-0.646,2.01-2.871,3.23-3.876c1.22-1.005,2.512-1.65,2.655-3.158c0.144-1.508-1.723-11.63-4.522-17.803
	c-2.8-6.173-2.8-5.958-2.8-6.173c0-0.216,10.482-3.16,10.841-3.878c0.358-0.717,8.47-15.577,10.408-21.319
	c1.938-5.743,12.49-35.821,13.208-41.708c0.719-5.886,1.436-10.911,1.293-12.563c-0.144-1.651-0.359-2.44-0.072-2.44
	s6.246-1.077,8.255-3.589c2.01-2.514,3.231-4.235-1.076-5.6c-4.307-1.364-11.557-3.087-15.074-1.149
	c-3.518,1.938-4.81,4.954-4.81,6.246c0,1.292-0.431,1.65-1.221,2.153c-0.79,0.503-3.446,2.369-4.595,2.01
	c-1.148-0.358-3.445-9.189-4.092-9.692c-0.646-0.502-1.794-0.07-1.723,1.796c0.072,1.865,0.862,12.131-0.287,12.49
	c-1.148,0.358-2.01,2.011-1.507,4.092c0.503,2.081,3.015,6.748,4.378,8.901c1.364,2.153,2.369,2.727,1.939,2.942
	c-0.431,0.216-4.379,3.015-8.039,5.743c-3.661,2.727-12.779,12.419-14.43,15.578c-1.651,3.158-1.148,7.394-1.651,7.608
	c-0.502,0.216-4.379-0.287-5.168-1.077c-0.79-0.789-6.461-10.768-10.48-15.936c-4.02-5.168-4.307-5.385-4.307-5.814
	c0-0.431,2.656-11.916,2.369-13.208c-0.287-1.292-3.374-1.94-5.24-1.006s-9.404,10.193-11.773,13.496
	c-2.369,3.303-2.225,3.947-1.866,4.379c0.359,0.431,4.379,5.527,4.522,6.963c0.144,1.435-1.005,3.732-1.938,3.518
	c-0.933-0.216-7.825-10.768-17.946-13.567c-10.121-2.8-12.49-1.651-12.563-2.513c-0.072-0.861,0.789-2.584-2.01-2.368
	c-2.8,0.215-3.158,1.865-3.805,3.158c-0.646,1.292,1.579,1.077-1.723,1.939c-3.302,0.861-8.04,3.948-12.849,9.476
	c-4.81,5.526-11.486,17.156-18.521,16.653c-7.035-0.502-18.664-4.666-20.458-4.881c-1.794-0.216-3.23-0.215-4.02-1.579
	c-0.789-1.364,0.646-12.348-0.287-20.244c-0.934-7.896-2.441-12.061-2.083-12.635c0.359-0.574-0.574-15.648-3.948-22.181
	c-3.375-6.533-6.03-13.065-12.419-18.233c-6.389-5.169-10.984-8.327-13.927-10.051c-2.943-1.723-5.383-2.153-6.891-2.153
	c-1.508,0-4.737,0.359-3.876-0.287c0.861-0.645,3.805-0.574,4.091-1.221c0.287-0.646,0.718-1.077-1.005-0.933
	c-1.723,0.144-7.25,0.861-8.039,1.436c-0.789,0.574-1.004,0.215-0.287-0.861c0.718-1.077,3.446-4.451,4.738-5.097
	c1.292-0.645,1.292-2.082,0.646-2.226c-0.646-0.143-3.589,0.79-4.594,1.866c-1.005,1.077-5.599,5.528-6.388,6.748
	C311.7,240.056,309.778,240.828,309.778,240.828L309.778,240.828z"/>
<path fill="#FFFFFF" d="M292.319,249.746c0.79-0.287,2.728-1.865,4.236-3.015c1.507-1.148,5.024-2.8,7.465-2.871
	c2.441-0.072,8.112-0.861,8.471-1.221c0.358-0.358,3.445-6.245,3.588-5.455c0.144,0.79-2.512,4.809-1.148,4.737
	c1.363-0.071,5.025-2.298,6.317-2.153c1.292,0.144,5.886,0.861,8.901,2.153c3.015,1.292,14.5,6.818,19.741,14.142
	c5.241,7.322,8.687,10.768,10.05,16.869c1.364,6.102,3.158,11.414,2.369,11.414c-0.789,0-10.48-17.372-13.495-21.966
	c-3.015-4.594-13.352-14.142-15.792-15.864c-2.441-1.723-5.6-2.441-4.451-0.934c1.149,1.508,10.912,5.527,17.157,15.506
	c6.245,9.978,12.419,20.961,13.998,26.632c1.579,5.671,4.235,13.855,4.02,22.613c-0.215,8.757-0.575,11.342-2.01,11.342
	c-1.435,0-12.347-4.738-14.715-4.595c-2.369,0.143-9.476,4.091-10.48,5.024c-1.005,0.934,0.071-1.292,0.861-3.158
	c0.79-1.866,5.096-17.3,5.743-22.469c0.647-5.168,0.502-23.258-3.159-30.58c-3.661-7.322-9.045-15.003-10.408-16.08
	c-1.364-1.076-2.154,0.072-2.154,0.072s10.265,12.849,10.983,20.243c0.718,7.393,3.087,21.32,1.508,30.796
	c-1.579,9.476-5.169,19.811-5.169,21.033c0,1.22,0,1.436-0.718,2.226c-0.718,0.789-8.04,6.675-8.542,6.388
	s-0.287-13.423-2.082-18.305c-1.795-4.881-2.728-6.963-3.446-7.824c-0.718-0.861-0.933-3.59-0.79-6.317
	c0.144-2.728,0.861-16.009,0.215-21.536c-0.646-5.526-4.954-17.3-10.481-20.889c-5.528-3.589-7.825-4.81-11.988-5.025
	C292.749,250.465,292.319,249.746,292.319,249.746L292.319,249.746z"/>
<path fill="#FFFFFF" d="M310.696,305.38c-0.503,0-7.394-16.367-8.255-23.401c-0.862-7.035-1.293-15.578-0.574-20.746
	c0.718-5.168,1.364-6.819,1.866-6.605c0.503,0.216,8.758,3.303,11.127,14.788c2.368,11.485,1.507,20.745,1.22,24.622
	c-0.287,3.876,0.789,11.989,1.292,16.08c0.503,4.091,0.861,6.389,0.216,5.886C316.94,315.502,310.696,305.38,310.696,305.38
	L310.696,305.38z"/>
<path fill="#FFFFFF" d="M300.861,282.194c0.574,2.728,7.825,24.048,12.275,31.011c4.451,6.963,5.814,7.465,6.245,9.044
	c0.431,1.58,2.655,3.661,2.369,2.513c-0.287-1.148-2.01-9.978-2.369-11.557c-0.359-1.58-0.287-3.518,0.143-2.943
	c0.431,0.574,4.02,5.742,4.164,11.198c0.143,5.455,0.43,9.403-1.292,12.347c-1.723,2.943-2.656,3.303-3.015,2.943
	c-0.359-0.358-6.46-3.876-8.255-5.671c-1.795-1.795-1.866-3.374-2.584-3.589c-0.718-0.216-10.41,3.948-18.88,3.948
	c-8.47,0-11.414-1.22-11.342-3.445c0.072-2.226,2.872-5.17,4.81-8.399c1.939-3.229,2.154-3.947,2.44-4.594
	c0.287-0.646-0.789-1.364-0.789-1.364s-2.655,3.446-5.312,1.867c-2.656-1.58-4.02-3.015-5.097-3.661
	c-1.077-0.646-0.071-1.078-0.359-2.37c-0.288-1.291-2.44-2.44-3.876-4.378c-1.436-1.938-0.502-3.016,0.861-4.021
	c1.364-1.005,5.239-4.092,5.527-7.393c0.288-3.303-1.148-6.677-1.148-7.898c0-1.22,0.43-9.69,3.804-10.552
	c3.374-0.861,5.527-0.646,7.537,0.574c2.01,1.221,3.589,1.435,3.733,1.148c0.143-0.287-0.287-2.01-2.943-3.158
	c-2.656-1.148-5.743-1.65-7.753-1.148c-2.01,0.503-2.082,0.215-2.082,0.215s2.943-4.451,3.518-5.456
	c0.574-1.004,7.178-8.326,10.696-9.762c3.518-1.436,4.81-1.437,6.819-2.082c2.01-0.647,2.083-1.148,2.153-0.718
	c0.072,0.431-1.794,3.158-1.794,9.763c0,6.604-0.575,2.655,0.144,7.681C299.927,277.313,300.861,282.194,300.861,282.194
	L300.861,282.194z"/>
<path fill="#1E1E1D" d="M297.271,280.398c0,0-4.235,0.431-7.178,0.503c-2.943,0.072-8.901,0.718-9.978,3.23
	c-1.077,2.513-2.369,7.896-1.723,11.987s1.221,5.528,1.866,5.743c0.646,0.216,0.862,0.574,0.79-0.215
	c-0.072-0.79-1.867-5.814-1.508-7.322c0.359-1.508,1.364-2.514,1.436-1.867c0.072,0.646,1.794,3.303,3.374,3.303
	s2.944-1.292,3.374-2.153c0.43-0.861,0.574-1.938-0.431-1.723c-1.004,0.215-5.455-0.503-4.307-2.298
	c1.148-1.794,5.313-3.66,6.461-2.799c1.148,0.861,1.076,4.163,0.215,7.321c-0.861,3.159-2.297,3.877-1.292,4.235
	c1.005,0.359,1.507,0.359,2.44-2.297c0.934-2.656,1.651-8.614,1.293-9.332c-0.359-0.718,0.144-1.508,1.22-1.148
	c1.076,0.359,1.722-0.719,1.794,0.789c0.072,1.509-0.645,10.05,0.145,10.122c0.789,0.071,2.942-13.424,3.014-14.142
	C298.348,281.619,297.63,280.471,297.271,280.398L297.271,280.398z"/>
<path fill="#FFFFFF" d="M279.828,288.726c0,0,0.574-4.522,5.024-5.312c4.45-0.79,9.116-0.79,9.045-0.503
	c-0.072,0.287-8.183,1.723-10.408,3.087c-2.226,1.363-2.729,3.948-3.231,3.589C279.756,289.229,279.828,288.726,279.828,288.726
	L279.828,288.726z"/>
<path fill="#FFFFFF" d="M296.123,254.27c0,0-14.07,5.742-18.52,15.792c-4.451,10.05-3.949,13.998-4.02,14.932
	c-0.072,0.934-2.297-4.02-2.225-8.112c0.071-4.092,0.144-6.605,1.507-11.342c1.363-4.738,5.886-13.854,10.337-14.142
	c4.451-0.287,9.906,1.005,12.993,1.221c3.087,0.216,3.661,0.359,3.374,0.574c-0.287,0.215-3.518,0.861-3.518,0.861l-0.934,0.503
	L296.123,254.27L296.123,254.27z"/>
<path fill="#FFFFFF" d="M272.102,314.483c0.52,0.557,2.449,1.893,3.785,2.152c1.336,0.259,2.45,0.111,1.893-0.557
	c-0.557-0.668-4.453-3.378-5.01-2.896S272.102,314.483,272.102,314.483L272.102,314.483z"/>
<path fill="#FFFFFF" d="M281.863,317.935c0,0-4.305-0.186-5.678,0.965c-1.374,1.15-1.967,3.118-0.705,3.897s1.781,0.668,2.301,0.185
	C278.3,322.5,283.124,318.12,281.863,317.935L281.863,317.935z"/>
<path fill="#FFFFFF" d="M297.919,332.243c-0.266,1.592-4.643,9.02-8.755,11.009c-4.111,1.989-7.959,3.184-6.897,3.449
	c1.061,0.265,14.192-2.387,16.712-2.918c2.52-0.531,4.113-3.581,5.704-5.04c1.591-1.46,6.367-4.643,5.968-5.174
	c-0.398-0.53-2.254-4.244-3.316-3.581C306.275,330.651,297.919,332.243,297.919,332.243L297.919,332.243z"/>
<path fill="#FFFFFF" d="M312.642,335.824c-1.725,0.796-5.969,3.979-7.826,6.765c-1.857,2.786,0.398,5.04-11.142,7.03
	c-11.539,1.99-26.926,5.439-29.181,6.367c-2.255,0.928-11.673,1.193-18.04,2.255c-6.367,1.061-14.988,3.581-14.325,4.244
	c0.663,0.664,16.58-4.111,16.58-3.184c0,0.929-11.274,4.378-10.611,4.775c0.663,0.398,6.101-1.857,7.958-0.796
	c1.857,1.062,2.918,2.122,3.582,1.459c0.664-0.663,11.275-4.908,18.703-5.173c7.428-0.266,26.528-2.387,31.701-4.907
	c5.173-2.521,9.949-9.152,13-11.54c3.05-2.388,6.366-5.439,5.968-5.704C318.611,337.15,312.642,335.824,312.642,335.824
	L312.642,335.824z"/>
<path fill="#FFFFFF" d="M335.722,326.142c-3.581,2.255-19.631,16.448-23.61,21.754s-6.234,8.355-23.477,11.406
	c-17.244,3.051-31.967,4.112-35.416,6.5c-3.448,2.388-20.162,14.059-18.968,14.458c1.194,0.398,5.306-3.449,5.836-2.786
	c0.531,0.663-9.284,7.296-10.08,9.285c-0.796,1.99-1.857,3.052-0.266,3.185c1.591,0.132,2.255,1.325,2.918,1.855
	c0.663,0.531,4.377,0,7.163-0.928c2.786-0.928,4.908-3.848,5.704-2.918c0.796,0.928-2.52,3.714-1.326,3.714
	c1.193,0,9.55-5.438,10.876-7.959c1.327-2.521,2.786-5.172,5.837-5.306c3.051-0.133,44.037-1.724,50.404-7.162
	c6.367-5.438,18.968-17.376,22.549-19.764c3.581-2.388,9.816-6.235,11.939-6.102c2.122,0.133,3.979-0.266,3.714,0.663
	c-0.265,0.928-0.928,1.724-1.724,1.592c-0.796-0.133-2.918-0.93-2.786,0.663c0.133,1.592,3.184,8.489,6.898,8.489
	c3.713,0,5.969-0.797,9.55-10.479c3.581-9.683,6.5-16.978,5.438-18.436c-1.061-1.459-5.306-5.572-13.264-6.367
	C345.671,320.703,335.722,326.142,335.722,326.142L335.722,326.142z"/>
<path fill="#FFFFFF" d="M334.928,353.73c0,0-0.266,3.052-1.459,7.031c-1.193,3.978-3.448,7.162-2.122,7.029
	c1.326-0.133,6.234-3.448,7.56-7.029c1.326-3.582,1.326-10.612,1.326-10.612L334.928,353.73L334.928,353.73z"/>
<path fill="#FFFFFF" d="M342.355,348.69c0,0-0.929,10.347-2.123,12.601c-1.193,2.256-3.448,5.97-5.835,7.163
	c-2.388,1.194-5.438,2.918-2.123,6.102c3.316,3.185,11.672,7.693,20.161,7.826c8.489,0.133,14.989-1.327,18.04-3.581
	c3.051-2.255,6.367-7.693,2.918-11.407c-3.449-3.714-4.245-4.908-5.173-6.367c-0.928-1.459,4.244-32.1,3.581-32.365
	c-0.663-0.265-2.52-0.132-2.52-0.132s-5.571,16.713-7.561,20.692c-1.99,3.979-5.704,10.876-8.224,10.61
	c-2.52-0.265-6.499-3.979-8.224-6.765C343.549,350.283,342.355,348.69,342.355,348.69L342.355,348.69z"/>
<path fill="#FFFFFF" d="M373.793,329.723c1.061,0.266,16.846,5.041,20.294,3.582c3.449-1.459,11.805-8.224,13.529-11.54
	c1.724-3.316,4.377-7.694,5.173-8.092c0.796-0.398,0.266,9.948,1.725,19.366c1.459,9.418,6.367,23.212,6.367,23.212
	s-8.887,8.224-15.254,11.806c-6.367,3.581-12.999,5.173-19.233,3.847c-6.234-1.326-11.009-3.581-10.876-4.377
	c0.132-0.796-2.785-3.051-4.377-5.439c-1.592-2.388-0.398-6.234-0.398-8.755C370.743,350.814,373.793,329.723,373.793,329.723
	L373.793,329.723z"/>
<path fill="#FFFFFF" d="M416.903,311.152c0,0-1.989,12.203-0.398,18.04c1.591,5.836,3.449,20.295,3.979,19.764
	c0.531-0.531-0.132-18.968,0.398-25.468c0.531-6.499,2.652-16.315,2.122-16.447C422.474,306.908,416.903,311.152,416.903,311.152
	L416.903,311.152z"/>
<path fill="#FFFFFF" d="M479.377,354.129c-3.714-5.704-12.999-22.285-15.254-23.743c-2.254-1.459-3.448-6.765-4.908-8.755
	c-1.459-1.989-1.193-7.958-12.335-12.335c-11.142-4.378-15.918-4.378-16.713-3.582c-0.795,0.797-2.388,1.593-1.326,2.786
	c1.061,1.193,0.531,3.581-0.132,4.643c-0.664,1.06-1.195,0.663-0.929,1.193c0.266,0.531,1.725,2.388,0.531,4.377
	c-1.194,1.99-1.725,2.521-1.46,2.918c0.266,0.398,1.857,2.122,0.796,3.449c-1.061,1.326-1.724,0.796-1.459,1.725
	c0.266,0.928,0.929,3.978,0,4.907c-0.928,0.929-1.327,1.592-0.796,2.122c0.531,0.531,1.459,3.847,0.531,5.04
	c-0.928,1.194,0.531,3.317,0.531,3.317s0.132,1.591-0.266,2.652c-0.398,1.062,1.857,3.847,1.99,4.907
	c0.133,1.061-0.928,2.388-1.194,3.051c-0.266,0.663,0.664,1.06,1.061,2.653c0.398,1.592,0.133,3.051,0.531,3.316
	c0.398,0.266,11.407,14.325,25.998,20.957c14.591,6.632,14.061,6.499,24.142,8.091c10.081,1.593,19.366,0.929,20.958,1.327
	c1.591,0.397,3.713-0.133,4.111-1.062c0.397-0.929,1.857-4.377,2.785-5.04c0.929-0.663,2.785-6.633-6.499-27.855
	c-9.285-21.223-24.672-45.098-26.13-46.955c-1.459-1.857-2.52-2.653-3.979-0.796c-1.459,1.857-5.969,3.449-5.704,5.439
	c0.266,1.99,3.714,9.683,4.775,12.468c1.061,2.786,1.459,3.185,3.051,4.245c1.592,1.062,2.918,2.256,2.653,3.847
	c-0.266,1.592-3.448,6.366,5.571,18.702c9.02,12.336,14.458,19.499,12.866,19.499c-1.592,0-9.683-10.744-10.876-12.866
	C481.102,356.648,479.377,354.129,479.377,354.129L479.377,354.129z"/>
<path fill="#FFFFFF" d="M467.573,330.916c3.184,0.797,5.704,0.531,4.908,2.255c-0.796,1.725,0.663,6.633-0.663,5.571
	C470.491,337.682,467.573,330.916,467.573,330.916L467.573,330.916z"/>
<path fill="#FFFFFF" d="M463.329,317.52c-0.071,0.041-0.161,0.189-0.256,0.418c-0.597,1.421-1.44,5.978,0.388,7.806
	c2.123,2.122,3.714,2.653,3.847,2.122C467.441,327.335,465.584,316.192,463.329,317.52L463.329,317.52z"/>
<path fill="#FFFFFF" d="M474.47,293.379c0,0-8.489,6.233-11.407,9.682c-2.918,3.449-3.05,2.785-1.724,5.041
	c1.326,2.255,2.254,1.725,2.254,1.194c0-0.531,0.398-1.99,2.786-3.185c2.388-1.193,6.367-2.255,6.632-4.377
	C473.276,299.612,474.47,293.379,474.47,293.379L474.47,293.379z"/>
<path fill="#FFFFFF" d="M535.487,278.257c-0.531,4.775-3.582,28.65-8.755,42.445c-5.173,13.795-11.673,31.702-13.928,32.63
	c-2.255,0.929-8.621,4.643-10.346,2.653c-1.725-1.989-8.357-21.754-9.948-23.479c-1.592-1.724-2.785-4.509-2.122-3.978
	c0.663,0.53,6.102,3.714,6.632,2.52c0.53-1.194,1.592-11.938,7.959-18.57c6.367-6.632,13.662-12.866,15.254-12.866
	c1.591,0,1.326-1.856,0-3.316c-1.327-1.459-1.327-2.652-0.797-2.652c0.531,0,4.245-2.255,5.306-6.367
	c1.062-4.111,0.001-8.754,0.929-9.02c0.929-0.265,0.663-2.255,2.123-2.255C529.253,276.002,535.487,278.257,535.487,278.257
	L535.487,278.257z"/>
<path fill="#FFFFFF" d="M523.682,279.053c0,0-0.133,12.07-3.714,12.602c-3.581,0.53-4.245-1.99-5.438-4.245
	c-1.193-2.255,1.062-4.642,2.388-6.233C518.243,279.583,523.682,279.053,523.682,279.053L523.682,279.053z"/>
<path fill="#FFFFFF" d="M529.518,269.768c-0.265,1.326-1.061,3.978-0.398,3.978c0.664,0,4.776,2.122,7.694,1.99
	c2.918-0.134,9.948-3.715,9.948-4.112c0-0.398-2.787-3.183-7.693-3.316C534.16,268.175,529.518,269.768,529.518,269.768
	L529.518,269.768z"/>
<path fill="#FFFFFF" d="M516.121,275.736c0,0-0.265,3.58,0.398,3.979c0.664,0.398,2.785-0.398,1.725-1.326
	c-1.061-0.929-1.725-2.918-1.725-2.918L516.121,275.736L516.121,275.736z"/>
<path fill="#FFFFFF" d="M427.42,301.802c-0.395,0.435-1.442,1.967-1.136,2.01c0.306,0.044,1.179-0.305,1.878-0.349
	c0.699-0.045,0.699-0.962,0.524-1.18C428.512,302.065,427.857,301.321,427.42,301.802L427.42,301.802z"/>
<path fill="#FFFFFF" d="M425.804,307.524c0.218,0,2.359,0.655,2.271,2.665c-0.088,2.009-0.043,2.358-1.354,2.664
	c-1.311,0.306-1.704,0.306-1.704-0.131C425.018,312.286,425.804,307.524,425.804,307.524L425.804,307.524z"/>
<path fill="#FFFFFF" d="M424.799,314.339c0,0-2.534,9.741-1.573,10.353c0.961,0.611,3.32-0.436,3.276-0.961
	c-0.044-0.524-1.223-1.922-2.097-2.84c-0.874-0.917-0.786-1.66-0.218-1.66c0.567,0,3.232,0.263,3.232-1.878
	C427.42,315.213,424.799,314.339,424.799,314.339L424.799,314.339z"/>
<path fill="#FFFFFF" d="M422.877,326.261c0,0-0.917,4.674-0.35,4.849c0.567,0.174,2.621,0.087,2.752-0.83
	c0.131-0.918-0.174-2.622-1.005-3.408C423.445,326.085,422.877,326.261,422.877,326.261L422.877,326.261z"/>
<path fill="#FFFFFF" d="M422.004,332.81c0,0-0.306,5.548,0.262,5.548c0.567,0,1.79,0.263,2.009-0.698
	c0.218-0.962,0.7-2.884-0.437-4.063C422.703,332.417,422.004,332.81,422.004,332.81L422.004,332.81z"/>
<path fill="#FFFFFF" d="M421.829,340.235c0,0-0.043,4.368,0.83,4.368c0.874,0,2.446,0.088,2.402-0.961
	c-0.043-1.048-0.699-2.62-1.921-3.319C421.917,339.625,421.829,340.235,421.829,340.235L421.829,340.235z"/>
<path fill="#FFFFFF" d="M422.222,345.649c0,0,1.047,6.378,2.489,6.115c1.442-0.262,2.271-1.748,1.878-2.533
	c-0.392-0.786-2.271-2.927-2.839-3.232C423.183,345.692,422.222,345.649,422.222,345.649L422.222,345.649z"/>
<path fill="#FFFFFF" d="M423.576,353.512c0,0,1.135,5.679,2.184,5.111c1.049-0.568,1.878-1.878,1.137-2.883
	C426.154,354.735,423.576,353.512,423.576,353.512L423.576,353.512z"/>
<path fill="#1E1E1D" d="M245.301,380.796c0,0-1.669,0.288-3.622,0.797c-3.07,0.8-6.838,2.146-5.906,3.776
	C237.298,388.037,245.301,380.796,245.301,380.796L245.301,380.796z"/>
</svg>
