<?xml version="1.0" encoding="utf-8"?>
<!-- Generator: Adobe Illustrator 17.0.0, SVG Export Plug-In . SVG Version: 6.00 Build 0)  -->
<!DOCTYPE svg PUBLIC "-//W3C//DTD SVG 1.1//EN" "http://www.w3.org/Graphics/SVG/1.1/DTD/svg11.dtd">
<svg version="1.1" id="Layer_1" xmlns="http://www.w3.org/2000/svg" xmlns:xlink="http://www.w3.org/1999/xlink" x="0px" y="0px"
	 width="800px" height="600px" viewBox="0 0 800 600" enable-background="new 0 0 800 600" xml:space="preserve">
<path fill-rule="evenodd" clip-rule="evenodd" fill="#020000" d="M364.431,139.638c10.251-0.483,22.264,1.681,33.781,2.735
	c3.213,0.291,5.966,1.37,8.875,1.706c3.56,0.409,7.287-0.286,10.921,1.023c2.028,0.732,3.622,2.568,5.799,3.411
	c3.2,1.24,6.934,2.189,10.239,3.417c3.647,1.346,7.591,2.016,10.246,3.411c2.382,1.253,4.825,3.882,7.504,5.805
	c2.456,1.755,4.726,4.261,7.163,5.792c1.495,0.949,3.393,1.203,4.782,2.053c1.829,1.123,3.256,3.219,5.116,4.435
	c1.309,0.856,2.859,1.234,4.099,2.046c4.404,2.89,8.41,6.184,12.627,9.557c4.348,3.492,7.281,6.586,11.257,10.921
	c17.353,18.879,27.592,51.519,25.253,86.683c-0.707,10.649-2.084,19.356-5.464,29.347c-0.477,1.433-2.022,3.027-2.382,4.776
	c-0.273,1.308,0.409,2.816,0,4.099c-0.521,1.619-2.834,3.045-3.758,4.776c-2.872,5.396-5.811,12.329-9.21,17.75
	c-0.546,0.862-1.234,1.805-1.706,2.729c-0.57,1.097-0.527,2.573-1.023,3.411c-0.657,1.097-2.375,2.27-3.417,3.752
	c-2.716,3.889-6.022,7.87-9.551,11.269c-4.794,4.595-9.061,10.183-13.998,13.991c-5.755,4.441-12.776,7.907-19.108,11.945
	c-12.844,8.174-26.767,13.21-40.957,19.79c-3.424,1.588-6.723,3.225-10.239,4.781c-5.104,2.258-8.925,4.329-14.673,6.481
	c-11.902,4.453-27.779,6.289-44.021,8.528c-2.27,0.316-11.176,1.284-11.603,2.053c-1.538,2.728,1.017,9.402,0.682,11.944
	c-0.316,2.406-2.94,3.666-4.776,6.481c-1.352,2.078-2.313,4.881-3.758,7.169c-1.55,2.456-3.653,4.577-4.434,6.146
	c-0.546,1.092-0.118,4.304-2.047,5.117c-1.668,0.7-7.641-2.778-9.215-3.753c-3.101-1.929-6.029-4.813-9.21-7.169
	c-9.297-6.865-17.545-14.388-26.966-21.843c-6.022-4.769-12.317-9.346-17.403-15.015c-2.517-2.803-5.203-5.78-7.851-8.533
	c-4.701-4.875-8.001-8.124-11.945-13.65c-1.277-1.786-2.338-3.783-3.752-5.799c-2.096-2.996-7.808-8.453-7.169-11.263
	c0.329-1.426,3.219-3.392,4.782-5.457c3.243-4.298,5.755-6.909,8.868-10.928c1.551-1.991,2.437-4.267,3.758-6.14
	c2.704-3.827,7.151-7.312,10.916-10.58c11.151-9.657,23.3-19.307,34.47-29.006c3.839-3.33,7.691-6.084,11.945-9.216
	c9.979-7.337,19.38-14.785,29.012-23.889c1.681-1.588,4.701-5.222,5.458-5.117c1.991,0.267,2.028,5.42,2.047,4.776
	c-0.056,2.146-0.825,4.372-1.024,5.805c-1.699,12.311-2.164,25.608-2.728,37.199c-0.087,1.811-0.788,4.961-0.683,5.116
	c0.726,1.061,6.878,1.054,11.604,0.688c11.008-0.868,22.717-3.212,32.076-4.781c13.253-2.22,28.082-9.073,41.639-14.333
	c5.997-2.331,13.086-5.768,19.108-8.874c2.816-1.457,5.364-3.151,8.187-5.805c2.425-2.27,5.86-5.246,6.487-7.163
	c0.819-2.493,0.342-8.211,0.342-12.968c0-5.911,0.304-11.343-0.683-15.703c-0.998-4.434-3.523-13.824-6.146-16.037
	c-1.017-0.856-3.275-0.131-4.087-1.706c-0.589-1.129,0.906-2.406,0.676-3.752c-0.297-1.786-4.98-6.444-6.822-8.534
	c-5.519-6.282-9.235-9.898-15.014-15.355c-4.527-4.273-8.05-6.884-13.309-10.581c-1.457-1.023-3.939-3.045-5.117-3.411
	c-1.234-0.384-2.108,0.1-3.076-0.341c-1.408-0.639-2.35-2.22-3.752-3.076c-2.747-1.656-6.909-2.488-10.58-4.094
	c-3.374-1.47-6.828-2.741-10.239-4.093c-6.934-2.747-15.287-6.097-22.525-6.487c-10.14-0.54-22.854-0.074-33.781-1.017
	c-2.456-0.217-5.123,0.347-7.51,0c-1.216-0.18-2.27-1.066-3.412-1.37c-3.591-0.936-8.49-1.104-12.285-1.023
	c-1.21,0.031-2.599,0.72-3.752,0.682c-1.141-0.037-2.648-0.893-3.758-1.023c-3.014-0.36-6.686,0.062-10.239,0.341
	c-2.872,0.224-5.911-0.192-8.534,0c-2.115,0.155-4.534,1.166-6.822,1.364c-6.649,0.583-13.985-0.006-18.085,1.371
	c-1.073,0.353-1.779,1.767-2.735,2.04c-0.446,0.137-2.202-0.527-3.411-0.335c-2.618,0.403-3.734,1.867-5.805-0.347
	c-1.576-1.693-0.459,0.459-3.07-0.335c-5.017-1.538,0.291-5.768,2.735-8.881c3.944-5.024,6.387-8.59,9.892-13.644
	c1.538-2.22,3.51-5.116,5.122-6.487c2.369-2.009,8.243-3.064,13.309-4.434c9.675-2.617,18.953-4.007,29.006-6.487
	c4.595-1.129,9.631-2.425,14.332-3.07C322.574,142.349,342.408,140.693,364.431,139.638z M337.124,146.808
	c-1.544,0.322-3.114,1.351-4.776,1.705c-4.986,1.061-11.672,1.29-16.379,2.388c-2.09,0.49-3.734,1.693-5.122,1.712
	c-1.693,0.013-1.228-1.023-3.411-1.029c-2.04,0-4.298,1.47-1.024,1.711c2.369,0.174,6.121,0.41,7.169-0.347
	c1.879-1.346,2.816,0.695,4.776,1.03c3.734,0.626,8.67-0.751,13.309-0.347c2.499,0.223,4.955,1.005,7.51,1.37
	c2.617,0.372,5.29,0.006,7.851,0.341c4.881,0.626,9.185,2.977,13.303,3.752c2.431,0.453,5.321-0.614,7.169,0
	c1.99,0.664,2.009,4.285,5.799,4.099c2.071-0.106,1.432-2.202,3.411-2.046c2.133,0.161,2.189,3.113,3.758,3.746
	c2.679,1.092,3.715-0.465,5.805,0c1.619,0.372,3.721,1.929,5.799,2.729c6.177,2.406,12.95,5.83,17.744,8.881
	c18.221,11.56,35.53,23.834,46.414,41.974c2.239,3.734,5.036,7.411,6.828,10.921c2.989,5.861,5.005,14.823,5.458,21.161
	c1.551,21.632-8.813,39.822-19.796,52.207c-9.235,10.419-19.616,14.208-33.781,20.819c-8.968,4.186-19.623,7.566-29.354,10.58
	c-12.416,3.845-27.623,7.585-41.292,9.898c-7.113,1.203-18.147,3.144-20.82-3.411c-1.873-4.59,1.073-10.965,2.053-17.067
	c0.862-5.383,1.42-11.039,1.364-15.356c-0.012-0.787,0.441-9.322-0.682-10.239c-1.116-0.906-3.417,1.209-3.076,1.023
	c-6.165,3.349-12.837,9.111-17.402,12.627c-8.168,6.301-13.136,10.01-19.449,14.674c-10.115,7.473-18.345,15.747-26.966,24.23
	c-2.195,2.164-7.064,6.698-7.851,9.216c-2.549,8.199,3.132,14.698,6.146,19.108c1.804,2.648,3.311,5.551,5.116,7.851
	c10.196,13.018,24.851,23.269,36.858,33.447c4.273,3.615,6.872,3.845,12.633,7.51c1.073,0.682,7.343,5.954,9.551,3.752
	c0.713-0.713,0.509-6.17,0.682-8.874c0.502-7.74,0.93-11.033,1.706-17.75c0.304-2.58,0.068-7.554,0.689-8.528
	c1.631-2.599,8.924-0.633,12.621-0.341c9.482,0.738,15.25-0.298,23.889-1.024c7.014-0.589,14.45-0.694,21.161-1.37
	c3.733-0.372,6.872-2.431,9.898-3.064c8.081-1.699,16.063-2.884,23.207-5.464c0.937-0.335,1.867-1.184,2.729-1.364
	c0.93-0.192,2.133,0.229,3.07,0c4.329-1.048,9.743-3.845,14.673-6.146c13.918-6.481,23.369-12.336,35.152-21.495
	c6.785-5.278,14.085-10.19,19.449-16.038c3.088-3.368,5.817-7.474,8.534-11.263c2.797-3.901,6.071-7.882,8.192-11.603
	c3.46-6.065,5.495-15.114,7.51-21.843c2.611-8.732,3.07-17.842,3.07-25.936c0-42.197-17.496-69.455-42.315-87.365
	c-2.871-2.072-5.241-3.045-8.192-4.775c-2.326-1.365-3.957-3.647-6.146-5.123c-1.445-0.98-3.355-1.402-4.775-2.388
	c-2.004-1.395-4.435-3.548-7.169-5.464c-2.345-1.637-4.608-4.205-7.164-5.458c-1.904-0.93-4.862-1.489-7.51-2.388
	c-4.527-1.538-8.714-2.977-13.309-4.781c-4.856-1.91-8.025-2.214-13.309-3.07c-1.854-0.298-3.399-1.37-5.117-1.705
	c-3.243-0.639-6.977-0.286-10.58-0.683c-5.234-0.577-11.325-2.108-16.72-1.705C364.505,145.257,349.317,144.253,337.124,146.808z
	 M282.523,167.621c-0.446,1.544-2.778,9.383-2.047,10.246c0.273,0.316,6.438,0.353,5.805,0.682c1.234-0.645,2.195-6.822,3.064-9.898
	c0.744-2.592,3.535-9.52,2.394-10.921c-1.253-1.538-5.805,0-5.805,0C284.594,158.61,283.546,164.061,282.523,167.621z
	 M295.15,157.729c-0.571,0.453-0.124,2.741-0.341,4.099c-0.428,2.655-1.191,4.682-2.047,8.186c-0.521,2.146-2.735,7.505-2.047,8.187
	c-0.366-0.359,4.404,0.707,5.458,0c0.279-0.186,1.334-4.931,2.053-7.163c1.315-4.118,4.217-9.396,3.07-13.309
	c-0.199-0.664-0.583,0.056-0.689,0C300.763,157.81,295.832,157.196,295.15,157.729z M305.383,158.411
	c0.583,5.067-2.896,12.733-4.428,18.091c2.313-8.069-1.216,1.513-0.683,2.047c-0.142-0.143,5.21,0.633,6.14,0
	c0.248-0.173,1.017-3.696,1.365-5.123c1.271-5.179,2.387-8.491,3.758-12.968c-0.075,0.236,1.445-1.836,0.682-2.729
	c-0.819-0.949-6.729-0.105-6.835,0C305.333,157.785,305.376,158.319,305.383,158.411z M322.791,168.651
	c-0.44,1.402-3.628,9.681-2.729,10.58c-0.012-0.012,5.235,0.453,5.799,0c0.143-0.112,0.267-2.226,0.347-2.729
	c1.061-6.692,3.455-11.467,4.776-17.409c0.422-1.891-3.008-1.929-4.435-1.023C324.504,159.36,324.131,164.396,322.791,168.651z
	 M275.019,168.31c-0.335,1.16-3.312,9.315-2.729,9.892c-0.273-0.267,3.187,0.67,4.093,0c0.254-0.186,0.05-2.034,0.341-3.746
	c1.036-6.159,5.148-15.616,3.752-16.044C276.582,157.221,276.129,164.365,275.019,168.31z M313.241,168.651
	c-0.44,1.426-3.467,8.85-2.729,9.898c0.143,0.204,4.689,1.178,5.458,0.682c0.657-0.434,0.596-3.696,1.023-5.458
	c1.21-5.042,2.859-9.37,4.435-13.998c0.855-2.505-3.666-2.102-4.776-1.364C315.052,159.472,314.252,165.339,313.241,168.651z
	 M335.419,159.435c-0.8,1.904-2.22,5.588-3.411,9.557c-0.545,1.836-3.151,9.607-2.047,10.921c0.874,1.042,8.143,0.031,8.193,0
	c1.24-0.98,1.612-6.896,2.387-9.898c0.683-2.667,3.269-8.93,2.388-10.239c-0.812-1.203-7.628-0.75-7.163-1.023
	C335.356,158.994,335.617,158.97,335.419,159.435z M268.191,168.992c-0.292,0.85-4.242,11.746,0,9.21
	c1.228-0.732,1.885-6.196,2.729-9.21c0.93-3.318,3.727-11.678,0.341-9.216C270.25,160.514,269.418,165.364,268.191,168.992z
	 M346.681,160.799c-0.254,2.183-1.377,6.245-2.387,10.239c-0.49,1.935-2.679,9.322-2.047,9.898c-0.149-0.143,5.65,0.986,6.481,0.341
	c0.143-0.105-0.025-1.166,0-1.365c0.341-3.039,1.811-6.921,2.388-8.875c0.428-1.421,3.225-9.21,2.729-9.892
	c0.173,0.236-7.628-1.588-6.816-1.371c-0.359-0.099-0.216,0.224-0.347,0.342C346.607,160.185,346.694,160.694,346.681,160.799z
	 M263.756,163.528c-0.347,1.656-1.612,3.597-2.729,7.169c-0.359,1.128-2.35,7.07-1.712,7.504c2.747,1.886,2.996-2.977,3.411-4.428
	c0.937-3.268,1.693-5.47,2.729-8.881c0.428-1.383,2.853-6.134-0.682-4.093C263.291,161.661,264.184,161.481,263.756,163.528z
	 M255.564,162.511c-0.682,0.44-4.478,13.006-4.099,13.644c0.05,0.081,4.341,0.739,3.758,1.03c0.087-0.05,1.532-4.546,2.388-7.17
	c1.786-5.47,2.294-7.621,1.705-7.851C259.03,162.058,256.345,161.996,255.564,162.511z M247.036,170.697
	c-0.626,1.619-3.981,9.482,0.335,6.14c0.403-0.311,4.335-12.596,4.434-13.992c0.056-0.664-0.621,0-0.676,0
	C248.853,163.032,248.059,168.024,247.036,170.697z M354.533,172.403c-0.453,1.482-2.655,8.683-2.047,9.557
	c0.354,0.515,2.723,0.571,3.411,0.682c5.34,0.894,3.529-0.18,4.776-4.775c0.862-3.182,5.141-10.878,4.099-13.309
	c-0.899-2.096-6.059-2.146-7.169-1.365C356.74,163.795,355.45,169.395,354.533,172.403z M365.795,175.473
	c-0.583,1.631-3.032,7.864-2.394,8.875c0.05,0.068,5.346,1.222,5.122,1.364c0.589-0.378,1.848-7.498,2.388-9.21
	c0.453-1.438,3.231-8.335,2.729-9.215c-0.484-0.856-4.919-0.763-4.435-1.029C367.65,167.113,366.974,172.161,365.795,175.473z
	 M377.74,169.333c-1.457,2.778-6.363,13.663-5.123,18.091c0.354,1.259,3.467,3.845,5.464,2.728c1.438-0.819,0.043-0.663,0.341-2.053
	c0.751-3.479,5.625-16.392,3.752-18.767c-0.688-0.874-4.341-0.738-4.434-0.682C377.647,168.707,377.79,169.227,377.74,169.333z
	 M386.609,170.697c0.204,3.33-1.092,6.76-2.388,11.262c-0.651,2.27-3.151,8.695-2.388,9.898c0.31,0.49,5.067,1.321,5.464,1.023
	c0.744-0.577,0.068-2.077,0.341-3.752c0.353-2.214,1.259-5.048,2.387-8.533c0.782-2.431,3.455-7.083,2.729-8.534
	c-0.347-0.7-5.892-2.258-6.146-2.047C386.1,170.449,386.583,170.263,386.609,170.697z M242.595,174.456
	c0.236-0.372,1.501-3.188,0.682-2.053C242.273,173.792,242.174,175.095,242.595,174.456z M393.437,184.689
	c-0.627,1.966-3.275,7.684-2.047,9.898c0.31,0.565,3.951,1.656,4.434,1.364c0.713-0.428,1.433-6.288,2.047-8.869
	c0.924-3.876,1.891-6.878,2.047-9.215c0.149-2.164-1.452-4.366-3.412-3.076C394.876,175.863,394.522,181.247,393.437,184.689z
	 M401.63,188.782c-0.496,1.997-2.964,7.833-2.394,9.216c0.36,0.862,2.623,0.949,4.094,1.706c1.228,0.633,2.214,2.71,3.417,2.053
	c1.184-0.651,0.608-3.355,1.023-4.782c0.887-3.033,5.142-11.411,3.752-14.674c-0.577-1.352-7.659-3.92-7.845-3.752
	C402.783,179.33,402.51,185.216,401.63,188.782z M415.28,186.394c-0.552,2.679-1.513,5.383-2.729,9.216
	c-0.75,2.363-3.126,7.728-2.046,10.239c0.316,0.751,6.511,4.285,6.822,4.094c0.794-0.484,0.291-2.506,0.341-2.729
	c0.521-2.487,1.68-5.923,2.046-7.51c0.434-1.861,2.599-9.191,2.053-10.575c-0.428-1.067-6.09-3.709-6.146-3.758
	c0.006,0.006,0.006,0.335,0,0.341C415.273,185.942,415.379,185.898,415.28,186.394z M422.784,203.12
	c-0.626,2.537-2.753,8.069-2.046,10.234c0.211,0.633,4.664,3.808,4.781,3.758c-0.062,0.025,0.354-1.085,0.335-1.029
	c1.638-5.768,4.912-13.837,4.782-19.108c-0.031-1.253-4.372-4.955-5.117-4.435C424.353,193.34,423.547,200.05,422.784,203.12z
	 M431.659,209.601c-0.862,2.766-2.89,7.331-2.388,9.898c0.366,1.867,4.652,6.357,5.458,4.094c1.098-3.064,2.326-6.68,3.076-9.557
	c0.732-2.822,2.493-8.211,1.705-10.58c-0.465-1.377-4.967-3.634-4.781-3.752C433.675,200.361,432.465,207.021,431.659,209.601z
	 M443.263,208.919c-1.21,3.566-2.989,10.506-4.435,15.021c-0.056,0.155-2.233,5.265-0.341,4.434c0.794-0.347,2.183-6.996,3.07-9.557
	c1.129-3.281,3.796-7.895,3.411-9.557c-0.229-0.986-1.619-1.091-1.705-1.023C443.176,208.305,443.3,208.807,443.263,208.919z
	 M447.021,213.354c-0.894,4.266-4.106,11.374-5.464,16.044c-1.017,3.473,1.11,0.13,1.017,0.341
	c1.085-2.481,5.451-18.196,4.447-17.061C446.928,212.771,447.046,213.217,447.021,213.354z M449.061,224.275
	c0.999,0.254,3.132-7.238,1.706-6.14C450.066,218.681,448.453,224.127,449.061,224.275z M446.674,237.243
	c0.105,0.298,1.941,0.93,1.705,1.023c0.552-0.211,0.645-2.53,1.37-4.434c1.03-2.742,2.76-4.906,1.699-4.776
	C450.68,229.15,446.239,235.978,446.674,237.243z M494.453,345.77c1.253-1.011-0.068-3.448-0.341-3.758
	c0.018,0.025-0.018,0.347,0,0.347C492.028,342.16,493.311,346.694,494.453,345.77z M486.601,350.204
	c-0.149,1.259,1.135,0.347,1.364,2.047c0.161,1.172-1.184,2.276,0,2.394c1.551,0.149,1.191-7.56,1.365-7.51
	C489.212,347.103,486.799,348.56,486.601,350.204z M479.438,363.178c0.695,0.688,2.698-1.681,3.07-2.729
	c0.683-1.96,1.359-8.218,1.365-8.199c-0.118-0.323-1.154,0.372-1.023,0.347C481.95,352.802,477.757,361.497,479.438,363.178z
	 M471.586,361.125c0-0.149,1.451,0.41,1.706,0.682c1.321,1.414-2.834,8.429-1.706,9.557c0.49,0.497,3.647-3.393,3.752-3.752
	c1.092-3.74-0.633-9.836,0-9.557C475.705,358.21,471.568,359.314,471.586,361.125z M465.446,364.877
	c-1.135,0.881-3.175,1.6-3.417,2.735c-0.136,0.67,1.576,1.166,1.712,2.388c0.359,3.349-5.086,11.225,0.682,7.504
	c2.294-1.482,2.344-1.513,2.729-4.428c0.651-4.943,3.095-10.351,1.705-10.581C468.386,362.415,466.358,364.177,465.446,364.877z
	 M454.184,373.076c-0.242,0.434-2.617,11.368-2.047,11.938c0.484,0.49,5.625-3.386,5.458-3.07c0.725-1.37,1.985-13.39,1.705-12.285
	c0.156-0.614,0.161,0.068-0.341,0C458.06,369.535,454.637,372.239,454.184,373.076z M240.89,383.991
	c-0.837,1.935-4.024,7.635-3.758,9.551c0.019,0.105,1.879,2.853,2.394,2.735c0.825-0.186,3.095-7.306,4.093-9.892
	c1.532-3.976,4.317-7.846,3.753-10.581c-0.317-1.562-1.749-1.823-2.047-1.712C243.848,374.658,242.23,380.903,240.89,383.991z
	 M234.061,385.697c-0.173,0.626-0.918,4.075,0,4.099c0.763,0.012,2.809-6.884,3.07-7.51c1.303-3.107,3.38-7.039,2.394-6.482
	C237.77,376.785,234.428,384.382,234.061,385.697z M445.991,382.968c-0.558,2.884-2.034,6.816-0.341,5.799
	c2.791-1.668,2.27,0.03,2.388-3.411c0.13-3.697,2.785-9.706,0.341-9.216C446.488,376.524,446.512,380.307,445.991,382.968z
	 M438.14,380.921c-1.023,1.247-2.785,11.721-2.047,12.286c0.397,0.298,4.571-1.073,5.123-2.047c0.137-0.242-0.18-2.822,0-4.44
	c0.539-4.862,2.077-7.101,0.676-7.504C441.582,379.123,438.518,380.462,438.14,380.921z M249.765,381.604
	c-1.067,2.543-2.14,5.644-3.758,9.557c-1.191,2.884-3.969,7.095-3.752,9.557c0.056,0.633,2.375,4.304,3.07,4.087
	c0.217-0.062,1.005-3.455,1.712-5.11c1.643-3.908,6.419-12.069,6.14-15.362c-0.149-1.767-2.536-3.684-3.076-3.411
	C250.069,380.94,249.777,381.554,249.765,381.604z M428.93,390.479c-0.819,4.13-2.971,7.281,1.024,5.799
	c3.466-1.284,1.904-1.135,2.046-5.464c0.186-5.643,2.171-7.076,0.341-7.504C429.426,382.627,429.495,387.613,428.93,390.479z
	 M419.373,394.231c-0.49,2.307-1.401,6.791-1.023,7.163c0.316,0.316,4.595-0.88,5.117-1.699c0.415-0.652,0.03-3.027,0.341-5.123
	c0.763-5.073,2.406-7.833,0.688-8.186C420.545,385.554,420.005,391.279,419.373,394.231z M256.246,388.767
	c-1.464,3.683-5.725,11.647-6.828,16.038c-0.936,3.752,2.48,8.496,3.417,5.464c0.98-3.188,2.115-6.344,3.07-8.875
	c1.073-2.846,4.137-8.049,3.758-10.233c-0.236-1.315-3.231-3.169-3.417-3.076C256.178,388.122,256.283,388.686,256.246,388.767z
	 M410.157,390.131c-0.242,0.292,0,4.422,0,4.44c-0.261,2.63-2.81,10.153-1.706,11.263c0.509,0.502,1.953-0.565,3.07-1.029
	c3.194-1.309,2.716-0.887,2.735-4.087c0.019-4.639,2.965-10.63,1.705-11.951c-0.267-0.273-1.104,0.328-1.023,0.347
	C415.075,389.139,410.597,389.604,410.157,390.131z M400.265,394.572c-0.663,2.791-2.474,15.244-1.029,16.038
	c0.025,0.018,2.208-1.283,2.394-1.364c3.622-1.563,2.586-2.326,3.07-7.169c0.285-2.859,1.953-9.619,1.023-10.234
	c-0.906-0.601-2.195,0.304-2.394,0.341C401.388,392.544,400.674,392.829,400.265,394.572z M389.002,395.254
	c0.025-0.043,2.214,3.064,2.047,2.388c0.31,1.247-3.572,14.941-1.712,16.379c0.887,0.682,1.724-0.57,3.076-1.017
	c0.93-0.316,2.989-0.881,3.07-1.029c0.056-0.093-0.149-12.324,0-13.651c0.329-2.921,0.968-3.218,0-3.752
	C395.037,394.324,389.207,394.888,389.002,395.254z M258.981,404.47c-1.148,2.94-3.083,6.518-3.076,9.216
	c0,2.344,2.853,7.486,3.758,4.093c0.862-3.274,2.326-6.865,3.064-8.874c1.148-3.114,4.063-8.05,3.758-10.239
	c-0.254-1.83-3.386-3.591-3.758-3.412C261.573,395.831,259.936,402.001,258.981,404.47z M384.221,396.618
	c-0.912,0.924-1.569,11.69-1.706,14.332c-0.062,1.191-0.13,4.305,0,4.435c-0.155-0.149,2.109-0.081,2.729-1.017
	c0.552-0.831,0.043-3.956,0.341-7.51c0.403-4.72,1.898-10.425,1.024-10.58C387.316,396.401,384.438,396.401,384.221,396.618z
	 M375.693,397.301c-0.756,1.228-1.097,8.49-1.364,11.945c-0.174,2.195-1.017,7.517-0.689,7.851c-0.1-0.105,5.259,0,5.805-0.682
	c0.18-0.23-0.651-2.592-0.682-3.411c-0.186-4.348,2.487-15.151,1.364-16.044c-0.837-0.657-3.188,0.41-3.07,0.341
	C376.853,397.424,375.805,397.114,375.693,397.301z M367.16,398.324c0.316,2.301,0.13,3.337,0,6.828
	c-0.087,2.146-1.278,12.069,0,12.968c1.817,1.284,2.728-0.769,2.728-1.37c0-2.797,0.515-7.126,0.683-8.869
	c0.099-1.023,1.811-9.278,1.023-10.239c-0.298-0.366-3.647-0.887-4.434,0C367.104,397.71,367.147,398.231,367.16,398.324z
	 M360.332,407.881c-0.18,3.926-0.831,10.537,0,11.263c0.111,0.093,2.152,0.514,2.728,0c0.744-0.658-0.292-2.345-0.341-4.094
	c-0.037-1.612,0.211-6.071,0.341-8.874c0.1-2.134,1.259-9.656-1.358-7.852C360.567,399.112,360.48,404.656,360.332,407.881z
	 M354.192,410.269c-0.149,1.873-1.024,11.145,1.364,10.239c1.228-0.465,0.601-6.735,0.682-8.533
	c0.242-5.415,1.625-14.972-0.682-13.309C354.192,399.645,354.502,406.262,354.192,410.269z M330.984,417.779
	c0.248,6.704,0.577-2.493,0.682-4.775c0.198-4.193,2.896-14.81,0-13.657C328.863,400.464,330.904,415.584,330.984,417.779z
	 M343.27,399.695c-0.062,4.459-1.779,10.853-2.046,16.038c-0.149,2.834,0.236,6.4,0.341,6.481c-0.335-0.267,2.568,0.167,3.07-0.341
	c0.763-0.763,0.229-5.086,0.341-6.823c0.223-3.578,1.178-9.551,1.364-12.974c0.075-1.377-1.283-3.622-2.729-2.382
	C343.586,399.707,343.27,399.676,343.27,399.695z M335.419,418.12c-0.112,1.433-0.012,4.844,0.347,5.117
	c1.11,0.874,10.934-10.549,1.699-0.341c0.366-0.403-0.354-6.475-0.341-6.828c0.229-4.453,2.512-16.9,1.029-16.038
	C337.13,400.624,335.617,415.584,335.419,418.12z M269.555,402.758c-1.389,3.889-5.488,10.593-6.146,16.726
	c-0.328,3.138,0.683,6.629,1.712,3.752c1.066-2.977,2.22-6.71,3.07-8.869c1.352-3.46,4.583-7.696,4.434-9.563
	c-0.093-1.235-2.276-2.921-2.729-2.729C269.487,402.256,269.716,402.318,269.555,402.758z M349.41,413.686
	c-0.068,0.738-1.333,8.708,0.347,7.504c0.887-0.639-0.012-3.026,0-4.093c0.013-2.072,0.614-8.019,0.682-10.239
	c0.1-3.566-0.018-1.085-0.347,1.023C349.751,410.12,349.633,411.447,349.41,413.686z M271.261,417.097
	c-0.924,2.431-3.244,8.205-2.729,10.233c0.117,0.471,3.423,3.789,4.093,3.417c0.881-0.484,0.273-2.766,0.682-4.099
	c0.565-1.83,2.096-4.546,3.417-7.851c0.98-2.444,3.597-6.897,3.411-7.846c-0.198-1.036-4.056-3.231-4.434-3.07
	C274.386,408.439,272.358,414.207,271.261,417.097z M278.43,424.601c-0.211,0.565-3.777,11.883,0,10.581
	c0.906-0.311,3.138-9.055,3.411-9.898c1.011-3.07,4.348-7.92,4.093-9.216c-0.323-1.643-2.822-1.836-3.07-1.699
	C281.779,414.945,278.709,423.832,278.43,424.601z M288.663,419.826c-0.657,1.805-2.344,4.943-3.746,8.533
	c-0.93,2.351-3.479,7.827-3.076,9.551c0.298,1.266,3.765,3.331,4.44,2.729c-0.292,0.26-0.359-0.769-0.347-1.017
	c0.199-2.921,2.016-6.81,2.729-8.534c1.203-2.909,4.273-7.176,4.099-8.874c-0.142-1.408-3.088-3.647-4.099-3.07
	C288.595,419.181,288.7,419.732,288.663,419.826z M290.374,438.934c-0.204,1.68,0.416,2.586,0,3.417
	c0.347-0.707-1.271,1.538-1.364,0.682c0.112,1.017,2.667,3.057,3.411,2.729c0.676-0.298,3.107-8.85,3.411-9.557
	c1.247-2.872,4.695-6.996,4.093-9.21c-0.241-0.912-3.541-2.487-3.752-2.394C295.007,425.122,290.666,436.552,290.374,438.934z
	 M303.001,430.406c-0.924,2.469-2.208,5.079-3.752,8.869c-0.85,2.077-3.857,7.442-3.417,9.222c0.192,0.788,3.032,2.742,3.752,2.382
	c0.8-0.391,1.607-5.867,2.394-7.845c1.129-2.847,2.239-5.942,3.07-7.51c0.57-1.08,2.655-2.028,2.388-3.411
	c-0.168-0.869-3.845-2.524-4.099-2.388C303.306,429.742,303.014,430.363,303.001,430.406z M310.164,435.864
	c-1.165,2.462-2.766,4.533-4.434,8.874c-0.279,0.726-3.603,10.146-1.706,9.557c0.347-0.112,1.477-3.151,2.047-4.434
	c2.128-4.825,3.492-8.701,6.481-12.292c0.912-1.085-1.036-2.834-2.04-2.387C310.481,435.194,310.19,435.82,310.164,435.864z
	 M315.281,439.963c-1.061,2.413-5.687,10.096-6.481,12.968c-0.906,3.287-0.484,6.779,1.712,5.799c1.011-0.453,2.574-7.97,3.07-9.216
	c1.204-3.032,4.738-7.052,4.094-9.21c-0.23-0.775-1.607-1.228-2.047-1.029C315.2,439.467,315.48,439.522,315.281,439.963z
	 M319.38,448.149c-0.453,1.017-7.076,12.857-4.781,14.339c1.339,0.855,4.651-5.57,1.712-1.712c1.656-2.171,2.903-4.602,3.752-6.481
	c1.228-2.729,5.247-7.752,4.782-9.216c-0.286-0.874-3.219-1.649-3.758-1.364C319.721,444.422,320.255,446.202,319.38,448.149z"/>
</svg>
