<?xml version="1.0" encoding="utf-8"?>
<!-- Generator: Adobe Illustrator 17.0.0, SVG Export Plug-In . SVG Version: 6.00 Build 0)  -->
<!DOCTYPE svg PUBLIC "-//W3C//DTD SVG 1.1//EN" "http://www.w3.org/Graphics/SVG/1.1/DTD/svg11.dtd">
<svg version="1.1" id="Layer_1" xmlns="http://www.w3.org/2000/svg" xmlns:xlink="http://www.w3.org/1999/xlink" x="0px" y="0px"
	 width="800px" height="600px" viewBox="0 0 800 600" enable-background="new 0 0 800 600" xml:space="preserve">
<g>
	<path fill="#2C292A" d="M289.891,86.051c1.877-7.978,10.142-10.661,17.526-9.846c10.702,1.196,18.714,10.986,24.258,18.842
		c7.756,10.963,14.079,23.262,18.495,35.883c2.991,8.489,5.714,17.422,8.934,26.088c1.16-6.657,5.42-13.353,12.62-14.806
		c4.563-0.916,9.022-0.567,13.017,1.922c5.112,3.174,9.568,3.576,15.164,0.064c1.585-0.999,3.391-2.354,5.182-3.011
		c4.774-1.744,9.777-2.386,14.623-0.563c3.155,1.196,10.168,5.217,13.187,3.892c2.546-1.102,4.867-2.242,7.547-2.996
		c8.796-2.54,19.179,2.998,24.782,9.114c0.637,0.704,1.276,1.425,1.899,2.149l-1.303,1.04c-2.219-2.512-4.809-4.689-7.794-6.043
		c-3.599-2.478-7.287-3.903-11.844-3.79c-2.597,0.053-4.922,1.108-7.2,2.2c-1.488,0.586-2.974,1.241-4.492,1.906
		c-1.682,0.539-3.44,0.751-5.343,0.272c-4.371-1.108-7.896-4.462-12.151-5.968c-3.544-1.241-9.08-0.759-12.254,1.342
		c-2.299,1.517-3.751,4.286-5.603,6.354c-2.512,1.596-5.066,2.664-8.031,2.125c-2.654-0.837-5.205-2.557-7.462-3.766
		c-1.191-0.633-2.378-1.196-3.573-1.652c-4.697-2.11-9.577-2.722-14.092,2.534c-2.864,3.3-4.593,6.551-5.794,10.501
		c1.624,4.13,3.369,8.17,5.349,12.04c-0.233-0.176-0.446-0.359-0.679-0.535c-0.539-0.751-1.075-1.485-1.615-2.234
		c-0.59-0.98-1.193-1.954-1.771-2.955c-0.152-0.27-0.368-0.398-0.616-0.449c-3.685-6.215-6.121-13.159-8.474-19.932
		c-2.825-8.171-5.708-16.29-9.115-24.223c-4.778-11.072-10.972-22.538-20.303-30.606c-1.643-1.947-3.419-3.734-5.446-5.204
		c-6.142-4.498-20.694-10.678-23.956,1.235c-3.271,11.935,3.99,25.808,9.898,35.665c13.865,23.079,30.589,44.409,41.375,69.179
		c4.672,10.755,8.525,21.607,10.562,33.157l-2.016,0.563c-0.863-3.232-2.027-6.326-2.798-8.823
		c-2.545-8.128-5.768-15.923-9.588-23.548c-6.692-13.323-13.866-26.266-21.993-38.825c-8.178-12.669-17.507-25.53-23.538-39.373
		C291.527,105.955,287.535,96.047,289.891,86.051z"/>
	<path fill="#2C292A" d="M398.092,156.266c6.151-2.523,12.338-2.863,18.844-1.851c5,0.787,10.16,2.134,15.189,0.528
		c3.381-1.079,6.684-2.294,10.12-3.199c3.358-0.901,6.512-0.886,9.606,0.101c-2.523-0.073-5.179,0.398-7.477,0.92
		c-3.414,0.777-6.507,2.418-9.602,3.991c-5.471,2.816-9.895,3.152-15.853,1.789c-7.635-1.75-15.452-3.065-23.003,0.038
		c-4.154,1.704-7.663,4.702-11.718,6.64c-4.134,1.96-8.506,2.786-12.984,2.807c-0.228-0.039-0.451-0.062-0.677-0.101
		c-0.229-0.037-0.228-0.353,0.026-0.34C382.796,168.534,388.056,160.362,398.092,156.266z"/>
	<g>
		<path fill="none" d="M293.561,86.976c3.262-11.913,17.814-5.733,23.956-1.235c2.027,1.47,3.803,3.257,5.446,5.204
			c9.331,8.068,15.525,19.534,20.303,30.606c3.407,7.933,6.289,16.052,9.115,24.223c2.353,6.773,4.789,13.717,8.474,19.932
			c0.248,0.051,0.464,0.178,0.616,0.449c0.578,1.001,1.182,1.975,1.771,2.955c0.541,0.749,1.076,1.483,1.615,2.234
			c0.233,0.176,0.446,0.359,0.679,0.535c-1.98-3.871-3.725-7.911-5.349-12.04c1.201-3.95,2.93-7.201,5.794-10.501
			c4.516-5.256,9.395-4.644,14.092-2.534c1.195,0.456,2.382,1.019,3.573,1.652c2.256,1.209,4.808,2.928,7.462,3.766
			c2.965,0.539,5.519-0.529,8.031-2.125c1.853-2.069,3.305-4.838,5.603-6.354c3.174-2.101,8.71-2.583,12.254-1.342
			c4.255,1.506,7.78,4.86,12.151,5.968c1.903,0.479,3.661,0.266,5.343-0.272c1.518-0.665,3.005-1.32,4.492-1.906
			c2.278-1.092,4.603-2.147,7.2-2.2c4.557-0.113,8.245,1.312,11.844,3.79c2.985,1.353,5.575,3.531,7.794,6.043
			c2.236,2.506,4.094,5.382,5.651,8.154c5.088,9.033,9.205,19.112,11.789,29.129c3.369,12.979,4.875,27.312,0.893,40.474
			c-0.652,2.106-1.432,4.143-2.3,6.135c-0.308,0.679-0.598,1.355-0.923,2.041c-0.251,0.509-0.499,1.016-0.772,1.513
			c-0.621,1.205-1.307,2.397-2.015,3.559c-0.245,0.4-0.473,0.798-0.724,1.166c-0.08,0.111-0.156,0.22-0.23,0.329
			c-0.292,0.43-0.56,0.875-0.871,1.295c-0.018,0.006-0.048,0.013-0.066,0.019c-0.514,0.706-1.05,1.417-1.586,2.114l-0.013,0.021
			c-0.065,0.088-0.166,0.171-0.247,0.263c-2.071,2.566-4.377,4.935-6.951,7.056c-0.491,0.419-1.013,0.796-1.507,1.201
			c-2.598,2.228-5.336,4.291-8.266,5.99c-0.095,0.045-0.174,0.085-0.27,0.13c-2.023,1.352-4.076,2.658-6.153,3.952
			c-2.744,1.716-5.804,2.913-8.876,4.06c0.246,0.173,0.581,0.268,0.917,0.188c11.889-2.803,24.264-10.589,33.132-20.619
			c1.627,1.778,2.638,3.837,3.204,6.06c9.268,15.817-8.69,34.531-22.998,41.064c-2.975,1.346-6.266,2.679-9.746,3.841
			c-2.431,1.068-4.831,1.864-6.786,2.011c-5.586,1.421-11.427,2.286-16.993,2.151c-3.359-0.09-6.601-0.531-9.671-1.44
			c-0.389-0.028-0.773-0.054-1.166-0.1c-10.188-1.047-25.202-8.085-21.819-19.947c11.496,1.019,23.74-0.355,34.685-3.931
			c0.226-0.083,0.297-0.278,0.267-0.443c-3.281,0.912-7.055,1.322-9.864,1.506c-6.147,0.364-12.345-0.094-18.508-0.161
			c-6.185-0.096-12.072-1.149-17.839-2.724c-8.344-2.016-16.528-4.789-24.992-6.353c-22.072-4.098-41.607,1.472-58.046,16.403
			c-2.868,2.604-9.675,10.717-14.926,5.44c-1.997-1.984-3.202-5.538-4.102-8.1c-2.116-6.075-1.074-12.454,0.954-18.472
			c4.533-13.308,17.517-20.051,30.492-23.514c11.567-3.098,24.517-0.912,35.74-4.395c4.227-1.323,8.021-3.343,10.328-6.341
			c-0.16,3.197-1.238,6.139-3.951,8.278c2.934-1.002,4.612-3.298,5.408-6.349c0.299-1.582,0.329-3.283,0.216-4.992
			c0.16-0.445,0.292-0.92,0.387-1.398c-0.212-1.735-0.512-3.458-0.822-5.162c-0.163-0.006-0.341,0.011-0.488,0.055
			c-2.037-11.551-5.891-22.403-10.562-33.157c-10.785-24.77-27.51-46.101-41.375-69.179
			C297.552,112.784,290.291,98.912,293.561,86.976z M416.936,154.415c-6.506-1.012-12.693-0.672-18.844,1.851
			c-10.036,4.096-15.296,12.268-27.528,11.322c-0.254-0.013-0.255,0.302-0.026,0.34c0.225,0.04,0.449,0.062,0.677,0.101
			c4.478-0.021,8.85-0.847,12.984-2.807c4.055-1.937,7.563-4.935,11.718-6.64c7.551-3.103,15.369-1.787,23.003-0.038
			c5.958,1.363,10.382,1.027,15.853-1.789c3.095-1.573,6.188-3.214,9.602-3.991c2.298-0.522,4.954-0.993,7.477-0.92
			c-3.094-0.987-6.247-1.002-9.606-0.101c-3.436,0.905-6.739,2.119-10.12,3.199C427.096,156.55,421.936,155.202,416.936,154.415z"/>
		<path fill="#2C292A" d="M465.821,153.822l1.303-1.04c8.511,9.893,15.425,22.316,18.208,34.888
			c2.965,13.39,5.832,28.757,2.886,42.511c-1.413,6.589-4.776,13.03-9.32,18.868c8.846,7.809,8.074,22.363,2.167,32.099
			c-0.54,0.886-1.116,1.751-1.719,2.602c10.841,10.159,21.4,19.425,30.539,31.31c9.079,11.8,17.528,24.477,23.86,37.94
			c11.909,25.35,16.353,58.094,11.348,85.924c-4.164,23.142-12.779,49.645-33.085,64.527c-4.696,3.443-11.345,8.166-17.921,9.786
			c-0.077,0.109-0.191,0.212-0.375,0.195c-0.163-0.006-0.312-0.013-0.457-0.024c-2.021,0.426-4.037,0.556-5.973,0.207
			c-0.47-0.072-0.915-0.169-1.344-0.289c-5.031-0.081-9.633-0.807-13.217-5.921c-4.152-5.906-3.955-11.327-0.242-17.623
			c5.671-9.683,13.871-17.71,19.217-27.698c4.991-9.294,9.302-19.003,12.054-29.131c6.78-25.048,5.899-50.76-6.583-73.731
			c-5.935-10.95-13.202-21.094-21.891-30.114c-7.923-8.233-16.242-17.464-25.841-23.89c-1.529,0.511-3.075,0.957-4.605,1.329
			c-6.832,1.659-14.342,2.536-21.815,2.36l0.099-1.789c5.566,0.135,11.407-0.73,16.993-2.151c1.955-0.146,4.355-0.943,6.786-2.011
			c3.48-1.162,6.771-2.495,9.746-3.841c14.308-6.533,32.265-25.247,22.998-41.064c-0.567-2.223-1.578-4.282-3.204-6.06
			c-8.868,10.03-21.242,17.817-33.132,20.619c-0.336,0.081-0.671-0.015-0.917-0.188c3.072-1.147,6.132-2.345,8.876-4.06
			c2.076-1.294,4.13-2.6,6.153-3.952c0.097-0.045,0.176-0.084,0.27-0.13c2.93-1.699,5.668-3.762,8.266-5.99
			c0.495-0.405,1.016-0.783,1.507-1.201c2.575-2.121,4.88-4.49,6.951-7.056c0.081-0.092,0.182-0.175,0.247-0.263l0.013-0.021
			c0.536-0.696,1.072-1.408,1.586-2.114c0.019-0.006,0.049-0.013,0.066-0.019c0.311-0.421,0.579-0.865,0.871-1.295
			c0.074-0.109,0.15-0.218,0.23-0.329c0.251-0.368,0.479-0.766,0.724-1.166c0.709-1.162,1.394-2.354,2.015-3.559
			c0.272-0.497,0.521-1.004,0.772-1.513c0.325-0.685,0.615-1.361,0.923-2.041c0.867-1.992,1.647-4.029,2.3-6.135
			c3.982-13.163,2.475-27.496-0.893-40.474c-2.584-10.017-6.701-20.096-11.789-29.129
			C469.915,159.204,468.057,156.328,465.821,153.822z M477.724,285.927c-6.143,7.727-14.968,13.965-24.337,17.818
			c7.499,5.393,14.055,12.384,20.447,18.864c7.505,7.601,14.584,15.59,20.356,24.548c11.387,17.681,18.675,37.381,17.667,58.657
			c-0.937,20.036-6.704,39.863-16.677,57.597c-5.092,9.063-11.285,17.312-17.674,25.564c-4.664,6.046-5.354,15.143-0.02,19.769
			c0.022,0.013,0.026,0.03,0.031,0.045c0.021,0.009,0.058,0.019,0.085,0.045c0.357,0.299,0.727,0.59,1.141,0.837
			c0.269,0.235,0.537,0.488,0.834,0.7c0.084,0.045,0.174,0.107,0.264,0.167c0.019,0.013,0.023,0.028,0.046,0.038
			c0.021,0.013,0.021,0.013,0.039,0.008c2.971,1.93,7.078,2.433,10.498,1.428c0.519,0.06,1.045,0.133,1.561,0.229
			c2.628-0.689,5.093-1.695,7.519-3.144c0.152-0.097,0.322-0.199,0.474-0.295c6.85-1.907,12.853-8.568,17.105-13.366
			c7.978-8.99,14.227-19.153,18.609-30.187c1.35-3.366,2.437-6.779,3.351-10.229c0.283-0.764,0.471-1.549,0.68-2.322
			c0.587-1.509,0.847-3.118,0.92-4.742c1.401-7.126,2.191-14.372,2.682-21.654c0.41-6.003-0.13-11.873-0.409-17.836
			c-0.215-4.361-0.351-9.076-1.797-13.274c-2.16-20.589-8.026-39.48-19.284-58.017c-6.557-10.803-14.024-20.89-22.377-30.426
			C492.761,299.088,485.161,292.783,477.724,285.927z"/>
		<path fill="#2C292A" d="M353.38,225.541l2.016-0.563c0.147-0.043,0.325-0.06,0.488-0.055c0.31,1.705,0.61,3.428,0.822,5.162
			c-0.095,0.479-0.227,0.954-0.387,1.398c0.113,1.708,0.083,3.409-0.216,4.992c-0.796,3.05-2.474,5.346-5.408,6.349
			c2.713-2.14,3.791-5.081,3.951-8.278c-2.306,2.998-6.1,5.018-10.328,6.341c-11.223,3.482-24.173,1.297-35.74,4.395
			c-12.975,3.463-25.958,10.206-30.492,23.514c-2.027,6.018-3.069,12.397-0.954,18.472c0.899,2.562,2.104,6.116,4.102,8.1
			c5.251,5.277,12.057-2.837,14.926-5.44c16.439-14.931,35.974-20.501,58.046-16.403c8.464,1.564,16.648,4.336,24.992,6.353
			c5.767,1.575,11.655,2.628,17.839,2.724c6.163,0.068,12.362,0.526,18.508,0.161c2.809-0.184,6.583-0.593,9.864-1.506
			c0.03,0.165-0.04,0.36-0.267,0.443c-10.945,3.576-23.189,4.95-34.685,3.931c-3.384,11.862,11.631,18.9,21.819,19.947
			c0.392,0.045,0.777,0.072,1.166,0.1c3.07,0.909,6.312,1.35,9.671,1.44l-0.099,1.789c-8.789-0.199-17.487-1.885-24.89-5.566
			c-3.799-1.881-8.923-4.964-10.722-9.007c-0.993-2.204-1.317-3.888-1.222-6.302c0.033,0.115,0.527-1.596,1.018-2.765
			c-13.345-1.757-25.945-6.724-39.429-8.021c-17.304-1.676-32.902,1.38-46.208,13.056c-4.286,3.745-12.967,14.347-19.895,9.696
			c-15.153-10.205-10.353-35.256,1.885-46.084c9.061-8.033,20.619-11.977,32.56-13.664c6.795-0.969,13.561-1.179,20.382-1.755
			c5.31-0.451,13.487-1.192,15.881-7.195c0.519-1.263,0.999-2.517,1.521-3.766C353.742,226.864,353.57,226.2,353.38,225.541z"/>
	</g>
</g>
</svg>
