<?xml version="1.0" encoding="utf-8"?>
<!-- Generator: Adobe Illustrator 17.0.0, SVG Export Plug-In . SVG Version: 6.00 Build 0)  -->
<!DOCTYPE svg PUBLIC "-//W3C//DTD SVG 1.1//EN" "http://www.w3.org/Graphics/SVG/1.1/DTD/svg11.dtd">
<svg version="1.1" id="Layer_1" xmlns="http://www.w3.org/2000/svg" xmlns:xlink="http://www.w3.org/1999/xlink" x="0px" y="0px"
	 width="800px" height="600px" viewBox="0 0 800 600" enable-background="new 0 0 800 600" xml:space="preserve">
<path fill="#1E1E1D" d="M400.03,160.275c-2.863-1.146-5.44-3.627-7.253-3.531c-1.814,0.095-12.311,0.86-14.411,0.382
	c-2.1-0.478-3.245-2.291-4.582-3.627c-1.336-1.336-2.29,0.287-1.813,1.623c0.477,1.336,3.34,2.005,1.527,2.386
	c-1.814,0.381-3.722,0.858-3.626,1.813c0.095,0.955,2.577,0.191,1.909,0.764c-0.669,0.573-14.029,7.636-18.802,12.694
	c-4.773,5.058-11.74,14.507-14.794,19.852c-3.054,5.345-15.749,20.425-14.794,20.997c0.956,0.573,5.25-4.582,5.919-5.44
	c0.668-0.859,5.154-5.058,5.917-6.204c0.762-1.145,2.289-1.432,2.289-1.432s-5.153,9.258-5.535,11.071
	c-0.382,1.813-6.967,17.559-7.635,28.439c-0.668,10.88,0.572,24.814,4.485,32.258c3.914,7.444,8.208,11.453,10.212,12.885
	c2.004,1.432,4.2,2.575-1.813,6.393c-6.012,3.818-11.261,4.581-13.457,4.581c-2.196,0-5.059,0.286-5.536,1.145
	c-0.477,0.859-3.531-0.954-5.345-0.095c-1.813,0.859-1.813,3.817-1.717,4.199c0.095,0.382,0.858,0.478-0.287,1.337
	c-1.144,0.858-8.303,8.969-9.639,13.932c-1.335,4.963-1.718,12.599-0.572,17.084c1.144,4.485,3.722,9.353,6.775,10.594
	c3.055,1.242,3.819,0.763,4.583,2.958c0.764,2.194,15.748,36.553,17.18,37.699c1.43,1.146,0.381,2.386,0.189,2.958
	c-0.189,0.573-3.72,2.387-4.484,3.055c-0.763,0.668-1.91,1.431-0.668,1.527c1.241,0.096,4.676-0.763,5.058-1.241
	c0.382-0.478,1.91,1.239,0.668,3.721c-1.241,2.481-3.914,4.962-4.581,5.631c-0.668,0.669-0.668,1.719-0.572,2.291
	c0.095,0.572,4.007,13.075,5.439,13.075c1.432,0,3.34-1.527,3.245-3.245c-0.094-1.718-1.24-4.2-0.094-5.058
	c1.145-0.86,3.817-2.96,3.912-2.579c0.096,0.383,1.147,11.74,2.672,16.607c1.527,4.867,9.449,24.05,10.212,24.241
	c0.764,0.191,0.955,0.191,0.382,1.336c-0.574,1.145-5.345,8.494-5.441,10.402c-0.096,1.909,0.763,3.913,1.432,4.391
	c0.668,0.478,1.432,1.051,1.527,2.483c0.095,1.431,0.955,8.971,2.577,8.971c1.622,0,1.242-5.25,1.432-6.776s0.572-2.1,0.572-2.1
	s1.05-0.382,1.146,0.095c0.095,0.479,2.004,7.921,6.012,8.781c4.009,0.859,8.304,0.383,10.976-1.336
	c2.672-1.719,3.435-2.959,1.813-4.867c-1.622-1.909-4.199-0.669-5.44-1.909c-1.24-1.241-3.531-17.943-5.153-20.711
	c-1.623-2.768-3.437-16.511-3.054-25.483c0.381-8.972,0.953-18.513,1.716-18.895c0.764-0.381,1.147-4.963,0.764-7.443
	c-0.381-2.482-0.668-3.342-0.19-3.818c0.477-0.477,10.114-4.295,18.227-10.308c8.113-6.013,12.599-11.93,13.267-13.075
	c0.668-1.146,0.286-1.622-1.05-4.771c-1.336-3.15-21.284-28.25-29.301-34.167c-8.017-5.917-6.299-6.776-6.299-6.776
	s7.54-8.206,7.826-10.783c0.286-2.577,1.813-4.677,3.149-5.059c1.337-0.382,7.54-5.726,9.735-9.734
	c2.195-4.009,2.767-4.295,2.767-4.295s8.971,1.241,12.98-1.909c4.008-3.149,7.729-8.398,6.488-13.742
	c-1.24-5.345-1.24-9.067-1.717-9.735c-0.478-0.668,2.577-0.477,3.531,3.436c0.954,3.913,2.1,9.162,1.241,12.216
	c-0.859,3.055-0.764,4.485,0,4.39c0.764-0.095,2.386-1.526,2.959-3.245c0.572-1.718,3.245-6.967,3.532-10.022
	c0.285-3.054,1.716-4.677,1.716-4.677s12.025-0.572,17.56-1.813c5.535-1.241,10.498-2.959,11.93-3.34
	c1.432-0.382,4.772-1.337,5.536,0c0.763,1.336,3.531,3.817,4.295,3.817c0.764,0,2.004-0.19,2.1-1.05
	c0.095-0.859-0.478-2.577,0.763-1.909c1.241,0.668,2.195,0.478,3.817,0.191c1.623-0.286,2.292-0.191,2.482,0.096
	c0.19,0.286,8.207,7.635,8.97,7.063c0.764-0.573,0.86-1.528,0.764-2.481c-0.096-0.955,0.096-1.719,0.478-1.623
	c0.382,0.096,3.627,0.191,5.249,0.573c1.624,0.382,3.15-0.572,2.483-1.527c-0.669-0.955-4.201-3.627-4.582-4.104
	c-0.382-0.478,1.432-0.001,1.91-0.096c0.477-0.095,1.622-0.763,0.763-1.718c-0.858-0.955-5.248-3.436-9.543-5.917
	c-4.295-2.481-18.42-7.252-32.26-7.729c-13.838-0.478-23.287,0.286-25.482-1.146c-2.196-1.432-4.199-0.667-5.345-2.386
	c-1.146-1.718-1.146-6.776-1.05-8.78c0.096-2.005,1.335-2.959,4.295-3.15c2.959-0.191,9.162-1.335,9.449-4.294
	c0.285-2.958-0.383-5.535,0-5.822c0.38-0.287,1.431-0.382,1.908-1.813c0.477-1.432,0.477-3.722,0.382-4.581
	c-0.096-0.859,1.05-2.29,1.526-3.149c0.478-0.859,0.382-1.814-0.38-3.15c-0.764-1.336-1.337-2.004,0-2.958
	c1.335-0.954,3.628-1.907,4.2-4.675c0.572-2.768,0.286-3.436,0.286-3.436s-6.014-0.668-6.49-2.863
	c-0.476-2.195-1.527-3.15-1.24-10.308c0.286-7.157,2.385-14.314-0.096-16.128c-2.481-1.813-3.053-2.004-4.581-3.054
	c-1.528-1.049-4.964-2.195-6.872-2.195C401.651,161.421,400.03,160.275,400.03,160.275L400.03,160.275z"/>
<path fill="#FFFFFF" d="M409.094,167.434c0,0,3.245,5.059,3.723,6.967c0.478,1.909,0.954,2.959,1.24,2.386
	c0.288-0.573,0.764-7.063,0-8.399C413.295,167.052,409.382,166.766,409.094,167.434L409.094,167.434z"/>
<path fill="#FFFFFF" d="M390.103,210.955c0,0,4.199-15.652,4.391-16.988c0.19-1.336,0.954-2.195,1.145-1.241
	c0.191,0.955,3.055,3.913,5.918,5.058c2.863,1.145,3.15,0.668,3.054,0c-0.095-0.668-2.958-0.954-4.294-2.004
	c-1.337-1.05-1.719-1.814-1.623-2.386c0.095-0.573,2.959-7.731,2.767-6.776c-0.191,0.955,1.719,8.399,4.391,8.781
	c2.672,0.382,4.582-1.336,5.155-2.768c0.572-1.432,1.716-5.535,0.572-8.208c-1.146-2.672-2.673-4.963-4.391-4.963
	c-1.718,0-4.58,2.004-5.44,3.531c-0.859,1.527-4.678,7.253-5.441,7.253c-0.763,0,1.814-2.481,2.005-3.054
	c0.191-0.573,4.39-8.971,5.63-11.834c1.242-2.863,3.15-6.777,3.437-6.49c0.285,0.287,4.58,7.158,5.631,10.976
	c1.048,3.818,0.381,7.636,0.286,9.354c-0.096,1.718,0.763,6.108,2.481,6.872c1.718,0.764,4.868,1.433,4.486,2.577
	c-0.382,1.145-3.15,4.677-3.817,4.581c-0.668-0.096-2.196-1.146-2.196-0.286c0,0.859,2.482,4.675,1.624,4.961
	c-0.86,0.287-7.922,5.727-7.922,6.299c0,0.573,5.727,5.918,4.2,9.449c-1.528,3.531-7.73,4.772-11.834,4.581
	c-4.104-0.191-11.931-3.245-11.931-3.245L390.103,210.955L390.103,210.955z"/>
<path fill="#FFFFFF" d="M416.348,209.618c0,0-5.727,2.958-4.391,3.149c1.337,0.191,4.583-1.622,4.583-1.909
	C416.54,210.572,416.348,209.618,416.348,209.618L416.348,209.618z"/>
<path fill="#FFFFFF" d="M414.44,213.722c-2.112,0.192-3.436,0.859-2.577,2.1c0.858,1.241,1.909,2.29,2.958,1.336
	C415.872,216.203,417.589,213.436,414.44,213.722L414.44,213.722z"/>
<path fill="#FFFFFF" d="M404.323,183.849c0,0-1.051,8.398,1.909,9.162c2.959,0.764,4.296-1.145,4.39-2.768
	c0.096-1.623-1.049-1.623-1.336-1.145c-0.286,0.477-3.435,0.477-3.817-1.241c-0.382-1.718,0.573-4.104-0.19-4.867
	C404.515,182.226,404.323,183.849,404.323,183.849L404.323,183.849z"/>
<path fill="#FFFFFF" d="M407.663,181.75c0,0-2.004,3.817-0.668,4.867c1.337,1.05,2.96,0,2.673-1.908
	C409.382,182.799,407.186,181.654,407.663,181.75L407.663,181.75z"/>
<path fill="#FFFFFF" d="M409,164.666c0,0-7.158-4.581-14.03,1.909c-6.872,6.49-12.98,15.366-13.267,24.433
	c-0.286,9.067,2.387,23.575,2.767,27.964c0.383,4.391,3.438,11.262,3.15,7.254c-0.287-4.009,0.382-13.935,0.86-18.898
	c0.476-4.963,4.772-18.325,7.826-25.387c3.052-7.063,7.825-12.694,8.971-14.412c1.146-1.718,3.913-2.577,3.913-2.577L409,164.666
	L409,164.666z"/>
<path fill="#FFFFFF" d="M361.28,174.21c0,0,13.745-13.744,15.461-14.603c1.718-0.859,8.209-0.382,12.216-0.19
	c4.008,0.19,9.45,2.29,8.877,2.386c-0.573,0.096-14.125,10.975-15.271,16.416c-1.146,5.44-2.96,11.167-2.291,15.652
	c0.668,4.486-2.959,10.594-3.436,11.93c-0.477,1.337-5.059,18.705-4.963,21.664c0.095,2.959-0.096,2.481-0.859,2.386
	c-0.764-0.095-1.432-1.336-3.34-4.963c-1.908-3.627-3.627-16.606-3.436-22.142c0.19-5.536,0.764-12.98,2.863-18.23
	c2.1-5.249,6.49-14.315,7.158-15.938c0.668-1.622,0.858-3.531-0.383-2.577c-1.24,0.955-7.157,9.163-7.921,14.603
	c-0.764,5.44-4.487,16.225-6.013,19.374c-1.528,3.149-8.303,16.797-10.879,24.432c-2.578,7.636-3.723,20.9-3.723,23.096
	c0,2.195,0,2.864-0.572,2.768c-0.573-0.096-2.577-11.835-3.34-18.229c-0.764-6.395-0.097-14.698,2.003-22.428
	c2.101-7.731,7.636-21.283,11.835-27.295C359.467,176.309,361.28,174.21,361.28,174.21L361.28,174.21z"/>
<path fill="#FFFFFF" d="M363.19,168.96c0,0-9.545,5.154-13.457,10.021c-3.914,4.868-9.64,15.366-11.74,17.466
	c-2.1,2.1-2.577,3.531-0.668,2.386c1.909-1.145,5.727-5.726,9.068-8.208c3.34-2.481,3.817-4.771,6.012-8.017
	c2.196-3.245,8.59-11.167,9.544-11.835C362.903,170.105,363.19,168.96,363.19,168.96L363.19,168.96z"/>
<path fill="#FFFFFF" d="M380.464,204.367c0,0-5.536,10.785-5.917,14.889c-0.382,4.104-1.814,11.357-0.477,12.312
	c1.336,0.955,7.54,4.963,7.444,4.295c-0.096-0.667-0.668-4.391-0.572-7.349c0.095-2.958,0.953-10.117,1.24-11.739
	c0.288-1.622-0.955-6.108-1.049-8.589C381.038,205.704,380.464,204.367,380.464,204.367L380.464,204.367z"/>
<path fill="#FFFFFF" d="M383.042,221.833c0,0-0.572,5.536-0.572,9.067c0,3.531,0.382,3.531,0.572,2.958s1.336-3.341,1.813-4.486
	c0.479-1.145,1.432-1.717,0.382-4.485C384.186,222.119,383.042,221.833,383.042,221.833L383.042,221.833z"/>
<path fill="#FFFFFF" d="M386.573,230.9c0,0-2.578,5.059-1.909,6.395c0.669,1.336,4.581,2.864,8.59,4.677
	c4.009,1.813,9.449,4.008,9.068,2.577c-0.383-1.432-3.15-4.772-3.247-8.876c-0.095-4.104,0.669-5.918-1.144-6.299
	c-1.814-0.381-8.304-2.481-8.781-1.622c-0.477,0.859-0.572,1.718,0.668,4.867c1.241,3.149,3.818,7.349,3.246,7.635
	c-0.573,0.287-0.859,0.287-2.482-2.195C388.959,235.577,386.573,230.9,386.573,230.9L386.573,230.9z"/>
<path fill="#FFFFFF" d="M361.472,204.94c0,0-10.594,19.374-12.598,28.537c-2.004,9.163-2.576,18.707-2.481,20.902
	c0.095,2.195,3.436,7.54,1.049,6.585c-2.386-0.955-1.336-0.668-1.718-4.104c-0.382-3.436-4.104-8.399-4.581-12.884
	c-0.477-4.486-2.386-9.64-2.1-11.453c0.286-1.813-0.287,0.478-1.813,4.486c-1.527,4.008-4.677,10.785-4.199,19.279
	c0.477,8.494,2.768,19.373,6.108,25.005c3.34,5.631,3.818,4.486,4.008,4.199c0.191-0.287,2.577-6.203,2.577-9.926
	c0-3.723,4.104-19.47,4.391-20.329c0.286-0.858,4.772-8.684,4.485-11.739c-0.286-3.054,2.767-8.493,4.199-10.594
	c1.431-2.1,3.723-3.341,5.727-3.341c2.003,0,2.959-0.477,2.959-0.477s-2.387-5.534-3.627-11.547
	C362.618,211.525,361.472,204.94,361.472,204.94L361.472,204.94z"/>
<path fill="#FFFFFF" d="M325.707,248.441c0.266-2.183,2.573-20.7,4.938-27.372c2.671-7.54,8.398-21.474,10.593-23.669
	c2.196-2.195,6.203-4.772,5.918-4.104c-0.286,0.668-5.249,9.354-6.013,15.557c-0.764,6.203-1.051,11.357-1.623,12.789
	c-0.572,1.432-4.581,12.216-5.153,14.698c-0.573,2.482-4.868,18.61-3.626,24.432c1.24,5.822,3.435,13.935,2.48,13.553
	c-0.954-0.382-4.199-5.631-5.153-9.831C327.114,260.294,325.69,248.579,325.707,248.441L325.707,248.441z"/>
<path fill="#FFFFFF" d="M354.696,249.796c-0.859,1.527-4.867,9.257-3.722,10.021c1.146,0.764,10.689,4.485,17.657,3.913
	c6.967-0.572,8.399-1.146,9.926-2.29c1.526-1.146,3.245-2.863,1.145-3.818c-2.1-0.955-9.353-3.15-10.881-3.15
	c-1.527,0-2.003-0.954-1.24-1.813c0.764-0.859,5.727,0.191,6.777,0.477c1.049,0.286,34.263,12.121,36.649,12.121
	c2.386,0,8.681-0.287,14.885-2.195c6.205-1.909,16.226-4.485,16.894-4.008c0.667,0.477,4.676,2.004,8.111,2.004
	c3.436,0,9.544-0.669,10.021-0.191c0.477,0.478,1.623,1.241,2.386,1.623c0.764,0.382,4.103,1.336,4.199,1.05
	c0.096-0.287-1.431-1.718-3.722-3.054c-2.292-1.336-6.204-4.103-6.871-4.963c-0.668-0.859-6.205-3.34-11.74-3.913
	c-5.535-0.573-21.664-1.623-27.487-1.146c-5.822,0.477-8.78-1.527-10.785-1.909c-2.004-0.382-25.481-8.304-26.722-10.212
	c-1.241-1.909-12.407-8.972-15.747-6.586c-3.34,2.386-9.259,10.88-9.163,13.362C355.363,247.601,354.696,249.796,354.696,249.796
	L354.696,249.796z"/>
<path fill="#FFFFFF" d="M389.149,261.63c0,0,0.019,0.039,0.056,0.112c0.504,0.996,4.234,8.267,5.478,8
	c1.336-0.286,0.096-4.867-0.764-5.917C393.063,262.776,389.149,261.63,389.149,261.63L389.149,261.63z"/>
<path fill="#FFFFFF" d="M402.13,265.448c0,0,3.34,7.54,2.385,10.976c-0.954,3.436-1.145,3.723-0.668,3.054
	c0.478-0.668,2.863-4.486,2.96-8.304c0.095-3.817,0-4.104,0-4.104L402.13,265.448L402.13,265.448z"/>
<path fill="#FFFFFF" d="M404.419,246.169c0,0,6.871,2.385,8.112,2.29c1.241-0.095,17.466,0.477,21.284,0.764
	c3.817,0.286,19.66,2.673,21.569,3.436c1.909,0.763,10.784,4.009,11.833,4.963c1.05,0.955,1.624,0.955,2.481,0.955
	c0.859,0,1.527-0.477,1.146-0.573c-0.382-0.096-11.167-6.681-18.802-8.304c-7.636-1.623-25.578-3.149-30.447-3.245
	c-4.867-0.096-10.211,1.336-13.265-0.096C405.276,244.928,404.419,246.169,404.419,246.169L404.419,246.169z"/>
<path fill="#FFFFFF" d="M446.794,262.204c0,0,2.1,1.145,2.863,1.526c0.764,0.382,2.194-1.336,0.477-1.813
	C448.416,261.44,446.794,262.204,446.794,262.204L446.794,262.204z"/>
<path fill="#FFFFFF" d="M461.587,263.444c0,0,4.103,4.009,4.39,3.627c0.286-0.382,0.477-1.432,0-1.813
	C465.499,264.876,462.254,262.585,461.587,263.444L461.587,263.444z"/>
<path fill="#FFFFFF" d="M460.632,256.572c0,0,6.205,4.009,7.349,5.345c1.145,1.336,4.677,2.863,5.155,2.959
	c0.477,0.095,1.24-0.954,0.668-1.05c-0.573-0.096-3.151-2.291-7.636-4.867C461.683,256.381,460.632,256.572,460.632,256.572
	L460.632,256.572z"/>
<path fill="#FFFFFF" d="M350.496,261.535c0,0,14.985,4.868,20.521,4.104c5.535-0.764,10.975-3.913,11.357-5.059
	c0.381-1.146,0.762-2.004,1.621-1.527c0.86,0.477,2.674,0.954,2.769,1.813c0.094,0.859,1.336,7.444,4.677,9.258
	c3.34,1.813,5.727,1.432,5.727,2.769c0,1.336,0.095,10.975-7.254,14.124c-7.349,3.149-10.307,2.195-11.357,0.955
	c-1.049-1.241-12.311-13.647-16.988-15.938c-4.676-2.291-13.171-3.913-13.171-3.913L350.496,261.535L350.496,261.535z"/>
<path fill="#FFFFFF" d="M348.111,270.314c-0.095,0.286-1.049,12.502-4.008,17.656c-2.959,5.154-7.827,6.777-9.066,7.254
	c-1.242,0.477-3.723,1.717-3.723,1.717s10.499,8.208,14.316,12.789c3.817,4.581,6.872,11.644,7.539,10.499
	c0.669-1.145,7.636-8.399,8.4-11.071c0.764-2.672,1.431-4.39,2.29-5.058c0.86-0.668,6.299-5.727,9.067-8.113
	c2.769-2.386,3.722-6.966,3.722-6.966s-6.966-11.645-13.553-14.89C356.511,270.887,348.111,270.314,348.111,270.314L348.111,270.314
	z"/>
<path fill="#FFFFFF" d="M321.196,298.565l-0.095,0.286c0,0,19.756,17.371,24.528,22.524c4.772,5.154,6.967,6.491,6.013,4.391
	c-0.954-2.1-6.013-14.983-13.171-20.615c-7.159-5.631-11.835-7.444-14.221-7.444C321.865,297.706,321.196,298.565,321.196,298.565
	L321.196,298.565z"/>
<path fill="#FFFFFF" d="M318.69,300.578c0,0.365-0.297,0.661-0.662,0.661h-4.13c-0.365,0-0.661-0.296-0.661-0.661
	c0-0.365,0.296-0.661,0.661-0.661h4.13C318.394,299.917,318.69,300.213,318.69,300.578L318.69,300.578z"/>
<path fill="#FFFFFF" d="M323.866,303.469c0-0.472-0.383-0.853-0.854-0.853h-3.139c-0.472,0-0.854,0.382-0.854,0.853
	c0,0.472,0.382,0.854,0.854,0.854h3.139C323.483,304.323,323.866,303.941,323.866,303.469L323.866,303.469z"/>
<path fill="#FFFFFF" d="M327.776,306.333c0,0.41-0.334,0.743-0.744,0.743h-1.156c-0.41,0-0.744-0.333-0.744-0.743
	c0-0.41,0.334-0.744,0.744-0.744h1.156C327.442,305.589,327.776,305.922,327.776,306.333L327.776,306.333z"/>
<path fill="#FFFFFF" d="M332.347,310.82c0,0.79-0.642,1.432-1.432,1.432c-0.791,0-1.432-0.641-1.432-1.432v-0.275
	c0-0.79,0.641-1.432,1.432-1.432c0.79,0,1.432,0.641,1.432,1.432V310.82L332.347,310.82z"/>
<path fill="#FFFFFF" d="M336.641,314.483c0,0.653-0.529,1.183-1.184,1.183h-0.276c-0.653,0-1.183-0.53-1.183-1.183
	c0-0.655,0.53-1.185,1.183-1.185h0.276C336.112,313.298,336.641,313.828,336.641,314.483L336.641,314.483z"/>
<path fill="#FFFFFF" d="M340.331,317.621c0,0.624-0.506,1.129-1.129,1.129h-0.66c-0.624,0-1.129-0.504-1.129-1.129
	c0-0.624,0.505-1.129,1.129-1.129h0.66C339.825,316.492,340.331,316.998,340.331,317.621L340.331,317.621z"/>
<path fill="#FFFFFF" d="M344.13,321.311c0,0.593-0.48,1.073-1.073,1.073h-0.22c-0.593,0-1.074-0.48-1.074-1.073
	c0-0.593,0.48-1.074,1.074-1.074h0.22C343.649,320.237,344.13,320.718,344.13,321.311L344.13,321.311z"/>
<path fill="#FFFFFF" d="M348.26,325.579c0,0.821-0.666,1.487-1.486,1.487h-0.275c-0.822,0-1.487-0.667-1.487-1.487
	c0-0.822,0.665-1.487,1.487-1.487h0.275C347.595,324.091,348.26,324.757,348.26,325.579L348.26,325.579z"/>
<path fill="#FFFFFF" d="M349.362,329.103c0,0.243-0.197,0.441-0.441,0.441c-0.242,0-0.439-0.198-0.439-0.441v-1.211
	c0-0.244,0.197-0.441,0.439-0.441c0.245,0,0.441,0.197,0.441,0.441V329.103L349.362,329.103z"/>
<path fill="#FFFFFF" d="M350.573,333.452c0,0.152,0.123,0.275,0.276,0.275c0.152,0,0.275-0.123,0.275-0.275v-2.973
	c0-0.152-0.123-0.275-0.275-0.275c-0.153,0-0.276,0.123-0.276,0.275V333.452L350.573,333.452z"/>
<path fill="#FFFFFF" d="M353.332,323.411c0.125,3.125,3.5,37.251,4.625,37.626c1.126,0.375,3,2.124,6.001,2.124
	c2.999,0,4.375-0.5,2.874,0.625c-1.5,1.126-9.25,3.75-9.25,5.5s0,19.001,2.251,18.25c2.249-0.75,18-9,23.874-15.375
	c5.875-6.374,6.501-6.124,5.875-7.375c-0.625-1.25-10.125-20-19.5-28.125S353.332,323.411,353.332,323.411L353.332,323.411z"/>
<path fill="#FFFFFF" d="M357.957,363.036c1.501,0.25,3.5-0.125,2.25,1.125c-1.249,1.251-1.499,2.875-2.375,2.125
	C356.957,365.537,357.957,363.036,357.957,363.036L357.957,363.036z"/>
<path fill="#FFFFFF" d="M358.583,389.661c-1.126-2.125-2.751-2.625-2.626-4.625s-0.25-17.25-1.249-26.125
	c-1-8.875-1.751-23.375-3.001-23.375c-1.249,0-1.999-1.499-2.249-2.5c-0.25-1-0.125-1.75-0.501-1.5
	c-0.375,0.25-2.499-0.75-2.749-1.999c-0.25-1.251,1.124-1.501-0.875-1.251c-2.001,0.25-1.501-2.5-2.126-3.249
	c-0.625-0.751-1.124-0.876-1.874-1.376s-1.376-1.375-1.501-2.375c-0.125-0.999-1.875,0.375-3.374-1.249
	c-1.501-1.626-1.001-2.876-1.751-2.751s-2.999,0-2.999-1.124c0-1.126,0.5-2.126,0-2.126s-4,0.375-4.5-1.25
	c-0.5-1.624,0.125-3.375,0.125-3.375s-2.001-0.25-3.5-1.125c-1.5-0.874,0.749-1.499-1.75-1.499c-2.5,0-3.75,0.5-4.5-1.126
	c-0.751-1.625-1.126-2.874-1.126-2.874l-2.874,0.125c0,0-7.376,6.874-9.375,12.124c-2.001,5.251-3.125,17.375,0.125,22.5
	c3.249,5.126,6.749,5.751,8.124,6.25c1.376,0.5,1.626,1.625,1.626,1.625s5,16.126,9.25,24.375c4.25,8.25,14.25,24.375,15.249,26.375
	c1,2,0.625,10.875,1.501,16.875c0.875,6,4.625,18.126,6.874,21.751c2.251,3.625,6.626,12.25,5.375,13.625
	c-1.249,1.375-2.124,3.25-1.374,3.75c0.749,0.5,4.125,8.75,5.374,11.75c1.25,3,0.125,3.75,1.625,3.125c1.501-0.625,7.125-1,7.25-1.5
	s-1.499-10.625-3.375-15.75c-1.874-5.125-2.249-9.125-2.999-10.75c-0.751-1.625-0.626-28.625-0.876-34.501
	c-0.25-5.875,1.626-7.875,1.626-11.125S358.583,389.661,358.583,389.661L358.583,389.661z"/>
<path fill="#FFFFFF" d="M331.583,390.161c0,0,2.249,2.626,0.875,5.25c-1.375,2.625-3.001,3.5-3.001,3.5s2.376,6.25,3.75,6
	c1.375-0.25,5.625-2.749,4.875-5.5c-0.749-2.75-2.875-4.875-4.125-7.124C332.708,390.036,331.583,390.161,331.583,390.161
	L331.583,390.161z"/>
<path fill="#FFFFFF" d="M328.081,400.296c-0.235-0.115-0.373-0.135-0.373-0.135s-2.126,3.375-0.125,7.75
	c1.999,4.375,3.249,6.25,3.374,5c0.126-1.25,1.751-4.75,0.126-8.625C329.915,401.501,328.683,400.589,328.081,400.296
	L328.081,400.296z"/>
<path fill="#FFFFFF" d="M349.583,454.287c-1.376,0.875-3.5,3.875-2.626,5.25c0.875,1.375,6.876,1.5,6.876,1.5L349.583,454.287
	L349.583,454.287z"/>
<path fill="#FFFFFF" d="M357.832,468.287c0,0,5.876-1,9.751-0.5c3.874,0.5,5,1.125,2.749,2c-2.249,0.875-7.249,4.375-10.374,2
	C356.832,469.412,357.832,468.287,357.832,468.287L357.832,468.287z"/>
<path fill="#FFFFFF" d="M349.958,464.162c0,0,0.125,4.125,1,4.125c0.874,0,0.749-3.375,0.249-3.875
	C350.708,463.912,349.958,464.162,349.958,464.162L349.958,464.162z"/>
</svg>
