<?xml version="1.0" encoding="utf-8"?>
<!-- Generator: Adobe Illustrator 17.0.0, SVG Export Plug-In . SVG Version: 6.00 Build 0)  -->
<!DOCTYPE svg PUBLIC "-//W3C//DTD SVG 1.1//EN" "http://www.w3.org/Graphics/SVG/1.1/DTD/svg11.dtd">
<svg version="1.1" id="Layer_1" xmlns="http://www.w3.org/2000/svg" xmlns:xlink="http://www.w3.org/1999/xlink" x="0px" y="0px"
	 width="800px" height="600px" viewBox="0 0 800 600" enable-background="new 0 0 800 600" xml:space="preserve">
<path fill-rule="evenodd" clip-rule="evenodd" fill="#020000" d="M285.164,148.833c2.543-0.068,7.821-0.099,11.48,0.199
	c3.399,0.279,6.816,1.178,10.097,1.383c7.232,0.465,14.431,1.135,20.987,1.588c6.735,0.466,13.439,0.019,20.391-0.198
	c6.94-0.217,13.961-0.248,20.584-0.397c12.745-0.285,26.575-0.446,40.387-0.596c10.221-0.105,20.367,1.055,31.679,0.397
	c2.673-0.155,5.284,0.143,8.112,0.199c0.657,0.018,1.557-0.254,2.177-0.199c1.755,0.149,3.393,0.862,5.147,0.986
	c6.078,0.441,11.325,0.441,16.237,0.204c6.053-0.291,13.235-1.01,18.407,0.397c2.065,0.558,4.626,1.892,6.927,2.971
	c6.029,2.81,12.416,8.633,15.052,14.45c2.369,5.234,2.772,11.281,2.772,19.003c0,3.2,0.539,6.308,0.787,9.501
	c0.521,6.642-0.459,13.235,0,19.796c0.843,12.007,0.385,24.497,1.39,36.82c0.552,6.779,0.037,13.055,0.198,19.604
	c0.137,5.799,0,11.741,0,18.011c0,6.63,0.298,12.999-0.198,19.207c-0.49,6.084-1.29,12.007-2.177,17.818
	c-0.372,2.418-1.352,4.663-1.78,6.927c-0.967,4.992-2.183,9.08-4.559,12.863c-1.061,1.693-2.487,3.405-3.361,5.346
	c-0.775,1.718-0.887,3.814-1.985,5.346c-3.088,4.329-12.527,5.643-19.796,6.338c-3.926,0.379-8.224,0.93-12.075,0.589
	c-2.183-0.186-4.106-0.527-6.14-0.391c-1.854,0.117-3.702,0.75-5.34,0.787c-4.137,0.093-8.23-0.428-12.671,0
	c-8.316,0.8-16.49,0.279-24.944,0.992c-4.149,0.347-8.286,0.261-12.273,0.596c-11.492,0.955-27.735,0.434-41.77-0.199
	c-1.829-0.086-5.811-0.272-5.941-0.198c-0.589,0.354-1.805,4.986-2.177,5.941c-3.286,8.292-8.037,16.441-12.868,23.754
	c-6.915,10.468-17.334,19.312-26.532,28.51c-6.171,6.171-11.498,12.385-19.003,17.614c-2.629,1.835-11.188,7.746-14.45,4.955
	c-0.216-0.192-0.843-1.557-0.992-1.588c-0.199-0.037-4.025,2.481-5.147,3.17c-4.273,2.623-5.848,3.497-9.501,7.125
	c-0.744,0.732-1.104,1.365-2.376,1.383c-0.713,0.013-2.251-0.323-2.573-0.986c-0.472-0.98,1.042-1.767,1.978-3.169
	c0.831-1.234,1.29-2.655,1.978-3.368c0.62-0.626,1.637-0.843,2.375-1.383c1.979-1.452,3.87-3.901,5.743-5.545
	c2.698-2.363,4.949-4.831,7.132-7.92c4.317-6.114,7.721-11.213,11.281-18.605c5.613-11.666,8.298-26.407,10.891-41.77
	c0.217-1.334,1.408-5.669,0.986-6.338c-0.441-0.688-6.68-1.061-9.111-1.185c-8.701-0.458-18.773-0.905-26.922-0.794
	c-16.745,0.236-29.787-4.918-36.82-14.252c-1.588-2.108-3.492-4.186-4.552-6.14c-4.279-7.901-4.695-22.203-4.751-34.644
	c-0.025-5.272,0.794-11.399,0.794-17.817c0-6.345-0.707-12.795-0.595-18.414c0.117-6.127-0.484-12.422-0.596-18.605
	c-0.117-6.196-0.986-12.224-0.986-18.017c0-9.941,0.967-19.542,0.986-28.305c0.006-3.268-0.409-6.443-0.198-9.706
	c0.149-2.245,0.794-4.992,0.992-8.112c0.161-2.598,0.553-7.69-0.198-8.912c-0.168-0.267-1.569-0.509-1.978-0.192
	c-1.036,0.775-0.075-0.453,0.198-1.191c0.335-0.925,0.087-1.309,0.199-1.588c1.389-3.523,6.177-6.264,8.112-9.303
	c0.701-1.092,0.787-2.4,1.39-3.361c4.192-6.748,9.743-11.492,17.421-15.647C261.852,149.837,272.693,149.18,285.164,148.833z
	 M281.598,152.796c-14.531-0.893-26.674,4.224-33.85,10.289c-0.137,0.117-2.338,2.227-1.191,1.588
	c2.022-1.123,5.34-3.231,6.729-3.963c3.144-1.637,5.526-2.065,8.521-2.965c3.219-0.974,6.351-2.573,10.289-3.175
	c3.603-0.539,7.418-0.18,12.075-0.391c2.586-0.117,5.674-0.509,9.507-0.397c2.208,0.069,3.163,0.168,4.552,0.199
	c0.993,0.025,5.756-0.149,4.354-0.397c-5.756-1.005-14.897-1.098-20.59-0.788C281.865,152.802,281.729,152.802,281.598,152.796z
	 M347.921,157.54c-6.177,0.41-12.429,0.608-18.612,0.596c-6.016-0.006-12.001-0.843-17.818-0.788
	c-3.56,0.031-7.324,0.347-11.089,0.397c-11.144,0.136-23.437-0.8-32.262,2.177c-4.472,1.501-8.962,2.742-13.068,4.949
	c-1.848,0.993-3.845,2.09-5.743,3.368c-1.712,1.148-4.453,2.319-5.544,3.56c-1.061,1.21-1.823,3.771-2.766,5.942
	c-0.968,2.208-1.755,4.422-2.382,6.53c-1.476,4.999-1.749,10.19-1.78,16.038c-0.044,8.1-0.248,16.137-0.787,23.952
	c-0.199,2.79-0.8,5.575-0.794,8.118c0.006,4.068,0.223,7.833-0.199,12.075c-0.397,3.981-0.763,8.037-0.986,12.075
	c-0.446,7.858,1.619,15.598,2.171,23.561c0.441,6.202,0.49,11.672,0.596,16.819c0.217,10.301-1.303,21.018-0.199,31.679
	c0.558,5.396,0.056,11.064,1.582,15.641c1.556,4.658,5.035,7.299,8.713,10.096c1.6,1.216,2.747,2.407,4.162,2.971
	c5.358,2.14,12.205,1.433,19.79,1.978c2.989,0.211,6.121,0.751,9.309,0.986c6.915,0.515,12.087,0.049,19.598,0.199
	c3.1,0.062,7.752,0.905,9.699,0.198c1.098-0.397,0.626-1.705,2.375-1.78c2.072-0.086,1.786,1.408,2.574,2.177
	c0.875,0.85,2.251,1.098,2.772,1.985c0.205,0.354,0.379,3.752,0.794,4.155c0.236,0.229,2.401,0.13,3.163,0.192
	c2.499,0.223,7.696,0.769,7.324,3.169c-0.298,1.948-3.052,1.234-4.546,0.986c-0.924-0.149-5.315-1.017-5.743-0.583
	c-0.459,0.446,0.043,4.31,0,5.34c-0.298,6.971-1.762,13.88-2.977,20.59c-2.413,13.402-8.205,22.959-14.649,32.467
	c-2.561,3.783-6.165,7.678-9.501,11.089c-0.006,0-1.612,1.303-0.986,1.581c0.161,0.069,4.422-2.512,5.545-3.169
	c1.804-1.061,4.087-2.375,5.538-3.368c7.325-4.992,14.773-8.98,20.392-14.847c8.651-9.042,15.411-20.243,21.781-31.474
	c3.057-5.395,6.214-11.232,8.707-17.818c0.304-0.812,2.201-6.239,1.985-6.934c-0.36-1.116-4.249-1.866-2.971-4.155
	c0.992-1.786,6.661,0.366,7.715,0.397c4.832,0.149,9.495-0.062,14.457,0.397c5.023,0.465,9.885-0.471,15.045-0.397
	c2.332,0.037,4.627,0.639,6.928,0.794c2.307,0.155,4.508,0.105,6.927-0.198c5.023-0.627,9.278-0.347,14.053,0.198
	c4.508,0.515,9.315-0.341,14.456-0.397c5.241-0.056,10.655,0.149,15.635,0.199c10.252,0.099,19.276,1.104,28.901,0
	c4.924-0.565,9.16-2.345,12.875-4.354c4.577-2.481,6.369-3.851,9.302-7.132c1.148-1.284,2.413-2.587,3.361-3.957
	c2.121-3.045,2.983-6.394,4.552-9.898c0.831-1.842,2.251-3.423,2.977-5.147c0.62-1.489,0.986-3.231,1.779-4.949
	c1.979-4.273,2.047-7.759,2.376-13.657c0.161-2.921,0.372-5.774,0.192-8.515c-0.18-2.921-0.75-5.731-0.986-8.515
	c-0.261-3.027,0.099-5.904,0.198-8.906c0.093-2.785-1.03-5.377-1.383-7.92c-0.775-5.519,0.502-11.256,0-17.811
	c-0.242-3.126-0.88-6.14-0.794-9.309c0.081-2.958,0.199-5.848,0.199-8.713c-0.013-6.084-0.577-12.088-0.993-18.011
	c-0.434-6.245-0.292-12.242,0-18.606c0.385-8.341-1.792-17.08-3.956-22.971c-0.639-1.731-0.961-3.567-1.588-4.949
	c-1.334-2.984-3.802-6.897-6.53-9.898c-2.884-3.163-5.39-6.072-8.707-7.722c-1.724-0.849-4.459-0.98-7.126-1.383
	c-8.993-1.352-19.734-0.993-29.701-0.993c-7.268,0-13.879-0.397-21.378-0.397c-14.791,0-30.68-0.8-43.946-0.787
	C371.686,156.771,360.461,156.715,347.921,157.54z M490.061,157.348c2.747,1.495,5.135,3.045,6.927,4.949
	c2.276,2.406,4.751,5.03,6.133,7.325c0.751,1.234,1.092,2.369,1.786,3.56c0.639,1.104,1.569,2.152,2.177,3.368
	c0.831,1.662,0.775,3.231,1.382,5.154c0.577,1.792,1.842,4.664,2.376,7.12c-0.186-0.85,0.601,2.505,0.595,0.596
	c-0.012-3.045-0.13-7.486-0.397-10.494c-0.379-4.348-2.698-8.168-4.745-11.083c-2.524-3.597-4.719-6.134-8.912-8.118
	c-2.171-1.03-5.693-2.965-7.92-3.17c-0.18-0.018-0.359,0.056-0.397,0.199C489.131,156.535,490.068,157.348,490.061,157.348z
	 M229.137,184.866c0.527,0.521,1.581-1.216,0.595-0.794C229.391,184.221,228.963,184.686,229.137,184.866z M232.306,191.595
	c-1.848,6.072-0.453,17.012-0.794,24.547c-0.105,2.362-0.8,7.082-0.787,9.501c-0.006-0.937-0.037,1.42,0.391,1.191
	c0.161-0.087,0.173-1.663,0.198-1.979c0.533-5.507,0.738-9.414,0.993-14.456c0.186-3.783-0.006-7.176,0-9.694
	c0.006-2.816,0.601-6.729,0.397-9.501c-0.025-0.304-0.279-0.13-0.397,0C232.25,191.253,232.331,191.514,232.306,191.595z
	 M259.625,363.826c3.504,0.968,7.778,1.39,11.678,1.39c6.53,0,10.407,0.372,15.641,0.589c6.01,0.254,11.194-0.248,18.016,0.397
	c1.116,0.105,5.247,1.352,5.148-0.397c-0.087-1.501-3.095-0.986-4.36-0.986c-4.521,0-10.717-0.025-15.238-0.204
	c-6.425-0.242-14.891-1.029-19.802-1.383c-3.008-0.211-5.619,0.112-8.311,0c-0.707-0.031-3.293-0.688-5.935-0.596
	c-0.18,0.013-0.161,0.044-0.204,0.199C256.264,362.828,259.414,363.764,259.625,363.826z M363.959,365.011
	c2.232,0.85,8.794,0.577,11.281,0.601c-10.618-0.087,1.898,0.223,1.786-0.199c-0.081-0.272-3.312-0.359-3.765-0.403
	c-1.588-0.143-8.081-1.222-9.111-0.192C364.176,364.788,363.779,364.949,363.959,365.011z M382.961,365.216
	c-1.668,0.112-3.175-0.565-5.147,0.198c-0.229,0.081-0.13,0.143,0.192,0.199c5.209,0.806,12.453,0.205,18.413,0.391
	c4.974,0.155,10.611-0.31,15.442-0.788c3.144-0.316-2.425-0.614-5.346-0.397c-2.481,0.173-5.11,0.825-7.324,0.986
	c-4.404,0.316-8.93-0.856-10.884-0.794C386.565,365.073,384.673,365.092,382.961,365.216z M304.961,413.516
	c-0.025-0.1,1.631-2.822,1.78-3.17c1.83-4.211,2.623-8.372,3.566-12.868c0.906-4.323,1.792-8.968,2.375-13.855
	c0.081-0.688,0.775-6.102,0.397-3.956c-0.564,3.131-1.966,8.862-2.375,11.281c-1.408,8.292-3.622,14.692-5.346,21.973
	C305.314,413.106,304.862,413.081,304.961,413.516z M300.799,440.041c-3.262,1.997-6.506,3.417-9.501,5.346
	c0.174-0.105-1.792,0.887-1.377,1.581c0.379,0.658,3.43-1.178,4.155-1.581c3.058-1.687,5.018-2.797,7.517-4.745
	c0.707-0.552,3.151-2.791,2.971-2.778C303.367,437.976,301.841,439.408,300.799,440.041z"/>
</svg>
