<?xml version="1.0" encoding="utf-8"?>
<!-- Generator: Adobe Illustrator 17.0.0, SVG Export Plug-In . SVG Version: 6.00 Build 0)  -->
<!DOCTYPE svg PUBLIC "-//W3C//DTD SVG 1.1//EN" "http://www.w3.org/Graphics/SVG/1.1/DTD/svg11.dtd">
<svg version="1.1" id="Layer_1" xmlns="http://www.w3.org/2000/svg" xmlns:xlink="http://www.w3.org/1999/xlink" x="0px" y="0px"
	 width="800px" height="600px" viewBox="0 0 800 600" enable-background="new 0 0 800 600" xml:space="preserve">
<g>
	<path fill="#050505" d="M729.18,374.258c-14.972-10.58-37.689-22.294-54.233-32.658c-3.042-1.904-5.238-4.719-7.586-5.249
		c-6.643-1.509-11.769,4.068-16.313,8.172c-7.617-5.957-17.279-10.165-23.93-16.329c-13.95-12.96-25.496-27.204-37.896-42.571
		c-7.992-9.898-16.273-19.723-23.323-30.322c-7.115-10.7-12.385-23.675-20.992-32.659c-11.738-12.244-26.111-17.602-46.648-20.413
		c-6.739-0.93-14.676,1.086-20.992-2.918c24.322-14.736,50.84-27.887,75.928-43.07c9.789-7.091,21.495-13.191,31.955-21.076
		c2.403-1.828,4.95-3.817,7.218-5.606c5.876-4.655,13.223-8.811,10.261-14.799c-2.052-2.951-4.743-3.318-8.744-2.336
		c-11.051,4.4-26.733,13.092-42.399,21.424c-9.199,5.993-18.453,10.077-27.58,15.315c-16.776,9.634-33.264,19.667-50.823,28.238
		c-6.212,3.051-26.677,13.486-30.087,14.76c-8.113,3.003-16.377,2.068-27.388,1.665c-12.161-0.463-26.031-2.503-36.826-0.679
		c-9.829,1.669-21.966,13.355-33.321,19.579c-12.432,6.807-26.758,8.54-37.305,15.159c-13.342,8.388-21.296,19.368-32.075,31.497
		c-6.325,7.114-16.825,11.845-21.592,17.49c-5.845,6.939-2.602,15.871,0.591,21c-14.468,10.899-35.484,17.383-47.829,31.48
		c-2.284,3.07-2.979,5.178-2.324,9.921c-13.335-6.683-24.386,2.89-33.959,9.019c-1.805,1.473-6.372,4.491-11.985,8.8
		c-20.609,13.682-34.096,34.291-60.773,32.91c-4.519-0.232-5.741-1.05-9.909-4.065c3.41,7.314,9.438,13.159,15.587,16.317
		c7.027,3.594,13.391,6.136,20.561,6.995c18.653,2.227,39.238-4.033,50.648-9.43c5.764-2.727,8.648-4.248,12.927-6.568
		c14.436-7.817,29.457-20.369,27.396-38.818c16.09,6.1,45.953-23.26,68.821-34.981c2.667,2.371,7.282,2.81,9.894,5.242
		c-2.084,9.549-0.415,19.559,6.443,22.741c11.954,5.578,28.865-2.727,36.73-8.16c2.388,14.453-7.617,27.228-2.339,36.734
		c0.974,1.76,4.958,5.098,6.987,5.832c7.41,2.695,17.615,1.262,23.923-5.25c1.82,11.934,18.684,18.35,27.412,10.5
		c5.973-5.374,6.571-15.064,4.663-25.076c4.496,0.742,10.899,0.583,13.99-1.748c12.687,25.419,34.454,43.433,59.479,56.564
		c36.627,19.204,74.674,22.797,84.568,21.583c18.277-2.264,35.963,3.964,46.639,12.244c-4.592,5.342-7.674,14.249-9.319,22.162
		c15.874,16.976,35.261,30.43,58.889,39.649c6.355-0.571,9.43-1.489,14.564-5.242c17.351-14.425,33.121-36.686,44.34-58.904
		c3.881-7.706,8.655-16.569,11.035-24.266c2.356-7.725,3.72-11.718,5.285-18.892C729.691,394.739,730.921,385.057,729.18,374.258z"
		/>
	<path fill="#FFFFFF" d="M658.17,309.281c-1.805-1.137-3.21-2.415-4.375-3.374c-1.126-0.962-2.037-1.473-2.284-1.501
		c-0.536-0.115-1.07-0.172-1.59-0.172c-1.892-0.004-3.832,0.827-5.893,2.296c-2.044,1.453-4.095,3.469-6.18,5.354l-1.861,1.68
		l-1.996-1.54c-7.171-5.682-16.872-9.87-24.082-16.493c-14.173-13.144-25.807-27.528-38.2-42.886
		c-7.961-9.87-16.313-19.763-23.484-30.551c-7.322-11.071-12.592-23.883-20.673-32.242c-11.171-11.622-24.601-16.709-44.907-19.512
		c-1.525-0.219-3.258-0.259-5.086-0.259c-0.918,0-1.861,0-2.819,0c-4.487,0-9.574-0.144-14.277-3.106l-4.072-2.571l4.112-2.504
		c24.457-14.796,50.92-27.935,75.848-43.003c10.021-7.242,21.646-13.291,31.811-20.972c2.388-1.817,4.911-3.785,7.171-5.574
		c1.924-1.533,3.936-2.942,5.605-4.303c1.669-1.35,2.979-2.671,3.617-3.725c0.439-0.702,0.567-1.238,0.567-1.713
		c0-0.331-0.056-0.702-0.271-1.19c-0.439-0.571-0.791-0.842-1.141-1.034c-0.384-0.192-0.823-0.316-1.573-0.32
		c-0.655,0-1.501,0.116-2.547,0.36c-10.7,4.288-26.23,12.863-41.761,21.127c-9.422,6.128-18.716,10.217-27.627,15.343
		c-16.728,9.602-33.281,19.678-50.991,28.33c-4.623,2.268-17.327,8.708-24.841,12.353c-2.547,1.214-4.423,2.096-5.526,2.523
		c-4.982,1.856-9.965,2.316-15.203,2.316c-4.168,0-8.528-0.292-13.351-0.471c-8.656-0.328-17.998-1.414-26.287-1.41
		c-3.553,0-6.923,0.195-9.917,0.702c-3.984,0.631-9.318,3.729-14.892,7.59c-5.597,3.856-11.514,8.388-17.486,11.666
		c-13.119,7.099-27.492,8.876-37.162,15.063c-12.783,8.009-20.537,18.649-31.436,30.95c-3.489,3.908-7.889,6.97-11.905,9.765
		c-4.016,2.771-7.682,5.33-9.622,7.661c-1.86,2.248-2.515,4.563-2.539,7.078c-0.025,3.674,1.661,7.69,3.377,10.417l1.446,2.323
		l-2.18,1.649c-7.578,5.685-16.552,10.061-25.072,14.772c-8.48,4.667-16.473,9.654-22.23,16.206
		c-0.751,1.006-1.19,1.784-1.468,2.487c-0.28,0.719-0.432,1.429-0.432,2.571c0,0.691,0.064,1.529,0.224,2.563l0.751,5.634
		l-5.063-2.555c-2.818-1.406-5.397-1.953-7.921-1.953c-3.921-0.004-7.809,1.406-11.69,3.541c-3.817,2.072-7.553,4.811-11.259,7.186
		c-1.086,0.859-2.587,1.936-4.575,3.35c-2.06,1.477-4.592,3.281-7.338,5.405l-0.087,0.055l-0.096,0.057
		c-9.661,6.412-17.918,14.6-27.1,21.379c-9.167,6.751-19.451,12.118-32.802,12.097c-0.871,0-1.765-0.02-2.659-0.072
		c-0.519-0.024-1.022-0.06-1.501-0.1c2.643,2.867,5.669,5.167,8.703,6.707c6.867,3.538,12.864,5.901,19.539,6.683
		c2.531,0.312,5.11,0.455,7.689,0.447c15.651,0.024,31.915-5.134,41.306-9.61c5.741-2.711,8.527-4.18,12.799-6.484
		c6.588-3.561,13.199-8.112,18.062-13.602c4.854-5.506,7.952-11.794,7.961-19.224c0-0.986-0.056-2-0.168-3.039l-0.527-4.862
		l4.551,1.737c1.094,0.419,2.324,0.623,3.753,0.623c3.41,0.024,7.88-1.358,12.823-3.785c4.951-2.423,10.388-5.829,15.994-9.618
		c11.243-7.558,23.084-16.561,33.824-22.078l1.821-0.926l1.533,1.357c0.734,0.695,2.235,1.354,4.072,2.048
		c1.821,0.735,3.976,1.501,5.877,3.246l1.269,1.158l-0.375,1.669c-0.518,2.332-0.783,4.703-0.783,6.931
		c0,3.086,0.519,5.897,1.486,8.033c0.966,2.163,2.291,3.609,4.048,4.427c2.324,1.09,4.943,1.569,7.769,1.569
		c9.239,0.06,20.361-5.53,26.014-9.478l3.873-2.687l0.783,4.655c0.279,1.764,0.399,3.49,0.399,5.178c0,5.21-1.15,9.993-2.22,14.293
		c-1.086,4.3-2.052,8.116-2.036,11.207c0,1.96,0.335,3.577,1.182,5.094c0.056,0.192,1.198,1.493,2.404,2.464
		c1.181,1.006,2.659,1.921,2.994,2.016c1.972,0.715,4.264,1.101,6.612,1.101c5.142,0.012,10.508-1.848,14.125-5.617l4.192-4.335
		l0.926,5.961c0.495,3.234,2.428,6.056,5.214,8.136c2.786,2.072,6.372,3.278,9.693,3.266c2.915-0.008,5.517-0.863,7.538-2.675
		c3.17-2.814,4.639-7.501,4.639-13.442c0-2.782-0.328-5.785-0.91-8.863l-0.791-4.2l4.208,0.699c1.325,0.216,2.883,0.352,4.44,0.352
		c3.114,0.052,6.244-0.683,7.282-1.541l2.867-2.148l1.597,3.198c12.321,24.693,33.52,42.299,58.202,55.267
		c31.892,16.76,65.284,21.467,78.786,21.44c1.709,0,3.074-0.072,4.009-0.196c2.706-0.327,5.389-0.483,8.041-0.483
		c16.161,0.02,31.044,5.79,40.826,13.343l2.468,1.92l-2.044,2.392c-3.753,4.292-6.7,12.073-8.337,19.308
		c15.227,15.965,33.664,28.661,56.07,37.509c2.715-0.26,4.583-0.595,6.3-1.198c1.836-0.643,3.585-1.605,5.997-3.362
		c16.848-14.021,32.45-35.98,43.501-57.886c3.913-7.737,8.607-16.54,10.827-23.798c2.403-7.773,3.737-11.618,5.246-18.645
		c1.501-6.907,2.515-13.351,2.515-19.946c0-2.815-0.2-5.678-0.607-8.608C696.522,330.904,674.476,319.486,658.17,309.281z"/>
	<path fill-rule="evenodd" clip-rule="evenodd" fill="#090909" d="M588.239,79.896c2.954,5.993-4.4,10.149-10.252,14.808
		c-2.268,1.785-4.807,3.778-7.234,5.61c-10.46,7.885-22.15,13.974-31.955,21.076c-25.096,15.18-51.606,28.331-75.944,43.062
		c6.34,4.001,14.277,1.997,21.009,2.926c20.552,2.811,34.909,8.157,46.655,20.401c8.592,8.988,13.862,21.963,20.984,32.662
		c7.075,10.6,15.347,20.421,23.316,30.327c12.4,15.363,23.963,29.611,37.912,42.567c6.652,6.16,16.297,10.369,23.915,16.325
		c4.552-4.092,9.678-9.67,16.337-8.16c2.323,0.535,4.527,3.341,7.577,5.249c16.537,10.353,39.254,22.071,54.233,32.65
		c1.741,10.808,0.495,20.489-1.748,30.91c-1.565,7.178-2.93,11.167-5.311,18.888c-2.363,7.697-7.138,16.565-11.019,24.266
		c-11.234,22.23-26.997,44.48-44.324,58.9c-5.166,3.765-8.24,4.679-14.572,5.25c-23.651-9.214-43.03-22.677-58.92-39.657
		c1.669-7.909,4.735-16.812,9.342-22.157c-10.692-8.277-28.363-14.501-46.656-12.245c-9.885,1.222-47.94-2.375-84.56-21.583
		c-25.04-13.131-46.775-31.129-59.471-56.564c-3.106,2.327-9.518,2.499-14.014,1.752c1.917,10.013,1.325,19.711-4.655,25.072
		c-8.736,7.854-25.575,1.437-27.396-10.496c-6.292,6.516-16.497,7.938-23.915,5.25c-2.052-0.742-6.029-4.06-6.987-5.829
		c-5.293-9.505,4.703-22.285,2.324-36.738c-7.849,5.429-24.769,13.73-36.739,8.16c-6.858-3.177-8.504-13.191-6.419-22.749
		c-2.627-2.428-7.235-2.867-9.909-5.25c-22.869,11.741-52.724,41.09-68.814,34.994c2.037,18.445-12.951,31.005-27.412,38.822
		c-4.264,2.324-7.17,3.841-12.911,6.564c-11.427,5.41-31.987,11.654-50.648,9.434c-7.186-0.854-13.534-3.406-20.57-6.995
		c-6.148-3.162-12.176-9.003-15.594-16.325c4.177,3.019,5.398,3.849,9.909,4.081c26.686,1.377,40.172-19.244,60.789-32.91
		c5.613-4.32,10.181-7.334,11.985-8.812c9.566-6.132,20.625-15.698,33.968-9.014c-0.662-4.735,0.016-6.855,2.316-9.925
		c12.337-14.089,33.344-20.577,47.822-31.484c-3.195-5.122-6.42-14.049-0.583-21.004c4.751-5.634,15.251-10.373,21.574-17.483
		c10.78-12.129,18.733-23.108,32.067-31.492c10.564-6.619,24.889-8.352,37.329-15.155c11.355-6.228,23.484-17.91,33.313-19.574
		c10.803-1.829,24.681,0.208,36.818,0.662c11.035,0.411,19.299,1.35,27.396-1.661c3.417-1.274,23.851-11.71,30.079-14.756
		c17.566-8.567,34.055-18.612,50.847-28.243c9.127-5.234,18.39-9.322,27.564-15.315c15.666-8.332,31.34-17.02,42.415-21.423
		C583.481,76.587,586.172,76.954,588.239,79.896z M575.983,90.397c4.559-0.77,2.81-4.527,4.088-7.003
		C576.55,83.562,577.037,87.746,575.983,90.397z M567.255,97.392c4.264-1.677,5.126-7.438,5.821-11.068
		C567.335,86.943,569.531,92.768,567.255,97.392z M561.418,90.984c-1.245,5.841-3.482,8.527-4.671,13.41
		c5.127-1.533,9.638-9.761,7.57-14.576C563.838,90.684,562.448,90.656,561.418,90.984z M548.595,109.644
		c1.908-0.036,2.227-1.665,4.647-1.174c0.455-5.573,3.154-8.915,3.505-14.58C549.888,94.992,551.189,104.29,548.595,109.644z
		 M542.758,99.731c-0.774,7.398-5.973,13.474-5.829,19.822c6.045-5.226,10.293-12.248,11.666-22.162
		C545.616,97.136,545.4,99.647,542.758,99.731z M526.429,124.225c8.656-0.104,8.2-14.321,12.249-21.004
		C529.918,103.236,530.198,117.302,526.429,124.225z M515.928,129.47c10.756-1.425,8.201-13.794,12.241-21
		C518.636,110.02,519.458,121.925,515.928,129.47z M510.682,117.804c-0.407,6.005-4.687,11.251-3.497,16.916
		c1.756-1.162,3.657-2.16,5.821-2.918c0.695-6.217,2.284-9.777,3.505-16.337C513.534,115.21,513.318,117.725,510.682,117.804z
		 M496.095,140.546c2.746-0.551,3.409-3.206,6.419-3.505c1.158-5.43,1.989-11.227,4.08-15.742
		C497.835,122.452,498.538,133.072,496.095,140.546z M488.525,130.641c0.136,6.735-4.895,11.414-4.088,16.907
		c8.049-2.271,10.843-12.867,11.082-20.996C493.707,128.429,490.856,129.263,488.525,130.641z M485.02,132.964
		c-0.128-0.451-0.487-0.675-1.158-0.579c-5.854,3.67-8.185,13.978-9.334,20.409C481.945,149.8,482.56,139.308,485.02,132.964z
		 M463.46,159.214c9.486-2.24,8.863-14.708,11.068-21.587C467.333,142.406,467.165,151.98,463.46,159.214z M455.859,163.877
		c7.522-2.156,6.18-15.802,9.916-19.826C457.24,145.429,459.963,158.06,455.859,163.877z M450.629,151.05
		c-1.724,5.885-2.555,12.62-4.088,18.652c8.472-2.399,7.625-14.129,11.075-21.575C454.725,148.538,452.585,149.712,450.629,151.05z
		 M436.623,174.948c2.101-1.022,4.623-1.584,6.412-2.907c1.277-6.491,2.515-13.05,4.08-19.247
		C438.22,154.783,438.883,166.341,436.623,174.948z M426.123,181.372c2.62-1.857,5.765-3.163,8.169-5.25
		c-3.074-4.185,2.954-11.454,2.922-18.082C427.632,159.549,427.025,173.14,426.123,181.372z M354.978,167.378
		c-8.823,6.743-18.254,13.67-29.161,17.491c-7.37,2.579-15.803,4.731-23.316,8.16c-8.32,3.809-18.972,13.458-24.506,19.247
		c-1.302,1.37-12.257,15.411-17.486,19.826c-5.542,4.683-13.167,7.877-16.912,12.832c-2.555,3.374-3.721,12.337,1.749,13.406
		c2.276,0.46,7.058-3.713,11.075-5.829c19.962-10.508,36.059-20.92,55.406-30.897c8.113-4.204,89.366-50.02,101.463-57.163
		C394.343,164.536,366.173,157.845,354.978,167.378z M421.452,165.622c-1.334,7.602-4.416,13.454-5.813,21
		c3.274-0.407,4.623-2.759,7.578-3.501c-1.006-6.033,2.108-12.532,2.906-18.669C423.696,163.969,423.368,165.598,421.452,165.622z
		 M417.971,167.953c-0.136-0.451-0.496-0.675-1.174-0.575c-6.236,4.249-7.737,16.361-8.735,23.907
		C415.448,187.596,414.92,175.991,417.971,167.953z M625.56,306.75c-4.814-3.13-9.949-5.298-14.005-8.747
		c-11.355-9.682-21.064-22.314-30.311-33.241c-14.748-17.467-27.412-33.488-39.661-53.071c-5.03-8.041-9.589-16.804-15.155-22.166
		c-11.61-11.171-24.377-15.127-44.914-17.483c-7.586-0.878-23.204-3.796-27.396-1.752c-7.57,3.677-15.914,7.063-23.332,11.665
		c-2.715,1.689-4.728,4.232-7.57,5.825c-19.22,10.732-38.91,21.667-55.99,33.836c8.568,1.03,15.762,3.091,23.324,2.324
		c7.058-8.732,15.993-17.112,25.088-23.327c2.939-2.025,6.156-3.773,9.902-5.246c-4.145,4.068-7.594,7.437-11.666,10.5
		c-2.044,1.536-4.248,3.796-6.412,5.825c-9.661,9.127-18.381,18.521-23.923,30.909c17.663-4.328,39.054-12.049,59.495-13.414
		c4.599-0.299,12.241-0.719,15.155,2.918c-15.842-1.433-44.979,5.801-58.305,9.331c-9.231,2.443-16.569,6.164-25.073,7.577
		c-8.959,1.493-18.077,2.004-28.896,2.947c-10.485,0.906-19.947,1.716-31.764,0.554c-11.857-1.154-22.892-3.817-36.722-1.744
		c-4.12,0.611-10.452,2.85-12.84,5.829c-10.82,13.458,10.524,27.843,20.417,30.326c18.061,4.531,33.552,5.127,48.396,6.412
		c12.568,1.086,24.888-1.881,37.912,0.587c3.865,0.723,8.648,2.998,12.824,4.667c18.764,7.47,27.524,18.349,39.078,32.071
		c12.033,14.312,24.577,26.725,46.519,32.558c2.316,0.599,8.176,2.907,11.778,1.845c-3.41,3.585-10.852,2.379-15.739,1.173
		c-18.173-4.559-30.222-14.097-40.235-25.08c-6.516-7.876-13.543-18.305-20.992-23.332c-0.735,1.206-0.879,1.473-2.923,2.923
		c1.254,7.84,6.596,15.127,11.091,20.987c2.907,3.797,7.441,8.105,11.163,11.562c4.048,3.745,8.001,6.624,11.674,9.53
		c5.988,4.751,13.414,8.855,21.471,13.316c25.248,13.981,64.582,24.733,86.317,22.74c26.262-2.392,45.13,8.683,61.228,22.166
		c21.311-27.08,41.161-55.638,48.412-96.8C642.871,318.172,634.791,312.743,625.56,306.75z M403.391,174.948
		c-1.35,7.614-3.585,14.313-5.262,21.591c3.011-0.107,3.769-2.463,6.42-2.922c-0.4-8.001,5.493-15.846,3.513-21.575
		C407.231,173.739,404.844,173.898,403.391,174.948z M394.04,180.202c-0.647,8.867-4.943,14.105-5.813,22.749
		c8.576-3.457,10.324-16.888,11.075-26.254C398.256,178.578,395.454,178.697,394.04,180.202z M383.54,184.869
		c-0.143,9.741-5.925,15.986-4.064,24.485c7.737-4.511,8.783-18.82,10.492-27.4C388.323,183.42,386.223,184.43,383.54,184.869z
		 M371.89,212.864c4.671-0.583,4.224-6.276,4.663-11.079c2.587-3.349,2.955-9.825,3.506-14.005
		C373.663,192.69,373.183,204.528,371.89,212.864z M363.738,216.937c2.914-0.188,4.407-1.789,6.411-2.903
		c-2.874-6.488,3.458-16.098,1.741-21.005C365.327,197.158,366.069,208.6,363.738,216.937z M358.484,219.863
		c5.805-3.126,3.37-14.453,6.412-21.583c-0.04-0.355-0.088-0.694-0.583-0.583C358.715,201.438,359.905,211.946,358.484,219.863z
		 M353.229,203.534c-0.511,6.919-3.074,14.748-2.332,20.988c2.412-0.32,3.41-2.024,5.254-2.907
		c-1.517-8.523,3.609-15.678,1.158-19.83C356.2,202.608,354.771,203.139,353.229,203.534z M349.141,205.279
		c-0.95,1.381-3.41,1.238-4.655,2.328c-0.759,8.571-2.994,15.678-4.088,23.914c2.946-1.13,4.687-3.485,7.569-4.664
		C347.049,219.092,351.673,210.756,349.141,205.279z M338.066,233.273c-0.886-8.899,4.823-17.295,2.332-23.919
		c-0.479,1.266-2.555,0.95-3.505,1.749c-3.258,5.677-3.49,17.49-2.907,25.081C335.128,234.986,336.724,234.272,338.066,233.273z
		 M326.401,217.52c-1.015,8.499-2.116,16.932-3.49,25.08c12.472-0.159,6.979-21.391,9.909-29.152
		C330.393,214.533,329.419,217.041,326.401,217.52z M318.823,222.19c-1.374,7.957-2.212,16.441-3.497,24.498
		c9.621-1.864,4.886-18.058,8.759-25.659c-0.079-0.723-0.191-1.382-1.173-1.166C321.961,221.053,320.093,221.332,318.823,222.19z
		 M362.564,223.36c-5.98,2.587-11.323,5.789-15.754,9.913c8.432,5.566,18.829,9.167,30.91,11.075
		c1.181-6.408,5.486-9.686,7.586-15.163C375.978,229.002,368.984,226.447,362.564,223.36z M314.75,224.522
		c-0.103,0.683-0.934,0.639-1.748,0.583c0.327,5.594-8.376,19.858,0,22.744c0.702-8.045,1.828-15.654,3.489-22.744
		C315.74,225.073,315.693,224.355,314.75,224.522z M310.087,228.023c-6.404-0.172-6.803,10.704-7.585,18.081
		c2.18-0.463,2.787,0.707,4.663,0.583C307.165,239.49,309.153,234.287,310.087,228.023z M301.312,231.521
		c-1.198,0.926-2.364,1.904-4.073,2.331c0.304,4.571-1.461,7.099-1.716,11.083c1.078,0.651,2.731,0.742,4.065,1.169
		C300.49,242.264,303.236,234.308,301.312,231.521z M294.917,236.184c-4.145-1.406-5.358,5.166-5.837,9.334c1.374,0,2.731,0,4.096,0
		C294.181,242.847,294.701,239.662,294.917,236.184z M325.235,247.849c10.58,0.036,23.603-1.525,34.327-3.333
		c-5.158-2.048-13.494-5.63-17.415-8.911C337.1,240.272,330.992,243.89,325.235,247.849z M283.258,246.105
		c1.541-0.011,3.329,0.216,4.08-0.586C289.885,236.971,282.867,240.105,283.258,246.105z M276.838,246.688c1.158,0,2.332,0,3.498,0
		c-0.487-1.657,0.806-1.517,0.59-2.914C278.675,243.857,277.557,245.083,276.838,246.688z M256.422,258.929
		c0.367,8.588-6.005,21.048-0.576,25.651c3.825-4.854,1.198-12.88,1.166-19.239c-0.032-3.134,2.244-6.504,0.575-8.161
		C257.548,258.106,256.11,257.635,256.422,258.929z M248.86,263.009c0.359,6.017-1.469,9.822-1.166,15.75
		c1.549,0.379,2.195,1.669,3.473,2.335c1.406-7.154,2.699-14.432,3.505-22.166C251.67,259.228,250.68,261.539,248.86,263.009z
		 M245.937,276.427c0.168-3.062,2.843-9.426,0-11.665C242.264,266.371,242.048,274.923,245.937,276.427z M196.36,298.59
		c-3.753,9.078,4.479,18.313,13.414,15.734c6.97-2.008,15.611-7.813,22.749-12.244c7.514-4.671,15.083-9.151,21.575-13.403
		c-8.009-3.302-14.86-10.104-16.313-18.077C229.353,276.592,200.639,288.289,196.36,298.59z M258.186,285.167
		c2.284,0.343,3.385-0.495,4.663-1.166c0.591-5.166,0.2-7.142-2.915-9.326C259.639,278.471,258.681,281.602,258.186,285.167z
		 M323.941,296.23c-13.655,0.755-27.86-1.593-40.108-5.813C277.485,321.53,313.01,307.748,323.941,296.23z M329.89,298.003
		c-0.343,0.032-0.687,0.088-0.567,0.587c-3.042,4.14-1.07,7.733-1.749,15.734c-0.734,8.643-3.785,16.684-3.49,21.005
		c0.719,11.051,17.982,8.451,23.883,3.497c7.809-6.531,8.041-23.308,16.346-30.91c3.41-3.126,7.57-3.374,11.082-6.998
		C363.578,294.817,340.286,300.254,329.89,298.003z M381.799,302.666c-1.684,3.558-6.651,3.829-9.326,6.416
		c4.336,3.821,6.667,9.661,11.067,13.41c9.558,1.933,15.57-2.527,18.086-9.326C395.669,309.018,388.93,305.652,381.799,302.666z
		 M178.864,307.916c1.781,0.012,4.751,1.829,4.679-1.166C181.555,306.714,179.479,306.571,178.864,307.916z M187.033,308.494
		c0,2.54,2.22,2.843,4.081,3.498C193.852,309.768,189.868,306.558,187.033,308.494z M175.95,311.421
		c1.948,0.826,5.685,2.355,5.836-1.165C179.567,308.655,177.196,309.293,175.95,311.421z M166.049,314.911
		c1.334,0.607,1.876,2.008,4.08,1.752c0.975-1.548,1.342-3.696,2.332-5.242C169.81,311.853,167.063,311.688,166.049,314.911z
		 M184.119,313.749c1.421,1.102,2.451,2.599,5.238,2.328c-0.191-1.354,0.096-2.244,0.591-2.911
		C188.087,311.908,184.693,310.239,184.119,313.749z M354.978,335.903c0.119,4.18,0.87,5.753,1.756,8.164
		c2.044,5.163,8.193,8.696,15.155,7.589c4.288-0.69,8.967-8.145,9.327-14.005c0.614-9.782-7.554-20.584-12.824-24.485
		c-0.016-0.587-1.014-0.738-1.166,0C359.226,316.819,360.336,327.455,354.978,335.903z M174.21,318.416
		c3.378,1.917,4.367-1.745,5.261-4.092c-1.302-0.491-2.004-1.505-4.088-1.158C174.784,314.719,174.17,316.244,174.21,318.416z
		 M180.621,320.748c1.997,0.143,2.779,1.469,5.239,1.165c0.223-1.912,1.709-2.575,2.339-4.088c-1.437-1.097-3.074-1.972-5.254-2.327
		C182.546,317.602,180.917,318.512,180.621,320.748z M192.272,317.825c1.245,0.907,2.602,1.677,4.088,2.336
		c0.399-2.922-1.55-3.498-2.915-4.663C193.158,316.352,192.575,316.97,192.272,317.825z M658.219,317.242
		c0.575,2.396-1.446,3.746,0,5.25c4.847-0.211,7.274-2.85,11.65-3.493C668.95,314.088,661.692,315.534,658.219,317.242z
		 M163.709,321.327c1.701-0.148,1.788,1.317,3.489,1.165c0.495-1.461,1.598-2.291,1.757-4.076
		C166.56,316.495,163.222,317.278,163.709,321.327z M189.357,324.249c1.653-0.487,1.518,0.81,2.915,0.575
		c0.814-1.126,1.908-3.749,0.59-5.25C189.908,319.338,189.708,321.861,189.357,324.249z M152.634,325.407
		c0.966,0.778,1.94,1.545,4.056,1.162c-0.016-2.544,2.132-2.923,1.764-5.821C155.102,319.118,153.137,322.4,152.634,325.407z
		 M171.287,324.249c1.102-0.144,1.294,0.651,2.324,0.575c1.414-0.727,1.893-2.388,2.34-4.076
		C173.618,319.147,170.281,320.668,171.287,324.249z M657.044,325.407c0.136,1.881-1.029,2.479-0.575,4.671
		c7.865-1.849,15.73-3.721,21.583-7.586C672.575,317.506,664.271,326.888,657.044,325.407z M177.699,327.159
		c1.469,0.483,2.292,1.597,4.088,1.749c0.623-2.076,2.476-2.954,2.907-5.246C181.14,321.594,177.699,322.736,177.699,327.159z
		 M159.621,328.321c1.349,0.599,1.885,2.008,4.088,1.757c0.838-2.076,2.076-3.765,2.339-6.416
		C161.713,321.211,161.09,326.13,159.621,328.321z M167.198,331.83c0.767,0.591,2.156,0.568,2.93,1.162
		c0.871-2.231,2.643-3.561,2.899-6.423C168.652,324.684,167.438,329.148,167.198,331.83z M185.859,330.661
		c1.405-0.236,1.269,1.066,2.914,0.582c0.543-1.812,1.469-3.217,2.34-4.674c-1.358,0.011-1.709-0.994-3.49-0.575
		C187.105,327.623,186.218,328.876,185.859,330.661z M655.304,334.154c-0.694,2.415-1.15,5.078-1.741,7.581
		c2.069-0.327,3.019-0.171,5.822-1.158c8.009-2.83,20.552-7.034,29.744-11.669C679.067,322.161,666.754,333.16,655.304,334.154z
		 M143.3,330.661c2.795,2.515,5.462-2.499,4.072-4.092C146.701,328.624,144.083,328.708,143.3,330.661z M149.712,333.575
		c1.406-0.248,1.262,1.066,2.922,0.579c0.679-1.828,1.964-3.078,2.347-5.246c-0.902,0.012-2.403-2.168-2.939-0.587
		C152.69,328.177,148.818,330.038,149.712,333.575z M174.21,334.741c1.82-0.284,1.301,1.792,3.489,1.162
		c1.07-1.849,2.819-3.019,2.922-5.825c-2.379,0.427-2.011-1.885-4.67-1.17C176.174,331.667,173.563,331.571,174.21,334.741z
		 M192.272,333.575c0.798-0.028,1.277,0.276,1.764,0.579c0.687-1.828,1.964-3.078,2.324-5.246
		C193.309,328.776,193.069,331.451,192.272,333.575z M156.691,336.493c1.717-0.159,1.82,1.314,3.529,1.158
		c0.911-1.605,1.621-3.417,2.34-5.246c-1.158-0.814-2.372-1.537-4.105-1.744C158.487,333.212,156.347,333.595,156.691,336.493z
		 M693.224,331.83c-12.025,6.268-27.683,8.887-40.834,13.99c0.136,1.716-2.3,3.864-0.583,5.254
		c13.774-5.845,34.591-8.455,50.736-14.58C699.62,334.749,697.017,332.669,693.224,331.83z M139.22,338.825
		c1.357-0.012,1.709,0.994,3.497,0.575c0.91-1.605,1.613-3.425,2.316-5.246c-0.886-0.838-2.26-1.222-3.489-1.749
		C141.016,334.797,139.643,336.334,139.22,338.825z M181.787,338.234c1.007-0.032,1.797,0.136,2.332,0.591
		c1.094-1.828,2.611-3.218,2.914-5.833C183.623,331.319,181.915,334.865,181.787,338.234z M163.709,339.4
		c3.346,1.764,4.943-1.609,5.246-4.659C165.897,332.901,164.364,336.977,163.709,339.4z M146.207,341.156
		c1.094-0.136,1.285,0.663,2.331,0.579c1.294-1.432,2.459-2.982,2.922-5.242c-1.118-0.259-1.477-1.265-2.922-1.165
		C148.171,337.672,146.055,338.266,146.207,341.156z M189.357,339.4c0.295-2.025,3.513-1.158,2.915-4.072
		C189.796,334.813,188.446,338.474,189.357,339.4z M170.129,342.33c1.462,0.475,2.292,1.581,4.081,1.737
		c0.04-2.867,2.395-3.418,2.323-6.416c-1.852,0.096-1.94-1.549-4.072-1.158C171.358,338.123,171.023,340.498,170.129,342.33z
		 M152.634,344.067c1.349,0.195,2.396,0.711,3.49,1.166c0.982-1.944,1.948-3.876,2.914-5.833c-1.781-0.148-2.611-1.266-4.056-1.749
		C154.359,339.971,152.123,340.666,152.634,344.067z M177.124,346.406c1.102,0.244,1.453,1.254,2.907,1.166
		c0.407-2.719,2.284-3.948,2.914-6.416c-0.503-0.854-0.854-1.84-2.324-1.756C179.399,341.692,178.114,343.904,177.124,346.406z
		 M705.433,339.4c-17.767,5.749-38.032,10.744-55.965,14.58c-0.735,2.555-2.196,4.415-2.899,7.003
		c8.688,1.696,51.383-11.495,63.551-15.163C710.623,341.62,707.693,340.873,705.433,339.4z M133.375,342.905
		c1.662,0.088,1.677-1.425,1.749-2.914C133.311,339.72,133.263,341.236,133.375,342.905z M138.046,345.82
		c2.044-0.475,2.922-2.136,2.922-4.664c-0.966,0-1.94,0-2.922,0C137.679,342.483,136.88,344.67,138.046,345.82z M160.22,346.985
		c1.637-0.482,1.493,0.827,2.898,0.587c0.415-2.112,2.044-3.03,2.347-5.242c-1.23-0.352-1.676-1.457-3.505-1.174
		C162.24,343.98,159.286,343.532,160.22,346.985z M130.476,352.818c-2.946-1.345-0.918-7.653-3.505-9.33
		c-8.743,9.147-23.803,14.449-37.329,16.912c12.002,9.286,30.694,12.768,48.995,6.411c-4.455-7.976,5.558-9.941,8.735-13.993
		c0.807-1.234-1.133-3.613-2.906-4.088C139.819,350.108,137.599,353.932,130.476,352.818z M166.623,349.9
		c2.324-0.571,1.749,1.745,4.065,1.173c0.607-2.128,1.845-3.613,2.339-5.84C169.043,343.532,166.983,346.311,166.623,349.9z
		 M150.885,345.82c0.424,1.708,1.406,2.863,2.324,4.08c0.159-1.369,2.012-1.082,1.773-2.915
		C153.481,346.65,152.115,344.65,150.885,345.82z M174.784,352.231c0.367-1.972,3.728-0.93,3.497-3.501
		c-1.406,0.244-1.27-1.066-2.899-0.571C176.11,350.108,173.076,351.241,174.784,352.231z M156.124,353.405
		c1.262,0.475,1.988,1.505,4.096,1.162c-0.343-2.659,2.196-2.468,1.741-5.254C158.591,347.549,156.14,350.068,156.124,353.405z
		 M644.796,365.064c-1.174,2.699-3.785,3.98-3.49,8.168c19.595-4.483,47.15-9.518,69.396-16.333c0-2.531,0-5.058,0-7.585
		C690.405,353.972,668.487,361.858,644.796,365.064z M163.118,357.477c2.603,1.034,6.404-1.222,6.42-4.659
		C165.905,350.295,163.382,353.429,163.118,357.477z M152.043,360.983c1.158,0.007,0.751,1.593,2.34,1.161
		c2.802-0.303,2.723-3.481,4.072-5.246c-1.413-0.722-2.827-1.441-4.663-1.744C153.361,357.242,151.668,358.088,152.043,360.983z
		 M142.126,363.898c1.837-0.087,1.957,1.545,4.081,1.166c-0.232-1.401,1.078-1.266,0.59-2.919
		C145.096,360.516,142.15,360.911,142.126,363.898z M644.796,375.556c-0.767-0.088-8.728,2.46-8.153,7.589
		c21.719-2.096,49.258-8.564,71.728-15.163c0.016-1.953,2.235-4.731,0.583-6.419C687.898,367.019,663.641,372.704,644.796,375.556z
		 M635.494,386.638c-2.492,1.993-4.336,4.612-5.853,7.582c26.27-4.703,52.628-10.025,76.982-16.333
		c-0.966-2.06,1.972-4.695-0.598-4.655C683.132,377.56,659.345,385.855,635.494,386.638z M626.734,397.721
		c-1.781,3.286-4.623,5.49-5.837,9.334c14.876-1.305,67.504-12.38,82.827-19.247c0.679-1.641,1.285-3.353,1.709-5.25
		C678.397,388.008,653.946,394.907,626.734,397.721z M673.39,400.057c-12.656,2.942-50.729,9.409-53.666,10.492
		c-3.226,1.201-5.877,5.585-6.404,8.747c29.176-5.809,58.76-11.215,85.134-19.826c0.91-2.029,4.072-4.851,2.914-6.995
		C693.599,395.876,683.722,397.642,673.39,400.057z M675.13,408.804c-9.358,2.371-20.313,4.911-34.414,7.577
		c-11.299,2.923-20.258,5.039-33.233,7.586c-0.702,2.535-6.556,5.709-4.655,6.994c27.946-4.85,60.077-12.096,88.04-20.412
		c-0.151,1.334,0.152,2.191,1.182,2.339c0.966-2.731,4.056-6.408,3.497-8.751C689.256,405.914,684.943,406.672,675.13,408.804z
		 M595.825,435.633c-2.259,2.396-5.741,3.57-8.168,5.821c3.083,2.915,8.376,1.186,12.824,0.58
		c-0.608,0.032,60.014-9.503,86.428-18.278c0.431-2.439,5.038-7.262,2.81-8.544C659.241,423.968,627.197,430.008,595.825,435.633z
		 M594.667,446.125c3.984,7.786,16.01,1.633,23.899,0.583c20.592-2.763,45.601-7.717,61.803-13.418
		c-0.128-2.467,1.709-2.958,2.339-4.663C663.408,432.707,632.547,440.951,594.667,446.125z M675.13,438.544
		c-21.83,8.041-47.486,9.937-71.153,15.159c5.422,6.348,12.352,1.37,21.583,0.579c16.848-1.429,33.353-6.728,45.498-8.157
		c1.845-2.423,4.304-4.248,5.246-7.581C675.913,438.544,675.514,438.544,675.13,438.544z M613.895,460.702
		c1.837,1.082,4.352,1.481,5.829,2.918c15.035-4.991,38.311-1.741,47.246-12.828C650.002,453.623,631.605,455.97,613.895,460.702z
		 M623.237,465.951c1.916,1.19,4.392,1.809,6.404,2.923c7.849-1.876,15.802-3.641,24.489-4.679c0.176-1.964,6.236-3.586,3.505-4.655
		C647.231,464.195,635.35,462.566,623.237,465.951z M634.296,470.032c3.785,5.206,11.531-0.303,15.762-1.745
		C646.68,466.159,639.629,470.24,634.296,470.032z"/>
</g>
</svg>
