<?xml version="1.0" encoding="utf-8"?>
<!-- Generator: Adobe Illustrator 17.0.0, SVG Export Plug-In . SVG Version: 6.00 Build 0)  -->
<!DOCTYPE svg PUBLIC "-//W3C//DTD SVG 1.1//EN" "http://www.w3.org/Graphics/SVG/1.1/DTD/svg11.dtd">
<svg version="1.1" id="Layer_1" xmlns="http://www.w3.org/2000/svg" xmlns:xlink="http://www.w3.org/1999/xlink" x="0px" y="0px"
	 width="800px" height="600px" viewBox="0 0 800 600" enable-background="new 0 0 800 600" xml:space="preserve">
<path fill-rule="evenodd" clip-rule="evenodd" fill="#020000" d="M479.648,273.802c3.541-1.854,5.303,3.461,7.169,5.111
	c6.344,5.619,20.442,8.137,30.029,13.309c1.34,0.732,2.822,1.941,4.44,2.735c1.172,0.577,3.951,0.502,4.094,3.07
	c0.161,2.915-7.319,6.94-9.898,8.874c-10.63,7.969-24.008,14.302-33.788,21.502c-2.679,1.972-5.371,7.008-9.21,6.14
	c-0.36-0.081-2.921-1.247-2.729-4.093c0.149-2.233,2.276-3.039,3.752-4.094c0.565-0.409,4.366-2.747,4.435-3.076
	c0.037-0.156-1.985-4.031-2.047-4.441c-0.199-1.302,0.409-3.541,0.341-5.457c-0.049-1.421,0.415-5.036-0.682-6.14
	c-1.315-1.321-16.54-0.614-20.137-0.683c-30.457-0.564-62.812,1.854-94.188,2.388c-29.763,0.502-63.786-0.117-94.528,3.411
	c-8.608,0.986-18.134,1.296-27.648,2.053c-3.355,0.267-15.132,1.581-19.107-2.053c-1.719-1.569-2.239-4.006-1.365-5.116
	c1.017-1.303,6.537,1.488,8.869,1.705c6.152,0.577,13.675-0.496,20.819-1.023c19.97-1.47,41.813-3.988,62.453-4.093
	c35.003-0.192,70.676-1.538,104.427-3.076c15.802-0.72,35.735-0.726,49.826-0.335c2.053,0.056,9.34,0.18,9.557,0
	c1.141-0.954-0.204-11.746,0-14.68c0.192-2.704,0.763-7.033,1.024-7.51c1.327-2.382,2.803-0.279,3.411-3.752
	C479.034,274.106,479.35,273.951,479.648,273.802z M481.694,299.391c1.172-0.012,3.802-13.867,3.417-15.014
	c-0.211-0.639-3.206-2.536-3.417-2.388C479.58,283.502,480.051,299.41,481.694,299.391z M487.84,300.755
	c0.069,1.11,0.788,1.991,0.683,3.076c-0.093,0.974-1.433,2.326-1.706,3.752c-0.341,1.792-0.478,10.785-0.682,10.58
	c1.054,1.048,5.972-8.292,1.705-1.023c0.453-0.775,0.211-2.096,0.342-2.729c1.383-6.692,1.389-11.3,2.728-17.068
	c0.478-2.047,2.345-8.093,1.712-9.216c-0.347-0.601-2.636-0.756-2.729-0.682C489.242,287.967,487.704,298.547,487.84,300.755z
	 M512.071,301.103c-0.093-0.1,3.727-1.743,3.758-2.394c0.056-1.489-1.737-2.115-2.735-1.364
	C512.877,297.506,511.73,300.755,512.071,301.103z M498.08,310.653c0.831,0.961,2.362-2.76,1.023-2.388
	C498.328,308.483,498.024,310.591,498.08,310.653z"/>
</svg>
