<?xml version="1.0" encoding="utf-8"?>
<!-- Generator: Adobe Illustrator 17.0.0, SVG Export Plug-In . SVG Version: 6.00 Build 0)  -->
<!DOCTYPE svg PUBLIC "-//W3C//DTD SVG 1.1//EN" "http://www.w3.org/Graphics/SVG/1.1/DTD/svg11.dtd">
<svg version="1.1" id="Layer_1" xmlns="http://www.w3.org/2000/svg" xmlns:xlink="http://www.w3.org/1999/xlink" x="0px" y="0px"
	 width="800px" height="600px" viewBox="0 0 800 600" enable-background="new 0 0 800 600" xml:space="preserve">
<g>
	<path fill="#050505" d="M762.088,178.498c-0.838-15.427-5.462-31.448-9.773-46.959c-1.972-7.063-4.775-14.557-8.488-21.527
		c-3.354-6.325-7.506-14.077-11.075-18.92c-1.796-2.419-10.436-12.592-12.4-14.996c-9.701-11.805-20.928-19.962-33.919-27.408
		c-7.737-4.419-15.068-9.478-23.476-10.436c-22.022,14.145-49.714,37.86-69.796,58.066c-12.288,12.344-28.394,25.308-13.055,42.395
		c-12.96,8.169-24.37,17.347-43.702,16.952c-38.631-0.778-80.431-16.516-116.099-11.083c0.383-19.767-9.822-38.698-29.352-40.439
		c-32.754-2.926-34.79,33.569-33.257,64.574c-17.774,15.857-23.619,39.042-33.281,63.918c-4.4,11.339-8.416,22.957-13.687,33.92
		c-4.95,10.297-8.943,21.758-13.71,33.915c-4.623,11.814-11.442,25.017-11.953,36.268c-0.4,8.472-1.781,17.682,9.342,21.79
		c4.599,1.689,11.826-2.742,11.738-0.658c-11.155,8.096-23.611,0.056-36.635,2.547c-16.936,3.249-26.174,18.745-33.161,32.681
		c-8.912,18.234-17.264,28.39-29.321,39.789c-20.257,19.099-46.16,33.476-54.808,37.819c-5.757,2.903-11.602,7.374-16.313,8.492
		c-2.619,0.623-6.141,0-9.119,0.647c-4.551,0.994-8.288,3.569-12.408,3.917c-12.241,1.043-26.071-8.264-37.178,1.306
		c-6.037,13.59,15.339,14.875,22.613,20.661c4.631,3.677,4.4,11.322,9.359,14.564c6.651,4.344,17.782-0.799,24.13,2.607
		c5.302,2.831,5.566,10.021,6.811,15.703c6.236,14.193,20.665,5.617,27.771,16.265c1.917,2.867,1.597,6.181,3.25,9.122
		c3.561,6.34,18.381,15.918,24.793,16.961c7.106,1.158,17.854,1.029,26.565,0.075c9.311-1.022,18.868-5.944,24.729-8.132
		c5.19-1.928,8.8-2.199,13.918-3.689c8.257-2.379,42.655-24.952,59.351-43.046c12.377-11.039,23.97-24.278,35.245-39.138
		c14.812-19.555,35.373-37.537,34.567-67.835c-4.999-11.095-11.068-21.128-17.615-30.658c15.195-5.67,21.878-19.855,27.396-35.222
		c0.079,5.042,4.176,8.073,6.523,13.051c2.619,5.546,2.922,12.529,5.877,16.948c9.685,14.568,25.495,4.851,26.733-12.381
		c0.759-10.607-5.829-19.758-4.576-30.015c2.004-16.229,21.376-19.742,30.015-26.737c10.651,3.876,20.441,0.159,28.626-0.762
		c6.627-0.747,12.744-2.623,18.972-3.154c34.591-2.922,57.148-10.62,76.998-28.047c4.815-4.244,9.782-10.815,15.738-15.817
		c19.794-26.874,37.25-35.765,67.089-44.192c6.723,6.196,13.678,14.752,25.431,11.737c11.083-2.842,22.182-8.723,31.963-14.996
		c7.266-4.667,15.323-9.07,19.571-12.396c3.122-2.435,11.179-10.236,12.376-14.352C762.543,188.55,762.279,181.871,762.088,178.498z
		"/>
	<path fill="#FFFFFF" d="M730.508,148.742c-0.814-14.96-5.35-30.806-9.686-46.336c-1.908-6.879-4.663-14.177-8.248-20.929
		c-3.329-6.296-7.473-14.005-10.835-18.548c-0.766-1.042-3.417-4.24-6.02-7.366c-2.627-3.142-5.27-6.268-6.292-7.506
		C680.02,36.61,669.16,28.69,656.328,21.347c-7.49-4.335-14.261-8.827-21.319-9.917c-21.559,13.998-48.707,37.277-68.366,57.052
		c-4.416,4.432-9.175,8.839-12.704,13.262c-3.577,4.456-5.782,8.804-5.757,13.064c0.007,3.509,1.373,7.358,5.518,11.985l2.347,2.619
		l-2.971,1.885c-6.284,3.948-12.328,8.257-19.332,11.65c-7.01,3.386-14.987,5.789-24.769,5.781c-0.415,0-0.83-0.011-1.253-0.011
		c-33.584-0.719-68.877-12.277-99.994-12.225c-5.342,0-10.556,0.331-15.594,1.101l-3.49,0.536l0.056-3.526
		c0.024-0.367,0.024-0.711,0.024-1.05c0-9.167-2.428-18.01-6.979-24.614c-4.576-6.587-11.003-10.963-19.682-11.765
		c-1.158-0.108-2.26-0.148-3.338-0.148c-5.765,0.004-10.085,1.429-13.535,3.849c-3.473,2.424-6.124,5.941-8.145,10.412
		c-4.088,8.912-5.39,21.488-5.374,34.307c0,4.364,0.151,8.752,0.343,13.055l0.079,1.41l-1.062,0.946
		c-16.888,15.011-22.764,37.645-32.458,62.781c-4.375,11.27-8.424,22.964-13.798,34.139c-4.863,10.073-8.815,21.48-13.614,33.708
		c-4.743,11.985-11.37,25.108-11.754,35.325c-0.12,2.244-0.28,4.436-0.28,6.463c0,2.935,0.352,5.474,1.397,7.426
		c1.03,1.94,2.691,3.605,6.3,4.963c0.32,0.136,0.814,0.215,1.446,0.215c1.773,0.016,4.271-0.762,6.3-1.285
		c0.711-0.159,1.349-0.324,2.22-0.331c0.543,0.007,1.269,0.024,2.219,0.63c0.99,0.611,1.558,2.033,1.501,2.879l0.04,1.517
		l-1.277,0.926c-4.544,3.306-9.463,4.292-14.101,4.28c-6.532-0.032-12.744-1.705-18.661-1.669c-1.701,0-3.401,0.128-5.078,0.443
		c-7.673,1.482-13.606,5.682-18.62,11.378c-5.006,5.678-8.959,12.816-12.4,19.686c-9.055,18.501-17.782,29.129-29.983,40.635
		c-20.617,19.451-46.671,33.868-55.503,38.323c-2.675,1.365-5.541,3.17-8.376,4.831c-2.843,1.657-5.63,3.186-8.584,3.889
		c-1.813,0.419-3.522,0.388-5.11,0.399c-1.565,0-2.994,0.025-4.065,0.271c-3.857,0.755-7.585,3.422-12.784,3.973
		c-0.751,0.064-1.509,0.096-2.267,0.096c-8.232-0.076-16.133-3.218-22.812-3.142c-3.67,0.032-6.787,0.763-9.889,3.206
		c-0.407,1.07-0.539,1.924-0.539,2.607c0.011,1.102,0.315,1.877,1.002,2.771c0.679,0.874,1.821,1.789,3.31,2.643
		c2.983,1.737,7.203,3.173,11.095,4.731c2.599,1.061,5.087,2.148,7.143,3.76c3.114,2.536,4.288,5.945,5.454,8.64
		c1.101,2.791,2.14,4.814,3.657,5.764c1.486,0.983,3.625,1.378,6.3,1.365c2.979,0.016,6.42-0.479,9.853-0.491
		c2.595,0.011,5.271,0.28,7.769,1.605c3.634,1.932,5.39,5.342,6.364,8.527c0.943,3.102,1.334,6.28,1.885,8.859
		c0.975,2.144,2.108,3.502,3.306,4.491c1.253,1.022,2.683,1.681,4.36,2.168c3.314,1.018,7.538,1.146,11.834,2.715
		c2.85,1.046,5.765,2.947,7.889,6.164c1.294,1.961,1.773,3.929,2.156,5.51c0.375,1.604,0.679,2.85,1.221,3.809
		c0.935,1.712,3.657,4.483,6.939,6.987c3.298,2.543,7.186,4.97,10.492,6.576c2.196,1.065,4.16,1.764,5.239,1.924
		c3.289,0.539,7.577,0.803,12.081,0.803c4.591,0,9.414-0.271,13.694-0.739c8.568-0.922,17.886-5.637,24.035-7.969
		c5.573-2.056,9.326-2.343,14.133-3.753c1.485-0.403,5.198-2.216,9.718-4.894c4.559-2.687,10.092-6.26,15.913-10.312
		c11.586-8.117,24.274-18.225,32.363-27.005l0.096-0.1l0.111-0.1c12.177-10.876,23.636-23.959,34.838-38.711
		c7.394-9.749,15.978-18.919,22.621-29.104c6.635-10.205,11.338-21.284,11.338-35.21c0-0.348,0-0.702,0-1.066
		c-4.839-10.668-10.715-20.362-17.104-29.636l-2.14-3.134l3.569-1.333c6.947-2.612,11.898-7.071,15.914-12.892
		c4.024-5.805,6.995-12.956,9.718-20.553l5.757,0.95c0.047,1.689,0.694,3.102,1.932,4.963c1.213,1.848,2.954,3.992,4.32,6.867
		c1.493,3.17,2.236,6.48,2.994,9.423c0.743,2.958,1.541,5.518,2.659,7.162c2.939,4.352,5.965,5.729,8.719,5.761
		c2.691,0.008,5.606-1.461,8.017-4.396c2.411-2.906,4.2-7.206,4.576-12.324c0.04-0.503,0.04-1.002,0.04-1.497
		c0.007-3.957-1.07-7.921-2.284-12.125c-1.174-4.192-2.491-8.62-2.5-13.486c0-1.011,0.056-2.025,0.191-3.051
		c0.567-4.627,2.428-8.484,4.967-11.574c2.539-3.074,5.685-5.437,8.943-7.434c6.492-3.932,13.494-6.644,17.152-9.678l1.317-1.062
		l1.581,0.579c3.138,1.146,6.188,1.549,9.222,1.549c6.156,0.02,12.176-1.781,18.062-2.479c6.284-0.695,12.384-2.572,19.068-3.162
		c34.303-2.919,55.95-10.392,75.257-27.317c4.432-3.849,9.366-10.356,15.53-15.626c9.973-13.482,19.531-22.669,30.375-29.492
		c10.931-6.863,23.068-11.263,38.08-15.515l1.613-0.451l1.222,1.122c2.962,2.763,5.829,5.757,8.871,7.957
		c3.042,2.22,6.117,3.617,9.813,3.617c1.222,0,2.548-0.152,3.993-0.523c10.58-2.699,21.455-8.444,31.109-14.625
		c7.354-4.719,15.467-9.19,19.332-12.237c2.06-1.589,7.178-6.464,9.805-10.121c0.87-1.193,1.461-2.295,1.573-2.734
		c0.471-1.541,0.726-4.612,0.686-7.41C730.659,152.012,730.58,150.099,730.508,148.742L730.508,148.742z"/>
	<g>
		<path fill="#090909" d="M731.881,148.574c-0.847-15.435-5.47-31.448-9.79-46.963c-1.964-7.066-4.775-14.552-8.488-21.527
			c-3.346-6.316-7.506-14.065-11.083-18.908c-1.78-2.435-10.412-12.6-12.384-15.007c-9.71-11.79-20.928-19.962-33.927-27.392
			c-7.714-4.423-15.059-9.498-23.476-10.445c-22.014,14.133-49.714,37.865-69.803,58.054c-12.281,12.349-28.386,25.328-13.04,42.404
			c-12.959,8.172-24.377,17.346-43.701,16.956c-38.639-0.778-80.448-16.516-116.099-11.095c0.383-19.747-9.813-38.702-29.36-40.436
			c-32.754-2.914-34.766,33.564-33.249,64.57c-17.775,15.862-23.619,39.058-33.273,63.931c-4.407,11.334-8.423,22.956-13.701,33.923
			c-4.951,10.28-8.935,21.743-13.687,33.915c-4.647,11.81-11.466,25.004-11.969,36.263c-0.407,8.472-1.773,17.682,9.342,21.783
			c4.599,1.693,11.817-2.735,11.738-0.651c-11.171,8.096-23.611,0.056-36.658,2.551c-16.912,3.246-26.158,18.74-33.13,32.67
			c-8.927,18.245-17.295,28.39-29.352,39.78c-20.234,19.112-46.137,33.481-54.792,37.841c-5.749,2.902-11.586,7.365-16.305,8.487
			c-2.643,0.611-6.141,0-9.135,0.647c-4.544,0.99-8.288,3.558-12.392,3.909c-12.241,1.05-26.067-8.248-37.174,1.313
			c-6.037,13.582,15.346,14.868,22.597,20.653c4.635,3.681,4.392,11.319,9.37,14.561c6.652,4.356,17.782-0.795,24.122,2.615
			c5.31,2.838,5.549,10.025,6.811,15.698c6.236,14.193,20.673,5.625,27.764,16.257c1.908,2.878,1.621,6.2,3.258,9.127
			c3.569,6.352,18.365,15.925,24.793,16.968c7.131,1.15,17.839,1.026,26.55,0.072c9.318-1.018,18.884-5.933,24.761-8.121
			c5.159-1.928,8.783-2.208,13.91-3.689c8.256-2.387,42.655-24.948,59.359-43.054c12.377-11.047,23.963-24.278,35.222-39.129
			c14.812-19.548,35.381-37.549,34.566-67.844c-4.983-11.107-11.035-21.124-17.598-30.654c15.187-5.681,21.878-19.862,27.38-35.225
			c0.096,5.047,4.184,8.085,6.54,13.035c2.619,5.553,2.922,12.54,5.845,16.964c9.718,14.561,25.528,4.843,26.774-12.388
			c0.75-10.596-5.845-19.746-4.567-30.003c1.996-16.229,21.359-19.751,29.975-26.745c10.692,3.896,20.465,0.155,28.641-0.763
			c6.62-0.742,12.736-2.615,18.996-3.158c34.575-2.911,57.116-10.608,76.966-28.039c4.823-4.236,9.782-10.812,15.754-15.826
			c19.803-26.861,37.241-35.756,67.089-44.188c6.723,6.196,13.686,14.756,25.431,11.746c11.083-2.842,22.182-8.723,31.972-15.007
			c7.274-4.663,15.315-9.071,19.563-12.384c3.114-2.432,11.178-10.241,12.401-14.349
			C732.328,158.619,732.056,151.944,731.881,148.574z M651.641,22.689c3.378,1.621,6.939,3.062,9.142,5.869
			c0.854,10.871,0.088,21.024-0.647,31.955c-1.421,20.613,0.392,40.164,0.647,61.958c0.128,11.554-0.558,23.759,0.639,35.233
			c0,0.052-0.016,0.076-0.016,0.115c0.224,0.192,0.447,0.375,0.687,0.547c-0.367-0.039-0.727-0.107-0.687-0.547
			c-5.861-5.178-6.898-19.682-7.793-30.115C650.619,93.731,651.322,56.025,651.641,22.689z M640.55,16.162
			c3.002,1.353,5.718,2.986,8.488,4.567c-2.379,37.19-0.312,74.12,1.957,120.017c-2.116-1.573-3.401-3.993-5.214-5.869
			C643.162,97.367,640.167,58.669,640.55,16.162z M635.328,14.864c3.361,7.625,1.693,16.968,1.98,26.086
			c0.711,25.388,1.087,58.728,5.214,89.358c-3.521-1.261-4.663-4.923-7.84-6.52c-4.249-30.322-3.873-70.538-7.171-105.667
			C629.483,16.629,632.885,13.754,635.328,14.864z M624.892,20.078c2.723,29.871,1.173,67.304,5.876,98.485
			c-3.066-1.047-5.166-3.098-7.17-5.214c-1.222-22.545-2.763-44.272-3.921-70.443c-0.216-5.07,0.799-11.945-3.257-15.658
			c-2.037,23.1,2.778,51.957,3.257,82.196c-3.058-0.854-4.264-3.561-7.163-4.571c-1.988-25.14-2.195-49.135-3.928-71.748
			C613.546,28.29,618.568,23.535,624.892,20.078z M598.813,42.256c0.998-4.017,5.566-4.452,7.179-7.83
			c1.421,22.546,1.269,46.017,2.595,67.184c-2.987-0.922-4.791-3.03-7.171-4.567C601.417,76.91,598.502,60.218,598.813,42.256z
			 M594.246,45.518c4.056,16.68,3.034,32.757,3.921,48.915c-8.376-2.679-7.673-17.271-8.487-28.047
			c-0.455-6.001-0.504-11.482-0.655-15.654C589.391,47.622,593.424,48.181,594.246,45.518z M578.588,60.514
			c-0.934,4.375,0.599,8.556,0.647,13.701c4.519-2.379,0.814-12.316,1.317-17.61c3.163-0.104,3.146-3.401,5.861-3.912
			c0.791,12.684,1.047,25.923,3.266,37.182c-1.733-1.098-4.137-1.518-5.877-2.615c-0.168-5.051-1.573-8.848-1.948-13.698
			c-3.306,1.457-1.213,7.809-0.647,11.086c-1.501,2.072-3.457-0.838-5.23-0.651C575.674,76.324,571.242,60.928,578.588,60.514z
			 M571.402,65.732c1.022,4.867,1.15,10.607,1.317,16.305c-2.116,0.379-3.026-0.439-4.559-0.643c0.263-4.62-0.231-8.46-0.662-12.392
			C568.495,67.592,570.292,66.993,571.402,65.732z M564.255,71.608c2.195,1.262,2.555,7.159,1.285,9.786
			c-2.06,0.316-2.292-1.186-4.567-0.655C559.257,75.413,562.762,75.169,564.255,71.608z M379.653,93.786
			c1.853,1.625,2.787,4.168,2.587,7.825c-4.127,3.674-7.362,8.28-12.384,11.087C368.506,102.658,374.519,98.909,379.653,93.786z
			 M378.344,91.83c-3.298,3.226-6.971,6.069-9.79,9.782c-2.579-1.549-4.336-3.921-8.48-3.904c2.347-5.725,7.689-8.428,11.083-13.059
			C375.062,85.534,376.731,88.66,378.344,91.83z M355.524,118.563c-2.93-1.21-4.289-3.988-5.885-6.508
			c0.519-6.552,7.082-11.446,13.71-7.833C367.269,111.477,361.76,117.478,355.524,118.563z M360.075,123.135
			c-9.279,9.865-17.902,20.349-28.058,29.356c-2.26-18.588,11.553-21.084,17.622-31.313
			C352.09,123.146,355.931,124.736,360.075,123.135z M347.674,79.433c-2.052,4.683-6.268,12.852-11.737,16.31
			C337.869,88.32,342.005,83.091,347.674,79.433z M352.25,79.433c3.489,0.371,5.701-1.513,8.48,0
			c-9.438,9.894-17.871,20.833-27.388,30.666C334.54,96.765,345.925,89.63,352.25,79.433z M332.687,115.313
			c10.723-12.072,19.563-25.04,30.662-35.229c2.371,0.235,3.904,1.321,5.861,1.953c-3.298,6.707-9.877,10.129-13.686,16.313
			c-11.69,4.404-14.03,18.162-22.837,25.439C331.313,121.502,333.31,119.761,332.687,115.313z M332.016,127.705
			c5.677-2.195,9.853-19.187,15.658-9.142c-4.096,6.551-9.534,11.777-15.658,16.313C331.082,131.978,332.048,131.04,332.016,127.705
			z M332.016,157.705c16.481-17.894,33.249-35.481,50.224-52.831c2.092,2.279,1.972,6.731,1.972,11.091
			c-17.678,16.014-37.473,33.389-52.827,49.57C330.866,162.196,332.295,160.795,332.016,157.705z M330.73,172.061
			c15.898-18.468,34.039-34.662,52.181-50.883c3.01,2.443-0.543,8.225,0.654,13.043c-20.137,15.954-37.337,34.854-54.791,53.478
			C329.716,181.779,329.892,178.541,330.73,172.061z M354.197,166.193c9.271-9.019,17.743-18.789,27.396-27.408
			c0.767-0.1,1.174,0.148,1.318,0.659c-0.056,3.861-1.102,6.724-1.318,10.436C372.236,155.07,369.593,166.999,354.197,166.193z
			 M380.3,156.403c-0.639,2.627-0.878,5.649-2.619,7.174c-2.619,0.029-4.759,0.056-5.198,0.651
			C372.563,161.685,376.795,157.693,380.3,156.403z M268.098,323.382c-17.152-3.837-4.065-30.854,1.317-45.011
			c2.076-5.454,3.441-11.55,5.877-16.948c1.069-2.419,7.266-15.23,9.134-19.574c12.544-29.432,22.485-69.033,40.42-93.275
			c0.599-0.288,1.166-0.579,1.317-1.31c1.797,16.912-2.219,39.026-5.868,54.8c-3.921,4.364-13.303,10.104-19.571,17.598
			c-4.464,5.342-11.61,12.464-9.782,21.543c1.645,8.137,12.64,11.159,22.813,12.384
			C302.704,281.007,299.718,316.503,268.098,323.382z M339.865,243.806c8.935-6.572,17.192-12.054,23.484-17.611
			c0.742,0.227,1.645,1.146,0.647,1.297c-0.527,7.866-6.468,13.411-11.746,17.611c-12.353,9.885-27.915,19.539-39.781,28.709
			C315.288,257.595,327.305,253.036,339.865,243.806z M319.648,252.285c2.435,0.04,4.503-0.275,5.861-1.306
			c0.622,2.168-4.544,4.144-5.861,6.527C318.306,256.944,318.953,252.956,319.648,252.285z M300.723,305.772
			c1.972-12.764,16.465-21.412,27.404-28.698c8.815-5.897,17.806-10.64,24.776-16.305c0.487,5.936-4.567,11.961-5.23,18.912
			C331.553,287.897,316.765,297.456,300.723,305.772z M345.726,283.598c-0.032,4.316-2.044,6.647-1.964,11.086
			c-12.241,5.789-27.82,11.75-36.507,18.916c-5.477,0.774-12.592,5.11-17.622,8.484c-0.152-3.422,4.886-7.298,6.531-11.095
			C312.98,302.155,328.247,291.775,345.726,283.598z M307.894,289.462c-1.11-2.87,2.491-6.639,2.619-10.436
			c9.023-8.975,35.181-22.765,48.268-38.483c1.773,5.657-2.468,9.862-3.258,16.31C339.897,267.975,322.825,277.653,307.894,289.462z
			 M252.455,336.417c-9.773,5.685-20.593,10.273-31.3,15.012C224.181,342.37,239.184,333.108,252.455,336.417z M236.805,347.516
			c5.765-2.723,15.435-9.242,20.218-10.436c4.854-1.206,12.057,0.359,16.321-0.663c5.142-1.217,6.771-6.544,11.082-9.773
			c3.41-2.575,9.215-4.731,13.687-7.178c12.991-7.095,31.061-15.515,43.038-22.166c2.419,2.54-2.028,9.147-2.594,13.036
			c-23.571,11.889-50.042,20.844-72.399,33.923c-19.092,4.383-32.602,17.838-50.888,20.868
			C211.852,354.356,227.055,352.124,236.805,347.516z M283.125,368.393c11.506-5.534,24.138-10.352,34.558-15.663
			c4.44-2.259,7.93-5.549,12.393-7.166c3.338,1.217,2.004,7.127,3.266,10.428c-30.869,9.362-53.251,27.208-81.55,39.142
			c-2.93-1.186-4.479-3.765-7.17-5.214C253.253,381.604,270.421,374.477,283.125,368.393z M239.408,386.655
			c-1.685-2.005-4.08-3.298-5.861-5.218c32.235-18.202,66.41-34.463,98.469-52.836c0.95,2.914,0.039,9.593-0.631,13.047
			C301.993,357.925,269.12,370.705,239.408,386.655z M333.342,357.957c3.785,0.136,3.313,4.515,5.868,5.865
			c-25.959,13.175-52.548,25.743-77.612,39.788c-2.268-1.872-4.664-3.613-6.532-5.873
			C280.833,384.155,306.297,370.266,333.342,357.957z M333.989,324.033c-23.372,13.838-54.129,29.125-81.533,43.046
			c-5.598,2.851-15.147,11.474-20.88,11.099c-5.47-0.367-8.424-9.174-13.032-9.138c37.569-20.023,78.802-36.439,117.394-55.439
			C337.27,316.455,334.443,320.775,333.989,324.033z M184.624,429.709c3.761,0.352,4.527,3.717,7.17,5.214
			c-1.94,1.677-6.244,0.195-7.817-0.651C184.185,432.743,184.983,431.816,184.624,429.709z M220.5,461.013
			c2.156,0.252,2.874,1.9,4.559,2.611c-0.838,2.451-3.849,1.669-5.876,1.306C218.496,462.491,220.811,463.065,220.5,461.013z
			 M250.499,487.75c-0.942,1.022-1.373,2.54-1.948,3.921c-1.318,0-2.603,0-3.929,0c0.176-3.249,0.287-2.774,0.662-5.222
			C247.768,486.138,249.436,486.632,250.499,487.75z M247.233,483.842c0-0.874,0-1.733,0-2.603c2.012,0.16,2.931,1.41,4.559,1.957
			C251.521,484.64,248.583,483.447,247.233,483.842z M247.888,494.928c-0.343,1.833-0.958,3.394-1.294,5.214
			c-1.31,0-2.611,0-3.921,0C242.203,495.38,243.848,493.711,247.888,494.928z M238.106,482.536c0.104-1.852,1.19-2.715,1.302-4.567
			c3.194-1.062,5.637,0.335,6.54,3.27C244.718,483.063,241.092,482.476,238.106,482.536z M242.027,485.148
			c-0.056,2.558-1.158,4.059-1.964,5.872c-1.741-0.004-3.721,0.235-4.576-0.658c-0.399-2.595,1.733-2.62,1.317-5.214
			C238.545,485.148,240.278,485.148,242.027,485.148z M191.147,517.107c-2.051-0.136-4.791,0.439-5.876-0.651
			c-0.136-2.823,4.472-3.386,6.523-1.953C191.882,515.665,190.979,515.877,191.147,517.107z M177.446,510.579
			c0.151-4.108,2.746-8.787,7.825-5.869c0.591,2.987-1.078,3.702-1.294,5.869C181.797,510.579,179.626,510.579,177.446,510.579z
			 M178.1,516.456c0-0.867,0-1.737,0-2.607c1.302,0,2.603,0,3.921,0C182.603,516.616,180.44,516.631,178.1,516.456z
			 M172.878,498.191c-1.781,0.475-1.318-1.298-2.603-1.298c-0.048-1.965,1.925-3.318,3.258-1.965
			C174.068,496.769,172.614,496.622,172.878,498.191z M170.938,516.456c-0.32-2.037,0.55-2.915,2.594-2.607
			C173.828,515.893,172.966,516.759,170.938,516.456z M160.478,487.75c0.168-1.141,1.133-1.481,2.619-1.302
			c0.471,1.997-0.679,2.376-0.655,3.913c-1.892-0.559-0.734-0.971-0.655-2.612C161.364,487.75,160.917,487.75,160.478,487.75z
			 M157.228,489.711c-2.699,0.515-3.346-0.998-5.876-0.655c0-1.082,0-2.168,0-3.262c1.182-0.994,5.334-0.994,6.515,0
			C157.883,487.331,156.757,487.726,157.228,489.711z M146.129,465.585c-0.439-2.631,0.63-3.733,0.662-5.881
			c2.069,0.54,4.791,0.419,6.524,1.31c0.456,2.411-1.126,2.799-0.655,5.218C150.129,466.363,147.853,466.251,146.129,465.585z
			 M148.101,485.148c0,1.301,0,2.603,0,3.908C143.701,490.561,143.701,483.646,148.101,485.148z M140.915,456.446
			c-0.328-2.926,0.32-4.886,0.647-7.167c1.749,0,3.497,0,5.23,0c-0.096,3.166-0.479,6.049-1.956,7.826
			C143.286,457.112,142.919,455.979,140.915,456.446z M143.534,464.275c-2.124,0.375-3.034-0.447-4.576-0.651
			c0.192-2.85,1.397-4.706,5.214-3.921C144.564,461.812,143.733,462.742,143.534,464.275z M153.315,457.751
			c-2.419,0.459-2.803-1.11-5.214-0.647c0.295-4.276,0.695-8.444,6.516-7.179C154.545,452.904,155.144,456.533,153.315,457.751z
			 M152.005,481.881c-0.271-1.568,1.198-1.413,0.655-3.257c1.957,0,3.897,0,5.877,0
			C159.695,483.039,155.104,481.717,152.005,481.881z M153.315,475.37c-0.863-4.779,1.86-5.981,6.523-5.226
			c0.791,0.878-0.064,3.781-0.654,5.226C157.228,475.37,155.264,475.37,153.315,475.37z M155.264,466.878
			c-1.414-6.172,2.763-6.567,6.523-4.567c0,1.313,0,2.619,0,3.921C160.646,467.932,157.228,467.764,155.264,466.878z
			 M165.045,462.311c3.281,0.846,0.902,4.687,0.662,5.226C162.681,467.401,165.452,463.939,165.045,462.311z M165.708,451.227
			c1.174-0.083,1.382,0.807,2.612,0.655c-1.015,2.475,0.654,7.617-2.612,7.821C163.943,457.304,166.434,454.661,165.708,451.227z
			 M163.097,447.97c-1.525,0-3.058,0-4.559,0c-1.437-4.891,2.235-7.498,5.861-5.226C164.238,444.76,163.72,446.437,163.097,447.97z
			 M163.097,451.227c-0.591,2.675-0.503,6.013-1.957,7.829c-2.06,0.324-2.299-1.186-4.583-0.654
			c-0.104-3.154,0.527-5.574,1.309-7.83C160.118,450.285,161.524,450.832,163.097,451.227z M161.14,482.536c0-1.09,0-2.172,0-3.262
			c0.774-0.751,2.3-0.731,3.905-0.651C164.542,480.712,164.502,483.295,161.14,482.536z M162.442,475.37
			c-0.375-2.124,0.439-3.042,0.655-4.571c0.862,0,1.724,0,2.611,0C165.971,473.665,165.883,476.192,162.442,475.37z
			 M166.354,486.448c1.062-0.179,1.118,0.615,1.965,0.663c0.096,1.616-1.038,2.012-1.31,3.25
			C164.87,489.986,166.067,487.898,166.354,486.448z M167.009,483.195c0.424-2.527,0-2.328,0.647-3.921c0.663,0,1.31,0,1.957,0
			C169.269,481.091,169.684,483.682,167.009,483.195z M168.966,471.454c0.647,0,1.309,0,1.972,0
			c-1.119,0.87-0.232,3.688-1.325,4.555C168.151,475.725,169.349,472.803,168.966,471.454z M225.706,483.195
			c-0.04,2.994-1.549,4.515-1.948,7.167c-0.59-0.5-1.477-0.687-2.603-0.651c0.111-2.48,0.567-4.639,1.294-6.516
			C223.534,483.195,224.62,483.195,225.706,483.195z M224.396,476.668c1.598-0.26,1.437,1.186,3.282,0.65
			c-0.384,1.585-0.567,3.358-2.619,3.262c-0.016-0.635-0.799-0.5-1.302-0.651C223.542,478.416,223.853,477.418,224.396,476.668z
			 M223.119,492.976c0.495,3.334-1.174,4.496-4.576,3.917C218.479,494.01,219.717,492.406,223.119,492.976z M217.234,489.056
			c-2.379,0.204-4.24-0.104-5.869-0.655c0.2-2.392,1.597-3.601,1.948-5.865c2.451,0.383,1.98,0.487,5.23,0.659
			C218.743,485.778,217.026,486.465,217.234,489.056z M215.269,496.234c-1.956,0-3.904,0-5.853,0
			c-0.335-2.052,1.166-2.295,0.655-4.563c2.683-0.515,3.314,1.002,5.853,0.647C216.412,494.306,214.807,494.234,215.269,496.234z
			 M219.821,479.929c-1.94,0-3.897,0-5.845,0c0.016-3.238,1.901-4.62,5.845-3.921C220.58,478.061,219.893,477.494,219.821,479.929z
			 M213.314,472.75c-2.595,0.483-2.619,0.483-5.214,0c-0.056-2.431,0.271-4.499,1.317-5.872c1.429-1.446,2.667,0.655,5.214,0
			C214.966,469.62,213.481,470.527,213.314,472.75z M211.365,476.009c0,0.878,0,1.749,0,2.615c-1.509,1.8-2.148,0.399-5.222,0.651
			C205.521,475.956,208.929,474.216,211.365,476.009z M209.417,482.536c0.407,2.595-1.733,2.627-1.317,5.214
			c-1.31,0-2.603,0-3.905,0c-1.477-1.561,1.422-2.399,0.647-5.214C206.359,482.536,207.883,482.536,209.417,482.536z
			 M206.143,494.928c-0.399,1.397-4.016,0.619-4.567,0c-0.471-1.992,1.142-1.912,0.663-3.908c1.302,0,2.603,0,3.904,0
			C206.902,492.748,204.906,494.853,206.143,494.928z M189.183,492.976c-2.523,0.132-4.807,0.02-6.523-0.659
			c-0.271-1.565,1.205-1.413,0.647-3.262c2.172,0,4.36,0,6.523,0C190.309,491.06,188.72,490.984,189.183,492.976z M179.402,491.671
			c-1.413-0.1-1.397-1.645-1.302-3.27c0.647,0,1.302,0,1.94,0C180.328,489.982,178.867,489.822,179.402,491.671z M173.532,472.092
			c1.526,0,3.034,0,4.567,0c-0.096,1.884,0.36,4.275-0.654,5.226c-1.087,0-2.173,0-3.274,0
			C173.182,476.368,173.613,473.976,173.532,472.092z M190.5,470.799c-0.335-4.188,2.883-7.758,7.171-5.214
			C197.783,468.252,196.17,472.06,190.5,470.799z M198.326,474.707c2.044-0.316,2.299,1.174,4.551,0.663
			c1.07,4.112-2.842,3.234-5.869,3.253C197.232,477.095,197.79,475.928,198.326,474.707z M195.052,474.707
			c-0.903,0.842-0.407,3.086-1.285,3.917c-1.973,0-3.937,0-5.877,0C187.147,473.565,192.018,472.459,195.052,474.707z
			 M188.536,462.311c-1.853,0.555-1.693-0.914-3.266-0.639c0.359-2.687,1.868-4.228,1.948-7.183c1.541,0,3.042,0,4.575,0
			C191.459,457.855,190.549,460.634,188.536,462.311z M188.536,464.93c0.271,2.667-0.607,4.18-1.317,5.869
			c-1.525,0.016-1.925-1.126-3.912-0.655C182.899,465.293,185.702,463.348,188.536,464.93z M185.926,473.405
			c-1.166,1.889-0.695,5.406-4.575,4.563c-0.28-2.244,0.263-3.652,0.67-5.218C184.001,472.279,184.384,473.426,185.926,473.405z
			 M182.021,461.672c-1.892-0.092-4.28,0.347-5.23-0.659c1.357-4.136,0.846-9.614,7.186-7.178
			C184.081,457.22,182.635,459.013,182.021,461.672z M181.35,464.275c0.184,2.352-1.19,3.142-1.31,5.218
			c-2.403,0.455-2.77-1.122-5.198-0.647C174.387,463.405,176.838,463.748,181.35,464.275z M180.04,485.148
			c-1.5-1.454,0.24-2.544,0-4.567c0.599,0.511,1.494,0.698,2.62,0.658C182.548,483.291,182.204,485.123,180.04,485.148z
			 M182.021,495.587c2.715-0.355,3.641,1.13,5.869,1.306c0.343,2.515-1.669,2.683-1.964,4.559c-2.419,0.463-2.803-1.118-5.222-0.647
			C180.536,498.458,181.909,497.655,182.021,495.587z M185.271,485.148c-0.831-4.408,4.256-4.544,7.17-3.267
			c-0.518,1.23-1.086,2.388-1.294,3.913C188.768,486.002,186.899,485.698,185.271,485.148z M198.326,490.362
			c0.351,2.119-0.455,3.042-0.655,4.567c-1.573-0.395-2.979-0.93-5.23-0.647C191.163,489.93,195.619,488.653,198.326,490.362z
			 M194.405,486.448c0.008-3.896,2.435-5.382,7.17-4.568c-0.159,2.021-0.662,3.698-1.294,5.231
			C197.751,487.459,197.096,485.946,194.405,486.448z M204.194,472.75c-2.459,0.504-3.13-0.794-5.23-0.658
			c1.03-3.102,0.95-7.306,6.531-5.861C204.961,468.307,205.081,471.038,204.194,472.75z M198.326,462.973
			c-2.428,0.451-2.803-1.122-5.222-0.662c-0.024-4.779,2.635-8.196,7.825-5.865C200.074,458.642,199.691,461.297,198.326,462.973z
			 M193.104,452.537c-1.733-0.012-3.737,0.244-4.567-0.655c0.184-3.526,1.15-6.236,5.869-5.214
			C193.854,448.505,193.631,450.689,193.104,452.537z M187.89,443.398c-1.541-0.85-4.519-0.28-5.869-1.306
			c0.479-1.477,0.567-3.334,1.286-4.567c3.098-0.475,4.487,0.739,7.194,0.659C190.197,440.496,188.832,441.753,187.89,443.398z
			 M187.219,446.013c-0.814,1.565-0.831,3.937-1.948,5.214c-2.235,0.284-3.657-0.259-5.23-0.655
			C179.314,445.905,183.307,444.041,187.219,446.013z M178.747,442.093c-2.1,0.148-2.755-1.15-5.214-0.654
			c-0.351-2.731,1.134-3.645,1.31-5.869c2.02,0.367,4.248,0.531,5.861,1.309C179.594,438.152,179.562,440.528,178.747,442.093z
			 M178.1,444.704c0.048,2.435-0.662,4.128-1.309,5.868c-1.518-0.196-2.443-1.025-4.559-0.647
			C170.794,445.031,174.467,442.432,178.1,444.704z M175.489,453.184c-0.208,2.842-0.751,5.342-1.317,7.829
			c-1.518,0.02-1.908-1.122-3.897-0.651c0.431-2.611,0.407-5.685,1.294-7.825C173.182,452.445,174.707,452.429,175.489,453.184z
			 M172.878,462.973c0.056,2.875-0.112,5.534-3.266,5.211c0-1.733,0-3.474,0-5.211C170.714,462.973,171.793,462.973,172.878,462.973
			z M170.938,491.02c-0.487-2.004,1.11-1.928,0.63-3.908c1.509-0.22,2.5,0.087,3.274,0.639
			C175.09,490.398,173.828,491.527,170.938,491.02z M173.532,479.929c1.845-0.539,1.677,0.918,3.258,0.651
			c0.079,1.608,0.104,3.141-0.647,3.921C171.984,485.008,171.976,482.209,173.532,479.929z M176.791,494.928
			c3.114-0.55,1.612,5.894-1.302,5.214C175.585,498.07,176.967,497.277,176.791,494.928z M187.219,510.579
			c-0.32-4.782,3.401-7.481,7.186-4.563c-1.094,0.874-0.24,3.701-1.302,4.563C191.147,510.579,189.183,510.579,187.219,510.579z
			 M189.83,501.452c0.08-4.775,2.1-4.388,6.516-3.908C196.808,503.201,192.864,501.887,189.83,501.452z M195.052,515.15
			c1.062-0.978,4.814-0.978,5.876,0c0.4,2.911-4.112,3.253-5.876,1.957C195.052,516.456,195.052,515.805,195.052,515.15z
			 M197.008,510.579c-0.455-2.415,1.126-2.787,0.663-5.21c2.235-0.291,3.657,0.263,5.206,0.647
			c-0.679,1.493-0.407,3.933-1.302,5.226C199.524,511.557,199.276,510.068,197.008,510.579z M198.965,501.452
			c-0.958-3.234,5.342-3.589,5.877-1.31C205.185,503.357,200.53,501.923,198.965,501.452z M204.194,515.15
			c1.685,0.922,5.167,0.048,5.222,2.607c-2.627,0.455-3.737-0.626-5.876-0.65C203.884,516.584,204.202,516.056,204.194,515.15z
			 M205.496,512.54c-0.463-5.29,0.559-7.502,5.869-5.873c0.447,2.627-0.615,3.725-0.67,5.873
			C208.969,512.54,207.229,512.54,205.496,512.54z M207.436,502.758c0.551-0.755,0.863-1.749,0.663-3.258c1.972,0,3.904,0,5.876,0
			C215.118,503.916,210.559,502.59,207.436,502.758z M213.314,517.107c1.884-0.133,3.561-0.084,3.258,1.956
			C214.711,519.194,213.026,519.139,213.314,517.107z M214.631,513.849c-1.253-1.581,1.086-3.733,0.639-6.519
			c2.06,0.319,2.563-1.437,3.913,0c0.143,2.751-0.998,4.207-1.302,6.519C216.795,513.849,215.701,513.849,214.631,513.849z
			 M216.571,503.409c0.751-2.707,1.302-4.592,4.584-3.267c0.303,2.052-0.95,2.552-1.334,3.917
			C219.086,503.516,218.104,503.201,216.571,503.409z M220.5,518.404c1.15,0.388,3.84-0.774,3.896,0.659
			C224.86,521.51,219.478,520.656,220.5,518.404z M221.155,514.504c1.669-2.679,0.024-8.692,5.861-7.174
			c0.247,3.082-0.208,5.437-0.639,7.821C223.901,515.649,223.238,514.356,221.155,514.504z M224.396,504.059
			c0-1.082,0-2.172,0-3.253c1.869,0.108,4.488-0.567,4.567,1.302C228.844,504.71,226.025,504.618,224.396,504.059z M227.016,498.191
			c-0.895-0.835-0.639-2.831-0.639-4.563c0.839-0.899,2.819-0.639,4.552-0.651C230.361,495.456,230.936,499.065,227.016,498.191z
			 M227.678,489.711c0.328-2.252,1.733-3.477,1.948-5.869c0.846,0.902,3.083,0.399,3.921,1.306
			C233.778,487.938,231.319,491.188,227.678,489.711z M238.106,503.409c-0.056,3.752-4.415,0.706-5.876,1.96
			C231.072,501.353,236.957,501.3,238.106,503.409z M233.547,498.837c0.639-1.525,1.134-3.202,1.294-5.21
			c2.267-0.519,2.499,0.974,4.567,0.654c-0.152,2.012-0.655,3.693-1.302,5.218C236.573,499.289,235.655,498.466,233.547,498.837z
			 M233.547,474.707c-0.224-1.51,0.096-2.495,0.647-3.253c1.294,1.082,3.026,1.752,3.258,3.917
			C235.447,475.837,235.527,474.232,233.547,474.707z M236.134,477.969c-0.886,0.843-0.383,3.083-1.293,3.912
			c-2.06,0.324-2.307-1.169-4.559-0.643C230.808,477.693,232.485,477.035,236.134,477.969z M228.317,474.707
			c-1.557,0.271-1.413-1.194-3.258-0.651c-0.112-3.581,1.573-5.386,2.619-7.825c1.493,1.317,3.473,2.172,3.897,4.568
			C230.089,471.701,230.057,474.056,228.317,474.707z M222.448,467.537c0.151,2.974-1.102,4.555-1.948,6.519
			c-0.767-0.742-2.316-0.742-3.929-0.651C216.635,469.537,217.474,466.486,222.448,467.537z M216.571,464.275
			c-2.172,0-4.336,0-6.499,0c0.751-3.585,1.589-7.094,3.242-9.786C217.761,456.422,219.454,459.516,216.571,464.275z
			 M204.841,454.489c-0.647-6.004,5.654-6.212,6.524-1.305C210.295,454.721,207.548,454.601,204.841,454.489z M208.746,456.446
			c-0.599,2.447-1.453,4.619-1.957,7.178c-2.451,0.496-3.106-0.802-5.214-0.651c0.775-2.267,1.397-4.702,2.619-6.527
			C205.704,456.446,207.229,456.446,208.746,456.446z M201.575,453.835c-2.235,0.291-3.633-0.252-5.23-0.651
			c-0.312-2.727,1.9-2.883,1.325-5.861c2.515-0.356,3.178,1.158,5.869,0.647C203.66,450.689,201.536,451.187,201.575,453.835z
			 M198.965,445.355c0.216-1.505-0.087-2.5-0.639-3.262c-1.357,0.388-2.228,1.258-2.619,2.612c-2.076,0.323-2.308-1.182-4.56-0.655
			c0.304-2.296,1.637-3.565,2.62-5.21c4.527,0.675,5.957,4.464,9.11,6.516C202.079,447.339,200.642,444.656,198.965,445.355z
			 M177.446,426.443c-0.312-2.056,0.934-2.551,1.301-3.909c3.234-0.195,3.506,2.591,5.23,3.909
			C182.5,428.299,180.152,425.525,177.446,426.443z M181.35,429.05c1.166,1.09-0.567,2.184,0,4.567c-1.949,0-3.904,0-5.861,0
			C174.994,429.637,177.285,428.451,181.35,429.05z M171.568,415.347c1.853-0.531,1.693,0.926,3.274,0.663
			c0.352,2.599,0.352,1.953,0,4.563c-1.31,0-2.611,0-3.904,0C170.994,418.697,170.563,416.298,171.568,415.347z M169.613,422.534
			c2.323-1.169,3.018-0.147,5.23,0c0.535,1.837-0.935,1.685-0.67,3.254c-2.116,0.379-3.034-0.435-4.559-0.647
			C169.613,424.263,169.613,423.4,169.613,422.534z M168.966,427.744c2.123-0.375,3.018,0.451,4.567,0.658
			c-0.471,1.482-0.582,3.334-1.301,4.563c-1.997,0.471-2.388-0.666-3.912-0.651C168.933,430.811,168.358,430.211,168.966,427.744z
			 M168.319,434.923c1.078,0,2.172,0,3.249,0c-0.431,2.818,0.176,6.695-3.912,5.869C167.76,437.278,168.103,438.061,168.319,434.923
			z M169.613,443.398c0.056,3.094,0.136,6.224-3.258,5.881c-0.511-2.691,0.998-3.353,0.655-5.881
			C167.887,443.398,168.75,443.398,169.613,443.398z M166.354,421.221c0,1.082,0,2.18,0,3.266c-1.573,0.267-1.421-1.198-3.258-0.651
			C163.935,422.714,164.438,421.26,166.354,421.221z M162.442,426.443c1.102,0,2.172,0,3.266,0c0.096,2.284-0.176,4.168-1.309,5.214
			C160.47,432.24,162.194,428.619,162.442,426.443z M161.14,433.617c1.989-0.471,2.379,0.667,3.905,0.655
			c-0.08,1.885,0.375,4.26-0.647,5.21c-1.078,0-2.172,0-3.258,0C159.863,438.12,160.646,435.154,161.14,433.617z M159.839,426.443
			c0.504,2.252-0.742,2.763-1.301,3.912c-2.005,0.471-1.925-1.126-3.921-0.647C155.551,427.816,157.571,427.018,159.839,426.443z
			 M153.315,432.315c1.724,0.004,3.721-0.247,4.551,0.651c-0.327,3.246,0.144,3.889-0.639,5.873
			c-2.459-0.388-1.972-0.483-5.222-0.655C152.548,436.344,152.756,434.164,153.315,432.315z M156.557,441.439
			c1.118,2.187-0.727,3.589-1.294,5.885c-1.741-0.012-3.721,0.24-4.567-0.655c-0.343-2.527,1.158-3.19,0.655-5.876
			C153.243,440.867,155.623,440.428,156.557,441.439z M150.696,431.657c1.262,1.086-0.671,4.503-1.294,5.868
			c-1.685-0.064-3.13-0.359-3.921-1.294C145.57,433.034,149.946,434.172,150.696,431.657z M144.172,439.482
			c2.124-0.367,3.042,0.455,4.567,0.659c0.527,2.902-0.854,3.908-0.639,6.527c-2.108,0.136-2.778-1.162-5.222-0.655
			C143.127,443.662,143.718,441.638,144.172,439.482z M137.657,438.839c1.988-0.464,1.908,1.122,3.904,0.643
			c-0.871,1.72-0.767,4.455-1.294,6.531c-1.31,0-2.611,0-3.905,0C135.836,442.66,137.713,441.734,137.657,438.839z M138.958,448.613
			c0.823,1.637-0.575,5.689-1.301,7.833c-0.871,0-1.741,0-2.62,0C134.016,453.85,134.096,447.419,138.958,448.613z M133.082,459.056
			c1.309,0,2.611,0,3.928,0c0.192,3.242-0.894,5.195-4.575,4.567C132.115,461.56,133.608,461.32,133.082,459.056z M135.038,440.792
			c-0.471,1.485-0.567,3.334-1.294,4.563c-1.876-0.076-4.271,0.355-5.221-0.651C129.584,442.292,132.427,441.642,135.038,440.792z
			 M127.876,447.97c1.724,0,3.481,0,5.206,0c0.223,3.477-0.799,5.705-1.285,8.476c-1.845-0.539-4.033-0.755-5.885-1.298
			C127.085,453.263,126.814,449.958,127.876,447.97z M131.133,459.056c-0.159,2.012-0.67,3.685-1.31,5.218
			c-2.235,0.296-3.656-0.259-5.206-0.651C124.187,459.739,127.317,456.598,131.133,459.056z M121.344,447.323
			c6.42-5.199,3.513,3.106,2.603,7.825c-1.078,0-2.172,0-3.258,0C119.683,453.491,121.504,450.158,121.344,447.323z
			 M122.654,457.751c2.044,3.21-0.208,6.962-4.567,5.872C119.228,461.293,118.062,456.641,122.654,457.751z M116.13,449.926
			c0.536-0.558,1.781-0.395,1.957-1.313c2.962,0.419,0.223,5.066-0.639,5.876C114.956,455.012,116.593,451.403,116.13,449.926z
			 M115.483,457.105c1.054-0.188,1.11,0.615,1.965,0.647c0,2.611-1.318,3.921-1.318,6.523
			C114.117,463.313,114.757,458.985,115.483,457.105z M110.908,452.537c1.173,0.079,1.381-0.807,2.611-0.655
			c1.054,2.232-0.087,1.964-1.31,3.266C111.076,454.985,110.732,454.018,110.908,452.537z M195.052,544.502
			c-18.988,3.394-40.627,1.21-48.923-13.039c-1.518-2.619-1.597-5.92-3.25-8.492c-3.042-4.683-4.695-8.631-12.409-10.432
			c-4.742-0.787-7.601-0.536-10.427-1.961c-6.66-3.35-4.983-10.077-7.834-16.297c-4.199-9.21-13.949-7.054-26.741-7.17
			c-8.32-2.292-7.721-14.875-15.654-18.928c-3.601-1.841-18.541-1.533-16.952-8.481c1.841-7.992,21.3-0.087,30.004-0.647
			c8.567-0.55,15.171-5.298,20.217-4.567c5.797,2.887,5.789,11.611,10.436,15.655c5.494,2.504,31.237-5.087,31.963,3.262
			c0.343,4.005-8.28,4.951-9.79,8.476c-3.418,8.105,4.975,11.55,11.754,15.663c4.688-1.482,10.564-2.819,14.996-0.651
			c1.764,0.842,6.3,5.825,6.524,8.476c0.343,3.988-4.943,7.286-4.567,11.087c0.67,6.898,12.384,6.966,20.225,8.476
			c1.781,0.343,8.344,0.619,9.39,0.711c13.854,1.242,27.652-6.096,33.664,6.472C218.503,536.458,206.878,542.394,195.052,544.502z
			 M232.877,528.193c-2.029,0.1-2.22-1.669-2.595-3.262c0.647,0,1.294,0,1.948,0C232.78,525.698,233.092,526.681,232.877,528.193z
			 M228.317,519.722c0.782-0.587,6.181-1.844,5.877,0.643C234.105,522.964,228.053,521.662,228.317,519.722z M230.281,515.805
			c-0.823-1.461,0.447-5.35,0.647-7.829c2.666-0.272,4.176,0.603,5.876,1.301c-1.245,1.573-1.924,3.729-1.964,6.528
			C233.323,515.805,231.806,515.805,230.281,515.805z M238.106,529.503c-1.669-0.076-1.302-2.192-1.302-3.905
			c1.302,0,2.603,0,3.905,0C241.268,528.314,238.952,528.174,238.106,529.503z M238.106,522.324c0-0.874,0-1.741,0-2.603
			c1.302,0,2.603,0,3.921,0C242.618,522.489,240.446,522.496,238.106,522.324z M242.674,516.456c-1.086,0-2.18,0-3.266,0
			c-1.925-3.222,0.391-9.315,4.576-6.516C244.279,512.831,243.512,514.683,242.674,516.456z M240.71,506.016
			c0.503-0.583,0.694-1.473,0.654-2.607c2.939,0,2.915-1.106,5.23,0c0.255,1.569-1.213,1.417-0.647,3.258
			C243.512,507.137,243.136,505.56,240.71,506.016z M245.947,523.634c0-1.094,0-2.184,0-3.27c2.052,0.32,2.284-1.17,4.551-0.643
			C249.947,522.001,247.903,522.771,245.947,523.634z M251.162,516.456c-1.845-0.543-1.701,0.918-3.274,0.651
			c-1.27-1.362-0.495-4.336,0-5.865c1.31,0,2.611,0,3.904,0C252.911,512.423,251.274,514.531,251.162,516.456z M253.11,507.976
			c-2.004,0.467-2.388-0.667-3.912-0.647c0.359-2.472,0.918-4.724,4.567-3.921C254.691,504.334,253.613,506.579,253.11,507.976z
			 M250.499,500.142c0.471-1.481,0.575-3.325,1.293-4.555c1.318,0,2.627,0,3.929,0c-1.094,0.863-0.223,3.697-1.302,4.555
			C253.11,500.142,251.792,500.142,250.499,500.142z M253.11,487.75c1.86-0.762,3.457-1.357,5.206-0.639
			c0.151,2.539-1.382,3.374-1.957,5.206c-1.078,0-2.164,0-3.249,0C251.96,491.232,253.677,490.138,253.11,487.75z M256.359,516.456
			c-1.964-0.99,0.551-2.867,0-4.56c1.31,0,2.619,0,3.921,0C261.071,515.502,257.078,514.34,256.359,516.456z M257.022,508.63
			c1.086-0.87,0.223-3.697,1.294-4.571c1.509-0.207,2.515,0.104,3.282,0.651C262.101,508.06,260.432,509.205,257.022,508.63z
			 M262.892,500.806c-1.294,0-2.612,0-3.913,0c-1.477-2.85,0.464-5.426,4.552-4.571
			C263.849,498.299,262.356,498.546,262.892,500.806z M260.927,492.976c-0.208-1.513,0.112-2.508,0.671-3.266
			c2.451-0.072,3.489,1.273,3.904,3.266C264.256,494.266,262.42,493.292,260.927,492.976z M266.157,508.63
			c-0.911-0.83-0.911-3.086,0-3.921c1.557-0.263,1.405,1.194,3.258,0.659C269.814,507.936,267.945,508.251,266.157,508.63z
			 M270.725,502.107c-1.621,0.083-3.163,0.087-3.905-0.655c-0.431-3.841,1.717-6.556,5.206-4.559
			C271.922,498.961,270.541,499.756,270.725,502.107z M274.637,502.107c-0.479-2,1.134-1.929,0.655-3.917
			c1.589-0.084,3.137-0.108,3.912,0.647C278.749,501.013,277.519,502.383,274.637,502.107z M285.704,493.627
			c-12.305-3.609-26.781-11.914-37.816-18.92c-5.134-3.253-10.261-7.278-15.011-11.083c-19.834-15.942-40.339-32.047-54.777-54.141
			c1.222-1.821,2.891-3.199,4.56-4.564c19.858,22.099,45.665,43.011,48.268,45.007c5.526,4.224,12.808,8.528,19.57,12.385
			c12.481,7.118,20.96,9.961,32.627,13.698c-2.947-3.757-8.704-5.984-13.064-8.472c-31.277-17.822-61.396-39.114-82.842-67.835
			c6.244-6.168,11.889-12.92,16.321-20.88c27.539,23.175,53.898,50.815,90.667,62.617c-2.379-5.442-26.27-16.861-31.316-20.218
			c-20.601-13.718-38.535-31.54-56.102-47.606c1.022-2.028,1.813-4.288,3.905-5.221c4.703,4.527,16.025,15.087,17.622,14.995
			c22.957,18.593,90.157,60.373,99.164,61.967C315.735,463.628,301.115,479.018,285.704,493.627z M329.429,439.482
			c-1.997-0.623-3.913-1.317-5.869-1.957c4.918-3.561,10.037-6.918,16.943-8.476C337.805,433.525,334.459,437.354,329.429,439.482z
			 M343.762,425.788c-10.157-1.222-17.631,5.809-24.769,9.781c-1.765-0.835-4.041-1.186-4.576-3.254
			c13.622-5.768,22.341-13.31,35.876-18.273C349.184,419.033,345.31,421.244,343.762,425.788z M352.25,409.483
			c-8.105,3.27-18.333,8.005-28.051,13.05c-7.019,3.634-14.868,12.493-22.829,3.909c18.038-7.933,35.876-16.968,50.88-26.09
			C355.739,401.981,351.555,406.384,352.25,409.483z M353.551,396.443c-12.368,6.121-27.547,13.878-42.391,20.865
			c-7.019,3.31-13.471,10.265-20.873,4.563c16.042-15.471,40.076-22.984,61.316-33.257
			C354.477,390.439,352.904,392.751,353.551,396.443z M350.956,384.043c-8.855,6.66-20.897,9.898-33.927,16.31
			c-4.895,2.411-10.381,5.529-16.306,9.131c-7.074,4.307-17.087,13.05-22.821,4.559c3.482-4.217,9.023-6.444,13.686-9.123
			c13.382-7.697,28.346-15.938,43.062-23.483c4.48-0.507,7.593-2.396,11.075-3.912C348.576,378.578,349.375,381.687,350.956,384.043
			z M346.381,374.901c-29.608,7.378-49.075,24.865-74.355,36.538c-1.844-1.856-3.912-3.486-6.523-4.559
			c12.057-9.981,34.423-19.714,51.526-28.058c6.044-2.943,11.745-7.219,16.96-9.135
			C340.647,367.255,344.249,369.391,346.381,374.901z M367.916,312.291c-0.982,6.528-6.452,18.908-9.79,24.789
			c-3.976,7.01-10.197,15.914-19.57,15.007c-2.347-13.446,0.91-26.326,3.266-37.185c0.351-2.04,10.811-33.653,15.65-48.923
			c1.717-5.39,3.394-11.024,5.23-16.31c2.795-8.141,5.677-15.091,7.817-24.776c6.564,8.22,14.541,15.031,20.218,24.126
			c-1.885,8.487-7.841,14.18-11.746,21.534c-4.328,8.185-6.045,14.7-8.472,24.777C369.801,298.294,368.251,310.004,367.916,312.291z
			 M397.899,310.99c0.119,12.013,12.352,31.923-1.286,41.74c-12.672,4.232-12.871-19.175-21.534-28.697
			c-2.419-4.069-2.62-10.553-1.948-16.952c2.706-21.22,10.58-37.261,20.21-51.538c8.688,10.676,18.78,19.922,31.971,26.094
			C414.348,289.586,401.476,295.651,397.899,310.99z M602.072,202.065c-18.772,10.464-28.403,29.396-43.709,43.697
			c-6.3,5.897-11.514,9.798-20.218,15.662c-13.981,7.462-32.874,12.425-53.474,13.698c-7.123,0.424-14.381,3.13-21.256,3.773
			c-8.424,0.782-16.194,2.14-24.418,1.429c-3.625-0.303-6.555-2.847-10.42-4.559c-11.075-4.899-20.242-10.046-27.388-19.575
			c-4.383-5.805-7.202-12.517-11.746-18.257c-4.623-5.817-10.189-10.049-13.718-16.305c33.999-2.983,59.215,22.405,97.191,16.964
			c6.22-0.903,16.001-2.607,17.63-9.79c-17.95,8.017-42.312,3.921-52.844,1.306c-26.262-6.532-49.649-23.771-75.672-9.786
			c-8.88,4.775-18.31,15.746-28.043,22.178c-3.418,2.263-14.692,5.857-20.889,5.865c-5.613,0.028-14.956-2.795-16.289-7.822
			c-1.382-5.146,7.33-16.832,10.444-20.221c5.629-6.168,14.461-10.876,20.873-18.257c8.703-10.053,14.109-23.987,25.423-29.357
			c9.55-4.535,21.831-3.509,30.662-5.217c9.047-1.765,18.876-5.047,25.416-11.087c1.685-1.525,4.304-4.894,3.937-8.484
			c-8.84,7.582-21.879,14.217-28.698,15.004c2.979-12.68,3.641-27.644,5.222-41.745c15.499-4.12,33.049-3.242,48.907,0
			c21.615,4.419,43.198,8.42,63.28,9.782c34.837,2.371,54.768-23.076,75.664-40.439c8.376,3.585,15.331,6.831,23.323,12.791
			c9.367,4.764,12.465,9.131,19.068,14.609c18.476,15.291,36.491,34.778,43.693,61.966
			C641.516,187.584,620.061,192.031,602.072,202.065z M674.47,78.124c-0.783,28.31-2.555,61.048-1.957,90.025
			c0.152,7.031,2.795,12.385,1.957,22.174c-0.104,1.374,1.373,6.336-2.603,5.869c-1.709-0.251-1.062-4.782-1.302-7.829
			c-0.527-6.448-1.509-14.237-4.575-18.261c0.726-8.24-0.607-17.016-1.302-26.094c-2.691-34.886-0.383-73.425-0.663-111.544
			c0-0.647,0-1.294,0-1.948c3.091,2.364,11.259,5.23,12.409,9.777c0.814,3.178-1.573,6.768-1.964,10.441
			C673.599,58.917,674.75,68.558,674.47,78.124z M678.391,192.93c-2.994-43.94-1.477-98.8,1.294-148.722
			c4.599,2.152,6.332,7.154,9.797,10.436c-4.184,40.842-6.396,85.845-2.611,133.055C685.162,190.562,682.335,192.307,678.391,192.93
			z M697.299,183.803c-2.955,0.295-3.873,2.655-7.163,2.603c-2.396-20.493-0.735-44.702-1.964-67.185
			c-0.112-1.86-0.112-4.674,0-6.523c1.029-16.122,3.489-33.157,4.567-51.522c0-0.662,0-1.309,0-1.956
			c3.513,2.559,5.837,6.922,7.826,10.428C699.119,108.326,694,147.919,697.299,183.803z M700.565,179.887
			c0-7.786-0.711-15.611-0.647-23.484c0.047-8.991-1.174-19.264,0-28.054c0.312-2.352,1.205-18.242,1.294-24.126
			c0.151-9.091,1.741-20.669,2.467-30.267c4.24,4.328,7.826,13.535,9.925,18.525c-1.661,6.404-2.954,10.72-3.25,16.31
			c-1.181,21.279-5.948,42.191-3.912,68.485C703.447,177.112,703.735,180.226,700.565,179.887z M714.921,172.061
			c-1.644,0.54-2.571,1.789-4.567,1.953c-1.038-25.412,1.206-45.482,3.857-66.657c-0.024-1.098,0.671-6.232,1.182-8.225
			c0.639,2.344,1.014,3.294,1.764,6.44c0,0.008,1.565,5.809,1.677,8.436C716.566,130.413,715.416,154.487,714.921,172.061z
			 M718.834,166.827c0.303-14.385,0.982-27.847,3.258-39.776C724.327,134.421,730.332,161.294,718.834,166.827z"/>
	</g>
</g>
</svg>
