<?xml version="1.0" encoding="utf-8"?>
<!-- Generator: Adobe Illustrator 17.0.0, SVG Export Plug-In . SVG Version: 6.00 Build 0)  -->
<!DOCTYPE svg PUBLIC "-//W3C//DTD SVG 1.1//EN" "http://www.w3.org/Graphics/SVG/1.1/DTD/svg11.dtd">
<svg version="1.1" id="Layer_1" xmlns="http://www.w3.org/2000/svg" xmlns:xlink="http://www.w3.org/1999/xlink" x="0px" y="0px"
	 width="800px" height="600px" viewBox="0 0 800 600" enable-background="new 0 0 800 600" xml:space="preserve">
<path fill-rule="evenodd" clip-rule="evenodd" fill="#FFFFFF" d="M423.15,39.4l3.51-2.04l5.876-1.509h4.978l5.958,1.224l6.978,2.04
	l6.366,3.428l2.652,1.632l0.49,2.122l0.245,2.693l-0.204,6.611l-1.469,7.79l2.084,0.575l1.221,0.939c0,0-0.041,3.06-0.285,3.142
	c-0.245,0.082-1.633,3.672-1.633,3.672l-1.224,4.325l-2.29,5.02l-1.668,2.365l-1.633,3.836l-1.836,5.754l-1.632,3.999
	c0,0,0.097,2.821,1.02,3.591c0.923,0.77,1.142,2.897,1.142,2.897l2.163,6.488l0.653,1.551c0,0,4.529,2.571,5.591,2.898
	c1.061,0.326,3.468,1.673,3.468,1.673l2.612,1.143l4.448,3.06l2.611,1.836l3.02,1.755l4.448,2.04l5.101,0.979
	c0,0,3.877,1.061,3.999,1.061c0.123,0,2.04,1.142,2.04,1.142l1.673,2.693l1.755,4.529l0.53,5.917l0.327,6.57l1.714,3.509
	l1.877,4.856l1.265,6.244l1.224,8.373l0.776,8.235l1.428,10.283l1.836,11.997l0.49,3.019l0.776,3.183l1.224,4.023l4.611,1.036
	l1.51,1.469l2.081,2.775l-0.204,1.51l-2.775,7.957l-2.448,7.018l-4.693,10.569l-5.059,12.65l-5.876,13.997h-1.795l0.448,3.509
	l-0.204,3.469l-1.958,0.489l-1.673,0.531l-0.205,1.877l0.898,2.489l-2.244,0.897l-1.676,1.428c0,0-0.854,0.98-0.854,3.713
	c0,2.734-0.816,3.999-0.816,3.999l-1.347,7.304l-2.979,17.424l-1.428,9.957l-2.653,20.403l-1.795,18.077l-1.429,17.139
	l-1.183,17.139l-1.429,16.974l-1.326,20.893l-1.367,20.077L467.18,483l-1.51,21.138l-1.714,16.73l-2.857,23.381l-0.571,0.939
	c0,0-1.306-0.816-1.51,0.53c-0.204,1.347-0.409,2.203-0.409,2.203l1.059,1.224l5.225,5.55c0,0,4.856,4.529,4.979,4.529
	c0.122,0,7.222,5.958,7.222,5.958l0.163,0.883l-1.061,1.157c0,0-1.633,1.062-1.754,1.102c-0.123,0.041-4.163-0.857-4.347-0.897
	c-0.183-0.042-3.489-1.02-3.489-1.02l-3.631-0.342l-6.447-1.005l-3.736-2.49l-6.914-5.305l-2.939-1.183l-4.611-2.286l-0.694-0.775
	l0.409-3.713l0.53-3.958c0,0-2.122-1.673-2.286-1.714c-0.163-0.042-1.305-0.572-1.305-0.572l-0.702-0.224
	c0,0-1.87-1.041-1.788-0.184c0.081,0.857,0,2.978,0,2.978l0.653,11.671c0,0-1.062,3.081-1.143,3.744s-1.02,3.887-1.02,3.887
	l-0.367,6.692l0.612,8.733l0.327,5.101l-2.611,0.857l-4.897,0.734l-3.877,0.449l-1.101,0.367l-3.183-7.386l-1.591-6.121
	l-0.653-3.672l-0.571-3.796c0,0-0.49-4.774,0.816-4.774c1.305,0,0.979,0.409,0.979,0.409l-0.857-0.041c0,0-1.025-3.711-0.775-4.081
	s-0.409-6.08-0.409-6.08l-0.244-11.548l-0.653-6.325l-0.816-3.427l-0.979-4.897v-6.325c0,0,1.265-4.284,1.469-4.367
	c0.204-0.082,0.897-1.958,0.897-1.958l-0.122-8.203l-0.199-7.998l0.281-9.63l0.082-17.425l0.285-20.851l-0.653-14.812l-0.081-3.387
	c0,0,1.143-5.958,1.265-6.326c0.123-0.367,0.898-6.243,0.898-6.243l-0.123-3.999l-0.98-7.182l-2.413-11.007l-1.994-11.028
	l-0.816-6.326l-0.897-6.937l-0.98-6.488l-1.795-10.283l-1.347-8.569l0.204-9.671l0.49-4.734l1.143-4.978l0.081-1.183l-3.224-5.876
	l-2.489-5.427l-0.53-4.693l-2.572-0.449l-7.952-1.993l0.444-1.312l1.183-6.039l1.673-8.895l0.53-8.978l0.53-5.101l-0.115-10.814
	l0.278-14.486l-0.892-8.036c0,0,0.607-7.96,1.422-8.082c0.816-0.122,1.796-0.327,1.306-4.978c-0.49-4.652-0.081-10.487-0.081-10.487
	l-0.449-3.509l-0.421-3.7c0,0-3.126-10.561-3.945-10.786c-0.818-0.225-0.775-1.061-0.775-1.061l-3.443-8.038l-3.208-11.631
	l-3.387-13.097l-4.284-12.772l-0.735-1.836v-0.857l-4.284-0.897l-11.508-4.244l-13.099-5.06l-5.141-2.407l-4.262-2.4l-3.593-2.181
	l-2.551-1.744l-3.428-3.51l-3.224-2.326l-6.978-3.672l-1.02-3.264l-0.844-4.323l-0.209-2.285l-0.201-3.509v-4.654l0.561-5.019
	l0.204-9.63l0.041-8.774l-0.806-4.815c0,0-0.85-6.423-0.296-7.304c0.553-0.881,0.653-2,0.653-2l1.754,0.449l0.571-0.775
	l-0.041-4.693l1.02-5.305l0.939-3.672l-3.877-4.856l-3.101-3.917l-3.632-2.408l-1.305-1.02l0.815-1.061l2.775-0.041l3.387,1.306
	l4.652,2.448l-0.082-2.53l-1.836-2l-4.122-1.632l-4.121-0.694l-4.198-0.55l-0.617-0.025l0.857-1.016l2.734-0.857l5.631-0.041
	l2.857,0.163l1.551,0.245l1.265,0.979l2.122,1.183l2.652,2.816c0,0,2.122,3.836,2.122,3.958c0,0.122,1.347,5.346,1.347,5.468
	s-0.286,6.488-0.286,6.488l-1.551,7.141l-0.327,3.387l1.673,2.244l0.857,2.367l0.367,6.57l0.082,6.978l0.122,10.324l0.286,5.101
	c0,0,5.508,3.224,6.814,5.713c1.306,2.489,2.204,4.774,2.204,4.774s5.998-0.204,7.754-0.49c1.754-0.285,4.325,0.653,4.325,0.653
	s5.672,1.681,5.672,1.718c0,0.037,4.244,2.526,4.244,2.648c0,0.123,2.571-2.971,3.02-2.648c0.449,0.322,0-0.371,0.123-0.371
	c0.123,0,1.551,0,1.551,0s3.142-0.735,3.305-0.775c0.163-0.041,6.244-3.142,6.366-3.142c0.123,0,2.203-0.898,2.448-0.898
	c0.245,0,2.286-0.367,2.407-0.367c0.123,0,2.734-0.367,4.774-0.041c2.04,0.326,3.55,0.531,3.55,0.531s3.693,0.653,4.193,0.694
	c0.5,0.041,8.334,0.775,8.62,0.775c0.285,0,6.406-0.373,6.896-0.288s6.325-2.813,6.325-2.813s3.673-2.693,3.754-2.816
	c0.082-0.122,1.265-2.285,1.265-2.285s1.918-1.551,2.285-1.224c0.367,0.327,0.857-0.939,0.857-0.939l0.776-6.447l-0.694-7.957
	c0,0-0.625-2.005-2.816-2c-2.191,0.005-1.918-0.653-1.918-0.653l-0.041-1.877l0.897-5.06l-0.612-4.325l-1.061-4.081l0.204-1.469
	c0,0,0.939-0.326,1.062-0.326c0.122,0,1.346-0.571,1.346-0.571l-0.408-1.183l-0.734-3.468l-0.286-4.04l1.061-5.998l1.02-6.325
	l2.816-2.816l2.081-1.714L423.15,39.4z"/>
<path fill-rule="evenodd" clip-rule="evenodd" d="M422.903,39.587l1.946-1.173l2.79-1.305l2.449-0.851l3.509-0.408l4.201,0.057
	l3.66,0.752l3.853,0.953l5.465,1.974c0,0,5.267,2.541,5.555,2.696c0.288,0.155,3.136,1.892,3.136,1.892l0.383,1.656l0.334,3.726
	l-0.321,6.76l-0.926,4.907l-0.244,2.167l-1.387,3.677l-0.401,2.075c0,0-0.502,0.336-0.663,0.518c-0.161,0.182-0.65-0.43-0.65-0.43
	l-1.183-5.839l-1.143-7.913l0.286-4.366l-1.225-1.02l-1.672-0.694l-2.612-0.286l-4.488,0.204l-5.346,0.571l-4.121-0.408
	l-2.367-0.653l-2.815-1.51l-3.55-3.101l-2.451-3.346V39.587z"/>
<path fill-rule="evenodd" clip-rule="evenodd" d="M419.6,43.889l0.653,2.367l0.612,3.713l-0.816,4.243c0,0-1.429,4.407-1.469,4.53
	c-0.041,0.122-0.408,3.958-0.408,3.958l0.53,3.958l-1.265-0.775l-1.079-2.493l-0.726-5.052l0.418-4.599l0.809-4.723l0.803-4.657
	l1.245-0.796L419.6,43.889z"/>
<path fill-rule="evenodd" clip-rule="evenodd" fill="#FF0000" d="M424.088,112.443l0.781-0.881c0,0,0.127-0.465,0-1.567
	c-0.128-1.102,0.811,0.491,0.811,0.491l1.015,0.539l1.066,0.806l0.9,0.775l3.099,0.653l3.754,0.245l4.081-0.816l4.692-1.795
	l2.938-1.285l-0.489,1.948l-0.735,2.52l-0.694,3.265l-0.734,3.06l-1.959-0.449l-3.55-0.857l-4.938-0.53l-3.142,1.224l-3.958,2.326
	l-0.694-0.286l-2.245-1.061l-1.428-1.061l0.204-3.019l0.47-2.693L424.088,112.443z"/>
<path fill-rule="evenodd" clip-rule="evenodd" d="M454.611,111.545c0,0,3.672,2.02,4.31,2.328c0.638,0.307,0.342,1.542,0.342,1.542
	l0.069,2.742l0.706,4.367c0,0-1.061,1.265-1.061,1.387c0,0.122-0.416-0.766-0.416-0.766l-1.87-4.335l-1.51-4.937L454.611,111.545z"
	/>
<path fill-rule="evenodd" clip-rule="evenodd" d="M480.645,150.188c0,0,1.265-1.428,1.51-2.326c0.244-0.898,0.204,3.224,0.204,3.224
	l0.286,1.714c0,0-0.205,2.775-0.327,2.898c-0.123,0.122-1.02,0.571-1.02,0.571s-0.49-1.387-0.653-1.551
	c-0.163-0.163-0.612-3.305-0.612-3.305L480.645,150.188z"/>
<path fill-rule="evenodd" clip-rule="evenodd" d="M491.051,203.97l1.347-1.551l2.285-0.653l2.897-0.484l2.854,0.282l3.267,0.202
	l1.51,0.53l1.265,0.796l0.211,1.311c0,0-0.783,0.75-0.905,0.75c-0.123,0-3.836,0.98-3.836,0.98s-4.652,0.571-4.855,0.612
	c-0.205,0.041-3.387,0-3.387,0l-2.203-1.306l-0.449-0.897V203.97z"/>
<path fill-rule="evenodd" clip-rule="evenodd" d="M503.089,216.09l1.754-0.98l2.611-1.102l3.183-0.612l2.407,0.571l1.773,0.962
	l1.326,1.714l0.9,1.691c0,0-3.714-2.285-4.693-2.122c-0.979,0.163-5.101,0.449-5.101,0.449l-4.488,0.653L503.089,216.09z"/>
<path fill-rule="evenodd" clip-rule="evenodd" d="M489.133,265.669c0.123,0,2.775,3.142,3.02,3.223
	c0.244,0.082,1.836,3.265,1.836,3.265s0.582,4.074,0.561,4.44c-0.02,0.366-0.889,2.119-0.889,2.119l-2.609,0.5l-0.244-1.347
	l-0.327-2.122l-0.653-3.305l-0.283-4.162l-0.656-1.347L489.133,265.669z"/>
<path fill-rule="evenodd" clip-rule="evenodd" d="M477.341,264.159l2.244-2.709l2.448-2.27c0,0,1.796-3.142,1.959-3.346
	c0.163-0.204,0.652-2.612,0.652-2.612l-0.966-1.16c0,0-1.551-0.442-1.645-0.227c-0.094,0.216-1.041,2.571-1.041,2.571
	s-2.223,3.795-2.223,3.999s-1.877,5.223-1.877,5.223L477.341,264.159z"/>
<path fill-rule="evenodd" clip-rule="evenodd" d="M437.608,301.48c0,0,0.995,1.372,0.801,1.789c-0.194,0.417,1.39-1.16,1.39-1.16
	s1.714-1.347,1.877-1.347c0.163,0,6.365-5.101,6.529-5.141c0.163-0.041,0.98-1.51,0.98-1.51l-1.143-0.245
	c0,0-4.202,2.693-4.244,2.816c-0.041,0.123-4.121,3.264-4.121,3.264L437.608,301.48z"/>
<polygon fill-rule="evenodd" clip-rule="evenodd" points="422.171,195.564 425.15,192.508 431.189,188.382 436.535,184.914 
	442.247,182.139 447.511,179.731 449.265,179.345 448.123,181.65 443.144,185.975 438.819,188.586 431.719,192.508 424.578,196.054 
	422.171,196.992 "/>
<path fill-rule="evenodd" clip-rule="evenodd" d="M400.911,191.606l4.247,0.204l0.243-1.51l-2.245-5.06c0,0-3.264-5.346-3.305-5.468
	c-0.041-0.123-1.306-3.591-1.306-3.591l1.755,1.061l3.713,5.59l3.877,5.335c0,0,4.04-0.112,4.081-0.234
	c0.041-0.123,3.183-2.04,3.183-2.04l-3.714-4.53l-3.672-4.162l-4.775-5.06l-5.835-7.345l-2.978-4.897c0,0,0.245-1.795,0.245-1.918
	c0-0.122-0.98-4.856-0.98-4.856l-3.182-5.794l-2.775-5.835l-0.612,1.632l0.734,4.162l0.734,3.222l1.02,2.98l1.51,4.448l0.163,2.407
	l-1.02,1.102l-2.094,1.912l-1.048,1.802l3.224,6.774l2.53,4.529l3.06,5.385l1.224,2.287l2.775,5.182L400.911,191.606z"/>
<path fill-rule="evenodd" clip-rule="evenodd" d="M361.819,115.707l1.673,4.244l1.755,3.591v1.469l-2.286-2.04l-4.081-6.284
	l-0.408-0.735c0,0,2.244-1.913,2.509-1.813C361.248,114.238,361.819,115.707,361.819,115.707z"/>
<path fill-rule="evenodd" clip-rule="evenodd" d="M353.372,121.053c0.408,0.096,1.329,2.603,1.329,2.603l-0.666,1.927l-1.072-0.204
	c0,0-2.775-3.591-2.897-3.713c-0.122-0.122-1.999-2.816-1.999-2.816l1.305-0.897l1.673,1.102L353.372,121.053z"/>
<path fill-rule="evenodd" clip-rule="evenodd" d="M372.992,109.668l1.436,1.592c0,0,1.836,2.701,1.836,2.901
	c0,0.2,1.387,2.363,1.387,2.363l1.362-2.388l0.353-2.753c0,0,0.979-1.959,1.101-2.081c0.123-0.122,0.653-1.061,0.653-1.061
	s-3.66-0.087-4.361,0.446c-0.699,0.533-2.484,0.478-2.484,0.478L372.992,109.668z"/>
<polygon fill-rule="evenodd" clip-rule="evenodd" fill="#FF0000" points="467.871,161.175 468.893,164.063 470.62,167.231 
	472.5,165.449 475.045,162.575 477.381,161.175 479.431,161.795 480.033,164.063 480.033,168.102 477.381,173.078 473.573,175.898 
	470.62,177.677 464.76,178.113 461.133,177.148 458.868,176.959 456.282,175.175 459.426,171.823 462.507,168.102 465.216,163.362 
	"/>
<path fill-rule="evenodd" clip-rule="evenodd" d="M412.214,205.807l1.468-1.633l2.897-0.979h2.163l1.387,1.306l0.449,1.306
	l-1.306,1.959l-2.571,0.979c0,0-2.448,0.041-2.653,0c-0.204-0.041-1.836-0.612-1.836-0.612l-0.694-1.061L412.214,205.807z"/>
<path fill-rule="evenodd" clip-rule="evenodd" d="M412.908,214.375l0.408,6.856c0,0,1.224,4.244,0.98,4.244
	c-0.245,0,0.033,3.101,0.033,3.101v6.529l0.416,3.795l-1.836,1.51c0,0-1.306,1.795-1.102,1.918s1.796,2.407,1.796,2.407
	s1.918,1.306,2.204,1.306c0.285,0,2.693,0,2.693,0s3.224-0.204,3.468-0.204c0.244,0,1.877,0.571,1.877,0.571l1.061,0.775l3.51,2.326
	l4.652,3.509l2.816,2.489l1.347,0.694l4.692-1.673l8.243-3.346l3.999-1.592l4.897-1.632c0,0,4.488-1.02,4.611-1.02
	c0.123,0,5.427-0.489,5.591-0.489c0.163,0,4.162,0,4.162,0l0.205-2.653v-1.836c0,0-4.897,1.469-5.02,1.469
	c-0.123,0-10.569,3.55-10.569,3.55l-7.59,2.571l-3.345,0.857l-2.897,0.775l-3.796,0.594l-3.264-0.227l-2.897-1.633l-3.468-2.897
	l-3.306-1.877l-0.979-0.449c0,0-6.203-3.958-7.713-4.04s-2.407-0.939-2.407-0.939l0.776-1.346l0.204-5.142l-0.571-6.243
	l-0.449-5.101l-1.02-4.693l-1.551-2.816H412.908z"/>
<path fill-rule="evenodd" clip-rule="evenodd" d="M434.249,217.232l2.938-0.694l5.519-2l6.927-3.264l5.59-3.264l5.712-4.285
	l4.978-4.489l4.449-4.733l3.06-3.428c0,0,5.264-6.12,5.469-6.365c0.204-0.245,1.632-4.162,1.632-4.162s6.693-6.407,6.693-6.937
	c0-0.53-0.245,2.122-0.245,2.122l-0.568,5.101l-0.207,3.06l-0.49,6.406c0,0-5.203,0.437-5.631,1.892
	c-0.428,1.455,1.265,0.148,1.347,1.536c0.081,1.387,0.408,3.917,0.408,3.917s0.081,3.111,0.123,3.637
	c0.041,0.525-0.735,3.79-0.857,4.198c-0.123,0.408-0.939,6.08-0.939,6.08l-0.041,1.836l2.285,0.408l1.574,0.285l-1.207,3.632
	l1.207,1.795l3.649,3.101l0.245,1.183l-0.408,2.285l-0.449,5.59l-1.387,2.775l-1.918,0.837l-1.796-1.857
	c0,0-6.161-4.693-6.284-4.774c-0.122-0.082-2.571-3.06-2.571-3.06s2-1.224,2.04-1.509c0.041-0.286-0.897-2.653-0.897-2.653
	s-1.877-3.305-1.877-3.55c0-0.245,0.653-2.53,0.857-2.652c0.204-0.123,2.489-1.877,2.611-1.836c0.123,0.041,2.163-0.653,2.163-0.653
	l0.98-2.652l-0.245-5.386l-0.041-6.733l0.163-4.162l-0.286-0.857l-4.274,2.203l-6.05,5.264c0,0-7.753,6.198-7.753,6.343
	c0,0.146-5.427,4.757-5.427,4.757s-4.438,3.157-4.259,3.721c0.179,0.564,1.118,0.319,1.118,0.319s3.06-0.653,3.183-0.694
	c0.122-0.041,4.774-1.469,4.774-1.469l3.917-2.448l6.284-2.816l-0.633,1.298l-2.754,2.864l-8.08,5.06l-5.468,2.408l-6.161,1.183
	l-4.734,0.449l-4.203-0.367l-2.938-2L434.249,217.232z"/>
<path fill-rule="evenodd" clip-rule="evenodd" d="M449.715,292.845l6.937-5.101l5.917-4.815l1.958-1.877l1.344,0.458
	c0,0-0.528,2.603-0.65,2.603c-0.122,0-3.835,3.224-3.835,3.224l-7.386,5.142l-3.631,1.387L449.715,292.845z"/>
<path fill-rule="evenodd" clip-rule="evenodd" d="M441.186,401.389c0,0,2.204,5.753,2.244,7.222
	c0.041,1.469,0.245,5.182,0.245,5.182s-0.776,5.754-0.735,6.162c0.041,0.408-1.754,8.732-1.754,8.732l-1.836,5.223l-0.571-3.469
	l0.448-9.303l1.225-7.998l0.775-8.691L441.186,401.389z"/>
<path fill-rule="evenodd" clip-rule="evenodd" d="M435.841,496.874l0.285,4.121l-0.143,8.08l-0.551,9.222l-0.367,9.589v5.917
	l-0.204,3.754c0,0-0.123,5.264,0.632,5.958s-3.412-2.321-2.999-0.857c0.413,1.464-0.028-3.468-0.028-3.468v-5.142v-7.589l0.314-4.57
	l0.53-10.201l0.653-10.284L435.841,496.874z"/>
<path fill-rule="evenodd" clip-rule="evenodd" d="M476.725,564.874c-0.105-0.087-3.539-2.956-3.539-2.956l-4.701-4.284
	c0,0-4.226-3.612-4.325-3.718c-0.099-0.107-2.984-3.168-2.984-3.168l-2.076-2.622h-1.224h-2.857c0,0-2.652-0.449-3.427-0.734
	c-0.775-0.286-2.611-1.836-2.872-2.01c-0.26-0.173-0.666-0.628-0.666-0.628l-1.4-1.135l-3.183-0.472h-3.224l-1.142,0.472
	l-0.709,3.07l-0.678,4.333v2.612l2.999,1.346l2.673,1.284l4.371,2.448c0,0,4.619,3.542,4.731,3.627
	c0.113,0.084,3.734,2.802,3.734,2.802l3.443,0.694l5.399,0.426l2.208,0.342l2.188,0.646c0,0,4.57,1.239,4.721,1.043
	c0.151-0.197,1.93-0.66,2.094-0.66c0.163,0,0.957-1.688,1.265-1.796C477.853,565.729,476.83,564.961,476.725,564.874z
	 M464.568,562.164l-1.591,0.571l-4.284-0.286l-0.816-0.898l-1.347-4.386l-2.326-2.102l-2.978-1.02l-2.326-0.653v-0.98l1.918-0.815
	l2.734,0.408l1.836,1.591l1.102,1.061l1.171,2.04c0,0,3.196,2.082,3.236,2.203c0.041,0.123,4.488,2.326,4.488,2.326L464.568,562.164
	z"/>
<path fill-rule="evenodd" clip-rule="evenodd" d="M432.699,557.907c0,0,0.204,1.523-0.53,2.461
	c-0.734,0.939-1.796,2.775-1.796,2.775l-1.877,1.062h-2.425l-0.226-1.183l3.44-2.53L432.699,557.907z"/>
<path fill-rule="evenodd" clip-rule="evenodd" d="M431.049,577.793l-0.25-9.48l0.553-5.537l-3.999,1.796l-3.706-0.082l-1.68,0.082
	l-5.182-1.714l-2.354-0.696l-1.194,0.63c0,0-0.719,3.313,0,5.698c0.72,2.385,0.664,3.655,0.664,3.655l0.64,3.16l1.449,5.419
	l3.081,7.149l4.978-0.816l5.713-0.734l1.795-0.857L431.049,577.793z M424.783,583.056l-1.836-3.386l-1.347-5.101l-0.204-3.387
	v-2.869h1.347l1.142,1.604l0.449,2.49l0.734,4.407l0.776,4.203l0.226,2.407L424.783,583.056z"/>
<path fill-rule="evenodd" clip-rule="evenodd" d="M460,43.96c1.796,9.574-0.558,23.026-4.386,26.952
	c-1.415-6.228-3.362-12.68-2.507-19.43c-3.306-4.1-10.559-0.666-16.297-1.254c-7.539-0.774-10.936-4.458-14.415-8.775
	c-3.747,1.733-0.706,6.534-1.255,10.655c-0.628,4.722-4.392,9.986-1.252,15.043c-1.982,0.98-2.752-0.345-5.014-0.627
	c0.696,5.365,3.19,9.733,0.624,15.043c-0.088,1.762,1.536,1.807,3.134,1.88c-0.392,1.339-3.859,0.588-4.386,0
	c0.977-4.991,2.096-10.557-0.627-14.416c-0.428-2.726,1.127-3.469,2.507-4.388c-2.614-5.395-0.007-14,0.628-20.056
	C427.164,30.037,448.016,34.979,460,43.96z M423.647,39.574c1.765,3.578,3.648,6.591,6.897,8.147
	c7.431,3.56,17.919-2.04,23.815,3.134c-0.854,7.286,1.089,13.05,1.882,18.804c1.302-7.639,5.478-17.095,2.507-25.071
	C449.37,39.566,435.484,31.346,423.647,39.574z M418.006,65.899c-2.956-9.416,5.453-14.328,0.627-21.311
	C416.445,49.459,414.555,61.172,418.006,65.899z"/>
<path fill-rule="evenodd" clip-rule="evenodd" d="M460.628,63.39c0.824,0.222,0.987,1.105,1.88,1.253
	c-0.283,7.48-6.16,15.551-8.774,21.938c-2.341,5.717-3.16,11.613-6.269,15.67c-7.284,9.505-21.125,13.358-23.818-4.388
	c4.415,2.268,2.614,12.957,11.911,11.909c7.515-0.848,17.177-16.243,18.176-27.578c5.083-0.867,4.774-11.715,7.521-16.923
	C459.952,64.921,459.926,64.293,460.628,63.39z"/>
<path fill-rule="evenodd" clip-rule="evenodd" d="M419.261,84.701c3.538,1.269,4.06,5.551,3.759,10.655
	c-2.48-0.653-0.439-5.829-1.88-7.521c0.109,10.724-1.994,24.866,0,36.979c1.668,10.125,5.61,18.716,6.269,28.206
	c0.436,6.312-1.375,12.723,1.252,20.057c-4.019-3.79-1.902-12.723-2.507-20.684c-1.023-13.493-6.475-23.183-6.894-38.233
	c-0.107-3.877,1.587-9.645-1.255-12.536C421.005,97.593,419.852,87.361,419.261,84.701z"/>
<path fill-rule="evenodd" clip-rule="evenodd" d="M364.731,124.188c-1.458-3.557-3.514-6.515-4.386-10.655
	c7.689,0.17,9.4-5.641,17.546-5.014c-0.632,1.038-2.66,0.681-3.759,1.253c1.275,1.65,2.155,3.695,3.134,5.642
	c1.553-2.209,1.632-5.89,3.761-7.522c14.249,2.606,28.422,4.579,35.726-6.267c1.02,3.332-4.274,5.746-6.897,7.521
	c-0.512,6.381-2.137,11.653-2.505,18.176c-2.057,1.078-4.827,1.442-7.523,1.881c0.806-1.7,3.117-1.899,5.642-1.881
	c1.754-4.932,2.074-11.298,3.134-16.923c-8.582,1.856-16.815-0.105-26.95-1.254c-3.208,1.705-2.168,9.208-2.51,11.909
	c-2.754-2.886-3.308-7.972-6.269-10.655c-2.713,2.298-6.748,3.281-11.28,3.762c2.41,5.868,4.908,9.74,5.014,15.042
	c-6.128-8.497-11.25-17.999-26.95-16.923c6.06-4.086,13.964,3.284,18.801,2.507C360.465,118.008,361.906,121.789,364.731,124.188z"
	/>
<path fill-rule="evenodd" clip-rule="evenodd" d="M329.631,103.505c12.795,4.965,4.791,30.727,19.431,33.846
	C335.122,138.506,339.965,110.122,329.631,103.505z"/>
<path fill-rule="evenodd" clip-rule="evenodd" d="M448.093,107.892c-0.546,5.097-2.752,8.532-3.134,13.79
	c-6.697-3.61-13.027-3.079-18.177,1.254c-1.071-1.018-2.279-1.898-4.386-1.881c-0.811-3.869-0.143-7.981,2.507-10.028
	c-0.084,2.841-1.535,4.316-1.882,6.895c-0.133,2.64,2.808,2.207,3.761,3.76c2.918-1.051,4.92-3.018,7.522-4.388
	c2.473,1.497,6.658,1.281,9.403,2.507c0.879-3.089,2.232-5.706,2.507-9.402c-4.456,2.647-15.228,6.789-20.686,0
	C434.002,115.292,441.084,111.832,448.093,107.892z"/>
<path fill-rule="evenodd" clip-rule="evenodd" d="M342.793,114.161c5.109,2.333,14.472,5.949,11.283,12.535
	c-2.968-0.487-5.539-6.497-8.149-9.402C344.875,116.257,342.247,116.795,342.793,114.161z M353.449,125.442
	c1.514-2.563-3.191-7.093-5.014-6.268C350.577,120.794,351.576,123.553,353.449,125.442z"/>
<path fill-rule="evenodd" clip-rule="evenodd" d="M410.485,136.097c-7.886,0.782-11.189-3.017-18.802-2.507
	c7.146,9.384,8.967,20.875,15.669,30.085c4.209,5.783,10.717,9.871,13.16,18.176c-12.619-13.076-20.729-31.183-30.711-48.262
	c3.506-2.59,9.105-0.567,12.538,0.626c0.953-1.404-3.642-2.605-5.642-3.133C400.112,129.16,406.772,134.202,410.485,136.097z"/>
<path fill-rule="evenodd" clip-rule="evenodd" d="M379.146,136.723c2.018,0.189,0.622,4.326-1.255,4.388
	C377.998,139.336,379.041,138.5,379.146,136.723z"/>
<path fill-rule="evenodd" clip-rule="evenodd" d="M459.376,138.604c1.229,4.711,12.295,3.637,15.669,8.148
	c-5.649-1.246-10.183-3.607-15.669-5.014c-4.803,2.3-6.98,7.226-11.283,10.028C450.709,146.236,455.907,143.286,459.376,138.604z"/>
<path fill-rule="evenodd" clip-rule="evenodd" d="M481.311,161.795c-0.281-3.251-4.198-10.827,0-12.535
	c-0.811,1.82-0.811,4.448,0,6.267c1.551-0.539-0.184-4.362,1.255-5.014c1.609,3.713-0.89,8.711,0,13.788c-0.627,0-1.255,0-1.882,0
	c-0.152,7.687-3.733,13.512-11.28,14.416c-3.328,0.399-9.336,0.131-11.282-2.507c11.821,4.688,24.245-2.433,21.31-14.416
	c-7.162,1.65-8.904,11.94-14.417,13.162c1.446-2.525,3.649-4.29,5.014-6.895c-0.158-2.556-2.336-3.095-1.88-6.267
	c1.411,1.306,1.793,3.64,3.134,5.014C473.665,164.487,477.009,158.231,481.311,161.795z"/>
<path fill-rule="evenodd" clip-rule="evenodd" d="M473.163,150.513c1.303,0.35,1.329,0.977,0.628,1.88
	c-6.534,9.023-11.689,19.314-20.057,26.325c-10.959,9.181-23.803,14.857-36.353,22.564c-0.566-3.475,3.861-6.19,6.266-8.148
	c2.793-2.272,6.185-4.782,9.403-6.895c6.848-4.496,15.792-6.385,21.936-11.282C463.5,168.173,467.473,159.308,473.163,150.513z
	 M423.02,195.641c9.943-3.221,20.168-9.497,25.073-15.669C438.48,183.94,430.215,189.255,423.02,195.641z"/>
<path fill-rule="evenodd" clip-rule="evenodd" d="M486.952,180.599c1.284-1.853,0.65-5.617,1.88-7.521
	c-0.306,11.813-3.524,26.141-4.386,39.486c-1.642-11.149,1.441-28.148,2.507-40.741
	C488.883,174.205,486.353,177.467,486.952,180.599z"/>
<path fill-rule="evenodd" clip-rule="evenodd" d="M477.552,262.706c2.173-3.021,8.343-6.697,5.639-10.655
	c1.56-0.097,1.941,0.985,3.134,1.253c-4.119,6.326-8.453,12.439-13.791,17.55c2.806-6.597,5.325-13.48,9.404-18.804
	C480.742,255.87,479.059,259.201,477.552,262.706z"/>
<path fill-rule="evenodd" clip-rule="evenodd" d="M486.325,289.031c1.066-0.231,1.183,0.488,1.255,1.253
	c-17.493,76.524-14.027,174.006-26.325,255.725c-3.343,0.354-5.488-1.453-8.148,0c0.518-3.968,5.641,0,7.521-1.88
	C472.107,460.435,469.454,368.479,486.325,289.031z"/>
<path fill-rule="evenodd" clip-rule="evenodd" d="M465.642,295.299c2.015,1.293,0.13,4.008,0,6.267
	c-0.898,15.599-0.159,30.953-0.628,45.755c-0.987,31.153-6.911,64.726-8.773,97.779c-2.053-8.654,0.889-17.238,1.88-26.325
	c1.009-9.279,0.515-19.1,1.255-28.832c0.712-9.385,3.595-18.845,4.386-28.205C465.631,339.591,462.533,317.477,465.642,295.299z"/>
<path fill-rule="evenodd" clip-rule="evenodd" d="M441.824,305.954c2.872,1.276,0.666,7.562,0,9.402
	C440.528,313.405,442.61,309.476,441.824,305.954z"/>
<path fill-rule="evenodd" clip-rule="evenodd" d="M439.316,432.562c2.77-7.794,5.384-19.88,2.507-29.457
	c6.253,10.411-1.097,25.06-1.88,36.354c-4.443-13.229,1.109-27.18,0.628-40.743c-0.181-5.083-1.829-10.178-1.882-15.042
	c-0.166-15.899,5.779-29.878,5.641-44.501c-0.074-7.886-4.307-15.422-3.759-23.191c7.819,15.838,2.532,32.89,0,52.65
	c-1.419,11.048,1.551,22.14,1.252,32.591C441.528,411.672,438.61,421.983,439.316,432.562z"/>
<path fill-rule="evenodd" clip-rule="evenodd" d="M420.513,320.996c5.463,11.563,1.824,34.267,2.508,51.395
	c0.599,14.938,6.106,23.325,5.641,38.862c-1.323-12.733-6.852-26.574-6.894-42.622C421.727,352.552,423.591,336.41,420.513,320.996z
	"/>
<path fill-rule="evenodd" clip-rule="evenodd" d="M423.647,563.558c-0.727,0.102-1.114-0.137-1.252-0.624
	c-1.571-21.691-1.818-43.884,0-65.813c1.77-21.356,1.224-43.073,5.641-62.053C424.897,476.352,419.551,520.692,423.647,563.558z"/>
<path fill-rule="evenodd" clip-rule="evenodd" d="M455.614,458.886c1.221,26.017-6.978,57.952-4.386,85.868
	c-4.305-26.802,3.348-53.764,3.759-83.986C455.721,460.667,455.517,459.626,455.614,458.886z"/>
<path fill-rule="evenodd" clip-rule="evenodd" d="M434.303,542.248c3.443,2.943,11.892-2.604,14.416,3.134
	c-2.183-1.161-4.621-2.066-8.148-1.88c-2.553,1.418-1.421,6.519-2.507,9.401c3.584,3.578,8.86,2.928,13.163,6.269
	c1.764,1.372,2.114,3.979,4.386,5.014c5.45,2.481,12.443,0.76,18.804,3.761c1.278-0.186,1.229-1.696,2.507-1.882
	c-5.808-6.101-13.63-10.189-18.177-17.549c-5.149,1.127-10.722-0.36-14.417-2.508c5.627-0.13,9.087,2.867,14.417,1.255
	c5.524,7.011,13.027,12.043,19.429,18.177c-2.277,6.096-6.513,2.632-12.535,1.252c-3.966-0.907-9.077-0.253-11.283-1.88
	c-5.994-4.427-11.724-9.864-17.549-10.655c0.673-2.461,0.135-6.131,1.255-8.149C437.549,544.015,433.925,545.135,434.303,542.248z"
	/>
<path fill-rule="evenodd" clip-rule="evenodd" d="M424.275,567.947c0.49,6.465,1.698,9.473,2.507,16.294
	c-6.677-0.564-5.736-11.624-6.269-16.294C421.767,567.947,423.02,567.947,424.275,567.947z M425.527,582.99
	c-2.285-5.134,0.008-10.966-3.759-14.417C421.444,572.551,422.972,579.827,425.527,582.99z"/>
<path fill-rule="evenodd" clip-rule="evenodd" d="M315.214,125.442c-4.374-16.584,0.454-37.978-3.132-56.41
	c1.193-1.174,1.576-0.069,3.132,0c-0.615-5.84,1.397-9.051,1.882-13.789c-3.946-3.786-5.417-10.042-11.911-11.283
	c1.976-6.633,8.034-0.074,11.911,0.628c-0.576-6.737-11.699-2.927-15.043-6.895c14.215-7.745,25.978,5.388,24.443,18.176
	c-0.674,5.625-5.101,11.766,0.627,15.67c-0.204,18.382-0.941,37.295,5.014,49.515c-9.638-10.575-3.917-36.385-7.521-51.395
	c-2.096-0.856-7.271,2.038-10.655,0c-2.732,4.982,0.843,10.458,1.252,16.923c0.796,12.505-4.524,27.686,0.627,36.979
	c1.679,3.023,6.04,3.333,10.028,6.269c2.479,1.821,3.529,4.597,5.014,5.64c11.232,7.893,29.072,12.219,42.622,17.55
	c2.188-1.574,1.754-5.769,3.134-8.149c1.426,3.116-1.041,7.721-2.507,10.028c4.738,7.984,6.141,20.993,10.027,33.22
	c4.943,15.542,12.849,24.57,10.656,46.381c-3.444-7.306-0.579-15.269-1.88-22.563c-0.826-4.63-4.344-8.977-6.267-13.79
	c-5.728-14.311-7.944-29.895-13.792-44.501c-19.352-5.508-37.454-12.27-50.14-24.444
	C319.784,128.394,317.501,126.916,315.214,125.442z M318.978,38.947c-1.147-0.94-2.999,1.215-2.509-1.88
	c-4.147,0.659-11.036-1.426-13.16,1.253c9.342-1.192,16.511,3.122,15.669,10.028c-3.703-2.017-7.248-7.276-12.538-5.641
	c5.652,2.29,7.865,8.012,11.911,11.909c-0.317,4.91-2.556,7.893-1.882,13.79c2.303,1.51,3.54,0.879,6.269,0
	C325.302,56.969,326.257,44.923,318.978,38.947z"/>
<path fill-rule="evenodd" clip-rule="evenodd" d="M469.403,209.43c-5.001,1.27-11.247,6.717-19.431,6.894
	c3.767-5.443,9.403-9.656,14.417-13.789c4.95-4.082,10.188-9.314,16.921-11.282c-4.838,4.247-0.597,14.306-2.508,21.937
	c-7.243,1.172-7.475,6.044-2.507,10.028c0.293,1.965-1.576,1.767-2.507,2.507c2.963,3.096,6.243,5.875,9.4,8.775
	c5.674-0.415,2.29-6.038,4.389-10.028c-1.171-2.59-3.051-4.471-5.641-5.641c0.206-1.464,0.752-2.589,1.252-3.761
	c-0.077-1.383-2.657-0.265-3.759-0.626c-0.12-7.164,3.504-16.056,1.252-21.311c3.295,0.311,1.962,4.774,1.882,6.895
	c-0.148,3.827-2.277,8.991-1.882,12.535c0.742,1.14,3.27,0.493,4.389,1.253c-0.281,1.601-0.879,2.882-1.882,3.76
	c1.569,1.775,3.761,2.924,5.014,5.016c-0.533,4.896,0.446,11.308-3.133,13.162c8.235,3.194,2.117,13.579,4.387,21.937
	c-9.225,6.443-14.988,16.351-21.311,25.697c-10.352,6.572-20.079,13.767-30.084,20.684c1.566-4.492,7.19-4.927,9.4-8.775
	c-3.532,1.9-6.399,4.464-10.027,6.267c8.13-7.957,18.959-13.216,26.952-21.311c3.348,4.517,6.271-3.137,9.401-7.521
	c4.322-6.056,8.724-11.978,14.415-15.67c-2.288-5.593,1.369-9.237,0.627-13.788c-1.301-7.978-12.67-10.754-16.921-16.923
	c-0.166-2.047,2.43-1.329,2.507-3.134c-0.888-2.874-3.483-4.039-4.389-6.895c2.802-0.958,4.244-3.279,7.523-3.76
	c1.257-5.88-0.038-13.87,0.625-18.803c-8.485,4.886-16.929,15.244-26.95,20.683c7.429,0.742,13.397-5.402,20.056-7.521
	c-4.603,9.134-19.061,16.668-35.101,14.416c-3.769-3.751-8.714-6.327-13.162-9.402c2.765-2.42,6.279,4.336,10.03,5.014
	c22.721-5.691,36.971-19.857,47.633-37.607c0.898,5.038-4.081,8.577-6.893,11.909c-9.488,11.232-21.423,22.682-38.86,26.324
	C444.415,225.818,462.359,215.558,469.403,209.43z M450.599,292.792c-0.074,1.543,5.116-2.002,7.522-3.76
	c2.91-2.13,7.095-4.708,7.521-7.522C460.163,284.806,455.955,289.372,450.599,292.792z"/>
<path fill-rule="evenodd" clip-rule="evenodd" d="M399.202,177.464c2.331,5.192,6.171,8.873,7.523,15.043c-2.092,0-4.178,0-6.269,0
	c-4.275-9.514-9.862-17.716-14.415-26.952c0.977-2.155,1.892-4.374,4.386-5.014c-0.744-8.274-8.1-19.142-3.759-26.325
	c0.409,10.178,9.656,17.729,8.147,25.699c5.524,10.145,14.118,17.221,21.31,25.698c-2.359,1.819-5.034,3.323-8.148,4.388
	C405.46,185.414,402.383,181.389,399.202,177.464z M392.308,159.288c-1.397,2.153-3.573,3.528-5.014,5.641
	c1.916,4.827,4.859,9.583,7.522,14.416c2.287,4.151,3.884,11.551,10.027,11.909c-1.045-7.731-9.197-11.693-8.146-19.431
	c6.345,3.712,7.532,19.657,16.922,14.416c-5.374-10.086-15.52-15.403-20.057-26.324c1.661-5.029-4.042-11.788-6.269-16.924
	C388.674,148.714,389.312,155.183,392.308,159.288z"/>
<path fill-rule="evenodd" clip-rule="evenodd" d="M449.973,99.117c5.136,5.937,5.309,16.836,8.775,24.444
	c1.735-2.807-1.415-9.422-1.255-10.654c9.868,1.712,14.917,9.711,22.566,12.535c3.557,1.313,8.482,0.398,11.28,2.507
	c5.919,4.464,4.522,12.388,5.641,20.684c0.354,2.624,2.361,4.799,3.134,7.521c4.675,16.489,3.659,37.852,8.775,55.784
	c1.186,1.112,4.139,0.457,6.267,0.626c-0.666,3.174,1.854,3.161,2.507,5.014c-5.677,18.977-13.716,35.591-20.683,53.277
	c-0.077,2.321-0.913,1.576-2.507,1.253c0.877,2.465,0.451,6.235,2.507,7.521c-1.961,0.128-4.601-0.423-5.641,0.626
	c-0.939,0.184,0.387,3.316,1.255,3.762c-1.561,1.091-4.387,0.995-5.642,3.761c-0.032-1.935,0.235-4.496,3.762-4.388
	c-2.709-4.534-3.897-13.463-3.134-19.43c4.427,0.585,4.812,5.214,8.148,6.895c6.972-17.264,14.379-34.092,20.684-52.023
	c-0.847-5.699-7.565-5.626-11.911-3.133c1.607,2.188,7.748-2.365,8.776,1.253c-7.947-1.368-11.849,3.596-16.925,3.134
	c2.117-4.153,7.611-4.926,11.911-6.895c-0.541-2.594-1.683-4.587-1.88-7.521c-5.119,0.691-13.764,4.457-16.297-1.253
	c1.327-4.715,11.168-3.614,15.669-3.134c-3.326-14.397-3.249-30.718-6.896-44.501c-0.676-2.559-2.775-5.019-3.132-7.521
	c-1.112-7.748,0.617-15.563-5.642-20.684c-13.175-1.451-19.962-9.288-30.087-13.79c-0.979,8.915,4.915,18.484-2.507,23.818
	c6.253-11.135-4.636-23.103-6.266-35.727c-1.467,13.975-4.983,26.605-9.403,38.861c-4.4,12.203-4.386,25.578-12.535,35.1
	c-3.206,1.597-3.874,5.737-7.522,6.893c-3.456,6.782-10.453,10.02-10.027,20.685c0.826-0.033,3.955-3.128,8.149-1.881
	c-0.097,1.559,0.984,1.94,1.252,3.134c-0.484,3.225-5.667,4.561-8.774,3.133c3.423,5.375,6.206,20.088,5.014,30.085
	c0.63,1.251,2.77,0.99,2.508,3.134c-1.903-1.156-5.469-3.257-7.522-0.627c0.439,5.481,6.468,4.406,10.653,3.134
	c3.527,4.829,10.714,6,13.79,11.282c4.412-1.857,8.49-4.046,13.79-5.014c-4.642-0.653-7.817,2.176-12.535,1.254
	c-4.914-0.96-8.694-5.325-12.538-7.521c6.485,0.049,7.947,6.149,13.163,6.895c3.871,0.554,10.128-1.749,14.417-3.134
	c7.274-2.347,14.254-6.392,21.31-6.895c-0.372,2.261-1.058,4.203,0,6.268c-13.404-2.692-26.123,5.44-36.98,9.402
	c-6.665-3.493-10.656-11.854-20.057-10.655c6.749,21.878,13.367,47.216,19.429,67.693c-10.038-1.058-24.665-2.896-37.607-3.134
	c0.092,7.013,4.442,9.768,6.269,15.042c-3.825,11.816-2.01,23.239,0.627,37.608c1.449,7.888,1.987,16.256,3.134,23.817
	c2.369,15.622,9.368,30.033,3.134,44.501c3.51,20.837,0.039,46.588,0,68.319c-0.01,4.262,1.211,8.528,0.628,12.535
	c-0.78,5.335-5.468,14.392,0,20.684c0.13,10.895,0.24,19.743,0.625,27.577c-2.665-7.376-0.6-16.463-1.88-25.07
	c-1.26-8.462-5.039-15.874,0-22.566c1.147-29.104,0.148-55.057,0-80.226c-0.041-6.774,2.55-13.339,1.88-20.057
	c-1.201-12.017-4.996-23.491-6.267-35.725c-1.777-17.075-8.732-33.833-3.136-50.77c-1.698-5.82-6.575-8.465-6.267-16.297
	c-3.563,1.104-7.648-0.019-10.027-1.88c3.701-17.576,4.894-45.151,3.761-64.558c3.339,7.2,5.359,20.554,1.253,28.206
	c0.191,13.353-1.676,24.65-4.389,35.099c12.44,5.319,33.626,1.892,47.011,6.268c-2.025-11.034-8.065-22.27-10.656-34.473
	c-2.839-13.37-5.101-28.319-13.79-35.725c-0.444-3.16,2.311-3.122,2.508-5.641c1.808-10.907-2.357-20.863-3.134-29.458
	c-1.413-15.616,8.704-22.242,16.924-30.713c0.987-3.191,2.872-5.485,5.014-7.521C439.286,147.348,448.003,126.606,449.973,99.117z
	 M491.339,204.417c3.46,4.246,10.336,0.245,15.044,0C505.44,200.102,492.525,201.109,491.339,204.417z M412.367,207.55
	c2.459,1.335,7.434,0.542,7.522-2.507C417.368,202.695,412.324,203.762,412.367,207.55z M416.126,238.888
	c0.456-4.426,0.77-18.439-2.507-23.19C415.287,222.597,413.548,232.901,416.126,238.888z M458.748,247.663
	c3.667-1.395,10.125-2.471,13.787-1.879c-0.518-1.772,0.886-1.625,0.628-3.134C468.628,244.178,460.487,245.426,458.748,247.663z
	 M392.936,263.96c0.094,2.359-0.291,8.191,0.627,1.253c0.273-2.079,1.017-10.681-0.627-11.282
	C393.027,256.665,392.816,260.944,392.936,263.96z M493.221,278.376c2.219-4.739-1.303-9.137-3.761-11.281
	C491.222,270.347,489.156,277.426,493.221,278.376z M490.087,277.748c0.046-2.344-0.265-4.332-1.255-5.64
	C488.735,274.503,488.865,276.672,490.087,277.748z"/>
<path fill-rule="evenodd" clip-rule="evenodd" d="M398.577,237.009c0.528,3.232,0.819,6.702,0.625,10.654
	c0.852-0.193,0.52-1.568,0.627-2.507c1.523,4.207,0.181,15.93-2.504,20.057c-2.301-6.376,2.117-18.479,0.624-26.325
	c-0.889-1.825-3.711-1.72-5.641-2.507C392.984,234.023,396.57,236.834,398.577,237.009z"/>
<path fill-rule="evenodd" clip-rule="evenodd" d="M426.155,563.558c2.879,1.811,3.899-3.603,6.896-3.759
	c-3.933,6.845-0.38,19.112-1.255,26.325c-4.302,1.852-8.273,0.777-13.163,2.507c-3.065-7.513-6.63-14.489-5.638-24.445
	c0.959,9.102,2.805,15.188,6.266,23.19c3.16-1.643,9.243-0.367,11.908-2.507c-0.227-6.611-2.526-13.979-0.625-20.684
	c-4.9,3.313-12.362-0.719-17.549-1.252c1.588-2.859,6.422,0.18,9.4,1.252c3.807-2.04,7.388-4.311,10.028-7.521
	c-2.321-41.173,3.733-78.853,6.893-116.58c-1.022,31.569-3.022,67.592-4.386,100.91c-2.03-11.476,1.122-27.942,0.628-41.994
	c-3.31,17.778-3.374,39.691-1.882,58.916C431.459,560.09,428.346,561.36,426.155,563.558z"/>
<path fill-rule="evenodd" clip-rule="evenodd" d="M448.72,549.771c0.533-0.117,0.59,0.242,0.625,0.625
	c1.726,0.991,4.351,1.083,6.269,1.882c2.216,7.603,12.219,7.419,15.669,13.788c-4.05-2.012-9.538-3.017-13.79-3.132
	c0.364-6.634-4.759-7.779-9.4-9.403C448.009,551.985,447.998,550.511,448.72,549.771z M456.241,554.786
	c-1.627-0.906-4.33-3.994-6.897-1.882C450.947,553.834,455.428,555.147,456.241,554.786z M458.748,562.306
	c1.701-0.388,4.974,0.796,5.642-0.628c-2.841-0.502-4.762-1.922-6.269-3.761C458.128,559.582,457.884,561.498,458.748,562.306z"/>
</svg>
