<?xml version="1.0" encoding="utf-8"?>
<!-- Generator: Adobe Illustrator 17.0.0, SVG Export Plug-In . SVG Version: 6.00 Build 0)  -->
<!DOCTYPE svg PUBLIC "-//W3C//DTD SVG 1.1//EN" "http://www.w3.org/Graphics/SVG/1.1/DTD/svg11.dtd">
<svg version="1.1" id="Layer_1" xmlns="http://www.w3.org/2000/svg" xmlns:xlink="http://www.w3.org/1999/xlink" x="0px" y="0px"
	 width="800px" height="600px" viewBox="0 0 800 600" enable-background="new 0 0 800 600" xml:space="preserve">
<path fill="#FFFFFF" d="M399.971,172.52c12.611-5.104,27.096-1.602,38.091,5.729c1.751,0.896,0.896,3.353,1.507,4.928
	c5.145-5.43,12.421-9.041,20.05-8.267c16.1-1.045,30.164,14.186,29.946,29.892c-0.136,9.598-0.082,19.222,1.29,28.752
	c0.787,9.272,6.462,17.593,5.498,27.096c-5.891,0.489-11.064-2.851-15.177-6.692c-9.231-8.498-15.435-19.684-20.552-31.005
	c-3.801-8.892-7.493-17.987-8.946-27.598c-0.76-4.48,1.181-9.598-1.643-13.548c-2.348-2.05-4.71,0.285-6.855,1.276
	c0.082,0.896,0.258,2.661,0.339,3.557c1.195-0.272,2.43-0.543,3.665-0.801c0.258,14.987,4.805,29.593,11.552,42.883
	c1.385,2.118,0.679,4.656,0.068,6.91c-5.348-2.919-10.453-6.625-16.629-7.561c-13.806-1.887-27.096,4.52-38.091,12.272
	c-4.955,3.285-8.661,7.928-12.109,12.693c-6.801-5.864-15.476-8.946-24.123-10.833c6.014-14.634,9.217-30.191,12.638-45.585
	C382.812,186.163,389.613,176.254,399.971,172.52 M413.451,199.195c-5.05,7.426-6.516,16.914-4.914,25.616
	c1.249,3.964,5.308,5.199,9.082,4.683c6.312-6.353,7.113-16.249,6.693-24.72C423.021,199.955,417.782,198.774,413.451,199.195
	 M384.089,205.304c-6,2.783-5.824,10.426-5.227,15.991c0.625,2.674-0.326,6.299,2.186,8.159c2.769,2.783,7.113-0.081,8.647-2.891
	c2.661-5.077,4.833-11.186,2.878-16.874C391.541,206.322,387.509,203.485,384.089,205.304z"/>
<path fill="#FFFFFF" d="M369.237,187.697c3.475-3.272,8.471-3.747,12.937-4.683c-2.376,4.738-4.005,9.815-4.996,15.027
	c-2.824,14.851-7.1,29.403-12.625,43.467c-0.842-0.041-2.511-0.136-3.353-0.176c2.729-5.647,2.946-12.027,4.181-18.082
	c1.018-8.403,2.932-16.874,1.643-25.358C366.563,194.444,366.414,190.222,369.237,187.697z"/>
<path fill="#FFFFFF" d="M413.112,204.082c2.606-3.462,8.498-1.941,9.679,2.104c0.394,3.367,0.203,6.76,0.299,10.154
	c-4.263-1.67-8.715-1.738-12.842,0.271C410.831,212.377,410.831,207.856,413.112,204.082z"/>
<path fill="#FFFFFF" d="M383.871,207.612c1.005-0.014,3.014-0.027,4.018-0.041c2.24,3.082,2.946,6.747,2.403,10.493
	c-3.19-0.652-6.394-0.57-9.367,0.787C380.627,214.834,381.577,210.938,383.871,207.612z"/>
<path fill="#FFFFFF" d="M393.156,255.246c9.475-11.647,23.01-20.118,37.833-22.847c11.715-2.023,24.91,3.204,30.829,13.792
	c4.928,8.145,3.855,18.367,1.194,27.096c-1.412-3.109-0.448-8.294-4.561-9.231c2.525-8.199-0.57-18.19-8.308-22.412
	c-6.136-3.76-13.602-3.082-20.457-2.701c-14.512,2.511-25.779,12.855-35.295,23.417C394.025,260.025,392.111,257.5,393.156,255.246z
	"/>
<path fill="#FFFFFF" d="M429.863,241.21c7.1-1.643,15-0.353,21.041,3.801c5.552,4.358,7.1,12.109,5.484,18.761
	c-4.127,1.602-8.715,3.326-10.819,7.548c-3.367,5.376-1.928,11.919-2.158,17.892c-13.344,13.48-25.48,28.1-38.417,41.933
	c-3.054-19.399-4.751-39.014-8.783-58.264c-0.312-2.457-1.358-4.914-0.977-7.385C403.596,253.957,415.419,243.694,429.863,241.21z"
	/>
<path fill="#FFFFFF" d="M342.169,247.427c7.466-3.204,15.937-4.127,23.865-2.131c9.15,2.077,18.557,4.792,26.037,10.697
	c-0.122,2.566-0.204,5.118-0.244,7.67c-11.023-4.602-21.734-10.548-33.72-12.299c-9.896-1.615-21.747,4.127-23.607,14.661
	c-1.901,8.281,2.294,16.154,7.059,22.602c-5.104,1.629-2.851,7.792-2.783,11.674c-5.878-6.475-9.91-14.607-11.607-23.186
	C324.712,265.387,331.146,252.301,342.169,247.427z"/>
<path fill="#FFFFFF" d="M336.508,268.658c0.923-9,9.76-15.693,18.571-15.489c12.611,0.326,24.028,6.38,35.295,11.417
	c3.964,1.439,2.172,6.448,3.122,9.611c3.041,18.082,5.702,36.272,6.502,54.599c-11.892-5.769-22.928-13.236-35.023-18.516
	c-1.615-1.045-3.91-1.724-4.385-3.828c-1.941-6.041-3.312-12.828-8.213-17.294c-2.376-2.457-5.973-2.471-9.082-2.987
	C339.44,281.188,336.047,275.147,336.508,268.658z"/>
<path fill="#FFFFFF" d="M447.47,275.5c1.235-5.498,6.72-8.797,12.177-8.376c-0.692,12.57,4.466,24.435,5.471,36.829
	c0.19,4.792-0.882,10.561-5.281,13.29c-5.701,4.683-14.552-2.539-13.127-9.15c-0.747-0.149-2.253-0.448-3-0.597
	c-0.095,9.72-2.294,19.317-1.656,29.078c-0.855,28.643-10.561,55.942-18.068,83.31c8.199,2.226,16.127,6.163,24.883,4.968
	c1.941-1.792,3.597-3.855,4.534-6.353c1.072,1.371,4.222,4.249,4.575,0.611c-1.099-2.946-3.787-5.946-2.416-9.272
	c0.978-3.706,4.588-5.715,8.281-5.647c3.977,4.032,3,10.263,0.95,15c-2.281,5.701-3.353,12.76-9.041,16.208
	c-9.217,5.24-20.186,2.348-30.069,1.249c-7.833-0.896-15.611-2.457-23.498-2.674c-2.566-2.172-6.136-1.1-9.095-0.733
	c-13.751,3.312-27.978,3.217-41.933,5.036c-6.584,0.842-13.901-1.208-17.729-6.95c-5.797-8.647-6.964-19.507-6.706-29.675
	c-0.122-2.973,1.548-5.511,2.742-8.104c3.733-0.19,7.778-0.027,10.67,2.729c4.005,2.688,3.176,8.199,1.33,11.973
	c-2.389,0.475-4.792,1.018-7.127,1.575c0.258,1.968,1.52,3.421,3,4.67c0.027,0.896,0.082,2.701,0.109,3.597
	c2.484,3.557,6.163,7.195,10.874,6.787c5.946-0.285,11.715-2.335,16.915-5.172c0.787,0.869,2.348,2.606,3.122,3.489
	c-2.701-14.987-3.652-30.557-0.339-45.517c2.932-15.299,10.928-28.874,16.059-43.426c7.154,4.167,14.525,8.199,20.485,14.05
	c1.33,2.131,2.946-0.964,4.154-1.683c9.883-10.507,18.421-22.236,28.453-32.648c3.285-3.706,7.154-6.964,9.638-11.322
	c1.52,1.792,3.095,3.57,5.213,4.724c0.625-3.163-0.475-6.19-1.697-9.041C447.294,291.234,445.76,283.102,447.47,275.5z"/>
<path fill="#FFFFFF" d="M340.146,290.039c3.149-0.326,6.937-2.104,9.543,0.652c4.792,4.29,6,11.091,7.358,17.091
	c1.52,5.946,0.407,12.068,0.489,18.109c2.742,2.091,3.842-2.308,5.023-3.95c2.932,2.077,6.041,3.882,9.163,5.674
	c-5.959,8.471-20.865,8.919-26.62,0.095c-2.539-5.688-0.814-12.095-1.602-18.082C343.133,302.949,339.956,296.772,340.146,290.039z"
	/>
<path fill="#FFFFFF" d="M405.388,334.551c12.123-15.027,25.345-29.118,38.933-42.815c0.448,2.172,0.991,4.33,1.615,6.475
	c-13.317,15.109-26.295,30.503-38.77,46.318C406.555,341.203,405.89,337.877,405.388,334.551z"/>
<path fill="#FFFFFF" d="M361.703,310.347c13.521,6.76,26.485,14.579,39.313,22.548c0.271,2.824,0.706,5.634,1.33,8.403
	c-10.996-7.235-22.752-13.236-34.643-18.815c-2.036-1.045-3.855-2.443-5.661-3.787C362.002,315.899,361.866,313.116,361.703,310.347
	z"/>
<path fill="#FFFFFF" d="M310.227,339.275c5.81-8.932,9.896-19.534,18.625-26.24c7.643,7.901,12.462,17.905,18.774,26.811
	c4.996,6.625,8.498,14.294,14.023,20.539c-6.665,6.082-12.774,13.208-15.245,22.073c-6.408-9-12.095-18.598-20.009-26.39
	c-5.335-5.186-10.398-10.684-16.1-15.462c4.683,7.778,11.634,13.806,17.281,20.865c6.339,6.706,10.073,15.34,16.141,22.249
	c-7.371,0.787-14.797,1.439-22.005,3.258c-2.443-3.502-5.579-6.435-8.091-9.855c-1.575-3.937-1.995-8.172-2.797-12.285
	c-2.796,0.081-5.552,0.326-8.254,0.869c-7.548-6.625-12.109-15.828-19.466-22.629C291.942,340.742,301.593,343.076,310.227,339.275z
	"/>
<path fill="#FFFFFF" d="M465.525,357.317c12.801,9.245,8.321,30.422-4.086,37.928c-8.131,5.566-18.272,4.955-27.557,6.435
	c0.258-0.842,0.774-2.525,1.032-3.367c9.462,0.041,19.575-0.937,27.34-6.91C473.276,384.086,474.267,366.792,465.525,357.317z"/>
<path fill="#FFFFFF" d="M281.882,376.973c8.661-3.76,17.512-7.425,26.811-9.353c3,17.254,9.312,33.951,10.154,51.599
	c-0.326,2.851,2.932,8.24-1.398,9.082c-5.688,2.131-11.24,4.602-16.602,7.453C293.815,416.395,291.005,395.571,281.882,376.973z"/>
<path fill="#FFFFFF" d="M265.212,368.163c5.063,1.71,9.883,4.1,14.498,6.815c0.597,4.71,2.756,8.946,4.398,13.331
	c5.118,14.932,8.973,30.286,11.973,45.788c-5.199-3.611-10.982-6.285-16.141-9.896C275.747,405.345,271.185,386.543,265.212,368.163
	z"/>
<path fill="#FFFFFF" d="M522.499,386.123c8.742-3.855,16.412-9.855,25.521-13.018c0.054,6.543-2.294,12.72-3.72,19.005
	c-3.122,13.276-4.276,26.892-6.109,40.372c-8.009,6.299-15.625,13.059-24.299,18.448
	C513.947,429.02,519.417,407.693,522.499,386.123z"/>
<path fill="#FFFFFF" d="M485.181,381.141c7.982,0.176,15.557,2.932,23.376,4.317c3.652,0.624,7.249,1.575,10.819,2.62
	c-4.71,21.516-6.733,43.44-8.769,65.323c-5.837-0.258-11.688-0.434-17.444-1.344c-5.471-1.14-10.466-3.977-16.073-4.575
	C478.231,425.191,482.249,403.227,485.181,381.141z"/>
<path fill="#949293" d="M383.07,181.317c5.484-7.086,13.208-12.475,22.1-14.145c13.181-1.683,27.136,0.719,38.186,8.376
	c12.991-8.702,32.349-5.946,41.987,6.53c5.729,7.154,5.579,16.752,6.842,25.385c-0.095,9.747,0.692,19.521,2.851,29.05
	c1.765,7.602,6.204,14.742,5.457,22.806c0.027,2.756-2.403,5.606-5.281,5.403c-8.444,0.679-14.987-6.068-20.62-11.417
	c-5.416-5.009-8.281-12.027-13.181-17.39c-0.19,1.548,0.149,2.932,1.005,4.168c9.122,10.874,9.53,27.91,1.792,39.625
	c2.335,11.023,7.303,22.602,3.448,33.842c-1.534,4.14-5.091,7.928-9.611,8.566c-3.828,0.882-7.507-1.005-10.792-2.715
	c0,7.548-1.561,15.027-1.099,22.602c-0.706,18.503-5.023,36.68-10.697,54.259c9.407,0.774,18.652-3.272,25.697-9.299
	c5.227-4.683,10.358-12.055,6.95-19.249c-1.208-5.05-6.896-8.484-6.679-13.697c5.729-0.068,10.303,4.724,12.53,9.625
	c6.082,13.127-0.977,29.743-13.507,36.191c-8.498,4.29-18.136,5.946-27.584,6.068c-1.385,4.29-2.796,8.566-4.195,12.855
	c6.57,0.869,13.073,2.539,19.779,1.873c2.104-2.213,3.625-4.806,3.082-7.982c-0.801-7.195,6.543-13.1,13.466-11.145
	c0.923,1.086,1.873,2.172,2.851,3.258c0.801,10.629-1.548,21.516-6.855,30.774c-5.824,7.493-16.344,5.837-24.652,5.606
	c-12.611-1.575-25.25-3.258-37.779-5.145c-15.652,3.407-31.67,4.276-47.553,5.946c-7.195,0.706-15.15-1.1-19.928-6.883
	c-7.072-8.444-8.023-20.077-7.317-30.639c0.109-4.548,2.824-8.511,5.566-11.932c4.005-2.973,9.421-0.855,12.951,1.873
	c5.634,4.276,5.932,14.254-0.136,18.285c-4.616,2.145-0.57,8.62,3.475,8.064c6.665,0.529,12.842-2.43,18.978-4.588
	c-2.905-12.883-2.851-26.322-0.597-39.3c3.19-15.584,10.656-29.824,18.041-43.766c-2.444-1.276-4.86-2.593-7.249-3.923
	c-3.787,3.163-7.656,6.828-12.76,7.493c-5.376,0.991-10.86-0.054-15.774-2.308c6.665,8.362,12.109,17.593,18.163,26.376
	c-6.693,7.018-14.675,14.213-15.408,24.557c-9.217,1.873-18.733,1.9-27.815,4.412c-1.846-2.891-3.787-5.742-6.19-8.213
	c2.403,11.783,5.62,23.43,6.828,35.417c0.407,4.045,1.358,7.996,2.118,11.973l-1.1,1.181c-6.489,2.063-12.937,4.29-19.018,7.358
	c-1.819,0.543-3.706,2.186-5.593,1.425c-4.303-2.389-7.846-5.973-12.353-7.996c-3.014-1.548-6.448-2.362-9.163-4.425
	c-0.38-6.679-2.389-13.059-3.882-19.534c-3.149-14.471-7.602-28.602-11.729-42.815c7.914,1.493,14.715,6.014,21.992,9.19
	c5.756-1.425,11.023-4.466,16.738-6.149c-7.439-7.887-11.742-18.571-20.987-24.693c3.584-1.385,7.385-2.118,11.254-1.765
	c6.91,0.882,12.869-3.76,19.779-3.489c1.357-5.824,5.036-10.656,8.267-15.557c2.715-3.72,5.186-7.806,8.932-10.616
	c6.082,2.606,9.15,8.932,13.059,13.887c0.149-6.122,0.109-12.231-0.014-18.34c-9.082-8.756-16.928-20.62-16.29-33.707
	c-0.652-11.987,6.462-24.177,17.539-29.037c4.874-2.416,10.371-2.443,15.666-3.054c2.335-4.683,2.552-9.991,3.529-15.041
	c2.308-11.281,1.059-22.928,3.041-34.25C366.332,183.57,375.604,181.141,383.07,181.317 M399.971,172.52
	c-10.358,3.733-17.159,13.643-19.48,24.096c-3.421,15.394-6.625,30.951-12.638,45.585c8.647,1.887,17.322,4.968,24.123,10.833
	c3.448-4.765,7.154-9.407,12.109-12.693c10.996-7.751,24.286-14.159,38.091-12.272c6.177,0.937,11.281,4.643,16.629,7.561
	c0.611-2.253,1.317-4.792-0.068-6.91c-6.747-13.29-11.294-27.897-11.552-42.883c-1.235,0.258-2.471,0.529-3.665,0.801
	c-0.081-0.896-0.258-2.661-0.339-3.557c2.145-0.991,4.507-3.326,6.855-1.276c2.824,3.95,0.882,9.068,1.643,13.548
	c1.453,9.611,5.145,18.706,8.946,27.598c5.118,11.322,11.321,22.507,20.552,31.005c4.113,3.842,9.285,7.181,15.177,6.692
	c0.964-9.502-4.71-17.824-5.498-27.096c-1.371-9.53-1.425-19.154-1.29-28.752c0.217-15.706-13.846-30.937-29.946-29.892
	c-7.629-0.774-14.905,2.837-20.05,8.267c-0.611-1.575,0.244-4.032-1.507-4.928C427.067,170.919,412.582,167.416,399.971,172.52
	 M369.237,187.697c-2.824,2.525-2.674,6.747-2.213,10.195c1.29,8.484-0.624,16.955-1.643,25.358
	c-1.235,6.054-1.453,12.435-4.181,18.082c0.842,0.041,2.512,0.136,3.353,0.176c5.525-14.064,9.801-28.616,12.625-43.467
	c0.991-5.213,2.62-10.29,4.996-15.027C377.708,183.951,372.713,184.426,369.237,187.697 M393.156,255.246
	c-1.045,2.253,0.869,4.778,1.235,7.113c9.516-10.561,20.783-20.905,35.295-23.417c6.855-0.38,14.322-1.059,20.457,2.701
	c7.738,4.222,10.833,14.213,8.308,22.412c4.113,0.937,3.15,6.122,4.561,9.231c2.661-8.729,3.733-18.951-1.194-27.096
	c-5.919-10.588-19.114-15.815-30.829-13.792C416.166,235.128,402.632,243.599,393.156,255.246 M429.863,241.21
	c-14.444,2.484-26.268,12.747-34.63,24.286c-0.38,2.471,0.665,4.928,0.977,7.385c4.032,19.249,5.729,38.865,8.783,58.264
	c12.937-13.833,25.073-28.453,38.417-41.933c0.231-5.973-1.208-12.516,2.158-17.892c2.104-4.222,6.693-5.946,10.819-7.548
	c1.615-6.652,0.068-14.403-5.484-18.761C444.864,240.857,436.963,239.567,429.863,241.21 M342.169,247.427
	c-11.023,4.873-17.457,17.96-15,29.688c1.697,8.579,5.729,16.711,11.607,23.186c-0.068-3.882-2.321-10.045,2.783-11.674
	c-4.765-6.448-8.959-14.322-7.059-22.602c1.86-10.534,13.711-16.276,23.607-14.661c11.987,1.751,22.697,7.697,33.72,12.299
	c0.041-2.552,0.122-5.104,0.244-7.67c-7.48-5.905-16.887-8.62-26.037-10.697C358.106,243.3,349.635,244.223,342.169,247.427
	 M336.508,268.658c-0.461,6.489,2.932,12.53,6.788,17.512c3.109,0.516,6.706,0.529,9.082,2.987
	c4.901,4.466,6.272,11.254,8.213,17.294c0.475,2.104,2.769,2.783,4.385,3.828c12.095,5.281,23.132,12.747,35.023,18.516
	c-0.801-18.326-3.462-36.517-6.502-54.599c-0.95-3.163,0.842-8.172-3.122-9.611c-11.267-5.036-22.684-11.091-35.295-11.417
	C346.268,252.966,337.431,259.658,336.508,268.658 M447.47,275.5c-1.71,7.602-0.176,15.733,2.851,22.833
	c1.222,2.851,2.321,5.878,1.697,9.041c-2.118-1.154-3.692-2.932-5.213-4.724c-2.484,4.358-6.353,7.616-9.638,11.322
	c-10.032,10.412-18.571,22.141-28.453,32.648c-1.208,0.72-2.824,3.815-4.154,1.683c-5.959-5.851-13.331-9.883-20.485-14.05
	c-5.131,14.552-13.127,28.127-16.059,43.426c-3.312,14.96-2.362,30.53,0.339,45.517c-0.774-0.882-2.335-2.62-3.122-3.489
	c-5.199,2.837-10.969,4.887-16.915,5.172c-4.71,0.407-8.389-3.231-10.874-6.787c-0.027-0.896-0.081-2.701-0.109-3.597
	c-1.48-1.249-2.742-2.701-3-4.67c2.335-0.557,4.738-1.1,7.127-1.575c1.846-3.774,2.674-9.285-1.33-11.973
	c-2.891-2.756-6.937-2.919-10.67-2.729c-1.195,2.593-2.864,5.131-2.742,8.104c-0.258,10.168,0.909,21.028,6.706,29.675
	c3.828,5.742,11.145,7.792,17.729,6.95c13.955-1.819,28.182-1.724,41.933-5.036c2.959-0.367,6.529-1.439,9.095,0.733
	c7.887,0.217,15.666,1.778,23.498,2.674c9.883,1.1,20.851,3.991,30.069-1.249c5.688-3.448,6.76-10.507,9.041-16.208
	c2.05-4.738,3.027-10.969-0.95-15c-3.693-0.068-7.303,1.941-8.281,5.647c-1.371,3.326,1.317,6.326,2.416,9.272
	c-0.353,3.638-3.502,0.76-4.575-0.611c-0.937,2.498-2.593,4.561-4.534,6.353c-8.756,1.195-16.684-2.742-24.883-4.968
	c7.507-27.367,17.213-54.666,18.068-83.31c-0.638-9.76,1.561-19.358,1.656-29.078c0.747,0.149,2.254,0.448,3,0.597
	c-1.425,6.611,7.425,13.833,13.127,9.15c4.398-2.729,5.471-8.498,5.281-13.29c-1.005-12.394-6.163-24.258-5.471-36.829
	C454.19,266.704,448.705,270.002,447.47,275.5 M340.146,290.039c-0.19,6.733,2.986,12.91,3.353,19.589
	c0.787,5.987-0.937,12.394,1.602,18.082c5.756,8.824,20.661,8.376,26.62-0.095c-3.122-1.792-6.231-3.597-9.163-5.674
	c-1.181,1.643-2.281,6.041-5.023,3.95c-0.081-6.041,1.032-12.163-0.489-18.109c-1.357-6-2.566-12.801-7.358-17.091
	C347.083,287.935,343.296,289.713,340.146,290.039 M405.388,334.551c0.502,3.326,1.167,6.652,1.778,9.978
	c12.475-15.815,25.453-31.209,38.77-46.318c-0.624-2.145-1.167-4.303-1.615-6.475C430.732,305.433,417.51,319.524,405.388,334.551
	 M361.703,310.347c0.163,2.769,0.299,5.552,0.339,8.349c1.805,1.344,3.624,2.742,5.661,3.787
	c11.892,5.579,23.648,11.579,34.643,18.815c-0.624-2.769-1.059-5.579-1.33-8.403C388.188,324.927,375.224,317.108,361.703,310.347
	 M310.227,339.275c-8.634,3.801-18.285,1.466-27.123,3.801c7.358,6.801,11.919,16.005,19.466,22.629
	c2.701-0.543,5.457-0.787,8.254-0.869c0.801,4.113,1.222,8.349,2.797,12.285c2.511,3.421,5.647,6.353,8.091,9.855
	c7.208-1.819,14.634-2.471,22.005-3.258c-6.068-6.91-9.801-15.543-16.141-22.249c-5.647-7.059-12.598-13.086-17.281-20.865
	c5.702,4.778,10.765,10.276,16.1,15.462c7.914,7.792,13.602,17.39,20.009,26.39c2.471-8.864,8.579-15.991,15.245-22.073
	c-5.525-6.244-9.027-13.914-14.023-20.539c-6.312-8.905-11.131-18.91-18.774-26.811
	C320.123,319.741,316.037,330.343,310.227,339.275 M465.525,357.317c8.742,9.475,7.751,26.77-3.272,34.087
	c-7.765,5.973-17.878,6.95-27.34,6.91c-0.258,0.842-0.774,2.525-1.032,3.367c9.285-1.48,19.426-0.869,27.557-6.435
	C473.846,387.738,478.326,366.561,465.525,357.317 M281.882,376.973c9.122,18.598,11.932,39.422,18.964,58.78
	c5.362-2.851,10.914-5.321,16.602-7.453c4.331-0.842,1.072-6.231,1.398-9.082c-0.842-17.647-7.154-34.345-10.154-51.599
	C299.394,369.548,290.543,373.213,281.882,376.973 M265.212,368.163c5.973,18.38,10.534,37.182,14.729,56.037
	c5.159,3.611,10.941,6.285,16.141,9.896c-3-15.503-6.855-30.856-11.973-45.788c-1.643-4.385-3.801-8.62-4.398-13.331
	C275.095,372.263,270.276,369.873,265.212,368.163z"/>
<path fill="#949293" d="M413.451,199.195c4.33-0.421,9.57,0.76,10.86,5.579c0.421,8.471-0.38,18.367-6.693,24.72
	c-3.774,0.516-7.833-0.719-9.082-4.683C406.935,216.11,408.401,206.621,413.451,199.195 M413.112,204.082
	c-2.281,3.774-2.281,8.294-2.864,12.53c4.127-2.009,8.579-1.941,12.842-0.271c-0.095-3.394,0.095-6.787-0.299-10.154
	C421.61,202.141,415.718,200.621,413.112,204.082z"/>
<path fill="#949293" d="M384.089,205.304c3.421-1.819,7.453,1.018,8.484,4.385c1.955,5.688-0.217,11.797-2.878,16.874
	c-1.534,2.81-5.878,5.674-8.647,2.891c-2.512-1.86-1.561-5.484-2.186-8.159C378.265,215.73,378.088,208.087,384.089,205.304
	 M383.871,207.612c-2.294,3.326-3.244,7.222-2.946,11.24c2.973-1.357,6.177-1.439,9.367-0.787c0.543-3.747-0.163-7.412-2.403-10.493
	C386.885,207.585,384.876,207.598,383.871,207.612z"/>
<path fill="#949293" d="M520.829,383.856c10.235-4.032,18.421-13.534,29.946-13.914c-0.421,6.882-1.751,13.656-3.529,20.295
	c-3.149,14.417-5.321,29.159-4.683,43.942c-4.263,3-8.946,5.389-12.91,8.783c-5.851,5.199-14.2,7.778-17.566,15.421
	c-4.154-1.724-8.607-2.715-13.1-2.376c-7.982,0.502-14.865-4.249-22.304-6.299c-0.896,0.285-2.701,0.855-3.597,1.14
	c-0.339-6.177,1.29-12.163,2.376-18.177c2.05-16.276,4.629-32.471,7.263-48.653c0.068-2.824,2.254-5.837,5.389-5.213
	C499.068,380.095,509.738,383.611,520.829,383.856 M522.499,386.123c-3.082,21.571-8.552,42.897-8.607,64.807
	c8.674-5.389,16.29-12.15,24.299-18.448c1.833-13.48,2.987-27.096,6.109-40.372c1.425-6.285,3.774-12.462,3.72-19.005
	C538.911,376.267,531.241,382.267,522.499,386.123 M485.181,381.141c-2.932,22.086-6.95,44.051-8.091,66.341
	c5.606,0.597,10.602,3.434,16.073,4.575c5.756,0.909,11.607,1.086,17.444,1.344c2.036-21.883,4.059-43.806,8.769-65.323
	c-3.57-1.045-7.167-1.996-10.819-2.62C500.738,384.073,493.163,381.317,485.181,381.141z"/>
</svg>
