<?xml version="1.0" encoding="utf-8"?>
<!-- Generator: Adobe Illustrator 17.0.0, SVG Export Plug-In . SVG Version: 6.00 Build 0)  -->
<!DOCTYPE svg PUBLIC "-//W3C//DTD SVG 1.1//EN" "http://www.w3.org/Graphics/SVG/1.1/DTD/svg11.dtd">
<svg version="1.1" id="Layer_1" xmlns="http://www.w3.org/2000/svg" xmlns:xlink="http://www.w3.org/1999/xlink" x="0px" y="0px"
	 width="800px" height="600px" viewBox="0 0 800 600" enable-background="new 0 0 800 600" xml:space="preserve">
<path fill="#FFFFFF" d="M360.513,176.362c13.521-3.828,27.842,2.158,37.548,11.647c-2.294,0.774-4.887,1.357-6.435,3.38
	c-0.041,1.181-0.122,3.557-0.163,4.751c1.643-1.032,3.299-2.077,4.914-3.177c1.846-0.054,3.733-0.068,5.634-0.068
	c1.059,1.643,2.145,3.272,3.258,4.914c-1.276,0.38-3.842,1.127-5.118,1.493c2.796,3.014,8.484,0.923,10.113,5.606
	c-3.367-3.828-7.914-0.095-8.797,3.692c0.217-2.213,0.421-4.412,0.611-6.584c-0.719,0.041-2.158,0.136-2.891,0.176
	c0.326,9.068,1.738,18.571,7.466,25.955c1.846,0.014,3.693,0.041,5.579,0.095c4.358-3.72,4.602-9.611,2.959-14.756
	c5.281,10.887,12.177,23.417,24.964,26.403c0.407,6.53,3.801,12.815,9.801,15.774c-1.887,5.131-3.19,10.575-6.163,15.218
	c-6.964,9.109-17.172,16.371-28.86,17.281c-16.181,2.05-31.209-5.43-45.313-12.258c3.814,5.009,9.896,7.493,15.353,10.276
	c13.113,5.987,28.412,7.873,42.245,3.204c-0.041,6.543,3.502,12.516,9.503,15.231c3.272-4.67,9.122-7.032,14.729-5.756
	c11.294,2.335,18.951,12.217,30.014,15.285c-5.688,5.091-13.521,1.398-19.073-1.914c-7.195-4.588-15.788-10.344-24.652-7.208
	c2.091,2.294,5.321,2.091,8.145,2.769c9.272,1.656,15.679,9.652,24.707,12.027c2.457,0.937,5.063,0.747,7.493-0.38
	c-5.145,4.14-7.914,10.208-10.751,15.991c-3.937-1.154-7.846-2.335-11.81-3.299c2.077-4.941,5.674-8.932,8.403-13.494
	c-4.996,2.715-7.534,7.955-10.059,12.76c-1.724-0.339-3.435-0.665-5.118-0.991c1.643-2.946,3.231-5.932,4.371-9.109
	c-3.285,2.959-7.426,7.154-6.462,11.946c2.118-0.095,4.235,0.109,6.339,0.597c-0.244,0.937-0.733,2.796-0.977,3.733
	c-1.792,0.285-3.597,0.299-5.348,0.407c-0.502-1.792-0.964-3.475-1.792-5.104c-0.489,0.91-1.466,2.742-1.955,3.652
	c-4.765,0.339-9.475-0.638-14.186-0.991c0.462-1.371,0.937-2.742,1.453-4.086c4.181-0.339,8.403-0.136,12.57,0.516
	c0.937-0.719,1.873-1.439,2.824-2.158c-4.466-0.149-8.919-0.353-13.371-0.57c0.584-1.805,1.167-3.597,1.765-5.376
	c4.168-0.57,8.824-0.516,12.136-3.57c2.579-2.172,5.81-5.769,3.882-9.313c-3.014-3.149-7.806-3.041-11.797-2.837
	c-0.163-0.516-0.489-1.561-0.652-2.077c-5.294-1.167-9.34-5.376-14.756-6.163c-9.217-1.86-18.462,1.873-26.091,6.788
	c-2.742,1.697-4.534,4.453-5.525,7.466c3.842-1.561,6.339-5.091,9.896-7.113c5.824-3.394,12.91-4.208,19.494-3.136
	c5.267,0.828,9.774,3.855,14.457,6.217c3.529,1.887,7.575,2.349,11.294,3.774c-4.86,6.611-13.765,5.837-20.811,4.045
	c-8.457-2.348-16.806-6.231-25.765-5.769c-9.285,1.792-18.082,6.312-24.299,13.548c0.041-14.593,0.068-29.879-6.326-43.345
	c-3.136-5.661-6.312-11.702-11.742-15.476c3-13.331,9.244-26.2,8.525-40.168c0.652-8.702-2.213-17.865-8.756-23.824
	c-5.036-5.091-11.77-8.05-18.747-9.231C341.508,183.991,350.848,178.004,360.513,176.362 M371.333,206.783
	c1.968-2.756,3.434-5.919,5.959-8.254c2.525-1.561,5.634-1.371,8.484-1.901c-0.231-0.95-0.706-2.837-0.937-3.787
	C376.831,190.453,367.993,198.652,371.333,206.783 M377.129,209.403c0.462,0.136,1.385,0.421,1.846,0.557
	c1.466-3.041,3.815-5.661,7.005-6.91c0.882,1.819,1.806,3.652,2.593,5.566c-0.461-0.475-1.398-1.412-1.86-1.887
	c-7.385,0.244-8.471,8.756-7.385,14.43c2.389,1.805,5.05,3.679,8.267,2.783c2.145-1.507,2.253-4.33,3.557-6.407
	c-0.665,4.453-0.706,9.326-3.597,13.073c-3.611-0.692-6.883-2.919-7.846-6.625c-2.511-4.222-0.109-9.57-2.932-13.575
	c-1.154,6.937-1.751,15.245,3.407,20.824c1.955,2.864,5.552,2.226,8.552,2.43c5.444-4.887,4.398-12.693,4.167-19.236
	c-0.638-4.86-2.131-9.896-5.552-13.548C382.043,199.466,378.908,205.439,377.129,209.403z"/>
<path fill="#FFFFFF" d="M306.105,219.897c0.271-5.416,0.285-11.457,3.896-15.869c3.652,1.507,7.263,3.136,11.064,4.276
	c-1.059,7.086-0.72,14.335,1.357,21.218c-2.729,0-6.502-2.294-8.417,0.543c5.702,1.819,9.475,6.625,13.127,11.091
	c-4.222,0.421-10.073-1.425-12.53,3.122c3.91-0.109,8.43-1.48,11.837,1.262c3.19,1.982,4.059,5.81,5.416,9.054
	c-3.082,2.851-8.321,5.376-7.127,10.466c2.471-2.335,5.104-4.548,8.118-6.19c2.213,9.109,2.362,18.571,4.507,27.693
	c1.249,5.376,4.805,11.267,10.887,11.824c4.14-0.095,6.054-4.235,6.652-7.778c0.557-6.991-0.163-14.159,1.914-20.946
	c3.584,4.534,5.566,10.032,7.792,15.299c1.914,4.602,3.652,9.353,4.032,14.376c-5.254,3.204-8.837,8.294-11.851,13.507
	c-8.959-0.679-14.254-9.109-19.48-15.367c-4.045-3.122-8.484-6.027-11.131-10.534C313.856,266.88,305.141,243.734,306.105,219.897z"
	/>
<path fill="#FFFFFF" d="M404.32,216.883c2.959,2.471,6.53,1.738,9.068-0.882c-0.014,3.136-0.597,6.231-1.819,9.136
	c-0.869,0.054-2.62,0.176-3.489,0.231C406.573,222.652,405.352,219.788,404.32,216.883z"/>
<path fill="#FFFFFF" d="M444.515,236.757c5.267-2.131,11.919-5.43,17.145-1.385c1.561,3.109-1.303,6.407-2.715,9.122
	c-1.751,2.498-4.724,6.367-8.104,4.344C446.389,246.599,445.18,241.25,444.515,236.757z"/>
<path fill="#FFFFFF" d="M454.615,254.581c1.48-1.005,2.959-2.05,4.48-3.014c0.421,5.661,0.462,11.335,0.217,17.009
	c-1.588,0.027-3.149,0.068-4.683,0.136C452.687,264.124,451.968,259.047,454.615,254.581z"/>
<path fill="#FFFFFF" d="M294.512,266.771c4.168-4.941,13.29-7.331,17.335-1.032c-4.792,0.231-10.195-0.462-13.996,3.136
	c-5.946,4.208-6.787,12.285-5.43,18.923c0.896,5.688,5.131,11.267,11.186,11.878c3.95,0.557,6.978-2.471,9.435-5.118
	c-0.38-2.688,0.692-6.095-1.724-8.023c-1.738-1.548-3.733-2.769-5.606-4.1c1.86-0.054,3.747-0.081,5.634-0.095
	c3.407,3.543,5.579,8.376,4.778,13.385c-0.543,5.294-5.824,9.652-11.145,8.81c-4.588-0.679-8.294-3.733-11.376-6.964
	C285.512,289.319,286.353,274.699,294.512,266.771z"/>
<path fill="#FFFFFF" d="M337.11,302.188c3.068,3.557,7.493,6.421,8.81,11.172c3.448,14.281,8.159,28.222,11.593,42.517
	c1.548,7.113,4.358,13.942,4.928,21.272c0.611,7.127,1.833,14.322,1.575,21.462h-0.394c-3.272-21.951-9.136-43.481-15.652-64.671
	C343.599,323.61,340.721,312.777,337.11,302.188z"/>
<path fill="#FFFFFF" d="M357.948,316.279c2.579-5.254,6.584-9.665,11.661-12.584c0.57,9.15,2.226,18.258,1.548,27.476
	c-4.86,7.113-8.742,15.313-8.607,24.109c-4.263-13.914-8.389-28.019-14.077-41.485C351.377,315.41,354.473,317.053,357.948,316.279z
	"/>
<path fill="#FFFFFF" d="M366.174,352.836c2.864-16.507,14.634-31.833,30.951-36.734c12.76-2.756,23.647,7.398,36.191,7.263
	c-1.222,1.982-2.28,4.127-3.977,5.756c-7.901-1.005-15.883-0.869-23.716-2.376c2.05-2.878,5.362-4.724,6.855-7.996
	c-4.33,1.1-7.045,4.67-9.204,8.335c-2.321-0.014-4.629-0.027-6.896-0.054c2.308-3.706,5.484-6.72,8.783-9.53
	c-5.987,0-8.769,5.892-12.299,9.679c-2.484,1.235-5.308,1.493-7.955,2.131c2.226,0,4.398-0.054,6.679-0.014
	c-1.344,2.213-2.661,4.453-4.045,6.638c-2.226-0.054-4.439-0.095-6.625-0.068c2.172,0.217,4.358,0.407,6.57,0.611
	c-2.661,5.606-4.629,11.539-5.701,17.661c-4.806,0.366-10.466,0.204-13.846,4.249c4.181-1.195,8.525-1.588,12.883-1.385
	c-0.136,2.661-0.272,5.335-0.394,8.023c-4.561,0.624-9.272,0.448-13.616,2.131c4.086,1.195,8.376,0.665,12.584,0.706
	c0.502,8.579-1.724,16.996-1.412,25.562c-3.014,0.258-6.353,0.068-8.579,2.457c2.593,0.176,5.213,0.299,7.846,0.434
	c-0.244,1.724-0.462,3.462-0.679,5.213c-2.24,0.149-4.616,0.244-5.878,2.389c1.996-0.244,3.991-0.543,6.014-0.787
	c-1.1,7.249-2.769,14.39-4.914,21.408c-3.054-0.041-6.082-0.285-9.082-0.529c1.955,2.701,5.62,1.534,8.159,3.041
	c-1.086,1.48-2.104,3.014-3.095,4.575c-3.462-1.846-6.869-3.76-10.195-5.824c6.353-8.946,10.317-19.752,10.168-30.802
	C367.708,380.923,363.581,366.914,366.174,352.836 M423.013,324.533c-1.887,1.005-2.009,1.955-0.339,2.851
	C424.492,326.325,424.601,325.374,423.013,324.533z"/>
<path fill="#FFFFFF" d="M469.67,335.257c2.104-5.321,5.444-10.059,9.991-13.589c1.833,0.082,3.706,0.19,5.593,0.326
	c-5.647,4.262-9.842,10.249-11.851,17.023c5.213,2.131,10.127,4.914,15,7.738c-0.421-5.824-7.466-6.991-11.783-9.15
	c1.371-6.041,5.742-10.914,11.335-13.412c3.882,3.679,6.978,8.104,9.258,12.95c-4.914,4.521-7.018,11.023-8.24,17.403
	c-8.267-2.389-17.159-4.1-25.534-1.195c-5.756,1.656-10.602,5.308-14.96,9.299c1.072-7.466,2.959-14.77,4.561-22.114
	c3.747,0.597,7.453,1.357,11.199,2.009c-0.584,3.19-1.235,6.38-1.765,9.584c2.294-2.321,3.312-5.457,4.208-8.498
	c1.48,0.543,2.932,1.086,4.452,1.67c0.421,1.534,0.923,3.041,1.548,4.548c0.122-0.923,0.394-2.783,0.516-3.706
	c3.163,1.982,6.367,3.937,9.815,5.457c-1.615-3.638-5.471-5.091-8.484-7.263c0.176-1.059,0.529-3.163,0.706-4.222
	c-0.747,0.204-2.226,0.624-2.973,0.828l0.638,2.579c-1.833-0.38-3.611-0.747-5.389-1.127c0.122-0.937,0.38-2.837,0.516-3.787
	c1.208,0.149,3.624,0.448,4.833,0.597C472.235,337.456,471.163,336.139,469.67,335.257z"/>
<path fill="#FFFFFF" d="M394.872,328.714c2.403-0.013,4.805-0.013,7.235,0c-1.167,2.199-2.186,4.507-3.652,6.543
	c-2.403,0.272-4.806,0.217-7.181,0.231C392.415,333.193,393.636,330.954,394.872,328.714z"/>
<path fill="#FFFFFF" d="M401.361,335.162c1.127-2.023,2.267-4.032,3.462-6.027c4.616,0.679,9.299,0.855,13.996,0.76
	c-1.1,1.751-2.159,3.529-3.204,5.321C410.849,335.298,406.098,335.284,401.361,335.162z"/>
<path fill="#FFFFFF" d="M417.216,334.931c1.208-1.561,2.471-3.068,3.733-4.588c2.416,0.367,4.846,0.72,7.303,1.045
	c-0.638,1.29-1.249,2.579-1.833,3.896C423.325,335.27,420.257,335.162,417.216,334.931z"/>
<path fill="#FFFFFF" d="M454.099,334.673c4.167,0.747,8.444,1.52,12.258,3.489c-0.367,0.747-1.086,2.24-1.453,2.973
	c-3.652-0.489-7.195-1.48-10.806-2.118C454.099,337.931,454.099,335.759,454.099,334.673z"/>
<path fill="#FFFFFF" d="M390.677,336.628c2.281-0.896,4.819-0.041,7.222-0.109c-2.525,6.177-4.928,12.408-6.72,18.829
	c-2.063-0.231-4.1-0.448-6.122-0.652C386.455,348.547,387.799,342.289,390.677,336.628z"/>
<path fill="#FFFFFF" d="M400.546,336.899c4.588-0.312,9.204-0.109,13.806,0.231c-2.742,5.987-4.344,12.38-6.285,18.652
	c-4.697,0.204-9.394-0.271-14.064-0.231C395.32,349.049,398.225,343.062,400.546,336.899z"/>
<path fill="#FFFFFF" d="M504.015,336.954c0.285-0.014,0.869-0.027,1.154-0.027c-5.579,6.122-5.756,14.837-7.005,22.602
	c-1.914-1.086-3.828-2.172-5.701-3.217c1.262-4.846,2.267-9.91,5.091-14.145C499.372,340.076,501.992,338.854,504.015,336.954z"/>
<path fill="#FFFFFF" d="M527.635,350.081c0.937-4.412,0.733-9.38,3.597-13.086c3.462-1.846,6.625,1.724,6.896,4.955
	c0.719,9.177-3.693,17.81-8.878,25.073c-2.634,0.367-5.267,0.706-7.874,1.032C524.879,362.638,526.875,356.447,527.635,350.081z"/>
<path fill="#FFFFFF" d="M416.402,337.7c2.756-0.475,5.566,0.136,8.362,0.312c-2.131,6.122-4.466,12.258-5.281,18.747
	c-2.959,0.027-5.892-0.014-8.81-0.109C410.605,349.931,413.32,343.538,416.402,337.7z"/>
<path fill="#FFFFFF" d="M427.289,337.999c4.928-0.149,9.869,0.326,14.702,1.371c-1.968,6.72-3.95,13.48-4.507,20.498
	c-5.444-0.801-10.779-2.104-16.154-3.163C422.755,350.298,424.859,344.081,427.289,337.999z"/>
<path fill="#FFFFFF" d="M507.558,339.302c1.33-2.063,4.276-1.534,6.353-1.14c3.978,3.136,4.358,8.688,4.887,13.358
	c-0.312,6.244-2.335,12.326-4.629,18.109c-1.914,0.842-3.991,1.29-5.987,1.765c-2.294-3.38-4.575-6.787-7.493-9.638
	C503.987,354.588,502.766,345.845,507.558,339.302z"/>
<path fill="#FFFFFF" d="M520.739,343.266c0.461-3.312,3.774-4.928,6.611-5.851c-2.525,11.009-2.932,23.24-10.697,32.213
	c1.629-5.484,4.086-10.901,3.964-16.724C520.644,349.673,520.413,346.456,520.739,343.266z"/>
<path fill="#FFFFFF" d="M444.773,339.289c2.036,0.19,4.1,0.434,6.177,0.692c-2.579,12.027-5.579,23.973-7.914,36.001
	c0.081,7.263,0.462,14.512,0.095,21.788c-1.792-0.462-3.57-0.91-5.321-1.344c0.054-7.222-0.326-14.471,0.271-21.679
	c0.054-1.941,1.195-3.53,2.416-4.941c-1.738-1.819-1.249-4.412-1.412-6.625c1.873,0.041,3.76,0.068,5.674,0.095
	c-1.045-1.751-2.905-2.634-4.439-3.774C440.226,352.524,442.547,345.805,444.773,339.289z"/>
<path fill="#FFFFFF" d="M463.493,355.959c9.733-3.462,20.892-1.385,29.444,4.195c8.566,5.376,13.453,15.448,13.711,25.426
	c-0.638,12.462-7.344,23.783-15.666,32.743c-15.136,16.412-37.318,23.593-58.562,28.154c-14.267,3.217-28.956,3.435-43.508,2.674
	c-11.308-1.344-22.372-5.158-31.82-11.566c-11.674-7.629-21.91-17.322-34.087-24.191c-13.507-7.846-29.824-10.67-45.177-7.941
	c-3.774,0.557-7.575,0.462-11.349,0.339c0.638-5.498,6.312-7.317,11.036-7.955c11.064-0.733,21.964,2.131,32.553,5.023
	c14.702,4.358,27.286,13.426,39.883,21.815c11.539,7.765,23.865,14.702,37.372,18.353c10.765,2.742,21.964,1.222,32.824-0.136
	c9.638-0.801,19.942-0.638,28.63-5.539c6.855-3.95,14.756-5.593,21.706-9.38c10.236-5.539,21.096-11.973,26.349-22.86
	c4.575-9.679,5.471-22.209-1.032-31.236c-4.792-6.692-11.905-11.865-19.928-13.833c-6.027-1.439-12.34,0.353-17.24,3.964
	c-8.498,5.837-8.308,20.308,0.244,26.023c4.561,3.299,10.561,2.661,15.611,0.95c1.561-3.462,1.412-7.249,1.113-10.928
	c0.977,0.122,2.919,0.353,3.882,0.462c-0.258,5.009,0.461,11.756-4.683,14.661c-13.032,6.543-31.087-5.959-28.752-20.62
	C447.733,365.705,455.104,358.714,463.493,355.959z"/>
<path fill="#FFFFFF" d="M384.107,357.343c2.063-0.149,4.14-0.272,6.258-0.353c-0.163,2.05-0.312,4.113-0.434,6.204
	c-2.213,0.57-4.371,1.181-6.543,1.806C383.577,362.42,383.822,359.868,384.107,357.343z"/>
<path fill="#FFFFFF" d="M393.243,357.886c4.901,0.502,9.828,0.557,14.77,0.502c-0.394,1.778-0.76,3.597-1.154,5.416
	c-4.846-0.068-9.679-0.38-14.525-0.394C392.564,362.027,393.012,359.271,393.243,357.886z"/>
<path fill="#FFFFFF" d="M409.261,358.361c3.204,0,6.421,0.014,9.652,0.068c-0.394,2.158-0.787,4.358-1.235,6.53
	c-2.81-0.502-5.62-0.964-8.403-1.385C409.248,361.823,409.248,360.085,409.261,358.361z"/>
<path fill="#FFFFFF" d="M419.985,365.04c0.489-1.738-0.176-4.14,1.317-5.389c5.362-0.122,10.589,1.534,15.652,3.204
	c-0.204,1.276-0.584,3.828-0.787,5.091C430.723,367.239,425.293,366.411,419.985,365.04z"/>
<path fill="#FFFFFF" d="M533.228,367.131c1.154-1.683,2.349-3.353,3.57-4.996c3.394,10.005,0.557,20.905-3.733,30.191
	c-4.371,8.769-10.235,17.199-18.679,22.467c-7.154,4.806-15.462,7.398-23.648,9.828c3.217-4.806,9.53-4.195,13.779-7.493
	c11.579-8.362,21.978-18.978,27.639-32.295C534.531,379.389,537.911,372.33,533.228,367.131z"/>
<path fill="#FFFFFF" d="M391.885,365.733c4.914-0.774,9.869-0.095,14.715,0.937c-0.516,8.987-1.914,17.919-1.412,26.96
	c-5.444-0.394-10.887-0.489-16.317-0.326C389.564,384.086,390.351,374.855,391.885,365.733z"/>
<path fill="#FFFFFF" d="M455.606,378.765c0.706-6.937,6.407-12.733,13.236-13.928c-2.131,7.846-4.588,15.801-4.018,24.055
	C460.208,387.466,456.258,383.665,455.606,378.765z"/>
<path fill="#FFFFFF" d="M470.674,364.945c5.43,0.624,10.195,3.353,14.756,6.19c-0.801,3.407-2.036,6.679-3.407,9.91
	c-0.136-0.977-0.434-2.932-0.584-3.923c-2.742-0.014-5.471,0.054-8.172,0.149c-3.19,2.688-3.231,6.638-3.435,10.466
	c-0.964,0.394-2.878,1.167-3.842,1.561C467.932,381.262,469.235,373.077,470.674,364.945z"/>
<path fill="#FFFFFF" d="M382.831,366.846c2.023-0.163,4.086-0.312,6.163-0.421c-1.127,9.054-2.661,18.095-2.973,27.231
	c-1.792-0.027-3.57-0.027-5.321-0.027C382.125,384.751,381.908,375.751,382.831,366.846z"/>
<path fill="#FFFFFF" d="M408.121,366.588c3.082-0.014,6.163,0.054,9.272,0.204c-1.113,8.81-1.575,17.675-2.308,26.525
	c-2.511,0.149-4.996,0.258-7.453,0.353C407.985,384.643,407.768,375.602,408.121,366.588z"/>
<path fill="#FFFFFF" d="M420.067,367.728c5.471,0.923,10.941,1.928,16.385,3.081c-1.276,8.498-1.683,17.077-1.412,25.657
	c-5.403-0.638-10.765-1.738-16.208-1.643C418.832,385.783,418.221,376.647,420.067,367.728z"/>
<path fill="#FFFFFF" d="M508.236,373.674c8.213-1.738,16.616-1.805,24.924-2.756c-0.272,0.421-0.842,1.276-1.127,1.697
	c-7.235,1.52-14.607,2.661-21.666,4.914C509.662,376.253,508.901,374.923,508.236,373.674z"/>
<path fill="#FFFFFF" d="M488.743,374.38c3.882,4.521,7.127,10.154,6.272,16.358c-2.932,4.195-7.738,6.598-12.462,8.186
	c1.982-6.597,7.521-11.267,9.693-17.756c-3.882,4.588-7.059,9.733-11.145,14.159c-0.353,1.575-0.747,3.217-0.896,4.86
	c5.118,2.796,10.14-1.032,14.498-3.529c-2.566,9.923-8.932,18.706-17.851,23.851c0.394-7.14,1.955-14.159,2.009-21.313
	C482.457,391.064,484.331,382.199,488.743,374.38z"/>
<path fill="#FFFFFF" d="M515.187,378.968c2.498-0.272,5.023-0.584,7.52-1.032c-3.38,3.394-7.48,5.973-12.258,6.76
	C511.956,382.729,513.558,380.842,515.187,378.968z"/>
<path fill="#FFFFFF" d="M510.042,388.403c6.367-2.566,12.095-6.421,17.2-10.982c1.113,0,3.326-0.014,4.439-0.014
	c-6.421,16.887-17.729,33.191-34.847,40.467C503.919,409.593,508.901,399.304,510.042,388.403z"/>
<path fill="#FFFFFF" d="M510.205,380.407C510.897,381.127,510.897,381.127,510.205,380.407z"/>
<path fill="#FFFFFF" d="M444.868,389.421c4.846,5.783,10.711,11.715,18.584,12.652c4.222,0.855,8.471-0.204,12.462-1.615
	c-1.751,7.29-2.376,14.797-2.376,22.29c-2.145,1.086-4.29,2.172-6.394,3.312c0.692-7.236,0.842-14.552-0.014-21.761
	c-0.638,2.511-1.167,5.063-1.67,7.643c-1.955-0.801-3.842-1.547-5.742-2.321c-0.136-2.471-0.244-4.928-0.326-7.358
	c-4.819-1.67-9.747-2.946-14.593-4.425C444.828,395.014,444.855,392.217,444.868,389.421z"/>
<path fill="#FFFFFF" d="M380.672,395.76c1.629-0.258,3.299-0.475,4.996-0.665c-0.312,2.525-0.57,5.063-0.801,7.629
	c-1.71-0.312-3.435-0.638-5.104-0.923C380.034,399.765,380.36,397.756,380.672,395.76z"/>
<path fill="#FFFFFF" d="M389.007,395.027c5.376-0.027,10.779-0.027,16.168,0c0,3.163,0,6.339,0.014,9.516
	c-5.552-0.76-11.131-1.602-16.738-1.466C388.627,400.376,388.817,397.688,389.007,395.027z"/>
<path fill="#FFFFFF" d="M407.659,395.041c2.335,0.434,4.643,0.855,7.005,1.303c0,2.729,0,5.471,0.027,8.226
	c-2.471-0.054-4.928-0.095-7.358-0.109C407.415,401.313,407.523,398.177,407.659,395.041z"/>
<path fill="#FFFFFF" d="M418.071,396.534c5.593,0.326,11.104,1.466,16.724,1.615c-0.19,2.715-0.448,5.403-0.665,8.118
	c-5.484-0.434-10.969-0.461-16.439-0.747C417.786,402.507,417.936,399.521,418.071,396.534z"/>
<path fill="#FFFFFF" d="M437.511,399.046c1.805,0.122,3.638,0.272,5.498,0.434c-0.299,2.579-0.652,5.159-0.977,7.751
	c-1.873-0.041-3.72-0.054-5.552-0.068C436.818,404.448,437.144,401.733,437.511,399.046z"/>
<path fill="#FFFFFF" d="M444.556,400.254c4.453,1.262,8.851,3.041,13.575,2.987c-0.027,2.199-0.027,4.412,0,6.638
	c-4.398-1.059-8.892-1.507-13.371-1.615C444.638,405.575,444.57,402.915,444.556,400.254z"/>
<path fill="#FFFFFF" d="M379.586,404.163c1.724,0.149,3.475,0.299,5.24,0.475c0.027,7.263,0.258,14.62-1.507,21.733
	c-2.891-0.258-5.742-0.584-8.552-1.127C376.518,418.254,378.025,411.195,379.586,404.163z"/>
<path fill="#FFFFFF" d="M387.853,404.571c5.769,0.692,11.525,1.602,17.376,1.412c-0.529,7.48-1.14,15.014-2.661,22.372
	c-5.416-0.597-10.846-0.896-16.276-1.032C387.27,419.761,387.772,412.173,387.853,404.571z"/>
<path fill="#FFFFFF" d="M407.266,406.756c2.253,0.163,4.534,0.339,6.842,0.529c-0.611,7.236-1.29,14.471-2.416,21.666
	c-2.186-0.014-4.344-0.014-6.475,0C407.13,421.689,406.248,414.127,407.266,406.756z"/>
<path fill="#FFFFFF" d="M417.528,407.163c5.376,0.557,10.724,1.602,16.168,1.548c0.312,7.249-0.679,14.471-2.62,21.448
	c-5.335-0.72-10.697-1.276-16.073-1.317C416.388,421.702,417.42,414.44,417.528,407.163z"/>
<path fill="#FFFFFF" d="M436.56,409.403c1.738,0.217,3.502,0.434,5.281,0.679c0.285,6.883-0.842,13.684-1.575,20.512
	c-2.348-0.176-4.683-0.326-6.991-0.434C434.429,423.25,436.615,416.462,436.56,409.403z"/>
<path fill="#FFFFFF" d="M443.606,410.408c4.792-0.339,9.692,1.276,14.498,2.023c0.76,6.19,0.149,12.407-0.136,18.611
	c-2.036,0.977-4.045,1.982-6.027,3.027c-0.733,0.136-2.186,0.407-2.905,0.543c-2.226,1.398-4.683,2.335-7.222,2.905
	c0.122-1.032,0.367-3.122,0.489-4.154c2.213,0.204,4.425,0.407,6.679,0.57c-0.91-2.471-3.774-2.091-5.783-2.647
	C443.348,424.322,442.818,417.331,443.606,410.408z"/>
<path fill="#FFFFFF" d="M460.941,412.96c1.371,0.462,2.756,0.937,4.168,1.425c-0.787,4.955,1.113,12.421-4.208,15.177
	C460.778,424.024,460.86,418.485,460.941,412.96z"/>
<path fill="#FFFFFF" d="M373.152,427.553c3.502,0.041,7.018,0.38,10.439,1.249c-0.597,2.253-1.208,4.507-1.765,6.787
	c-0.367,0.543-1.1,1.629-1.466,2.172c-3.231-1.29-6.299-3.448-9.733-4.412C371.455,431.408,372.297,429.467,373.152,427.553z"/>
<path fill="#FFFFFF" d="M386.143,428.897c5.403,0.122,10.751,0.964,16.127,1.615c-0.991,2.62-1.968,5.254-3.136,7.806
	c-4.874-0.842-9.801-1.33-14.742-1.398C384.881,434.218,385.451,431.544,386.143,428.897z"/>
<path fill="#FFFFFF" d="M405.365,430.336c1.846-0.027,3.72-0.041,5.606-0.027c-0.271,2.118-0.489,4.276-0.692,6.435
	c-2.294,0.339-4.561,0.679-6.815,1.045C404.021,435.264,404.686,432.807,405.365,430.336z"/>
<path fill="#FFFFFF" d="M414.528,430.702c5.444,0,10.833,0.801,16.276,1.086c-0.706,2.579-1.222,5.199-1.48,7.887
	c-5.416-1.968-11.227-2.158-16.874-2.756C413.144,434.843,413.822,432.752,414.528,430.702z"/>
<path fill="#FFFFFF" d="M432.637,431.626c2.267,0.529,4.507,1.045,6.801,1.615c-0.597,1.534-0.679,3.339-1.588,4.765
	c-2.226,0.774-4.493,1.344-6.76,1.887C431.646,437.151,432.162,434.381,432.637,431.626z"/>
<path fill="#FFFFFF" d="M349.043,437.096c3.19,2.104,6.543,3.977,9.625,6.285c-6.896-1.561-13.833,1.303-20.77,0.014
	C341.956,441.983,345.988,440.232,349.043,437.096z"/>
<path fill="#FFFFFF" d="M401.035,441.875c1.29-3.448,5.851-1.548,8.634-1.996C408.175,443.599,404.076,441.997,401.035,441.875z"/>
<path fill="#FFFFFF" d="M410.089,441.155c3.014-3.177,7.602-0.937,11.321-0.597C417.637,440.965,413.863,441.223,410.089,441.155z"
	/>
<path fill="#949293" d="M350.59,174.719c13.493-5.864,30.476-5.661,42.395,3.706c4.045-0.204,8.308,0.353,11.647,2.864
	c6.991,4.439,9.353,12.964,11.471,20.457c-0.882-0.299-2.634-0.882-3.516-1.181c-1.71-8.24-7.453-16.127-15.652-18.842
	c7.208,8.525,13.874,17.756,18.19,28.1c0.57-0.638,1.616-2.769,2.457-1.14c1.52,2.905,1.059,6.625,3.149,9.367
	c4.643,7.208,9.869,15.285,18.557,17.878c3.57-1.005,6.502-3.543,10.113-4.561c5.417-1.439,11.973-1.493,15.693,3.407
	c0.624,5.389-1.52,10.331-4.195,14.851c1.805,6.502,1.262,13.29,1.344,19.969c11.593,3.896,14.05,18.557,25.399,22.657
	c-1.48-5.118,0.502-10.969,5.769-12.855c5.783-2.009,12.964-4.412,18.516-0.529c3.502,6.122,1.805,13.616-0.448,19.86
	c-0.489-4.561-0.502-9.136-0.394-13.697c-4.534,3.706-10.317,6.136-16.249,5.444c0.299-0.624,0.882-1.887,1.167-2.511
	c5.552,0.258,10.385-3.109,12.503-8.145c-5.661-0.244-10.874,2.009-15.937,4.181c-3.109,5.064-0.285,10.67-0.76,16.073
	c-1.168-1.52-1.806-3.652-3.923-4.018c-10.765-3.339-13.751-15.91-22.928-21.448c-5.729-3.72-14.498-6.258-20.05-0.964
	c7.276-1.982,15.53-1.235,21.421,3.869c10.928,9.163,16.928,24.503,31.304,29.295c5.281,1.643,9.326-2.769,13.412-5.254
	c0.299,4.439-2.647,8.715-6.978,9.815c-3.828,1.914-7.996-0.122-11.416-1.914c-13.127-8.05-19.792-23.227-32.96-31.25
	c-3.801,3.679-8.213,7.453-13.819,7.398c-2.186-0.095-5.525,1.018-6.502-1.534c5.647-1.439,11.756-2.81,15.774-7.426
	c-0.76-0.027-2.281-0.095-3.041-0.136c-6.489,4.928-15.381,4.996-21.055,11.213c0.584,4.507,2.457,8.946,5.525,12.353
	c6.57-5.973,16.589-5.104,24.272-1.955c8.919,3.489,15.856,12.638,26.24,11.484c1.276,3.326-1.425,5.973-3.027,8.593
	c7.982,2.539,12.394,10.032,16.032,17.023c6.244-2.172,14.987-2.864,18.856,3.733c3.407-3.339,7.602-6.122,12.503-6.407
	c4.48,0.367,9.163,3.448,9.774,8.199c2.009,6.95-3.204,13.711-0.842,20.593c6.122,24.666-8.932,51.354-31.969,60.992
	c-7.507,3.72-16.209,3.855-23.648,7.629c-22.928,16.602-51.748,22.711-79.549,23.987c-12.896,0.394-26.105-0.869-37.983-6.217
	c-2.987-1.602-6.38-0.624-9.543-0.584c-8.145,0.434-16.127-1.263-24.082-2.702c3.421-4.018,8.267-6.367,12.027-9.991
	c-11.091-8.362-22.127-17.457-35.458-21.991c-13.113-4.819-27.286-1.615-40.861-2.593c-1.303-0.339-2.579-0.733-3.815-1.181
	c-0.353-0.733-1.059-2.226-1.412-2.959c1.534-6.109,7.86-9.109,13.398-10.67c15.163-1.412,30.829,1.222,44.39,8.281
	c11.484,5.987,21.991,13.629,32.716,20.851c1.955-3.299,3.978-6.597,5.281-10.222c2.172-12.883-1.466-25.697-4.195-38.214
	c-3.448-14.186-7.086-28.331-11.308-42.286c-2.09-7.045-4.86-13.901-6.217-21.136c-1.249-5.186-2.348-11.132-7.018-14.403
	c-8.769-6.367-12.801-16.806-17.539-26.145c-3.72-1.303-7.697-2.566-11.62-1.357c-5.023,2.24-7.928,7.914-7.683,13.276
	c0.814,5.091,4.344,9.625,8.987,11.837c3.081,1.602,7.1-1.805,6.896-4.996c0.326-4.71-8.512-6.027-5.674-11.131
	c3.095,0.285,6.801-0.57,9.217,1.968c7.195,6.407,6.597,20.702-2.416,25.236c-11.145,3.095-22.073-5.824-25.358-16.073
	c-4.1-10.29,1.222-21.964,9.394-28.575c3.625-3.312,8.864-4.249,13.534-2.946c-3.258-11.376-6.055-23.132-5.552-35.037
	c-0.176-7.534,0.299-15.421,4.331-22.019c5.281-0.244,10.412,1.195,15.421,2.729c2.457-3.054,5.525-5.62,9.326-6.815
	c-2.715,4.901-7.792,9-7.317,15.15c0.258,11.865,5.959,22.711,8.525,34.155c4.045,12.394,3.842,25.657,7.249,38.2
	c1.1,3.665,3.312,9.055,8.064,8.308c4.235-6.421,2.389-14.987,3.706-22.29c2.606-12.068,8.308-23.308,9.869-35.634
	c2.253-12.055-1.222-26.268-12.082-33.164c-5.063-3.964-11.552-4.968-17.797-4.425c0.434-1.629,1.452-2.729,3.027-3.299
	C335.468,185.647,342.608,178.249,350.59,174.719 M360.513,176.362c-9.665,1.643-19.005,7.629-22.114,17.322
	c6.977,1.181,13.711,4.14,18.747,9.231c6.543,5.959,9.408,15.123,8.756,23.824c0.719,13.969-5.525,26.838-8.525,40.168
	c5.43,3.774,8.606,9.815,11.742,15.476c6.394,13.466,6.367,28.752,6.326,43.345c6.217-7.235,15.014-11.756,24.299-13.548
	c8.959-0.462,17.308,3.421,25.765,5.769c7.046,1.792,15.951,2.566,20.811-4.045c-3.72-1.425-7.765-1.887-11.294-3.774
	c-4.683-2.362-9.19-5.389-14.457-6.217c-6.584-1.072-13.67-0.258-19.494,3.136c-3.557,2.023-6.054,5.552-9.896,7.113
	c0.991-3.014,2.783-5.769,5.525-7.466c7.629-4.914,16.874-8.647,26.091-6.788c5.416,0.787,9.462,4.996,14.756,6.163
	c0.163,0.516,0.489,1.561,0.652,2.077c3.991-0.204,8.783-0.312,11.797,2.837c1.928,3.543-1.303,7.14-3.882,9.313
	c-3.312,3.054-7.969,3-12.136,3.57c-0.597,1.778-1.181,3.57-1.765,5.376c4.452,0.217,8.905,0.421,13.371,0.57
	c-0.95,0.72-1.887,1.439-2.824,2.158c-4.168-0.652-8.389-0.855-12.57-0.516c-0.516,1.344-0.991,2.715-1.453,4.086
	c4.71,0.353,9.421,1.33,14.186,0.991c0.489-0.91,1.466-2.742,1.955-3.652c0.828,1.629,1.29,3.312,1.792,5.104
	c1.751-0.109,3.557-0.122,5.348-0.407c0.244-0.937,0.733-2.796,0.977-3.733c-2.104-0.489-4.222-0.692-6.339-0.597
	c-0.964-4.792,3.177-8.987,6.462-11.946c-1.14,3.176-2.729,6.163-4.371,9.109c1.683,0.326,3.394,0.652,5.118,0.991
	c2.525-4.806,5.063-10.046,10.059-12.76c-2.729,4.561-6.326,8.552-8.403,13.494c3.964,0.964,7.874,2.145,11.81,3.299
	c2.837-5.783,5.606-11.851,10.751-15.991c-2.43,1.127-5.036,1.317-7.493,0.38c-9.027-2.376-15.435-10.371-24.707-12.027
	c-2.824-0.679-6.054-0.475-8.145-2.769c8.865-3.136,17.457,2.62,24.652,7.208c5.552,3.312,13.385,7.005,19.073,1.914
	c-11.063-3.068-18.72-12.951-30.014-15.285c-5.606-1.276-11.457,1.086-14.729,5.756c-6-2.715-9.543-8.688-9.503-15.231
	c-13.833,4.67-29.132,2.783-42.245-3.204c-5.457-2.783-11.539-5.267-15.353-10.276c14.104,6.828,29.132,14.308,45.313,12.258
	c11.688-0.91,21.896-8.172,28.86-17.281c2.973-4.643,4.276-10.086,6.163-15.218c-6-2.959-9.394-9.245-9.801-15.774
	c-12.788-2.986-19.684-15.516-24.964-26.403c1.643,5.145,1.398,11.036-2.959,14.756c-1.887-0.054-3.733-0.081-5.579-0.095
	c-5.729-7.385-7.14-16.887-7.466-25.955c0.733-0.041,2.172-0.136,2.891-0.176c-0.19,2.172-0.394,4.371-0.611,6.584
	c0.882-3.787,5.43-7.521,8.797-3.692c-1.629-4.683-7.317-2.593-10.113-5.606c1.276-0.367,3.842-1.113,5.118-1.493
	c-1.113-1.643-2.199-3.272-3.258-4.914c-1.901,0-3.787,0.014-5.634,0.068c-1.616,1.1-3.272,2.145-4.914,3.177
	c0.041-1.195,0.122-3.57,0.163-4.751c1.548-2.023,4.14-2.606,6.435-3.38C388.356,178.52,374.034,172.534,360.513,176.362
	 M306.105,219.897c-0.964,23.838,7.751,46.983,20.064,67.047c2.647,4.507,7.086,7.412,11.131,10.534
	c5.226,6.258,10.521,14.688,19.48,15.367c3.014-5.213,6.597-10.303,11.851-13.507c-0.38-5.023-2.118-9.774-4.032-14.376
	c-2.226-5.267-4.208-10.765-7.792-15.299c-2.077,6.787-1.357,13.955-1.914,20.946c-0.597,3.543-2.511,7.683-6.652,7.778
	c-6.082-0.557-9.638-6.448-10.887-11.824c-2.145-9.122-2.294-18.584-4.507-27.693c-3.014,1.643-5.647,3.855-8.118,6.19
	c-1.195-5.091,4.045-7.616,7.127-10.466c-1.357-3.244-2.226-7.073-5.416-9.054c-3.407-2.742-7.928-1.371-11.837-1.262
	c2.457-4.548,8.308-2.701,12.53-3.122c-3.652-4.466-7.425-9.272-13.127-11.091c1.914-2.837,5.688-0.543,8.417-0.543
	c-2.077-6.883-2.416-14.132-1.357-21.218c-3.801-1.14-7.412-2.769-11.064-4.276C306.39,208.439,306.376,214.48,306.105,219.897
	 M404.32,216.883c1.032,2.905,2.253,5.769,3.76,8.484c0.869-0.054,2.62-0.176,3.489-0.231c1.222-2.905,1.806-6,1.819-9.136
	C410.849,218.621,407.279,219.354,404.32,216.883 M444.515,236.757c0.665,4.493,1.873,9.842,6.326,12.082
	c3.38,2.023,6.353-1.846,8.104-4.344c1.412-2.715,4.276-6.014,2.715-9.122C456.434,231.327,449.782,234.626,444.515,236.757
	 M454.615,254.581c-2.647,4.466-1.928,9.543,0.014,14.132c1.534-0.068,3.095-0.109,4.683-0.136
	c0.244-5.674,0.204-11.349-0.217-17.009C457.574,252.531,456.095,253.576,454.615,254.581 M294.512,266.771
	c-8.159,7.928-9,22.548-0.909,30.802c3.081,3.231,6.787,6.285,11.376,6.964c5.321,0.842,10.602-3.516,11.145-8.81
	c0.801-5.009-1.371-9.842-4.778-13.385c-1.887,0.014-3.774,0.041-5.634,0.095c1.873,1.33,3.869,2.552,5.606,4.1
	c2.416,1.928,1.344,5.335,1.724,8.023c-2.457,2.647-5.484,5.674-9.435,5.118c-6.055-0.611-10.29-6.19-11.186-11.878
	c-1.358-6.638-0.516-14.715,5.43-18.923c3.801-3.597,9.204-2.905,13.996-3.136C307.802,259.441,298.679,261.83,294.512,266.771
	 M337.11,302.188c3.611,10.588,6.489,21.421,10.86,31.752c6.516,21.191,12.38,42.72,15.652,64.671h0.394
	c0.258-7.14-0.964-14.335-1.575-21.462c-0.57-7.331-3.38-14.159-4.928-21.272c-3.435-14.294-8.145-28.236-11.593-42.517
	C344.604,308.609,340.178,305.745,337.11,302.188 M357.948,316.279c-3.475,0.774-6.57-0.869-9.475-2.484
	c5.688,13.466,9.815,27.571,14.077,41.485c-0.136-8.797,3.747-16.996,8.607-24.109c0.679-9.217-0.978-18.326-1.548-27.476
	C364.532,306.614,360.527,311.026,357.948,316.279 M366.174,352.836c-2.593,14.077,1.534,28.087,1.575,42.164
	c0.149,11.05-3.815,21.856-10.168,30.802c3.326,2.063,6.733,3.977,10.195,5.824c0.991-1.561,2.009-3.095,3.095-4.575
	c-2.539-1.507-6.204-0.339-8.159-3.041c3,0.244,6.027,0.489,9.082,0.529c2.145-7.018,3.814-14.159,4.914-21.408
	c-2.023,0.244-4.018,0.543-6.014,0.787c1.263-2.145,3.638-2.24,5.878-2.389c0.217-1.751,0.434-3.489,0.679-5.213
	c-2.634-0.136-5.254-0.258-7.846-0.434c2.226-2.389,5.566-2.199,8.579-2.457c-0.312-8.566,1.914-16.982,1.412-25.562
	c-4.208-0.041-8.498,0.489-12.584-0.706c4.344-1.683,9.055-1.507,13.616-2.131c0.122-2.688,0.258-5.362,0.394-8.023
	c-4.358-0.204-8.702,0.19-12.883,1.385c3.38-4.045,9.041-3.883,13.846-4.249c1.072-6.122,3.041-12.055,5.701-17.661
	c-2.213-0.204-4.398-0.394-6.57-0.611c2.186-0.027,4.398,0.014,6.625,0.068c1.385-2.186,2.701-4.425,4.045-6.638
	c-2.28-0.041-4.453,0.014-6.679,0.014c2.647-0.638,5.471-0.896,7.955-2.131c3.529-3.787,6.312-9.679,12.299-9.679
	c-3.299,2.81-6.475,5.824-8.783,9.53c2.267,0.027,4.575,0.041,6.896,0.054c2.159-3.665,4.874-7.235,9.204-8.335
	c-1.493,3.272-4.806,5.118-6.855,7.996c7.833,1.507,15.815,1.371,23.716,2.376c1.697-1.629,2.756-3.774,3.977-5.756
	c-12.543,0.136-23.43-10.018-36.191-7.263C380.808,321.003,369.038,336.329,366.174,352.836 M469.67,335.257
	c1.493,0.882,2.566,2.199,3.19,3.95c-1.208-0.149-3.624-0.448-4.833-0.597c-0.136,0.95-0.394,2.851-0.516,3.787
	c1.778,0.38,3.557,0.747,5.389,1.127l-0.638-2.579c0.747-0.204,2.226-0.624,2.973-0.828c-0.176,1.059-0.529,3.163-0.706,4.222
	c3.014,2.172,6.869,3.625,8.484,7.263c-3.448-1.52-6.652-3.475-9.815-5.457c-0.122,0.923-0.394,2.783-0.516,3.706
	c-0.624-1.507-1.127-3.014-1.548-4.548c-1.52-0.584-2.973-1.127-4.452-1.67c-0.896,3.041-1.914,6.177-4.208,8.498
	c0.529-3.204,1.181-6.394,1.765-9.584c-3.747-0.652-7.453-1.412-11.199-2.009c-1.602,7.344-3.489,14.647-4.561,22.114
	c4.358-3.991,9.204-7.643,14.96-9.299c8.376-2.905,17.267-1.195,25.534,1.195c1.222-6.38,3.326-12.883,8.24-17.403
	c-2.281-4.846-5.376-9.272-9.258-12.95c-5.593,2.498-9.964,7.371-11.335,13.412c4.317,2.158,11.362,3.326,11.783,9.15
	c-4.874-2.824-9.788-5.606-15-7.738c2.009-6.774,6.204-12.76,11.851-17.023c-1.887-0.136-3.76-0.244-5.593-0.326
	C475.113,325.198,471.774,329.935,469.67,335.257 M394.872,328.714c-1.235,2.24-2.457,4.48-3.597,6.774
	c2.376-0.014,4.778,0.041,7.181-0.231c1.466-2.036,2.484-4.344,3.652-6.543C399.677,328.7,397.275,328.7,394.872,328.714
	 M401.361,335.162c4.738,0.122,9.489,0.136,14.254,0.054c1.045-1.792,2.104-3.57,3.204-5.321c-4.697,0.095-9.38-0.082-13.996-0.76
	C403.628,331.13,402.487,333.139,401.361,335.162 M417.216,334.931c3.041,0.231,6.109,0.339,9.204,0.353
	c0.584-1.317,1.195-2.606,1.833-3.896c-2.457-0.326-4.887-0.679-7.303-1.045C419.687,331.863,418.424,333.37,417.216,334.931
	 M454.099,334.673c0,1.086,0,3.258,0,4.344c3.611,0.638,7.154,1.629,10.806,2.118c0.367-0.733,1.086-2.226,1.453-2.973
	C462.543,336.193,458.267,335.42,454.099,334.673 M390.677,336.628c-2.878,5.661-4.222,11.919-5.62,18.068
	c2.023,0.204,4.059,0.421,6.122,0.652c1.792-6.421,4.195-12.652,6.72-18.829C395.496,336.587,392.958,335.732,390.677,336.628
	 M400.546,336.899c-2.321,6.163-5.226,12.15-6.543,18.652c4.67-0.041,9.367,0.434,14.064,0.231
	c1.941-6.272,3.543-12.665,6.285-18.652C409.75,336.791,405.134,336.587,400.546,336.899 M504.015,336.954
	c-2.023,1.901-4.643,3.122-6.462,5.213c-2.824,4.235-3.828,9.299-5.091,14.145c1.873,1.045,3.787,2.131,5.701,3.217
	c1.249-7.765,1.425-16.48,7.005-22.602C504.883,336.927,504.3,336.94,504.015,336.954 M527.635,350.081
	c-0.76,6.367-2.756,12.557-6.258,17.973c2.606-0.326,5.24-0.665,7.874-1.032c5.186-7.263,9.597-15.896,8.878-25.073
	c-0.272-3.231-3.435-6.801-6.896-4.955C528.368,340.7,528.572,345.669,527.635,350.081 M416.402,337.7
	c-3.082,5.837-5.797,12.231-5.729,18.951c2.918,0.095,5.851,0.136,8.81,0.109c0.814-6.489,3.149-12.625,5.281-18.747
	C421.967,337.836,419.157,337.225,416.402,337.7 M427.289,337.999c-2.43,6.082-4.534,12.299-5.959,18.706
	c5.376,1.059,10.711,2.362,16.154,3.163c0.556-7.018,2.539-13.779,4.507-20.498C437.158,338.325,432.216,337.85,427.289,337.999
	 M507.558,339.302c-4.792,6.543-3.57,15.285-6.869,22.453c2.919,2.851,5.199,6.258,7.493,9.638c1.995-0.475,4.072-0.923,5.987-1.765
	c2.294-5.783,4.317-11.865,4.629-18.109c-0.529-4.67-0.909-10.222-4.887-13.358C511.834,337.768,508.888,337.239,507.558,339.302
	 M520.739,343.266c-0.326,3.19-0.095,6.407-0.122,9.638c0.122,5.824-2.335,11.24-3.964,16.724
	c7.765-8.973,8.172-21.204,10.697-32.213C524.513,338.338,521.2,339.954,520.739,343.266 M444.773,339.289
	c-2.226,6.516-4.548,13.236-4.453,20.213c1.534,1.14,3.394,2.023,4.439,3.774c-1.914-0.027-3.801-0.054-5.674-0.095
	c0.163,2.213-0.326,4.806,1.412,6.625c-1.222,1.412-2.362,3-2.416,4.941c-0.597,7.208-0.217,14.457-0.271,21.679
	c1.751,0.434,3.529,0.882,5.321,1.344c0.367-7.276-0.014-14.525-0.095-21.788c2.335-12.027,5.335-23.973,7.914-36.001
	C448.873,339.723,446.81,339.479,444.773,339.289 M463.493,355.959c-8.389,2.756-15.761,9.747-17.444,18.598
	c-2.335,14.661,15.72,27.164,28.752,20.62c5.145-2.905,4.425-9.652,4.683-14.661c-0.964-0.109-2.905-0.339-3.882-0.462
	c0.299,3.679,0.448,7.466-1.113,10.928c-5.05,1.71-11.05,2.348-15.611-0.95c-8.552-5.715-8.742-20.186-0.244-26.023
	c4.901-3.611,11.213-5.403,17.24-3.964c8.023,1.968,15.136,7.14,19.928,13.833c6.502,9.027,5.606,21.557,1.032,31.236
	c-5.254,10.887-16.113,17.322-26.349,22.86c-6.95,3.787-14.851,5.43-21.706,9.38c-8.688,4.901-18.991,4.738-28.63,5.539
	c-10.86,1.358-22.059,2.878-32.824,0.136c-13.507-3.652-25.833-10.588-37.372-18.353c-12.598-8.389-25.182-17.457-39.883-21.815
	c-10.589-2.891-21.489-5.756-32.553-5.023c-4.724,0.638-10.398,2.457-11.036,7.955c3.774,0.122,7.575,0.217,11.349-0.339
	c15.353-2.729,31.67,0.095,45.177,7.941c12.177,6.869,22.412,16.561,34.087,24.191c9.448,6.407,20.512,10.222,31.82,11.566
	c14.552,0.76,29.241,0.543,43.508-2.674c21.245-4.561,43.426-11.742,58.562-28.154c8.321-8.959,15.028-20.281,15.666-32.743
	c-0.258-9.978-5.145-20.05-13.711-25.426C484.385,354.574,473.226,352.497,463.493,355.959 M384.107,357.343
	c-0.285,2.525-0.529,5.077-0.72,7.656c2.172-0.624,4.331-1.235,6.543-1.806c0.122-2.091,0.271-4.154,0.434-6.204
	C388.247,357.072,386.17,357.194,384.107,357.343 M393.243,357.886c-0.231,1.385-0.679,4.14-0.909,5.525
	c4.846,0.014,9.679,0.326,14.525,0.394c0.394-1.819,0.76-3.638,1.154-5.416C403.071,358.443,398.143,358.389,393.243,357.886
	 M409.261,358.361c-0.014,1.724-0.014,3.462,0.014,5.213c2.783,0.421,5.593,0.882,8.403,1.385c0.448-2.172,0.842-4.371,1.235-6.53
	C415.682,358.375,412.465,358.361,409.261,358.361 M419.985,365.04c5.308,1.371,10.738,2.199,16.181,2.905
	c0.204-1.262,0.584-3.815,0.787-5.091c-5.063-1.67-10.29-3.326-15.652-3.204C419.809,360.9,420.474,363.303,419.985,365.04
	 M533.228,367.131c4.683,5.199,1.303,12.258-1.072,17.702c-5.661,13.317-16.059,23.933-27.639,32.295
	c-4.249,3.299-10.561,2.688-13.779,7.493c8.186-2.43,16.494-5.023,23.648-9.828c8.444-5.267,14.308-13.697,18.679-22.467
	c4.29-9.285,7.127-20.186,3.733-30.191C535.576,363.778,534.382,365.448,533.228,367.131 M391.885,365.733
	c-1.534,9.122-2.321,18.353-3.014,27.571c5.43-0.163,10.874-0.068,16.317,0.326c-0.502-9.041,0.896-17.973,1.412-26.96
	C401.754,365.638,396.799,364.959,391.885,365.733 M455.606,378.765c0.652,4.901,4.602,8.702,9.217,10.127
	c-0.57-8.254,1.887-16.209,4.018-24.055C462.013,366.031,456.312,371.828,455.606,378.765 M470.674,364.945
	c-1.439,8.131-2.742,16.317-4.683,24.353c0.964-0.394,2.878-1.167,3.842-1.561c0.204-3.828,0.244-7.779,3.435-10.466
	c2.701-0.095,5.43-0.163,8.172-0.149c0.149,0.991,0.448,2.946,0.584,3.923c1.371-3.231,2.606-6.502,3.407-9.91
	C480.869,368.298,476.104,365.57,470.674,364.945 M382.831,366.846c-0.923,8.905-0.706,17.905-2.131,26.783
	c1.751,0,3.53,0,5.321,0.027c0.312-9.136,1.846-18.177,2.973-27.231C386.917,366.534,384.853,366.683,382.831,366.846
	 M408.121,366.588c-0.353,9.014-0.136,18.055-0.489,27.082c2.457-0.095,4.941-0.204,7.453-0.353
	c0.733-8.851,1.195-17.715,2.308-26.525C414.284,366.642,411.202,366.574,408.121,366.588 M420.067,367.728
	c-1.846,8.919-1.235,18.055-1.235,27.096c5.444-0.095,10.806,1.005,16.208,1.643c-0.271-8.579,0.136-17.159,1.412-25.657
	C431.008,369.656,425.538,368.651,420.067,367.728 M508.236,373.674c0.665,1.249,1.425,2.579,2.131,3.855
	c7.059-2.253,14.43-3.394,21.666-4.914c0.285-0.421,0.855-1.276,1.127-1.697C524.852,371.869,516.449,371.936,508.236,373.674
	 M488.743,374.38c-4.412,7.819-6.285,16.684-9.883,24.815c-0.054,7.154-1.616,14.172-2.009,21.313
	c8.919-5.145,15.285-13.928,17.851-23.851c-4.358,2.498-9.38,6.326-14.498,3.529c0.149-1.643,0.543-3.285,0.896-4.86
	c4.086-4.425,7.263-9.57,11.145-14.159c-2.172,6.489-7.711,11.159-9.693,17.756c4.724-1.588,9.53-3.991,12.462-8.186
	C495.87,384.534,492.625,378.9,488.743,374.38 M515.187,378.968c-1.629,1.873-3.231,3.76-4.738,5.729
	c4.778-0.787,8.878-3.367,12.258-6.76C520.209,378.385,517.684,378.697,515.187,378.968 M510.042,388.403
	c-1.14,10.901-6.122,21.191-13.208,29.471c17.118-7.276,28.426-23.58,34.847-40.467c-1.113,0-3.326,0.014-4.439,0.014
	C522.137,381.982,516.409,385.837,510.042,388.403 M510.205,380.407C510.897,381.127,510.897,381.127,510.205,380.407
	 M444.868,389.421c-0.014,2.796-0.041,5.593-0.068,8.417c4.846,1.48,9.774,2.756,14.593,4.425c0.081,2.43,0.19,4.887,0.326,7.358
	c1.9,0.774,3.787,1.52,5.742,2.321c0.502-2.579,1.032-5.131,1.67-7.643c0.855,7.208,0.706,14.525,0.014,21.761
	c2.104-1.14,4.249-2.226,6.394-3.312c0-7.493,0.625-15,2.376-22.29c-3.991,1.412-8.24,2.471-12.462,1.615
	C455.579,401.136,449.715,395.204,444.868,389.421 M380.672,395.76c-0.312,1.996-0.638,4.005-0.909,6.041
	c1.67,0.285,3.394,0.611,5.104,0.923c0.231-2.566,0.489-5.104,0.801-7.629C383.971,395.285,382.301,395.503,380.672,395.76
	 M389.007,395.027c-0.19,2.661-0.38,5.349-0.556,8.05c5.606-0.136,11.186,0.706,16.738,1.466c-0.014-3.177-0.014-6.353-0.014-9.516
	C399.786,395,394.383,395,389.007,395.027 M407.659,395.041c-0.136,3.136-0.244,6.272-0.326,9.421
	c2.43,0.013,4.887,0.054,7.358,0.109c-0.027-2.756-0.027-5.498-0.027-8.226C412.302,395.896,409.994,395.475,407.659,395.041
	 M418.071,396.534c-0.136,2.987-0.285,5.973-0.38,8.987c5.471,0.285,10.955,0.312,16.439,0.747c0.217-2.715,0.475-5.403,0.665-8.118
	C429.176,398,423.664,396.86,418.071,396.534 M437.511,399.046c-0.367,2.688-0.692,5.403-1.032,8.118
	c1.833,0.014,3.679,0.027,5.552,0.068c0.326-2.593,0.679-5.172,0.977-7.751C441.149,399.317,439.316,399.168,437.511,399.046
	 M444.556,400.254c0.014,2.661,0.082,5.321,0.204,8.009c4.48,0.109,8.973,0.557,13.371,1.615c-0.027-2.226-0.027-4.439,0-6.638
	C453.407,403.295,449.009,401.516,444.556,400.254 M379.586,404.163c-1.561,7.032-3.068,14.091-4.819,21.082
	c2.81,0.543,5.661,0.869,8.552,1.127c1.765-7.113,1.534-14.471,1.507-21.733C383.061,404.462,381.31,404.313,379.586,404.163
	 M387.853,404.571c-0.081,7.602-0.584,15.19-1.561,22.752c5.43,0.136,10.86,0.434,16.276,1.032
	c1.52-7.358,2.131-14.892,2.661-22.372C399.379,406.172,393.623,405.263,387.853,404.571 M407.266,406.756
	c-1.018,7.371-0.136,14.932-2.05,22.195c2.131-0.014,4.29-0.014,6.475,0c1.127-7.195,1.805-14.43,2.416-21.666
	C411.8,407.096,409.519,406.919,407.266,406.756 M417.528,407.163c-0.109,7.276-1.14,14.539-2.525,21.679
	c5.376,0.041,10.738,0.597,16.073,1.317c1.941-6.978,2.932-14.199,2.62-21.448C428.253,408.765,422.904,407.72,417.528,407.163
	 M436.56,409.403c0.054,7.059-2.131,13.846-3.285,20.756c2.308,0.109,4.643,0.258,6.991,0.434c0.733-6.828,1.86-13.629,1.575-20.512
	C440.063,409.838,438.298,409.621,436.56,409.403 M443.606,410.408c-0.787,6.923-0.258,13.914-0.407,20.878
	c2.009,0.557,4.873,0.176,5.783,2.647c-2.254-0.163-4.466-0.366-6.679-0.57c-0.122,1.032-0.367,3.122-0.489,4.154
	c2.539-0.57,4.996-1.507,7.222-2.905c0.719-0.136,2.172-0.407,2.905-0.543c1.982-1.045,3.991-2.05,6.027-3.027
	c0.285-6.204,0.896-12.421,0.136-18.611C453.298,411.684,448.398,410.069,443.606,410.408 M460.941,412.96
	c-0.081,5.525-0.163,11.064-0.041,16.602c5.321-2.756,3.421-10.222,4.208-15.177C463.697,413.897,462.312,413.422,460.941,412.96
	 M373.152,427.553c-0.855,1.914-1.697,3.855-2.525,5.797c3.434,0.964,6.502,3.122,9.733,4.412c0.367-0.543,1.1-1.629,1.466-2.172
	c0.556-2.281,1.167-4.534,1.765-6.787C380.17,427.933,376.654,427.594,373.152,427.553 M386.143,428.897
	c-0.692,2.647-1.262,5.321-1.751,8.023c4.941,0.068,9.869,0.557,14.742,1.398c1.167-2.552,2.145-5.186,3.136-7.806
	C396.894,429.861,391.546,429.019,386.143,428.897 M405.365,430.336c-0.679,2.471-1.344,4.928-1.901,7.453
	c2.253-0.367,4.521-0.706,6.815-1.045c0.204-2.158,0.421-4.317,0.692-6.435C409.085,430.295,407.211,430.309,405.365,430.336
	 M414.528,430.702c-0.706,2.05-1.385,4.14-2.077,6.217c5.647,0.597,11.457,0.787,16.874,2.756c0.258-2.688,0.774-5.308,1.48-7.887
	C425.361,431.503,419.972,430.702,414.528,430.702 M432.637,431.626c-0.475,2.756-0.991,5.525-1.548,8.267
	c2.267-0.543,4.534-1.113,6.76-1.887c0.909-1.425,0.991-3.231,1.588-4.765C437.144,432.671,434.904,432.155,432.637,431.626
	 M349.043,437.096c-3.054,3.136-7.086,4.887-11.145,6.299c6.937,1.29,13.874-1.575,20.77-0.014
	C355.586,441.074,352.233,439.2,349.043,437.096 M401.035,441.875c3.041,0.122,7.14,1.724,8.634-1.996
	C406.886,440.327,402.324,438.427,401.035,441.875 M410.089,441.155c3.774,0.068,7.548-0.19,11.321-0.597
	C417.691,440.219,413.103,437.979,410.089,441.155z"/>
<path fill="#949293" d="M371.333,206.783c-3.34-8.131,5.498-16.331,13.507-13.942c0.231,0.95,0.706,2.837,0.937,3.787
	c-2.851,0.529-5.959,0.339-8.484,1.901C374.767,200.865,373.301,204.028,371.333,206.783z"/>
<path fill="#949293" d="M377.129,209.403c1.778-3.964,4.914-9.937,10.222-8.525c3.421,3.652,4.914,8.688,5.552,13.548
	c0.231,6.543,1.276,14.349-4.167,19.236c-3-0.204-6.597,0.434-8.552-2.43c-5.158-5.579-4.561-13.887-3.407-20.824
	c2.824,4.005,0.421,9.353,2.932,13.575c0.964,3.706,4.235,5.932,7.846,6.625c2.891-3.747,2.932-8.62,3.597-13.073
	c-1.303,2.077-1.412,4.901-3.557,6.407c-3.217,0.896-5.878-0.977-8.267-2.783c-1.086-5.674,0-14.186,7.385-14.43
	c0.461,0.475,1.398,1.412,1.86,1.887c-0.787-1.914-1.71-3.747-2.593-5.566c-3.19,1.249-5.539,3.869-7.005,6.91
	C378.514,209.824,377.591,209.539,377.129,209.403z"/>
<path fill="#949293" d="M414.908,202.643c2.891-0.95,3.421,5.104,0.068,3.584l-0.706-1.317
	C414.433,204.353,414.745,203.213,414.908,202.643z"/>
<path fill="#949293" d="M492.72,286.713c2.376-3.434,6.72-4.48,10.589-5.267l2.335,1.615
	C501.788,285.559,497.349,287.079,492.72,286.713z"/>
<path fill="#949293" d="M423.013,324.533c1.588,0.842,1.48,1.792-0.339,2.851C421.004,326.487,421.126,325.537,423.013,324.533z"/>
</svg>
