<?xml version="1.0" encoding="utf-8"?>
<!-- Generator: Adobe Illustrator 17.0.0, SVG Export Plug-In . SVG Version: 6.00 Build 0)  -->
<!DOCTYPE svg PUBLIC "-//W3C//DTD SVG 1.1//EN" "http://www.w3.org/Graphics/SVG/1.1/DTD/svg11.dtd">
<svg version="1.1" id="Layer_1" xmlns="http://www.w3.org/2000/svg" xmlns:xlink="http://www.w3.org/1999/xlink" x="0px" y="0px"
	 width="800px" height="600px" viewBox="0 0 800 600" enable-background="new 0 0 800 600" xml:space="preserve">
<g>
	<path fill="#120E0F" d="M603.671,212.602c-8.057-8.332-19.345-12.571-30.825-12.448c-9.516,0.101-18.953,3.093-27.577,6.92
		c-3.17,1.407-6.258,2.991-9.307,4.639c-0.955,0.516-1.904,1.042-2.863,1.55c-0.111,0.058-0.21,0.109-0.3,0.155
		c-0.171-0.04-0.343-0.075-0.516-0.099c-23.552-3.265-46.782,12.285-60.33,30.687c-19.448-1.415-38.746,9.467-48.152,26.621
		c-16.568-3.191-33.12,7.509-42.718,20.521c-14.223-0.805-29.278,5.872-36.157,18.861c-10.792-0.679-22.191,4.149-27.795,13.755
		c-10.022-0.583-20.574,3.322-25.487,12.482c-9.241,0.483-17.393,4.234-22.558,12.117c-7.417-1.274-14.605,2.126-19.413,7.979
		c-5.505-0.025-11.061,2.002-13.817,6.921c-4.004-0.423-7.834-1.09-11.54,1.23c-3.042,1.903-4.5,5.158-7.476,7.148
		c-6.384,4.27-13.822,7.225-20.827,10.291c-12.522,5.482-25.234,10.571-38.019,15.408c-2.25,0.851,0.088,4.652,2.872,6.879
		c6.865,11.42,24.223,7.476,35,4.711c10.161-2.606,20.198-6.157,29.845-10.298c5.362,1.372,11.376-0.851,16.409-3.095
		c5.851,1.909,12.606-0.789,17.938-3.677c5.763,2.078,11.704-0.095,15.835-4.57c8.172,3.993,17.516,0.644,24.289-5.357
		c8.103,3.112,17.251-0.193,24.054-5.269c9.605,2.557,20.042,0.07,28.529-5.041c12.157,6.579,27.538-1.97,37.494-10.068
		c9.175,4.07,19.002,1.811,27.578-3.173c3.507-2.038,6.75-4.482,9.982-6.922c0.176-0.133,1.055-0.771,1.076-0.8
		c0.654-0.406,0.606,0.006,0.174-0.087c3.392,0.736,6.857,1.185,10.315,1.462c9.56,0.767,19.625-0.906,27.93-5.855
		c2.695-1.606,5.525-3.6,7.65-6.045c21.502,11.498,48.48,0.322,66.605-13.629c21.204,1.004,46.488-1.528,60.784-19.222
		c8.491-10.509,10.896-24.541,9.837-37.707c-0.262-3.249-0.702-6.566-1.443-9.775c4.947-3.551,7.85-9.199,8.03-15.675
		C619.098,232.539,611.375,220.569,603.671,212.602z M584.529,210.468c11.921,1.889,19.758,11.302,23.146,22.82
		c2.333,7.931-0.709,15.589-8.061,18.972c-2.679,1.232-4.877,1.662-7.647,1.785c-1.182,0.052-2.972-0.077-3.167-0.106
		c-0.701-0.101-1.393-0.257-2.08-0.429c-0.27-0.07-0.537-0.146-0.803-0.228c-0.036-0.011-0.06-0.017-0.091-0.027
		c-0.047-0.018-0.095-0.038-0.158-0.063c-0.306-0.121-0.604-0.26-0.901-0.403c0.195,0.087-0.105-0.094-0.46-0.308
		c0.074-0.033-0.461-0.551-0.67-0.686c-0.026-0.09-0.065-0.214-0.121-0.384c-0.464-1.406-0.899-2.82-1.378-4.222
		c-0.924-2.704-1.987-5.36-3.157-7.966c-3.814-8.496-9.542-15.888-17.804-20.417c-2.182-1.196-4.47-2.122-6.827-2.839
		C563.687,211.937,574.307,208.85,584.529,210.468z M584.092,252.477c-0.088-0.102-0.154-0.174-0.211-0.235
		c0.009,0.006,0.022,0.016,0.031,0.022C583.968,252.331,584.019,252.393,584.092,252.477z M583.839,252.178
		c0.009,0.011,0.023,0.028,0.033,0.039c-0.007-0.004-0.013-0.008-0.02-0.013C583.847,252.196,583.844,252.188,583.839,252.178z
		 M223.869,380.164c0.076-0.046,0.142-0.092,0.216-0.137c2.335,3.421,5.326,6.546,8.617,9.146c-2.201,0.819-4.49,1.554-6.804,1.895
		c-1.017,0.15-3.369-0.474-1.632,0.547c-0.909-0.534-2.055-1.188-3.175-1.114c-1.821-1.037-3.616-2.126-5.487-3.094
		c-0.995-0.514-2.01-0.943-3.038-1.306C216.425,384.288,220.226,382.354,223.869,380.164z M202.507,390.601
		c1.732-0.753,3.468-1.509,5.2-2.28c3.371,0.243,6.504,1.117,9.639,2.818c0.266,0.144,0.528,0.291,0.792,0.438
		c-5.295,2.205-10.688,4.191-16.12,6.017c-0.75,0.252-1.505,0.503-2.262,0.753c-2.147-1.154-4.147-2.732-6.296-3.888
		C196.484,393.192,199.501,391.907,202.507,390.601z M172.497,403.938c-0.861,0.001-1.638-0.033-2.397-0.119
		c6.06-2.332,12.097-4.728,18.105-7.196c3.04-0.38,5.954-0.27,9.07,1.589c0.335,0.2,0.667,0.409,0.998,0.621
		C189.951,401.538,181.213,403.926,172.497,403.938z M245.38,387.688c-1.269,0.37-2.523,0.57-3.842,0.612
		c-1.251,0.04-1.193-0.496-2.75-0.887c-0.546-0.137-1.108-0.107-1.67,0.016c-0.159-0.071-0.318-0.137-0.478-0.195
		c-3.358-1.21-4.441-1.745-6.008-4.556c-0.816-1.465-1.532-3.054-1.923-4.692c-0.114-0.476-0.33-0.947-0.609-1.406
		c0.38-0.445,0.759-0.923,1.16-1.449c2.996-3.936,6.646-3.895,10.711-3.519c2.625,5.285,6.108,10.305,10.465,14.242
		C248.787,386.561,247.103,387.185,245.38,387.688z M258.815,384.588c-0.333-0.218-0.671-0.412-1.005-0.573
		c-3.876-1.873-6.64-5.596-8.832-9.186c-1.038-1.701-1.956-3.476-2.808-5.278c-0.132-0.278-0.251-0.562-0.376-0.844
		c0.398-0.428,0.823-0.831,1.264-1.215c1.359-1.181,2.978-1.834,4.694-2.304c0.144-0.039,0.32-0.066,0.513-0.085
		c4.017,6.188,9.229,12.073,15.306,16.333C265.13,383.74,261.833,385.655,258.815,384.588z M274.317,379.514
		c-0.728-0.569-2.424-1.373-3.621-1.107c-5.462-3.222-9.99-8.309-13.446-13.672c0.163-0.078,0.299-0.171,0.392-0.289
		c1.467-1.863,3.382-3.7,5.547-5.149c4.751,7.361,11.445,13.728,18.615,18.475c2.574,1.704,2.181-1.124,0.454-2.266
		c-5.24-3.469-9.771-7.686-13.684-12.595c-1.221-1.532-2.333-3.147-3.377-4.803c2.956-1.523,6.229-2.219,9.399-1.31
		c0.165,0.047,0.405,0.118,0.668,0.176c4.723,6.887,10.447,13.461,17.067,18.555C287.43,379.663,279.718,383.737,274.317,379.514z
		 M297.483,373.932c-0.807-0.447-1.993-0.698-2.89-0.305c-6.684-4.692-12.253-11.499-16.695-18.336
		c1.589-2.251,3.449-4.161,5.536-5.714c4.535,9.851,13.025,18.244,21.882,23.955c3.566,2.299,3.987-2.058,1.251-3.823
		c-8.084-5.212-16.248-13.713-19.39-22.412c2.66-1.31,5.583-2.136,8.699-2.467c4.853,9.68,11.785,18.745,20.188,25.531
		c-1.073,0.705-2.191,1.341-3.328,1.94C308.129,374.73,302.346,376.626,297.483,373.932z M322.124,369.181
		c-1.936-0.501-3.023-0.944-4.623,0.182c-5.81-4.148-10.131-9.991-13.792-16.091c-1.434-2.39-2.736-4.86-3.941-7.372
		c-0.155-0.322-0.379-0.814-0.606-1.317c0.387-0.102,0.615-0.338,0.884-0.904c-0.568,1.191-0.106,0.243,0.043-0.022
		c0.319-0.569,0.682-1.113,1.055-1.648c1.156-1.662,2.561-3.132,4.084-4.458c1.087-0.947,2.254-1.747,3.476-2.427
		c0.591,1.283,1.287,2.524,1.953,3.709c4.272,7.605,10.427,14.152,16.695,20.133c0.257,0.245,1.826,1.727,2.285,1.234
		c0.463-0.496-1.134-1.948-1.391-2.194c-5.46-5.21-10.565-10.867-14.357-17.427c-1.088-1.883-2.302-4.133-2.705-6.271
		c-0.021-0.109-0.055-0.217-0.096-0.324c3.211-1.3,6.709-1.85,10.223-1.794c2.19,4.517,4.334,9.025,7.116,13.321
		c4.619,7.131,10.317,13.823,17.026,19.157C338.498,368.588,329.814,371.172,322.124,369.181z M351.789,364.168
		c-0.789-0.605-2.851-1.64-3.883-0.974c-0.215,0.139-0.439,0.272-0.658,0.41c-6.941-4.779-12.112-11.82-16.361-19.055
		c-2.345-3.993-4.059-8.247-6.074-12.372c0.116-0.061,0.229-0.135,0.336-0.228c2.035-3.663,4.939-6.66,8.338-8.899
		c1.209,2.184,2.564,4.293,3.909,6.311c7.041,10.566,16.178,19.611,26.138,27.422c0.197,0.155,2.289,1.669,2.294,0.63
		c0.004-1.131-1.506-2.377-2.287-2.989c-8.974-7.039-17.11-15.19-23.295-24.816c-1.608-2.502-3.206-5.164-4.406-7.944
		c4.162-2.182,8.878-3.315,13.611-3.211c7.694,14.426,19.274,27.446,32.604,36.92c-3.007,2.308-6.243,4.341-9.571,6.125
		C366.843,364.524,357.667,368.682,351.789,364.168z M414.659,348.879c-7.779,5.339-17.999,9.679-26.954,4.671
		c-0.73-0.408-1.646-0.608-2.461-0.422c-9.301-6.083-17.192-14.201-23.691-23.184c-2.915-4.029-5.934-8.717-7.997-12.814
		c1.995-3.482,4.852-6.576,7.844-9.187c1.673,3.799,3.761,7.453,5.893,10.87c8.204,13.15,19.829,24.029,32.926,32.207
		c1.231,0.769-1.04-1.7-1.482-1.976c-12.65-7.899-23.27-18.378-30.784-31.291c-1.986-3.414-3.889-7.076-5.288-10.862
		c3.239-2.575,6.896-4.476,10.837-5.764c2.14,1.721,4.151,3.819,6.047,5.813c7.247,7.625,13.224,16.461,18.559,25.491
		c0.733,1.241,3.866,2.214,2.591,0.056c-5.571-9.429-11.837-18.534-19.344-26.538c-1.752-1.868-3.573-3.764-5.526-5.482
		c1.989-0.475,4.024-0.753,6.061-0.913c0.802-0.063,2.715,0.231,4.383,0.288c4.62,7.475,9.439,14.835,14.45,22.044
		c4.449,6.401,9.081,12.747,14.34,18.513c1.255,1.375,2.815,3.181,4.557,4.834C417.972,346.457,416.35,347.718,414.659,348.879z
		 M435.917,344.143c-3.157-0.155-6.271-0.65-9.366-1.275c-1.545-0.312-2.679-0.576-4.008,0.295c-0.557,0.365-1.1,0.75-1.642,1.137
		c-2.394-1.395-4.461-4.549-6.028-6.438c-4.577-5.518-8.693-11.427-12.719-17.352c-4.664-6.862-9.16-13.852-13.464-20.949
		c0.159-0.077,0.295-0.168,0.38-0.286c2.896-3.975,6.454-7.791,10.475-11.04c3.791,1.886,7.184,4.871,10.17,7.737
		c10.241,9.829,16.839,22.987,21.312,36.288c0.426,1.266,3.938,3.163,3.184,0.922c-4.777-14.205-11.936-27.705-22.629-38.346
		c-2.926-2.912-6.329-5.927-10.03-8.141c8.394-6.151,18.534-9.73,28.801-7.376c0.533,0.101,1.002-0.024,1.406-0.373
		c0.122-0.231,0.254-0.457,0.38-0.686c0.031,0.027,0.062,0.051,0.093,0.078c0.002,0.011,1.01,0.916,1.224,1.115
		c0.666,0.617,1.324,1.245,1.966,1.885c3.929,3.92,7.523,8.153,10.875,12.574c9.315,12.29,16.219,26.599,19.057,41.795
		c-3.624,3.28-8.242,5.451-13.131,6.777c-1.787-20.209-11.43-41.245-27.987-53.332c-2.365-1.727-2.507,1.26-0.77,2.527
		c0.761,0.556,2.272,1.883,3.496,3.041c3.281,3.103,6.176,6.585,8.796,10.257c8.01,11.223,12.285,24.609,13.042,38.294
		C444.417,344.108,439.959,344.341,435.917,344.143z M473.292,332.392c-0.952-0.636-3.543-1.962-4.517-0.557
		c-0.054,0.078-0.113,0.152-0.168,0.23c-3.965-14.087-11.254-27.054-20.245-38.633c-3.846-4.953-8.075-9.612-12.573-13.978
		c-0.85-0.825-1.777-1.796-2.763-2.737c1.423-2.373,3.044-4.627,4.839-6.736c0.149,0.1,0.3,0.197,0.454,0.28
		c4.946,2.679,9.261,6.789,13.034,10.884c10.89,11.816,18.145,26.675,22.637,41.991c0.252,0.859,1.488,1.75,2.123,2.301
		c0.1,0.087,1.69,1.289,1.578,0.906c-4.936-16.826-13.259-32.492-25.361-45.258c-4.064-4.286-8.614-8.69-13.65-12.043
		c3.19-3.57,6.878-6.696,10.912-9.25c2.806,1.275,6.01,3.61,8.516,5.607c9.855,7.854,17.23,18.667,23.267,29.586
		c0.764,1.382,4.404,2.904,2.945,0.264c-6.463-11.689-14.43-22.829-24.782-31.396c-2.317-1.917-4.842-3.89-7.536-5.491
		c6.927-3.865,14.725-6.066,22.694-6.003c0.574,0.477,1.197,0.873,1.804,1.16c0.551,0.262,1.088,0.554,1.622,0.847
		c0.343,0.197,0.684,0.398,1.023,0.6c0.92,0.548,1.825,1.121,2.723,1.705c5.506,3.581,9.409,6.798,14.214,11.374
		c15.519,14.779,25.93,34.053,31.545,54.617c0.108,0.396,0.273,0.785,0.481,1.161C512.749,333.521,489.926,343.506,473.292,332.392z
		 M603.947,276.973c-1.519,15.388-9.79,28.329-23.864,35.12c-9.185,4.432-19.459,6.052-29.557,6.535
		c-3.051,0.146-6.106,0.147-9.159,0.085c-1.978-0.04-4.864-0.806-6.516,0.47c-0.29,0.224-0.592,0.433-0.886,0.652
		c-6.443-20.74-17.657-39.686-33.187-54.971c-5.618-5.53-11.993-10.949-18.903-15.116c0.241-0.327,0.496-0.664,0.782-1.002
		c1.467-1.736,3.004-3.412,4.594-5.037c0.166,0.138,0.332,0.256,0.494,0.334c6.227,2.99,12,7.269,17.293,11.65
		c13.527,11.195,24.38,25.357,31.741,41.292c0.487,1.054,1.482,2.03,2.589,2.414c0.91,0.316,1.488-0.235,1.068-1.145
		c-7.683-16.634-18.921-31.379-32.833-43.293c-5.654-4.842-11.848-9.594-18.51-13.085c0.889-0.865,1.789-1.719,2.705-2.555
		c2.946-2.684,6.074-5.195,9.371-7.445c7.106,1.732,15.163,6.244,21.527,10.466c19.126,12.689,33.423,31.472,43.97,51.617
		c0.458,0.875,1.277,1.621,2.074,2.184c0.189,0.134,1.496,0.875,1.052,0.027c-11.239-21.467-26.578-41.003-46.578-54.938
		c-5.965-4.156-12.7-8.28-19.748-10.857c6.019-3.789,12.565-6.673,19.569-8.138c0.311,0.138,0.626,0.276,0.945,0.418
		c4,1.777,7.91,3.735,11.72,5.891c12.894,7.297,24.198,17.186,32.13,29.776c0.486,0.771,4.501,3.769,3.264,1.806
		c-7.957-12.627-18.987-23-31.466-31.094c-4.221-2.739-8.624-5.183-13.141-7.394c2.202-0.279,4.413-0.355,6.623-0.265
		c1.183,1.101,2.629,1.954,4.131,2.187c0.339,0.072,0.679,0.092,1.016,0.068c6.256-0.095,12.526,0.091,18.577,1.817
		c1.826,0.52,3.871,1.52,4.971,2.224c1.791,1.146,2.552,1.937,3.936,3.679c2.995,3.77,5.362,9.825,7.12,15.092
		c1.788,5.358,4.028,9.253,8.537,12.79c6.119,4.8,14.876,5.738,22.277,3.804C604.238,267.68,604.377,272.621,603.947,276.973z"/>
	<path fill="#120E0F" d="M492.454,275.8c-4.211-5.327-9.134-10.82-14.852-14.605c-3.022-2.001-3.142,1.611-0.912,3.087
		c4.281,2.833,8.72,7.676,12.356,12.155c10.541,12.983,17.364,28.633,21.659,44.694c0.49,1.835,5.053,4.11,4.238,1.064
		C510.471,305.47,503.23,289.431,492.454,275.8z"/>
</g>
</svg>
