<?xml version="1.0" encoding="utf-8"?>
<!-- Generator: Adobe Illustrator 17.0.0, SVG Export Plug-In . SVG Version: 6.00 Build 0)  -->
<!DOCTYPE svg PUBLIC "-//W3C//DTD SVG 1.1//EN" "http://www.w3.org/Graphics/SVG/1.1/DTD/svg11.dtd">
<svg version="1.1" id="Layer_1" xmlns="http://www.w3.org/2000/svg" xmlns:xlink="http://www.w3.org/1999/xlink" x="0px" y="0px"
	 width="800px" height="600px" viewBox="0 0 800 600" enable-background="new 0 0 800 600" xml:space="preserve">
<g id="_x23_211f20ff">
	<path fill="#211F20" d="M410.367,124.92h0.242c3.397,3.37,6.376,7.956,5.843,12.943c3.008-2.248,5.588-5.065,8.809-7.022
		c-0.497,0.928-1.332,1.592-1.967,2.416c-1.105,1.41-2.116,2.892-3.26,4.271c2.915,0.042,5.786,0.829,8.402,2.092
		c2.143,1.051,3.951,2.814,4.885,5.026c-2.086-2.682-5.49-3.831-8.728-4.358c-2.158-0.251-4.469-0.596-6.519,0.338
		c6.229,4.583,11.826,10.135,15.912,16.735c4.72,7.528,7.214,16.433,7.088,25.32c-0.042,5.358-1.314,10.65-3.293,15.61
		c-1.284,3.206-2.993,6.25-5.19,8.923c2.152-0.323,4.304-1.072,6.501-0.653c3.308-3.227,6.944-6.088,10.62-8.881
		c3.999-2.963,8.441-5.705,13.473-6.352c2.691-0.347,5.714-0.099,7.857,1.736c1.865,1.577,2.574,4.047,3.032,6.355
		c0.548,3.089,0.353,6.358-0.853,9.273c-0.464,1.143-1.239,2.137-1.601,3.323c-0.395,1.281-1.377,2.371-2.628,2.856
		c-1.108,0.443-2.517-0.204-2.832-1.368c-0.281-1.06,0.063-2.167,0.515-3.125c0.452-0.988,1.266-1.787,1.548-2.856
		c0.706-2.463,1.904-4.864,1.823-7.486c-0.09-1.889-0.88-3.912-2.55-4.936c-1.628-0.964-3.637-0.715-5.376-0.221
		c-3.131,0.934-5.939,2.664-8.689,4.385c-3.727,2.356-6.828,5.55-9.614,8.932c2.353,0.557,4.526,1.739,6.244,3.445
		c3.227,3.17,5.382,7.498,5.612,12.045c0.593,8.291-4.783,16.313-12.165,19.807c-2.146,0.931-4.241,1.999-6.483,2.691
		c5.116,1.787,9.902,4.364,14.64,6.968c1.536,0.826,2.933,1.871,4.37,2.85c3.059,0.706,6.645,0.272,9.195,2.445
		c2.844,2.595,3.619,6.654,3.825,10.33c1.027,1.17,2.131,2.272,3.317,3.284c2.329-0.82,4.825-0.973,7.274-0.91
		c6.181,0.225,12.383,0.359,18.513,1.275c6.094,0.85,12.314,2.215,17.544,5.612c3.092,2.012,5.9,4.867,6.837,8.534
		c0.326,1.455,0.943,2.823,1.323,4.262c0.778,2.85,1.018,5.804,1.269,8.734v3.987c-0.189,3.909-0.434,7.881-1.682,11.623
		c-0.542,1.703-1.458,3.251-2.212,4.864c-1.072,2.182-3.044,3.924-5.397,4.586c-4.286,1.248-8.827,1.257-13.236,0.829
		c0.356,4.421-0.892,8.743-1.796,13.03c-1.598,6.654-3.26,13.305-5.496,19.78c-0.91,2.604-1.778,5.283-3.433,7.528
		c2.978,1.826,5.909,4.146,7.286,7.459c1.218,2.883,0.626,6.163-0.527,8.968c-1.97,4.655-5.738,8.357-10.013,10.949
		c-1.769,1.099-3.721,1.838-5.579,2.763c-4.508,2.155-9.345,3.568-14.254,4.448c0.123,6.654,0.003,13.308-0.189,19.959
		c-0.293,2.556,0.293,5.148-0.222,7.687c-0.844,2.164-3.37,2.733-5.403,3.161c0.536,2.251,0.042,4.544-0.057,6.813
		c-0.192,4.487-0.159,8.989-0.575,13.464c1.422-0.168,2.835,0.242,4.071,0.925c0.832,0.467,1.455,1.425,1.218,2.41
		c-0.171,0.988,0.129,1.967,0.225,2.951c0.242,1.862-0.069,3.786,0.464,5.612c0.233,0.79,0.494,1.574,0.718,2.371
		c1.934,1.383,4.277,1.964,6.57,2.431c3.813,0.757,7.597,1.739,11.476,2.11c3.023,0.326,6.02-0.362,9.01-0.715
		c3.361-0.422,6.828-0.859,10.171-0.081c2.065,0.464,4.023,1.793,4.819,3.813c0.455,1.221,0.937,2.685,0.242,3.909
		c-0.365,0.281-0.811,0.416-1.221,0.614c0.653,2.272,0.284,4.903-1.434,6.624c-4.274,4.478-13.03,2.841-15.164-3.065
		c-0.422-0.183-0.994-0.195-1.245-0.617c-0.021-0.386-0.012-0.766,0.033-1.14c-0.659-1.817-2.215-3.182-4.035-3.763
		c-3.745-1.266-7.759-0.817-11.638-1.087c-3.415-0.198-6.567-1.664-9.881-2.368c-0.748-0.15-1.721-0.186-2.218,0.509
		c-0.485,0.799-0.56,1.823-0.281,2.712c0.527,1.796,1.128,3.595,1.263,5.478c0.105,1.718,0.892,3.352,0.688,5.101
		c-0.359,2.113,0.332,4.352-0.566,6.379c-0.398,1.066-1.326,1.856-2.416,2.158c-2.416,0.952-5.029,0.326-7.537,0.356
		c-1.586,0.015-3.287,0.009-4.678-0.865c-1.287-0.79-1.922-2.254-2.308-3.652c-0.802-3.02-0.67-6.34,0.661-9.192
		c-0.422-0.518-0.946-1.033-1.009-1.73c0.638-2.374,2.272-4.322,3.032-6.651c0.371-1.069-0.069-2.35-0.949-3.038
		c-5.37-0.97-10.659,0.997-16.002,1.266c-1.26,0-2.14,0.997-3.026,1.748c2.32-0.048,4.762,1.092,5.819,3.23
		c0.784,1.79,2.131,3.46,2.014,5.523c-0.18,1.73-1.548,3.014-2.877,3.987c-4.035,2.847-8.941,3.918-13.637,5.145
		c-5.43,1.326-10.596,3.508-15.966,5.038c-6.573,1.988-13.431,2.889-20.279,3.179h-4.933c-6.169-0.233-12.317-1.069-18.307-2.565
		c-3.517-0.889-7.094-1.826-10.231-3.7c-1.676-1.024-3.344-2.49-3.676-4.526c-0.335-1.987,1.012-3.73,2.239-5.136
		c-5.888-0.641-10.578-4.688-14.706-8.6c-3.67-3.415-6.334-7.687-9.24-11.722c-1.904-2.814-3.801-5.744-4.646-9.073
		c-0.545-1.999-0.138-4.176,0.937-5.924c0.886-1.38,2.502-2.017,4.05-2.308c0.709-2.712,3.481-3.894,5.032-6.005
		c1.036-1.344,0.79-3.191,1.685-4.598c0.329-0.62,0.814-1.248,0.697-1.994c-0.156-1.368-0.838-2.862,0.009-4.146
		c0.703-1.485,2.523-1.67,3.589-2.769c-0.356-1.236-1.497-2.559-0.587-3.834c0.79-1.485,2.616-1.131,4.005-1.26
		c0.608-1.655,1.263-3.296,2.047-4.873c-2.772-1.571-5.666-3.296-7.396-6.064c-0.754-1.122-0.805-2.499-1.03-3.784
		c2.568-3.7,5.84-6.825,8.941-10.066c4.128-4.247,7.768-8.983,10.773-14.086c1.245-2.32,2.61-4.64,3.179-7.238
		c0.473-1.655,1.155-3.239,1.781-4.837c-6.786-0.868-13.413-2.712-20.226-3.358c-1.993-0.227-4.017-0.063-5.99-0.446
		c-1.182-0.219-2.278-0.856-3.053-1.769c-0.602-1.302-0.347-2.799-0.326-4.185c0.006-1.051,0.287-2.068,0.751-3.005
		c-1.652-1.452-2.721-3.379-3.784-5.268c-3.466-4.421-6.379-9.231-9.387-13.967c-2.362-3.655-4.711-7.325-6.926-11.072
		c-2.389-3.978-4.514-8.106-6.753-12.165c-0.988-1.793-1.712-3.706-2.413-5.621c-0.844-1.545-1.691-3.511-0.79-5.211
		c1.218-1.47,2.407-3.179,4.313-3.793c2.769-1.006,5.774-0.44,8.609-0.054c6.861,0.997,13.766,1.625,20.63,2.595
		c7.582,1.051,15.143,2.359,22.794,2.805c3.739,0.236,7.756,0.515,10.884,2.811c2.095,1.362,3.388,3.583,4.463,5.774
		c0.874,1.829,1.766,3.649,2.601,5.493c1.793-1.988,4.655-2.233,7.163-2.314c5.268-0.06,9.953,2.631,14.862,4.128
		c1.53,0.449,3.029,1.024,4.592,1.353c2.853-0.018,6.136-0.236,8.214-2.463c2.383-2.487,2.281-6.262,4.298-8.977
		c-2.263-0.814-4.562-1.7-6.457-3.215c-1.173-0.94-2.176-2.293-2.182-3.855c-0.072-0.515,0.44-0.763,0.778-1.021
		c3.9-2.52,6.986-6.097,9.596-9.89c1.613-2.317,2.948-4.807,4.448-7.196c1.188-1.928,2.38-3.867,3.329-5.93
		c0.757-1.601,1.437-3.263,2.478-4.708c1.374-1.721,2.559-3.64,4.4-4.918c2.047-1.434,4.074-3.074,6.543-3.7
		c0.201-0.676,0.497-1.314,0.73-1.976c-3.754-2.649-8.297-3.855-12.784-4.535c-6.16-0.91-12.446-0.332-18.525,0.865
		c-4.116,0.829-8.124,2.161-11.928,3.936c-1.338,0.65-2.769,1.128-4.014,1.952c-8.255,5.984-17.813,10.473-27.999,11.752
		c-6.989,0.883-14.194,0.093-20.782-2.416c-13.79-5.268-25.706-15.846-31.678-29.445c-4.625-10.695-5.807-22.911-3.098-34.261
		c-3.344-0.075-6.714-2.038-8.016-5.187c-1.006-2.269-0.826-4.825-1.506-7.175c-1.5-3.763-6.01-5.214-7.375-9.088
		c-2.071-3.385-3.987-7.031-4.307-11.063v-2.721c0.389-3.781,1.688-7.504,4.05-10.509c3.098-4.029,7.699-6.864,12.689-7.812
		c4.912-0.964,10.21-0.093,14.446,2.607c-1.392-3.784-2.9-7.609-3.212-11.668c-0.135-1.245,0.144-2.535-0.272-3.745
		c-0.638-1.979-1.344-4.044-2.826-5.562c-1.164-1.203-2.862-1.772-4.514-1.721c-3.245-0.03-6.319,1.676-8.363,4.131
		c-0.449,0.724-0.596,1.586-0.949,2.359c-0.67,1.643-1.904,3.161-3.598,3.81c-1.078,0.422-2.341-0.251-2.706-1.32
		c-0.614-1.745-0.198-3.754,0.877-5.229c0.976-1.311,1.898-2.682,3.101-3.798c2.484-2.362,5.675-3.858,8.974-4.699
		c2.475-0.647,5.139-1.111,7.648-0.377c1.643,0.467,3.02,1.577,4.068,2.895c2.395,2.936,3.478,6.648,4.457,10.237
		c1.515,5.819,4.541,11.105,6.091,16.912c0.299,0.15,0.602,0.302,0.901,0.452c0.323-2.113,1.515-3.912,2.416-5.804
		c3.146-6.193,7.893-11.404,13.057-15.981c3.685-3.281,7.594-6.346,11.886-8.794c7.926-4.613,17.253-6.382,26.35-6.1
		c11.482,0.365,22.737,4.068,32.477,10.093c0.332-1.787,0.638-3.661,0.12-5.445C413.262,129.715,411.9,127.243,410.367,124.92
		 M359.622,136.731c-6.355,2.88-12.015,7.091-17.148,11.776c-1.745,1.607-3.469,3.248-5.038,5.026
		c5.298-2.646,11.312-3.17,16.798-5.301c2.622-1.021,5.343-1.985,7.558-3.775c1.272-1.003,2.32-2.293,3.739-3.104
		c-2.188,2.613-4.655,5.124-7.762,6.627c-3.616,1.727-7.399,3.113-11.282,4.11c-3.664,0.988-7.435,1.997-10.575,4.215
		c-1.242,0.925-2.493,1.91-3.349,3.224c-1.245,1.82-2.401,3.709-3.343,5.705c0.407,0.189,0.814,0.377,1.224,0.563
		c0.347-0.868,0.937-1.616,1.661-2.2c2.79-2.248,6.151-3.634,9.567-4.616c4.628-1.368,9.243-2.838,13.658-4.801
		c4.463-2.003,8.761-4.655,11.934-8.441c2.047-2.64,3.062-5.954,5.379-8.405c1.257-1.239,2.113-2.823,2.637-4.496
		C369.877,133.152,364.54,134.472,359.622,136.731 M374.867,136.552c-1.715,1.38-3.358,2.954-4.451,4.882
		c-1.976,5.594-4.095,11.309-4.173,17.316c-0.036,6.328,2.721,12.386,6.627,17.253c2.82,3.496,6.355,6.361,10.162,8.716
		c4.616,2.903,9.549,5.259,14.565,7.375c2.622,1.125,5.34,2.062,7.806,3.526c3.61,2.041,6.66,5.086,8.516,8.812
		c1.637,1.374,3.736,2.143,5.424,3.478c1.817,1.407,3.502,2.999,5.532,4.116c0.383-0.697,0.865-1.341,1.182-2.071
		c-0.482-3.885-2.688-7.271-4.864-10.426c-4.723-6.642-10.189-12.793-16.553-17.906c-4.358-3.493-8.986-6.699-12.859-10.752
		c-2.592-2.7-4.807-5.834-6.052-9.387c-0.458-1.38-0.922-2.799-0.895-4.271c0.682,3.784,2.604,7.244,5.047,10.174
		c5.196,6.169,12.278,10.246,18.504,15.245c4.119,3.266,7.675,7.181,11,11.237c3.326,4.23,6.418,8.791,8.109,13.943
		c3.867-5.864,4.544-13.2,4.116-20.046c-0.605-9.564-4.149-18.762-9.276-26.793c-4.451-6.959-10.447-12.853-17.238-17.52
		c9.89,4.684,17.789,13.069,22.695,22.782c4.068,8.043,6.235,17.035,6.31,26.048c1.245-4.981,1.545-10.198,0.973-15.299
		c-0.868-7.917-4.418-15.356-9.339-21.549c-6.436-8.091-15.191-14.17-24.748-18.017c-4.798-2.101-10.174-2.667-15.356-2.176
		c-4.247,0.422-8.66,1.991-11.324,5.499c3.047-4.816,8.962-6.678,14.377-6.974c-2.191-0.446-4.418-0.754-6.651-0.874
		C379.423,133.571,377.01,134.933,374.867,136.552 M304.228,135.977c-4.541,1.356-8.767,4.005-11.635,7.812
		c-0.245,1.299-0.221,3.041,0.886,3.942c1.805-0.353,2.544-2.338,3.571-3.652c1.084-1.227,1.85-2.724,3.131-3.778
		c2.565-2.197,6.193-3.176,9.501-2.395c2.263,0.554,4.104,2.281,5.08,4.361c0.97,1.94,1.17,4.146,1.024,6.28
		c0.47,2.766,1.305,5.463,2.236,8.106c1.272,3.535,3.02,6.885,4.164,10.47c0.82-1.197,1.604-2.449,2.751-3.373
		c-2.625-3.326-3.2-7.651-4.286-11.617c-1.072-3.712-1.871-7.534-3.541-11.039c-1.108-2.359-2.85-4.619-5.376-5.535
		C309.29,134.63,306.626,135.208,304.228,135.977 M366.088,148.842c-0.874,1.084-1.742,2.2-2.859,3.053
		c-3.619,2.796-7.639,5.101-11.958,6.618c-3.864,1.374-7.887,2.26-11.728,3.703c-2.751,1.03-5.107,2.82-7.522,4.445
		c3.08,1.652,6.223,3.197,9.462,4.511c3.589,1.482,7.265,2.871,10.479,5.089c3.834,2.676,7.28,5.906,10.198,9.558
		c1.545,1.94,2.927,4.014,4.622,5.834c1.057,1.161,2.32,2.113,3.556,3.077c3.613,2.038,7.546,3.688,11.707,4.122
		c5.178,0.572,10.426-0.287,15.58,0.59c4.604,0.838,9.186,1.955,13.506,3.781c-1.943-1.898-4.2-3.469-6.618-4.696
		c-3.876-1.883-8.16-2.751-12.006-4.705c-5.205-2.664-10.444-5.346-15.122-8.887c-3.23-2.419-6.133-5.301-8.348-8.684
		c-1.676-2.056-2.7-4.547-3.379-7.085C363.666,162.575,363.852,155.344,366.088,148.842 M300.062,166.248
		c-3.565,1.58-6.456,4.64-7.765,8.321c-1.661,4.592-1.099,9.755,0.799,14.185c2.02,3.706,6.609,4.981,8.701,8.621
		c1.428,2.446,0.697,5.475,1.871,7.998c0.787,1.542,2.64,1.838,4.164,2.161c1.718-0.91,2.736-2.712,3.191-4.544
		c1.344-4.439,2.808-8.854,4.714-13.09c2.314-5.289,4.933-10.641,5.421-16.472c0.114-0.221,0.236-0.437,0.371-0.644
		c-0.587-1.317-0.811-2.733-1.063-4.137c-3.793-1.06-7.154-3.454-11.126-3.891C306.195,164.509,302.956,164.958,300.062,166.248
		 M321.964,169.67c0.868,1.577,1.97,3.092,2.29,4.906c0.356,1.595-0.198,3.194-0.757,4.673c-1.084,2.829-1.829,5.804-1.988,8.833
		c-0.248,4.322,0.85,8.678,2.93,12.458c2.14,3.912,5.783,6.735,9.54,9.001c2.541,1.607,5.654,2.209,8.621,1.751
		c-1.796-0.314-3.589-0.739-5.163-1.7c-3.059-1.146-5.636-3.203-8.124-5.268c-1.844-1.571-3.529-3.418-4.511-5.66
		c-1.009-2.281-1.149-4.825-1.152-7.286c0.057-3.361,0.536-6.792,1.967-9.866c0.671-1.494,1.784-2.712,2.787-3.981
		c1.485-1.748,3.864-2.356,6.073-2.392c3.7-0.06,7.202,1.416,10.411,3.122c3.17,1.733,6.313,3.55,9.204,5.732
		c2.874,2.2,5.627,4.846,6.95,8.297c1.278,3.254,0.709,7.028-1.039,9.995c-1.173,1.224-2.176,2.61-3.481,3.706
		c0.431,0.102,0.859,0.207,1.29,0.314c1.542-1.44,2.963-3.014,4.628-4.319c1.58-1.134,2.622-2.826,4.119-4.056
		c-0.213,0.739-0.545,1.434-0.913,2.107c3.185-1.087,7.073-0.943,9.734,1.299c1.691,1.389,2.493,3.52,2.871,5.612
		c0.305-1.685,0.973-3.272,1.658-4.831c0.06,0.057,0.177,0.168,0.233,0.224c-0.467,1.595-0.584,3.278-0.901,4.912
		c-0.554,2.96-0.374,5.978-0.389,8.971c0.239,2.918,0.829,5.873,2.242,8.468c1.67,3.077,4.463,5.373,7.42,7.157
		c5.594,3.26,12.308,4.535,18.72,3.73c3.439-0.416,6.304-2.571,8.618-5.02c2.332-2.457,4.729-4.867,7.369-6.995
		c1.607-1.266,3.721-2.431,5.798-1.616c0.958-1.604,1.251-3.439,1.479-5.259c-2.23-0.38-4.364-1.224-6.226-2.511
		c-2.781-1.883-5.274-4.143-7.842-6.295c-1.263-1.128-2.826-1.823-4.328-2.565c-6.75-3.119-14.236-4.559-21.659-4.466
		c-4.735,0.192-9.614,0.117-14.107-1.568c-3.245-1.299-6.483-2.751-9.213-4.972c-2.284-1.284-3.598-3.625-5.145-5.639
		c-3.676-4.846-8.037-9.351-13.476-12.204c-5.765-3.041-12.111-4.816-17.834-7.947c-1.703-0.928-3.227-2.146-4.553-3.556
		C324.487,166.311,323.134,167.924,321.964,169.67 M327.04,181.26c-1.568,4.265-1.823,8.926-1.464,13.422
		c0.434,4.64,3.556,8.558,7.265,11.153c3.661,2.73,8.384,4.122,12.931,3.538c2.14-2.526,5.469-3.939,8.779-3.643
		c3.086-2.368,5.316-5.954,5.708-9.854c-0.479-4.562-4.023-7.974-7.606-10.438c-4.17-2.155-9.585-1.964-13.401,0.859
		c-1.961,1.38-3.212,3.49-4.089,5.675c0.506-2.227,1.655-4.31,3.32-5.879c2.778-2.646,6.897-3.837,10.65-2.99
		c-1.715-1.179-3.58-2.119-5.382-3.155c-2.871-1.554-5.942-3.089-9.282-3.119C331.425,176.779,328.471,178.596,327.04,181.26
		 M316.911,194.074c-1.362,4.939-2.921,9.824-4.092,14.817c-1.577,6.639-2.032,13.548-1.329,20.336
		c1.748,17.172,13.251,32.842,28.84,40.104c7.456,3.478,15.894,4.822,24.057,3.763c9.453-1.179,18.352-5.262,26.051-10.767
		c7.453-5.283,14.11-11.677,19.729-18.876c3.598-4.661,6.735-9.656,9.848-14.646c-1.562,1.5-2.945,3.191-4.619,4.577
		c-2.233,1.949-4.996,3.26-7.902,3.819c-5.22,1.009-10.617-0.012-15.547-1.826c-4.604-1.712-9.013-4.556-11.554-8.869
		c-3.284-5.499-3.837-12.135-3.49-18.4c-0.413-2.065-1.293-4.271-3.143-5.454c-2.972-1.841-7.07-1.964-9.959,0.111
		c-1.643,1.188-2.999,2.712-4.529,4.035c4.31,1.679,8.154,4.622,10.899,8.345c-3.7-1.586-6.971-4.083-10.83-5.316
		c-2.431-0.784-5.202-1.093-7.585,0.015c-3.059,1.413-5.322,4.774-4.897,8.202c0.239,2,1.571,3.628,2.948,4.999
		c2.796,2.703,6.349,4.445,9.935,5.846c4.93,1.925,10.348,4.02,15.673,2.44c-1.676,1.79-4.071,2.781-6.486,3.011
		c-3.888,0.371-7.741-0.694-11.348-2.041c-3.376-1.305-6.708-2.853-9.593-5.065c-2.086-1.616-3.96-3.667-4.819-6.208
		c-0.913-2.703-0.578-5.69,0.494-8.297c-2.661,0.482-5.451,0.272-7.959-0.763c-5.172-1.533-9.623-5.11-12.524-9.62
		c-2.685-4.244-3.679-9.375-3.541-14.344C318.641,189.982,317.776,192.032,316.911,194.074 M457.906,193.891
		c-4.906,2.679-9.234,6.271-13.446,9.917c-2.933,2.526-5.837,5.107-8.468,7.953c-1.356,1.521-2.951,2.799-4.355,4.274
		c0.446,0.907,0.374,1.934,0.347,2.915c2.431-2.781,5.268-5.178,7.63-8.025c2.589-3.077,5.199-6.175,8.345-8.707
		c4.158-3.436,8.878-6.244,14-7.971c2.107-0.647,4.52-0.919,6.558,0.09c1.601,0.775,2.511,2.49,2.733,4.2
		c0.446,3.188,0.072,6.639-1.718,9.387c-0.772,1.691-1.754,3.451-1.616,5.373c0.79-0.239,1.512-0.706,1.943-1.425
		c1.081-1.685,1.784-3.592,2.302-5.517c0.853-3.293,0.856-6.968-0.793-10.021c-1.003-1.937-2.739-3.571-4.903-4.074
		C463.531,191.568,460.499,192.529,457.906,193.891 M431.389,212.596c-0.679,0.691-1.38,1.365-2.065,2.047
		c0.407,0.332,0.82,0.662,1.236,0.994c1.212-1.979,3.182-3.302,4.595-5.113C433.82,211.037,432.365,211.489,431.389,212.596
		 M436.277,216.865c2.957-0.26,5.879,0.991,8.112,2.865c3.376,2.835,4.128,8.151,1.871,11.895
		c-2.218,3.745-6.262,6.199-10.462,7.079c1.628-1.754,4.212-2.161,5.885-3.876c1.661-1.727,2.96-3.927,3.245-6.34
		c0.353-2.832-1.416-5.585-3.786-6.998c-2.646-1.476-5.786-1.027-8.678-0.928c-0.901,0.793-1.709,1.694-2.67,2.416
		c-0.087,0.997-1.116,1.781-0.724,2.82c0.383,1.299,1.314,2.46,1.17,3.885c-0.015,3.173-2.179,5.861-4.673,7.594
		c-1.479,1.048-3.433,1.506-5.154,0.787c1.221-1.491,3.122-2.185,4.409-3.61c1.006-1.128,1.58-2.664,1.44-4.182
		c-0.09-1.317-0.59-2.559-0.745-3.864c-0.126-1.215,0.551-2.275,1.167-3.254c-1.158,0.581-2.281,1.266-3.215,2.173
		c-2.691,7.352-6.492,14.299-11.063,20.657c-0.278,0.359-0.398,0.802-0.524,1.233c1.063,1.009,2.062,2.446,3.679,2.478
		c1.853-0.087,3.287-1.443,4.646-2.556c2.434-2.128,5.609-3.266,8.803-3.55c3.361-0.251,6.723-0.859,9.881-2.068
		c3.607-1.688,6.882-4.227,9.106-7.558c2.61-3.819,3.457-8.722,2.553-13.233c-0.608-2.963-2.083-5.84-4.484-7.741
		c-1.368-1.057-3.134-1.179-4.708-1.742C439.761,213.207,438.055,215.072,436.277,216.865 M420.056,251.841
		c-1.862,1.137-4.014,2.359-6.277,1.847c-1.904-0.5-3.673-1.559-4.927-3.083c-2.523,3.185-5.313,6.157-8.229,8.986
		c6.358-2.122,13.039-3.454,19.765-3.32c5.559,0.105,11.189,0.961,16.313,3.2c3.852,1.694,7.441,4.382,9.447,8.157
		c0.662,1.365,1.916,2.287,3.02,3.278c1.416,1.248,3.355,2.011,5.247,1.556c1.14-2.047,2.796-3.834,3.454-6.124
		c0.383-1.515,0.347-3.221-0.425-4.61c-4.077-3.352-8.525-6.307-13.281-8.621c-5.256-2.511-10.854-4.194-16.355-6.061
		C424.585,247.27,422.442,250,420.056,251.841 M458.436,257.98c0.296,0.266,0.596,0.533,0.898,0.799
		c1.311,0.183,2.688,0.635,3.514,1.733c0.697,0.871,0.775,2.086,0.404,3.113c-1.018,2.954-3.278,5.274-5.714,7.133
		c-0.745,0.425-0.641,1.556-0.048,2.062c1.012,0.913,1.368,2.269,1.724,3.532c1.009,3.694,2.344,7.337,2.655,11.183
		c0.527-1.853,1.116-3.691,1.961-5.424c0.757-1.781,1.739-3.514,1.997-5.457c0.584-3.433,1.09-6.965,0.464-10.432
		c-0.479-2.703-1.748-5.172-3.107-7.525C461.585,258.57,460.023,258.184,458.436,257.98 M460.594,260.043
		c0.473,0.715,0.952,1.431,1.365,2.185C462.331,261.201,461.588,260.276,460.594,260.043 M439.6,267.499
		c-0.263,1.449-0.15,2.93-0.201,4.397c0.012,4.104-0.168,8.232,0.219,12.317c0.775-4.687,3.562-9.1,7.678-11.545
		c-0.748-0.82-1.236-1.85-2.062-2.601c-1.646-1.545-3.341-3.044-5.151-4.397C439.357,266.041,439.447,266.822,439.6,267.499
		 M435.9,269.537c-1.128,3.508-2.553,6.941-3.182,10.587c-0.662,3.912-1.392,7.812-1.934,11.743c0.997-0.12,1.997-0.233,2.999-0.314
		c0.784-6.415,2.454-12.674,4.044-18.927c0.21-1.305,0.021-2.643,0.18-3.957C437.301,268.948,436.597,269.235,435.9,269.537
		 M428.572,274.045c-0.275,1.057-0.766,2.038-1.182,3.044c-2.191,5.139-4.58,10.213-7.543,14.96
		c-1.838,3.035-4.17,5.741-6.714,8.208c-1.655,1.691-3.403,3.523-5.807,4.065c1.299,2.443,3.763,3.999,6.331,4.834
		c4.011,1.323,8.276,1.503,12.461,1.733c0.572-9.59,0.691-19.438,4.05-28.568c0.087-0.153,0.26-0.455,0.347-0.608l-0.171,0.817
		c0.141-0.036,0.425-0.108,0.569-0.144c-0.126-1.03,0.165-2.044,0.314-3.053c0.548-3.161,1.485-6.295,3.197-9.028
		C432.359,271.366,430.614,272.938,428.572,274.045 M468.955,271.941c-0.239,3.155-1.296,6.184-2.664,9.016
		c-1.362,2.811-3.131,5.406-4.481,8.223c-2.23-2.454-2.496-5.915-3.284-8.986c-0.706,2.553-1.904,4.975-3.604,7.016
		c0.587,0.404,0.233,0.919-0.093,1.359c1.482,0.745,1.982,2.469,2.128,4.002c0.281,3.059-0.212,6.124-0.751,9.13
		c-0.862,5.277-2.356,10.417-3.915,15.52c-0.784,2.718-1.733,5.403-2.206,8.199c-0.335,1.832-0.18,3.712-0.47,5.55
		c2.96-0.365,5.924-0.868,8.917-0.808c0.509-1.976,1.353-3.858,1.607-5.897c0.533-3.619,1.616-7.121,2.245-10.719
		c0.736-5.96,1.781-11.874,2.948-17.759c0.099-0.425,0.266-0.826,0.428-1.227c-0.308-0.216-0.988-0.272-0.865-0.787
		c0.212-0.841,0.659-1.595,1.009-2.38c0.233-0.027,0.694-0.078,0.925-0.105c-0.629-6.076,2.128-11.719,4.107-17.286
		C470.37,273.243,469.538,272.698,468.955,271.941 M449.684,275.674c-0.907,0.09-1.781-0.263-2.395-0.925
		c-0.997,0.718-2.116,1.425-2.736,2.511c0.003,1.754,0.991,3.299,1.979,4.675c1.521,1.994,3.086,3.975,4.981,5.633
		c1.111-0.069,2.203-0.284,3.308-0.407c1.446-3.176,2.143-6.684,2.143-10.171c-0.096-1.326-0.201-2.73-0.91-3.894
		C454.195,274.461,452.01,275.509,449.684,275.674 M447.807,274.455c1.883,1.311,4.283,0.207,6.127-0.656
		C451.908,274.249,449.753,273.659,447.807,274.455 M475.399,274.231c2.966,1.895,6.31,3.173,9.073,5.394
		c1.56,1.356,3.478,2.251,4.849,3.834c2.317,2.571,4.849,4.957,6.977,7.693c2.631,3.532,4.675,7.45,7.205,11.051
		c1.311,1.859,2.598,3.757,3.475,5.87c1.266,0.111,0.724,1.473,0.216,2.131c-1.874,2.58-5.08,3.637-8.019,4.469
		c0.808,1.835,0.793,3.879,0.706,5.846c1.096,0.311,2.239,0.413,3.376,0.356c2.505-0.078,4.999,0.41,7.504,0.26
		c1.422-0.434,2.604-1.482,3.385-2.727c1.533-2.466,2.308-5.31,2.763-8.154c0.952-5.28,1.506-10.623,1.895-15.969
		c0.275,1.194,0.227,2.437,0.335,3.655c0.377,6.316,0.398,12.838-1.748,18.876c-0.347,1.099-0.973,2.071-1.563,3.05
		c0.793-0.491,1.718-0.979,2.059-1.91c2.026-4.708,2.577-9.875,2.781-14.948c0.192-4.643,0.76-9.405-0.494-13.952
		c-0.62-1.631-1.557-3.167-2.793-4.406c0.892,3.044,1.545,6.223,1.347,9.411c-0.422-4.388-2.466-8.48-5.02-12.009
		c-0.994-1.524-2.814-2.053-4.394-2.736c-6.603-2.422-13.622-3.352-20.567-4.203C484.319,274.551,479.856,274.398,475.399,274.231
		 M467.299,291.251c0.919,0.042,1.838,0.117,2.76,0.192c0.344-1.757,0.536-3.547,1.125-5.247c1.116-3.364,1.967-6.807,2.871-10.231
		c-0.673-0.434-1.353-0.859-2.023-1.29C470.191,280.122,468.598,285.65,467.299,291.251 M434.789,291.553
		c0.413,0.162,1.23,0.317,1.003,0.967c-0.15,0.826-0.254,1.658-0.41,2.484c-0.081,0.488-0.679,0.41-1.027,0.512
		c-0.404,3.858-0.772,7.72-1.161,11.578c-0.293,2.948-0.141,5.969-0.976,8.839c-0.263,0.919-0.242,1.883-0.317,2.829
		c0.838-0.233,1.703-0.395,2.58-0.341c-1.398,1.811-3.837,2.056-5.717,3.134c-4.592,2.853-9.168,5.96-12.533,10.258
		c-2.541,3.311-4.711,6.923-6.268,10.803c-0.973,2.392-1.377,4.963-2.188,7.408c-0.32,0.91-0.404,1.877-0.545,2.829
		c1.206,0.177,2.407,0.407,3.583,0.733c1.712-1.889,3.119-4.02,4.741-5.978c0.967-0.952,1.871-2.11,3.248-2.463
		c2.401-0.638,4.828-1.35,6.959-2.667c-0.907-0.06-1.835-0.141-2.67-0.527c-2.464-1-4.017-3.873-3.448-6.474
		c0.245-1.215,1.32-1.925,2.179-2.697c0.611,0.754,1.308,1.491,2.257,1.811c2.125,0.772,4.445,0.455,6.624,0.108
		c0.374-2.697,1.784-5.089,3.296-7.301c2.9-4.218,5.891-8.396,8.351-12.895c2.302-4.194,4.415-8.528,5.732-13.141
		c1.179-4.173,1.577-8.516,2.571-12.73c-1.473-0.775-2.673-1.949-3.703-3.239c-1.548-1.958-3.02-4.014-3.948-6.346
		c-2.017,3.245-3.652,7.013-3.242,10.911c-0.53-0.509-0.632-1.257-0.817-1.931c-0.94-3.912-0.841-7.968-0.838-11.961
		C436.579,281.124,435.409,286.3,434.789,291.553 M474.729,276.35c-0.497,4.053-1.491,8.049-2.978,11.85
		c-0.284,1.14-0.38,2.323-0.635,3.472c0.5,0.79,0.706,1.751,0.865,2.655c-0.374,0.545-1.239,0.263-1.82,0.404
		c-1.967,4.616-1.506,9.734-2.281,14.592c-0.608,3.769-0.907,7.573-1.41,11.354c-0.353,2.727-1.003,5.4-1.488,8.1
		c4.768-1.075,9.671-1.574,14.332-3.101c0.404-9.264,0.165-18.555-0.647-27.79c-0.036-0.455-0.168-0.889-0.329-1.308
		c-0.907-2.353-1.7-4.801-1.802-7.34c0.946,1.314,1.652,2.772,2.428,4.188c0.084-1.859,0.47-3.694,1.203-5.406
		c-0.063,1.703-0.32,3.406-0.108,5.11c0.335,3.876,2.308,7.301,3.679,10.866c1.233,3.032,2.547,6.376,1.628,9.68
		c1.176-0.042,2.356-0.021,3.535,0c5.645,0.242,11.258-1.455,16.149-4.203c-1.619-1.323-2.496-3.254-3.607-4.972
		c-1.694-2.703-3.32-5.448-4.927-8.202c-2.32-3.942-5.071-7.615-8.016-11.108c-0.922-1.266-2.556-1.796-4.059-1.922
		c-1.589-0.129-2.85,0.928-4.197,1.565c0.844-2.068,3.083-3.206,5.256-3.11C482.029,279.703,478.264,278.251,474.729,276.35
		 M430.311,282.756c-1.946,8.402-1.889,17.089-1.931,25.664c0.551-4.176,0.787-8.387,1.188-12.578
		c0.135-0.41-0.257-0.659-0.446-0.952c-0.105-1.263,0.7-2.329,0.841-3.55c0.296-2.835,0.398-5.69,0.781-8.519
		C430.635,282.807,430.419,282.774,430.311,282.756 M451.184,288.97c0.877,5.675-0.449,11.428-2.407,16.741
		c-1.805,4.864-4.262,9.459-7.106,13.79c-3.161,4.9-6.63,9.623-9.261,14.844c5.232-1.395,10.548-2.457,15.915-3.2
		c-0.889-3.484-0.036-7.076,0.769-10.485c1.44-5.612,3.466-11.063,4.67-16.738c0.653-3.089,1.341-6.226,1.245-9.402
		c-0.389,1.841-0.781,3.694-1.503,5.442c-0.153,0.329-0.359,1.072-0.868,0.653c-0.219-0.587,0.29-1.152,0.428-1.709
		c1.269-3.14,2.484-6.804,0.886-10.057C453.039,289.021,452.105,289.098,451.184,288.97 M466.291,291.834
		c-0.045,0.59-0.138,1.179-0.26,1.763c1.449-0.156,2.909-0.018,4.358-0.147c0.069-0.242,0.126-0.485,0.174-0.73
		C469.131,292.46,467.671,292.304,466.291,291.834 M430.644,292.945c-0.033,0.236-0.093,0.712-0.126,0.949
		c1.009-0.135,2.02-0.21,3.038-0.192c0.021-0.216,0.063-0.641,0.081-0.853C432.637,292.888,431.64,292.924,430.644,292.945
		 M466.764,294.63c-0.925,1.853-0.805,3.972-1.099,5.972c-1.03,6.103-2.041,12.213-3.029,18.322
		c-0.587,3.754-0.647,7.705-2.38,11.168c1.224-0.422,2.475-0.766,3.736-1.081c0.985-6.84,2.457-13.607,3.155-20.486
		c0.542-4.616-0.069-9.593,2.23-13.826C468.506,294.678,467.635,294.651,466.764,294.63 M430.35,295.51
		c-0.7,7.396-0.644,14.871-1.868,22.216c-0.108,0.784-0.353,1.539-0.572,2.299c1.015-0.362,2.035-0.709,3.08-0.976
		c0.362-1.661,0.817-3.308,0.985-5.002c0.614-6.205,0.853-12.44,1.41-18.648C432.374,295.45,431.362,295.498,430.35,295.51
		 M306.081,301.26c-0.841,1.167-2.152,1.835-3.158,2.832c-0.275,0.23-0.269,0.623-0.377,0.94c0.596-0.733,1.344-1.368,2.299-1.551
		c2.709-0.997,5.57-0.144,8.345-0.06c6.831,0.314,13.569,1.53,20.357,2.257c6.897,0.668,13.868,0.772,20.69,2.095
		c2.939,0.605,5.972,0.862,8.809,1.898c1.721,0.437,3.553,0.841,4.9,2.086c1.096,0.847,1.631,2.155,2.484,3.209
		c1.787,2.101,2.715,4.744,3.879,7.211c2.356,5.439,4.577,10.943,7.319,16.209c2.721,5.274,5.095,10.74,6.768,16.445
		c0.371,1.556,1.395,2.829,1.934,4.322c0.733,1.982,2.08,3.718,2.454,5.834c0.347-0.32,0.682-0.653,1.021-0.979
		c-4.421-9.312-8.055-18.968-12.341-28.34c-2.392-5.238-4.538-10.587-7.016-15.784c-1.769-3.742-3.02-8.007-6.304-10.755
		c-0.398-0.308-0.811-0.641-1.326-0.703c-9.827-1.79-19.798-2.595-29.687-3.972c-5.065-0.7-10.168-1.054-15.236-1.712
		C316.645,302.116,311.403,300.548,306.081,301.26 M304.073,307.178c0.248,1.814,1.164,3.442,2.071,5.002
		c3.55,5.855,6.642,11.988,10.456,17.687c4.646,7.067,9.815,13.937,12.823,21.92c1.533,2.954,4.523,5.014,7.759,5.675
		c6.229,1.272,12.59,1.694,18.867,2.658c11.563,1.664,23.108,3.502,34.638,5.364c-0.108-0.925-0.461-1.781-0.814-2.631
		c-0.458-1.075-0.694-2.227-1.194-3.281c-1.616-3.442-2.99-6.989-4.514-10.473c-2.056-4.798-4.687-9.321-6.867-14.059
		c-1.955-4.388-3.703-8.86-5.564-13.284c-0.967-2.257-1.826-4.616-3.364-6.561c-0.961-1.242-2.317-2.071-3.55-3.011
		c-0.889-0.706-2.005-1.012-3.083-1.296c-7.238-1.365-14.598-1.889-21.926-2.544c-5.4-0.425-10.773-1.137-16.122-2.003
		c-3.49-0.581-7.004-0.967-10.518-1.359c-2.601-0.287-5.124-1.197-7.756-1.164C304.321,304.523,303.887,305.933,304.073,307.178
		 M481.865,305.984c0.428,4.792,0.278,9.614,0.335,14.422c2.167,0.365,4.379,0.721,6.567,0.242c0.021-1.634-0.186-3.26-0.204-4.891
		c-1.254-0.174-2.547-0.305-3.715-0.832c-0.889-0.757-1.17-1.958-1.452-3.038C482.999,309.89,482.568,307.893,481.865,305.984
		 M417.129,311.883c-0.691,2.514-1.802,4.915-3.278,7.067c-1.524,2.296-3.831,4.218-6.609,4.673
		c-1.904,0.398-3.813-0.147-5.726-0.099c-4.529-0.254-8.468-2.811-12.823-3.804c-3.005-0.724-6.172-0.709-9.18-0.015
		c-0.991,0.308-1.829,0.949-2.568,1.655c1.913,4.301,3.718,8.651,5.499,13.006c1.051-1.904,2.586-3.469,3.766-5.286
		c0.491-0.736,0.862-1.551,1.407-2.248c0.159,0.742,0.147,1.503,0.018,2.248c1.562,3.146,4.819,5.771,8.48,5.502
		c2.52-0.114,5.517-0.808,6.69-3.317c-1.093,0.356-2.2,0.751-3.361,0.79c-2.104,0.129-4.179-0.706-5.798-2.008
		c-1.733-1.443-2.844-3.825-2.275-6.082c0.266,0.778,0.572,1.548,0.934,2.29c6.525,1.994,13.545,3.314,20.321,1.859
		c0.964-0.111,1.682-0.862,2.137-1.667c1.964-3.481,3.843-7.058,4.924-10.925c0.275-0.991,0.635-1.958,1.084-2.88
		C419.539,312.464,418.326,312.198,417.129,311.883 M423.259,312.793c-0.548,1.23-1.296,2.368-1.733,3.649
		c-0.928,2.625-2.065,5.184-3.523,7.561c-0.668,0.919-0.661,2.164-1.47,3.002c-0.928,1.03-1.823,2.383-3.311,2.565
		c-0.925,0.183-1.793,0.578-2.724,0.724c-3.101,0.521-6.232-0.021-9.318-0.377c-2.814-0.38-5.747-0.883-8.106-2.574
		c0.781,1.11,1.811,2.053,3.023,2.67c2.116,0.973,4.52,0.97,6.804,0.877c0.093,0.871,0.428,1.871-0.201,2.631
		c-1.066,1.383-2.829,1.946-4.448,2.377c-2.981,0.835-6.295,0.075-8.731-1.79c-1.236-0.937-2.083-2.326-2.353-3.852
		c-1.374,2.116-2.96,4.14-3.661,6.606c1.943,4.607,3.966,9.177,5.96,13.763c0.626-0.027,1.266-0.135,1.88,0.051
		c1.374,0.326,2.802,0.236,4.188,0.497c3.227,0.518,6.442,1.122,9.701,1.422c0.12-0.659,0.221-1.32,0.207-1.985
		c-0.018-2.592,0.838-5.089,1.82-7.45c2.077-4.81,4.598-9.495,8.085-13.437c2.927-3.308,6.259-6.322,10.135-8.48
		c0.317-2.939,0.239-5.897,0.539-8.836C425.109,312.599,424.187,312.73,423.259,312.793 M490.183,315.84
		c0.994,2.544,0.703,5.319,0.464,7.971c0.335,0.26,1.134,0.323,0.868,0.913c-0.895,0.159-1.757,0.416-2.61,0.715
		c-1.44,0.036-2.799,0.524-4.179,0.88c-6.13,1.7-12.165,3.927-18.519,4.658c-7.094,0.506-14.149,1.494-21.163,2.661
		c-6.043,0.949-11.907,3.212-18.094,3.071c-1.952-0.066-4.173-0.165-5.609-1.679c-0.162,1.284-0.296,2.76,0.608,3.819
		c1.473,1.898,4.221,2.122,6.355,1.395c0.835-0.572,1.667-1.188,2.688-1.389c-1.574,3.757-5.313,6.175-9.121,7.232
		c-1.329,0.428-2.775,0.278-4.08,0.775c-1.347,1.06-2.314,2.505-3.287,3.894c-1.027,1.467-1.88,3.137-3.385,4.188
		c0.111,0.596,0.464,1.242,1.173,1.203c1.991,0.024,3.727-1.2,5.122-2.508c1.293-1.571,2.368-3.499,4.325-4.343
		c2.859-1.173,5.69-2.413,8.432-3.846c1.592-0.766,2.61-2.278,3.825-3.499c-0.111,3.344-3.05,5.454-5.582,7.121
		c-4.493,2.832-7.561,7.39-12.066,10.207c0.057,0.647,0.302,1.404,1.048,1.524c2.038,0.326,4.053-0.629,5.666-1.805
		c1.2-0.904,2.526-1.655,3.592-2.727c1.494-1.449,3.332-2.452,5.095-3.523c1.652-1.006,3.146-2.242,4.684-3.403
		c0.844-0.67,1.925-1.149,2.311-2.239c0.069,0.117,0.21,0.353,0.281,0.47l0.596-0.305c-0.802,2.068-2.047,3.996-3.846,5.328
		c-2.553,2.011-5.107,4.044-7.378,6.379c-1.155,1.197-2.275,2.475-2.921,4.029c0.679,0.485,1.539,0.784,2.368,0.485
		c1.94-0.641,3.314-2.254,4.804-3.562c0.955-0.778,1.467-1.949,2.386-2.76c2.454-2.326,5.594-3.709,8.588-5.187
		c0.482-0.227,0.901-0.566,1.287-0.928c0.509,1.712,0.817,3.511,0.545,5.298c-0.177,1.859-1.036,3.547-1.473,5.343
		c-0.557,1.422-1.275,3.092-2.895,3.529c0.18,0.374,0.275,0.967,0.823,0.946c2.161-0.165,3.574-2.077,4.646-3.757
		c0.787-1.47,1.772-2.939,1.835-4.658c0.353-2.67-0.275-5.645,1.284-8.028c1.586-2.173,4.415-2.649,6.684-3.807
		c2.173-0.715,3.652-2.559,4.96-4.334c1.527-2.083,2.637-4.43,3.601-6.813c0.153,0.458,0.251,0.922,0.359,1.401
		c3.173-2.092,7.115-2.14,10.761-2.574c4.771-0.667,9.608-1.045,14.272-2.323c1.628-0.431,3.37-0.727,4.762-1.745
		c1.359-1.015,1.527-2.874,1.787-4.418c0.605-3.314,0.266-6.687,0.353-10.027C494.897,315.547,492.545,315.867,490.183,315.84
		 M482.101,323.521c-0.015,0.395-0.03,0.796-0.039,1.2c0.584-0.195,1.173-0.38,1.766-0.554
		C483.245,323.967,482.67,323.755,482.101,323.521 M499.528,325.033c-0.338,2.344-0.988,4.972-3.071,6.382
		c0.377,5.981-1.745,11.695-3.302,17.367c-1.44,5.086-3.433,10.021-6.088,14.598c1.048,0.44,2.077,0.931,3.089,1.455
		c1.236-1.533,2.011-3.367,2.619-5.223c0.928-2.883,1.946-5.735,2.778-8.648c1.131-3.834,1.94-7.756,2.784-11.659
		c0.976-4.673,1.895-9.36,2.493-14.098C500.504,325.164,499.854,325.075,499.528,325.033 M481.242,335.117
		c0.437,3.062,0.335,6.166,0.063,9.24c-0.518,5.624-0.934,11.276-2.074,16.819c1.97,0.254,3.825,1.003,5.762,1.425
		c3.361-5.463,5.657-11.512,7.28-17.699c1.209-4.164,2.308-8.375,2.709-12.706C490.626,334.022,485.861,334.411,481.242,335.117
		 M465.138,337.452c-0.491,2.496-1.952,4.628-3.415,6.645c-0.575,4.128-1.093,8.294-2.299,12.305
		c1.12-0.048,2.149,0.922,1.464,2.074c0.192,0.09,0.383,0.186,0.578,0.284c2.93-0.569,5.957-0.479,8.881-1.128
		c2.616-0.506,5.151-1.583,7.151-3.376c0.458-3.807,0.874-7.624,0.97-11.461c0.069-2.472,0.156-4.957,0.653-7.387
		C474.468,336.114,469.619,335.832,465.138,337.452 M457.161,347.895c-0.865,2.76-0.676,5.72-1.479,8.486
		c0.982-0.03,1.967-0.051,2.951-0.042c0.943-3.673,1.32-7.453,2.098-11.159C459.649,346.225,458.394,347.051,457.161,347.895
		 M452.8,350.407c-1.527,0.901-1.649,2.835-2.299,4.316c-0.53,1.149-0.769,2.389-0.76,3.649c1.021-0.06,2.047-0.09,3.074-0.087
		c0.12-0.308,0.239-0.614,0.362-0.916c-0.075-0.129-0.23-0.389-0.305-0.518c0.587-0.224,1.203-0.365,1.829-0.44
		c0.751-2.583,0.599-5.298,1.096-7.923C454.641,348.859,453.824,349.799,452.8,350.407 M419.467,352.412
		c-0.407,0.898-0.772,1.823-1.383,2.61c0.44,0.045,0.883,0.093,1.326,0.15c1.47-1.862,3.053-3.643,4.882-5.16
		C422.553,350.458,420.694,351.023,419.467,352.412 M389.86,351.622c0.802,1.667,1.467,3.394,2.224,5.083
		c2.356-0.195,4.484,0.994,6.741,1.437c4.58,0.919,9.321,0.928,13.829,2.23c-0.584,0.233-1.224,0.183-1.832,0.141
		c-3.733-0.308-7.408-1.03-11.084-1.703c-2.577-0.419-4.933-1.748-7.567-1.901c0.347,0.931,0.709,1.862,1.051,2.799
		c4.218,0.323,8.357,1.278,12.539,1.898c2.35-0.347,4.678-0.961,7.073-1.015c0.404,0.057,0.787,0.189,1.149,0.392
		c-6.322,0.712-12.512,2.682-18.921,2.49c0.078,0.233,0.236,0.7,0.314,0.934c-0.09,0.263-0.269,0.787-0.359,1.051
		c4.167-1.727,8.767-1.341,13.134-2.095c2.646-0.455,5.286-0.937,7.938-1.371c-1.245-0.82-0.73-2.559,0.105-3.472
		c1.099-0.311,1.568-1.509,2.332-2.26c-0.35-0.168-0.7-0.338-1.048-0.506c-1.64,1.79-4.475,2.814-6.702,1.497
		c-0.919-0.515-0.997-1.667-0.682-2.565c-4.113-0.12-8.109-1.176-12.135-1.91c-2.143-0.389-4.268-0.892-6.316-1.64
		C391.081,351.401,390.471,351.526,389.86,351.622 M436.861,357.42c2.176-0.021,4.376-0.284,6.537,0.069
		c0.242-1.485,0.377-2.987,0.626-4.469C441.925,354.924,439.124,355.741,436.861,357.42 M426.606,357.327
		c0.428,0.123,0.859,0.26,1.29,0.389c0.859-0.895,1.724-1.781,2.613-2.643C429.168,355.753,427.875,356.525,426.606,357.327
		 M460.529,358.899c-0.323,0.85-0.787,1.64-1.398,2.317c-0.06,0.434-0.018,1.113-0.608,1.173c-1.536,0.23-3.104,0.266-4.643,0.063
		c-0.419-0.045-0.961-0.009-1.146-0.485c-0.126-0.79,0.045-1.589,0.036-2.383c-1.051-0.147-2.089-0.38-3.092-0.715
		c-0.596,2.924-2.131,5.726-4.532,7.546c-0.913,0.668-2.032,1.329-3.209,1.048c-1.099-0.221-2.104-1.317-1.85-2.484
		c0.32-0.991,1.024-1.781,1.583-2.634c0.772-1.197,1.194-2.574,1.524-3.948c-2.311,0.227-4.631-0.198-6.914-0.488
		c-0.374,0.281-0.706,0.608-0.991,0.982c0.608,0.072,1.443-0.506,1.895,0.12c0.281,0.467-0.096,0.988-0.12,1.482
		c-0.036,0.76,0.018,1.521,0.015,2.284c1.278-0.407,2.619-0.515,3.951-0.581c-1.26,0.883-2.673,1.536-3.897,2.466
		c0.045,0.599,0.566,1.329,0.012,1.835c-1.209,0.91-2.853,0.494-4.224,0.937c-1.38,0.479-2.778,0.901-4.209,1.197
		c-4.873,1.036-9.788,1.859-14.664,2.868c-5.561,1.203-11,3.233-16.741,3.379c-5.136,0.464-10.195-0.841-15.227-1.634
		c-1.254,0.736-2.059,2.104-2.538,3.442c0.06,3.939,2.496,7.241,4.152,10.659c3.047,6.337,4.879,13.2,6.061,20.109
		c0.964,6.208,1.087,12.805-1.38,18.699c1.901,1.152,4.194,0.682,6.283,0.563c8.615-0.38,17.169-3.906,23.099-10.249
		c-2.026-0.575-3.969-1.503-5.568-2.886c-2.969-2.523-4.816-6.085-6.157-9.683c-0.814-2.487-2.41-4.604-3.502-6.962
		c-1.072,2.44-2.365,4.792-3.074,7.375c0.221-2.871,1.048-5.654,1.676-8.456c0.254-1.293,0.371-2.61,0.673-3.894
		c-0.344-0.611-0.703-1.215-1.054-1.82c-2.428,0.877-5.448,0.961-7.483-0.847c2.308,0.386,4.747,0.228,6.876-0.808
		c0.305-0.757,0.853-1.377,1.563-1.778c-2.508-0.688-4.241-3.113-4.678-5.603c0.614,0.874,1.332,1.685,2.257,2.239
		c1.26,0.769,2.568,1.73,4.125,1.622c0.281-0.347,0.572-0.685,0.877-1.009c-1.392-1.227-2.631-2.667-3.373-4.379
		c2.128,1.395,4.104,3.041,6.412,4.149c0.841,0.395,1.646,0.865,2.38,1.437c0.913-1.335,2.772-1.521,4.113-0.742
		c2.631,1.488,5.759,1.057,8.642,0.898c6.588-0.323,13.152-1.066,19.747-1.269c5.906-0.227,11.877-0.338,17.657-1.712
		c3.643-0.868,7.331-2.278,9.98-5.026c1.518-1.518,2.472-3.478,3.185-5.478c-0.673,0.727-1.287,1.509-1.982,2.215
		c-3.412,3.52-8.172,5.585-13,6.13c4.577-0.745,8.609-3.472,11.719-6.819c2.58-2.748,4.376-6.127,5.726-9.62
		c0.973-2.176,1.272-4.565,1.598-6.9C472.11,359.782,466.063,359.315,460.529,358.899 M454.231,357.606
		c0.135,1.176,0.21,2.359,0.224,3.544c1.284,0.018,2.562-0.129,3.843-0.207c0.371-1.084,0.766-2.161,0.982-3.29
		C457.601,357.474,455.916,357.57,454.231,357.606 M423.759,360.416c0.665-0.189,1.341-0.32,2.005-0.5
		c0.443-0.29,0.739-0.754,1.111-1.125c-0.374-0.183-0.748-0.365-1.119-0.545C425.166,359.036,424.501,359.767,423.759,360.416
		 M333.185,358.225c-0.515,1.817-0.129,3.727-0.521,5.565c3.358,1.64,7.223,0.82,10.806,1.302c6.837,1.06,13.637,2.347,20.498,3.245
		c5.72,0.766,11.443,1.515,17.137,2.463c4.05,0.584,8.169,0.91,12.084,2.161c-0.239-1.993,0.024-3.993,0.165-5.981
		c-0.512,0.033-0.967,0.284-1.449,0.431c-1.676,0.419-3.373-0.048-5.059-0.09c-4.469-0.204-8.731-1.721-13.149-2.287
		c-11.575-1.616-23.102-3.574-34.713-4.933C336.951,359.857,334.931,359.327,333.185,358.225 M393.213,359.713
		c0.395,1.233,1.057,2.356,1.7,3.475c3.083-0.635,6.244-0.754,9.333-1.338C400.483,361.629,396.897,360.368,393.213,359.713
		 M433.439,360.641c-1.036,1.91-2.634,3.622-4.741,4.319c-1.521,0.578-3.385,0.102-4.412-1.164c-0.23-0.745,0.186-1.461,0.434-2.134
		c-1.356,0.227-2.748,0.222-4.089,0.548c-8.333,2.446-16.999,3.367-25.53,4.861c0.248,1.931,0.096,3.912,0.605,5.813
		c2.053-0.308,4.098-0.68,6.136-1.084c0.087-1.26,0.03-2.523-0.093-3.778c5.445-1.251,10.934-2.314,16.412-3.406l-0.099-0.272
		c0.257,0.201,0.53,0.386,0.805,0.572c0.114,1.093,0.138,2.194,0.263,3.29c3.604-0.62,7.205-1.266,10.797-1.955
		c1.748-0.422,3.583-0.434,5.262-1.122c-0.159-1.553,0.272-3.071,0.425-4.604C434.891,360.569,434.164,360.605,433.439,360.641
		 M478.752,363.505c-0.877,4.071-1.871,8.175-3.789,11.898c4.212-0.901,9.129-0.895,12.68,1.865
		c-5.011-1.179-10.632-1.054-15.158,1.607c4.487-0.371,9.285,0.467,12.976,3.161c-1.398-0.347-2.766-0.823-4.182-1.105
		c-3.745-0.85-7.747-0.868-11.389,0.44c-0.925,0.584-1.823,1.218-2.79,1.739c0.021,0.057,0.063,0.171,0.084,0.23
		c1.805,1.257,3.454,3.065,3.751,5.325c-1.218-2.215-3.263-3.969-5.693-4.705c-7.792,3.044-16.298,2.598-24.491,3.137
		c-3.047,0.353-5.657,2.191-7.842,4.233c0.844-1.557,2.128-2.805,3.466-3.936c-2.236,0.117-4.388,1.045-6.175,2.368
		c-1.048,0.751-1.79,1.817-2.637,2.775c0.449-1.88,1.7-3.406,3.077-4.699c-3.332,0.278-6.675,0.344-10.01,0.569
		c0.207,1.134,0.602,2.251,1.245,3.215c2.646,1.422,5.774,1.326,8.686,1.628c3.086,0.254,6.166,0.572,9.261,0.712
		c5.184,0.228,10.369,0.602,15.562,0.452c1.742,0.036,3.535-0.078,5.229,0.41c-2.296,0.545-4.664,0.691-7.01,0.886
		c-5.879,0.389-11.776,0.162-17.645-0.254c-3.604-0.272-7.265-0.15-10.8-0.994c2.164,1.284,4.69,1.76,7.145,2.152
		c4.583,0.623,9.216,0.371,13.823,0.536c6.193,0.132,12.419,0.213,18.57-0.623c7.72-1.003,15.466-2.906,22.249-6.837
		c1.568-0.745,2.838-1.949,4.074-3.137c1.248-1.245,2.434-2.583,3.272-4.14c-1.368,1.766-2.939,3.379-4.688,4.777
		c-2.526,1.934-5.412,3.349-8.333,4.58c-5.34,2.149-11.207,3.346-16.96,2.589c2.419-0.353,4.873-0.512,7.262-1.081
		c6.058-1.263,11.847-3.834,16.777-7.585c2.607-1.916,4.699-4.526,5.939-7.519c0.65-1.607,0.814-3.448,0.353-5.125
		c-1.455-2.565-3.846-4.433-6.259-6.049C485.537,365.062,482.308,363.308,478.752,363.505 M412.938,366.083
		c-3.637,0.383-7.097,1.718-10.737,2.053c0.458,1.09,0.617,2.272,0.617,3.451c5.13-1.036,10.213-2.317,15.376-3.188
		c-0.003-1.215-0.12-2.475,0.332-3.634C416.692,365.325,414.857,365.9,412.938,366.083 M363.205,370.339
		c-1.149,0.916-1.826,2.293-2.32,3.646c-1.039,6.256-4.463,11.758-8.091,16.828c-3.269,4.634-7.1,8.845-11.255,12.697
		c-1.353,1.251-2.903,2.29-4.622,2.975c1.108,2.185,2.915,3.924,4.93,5.28c3.93,2.61,8.537,4.295,13.269,4.517
		c3.059,0.198,6.124-0.102,9.183,0.054c0.087,0.099,0.26,0.293,0.347,0.392c-0.751,1.374-2.239,2.146-3.712,2.502
		c-2.999,0.667-6.106,0.216-9.07-0.428c-1.29,1.868-1.958,4.068-3.095,6.019c0.769,0.44,1.556,0.862,2.272,1.398
		c0.506,0.685,0.736,1.766,0.147,2.475c-0.635,0.829-1.775,1.063-2.407,1.88c-0.407,1.048,0.653,2.104,0.198,3.155
		c-0.302,0.97-0.997,1.745-1.757,2.395c-1.799,1.53-2.607,4.122-2.005,6.406c0.365,1.389,1.389,2.449,2.107,3.658
		c2.134,0.051,4.795,0.198,6.079,2.185c0.65,1.751,2.895,1.808,3.906,3.251c0.281,0.497,0.093,1.081-0.021,1.607
		c1.161,0.685,2.739,0.868,3.496,2.092c4.595,0.536,6.953,5.831,11.707,5.945c1.033-0.563,2.056-1.281,3.287-1.269
		c4.535-0.045,8.857,3.897,8.752,8.534c0.039,1.485-0.79,2.811-1.952,3.673c1.039-0.102,2.113-0.171,3.08-0.611
		c1.601-0.736,3.008-1.829,4.61-2.574c-0.048-0.38-0.099-0.754-0.153-1.122c1.479-1.455,3.46-2.245,5.355-3.002
		c1.254-0.59,2.634-0.219,3.96-0.21c0.991-0.006,1.916,0.715,2.909,0.398c1.625-0.395,3.346-0.745,4.708-1.778
		c0.769-0.566,1.224-1.607,0.853-2.532c-0.679-2.032-0.56-4.215-1.108-6.271c-0.35-1.509-2.448-1.739-2.703-3.326
		c0.024-1.23,0.485-2.404,0.838-3.568c-1.332-1.32-2.874-2.538-3.67-4.28c-0.392-0.895-0.512-2.164,0.362-2.811
		c0.497-0.407,0.826-0.964,1.251-1.434c0.527-0.572,1.353-0.602,2.071-0.671c-0.617-3.544-1.877-6.992-3.577-10.117
		c-3.418,0.581-6.929,0.775-10.378,0.374c-1.137-0.207-2.529-0.383-3.212-1.434c-0.341-1.06-0.272-2.191-0.236-3.287
		c0.156-4.789,0.23-9.617-0.575-14.359c-0.856-4.921-2.029-9.785-3.583-14.529c-1.108-3.409-2.718-6.618-3.954-9.977
		c-3.556,4.107-7.139,8.285-9.626,13.152c-2.622,5.047-4.158,10.584-5.145,16.164c-0.045,0.353-0.168,0.697-0.362,1.003
		c-1.503-5.436,0.207-11.102,2.359-16.11c2.164-5.101,5.193-9.809,8.812-13.997c-2.257,1.248-4.69,2.182-6.807,3.679
		c-0.673,0.467-1.269,1.039-1.973,1.464c2.008-2.251,4.382-4.146,6.813-5.924c1.527-1.072,3.026-2.275,4.855-2.79
		c-0.177-1.006-0.389-2.003-0.626-2.993c-0.392-2.167,0.542-4.328,1.826-6.028C374.137,371.722,368.653,371.138,363.205,370.339
		 M404.575,387.787c-0.506,0.676-1.491,0.488-2.083,1.045c0.739,0.679,1.434,1.443,1.796,2.401c0.536,1.158,0.183,2.472,0.536,3.676
		c0.703,2.709,2.257,5.077,3.487,7.564c1.619,3.278,3.257,6.741,6.202,9.055c1.928,1.485,3.93,2.874,5.876,4.334
		c0.533,0.548,0.41,1.458-0.126,1.961c-2.553,2.897-5.612,5.376-9.064,7.127c0.632,4.241,1.29,8.528,2.823,12.557
		c1.257-0.458,2.691-1.066,4.002-0.464c1.311,0.641,1.488,2.329,1.26,3.616c-0.171,1.302-0.994,2.38-1.335,3.625
		c0.138,1.533,1.715,2.323,2.718,3.302c0.982,0.763,1.305,2.128,0.937,3.293c-0.269,1.251-1.257,2.296-1.206,3.619
		c0.207,1.245,1.604,1.61,2.481,2.29c1.485,0.979,1.491,2.981,1.515,4.574c-0.075,1.835,0.135,3.873,1.521,5.229
		c0.976,0.515,2.08,0.278,3.083-0.021c3.37-0.676,6.831,0.162,10.207-0.467c3.445-0.509,6.639-2.032,9.555-3.876
		c0.461-0.257,0.638-0.787,0.871-1.224c1.203-2.296,0.416-4.963,0.718-7.414c0.383-0.745,1.078-1.296,1.745-1.775
		c1.099-0.416,2.305-0.35,3.457-0.5c-0.287-3.341,0.431-6.657,0.383-9.995c-0.018-3.341,0.039-6.711-0.614-10.001
		c-1.757-0.266-3.556-0.656-5.074-1.622c-0.757-0.5-1.482-1.236-1.568-2.179c-0.09-4.086,0.009-8.172,0.063-12.257
		c0.093-4.595-0.862-9.183-0.29-13.772c-7.055-0.29-14.374,0.751-21.183-1.604c-3.035-1.257-5.855-3.152-8.022-5.639
		c-1.446-1.604-2.008-3.778-2.317-5.858c-1.88-0.23-3.335-1.826-5.241-1.829c-0.796,0.518-1.679,1.23-2.697,0.88
		c-1.152-0.422-2.236-1.009-3.379-1.455C405.159,386.521,404.988,387.224,404.575,387.787 M450.426,401.505
		c0.898,4.945,0.539,9.989,0.449,14.981c-0.03,3.379-0.087,6.87-1.44,10.027c1.871,1.685,4.469,2.086,6.888,2.278
		c2.392,0.135,4.819,0.464,7.193-0.003c1.248-0.201,2.278-1.075,2.99-2.071c-2.125,0.769-4.349,1.308-6.627,1.233
		c-3.002,0.039-6.471-0.5-8.369-3.098c3.302,1.907,7.289,1.565,10.902,0.979c1.446-0.215,2.829-0.811,3.888-1.832
		c-0.027-7.732,0.108-15.466-0.156-23.192C460.939,401.538,455.67,401.631,450.426,401.505 M342.701,422.635
		c1.398,0.841,2.9,1.542,4.526,1.796c0.56-2.155,1.401-4.238,2.347-6.253c-1.116-0.353-2.218-0.766-3.281-1.254
		C345.35,418.971,344.374,421.069,342.701,422.635 M339.986,422.626c0.901,2.017,2.089,3.918,3.661,5.487
		c-0.982-0.572-1.994-1.096-2.936-1.727c-0.587,1.688-2.829,1.667-3.505,3.254c0.706,2.419,1.937,5.11,4.541,5.924
		c-1.607,0.281-3.173-0.509-4.194-1.715c-0.15,1.015-0.868,1.772-1.311,2.658c-0.371,1.305-0.32,2.769-1.164,3.909
		c-0.76,1.371-2.398,1.778-3.448,2.859c-1.161,1.018-1.958,2.631-1.497,4.188c0.464,1.553,1.583,2.793,2.35,4.2
		c0.814,0.548,1.679,1.033,2.368,1.751c2.371-3.781,6.454-6.633,10.946-7.064c-2.76-1.55-3.185-5.256-2.356-8.031
		c0.437-1.922,2.263-2.993,3.152-4.655c0.578-1.012-0.356-2.08-0.195-3.158c-1.149,0.093-2.266-0.329-3.059-1.161
		c1.353,0.35,2.886,0.524,4.137-0.239c0.913-0.73,1.826-1.556,2.254-2.679c-3.17,0.515-6.744-0.829-8.324-3.724
		c-0.401-0.287-0.754-0.632-1.048-1.018C340.112,421.946,339.651,422.225,339.986,422.626 M403.135,427.903
		c1.913,3.361,3.041,7.142,3.804,10.919c0.766,0.201,1.527,0.739,2.338,0.443c0.97-0.198,1.913-0.503,2.835-0.856
		c-1.536-4.017-2.631-8.258-2.703-12.578C407.386,426.708,405.291,427.427,403.135,427.903 M457.538,431.516
		c0.548,3.026,0.629,6.109,0.623,9.18c0.03,4.038,0.066,8.157-1.081,12.072c1.203,0.165,2.413,0.006,3.622,0.009
		c0.201-0.506,0.428-1.006,0.802-1.407c-0.407-4.535-0.662-9.088-0.533-13.64c0.114-2.083,0.769-4.224,0.108-6.277
		C459.9,431.522,458.721,431.549,457.538,431.516 M410.789,440.427c-1.206,0.09-2.35,0.826-3.574,0.437
		c-1.188-0.221-2.529-1.036-3.652-0.195c-0.718,0.392-0.832,1.574-0.138,2.047c1.221,1.081,2.987,0.838,4.493,0.823
		c-0.85,0.599-1.805,1.039-2.847,1.173c0.697,0.697,1.553,1.326,1.934,2.272c0.006,1.392-0.73,2.655-0.913,4.026
		c0.988,0.617,2.107,1.122,2.802,2.101c0.446,0.572,0.53,1.317,0.65,2.011c1.329,0.808,2.909,0.835,4.346,1.269
		c-1.311,0.748-2.889,0.847-4.316,0.383c-0.189,1.847,1,3.691,0.195,5.484c-0.796,2.2-2.853,3.64-4.987,4.388
		c-0.476,0.063,0.051,0.416,0.195,0.536c2.263,1.727,4.11,3.951,5.624,6.352c1.826,2.933,3.215,6.259,3.239,9.767
		c-0.054,0.709,0.691,1.03,1.128,1.461c-0.512,1.039-1.437,1.787-2.454,2.296c-1.41,0.697-2.859,1.335-4.385,1.73
		c-0.509,0.075-1.093,0.512-1.571,0.099c-0.242-0.138-1.119-0.578,0-0.506c-0.057-4.083-1.233-8.151-3.4-11.611
		c-1.308-2.053-3.005-3.924-5.166-5.092l0.051-0.162c1.233,0.554,2.395,1.266,3.397,2.176c4.029,3.67,6.008,9.177,6.229,14.535
		c2.095-0.653,3.906-1.913,5.789-2.993c-0.703-1.341-1.099-2.811-1.691-4.2c-1.562-3.987-3.556-7.947-6.762-10.872
		c-2.308-2.176-5.229-3.535-8.175-4.613c-2.089,0.877-4.4,1.365-6.205,2.82c1.314-0.123,2.775,0.039,3.712,1.078
		c1.152,1.272,2.425,2.712,2.55,4.502c0.066,0.611-0.709,0.521-1.093,0.524c-1.781,1.667-4.247,2.164-6.537,2.724
		c-0.814,0.245-1.838,0-2.44,0.715c-0.952-0.533-1.721-1.314-2.419-2.134c-0.961-1.146-2.227-1.97-3.293-3.008
		c-2.065-0.29-4.149-0.416-6.229-0.596c1.003,0.79,1.814,1.787,2.481,2.871c3.077,4.849,4.909,10.917,3.379,16.613
		c1.039-0.144,2.08-0.248,3.122-0.365c1.853-0.198,3.664-0.76,5.544-0.653c-0.308-1.991-0.153-4.041-0.688-5.996
		c-0.344-1.296-0.937-2.526-1.134-3.858c-0.117-0.485,0.407-0.739,0.745-0.925c2.128-1.06,4.58-1.161,6.744-2.14
		c1.464-0.679,3.077-0.844,4.649-1.108c1.979,0.171,3.224,2.035,4.068,3.646c1.293,2.392,2.335,5.265,1.293,7.95
		c-0.353-0.452-0.656-0.937-0.94-1.428c-1.299,0.419-2.658,0.605-3.951,1.033c-2.583,0.814-5.181,1.853-7.935,1.769
		c-0.727-0.09-1.362,0.323-1.949,0.691c-0.422,0.266-0.551,0.892-1.096,0.976c-1.832,0.533-3.757,0.575-5.63,0.874
		c-1.419,0.215-2.874,0.248-4.274-0.087c0.183-0.075,0.548-0.221,0.73-0.296c0.254-3.721,0.688-7.609-0.697-11.177
		c-1.17-3.014-2.85-6.058-5.606-7.89c-1.245-0.982-2.892-0.38-4.274-0.075c1.305-0.024,2.637,0.183,3.769,0.877
		c2.664,1.577,4.358,4.364,5.424,7.199c1.012,2.856,1.518,6.064,0.563,9.004c-0.356,0.88-0.736,1.916-1.676,2.32
		c-0.108-0.659-0.129-1.329-0.138-1.991c-4.355,0.781-8.941,0.09-12.937-1.787c-2.769-1.305-5.25-3.427-6.495-6.277
		c-1.949,0.383-4.056,0.518-5.609,1.916c0.072,0.47,0.177,0.949,0.482,1.335c1.772,2.655,4.717,4.227,7.669,5.232
		c5.678,1.901,11.713,2.134,17.615,2.79c6.28,0.581,12.647,0.922,18.924,0.114c4.176-0.59,8.232-1.79,12.293-2.895
		c3.107-1.155,6.208-2.356,9.42-3.209c4.658-1.272,9.89-1.568,13.748-4.783c0.748-1.455,2.182-2.401,2.921-3.864
		c0.281-0.563,0.437-1.275,0.072-1.835c-0.865-1.419-2.46-2.326-4.128-2.332c-0.009,1.278-0.219,2.571-0.796,3.724
		c-1.182,2.529-3.721,4.167-6.34,4.903c-2.748,0.784-5.594-0.06-8.378,0.219c-0.575,0.027-1.14,0.263-1.715,0.195
		c-0.018-0.087-0.057-0.263-0.075-0.353c0.94-0.979,2.266-1.473,3.589-1.649c2.484-0.392,5.16-0.036,7.468-1.215
		c1.991-1.078,3.825-3.014,3.825-5.406c-0.033-2.227-1.64-3.975-3.134-5.445c-1.676-1.383-3.694-2.745-4.212-4.999
		c-0.524-1.688,0.512-3.514-0.311-5.133c-0.605-1.293-2.302-1.631-2.778-2.999c-0.293-1.021-0.236-2.173,0.257-3.119
		c-0.347-0.162-0.641,0.242-0.949,0.35c-1.598,0.958-3.661,1.084-5.328,0.224c2.197,0.033,4.424-0.748,6.008-2.29
		c0.341-0.389,0.892-0.826,0.632-1.407c-0.673-2.197-3.511-3.179-3.484-5.693c-2.02,1.015-4.439,1.521-6.624,0.73
		c1.446-0.814,3.188-0.727,4.687-1.407c1.479-0.62,2.404-1.991,3.469-3.116c0.679-0.584,0.335-2.116-0.715-1.946
		C414.432,438.72,412.804,440.211,410.789,440.427 M325.624,448.018c-0.512,1.503-0.18,3.17,0.251,4.667
		c1.015,3.107,2.787,5.888,4.439,8.687c2.993,4.999,7.061,9.333,11.85,12.647c4.451,3.074,9.698,5.442,15.212,5.253
		c0-0.419,0.003-0.835,0.006-1.242c-1.2-0.23-2.308-0.841-3.098-1.775c-1.209-1.38-2.35-2.817-3.742-4.02
		c0.491-0.189,1.012-0.494,1.548-0.263c2.278,0.778,3.349,3.406,5.726,3.99c0.7-1.673,1.964-3.4,3.858-3.733
		c2.35-0.305,4.637,0.518,6.935,0.865c0.057-0.874,0.611-1.658,1.506-1.814c3.358-0.506,6.798-0.515,10.153,0.03
		c0.895-1.404,2.233-3.095,1.428-4.828c-1.143-2.032-3.059-4.149-5.612-3.951c-2.945,0.117-4.696,3.017-7.483,3.604
		c-2.305,0.575-5.214,0.257-6.684-1.823c1.521,0.162,3.035,0.533,4.574,0.353c1.533-0.102,2.942-0.799,4.146-1.721
		c-3.999-0.042-8.211-0.916-12.012,0.754c-3.475,1.314-6.121,4.155-7.866,7.36c-0.407,0.578-0.563,1.419-1.257,1.736
		c-0.045-3.403,2.077-6.43,4.72-8.387c3.798-2.811,8.728-4.241,13.425-3.451c-1.757-1.266-3.412-2.664-5.074-4.044
		c-3.457-0.727-7.112-0.371-10.408,0.868c-0.88-0.377-1.503-1.146-2.257-1.706c-1.233-1.063-2.856-1.79-3.583-3.329
		c0.195,0.006,0.578,0.015,0.772,0.021c1.269-1.506,3.335-1.344,5.08-1.748c-2.398,0.054-4.846,0.257-7.091,1.164
		c-2.918,1.167-5.145,3.448-7.606,5.316c1.7-2.191,3.739-4.164,6.151-5.553c2.832-1.679,6.229-2.143,9.465-1.793
		c-1.518-2.068-4.274-2.568-6.684-2.452c-3.278,0.189-6.118,2.071-8.639,4.023c-0.94,0.65-1.197,1.835-1.886,2.7
		c-0.799,1.191-1.506,2.781-2.99,3.203c0.233-0.724,0.569-1.407,0.925-2.077c-0.676-0.856-1.078-1.999-2.104-2.511
		c-2.065-1.254-3.478-3.475-3.825-5.858C327.118,447.395,326.313,447.584,325.624,448.018 M324.334,454.193
		c1.589,5.367,5.421,9.614,8.576,14.107c2.978,3.963,6.474,7.663,10.821,10.129c2.784,1.592,5.792,3.053,9.037,3.272
		c0.715-0.21,1.401-0.512,2.11-0.739c-2.93-0.216-5.654-1.428-8.264-2.691c-4.888-2.377-9.486-5.582-12.835-9.914
		c-2.224-2.933-4.247-6.02-6.07-9.216c-1.553-2.888-3.364-5.828-3.574-9.186C323.849,451.358,323.939,452.816,324.334,454.193
		 M347.679,453.076c1.688,1.092,3.394,2.224,4.825,3.649c1.655-1.326,3.87-1.503,5.909-1.494c-1.03-0.697-2.305-1.173-2.969-2.281
		c-0.26-0.299-0.458-0.826-0.928-0.796C352.214,452.124,349.867,452.313,347.679,453.076 M451.567,453.783
		c1.452,1.407,3.625,1.398,5.505,1.652c2.778,0.251,5.654,0.509,8.381-0.225c0.099-0.189,0.296-0.56,0.398-0.745
		c-0.949-0.823-2.023-1.539-3.311-1.637c-0.65,1.161-2.068,1.299-3.236,1.577c-1.368,0.039-3.305,0.039-3.81-1.551
		c-1.137,0.024-2.269-0.227-3.403-0.15C451.567,452.684,451.151,453.376,451.567,453.783 M452.046,456.243
		c-0.051,1.631,0.204,3.251,0.278,4.879c2.7,0.949,5.63,1.784,8.501,1.194c-1.598,1.509-4.002,1.404-6.022,1.081
		c-1.428-0.162-2.694-0.913-4.116-1.069c-0.59,0.512-1.206,1-1.709,1.601c-2.263,2.568-5.717,3.664-9.019,4.083
		c-3.739,0.449-7.603,0.973-11.306,0.027c-0.198,0.075-0.59,0.227-0.787,0.302c0.952,1.057,1.811,2.194,2.565,3.4
		c0.638-0.653,1.278-1.401,2.185-1.658c1.745-0.236,3.409-0.862,5.163-1.066c2.9-0.386,5.699-1.362,8.633-1.544
		c1.958-0.198,4.02,0.15,5.603,1.389c0.018-1.305-0.066-2.619,0.156-3.906c0.82,2.413,1.365,4.981,1.066,7.537
		c-0.673,1.682-1.383,3.355-2.236,4.957c2.553-0.667,5.107,0.266,7.675,0.168c1.592-0.069,2.957,0.859,4.451,1.257
		c-0.748-2.197-1.488-4.412-1.892-6.702c-0.332-1.847,0.239-4.116,2.128-4.894c-0.168,1.356-0.245,2.724-0.159,4.092
		c1.066-0.889,2.529-0.949,3.846-0.766c2.607,0.377,4.891,1.931,7.525,2.209c3.99,0.428,8.04,0.18,11.997,0.925
		c2.086,0.41,4.37,1.081,5.672,2.895c0.656,0.838,0.718,1.928,0.715,2.954c-0.054-2.233,0.676-4.577,2.571-5.906
		c2.161-2.296,5.657-3.161,8.639-2.14c2.365,0.835,4.209,2.73,5.388,4.9c0.183-0.105,0.548-0.311,0.727-0.413
		c-0.802-1.386-1.781-2.712-3.104-3.64c-1.634-1.182-3.685-1.631-5.675-1.649c-3.119-0.021-6.178,0.671-9.273,0.949
		c-4.161,0.41-8.345-0.033-12.464-0.641c-3.242-0.476-6.528-1.021-9.537-2.368c-1.164-0.566-2.41-1.266-2.984-2.481
		c-0.395-1.236-0.895-2.452-1.03-3.751c-1.296,0.413-2.658,0.524-4.002,0.656c1.416-0.518,3.083-0.964,3.912-2.335
		c0.183-1.302,0.06-2.619-0.003-3.921c-1.832,0.955-3.948,1.051-5.969,0.916C457.416,457.563,454.557,457.491,452.046,456.243
		 M392.611,469.557c-0.308,0.371-0.629,0.754-1.069,0.979c-2.212,1.209-4.322,2.757-6.864,3.2c0.973,0.901,1.988,1.847,2.392,3.155
		c0.988-0.656,2.116-1.03,3.254-1.326c1.682-0.452,3.257-1.2,4.873-1.829C394.518,472.239,393.874,470.671,392.611,469.557
		 M500.369,473.437c-1.134,0.557-2.413,0.886-3.385,1.718c-1.835,1.838-1.706,5.235,0.272,6.926
		c1.356,1.146,3.077,1.841,4.834,2.071c1.482,0.189,3.164-0.069,4.23-1.203c1.347-1.452,1.443-3.718,0.623-5.454
		C505.835,475.038,503.15,472.973,500.369,473.437 M359.697,476.606c-0.65,1.018-0.476,2.278-0.183,3.385
		c0.527,1.772,1.961,3.05,3.29,4.245c-0.539-2.296,0.12-4.897,2.098-6.307c-0.736,1.548-1.35,3.278-0.988,5.017
		c0.299,1.416,1.149,2.85,2.55,3.4c3.418,1.455,7.286,1.934,10.925,1.102c-0.006-1.832-0.177-3.682-0.739-5.433
		c-0.871-2.868-2.883-5.238-5.217-7.046c-1.556-0.024-3.083-0.371-4.637-0.398c-1.898-0.072-3.778-1.128-5.675-0.509
		C360.179,474.433,359.278,475.586,359.697,476.606 M395.811,479.148c-2.257,0.53-4.472,1.233-6.747,1.679
		c1.368,2.215,1.931,4.873,1.772,7.459c2.131-1.122,4.655-0.805,6.846-1.736c1.865-0.727,3.792-1.512,5.84-1.365
		c-0.422-1.455-0.874-2.903-1.536-4.265c-0.668-1.416-1.625-2.868-3.212-3.335C397.954,478.375,396.918,478.89,395.811,479.148
		 M449.711,480.228c0.712-0.066,1.09-0.757,1.512-1.248C450.645,479.297,450.136,479.725,449.711,480.228 M434.14,482.88
		c-4.526,3.251-10.054,4.466-15.293,6.067c-6.292,1.877-12.638,3.667-19.151,4.601c-9.213,1.913-18.729,1.395-27.984,0.072
		c-4.771-0.712-9.686-0.868-14.263-2.526c-2.35-0.826-4.631-2.284-5.702-4.622c-0.236,0.611-0.5,1.215-0.826,1.79
		c1.362,2.212,3.778,3.427,6.118,4.343c3.987,1.527,8.214,2.242,12.386,3.038c12.12,2.221,24.745,1.556,36.584-1.835
		c6.564-1.859,12.949-4.325,19.588-5.927c2.826-0.691,5.684-1.443,8.24-2.865c1.509-0.856,2.954-2.011,3.676-3.628
		c0.084-0.682-0.183-1.356-0.275-2.023C436.49,480.758,435.445,481.979,434.14,482.88 M450.513,482.264
		c-0.476,1.452-0.602,3.008-0.596,4.535c0.039,1.943,0.644,4.086,2.347,5.223c1.862,1.341,4.277,1.152,6.445,0.997
		c-0.476-0.901-0.829-1.874-0.889-2.897c-0.296-3.23-0.311-6.597,0.817-9.683c-1.682-0.171-3.397-0.542-5.08-0.171
		C452.342,480.516,451.216,481.237,450.513,482.264 M460.615,480.626c-0.877,1.613-0.934,3.511-0.868,5.307
		c0.084,1.751,0.024,3.589,0.814,5.208c0.299,0.602,0.685,1.323,1.422,1.449c1.087-0.159,1.622-1.287,2.077-2.161
		c0.521-1.32,1.096-2.784,0.635-4.2c-0.461-1.694-0.419-3.813-2.038-4.897C462.073,480.965,461.316,480.01,460.615,480.626z"/>
	<path fill="#211F20" d="M370.832,158.451c-0.069-4.912,1.428-9.887,4.346-13.847c-1.763,4.376-3.029,9.055-2.787,13.814
		c0.177,4.921,2.026,9.731,5.095,13.575c4.502,5.804,10.695,9.893,16.334,14.479c0.626,0.506,1.272,0.994,1.778,1.628
		c-6.513-3.478-12.997-7.387-17.975-12.934C373.526,170.603,370.925,164.617,370.832,158.451z"/>
	<path fill="#211F20" d="M383.006,171.567c-4.221-5.594-6.046-12.805-5.262-19.747c-0.063,5.55,1.057,11.21,3.873,16.041
		c1.829,3.224,4.388,5.975,7.241,8.312c2.475,2.128,5.265,3.891,7.621,6.151C391.423,179.574,386.481,176.237,383.006,171.567z"/>
	<path fill="#211F20" d="M296.117,172.818c1.922-2.619,5.172-4.086,8.393-4.035c3.119-0.117,6.082,1.41,8.255,3.565
		c1.428,1.431,2.604,3.23,2.892,5.268c0.216,1.437-0.138,2.96-1.012,4.131c-0.685,0.88-0.841,2.059-1.604,2.891
		c-1.347,1.784-3.763,2.529-4.756,4.604c-0.805,2.257-0.012,4.64,0.85,6.75c-2.769-0.027-4.439-3.041-4.28-5.544
		c0.147-1.961,1.32-3.703,2.718-5.02c1.362-1.32,3.209-1.919,4.747-2.984c-0.527-1.925-0.368-3.975-1.009-5.87
		c-0.56-1.703-2.098-2.826-3.622-3.622c-2.724-1.326-6.205-1.503-8.806,0.21c-2.023,1.338-3.332,3.475-4.361,5.618
		c-0.302,0.587-0.488,1.26-0.958,1.742C293.803,177.808,294.411,175.016,296.117,172.818z"/>
	<path fill="#211F20" d="M331.093,197.812c-0.931-4.203,0.123-8.935,3.077-12.126c-1.452,2.125-2.58,4.562-2.604,7.181
		c-0.159,4.182,1.889,8.118,4.676,11.117C333.518,203.14,331.713,200.497,331.093,197.812z"/>
	<path fill="#211F20" d="M345.871,186.055c3.951-0.916,8.172,1.29,10.024,4.819c1.464,2.613,1.898,6.067,0.263,8.701
		c-0.931,1.257-1.739,2.679-3.092,3.544c-2.88,1.931-6.651,2.335-9.953,1.383c-2.425-0.661-4.134-2.772-5.133-4.975
		c-0.889-2.02-1.332-4.457-0.362-6.525c0.536-1.042,0.97-2.152,1.718-3.068C340.956,187.908,343.348,186.576,345.871,186.055
		 M339.435,191.266c-0.769,0.838-1.009,2.003-1.128,3.098c-0.242,2.895,1.06,5.873,3.364,7.648
		c-0.629-1.464-0.961-3.158-0.341-4.681c0.919-2.116,2.859-3.816,5.139-4.277c3.272-0.602,7.369,1.218,7.962,4.768
		c0.281-0.856,0.736-1.667,0.865-2.562c-0.108-2.469-1.464-4.9-3.61-6.16c-2.095-1.236-4.637-1.769-7.043-1.347
		C342.596,188.333,340.8,189.65,339.435,191.266 M349.487,196.241c-1.76,0.733-1.991,3.427-0.374,4.445
		c1.503,1.158,3.939,0.039,4.059-1.85C353.459,196.92,351.196,195.328,349.487,196.241z"/>
	<path fill="#211F20" d="M390.585,203.577c6.615-0.802,13.245,1.176,19.109,4.128c3.619,1.877,7.22,4.122,9.683,7.444
		c1.622,2.137,2.323,5.121,1.152,7.636c-1.874,4.616-6.109,7.633-10.324,9.953c-2.966,1.691-6.489,2.206-9.854,1.811
		c-3.801-0.422-7.414-1.886-10.725-3.754c-3.349-1.919-6.403-4.652-7.935-8.264c-1.066-2.559-1.272-5.424-0.868-8.148
		c0.269-1.976,1.131-3.792,1.799-5.651C383.975,205.607,387.355,203.973,390.585,203.577 M388.603,205.484
		c-2.547,0.739-4.628,2.826-5.481,5.316c-1.111,3.978-1.551,8.507,0.479,12.269c2.185,3.828,5.828,6.654,9.794,8.468
		c3.724,1.718,7.995,2.362,12.021,1.452c5.409-1.176,10.051-4.858,13.003-9.468c1.075-2.272,1.006-5.145-0.545-7.187
		c-1.422-1.862-3.23-3.412-5.166-4.717c-4.062-2.589-8.588-4.418-13.272-5.529c3.005,1.317,5.735,3.649,6.789,6.84
		c0.91,2.763,0.584,6.046-1.093,8.45c0.53-2.083,1.084-4.238,0.724-6.403c-0.482-3.538-3.317-6.292-6.415-7.777
		c-3.113-1.275-6.807-1.404-9.89,0.036c-2.517,1.143-4.274,3.382-5.663,5.699c1.116-2.99,3.344-5.624,6.286-6.935
		c1.137-0.542,2.392-0.736,3.61-1.018C392.048,204.972,390.273,204.933,388.603,205.484z"/>
	<path fill="#211F20" d="M391.599,208.483c3.757-0.979,8.327,0.141,10.593,3.454c1.838,2.769,2.14,6.558,0.599,9.525
		c-1.473,2.577-4.101,4.409-6.983,5.056c-1.574,0.263-3.278,0.584-4.792-0.114c-2.362-0.742-4.439-2.526-5.205-4.921
		c-0.691-1.949-0.377-4.089,0.353-5.978c0.063,1.341,0.009,2.697,0.332,4.011c0.572-1.826,1.979-3.335,3.754-4.047
		c1.733-0.733,3.792-1.143,5.568-0.317c1.67,0.784,2.781,2.553,2.856,4.385c0.123,1.67-0.518,3.266-1.338,4.687
		c1.389-0.688,2.733-1.619,3.499-3.005c1.012-1.877,1.527-4.131,0.925-6.223c-0.437-1.706-1.751-3.059-3.302-3.822
		c-2.649-1.41-6.043-1.997-8.779-0.494c-1.35,0.691-2.203,1.976-3.005,3.212C386.864,211.231,389.082,209.088,391.599,208.483
		 M393.868,217.604c-1.841,0.455-2.502,3.062-1.072,4.319c1.311,1.401,3.939,0.653,4.316-1.224
		C397.667,218.855,395.679,216.978,393.868,217.604z"/>
	<path fill="#211F20" d="M409.137,220.238c0.587-1.497,0.578-3.116,0.587-4.693c0.922,2.526,0.581,5.442-0.898,7.69
		c-2.209,3.406-6.247,5.663-10.324,5.567C403.156,227.949,407.494,224.758,409.137,220.238z"/>
	<path fill="#211F20" d="M339.304,242.02c1.099-0.724,2.386-1.137,3.688-1.293c-2.233,1.7-4.062,4.077-4.595,6.885
		c-0.494,2.472,0.488,4.888,0.706,7.328c-1.574-0.099-2.508-1.721-2.975-3.065C335.107,248.396,336.263,244.139,339.304,242.02z"/>
	<path fill="#211F20" d="M356.961,244.837c1.392,0.117,2.694,0.868,3.445,2.056c1.811,2.787,1.679,6.579,0.072,9.426
		c-1.236,2.176-3.837,3.281-6.277,3.086l-0.23-0.15c0.006-0.105,0.015-0.314,0.018-0.419c0.91-1.099,2.224-1.811,2.999-3.029
		c1.128-1.817,1.619-3.939,1.952-6.028c0.153-1.057,0.144-2.197-0.371-3.161C358.197,245.89,357.539,245.385,356.961,244.837z"/>
	<path fill="#211F20" d="M346.913,246.375c2.484-0.739,5.157,0.946,5.948,3.329c0.847,2.233,0.138,5.071-1.94,6.37
		c-2.664,1.79-6.774,0.419-7.905-2.562c-0.665-1.907,0.266-3.939,1.461-5.418C345.033,247.231,345.928,246.636,346.913,246.375z"/>
	<path fill="#211F20" d="M335.58,330.6c0.706-0.204,1.449-0.147,2.176-0.156c5.31-0.024,10.644,0.344,15.843,1.461
		c0.368,0.075,0.718,0.213,1.057,0.377c-3.071,0.7-6.22,0.084-9.285-0.317C342.108,331.519,338.744,331.621,335.58,330.6z"/>
	<path fill="#211F20" d="M335.116,334.982c-0.62-1.419-1.021-3.164-0.21-4.589c0.254,0.961,0.386,1.958,0.703,2.906
		c0.371,1.128,1.338,2.003,1.416,3.242C336.119,336.461,335.442,335.791,335.116,334.982z"/>
	<path fill="#211F20" d="M355.279,332.534c1.527,0.221,2.113,1.82,2.362,3.14c0.183,0.886,0.302,2.143-0.721,2.571
		c-0.32-1.269-0.081-2.622-0.542-3.861C356.165,333.683,355.692,333.118,355.279,332.534z"/>
	<path fill="#211F20" d="M337.379,336.704c3.538,0.216,6.983,1.245,10.536,1.296c2.76,0.108,5.642,0.075,8.226,1.182
		c-3.822,0.048-7.669,0.039-11.476-0.386C342.162,338.455,339.612,337.937,337.379,336.704z"/>
	<path fill="#211F20" d="M432.64,338.814c0.362-0.715,0.817-1.703,1.784-1.619c1.946,0.344,3.409,1.919,5.361,2.272
		c2.353,0.407,4.298,1.934,6.606,2.49c1.643,0.401,2.906,1.775,3.427,3.352c-1.727-0.865-3.421-1.799-5.25-2.434
		c-1.503-0.488-2.703-1.58-4.182-2.104c-0.718-0.263-1.506,0.054-2.227-0.168c-1.293-0.503-2.128-1.754-3.433-2.236
		C433.996,338.053,433.29,338.538,432.64,338.814z"/>
	<path fill="#211F20" d="M334.413,362.305c-0.494-0.757-0.027-1.748,0.668-2.191c0.856-0.323,1.787-0.159,2.658,0.003
		c1.266,0.266,2.616,0.398,3.706,1.158c0.027,0.745,0.171,1.5,0.039,2.248c-1.389,0.476-2.886,0.254-4.31,0.093
		C336.179,363.422,335.023,363.2,334.413,362.305 M335.065,360.713c0.045,0.554,0.015,1.275,0.623,1.553
		c1.443,0.688,3.11,0.635,4.676,0.626c0.018-0.371,0.036-0.739,0.054-1.105C338.642,361.383,336.846,361.09,335.065,360.713z"/>
	<path fill="#211F20" d="M342.788,363.49c-0.769-0.949,0.422-2.484,1.548-1.955c1.084,0.317,1.395,1.568,1.254,2.568
		C344.635,364.421,343.417,364.397,342.788,363.49 M343.845,362.009c-0.054,0.305-0.296,0.623-0.204,0.946
		c0.287,0.347,0.769,0.332,1.17,0.407C344.674,362.787,344.317,362.335,343.845,362.009z"/>
	<path fill="#211F20" d="M347.466,362.131c0.718-0.207,1.488,0.32,1.643,1.033c0.275,1.179-1.365,2.305-2.314,1.479
		C345.991,363.897,346.407,362.389,347.466,362.131 M347.73,362.763c-0.135,0.335-0.763,1.44,0.075,1.209
		C348.499,363.709,348.26,363.044,347.73,362.763z"/>
	<path fill="#211F20" d="M350.654,362.901c1.383-0.473,2.814-0.006,4.2,0.207c0.632,0.084,1.209,0.356,1.742,0.694
		c0.108,0.656,0.272,1.317,0.213,1.991c-0.955,0.874-2.338,0.35-3.457,0.129c-1.051-0.311-2.347-0.23-3.041-1.221
		C350.418,364.095,350.526,363.496,350.654,362.901 M351.343,363.502c-0.03,0.437-0.063,0.88-0.093,1.323
		c1.586-0.099,3.11,0.437,4.678,0.575c0.054-0.305,0.165-0.916,0.219-1.218C354.549,363.924,352.965,363.565,351.343,363.502z"/>
	<path fill="#211F20" d="M384.245,370.252c-1.194-0.419-0.841-1.82-0.105-2.496c1.955-0.281,4.11-0.221,5.861,0.787
		c-1.934,0.03-3.858-0.245-5.786-0.407c0.06,0.635,0.09,1.299,0.443,1.859c1.649-0.542,3.352,0.045,5.017,0.192
		c0.21-0.452,0.018-1.392,0.584-1.503c0.168,0.688,0.721,1.799-0.12,2.248C388.142,371.045,386.235,370.135,384.245,370.252z"/>
	<path fill="#211F20" d="M342.24,454.468c0.602-0.428,1.326-0.805,2.086-0.679c1.506,1.105,2.877,2.377,4.361,3.505
		c0.638,0.563,1.314,1.182,1.628,1.985c-0.76,0.823-2.113,0.706-2.856,1.601c-1.356,1.404-2.607,3.065-3.101,4.984
		c-0.228,0.222-0.467,0.437-0.715,0.647c-1.125-0.53-1.805-1.592-2.392-2.64c-0.68-1.314-2.012-2.104-2.766-3.364
		c-0.395,0.766-0.784,1.542-1.17,2.317c0.18-1.17,0.26-2.392,0.856-3.439C339.238,457.536,340.501,455.737,342.24,454.468
		 M341.707,456.348c-1.23,1.107-1.91,2.655-3.029,3.864c2.392-0.126,4.104,1.952,5.493,3.625c0.892-2.059,2.281-3.996,4.265-5.119
		c-1.5-1.248-3.047-2.49-4.206-4.077C343.33,455.112,342.441,455.63,341.707,456.348z"/>
	<path fill="#211F20" d="M331.809,456.974c0.12-0.024,0.362-0.066,0.485-0.087c0.841,1.272,1.679,2.547,2.67,3.715
		c0.835,1.048,1.925,2.158,1.742,3.622c-1.383-0.835-2.068-2.368-3.053-3.586C332.862,459.536,331.818,458.398,331.809,456.974z"/>
	<path fill="#211F20" d="M418.712,465.304c0.311,0.422,0.356,0.946,0.476,1.446c0.557,2.538,2.667,4.526,2.814,7.181
		c0.072,1.188-0.871,2.032-1.76,2.649c-0.081-0.009-0.242-0.024-0.326-0.033c0.641-0.688,1.06-1.619,0.922-2.571
		c-0.341-2.35-2.44-3.969-2.841-6.292C417.826,466.812,418.251,466.001,418.712,465.304z"/>
	<path fill="#211F20" d="M341.671,468.731c1.422,0.108,2.493,1.093,3.505,1.988c1.35,1.224,3.176,1.733,4.544,2.927
		c0.284,0.305,0.829,0.617,0.53,1.099c-1.568,0.153-2.936-0.79-4.137-1.667C344.431,471.856,342.872,470.437,341.671,468.731z"/>
	<path fill="#211F20" d="M500.13,475.023c2.428-0.733,5.69,0.667,5.951,3.409c0.329,3.343-3.703,5.948-6.663,4.493
		c-2.071-0.985-2.912-3.517-2.428-5.657C497.511,475.996,498.872,475.34,500.13,475.023 M499.522,476.487
		c-1.158,0.081-1.371,1.32-1.61,2.227c-0.446,1.76,1.182,3.691,2.99,3.559c1.323-0.153,2.529-1.003,3.197-2.14
		c0.572-0.94,0.479-2.287-0.377-3.02C502.563,476.166,500.911,476.166,499.522,476.487z"/>
	<path fill="#211F20" d="M367.228,476.166c1.078,0.718,2.077,1.568,3.26,2.116c1.111,0.533,2.335,0.039,3.49,0.012
		c-0.165,1.284-1.586,1.865-2.73,1.58C369.335,479.483,368.108,477.777,367.228,476.166z"/>
	<path fill="#211F20" d="M460.283,483.973c0.204-0.823,0.781-1.455,1.398-2c0.344,0.204,0.679,0.449,0.967,0.739
		c-0.236,0.084-0.709,0.248-0.946,0.332c-0.844,1.907-0.075,3.993,0.545,5.846c-0.048,0.314,0.515,0.94,0.611,0.311
		c0.667-2.023,0.955-4.34,0.078-6.349c1.045,1.257,1.739,2.883,1.551,4.544c-0.138,1.425-0.404,3.227-1.937,3.807
		c-0.635-0.332-1.41-0.617-1.613-1.386C460.247,487.975,459.756,485.922,460.283,483.973z"/>
</g>
</svg>
