<?xml version="1.0" encoding="utf-8"?>
<!-- Generator: Adobe Illustrator 17.0.0, SVG Export Plug-In . SVG Version: 6.00 Build 0)  -->
<!DOCTYPE svg PUBLIC "-//W3C//DTD SVG 1.1//EN" "http://www.w3.org/Graphics/SVG/1.1/DTD/svg11.dtd">
<svg version="1.1" id="Layer_1" xmlns="http://www.w3.org/2000/svg" xmlns:xlink="http://www.w3.org/1999/xlink" x="0px" y="0px"
	 width="800px" height="600px" viewBox="0 0 800 600" enable-background="new 0 0 800 600" xml:space="preserve">
<path fill="#FFFFFF" d="M358.72,150.35c15.93-4.8,33.31-3.15,48.92,2.16c9.42,3.42,18.75,8.14,25.65,15.57
	C410.52,155.64,384.3,151.75,358.72,150.35z"/>
<path fill="#FFFFFF" d="M348.51,154.71c8.49-1.13,17.08-0.43,25.55,0.49c18.93,2.24,37.98,6.22,55.11,14.86
	c7,3.79,14.47,8.06,18.33,15.34c1.69,2.49,2.92,5.26,3.57,8.21c-18.59-7.15-38.1-12.04-57.94-13.92c-6.11-0.5-12.28-1.03-18.39-0.33
	c25.69,4.71,52.34,7.47,76.21,18.82c0,1.78,0,3.55,0.02,5.33c-23.7-6.72-48.45-9.14-73.02-8.85c-21.91,0.37-44.02,2.75-64.89,9.7
	c0.21-1.52,0.45-3.02,0.67-4.52c15.52-8.71,33.84-9.76,51.25-9.46c19.1,0.45,38.1,2.73,57.2,3.29c-16.2-3.2-32.69-4.98-49.16-6.07
	c-19.54-0.92-39.92-0.55-58.16,7.38c3.89-11.48,9.07-22.9,17.41-31.85c17.65-2.77,35.51,0.76,53.11,2.47
	c-15.61-5.34-32.41-8.73-48.88-5.78C339.67,156.59,344.17,155.34,348.51,154.71z"/>
<path fill="#FFFFFF" d="M479.28,191.94c4.97-3.17,11-4.82,16.87-3.56c10.75,2.01,19.9,9.16,30.89,10.25
	c3.81,0.49,7.59-0.42,11.23-1.46c-4.71,4.49-10.47,9.33-17.43,8.67c-4.56-1.53-7.7-5.63-12.18-7.36c-8.23-3.23-17.9-3.6-25.96,0.3
	C481.65,196.45,480.45,194.2,479.28,191.94z"/>
<path fill="#FFFFFF" d="M461.44,188.46c5.18-0.84,10.93,0.59,14.14,5c5.67,7.53,6.3,19.26,0.23,26.73
	c-0.45-6.61,0.28-13.56-2.32-19.81c-0.77-2.18-2.77-3.38-4.74-4.31c3.16,8.4,5.02,18.3,1.06,26.74c-2.07,4.53-7.49,5.69-11.95,4.59
	c-1.02-2.27-2.21-4.45-3.68-6.46c-0.57-10.18,3.36-20.4,0.51-30.47c1.9,0.38,4.14,0.83,4.97,2.87c2.84,6.12,1.93,13.12,3,19.64
	C467.31,205.61,465.75,195.64,461.44,188.46z"/>
<path fill="#FFFFFF" d="M316.67,207.77c17.82-7.25,37.37-8.32,56.39-8.41c18.66,0.03,37.28,1.47,55.93,1.97
	c7.27,0.08,14.86,1.39,20.87,5.74c-0.11,6.94-0.11,13.96-1.89,20.72c-1.83-1.65-3.84-3.05-6.06-4.1c1.68,9.5,9.04,17.38,8.73,27.35
	c0.18,4.38-2.98,8.03-6.6,10.07c-3.88,2.38-8.38,3.34-12.78,4.22c5.23,6.58,15.36,4,20.56-1.29c1.53,12.46,2.16,25.07,0.92,37.58
	c-10.97-4.71-23.95-5.12-35.17-1.11c11.05,1.67,22.74,1.06,33.11,5.79c9.98,5.09,15.67,15.38,19.57,25.44
	c7.44,16.39,9.19,35.21,5.45,52.78c-2.43,11-7.97,22.36-18.38,27.77c-14.61,7.87-31.11,11.32-47.38,13.75
	c-11.87,1.58-23.87,2.68-35.85,2.21c-12.68-1.1-25.41-2.2-37.86-4.99c0.63-3.63,1.53-7.19,2.54-10.72
	c8.22,3.71,17.4,3.05,26.18,3.19c18.36,0.46,37.02,1.07,55.02-3.27c4.93-1.27,9.83-2.84,14.3-5.33
	c-28.18,3.88-56.79,7.06-85.21,3.88c-3.19-0.26-6.18-1.44-9.17-2.49c0.56-1.32,1.12-2.62,1.69-3.93c24.5,2,49.32,1.1,73.51-3.4
	c13.07-2.59,26.15-6.03,38.11-11.99c4.81-6.53,4.75-15.47,3.18-23.13c-2.64-11.26-8.32-21.86-16.2-30.32
	c-8.23-6.49-19.56-5.32-29.27-3.92c-28.68,4.92-57.94,6.24-86.95,4.11c-7.84-0.74-15.51,4.09-18.83,11.1
	c-2.92,6.37-4.76,13.2-5.91,20.1c-1.19,8.29-1.66,17.83,3.71,24.85c4.5,5.66,12.3,5.81,18.41,8.75c-0.55,1.1-1.08,2.2-1.61,3.31
	c-6.99-1.52-12.73-6.16-19.6-7.99c4.14,5.72,10.47,9.4,17.18,11.3c-1.57,3.38-3.17,6.75-4.5,10.24
	c-9.31,0.15-18.73-3.52-24.91-10.59c-8.91-10.04-11.91-23.95-12-37.06c0.12-15.36,3.92-31.35,13.73-43.49
	c2.24-3.29,4.37-6.74,7.41-9.37c8.43-7.64,19.46-11.33,30.08-14.8c-6.27-0.69-12.6-0.05-18.75,1.24
	c-1.6-12.33-0.03-24.76,1.86-36.96c3.18,3.21,6.55,7.72,11.68,7.01c2.22-0.11,6.35-1.6,5.06-4.47c-3.46-2.23-8.65-0.17-11.42-3.67
	c-1.34-2-2.95-4.08-3.44-6.44c2.43-11.43,6.42-22.52,8.37-34.06c-1.67,1.7-3.06,3.64-4.47,5.55c-0.59-6.98-1.66-13.89-2.69-20.81
	C314.04,208.56,315.56,208.38,316.67,207.77 M318.79,211.34c3.12,1.88,6.93,1.37,10.39,2.07c4.75,0.54,9.32,2.31,13.08,5.3
	c-5.27-0.34-11.08,0.09-15.34,3.55c0.24,2.71,3.94,1.48,5.83,2.06c-3.04,6.98-2.48,16.19,3.56,21.41c3.27,3,7.92,3.39,12.13,2.9
	c-1.3,2.66-2.39,5.85-5.46,6.94c-7.35,3.8-16.75-1.13-18.68-8.97c-3.62,5.93,1.32,12.65,6.49,15.6c3.54,0.88,7.23,0.94,10.88,1.01
	c-4.53,13.31-3.3,29.7,7.15,39.95c16.25,15.81,45.93,13.24,59.67-4.66c4.19-4.77,6.07-11.32,5.4-17.58
	c-0.67-2.8-0.98-6.34-3.89-7.75c0.04,4.57-0.49,9.22-2.68,13.31c-6.27,12.71-20.52,19.97-34.33,20.39c-5.23,0-11.06-0.03-15.27-3.6
	c-6.58-4.73-9.02-13.38-8.13-21.15c1.18-11.03,6.4-21.66,14.5-29.25c5.31-5.17,13.12-6.08,18.85-10.63
	c-10.59-1.03-19.55,5.31-28.45,9.95c3.1-7.36,8.78-13.07,13.94-18.98c-1.06-5.27-5.85-8.34-10.29-10.62
	c-3.46-1.7-6.26-4.48-9.83-5.94c-6.37-2.84-12.09-7.57-19.22-8.38C325.38,207.77,321.8,209.32,318.79,211.34 M400.94,225.29
	c2,4.74,3.25,9.76,5.31,14.48c1.58,3.64,4.69,6.88,8.77,7.45c4.99,0.71,10.34,0.11,14.78-2.4c4.3-2.44,7.22-6.97,8.08-11.8
	c0.31-5.25-2.79-10.05-6.73-13.27c2.2-0.9,7.49-1.34,6.09-4.85C424.35,213.22,412.08,219.52,400.94,225.29 M430.94,254.47
	c-4.31,1.24-8.72,0.12-12.8-1.36c4.16,7.52,15.03,7.69,21.75,3.79c3.47-1.84,3.67-6.11,2.28-9.36
	C439.06,250.71,435.39,253.56,430.94,254.47 M299.64,330.61c-8.14,10.21-11.98,23.41-12.48,36.33c-0.36,9.64,2.28,20.4,10.63,26.2
	c-7.06-14.08-4.56-30.57-0.98-45.26c1.55-5.14,2.61-10.76,6.26-14.91c4.01-4.6,9.96-6.84,14.14-11.26
	C310.59,322.59,303.81,325.15,299.64,330.61 M454.9,335.12c0.76,8.26,4.81,15.76,6.17,23.92c2.12,11.09,2.78,23.66-3.58,33.55
	c-2.18,3.62-5.88,5.73-9.23,8.08c4.46-0.78,9.19-1.6,12.82-4.54c5.48-4.25,7.3-11.55,7.35-18.19c0.01-11.07-3.17-21.9-7.48-32.01
	C459.18,342.2,457.77,338.18,454.9,335.12z"/>
<path fill="#FFFFFF" d="M484.22,202.72c9.37-3.34,19.94-2.12,28.73,2.33c12.31,7,17.37,21.67,29.37,29.1
	c-10.24-0.49-17.8-8.08-24.95-14.53c-6.56-6.02-15.19-11.16-24.43-9.74c-1.84,0.1-3.07,1.49-4.25,2.7c4.35,1.69,9.15,0.9,13.58,2.19
	c11.42,6.41,19.95,17.54,32.69,21.69c6.23,2.21,12.94,1.47,19.2-0.19c-13.42,6.95-29.44,7.84-44.02,4.52
	c-8.13-1.77-15.4-6.02-22.14-10.74c-3.36-2.58-7.31-5.57-7.87-10.07C481.03,214.11,485.7,208.99,484.22,202.72z"/>
<path fill="#FFFFFF" d="M417.5,222.66c4.65-1.14,10.11-1.16,14.08,1.88c2.83,2.18,3.39,6.16,2.51,9.45
	c-0.98,4.98-5.69,8.07-10.14,9.73c-4.41,1.67-10.37,1.87-13.58-2.15c-2.73-4.27-1.5-9.77,0.07-14.25
	C411.35,224.31,414.86,223.55,417.5,222.66 M422.03,223.14c-3.26,0.47-5.6,3.76-4.84,7.01c0.75,4.49,4.03,9.24,8.82,9.88
	c5.17-0.18,7.42-6.66,6.01-10.98C431.06,224.71,426.34,221.82,422.03,223.14z"/>
<path fill="#FFFFFF" d="M333.45,231.06c1.01-2.48,2.42-4.77,3.58-7.18c6.31,0.86,13.13,0.3,18.94,3.29
	c2.44,3.24,2.23,8.14-0.14,11.4c-3.46,4.82-10.12,7.3-15.84,5.57C334.75,242.59,331.22,236.21,333.45,231.06 M340.42,226.37
	c-3.52,2.52-4.87,7.62-3.23,11.59c1.68,4.04,7.81,5.07,10.77,1.87c1.77-1.8,2.5-4.4,2.52-6.87
	C351.14,227.96,344.51,224.55,340.42,226.37z"/>
<path fill="#FFFFFF" d="M288.48,258.67c5.41-1.7,11.21-0.08,15.8,2.98c-0.57,3.77-1.27,7.53-1.93,11.29
	c-4.71-8.28-17.43-8.93-23.99-2.63c-2.86,2.72-3.08,6.95-2.34,10.6c2.84-2.06,3.18-5.89,5.58-8.28c2.98-2.52,7.13-3.79,11.01-3.06
	c2.89,0.52,5.29,3.34,4.87,6.35c-0.71,4.6-4.96,8.3-4.06,13.2c0.56,4.22,3.98,7.18,7.45,9.22c0.71,2.5,1.45,5,2.21,7.5
	c-3.27,2.03-7.14,3.51-11.01,2.54c-7.33-1.63-13.22-7.11-17.32-13.17C266.51,282.39,274.06,263.06,288.48,258.67z"/>
<path fill="#FFFFFF" d="M459.07,264.29c4.74-3.75,10.71-6.44,16.89-5.5c7.81,1.02,16.14,6.68,16.71,15.14
	c0.6,9.15-3.49,17.9-8.44,25.35c-4.46,5.94-8.77,13.48-16.84,14.64c-3.46-3.33-6.42-7.18-10.3-10.04c0.08-0.61,0.26-1.84,0.35-2.45
	c3.24-0.4,7.11-0.83,8.94-3.96c3.6-6.29,1.15-14.17,4.47-20.56c2.41-4.54,8.61-5.68,13.1-3.88c1.2,0.34,1.36,1.78,1.69,2.79
	c0.75,3.23,1.25,6.53,2.5,9.63c3.37-4.15,3.2-11.13-1.41-14.31c-5.9-4.1-14.44-3.73-20.24,0.38c-3.9,2.72-5.52,7.78-4.68,12.35
	c0.72,4.55,1.93,10.28-2.58,13.33C460.21,286.24,459.82,275.25,459.07,264.29z"/>
<path fill="#FFFFFF" d="M300.79,292.74c-2.43-2.27-1.91-5.89,0.03-8.28C301.01,287.21,301,289.98,300.79,292.74z"/>
<path fill="#FFFFFF" d="M392.16,339.61c7.27,0.49,13.62-4.13,20.79-4.19c3.07-0.29,3.28,3.37,4,5.54c0.76,4.6,2.54,9.73,0.26,14.15
	c-5.07,1.91-9.84,4.77-15.19,5.85c-3.39,0.78-7.64-0.74-8.44-4.43C392.23,350.98,393.25,345.2,392.16,339.61z"/>
<path fill="#FFFFFF" d="M345.2,341.24c12.06,0.51,24.2,0.82,36.19-0.91c-1.06,7.55-0.05,15.59-3.28,22.7
	c-2.84,4.83-8.99,5.94-14.03,7.12c-5.86,1.15-13.49,1.69-17.34-3.88C342.08,358.77,344.24,349.46,345.2,341.24z"/>
<path fill="#FFFFFF" d="M341.06,382.08c10.68-8.11,24.28-11.87,37.58-11.65c-1.37,2.28-4.12,2.72-6.31,3.87
	c-14.54,6.61-29.12,15.72-36.71,30.32c-6.86,12.25-7.08,26.6-10.19,39.97c-1.42,6.3-3.89,12.49-8.23,17.37
	c0.25-5.73-0.9-11.69-4.73-16.14c-0.41,8.72-0.56,18.33-6.05,25.62c-5,6.49-14.25,6.92-21.6,5.16c-7.83-1.85-13.73-7.87-18.35-14.12
	c-3.02-4.26-7.56-7.37-9.79-12.2c-1.82-3.97-1.39-9.49,2.48-12.1c6.56-4.81,14.46-7.25,22.05-9.89c7.82-2.59,16.25-5.49,24.49-3.04
	c1.25,3.9,1.32,8.5-1.52,11.75c-5.46,6.42-14.02,8.47-21.1,12.5c11.08,2.8,20.15-5.5,27.73-12.25c0.39,0.45,1.17,1.35,1.56,1.8
	c1.98-5.27,1.84-11.17,4.53-16.2c1.92-3.38,2.37-7.3,3.65-10.92C324.36,400.32,331.22,389.48,341.06,382.08 M276.1,434.16
	c-3.93,2.55-8.8,3.63-12.03,7.21c2.65,2.52,6.42,3.19,9.97,3.09c8.02-0.41,16.02-3.16,22.51-7.93c2.83-1.73,2.94-6.95-0.52-7.97
	C288.88,426.7,282.13,430.87,276.1,434.16z"/>
<path fill="#FFFFFF" d="M355.35,388.04c8.05-3.43,15.31-10.21,24.64-9.28c2.79-0.18,4.81,2.2,5.29,4.76
	c1.22,5.57,0.48,11.32,1.24,16.95c-10.75,0.86-21.55,1.47-32.34,0.87C354.45,396.89,355,392.47,355.35,388.04z"/>
<path fill="#FFFFFF" d="M306.84,421.34c1.59,0.46,3.16,0.98,4.74,1.49c-0.35,0.6,0.07,1.95-0.99,1.93
	C309.19,423.78,308,422.57,306.84,421.34z"/>
<g id="_x23_252122ff">
	<path fill="#252122" d="M341.078,62.32h6.807c10.043,0.423,20.046,1.742,29.842,4.007c7.103,1.698,14.186,3.488,21.177,5.597
		c11.286,3.432,22.495,8.178,31.348,16.171c10.606,9.444,16.802,23.562,16.763,37.74c0.048,2.513-0.919,4.866-1.83,7.155
		c-0.535,1.43-2.988,1.43-3.46-0.044c-0.204-3.823-0.192-7.658-0.395-11.481c-1.354-11.741-6.931-23.142-16.02-30.821
		c-9.604-8.006-21.548-12.456-33.445-15.82c3.807,1.882,7.606,3.787,11.202,6.052c4.267,2.709,7.838,6.416,10.702,10.562
		c0.975,1.458,2.041,2.884,2.665,4.542c-2.381-1.742-4.306-4.003-6.5-5.956c-5.305-4.934-12.025-7.854-18.376-11.154
		c-6.092-3.048-12.12-6.272-18.488-8.713c-1.854-0.739-3.843-0.999-5.785-1.39c-8.162-1.546-16.439-2.497-24.74-2.736
		c-12.42-0.312-25.192,0.587-36.765,5.457c-5.653,2.393-11.03,5.833-14.785,10.77c-0.284,0.599-1.37,0.851-1.458-0.008
		c1.286-4.522,5.225-7.638,9.128-9.911C311.56,65.176,326.469,62.607,341.078,62.32z"/>
	<path fill="#252122" d="M287.291,77.081c-0.088-3.496,0.731-7.466,3.671-9.696c-1.19,3.104-0.831,6.48-0.911,9.728
		c-0.076,0.851-0.188,1.938-1.027,2.393C287.655,79.825,287.363,78.055,287.291,77.081z"/>
	<path fill="#252122" d="M283.512,73.481c0.208-0.999,0.048-2.133,0.643-3.012c0.463,3.452,0.999,6.907,1.962,10.259
		c0.208,0.991,0.507,2.129,0.012,3.08c-0.951,0.515-1.646-0.595-2.069-1.278C282.645,79.729,283.189,76.469,283.512,73.481z"/>
	<path fill="#252122" d="M323.393,72.323c6.228-0.939,12.86-1.378,18.828,1.011c-0.216,0.272-0.531,0.296-0.835,0.204
		c-6.296-1.186-12.712,0.116-18.828,1.65c-5.833,1.574-11.757,3.072-17.158,5.845c-3.659,1.87-6.975,4.49-9.384,7.842
		c-0.831,1.234-2.473,1.246-3.691,0.643c-1.626,0.268-3.288,0.096-4.906,0.411c-5.813,0.979-11.262,3.663-15.888,7.267
		c-1.147,0.855-2.089,1.953-3.252,2.784c2.729-3.939,6.532-7.047,10.594-9.528c1.466-0.947,3.128-1.538,4.582-2.505
		c-0.28,0.012-0.839,0.036-1.119,0.044c-9.811,3.316-18.205,10.103-24.357,18.345c-4.95,6.636-8.561,14.274-10.507,22.323
		c-0.515,2.257-1.039,4.534-1.127,6.859c3.595-11.869,10.291-22.623,18.528-31.819c0.256-0.256,0.539-0.475,0.855-0.659
		c-0.176,0.328-0.36,0.647-0.563,0.959c-7.79,10.554-12.113,23.182-15.376,35.758c-1.534,6.164-2.609,12.484-2.565,18.852
		c0.032,3.715,0.212,7.43,0.08,11.15c0.308,2.341,1.174,4.614,2.345,6.663c0.795,1.462,2.265,2.489,2.713,4.147
		c7.922-0.156,15.524,2.525,22.851,5.253c-0.911-2.86-0.959-5.88-1.35-8.833c-1.35-11.357-1.091-23.086,2.321-34.08
		c0.396-1.095,0.551-2.325,1.298-3.256c-1.59,8.709-2.485,17.633-1.442,26.47c0.479,4.239,1.087,8.469,1.941,12.648
		c0.611,2.852,1.714,5.705,1.282,8.673c7.027,2.968,13.91,6.284,20.658,9.843c0.667,0.32,1.178,0.859,1.666,1.402
		c1.918-1.486,4.243-2.285,6.588-2.784c8.481-1.858,17.142-2.772,25.791-3.392c-6.18-3.332-12.919-5.489-19.735-7.087
		c5.181-0.228,10.459,0.36,15.356,2.129c3.204,1.087,6.831,1.946,9.004,4.762c11.094-0.208,22.287,0.14,33.194,2.349
		c2.521,0.531,5.161,0.236,7.61,1.131c3.967-0.164,7.93-0.667,11.885-1.083c4.698-0.583,9.332-1.658,14.042-2.125
		c3.448-2.221,7.478-3.2,11.433-4.087c2.581-4.175,6.532-7.303,10.738-9.732c0.943-0.531,1.882-1.119,2.952-1.358
		c-2.884,3.727-6.711,6.624-9.632,10.335c7.339-1.103,14.801-1.147,22.192-0.631c-0.224-2.94,0.779-5.745,1.462-8.557
		c1.79-8.122,1.902-16.479,1.973-24.756c0.06-6.655,0.12-13.319,0.571-19.958l0.212-0.012c1.083,12.888,3.979,25.807,2.201,38.77
		c3.867-2.621,8.805-3.304,13.347-2.553c5.125,0.911,9.484,4.362,12.292,8.645c3.316-1.21,7.383-0.915,10.075,1.534
		c1.25,0.995,1.953,2.876,0.907,4.283c-1.806-0.735-3.128-2.337-5.038-2.844c-1.406-0.455-2.904-0.439-4.342-0.188
		c3.148,6.919,4.067,14.725,3.38,22.252c-0.527,6.108-2.573,12.013-5.497,17.374c0.515,4.686,0.895,9.432,0.751,14.166
		c-0.212,6.855-0.316,13.858-2.445,20.45c1.71,4.622,1.878,9.744,0.603,14.493c-0.471,1.546-1.378,3.268-3.056,3.723
		c-0.787,0.052-0.947-0.843-1.027-1.43c-0.332-2.884,1.139-5.581,1.063-8.453c0.228-5.341-1.55-10.814-5.177-14.785
		c-2.429-2.645-5.916-3.895-9.292-4.826c-1.538,1.774-3.08,3.571-4.954,5.01c2.389,0.887,4.251,2.844,5.273,5.153
		c1.814,3.939,1.898,8.381,1.834,12.64c-0.12,3.787-0.575,7.658-2.153,11.138c-0.352,0.855-0.999,1.582-1.242,2.481
		c-1.151,8.869-1.43,18.057,1.087,26.73c2.057,7.139,5.976,14.09,12.272,18.289c1.119,0.815,2.449,1.278,3.575,2.073
		c0.356,1.167-1.035,1.47-1.838,1.762c-2.772,0.887-5.657-0.423-7.754-2.209c-4.534-3.931-8.074-9.04-9.923-14.765
		c-2.497-7.686-3.124-15.968-1.93-23.957c0.467-3.611,1.29-7.291,3.336-10.363c-0.467-5.225,1.174-10.339,1.027-15.552
		c0.012-4.606-1.139-9.38-4.147-12.971c-1.858,1.242-4.063,2.181-6.34,1.918c-1.93-0.164-3.655-1.155-5.181-2.277
		c-1.949,8.345-4.187,16.619-6.268,24.928c-1.989,8.202-4.77,16.179-6.987,24.317c-1.095,3.627-2.469,7.662-5.88,9.744
		c-0.308,0.451-1.402,0.1-0.943-0.459c3.248-5.849,4.634-12.444,6.552-18.792c1.997-6.775,3.967-13.567,5.377-20.49
		c2.009-9.46,4.283-18.86,6.156-28.348c0.939-4.522,2.233-9.096,4.954-12.899c-7.387,3.044-15.412,4.434-23.39,4.207
		c-3.112-0.116-6.228-0.619-9.132-1.778c1.238,1.818,1.878,3.963,3.196,5.721c1.566,2.537,0.895,5.912-1.123,7.998
		c-4.267,4.582-10.614,6.256-16.563,7.339c-6.316,1.099-13.563,0.707-18.58-3.735c4.027-1.39,8.146,0.659,12.236,0.399
		c4.626-0.276,9.172-1.394,13.551-2.876c2.816-1.095,6.132-2.697,6.743-5.992c-0.655-1.099-1.075-2.305-1.562-3.476
		c-1.622-3.671-3.432-7.263-4.874-11.01c-1.586-4.299-2.613-8.841-2.804-13.423c1.774,5.577,4.814,10.598,7.738,15.624
		c7.071,1.862,14.509,2.421,21.748,1.29c4.546-0.707,9.048-1.762,13.391-3.304c3.38-1.222,6.412-3.392,9.991-4.039
		c0.1,0.12,0.304,0.368,0.404,0.487c-0.372,0.879-1.159,1.49-1.854,2.101c-2.369,1.866-5.209,2.984-8.014,4.011
		c0.084,1.167-0.136,2.317-0.312,3.464c-0.719,4.698-1.598,9.368-2.637,14.006c1.75,1.107,3.416,2.625,5.605,2.693
		c3.148,0.16,5.721-2.061,7.834-4.127c3.344-3.216,6.024-7.355,10.343-9.376c-2.325,3-4.442,6.152-6.715,9.192
		c5.829-0.112,11.014,3.759,13.914,8.597c0.487-4.634,1.127-9.256,1.478-13.902c0.352-4.782,0.228-9.588,0.727-14.358
		c-1.65,2.457-3.456,4.894-5.785,6.747c-0.148,0.012-0.443,0.036-0.595,0.048c2.289-7.395,7.938-13.235,9.991-20.729
		c1.666-6.284,2.549-12.999,0.935-19.391c-1.402-5.537-4.67-10.85-9.736-13.71c-3.911-2.145-8.665-3.016-13.007-1.806
		c-2.137,0.611-4.119,1.638-6.176,2.453c-0.759,3.519-0.567,7.45-2.732,10.511c3.388,0.372,6.811,0.615,10.119,1.486
		c0.208-2.037,1.31-4.119,3.248-4.978c2.229-0.967,4.798-0.655,7.031,0.148c2.756,0.935,5.293,2.736,6.755,5.297
		c1.886,3.248,2.141,7.163,1.814,10.826c-1.302-2.721-1.558-5.948-3.547-8.333c-2.137-2.353-5.101-4.007-8.277-4.39
		c-0.839-0.092-1.846,0.072-2.333,0.839c-0.411,0.703-0.575,1.514-0.827,2.285c0.719,0.563,1.502,1.107,1.938,1.946
		c-0.619,4.147-1.294,8.289-2.009,12.424c-0.675,4.127-1.814,8.697-5.329,11.337c0.02-1.574,0.703-3.04,0.999-4.574
		c1.015-3.923,1.47-7.954,2.149-11.941c0.332-2.257,1.494-4.243,2.253-6.36c-10.187-1.638-20.466-3.484-30.829-2.828
		c-6.3,0.391-12.672,0.939-18.736,2.756c-9.476,5.497-20.901,6.695-31.616,5.257c-1.69-0.324-3.42,0.036-5.105-0.284
		c-4.782-0.839-9.56-1.75-14.398-2.217c-13.706-1.115-27.549-1.906-41.243-0.228c-5.457,0.711-10.994,1.478-16.111,3.599
		c-0.032,1.131-0.719,2.069-1.81,2.393c-0.384,3.883,0.387,7.774,1.578,11.457c1.646,5.505,4.482,10.527,7.263,15.516
		c0.883,1.41,1.774,2.824,2.445,4.354c4.019,2.097,8.729,2.033,13.115,1.494c2.804-0.336,5.577-0.887,8.357-1.378
		c5.805-1.031,11.713-1.31,17.494-2.477c5.864-1.19,11.417-3.539,17.27-4.762c0.667-0.336,1.019,0.352,1.262,0.827
		c-5.01,4.302-11.721,5.669-18.045,6.767c-6.34,1.083-12.76,1.57-19.135,2.385c-5.046,0.623-10.163,1.147-15.229,0.455
		c-1.985-0.232-4.067-0.855-5.337-2.501c-2.213,0.356-4.239-0.959-5.677-2.513c-2.341-2.545-3.867-5.705-5.185-8.869
		c-6.124-3.559-12.44-6.787-18.712-10.075c1.602,6.791,1.662,13.818,1.49,20.757c-0.08,6.907,1.614,13.667,2.009,20.538
		c-0.795-0.919-1.135-2.105-1.566-3.212c-1.977-5.557-2.313-11.497-3.272-17.274c-1.302-7.45-1.918-15.021-1.858-22.583
		c-2.637-1.478-5.213-3.06-7.77-4.67c-2.065,7.426-0.911,15.189-1.526,22.771c-0.348,4.702-0.843,9.424-0.427,14.142
		c-0.655-0.088-0.575-0.867-0.767-1.33c-1.574-6.404-1.059-13.047-1.586-19.567c-0.388-6.08-0.707-12.324,0.987-18.245
		c-1.374-0.887-2.669-1.886-3.963-2.88c-4.023-0.124-7.211-3.16-11.106-3.887c-5.477-0.907-11.353,0.04-16.039,3.104
		c-4.982,3.096-8.857,8.409-9.048,14.422c-0.647-3.256-0.935-6.767,0.356-9.907c1.163-2.733,3.304-4.902,5.493-6.847
		c-1.69-1.434-4.247-1.051-5.785,0.415c-1.774,1.61-2.141,4.095-2.776,6.284c-0.539,2.277-1.21,4.526-1.614,6.831
		c0.579,3.703,1.075,7.426,1.434,11.162c0.655,6.779,1.746,13.515,2.209,20.314c0.26,3.575,0.931,7.243-0.028,10.774
		c1.426-0.216,3.34-0.24,4.095,1.254c0.088,0.835-0.851,1.278-1.534,1.434c-1.981,0.096-3.971,0.36-5.956,0.176
		c-2.165-0.204-4.366,0.084-6.512-0.38c2.573-0.176,4.97-1.135,7.395-1.93c-1.039-4.083-0.384-8.313-0.603-12.464
		c-0.503-7.351-1.618-14.645-2.037-22c-0.364-6.068-0.839-12.128-1.534-18.165c1.546,2.209,1.81,5.089,2.625,7.626l0.364,0.264
		c0.376-4.279,0.12-9.076,2.956-12.624c2.321-3.092,7.522-3.999,10.343-1.107c5.058-2.944,11.146-4.211,16.93-3.184
		c4.099,0.719,8.05,2.852,10.499,6.272c0.719,1.234,2.185,1.606,3.364,2.249c8.681,3.835,17.266,7.89,25.735,12.18
		c1.73,0.915,3.559,1.61,5.365,2.365c-1.143-4.598-2.701-10.035,0.104-14.33c-8.637-4.786-17.558-9.092-26.778-12.64
		c-5.002-2.021-10.071-4.063-15.44-4.87c-2.485-0.312-5.297-0.467-7.454,1.039c-1.063,0.719-1.554,1.945-1.898,3.132
		c-0.3,1.27-2.505,1.067-2.629-0.212c0.108-2.273,1.318-4.43,3.228-5.677c-2.385-2.245-3.879-5.253-4.818-8.353
		c-1.486-4.894-1.846-10.031-2.189-15.109c-0.595-8.941-0.36-18.029,1.766-26.774c2.856-11.657,8.493-22.763,16.93-31.372
		c5.361-5.585,10.986-11.266,18.169-14.45c-0.012-0.056-0.032-0.172-0.044-0.228c-4.798-1.61-9.867-0.423-14.777-0.268
		c-0.2-0.064-0.595-0.188-0.795-0.252c4.183-3.547,10.047-4.354,15.312-3.404c3.048,0.459,5.888,1.702,8.733,2.824
		c0.755,0.659,0.411,1.75,0.292,2.597c1.846-0.651,3.767-1.043,5.705-1.29c3.188-3.631,7.319-6.344,11.717-8.297
		C309.591,74.86,316.518,73.481,323.393,72.323z"/>
	<path fill="#252122" d="M302.839,110.258c2.633-2.505,6.292-3.623,9.815-4.171c7.063-0.919,14.174,0.647,20.869,2.824
		c9.244,3.128,18.097,7.474,26.119,13.043c4.61,3.036,9.895,6.132,11.893,11.593c0.168,0.807,0.979,2.113-0.16,2.553
		c-5.864-2.413-10.503-6.935-15.632-10.547c-8.134-5.717-16.962-10.511-26.318-13.886
		C320.968,108.628,311.528,107.474,302.839,110.258z"/>
	<path fill="#252122" d="M426.389,109.815c1.31-0.559,2.601,0.599,3.659,1.27c3.923,3.248,5.341,8.421,6.616,13.143
		c0.715,2.888,1.258,5.829,1.414,8.801c0.14,2.465-0.651,4.83-1.25,7.183c-0.38-1.774-1.302-3.388-1.582-5.185
		c-0.655-5.453-1.77-10.914-4.015-15.952C429.877,115.855,428.027,112.887,426.389,109.815z"/>
	<path fill="#252122" d="M288.721,123.929c1.838-4.015,4.099-7.974,7.367-11.002c-5.96,11.05-8.861,23.558-9.36,36.054
		c-0.216,7.071-0.427,14.182,0.392,21.229c0.747,5.849,2.9,11.681,1.826,17.629c0.068,0.683-0.871,1.262-1.322,0.611
		c-0.963-1.454-1.678-3.056-2.377-4.646c-4.306-10.391-4.39-21.976-3.06-32.982C283.444,141.682,284.986,132.43,288.721,123.929z"/>
	<path fill="#252122" d="M377.296,113.474c3.092,2.309,5.497,5.461,7.103,8.953c1.57,3.436,3.695,6.763,4.043,10.61
		c-0.18,0.12-0.535,0.352-0.715,0.467c-1.67-1.37-2.377-3.508-3.032-5.485C383.157,122.786,381.123,117.489,377.296,113.474z"/>
	<path fill="#252122" d="M365.08,115.028c0.655-0.296,1.234,0.232,1.806,0.475c3.535,1.874,6.979,4.103,9.544,7.227
		c1.778,2.225,3.711,4.426,4.738,7.123c0.479,1.274,0.619,3.064-0.619,3.963c-0.975,0.312-1.977-0.312-2.665-0.967
		c-1.722-1.782-2.417-4.231-3.547-6.376C371.891,122.183,368.663,118.396,365.08,115.028z"/>
	<path fill="#252122" d="M423.193,164.489c3.408-2.613,7.031-5.209,11.262-6.26c2.521-0.651,5.573-0.228,7.275,1.91
		c1.222,1.442,1.514,3.827,0.296,5.333c-1.155,0.627-1.778-0.907-2.497-1.522c-0.859-1.031-2.337-0.887-3.452-0.423
		c-4.702,1.738-8.961,4.434-13.251,6.983c-3.867,2.281-7.447,4.998-11.106,7.59c-3.296,2.313-5.94,5.373-8.797,8.178
		c-0.479,0.407-0.911,0.979-1.594,0.995c1.45-4.97,5.645-8.389,9.432-11.621C415.144,172.195,418.743,167.868,423.193,164.489z"/>
	<path fill="#252122" d="M303.227,164.393c2.804-2.629,6.823-3.519,10.57-3.288c6.404,0.252,12.252,3.172,17.805,6.104
		c6.152,3.2,11.893,7.139,17.27,11.505c2.772,2.321,5.425,5.321,5.729,9.088c-0.2,0.148-0.599,0.443-0.803,0.591
		c-3.476-1.19-6.296-3.639-9.084-5.94c-5.297-4.518-11.429-7.886-17.454-11.318c-5.085-2.884-10.722-4.994-16.611-5.265
		c-1.626-0.028-3.392,0.12-4.742,1.123c-0.851,0.579-1.095,1.626-1.618,2.453c-0.691,0.691-1.942,0.236-2.229-0.635
		C301.377,167.269,302.036,165.48,303.227,164.393z"/>
	<path fill="#252122" d="M510.538,173.637c3.132-0.811,6.124,1.442,7.474,4.135c2.141,4.295,2.337,9.264,1.974,13.966
		c-0.739,7.395-2.409,14.653-3.843,21.936c-1.786,7.914-1.866,16.515-6.252,23.602c-0.256,0.919-1.997,0.599-1.63-0.384
		c2.133-6.827,3.867-13.778,5.345-20.781c1.099-5.313,2.393-10.606,2.96-16.011c0.595-5.437,0.603-10.938-0.024-16.371
		c-0.284-2.009-0.683-4.127-1.958-5.769c-0.955-1.258-2.82-1.886-4.251-1.071c-1.714,0.991-2.601,2.88-3.344,4.63
		c-2.585,6.576-4.167,13.527-4.922,20.542c-0.064,0.431-0.192,0.851-0.316,1.266c-0.651-7.698-0.252-15.724,2.744-22.939
		C505.72,177.624,507.386,174.476,510.538,173.637z"/>
	<path fill="#252122" d="M522.478,187.883c1.162-2.169,3.36-3.927,5.908-3.903c2.784-0.012,5.509,1.522,7.131,3.759
		c1.127,1.49,1.015,3.747-0.38,5.03c-1.302,0-1.346-1.686-1.77-2.581c-0.435-1.953-2.249-3.36-4.187-3.595
		c-1.718-0.14-3.348,0.747-4.622,1.822c-2.201,1.961-3.324,4.798-4.111,7.57C520.345,193.176,521.172,190.352,522.478,187.883z"/>
	<path fill="#252122" d="M484.675,186.728c3.791,3.116,3.875,8.509,3.807,13.011c-0.296,5.062,0.128,10.127,0.891,15.129
		c0.575,4.135,1.107,8.281,1.93,12.38c0.324,1.626,0.691,3.276,0.503,4.95c3.116-5.681,4.235-12.132,6.52-18.137
		c0.947-2.265,1.934-4.618,3.667-6.404c0.052,0.583,0,1.159-0.148,1.726c-1.566,7.111-3.847,14.046-6.564,20.793
		c-1.031,2.385-2.317,4.806-4.466,6.36c-0.336,0.3-1.466,0.867-1.322-0.06c0.328-1.055,0.931-1.985,1.482-2.932
		c-3.232-2.657-2.924-7.271-3.348-11.038c-0.679-6.484-1.973-12.987-1.25-19.531C486.844,197.554,487.591,191.642,484.675,186.728z"
		/>
	<path fill="#252122" d="M210.07,195.437c1.965-1.834,5.173-2.413,7.514-0.967c1.254,0.731,1.618,2.389,1.043,3.675
		c-1.402-0.535-2.912-1.65-4.466-1.007c-1.734,0.903-2.804,2.673-3.607,4.39c-2.077,4.846-2.84,10.167-2.82,15.412
		c0.052,8.545,1.614,17.014,1.442,25.567c0.615,4.115,2.768,8.102,2.013,12.364c-0.116,0.192-0.34,0.575-0.451,0.763
		c-2.685-2.609-3.508-6.412-4.326-9.919c-1.466-5.944-2.964-11.889-3.911-17.941c-1.406-8.277-3.096-16.842-1.23-25.188
		c0.631,0.236,0.559,1.003,0.731,1.534c0.895,4.622,1.035,9.348,1.898,13.974c0.571,3.543,1.358,7.043,1.926,10.586
		c-0.208-8.094-1.678-16.271-0.116-24.321C206.403,201.114,207.557,197.738,210.07,195.437z"/>
	<path fill="#252122" d="M409.87,199.508c4.546-2.629,9.811-3.719,14.981-4.271c8.194-0.407,16.631-0.915,24.585,1.51
		c1.614,0.643,3.787,1.45,4.191,3.324c-0.144,0.14-0.431,0.415-0.579,0.555c-2.069-0.483-3.551-2.229-5.629-2.701
		c-5.425-1.478-11.158-1.646-16.723-1.055c-3.416,0.543-6.791,1.298-10.187,1.957c-1.286,0.128-2.017,1.306-3.024,1.969
		c-2.764,2.061-5.781,4.51-6.444,8.094c-0.06,0.875-0.447,2.077,0.408,2.693c1.25,1.135,2.76,1.922,4.294,2.601
		c-0.803-1.61-1.242-3.448-0.851-5.237c0.899-4.726,6.971-7.702,11.162-5.185c1.814,1.458,3.559,3.492,3.547,5.956
		c0.072,1.322-0.455,2.569-1.131,3.675c1.646-1.031,3.18-2.329,5.046-2.948c-2.677,4.35-7.734,6.855-12.7,7.438
		c-4.139,0.563-8.473-0.927-11.425-3.867c-1.993-1.886-1.894-5.066-0.807-7.395c1.075-2.309,3.02-4.015,4.89-5.677
		c-2.373,1.075-4.802,2.509-6.056,4.89c-0.407,3.456,0.407,6.955,1.566,10.203c0.567,1.622,0.999,3.344,2.025,4.758
		c0.823,1.019,1.898,1.814,2.589,2.944c-1.302,0.855-2.936,0.284-3.987-0.687c-3.316-2.956-4.834-7.426-5.169-11.753
		c-0.14-1.686,0.176-3.412,1.127-4.83C405.208,203.443,407.398,200.91,409.87,199.508z"/>
	<path fill="#252122" d="M531.738,202.137c0.563-2.413,0.859-4.898,1.638-7.259c1.182,5.864,0.152,11.849-0.687,17.685
		c-0.979,6.659-1.91,13.335-3.168,19.95c-0.947,4.938-2.465,9.799-4.862,14.234c-0.707,1.342-1.754,2.441-2.892,3.42
		c0.551-0.136,1.015-0.451,1.302-0.951c4.55-6.54,9.883-12.636,13.175-19.962c1.826-4.171,3.02-8.585,4.87-12.748
		c1.222-2.904,2.521-6.192,5.545-7.638c1.314-1.498,3.691-0.947,4.798,0.515c1.794,2.349,2.057,5.457,2.133,8.313
		c-0.044,5.781-1.23,11.481-2.681,17.054c-2.721,9.839-6.248,19.667-12.264,28.016c-0.863,1.131-1.654,2.341-2.689,3.324
		c-1.147,0.575-2.481-1.035-1.57-2.005c3.567-5.489,7.259-10.982,9.628-17.122c2.061-5.461,3.703-11.086,4.938-16.791
		c1.242-6.32,2.86-13.059,0.675-19.359c-0.479-1.342-2.081-0.731-3.08-0.507c-0.787,2.169-2.157,4.075-2.896,6.264
		c-1.945,5.365-3.328,10.97-6.052,16.02c-3.671,7.087-7.47,14.438-13.655,19.691c1.494,1.218,2.976,2.569,3.791,4.354
		c0.659,1.41,0.743,3.12,0.1,4.558c-0.292,0.495-1.071,0.551-1.394,0.072c-1.906-1.946-2.569-4.818-4.702-6.572
		c-2.593-2.137-5.661-3.587-8.337-5.609c-4.73-3.5-9.552-7.399-15.552-8.317c1.326-1.095,3.368-0.675,4.974-0.551
		c6.308,1.242,10.714,6.42,16.399,9.04c0.531-1.886,1.985-3.276,2.876-4.974c2.868-5.225,3.979-11.166,5.026-16.97
		C528.419,218.879,530.009,210.494,531.738,202.137z"/>
	<path fill="#252122" d="M436.752,197.359c0.356-1.039,2.257-0.799,2.193,0.344c0.072,2.84-0.308,5.96-2.285,8.162
		C437.978,203.127,436.452,200.203,436.752,197.359z"/>
	<path fill="#252122" d="M194.93,198.785c1.682-0.356,3.715-0.348,5.03,0.931c0.831,0.799,0.867,2.009,0.863,3.084
		c-2.001-0.072-4.187-1.614-6.048-0.216c-1.954,1.602-3.348,3.891-3.943,6.344c-1.402,5.613-2.021,11.433-1.63,17.21
		c0.403,6.06,1.63,12.021,2.709,17.985c0.907,4.914,2.705,9.588,4.159,14.35c0.419,0.907-1.155,1.586-1.558,0.655
		c-4.039-5.046-4.398-11.793-5.509-17.905c-1.83-9.168-3.192-18.524-2.621-27.896c0.248-3.571,0.907-7.259,2.912-10.295
		C190.627,201.058,192.521,199.272,194.93,198.785z"/>
	<path fill="#252122" d="M442.145,199.352c0.755,0.04,1.031,0.791,1.338,1.362c1.638,3.272,1.902,7.023,1.77,10.622
		c-0.048,2.185-0.024,4.402-0.567,6.54c0.559-0.108,1.123-0.216,1.69-0.312c3.919-4.578,5.257-10.818,5.469-16.683
		c0.208-0.028,0.631-0.084,0.843-0.108c0.631,4.994,0.008,10.247-2.333,14.749c-1.334,2.573-3.655,4.902-6.663,5.233
		c-3.364,0.983-6.608,2.413-10.083,3.016c-5.809,1.043-11.809,1.965-17.681,0.891c5.054-1.159,10.299-1.151,15.364-2.253
		c3.196-0.719,6.384-1.538,9.44-2.725c-0.475-2.257,0.515-4.41,1.071-6.552C442.836,208.596,441.937,203.934,442.145,199.352z"/>
	<path fill="#252122" d="M324.62,201.753c10.051-2.245,20.51-2.84,30.713-1.35c2.768,0.364,5.665,0.643,8.154,2.013
		c1.007,0.587,2.281,1.554,1.67,2.884c2.165,2.956,1.802,6.831,1.306,10.251c-0.34,2.373-0.975,5.201-3.428,6.236
		c-1.662,2.329-4.598,2.832-7.107,3.775c-7.85,2.725-16.195,3.324-24.345,4.634c-4.426,0.667-8.988,1.322-13.431,0.411
		c-1.949-0.384-3.759-1.286-5.281-2.545c-1.634,0.387-2.689-1.186-3.428-2.369c-1.79-3.288-2.049-7.123-2.369-10.778
		c-0.156-2.796-0.192-5.964,1.674-8.257c0.404-0.667,1.222-0.487,1.794-0.176C314.84,203.926,319.758,202.728,324.62,201.753
		 M336.313,202.54c1.794,0.579,4.003,0.723,5.345,2.145c-6.048,1.226-12.704-0.547-18.305,2.653
		c0.839,1.618,0.707,3.571,1.662,5.165c1.446,2.545,3.168,4.954,4.183,7.722c-4.566-1.798-7.97-6.084-9.232-10.766
		c0.607-2.705,2.621-4.862,5.093-6.008c-4.838,0.763-9.616,1.954-14.174,3.763c-0.787,3.911,0.056,7.886,1.083,11.665
		c0.775,2.609,1.894,5.221,1.678,8.006c5.521,3.204,12.22,2.029,18.201,1.067c7.586-1.47,15.412-1.85,22.751-4.454
		c2.393-0.639,4.486-2.121,6.947-2.521c-0.775-2.409,0.487-4.746,0.887-7.083c0.368-2.685,0.104-5.417,0.603-8.086
		c-4.023-1.286-8.138-2.345-12.364-2.693c2.621,1.41,5.054,3.328,6.64,5.88c0.555,0.871,0.823,1.894,0.743,2.928
		c1.43,1.139,0.26,2.836-0.411,4.059c-2.96,4.85-8.769,7.243-14.27,7.47c-3.116,0.052-6.48-0.284-9.132-2.053
		c2.209-0.064,4.418-0.036,6.628-0.088c-1.742-0.915-3.404-2.397-3.715-4.442c-0.188-2.185,0.024-4.59,1.478-6.344
		c1.402-1.626,3.272-3.292,5.573-3.124c2.093,0.376,4.358,0.827,5.908,2.413c0.887,0.971,1.786,1.981,2.389,3.16
		c0.743,1.686-0.052,3.496-0.735,5.058c1.418-1.123,2.625-2.485,3.575-4.023c-1.682-4.438-5.833-7.411-10.143-9.024
		c1.578-0.216,3.144,0.148,4.67,0.511c-1.202-0.903-2.485-1.702-3.563-2.756C342.98,202.488,339.644,202.372,336.313,202.54z"/>
	<path fill="#252122" d="M379.27,204.889c3.823-2.585,8.737-3.591,13.251-2.577c2.437,0.583,4.842,1.886,6.268,3.995
		c0.04,0.16,0.12,0.471,0.164,0.631c-3.036-0.395-5.681-2.497-8.825-2.257c-3.851,0.32-7.81,1.674-10.531,4.522
		c-4.474,4.862-5.573,12.248-11.118,16.231c0.427-1.638,1.274-3.112,1.918-4.666c0.951-2.213,1.314-4.634,2.373-6.803
		C374.312,210.574,376.102,207.046,379.27,204.889z"/>
	<path fill="#252122" d="M235.25,210.258c2.109-2.868,5.573-4.662,9.1-4.986c7.379-0.435,15.328,3.959,17.534,11.282
		c0.611,1.45-0.415,2.908-1.758,3.428c-1.938,4.223-3.46,8.665-4.115,13.279c-0.128,1.107-0.076,2.357,0.687,3.244
		c1.206,1.45,3.535,1.019,4.694,2.529c0.671,0.775-0.332,1.642-0.999,1.973c-1.942,0.795-4.115-0.14-5.705-1.294
		c-2.605-2.073-3.296-5.657-3.24-8.821c0.248-4.782,1.898-9.604,5.042-13.263c-1.694-5.277-7.57-8.785-13.019-7.774
		c-2.804,0.431-5.381,2.225-6.628,4.794c-0.803,1.462-0.947,3.148-1.334,4.742C235.106,216.418,233.536,213.087,235.25,210.258z"/>
	<path fill="#252122" d="M437.907,211.98c1.226-1.79,1.778-3.927,2.928-5.753c0.871,1.163,0.631,2.752,0.176,4.035
		c-1.051,2.629-3.144,4.674-5.341,6.38c-1.846,1.426-4.055,2.657-6.472,2.453c0.312-0.599,1.003-0.791,1.55-1.107
		C433.548,216.574,436.237,214.697,437.907,211.98z"/>
	<path fill="#252122" d="M459.791,207.542c1.538-0.703,3.448-0.212,4.382,1.214c1.674,2.453,2.077,5.641,1.654,8.529
		c-0.975,3.731-3.148,7.239-6.28,9.532c-1.762,1.21-3.947,2.177-6.108,1.89c-0.048-0.156-0.148-0.459-0.196-0.611
		c2.9-2.952,6.26-5.697,7.894-9.616c0.815-2.077,1.486-4.438,0.759-6.64C461.305,210.35,460.226,209.1,459.791,207.542z"/>
	<path fill="#252122" d="M315.052,211.433c0.691,0.559,0.875,1.458,1.222,2.233c1.071,2.657,2.457,5.397,4.954,6.979
		c2.685,1.818,6.024,1.993,9,3.076c0.408,0.723-0.783,0.775-1.19,0.979c-3.368,0.931-6.955-0.439-9.472-2.705
		C316.634,219.379,314.544,215.448,315.052,211.433z"/>
	<path fill="#252122" d="M228.275,215.591c0.779,4.103,2.329,8.058,4.702,11.505c4.894,7.219,11.857,12.628,17.733,18.984
		c0.867,1.015,1.662,2.193,1.786,3.559c0.172,1.67,0.863,3.216,1.378,4.802c1.566,4.426,3.583,8.885,7.019,12.188
		c1.294,1.015,2.876,2.085,4.614,1.742c2.293-0.368,3.931-2.213,6.06-2.984c0.887-0.256,1.786-0.467,2.697-0.639
		c1.007-0.072,1.746,0.731,2.277,1.486c3.995,5.457,6.432,11.817,9.036,18.005c1.977,4.782,3.983,9.56,5.549,14.493
		c0.887,2.788,1.918,5.529,3.072,8.217c-0.128-0.028-0.387-0.084-0.515-0.112c-3.332-4.299-6.008-9.064-8.273-14.002
		c-2.701-5.269-5.07-10.702-7.71-16c-2.189,0.084-4.211,1.063-6.028,2.217c-3.296,2.109-6.156,4.802-9.168,7.283
		c-4.59,4.099-6.448,10.211-7.898,15.988c-0.288,1.486-1.063,2.944-0.755,4.49c0.607,4.642,0.595,9.476-0.911,13.954
		c-1.174,3.512-3.244,6.663-5.633,9.472c1.238,2.373,1.438,5.09,1.474,7.718c0.016,3.292,0.927,6.639,0.036,9.887
		c0.627-0.024,1.466-0.044,1.306,0.859c-1.706,2.816-4.934,4.163-7.962,5.046c-9.963,2.653-20.374,2.621-30.601,2.201
		c-3.292-0.148-6.548-0.651-9.803-1.115c-3.823-0.603-7.91-1.398-10.862-4.095c0.156-0.567,0.511-0.831,1.067-0.791
		c2.177,0.06,4.263,0.739,6.396,1.115c2.285,0.396,4.602,0.567,6.911,0.747c-0.116-0.555-0.232-1.107-0.348-1.658
		c-2.744-0.008-5.505,0.152-8.225-0.292c-0.348-0.012-0.611-0.164-0.783-0.459c2.916-0.711,5.761-1.93,8.817-1.878
		c-0.228-2.441-0.439-4.966,0.399-7.319c-5.385-2.241-9.847-6.272-13.407-10.826c-4.926-6.352-7.886-13.946-10.275-21.552
		c-2.752-8.869-4.87-17.957-8.445-26.554c3.048,5.401,5.209,11.25,7.562,16.978c3.176,7.886,6.324,15.86,10.87,23.078
		c3.44,5.461,7.842,10.475,13.475,13.73c4.35,2.585,9.34,3.871,14.346,4.346c0.044,0.116,0.136,0.352,0.18,0.467
		c-3.068,2.169-7.099,2.341-10.666,1.562c0.076,2.425,0.04,4.886,0.623,7.259c0.28,1.107,0.467,2.233,0.551,3.376
		c4.123,0.18,8.249,0.108,12.376,0.124c4.794,0.012,9.624-0.028,14.362-0.879c3.112-0.559,6.024-1.85,9.052-2.717
		c-1.362-2.217-1.238-4.91-1.119-7.402c0.168-2.836-0.032-5.677,0.052-8.513c-3.144,2.249-6.863,3.44-10.475,4.698
		c0.587-0.867,1.506-1.402,2.309-2.041c3.659-2.804,7.478-5.597,10.111-9.452c4.386-6.628,4.85-14.809,6.152-22.423
		c0.136-0.076,0.403-0.232,0.535-0.308c0.471-3.947,1.127-7.974,3.012-11.525c1.782-3.392,4.207-6.384,6.524-9.416
		c2.265-2.788,4.942-5.353,8.186-6.959c1.65-0.839,3.535-1.198,5.369-0.903c-1.127-1.926-2.305-3.823-3.635-5.613
		c-0.879,1.33-2.137,2.433-3.683,2.904c-2.932,0.983-6.14,0.384-8.877-0.907c-3.424-0.088-6.707,1.742-8.877,4.346
		c-1.31,1.622-3.072,2.928-3.895,4.878c-2.681,1.574-5.936,1.386-8.821,2.365c-4.966,1.858-9.276,5.361-12.124,9.835
		c-2.836,4.227-4.406,9.204-4.894,14.25c-0.923-6.616,0.399-13.726,4.45-19.14c3.663-4.982,9.2-8.385,15.141-9.939
		c1.946-0.487,4.047-0.615,5.948,0.116c2.233-4.047,5.437-7.91,9.955-9.432c-3.675-4.63-6.064-10.547-5.609-16.523
		c-3.847-0.755-5.94-4.41-8.441-7.051c1.566,7.498,1.234,15.236,0.827,22.843c-0.14,3.108-0.12,6.28-0.999,9.296
		c-0.851-1.155-0.647-2.749-0.847-4.103c-0.044-4.159-0.403-8.301-0.575-12.452c-0.292-5.449-0.276-10.978-1.642-16.295
		c-0.284-1.063-0.336-2.173-0.615-3.232c-2.069-2.369-4.243-4.678-5.948-7.339C229.841,228.015,227.728,221.807,228.275,215.591z"/>
	<path fill="#252122" d="M164.013,222.515c1.222-0.827,2.569,0.056,3.719,0.563c-1.222,0.368-2.533,0.783-3.348,1.834
		c-1.642,1.997-1.91,4.714-1.985,7.203c-0.048,5.809,1.39,11.481,2.637,17.114c1.167,5.145,2.545,10.239,4.027,15.3
		c0.971,3.316,2.301,6.604,2.325,10.115c-0.188-0.096-0.563-0.284-0.751-0.38c-1.33-1.658-2.133-3.667-2.848-5.649
		c-3.523-11.206-6.815-22.599-7.774-34.36v-3.112C160.35,228,161.073,224.272,164.013,222.515z"/>
	<path fill="#252122" d="M168.859,225.495c3.547,3.52,4.35,8.681,5.757,13.267c1.462,4.558,3.22,9.036,5.377,13.319
		c1.742,3.44,3.971,6.703,4.89,10.499c-0.711,0.288-1.21-0.423-1.726-0.775c-4.303-3.767-6.504-9.244-8.361-14.509
		c-1.498-4.298-2.864-8.665-3.555-13.175C170.78,231.163,170.133,228.215,168.859,225.495z"/>
	<path fill="#252122" d="M359.619,241.802c-2.109-2.613-1.43-7.091,1.594-8.661c-0.639,1.494-1.091,3.212-0.392,4.778
		c1.31,3.168,4.83,4.87,8.13,4.934c1.55,0.16,3.212-0.415,4.682,0.256c0.727,0.392,0.256,1.426-0.14,1.906
		c-1.155,1.21-2.956,1.51-4.554,1.478C365.407,246.212,361.76,244.73,359.619,241.802z"/>
	<path fill="#252122" d="M416.814,237.443c4.486,3.46,7.434,8.621,9.048,13.99c2.561,8.821,1.858,18.46-1.458,26.985
		c-0.252,0.587-0.427,1.262-0.983,1.646c0.887-9.704,2.245-19.623,0.092-29.263C422.482,245.853,420.165,241.223,416.814,237.443z"
		/>
	<path fill="#252122" d="M343.919,242.952c0.455-0.352,0.891-0.819,1.498-0.879c-9.068,8.733-15.516,20.526-16.531,33.193
		c-0.779,8.537,1.115,17.098,4.255,25.004c0.479,1.37,1.234,2.649,1.522,4.083c-4.918-5.161-7.89-12.049-8.809-19.088
		C323.904,269.263,331.651,253.047,343.919,242.952z"/>
	<path fill="#252122" d="M270.249,250.031c2.848,1.127,5.245,3.188,8.114,4.314c3.392,1.434,6.995,2.269,10.447,3.535
		c1.422,0.427,1.698,2.501,0.555,3.384c-0.787,0.691-1.874,0.348-2.776,0.136c-4.662-1.23-9.292-3.108-12.987-6.284
		C272.123,253.735,270.577,252.109,270.249,250.031z"/>
	<path fill="#252122" d="M191.718,261.788c1.234-0.631,2.281-2.013,3.815-1.69c0.659,0.356,0.551,1.306,0.296,1.894
		c-0.623,1.214-1.914,1.874-3.092,2.441c-2.84,1.246-5.996,2.477-9.128,1.61C185.685,263.606,189.141,263.458,191.718,261.788z"/>
	<path fill="#252122" d="M410.769,261.549c2.225-0.971,4.826-1.977,7.219-0.987c2.932,1.29,4.442,4.778,3.859,7.854
		c-0.164,1.582-1.135,2.868-1.942,4.179c-0.723,3.955-1.374,7.942-2.513,11.813c-1.278,4.143-1.818,8.629-4.311,12.292
		c2.768,6.667,3.236,14.266,1.546,21.265c-1.326,5.593-5.157,10.415-10.171,13.179c-4.055,2.345-8.605,3.607-13.115,4.754
		c-7.091,1.914-14.138,4.786-21.616,4.45c-4.63-0.144-9.512-1.79-12.424-5.573c-3.531-4.45-4.203-10.451-3.615-15.936
		c-3.635-0.288-6.855-2.421-9.256-5.057c-0.991-1.103-1.838-2.349-2.313-3.759c3.24,3.116,7.698,4.614,12.132,4.814
		c0.364-1.973,0.755-3.943,1.174-5.904c-4.163,0.088-7.826-2.337-10.854-4.958c-6.256-5.537-10.391-13.443-11.118-21.792
		c0.795,1.27,1.482,2.609,2.345,3.839c2.125,2.976,3.635,6.348,5.908,9.228c2.233,2.816,4.698,5.577,7.846,7.387
		c2.045,1.202,4.45,1.43,6.719,1.949c0.935-5.229,1.49-10.794-0.427-15.876c-1.266-3.539-4.051-6.639-7.706-7.766
		c-4.259-1.79-9.112-3.635-11.489-7.89c-1.69,1.666-2.717,3.823-3.603,5.988c-1.334-2.397-1.274-5.521,0.396-7.738
		c2.249-3.124,6.224-4.302,9.879-4.722c5.944-0.547,11.881,0.583,17.701,1.67c5.453,1.087,10.858,2.397,16.327,3.408
		c5.713,1.027,11.509-0.092,17.09-1.326c1.139-0.3,2.405-0.244,3.404-0.955C402.16,266.786,406.051,263.442,410.769,261.549
		 M411.053,264.253c-4.43,1.698-8.433,4.386-12.999,5.757c-0.451,0.144-0.923,0.172-1.39,0.188
		c-6.232,4.171-14.102,4.506-21.309,3.504c-9.18-1.29-18.273-3.559-27.589-3.611c-2.936,0.064-5.968,0.24-8.701,1.43
		c1.77,1.171,3.32,2.669,5.217,3.651c1.486,0.795,3.02,1.494,4.558,2.185c3.14,1.358,6.088,3.136,9.316,4.29
		c4.438,1.734,9.152,2.677,13.906,2.88c-5.042,0.419-10.147,0.088-15.117-0.851c1.946,2.105,3.476,4.666,4.007,7.514
		c1.554,7.387-0.028,14.921-1.27,22.232c-0.755,4.934-1.538,10.171,0.14,15.005c1.035,3.076,3.703,5.437,6.819,6.264
		c5.948,1.678,12.136,0.136,17.941-1.394c1.31-1.993,3.328-3.344,4.878-5.121c3.052-4.766,4.45-10.399,5.026-15.976
		c0.392,4.023,1.155,8.066,0.743,12.121c-0.248,2.489-1.23,4.826-2.433,6.999c3.975-1.067,7.994-2.401,11.294-4.938
		c3.056-2.341,5.086-5.821,6.08-9.504c1.53-5.597,1.023-11.581-0.679-17.078c-1.878-6.188-5.297-11.773-9.176-16.898
		c-3.667,1.25-7.47,2.113-11.329,2.485c1.678,2.441,2.557,5.313,3.244,8.166c1.031,4.219,1.878,8.825,0.224,12.999
		c-1.139-3.276-1.618-6.767-2.948-9.991c-1.178-3.316-3.376-6.096-5.305-8.992c-0.435-0.559-0.507-1.266-0.575-1.942
		c-2.021-0.08-4.051-0.16-6.04-0.555c1.358-0.447,2.796-0.551,4.207-0.771c6.987-1.023,14.178-1.981,20.502-5.341
		c6.212-3.12,11.138-8.186,15.46-13.527c-0.396-0.727-0.871-1.482-1.678-1.79C414.413,262.931,412.631,263.674,411.053,264.253
		 M403.666,281.555c2.784,3.627,5.521,7.319,7.666,11.373c1.918-2.637,3.432-5.581,4.51-8.661c0.947-2.948,1.55-5.992,2.281-8.996
		c0.459-1.638,0.112-3.348,0.184-5.018C414.54,275.239,409.363,279.05,403.666,281.555z"/>
	<path fill="#252122" d="M390.947,263.586c2.553-0.699,4.97-2.253,7.69-2.105c-1.063,2.229-3.535,3.372-5.773,4.091
		c-4.139,1.091-8.865,0.923-12.616-1.278C383.804,264.033,387.483,264.729,390.947,263.586z"/>
	<path fill="#252122" d="M472.271,274.696c1.218-0.819,2.904,0.012,4.151,0.523c4.514,2.489,7.227,7.167,9.492,11.625
		c2.753,5.749,5.649,12.12,4.231,18.636c0.072,0.703-0.915,1.171-1.234,0.435c-1.718-3.943-2.561-8.194-3.895-12.268
		c-0.999-3.228-2.437-6.308-4.135-9.22c-1.274-2.129-2.76-4.183-4.722-5.721c-1.174-0.959-2.469-1.754-3.627-2.724
		C472.039,275.742,471.883,275.083,472.271,274.696z"/>
	<path fill="#252122" d="M529.789,282.606c0.372-1.015,0.763-2.025,1.334-2.948c0.152,0.14,0.451,0.419,0.599,0.559
		c0.32,5.525-0.795,11.058-2.505,16.295c-3.867,11.341-10.954,21.804-20.813,28.759c0.028,0.819,0.064,1.642,0.1,2.469
		c2.565-0.799,5.209-0.092,7.814,0.056c2.081,0.224,4.35,0.24,6.18,1.374c-0.26,1.462-2.297,1.242-3.448,1.354
		c-1.474,2.713-4.778,3.368-7.51,4.087c-6.64,1.762-13.487,2.852-20.37,2.641c-5.397-0.148-10.998-0.791-15.804-3.432
		c-1.41-0.799-2.744-1.774-3.759-3.048c4.159,0.971,8.138,2.713,12.408,3.208c6.951,0.763,14.01,0.164,20.817-1.378
		c-0.032-1.862,0.328-3.687,0.663-5.505c-7.067,4.119-15.812,5.621-23.698,3.112c-1.53-0.575-3.26-0.903-4.526-1.981
		c6.424,0.715,13.043,0.699,19.263-1.246c5.928-1.77,11.31-5.169,15.624-9.58c4.922-5.054,8.897-11.022,11.661-17.506
		C526.206,294.275,527.62,288.306,529.789,282.606 M508.508,328.886c-0.044,0.927-0.088,1.858-0.14,2.788
		c1.934-0.535,3.767-1.366,5.609-2.153C512.175,329.154,510.35,328.886,508.508,328.886z"/>
	<path fill="#252122" d="M287.99,285.158c0.787,1.214,1.314,2.569,2.001,3.839c2.729,5.161,6.196,9.895,8.973,15.033
		c2.844,5.417,5.745,10.834,9.372,15.78c3.743,5.149,8.497,9.584,13.99,12.824c2.78,1.63,5.833,2.705,8.753,4.051
		c-1.522-2.461-2.613-5.229-2.84-8.134c0.799,1.047,1.346,2.249,2.057,3.348c5.261,8.269,14.913,12.572,24.349,13.814
		c8.209,1.139,16.607,0.447,24.636-1.534c7.874-1.934,15.488-5.109,22.2-9.688c4.37-2.952,8.605-6.264,11.793-10.511
		c2.221-2.936,3.731-6.32,5.101-9.712c0.455-1.127,0.835-2.297,1.534-3.296c0.164,2.025-0.192,4.051-0.827,5.968
		c1.418-0.248,2.381,0.839,2.82,2.053c0.659,1.734,2.137,2.92,3.643,3.903c3.855,2.517,8.221,4.107,12.604,5.429
		c4.398,1.39,9.068,2.697,12.596,5.825c0.615,0.475-0.324,0.999-0.651,1.282c2.225,1.862,3.915,4.315,4.882,7.055
		c0.651-3.679,0.935-7.45,2.093-11.018c0.288-1.143,1.202-1.926,1.985-2.74c0.755,5.201-0.136,10.427-0.591,15.62
		c-0.635,6.719-1.838,13.375-2.521,20.086c-0.639,0.248-1.298,0.435-1.946,0.651c8.637-1.163,17.358-1.71,26.035-2.585
		c12.336-1.131,24.672-2.289,37.009-3.396c-1.358-7.275-0.216-14.897,2.429-21.752c-0.364,3.52-0.567,7.063-0.372,10.602
		c0.2,3.623,0.292,7.319,1.414,10.806c26.79-2.405,53.575-4.878,80.365-7.307c9.776-0.895,19.547-1.858,29.343-2.505
		c1.462-0.092,2.944-0.096,4.378,0.264c1.534,0.392,3.204,0.184,4.65,0.931c3.46,1.474,6.22,4.079,9.048,6.48
		c2.069,1.886,1.977,4.894,2.689,7.398v1.746c-0.571,2.181-0.715,4.462-1.434,6.612c-0.451,1.474-1.23,2.832-1.514,4.358
		c-7.51,35.351-15.316,70.638-23.21,105.908c-1.322,5.809-2.209,11.721-3.831,17.462c-0.511,1.818-0.4,3.791-1.266,5.513
		c-0.915,2.305-2.772,4.171-5.058,5.129c1.083,0.084,2.605,0.148,2.98,1.418c0.931,3.284,0.843,6.839,0.024,10.143
		c-0.479,2.037-2.169,3.731-4.235,4.127c-38.151,6.336-76.31,12.624-114.465,18.972c-24.7,4.107-49.377,8.369-74.153,11.985
		c-3.687,0.603-7.407,1.015-11.074,1.702c-4.398,1.61-9.116,1.834-13.698,2.581h-2.569c-2.577-0.372-5.157-0.827-7.698-1.338
		c-15.508-6.783-30.952-13.714-46.429-20.562c-12.876-5.673-25.835-11.198-38.363-17.621c-2.804-0.775-6.016-1.762-7.45-4.546
		c-1.63-3.619-1.242-7.79-0.328-11.541c0.767-0.879,1.306-2.013,2.369-2.581c1.482-0.915,3.292-0.903,4.858-1.61
		c2.321-0.995,4.846-1.338,7.335-1.642c4.434-0.463,8.777-1.502,13.199-2.073c5.805-0.859,11.617-1.678,17.426-2.521
		c-0.364-10.742,0.384-21.48,0.332-32.227c0.236-9.764,1.49-19.463,2.665-29.147c1.606-12.812,5.046-25.304,8.817-37.62
		c0.771-2.325,1.426-4.718,2.721-6.819c-3.416-2.313-5.821-5.793-7.67-9.42c-2.904-5.801-4.722-12.117-5.601-18.536
		c-1.382,4.458-2.361,9.028-3.096,13.635c-0.815,5.153-1.934,10.327-1.686,15.576c0.064,2.605,1.538,4.986,1.338,7.61
		c-0.052,0.811-1.342,1.218-1.73,0.415c-1.334-2.153-3.284-3.819-4.666-5.936c0.899,0.599,1.77,1.238,2.641,1.882
		c-1.147-5.837-0.192-11.805,0.659-17.613c1.222-8.221,2.76-16.563,6.596-24.017c0.695-1.949,1.354-3.955,2.768-5.521
		c-3.152-1.127-6.16-2.661-8.881-4.614c-0.935-0.791-2.221-0.599-3.348-0.795c-6.48-0.859-12.548-3.771-17.769-7.634
		c-5.817-4.318-10.666-9.907-14.222-16.215c-2.357,3.248-4.211,6.811-6.296,10.231c0.427,1.242,0.751,2.517,0.907,3.823
		c0.535,4.37,1.606,8.665,3.016,12.836c2.001,6.08,4.155,12.164,7.371,17.725c3.563,6.192,7.578,12.228,12.784,17.174
		c3.763,3.607,8.233,6.659,10.974,11.198c-0.495,0-0.951-0.128-1.362-0.388c-10.562-6.699-19.167-16.251-25.264-27.133
		c-3.603-6.556-7.219-13.215-9.116-20.498c-0.871-3.168-1.83-6.348-2.061-9.644c-0.24-2.293,0.479-4.518,0.691-6.779
		c0.835-2.537,2.265-4.842,3.456-7.223c0.939-1.614,1.754-3.352,3.144-4.638c-2.013-3.975-3.663-8.122-5.369-12.236
		C292.724,297.131,289.956,291.29,287.99,285.158 M402.556,336.808c-5.713,4.63-12.284,8.221-19.311,10.403
		c3.24,2.645,4.582,6.803,5.617,10.702c2.037,8.126,2.968,16.531,5.868,24.433c-3.839-2.233-5.565-6.707-6.643-10.798
		c-0.447-1.234-0.168-2.681-0.959-3.771c-0.507-3.995-1.31-7.974-2.545-11.809c-0.919-2.908-2.705-5.409-4.422-7.886
		c-2.365,0.579-4.758,1.051-7.175,1.354c-7.698,0.999-15.632,1.298-23.23-0.551c-0.763,3.08-1.526,6.232-1.222,9.432
		c0.435,4.518,1.606,8.957,3.332,13.155c2.205,5.393,5.597,10.191,9.268,14.685c2.493,0.276,4.866,1.334,7.407,1.246
		c3.264-0.072,6.596-0.543,9.576-1.934c0.591-0.244,1.159-0.683,1.838-0.611c-0.348,1.055-0.943,1.989-1.574,2.896
		c2.629,1.662,4.287,4.426,5.385,7.267c1.754,4.534,2.433,9.372,3.567,14.074c3.072,13.846,6.787,27.565,9.012,41.583
		c1.562,9.604,2.589,19.295,3.096,29.011c3.412-17.15,6.779-34.312,10.227-51.454c2.189-11.102,4.874-22.1,7.45-33.114
		c0.727-2.944,1.266-5.932,2.141-8.837c0.751-3.527,1.226-7.259,3.264-10.331c3.3-5.181,9.144-8.241,15.073-9.288
		c4.482-0.783,9.02-1.258,13.559-1.61c0.467-4.434,1.494-8.785,2.193-13.187c-1.43-2.385-0.879-5.265-1.522-7.858
		c-0.659-2.653-1.654-5.221-3.036-7.578c-0.336-0.487-0.583-1.19-1.278-1.222c1.322,6.811,1.135,13.81,0.336,20.67
		c-0.224,1.626-0.276,3.284-0.739,4.866c-1.374-8.585-2.361-17.234-3.811-25.811c-6.332-1.075-12.412-3.448-18.021-6.532
		c-3.232-1.961-6.955-4.498-7.407-8.585C414.369,326.717,408.444,331.966,402.556,336.808 M618.623,351.989
		c-52.984,4.894-105.972,9.684-158.961,14.505c-3.863,0.527-7.834-0.1-11.613,0.979c-4.522,0.767-9.176,0.951-13.567,2.385
		c-4.55,1.39-9.104,3.971-11.337,8.349c-2.141,4.211-4.299,8.573-4.83,13.323c-2.936,18.265-5.892,36.529-9.472,54.678
		c-3.883,20.014-8.006,39.977-11.877,59.991c-1.682,8.102-2.956,16.299-5.086,24.305c-0.519,2.217-1.338,4.482-0.747,6.783
		c0.328,2.565,2.329,4.486,4.57,5.553c-0.587-4.498-0.12-9.044,0.651-13.487c1.878-10.323,4.243-20.546,6.54-30.781
		c4.259-18.836,8.325-37.716,12.68-56.532c4.518-18.42,7.494-37.22,12.979-55.401c0.691-4.291,3.867-7.73,7.398-10.023
		c4.73-2.784,10.383-2.956,15.712-3.292c11.813-1.41,23.63-2.8,35.455-4.123c39.282-4.39,78.575-8.693,117.901-12.684
		c10.499-1.103,21.009-2.545,31.588-2.349c1.198-0.012,2.373,0.455,3.579,0.228c1.202-0.18,2.425-0.108,3.635,0.028
		c-0.979-0.795-1.953-1.61-3.08-2.177c-2.748-1.358-5.876-1.478-8.849-1.957C627.548,351.338,623.049,351.465,618.623,351.989
		 M609.083,358.82c-29.406,3.148-58.829,6.144-88.267,8.996c-20.785,2.049-41.567,4.151-62.348,6.224
		c-2.657,0.324-5.357,0.124-7.994,0.607c-3.044,0.447-6.144,0.563-9.132,1.354c-2.88,0.735-5.537,2.277-7.682,4.33
		c-1.754,1.662-2.804,3.899-4.522,5.593c-2.065,16.858-6.444,33.305-9.584,49.972c-3.42,17.781-7.706,35.383-11.689,53.048
		c-4.035,17.562-8.357,35.143-10.059,53.12c-0.06,0.699-0.415,1.322-0.763,1.922c-1.462,0.971-3.527,0.747-4.87-0.344
		c-2.109-1.646-3.172-4.291-3.516-6.879c-2.209,0.863-4.598,1.019-6.935,1.159c-1.466,0.032-3.144-0.06-4.251-1.155
		c-0.38-0.635,0.435-1.318,1.051-1.011c3.603,0.683,7.311-0.292,10.547-1.818c-1.654-0.056-3.28,0.268-4.914,0.467
		c-0.991,0.148-2.113-0.196-2.936,0.543c-1.538-0.088-3.839-1.103-3.551-2.98c1.079,1.258,2.625,1.77,4.147,2.321
		c2.289-1.27,4.954-1.53,7.482-2.013c0.12-1.107,0.276-2.205,0.447-3.296c-4.55,0.467-9.004,1.71-13.591,1.79
		c-3.456,0.088-6.899-0.803-9.991-2.313c-0.927-0.411-1.802-1.35-1.159-2.397c0.555,0.735,1.107,1.546,1.997,1.914
		c2.353,1.099,4.966,1.542,7.538,1.73c5.217,0.116,10.243-1.622,15.428-1.902c0.396-2.037,0.811-4.071,1.202-6.104
		c-1.646-0.967-3.947-2.049-3.719-4.33c1.214,1.111,2.529,2.113,4.015,2.844c0.304-1.55,0.611-3.096,0.911-4.642
		c-5.01,0.591-10.087,0.487-15.057,1.434c-2.025,0.364-4.115,0.112-6-0.699c-1.602-0.643-3.627-1.454-3.899-3.404
		c2.173,2.369,5.641,3.244,8.757,2.824c5.461-0.719,10.978-0.823,16.451-1.414c0.336-1.71,0.671-3.42,1.007-5.125
		c-12.053,1.662-24.273,1.774-36.286,3.771c-4.342,0.747-8.741,1.059-13.123,1.438c-1.29,0.575-2.645,1.179-3.663,2.185
		c-0.435,0.711,0.116,2.209-1.178,2.181c-1.898-0.128-1.57-2.932-0.479-3.895c1.091-1.41,2.956-0.687,4.41-1.206
		c3.563-0.943,7.291-0.747,10.922-1.222c4.442-0.651,8.865-1.426,13.319-1.981c8.869-1.115,17.685-2.585,26.554-3.703
		c1.039-5.177,2.041-10.363,3.068-15.54c-13.271,1.83-26.546,3.659-39.853,5.225c-9.308,1.035-18.592,2.305-27.876,3.535
		c-8.369,1.278-16.87,1.442-25.212,2.92c-1.522,0.168-2.816,1.099-3.927,2.097c-0.691,0.631-1.258,1.706-0.679,2.605
		c0.907,1.378,2.565,1.922,3.851,2.86c1.674,1.314,3.815,1.742,5.725,2.609c11.318,4.554,22.455,9.54,33.657,14.374
		c14.785,6.396,29.582,12.764,44.315,19.271c1.031,0.495,2.105,0.995,2.936,1.814c0.607,0.715-0.38,1.886-1.206,1.586
		c-5.685-1.394-10.73-4.482-16.031-6.843c-8.433-3.699-16.882-7.355-25.328-11.018c-13.655-5.996-27.481-11.621-40.936-18.061
		c-3.016-1.646-6.755-2.537-8.637-5.681c0.048,2.996-0.659,6.607,1.738,8.941c2.629,2.245,5.992,3.312,9.184,4.49
		c11.901,4.514,23.406,9.979,35.011,15.189c14.21,6.308,28.432,12.592,42.637,18.904c1.985,0.931,4.115,1.582,5.865,2.944
		c1.434,0.364,2.996-0.048,4.466,0.312c-2.357-2.689-2.277-6.731-1.226-9.955c0.455-1.654,2.329-1.898,3.727-2.277
		c-1.989,1.938-1.906,4.978-1.314,7.486c0.419,1.938,1.478,3.795,3.264,4.77c4.478-0.487,8.781-1.87,13.219-2.581
		c9.987-1.71,19.93-3.679,29.922-5.361c55.713-9.484,111.437-18.904,167.162-28.332c0.963-0.32,2.417,0.192,2.932-0.935
		c1.578-2.717,1.21-6.048,0.827-9.029c-1.594-0.511-3.228-0.947-4.906-0.999c-9.476,1.738-18.9,3.751-28.356,5.577
		c-16.946,3.128-33.984,5.733-50.991,8.497c-20.262,3.22-40.504,6.52-60.778,9.648c-18.472,2.768-36.885,5.964-55.433,8.193
		c-4.059,0.443-8.082,1.378-12.18,1.394c2.625-1.015,5.453-1.346,8.206-1.862c9.612-1.618,19.151-3.655,28.775-5.217
		c27.125-4.522,54.247-9.052,81.404-13.391c19.427-3.14,38.854-6.312,58.321-9.216c10.087-1.486,20.286-2.129,30.341-3.823
		c2.425-0.967,5.113-2.165,6.416-4.57c1.546-4.095,2.041-8.461,3.076-12.692c4.175-18.776,8.365-37.552,12.632-56.308
		c3.955-17.214,7.794-34.452,12.065-51.59c0.931-4.007,1.698-8.05,2.772-12.021c0.835-4.075,2.189-8.15,1.822-12.36
		c-0.14-1.934-0.863-3.971-2.533-5.093c-2.253-1.634-5.245-1.454-7.606-2.82l0.352,0.855c-0.188-0.252-0.367-0.495-0.551-0.735
		C628.754,357.218,618.839,357.757,609.083,358.82 M374.572,390.959c1.658,5.653-0.376,11.517,0.575,17.246
		c-1.338-2.065-2.173-4.482-2.952-6.815c-0.675-3.184-1.27-6.408-2.553-9.416c-2.373-0.144-4.766-0.292-7.079-0.903
		c-1.091,0.439-2.025,1.314-2.381,2.453c-0.839,2.453-1.023,5.066-1.774,7.542c-0.344,1.318-0.867,2.613-0.911,3.991
		c-0.16,3.216-0.519,6.424-0.783,9.636c-0.431,4.77-0.312,9.568-0.543,14.35c-0.519,11.865-0.955,23.734-1.682,35.586
		c-0.467,6.244-1.278,12.596,0.072,18.792c-0.132,0.032-0.399,0.104-0.535,0.14c-1.93-6.655-2.501-13.631-2.493-20.538
		c-0.084-6.931-0.344-13.866-0.076-20.797c0.204-5.493,0.352-10.986,0.503-16.475c-1.997,8.437-3.148,17.042-4.33,25.623
		c-1.466,10.606-2.269,21.297-2.621,31.999c0.044,1.446-0.28,2.98,0.308,4.362c0.923,2.309,1.222,4.806,1.314,7.275
		c16.123-2.601,32.279-4.978,48.462-7.187c-0.659-12.796-1.822-25.579-4.047-38.207c-2.037-12.057-5.249-23.865-7.87-35.802
		c-1.21-5.349-2.129-10.778-3.787-16.015c-0.835-2.669-1.402-5.557-3.268-7.738C375.606,390.356,375.087,390.659,374.572,390.959z"
		/>
	<path fill="#252122" d="M415.835,327.704c0.168-0.064,0.499-0.192,0.663-0.256c0.643,8.949-1.151,17.933-4.203,26.322
		c-3.116,9.004-9.196,16.635-12.244,25.663c-0.915,2.649-0.787,5.545-1.83,8.154c-0.32,0.639-1.358,0.411-1.402-0.284
		c-1.039-4.147,0.567-8.345,2.109-12.152c3.04-7.143,7.642-13.535,10.283-20.865c2.253-5.729,3.344-11.809,4.31-17.861
		C414.065,333.465,414.684,330.492,415.835,327.704z"/>
	<path fill="#252122" d="M284.016,330.257c2.429-0.635,5.189-0.823,7.458,0.439c0.619,0.152,0.811,1.206,0.172,1.442
		c-1.81,0.959-3.867,1.286-5.845,1.754c-3.336,0.707-6.368,2.337-9.42,3.795c-3.492,1.758-7.143,3.168-10.61,4.974
		c-1.91,0.979-3.539,2.429-5.505,3.304c-0.571,0.399-1.394-0.064-1.198-0.779c0.12-1.838,1.426-3.32,2.828-4.378
		c3.132-2.361,6.935-3.504,10.427-5.201C276.126,333.64,279.841,331.371,284.016,330.257z"/>
	<path fill="#252122" d="M507.25,355.125c-2.852-1.965-2.197-7.498,1.574-7.898c-0.823,1.41-1.882,2.972-1.438,4.694
		c0.212,0.923,1.067,2.129,2.157,1.63c1.294-0.683,1.838-2.589,3.563-2.449C514.013,354.098,509.763,357.042,507.25,355.125z"/>
	<path fill="#252122" d="M251.929,351.613c0.935-2.121,3.508-2.453,5.541-2.129c3.847,0.619,7.203,3.052,9.604,6.044
		c2.729,3.424,5.293,7.091,6.711,11.274c0.807,2.449,1.135,5.197,0.204,7.662c-0.124,0.627-1.031,0.903-1.394,0.32
		c-2.908-3.703-4.035-8.393-6.292-12.46c-1.854-3.192-4.171-6.292-7.375-8.225C256.77,352.768,253.762,353.543,251.929,351.613z"/>
	<path fill="#252122" d="M249.128,350.639c0.775,0.048,1.083,0.823,1.486,1.362c2.744,4.286,3.719,9.4,4.466,14.358
		c1.019,7.678,2.097,15.392,1.906,23.15c-0.044,1.494-0.927,3.472-2.697,3.296c-1.095-0.511-1.314-1.862-1.602-2.912
		c-0.963-4.87-0.703-9.867-0.823-14.801c-0.399-4.918-0.963-9.823-1.83-14.677C249.464,357.194,248.749,353.926,249.128,350.639z"/>
	<path fill="#252122" d="M189.021,368.348c-0.092-4.334-0.16-8.825,1.306-12.963l0.475-0.128c0.495,0.795,0.631,1.742,0.863,2.637
		c1.534,6.831,0.867,13.89,1.798,20.789c0.551,4.95,1.402,10.159-0.376,14.965c6.667,2.569,13.726,4.231,20.889,4.378
		c3.595,0.108,7.199-0.06,10.786-0.352c2.585-0.224,5.213-1.003,7.798-0.364c0.551,0.076,0.843,0.807,0.451,1.226
		c-1.37,1.818-3.711,2.461-5.845,2.884c-8.046,1.334-16.291,0.623-24.237-1.019c-4.075-0.943-8.441-2.369-11.042-5.868
		c-0.527-0.16-1.234-0.108-1.522-0.675c-1.194-2.453-1.059-5.269-1.047-7.926C189.317,380.069,189.281,374.204,189.021,368.348z"/>
	<path fill="#252122" d="M385.218,365.016c0.891-0.715,1.502,0.679,1.694,1.378c0.184,1.965,0.551,3.955,0.064,5.916
		c-0.675,3.324-1.186,6.839-3.128,9.712c-0.707,0.943-1.446,1.977-2.593,2.413c2.561-4.646,2.709-10.107,2.784-15.276
		C384.095,367.725,384.287,366.175,385.218,365.016z"/>
	<path fill="#252122" d="M199.024,374.508c2.325-3.056,7.758-2.053,9.164,1.422c1.358,3.276-1.071,7.45-4.598,7.874
		c-1.666,0.312-3.659-0.883-3.651-2.697c1.658-0.164,3.563,0.052,4.938-1.087c1.438-1.25,1.031-4.055-0.935-4.514
		c-2.065-0.723-3.687,1.123-5.201,2.205C198.321,376.657,198.225,375.419,199.024,374.508z"/>
	<path fill="#252122" d="M279.21,396.911c0.236-0.595,0.296-1.33,0.867-1.718c-2.225,13.311,0.1,26.754,2.241,39.905
		c0.955-11.537,3.691-22.915,7.914-33.685c-0.044,2.049-0.495,4.067-0.707,6.108c-1.206,9.392-2.005,18.84-2.345,28.304
		c-0.288,8.293,0.276,16.647,2.061,24.76c1.814,7.894,4.45,15.584,6,23.546c1.087,5.365,1.638,10.85,1.502,16.327
		c-1.914,0.004-3.823,0-5.737,0.004c0.703-12.492-3.959-24.333-6.596-36.337c-1.119,12.484-4.079,24.844-9.148,36.329
		c-1.734,0.012-3.464,0.008-5.197,0.004c3.567-9.696,7.023-19.523,8.421-29.802c1.178-7.93,1.41-16,0.663-23.985
		c-0.807-9.608-2.605-19.128-2.828-28.779C276.15,410.806,276.98,403.659,279.21,396.911z"/>
	<path fill="#252122" d="M198.585,402.272c0.208-0.863,0.364-1.766,0.887-2.501c2.593,7.327,2.908,15.181,4.774,22.683
		c1.806,7.714,6.184,14.434,9.516,21.524c0.943,2.189,1.738,4.694,0.999,7.063c-0.152,0.663-1.055,0.807-1.55,0.439
		c-2.697-1.482-4.215-4.326-5.565-6.967c-1.306-2.784-2.752-5.501-4.059-8.285c-2.477-5.145-3.871-10.734-4.894-16.331
		C197.706,414.089,197.298,408.065,198.585,402.272z"/>
	<path fill="#252122" d="M254.433,405.928c0.324,0.124,0.475,0.356,0.451,0.699c0.124,2.724,0.647,5.425,1.486,8.022
		c0.092,0.364,0.292,0.659,0.603,0.887c4.61,3.819,7.95,8.933,10.626,14.23c2.641,5.393,4.766,11.202,4.938,17.266
		c0.12,5.125-1.143,10.139-1.63,15.217c-0.048,0.407-0.052,0.895-0.415,1.186c-0.599-7.323-0.316-14.785-2.157-21.96
		c-1.198-4.958-3.707-9.476-6.488-13.706c4.986,11.565,7.143,24.537,4.95,37.017c-0.655,3.795-1.59,7.866-4.418,10.674
		c-0.779,0.663-1.706,1.714-2.832,1.186c-0.875-5.649,1.682-10.99,2.449-16.487c0.987-8.645,0.196-17.47-2.221-25.823
		C257.262,425.051,253.491,415.719,254.433,405.928z"/>
	<path fill="#252122" d="M548.281,433.936c3.22-0.164,6.628-1.398,9.732,0.004c1.466-0.831,3.324,1.258,2.089,2.501
		c-1.278,0.519-1.418-1.426-2.369-1.866c-2.888,1.578-6.28,0.831-9.408,1.167c-13.978,1.047-27.984,1.834-41.91,3.472
		c-1.198,0.032-2.441,0.607-3.603,0.176c0.012-0.14,0.04-0.415,0.056-0.551c2.96-1.438,6.312-1.558,9.528-1.894
		C524.332,435.674,536.309,434.823,548.281,433.936z"/>
	<path fill="#252122" d="M557.641,441.362c0.296-1.63,0.507-3.843,2.321-4.486c0.455,2.473-0.348,4.914-0.931,7.295
		c-0.391,1.402-0.955,2.924-2.237,3.755c-1.37,0.755-2.892,1.218-4.442,1.422c-13.966,1.634-27.948,3.128-41.95,4.394
		c-3.248,0.332-6.572,0.879-9.791,0.08c0.22-0.519,0.827-0.531,1.29-0.655c3.707-0.743,7.502-0.763,11.25-1.19
		c13.942-1.362,27.872-2.972,41.707-5.173C556.83,445.725,557.422,443.432,557.641,441.362z"/>
	<path fill="#252122" d="M499.176,440.236c0.483-1.031,1.63-1.802,2.792-1.57c0.771,0.164,0.511,0.927,0.431,1.49
		c-0.723,0.348-1.518,0.511-2.273,0.747C499.803,440.679,499.488,440.456,499.176,440.236z"/>
	<path fill="#252122" d="M498.681,440.887c0.292,0.152,0.587,0.312,0.891,0.479c-0.372,3.328-0.707,6.795-2.233,9.831
		c-0.212,0.907-1.922,0.943-1.838-0.136c-0.144-2.009,1.095-3.755,1.45-5.681C497.243,443.783,497.774,442.237,498.681,440.887z"/>
	<path fill="#252122" d="M207.402,448.873l0.619-0.092c-2.093,13.195-0.128,26.957,5.305,39.142c2.017,4.502,4.63,8.733,7.774,12.54
		c-2.205-0.004-4.41,0-6.612-0.004c-7.754-12.328-11.357-27.425-9.152-41.886C205.852,455.309,206.423,452.029,207.402,448.873z"/>
	<path fill="#252122" d="M496.671,453.922c-0.435-0.435-1.218-1.454-0.288-1.786c0.831,0.144,1.466,0.859,2.365,0.815
		c0.615-0.092,1.342,0.403,1.023,1.083C499.068,455.033,497.466,454.609,496.671,453.922z"/>
	<path fill="#252122" d="M357.162,515.535c-0.715-0.539-0.256-1.342,0.348-1.718c0.012,0.276,0.04,0.831,0.052,1.111
		c2.713,1.514,5.932,2.525,9.052,1.886c1.051-0.192,2.081-0.483,3.14-0.651c0.072,0.164,0.22,0.491,0.292,0.651
		c-0.427,0.384-0.855,0.815-1.438,0.951C364.712,518.632,360.318,518.136,357.162,515.535z"/>
	<path fill="#252122" d="M591.438,517.761c5.405-1.083,10.806-2.581,16.363-2.489c2.045,1.075,1.802,4.191,0.559,5.837
		c-0.124,0.479-0.048,1.19-0.711,1.258c-9.36,2.293-19.028,2.784-28.583,3.703c-0.939,0.08-1.846,0.32-2.76,0.495l0.547,0.012
		c-0.443,1.151-2.129,0.979-2.537-0.06c-0.455-1.318-0.172-2.788,0.308-4.055c0.292-0.751,1.498-1.762,2.097-0.779
		c-0.435,1.434-0.312,2.908-0.048,4.366l-0.292,0.308c9.839-2.848,20.166-3.252,30.109-5.633c0.172-1.45,0.683-2.896,0.348-4.362
		c-5.948,1.095-11.933,1.997-17.845,3.276c-4.199,0.895-8.569,2.317-12.867,1.246c1.378-0.787,2.992-0.951,4.538-1.182
		C584.299,519.323,587.859,518.46,591.438,517.761z"/>
	<path fill="#252122" d="M344.274,517.597c-0.675-0.627-0.216-1.47,0.344-1.958c-0.176,1.362,1.334,1.734,2.305,2.117
		c2.233,0.635,4.558,1.334,6.907,0.987c1.49-0.176,2.932-0.623,4.41-0.867c0.1,0.168,0.3,0.499,0.399,0.667
		c-2.82,0.491-5.581,1.414-8.461,1.498C347.982,520.134,345.76,519.211,344.274,517.597z"/>
	<path fill="#252122" d="M309.079,517.813c1.031-0.511,2.349,0.36,2.201,1.526c0.056,1.075-1.139,1.806-2.101,1.422
		C307.937,520.333,307.893,518.332,309.079,517.813z"/>
	<path fill="#252122" d="M374.979,518.052c1.103,1.954,3.731,1.938,4.91,3.759c2.804-0.02,5.537-0.719,8.321-0.959
		c0,0.332,0.435,0.963-0.084,1.115c-2.517,0.471-5.078,1.039-7.65,0.803c-1.57-0.451-2.94-1.41-4.302-2.281
		C375.351,519.982,374.536,519.087,374.979,518.052z"/>
	<path fill="#252122" d="M339.225,519.087c3.803-0.759,7.063,1.734,10.303,3.272c5.868,2.816,11.641,5.849,17.645,8.365
		c3.272,1.418,6.975,2.105,9.732,4.51l-0.411,0.447c-6.38-0.515-12.049-3.859-17.701-6.592c-4.814-2.337-9.592-4.754-14.378-7.151
		C342.7,520.961,340.727,520.369,339.225,519.087z"/>
	<path fill="#252122" d="M313.973,519.91c1.186-0.439,2.477,0.859,2.041,2.041c-0.304,1.119-1.882,1.53-2.685,0.691
		C312.427,521.851,312.827,520.214,313.973,519.91z"/>
	<path fill="#252122" d="M352.536,522.147c-0.635-0.559-0.184-1.246,0.256-1.742c0.188,0.499,0.172,1.23,0.779,1.466
		c2.213,1.186,4.75,1.582,6.995,2.713c3,0.667,5.829-1.043,8.777-1.298c2.549-0.264,5.121-0.847,7.662-0.879l0.124,0.491
		c-2.98,1.726-6.568,1.258-9.843,1.782c-2.277,0.388-4.63,0.959-6.919,0.308c-0.567,0.304-1.218,0.36-1.81,0.1
		C356.459,524.344,354.23,523.645,352.536,522.147z"/>
	<path fill="#252122" d="M467.956,540.731c-0.04-2.305,2.281-3.987,4.47-3.723c2.301-0.064,4.57,1.886,4.342,4.286
		c-0.515,3.667-6.264,5.081-8.445,2.105c-0.24-0.491-0.827-1.194-0.292-1.678c0.747-0.156,0.807,0.731,1.167,1.17
		c0.971,1.638,3.531,1.814,4.81,0.439c0.931-0.955,1.442-2.629,0.523-3.751c-1.095-1.254-3.08-1.23-4.482-0.563
		C469.167,539.365,468.959,540.627,467.956,540.731z"/>
	<path fill="#252122" d="M458.92,539.417c2.201-0.923,5.189,0.587,5.261,3.096c0.18,3.308-3.723,5.473-6.636,4.462
		c-1.167-0.511-2.161-1.582-2.357-2.868C455.416,542.006,456.722,539.904,458.92,539.417 M455.888,542.521
		c0.204,0.755,0.08,1.686,0.623,2.313c1.518,1.111,3.779,0.923,5.201-0.26c1.107-0.959,1.111-3.184-0.411-3.723
		C459.367,540.192,457.234,541.095,455.888,542.521z"/>
	<path fill="#252122" d="M429.314,544.187c4.035-0.843,8.138-1.925,12.292-1.45c1.258,0,1.626,1.53,1.614,2.541
		c-0.052,1.167,0.08,2.705-1.115,3.372c-1.091,1.059-2.669,1.079-4.059,1.418c-3.967,0.803-7.986,1.366-12.021,1.698
		c-3.232,0.252-6.364,1.143-9.56,1.642c-1.458,0.244-2.968,0.2-4.374,0.699c-1.874-0.052-1.21-2.457-1.135-3.655
		c-0.004-1.306,1.103-2.137,1.434-3.304C418.032,546.156,423.705,545.345,429.314,544.187 M425.319,546.344
		c-4.071,0.783-8.17,1.618-12.336,1.642c-0.068,1.726,0.292,3.428,0.439,5.141c3.428-2.513,7.906-2.149,11.909-2.752
		c5.034-0.639,9.979-1.83,14.949-2.84c0.232-1.282,0.479-2.557,0.591-3.847C435.761,544.982,430.48,545.321,425.319,546.344z"/>
</g>
</svg>
