<?xml version="1.0" encoding="utf-8"?>
<!-- Generator: Adobe Illustrator 17.0.0, SVG Export Plug-In . SVG Version: 6.00 Build 0)  -->
<!DOCTYPE svg PUBLIC "-//W3C//DTD SVG 1.1//EN" "http://www.w3.org/Graphics/SVG/1.1/DTD/svg11.dtd">
<svg version="1.1" id="Layer_1" xmlns="http://www.w3.org/2000/svg" xmlns:xlink="http://www.w3.org/1999/xlink" x="0px" y="0px"
	 width="800px" height="600px" viewBox="0 0 800 600" enable-background="new 0 0 800 600" xml:space="preserve">
<path fill="#FFFFFF" d="M358.72,150.35c15.93-4.8,33.31-3.15,48.92,2.16c9.42,3.42,18.75,8.14,25.65,15.57
	C410.52,155.64,384.3,151.75,358.72,150.35z"/>
<path fill="#FFFFFF" d="M348.51,154.71c8.49-1.13,17.08-0.43,25.55,0.49c18.93,2.24,37.98,6.22,55.11,14.86
	c7,3.79,14.47,8.06,18.33,15.34c1.69,2.49,2.92,5.26,3.57,8.21c-18.59-7.15-38.1-12.04-57.94-13.92c-6.11-0.5-12.28-1.03-18.39-0.33
	c25.69,4.71,52.34,7.47,76.21,18.82c0,1.78,0,3.55,0.02,5.33c-23.7-6.72-48.45-9.14-73.02-8.85c-21.91,0.37-44.02,2.75-64.89,9.7
	c0.21-1.52,0.45-3.02,0.67-4.52c15.52-8.71,33.84-9.76,51.25-9.46c19.1,0.45,38.1,2.73,57.2,3.29c-16.2-3.2-32.69-4.98-49.16-6.07
	c-19.54-0.92-39.92-0.55-58.16,7.38c3.89-11.48,9.07-22.9,17.41-31.85c17.65-2.77,35.51,0.76,53.11,2.47
	c-15.61-5.34-32.41-8.73-48.88-5.78C339.67,156.59,344.17,155.34,348.51,154.71z"/>
<path fill="#FFFFFF" d="M479.28,191.94c4.97-3.17,11-4.82,16.87-3.56c10.75,2.01,19.9,9.16,30.89,10.25
	c3.81,0.49,7.59-0.42,11.23-1.46c-4.71,4.49-10.47,9.33-17.43,8.67c-4.56-1.53-7.7-5.63-12.18-7.36c-8.23-3.23-17.9-3.6-25.96,0.3
	C481.65,196.45,480.45,194.2,479.28,191.94z"/>
<path fill="#FFFFFF" d="M461.44,188.46c5.18-0.84,10.93,0.59,14.14,5c5.67,7.53,6.3,19.26,0.23,26.73
	c-0.45-6.61,0.28-13.56-2.32-19.81c-0.77-2.18-2.77-3.38-4.74-4.31c3.16,8.4,5.02,18.3,1.06,26.74c-2.07,4.53-7.49,5.69-11.95,4.59
	c-1.02-2.27-2.21-4.45-3.68-6.46c-0.57-10.18,3.36-20.4,0.51-30.47c1.9,0.38,4.14,0.83,4.97,2.87c2.84,6.12,1.93,13.12,3,19.64
	C467.31,205.61,465.75,195.64,461.44,188.46z"/>
<path fill="#FFFFFF" d="M316.67,207.77c17.82-7.25,37.37-8.32,56.39-8.41c18.66,0.03,37.28,1.47,55.93,1.97
	c7.27,0.08,14.86,1.39,20.87,5.74c-0.11,6.94-0.11,13.96-1.89,20.72c-1.83-1.65-3.84-3.05-6.06-4.1c1.68,9.5,9.04,17.38,8.73,27.35
	c0.18,4.38-2.98,8.03-6.6,10.07c-3.88,2.38-8.38,3.34-12.78,4.22c5.23,6.58,15.36,4,20.56-1.29c1.53,12.46,2.16,25.07,0.92,37.58
	c-10.97-4.71-23.95-5.12-35.17-1.11c11.05,1.67,22.74,1.06,33.11,5.79c9.98,5.09,15.67,15.38,19.57,25.44
	c7.44,16.39,9.19,35.21,5.45,52.78c-2.43,11-7.97,22.36-18.38,27.77c-14.61,7.87-31.11,11.32-47.38,13.75
	c-11.87,1.58-23.87,2.68-35.85,2.21c-12.68-1.1-25.41-2.2-37.86-4.99c0.63-3.63,1.53-7.19,2.54-10.72
	c8.22,3.71,17.4,3.05,26.18,3.19c18.36,0.46,37.02,1.07,55.02-3.27c4.93-1.27,9.83-2.84,14.3-5.33
	c-28.18,3.88-56.79,7.06-85.21,3.88c-3.19-0.26-6.18-1.44-9.17-2.49c0.56-1.32,1.12-2.62,1.69-3.93c24.5,2,49.32,1.1,73.51-3.4
	c13.07-2.59,26.15-6.03,38.11-11.99c4.81-6.53,4.75-15.47,3.18-23.13c-2.64-11.26-8.32-21.86-16.2-30.32
	c-8.23-6.49-19.56-5.32-29.27-3.92c-28.68,4.92-57.94,6.24-86.95,4.11c-7.84-0.74-15.51,4.09-18.83,11.1
	c-2.92,6.37-4.76,13.2-5.91,20.1c-1.19,8.29-1.66,17.83,3.71,24.85c4.5,5.66,12.3,5.81,18.41,8.75c-0.55,1.1-1.08,2.2-1.61,3.31
	c-6.99-1.52-12.73-6.16-19.6-7.99c4.14,5.72,10.47,9.4,17.18,11.3c-1.57,3.38-3.17,6.75-4.5,10.24
	c-9.31,0.15-18.73-3.52-24.91-10.59c-8.91-10.04-11.91-23.95-12-37.06c0.12-15.36,3.92-31.35,13.73-43.49
	c2.24-3.29,4.37-6.74,7.41-9.37c8.43-7.64,19.46-11.33,30.08-14.8c-6.27-0.69-12.6-0.05-18.75,1.24
	c-1.6-12.33-0.03-24.76,1.86-36.96c3.18,3.21,6.55,7.72,11.68,7.01c2.22-0.11,6.35-1.6,5.06-4.47c-3.46-2.23-8.65-0.17-11.42-3.67
	c-1.34-2-2.95-4.08-3.44-6.44c2.43-11.43,6.42-22.52,8.37-34.06c-1.67,1.7-3.06,3.64-4.47,5.55c-0.59-6.98-1.66-13.89-2.69-20.81
	C314.04,208.56,315.56,208.38,316.67,207.77 M318.79,211.34c3.12,1.88,6.93,1.37,10.39,2.07c4.75,0.54,9.32,2.31,13.08,5.3
	c-5.27-0.34-11.08,0.09-15.34,3.55c0.24,2.71,3.94,1.48,5.83,2.06c-3.04,6.98-2.48,16.19,3.56,21.41c3.27,3,7.92,3.39,12.13,2.9
	c-1.3,2.66-2.39,5.85-5.46,6.94c-7.35,3.8-16.75-1.13-18.68-8.97c-3.62,5.93,1.32,12.65,6.49,15.6c3.54,0.88,7.23,0.94,10.88,1.01
	c-4.53,13.31-3.3,29.7,7.15,39.95c16.25,15.81,45.93,13.24,59.67-4.66c4.19-4.77,6.07-11.32,5.4-17.58
	c-0.67-2.8-0.98-6.34-3.89-7.75c0.04,4.57-0.49,9.22-2.68,13.31c-6.27,12.71-20.52,19.97-34.33,20.39c-5.23,0-11.06-0.03-15.27-3.6
	c-6.58-4.73-9.02-13.38-8.13-21.15c1.18-11.03,6.4-21.66,14.5-29.25c5.31-5.17,13.12-6.08,18.85-10.63
	c-10.59-1.03-19.55,5.31-28.45,9.95c3.1-7.36,8.78-13.07,13.94-18.98c-1.06-5.27-5.85-8.34-10.29-10.62
	c-3.46-1.7-6.26-4.48-9.83-5.94c-6.37-2.84-12.09-7.57-19.22-8.38C325.38,207.77,321.8,209.32,318.79,211.34 M400.94,225.29
	c2,4.74,3.25,9.76,5.31,14.48c1.58,3.64,4.69,6.88,8.77,7.45c4.99,0.71,10.34,0.11,14.78-2.4c4.3-2.44,7.22-6.97,8.08-11.8
	c0.31-5.25-2.79-10.05-6.73-13.27c2.2-0.9,7.49-1.34,6.09-4.85C424.35,213.22,412.08,219.52,400.94,225.29 M430.94,254.47
	c-4.31,1.24-8.72,0.12-12.8-1.36c4.16,7.52,15.03,7.69,21.75,3.79c3.47-1.84,3.67-6.11,2.28-9.36
	C439.06,250.71,435.39,253.56,430.94,254.47 M299.64,330.61c-8.14,10.21-11.98,23.41-12.48,36.33c-0.36,9.64,2.28,20.4,10.63,26.2
	c-7.06-14.08-4.56-30.57-0.98-45.26c1.55-5.14,2.61-10.76,6.26-14.91c4.01-4.6,9.96-6.84,14.14-11.26
	C310.59,322.59,303.81,325.15,299.64,330.61 M454.9,335.12c0.76,8.26,4.81,15.76,6.17,23.92c2.12,11.09,2.78,23.66-3.58,33.55
	c-2.18,3.62-5.88,5.73-9.23,8.08c4.46-0.78,9.19-1.6,12.82-4.54c5.48-4.25,7.3-11.55,7.35-18.19c0.01-11.07-3.17-21.9-7.48-32.01
	C459.18,342.2,457.77,338.18,454.9,335.12z"/>
<path fill="#FFFFFF" d="M484.22,202.72c9.37-3.34,19.94-2.12,28.73,2.33c12.31,7,17.37,21.67,29.37,29.1
	c-10.24-0.49-17.8-8.08-24.95-14.53c-6.56-6.02-15.19-11.16-24.43-9.74c-1.84,0.1-3.07,1.49-4.25,2.7c4.35,1.69,9.15,0.9,13.58,2.19
	c11.42,6.41,19.95,17.54,32.69,21.69c6.23,2.21,12.94,1.47,19.2-0.19c-13.42,6.95-29.44,7.84-44.02,4.52
	c-8.13-1.77-15.4-6.02-22.14-10.74c-3.36-2.58-7.31-5.57-7.87-10.07C481.03,214.11,485.7,208.99,484.22,202.72z"/>
<path fill="#FFFFFF" d="M417.5,222.66c4.65-1.14,10.11-1.16,14.08,1.88c2.83,2.18,3.39,6.16,2.51,9.45
	c-0.98,4.98-5.69,8.07-10.14,9.73c-4.41,1.67-10.37,1.87-13.58-2.15c-2.73-4.27-1.5-9.77,0.07-14.25
	C411.35,224.31,414.86,223.55,417.5,222.66 M422.03,223.14c-3.26,0.47-5.6,3.76-4.84,7.01c0.75,4.49,4.03,9.24,8.82,9.88
	c5.17-0.18,7.42-6.66,6.01-10.98C431.06,224.71,426.34,221.82,422.03,223.14z"/>
<path fill="#FFFFFF" d="M333.45,231.06c1.01-2.48,2.42-4.77,3.58-7.18c6.31,0.86,13.13,0.3,18.94,3.29
	c2.44,3.24,2.23,8.14-0.14,11.4c-3.46,4.82-10.12,7.3-15.84,5.57C334.75,242.59,331.22,236.21,333.45,231.06 M340.42,226.37
	c-3.52,2.52-4.87,7.62-3.23,11.59c1.68,4.04,7.81,5.07,10.77,1.87c1.77-1.8,2.5-4.4,2.52-6.87
	C351.14,227.96,344.51,224.55,340.42,226.37z"/>
<path fill="#FFFFFF" d="M288.48,258.67c5.41-1.7,11.21-0.08,15.8,2.98c-0.57,3.77-1.27,7.53-1.93,11.29
	c-4.71-8.28-17.43-8.93-23.99-2.63c-2.86,2.72-3.08,6.95-2.34,10.6c2.84-2.06,3.18-5.89,5.58-8.28c2.98-2.52,7.13-3.79,11.01-3.06
	c2.89,0.52,5.29,3.34,4.87,6.35c-0.71,4.6-4.96,8.3-4.06,13.2c0.56,4.22,3.98,7.18,7.45,9.22c0.71,2.5,1.45,5,2.21,7.5
	c-3.27,2.03-7.14,3.51-11.01,2.54c-7.33-1.63-13.22-7.11-17.32-13.17C266.51,282.39,274.06,263.06,288.48,258.67z"/>
<path fill="#FFFFFF" d="M459.07,264.29c4.74-3.75,10.71-6.44,16.89-5.5c7.81,1.02,16.14,6.68,16.71,15.14
	c0.6,9.15-3.49,17.9-8.44,25.35c-4.46,5.94-8.77,13.48-16.84,14.64c-3.46-3.33-6.42-7.18-10.3-10.04c0.08-0.61,0.26-1.84,0.35-2.45
	c3.24-0.4,7.11-0.83,8.94-3.96c3.6-6.29,1.15-14.17,4.47-20.56c2.41-4.54,8.61-5.68,13.1-3.88c1.2,0.34,1.36,1.78,1.69,2.79
	c0.75,3.23,1.25,6.53,2.5,9.63c3.37-4.15,3.2-11.13-1.41-14.31c-5.9-4.1-14.44-3.73-20.24,0.38c-3.9,2.72-5.52,7.78-4.68,12.35
	c0.72,4.55,1.93,10.28-2.58,13.33C460.21,286.24,459.82,275.25,459.07,264.29z"/>
<path fill="#FFFFFF" d="M300.79,292.74c-2.43-2.27-1.91-5.89,0.03-8.28C301.01,287.21,301,289.98,300.79,292.74z"/>
<path fill="#FFFFFF" d="M392.16,339.61c7.27,0.49,13.62-4.13,20.79-4.19c3.07-0.29,3.28,3.37,4,5.54c0.76,4.6,2.54,9.73,0.26,14.15
	c-5.07,1.91-9.84,4.77-15.19,5.85c-3.39,0.78-7.64-0.74-8.44-4.43C392.23,350.98,393.25,345.2,392.16,339.61z"/>
<path fill="#FFFFFF" d="M345.2,341.24c12.06,0.51,24.2,0.82,36.19-0.91c-1.06,7.55-0.05,15.59-3.28,22.7
	c-2.84,4.83-8.99,5.94-14.03,7.12c-5.86,1.15-13.49,1.69-17.34-3.88C342.08,358.77,344.24,349.46,345.2,341.24z"/>
<path fill="#FFFFFF" d="M341.06,382.08c10.68-8.11,24.28-11.87,37.58-11.65c-1.37,2.28-4.12,2.72-6.31,3.87
	c-14.54,6.61-29.12,15.72-36.71,30.32c-6.86,12.25-7.08,26.6-10.19,39.97c-1.42,6.3-3.89,12.49-8.23,17.37
	c0.25-5.73-0.9-11.69-4.73-16.14c-0.41,8.72-0.56,18.33-6.05,25.62c-5,6.49-14.25,6.92-21.6,5.16c-7.83-1.85-13.73-7.87-18.35-14.12
	c-3.02-4.26-7.56-7.37-9.79-12.2c-1.82-3.97-1.39-9.49,2.48-12.1c6.56-4.81,14.46-7.25,22.05-9.89c7.82-2.59,16.25-5.49,24.49-3.04
	c1.25,3.9,1.32,8.5-1.52,11.75c-5.46,6.42-14.02,8.47-21.1,12.5c11.08,2.8,20.15-5.5,27.73-12.25c0.39,0.45,1.17,1.35,1.56,1.8
	c1.98-5.27,1.84-11.17,4.53-16.2c1.92-3.38,2.37-7.3,3.65-10.92C324.36,400.32,331.22,389.48,341.06,382.08 M276.1,434.16
	c-3.93,2.55-8.8,3.63-12.03,7.21c2.65,2.52,6.42,3.19,9.97,3.09c8.02-0.41,16.02-3.16,22.51-7.93c2.83-1.73,2.94-6.95-0.52-7.97
	C288.88,426.7,282.13,430.87,276.1,434.16z"/>
<path fill="#FFFFFF" d="M355.35,388.04c8.05-3.43,15.31-10.21,24.64-9.28c2.79-0.18,4.81,2.2,5.29,4.76
	c1.22,5.57,0.48,11.32,1.24,16.95c-10.75,0.86-21.55,1.47-32.34,0.87C354.45,396.89,355,392.47,355.35,388.04z"/>
<path fill="#FFFFFF" d="M306.84,421.34c1.59,0.46,3.16,0.98,4.74,1.49c-0.35,0.6,0.07,1.95-0.99,1.93
	C309.19,423.78,308,422.57,306.84,421.34z"/>
<path fill="#020101" d="M394.81,102.87c6.31-4.83,14.36-6.93,22.17-7.58c5.01-0.49,10,0.84,14.38,3.26
	c7.55-3.41,16.02-1.15,23.25,1.99c13.11,5.26,24.64,15.06,30.72,27.94c5.64,11.34,8.2,23.96,9.11,36.52
	c0.89,8.58,0.86,17.33-1.09,25.77c4.15,0.27,7.83,4.08,7.75,8.27c0.36,5.22-2.3,9.97-2.79,15.1c-0.72,7.26-1.48,15.03-6.09,21.02
	c-1.22,1.87-3.21,2.96-5.18,3.85c-0.58-0.15-1.74-0.46-2.32-0.61c-0.02,6.34-1.63,12.48-3.58,18.46c0.22,6.9-1.75,14.59,2.11,20.83
	c0.56,1.47,2.79,2.18,2.47,3.94c-4.96,1.12-10.53-3.25-10.54-8.37c1.13,2.08,2.76,3.77,4.77,5.04c-2.06-4.15-2.66-8.81-2.43-13.39
	c-1.78,3.56-5.16,6.79-4.51,11.08c-0.09,4.5,2.54,8.36,6.04,10.95c-5.31-0.41-8.16-5.22-8.76-10.04c-0.04,3.22-0.04,6.74,2.58,9.06
	c-2.84,0.59-4.64-1.46-5.47-3.91c-1.22,2.39-2.91,4.53-3.99,6.99c-1.36,10.71-0.7,21.54,0.08,32.27c4.06,3.23,9.47,4.06,13.43,7.47
	c3.47,2.5,5.76,6.61,9.96,8.06c6.23,2.52,13,6.19,15.33,12.95c1.33,4.08,3.07,8.81,0.95,12.94c5.09,3.8,9.52,8.42,14.79,12.01
	c8.37,5.84,12.65,15.43,19.45,22.75c4.7,4.98,10.38,10.55,9.91,18c5.01,3.96,2.3,11.04,2.5,16.45c-0.08,4.57,5.98,5.19,7.23,9.13
	c1.6,4.06-0.28,8.26-1.77,12.03c-1.12,2.76,0.89,5.26,1.63,7.81c1.37,3.76-1.6,7.39-0.8,11.19c1.37,3.31,5.2,5.11,5.87,8.78
	c0.41,7.13-4.46,13.73-2.65,20.93c1.56,5.63,2.83,11.81,0.5,17.43c-1.43-0.97-1.51-2.75-1.84-4.25c-1.06-5.36-3.65-10.4-3.81-15.93
	c0-5.84,3.24-11.12,3.22-16.96c-0.43-3.69-4.5-5.49-5.19-9.09c-0.83-3.48,1.55-6.62,1.59-10.04c-0.27-1.47-0.72-2.9-1.15-4.32
	c-3,2.64-4.79,6.57-8.66,8.21c0.53-3.75,3.57-6.44,4.83-9.92c1.48-4.35,5.24-8.01,4.77-12.9c-0.45-2.91-3.27-4.35-5.24-6.15
	c-2.28,3.71-4.42,7.76-8.35,9.96c2.57-8.27,6.69-16.22,7.23-25c0.1-1.91,0.35-4.33-1.48-5.54c-2.05-1.57-2.63-4.19-3.74-6.39
	c-2.05-4.66-5.99-8.03-9.12-11.92c-4.14-4.92-7.14-10.7-11.56-15.38c-4.23-4.5-9.52-7.77-14.14-11.82c-2.84-2.46-5.25-5.53-8.7-7.19
	c-1.9-1.13-3.51,1.06-4.99,1.96c-8.71,8.26-17.49,16.53-25,25.94c-12.85,15.88-24.21,32.98-33.91,50.95
	c-1.63,3.08-3.91,5.87-4.73,9.32c0.48,0.48,1.45,1.46,1.93,1.95c-1.78,2.5-4.6,4.53-7.82,3.81c-0.88,4.25-0.71,9.54-3.9,12.76
	c-0.84-4.78,0.9-9.41,2.75-13.72c-1.14-1.46-1.84-3.5-0.4-5.01c2.79-3.15,0.58-7.23-0.48-10.6c-1.56-8.03-4.39-15.74-7.55-23.27
	c-2.79-6.5-6.18-12.82-10.83-18.19c-2.47-2.78-4.78-5.86-5.57-9.57c6.71,6.76,13.46,13.68,17.83,22.26
	c2.12,3.26,2.94,7.12,4.82,10.49c0.22-1.27,0.02-2.57-0.79-3.59c-1.53-3.95-2.09-8.22-3.8-12.11c-4.57-9.14-9.26-18.28-15.45-26.44
	c-5.45-9.19-12.49-17.47-16.2-27.6c4.2,4.43,7.05,9.98,11.53,14.18c-3.02-8.55-5.78-17.87-3.28-26.92
	c1.27-3.45,1.48-7.17,2.81-10.61c-3.46,0.44-6.95,0.27-10.41,0.36c-3.58,0.02-6.5,2.37-9.2,4.44c3.02,1.84,5.27,4.61,7.05,7.62
	c-4.75-2.21-9.43-6.25-15-4.89c-4.1,0.73-9.2,0.89-11.64,4.81c-0.62,0.83-1.33,1.57-2.13,2.21c-0.11-1.76-0.6-3.79,0.76-5.21
	c3.01-4.16,8.54-4.43,13.05-5.83c5.65-1.48,9.94-6.43,15.97-6.75c4.53-0.17,9.15,0.37,13.53-1.17c0.66-13.17,0.66-26.73-3.4-39.41
	c-0.23-1.41-0.49-2.83-1.54-3.87c-0.56,1.15-1.13,2.28-1.71,3.41c0.58,0.57,1.18,1.14,1.79,1.72c-2.93,0.79-5.9,1.6-8.95,1.47
	c0.87-1.8,3.06-2.14,4.41-3.48c2.1-2.77,2.44-7.09-0.6-9.34c-1.54,3.56-3.37,7.18-6.54,9.57c1.39-4.12,4.62-7.8,4.1-12.39
	c-0.52-1.76-1.82-3.14-2.74-4.68c-0.52,5.07,0.38,11.58-4.23,15.06c0.66-3.27,1.11-6.56,1.37-9.88c-1.59,2.14-4.22,7.3-7.05,3.96
	c3.98-0.68,5.39-4.85,5.8-8.35c0.34-3.89-0.08-7.95-1.85-11.48c-1.94-4.2-3.04-8.71-3.78-13.25c-6.74-0.67-10.91-7.16-11.76-13.39
	c-0.61-4.41-1.37-8.94-4.01-12.65c-3.78-5.46-3.88-12.59-2.35-18.83c0.58-2.35,2.25-4.3,4.66-4.87
	c-7.88-16.39-9.49-35.84-3.46-53.07c4.12-12.19,12.95-22.05,22.56-30.28c3.86-3.06,8.04-6.05,12.93-7.18
	c-12.63,7.27-22.47,18.91-28.66,32c7.94-10.63,17.64-20.28,29.18-26.97l0.29,0.57c-13.79,9.49-24.71,23-31.66,38.19
	c6.34-9.22,13.53-18.22,22.6-24.85c-10.33,11.66-20.59,24.06-25.7,39.01c-0.51,5.41,0.88,10.77,1.31,16.14
	c1.63-5.8,3.93-11.64,8.52-15.77c-4.13,6.84-5.66,14.8-5.58,22.71c-0.43,6.06,3.38,11.3,3.59,17.31c-1.93-1.32-3.45-3.07-4.69-5.01
	c-2.65,1.26-3.5,4.12-3.88,6.82c2.3-3.39,7.05-2.86,9.55-0.04c-0.04-0.62-0.1-1.85-0.14-2.46c4.26,2.72,4.68,8.41,5.43,12.96
	c1.28,0.51,2.57,1.03,3.86,1.58c-1.38,2.98-4.33,0.06-6.28-0.62c-0.38,3.64,0.01,7.35,1.22,10.81c1.11,0.39,2.23,0.79,3.36,1.21
	c-0.01-2.6-0.08-5.2-0.08-7.79c3.77,4.24,2.43,10.14,1.48,15.16c0.29,13.95,7.67,26.5,15.99,37.24c5.56,7.9,12.19,15.52,14.96,24.96
	c-3.52-1.44-5.18-5.16-7.45-7.96c4.28,12.82,4.35,26.56,3.79,39.92c-0.06,4.61,3.93,7.97,7.23,10.63c9.9,7.36,23.05,6,34.59,4.74
	c-5.43,4-12.59,3.69-18.99,3.43c-9.96-0.63-20.54-4.82-25.58-13.94c-1.12,2.31-3.19,4.96-1.74,7.6c2.57,5.94,9.57,7.63,13.46,12.42
	c-1.07-0.08-2.06-0.37-2.96-0.87c-4.22-2.44-8.9-4.29-12.2-8.03c-0.39,13.47,2.93,27.27,10.41,38.58c4.71,7.2,7.7,15.29,10.86,23.24
	c4.04,7.19,5.42,15.39,7.34,23.31c1.38,6.26,1.6,12.67,1.86,19.06c1.89-8.84,6.46-16.7,9.84-25.01c4.13-9.35,8.16-18.85,14.07-27.26
	c2.05-2.65,2.3-6.11,3.44-9.16c3.95-11.21,9.05-22.06,11.88-33.64c1-4.19,1.29-8.54,0.81-12.83c-5.08,6.3-12.05,11.09-19.98,12.94
	c-9.26,2.72-19.08,2.54-28.55,1.18c11.03-0.52,22.58,0.06,32.83-4.79c5.95-2.48,10.9-6.81,14.75-11.92
	c-0.86-2.37-1.9-4.67-3.03-6.91c-3.94,6.04-9.6,12.11-17.29,12.48c3.26-3.22,7.87-4.81,10.62-8.6c3.76-4.69,4.7-11,4.1-16.84
	c-0.73-9.23-0.77-18.54,0.62-27.72c-2.13,4.45-4.25,9.31-8.53,12.11c-4.44,2.81-9.74,3.79-14.9,4.2c-6.74,0.5-13.52,0.48-20.26,0.04
	c-3.28,4.74-1.74,10.92,1.09,15.46c-6.1-3.2-7.68-11.15-4.82-17.1c-3.19-2.02-6.31-4.6-7.28-8.42c4.93,4.49,11.54,6.89,18.22,6.27
	c8.98-0.47,19.05,0.58,26.75-5c4.89-4.05,9.4-8.88,11.91-14.8c6.03-13.91,15.03-26.81,17.55-42.02c1.42-7.03-0.57-14.08-0.65-21.13
	c3.42,2.93,3.92,7.97,4.84,12.17c0.1,1.46,1.71,1.96,2.63,2.84c3.34-1.66,5.28-5.02,5.58-8.67c0.1-2.85,2.21-4.84,3.46-7.21
	c1.29-5.54,0.33-11.33,1.71-16.87c0.97-4.04-0.41-9.94-5.38-10.23c-1.11,3.14-2.61,6.14-4.58,8.82c-1.86,2.33-2.15,5.44-3.67,7.96
	c-1.42-8.37,3.11-16.33,2.92-24.69c0.15-6.91-0.46-13.8-0.85-20.69l0.49-0.07c1.99,6.71,3.02,13.64,3.94,20.56
	c-0.36-11.57,0.19-23.28-2.08-34.7c-4.46-14.14-13.28-26.44-23.41-37.08c-1.56-1.6-3.11-3.21-4.41-5.01
	c8.15,5.77,15.32,12.93,21.25,20.97c-5.54-11.35-14.23-21.61-25.83-27.02c-4.98-2.36-10.51-4.74-16.12-3.48
	c5.34,1.2,11.3,2.43,15.1,6.7c-5.53-1.86-11.02-4.46-17.03-3.96c2.35,1.86,4.63,3.92,5.99,6.66c-3.53-2.67-7.44-5.22-11.98-5.58
	c-3.87-0.08-7.22-2.62-11.14-2.25c-8.45,0.24-16.19,4.11-24.15,6.53c5.91-3.87,12.29-7.14,19.09-9.14
	C408.65,98.58,401.76,100.98,394.81,102.87 M356.29,205.26c0.26,3.84,0.1,7.96,2.09,11.4c1.66,3,3.61,5.96,4.07,9.45
	c0.39,3.9,2.94,7.04,3.68,10.85c0.51,2.76,3.57,3.78,5.93,4.46c0.31-4.04,1-8.03,1.2-12.07c-1.37,1.23-3.45,1.9-4.8,0.27
	c-1.81-2.49-1.54-5.75-0.96-8.59c-1.45-2.47-3.61-4.39-5.22-6.73c0.97,0.22,2.89,0.66,3.86,0.88c-0.45-3.82-2.02-7.81-5.14-10.19
	C359.4,204.86,357.9,205.8,356.29,205.26 M463.6,326.25c-0.13,3.81,3.34,6.16,4.82,9.37c3.73,5.78,2.98,13.1,1.2,19.41
	c-2.75,9.74-6.47,19.17-10.25,28.54c-1.91,4.77-4.37,9.3-7.32,13.51c-6.59,13.89-12.54,28.09-18.87,42.11
	c-0.9,1.58-1.04,3.83-2.8,4.72c-0.02,0.99-0.01,1.99,0.04,2.99c2.58-6.61,5.84-12.93,9.65-18.93c8.96-14.67,18.99-28.71,30.2-41.76
	c6.95-7.62,14.06-15.34,22.61-21.16c1.38-3.14,4.52-3.88,7.7-3.64c-0.16-1.85-0.3-3.92-1.8-5.24c-4.34-1.65-8.72,0.94-12.56,2.74
	c3.06-3.96,7.67-6.97,12.88-6.22c-1.7-5.61-6.85-9.31-12.12-11.27c-4.28-1.05-8.25,1.51-11.07,4.46c0.5-3.19,2.21-6.12,5.2-7.57
	C476.69,332.61,470.6,328.15,463.6,326.25 M422.77,452.59c0.47,1.47,1.05,2.92,1.69,4.34c2-0.88,4.84-1.57,4.74-4.34
	C427.05,452.25,424.89,452.2,422.77,452.59z"/>
<path fill="#020101" d="M444.43,133.55c2.43-3.82,3.54-8.25,4.19-12.68c2.02,9.27-2.71,18.29-8.82,24.93
	c-9.26,9.87-21.65,16.87-34.92,19.55c1.99,2.16,5.71,0.93,8.15,2.63c2.14,0.84,2.65,3.22,3.04,5.23c-2.51-0.64-4.28-3.08-6.94-3.13
	c-3.4-0.06-6.81-0.11-10.1-0.99c-4.04-0.82-7.81-3.09-12.01-2.92c-3.13,0.56-5.76,2.53-8.71,3.59c1.49-2.97,4.61-4.62,7.68-5.53
	c5.86-1.46,11.37,2.16,17.2,1.81C418.04,156.92,435,148.97,444.43,133.55z"/>
<path fill="#020101" d="M454.2,129.01c6.13,2.17,9.39,8.41,11.68,14.08c1.86,4.44,2.81,9.21,2.92,14.02
	c-2.72-5.78-4.09-12.12-7.32-17.67C459.44,135.7,456.61,132.49,454.2,129.01z"/>
<path fill="#020101" d="M463.91,134.97c10.55,11.39,17.19,26.51,18.08,42.04c-0.14,3.67,0.15,7.32,0.95,10.9
	c0.41,7.61-0.27,15.26-1.47,22.78c0.7,0.1,2.11,0.3,2.81,0.4c-0.56,2.77-3.63,3.94-6.14,4.07c0.02-3.73,0.99-7.35,1.63-11
	c0.77-3.54-0.82-7.02-2.48-10.05c-1.24,1.37-2.14,3.4-4.15,3.72c-9.52,2.51-19.45,2.3-29.2,2.1c-3-0.33-6.47-0.95-8.33-3.57
	c-2.82-4.27-0.56-10.04-3.7-14.14c-3.31-2.53-7.54-0.66-10.84,0.87c1.68,5.46,1.32,11.34,0.4,16.91c-0.81,3.52-2.02,7.63-5.54,9.34
	c1.15-4.09,2.53-8.13,3.22-12.34c-6.62,4.95-15.32,4.9-23.21,5.22c-4.89-0.06-10.06,1.67-14.71-0.44c-2.61-1.28-3.78-4.03-4.83-6.55
	c-1.92-0.75-2.99,1.99-4.13,3.11c-1.18,5.5,1.31,10.95,1.17,16.47c-1.15-1.01-2.22-2.17-2.48-3.72c-1.53-5.85-1.79-11.97-1.49-17.99
	c-0.58,0.77-1.74,2.32-2.32,3.09c-0.7-7.31-0.62-14.92,2.28-21.8c2.95-7.22,6.13-15,12.57-19.82c-2.93,5.02-6.29,9.84-8.19,15.39
	c-2.37,7.03-4.39,14.3-4.88,21.74l0.92,0.11c0.24-4.95,0.81-11.12,5.21-14.14c-0.16,2.44-0.86,4.87-0.51,7.32
	c0.66-1.92,0.93-3.94,1.5-5.89c1.04-1.44,2.97-1.76,4.46-2.58c0.81,0.43,1.63,0.87,2.46,1.31l-1.77,0.7
	c-0.3,0.35-0.89,1.06-1.18,1.42c0.05,6.46,2.08,12.68,3.12,19.01c1.78,1.08,3.7,2.16,5.88,2.04c7.67,0.17,15.45-0.21,22.89-2.2
	c3.44-0.81,5.67-3.69,7.87-6.23c0.33-4.37-1.04-8.62-3.11-12.41c-3.29-0.89-6.65-1.51-10.03-1.87l0.26,1.55
	c-5.12-1.5-11.7-0.58-15.31,3.58c3.28-1.36,6.59-3.24,10.29-2.79c3.59,0.12,8.21,1.95,8.12,6.25c-1.36-0.85-2.59-1.74-3.84-2.69
	c0.28,3.3-1.64,6.12-4.32,7.85c2.14-0.42,4.28-0.81,6.47-0.97c-5.23,3.96-12.53,2.47-18.54,1.46c2.69-0.98,5.56-0.28,8.33-0.07
	c-2.92-1.99-4.63-5.26-3.52-8.83c-2.86,1.39-5.23,3.5-7.66,5.51c0.51-1.33,2.25-2.52,1.27-4.11c3.8-5.4,10.38-8.04,16.86-7.48
	c-6.9-0.31-13.9-0.67-20.79,0.14c-0.71-0.55-1.41-1.11-2.09-1.66c5.89-0.79,11.81-1.67,17.78-1.29c8.35,0.27,16.56,2.56,24.93,2.29
	c6.68-1.07,13.48-1.34,20.08-2.91c6.26-1.48,12.73-1.14,19.11-0.91c3.81,0.21,7.73-0.61,11.46,0.5c2.93,2.33,2.09,6.72,4.35,9.53
	c-1.31-15.01-5.61-29.89-13.21-42.96C465.64,138.57,464.66,136.82,463.91,134.97 M454.6,175.94c-6.15-0.09-12.57,0.99-17.99,3.84
	c-1.68,4.07-0.1,8.67,1.09,12.69c0.72,1.86,0.91,4.58,3.31,5.02c8.58,1.72,17.58,1.38,26.15-0.33c4.42-0.59,5.33-5.66,6.16-9.23
	c0.32-3.46,1.27-7.43-0.69-10.57C467.18,174.22,460.56,175.59,454.6,175.94 M400.5,185.29c1.11,1.43,3.04,0.95,4.61,1.21
	C405.08,183.59,402.24,184.61,400.5,185.29z"/>
<path fill="#020101" d="M418.96,150.7c6.6-3.8,10.98-10.3,17.12-14.67c-6.1,10.12-15.8,17.53-26.2,22.86
	c-3.15,1.56-6.55,2.55-10.02,2.96C405.87,157.62,412.82,154.82,418.96,150.7z"/>
<path fill="#020101" d="M392.35,157.45c4.33-1.62,8.25-4.24,12.74-5.43c-3.77,3.26-8.52,4.95-12.88,7.21
	c-3.2,1.62-6.3,3.66-9.94,4.1C384.53,159.89,388.83,159.05,392.35,157.45z"/>
<path fill="#020101" d="M435.85,169.46c10.61-2.07,19.86-10.16,31.16-8.52c3.38,0.66,8.02,3.56,6.71,7.58
	c-2.03,0.64-2.2-2.1-3.36-3.06c-1.81-2-4.85-2.8-7.46-2.33c-6.77,1.17-12.36,5.58-18.87,7.52
	C441.27,171.43,438.13,171.35,435.85,169.46z"/>
<path fill="#020101" d="M441.89,180.73c1.38-2.5,4.12-3.85,6.94-3.83c5.8-0.1,12.12,1.44,16.09,5.97c-2.25-0.21-3.99-1.77-5.93-2.73
	C453.69,177.33,446.86,177.04,441.89,180.73z"/>
<path fill="#020101" d="M407.46,179.25C408.03,179.93,408.03,179.93,407.46,179.25z"/>
<path fill="#020101" d="M442,184.41c4.77-6.23,14.01-5.25,19.98-1.44c2.24,1.26,3.62,3.57,3.97,6.11c-1.88-1.23-3.65-2.57-5.39-3.96
	c-0.54,2.43-1.82,5.09-4.37,5.87c-2.96,0.53-6.94,0.03-8.23-3.09c-1.01-2.07,0.17-4.23,0.94-6.14c-2.32,0.66-4.56,1.53-6.47,3.02
	L442,184.41z"/>
<path fill="#020101" d="M452.08,192.18c3.31,0.12,6.6-0.41,9.91-0.67c-0.51,1.75-2.65,1.38-4.02,1.66
	c-4.51,0.19-9.1,0.47-13.53-0.56C446.86,191.57,449.53,192.18,452.08,192.18z"/>
<path fill="#020101" d="M457.01,195.63c3.13-1.08,6.33-1.98,9.56-2.74C464.11,195.49,460.29,195.33,457.01,195.63z"/>
<path fill="#020101" d="M491.27,199.1c2.86-1.8,6.17,0.95,5.82,4.12c-1-1.11-1.9-2.33-3.01-3.31c-3.87,1.42-3.73,6.27-3,9.59
	c1.08-1.31,2.12-2.73,3.63-3.6c-1.29,4.28-3.74,8.13-5.71,12.12c0.76,1.9,2.07,3.95,0.91,5.98c-2.54,0.05-2.59-3.24-3.56-4.96
	c-1.69-3.08,3.03-4.85,2.21-7.81C487.54,207.12,488.23,202.21,491.27,199.1z"/>
<path fill="#020101" d="M412.25,218.9c3.76,2.37,7,5.99,11.78,6.17c5.38,1.2,10.25-1.71,15.41-2.49c-0.82,3.36-4.27,4.99-7.4,5.49
	c-4.55,0.71-9.51,0.67-13.68-1.5C415.33,224.98,413.72,221.81,412.25,218.9z"/>
<path fill="#020101" d="M469.79,236.23c4.04,2.99,5.71,11.56,0.35,14.02C469.61,245.61,469.53,240.89,469.79,236.23z"/>
<path fill="#020101" d="M383.01,251.12c-0.6-4.09-0.51-9.48,3.98-11.38c-1.29,5.11-0.1,10.22,0,15.36
	C384.75,255.14,383.25,253.17,383.01,251.12z"/>
<path fill="#020101" d="M458.2,247.48c1.31-0.1,1.97-1.42,2.99-2.1c2.01,1.06,2.68,5.42-0.01,5.84c-1.93-0.75-4.25-0.14-5.36,1.64
	c-3.19,4.82-5.85,10.28-10.73,13.66c-4.73,3.08-10.53,3.32-15.95,4.01c-5.37,0.79-11.24,0.98-16.06-1.91
	c-6.53-3.66-9.3-11.06-14.35-16.24c-1.15,0.65-2.15,2.47-3.67,1.64c-1.98-1.64-3.25-4.59-2.03-7.04c1.69-0.93,2.55,1,3.35,2.07
	c1.18,0.53,2.34,1.09,3.61,1.45c10.09-0.18,19.86-3.45,29.99-3.41C439.38,246.85,448.84,249.33,458.2,247.48 M419.06,249.4
	c-4.78,1.67-9.58,3.32-14.7,3.44c-0.22,2.34,2.38,4.29,4.51,4.93c8.43,2.44,17.37,2.22,26.02,1.34c5-0.4,10.33-0.67,14.72-3.38
	c2.03-1.17,3.1-3.34,3.56-5.56C441.89,248.94,430.33,247.24,419.06,249.4z"/>
<path fill="#020101" d="M442.01,275.69c2.88-0.88,5.01-3.17,7.72-4.41c-1.88,5.78-8,8.53-13.57,9.42
	c-5.34,0.74-10.82,0.86-16.13-0.06c-3.88-0.75-7.89-2.56-9.74-6.26C420.06,279.16,431.82,279.17,442.01,275.69z"/>
<path fill="#020101" d="M284.58,312.59c2.92-4.65,11.74-5.99,13.28,0.41c-0.77,8.14-3.62,16.38-1.19,24.54
	c2.04,2.44,4.1,5.02,4.65,8.27c1.09,5.79,3.27,11.8,1.48,17.67l-1.25,0.61c-0.54-6.39-1.68-12.7-2.83-18.99
	c-0.51-2.84-2.17-5.3-4.56-6.88c-3.6,1.15-7.4,0.61-11.08,1.19c-6.72,1.16-13.52-0.13-20.2-0.98c5.06-0.52,10.14,0.27,15.21,0.03
	C276.58,329.48,279.45,319.98,284.58,312.59 M286.81,313.93c-4.77,6.99-5.55,15.87-5.52,24.1c4.53-0.51,9.11-1.38,13.66-0.44
	c-3.64-8.84,0.51-18.25,1.3-27.23C292.67,309.62,288.84,310.76,286.81,313.93z"/>
<path fill="#020101" d="M253.56,351.01c4.77-2.26,1.32-10.3,6.9-11.1c-1.1,2.29-1.35,4.8-1.61,7.29c-0.28,2.37-2.37,3.9-3.87,5.53
	C254.5,352.15,254.02,351.58,253.56,351.01z"/>
<path fill="#020101" d="M353.81,361.72c-2.15-4.96-2.79-11.1,0.55-15.7c0.11,2.41,0.35,4.81,0.73,7.2c1.4-1.94,2.7-4.12,4.88-5.3
	c6.25-3.53,14.96-1.16,18.97,4.69c-4.77-2.09-10.31-3.97-15.41-1.94c-3.41,1.39-5.15,4.9-5.69,8.36c3.41-2.06,6.85-4.9,11.1-4.56
	c4.58-0.1,8.78,3.1,10.37,7.33c3.15,9.87,14.86,15.28,15.61,26.15c-2.77-1.85-4.44-4.8-6.26-7.49c-4.15-6.4-9.23-12.11-14.53-17.55
	c-1.78-1.68-3.34-4.71-6.25-3.86c-5.55,1.8-10.1,5.65-14.8,8.96c-10.12,7.43-20.16,16.1-24.92,28.06c-2,6.07,1.49,12.13,0.8,18.27
	c-1.8-2.98-3.31-6.12-4.65-9.32c-1.63,0.87-3.17,1.92-4.23,3.46c-0.67-0.51-1.32-1.02-1.96-1.53c1.06-2.51,2.95-4.4,5.22-5.84
	c1.86-12.24,10.07-22.56,19.3-30.43C346.24,367.54,350.13,364.76,353.81,361.72z"/>
<path fill="#020101" d="M265.95,348.26c6.58,4.26,14.66,2.71,22.05,3.03c2.53,0.14,5.94-0.25,7.26,2.57
	c-7.36-2.32-14.9,1.19-22.3-0.54C269.99,352.87,266.75,351.48,265.95,348.26z"/>
<path fill="#020101" d="M251.98,352.37c0.48,0.53,0.96,1.07,1.45,1.61c-1.87,2.13-0.5,4.8-0.12,7.18c0.92,2.85-1.27,5.27-2.28,7.74
	c-0.92,3.44,1.72,6.78,0.67,10.2c-1.05,4.19-1.45,8.61-0.69,12.87c1.29,4.19,4.33,7.71,4.92,12.15c-4.89-4.88-6.31-11.77-7.9-18.2
	c-1.3-2.99,0.65-5.92,1.07-8.86c0.14-2.81-1.43-5.45-1.09-8.27c0.65-2.95,3.09-5.52,2.29-8.71
	C249.64,357.33,250.71,354.75,251.98,352.37z"/>
<path fill="#020101" d="M295.88,354.16c4.66,4.78,4.54,11.78,6.65,17.65c-0.25,0.17-0.77,0.52-1.02,0.7
	c-0.56,1.9-1.45,3.83-3.48,4.59c0.38-3.05,1.27-6.1,0.88-9.19C298.41,363.21,296.07,358.9,295.88,354.16z"/>
<path fill="#020101" d="M261.5,361.05c0.28-0.17,0.86-0.49,1.14-0.65c0.79,1.29,1.95,2.2,3.55,2.28c6.27,0.51,12.58-0.1,18.86,0.34
	c2.22,0.16,4.17,1.37,5.63,3.02c-6.56-0.43-13.1-1.26-19.69-1.02C267.43,365.23,263.31,364.51,261.5,361.05z"/>
<path fill="#020101" d="M463.22,385.19c5.44-7.49,10.97-15.03,17.86-21.26c-2.75,6.28-7.33,11.47-11.29,16.98
	c-3.91,5.1-7.24,10.7-11.93,15.14C458.44,391.96,461.04,388.57,463.22,385.19z"/>
<path fill="#020101" d="M290.67,365.53c3.02,1.51,4.3,4.83,5.12,7.9c1.09,4.2,1.67,8.61,0.72,12.9c-1.8-2.72-1.7-6.13-2.36-9.21
	C293.7,373.07,292.24,369.25,290.67,365.53z"/>
<path fill="#020101" d="M302.13,372.2l0.88,0.02c0.82,9.46-2.57,18.48-3.94,27.72c-1.91,10.92-2.16,22.01-2.34,33.07
	c1.54,0.72,3.33,1.32,4.2,2.94c2.74,4.38,3.6,9.57,4.79,14.51c0.54,2.41,3.11,3.58,3.89,5.9c2.79,7.07,3.07,15.05,1.7,22.47
	c0.67-1.96,1.85-3.64,3.49-4.91c-0.59-3.28-0.57-6.62-0.81-9.93c-0.39-5.16-3.59-9.81-3.04-15.08c0.09-2.75,2.57-4.55,3.52-6.97
	c-0.54-3.13-2.55-5.85-2.83-9.06c-1.06-5.27,1.69-10.85,6.46-13.28c-0.89-1.9-1.95-3.73-2.72-5.68c-0.28-1.9,0.8-3.64,1.3-5.4
	c0.68,0.44,1.37,0.88,2.07,1.33c-2.17,3.38,0.94,6.2,2.12,9.16c2.76,6.91,7.94,12.81,8.96,20.38c-4.76-4.03-7.75-9.74-10.62-15.18
	c-2.4,1.89-3.15,4.87-3.25,7.8c2.62,4.33,3.66,9.34,5.5,14.01c0.98,2.94,2.66,5.59,3.49,8.59c-3.02-2.79-5.78-5.9-7.54-9.64
	c-1.89,1.79-3.78,4.16-2.8,6.97c1.86,7.02,4.33,14.34,2.39,21.65c2.8,0.57,5.13,2.34,6.66,4.73c-2.72-0.22-5.86-2.61-8.29-0.47
	c4.59,1.46,7.26,5.71,8.34,10.2c-2.85-1.97-4.99-5.43-8.67-5.86c-1.9-0.46-2.8,1.6-3.83,2.75c1.91,4.21,5.05,7.73,6.71,12.08
	c2.61,6.42,6.66,12.69,6.33,19.89c0.03,2.27-1.02,4.31-2.46,5.99c-2.33-1.56-1.71-4.61-2.24-6.98c-0.57-6.31-3.21-12.14-5.17-18.09
	c-1.44-4.8-6.08-7.96-6.87-13.03c-0.95-5.6,0.83-11.22,0.39-16.84c-0.42-4.15-0.8-8.54-3.13-12.13c-5.04,6.1-13.18,9.45-21.03,9.03
	c6.75-2.56,14.12-5.56,18.32-11.75c-2.11-5.68-1.54-12.61-5.77-17.33c-0.39,2.58,0.66,5.9-1.82,7.67
	c-4.83,3.89-11.49,4.84-17.49,3.91c-3.47,0.19-5.88-2.57-7.7-5.13c-0.62,4.99-0.07,10.02,1.09,14.89c3.39,1.19,4.7,5.12,7.7,7.02
	c-2.13,0.83-4.29,0.41-6.37-0.28c1.42,3.52,6.39,1.23,8.54,4.04c1.34,0.58-0.12,1.91-0.95,1.74c-3,0.81-6.02-0.21-8.81-1.25
	c-0.82,3.83-1.81,7.74-1.32,11.69c0.37,2.8,2.04,5.18,2.83,7.86c0.98,3.44-1.39,6.64-1.37,10.05c0.33,3.35,1.91,6.51,1.83,9.93
	c-0.19,4.04-1.64,7.99-1.08,12.07c-0.19,1.67,1.34,4.7-1.27,5.09c-4.46-2.82-3.52-8.74-2.52-13.1c1-3.97,0.31-8.03-0.54-11.94
	c-0.79-3.44,0.64-6.75,1.09-10.1c-0.21-2.55-2.07-4.59-2.47-7.1c-0.92-5.5,0.1-11.47,3.55-15.95c-0.41-3.72-2.55-6.96-2.85-10.7
	c-0.62-5.81-1.19-12.01,1.31-17.48c0.86-5.81,0.18-11.69-1.1-17.39c-4.82-4.56-8.66-10.23-10.68-16.58
	c5,5.01,8.28,12.17,15.14,15.05c5.21,2.06,9.82-1.98,14.25-4.08c-0.73,6.99-9.34,9.66-15.17,7.38c-0.16,3-0.84,5.94-1.04,8.93
	c0.59,2.9,1.21,5.87,2.68,8.47c1.59,2.74,4.84,3.64,7.24,5.49c5.18-1.58,11.52-2.27,14.68-7.26c0.72-9.06,0.25-18.19,1.06-27.24
	C295.35,398.07,300.5,385.45,302.13,372.2z"/>
<path fill="#020101" d="M258.56,376.09c8.88,3.2,18.63,0.33,27.5,3.46c3.96,2.43,5.76,7.13,6.87,11.43c0.6,4.68-1.62,9.5-5.22,12.48
	c0.7,2.69,0.1,5.41-1.01,7.9c-0.62-2.12-1.18-4.24-1.82-6.34c-4.73,0.67-10.14-0.15-14.01-2.98c3.48-0.58,6.74,1,10.15,1.32
	c4.03-0.18,6.7-3.57,8.9-6.56c0.6-5.92-0.71-11.91-3.72-17.04c-7.03,1.05-14.12-0.12-21.15-0.43
	C262.49,379.29,259.88,378.42,258.56,376.09z"/>
<path fill="#020101" d="M264.18,392.42c5.17,0.22,11.55,2.63,15.78-1.47c0.99,1.76,1.98,3.52,2.98,5.28
	c-1.83,2.48-4.52,0.71-6.89,0.45c-2.08-0.07-3.72,1.28-5.42,2.23c0.61-1.5,1.59-2.78,2.85-3.8
	C270.21,394.92,267.09,393.84,264.18,392.42z"/>
<path fill="#020101" d="M342.39,442.85c-0.83-4.89-2.69-9.71-2.01-14.76c0.49,5.66,4.04,10.36,5.14,15.87
	c1.17,5.41,2.67,10.74,4.69,15.9c2.73,7,3.87,14.68,8.01,21.07c2.35,3.75,4.68,7.66,5.25,12.13c1.08,7.74,4.62,14.99,4.91,22.84
	c0.04,1.78-0.79,5.21-3.27,4.1c-1.34-1.69-1.63-3.89-2.07-5.92c-0.89-4.81-2.3-9.49-3.62-14.19c-0.32,8.08-3,15.94-7.39,22.7
	c-0.49-5.01,1.71-9.66,2.58-14.49c1.12-8.07,1.53-16.45-1.06-24.29C348.51,470.59,344.33,456.91,342.39,442.85z"/>
<path fill="#020101" d="M519.39,440.96c1.93-4.57,3.08-10.06,7.21-13.2c-2.21,5.95-3.59,12.16-5.8,18.11
	c-4.49,12.65-6.97,26.38-4.54,39.74c2.53-5.19,4.27-11.12,8.94-14.9c-0.65,6.04-4.14,11.28-5.38,17.19
	c-1.41,4.59-1.18,9.43-0.66,14.15c1.16-0.84,2.34-1.67,3.55-2.48c-0.83,3.35-2.47,6.84-1.42,10.35c1.13,3.83,2.76,7.88,1.62,11.92
	c-0.73,1.46-2.52,1.62-3.9,1.21c-1.38-1.87,0.35-4.16-0.15-6.21c-1.08-4.08-1.3-8.43-3.22-12.24c-1.28-2.62-1.27-5.56-1.11-8.38
	c-0.55,4.07-1.66,8.03-3.14,11.85c-1.89,4.79-0.54,10.01-1.32,14.96c-0.14,2.29-3.72,4.57-5.06,1.95c2.2-6.08-0.47-12.79,2.24-18.74
	c2.26-5.23,3.38-10.81,4.16-16.42c1.11-3.6-0.46-7.22-0.42-10.85C510.55,465.81,514.47,453.02,519.39,440.96z"/>
<path fill="#020101" d="M428.89,457.6c3.65,1.43,3.33,6.13,4.09,9.34c-0.19,1.14,0.5,4.15-1.44,3.68c-0.17-0.84-0.51-2.54-0.68-3.39
	c-0.64,1.07-1.13,2.22-1.22,3.47c-0.45,0.28-1.34,0.83-1.78,1.11c1.08,0.05,3.25,0.15,4.33,0.2c-0.32,0.58-0.95,1.72-1.27,2.29
	c-0.65,0.08-1.95,0.25-2.61,0.34c-1.03,9.1,0.26,18.25-0.06,27.38c0.23,7.42,0.3,14.84,0.75,22.25c-1.47-0.14-2.2-0.9-2.21-2.28
	c-0.38-8.51-0.22-17.04-0.4-25.55c0.02-7.1-1.09-14.27,0.26-21.32c-2.44-0.32-6.16-0.24-6.31-3.49c2.41,0.06,5.92,2.05,7.85-0.19
	c-1.79,0.1-3.56,0.31-5.32,0.51c-0.01-1.04-0.03-3.11-0.04-4.15c2.58-0.78,5.29-0.71,7.96-0.5
	C429.87,464.13,428.87,460.93,428.89,457.6 M424.43,469.27c0.03,1.4,2.55,1.12,3.41,0.5C427.85,468.32,425.25,468.6,424.43,469.27z"
	/>
<path fill="#020101" d="M429.66,474.96l0.97,0.8c0.48,15.91-0.04,31.89,1.25,47.79l-1.83,0.05c-0.53-6.52-0.7-13.06-1.2-19.57
	C429.51,494.35,428.81,484.62,429.66,474.96z"/>
</svg>
