<?xml version="1.0" encoding="utf-8"?>
<!-- Generator: Adobe Illustrator 17.0.0, SVG Export Plug-In . SVG Version: 6.00 Build 0)  -->
<!DOCTYPE svg PUBLIC "-//W3C//DTD SVG 1.1//EN" "http://www.w3.org/Graphics/SVG/1.1/DTD/svg11.dtd">
<svg version="1.1" id="Layer_1" xmlns="http://www.w3.org/2000/svg" xmlns:xlink="http://www.w3.org/1999/xlink" x="0px" y="0px"
	 width="800px" height="600px" viewBox="0 0 800 600" enable-background="new 0 0 800 600" xml:space="preserve">
<polygon fill="#FFFFFF" points="604.656,321.896 602.783,321.896 602.783,318.031 604.656,318.031 604.656,321.896 "/>
<polygon fill="#FFFFFF" points="607.615,321.896 605.743,321.896 605.743,318.031 607.615,318.031 607.615,321.896 "/>
<polygon fill="#FFFFFF" points="610.695,322.078 608.823,322.078 608.823,318.212 610.695,318.212 610.695,322.078 "/>
<polygon fill="#FFFFFF" points="618.97,328.057 617.158,328.057 617.158,318.273 618.97,318.273 618.97,328.057 "/>
<polygon fill="#FFFFFF" points="621.597,327.996 619.785,327.996 619.785,318.212 621.597,318.212 621.597,327.996 "/>
<polygon fill="#FFFFFF" points="615.92,327.815 614.108,327.815 614.108,318.031 615.92,318.031 615.92,327.815 "/>
<polygon fill="#FFFFFF" points="613.504,326.788 611.813,324.433 611.692,318.031 613.504,318.031 613.504,326.788 "/>
<polygon fill="#FFFFFF" points="609.095,324.916 606.377,324.916 606.377,323.769 609.095,323.769 609.095,324.916 "/>
<polygon fill="#FFFFFF" points="606.739,325.701 606.739,327.695 609.88,327.695 609.095,325.701 606.739,325.701 "/>
<path fill="#FFFFFF" d="M611.088,330.473l1.268,2.899h5.678v-1.026h-4.711C613.323,332.345,611.148,329.929,611.088,330.473
	L611.088,330.473z"/>
<polygon fill="#FFFFFF" points="621.718,333.432 619.906,333.432 619.906,332.466 621.718,332.466 621.718,333.432 "/>
<polygon fill="#FFFFFF" points="621.657,345.814 619.906,345.814 619.906,339.109 621.657,339.109 621.657,345.814 "/>
<polygon fill="#FFFFFF" points="621.899,347.746 619.725,347.746 619.725,346.659 621.899,346.659 621.899,347.746 "/>
<polygon fill="#FFFFFF" points="621.778,350.163 619.604,350.163 619.604,349.075 621.778,349.075 621.778,350.163 "/>
<polygon fill="#FFFFFF" points="621.657,353.846 619.483,353.846 619.483,352.76 621.657,352.76 621.657,353.846 "/>
<polygon fill="#FFFFFF" points="622.02,338.204 619.846,338.204 619.846,337.117 622.02,337.117 622.02,338.204 "/>
<polygon fill="#FFFFFF" points="621.96,335.969 619.785,335.969 619.785,334.882 621.96,334.882 621.96,335.969 "/>
<polygon fill="#FFFFFF" points="631.656,333.905 630.405,333.905 630.405,333.01 631.656,333.01 631.656,333.905 "/>
<polygon fill="#FFFFFF" points="631.614,345.377 630.405,345.377 630.405,339.165 631.614,339.165 631.614,345.377 "/>
<polygon fill="#FFFFFF" points="631.781,347.167 630.28,347.167 630.28,346.16 631.781,346.16 631.781,347.167 "/>
<polygon fill="#FFFFFF" points="631.698,349.406 630.196,349.406 630.196,348.398 631.698,348.398 631.698,349.406 "/>
<polygon fill="#FFFFFF" points="631.614,352.82 630.113,352.82 630.113,351.812 631.614,351.812 631.614,352.82 "/>
<polygon fill="#FFFFFF" points="631.865,338.326 630.364,338.326 630.364,337.318 631.865,337.318 631.865,338.326 "/>
<polygon fill="#FFFFFF" points="631.822,336.255 630.321,336.255 630.321,335.247 631.822,335.247 631.822,336.255 "/>
<path fill="#FFFFFF" d="M623.046,331.862l-0.181,1.027c0,0,2.053,1.208,3.684,1.812c1.631,0.604,2.174,0.423,2.174,0.423
	l0.121-1.087C628.845,334.036,624.315,333.191,623.046,331.862L623.046,331.862z"/>
<path fill="#FFFFFF" d="M623.046,334.097l-0.181,1.027c0,0,2.053,1.208,3.684,1.812c1.631,0.604,2.174,0.423,2.174,0.423
	l0.121-1.087C628.845,336.271,624.315,335.425,623.046,334.097L623.046,334.097z"/>
<path fill="#FFFFFF" d="M622.805,336.512l-0.181,1.027c0,0,2.053,1.208,3.684,1.812c1.631,0.604,2.174,0.423,2.174,0.423
	l0.121-1.087C628.603,338.687,624.073,337.841,622.805,336.512L622.805,336.512z"/>
<path fill="#FFFFFF" d="M623.228,330.292v0.604c0,0,3.141,1.51,3.262,1.087C626.61,331.56,623.228,330.292,623.228,330.292
	L623.228,330.292z"/>
<polygon fill="#FFFFFF" points="622.805,340.257 622.805,344.908 627.878,344.908 627.878,345.814 622.986,345.814 622.986,348.35 
	628.663,347.746 628.663,340.922 622.805,340.257 "/>
<polygon fill="#FFFFFF" points="628.482,348.954 622.986,348.954 622.986,350.826 628.422,350.826 628.482,348.954 "/>
<polygon fill="#FFFFFF" points="628.06,352.034 622.926,352.941 622.926,354.33 627.999,353.182 628.06,352.034 "/>
<polygon fill="#FFFFFF" points="641.226,332.587 633.314,332.587 633.314,331.439 641.226,331.439 641.226,332.587 "/>
<polygon fill="#FFFFFF" points="641.226,334.338 633.495,334.338 633.495,333.251 641.226,333.251 641.226,334.338 "/>
<polygon fill="#FFFFFF" points="641.347,336.271 633.616,336.271 633.616,335.063 641.347,335.063 641.347,336.271 "/>
<polygon fill="#FFFFFF" points="641.347,343.337 632.831,343.337 632.831,337.237 641.347,337.237 641.347,343.337 "/>
<polygon fill="#FFFFFF" points="640.925,345.874 632.771,345.874 632.771,344.545 640.925,344.545 640.925,345.874 "/>
<polygon fill="#FFFFFF" points="641.045,348.29 633.555,348.29 633.555,347.142 641.045,347.142 641.045,348.29 "/>
<polygon fill="#FFFFFF" points="640.622,352.034 633.073,352.034 633.073,350.947 640.622,350.947 640.622,352.034 "/>
<polygon fill="#FFFFFF" points="644.548,343.881 642.978,343.881 642.978,340.317 644.548,340.317 644.548,343.881 "/>
<polygon fill="#FFFFFF" points="644.79,339.533 643.038,339.533 643.038,337.358 644.79,337.358 644.79,339.533 "/>
<polygon fill="#FFFFFF" points="644.608,336.573 643.642,336.573 643.642,335.486 644.608,335.486 644.608,336.573 "/>
<polygon fill="#FFFFFF" points="644.367,346.237 642.797,346.237 642.797,344.968 644.367,344.968 644.367,346.237 "/>
<polygon fill="#FFFFFF" points="644.246,348.592 642.978,348.592 642.978,347.565 644.246,347.565 644.246,348.592 "/>
<polygon fill="#FFFFFF" points="621.778,361.94 619.181,361.94 619.181,361.155 621.778,361.155 621.778,361.94 "/>
<polygon fill="#FFFFFF" points="620.812,365.322 619.06,365.322 619.06,364.355 620.812,364.355 620.812,365.322 "/>
<polygon fill="#FFFFFF" points="618.758,367.194 618.758,381.871 621.174,381.871 621.174,367.376 620.51,367.376 620.51,378.972 
	619.725,378.972 619.725,367.255 618.758,367.194 "/>
<polygon fill="#FFFFFF" points="617.671,382.173 616.041,382.173 616.041,367.073 617.671,367.073 617.671,382.173 "/>
<polygon fill="#FFFFFF" points="615.376,382.233 612.356,382.233 612.356,367.134 615.376,367.134 615.376,382.233 "/>
<polygon fill="#FFFFFF" points="605.079,382.475 602.723,382.475 602.723,367.013 605.079,367.013 605.079,382.475 "/>
<polygon fill="#FFFFFF" points="608.038,382.233 605.682,382.233 605.682,366.771 608.038,366.771 608.038,382.233 "/>
<polygon fill="#FFFFFF" points="611.36,382.233 609.004,382.233 609.004,366.771 611.36,366.771 611.36,382.233 "/>
<g>
	<radialGradient id="SVGID_1_" cx="398.2231" cy="380.2765" r="140.0142" gradientUnits="userSpaceOnUse">
		<stop  offset="0" style="stop-color:#C1B65A"/>
		<stop  offset="0.5758" style="stop-color:#110F08"/>
	</radialGradient>
	<path fill-rule="evenodd" clip-rule="evenodd" fill="url(#SVGID_1_)" d="M306.44,260.497c-0.373-2.919,0.789-4.3,1.695-5.941
		c-0.568,0-1.127,0-1.695,0c-0.257,2.293-1.813,3.275-2.547,5.087C305.707,257.978,306.1,260.996,306.44,260.497z"/>
	<radialGradient id="SVGID_2_" cx="398.1469" cy="380.2524" r="139.9545" gradientUnits="userSpaceOnUse">
		<stop  offset="0" style="stop-color:#C1B65A"/>
		<stop  offset="0.5758" style="stop-color:#110F08"/>
	</radialGradient>
	<path fill-rule="evenodd" clip-rule="evenodd" fill="url(#SVGID_2_)" d="M313.646,255.828c-0.566,0-1.13,0-1.696,0
		c-0.633,3.045-4.386,5.215-4.24,7.633C309.691,260.911,312.295,259.003,313.646,255.828z"/>
	<radialGradient id="SVGID_3_" cx="398.1322" cy="380.2871" r="139.9684" gradientUnits="userSpaceOnUse">
		<stop  offset="0" style="stop-color:#C1B65A"/>
		<stop  offset="0.5758" style="stop-color:#110F08"/>
	</radialGradient>
	<path fill-rule="evenodd" clip-rule="evenodd" fill="url(#SVGID_3_)" d="M295.84,260.07c-1.59,0.099-1.649,1.741-2.116,2.966
		C295.152,262.772,295.676,261.596,295.84,260.07z"/>
	<radialGradient id="SVGID_4_" cx="398.2203" cy="380.2576" r="140.0099" gradientUnits="userSpaceOnUse">
		<stop  offset="0" style="stop-color:#C1B65A"/>
		<stop  offset="0.5758" style="stop-color:#110F08"/>
	</radialGradient>
	<path fill-rule="evenodd" clip-rule="evenodd" fill="url(#SVGID_4_)" d="M228.016,344.004c0.841-2.145-0.354-5.806,0-9.324
		c0.33-3.254,1.928-6.195,1.696-8.903c0.813-1.308,2.109-2.134,2.116-4.24c-0.421,0-0.839,0-1.267,0
		C227.811,326.655,224.737,337.705,228.016,344.004z"/>
	<radialGradient id="SVGID_5_" cx="398.1764" cy="380.271" r="140.008" gradientUnits="userSpaceOnUse">
		<stop  offset="0" style="stop-color:#C1B65A"/>
		<stop  offset="0.5758" style="stop-color:#110F08"/>
	</radialGradient>
	<path fill-rule="evenodd" clip-rule="evenodd" fill="url(#SVGID_5_)" d="M395.036,324.928c-8.607-0.013-16.068-1.173-24.585-1.276
		C376.146,326.487,388.161,325.647,395.036,324.928z"/>
	<radialGradient id="SVGID_6_" cx="398.1778" cy="380.295" r="140.0661" gradientUnits="userSpaceOnUse">
		<stop  offset="0" style="stop-color:#C1B65A"/>
		<stop  offset="0.5758" style="stop-color:#110F08"/>
	</radialGradient>
	<path fill-rule="evenodd" clip-rule="evenodd" fill="url(#SVGID_6_)" d="M402.241,325.349c-1.122-0.594-4.842-0.781-5.936,0
		C397.607,325.764,401.035,326.255,402.241,325.349z"/>
	<radialGradient id="SVGID_7_" cx="398.1778" cy="380.4282" r="140.3897" gradientUnits="userSpaceOnUse">
		<stop  offset="0" style="stop-color:#C1B65A"/>
		<stop  offset="0.5758" style="stop-color:#110F08"/>
	</radialGradient>
	<path fill-rule="evenodd" clip-rule="evenodd" fill="url(#SVGID_7_)" d="M410.297,325.349c-0.736,0.032-1.318-0.091-1.696-0.421
		c-0.093,0.33-0.35,0.493-0.846,0.421C401.04,325.077,408.197,326.633,410.297,325.349z"/>
	<radialGradient id="SVGID_8_" cx="398.1778" cy="380.1698" r="139.7345" gradientUnits="userSpaceOnUse">
		<stop  offset="0" style="stop-color:#C1B65A"/>
		<stop  offset="0.5758" style="stop-color:#110F08"/>
	</radialGradient>
	<path fill-rule="evenodd" clip-rule="evenodd" fill="url(#SVGID_8_)" d="M372.149,328.323c0.047,0.512,0.122,0.999,0.842,0.839
		c5.99,0.147,14.674,1.927,19.928,0C386.573,328.57,378.111,327.888,372.149,328.323z"/>
	<radialGradient id="SVGID_9_" cx="398.1778" cy="380.3111" r="140.1166" gradientUnits="userSpaceOnUse">
		<stop  offset="0" style="stop-color:#C1B65A"/>
		<stop  offset="0.5758" style="stop-color:#110F08"/>
	</radialGradient>
	<path fill-rule="evenodd" clip-rule="evenodd" fill="url(#SVGID_9_)" d="M407.755,330.438c-2.052-1.974-9.164-1.301-13.986-0.85
		C398.206,329.849,404.349,330.547,407.755,330.438z"/>
	<radialGradient id="SVGID_10_" cx="398.1789" cy="380.3297" r="140.1875" gradientUnits="userSpaceOnUse">
		<stop  offset="0" style="stop-color:#C1B65A"/>
		<stop  offset="0.5758" style="stop-color:#110F08"/>
	</radialGradient>
	<path fill-rule="evenodd" clip-rule="evenodd" fill="url(#SVGID_10_)" d="M394.616,332.986c-6.967-0.085-17.875-1.452-25.014,0.421
		C376.775,334.699,388.093,333.087,394.616,332.986z"/>
	<radialGradient id="SVGID_11_" cx="398.1789" cy="379.9326" r="139.0379" gradientUnits="userSpaceOnUse">
		<stop  offset="0" style="stop-color:#C1B65A"/>
		<stop  offset="0.5758" style="stop-color:#110F08"/>
	</radialGradient>
	<path fill-rule="evenodd" clip-rule="evenodd" fill="url(#SVGID_11_)" d="M408.177,333.407c-1.827-0.125-2.545-0.48-4.235-0.421
		C398.103,333.18,407.977,334.388,408.177,333.407z"/>
	<radialGradient id="SVGID_12_" cx="398.1778" cy="380.2631" r="139.9916" gradientUnits="userSpaceOnUse">
		<stop  offset="0" style="stop-color:#C1B65A"/>
		<stop  offset="0.5758" style="stop-color:#110F08"/>
	</radialGradient>
	<path fill-rule="evenodd" clip-rule="evenodd" fill="url(#SVGID_12_)" d="M353.919,369.015c3.542-1.122,6.774-3.539,8.896-5.09
		c4.305-3.136,12.942-0.821,16.109-4.658c-5.802,0.943-8.684-9.241-12.712-3.392c0.255,1.575,1.591,2.07,1.692,3.805
		c-7.922,1.623-12.716,5.154-20.342,2.121c-0.75-0.948-0.348-3.038-2.126-2.966c-2.27,0.701-2.889,3.046-5.938,2.966
		C340.868,367.651,349.466,366.257,353.919,369.015z"/>
	<radialGradient id="SVGID_13_" cx="398.1802" cy="380.2257" r="139.8022" gradientUnits="userSpaceOnUse">
		<stop  offset="0" style="stop-color:#C1B65A"/>
		<stop  offset="0.5758" style="stop-color:#110F08"/>
	</radialGradient>
	<path fill-rule="evenodd" clip-rule="evenodd" fill="url(#SVGID_13_)" d="M406.481,358.415c1.796-0.04,2.533-1.14,2.966-2.539
		c-0.885-0.243-1.202-1.053-2.539-0.85C406.25,355.641,406.534,357.195,406.481,358.415z"/>
	<radialGradient id="SVGID_14_" cx="398.1857" cy="380.2816" r="140.0039" gradientUnits="userSpaceOnUse">
		<stop  offset="0" style="stop-color:#C1B65A"/>
		<stop  offset="0.5758" style="stop-color:#110F08"/>
	</radialGradient>
	<path fill-rule="evenodd" clip-rule="evenodd" fill="url(#SVGID_14_)" d="M420.052,357.141c-0.141,0.986,0.063,1.628,0.418,2.126
		c1.058-0.218,2.559,0.016,2.546-1.279C423.154,356.528,420.804,356.441,420.052,357.141z"/>
	<radialGradient id="SVGID_15_" cx="398.1778" cy="380.2631" r="139.9859" gradientUnits="userSpaceOnUse">
		<stop  offset="0" style="stop-color:#C1B65A"/>
		<stop  offset="0.5758" style="stop-color:#110F08"/>
	</radialGradient>
	<path fill-rule="evenodd" clip-rule="evenodd" fill="url(#SVGID_15_)" d="M357.733,359.681c0.544-2.244-3.254-2.899-3.39-0.845
		C354.663,359.937,356.717,360.576,357.733,359.681z"/>
	<radialGradient id="SVGID_16_" cx="398.1668" cy="380.2497" r="139.9979" gradientUnits="userSpaceOnUse">
		<stop  offset="0" style="stop-color:#C1B65A"/>
		<stop  offset="0.5758" style="stop-color:#110F08"/>
	</radialGradient>
	<path fill-rule="evenodd" clip-rule="evenodd" fill="url(#SVGID_16_)" d="M443.785,366.465c4.271-1.095,8.78-1.953,11.449-4.663
		C452.235,360.824,444.614,363.934,443.785,366.465z"/>
	<radialGradient id="SVGID_17_" cx="398.1922" cy="380.271" r="140.0123" gradientUnits="userSpaceOnUse">
		<stop  offset="0" style="stop-color:#C1B65A"/>
		<stop  offset="0.5758" style="stop-color:#110F08"/>
	</radialGradient>
	<path fill-rule="evenodd" clip-rule="evenodd" fill="url(#SVGID_17_)" d="M332.298,363.499c-1.732-0.738-3.485-1.495-5.508-0.845
		C327.263,364.456,331.989,366.577,332.298,363.499z"/>
	<radialGradient id="SVGID_18_" cx="398.1696" cy="380.2682" r="139.964" gradientUnits="userSpaceOnUse">
		<stop  offset="0" style="stop-color:#C1B65A"/>
		<stop  offset="0.5758" style="stop-color:#110F08"/>
	</radialGradient>
	<path fill-rule="evenodd" clip-rule="evenodd" fill="url(#SVGID_18_)" d="M325.518,369.439c-1.216-2.505-8.262-3.542-10.599-2.121
		C316.053,368.671,322.89,370.763,325.518,369.439z"/>
	<radialGradient id="SVGID_19_" cx="398.1764" cy="380.2524" r="139.9758" gradientUnits="userSpaceOnUse">
		<stop  offset="0" style="stop-color:#C1B65A"/>
		<stop  offset="0.5758" style="stop-color:#110F08"/>
	</radialGradient>
	<path fill-rule="evenodd" clip-rule="evenodd" fill="url(#SVGID_19_)" d="M451.42,371.981c4.172-0.773,7.784-2.11,10.593-4.24
		C458.969,365.173,452.752,368.778,451.42,371.981z"/>
	<radialGradient id="SVGID_20_" cx="398.1723" cy="380.2549" r="139.9859" gradientUnits="userSpaceOnUse">
		<stop  offset="0" style="stop-color:#C1B65A"/>
		<stop  offset="0.5758" style="stop-color:#110F08"/>
	</radialGradient>
	<path fill-rule="evenodd" clip-rule="evenodd" fill="url(#SVGID_20_)" d="M470.492,374.529c1.426-0.184,3.4,1.564,3.817-0.847
		c-4.058-1.559-11.782,0.296-14.833,2.542C462.902,377.193,467.027,374.966,470.492,374.529z"/>
	<radialGradient id="SVGID_21_" cx="398.1668" cy="380.2603" r="139.996" gradientUnits="userSpaceOnUse">
		<stop  offset="0" style="stop-color:#C1B65A"/>
		<stop  offset="0.5758" style="stop-color:#110F08"/>
	</radialGradient>
	<path fill-rule="evenodd" clip-rule="evenodd" fill="url(#SVGID_21_)" d="M462.442,382.15c2.529,1.052,9.87,1.647,11.867,0.429
		C473.955,381.054,464.03,379.741,462.442,382.15z"/>
	<radialGradient id="SVGID_22_" cx="398.183" cy="380.2596" r="139.9842" gradientUnits="userSpaceOnUse">
		<stop  offset="0" style="stop-color:#C1B65A"/>
		<stop  offset="0.5758" style="stop-color:#110F08"/>
	</radialGradient>
	<path fill-rule="evenodd" clip-rule="evenodd" fill="url(#SVGID_22_)" d="M305.591,386.815c2.081,0.424,7.175,0.469,8.904-0.847
		C312.727,384.593,306.777,384.939,305.591,386.815z"/>
	<radialGradient id="SVGID_23_" cx="398.1802" cy="380.2497" r="139.9725" gradientUnits="userSpaceOnUse">
		<stop  offset="0" style="stop-color:#C1B65A"/>
		<stop  offset="0.5758" style="stop-color:#110F08"/>
	</radialGradient>
	<path fill-rule="evenodd" clip-rule="evenodd" fill="url(#SVGID_23_)" d="M462.442,391.905c0.121-0.866,1.143-0.829,1.271-1.695
		c-1.785-1.604-4.429-2.364-7.633-2.547C456.461,390.821,459.83,390.98,462.442,391.905z"/>
	<radialGradient id="SVGID_24_" cx="398.2029" cy="380.2603" r="140.0186" gradientUnits="userSpaceOnUse">
		<stop  offset="0" style="stop-color:#C1B65A"/>
		<stop  offset="0.5758" style="stop-color:#110F08"/>
	</radialGradient>
	<path fill-rule="evenodd" clip-rule="evenodd" fill="url(#SVGID_24_)" d="M312.796,394.018c2.786-0.04,5.294-0.352,5.938-2.542
		C316.868,390.879,312.385,390.964,312.796,394.018z"/>
	<radialGradient id="SVGID_25_" cx="398.1003" cy="380.2524" r="139.8393" gradientUnits="userSpaceOnUse">
		<stop  offset="0" style="stop-color:#C1B65A"/>
		<stop  offset="0.5758" style="stop-color:#110F08"/>
	</radialGradient>
	<path fill-rule="evenodd" clip-rule="evenodd" fill="url(#SVGID_25_)" d="M325.094,396.145c-0.36,0.488-0.562,1.138-0.425,2.119
		c1.043,0.056,2.04,0.064,2.541-0.426C327.133,396.651,326.476,396.03,325.094,396.145z"/>
	<radialGradient id="SVGID_26_" cx="398.1764" cy="380.2603" r="139.9733" gradientUnits="userSpaceOnUse">
		<stop  offset="0" style="stop-color:#C1B65A"/>
		<stop  offset="0.5758" style="stop-color:#110F08"/>
	</radialGradient>
	<path fill-rule="evenodd" clip-rule="evenodd" fill="url(#SVGID_26_)" d="M293.724,436.843c2.901,1.7,6.254,4.762,9.75,3.813
		c-14.151-5.633-24.562-15.008-36.457-22.895C274.04,425.523,284.702,431.529,293.724,436.843z"/>
	<radialGradient id="SVGID_27_" cx="398.1778" cy="380.2497" r="139.9834" gradientUnits="userSpaceOnUse">
		<stop  offset="0" style="stop-color:#C1B65A"/>
		<stop  offset="0.5758" style="stop-color:#110F08"/>
	</radialGradient>
	<path fill-rule="evenodd" clip-rule="evenodd" fill="url(#SVGID_27_)" d="M266.595,426.243c-0.097,0.802,0.477,0.933,0.422,1.695
		c7.581,6.755,16.891,13.318,25.864,18.65c2.978,1.772,5.913,4.698,9.317,3.821c-14.166-5.484-23.616-15.674-34.76-24.166
		C267.156,426.243,266.873,426.243,266.595,426.243z"/>
	<radialGradient id="SVGID_28_" cx="398.1737" cy="380.3056" r="139.9397" gradientUnits="userSpaceOnUse">
		<stop  offset="0" style="stop-color:#C1B65A"/>
		<stop  offset="0.5758" style="stop-color:#110F08"/>
	</radialGradient>
	<path fill-rule="evenodd" clip-rule="evenodd" fill="url(#SVGID_28_)" d="M304.322,445.74c-1.006-0.285-2.855-1.919-3.813-0.85
		C301.561,445.14,303.16,447.014,304.322,445.74z"/>
	<radialGradient id="SVGID_29_" cx="398.1963" cy="380.0418" r="140.2724" gradientUnits="userSpaceOnUse">
		<stop  offset="0" style="stop-color:#C1B65A"/>
		<stop  offset="0.5758" style="stop-color:#110F08"/>
	</radialGradient>
	<path fill-rule="evenodd" clip-rule="evenodd" fill="url(#SVGID_29_)" d="M442.516,448.28c-1.728,0.253-3.763,0.197-4.658,1.279
		C439.784,449.516,441.543,449.292,442.516,448.28z"/>
	<radialGradient id="SVGID_30_" cx="398.175" cy="380.2871" r="139.9307" gradientUnits="userSpaceOnUse">
		<stop  offset="0" style="stop-color:#C1B65A"/>
		<stop  offset="0.5758" style="stop-color:#110F08"/>
	</radialGradient>
	<path fill-rule="evenodd" clip-rule="evenodd" fill="url(#SVGID_30_)" d="M409.447,461.846c2.414-0.408,6.573,0.922,7.637-0.842
		C415.338,460.521,411.034,460.793,409.447,461.846z"/>
	<radialGradient id="SVGID_31_" cx="398.1764" cy="380.2789" r="139.9438" gradientUnits="userSpaceOnUse">
		<stop  offset="0" style="stop-color:#C1B65A"/>
		<stop  offset="0.5758" style="stop-color:#110F08"/>
	</radialGradient>
	<path fill-rule="evenodd" clip-rule="evenodd" fill="url(#SVGID_31_)" d="M405.637,465.664c2.009,0.261,3.428-0.232,4.659-0.421
		C416.2,464.324,407.072,464.761,405.637,465.664z"/>
	<radialGradient id="SVGID_32_" cx="398.1696" cy="380.3749" r="139.8167" gradientUnits="userSpaceOnUse">
		<stop  offset="0" style="stop-color:#C1B65A"/>
		<stop  offset="0.5758" style="stop-color:#110F08"/>
	</radialGradient>
	<path fill-rule="evenodd" clip-rule="evenodd" fill="url(#SVGID_32_)" d="M407.331,479.654c1.219,0.091,2.153-0.115,2.547-0.845
		C409,479.06,406.927,478.119,407.331,479.654z"/>
	<radialGradient id="SVGID_33_" cx="398.175" cy="380.2631" r="139.9755" gradientUnits="userSpaceOnUse">
		<stop  offset="0" style="stop-color:#C1B65A"/>
		<stop  offset="0.5758" style="stop-color:#110F08"/>
	</radialGradient>
	<path fill-rule="evenodd" clip-rule="evenodd" fill="url(#SVGID_33_)" d="M589.19,447.437
		c-7.115-9.529-28.114-17.704-43.664-16.113c-3.08-6.952-13.077-6.979-20.771-9.321c-2.333-2.449-1.206-5.412-1.275-9.329
		c-0.067-4.213-1.34-9.745-0.846-12.292c0.297-1.559,1.971-2.025,2.545-3.392c3.034-7.203-0.732-25.555-1.27-26.282
		c-2.818-7.925-7.504-13.646-13.144-19.077c-6.518-6.278-14.703-10.139-23.046-14.413c-6.966-3.571-14.315-6.563-22.739-8.477
		c-9.61-2.18-20.652-6.139-30.871-7.701c-25.483-3.888-54.164-4.895-80.88-1.386c-17.564,2.313-32.35,3.235-43.821,9.086
		c4.539-4.919,12.524-13.526,18.401-20.177c13.164-14.882,26.11-36.645,37.13-56.125c2.427-4.286,11.934-22.697,13.565-27.132
		c0.453-1.228,9.388-20.729,12.719-41.547c0.898-5.628,2.248-11.178,0.422-17.379c-6.763-5.524-12.529-9.402-22.042-14.834
		c-3.699-3.968-24.224-14.917-23.736-12.716c-15.888,3.755-25.632,13.651-36.459,22.467c-0.248,2.755,4.094,2.814,2.969,5.083
		c-2.923,2.928-2.206-3.231-5.937-2.114c-1.298,2.178,1.604,2.21,1.271,4.661c-2.429-0.045-2.541-2.442-5.087-1.27
		c-0.148,2.533,3.751,2.875,2.546,5.089c-2.07,1.613-3.757-2.165-5.515-0.853c-0.799,2.94,2.644,3.645,0.425,5.512
		c-2.557,0.43-2.217-2.024-4.662-1.696c-1.659,1.995,2.294,3.303,0.849,5.09c-1.516-0.742-3.02-1.5-4.662-2.123
		c-6.219,4.942-11.268,8.414-16.015,14.809c-10.634,14.324-27.729,34.668-44.372,69.789c-2.213,4.667-12.805,29.16-15.251,36.512
		c-2.562,7.682-4.885,16.777-5.754,24.71c-0.285,2.619-0.758,6.656-0.425,9.334c1.006,8.167,11.089,9.913,18.653,14.832
		c5.414,3.533,9.095,7.84,13.988,11.019c6.341,3.835,16.865,3.549,23.317,0c-7.224,5.359-13.463,14.781-13.141,24.595
		c0.088,2.891,0.658,6.973,2.541,8.895c-1.955,16.321,0.566,24.462-0.356,44.333c2.535,5.7,5.239,7.669,9.26,11.626
		c13.014,12.828,34.862,23.38,53.836,28.406c4.946,1.308,10.438,2.481,15.938,3.874c10.098,2.572,20.165,3.352,30.692,4.599
		c29.025,3.453,74.351-3.262,85.207-6.355c24.523-6.984,26.425-6.355,39.003-10.177c-1.404,4.804,0.646,8.652,1.269,12.719
		c7.533,12.873,27.602,19.333,48.324,16.961c12.683-1.457,22.951-5.678,31.794-10.603c9.26-5.154,11.041-6.411,16.532-12.295
		c3.351-3.594,6.532-9.14,7.207-13.566C594.536,458.211,591.956,451.144,589.19,447.437z M381.049,169.774c0.422,0,0.843,0,1.274,0
		c0.368,1.642-1.037,1.516-1.274,2.544C380.107,172.14,380.714,170.071,381.049,169.774z M370.451,178.677
		c1.276-0.425,0.754,0.947,0.848,1.696c-0.426,0-0.848,0-1.275,0C369.848,179.491,370.314,179.251,370.451,178.677z
		 M588.338,454.651c1.027,0.52,1.372,1.727,1.699,2.961c-1.085,0.661-4.428,0.661-5.511,0c0-0.565,0-1.138,0-1.698
		C585.945,454.867,587.699,456.623,588.338,454.651z M587.918,453.369c-1.328-0.083-3.114,0.282-3.817-0.421
		C584.33,451.155,588.167,451.174,587.918,453.369z M585.797,448.703c-0.361,1.623-1.665,2.302-3.388,2.553
		c-0.336-1.474,0.47-1.796,0.843-2.553c-0.47-1.074-3.279,0.173-3.812-0.845C581.051,444.885,584.988,445.724,585.797,448.703z
		 M580.711,444.051c-0.202,1.487-2.003,1.383-3.394,1.69C576.189,444.613,579.942,441.951,580.711,444.051z M576.898,441.924
		c-0.47,1.794-2.396,2.126-4.242,2.545C572.593,442.409,575.644,439.966,576.898,441.924z M573.078,439.806
		c-0.45,1.663-1.656,2.582-3.392,2.966c-0.414-0.573-1.128-0.848-1.689-1.271C568.096,439.286,571.514,438.004,573.078,439.806z
		 M567.997,437.682c-0.272,2.547-4.461,4.306-5.516,1.276C562.354,435.478,566.355,436.432,567.997,437.682z M561.21,435.566
		c-0.061,2.832-3.154,2.822-5.086,1.697C556.726,434.793,558.91,434.325,561.21,435.566z M554.854,434.719
		c0.04,1.314-1.283,1.26-2.547,1.274C552.111,434.484,554.353,432.989,554.854,434.719z M548.067,433.445
		c1.046-0.053,2.042-0.064,2.546,0.421c0.052,0.77-0.52,0.901-0.424,1.7C548.472,435.865,547.766,435.156,548.067,433.445z
		 M548.067,440.229c-0.328,1.932-2.288,2.228-2.966,3.821c-1.514-1.828,1.592-2.643,1.695-4.245
		C547.484,439.686,547.526,440.205,548.067,440.229z M522.634,426.666c4.285-0.522,6.221-1.633,13.149,0.674
		c5.003,1.927,7.97,4.775,10.59,9.076c-0.865,3.235-3.079,5.111-5.509,6.787c1.358-2.241,4.045-5.202,2.539-8.911
		c-2.734,2.491-1.807,8.647-7.625,8.055c-0.121-1.29,1.358-1.652,0.421-2.542c-2.533,0.154-3.5,1.876-5.934,2.118
		c-1.281-2.872,3.835-2.15,4.244-4.661c-1.76-2.39-4.641,2.681-6.787,1.274c-0.471-3.304,3.432-2.222,4.24-4.245
		c-1.195-2.262-2.937,0.581-4.666,0.426c-0.476-2.033,1.616-1.484,2.128-2.545c-1.097-1.165-2.428-2.102-3.397-3.387
		c-2.448-0.048-3.186,1.618-5.509,1.695C520.909,428.894,522.241,428.254,522.634,426.666z M543.826,444.89
		c0.13,1.114-4.025,1.519-3.811,0C541.957,445.002,542.064,445.343,543.826,444.89z M540.016,461.004
		c-0.791,1.186-2.32,1.631-3.817,2.121C536.989,461.928,538.521,461.486,540.016,461.004z M534.508,445.316
		c-0.104,1.356-2.753,0.97-2.547-0.427C532.823,443.99,533.638,445.013,534.508,445.316z M505.675,443.622
		c-0.405-5.924,3.589-11.112,8.903-12.719C512.527,436.056,509.857,440.595,505.675,443.622z M506.948,447.858
		c-0.303-1.295,0.437-1.543,0.423-2.542c3.338,1.618,3.602-2.689,4.669-4.661C513.037,442.431,511.565,450.246,506.948,447.858z
		 M499.744,396.145c1.315-3.31,7.28-3.883,6.361-8.058c2.065-0.363,2.807,0.578,4.237,0.842
		C508.179,392.457,503.988,396.115,499.744,396.145z M506.527,408.018c-1.133,1.516-3.827,0.378-3.39-2.126
		C505.218,405.652,506.257,406.441,506.527,408.018z M495.502,377.486c-0.99,0-1.976,0-2.967,0c0.024-0.725-0.312-1.095-0.846-1.263
		C491.689,375.155,496.176,375.245,495.502,377.486z M493.806,373.25c0.706,0,1.416,0,2.126,0
		C496.58,374.553,493.16,374.553,493.806,373.25z M494.234,386.392c-2.021,2.923-4.958,4.946-8.482,6.361
		C487.587,389.643,490.667,387.772,494.234,386.392z M495.502,395.721c-0.092,1.46-1.254,1.847-2.546,2.116
		C492.907,396.227,494.074,395.843,495.502,395.721z M490.843,399.11c0.803,1.223-1.382,2.388-2.969,2.547
		C488.031,399.979,489.211,399.31,490.843,399.11z M494.656,401.234c-0.526,1.868-2.081,2.715-3.813,3.39
		c-0.147-0.56-0.749-0.672-0.847-1.271C490.826,401.852,492.643,400.28,494.656,401.234z M498.048,414.376
		c-1.511,1.948-3.96,0.85-4.663-1.282C493.883,410.15,498.188,411.85,498.048,414.376z M495.502,399.537
		c0.288-1.41,1.094-2.302,2.97-2.124C498.625,399.198,496.86,400.576,495.502,399.537z M507.797,368.592
		c1.083,0.048,0.843,1.415,0.846,2.54C507.111,371.534,508.055,369.463,507.797,368.592z M509.067,374.097
		c-0.329,0.386-0.453,0.962-0.424,1.697c-0.983,0.139-1.625-0.069-2.116-0.424C506.423,373.945,508.099,373.18,509.067,374.097z
		 M514.154,383.852c0.06,1.045,0.067,2.044-0.422,2.54c-1.739-0.943-4.365-0.999-5.088-2.961
		C510.234,382.366,512.234,383.903,514.154,383.852z M511.611,373.25c1.953-0.4,1.792,3.829-0.421,2.974
		C510.234,375.272,511.214,374.094,511.611,373.25z M512.041,419.032c-0.376,3.163-2.326,4.743-3.398,7.211
		C507.237,424.532,508.215,416.975,512.041,419.032z M507.797,403.353c1.383-0.112,2.041,0.498,2.116,1.692
		C508.867,406.049,507.257,405.215,507.797,403.353z M511.19,399.537c0.97,0.445,2.196,1.91,1.27,2.963
		C510.624,402.743,509.481,400.333,511.19,399.537z M513.306,422.003c1.826-0.069-0.799,3.752,1.271,4.24
		c-0.396,1.7-2.377,1.287-3.387,0.423C511.725,424.939,512.78,423.735,513.306,422.003z M508.221,378.342
		c-1.603,2.646-6.916-0.261-10.173,0c-0.246-3.262,3.566-1.959,4.661-0.855C505.147,377.367,507.173,375.84,508.221,378.342z
		 M506.948,383c-1.322,1.111-2.641-0.496-3.811-0.85C503.736,381.441,507.46,381.204,506.948,383z M503.138,388.087
		c0.49-0.067,0.75,0.098,0.847,0.423c-1.392,2.622-4.346,5.772-7.209,5.508C498.709,391.863,501.426,390.477,503.138,388.087z
		 M502.709,411.403c-1.768,1.25-3.512-0.554-4.237-1.695C499.415,407.864,503.047,409.292,502.709,411.403z M515.851,441.501
		c0.002,1.844-0.626,3.048-2.12,3.389c-0.144-1.548,0.473-2.353,0.846-3.389C515.005,441.501,515.427,441.501,515.851,441.501z
		 M518.817,456.764c-0.031-1.519-0.657-2.449-0.846-3.816c1.343,0.349,2.156,1.236,2.97,2.116c0.071,2.337-1.554,2.971-2.124,4.666
		c-1.972-0.275-3.236,0.144-2.966,2.116c-0.846,0-1.698,0-2.545,0C513.389,457.627,517.465,459.868,518.817,456.764z
		 M519.244,443.622c0.248,2.369-1.596,2.649-2.966,3.392C516.144,444.885,517.251,442.271,519.244,443.622z M516.279,415.642
		c0.282-0.983,1.41-1.135,1.692-2.121C519.637,413.955,517.809,415.869,516.279,415.642z M517.548,451.256
		c-0.274-1.285,2.051-5.849,3.813-5.092C521.122,448.887,518.478,449.215,517.548,451.256z M523.909,448.703
		c0.374,1.94-1.395,1.719-2.547,2.121C521.941,449.847,522.108,448.463,523.909,448.703z M519.668,433.445
		c1.86,0.314-0.42,2.865-1.271,1.698C518.517,434.282,519.546,434.311,519.668,433.445z M518.817,409.284
		c-0.211,1.761-1.816,2.14-2.966,2.969C515.261,411.499,517.744,408.41,518.817,409.284z M515.427,373.681c0.424,0,0.851,0,1.274,0
		c-0.131,1.42,0.569,3.669-1.274,3.392C514.587,376.229,515.157,374.646,515.427,373.681z M515.851,380.037
		c-0.983,0.133-1.627-0.069-2.12-0.426c0.149-0.56,0.75-0.661,0.846-1.268C515.2,378.709,516.224,378.675,515.851,380.037z
		 M309.831,331.283c5.711-1.634,23.059-5.924,23.994-6.547c9.222-1.458,17.386-2.132,28.151-2.774
		c53.515-3.208,112.652,5.481,143.698,30.519c2.106,4.956,6.839,7.299,8.479,12.719c-2.131,0.237-3.695-5.841-6.782-4.669
		c0.855,2.718,5.834,7.128,5.088,11.45c-2.356-0.647-1.141-3.123-2.119-4.663c-0.981-1.537-2.563-0.975-3.814-2.118
		c-1.741-1.594-1.791-5.756-5.088-4.669c1.11,3.048,6.391,7.541,2.964,11.024c-1.877-2.835-1.18-9.883-5.509-11.442
		c-3.728,2.126-6.017-3.269-11.02-2.547c0.381,2.022,2.942,1.863,4.242,2.966c0.289,1.143-0.879,0.821-1.274,1.271
		c3.002,1.388,5.171,5.849,4.659,9.329c-1.865,0.597-1.146-1.399-1.268-2.54c-2.535-2.43-3.929-6.52-7.208-8.479
		c-1.07-0.642-2.783-0.533-4.237-1.276c-1.727-0.877-3.247-2.921-5.087-3.81c-5.199-2.526-11.428-3.795-17.382-5.514
		c-7.467-2.153-14.908-5.66-22.462-7.624c-10.091-2.63-21.12-1.82-31.801-3.395c-1.507-0.189-1.854-1.538-2.967-2.119
		c-9.972,0.25-21.615-1.165-31.371-0.853c-0.377,1.796,2.401,0.432,2.122,2.119c-20.195,0.719-38.412,3.413-55.106,7.632
		c1.403-2.412,5.32-2.308,7.626-3.813c-7.397,0.661-14.513,5.257-22.469,6.784c1.468-2.817,5.444-3.765,8.484-5.09
		c4.996-2.177,9.914-3.904,16.532-5.087c-11.576-1.114-19.254,7.594-29.673,7.632c5.433-4.597,13.503-6.568,19.925-10.177
		c-13.021,5.684-29.163,9.686-38.581,19.071c-4.442,4.434-5.222,10.861-9.749,15.693c-0.466-6.885,5.837-10.52,8.057-16.108
		c10.384-8.695,22.955-15.194,36.456-20.771c-4.494-0.397-8.415,3.453-13.567,3.811c1.855-2.095,5.122-2.793,8.054-3.811
		C311.259,332.722,308.496,332.064,309.831,331.283z M487.026,441.077c0.163,1.49-2.867,2.409-2.543,0.424
		C484.98,441.01,485.978,441.016,487.026,441.077z M484.908,434.293c0.385-0.741,0.787-1.474,2.117-1.269
		C487.395,434.636,485.619,435.015,484.908,434.293z M466.683,430.482c-7.083,2.529-14.557,5.678-23.746,6.782
		c0.342-1.468-0.63-1.636-0.421-2.971c9.381-2.71,18.65-7.515,28.4-8.477c0.248-3.19,4.347-1.665,5.929-0.421
		C474.445,428.22,470.265,429.198,466.683,430.482z M474.732,438.114c-0.045,1.649-1.844,1.551-3.391,1.692
		C471.117,437.949,473.325,437.016,474.732,438.114z M466.683,449.13c-0.057-2.028,1.411-2.542,3.385-2.542
		C470.519,449.012,468.527,449.007,466.683,449.13z M450.572,396.989c-3.076,1.729-4.825,4.786-10.177,4.245
		c-0.097-1.274,1.56-1.449,0.424-2.542c-0.898-1.082-2.505-1.458-4.663-1.279c-1.073,1.959,2.997,1.964,2.97,4.245
		c-3.699,0.541-5.804,2.673-10.171,2.542c-1.551-0.218,0.416-3.03-2.128-2.966c-2.416,0.133-1.101,2.651-1.692,3.811
		c-5.138,0.669-10.814,2.145-15.257,0c-0.881,0.256-1.609,0.655-1.278,2.119c-4.034,0.503-8.15,1.703-10.173-1.271
		c-1.403,0.013-0.433,2.398-1.272,2.974c-5.281-0.727-10.793,0.373-16.955,0c-0.589-0.549-0.255-2.007-0.845-2.55
		c-1.461,0.378-2.244,1.431-2.974,2.55c-7.521-0.959-15.405-1.553-22.462-2.974c-0.959-1.213,0.787-2.944-1.278-3.392
		c-2.429-0.738-1.013,2.377-2.538,2.545c-3.311-0.642-6.647-1.266-10.174-1.692c-0.629-0.933-0.831-2.281-1.696-2.971
		c-2.653-0.674-2.036,1.916-3.391,2.545c-11.521-3.6-27.144-2.931-33.066-12.292c-2.667-4.218-5.613-5.13-5.509-10.598
		c17.161,0.453,35.362,0.384,52.135,0c-0.257,2.06-0.257,2.174,0,4.24c-2.449,1.926-6.397,2.358-7.627,5.505
		c4.503,2.006,10.44-1.644,16.957-0.419c1.711,1.953,5.055,2.295,7.63,3.39c-0.496,4.695-1.502,9.169-1.964,12.404
		c6.915-4.247,12.903-9.804,20.193-13.681c0.505,0.906,0.52,2.31,1.693,2.542c7.8-1.657,13.221,2.563,19.498,3.818
		c0.977,0.133,0.473-1.226,1.274-1.268c0.037-2.281-2.944-3.382-2.116-5.092c4.185-0.895,7.826-2.334,11.441-3.813
		c6.768,0.258,12.315,1.316,17.808,1.266c-1.395-4.391-7.398-4.181-11.023-6.35c1.418-4.453,0.846-10.669-0.421-14.837
		c2.833-1.964,7.165-2.446,8.902-5.511c-10.051-1.263-17.964,0.999-28.407-0.85c-2.309-7.725,2.389-12.38,2.967-19.921
		c2.51-0.216,4.787-0.333,7.205,0.429c-0.26,2.843,0.823,7.035-1.266,8.045c-1.025,0.176-0.925-0.773-2.12-0.421
		c-0.549-2.8,1.112-5.207,0-7.208c-3.068,1.063-0.544,6.209-2.971,8.484c2.522,3.006,9.273-0.234,11.448,2.534
		c7.628-2.481,18.392,1.618,25.432,3.818c-1.547,2.971-6.574,2.473-7.207,6.358c2.899,0.869,5.773-3.126,8.484-2.537
		c0.858-0.413,0.915-1.631,0.842-2.974c13.723,1.26,21.943,8.018,32.219,12.719c2.452,3.2,6.687,6.089,5.514,11.027
		c-0.772,3.224-4.965,2.953-5.944,6.353c-7.577,3.163-15.62,5.859-23.734,8.482c-0.756-2.278-5.533-5.377-7.207-1.695
		C446.61,396.43,448.31,396.989,450.572,396.989z M443.785,405.471c-0.566,0.847-1.876,0.935-2.966,1.266
		C440.785,405.295,442.389,405.487,443.785,405.471z M277.612,370.286c-0.528-5.902,4.094-10.312,8.484-12.721
		C282.904,361.442,280.511,366.111,277.612,370.286z M285.668,361.381c-0.257,1.87-2.583,5.327-4.24,7.21
		C281.914,365.258,283.995,363.523,285.668,361.381z M289.905,389.781c-5.467-3.725-9.728-10.888-9.746-18.65
		C282.529,378.03,285.563,383.999,289.905,389.781z M288.212,363.499c-0.65-1.372,1.387-3.683,3.393-3.818
		C291.22,361.709,289.166,362.05,288.212,363.499z M285.668,354.178c2.878-3.2,7.112-5.042,12.717-5.516
		C294.805,350.97,290.862,356.155,285.668,354.178z M374.266,351.631c1.517-0.107,1.552,1.274,2.966,1.271
		c1.833-2.217,5.761,0.224,7.208-2.113c1.982-0.432,1.407,1.692,3.392,1.269c1.303-2.102-2.357-8.695,1.698-10.598
		c3.399,1.276-2.551,8.394,1.272,10.171c3.695-1.093-1.735-11.693,4.665-10.171c-1.192,2.889-0.513,5.428-1.276,7.632
		c-2.238,6.43-11.084,7.056-13.141,13.563c0.205,1.346,3.818-0.709,3.391,1.271c-5.965-0.677-9.867,3.648-14.416,4.666
		c-4.919,1.098-10.431,0.744-16.104,1.269c-11.747,1.098-24.391,4.986-36.032,4.237c-0.32-1.442,1.72-0.536,1.274-2.116
		c-3.685-0.722-9.851-1.084-13.57-1.274c0.91,3.76,6.704,2.622,11.022,2.974c-5.085,1.78-12.557,2.659-18.651,2.113
		c-0.691-1.332,1.875-2.489,1.693-4.663C316.277,356.646,347.627,354.703,374.266,351.631z M318.735,349.512
		c1.745,1.49-0.737,5.26-1.697,6.776C315.635,353.754,317.272,350.61,318.735,349.512z M322.97,348.662
		c0.496-0.067,0.751,0.099,0.852,0.429c-0.231,1.748-0.239,3.712-1.7,4.232C322.115,351.481,321.874,349.4,322.97,348.662z
		 M328.061,347.815c0.23,1.929-0.854,2.542-1.271,3.816C326.81,351.428,325.201,347.237,328.061,347.815z M331.874,346.544
		c2.064,0.978,0.093,4.756-0.42,5.937C329.604,351.439,330.996,347.554,331.874,346.544z M336.534,354.178
		c-3.078-0.631-1.813-5.814-0.846-8.053c0.425,0,0.846,0,1.275,0C336.736,348.724,337.446,352.257,336.534,354.178z
		 M340.776,352.481c-2.795-0.352-3.277-7.922,0.428-7.629C340.679,347.879,341.689,349.837,340.776,352.481z M343.743,344.004
		c2.537,0.373,1.833,5.966,1.272,8.053C341.578,351.62,342.492,345.864,343.743,344.004z M350.104,343.154
		c0.957,2.483-0.047,6.368-0.424,8.903C347.212,351.111,345.109,342.96,350.104,343.154z M351.796,348.662
		c0.34-1.924,0.604-3.915,1.276-5.508c0.421,0,0.847,0,1.271,0C354.716,344.791,354.574,350.181,351.796,348.662z M357.309,342.304
		c1.235,0.533,1.673,6.462-0.425,6.358C354.828,347.562,356.715,343.538,357.309,342.304z M363.246,341.889
		c0.789,2.316,0.097,6.51-0.849,8.471C358.749,350.258,359.153,341.475,363.246,341.889z M367.486,341.889
		c-0.015,2.67,0.163,5.535-0.425,7.624C363.516,349.787,364.369,341.393,367.486,341.889z M370.024,341.889c0.428,0,0.849,0,1.275,0
		c0.857,2.683-0.574,3.4-1.275,5.511C368.631,346.16,369.331,343.354,370.024,341.889z M375.962,337.641
		c0.855-1.543,2.534-0.344,4.238-0.424C379.358,338.23,377.247,338.225,375.962,337.641z M381.049,341.46
		c0.899,2.166,0.462,6.299-0.424,8.053c-0.849,0-1.7,0-2.547,0C377.698,347.066,376.756,340.626,381.049,341.46z M374.692,346.965
		c-1.809-0.815-0.446-4.279,0-5.505C377.317,342.203,376.114,345.883,374.692,346.965z M386.982,341.46
		c-1.371,2.841-0.482,5.391-2.117,8.053C381.5,349.097,382.798,338.379,386.982,341.46z M397.582,380.455
		c4.014-0.871,4.194-3.131,5.508-6.774c-0.849-3.254-3.063-5.135-2.963-9.334c5.87-3.262,10.061,1.887,15.255,2.971
		c0.232,3.744,2.657,6.262,0.851,9.755c-1.2,0.634-1.962,1.703-3.82,1.687c-4.558,5.444-12.267,6.555-20.345,7.632
		c0.28-1.841,3.426-0.81,3.397-2.961c-3.99-1.729-9.141,0.613-13.995-1.698c4.27,0.315,8.727-1.391,12.719-1.697
		C395.373,379.938,396.48,380.695,397.582,380.455z M397.156,345.699c-0.174-1.868,0.117-3.275,0.85-4.24
		c1.595,0.325,2.024-0.52,3.388-0.421C400.733,343.338,400.501,346.078,397.156,345.699z M373.418,372.402
		c-0.545-3.283,3.338-3.784,5.937-4.237c2.654-0.466,16.073-0.341,16.95,2.966C398.254,378.432,374.162,376.911,373.418,372.402z
		 M389.098,363.926c1.298-1.045,4.261-1.047,5.938,0C393.873,365.618,391.869,363.172,389.098,363.926z M336.113,376.223
		c9.485-1.935,20.028-1.103,30.524-2.542c0,1.41,1.38,1.439,1.268,2.963C357.901,376.556,346.743,377.865,336.113,376.223z
		 M367.486,387.239c-4.117-0.584-10.338-2.641-11.875-7.203c4.796,0.101,6.892,0.429,11.45,0.418
		C367.924,382.92,367.585,384.244,367.486,387.239z M417.505,341.889c0.37,2.201,0.176,6.752-1.695,8.045
		C412.751,349.931,411.894,339.573,417.505,341.889z M418.351,349.091c0.088-4.015,0.974-9.476,5.087-5.937
		c-0.696,2.273-0.574,5.367-1.691,7.205C419.758,350.799,419.334,349.659,418.351,349.091z M450.572,356.289
		c-3.311-0.216-4.76-2.297-4.24-6.355C450.267,350.109,451.879,352.966,450.572,356.289z M448.45,347.815
		c0.178-0.943,2.25-0.328,2.543,0c0,0.565,0,1.138,0,1.697C449.507,349.587,449.6,348.076,448.45,347.815z M444.632,347.815
		c-0.069,3.256,0.406,4.596,0,6.779c-7.364-0.965-14.174-2.494-20.34-4.661c-0.487-1.996,0.05-5.201,0-6.779
		c7.693,1.063,16.75,0.773,22.884,3.39C447.166,347.804,445.18,347.09,444.632,347.815z M456.507,357.565
		c1.86-1.103,0.029-5.902,1.266-7.632c1.925-0.226,2.541,0.855,3.821,1.274c0.539,3.653-0.841,5.377-0.85,8.474
		c-3.278-0.25-5.01-2.052-8.054-2.54c0.392-2.55-2.353-11.424,3.391-8.05C456.76,352.129,454.367,355.801,456.507,357.565z
		 M462.442,360.962c0.865-2.39-0.061-6.558,0.841-8.905c0.998,0.138,1.751,0.503,2.547,0.845c-0.171,3.224-0.153,6.635-1.693,8.479
		C463.375,361.437,463.236,360.864,462.442,360.962z M467.103,354.178c0.983-0.141,1.625,0.064,2.114,0.416
		c-0.301,2.947-0.83,5.673-1.691,8.061C465.605,361.109,467.152,356.582,467.103,354.178z M470.069,364.347
		c-0.08-3.043,0.372-5.561,0.848-8.058C472.054,357.299,471.701,363.369,470.069,364.347z M462.863,406.737
		c0.032,1.391-3.619,2.129-3.387,0C460.444,406.47,462.031,405.9,462.863,406.737z M456.507,401.658
		c1.105-1.868,4.755-1.183,6.357-2.547C463.26,400.792,458.954,401.41,456.507,401.658z M462.863,410.132
		c0.426-0.983,1.458-1.367,2.967-1.266C466.112,410.545,464.218,410.076,462.863,410.132z M468.372,411.403
		c0.255,0.975-2.935,1.546-2.542,0C466.37,410.825,467.832,410.825,468.372,411.403z M462.013,412.674
		c0.889-0.176,1.127,0.293,1.7,0.421c-0.105,0.754-0.733,0.967-1.7,0.85C462.013,413.521,462.013,413.095,462.013,412.674z
		 M463.283,416.487c0.541-1.586,3.098-2.289,3.82-0.419C466.887,418.147,463.869,418.001,463.283,416.487z M464.98,422.427
		c-0.994,0.139-1.591,0.672-2.967,0.424c0.12-0.69-0.4-0.73-0.42-1.274c-0.035-1.444,1.57-1.252,2.962-1.274
		C464.383,421.329,465.331,421.228,464.98,422.427z M470.069,419.032c-0.068,1.94-3.399,2.102-4.238,0.85
		C466.084,418.573,469.313,417.206,470.069,419.032z M467.949,414.376c0.573-1.572,2.755-1.401,3.816-0.432
		c0.196,1.327-1.063,1.202-1.696,1.698C468.74,415.848,468.948,414.504,467.949,414.376z M472.184,416.069
		c1.514-0.098,2.22,0.605,2.125,2.116c-1.302,0.605-1.908,0.195-2.969-0.423C471.033,416.604,472.182,416.913,472.184,416.069z
		 M472.184,412.674c0.537-1.242,4.108-2.729,5.091-0.845C477.098,413.796,473.125,413.961,472.184,412.674z M467.527,408.018
		c0.701-2.465,2.835-2.886,4.658-1.282C471.056,407.992,468.995,409.434,467.527,408.018z M464.555,405.892
		c0.045-1.647,1.844-1.548,3.394-1.692C467.181,405.125,466.409,406.049,464.555,405.892z M462.442,403.774
		c-0.214-1.964,2.715-2.372,3.812-1.695C465.489,403.153,464.021,403.523,462.442,403.774z M453.111,406.316
		c0.749,0.107,0.967,0.73,0.849,1.703c-0.563,0-1.13,0-1.696,0C451.957,406.859,453.108,407.158,453.111,406.316z M453.959,408.434
		c1.222-0.088,2.155,0.112,2.547,0.85c0.274,1.69-1.612,1.218-2.969,1.276C453.4,409.572,453.605,408.927,453.959,408.434z
		 M455.657,411.829c0.706,0,1.412,0,2.116,0C457.787,412.794,455.2,414.134,455.657,411.829z M459.898,413.945
		c0.389,2.404-3.095,2.747-2.969,0.432C457.471,413.788,458.773,413.945,459.898,413.945z M459.046,417.334
		c1.255-0.941,3.869-0.41,3.396,1.697C460.965,419.762,458.717,419.594,459.046,417.334z M476.845,437.682c0-0.418,0-0.839,0-1.266
		c1.063-0.045,1.319-0.797,2.126,0C478.581,437.157,478.18,437.887,476.845,437.682z M478.971,444.051
		c0.039,1.303-1.279,1.26-2.542,1.266C475.914,443.496,478.513,442.345,478.971,444.051z M481.089,408.018
		c-0.965-1.212-2.477,0.589-4.244,0c0.304-1.122,1.936-0.903,2.126-2.126c-1.993-0.77-5.385,1.777-5.936-1.692
		c1.143-1.122,3.809-0.714,3.809-2.966c-2.713,1.466-5.746,2.302-8.043,0c0.935-1.652,0.056-2.878-2.119-2.542
		c0.178-1.38,2.256-0.848,2.966-1.703c6.246,2.654,11.512,6.291,14.833,11.876c-1.146,1.396-2.967,2.116-5.511,2.116
		C478.295,408.608,480.79,409.404,481.089,408.018z M303.049,302.885c1.138-0.297,0.823,0.873,1.272,1.275
		c1.856-1.677,3.091-3.974,4.666-5.941c0.08,5.031-5.276,8.287-8.907,11.019C299.74,305.785,301.993,304.934,303.049,302.885z
		 M302.624,300.339c-0.141-2.687,1.656-3.439,2.546-5.088C307.059,296.445,304.456,300.086,302.624,300.339z M316.194,288.048
		c2.185,2.683-2.865,5.271-3.817,7.625C311.647,292.829,315.529,290.931,316.194,288.048z M317.037,259.217
		c1.729,0.416-0.133,3.934-1.272,4.244C315.344,261.199,316.49,260.509,317.037,259.217z M309.831,302.46
		c1.112-2.554,3.08-4.264,4.665-6.362C314.952,298.55,311.925,301.156,309.831,302.46z M308.987,308.396
		c-0.81-2.797,3.22-4.401,3.809-7.205C314.398,303.145,310.196,306.441,308.987,308.396z M308.557,294.406
		c-1.031-3.865,2.466-6.86,4.24-9.328C313.568,288.68,309.911,291.507,308.557,294.406z M309.408,295.251
		c-0.148,1.279-1.448,2.669-2.547,1.696C307.425,296.09,308.253,295.513,309.408,295.251z M289.062,328.323
		c2.201-0.035,0.32,1.556,0.843,3.387c-1.833,1.135-3.035,2.897-5.507,3.392C285.832,332.727,286.697,329.775,289.062,328.323z
		 M290.333,320.688c2.258,2.347-0.746,6.536-3.394,6.779C286.399,323.545,288.973,322.724,290.333,320.688z M286.096,339.347
		c-0.62-3.515,1.216-2.966,3.809-5.095c1.803-1.479,5.034-6.241,7.633-8.05c0.437-0.309,1.302-0.069,1.698-0.424
		c1.78-1.628,2.292-3.811,4.238-4.666c0.413,0.008,0.321,0.514,0.418,0.85C301.144,329.825,292.594,334.947,286.096,339.347z
		 M288.634,343.154c-0.637,1.058-1.449,1.94-2.966,2.118C285.948,343.863,286.757,342.976,288.634,343.154z M291.179,329.588
		c-0.294-1.7,0.406-2.414,0.426-3.811c5.531-3.232,8.46-9.063,13.565-12.716c0.486-0.074,0.754,0.09,0.842,0.417
		c0,0.85,0,1.699,0,2.543C301.026,320.499,296.988,325.932,291.179,329.588z M303.049,312.212c0.194-2.352,1.119-3.966,3.391-4.241
		C305.289,309.358,305.27,311.884,303.049,312.212z M296.267,303.73c0.532-3.421,3.615-4.295,5.086-6.783
		C301.08,298.939,298.883,302.673,296.267,303.73z M297.538,305.856c-0.701,0.85-1.135,1.969-2.542,2.114
		c-0.25-1.522,0.488-2.052,0.843-2.974C296.996,304.697,296.698,305.854,297.538,305.856z M298.812,307.121
		c1.112,3.806-1.989,7.051-5.088,8.057C293.216,310.29,296.815,309.508,298.812,307.121z M297.962,315.177
		c1.582-0.677,0.963-3.563,3.814-2.966c-0.285,2.397-1.681,3.68-3.814,4.234c-1.4,2.129-2.655,4.415-4.665,5.937
		C290.578,319.987,294.786,315.676,297.962,315.177z M289.905,313.062c-0.626-2.425,1.534-5.465,2.975-7.205
		C294.768,307.834,292.446,312.702,289.905,313.062z M292.025,314.329c0.376,3.628-1.263,5.237-3.813,5.933
		C288.228,317.029,289.195,314.746,292.025,314.329z M285.668,316.875c-0.397-3.083,0.833-4.541,2.12-5.945
		C289.55,312.132,287.828,316.816,285.668,316.875z M286.515,318.138c1.752,1.047-0.233,4.559-1.272,5.513
		C283.278,322.388,285.173,318.807,286.515,318.138z M286.096,325.778c0.118,2.806-0.624,4.746-2.973,5.084
		C283.318,328.371,283.676,326.044,286.096,325.778z M283.549,321.538c-0.084,3.507-2.177,7.067-4.661,6.784
		C279.839,325.677,280.302,320.494,283.549,321.538z M283.124,315.177c2.188,1.484-0.008,5.529-2.119,5.511
		C280.135,318.812,282.011,316.441,283.124,315.177z M281.855,338.494c-1.591,2.513-4.617,3.581-7.207,5.087
		C275.872,341.102,279.521,337.095,281.855,338.494z M275.495,339.759c-0.073-1.351,2.61-3.592,4.233-4.658
		C281.165,337.926,276.335,337.83,275.495,339.759z M279.728,331.709c0.154-1.833,1.141-2.822,2.978-2.969
		C282.949,330.969,281.587,331.59,279.728,331.709z M278.888,316.875c-0.067-2.192,0.537-3.696,1.271-5.095
		C281.025,313.091,280.442,316.579,278.888,316.875z M278.462,322.801c-1.914-0.173-0.42-3.24,0-3.805
		C280.304,319.1,278.837,322.196,278.462,322.801z M273.8,320.688c-0.731-2.097-0.072-6.862,3.812-6.787
		C276.762,316.59,277.241,320.603,273.8,320.688z M274.649,326.202c-1.003,0.008-1.246-0.73-2.547-0.424
		C272.281,320.251,278.181,321.378,274.649,326.202z M275.07,328.741c-0.855,1.402-1.349,3.176-3.815,2.969
		C272.245,330.58,273.203,327.638,275.07,328.741z M270.406,340.194c-0.482-2.326,1.81-1.876,2.121-3.397
		C274.895,337.844,271.592,339.922,270.406,340.194z M272.527,344.423c-0.049,1.087-0.616,1.649-1.696,1.703
		C270.637,344.796,271.201,344.225,272.527,344.423z M269.985,322.801c-1.295-0.219-0.55-4.056,1.27-3.805
		C271.564,320.997,270.653,321.781,269.985,322.801z M267.862,329.588c-0.181-2.017,0.506-3.168,1.272-4.24
		C271.181,325.511,270.135,329.961,267.862,329.588z M269.134,331.283c1.82,1.292-0.168,3.757-2.117,3.818
		C266.993,333.1,268.495,332.626,269.134,331.283z M269.134,340.609c0.008,2.273-1.118,3.4-3.387,3.395
		C265.883,342.15,267.984,340.042,269.134,340.609z M272.101,359.681c-0.77,2.769-2.068,8.674-5.507,10.179
		C266.142,364.181,270.24,363.046,272.101,359.681z M271.682,378.342c2.654,4.549,4.259,10.144,7.628,13.982
		C275.277,390.855,272.645,384.303,271.682,378.342z M275.916,393.6c-4.775-4.141-8.041-12.007-8.054-19.503
		C270.057,381.086,272.49,387.844,275.916,393.6z M308.135,321.112c-1.206-0.565,0.332-1.884,0.422-2.545
		c0.689-0.115,0.732,0.405,1.274,0.429C310.01,320.443,308.557,320.262,308.135,321.112z M308.557,314.329
		c0.277-1.139,1.219-1.607,1.698-2.549C311.24,312.532,310,314.614,308.557,314.329z M312.377,314.751
		c0.77-1.062,0.77-2.905,2.542-2.971C314.598,313.299,313.94,314.481,312.377,314.751z M312.796,309.666
		c0.437-3.376,3.346-4.286,4.663-6.78C317.581,305.134,314.924,308.251,312.796,309.666z M320.854,300.339
		c-1.392-0.885,0.712-1.789,0.846-2.545C322.85,298.433,321.028,299.624,320.854,300.339z M317.037,293.984
		c0.199-3.197,2.889-3.897,3.817-6.358c0.684-0.124,0.729,0.401,1.267,0.422C321.101,290.694,319.565,292.837,317.037,293.984z
		 M320.854,244.384c-1.323-2.979,0.65-6.052,3.39-6.357C324.114,241.061,323.798,243.355,320.854,244.384z M317.037,245.225
		c0.422,0,0.85,0,1.271,0c0.974,1.741,0.192,4.862-1.695,5.094C316.768,248.636,316.227,246.254,317.037,245.225z M313.217,238.028
		c-1.724,1.661-2.53,4.245-5.083,5.083c-0.055-7.592,2.269-9.845,5.512-13.561C316.595,232.332,309.123,235.078,313.217,238.028z
		 M307.711,214.283c6.299-10.086,14.348-18.429,21.617-27.552c1.158-0.313,0.86,0.847,1.7,0.851
		C324.405,197.631,316.399,206.303,307.711,214.283z M312.377,202.842c2.338-2.598,3.358-6.533,6.784-8.062
		C317.714,198.284,315.821,201.343,312.377,202.842z M323.394,223.188c0.248-1.873,1.166-3.083,2.124-4.242
		c1.827,1.582-0.563,5.44-1.696,6.786c-0.5-0.069-0.36-0.773-0.428-1.275c-1.312,1.793-1.732,4.487-3.811,5.512
		C318.612,227.383,321.619,223.05,323.394,223.188z M321.281,221.493c0.28-1.981,0.674-3.849,1.689-5.088
		C324.664,217.139,323.537,221.928,321.281,221.493z M326.361,212.593c1.187,0.804-0.08,2.709-0.42,3.387
		C324.307,215.586,326.068,213.604,326.361,212.593z M325.941,235.905c0.901,0.396,0.58,3.082-0.847,2.545
		C324.758,236.979,325.564,236.657,325.941,235.905z M326.79,223.613c1.29-0.171,2.156,1.112,2.538-0.425
		c1.338,2.056-2.53,2.541-2.538,4.666C325.578,226.883,327.382,225.366,326.79,223.613z M315.765,229.122
		c-0.34-1.463,0.472-1.789,0.849-2.543C317.517,226.973,317.193,229.659,315.765,229.122z M316.194,231.662
		c0.945,0.442,0.333,2.843-0.85,2.543C315.006,232.742,315.813,232.423,316.194,231.662z M317.46,240.991
		c-0.29-6.929,4.38-8.908,6.784-13.137c2.334,3.106-1.817,6.884-2.963,9.321c-0.941,0.233-0.606-0.805-1.276-0.843
		C318.324,237.048,320.18,241.309,317.46,240.991z M325.941,282.111c0.052-1.077,0.618-1.644,1.692-1.7
		C327.583,281.494,327.019,282.062,325.941,282.111z M325.941,246.083c-0.837-0.295-1.127-1.135-1.272-2.123
		c1.063-1.2,1.63-2.89,3.392-3.393C327.273,242.321,327.002,244.603,325.941,246.083z M328.488,229.968
		c-1.143-0.891,0.362-2.714,1.691-2.538C330.702,229.362,328.695,228.765,328.488,229.968z M329.328,216.827
		c-0.585-1.343,0.814-3.845,1.7-5.08C331.989,213.277,331.143,216.649,329.328,216.827z M331.029,233.359
		c0.214-1.899,1.32-2.913,2.118-4.237C334.362,230.781,332.445,232.926,331.029,233.359z M333.147,226.579
		c-0.807-0.044,0.339-1.575,0.424-2.122c-0.103-1.09-0.73,0.586-1.696,0c-0.056-0.758,0.517-0.891,0.424-1.69
		c1.021-0.177,0.921,0.77,2.117,0.421C334.694,225.02,333.684,225.566,333.147,226.579z M332.724,218.946
		c0.188-2.912,1.344-4.866,2.538-6.78C336.971,213.62,335.625,218.506,332.724,218.946z M336.534,228.276
		c-1.176-1.349,0.148-3.789,0.849-4.663C338.068,224.456,336.988,227.157,336.534,228.276z M344.169,157.483
		c3.926-2.117,7.364-4.319,12.291-5.088c-6.05,4.264-14.166,8.718-20.348,11.443C336.086,160.609,340.945,159.218,344.169,157.483z
		 M342.471,156.207c4.085-2.982,8.594-5.537,14.414-6.786C352.539,152.15,347.467,154.139,342.471,156.207z M339.08,193.94
		c1.397,0.879-0.713,1.785-0.846,2.543C336.843,195.6,338.947,194.694,339.08,193.94z M338.234,199.448
		c0.313,1.865-1.372,1.736-1.7,2.969C335.56,201.547,337.013,199.52,338.234,199.448z M338.234,219.374
		c-1.761-0.493,0.04-2.105,0-3.394C339.823,215.759,338.128,218.385,338.234,219.374z M339.498,210.468
		c-0.795-0.556,0.397-2.687,0.432-3.812C342.02,207.105,340.007,209.882,339.498,210.468z M340.776,202.417
		c-0.333-1.466,0.473-1.792,0.846-2.547C342.569,200.305,341.962,202.71,340.776,202.417z M344.169,166.812
		c1.44-4.21,6.426-4.879,9.324-7.637c0.722-0.149,0.801,0.334,0.85,0.851C351.756,163.096,347.879,164.866,344.169,166.812z
		 M354.764,227.43c-0.086,2.167-1.267,3.254-2.541,4.232C350.992,229.858,352.394,227.051,354.764,227.43z M347.98,237.602
		c-0.12-2.101,0.869-3.09,2.97-2.969C350.695,236.357,350.116,237.757,347.98,237.602z M351.377,238.871
		c0.35-1.062,1.483-1.339,2.116-2.119C355.482,237.546,352.679,238.791,351.377,238.871z M353.493,234.633
		c0.153-2.245,1.624-3.182,3.816-3.388C357.261,233.591,355.273,234.011,353.493,234.633z M357.309,235.905
		c-0.059-1.331,1.085-1.459,2.121-1.7C358.954,235.006,358.924,236.252,357.309,235.905z M359.008,224.885
		c1.816,0.089,0.498,3.334-0.853,2.969C357.91,226.328,358.648,225.8,359.008,224.885z M359.008,241.84
		c0.384-0.741,0.783-1.474,2.118-1.272C361.318,241.891,360.22,241.929,359.008,241.84z M363.246,241.417
		c-0.067-1.058,0.664-1.315,0.843-2.121C365.531,239.48,365.081,242.059,363.246,241.417z M365.363,202.417
		c0.251-0.886,0.887-1.37,1.274-2.114C367.607,200.756,366.798,202.961,365.363,202.417z M365.788,153.664
		c-0.689,3.552-5.817,2.665-8.479,4.24C359.606,156.199,362.788,153.272,365.788,153.664z M364.517,151.546
		c-3.756,2.546-7.806,4.741-11.875,7.208c-3.729,2.27-7.465,5.722-11.866,5.933c5.058-6.664,14.291-9.165,21.622-13.56
		C363.379,150.993,364.022,151.19,364.517,151.546z M357.309,146.884c-0.266,1.43-2.29,1.107-3.816,1.271
		C353.357,146.589,356.518,146.124,357.309,146.884z M350.95,149.853c-3.084,1.425-6.317,3.235-10.174,5.508
		c-3.748,2.21-8.156,6.972-11.867,5.087c5.493-5.387,13.253-8.504,21.195-11.442C350.823,148.847,350.901,149.336,350.95,149.853z
		 M348.834,147.734c-3.371,2.105-7.285,3.621-11.025,5.509c-3.485,1.763-6.863,4.571-10.599,4.661
		C333.176,153.272,340.01,149.509,348.834,147.734z M340.353,145.187c-0.053,1.081-0.618,1.644-1.693,1.697
		c-0.228-0.341-0.449-0.689-0.426-1.274C338.727,145.256,339.369,145.056,340.353,145.187z M335.263,147.734
		c0.861,1.571-0.444,2.358-2.538,2.119c-0.356-0.49-0.559-1.136-0.426-2.119C333.288,147.734,334.281,147.734,335.263,147.734z
		 M328.909,148.58c-0.05,1.743,1.695,1.696,1.27,3.815c-1.363-0.332-2.807-0.582-3.817-1.267
		C326.039,149.101,327.249,148.62,328.909,148.58z M324.244,151.971c-0.068,1.34,1.129,1.416,0.85,2.973
		c-1.797-0.045-2.673-1.007-2.544-2.973C323.118,151.971,323.676,151.971,324.244,151.971z M321.701,157.904
		c-1.009,1.806-5.409,1.761-5.507-0.846C318.031,154.247,321.012,154.123,321.701,157.904z M311.951,160.027
		c2.128-1.114,4.299,0.945,4.243,3.39C314.241,162.822,313.078,161.44,311.951,160.027z M294.573,186.731
		c0.666,1.25-1.379,3.42-2.547,4.235C291.672,188.352,293.962,188.388,294.573,186.731z M294.996,190.124
		c-2.733,4.353-5.602,10.763-9.328,12.717C287.098,196.926,291.545,194.019,294.996,190.124z M293.724,183.341
		c-0.962,1.724-2.571,0.893-4.241,0.418C289.378,179.548,292.823,181.13,293.724,183.341z M289.062,189.277
		c-1.693,0-1.847-1.551-2.966-2.12C286.167,182.489,292.072,187.213,289.062,189.277z M283.974,189.699
		c0.872,0.821,2.583,0.805,2.123,2.966c-1.991,0.432-2.417-0.699-3.391-1.271C282.829,190.531,283.553,190.268,283.974,189.699z
		 M283.974,195.209c0.207,1.338-0.607,1.66-0.85,2.546c-1.816,0.121-2.798-0.589-3.814-1.271
		C279.057,192.878,282.346,194.157,283.974,195.209z M275.916,199.448c1.452-0.919,4.032,0.037,4.244,1.7
		c-0.857,1.776-3.048,1.094-4.244,0C275.916,200.583,275.916,200.02,275.916,199.448z M273.371,202.417
		c2.108,0.224,3.453,2.271,2.97,3.816c-2.17,0.052-3.396-0.84-3.813-2.541C272.921,203.383,273.17,202.914,273.371,202.417z
		 M269.985,206.656c1.901,0.076,2.469,1.487,3.814,2.119c-0.386,2.729-3.276,0.132-4.246-0.424
		C269.51,207.589,270.076,207.453,269.985,206.656z M267.862,210.468c1.688,0.537,3.299,2.092,2.124,4.244
		c-1.42-0.282-2.075-1.32-3.391-1.699C266.573,211.72,267.488,211.367,267.862,210.468z M267.438,218.103
		c-1.637,0.229-1.744-1.082-2.962-1.275C264.811,215.291,267.101,217.057,267.438,218.103z M244.547,245.654
		c2.069-0.076,3.867,1.859,2.543,3.816C244.797,249.294,243.939,247.631,244.547,245.654z M244.97,253.287
		c-1.521,0.248-2.045-0.49-2.966-0.849C242.133,249.522,245.593,250.026,244.97,253.287z M240.313,254.555
		c0.337,0.226,0.687,0.445,1.27,0.425c0.19,1.884-0.241,3.156-2.119,2.969C238.366,256.73,239.784,255.45,240.313,254.555z
		 M216.574,307.546c2.316-0.195,2.87,1.372,2.964,3.384C218.032,311.578,215.42,309.755,216.574,307.546z M215.302,311.78
		c1.687,0.577,2.586,1.939,2.962,3.818C216.114,315.633,214.048,313.799,215.302,311.78z M214.45,332.56
		c-0.943-0.757-1.497-1.9-1.696-3.398C214.394,329.159,215.184,331.51,214.45,332.56z M215.724,327.044
		c-1.787,0.093-1.493-1.895-2.543-2.547C214.306,323.404,216.121,325.213,215.724,327.044z M216.145,322.383
		c-2.218-0.568-3.855-3.142-2.545-5.937c2.053,0.216,1.711,2.817,3.394,3.39C216.854,320.835,216.487,321.591,216.145,322.383z
		 M244.123,333.407c-0.019-1.583,0.433-2.686,0.848-3.819C245.803,330.31,245.67,333.652,244.123,333.407z M246.669,324.496
		c-1.671-0.589,0.526-2.985,0.421-4.661C248.421,321.197,246.184,322.583,246.669,324.496z M244.123,305.427
		c-0.477,1.296-0.036,2.874-0.42,4.238c-1.914,6.722-6.175,11.91-7.633,19.075c-1.225,6.006-1.367,14.688-1.271,21.619
		c-2.365-1.359-2.834-5.609-2.971-8.471c-0.321-6.987,3.547-15.109,4.667-20.777c-5.636,5.02-5.124,17.286-5.934,25.853
		c-1.604,0.728-3.411-1.543-5.091-2.113c-3.07-9.374,0.846-18.003,3.395-25.435c-4.78,4.538-5.742,14.704-5.934,22.472
		c-4.557-4.098-0.687-15.122,0-21.627c-3.316,2.905-1.455,10.981-4.667,13.99c0.574-18.435,10.324-40.957,18.232-56.377
		c3.537-6.899,6.24-13.991,10.174-19.925c1.507-7.115,5.801-11.445,8.478-17.382c-0.43-0.561-0.397-1.578-1.27-1.696
		c-3.528,0.293-2.117,5.517-5.092,6.354c-1.272-0.267-1.182-1.919-2.116-2.535c5.011-7.851,9.024-16.698,15.261-23.316
		c1.427,0.412,2.468,1.206,3.39,2.12c-1.969,3.255-4.747,5.704-5.929,9.752c3.787,0.329,6.691-5.958,11.441-4.666
		c0.337,2.333-2.317,3.4-1.278,5.083c1.901,0.06,1.637-2.04,2.128-3.385c4.326-6.413,9.518-11.965,13.561-18.652
		c-3.871,2.341-6.982,9.117-10.593,13.142c0.336-4.962,7.075-8.747,7.207-13.992c0.46,0.105,0.286,0.845,0.85,0.85
		c5.411-8.155,12.16-14.97,16.107-24.587c1.864-0.961,2.442-3.211,4.662-3.817c-0.767,1.555-2.862,2.856-1.697,5.087
		c-1.288,2.809-3.637,4.555-5.088,7.208c2.605-1.637,3.553-4.93,6.786-5.933c-2.074,4.849-5.704,8.139-8.478,12.287
		c5.047-4.418,10.274-12.329,15.258-18.228c0.67-0.033,1.615,0.204,1.696-0.421c0.945,3.31-4.966,6.831-6.359,10.599
		c3.144-2.082,6.796-7.332,10.174-10.599c-1.295,4.783-6.362,9.464-9.325,13.988c3.966-1.266,5.551-8.576,10.598-10.171
		c-1.788,5.136-5.477,8.37-8.48,12.296c2.766-1.203,5.509-6.075,8.48-8.484c-1.36,8.815-10.42,13.605-14.413,21.2
		c-3.018-0.193-3.046,2.606-4.662,3.812c-0.554-1.13,1.595-3.196,2.119-4.662c-1.091,0.411-3.374,0.914-3.813-0.425
		c-10.075,7.442-15.442,19.606-22.046,30.522c4.385-0.801,3.384-8.734,6.359-8.903c4.235-0.238-2.552,8.554-3.388,8.903
		c-0.195,1.324,0.905,1.358,2.117,1.271c-6.272,13.799-13.709,26.426-22.045,38.153c-2.867,0.402-5.668-1.604-4.658-4.665
		c-0.939-1.446-2.683-1.926-4.667-1.27c-0.701-3.385,1.6-3.77,1.699-6.357c-2.469-2.208-6.262,1.235-7.633,3.39
		c-3.328,5.228-5.739,16.332-9.327,19.921c0.357,0.493,0.564,1.135,0.429,2.12c2.064,0.231,1.639-2.034,3.388-2.12
		c0.73,0.258-0.033,2.017,0.845,2.12c2.085,0.384,1.615-1.773,3.394-1.693c-0.275,2.392,1.907,2.328,2.97,3.39
		c1.915-0.057,1.816-2.137,2.546-3.39c1.214,0.051,2.771-0.232,3.388,0.426c-0.411,1.704-1.135,3.103-2.125,4.235
		C248.887,298.337,245.336,302.186,244.123,305.427z M283.974,229.968c-1.028-3.627,2.562-7.134,4.661-10.174
		c2.286-3.307,4.915-6.315,6.785-9.327c0.721-0.154,0.797,0.333,0.849,0.851C292.185,217.551,288.192,223.874,283.974,229.968z
		 M281.005,238.45c-1.003-4.114,3.811-6.078,5.091-9.328C287.146,231.722,282.663,235.771,281.005,238.45z M297.116,214.712
		c-0.713,1.266-0.857,3.1-2.543,3.391C295.16,216.709,295.676,215.246,297.116,214.712z M250.06,327.894
		c0.043-3.203,0.706-5.79,1.693-8.058C252.655,322.3,252.382,327.249,250.06,327.894z M251.753,344.852
		c-0.349-1.196,0.602-1.1,0.425-2.121c0.682-0.12,0.73,0.4,1.268,0.424C253.303,344.14,253.18,345.145,251.753,344.852z
		 M253.026,328.741c-0.06-2.321,0.493-4.029,0.852-5.939C255.551,323.526,254.774,328.669,253.026,328.741z M254.723,343.154
		c-0.187-1.876,0.71-2.681,2.12-2.961C257.014,342.048,256.322,343.058,254.723,343.154z M255.573,331.283
		c-0.12-1.106,0.157-1.82,1.27-1.695C256.96,330.697,256.687,331.416,255.573,331.283z M258.116,345.273
		c-0.228-1.5,0.681-1.857,1.275-2.542C260.684,343.344,260.057,345.587,258.116,345.273z M258.116,340.609
		c-0.111-1.383,0.501-2.036,1.695-2.116C259.983,339.938,259.684,340.903,258.116,340.609z M258.54,336.375
		c-0.109-1.236,0.799-1.468,1.27-2.124C260.938,334.87,259.63,336.575,258.54,336.375z M258.54,332.13
		c0.217-0.626,0.628-1.066,0.85-1.692c0.42,0,0.843,0,1.267,0C260.715,331.771,259.572,331.888,258.54,332.13z M260.658,318.138
		c1.673,0.874,0.422,4.898-0.424,5.942C258.173,323.094,260.496,319.678,260.658,318.138z M261.506,346.965
		c-0.113-1.377,0.504-2.033,1.694-2.113C263.314,346.229,262.7,346.89,261.506,346.965z M261.083,342.731
		c0.261-1.29,0.945-2.164,2.537-2.121C263.835,342.382,262.552,342.645,261.083,342.731z M261.93,333.831
		c-0.186-1.876,0.702-2.689,2.121-2.969C264.884,332.008,263.789,334.054,261.93,333.831z M263.2,317.296
		c0.503-7.41,4.842-10.984,7.632-16.105c-3.956,1.412-6.002,8.404-10.598,10.589c-1.275,3.677-1.577,8.317-3.391,11.453
		c-0.905-10.796,7.198-16.261,11.019-23.735c-5.091,4.226-10.149,12.166-13.566,19.498c0.457-9.016,6.626-15.985,10.18-23.323
		c-4.253,1.976-5.702,10.416-9.753,13.992c-1.428-1.318,0.994-2.371,0.424-4.238c-1.414-1.207-1.47,1.671-2.969,1.693
		c7.618-14.569,11.201-25.849,22.891-43.66c11.429-17.424,27.207-36.283,30.1-40.694c4.827-1.25,5.122-7.031,8.896-9.33
		c-0.594,4.511,0.545,9.613-0.849,13.565c-1.322,3.78-6.367,7.313-8.896,11.027c-2.111,3.099-3.067,5.933-5.086,8.472
		c3.518-2.406,4.603-7.26,8.475-9.325c1.151,7.801-2.783,10.496-5.514,14.416c3.903-3.167,7.028-7.103,10.179-11.024
		c1.364-0.38,0.593,1.39,1.27,1.7c1.452,0.309,0.538-1.724,2.119-1.276c0.787,5.484-4.667,8.314-6.778,12.296
		c2.681-1.275,3.35-4.559,6.357-5.515c0.164,2.993,0.027,5.687-1.278,7.208c2.483-0.131,2.851-5.205,5.095-2.964
		c0.758-1.644,0.416-4.387,2.961-4.244c-0.873,7.181-6.065,10.045-8.904,15.263c0.105,1.093,0.734-0.581,1.702,0
		c1.376,5.333-2.778,6.662-4.665,9.331c-2.767,3.92-4.658,8.767-7.63,11.863c0.185,1.463-0.168,2.378-0.427,3.396
		c-5.457,6.127-10.064,13.105-16.101,18.65c-0.761,3.056-0.366,7.265-3.821,7.625c-0.285-8.622,6.796-9.874,9.33-15.682
		c-2.661,0.73-2.974,3.813-5.937,4.241c-0.31-1.299,0.73-1.247,0.428-2.543c-4.076,2.996-6.101,8.031-10.181,11.013
		c-1.621-3.296,4.196-6.164,4.244-10.591c-3.107,0.475-4.228,6.482-6.359,9.327c-4.955,0.275-2.871,7.582-6.362,9.33
		c-0.485-7.276,3.623-9.946,4.663-15.688C267.241,306.07,267.595,314.056,263.2,317.296z M265.319,370.707
		c0.124,10.52,4.545,19.527,10.175,25.861c1.326,0.194,1.893-0.368,1.698-1.695c2.647,2.228,3.465-0.816,6.782,0.847
		c-2.578-5.193-7.483-8.071-8.479-14.84c0.655,1.748,2.683,2.121,2.543,4.666c3.428,2.198,5.529,9.838,10.174,8.053
		c0.392-1.943-1.896-1.215-2.544-2.124c-4.62-4.746-10.925-12.188-9.328-20.345c2.395,2.566,2.424,6.302,3.818,9.324
		c2.197,4.786,5.568,9.188,9.746,12.298c1.711,0.434,1.884-0.663,2.546-1.276c6.327,2.58,11.49,7.032,17.803,8.906
		c11.442,3.392,20.809,6.923,33.273,9.393c6.749,1.346,12.589,1.106,18.449,1.628c21.742,1.943,42.943,2.99,64.851-1.695
		c3.549-0.757,8.414-2.119,13.144-2.971c-2.385,0.914-5.499,2.692-8.479,3.395c-2.108,0.496-4.987-0.666-5.508,1.697
		c6.258,0.496,14.84-4.506,21.192-2.545c2.036,0.149-0.901,1.276-0.843,2.119c1.937-0.282,4.289-2.364,5.93-0.421
		c-2.637,3.858-10.235,2.758-13.137,6.353c4.613,0.496,9.707-4.386,14.412-3.813c-1.988,3.248-7.42,3.04-9.753,5.942
		c4.609-0.237,7.574-4.261,11.871-3.395c-2.056,3.587-9.001,2.3-11.025,5.934c4.249,1.263,9.641-5.78,13.567-2.121
		c-2.782,4.28-9.458,4.668-13.984,7.205c5.44,1.157,11.893-6.499,16.106-3.813c-8.96,6.832-28.442,7.546-42.392,10.171
		c-35.879,6.744-78.028-0.93-106.4-13.142c-12.258-5.271-24.044-10.033-32.64-18.645c-2.189-2.193-4.806-5.028-7.633-7.205
		c-0.354-0.498-0.561-1.143-0.424-2.129c-5.565-4.599-5.363-14.981-8.051-22.463C263.665,370.108,263.988,370.913,265.319,370.707z
		 M439.971,438.114c-1.939,0.781-2.188-2.297-1.274-2.971C440.059,435.207,440.457,437.501,439.971,438.114z M434.037,437.682
		c0.038-1.151-0.709-0.847,0-1.689C435.669,435.657,435.669,438.021,434.037,437.682z M431.492,439.806
		c-0.759-0.053-0.894,0.517-1.697,0.423c-0.836-0.831-0.264-2.422,0-3.387c0.429,0,0.854,0,1.275,0
		C430.728,438.308,431.698,438.468,431.492,439.806z M426.408,440.229c-1.512,0.093-1.913-2.201-1.273-2.966c0.566,0,1.13,0,1.692,0
		C426.825,438.388,426.991,439.683,426.408,440.229z M414.539,441.924c-1.73,0.179-1.945-3.68,0.422-2.966
		C414.959,440.08,415.121,441.381,414.539,441.924z M409.028,441.924c-0.056-1.047-0.065-2.041,0.418-2.547c0.432,0,0.85,0,1.278,0
		C410.835,440.912,410.827,442.319,409.028,441.924z M394.19,465.243c-0.81,0.179-1.067,0.909-2.121,0.845
		c-1.509-2.593,1.544-3.376,0.422-5.937c1.025,0.173,0.924-0.775,2.125-0.421C393.966,462.744,393.436,461.957,394.19,465.243z
		 M378.078,455.485c-1.163-0.003-0.999-1.996-0.42-2.537C378.821,452.959,378.665,454.949,378.078,455.485z M378.504,440.656
		c0.421,0,0.851,0,1.272,0c-0.151,1.26-0.674,2.15-1.272,2.966C377.358,443.123,378.504,441.407,378.504,440.656z M378.504,463.969
		c0.541-0.581,2.534-0.738,2.545,0.427c0.246,1.516-1.258,1.284-2.545,1.268C378.504,465.102,378.504,464.534,378.504,463.969z
		 M378.925,460.58c1.283-0.607,2.451-0.354,2.546,1.266C380.359,462.288,378.709,462.517,378.925,460.58z M379.777,459.301
		c-0.915-0.898-0.219-2.364,0.424-2.966c0.282,0,0.565,0,0.849,0c0.642,0.602,1.338,2.068,0.422,2.966
		C380.906,459.301,380.343,459.301,379.777,459.301z M380.2,455.485c-0.056-1.045-0.067-2.039,0.425-2.537c0.424,0,0.846,0,1.267,0
		C382.853,454.033,382.296,456.162,380.2,455.485z M385.286,467.359c0.059,0.757-0.514,0.895-0.421,1.695
		c-1.126-0.003-2.423,0.157-2.972-0.421C381.471,466.682,384.236,466.52,385.286,467.359z M382.745,465.664
		c-1.553-2.108,1.725-3.32,3.387-2.116C386.111,465.352,384.902,465.987,382.745,465.664z M383.165,460.58
		c1.264-0.565,2.153-0.437,2.967,0.424C386.113,462.28,382.676,462.32,383.165,460.58z M383.592,458.885
		c-0.304-1.94,1.612-3.163,2.97-2.121C387.104,458.946,384.966,459.951,383.592,458.885z M384.44,455.485
		c-1.275-1.714,0.995-3.35,2.542-2.116c0,0.57,0,1.127,0,1.695C386.479,455.554,385.483,455.543,384.44,455.485z M390.373,463.548
		c0.064,1.055-0.665,1.303-0.843,2.116c-1.047,0.059-2.044,0.064-2.547-0.421C386.675,462.68,388.975,462.184,390.373,463.548z
		 M389.949,451.672c0.261-1.039,2.715-2.065,2.542,0C391.251,452.055,391.189,452.055,389.949,451.672z M389.098,455.064
		c-0.183-1.881,1.093-2.3,2.971-2.116C392.622,455.131,390.333,455.991,389.098,455.064z M389.098,443.203
		c-0.898-0.869,0.121-1.681,0.432-2.547c0.686-0.12,0.726,0.394,1.272,0.421C390.904,442.457,390.294,443.123,389.098,443.203z
		 M391.223,455.914c0.621,1.295,0.116,2.212-0.421,3.387c-1.046,0.056-2.048,0.069-2.545-0.416
		C388.125,456.775,388.834,455.509,391.223,455.914z M390.373,460.151c0.392,1.807-1.011,1.812-2.541,1.695c0-0.562,0-1.13,0-1.695
		C388.678,460.151,389.529,460.151,390.373,460.151z M390.802,467.359c0.841-0.397,2.015-1.378,2.967-0.424
		c-1.88,2.137,0.769,6.34-3.396,6.361C388.858,470.69,392.14,470.138,390.802,467.359z M393.343,459.301
		c-0.839-1.151-0.476-3.925,1.274-3.816c-1.94-1.138,0.361-3.984,2.12-2.537c0.111,1.383-0.509,2.044-1.7,2.116
		c0.566,0.709,1.127,1.425,0.849,2.971C395.2,458.624,394.84,459.535,393.343,459.301z M393.343,442.348
		c-0.136-0.981,0.071-1.631,0.426-2.119C395.067,440.307,394.653,442.511,393.343,442.348z M394.616,450.824
		c1.016,0.179,0.915-0.773,2.12-0.416C397.699,452.085,394.139,452.279,394.616,450.824z M396.306,462.693
		c1.959-0.4,1.797,3.837-0.421,2.971C395.889,464.542,395.723,463.245,396.306,462.693z M397.156,461.846
		c-0.99-0.101-0.242-1.857,0-2.116C398.904,459.53,397.757,461.8,397.156,461.846z M398.006,455.914
		c1.868-0.256,0.959,1.793,0.422,2.545C396.869,458.848,397.659,456.215,398.006,455.914z M397.156,442.772c0-0.848,0-1.695,0-2.542
		c0.426,0,0.85,0,1.272,0C398.447,441.522,398.673,443.014,397.156,442.772z M403.09,462.693c0.275,2.731-2.743,3.539-4.238,2.126
		C398.36,462.33,401.43,461.678,403.09,462.693z M400.127,461.43c-0.684-2.622,2.617-2.465,3.385-1.279
		C402.782,461.59,401.991,462.029,400.127,461.43z M400.975,458.885c-1.452-2.209,0.413-4.253,3.392-3.4
		C404.685,458.072,403.55,459.197,400.975,458.885z M400.975,442.348c-0.056-1.047-0.073-2.041,0.419-2.542
		C402.669,439.83,402.629,442.814,400.975,442.348z M401.82,454.222c0-0.427,0-0.853,0-1.274c0.617-0.65,2.167-0.376,3.388-0.426
		C405.613,454.558,402.998,455.088,401.82,454.222z M404.783,442.348c-0.95-0.946,0.031-2.121,0.425-2.971
		C407.163,438.985,407.003,443.214,404.783,442.348z M379.355,475.838c-1.04,0.339-2.445,0.727-2.546-0.847
		C377.457,474.34,379.715,474.234,379.355,475.838z M375.536,450.409c0.629,1.332-2.434,2.036-2.117,0.416
		C373.909,450.473,374.556,450.27,375.536,450.409z M374.692,441.924c1.587-0.296,1.029,3.216-0.426,2.545
		C373.96,443.179,374.699,442.926,374.692,441.924z M375.962,453.369c0.397,2.427-2.302,2.393-3.813,1.695
		C372.195,453.364,374.559,452.386,375.962,453.369z M375.962,457.612c-0.185,1.831-2.214,2.478-3.813,1.689
		C371.395,456.487,374.9,456.162,375.962,457.612z M375.115,461.004c0.197,1.919-1.984,1.154-2.966,0.842
		C372.715,460.689,374.041,460.604,375.115,461.004z M375.536,464.396c0.269,1.959-2.318,1.071-3.817,1.268c0-0.562,0-1.13,0-1.695
		C372.407,463.415,375.461,463.05,375.536,464.396z M376.382,467.359c-0.44,1.551-3.456,2.262-5.083,1.274
		C371.38,465.989,374.478,467.25,376.382,467.359z M365.788,443.203c-1.461-0.243-0.25-1.644,0-2.547
		C366.734,440.834,366.12,442.905,365.788,443.203z M361.126,443.203c-1.064-1.202,0.381-2.444,0.42-3.827c0.431,0,0.852,0,1.27,0
		C363.047,441.37,363.441,442.95,361.126,443.203z M360.28,438.958c-0.715,1.269-0.861,3.099-2.547,3.39
		C357.278,441.367,357.814,438.367,360.28,438.958z M355.61,438.958c0.147,1.546-0.473,2.356-0.846,3.39
		c-1.054,0.067-1.314-0.661-2.122-0.847C352.88,439.897,353.249,438.431,355.61,438.958z M352.223,438.537
		c-0.009,1.543-1.204,1.897-1.697,2.963c-6.585-1.895-15.991-0.965-19.923-5.508c0.412-0.013,0.325-0.525,0.425-0.85
		C338.206,434.706,345.201,436.784,352.223,438.537z M325.094,435.993c-1.772,0.354-2.007-0.826-3.394-0.85
		C320.974,429.949,327.386,431.908,325.094,435.993z M320.004,430.903c0.107,1.242-0.955,1.303-0.843,2.542
		c-0.987,0.141-1.631-0.069-2.124-0.421C316.883,431.231,318.655,429.861,320.004,430.903z M316.194,429.203
		c0.073,1.495-1.436,1.399-1.699,2.55C313.338,430.844,315.048,429.222,316.194,429.203z M312.377,427.508
		c0.243,2.089-1.396,2.284-3.39,2.126C308.971,427.785,310.453,427.428,312.377,427.508z M307.711,426.243
		c-0.081,1.188-0.736,1.801-2.12,1.695C306.14,427.212,306.466,426.266,307.711,426.243z M304.322,424.966
		c-0.482,0.799-0.501,2.044-2.124,1.7C302.276,425.472,302.941,424.859,304.322,424.966z M300.927,423.7
		c-0.505,1.423-2.164,2.164-3.811,1.266C297.139,423,299.807,422.16,300.927,423.7z M296.267,421.15
		c0.076,2.009-1.601,2.74-2.97,2.124C293.479,421.758,294.65,421.233,296.267,421.15z M291.179,419.882
		c1.583,0.325,0.229,2.012-1.274,1.695C289.534,420.218,291.006,420.7,291.179,419.882z M286.096,418.608
		c0.619-1.13,2.284-2.809,3.809-1.689C289.896,418.656,287.599,419.701,286.096,418.608z M285.668,414.792
		c-0.213,1.793-2.573,2.928-3.813,1.276C282.073,414.033,284.391,413.548,285.668,414.792z M281.005,411.829
		c-0.016,2.174-1.644,2.963-2.967,1.692C277.632,411.592,279.82,410.854,281.005,411.829z M276.341,410.982
		c-1.832-0.107-2.777-2.308-1.271-3.392C277.114,407.486,277.766,409.977,276.341,410.982z M269.985,404.624
		c-1.935,0.003-2.944-1.399-2.124-2.966c0.566,0,1.134,0,1.692,0C270.17,402.713,270.585,403.318,269.985,404.624z M267.017,399.955
		c-3.957,0.317-6.117-6.744-6.783-9.745C263.196,392.505,266.038,397.083,267.017,399.955z M363.246,472.451
		c-1.796,1.375,2.053,1.855,0.843,2.54c-1.832,0-3.672,0-5.511,0c2.806,3.139,10.588,1.284,15.262,2.545
		c-0.946,4.29-8.644,0.522-12.295,0.845c-1.283-0.011-0.41,2.14-1.692,2.121c-39.549-4.258-73.916-13.694-93.687-37.729
		c5.494,2.689,10.228,7.522,15.688,11.45c5.511,3.954,11.801,7.005,18.653,9.326c-0.059-1.644-1.657-1.74-3.392-1.703
		c-12.728-6.912-24.932-14.355-32.64-26.279c-1.709-0.293-1.045,1.788-2.546,1.697c-5.103-9.862-1.955-23.814-3.814-36.882
		c3.668,2.974,6.048,7.237,9.746,10.179c-0.243,1.657,0.369,2.457,0.849,3.384c9.983,9.532,21.969,19.295,36.035,23.319
		c-0.491-2.459-3.459-1.876-5.09-2.545c-3.777-1.559-7.04-4.445-10.593-5.932c5.128,0.237,9.121,4.522,14.412,6.355
		c4.408,1.532,13.494,5.5,14.834,5.934c31.691,10.296,35.355,6.193,52.143,10.179c-2.946,2.808-9.797-3.227-12.296,0.416
		c0.014,1.546,1.248,1.865,2.971,1.697c0.316,1.306-1.17,0.815-0.846,2.116c2.034,2.491,10.444-1.404,10.592,2.974
		c-1.524,2.417-5.901,0.621-9.327,0.426c-0.381,1.751,0.693,2.126-0.846,3.808c1.908,3.269,7.759-0.237,10.172,1.703
		c-1.579,3.056-7.095-1.117-10.172,0.847c0.925,3.03,7.516,0.397,9.324,2.542c-1.688,3.336-8.167-0.506-11.016,1.268
		c3.727,3.07,11.627,0.453,16.107,1.7C374.835,475.052,367.043,472.225,363.246,472.451z M374.266,475.838
		c-1.222-0.053-2.771,0.237-3.394-0.423C371.565,474.551,374.231,474.007,374.266,475.838z M369.183,474.572
		c0.19,1.612-3.314,0.799-3.82,0.418C365.813,474.029,368.029,474.833,369.183,474.572z M370.451,454.651c-1.268,0-2.546,0-3.814,0
		C366.509,453.537,370.663,453.116,370.451,454.651z M365.363,453.795c-0.383,1.61-1.704,0.309-2.966,0.427
		C362.575,453.273,364.486,454.046,365.363,453.795z M370.451,461.43c-2.685,1.399-5.21,0.73-8.054,0
		C364.151,460.67,368.674,460.79,370.451,461.43z M374.692,481.775c-0.262-1.676,2.329-0.503,3.385-0.847
		C378.335,482.598,375.751,481.426,374.692,481.775z M379.355,478.809c-1.168,0.504-1.775,0.919-2.974,0.429
		c-0.044-1.612,0.83-2.286,2.122-2.553C378.684,477.496,379.715,477.453,379.355,478.809z M377.658,473.296
		c-0.49-0.498-0.477-1.497-0.426-2.542c0.566-0.605,2.405-0.605,2.969,0C380.163,472.411,379.679,473.626,377.658,473.296z
		 M378.078,468.633c0-0.421,0-0.847,0-1.274c0.504-0.488,1.504-0.482,2.547-0.424c0.352,1.205-0.599,1.093-0.425,2.119
		C379.216,469.192,378.572,468.99,378.078,468.633z M381.049,480.928c0.489-0.354,1.134-0.565,2.116-0.426
		C383.587,482.433,381.004,482.59,381.049,480.928z M383.592,479.238c-0.566,0.592-2.403,0.592-2.967,0
		c-0.171-2.667,1.103-2.236,0.424-4.666c0.843,0,1.696,0,2.543,0C383.568,476.163,382.672,476.507,383.592,479.238z
		 M382.323,473.714c-0.011-0.402-0.521-0.328-0.851-0.418c-1.687-2.414,1.158-4.57,3.393-2.966
		C385.013,472.459,384.092,473.514,382.323,473.714z M387.408,480.928c0.198,2.033-2.465,1.215-2.969,0.423
		c2.204-1.196-0.568-2.43,0.846-4.666c1.503-0.229,2.182,0.36,2.546,1.274c-0.048,1.079-0.618,1.647-1.7,1.695
		C386.004,480.632,387.356,480.125,387.408,480.928z M385.286,474.991c0.501-0.49,1.5-0.48,2.546-0.418
		C388.633,476.685,384.915,476.928,385.286,474.991z M387.408,473.714c-0.762,0.061-0.896-0.514-1.696-0.418
		c0.157-2.937,0.909-4.05,0.85-6.361c1.31,0.144,2.02-0.983,2.967,0C387.956,469.08,389.679,472.091,387.408,473.714z
		 M389.529,474.572c0.536-0.589,1.995-0.589,2.54,0c-1.376,1.378,0.224,3.256-0.846,5.082c-0.566,0-1.13,0-1.693,0
		C388.266,477.487,390.418,476.837,389.529,474.572z M389.529,480.928c1.263-0.853,4.001-0.24,5.937-0.426
		C395.2,482.303,389.552,482.75,389.529,480.928z M393.769,479.654c-0.193-0.381-0.376-0.757-0.85-0.845
		c0.594-2.438,0.484-3.328,1.271-5.095c0.569,0,1.13,0,1.695,0C396.081,475.777,397.316,479.776,393.769,479.654z M396.306,473.296
		c-0.561,0-1.127,0-1.689,0c-0.841-0.837-0.272-2.425,0-3.39C396.729,469.424,397.252,472.046,396.306,473.296z M395.466,469.477
		c-1.673-1.292,0.062-4.045,2.116-2.542C397.306,468.222,396.917,469.381,395.466,469.477z M470.492,464.396
		c-2.559,3.078-7.203,2.854-10.595,4.658c-5.249,2.803-5.304,3.645-11.448,5.09c-14.621,3.432-32.347,8.253-50.868,7.208
		c-0.08-0.93,0.344-1.353,1.27-1.276c-0.286-0.837-1.291-0.962-1.696-1.695c1.382-3.744,1.281-7.552,1.696-11.871
		c1.311,0.069,2.397-0.999,3.39,0c0.165,4.866-1.903,7.379-1.266,11.026c1.579,0.442,0.67-1.594,2.114-1.276
		c-1.274-4,1.361-7.815,1.278-13.134c0.741-0.959,2.554-0.837,3.809-1.279c-0.326-1.082-2.735-0.093-2.54-1.695
		c1.743-2.062,8.083,0.453,9.745-1.692c-1.1-1.124-5.896,0.696-9.325,0c-0.242-1.657,0.365-2.462,0.85-3.395
		c2.794-0.408,4.907,0.986,6.357-0.413c-1.047-2.3-4.757,0.661-6.357-0.855c-0.104-3.299,3.932,0,4.661-2.124
		c0.345-1.612-2.004-0.533-2.967-0.848c15.335-3.093,32.457-4.834,48.749-8.476c3.171-1.529,7.264-4.271,11.022-3.811
		c-6.604,4.692-16.405,6.201-24.587,9.321c5.188,0.259,10.431-2.939,15.261-3.39c1.624-0.08,0.157,0.349,0.43,1.271
		c3.543-0.685,6.245-2.23,9.741-2.969c-4.261,3.086-10.727,3.962-15.679,6.358c1.499,1.988,4.674-0.714,6.359-1.271
		c1.454,1.079-1.816,0.978-1.699,2.121c3.058,0.413,4.742-2.468,7.209-1.276c-2.069,3.595-8.434,2.875-11.449,5.519
		c0.131,0.568,1.062,0.352,1.697,0.429c-1.303,1.937-5.006,1.484-6.361,3.384c2.821-0.575,4.771-2.02,7.633-2.55
		c-0.276-0.432-0.975-0.434-0.849-1.263c2.954,2.241,5.865-2.449,9.328-0.853c-1.547,4.386-9.44,2.433-11.02,6.782
		c3.934-0.48,7.371-3.589,11.02-2.966c-3.044,4.453-10.348,4.629-14.836,7.634c5.146-1.085,14.461-3.888,19.92-4.669
		c-4.501,3.976-11.636,5.321-17.382,8.061C458.433,468.422,464.98,464.001,470.492,464.396z M466.683,455.914
		c0.42,0,0.843,0,1.266,0c0.084,1.215,0.056,2.313-1.266,2.121C465.883,457.228,466.634,456.969,466.683,455.914z M469.649,457.185
		c-1.084-0.043-1.004-1.58-0.432-2.121c0.69-0.115,0.736,0.405,1.275,0.421C470.271,456.119,469.863,456.556,469.649,457.185z
		 M466.254,453.369c0.337-1.66,2.802-2.915,4.238-2.113C470.063,452.812,467.89,454.363,466.254,453.369z M474.732,445.74
		c-0.195,1.332-2.338,2.116-3.391,1.274C471.047,445.239,474.192,444.059,474.732,445.74z M474.732,448.703c0,0.709,0,1.42,0,2.121
		c-1.203,0.072-1.764,0.784-2.967,0.848C471.521,449.452,472.876,448.836,474.732,448.703z M472.184,464.396
		c0.021-1.402,1.207-1.623,2.547-1.703C474.719,464.095,473.525,464.313,472.184,464.396z M471.765,455.914
		c-0.468-2.217,2.173-2.918,3.391-2.119C474.928,455.405,473.349,455.658,471.765,455.914z M476.429,454.222
		c-0.129-1.687,0.811-2.295,2.542-2.124C479.029,453.71,477.864,454.099,476.429,454.222z M476.429,449.559
		c-0.618-2.14,1.729-2.726,2.542-2.121C479.466,449.457,477.21,450.124,476.429,449.559z M480.666,420.729c0.422,0,0.849,0,1.272,0
		c-0.281,1.551,0.921,1.625,0.85,2.971c-0.661,0.509-1.658,1.354-2.546,0.416C481.426,422.461,481.295,422.954,480.666,420.729z
		 M482.789,442.772c-0.375,0.624-0.633,1.34-1.7,1.279c-0.221-0.344-0.44-0.696-0.422-1.279
		C481.226,442.228,482.228,442.228,482.789,442.772z M480.666,452.098c0.225-0.341,0.442-0.687,0.422-1.274c0.566,0,1.132,0,1.7,0
		C482.981,452.154,481.88,452.186,480.666,452.098z M481.939,448.28c-0.749-0.099-0.966-0.727-0.85-1.692
		c0.378-0.322,0.961-0.456,1.7-0.424C483.155,447.515,482.118,447.475,481.939,448.28z M484.482,450.824
		c0.016-1.401,1.204-1.617,2.543-1.694C486.967,450.489,486.065,450.998,484.482,450.824z M484.482,446.587
		c-0.308-1.863,1.416-1.692,2.967-1.698C487.074,446.071,485.745,446.3,484.482,446.587z M484.482,419.032
		c1.882-0.187,3.155,0.234,2.967,2.118C485.836,421.076,484.661,420.553,484.482,419.032z M486.599,408.018
		c-0.104-2.113,1.667-3.845,2.971-2.126C488.927,406.95,488.115,407.829,486.599,408.018z M489.995,419.032
		c-3.45-2.033,1.299-5.916,2.539-2.113C492.406,418.339,491.12,418.605,489.995,419.032z M506.948,419.464
		c-0.596,1.796-0.792,4.005-1.274,5.932c-5.435-0.416-8.199,4.538-11.019,8.05C488.727,425.853,500.85,420.676,506.948,419.464z
		 M498.894,466.088c0.209-2.209,2.841-4.213,4.244-3.816C503.813,464.087,501.614,466.293,498.894,466.088z M498.048,472.025
		c-0.995-1.708,0.155-2.659,1.275-3.392C501.19,468.966,500.06,472.837,498.048,472.025z M496.776,477.106
		c0.853-1.687,1.702-3.384,4.242-3.392C500.758,475.838,498.585,477.914,496.776,477.106z M500.167,480.928
		c0.725-1.46-0.577-2.737,0.851-3.821C503.704,477.442,502.569,481.098,500.167,480.928z M502.288,482.62
		c0.933-1.977,2.987-4.314,5.509-3.382C507.681,482.025,504.863,483.606,502.288,482.62z M506.527,485.164
		c0.233-2.451,1.956-3.411,4.238-3.813C511.012,482.729,509.107,485.239,506.527,485.164z M510.342,486.856
		c-0.039-3.254,3.023-4.602,5.509-2.969C515.914,486.854,512.68,488.828,510.342,486.856z M516.701,488.978
		c-1.026-2.036,0.847-4.405,3.814-3.813C520.4,487.597,519.133,488.866,516.701,488.978z M521.362,489.828
		c-0.294-1.439,1.597-4.33,4.242-4.234C525.515,488.333,523.078,488.719,521.362,489.828z M530.689,488.978
		c-1.344,0.496-3.34,0.336-3.814,1.695c-1.797-1.506,1.619-6.625,3.814-4.232C530.689,487.283,530.689,488.13,530.689,488.978z
		 M533.23,490.257c-1.228-2.156,0.745-6.398,3.816-4.247C537.187,488.666,534.912,490.792,533.23,490.257z M536.624,494.064
		c-1.263-0.061-0.709-3.56,1.27-2.969C537.787,492.404,536.979,493.007,536.624,494.064z M541.287,491.522
		c-1.015-0.4-1.123-1.7-2.967-1.266c0.456-2.729,1.097-7.285,5.083-5.092C543.809,488.4,540.852,488.264,541.287,491.522z
		 M543.826,491.522c-0.117-1.109,0.16-1.823,1.275-1.695C545.216,490.934,544.947,491.648,543.826,491.522z M545.102,488.978
		c0.28-1.695,0.269-3.688,0.849-5.09c1.105,0.6,2.55,0.842,3.809,1.276C550.038,488.261,548.086,489.138,545.102,488.978z
		 M554.854,489.404c-0.711,0.557-1.42,1.119-2.969,0.853c-1.2-2.07,1.659-4.583-0.425-6.369c0.445-1.103,1.719-1.383,3.394-1.268
		C555.997,485.282,553.602,486.638,554.854,489.404z M558.666,485.593c-1.651-0.05-1.55-1.849-1.696-3.397
		c1.768,0.216,1.872-1.242,3.821-0.845C560.796,483.48,559.964,484.762,558.666,485.593z M535.351,484.312
		c-12.453,1.396-36.745-5.692-27.554-17.377c6.329,1.388,15.162,3.781,22.892,2.119c11.035-2.371,17.963-11.879,20.346-22.466
		c0.239-0.616,0.661-1.039,1.271-1.271c12.501,1.354,25.263,5.255,24.591,16.529c-0.344,5.759-9.248,13.635-16.107,16.964
		C553.943,482.116,543.496,483.411,535.351,484.312z M561.637,488.13c0.003-1.828-0.783-2.374,0.422-3.397
		c0.885-0.171,1.122,0.296,1.693,0.432C563.287,486.393,563.228,488.026,561.637,488.13z M566.3,485.164
		c0.293-0.839,1.126-1.135,2.116-1.276C568.611,485.212,567.51,485.247,566.3,485.164z M581.56,473.296
		c-1.547,0.272-0.528-2.02-1.698-2.121c-0.886-0.176-1.12,0.288-1.697,0.426c-0.513,2.065,0.686,2.422,1.697,2.971
		c-0.075,2.462-4.82,0.261-3.821,3.808c-1.836,0.424-3.778,0.741-3.385,3.395c-3.635,0.245-5.038-1.748-7.63-2.537
		c-1.033,1.069,1.708,2.902,0.425,4.229c-2.404,0.139-2.304-2.217-2.97-3.813c8.166-2.428,13.088-8.103,19.079-12.719
		c1.509,0.045,1.528,1.58,2.966,1.698c1.066,0.075,1.327-0.65,1.693-1.274c-0.221-1.897-2.444-1.791-3.811-2.539
		c0-0.424,0-0.85,0-1.271c0.701-0.711,2.488-0.344,3.811-0.423C588.74,467.463,586.057,472.382,581.56,473.296z M590.036,462.693
		c-1.911-0.485-3.491-1.306-5.511-1.69c0-0.424,0-0.853,0-1.274C586.74,458.781,590.754,459.338,590.036,462.693z"/>
	<radialGradient id="SVGID_34_" cx="398.1909" cy="380.247" r="139.9752" gradientUnits="userSpaceOnUse">
		<stop  offset="0" style="stop-color:#C1B65A"/>
		<stop  offset="0.5758" style="stop-color:#110F08"/>
	</radialGradient>
	<path fill-rule="evenodd" clip-rule="evenodd" fill="url(#SVGID_34_)" d="M271.255,235.905c0.449,0.396,0.129,1.561,1.272,1.27
		c5.501-10.039,14.122-16.958,18.652-27.975c-0.119-0.875-1.881-0.104-1.696-1.275c1.039-2.213,4.573-4.177,4.241-6.354
		c-9.016,11.332-17.457,23.239-25.014,36.031C270.204,237.675,270.107,236.17,271.255,235.905z M278.462,224.035
		c0.493-0.065,0.754,0.096,0.848,0.421c-1.895,3.471-3.811,6.929-6.782,9.33C273.883,229.91,276.569,227.366,278.462,224.035z"/>
	<radialGradient id="SVGID_35_" cx="398.1682" cy="380.2311" r="139.9558" gradientUnits="userSpaceOnUse">
		<stop  offset="0" style="stop-color:#C1B65A"/>
		<stop  offset="0.5758" style="stop-color:#110F08"/>
	</radialGradient>
	<path fill-rule="evenodd" clip-rule="evenodd" fill="url(#SVGID_35_)" d="M303.474,204.96c1.791-2.167,3.596-4.32,5.083-6.786
		C306.437,199.733,303.79,203.007,303.474,204.96z"/>
	<radialGradient id="SVGID_36_" cx="398.1682" cy="380.2576" r="139.9717" gradientUnits="userSpaceOnUse">
		<stop  offset="0" style="stop-color:#C1B65A"/>
		<stop  offset="0.5758" style="stop-color:#110F08"/>
	</radialGradient>
	<path fill-rule="evenodd" clip-rule="evenodd" fill="url(#SVGID_36_)" d="M301.776,238.028c1.919-7.413,7.469-11.188,10.6-17.386
		c-5.067,4.794-10.274,11.607-12.982,17.487C299.837,237.744,301.153,238.232,301.776,238.028z"/>
	<radialGradient id="SVGID_37_" cx="398.1857" cy="380.2631" r="139.9848" gradientUnits="userSpaceOnUse">
		<stop  offset="0" style="stop-color:#C1B65A"/>
		<stop  offset="0.5758" style="stop-color:#110F08"/>
	</radialGradient>
	<path fill-rule="evenodd" clip-rule="evenodd" fill="url(#SVGID_37_)" d="M303.474,260.07c-2.23,3.283-5.291,5.729-6.786,9.749
		C300.087,267.984,301.895,262.306,303.474,260.07z"/>
	<radialGradient id="SVGID_38_" cx="398.1857" cy="380.2977" r="140.0088" gradientUnits="userSpaceOnUse">
		<stop  offset="0" style="stop-color:#C1B65A"/>
		<stop  offset="0.5758" style="stop-color:#110F08"/>
	</radialGradient>
	<path fill-rule="evenodd" clip-rule="evenodd" fill="url(#SVGID_38_)" d="M300.508,272.786c2.973-1.404,4.902-6.11,5.504-8.477
		C304.311,267.269,301.408,269.025,300.508,272.786z"/>
	<radialGradient id="SVGID_39_" cx="398.1936" cy="380.2682" r="139.9938" gradientUnits="userSpaceOnUse">
		<stop  offset="0" style="stop-color:#C1B65A"/>
		<stop  offset="0.5758" style="stop-color:#110F08"/>
	</radialGradient>
	<path fill-rule="evenodd" clip-rule="evenodd" fill="url(#SVGID_39_)" d="M303.892,276.178c2.215-3.868,6.908-7.507,7.636-11.446
		C308.937,267.991,302.941,272.169,303.892,276.178z"/>
	<radialGradient id="SVGID_40_" cx="398.1789" cy="380.2549" r="139.982" gradientUnits="userSpaceOnUse">
		<stop  offset="0" style="stop-color:#C1B65A"/>
		<stop  offset="0.5758" style="stop-color:#110F08"/>
	</radialGradient>
	<path fill-rule="evenodd" clip-rule="evenodd" fill="url(#SVGID_40_)" d="M279.728,431.753c0.097-0.805-0.473-0.933-0.418-1.695
		c-5.357-2.132-8.907-8.33-13.99-9.329c9.719,8.655,21.039,17.957,33.493,22.474C291.904,439.928,286.339,435.321,279.728,431.753z"
		/>
	<radialGradient id="SVGID_41_" cx="398.1778" cy="380.2631" r="139.9733" gradientUnits="userSpaceOnUse">
		<stop  offset="0" style="stop-color:#C1B65A"/>
		<stop  offset="0.5758" style="stop-color:#110F08"/>
	</radialGradient>
	<path fill-rule="evenodd" clip-rule="evenodd" fill="url(#SVGID_41_)" d="M272.101,437.264c8.669,5.742,17.37,11.456,26.711,16.532
		c-9.979-6.982-20.551-13.366-29.678-21.195c-1.913,1.359-3.287-0.479-4.237,0.845c9.416,10.371,22.591,16.977,33.915,25.44
		c2.749-0.2,4.037,3.288,6.779,1.694C292.908,454.608,280.139,446.465,272.101,437.264z"/>
</g>
</svg>
