<?xml version="1.0" encoding="utf-8"?>
<!-- Generator: Adobe Illustrator 17.0.0, SVG Export Plug-In . SVG Version: 6.00 Build 0)  -->
<!DOCTYPE svg PUBLIC "-//W3C//DTD SVG 1.1//EN" "http://www.w3.org/Graphics/SVG/1.1/DTD/svg11.dtd">
<svg version="1.1" id="Layer_1" xmlns="http://www.w3.org/2000/svg" xmlns:xlink="http://www.w3.org/1999/xlink" x="0px" y="0px"
	 width="800px" height="600px" viewBox="0 0 800 600" enable-background="new 0 0 800 600" xml:space="preserve">
<g>
	<ellipse fill="#C6C6C6" cx="457.059" cy="483.27" rx="172.278" ry="24.883"/>
	<path fill="#849EC2" d="M624.212,226.941c-14.759-45.856-69.503-96.016-125.271-105.158c45.02-10.92,93.028,28.489,116.673,69.33
		c6.817,11.778,15.766-36.543-15.764-73.803c-27.22-32.168-61.643-49.758-116.079-53.024
		c-107.479-6.448-181.997,27.945-192.031,71.654c-4.787,20.868,24.613,62.603,25.795,40.125
		c0.717-13.615,7.577-26.572,27.574-34.572c13.597-5.437,35.448-1.655,34.767,5.911c-40.845-7.882-57.732,33.639-48.727,29.377
		c32.303-15.289,86.645-8.532,90.88,10.256c-22.301-7.478-43.554-8.353-75.54-2.651c-98.004,17.472-82.677,113.044-46.867,175.114
		c32.244,55.888,175.246,126.148,267.985,29.377c32.96-34.393,30.722-117.764,1.145-141.17c8.302-9.938,34.682,18.564,34.682,70.95
		C603.433,329.405,644.275,289.281,624.212,226.941z"/>
	<path fill="#6285B3" d="M547.955,127.521c27.715,12.235,52.62,37.613,67.659,63.592c6.817,11.778,15.766-36.543-15.764-73.803
		c-11.954-14.128-25.302-25.442-41.121-33.967C555.921,98.259,552.37,113.036,547.955,127.521z"/>
	<path fill="#6285B3" d="M624.212,226.941c-10.638-33.049-42.045-68.329-79.637-88.883c-6.062,17.948-13.511,35.378-22.578,51.984
		c-28.457,52.103-74.257,94.194-133.889,105.734c-36.071,6.979-74.115,4.022-109.798-3.936c-1.381-0.308-2.766-0.649-4.149-0.976
		c3.995,23.852,13.602,48.08,25.46,68.637c32.244,55.888,175.246,126.148,267.985,29.377c32.96-34.393,30.722-117.764,1.145-141.17
		c8.302-9.938,34.682,18.564,34.682,70.95C603.433,329.405,644.275,289.281,624.212,226.941z"/>
	<path d="M585.144,474.901c-14.679-1.092-24.155-9.863-34.538-19.518c-9.431-8.771-20.81-17.185-33.133-21.621
		c2.468-5.551,5.115-21.54,3.049-46.401c-1.298-15.649-3.084-30.985-6.764-46.32c-7.3-30.402-21.852-59.832-36.668-86.698
		c-9.707-17.598-26.977-33.327-48.282-38.314c-13.982-3.271-29.616-0.825-39.929,8.648c0.752-19.238-13.426-35.005-25.244-50.328
		c-5.143-14.364-13.901-30.316-23.687-26.092c-5.318-10.49-20.806-14.009-32.723-14.167c-13.727-0.181-26.481,0.453-35.281,11.76
		c-1.323,1.698-3.297,3.604-4.235,4.391c-3.137-2.472-8.427-1.908-15.304,1.89c-11.064,6.11-20.979,26.099-25.51,39.533
		c-4.294,5.062-9.005,11.276-13.028,16.616c-15.119,20.08-20.509,40.14-4.43,61.377c5.414,7.148,12.04,13.169,19.242,18.582
		c4.178,16.635,3.463,31.228-0.484,48.722c-1.732,7.675-1.669,20.309,7.583,24.068c9.868,4.008,20.7-1.94,27.453-10.787
		c5.73-7.51,10.335-22.836,9.149-34.128c12.884,8.3,33.63,20.299,47.797,12.74c-1.132,17.066,4.728,31.25,11.844,38.363
		c-1.784,3.618-3.823,7.241-5.121,11.052c-4.969,1.073-8.881,4.114-11.244,8.894c-3.223,6.524-3.038,14.933-3.713,21.996
		c-0.772,8.105-1.63,18.73,3.821,25.858c5.439,7.116,16.55,9.118,23.223,7.014c-0.496,2.461-1.336,5.242-1.948,6.605
		c-6.892-0.016-17.822-0.728-24.06,2.553c-3.981,2.097-2.18,4.888-4.421,11.102c-1.334,3.701-3.082,9.459-5.137,15.832
		c-1.309,4.053,10.588,5.962,15.063,4.993c0.02,2.321,2.625,3.698,5.603,4.236c2.979,0.539,10.916,0.327,15.005-0.697
		c0.031,1.444,1.056,3.585,4.722,4.318c5.654,1.129,18.297,1.644,24.364,0c2.134-0.579,4.224-0.944,4.988-2.957
		c0.894-2.341,0.88-6.355,0.049-13.492c-0.62-5.328-1.439-10.606-3.29-13.785c-1.85-3.179-5.333-6.348-9.664-8.214
		c2.878-12.747,2.504-61.632,1.03-75.56c14.12,5.655,30.933-3.286,42.236-11.089c8.963-6.19,18.068-11.872,28.901-14.315
		c11.063-2.497,16.455,5.15,18.022,11.977c-7.793,5.069-13.027,13.405-11.523,23.62c-4.952-1.538-12.286-1.158-16.973-0.178
		c-9.298,1.943-15.706,8.785-14.546,18.479c1.362,11.362,13.492,18.612,22.194,24.073c5.953,3.734,12.148,7.278,17.792,11.456
		c5.892,4.364,13.427,9.843,17.681,14.009c-1.453-0.092-3.456-0.091-5.582-0.531c-10.873-2.265-36.244-7.711-39.71-7.356
		c-1.696,0.175-3.369,0.709-4.557,1.542c-6.385-2.954-12.898-3.934-19.988-4.288c-5.827-0.291-13.377-0.177-14.707,3.366
		c-1.99,5.316-4.653,14.539-1.682,19.137c1.801,2.796,6.112,3.544,8.823,3.37c1.571,3.145,6.457,5.829,9.182,5.658
		c0.777,2.49,2.994,3.112,5.14,3.362c0.52,5.685,4.773,9.14,15.669,8.432c3.719,2.659,11.342,4.164,14.286,1.72
		c3.527,5.456,14.829,6.053,19.474,2.18c4.718-3.939,2.304-14.887,0.142-23.446c4.917,0.806,10.051,0.918,14.942,1.605
		c9.163,1.289,18.735,2.6,27.798,4.449c10.432,2.133,22.043,4.916,32.712,7.303c5.94,1.327,11.793-7.863,7.021-17.412
		c10.086-0.828,17.116,22.342,40.757,28.623c9.605,2.554,22.364,3.481,32.214,3.878c10.44,0.423,18.182,1.55,27.275,6.534
		C636.097,487.294,620.691,477.547,585.144,474.901z"/>
	<path fill="#BD9274" d="M240.398,170.139c6.609-11.153,15.957-21.245,25.35-17.737c-8.637,5.557-21.383,19.343-32.053,32.94
		C234.073,183.357,235.866,177.787,240.398,170.139z"/>
	<path fill="#9F7458" d="M237.603,175.287c-2.482,4.957-3.622,8.554-3.907,10.055c10.67-13.598,23.416-27.383,32.053-32.94
		c-0.974-0.363-1.945-0.548-2.913-0.632C254.18,159.339,245.991,167.418,237.603,175.287z"/>
	<path fill="#BD9274" d="M259.946,345.566c-5.452,9.92-29.132,17.282-27.829-0.006c0.882-11.678,4.75-22.466,4.633-34.332
		c-0.063-6.393-1.09-13.256-3.334-19.552c10.826,7.532,22.609,13.984,33.464,20.889
		C267.235,324.023,265.747,335.006,259.946,345.566z"/>
	<path fill="#9F7458" d="M260.491,322.273c1.879,1.984,3.657,4.035,5.39,6.115c0.899-5.175,1.164-10.444,0.998-15.822
		c-10.855-6.905-22.638-13.357-33.464-20.889c1.206,3.381,2.048,6.926,2.592,10.476
		C245.333,307.349,254.095,315.515,260.491,322.273z"/>
	<path fill="#BD9274" d="M310.008,316.135c-0.501-0.403-0.889,3.383,5.912,7.009c-6.715,2.788-15.985,0.051-21.845-2.288
		c-10.496-4.188-19.788-11.373-29.348-17.283c-18.486-11.428-38.505-22.036-51.806-39.762c-16.29-21.702,0.157-44.216,13.852-62.195
		c6.827-8.961,12.941-18.667,20.372-27.119c8.493-9.66,23.217-22.71,27.247-27.68c5.664-6.986,19.786-9.217,30.379-9.281
		c12.97-0.079,28.915,6.732,31.958,12.842c-2.761,2.387-3.745,10.12-2.382,8.431c12.181-15.107,19.355,4.246,23.231,15.464
		c4.369,12.653,6.278,25.219,8.364,38.384c3.463,21.814,8.731,42.569,16.445,63.26c8.366,22.446,13.8,44.501-0.125,65.835
		c-6.393,9.794-18.26,17.658-30.08,17.969c-12.922,0.336-15.249-8.671-11.981-18.764c2.47-7.626,5.92-14.72,8.001-22.511
		c2.56-9.582,3.325-19.405,3.384-29.286c0.127-21.289-2.955-42.488-3.079-63.794c-0.118-20.087-0.378-32.947-4.344-53.06
		c-1.233-6.25-4.279-7.798-4.119-7.037c5.84,27.871,3.049,55.688,4.272,83.919c0.713,16.434,2.117,33.04,0.614,49.317
		c-1.978,3.433-6.548,5.895-9.453,5.952c-1.577-8.405-5.884-11.922-11.683-13.767c-2.836-0.902-4.643,0.717-3.671,1.119
		c7.274,3.012,13.39,13.569,7.578,22.205C323.983,319.538,315.064,320.199,310.008,316.135z"/>
	<path fill="#9F7458" d="M247.595,185.901c9.379-0.324,17.75-4.573,24.057-11.369c6.152-6.631,15.797-18.668,5.217-25.882
		c-3.463,6.676-9.66,13.519-14.909,18.492c-3.831,3.63-8.001,7.157-11.435,11.173C250.196,178.7,243.296,186.049,247.595,185.901z"
		/>
	<path fill="#9F7458" d="M298.069,144.322c-7.431,5.943-1.159,17.436,4.415,22.549c2.387,2.188,23.258,17.604,23.906,7.777
		c-4.358-3.5-8.386-7.278-12.82-11.25C307.749,158.183,301.999,151.25,298.069,144.322z"/>
	<path fill="#9F7458" d="M267.499,222.795c-8.839,1.411-17.575,3.204-26.323,5.084c-4.543,0.978-12.848,1.615-18.148,4.03
		c0.255,0.491,0.271,1.099-0.138,1.72c-5.771,8.786,6.222,21.709,13.138,24.876c8.665,3.966,18.53,5.214,28.005,4.484
		c14.618-1.128,47.443-5.853,51.75-23.357C322.481,212.401,281.647,220.537,267.499,222.795z"/>
	<path fill="#9F7458" d="M343.138,300.758c-2.05-4.718-6.097-7.178-10.997-8.65c-2.036-0.611-3.981-0.658-5.91-0.485
		c4.559,2.052,7.899,5.657,9.246,12.836C337.696,304.416,340.875,302.965,343.138,300.758z"/>
	<path fill="#9F7458" d="M309.82,317.001c-1.302,1.145-2.382,4.488-2.564,5.663c-0.083,0.539-0.102,1.054-0.089,1.558
		c3.071,0.255,6.111,0.021,8.753-1.077C311.417,320.744,310.072,318.28,309.82,317.001z"/>
	<path fill="#9F7458" d="M249.197,191.351c-5.043,8.449-0.086,17.899,10.447,17.911c9.779,0.008,14.535-5.264,16.262-14.47
		c0.421-2.248,3.638-1.536,3.776,0.512c0.648,9.498,5.871,14.724,15.478,15.399c5.976,0.423,12.925,0.503,18.188-2.863
		c5.494-3.512,16.11-17.634,7.924-24.137c-4.805-3.817-12.334-2.249-17.763-0.931C287.458,186.667,265.669,200.104,249.197,191.351z
		"/>
	<path fill="#BD9274" d="M335.162,370.593c2.596,2.363,7.116,4.212,10.612,5.24c0.102,0.925,0.102,1.85-0.194,2.482
		c-5.14-1.192-12.244-0.632-15.534-0.426C330.93,375.119,333.336,372.133,335.162,370.593z"/>
	<path fill="#BD9274" d="M337.652,437.511c-14.095,2.168-21.505-4.182-22.458-17.818c-0.619-8.833,0.699-18.982,2.808-27.576
		c2.86-11.642,16.37-12.435,26.124-10.794c5.863,0.986,5.023,11.546,4.012,15.172c-1.751,6.272-12.472,2.848-16.554,1.129
		c-1.951-0.821,2.16,3.598,4.011,5.036c2.177,1.693,5.527,2.69,9.833,2.642c2.194,5.685,1.726,12.974-1.095,17.199
		c-2.996,4.488-11.282,0.458-15.524-2.777c-2.157-1.644,1.646,7.608,11.58,9.924C341.661,433.091,340.325,437.098,337.652,437.511z"
		/>
	<path fill="#BD9274" d="M443.076,432.646c-6.358-4.763-13.741-8.548-20.16-13.249c-7.921-5.805-16.366-16.999-5.296-24.529
		c7.395-5.031,17.416-4.286,22.783-2.257c4.412,11.415,16.397,21.711,23.526,30.378c8.916,10.838,20.384,22.526,29.323,30.852
		c-7.444,0.445-18.81,1.045-23.659,1.154C462.278,446.266,452.123,439.428,443.076,432.646z"/>
	<path fill="#BD9274" d="M402.771,475.019c-0.973,0.354-2.922-0.265-3.101-1.24c-0.177-0.974,1.151-13.381,2.523-17.076
		c0.373-1.003-2.612,0.063-3.676,4.403c-0.443,1.804-1.431,9.046-1.593,10.9c-8.083-0.736-7.267-7.531-6.454-18.452
		c0.061-0.81-0.949-0.049-1.699,1.796c-1.153,2.834-2.269,6.758-1.417,11.25c-4.341,0.445-7.249-2.222-6.91-7.353
		c0.194-2.94,1.572-10.962,4.872-11.341c10.1-1.15,19.668,1.151,26.846,3.72C406.773,456.73,402.876,474.385,402.771,475.019z"/>
	<path fill="#9F7458" d="M345.774,375.833c-2.784-0.821-6.188-2.178-8.781-3.885c-1.478,1.723-2.727,3.48-3.328,5.731
		c3.572-0.169,8.236-0.217,11.915,0.636C345.876,377.684,345.876,376.759,345.774,375.833z"/>
	<path fill="#9F7458" d="M340.855,432.57c0.023-0.958-0.11-1.959-0.465-2.921c-6.36-1.483-10.195-5.8-11.573-8.29
		C328.539,428.141,334.417,432.028,340.855,432.57z"/>
	<path fill="#9F7458" d="M332.822,400.025c0.921,2.584,1.911,5.304,3.912,6.943c2.531,2.071,6.441,3.032,9.705,2.11
		c-0.229-1.297-0.546-2.577-1.01-3.776c-4.307,0.048-7.657-0.949-9.833-2.642C334.855,402.086,333.754,401.031,332.822,400.025z"/>
	<path fill="#9F7458" d="M468.461,433.043c5.992,5.055,15.282,12.657,16.176,21.283c3.052-0.162,6.065-0.333,8.615-0.485
		c-8.939-8.325-20.408-20.014-29.323-30.852c-7.129-8.667-19.114-18.963-23.526-30.378c-1.807-0.683-4.147-1.212-6.731-1.434
		C440.891,408.898,453.998,420.845,468.461,433.043z"/>
	<path fill="#9F7458" d="M400.953,456.862c-4.905-2.315-6.632,7.656-6.488,14.639c0.714,0.246,1.521,0.418,2.46,0.504
		c0.161-1.854,1.15-9.096,1.593-10.9C399.063,458.884,400.109,457.528,400.953,456.862z"/>
	<path fill="#9F7458" d="M400.494,474.702c0.7,0.379,1.674,0.534,2.277,0.316c0.105-0.634,4.001-18.289,9.392-23.393
		c-0.619-0.219-1.278-0.435-1.929-0.651C403.794,457.16,401.377,465.863,400.494,474.702z"/>
	<path fill="#9F7458" d="M389.574,453.87c-1.879,0.337-3.505,1.943-4.683,3.796c-0.652,2.582-0.26,5.768,0.334,8.853
		c0.661,0.117,1.367,0.16,2.13,0.08c-0.852-4.492,0.265-8.416,1.417-11.25C389.029,454.721,389.314,454.228,389.574,453.87z"/>
	<path fill="#BD9274" d="M594.138,491.387c-9.572-0.459-22.213-3.326-30.419-8.264c-11.569-6.961-18.448-23.527-33.472-24.93
		c-4.297-6.779-13.645-7.803-20.851-15.603c-2.996-3.242-5.715-3.975-5.333-3.377c2.23,3.498,4.991,7.249,8.129,9.699
		c3.138,2.449,11.645,8.763,16.607,14.499c4.52,5.228,1.63,12.95-3.109,12.405c-3.221-0.373-8.491-2.006-11.661-2.667
		c-10.746-2.244-21.466-4.621-32.274-6.568c-12.037-2.164-38.759-4.404-40.831-4.673c-2.084-0.269,2.612,3.364,5.713,4.072
		c1.657,2.712,4.589,17.866,2.568,21.443c-2.379,4.217-12.136,3.456-15.504-1.505c-1.518-2.238,0.352-14.178,1.148-19.318
		c0.216-1.392-2.304-0.354-3.278,1.861c-2.532,5.766-3.455,13.824-1.652,17.717c-4.905,1.333-9.931-1.447-10.556-4.958
		c-0.952-5.345,0.271-11.583,1.399-16.745c0.249-1.135-1.796-0.011-2.658,2.125c-2.216,5.494-2.393,11.078-2.216,16.748
		c-3.068,0.188-10.468,0.006-9.567-5.583c0.778-4.828,3.629-22.747,11.876-27.29c4.343-2.393,28.011,4.651,41.672,7.04
		c6.134,1.074,12.27,0.949,18.474,0.813c6.828-0.149,13.918,0.391,20.68-0.296c5.221,4.583,10.153,5.171,9.384,4.139
		c-7.943-10.656-20.628-20.787-29.652-30.595c-8.339-9.064-16.018-18.724-24.036-28.066c-9.769-11.381-13.871-24.967-0.294-35.089
		c8.404-6.267,20.45-5.869,29.907-2.093c2.957,6.405,8.283,18.255,10.363,24.028c1.531,4.259-0.684-9.881-7.668-28.278
		c-7.506-19.769-21.505-34.52-43.78-27.597c-3.447,1.07-4.174,2.85-3.55,2.634c22.282-7.687,33.895,7.364,42.452,24.634
		c-8.424-5.002-19.537-4.489-28.424-0.091c1.015-12.965-14.958-19.913-26.996-14.899c-9.799,4.08-18.854,11.623-27.958,17.068
		c-12.435,7.437-23.663,10.716-37.951,9.746c-0.763-3.805-2.821-5.532-2.821-4.319c0,15.831,0.279,29.368,0,43.792
		c-0.205,10.69-0.664,18.111-1.336,24.77c-1.099,10.897-1.543,14.605-1.895,18.001c3.437,0.817,8.679,2.874,10.941,6.575
		c2.262,3.701,4.467,21.544,3.29,22.719c-1.748,1.748-13.817,2.872-21.877,1.361c-8.645-1.619-3.55-13.545-4.131-19.761
		c-0.305-3.29-2.136-5.408-2.258-4.318c-0.554,4.911-4.045,13.702-3.203,19.842c-5.635,1.128-12.627,0.597-14.474-1.544
		c-1.312-1.521-0.275-13.191,0.595-18.185c0.432-2.479-5.531,4.41-6.148,16.438c-3.648,0.619-10.388-0.941-9.765-3.39
		c0.626-2.451,5.348-15.113,5.757-19.946c0.259-3.085,13.98-3.287,21.999-2.26c7.798,0.999,13.277-2.243,12.333-2.467
		c-1.456-0.345-5.01-1.171-6.679-1.505c0.922-2.515,1.848-5.188,2.031-9.265c1.904-2.377,2.453-6.079,0.719-11.357
		c1.702-0.926,3.074-2.47,4.102-4.298c1.809-3.214,2.213-7.604,2.202-11.241c-0.008-2.685-0.194-6.314-1.297-9.169
		c4.474-3.647,4.681-21.635,0.489-24.153c0.285-8.174-2.593-13.62-2.697-11.977c-0.052,0.846-0.072,2.075-0.237,2.913
		c-17.548-6.1-24.641-30.156-20.558-46.744c5.885-1.405,10.192-8.261,10.157-15.216c2.307,0.11,5.572-0.779,7.862-2.431
		c-1.131,7.148-2.919,14.221-5.735,21.164c-5.281,13.028-12.195,30.867,5.221,37.433c18.812,7.095,41.329-10.896,49.311-27.972
		c10.335-22.103,1.951-43.972-6.186-65.251c-9.965-26.048-16.9-72.998-20.713-87.208c14.787,17.56,18.517,37.567,16.519,50.715
		c-0.471,3.123,1.349,7.647,2.542,5.084c11.555-24.839,35.166-21.93,50.375-16.338c24.418,8.977,37.558,29.407,48.055,51.865
		c11.151,23.853,23.548,49.941,28.272,72.16c2.786,13.101,4.217,23.422,5.143,38.843c0.62,10.324,0.957,26.715,0.633,33.403
		c-0.323,6.688-2.507,13.49-5.083,18.338c-0.28,0.531,2.385,0.97,3.65-1.966c11.573,4.794,24.736,13.804,36.097,24.093
		c6.704,6.07,13.152,12.775,21.946,15.377c10.848,3.209,24.591,3.184,35.71,6.282c13.061,3.638,20.83,8.762,19.839,14.713
		C622.077,493.373,607.861,492.05,594.138,491.387z"/>
	<path fill="#9F7458" d="M343.409,365.038c-0.814-0.306-1.561-0.646-2.274-1.001c4.766,3.383,11.476,5.067,17.051,4.879
		c0.058-0.022,0.118-0.033,0.199-0.004c1.392-0.057,2.717-0.224,3.909-0.522c9.525-2.373,18.763-5.679,25.963-12.669
		c15.183-14.745,18.176-34.994,13.473-55.143c-4.7-20.121-14.081-38.645-19.686-58.499c-4.871-17.268-10.422-34.469-12.313-52.374
		c-1.215-1.715-2.498-3.419-3.91-5.098c3.813,14.21,10.748,61.16,20.713,87.208c8.137,21.279,16.521,43.148,6.186,65.251
		C384.738,354.142,362.221,372.133,343.409,365.038z"/>
	<path fill="#9F7458" d="M313.384,475.26c-0.2,1.159-0.382,2.354-0.523,3.563c1.626,0.282,3.334,0.344,4.644,0.122
		c0.398-7.752,3.008-13.346,4.708-15.698C316.38,464.183,314.407,469.353,313.384,475.26z"/>
	<path fill="#9F7458" d="M340.61,463.142c-4.203-0.229-5.926,13.15-6.051,15.158c-0.092,1.474-0.135,2.932-0.125,4.38
		c1.051-0.095,2.095-0.241,3.098-0.443C336.73,476.381,339.838,468.153,340.61,463.142z"/>
	<path fill="#9F7458" d="M342.858,443.257c4.122-0.167,5.416-6.852,5.63-13.325c6.581-3.235,7.01-19.628,4.208-24.265
		c3.236-4.745,7.321-17.102-1.347-22.718c1.986,5.982,1.153,18.168-2.443,21.099c1.103,2.855,1.289,6.484,1.297,9.169
		c0.011,3.636-0.393,8.027-2.202,11.241c-1.027,1.828-2.399,3.372-4.102,4.298c1.734,5.278,1.186,8.98-0.719,11.357
		C343.127,441.266,343.011,442.299,342.858,443.257z"/>
	<path fill="#9F7458" d="M487.311,321.663c-4.606,6.648-13.478,9.299-21.371,8.923c4.246,2.764,8.676,5.04,13.984,3.462
		c4.242-1.261,8.148-3.676,10.118-7.818c0.713-1.499,1.203-3.032,1.508-4.573c-0.086-2.615-0.547-5.08-1.207-7.498
		C489.778,316.947,488.755,319.577,487.311,321.663z"/>
	<path fill="#9F7458" d="M476.217,365.512c1.6,1.764,3.143,3.614,4.607,5.522c4.463,5.212,8.978,10.349,12.63,16.1
		c-2.498-6.235-6.642-15.432-9.122-20.806c-2.944-1.176-6.141-2.012-9.398-2.434C475.358,364.438,475.785,364.977,476.217,365.512z"
		/>
	<path fill="#9F7458" d="M426.867,486.47c0.997,0.05,2.025-0.014,3.054-0.293c-1.803-3.893-0.88-11.951,1.652-17.717
		c0.34-0.769,0.868-1.386,1.4-1.821C427.139,464.698,426.303,477.842,426.867,486.47z"/>
	<path fill="#9F7458" d="M559.837,475.891c-6.246-6.234-12.941-12.538-20.691-16.864c-4.44-2.478-9.609-4.276-14.724-6.22
		c2.332,1.46,4.371,3.091,5.826,5.385c15.023,1.403,21.903,17.969,33.472,24.93c1.381,0.83,2.919,1.579,4.515,2.291
		C565.346,482.311,562.765,478.818,559.837,475.891z"/>
	<path fill="#9F7458" d="M611.616,490.947c-2.589,0.193-5.156,0.592-7.699,1.051c9.976,0.797,19.266,2.189,24.998,4.897
		C624.059,492.932,618.394,490.449,611.616,490.947z"/>
	<path fill="#9F7458" d="M499.024,458.031c-2.598,0.263-5.248,0.346-7.912,0.357c4.946,3.412,10.969,7.212,14.895,3.831
		C504.216,461.638,501.658,460.343,499.024,458.031z"/>
	<path fill="#9F7458" d="M418.882,465.265c-4.116,0.913-5.459,10.803-5.406,18.099c0.918,0.041,1.766,0.024,2.415-0.017
		c-0.177-5.669,0-11.254,2.216-16.748C418.311,466.091,418.587,465.643,418.882,465.265z"/>
	<path fill="#9F7458" d="M488.419,346.935c2.369,2.516,8.023,3.141,10.432,0.477c1.506-1.669,2.103-3.917,2.161-6.134
		c0.075-2.874-0.326-5.704-1.063-8.459c-0.323,2.918-0.894,5.936-2.473,8.185C495.214,344.229,491.923,346.22,488.419,346.935z"/>
	<path fill="#9F7458" d="M478.098,340.243c5.17,4.987,15.214,4.076,17.197-3.842c0.601-2.403,2.38-9.328,1.164-12.689
		C494.254,333.068,488.469,340.68,478.098,340.243z"/>
	<path fill="#9F7458" d="M440.523,345.79c7.669,1.875,13.844,7.659,13.202,15.869c8.269-4.091,18.461-4.816,26.625-0.868
		c-4.418-7.842-13.495-14.34-22.052-16.437C452.23,342.87,446.197,343.697,440.523,345.79z"/>
	<path fill="#9F7458" d="M339.989,322.714c1.804-5.364,3.068-10.795,3.934-16.274c-2.29,1.651-5.555,2.54-7.862,2.431
		c0.034,6.955-4.272,13.811-10.157,15.216c-0.362,1.471-0.63,3.004-0.816,4.572C329.679,325.361,334.57,323.263,339.989,322.714z"/>
	<path d="M489.372,308.679c-0.406-0.792-1.646-0.543-1.541,0.405c0.747,6.742-0.641,12.951-6.26,16.709
		c-4.426,2.96-10.333,4.731-15.794,4.687c-0.711-0.005,0.128,1.558,3.018,1.955c4.941,0.683,11.193-0.086,17.064-4.826
		C491.717,322.88,492.606,314.977,489.372,308.679z"/>
	<path d="M496.852,323.278c-0.111-0.634-1.175-0.556-1.265,0.101c-0.639,4.65-1.627,8.979-5.444,12.093
		c-3.43,2.795-7.964,4.734-12.458,4.08c-0.711-0.105-0.885,0.837-0.23,1.066c5.011,1.747,9.996,1.099,14.339-2.05
		C496.315,335.295,497.926,329.372,496.852,323.278z"/>
	<path d="M500.482,332.096c-0.064-1.879-1.192-2.515-1.192-1.701c0,8.346-2.045,14.819-12.265,16.183
		c-0.827,0.108,1.193,1.207,2.896,1.021C499.29,346.577,500.822,341.977,500.482,332.096z"/>
	<path d="M417.441,72.372c-3.489,1.904-17.333,9.477-23.156,13.323c-4.279,2.827-10.231,8.783-6.322,13.957
		c2.515,3.33,8.333,0.825,12.983-3.014C408.242,90.612,414.746,78.874,417.441,72.372z"/>
	<path fill="#D7E3F0" d="M396.029,96.956c-3.626,2.365-8.009,3.322-6.502-2.063c1.593-5.693,8.042-8.945,12.688-11.894
		c2.974-1.887,8.935-4.894,11.736-6.979C409.668,83.633,403.324,92.197,396.029,96.956z"/>
	<path d="M395.553,130.737c-4.214,4.947-7.166,12.047-3.45,15.835c3.29,3.355,8.842-1.719,12.491-5.842
		c4.512-5.102,8.087-14.434,9.514-23.316C409.826,119.318,400.372,125.082,395.553,130.737z"/>
	<path fill="#D7E3F0" d="M393.655,143.669c-3.339-6.588,8.399-17.531,17.44-22.448C409.667,130.896,396.994,150.256,393.655,143.669
		z"/>
	<path d="M451.481,101.585c-3.117,5.044-2.34,12.757,3.599,11.464c8.35-1.819,15.965-16.886,19.77-30.844
		C469.933,85.219,456.673,93.183,451.481,101.585z"/>
	<path fill="#D7E3F0" d="M459.943,107.582c-3.912,3.533-7.932,3.909-7.932,0.159c0-6.821,11.262-16.178,19.35-20.936
		C468.601,94.965,464.858,103.14,459.943,107.582z"/>
	<path d="M434.293,165.963c-2.316,3.467-5.027,12.002-0.305,14.76c3.733,2.182,8.444-5.123,9.957-7.355
		c5.146-7.592,6.645-15.824,7.913-23.596C446.149,153.261,438.728,159.327,434.293,165.963z"/>
	<path fill="#D7E3F0" d="M438.694,176.575c-3.477,3.545-6.185-0.792-4.758-4.917c1.821-5.263,8.089-13.481,15.761-18.538
		C448.054,159.922,445.01,170.135,438.694,176.575z"/>
	<path d="M486.35,146.92c-2.083,2.803-5.359,10.35-1.767,13.194c2.965,2.344,7.083-1.302,9.619-4.95
		c4.244-6.099,7.494-14.003,8.541-21.315C498.169,136.766,490.238,141.682,486.35,146.92z"/>
	<path fill="#D7E3F0" d="M486.132,157.953c-1.699-1.661-0.971-5.326,1.251-8.975c2.221-3.648,7.772-9.039,13.482-12.529
		C498.645,145.33,489.446,161.191,486.132,157.953z"/>
	<path d="M496.427,186.566c-7.613,5.235-22.819,18.191-16.972,26.962c2.221,3.332,6.504-0.475,8.565-4.282
		C491.203,203.372,494.365,192.117,496.427,186.566z"/>
	<path fill="#D7E3F0" d="M486.117,208.771c-2.13,3.858-4.918,5.076-5.915,1.86c-2.344-7.56,8.472-16.554,13.738-20.988
		C491.51,196.717,488.655,204.172,486.117,208.771z"/>
	<path d="M345.121,90.927c-4.6,2.062-13.711,7.828-18.24,13.006c-3.331,3.806-5.393,8.723-2.488,11.416
		c2.559,2.373,6.772,0.003,9.785-3.01C339.306,107.211,343.06,98.857,345.121,90.927z"/>
	<path fill="#D7E3F0" d="M325.772,113.291c-2.697-2.855,4.968-12.342,16.334-18.557
		C337.192,108.374,328.467,116.146,325.772,113.291z"/>
	<path d="M546.137,127.382c-4.299,3.845-10.468,7.518-14.162,12.09c-2.346,2.901-4.1,9.09-1.486,11.273
		c2.564,2.142,6.128-1.547,7.282-3.165C542.658,140.715,543.902,133.593,546.137,127.382z"/>
	<path fill="#D7E3F0" d="M531.511,147.713c-1.809-6.844,7.523-13.192,13.052-18.095c-1.574,4.223-3.492,9.249-5.713,13.333
		C538.04,144.436,532.638,151.978,531.511,147.713z"/>
	<path d="M546.755,285.282c-4.299,3.845-10.468,7.519-14.162,12.091c-2.346,2.901-4.103,9.09-1.486,11.274
		c2.562,2.141,6.128-1.549,7.282-3.167C543.277,298.616,544.519,291.493,546.755,285.282z"/>
	<path fill="#D7E3F0" d="M532.128,305.613c-1.809-6.845,7.525-13.192,13.052-18.095c-1.574,4.225-3.492,9.249-5.713,13.332
		C538.658,302.336,533.256,309.877,532.128,305.613z"/>
	<path d="M594.023,272.373c-4.299,3.846-10.469,7.517-14.162,12.091c-2.344,2.9-4.102,9.089-1.486,11.272
		c2.564,2.143,6.13-1.547,7.281-3.166C590.543,285.705,591.788,278.581,594.023,272.373z"/>
	<path fill="#D7E3F0" d="M579.397,292.704c-1.809-6.845,7.525-13.193,13.052-18.095c-1.574,4.223-3.494,9.248-5.713,13.331
		C585.927,289.426,580.525,296.968,579.397,292.704z"/>
	<path d="M581.729,117.705c-3.059,2.734-7.447,5.347-10.073,8.6c-1.669,2.063-2.919,6.466-1.059,8.018
		c1.821,1.524,4.36-1.1,5.181-2.251C579.254,127.189,580.138,122.121,581.729,117.705z"/>
	<path fill="#D7E3F0" d="M571.325,132.166c-1.287-4.869,5.351-9.384,9.282-12.87c-1.12,3.003-2.484,6.578-4.064,9.483
		C575.969,129.835,572.127,135.2,571.325,132.166z"/>
	<path d="M521.704,198.331c-1.936,2.793-3.408,10.133,0.831,11.875c3.195,1.314,5.77-1.593,7.672-5.401
		c2.559-5.123,5.232-12.846,7.295-19.667C533.697,187.517,525.132,193.387,521.704,198.331z"/>
	<path fill="#D7E3F0" d="M526.559,207.026c-2.714,2.972-4.917,0.316-4.758-3.647c0.103-2.569,2.288-5.506,3.965-7.296
		c2.833-3.024,6.662-6.185,10.151-8.723C533.163,193.927,529.89,203.378,526.559,207.026z"/>
	<path d="M519.234,233.171c-6.892,4.564-20.384,12.786-15.335,20.123c2.529,3.673,6.402,0.173,8.314-2.702
		C515.615,245.48,518.339,236.708,519.234,233.171z"/>
	<path fill="#D7E3F0" d="M514.101,243.088c-0.994,2.136-2.257,4.279-3.663,6.182c-0.625,0.851-1.372,1.596-2.16,2.295
		c-1.776,1.578-3.107-0.901-2.994-2.499c0.268-3.882,4.91-7.588,7.572-9.884c1.409-1.214,2.878-2.363,4.357-3.503
		C516.237,238.18,515.227,240.667,514.101,243.088z"/>
	<path d="M578.57,159.739c-6.895,4.564-20.386,12.786-15.337,20.122c2.528,3.673,6.401,0.172,8.314-2.702
		C574.948,172.048,577.673,163.275,578.57,159.739z"/>
	<path fill="#D7E3F0" d="M573.433,169.656c-0.994,2.136-2.257,4.279-3.66,6.181c-0.628,0.85-1.374,1.595-2.163,2.295
		c-1.776,1.579-3.106-0.902-2.994-2.499c0.271-3.881,4.911-7.588,7.574-9.884c1.408-1.214,2.877-2.366,4.358-3.504
		C575.571,164.748,574.559,167.234,573.433,169.656z"/>
	<path d="M506.017,96.429c-6.892,4.564-20.384,12.786-15.335,20.123c2.526,3.672,6.402,0.171,8.314-2.703
		C502.396,108.737,505.121,99.964,506.017,96.429z"/>
	<path fill="#D7E3F0" d="M500.882,106.345c-0.993,2.136-2.258,4.28-3.661,6.182c-0.626,0.85-1.374,1.594-2.16,2.295
		c-1.777,1.579-3.107-0.902-2.994-2.5c0.268-3.881,4.908-7.587,7.572-9.884c1.408-1.214,2.877-2.364,4.357-3.504
		C503.019,101.436,502.007,103.923,500.882,106.345z"/>
	<path d="M580.241,226.904c-9.88,6.543-27.203,17.52-21,27.756c2.936,4.848,9.447-0.577,12.189-4.697
		C576.305,242.633,578.957,231.976,580.241,226.904z"/>
	<path fill="#D7E3F0" d="M573.634,241.298c-1.425,3.063-4.407,9.985-9.105,11.895c-3.156,1.281-4.008-1.857-3.846-4.149
		c0.387-5.562,7.04-10.877,10.858-14.169c2.017-1.74,4.817-4.133,6.939-5.766C577.079,232.695,575.248,237.826,573.634,241.298z"/>
	<path fill="#BBCFDE" d="M409.526,81.347c-2.218,2.209-4.473,4.352-6.839,6.272c-0.49,0.397-1.044,0.81-1.624,1.225
		c-3.243,2.752-6.579,4.857-11.2,5.066c-0.128,0.319-0.241,0.648-0.335,0.984c-1.507,5.384,2.877,4.427,6.502,2.063
		c6.389-4.166,12.013-11.241,16.195-18.048C411.333,79.728,410.436,80.543,409.526,81.347z"/>
	<path fill="#BBCFDE" d="M393.163,140.282c-0.147,1.207-0.03,2.354,0.492,3.387c2.454,4.844,9.953-4.341,14.319-13.388
		C404.145,134.281,398.785,139.849,393.163,140.282z"/>
	<path fill="#BBCFDE" d="M452.031,107.533c-0.002,0.067-0.02,0.14-0.02,0.208c0,3.75,4.02,3.374,7.932-0.159
		c1.565-1.414,2.999-3.236,4.332-5.287C460.492,105.237,456.215,107.636,452.031,107.533z"/>
	<path fill="#BBCFDE" d="M433.665,172.739c-0.664,3.741,1.856,7.072,5.029,3.836c3.228-3.291,5.581-7.561,7.346-11.862
		C442.238,167.809,438.129,170.52,433.665,172.739z"/>
	<path fill="#BBCFDE" d="M485.44,153.54c-0.432,1.867-0.274,3.47,0.692,4.413c2.096,2.046,6.538-3.54,10.087-10.169
		C492.931,150.359,489.31,152.58,485.44,153.54z"/>
	<path fill="#BBCFDE" d="M480.12,210.23c0.033,0.132,0.041,0.267,0.081,0.401c0.997,3.217,3.785,1.998,5.915-1.86
		c0.351-0.634,0.708-1.335,1.071-2.07C484.954,208.239,482.593,209.481,480.12,210.23z"/>
	<path fill="#BBCFDE" d="M326.746,108.258c-0.072-0.028-0.128-0.067-0.199-0.095c-1.364,2.249-1.735,4.112-0.775,5.128
		c1.634,1.731,5.484-0.462,9.357-5.483C332.496,109.019,329.676,109.42,326.746,108.258z"/>
	<path fill="#BBCFDE" d="M531.508,144.231c-0.269,1.143-0.308,2.304,0.003,3.481c1.128,4.265,6.529-3.276,7.339-4.762
		c0.924-1.701,1.785-3.577,2.601-5.48C538.303,139.966,534.991,142.236,531.508,144.231z"/>
	<path fill="#BBCFDE" d="M531.985,304.749c0.036,0.287,0.067,0.574,0.143,0.864c1.128,4.264,6.53-3.276,7.339-4.763
		c0.761-1.399,1.474-2.92,2.16-4.47C538.544,299.313,535.352,302.129,531.985,304.749z"/>
	<path fill="#BBCFDE" d="M579.279,292c0.038,0.233,0.055,0.468,0.117,0.703c1.128,4.264,6.531-3.278,7.339-4.764
		c1.154-2.124,2.222-4.502,3.211-6.892C586.482,284.783,582.932,288.438,579.279,292z"/>
	<path fill="#BBCFDE" d="M571.188,130.583c-0.034,0.523-0.003,1.051,0.138,1.583c0.802,3.033,4.644-2.331,5.218-3.387
		c0.821-1.508,1.58-3.198,2.28-4.893C576.299,126.139,573.756,128.372,571.188,130.583z"/>
	<path fill="#BBCFDE" d="M522.044,205.827c0.634,2.427,2.42,3.495,4.515,1.198c1.619-1.773,3.224-4.921,4.764-8.44
		C528.407,201.223,525.325,203.659,522.044,205.827z"/>
	<path fill="#BBCFDE" d="M505.307,248.95c-0.003,0.04-0.02,0.076-0.024,0.116c-0.113,1.598,1.218,4.077,2.994,2.499
		c0.788-0.699,1.535-1.444,2.16-2.295c1.406-1.903,2.668-4.046,3.663-6.182c0.155-0.332,0.293-0.676,0.445-1.012
		C511.678,244.628,508.638,246.966,505.307,248.95z"/>
	<path fill="#BBCFDE" d="M564.674,176.419c0.263,1.481,1.434,3.048,2.936,1.713c0.789-0.7,1.535-1.445,2.163-2.295
		c1.403-1.902,2.665-4.045,3.66-6.181c0.327-0.706,0.628-1.424,0.937-2.138C571.393,170.739,568.199,173.746,564.674,176.419z"/>
	<path fill="#BBCFDE" d="M492.193,111.689c-0.039,0.211-0.114,0.42-0.127,0.633c-0.113,1.598,1.217,4.079,2.994,2.5
		c0.786-0.701,1.533-1.445,2.16-2.295c1.403-1.902,2.668-4.046,3.661-6.182c0.153-0.332,0.293-0.674,0.443-1.008
		C498.413,107.622,495.381,109.758,492.193,111.689z"/>
	<path fill="#BBCFDE" d="M561.039,251.789c0.503,1.314,1.563,2.185,3.489,1.404c4.698-1.91,7.68-8.833,9.105-11.895
		c0.163-0.349,0.327-0.725,0.495-1.105C570.002,244.313,565.647,248.189,561.039,251.789z"/>
	<path d="M317.445,302.039c-0.897-0.899-2.927-1.117-4.108-0.727c-24.802,8.175-37.531-27.033-44.427-42.707
		c8.009-0.937,14.626-2.989,20.697-5.291c10.211-3.871,21.563-12.181,22.296-23.931c0.694-11.138-10.604-15.719-19.858-16.947
		c-15.069-1.998-37.605-0.128-53.63,4.91c-12.786,4.021-26.379,12.822-14.731,27.003c10.859,13.219,26.326,16.042,43.092,14.284
		c4.777,12.058,9.974,24.347,17.808,34.814c3.848,5.138,8.964,10.003,15.108,11.613c5.762,1.51,10.482,0.85,11.804,2.55
		c1.394,1.789,2.675,3.564,4.816,3.683c1.699,0.093,2.93-0.591,3.304-2.741C319.994,306.383,319.667,304.268,317.445,302.039z"/>
	<path fill="#82604F" d="M223.359,237.217c-4.017-7.878,7.881-13.449,19.211-16.471c14.806-3.948,27.38-4.438,34.841-4.438
		c7.176,0,15.446,0.336,20.393,2.36c16.149,6.61,0.033,20.535-7.508,24.554c-8.676,4.625-19.314,6.084-28.976,6.48
		C250.013,250.165,229.694,249.64,223.359,237.217z"/>
	<path fill="#654434" d="M263.525,242.996c-10.347,1.458-19.518,1.331-29.311-3.142c-4.875-2.23-8.79-5.36-10.678-8.943
		c-1.135,1.903-1.35,4.002-0.177,6.307c6.335,12.423,26.653,12.948,37.962,12.484c9.661-0.395,20.3-1.855,28.976-6.48
		c4.177-2.226,10.971-7.488,13.471-12.862C293.194,238.299,270.677,241.988,263.525,242.996z"/>
	<path d="M326.652,174.851c-7.603-7.922-22.523-24.296-27.903-30.867c-1.701-2.077-4.993,4.817,3.964,15.014
		c-13.868,0.378-21.054,10.858-22.658,20.488c-1.309-4.544-4.827-11.243-10.67-11.613c5.099-3.682,8.97-8.498,9.443-14.352
		c0.236-2.92-1.525-6.202-2.362-5.1c-4.156,5.477-10.181,12.406-15.496,17.626c-5.702,5.6-11,11.959-16.174,18.076
		c-1.186,1.405,1.644,0.649,4.045-0.859c-3.228,14.014,6.02,24.947,16.568,24.569c-4.567,1.444-9.907,1.023-15.405-2
		c-0.216-0.119-0.437,0.213-0.241,0.365c6.667,5.132,14.871,5.082,21.873,0.622c1.085-0.69,2.141-1.529,3.143-2.472
		c0.058-0.043,0.117-0.08,0.177-0.125c1.301-0.998,2.417-2.426,3.333-4.033c0.6-0.903,1.131-1.85,1.586-2.822
		c2.015,4.517,7.226,8.056,11.237,9.83c7.343,3.25,16.564,2.595,23.629-0.897c0.34-0.168,0.128-0.67-0.227-0.54
		c-4.242,1.547-8.794,2.121-13.287,1.792c3.641-0.156,7.386-1.269,10.93-3.614c8.397-5.556,12.089-17.752,9.172-29.415
		C324.525,177.032,327.57,175.808,326.652,174.851z"/>
	<path fill="#FFFFFF" d="M275.994,195.443c-2.463,6.717-9.627,9.665-16.077,6.802c-7.082-3.143-10.078-12.432-8-20.115
		c4.438-3.023,10.577-8.121,13.786-11.048C275.811,170.955,279.771,185.151,275.994,195.443z"/>
	<path fill="#FFFFFF" d="M311.589,198.276c-8.213,7.718-20.206,5.099-25.903-4.61c-3.71-6.327-2.423-14.841,1.826-21.828
		c4.202-6.909,11.407-9.923,18.225-9.63c2.409,2.315,8.421,6.721,10.952,8.874C320.259,177.536,317.819,192.421,311.589,198.276z"/>
	<path d="M273.444,181.657c-1.768-3.186-5.099-3.778-8.497-2.362c-3.4,1.417-5.351,4.696-5.572,7.931
		c-0.282,4.155,1.195,7.081,4.518,8.451c3.79,1.56,7.946-0.234,9.739-2.972C275.526,189.811,275.333,185.056,273.444,181.657z"/>
	<path d="M309.851,173.038c-3.14-2.99-8.479-2.926-11.89-0.226c-7.62,6.029-6.966,21.087,4.316,21.978
		C312.592,195.606,317.688,180.496,309.851,173.038z"/>
	<circle fill="#FFFFFF" cx="308.332" cy="180.595" r="3.329"/>
	<circle fill="#FFFFFF" cx="270.715" cy="185.423" r="2.496"/>
	<path fill="#FFFFFF" d="M305.756,173.938c-0.781,0-1.417,0.633-1.417,1.415c0,0.78,0.636,1.413,1.417,1.413
		c0.778,0,1.414-0.634,1.414-1.413C307.17,174.572,306.534,173.938,305.756,173.938z"/>
	<circle fill="#FFFFFF" cx="268.303" cy="181.592" r="1.081"/>
	<path fill="#A27E6A" d="M237.222,225.639c4.95-2.663,20.79-5.992,23.975-6.18c3.184-0.188-0.376,5.058-2.811,5.994
		C255.954,226.389,232.352,228.263,237.222,225.639z"/>
	<path fill="#A27E6A" d="M267.565,219.459c5.132-0.341,20.415-0.75,24.349,1.499c3.934,2.247-20.041,3.933-22.663,3.745
		C266.629,224.517,264.756,219.647,267.565,219.459z"/>
	<path fill="#D1AD92" d="M313.367,212.864c3.635-6.743,11.835-8.414,14.688-4.849C329.765,210.154,312.369,214.717,313.367,212.864z
		"/>
	<path fill="#D1AD92" d="M316.79,148.977c-7.491-2.925-12.977-8.253-7.985-8.555c6.838-0.415,21.246,5.132,22.245,8.698
		C331.519,150.795,323.424,151.569,316.79,148.977z"/>
	<path fill="#D1AD92" d="M346.453,157.105c2.355,2.245,8.413,12.407,12.833,30.659c4.419,18.251-6.988-5.277-9.982-12.835
		C347.656,170.769,343.457,154.253,346.453,157.105z"/>
	<path fill="#D1AD92" d="M376.113,309.83c0.284-14.547,1.521-39.243,4.277-30.374c2.534,8.144,8.272,27.095,6.703,39.359
		c-1.557,12.179-8.707,21.274-12.121,24.099C371.024,346.181,375.831,324.377,376.113,309.83z"/>
	<path fill="#D1AD92" d="M325.917,299.277c2.351,2.633,3.705,10.553-0.572,13.831C321.069,316.39,322.351,295.284,325.917,299.277z"
		/>
	<path fill="#D1AD92" d="M312.228,256.926c6.9-7.489,23.814-11.696,23.814,4.846C336.042,288.725,290.41,280.596,312.228,256.926z"
		/>
	<path fill="#D1AD92" d="M238.218,271.328c9.62-2.436,23.878-0.712,23.101,13.117C260.751,294.572,227.524,274.035,238.218,271.328z
		"/>
	<path fill="#D1AD92" d="M236.768,340.311c5.117-3.231,24.014-4.069,21.57,2.443C255.895,349.266,229.036,345.195,236.768,340.311z"
		/>
	<path fill="#D1AD92" d="M410.541,226.363c9.317-3.777,33.373,3.256,45.175,20.347C467.518,263.804,395.484,232.466,410.541,226.363
		z"/>
	<path fill="#D1AD92" d="M449.611,381.821c0-6.158,10.579-13.836,19.941-12.208C478.913,371.242,449.611,391.591,449.611,381.821z"
		/>
	<path fill="#D1AD92" d="M478.947,319.926c4.372-4.492,7.959-9.821,7.808-7.812c-0.417,5.643-2.808,12.652-12.807,15.464
		C468.714,329.051,474.142,324.861,478.947,319.926z"/>
	<path fill="#D1AD92" d="M493.317,329.299c-0.712,3.083-3.904,6.559-8.748,8.121C479.727,338.983,494.724,323.206,493.317,329.299z"
		/>
	<path fill="#D1AD92" d="M322.087,389.225c-3.979,5.173-6.191,19.063-4.307,28.832C321.424,436.943,332.03,376.302,322.087,389.225z
		"/>
	<path fill="#D1AD92" d="M336.336,455.833c7.934,0.645,17.498,3.261,19.551,4.971c1.99,1.659-12.259,1.659-18.555,0
		C331.037,459.148,324.074,454.841,336.336,455.833z"/>
	<path fill="#D1AD92" d="M415.204,401.486c0.832-5.611,8.617-7.622,10.938-6.296C428.461,396.516,413.879,410.434,415.204,401.486z"
		/>
	<path fill="#D1AD92" d="M421.834,450.862c4.257,0.671,15.907,2.984,19.551,3.979c3.646,0.992-6.626,3.644-13.586,2.98
		C423.84,457.443,415.538,449.869,421.834,450.862z"/>
	<path fill="#D1AD92" d="M581.893,480.026c7.722,1.103,23.529,3.311,27.505,3.643c3.978,0.334-8.618,3.315-16.237,3.315
		C585.541,486.984,574.935,479.031,581.893,480.026z"/>
</g>
</svg>
