<?xml version="1.0" encoding="utf-8"?>
<!-- Generator: Adobe Illustrator 17.0.0, SVG Export Plug-In . SVG Version: 6.00 Build 0)  -->
<!DOCTYPE svg PUBLIC "-//W3C//DTD SVG 1.1//EN" "http://www.w3.org/Graphics/SVG/1.1/DTD/svg11.dtd">
<svg version="1.1" id="Layer_1" xmlns="http://www.w3.org/2000/svg" xmlns:xlink="http://www.w3.org/1999/xlink" x="0px" y="0px"
	 width="800px" height="600px" viewBox="0 0 800 600" enable-background="new 0 0 800 600" xml:space="preserve">
<g>
	<g>
		<path d="M422.614,170.376c-0.58-1.559,0.788-3.435,3.059-1.902c0.186,0.127,1.991-1.716,6.433-2.679
			c4.442-0.962,9.235,0.036,12.703,1.217c0.541-0.566,1.368-1.104,1.852-0.999c3.25,0.75,9.396,3.964,12.075,5.929
			c0.316-0.356,1.061-1.031,1.444-0.899c0.384,0.13,9.693,8.404,11.56,3.852c1.36-3.315,0.386-5.98,0.043-9.505
			c-0.047-0.459,1.171-0.981,1.417-1.188c-1.325-1.304-0.203-2.794,1.061-3.511c0.015-2.517,1.932-3.983,4.142-4.893
			c-0.932-3.728,5.773-3.107,5.193-0.436c2.823,0.492,7.13,2.521,5.918,5.813c0.889,0.349,1.906,1.096,1.368,2.078
			c0.501,0.195,2.464,1.413,2.597,1.703c0.692,1.553,1.373,8.082,1.204,11.509c-0.161,3.281-1.117,7.786-3.218,10.474
			c-3.36,4.307-8.178,5.997-15.754,4.3c-7.569-1.699-17.742-9.388-18.731-10.197c-0.429-0.353-0.802-0.728-0.695-1.496
			c-2.905-1.952-7.937-3.304-12.624-4.812c-0.497-0.162-0.752-1.385-0.766-1.606c-3.554-1.055-10.166-3.01-14.192-0.52
			c-0.34,0.206,0.132,1.74-0.824,2.281C426.453,175.699,423.982,174.078,422.614,170.376z"/>
		<path fill="#C2AB82" d="M479.412,155.454c0.965-0.263,1.964-0.193,2.876-0.198C482.279,153.485,479.022,153.579,479.412,155.454z"
			/>
		<path fill="#C2AB82" d="M486.771,157.719c-1.143-1.038-2.716-1.467-4.213-1.631c-1.659-0.195-3.393,0.188-4.822,1.036
			c-1.354,0.816-2.017,2.062-1.995,3.346c4.395-1.339,9.008-1.496,12.449,0.058C488.505,159.253,487.86,158.697,486.771,157.719z"/>
		<path fill="#C2AB82" d="M482.357,160.448c-2.873-0.065-5.87,0.573-7.014,1.116c-1.146,0.543-2.16,1.148-1.039,2.044
			c4.492-2.528,12.878-1.375,15.406-0.45C490.373,161.567,485.229,160.515,482.357,160.448z"/>
		<path fill="#DBC7A1" d="M477.801,159.953c-0.688,0.146-1.376,0.31-2.06,0.517c-0.022-1.284,0.641-2.53,1.995-3.346
			c0.38-0.222,0.789-0.401,1.204-0.553C478.101,157.505,477.317,158.845,477.801,159.953z"/>
		<path fill="#DBC7A1" d="M475.344,161.564c0.432-0.204,1.153-0.424,2.02-0.615c-0.297,0.476-0.449,1.094-0.486,1.682
			c-0.931,0.233-1.813,0.551-2.572,0.977C473.184,162.712,474.198,162.107,475.344,161.564z"/>
		<path fill="#A37D48" d="M482.842,156.123c1.407,0.19,2.858,0.624,3.929,1.596c1.09,0.978,1.734,1.534,1.42,2.809
			c-1.037-0.464-2.187-0.76-3.397-0.928C484.235,158.403,483.582,157.244,482.842,156.123z"/>
		<path fill="#A37D48" d="M485.302,160.762c2.471,0.431,4.876,1.278,4.409,2.395c-0.791-0.294-2.167-0.596-3.81-0.809
			c-0.021-0.058-0.05-0.116-0.076-0.172C485.667,161.703,485.491,161.225,485.302,160.762z"/>
		<path fill="#9C5E42" d="M460.305,173.732c0.546,0.346,9.213,7.187,12.789,3.719c2.608-2.531,0.719-11.392,0.995-11.563
			c4.887-3.148,14.111-2.065,16.737-0.359c0.778,2.486,1.927,10.79-0.15,16.36c-2.799,7.525-9.443,7.664-15.719,6.179
			c-6.276-1.485-15.984-7.763-16.531-8.645C457.434,177.816,459.753,173.38,460.305,173.732z"/>
		<path fill="#B4866E" d="M474.954,177.099c-1.365,2.362-4.009,2.167-6.276,1.317c-0.795-0.299-1.596-0.667-2.389-1.061
			c2.493,1.113,5.18,1.671,6.806,0.096c2.608-2.531,0.719-11.392,0.995-11.563c0.315-0.201,0.643-0.385,0.985-0.551
			C475.852,168.775,476.805,173.891,474.954,177.099z"/>
		<path fill="#753C1A" d="M471.066,181.427c2.959-4.078,5.395-2.478,8.901-1.509c1.405,0.386,2.362-1.19,4.331-0.738
			c2.472,0.564,4.277,1.818,6.079,3.401c-2.948,6.823-9.354,6.929-15.422,5.489c-1.627-0.381-3.489-1.097-5.36-1.951
			C469.701,184.422,470.091,182.767,471.066,181.427z"/>
		<path fill="#753C1A" d="M484.936,163.988c2.579,0.236,4.8,0.831,5.889,1.541c0.778,2.486,1.927,10.79-0.15,16.36
			c-1.462,3.938-3.978,5.833-6.944,6.557c-1.89-1.025-3.703-2.256-5.107-3.819C484.511,180.539,485.796,171.505,484.936,163.988z"/>
		<path fill="#753C1A" d="M458.307,177.316c6.828,3.667,13.193,8.197,20.281,11.375c-1.203-0.123-2.421-0.337-3.632-0.622
			c-6.276-1.485-15.984-7.763-16.531-8.645C458.112,178.919,458.127,178.143,458.307,177.316z"/>
		<path fill="#C2C2B3" d="M446.367,167.55c0.635-0.142,6.882,2.802,11.723,5.777c-1.295,1.864-1.425,2.797-1.614,4.21
			c-2.697-1.705-11.499-3.541-12.048-4.779C443.534,170.745,445.733,167.699,446.367,167.55z"/>
		<path fill="#D8D8CF" d="M445.389,168.524c0.387-0.553,0.768-0.923,0.978-0.974c0.635-0.142,6.882,2.802,11.723,5.777
			c-0.206,0.301-0.386,0.577-0.536,0.835C453.793,171.704,449.641,169.987,445.389,168.524z"/>
		<path fill="#ABAB99" d="M456.688,176.267c-0.093,0.402-0.15,0.81-0.211,1.269c-2.697-1.705-11.499-3.541-12.048-4.779
			c-0.247-0.55-0.258-1.177-0.136-1.795C448.463,172.649,452.611,174.373,456.688,176.267z"/>
		<path fill="#636363" d="M423.896,169.469c0.437-0.598,1.203-0.025,1.699,0.546c0.225,0.259,0.519,0.172,0.73-0.009
			c5.101-4.31,12.781-3.301,17.702-1.683c-0.591,0.903-1.174,2.046-1.207,2.943c-3.235-0.945-9.747-2.298-13.859-0.836
			c-0.938,0.339-1.952,0.897-2.124,1.185c-0.172,0.289,0.172,1.422-0.53,1.317C425.05,172.732,423.287,170.301,423.896,169.469z"/>
		<path fill="#474747" d="M438.319,167.079c2.077,0.227,4.054,0.698,5.709,1.243c-0.591,0.903-1.174,2.046-1.207,2.943
			c-1.257-0.363-3.012-0.794-4.925-1.094C437.974,169.146,438.097,168.092,438.319,167.079z"/>
		<path fill="#474747" d="M425.809,170.154c0.18,0.054,0.366-0.023,0.517-0.149c0.866-0.729,1.805-1.297,2.794-1.739
			c0.151,0.66,0.294,1.327,0.43,1.991c-0.198,0.058-0.399,0.107-0.588,0.172c-0.938,0.339-1.952,0.897-2.124,1.185
			c-0.172,0.289,0.172,1.422-0.53,1.317c-0.362-0.059-0.757-0.304-1.132-0.632C425.537,171.621,425.769,170.894,425.809,170.154z"/>
	</g>
	<path d="M337.753,539.41c-1.265-0.359-2.006-0.731-2.747-1.469c2.782-14.101,3.339-28.011,3.313-41.503
		c-17.514-1.405-36.152-2.515-46.037-9.929c13.418-24.503,15.028-75.147,22.01-110.898c3.299-16.907,5.951-33.8,8.543-50.832
		c2.609-17.092,5.654-34.001,13.262-49.568c0.122-0.252,0.347-0.337,0.559-0.315c0.108-0.201,0.264-0.387,0.509-0.517
		c5.839-2.987,13.59-3.562,20.031-4.255c8.632-0.925,17.302-1.281,25.97-1.605c16.786-0.638,51.025-6.507,51.089-6.282
		c3.991,12.859,4.163,40.95,5.711,61.367c1.648,21.738,4.685,43.427,7.873,64.989c4.946,33.5,12.304,67.661,18.878,100.83
		c-4.378,2.916-20.713,8.166-32.963,9.916c0.322,2.687,0.687,5.401,0.501,6.483c-6.24,0.738-15.815,1.347-25.676,1.333
		c0.917,7.272,4.097,16.923,5.642,20.411c-0.347,0.593-1.201,1.139-2.188,1.49c5.566,3.928,17.759,5.774,27.056,5.66
		c5.59-0.064,14.41-0.272,19.977-0.731c1.444,9.454-13.956,16.492-27.747,17.58c-8.046,0.64-17.789,0-29.016-2.75
		c8.049,3.595,30.076,6.353,38.125,9.106c-2.439,10.003-22.141,11.679-31.559,12.072c-7.288,0.308-15.205-0.839-22.449-2.114
		c-4.757-0.847-9.597-3.139-13.132-5.301c-2.982-1.822-7.538-4.935-12.709-5.502c0.3,2.599,0.206,5.903-0.062,7.737
		c-5.851,0.582-23.843-0.35-27.738-1.647c-0.68-2.987-0.588-8.396,1.011-11.135C332.78,546.474,334.947,542.331,337.753,539.41z"/>
	<path fill="#704D40" d="M337.007,551.639c3.331,1.097,10.545,1.942,13.433,1.295c-2.987-2.142-9.156-8.156-11.44-11.438
		C336.907,543.83,335.912,549.053,337.007,551.639z"/>
	<path fill="#AF8969" d="M408.598,521.643c-5.973,2.987-14.591,3.932-21.347,3.036c0.158,1.483,0.359,3.359,0.574,4.844
		c7.644,1.367,18.735,0.381,22.765-2.557C409.879,525.302,409.024,523.42,408.598,521.643z"/>
	<path fill="#C4A682" d="M405.86,507.215c-6.121-0.101-12.892-0.575-18.988-1.4c-0.43,5.861-0.315,11.663,0.218,17.453
		c7.232,0.187,14.304,0.029,21.109-2.867C407.956,519.335,406.297,511.878,405.86,507.215z"/>
	<path fill="#AF8969" d="M383.444,529.917c-15.981,4.873-35.557,0.919-42.692-1.068c-0.141,2.127-0.928,5.382-0.928,7.793
		c14.1,4.825,32.835,5.383,44.862,0.138C384.271,534.626,383.834,532.312,383.444,529.917z"/>
	<path fill="#916647" d="M389.006,524.859c0.48,1.739,1.125,3.438,1.907,5.072c-1.072-0.094-2.107-0.236-3.088-0.408
		c-0.215-1.485-0.415-3.36-0.574-4.844C387.824,524.75,388.412,524.81,389.006,524.859z"/>
	<path fill="#916647" d="M372.995,532.598c-4.098,0.961-8.34,1.23-12.531,0.757c-4.005-0.443-7.894-1.397-11.675-2.706
		c8.014,1.439,19.316,2.514,29.815,0.457C376.748,531.743,374.799,532.179,372.995,532.598z"/>
	<path fill="#C4A682" d="M340.94,525.512c6.964,2.916,28.736,6.806,42.233,2.693c-1.156-7.68-1.683-16.011,0.624-22.855
		c-5.52-0.894-10.768-2.178-15.381-3.968c-6.777-2.629-16.048-3.747-25.95-4.6C342.425,503.623,341.571,521.292,340.94,525.512z"/>
	<path fill="#A88861" d="M395.299,509.62c-2.882,0.41-6.507,1.175-8.672,3.346c0.004-2.378,0.069-4.755,0.245-7.15
		c6.096,0.825,12.867,1.298,18.988,1.4c0.093,0.983,0.24,2.09,0.42,3.237C402.769,509.399,399.258,509.054,395.299,509.62z"/>
	<path fill="#A88861" d="M389.099,523.303c-0.669-0.006-1.34-0.02-2.01-0.035c-0.176-1.926-0.29-3.854-0.369-5.783
		C387.337,519.478,388.225,521.405,389.099,523.303z"/>
	<path fill="#A88861" d="M369.641,504.887c-4.846-0.954-9.783-1.699-14.729-1.758c-4.328-0.049-8.658,0.418-12.66,1.69
		c0.122-3.194,0.204-6.067,0.215-8.038c9.901,0.854,19.173,1.971,25.95,4.6c4.614,1.79,9.861,3.074,15.381,3.968
		c-0.426,1.269-0.752,2.579-1.003,3.932C378.737,506.976,374.254,505.787,369.641,504.887z"/>
	<path fill="#96866B" d="M429.964,501.968c-9.821-53.458-14.027-114.734-13.02-169.033c0.009-0.566,0.863-0.502,0.87,0.055
		c1.096,54.379,5.223,108.52,15.077,162.043c3.837-0.436,7.651-1.023,11.433-1.819c3.759-0.789,7.455-1.825,11.03-3.239
		c1.845-0.722,4.363-1.498,6.505-2.47c-6.576-31.926-13.09-63.84-17.961-96.118c-3.203-21.228-5.968-42.619-7.601-64.033
		c-1.614-21.187-0.243-42.801-3.977-63.814c-12.938,7.451-30.005,7.423-44.476,7.974c-8.661,0.33-17.33,0.508-25.977,1.153
		c-8.203,0.616-16.017,2.952-24.094,3.854c-0.377,0.036-0.666-0.086-0.881-0.278c-5.664,16.176-8.508,33.651-10.998,50.552
		c-2.601,17.644-5.499,35.149-8.565,52.714c-6.094,34.853-4.839,71.792-19.422,104.678c16.541,11.362,47.173,5.531,70.214,12.823
		C389.35,503.725,414.21,504.011,429.964,501.968z"/>
	<path fill="#7A694D" d="M424.942,276.924c-0.351,0.007-0.537,0.315-0.487,0.638c0.509,3.094,0.889,6.188,0.968,9.318
		c-10.357-2.621-20.96-3.385-31.613-2.57c-9.869,0.747-19.713,1.993-29.571,2.865c-10.625,0.939-21.479,2.049-31.91,4.577
		c1.297-5.259,2.794-10.451,4.564-15.509c0.215,0.192,0.504,0.314,0.881,0.278c8.077-0.902,15.891-3.237,24.094-3.854
		c8.647-0.646,17.316-0.823,25.977-1.153c14.471-0.551,31.537-0.522,44.476-7.974c0.799,4.486,1.354,8.999,1.763,13.532
		C431.068,276.722,427.995,276.902,424.942,276.924z"/>
	<path fill="#7A694D" d="M422.608,383.262c3.86,22.962,4.273,46.382,8.783,69.251c2.164,10.977,5.162,21.943,10.238,31.966
		c1.454,2.873,3.11,5.609,4.901,8.232c-0.732,0.172-1.466,0.344-2.205,0.502c-3.782,0.796-7.596,1.383-11.433,1.819
		c-8.279-44.969-12.506-90.37-14.297-135.976C419.734,367.128,421.246,375.167,422.608,383.262z"/>
	<path fill="#7A694D" d="M328.009,360.509c-1.559-9.09,2.206-17.789,6.763-20.422c2.294-5.757,4.764-12.997,6.09-19.045
		c1.98-9.055,2.078-24.28,3.632-30.508c2.729-0.135,6.957-1.56,8.569-1.946c2.607-0.638,6.325-0.34,8.954-0.91
		c3.507,4.543,4.346,23.742,3.898,36.995c-0.2,5.85-1.899,20.132-2.827,25.864c-0.49,3.016-2.077,8.424-3.348,8.997
		c-1.268,0.58-2.885,0.926-4.413,1.084c-1.506,1.69-2.627,3.833-2.766,6.116c-0.179,2.903,0.033,10.684-1.93,11.265
		c-1.963,0.572-4.162,0.237-6.348-1.161c-1.153,1.962-3.578,5.431-11.337,6.669c-5.384,0.855-10.891,0.767-16.37,0.582
		c0.239-1.528,0.486-3.059,0.755-4.577c0.591-3.397,1.172-6.784,1.751-10.174c2.752-0.41,5.592-1.004,7.838-2.408
		C330.589,364.638,327.855,364.613,328.009,360.509z"/>
	<path fill="#7A694D" d="M401.279,293.916c6.425-5.674,12.282,6.993,8.26,8.311c-1.598-1.438-4.994-1.422-6.845-1.446
		c-1.749-0.016-3.465-0.632-3.371-2.693C399.397,296.538,400.104,294.949,401.279,293.916z"/>
	<path fill="#7A694D" d="M399.889,332.454c2.364-1.932,5.946-1.614,7.986,0.229c0.776,0.919,1.296,2.136,1.371,3.647
		c-0.038,0.279-0.093,0.566-0.173,0.845c-2.349,0.386-4.404,3.168-6.039,4.501c-3.632,2.965-5.415-1.355-5.651-4.601
		C397.645,335.298,398.467,333.629,399.889,332.454z"/>
	<path fill="#7A694D" d="M397.793,377.066c0.71-2.593,2.748-4.858,5.635-4.651c2.407,0.174,4.377,1.499,5.14,3.855
		c0.613,1.887,0.642,3.842-0.852,5.233c-2.472-0.69-5.378-0.022-7.707,1.208C398.428,381.264,397.188,379.266,397.793,377.066z"/>
	<path fill="#7A694D" d="M446.085,427.194c-3.812-13.003-5.668-26.004-5.839-39.539c-0.101-8.166-0.628-16.501-0.297-24.746
		c1.193,9.515,2.525,19.014,3.951,28.479c3.024,20.024,6.677,39.913,10.589,59.745C451.386,443.265,448.467,435.329,446.085,427.194
		z"/>
	<path fill="#7A694D" d="M311.831,450.987c-0.501,8.904-1.919,17.941-5.516,26.173c-1.393,3.192-3.067,6.203-4.993,9.025
		c-1.19-0.595-2.336-1.253-3.414-1.997c8.024-18.098,11.251-37.419,13.551-56.952C311.955,435.155,312.279,443.062,311.831,450.987z
		"/>
	<path fill="#7A694D" d="M333.898,487.512c4.352-4.535,6.964-10.059,13.043-12.731c5.749-2.524,11.717-1.67,15.937,3.188
		c4.004,4.606,5.416,10.683,9.113,15.509c1.791,2.342,3.833,4.407,6.068,6.156c-3.367-0.738-6.694-1.599-9.936-2.624
		c-12.66-4.006-27.601-4.053-41.246-5.166C329.529,490.887,331.993,489.496,333.898,487.512z"/>
	<path fill="#704D40" d="M429.384,548.151c10.116-0.46,22.497-3.425,25.234-11.829c-4.973,0.194-15.425,0.695-23.632,0.745
		C430.354,538.329,428.245,544.526,429.384,548.151z"/>
	<path fill="#C4A694" d="M404.782,545.679c7.118,1.462,12.47,2.931,21.919,2.55c-0.942-3.451-0.277-8.87,1.894-11.564
		c-7.164-0.695-13.734-2.284-19.15-5.816c-6.928,2.456-15.461,2.831-21.235,1.153c0.294,1.819,1.067,4.978,1.429,6.806
		c-0.846,0.794-1.964,1.174-3.435,1.496C390.682,542.642,398.198,544.331,404.782,545.679z"/>
	<path fill="#704D40" d="M405.864,565.983c4.492-0.103,10.202,0.127,14.656-0.439c4.627-0.588,11.236-1.943,14.829-5.816
		c-7.63-2.23-16.997-3.138-25.312-5.496C407.753,556.118,404.811,561.484,405.864,565.983z"/>
	<path fill="#59362B" d="M348.585,551.462c0.691,0.585,1.325,1.095,1.855,1.472c-2.888,0.647-10.102-0.198-13.433-1.295
		c-0.401-0.945-0.519-2.24-0.407-3.624C340.139,550.171,344.243,551.258,348.585,551.462z"/>
	<path fill="#59362B" d="M443.218,542.889c4.252-1.301,7.996-3.408,11.27-6.247c-2.955,8.155-15.123,11.058-25.104,11.509
		c-0.307-0.99-0.372-2.172-0.297-3.389C433.858,544.662,438.673,544.281,443.218,542.889z"/>
	<path fill="#59362B" d="M421.152,562.924c4.596-0.446,9.765-0.896,14.01-3.007c-3.624,3.722-10.091,5.055-14.643,5.628
		c-4.454,0.566-10.163,0.336-14.656,0.439c-0.237-1.019-0.266-2.071-0.15-3.117C410.822,563.568,416.088,563.416,421.152,562.924z"
		/>
	<path fill="#C4A694" d="M363.333,553.474c4.768,0.965,8.156,3.739,12.921,6.354c9.844,5.402,16.42,6.341,26.007,6.168
		c-0.509-4.592,2.284-9.405,5.875-12.314c-5.808-1.942-19.232-6.147-26.587-11.22c-12.71,2.751-28.807,0.637-39.715-1.42
		c1.206,1.641,8.915,9.796,11.044,11.993C355.412,552.986,358.941,552.585,363.333,553.474z"/>
	<path fill="#AA886E" d="M405.785,533.17c-3.126,0.729-6.305,1.323-9.514,1.469c-2.567,0.122-5.097-0.007-7.605-0.311
		c-0.187-0.864-0.351-1.682-0.454-2.326c5.774,1.677,14.307,1.302,21.235-1.153c0.459,0.292,0.931,0.56,1.408,0.829
		C409.238,532.345,407.519,532.76,405.785,533.17z"/>
	<path fill="#AA886E" d="M408.647,543.865c5.757,1.233,11.775,2.96,17.699,2.294c0.064,0.74,0.182,1.44,0.355,2.071
		c-9.449,0.381-14.802-1.088-21.919-2.55c-6.584-1.349-14.1-3.038-18.577-5.375c1.167-0.258,2.106-0.559,2.865-1.058
		C395.654,540.526,402.089,542.455,408.647,543.865z"/>
	<path fill="#AA886E" d="M373.654,544.138c-4.501,0.653-9.056,0.996-13.605,0.831c-5.854-0.207-11.6-1.11-17.177-2.68
		c-0.48-0.545-0.841-0.98-1.038-1.246c10.908,2.056,27.005,4.171,39.715,1.42c0.144,0.101,0.308,0.193,0.459,0.294
		C379.466,543.85,376.304,543.752,373.654,544.138z"/>
	<path fill="#AA886E" d="M365.271,550.527c4.962,1.161,9.256,4.084,13.647,6.55c3.954,2.222,7.846,3.819,12.258,4.884
		c3.633,0.884,7.35,1.764,11.106,1.684c-0.094,0.789-0.108,1.569-0.022,2.35c-9.587,0.174-16.163-0.766-26.007-6.168
		c-4.765-2.615-8.153-5.389-12.921-6.354c-4.391-0.889-7.92-0.488-10.455-0.439c-0.181-0.187-0.416-0.428-0.667-0.695
		C356.384,550.707,360.865,549.49,365.271,550.527z"/>
	<path fill="#63615E" d="M335.216,560.744c4.679,1.392,18.608,2.242,22.841,1.742c0.245-2.135,0.394-3.878,0.048-6.32
		c-6.418,0.645-18.165-0.595-22.392-1.339C335.199,555.786,335.21,559.442,335.216,560.744z"/>
	<path fill="#494744" d="M340.995,559.406c5.871,0.894,11.467,0.328,17.29,0.114c-0.028,0.974-0.106,1.926-0.227,2.967
		c-4.233,0.499-18.163-0.35-22.841-1.742c-0.003-0.522-0.007-1.433,0.025-2.385C337.151,558.747,339.064,559.11,340.995,559.406z"/>
	<g>
		<path d="M309.833,354.276c4.413-2.729,8.888,3.247,11.442,8.024c0.973-1.211,7.318-2.98,8.873-2.972
			c-1.693-6.168,2.103-14.586,8.092-19.337c-0.137-0.08-0.846-1.03-0.975-1.382c0.989-0.738,2.564-2.192,3.174-2.896
			c-0.909-0.602-1.332-1.003-1.991-1.848c8.639-12.851,5.494-50.732,4.334-64.816c3.648-1.161,8.991-1.906,16.422-0.272
			c3.231,11.314,7.45,55.931,1.267,75.856c-0.509,0.135-1.339,0.036-2.035-0.279c-0.216,1.462-0.67,3.197-1.024,4.048
			c-0.266-0.038-0.737-0.158-1.054-0.237c-0.271,1.362-0.562,3.239-0.765,4.229c-0.037,6.376,0.021,12.988-0.088,17.366
			c-0.1,3.861-6.085,1.955-7.88-0.337c-0.845,1.512-5.23,7.566-6.835,8.567c-3.13,1.965-19.59,3.256-20.446-2.786
			c-1.691-0.689-4.148-3.116-5.302-4.062c-1.352-1.103-2.422-2.507-3.166-4.055C308.622,363.693,307.175,355.917,309.833,354.276z"
			/>
		<path fill="#FFFFE4" d="M355.456,346.982c0.469-0.757,0.852-1.97,0.995-2.907c-3.388-1.44-8.106-3.761-13.283-6.994
			c-0.584,0.81-1.655,1.741-2.32,2.48C343.172,340.794,355.019,346.645,355.456,346.982z"/>
		<path fill="#96866B" d="M358.236,342.084c3.826-12.324,4.98-43.661-1.185-72.771c-3.78,0.015-7.896-0.155-11.846,0.812
			c1.136,10.079,3.761,51.46-3.045,62.859C346.121,335.793,354.524,340.885,358.236,342.084z"/>
		<path fill="#7A694D" d="M346.547,289.431c-0.342-8.504-0.95-15.806-1.343-19.307c3.951-0.967,8.066-0.797,11.846-0.812
			c1.114,5.268,1.988,10.612,2.654,15.9C355.412,284.611,350.71,286.424,346.547,289.431z"/>
		<path fill="#F0C7AD" d="M353.683,368.762c-0.017-4.844,0.638-11.204,0.827-13.984c-0.445,0.932-4.348,9.816-5.681,12.553
			C349.76,368.869,353.693,371.242,353.683,368.762z"/>
		<path fill="#DFA88A" d="M349.868,368.454c-0.448-0.37-0.826-0.773-1.039-1.123c1.333-2.737,5.236-11.621,5.681-12.553
			c-0.078,1.139-0.236,2.902-0.394,4.909C352.612,362.567,351.185,365.481,349.868,368.454z"/>
		<path fill="#F0C7AD" d="M313.401,366.449c2.172,3.295,15.707,3.229,22.379,1.368c1.629-0.45-0.334,1.726-1.978,2.149
			c-6.433,1.648-13.824,1.375-18.553-0.538c2.085,2.343,5.352,4.287,8.727,4.43c4.713,0.194,9.398-0.41,14.03-1.227
			c0.32-0.055,0.004,0.625-1.422,1.084c-4.205,1.367-8.955,2.155-14.003,1.803c2.339,4.133,14.387,1.744,16.816,0.596
			c2.452-1.155,11.881-17.897,14.883-27.117c-2.478-1.728-9.8-5.33-14.171-7.045c-5.18,4.308-8.848,13.033-8.06,17.554
			c0.866,0.181,2.815,1.146,2.028,1.347c-2.45,0.616-8.266,1.627-11.842,3.689c0.258,0.948-0.215,1.647-0.639,1.525
			c-1.704-3.094-4.727-8.042-7.529-9.949C310.515,353.704,307.484,357.48,313.401,366.449z"/>
		<path fill="#DFA88A" d="M338.003,344.046c0.666-0.768,1.369-1.475,2.107-2.094c4.37,1.715,11.692,5.317,14.171,7.045
			c-0.279,0.845-0.606,1.755-0.978,2.706C348.665,348.386,343.454,345.794,338.003,344.046z"/>
		<path fill="#DFA88A" d="M333.802,369.966c0.133-0.035,0.269-0.078,0.4-0.136c-3.771,3.473-10.498,3.023-16.38,1.842
			c-0.967-0.667-1.849-1.427-2.573-2.245C319.978,371.341,327.368,371.614,333.802,369.966z"/>
		<path fill="#DFA88A" d="M336.585,373.714c0.043-0.007,0.079-0.029,0.122-0.043c-2.732,3.669-7.999,3.948-12.906,3.051
			c-0.52-0.321-0.941-0.714-1.219-1.204C327.629,375.869,332.38,375.082,336.585,373.714z"/>
		<path fill="#DFA88A" d="M347.03,364.859c-3.174,5.802-6.351,10.653-7.632,11.255c-0.227,0.107-0.535,0.221-0.908,0.344
			C340.705,372.158,343.52,368.169,347.03,364.859z"/>
	</g>
	<path d="M333.303,206.127c0.695-9.308,1.763-18.602,4.471-27.566c1.255-4.152,4.621-12.745,8.998-17.682
		c8.562-7.15,19.71-13.092,30.062-17.403c1.24-1.42,2.508-2.826,3.632-4.342c2.376-3.193,3.44-6.527,4.292-10.129
		c-2.117-1.698-3.762-4.165-4.876-6.933c-1.529,0.052-3.933-0.407-5.419-1.464c-0.054-4.076,0.022-8.103,1.153-11.972
		c-7.3,7.115-12.881,7.695-12.608,3.496c0.221-3.403,8.145-12.508,10.771-14.765c-16.185-16.443-4.847-46.93,12.667-57.967
		c10.936-6.892,23.38-6.748,34.384-0.08c8.247,4.994,19.179,18.972,21.683,34.247c6.036,1.493,14.426,0.107,19.189,2.643
		c3.321,1.769,0.895,5.521-3.23,6.7c-4.457,1.267-11.768,0.844-15.333,0.164c1.012,1.425,3.254,7.214,1.312,13.326
		c2.21,1.164,3.443,3.239,0.083,4.363c0.219,0.111,0.437,0.215,0.669,0.244c0.96,0.136,1.806-0.517,2.225-1.337
		c0.064-0.132,0.286-0.1,0.261,0.061c-0.143,0.999-0.774,1.698-1.727,1.97c0.601,0.108,1.247-0.007,1.69-0.44
		c0.072-0.072,0.202,0.032,0.144,0.119c-0.545,0.791-1.39,1.06-2.315,0.87c-0.318-0.068-0.681-0.204-1.01-0.398
		c3.568,6.031,8.694,11.39,12.387,17.351c3.675,5.936,8.039,13.816,5.388,20.999c-2.857,7.74-11.649,12.622-18.921,7.609
		c-3.009-2.077-5.548-5.881-6.075-9.522c-2.242,0.625-3.024,1.763-2.328,4.415c0.425,1.609,0.93,3.115,0.917,4.804
		c-0.03,2.427-1.784,6.013-4.647,5.784c-1.3-0.1-2.407-0.86-3.386-1.813c0.273,1.813-0.573,3.603-2.392,4.541
		c-2.211,1.133-5.18,0.64-7.006-1.016c-0.007-0.006-0.014-0.017-0.021-0.023c-0.145,0.637-0.208,1.271-0.08,1.868
		c0.291,1.339,1.303,2.955,1.017,4.402c-0.336,1.714-0.859,3.433-2.614,4.202c-2.01,0.877-4.13,0.269-6.062-0.77
		c2.358,3.797,3.119,8.809,3.603,12.799c3.096,4.109,5.346,9.564,7.348,15.143c12.949,15.495,18.709,36.903,26.168,54.301
		c2.26-1.124,15.893-8.887,15.889-22.291c0.23-0.232,1.333-0.394,1.585-0.475c-0.86-1.654-1.634-3.352-2.441-5.043
		c-0.197-0.417,0.061-1.017,0.502-1.155c1.221-0.389,2.526-0.671,3.871-0.852c-2.184-2.148-0.064-5.485,1.956-7.155
		c1.399-1.161,7.33-3.25,8.87-5.702c-6.434-5.08-11.48-15.172-7.017-15.764c-0.698-3.326,0.359-6.641,2.242-6.718
		c0.15-6.327,6.789-3.915,9.489-1.207c8.139-3.537,16.779,14.729,18.414,20.15c1.59,5.299,1.067,11.15-2.87,15.227
		c-2.975,3.088-8.679,5.13-13.415,4.687c0.118,0.337,0.085,0.716-0.173,1.043c-1.39,1.815-2.944,3.371-4.656,4.867
		c0.594,0.352,1.727,1.554,1.948,1.855c-3.69,13.114-11.929,29.264-41.184,38.001c-2.17,0.654-12.975,2.931-15.574,4.53
		c0.468,2.077,0.847,8.554,0.181,8.519c-32.014-1.744-84.545,5.767-98.297,2.822C329.912,257.437,331.441,231.029,333.303,206.127z"
		/>
	<path fill="#FFFFE4" d="M374.743,149.221c2.302,5.812,19.063,24.284,28.288,27.885c1.475,0.572,4.069-6.03,5.319-10.99
		c-9.242-8.065-18.376-15.621-24.978-25.991C381.058,144.103,374.494,148.608,374.743,149.221z"/>
	<path fill="#E6DEBD" d="M380.832,157.969c-3.055-3.625-5.341-6.851-6.089-8.748c-0.248-0.614,6.315-5.118,8.629-9.095
		c0.612,0.959,1.257,1.881,1.91,2.795C383.755,147.926,382.276,152.942,380.832,157.969z"/>
	<path fill="#96866B" d="M419.067,42.711c-9.514-5.961-20.26-5.632-29.767,0.047c-8.949,5.347-14.754,15.427-16.922,25.386
		c-0.806,3.711-0.989,7.54-0.588,11.313c2.139-2.591,4.965-4.925,6.943-6.684c5.082-4.52,10.721-8.132,17.108-10.504
		c13.297-4.943,27.608-1.038,41.217,1.053C433.106,55.012,427.314,47.877,419.067,42.711z"/>
	<path fill="#B7AC96" d="M437.824,65.006c-13.167,0.223-26.078-3.736-39.196,0.022c-8.705,2.486-18.495,9.12-26.558,19.215
		c0.591,2.228,2.936,8.199,4.707,10.585c5.437-4.699,11.108-9.209,16.874-13.544c7.08-5.323,15.218-8.905,23.977-10.273
		c7.695-1.197,15.511,0.773,23.165,2.239C439.974,70.404,438.981,67.653,437.824,65.006z"/>
	<path fill="#CEC7B0" d="M408.559,63.47c5.978-0.284,11.938,0.418,17.925,0.97c0.995,2.2,1.88,4.428,2.624,6.678
		c-3.836-0.516-7.671-0.703-11.48-0.107c-1.914,0.301-3.789,0.723-5.638,1.229C410.879,69.304,409.74,66.374,408.559,63.47z"/>
	<path fill="#95856E" d="M378.858,76.906c2.79,3.897,7.698,5.316,13.469,5.388c-5.305,4.026-10.529,8.195-15.55,12.533
		c-1.771-2.386-4.116-8.357-4.707-10.585C374.226,81.542,376.511,79.098,378.858,76.906z"/>
	<path fill="#96866B" d="M456.615,80.768c5.783-1.475,3.396-3.554-1.376-3.708c-5.101-0.164-14.986-1.46-20.009-2.403
		c-7.562-1.418-14.805-2.156-22.325-0.015c-6.294,1.792-11.98,5.145-17.137,9.099c-7.149,5.491-27.532,19.857-29.045,27.243
		c-0.716,3.522,15.776-10.793,21.665-16.56c5.893-5.76,19.258-13.097,30.91-15.378c5.56-1.093,10.761-0.239,16.403,0.093
		C442.56,79.542,450.834,82.251,456.615,80.768z"/>
	<path fill="#73644D" d="M372.378,68.145c1.724-7.917,5.752-15.901,11.825-21.532c-0.424,0.956-0.774,1.931-1.014,2.926
		c-2.049,8.386,4.9,11.57,12.484,12.799c-6.317,2.374-11.904,5.954-16.94,10.436c-1.978,1.758-4.804,4.093-6.943,6.684
		C371.389,75.684,371.572,71.856,372.378,68.145z"/>
	<path fill="#73644D" d="M396.708,87.33c7.967-7.371,16.98-12.166,28.074-12.104c10.527,0.054,20.815,2.551,30.788,5.757
		c-5.702,0.953-13.412-1.462-19.867-1.844c-5.642-0.333-10.843-1.187-16.403-0.093c-8.676,1.701-18.293,6.2-25.078,10.765
		C395.023,88.958,395.844,88.125,396.708,87.33z"/>
	<path fill="#F0C7AD" d="M414.328,163.424c3.714,0.805,2.046-4.472,1.938-6.349c-0.093-1.656,0.43-2.909,1.347-4.112
		c0.165-1.466,0.587-3,2.139-1.768c5.423,4.294,8.622-0.272,7.196-1.951c-4.517-5.323-5.001-10.961-3.459-11.541
		c1.535,4.81,4.807,9.809,7.335,12.064c0.612,0.538,2.035-0.53,2.111-3.467c0.075-2.938-1.216-5.452-0.828-6.663
		c0.737-2.321,2.96-2.696,5.072-2.598c0.058-1.454,0.46-2.982,0.384-4.407c-0.061-1.154-1.203-1.857-1.713-0.682
		c-0.506,1.169-2.013,1.017-2.178-0.565c-0.103-0.994,1.218-4.062,4.726-3.135c2.227,0.592,2.843,3.222,3.034,4.959
		c0.561,5.267,3.374,12.627,9.886,11.997c4.793-0.467,8.072-5.853,8.064-10.202c-0.007-4.371-2.286-8.661-4.346-12.381
		c-4.14-7.493-10.048-13.927-12.674-22.18l0,0c-2.165-0.753-4.323-1.677-6.401-2.462c1.139,1.766,1.72,3.919,1.949,6.158
		c0.458-0.022,1.834,0.321,2.328,0.404c0.659,0.111-0.723,0.701-2.264,0.931c0.022,1.162,0.007,3.059-0.094,4.174
		c2.667,0.645,2.988,1.712,2.433,1.656c-7.441-0.724-13.809,0.433-20.021,1.577c-0.523,0.1-1.038-0.831,3.353-2.043
		c-0.982-1.554-1.633-3.353-1.474-6.786c-1.478-0.185-5.823-2.535-4.004-2.535c1.022,0,2.591,0.186,3.845,0.33
		c0.244-1.881,0.262-4.915,3.102-7.027c-2.73-0.237-5.148,0.077-7.788,1.325c-0.996,0.472-1.412-1.046-0.863-1.692
		c4.513-5.373,9.149-5.67,15.113-3.886c2.55,0.763,7.708,3.436,10.563,4.711c0.563-4.445-0.132-8.984-3.909-12.681
		c-5.009-0.326-10.011-0.171-15.036,0.474c-7.634,0.991-14.997,3.467-21.962,6.777c-0.044,1.859,0.275,3.718,0.766,5.529
		c-3.736,3.247-6.466,7.585-9.184,11.79c-0.614-0.806-1.645-2.415-2.196-3.263c-4.356-2.257-8.476-0.351-9.514,5.501
		c-0.871,4.915,1.826,10.468,4.846,14.007c3.406,3.984,9.26,5.179,10.854,0.429c1.242-3.71-0.656-8.84-3.544-11.36
		c-0.77-0.674,1.708-0.668,3.544,0.933c1.77,1.551,5.004,5.665,4.362,11.144c-0.698,5.986-6.724,7.568-11.763,6.635
		c-0.95-0.171-1.837-0.488-2.676-0.91c-0.151,2.729-1.083,5.535-2.465,8.176c4.836,7.242,12.817,15.296,18.395,19.896
		c-5.578-5.747-16.425-20.036-16.425-21.094c0-1.053,1.204-4.785,1.92-4.498c0.716,0.28-0.415,3.973-0.265,4.498
		c0.153,0.532,11.542,13.534,15.117,17.427C406.574,158.58,409.779,162.434,414.328,163.424z"/>
	<path fill="#DFA88A" d="M387.709,109.977c0.297,0.365,0.696,0.875,1.124,1.449c0.072,0.163,0.132,0.329,0.172,0.493
		c0.065,0.242,0.251,0.349,0.444,0.358c1.592,2.234,3.213,5.015,1.968,5.624c-2.297,1.122-5.556-1.191-6.638-3.068
		c-0.799-1.378-1.598-3.689-0.072-4.95C385.703,109.067,386.839,109.297,387.709,109.977z"/>
	<path fill="#DFA88A" d="M427.005,84.909c-6.189,0.431-11.465,2.809-17.194,4.902c-2.178,0.787-7.156,1.608-6.824,4.756
		c0.182,1.713,1.143,3.489,1.887,5.014c0.933,1.881,1.859,3.712,2.973,5.453c-1.321,3.948-4.163,7.117-6.698,10.405
		c-1.111-0.545-2.289-1.005-3.263-1.758c-1.688-1.297-3.221-2.766-4.438-4.52c-1.153-1.663-2.129-3.427-2.865-5.273
		c0.007,0.004,0.021,0.007,0.035,0.015c0.551,0.848,1.582,2.457,2.196,3.263c2.718-4.205,5.448-8.543,9.184-11.79
		c-0.491-1.811-0.81-3.67-0.766-5.529c6.965-3.31,14.328-5.786,21.962-6.777c5.025-0.645,10.027-0.799,15.036-0.474
		c0.964,0.946,1.729,1.945,2.323,2.983C436.062,84.93,431.498,84.597,427.005,84.909z"/>
	<path fill="#DFA88A" d="M399.703,128.296c-0.674,2.565-2.279,4.65-5.531,5.36c-1.855,0.408-3.837,0.478-5.802,0.277
		c0.057-0.607,0.025-1.08-0.216-1.174c-0.272-0.107-0.609,0.358-0.931,1.039c-0.348-0.054-0.692-0.132-1.04-0.209
		c0.294-1.103,0.488-2.213,0.545-3.31c0.839,0.422,1.726,0.739,2.676,0.91C393.161,131.885,397.463,131.176,399.703,128.296z"/>
	<path fill="#DFA88A" d="M387.143,138.915c2.723,4.132,10.91,14.693,15.515,19.437c-4.533-3.741-10.65-9.76-15.378-15.763
		C387.054,141.362,386.993,140.135,387.143,138.915z"/>
	<path fill="#DFA88A" d="M425.616,133.009c-4.128,4.093-6.399,10.441-11.836,12.919
		C412.348,139.221,419.695,134.619,425.616,133.009z"/>
	<path fill="#DFA88A" d="M431.154,119.333c3.012-2.444,7.702-1.052,8.619,2.344c-1.706-1.24-4.188-1.349-5.968-0.029
		c-2.035,1.505-2.451,4.499-3.181,6.862C428.278,126.015,428.374,121.586,431.154,119.333z"/>
	<path fill="#DFA88A" d="M445.851,140.633c1.301,1.83,3.5,3.168,5.721,3.452c0.971,0.13,1.941,0.125,2.9,0.014
		c-0.948,0.596-2.004,0.994-3.155,1.106c-6.512,0.63-9.325-6.73-9.886-11.997c-0.064-0.606-0.191-1.323-0.41-2.018
		C443.344,133.195,444.629,138.907,445.851,140.633z"/>
	<path fill="#DFA88A" d="M422.013,101.845c-0.682-0.078-1.455-0.165-2.186-0.229c0.143-2.389,0.86-4.707,2.342-6.814
		c0.96-0.085,1.931-0.075,2.946,0.016C422.275,96.931,422.257,99.964,422.013,101.845z"/>
	<path fill="#DFA88A" d="M422.172,104.051c-0.159,3.433,0.492,5.232,1.474,6.786c-0.667,0.179-1.204,0.357-1.661,0.522
		c-1.233-2.619-2.05-5.415-2.168-8.171C420.691,103.622,421.625,103.988,422.172,104.051z"/>
	<path fill="#DFA88A" d="M438.827,99.101c0.544,1.635,0.773,3.485,0.79,5.316c-0.604-0.128-1.382-0.294-1.708-0.279
		c-0.229-2.239-0.81-4.393-1.949-6.158C436.903,98.335,437.859,98.722,438.827,99.101z"/>
	<path fill="#DFA88A" d="M437.974,105.474c0.617-0.093,1.197-0.24,1.64-0.394c-0.032,1.763-0.253,3.479-0.587,4.926
		c-0.322-0.125-0.687-0.25-1.147-0.358C437.982,108.533,437.997,106.636,437.974,105.474z"/>
	<path fill="#FFFFFF" d="M432.228,105.363c0.187,1.249-0.244,3.6-1.064,4.162c1.946-0.237,3.608-0.326,5.534-0.071
		c-0.107-0.835-0.39-3.151-0.547-4.014C434.85,105.485,433.805,105.453,432.228,105.363z"/>
	<path fill="#F0C7AD" d="M435.577,103.808c-0.222-2.41-1.3-4.879-3.412-6.362c-2.071-1.453-5.693-2.114-7.05-0.014
		c-0.896,1.39-1.469,3.022-1.469,4.413C426.849,102.354,432.511,103.415,435.577,103.808z"/>
	<path fill="#DFA88A" d="M427.027,102.416c-1.254-0.22-2.428-0.421-3.381-0.571c0-1.391,0.573-3.023,1.469-4.413
		c0.796-1.226,2.364-1.505,3.947-1.239C427.636,97.919,426.991,100.126,427.027,102.416z"/>
	<path fill="#E8E6C7" d="M409.805,167.592c-0.319,1.738-0.802,3.56-1.462,5.305c1.182,0.602,2.364,1.572,3.473,2.591
		C411.616,173.037,410.865,169.8,409.805,167.592z"/>
	<path fill="#CEC499" d="M410.048,173.995c-0.562-0.424-1.132-0.806-1.705-1.098c0.659-1.745,1.143-3.567,1.462-5.305
		c0.473,0.988,0.881,2.179,1.21,3.411C410.692,171.998,410.374,173.001,410.048,173.995z"/>
	<path fill="#F0C7AD" d="M497.116,213.6c3.568-3.586,2.797-9.275,1.708-13.69c-1.792-7.278-9.103-19.644-15.429-18.435
		c2.225,2.168,4.277,4.401,6.212,6.726c3.252,3.915,5.458,8.414,6.064,12.781c0.126,0.906-0.333,3.111-0.376,2.744
		c-0.831-6.511-7.007-16.906-15.669-23.16c-2.847-2.053-4.972-1.352-5.348,1.359c3.543,0.978,14.799,12.204,15.97,19.81
		c0.3,1.958-0.398,2.939-0.464,2.627c-1.647-7.823-9.707-16.563-14.077-19.802c-4.035-2.99-3.597,2.132-3.36,4.253
		c5.245,1.997,10.758,10.929,11.721,13.828c0.679,2.033,0.011,3.009-0.261,2.278c-2.221-6.046-9.604-14.93-12.691-14.783
		c-1.859,0.087,0.365,4.535,1.106,5.454c2.447,3.016,5.811,6.76,8.115,9.515c0.644,0.774-4.643,4.133-6.742,5.249
		c-1.465,0.783-2.945,1.621-4.126,2.803c-1.176,1.175-0.775,2.343-0.564,3.783c4.052-0.281,8.365,0.295,12.104,1.605
		c0.04-0.007,0.079-0.013,0.117-0.013C486.462,218.632,493.233,217.499,497.116,213.6z"/>
	<path fill="#DFA88A" d="M480.132,192.997c1.816,2.654,3.908,6.184,3.926,9.609c-0.993-2.925-6.483-11.802-11.71-13.793
		c-0.079-0.723-0.179-1.791-0.122-2.768C475.501,187.175,478.381,190.447,480.132,192.997z"/>
	<path fill="#DFA88A" d="M489.826,199.996c-2.375-7.475-12.269-17.165-15.547-18.072c0.083-0.583,0.247-1.071,0.484-1.457
		C482.243,184.201,489.499,191.703,489.826,199.996z"/>
	<path fill="#DFA88A" d="M495.26,198.923c-0.92-3.706-2.91-7.423-5.653-10.722c-1.935-2.326-3.987-4.559-6.212-6.726
		c1.025-0.198,2.071-0.033,3.12,0.405C491.553,185.79,495.132,192.752,495.26,198.923z"/>
	<path fill="#DFA88A" d="M486.431,218.215c-1.821,0.252-3.63,0.346-5.304,0.317c-0.038,0-0.077,0.006-0.117,0.013
		c-3.739-1.31-8.052-1.886-12.104-1.605c-0.053-0.382-0.125-0.738-0.175-1.085C474.888,215.159,480.627,215.881,486.431,218.215z"/>
	<path fill="#FFFFE4" d="M481.946,221.383c-5.377-2.323-11.259-2.149-17.03-1.783c0.587,1.465,1.118,2.922,1.478,4.449
		c3.705-0.165,8.068,0.32,11.679,1.654C479.327,224.856,480.865,222.656,481.946,221.383z"/>
	<path fill="#96866B" d="M439.794,263.097c10.932-4.637,21.231-9.99,28.99-17.376c4.861-4.624,7.232-8.436,10.09-17.476
		c-2.257-1.504-8.436-3.009-12.329-1.692c-3.259,14.573-13.279,20.831-17.661,22.609c0.387,0.93,1.004,2.349,0.312,2.816
		c-2.713,1.806-6.4,3.46-9.79,4.217C439.876,258.89,439.78,263.097,439.794,263.097z"/>
	<path fill="#7A694D" d="M452.432,247.306c0.036,3.431-0.359,7.014-1.208,10.46c-3.672,1.905-7.511,3.667-11.43,5.331
		c-0.014,0,0.082-4.207-0.387-6.902c3.39-0.757,7.077-2.411,9.79-4.217c0.692-0.467,0.075-1.886-0.312-2.816
		C449.842,248.775,451.07,248.158,452.432,247.306z"/>
	<path fill="#7A694D" d="M478.452,229.559c-2.68,8.1-5.05,11.771-9.668,16.162c-1.516,1.449-3.135,2.809-4.833,4.108
		C467.598,242.451,473.159,236.11,478.452,229.559z"/>
	<path fill="#C4A682" d="M446.636,249.942c-0.323-1.025-15.737-43.613-24.474-52.956c2.443,7.728,5.079,15.954,7.108,23.256
		c2.184,7.867,4.921,15.57,7.171,23.419c0.815,2.85,2.092,6.575,2.815,9.821C442.317,252.505,446.962,250.966,446.636,249.942z"/>
	<path fill="#AD8866" d="M432.952,222.866c2.895,10.03,5.538,19.962,9.969,29.376c-1.221,0.452-2.546,0.881-3.664,1.24
		c-0.723-3.246-1.999-6.971-2.815-9.821c-2.25-7.849-4.987-15.553-7.171-23.419c-2.028-7.302-4.665-15.528-7.108-23.256
		c0.247,0.265,0.501,0.567,0.763,0.89C426.314,206.186,430.458,214.211,432.952,222.866z"/>
	<path fill="#C4A682" d="M420.73,245.193c0.071,0.618-1.203-1.197-2.056-5.692c-1.928-10.132-2.766-19.087-3.894-29.93
		c-1.13-10.849-4.518-24.407-7.252-34.771c-0.676,1.431-2.945,5.851-3.821,5.469c-7.404-3.269-26.738-19.605-31.071-31.094
		c-0.229-0.601,1.03-1.737,1.626-2.548c-8.551,3.997-18.184,10.819-25.864,16.561c-9.875,14.069-11.598,34.043-12.652,51.839
		c-1.272,21.542-2.6,43.12-5.073,64.562c12.968,0.158,25.893-0.905,38.81-2.058c0.043-19.37,0.329-38.962,0.774-58.327
		c0.085-3.813,0.985-5.493,1.024-4.946c1.44,19.26,0.559,43.758,0.602,63.059c1.848-0.165,3.696-0.33,5.545-0.493
		c-1.02-9.414-0.487-19.023-0.438-28.512c0.053-9.721,0.731-19.437,0.782-29.156c0.01-2.329,1.26,2.113,1.383,6.424
		c0.287,9.771-0.122,13.134,0.024,22.909c0.141,9.378,0.574,18.909-0.428,28.214c14.804-1.304,29.613-2.394,44.486-1.585
		c-0.221-4.527-2.207-15.839-2.257-20.411c-0.014-0.874,1.813,3.941,3.131,12.631c2.84-1.548,9.307-3.373,13.519-3.97
		c-0.652-7.156-1.855-13.496-3.803-20.323c-1.889-6.632-4.113-13.159-6.036-19.778c-4.367-15.016-10.601-37.127-13.387-41.868
		c-1.315-2.243-2.862-3.389-3.779-3.692c2.726,9.113,4.331,17.962,5.449,24.61C417.189,208.966,419.433,233.747,420.73,245.193z"/>
	<path fill="#AD8866" d="M367.915,249.614c0.622-8.787,0.713-17.881,2.263-26.626c-0.397,18.133-0.652,36.435-0.695,54.544
		c-0.846,0.08-1.691,0.151-2.536,0.224C366.79,268.371,367.248,258.992,367.915,249.614z"/>
	<path fill="#AD8866" d="M379.327,256.333c1.279,6.67,2.418,13.367,2.407,20.117c-0.996,0.078-1.988,0.165-2.983,0.252
		C379.478,269.983,379.449,263.145,379.327,256.333z"/>
	<path fill="#AD8866" d="M372.107,241.646c0.067,1.64,0.131,3.282,0.17,4.93c0.116,4.583-0.799,10.496,2.289,14.334
		c0.377,0.466,1.162,0.279,1.434-0.187c0.339-0.588,0.608-1.204,0.841-1.826c-0.079,5.998-0.053,12,0.588,17.926
		c-1.849,0.163-3.697,0.328-5.545,0.493C371.855,266.45,372.124,253.941,372.107,241.646z"/>
	<path fill="#AD8866" d="M410.624,177.707c0.487,0.158,1.154,0.567,1.867,1.242c2.25,9.768,5.047,19.252,5.445,29.372
		c0.143,3.648,0.147,7.298,0.122,10.946c-0.763-7.396-1.483-13.984-1.985-16.949C414.955,195.669,413.35,186.82,410.624,177.707z"/>
	<path fill="#AD8866" d="M410.728,232.393c0.111,0.216,0.273,0.33,0.441,0.386c0.727,1.692,1.167,3.563,0.971,5.302
		c-0.197,1.69-1.662,4.139-3.31,3.421c-0.029-0.163-0.087-0.327-0.211-0.476c-2.017-2.321-4.959-3.072-7.365-4.849
		c-1.823-1.347-3.636-4.537-1.572-6.505C403.17,226.338,408.751,228.59,410.728,232.393z"/>
	<path fill="#AD8866" d="M406.681,210.549c-0.138-0.097-0.29-0.172-0.48-0.195c-1.289-0.106-2.819,0.059-4.044-0.395
		c-2.454-0.91-3.112-3.722-1.895-5.907c1.211-2.171,3.689-4.218,6.351-3.328c3.829,1.289,4.991,5.719,3.156,8.823
		C408.697,209.855,407.684,210.257,406.681,210.549z"/>
	<path fill="#AD8866" d="M427.128,266.042c-1.196,0.427-2.243,0.874-3.017,1.295c-0.824-5.431-1.845-9.35-2.493-11.305
		C424.182,258.913,425.806,262.407,427.128,266.042z"/>
	<path fill="#AD8866" d="M339.39,246.08c-0.631,10.79-2.811,22.237-8.496,31.502c2.324-20.79,3.622-41.686,4.853-62.555
		c0.118-1.978,0.247-3.983,0.39-6.003C337.653,221.339,340.121,233.548,339.39,246.08z"/>
	<path fill="#AD8866" d="M379.302,165.09c-3.088-4.839-5.154-9.999-6.451-15.383c4.714,11.462,23.563,27.343,30.857,30.563
		c0.876,0.382,3.145-4.038,3.821-5.469c0.155,0.586,0.313,1.181,0.47,1.792c-1.114,3.269-2.492,6.44-3.775,9.652
		C394.472,182.273,384.822,173.739,379.302,165.09z"/>
	<path d="M383.97,109.403c1.146-1.488,2.866-1.145,3.898,0.346c1.032,1.489,0.98,2.758,0.687,2.407
		c-0.573-0.689-2.195-3.016-3.209-1.834c-1.376,1.604-1.605,5.04,3.134,7.531c1.644,0.865,4.034,0.134,3.557-1.915
		c-0.093-0.402,0.509-0.577,0.681-0.21c0.581,1.264,0.774,2.517-0.501,3.434c-1.204,0.86-2.787,0.783-4.134,0.366
		c-1.922-0.598-3.267-1.679-4.248-3.54C382.594,113.645,382.526,111.281,383.97,109.403z"/>
	<path d="M403.725,210.056c0.699-0.223,1.386-0.347,2.078-0.423c-0.742-0.172-1.419-0.567-1.916-1.197
		c-1.599-2.007-1.619-4.676-0.14-6.706c1.558-2.136,4.539-2.302,6.054-0.208c0.92,1.276,1.558,3.606,0.598,5.732
		c-0.515,1.137-1.408,1.88-2.393,2.236c0.355-0.019,0.713-0.036,1.075-0.061c0.376-0.025,0.519,0.543,0.143,0.658
		c-1.842,0.573-3.507,0.698-5.424,0.502C403.535,210.565,403.452,210.141,403.725,210.056z"/>
	<path fill="#9E7555" d="M404.608,206.544c0.954,2.058,3.857,1.447,4.488,0.025c0.981-2.22-0.194-5.55-3.217-4.667
		C403.887,202.486,404.066,205.387,404.608,206.544z"/>
	<path d="M401.913,236.284c0.408,0.1,0.809,0.214,1.203,0.336c-1.708-2.135-1.271-5.357,0.427-6.784
		c2.07-1.735,4.456-1.926,6.483-0.136c2.028,1.799,2.447,5.76-0.2,7.689c-0.973,0.709-2.077,1.038-3.153,1.009
		c0.596,0.48,1.14,1.038,1.599,1.739c0.179,0.288-0.172,0.69-0.444,0.438c-1.719-1.585-3.954-2.88-6.076-3.841
		C401.472,236.605,401.616,236.212,401.913,236.284z"/>
	<path fill="#9E7555" d="M405.47,235.516c1.025,0.525,2.397,0.776,3.368-0.213c0.745-0.754,1.453-2.407,0.093-3.97
		c-1.362-1.563-3.565-1.145-4.357,0.229C403.675,233.131,404.152,234.844,405.47,235.516z"/>
	<path fill="#875F3B" d="M408.65,202.59c0.85,0.988,1.022,2.672,0.445,3.978c-0.559,1.268-2.91,1.884-4.098,0.564
		C406.652,206.203,408.01,204.461,408.65,202.59z"/>
	<path fill="#875F3B" d="M409.109,231.584c1.085,1.485,0.433,3.003-0.271,3.719c-0.972,0.988-2.344,0.738-3.368,0.213
		c-0.093-0.042-0.174-0.113-0.257-0.171C406.767,234.386,408.171,233.089,409.109,231.584z"/>
	<path d="M401.761,300.781c0.417-0.067,0.828-0.122,1.24-0.166c-2.411-1.281-3.285-4.42-2.281-6.397
		c1.217-2.405,3.331-3.531,5.903-2.68c2.572,0.846,4.521,4.321,2.847,7.136c-0.615,1.039-1.499,1.777-2.498,2.172
		c0.733,0.206,1.457,0.515,2.156,0.973c0.28,0.187,0.111,0.695-0.24,0.573c-2.2-0.782-4.764-1.081-7.092-1.132
		C401.486,301.253,401.457,300.831,401.761,300.781z"/>
	<path fill="#B4A994" d="M404.732,298.682c1.147,0.071,2.504-0.245,3.009-1.534c0.387-0.987,0.387-2.786-1.483-3.68
		c-1.87-0.899-3.726,0.349-3.912,1.932C402.138,297.191,403.256,298.582,404.732,298.682z"/>
	<path d="M402.607,340.921c0.298-0.3,0.606-0.579,0.914-0.851c-2.708,0.341-5.237-1.712-5.559-3.906
		c-0.396-2.671,0.682-4.807,3.274-5.601c2.593-0.79,6.187,0.923,6.448,4.182c0.093,1.206-0.201,2.32-0.787,3.217
		c0.719-0.258,1.486-0.423,2.32-0.444c0.336-0.013,0.495,0.502,0.14,0.6c-2.254,0.64-4.518,1.871-6.448,3.168
		C402.656,341.467,402.389,341.137,402.607,340.921z"/>
	<path fill="#B4A994" d="M403.815,337.49c0.982-0.602,1.907-1.647,1.573-2.987c-0.255-1.033-1.29-2.501-3.336-2.156
		c-2.043,0.352-2.842,2.443-2.077,3.841C400.838,337.771,402.554,338.263,403.815,337.49z"/>
	<path d="M400.706,381.839c0.39-0.151,0.784-0.288,1.175-0.41c-2.616-0.771-4.099-3.681-3.519-5.817
		c0.717-2.601,2.564-4.119,5.255-3.805c2.691,0.316,5.292,3.33,4.216,6.428c-0.394,1.139-1.114,2.04-2.017,2.628
		c0.765,0.051,1.533,0.208,2.311,0.521c0.308,0.124,0.247,0.661-0.122,0.603c-2.314-0.321-4.886-0.1-7.175,0.31
		C400.527,382.354,400.415,381.953,400.706,381.839z"/>
	<path fill="#B4A994" d="M403.192,379.186c1.14-0.156,2.404-0.738,2.643-2.106c0.18-1.039-0.179-2.8-2.192-3.311
		c-2.01-0.508-3.582,1.091-3.446,2.676C400.354,378.241,401.722,379.381,403.192,379.186z"/>
	<path fill="#9B8C70" d="M406.909,293.903c1.182,0.961,1.161,2.394,0.831,3.244c-0.506,1.289-1.862,1.605-3.009,1.534
		c-0.337-0.028-0.645-0.142-0.927-0.288C405.295,297.342,406.301,295.686,406.909,293.903z"/>
	<path fill="#9B8C70" d="M404.265,332.827c0.616,0.459,0.99,1.123,1.122,1.676c0.334,1.34-0.591,2.385-1.573,2.987
		c-0.702,0.424-1.54,0.453-2.295,0.129C402.712,336.217,403.642,334.576,404.265,332.827z"/>
	<path fill="#9B8C70" d="M404.714,374.28c1.049,0.744,1.261,1.984,1.121,2.8c-0.239,1.367-1.504,1.949-2.643,2.106
		c-0.258,0.03-0.509,0.007-0.753-0.035C403.384,377.662,404.116,376.027,404.714,374.28z"/>
	<path d="M429.77,125.136c1.097-6.06,7.53-6.554,10.167-4.221c1.477,1.308,1.594,3.038,0.957,2.572
		c-3.919-2.838-8.354,1.69-9.317,5.64C431.305,130.243,429.016,129.278,429.77,125.136z"/>
	<path d="M424.318,132.792c2.24-0.525,2.93,0.009,2.588,0.182c-7.852,3.883-10.664,7.444-12.671,13.118
		c-0.157,0.452-0.9,0.329-0.934-0.203C412.821,138.687,418.639,134.134,424.318,132.792z"/>
	<path d="M406.007,104.238c0.235,0.387,0.459,0.774,0.653,1.169c-1.606,3.195-3.554,6.176-6.378,8.818
		c-0.494-0.3-0.975-0.631-1.443-0.974C401.465,110.536,403.986,107.502,406.007,104.238z"/>
	<path d="M402.349,96.602c0.355,1.138,0.764,2.263,1.184,3.352c0.028,0.071,0.064,0.14,0.097,0.208
		c-2.186,3.768-4.998,7.171-7.846,10.452c-0.781-0.788-1.518-1.625-2.224-2.496C396.185,104.044,398.804,99.804,402.349,96.602z"/>
	<path d="M404.238,101.398c0.333,0.59,0.706,1.163,1.081,1.744c-2.052,3.418-4.665,6.577-7.407,9.407
		c-0.445-0.359-0.87-0.745-1.293-1.136C399.355,108.257,402.071,104.984,404.238,101.398z"/>
	<path d="M474.226,180.13c1.175,0.433,2.142,1.483,3.231,2.114c0.76,0.44,1.912,0.973,2.697,0.288
		c0.556-0.481,0.334-1.517,0.176-2.117c-0.028-0.094,0.132-0.156,0.172-0.058c0.454,1.091,0.559,2.395-0.727,2.89
		c-0.849,0.323-1.859-0.216-2.594-0.577c-1.066-0.53-2.438-1.326-3.091-2.346C474.033,180.227,474.096,180.079,474.226,180.13z"/>
	<path d="M471.693,185.843c1.837,0.643,5.986,4.152,6.065-0.067c0-0.124,0.171-0.113,0.182,0.006
		c0.108,1.511-0.484,2.664-2.152,2.522c-1.499-0.129-3.426-1.02-4.333-2.192C471.332,185.947,471.538,185.79,471.693,185.843z"/>
	<path d="M470.217,190.18c0.742,0.517,1.208,1.291,1.866,1.915c0.488,0.465,1.046,0.836,1.73,0.923
		c1.308,0.148,1.357-1.204,1.053-2.072c-0.039-0.113,0.132-0.161,0.186-0.068c0.799,1.31,0.066,2.728-1.508,2.635
		c-1.511-0.093-3.066-1.862-3.55-3.158C469.942,190.217,470.099,190.102,470.217,190.18z"/>
	<path d="M483.009,181.057c0.961,0.777,1.692,1.767,2.609,2.59c0.616,0.559,1.596,1.175,2.4,0.582
		c0.543-0.408-0.045-1.705-0.276-2.151c-0.048-0.093,0.088-0.197,0.154-0.108c0.401,0.551,0.952,1.289,0.752,2.03
		c-0.204,0.758-0.923,1.014-1.656,0.957c-1.829-0.155-3.294-2.304-4.198-3.69C482.701,181.134,482.87,180.945,483.009,181.057z"/>
	<path d="M492.23,189.829c1.02-0.593,2.614-1.028,3.217,0.337c0.064,0.145-0.108,0.247-0.223,0.174
		c-0.92-0.608-1.899-0.732-2.934-0.344C492.194,190.034,492.144,189.882,492.23,189.829z"/>
	<path d="M493.017,190.884c0.878-0.359,1.71-0.365,2.558,0.085c0.814,0.441,1.104,1.09,1.297,1.938
		c0.029,0.132-0.178,0.227-0.257,0.106c-0.789-1.247-2.057-2-3.554-1.929C492.953,191.086,492.922,190.923,493.017,190.884z"/>
	<path d="M485.882,190.641c1.099-1.687,2.966-1.498,4.299-0.184c0.096,0.097-0.05,0.245-0.158,0.175
		c-1.32-0.812-2.858-1.19-4.005,0.122C485.951,190.827,485.824,190.726,485.882,190.641z"/>
	<path d="M486.747,191.471c1.635-1.379,3.624-0.288,4.551,1.347c0.083,0.137-0.124,0.236-0.221,0.135
		c-1.161-1.175-2.547-2.116-4.216-1.317C486.756,191.687,486.656,191.547,486.747,191.471z"/>
	<path d="M485.273,193.025c0.108,0.101-0.053,0.256-0.167,0.184c-1.473-0.907-3.436-0.379-4.368,1.038
		c-0.056,0.09-0.214,0.029-0.174-0.078C481.283,192.214,483.747,191.578,485.273,193.025z"/>
	<path d="M481.891,195.309c1.147-1.582,3.869-1.961,4.897-0.078c0.068,0.132-0.111,0.259-0.218,0.174
		c-1.383-1.146-3.109-0.961-4.521,0.042C481.959,195.512,481.816,195.412,481.891,195.309z"/>
	<path d="M476.773,197.173c0.437-0.515,0.849-0.865,1.525-1.023c0.664-0.152,1.237,0.052,1.677,0.537
		c0.09,0.097-0.028,0.25-0.146,0.206c-1.032-0.421-2.046-0.394-2.931,0.412C476.811,197.382,476.701,197.26,476.773,197.173z"/>
	<path d="M477.185,197.862c1.171-0.666,2.447-1.344,3.574-0.24c0.116,0.114-0.064,0.255-0.181,0.194
		c-0.904-0.492-2.426-0.104-3.332,0.21C477.15,198.062,477.098,197.908,477.185,197.862z"/>
	<path fill="#FFFFFF" d="M424.666,104.546c0.627-0.078,1.204,0.369,1.287,0.999c0.079,0.631-0.373,1.208-0.999,1.287
		c-0.631,0.079-1.208-0.369-1.286-0.999C423.588,105.201,424.033,104.628,424.666,104.546z"/>
	<path fill="#FFFFFF" d="M426.565,104.252c0.255-0.028,0.488,0.151,0.52,0.409c0.031,0.25-0.151,0.486-0.406,0.515
		c-0.254,0.037-0.486-0.151-0.52-0.4C426.131,104.518,426.31,104.289,426.565,104.252z"/>
	<path d="M415.951,539.138c-0.133-1.378,0.194-2.873,0.699-4.019c0.362-0.834,1.053-1.735,1.995-1.92
		c1.053-0.214,1.74,0.379,2.313,1.188c0.129,0.174-0.106,0.379-0.279,0.287c-1.68-0.867-2.734,0.036-3.459,1.531
		c-0.409,0.854-0.76,1.872-0.831,2.87c0.007,0,0.015,0,0.022,0c0.86,0,1.521,0.864,1.469,1.676c-0.061,0.903-0.821,1.473-1.68,1.473
		c-0.856,0-1.522-0.865-1.465-1.683C414.781,539.812,415.297,539.302,415.951,539.138z"/>
	<path d="M410.857,537.855c-0.201-1.468-0.011-3.01,0.896-4.211c1.265-1.67,3.611-1.253,4.886,0.122
		c0.151,0.149,0.015,0.472-0.214,0.424c-1.577-0.297-2.991-0.768-4.116,0.635c-0.627,0.787-0.874,1.897-0.942,2.973
		c1.791,0.087,1.737,2.907-0.114,2.907C409.532,540.704,409.417,538.264,410.857,537.855z"/>
	<path d="M406.802,536.258c-0.451-3.376,3.103-7.21,6.316-4.586c0.208,0.165-0.04,0.422-0.24,0.386
		c-1.318-0.243-2.63-0.301-3.779,0.473c-1.201,0.809-1.676,2.365-1.702,3.797c0.501,0.179,0.881,0.609,0.91,1.184
		c0.033,0.7-0.543,1.386-1.268,1.386c-0.723,0-1.353-0.515-1.39-1.266C405.619,536.975,406.132,536.329,406.802,536.258z"/>
	<path d="M378.94,548c0.064,0,0.114,0.015,0.18,0.022c0.16-1.706,1.106-3.369,2.624-4.164c2.296-1.211,4.704-0.731,6.724,0.773
		c0.158,0.117,0.119,0.315-0.007,0.408c1.716,0.043,3.396,0.789,4.399,2.208c0.056,0.085,0.032,0.171-0.022,0.243
		c1.419,0.187,2.774,0.881,4.011,1.763c0.222,0.164,0.065,0.517-0.208,0.437c-1.496-0.437-3.109-0.996-4.692-1.045
		c-2.164-0.074-3.812,1.988-4.331,4.039c1.788,0.201,1.57,3.08-0.357,3.08c-1.839,0-1.835-2.614-0.269-3.036
		c0.029-1.991,1.179-4.097,3.005-4.864c0.806-0.344,1.594-0.453,2.372-0.408c-1.627-1.004-3.636-1.356-5.499-0.946
		c-2.159,0.466-2.672,2.121-3.245,3.854c1.196,0.745,0.594,3.174-1.254,3.174c-2.17,0-1.752-3.304,0.351-3.389
		c0.229-2.075,1.19-3.789,3.316-4.677c0.653-0.272,1.344-0.404,2.043-0.431c-1.792-0.544-3.779-0.967-5.574-0.249
		c-1.576,0.63-2.206,2.041-2.629,3.524c0.957,0.802,0.466,2.88-1.193,2.88C376.619,551.194,376.881,548,378.94,548z"/>
	<path d="M316.796,366.174c0.07-0.084,0.216-0.006,0.151,0.094c-0.282,0.438-0.548,0.883-0.766,1.356
		c-0.251,0.544-0.121,1.046-0.258,1.585c-0.022,0.084-0.161,0.104-0.216,0.033C315.012,368.305,316.26,366.87,316.796,366.174z"/>
	<path d="M314.253,366.169c0.342-0.679,0.969-1.094,1.635-1.397c0.133-0.056,0.237,0.114,0.133,0.207
		c-0.692,0.632-1.201,1.577-1.352,2.495c-0.053,0.337-0.325,1.045-0.752,0.566C313.517,367.596,314.046,366.584,314.253,366.169z"/>
	<path d="M322.121,371.901c0.06-0.116,0.246-0.022,0.2,0.1c-0.161,0.414-0.165,0.78-0.136,1.211c0.033,0.417,0.34,0.773,0.301,1.174
		c-0.007,0.08-0.108,0.152-0.186,0.116c-0.376-0.187-0.472-0.745-0.509-1.126C321.745,372.847,321.876,372.373,322.121,371.901z"/>
	<path d="M320.652,371.232c0.063-0.104,0.242-0.02,0.2,0.101c-0.176,0.479-0.283,0.977-0.287,1.489
		c-0.007,0.449,0.194,0.857,0.183,1.291c-0.004,0.139-0.169,0.153-0.24,0.072C319.813,373.483,320.222,371.972,320.652,371.232z"/>
	<path d="M326.132,375.949c0.042-0.121,0.208-0.072,0.182,0.049c-0.096,0.431-0.054,0.902,0.018,1.334
		c0.079,0.452,0.311,0.796,0.501,1.203c0.111,0.229-0.208,0.495-0.387,0.274C325.818,378.025,325.787,376.843,326.132,375.949z"/>
	<path d="M324.513,376.164c0.086-0.13,0.258-0.016,0.23,0.12c-0.073,0.317-0.051,0.667,0.014,0.982
		c0.064,0.295,0.273,0.53,0.307,0.829c0.018,0.13-0.139,0.239-0.258,0.172C324.133,377.909,324.14,376.729,324.513,376.164z"/>
	<path d="M310.524,355.465c-0.075-0.078,0.029-0.193,0.122-0.143c1.201,0.638,2.046,2.674,2.238,3.946
		c0.216,1.398-0.587,2.747-1.97,3.155c-0.213,0.067-0.339-0.203-0.206-0.359c0.967-1.124,1.892-1.605,1.404-3.252
		C311.814,357.803,311.241,356.256,310.524,355.465z"/>
	<path d="M351.021,366.199c0.502-1.628,1.68-2.501,3.389-2.216c0.122,0.023,0.122,0.201-0.012,0.201
		c-1.772,0.016-2.688,1.253-2.943,2.889c-0.111,0.696-0.057,1.402,0.054,2.1c0.064,0.407,0.329,0.78,0.079,1.153
		c-0.04,0.064-0.123,0.064-0.183,0.049C350.362,370.031,350.786,366.97,351.021,366.199z"/>
	<path d="M335.213,366.248c0.567,0.896,1.457,2.307,2.64,2.386c0.143,0.013,0.143,0.222,0.01,0.243
		c-0.677,0.136-1.433,0.156-2.006-0.315c-0.734-0.601-1.149-1.304-1.02-2.258C334.862,366.119,335.124,366.103,335.213,366.248z"/>
	<path d="M337.279,371.543c0.015-0.174,0.259-0.181,0.316-0.036c0.103,0.258,0.286,0.457,0.401,0.709
		c0.09,0.214,0.215,0.414,0.336,0.617c0.244,0.415,0.616,0.818,1.036,1.045c0.108,0.065,0.022,0.236-0.09,0.193
		c-0.598-0.221-1.153-0.48-1.565-0.985C337.301,372.582,337.229,372.166,337.279,371.543z"/>
	<path d="M470.17,122.465c0.575-2.631,3.31-6.278,6.093-5.872c-0.215-2.918,1.677-5.42,4.242-6.717
		c1.601-0.81,3.328-0.795,4.631-0.036c3.819-7.984,18.961-1.836,15.398,5.863c1.482,0.786,2.317,2.449,2.446,4.238
		c0.111,1.489-0.906,3.691-2.492,4.323c1.4,2.571,1.572,6.195,0.761,8.955c-0.63,2.142-3.19,4.274-5.394,2.858
		c-1.749,5.072-11.255,5.563-13.24,0.933c-2.919,3.627-10.821-2.273-9.092-6.449C470.464,130.009,469.533,125.415,470.17,122.465z"
		/>
	<path fill="#FFFFFF" d="M475.795,129.779c0.222,0.043,0.358,0.39,0.09,0.493c-0.524,0.195-1,0.288-1.447,0.324
		c-0.65,3.962,4.739,7.888,7.913,5.606c-0.219-1.021-0.116-2.239,0.425-3.66c0.098-0.255,0.549-0.226,0.552,0.07
		c0.043,3.245,1.215,5.922,4.708,6.359c4.166,0.514,6.873-2.526,7.519-6.353c0.024-0.166,0.286-0.2,0.332-0.023
		c0.23,0.837,0.284,1.599,0.219,2.307c2.78,1.06,3.847-1.321,4.299-3.502c0.43-2.08,0.423-4.903-0.401-6.941
		c-0.466,0.1-0.853,0.241-1.375-0.036c-0.13-0.068-0.158-0.29-0.022-0.318c0.911-0.181,1.62-0.682,2.275-1.376
		c0.606-0.643,0.842-1.535,0.87-2.393c0.064-2.027-1.375-3.634-3.001-4.628c-0.223-0.137-0.087-0.487,0.164-0.47
		c0.369,0.028,0.71,0.114,1.029,0.219c-0.083-3.33-1.193-5.724-4.342-7.301c-3.498-1.747-7.446-0.855-10.027,1.978
		c0.737,0.574,1.294,1.426,1.534,2.545c0.028,0.142-0.179,0.222-0.266,0.106c-3.668-4.929-8.794-0.545-10.009,3.951
		c0.577,0.205,1.153,0.58,1.699,1.216c0.136,0.153,0.017,0.421-0.203,0.363c-1.623-0.441-2.985-0.83-4.472,0.198
		c-1.35,0.935-2.074,2.704-2.461,4.232c-0.402,1.569-0.402,3.381,0.323,4.857C472.5,129.197,474.211,129.484,475.795,129.779z"/>
	<path d="M479.313,85.799c-0.408-0.403-0.742-0.887-0.966-1.492c-0.478-1.29-0.258-2.615,0.453-3.769
		c1.122-1.819,3.576-2.543,5.37-1.705c2.121-4.807,13.018-5.134,13.297-0.007c5.037-0.614,8.74,9.764,3.883,11.799
		c0.185,1.383-0.078,2.769-0.875,4.065c-0.917,1.502-3.173,3.021-5.022,2.961c-0.573,1.228-1.69,2.116-3.192,2.561
		c-2.023,0.602-4.344-0.166-5.351-2.014c-1.238,1.232-3.467,0.945-4.964-0.093c-1.92-1.325-2.776-3.615-1.916-5.73
		c-1.129-0.316-2.022-1.219-2.465-2.487C476.988,88.219,477.647,86.363,479.313,85.799z"/>
	<path fill="#FFFFFF" d="M481.805,91.966c0.237,0.043,0.201,0.397-0.014,0.448c-0.408,0.096-0.795,0.107-1.167,0.072
		c-0.087,1.801,0.677,3.618,2.166,4.681c1.606,1.154,3.192,0.648,4.641-0.437c0.124-0.093,0.263,0.04,0.225,0.173
		c-0.089,0.307-0.212,0.579-0.362,0.815c1.418,1.089,2.908,1.777,4.746,1.441c1.888-0.336,3.285-1.977,3.522-3.829
		c0.025-0.182,0.315-0.176,0.322,0.01c0.025,0.495-0.028,0.954-0.125,1.386c4.535-1.246,4.882-5.85,4.632-8.069
		c-0.022-0.224,0.271-0.245,0.351-0.073c0.197,0.416,0.336,0.835,0.451,1.255c3.131-2.802,0.365-10.231-3.74-10.389
		c-0.039,0.386-0.132,0.794-0.286,1.229c-0.054,0.147-0.254,0.096-0.279-0.036c-0.591-2.865-1.927-4.342-4.919-4.574
		c-2.683-0.201-5.582,1.031-7.418,2.978c1.081,1.095,1.171,1.93,1.003,1.766c-0.838-0.817-1.888-1.354-3.113-1.339
		c-1.049,0.013-2.017,0.697-2.632,1.499c-1.862,2.433,0.559,4.772,2.572,6.019c0.158,0.096,0.1,0.394-0.114,0.337
		c-0.967-0.255-1.877-0.635-2.611-1.223C477.263,88.319,478.847,91.335,481.805,91.966z"/>
	<path fill="#AD8866" d="M366.044,229.972c0,8.418,0,29.958-0.336,36.347c-0.337,6.401-6.732-7.061-6.732-15.816
		C358.977,241.753,366.044,210.452,366.044,229.972z"/>
	<path fill="#AD8866" d="M341.138,212.47c2.694,13.799,4.037,35.003,1.35,48.134c-1.647,8.016,7.742-13.491,6.727-24.233
		C347.532,218.532,339.308,203.076,341.138,212.47z"/>
	<path fill="#D3BC9E" d="M364.024,164.007c-6.405-0.534-16.807,6.187-18.176,13.457
		C344.841,182.852,376.139,165.011,364.024,164.007z"/>
	<path fill="#D3BC9E" d="M379.17,210.452c0.415,9.777,1.347,29.285,1.684,36.683c0.337,7.407,5.387-9.081,4.714-20.194
		C384.895,215.839,378.159,186.558,379.17,210.452z"/>
	<path fill="#D3BC9E" d="M362.341,216.847c0.408,5.716-4.374,23.561-5.048,17.839c-0.671-5.726-1.01-31.639-1.01-37.7
		C356.283,190.934,361.667,207.42,362.341,216.847z"/>
	<path fill="#ADA087" d="M414.156,42.89c-3.572-3.244-12.405-3.034-14.611,1.104C397.252,48.292,420.22,48.402,414.156,42.89z"/>
	<path fill="#FFDEC7" d="M482.816,207.503c-3.339-0.624-10.217,4.22-9.329,6C474.372,215.279,486.369,208.17,482.816,207.503z"/>
	<path fill="#FFDEC7" d="M456.156,130.417c-0.142-3.797-5.454-12.995-8.22-15.332C443.713,111.535,456.601,142.417,456.156,130.417z
		"/>
	<path fill="#FFDEC7" d="M431.719,112.866c-2.488-1.049-9.055,0.247-10.885,1.999C415.5,119.978,435.939,114.644,431.719,112.866z"
		/>
	<path fill="#FFDEC7" d="M421.278,130.417c-1.128,0.399-8,5.33-9.332,9.109c-1.333,3.776-3.553-3.997,1.332-8.888
		C418.168,125.752,424.387,129.307,421.278,130.417z"/>
	<path fill="#FFDEC7" d="M337.947,346.955c-2.996,1.683-4.852,7.988-2.851,11.126C337.09,361.218,342.513,344.382,337.947,346.955z"
		/>
	<path fill="#FFDEC7" d="M328.532,366.067c3.607-1.007,7.179-3.76,2.852-3.422c-1.726,0.127-6.849,1.712-7.701,2.852
		C323.324,365.976,325.953,366.792,328.532,366.067z"/>
	<path fill="#D3BC9E" d="M408.056,244.757c-1.647-4.828-6.616-6.926-8.769-6.311C397.135,239.063,410.059,250.602,408.056,244.757z"
		/>
	<path fill="#D3BC9E" d="M409.289,212.132c-3.043-1.518-6.616,0.774-7.386,2.006C401.135,215.367,411.446,213.212,409.289,212.132z"
		/>
	<path fill="#D3BC9E" d="M415.134,221.983c0.509,3.977,1.692,15.848,2.307,19.849c0.617,3.997-2.307-1.845-3.539-8.466
		C412.674,226.747,414.367,215.979,415.134,221.983z"/>
	<path fill="#D3BC9E" d="M424.369,218.904c2.981,8.03,9.386,29.39,9.844,35.389c0.462,6.001-6.463-6.314-8.308-13.696
		C424.058,233.218,422.367,213.522,424.369,218.904z"/>
	<path fill="#D3BC9E" d="M356.675,277.524c-3.512,0.468-13.85,1.075-19.388,0.926c-3.234-0.094,3.691-3.848,9.693-4.158
		C350.541,274.109,363.595,276.601,356.675,277.524z"/>
	<path fill="#A99C82" d="M414.847,403.976c1.128,14.105,6.731,58.561,7.404,70.675c0.674,12.114-14.135-17.502-14.807-34.331
		C406.77,423.489,413.501,387.147,414.847,403.976z"/>
	<path fill="#A99C82" d="M375.133,482.144c-8.077-10.1-15.483-14.133-22.887-14.133c-7.281,0-16.327,7.721-19.523,12.113
		c-5.383,7.404,1.35-26.93,18.176-27.603C367.728,451.847,381.384,489.953,375.133,482.144z"/>
	<path fill="#A99C82" d="M359.501,299.862c0.606,7.295,0.933,20.197,0,25.621c-0.936,5.424-3.742-8.231-3.742-13.462
		C355.759,306.783,358.752,290.894,359.501,299.862z"/>
	<path fill="#A99C82" d="M409.991,304.356c-1.282-1.075-6.73-2.43-8.414-0.941C399.896,304.916,412.234,306.224,409.991,304.356z"/>
	<path fill="#A99C82" d="M410.176,339.131c-2.085,0.172-5.423,2.055-5.61,4.298C404.381,345.68,412.419,338.945,410.176,339.131z"/>
	<path fill="#A99C82" d="M408.687,383.823c-2.116-1.512-6.921-1.124-7.856,0.747C399.896,386.435,411.301,385.691,408.687,383.823z"
		/>
	<path fill="#A99C82" d="M439.078,418.11c2.328,10.861,10.772,34.331,13.466,41.066c2.689,6.728-12.792-5.388-14.809-15.485
		C435.714,433.593,437.06,408.689,439.078,418.11z"/>
	<path fill="#A99C82" d="M432.351,307.723c0.559,13.447,2.693,38.364,3.363,48.466c0.674,10.094-7.404-6.735-8.75-21.544
		C425.616,319.839,431.677,291.566,432.351,307.723z"/>
	<path fill="#8F7169" d="M425.221,558.459c-3.059-0.566-9.815-2.1-12.058-2.521c-2.242-0.424,0.839,2.809,4.35,3.366
		C421.016,559.864,429.012,559.163,425.221,558.459z"/>
	<path fill="#8F7169" d="M446.121,537.705c-2.834,0.135-9.959,0.7-11.643,0.564c-1.684-0.143,1.683,2.386,5.753,2.1
		C443.77,540.127,449.064,537.568,446.121,537.705z"/>
	<path fill="#D2BA9C" d="M381.187,515.324c0.139,3.493,0.454,8.525,0.762,10.353c0.302,1.828-3.503-1.067-3.961-4.263
		C377.529,518.216,381.031,511.51,381.187,515.324z"/>
	<path fill="#D2BA9C" d="M357.892,525.525c6.889,0.86,13.569,2.737,9.436,3.355c-4.823,0.709-16.744-1.255-20.247-2.742
		C344.05,524.846,351.071,524.679,357.892,525.525z"/>
	<path fill="#D2BA9C" d="M399.76,520.345c3.783-0.802,7.272-1.025,5.939,0c-1.977,1.527-9.592,2.564-11.571,2.437
		C391.651,522.632,395.848,521.183,399.76,520.345z"/>
	<path fill="#BE9F85" d="M363.372,537.404c6.881-0.023,13.498,0.221,9.895,1.518c-3.543,1.275-14.921,0.767-20.096-0.151
		C347.715,537.804,355.706,537.417,363.372,537.404z"/>
	<path fill="#BE9F85" d="M400.691,527.325c3.407-0.566,6.842-0.76,5.462,0.327c-1.927,1.527-8.227,1.906-10.198,1.677
		C393.247,529.015,396.952,527.949,400.691,527.325z"/>
	<path fill="#A99C82" d="M387.244,341.117c1.269-8.621,4.161-18.267,5.051-13.042c0.996,5.834-0.066,20.706-2.462,25.227
		C385.579,361.35,385.764,351.218,387.244,341.117z"/>
	<path fill="#A99C82" d="M384.965,325.835c1.291-2.071,2.09-1.557,1.176,4.7c-1.028,7.062-2.461,20.926-2.461,25.541
		c0,4.612-4.618-7.697-3.693-15.383C380.52,336.251,383.203,328.642,384.965,325.835z"/>
	<path fill="#7A694D" d="M357.92,451.912c-7.368-2.352-15.704-2.064-20.941,7.292c-5.237,9.366-0.953-9.677,10.152-11.899
		C353.27,446.081,361.412,453.022,357.92,451.912z"/>
	<path fill="#A99C82" d="M415.772,327.396c-0.121,7.014,0,20.906-0.263,25.962c-0.26,5.066-3.373-5.708-3.24-14.923
		C412.354,332.204,415.9,319.995,415.772,327.396z"/>
</g>
</svg>
