<?xml version="1.0" encoding="utf-8"?>
<!-- Generator: Adobe Illustrator 17.0.0, SVG Export Plug-In . SVG Version: 6.00 Build 0)  -->
<!DOCTYPE svg PUBLIC "-//W3C//DTD SVG 1.1//EN" "http://www.w3.org/Graphics/SVG/1.1/DTD/svg11.dtd">
<svg version="1.1" id="Layer_1" xmlns="http://www.w3.org/2000/svg" xmlns:xlink="http://www.w3.org/1999/xlink" x="0px" y="0px"
	 width="800px" height="600px" viewBox="0 0 800 600" enable-background="new 0 0 800 600" xml:space="preserve">
<g>
	<path fill-rule="evenodd" clip-rule="evenodd" fill="#000300" d="M165.098,346.424c-6.036,4.949-14.332,8.498-24.569,7.56
		c3.264,5.616,15.03,5.643,22.758,3.78c29.921-7.206,53.538-30.588,53.538-67.041c0-12.208-1.191-24.738,5.946-33.267
		c9.929-11.867,15.593,8.753,20.949,14.87c3.715,4.239,11.018,8.103,16.389,7.357c-6.566,15.666-16.041,31.238-14.06,54.388
		c0.74,8.659,5.081,16.839,8.79,23.946c2.957,5.664,6.693,11.495,10.346,16.887c6.17,9.099,16.284,24.126,8.019,37.805
		c-6.485,10.729-37.223,11.219-31.035,28.479c4.569,12.745,19.581,13.386,28.965,20.664c5.107,3.965,10.698,9.758,14.483,14.871
		c3.264,4.41,6.856,11.361,8.018,14.118c1.163,2.751,2.696,8.755,4.138,10.582c1.352,1.712,4.675,2.247,7.154,3.239
		c-1.506,5.069-1.627,9.616-1.722,15.41c11.486,13.352,46.737,16.99,66.725,9.073c-6.757-8.975-13.813-17.017-22.711-27.552
		c-0.41-1.466-1.129-3.345-2.117-3.952c-3.768-2.314-20.977-8.549-26.955-12.064c-6.912-4.066-13.452-8.832-19.081-14.401
		c-4.112-4.062-7.942-7.965-12.414-12.095c-3.92-3.62-12.885-11.3-10.604-19.156c1.343-4.621,8.041-9.255,12.156-12.095
		c12.349-8.532,34.925-20.404,45.001-27.224c5.803,7.753,13.026,23.992,9.31,30.5c-2.644,4.629-11.367,3.396-9.57,11.339
		c0.59,2.602,2.776,4.73,7.018,6.196c5.195,1.796,15.468,3.603,27.897,14.471c5.181,4.53,6.152,9.26,9.881,16.072
		c1.095,2.005,2.19,3.335,3.051,4.09c-0.177,5.116-1.608,13.035-0.45,19.253c1.054,5.652,15.654,8.899,23.953,9.602
		c9.287,0.79,32.905-1.628,33.651-3.903c-5.456-9.833-18.935-27.238-21.983-29.739c-1.4-1.151-10.751-3.058-20.839-9.036
		c-11.843-7.024-26.282-19.744-31.617-23.345c-5.339-3.6-9.906-6.313-10.13-7.941c-0.622-4.525,13.392-11.582,23.405-21.267
		c10.042-9.717,20.2-20.865,16.016-41.481c9.979,7.313,17.655,11.737,32.574,16.536c19.481,6.272,47.687,7.772,64.817-1.174
		c3.433,20.44-2.172,35.666-4.319,53.595c-1.167,9.749-4.674,26.988-9.129,32.853c-3.539,4.655-11.432,4.466-10.604,11.593
		c0.572,4.916,6.063,8.35,8.017,13.608c1.589,10.369,6.516,22.243,9.527,24.511c3.009,2.265,53.685-1.926,59.401-5.605
		c-1.823-2.602-5.62-5.401-8.244-7.448c14.565-1.532,27.449-5.393,30.693-8.558c-8.203-6.53-23.543-16.938-34.22-20.94
		c-2.873-2.936-6.762-4.292-9.169-6.669c0.685-5.468,0.207-47.526,0.893-60.227c0.237-4.411,1.844-8.866,5.128-14.198
		c3.285-5.335,8.487-17.475,11.633-27.212c3.15-9.737,3.08-13.078,6.159-20.14c10.95-11.472,15.482-22.484,17.385-29.612
		c3.294-12.348,2.801-27.384,2.627-42.412c11.058-7.075,14.753-16.944,14.753-16.944s8.624,1.067,12.729-5.202
		c6.569-2.935,12.866-8.004,16.698-12.805c2.052,0.8,4.754,1.16,6.509-0.334c-1.708-18.463-0.215-38.682,5.431-53.43
		c5.462,10.472,11.855,20.036,26.122,21.927c-13.136,20.215-31.405,37.61-38.018,65.024c-5.413,1.606-8.143,5.142-8.871,9.214
		c-2.092-0.542-4.537-0.876-6.074,0.828c-0.457,0.509,0.304,1.252,0.762,0.743c1.282-1.422,3.412-1.015,5.171-0.527
		c-0.336,3.588,0.794,7.489,2.955,10.811c-1.648,0.786-2.425,2.559-2.832,4.292c-0.156,0.659,0.881,0.94,1.037,0.28
		c0.35-1.478,0.936-3.06,2.406-3.678c2.02,2.764,4.78,5.044,8.022,6.258c-1.922,3.48-2.562,7.378-2.61,11.361
		c-0.007,0.677,1.069,0.677,1.08,0c0.045-3.885,0.661-7.641,2.561-11.016c2.737,0.811,5.77,0.879,8.959-0.139
		c-0.553,2.756-0.174,5.715,2.006,7.703c0.509,0.463,1.271-0.278,0.765-0.743c-2.06-1.881-2.263-4.8-1.593-7.384
		c0.419-0.167,0.835-0.327,1.257-0.532c2.746-1.333,4.435-4.249,5.432-7.813c11.898-6.029,25.066-14.634,42.674-12.601
		c0.909,9.534,1.835,19.046,6.983,24.447c4.049,3.695,18.115,7.503,21.467,0.251c2.828-6.124-1.822-15.557,1.55-20.919
		c1.881-2.991,6.926-4.345,10.344-6.301c6.58-3.757,23.918-17.827,14.747-28.227c-2.033-2.304-8.192-5.094-8.192-5.094
		s-4.38-9.87-6.982-19.875c-2.599-10.003-10.932-52.377-14.054-81.64c5.431,6.814,10.025,14.929,14.224,22.934
		c5.19-3.447,4.347-9.052,3.664-13.72c15.605-16.806-9.126-40.731-20.992-51.051c8.259-6.835,13.594-23.489,17.434-27.91
		c3.007-3.468,7.115-6.536,1.961-6.617c-3.227-0.052-7.166,2.216-10.448,5.417c-3.287,3.201-5.186,7.154-7.911,8.696
		c-3.124,1.767-7.955,2.651-11.122,4.789c-3.301,2.229-6.973,6.522-6.973,6.522s-5.202-0.533-9.06,0.536
		c1.313-8.618,1.045-16.001,2.843-24.447c2.26-10.609,13.305-24.331,7.501-29.487c-5.802-5.156-7.783,6.134-10.344,11.593
		c-4.499,9.584-13.932,13.403-21.208,20.414c-6.14,5.919-11.34,14.189-10.604,23.44c-4.497-1.773-10.589-2.33-13.448-2.269
		c-22.641,0.482-43.267,8.141-58.84,15.91c-14.848,7.406-29.946,20.795-41.479,33.273c-5.319,5.755-23.797,29.07-29.842,37.75
		c-6.042,8.68-14.899,20.669-20.59,25.365c-8.27,6.821-23.421,14.305-38.047,18.352c-12.912,3.573-51.022,11.99-66.696,10.444
		c-13.216-1.304-22.732-6.409-36.555-7.311c-11.889-0.776-25.414,0.493-35.213,4.924c-9.428,4.26-21.171,12.528-26.857,21.933
		c-12.654-17.184-17.538-37.001-31.749-52.518c-8.748-9.554-17.25-20.069-36.465-16.13c-3.829,0.785-8.309,3.241-11.379,5.796
		c-11.861,9.869-20.905,30.389-20.95,50.659c-0.042,19.633,5.645,43.547-2.843,58.471c-4.709,8.279-18.346,13.807-28.966,7.562
		c-9.893-5.817-16.022-17.23-16.295-31.504C106.711,306.875,122.194,350.349,165.098,346.424z M498.982,439.926
		c2.404-10.778,5.913-22.892,10.565-27.564c2.74,9.071,5.205,40.657,2.596,59.063c-1.077,7.609-6.906,11.999-9.799,17.395
		C487.941,478.42,495.31,456.404,498.982,439.926z"/>
	<path fill-rule="evenodd" clip-rule="evenodd" fill="#68341F" d="M264.668,269.049c-3.005-2.706-7.944-6.916-8.253-9.737
		c3.803,3.196,10.566,10.777,11.615,3.94c-9.02-13.695-14.729-31.65-25.346-44.86c-7.109-8.85-15.875-22.411-28.965-23.942
		c-5.995-0.703-12.979,1.249-17.07,3.527c-12.907,7.189-20.858,22.708-23.42,41.132c-1.61,11.579-0.444,27.011,0.918,39.381
		c1.048-9.206,0.921-21.256,1.312-29.92c0.697-15.443,7.616-31.957,20.672-35.219c-5.851,4.909-12.247,10.098-15.259,18.902
		c-2.213,6.472-4.065,16.46-3.88,24.698c0.519,23.103-0.064,51.037-14.998,59.984c-20.132,12.059-40.419-8.345-41.638-27.064
		c-3.937,13.938-0.851,30.234,7.477,39.253c9.447,10.228,26.911,20.218,39.849,12.007c16.263-10.321,22.297-32.353,27.155-53.685
		c-1.909,20.739-9.421,40.386-22.24,52.172c13.515-9.199,24.524-26.772,26.638-47.888c0.897-8.939,0.819-19.479,5.689-25.706
		c-2.507,17.754-4.776,38.666-11.38,53.431c-3.135,7.018-8.067,13.732-13.966,18.901c-8.71,7.638-22.356,17.236-32.458,17.236
		c6.298,2.555,21.512-0.513,28.579-4.381c21.638-11.844,39.243-31.327,38.019-62.757c-0.436-11.236,0.841-22.623,4.121-28.76
		c3.281-6.137,6.559-9.078,13.515-9.078c-0.497-3.044-6.956-4.859-10.499-4.475c2.757-3.196,8.387-1.286,9.932-0.279
		c6.46,4.197,8.848,16.735,14.741,23.943c2.981,3.644,8.862,9.009,14.743,6.301c-6.075-2.902-11.846-6.098-14.223-12.602
		c4.144,2.868,7.991,10.835,16.292,8.822c-9.402-7.39-16.502-17.019-21.725-28.481c3.205,4.742,6.679,9.942,10.602,14.618
		C254.775,262.697,258.707,268.615,264.668,269.049z"/>
	<path fill-rule="evenodd" clip-rule="evenodd" fill="#C6812E" d="M322.602,504.195c-9.874-0.866-22.695-3.524-24.245-7.8
		c-4.791-13.207-11.225-25.078-25.412-36.558c-4.158-3.367-9.965-5.478-15.258-8.822c-4.996-3.158-13.133-6.982-12.415-13.606
		c1.691-15.573,25.34-12.019,31.036-23.695c7.174-14.707-1.526-27.938-7.759-38.31c-9.869-16.425-23.571-32.872-18.621-59.982
		c2.724-14.907,8.184-27.057,14.483-39.317c10.97-21.358,23.992-36.539,54.311-39.318c17.629-1.613,30.707,3.856,44.758,6.415
		c15.897,2.893,52.506-4.991,61.295-6.636c8.066-1.509,24.355-7.121,31.537-10.363c6.321-2.854,18.399-10.712,24.761-17.223
		c6.361-6.508,14.831-19.183,22.071-28.489c24.394-31.345,49.853-58.922,100.434-66.508c8.38-1.257,26.691-2.935,35.176-0.935
		c1.406,3.477,4.577,9.491,6.436,8.404c-0.96-3.334-2.9-10.501-3.425-16.005c-0.683-7.202,1.875-13.117,5.151-18.366
		c5.808-9.297,12.506-12.314,20.308-19.916c4.243-4.135,7.253-21.207,11.223-17.873c3.969,3.334-0.683,9.204-3.146,14.673
		c-2.465,5.468-4.658,9.649-5.477,14.005c-0.882,4.694-1.029,9.446-1.642,14.137c-1.081,8.3-2.728,16.192-6.006,23.454
		c-2.481,5.49-4.807,8.693-6.723,10.96c2.875,1.868,7.94-4.001,9.509-7.431c6.873,6.004,17.728,16.636,31.28,30.241
		c0.81,11.057,5.455,38.731,7.053,47.132c4.16,21.828,6.236,43.589,15.94,59.84c4.485,1.975,9.944,5.181,8.115,11.737
		c-3.43,12.256-22,16.641-28.969,25.454c-2.37,3-6.002,7.756-3.88,12.099c2.022-0.889,1.133-4.611,3.622-5.041
		c0.949,3.894,2.897,10.701-0.257,13.357c-4.637,3.899-14.757-1.243-16.812-4.03c-3.221-4.369-3.675-13.48-4.139-21.929
		c-0.648-11.842-7.197-22.613-9.051-35.788c-1.1-7.816-0.229-14.945,0.518-22.683c1.179-12.223,6.043-25.051,13.449-30.496
		c1.997,1.014,2.29,4.966,5.173,4.285c-1.165-6.374-8.066-12.783-14.227-15.122c1.91,3.265,5.769,4.628,7.245,8.317
		c-17.856,13.301-33.325,34.608-46.295,53.934c-4.348,6.479-10.011,13.75-12.673,20.667c-2.013,5.234-4.655,12.201-2.328,17.642
		c4.58,10.709,19.024,4.041,27.156,0.757c5.574-2.253,12.268-4.27,17.327-5.294c2.531-0.512,10.347-1.66,9.829,0.757
		c-0.338,1.57-8.801,2.318-11.123,2.774c-14.728,2.871-23.264,8.127-34.707,12.401c-0.974,1.331-0.24,2.574-0.465,3.979
		c-2.825,4.831-9.542,5.243-15.518,2.521c-5.281-2.406-12.173-17.641-2.844-20.416c1.488-0.441,2.774,0.852,4.137-0.251
		c1.386-1.121,1.272-7.47,1.81-9.324c6.706-23.085,27.337-44.886,40.346-61.496c-24.298-0.254-37.166-25.608-32.844-49.649
		c0.88-4.902,4.482-9.134,3.36-14.114c-5.031,5.188-8.413,15.033-7.927,23.99c-29.561,14.666-49.068,39.126-53.542,77.958
		c-2.263,19.641,1.572,45.892-0.827,63.917c-3.002,22.571-17.466,37.062-33.612,48.765c1.196-2.768,2.336-14.658,4.408-19.836
		c3.492-8.725,7.903-13.196,7.439-14.877c-6.097,1.533-8.961,11.967-10.868,17.08c-2.191,5.868-1.276,9.463-4.289,17.866
		c-3.012,8.403-6.703,23.769-12.249,34.647c-3.248,6.373-8.153,11.463-11.122,17.14c-4.973,9.505-6.913,27.665-9.135,40.001
		c-2.521,13.982-2.215,24.573,4.764,32.359c-8.004,2.174-15.519,4.973-21.53,10.035c-0.351-4.771-8.123-7.117-7.202-13.086
		c0.46-2.981,6.01-5.133,8.276-7.308c1.868-1.794,3.426-7.052,4.397-9.602c3.985-10.462,4.27-19.019,6.887-32.786
		c1.368-7.202,4.614-21.517,5.16-26.317c0.548-4.804,0.659-11.906-0.274-22.809c-1.03-12.037,3.482-37.488,4.002-46.098
		c-2.367,1.233-6.427,30.95-6.96,45.632c-9.459,5.593-32.125,8.643-58.132,3.306c-26.005-5.334-48.673-25.365-62.471-36.047
		c0.509-15.325-3.216-33.337-8.589-45.565c-4.415-10.048-11.26-18.4-18.764-24.033c-3.425-2.572-8.711-6.091-13.449-5.545
		c3.618,4.697,16.629,8.813,24.262,22.139c7.633,13.329,14.736,35.231,12.463,53.47c-0.896,7.19-5.538,15.001-9.826,20.163
		c-19.723,23.727-53.636,35.693-76.812,54.438c-2.023,1.638-6.054,5.861-6.725,8.318c-2.492,9.105,6.342,17.26,11.121,21.925
		c4.642,4.53,9.054,8.537,12.931,12.603c12.526,13.138,28.677,18.984,44.743,26.716C337.41,502.173,330.296,504.867,322.602,504.195
		z"/>
	<path fill-rule="evenodd" clip-rule="evenodd" fill="#AF6B26" d="M681.123,157.132c-4.155,0.76-11.502,4.518-6.879,13.528
		c3.245,6.322,13.32,6.861,16.347,2.655c2.483-3.446,2.064-7.502,0.285-10.469C689.094,159.879,684.329,156.546,681.123,157.132z"/>
	<path fill-rule="evenodd" clip-rule="evenodd" fill="#000300" d="M261.531,443.176c-4.911-3.728-1.981-9.911,3.397-11.315
		C257.813,425.423,250.484,444.527,261.531,443.176z"/>
	<path fill-rule="evenodd" clip-rule="evenodd" fill="#AF6B26" d="M699.82,249.816c-0.15-2.782-2.915-8.32-6.872-8.32
		c-3.954,0-5.227,2.658-6.142,6.899c-0.834,3.856-0.104,7.812,1.458,11.769c1.562,3.956,4.684,8.012,7.805,3.753
		C698.723,260.295,700.131,255.599,699.82,249.816z"/>
	<path fill-rule="evenodd" clip-rule="evenodd" fill="#98725B" d="M306.566,519.064c11.137,11.242,38.616,13.709,58.448,9.073
		c-4.824-6.427-9.791-12.445-14.848-18.491c-8.416,1.931-16.855,2.558-25.444,1.402c-0.687-0.091-0.394-1.107,0.286-1.013
		c8.223,1.104,16.338,0.5,24.399-1.298c-1.726-2.061-3.458-4.124-5.199-6.21c-9.373,3.864-23.268,6.137-34.217,2.669
		C307.8,507.062,306.423,512.626,306.566,519.064z M332.892,513.723c6.136-0.002,12.276-0.098,18.022-2.449
		c0.638-0.264,0.917,0.752,0.287,1.011c-5.836,2.387-12.078,2.483-18.309,2.486C332.197,514.77,332.197,513.723,332.892,513.723z"/>
	<path fill-rule="evenodd" clip-rule="evenodd" fill="#B36425" d="M409.499,480.252c-20.194-8.151-34.157-22.734-51.207-34.531
		c-2.177-1.504-8.115-4.303-8.536-6.047c-0.509-2.112,2.13-5.816,3.104-7.057c4.094-5.217,13.547-10.032,21.565-17.263
		c6.701-6.039,20.616-22.985,13.632-42.781c-7.117-4.403-11.851-8.031-19.065-12.761c-5.793,18.048-18.489,28.137-32.685,38.528
		c4.783,9.002,9.695,16.4,10.086,27.47c0.07,1.935-0.145,4.532-1.292,6.552c-2.306,4.072-15.241,8.029-5.69,12.604
		c8.359,4.004,16.645,5.268,24.052,10.586c6.814,4.891,11.332,10.572,15.516,18.398c0.757,1.412,2.008,4.533,3.918,5.8
		c2.125,1.403,7.311,1.628,10.307,1.76C398.911,481.763,405.373,481.799,409.499,480.252z"/>
	<path fill-rule="evenodd" clip-rule="evenodd" fill="#856855" d="M385,484.352c9.851,0.837,19.296,1.102,29.424-2.499
		c0.991,0.216,3.399,3.045,6.178,6.756c-9.434,2.708-19.536,3.787-29.056,0.84c-0.664-0.203-0.946,0.813-0.286,1.016
		c9.818,3.035,20.299,1.889,30.018-0.956c1.566,2.125,3.223,4.473,4.79,6.759c-10.584,3.696-21.942,2.929-32.41-0.848
		c-0.653-0.235-0.933,0.781-0.286,1.014c10.736,3.874,22.475,4.622,33.313,0.736c2.687,3.941,5.032,7.557,6.092,9.291
		c-15.677,3.69-39.12,4.017-48.881-5.039C382.943,498.526,383.862,489.903,385,484.352z"/>
	<path fill-rule="evenodd" clip-rule="evenodd" fill="#98725B" d="M501.907,494.581c4.723,3.216,9.504,6.385,14.214,9.648
		c-9.723-1.581-19.735-0.661-29.388,1.075c-0.681,0.12-0.393,1.133,0.287,1.011c10.236-1.835,20.917-2.755,31.181-0.632
		c1.471,1.035,2.936,2.076,4.385,3.141c-9.482-0.445-18.7,1.32-27.827,3.891c-0.668,0.184-0.383,1.2,0.286,1.013
		c9.524-2.684,19.152-4.476,29.076-3.76c3.918,2.939,7.727,6.018,11.327,9.348c-10.433,4.02-47.581,5.593-49.168,4.688
		c-1.28-0.728-7.098-14.919-7.802-19.607C483.869,499.148,493.125,496.527,501.907,494.581z"/>
	<path fill-rule="evenodd" clip-rule="evenodd" fill="#856855" d="M533.228,487.726c3.413,1.338,6.929,3.143,10.272,5.15
		c-6.308,0.652-12.02,3.198-17.607,6.1c-0.615,0.317-0.07,1.221,0.543,0.902c5.854-3.037,11.839-5.725,18.555-6.085
		c5.704,3.589,10.761,7.691,13.694,11.006c-7.841,2.7-15.74,4.798-27.376,5.696c-6.705-5.834-22.414-14.184-25.088-17.644
		C506.349,492.554,525.012,484.254,533.228,487.726z"/>
	<path fill-rule="evenodd" clip-rule="evenodd" fill="#B36425" d="M505.578,489.726c5.477-2.804,14.455-5.05,21.492-4.936
		c-0.636-2.488-6.554-4.269-7.655-6.303c1.346-5.219,0.652-13.694,1.034-20.917c0.622-11.813-0.322-23.633,0-33.522
		c0.203-6.178-0.237-10.664,1.81-15.12c7.253-15.793,16.454-31.427,19.975-50.109c-3.683,2.687-7.91,6.86-14.615,10.863
		c-2.464,12.271-8.54,30.653-15.962,39.246c4.179,13.746,3.237,37.838,3.88,55.698c0.167,4.67-0.531,8.565-1.861,11.95
		c-1.422,3.628-5.335,7.207-6.177,8.481C506.653,486.332,505.538,488.926,505.578,489.726z"/>
	<path fill-rule="evenodd" clip-rule="evenodd" fill="#68341F" d="M638.217,110.403c0.041-5.29-5.816-6.672-10.413-7.089
		c-4.338-0.393-8.166-0.386-13.687,0.267c-10.464,1.241-18.205,2.934-30.112,6.935c-11.909,4.003-36.124,16.918-35.988,22.385
		C570.058,116.922,608.602,108.362,638.217,110.403z"/>
	<path fill-rule="evenodd" clip-rule="evenodd" fill="#6E361E" d="M566.226,279.884c3.805-1.194,3.379-5.883,2.861-10.109
		c-0.663-5.388-0.45-11.511,0.241-16.352c1.755,6.207,0.798,16.053,2.634,22.622c1.326-2.068,5.934-7.99,6.677-11.282
		c1.576-6.986-2.119-17.591,1.67-23.531c0.275,4.535-1.046,18.285,2.21,23.279c1.349,0.462,3.13-0.206,3.13-0.206
		s-3.277-20.394,0.956-30.01c-0.546,6.669-0.971,19.683,0.684,29.078c1.979-0.091,3.14-2.528,4.244-3.469
		c-1.369-8.004-1.367-18.927,1.329-25.384c-0.508,6.177-1.444,16.814,0.519,24.446c4.859-2.396,10.881-6.799,15.534-12.667
		c-1.916-11.738,0.137-23.608,2.054-28.411c-1.917,18.007-0.395,28.138,3.01,27.878c-0.958-19.875,2.663-38.953,6.8-53.709
		c-1.968-3.836-3.019-9.462-3.282-12.53c-13.921,4.35-28.673,20.372-34.511,29.339c-4.728,7.263-8.856,15.298-12.365,23.639
		C565.012,245.838,564.718,263.466,566.226,279.884z"/>
	<path fill-rule="evenodd" clip-rule="evenodd" fill="#FFFFFF" d="M622.865,288.96c14.864-11.98,26.974-26.266,41.211-38.853
		c-0.433-5.085,0.976-10.595,0.943-15.083c-15.1,12.589-32.558,31.303-43.19,48.643C621.115,284.832,620.9,288.048,622.865,288.96z"
		/>
	<path fill-rule="evenodd" clip-rule="evenodd" fill="#FFFFFF" d="M621.37,280.579c10.082-13.354,27.828-35.4,43.758-50.035
		c0.55-8.706,3.084-15.429,5.841-21.982c-13.146,11.572-23.826,27.126-35.089,43.074C628.999,261.38,623.716,270.934,621.37,280.579
		z"/>
	<path fill-rule="evenodd" clip-rule="evenodd" fill="#FFFFFF" d="M668.669,269.158c-1.967-4.986-2.887-9.845-3.649-15.232
		c-13.563,11.732-28.678,23.3-40.086,36.293c0,0.168,0,0.336,0,0.504c4.592,1.428,9.117,0.652,12.672-1.259
		C648.123,283.806,657.268,273.308,668.669,269.158z"/>
	<path fill-rule="evenodd" clip-rule="evenodd" fill="#FFFFFF" d="M672.52,280.138c-0.657-3.394-1.453-6.65-3.104-9.074
		c-9.072,3.594-20.108,11.863-27.925,17.518C649.738,287.207,661.702,280.687,672.52,280.138z"/>
	<path fill-rule="evenodd" clip-rule="evenodd" fill="#68341F" d="M712.942,170.272c-0.922-13.639-8.625-25.076-13.521-35.052
		c7.637,5.243,12.696,21.981,15.298,32.251c0.285-5.256-1.229-15.073-2.887-21.666c3.477,2.408,4.255,7.527,4.943,11.663
		c2.059-2.309,2.9-4.889,2.299-10.15c-1.326-11.629-9.053-19.325-16.295-27.472c-6.554-7.374-17.517-15.671-28.189-15.879
		c-5.26-0.102-9.052,6.807-6.983,12.854c0.619,1.813,3.135,4.372,4.655,5.796C686.441,135.91,705.15,152.479,712.942,170.272z"/>
	<path fill-rule="evenodd" clip-rule="evenodd" fill="#000300" d="M690.624,172.772c-4.902,3.47-14.362,0.041-15.519-6.049
		c-1.174-6.188,3.145-9.316,3.145-9.316s-0.664-1.883-0.76-3.937c1.871-1.637,12.962-5.397,12.962-5.397s4.106,3.273,3.794,6.554
		c-2.612,0.861-5.454,1.238-7.469,2.013C693.469,159.069,696.476,168.63,690.624,172.772z"/>
	<path fill-rule="evenodd" clip-rule="evenodd" fill="#FFFFFF" d="M690.884,167.229c-0.703,4.619-5.764,5.528-9.484,3.603
		c-2.569-1.327-4.482-4.174-3.966-7.385c0.748-4.657,4.688-5.889,8.03-4.762C688.775,159.801,691.49,163.23,690.884,167.229z"/>
	<path fill-rule="evenodd" clip-rule="evenodd" fill="#F9EABB" d="M690.059,149.736l-11.154,4.219c0,0-0.029,1.777,0.597,2.94
		c4.126-1.406,8.854-2.429,12.656-3.963C691.743,151.203,690.059,149.736,690.059,149.736z"/>
	<path fill-rule="evenodd" clip-rule="evenodd" fill="#000300" d="M681.062,167.856c3.393,1.102,5.118-4.002,1.487-5.222
		C679.146,161.494,677.311,166.637,681.062,167.856z"/>
	<path fill-rule="evenodd" clip-rule="evenodd" fill="#B36425" d="M713.899,79.017c-7.257-0.378-9.183,7.903-14.742,11.845
		c-5.828,4.133-13.628,4.068-17.017,11.117c4.791,1.468,8.763,4.002,12.456,6.269C701.852,103.714,706.917,86.509,713.899,79.017z"
		/>
	<path fill-rule="evenodd" clip-rule="evenodd" fill="#000300" d="M695.278,258.211c-2.347,3.861-7.177,1.206-8.531-1.26
		c-3.699-6.723-1.369-18.639,7.756-17.39c4.352,0.595,6.769,6.975,6.986,10.334c0.848,13.332-8.52,20.448-12.931,28.226
		c1.504-7.367,14.362-20.467,9.31-32.007c-1.416-3.226-6.795-5.968-8.859-1.759C693.574,245.16,698.59,252.762,695.278,258.211z"/>
	<path fill-rule="evenodd" clip-rule="evenodd" fill="#975527" d="M692.948,253.165c0.786-1.781-2.808-8.117-4.911-5.539
		C688.019,249.829,691.995,251.911,692.948,253.165z"/>
	<path fill-rule="evenodd" clip-rule="evenodd" fill="#000300" d="M620.963,304.172c0.389-0.557,1.322-0.032,0.931,0.529
		c-2.697,3.86-3.782,11.516-1.444,15.764c0.327,0.596-0.603,1.129-0.931,0.53C616.998,316.413,618.033,308.364,620.963,304.172z"/>
	<path fill-rule="evenodd" clip-rule="evenodd" fill="#000300" d="M603.363,318.58c1.315-5.971,3.764-11.592,9.537-14.598
		c0.612-0.319,1.156,0.589,0.544,0.909c-5.535,2.879-7.785,8.267-9.042,13.967C604.257,319.521,603.219,319.239,603.363,318.58z"/>
	<path fill-rule="evenodd" clip-rule="evenodd" fill="#000300" d="M591.326,304.268c4.848-4.198,10.551-6.676,17.099-6.591
		c0.695,0.009,0.695,1.058,0,1.049c-6.266-0.08-11.697,2.269-16.338,6.283C591.569,305.459,590.803,304.717,591.326,304.268z"/>
	<path fill-rule="evenodd" clip-rule="evenodd" fill="#9C5C1F" d="M702.324,123.982c-4.239-4.309-8.818-8.997-14.095-12.113
		c-2.445-1.445-5.051-2.571-7.658-3.689c1.259,0.181,2.798,0.595,4.646,1.321c7.826,3.074,15.409,11.198,18.55,14.88
		c2.516,2.949,4.307,5.45,5.583,7.543C707.196,129.126,704.804,126.504,702.324,123.982z"/>
	<path fill-rule="evenodd" clip-rule="evenodd" fill="#9C5C1F" d="M686.168,111.909c4.966,2.753,9.289,6.766,13.289,10.709
		c3.031,2.988,6.082,6.065,8.682,9.43c1.358,1.762,3.219,4.071,4.095,6.47c0.318,1.523,0.117,2.221,0.117,2.221
		s-0.237-0.317-0.665-0.866c-0.543-0.95-1.176-1.858-1.767-2.787c-1.333-2.087-2.769-4.094-4.304-6.043
		c-3.047-3.866-6.529-7.467-10.138-10.838c-3.578-3.343-7.398-6.53-11.663-9.016c-1.987-1.158-4.055-2.088-6.157-2.938
		c0.107-0.03,0.23-0.049,0.345-0.071C680.756,109.356,683.551,110.457,686.168,111.909z"/>
	<path fill-rule="evenodd" clip-rule="evenodd" fill="#9C5C1F" d="M682.473,111.63c4.198,2.447,8.048,5.397,11.574,8.693
		c3.578,3.343,7.075,6.846,10.145,10.641c0.435,0.54,0.872,1.085,1.293,1.635c-2.798-3.002-6.215-6.311-9.794-8.955
		c-8.833-6.518-17.669-10.084-19.184-12.421c-0.563-0.871-0.583-1.759,0.02-2.37C678.568,109.651,680.573,110.524,682.473,111.63z"
		/>
	<path fill-rule="evenodd" clip-rule="evenodd" fill="#9C5C1F" d="M613.862,105.58c0.186-0.011,0.376-0.023,0.547-0.031
		c3.926-0.183,0.46,1.087-4.638,2.61C610.994,107.097,612.349,106.211,613.862,105.58z"/>
	<path fill-rule="evenodd" clip-rule="evenodd" fill="#9C5C1F" d="M606.002,106.505c1.902-0.303,3.639-0.531,5.157-0.692
		c-1.309,0.835-2.494,1.849-3.57,2.988c-2.685,0.775-5.571,1.572-7.973,2.247c-1.254,0.353-2.699,0.763-4.25,1.205
		C598.417,109.746,602.106,107.865,606.002,106.505z"/>
	<path fill-rule="evenodd" clip-rule="evenodd" fill="#9C5C1F" d="M598.096,108.038c1.026-0.231,2.047-0.457,3.036-0.655
		c-3.014,1.462-5.785,3.291-8.096,5.535c-0.419,0.12-0.844,0.242-1.271,0.364C593.422,111.187,595.698,109.493,598.096,108.038z"/>
	<path fill-rule="evenodd" clip-rule="evenodd" fill="#9C5C1F" d="M585.268,111.786c0.261-0.098,0.51-0.196,0.777-0.293
		c2.954-1.07,6.024-1.962,9.046-2.728c-1.957,1.426-3.702,3.058-4.959,4.985c-2.875,0.827-5.809,1.677-8.419,2.438
		C582.645,114.576,583.861,113.101,585.268,111.786z"/>
	<path fill-rule="evenodd" clip-rule="evenodd" fill="#9C5C1F" d="M582.92,112.706c-1.047,1.204-1.943,2.507-2.638,3.901
		c-3.228,0.946-5.773,1.703-6.741,2.018C571.083,119.424,574.514,116.171,582.92,112.706z"/>
	<path fill-rule="evenodd" clip-rule="evenodd" fill="#D79C2E" d="M661.072,110.304c1.84-4.548,3.965-13.523,4.27-19.021
		c0.306-5.498,1.219-11.739,2.289-14.563c1.066-2.824-4.423,0.743-7.016,8.768c-2.593,8.024-4.422,15.305-5.793,22.884
		c-1.374,7.579-2.136,15.157,0.151,12.483C657.26,118.181,659.089,115.208,661.072,110.304z"/>
	<path fill-rule="evenodd" clip-rule="evenodd" fill="#D79C2E" d="M702.092,201.695c-0.856-6.547-3.354-16.939-3.963-21.546
		c-0.61-4.608-6.254,5.794-3.508,25.113c2.744,19.318,5.795,28.235,10.37,32.246c4.573,4.012,4.878,1.188,3.354-4.606
		C706.82,227.106,703.162,209.868,702.092,201.695z"/>
	<path fill-rule="evenodd" clip-rule="evenodd" fill="#D79C2E" d="M653.298,203.032c-6.284-0.098-21.653-6.091-25.62-18.574
		c-3.964-12.483-3.354-20.358,1.067-24.371c4.422-4.012,17.843,9.361,23.636,19.318
		C658.176,189.361,662.752,203.182,653.298,203.032z"/>
	<path fill-rule="evenodd" clip-rule="evenodd" fill="#D79C2E" d="M705.908,284.914c-5.377,3.536-10.678,7.43-12.656,12.037
		c-1.984,4.605-1.757,7.58-1.681,9.361c0.154,3.568-10.674-7.727-4.573-16.346c6.098-8.619,14.181-8.471,19.823-10.404
		C712.463,277.632,712.004,280.902,705.908,284.914z"/>
	<path fill-rule="evenodd" clip-rule="evenodd" fill="#D79C2E" d="M594.129,119.221c-8.996,1.189-25.314,6.094-44.221,18.725
		c-13.954,9.32-32.13,28.976-40.563,39.528c-10.219,12.78-16.012,22.438-17.232,25.707c-1.22,3.27,17.689-13.82,33.242-30.761
		c12.524-13.64,40.259-32.989,48.647-37.596C582.388,130.219,611.721,116.896,594.129,119.221z"/>
	<path fill-rule="evenodd" clip-rule="evenodd" fill="#D79C2E" d="M532.855,262.28c-9.336-9.472-23.21-12.851-39.035-14.908
		c-15.825-2.056-35.131,6.042-22.683,7.197c22.155,2.057,52.225,13.367,62.247,23.649
		C543.406,288.498,558.704,288.498,532.855,262.28z"/>
	<path fill-rule="evenodd" clip-rule="evenodd" fill="#D79C2E" d="M345.59,298.265c-6.453-7.546-13.187-10.282-24.794-14.394
		c-11.605-4.112-4.219,7.71,3.166,14.906c7.386,7.199,21.289,20.657,23.738,38.556c1.055,7.71,0,22.103-3.164,29.301
		c-3.165,7.195,16.879-0.514,16.351-22.619C360.361,321.911,356.139,310.602,345.59,298.265z"/>
	<path fill-rule="evenodd" clip-rule="evenodd" fill="#D79C2E" d="M531.275,338.878c-5.453,13.813-12.661,29.301-15.827,39.582
		c-3.165,10.278-9.494,19.534-11.605,19.534c-2.11,0,0-23.133,5.802-38.555C515.448,344.018,539.188,318.829,531.275,338.878z"/>
	<path fill-rule="evenodd" clip-rule="evenodd" fill="#D79C2E" d="M347.7,246.347c-13.648-4.323-27.43-8.74-42.73-3.085
		c-15.297,5.654-22.681,12.852-23.737,17.992c-1.055,5.142,17.935-3.598,31.123-5.655C325.545,253.542,368.8,253.028,347.7,246.347z
		"/>
	<path fill-rule="evenodd" clip-rule="evenodd" fill="#D79C2E" d="M493.812,486.064c-2.085-1.481-6.591-4.229-10.233-1.016
		c-3.642,3.209-5.552,8.447-3.642,8.957C481.844,494.514,495.72,487.417,493.812,486.064z"/>
	<path fill-rule="evenodd" clip-rule="evenodd" fill="#D79C2E" d="M326.95,494.849c-4.007-2.014-12.142-5.407-17.693-3.716
		c-5.549,1.69-7.455,5.072-2.254,6.253c5.203,1.185,11.967,1.861,16.13,1.353C327.298,498.23,332.327,497.554,326.95,494.849z"/>
	<path fill-rule="evenodd" clip-rule="evenodd" fill="#BD7323" d="M492.161,350.746c-1.044,4.064-2.578,12.873-3.545,19.781
		c-0.966,6.911-0.644,13.818-3.222,15.075c-2.579,1.254-13.856,3.45-8.699-13.192C481.45,357.058,494.093,343.209,492.161,350.746z"
		/>
	<path fill-rule="evenodd" clip-rule="evenodd" fill="#BD7323" d="M368.105,318.402c-3.194-10.469-5.8-15.701-11.277-21.978
		c-5.478-6.282,8.056-4.084,20.621,12.559c9.636,12.758,17.724,38.308,10.958,44.902c-6.769,6.595-16.435,2.196-16.112-2.513
		C372.616,346.665,371.651,330.02,368.105,318.402z"/>
	<path fill-rule="evenodd" clip-rule="evenodd" fill="#BD7323" d="M432.551,235.82c-6.612,2.353-22.879,5.024-34.157,6.909
		c-11.278,1.883-22.555,2.825-27.389,2.825c-4.832,0,1.289,15.702,23.199,16.328C416.116,262.509,466.061,223.887,432.551,235.82z"
		/>
	<path fill-rule="evenodd" clip-rule="evenodd" fill="#9C5C1F" d="M248.861,232.905c-1.509-3.434-15.463-28.578-30.445-33.347
		c-12.328-3.923-21.641,0.246-26.924,5.396c-5.282,5.149-7.547,12.014-7.547,12.014s11.024-10.7,17.863-12.751
		c9.814-2.943,20.885,1.717,27.428,6.865C238.558,218.423,248.861,232.905,248.861,232.905z"/>
	<path fill-rule="evenodd" clip-rule="evenodd" fill="#9C5C1F" d="M248.609,237.074c0,0-9.214-13.035-17.752-19.366
		c-11.595-8.603-22.003-7.36-30.307-3.928c-8.304,3.432-13.336,9.809-16.606,19.371c-3.272,9.562-3.379,14.966-3.774,19.37
		c-0.505,5.64-1.762,23.05-1.762,23.05s5.134-21.561,8.05-32.122c3.523-12.752,7.248-22.014,16.609-25.5
		c8.554-3.188,17.048-2.296,24.85,2.118C235.053,224.106,248.609,237.074,248.609,237.074z"/>
	<path fill-rule="evenodd" clip-rule="evenodd" fill="#9C5C1F" d="M235.011,227.321c0,0-15.916-14.963-31.189-7.656
		c-13.84,6.621-15.853,30.161-15.853,30.161s6.187-23.679,20.215-27.059C225.467,218.604,235.011,227.321,235.011,227.321z"/>
	<path fill-rule="evenodd" clip-rule="evenodd" fill="#9C5C1F" d="M177.403,300.826c0,0-1.007,21.334-23.903,21.577
		c-22.898,0.248-30.193-16.917-30.193-16.917s4.528,23.787,30.443,22.56C179.666,326.817,177.403,300.826,177.403,300.826z"/>
	<path fill-rule="evenodd" clip-rule="evenodd" fill="#9C5C1F" d="M176.143,317.745c0,0-4.968,13.566-25.38,12.228
		c-17.799-1.169-22.678-10.755-22.678-10.755s6.04,14.959,26.924,13.732C175.893,331.723,176.143,317.745,176.143,317.745z"/>
</g>
</svg>
