<?xml version="1.0" encoding="utf-8"?>
<!-- Generator: Adobe Illustrator 17.0.0, SVG Export Plug-In . SVG Version: 6.00 Build 0)  -->
<!DOCTYPE svg PUBLIC "-//W3C//DTD SVG 1.1//EN" "http://www.w3.org/Graphics/SVG/1.1/DTD/svg11.dtd">
<svg version="1.1" id="Layer_1" xmlns="http://www.w3.org/2000/svg" xmlns:xlink="http://www.w3.org/1999/xlink" x="0px" y="0px"
	 width="800px" height="600px" viewBox="0 0 800 600" enable-background="new 0 0 800 600" xml:space="preserve">
<g>
	<g>
		<path d="M232.62,452.19c0.618,0.72,1.398,1.019,2.259,1.058c-0.098,7.815,2.47,18.372,10.963,20.252
			c-2.628,3.023-4.912,7.089-3.076,11.099c1.909,4.16,5.232,5.417,9.506,3.639c2.138-0.887,3.644-3.435,5.087-5.083
			c0.585-0.672,1.223-1.301,1.866-1.922c-1.453,2.269-2.473,4.692-2.707,7.305c-0.607,6.701,5.779,14.32,9.963,18.895
			c3.754,4.106,9.07,9.957,15.187,9.618c0.1,0.899,0.395,1.744,0.947,2.519c5.698,8.019,17.535-11.199,19.492-14.141
			c9.621-14.482,23.286-26.718,37.178-37.389c-7.394,10.124-15.033,20.122-23.688,29.195c-3.832,4.008-7.735,7.924-11.195,12.272
			c-3.097,3.882-13.823,18.333-1.565,17.254c0.063-0.007,0.095-0.032,0.149-0.046c4.57,8.827,16.588,20.008,27.184,18.46
			c0.362,1.434,1.709,2.519,4.681,2.92c9.224,1.248,16.38-12.842,21.228-18.536c12.032-14.136,21.484-29.913,30.739-45.932
			c1.255-0.509,2.449-1.28,3.522-2.461c9.201-10.111,14.601-26.738,18.675-39.529c7.861-24.694,9.666-49.981,8.577-75.363
			c0.401-0.062,0.805-0.209,1.198-0.506c56.987-42.819,113.868-89.976,132.06-162.093c0.035-0.148-0.003-0.255,0.014-0.393
			c17.193-1.431,42.497-6.323,38.644-27.557c-2.416-13.28-7.067-24.825-7.754-38.576c-0.41-8.177,0.509-20.428-3.222-30.275
			c-5.336-14.075-29.746-3.157-38.278-0.083c-15.371,5.546-28.057,9.947-43.43-0.8c-15.777-11.034-23.632-24.584-33.308-40.609
			c-7.944-13.174-25.782-34.329-37.762-11.348c-8.024,15.394-8.895,32.299-18.155,47.422c-4.273,6.979-6.763,14.901-4.212,23.001
			c1.471,4.674,3.258,9.448,5.323,14.212c-45.915,16.198-75.391,66.107-81.046,112.575c-3.326,27.342,3.718,55.396-1.563,82.463
			c-5.396,27.633-20.976,62.035-44.403,78.641c-0.922,0.655-1.275,1.841-1.015,2.892c-13.103,5.385-24.852,12.849-36.778,20.435
			C240.634,437.761,228.042,446.835,232.62,452.19z M447.306,188.908c0.171-0.277,0.235-0.56,0.307-0.845
			c2.281,1.464,4.616,2.831,7.045,3.993c9.868,4.748,19.698,7.765,29.595,9.654c-12.8,39.607-52.674,56.876-74.209,90.275
			c-0.827-16.314,0.628-32.324,7.13-48.242C425.102,224.349,436.541,206.804,447.306,188.908z"/>
		<path fill="#6A8300" d="M521.247,179.752c-12.179-0.839-23.646-4.125-35.283-7.67c-11.529-3.51-23.479-7.043-34.259-12.533
			c-18.622-9.485-32.442-24.257-43.98-41.051c-0.034-1.325,0.04-2.618,0.305-3.829c1.021-4.673,3.198-8.813,5.573-12.88
			c0.816,1.236,1.599,2.494,2.42,3.726c12.422,18.605,24.96,39.822,46.399,49.05c11.462,4.927,23.462,8.398,35.712,10.764
			c11.251,2.177,22.409,4.126,33.873,2.519c10.263-1.44,20.486-3.726,30.591-6.019c5.377-1.215,11.268-2.497,16.02-5.454
			c0.995,3.78,2.207,7.463,3.34,11.374C563.179,176.538,541.859,181.176,521.247,179.752z"/>
		<path fill="#F08603" d="M452.629,163.389c22.47,9.948,48.375,18.984,73.149,19.592c19.46,0.469,39.298-4.029,57.012-12.264
			c7.916,30.16-34.499,26.945-53.257,28.079c-28.186,1.701-59.896,0.187-83.095-18.394c-9.717-7.788-17.783-17.188-23.987-28.004
			c-3.75-6.542-10.515-16.851-13.395-26.343C420.626,141.83,434.481,155.353,452.629,163.389z"/>
		<path fill="#F08603" d="M562.902,135.839c-5.292,0-19.378-7.293-26.667-3.626c-5.807,2.92-8.278,7.51-12.516,7.51
			c-4.233,0-5.292-3.884-10.274-7.714c-4.891-3.76-10.109-6.834-17.257-6.941c-2.401-0.035-10.591,1.947-13.768,0.182
			c-3.177-1.766-5.296-9.885-10.853-14.244c-7.069-5.547-12.516-0.914-17.387-5.524c-4.451-4.212-1.766-13.061-8.827-20.474
			c-6.684-7.02-18.403-4.003-22.195-5.117c3.536-14.144,11.627-43.065,26.878-24.68c13.313,16.046,19.157,36.214,36.012,49.609
			c12.761,10.137,27.918,17.147,44.063,11.481c5.63-1.979,32.031-12.625,39.396-10.67c4.116,1.091,5.571,10.046,6.225,19.727
			C574.313,127.556,568.199,135.839,562.902,135.839z"/>
		<path fill="#6A8300" d="M422.41,82.921c11.213-1.098,19.012,1.17,21.824,6.427c3.388,6.329,3.986,16.491,8.179,20.016
			c4.624,3.886,12.893,0.97,17.593,4.662c4.175,3.281,6.765,12.634,11.354,15.107c5.012,2.696,8.784-1.609,16.649-0.771
			c5.944,0.632,10.917,3.971,17.785,10.136c6.866,6.166,10.21,6.371,12.515,3.696c15.18-17.65,25.429-3.336,32.828-3.53
			c7.403-0.194,10.364-2.507,14.878-8.328c0.039,0.831,0.073,1.656,0.108,2.473c-2.979,4.742-3.904,12.227-14.279,13.268
			c-10.375,1.042-15.531-9.53-29.49,1.167c-6.217,4.766-13.534,5.146-17.103,0.951c-3.575-4.194-12.024-9.555-17.613-10.978
			c-9.571-2.435-10.63,4.977-20.515,0.741c-9.883-4.236-7.06-11.296-13.414-15.884c-6.352-4.589-13.711,0.128-19.064-4.589
			c-4.83-4.262-2.116-12.71-8.823-20.828c-6.706-8.119-16.516-4.965-16.516-4.965s1.928-4.276,2.549-6.587
			C422.014,84.498,422.199,83.763,422.41,82.921z"/>
		<path fill="#F08603" d="M442.53,121.367c5.554,4.021,13.628,0.644,19.415,4.942c5.785,4.297,4.641,11.147,13.414,14.825
			c10.944,4.59,14.121-2.824,22.686,0.248c4.604,1.651,8.025,3.636,11.202,6.459c3.177,2.825,6.497,6.941,13.414,7.767
			c5.446,0.65,7.057-2.808,11.649-5.648c3.096-1.914,4.591-4.941,9.883-4.236c5.298,0.705,10.337,2.824,18.003,2.824
			c7.415,0,12.004-3.884,14.116-10.554c0.11,3.106,0.23,5.932,0.427,8.151c0.224,2.493,0.629,4.833,1.132,7.117
			c-6.77,4.963-17.2,5.895-24.923,7.473c-9.316,1.9-18.762,4.444-28.317,4.663c-11.534,0.265-23.307-2.205-34.465-4.933
			c-11.885-2.906-25.063-6.423-35.317-13.409c-16.95-11.558-28.588-30.739-39.553-48.113c0.585-0.976,1.156-1.954,1.727-2.944
			C442.176,90.655,432.293,113.953,442.53,121.367z"/>
		<path fill="#6A8300" d="M509.677,204.335c-4.832,14.903-10.394,29.804-19.199,42.743c-9.675,14.208-22.774,24.933-35.989,35.71
			c-13.092,10.677-25.41,20.771-34.701,35.152c-2.009,3.104-3.9,6.274-5.706,9.486c-0.521-4.076-1.068-8.152-1.644-12.218
			c3.669-7.297,8.119-14.18,13.568-20.354c10.642-12.042,23.907-20.233,36.179-30.342c18.544-15.286,33.502-37.127,40.272-60.498
			C504.852,204.178,507.266,204.254,509.677,204.335z"/>
		<path fill="#F08603" d="M525.002,204.455c1.562,2.618,0.904,10.721,0.904,10.721l-18.494,8.869c0,0,1.034,15.453,2.801,21.542
			c-6.863,1.771-16.351,6.19-16.351,6.19s-5.348,14.767-7.017,20.228c-0.41,1.317-2.215,10.148-2.176,10.141
			c-7.538,0.72-26.595,7.295-26.595,7.295s-0.044,11.821-0.023,17.682c-9.782-0.564-19.106-0.003-19.106-0.003l-8.105,24.884
			c0,0-10.451,4.255-15.728,4.57c-0.163-1.542-0.241-2.603-0.427-4.137c3.574-6.672,7.501-13.125,12.103-19.123
			c10.592-13.79,24.445-23.88,37.72-34.905c12.275-10.19,23.646-20.756,31.695-34.737c7.135-12.408,12.165-25.682,16.612-39.209
			C516.634,204.541,521.129,204.531,525.002,204.455z"/>
		<path fill="#6A8300" d="M432.545,334.61l8.316-24.638c0,0,13.279-0.289,19.84,0.16c0.574-6.672-0.034-18.333-0.034-18.333
			s17.827-5.083,26.681-6.728c0.415-7.782,8.845-31.052,8.845-31.052s12.042-4.769,16.096-5.817c0.724-0.191,1.552-0.837,1.33-1.721
			c-1.353-5.314-3.578-20.531-3.578-20.531l18.573-8.673c0,0,0.751-9.221-0.643-12.928c0.822-0.024,1.63-0.034,2.446-0.059
			c2.114,5.019,2.121,11.686,3.232,16.84c-1.049,0.01-19.318,5.11-19.14,5.964c1.719,8.155,2.849,16.415,3.158,24.737
			c-6.122,0.56-18.423,5.684-18.423,5.684l-7.092,29.854l-25.406,8.906c0,0-2.19,11.538-3.47,18.272
			c-5.21-0.457-18.534-0.099-18.534-0.099l-9.618,24.923c0,0-15.682,2.672-19.094,2.762c-0.036-0.326-0.428-3.001-0.461-3.325
			C422.356,338.344,432.545,334.61,432.545,334.61z"/>
		<path fill="#F08603" d="M437.958,341.235l8.722-23.612c0,0,12.783-0.226,17.606,0.083c0.913,0.061,1.512-0.459,1.729-1.318
			c1.454-5.716,4.115-17.441,4.115-17.441l24.046-8.987l7.514-29.37c0,0,9.142-5.213,17.778-5.837
			c0.896-0.062,1.35-0.918,1.333-1.717c-0.206-8.405-1.314-16.734-2.981-24.965c5.638-1.356,18.927-3.418,18.927-3.418
			s-1.338-14.936-3.229-20.474c3.378-0.126,6.779-0.273,10.212-0.437c0.471-0.024,0.965-0.049,1.463-0.078
			c-17.793,69.32-73.089,115.068-127.919,156.352c-0.323-5.308-0.537-9.684-1.068-14.986
			C419.638,344.965,437.958,341.235,437.958,341.235z"/>
		<path fill="#F08603" d="M489.579,202.628c3.241,0.486,6.497,0.83,9.765,1.117c-7.99,27.189-26.958,49.714-49.595,66.318
			c-11.413,8.37-22.605,17.276-30.927,28.877c-2.6,3.619-4.926,7.369-7.053,11.211c-0.428-3.347-0.827-6.691-1.129-10.008
			c0.266-0.089,12.996-21.76,28.79-34.069c15.793-12.312,42.379-38.36,50.069-62.71
			C489.574,203.104,489.566,202.868,489.579,202.628z"/>
		<path fill="#6A8300" d="M336.586,545.37c4.66-0.003,9.566-7.571,12.134-10.811c3.063-3.863,6.102-7.708,9.229-11.514
			c9.8-11.919,17.611-25.363,25.305-38.705c-1.313,0.017-2.655-0.167-4.015-0.516c-6.278,11.226-13.571,21.392-21.968,31.168
			c-5.08,5.91-10.233,11.767-15.292,17.699c-1.219,1.431-2.23,2.505-3.598,3.73C337.708,537.029,327.867,545.37,336.586,545.37z"/>
		<path fill="#6A8300" d="M330.379,542.382c0.03-0.007,0.055,0.003,0.084,0c1.869-5.024,9.594-11.676,11.062-13.402
			c12.661-14.848,25.433-28.947,35.05-46.016c-4.015-1.534-7.908-4.022-10.856-5.782c-1.537-0.916-3.113-1.834-4.686-2.748
			c-13.379,19.007-28.992,36.245-43.686,54.219c-1.123,1.367-2.155,0.476-1.028-0.901c14.607-17.873,28.997-35.828,42.323-54.701
			c-1.879-1.086-3.774-2.173-5.684-3.253c-6.73,9.772-13.354,19.231-21.803,27.685c-8.947,8.951-18.84,17.147-25.128,28.324
			c-0.073,0.13-0.169,0.211-0.262,0.304C310.081,533.955,321.214,544.113,330.379,542.382z"/>
		<path fill="#6A8300" d="M313.899,502.89c-3.154,3.268-6.119,6.723-8.904,10.315c-1.63,2.111-8.702,10.581-1.44,11.175
			c0.066-0.013,0.124-0.054,0.194-0.064c6.001-10.478,14.928-18.546,23.531-26.861c9.093-8.79,16.16-18.694,23.277-29.021
			c-1.913-1.083-3.837-2.17-5.767-3.271C335.215,478.387,325.25,491.136,313.899,502.89z"/>
		<path fill="#F08603" d="M386.997,436.209c9.165-21.836,14.311-46.455,12.757-70.155c-1.12-17.186-6.229-33.951-6.666-51.189
			c-0.429-17.009-0.173-34.698,3.718-51.342c4.116-17.613,12.7-33.156,20.996-49.07c4.289-8.235,8.397-16.756,13.627-24.443
			c2.155-3.165,4.339-6.283,6.343-9.506c1.836,1.666,3.693,3.222,5.564,4.612c-0.111,0.124-0.241,0.202-0.343,0.365
			c-17.119,28.449-37.691,57.755-38.952,92.178c-1.428,39.094,10.935,77.333,8.175,116.762
			c-1.485,21.282-6.487,40.506-14.254,60.311c-2.697,6.875-5.144,15.538-10.179,21.078c-6.266,6.89-18.952-2.996-24.06-6.232
			c-0.811-0.506-1.641-1.012-2.461-1.52C373.648,462.591,381.866,448.431,386.997,436.209z"/>
		<path fill="#F08603" d="M324.682,416.745c9.551-1.588,19.328-1.839,28.961-1.028c0.951,0.078,1.903-0.693,1.731-1.717
			c-2.087-12.419-14.413-33.886-14.413-33.886l24.348-14.511l-15.654-29.38l17.991-19.42c0,0-11.87-17.159-16.767-22.939
			c-1.672-1.979-1.699-1.422,0.298-2.849c1.338-0.96,2.688-1.888,4.073-2.772c3.585-2.291,19.108-13.991,19.108-13.991
			s-11.167-15.214-14.922-20.727c7.048-3.879,14.432-7.03,20.985-11.757c0.518-0.376,0.821-1.215,0.51-1.812
			c-3.612-6.937-8.093-13.161-13.025-19.177c6.665-1.954,22.582-9.326,22.582-9.326s-2.928-12.641-6.81-17.522
			c5.323-0.466,17.671-0.237,17.671-0.237s-1.594-13.087-3.045-18.458c4.686,0.725,15.459,2.925,15.459,2.925
			s4.083-13.12,5.764-19.14c3.705,5.443,7.831,10.757,12.224,15.496c-19.881,23.51-36.621,52.246-44.946,81.861
			c-8.039,28.596-8.408,58.214-6.288,87.653c1.698,23.504,4.375,45.638-1.399,68.847c-4.489,18.033-13.379,40.176-32.113,46.71
			c-4.456-2.571-8.938-5.174-13.402-7.806C329.759,440.34,326.665,428.642,324.682,416.745z"/>
		<path fill="#6A8300" d="M354.027,218.549l23.421-12.501c0,0-4.816-15.292-8.628-20.879c7.335-0.854,23.495,1.069,23.495,1.069
			s-3.081-14.36-3.625-20.794c6.641,1.697,21.67,2.341,21.67,2.341s3.224-10.915,4.657-15.762c0.735,1.227,1.546,2.453,2.328,3.682
			c-1.855,6.946-6.141,18.508-6.141,18.508s-9.978-1.466-14.805-2.429c-1.222-0.247-1.948,1.073-1.632,2.098
			c1.642,5.277,2.582,11.412,3.304,16.85c-5.786-0.705-18.1,0.579-18.1,0.579l6.919,18.296c0,0-17.372,7.205-22.162,8.974
			c-0.89,0.327-1.287,1.591-0.66,2.342c2.955,3.523,12.798,19.174,12.798,19.174s-14.611,8.273-20.553,11.654
			c-0.774,0.437-0.714,1.51-0.32,2.154c3.767,6.087,13.255,20.211,13.255,20.211s-17.59,11.528-22.972,17.161
			c-0.448,0.467-0.445,1.389-0.033,1.874c5.042,5.918,17.163,22.944,17.163,22.944l-18.095,19.568l15.344,28.741
			c0,0-18.49,10.834-23.577,14.354c-0.666,0.462,12.563,22.048,14.869,33.797c-9.755-0.68-19.645-0.385-29.264,1.377
			c-0.806,0.147-1.47,0.857-1.332,1.716c1.81,11.41,4.625,22.671,8.164,33.682c-1.466-0.884-2.949-1.744-4.401-2.642
			c-2.441-7.386-5.448-14.583-7.647-22.048c-1.744-5.927-3.835-12.97-2.732-19.232c0.457-2.59,19.89-0.032,22.678,0.393
			c1.226,0.192,1.952-1.032,1.631-2.095c-1.431-4.766-11.748-27.531-11.748-27.531l25.396-13.289c0,0-3.523-10.93-5.791-16.159
			c-1.793-4.123-5.782-12.391-5.782-12.391l14.456-18.6c0,0-3.16-5.581-7.392-11.469c-2.496-3.462-8.219-13.982-8.219-13.982
			l20.731-17.773c0,0-10.782-15.317-16.089-21.5c5.78-2.966,21.051-12.839,21.051-12.839L354.027,218.549z"/>
		<path fill="#F08603" d="M331.977,278.647c-0.728-28.532,5.268-57.296,19.744-82.151c7.634-13.104,17.062-25.708,29.047-35.182
			c5.994-4.741,12.138-8.806,18.935-12.336c4.45-2.315,8.956-4.883,10.67-5.314c0.763,1.502,1.591,3.032,2.448,4.565
			c-1.843,5.259-3.742,10.859-4.917,16.488c-6.876-0.524-21.875-2.296-21.875-2.296s1.239,13.939,2.838,20.239
			c-7.631-1.101-15.174-1.446-22.856-0.216c-1.211,0.191-1.638,1.453-1.037,2.439c3.993,6.583,8.403,20.056,8.403,20.056
			l-23.335,12.132l11.082,19.912c0,0-13.82,7.96-19.761,12.383c-0.654,0.489-0.833,1.491-0.314,2.151
			c3.559,4.53,14.393,20.464,14.393,20.464l-19.529,17.513c0,0,6.218,11.356,9.799,16.602c2.198,3.217,5.698,9.108,5.698,9.108
			l-14.929,16.655c0,0,2.248,4.793,3.36,6.974c2.111,4.144,8.251,21.621,8.251,21.621l-23.86,14.094
			c0,0,10.038,23.629,11.274,27.935c-7.385-0.93-14.729-0.936-22.186-0.53c-0.697,0.037-1.214,0.675-1.327,1.318
			c-2.444,13.866,3.961,27.442,8.866,40.712c-12.613-8.149-24.406-17.292-33.605-28.931c18.64-14.372,29.276-37.134,37.804-58.539
			C335.269,330.88,332.663,305.554,331.977,278.647z"/>
		<path fill="#DC6A03" d="M582.791,170.716c-4.584,2.13-9.307,4.006-14.127,5.614c3.194,4.419,7.145,8.362,11.592,11.549
			C583.547,183.903,584.807,178.398,582.791,170.716z"/>
		<path fill="#DC6A03" d="M575.732,125.357c-0.118-1.77-0.267-3.514-0.451-5.192c-4.128,4.559-7.715,9.766-10.318,15.294
			C569.688,133.816,574.494,127.275,575.732,125.357z"/>
		<path fill="#DC6A03" d="M576.738,146.144c-0.197-2.219-0.317-5.045-0.427-8.151c-2.112,6.671-6.701,10.554-14.116,10.554
			c-0.43,0-0.827-0.029-1.243-0.041c-0.509,3.581-0.513,7.184,0.093,10.739c5.971-1.117,12.236-2.621,16.825-5.984
			C577.367,150.978,576.962,148.638,576.738,146.144z"/>
		<path fill="#DC6A03" d="M507.676,227.453c-0.171-2.046-0.263-3.408-0.263-3.408l18.494-8.869c0,0,0.658-8.103-0.904-10.721
			c-3.873,0.076-8.368,0.086-12.186,0.008c-2.483,7.548-5.162,15.015-8.273,22.3C505.588,226.998,506.63,227.232,507.676,227.453z"
			/>
		<path fill="#DC6A03" d="M435.62,303.27c-3.116,3.158-6.085,6.472-8.831,10.045c-4.602,5.997-8.529,12.45-12.103,19.123
			c0.186,1.534,0.264,2.595,0.427,4.137c5.276-0.315,15.728-4.57,15.728-4.57l7.335-22.526
			C437.285,307.427,436.428,305.358,435.62,303.27z"/>
		<path fill="#DC6A03" d="M518.052,229.322c5.891,0.894,11.811,1.502,17.701,1.744c3.786-8.726,6.983-17.832,9.441-27.403
			c-0.498,0.029-0.992,0.054-1.463,0.078c-3.433,0.164-6.834,0.31-10.212,0.437c1.891,5.539,3.229,20.474,3.229,20.474
			s-13.289,2.062-18.927,3.418C517.905,228.486,517.969,228.906,518.052,229.322z"/>
		<path fill="#DC6A03" d="M444.737,322.88l-6.779,18.355c0,0-18.321,3.73-21.752,3.794c0.531,5.302,0.745,9.679,1.068,14.986
			c11.413-8.596,22.844-17.385,33.951-26.539C448.921,330.055,446.751,326.526,444.737,322.88z"/>
		<path fill="#DC6A03" d="M491.354,223.339c3.28-6.225,5.982-12.763,7.99-19.594c-3.268-0.287-6.524-0.631-9.765-1.117
			c-0.013,0.239-0.005,0.476-0.081,0.737c-1.766,5.599-4.542,11.278-7.944,16.871C484.779,221.333,488.049,222.37,491.354,223.339z"
			/>
		<path fill="#DC6A03" d="M427.802,277.139c-9.987,11.135-16.967,22.942-17.163,23.005c0.303,3.317,0.702,6.661,1.129,10.008
			c2.127-3.841,4.453-7.592,7.053-11.211c3.323-4.633,7.116-8.823,11.184-12.732C429.185,283.197,428.463,280.17,427.802,277.139z"
			/>
		<path fill="#DC6A03" d="M434.082,200.079c2.997-4.9,6.005-9.763,8.913-14.598c0.101-0.164,0.231-0.241,0.343-0.365
			c-1.871-1.389-3.728-2.946-5.564-4.612c-2.004,3.222-4.188,6.341-6.343,9.506c-1.243,1.833-2.418,3.711-3.553,5.623
			C429.889,197.208,431.948,198.706,434.082,200.079z"/>
		<path fill="#DC6A03" d="M380.026,449.945c-4.771,7.722-10.931,14.654-18.762,18.112c0.821,0.508,1.65,1.014,2.461,1.52
			c5.108,3.236,17.794,13.122,24.06,6.232c5.035-5.54,7.482-14.203,10.179-21.078c0.952-2.428,1.858-4.844,2.725-7.254
			C393.99,449.106,387.091,449.977,380.026,449.945z"/>
		<path fill="#DC6A03" d="M420.354,189.075c3.652-5.033,7.459-9.899,11.396-14.558c-4.392-4.738-8.519-10.052-12.224-15.496
			c-1.681,6.019-5.764,19.14-5.764,19.14s-1.65-0.337-3.931-0.789C413.079,181.51,416.591,185.442,420.354,189.075z"/>
		<path fill="#DC6A03" d="M328.804,435.728c1.421,5.4,3.019,10.757,4.798,16.054c4.464,2.632,8.946,5.235,13.402,7.806
			c6.374-2.222,11.586-6.279,15.894-11.337C350.958,446.069,339.247,441.899,328.804,435.728z"/>
		<path fill="#DC6A03" d="M400.586,164.035c2.741,0.283,5.361,0.534,7.318,0.682c1.175-5.629,3.074-11.228,4.917-16.488
			c-0.857-1.534-1.685-3.063-2.448-4.565c-1.714,0.431-6.219,3-10.67,5.314c-1.955,1.016-3.845,2.089-5.704,3.198
			C396.042,156.214,398.224,160.18,400.586,164.035z"/>
		<path fill="#DC6A03" d="M295.415,407.709c-2.547,2.622-5.247,5.093-8.162,7.344c9.2,11.639,20.993,20.783,33.605,28.931
			c-2.313-6.252-4.948-12.579-6.843-18.968C307.526,419.564,301.457,413.656,295.415,407.709z"/>
		<path fill="#6A8300" d="M378.411,426.039c6.424-18.64,8.985-38.509,7.189-58.134c-3.044-33.22-6.059-67.506,1.498-100.372
			c7.617-33.104,24.94-64.82,46.807-90.797c0.531,0.538,1.049,1.102,1.585,1.623c-2.968,4.874-6.391,9.484-9.424,14.339
			c-4.098,6.58-7.527,13.672-11.088,20.547c-7.092,13.675-15.114,27.305-19.261,42.242c-7.802,28.093-7.132,58.283-2.255,86.786
			c4.708,27.514,4.072,54.629-4.948,81.234c-5.043,14.87-13.97,37.225-30.446,42.587c-2.53-1.529-5.102-3.04-7.69-4.543
			C364.521,455.338,373.411,440.531,378.411,426.039z"/>
		<path fill="#6A8300" d="M286.684,518.287c4.268-0.103,8.656-7.892,10.784-10.91c2.794-3.966,5.228-8.111,8.453-11.755
			c10.601-11.985,22.532-22.855,35.308-32.488c-0.737-0.423-2.633-1.41-3.371-1.832c-13.772,9.724-25.493,19.955-37.039,32.486
			c-3.255,3.54-6.442,7.141-9.461,10.878C290.209,506.093,280.847,518.426,286.684,518.287z"/>
		<path fill="#6A8300" d="M279.078,513.56c0.037,0.149,0.02,0.282,0.014,0.412c0.935,0.241,2.717,0.444,3.663,0.351
			c1.43-5.572,7.021-12.101,9.588-15.152c13.006-15.435,27.826-27.261,44.065-38.813c-2.038-1.181-4.064-2.411-6.091-3.625
			c-11.734,8.385-23.797,15.934-33.29,27.025c-4.367,5.1-8.061,10.677-11.812,16.221
			C283.176,503.008,278.134,509.565,279.078,513.56z"/>
		<path fill="#6A8300" d="M264.735,500.904c2.475,3.428,6.742,9.167,11.491,11.86c-0.132-3.563,2.665-7.58,4.267-10.364
			c3.283-5.714,7.192-11.152,11.173-16.385c9.89-12.995,23.009-21.503,36.069-30.821c-3.273-1.996-6.527-4.039-9.722-6.144
			c-18.506,11.481-32.909,27.987-42.877,47.103c-0.816,1.564-1.966,1.24-1.146-0.329c10.024-19.221,23.062-36.694,41.506-48.422
			c-2.322-1.571-4.614-3.172-6.861-4.816c-16.304,10.861-31.566,23.663-45.052,37.861
			C257.023,487.36,259.811,494.082,264.735,500.904z"/>
		<path fill="#6A8300" d="M246.853,484.539c4.702,3.779,13.044-7.519,14.904-9.034c5.934-4.837,11.902-9.527,17.679-14.566
			c7.934-6.939,17.93-13.803,26.733-20.245c-1.106-0.847-3.249-2.475-4.331-3.352c-4.092,1.584-7.684,4.55-11.125,7.175
			c-4.602,3.506-9.292,6.721-14.139,9.886c-5.186,3.381-10.006,7.185-15.034,10.784C255.681,469.374,239.81,478.881,246.853,484.539
			z"/>
		<path fill="#6A8300" d="M238.315,460.485c10.421-13.964,26.65-22.843,41.507-31.292c1.52-0.867,2.323,0.611,0.779,1.488
			c-15.203,8.646-31.112,18.436-41.307,33.122c1.389,3.6,4.178,7.182,8.517,7.663c5.599-5.348,13.152-9.424,19.368-13.987
			c6.145-4.52,12.802-8.272,18.887-12.869c4.177-3.155,8.431-7.067,13.306-9.296c-5.162-4.369-9.973-9.06-14.281-14.139
			c-13.103,5.162-24.65,15.113-36.221,22.861c-1.783,1.194-6.923,6.701-11.234,8.601
			C237.54,454.945,237.716,457.756,238.315,460.485z"/>
		<path fill="#6A8300" d="M240.069,447.586c13.341-10.009,27.804-20.808,43.565-27.135c-0.36-0.451-1.728-2.642-2.076-3.101
			c-10.042,4.068-18.773,9.502-27.904,15.332c-4.037,2.571-8.16,5.09-12.056,7.867c-2.26,1.613-8.166,5.469-7.48,8.72
			C234.805,452.512,237.946,449.177,240.069,447.586z"/>
		<path fill="#476000" d="M562.08,161.943c0.125,0.997,0.279,1.989,0.486,2.975c0.695,3.286,1.765,6.323,3.114,9.172
			c5.576-1.768,11.028-3.886,16.279-6.344c-1.134-3.912-2.345-7.594-3.34-11.374c-4.753,2.957-10.644,4.239-16.02,5.454
			C562.426,161.865,562.251,161.904,562.08,161.943z"/>
		<path fill="#476000" d="M562.87,145.927c9.388-1.428,10.377-8.543,13.253-13.119c-0.035-0.817-0.069-1.642-0.108-2.473
			c-3.705,4.777-6.402,7.164-11.325,7.985C563.98,140.83,563.361,143.372,562.87,145.927z"/>
		<path fill="#476000" d="M501.54,226.331c3.084-7.18,5.731-14.571,8.137-21.996c-2.411-0.081-4.825-0.157-7.219-0.321
			c-2.104,7.258-5.061,14.337-8.607,21.147C496.403,225.629,498.967,226.017,501.54,226.331z"/>
		<path fill="#476000" d="M430.126,290.495c-1.41,1.4-2.785,2.851-4.119,4.359c-5.449,6.175-9.899,13.058-13.568,20.354
			c0.576,4.066,1.124,8.142,1.644,12.218c1.806-3.212,3.696-6.382,5.706-9.486c4.084-6.318,8.775-11.786,13.838-16.866
			C432.173,297.606,430.982,294.07,430.126,290.495z"/>
		<path fill="#476000" d="M510.041,225.95c0,0,0.071,0.461,0.182,1.218c1.449,0.103,2.9,0.192,4.351,0.273
			c-0.022-0.116-0.04-0.23-0.064-0.348c-0.179-0.854,18.09-5.954,19.14-5.964c-1.112-5.154-1.119-11.821-3.232-16.84
			c-0.816,0.025-1.625,0.035-2.446,0.059c1.393,3.706,0.643,12.928,0.643,12.928L510.041,225.95z"/>
		<path fill="#476000" d="M439.801,313.117l-7.255,21.493c0,0-10.189,3.733-16.975,4.197c0.034,0.324,0.425,3,0.461,3.325
			c3.412-0.09,19.094-2.762,19.094-2.762l8.086-20.952C442.031,316.694,440.892,314.921,439.801,313.117z"/>
		<path fill="#476000" d="M375.286,497.916c2.715-4.496,5.352-9.041,7.969-13.576c-1.313,0.017-2.655-0.167-4.015-0.516
			c-2.532,4.526-5.276,8.845-8.144,13.073C372.482,497.28,373.879,497.614,375.286,497.916z"/>
		<path fill="#476000" d="M368.254,496.055c2.954-4.202,5.756-8.531,8.322-13.092c-4.015-1.534-7.908-4.022-10.856-5.782
			c-1.537-0.916-3.113-1.834-4.686-2.748c-3.336,4.741-6.812,9.37-10.378,13.93C356.356,491.483,362.211,494.137,368.254,496.055z"
			/>
		<path fill="#476000" d="M348.415,487.111c3.469-4.639,6.883-9.321,10.229-14.06c-1.879-1.086-3.774-2.173-5.684-3.253
			c-3.288,4.774-6.555,9.476-10.019,14.019C344.751,484.958,346.575,486.056,348.415,487.111z"/>
		<path fill="#476000" d="M340.579,482.307c3.447-4.493,6.711-9.134,9.977-13.874c-1.913-1.083-3.837-2.17-5.767-3.271
			c-3.252,4.493-6.557,8.923-9.939,13.286C336.745,479.768,338.654,481.056,340.579,482.307z"/>
		<path fill="#476000" d="M405.748,173.379c3.031,0.476,5.456,0.833,5.456,0.833s4.286-11.561,6.141-18.508
			c-0.782-1.229-1.594-2.456-2.328-3.682c-1.433,4.847-4.657,15.762-4.657,15.762s-4.3-0.188-9.309-0.617
			C402.553,169.291,404.125,171.355,405.748,173.379z"/>
		<path fill="#476000" d="M317.128,423.466c0.113,0.391,0.228,0.789,0.34,1.171c2.198,7.465,5.205,14.662,7.647,22.048
			c1.453,0.897,2.935,1.758,4.401,2.642c-2.221-6.913-4.114-13.928-5.695-21.007C321.544,426.778,319.313,425.158,317.128,423.466z"
			/>
		<path fill="#476000" d="M422.803,192.013c0.768,0.768,1.522,1.559,2.275,2.362c0.328-0.56,0.646-1.126,0.988-1.677
			c3.033-4.855,6.456-9.465,9.424-14.339c-0.536-0.521-1.054-1.085-1.585-1.623c-4.009,4.763-7.829,9.754-11.498,14.876
			C422.539,191.746,422.669,191.877,422.803,192.013z"/>
		<path fill="#476000" d="M368.76,445.555c-4.769,6.88-10.818,12.67-18.383,15.995c2.588,1.503,5.16,3.015,7.69,4.543
			c9.027-2.939,15.777-10.984,20.875-20.098C375.557,446.041,372.161,445.916,368.76,445.555z"/>
		<path fill="#476000" d="M328.199,473.666c4.23-3.653,8.575-7.172,13.029-10.532c-0.737-0.423-2.633-1.41-3.371-1.832
			c-4.544,3.206-8.848,6.482-13.014,9.868C325.956,472.003,327.075,472.838,328.199,473.666z"/>
		<path fill="#476000" d="M319.709,467.269c1.206,0.925,2.418,1.846,3.636,2.767c4.245-3.29,8.596-6.497,13.064-9.677
			c-2.038-1.181-4.064-2.411-6.091-3.625c-4.232,3.025-8.504,5.943-12.687,8.955C318.323,466.216,319.017,466.739,319.709,467.269z"
			/>
		<path fill="#476000" d="M315.406,463.998c4.049-2.963,8.186-5.847,12.328-8.803c-3.273-1.996-6.527-4.039-9.722-6.144
			c-4.037,2.507-7.868,5.264-11.511,8.22C309.457,459.503,312.427,461.742,315.406,463.998z"/>
		<path fill="#476000" d="M304.403,455.682c3.469-2.993,7.151-5.773,11.092-8.28c-2.322-1.571-4.614-3.172-6.861-4.816
			c-3.759,2.502-7.455,5.12-11.094,7.825C299.812,452.177,302.096,453.934,304.403,455.682z"/>
		<path fill="#476000" d="M295.23,448.617c3.698-2.693,7.414-5.343,10.938-7.923c-1.106-0.847-3.249-2.475-4.331-3.352
			c-4.092,1.584-7.684,4.55-11.125,7.175c-0.105,0.081-0.212,0.157-0.318,0.238C291.993,446.051,293.606,447.336,295.23,448.617z"/>
		<path fill="#476000" d="M275.46,431.672c1.463-0.83,2.919-1.658,4.362-2.478c1.52-0.867,2.323,0.611,0.779,1.488
			c-1.282,0.727-2.569,1.471-3.855,2.217c3.694,3.47,7.529,6.802,11.459,10.045c3.503-2.77,7.119-5.778,11.167-7.629
			c-5.162-4.369-9.973-9.06-14.281-14.139c-4.601,1.812-9.006,4.219-13.291,6.914C273,429.303,274.226,430.494,275.46,431.672z"/>
		<path fill="#476000" d="M270.577,426.801c4.254-2.385,8.597-4.56,13.057-6.35c-0.36-0.451-1.728-2.642-2.076-3.101
			c-4.787,1.94-9.27,4.194-13.646,6.649C268.787,424.951,269.682,425.875,270.577,426.801z"/>
	</g>
	<path fill="#F4A645" d="M445.479,58.863c5.552-1.463,17.414,23.681,20.898,32.737C469.859,100.657,432.244,62.345,445.479,58.863z"
		/>
	<path fill="#F4A645" d="M533.94,118.07c11.16-4.143,34.831-14.628,36.223-5.572C571.555,121.554,509.562,127.126,533.94,118.07z"/>
	<path fill="#F4A645" d="M446.871,173.795c7.772,9.565,30.651,20.9,45.277,19.503C506.777,191.907,437.817,162.649,446.871,173.795z
		"/>
	<path fill="#F4A645" d="M400.899,276.889c-0.569,12.525,4.18,52.937,5.573,66.868c1.394,13.93-9.055-6.271-10.449-36.221
		C394.63,277.584,401.596,261.561,400.899,276.889z"/>
</g>
</svg>
