<?xml version="1.0" encoding="utf-8"?>
<!-- Generator: Adobe Illustrator 17.0.0, SVG Export Plug-In . SVG Version: 6.00 Build 0)  -->
<!DOCTYPE svg PUBLIC "-//W3C//DTD SVG 1.1//EN" "http://www.w3.org/Graphics/SVG/1.1/DTD/svg11.dtd">
<svg version="1.1" id="Layer_1" xmlns="http://www.w3.org/2000/svg" xmlns:xlink="http://www.w3.org/1999/xlink" x="0px" y="0px"
	 width="800px" height="600px" viewBox="0 0 800 600" enable-background="new 0 0 800 600" xml:space="preserve">
<g>
	<path d="M589.871,438.264c-0.167-11.764-2.444-23.246-13.471-28.074c-2.453-11.038-9.574-23.355-15.063-33.929
		c-3.856-7.431-8.902-11.39-16.862-10.402c-0.688-5.301-1.399-10.595-1.98-15.849c-2.032-18.4-2.384-36.963-4.994-55.286
		c-1.146-8.056-3.165-20.843-5.926-26.761c-2.96-6.346-9.639-7.943-13.452-1.912c-5.344,8.457-4.629,19.486-4.295,29.055
		c0.54,15.447,3.714,30.736,5.762,46.023c1.546,11.549,1.745,23.998,2.503,36.404c-3.605,0.882-5.554,4.438-6.62,7.772
		c-1.071,0.235-1.996,0.546-2.984,1.145c-1.275-3.821-3.698-7.072-5.986-10.394c-0.551-0.795-1.283-1.171-2.267-0.186
		c-1.467-2.103-3.69-3.119-4.443-2.132c-2.647,3.473-4.823,7.786-6.366,11.229c-10.137-4.989-24.192-9.352-32.291-0.14
		c-4.397-3.206-18.599-15.483-21.076-17.914c1.31-2.845,2.403-7.356,2.753-9.572c-4.031-5.404-33.175-23.716-41.256-24.723
		c-11.859-11.032-17.28-11.732-20.391-9.757c0.166-3.9,0.577-8.408,0.577-12.017c12.244-3.025,27.272-14.443,26.804-16.808
		c-3.389-17.132-1.647-41.546-1.1-50.256c1.068-16.922,3.115-34.675,4.399-50.251c2.272,2.359,4.363,2.842,8.376,2.435
		c7.449-0.756,14.161-6.125,17.747-12.515c3.35-5.969,3.121-15.267-3.717-18.867c-5.071-2.671-13.021-0.77-18.108,3.447
		c0.925-9.405,3.58-21.408,7.337-34.233c3.921-13.389,10.537-28.585,16.95-37.473c-2.659-8.886-9.254-10.718-15.396-13.654
		c-6.835-3.266-13.831-11.998-15.387-17.769c-3.757,1.1-7.608,7.199-7.506,11.432c-6.605-4.286-17.14-13.631-20.53-19.311
		c-4.912,0.987-6.652,13.727-4.831,19.333c-3.888-1.451-7.995-2.15-12.286-1.433c-7.996,1.336-17.526,6.133-19.527,14.822
		c3.113,0.533,8.129,0.922,12.091,1.633c-5.956,3.757-8.429,11.912-7.237,15.208c1.412-0.349,4.883-0.997,6.322-1.19
		c-1.191,8.888-4.763,27.578-9.053,39.314c-3.4-0.208-6.467,1.579-8.288,5.114c-0.557,1.086,0.937,1.93,1.725,1.122
		c1.289-1.322,3.515-2.258,5.751-2.791c-0.489,2.34-0.787,4.694-0.795,7.065c-4.342,0.383-8.1,5.224-9.692,9.031
		c-1.969,4.705-1.729,14.162,4.593,15.262c-4.946,14.844-14.102,25.036-23.293,36.223c-4.839,5.89-10.169,11.347-15.873,16.398
		c-6.393,5.663-14.139,10.72-21.882,13.534c-0.559,0.203,12.471,15.287,52.6,12.572c0.803,8.851,0.803,34.798-3.623,49.683
		c-0.159,0.544,12.472,5.833,33.593,6.201c0.077,2.709-0.169,5.169-0.606,6.635c-11.04-5.893-29.806,7.376-30.371,15.526
		c1.609,0.202,3.772,0.166,5.028,0.401c-3.198,1.641-8.918,4.828-11.278,7.043c-2.364,2.212-4.265,3.934-7.802,5.42
		c-1.168-0.562-2.278-0.439-3.198,0.287c-0.822-0.486-1.863-0.64-3.179-0.275c-1.251,0.344-2.463,1.363-3.416,2.633
		c-4.916,0.962-13.045,1.977-17.17,1.363c0.082,3.687-0.183,8.146-0.585,11.449c-3.435-0.186-8.343-0.054-11.807,0.787
		c-6.084,1.477-14.167,0.26-17.37-0.945c0.189-3.648,0.409-7.413,0.521-11.067c0.115-3.69,1.441-7.122,2.397-10.652
		c0.926-3.433,1.865-8.004-1.27-10.536c-2.935-2.368-8.163-0.278-11.182,0.751c-0.262,0.09-0.513,0.175-0.775,0.268
		c6.128-3.034,12.507-6.265,15.659-12.594c4.274-8.582,5.483-23.285,1.357-23.077c-0.306,3.316-0.909,6.338-2.845,9.49
		c-2.36,3.845-5.992,7.043-9.314,10.011c-4.625,4.132-10.735,9.309-11.472,15.893c-0.046,0.079-0.095,0.158-0.136,0.237
		c0.23-7.927,1.84-15.679,1.824-23.654c-0.016-9.367-0.432-17.528-2.33-25.783c3.067-3.867,4.161-8.847,5.125-13.782
		c1.035-5.292-0.778-15.417-3.615-21.567c3.424,1.511,6.406,7.294,8.342,10.933c1.993,3.736,4.088,6.975,8.324,8.137
		c7.226,1.979,11.521-8.047,12.039-13.384c0.808-8.339-0.869-16.587-7.629-22.064c-4.18-3.391-10.467-4.79-15.944-3.837
		c3.427-4.961,15.513-6.27,21.756-19.363c3.52-7.382,4.027-17.826-4.246-21.647c-10.27-4.741-20.69,9.217-25.144,22.517
		c-0.765-2.831-2.529-5.189-6.234-6.531c-5.688-2.054-10.555,4.082-12.753,8.272c-4.495,8.567-7.652,22.307-1.674,26.696
		c-5.036,2.214-9.165,7.551-11.179,11.278c-4.416,8.167-5.912,18.984,0,26.89c7.753,10.372,11.379-9.165,14.117-12.36
		c-1.308,10.074-0.38,28.776,10.333,25.451c1.267-0.394,2.405-0.932,3.454-1.565c2.61,13.651,0.983,38.217,0.582,45.625
		c-1.073-4.847-2.114-9.579-4.659-14.008c-1.699-2.955-4.459-5.319-7.08-7.403c-3.997-3.173-7.081-6.635-8.257-11.485
		c-3.154,1.93-1.821,19.58,0.813,26.75c2.141,5.843,7.627,10.473,13.717,11.305c-2.103,0.481-4.249,0.869-6.475,1.097
		c-0.909,0.09-1.529,0.925-1.456,1.808c0.062,0.735,0.192,1.404,0.374,2.035c-5.052,1.289-10.458,6.537-6.941,10.368
		c-3.619,1.325-3.873,6.103-0.928,9.069c0.97,0.978,2.128,1.696,3.389,2.253c-1.34,1.579-1.631,4.011,0.058,5.865
		c1.349,1.482,3.036,2.285,4.869,2.78c-0.934,1.912,0.678,4.307,1.587,5.546c2.24,3.059,6.136,7.387,10.702,6.863
		c-0.42,9.077-1.702,19.661-4.995,27.862c1.059,1.418,6.224,2.177,8.039,0.735c1.5-6.093,3.514-24.82,0.724-33.541
		c3.842,1.74,8.962,3.138,13.496,1.74c4.224-1.302,5.298-4.145,6.128-9.066c4.498,1.78,22.157,3.588,25.74,2.359
		c-0.503,2.4-0.942,4.804-1.057,7.215c5.36-1.649,19.871-3.944,30.537-3.815c-7.796,19.978-12.278,42.436-20.571,62.211
		c-0.338,0.803,1.191,1.193,2.523,1.564c-14.921,18.817-45.194,38.848-65.622,44.205c-13.047-7.528-27.618-10.767-34.188-8.672
		c2.26,19.203,22.638,33.743,38.806,40.803c5.256,2.294,10.437,4.329,16.142,5.857c-0.282,0.757-0.571,2.952-0.398,4.217
		c11.474,7.796,29.443,9.022,41.917,7.305c0.824-1.275,1.526-3.81,2.16-6.16c1.553,0.163,4.159,0.216,4.983,0.163
		c15.712-19.429,33.607-41.919,51.985-60.237c5.896,2.264,11.841,4.451,17.291,7.696c13.979,8.329,24.273,19.413,32.578,33.088
		c-5.484,2.313-9.484,5.645-13.517,9.489c-5.69,5.42-12.042,13.858-15.775,20.724c3.714,2.382,25.521-0.066,37.02-3.679
		c11.117-3.492,21.089-10.014,30.049-17.305c3.507-2.85,6.81-5.931,9.972-9.158c0.298,0.309,2.351,2.55,3.523,3.19
		c6.286-2.761,23.902-20.568,30.189-39.352c-0.745-1.34-3.774-4.23-4.571-5.025c0.967-2.364,1.619-6.57,1.859-9.219
		c5.32,5.093,10.428,10.409,15.86,15.576c10.702,10.18,21.957,24.986,36.919,28.856c19.823,5.126,37.255-17.135,49.253-29.792
		c5.423-5.72,10.915-11.834,12.297-19.797C598.363,449.901,593.857,443.33,589.871,438.264z M449.784,448.66
		c-7.708-4.241-15.431-9.254-24.046-11.362c-0.881-10.641-3.631-25.953-7.597-38.178c-3.014-9.301-6.336-19.453-11.076-28.358
		c4.814,3.01,15.85,16.43,21.328,22.73c2.215-2.378,4.839-8.864,6.477-13.119c3.692,3.28,17.218,14.513,19.29,16.816
		c-0.647,1.327-4.562,10.638-4.942,13.934c-0.103,0.89,6.71,5.071,9.086,7.567c4.195,4.404,4.277,6.703,5.26,9.08
		c-1.952,2.098-4.472,7.261-4.882,11.114c-0.409,3.853,19.109,17.725,23.433,21.826C470.874,458.788,459.853,454.201,449.784,448.66
		z M501.163,389.368c0.94-1.773,2.502-3.223,2.99-3.414c0.489-0.189,1.968,2.542,2.79,4.17c-0.962,0.702-1.841,1.466-2.614,2.332
		C503.572,391.301,502.417,390.264,501.163,389.368z M470.536,412.672c1.884,0.601,3.635,1.52,5.281,2.655
		c-0.912,0.951-1.865,2.108-2.796,3.397c-0.372-2.015-1.205-3.94-2.245-5.691C470.696,412.902,470.617,412.793,470.536,412.672z"/>
	<path fill="#7E9F00" d="M260.926,315.423c-3.211,5.234-11.226,9.06-15.75,14.827c3.111-6.554,8.755-11.218,14.388-16.023
		c1.387-1.18,5.175-5.114,7.289-10.652c1.007,5.74-1.109,12.084-4.634,17.623c-3.522,5.54-12.542,9.045-17.824,12.79
		c2.013-3.725,4.508-6.075,7.29-8.525c2.782-2.452,4.904-3.585,7.581-6.685C261.11,316.649,261.072,315.188,260.926,315.423z"/>
	<path fill="#7E9F00" d="M243.138,309.545c-0.151,9-2.119,17.772-1.665,26.759c-0.705,0.604-1.71,0.503-2.315,0.301
		c0.658-7.226,2.618-33.536,0.167-49.961c0.672-0.538,1.289-1.136,1.865-1.767C242.783,292.696,243.288,300.653,243.138,309.545z"/>
	<path fill="#ED6C79" d="M262.927,232.775c6.327,4.252,8.132,13.678,7.755,20.644c-0.264,4.888-2.342,10.213-7.654,11.281
		c-4.992,1.002-8.148-6.223-9.969-9.569c-2.321-4.258-5.05-9.056-10.173-10.472c1.701-3.717,2.346-10.224,1.778-13.424
		C249.533,228.846,257.922,229.408,262.927,232.775z"/>
	<path fill="#ED6C79" d="M247.518,201.755c2.61-4.662,7.191-10.915,12.387-12.69c4.129-1.409,7.08-0.699,9.707,3.763
		c4.299,7.307-1.988,19.39-7.995,23.833c-6.019,4.449-12.84,7.384-17.465,12.7c-0.361-1.824-1.671-3.334-2.753-3.891
		C240.268,220.487,242.496,210.725,247.518,201.755z"/>
	<path fill="#FFD90F" d="M242.078,237.106c-1.005,5.336-3.725,10.776-5.437,14.399c-1.71,3.626-4.43,7.152-8.458,6.447
		c-4.028-0.705-4.273-8.053-3.929-10.775c0.805-6.346,4.11-13.276,8.26-17.626c1.461-1.534,3.736-3.081,6.043-2.719
		C241.564,227.305,243.088,231.768,242.078,237.106z"/>
	<path fill="#E8B300" d="M238.557,226.833c-0.166-0.025-0.325-0.021-0.489-0.028c2.282,3.675,0.211,12.447-1.117,15.335
		c-1.974,4.285-4.299,9.784-8.501,12.392c-1.025,0.636-2.034,1.008-3.021,1.177c0.617,1.163,1.504,2.023,2.755,2.244
		c4.028,0.705,6.748-2.821,8.458-6.447c1.712-3.623,4.432-9.063,5.437-14.399C243.088,231.768,241.564,227.305,238.557,226.833z"/>
	<path fill="#ED6C79" d="M223.343,214.524c2.02-4.664,7.644-13.825,14.034-7.266c5.159,5.295,0.593,11.633,2.043,17.327
		c-6.305-0.876-12.85,7.987-14.361,13.023C216.78,234.695,220.914,220.132,223.343,214.524z"/>
	<path fill="#ED6C79" d="M217.274,272.862c-5.2,9.085-9.67-4.549-8.697-12.55c0.974-7.999,8.148-19.76,15.275-20.69
		c-3.321,8.359-2.057,16.284,0.835,19.45C221.325,261.839,218.843,270.118,217.274,272.862z"/>
	<path fill="#ED6C79" d="M236.947,285.404c-12.162,9.304-11.198-17.78-10.904-25.166c7.879,4.161,13.217-4.704,15.734-12.458
		C247.208,259.785,248.765,276.361,236.947,285.404z"/>
	<path fill="#F4A3A4" d="M266.203,235.91c2.177,5.473,2.054,12.905,0.817,18.484c-0.857,3.85-2.913,9.093-7.883,8.134
		c-0.691-0.134-1.347-0.36-1.985-0.625c1.589,1.911,3.528,3.269,5.876,2.797c5.312-1.068,7.39-6.393,7.654-11.281
		C270.983,247.851,269.884,240.72,266.203,235.91z"/>
	<path fill="#F4A3A4" d="M255.054,195.963c3.664-2.133,8.039-4.027,11.832-1.188c2.056,1.537,3.231,3.943,3.85,6.663
		c0.557-3.096,0.336-6.13-1.123-8.61c-2.627-4.462-5.578-5.172-9.707-3.763c-4.937,1.687-9.317,7.416-11.982,11.983
		C250.156,199.144,252.496,197.453,255.054,195.963z"/>
	<path fill="#F4A3A4" d="M226.707,212.125c3.067-3.028,6.988-5.611,10.992-4.487c-0.111-0.125-0.2-0.254-0.322-0.379
		c-6.39-6.559-12.015,2.602-14.034,7.266c-0.587,1.352-1.27,3.233-1.857,5.338C222.709,217.082,224.32,214.48,226.707,212.125z"/>
	<path fill="#F4A3A4" d="M211.619,255.454c0.491-1.822,0.661-4.006,0.989-6.084c-2.122,3.594-3.623,7.596-4.031,10.942
		c-0.156,1.284-0.17,2.714-0.068,4.17C209.886,261.618,210.802,258.474,211.619,255.454z"/>
	<path fill="#F4A3A4" d="M237.951,279.968c-3.007,2.247-6.86,3.19-10.41,1.546c-0.055-0.027-0.11-0.057-0.169-0.084
		c1.453,5.155,4.26,8.04,9.576,3.973c5.797-4.435,8.369-10.68,8.851-17.312C244.178,272.822,241.586,277.253,237.951,279.968z"/>
	<path fill="#D45564" d="M246.717,246.604c0.208-0.374,0.394-0.778,0.535-1.265c0.456-1.616,0.921-3.231,1.306-4.864
		c0.743-3.171,1.799-7.652-0.593-10.316c-1.204,0.243-2.324,0.598-3.301,1.076c0.568,3.2-0.077,9.707-1.778,13.424
		C244.342,245.061,245.6,245.744,246.717,246.604z"/>
	<path fill="#D45564" d="M250.347,219.381c-3.791,1.365-7.936,1.671-8.73-1.783c-0.579,3.145-0.669,5.89-0.218,7.872
		c1.083,0.557,2.392,2.067,2.753,3.891c4.625-5.316,11.445-8.25,17.465-12.7c1.997-1.478,4.02-3.81,5.68-6.526
		C262.252,214.136,256.218,217.267,250.347,219.381z"/>
	<path fill="#D45564" d="M239.557,211.015c-0.338,1.86-0.849,3.689-1.579,5.492c-1.499,3.694-4.331,6.313-7.168,9.003
		c-2.277,2.159-5.77,6.251-9.293,6.193c-0.382-0.006-0.745-0.047-1.095-0.11c0.527,2.783,1.889,5.047,4.639,6.016
		c1.511-5.036,8.056-13.899,14.361-13.023C238.302,220.187,240.754,215.405,239.557,211.015z"/>
	<path fill="#D45564" d="M223.851,239.622c-3.168,0.412-6.341,2.971-8.981,6.384c-0.636,2.251-0.809,4.634-0.402,6.86
		c0.721,3.948,2.329,9.886,7.136,10.249c0.032,0.003,0.055,0.019,0.085,0.025c0.906-1.685,1.904-3.17,2.996-4.069
		C221.794,255.907,220.53,247.981,223.851,239.622z"/>
	<path fill="#D45564" d="M232.637,264.959c2.436-0.612,4.699-1.772,6.34-3.727c1.674-1.994,2.708-4.15,3.315-6.677
		c0.252-1.062,0.461-2.263,0.896-3.309c-0.431-1.188-0.902-2.348-1.411-3.467c-2.517,7.755-7.854,16.619-15.734,12.458
		c-0.036,0.94-0.084,2.204-0.115,3.667C227.351,265.489,230.904,265.396,232.637,264.959z"/>
	<path fill="#7E9F00" d="M229.167,335.287c-3.585-1.485-5.955-4.735-7.603-8.112c-3.067-6.276-2.944-13.14-2.892-19.945
		c1.54,2.518,4.063,4.59,6.458,6.433c4.91,3.776,7.731,8.372,9.419,14.287c0.63,2.196,0.896,4.341,1.557,6.362
		c-2.387-0.123-4.902-3.044-7.119-6.368c-2.665-3.993-4.688-7.646-6.862-11.909c-0.18-0.35-0.388,0.934,0.215,2.544
		c1.871,4.992,3.395,7.427,6.423,11.84c1.119,1.631,3.422,4.536,5.899,6.198C232.802,336.349,230.959,336.03,229.167,335.287z"/>
	<path fill="#A1B949" d="M259.322,317.532c0.611-0.683,1.156-1.382,1.605-2.11c0.057-0.093,0.091,0.087,0.005,0.465
		c2.573-2.897,4.596-6.562,6.123-10.453c-0.038-0.625-0.093-1.248-0.2-1.86c-2.114,5.538-5.903,9.471-7.289,10.652
		c-2.879,2.457-5.757,4.88-8.304,7.536C254.347,321.15,257.025,319.643,259.322,317.532z"/>
	<path fill="#A1B949" d="M218.668,307.636c0.732,6.478,7.936,12.621,13.874,15.057c-1.709-3.492-4.068-6.458-7.413-9.03
		c-2.395-1.843-4.918-3.915-6.458-6.433C218.67,307.365,218.67,307.499,218.668,307.636z"/>
	<path fill="#FFCAA7" d="M226.145,345.974c2.159,2.649,6.445,4.509,10.205,5.235c2.816,0.546,5.576,0.196,8.02-0.833
		c7.016,2.315,5.659,7.392,4.864,7.143c-3.359-1.049-11.245-2.119-14.112-2.463c-2.798-0.339-5.596-0.592-8.384-1.01
		c-1.826-0.273-3.656-0.649-5.364-1.354C217.504,351.092,223.79,346.999,226.145,345.974z"/>
	<path fill="#FFCAA7" d="M220.164,355.156c3.987,1.679,10.051,2.337,12.794,2.63c10.242,1.097,15.595,2.147,17.955,3.826
		c4.356,3.097,2.728,7.974,0.262,7.66c-3.848-0.491-10.745-2.244-14.418-3.425c-2.465-0.794-4.948-1.079-7.504-1.433
		c-1.874-0.259-3.721-0.638-5.552-1.103C221.721,362.806,213.97,358.588,220.164,355.156z"/>
	<path fill="#FFCAA7" d="M222.515,365.896c4.342,1.349,9.546,1.325,13.47,2.584c3.339,1.07,9.451,3.602,14.09,3.73
		c0.472,1.941-0.686,3.679-3.724,3.515c-2.698-0.145-6.453-1.553-9.055-2.228C234.011,372.648,218.381,371.453,222.515,365.896z"/>
	<path fill="#FFCAA7" d="M237.85,383.913c-1.642,1.565-10.917-5.353-10.495-9.762c2.444,0.402,5.352,0.653,7.67,1.212
		C237.113,376.777,240.106,381.76,237.85,383.913z"/>
	<path fill="#7E9F00" d="M239.317,413.543c-1.311,0.333-3.148-0.087-3.673-0.768c2.231-8.01,3.883-22.092,3.943-27.111
		c0.475-0.361,0.846-0.836,1.114-1.393C242.255,389.371,241.207,404.589,239.317,413.543z"/>
	<path fill="#587C00" d="M249.805,325.634c-0.331-0.431-0.568-0.904-0.71-1.42c-1.521,1.854-2.873,3.832-3.918,6.035
		C246.491,328.574,248.104,327.064,249.805,325.634z"/>
	<path fill="#587C00" d="M251.277,326.846c-0.251-0.123-0.45-0.282-0.656-0.432c-2.356,2.132-4.47,4.329-6.225,7.573
		c2.786-1.975,6.61-3.886,10.12-6.062C253.413,327.711,252.331,327.365,251.277,326.846z"/>
	<path fill="#587C00" d="M242.148,290.513c-0.259-1.892-0.576-3.766-0.956-5.634c-0.576,0.631-1.193,1.229-1.865,1.767
		c0.222,1.493,0.409,3.069,0.562,4.703C240.668,291.136,241.42,290.853,242.148,290.513z"/>
	<path fill="#587C00" d="M241.485,330.671c-0.546,0.388-1.183,0.589-1.887,0.454c-0.164,2.316-0.322,4.202-0.439,5.481
		c0.604,0.202,1.609,0.303,2.315-0.301C241.379,334.418,241.408,332.543,241.485,330.671z"/>
	<path fill="#587C00" d="M231.294,327.056c-0.428,0.696-0.925,1.414-1.486,2.078c2.007,2.804,4.203,5.069,6.299,5.178
		c-0.661-2.021-0.928-4.165-1.557-6.362c-0.505-1.767-1.125-3.403-1.855-4.948C232.52,324.391,232.095,325.753,231.294,327.056z"/>
	<path fill="#587C00" d="M228.763,330.418c-0.028-0.041-0.054-0.08-0.082-0.121c-1.156,1.013-2.526,1.687-4.107,1.564
		c1.261,1.453,2.767,2.673,4.593,3.427c1.792,0.743,3.635,1.062,5.495,1.328C232.185,334.954,229.882,332.049,228.763,330.418z"/>
	<path fill="#587C00" d="M241.439,391.124c-0.046-2.894-0.275-5.33-0.739-6.854c-0.268,0.557-0.639,1.032-1.114,1.393
		c-0.013,1.152-0.114,2.796-0.286,4.721C240.024,390.598,240.737,390.84,241.439,391.124z"/>
	<path fill="#587C00" d="M241.338,396.403c0.058-1.27,0.101-2.517,0.107-3.694c-0.749-0.323-1.51-0.607-2.281-0.849
		c-0.103,1.04-0.23,2.162-0.369,3.307C239.558,395.377,240.456,395.851,241.338,396.403z"/>
	<path fill="#FFCAA7" d="M287.676,373.606c-8.58,0.546-19.708,0.076-29.991-2.233c-0.473-0.107,0.156,1.1,2.098,1.939
		c-1.365,6.087-3.937,7.138-9.56,7.504c-3.048,0.199-6.172-0.098-9.003-1.226c-0.284-0.909-0.604-1.807-0.992-2.692
		c2.922,0.858,5.922,1.493,8.877,0.743c2.687-0.682,3.52-3.277,3.162-5.677c5.94,0.508,5.049-9.986-0.41-13.031
		c2.835-3.306-0.832-8.741-4.563-10.388c5.877-3.201,4.804-10.772,3.727-8.761c-2.094,3.902-5.256,6.418-9.842,7.643
		c-8.316,2.222-15.914-5.181-12.513-5.492c8.607-0.786,18.714-5.827,28.735-7.376c6.407-0.989,1.671,12.422,1.153,14.913
		c-0.944,4.531-0.626,11.43,0.286,16.076c10.443,4.039,19.519-0.054,29.964,1.731C288.658,368.91,288.038,371.933,287.676,373.606z"
		/>
	<path fill="#E0A25B" d="M516.256,282.276c0.076-4.011,1.384-10.902,3.948-15.483c2.566-4.582,6.669-2.061,8.154,1.191
		c4.857,10.627,6.329,35.281,8.481,48.523c2.165,13.294,1.764,26.955,2.938,40.368c0.857,9.784,3.056,23.615,4.063,38.64
		c-1.194,2.939-7.845,21.248-10.748,27.359c-6.683-21.998-8.051-43.467-9.478-66.447
		C522.072,331.554,515.794,307.297,516.256,282.276z"/>
	<path fill="#D5893A" d="M529.865,384.256c6.439,4.183,12.397-2.57,9.779-12.199C540.032,378.356,535.496,384.65,529.865,384.256z"
		/>
	<path fill="#D5893A" d="M526.936,320.745c1.691,2.119,4.29-0.32,5.742-1.878c1.608-1.721,2.323-5.778,1.679-6.914
		C532.721,315.488,529.172,319.806,526.936,320.745z"/>
	<path fill="#D5893A" d="M534.653,347.512c1.436-1.098,3.013-4.842,2.321-6.174c-1.531,2.815-4.639,6.005-7.723,6.37
		C530.051,349.934,533.066,348.728,534.653,347.512z"/>
	<path fill="#D5893A" d="M527.842,385.837c-1.205-8.537-0.759-17.507-0.92-26.12c-0.161-8.804,0.383-17.594,0.262-26.379
		c-0.06-4.361-0.585-8.629-2.018-12.736c-0.107-0.022-0.207-0.028-0.316-0.057c-0.688-0.166-0.642-0.997-0.194-1.316
		c-1.684-4.194-3.862-8.148-5.68-12.283c-0.682-1.551-1.295-3.137-1.859-4.743c1.701,18.105,5.366,36,6.496,54.226
		c1.426,22.981,2.794,44.45,9.478,66.447c1.925-4.052,5.495-13.462,8.033-20.202C534.365,399.294,528.931,393.568,527.842,385.837z"
		/>
	<path fill="#EDB64C" d="M516.745,391.7c1.283-6.231,2.474-10.445,5.529-11.357c1.1,15.923,4.274,34.904,10.415,46.537
		c-1.794,3.351-4.49,7.057-8.782,9.036c-7.586-5.59-8.536-15.538-8.993-24.243C514.709,407.758,515.464,397.929,516.745,391.7z"/>
	<path fill="#D79D2E" d="M522.274,380.343c-0.455,0.136-0.858,0.369-1.239,0.647c0.08,0.713,0.148,1.425,0.241,2.13
		c0.663,4.995,1.844,9.91,2.433,14.924c0.615,5.237,1.674,10.454,1.662,15.745c-0.01,3.952-0.336,8.806-3.198,11.863
		c-1.24,1.325-2.69,2.138-4.252,2.586c1.3,2.963,3.19,5.618,5.986,7.678c4.292-1.979,6.988-5.685,8.782-9.036
		C526.548,415.247,523.374,396.266,522.274,380.343z"/>
	<path fill="#FFC214" d="M521.122,437.486c-2.283,1.125-4.672,1.923-7.116,2.487c-2.433-2.474-4.328-4.815-6.478-7.914
		c-1.363-5.653-7.048-5.988-10.052-3.746c7.518-14.615,12.201-22.585,14.868-21.966C511.649,417.7,512.78,430.561,521.122,437.486z"
		/>
	<path fill="#FF9700" d="M504.975,414.461c-0.637,1.078-1.308,2.242-2.015,3.517c3.225,0.948,6.453,1.513,9.7,1.59
		c-0.15-1.161-0.259-2.338-0.335-3.52C509.83,415.812,507.367,415.278,504.975,414.461z"/>
	<path fill="#FF9700" d="M514.311,427.003c-4.967-0.183-9.841-1.106-14.481-3.22c-0.753,1.434-1.534,2.935-2.354,4.53
		c3.004-2.242,8.689-1.908,10.052,3.746c2.151,3.099,4.045,5.44,6.478,7.914c2.444-0.563,4.833-1.362,7.116-2.487
		C517.839,434.761,515.688,431.11,514.311,427.003z"/>
	<path fill="#BBB8B3" d="M468.731,439.004c1.079,0.764,3.708,1.969,6.526,3.053c-1.583-0.271-3.154-0.606-4.675-1.183
		c-2.234-0.85-4.517-1.772-5.458-4.082c-0.748-1.832-0.418-4.613,0.655-6.478c0.246,0.327,1.019,0.486,1.636,0.341
		C466.523,435.11,466.762,437.609,468.731,439.004z"/>
	<path fill="#AC4200" d="M464.89,439.557c2.233,1.685,5.066,2.854,7.755,3.664c-4.811-0.846-9.158-2.103-10.554-3.151
		c-2.204-1.653-0.1-7.834,2.395-10.355C462.641,433.089,462.419,437.692,464.89,439.557z"/>
	<path fill="#BBB8B3" d="M485.922,443.835c-3.444-0.983-10.207-3.197-14.235-5.432c-3.01-1.669-2.879-5.051-1.534-8.809
		c1.507-1.347,2.4-3.746,2.812-5.958c1.537-2.774,3.194-5.384,4.224-7.302c0.76,0.611,1.499,1.264,2.199,1.979
		c-3.397,3.94-5.753,9.558-6.906,14.347c-0.15,0.622,0.082,1.22,0.618,1.572c5.749,3.753,13.407,7.203,20.059,9.033
		C492.249,445.143,489.364,444.819,485.922,443.835z"/>
	<path fill="#BBB3AE" d="M491.142,440.258c1.106-2.641,3.034-6.169,4.822-8.336c1.775-2.152,6.149-3.987,8.481-1.277
		c2.78,3.228,0.716,7.297-1.624,10.865C498.782,441.862,492.733,441.067,491.142,440.258z"/>
	<path fill="#A1968F" d="M495.161,433.005c-0.349,0.484-0.699,0.988-1.041,1.538c3.719-0.169,7.526-1.33,10.846-3.184
		c-0.054-0.085-0.126-0.169-0.186-0.254C501.677,432.083,498.452,432.683,495.161,433.005z"/>
	<path fill="#A1968F" d="M493.232,436.033c-0.817,1.447-1.553,2.941-2.089,4.225c1.59,0.809,7.64,1.604,11.679,1.253
		c1.868-2.849,3.556-6.019,2.742-8.826C501.786,434.788,497.443,436.025,493.232,436.033z"/>
	<path fill="#CF0000" d="M506.709,437.538c0.285-0.772,0.524-1.614,0.683-2.476c1.343,1.843,2.796,3.618,4.213,5.388
		c-2.152,0.355-4.341,0.544-6.54,0.601C505.734,439.939,506.267,438.731,506.709,437.538z"/>
	<path fill="#A70000" d="M506.329,438.442c-0.363,0.89-0.765,1.778-1.264,2.61c2.199-0.057,4.388-0.246,6.54-0.601
		c-0.393-0.492-0.789-0.988-1.183-1.483C509.063,438.745,507.703,438.546,506.329,438.442z"/>
	<path fill="#AC4200" d="M514.811,388.659c-0.446,2.356-1.193,5.858-1.409,7.444c-0.311,2.248-0.541,4.424-0.77,7.002
		c-5.445-1.19-14.773,18.787-17.93,27.171c-2.083,2.483-3.801,5.915-4.629,9.361c-4.544-2.635-9.085-5.235-13.924-7.354
		c-1.119-0.487-0.312-3.143,1.011-6.127c4.771,2.267,9.711,2.654,13.069,1.12c3.283-1.499,3.828-4.713,2.928-7.807
		c2.63,0.098,4.695-1.355,5.499-2.774c1.723-3.031,0.483-5.836-0.079-7.132c-0.563-1.295,2.539-0.409,4.377-3.408
		c0.876-1.433,0.614-4.468-0.666-5.885c1.608-1.133,2.356-2.512,2.887-5.379C507.924,392.348,511.613,389.56,514.811,388.659z"/>
	<path fill="#BBB8B3" d="M505.136,377.837c0.821-0.084,4.659,6.237,5.74,9.67c-0.737,0.496-1.72,1.07-2.46,1.562
		c-1.037-1.849-1.972-3.834-3.43-5.27c-0.472-0.465-1.21-0.213-1.598,0.194c-1.321,1.389-2.842,2.698-3.635,4.435
		c-0.8-0.499-1.548-0.92-2.236-1.3C500.874,381.854,504.317,377.919,505.136,377.837z"/>
	<path fill="#BBB8B3" d="M500.625,375.538c0.625-0.518,1.806,0.409,2.327,1.407c-2.692,2.651-4.625,6.127-6.497,9.353
		c-0.043,0.074-0.028,0.145-0.046,0.216c-0.568-0.316-1.164-0.631-1.772-0.945C496.471,382.217,500.002,376.056,500.625,375.538z"/>
	<path fill="#A09C94" d="M467.416,430.654c-0.144,0.033-0.294,0.047-0.445,0.049c-1.796,2.433-1.572,5.734-0.114,8.304
		c1.07,0.827,2.401,1.363,3.725,1.867c1.521,0.577,3.093,0.912,4.675,1.183c-2.818-1.084-5.447-2.289-6.526-3.053
		C466.762,437.609,466.523,435.11,467.416,430.654z"/>
	<path fill="#A09C94" d="M470.183,433.36c0.727-1.849,2.173-3.331,3.156-5.036c0.533-0.926,1.051-1.855,1.59-2.774
		c1.186-2.633,2.674-5.167,4.459-7.237c-0.355-0.361-0.721-0.707-1.09-1.041c-0.708,1.003-1.42,2.007-2.132,3.007
		c-1.003,1.407-1.911,2.958-3.334,3.978c-0.456,2.029-1.313,4.115-2.679,5.338c-0.85,2.375-1.21,4.594-0.604,6.332
		C469.558,435.173,469.8,434.333,470.183,433.36z"/>
	<path fill="#A09C94" d="M472.482,432.659c0.057-0.237,0.129-0.481,0.192-0.719c-0.011,0.016-0.02,0.035-0.035,0.054
		c-1.387,2.211-2.376,4.792,0.781,6.007c1.483,0.571,2.957,1.171,4.459,1.69c4.891,1.688,9.931,2.76,14.901,4.105
		c0.145-0.155,0.278-0.325,0.379-0.532c-6.652-1.83-14.309-5.279-20.059-9.033C472.564,433.879,472.332,433.281,472.482,432.659z"/>
	<path fill="#A09C94" d="M508.752,385.859c-1.341-1.944-2.767-4.968-5.281-3.717c-0.398,0.417-0.809,0.817-1.177,1.259
		c-1.171,1.403-2.012,3.195-3.137,4.672c0.197,0.118,0.388,0.227,0.595,0.357c0.794-1.737,2.315-3.047,3.635-4.435
		c0.388-0.407,1.127-0.66,1.598-0.194c1.458,1.436,2.393,3.421,3.43,5.27c0.51-0.338,1.131-0.715,1.71-1.079
		C509.686,387.266,509.229,386.555,508.752,385.859z"/>
	<path fill="#A09C94" d="M498.542,381.583c-1.049,1.475-2.319,2.808-3.429,4.241c0.44,0.232,0.879,0.461,1.295,0.691
		c0.017-0.071,0.003-0.142,0.046-0.216c1.873-3.227,3.806-6.702,6.497-9.353c-0.132-0.256-0.319-0.497-0.521-0.719
		C501.067,377.959,499.838,379.765,498.542,381.583z"/>
	<path fill="#FFCAA7" d="M464.525,390.463c0.522,0.354-0.246-2.717-1.205-3.611c2.133-2.297,5.049-3.662,8.938-4.263
		c5.716-0.885,13.374,2.192,18.396,4.38c2.147,0.936,5.402,2.302,7.444,3.455c5.416,3.056,5.767,5.942,0.805,10.942
		c-0.54,0.544,0.658,0.74,2.133-0.328c0.413,1.893,1.229,4.757-1.805,5.576c-2.215,0.601-4.112,1.507-5.082,3.361
		c-0.265,0.507,1.627-0.12,2.542-0.327c0.246,1.557,0.819,3.362,0,5.164c-0.718,1.581-2.214,2.461-4.263,2.299
		c-2.049-0.166-3.61,0.41-4.347,1.147c-0.738,0.738,1.147,1.149,2.378,1.231c1.229,0.08,1.066,4.015-2.788,5.246
		c-2.138,0.681-5.985,0.82-9.285-1.153c0.732-1.471,1.494-2.898,2.121-4.068c1.18,1.038,1.917,1.859,2.671,2.591
		c0.985,0.959,1.133-1.552-0.262-3.684c-4.187-6.408-10.625-11.43-19.429-8.61c-2.051,0.655-2.635,2.261-1.739,2.141
		c1.125-0.148,3.458-0.194,4.525-0.17c1.901,2.602,3.197,4.672,3.608,8.526c0.298,2.788-0.985,5.904-2.542,7.215
		c-1.559,1.31-1.968-4.921-6.396-10.253c-3.268-3.933-8.427-5.36-8.804-7.106c-0.379-1.747,5.361-13.799,6.471-16.807
		c0.207-0.563-2.113,0.265-2.539,0.771c-1.72-1.811-15.871-14-20.213-17.117c0.618-1.518,2.457-6.155,3.107-7.394
		C442.352,373.65,458.443,386.354,464.525,390.463z"/>
	<path fill="#588DC7" d="M383.136,324.782c3.443-1.065,10.248,4.101,12.154,6.324c-13.302,4.828-25.778,17.867-29.7,24.833
		c-0.631-4.254,3.772-17.135,10.412-25.418C378.919,326.886,381.686,325.232,383.136,324.782z"/>
	<path fill="#EDB600" d="M352.476,104.11c0.549-4.948,4.214-10.537,7.113-12.177c3.402,0.707,6.781,1.631,10.148,2.472
		c0.776,0.192-8.376-6.969-20.56-6.42c1.923-3.94,7.007-7.829,13.285-9.528c7.995-2.163,17.774,2.015,25.928,6.231
		c0.874,0.451-5.005-5.254-7.876-6.698c-2.293-4.479-2.018-13.274,0.388-17.164c7.668,10.334,16.284,16.625,25.537,21.755
		c3.694,2.046,6.753,2.081,6.089,1.6c-2.783-2.02-5.551-4.079-8.287-6.179c0.181-3.941,2.289-8.156,4.437-9.399
		c0.964,5.319,4.173,8.388,10.312,13.427c6.138,5.041,14.751,6.414,17.443,14.08c-10.178,9.951-22.665,48.127-23.984,76.091
		c-2.356-0.691-7.384-0.566-8.484-0.66c-1.1-0.091-0.368-7.236,0.634-16.624c1.204-11.319,3.53-22.496,5.216-33.743
		c0.723,0.413,3.796,1.95,4.503,2.359c0.85,0.492-1.832-3.392-8.612-7.971c-4.874-3.291-12.599-7.088-19.241-9.345
		C375.982,102.651,362.936,99.257,352.476,104.11z"/>
	<path fill="#FFD277" d="M416.494,83.504c3.072,2.61,6.658,4.355,10.227,6.164c3.646,1.848,6.997,3.859,9.587,6.576
		c0.042-0.042,0.084-0.091,0.125-0.134c-2.692-7.666-11.305-9.039-17.443-14.08c-3.782-3.102-6.444-5.461-8.16-8.057
		C411.738,77.603,413.472,80.937,416.494,83.504z"/>
	<path fill="#FFD277" d="M418.501,94.44c3.424,0.974,6.955,1.398,10.267,2.507c-5.578-3.982-12.417-5.792-18.429-9.102
		c0.114,0.199,0.227,0.398,0.346,0.598C412.491,91.491,415.06,93.462,418.501,94.44z"/>
	<path fill="#FFD277" d="M392.221,91.324c3.301,2.185,6.979,3.801,10.648,5.254c4.702,1.86,9.476,3.547,14.058,5.664
		c-3.406-2.605-6.896-5.098-10.585-7.277c-6.343-3.747-13.187-6.259-19.958-9.033C388.149,87.935,390.019,89.866,392.221,91.324z"/>
	<path fill="#DE9700" d="M386.639,82.769c-0.964-5.241-3.115-10.274-7.697-12.472c0.047,2.876,0.557,5.708,1.572,7.692
		C382.182,78.829,384.854,81.098,386.639,82.769z"/>
	<path fill="#DE9700" d="M390.127,97.362c3.361,0.727,6.587,2.023,9.735,3.399c3.484,1.526,6.939,3.258,9.481,6.163
		c0.507,0.577,0.915,1.242,1.27,1.947C407.756,100.472,399.092,97.162,390.127,97.362z"/>
	<path fill="#DE9700" d="M406.841,106.461c-2.875-2.33-6.213-3.861-9.634-5.211c-3.263-1.288-6.63-2.788-10.21-2.824
		c-1.504-0.016-2.946,0.216-4.38,0.502c5.265,1.115,10.227,3.96,15.092,6.063c4.353,1.882,8.834,3.76,12.463,6.763
		C409.43,109.757,408.537,107.837,406.841,106.461z"/>
	<path fill="#DE9700" d="M411.028,142.512c2.823-5.996,4.4-12.695,5.011-19.364c-0.467,1.919-1.033,3.828-1.5,5.671
		c-0.847,3.347-1.944,6.627-3.389,9.763c-1.676,3.632-3.642,7.084-5.817,10.404c-0.226,1.649-0.426,3.302-0.614,4.956
		c0.511-0.612,0.997-1.248,1.426-1.931C408.053,148.983,409.506,145.742,411.028,142.512z"/>
	<path fill="#DE9700" d="M414.318,123.535L414.318,123.535c-0.707-0.409-3.78-1.945-4.503-2.359
		c-1.221,8.141-2.774,16.247-3.996,24.394c1.516-2.493,2.895-5.065,4.06-7.731c1.493-3.416,2.799-6.968,3.517-10.638
		C413.635,125.972,413.977,124.754,414.318,123.535z"/>
	<path fill="#DE9700" d="M405.437,72.969c-0.658,1.553-1.117,3.314-1.196,5.034c2.387,1.832,4.803,3.619,7.226,5.388
		C410.916,79.008,408.67,75.764,405.437,72.969z"/>
	<path fill="#FFFFFF" d="M341.755,177.771c-2.414-0.224-4.113-1.977-4.632-3.989c-0.955-3.708-0.499-7.648,1.702-11.221
		c3.235-5.259,9.344-7.878,11.859-1.016c-1.297-0.254-3.523,0.925-4.438,2.943c-1.376,3.021,0.27,8.462,5.219,5.772
		C350.914,174.6,346.702,178.23,341.755,177.771z"/>
	<path fill="#FFCAA7" d="M333.541,305.405c3.621-10.762,3.361-39.237,1.128-47.258c14.718-1.442,31.944-6.639,37.895-20.024
		c0.803-1.811,0.046-14.281-1.846-21.202c-0.164-0.596-0.988-0.312-0.983,0.226c0.046,6.682,0.355,15.221-0.47,19.858
		c-0.825,4.637-16.578,14.782-39.143,16.103c-17.196,1.007-39.123-2.515-43.348-7.542c22.228-9.454,54.005-50.691,55.166-65.414
		c14.473,0.915,15.117-22.356,5.625-24.771c0.548-2.542,0.678-5.335,1.428-7.936c0.379-0.019,2.506,0.427,2.842,0.461
		c1.769,0.17-0.183-2.015-1.654-2.449c3.989-13.268,7.518-28.885,8.356-40.412c16.987-1.478,35.227,7.105,49.879,15.342
		c-3.771,17.36-7.655,34.587-7.752,52.43c-0.006,0.918,0.718,1.653,1.743,1.567c3.298-0.278,6.794-0.164,9.254,0.549
		c-0.537,1.578,0.005,3.482,0.368,3.023c5.904-7.51,14.65-12.868,20.428-9.255c5.292,3.312,2.878,10.182,0.079,14.292
		c-2.695,3.957-7.122,6.991-11.792,7.996c-6.466,1.39-10.824-4.88-11.707-9.609c-0.148-0.795-3.239,2.622,0.626,10.118
		c-3.288,18.332-4.801,37.354-6.302,55.909c-1.094,13.531-2.364,30.835,0.884,44.32c-6.236,8.348-18.907,14.18-34.872,17.203
		C355.274,311.6,341.085,308.523,333.541,305.405z"/>
	<path fill="#FFCAA7" d="M361.981,329.456c0.494-2.868,2.954-8.444,3.198-15.742c4.358-0.32,12.916-1.707,13.684-1.89
		c-0.538,2.013-0.996,10.587-1.003,12.755c-4.249,2.318-7.122,8.746-8.922,12.503c-1.947,4.066-4.249,8.908-5.6,13.84
		c-0.268-1.496-0.565-2.99-0.85-4.484C361.489,341.198,361.49,332.324,361.981,329.456z"/>
	<path fill="#E6AC80" d="M234.184,352.364c3.023,0.2,6.551,0.033,9.205-1.619c-2.19,0.735-4.595,0.937-7.039,0.464
		c-3.76-0.726-8.047-2.586-10.205-5.235c-0.301,0.131-0.667,0.314-1.07,0.535C227.237,349.609,230.202,352.099,234.184,352.364z"/>
	<path fill="#E6AC80" d="M234.573,354.407c-4.771-0.462-9.377-1.803-14.121-2.338c0.2,0.233,0.492,0.445,0.923,0.623
		c1.709,0.705,3.539,1.081,5.364,1.354c2.788,0.418,5.587,0.671,8.384,1.01c2.867,0.344,10.753,1.414,14.112,2.463
		c0.319,0.099,0.724-0.663,0.645-1.756C244.872,354.225,239.765,354.91,234.573,354.407z"/>
	<path fill="#E6AC80" d="M236.39,370.183c4.577,1.822,9.017,2.556,13.73,3.408c0.087-0.431,0.071-0.898-0.046-1.381
		c-4.639-0.128-10.751-2.66-14.09-3.73c-3.924-1.259-9.128-1.235-13.47-2.584c-0.189,0.254-0.325,0.497-0.434,0.732
		C226.796,368.031,231.769,368.347,236.39,370.183z"/>
	<path fill="#E6AC80" d="M235.975,376.193c-0.325-0.336-0.647-0.625-0.951-0.83c-2.318-0.559-5.226-0.809-7.67-1.212
		c-0.063,0.666,0.114,1.388,0.431,2.13C230.483,375.778,233.416,375.469,235.975,376.193z"/>
	<path fill="#E6AC80" d="M252.268,371.965c0.101,0.675,0.095,1.363-0.01,2.023c0.003,0,0.01,0.002,0.01,0.002
		c0.934,0.177,0.538,1.597-0.388,1.418c-0.014-0.002-0.025-0.003-0.035-0.005c-0.497,1.054-1.378,1.892-2.739,2.239
		c-2.955,0.75-5.955,0.115-8.877-0.743c0.388,0.885,0.708,1.783,0.992,2.692c2.45,0.975,5.121,1.327,7.771,1.276
		c3.46-1.813,5.47-5.294,5.581-9.412C253.968,371.849,253.203,372.045,252.268,371.965z"/>
	<path fill="#E6AC80" d="M247.294,348.545c1.511,0.667,3.009,1.963,4.069,3.482c1.542-2.252,2.689-4.94,1.923-7.711
		c-0.328-1.194-0.653-2.64-1.439-3.67C251.982,342.6,251.09,346.479,247.294,348.545z"/>
	<path fill="#E6AC80" d="M254.723,361.782c0.058-2.012-0.606-3.874-1.873-5.424c-0.036,0.926-0.333,1.81-0.992,2.577
		C253.039,359.593,253.992,360.611,254.723,361.782z"/>
	<path fill="#E6AC80" d="M284.688,366.849c-0.095,2.362-0.532,4.686-1.273,6.925c1.469-0.033,2.906-0.08,4.262-0.169
		c0.361-1.673,0.981-4.696,1.127-6.327C287.408,367.039,286.042,366.913,284.688,366.849z"/>
	<path fill="#E6AC80" d="M443.525,373.992c-2.076-1.821-3.714-3.367-4.561-4.375c-0.65,1.239-2.488,5.876-3.107,7.394
		c0.91,0.655,2.263,1.718,3.831,2.988C440.893,377.937,442.161,375.923,443.525,373.992z"/>
	<path fill="#E6AC80" d="M462.925,411.85c2.684,1.969,4.912,4.388,6.766,7.133c-0.546-3.037-1.748-4.916-3.419-7.203
		C465.503,411.764,464.083,411.783,462.925,411.85z"/>
	<path fill="#E6AC80" d="M480.505,419.513c-0.626,1.169-1.388,2.597-2.121,4.068c1.333,0.797,2.752,1.239,4.115,1.45
		c0.276-0.989,0.432-2.02,0.543-3.061C482.332,421.271,481.616,420.49,480.505,419.513z"/>
	<path fill="#E6AC80" d="M358.253,281.103c1.163,5.12,2.403,11.742,8.689,11.13c6.71-0.655,8.952-5.742,10.297-11.22
		C371.88,284.676,363.687,284.678,358.253,281.103z"/>
	<path fill="#E6AC80" d="M425.596,174.153c-1.854,0.062-3.709,0.843-5.328,1.893c-1.349,1.617-2.92,3.391-3.391,5.407
		c-1.027,4.383,5.999,2.756,7.898,1.368c1.516-1.109,3.151-2.733,3.441-4.684C428.484,176.337,427.74,174.084,425.596,174.153z"/>
	<path fill="#E6AC80" d="M399.678,140.77c-1.265-0.331-2.559-0.557-3.815-0.912c-3.81-1.089-7.351-3.29-10.723-5.309
		c-4.246-2.543-8.534-5.013-12.799-7.524c-2.839-1.674-5.633-3.971-8.725-5.265c-6.96,17.356,20.942,33.325,35.046,24.704
		C400.836,145.135,403.528,141.774,399.678,140.77z"/>
	<path fill="#E6AC80" d="M383.488,114.801c8.621,3.705,16.367,8.642,22.87,15.109c0.674-3.173,1.366-6.346,2.057-9.524
		c-14.651-8.238-32.892-16.821-49.879-15.342c-0.058,0.802-0.131,1.627-0.216,2.468
		C367.005,107.924,376.027,111.599,383.488,114.801z"/>
	<path fill="#E6AC80" d="M411.552,177.389c-0.152-0.617-0.189-1.581,0.109-2.457c-2.435-0.705-5.884-0.825-9.151-0.555
		C405.071,176.392,408.22,177.358,411.552,177.389z"/>
	<path fill="#E6AC80" d="M352.325,147.869c-0.114,0.041-0.273,0.057-0.491,0.036c-0.336-0.033-2.463-0.48-2.842-0.461
		c-0.374,1.3-0.595,2.649-0.789,3.989C350.206,150.867,352.087,149.726,352.325,147.869z"/>
	<path fill="#E6AC80" d="M371.598,239.999c-6.676,11.99-22.925,16.775-36.928,18.148c0.341,1.226,0.634,2.933,0.877,4.976
		c8.542-0.366,17.124-2.706,24.557-6.504C367.473,252.854,370.517,246.931,371.598,239.999z"/>
	<path fill="#E6AC80" d="M374.613,316.19c1.273-0.226,2.529-0.483,3.768-0.787c0.144-1.586,0.309-2.927,0.483-3.578
		c-0.768,0.183-9.326,1.57-13.684,1.89c-0.047,1.407-0.194,2.725-0.375,3.996C368.158,317.414,371.546,316.732,374.613,316.19z"/>
	<path fill="#E6AC80" d="M370.425,330.773c-2.264,2.523-3.881,5.42-5.885,8.127c-0.876,1.182-1.736,2.371-2.578,3.566
		c0.129,1.433,0.301,2.796,0.525,3.971c0.286,1.494,0.582,2.988,0.85,4.484c1.351-4.932,3.653-9.774,5.6-13.84
		c1.191-2.485,2.854-6.135,5.071-8.993C372.688,328.788,371.457,329.625,370.425,330.773z"/>
	<path fill="#588DC7" d="M334.245,333.968c2.215-4.429,8.35-9.771,16.833-11.892c4.263-1.065,7.665,0.118,9.756,1.068
		c-0.492,1.802-1.815,4.429-2.05,6.393c-0.402,3.354-0.467,6.305,0.087,9.667c-2.053-2.932-5.655-4.314-9.634-5.166
		C346.388,333.429,338.246,333.686,334.245,333.968z"/>
	<path fill="#588DC7" d="M289.584,380.616c2.412-8.045,2.99-17.528,2.296-25.33c4.492,0.86,9.675,0.08,13.974-1.36
		c-0.478,1.158,0.336,4.229,0.458,3.765c0.655-2.488,2.294-5.931,4.754-6.258c2.461-0.33,3.362,1.885,3.825,4.118
		c0.137,0.666,1.259-1.742,0.106-4.793c1.68,0.317,3.376,2.307,4.064,3.49c0.286,0.492,1.026-1.832-0.926-4.214
		c5.969-1.963,8.347-6.472,14.905-8.113c-1.269,2.685-11.46,25.66-14.937,34.046C314.092,375.049,294.251,377.965,289.584,380.616z"
		/>
	<path fill="#588DC7" d="M319.967,380.141c4.544-10.999,11.939-30.273,18.523-43.612c7.717,0.058,16.359,1.373,21.343,7.652
		c0.177,0.832,2.444,16.135,2.641,17.088c0.491,2.378,1.769,3.506,1.968,2.624c1.721-7.625,18.164-27.684,35.557-29.359
		c8.225,3.286,28.23,15.259,39.38,24.195c-0.786,2.416-8.771,25.089-11.551,29.166c-1.736-4.621-25.439-29.022-35.057-34.935
		c-0.705-0.432,3.498,6.242,5.783,8.785c-2.728-1.057-5.17-2.361-7.868-3.896c-0.465-0.264,1.879,6.291,11.881,8.504
		c2.977,10.537,7.993,20.178,11.388,30.611c2.491,7.665,4.808,16.442,6.223,24.397c-7.673-1.531-16.157,1.81-23.53,3.885
		c-10.344,2.909-21.808,2.371-32.348,1.84c-19.726-0.997-41.286-2.105-60.755,2.927C308.585,413.15,315.422,391.141,319.967,380.141
		z"/>
	<path fill="#FFFFFF" d="M303.245,431.127c9.837-1.821,19.12-2.726,28.878-3.154c10.759-0.472,21.447-0.106,32.189,0.54
		c9.871,0.59,19.771,0.904,29.513-1.106c9.385-1.938,16.884-5.972,26.433-4.92c0.076,0.461,0.29,1.72,0.363,2.184
		c-7.521-0.59-14.26,3.178-23.485,4.812c-11.542,2.043-22.349,2.826-34.083,2.868c-11.759,0.043-18.271-0.751-30.767-0.794
		c-7.575-0.028-21.412,0.309-29.973,2.673C302.618,433.196,302.937,432.164,303.245,431.127z"/>
	<path fill="#588DC7" d="M301.911,435.531c17.88-3.487,40.855-2.288,60.808-2.021c10.559,0.14,21.037-0.655,31.463-2.302
		c4.382-0.693,8.73-1.409,12.966-2.731c4.285-1.338,9.055-3.268,13.653-2.714c0.456,3.272,0.794,6.557,0.994,9.855
		c-8.204-0.114-16.59,1.778-24.707,2.613c-11.16,1.152-22.291,2.543-33.473,3.422c-20.35,1.601-62.06,0.193-63.483-0.016
		C300.761,439.482,301.277,437.681,301.911,435.531z"/>
	<path fill="#3474B4" d="M389.998,326.843c-2.428-1.502-5.092-2.608-6.862-2.061c-1.021,0.316-2.695,1.245-4.606,3.02
		C382.379,327.723,386.21,327.414,389.998,326.843z"/>
	<path fill="#3474B4" d="M359.632,326.507c0.443-1.205,0.939-2.401,1.202-3.362c-2.091-0.95-5.492-2.133-9.756-1.068
		c-1.396,0.347-2.72,0.792-3.979,1.295C351.112,324.858,355.372,325.843,359.632,326.507z"/>
	<path fill="#3474B4" d="M329.756,343.102c-1.597,3.705-3.937,7.032-5.921,10.592c-2.655,4.765-4.88,9.757-7.608,14.487
		c-1.575,2.73-3.271,5.361-5.091,7.878c3.178-0.297,5.775-0.366,6.968-0.093c3.477-8.386,13.668-31.36,14.937-34.046
		C331.817,342.226,330.741,342.633,329.756,343.102z"/>
	<path fill="#3474B4" d="M406.743,384.197c1.188,1.063,2.414,2.081,3.634,3.104c-2.777-6.923-5.769-13.728-7.81-20.948
		c-5.789-1.281-9-4.009-10.598-6.037c-1.846,4.211,2.431,9.967,4.852,13.194C399.747,377.408,403.114,380.947,406.743,384.197z"/>
	<path fill="#3474B4" d="M348.369,340.126c3.823,0.593,8.563,1.48,11.507,4.292c-0.019-0.107-0.033-0.194-0.043-0.237
		c-4.984-6.28-13.626-7.594-21.343-7.652c-0.447,0.902-0.896,1.838-1.347,2.791C340.902,339.375,344.657,339.552,348.369,340.126z"
		/>
	<path fill="#3474B4" d="M404.174,336.439c-1.584-0.782-3.007-1.441-4.175-1.906c-15.09,1.453-29.459,16.74-34.125,25.743
		C375.755,350.549,389.728,339.072,404.174,336.439z"/>
	<path fill="#3474B4" d="M408.976,420.627c-5.238,1.049-10.131,3.448-15.377,4.375c-5.333,0.942-10.983,0.401-16.366,0.204
		c-5.615-0.205-11.229-0.442-16.843-0.642c-11.422-0.412-23.141-1.224-34.527,0.098c-5.674,0.66-11.272,1.821-16.613,3.881
		c-0.415,0.161-0.86,0.309-1.321,0.456c18.287-3.843,38.113-2.835,56.371-1.914c10.54,0.532,22.004,1.07,32.348-1.84
		c7.373-2.075,15.857-5.415,23.53-3.885c-0.063-0.354-0.136-0.715-0.204-1.07C416.338,419.846,412.661,419.89,408.976,420.627z"/>
	<path fill="#3474B4" d="M393.4,354.394c-1.527,0.89-3.156,2.405-1.149,3.938c0.181,0.139,0.323,0.358,0.355,0.587
		c1.975,1.078,3.881,2.024,5.948,2.824C397.01,360.022,394.588,356.415,393.4,354.394z"/>
	<path fill="#3474B4" d="M394.731,431.419c6.448-0.502,12.697-1.54,18.96-3.111c2.409-0.604,4.822-1.065,7.253-1.357
		c-0.052-0.396-0.088-0.792-0.144-1.188c-4.598-0.554-9.367,1.376-13.653,2.714c-4.236,1.322-8.585,2.038-12.966,2.731
		c-0.879,0.139-1.756,0.264-2.638,0.39C392.606,431.55,393.669,431.503,394.731,431.419z"/>
	<path fill="#3474B4" d="M324.417,435.714c11.901,0.536,23.432-0.516,35.227-2.013c0.563-0.071,1.128-0.141,1.691-0.211
		c-16.483-0.252-34.86-1.032-50.679,0.74C315.378,434.553,320.201,435.523,324.417,435.714z"/>
	<path fill="#977465" d="M241.108,517.712c-8.752-3.367-16.845-8.182-23.946-14.29c-7.026-6.04-14.265-15.874-14.658-21.523
		c5.537-2.158,24.675,5.407,31.152,8.698c6.478,3.288,12.913,6.294,18.97,10.144c7.141,4.536,13.444,10.041,19.636,15.764
		c3.051,2.818,7.016,6.545,11.374,9.533c-3.329-0.102-6.666-0.199-9.981-0.525C262.514,524.417,251.546,521.726,241.108,517.712z"/>
	<path fill="#6F6A65" d="M293.271,534.116c-13.347,1.674-27.14-0.857-37.372-5.686c0.063-0.753,0.227-1.488,0.325-2.234
		c10.849,2.677,22.193,3.84,33.09,3.086c1.605,0.721,3.231,1.259,4.857,1.559C294.033,531.925,293.748,533.26,293.271,534.116z"/>
	<path fill="#2D587E" d="M336.481,460.944c-0.571-0.145-0.862,0.708-0.423,1.027c4.394,3.215,9.27,5.47,14.273,7.49
		c-9.159,8.754-40.68,46.275-50.778,58.206c-11.996-1.931-25.516-14.216-31.804-20.12c-8.272-7.769-18.962-14.866-30.358-18.331
		c24.126-7.286,51.12-25.982,65.209-45.324c20.145,1.734,40.991,2.789,61.073,1.794c11.283-0.563,22.512-1.968,33.74-3.168
		c8.463-0.904,20.603-3.102,27.465-3.866c8.978,6.136,18.985,11.277,28.474,16.54c7.431,4.123,16.308,9.006,25.06,9.699
		c-3.435,4.495-6.691,8.998-10.779,13.176c-6.792,6.941-14.555,12.823-22.687,18.089c-11.161,7.233-25.729,17.193-39.554,15.549
		C397.587,480.334,364.534,467.997,336.481,460.944z"/>
	<path fill="#174765" d="M324.92,450.552c13.552,1.175,27.174,1.63,40.769,1.059c21.504-0.901,42.932-4.036,63.563-10.099
		c-1.479-0.932-2.943-1.879-4.375-2.857c-6.862,0.764-19.001,2.961-27.465,3.866c-11.228,1.201-22.457,2.605-33.74,3.168
		c-20.082,0.996-40.928-0.06-61.073-1.794c-0.644,0.885-1.343,1.767-2.042,2.649C308.622,448.609,317.019,449.867,324.92,450.552z"
		/>
	<path fill="#174765" d="M314.411,510.113c13.14-15.462,29.694-34.701,35.92-40.652c-4.738-1.911-9.358-4.049-13.569-6.999
		C330.589,472.797,316.391,495.041,314.411,510.113z"/>
	<path fill="#174765" d="M293.009,516.292c0.233,0.24,0.45,0.494,0.669,0.745c-0.947-7.998-9.961-14.648-15.97-18.659
		c-6.975-4.653-16.113-10.972-24.921-10.111c7.431,2.292,14.563,7.327,20.784,11.556c6.917,4.7,13.411,9.964,18.927,16.255
		C292.672,516.073,292.851,516.133,293.009,516.292z"/>
	<path fill="#174765" d="M427.316,489.357c-4.083,2.685-8.376,5.694-11.098,9.836c10.727-2.439,21.247-7.771,30.552-13.481
		c7.921-4.863,15.718-11.327,19.622-19.942c-7.111,6.632-16.228,10.854-24.792,15.314
		C436.721,483.625,431.912,486.331,427.316,489.357z"/>
	<path fill="#977465" d="M437.144,519.487c-8.905,7.271-32.455,19.391-56.073,19.582c1.046-5.237,13.618-18.474,23.711-24.664
		c11.916,4.632,29.743-7.677,39.167-13.121c8.785-5.076,22.828-17.067,28.066-21.923c-3.282,5.019-7.494,11.414-11.196,16.037
		C453.761,504.209,445.888,512.343,437.144,519.487z"/>
	<path fill="#805442" d="M254.522,505.681c8.531,7.07,16.72,14.89,26.433,20.27c0.893,0.032,1.788,0.06,2.681,0.087
		c-4.358-2.988-8.323-6.715-11.374-9.533c-6.191-5.723-12.495-11.228-19.636-15.764c-3.342-2.124-6.802-3.989-10.317-5.789
		C246.285,498.633,250.351,502.224,254.522,505.681z"/>
	<path fill="#805442" d="M226.673,505.519c-4.951-3.831-10.194-7.152-15.724-10.079c-0.473-0.249-1.193-0.485-1.982-0.735
		c2.452,3.173,5.338,6.259,8.195,8.717c6.504,5.595,13.851,10.09,21.762,13.397C235.152,512.729,231.073,508.927,226.673,505.519z"
		/>
	<path fill="#805442" d="M422.829,517.123c7.564-0.66,14.047-4.97,20.816-8.017c3.242-1.461,6.407-3.066,9.508-4.784
		c2.652-2.886,5.211-5.861,7.667-8.926c3.701-4.623,7.914-11.018,11.196-16.037c-5.238,4.857-19.281,16.848-28.066,21.923
		c-7.935,4.584-21.831,14.035-33.137,14.14C414.79,516.519,418.805,517.472,422.829,517.123z"/>
	<path fill="#805442" d="M411.877,531.341c-10.07,0.598-19.53,3.397-28.61,7.676c11.756-0.456,23.378-3.742,33.074-7.785
		C414.853,531.227,413.365,531.254,411.877,531.341z"/>
	<path fill="#6F6A65" d="M455.636,512.019c-0.762-0.286-1.523-1.237-1.952-1.985c4.304-4.549,17.207-19.483,26.521-36.105
		c0.292,0.458,1.819,2.442,2.19,2.856C476.682,490.784,461.731,508.403,455.636,512.019z"/>
	<path fill="#59544E" d="M289.314,529.282c-7.023,0.488-14.228,0.166-21.371-0.833c3.047,1.081,6.01,2.392,8.768,4.285
		c0.765,0.524,1.499,1.073,2.212,1.639c4.718,0.395,9.563,0.344,14.348-0.257c0.476-0.857,0.762-2.191,0.899-3.275
		C292.545,530.541,290.919,530.003,289.314,529.282z"/>
	<path fill="#59544E" d="M461.6,506.942c1.907-5.611,4.822-11.112,7.89-15.645c3.514-5.189,7.903-9.525,12.537-13.648
		c0.126-0.287,0.253-0.577,0.368-0.863c-0.371-0.413-1.898-2.398-2.19-2.856c-9.314,16.622-22.217,31.556-26.521,36.105
		c0.429,0.748,1.19,1.699,1.952,1.985C457.163,511.113,459.246,509.328,461.6,506.942z"/>
	<path fill="#D45B00" d="M590.058,464.28c-4.853,7.05-11.356,13.206-17.367,19.255c-8.119,8.168-19.006,19.776-30.633,20.806
		c-7.706,0.682-15.227-5.019-20.885-9.467c-9.623-7.565-18.217-16.811-27.108-25.235c-5.183-4.91-19.191-18.852-26.999-25.423
		c5.391,2.188,13.351,1.993,14.631,1.03c1.423,0.275,7.946,1.553,9.309,1.395c2.476-0.285,4.153-1.379,4.153-3.451
		c8.973,3.361,20.899,0.51,29.109-2.984c13.165-5.604,15.967-21.682,20.86-33.506c1.562-3.771,14.09-41.81,0.013-35.657
		c-0.147-1.205-0.311-2.405-0.464-3.61c4.353-0.835,7.196,0.447,10.926,4.375c4.262,4.49,6.844,11.46,9.448,17.045
		c3.072,6.597,6.221,13.642,8.348,20.238c-2.406-0.354-6.193,0.838-4.358,1.374c16.977,4.978,16.835,24.112,18.878,38.004
		c0.297,2.023,1.863-3.949,1.922-5.868C593.078,449.864,595.714,456.061,590.058,464.28z"/>
	<path fill="#BD4C00" d="M572.353,426.389c0.319,2.965,0.353,5.967,0.052,8.984c-0.641,6.417-3.187,10.944-7.378,15.223
		c5.23-0.933,11.423-3.127,13.083-8.465C579.971,436.141,576.915,430.236,572.353,426.389z"/>
	<path fill="#BD4C00" d="M542.705,431.694c-2.015,3.766-4.339,7.788-7.782,10.45c-2.332,1.802-4.692,2.674-7.229,3.38
		c3.182,0.068,6.418,0.246,9.336-0.737c3.864-1.302,6.617-3.818,8.7-7.304c3.918-6.557,7.105-14.049,8.653-21.531
		c1.758-8.507,1.753-17.206,2.018-25.858c0.041-1.3,0.055-2.592,0.055-3.881c-0.8,5.737-1.86,11.548-3.1,17.132
		C551.152,413.275,547.497,422.729,542.705,431.694z"/>
	<path fill="#BD4C00" d="M567.743,469.464c-10.68-4.288-22.076-6.898-33.654-6.557c-8.145,0.237-16.275,2.446-24.038,4.891
		c-3.107,0.977-8.802,2.512-12.521,5.2c0.928,0.902,1.862,1.791,2.788,2.701c6.347-4.393,13.056-8.198,20.693-9.281
		c14.132-2.002,28.325,2.05,41.687,6.305c5.133,1.635,10.335,3.373,15.473,5.316c1.026-1.038,2.045-2.084,3.051-3.145
		C576.76,473.019,572.238,471.27,567.743,469.464z"/>
	<path fill="#BD4C00" d="M560.993,473.732c-13.053-4.017-28.425-8.992-42.116-5.385c-6.418,1.688-12.035,4.861-17.411,8.482
		c6.365,6.264,12.769,12.592,19.707,18.045c5.658,4.448,13.179,10.148,20.885,9.467c11.627-1.03,22.514-12.638,30.633-20.806
		c1.42-1.43,2.87-2.867,4.318-4.32C571.724,477.196,566.358,475.384,560.993,473.732z"/>
	<path fill="#AC4200" d="M545.373,372.959c6.221-2.234,4.345,9.97,1.404,18.637C546.665,385.39,546.099,379.167,545.373,372.959z"/>
	<path fill="#8B3500" d="M464.89,439.557c-0.596-0.451-1.03-1.067-1.327-1.781c-0.742,0.407-1.452,0.873-2.135,1.385
		c0.15,0.369,0.363,0.683,0.663,0.909c1.396,1.048,5.743,2.305,10.554,3.151C469.956,442.412,467.122,441.242,464.89,439.557z"/>
	<path fill="#8B3500" d="M503.43,403.374c0.065,0.825-0.011,1.642-0.251,2.285c3.058-2.157,6.347-4.004,9.751-5.636
		c0.079-0.737,0.159-1.455,0.244-2.166C509.888,399.623,506.649,401.479,503.43,403.374z"/>
	<path fill="#8B3500" d="M499.08,410.837c0.499,1.477,0.857,3.605-0.424,5.86c-0.803,1.419-2.868,2.872-5.499,2.774
		c0.899,3.094,0.355,6.308-2.928,7.807c-0.948,0.435-2.034,0.696-3.197,0.824c-1.232,2.673-2.22,5.448-2.782,8.238
		c1.955,1.073,3.889,2.179,5.822,3.299c0.828-3.446,2.547-6.878,4.629-9.361c3.157-8.384,12.485-28.361,17.93-27.171
		c0.043-0.475,0.085-0.923,0.128-1.376C507.804,404.172,503.105,407.112,499.08,410.837z"/>
	<path fill="#8B3500" d="M482.859,434.281c-0.129,0.366-0.265,0.729-0.401,1.092c0.147,0.079,0.297,0.152,0.442,0.23
		c0.544-2.51,1.392-5.006,2.457-7.423c-0.133-0.003-0.275-0.025-0.407-0.032C484.241,430.192,483.605,432.259,482.859,434.281z"/>
	<path fill="#8B3500" d="M546.176,380.868c0.313,3.577,0.536,7.155,0.601,10.727c1.982-5.836,3.455-13.241,2.313-16.785
		C548.245,376.873,547.236,378.88,546.176,380.868z"/>
	<path d="M391.962,215.884c-0.347-1.728-1.515-2.635-1.466-2.106c1.101,12.146,1.16,23.312-3.156,34.811
		c-2.105,5.609-5.207,11.878-9.214,16.221c-4.257,4.617-11.269,8.886-18.22,5.784c-3.814-1.699-6.423-5.328-8.531-9.266
		c-0.202-0.377-0.571,1.12,0.09,2.84c2.474,6.412,8.073,10.413,14.298,10.574c4.99,0.131,10.45-2.1,14.774-7.266
		C392.511,253.172,395.534,233.75,391.962,215.884z"/>
	<path d="M378.846,276.715c-3.283,2.572-7.618,5.306-11.833,5.663c-3.449,0.292-7.392-1.335-10.259-3.129
		c-1.988-1.245,1.218,7.458,10.087,8.11c6.322,0.467,10.188-4.774,11.928-7.98C379.551,277.938,379.633,276.099,378.846,276.715z"/>
	<path d="M402.579,141.11c-11.441-5.759-27.689-13.861-39.476-20.234c-0.521-0.281-1.1,4.397,12.301,13.161
		c-8.482,1.185-13.844,12.379-15.702,19.546c-2.641,10.182,1.407,22.345,12.384,24.041c18.135,2.805,26.128-23.397,17.662-36.548
		C399.2,143.871,403.764,141.706,402.579,141.11z"/>
	<path fill="#FFFFFF" d="M390.314,155.963c-0.292,5.92-2.662,12.039-7.329,15.671c-4.308,3.348-9.072,3.755-13.285,2.196
		c-5.03-1.859-9.298-9.273-7.99-17.572c1.175-7.487,6.283-17.913,14.53-19.495c5.922-1.136,9.128,1.885,10.41,4.087
		C390.056,146.689,390.59,150.408,390.314,155.963z"/>
	<path d="M385.448,179.213c-3.378,2.222-6.198,3.7-9.609,4.329c-3.481,0.64-6.963,0.64-9.62-0.185
		c-0.306-0.095-0.424,0.939,1.035,1.676c6.478,3.272,12.708,0.525,16.373-2.774C385.362,180.696,385.956,178.88,385.448,179.213z"/>
	<path d="M385.367,153.491c-0.541-2.087-2.108-3.938-4.849-4.329c-3.025-0.434-5.664,1.474-7.062,3.782
		c-1.66,2.733-2.409,6.384-1.164,9.388c1.292,3.121,4.397,4.598,7.749,3.716C385.274,164.668,386.74,158.804,385.367,153.491z"/>
	<path d="M533.656,305.475c-0.06-0.263-0.429-0.175-0.478,0.043c-0.14,0.633-0.306,1.224-0.484,1.799
		c-4.713,2.487-8.375,6.909-8.375,12.302c-0.363,0.729-0.803,1.559-0.603,2.291c0.079,0.279,4.019-3.638,7.086-7.428
		C532.929,311.854,534.459,308.943,533.656,305.475z"/>
	<path fill="#EFC786" d="M525.34,318.438c0.557-3.957,3.53-7.789,6.911-9.699C531.297,310.962,529.633,314.146,525.34,318.438z"/>
	<path d="M537.014,331.684c-0.057-0.257-0.429-0.361-0.538-0.074c-0.248,0.645-0.458,1.292-0.667,1.942
		c-2.479-0.014-5.065,2.87-6.358,4.631c-1.404,1.911-2.64,4.415-3.116,6.876c-0.396,0.091-0.776,0.229-1.12,0.488
		c-0.27,0.2-0.382,0.683-0.065,0.767c4.427,1.166,7.425-1.982,8.626-3.525C535.942,339.994,537.826,335.265,537.014,331.684z"/>
	<path fill="#EFC786" d="M532.921,341.236c-0.929,1.545-2.955,3.455-5.352,3.79c2.007-6.13,5.742-9.419,7.654-9.664
		C534.649,337.166,533.937,339.546,532.921,341.236z"/>
	<path d="M539.114,365.724c-0.096-0.388-0.675-0.413-0.783-0.014c-0.175,0.658-0.3,1.322-0.424,1.99
		c-2.277,0.327-4.479,3.302-5.653,4.932c-1.647,2.288-2.944,5.402-2.709,8.293c-0.519,0.017-1.037,0.055-1.532,0.183
		c-0.549,0.142-0.644,0.748-0.246,1.111c3.165,2.886,7.879-0.235,9.513-3.301C539.253,375.205,540.168,369.85,539.114,365.724z"/>
	<path fill="#EFC786" d="M536.234,375.789c-1.699,3.518-3.146,5.358-5.406,5.088c0.028-5.415,4.767-11.269,7.051-11.434
		C537.577,371.431,537.124,373.946,536.234,375.789z"/>
	<path fill="#E1A965" d="M528.842,311.516c-1.799,1.952-3.148,4.403-3.503,6.922c2.195-2.195,3.695-4.093,4.768-5.727
		C529.683,312.321,529.26,311.925,528.842,311.516z"/>
	<path fill="#E1A965" d="M530.554,339.101c-1.119,1.524-2.19,3.49-2.985,5.925c2.397-0.334,4.423-2.245,5.352-3.79
		c0.14-0.235,0.264-0.507,0.391-0.764C532.255,340.101,531.305,339.647,530.554,339.101z"/>
	<path fill="#E1A965" d="M532.373,375.122c-0.904,1.783-1.535,3.796-1.545,5.756c2.132,0.256,3.545-1.39,5.126-4.536
		C534.732,376.08,533.536,375.668,532.373,375.122z"/>
	<path d="M470.832,424.458c-0.518-1.482-1.201-2.932-2.206-4.173c-1.884-2.329-4.304-1.221-5.833,0.737
		c-0.353,0.454,0.458,0.95,0.816,0.497c0.606-0.768,1.652-2.132,2.974-1.773c0.934,0.252,1.531,1.254,1.936,1.925
		c0.783,1.287,1.268,2.687,1.717,4.085C470.434,425.324,470.63,424.889,470.832,424.458z"/>
	<path d="M234.757,339.681c-0.434-0.207-0.751,0.658-0.309,0.888c1.745,0.907,1.027,3.028-0.286,3.965
		c-0.902,0.642-1.997,0.825-2.996,1.005c-1.046,0.188-2.1,0.222-3.154,0.254c0.65,0.308,1.272,0.696,1.86,1.131
		c1.603-0.15,3.187-0.505,4.626-1.362C236.518,344.36,237.11,340.797,234.757,339.681z"/>
	<path d="M252.042,353.47c-3.665-1.098-9.478-2.11-10.671,2.769c-0.15,0.611,0.808,0.873,0.939,0.26
		c0.98-4.645,6.335-2.734,9.596-2.353C252.351,354.2,252.466,353.598,252.042,353.47z"/>
	<path d="M253.88,368.352c-2.032-0.532-4.189-0.365-6.13-1.42c-2.051-1.114-0.519-3.579,0.814-4.326
		c1.649-0.928,3.37-0.158,5.088,0.161c-0.027-0.06-0.052-0.12-0.076-0.183c-0.148-0.347-0.354-0.661-0.559-0.977
		c-1.635-0.428-3.34-0.503-4.852,0.2c-1.294,0.604-2.545,2.323-2.253,4.08c0.551,3.336,5.972,2.763,7.889,3.039
		C254.117,368.97,254.2,368.432,253.88,368.352z"/>
	<path d="M250.06,375.912c0.131-0.134,0.262-0.27,0.391-0.404c-2.839-0.333-8.012-1.385-5.88-4.978
		c-0.21-0.09-0.413-0.199-0.6-0.331c-2.575,3.739,2.234,5.595,5.537,6.156C249.691,376.207,249.872,376.053,250.06,375.912z"/>
	<path d="M230.929,381.058c-0.111,0.446,0.402,0.7,0.579,0.287c1.627-3.809,6.136-0.707,7.559,1.966
		c0.208,0.39,0.655,0.009,0.536-0.366C238.564,379.549,232.034,376.591,230.929,381.058z"/>
	<path fill="#FFFFFF" d="M381.836,152.807c-1.347,0-2.441,1.093-2.441,2.442c0,1.352,1.093,2.446,2.441,2.446
		c1.354,0,2.447-1.093,2.447-2.446C384.283,153.901,383.19,152.807,381.836,152.807z"/>
	<circle fill="#FFFFFF" cx="379.493" cy="152.173" r="0.904"/>
	<circle fill="#FFFFFF" cx="350.455" cy="164.702" r="1.295"/>
	<circle fill="#FFFFFF" cx="349.277" cy="163.008" r="0.527"/>
	<path d="M375.795,85.153c-5.552-2.507-12.856-3.055-18.815-2.222c-1.804,0.251-4.577,1.469-6.455,3.126
		c4.828-6.717,16.277-5.967,23.321-4.255c0.312,0.076,0.476-0.395,0.163-0.476c-5.047-1.295-10.409-2.291-15.546-0.8
		c-3.859,1.12-8.386,3.176-9.844,7.258c-0.079,0.222,0.032,0.401,0.191,0.488c-0.12,0.278-0.215,0.559-0.259,0.846
		c-0.065,0.41,0.481,0.566,0.675,0.219c2.586-4.588,7.949-5.729,12.785-5.776c4.35-0.039,9.552,0.45,13.624,2.032
		C375.919,85.702,376.068,85.275,375.795,85.153z"/>
	<path d="M399.324,81.205c-4.211-2.184-8.108-5.622-11.556-8.856c-3.586-3.365-5.724-7.345-6.075-12.132
		c0.002-0.002,0.002-0.004,0.003-0.006c0.125-0.188,0.077-0.39-0.041-0.531c-0.01-0.151-0.03-0.295-0.033-0.447
		c-0.016-0.79-1.182-0.919-1.245-0.1c-0.032,0.392-0.014,0.769-0.008,1.149c-6.335,7.253,3.744,17.594,10.731,19.599
		c0.341,0.099,0.491-0.404,0.161-0.522c-3.821-1.384-6.766-4.459-9.355-7.478c-2.741-3.189-2.921-6.343-1.363-9.641
		c0.604,3.44,2.594,6.404,4.997,9.118c3.514,3.97,8.738,8.045,13.563,10.284C399.356,81.759,399.572,81.333,399.324,81.205z"/>
	<path d="M365.935,95.046c-4.973-0.609-9.203,1.011-13.233,3.839c-0.428,0.298,0.069,0.942,0.491,0.639
		c3.894-2.804,7.903-4.31,12.72-3.932C366.271,95.62,366.281,95.088,365.935,95.046z"/>
	<path d="M411.401,78.635c-2.643-3.775-3.108-7.177-1.848-11.537c0.095-0.323-0.404-0.581-0.603-0.299
		c-2.523,3.586-0.749,9.313,2.151,12.14C411.282,79.118,411.536,78.825,411.401,78.635z"/>
	<path d="M426.319,173.675c-2.191-0.338-4.049,0.582-5.863,1.698c-2.315,1.422-4.115,3.637-4.4,6.401
		c-0.211,2.043,1.373,4.049,3.53,3.542c0.647-0.151,0.942-0.978,0.355-1.415c-0.589-0.438-1.508-0.737-1.66-1.592
		c-0.186-1.057,0.435-2.308,0.932-3.167c0.636-1.101,1.677-1.974,2.662-2.748c1.393-1.097,5.465-3.462,5.442-0.008
		c-0.001,0.192,0.264,0.181,0.311,0.021C427.995,175.176,427.843,173.912,426.319,173.675z"/>
	<path d="M560.33,482.71c-7.266,4.241-19.906,3.413-20.926-7.237c-0.049-0.516-0.877-0.432-0.892,0.071
		c-0.06,2.27,0.395,4.244,1.283,5.934c-11.367-0.259-28.468,0.723-32.29-12.651c-0.095-0.338-0.603-0.227-0.532,0.121
		c2.96,14.645,22.045,15.876,34.186,14.524c1.205,1.352,2.793,2.446,4.787,3.238c4.89,1.945,11.516,1.261,15.237-2.654
		C561.755,483.453,561.186,482.213,560.33,482.71z"/>
	<path d="M580.443,449.259c-0.186-0.948-1.734-1.245-1.844-0.102c-0.631,6.532-5.302,9.735-11.093,11.833
		c-5.032,1.824-11.559,3.094-16.772,1.441c-0.333-0.106-0.484,0.394-0.161,0.514c6.316,2.348,13.635,1.411,19.812-0.921
		C575.42,460.119,581.653,455.424,580.443,449.259z"/>
	<path fill="#FFC282" d="M523.323,266.811c2.883-0.48,6.51,6.24,7.323,20.343C531.46,301.256,520.067,267.354,523.323,266.811z"/>
	<path fill="#FFC282" d="M538.188,348.665c0,3.82,0.413,9.7,0.825,12.176c0.413,2.476-3.919-2.27-3.61-5.882
		C535.712,351.348,538.188,345.776,538.188,348.665z"/>
	<path fill="#FFC282" d="M536.331,318.127c0.303,2.356,0.518,7.43,0.518,9.594c0,2.166-2.064-1.753-2.064-4.333
		C534.784,320.809,535.917,314.93,536.331,318.127z"/>
	<path fill="#FFED82" d="M231.396,240.198c-1.635,6.002-5.144,11.829-5.36,6.652c-0.137-3.327,2.404-10.902,5.177-14.413
		C232.367,230.975,232.566,235.91,231.396,240.198z"/>
	<path fill="#FFDEC5" d="M302.568,237.934c8.708-6.772,27.977-27.736,32.845-35.521c4.866-7.785-0.243,16.545-9.732,25.791
		C316.192,237.448,295.999,243.043,302.568,237.934z"/>
	<path fill="#FFDEC5" d="M383.584,188.301c5.314-5.756,14.112-6.081,14.599-0.975C398.67,192.438,380.665,191.465,383.584,188.301z"
		/>
	<path fill="#FFDEC5" d="M361.445,278.808c2.722,2.72,6.084,2.19,9.733-0.244C374.827,276.131,357.795,275.159,361.445,278.808z"/>
	<path fill="#FFDEC5" d="M362.904,329.899c0.092-1.96,3.99-9.255,4.38-5.352C368.016,331.846,362.663,335.251,362.904,329.899z"/>
	<path fill="#FFDEC5" d="M483.093,391.94c-3.405-1.215-11.434-7.176-7.786-7.297c5.6-0.188,18.735,5.352,20.68,7.544
		C496.96,393.281,486.499,393.156,483.093,391.94z"/>
	<path fill="#FFDEC5" d="M449.031,380.505c3.649,2.919,8.028,6.57,10.704,8.517c2.677,1.944-4.135,0.486-7.054-1.947
		C449.76,384.642,444.167,376.611,449.031,380.505z"/>
	<path fill="#FFDEC5" d="M241.236,339.579c1.407-0.505,4.468-1.49,5.461-1.49c0.996,0-1.275,2.128-2.553,2.483
		C242.865,340.926,238.468,340.571,241.236,339.579z"/>
	<path fill="#FFDEC5" d="M232.509,358.59c2.128,0.215,9.293,1.136,11.564,1.916c2.27,0.781-2.553,1.986-6.242,1.349
		C234.801,361.332,229.549,358.291,232.509,358.59z"/>
	<path fill="#7EA8D4" d="M409.629,340.983c3.858,2.012,20.59,13.018,24.375,16.094c3.787,3.075-11.124-0.712-16.092-3.55
		C412.942,350.686,404.185,338.143,409.629,340.983z"/>
	<path fill="#7EA8D4" d="M330.826,360.625c-3.405,7.87-13.727,33.13-15.619,40.704c-1.893,7.573,13.252-13.962,14.197-19.169
		C330.353,376.954,334.613,351.868,330.826,360.625z"/>
	<path fill="#7EA8D4" d="M307.399,359.915c0.726-3.784,3.075-8.047,4.495-6.153C313.314,355.655,306.214,366.07,307.399,359.915z"/>
	<path fill="#7EA8D4" d="M339.581,332.938c4.74,0,11.124-0.948,14.2,1.183c3.077,2.128,0.708-4.733-4.26-5.207
		C344.55,328.441,333.901,332.938,339.581,332.938z"/>
	<path fill="#7EA8D4" d="M372.003,346.19c3.039-4.052,10.175-9.94,13.96-12.069c3.787-2.132-3.785-1.895-8.044,1.182
		C373.66,338.381,369.162,349.975,372.003,346.19z"/>
	<path fill="#7EA8D4" d="M326.093,418.839c9.673-1.027,27.214,0.71,35.261,2.132c8.047,1.42-4.97-7.809-16.09-8.519
		C334.138,411.741,314.971,420.023,326.093,418.839z"/>
	<path fill="#4A6F96" d="M269.535,477.529c5.701-3.46,14.909-10.887,18.459-13.725c3.552-2.84,1.895,7.337-3.787,11.36
		C278.527,479.185,262.91,481.55,269.535,477.529z"/>
	<path fill="#4A6F96" d="M374.135,469.718c9.669,2.944,18.457,11.36,22.007,15.857c3.548,4.495,1.892-10.175-8.285-15.857
		C377.682,464.04,368.69,468.063,374.135,469.718z"/>
	<path fill="#A88A7E" d="M209.899,484.865c5.197-0.415,17.626,3.779,24.139,9.702C241.846,501.667,203.982,485.337,209.899,484.865z
		"/>
	<path fill="#A88A7E" d="M398.982,526.278c-4.762,4.826-13.119,9.325-11.359,5.68c2.141-4.435,9.702-11.36,14.197-13.49
		C403.93,517.47,403.185,522.018,398.982,526.278z"/>
	<path fill="#4A6F96" d="M253.208,494.094c6.147,3.536,16.092,9.702,19.877,13.962c3.787,4.26,0.237-5.917-7.335-11.36
		C258.176,491.254,243.741,488.65,253.208,494.094z"/>
	<path fill="#4A6F96" d="M428.089,504.032c6.74-3.556,21.064-12.779,26.27-16.565c5.204-3.785-10.177,2.132-17.277,6.628
		C429.982,498.59,419.569,508.529,428.089,504.032z"/>
	<path fill="#E27F37" d="M568.576,413.417c7.619,0.491,10.928,7.056,12.976,13.43C583.6,433.219,561.52,412.964,568.576,413.417z"/>
	<path fill="#E27F37" d="M557.651,376.542c2.269,4.214,7.512,17.982,9.561,22.764c2.046,4.779-5.237-1.824-7.059-7.058
		C558.334,387.014,554.466,370.625,557.651,376.542z"/>
	<path fill="#E27F37" d="M551.96,402.946c-1.068,7.271-7.965,22.534-11.152,27.315c-3.189,4.779-0.456-5.918,2.275-13.429
		C545.815,409.32,553.098,395.207,551.96,402.946z"/>
	<path fill="#E27F37" d="M576.088,452.568c-1.69,3.266-7.738,8.878-16.16,8.195C551.506,460.08,579.504,445.966,576.088,452.568z"/>
	<path fill="#E27F37" d="M567.44,428.667c1.54,5.264,0.91,12.976-4.099,17.528C558.334,450.747,564.707,419.336,567.44,428.667z"/>
	<path fill="#D45B00" d="M515.997,475.329c3.732,3.214,11.542,4.541,15.705,3.187C540.808,475.558,507.802,468.273,515.997,475.329z
		"/>
	<path fill="#D45B00" d="M541.946,477.835c2.93,4.721,8.422,7.509,14.568,4.323C562.661,478.972,537.848,471.233,541.946,477.835z"
		/>
</g>
</svg>
