<?xml version="1.0" encoding="utf-8"?>
<!-- Generator: Adobe Illustrator 17.0.0, SVG Export Plug-In . SVG Version: 6.00 Build 0)  -->
<!DOCTYPE svg PUBLIC "-//W3C//DTD SVG 1.1//EN" "http://www.w3.org/Graphics/SVG/1.1/DTD/svg11.dtd">
<svg version="1.1" id="Layer_1" xmlns="http://www.w3.org/2000/svg" xmlns:xlink="http://www.w3.org/1999/xlink" x="0px" y="0px"
	 width="800px" height="600px" viewBox="0 0 800 600" enable-background="new 0 0 800 600" xml:space="preserve">
<g>
	<path fill="#E7E7E7" d="M556.343,221.88c2.048-5.273,3.548-14.773-1.166-18.699c-4.211-3.507-8.65-2.806-12.082,1.284
		c-0.411-11.49-18.134-17.732-27.18-9.695c-5.018-9.308-19.634-10.52-26.177,2.1c-6.77-7.566-19.869,1.642-17.527,15.662
		c-10.52,3.742-28.243,11.431-44.79,32.058c-23.22,28.94-25.274,61.177-24.945,100.129c-3.217,0.995-7.515,1.406-11.342,1.801
		c18.035-34.412,4.798-67.343-4.467-93.488c-3.25-9.171-13.321-29.724-15.278-44.954c16.105,2.435,16.6-28.34-4.25-20.728
		c-1.702-10.908-3.475-20.846-6.954-33.13c6.126-4.097,18.028-10.791,18.536-20.975c0.721-14.46-14.396-7.778-20.682-0.995
		c-3.349-21.048-14.065-42.355-38.702-39.121c-28.735,3.774-34.792,30.389-37.907,58.317c-5.957-5.464-17.735-11.7-20.653-2.285
		c-3.836,12.378,11.716,17.176,20.154,18.833c-1.986,9.76-4.136,18.363-4.612,25.988c-9.947-6.467-18.199,6.33-17.062,15.708
		c0.662,5.461,4.467,9.926,11.28,8.149c-5.848,21.54-14.802,36.195-21.705,60.188c-7.327,25.462-13.237,53.775-2.978,76.442
		c-12.409,5.956-19.525,25.645-15.223,46.827c-13.16,13.385-40.739,59.422-44.476,103.361c48.376,2.105,172.709,3.741,254.636,1.64
		c1.042-11.456-4.519-31.947-9.007-44.408c14.022-5.142,21.752-11.238,30.141-16.82c3.038,3.499,10.05,4.437,15.014,1.948
		c3.448,4.83,6.954,8.099,13.968,7.166c7.009-0.935,9.521-7.618,11.918-13.085c74.784-9.341,105.68-65.046,109.841-101.887
		C618.572,286.867,601.213,245.254,556.343,221.88z M439.957,432.213c-1.295,4.887-7.316,9.607-12.383,11.918
		c-1.635-5.136-3.274-10.284-5.937-17.355C425.234,431.976,431.077,435.482,439.957,432.213z M421.027,423.564
		c-5.706-18.398-11.975-36.726-20.798-55.616c1.108-0.971,3.503-1.871,4.908-2.343c4.206,14.961,10.486,29.329,20.798,39.742
		C422.943,411.804,421.728,416.791,421.027,423.564z"/>
	<path d="M551.599,225.439c2.043-5.271,3.545-14.773-1.169-18.697c-4.209-3.507-8.649-2.806-12.084,1.284
		c-0.406-11.49-18.13-17.732-27.182-9.695c-5.018-9.308-19.629-10.52-26.176,2.1c-6.766-7.566-19.866,1.64-17.527,15.66
		c-10.517,3.742-28.239,11.431-44.79,32.06c-23.218,28.94-25.274,61.177-24.941,100.129c-3.217,0.995-7.516,1.406-11.342,1.799
		c18.032-34.412,4.798-67.341-4.467-93.488c-3.25-9.173-13.323-29.724-15.278-44.956c16.105,2.436,16.6-28.34-4.25-20.728
		c-1.702-10.908-3.475-20.844-6.954-33.128c6.126-4.099,18.028-10.791,18.536-20.975c0.721-14.46-14.396-7.779-20.682-0.995
		c-3.349-21.048-14.065-42.355-38.702-39.122c-28.735,3.774-34.792,30.391-37.907,58.317c-5.956-5.464-17.735-11.7-20.651-2.287
		c-3.836,12.378,11.716,17.176,20.154,18.833c-1.986,9.76-4.136,18.361-4.612,25.988c-9.948-6.467-18.199,6.33-17.062,15.708
		c0.662,5.461,4.467,9.926,11.28,8.149c-5.848,21.538-14.802,36.195-21.705,60.188c-7.327,25.464-13.237,53.775-2.978,76.444
		c-12.41,5.953-19.525,25.645-15.224,46.825c-13.16,13.385-40.737,59.422-44.476,103.358c48.376,2.108,172.709,3.744,254.637,1.643
		c1.038-11.453-4.523-31.947-9.012-44.409c14.02-5.142,21.752-11.237,30.141-16.82c3.042,3.502,10.052,4.437,15.019,1.949
		c3.445,4.83,6.953,8.099,13.964,7.166c7.01-0.935,9.521-7.62,11.92-13.085c74.783-9.343,105.68-65.048,109.838-101.888
		C613.823,290.427,596.469,248.813,551.599,225.439z M435.21,435.77c-1.293,4.889-7.314,9.607-12.385,11.92
		c-1.635-5.137-3.273-10.284-5.937-17.356C420.489,435.535,426.331,439.043,435.21,435.77z M416.281,427.122
		c-5.706-18.396-11.977-36.724-20.801-55.614c1.108-0.971,3.507-1.871,4.908-2.343c4.207,14.961,10.486,29.329,20.799,39.742
		C418.194,415.361,416.982,420.35,416.281,427.122z"/>
	<path fill="#EDC3A2" d="M546.689,210.248c6.099,4.406-3.507,33.423-7.478,36.46c-3.973,3.035-7.19,0.607-7.013-5.376
		C532.451,232.723,538.275,204.17,546.689,210.248z"/>
	<path fill="#EDC3A2" d="M512.684,205.853c1.516-9.396,19.282-6.36,19.982,0.188c0.699,6.542-1.831,13.937-3.725,23.175
		c-1.892,9.243,0.233,20.927-10.52,20.457C507.669,249.208,511.158,215.249,512.684,205.853z"/>
	<path fill="#EDC3A2" d="M497.498,196.458c5.547-0.177,9.458,2.806,11.206,9.036c-2.376,10.385-1.514,24.851-1.806,35.783
		c-0.647,1.583-3.682,7.061-8.591,6.83c-4.906-0.234-7.622-6.142-7.316-10.084c0.306-3.937,0.349-24.911-2.264-34.318
		C490.363,199.729,493.236,196.593,497.498,196.458z"/>
	<path fill="#EDC3A2" d="M478.912,202.299c9.509-1.919,11.649,46.79,2.57,48.379c-9.166,1.6-8.607-22.269-9.286-28.918
		C471.399,213.96,471.679,203.759,478.912,202.299z"/>
	<path fill="#EDC3A2" d="M435.679,429.694c-3.741,4.207-12.767,2.276-14.452-2.978c-1.69-5.26,12.117-37.63,18.071-39.761
		c5.959-2.135,10.099,0.118,10.482,5.419c0.387,5.301-2.816,12.321-4.696,17.716C443.811,413.737,439.417,425.486,435.679,429.694z"
		/>
	<path fill="#00619D" d="M388.937,354.446c0,0,5.142-0.47,8.647-1.17c0.702,3.976,1.87,10.284,1.87,10.284s-3.037,0.47-5.841,2.107
		C391.131,361.047,388.937,354.446,388.937,354.446z"/>
	<path fill="#00619D" d="M416.528,449.491c-18.471,5.206-57.6,7.671-70.12,5.206c14.724-10.518,32.485-23.374,43.456-38.094
		c0.196-2.723-11.087-9.931-18.699-12.079c1.823-9.601,4.139-26.97,4.801-38.554c2.964-3.972,4.467-5.959,6.585-10.101
		C389.405,368.464,409.738,425.486,416.528,449.491z"/>
	<path fill="#005489" d="M274.466,385.509c1.393,0.153,4.703,0.647,6.688,0.647c2.648,6.454,13.694,44.456,15.006,58.493
		c-8.273-2.155-17.514-7.52-24.223-11.784c-4.351-7.66-6.999-16.426-8.652-23.382c3.97-1.153,9.101-1.153,13.713-1.199
		C278.393,401.413,276.191,391.781,274.466,385.509z"/>
	<path fill="#D8EDFB" d="M284.227,385.867c3.381,0.782,10.471,1.17,14.797,1.448c0.647,7.489-4.077,14.657-7.281,20.68
		C289.925,400.553,287.357,392.258,284.227,385.867z"/>
	<path fill="#D8EDFB" d="M293.234,412.797c3.972-5.625,8.107-12.243,10.92-21.51c1.158,6.12,6.784,15.221,9.716,18.081
		c-1.443,9.384-9.593,27.228-13.355,34.37C299.094,437.86,295.88,421.067,293.234,412.797z"/>
	<path fill="#378DCD" d="M308.085,390.933c10.905,0.089,18.57-2.795,24.691-8.918c-0.266,4.007-7.445,16.879-15.294,23.016
		C312.426,401.048,309.78,394.428,308.085,390.933z"/>
	<path fill="#378DCD" d="M317.556,414.449c2.325,3.902,11.539,27.817,8.768,37.396c-6.784-0.166-17.517-1.978-21.986-4.626
		C308.999,437.901,315.239,424.045,317.556,414.449z"/>
	<path fill="#D8EDFB" d="M320.865,409.483c5.421-6.489,12.633-15.995,14.692-19.997c2.185,6.76,7.808,19.997,7.808,19.997
		s-5.128,23.663-12.243,35.578C328.709,434.141,325,420.575,320.865,409.483z"/>
	<path fill="#D8EDFB" d="M339.065,382.019c4.469-0.659,11.085-1.323,16.374-4.824c-2.806,8.959-5.513,18.71-9.259,27.158
		C343.403,397.729,340.556,389.961,339.065,382.019z"/>
	<path fill="#005489" d="M359.251,377.554c5.198-1.964,10.789-5.741,11.912-7.284c0.53,6.507-2.975,29.289-5.954,38.552
		c1.766,0.412,17.434,4.773,17.54,8.439c-10.633,11.961-32.442,29.27-41.951,36.5c-3.972,0.166-5.703-0.266-8.133-1.019
		C341.002,436.637,353.625,397.906,359.251,377.554z"/>
	<path fill="#00619D" d="M316.89,102.887c19.855-1.656,27.182,18.326,29.453,27.136c-22.005,12.905-56.777,18.997-63.199,16.551
		C285.042,120.149,297.037,104.54,316.89,102.887z"/>
	<path fill="#93A9CA" d="M283.137,150.537c18.366,2.814,50.134-8.435,64.032-16.708c0.828,2.148,1.822,4.631,1.822,7.278
		c-29.617,17.704-52.783,20.186-65.523,17.208C282.309,156.826,282.475,153.02,283.137,150.537z"/>
	<path fill="#00619D" d="M260.139,159.803c-1.491-2.648-0.497-8.271,3.806-7.778c4.303,0.5,11.085,7.612,15.883,9.101
		c8.743,2.712,18.299,1.823,35.409-1.489c15.388-2.978,25.209-8.79,34.249-15.057c5.263-3.65,14.692-15.754,19.36-10.921
		c4.633,4.798-5.381,14.664-18.697,22.006c-9.184,5.066-26.308,9.76-40.041,11.084c-13.734,1.323-25.647,1.822-35.574-0.495
		C264.606,163.939,261.629,162.45,260.139,159.803z"/>
	<path fill="#EDC3A2" d="M241.572,324.056c1.014-13.655,2.753-29.553,7.23-42.29c5.851-16.649,20.417-56.203,24.408-66.371
		c-3.806,2.155-9.595,2.83-12.41,0.166c-3.144-2.978-1.158-11.413,3.476-13.898c4.634-2.483,9.762,0.495,11.582,2.319
		c-0.131-7.625,1.986-21.18,6.121-32.1c23.89,2.771,51.389-3.575,68.836-11.752c5.325,10.08,8.907,36.933,8.768,38.716
		c1.655-2.647,3.475-4.136,7.279-4.631c6.969-0.912,9.483,10.767,3.034,12.361c-2.868,0.712-6.84,0.048-9.157-0.782
		c0.771,12.173,8.583,29.241,11.913,38.718c4.303,12.249,8.575,22.68,12.243,34.582c5.61,18.215,8.109,35.742-0.182,58.699
		c-4.422,12.243-12.141,24.927-20.967,30.364c-10.953,6.741-21.543,10.219-34.34,7.59c-6.066,11.897-28.567,15.533-29.063-2.336
		c-3.091-0.194-3.309,5.297-3.83,7.036C260.454,383.362,238.855,360.617,241.572,324.056z"/>
	<path fill="#00619D" d="M188.42,503.543c-2.757-18.382,21.268-73.155,38.794-91.853c11.057,24.126,28.4,43.925,52.818,54.69
		c6.688,12.561,12.386,26.176,17.294,38.326C263.91,505.179,217.167,505.408,188.42,503.543z"/>
	<path fill="#005489" d="M312.987,496.294c0,0-1.634,5.548-3.037,9.114c-1.992-0.189-7.714-0.465-7.714-0.465
		s-13.937-33.593-15.659-36.689c4.441,2.338,7.246,3.5,13.321,5.137C303.639,482.973,312.987,496.294,312.987,496.294z"/>
	<path fill="#378DCD" d="M305.276,474.095c2.397,1.376,11.053,1.718,16.592,2.1c-3.04,6.314-5.093,10.077-7.712,15.891
		C311.845,490.109,304.706,476.477,305.276,474.095z"/>
	<path fill="#00619D" d="M430.308,504.476c-29.402,2.059-89.776,0.905-114.515,0.93c3.005-8.9,7.155-20.317,11.684-28.975
		c30.383,2.1,66.374-0.236,93.251-9.821C424.701,470.354,430.12,494.851,430.308,504.476z"/>
	<path fill="#00619D" d="M301.535,468.254c-30.628-6.284-57.796-31.311-68.709-55.393c-8.179-18.049-3.459-46.561,11.638-50.485
		c5.252,7.896,14.001,16.802,24.777,20.968c2.648,6.125,4.281,13.727,3.972,21.51c-4.798-0.495-9.762,0.33-14.56,1.819
		c1.158,6.454,4.136,16.051,8.439,23.663c-3.088-2.053-9.545-7.684-13.227-12.655c-4.661-6.297-12.925-18.645-10.12-31.087
		c0.963-4.279,2.335-7.714,5.782-10.119c-14.073-2.943-11.644,22.868-7.228,31.811c5.954,12.055,22.244,28.104,36.508,35.06
		c16.258,7.931,30.676,12.055,48.905,14.391c18.229,2.336,35.124,2.242,55.858,1.17c20.732-1.07,46.97-4.906,55.848-18.691
		c2.105,3.736,8.649,4.906,13.562,4.666C423.295,471.99,349.717,478.126,301.535,468.254z"/>
	<path fill="#EDC3A2" d="M452.74,436.942c-2.804,5.843-14.256,1.164-11.689-5.612c1.629-4.295,10.518-26.641,13.557-32.717
		c3.042-6.077,10.518-2.336,11.082,3.887C466.69,413.555,454.842,432.558,452.74,436.942z"/>
	<path fill="#EDC3A2" d="M470.032,445.12c-4.674,4.674-13.089-0.699-12.383-5.142c0.776-4.935,10.749-32.48,18.462-30.846
		C483.823,410.767,474.708,440.443,470.032,445.12z"/>
	<path fill="#EDC3A2" d="M486.655,453.105c-3.061,0.393-9.376-0.506-10.845-7.231c-0.463-2.136,2.82-8.485,3.613-9.394
		c2.112-2.408,6.336-6.797,10.243-6.784C498.832,429.729,492.179,452.391,486.655,453.105z"/>
	<path fill="#E2CA6C" d="M591.325,269.377c-8.133-14.843-25.265-30.63-41.772-36.412c-1.928,5.559-4.416,13.178-8.706,18.18
		c-3.027,3.531-8.023,3.443-11.537-1.546c-1.153,2.174-3.666,5.007-10.638,4.491c-6.967-0.514-9.405-7.077-9.611-8.316
		c-0.602,1.96-3.618,7.217-9.752,7.281c-6.131,0.065-7.929-2.784-9.4-5.992c-1.881,7.125-7.724,12.031-13.568,8.29
		c-5.843-3.736-7.114-13.668-7.714-20.099c-25.575,6.666-40.196,35.761-46.507,55.622c-6.309,19.869-7.574,44.69-5.956,57.039
		c1.459,11.108,3.852,23.121,7.23,33.259c-6.795-4.308-8.765-15.614-10.119-24.222c-2.607-16.527-2.771-35.402,1.6-54.858
		c4.674-20.798,9.818-31.552,18.933-45.338c9.115-13.791,25.706-24.54,34.59-26.176c-0.435-2.959-0.755-7.142-1.17-9.584
		c-12.385,3.742-28.045,13.319-42.067,31.552c-14.02,18.226-19.076,40.849-20.568,52.58c-3.738,29.447-4.233,78.684,19.869,96.065
		c3.336-7.22,7.712-15.673,15.657-18.944c7.946-3.273,12.388,3.507,15.447,9.765c9.634-3.607,14.144,5.024,14.821,13.738
		c13.402-7.247,13.85,12.479,12.033,23.475c3.742-3.972,12.155-7.013,14.726,3.035c15.187-3.494,32.53-9.326,53.284-26.398
		c23.395-19.245,39.027-46.274,39.962-81.568c0.578-21.839-9.501-41.925-19.511-55.187c-4.418-5.854-13.909-16.791-22.413-21.686
		c19.021-5.153,48.153,38.53,47.532,76.173c-0.624,37.643-19.728,66.542-42.299,85.538c-22.395,18.85-53.053,25.712-53.053,25.712
		s0.236,3.271-0.699,5.841c21.268-2.806,69.486-17.99,91.846-64.042C614.153,330.6,602.066,288.987,591.325,269.377z"/>
	<path d="M323.266,226.457c4.347,13.391,8.961,31.283,11.714,45.368c10.928-2.513,21.776-17.651,18.861-28.171
		c-2.266-0.57-5.262-0.487-7.123-0.404c1.992-6.583,16.189-4.371,16.189,2.429c-1.457-0.729-3.723-1.135-5.18-1.218
		c-0.892,17.485-8.018,25.047-21.696,32.141c4.422,19.169,4.456,51.703-14.574,55.046c-29.548,5.195-28.397-33.671-23.309-55.609
		c-13.437-2.636-20.968-13.762-18.135-30.359c-1.782-0.083-3.723,0.889-5.187,2.83c-3.271-8.59,16.554-10.979,15.544-1.806
		c-1.858-0.618-4.607-1.535-6.391-1.347c-5.43,11.603,3.382,25.234,15.138,25.499c1.734-10.514,4.613-22.586,8.58-34.082
		c-24.769,2.271-27.523-24.851-15.16-35.613c-1.597-2.596-3.132-7.013-2.812-9.555c6.395-3.965,15.473-6.607,21.615-7.69
		c2.994,2.264,3.886,9.314,2.429,12.143c1.538,0.647,3.804,2.989,4.29,4.289c1.376-5.018,7.286-12.956,18.296-12.55
		c-2.349-2.671-4.371-5.666-5.668-8.095c1.064-3.701,6.163-6.945,9.566-8.55c2.336,1.586,13.735,13.214,13.748,15.109
		c-1.295,2.507-3.714,4.131-5.666,5.502c2.601,3.249,6.395,7.289,6.376,15.538C354.683,222.303,340.298,233.994,323.266,226.457z"/>
	<path fill="#FAEEDC" d="M350.928,185.774c-1.782-3.078-7.042-8.579-10.606-11.173c-2.51,0.895-5.184,2.76-6.15,5.184
		c1.698,3.319,5.018,7.448,9.147,10.526C345.709,189.944,350.442,187.067,350.928,185.774z"/>
	<path fill="#FAEEDC" d="M292.562,192.491c-0.162,2.107,1.295,6.071,2.268,6.637c5.908-3.559,13.157-5.478,16.028-5.424
		c1.293-3.319-0.162-6.395-0.728-7.284C306.294,186.326,297.095,189.174,292.562,192.491z"/>
	<path fill="#FFFFFF" d="M350.119,212.242c2.266-8.985-2.765-15.721-6.395-18.533c-8.661-6.719-22.183-0.86-22.911,9.789
		c2.43,5.913,2.43,11.42,1.701,17.245C333.605,229.245,347.853,221.227,350.119,212.242z"/>
	<path fill="#FFFFFF" d="M291.59,208.925c-4.088,8.806-1.943,17.079,4.451,21.698c9.783,7.061,19.511-2.588,21.938-12.225
		c2.429-9.631-1.293-18.145-7.286-19.834C304.946,196.945,295.234,201.076,291.59,208.925z"/>
	<path fill="#EDC3A2" d="M312.234,235.152c-6.696,16.621-12.108,52.88-11.576,68c0.366,10.391,4.203,21.567,11.764,23.075
		c19.325,3.836,21.957-18.103,20.603-34.342c-1.847-22.174-11.888-59.646-13.345-66.448
		C318.468,229.487,316.11,231.94,312.234,235.152z"/>
	<path d="M329.881,214.19c-2.266-1.376-2.186-4.777,0-6.071c2.401-1.424,5.26,0.159,5.099,3.153
		C334.82,214.266,332.148,215.567,329.881,214.19z"/>
	<path d="M309.643,218.478c-1.698,4.531-8.251,2.277-6.636-2.1C304.623,212.002,311.342,213.943,309.643,218.478z"/>
	<path fill="#F8E7D5" d="M304.574,300.641c0.223-4.849,2.102-12.055,4.617-12.391c3.645-0.483,4.86,11.42,4.86,17.498
		c0,6.071-3.158,15.302-6.317,10.443C304.574,311.331,304.33,305.988,304.574,300.641z"/>
	<path fill="#F8E7D5" d="M312.593,369.888c5.607,0,12.635,3.642,7.774,8.501c-4.86,4.86-12.391,2.919-14.335-0.483
		C304.088,374.508,307.977,369.888,312.593,369.888z"/>
	<path fill="#F8E7D5" d="M346.851,238.448c1.976-1.166,9.475-3.406,13.12-0.729c3.645,2.672,5.537-5.666,0-6.559
		C350.982,229.699,342.722,240.877,346.851,238.448z"/>
	<path fill="#F8E7D5" d="M291.697,242.818c0.296,2.072-3.644-4.612-10.205-3.642c-4.723,0.701-7.532,3.159-8.747,4.86
		c-1.215,1.701-4.969-5.09,2.43-8.507C284.65,231.158,291.21,239.418,291.697,242.818z"/>
	<path fill="#F8E7D5" d="M265.7,203.218c2.142-1.07,6.074-0.489,7.289,1.941c1.215,2.43-8.747,5.348-9.963,4.378
		C261.811,208.56,262.782,204.67,265.7,203.218z"/>
	<path fill="#F8E7D5" d="M255.979,316.921c2.433,3.954,20.895,37.659,21.626,48.838c0.729,11.173-19.68-1.218-25.997-16.038
		C245.289,334.901,248.205,304.289,255.979,316.921z"/>
	<path fill="#E7B193" d="M283.434,173.577c0,0,12.875,1.941,31.342-1.46c18.466-3.4,35.232-10.45,35.232-10.45
		s-11.663,14.092-34.988,16.522S283.434,173.577,283.434,173.577z"/>
	<path fill="#94B2DC" d="M301.174,114.048c2.618-2.535,10.205-6.319,14.334-3.644c4.131,2.674-5.102,9.963-11.178,12.393
		C298.256,125.226,293.398,121.579,301.174,114.048z"/>
	<path fill="#94B2DC" d="M266.671,154.867c2.094,0.795,7.047,4.612,7.531,6.316c0.486,1.702-4.4,2.838-9.232,0.729
		S261.569,152.921,266.671,154.867z"/>
	<path fill="#94B2DC" d="M356.326,141.503c3.75-3.32,8.262-7.045,9.719-4.859c1.459,2.186-3.159,8.02-8.504,11.176
		C352.195,150.978,347.821,149.037,356.326,141.503z"/>
	<path fill="#94B2DC" d="M234.371,374.837c1.873-3.043,6.026-6.779,9.037-6.402c3.011,0.376-3.013,6.778-6.026,9.789
		C234.371,381.238,231.358,379.731,234.371,374.837z"/>
	<path fill="#94B2DC" d="M204.625,457.299c2.384-6.362,12.802-24.099,18.45-25.605c5.649-1.506-5.649,14.684-11.295,27.864
		c-5.649,13.178-10.166,32.757-13.555,31.252C194.835,489.305,197.846,475.374,204.625,457.299z"/>
	<path fill="#C1E2F8" d="M285.122,386.41c0,0,3.043,0.334,6.593,0.675c3.55,0.336,7.096,0.506,7.096,0.506s0.169,1.354,0,2.618
		c-0.169,1.271-0.882,1.788-4.14,1.018C288.249,389.705,285.122,386.41,285.122,386.41z"/>
	<path fill="#C1E2F8" d="M339.537,382.268c0,0,5.069-0.425,8.787-1.607c3.718-1.183,6.676-2.952,6.676-2.952
		s-1.435,3.717-5.069,6.254c-3.634,2.53-8.958,4.812-9.211,3.712C340.467,386.58,339.537,382.268,339.537,382.268z"/>
	<path fill="#95C0E6" d="M310.052,393.375c0.221,0.588,2.679,5.007,3.843,6.636c1.163,1.629,3.142,3.494,3.607,3.494
		c0.467,0,0.932-5.942,0-7.219C316.572,395.005,309.354,391.515,310.052,393.375z"/>
	<path fill="#95C0E6" d="M312.961,430.163c1.008-2.413,3.027-7.332,3.61-9.313c0.583-1.976,0.817,7.101-0.349,12.808
		c-1.164,5.703-10.711,12.339-9.197,9.778C308.539,440.878,310.869,435.17,312.961,430.163z"/>
	<path fill="#E7B193" d="M362.698,348.461c9.827-8.19,19.788-14.197,15.918-3.441c-3.871,10.754-16.347,21.938-28.392,24.951
		C338.177,372.984,352.374,357.069,362.698,348.461z"/>
	<path fill="#F8E7D5" d="M478.851,205.635c2.193,0,4.731,3.013,4.731,6.024c0,3.013-9.034,1.72-9.034-0.863
		C474.549,208.218,475.84,205.635,478.851,205.635z"/>
	<path fill="#F8E7D5" d="M493.907,200.905c1.543-1.159,7.743-3.443,9.896,0c2.15,3.441-2.581,6.883-6.883,6.883
		C492.617,207.788,490.465,203.488,493.907,200.905z"/>
	<path fill="#F8E7D5" d="M518.431,202.194c2.718-1.36,7.741-0.43,10.324,3.013c2.578,3.441-1.723,6.024-6.454,4.73
		C517.568,208.648,514.126,204.347,518.431,202.194z"/>
	<path fill="#F8E7D5" d="M543.135,211.041c1.694-0.799,4.284,1.26,4.284,5.131c0,3.871-6.204,3.631-7.155,1.225
		C539.464,215.373,541.441,211.842,543.135,211.041z"/>
	<path fill="#FAE8AB" d="M466.174,228.893l0.298-5.932c0,0-30.851,8.902-46.865,40.344c-16.022,31.44-15.723,65.847-15.723,65.847
		s6.55-39.078,20.764-63.476C444.521,231.57,466.174,228.893,466.174,228.893z"/>
	<path fill="#FAE8AB" d="M560.472,261.685c0,0,26.787,21.481,27.016,61.236c0.299,50.426-28.854,71.784-28.854,71.784
		s15.041-31.754,12.257-72.943C567.826,276.402,560.472,261.685,560.472,261.685z"/>
	<path fill="#C7AA54" d="M454.608,243.725c0,0-23.911,15.82-33.224,54.874c-10.678,44.79,1.483,76.531,1.483,76.531
		s-3.854-35.894,8.01-74.455C442.74,262.117,454.608,243.725,454.608,243.725z"/>
	<path d="M533.507,287.765c-26.943-30.47-65.577-1.131-67.292,21.054c8.453-2.454,23.634-7.934,37.073-10.361
		c1.116,4.132,0.099,13.802-1.408,18.086c-10.041,3.451-25.664,8.233-35.334,11.971c-0.607,5.926,1.344,14.527,3.755,18.742
		c10.399-4.76,32.985-12.542,38.438-13.632c1.634,3.816,1.096,15.812-0.877,18.823c-5.389,2.441-19.142,6.803-29.107,10.619
		c27.26,25.08,61.065-0.269,67.574-6.631c3.849,1.725,9.856,13.353,9.689,16.813c-8.838,16.802-67.175,32.888-95.45-1.712
		c-2.164,0.011-16.67,7.564-18.81,7.122c-1.841-0.379-4.712-12.046-3.894-17.226c2.728-2.185,8.994-4.908,11.448-6.27
		c-1.524-6.645-3.505-12.299-3.816-20.177c-4.36,1.091-9.268,2.726-13.628,3.817c-1.091-3.542-1.635-12.27-0.272-17.173
		c2.521-2.551,11.386-5.225,14.993-6.816c2.768-17.471,10.937-30.091,22.898-41.164c18.266-16.903,59.704-23.171,76.332,1.362
		C543.506,278.298,536.44,285.117,533.507,287.765z"/>
	<path fill="#E2CA6C" d="M479.941,281.214c24.986-16.832,45.153-7.767,52.791,0.612c1.734-0.185,7.031-5.687,7.045-7.166
		c-12.225-14.098-35.939-13.821-49.295-8.547c-29.496,11.649-38.24,35.952-40.075,51.427c-4.285,0.701-14.45,5.451-14.45,5.451
		s-1.382,6.356-0.819,10.356c2.177-0.543,10.084-2.18,13.633-4.359c0.712,10.896,4.75,24.195,5.996,27.803
		c-3.671,1.701-8.453,3.82-12.265,6.543c0.242,2.223,0.768,9.028,1.903,10.357c4.637-1.362,12.815-5.448,17.016-7.002
		c14.611,15.18,29.33,22.814,48.416,21.452c16.875-1.204,33.8-5.179,41.052-14.616c-0.166-3.652-3.164-9.372-4.844-10.544
		c-5.951,5.26-23.425,13.498-32.668,14.527c-17.173,1.909-34.62-3.542-40.621-16.356c8.996-3.273,31.623-11.722,31.623-11.722
		s1.811-2.792,1.365-10.361c-14.726,3.816-27.534,8.999-37.624,13.362c-2.984-0.447-6.832-20.425-6.986-26.484
		c7.744-2.174,37.246-11.684,37.246-11.684s1.782-5.301,0.819-10.628c-11.305,1.785-26.465,7.846-38.439,11.448
		C461.853,299.55,468.701,288.783,479.941,281.214z"/>
	<path fill="#FAE8AB" d="M438.227,323.437c0,0,6-2.336,21.33-6.999c15.828-4.816,37.325-11.332,37.325-11.332l-0.667,7.999
		l-58.984,14.329L438.227,323.437z"/>
	<path fill="#FAE8AB" d="M443.557,364.091c0,0,17.333-7.996,29.329-12.329c11.996-4.333,31.988-10.998,31.988-10.998l-0.666,6.333
		l-60.315,20.326L443.557,364.091z"/>
	<path fill="#FAE8AB" d="M467.887,283.78c0,0,10.663-17.326,37.656-19.659c20.605-1.779,32.324,10.329,32.324,10.329l-3.999,3.333
		c0,0-9.666-11.327-27.994-9.663C487.548,269.782,467.887,283.78,467.887,283.78z"/>
	<path fill="#FAE8AB" d="M484.216,374.422c0,0,9.327,7.001,29.99,4.333c20.664-2.667,31.66-13.998,31.66-13.998l3.333,6.333
		c0,0-9.329,12.332-34.324,12.663C489.878,384.085,484.216,374.422,484.216,374.422z"/>
	<path fill="#C7AA54" d="M459.89,373.422c0,0,7.443,14.805,33.99,19.328c31.324,5.333,56.982-10.329,56.982-10.329
		s-14.66,24.325-55.316,16.995C454.889,392.084,459.89,373.422,459.89,373.422z"/>
	<path fill="#C7AA54" d="M469.551,301.44c0,0,7.516-18.871,31.994-24.992c17.328-4.333,29.322,9.996,29.322,9.996
		s-10.09-8.039-29.322-2.997C481.218,288.777,469.551,301.44,469.551,301.44z"/>
	<path fill="#C7AA54" d="M467.887,329.766l33.323-11.665c0,0-4.997,6.999-6.666,8.001
		C492.88,327.103,467.887,329.766,467.887,329.766z"/>
	<path fill="#C7AA54" d="M481.218,363.426l25.656-9.666c0,0-2.666,5.33-3.664,5.997
		C502.208,360.425,481.218,363.426,481.218,363.426z"/>
</g>
</svg>
