<?xml version="1.0" encoding="utf-8"?>
<!-- Generator: Adobe Illustrator 17.0.0, SVG Export Plug-In . SVG Version: 6.00 Build 0)  -->
<!DOCTYPE svg PUBLIC "-//W3C//DTD SVG 1.1//EN" "http://www.w3.org/Graphics/SVG/1.1/DTD/svg11.dtd">
<svg version="1.1" id="Layer_1" xmlns="http://www.w3.org/2000/svg" xmlns:xlink="http://www.w3.org/1999/xlink" x="0px" y="0px"
	 width="800px" height="600px" viewBox="0 0 800 600" enable-background="new 0 0 800 600" xml:space="preserve">
<g>
	<g>
		<path fill="#5B9E3C" d="M452.824,578.122c58.213-13.412,109.527-37.861,153.947-74.157h-0.761
			C547.795,526.05,497.245,550.506,452.824,578.122z"/>
		<path fill="#5B9E3C" d="M141.866,347.763c16.772,0,38.032-5.377,62.632-14.179c-31.901,17.407-86.225,35.951-71.096,39.56
			c15.13,3.609,72.256-14.411,67.655-12.042c-13.783,6.309-25.423,13.038-52.386,28.562c-26.963,15.524-9.805,46.568,23.694,39.215
			c33.499-7.353,59.871-16.427,66.769-19.585c-13.024,7.888-29.87,15.781-51.315,26.032c-14.553,7.11-38.361,45.03-21.162,39.871
			c17.2-5.159,44.706-16.123,56.187-20.066c0,0-59.628,32.682-44.148,37.841c15.48,5.159,40.526-2.423,49.711-6.366
			c-6.887,3.943-33.083,17.26-26.204,22.992s30.798,6.198,33.103,6.198c-0.768,1.581-21.448,16.561-21.448,22.087
			c1.529,11.835,7.662,17.36,17.619,17.36c9.953,0,22.978-2.366,39.057-6.311c0.768,4.73,4.594,7.096,10.72,7.096
			c14.557,0,65.109-20.513,151.657-62.317c6.887-3.948,13.78-7.105,20.679-10.263c-27.579,14.989-55.153,29.982-84.25,45.758
			c-9.191,4.733-43.332,18.462-60.51,25.248c-17.178,6.785-41.03,20.003-29.104,25.241c11.926,5.238,53.594,3.607,83.825-3.748
			c30.231-7.355,62.865-24.476,111.118-46.573c76.596-34.708,190.965-98.052,192.6-108.674
			c1.635-10.622-107.217,54.073-145.517,71.43c5.363-3.943,11.493-7.101,17.619-10.259c68.16-41.021,181.225-94.659,175.506-125.707
			c-5.719-31.049-95.855,46.026-95.855,46.026c-19.146,7.892-39.057,16.574-32.933,12.625l-0.768-0.785
			c-3.827,1.577,139.36-87.279,122.202-101.17c-17.158-13.891-57.096,19.907-81.604,31.74c58.97-38.655,93.859-89.749,82.421-106.09
			c-11.438-16.341-54.852-7.514-87.017,12.21c12.258-10.256,44.531-31.82,35.544-38.356c-8.987-6.536-75.713,43.029-86.64,49.129
			c29.109-23.712,40.168-34.887,49.057-43.41c8.889-8.523-6.231-24.44-18.639-15.488c-12.408,8.952-67.553,42.072-85.942,54.706
			c1.536-1.583,57.902-50.137,84.972-70.264c27.069-20.127,19.609-54.742,5.719-60.461c-13.89-5.719-50.707,17.647-72.916,31.055
			c13.782-10.259,53.306-37.593,37.783-35.141c-15.523,2.452-54.636,30.406-90.632,50.926c-9.192,5.508-26.806,14.195-54.379,27.607
			c-16.086,7.89-26.812,15.778-32.933,21.296c-3.827,1.581-6.898,2.373-9.19,2.373c45.182-29.193,168.855-106.746,185.348-117.547
			s-4.596-16.568-9.191-14.991c10.72-11.053,16.085-18.147,16.085-22.881c0-10.254-3.472-21.135-18.997-8.061
			c-15.524,13.074-115.037,82.876-129.47,93.372c0.842-1.193,1.638-2.421,2.405-3.673c0.184-0.127,0.357-0.247,0.538-0.377
			c35.468-24.848,87.337-66.144,114.271-94.225c16.685-17.396-21.605-3.197-44.449,13.773
			c-21.974,16.325-43.878,32.047-65.759,47.174c1.756-2.405,3.219-4.986,4.336-7.772c4.056-3.605,8.066-7.262,12.049-10.955
			c31.103-24.512,75.031-48.753,84.019-62.644c8.987-13.891-55.451,28.648-76.894,42.067c21.443-16.572,85.881-64.942,91.6-77.199
			c5.719-12.257-73.741,39.647-89.057,51.473c6.889-8.669,67.814-47.389,53.107-46.573c-14.706,0.817-36.873,19.689-75.166,44.937
			c43.652-33.136,40.235-44.157,22.059-40.851c-17.976,3.269-38.727,13.219-63.077,23.569
			c-24.248,10.307-100.771,48.079-112.518,53.866c-11.748,5.792,25.233-3.7,33.655-7.645c-9.953,5.522-32.892,13.957-52.043,25.009
			c0,0,1.961,4.152,12.217,0.234c10.258-3.918,29.873-14.195,39.826-21.298c0.768,0.785,1.536,1.577,3.062,1.577
			c-3.062,1.577-5.354,3.153-7.657,4.737c-20.679,12.623-43.367,23.17-51.023,26.323c0,0,1.447,5.191,12.726-0.297
			c9.262-4.508,31.192-16.5,49.769-27.637c-1.181,1.697-2.518,3.305-3.97,4.834c-43.011,26.346-108.556,65.382-123.915,75.661
			c-17.355,11.62,49.014-10.25,75.82-21.3c-3.828,3.162-8.423,5.524-12.256,7.888c-39.056,15.781-67.392,29.982-86.543,43.392
			c8.417,0.79,17.615-1.577,27.566-4.73c0.77,2.366,0.77,3.153,2.306,4.73c-15.326,7.108-26.813,14.202-34.467,20.515
			c24.506-4.739,45.187-10.254,62.039-16.572c-6.132,3.165-12.256,6.318-18.389,10.259c-49.016,15.774-73.523,27.609-73.523,34.712
			c0.763,8.68,5.363,12.623,13.019,12.623c8.426,0,27.573-9.469,56.678-27.612c5.362-3.949,9.958-7.101,14.553-9.467
			c2.292-0.792,4.591-1.575,6.126-1.575c-52.082,31.557-78.126,48.912-78.126,52.065c0,3.945,0.768,5.522,3.834,6.311
			c-24.512,11.836-35.996,22.879-35.996,33.131C118.887,335.93,126.55,347.763,141.866,347.763z M533.597,170.179
			c-2.866,8.6-111.453,68.331-125.961,70.287C393.128,242.422,536.463,161.579,533.597,170.179z"/>
		<path fill="#5B9E3C" d="M628.979,462.942c-62.808,33.133-144.755,73.368-247.386,121.49c15.317,7.108,61.271-8.677,137.099-48.122
			c75.053-37.868,111.819-62.319,111.819-71.786C630.511,462.154,629.747,461.365,628.979,462.942z"/>
		<path fill="#5B9E3C" d="M282.665,84.091c19.751-8.387,123.991-61.909,144.626-70.786c4.546-1.951-5.109-5.785-22.986-0.524
			c-21.495,6.332-67.691,30.772-86.319,41.564C289.202,71.02,278.038,86.052,282.665,84.091z"/>
	</g>
	<g>
		<path d="M291.911,459.148c-0.06,0.488-0.181,1.463-0.303,2.437c-0.609,4.887,1.421,10.465,5.877,16.448
			c2.971,3.99,6.335,6.804,9.886,8.144c-0.942,1.588-2.517,5.229-2.719,12.893c-0.202,7.663,5.041,20.434,19.828,17.074
			c-1.784-5.1-16.814-22.634-10.042-29.027c3.73-0.118,7.583-1.218,12.105-3.698c1.639-1.221,1.606-2.967,0.546-4.392
			c-0.637-0.855-4.154-0.451-9.586,1.377c-1.515,0.245-2.274,0.365-3.519,0.404c-0.273,0.207-0.486-0.079-0.758,0.125
			c-3.945-0.163-7.37-2.486-10.765-7.046l-2.335-3.135c-0.787-1.629-1.788-3.539-2.094-5.088c-0.358-1.057-0.448-2.321,0.157-3.215
			c-0.212-0.284-0.212-0.284-0.212-0.284c-0.212-0.286-0.212-0.286-0.212-0.286l0.276-0.204c0.666-1.382,0.576-2.645,0.907-3.335
			c0.275-0.204,0.487,0.082,0.762-0.125c2.003-0.161,3.791-0.608,5.794-0.771c2.333-0.851,4.882-1.42,7.007-2.561
			c4.399-1.5,8.433-4.063,11.984-6.708c0.881-1.096,1.975-1.91,2.852-3.006c2.157-3.38,4.313-6.758,6.679-9.85l2.547,3.423
			c6.154,8.262,16.163,11.441,29.752,9.737c2.003-0.159,3.794-0.61,5.795-0.771c8.403-1.828,18.717-5.077,30.036-10.402
			c4.916-3.664,8.588-7.284,11.077-11.352c2.306-2.604,3.794-4.601,5.554-6.795c6.345-9.156,6.046-18.678-0.744-27.795
			c-1.911-2.568-3.52-3.585-4.339-2.977c-0.82,0.61-1.092,0.814-0.88,1.098c5.394,12.375,6.452,21.779,3.447,28.004
			c0.394-1.18,0.637-3.133,0.88-5.089c0,0,0.062-0.488,0.124-0.975c-0.092-1.264-0.244-2.035-0.334-3.296
			c0,0-0.211-0.284,0.064-0.488c0.06-0.49,0.06-0.49-0.152-0.774c-1.15-6.674-3.756-13.596-8.789-20.924
			c-1.214-2.196-2.637-4.68-4.122-6.674c-1.062-1.425-2.517-1.672-3.885-0.653c-1.365,1.016-1.182,3.539,1.304,7.448
			c2.363,4.887,3.938,8.14,5.15,10.338l1.426,2.484c0.211,0.284,0.211,0.284,0.211,0.284l0.152,0.774
			c0.15,0.774,0.361,1.057,0.574,1.343l-0.213-0.286c4.852,12.784,1.297,23.403-9.901,31.743c-7.1,5.286-16.108,8.008-27.302,8.371
			c-6.706,0.12-12.587-0.372-17.716-0.982c-4.216,0.039-9.797-2.897-17.226-8.882c2.428-3.58,4.432-7.729,6.163-11.677
			c0.274-0.204,0.274-0.204,0.274-0.204l0.425,0.569c5.517,7.409,18.741,8.637,39.825,4.453c4.369-3.253,7.404-7.729,9.046-12.938
			c3.764-10.331,0.465-21.611-9.083-34.433c-7.854-10.547-16.434-20.467-31.629-27.759c-14.284-6.64-21.068-9.045-28.379-7.931
			c-7.312,1.114-12.71,3.532-11.649,4.957c0.761-0.12,13.201,8.296,17.598,10.781c4.824,3.051,7.92,6.559,11.526,11.402
			c11.672,15.672,6.058,37.857-19.953,73.615c-9.015,6.715-19.239,12.185-31.556,11.613c-1.939-0.329-4.154-0.454-6.094-0.781
			c-17.261-2.65-33.209-13.811-48.064-33.759c-18.038-24.222-25.033-53.567-20.5-87.952c1.341-10.744,3.986-22.017,7.873-33.329
			c3.645-9.36,5.283-14.567,5.68-15.747c4.098-11.028,10.778-24.862,20.401-40.448c10.503-16.679,19.85-28.07,27.559-34.254
			l4.097-3.051l3.395,4.558c5.851,6.72,12.524,8.841,20.29,6.157c-1.001,2.074-1.914,5.413-2.674,9.522
			c-1.062,6.552-1.037,12.289,0.904,16.606c0.303,1.547,1.151,2.686,2.212,4.111c1.91,2.566,4.155,4.438,7.156,6.189
			c1.881,0.814,4.246,1.71,6.732,1.631c4.369,0.735,7.463-0.24,9.102-1.463c0.272-0.202,0.335-0.692,0.122-0.976
			c-1.454-0.245-4.703-0.043-9.253,0.69c-4.488,0.243-8.889-2.244-12.496-7.087c-2.971-3.99-3.757-9.608-2.692-16.159
			c0.209,4.274,1.939,8.303,4.909,12.294c7.641,10.259,17.741,10.71,30.577,1.152l0.818-0.61c1.366-1.016,2.793-2.523,4.431-3.741
			l7.739-8.423c0.271-0.204,0.546-0.408,0.607-0.894c1.427-1.504,2.641-3.296,3.583-4.882c-0.642,3.133-1.339,6.754-2.101,10.865
			c0.639,0.855,1.335,1.223,1.819,1.304l1.366-1.019c2.458-1.831,4.01-8.299,4.225-19.978c0.124-0.98-0.028-1.751,0.032-2.241
			l-1.478-13.959c-1.363-6.963-3.879-12.618-7.273-17.178c-0.848-1.139-2.035-1.588-3.126-0.776
			c-1.365,1.018-0.909,3.337,1.365,6.96l0.211,0.283c2.909,4.481,4.273,7.455,4.636,8.512c0.18,2.523,0.424,4.555,0.666,6.593
			l-0.424-0.569c-4.669-6.271-11.433-9.651-19.38-9.492c-4.217,0.041-7.463,0.24-10.345,1.502c0.335-0.692,0.669-1.384,1.001-2.076
			c0.576-2.645,0.821-4.598,0.641-7.123c-0.119-3.01-1.484-5.98-3.605-8.829c-4.034-5.415-8.159-8.104-12.799-8.634
			c-0.09-1.264-0.12-3.01,0.337-4.68c-0.362-5.048,1.369-8.995,4.645-11.434c2.73-2.033,5.917-1.749,9.497,1.348
			c2.879,2.727,5.517,3.419,6.883,2.405c0,0,0.304-2.443-0.118-7.001c-0.15-4.76,1.309-8.505,4.585-10.944
			c1.368-1.021,3.369-1.182,5.673,0.204c2.093,1.1,3.336,1.059,3.882,0.651c-0.211-4.272-0.148-8.748,0.128-12.94
			c0.125-8.952,2.919-15.463,8.108-19.326c3.005-2.237,7.22-2.275,12.104,0.288c4.668,2.282,7.246,3.464,7.792,3.058
			c2.46-5.819,4.887-9.399,7.346-11.232c1.637-1.218,3.915-1.584,7.101-1.298c5.61,0.694,10.795,4.807,15.888,11.645
			c0.848,1.141,0.272,3.786-2.55,8.546c-2.552,4.56-3.401,7.405-2.764,8.258c0.637,0.855,2.852,0.98,7.34,0.737
			c4.702,0.046,8.401,2.162,12.221,7.291c0.848,1.139,0.119,3.013-2.883,5.247c-1.095,0.814-3.369,1.18-7.161,1.788
			c-1.366,1.016-1.426,1.507-0.94,1.588l0.666,2.604c0.637,0.858,1.395,0.733,2.365,0.896c1.033-0.325,2.367,0.898,4.064,3.176
			c2.334,3.135,1.544,5.495-1.945,7.652c-3.55,2.643-5.582,5.041-5.129,7.364c1.609,1.016,3.701,2.117,5.854,2.727
			c1.455,0.245,3.275,1.549,4.972,3.83l1.061,1.425c1.06,1.424,1.577,3.255,1.122,4.923c-0.061,0.49-0.395,1.18-0.183,1.466
			c-6.099,3.214-13.079,7.525-20.453,13.015c-11.742,8.743-19.57,15.903-23.274,21.763c-6.679,9.846-9.504,22.584-8.54,38.7
			c-4.829,8.909-7.712,14.161-8.318,15.052c-2.856,6.999-4.043,14.528-3.014,22.183c0.726,6.103,0.963,16.114,1.138,30.601
			c1.268,13.678,5.117,24.544,11.484,33.095c7.428,9.973,16.921,15.307,28.689,16.289c6.429,0.084,13.469-0.726,21.235-3.41
			c11.074-3.374,21.694-9.066,31.798-16.591c4.368-3.253,12.865-11.795,25.07-26.198c11.589-13.507,18.511-21.316,19.908-24.571
			c6.648-11.597,11.203-24.293,13.817-37.314c4.196-21.731,2.293-40.25-6.892-56.004c6.525-2.643,13.198-4.51,20.571-6.014
			c18.959-3.042,34.913,4.126,47.646,21.223c8.488,11.4,12.121,25.974,10.961,43.224c-0.7,3.623-2.584,10.785-6.533,22.586
			c0.85,1.141,2.306,1.384,3.672,0.368c4.915-3.662,7.619-11.434,7.41-23.682c1.032-0.325,1.791-0.447,3.097-0.975
			c5.702-2.033,9.829-3.333,12.163-4.188c12.258-2.924,22.631,1.311,30.907,12.425c1.486,1.996,1.636,6.758-0.037,14.206
			c-0.304,2.441-0.822,4.596-1.064,6.549c-2.7-0.204-4.005,0.325-5.097,1.139c0,0-0.545,0.406-1.154,1.3
			c-0.819,0.61-0.454,1.668,0.182,2.523c0.425,0.569,2.365,0.898,6.793,1.143c0.424,0.571,1.124,0.939,1.67,0.533
			c3.88,0.651,6.67,2.117,8.792,4.966c2.122,2.849,2.789,5.456,2.06,7.326c-0.271,0.204-0.545,0.406-0.878,1.103
			c-2.761,0.279-5.098,1.134-6.738,2.357c0,0-0.546,0.404-1.151,1.302c-0.396,1.177-0.518,2.155,0.331,3.296
			c1.062,1.425,3,1.749,6.099,0.774c1.727,0.041,5.032-0.651,9.372-1.665c10.071-1.298,18.292,2.33,25.082,11.448
			c10.186,13.68,13.396,27.682,9.202,41.434c-0.154,0.572-0.342,1.168-0.551,1.779c4.94-7.176,8.172-15.166,8-23.823
			c-1.843-7.654-5.622-15.413-11.461-23.253c-6.366-8.551-15.435-13.317-27.478-14.095c-1.457-0.245-2.975,0-4.215,0.041
			c0.698-3.621-0.331-7.285-3.303-11.275c-2.971-3.991-6.398-6.311-10.22-7.453c3.404-11.393,2.833-20.713-2.473-27.836
			c-7.217-9.692-17.163-13.36-30.755-11.654c-7.524,0.728-13.438,2.477-17.262,5.325c-0.153-0.774-0.092-1.261,0.242-1.953
			c-1.173-16.402-4.992-29.51-11.569-38.342c-2.336-3.135-3.608-4.846-4.155-4.437c-7.851-10.545-18.465-16.817-32.055-19.102
			c-13.801-2.568-26.543,0.272-37.953,8.328l-2.758-3.705c-2.547-3.419-3.608-4.846-3.88-4.642
			c-20.953-16.736-40.425-23.498-58.354-20.783c-2.822,0.776-5.641,1.547-8.738,2.521c-0.303-1.545-1.514-3.746-3.425-6.309
			c-1.273-1.71-3.882-4.642-7.945-7.818c2.398-1.341,3.823-2.847,4.976-4.147c1.551-2.484,0.853-6.84-3.057-13.228
			c2.822-0.774,4.947-1.91,6.159-3.7c2.035-2.4,0.853-6.838-3.18-12.251c-3.183-4.274-5.852-6.72-8.976-7.496
			c-1.456-0.243-2.913-0.488-4.427-0.245c4.551-4.721,3.825-10.824-1.691-18.231c-5.094-6.84-10.613-10.263-16.983-10.835
			c-4.216,0.041-8.068,1.137-10.801,3.169c-2.185,1.629-4.43,3.743-6.858,7.323c-4.486-3.746-8.732-5.459-12.586-4.36
			c-1.305,0.529-4.46,1.992-8.285,4.841c-4.915,3.659-7.767,6.67-8.437,8.051c-1.545,2.482-2.611,9.036-2.979,19.941
			c-5.067,2.888-7.797,4.921-8.89,5.735c-0.273,0.204-0.273,0.204-0.273,0.204c1.456-3.743,2.216-7.852,3.099-12.94
			c2.767-16.239-0.38-30.729-10.143-43.837c-13.157-17.668-32.72-21.706-58.903-12.398c-12.5,4.88-25.791,12.119-39.992,22.693
			c-4.643,3.457-10.833,9.397-19.33,17.94c-13.321,13.462-24.155,26.847-33.325,40.763c-27.835,42.437-30.612,78.613-8.329,108.536
			c10.61,14.247,23.351,19.381,38.973,15.279c7.372-1.5,15.048-5.447,23.24-11.547c3.551-2.643,6.952-6.064,10.683-10.17
			c-7.499,14.444-14.089,29.54-18.522,45.248c-15.919,52.165-10.537,96.446,15.99,132.068c16.127,21.656,34.839,32.53,56.193,32.133
			C290.94,458.985,291.426,459.067,291.911,459.148z M351.766,372.489c-0.817-3.378-2.242-5.86-4.364-8.709
			c-2.759-3.705-6.487-7.575-10.339-10.467c1.943,0.329,3.609,0.855,5.279,1.388c15.012,4.764,27.051,13.521,36.178,25.776
			c1.696,2.278,3.606,4.844,5.032,7.325c-3.854-2.888-8.675-5.944-14.799-8.469C360.592,375.218,354.954,372.773,351.766,372.489z
			 M352.029,396.214c1.672-7.448,1.767-14.163,0.768-20.064c4.578,1.021,9.1,2.527,13.072,4.442
			c8.977,3.505,15.892,7.659,20.619,13.442c2.396,6.634,2.635,12.655,0.509,17.784c-4.214-3.95-10.431-7.738-19.407-11.243
			C360.28,397.6,355.002,396.217,352.029,396.214z M350.785,400.243c8.25,1.389,30.147,12.546,33.847,14.664
			c-1.488,1.994-2.914,3.5-4.825,4.925c-3.825,2.847-15.533,1.375-35.187-3.925C347.293,410.377,349.419,405.246,350.785,400.243z
			 M411.621,359.37c-0.755,0.12-1.303,0.529-2.061,0.651l-1.73-0.045c-0.271,0.204-0.271,0.204-0.483-0.082l0.212,0.286
			c-2.003,0.166-4.005,0.327-6.007,0.488c-1.608-0.039-3.634-0.152-5.254-0.594c0.229-0.027,0.484-0.111,0.615,0.064
			c0.271-0.202,0.817-0.608,0.817-0.608l0.82-0.612l1.578-0.731l3.004-2.237c1.64-1.221,3.279-2.441,4.705-3.947
			c2.638-3.296,5.34-7.081,7.557-10.944c6.708-12.087,8.715-20.223,5.532-24.497l-1.546-1.506l-0.82,0.61
			c1.575,7.244,0.115,14.978-4.377,23.195c0.211,0.283,0.211,0.283-0.062,0.488c-0.88,1.098-1.607,2.97-2.763,4.274
			c-3.035,4.471-5.948,7.972-9.771,10.821c-1.366,1.016-3.216,1.951-5.555,2.804l-1.575,0.731c-1.032,0.327-4.431-0.245-9.707-1.631
			c-3.155-2.523-6.034-5.252-8.792-8.957c-4.034-5.415-7.459-11.724-9.243-19.254c0.059-0.488,0.606-0.894,0.94-1.588
			c1.001-2.076,2.274-4.351,3.339-6.915c1.882-3.174,3.703-5.862,5.948-7.977c0,0,0,0-0.212-0.284
			c0.061-0.49-0.151-0.774-0.302-1.547c-3.065,2.725-5.372,5.329-7.407,7.729c-0.607,0.894-1.487,1.996-2.152,3.376
			c-0.337,0.692-0.944,1.59-1.337,2.768c-0.365-1.057-0.031-1.747-0.668-2.604l-0.574-5.331c-0.604-7.083-0.447-14.286,0.255-21.895
			c0.243-5.942,1.398-11.23,2.552-16.525c1.185-3.539,2.371-7.076,3.768-10.333c1.637-1.218,3.216-1.953,5.006-2.4
			c1.79-0.445,4.005-0.322,6.431,0.086c0.063-0.49,0.394-1.18,0.454-1.67c-0.757,0.123-2.488,0.082-3.516,0.406
			c-3.247,0.202-5.581,1.057-7.859,1.422c3.462-7.895,8.043-14.851,13.75-20.874c0.912,0.653,1.609,1.019,3.064,1.266
			c2.637,0.692,4.458,1.992,6.491,3.582c0.333-0.692,0.881-1.1,1.427-1.506c-1.758-1.792-3.851-2.888-6.704-3.868
			c-0.699-0.368-1.94-0.327-3.124-0.774c1.911-1.425,3.34-2.931,4.977-4.149c0.423,0.569,1.333,1.223,2.516,1.667
			c2.094,1.1,3.368,2.811,5.124,4.603l2.187-1.629c-2.608-2.931-5.066-5.088-7.642-6.268c7.374-5.492,14.504-9.029,20.904-10.697
			c11.923-2.232,22.479,0.542,31.605,8.804c1.181,4.435-0.399,9.159-5.559,14.771c-1.426,1.507-2.577,2.806-4.491,4.233
			c-0.271,0.202-0.818,0.608-1.578,0.728c0,0,0,0-0.213-0.286c-7.214-9.687-16.77-10.547-27.965-2.207l-0.727-2.117
			c-0.212-0.286-0.425-0.572-0.364-1.06c-0.15-0.774-0.999-1.915-1.422-2.484c-0.76,0.122-1.579,0.733-2.4,1.345
			c0.636,0.853,1.003,1.912,1.638,2.765c0.365,1.06,0.666,2.604,0.755,3.87l-1.636,1.216l-0.788-1.627
			c-0.85-1.141-1.426-2.482-2.7-4.192c-0.545,0.404-1.091,0.812-1.699,1.708c1.274,1.71,2.335,3.135,2.85,4.966l0.211,0.284
			c0,0,0,0-0.273,0.204l0.213,0.286l-0.062,0.488c-2.518,2.321-4.824,4.923-6.644,7.607c-1.124-0.935-2.306-1.384-3.549-1.343
			c-0.91-0.653-1.881-0.814-2.641-0.692c-0.605,0.894-1.152,1.302-1.486,1.992c0.698,0.367,1.393,0.735,2.366,0.898
			c1.183,0.447,2.303,1.384,3.487,1.831c-5.373,9.317-4.739,18.149,2.052,27.267l0.212,0.286c0.848,1.139,1.697,2.278,3.03,3.501
			c-2.06,0.651-4.399,1.506-6.733,2.359c-2.945,1.749-6.919,3.825-10.467,6.466c0.423,0.569,0.636,0.855,0.786,1.629
			c3.005-2.237,7.192-4.025,11.378-5.817c1.304-0.526,2.337-0.849,3.155-1.461c1.519-0.245,2.822-0.774,4.064-0.812
			c0.699,0.365,1.61,1.019,2.733,1.956c3.637,2.602,7.397,4.233,11.827,4.481c1.577-0.733,2.821-0.774,4.215-0.039
			c1.457,0.243,2.973,0,4.005-0.325l2.122,2.849c3.697,6.107,5.878,12.457,5.149,18.317c-0.121,0.976-1.096,4.8-3.343,10.905
			c-0.516,2.157-2.186,5.615-5.22,10.091c-0.942,1.586-1.884,3.174-3.035,4.474c-1.762,2.196-2.701,3.782-4.067,4.8
			C412.593,359.533,412.381,359.247,411.621,359.37z M422.735,268.252c-1.031,0.327-2.063,0.651-2.821,0.771
			c0.273-0.204,0.332-0.692,0.122-0.975c0.545-0.406,0.88-1.098,1.001-2.078c0.788-2.357-0.573-5.329-3.544-9.317l-1.274-1.711
			l0.271-0.202c4.885-1.425,9.069,0.774,13.313,6.475c0,0,0,0,0.213,0.284c-1.212,1.792-2.366,3.094-2.488,4.07
			C425.344,267.195,424.039,267.724,422.735,268.252z M427.163,268.497l0.819-0.61c0.213,0.286-0.334,0.692-0.334,0.692
			c-1.487,1.994-2.489,4.07-3.977,6.062c-1.366,1.019-3.518,0.406-6.125-2.525c0.547-0.406,0.547-0.406,0.82-0.608
			C420.52,272.118,423.126,271.061,427.163,268.497z M418.124,265.482c-1.12-0.937-2.426-0.408-4.003,0.325l-1.061-1.425
			c-1.486-1.994-3.305-3.299-5.034-3.339c1.426-1.504,2.307-2.604,2.307-2.604c1.366-1.019,1.97-1.91,3.548-2.643
			C416.852,259.783,418.156,263.243,418.124,265.482z M407.387,264.175c2.428,0.408,4.034,1.427,5.094,2.852l-2.458,1.833
			c-0.273,0.202-0.607,0.892-0.455,1.665c0.15,0.776,0.091,1.261,0.181,2.523l1.636,2.77c0.212,0.286,0.212,0.286,0.212,0.286
			c-0.878,1.098-1.697,1.708-2.852,3.008c-1.093,0.814-1.701,1.708-2.793,2.521c-2.822,4.76-3.159,9.442-1.765,14.165
			c-2.456-2.16-5.125-4.601-7.459-7.736c-4.032-5.415-2.755-11.681,3.193-19.656c1.7-1.71,3.338-2.929,4.765-4.435
			C405.446,263.851,406.415,264.014,407.387,264.175z M409.259,280.943c0.273-0.202,0.273-0.202,0.273-0.202
			c1.366-1.019,2.247-2.117,3.127-3.212c0.636,0.855,1.485,1.994,2.609,2.929c-1.366,1.019-1.974,1.913-2.643,3.299
			c0.212,0.284-0.059,0.486-0.059,0.486c-2.399,5.329-1.341,10.744,2.692,16.16c-2.214-0.125-3.883-0.654-5.764-1.47
			C406.343,292.422,406.588,286.481,409.259,280.943z M415.052,284.162c0.608-0.896,0.942-1.586,1.761-2.198
			c1.819,1.304,3.973,1.917,5.978,1.751c0.483,0.082,0.754-0.12,1.029-0.325c0.092,1.264,0.183,2.523,0.758,3.866
			c0.241,2.037,1.393,4.723,3.515,7.573c0.849,1.141,1.485,1.994,2.395,2.648c-2.609,1.057-4.734,2.194-7.008,2.561
			c-1.791,0.445-2.82,0.771-4.551,0.728c-0.213-0.286-0.907-0.651-1.545-1.506C413.35,293.845,412.717,289.006,415.052,284.162z
			 M430.006,293.405c-1.91-2.564-3.124-4.762-3.579-7.083c-0.363-1.055-0.181-2.523,0.214-3.702
			c-0.212-0.284,0.121-0.975-0.092-1.261l1.366-1.019c3.55-2.643,5.918-5.733,7.527-8.702c2.577,1.18,5.49,1.67,9.92,1.917
			c0,0,0.271-0.204,0.546-0.406c3.457,0.079,6.218-0.202,8.28-0.853c-0.666,1.384-1.609,2.97-2.489,4.067
			c-4.035,6.552-9.196,12.165-15.263,17.128c0,0-1.366,1.016-3.824,2.847C431.976,295.483,431.066,294.831,430.006,293.405z
			 M447.879,271.233c-0.546,0.406-1.244,0.041-1.518,0.243c-3.455-0.082-6.58-0.855-9.582-2.607c0,0,0,0-0.273,0.202
			c1.244-4.027,1.186-7.525-0.39-10.783c-0.212-0.286-0.212-0.286-0.424-0.572c0.059-0.488,0.059-0.488-0.153-0.774l6.555-4.88
			c5.099-5.125,6.953-10.05,5.618-15.259c1.972,2.076,3.73,3.868,5.64,6.434c5.517,7.409,6.425,16.035,2.235,25.801
			C450.976,270.258,448.367,271.317,447.879,271.233z M435.695,180.191c18.02-5.449,33.065-2.92,45.134,7.586
			c-3.549-1.345-7.433-1.994-11.921-1.754c-8.432,0.077-15.38,2.148-20.843,6.218c0,0-3.884,3.333-10.41,9.964
			c-3.337,2.929-5.431,5.819-6.647,7.609c-0.666,1.382-0.79,2.362-1.123,3.051c-0.395,1.182-0.243,1.951,0.395,2.809
			c0.424,0.569,0.907,0.651,0.695,0.368l0.82-0.61c0.335-0.69,0.669-1.386,0.729-1.872l0.939-1.588
			c0.335-0.69,0.609-0.894,0.883-1.098c1.882-3.176,3.762-6.348,6.071-8.952c2.853-3.01,5.917-5.735,8.92-7.972
			c4.915-3.661,11.592-5.528,20.508-5.526c0.275-0.202,0.275-0.202,0.488,0.082c5.458-0.075,10.524,1.023,14.982,3.02
			c1.759,1.792,3.243,3.784,4.942,6.066c2.122,2.849,4.457,5.985,6.031,9.242c5.337,8.87,8.124,18.315,9.12,28.206
			c0.119,3.008,0.452,6.307,0.299,9.522c-0.183,1.468,0.181,2.523-0.002,3.988c-3.79-3.38-9.28-5.052-16.62-5.785
			c-8.099-0.615-13.832-0.331-16.016,1.296l-1.064,2.564l0.699,0.365c4.793-2.682,10.314-3.251,17.108-2.107
			c1.244-0.043,2.638,0.692,4.096,0.935c0.968,0.166,1.88,0.819,2.85,0.98l2.79,1.465c0.273-0.202,0.273-0.202,0.486,0.084
			c1.395,0.733,2.729,1.953,4.336,2.972c0,0,0,0,0.212,0.286c0.274-0.204,0.274-0.204,0.486,0.079c0,0,0,0,0.212,0.286
			c-0.455,1.67-0.366,2.929-0.549,4.394c-2.28,12.33-7.26,24.458-15.333,37.557c-2.156,3.378-4.038,6.552-6.133,9.44l-3.606-4.843
			c-0.548,0.406-0.879,1.098-1.488,1.994c1.333,1.221,2.394,2.645,3.879,4.639l0.213,0.286c-2.035,2.4-3.916,5.574-6.222,8.178
			c-0.455-2.323-1.666-4.519-3.093-7.003c-0.604,0.896-1.151,1.302-1.485,1.994c1.425,2.482,2.575,5.168,2.82,7.205
			c-3.19,3.702-6.649,7.609-9.835,11.309l0.271-0.204c-0.604,0.894-1.152,1.302-1.97,1.912l-11.777,10.983l-1.911,1.424
			c0,0-0.271,0.202-0.546,0.406l-0.819,0.613c-0.272,0.202-0.272,0.202-0.272,0.202l-0.273,0.202
			c-0.548,0.408-2.671,1.547-5.888,3.498l-2.185,1.629c-5.945,3.984-12.742,6.828-18.993,9.267c-1.03,0.327-2.335,0.858-3.579,0.896
			c1.425-1.507,2.852-3.008,4.068-4.803c12.566-17.33,15.027-31.126,7.722-42.076c0,0-0.211-0.284-0.424-0.569l-3.306-3.299
			c5.915-1.749,11.196-4.349,16.385-8.212c1.91-1.422,4.096-3.051,6.067-4.964c0.545-0.406,0.545-0.406,1.307-0.529
			c0.545-0.406,1.091-0.812,1.577-0.733c1.517-0.243,2.76-0.279,3.729-0.12c4.309,1.223,9.555,4.848,15.073,12.257
			c0.335-0.69,1.154-1.302,1.486-1.994c-4.093-4.925-8.43-7.897-13.857-10.057c-0.699-0.365-1.183-0.449-1.88-0.817
			c-0.971-0.161-1.458-0.243-2.429-0.406l-0.212-0.286c-0.758,0.122-0.97-0.163-1.73-0.041l-0.212-0.286
			c1.152-1.302,2.854-3.01,4.008-4.313c1.514-0.243,3.033-0.488,4.763-0.447c0.484,0.084,1.242-0.036,1.942,0.331
			c3.941,0.163,8.704,3.703,13.919,9.567c0.819-0.608,1.152-1.3,1.211-1.79c-3.939-4.152-8.549-6.922-13.554-8.512
			c-0.97-0.163-2.153-0.61-2.913-0.488c-0.97-0.164-1.667-0.533-2.426-0.411l-1.454-0.243c0.942-1.588,2.094-2.888,3.095-4.964
			c7.681-11.922,9.567-23.07,5.111-33.043c-0.363-1.06-0.303-1.549-0.727-2.119l-1.06-1.425l1.91-1.422
			c0.272-0.202,0.82-0.61,1.306-0.529c3.488-2.157,7.28-2.765,10.8-3.171c3.245-0.202,6.643,0.37,9.766,1.146
			c3.671,0.365,7.28,1.223,10.556,2.77c4.669,2.282,6.975,3.666,7.248,3.464l0.332-0.692l-0.786-1.629
			c-2.306-1.386-4.124-2.688-6.279-3.299c-5.853-2.729-11.89-3.993-18.32-4.079c-4.277,0.526-8.069,1.137-11.983,2.72
			c-0.758,0.123-1.579,0.735-2.337,0.855c-1.306,0.531-2.337,0.853-3.428,1.668c-0.15-0.774-0.575-1.343-1.001-1.915
			c-7.002-9.404-14.644-15.674-22.439-18.732c-0.211-0.284,0.061-0.486,0.609-0.892l3.245-4.19c1.973-1.91,4.766-4.433,8.042-6.876
			c5.735-4.27,12.258-6.913,19.569-7.927c2.821-0.771,5.793-0.771,8.494-0.567c0,0,0.212,0.286,0.696,0.37
			c1.517-0.245,2.913,0.49,4.582,1.016c0.212,0.284,0.485,0.082,0.696,0.365l2.577,1.184c2.79,1.463,5.459,3.907,7.308,6.96
			c0.213,0.286,0.484,0.082,1.305-0.526c0.061-0.49,0.333-0.692,0.333-0.692l-3.606-4.843c-6.248-5.54-14.438-7.414-24.085-5.547
			c-7.371,1.502-13.894,4.145-19.356,8.212c-3.005,2.239-5.25,4.353-7.494,6.468c-0.273,0.204-0.547,0.408-0.608,0.896l-4.128,5.291
			c0,0,0,0-0.272,0.202c-0.273,0.204-0.273,0.204-0.273,0.204c-1.67-0.531-3.611-0.858-5.065-1.103
			c-4.854-0.814-9.557-0.86-14.441,0.563c-0.212-0.284-0.151-0.774-0.09-1.261l0.184-5.454c0.367-2.929,1.551-6.468,3.28-10.415
			c8.102-7.362,11.624-11.758,10.776-12.897c-0.637-0.855-2.429-0.408-5.433,1.829c-3.55,2.645-6.585,7.119-9.317,13.142
			c-1.335,2.768-2.125,5.127-2.642,7.285c-0.639,3.133-0.247,5.939,0.207,8.26c-7.432,1.992-15.381,6.139-23.845,12.444
			c-6.829,5.084-11.806,9.233-14.171,12.325c0.273-4.19,1.093-8.791,2.553-12.534c1.762-6.184,4.706-11.922,8.56-17.006
			c3.642-5.37,10.591-11.434,19.603-18.144C414.063,188.766,424.411,183.276,435.695,180.191z M304.504,173.335
			c5.854-1.257,10.009-0.81,12.769,2.897c6.367,8.548,5.332,16.849-3.378,25.107c-0.363-1.057-0.278-3.75-1.127-4.891
			c-3.607-4.843-7.804-4.843-11.96-4.229c-4.155,0.613-6.817,3.616-7.237,6.996c-0.422,3.376,0.604,5.315,3.574,9.304
			c0.637,0.858,1.822,1.282,2.52,1.647c-5.098,1.137-9.281-1.064-13.101-6.193c-3.395-4.558-2.937-10.216,1.371-16.967
			c2.49-4.072,5.403-7.568,8.134-9.603C298.526,175.574,301.408,174.313,304.504,173.335z M229.059,180.343
			c-1.154,1.304-0.639,3.135,1.271,5.699c0,0,0.213,0.286,0.425,0.572l1.061,1.425l0.696,0.368c1.394,0.735,2.154,0.61,3.245-0.202
			c1.851-0.939,1.975-1.915,0.277-4.195l-1.273-1.708l3.003-2.237c1.306-0.528,2.851,0.98,4.973,3.829
			c1.485,1.992,1.122,4.923-0.548,8.381c-1.61,2.972-3.099,4.966-4.736,6.184c-9.894,7.809-16.505,9.192-20.538,3.777
			c-5.304-7.123-5.79-15.182-1.447-24.174c0.668-1.384,1.609-2.97,2.338-4.841c0,0,0.273-0.207,0.76-0.125
			c2.062-0.646,4.552-0.73,7.461-0.238c1.882,0.812,3.064,1.261,4.247,1.71l0.759-0.122c0.272-0.202,0.484,0.082,0.758-0.123
			l0.275-0.204c0.271-0.202,0.333-0.692,0.121-0.975c-0.212-0.286-0.212-0.286-0.212-0.286c-0.424-0.57-1.394-0.733-1.607-1.019
			c-3.548-1.343-6.674-2.114-9.707-1.631c-0.272,0.204-0.547,0.411-0.547,0.411c-0.213-0.286-0.213-0.286-0.213-0.286
			c0.883-1.103,1.488-1.996,2.368-3.095c0.486,0.082,0.759-0.122,1.033-0.327c0.759-0.12,1.517-0.24,2.486-0.077
			c1.73,0.039,4.035,1.427,5.943,3.991l0.213,0.286c1.211,2.198,3.093,3.01,5.095,2.849c0.183-1.466-0.607-3.092-1.881-4.803
			c-0.211-0.284-0.211-0.284-0.211-0.284c-2.122-2.849-5.125-4.605-9.127-4.279c-0.487-0.082-0.758,0.12-0.971-0.166
			c3.732-4.106,7.948-8.133,12.592-11.593l2.733-2.033c3.215-1.951,5.673-3.784,8.071-5.125c0.97,0.164,2.305,1.384,4.003,3.664
			c3.607,4.846,3.119,8.755-0.977,11.804c-2.73,2.033-4.157,3.537-4.493,4.229c1.185,0.449,3.034-0.488,5.764-2.521
			c6.1-3.212,6.707-8.095,1.614-14.934c-1.061-1.425-2.395-2.648-3.79-3.378c2.669-1.547,5.281-2.604,7.341-3.256
			c3.82,5.132,4.608,10.747,2.634,16.65c-1.244,4.027-3.401,7.405-6.133,9.44c-1.637,1.216-3.699,1.867-6.036,2.722
			c-1.031,0.324-2.003,0.161-3.036,0.488c-0.059,0.488-0.12,0.975,0.092,1.261c0.487,0.082,0.97,0.163,0.97,0.163l2.216,0.12
			c2.273-0.365,4.61-1.216,7.067-3.045c2.731-2.035,4.887-5.413,6.678-9.85c2.794-6.506,2.068-12.611-2.116-18.8
			c5.583-1.057,9.678-0.12,12.225,3.299c4.457,5.985,5.638,14.411,3.326,24.991c-0.667,1.384-2.155,3.376-3.765,6.348
			c-5.188,3.864-10.346,5.488-14.987,4.957c-2.426-0.406-4.58-1.019-6.946-1.915l-0.061,0.488l0.637,0.857
			c1.698,2.278,4.275,3.46,7.249,3.462c4.215-0.041,9.433-2.155,15.44-6.627l0.275-0.204l-0.063,0.488
			c-3.158,9.44-8.772,20.713-16.788,33.324c-3.096,4.964-6.677,9.846-10.048,15.012c-2.849-0.978-5.518-3.419-8.489-7.407
			c-1.485-1.996-2.7-4.195-3.15-6.516l-0.88-2.888c1.911-1.427,4.37-3.258,6.615-5.372c6.069-4.961,8.68-10.005,8.804-14.971
			c-0.181-2.525-1.122-4.925-2.757-7.693l-0.424-0.572c-3.819-5.127-8.946-5.742-15.227-1.064
			C231.032,178.433,230.212,179.045,229.059,180.343z M261.352,213.444c3.095-4.961,5.767-10.497,8.166-15.826
			c3.882,0.653,6.856,0.653,8.766-0.771c0.151,0.774,0.304,1.549-0.033,2.239c-1.028,0.324-2.121,1.139-3.759,2.359
			c-4.098,3.051-8.59,7.28-12.928,12.282C261.352,213.444,261.352,213.444,261.352,213.444z M279.5,191.069
			c-0.669,1.384-0.848,2.849-0.973,3.827c-1.789,0.447-4.551,0.728-8.279,0.848c0.667-1.382,1.336-2.768,2.062-4.637
			c1.184,0.447,2.913,0.49,5.19,0.125C277.982,191.311,278.742,191.191,279.5,191.069z M282.842,184.152
			c-0.883,1.098-1.613,2.972-2.216,3.866c-3.186-0.283-5.402-0.408-7.252,0.526c0.457-1.67,1.124-3.054,1.306-4.517
			c1.064-2.564,2.067-4.637,2.857-6.999c-0.093-1.261,0.516-2.16,0.637-3.133c0,0,0,0,0.485,0.082
			c1.243-0.041,3.67,0.368,6.368,0.574c1.731,0.041,3.185,0.283,4.368,0.733c0.759-0.122,1.518-0.245,2.002-0.163
			c-0.878,1.1-2.578,2.806-4.825,4.923L282.842,184.152z M217.376,258.152c-1.366,1.016-2.731,2.035-4.309,2.765
			c-18.142,10.413-33.398,7.595-45.281-8.362c-4.457-5.985-7.611-12.496-10.279-18.927c-0.966-4.154-1.724-8.017-2.481-11.888
			c-2.115-14.814,0.864-30.765,8.725-48.138l3.55-2.645c3.824-2.847,7.466-4.229,11.198-4.349
			c7.584-1.216,12.071-1.459,14.014-1.136c4.88,2.573,8.853,4.483,12.405,5.826l3.819,1.143c0.213,0.286,0.97,0.161,1.182,0.447
			c0.065-0.49,0.124-0.975-0.089-1.261c0,0-0.212-0.286-0.425-0.572c-3.878-4.639-9.733-7.369-16.589-8.022
			c-6.369-0.571-14.224,0.849-23.023,3.854l-4.37,3.256c1.003-2.076,2.007-4.152,2.944-5.737c1.551-2.48,2.612-5.048,4.373-7.239
			c1.003-2.08,2.275-4.356,3.553-6.636c0.546-0.406,0.546-0.406,0.818-0.608c15.693-24.535,32.385-43.165,50.409-56.589l3.277-2.441
			c1.396,0.733,3.277,1.547,5.641,2.443c1.669,0.531,2.793,1.466,4.126,2.688l1.638-1.218c-3.242-3.789-6.52-5.336-9.492-5.338
			c0,0,0.274-0.204,0.545-0.406l2.946-1.749c0.059-0.488,0.059-0.488,0.546-0.406c0.696,0.37,1.455,0.243,2.365,0.896
			c2.366,0.896,3.911,2.402,6.369,4.562c0.546-0.408,0.817-0.612,1.577-0.735c-3.093-3.01-5.82-4.964-7.914-6.066
			c7.86-5.408,16.293-9.476,24.665-13.052c15.87-6.057,28.852-6.865,39.498-2.831c1.123,0.937,2.184,2.362,3.032,3.5
			c3.184,4.274,3.211,10.012,0.781,17.58c0.484,0.082,0.484,0.082,0.696,0.368c2.279-8.344,2.526-14.283,0.373-18.882
			c3.215,2.037,6.156,4.274,8.489,7.407c1.092,3.178,1.211,6.189,0.996,9.894c-0.364,2.927-0.79,6.345-1.974,9.887
			c0.212,0.286,0.212,0.286,0.212,0.286l1.273,1.708c2.731-6.021,4.585-10.944,4.163-15.504c1.273,1.71,2.333,3.135,2.848,4.968
			c5.79,11.194,6.542,23.036,2.805,35.123c-2.095,6.878-4.554,12.693-7.711,18.144c-0.696-0.365-1.67-0.529-1.942-0.324
			c-0.759,0.122-2.123,1.139-4.583,2.97l-2.457,1.828c-1.73-0.041-4.823,0.935-9.284,2.929c-0.12,0.976-0.244,1.953-0.85,2.847
			c2.275-0.365,4.396-1.504,6.948-2.073c-0.334,0.694-0.668,1.384-1.216,1.79c-2.761,4.274-3.098,8.952-1.157,13.269
			c-3.306,0.69-7.22,2.273-11.316,5.322c-2.003,0.166-4.217,0.043-6.431-0.082l-8.1-0.612c-0.272,0.202-0.272,0.202-0.272,0.202
			c1.763-6.184,2.37-11.066,2.497-16.035c0.483,0.084,0.483,0.084,0.695,0.368c0.484,0.082,0.97,0.164,1.182,0.449
			c2.215,0.125,5.189,0.122,8.768-0.769c0.971,0.164,1.729,0.041,2.486-0.082c0.336-0.69,0.668-1.382,1.064-2.561
			c-1.79,0.445-3.733,0.118-5.249,0.363l-8.099-0.613c-0.275,0.204-0.972-0.166-0.972-0.166c-0.36-5.045-1.33-9.197-3.665-12.33
			c-0.424-0.572-0.636-0.855-1.332-1.223c0.758-0.123,1.303-0.529,2.061-0.651l5.888-3.498c3.7-1.869,7.799-4.921,12.165-8.174
			c5.312-4.839,10.411-9.966,14.326-15.543c-0.152-0.774-0.364-1.057-0.576-1.343c-3.916,5.574-9.014,10.699-15.024,15.177
			c-2.73,2.033-5.945,3.984-9.435,6.139c-0.82,0.61-1.914,1.425-2.941,1.749l-1.366,1.019l-6.646,3.618
			c-1.334-1.223-2.729-1.956-4.125-2.688c2.943-1.749,5.615-3.296,7.798-4.923l4.642-3.457c7.646-5.694,13.627-11.919,18.544-19.565
			c0.729-1.872,1.457-3.745,2.4-5.331l-1.062-1.427c-6.041,10.703-12.961,18.514-21.154,24.615l-5.462,4.068
			c-3.278,2.441-6.433,3.904-8.772,4.76c-2.424-0.41-4.911-0.329-7.459,0.24c-0.548,0.406-1.244,0.039-1.79,0.445
			c0.667-1.382,0.91-3.337,1.155-5.288l0.032-2.242c0.395-1.177,0.363-2.929,0.548-4.392c-0.27-7.775-2.268-15.59-6.542-23.038
			l-1.639,1.221c5.273,9.363,7.301,18.927,5.265,29.304c0.03,1.749-0.64,3.131-0.884,5.088l-1.303,0.526
			c-0.212-0.286-0.759,0.122-1.243,0.039c0,0,0,0,0.271-0.202c0.398-1.182,0.637-3.133,0.821-4.598
			c0.457-1.668,0.701-3.623,0.732-5.86c0.215-7.691-1.842-15.018-6.39-22.264l-1.64,1.223c1.485,1.992,2.426,4.392,3.363,6.797
			c0,0,0,0-0.061,0.488c0,0,0.425,0.572,0.152,0.774c0.579,1.343,1.151,2.684,1.455,4.231c0.817,3.38,0.664,6.595,0.725,10.095
			c-0.245,1.951-0.429,3.419-0.944,5.572c0.031,1.751-0.639,3.135-0.884,5.088c-5.49,2.318-11.164,6.098-16.201,10.738l-3.885,3.337
			c-0.576-1.345-1.214-2.201-1.576-3.258c-0.575-1.343-1.636-2.768-2.697-4.195c-5.518-7.407-11.765-12.945-18.315-16.042
			c-4.885-2.564-8.767-3.219-10.406-1.999c-0.272,0.204-0.331,0.692,0.032,1.749c1.547,1.506,4.457,1.999,9.159,2.039
			c4.794,1.304,10.342,6.475,17.345,15.88l3.183,4.274c0.152,0.771,0.515,1.831,0.939,2.4c0.212,0.286,0.212,0.286,0.151,0.774
			l-0.271,0.204c-1.914,1.425-3.338,2.929-5.041,4.637c-0.211-0.284-0.423-0.567-0.423-0.567c-0.212-0.286-0.212-0.286-0.212-0.286
			l-1.274-1.71c-6.001-7.491-13.949-11.321-23.899-11.001c-6.703,0.12-11.862,1.745-15.139,4.188
			c-1.365,1.014-2.459,1.831-2.79,2.521l-0.272,0.204c-0.061,0.488,0.151,0.774,0.087,1.264c1.366-1.016,2.672-1.549,4.249-2.278
			c4.735-2.196,8.372-3.58,11.621-3.782c4.701,0.043,9.07,0.776,11.647,1.958c4.458,1.996,7.036,3.178,8.158,4.115
			c1.214,2.198,2.698,4.192,3.972,5.903c0.423,0.569,1.333,1.223,1.757,1.792c-1.76,2.196-3.732,4.106-5.494,6.305
			c-0.667,1.382-1.821,2.686-2.7,3.782c-0.061,0.488-0.061,0.488-0.338,0.692l-0.999,2.078c-0.609,0.892-1.274,2.275-1.942,3.659
			c-1.67,3.457-2.583,6.797-2.737,10.014c-0.059,0.486-0.393,1.178-0.181,1.461l-0.063,0.492c-1.181-0.451-2.911-0.49-3.666-0.37
			c-3.402-0.57-6.158-0.288-8.161-0.127c-2.55,0.572-6.252,2.441-10.348,5.49c0,0-2.518,2.318-7.556,6.958
			c-5.039,4.635-6.919,7.809-6.13,9.438c0.211,0.283,0.424,0.572,0.695,0.368c0.213,0.283,0.486,0.082,0.76-0.123
			c1.882-3.174,4.25-6.268,7.315-8.991c1.762-2.198,4.006-4.313,6.189-5.939c3.824-2.847,8.712-4.272,15.2-4.673
			c0.486,0.082,0.969,0.166,1.457,0.245c1.727,0.043,3.245-0.2,4.217-0.039c0.089,1.264,0.181,2.521,0.543,3.58
			c0.15,0.776,0.302,1.547,0.242,2.033c-1.517,0.247-2.76,0.286-4.338,1.021c-4.339,1.014-7.827,3.169-11.652,6.016
			c-7.649,5.697-12.686,14.32-15.328,25.59l1.729,0.043c3.947-11.801,8.654-19.732,14.661-24.209
			c3.277-2.439,7.193-4.029,11.528-5.041c1.791-0.447,3.096-0.975,4.339-1.016c0.94,2.403,1.94,4.315,3.638,6.595
			c0.212,0.283,0.212,0.283,0.424,0.569c0.85,1.141,1.97,2.078,2.608,2.933c0,0,0,0-0.273,0.202l-0.727,1.869
			c-0.915,3.339-2.22,7.854-3.982,14.043c-3.1,12.938-2.741,21.974,1.503,27.673c0.636,0.855,1.274,1.71,2.181,2.364
			c1.337,1.218,2.734,1.951,4.125,2.686C217.376,258.152,217.376,258.152,217.376,258.152z M219.5,257.013
			c-0.213-0.286-0.213-0.286-0.213-0.286c-0.699-0.363-1.183-0.445-1.881-0.814l-2.03-1.586l-2.122-2.85
			c-4.243-5.699-5.209-13.841-2.962-23.934l3.31-8.666c0.334-0.69,0.881-1.1,1.001-2.074l-0.271,0.202
			c0.546-0.406,0.396-1.182,0.728-1.871c0.335-0.69,0.728-1.872,1.398-3.256c0.272-0.202,0.06-0.486,0.332-0.69
			c0.061-0.49,0.061-0.49,0.061-0.49c4.187,2.198,9.16,2.042,14.503-1.053c-0.277,0.204-0.064,0.49,0.361,1.059l0.457,2.319
			c0.788,1.629,1.998,3.827,3.696,6.107c2.122,2.849,4.852,4.805,8.34,6.638c0.423,0.569,0.423,0.569,0.909,0.653
			c-1.214,1.788-2.156,3.376-3.58,4.878l-6.494,8.383c-0.337,0.694-0.884,1.1-1.155,1.302c-6.495,8.383-10.291,12.979-11.656,13.995
			L219.5,257.013z"/>
		<path fill="#FFFADB" d="M331.831,428.452c17.881-28.478,20.564-48.283,10.506-61.789c-3.606-4.843-14.969-17.155-21.32-17.793
			c-1.06-1.424,0.155-3.205,2.262-4.072c2.106-0.867,11.544-1.334,25.828,5.306c15.195,7.291,26.203,16.368,34.057,26.915
			c9.549,12.822,11.25,26.028,9.144,33.587c-2.106,7.559-5.182,13.274-15.615,14.996c-13.508,2.23-34.016-6.03-34.016-6.03
			c-1.731,3.947-3.735,8.097-6.163,11.677c7.429,5.985,13.009,8.92,17.226,8.882c5.128,0.61,11.01,1.103,17.716,0.982
			c11.194-0.363,20.202-3.086,27.302-8.371c11.198-8.34,14.753-18.959,9.901-31.743l-2.97-3.988c-1.274-1.71-1.787-3.541-1.818-5.29
			c0.576,1.039,1.113,1.901,1.559,2.638c-1.049-2.051-2.35-4.739-4.071-8.296c-2.486-3.909-2.669-6.431-1.304-7.448
			c1.368-1.019,2.823-0.771,3.885,0.653c1.485,1.994,2.909,4.478,4.122,6.674c4.308-2.766,8.554-1.053,12.585,4.363
			c9.762,13.108,11.91,25.683,5.96,37.646c-2.794,6.511-7.406,11.717-13.414,16.191c-10.925,8.135-21.815,14.031-32.889,17.405
			c-22.422,6.951-39.378,1.858-51.474-14.385l-1.485-1.994c-0.877,1.096-1.97,1.91-2.852,3.006
			c-3.552,2.645-7.585,5.209-11.984,6.708c1.275,1.711,1.512,3.748,0.936,6.393c-0.576,2.645-0.273,4.19-0.061,4.476
			c2.122,2.849,5.335,4.887,9.643,6.109c4.52,1.509,7.582,2.768,8.856,4.478c2.547,3.421-1.472,7.502-7.114,13.035
			c-4.947,5.899-8.083,13.065-3.839,18.766c3.9,5.236,12.288,11.638,16.456,13.115c4.168,1.477,9.008,1.813,13.914,5.511
			s-3.216,15.919,28.918,23.174c13.223,2.985,37.535,3.412,76.775-8.957c39.241-12.369,89.361-42.664,102.366-49.477
			c11.867-6.216,40.997-28.494,75.069-36.255c34.072-7.761,46.065-27.298,41.373-45.638c20.047-13.222,8.317-35.08,10.577-39.068
			c6.91-17.235,1.536-29.533-8.65-43.213c-6.79-9.118-15.011-12.745-25.082-11.448c-4.34,1.014-7.644,1.706-9.372,1.665
			c-3.099,0.975-5.038,0.651-6.099-0.774c-0.85-1.141-0.727-2.119-0.331-3.296c0.606-0.899,1.151-1.302,1.151-1.302
			c1.64-1.223,3.977-2.078,6.738-2.357c0.332-0.696,0.607-0.898,0.878-1.103c0.729-1.869,0.063-4.476-2.06-7.326
			c-2.122-2.849-4.912-4.315-8.792-4.966c-0.545,0.406-1.245,0.039-1.67-0.533c-4.429-0.245-6.368-0.574-6.793-1.143
			c-0.635-0.855-1.001-1.913-0.182-2.523c0.608-0.894,1.154-1.3,1.154-1.3c1.091-0.814,2.397-1.343,5.097-1.139
			c0.242-1.953,0.76-4.108,1.064-6.549c1.673-7.448,1.523-12.21,0.037-14.206c-8.276-11.114-13.256-16.2-30.907-12.425
			c-5.43,1.162-10.2,3.573-15.26,5.164c0.209,12.248-2.495,20.021-7.41,23.682c-1.366,1.016-2.822,0.774-3.672-0.368
			c3.949-11.801,5.833-18.964,6.533-22.586c1.161-17.251-2.473-31.825-10.961-43.224c-12.733-17.096-28.687-24.265-47.646-21.223
			c-7.373,1.504-14.046,3.371-20.571,6.014c9.185,15.753,11.088,34.272,6.892,56.004c-2.613,13.022-7.169,25.717-13.817,37.314
			c-1.398,3.255-8.319,11.064-19.908,24.571c-12.204,14.404-20.701,22.945-25.07,26.198c-10.105,7.525-20.724,13.217-31.798,16.591
			c-7.766,2.684-14.805,3.494-21.235,3.41c-13.075-0.454-25.084-7.457-36.118-22.276c-9.338-12.539-14.127-25.81-14.148-39.526
			c1.581-12.695,2.13-21.078,2.497-24.009c0.397-5.168,3.401-11.395,9.291-18.877c4.795-6.674,6.92-11.801,6.437-15.869
			c-2.087-13.067,1.073-26.497,9.27-40.572c6.527-10.619,14.114-19.814,23.126-26.525c4.914-3.659,9.438-6.143,14.442-8.541
			c2.124-1.136,3.914-1.586,5.491-2.316c-1.697-2.28-3.516-3.585-4.972-3.83c-2.153-0.61-4.246-1.71-5.854-2.727
			c-0.453-2.323,1.579-4.721,5.129-7.364c3.489-2.157,4.28-4.517,1.945-7.652c-1.697-2.278-3.031-3.5-4.064-3.176
			c-0.97-0.164-1.728-0.039-2.365-0.896l-0.666-2.604c-0.486-0.082-0.425-0.572,0.94-1.588c3.792-0.608,6.066-0.973,7.161-1.788
			c3.003-2.235,3.732-4.109,2.883-5.247c-3.82-5.129-7.519-7.246-12.221-7.291c-4.489,0.243-6.703,0.118-7.34-0.737
			c-0.636-0.853,0.212-3.698,2.764-8.258c2.822-4.76,3.398-7.405,2.55-8.546c-5.093-6.838-10.278-10.951-15.888-11.645
			c-3.186-0.286-5.464,0.079-7.101,1.298c-2.459,1.833-4.885,5.413-7.346,11.232c-0.546,0.406-3.124-0.776-7.792-3.058
			c-4.885-2.564-9.1-2.525-12.104-0.288c-5.189,3.864-7.983,10.374-8.108,19.326c-0.277,4.192-0.339,8.669-0.128,12.94
			c-0.545,0.408-1.789,0.449-3.882-0.651c-2.304-1.386-4.305-1.225-5.673-0.204c-3.276,2.439-4.735,6.184-4.585,10.944
			c0.422,4.558,0.118,7.001,0.118,7.001c-1.366,1.014-4.004,0.322-6.883-2.405c-3.58-3.097-6.766-3.38-9.497-1.348
			c-3.276,2.439-5.007,6.386-4.645,11.434c-0.457,1.67-0.427,3.417-0.337,4.68c4.64,0.531,8.766,3.219,12.799,8.634
			c2.121,2.849,3.486,5.819,3.605,8.829c0.757-0.12,1.517-0.24,2.003-0.161c8.128-1.622,15.195-0.683,20.99,2.532
			c-2.273-3.623-2.729-5.942-1.365-6.96c1.091-0.812,2.278-0.363,3.126,0.776c3.394,4.56,5.91,10.216,7.273,17.178
			c-0.305-1.547-0.607-3.092-0.972-4.149l0.849,1.141c9.55,12.822,10.88,26.01,3.988,39.558
			c-3.553,6.631-7.953,12.123-13.476,16.679c-13.654,10.168-26.516,9.998-38.433,0.268c-3.001-1.751-5.246-3.623-7.156-6.189
			c-1.061-1.425-1.909-2.564-2.212-4.111c-0.211-0.286-0.211-0.286-0.423-0.572c-4.882-6.554-7.522-11.237-8.125-14.329
			c0.79-2.362,0.761-4.108,0.396-5.168c-0.696-0.365-2.639-0.694-5.549-1.182c-2.58-1.182-5.095-2.849-7.492-5.497
			c-1.427,1.504-2.639,3.294-3.851,5.086c-3.857,5.086-9.684,12.078-16.875,20.093c-5.072,6.878-12.721,20.549-23.289,41.706
			c-5.221,10.091-8.991,28.403-11.519,54.651c-3.93,37.482,1.731,65.607,16.162,84.985c4.245,5.699,13.374,13.961,26.956,24.227
			c2.73,1.953,6.912,4.154,13.039,6.679c0.701,0.368,1.125,0.935,1.611,1.016c1.94,0.327,4.155,0.452,6.094,0.781
			c12.317,0.572,23.253-2.196,31.92-9.596C325.465,440.323,328.961,433.023,331.831,428.452z M334.837,176.443
			c-0.819,0.608-2.216-0.122-3.277-1.547c-2.122-2.849-4.79-5.295-7.731-7.534c-6.521-1.347-9.372-2.323-10.221-3.464
			c0.243-1.951,0.852-2.849,0.852-2.849c2.183-1.627,5.095-1.134,9.706,1.633c4.124,2.688,7.217,5.701,9.975,9.408
			C335.837,174.367,336.141,175.914,334.837,176.443z M298.052,425.779c-1.028,0.324-1.942-0.327-2.577-1.18
			c-6.791-9.12-5.238-19.578,3.533-32.315c10.469-10.456,15.628-16.069,15.628-16.069c3.066-2.727,5.8-4.76,7.918-5.896
			c4.676-1.71,8.498-0.565,11.68,3.709c6.368,8.551,1.844,19.002-13.633,31.858c-3.277,2.443-5.945,3.986-6.919,3.823
			c-3.305,0.692-7.492-1.506-12.889-5.905c-0.759,4.109-0.913,11.311-0.889,21.039C299.63,425.049,298.601,425.371,298.052,425.779z
			"/>
		<path d="M324.165,162.681c-4.611-2.768-7.523-3.26-9.706-1.633c0,0-0.609,0.898-0.852,2.849c0.85,1.141,3.7,2.117,10.221,3.464
			c2.941,2.239,5.609,4.685,7.731,7.534c1.061,1.425,2.458,2.155,3.277,1.547c1.304-0.529,1-2.076-0.696-4.353
			C331.382,168.382,328.289,165.37,324.165,162.681z"/>
		<path d="M334.233,374.029c-3.182-4.274-7.004-5.42-11.68-3.709c-2.118,1.137-4.852,3.169-7.918,5.896
			c0,0-5.159,5.613-15.628,16.069c-8.772,12.736-10.324,23.195-3.533,32.315c0.635,0.853,1.549,1.504,2.577,1.18
			c0.549-0.408,1.578-0.731,1.85-0.935c-0.024-9.728,0.13-16.931,0.889-21.039c5.397,4.399,9.584,6.597,12.889,5.905
			c0.975,0.163,3.642-1.379,6.919-3.823C336.077,393.031,340.601,382.58,334.233,374.029z M322.464,377.035
			c3.427-1.668,5.701-2.035,7.188-0.039c2.334,3.135,1.241,7.936-3.009,14.199c-3.034,4.478-5.675,7.772-8.682,10.011
			c-5.185,3.861-9.341,3.41-12.312-0.578c-1.697-2.28-0.725-6.105,3.674-11.597c2.914-3.496,5.492-6.302,7.951-8.133
			C319.186,379.474,320.551,378.458,322.464,377.035z"/>
		<path fill="#F1D07D" d="M329.652,376.997c-1.487-1.996-3.761-1.629-7.188,0.039c-1.913,1.422-3.277,2.439-5.19,3.863
			c-2.459,1.831-5.038,4.637-7.951,8.133c-4.399,5.492-5.371,9.317-3.674,11.597c2.971,3.988,7.127,4.44,12.312,0.578
			c3.007-2.239,5.648-5.533,8.682-10.011C330.893,384.932,331.986,380.132,329.652,376.997z"/>
		<path fill="#E9DBB9" d="M420.924,177.455c-0.212-0.286,0.121-0.976,0.183-1.466c0.455-1.667-0.061-3.498-1.122-4.923
			c-0.423-0.57-0.849-1.139-1.061-1.425c-1.577,0.73-3.367,1.18-5.491,2.316c-5.005,2.398-9.528,4.882-14.442,8.541
			c-9.012,6.711-16.6,15.905-23.126,26.525c-8.197,14.075-11.357,27.505-9.27,40.572c0.483,4.068-1.643,9.195-6.437,15.869
			c-5.891,7.482-8.894,13.709-9.291,18.877c-0.367,2.931-0.916,11.314-2.497,24.009c0.022,13.716,4.811,26.988,14.148,39.526
			c11.033,14.819,23.042,21.822,36.118,22.276c-11.768-0.982-21.262-6.316-28.689-16.289c-6.367-8.551-10.215-19.417-11.484-33.095
			c-0.175-14.487-0.412-24.499-1.138-30.601c-1.029-7.655,0.158-15.184,3.014-22.183c0.606-0.892,3.489-6.143,8.318-15.052
			c-0.964-16.116,1.861-28.855,8.54-38.7c3.704-5.86,11.532-13.02,23.274-21.763C407.846,184.98,414.825,180.669,420.924,177.455z"
			/>
		<path fill="#E9DBB9" d="M350.575,187.312l-0.211-0.283c-5.795-3.215-12.862-4.154-20.99-2.532
			c-0.487-0.079-1.247,0.041-2.003,0.161c0.18,2.525-0.065,4.478-0.641,7.123c-0.332,0.692-0.667,1.384-1.001,2.076
			c2.882-1.261,6.128-1.461,10.345-1.502c7.947-0.159,14.711,3.221,19.38,9.492l0.424,0.569c-0.242-2.037-0.486-4.07-0.666-6.593
			C354.848,194.767,353.485,191.792,350.575,187.312z"/>
		<path fill="#E9DBB9" d="M359.275,195.014c-0.424-0.572-0.636-0.855-0.849-1.141c0.365,1.057,0.667,2.602,0.972,4.149l1.478,13.959
			c-0.06,0.49,0.092,1.261-0.032,2.241c-0.216,11.679-1.767,18.147-4.225,19.978l-1.366,1.019c-0.484-0.082-1.181-0.449-1.819-1.304
			c0.762-4.111,1.459-7.732,2.101-10.865c-0.942,1.586-3.919,5.572-4.19,5.776l-7.739,8.423c-0.819,0.608-1.638,1.218-2.246,2.114
			c0,0,0,0-0.272,0.204c-0.272,0.202-0.547,0.406-1.093,0.812c-0.272,0.202-0.545,0.406-0.819,0.61l-0.818,0.61
			c-12.836,9.558-22.936,9.106-30.577-1.152c-2.971-3.991-4.701-8.02-4.909-12.294c-1.065,6.552-0.279,12.169,2.692,16.159
			c3.607,4.844,8.007,7.33,12.496,7.087c4.55-0.733,7.798-0.935,9.253-0.69c0.212,0.284,0.15,0.774-0.122,0.976
			c-1.639,1.223-4.732,2.198-9.102,1.463c-2.486,0.079-4.852-0.817-6.732-1.631c11.917,9.73,24.779,9.9,38.433-0.268
			c5.523-4.556,9.923-10.048,13.476-16.679C370.156,221.024,368.825,207.836,359.275,195.014z"/>
		<path fill="#E9DBB9" d="M412.822,389.483c-0.212-0.284,0.06-0.488,0.88-1.098c0.819-0.608,2.427,0.408,4.339,2.977
			c6.79,9.118,7.089,18.639,0.744,27.795c-1.759,2.194-3.248,4.19-5.554,6.795c-2.489,4.068-6.161,7.688-11.077,11.352
			c-11.318,5.325-21.633,8.573-30.036,10.402c-2.001,0.161-3.792,0.612-5.795,0.771c-13.589,1.704-23.598-1.475-29.752-9.737
			c-0.85-1.143-1.911-2.568-2.547-3.423c-2.366,3.092-4.521,6.47-6.679,9.85c0.212,0.284,0.848,1.139,1.485,1.994
			c12.096,16.243,29.052,21.337,51.474,14.385c11.073-3.374,21.964-9.27,32.889-17.405c6.008-4.474,10.62-9.68,13.414-16.191
			c5.951-11.963,3.802-24.538-5.96-37.646c-4.031-5.415-8.277-7.128-12.585-4.363c5.033,7.327,7.638,14.249,8.789,20.924
			c0.212,0.284,0.212,0.284,0.152,0.774c-0.275,0.204-0.064,0.488-0.064,0.488c0.09,1.261,0.242,2.033,0.334,3.296
			c-0.061,0.488-0.124,0.975-0.124,0.975c-0.243,1.956-0.487,3.909-0.88,5.089C419.274,411.262,418.216,401.859,412.822,389.483z"/>
		<path fill="#E9DBB9" d="M406.509,396.4c-0.363-1.057-1.424-2.482-2.638-4.68c0.032,1.749,0.544,3.58,1.818,5.29
			c1.06,1.425,2.122,2.849,2.97,3.988l0.213,0.286c-0.213-0.286-0.424-0.569-0.574-1.343l-0.152-0.774c0,0,0,0-0.211-0.284
			L406.509,396.4z"/>
		<path fill="#FFFADB" d="M341.088,239.568c0.272-0.204,0.272-0.204,0.272-0.204c0.608-0.896,1.427-1.507,2.246-2.114
			c-1.638,1.218-3.065,2.725-4.431,3.741c0.275-0.204,0.547-0.408,0.819-0.61C340.541,239.974,340.816,239.77,341.088,239.568z"/>
		<path fill="#E9DBB9" d="M301.987,241.219c-1.941-4.317-1.966-10.055-0.904-16.606c0.76-4.109,1.673-7.448,2.674-9.522
			c-7.766,2.684-14.439,0.563-20.29-6.157c-0.423-0.567-0.849-1.139-1.273-1.708c-0.848-1.141-1.485-1.994-2.122-2.849
			c-0.547,0.406-1.367,1.019-2.458,1.831c-0.274,0.204-0.82,0.61-1.639,1.221c-7.709,6.184-17.057,17.575-27.559,34.254
			c-9.622,15.586-16.302,29.42-20.401,40.448c-0.397,1.18-2.035,6.386-5.68,15.747c-3.887,11.311-6.533,22.584-7.873,33.329
			c-4.533,34.386,2.462,63.73,20.5,87.952c14.855,19.948,30.803,31.11,48.064,33.759c-0.486-0.082-0.91-0.649-1.611-1.016
			c-6.127-2.525-10.309-4.726-13.039-6.679c-13.582-10.265-22.711-18.528-26.956-24.227c-14.431-19.379-20.092-47.503-16.162-84.985
			c2.528-26.248,6.298-44.56,11.519-54.651c10.567-21.157,18.217-34.828,23.289-41.706c7.192-8.015,13.019-15.007,16.875-20.093
			c1.211-1.792,2.424-3.582,3.851-5.086c2.397,2.648,4.913,4.315,7.492,5.497c2.911,0.488,4.854,0.817,5.549,1.182
			c0.365,1.06,0.394,2.806-0.396,5.168c0.604,3.092,3.243,7.775,8.125,14.329C301.776,240.933,301.776,240.933,301.987,241.219z"/>
		<path fill="#E9DBB9" d="M297.503,466.245c0.743,3.097,0.743,6.071,5.081,10.533s8.427,8.922,24.505,2.248
			c1.061,1.425,1.093,3.171-0.546,4.392c-4.522,2.48-8.376,3.58-12.105,3.698c-4.046,1.559-9.045,12.627-2.795,21.23
			c6.25,8.603,18.753,8.873,20.933,8.587c-0.239-0.413-7.187-5.703-9.79-11.28s-0.525-9.742,4.422-15.64
			c5.642-5.533,7.223-10.254,4.677-13.675c-1.274-1.711-4.335-2.97-8.856-4.478c-4.308-1.223-7.521-3.26-9.643-6.109
			c-0.212-0.286-0.515-1.831,0.061-4.476c0.576-2.645,0.339-4.682-0.936-6.393c-6.333,1.947-13.288,3.253-13.563,3.457
			C297.627,460.172,296.76,463.148,297.503,466.245z"/>
		<path fill="#F0CC51" d="M316.677,79.654c-2.333-3.133-5.275-5.37-8.489-7.407c2.153,4.599,1.906,10.538-0.373,18.882
			c-0.212-0.286-0.212-0.286-0.696-0.368c2.43-7.568,2.403-13.305-0.781-17.58c-0.848-1.139-1.909-2.564-3.032-3.5
			c-10.646-4.034-23.628-3.226-39.498,2.831c-8.371,3.575-16.805,7.643-24.665,13.052c2.094,1.103,4.821,3.056,7.914,6.066
			c-0.76,0.123-1.031,0.327-1.577,0.735c-2.458-2.16-4.003-3.666-6.369-4.562c-0.91-0.653-1.668-0.526-2.365-0.896
			c-0.487-0.082-0.487-0.082-0.546,0.406c5.579,2.933,10.553,6.761,14.797,12.459c0.212,0.286,0.637,0.857,0.85,1.141
			c0.272-0.204,0.818-0.61,1.365-1.016c4.274,7.448,6.272,15.263,6.542,23.038c-0.185,1.463-0.153,3.215-0.548,4.392
			c0.334-0.692,0.334-0.692,0.395-1.177c0.151,0.771-0.03,2.239,0.058,3.5c6.677-1.871,11.863-1.747,16.382-0.238
			c1.638-1.221,3.55-2.643,5.462-4.068c8.193-6.1,15.112-13.911,21.154-24.615c0.211,0.284,0.637,0.855,1.062,1.427
			c-0.943,1.586-1.671,3.46-2.4,5.331c-4.917,7.645-10.898,13.87-18.544,19.565c-1.637,1.218-3.276,2.441-4.642,3.457
			c1.669,0.533,3.215,2.037,4.339,2.974c1.028-0.324,2.121-1.139,2.941-1.749c1.366-1.019,2.793-2.521,4.704-3.945
			c10.683-10.17,17.206-16.802,19.786-19.608c3.916-5.574,6.648-11.595,7.772-18.635C317.889,85.843,317.77,82.832,316.677,79.654z"
			/>
		<path fill="#E2A616" d="M324.196,90.893c-0.515-1.833-1.576-3.258-2.848-4.968c0.422,4.56-1.431,9.483-4.163,15.504
			c-0.424-0.569-0.848-1.139-1.273-1.708c0,0,0,0-0.212-0.286c1.184-3.541,1.609-6.96,1.974-9.887
			c-1.124,7.04-3.857,13.061-7.772,18.635c-2.58,2.806-9.103,9.438-19.786,19.608c-1.911,1.425-3.338,2.926-4.704,3.945
			c3.49-2.155,6.705-4.106,9.435-6.139c6.01-4.478,11.108-9.603,15.024-15.177c0.212,0.286,0.424,0.569,0.576,1.343
			c-3.916,5.576-9.014,10.704-14.326,15.543c-4.367,3.253-8.465,6.304-12.165,8.174l-5.888,3.498
			c-0.758,0.122-1.303,0.528-1.79,0.449c0.424,0.57,0.848,1.139,1.486,1.994c2.333,3.133,3.851,6.876,4.212,11.926l8.099,0.613
			c0.486,0.082,1.033-0.324,1.244-0.041c-0.575-5.329-1.968-10.052-4.604-14.735c1.365-1.014,3.488-2.155,5.399-3.578
			c12.563-9.358,21.667-18.791,27.224-29.576C321.218,102.855,322.857,97.647,324.196,90.893z"/>
		<path fill="#E2A616" d="M267.268,134.171c2.339-0.855,5.494-2.318,8.772-4.76c-4.519-1.509-9.705-1.633-16.382,0.238
			c-0.088-1.261,0.093-2.729-0.058-3.5c-0.061,0.486-0.061,0.486-0.395,1.177l-0.032,2.242c-0.245,1.951-0.488,3.906-1.155,5.288
			c0.545-0.406,1.242-0.039,1.79-0.445C262.356,133.842,264.844,133.761,267.268,134.171z"/>
		<path fill="#E2A616" d="M278.131,130.51c-2.183,1.627-4.855,3.174-7.798,4.923c1.396,0.733,2.791,1.465,4.125,2.688l6.646-3.618
			c0.545-0.408,0.818-0.61,1.366-1.019C281.346,132.547,279.8,131.043,278.131,130.51z"/>
		<path fill="#E2A616" d="M252.111,116.662c-0.304-1.547-0.877-2.888-1.455-4.231c0.273-0.202-0.152-0.774-0.152-0.774
			c0.061-0.488,0.061-0.488,0.061-0.488c-0.937-2.405-1.878-4.805-3.363-6.797c0.548-0.408,1.095-0.817,1.64-1.223
			c4.547,7.246,6.605,14.574,6.39,22.264c-0.031,2.237-0.275,4.192-0.732,5.86c-0.184,1.465-0.423,3.417-0.821,4.598
			c-0.271,0.202-0.271,0.202-0.271,0.202c0.484,0.084,1.031-0.325,1.243-0.039l1.303-0.526c0.244-1.958,0.913-3.339,0.884-5.088
			c2.035-10.377,0.008-19.941-5.265-29.304l0.274-0.204c-0.212-0.284-0.637-0.855-0.85-1.141
			c-4.244-5.699-9.218-9.526-14.797-12.459l-2.946,1.749c-0.271,0.202-0.545,0.406-0.545,0.406c2.972,0.002,6.25,1.549,9.492,5.338
			c-0.546,0.404-1.092,0.812-1.638,1.218c-1.333-1.223-2.457-2.157-4.126-2.688c-2.364-0.896-4.244-1.71-5.641-2.443l-1.366,1.016
			c6.613,2.609,11.586,6.436,15.619,11.851c4.032,5.415,6.579,12.82,7.787,22.997C252.775,123.257,252.928,120.042,252.111,116.662z
			"/>
		<path fill="#E2A616" d="M251.008,137.418c0.245-1.953,0.914-3.337,0.884-5.088c-3.157,1.465-6.523,2.643-9.801,5.084
			c-0.272,0.204-3.549,2.645-9.347,7.403c-1.093,0.814-2.246,2.119-3.398,3.419c0.362,1.057,0.999,1.913,1.576,3.258l3.885-3.337
			C239.844,143.516,245.518,139.736,251.008,137.418z"/>
		<path fill="#F0CC51" d="M251.892,132.329c0.515-2.153,0.699-3.621,0.944-5.572c-1.208-10.177-3.755-17.582-7.787-22.997
			c-4.033-5.415-9.005-9.242-15.619-11.851c-0.543,0.406-1.366,1.019-1.911,1.425c-18.024,13.423-34.716,32.054-50.409,56.589
			c1.304-0.531,2.761-0.286,3.732-0.125c-0.548,0.408-1.095,0.817-1.154,1.304c0.331-0.69,1.426-1.506,2.79-2.521
			c3.277-2.443,8.436-4.067,15.139-4.188c9.95-0.32,17.898,3.51,23.899,11.001c1.7-1.711,3.672-3.621,6.131-5.452
			c-1.06-1.425-2.121-2.849-3.183-4.274c-7.003-9.406-12.551-14.576-17.345-15.88c-4.703-0.041-7.612-0.533-9.159-2.039
			c-0.363-1.057-0.304-1.545-0.032-1.749c1.639-1.22,5.522-0.565,10.406,1.999c6.549,3.097,12.796,8.634,18.315,16.042
			c1.062,1.427,2.122,2.852,2.697,4.195c1.152-1.3,2.305-2.604,3.398-3.419c5.797-4.757,9.074-7.199,9.347-7.403
			C245.369,134.972,248.735,133.795,251.892,132.329z"/>
		<path fill="#E2A616" d="M228.586,152.343c-0.424-0.569-0.787-1.629-0.939-2.4c-2.459,1.831-4.431,3.741-6.131,5.452
			c0.425,0.572,0.848,1.139,1.274,1.71c0,0,0,0,0.212,0.286c0,0,0.212,0.284,0.423,0.567c1.703-1.708,3.127-3.212,5.041-4.637
			l0.271-0.204C228.799,152.629,228.799,152.629,228.586,152.343z"/>
		<path fill="#F0CC51" d="M215.179,152.584c-1.122-0.937-3.7-2.119-8.158-4.115c-2.577-1.182-6.946-1.915-11.647-1.958
			c-3.249,0.202-6.887,1.586-11.621,3.782c10.677,1.794,19.624,7.532,27.75,17.877c0.999-2.076,2.972-3.986,4.249-6.266
			c1.151-1.3,2.035-2.403,3.4-3.417C217.877,156.776,216.392,154.782,215.179,152.584z"/>
		<path fill="#E2A616" d="M220.908,160.279c-0.424-0.569-1.334-1.223-1.757-1.792c-1.365,1.014-2.248,2.117-3.4,3.417
			c-1.277,2.28-3.25,4.19-4.249,6.266c-8.126-10.345-17.073-16.082-27.75-17.877c-1.577,0.728-2.883,1.261-4.249,2.278l0,0
			c0.064-0.49-0.148-0.776-0.087-1.264l0.272-0.204c0.059-0.488,0.606-0.896,1.154-1.304c-0.971-0.161-2.427-0.406-3.732,0.125
			c-0.272,0.202-0.272,0.202-0.818,0.608c-1.277,2.28-2.55,4.556-3.553,6.636c5.794-0.774,11.284,0.898,16.381,3.748
			c1.393,0.735,2.301,1.384,3.697,2.119c6.857,0.653,12.711,3.383,16.589,8.022c0.213,0.286,0.425,0.572,0.425,0.572
			c0.212,0.286,0.153,0.771,0.089,1.261c-0.212-0.286-0.969-0.161-1.182-0.447l-3.819-1.143c-0.912-0.651-1.882-0.812-2.578-1.18
			c1.121,0.937,2.455,2.16,3.789,3.378c0.424,0.571,0.848,1.141,1.06,1.424c-1.882,3.174-3.339,6.917-4.038,10.54
			c-3.064-1.264-7.067-0.937-12.012,0.971c-5.159,1.627-9.679,4.106-13.229,6.754c-8.466,6.305-15.113,13.911-20.485,23.229
			c-1.117-12.902,0.8-26.289,6.358-41.062c0.06-0.488,0.182-1.463,0.516-2.16l-0.548,0.411
			c-7.861,17.373-10.841,33.324-8.725,48.138c0.757,3.87,1.514,7.734,2.481,11.888c2.668,6.432,5.822,12.943,10.279,18.927
			c11.883,15.957,27.138,18.775,45.281,8.362c1.578-0.731,2.944-1.749,4.309-2.765c0,0,0,0,0.272-0.202
			c-1.392-0.735-2.788-1.468-4.125-2.686c-0.908-0.653-1.545-1.509-2.181-2.364c-4.244-5.699-4.603-14.735-1.503-27.673
			c1.762-6.189,3.066-10.703,3.982-14.043l0.727-1.869c0.273-0.202,0.273-0.202,0.273-0.202l0,0
			c-0.638-0.855-1.758-1.792-2.608-2.933c-0.212-0.286-0.212-0.286-0.424-0.569c-1.698-2.28-2.697-4.192-3.638-6.595
			c-1.243,0.041-2.548,0.569-4.339,1.016c0,0,0,0-0.271,0.202c1.15,2.686,2.303,5.374,4,7.652c0.425,0.572,0.637,0.855,0.848,1.139
			c-2.489,4.072-3.341,10.908-3.042,20.434c0.085,9.238,1.963,18.027,5.843,26.656c-16.99,9.111-30.308,6.62-39.858-6.202
			c-5.305-7.126-8.88-14.206-11.362-22.105c2.853-6.999,6.555-12.856,10.624-17.657c-0.79-1.629,1.091-4.803,6.13-9.438
			c5.038-4.639,7.556-6.958,7.556-6.958c4.096-3.049,7.798-4.918,10.348-5.49c2.003-0.161,4.76-0.443,8.161,0.127
			c0.755-0.12,2.485-0.082,3.666,0.37l0.063-0.492c-0.212-0.283,0.122-0.975,0.181-1.461c0.154-3.217,1.067-6.556,2.737-10.014
			c0.668-1.384,1.333-2.768,1.942-3.659l0.999-2.078c0.277-0.204,0.277-0.204,0.338-0.692c0.879-1.096,2.033-2.4,2.7-3.782
			C217.176,164.385,219.149,162.475,220.908,160.279z"/>
		<path fill="#F0CC51" d="M207.19,174.921c-0.212-0.283-0.636-0.853-1.06-1.424c-1.334-1.218-2.668-2.441-3.789-3.378
			c0.696,0.368,1.666,0.529,2.578,1.18c-3.552-1.343-7.525-3.253-12.405-5.826c-1.943-0.322-6.431-0.079-14.014,1.136
			c-3.732,0.12-7.374,1.502-11.198,4.349c-0.818,0.61-1.637,1.221-3.003,2.235c-0.335,0.696-0.456,1.672-0.516,2.16
			c-5.558,14.773-7.475,28.161-6.358,41.062c5.372-9.317,12.018-16.924,20.485-23.229c3.55-2.647,8.071-5.127,13.229-6.754
			c4.946-1.908,8.949-2.235,12.012-0.971C203.85,181.838,205.308,178.094,207.19,174.921z"/>
		<path fill="#F0CC51" d="M192.817,163.033c-1.395-0.735-2.304-1.384-3.697-2.119c-5.097-2.849-10.587-4.521-16.381-3.748
			c-1.76,2.191-2.822,4.76-4.373,7.239c-0.937,1.586-1.457,3.743-2.669,5.533l4.096-3.051
			C178.592,163.881,186.448,162.461,192.817,163.033z"/>
		<path fill="#E2A616" d="M200.753,190.792c-6.488,0.401-11.376,1.826-15.2,4.673c-2.182,1.627-4.427,3.741-6.189,5.939
			c0.608-0.896,1.698-1.708,2.518-2.318c4.367-3.253,10.012-4.798,16.442-4.714c1.729,0.043,2.974,0,4.156,0.451
			c-0.121,0.973,0.516,1.828,0.394,2.809c1.578-0.735,2.821-0.774,4.338-1.021c0.06-0.486-0.092-1.257-0.242-2.033
			c-0.362-1.06-0.455-2.316-0.543-3.58c-0.972-0.161-2.49,0.082-4.217,0.039C201.721,190.958,201.238,190.874,200.753,190.792z"/>
		<path fill="#E2A616" d="M168.367,164.406c-0.937,1.586-1.941,3.661-2.944,5.737l0,0l0.275-0.204
			C166.91,168.149,167.43,165.991,168.367,164.406z"/>
		<path fill="#F0CC51" d="M179.364,201.405c-3.065,2.722-5.433,5.817-7.315,8.991c-0.274,0.204-0.547,0.406-0.76,0.123
			c-0.271,0.204-0.484-0.084-0.695-0.368l0,0c-4.069,4.8-7.771,10.658-10.624,17.657c2.482,7.899,6.057,14.98,11.362,22.105
			c9.55,12.822,22.868,15.313,39.858,6.202c-3.88-8.63-5.758-17.418-5.843-26.656c-0.298-9.526,0.554-16.361,3.042-20.434
			c-0.211-0.284-0.423-0.567-0.848-1.139c-1.697-2.278-2.849-4.966-4-7.652c0.271-0.202,0.271-0.202,0.271-0.202
			c-4.335,1.012-8.251,2.602-11.528,5.041c-6.007,4.476-10.714,12.407-14.661,24.209l-1.729-0.043
			c2.642-11.271,7.679-19.894,15.328-25.59c3.825-2.847,7.313-5.002,11.652-6.016c0.122-0.98-0.515-1.835-0.394-2.809
			c-1.182-0.451-2.428-0.408-4.156-0.451c-6.429-0.084-12.075,1.461-16.442,4.714C181.062,199.696,179.972,200.509,179.364,201.405z
			"/>
		<path fill="#F0CC51" d="M310.308,148.634c0.82-0.608,1.639-1.221,2.457-1.828c2.459-1.831,3.824-2.847,4.583-2.97
			c0.272-0.204,1.246-0.041,1.942,0.324c3.157-5.452,5.616-11.266,7.711-18.144c3.736-12.087,2.984-23.93-2.805-35.123
			c-1.339,6.754-2.977,11.963-4.859,15.137c-5.557,10.785-14.661,20.218-27.224,29.576c-1.911,1.422-4.035,2.564-5.399,3.578
			c2.636,4.683,4.029,9.406,4.604,14.735c-0.211-0.283-0.759,0.123-1.244,0.041c1.516-0.245,3.459,0.082,5.249-0.363
			c-0.396,1.18-0.728,1.872-1.064,2.561c-0.758,0.122-1.516,0.245-2.486,0.082c0.301,5.536-0.371,10.905-1.798,16.4
			c-0.758,0.122-1.729-0.041-2.972-0.002c2.214,0.125,4.428,0.247,6.431,0.082c4.096-3.049,8.009-4.632,11.316-5.322
			c-1.941-4.317-1.604-8.995,1.157-13.269c0.548-0.406,0.883-1.096,1.216-1.79c-2.551,0.569-4.672,1.708-6.948,2.073
			c0.606-0.894,0.729-1.871,0.85-2.847C305.485,149.569,308.578,148.593,310.308,148.634z"/>
		<path fill="#E2A616" d="M287.001,172.636c1.243-0.039,2.214,0.125,2.972,0.002c1.427-5.495,2.099-10.864,1.798-16.4
			c-3.579,0.892-6.553,0.894-8.768,0.769c-0.212-0.286-0.698-0.367-1.182-0.449c-0.064,4.476-1.218,9.766-2.92,15.465
			L287.001,172.636z"/>
		<path fill="#F0CC51" d="M276.277,139.426c0.486,0.079,1.032-0.327,1.79-0.449c-0.758,0.122-1.303,0.528-2.061,0.651
			c0.695,0.368,0.907,0.651,1.332,1.223c2.334,3.133,3.305,7.285,3.665,12.33c0,0,0.698,0.37,0.972,0.166
			c-0.361-5.05-1.878-8.793-4.212-11.926C277.125,140.565,276.701,139.995,276.277,139.426z"/>
		<path fill="#F0CC51" d="M278.629,172.226c0,0,0,0,0.272-0.202c1.702-5.699,2.856-10.989,2.92-15.465
			c-0.212-0.283-0.212-0.283-0.695-0.368C280.999,161.159,280.392,166.041,278.629,172.226z"/>
		<path fill="#F0CC51" d="M257.71,141.286L257.71,141.286c-2.06,0.651-4.672,1.708-7.341,3.256c1.395,0.73,2.729,1.953,3.79,3.378
			c5.093,6.84,4.486,11.722-1.614,14.934c-2.73,2.033-4.579,2.97-5.764,2.521c0.336-0.692,1.763-2.196,4.493-4.229
			c4.096-3.049,4.584-6.958,0.977-11.804c-1.698-2.28-3.033-3.5-4.003-3.664c-2.398,1.341-4.856,3.174-8.071,5.125l0,0l0,0
			c-3.4,3.419-8.164,7.849-14.354,13.791c4.002-0.327,7.004,1.429,9.127,4.279c0,0,0,0,0.211,0.284
			c4.462-1.994,8.89-1.747,13.015,0.942c2.337-0.855,4.399-1.507,6.036-2.722c2.733-2.035,4.889-5.413,6.133-9.44
			C262.318,152.032,261.53,146.418,257.71,141.286z"/>
		<path fill="#E2A616" d="M240.176,150.803l-2.733,2.033c-4.644,3.46-8.86,7.487-12.592,11.593c0.213,0.286,0.484,0.084,0.971,0.166
			C232.012,158.652,236.776,154.222,240.176,150.803z"/>
		<path fill="#E2A616" d="M223.303,166.91c-0.274,0.204-0.548,0.408-1.033,0.327c-0.88,1.098-1.485,1.992-2.368,3.095l0.213,0.286
			c0,0,0.274-0.207,0.547-0.411C221.269,169.313,222.42,168.013,223.303,166.91z"/>
		<path fill="#F0CC51" d="M223.303,166.91c-0.883,1.103-2.034,2.403-2.642,3.296c3.033-0.483,6.159,0.288,9.707,1.631
			c0.272-0.202,0.818-0.608,1.577-0.728l-0.213-0.286c-1.908-2.564-4.213-3.952-5.943-3.991
			C224.819,166.67,224.062,166.79,223.303,166.91z"/>
		<path fill="#E2A616" d="M218.567,173.094c-0.487-0.082-0.76,0.125-0.76,0.125c-0.728,1.872-1.67,3.457-2.338,4.841
			C216.137,176.677,217.353,174.887,218.567,173.094z"/>
		<path fill="#F0CC51" d="M218.567,173.094c-1.214,1.792-2.43,3.582-3.098,4.966c-4.342,8.993-3.857,17.051,1.447,24.174
			c4.032,5.415,10.644,4.031,20.538-3.777c1.637-1.218,3.126-3.212,4.736-6.184c1.67-3.457,2.033-6.388,0.548-8.381
			c-2.122-2.849-3.667-4.358-4.973-3.829c-0.545,0.406-1.365,1.019-3.003,2.237l1.273,1.708c1.698,2.28,1.574,3.256-0.277,4.195
			c-1.091,0.812-1.851,0.937-3.245,0.202c0.486,0.082,1.182,0.449,1.668,0.529c-0.455,1.667-0.637,3.133-1.458,3.743
			c-2.183,1.627-4.975,0.161-7.734-3.544c-3.183-4.274-3.181-8.262-0.209-12.248c1.156-1.304,2.519-2.318,3.615-3.135
			c0.483,0.082,1.453,0.247,1.878,0.817c-1.183-0.449-2.365-0.898-4.247-1.71C223.119,172.364,220.629,172.448,218.567,173.094z"/>
		<path fill="#F0CC51" d="M273.377,176.579l-0.212-0.284c-6.007,4.471-11.225,6.586-15.44,6.627
			c0.845,5.127-1.341,10.742-6.013,16.436c-3.522,4.394-7.467,8.217-12.322,11.391c-1.366,1.019-2.459,1.831-3.55,2.643
			c-0.423-0.567-0.786-1.629-0.937-2.4c0.45,2.321,1.665,4.519,3.15,6.516c2.971,3.988,5.64,6.429,8.489,7.407
			c3.371-5.166,6.952-10.048,10.048-15.012C264.605,197.292,270.219,186.019,273.377,176.579z"/>
		<path fill="#F0CC51" d="M271.832,175.073c1.609-2.972,3.098-4.964,3.765-6.348c2.312-10.581,1.131-19.007-3.326-24.991
			c-2.547-3.419-6.641-4.356-12.225-3.299c4.183,6.189,4.909,12.294,2.116,18.8c-1.791,4.437-3.946,7.815-6.678,9.85
			c-2.457,1.828-4.794,2.679-7.067,3.045c0.272-0.202,1.03-0.325,2.061-0.649c1.334,1.223,3.092,3.013,4.366,4.723
			c1.062,1.425,1.637,2.768,2.001,3.825C261.486,180.561,266.644,178.936,271.832,175.073z"/>
		<path fill="#E2A616" d="M257.725,182.922c-2.974-0.002-5.551-1.184-7.249-3.462l-0.637-0.857l0.061-0.488
			c2.366,0.896,4.52,1.509,6.946,1.915c-0.364-1.057-0.939-2.4-2.001-3.825c-1.274-1.711-3.032-3.501-4.366-4.723
			c-1.031,0.324-1.789,0.447-2.061,0.649l-2.216-0.12c0,0-0.483-0.082-0.97-0.163c-0.212-0.286-0.151-0.774-0.092-1.261
			c1.032-0.327,2.004-0.163,3.036-0.488c-4.126-2.688-8.553-2.936-13.015-0.942c1.274,1.71,2.063,3.337,1.881,4.803
			c-2.002,0.161-3.884-0.651-5.095-2.849c-0.759,0.12-1.304,0.526-1.577,0.728c0.213,0.286,1.183,0.449,1.607,1.019
			c0,0,0,0,0.212,0.286c0.212,0.284,0.15,0.774-0.121,0.975l-0.275,0.204c-0.273,0.204-0.486-0.079-0.758,0.123l-0.759,0.122
			c-0.425-0.569-1.395-0.735-1.878-0.817c-1.096,0.817-2.459,1.831-3.615,3.135c-2.972,3.986-2.974,7.974,0.209,12.248
			c2.759,3.705,5.55,5.17,7.734,3.544c0.82-0.61,1.003-2.076,1.458-3.743c-0.486-0.079-1.183-0.447-1.668-0.529l-0.696-0.368
			c-0.425-0.572-0.637-0.855-1.061-1.425c-0.212-0.286-0.425-0.572-0.425-0.572c-1.91-2.564-2.425-4.394-1.271-5.699
			c1.152-1.298,1.973-1.91,1.973-1.91c6.281-4.678,11.408-4.063,15.227,1.064l0.424,0.572c0.212,0.283,0.212,0.283,0.212,0.283
			c1.123,0.937,1.759,1.792,2.608,2.931c0.848,1.141,0.878,2.89-0.062,4.478c-0.124,4.966-2.735,10.009-8.804,14.971
			c-2.245,2.114-4.704,3.945-6.615,5.372l0.88,2.888c0.151,0.771,0.514,1.833,0.937,2.4c1.091-0.812,2.185-1.624,3.55-2.643
			c4.855-3.174,8.8-6.996,12.322-11.391C256.384,193.664,258.57,188.049,257.725,182.922z"/>
		<path fill="#F0CC51" d="M246.895,180.352c0,0,0,0-0.212-0.283c1.636,2.768,2.576,5.168,2.757,7.693
			c0.94-1.588,0.911-3.337,0.062-4.478C248.655,182.144,248.018,181.289,246.895,180.352z"/>
		<path fill="#F0CC51" d="M423.98,190.683c3.005-2.237,4.797-2.684,5.433-1.829c0.848,1.139-2.674,5.535-10.776,12.897
			c-1.73,3.948-2.913,7.487-3.28,10.415c0.062-0.488,0.395-1.177,0.243-1.951c5.311-0.855,10.558-1.218,15.41-0.402
			c1.216-1.79,3.31-4.68,6.647-7.609c6.526-6.631,10.41-9.964,10.41-9.964c5.463-4.07,12.411-6.141,20.843-6.218
			c4.487-0.24,8.371,0.408,11.921,1.754c-12.069-10.506-27.115-13.036-45.134-7.586c-11.284,3.085-21.633,8.575-30.767,16.264
			c-9.012,6.71-15.961,12.775-19.603,18.144c-3.853,5.084-6.798,10.821-8.56,17.006c3.883-3.335,5.853-5.245,5.853-5.245
			c8.317-7.083,17.297-11.554,26.855-14.68c1.031-0.329,1.789-0.449,2.548-0.569c0.517-2.157,1.307-4.517,2.642-7.285
			C417.395,197.802,420.43,193.328,423.98,190.683z"/>
		<path fill="#E2A616" d="M412.021,211.11c-0.759,0.12-1.517,0.24-2.548,0.569c-9.558,3.126-18.538,7.598-26.855,14.68
			c0,0-1.97,1.91-5.853,5.245c-1.46,3.743-2.28,8.344-2.553,12.534c2.365-3.092,7.342-7.242,14.171-12.325
			c8.464-6.305,16.413-10.452,23.845-12.444C411.774,217.049,411.383,214.243,412.021,211.11z"/>
		<path fill="#E2A616" d="M505.709,244.561c0.153-3.215-0.179-6.513-0.299-9.522c-5.794-3.219-12.103-4.281-19.898-3.346
			c-8.556,1.053-14.533,3.289-19.174,6.745c3.913-1.583,7.705-2.194,11.983-2.72c6.431,0.086,12.467,1.35,18.32,4.079
			C499.764,240.57,502.765,242.322,505.709,244.561z"/>
		<path fill="#E2A616" d="M504.584,251.603c-0.212-0.286-0.212-0.286-0.212-0.286c-1.607-1.019-2.941-2.239-4.336-2.972
			c-0.212-0.286-0.212-0.286-0.486-0.084l-2.79-1.465c-0.971-0.161-1.883-0.814-2.85-0.98l0,0c-1.731-0.039-3.673-0.365-5.187-0.12
			c-8.918-0.005-16.078,1.783-20.721,5.238c-0.273,0.204-0.273,0.204-0.82,0.613c0.032-2.241-0.483-4.072-0.726-6.107
			c0.272-0.202,0.82-0.608,1.579-0.73c5.492-2.319,9.68-4.106,12.227-4.676c1.789-0.447,3.579-0.892,5.308-0.851
			c-3.124-0.776-6.521-1.347-9.766-1.146c-3.52,0.406-7.312,1.014-10.8,3.171c-0.486-0.082-1.033,0.327-1.306,0.529l-1.91,1.422
			l1.06,1.425c0.424,0.57,0.364,1.06,0.727,2.119c4.455,9.973,2.57,21.121-5.111,33.043c-1.001,2.076-2.153,3.376-3.095,4.964l0,0
			l1.454,0.243c0.759-0.122,1.457,0.247,2.426,0.411l0,0c1.276-2.28,2.551-4.56,3.342-6.917c3.613-7.121,5.223-14.081,5.317-20.794
			c0.909,0.653,2.7,0.202,5.521-0.567c4.674-1.708,8.041-2.888,10.59-3.455c8.403-1.829,15.256-1.175,20.715,2.734
			c0.183-1.466,0.094-2.725,0.549-4.394c-0.212-0.286-0.212-0.286-0.212-0.286C504.858,251.398,504.858,251.398,504.584,251.603z"/>
		<path fill="#F0CC51" d="M502.92,243.095l0.786,1.629l-0.332,0.692c-0.273,0.202-2.58-1.182-7.248-3.464
			c-3.276-1.547-6.885-2.405-10.556-2.77c-1.73-0.041-3.52,0.404-5.308,0.851c-2.547,0.569-6.735,2.357-12.227,4.676
			c-0.759,0.122-1.307,0.529-1.579,0.73c0.243,2.035,0.758,3.866,0.726,6.107c0.547-0.408,0.547-0.408,0.82-0.613
			c4.643-3.455,11.803-5.243,20.721-5.238c1.514-0.245,3.456,0.082,5.187,0.12c-1.458-0.243-2.852-0.978-4.096-0.935
			c-6.793-1.143-12.315-0.574-17.108,2.107l-0.699-0.365l1.064-2.564c2.185-1.627,7.918-1.91,16.016-1.296
			c7.34,0.733,12.83,2.405,16.62,5.785c0.184-1.466-0.18-2.521,0.002-3.988c-2.944-2.239-5.945-3.991-9.068-4.764
			C498.795,240.407,500.613,241.709,502.92,243.095z"/>
		<path fill="#E2A616" d="M490.26,197.591c-1.699-2.282-3.183-4.274-4.942-6.066c-4.458-1.996-9.524-3.094-14.982-3.02
			c-9.042,0.973-17.628,4.267-25.82,10.368c-0.272,0.204-1.365,1.016-4.096,3.049c-2.308,2.604-4.189,5.776-6.071,8.952
			c-0.273,0.204-0.548,0.408-0.883,1.098l-0.939,1.588c-0.06,0.486-0.395,1.182-0.729,1.872c-0.272,0.202-0.546,0.406-0.82,0.61
			c0.212,0.284-0.271,0.202-0.695-0.368c-0.637-0.857-0.789-1.627-0.395-2.809c0.333-0.69,0.457-1.67,1.123-3.051
			c-4.852-0.817-10.099-0.454-15.41,0.402c0.152,0.774-0.18,1.463-0.243,1.951l-0.184,5.454c-0.061,0.488-0.122,0.978,0.09,1.261
			c4.884-1.422,9.587-1.377,14.441-0.563c1.454,0.245,3.395,0.572,5.065,1.103c0,0,0,0,0.273-0.204
			c0.272-0.202,0.272-0.202,0.272-0.202l0,0l4.128-5.291c0.061-0.488,0.335-0.692,0.608-0.896c2.245-2.114,4.49-4.229,7.494-6.468
			c5.462-4.068,11.985-6.711,19.356-8.212c9.647-1.867,17.837,0.007,24.085,5.547l1.697,2.28c1.455,0.243,2.639,0.692,3.608,0.857
			C494.716,203.576,492.382,200.44,490.26,197.591z"/>
		<path fill="#E2A616" d="M477.79,200.232c-0.484-0.084-0.696-0.37-0.696-0.37c-2.701-0.204-5.673-0.204-8.494,0.567
			c-7.312,1.014-13.834,3.657-19.569,7.927c-3.276,2.443-6.07,4.966-8.042,6.876l-3.245,4.19c-0.548,0.406-0.82,0.608-0.609,0.892
			c7.795,3.058,15.437,9.329,22.439,18.732c0.425,0.571,0.851,1.141,1.001,1.915c1.091-0.814,2.122-1.137,3.428-1.668
			c-1.94-4.315-3.938-8.142-6.908-12.13c-4.034-5.415-8.523-9.159-13.072-12.416c1.85-0.937,3.764-2.362,5.948-3.988
			c5.674-3.782,9.921-6.06,12.531-7.119c5.702-2.03,11.225-2.597,16.35-1.983c1.518-0.245,4.583,1.016,8.614,2.446
			c-0.425-0.572-1.123-0.935-1.819-1.305l-2.577-1.184c-0.211-0.284-0.484-0.082-0.696-0.365
			C480.703,200.722,479.306,199.987,477.79,200.232z"/>
		<path fill="#F0CC51" d="M470.335,188.505c-0.213-0.284-0.213-0.284-0.488-0.082c-8.917-0.002-15.593,1.865-20.508,5.526
			c-3.004,2.237-6.067,4.962-8.92,7.972c2.731-2.033,3.824-2.845,4.096-3.049C452.707,192.772,461.293,189.478,470.335,188.505z"/>
		<path fill="#F0CC51" d="M478.85,201.656c-5.125-0.615-10.648-0.048-16.35,1.983c-2.61,1.06-6.857,3.337-12.531,7.119
			c-2.185,1.627-4.098,3.051-5.948,3.988c4.549,3.258,9.038,7.001,13.072,12.416c2.97,3.988,4.968,7.816,6.908,12.13
			c0.758-0.12,1.579-0.733,2.337-0.855c4.642-3.455,10.618-5.692,19.174-6.745c7.795-0.935,14.104,0.127,19.898,3.346
			c-0.996-9.891-3.783-19.335-9.12-28.206c-0.97-0.165-2.153-0.615-3.608-0.857l1.909,2.564c0,0-0.272,0.202-0.333,0.692
			c-0.82,0.608-1.091,0.812-1.305,0.526c-1.85-3.053-4.518-5.497-7.308-6.96c0.696,0.37,1.394,0.733,1.819,1.305
			C483.433,202.673,480.368,201.412,478.85,201.656z"/>
		<path fill="#F0CC51" d="M482.264,305.435l-0.213-0.286c-1.485-1.994-2.547-3.419-3.879-4.639c0.609-0.896,0.94-1.588,1.488-1.994
			c0.212,0.283,0.423,0.569,0.635,0.853c1.062,1.425,2.122,2.849,2.971,3.991c2.095-2.888,3.977-6.062,6.133-9.44
			c8.074-13.099,13.054-25.227,15.333-37.557c-5.458-3.909-12.312-4.562-20.715-2.734c-2.549,0.567-5.915,1.747-10.59,3.455
			c-2.821,0.769-4.612,1.221-5.521,0.567c-0.094,6.713-1.704,13.673-5.317,20.794c-0.791,2.357-2.065,4.637-3.342,6.917
			c0.76-0.123,1.943,0.324,2.913,0.488c5.005,1.59,9.614,4.36,13.554,8.512c-0.059,0.49-0.392,1.182-1.211,1.79
			c-5.216-5.864-9.979-9.404-13.919-9.567c-0.7-0.367-1.458-0.247-1.942-0.331c-1.275,2.282-2.762,4.274-4.188,5.778
			c0.696,0.368,1.181,0.452,1.88,0.817c5.426,2.16,9.764,5.132,13.857,10.057c-0.332,0.692-1.151,1.304-1.486,1.994
			c-5.517-7.409-10.764-11.035-15.073-12.257c-2.367,3.095-5.157,5.615-8.224,8.342c0,0-2.182,1.627-6.218,4.186
			c-0.272,0.204-0.82,0.61-0.82,0.61c1.547,1.507,3.307,3.299,5.005,5.579c5.305,7.124,7.937,15.794,7.479,25.44
			c4.097-3.054,8.466-6.307,13.596-9.68c3.185-3.7,6.645-7.607,9.835-11.309c-0.245-2.037-1.395-4.723-2.82-7.205
			c0.334-0.692,0.881-1.098,1.485-1.994c1.427,2.484,2.639,4.68,3.093,7.003C478.348,311.009,480.229,307.835,482.264,305.435z"/>
		<path fill="#E2A616" d="M453.88,286.701c-1.154,1.302-2.855,3.01-4.008,4.313l0.212,0.286c0.76-0.122,0.972,0.163,1.73,0.041l0,0
			l0.212,0.286c0.971,0.164,1.457,0.245,2.429,0.406c1.426-1.504,2.913-3.496,4.188-5.778
			C456.913,286.213,455.394,286.458,453.88,286.701z"/>
		<path fill="#E2A616" d="M453.632,292.642c-0.969-0.159-2.212-0.122-3.729,0.12c-0.486-0.079-1.031,0.327-1.577,0.733
			c-0.761,0.123-0.761,0.123-1.307,0.529c-1.972,1.912-4.157,3.541-6.067,4.964c-5.19,3.863-10.47,6.463-16.385,8.212l3.306,3.299
			c0.213,0.286,0.424,0.569,0.424,0.569c0.819-0.61,1.85-0.937,3.093-0.975c0.213,0.286,0.699,0.365,1.607,1.021
			c0.971,0.159,3.64,2.602,7.461,7.734c3.395,4.56,4.361,12.7,1.78,23.483c-5.128,3.376-9.862,5.57-13.563,7.443
			c-2.882,1.259-5.492,2.316-8.1,3.371c-1.216,1.794-2.643,3.296-4.068,4.803c1.243-0.039,2.549-0.569,3.579-0.896
			c6.251-2.439,13.048-5.284,18.993-9.267c0.819-0.613,1.366-1.019,2.185-1.629c3.217-1.951,5.341-3.09,5.888-3.498l0.273-0.202
			c0,0,0,0,0.272-0.202c0.271-0.204,0.545-0.408,0.819-0.613c0.275-0.204,0.546-0.406,0.546-0.406l0.547-0.406
			c0.547-0.408,1.093-0.814,1.365-1.018l11.777-10.983c0.818-0.61,1.366-1.019,1.97-1.912l-0.271,0.204
			c-5.129,3.373-9.499,6.627-13.596,9.68c0.458-9.646-2.173-18.317-7.479-25.44c-1.698-2.28-3.457-4.072-5.005-5.579
			c0,0,0.548-0.406,0.82-0.61c4.036-2.559,6.218-4.186,6.218-4.186C448.476,298.257,451.265,295.737,453.632,292.642z"/>
		<path fill="#F0CC51" d="M431.391,310.093c-1.243,0.039-2.274,0.365-3.093,0.975c7.305,10.951,4.844,24.746-7.722,42.076
			c2.608-1.055,5.218-2.112,8.1-3.371c3.701-1.874,8.435-4.068,13.563-7.443c2.582-10.783,1.615-18.923-1.78-23.483
			c-3.821-5.132-6.49-7.575-7.461-7.734C432.089,310.458,431.604,310.378,431.391,310.093z"/>
		<path fill="#F0CC51" d="M453.352,243.238c-1.91-2.566-3.668-4.358-5.64-6.434c1.335,5.209-0.519,10.134-5.618,15.259
			c5.517,7.409,6.94,13.882,4.267,19.413c0.273-0.202,0.972,0.163,1.518-0.243c0.488,0.084,3.097-0.975,7.708-2.194
			C459.777,259.273,458.87,250.648,453.352,243.238z"/>
		<path fill="#E2A616" d="M442.094,252.063c-1.639,1.221-3.277,2.439-5.188,3.864c-0.546,0.406-1.093,0.812-1.367,1.016l0,0
			c0.212,0.286,0.212,0.286,0.153,0.774c0.212,0.286,0.212,0.286,0.424,0.572c2.274,3.623,2.819,7.203,0.664,10.581
			c3.001,1.751,6.126,2.525,9.582,2.607C449.034,265.945,447.611,259.473,442.094,252.063z"/>
		<path fill="#F0CC51" d="M436.506,269.071c0.273-0.202,0.273-0.202,0.273-0.202c2.155-3.378,1.611-6.958-0.664-10.581
			C437.693,261.546,437.751,265.044,436.506,269.071z"/>
		<path fill="#E2A616" d="M434.114,254.459c0.213,0.286,0.213,0.286,0.213,0.286c0.76-0.12,1.307-0.526,1.578-0.728
			c1.914-1.427,3.065-2.727,4.491-4.233c-6.426-8.06-14.554-10.424-24.112-7.296c-2.334,0.855-6.372,3.417-11.226,6.588
			c-0.061,0.488,0.152,0.774,0.364,1.06l0.727,2.117l0,0C417.345,243.912,426.9,244.772,434.114,254.459z"/>
		<path fill="#F0CC51" d="M440.396,249.783c5.16-5.613,6.74-10.336,5.559-14.771c-9.127-8.262-19.683-11.037-31.605-8.804
			c-6.4,1.667-13.53,5.204-20.904,10.697c2.576,1.18,5.034,3.337,7.642,6.268c-0.821,0.61-1.366,1.016-2.187,1.629
			c-1.756-1.792-3.03-3.503-5.124-4.603c-1.183-0.445-2.093-1.098-2.516-1.667c-1.637,1.218-3.066,2.725-4.977,4.149
			c1.184,0.447,2.425,0.406,3.124,0.774c2.853,0.98,4.946,2.076,6.704,3.868c-0.545,0.406-1.093,0.814-1.427,1.506
			c-2.033-1.59-3.853-2.89-6.491-3.582c-1.455-0.247-2.152-0.613-3.064-1.266c-5.707,6.023-10.288,12.979-13.75,20.874
			c2.278-0.365,4.611-1.221,7.859-1.422c1.029-0.324,2.76-0.283,3.516-0.406c-0.06,0.49-0.391,1.18-0.454,1.67
			c-2.425-0.408-4.641-0.531-6.431-0.086c-1.79,0.447-3.369,1.182-5.006,2.4c-1.397,3.258-2.583,6.795-3.768,10.333
			c0.335,3.299,0.209,12.255-0.648,27.065c-0.245,1.956-0.276,4.19-0.244,5.944c1.365-1.016,2.185-1.627,3.55-2.645
			c5.461-4.065,10.315-7.241,13.742-8.907c1.306-0.529,2.886-1.261,3.915-1.586c-5.424-10.134-5.39-20.352,0.316-30.359
			c0.273-0.207,0.273-0.207,0.063-0.488c-0.973-0.163-1.669-0.531-2.366-0.898c0.334-0.69,0.881-1.098,1.486-1.992
			c0.76-0.123,1.731,0.039,2.641,0.692c1.881-3.174,4.129-5.288,6.706-8.095c0.88-1.1,1.427-1.506,2.245-2.117
			c0.365,1.06,0.516,1.831,1.154,2.686c-0.515-1.831-1.577-3.255-2.85-4.966c0.608-0.896,1.155-1.305,1.699-1.708
			c1.274,1.71,1.85,3.051,2.7,4.192c-0.424-0.569-0.636-0.855-1.062-1.425c0.545-0.406,1.091-0.812,1.091-0.812
			c0.547-0.408,1.093-0.817,1.639-1.223c-0.635-0.853-1.002-1.912-1.638-2.765c0.821-0.613,1.64-1.223,2.4-1.345
			c0.423,0.569,1.273,1.71,1.422,2.484c4.854-3.171,8.892-5.733,11.226-6.588C425.842,239.359,433.97,241.723,440.396,249.783z"/>
		<path fill="#E2A616" d="M401.993,255.788c0.544-0.404,1.092-0.812,1.636-1.216c-0.09-1.266-0.39-2.811-0.755-3.87
			c-0.546,0.406-1.092,0.814-1.639,1.223c0,0-0.546,0.406-1.091,0.812c0.425,0.569,0.637,0.855,1.062,1.425L401.993,255.788z"/>
		<path fill="#E2A616" d="M399.744,257.905l0.062-0.488l-0.213-0.286l0,0c0.273-0.204,0.273-0.204,0.273-0.204l-0.211-0.284
			c-0.637-0.855-0.788-1.626-1.154-2.686c-0.818,0.61-1.365,1.016-2.245,2.117c-2.577,2.806-4.825,4.921-6.706,8.095
			c1.243-0.041,2.425,0.408,3.549,1.343C394.92,262.828,397.226,260.226,399.744,257.905z"/>
		<path fill="#E2A616" d="M423.657,310.537l-1.91-2.566l-0.212-0.284c-1.032,0.325-2.548,0.567-4.005,0.325
			c-1.394-0.735-2.639-0.694-4.215,0.039c-4.431-0.247-8.191-1.878-11.827-4.481c-1.123-0.937-2.034-1.59-2.733-1.956
			c-1.242,0.039-2.545,0.567-4.064,0.812c-0.818,0.612-1.85,0.935-3.155,1.461c-4.187,1.792-8.374,3.58-11.378,5.817
			c-0.15-0.774-0.363-1.06-0.786-1.629c3.548-2.641,7.523-4.717,10.467-6.466c2.334-0.853,4.673-1.708,6.733-2.359
			c-1.333-1.223-2.181-2.362-3.03-3.501l-0.212-0.286c-6.791-9.118-7.425-17.95-2.052-27.267c-1.184-0.447-2.304-1.384-3.487-1.831
			c0.211,0.281,0.211,0.281-0.063,0.488c-5.707,10.007-5.741,20.225-0.316,30.359c-1.029,0.325-2.609,1.057-3.915,1.586
			c-3.427,1.665-8.282,4.841-13.742,8.907c-1.366,1.019-2.186,1.629-3.55,2.645c-0.032-1.754-0.001-3.988,0.244-5.944
			c0.856-14.81,0.982-23.766,0.648-27.065c-1.155,5.295-2.31,10.583-2.552,16.525c-0.702,7.609-0.859,14.812-0.255,21.895
			l0.574,5.331c0.637,0.858,0.303,1.547,0.668,2.604c0.394-1.177,1-2.076,1.337-2.768c0.059-0.486-0.092-1.261-0.092-1.261
			c0.604-0.894,1.425-1.504,2.244-2.114c2.035-2.4,4.342-5.005,7.407-7.729c0.151,0.774,0.363,1.057,0.302,1.547
			c3.973-2.073,8.919-3.986,14.016-5.122c1.032-0.325,1.792-0.449,2.276-0.365c5.488,5.66,12.251,9.04,20.199,8.882
			c0.12,3.01,0.754,7.854,1.691,14.245c-0.214,3.705-1.307,8.503-3.556,14.61c1.156-1.304,1.883-3.176,2.763-4.274
			c0.273-0.204,0.273-0.204,0.062-0.488c4.492-8.217,5.952-15.951,4.377-23.195l0.82-0.61l1.546,1.506
			c3.183,4.274,1.176,12.409-5.532,24.497c-2.216,3.863-4.918,7.648-7.557,10.944c-0.943,1.586-1.884,3.174-3.097,4.964
			c-1.245,0.041-1.942-0.327-2.973,0c-0.546,0.406-1.091,0.814-1.639,1.221l-1.578,0.731c-0.272,0.204-0.545,0.408-0.82,0.612
			c0,0-0.545,0.406-0.817,0.608c-0.213-0.286-0.759,0.12-0.972-0.166c1.668,0.533,3.882,0.656,5.611,0.696
			c2.002-0.161,4.004-0.322,6.007-0.488l-0.212-0.286c0.212,0.286,0.212,0.286,0.483,0.082l1.73,0.045
			c0.758-0.122,1.306-0.531,2.061-0.651l0,0c0.76-0.123,0.972,0.163,1.52-0.245c1.366-1.019,2.305-2.604,4.067-4.8
			c-0.76,0.122-1.792,0.449-2.822,0.771c0.395-1.177,1.002-2.073,1.124-3.051c7.802-16.886,9.933-29.991,6.053-38.617
			c1.032-0.327,2.061-0.651,3.581-0.896C424.505,311.676,424.081,311.107,423.657,310.537z"/>
		<path fill="#F0CC51" d="M423.657,310.537c0.424,0.569,0.849,1.139,1.486,1.994c-1.52,0.245-2.549,0.569-3.581,0.896
			c3.88,8.625,1.749,21.731-6.053,38.617c-0.122,0.978-0.729,1.874-1.124,3.051c1.03-0.322,2.062-0.649,2.822-0.771
			c1.151-1.3,2.094-2.888,3.035-4.474c3.034-4.476,4.704-7.933,5.22-10.091c2.247-6.105,3.221-9.93,3.343-10.905
			C429.535,322.994,427.354,316.644,423.657,310.537z"/>
		<path fill="#F0CC51" d="M404.739,356.965c1.213-1.79,2.154-3.378,3.097-4.964c-1.426,1.506-3.065,2.727-4.705,3.947
			c-1.091,0.812-1.91,1.422-3.004,2.237c0.548-0.406,1.093-0.814,1.639-1.221C402.797,356.638,403.493,357.006,404.739,356.965z"/>
		<path fill="#F0CC51" d="M411.355,343.621c2.249-6.107,3.342-10.905,3.556-14.61c-0.937-6.391-1.571-11.234-1.691-14.245
			c-7.948,0.159-14.711-3.221-20.199-8.882c-0.484-0.084-1.244,0.041-2.276,0.365c-5.097,1.136-10.042,3.049-14.016,5.122
			c0.212,0.284,0.212,0.284,0.212,0.284c-2.246,2.114-4.067,4.803-5.948,7.977c-1.065,2.564-2.339,4.839-3.339,6.915
			c1.089,7.162,3.329,13.029,6.088,16.731c6.154,8.265,14.041,12.58,23.32,13.641c-0.484-0.082-0.758,0.122-1.032,0.327
			c2.339-0.853,4.189-1.788,5.555-2.804C405.407,351.593,408.32,348.092,411.355,343.621z"/>
		<path fill="#E2A616" d="M375.956,347.389c2.757,3.705,5.637,6.434,8.792,8.957c5.277,1.386,8.675,1.958,9.707,1.631l1.575-0.731
			c0.274-0.204,0.548-0.408,1.032-0.327c-9.28-1.062-17.167-5.377-23.32-13.641c-2.759-3.702-4.999-9.569-6.088-16.731
			c-0.335,0.694-0.881,1.1-0.94,1.588C368.496,335.665,371.922,341.974,375.956,347.389z"/>
		<path fill="#F0CC51" d="M366.868,320.93c0.665-1.379,1.545-2.482,2.152-3.376c-0.819,0.61-1.639,1.221-2.244,2.114
			C366.777,319.668,366.927,320.444,366.868,320.93z"/>
		<path fill="#F0CC51" d="M413.881,255.795c-1.578,0.733-2.182,1.624-3.548,2.643c0,0-0.881,1.1-2.307,2.604
			c1.729,0.041,3.548,1.345,5.034,3.339c0.424,0.569,0.849,1.139,1.061,1.425c1.577-0.733,2.883-1.261,4.003-0.325
			C418.156,263.243,416.852,259.783,413.881,255.795z"/>
		<path fill="#F0CC51" d="M445.908,273.148c-0.275,0.202-0.546,0.406-0.546,0.406c-1.76,2.196-4.492,4.229-7.435,5.978
			c-4.157,3.537-7.857,5.411-11.5,6.79c0.455,2.321,1.669,4.519,3.579,7.083c1.06,1.427,1.97,2.078,2.607,2.933l0,0
			c2.458-1.831,3.824-2.847,3.824-2.847c6.067-4.964,11.229-10.577,15.263-17.128c0.88-1.098,1.823-2.684,2.489-4.067
			C452.126,272.946,449.365,273.227,445.908,273.148z"/>
		<path fill="#E2A616" d="M445.362,273.554c-4.429-0.247-7.342-0.737-9.92-1.917c-1.61,2.97-3.977,6.06-7.527,8.702
			c-0.546,0.408-0.818,0.61-1.366,1.019c0.213,0.286-0.12,0.978,0.092,1.261c-0.396,1.18-0.577,2.647-0.214,3.702
			c3.642-1.379,7.343-3.253,11.5-6.79C440.87,277.783,443.602,275.75,445.362,273.554z"/>
		<path fill="#F0CC51" d="M430.017,261.498c-0.213-0.284-0.213-0.284-0.213-0.284c-4.245-5.701-8.428-7.899-13.313-6.475
			l-0.271,0.202c0.213,0.286,0.636,0.853,1.274,1.711c2.971,3.988,4.332,6.96,3.544,9.317c-0.121,0.98-0.456,1.672-1.001,2.078
			c0.211,0.284,0.152,0.771-0.122,0.975c0.758-0.12,1.79-0.445,2.821-0.771c1.304-0.529,2.609-1.057,4.794-2.684
			C427.651,264.593,428.805,263.291,430.017,261.498z"/>
		<path fill="#F0CC51" d="M427.649,268.579l-0.486-0.082c-4.037,2.564-6.644,3.621-8.797,3.01c-0.273,0.202-0.273,0.202-0.82,0.608
			l0,0c2.608,2.931,4.76,3.544,6.125,2.525C425.16,272.649,426.162,270.573,427.649,268.579z"/>
		<path fill="#E2A616" d="M417.546,272.116L417.546,272.116L417.546,272.116z"/>
		<path fill="#E2A616" d="M411.386,275.818l-1.636-2.77c-0.091-1.261-0.032-1.747-0.181-2.523c-0.061,0.49-0.667,1.384-1.215,1.792
			c-0.517,2.155-0.821,4.599,0.393,6.795c1.155-1.3,1.974-1.91,2.852-3.008C411.598,276.104,411.598,276.104,411.386,275.818z"/>
		<path fill="#F0CC51" d="M409.569,270.525c-0.152-0.774,0.181-1.463,0.455-1.665c1.095-0.819,1.912-1.427,2.458-1.833
			c-1.06-1.425-2.667-2.443-5.094-2.852c-0.972-0.161-1.942-0.324-2.7-0.204c-1.427,1.507-3.065,2.725-4.765,4.435
			c-5.948,7.974-7.226,14.24-3.193,19.656c2.334,3.135,5.003,5.576,7.459,7.736c-1.394-4.723-1.057-9.406,1.765-14.165
			c1.091-0.812,1.699-1.706,2.793-2.521c-1.214-2.196-0.91-4.639-0.393-6.795C408.902,271.909,409.507,271.015,409.569,270.525z"/>
		<path fill="#F0CC51" d="M409.533,280.741c0,0,0,0-0.273,0.202c-2.671,5.538-2.916,11.479,0.235,17.988
			c1.882,0.817,3.55,1.345,5.764,1.47c-4.032-5.415-5.091-10.83-2.692-16.16c-0.912-0.651-1.336-1.221-2.183-2.359
			C410.17,281.596,409.957,281.31,409.533,280.741z"/>
		<path fill="#E2A616" d="M412.66,277.529c-0.88,1.096-1.762,2.194-3.127,3.212c0.424,0.569,0.637,0.855,0.851,1.141
			c0.847,1.139,1.271,1.708,2.183,2.359c0,0,0.271-0.202,0.059-0.486c0.669-1.386,1.277-2.28,2.643-3.299
			C414.145,279.523,413.296,278.384,412.66,277.529z"/>
		<path fill="#E2A616" d="M423.819,283.391c-0.275,0.204-0.546,0.406-1.029,0.325c-2.004,0.166-4.158-0.447-5.978-1.751
			c-0.819,0.612-1.152,1.302-1.761,2.198l0,0c-0.06,0.488-0.394,1.177-0.729,1.871c3.004,1.751,6.188,2.037,10.254,1.223
			C424.002,285.914,423.911,284.654,423.819,283.391L423.819,283.391z"/>
		<path fill="#F0CC51" d="M414.323,286.034c0.336-0.694,0.669-1.384,0.729-1.871c-2.335,4.843-1.701,9.682,2.331,15.098
			c0.637,0.855,1.332,1.221,1.545,1.506c1.731,0.043,2.76-0.284,4.551-0.728c2.274-0.368,4.399-1.504,7.008-2.561
			c-0.91-0.654-1.546-1.506-2.395-2.648c-2.122-2.849-3.275-5.535-3.515-7.573C420.51,288.071,417.326,287.785,414.323,286.034z"/>
		<path fill="#FFFFFF" d="M383.552,387.802c-1.426-2.482-3.336-5.048-5.032-7.325c-9.127-12.255-21.167-21.012-36.178-25.776
			c-1.67-0.533-3.336-1.059-5.279-1.388c3.852,2.892,7.58,6.763,10.339,10.467c2.122,2.849,3.547,5.331,4.364,8.709
			c3.187,0.284,8.826,2.729,16.986,6.844C374.877,381.858,379.698,384.914,383.552,387.802z"/>
		<path fill="#FFFFFF" d="M352.029,396.214c2.973,0.002,8.251,1.386,15.562,4.36c8.976,3.505,15.193,7.294,19.407,11.243
			c2.126-5.129,1.886-11.15-0.509-17.784c-4.728-5.783-11.643-9.936-20.619-13.442c-3.972-1.915-8.494-3.421-13.072-4.442
			C353.797,382.051,353.701,388.766,352.029,396.214z"/>
		<path fill="#FFFFFF" d="M350.785,400.243c-1.366,5.002-3.493,10.134-6.165,15.665c19.653,5.299,31.362,6.772,35.187,3.925
			c1.911-1.425,3.337-2.931,4.825-4.925C383.138,411.473,370,401.559,350.785,400.243z"/>
		<path fill="#FFFFFF" d="M339.445,225.323c1.485,1.994,2.657,3.569,2.676,5.942c10.683-10.17,13.569-19.408,7.626-27.387
			c-4.243-5.699-9.732-7.371-16.893-5.581c-3.853,1.096-7.28,2.766-10.282,5c-3.279,2.441-6.526,6.633-10.018,12.777
			c-4.553,8.705-5.073,14.851-1.466,19.694c5.941,7.979,12.404,9.814,19.929,5.098c-2.913-0.49-4.944-2.081-6.429-4.075
			c-2.971-3.988-2.909-8.487,1.25-12.003C329.994,221.269,335.837,220.477,339.445,225.323z"/>
		<path fill="#FFFFFF" d="M334.246,235.618c1.357-0.429,2.321-2.484,0.64-3.834c-1.68-1.35-4.467-0.179-4.118,1.604
			C331.117,235.173,332.887,236.047,334.246,235.618z"/>
		<path fill="#FFFFFF" d="M306.947,206.473c1.18-0.293,2.679-3.625,0.041-4.263c-2.218-0.538-3.527,1.459-3.168,2.505
			C304.481,206.641,305.769,206.768,306.947,206.473z"/>
		<path fill="#FFFFFF" d="M299.665,210.166c-0.699-0.365-0.91-0.651-1.548-1.506c-2.971-3.991-3.32-6.858-0.27-11.026
			c3.05-4.17,10.867-4.397,14.474,0.447c0.85,1.141,1.211,2.2,1.574,3.258c8.71-8.258,9.745-16.559,3.378-25.107
			c-2.76-3.707-6.915-4.154-12.769-2.897c-3.096,0.978-5.978,2.239-8.435,4.068c-2.731,2.035-5.644,5.531-8.134,9.603
			c-4.308,6.751-4.766,12.409-1.371,16.967C290.384,209.102,294.567,211.303,299.665,210.166z"/>
		<path fill="#F0CC51" d="M291.397,175.12c-0.484-0.082-1.243,0.041-2.002,0.163c-0.333,0.692-0.728,1.872-0.85,2.849
			c-0.82,0.608-1.151,1.298-1.974,1.91C288.819,177.927,290.519,176.221,291.397,175.12z"/>
		<path fill="#E2A616" d="M289.395,175.284c-1.183-0.449-2.637-0.692-4.368-0.733c-2.699-0.207-5.125-0.615-6.368-0.574
			c-0.606,0.892-1.003,2.076-1.122,3.051c-0.791,2.362-1.793,4.435-2.857,6.999c-0.182,1.463-0.849,2.847-1.306,4.517
			c1.85-0.935,4.065-0.81,7.252-0.526c0.604-0.894,1.333-2.768,2.216-3.866l3.73-4.109c0.822-0.613,1.154-1.302,1.974-1.91
			C288.666,177.155,289.061,175.975,289.395,175.284z"/>
		<path fill="#F0CC51" d="M278.173,173.895c-0.12,0.973-0.729,1.872-0.637,3.133c0.119-0.976,0.516-2.16,1.122-3.051
			C278.173,173.895,278.173,173.895,278.173,173.895z"/>
		<path fill="#E2A616" d="M278.251,199.086c0.337-0.69,0.184-1.466,0.033-2.239c-1.91,1.425-4.884,1.425-8.766,0.771
			c-2.399,5.329-5.072,10.865-8.166,15.826l0.212,0.284c4.338-5.002,8.83-9.231,12.928-12.282
			C276.13,200.225,277.224,199.41,278.251,199.086z"/>
		<path fill="#E2A616" d="M278.527,194.896c0.125-0.978,0.304-2.443,0.973-3.827c-0.758,0.122-1.518,0.243-2.001,0.163
			c-2.277,0.365-4.005,0.322-5.19-0.125c-0.726,1.869-1.395,3.256-2.062,4.637C273.976,195.624,276.738,195.343,278.527,194.896z"/>
		<path fill="#F0CC51" d="M241.536,231.301c1.424-1.502,2.366-3.09,3.58-4.878c-0.486-0.084-0.486-0.084-0.909-0.653
			c-3.488-1.833-6.217-3.789-8.34-6.638c-1.698-2.28-2.907-4.478-3.696-6.107c0.211,0.284,0.848,1.139,0.999,1.912
			c-1.64,1.223-3.493,2.162-4.795,2.686c-4.611,1.218-8.98,0.486-13.317-2.489c-0.332,0.69-0.183,1.465-0.728,1.871
			c-0.092,2.729-0.729,5.858-1.642,9.197c-0.125,8.952,1.478,17.95,4.873,26.498c1.91-1.425,3.824-2.849,6.009-4.474
			c3.55-2.645,8.799-6.999,15.112-13.916c1.698-1.706,2.853-3.01,4.004-4.31C242.141,230.407,242.08,230.897,241.536,231.301z"/>
		<path fill="#E2A616" d="M241.536,231.301c0.544-0.404,0.606-0.894,1.151-1.3c-1.151,1.3-2.306,2.604-4.004,4.31
			c-6.313,6.917-11.562,11.27-15.112,13.916c-2.185,1.624-4.098,3.049-6.009,4.474c-3.395-8.548-4.998-17.546-4.873-26.498
			c0.913-3.339,1.551-6.468,1.642-9.197l0.271-0.202c-0.119,0.973-0.667,1.384-1.001,2.074l-3.31,8.666l0,0
			c-2.247,10.093-1.282,18.235,2.962,23.934c0.637,0.855,1.273,1.71,2.122,2.85l0,0l2.03,1.586c0.698,0.37,1.182,0.451,1.881,0.814
			l0,0c0,0,0,0,0.213,0.286c0.82-0.608,1.913-1.425,2.73-2.033c1.366-1.016,5.161-5.613,11.656-13.995
			c0.271-0.202,0.818-0.608,1.155-1.302L241.536,231.301z"/>
		<path fill="#E2A616" d="M228.376,217.623c1.302-0.524,3.155-1.463,4.795-2.686c-0.151-0.774-0.788-1.629-0.999-1.912l-0.457-2.319
			c-0.424-0.569-0.637-0.855-0.361-1.059c-5.344,3.094-10.317,3.251-14.503,1.053c0,0,0,0-0.061,0.49
			c-0.272,0.204-0.06,0.488-0.332,0.69c-0.669,1.384-1.063,2.566-1.398,3.256C219.396,218.109,223.765,218.841,228.376,217.623z"/>
	</g>
</g>
</svg>
