<?xml version="1.0" encoding="utf-8"?>
<!-- Generator: Adobe Illustrator 17.0.0, SVG Export Plug-In . SVG Version: 6.00 Build 0)  -->
<!DOCTYPE svg PUBLIC "-//W3C//DTD SVG 1.1//EN" "http://www.w3.org/Graphics/SVG/1.1/DTD/svg11.dtd">
<svg version="1.1" id="Layer_1" xmlns="http://www.w3.org/2000/svg" xmlns:xlink="http://www.w3.org/1999/xlink" x="0px" y="0px"
	 width="800px" height="600px" viewBox="0 0 800 600" enable-background="new 0 0 800 600" xml:space="preserve">
<g>
	<path fill="#11090A" d="M499.999,167.939c-1.892-1.013-2.675-2.319-2.417-4.549c0.205-1.84-0.133-3.777-0.426-5.642
		c-0.667-4.212-0.889-8.548-0.063-12.6c0.622-2.976-0.498-4.016-2.497-5.064c-4.514-2.355-8.778-5.136-13.177-7.659
		c-8.121-4.665-15.79-9.969-22.604-16.305c-3.518-3.27-6.193-5.989-10.84-2.488c-0.106,0.089-0.285,0.054-0.418,0.098
		c-7.686,1.688-14.954,4.7-22.489,6.939c-7.499,2.204-14.785,5.163-22.32,7.223c-13.728,3.741-27.589,6.993-41.335,10.609
		c-4.096,1.094-8.299,1.439-12.421,2.239c-1.35,0.249-2.168,0.533-2.088,2.079c0.196,3.901,0.133,7.828,0.551,11.703
		c0.329,3.056,0.551,6.024,0.347,9.099c-0.116,1.848-0.675,2.657-2.239,3.092c-7.712,2.195-14.998,5.518-22.471,8.326
		c-7.072,2.639-14.136,5.34-21.307,7.686c-3.287,1.075-5.189,4.3-8.921,4.736c2.275,9.356,3.421,18.268,3.572,27.313
		c0.08,5.678-0.16,11.382,0.294,17.024c0.497,6.255,0.755,12.484,0.329,18.713c-0.516,7.544-0.844,15.096-1.359,22.631
		c-0.569,8.396-0.4,16.882,0.399,25.288c0.205,2.053,0.018,4.052-0.24,6.078c-0.461,3.598-1.155,7.268-0.879,10.822
		c0.435,5.517,0.56,11,0.418,16.517c-0.258,10.618-1.928,21.165-1.609,31.801c0.098,2.896-0.062,5.758-0.702,8.663
		c-0.915,4.247-1.191,8.61-1.075,12.999c0.169,5.687,0.054,11.373,0.035,17.06c0,1.449-0.116,2.87-0.347,4.327
		c-0.284,1.564-0.755,2.381-2.461,2.168c-4.309-0.507-8.281,0.088-12.563,1.581c-8.975,3.145-15.452,9.054-21.068,16.198
		c-2.603,3.296-4.371,7.223-4.549,11.542c-0.222,5.358-0.187,10.734,0.285,16.109c0.444,4.896,1.155,9.898,0.684,14.75
		c-0.72,7.295,0.746,14.483,0.08,21.769c-0.302,3.021,0.569,6.317,0.595,9.516c0.017,4.105,0.364,4.434,4.434,4.523
		c0.729,0.009,1.466,0.026,2.176-0.054c2.675-0.338,3.546-1.839,2.435-4.229c-0.737-1.6-1.902-2.612-3.767-2.266
		c-1.085,0.187-1.849-0.054-1.724-1.2c0.328-3.679-1.022-7.171-0.96-10.84c0.125-7.41,0.036-14.83,0-22.249
		c-0.008-1.297,0.107-2.674-0.222-3.919c-1.013-3.873-0.56-7.81-0.675-11.728c-0.062-2.275,0.889-3.074,3.101-3.057
		c5.358,0.009,10.725-0.097,16.092-0.204c2.319-0.044,4.62-0.347,6.93-0.311c3.003,0.054,3.501,0.515,3.563,3.581
		c0.071,3.332,0.222,6.61-0.56,9.969c-0.453,2.07-2.079,4.789,0.649,6.824c0.267,0.195,0.142,1.101,0.035,1.652
		c-2.017,10.325,0.257,20.898-1.741,31.232c-0.205,1.102,0.347,2.346,0.187,3.474c-0.382,2.373,1.013,2.764,2.79,2.675
		c3.332-0.151,6.673-0.64,10.005-0.569c4.185,0.08,8.628-2.23,12.555,1.173c0.328,0.276,1.146,0.169,1.67,0.045
		c3.527-0.826,7.188-0.498,10.689-1.644c1.609-0.524,3.421-0.097,5.136,0.489c2.043,0.693,4.193,1.529,6.388,0.818
		c3.981-1.316,8.05-0.596,12.076-0.462c1.288,0.054,2.568,0.097,3.873,0.062c3.945-0.124,7.775-1.013,11.64-1.51
		c1.547-0.196,3.412-1.075,4.638,0.177c1.244,1.297,2.266,0.863,3.501,0.409c1.652-0.596,3.429-1.014,5.135-0.684
		c5.696,1.093,11.826-1.6,17.246,1.973c0.373,0.248,1.111,0.017,1.661-0.08c4.78-0.844,9.579-0.675,14.35-0.063
		c2.63,0.347,5.154,0.409,7.784,0c5.864-0.879,11.693-1.563,17.637,0.294c2.968,0.933,6.38,1.235,9.49,0.906
		c6.735-0.711,13.47-0.738,20.223-0.56c5.091,0.133,10.173,0.151,15.274,0c5.242-0.16,10.422-0.907,15.665-1.004
		c14.545-0.276,29.037,0.63,43.547,1.68c9.17,0.675,18.322,2.737,27.678,1.173c3.945-0.64,5.198-1.182,5.224-5.234
		c0-2.763,0.293-5.677-0.462-8.254c-1.315-4.452-1.137-8.912-1.297-13.409c-0.159-4.54,0.924-9,0.853-13.506
		c-0.276-17.459,1.004-34.954-0.835-52.396c-1.689-16.172-1.333-32.458-2.497-48.673c-0.649-9.402-0.365-18.838-1.733-28.265
		c-1.919-13.247-0.968-26.709-2.62-40.037c-1.208-9.889-0.835-19.956-0.835-29.934c-0.018-11.613-1.378-23.164-1.04-34.768
		c0.311-11.054-0.622-22.133,0.48-33.178c0.125-1.386-0.088-2.444-1.51-3.261c-9.08-5.198-18.365-10.094-28.148-13.719
		C518.72,178.397,509.452,173.022,499.999,167.939z M453.929,120.865c0-1.066,0.08-2.239,0.995-2.737
		c1.075-0.578,1.919,0.524,2.621,1.128c4.922,4.318,9.996,8.414,15.496,11.96c5.109,3.305,10.28,6.53,15.576,9.524
		c2.799,1.573,4.478,3.119,4.984,6.771c0.747,5.393,0.223,10.68,0.684,16.527c-5.607-1.502-10.289-2.986-14.34-5.936
		c-5.474-3.971-11.809-6.095-18.02-8.556c-1.333-0.533-2.666-1.119-3.945-1.795c-0.479-0.239-1.191-0.808-1.173-1.164
		c0.471-4.558-3.306-8.059-2.95-12.652C454.177,129.608,453.946,125.227,453.929,120.865z M352.894,143.416
		c11.142-2.612,22.222-5.563,33.293-8.459c8.814-2.31,17.797-4.114,26.309-7.482c10.663-4.22,21.857-6.798,32.707-10.431
		c1.84-0.612,3.688-0.755,5.838-0.933c0.479,9.311-0.666,18.313,0.711,27.225c-1.057,0.888-1.99,0.364-2.825-0.151
		c-1.883-1.111-3.83-2.159-5.509-3.528c-4.256-3.483-8.885-2.834-13.532-1.307c-9.223,3.039-17.93,7.464-27.126,10.573
		c-15.514,5.216-30.575,11.88-46.728,15.195c-0.843,0.177-1.697,0.399-2.549,0.515c-1.262,0.169-1.795-0.418-1.929-1.706
		c-0.533-5.189-1.244-10.351-1.688-15.54C349.571,143.815,350.211,144.046,352.894,143.416z M308.76,477.556
		c-0.657,6.344-0.657,12.75-1.074,19.103c-0.196,3.101-0.32,3.084-3.306,3.207c-4.941,0.205-9.872,0.276-14.803,0.693
		c-2.204,0.177-2.861-0.453-2.799-2.559c0.356-10.272-0.862-20.632,1.911-30.752c0.737-2.72,0.8-5.491,0.631-8.22
		c-0.213-3.847,0.915-7.499,1.119-11.266c0.08-1.626,1.075-3.003,2.835-2.346c4.531,1.67,8.903-0.267,13.337-0.365
		c2.195-0.053,2.843,0.267,2.772,2.461c-0.142,3.928-0.045,7.855-0.045,11.773C309.756,465.401,309.392,471.478,308.76,477.556z
		 M282.789,437.394c-1.261,0.231-2.612,0.071-3.927,0.054c-6.842-0.054-13.666,0.053-20.436,1.377
		c-3.865,0.756-4.78-0.47-3.466-4.22c1.013-2.914,2.604-5.526,4.541-7.917c3.918-4.763,8.361-9.072,14.056-11.516
		c4.647-2.008,9.649-3.021,14.731-0.959c1.999,0.817,4.025,1.706,6.095,2.292c9.285,2.541,13.319,9.534,15.825,18.313
		C300.674,435.813,291.665,435.813,282.789,437.394z M374.583,432.295c1.35,2.452,0.444,3.403-2.337,2.976
		c-1.129-0.168-2.284-0.355-3.447-0.453c-0.943-0.08-1.822-0.399-2.097-1.279c-1.359-4.363-4.292-7.837-6.949-12.093
		c0.933,0,1.208,0.026,1.484-0.018C369.092,420.841,371.633,426.919,374.583,432.295z M373.348,422.716
		c6.681,2.444,10.199,7.819,14.34,13.159c-3.305,1.475-6.06,0.071-8.814-0.097c-0.64-0.035-1.022-0.595-0.995-1.236
		c0.248-4.255-2.399-7.303-4.389-10.617C373.375,423.729,373.427,423.409,373.348,422.716z M362.792,433.894
		c-2.124,0.489-3.839,0.017-5.536-0.116c-2.523-0.223-4.158-1.351-4.683-4.07c-0.559-2.888-2.318-5.269-3.882-7.677
		c-0.489-0.755-0.942-1.563-0.293-2.372c0.524-0.649,1.315-0.409,2.025-0.347c1.777,0.134,3.199,0.542,4.283,2.31
		c1.182,1.946,2.985,3.527,4.558,5.198C361.077,428.758,362.321,430.953,362.792,433.894z M349.616,431.388
		c0.097,0.293,0.097,0.604,0.053,0.871c-0.276,1.253-1.466,1.59-2.355,1.519c-2.07-0.134-5.411,1.608-6.006-0.311
		c-1.698-5.536-5.829-9.605-7.961-15.025c2.337-0.293,4.62-0.168,6.886,0.062c0.56,0.072,1.208,0.196,1.6,0.533
		C345.563,422.441,348.158,426.573,349.616,431.388z M336.412,431.024c0.355,1.146,0.373,2.275,0.204,3.581
		c-3.047,0.409-6.077,0.257-8.672,0.106c-1.831-6.184-4.736-11.56-7.704-17.38c1.857,0,3.546,0.035,5.225-0.008
		c1.244-0.035,2.398,0.382,3.127,1.288C331.676,422.449,334.982,426.146,336.412,431.024z M321.146,426.545
		c0.551,1.937,1.467,3.803,2.026,5.74c0.32,1.119-0.187,2.008-1.617,1.857c-0.134,0-0.285-0.018-0.436-0.045
		c-7.508-0.772-6.246,1.555-9.481-6.229c-2.701-6.468-7.179-11.222-13.772-13.861c-0.382-0.16-0.773-0.347-1.146-0.55
		c-0.116-0.063-0.142-0.231-0.542-0.898c0.835-0.08,1.43-0.293,1.946-0.16c5.553,1.44,11.444,1.751,16.367,5.367
		C317.663,420.086,320.072,422.716,321.146,426.545z M347.66,453.904c-0.347,3.056-0.515,6.095-0.489,9.143
		c0.026,3.927-0.285,7.818-0.844,11.702c-0.977,6.628-1.261,13.328-1.173,20.028c0.063,4.647-1.546,6.45-5.918,5.251
		c-1.822-0.507-3.75,0.267-5.5,0.773c-2.398,0.657-4.549,0.631-6.779-0.373c-2.514-1.137-5.011-1.066-7.632-0.196
		c-2.186,0.711-4.443,1.43-6.824,1.084c-1.671-0.248-2.524-0.968-1.44-2.594c1.182-1.742,0.853-3.626,0.862-5.492
		c0.097-7.561,0.187-15.087,0.915-22.631c0.657-6.77,0.56-13.656-0.578-20.454c-0.231-1.458-0.116-2.923,1.119-4.025
		c6.335,1.395,12.635,2.932,19.228,2.15c1.6-0.213,3.208-0.071,4.727,0.524c3.519,1.404,6.78,1.368,9.766-1.981
		C348.283,449.425,347.91,451.753,347.66,453.904z M364.746,477.832c1.378,5.624-0.231,11.195-0.097,16.801
		c0.08,3.714-0.08,3.759-3.643,4.372c-2.292,0.399-4.576,0.675-6.868,1.004c-0.026-0.054-0.026-0.098-0.026-0.16
		c-0.88,0-1.751-0.009-2.63,0c-1.91,0.035-2.905-0.631-2.737-2.834c0.436-6.354-0.23-12.742,0.391-19.104
		c0.853-8.342,1.635-16.695,1.6-25.092c0-0.692,0.364-1.386,0.427-2.115c0.133-1.475,0.817-2.105,2.292-1.697
		c2.932,0.809,5.856,1.617,8.787,2.443c0.542,0.169,0.915,0.382,1.137,1.066c1.849,5.776,2.488,14.35,1.529,20.988
		C364.711,474.926,364.418,476.481,364.746,477.832z M368.95,447.719c-4.185,0.951-8.397,0.097-12.937-2.079
		c5.508-1.964,10.769-2.942,16.02-3.679c5.207-0.738,10.342-2.675,16.509-1.057c-2.879,2.346-5.66,3.456-8.565,4.291
		C376.343,446.217,372.61,446.884,368.95,447.719z M387.102,477.148c0.444-0.356,1.155-0.294,1.51,0.293
		c0.347,0.569,0.16,1.341-0.365,1.475c-3.332,0.791-5.926,3.278-10.067,4.336C381.087,479.999,384.569,479.289,387.102,477.148z
		 M378.483,498.578c1.244-1.475,2.692-2.47,4.505-2.994C381.7,498.828,381.7,498.828,378.483,498.578z M388.142,488.814
		c-0.666-0.116-0.817-0.675-0.729-1.279c0.134-0.676,0.667-0.915,1.226-0.915c0.134,0,0.302,0.666,0.436,0.995
		C388.755,488.103,389.04,488.974,388.142,488.814z M443.693,500.649c-5.26,0.053-10.431-0.72-15.629-1.236
		c-4.229-0.409-8.361-0.088-12.483,0.462c-3.626,0.498-7.189,0.791-10.849,0.285c-3.173-0.436-6.318-0.134-9.516,0.23
		c-2.559,0.276-3.137-0.319-2.942-2.932c0.658-8.521,0.063-17.06-0.017-25.581c-0.054-3.999-0.951-8.121-0.924-12.085
		c0.018-6.041-0.746-12.395,2.728-18.011c1.378-2.247,1.12-3.216-1.244-5.02c-0.835-0.64-1.475-1.324-2.026-2.222
		c-3.101-5.153-7.508-9.25-11.603-13.559c-1.671-1.751-3.395-2.408-6.122-2.088c-5.331,0.595-10.644-0.772-15.896-1.751
		c-5.011-0.959-10.022-1.857-15.167-1.563c-5.126,0.293-9.96-1.892-15.043-1.964c-8.948-0.106-17.468-2.648-26.123-4.434
		c-1.671-0.338-3.421-0.364-5.278-0.55c-0.088-1.92,0.533-3.82-0.675-5.526c-0.364-0.507-0.319-1.475-0.142-2.133
		c1.546-6.051,0.498-12.191,0.8-18.268c0.133-3.181,0.097-6.344,0.746-9.525c0.764-3.669,1.128-7.454,0.933-11.258
		c-0.445-8.877,1.119-17.69,0.977-26.567c-0.009-1.165,0.009-2.346,0.196-3.483c0.649-4.043,0.621-8.006,0.097-12.102
		c-0.56-4.425-0.658-8.921,0.32-13.444c1.022-4.682,0.177-9.533,0.204-14.323c0.071-10.298-0.026-20.595,0.684-30.911
		c0.933-13.275,1.12-26.621-0.338-39.914c-0.328-2.825-0.399-5.73-0.276-8.592c0.302-6.611-0.799-13.035-2.07-19.459
		c-0.738-3.66-0.578-3.491,2.284-5.517c3.518-2.461,7.41-3.954,11.426-5.207c7.09-2.195,13.897-5.163,20.686-8.068
		c9.951-4.238,20.472-6.397,30.885-9.009c7.188-1.795,14.207-4.105,21.076-6.878c9.57-3.856,19.655-6.371,29.055-10.618
		c7.046-3.19,14.216-5.838,21.867-7.063c3.527-0.578,4.167-0.169,4.46,3.252c1.546,17.832,2.364,35.684,1.884,53.587
		c-0.143,5.518,0.489,11.036,0.746,16.554c0.399,8.13,0.631,16.268,1.208,24.399c0.666,9.001,0.738,18.011,0.835,27.029
		c0.035,5.385,0.205,10.778-0.054,16.135c-0.267,5.731,0.906,11.302,1.2,16.962c0.16,2.639-0.347,5.172-0.311,7.784
		c0.142,6.85,0.231,13.71,0.009,20.552c-0.445,14.385-0.64,28.779-1.6,43.164c-0.302,4.603,0.284,9.339,0.168,13.923
		c-0.187,6.833,0.116,13.657-0.346,20.472c-0.374,5.864,0.621,11.604,1.235,17.371c0.729,6.619,1.741,13.123,0.764,19.92
		c-0.773,5.42,0.053,11.045-0.16,16.571c-0.222,5.668,0.746,11.239,0.835,16.882c0.026,1.306,0.151,2.585,0.507,3.865
		c1.563,5.81,1.386,11.808,1.794,17.726C447.682,500.249,446.98,500.596,443.693,500.649z M554.617,201.97
		c0.924,9.259,0.134,18.553,0.755,26.416c0,5.767-0.142,10.129,0.035,14.466c0.595,14.981,1.182,29.962,0.889,44.96
		c-0.134,6.415,0.746,12.732,1.546,19.077c0.258,2.016,0.231,4.069,0.196,6.121c-0.205,10.627,1.004,21.13,2.39,31.677
		c0.88,6.868,1.031,13.87,0.959,20.818c-0.187,12.688,1.04,25.305,1.253,37.966c0.125,7.322,1.156,14.723,1.982,22.062
		c0.4,3.474-0.418,6.868-0.293,10.342c0.186,5.483,0.151,10.956,0.373,16.438c0.399,10.014-0.533,20.019-1.342,29.988
		c-0.31,3.856,0.702,7.508,1.182,11.239c1.395,10.493,0.542,10.219-8.583,10.698c-3.057,0.169-6.113,0.205-9.09-0.755
		c-0.808-0.257-1.732-0.347-2.594-0.293c-8.619,0.39-17.078-1.662-25.661-1.662c-12.937-0.026-25.856-0.755-38.803,0.462
		c-7.348,0.693-14.811,0.667-22.222-0.4c-1.981-0.293-4.38,0.355-5.935-0.551c-1.928-1.11-0.382-3.74-0.826-5.704
		c-1.004-4.683-0.276-9.552-1.2-14.315c-1.421-7.277-1.945-14.651-1.848-22.098c0.125-10.182,0.009-20.365,0.009-30.565
		c0-2.186-0.24-4.336-0.729-6.486c-1.635-7.313-1.306-14.768-1.27-22.178c0.035-10.041-0.169-20.081,0.338-30.113
		c0.498-9.596,0.222-19.237,0.951-28.78c1.075-14.11,0.373-28.193,0.56-42.285c0.106-8.512-1.208-17.06-1.253-25.616
		c-0.035-3.021,0.418-6.078,0.16-9.063c-0.844-10.182-0.134-20.392-0.738-30.557c-0.64-10.885-1.297-21.769-2.079-32.636
		c-0.125-1.795,0.328-3.457,0.32-5.207c-0.134-16.251-0.525-32.502-2.168-48.7c-0.036-0.427-0.169-0.871-0.178-1.297
		c-0.017-1.919,0.649-2.319,2.408-1.324c4.034,2.319,8.059,4.603,12.226,6.708c2.479,1.253,5.154,1.946,7.695,3.03
		c4.692,2,9.392,3.937,13.577,6.922c4.808,3.448,10.787,4.309,15.896,7.072c8.032,4.336,16.003,8.796,23.99,13.221
		c1.92,1.066,3.928,1.884,5.936,2.71c9.836,3.954,19.698,7.827,28.672,13.621C553.932,198.602,554.412,199.89,554.617,201.97z"/>
	<path fill="none" d="M445.674,479.191c-0.356-1.28-0.481-2.559-0.507-3.865c-0.089-5.643-1.057-11.214-0.835-16.882
		c0.213-5.526-0.613-11.151,0.16-16.571c0.977-6.798-0.035-13.301-0.764-19.92c-0.613-5.767-1.609-11.507-1.235-17.371
		c0.461-6.815,0.159-13.639,0.346-20.472c0.116-4.585-0.47-9.321-0.168-13.923c0.96-14.386,1.155-28.78,1.6-43.164
		c0.222-6.842,0.133-13.702-0.009-20.552c-0.035-2.612,0.471-5.145,0.311-7.784c-0.294-5.66-1.467-11.231-1.2-16.962
		c0.258-5.357,0.089-10.751,0.054-16.135c-0.097-9.018-0.169-18.028-0.835-27.029c-0.578-8.13-0.809-16.269-1.208-24.399
		c-0.257-5.518-0.889-11.036-0.746-16.554c0.48-17.903-0.338-35.755-1.884-53.587c-0.293-3.421-0.933-3.83-4.46-3.252
		c-7.65,1.226-14.821,3.873-21.867,7.063c-9.401,4.247-19.485,6.762-29.055,10.618c-6.868,2.772-13.888,5.082-21.076,6.878
		c-10.413,2.612-20.934,4.771-30.885,9.009c-6.788,2.905-13.595,5.873-20.686,8.068c-4.016,1.253-7.908,2.746-11.426,5.207
		c-2.861,2.026-3.022,1.857-2.284,5.517c1.271,6.424,2.372,12.848,2.07,19.459c-0.124,2.861-0.053,5.767,0.276,8.592
		c1.458,13.293,1.271,26.639,0.338,39.914c-0.711,10.316-0.613,20.614-0.684,30.911c-0.026,4.789,0.818,9.641-0.204,14.323
		c-0.978,4.523-0.88,9.019-0.32,13.444c0.524,4.096,0.551,8.059-0.097,12.102c-0.186,1.137-0.205,2.318-0.196,3.483
		c0.142,8.877-1.422,17.69-0.977,26.567c0.195,3.803-0.169,7.588-0.933,11.258c-0.649,3.181-0.613,6.344-0.746,9.525
		c-0.302,6.077,0.746,12.218-0.8,18.268c-0.177,0.658-0.222,1.626,0.142,2.133c1.208,1.706,0.587,3.607,0.675,5.526
		c1.857,0.186,3.608,0.213,5.278,0.55c8.654,1.786,17.175,4.327,26.123,4.434c5.082,0.072,9.917,2.257,15.043,1.964
		c5.145-0.294,10.156,0.604,15.167,1.563c5.252,0.978,10.565,2.346,15.896,1.751c2.728-0.319,4.452,0.338,6.122,2.088
		c4.095,4.309,8.503,8.405,11.603,13.559c0.551,0.898,1.191,1.582,2.026,2.222c2.364,1.803,2.621,2.772,1.244,5.02
		c-3.474,5.616-2.71,11.969-2.728,18.011c-0.026,3.963,0.871,8.086,0.924,12.085c0.08,8.521,0.675,17.06,0.017,25.581
		c-0.196,2.612,0.382,3.207,2.942,2.932c3.198-0.364,6.344-0.666,9.516-0.23c3.66,0.506,7.223,0.213,10.849-0.285
		c4.123-0.551,8.254-0.871,12.483-0.462c5.198,0.516,10.37,1.288,15.629,1.236c3.287-0.054,3.99-0.4,3.776-3.732
		C447.06,490.999,447.237,485.002,445.674,479.191z"/>
	<path fill="none" d="M517.494,181.071c-7.988-4.425-15.958-8.885-23.99-13.221c-5.109-2.763-11.088-3.625-15.896-7.072
		c-4.184-2.985-8.885-4.922-13.577-6.922c-2.54-1.084-5.215-1.777-7.695-3.03c-4.167-2.105-8.191-4.389-12.226-6.708
		c-1.76-0.995-2.426-0.595-2.408,1.324c0.009,0.427,0.143,0.871,0.178,1.297c1.643,16.198,2.034,32.449,2.168,48.7
		c0.008,1.751-0.445,3.412-0.32,5.207c0.782,10.866,1.439,21.751,2.079,32.636c0.604,10.165-0.106,20.374,0.738,30.557
		c0.258,2.985-0.196,6.042-0.16,9.063c0.045,8.556,1.359,17.104,1.253,25.616c-0.187,14.093,0.515,28.175-0.56,42.285
		c-0.729,9.543-0.453,19.183-0.951,28.78c-0.507,10.031-0.302,20.071-0.338,30.113c-0.035,7.41-0.365,14.865,1.27,22.178
		c0.489,2.15,0.729,4.3,0.729,6.486c0,10.199,0.116,20.383-0.009,30.565c-0.097,7.446,0.427,14.821,1.848,22.098
		c0.924,4.763,0.196,9.632,1.2,14.315c0.444,1.963-1.102,4.594,0.826,5.704c1.555,0.906,3.954,0.258,5.935,0.551
		c7.411,1.066,14.874,1.093,22.222,0.4c12.946-1.217,25.865-0.489,38.803-0.462c8.583,0,17.042,2.053,25.661,1.662
		c0.862-0.054,1.786,0.035,2.594,0.293c2.977,0.96,6.033,0.924,9.09,0.755c9.125-0.479,9.977-0.205,8.583-10.698
		c-0.479-3.731-1.492-7.383-1.182-11.239c0.809-9.969,1.741-19.974,1.342-29.988c-0.222-5.483-0.187-10.955-0.373-16.438
		c-0.125-3.474,0.693-6.868,0.293-10.342c-0.826-7.339-1.857-14.741-1.982-22.062c-0.213-12.662-1.439-25.278-1.253-37.966
		c0.072-6.948-0.079-13.951-0.959-20.818c-1.387-10.547-2.595-21.049-2.39-31.677c0.036-2.053,0.062-4.105-0.196-6.121
		c-0.8-6.344-1.68-12.662-1.546-19.077c0.293-14.998-0.294-29.979-0.889-44.96c-0.177-4.336-0.035-8.699-0.035-14.466
		c-0.621-7.863,0.169-17.157-0.755-26.416c-0.205-2.079-0.684-3.367-2.515-4.567c-8.974-5.794-18.837-9.667-28.672-13.621
		C521.422,182.955,519.414,182.137,517.494,181.071z"/>
	<path fill="none" d="M351.552,162.928c0.134,1.288,0.667,1.875,1.929,1.706c0.853-0.116,1.706-0.338,2.549-0.515
		c16.154-3.315,31.214-9.978,46.728-15.195c9.196-3.11,17.903-7.535,27.126-10.573c4.648-1.528,9.276-2.176,13.532,1.307
		c1.68,1.368,3.626,2.417,5.509,3.528c0.835,0.515,1.768,1.039,2.825,0.151c-1.377-8.912-0.231-17.913-0.711-27.225
		c-2.15,0.177-3.998,0.32-5.838,0.933c-10.849,3.634-22.044,6.211-32.707,10.431c-8.513,3.367-17.496,5.172-26.309,7.482
		c-11.071,2.896-22.151,5.847-33.293,8.459c-2.683,0.631-3.323,0.399-3.03,3.972C350.308,152.576,351.019,157.739,351.552,162.928z"
		/>
	<path fill="none" d="M337.335,448.794c-1.519-0.595-3.127-0.737-4.727-0.524c-6.593,0.782-12.893-0.755-19.228-2.15
		c-1.235,1.102-1.35,2.568-1.119,4.025c1.137,6.798,1.235,13.683,0.578,20.454c-0.729,7.544-0.818,15.07-0.915,22.631
		c-0.009,1.866,0.319,3.75-0.862,5.492c-1.084,1.626-0.23,2.346,1.44,2.594c2.381,0.347,4.638-0.373,6.824-1.084
		c2.62-0.871,5.118-0.942,7.632,0.196c2.23,1.004,4.381,1.03,6.779,0.373c1.751-0.507,3.679-1.28,5.5-0.773
		c4.372,1.199,5.981-0.604,5.918-5.251c-0.088-6.7,0.196-13.399,1.173-20.028c0.559-3.883,0.871-7.775,0.844-11.702
		c-0.026-3.048,0.142-6.087,0.489-9.143c0.249-2.151,0.622-4.478-0.559-7.09C344.116,450.162,340.855,450.198,337.335,448.794z"/>
	<path fill="none" d="M309.383,447.515c0.071-2.195-0.578-2.514-2.772-2.461c-4.434,0.098-8.805,2.034-13.337,0.365
		c-1.76-0.658-2.755,0.72-2.835,2.346c-0.204,3.767-1.332,7.419-1.119,11.266c0.169,2.729,0.106,5.5-0.631,8.22
		c-2.772,10.12-1.555,20.48-1.911,30.752c-0.062,2.105,0.595,2.736,2.799,2.559c4.931-0.418,9.863-0.489,14.803-0.693
		c2.985-0.124,3.11-0.106,3.306-3.207c0.418-6.353,0.418-12.76,1.074-19.103c0.631-6.078,0.995-12.156,0.578-18.268
		C309.338,455.369,309.241,451.442,309.383,447.515z"/>
	<path fill="none" d="M456.807,146.588c-0.018,0.356,0.693,0.924,1.173,1.164c1.279,0.676,2.612,1.262,3.945,1.795
		c6.211,2.461,12.546,4.585,18.02,8.556c4.052,2.95,8.734,4.434,14.34,5.936c-0.461-5.847,0.063-11.134-0.684-16.527
		c-0.506-3.652-2.185-5.198-4.984-6.771c-5.295-2.994-10.467-6.22-15.576-9.524c-5.5-3.546-10.573-7.642-15.496-11.96
		c-0.702-0.604-1.547-1.706-2.621-1.128c-0.915,0.498-0.995,1.67-0.995,2.737c0.017,4.362,0.248,8.743-0.071,13.07
		C453.502,138.529,457.279,142.029,456.807,146.588z"/>
	<path fill="none" d="M363.378,452.517c-0.222-0.684-0.595-0.897-1.137-1.066c-2.932-0.826-5.855-1.634-8.787-2.443
		c-1.475-0.409-2.159,0.222-2.292,1.697c-0.063,0.729-0.427,1.422-0.427,2.115c0.035,8.397-0.746,16.75-1.6,25.092
		c-0.621,6.363,0.045,12.751-0.391,19.104c-0.168,2.203,0.827,2.87,2.737,2.834c0.88-0.009,1.751,0,2.63,0
		c0,0.062,0,0.106,0.026,0.16c2.293-0.329,4.577-0.605,6.868-1.004c3.563-0.613,3.723-0.658,3.643-4.372
		c-0.134-5.607,1.475-11.178,0.097-16.801c-0.328-1.351-0.035-2.906,0.16-4.327C365.866,466.867,365.227,458.293,363.378,452.517z"
		/>
	<path fill="none" d="M294.384,416.505c-2.07-0.586-4.096-1.475-6.095-2.292c-5.082-2.062-10.085-1.049-14.731,0.959
		c-5.696,2.444-10.139,6.753-14.056,11.516c-1.937,2.39-3.527,5.002-4.541,7.917c-1.315,3.75-0.4,4.976,3.466,4.22
		c6.77-1.324,13.594-1.43,20.436-1.377c1.315,0.017,2.666,0.177,3.927-0.054c8.877-1.581,17.886-1.581,27.42-2.577
		C307.703,426.039,303.669,419.046,294.384,416.505z M298.72,431.175c-2.666,0.116-5.215,1.413-8.041,0.524
		c-3.296-1.022-6.566,0.56-9.845,0.889c-3.634,0.364-7.206,0.817-10.805,0.018c-2.746-0.613-5.447,0.551-8.938,0.461
		c2.044-4.212,4.007-7.57,7.65-9.889c3.225-2.07,6.886-3.012,10.253-4.674c2.791-1.386,6.007,0.267,8.895,1.04
		c4.922,1.279,8.663,4.54,11.808,8.45C300.87,429.442,300.497,431.077,298.72,431.175z"/>
	<path fill="none" d="M314.492,417.767c-4.922-3.617-10.814-3.927-16.367-5.367c-0.516-0.133-1.111,0.08-1.946,0.16
		c0.4,0.667,0.427,0.835,0.542,0.898c0.373,0.204,0.764,0.39,1.146,0.55c6.593,2.639,11.07,7.393,13.772,13.861
		c3.235,7.784,1.973,5.456,9.481,6.229c0.151,0.026,0.302,0.045,0.436,0.045c1.43,0.151,1.937-0.738,1.617-1.857
		c-0.56-1.937-1.475-3.803-2.026-5.74C320.072,422.716,317.663,420.086,314.492,417.767z"/>
	<path fill="none" d="M325.465,417.323c-1.68,0.044-3.368,0.008-5.225,0.008c2.968,5.82,5.873,11.196,7.704,17.38
		c2.595,0.151,5.625,0.302,8.672-0.106c0.169-1.307,0.151-2.435-0.204-3.581c-1.43-4.878-4.736-8.574-7.819-12.412
		C327.864,417.705,326.709,417.287,325.465,417.323z"/>
	<path fill="none" d="M340.232,418.504c-2.266-0.23-4.549-0.355-6.886-0.062c2.132,5.42,6.263,9.49,7.961,15.025
		c0.595,1.919,3.936,0.177,6.006,0.311c0.889,0.071,2.079-0.267,2.355-1.519c0.045-0.267,0.045-0.578-0.053-0.871
		c-1.458-4.816-4.052-8.948-7.784-12.351C341.441,418.7,340.792,418.576,340.232,418.504z"/>
	<path fill="none" d="M388.542,440.905c-6.167-1.618-11.302,0.319-16.509,1.057c-5.251,0.737-10.512,1.714-16.02,3.679
		c4.54,2.176,8.752,3.03,12.937,2.079c3.66-0.835,7.393-1.502,11.027-2.524C382.882,444.36,385.663,443.25,388.542,440.905z"/>
	<path fill="none" d="M354.706,421.623c-1.084-1.768-2.506-2.176-4.283-2.31c-0.711-0.062-1.501-0.302-2.025,0.347
		c-0.649,0.809-0.196,1.617,0.293,2.372c1.564,2.408,3.323,4.789,3.882,7.677c0.525,2.719,2.16,3.847,4.683,4.07
		c1.697,0.133,3.412,0.604,5.536,0.116c-0.471-2.942-1.715-5.136-3.527-7.073C357.692,425.15,355.888,423.569,354.706,421.623z"/>
	<path fill="none" d="M361.237,421.427c-0.276,0.045-0.551,0.018-1.484,0.018c2.657,4.256,5.589,7.73,6.949,12.093
		c0.276,0.88,1.155,1.199,2.097,1.279c1.164,0.098,2.318,0.285,3.447,0.453c2.781,0.427,3.687-0.524,2.337-2.976
		C371.633,426.919,369.092,420.841,361.237,421.427z"/>
	<path fill="none" d="M378.875,435.778c2.754,0.168,5.508,1.572,8.814,0.097c-4.141-5.34-7.659-10.715-14.34-13.159
		c0.079,0.693,0.026,1.014,0.142,1.209c1.99,3.314,4.638,6.362,4.389,10.617C377.853,435.182,378.235,435.742,378.875,435.778z"/>
	<path fill="none" d="M388.613,477.441c-0.356-0.587-1.066-0.649-1.51-0.293c-2.533,2.141-6.016,2.852-8.921,6.104
		c4.141-1.058,6.735-3.546,10.067-4.336C388.773,478.782,388.96,478.009,388.613,477.441z"/>
	<path fill="none" d="M378.483,498.578c3.216,0.249,3.216,0.249,4.505-2.994C381.176,496.108,379.727,497.104,378.483,498.578z"/>
	<path fill="none" d="M388.639,486.619c-0.56,0-1.093,0.239-1.226,0.915c-0.088,0.604,0.063,1.164,0.729,1.279
		c0.898,0.16,0.613-0.711,0.934-1.199C388.941,487.285,388.773,486.619,388.639,486.619z"/>
	<path fill="#11090A" d="M287.889,419.544c-2.888-0.773-6.104-2.426-8.895-1.04c-3.367,1.662-7.028,2.604-10.253,4.674
		c-3.643,2.319-5.607,5.677-7.65,9.889c3.491,0.089,6.192-1.075,8.938-0.461c3.598,0.799,7.171,0.346,10.805-0.018
		c3.278-0.328,6.548-1.911,9.845-0.889c2.826,0.889,5.375-0.409,8.041-0.524c1.777-0.097,2.15-1.732,0.977-3.181
		C296.552,424.084,292.812,420.823,287.889,419.544z M294.518,427.692c-0.328,1.208-1.199,0.889-2.079,0.649
		c-3.225-0.924-6.255,0.587-9.41,0.791c-5.314,0.391-10.618,0.924-16.838,1.493c1.6-2.826,3.021-4.283,4.958-5.367
		c2.826-1.537,5.909-2.355,8.832-3.607c1.795-0.756,3.367,0.071,5.02,0.461c3.012,0.684,5.758,1.911,8.379,3.457
		C294.189,426.039,294.801,426.688,294.518,427.692z"/>
	<g>
		<path fill="#11090A" d="M422.501,191.059c0.32-3.323,0.729-6.628,0.55-9.978c0-2.176,0.107-4.371-0.035-6.513
			c-0.151-2.195-1.119-2.781-3.145-1.893c-4.238,1.848-8.414,3.847-12.448,6.184c-3.083,1.786-5.74,4.389-9.65,4.762
			c-1.857,0.169-2.825,1.529-2.195,3.848c0.604,2.204,0.231,4.549,0.026,6.895c-0.497,5.269-2.275,10.555-0.4,15.94
			c0.817,2.31,1.111,4.78,0.968,7.269c-0.106,1.937,0.773,2.683,2.72,1.981c0.951-0.355,1.883-0.631,2.808-1.102
			c2.674-1.368,5.304-2.976,8.53-2.861c1.181,0.045,2.239-0.622,3.172-1.324c2.275-1.68,4.825-2.559,7.579-3.057
			c2.825-0.489,2.781-0.906,2.497-4.096C423.008,201.757,421.994,196.417,422.501,191.059z M406.25,212.819
			c-1.609,0.96-3.324,1.751-5.198,2.079c-1.458,0.276-1.582-1.039-1.92-1.892c-1.324-3.457-1.43-7.072-1.225-10.441
			c-0.373-4.638,0.826-8.894,0.826-13.247c0-0.969,0.489-1.581,1.137-2.221c1.004-0.978,2.407-1.689,3.518-1.351
			c1.244,0.4,1.519,2.044,1.43,3.367c-0.186,2.871-0.684,5.74-0.763,8.619c-0.116,4.807-0.223,9.658,2.505,13.985
			C406.819,212.108,406.614,212.606,406.25,212.819z M410.479,182.085c-0.507,0.8-0.871,1.821-1.972,1.937
			c-0.231,0.035-0.72-0.56-0.764-0.88c-0.187-1.59,1.226-1.626,2.177-2.114c0.107-0.063,0.258-0.009,0.772-0.009
			C410.586,181.578,410.621,181.898,410.479,182.085z"/>
		<path fill="#11090A" d="M340.001,199.57c0.373-1.679-1.182-2.71-2.843-2.115c-1.617,0.56-3.216,1.395-4.611,2.399
			c-2.763,1.99-5.802,3.19-9.117,3.865c-2.266,0.462-4.478,1.217-6.699,1.875c-3.794,1.146-4.052,1.581-3.66,5.402
			c0.648,6.184,0.906,12.378,0.799,18.872c-0.177,2.746-0.239,5.785-0.612,8.761c-0.151,1.404-0.356,2.621,0.986,3.457
			c1.324,0.826,2.141-0.479,3.101-0.951c5.847-2.817,11.382-6.353,17.841-7.784c1.066-0.248,1.689-0.914,2.257-1.839
			c1.226-1.999,2.167-3.901,1.901-6.424c-0.302-2.87-0.319-5.838,0.374-8.681C341.032,210.81,338.731,205.195,340.001,199.57z
			 M320.027,233.219c-0.045,1.652,0.071,3.332-2.861,3.314c0.684-8.441-0.906-16.482-0.631-24.585
			c0.018-0.826-0.293-2.008,0.782-2.204c1.217-0.231,1.778,0.889,1.929,1.902c0.444,2.701,1.244,5.438,1.039,8.103
			C319.973,224.254,320.124,228.75,320.027,233.219z M326.398,213.654c-0.089,0.097-0.16,0.205-0.24,0.32
			c-0.293,0.302-0.649,0.55-1.128,0.515c-0.142-0.196-0.427-0.427-0.382-0.595c0.106-0.658,0.684-0.827,1.236-0.924
			C326.424,212.854,326.674,213.236,326.398,213.654z"/>
		<path fill="#11090A" d="M379.461,188.491c-0.319-2.186-0.959-2.55-3.172-1.84c-7.001,2.293-13.577,5.696-20.481,8.246
			c-1.298,0.489-2.239,1.421-2.168,2.967c0.329,6.389-0.782,12.689-1.208,19.032c-0.302,4.363,0.249,8.645,1.022,12.84
			c1.085,0.364,2.053,0.168,2.701-0.311c6.362-4.719,13.47-7.686,21.253-8.966c2.293-0.364,3.057-1.395,3.022-3.722
			C380.296,207.319,380.829,197.873,379.461,188.491z M361.326,220.931c-0.018,1.652-3.279,3.811-4.718,3.11
			c-0.844-0.382-0.702-1.208-0.702-1.902c-0.018-3.634-0.16-7.277,0.044-10.911c0.178-3.039,0.729-6.042,0.533-9.099
			c-0.08-1.066,0.24-1.954,0.863-2.834c0.701-0.986,1.447-2.053,2.736-1.777c1.564,0.355,1.004,1.865,1.022,2.905
			c0.08,3.358,0.036,6.708,0.036,10.049c0.062,0,0.106,0,0.186,0C361.326,213.974,361.326,217.439,361.326,220.931z
			 M370.931,215.191c-0.364,0.4-0.755,0.835-1.377,0.605c-0.285-0.116-0.329-0.418-0.125-0.693c0.435-0.551,0.915-1.031,1.688-0.986
			c0.116,0,0.231,0.106,0.462,0.231C371.358,214.631,371.162,214.942,370.931,215.191z M374.085,218.239
			c-0.133,0-0.382-0.418-0.338-0.515c0.32-0.684,0.844-1.12,1.644-1.022c0.151,0.008,0.239,0.418,0.346,0.631
			C375.498,218.203,374.779,218.265,374.085,218.239z"/>
		<path fill="none" d="M404.056,197.731c0.079-2.879,0.577-5.748,0.763-8.619c0.089-1.324-0.186-2.967-1.43-3.367
			c-1.111-0.338-2.515,0.373-3.518,1.351c-0.649,0.64-1.137,1.252-1.137,2.221c0,4.354-1.199,8.61-0.826,13.247
			c-0.205,3.368-0.098,6.984,1.225,10.441c0.338,0.853,0.462,2.168,1.92,1.892c1.874-0.328,3.589-1.119,5.198-2.079
			c0.364-0.213,0.569-0.711,0.31-1.102C403.833,207.389,403.94,202.538,404.056,197.731z"/>
		<path fill="none" d="M409.92,181.027c-0.951,0.489-2.364,0.524-2.177,2.114c0.044,0.319,0.533,0.915,0.764,0.88
			c1.102-0.116,1.466-1.137,1.972-1.937c0.142-0.187,0.106-0.507,0.213-1.066C410.177,181.018,410.026,180.965,409.92,181.027z"/>
		<path fill="none" d="M317.317,209.744c-1.075,0.196-0.763,1.378-0.782,2.204c-0.276,8.103,1.315,16.145,0.631,24.585
			c2.932,0.018,2.817-1.661,2.861-3.314c0.097-4.469-0.054-8.966,0.258-13.47c0.205-2.665-0.595-5.402-1.039-8.103
			C319.095,210.633,318.534,209.513,317.317,209.744z"/>
		<path fill="none" d="M325.883,212.97c-0.551,0.097-1.129,0.267-1.236,0.924c-0.045,0.168,0.24,0.399,0.382,0.595
			c0.479,0.026,0.835-0.213,1.128-0.515c0.08-0.116,0.151-0.223,0.24-0.32C326.674,213.236,326.424,212.854,325.883,212.97z"/>
		<path fill="#11090A" d="M324.647,213.894c-0.045,0.168,0.24,0.399,0.382,0.595c0.479,0.035,0.835-0.213,1.128-0.515
			c-0.293,0.302-0.649,0.541-1.128,0.515C324.888,214.293,324.603,214.062,324.647,213.894z"/>
		<path fill="none" d="M361.103,200.424c-0.017-1.04,0.542-2.55-1.022-2.905c-1.288-0.276-2.034,0.791-2.736,1.777
			c-0.622,0.88-0.943,1.768-0.863,2.834c0.196,3.056-0.355,6.06-0.533,9.099c-0.204,3.634-0.062,7.277-0.044,10.911
			c0,0.693-0.143,1.519,0.702,1.902c1.439,0.702,4.7-1.458,4.718-3.11c0-3.492,0-6.957,0-10.458c-0.08,0-0.125,0-0.186,0
			C361.14,207.132,361.183,203.782,361.103,200.424z"/>
		<path fill="none" d="M369.429,215.102c-0.205,0.276-0.16,0.578,0.125,0.693c0.621,0.23,1.013-0.205,1.377-0.605
			c0.231-0.248,0.427-0.56,0.649-0.843c-0.231-0.125-0.347-0.231-0.462-0.231C370.345,214.071,369.864,214.551,369.429,215.102z"/>
		<path fill="none" d="M375.392,216.702c-0.8-0.098-1.324,0.338-1.644,1.022c-0.045,0.097,0.205,0.515,0.338,0.515
			c0.693,0.026,1.413-0.035,1.652-0.906C375.631,217.119,375.543,216.71,375.392,216.702z"/>
	</g>
	<g>
		<path fill="#11090A" d="M422.501,241.421c0.32-3.341,0.729-6.629,0.55-9.978c0-2.186,0.107-4.372-0.035-6.531
			c-0.151-2.185-1.119-2.781-3.145-1.892c-4.238,1.866-8.414,3.865-12.448,6.193c-3.083,1.777-5.74,4.389-9.65,4.753
			c-1.857,0.187-2.825,1.538-2.195,3.856c0.604,2.186,0.231,4.541,0.026,6.878c-0.497,5.287-2.275,10.564-0.4,15.958
			c0.817,2.31,1.111,4.771,0.968,7.277c-0.106,1.928,0.773,2.683,2.72,1.963c0.951-0.346,1.883-0.621,2.808-1.093
			c2.674-1.377,5.304-2.967,8.53-2.87c1.181,0.045,2.239-0.613,3.172-1.315c2.275-1.68,4.825-2.569,7.579-3.057
			c2.825-0.489,2.781-0.897,2.497-4.114C423.008,252.118,421.994,246.761,422.501,241.421z M406.25,263.163
			c-1.609,0.969-3.324,1.751-5.198,2.079c-1.458,0.276-1.582-1.031-1.92-1.893c-1.324-3.447-1.43-7.064-1.225-10.449
			c-0.373-4.612,0.826-8.876,0.826-13.23c0-0.96,0.489-1.59,1.137-2.23c1.004-0.978,2.407-1.689,3.518-1.342
			c1.244,0.391,1.519,2.044,1.43,3.358c-0.186,2.888-0.684,5.74-0.763,8.628c-0.116,4.807-0.223,9.649,2.505,13.976
			C406.819,262.452,406.614,262.958,406.25,263.163z M410.479,232.438c-0.507,0.791-0.871,1.821-1.972,1.928
			c-0.231,0.044-0.72-0.542-0.764-0.889c-0.187-1.581,1.226-1.617,2.177-2.105c0.107-0.054,0.258-0.009,0.772-0.009
			C410.586,231.913,410.621,232.233,410.479,232.438z"/>
		<path fill="#11090A" d="M340.001,249.915c0.373-1.68-1.182-2.72-2.843-2.124c-1.617,0.586-3.216,1.412-4.611,2.398
			c-2.763,2.008-5.802,3.208-9.117,3.883c-2.266,0.462-4.478,1.208-6.699,1.866c-3.794,1.155-4.052,1.59-3.66,5.42
			c0.648,6.166,0.906,12.377,0.799,18.854c-0.177,2.746-0.239,5.785-0.612,8.77c-0.151,1.395-0.356,2.621,0.986,3.457
			c1.324,0.826,2.141-0.498,3.101-0.942c5.847-2.826,11.382-6.38,17.841-7.802c1.066-0.239,1.689-0.914,2.257-1.839
			c1.226-1.982,2.167-3.891,1.901-6.424c-0.302-2.87-0.319-5.829,0.374-8.672C341.032,261.173,338.731,255.548,340.001,249.915z
			 M320.027,283.563c-0.045,1.652,0.071,3.341-2.861,3.315c0.684-8.433-0.906-16.465-0.631-24.586
			c0.018-0.809-0.293-2.008,0.782-2.213c1.217-0.213,1.778,0.906,1.929,1.929c0.444,2.683,1.244,5.428,1.039,8.103
			C319.973,274.607,320.124,279.085,320.027,283.563z M326.398,263.989c-0.089,0.116-0.16,0.222-0.24,0.329
			c-0.293,0.31-0.649,0.55-1.128,0.524c-0.142-0.205-0.427-0.436-0.382-0.613c0.106-0.649,0.684-0.809,1.236-0.924
			C326.424,263.207,326.674,263.58,326.398,263.989z"/>
		<path fill="#11090A" d="M379.461,238.844c-0.319-2.186-0.959-2.569-3.172-1.849c-7.001,2.302-13.577,5.687-20.481,8.255
			c-1.298,0.489-2.239,1.412-2.168,2.959c0.329,6.388-0.782,12.697-1.208,19.031c-0.302,4.355,0.249,8.655,1.022,12.849
			c1.085,0.346,2.053,0.159,2.701-0.311c6.362-4.7,13.47-7.686,21.253-8.966c2.293-0.373,3.057-1.395,3.022-3.731
			C380.296,257.663,380.829,248.236,379.461,238.844z M361.326,271.266c-0.018,1.661-3.279,3.83-4.718,3.119
			c-0.844-0.382-0.702-1.199-0.702-1.883c-0.018-3.634-0.16-7.286,0.044-10.911c0.178-3.039,0.729-6.042,0.533-9.108
			c-0.08-1.066,0.24-1.973,0.863-2.834c0.701-0.995,1.447-2.062,2.736-1.769c1.564,0.356,1.004,1.866,1.022,2.906
			c0.08,3.34,0.036,6.69,0.036,10.031c0.062,0,0.106,0,0.186,0C361.326,264.309,361.326,267.801,361.326,271.266z M370.931,265.544
			c-0.364,0.391-0.755,0.835-1.377,0.604c-0.285-0.124-0.329-0.418-0.125-0.692c0.435-0.551,0.915-1.031,1.688-0.995
			c0.116,0,0.231,0.116,0.462,0.231C371.358,264.993,371.162,265.286,370.931,265.544z M374.085,268.592
			c-0.133-0.009-0.382-0.418-0.338-0.516c0.32-0.684,0.844-1.128,1.644-1.022c0.151,0.009,0.239,0.4,0.346,0.631
			C375.498,268.547,374.779,268.618,374.085,268.592z"/>
		<path fill="none" d="M404.056,248.085c0.079-2.888,0.577-5.74,0.763-8.628c0.089-1.315-0.186-2.967-1.43-3.358
			c-1.111-0.347-2.515,0.364-3.518,1.342c-0.649,0.64-1.137,1.27-1.137,2.23c0,4.354-1.199,8.618-0.826,13.23
			c-0.205,3.385-0.098,7.001,1.225,10.449c0.338,0.862,0.462,2.168,1.92,1.893c1.874-0.328,3.589-1.11,5.198-2.079
			c0.364-0.205,0.569-0.711,0.31-1.102C403.833,257.734,403.94,252.891,404.056,248.085z"/>
		<path fill="none" d="M409.92,231.371c-0.951,0.489-2.364,0.524-2.177,2.105c0.044,0.347,0.533,0.933,0.764,0.889
			c1.102-0.107,1.466-1.137,1.972-1.928c0.142-0.205,0.106-0.525,0.213-1.075C410.177,231.362,410.026,231.318,409.92,231.371z"/>
		<path fill="none" d="M317.317,260.079c-1.075,0.205-0.763,1.404-0.782,2.213c-0.276,8.121,1.315,16.154,0.631,24.586
			c2.932,0.026,2.817-1.662,2.861-3.315c0.097-4.478-0.054-8.957,0.258-13.452c0.205-2.675-0.595-5.42-1.039-8.103
			C319.095,260.985,318.534,259.866,317.317,260.079z"/>
		<path fill="none" d="M325.883,263.305c-0.551,0.116-1.129,0.276-1.236,0.924c-0.045,0.177,0.24,0.408,0.382,0.613
			c0.479,0.026,0.835-0.214,1.128-0.524c0.08-0.107,0.151-0.214,0.24-0.329C326.674,263.58,326.424,263.207,325.883,263.305z"/>
		<path fill="#11090A" d="M324.647,264.229c-0.045,0.177,0.24,0.408,0.382,0.613c0.479,0.026,0.835-0.214,1.128-0.524
			c-0.293,0.31-0.649,0.55-1.128,0.524C324.888,264.637,324.603,264.406,324.647,264.229z"/>
		<path fill="none" d="M361.103,250.786c-0.017-1.04,0.542-2.55-1.022-2.906c-1.288-0.293-2.034,0.773-2.736,1.769
			c-0.622,0.862-0.943,1.768-0.863,2.834c0.196,3.065-0.355,6.069-0.533,9.108c-0.204,3.625-0.062,7.277-0.044,10.911
			c0,0.684-0.143,1.501,0.702,1.883c1.439,0.711,4.7-1.458,4.718-3.119c0-3.465,0-6.957,0-10.449c-0.08,0-0.125,0-0.186,0
			C361.14,257.476,361.183,254.126,361.103,250.786z"/>
		<path fill="none" d="M369.429,265.456c-0.205,0.275-0.16,0.569,0.125,0.692c0.621,0.231,1.013-0.213,1.377-0.604
			c0.231-0.257,0.427-0.55,0.649-0.853c-0.231-0.116-0.347-0.231-0.462-0.231C370.345,264.425,369.864,264.904,369.429,265.456z"/>
		<path fill="none" d="M375.392,267.054c-0.8-0.106-1.324,0.338-1.644,1.022c-0.045,0.098,0.205,0.507,0.338,0.516
			c0.693,0.026,1.413-0.045,1.652-0.906C375.631,267.454,375.543,267.063,375.392,267.054z"/>
	</g>
	<g>
		<path fill="#11090A" d="M422.501,291.756c0.32-3.324,0.729-6.628,0.55-9.969c0-2.186,0.107-4.372-0.035-6.522
			c-0.151-2.204-1.119-2.772-3.145-1.892c-4.238,1.848-8.414,3.856-12.448,6.184c-3.083,1.786-5.74,4.398-9.65,4.771
			c-1.857,0.16-2.825,1.519-2.195,3.839c0.604,2.203,0.231,4.549,0.026,6.886c-0.497,5.286-2.275,10.564-0.4,15.949
			c0.817,2.319,1.111,4.78,0.968,7.277c-0.106,1.92,0.773,2.683,2.72,1.973c0.951-0.355,1.883-0.622,2.808-1.093
			c2.674-1.368,5.304-2.976,8.53-2.87c1.181,0.045,2.239-0.613,3.172-1.324c2.275-1.68,4.825-2.55,7.579-3.057
			c2.825-0.489,2.781-0.906,2.497-4.096C423.008,302.462,421.994,297.122,422.501,291.756z M406.25,313.516
			c-1.609,0.968-3.324,1.751-5.198,2.079c-1.458,0.276-1.582-1.031-1.92-1.892c-1.324-3.457-1.43-7.073-1.225-10.441
			c-0.373-4.629,0.826-8.894,0.826-13.238c0-0.969,0.489-1.591,1.137-2.231c1.004-0.977,2.407-1.679,3.518-1.35
			c1.244,0.399,1.519,2.044,1.43,3.367c-0.186,2.87-0.684,5.749-0.763,8.619c-0.116,4.816-0.223,9.658,2.505,13.985
			C406.819,312.813,406.614,313.302,406.25,313.516z M410.479,282.782c-0.507,0.808-0.871,1.822-1.972,1.936
			c-0.231,0.036-0.72-0.559-0.764-0.879c-0.187-1.582,1.226-1.626,2.177-2.115c0.107-0.062,0.258-0.008,0.772-0.008
			C410.586,282.275,410.621,282.586,410.479,282.782z"/>
		<path fill="#11090A" d="M340.001,300.267c0.373-1.679-1.182-2.719-2.843-2.114c-1.617,0.56-3.216,1.404-4.611,2.399
			c-2.763,1.999-5.802,3.198-9.117,3.865c-2.266,0.462-4.478,1.226-6.699,1.874c-3.794,1.156-4.052,1.582-3.66,5.403
			c0.648,6.193,0.906,12.377,0.799,18.872c-0.177,2.746-0.239,5.785-0.612,8.77c-0.151,1.395-0.356,2.621,0.986,3.457
			c1.324,0.826,2.141-0.49,3.101-0.96c5.847-2.817,11.382-6.353,17.841-7.784c1.066-0.239,1.689-0.915,2.257-1.839
			c1.226-1.991,2.167-3.901,1.901-6.424c-0.302-2.87-0.319-5.819,0.374-8.681C341.032,311.508,338.731,305.892,340.001,300.267z
			 M320.027,333.917c-0.045,1.652,0.071,3.341-2.861,3.314c0.684-8.432-0.906-16.482-0.631-24.585
			c0.018-0.818-0.293-2.008,0.782-2.213c1.217-0.213,1.778,0.906,1.929,1.92c0.444,2.692,1.244,5.437,1.039,8.103
			C319.973,324.951,320.124,329.447,320.027,333.917z M326.398,314.351c-0.089,0.106-0.16,0.213-0.24,0.319
			c-0.293,0.311-0.649,0.551-1.128,0.525c-0.142-0.205-0.427-0.436-0.382-0.605c0.106-0.657,0.684-0.826,1.236-0.933
			C326.424,313.551,326.674,313.933,326.398,314.351z"/>
		<path fill="#11090A" d="M379.461,289.196c-0.319-2.195-0.959-2.559-3.172-1.839c-7.001,2.284-13.577,5.687-20.481,8.245
			c-1.298,0.48-2.239,1.422-2.168,2.959c0.329,6.389-0.782,12.697-1.208,19.032c-0.302,4.363,0.249,8.645,1.022,12.857
			c1.085,0.347,2.053,0.142,2.701-0.319c6.362-4.728,13.47-7.686,21.253-8.975c2.293-0.364,3.057-1.386,3.022-3.723
			C380.296,308.016,380.829,298.571,379.461,289.196z M361.326,321.628c-0.018,1.652-3.279,3.82-4.718,3.119
			c-0.844-0.391-0.702-1.209-0.702-1.911c-0.018-3.625-0.16-7.277,0.044-10.911c0.178-3.022,0.729-6.042,0.533-9.089
			c-0.08-1.066,0.24-1.964,0.863-2.843c0.701-0.986,1.447-2.044,2.736-1.769c1.564,0.347,1.004,1.857,1.022,2.914
			c0.08,3.35,0.036,6.691,0.036,10.032c0.062,0,0.106,0,0.186,0C361.326,314.67,361.326,318.136,361.326,321.628z M370.931,315.897
			c-0.364,0.391-0.755,0.844-1.377,0.604c-0.285-0.125-0.329-0.418-0.125-0.693c0.435-0.55,0.915-1.039,1.688-0.994
			c0.116,0,0.231,0.116,0.462,0.231C371.358,315.328,371.162,315.63,370.931,315.897z M374.085,318.945
			c-0.133,0-0.382-0.418-0.338-0.525c0.32-0.675,0.844-1.128,1.644-1.022c0.151,0.018,0.239,0.418,0.346,0.631
			C375.498,318.9,374.779,318.953,374.085,318.945z"/>
		<path fill="none" d="M404.056,298.429c0.079-2.87,0.577-5.749,0.763-8.619c0.089-1.324-0.186-2.968-1.43-3.367
			c-1.111-0.328-2.515,0.373-3.518,1.35c-0.649,0.64-1.137,1.262-1.137,2.231c0,4.345-1.199,8.609-0.826,13.238
			c-0.205,3.367-0.098,6.984,1.225,10.441c0.338,0.862,0.462,2.168,1.92,1.892c1.874-0.328,3.589-1.111,5.198-2.079
			c0.364-0.214,0.569-0.702,0.31-1.102C403.833,308.087,403.94,303.244,404.056,298.429z"/>
		<path fill="none" d="M409.92,281.724c-0.951,0.49-2.364,0.533-2.177,2.115c0.044,0.319,0.533,0.915,0.764,0.879
			c1.102-0.115,1.466-1.128,1.972-1.936c0.142-0.196,0.106-0.507,0.213-1.066C410.177,281.715,410.026,281.662,409.92,281.724z"/>
		<path fill="none" d="M317.317,310.432c-1.075,0.205-0.763,1.395-0.782,2.213c-0.276,8.103,1.315,16.154,0.631,24.585
			c2.932,0.027,2.817-1.661,2.861-3.314c0.097-4.469-0.054-8.966,0.258-13.461c0.205-2.666-0.595-5.411-1.039-8.103
			C319.095,311.339,318.534,310.219,317.317,310.432z"/>
		<path fill="none" d="M325.883,313.658c-0.551,0.106-1.129,0.276-1.236,0.933c-0.045,0.169,0.24,0.4,0.382,0.605
			c0.479,0.017,0.835-0.214,1.128-0.525c0.08-0.106,0.151-0.213,0.24-0.319C326.674,313.933,326.424,313.551,325.883,313.658z"/>
		<path fill="#11090A" d="M324.647,314.59c-0.045,0.169,0.24,0.4,0.382,0.605c0.479,0.026,0.835-0.214,1.128-0.525
			c-0.293,0.311-0.649,0.542-1.128,0.525C324.888,314.991,324.603,314.76,324.647,314.59z"/>
		<path fill="none" d="M361.103,301.138c-0.017-1.057,0.542-2.568-1.022-2.914c-1.288-0.276-2.034,0.782-2.736,1.769
			c-0.622,0.879-0.943,1.777-0.863,2.843c0.196,3.047-0.355,6.068-0.533,9.089c-0.204,3.634-0.062,7.286-0.044,10.911
			c0,0.701-0.143,1.519,0.702,1.911c1.439,0.702,4.7-1.467,4.718-3.119c0-3.492,0-6.958,0-10.458c-0.08,0-0.125,0-0.186,0
			C361.14,307.829,361.183,304.488,361.103,301.138z"/>
		<path fill="none" d="M369.429,315.808c-0.205,0.276-0.16,0.569,0.125,0.693c0.621,0.24,1.013-0.213,1.377-0.604
			c0.231-0.267,0.427-0.569,0.649-0.853c-0.231-0.116-0.347-0.231-0.462-0.231C370.345,314.769,369.864,315.257,369.429,315.808z"/>
		<path fill="none" d="M375.392,317.398c-0.8-0.106-1.324,0.347-1.644,1.022c-0.045,0.107,0.205,0.525,0.338,0.525
			c0.693,0.008,1.413-0.045,1.652-0.915C375.631,317.816,375.543,317.416,375.392,317.398z"/>
	</g>
	<g>
		<path fill="#11090A" d="M422.501,342.117c0.32-3.332,0.729-6.637,0.55-9.978c0-2.186,0.107-4.363-0.035-6.531
			c-0.151-2.186-1.119-2.781-3.145-1.892c-4.238,1.866-8.414,3.865-12.448,6.192c-3.083,1.786-5.74,4.39-9.65,4.754
			c-1.857,0.187-2.825,1.546-2.195,3.856c0.604,2.195,0.231,4.549,0.026,6.887c-0.497,5.277-2.275,10.555-0.4,15.949
			c0.817,2.31,1.111,4.78,0.968,7.268c-0.106,1.937,0.773,2.692,2.72,1.973c0.951-0.347,1.883-0.621,2.808-1.093
			c2.674-1.378,5.304-2.959,8.53-2.861c1.181,0.044,2.239-0.622,3.172-1.325c2.275-1.679,4.825-2.568,7.579-3.047
			c2.825-0.498,2.781-0.915,2.497-4.114C423.008,352.824,421.994,347.458,422.501,342.117z M406.25,363.869
			c-1.609,0.968-3.324,1.741-5.198,2.079c-1.458,0.276-1.582-1.04-1.92-1.893c-1.324-3.447-1.43-7.073-1.225-10.45
			c-0.373-4.62,0.826-8.885,0.826-13.238c0-0.96,0.489-1.582,1.137-2.222c1.004-0.977,2.407-1.697,3.518-1.341
			c1.244,0.381,1.519,2.034,1.43,3.349c-0.186,2.888-0.684,5.74-0.763,8.628c-0.116,4.807-0.223,9.658,2.505,13.985
			C406.819,363.149,406.614,363.655,406.25,363.869z M410.479,333.134c-0.507,0.791-0.871,1.822-1.972,1.928
			c-0.231,0.036-0.72-0.541-0.764-0.879c-0.187-1.59,1.226-1.618,2.177-2.115c0.107-0.044,0.258-0.008,0.772-0.008
			C410.586,332.619,410.621,332.939,410.479,333.134z"/>
		<path fill="#11090A" d="M340.001,350.621c0.373-1.688-1.182-2.719-2.843-2.124c-1.617,0.578-3.216,1.404-4.611,2.399
			c-2.763,1.999-5.802,3.198-9.117,3.874c-2.266,0.461-4.478,1.208-6.699,1.883c-3.794,1.146-4.052,1.572-3.66,5.402
			c0.648,6.184,0.906,12.378,0.799,18.855c-0.177,2.754-0.239,5.785-0.612,8.787c-0.151,1.387-0.356,2.604,0.986,3.447
			c1.324,0.818,2.141-0.497,3.101-0.951c5.847-2.816,11.382-6.379,17.841-7.792c1.066-0.248,1.689-0.924,2.257-1.848
			c1.226-1.982,2.167-3.892,1.901-6.415c-0.302-2.87-0.319-5.829,0.374-8.672C341.032,361.869,338.731,356.245,340.001,350.621z
			 M320.027,384.27c-0.045,1.652,0.071,3.332-2.861,3.314c0.684-8.432-0.906-16.473-0.631-24.585
			c0.018-0.818-0.293-2.017,0.782-2.213c1.217-0.222,1.778,0.897,1.929,1.919c0.444,2.692,1.244,5.429,1.039,8.104
			C319.973,375.295,320.124,379.782,320.027,384.27z M326.398,364.695c-0.089,0.106-0.16,0.213-0.24,0.328
			c-0.293,0.302-0.649,0.551-1.128,0.516c-0.142-0.196-0.427-0.427-0.382-0.604c0.106-0.649,0.684-0.818,1.236-0.924
			C326.424,363.904,326.674,364.287,326.398,364.695z"/>
		<path fill="#11090A" d="M379.461,339.54c-0.319-2.185-0.959-2.559-3.172-1.848c-7.001,2.301-13.577,5.705-20.481,8.272
			c-1.298,0.47-2.239,1.395-2.168,2.95c0.329,6.38-0.782,12.697-1.208,19.023c-0.302,4.363,0.249,8.655,1.022,12.848
			c1.085,0.356,2.053,0.169,2.701-0.31c6.362-4.7,13.47-7.695,21.253-8.957c2.293-0.373,3.057-1.404,3.022-3.732
			C380.296,358.36,380.829,348.933,379.461,339.54z M361.326,371.981c-0.018,1.652-3.279,3.811-4.718,3.118
			c-0.844-0.399-0.702-1.216-0.702-1.901c-0.018-3.643-0.16-7.286,0.044-10.912c0.178-3.038,0.729-6.041,0.533-9.099
			c-0.08-1.075,0.24-1.973,0.863-2.843c0.701-0.994,1.447-2.061,2.736-1.777c1.564,0.365,1.004,1.875,1.022,2.914
			c0.08,3.341,0.036,6.691,0.036,10.041c0.062,0,0.106,0,0.186,0C361.326,365.014,361.326,368.498,361.326,371.981z
			 M370.931,366.241c-0.364,0.4-0.755,0.835-1.377,0.604c-0.285-0.116-0.329-0.418-0.125-0.693c0.435-0.55,0.915-1.03,1.688-0.986
			c0.116,0,0.231,0.107,0.462,0.231C371.358,365.681,371.162,365.993,370.931,366.241z M374.085,369.289
			c-0.133-0.009-0.382-0.418-0.338-0.516c0.32-0.666,0.844-1.119,1.644-1.022c0.151,0.009,0.239,0.409,0.346,0.64
			C375.498,369.254,374.779,369.315,374.085,369.289z"/>
		<path fill="none" d="M404.056,348.782c0.079-2.888,0.577-5.74,0.763-8.628c0.089-1.315-0.186-2.968-1.43-3.349
			c-1.111-0.356-2.515,0.364-3.518,1.341c-0.649,0.64-1.137,1.262-1.137,2.222c0,4.354-1.199,8.618-0.826,13.238
			c-0.205,3.376-0.098,7.002,1.225,10.45c0.338,0.853,0.462,2.168,1.92,1.893c1.874-0.338,3.589-1.111,5.198-2.079
			c0.364-0.214,0.569-0.72,0.31-1.102C403.833,358.44,403.94,353.589,404.056,348.782z"/>
		<path fill="none" d="M409.92,332.068c-0.951,0.498-2.364,0.525-2.177,2.115c0.044,0.338,0.533,0.915,0.764,0.879
			c1.102-0.106,1.466-1.137,1.972-1.928c0.142-0.195,0.106-0.515,0.213-1.075C410.177,332.06,410.026,332.024,409.92,332.068z"/>
		<path fill="none" d="M317.317,360.785c-1.075,0.196-0.763,1.395-0.782,2.213c-0.276,8.112,1.315,16.153,0.631,24.585
			c2.932,0.018,2.817-1.661,2.861-3.314c0.097-4.487-0.054-8.975,0.258-13.461c0.205-2.675-0.595-5.412-1.039-8.104
			C319.095,361.683,318.534,360.563,317.317,360.785z"/>
		<path fill="none" d="M325.883,364.011c-0.551,0.106-1.129,0.276-1.236,0.924c-0.045,0.177,0.24,0.409,0.382,0.604
			c0.479,0.035,0.835-0.214,1.128-0.516c0.08-0.116,0.151-0.222,0.24-0.328C326.674,364.287,326.424,363.904,325.883,364.011z"/>
		<path fill="#11090A" d="M324.647,364.935c-0.045,0.177,0.24,0.409,0.382,0.604c0.479,0.035,0.835-0.214,1.128-0.516
			c-0.293,0.302-0.649,0.551-1.128,0.516C324.888,365.344,324.603,365.113,324.647,364.935z"/>
		<path fill="none" d="M361.103,351.482c-0.017-1.039,0.542-2.549-1.022-2.914c-1.288-0.284-2.034,0.783-2.736,1.777
			c-0.622,0.871-0.943,1.769-0.863,2.843c0.196,3.057-0.355,6.061-0.533,9.099c-0.204,3.626-0.062,7.269-0.044,10.912
			c0,0.684-0.143,1.501,0.702,1.901c1.439,0.693,4.7-1.466,4.718-3.118c0-3.483,0-6.967,0-10.458c-0.08,0-0.125,0-0.186,0
			C361.14,358.173,361.183,354.823,361.103,351.482z"/>
		<path fill="none" d="M369.429,366.152c-0.205,0.276-0.16,0.578,0.125,0.693c0.621,0.231,1.013-0.204,1.377-0.604
			c0.231-0.248,0.427-0.559,0.649-0.844c-0.231-0.124-0.347-0.231-0.462-0.231C370.345,365.122,369.864,365.601,369.429,366.152z"/>
		<path fill="none" d="M375.392,367.751c-0.8-0.097-1.324,0.356-1.644,1.022c-0.045,0.098,0.205,0.507,0.338,0.516
			c0.693,0.026,1.413-0.035,1.652-0.898C375.631,368.16,375.543,367.76,375.392,367.751z"/>
	</g>
	<g>
		<path fill="#11090A" d="M424.66,443.525c0.32-3.323,0.738-6.628,0.55-9.977c0-2.177,0.107-4.363-0.026-6.522
			c-0.151-2.186-1.128-2.782-3.136-1.893c-4.247,1.857-8.423,3.856-12.466,6.184c-3.065,1.794-5.74,4.397-9.632,4.762
			c-1.857,0.187-2.826,1.529-2.195,3.847c0.586,2.204,0.222,4.558,0,6.887c-0.48,5.278-2.239,10.564-0.373,15.958
			c0.817,2.301,1.093,4.78,0.959,7.268c-0.106,1.928,0.782,2.683,2.719,1.972c0.951-0.356,1.884-0.622,2.808-1.093
			c2.675-1.378,5.314-2.977,8.539-2.861c1.173,0.035,2.23-0.621,3.173-1.332c2.266-1.68,4.807-2.559,7.579-3.048
			c2.825-0.498,2.763-0.906,2.488-4.114C425.175,454.241,424.172,448.874,424.66,443.525z M408.427,465.268
			c-1.617,0.968-3.341,1.76-5.206,2.088c-1.449,0.284-1.582-1.04-1.902-1.892c-1.333-3.457-1.439-7.064-1.236-10.441
			c-0.382-4.629,0.826-8.885,0.826-13.239c0-0.968,0.498-1.581,1.146-2.221c0.986-0.995,2.399-1.697,3.501-1.359
			c1.235,0.399,1.519,2.044,1.421,3.367c-0.187,2.879-0.675,5.74-0.763,8.627c-0.107,4.799-0.205,9.659,2.514,13.986
			C408.978,464.565,408.783,465.063,408.427,465.268z M412.657,434.542c-0.516,0.8-0.88,1.821-1.982,1.937
			c-0.231,0.035-0.711-0.55-0.755-0.879c-0.196-1.591,1.226-1.627,2.168-2.115c0.106-0.053,0.267-0.008,0.763-0.008
			C412.763,434.036,412.789,434.355,412.657,434.542z"/>
		<path fill="none" d="M406.215,450.198c0.088-2.887,0.577-5.748,0.763-8.627c0.098-1.324-0.187-2.968-1.421-3.367
			c-1.102-0.338-2.515,0.364-3.501,1.359c-0.649,0.64-1.146,1.253-1.146,2.221c0,4.355-1.208,8.61-0.826,13.239
			c-0.204,3.376-0.097,6.984,1.236,10.441c0.319,0.852,0.453,2.176,1.902,1.892c1.865-0.328,3.589-1.12,5.206-2.088
			c0.356-0.205,0.551-0.702,0.302-1.084C406.01,459.857,406.108,454.996,406.215,450.198z"/>
		<path fill="none" d="M412.088,433.485c-0.943,0.489-2.364,0.524-2.168,2.115c0.045,0.328,0.524,0.914,0.755,0.879
			c1.102-0.116,1.466-1.137,1.982-1.937c0.133-0.187,0.106-0.506,0.195-1.065C412.355,433.477,412.194,433.432,412.088,433.485z"/>
	</g>
	<g>
		<path fill="#11090A" d="M422.501,392.461c0.32-3.332,0.729-6.628,0.55-9.977c0-2.177,0.107-4.372-0.035-6.522
			c-0.151-2.195-1.119-2.772-3.145-1.893c-4.238,1.848-8.414,3.856-12.448,6.192c-3.083,1.777-5.74,4.389-9.65,4.763
			c-1.857,0.168-2.825,1.528-2.195,3.847c0.604,2.195,0.231,4.54,0.026,6.878c-0.497,5.286-2.275,10.573-0.4,15.958
			c0.817,2.31,1.111,4.78,0.968,7.277c-0.106,1.919,0.773,2.674,2.72,1.973c0.951-0.365,1.883-0.631,2.808-1.102
			c2.674-1.368,5.304-2.977,8.53-2.862c1.181,0.035,2.239-0.621,3.172-1.324c2.275-1.688,4.825-2.568,7.579-3.047
			c2.825-0.498,2.781-0.915,2.497-4.114C423.008,403.168,421.994,397.819,422.501,392.461z M406.25,414.213
			c-1.609,0.968-3.324,1.751-5.198,2.079c-1.458,0.276-1.582-1.022-1.92-1.892c-1.324-3.456-1.43-7.064-1.225-10.45
			c-0.373-4.62,0.826-8.885,0.826-13.23c0-0.959,0.489-1.59,1.137-2.221c1.004-0.986,2.407-1.689,3.518-1.359
			c1.244,0.399,1.519,2.053,1.43,3.367c-0.186,2.879-0.684,5.749-0.763,8.636c-0.116,4.799-0.223,9.641,2.505,13.968
			C406.819,413.511,406.614,414.008,406.25,414.213z M410.479,383.478c-0.507,0.809-0.871,1.822-1.972,1.946
			c-0.231,0.026-0.72-0.56-0.764-0.889c-0.187-1.581,1.226-1.626,2.177-2.105c0.107-0.071,0.258-0.009,0.772-0.009
			C410.586,382.972,410.621,383.292,410.479,383.478z"/>
		<path fill="#11090A" d="M316.518,412.738c-0.035-0.702-0.035-1.448,0.799-1.609c1.217-0.213,1.778,0.906,1.929,1.928
			c0,0.009,0,0.045,0.026,0.054c6.913,0.923,13.861,1.679,20.703,3.101c0.649-5.064-1.12-10.156,0.026-15.238
			c0.373-1.689-1.182-2.719-2.843-2.115c-1.617,0.56-3.216,1.395-4.611,2.39c-2.763,1.999-5.802,3.198-9.117,3.873
			c-2.266,0.471-4.478,1.217-6.699,1.866c-3.732,1.137-4.052,1.582-3.688,5.233C314.208,412.4,315.362,412.578,316.518,412.738z"/>
		<path fill="#11090A" d="M379.461,389.903c-0.319-2.185-0.959-2.568-3.172-1.848c-7.001,2.283-13.577,5.677-20.481,8.245
			c-1.298,0.489-2.239,1.422-2.168,2.959c0.311,5.785-0.569,11.498-1.057,17.237c1.093,0.089,2.195,0.231,3.27,0.382
			c0-1.421,0.026-2.834,0.097-4.247c0.178-3.03,0.729-6.041,0.533-9.089c-0.08-1.075,0.24-1.973,0.863-2.843
			c0.701-0.995,1.447-2.053,2.736-1.777c1.564,0.356,1.004,1.857,1.022,2.914c0.08,3.35,0.036,6.691,0.036,10.032h0.186
			c0,2.052,0,4.087,0,6.121c5.607,1.475,9.977,1.031,12.608,0.818c0.328-0.498,0.8-0.792,1.458-0.702
			c0.151,0.009,0.239,0.418,0.346,0.622c-0.079,0.275-0.035,0.053-0.177,0.195c1.2,0.525,2.923,1.236,3.777,2.231
			c1.439-0.516,1.119-1.102,1.093-3.022C380.296,408.722,380.829,399.277,379.461,389.903z M370.931,416.594
			c-0.364,0.399-0.755,0.844-1.377,0.604c-0.285-0.125-0.329-0.418-0.125-0.693c0.435-0.55,0.915-1.022,1.688-0.986
			c0.116,0,0.231,0.107,0.462,0.231C371.358,416.035,371.162,416.328,370.931,416.594z"/>
		<path fill="none" d="M404.056,399.143c0.079-2.888,0.577-5.758,0.763-8.636c0.089-1.315-0.186-2.968-1.43-3.367
			c-1.111-0.329-2.515,0.373-3.518,1.359c-0.649,0.631-1.137,1.262-1.137,2.221c0,4.345-1.199,8.61-0.826,13.23
			c-0.205,3.386-0.098,6.993,1.225,10.45c0.338,0.871,0.462,2.168,1.92,1.892c1.874-0.328,3.589-1.111,5.198-2.079
			c0.364-0.205,0.569-0.702,0.31-1.102C403.833,408.784,403.94,403.942,404.056,399.143z"/>
		<path fill="none" d="M409.92,382.43c-0.951,0.479-2.364,0.524-2.177,2.105c0.044,0.329,0.533,0.915,0.764,0.889
			c1.102-0.125,1.466-1.137,1.972-1.946c0.142-0.187,0.106-0.506,0.213-1.057C410.177,382.421,410.026,382.359,409.92,382.43z"/>
		<path fill="none" d="M355.844,417.021c0.08,0,0.151,0,0.222,0.026c1.671,0.373,3.412,0.311,5.038,0.942c0.063,0,0.134,0,0.223,0
			c0-2.034,0-4.07,0-6.121h-0.186c0-3.341,0.044-6.682-0.036-10.032c-0.017-1.057,0.542-2.559-1.022-2.914
			c-1.288-0.276-2.034,0.782-2.736,1.777c-0.622,0.871-0.943,1.769-0.863,2.843c0.196,3.048-0.355,6.06-0.533,9.089
			C355.879,414.098,355.853,415.546,355.844,417.021z"/>
		<path fill="none" d="M369.429,416.505c-0.205,0.276-0.16,0.569,0.125,0.693c0.621,0.24,1.013-0.205,1.377-0.604
			c0.231-0.267,0.427-0.56,0.649-0.844c-0.231-0.125-0.347-0.231-0.462-0.231C370.345,415.483,369.864,415.955,369.429,416.505z"/>
	</g>
	<g>
		<path fill="#11090A" d="M492.349,220.575c0.079-0.444,0.106-0.942,0.106-1.537c-0.009-6.06,2.372-12.066,0.267-18.171
			c-0.285-0.843,0.213-1.973,0.302-2.976c0.373-4.034,1.386-7.979,1.412-12.076c0.009-2.079-0.888-3.163-2.629-4.007
			c-3.732-1.795-7.659-3.136-11.48-4.762c-3.439-1.475-6.673-3.51-10.441-4.247c-2.079-0.418-3.235-0.436-3.82,0.222
			c0.071,8.476,0.542,16.953,0.737,25.42c0.107,4.771,0.667,9.534,1.04,14.287c0.328,0.143,0.684,0.294,1.048,0.436
			c2.23,0.817,4.426,1.751,6.585,2.719C481.171,217.155,486.662,219.322,492.349,220.575z M486.6,212.88
			c0.88-5.428-0.444-10.937,0.738-16.34c0.728-3.234,1.235-6.539,1.803-9.8c0.125-0.782,0.382-1.43,1.253-1.475
			c1.235-0.045,1.297,0.906,1.342,1.777c0.142,3.065-1.014,5.962-1.368,8.965c-0.214,1.742-0.738,3.581-0.222,5.145
			c1.635,4.993-0.302,9.755-0.507,14.616c-0.026,0.8-0.329,1.68-1.43,2.177C486.777,216.568,486.324,214.622,486.6,212.88z
			 M485.809,186.509c0.791,1.831-0.844,3.11-0.64,4.798C484.716,189.584,484.512,187.922,485.809,186.509z"/>
		<path fill="#11090A" d="M539.716,229.487c-1.324-6.921-0.356-13.923-1.529-20.8c-0.31-1.839-0.284-3.803,0.792-5.509
			c1.235-1.973,0.035-2.896-1.547-3.687c-4.406-2.213-8.965-4.185-13.159-6.717c-0.763-0.142-1.546-0.293-2.292-0.516
			c-2.862-0.817-5.518-2.132-8.281-3.216c-0.124,11.515-0.826,23.013-1.492,34.52c1.235,0.621,2.39,1.368,3.509,2.159
			c5.003,1.359,10.262,1.759,15.176,3.447c1.564,0.524,3.083,1.119,4.594,1.715c0.382-5.19-0.507-10.308-1.351-15.417
			c-0.684-4.096-0.506-8.183,0.507-12.27c0.782,5.411,2.053,10.778,1.706,16.234c-0.258,4.149,0.142,8.192,1.066,12.199
			c0.844,0.347,1.706,0.658,2.568,0.96C539.974,231.531,539.912,230.501,539.716,229.487z M518.383,194.524
			c-0.214,0.489-0.764,1.137-1.279,0.808c-1.368-0.853-0.809-2.15-0.542-3.412C517.814,192.391,519.155,192.746,518.383,194.524z
			 M526.93,226.386c-0.657-0.017-0.951-0.453-0.888-1.075c0.017-0.23,0.213-0.675,0.319-0.657c0.64,0.026,0.924,0.444,0.889,1.155
			C527.17,225.969,527.045,226.386,526.93,226.386z M529.782,213.29c-0.658-0.693-0.373-1.458-0.24-2.213
			C530.466,211.726,530.155,212.498,529.782,213.29z"/>
		<path fill="none" d="M491.736,187.042c-0.045-0.871-0.106-1.822-1.342-1.777c-0.871,0.045-1.128,0.693-1.253,1.475
			c-0.569,3.261-1.075,6.566-1.803,9.8c-1.182,5.403,0.142,10.912-0.738,16.34c-0.276,1.741,0.177,3.688,1.609,5.065
			c1.102-0.498,1.404-1.378,1.43-2.177c0.205-4.86,2.142-9.623,0.507-14.616c-0.516-1.564,0.008-3.403,0.222-5.145
			C490.722,193.005,491.878,190.108,491.736,187.042z"/>
		<path fill="none" d="M485.169,191.307c-0.205-1.688,1.43-2.967,0.64-4.798C484.512,187.922,484.716,189.584,485.169,191.307z"/>
		<path fill="none" d="M535.327,232.686c-0.106,0.701-0.063,1.466,0.097,2.159c0.063,0.24,0.178,0.409,0.302,0.55
			c0.445,0.116,0.871,0.223,1.316,0.32c0.035,0,0.062,0,0.106,0c0.64-0.133,0.897-0.693,0.871-1.307
			c-0.018-0.426-0.142-0.853-0.249-1.27c-1.164-4.496-1.723-9.037-1.421-13.71c0.347-5.455-0.924-10.823-1.706-16.234
			c-1.013,4.087-1.191,8.174-0.507,12.27C535.069,221.171,536.091,226.875,535.327,232.686z"/>
		<path fill="none" d="M516.561,191.92c-0.267,1.262-0.826,2.559,0.542,3.412c0.515,0.329,1.065-0.319,1.279-0.808
			C519.155,192.746,517.814,192.391,516.561,191.92z"/>
		<path fill="none" d="M529.809,232.988c0.143,0.248,0.889,0.462,1.146,0.338c1.448-0.826,1.031-2.105,0.613-3.82
			C530.476,230.811,528.938,231.362,529.809,232.988z"/>
		<path fill="none" d="M526.93,226.386c0.116,0,0.24-0.418,0.32-0.578c0.036-0.711-0.249-1.128-0.889-1.155
			c-0.106-0.018-0.302,0.427-0.319,0.657C525.979,225.933,526.273,226.369,526.93,226.386z"/>
		<path fill="none" d="M529.542,211.077c-0.133,0.755-0.418,1.519,0.24,2.213C530.155,212.498,530.466,211.726,529.542,211.077z"/>
	</g>
	<g>
		<path fill="#11090A" d="M492.349,269.703c0.079-0.427,0.106-0.934,0.106-1.529c-0.009-6.06,2.372-12.076,0.267-18.171
			c-0.285-0.853,0.213-1.982,0.302-2.976c0.373-4.034,1.386-7.979,1.412-12.085c0.009-2.079-0.888-3.154-2.629-3.998
			c-3.732-1.804-7.659-3.136-11.48-4.762c-3.439-1.476-6.673-3.51-10.441-4.247c-2.079-0.427-3.235-0.445-3.82,0.23
			c0.071,8.468,0.542,16.945,0.737,25.412c0.107,4.771,0.667,9.534,1.04,14.288c0.328,0.151,0.684,0.285,1.048,0.427
			c2.23,0.826,4.426,1.751,6.585,2.737C481.171,266.282,486.662,268.458,492.349,269.703z M486.6,262.016
			c0.88-5.437-0.444-10.928,0.738-16.34c0.728-3.243,1.235-6.539,1.803-9.809c0.125-0.773,0.382-1.43,1.253-1.458
			c1.235-0.062,1.297,0.898,1.342,1.769c0.142,3.074-1.014,5.953-1.368,8.974c-0.214,1.732-0.738,3.563-0.222,5.127
			c1.635,5.002-0.302,9.756-0.507,14.625c-0.026,0.791-0.329,1.68-1.43,2.177C486.777,265.695,486.324,263.758,486.6,262.016z
			 M485.809,235.636c0.791,1.84-0.844,3.11-0.64,4.807C484.716,238.719,484.512,237.049,485.809,235.636z"/>
		<path fill="#11090A" d="M539.716,278.623c-1.324-6.912-0.356-13.914-1.529-20.8c-0.31-1.84-0.284-3.803,0.792-5.518
			c1.235-1.963,0.035-2.879-1.547-3.687c-4.406-2.204-8.965-4.167-13.159-6.718c-0.763-0.142-1.546-0.293-2.292-0.515
			c-2.862-0.818-5.518-2.133-8.281-3.217c-0.124,11.516-0.826,23.013-1.492,34.52c1.235,0.631,2.39,1.377,3.509,2.159
			c5.003,1.368,10.262,1.759,15.176,3.447c1.564,0.533,3.083,1.119,4.594,1.715c0.382-5.181-0.507-10.307-1.351-15.407
			c-0.684-4.105-0.506-8.183,0.507-12.27c0.782,5.411,2.053,10.769,1.706,16.225c-0.258,4.158,0.142,8.2,1.066,12.217
			c0.844,0.328,1.706,0.648,2.568,0.942C539.974,280.658,539.912,279.627,539.716,278.623z M518.383,243.651
			c-0.214,0.489-0.764,1.137-1.279,0.817c-1.368-0.844-0.809-2.159-0.542-3.421C517.814,241.518,519.155,241.874,518.383,243.651z
			 M526.93,275.522c-0.657-0.009-0.951-0.444-0.888-1.075c0.017-0.239,0.213-0.675,0.319-0.666c0.64,0.026,0.924,0.453,0.889,1.156
			C527.17,275.105,527.045,275.522,526.93,275.522z M529.782,262.426c-0.658-0.693-0.373-1.448-0.24-2.222
			C530.466,260.862,530.155,261.626,529.782,262.426z"/>
		<path fill="none" d="M491.736,236.178c-0.045-0.871-0.106-1.831-1.342-1.769c-0.871,0.027-1.128,0.684-1.253,1.458
			c-0.569,3.27-1.075,6.566-1.803,9.809c-1.182,5.412,0.142,10.903-0.738,16.34c-0.276,1.741,0.177,3.679,1.609,5.065
			c1.102-0.498,1.404-1.387,1.43-2.177c0.205-4.869,2.142-9.623,0.507-14.625c-0.516-1.564,0.008-3.395,0.222-5.127
			C490.722,242.131,491.878,239.253,491.736,236.178z"/>
		<path fill="none" d="M485.169,240.443c-0.205-1.697,1.43-2.967,0.64-4.807C484.512,237.049,484.716,238.719,485.169,240.443z"/>
		<path fill="none" d="M535.327,281.813c-0.106,0.72-0.063,1.466,0.097,2.159c0.063,0.24,0.178,0.409,0.302,0.56
			c0.445,0.116,0.871,0.214,1.316,0.32c0.035,0,0.062,0,0.106,0c0.64-0.142,0.897-0.702,0.871-1.315
			c-0.018-0.418-0.142-0.844-0.249-1.262c-1.164-4.496-1.723-9.045-1.421-13.719c0.347-5.456-0.924-10.814-1.706-16.225
			c-1.013,4.087-1.191,8.165-0.507,12.27C535.069,270.298,536.091,276.002,535.327,281.813z"/>
		<path fill="none" d="M516.561,241.047c-0.267,1.262-0.826,2.577,0.542,3.421c0.515,0.32,1.065-0.328,1.279-0.817
			C519.155,241.874,517.814,241.518,516.561,241.047z"/>
		<path fill="none" d="M529.809,282.115c0.143,0.258,0.889,0.471,1.146,0.337c1.448-0.817,1.031-2.096,0.613-3.802
			C530.476,279.947,528.938,280.498,529.809,282.115z"/>
		<path fill="none" d="M526.93,275.522c0.116,0,0.24-0.418,0.32-0.586c0.036-0.702-0.249-1.129-0.889-1.156
			c-0.106-0.009-0.302,0.427-0.319,0.666C525.979,275.078,526.273,275.513,526.93,275.522z"/>
		<path fill="none" d="M529.542,260.204c-0.133,0.773-0.418,1.529,0.24,2.222C530.155,261.626,530.466,260.862,529.542,260.204z"/>
	</g>
	<g>
		<path fill="#11090A" d="M492.349,318.847c0.079-0.444,0.106-0.951,0.106-1.546c-0.009-6.042,2.372-12.066,0.267-18.162
			c-0.285-0.852,0.213-1.982,0.302-2.976c0.373-4.034,1.386-7.989,1.412-12.076c0.009-2.088-0.888-3.163-2.629-4.016
			c-3.732-1.786-7.659-3.136-11.48-4.762c-3.439-1.467-6.673-3.51-10.441-4.247c-2.079-0.409-3.235-0.427-3.82,0.231
			c0.071,8.476,0.542,16.944,0.737,25.43c0.107,4.771,0.667,9.516,1.04,14.269c0.328,0.151,0.684,0.285,1.048,0.427
			c2.23,0.826,4.426,1.769,6.585,2.746C481.171,315.417,486.662,317.594,492.349,318.847z M486.6,311.161
			c0.88-5.455-0.444-10.946,0.738-16.349c0.728-3.252,1.235-6.531,1.803-9.8c0.125-0.773,0.382-1.431,1.253-1.475
			c1.235-0.045,1.297,0.906,1.342,1.768c0.142,3.083-1.014,5.962-1.368,8.974c-0.214,1.741-0.738,3.581-0.222,5.145
			c1.635,4.984-0.302,9.765-0.507,14.607c-0.026,0.791-0.329,1.689-1.43,2.177C486.777,314.821,486.324,312.884,486.6,311.161z
			 M485.809,284.781c0.791,1.839-0.844,3.101-0.64,4.789C484.716,287.846,484.512,286.176,485.809,284.781z"/>
		<path fill="#11090A" d="M539.716,327.75c-1.324-6.912-0.356-13.914-1.529-20.8c-0.31-1.839-0.284-3.794,0.792-5.509
			c1.235-1.973,0.035-2.887-1.547-3.687c-4.406-2.204-8.965-4.167-13.159-6.717c-0.763-0.142-1.546-0.302-2.292-0.507
			c-2.862-0.817-5.518-2.133-8.281-3.235c-0.124,11.525-0.826,23.022-1.492,34.52c1.235,0.64,2.39,1.378,3.509,2.168
			c5.003,1.359,10.262,1.768,15.176,3.447c1.564,0.533,3.083,1.128,4.594,1.723c0.382-5.198-0.507-10.307-1.351-15.416
			c-0.684-4.105-0.506-8.183,0.507-12.279c0.782,5.429,2.053,10.769,1.706,16.242c-0.258,4.15,0.142,8.192,1.066,12.2
			c0.844,0.328,1.706,0.649,2.568,0.942C539.974,329.785,539.912,328.754,539.716,327.75z M518.383,292.787
			c-0.214,0.489-0.764,1.128-1.279,0.808c-1.368-0.843-0.809-2.159-0.542-3.412C517.814,290.654,519.155,291.01,518.383,292.787z
			 M526.93,324.658c-0.657-0.009-0.951-0.453-0.888-1.084c0.017-0.24,0.213-0.676,0.319-0.658c0.64,0.026,0.924,0.444,0.889,1.146
			C527.17,324.24,527.045,324.658,526.93,324.658z M529.782,311.561c-0.658-0.701-0.373-1.448-0.24-2.221
			C530.466,309.997,530.155,310.753,529.782,311.561z"/>
		<path fill="none" d="M491.736,285.305c-0.045-0.862-0.106-1.812-1.342-1.768c-0.871,0.044-1.128,0.702-1.253,1.475
			c-0.569,3.269-1.075,6.548-1.803,9.8c-1.182,5.403,0.142,10.894-0.738,16.349c-0.276,1.723,0.177,3.66,1.609,5.047
			c1.102-0.488,1.404-1.387,1.43-2.177c0.205-4.842,2.142-9.623,0.507-14.607c-0.516-1.564,0.008-3.404,0.222-5.145
			C490.722,291.267,491.878,288.388,491.736,285.305z"/>
		<path fill="none" d="M485.169,289.569c-0.205-1.688,1.43-2.95,0.64-4.789C484.512,286.176,484.716,287.846,485.169,289.569z"/>
		<path fill="none" d="M535.327,330.949c-0.106,0.711-0.063,1.475,0.097,2.15c0.063,0.249,0.178,0.418,0.302,0.569
			c0.445,0.106,0.871,0.214,1.316,0.329c0.035-0.018,0.062,0,0.106-0.018c0.64-0.142,0.897-0.693,0.871-1.306
			c-0.018-0.418-0.142-0.844-0.249-1.271c-1.164-4.496-1.723-9.028-1.421-13.702c0.347-5.473-0.924-10.813-1.706-16.242
			c-1.013,4.096-1.191,8.174-0.507,12.279C535.069,319.443,536.091,325.129,535.327,330.949z"/>
		<path fill="none" d="M516.561,290.183c-0.267,1.253-0.826,2.569,0.542,3.412c0.515,0.32,1.065-0.319,1.279-0.808
			C519.155,291.01,517.814,290.654,516.561,290.183z"/>
		<path fill="none" d="M529.809,331.242c0.143,0.276,0.889,0.48,1.146,0.338c1.448-0.8,1.031-2.088,0.613-3.794
			C530.476,329.073,528.938,329.625,529.809,331.242z"/>
		<path fill="none" d="M526.93,324.658c0.116,0,0.24-0.418,0.32-0.595c0.036-0.702-0.249-1.12-0.889-1.146
			c-0.106-0.018-0.302,0.418-0.319,0.658C525.979,324.205,526.273,324.649,526.93,324.658z"/>
		<path fill="none" d="M529.542,309.34c-0.133,0.773-0.418,1.519,0.24,2.221C530.155,310.753,530.466,309.997,529.542,309.34z"/>
	</g>
	<g>
		<path fill="#11090A" d="M492.349,367.973c0.079-0.444,0.106-0.951,0.106-1.537c-0.009-6.051,2.372-12.066,0.267-18.171
			c-0.285-0.844,0.213-1.982,0.302-2.976c0.373-4.025,1.386-7.979,1.412-12.076c0.009-2.079-0.888-3.154-2.629-4.007
			c-3.732-1.795-7.659-3.136-11.48-4.762c-3.439-1.476-6.673-3.519-10.441-4.247c-2.079-0.409-3.235-0.427-3.82,0.222
			c0.071,8.476,0.542,16.944,0.737,25.43c0.107,4.771,0.667,9.525,1.04,14.27c0.328,0.159,0.684,0.293,1.048,0.435
			c2.23,0.826,4.426,1.76,6.585,2.737C481.171,364.561,486.662,366.73,492.349,367.973z M486.6,360.288
			c0.88-5.455-0.444-10.946,0.738-16.349c0.728-3.243,1.235-6.53,1.803-9.8c0.125-0.773,0.382-1.43,1.253-1.466
			c1.235-0.054,1.297,0.906,1.342,1.768c0.142,3.074-1.014,5.962-1.368,8.965c-0.214,1.741-0.738,3.59-0.222,5.153
			c1.635,4.985-0.302,9.756-0.507,14.608c-0.026,0.8-0.329,1.689-1.43,2.177C486.777,363.966,486.324,362.012,486.6,360.288z
			 M485.809,333.917c0.791,1.83-0.844,3.101-0.64,4.789C484.716,336.982,484.512,335.302,485.809,333.917z"/>
		<path fill="#11090A" d="M539.716,376.877c-1.324-6.904-0.356-13.914-1.529-20.792c-0.31-1.84-0.284-3.803,0.792-5.517
			c1.235-1.964,0.035-2.888-1.547-3.679c-4.406-2.213-8.965-4.176-13.159-6.727c-0.763-0.125-1.546-0.293-2.292-0.507
			c-2.862-0.817-5.518-2.132-8.281-3.225c-0.124,11.516-0.826,23.022-1.492,34.529c1.235,0.621,2.39,1.359,3.509,2.159
			c5.003,1.35,10.262,1.759,15.176,3.438c1.564,0.533,3.083,1.128,4.594,1.732c0.382-5.198-0.507-10.316-1.351-15.425
			c-0.684-4.096-0.506-8.183,0.507-12.279c0.782,5.429,2.053,10.769,1.706,16.251c-0.258,4.141,0.142,8.184,1.066,12.191
			c0.844,0.328,1.706,0.649,2.568,0.951C539.974,378.929,539.912,377.89,539.716,376.877z M518.383,341.922
			c-0.214,0.497-0.764,1.128-1.279,0.817c-1.368-0.862-0.809-2.168-0.542-3.421C517.814,339.79,519.155,340.145,518.383,341.922z
			 M526.93,373.794c-0.657-0.018-0.951-0.462-0.888-1.085c0.017-0.23,0.213-0.666,0.319-0.657c0.64,0.017,0.924,0.435,0.889,1.146
			C527.17,373.367,527.045,373.794,526.93,373.794z M529.782,360.696c-0.658-0.701-0.373-1.457-0.24-2.23
			C530.466,359.133,530.155,359.888,529.782,360.696z"/>
		<path fill="none" d="M491.736,334.441c-0.045-0.862-0.106-1.822-1.342-1.768c-0.871,0.035-1.128,0.692-1.253,1.466
			c-0.569,3.27-1.075,6.557-1.803,9.8c-1.182,5.403,0.142,10.894-0.738,16.349c-0.276,1.724,0.177,3.678,1.609,5.056
			c1.102-0.489,1.404-1.378,1.43-2.177c0.205-4.851,2.142-9.623,0.507-14.608c-0.516-1.563,0.008-3.412,0.222-5.153
			C490.722,340.403,491.878,337.515,491.736,334.441z"/>
		<path fill="none" d="M485.169,338.705c-0.205-1.688,1.43-2.959,0.64-4.789C484.512,335.302,484.716,336.982,485.169,338.705z"/>
		<path fill="none" d="M535.327,380.084c-0.106,0.702-0.063,1.466,0.097,2.15c0.063,0.249,0.178,0.418,0.302,0.56
			c0.445,0.107,0.871,0.214,1.316,0.329c0.035-0.009,0.062,0,0.106-0.009c0.64-0.142,0.897-0.684,0.871-1.315
			c-0.018-0.418-0.142-0.835-0.249-1.253c-1.164-4.514-1.723-9.046-1.421-13.711c0.347-5.482-0.924-10.822-1.706-16.251
			c-1.013,4.096-1.191,8.183-0.507,12.279C535.069,368.569,536.091,374.256,535.327,380.084z"/>
		<path fill="none" d="M516.561,339.318c-0.267,1.253-0.826,2.559,0.542,3.421c0.515,0.311,1.065-0.32,1.279-0.817
			C519.155,340.145,517.814,339.79,516.561,339.318z"/>
		<path fill="none" d="M529.809,380.368c0.143,0.276,0.889,0.49,1.146,0.347c1.448-0.808,1.031-2.096,0.613-3.802
			C530.476,378.201,528.938,378.751,529.809,380.368z"/>
		<path fill="none" d="M526.93,373.794c0.116,0,0.24-0.427,0.32-0.595c0.036-0.711-0.249-1.129-0.889-1.146
			c-0.106-0.009-0.302,0.427-0.319,0.657C525.979,373.331,526.273,373.775,526.93,373.794z"/>
		<path fill="none" d="M529.542,358.466c-0.133,0.773-0.418,1.529,0.24,2.23C530.155,359.888,530.466,359.133,529.542,358.466z"/>
	</g>
	<g>
		<path fill="#11090A" d="M492.349,417.101c0.079-0.445,0.106-0.934,0.106-1.529c-0.009-6.06,2.372-12.066,0.267-18.171
			c-0.285-0.844,0.213-1.982,0.302-2.985c0.373-4.025,1.386-7.979,1.412-12.076c0.009-2.079-0.888-3.154-2.629-3.998
			c-3.732-1.804-7.659-3.136-11.48-4.771c-3.439-1.475-6.673-3.501-10.441-4.238c-2.079-0.418-3.235-0.436-3.82,0.222
			c0.071,8.476,0.542,16.944,0.737,25.42c0.107,4.771,0.667,9.525,1.04,14.278c0.328,0.151,0.684,0.302,1.048,0.436
			c2.23,0.817,4.426,1.751,6.585,2.728C481.171,413.689,486.662,415.856,492.349,417.101z M486.6,409.414
			c0.88-5.437-0.444-10.947,0.738-16.349c0.728-3.234,1.235-6.53,1.803-9.791c0.125-0.783,0.382-1.439,1.253-1.475
			c1.235-0.054,1.297,0.906,1.342,1.777c0.142,3.065-1.014,5.953-1.368,8.957c-0.214,1.75-0.738,3.589-0.222,5.153
			c1.635,4.993-0.302,9.755-0.507,14.616c-0.026,0.8-0.329,1.68-1.43,2.168C486.777,413.102,486.324,411.148,486.6,409.414z
			 M485.809,383.043c0.791,1.831-0.844,3.11-0.64,4.798C484.716,386.109,484.512,384.447,485.809,383.043z"/>
		<path fill="#11090A" d="M539.716,426.021c-1.324-6.921-0.356-13.932-1.529-20.809c-0.31-1.831-0.284-3.803,0.792-5.509
			c1.235-1.973,0.035-2.896-1.547-3.679c-4.406-2.221-8.965-4.184-13.159-6.717c-0.763-0.143-1.546-0.302-2.292-0.525
			c-2.862-0.817-5.518-2.124-8.281-3.216c-0.124,11.524-0.826,23.022-1.492,34.52c1.235,0.622,2.39,1.377,3.509,2.159
			c5.003,1.359,10.262,1.768,15.176,3.447c1.564,0.524,3.083,1.128,4.594,1.723c0.382-5.197-0.507-10.307-1.351-15.416
			c-0.684-4.096-0.506-8.183,0.507-12.289c0.782,5.429,2.053,10.778,1.706,16.252c-0.258,4.149,0.142,8.191,1.066,12.199
			c0.844,0.319,1.706,0.64,2.568,0.942C539.974,428.065,539.912,427.026,539.716,426.021z M518.383,391.057
			c-0.214,0.49-0.764,1.137-1.279,0.809c-1.368-0.853-0.809-2.159-0.542-3.412C517.814,388.916,519.155,389.28,518.383,391.057z
			 M526.93,422.92c-0.657-0.018-0.951-0.462-0.888-1.084c0.017-0.223,0.213-0.667,0.319-0.649c0.64,0.017,0.924,0.435,0.889,1.155
			C527.17,422.503,527.045,422.92,526.93,422.92z M529.782,409.823c-0.658-0.692-0.373-1.457-0.24-2.221
			C530.466,408.26,530.155,409.032,529.782,409.823z"/>
		<path fill="none" d="M491.736,383.576c-0.045-0.871-0.106-1.831-1.342-1.777c-0.871,0.036-1.128,0.692-1.253,1.475
			c-0.569,3.261-1.075,6.557-1.803,9.791c-1.182,5.403,0.142,10.912-0.738,16.349c-0.276,1.733,0.177,3.688,1.609,5.056
			c1.102-0.489,1.404-1.368,1.43-2.168c0.205-4.86,2.142-9.623,0.507-14.616c-0.516-1.564,0.008-3.404,0.222-5.153
			C490.722,389.53,491.878,386.642,491.736,383.576z"/>
		<path fill="none" d="M485.169,387.841c-0.205-1.688,1.43-2.967,0.64-4.798C484.512,384.447,484.716,386.109,485.169,387.841z"/>
		<path fill="none" d="M535.327,429.211c-0.106,0.711-0.063,1.466,0.097,2.168c0.063,0.231,0.178,0.409,0.302,0.542
			c0.445,0.106,0.871,0.222,1.316,0.328c0.035,0,0.062,0,0.106,0c0.64-0.134,0.897-0.693,0.871-1.307
			c-0.018-0.435-0.142-0.853-0.249-1.27c-1.164-4.505-1.723-9.037-1.421-13.71c0.347-5.474-0.924-10.823-1.706-16.252
			c-1.013,4.105-1.191,8.192-0.507,12.289C535.069,417.696,536.091,423.392,535.327,429.211z"/>
		<path fill="none" d="M516.561,388.454c-0.267,1.253-0.826,2.559,0.542,3.412c0.515,0.328,1.065-0.319,1.279-0.809
			C519.155,389.28,517.814,388.916,516.561,388.454z"/>
		<path fill="none" d="M529.809,429.522c0.143,0.248,0.889,0.462,1.146,0.319c1.448-0.808,1.031-2.096,0.613-3.802
			C530.476,427.337,528.938,427.887,529.809,429.522z"/>
		<path fill="none" d="M526.93,422.92c0.116,0,0.24-0.418,0.32-0.578c0.036-0.72-0.249-1.137-0.889-1.155
			c-0.106-0.018-0.302,0.426-0.319,0.649C525.979,422.458,526.273,422.902,526.93,422.92z"/>
		<path fill="none" d="M529.542,407.602c-0.133,0.764-0.418,1.529,0.24,2.221C530.155,409.032,530.466,408.26,529.542,407.602z"/>
	</g>
	<path fill="none" d="M293.38,425.568c-2.621-1.546-5.367-2.772-8.379-3.457c-1.653-0.39-3.225-1.217-5.02-0.461
		c-2.923,1.252-6.006,2.07-8.832,3.607c-1.937,1.085-3.358,2.541-4.958,5.367c6.22-0.569,11.524-1.102,16.838-1.493
		c3.154-0.204,6.184-1.715,9.41-0.791c0.88,0.24,1.751,0.56,2.079-0.649C294.801,426.688,294.189,426.039,293.38,425.568z"/>
</g>
</svg>
