<?xml version="1.0" encoding="utf-8"?>
<!-- Generator: Adobe Illustrator 17.0.0, SVG Export Plug-In . SVG Version: 6.00 Build 0)  -->
<!DOCTYPE svg PUBLIC "-//W3C//DTD SVG 1.1//EN" "http://www.w3.org/Graphics/SVG/1.1/DTD/svg11.dtd">
<svg version="1.1" id="Layer_1" xmlns="http://www.w3.org/2000/svg" xmlns:xlink="http://www.w3.org/1999/xlink" x="0px" y="0px"
	 width="800px" height="600px" viewBox="0 0 800 600" enable-background="new 0 0 800 600" xml:space="preserve">
<g>
	<path d="M640.813,274.064c-10.083-19.131-28.243-38.17-50.783-45.796c1.495-2.825,2.839-5.774,3.946-8.918
		c5.541-15.732,4.921-33.462,3.808-49.853c-1.111-16.31-4.539-32.823-10.895-47.914c-6.764-16.058-16.384-30.221-28.579-42.654
		c-10.487-10.693-26.15-23.57-41.369-26.834c-3.071-0.656-14.755,21.908-15.135,24.347c-0.377,2.441,5.703,7.457,9.432,8.992
		c-9.354,4.473-13.717,12.742-15.021,24.251c-0.243,2.142,9.24,3.295,12.052,3.531c-0.152,7.874-0.87,17.005-1.528,24.861
		c-10.722-15.116-36.904-35.5-67.305-36.991c-10.825-0.528-21.205,2.234-30.633,7.432c-12.932,7.135-21.853,22.115-25.08,31.489
		c-2.399,0.817-9.557,2.491-13.438,3.821c-32.802,11.238-48.073,44.445-38.274,77.427c6.592,22.186,25.822,34.615,46.913,40.181
		c-22.555,17.945-78.772,37.544-90.504,3.143c-0.71-2.077-13.914,0.127-17.717,2.581c-1.604-14.817-9.189-36.299-13.955-52.461
		c-6.213-21.054-16.817-53.597-20.981-63.894c-5.487,2.18-81.817,67.761-93,80.262c9.651,7.899,18.091,18.095,26.057,27.784
		c8.962,10.906,17.938,21.752,26.58,32.921c18.354,23.729,36.054,50.87,48.695,78.133c4.825-14.477,8.7-21.898,14.121-29.407
		c2.986,4.842,9.772,6.634,14.169,7.256c6.576,20.722,50.229,19.077,69.047,6.48c-0.003,3.232,0.25,6.383,0.911,9.208
		c-10.326,23.31-11.176,64.145,13.949,76.827c4.275,9.382,10.389,16.761,17.702,22.602c-7.334,17.889-20.676,39.07-34.713,52.228
		c30.155,17.364,71.73,35.97,107.255,24.568c-5.485-21.497-4.607-40.357-1.624-55.007c14.891,1.111,29.616,0.954,43.936-0.958
		c1.713,16.567,1.112,32.274-2.718,48.77c9.752,7.413,65.413,13.89,91.564,1.712c-0.252-12.704-7.822-45.729-18.114-62.399
		c6.237-0.416,13.093-5.563,19.309-11.468c14.593-13.863,36.326-34.901,51.662-55.101c15.104-19.889,22.564-42.858,23.805-67.469
		C655.498,315.287,651.299,293.961,640.813,274.064z M512.146,214.557c11.159-21.263,11.191-47.179-0.479-69.623
		c19.331-8.302,38.741,22.036,43.798,37.011c3.671,10.879,3.649,23.568,0.099,34.8C546.769,212.645,522.203,212.208,512.146,214.557
		z"/>
	<path fill="#BBC027" d="M502.465,105.175c2.173-10.9,11.405-17.985,25.222-19.083c3.782-0.299-4.823-5.045-10.07-3.408
		c-3.964-1.203-9.674-5.22-10.219-7.045c-0.547-1.831,7.323-17.223,8.883-16.964c14.476,2.414,29.974,17.037,35.039,21.869
		c17.241,16.464,28.882,37.383,35.037,60.294c6.003,22.339,9.298,46.987,4.279,69.613c-2.869,12.929-11.559,26.671-22.152,34.437
		c-10.323,7.561-28.514,15.571-39.041,7.02c8.792-2.844,17.788-10.301,22.978-17.375c11.437-15.586,13.994-35.327,9.211-53.79
		c-4.979-19.225-26.896-48.492-49.4-41.941c0.637-8.302,1.486-16.588,1.787-24.909c5.838,0.841,11.628,2.09,17.496,3.07
		c1.293,0.217,2.019-1.829,0.864-2.466C523.34,109.537,512.734,105.35,502.465,105.175z"/>
	<path fill="#AA7C61" d="M508.825,219.224c9.87-3.287,35.752-0.873,44.786,2.737c-4.428,9.987-18.937,27.697-31.024,27.227
		c-8.35-5.112-14.921-12.426-23.789-16.613C502.068,229.362,506.841,223.376,508.825,219.224z"/>
	<path fill="#BBC027" d="M355.014,243.645c-30.65-22.05-24.843-71.981,6.742-89.811c22.379-12.631,51.49-9.783,74.912,0.785
		c9.349,4.22,14.991,9.186,19.688,13.663c1.59,1.514,0.649-5.078-5.988-10.875c3.533-0.708,6.883-2.464,9.499-5.283
		c6.756-7.281,5.549-22.687-1.839-29.039c-9.947-8.553-24.361-6.335-29.262,3.932c-1.01-5.903-5.151-10.562-11.452-10.919
		c-12.958-0.741-20.149,16.39-12.491,23.738c-5.446-0.463-10.922-0.457-16.319,0.083c4.006-12.036,13.367-23.875,27.029-30.313
		c12.834-6.047,28.519-3.961,41.753-0.069c27.741,8.154,48.911,30.108,54.976,58.392c9.212,42.969-24.73,71.052-61.097,83.177
		C421.033,261.155,381.929,263.014,355.014,243.645z"/>
	<path fill="#D6D66E" d="M392.56,151.672c16.758-0.856,35.528,1.159,52.256,7.352c-2.386-1.52-5.047-3.005-8.148-4.404
		c-23.423-10.568-52.534-13.416-74.912-0.785c-6.228,3.516-11.436,8.292-15.58,13.846
		C358.634,157.458,375.878,152.526,392.56,151.672z"/>
	<path fill="#FFFFFF" d="M440.243,145.73c1.947,4.466,5.099,6.655,10.477,7.131c-1.755,0.925-3.753,0.714-6.634,0.044
		c-2.884-0.672-7.022-3.111-9.611-5.625c-2.584-2.512-5.718-8.855-4.004-16.239c2.601-11.226,16.791-13.314,24.037-6.974
		c5.916,5.176,6.714,12.027,5.332,18.315c0.066-6.705-3.556-12.472-10.69-12.023C441.399,130.848,437.197,138.745,440.243,145.73z"
		/>
	<path fill="#A6AB00" d="M430.433,145.907c-2.162-0.864-4.352-1.679-6.585-2.37c1.525-0.983,2.789-2.28,3.747-3.875
		C428.146,141.946,429.102,144.097,430.433,145.907z"/>
	<path fill="#FFFFFF" d="M419.554,125.995c-2.217,0.662-4.065,3.028-4.51,5.763c-0.618,3.794,0.551,9.332,4.878,10.572
		c-3.178-0.666-8.382-1.554-11.161-2.145c-2.457-0.522-5.179-5.913-4.07-11.532c1.107-5.617,4.725-9.847,11.757-10.127
		c5.54-0.221,8.867,4.953,9.459,8.87C424.354,125.771,421.659,125.36,419.554,125.995z"/>
	<path fill="#FFFFFF" d="M243.535,359.112c-11.927-24.193-26.271-45.564-42.792-67.059c-9.344-12.157-18.931-24.109-28.988-35.686
		c-7.961-9.167-14.64-19.154-24.524-26.314c28.572-25.141,57.078-50.363,86.369-74.67c7.655,18.908,12.937,38.695,18.088,58.415
		c4.92,18.828,12.146,36.571,16.49,55.497c-0.937,1.042-1.732,2.284-2.329,3.765c-2.871,7.129,0.45,15.736,3.72,22.553
		c-3.925,0.324-11.38,2.399-12.097,3.888c-0.718,1.485-4.654,15.769-5.482,23.468c-0.213,1.965,12.789,2.207,12.789,2.207
		C255.598,335.429,247.772,346.099,243.535,359.112z"/>
	<path fill="#E8EBE3" d="M269.57,295.613c-3.27-6.816-6.591-15.423-3.72-22.553c0.597-1.481,1.391-2.723,2.329-3.765
		c-1.922-8.373-4.416-16.513-7.017-24.621c-6.418,11.52-10.902,24.337-14.683,36.594c-5.844,18.943-10.171,38.333-13.719,57.841
		c3.778,6.492,7.386,13.122,10.776,20.002c4.236-13.013,12.062-23.683,21.245-33.936c0,0-13.002-0.242-12.789-2.207
		c0.828-7.699,4.764-21.982,5.482-23.468C258.19,298.012,265.645,295.937,269.57,295.613z"/>
	<path fill="#BBC027" d="M342.31,343.303c-6.754,7.958-21.232,13.662-35.785,13.617c-9.486-0.029-29.402-3.381-29.812-15.985
		c-4.543,0.679-11.345-0.637-14.634-4.37c2.503-5.427,9.212-12.94,11.27-17.193l-14.772,0.021
		c0.476-3.844,2.626-14.629,4.379-16.387c1.756-1.754,16.577-2.286,23.909-3.506c2.699-0.451-6.144-3.949-10.582-3.995
		c-2.673-5.135-5.143-10.518-5.638-16.346c-0.73-8.593,7.766-10.054,14.568-10.054c12.402,30.3,58.435,19.112,86.093,3.197
		c-8.64,10.261-14.914,24.126-10.369,34.404c-8.577,5.181-13.34,15.314-16.173,25.105
		C343.91,334.767,342.975,338.837,342.31,343.303z"/>
	<path fill="#BBC027" d="M438.194,533.36c-8.565,2.253-17.229,2.619-25.87,1.714c-0.011-1.351,0.556-9.76,0.449-12.443
		c-0.061-1.535-3.962,2.781-5.5,11.789c-10.175-1.629-20.29-4.88-30.136-8.791c0.376-1.938,2.533-11.413,3.605-13.882
		c0.488-1.123-1.097-1.862-1.814-0.986c-2.365,2.888-7.023,11.163-7.399,12.568c-7.817-3.31-15.439-6.922-22.753-10.336
		c13.619-13.013,22.967-29.695,29.448-46.997c17.106,11.641,44.404,16.648,61.112,18.2
		C435.13,499.09,436.009,519.706,438.194,533.36z"/>
	<path fill="#DED99E" d="M444.951,477.353c-30.627-1.785-64.839-8.146-82.239-35.399c0.705,0.107,7.037-1.466,4.428-2.52
		c-17.549-7.097-25.28-18.373-26.321-37.068c-0.563-10.115,1.246-22.401,3.948-32.244c0.998,3.803,6.362,7.239,5.262,3.729
		c-4.434-14.176-2.804-30.027-1.752-36.408c1.998-12.167,8.831-26.891,21.998-30.146c2.382-0.591-3.282-3.214-4.49-2.815
		c-3.034-5.64-0.527-14.203,2.89-21.215c4.134-8.478,9.111-14.07,15.791-20.616c3.884,0.71,10.166,1.756,14.018,2.054
		c30.969,2.378,63.877-5.953,89.622-23.37c2.59-1.754,5.009-3.637,7.292-5.617c23.077,12.46,54.224,43.823,71.774,65.157
		c13.3,16.168,23.394,35.504,25.6,56.185c4.01,37.584-14.624,73.558-43.999,95.998C518.78,475.967,481.376,479.47,444.951,477.353z"
		/>
	<path fill="#BBC027" d="M571.553,529.798c-6.308,2.627-12.094,3.612-18.441,4.345c-2.394-9.611-6.574-12.9-6.532-11.017
		c0.082,3.744,0.105,7.715,0.707,11.484c-8.454,0.407-16.949-0.313-25.492-1.257c-1.345-8.599-3.825-11.66-4.058-10.395
		c-0.594,3.249-1.209,6.486-1.57,9.758c-7.502-0.875-15.987-3.278-23.573-3.575c3.797-15.068,3.508-30.269,0.798-46.113
		c18.062-2.909,36.962-9.628,53.155-19.471C563.215,481.068,568.162,508.581,571.553,529.798z"/>
	<path fill="#AA7C61" d="M646.422,349.528c-4.434,39.338-29.804,66.015-55.084,93.234c10.921-16.928,14.651-30.745,13.772-29.43
		c-7.305,10.96-12.005,19.227-19.56,30.012c-4.956,7.077-10.505,13.585-17.195,19.087c-6.967,5.73-11.179,3.976-15.241-3.322
		c0.226-0.163,0.46-0.317,0.688-0.482c32.458-23.393,48.192-62.317,45.572-101.596c-1.222-18.34-9.173-38.287-20.54-52.77
		c-10.791-13.752-28.996-33.053-38.866-42.927c8.147-0.155,17.991-3.993,25.264-8.043c9.329-5.191,16.696-12.057,22.15-20.516
		C634.96,250.418,651.711,302.609,646.422,349.528z"/>
	<path fill="#A31A14" d="M251.932,294.718c-1.345-9.639-8.348-18.248-14.071-25.82c-0.649-0.86-1.34-1.687-2.012-2.531
		c4.541-6.778,8.874-13.704,12.976-20.766c1.693-2.921-2.438-5.807-4.368-2.969c-4.288,6.302-8.306,12.775-12.391,19.202
		c-3.609-4.134-7.455-8.092-11.488-11.823c5.262-12.986,12.474-24.285,19.67-36.657c1.441-2.483-1.739-5.723-3.966-3.468
		c-9.509,9.63-15.868,22.892-20.191,36.109c-1.46-1.257-2.932-2.503-4.423-3.711c-2.213-1.788-5.212,1.29-3.064,3.251
		c2.018,1.84,3.968,3.74,5.879,5.675c-0.601,2.065-1.153,4.114-1.661,6.143c-0.661,2.635,3.794,3.969,4.598,1.368
		c0.345-1.105,0.741-2.159,1.112-3.236c3.491,3.8,6.816,7.753,9.999,11.842c-1.515,2.326-3.044,4.634-4.622,6.912
		c-1.959,2.829,2.404,5.711,4.415,2.961c1.239-1.708,2.443-3.439,3.648-5.17c5.348,7.931,9.232,16.504,14.584,24.391
		C248.073,298.654,252.353,297.751,251.932,294.718z"/>
	<path d="M211.16,185.282c-15.009,9.693-30.171,26.258-38.299,40.618c-0.569,1.013,1.107,1.706,1.702,0.679
		c8.456-14.531,24.955-29.544,39.216-40.012C214.771,185.836,212.161,184.633,211.16,185.282z"/>
	<path d="M223.622,185.094c-18.915,14.078-38.866,32.825-44.963,49.34c-0.354,0.965,1.007,1.149,1.537,0.322
		c12.616-19.774,26.418-32.929,44.73-47.794C225.966,186.117,224.641,184.338,223.622,185.094z"/>
	<path d="M199.535,218.406c-6.506,7.64-12.812,15.751-16.165,24.744c-0.246,0.662,1.494,1.23,1.814,0.576
		c4.262-8.703,10.603-17.325,17.304-24.437C203.432,218.278,200.406,217.383,199.535,218.406z"/>
	<path d="M225.369,196.065c-6.818,4.865-13.49,10.215-19.059,16.483c-0.739,0.835,0.706,2.121,1.47,1.309
		c5.745-6.07,12.713-10.568,19.054-15.945C227.862,197.038,226.46,195.284,225.369,196.065z"/>
	<path d="M224.052,208.571c-13.466,9.923-25.086,21.781-33.621,36.193c-0.557,0.938,0.873,1.827,1.446,0.894
		c8.677-14.172,20.324-25.078,33.281-35.345C226.182,209.506,225.132,207.775,224.052,208.571z"/>
	<path fill="#C7A585" d="M647.241,338.382c1.389-37.327-11.259-75.955-42.206-96.606C625.254,269.27,639.53,297.138,647.241,338.382
		z"/>
	<path fill="#916342" d="M519.755,217.721c-4.384,0.14-8.251,0.61-10.931,1.503c-1.983,4.153-6.757,10.138-10.027,13.351
		c1.749,0.827,3.391,1.798,4.993,2.825C510.862,231.776,516.15,225.175,519.755,217.721z"/>
	<path fill="#916342" d="M531.844,246.572c9.412-5.233,18.438-17.104,21.768-24.612c-1.113-0.447-2.486-0.871-4.051-1.272
		C545.913,230.955,539.935,240.41,531.844,246.572z"/>
	<path fill="#916342" d="M602.091,239.901c-4.538-2.756-9.42-5.166-14.707-7.125c-5.454,8.459-12.821,15.325-22.15,20.516
		c-7.273,4.049-17.117,7.887-25.264,8.043c0.207,0.209,0.44,0.445,0.655,0.66C561.058,267.015,585.262,254.062,602.091,239.901z"/>
	<path fill="#916342" d="M644.168,362.247c-2.441,3.201-5.109,6.254-8.293,9.017c-7.051,6.118-15.289,11.437-24.553,13.401
		c-4.563,0.967-8.995,1.19-13.292,0.837c-4.719,28.88-19.69,55.439-44.227,73.125c-0.228,0.165-0.462,0.319-0.688,0.482
		c4.062,7.298,8.274,9.052,15.241,3.322c6.69-5.502,12.239-12.009,17.195-19.087c7.554-10.785,12.255-19.052,19.56-30.012
		c0.879-1.315-2.851,12.503-13.772,29.43C613.796,418.586,636.308,394.827,644.168,362.247z"/>
	<path fill="#E9E7B8" d="M369.913,305.837c-2.939-9.409-0.586-20.426,3.303-30.336c-1.629,2.362-3.139,4.89-4.541,7.766
		c-3.417,7.012-5.924,15.575-2.89,21.215C366.48,304.252,368.65,305.028,369.913,305.837z"/>
	<path fill="#E9E7B8" d="M355.531,334.339c2.536-8.812,5.814-20.163,13.175-26.556c-12.135,3.999-18.514,17.993-20.43,29.661
		c-0.884,5.36-2.161,17.396,0.076,29.515C350.298,356.026,352.477,344.943,355.531,334.339z"/>
	<path fill="#E9E7B8" d="M347.14,373.879c-1.025-0.975-2.003-2.337-2.374-3.755c-2.702,9.843-4.512,22.128-3.948,32.244
		c0.347,6.243,1.461,11.643,3.419,16.354C342.554,403.599,344.861,387.197,347.14,373.879z"/>
	<path fill="#CCC485" d="M500.093,238.448c-1.597-0.986-3.166-1.902-4.697-2.731c-2.284,1.98-4.703,3.863-7.292,5.617
		c-25.745,17.417-58.652,25.748-89.622,23.37c-3.851-0.298-10.133-1.343-14.018-2.054c-2.237,2.194-4.269,4.28-6.157,6.404
		C419.098,285.394,468.608,269.368,500.093,238.448z"/>
	<path fill="#CCC485" d="M521.077,292.487c-10.233,8.071-24.743,12.817-37.454,15.598c-27.472,6.007-50.224,6.087-78.078,5.907
		c35.7,19.52,138.178,3.337,137.093-39.987c-2.593-2.596-5.234-5.187-7.921-7.736C533.91,276.43,529.668,285.714,521.077,292.487z"
		/>
	<path fill="#CCC485" d="M515.472,375.377c-10.915,3.794-30.903,10.731-58.818,13.869c-19.669,2.209-40.578,0.597-60.336-4.164
		c13.336,9.557,32.475,12.581,50.576,12.896c23.102,0.401,49.886-3.713,71.404-12.328c21.727-8.697,45.525-16.953,59.169-36.947
		c3.823-5.602,6.48-11.553,8.316-17.72c-1.124-2.629-2.715-6.484-4.046-9.029C578.398,346.097,541.097,366.464,515.472,375.377z"/>
	<path fill="#CCC485" d="M491.584,450.888c-20.653,2.522-41.375,1.744-62.154-1.027c1.028,6.937,25.533,10.183,39.039,10.53
		c18.686,0.48,40.122-3.404,58.303-7.448c13.871-3.082,26.001-8.121,39.11-15.907c5.729-6.529,12.786-12.455,16.883-20.05
		c-8.511,5.792-17.964,13.669-27.997,17.722C534.954,442.71,512.824,448.297,491.584,450.888z"/>
	<path fill="#D6D66E" d="M546.336,83.22c11.518,11.771,20.668,25.776,28.041,40.451c8.108,16.135,14.112,32.391,17.039,50.294
		c0.648,3.959,1.184,7.931,1.655,11.909c-0.105-15.197-2.834-30.597-6.715-45.036c-6.154-22.911-17.795-43.831-35.037-60.294
		c-5.064-4.832-20.563-19.455-35.039-21.869c-0.378-0.065-1.132,0.806-2.043,2.169C526.693,64.993,537.258,73.943,546.336,83.22z"/>
	<path fill="#D6D66E" d="M427.334,111.675c8.377-0.643,16.819-0.451,25.14,0.76c8.818,1.282,17.554,3.425,25.804,6.707
		c-6.406-4.112-13.443-7.386-20.993-9.605c-13.235-3.892-28.92-5.978-41.753,0.069c-3.872,1.823-7.382,4.091-10.539,6.667
		C412.429,114.692,419.704,112.264,427.334,111.675z"/>
	<path fill="#A6AB00" d="M546.35,241.319c-4.898,4.611-10.948,8.661-16.908,10.589c7.32,5.947,18.344,3.878,27.855-0.472
		C553.415,248.314,549.757,244.925,546.35,241.319z"/>
	<path fill="#A6AB00" d="M456.716,166.341c0.75-3.98,0.37-7.645-0.915-10.984c-1.704,0.983-3.54,1.671-5.433,2.051
		C454.09,160.659,456.02,164.157,456.716,166.341z"/>
	<path fill="#A6AB00" d="M447.914,238.27c-3.281-0.944-5.408-2.794-7.032-5.176c0.181,1.568,0.449,3.122,0.932,4.61
		c1.383,4.256,6.219,12.409,12.48,8.102c4.357-2.996,5.844-8.215,6.123-13.268c0.074-1.343,0.079-2.685,0.059-4.02
		c-0.951,2.257-2.108,4.372-3.609,6.175C454.686,237.314,451.443,239.285,447.914,238.27z"/>
	<path fill="#A6AB00" d="M406.795,169.377c-5.79-1.245-8.864,6.16-7.974,11.134c3.522-2.45,7.673-3.71,11.886-3.755
		C411.213,173.382,410.678,170.215,406.795,169.377z"/>
	<path fill="#A6AB00" d="M363.691,176.625c-0.421-1.238-1.216-2.71-2.78-2.286c-2.909,0.787-4.405,3.385-4.565,6.289
		c2.826,0.29,5.547,0.806,8.069,1.888C364.483,180.496,364.305,178.433,363.691,176.625z"/>
	<path fill="#A6AB00" d="M392.411,131.165c-1.613,2.855-2.924,5.799-3.908,8.755c5.397-0.539,10.873-0.545,16.319-0.083
		c-2.429-2.332-3.361-5.65-3.091-9.066C398.511,130.724,395.38,130.856,392.411,131.165z"/>
	<path fill="#A6AB00" d="M371.306,272.302c-5.921,3.408-12.686,6.592-19.779,9.205c-11.04,14.468-17.815,32.685-21.464,49.937
		c-1.487,7.025-2.623,14.389-3.24,21.854c6.508-2.426,12.021-5.909,15.489-9.996c0.665-4.465,1.599-8.536,2.453-11.491
		c2.832-9.791,7.595-19.923,16.173-25.105C356.392,296.428,362.665,282.563,371.306,272.302z"/>
	<path fill="#A6AB00" d="M436.775,499.368c0.438-5.356,1.252-10.541,2.561-15.174c-16.708-1.552-44.005-6.559-61.112-18.2
		c-1.657,4.423-3.506,8.806-5.562,13.097C391.281,493.294,413.73,500.308,436.775,499.368z"/>
	<path fill="#A6AB00" d="M555.883,476.338c-2.63-4.621-5.689-8.949-9.335-12.781c-16.193,9.843-35.093,16.561-53.155,19.471
		c0.803,4.698,1.361,9.332,1.696,13.932C516.214,499.028,537.241,489.132,555.883,476.338z"/>
	<path d="M447.923,201.96c-5.992,0.159-10.244,5.538-10.636,8.524c-0.389,2.951,0.815,7.265,2.887,9.399
		c6.22,6.396,12.501,3.949,14.332-3.276C456,210.715,453.92,201.805,447.923,201.96z"/>
	<path d="M365.386,179.354c-0.498-2.783-1.896-4.949-4.477-5.187c-2.619-0.24-4.884,1.892-5.192,4.437
		c-0.149,1.236,0.993,2.955,1.318,1.75c0.403-1.499,1.996-3.32,3.773-2.944c1.438,0.303,2.581,1.658,3.224,4.226
		C364.558,183.744,365.727,181.257,365.386,179.354z"/>
	<path d="M410.925,171.716c-0.952-1.794-3.14-2.925-5.346-3.076c-5.224-0.361-8.071,5.36-7.858,8.358
		c0.223,3.074,2.132,4.918,2.284,3.212c0.358-3.924,1.998-7.281,5.005-7.697c3.104-0.43,5.488,2.061,5.916,5.556
		C410.999,178.665,413.077,175.773,410.925,171.716z"/>
	<path d="M471.101,134.385c-1.152-10.737-9.91-23.12-22.437-22.863c-0.815,0.019-1.102,0.944-0.488,1.418
		c8.864,6.859,15.893,16.35,20.3,28.375C469.609,144.402,471.627,139.307,471.101,134.385z"/>
	<path d="M425.541,111.533c-5.38-7.473-18.428,3.98-21.83,8.735c-0.619,0.865,0.303,1.915,1.233,1.378
		c5.801-3.356,13.016-9.233,20.086-8.995C425.665,112.677,425.866,111.982,425.541,111.533z"/>
	<path d="M459.927,227.83c-4.463,6.506-12.94,10.392-19.451,4.084c-0.399-0.384-1.086,0.132-0.867,0.624
		c4.764,10.658,20.452,6.415,21.718-4.235C461.415,227.524,460.34,227.232,459.927,227.83z"/>
	<path d="M533.739,257.614c-0.576-0.81-2-0.426-1.763,0.499c1.888,7.49,1.366,11.773-0.784,18.152
		c-1.869,5.552-5.994,10.052-10.424,13.706c-10.055,8.298-23.381,12.445-35.807,15.606c-26.256,6.682-55.617,9.102-82.701,6.843
		c-0.646-0.054-0.836,0.902-0.172,1.009c28.615,4.68,60.048,1.612,87.944-5.801c13.602-3.615,27.653-9.198,37.618-19.476
		C534.394,281.185,540.017,266.474,533.739,257.614z"/>
	<path d="M581.95,314.149c-0.34-1.514-2.656-1.27-2.453,0.366c3.572,28.882-37.112,48.536-60.527,57.466
		c-12.382,4.723-25.169,8.54-38.029,11.718c-31.459,7.784-62.59,5.882-94.143-0.912c-0.562-0.121-0.724,0.72-0.176,0.864
		c44.652,12.05,88.082,8.663,131.24-6.799C542.218,368.129,589.631,348.085,581.95,314.149z"/>
	<path d="M595.783,387.394c-0.052-1.14-1.841-1.307-1.98-0.171c-4.174,33.967-41.675,49.453-73.872,56.796
		c-30.773,7.014-66.861,10.036-97.986,3.381c-0.636-0.134-0.79,0.819-0.177,0.981c34.579,9.273,73.435,5.997,107.725-2.854
		C556.593,438.533,597.41,421.375,595.783,387.394z"/>
	<path d="M643.144,317.225c0.066-0.723-1.017-0.896-1.123-0.165c-1.868,12.844-10.406,26.682-24.054,28.705
		c-2.644-13.458-8.66-26.55-16.387-38.843c15.553-5.774,28.474-21.896,26.104-39.047c-0.086-0.62-1.095-0.687-1.126-0.021
		c-0.841,16.442-11.45,30.591-27.007,35.905c-8.363-12.689-18.431-24.471-28.322-34.848c-0.43-0.455-1.189,0.274-0.796,0.752
		c9.385,11.53,18.801,23.265,26.737,35.888c-0.043,0.775,0.446,1.606,1.232,1.954c3.002,4.903,5.785,9.943,8.218,15.172
		c11.55,24.802,7.852,49.285-0.251,74.411c-0.407,1.259,1.457,1.608,2.05,0.662c9.944-15.903,12.488-32.048,10.258-47.753
		C634.743,347.039,641.763,332.504,643.144,317.225z"/>
	<path fill="#FFFFFF" d="M453.634,133.698c-2.159,0-3.91,1.752-3.91,3.909c0,2.159,1.751,3.913,3.91,3.913
		c2.162,0,3.908-1.754,3.908-3.913C457.542,135.45,455.796,133.698,453.634,133.698z"/>
	<circle fill="#FFFFFF" cx="447.683" cy="141.004" r="1.783"/>
	<path fill="#FFFFFF" d="M423.345,127.997c-1.339,0.155-2.297,1.364-2.143,2.7c0.159,1.336,1.364,2.297,2.701,2.144
		c1.337-0.157,2.296-1.364,2.142-2.704C425.891,128.799,424.683,127.845,423.345,127.997z"/>
	<circle fill="#FFFFFF" cx="420.457" cy="133.397" r="1.111"/>
</g>
</svg>
