<?xml version="1.0" encoding="utf-8"?>
<!-- Generator: Adobe Illustrator 17.0.0, SVG Export Plug-In . SVG Version: 6.00 Build 0)  -->
<!DOCTYPE svg PUBLIC "-//W3C//DTD SVG 1.1//EN" "http://www.w3.org/Graphics/SVG/1.1/DTD/svg11.dtd">
<svg version="1.1" id="Layer_1" xmlns="http://www.w3.org/2000/svg" xmlns:xlink="http://www.w3.org/1999/xlink" x="0px" y="0px"
	 width="800px" height="600px" viewBox="0 0 800 600" enable-background="new 0 0 800 600" xml:space="preserve">
<g>
	<g>
		<g>
			<path d="M282.23,328.426c1.964-1.704,28.336-19.608,28.71-19.688c8.956-1.984,27.088,0.066,28.093,1.286
				c1.006,1.217,10.117,34.498,10.727,41.121c-1.77,3.813-29.381,34.967-30.682,35.19c-1.302,0.227-18.561-12.021-24.536-19.539
				C293.14,363.275,283.011,330.821,282.23,328.426z"/>
			<path fill="#FFFABD" d="M297.481,320.304c-3.579,2.119-7.71,5.105-11.527,8.092c1.592,0.44,4.748,1.03,6.143,1.736
				c3.17-1.813,9.431-7.569,11.339-8.593C301.834,320.987,300.338,320.425,297.481,320.304z"/>
			<path fill="#BF0008" d="M311.639,323.39c-0.637-0.265-1.272-0.521-1.924-0.749c-1.354-0.468-2.695-0.718-4.033-0.884
				c-2.228,1.677-10.054,7.961-11.813,9.253c1.195,0.563,3.075,1.551,4.303,2.108C301.227,331.231,307.034,326.57,311.639,323.39z"
				/>
			<path fill="#A80008" d="M303.881,323.148c0.75-0.584,1.377-1.069,1.801-1.391c1.338,0.166,2.679,0.416,4.033,0.884
				c0.651,0.228,1.287,0.484,1.924,0.749c-1.052,0.726-2.166,1.526-3.295,2.356C307.053,324.527,305.511,323.659,303.881,323.148z"
				/>
			<path fill="#FFFABD" d="M299.669,333.685c2.205,1.036,4.397,2.129,6.463,3.366c4.585-3.384,8.275-6.654,12.734-10.299
				c-2.03-0.921-4.015-1.94-6.044-2.852C309.405,326.834,304.596,330.045,299.669,333.685z"/>
			<path fill="#BF0008" d="M298.832,318.779c2.953-0.034,16.465,4.292,21.373,7.822c1.008-0.794,5.231-4.569,6.463-5.454
				c-8.703-4.361-18.423-5.924-22.84-5.505C302.01,316.924,300.628,317.625,298.832,318.779z"/>
			<path fill="#FFFABD" d="M311.439,310.629c-0.944,0.381-4.663,2.593-5.764,3.554c3.104-0.024,5.642,0.226,7.457,0.66
				c1.556-1.229,4.329-4.289,5.289-4.941C316.219,309.79,312.217,310.314,311.439,310.629z"/>
			<path fill="#BF0008" d="M320.466,309.597c-0.907,0.874-4.768,4.889-5.467,5.593c1.745,0.776,4.034,1.045,5.055,1.411
				c2.268-1.758,5.344-4.306,7.805-6.487C325.633,309.851,323.318,309.358,320.466,309.597z"/>
			<path fill="#FFFABD" d="M329.6,310.172c-2.349,2.049-5.564,4.902-7.884,7.055c2.009,0.783,4.009,1.698,5.754,2.848
				c3.685-2.629,6.511-6.338,10.132-9.028C335.191,310.845,332.889,310.216,329.6,310.172z"/>
			<path fill="#FFFA8C" d="M348.331,351.079c-0.859-6.872-7.846-32.496-10.074-38.936c-2.34,2.801-5.907,6.003-9.472,9.561
				c2.895,9.701,9.173,32.745,10.986,39.189C341.891,358.699,345.882,354.346,348.331,351.079z"/>
			<path fill="#BA0008" d="M333.768,368.078c1.66-1.87,3.27-3.799,4.855-5.758c-2.012-7.175-9.06-32.082-11.57-39.953
				c-1.046,0.737-4.951,4.401-6.295,5.624c2.629,6.148,10.276,33.677,12.627,40.52C333.512,368.366,333.642,368.224,333.768,368.078
				z"/>
			<path fill="#FFFA8C" d="M332.15,369.88c-2.488-7.089-11.526-38.481-12.354-41.021c-3.993,3.617-8.872,7.04-12.503,10.095
				c2.555,6.824,10.785,34.564,12.917,42.9C321.695,380.453,329.661,372.636,332.15,369.88z"/>
			<path fill="#F7E066" d="M337.459,346.845c-0.359,0.596-0.721,1.194-1.084,1.789c1.475,5.332,2.735,9.903,3.396,12.26
				c2.119-2.194,6.11-6.548,8.56-9.814c-0.37-2.959-1.877-9.398-3.65-16.285C342.292,338.827,339.882,342.837,337.459,346.845z"/>
			<path fill="#F7E066" d="M327.014,364.218c-1.777,2.998-3.556,5.99-5.182,9.103c-0.855,1.637-1.705,3.278-2.599,4.884
				c0.396,1.439,0.727,2.681,0.977,3.65c1.484-1.402,9.45-9.22,11.94-11.975c-0.637-1.814-1.702-5.225-2.95-9.333
				C328.468,361.768,327.739,362.99,327.014,364.218z"/>
			<path fill="#FFC53A" d="M318.487,383.24c-1.939-7.548-10.876-36.833-12.931-44.341c-1.81-0.924-4.367-2.126-6.378-2.984
				c3.729,11.075,10.475,35.468,12.444,43.109C312.332,379.616,317.12,382.965,318.487,383.24z"/>
			<path fill="#BA0008" d="M309.747,377.397c-2.98-11.135-9.079-30.896-12.174-42.109c-1.411-0.905-3.331-1.772-4.304-2.21
				c2.447,8.928,9.424,33.317,11.4,40.407C305.89,374.773,309.278,376.979,309.747,377.397z"/>
			<path fill="#9E0008" d="M333.139,343.008c2.285,7.971,4.491,15.783,5.484,19.311c-1.586,1.959-3.195,3.888-4.855,5.758
				c-0.126,0.146-0.256,0.288-0.383,0.432c-0.78-2.263-2.137-6.792-3.698-12.058C330.822,351.967,331.957,347.477,333.139,343.008z"
				/>
			<path fill="#9E0008" d="M300.679,359.371c1.939,2.19,3.878,4.381,5.83,6.556c1.241,4.266,2.373,8.239,3.238,11.47
				c-0.469-0.419-3.858-2.625-5.077-3.913C303.901,370.738,302.388,365.399,300.679,359.371z"/>
			<path fill="#FFC53A" d="M296.463,366.204c0.565,0.933,4.203,4.578,6.459,6.503c-2.392-9.274-9.2-31.696-11.463-40.323
				c-0.882-0.385-5.493-2.235-7.045-2.896C287.703,340.164,295.893,365.272,296.463,366.204z"/>
			<path fill="#FF9D1C" d="M309.514,371.143c0.902,3.304,1.641,6.064,2.109,7.879c0.709,0.593,5.497,3.942,6.864,4.217
				c-0.248-0.963-0.61-2.286-1.059-3.869C314.678,376.798,312.096,373.962,309.514,371.143z"/>
			<path fill="#FF9D1C" d="M292.631,355.072c2.003,6.072,3.591,10.742,3.832,11.132c0.565,0.933,4.203,4.578,6.459,6.503
				c-0.727-2.823-1.865-6.867-3.16-11.364C297.417,359.203,295.025,357.132,292.631,355.072z"/>
		</g>
		<g>
			<path d="M296.788,328.597c0.957,0.373,10.532,0.681,11.473-6.258c-0.706-0.479-1.682-1.198-2.018-3.167
				c-1.585-1.629-3.706,1.036-6.756,1.731c-2.768,0.631-5.296,0.104-7.598-1.876c-3.814-3.284-3.466-12.617-0.989-16.652
				c4.89-7.97,14.321,6.289,17.814,11.336c4.21-2.595,7.347-0.231,9.089,2.029c5.189-4.017,17.404-7.595,17.058,3.632
				c-0.166,5.361-3.256,10.889-7.927,11.98c-4.734,1.101-7.638-4.469-9.44-8.858c-0.47,0.304-0.996,0.528-1.539,0.69
				c-1.301,7.001-0.059,13.046,5.842,15.521c-2.317,1.779-4.694,3.443-6.841,5.501c-4.162-1.373-6.143-6.085-6.257-11.618
				c-1.496,2.582-5.395,7.002-8.288,8.336C297.657,336.274,296.698,331.029,296.788,328.597z"/>
			<path fill="#D10008" d="M326.131,328.982c4.319,0.11,6.807-6.242,6.911-10.351c0.183-7.38-11.274-4.435-14.421-1.789
				c0.063,0.102,0.518,1.058,0.611,1.455c6.088-4.028,9.631-0.042,10.224,3.338c0.064,0.368-0.334,0.629-0.533,0.34
				c-2.999-4.355-6.992-4.678-9.623-0.435C320.787,325.399,321.992,328.875,326.131,328.982z"/>
			<path fill="#D10008" d="M292.423,304.1c-1.166,2.469-1.213,6.063-0.952,8.761c0.425,4.38,3.646,5.819,7.005,5.581
				c1.781-0.125,5.363-2.482,7.739-2.08c-0.093-0.13-0.186-0.257-0.293-0.379c-0.604-0.682-1.366-1.133-2.124-1.535
				c-2.054-1.093-4.388-1.172-6.526-1.966c-0.265-0.101-0.315-0.582-0.008-0.663c2.272-0.61,4.586-0.218,6.781,0.634
				c1.107,0.428,2.587,1.307,3.554,2.5c0.064-0.088,0.116-0.183,0.182-0.266C304.602,310.741,295.177,298.264,292.423,304.1z"/>
			<path fill="#D10008" d="M317.093,319.499c0.962-1.438-1.587-4.431-3.345-4.721c-1.756-0.298-4.635,0.357-5.156,2.542
				C307.717,320.976,314.236,323.775,317.093,319.499z"/>
			<path fill="#D10008" d="M314.409,341.792c1.368-1.195,2.811-2.237,4.263-3.282c-4.802-1.747-5.772-9.36-4.233-15.01
				c-0.552,0.067-2.289,0.144-2.353,0.137C309.466,329.16,309.156,337.403,314.409,341.792z"/>
			<path fill="#D10008" d="M310.339,323.255c-0.275-0.072-0.543-0.165-0.808-0.266c0.267,4.841-6.719,8.357-10.747,7.883
				c0.027,2.547,1.272,5.741,2.131,6.799C306.974,334.214,310.415,327.573,310.339,323.255z"/>
			<path fill="#FF876D" d="M330.988,322.003c-0.325-3.634-2.078-6.7-4.758-7.957c3.571-0.383,6.911,0.576,6.811,4.586
				c-0.061,2.355-0.907,5.447-2.43,7.635C330.964,324.869,331.114,323.427,330.988,322.003z"/>
			<path fill="#FF876D" d="M293.759,317.296c-1.216-0.885-2.083-2.312-2.288-4.435c-0.261-2.699-0.214-6.293,0.952-8.761
				c0.786-1.666,2.114-1.837,3.685-1.145C292.465,304.776,292.05,311.966,293.759,317.296z"/>
			<path fill="#FF876D" d="M310.527,315.207c1.045-0.466,2.288-0.589,3.221-0.429c0.775,0.127,1.699,0.78,2.413,1.591
				C314.418,317.225,311.22,317.231,310.527,315.207z"/>
			<path fill="#FF876D" d="M314.168,340.092c-0.103-0.906-0.177-2.336,0.905-2.427c1.202-0.104,2.414,0.348,3.583,0.859
				c-1.42,1.021-2.832,2.038-4.171,3.205C314.338,341.179,314.227,340.627,314.168,340.092z"/>
			<path fill="#FF876D" d="M300.005,331.442c-0.276-0.168-0.54-0.352-0.797-0.545c1.833,0.087,4.152-0.559,6.137-1.724
				C304.219,331.311,302.2,332.763,300.005,331.442z"/>
			<path fill="#A80008" d="M321.355,319.307c-0.052,0.869-0.067,1.704-0.059,2.44c0.022,1.768,0.189,3.472,0.543,5.072
				c-1.069-1.378-1.77-3.274-2.54-5.278C319.919,320.545,320.614,319.806,321.355,319.307z"/>
			<path fill="#A80008" d="M321.588,317.083c-0.739,0.271-1.522,0.663-2.355,1.215c-0.093-0.397-0.549-1.353-0.611-1.455
				c0.75-0.632,1.976-1.275,3.4-1.798C321.835,315.7,321.695,316.389,321.588,317.083z"/>
			<path fill="#A80008" d="M303.059,314.102c0.249,0.103,0.496,0.217,0.739,0.347c0.758,0.401,1.52,0.853,2.124,1.535
				c0.106,0.122,0.2,0.249,0.293,0.379c-1.272-0.214-2.892,0.363-4.397,0.966C302.359,316.369,302.77,315.269,303.059,314.102z"/>
			<path fill="#A80008" d="M303.417,312.229c0.119-0.876,0.182-1.766,0.185-2.647c1.721,1.985,3.228,3.925,4.179,5.106
				c-0.065,0.082-0.118,0.177-0.182,0.266c-0.967-1.193-2.446-2.071-3.554-2.5C303.837,312.375,303.628,312.301,303.417,312.229z"/>
			<path fill="#A80008" d="M308.592,317.32c0.114-0.488,0.361-0.885,0.673-1.226c0,0.031-0.007,0.057-0.005,0.089
				c0.108,1.44,1.299,2.493,2.39,2.984c1.793,0.805,4.588,0.455,5.295-1.671c0.38,0.736,0.503,1.474,0.148,2.003
				C314.236,323.775,307.717,320.976,308.592,317.32z"/>
			<path fill="#A80008" d="M310.574,328.377c0.311-1.687,0.831-3.304,1.511-4.74c0.064,0.007,1.802-0.07,2.353-0.137
				c-0.398,1.463-0.625,3.056-0.663,4.645C312.724,328.526,311.65,328.674,310.574,328.377z"/>
			<path fill="#A80008" d="M309.08,327.665c-0.342-0.238-0.664-0.505-0.978-0.782c0.936-1.138,1.509-2.456,1.429-3.894
				c0.265,0.102,0.532,0.194,0.808,0.266c0.024,1.359-0.303,2.952-0.95,4.605C309.285,327.797,309.184,327.738,309.08,327.665z"/>
		</g>
	</g>
	<path d="M500.002,313.054c-0.012-0.014-0.025-0.025-0.037-0.038c0.306-0.508,0.561-1.067,0.758-1.692
		c0.795-2.555,0.095-5.521-1.153-7.786c-1.168-2.119-3.112-3.937-5.536-4.09c-0.119-2.22-2.068-4.206-4.295-5.651
		c0.06-0.097,0.113-0.205,0.148-0.333c4.855-17.061,7.348-35.189,7.611-52.976c0.22-14.925-1.732-28.816-7.139-42.724
		c-4.6-11.83-12.336-23.054-23.371-29.068c-10.541-5.746-23.038-6.507-34.467-4.203c-12.532,2.528-25.961,7.92-33.207,19.34
		c-1.225-0.994-2.674-1.702-4.041-1.99c-3.553-0.748-7.177,0.274-10.317,2.021c-4.267,2.373-8.335,8.123-8.151,13.42
		c-3.98,1.892-6.137,9.295-6.324,12.998c-0.266,5.292,2.293,13.334,8.232,14.299c0.05,0.008,0.092,0.001,0.136-0.002
		c1.139,2.418,3.233,4.382,5.624,5.67c3.943,2.123,8.808,1.946,12.941,0.403c3.518,11.437,15.146,16.713,26.243,13.557
		c1.204,4.643,2.262,9.112,5.074,13.12c2.925,4.175,7.564,6.562,12.284,7.694c4.408,1.059,10.086,0.999,13.229-2.963
		c0.841-1.061,1.354-2.194,1.622-3.362c3.321,0.49,6.598-2.087,8.471-4.739c2.515-3.563,3.466-8.36,3.541-12.696
		c0.037-2.188-0.317-4.533-1.025-6.758c8.341,3.835,11.377,16.217,13.048,24.609c2.033,10.202,3.025,21.739,1.131,32.12
		c-2.69,0.159-5.483,1.089-6.905,3.035c-11.586-5.622-18.004,16.84-9.119,20.185c-0.474,4.506,2.536,9.83,5.522,12.808
		c4.484,4.467,11.792,5.547,16.621,1.927c3.811,1.735,7.963-0.297,10.626-3.54C500.38,322.478,502.949,316.856,500.002,313.054z"/>
	<path fill="#FFFFFF" d="M456.057,255.618c-0.586-4.099-2.996-4.821-2.77-4.099c1.11,3.539,0.692,5.812-2.056,8.609
		c-3.072,3.124-8.757,1.964-12.356,0.693c-7.323-2.584-12.129-10.891-13.002-18.608c-0.086-0.772-0.897-1.183-1.563-1.076
		c-4.934,0.79-9.859,1.013-14.613-0.854c-5.296-2.079-8.447-6.907-9.77-12.46c-0.193-0.818-1.352-1.304-2.052-0.936
		c-3.256,1.717-7.033,1.89-10.501,0.808c-3.567-1.112-5.249-3.593-6.192-6.889c-0.16-0.553-3.231-0.776-3.235-0.283
		c-0.006,0.839,0.103,1.645,0.308,2.417c-3.551-3.15-5.061-7.215-4.906-12.222c0.159-5.165,1.84-8.667,4.123-10.315
		c0.423,1.019,1.056,1.988,1.944,2.869c0.458,0.455,1.133,0.032,1.032-0.592c-0.479-2.98-1.038-5.822-0.007-8.768
		c0.968-2.766,2.995-5.051,5.203-6.817c2.249-1.801,4.676-2.934,7.534-2.815c3.147,0.13,4.896,2.001,6.528,4.259
		c-1.045,1.094-1.882,2.417-2.427,4.003c-0.125,0.358,0.251,0.636,0.528,0.373c5.258-5.026,12.145-6.447,18.996-4.562
		c3.176,0.875,6.185,2.536,8.578,4.887c2.654,2.606,4.618,6.712,5.542,11.439c0.253,1.292,1.962-1.605,1.345-6.041
		c7.818-3.327,13.664-0.017,18.641,6.71c4.814,6.511,8.429,15.966,6.234,19.255c-2.683-0.137-4.327,1.282-3.735,1.406
		c7.541,1.604,10.949,8.209,10.841,15.73C464.074,253.576,458.672,255.562,456.057,255.618z"/>
	<path fill="#C50000" d="M465.818,231.878c-1.358-2.84-3.36-5.24-5.938-6.468c1.406-3.371,0.306-7.589-0.669-10.945
		c-1.241-4.28-3.518-8.391-6.235-11.835c-5.599-7.102-13.496-10.042-21.422-6.522c-0.792-1.879-2.002-3.62-3.212-4.992
		c-2.725-3.089-6.538-5.038-10.382-6.1c-4.945-1.365-11.649-1.188-16.227,1.839c-0.214-0.466-0.479-0.909-0.787-1.329
		c6.664-10.825,19.067-16.223,30.83-18.382c12.318-2.262,25.962-1.664,36.77,5.456c11.376,7.49,17.92,21.023,21.729,34.019
		c4.512,15.395,4.946,31.599,3.54,47.529c-1.148,13.009-3.83,25.728-5.961,38.577c-1.19-0.593-4.342-1.258-4.474-1.282
		c1.839-11.347,1.285-23.936-1.192-34.965C480.206,247.658,475.679,233.898,465.818,231.878z"/>
	<path fill="#9A0000" d="M465.844,223.954c1.215-12.451-3.58-20.298-14.01-24.371c-4.412-11.622-18.764-13.968-24.072-9.269
		c-0.035,0.033-0.075,0.061-0.114,0.084c0.233,0.236,0.474,0.467,0.695,0.718c1.21,1.371,2.42,3.112,3.212,4.992
		c7.926-3.519,15.823-0.579,21.422,6.522c2.717,3.444,4.994,7.555,6.235,11.835c0.975,3.356,2.075,7.574,0.669,10.945
		c2.577,1.228,4.58,3.627,5.938,6.468c1.88,0.385,3.565,1.199,5.077,2.322C469.749,230.778,467.362,227.45,465.844,223.954z"/>
	<path fill="#9A0000" d="M405.587,179.667c-1.742,1.749-3.308,3.694-4.64,5.859c0.308,0.42,0.573,0.862,0.787,1.329
		c4.577-3.027,11.281-3.204,16.227-1.839c2.885,0.796,5.751,2.092,8.152,3.994C421.816,182.102,413.107,177.056,405.587,179.667z"/>
	<path fill="#9A0000" d="M487.712,284.808c-1.055-0.545-2.227-1.041-3.439-1.391c-0.176,2.719-0.468,5.406-0.892,8.026
		c0.132,0.023,3.283,0.689,4.474,1.282c0.394-2.374,0.805-4.74,1.224-7.107C488.635,285.327,488.182,285.052,487.712,284.808z"/>
	<path fill="#FFFFFF" d="M489.049,327.357c1.226-2.03,0.435-5.379-0.13-4.25c-1.585,3.182-4.368,4.922-8.023,5.332
		c-2.969,0.329-5.791-1.247-7.973-3.192c-2.573-2.293-7.447-9.638-3.054-14.626c0.86-0.979-2.629-1.404-3.995,1
		c-0.881-0.668-3.679-3.105-1.814-8.871c1.305-4.041,4.927-7.878,9.159-6.173c-0.177,1.522,1.222,3.27,1.418,2.66
		c1.385-4.287,5.524-4.767,9.23-3.823c3.395,0.865,5.351,2.618,6.401,5.773c-0.768,0.889-0.539,4.199-0.079,3.477
		c3.025-4.727,5.97-2.889,7.369,0.674c1.67,4.256,0.508,8.494-3.565,10.181c-0.784,0.326,3.259,1.052,4.268-0.086
		C499.523,323.662,493.133,327.866,489.049,327.357z"/>
	<ellipse fill="#DCA20F" cx="386.365" cy="417.278" rx="89.768" ry="15.748"/>
	<path d="M455.422,277.581c0.614-5.885-2.288-11.38-7.472-13.706c-0.473-0.212-1.003-0.37-1.569-0.479
		c-1.078-9.274-1.984-19.141-5.091-26.152c-4.93-11.125-12.052-15.977-17.784-19.046c-6.331-3.392-13.742-3.65-20.819-3.768
		c-6.236-1.445-14.241-4.781-19.873-6.174c-0.189-0.047-0.378-0.069-0.563-0.069c-0.993,0-1.912,0.64-2.191,1.697
		c-0.316,1.193,0.376,2.577,1.564,2.87c1.658,0.411,4.117,1.246,6.564,2.105c-6.316,0.431-15.679,1.962-22.787,3.777
		c-7.456,1.905-21.076,6.685-31.225,11.968c-8.675,4.517-15.855,10.31-18.891,13.656c-5.793,6.386-6.553,15.09-5.217,21.7
		c1.337,6.612,6.954,10.927,12.203,12.476c5.231,1.545,10.796,1.941,16.209,1.977c5.896,0.039,15.772-0.872,21.793-1.835
		c0.579,7.663,2.012,15.273,1.77,22.97c-0.333,10.669-1.881,23.416-3.02,27.563c-9.979,20.133-13.052,53.187-13.074,62.902
		c5.272,0.938,19.009,1.855,27.999,2.094c0.035,2.678,0.179,13.93,0.325,17.685c-2.063-0.332-4.859-0.673-5.816-0.763
		c-4.897-0.465-11.772-0.662-16.553,0.728c-7.039,2.043-7.288,11.096-0.167,13.329c6.222,1.952,16.533,0.394,22.126-2.869
		c0.227,2.235,0.498,3.815,1.353,3.847c4.079,0.145,10.27-1.466,10.129-2.784c-0.396-3.714-3.656-8.645-6.557-10.064
		c-0.025-3.218-0.307-16.233-0.357-19.003c2.44,0.049,42.848,0.682,45.339,0.747c0.265,3.348,0.413,11.536,0.482,14.993
		c-2.497-0.271-10.09-0.335-13.433-0.065c-3.839,0.313-8.606,1.502-11.452,4.453c-2.272,2.354-2.397,6.058-0.179,8.675
		c4.79,5.654,19.996,1.231,24.981-1.79c0.281,1.759,0.281,3.225,0.281,4.104c0,0.879,9.566-0.439,10.41-2.491
		c0.283-0.687-1.97-9.083-6.331-12.308c0.034-2.154,0.341-10.535-0.147-15.899c11.328,0.322,20.342-0.207,23.557-1.011
		c1.146-14.751-3.254-41.6-9.338-58.739c1.824-9.043,3.716-29.045,4.328-45.503C447.002,289.351,454.391,287.495,455.422,277.581z"
		/>
	<path fill="#FFFFFF" d="M389.401,222.335c2.11-1.905,4.591-3.923,8.663-3.641c4.559,0.316,7.449,2.672,8.965,5.381
		c2.127,3.8,2.582,10.289-0.76,14.404c-2.699,3.321-7.446,4.59-12.157,3.007c-4.779-1.605-7.742-5.228-8.055-9.812
		C385.794,227.828,387.289,224.239,389.401,222.335z"/>
	<path fill="#D7441E" d="M357.528,422.588c-1.713-0.012-3.547-0.323-4.706-0.776c-3.084-1.204-3.609-4.541-1.829-6.154
		c1.151-1.042,3.169-1.714,5.589-2.062C358.269,416.248,358.566,419.88,357.528,422.588z"/>
	<path fill="#C50000" d="M382.108,421.52c0.142,0.44-5.064,1.903-5.204,1.172c-0.302-1.56-0.833-7.869-3.359-4.884
		c-2.911,2.68-10.099,4.344-14.761,4.639c1.056-2.741,0.201-6.544-1.447-8.944c1.11-0.126,2.291-0.189,3.503-0.189
		c5.917,0,13.954,0.586,16.908,2.344C380.533,417.317,381.969,421.079,382.108,421.52z"/>
	<path fill="#D7441E" d="M409.548,422.199c-1.142,0.214-2.248,0.344-3.285,0.344c-2.954,0-5.112-1.496-5.206-3.808
		c-0.094-2.311,2.782-4.374,5.77-5.128c0.393-0.1,0.836-0.194,1.31-0.282C409.951,415.716,410.663,419.404,409.548,422.199z"/>
	<path fill="#C50000" d="M431.908,421.225c-0.142,0.587-5.066,2.053-5.206,1.317c-0.142-0.73,0-3.954-1.267-5.274
		c-0.261-0.271-6.683,3.679-14.738,4.69c0.838-3.116,0.158-6.411-1.994-8.732c5.228-0.869,16.857-1.058,18.843,0.235
		C429.797,414.927,432.048,420.64,431.908,421.225z"/>
	<path fill="#C50000" d="M447.252,389.845c-15.636,0.827-87.925,0.023-96.464-2.336c-0.341-5.693,3.702-38.088,10.939-54.161
		c18.01,6.32,50.283,5.537,76.441,3.694C442.576,349.084,448.169,377.534,447.252,389.845z"/>
	<path fill="#FFDBCC" d="M435.482,282.031c-1.589-1.49-1.589,1.983-0.311,3.816c1.921,2.752,3.968,3.985,7.008,4.24
		c-0.94,17.635-1.72,31.173-3.725,42.32c-25.445,2.485-64.223,2.505-75.293-3.622c1.608-4.383,2.802-17.343,3.022-20.993
		c0.141-2.353,0.332-4.684,0.343-7.045c0.009-2.626-0.167-5.255-0.385-7.87c-0.418-5.018-1.085-10.002-1.439-15.023
		c6.233-1.078,12.423-2.391,18.617-3.732c1.196-0.258,4.151-5.378,2.958-5.121c-8.212,1.778-20.563,4.153-28.88,5.332
		c-9.27,1.268-17.977,1.818-28.08,0.835c-10.104-0.98-13.984-7.162-14.636-14.614c-0.492-5.627,1.91-12.029,8.622-17.688
		c4.553-3.838,9.354-6.843,19.546-11.585c10.192-4.742,29.706-11.743,43.76-12.251c-1.27,1.354-2.729,3.521-3.444,5.256
		c-2.135,5.179-1.566,12.138,2.132,16.567c2.062,2.47,5.095,4.067,7.788,4.937c-2.071,0.055-4.144,0.236-6.201,0.532
		c-0.623,0.09-0.761,1.105-0.069,1.203c6.953,0.997,13.775,1.338,20.623,3.112c1.402,0.365,2.076-2.022,0.72-2.525
		c-2.22-0.82-4.491-1.401-6.79-1.781c2.68-0.597,5.146-2.085,7.64-4.844c4.862-5.381,5.632-16.308-0.306-22.16
		c4.846,0.138,9.927,1.808,13.326,3.247c2.362,1.084,10.772,6.397,14.88,16.383c3.002,7.294,4.127,15.352,5.131,24.503
		c-3.672,0.724-7.142,3.073-6.895,6.886c0.045,0.676,0.956,1.389,1.325,0.948c2.508-2.993,5.999-3.996,8.861-3.158
		c5.084,1.488,5.561,6.452,4.766,10.421C448.308,287.495,439.053,285.375,435.482,282.031z"/>
	<path fill="#F2C9B5" d="M381.799,274.449c-5.687,1.224-11.372,2.415-17.097,3.405c0.294,4.16,0.796,8.297,1.198,12.444
		C373.379,287.407,380.082,282.167,381.799,274.449z"/>
	<path fill="#F2C9B5" d="M410.846,321.258c2.183,7.331,10.224,12.362,16.729,9.08c5.678-2.865,11.161-14.271,6.844-20.596
		C431.367,320.018,419.543,325.668,410.846,321.258z"/>
	<path fill="#F2C9B5" d="M423.953,229.788c4.067,2.133,7.564,5.248,10.45,8.902c1.407,1.784,3.014,3.883,4.508,6.168
		c-0.561-2.023-1.216-3.99-2.004-5.902c-4.108-9.986-12.518-15.299-14.88-16.383c-3.399-1.439-8.48-3.109-13.326-3.247
		c1.895,1.869,3.105,4.255,3.719,6.812C416.367,226.978,420.357,227.9,423.953,229.788z"/>
	<path fill="#F2C9B5" d="M383.935,222.736c0.76-1.347,1.765-2.735,2.674-3.706c-4.734,0.172-10.09,1.081-15.498,2.392
		C375.393,221.726,379.666,222.162,383.935,222.736z"/>
	<path d="M401.807,233.629c2.99,0,5.483-2.595,5.483-5.708c0-3.114-2.493-5.71-5.483-5.71c-2.989,0-5.482,2.596-5.482,5.71
		C396.324,231.035,398.817,233.629,401.807,233.629z"/>
	<path d="M289.338,361.29c2.435,0.038,4.726-0.665,6.945-2.732c1.195-1.114,2.9-1.409,4.161-0.225
		c1.071,1.006,1.446,3.25,0.217,4.333c-1.939,1.711-8.634,4.871-11.435,2.658C287.697,364.121,287.58,361.262,289.338,361.29z"/>
	<path d="M292.809,367.106c4.507,1.175,8.276-1.176,9.871-2.077c3.41-1.932,5.826,3.654,2.498,5.703
		c-4.189,2.582-10.372,1.878-12.377,0.483C290.795,369.821,291.468,366.755,292.809,367.106z"/>
	<path d="M299.97,373.477c1.458,0.694,3.75,1.665,6.372,0.831c3.51-1.116,4.759,4.325,1.239,4.99
		c-2.033,0.384-3.902,0.17-5.804-0.664c-0.917-0.401-1.935-0.801-2.617-1.554C297.447,375.186,298.997,373.015,299.97,373.477z"/>
	<path d="M287.709,357.511c-1.246-1.458-1.287-4.729,0.963-5.643c4.021-1.631,8.161,1.343,7.493,4.359
		C295.529,359.102,290.482,360.754,287.709,357.511z"/>
	<path d="M428.227,283.839c-0.836-3.536-1.934-7.749-4.397-12.84c-2.461-5.092-7.818-13.671-13.785-17.124
		c1.927,12.594-2.781,20.928-9.02,25.924c-6.435,5.15-15.083,7.097-22.853,4.31c-0.624-0.222-0.999,0.71-0.472,1.074
		c4.337,3.004,9.356,3.427,14.191,2.288c2.123,9.458,6.42,19.042,13.252,23.84c6.993,4.912,16.7,4.536,21.124-3.475
		C430.206,300.708,430.01,291.38,428.227,283.839z"/>
	<path fill="#FFFFFF" d="M403.65,281.525c3.704-2.992,11.172-10.964,9.554-21.633c4.132,4.791,7.316,10.026,9.089,15.964
		c0.948,13.237-13.498,26.027-23.87,22.912c-1.967-3.876-3.365-8.119-4.341-11.923C397.555,285.686,400.857,283.782,403.65,281.525z
		"/>
	<path d="M432.885,306.381c-1.588,8.19-5.403,12.513-10.423,14.472c-3.893,1.52-8.879,1.339-12.661-0.443
		c-0.473-0.224-0.77,0.541-0.331,0.821c4.933,3.144,10.138,3.928,15.622,2.102c5.378-1.787,9.934-6.992,10.269-13.564
		C435.488,307.284,433.286,304.313,432.885,306.381z"/>
	<path d="M327.364,340.116c5.526,2.463,8.994,0.939,11.003,0.131c-0.249-0.565-0.467-1.137-0.627-1.706
		c-4.387,0.897-12.225-2.516-14.588-4.197c-4.545-3.233-1.818-8.094,0.716-6.143c4.888,3.763,8.52,5.58,13.688,6.198
		c0.116-0.541,0.272-1.074,0.486-1.585c-4.867-1.634-10.116-6.822-12.549-10.876c-1.653-2.752,2.833-5.312,4.47-2.612
		c2.997,4.94,6.263,8.953,9.753,10.886c0.394-0.425,2.183-0.771,3.033-1.366c-1.424-1.825-2.547-4.417-2.946-5.791
		c-0.618-2.143-0.353-4.012,0.696-5.926c1.116-2.033,3.643-2.073,5.237-0.79c1.524,1.228,1.332,2.139-0.157,4.163
		c-1.489,2.023,0.479,6.891,2.228,8.316c1.747,1.424,3.985,5.238,3.893,8.537c8.668,6.606,19.409,8.674,23.813,9.61
		c5.113,1.084,10.354,1.434,15.554,1.011c4.416-0.358,9.272-1.964,12.668-3.569c0.973-0.46,2.369,2.154,1.706,3.106
		c-2.631,3.777-8.635,4.908-12.765,5.556c-5.082,0.801-10.273,0.553-15.349-0.13c-5.247-0.706-17.629-4.72-26.716-11.131
		c-2.494,1.431-5.845,3.158-10.824,1.158c-6.521,4.4-9.014,2.859-11.842,1.87C324.768,343.724,325.268,339.179,327.364,340.116z"/>
	<ellipse fill="#FFFFFF" cx="404.182" cy="226.518" rx="1.786" ry="1.859"/>
	<ellipse fill="#FFFFFF" cx="402.6" cy="224.068" rx="0.852" ry="0.884"/>
	<path d="M385.435,408.4c-0.789-3.25-5.384-3.681-7.467-3.495c-1.595-1.2-4.281-1.439-5.884-1.232
		c-2.692,0.347-3.954,2.22-3.701,5.16c0.25,2.941,2.44,4.384,4.48,4.677c2.5,0.36,4.421,1.144,6.788,1.933
		c1.199,0.399,2.438,0.101,3.531-0.446C385.469,413.856,385.993,410.685,385.435,408.4z"/>
	<path fill="#FFFFFF" d="M381.61,413.736c-3.378,1.042-4.381-1.831-8.634-1.729c-1.924,0.05-3.308-2.117-3.401-3.304
		c-0.439-5.554,6.649-3.462,10.289-0.522c0.327,0.262,0.502-0.917-0.394-1.922c2.147,0.078,4.025,0.944,4.41,3.491
		C384.138,411.454,383.154,413.259,381.61,413.736z"/>
	<path d="M427.768,403.667c-0.839-0.554-6.07-2.964-8.475-0.085c-1.358,1.626-2.234,5.58-0.29,7.006
		c1.944,1.425,4.867,1.893,6.765,1.908c1.896,0.014,3.546,0.765,5.254,0.935c1.702,0.172,3.189-0.501,3.713-2.97
		C435.58,406.472,431.269,402.376,427.768,403.667z"/>
	<path fill="#FFFFFF" d="M429.159,411.575c-2.689-0.874-6.235-0.419-7.837-1.048c-1.604-0.629-1.922-1.835-2.015-2.95
		c-0.091-1.083,0.316-2.169,0.881-3.069c0.983-1.569,2.865-1.414,4.45-0.99c1.928,0.518,2.789,1.836,4.068,3.131
		c0.564,0.569,0.183-1.641-0.086-2.067C434.102,403.903,435.509,413.639,429.159,411.575z"/>
	<path d="M485.888,371.932c-1.478-1.434-3.183-2.743-4.243-4.521c-1.738-2.909,0.488-6.175,0.534-9.227
		c0.102-6.635-5.783-8.443-10.41-11.689c-5.607-3.932-3.59-11.406-6.796-16.676c-1.358-2.228-3.914-3.146-5.771-4.849
		c-2.174-1.994-1.938-6.383-2.866-9.032c-1.063-3.035-3.366-5.525-4.035-8.677c-0.301-1.414-0.118-4.4-1.12-6.784
		c-1.071-2.551-3.325-4.49-3.403-5.592c-0.149-2.142,0.458-3.766-0.377-5.667c-0.788-1.794-6.891-3.075-8.543-4.016
		c-3.106-1.77-6.309-0.496-5.565,3.522c0.376,2.041,1.508,3.828,2.419,5.685c5.415,11.029,0.388,19.617,1.56,23.156
		c4.535,13.699-1.06,15.667-8.847,11.966c-3.272-1.556-6.804,1.181-10.734,2.914c-3.173,1.396-5.413-2.694-8.241-4.12
		c-3.558-1.795-7.181-0.293-10.838-1.443c-3.362-1.058-4.808-4.719-6.542-7.374c-2.108-3.226-5-3.793-8.266-5.488
		c-4.431-2.298-2.888-7.361-4.638-11.172c-1.332-2.902-4.567-4.299-6.456-6.772c-1.474-1.933-0.721-4.383-0.853-6.58
		c-0.081-1.361-0.922-2.375-1.9-3.249c-2.429-2.178-3.826-6.163-4.434-9.233c-4.688,0.472-12.322,1.733-14.137,2.206
		c1.739,9.054,9.563,11.084,11.2,16.632c0.883,2.997,2.242,5.247,4.35,7.605c0.946,1.058,1.903,2.035,2.617,3.267
		c1.132,1.962,1.074,4.365,1.207,6.547c0.153,2.579,0.77,5.149,2.568,7.135c2.234,2.466,5.278,4.504,6.971,7.351
		c1.308,2.198,1.415,5.15,3.701,6.752c3.059,2.145,6.213,2.147,9.846,2.318c3.316,0.154,6.602,2.018,9.523,3.408
		c1.456,0.695,2.95,1.357,4.281,2.266c1.301,0.887,1.013,2.038,1.29,3.336c0.473,2.21,1.581,4.243,3.67,5.332
		c2.878,1.501,5.633,1.287,7.301,4.578c1.017,2.006,1.353,4.328,3.124,5.918c3.283,2.947,7.9,2.717,10.292,6.855
		c3.066,5.303,8.022,7.065,14.063,7.688c3.177,0.327,6.422,0.474,9.614,0.484c1.814,0.007,3.608,0.023,5.363,0.508
		c2.189,0.607,3.952,1.934,5.833,3.113c5.596,3.508,13.431,2.831,18.664-1.089C489.934,376.924,488.023,374.001,485.888,371.932z"/>
	<path fill="#FFFFFF" d="M479.076,380.733c-5.033,1.075-8.869-1.185-12.892-3.678c-2.533-1.57-5.366-1.93-8.309-1.971
		c-3.485-0.047-6.96-0.156-10.432-0.442c-4.081-0.339-8.053-1.331-11.017-4.198c-1.317-1.274-2.02-3.251-3.129-4.719
		c-0.962-1.273-2.699-1.964-4.138-2.579c-2.036-0.866-4.059-1.366-5.576-3.058c-0.943-1.051-1.364-2.56-1.839-3.845
		c-0.809-2.189-2.243-4.154-4.508-5.111c-1.113-0.47-2.282-0.752-3.425-1.146c-2.061-0.711-3.034-2.954-3.259-4.924
		c-0.236-2.07-0.646-3.29-2.588-4.491c-2.443-1.512-5.043-2.726-7.688-3.872c-3.349-1.45-6.19-1.768-9.838-1.926
		c-2.46-0.109-5.014-1.03-6.36-3.135c-0.762-1.188-1.097-2.68-1.653-3.965c-1.259-2.896-3.92-4.565-6.171-6.649
		c-1.725-1.603-3.011-3.51-3.558-5.771c-0.493-2.05-0.33-4.227-0.699-6.302c-0.659-3.707-3.729-5.985-5.86-8.884
		c-2.421-3.293-2.363-7.38-5.436-10.338c-2.866-2.754-6.605-7.203-7.428-10.196c3.252-0.551,9.648-1.5,10.81-1.497
		c0.303,1.812,2.788,6.898,4.541,8.612c1.727,1.69,2.141,3.004,1.973,5.372c-0.107,1.534,0.04,2.768,0.716,4.141
		c1.052,2.147,3.489,3.517,5.175,5.138c2.941,2.829,1.827,6.24,2.852,9.658c0.814,2.714,3.048,4.272,5.609,5.381
		c1.525,0.66,2.924,1.22,4.184,2.33c1.43,1.259,2.33,3.283,3.284,4.887c1.335,2.242,2.982,3.975,5.443,5.026
		c3.961,1.69,8.057-0.563,11.8,2.117c1.902,1.361,3.247,3.317,5.61,4.029c1.946,0.584,4.609-1.022,6.878-2.123
		c2.267-1.104,5.375-1.222,7.333-0.395c2.558,1.078,6.124,3.068,9.827,0c2.854-2.366,2.647-9.213,0.379-14.252
		c-1.735-3.855,4.006-9.607-1.48-22.331c-0.93-2.154-2.292-4.107-3.047-6.329c-0.393-1.153-0.476-2.374,0.29-3.152
		c2.497,2.994,6.354,4.096,9.907,3.78c1.738,1.43-1.061,3.779,1.736,7.587c1.17,1.594,2.17,2.992,2.609,4.942
		c0.385,1.693,0.323,3.488,0.604,5.2c0.475,2.899,2.514,5.197,3.708,7.813c1.365,2.992,1.296,6.417,2.675,9.4
		c0.789,1.711,2.724,2.546,4.235,3.528c3.428,2.229,4.022,5.857,4.596,9.537c0.399,2.567,0.96,5.025,2.41,7.236
		c1.46,2.226,3.978,3.583,6.282,4.819c3.876,2.078,6.815,4.945,5.978,9.655c-0.452,2.545-1.523,5.031-0.483,7.558
		c1.437,3.5,6.093,5.159,7.172,8.691C487.769,378.809,480.766,380.374,479.076,380.733z"/>
</g>
</svg>
