<?xml version="1.0" encoding="utf-8"?>
<!-- Generator: Adobe Illustrator 17.0.0, SVG Export Plug-In . SVG Version: 6.00 Build 0)  -->
<!DOCTYPE svg PUBLIC "-//W3C//DTD SVG 1.1//EN" "http://www.w3.org/Graphics/SVG/1.1/DTD/svg11.dtd">
<svg version="1.1" id="Layer_1" xmlns="http://www.w3.org/2000/svg" xmlns:xlink="http://www.w3.org/1999/xlink" x="0px" y="0px"
	 width="800px" height="600px" viewBox="0 0 800 600" enable-background="new 0 0 800 600" xml:space="preserve">
<g>
	<path fill="#0F0F0F" d="M456.54,346.363c-5.803-0.585-12.205-0.827-17.735-2.776c-6.194-2.18-9.264-7.617-10.426-13.775
		c-1.226-6.501-1.039-13.344-1.212-19.936c-0.196-7.746-0.283-15.498-0.325-23.248c-0.101-20.259-0.106-40.47-0.023-60.737
		c0.048-11.903-0.104-23.969,1.569-35.777c-13.336,5.231-27.262,9.179-41.259,12.183c-3.618,0.777-7.25,1.444-10.9,1.996
		c-1.009,0.152-4.321,0.115-4.473,1.111c-0.074,0.455-0.71,3.452-0.364,3.789c4.95,0.364,9.948,0.751,14.85,1.51
		c6.791,0.871,10.432,6.171,11.061,12.617c0.654,6.75,0.627,13.582,0.7,20.356c0.101,9.34,0,18.685,0.097,28.041
		c0.108,10.401-0.097,20.768-0.205,31.155c-0.074,7.132-0.203,14.263-0.371,21.392c0.115,7.219-1.873,14.782-8.695,18.408
		c-6.282,3.341-14.057,3.009-20.936,3.789c-1.95,0.219-1.65,0.639-1.65,2.481c0,1.348-0.461,2.105,0.984,2.091
		c4.104-0.054,8.209-0.123,12.308-0.227c15.534-0.379,31.034-0.687,46.569-0.384c6.28,0.123,12.553,0.325,18.828,0.455
		c3.095,0.064,6.19,0.111,9.285,0.15c1.664,0.02,1.837,0.268,2.046-1.329C456.411,348.591,456.501,347.479,456.54,346.363
		L456.54,346.363z M456.89,337.811c2.129,0.211,4.261,0.408,6.39,0.6c0.715,0.063,1.639,3.977,1.712,4.473
		c0.602,4.458,0.35,11.868-2.779,15.391c-0.281,0.32-0.896,1.346-1.334,1.344c-0.915-0.01-1.83-0.015-2.745-0.02
		c-4.169-0.028-8.342-0.084-12.509-0.167c-7.868-0.158-15.733-0.422-23.6-0.542c-16.318-0.251-32.59,0.305-48.901,0.592
		c-3.411,0.06-6.826,0.099-10.241,0.121c-2.051,0.015-2.274-0.024-3.395-1.821c-1.611-2.312-1.763-5.452-1.807-8.168
		c-0.048-2.987-0.078-6.653,1.708-9.206c1.166-1.668,1.908-1.794,3.853-2.028c3.719-0.451,7.446-0.797,11.174-1.117
		c5.929-0.507,12.887-1.007,14.191-8.01c0.585-3.164,0.415-6.495,0.477-9.702c0.081-3.911,0.155-7.824,0.212-11.736
		c0.09-6.424,0.134-12.853,0.177-19.247c0.064-9.475,0.078-18.95,0.064-28.425c-0.009-6.411-0.021-12.801-0.108-19.212
		c-0.083-6.029,0.134-12.295-0.793-18.27c-0.767-4.94-8.681-4.114-12.375-4.474c-2.708-0.265-5.422-0.474-8.139-0.634
		c-1.954-0.114-2.496,0.105-3.632-1.518c-2.765-3.95-1.899-10.617-0.482-14.963c0.629-1.938,1.968-4.147,4.169-4.375
		c3.698-0.383,7.379-0.896,11.036-1.547c13.882-2.468,27.585-6.373,40.877-11.056c2.696-0.952,5.881-2.884,8.817-2.682
		c2.387,0.157,5.162,1.394,6.86,3.084c1.505,1.526,1.669,3.138,1.339,5.103c-0.551,3.306-0.866,6.617-1.104,9.951
		c-1.362,19.192-0.624,38.606-0.668,57.837c-0.039,15.491-0.064,30.98,0.242,46.486c0.136,7.21,0.053,14.548,0.82,21.725
		c0.286,2.662,0.71,5.935,2.47,8.066c2.076,2.505,6.047,2.588,9.024,3.056C450.88,337.195,453.888,337.512,456.89,337.811
		C458.517,337.973,456.89,337.811,456.89,337.811z"/>
	<path fill="#0F0F0F" d="M531.03,289.026c-0.247,2.988-0.493,5.977-0.742,8.965c-0.124,1.49-0.246,2.981-0.369,4.471
		c-0.081,0.988-1.099,0.472-1.97,0.41c-1.82-0.128-3.641-0.256-5.457-0.385c-1.058-0.074-1.166,0.116-1.106-0.885
		c0.182-2.971,0.329-5.906,0.343-8.884c0.06-10.113-1.383-20.504-4.079-30.231c-5.718-20.618-14.703-39.949-22.93-59.643
		c-3.987-9.539-7.653-19.208-10.813-29.05c-2.966-9.232-5.648-18.611-6.692-28.271c-1.081-9.976-0.422-19.964,0.021-29.956
		c0.06-1.304,0.118-2.608,0.173-3.911c0.035-0.705,1.821-0.249,2.376-0.227c1.781,0.074,3.567,0.147,5.349,0.22
		c1.265,0.053,0.793,0.551,0.758,1.786c-0.122,4.596-0.069,9.239,0.355,13.796c1.82,19.842,9.787,39.451,17.424,57.729
		c8.34,19.964,17.449,39.59,23.229,60.497C530.873,259.82,531.684,274.224,531.03,289.026L531.03,289.026z M556.568,201.053
		c-0.343,3.67-0.694,7.34-1.042,11.011c-0.06,0.63,0.106,3.397-0.364,3.854c-0.502,0.486-4.429-0.412-5.222-0.485
		c-0.827-0.077-2.657,1.014-3.194,0.677c-0.463-0.291-0.816-2.6-0.968-3.087c-1.161-3.634-2.323-7.268-3.484-10.901
		c-4.911,1.57-9.822,3.14-14.739,4.709c-0.226-0.71-0.438-2.711-1.042-3.169c-0.818-0.619-3.719-0.307-4.772-0.394
		c-0.528-0.043,0.295-6.973,0.353-7.76c0.311-4.026-0.526-9.955,4.047-11.803c5.614-2.272,11.695-3.737,17.473-5.579
		c3.208-1.024,6.206,0.221,7.259,3.519c1.313,4.115,2.627,8.229,3.941,12.344C555.485,196.093,556.859,198.754,556.568,201.053
		L556.568,201.053z M544.931,192.715c0.182,0.036,0.364,0.07,0.551,0.106c-0.615-1.916-1.224-3.833-1.834-5.75
		c-3.429,1.096-6.86,2.191-10.29,3.286c-0.728,0.234-2.307,0.319-2.371,1.179c-0.138,1.792-0.276,3.584-0.413,5.377
		c2.627-0.84,5.254-1.679,7.881-2.52C540.522,193.733,542.727,192.697,544.931,192.715L544.931,192.715z M546.998,292.721
		c-1.058-0.448-2.662-0.485-3.862-0.676c-1.353-0.215-1.171-0.145-1.044-1.467c0.355-3.625,0.705-7.249,1.053-10.875
		c0.433-4.502,2.205-6.584,6.969-6.647c5.019-0.068,10.038-0.137,15.058-0.206c4.226-0.06,7.37,1.083,7.547,5.767
		c0.173,4.593,0.125,9.204,0.187,13.799c0.074,5.088-0.564,9.983-1.136,15.048c-0.134,1.171-0.265,2.343-0.399,3.512
		c-0.025,0.212-2.823-0.157-3.125-0.183c-1.357-0.12-2.731-0.311-4.093-0.362c-1.512-0.056-1.3,0.06-1.32-1.407
		c-0.058-4.509-0.117-9.016-0.187-13.525c-5.201,0.08-10.407,0.146-15.608,0.214C547.023,294.716,547.014,293.719,546.998,292.721
		L546.998,292.721z M551.544,281.573c-0.177,1.849-0.355,3.7-0.537,5.548c4.429-0.07,8.858-0.142,13.288-0.182
		c-0.021-1.399-0.039-2.799-0.06-4.196c-0.009-0.667,0.281-1.349-0.468-1.337c-0.806,0.014-1.608,0.023-2.41,0.034
		C558.084,281.479,554.817,281.521,551.544,281.573L551.544,281.573z M530.641,373.32c4,1.863,7.849,4.722,11.554,7.108
		c0.118-1.136,0.237-2.273,0.355-3.409c0.058-0.596-1.217-1.044-1.684-1.334c-1.805-1.119-3.607-2.239-5.411-3.358
		c-0.788-0.485-3.745-2.99-4.533-2.813c-0.542,0.123-1.825,2.926-2.136,3.427C529.417,372.934,530.051,373.097,530.641,373.32
		L530.641,373.32z M529.73,382.743c-1.878,3.073-3.779,6.134-5.683,9.185c-0.507,0.812-1.005,1.624-1.516,2.439
		c-0.786,1.257-0.62,1.286-1.991,0.434c-0.926-0.57-6.84-1.35-6.84-1.367c0.269-3.243,0.534-6.485,0.802-9.726
		c0.147-1.739,0.088-3.594,0.825-5.208c1.339-2.915,3.45-5.654,5.148-8.378c0.91-1.454,1.855-2.969,2.756-4.426
		c0.933-1.511,1.775-3.518,3.173-4.66c3.779-3.088,7.626,0.356,10.958,2.428c3.922,2.444,8.676,4.594,12.179,7.617
		c1.413,1.218,1.904,2.95,1.721,4.751c-0.359,3.441-0.712,6.88-1.067,10.322c-0.251,2.414,0.143,2.448-2.341,2.345
		c-0.65-0.028-2.482-0.448-3.051-0.126c-0.68,0.381-1.265,2.015-1.677,2.679C538.642,388.321,534.141,385.593,529.73,382.743
		L529.73,382.743z M478.88,443.212c-0.177,3.435-0.348,6.874-0.521,10.309c-0.065,1.248,0.383,2.136-0.95,2.121
		c-1.3-0.01-3.519-0.492-4.729,0.03c-1.014,0.438-2.41,1.747-2.938,0.526c-0.703-1.619-1.408-3.238-2.111-4.857
		c-1.314-3.034-2.634-6.065-3.948-9.097c-2.68,1.164-5.362,2.33-8.045,3.494c-0.86,0.374-5.722,3.103-6.125,2.163
		c-0.454-1.043-0.611-2.142-1.807-2.276c-0.763-0.086-4.182,0.043-4.639-0.514c-0.316-0.379,0.069-2.49,0.083-2.962
		c0.06-2.061,0.118-4.122,0.177-6.181c0.108-3.665,0.147-6.643,3.901-8.272c5.501-2.389,10.958-5.104,16.578-7.198
		c4.547-1.694,6.568,1.847,8.135,5.447c1.652,3.814,3.309,7.627,4.969,11.44C477.7,439.204,478.9,441.17,478.88,443.212
		L478.88,443.212z M465.534,432.672c-0.353-0.96-0.864-2.057-1.297-3.056c-2.721,1.181-5.443,2.362-8.165,3.543
		c-1.327,0.575-2.653,1.151-3.98,1.727c-0.553,0.241-0.263,2.603-0.281,3.212c2.917-1.266,5.835-2.534,8.748-3.799
		C462.126,433.622,463.774,432.633,465.534,432.672L465.534,432.672z M267.637,215.919c-0.274-2.889-0.546-5.779-0.82-8.667
		c-0.217-2.284-0.758-4.762-0.627-7.069c0.099-1.672,0.901-3.39,1.404-4.959c1.175-3.677,2.348-7.355,3.523-11.033
		c1.028-3.225,2.302-7.137,6.623-6.472c2.268,0.351,4.567,1.403,6.741,2.098c3.567,1.137,7.13,2.276,10.693,3.414
		c1.867,0.593,3.567,1.21,4.473,3.122c0.926,1.953,0.71,4.638,0.871,6.713c0.261,3.389,0.523,6.776,0.783,10.163
		c0.005,0.048-4.325,0.379-4.768,0.416c-0.724,0.059-1.092,2.564-1.29,3.188c-3.45-1.1-6.897-2.203-10.347-3.305
		c-1.438-0.46-2.874-0.918-4.312-1.377c-0.17-0.054-1.048,2.998-1.136,3.277c-1.113,3.489-2.565,7.018-3.371,10.59
		c-0.104,0.443-2.51-0.647-3.06-0.596C271.221,215.588,269.43,215.753,267.637,215.919L267.637,215.919z M277.316,192.821
		c1.915-0.531,4.36,0.721,6.123,1.282c2.927,0.937,5.86,1.872,8.787,2.809c-0.127-1.691-0.26-3.382-0.387-5.073
		c-0.095-1.219-1.286-1.126-2.397-1.482c-3.431-1.096-6.86-2.19-10.289-3.286C278.542,188.987,277.931,190.905,277.316,192.821
		L277.316,192.821z M275.806,292.667c-0.034,1.014-0.03,2.031-0.039,3.046c-5.206-0.067-10.412-0.135-15.615-0.214
		c-0.067,4.698-0.131,9.396-0.191,14.094c-0.018,1.191-0.325,0.75-1.482,0.853c-1.77,0.157-3.542,0.313-5.314,0.47
		c-0.864,0.076-1.678,0.556-1.786-0.392c-0.187-1.643-0.373-3.285-0.555-4.928c-0.576-5.074-0.975-9.812-0.906-14.904
		c0.06-4.434-0.456-9.334,0.295-13.704c0.772-4.494,5.439-4.162,8.921-4.118c4.819,0.059,9.642,0.137,14.458,0.197
		c4.6,0.057,5.717,3.048,6.097,6.999c0.339,3.504,0.677,7.009,1.019,10.512c0.097,1.052,0.403,1.237-0.666,1.409
		C278.632,292.213,277.219,292.44,275.806,292.667L275.806,292.667z M271.79,287.121c-0.113-1.167-0.226-2.333-0.339-3.5
		c-0.108-1.14,0.251-2.044-0.97-2.058c-2.111-0.026-4.215-0.055-6.328-0.085c-0.574-0.008-5.57-0.161-5.57,0.018
		c-0.023,1.815-0.053,3.63-0.078,5.443C262.934,286.977,267.363,287.051,271.79,287.121L271.79,287.121z M292.009,373.387
		c0.65-0.247,1.305-0.453,2.003-0.446c-0.689-1.123-1.383-2.219-2.065-3.325c-0.125-0.195-3.844,2.241-4.342,2.551
		c-1.804,1.119-3.611,2.239-5.418,3.358c-0.286,0.177-1.986,1.002-1.959,1.293c0.129,1.205,0.251,2.408,0.375,3.611
		C284.315,378.042,288.083,375.42,292.009,373.387L292.009,373.387z M293.171,382.908c-0.855-0.398-5.535,3.204-6.598,3.866
		c-2.297,1.435-4.59,2.865-6.9,4.278c-0.343-0.561-1.201-2.699-1.899-2.672c-1.62,0.069-3.238,0.136-4.862,0.202
		c-0.196,0.01-0.864-7.846-0.933-8.5c-0.203-1.946-0.818-4.293-0.376-6.257c0.567-2.495,2.821-3.528,4.814-4.763
		c4.044-2.507,8.075-5.015,12.099-7.518c3.897-2.427,7.008-2.323,9.531,1.702c1.954,3.112,3.865,6.226,5.798,9.342
		c1.422,2.295,3.95,5.086,4.187,7.903c0.256,3.117,0.512,6.236,0.772,9.356c0.099,1.196,0.198,2.392,0.295,3.587
		c0.016,0.221-3.404,0.498-3.784,0.541c-1.111,0.133-1.963,0.158-2.922,0.758c-1.624,1.008-1.491,0.639-2.427-0.867
		c-0.949-1.53-1.92-3.099-2.874-4.635C295.779,387.125,294.484,385.022,293.171,382.908L293.171,382.908z M344.554,455.653
		c-0.152-3.022-0.311-6.046-0.463-9.069c-0.092-1.805-0.491-3.92,0.256-5.644c2.491-5.728,4.975-11.456,7.467-17.183
		c1.337-3.088,4.256-4.527,7.43-3.15c5.604,2.436,11.209,4.867,16.813,7.303c1.994,0.867,3.259,2.707,3.321,4.881
		c0.042,1.369,0.719,12.283,0.154,12.346c-1.738,0.193-4.775-0.219-5.639,1.408c-0.883,1.654-0.45,1.924-2.132,1.19
		c-4.212-1.831-8.43-3.658-12.647-5.489c-1.825,4.21-3.655,8.422-5.48,12.632c-0.272,0.622-0.542,1.247-0.813,1.872
		c-0.074,0.163-2.169-0.849-2.45-0.969C348.776,455.091,346.271,455.637,344.554,455.653L344.554,455.653z M357.24,432.675
		c1.648-0.052,3.148,0.821,4.616,1.459c3.044,1.324,6.086,2.643,9.133,3.966c-0.03-1.028,0.447-2.898-0.597-3.349
		c-1.809-0.787-3.62-1.572-5.432-2.359c-1.894-0.823-3.784-1.644-5.678-2.466C357.899,429.326,357.742,431.521,357.24,432.675
		L357.24,432.675z M345.377,111.331c0.447,10.068,1.194,20.147,0.555,30.221c-0.611,9.697-3.065,18.919-5.777,28.211
		c-5.874,20.141-14.785,39.293-22.881,58.577c-7.967,18.982-15.083,38.643-16.076,59.404c-0.06,1.272-0.108,14.686,0.226,14.663
		c-1.408,0.099-2.818,0.199-4.231,0.299c-0.59,0.043-3.835,0.709-4.266,0.302c-0.332-0.311-0.198-2.341-0.233-2.771
		c-0.166-2.065-0.339-4.13-0.512-6.193c-0.832-10.098-1.141-20.074,0.083-30.163c2.5-20.611,10.35-40.133,18.438-59.087
		c8.282-19.404,17.026-38.815,22.365-59.283c1.781-6.829,3.198-13.512,3.652-20.533c0.221-3.436,0.304-6.888,0.217-10.334
		c-0.021-0.891-0.051-1.771-0.09-2.661c-0.018-0.602,1.019-0.343,1.512-0.363C340.696,111.524,343.038,111.427,345.377,111.331
		L345.377,111.331z M411.333,508.966c-21.316-0.384-41.67-4.038-61.631-11.581c-19.388-7.324-36.685-19.186-52.063-32.904
		c-15.76-14.063-28.182-31.468-38.932-49.507c-10.886-18.261-18.818-38.382-24.918-58.691c-2.92-9.703-4.485-19.845-5.803-29.866
		c-0.247-1.886-0.498-3.773-0.742-5.659c-0.064-0.492-0.705-2.695-0.415-3.125c0.295-0.431,3.229-0.468,3.74-0.542
		c1.56-0.225,3.12-0.449,4.68-0.676c-0.198,0.029,2.692,14.777,2.927,15.811c4.68,20.361,12.638,40.546,22.69,58.826
		c10.393,18.906,22.616,36.59,38.194,51.648c15.147,14.639,32.846,26.538,52.445,34.401c19.747,7.925,41.133,11.711,62.396,11.337
		c21.897-0.386,42.873-5.171,63.005-13.721c18.655-7.925,36.109-20.614,50.078-35.23c14.654-15.331,26.99-32.625,36.575-51.555
		c9.833-19.424,17.779-39.726,22.178-61.097c0.572-2.778,1.005-5.568,1.447-8.37c0.138-0.855-0.122-2.121,0.867-1.978
		c1.86,0.27,3.719,0.539,5.579,0.808c0.385,0.055,2.371,0.082,2.309,0.537c-0.182,1.417-0.371,2.833-0.558,4.25
		c-0.408,3.076-0.811,6.151-1.214,9.227c-1.374,10.432-3.858,20.657-6.879,30.72c-6.201,20.626-15.659,40.301-26.66,58.756
		c-10.776,18.067-24.589,33.988-40.243,47.955c-15.12,13.488-33.652,23.979-52.724,30.689
		C449.484,505.823,430.564,508.742,411.333,508.966L411.333,508.966z M405.468,500.32c21.425,0.381,42.407-2.537,62.507-10.14
		c19.286-7.29,37.213-18.551,52.176-32.716c-15.647,12.864-33.249,23.704-52.563,30.137c-20.224,6.735-41.128,10.036-62.47,9.31
		c-20.731-0.703-41.22-5.255-60.304-13.365c-15.357-6.526-29.301-15.515-42.165-26.082c14.993,14.155,32.876,25.418,52.173,32.716
		C371.205,496.376,388.049,499.265,405.468,500.32L405.468,500.32z"/>
	<path fill="#0F0F0F" d="M411.584,400.427c58.223,2.623,102.238-51.964,110.087-105.62c3.542-24.247-2.003-47.813-10.744-70.349
		c-10.087-26.014-22.614-50.982-29.813-78.058c-4.047-15.206-4.775-30.928-2.653-46.517c0.422-3.117,0.984-6.208,1.662-9.279
		c0.355-1.604,1.277-2.108,2.811-2.734c5.102-2.088,11.322-2.177,16.74-2.465c7.72-0.409,15.491-0.385,23.197,0.194
		c4.989,0.373,11.803,0.419,16.184,3.233c1.553,0.999,1.731,2.24,2.254,3.952c1.15,3.775,2.224,7.57,3.277,11.373
		c2.116,7.679,4.127,15.385,6.268,23.056c7.801,27.951,19.855,54.333,29.725,81.558c8.681,23.94,15.468,48.707,16.834,74.248
		c1.595,29.818-4.639,58.886-15.908,86.408c-10.082,24.626-23.482,48.079-41.068,68.14c-17.316,19.754-38.678,35.914-62.908,46.213
		c-25.386,10.788-53.36,14.949-80.818,12.652c-28.156-2.357-55.441-11.813-78.928-27.544c-20.609-13.805-37.92-32.051-51.747-52.576
		c-16.076-23.876-28.603-51.197-35.487-79.165c-6.639-26.952-6.948-54.852-1.655-82.06c4.763-24.499,13.631-47.888,22.798-71.017
		c5.816-14.689,11.785-29.346,16.578-44.413c4.743-14.916,8.232-30.197,12.714-45.192c0.537-1.797,0.745-4.006,2.235-5.239
		c1.491-1.34,3.876-1.793,5.766-2.201c6.943-1.493,14.207-1.771,21.282-1.863c7.25-0.093,14.567,0.089,21.766,1.01
		c2.028,0.26,9.835,0.81,10.451,3.575c3.203,14.418,4.017,29.563,1.885,44.203c-2.171,14.914-7.573,29.607-13.025,43.594
		c-9.211,23.652-21.174,46.486-27.433,71.2c-6.437,25.447-4.404,51.138,5.332,75.496c8.695,21.755,22.153,41.813,40.868,56.171
		c9.335,7.162,19.869,12.782,31.133,16.214C391.238,399.664,401.212,400.459,411.584,400.427
		C412.352,400.461,411.584,400.427,411.584,400.427z M413.345,409.038c-6.351-0.167-12.592,0.034-18.924-0.811
		c-7.013-0.936-13.917-2.643-20.563-5.054c-13.025-4.72-24.992-12.115-35.351-21.277c-21.289-18.83-36.03-45.094-43.2-72.45
		c-6.303-24.073-4.561-48.468,2.874-72.052c7.858-24.907,20.102-48.159,28.854-72.739c5.158-14.474,9.582-29.228,9.912-44.694
		c0.161-7.745-0.373-15.54-1.733-23.173c-0.32-1.805-0.507-1.807-2.224-2.079c-1.27-0.2-2.553-0.34-3.832-0.454
		c-3.687-0.329-7.393-0.465-11.087-0.533c-7.573-0.139-15.205-0.074-22.75,0.61c-1.609,0.147-5.349-0.042-5.874,1.702
		c-1.127,3.746-2.189,7.513-3.224,11.284c-4.291,15.609-8.292,31.268-13.737,46.527c-9.236,25.871-20.743,50.905-28.714,77.229
		c-7.711,25.455-11.781,51.967-9.241,78.563c2.835,29.684,13.601,58.41,27.926,84.403c11.776,21.365,26.857,41.058,45.559,56.819
		c43.103,36.313,103.775,47.301,156.967,28.611c51.058-17.938,86.536-61.201,107.163-109.793
		c11.684-27.514,18.302-56.561,16.634-86.555c-1.438-25.841-8.596-50.824-17.528-74.983c-4.699-12.71-9.856-25.245-14.772-37.871
		c-5.895-15.138-11.061-30.416-15.339-46.088c-2.097-7.694-4.109-15.412-6.303-23.081c-0.482-1.693-0.98-3.382-1.486-5.065
		c-0.35-1.16-1.113-1.078-2.245-1.264c-3.026-0.498-6.116-0.66-9.177-0.808c-7.828-0.379-15.703-0.423-23.536-0.03
		c-2.865,0.144-5.747,0.327-8.587,0.777c-1.717,0.272-1.906,0.273-2.224,2.079c-0.371,2.061-0.67,4.133-0.917,6.212
		c-1.855,15.669-0.36,30.79,4.001,45.904c4.139,14.343,9.651,28.228,15.477,41.958c9.379,22.119,19.805,44.264,23.752,68.16
		c4.434,26.816-1.014,53.333-12.47,77.749c-11.677,24.883-30.14,46.986-54.547,60.149
		C447.741,405.082,430.578,409.505,413.345,409.038C412.593,409.018,413.345,409.038,413.345,409.038z M358.991,420.499
		c5.526,2.401,11.052,4.803,16.578,7.204c3.164,1.37,4.6,4.239,3.173,7.516c-1.318,3.043-2.643,6.09-3.966,9.135
		c-1.18,2.717-2.362,5.435-3.538,8.154c-1.537,3.53-5.093,3.494-8.125,2.177c-5.328-2.315-11.011-4.285-16.138-7.014
		c-5.985-3.184-0.857-10.811,1.018-15.126C349.82,428.34,352.299,417.6,358.991,420.499L358.991,420.499z M369.763,434.478
		c-1.791-0.778-3.577-1.554-5.367-2.332c-1.277-0.551-2.544-1.103-3.814-1.656c-0.286-0.123-1.712-0.994-2.014-0.873
		c-0.251,0.098-0.615,1.413-0.712,1.643c-0.606,1.388-1.205,2.771-1.807,4.158c-0.841,1.933-1.682,3.868-2.519,5.802
		c1.79,0.778,3.581,1.554,5.367,2.332c1.274,0.551,2.544,1.103,3.814,1.656c0.286,0.123,1.712,0.994,2.014,0.873
		c0.249-0.098,0.613-1.411,0.712-1.643c0.606-1.387,1.205-2.77,1.807-4.158C368.085,438.346,368.926,436.412,369.763,434.478
		L369.763,434.478z M297.439,362.261c3.148,5.078,6.303,10.159,9.453,15.24c1.751,2.824,1.392,6.072-1.56,7.903
		c-2.777,1.721-5.556,3.444-8.331,5.167c-2.565,1.589-5.134,3.181-7.697,4.772c-3.337,2.07-6.185-0.074-7.923-2.874
		c-1.943-3.139-3.892-6.279-5.835-9.416c-1.187-1.911-2.682-3.84-3.593-5.889c-2.609-5.864,6.446-9.333,10.207-11.663
		C285.967,363.137,293.777,356.14,297.439,362.261L297.439,362.261z M298.241,379.75c-2.118-3.415-4.238-6.825-6.354-10.24
		c-3.537,2.194-7.077,4.389-10.615,6.584c2.122,3.415,4.238,6.825,6.353,10.24C291.163,384.139,294.701,381.944,298.241,379.75
		L298.241,379.75z M279.496,278.426c-0.078,5.974-0.161,11.948-0.244,17.923c-0.099,7.416-8.771,5.653-13.755,5.585
		c-4.803-0.066-15.76,1.829-15.657-5.652c0.083-6.056,0.168-12.112,0.251-18.168c0.099-7.295,10.568-5.223,15.24-5.161
		C269.769,273.014,279.694,271.414,279.496,278.426L279.496,278.426z M270.753,293.469c0.03-1.983,0.053-3.966,0.083-5.949
		c0.009-0.877,0.698-5.32,0.085-5.949c-0.627-0.636-5.035-0.07-5.92-0.082c-2.141-0.03-4.277-0.061-6.418-0.09
		c-0.053,3.967-0.108,7.936-0.161,11.903C262.531,293.357,266.644,293.414,270.753,293.469L270.753,293.469z M299.888,190.266
		c-1.811,5.665-3.623,11.33-5.427,16.995c-2.383,7.45-11.992,2.166-16.869,0.608c-2.632-0.84-5.266-1.681-7.893-2.521
		c-4.169-1.33-3.606-5.434-2.565-8.688c1.161-3.635,2.323-7.271,3.484-10.906c0.848-2.659,1.394-6.251,4.153-7.6
		c2.083-1.015,4.065-0.144,6.072,0.498c2.791,0.892,5.581,1.784,8.372,2.676C293.387,182.661,301.93,183.849,299.888,190.266
		L299.888,190.266z M287.188,201.978c1.191-3.733,2.381-7.465,3.576-11.199c-3.862-1.233-7.725-2.466-11.582-3.698
		c-0.051-0.017-3.259,10.112-3.602,11.192C279.448,199.508,283.315,200.744,287.188,201.978L287.188,201.978z M464.237,429.617
		c-3.736,1.619-7.471,3.242-11.2,4.861c1.392,3.203,2.779,6.412,4.171,9.615c0.263,0.598,0.493,2.15,1.231,1.831
		c1.668-0.726,3.337-1.452,5.005-2.175c1.756-0.763,3.512-1.526,5.27-2.288c0.945-0.408,0.221-1.018-0.159-1.884
		C467.115,436.255,465.677,432.938,464.237,429.617L464.237,429.617z M446.684,427.939c5.526-2.401,11.052-4.802,16.578-7.205
		c3.203-1.392,6.264-0.354,7.667,2.871c1.357,3.133,2.714,6.265,4.079,9.396c1.037,2.399,2.12,4.783,3.125,7.199
		c1.47,3.537,0.161,6.4-3.245,7.878c-3.212,1.398-6.43,2.795-9.649,4.193c-2.415,1.048-4.897,2.465-7.446,3.178
		c-6.243,1.748-8.393-7.924-10.165-12.006C445.843,439.33,440.109,430.655,446.684,427.939L446.684,427.939z M530.912,369.51
		c-2.116,3.415-4.233,6.825-6.353,10.24c3.533,2.189,7.061,4.38,10.594,6.569c0.046,0.03,5.764-9.241,6.374-10.225
		C537.987,373.899,534.45,371.704,530.912,369.51L530.912,369.51z M515.599,378.003c3.148-5.078,6.303-10.159,9.453-15.24
		c1.816-2.928,4.876-3.912,7.902-2.032c2.844,1.764,5.688,3.528,8.538,5.294c4.478,2.778,12.67,5.901,8.605,12.45
		c-3.104,5.009-5.964,10.329-9.375,15.126c-3.823,6.141-11.868-1.136-15.774-3.562C521.19,387.712,511.755,383.942,515.599,378.003
		L515.599,378.003z M551.883,281.571c0.025,1.983,0.055,3.966,0.081,5.949c0.014,0.877-0.553,5.339,0.083,5.949
		c0.64,0.619,5.033-0.067,5.913-0.08c2.141-0.03,4.282-0.058,6.423-0.088c-0.053-3.967-0.108-7.936-0.164-11.903
		C560.108,281.457,555.992,281.513,551.883,281.571L551.883,281.571z M543.552,296.776c-0.083-5.973-0.161-11.948-0.244-17.922
		c-0.104-7.566,9.64-5.838,14.664-5.906c3.113-0.042,6.234-0.085,9.349-0.127c4.134-0.056,5.367,3.385,5.413,6.825
		c0.053,3.756,0.104,7.511,0.152,11.267c0.035,2.202,0.468,4.882-0.108,7.029c-0.807,3.021-3.406,3.83-6.111,3.867
		c-3.12,0.042-6.241,0.085-9.366,0.127C552.819,301.994,543.582,303.762,543.552,296.776L543.552,296.776z M532.035,190.779
		c0.343,1.079,3.551,11.208,3.602,11.191c3.862-1.232,7.725-2.465,11.587-3.696c-0.343-1.08-3.551-11.209-3.602-11.192
		C539.759,188.313,535.897,189.546,532.035,190.779L532.035,190.779z M528.472,207.666c-1.807-5.664-3.618-11.33-5.429-16.994
		c-1.154-3.616,0.719-6.205,4.074-7.276c3.427-1.096,6.851-2.19,10.28-3.285c2.496-0.797,5.132-2.007,7.736-2.408
		c4.266-0.659,5.54,3.324,6.554,6.491c1.171,3.678,2.346,7.355,3.524,11.03c0.963,3.021,2.574,6.645-0.369,9.167
		c-1.27,1.088-3.288,1.454-4.842,1.95c-2.865,0.915-5.729,1.83-8.593,2.743C537.383,210.369,530.35,213.864,528.472,207.666
		L528.472,207.666z"/>
	<g>
		<path fill="#0F0F0F" d="M542.564,175.635c-2.392-7.068-12.396-7.919-15.943-1.348c-2.097,3.89-0.345,7.633,0.945,11.462
			c0.664,1.974,0.447,1.837,2.238,1.265c0.843-0.269,1.689-0.538,2.53-0.808c-0.892-2.663-3.224-6.598-2.067-9.425
			c1.083-2.636,4.498-3.528,6.731-1.763c1,0.789,3.809,8.482,3.692,8.519c1.367-0.437,2.735-0.875,4.097-1.311
			C544.055,180.026,543.313,177.83,542.564,175.635C541.02,171.071,542.564,175.635,542.564,175.635z M534.337,206.864
			c4.173,13.752,7.893,27.663,10.649,41.775c1.263,6.474,2.316,12.992,3.083,19.544c0.124,1.042,0.671,9.161,1.122,9.155
			c1.378-0.02,2.756-0.038,4.13-0.058c-1.737-24.407-7.676-48.414-14.788-71.754C537.137,205.972,535.733,206.418,534.337,206.864
			C540.418,226.909,534.337,206.864,534.337,206.864z M549.3,297.775c-0.613,14.244-3.385,28.237-7.789,41.785
			c-2.003,6.153-4.344,12.195-7.07,18.066c-0.394,0.847-3.606,6.811-3.224,7.049c1.166,0.726,2.337,1.452,3.51,2.178
			c11.253-21.179,17.936-45.171,18.938-69.137C552.208,297.736,550.756,297.755,549.3,297.775
			C548.901,306.957,549.3,297.775,549.3,297.775z M520.091,382.001c-8.015,10.906-17.659,20.541-28.477,28.668
			c-5.284,3.968-10.831,7.581-16.572,10.848c-0.901,0.516-7.923,4.025-7.75,4.428c0.546,1.265,1.097,2.527,1.643,3.792
			c21.478-10.779,40.653-25.955,54.877-45.426C522.573,383.541,521.33,382.771,520.091,382.001
			C516.996,386.21,520.091,382.001,520.091,382.001z M448.184,434.018c-3.295,1.237-7.586,1.942-10.161,4.505
			c-2.337,2.327-3.173,5.865-2.116,8.992c1.062,3.125,3.872,5.431,7.144,5.856c4.001,0.52,8.455-1.946,12.092-3.329
			c-0.572-1.318-1.143-2.638-1.719-3.955c-0.014-0.04-8.561,3.084-9.723,2.959c-2.835-0.31-4.641-3.344-3.558-5.981
			c1.339-3.262,6.851-3.927,9.783-5.033C449.345,436.692,448.765,435.353,448.184,434.018
			C445.951,434.857,448.184,434.018,448.184,434.018z M474.155,441.755c23.907-11.878,45.133-28.815,60.806-50.53
			c-0.772-0.477-2.878-2.382-3.729-2.313c-2.659,3.67-5.482,7.224-8.464,10.633c-5.542,6.338-11.624,12.199-18.139,17.53
			c-6.372,5.218-13.163,9.928-20.242,14.136c-3.662,2.179-7.407,4.227-11.216,6.145c-1.136,0.572-0.541,0.892-0.074,1.964
			C473.448,440.132,473.803,440.944,474.155,441.755C493.283,432.249,474.155,441.755,474.155,441.755z M545.875,373.769
			c12.543-23.285,19.92-49.798,20.913-76.232c-1.44,0.02-2.883,0.038-4.326,0.058c-0.028,0.001-0.889,11.419-1.018,12.534
			c-1.023,8.871-2.862,17.609-5.28,26.201c-2.289,8.127-5.107,16.108-8.513,23.836c-1.687,3.833-3.523,7.603-5.501,11.293
			C542.46,372.247,545.113,373.294,545.875,373.769C553.238,360.103,545.875,373.769,545.875,373.769z M566.436,277.1
			c-1.777-25.71-8.001-50.957-15.472-75.546c-0.816,0.263-3.69,0.655-4.139,1.322c1.24,4.056,2.431,8.126,3.572,12.209
			c2.284,8.16,4.36,16.379,6.132,24.663c1.767,8.228,3.238,16.522,4.291,24.87c0.528,4.169,0.945,8.351,1.235,12.544
			C562.774,277.66,565.514,277.114,566.436,277.1C566.03,271.259,566.436,277.1,566.436,277.1z"/>
	</g>
	<g>
		<path fill="#0F0F0F" d="M280.24,175.635c2.39-7.068,12.396-7.921,15.938-1.348c2.102,3.889,0.343,7.635-0.945,11.462
			c-0.664,1.974-0.447,1.837-2.24,1.265c-0.841-0.269-1.687-0.538-2.528-0.808c0.896-2.662,3.229-6.598,2.067-9.425
			c-1.083-2.636-4.494-3.528-6.731-1.763c-1,0.789-3.805,8.482-3.692,8.519c-1.367-0.437-2.735-0.875-4.1-1.311
			C278.745,180.026,279.487,177.83,280.24,175.635C281.784,171.071,280.24,175.635,280.24,175.635z M288.463,206.864
			c-4.173,13.752-7.893,27.663-10.649,41.775c-1.265,6.474-2.318,12.992-3.086,19.544c-0.122,1.042-0.668,9.161-1.115,9.155
			c-1.378-0.02-2.756-0.038-4.134-0.058c1.747-24.409,7.676-48.411,14.792-71.754C285.667,205.972,287.064,206.418,288.463,206.864
			C282.381,226.909,288.463,206.864,288.463,206.864z M273.497,297.775c0.62,14.244,3.392,28.237,7.792,41.785
			c2.003,6.153,4.348,12.195,7.07,18.066c0.394,0.847,3.611,6.811,3.228,7.049c-1.171,0.726-2.344,1.452-3.514,2.178
			c-11.248-21.175-17.941-45.174-18.941-69.137C270.589,297.736,272.048,297.755,273.497,297.775
			C273.896,306.957,273.497,297.775,273.497,297.775z M302.714,382.001c8.006,10.906,17.659,20.543,28.469,28.668
			c5.287,3.968,10.831,7.581,16.574,10.848c0.906,0.516,7.927,4.025,7.754,4.428c-0.551,1.265-1.097,2.527-1.648,3.792
			c-21.473-10.775-40.66-25.949-54.877-45.426C300.227,383.541,301.474,382.771,302.714,382.001
			C305.804,386.21,302.714,382.001,302.714,382.001z M374.616,434.018c3.3,1.237,7.586,1.942,10.161,4.505
			c2.341,2.327,3.173,5.865,2.115,8.992c-1.058,3.127-3.871,5.431-7.144,5.856c-4.001,0.52-8.455-1.946-12.092-3.329
			c0.572-1.318,1.148-2.638,1.717-3.955c0.021-0.04,8.563,3.084,9.725,2.959c2.835-0.31,4.639-3.344,3.558-5.981
			c-1.334-3.262-6.851-3.927-9.783-5.033C373.454,436.692,374.035,435.353,374.616,434.018
			C376.849,434.857,374.616,434.018,374.616,434.018z M348.642,441.755c-23.904-11.878-45.126-28.817-60.799-50.53
			c0.767-0.477,2.874-2.382,3.724-2.313c2.657,3.67,5.482,7.221,8.465,10.633c5.54,6.338,11.621,12.199,18.139,17.53
			c6.376,5.218,13.163,9.928,20.243,14.136c3.662,2.179,7.407,4.227,11.214,6.145c1.138,0.572,0.541,0.892,0.076,1.964
			C349.352,440.132,348.997,440.944,348.642,441.755C329.517,432.249,348.642,441.755,348.642,441.755z M276.924,373.769
			c-12.543-23.282-19.925-49.799-20.913-76.232c1.44,0.02,2.883,0.038,4.326,0.058c0.028,0.001,0.894,11.419,1.023,12.534
			c1.023,8.871,2.857,17.609,5.275,26.201c2.288,8.127,5.107,16.108,8.513,23.836c1.687,3.833,3.524,7.603,5.501,11.293
			C280.337,372.247,277.692,373.294,276.924,373.769C269.561,360.103,276.924,373.769,276.924,373.769z M256.364,277.1
			c1.767-25.708,8.006-50.96,15.472-75.546c0.82,0.263,3.69,0.655,4.137,1.322c-1.24,4.056-2.429,8.126-3.572,12.209
			c-2.284,8.16-4.36,16.379-6.13,24.663c-1.763,8.228-3.238,16.522-4.286,24.87c-0.528,4.169-0.945,8.351-1.235,12.544
			C260.03,277.66,257.29,277.114,256.364,277.1C256.767,271.259,256.364,277.1,256.364,277.1z"/>
	</g>
</g>
</svg>
