<?xml version="1.0" encoding="utf-8"?>
<!-- Generator: Adobe Illustrator 17.0.0, SVG Export Plug-In . SVG Version: 6.00 Build 0)  -->
<!DOCTYPE svg PUBLIC "-//W3C//DTD SVG 1.1//EN" "http://www.w3.org/Graphics/SVG/1.1/DTD/svg11.dtd">
<svg version="1.1" id="Layer_1" xmlns="http://www.w3.org/2000/svg" xmlns:xlink="http://www.w3.org/1999/xlink" x="0px" y="0px"
	 width="800px" height="600px" viewBox="0 0 800 600" enable-background="new 0 0 800 600" xml:space="preserve">
<g>
	<g>
		<path fill="#0095FF" d="M418.888,309.319c-21.245-9.592-65.205-10.584-93.154-10.16c-27.946,0.422-44.298,1.313-66.605,5.14
			c-11.249,1.928-18.766,15.186-15.966,25.345c3.245,11.796,13.125,15.9,27.091,14.999c22.452-1.45,55.008-2.978,71.147-2.719
			c26.254,0.425,51.747,4.533,60.125,5.929c10.166,1.692,20.624,1.889,26.681-8.468C433.43,330.459,432.015,315.248,418.888,309.319
			z"/>
		<path fill="#FFFFFF" d="M392.507,308.511c-7.503-1.307-9.528,10.332-2.027,11.636C397.985,321.456,400.01,309.818,392.507,308.511
			z"/>
		<path fill="#FFFFFF" d="M424.724,331.844c0.563-4.084-0.145-7.994-2.649-11.355c-2.398-3.216-5.821-5.832-9.882-6.428
			c-3.185-0.468-6.322,0.899-7.182,4.262c-0.735,2.874,1.466,5.61,4.326,6.567c2.856,0.959,4.724,4.198,4.724,5.948
			c0,1.748,0.193,4.434,3.481,5.27C420.395,336.837,424.282,335.039,424.724,331.844z"/>
	</g>
	<g>
		<circle cx="311.037" cy="286.894" r="21.655"/>
		<path fill="#FFFFFF" d="M291.17,286.036c0,10.735,8.708,19.439,19.441,19.439c10.733,0,19.435-8.704,19.435-19.439
			c0-10.735-8.702-19.437-19.435-19.437C299.877,266.599,291.17,275.301,291.17,286.036z"/>
		<circle cx="306.109" cy="291.346" r="9.435"/>
		<circle fill="#FFFFFF" cx="302.617" cy="287.95" r="2.968"/>
	</g>
	<g>
		<circle cx="359.876" cy="293.568" r="21.654"/>
		<circle fill="#FFFFFF" cx="359.447" cy="292.711" r="19.436"/>
		<circle cx="355.27" cy="296.774" r="9.434"/>
		<path fill="#FFFFFF" d="M348.814,293.38c0,1.638,1.327,2.968,2.968,2.968c1.64,0,2.967-1.329,2.967-2.968
			c0-1.636-1.327-2.968-2.967-2.968C350.142,290.412,348.814,291.744,348.814,293.38z"/>
	</g>
</g>
</svg>
