<?xml version="1.0" encoding="utf-8"?>
<!-- Generator: Adobe Illustrator 17.0.0, SVG Export Plug-In . SVG Version: 6.00 Build 0)  -->
<!DOCTYPE svg PUBLIC "-//W3C//DTD SVG 1.1//EN" "http://www.w3.org/Graphics/SVG/1.1/DTD/svg11.dtd">
<svg version="1.1" id="Layer_1" xmlns="http://www.w3.org/2000/svg" xmlns:xlink="http://www.w3.org/1999/xlink" x="0px" y="0px"
	 width="800px" height="600px" viewBox="0 0 800 600" enable-background="new 0 0 800 600" xml:space="preserve">
<g>
	<g>
		<g>
			<path fill="#0A0A0A" d="M418.81,234.188c-2.411,0-9.132-4.354-20.003-12.959l-0.389-0.304l-0.081-0.488
				c-0.398-2.552-9.834-62.563-10.777-74.447c-0.033-0.458-0.102-0.738-0.154-0.883c-3.317,1.184-14.152,20-18.837,28.138
				c-2.453,4.257-4.23,7.331-5.02,8.376c-1.229,1.618-2.426,2.368-3.694,2.32c-1.633-0.072-2.522-1.503-2.899-2.115
				c0.009,0.003,0.35,0.292,0.844,0.292v-2.522c0.747,0,1.096,0.573,1.311,0.904c0.138,0.226,0.566,0.907,0.858,0.922
				c0.096-0.024,0.744-0.253,1.555-1.323c0.698-0.913,2.618-4.242,4.836-8.107c13.386-23.254,18.436-30.145,21.726-29.415
				c1.181,0.271,1.855,1.347,2.006,3.215c0.892,11.232,9.762,67.911,10.684,73.774c7.39,5.824,16.209,12.037,17.876,12.131
				c0.786-0.268,4.45-0.497,13.236-1.006c8.162-0.467,21.63-1.241,24.064-2.022c0.163-0.618,0.413-2.097,0.669-3.652
				c2.329-14.022,9.424-56.694,50.822-109.206l0.552-0.693l8.768,2.787l-0.768,2.404l-7.098-2.257
				c-40.518,51.684-47.472,93.569-49.768,107.383c-0.626,3.742-0.771,4.559-1.353,5.086c-1.121,1.03-6.177,1.561-25.746,2.688
				c-5.607,0.322-11.967,0.687-12.799,0.925C419.105,234.173,418.972,234.188,418.81,234.188L418.81,234.188z"/>
		</g>
		<g>
			<g>
				<path fill="#525C64" d="M508.44,113.439c-0.162,5.498,4.134,43.79,18.406,44.425c14.281,0.63,4.282-23.293-5.073-36.553
					C512.487,108.155,508.57,109.324,508.44,113.439z"/>
			</g>
			<g>
				<path fill="#0A0A0A" d="M527.398,158.503L527.398,158.503l-0.57-0.009c-15.474-0.687-19.126-41.337-19.017-45.083
					c0.066-2.127,1.061-3.401,2.663-3.401c2.688,0,6.773,3.782,11.814,10.946c6.996,9.904,15.143,27.077,11.386,34.248
					C532.526,157.395,530.417,158.503,527.398,158.503L527.398,158.503z M510.474,111.273c-1.151,0-1.37,1.365-1.395,2.182
					c-0.172,5.887,4.453,43.19,17.803,43.774l0.515,0.012l0,0c2.54,0,4.224-0.859,5.149-2.616
					c3.151-6.001-3.411-21.777-11.289-32.949C514.632,112.282,511.511,111.273,510.474,111.273L510.474,111.273z"/>
			</g>
		</g>
		<g>
			<g>
				<path fill="#525C64" d="M341.233,136.124c4.224-2.869,16.568-0.479,20.304,21.744c2.374,14.104,1.245,38.749-11.12,22.678
					C338.057,164.475,334.249,140.848,341.233,136.124z"/>
			</g>
			<g>
				<path fill="#0A0A0A" d="M357.28,186.424c-2.106,0-4.519-1.799-7.367-5.489c-9.701-12.618-13.967-29.59-12.488-38.704
					c0.528-3.206,1.678-5.432,3.45-6.628c1.037-0.702,2.431-1.082,3.953-1.082c6.195,0,14.447,6.087,17.337,23.245
					c1.452,8.626,1.781,22.771-2.019,27.228C359.328,185.945,358.361,186.424,357.28,186.424L357.28,186.424z M344.827,135.78
					c-1.266,0-2.413,0.31-3.239,0.862c-1.443,0.982-2.453,2.98-2.904,5.788c-1.443,8.855,2.745,25.386,12.232,37.74
					c3.188,4.127,5.215,4.995,6.364,4.995c0.711,0,1.328-0.322,1.898-0.979c3.164-3.727,3.372-16.499,1.735-26.213
					C358.157,141.586,350.53,135.78,344.827,135.78L344.827,135.78z"/>
			</g>
		</g>
	</g>
	<g>
		<g>
			<g>
				<path fill="#88C956" d="M462.756,286.73c0,0,3.57-0.955,5.589-9.454c2.025-8.512,9.006-56.284,9.006-56.284
					s-11.103-8.934-31.09-12.407c-19.994-3.459-29.515,3.784-29.515,3.784v10.087l-4.562-11.413c0,0-18.286,0.063-35.733,8.569
					l16.502,45.847L462.756,286.73z"/>
			</g>
			<g>
				<path fill="#0A0A0A" d="M462.744,287.387l-0.172-0.057l-70.111-21.362l-16.8-46.667l0.512-0.251
					c17.382-8.475,35.824-8.635,36.01-8.635h0.437l3.495,8.74v-7.098l0.244-0.189c0.262-0.199,6.517-4.854,19.488-4.854
					c3.356,0,6.884,0.319,10.515,0.952c19.931,3.455,31.274,12.446,31.392,12.537l0.274,0.223l-0.045,0.355
					c-0.072,0.476-7.008,47.897-9.018,56.339c-2.085,8.768-5.881,9.873-6.047,9.916L462.744,287.387L462.744,287.387z
					 M393.447,264.947l69.288,21.112c0.651-0.31,3.344-1.97,4.996-8.933c1.904-7.988,8.286-51.41,8.945-55.863
					c-1.856-1.37-12.669-8.954-30.527-12.058c-3.558-0.618-7.023-0.927-10.301-0.927c-11.097,0-17.198,3.585-18.466,4.42v9.759
					l-1.226,0.226l-4.393-11c-2.826,0.088-19.027,0.85-34.522,8.252L393.447,264.947L393.447,264.947z"/>
			</g>
		</g>
		<g>
			<g>
				<path fill="#A7D878" d="M426.896,241.413c0.238,0,22.217,3.275,30.012,9.008l4.583-22.19c0,0-6.454-8.048-14.101-9.307
					c-7.659-1.265-17.933,2.305-17.933,2.305L426.896,241.413z"/>
			</g>
			<g>
				<path fill="#0A0A0A" d="M457.329,251.515l-0.792-0.594c-7.743-5.679-29.484-8.858-29.689-8.885h-0.717l0.141-0.705l2.603-20.563
					l0.371-0.13c0.313-0.112,7.604-2.621,14.552-2.621c1.328,0,2.57,0.102,3.691,0.286c7.804,1.283,14.227,9.201,14.495,9.539
					l0.187,0.223L457.329,251.515L457.329,251.515z M427.61,240.882c3.727,0.573,21.208,3.552,28.876,8.479l4.324-20.967
					c-1.1-1.283-6.908-7.755-13.531-8.855c-1.045-0.172-2.226-0.259-3.48-0.259c-5.869,0-12.19,1.913-13.76,2.419L427.61,240.882
					L427.61,240.882z"/>
			</g>
		</g>
		<g>
			<g>
				<path fill="#A7D878" d="M392.976,243.549c0,0,11.712-5.342,18.295-4.954l-4.676-16.541c0,0-13.986-3.911-22.859,7.737
					l7.153,14.642L392.976,243.549z"/>
			</g>
			<g>
				<path fill="#0A0A0A" d="M390.582,245.246l-7.584-15.532l0.232-0.304c5.421-7.12,12.685-8.617,17.828-8.617
					c3.327,0,5.613,0.626,5.71,0.653l0.344,0.099l5.017,17.731l-0.889-0.045c-6.414-0.392-17.884,4.838-17.993,4.886
					L390.582,245.246L390.582,245.246z M384.474,229.861l6.725,13.757l1.531-0.654c0.431-0.199,10.958-4.959,17.71-5.022
					l-4.354-15.369c-0.735-0.162-2.606-0.518-5.028-0.518C396.279,222.055,389.557,223.42,384.474,229.861L384.474,229.861z"/>
			</g>
		</g>
		<g>
			<path fill="#0A0A0A" d="M456.308,250.623c-6.839-20.045-26.893-28.725-27.104-28.812l0.504-1.154
				c0.208,0.075,20.783,8.987,27.806,29.563L456.308,250.623L456.308,250.623z"/>
		</g>
		<g>
			<path fill="#0A0A0A" d="M427.303,241.901l-0.804-0.976c19.674-16.122,34.485-13.429,35.112-13.312l-0.244,1.235
				C461.216,228.822,446.477,226.176,427.303,241.901L427.303,241.901z"/>
		</g>
		<g>
			<path fill="#0A0A0A" d="M391.497,244.598l-1.211-0.338c3.549-12.308,15.399-22.275,15.905-22.684l0.805,0.964
				C406.882,222.636,394.944,232.681,391.497,244.598L391.497,244.598z"/>
		</g>
		<g>
			<path fill="#0A0A0A" d="M410.825,239.048c-10.925-10.705-26.842-8.657-27.002-8.635l-0.175-1.254
				c0.166-0.012,16.692-2.151,28.071,8.988L410.825,239.048L410.825,239.048z"/>
		</g>
	</g>
	<g>
		<g>
			<path fill="#0A0A0A" d="M423.097,501.03l-1.901-1.675l7.258-8.108c-1.775-24.103-18.806-87.977-18.981-88.627l2.455-0.648
				c0.166,0.653,17.52,65.696,19.099,89.634l0.036,0.524L423.097,501.03L423.097,501.03z"/>
		</g>
		<g>
			<g>
				<path fill="#F97237" d="M404.055,417.852c1.121,2.639,19.777-6.839,19.569-9.277c-0.214-2.437-11-22.494-13.54-22.293
					C407.541,386.488,394.853,396.163,404.055,417.852z"/>
			</g>
			<g>
				<path fill="#0A0A0A" d="M405.164,418.94L405.164,418.94c-1.1,0-1.527-0.461-1.693-0.856
					c-5.568-13.121-3.209-21.642-0.247-26.477c2.377-3.874,5.468-5.839,6.809-5.951l0,0c3.38,0,14.007,20.47,14.23,22.856
					c0.039,0.458-0.196,0.931-0.714,1.507C420.777,413.014,409.141,418.94,405.164,418.94L405.164,418.94z M404.64,417.602
					c0.018,0,0.138,0.075,0.524,0.075c4.143,0,17.581-7.282,17.831-9.066c-0.238-2.633-10.832-21.416-12.877-21.696
					c-0.768,0.06-3.57,1.685-5.815,5.351C401.497,396.846,399.286,404.969,404.64,417.602L404.64,417.602L404.64,417.602z"/>
			</g>
		</g>
		<g>
			<g>
				<path fill="#F9D8B7" d="M431.271,492.778c3.935,3.049,18.795,11.976,13.395,14.492c-5.39,2.528-3.799-4.408-19.349,0
					c-15.55,4.414-41.069,3.787-25.612-4.718C415.16,494.037,426.974,489.445,431.271,492.778z"/>
			</g>
			<g>
				<path fill="#0A0A0A" d="M405.414,510.599c-4.685,0-10.41-0.534-11.073-3.088c-0.421-1.606,1.235-3.414,5.053-5.511
					c17.9-9.849,28.126-12.935,32.271-9.72c0.702,0.555,1.783,1.299,3.034,2.173c6.336,4.408,12.015,8.595,11.768,11.479
					c-0.057,0.573-0.362,1.374-1.528,1.913c-2.169,1.003-3.658,0.548-5.17-0.169c-1.217-0.566-2.738-1.274-5.544-1.274
					c-2.359,0-5.218,0.476-8.734,1.473C419.581,509.556,411.889,510.599,405.414,510.599L405.414,510.599z M427.321,492.32
					c-5.192,0-14.128,3.522-27.309,10.78c-4.474,2.462-4.529,3.757-4.441,4.092c0.275,1.064,3.429,2.145,9.844,2.145
					c6.369,0,13.925-1.021,19.725-2.666c3.628-1.037,6.607-1.534,9.087-1.534c3.088,0,4.745,0.777,6.086,1.404
					c1.419,0.663,2.368,0.964,4.089,0.162c0.672-0.319,0.774-0.65,0.798-0.877c0.202-2.389-7.234-7.563-11.223-10.337
					c-1.278-0.885-2.371-1.651-3.094-2.217C430.063,492.642,428.866,492.32,427.321,492.32L427.321,492.32z"/>
			</g>
		</g>
	</g>
	<g>
		<g>
			<path fill="#EC5039" d="M387.559,253.01c2.54-0.947,20.627-15.128,46.64-1.419c26.013,13.714,38.074,26.577,37.758,35.269
				c-0.313,8.683-9.059,112.21-74.334,111.647C332.348,397.94,387.559,253.01,387.559,253.01z"/>
		</g>
		<g>
			<path fill="#0A0A0A" d="M398.147,399.142h-0.533c-10.811-0.099-19.038-4.146-24.48-12.037
				c-23.775-34.48,12.28-130.255,13.826-134.313l0.102-0.271l0.272-0.106c0.28-0.099,0.759-0.383,1.44-0.768
				c3.455-1.979,11.566-6.631,22.994-6.631c7.503,0,15.155,2.025,22.729,6.017c24.571,12.949,38.454,26.016,38.093,35.85
				C472.557,288.005,465.474,399.142,398.147,399.142L398.147,399.142z M388.06,253.479c-2.061,5.517-36.71,99.806-13.884,132.924
				c5.191,7.517,13.073,11.38,23.447,11.476h0.524c66.152,0,73.136-109.932,73.181-111.047c0.334-9.192-13.661-22.163-37.429-34.685
				c-7.385-3.898-14.833-5.869-22.13-5.869c-11.09,0-18.99,4.525-22.365,6.46C388.831,253.073,388.382,253.32,388.06,253.479
				L388.06,253.479z"/>
		</g>
	</g>
	<g>
		<g>
			<g>
				<g>
					<path fill="#42210B" d="M410.726,299.089c2.561-4.121,7.996-3.052,12.898,0.413c-6.598-13.278-16.022-23.277-26.983-30.159
						c0.042,0.19,4.516,21.112-6.086,44.167c2.229,0.063,12.53,0.671,21.629,6.728C412.184,320.237,405.959,306.733,410.726,299.089
						z"/>
				</g>
				<g>
					<path fill="#0A0A0A" d="M413.694,321.994l-1.859-1.235c-9.012-5.987-19.322-6.562-21.299-6.623l-0.955-0.018l0.395-0.865
						c10.395-22.609,6.219-42.928,6.041-43.778l-0.313-1.461l1.272,0.802c11.672,7.312,20.828,17.547,27.215,30.409l-0.928,0.789
						c-5.073-3.576-9.903-3.953-12.003-0.594c-4.531,7.271,1.443,20.416,1.51,20.545L413.694,321.994L413.694,321.994z
						 M391.515,312.931c3.14,0.19,11.494,1.13,19.334,5.721c-1.543-4.028-4.532-13.684-0.669-19.894
						c2.178-3.498,6.779-3.857,11.817-1.027c-5.993-11.247-14.209-20.343-24.48-27.071
						C398.324,275.757,400.193,293.449,391.515,312.931L391.515,312.931z"/>
				</g>
			</g>
			<g>
				<g>
					<path fill="#F9D8B7" d="M431.141,321.316c-1.73-8.072-4.3-15.327-7.517-21.814c-4.902-3.465-10.337-4.534-12.898-0.413
						c-4.767,7.644,1.458,21.148,1.458,21.148c-9.099-6.056-19.4-6.665-21.629-6.728c-5.996,13.034-16.797,26.751-35.995,37.797
						c-26.646,15.333-52.127,17.559-71.219,12.377c6.939,30.446,55.386,73.205,116.266,44.893
						C456.094,382.291,431.141,321.316,431.141,321.316z"/>
				</g>
				<g>
					<path fill="#0A0A0A" d="M359.88,418.479c0,0,0,0-0.009,0c-42.217-0.006-71.933-31.741-77.152-54.655l-0.232-1.018l1.021,0.268
						c6.089,1.651,12.627,2.495,19.422,2.495c16.737-0.009,34.477-5.119,51.31-14.806c16.686-9.599,28.707-22.214,35.736-37.511
						l0.178-0.383l0.416,0.009c1.913,0.054,11.422,0.581,20.28,5.772c-1.543-4.028-4.532-13.684-0.669-19.894
						c2.464-3.959,8.096-3.802,13.811,0.232l0.199,0.235c3.347,6.728,5.887,14.116,7.569,21.964
						c0.214,0.506,24.498,61.719-31.892,87.959C386.556,415.334,373.1,418.479,359.88,418.479L359.88,418.479z M284.207,364.566
						c5.761,22.41,34.739,52.651,75.663,52.651h0.009c13.042,0,26.311-3.103,39.448-9.217c55.311-25.736,31.458-85.838,31.22-86.443
						c-1.672-7.791-4.151-15.035-7.417-21.627c-5.029-3.507-9.793-3.839-11.871-0.51c-4.525,7.268,1.443,20.416,1.51,20.545
						l0.925,2.028l-1.859-1.235c-8.494-5.65-18.156-6.475-20.883-6.605c-7.171,15.369-19.304,28.05-36.077,37.704
						c-17.026,9.795-34.983,14.968-51.945,14.971C296.406,366.829,290.112,366.069,284.207,364.566L284.207,364.566z"/>
				</g>
			</g>
		</g>
		<g>
			<path fill="#0A0A0A" d="M423.684,327.368c-0.039,0-0.054,0-0.066,0l0.015-1.259c0.088,0,4.769,0.024,6.439-2.049
				c0.56-0.696,0.708-1.54,0.442-2.594l1.238-0.295c0.35,1.437,0.12,2.675-0.684,3.667
				C429.101,327.284,424.323,327.368,423.684,327.368L423.684,327.368z"/>
		</g>
		<g>
			<g>
				<g>
					<path fill="#52499E" d="M306.647,283.889c0,0-9.37,41.009,22.982,78.248c8.075-2.407,16.447-5.942,24.929-10.832
						c26.363-15.164,36.929-35.372,40.891-51.931C383.426,284.024,354.215,258.062,306.647,283.889z"/>
				</g>
				<g>
					<path fill="#0A0A0A" d="M329.419,362.867l-0.277-0.32c-32.184-37.047-23.205-78.384-23.121-78.791l0.07-0.283l0.253-0.136
						c13.471-7.313,26.532-11.024,38.807-11.024c26.016,0,42.991,16.716,50.804,26.676l0.181,0.238l-0.073,0.286
						c-3.612,15.152-13.7,36.528-41.187,52.343c-8.171,4.703-16.607,8.37-25.067,10.888L329.419,362.867L329.419,362.867z
						 M307.205,284.302c-0.723,3.63-7.438,42.216,22.63,77.115c8.231-2.489,16.442-6.074,24.405-10.654
						c21.651-12.458,35.285-29.692,40.521-51.241c-7.749-9.807-24.347-25.95-49.61-25.95
						C333.164,273.573,320.408,277.18,307.205,284.302L307.205,284.302z"/>
				</g>
			</g>
			<g>
				<g>
					<path fill="#FFF331" d="M283.34,321.316c-2.45,16.932,2.187,32.344,7.824,43.958c11.389,1.738,24.486,1.037,38.466-3.136
						c-32.352-37.239-22.982-78.248-22.982-78.248S288.597,285.025,283.34,321.316z"/>
				</g>
				<g>
					<path fill="#0A0A0A" d="M303.068,366.796L303.068,366.796c-4.076,0-8.107-0.307-11.997-0.898l-0.331-0.048l-0.142-0.302
						c-7.312-15.065-9.967-29.969-7.878-44.317c5.26-36.378,23.133-37.921,23.89-37.969l0.844-0.054l-0.187,0.826
						c-0.093,0.4-8.909,41.135,22.85,77.697l0.633,0.738l-0.94,0.277C320.811,365.434,311.815,366.796,303.068,366.796
						L303.068,366.796z M291.592,364.698c11.669,1.733,24.329,0.736,36.917-2.886c-28.815-33.799-23.769-70.897-22.657-77.152
						c-3.564,0.816-17.424,5.947-21.883,36.748C281.942,335.413,284.508,349.977,291.592,364.698L291.592,364.698z"/>
				</g>
			</g>
			<g>
				<g>
					<g>
						<path fill="#52499E" d="M314.791,267.761c-42.31,22.738-37.658,64.22-31.732,94.723c0.078,0.4,0.193,0.801,0.28,1.199
							c2.495,0.678,5.125,1.184,7.824,1.591c-5.637-11.615-10.274-27.026-7.824-43.958c5.257-36.291,23.308-37.426,23.308-37.426
							s1.739-7.981,9.367-16.734C315.608,267.363,315.195,267.553,314.791,267.761z"/>
					</g>
					<g>
						<path fill="#0A0A0A" d="M292.255,366.079l-1.184-0.181c-3.004-0.452-5.583-0.982-7.888-1.606l-0.379-0.093l-0.199-0.847
							c-0.057-0.25-0.117-0.494-0.172-0.736c-6.791-35.013-8.297-73.726,32.054-95.401c0.232-0.13,0.476-0.253,0.726-0.368
							l0.515-0.256l0.768,0.974c-7.415,8.52-9.222,16.378-9.232,16.459l-0.105,0.458l-0.476,0.03
							c-0.178,0.019-17.607,1.621-22.715,36.896c-2.042,14.101,0.573,28.764,7.774,43.597L292.255,366.079L292.255,366.079z
							 M283.873,363.174c1.853,0.494,3.898,0.916,6.207,1.295c-6.915-14.694-9.395-29.234-7.361-43.238
							c4.851-33.56,20.43-37.474,23.413-37.921c0.434-1.621,2.239-7.421,7.418-14.149c-38.053,21.452-36.487,59.111-29.867,93.211
							c0.043,0.226,0.099,0.455,0.154,0.678L283.873,363.174L283.873,363.174z"/>
					</g>
				</g>
				<g>
					<g>
						<path fill="#FFF331" d="M396.64,269.342c-24.049-15.089-55.453-15.182-80.626-2.187c-7.629,8.753-9.367,16.734-9.367,16.734
							c47.568-25.827,76.778,0.135,88.803,15.486C399.476,282.545,396.674,269.496,396.64,269.342z"/>
					</g>
					<g>
						<path fill="#0A0A0A" d="M395.764,300.801l-0.808-1.037c-7.671-9.783-24.329-26.191-49.806-26.191
							c-12.064,0-24.917,3.652-38.204,10.87l-1.22,0.66l0.295-1.346c0.076-0.328,1.872-8.238,9.512-17.017
							c12.256-6.378,25.86-9.672,39.511-9.672c15.194,0,29.692,4.058,41.931,11.747l0.226,0.136l0.06,0.256
							c0.027,0.126,2.88,13.287-1.2,30.307L395.764,300.801L395.764,300.801z M345.15,272.314c25.127,0,41.834,15.601,49.969,25.637
							c3.284-14.794,1.308-26.384,0.949-28.219c-11.979-7.46-26.164-11.407-41.024-11.407c-13.45,0-26.842,3.251-38.734,9.388
							c-5.426,6.291-7.791,12.284-8.644,14.914C320.673,275.781,333.275,272.314,345.15,272.314L345.15,272.314z"/>
					</g>
				</g>
			</g>
			<g>
				<g>
					<path fill="#F97237" d="M308.518,285.456c-2.036,1.714-4.736,1.88-6.044,0.359c-1.313-1.519-0.726-4.152,1.308-5.876
						c2.036-1.717,4.736-1.877,6.046-0.362C311.131,281.102,310.546,283.73,308.518,285.456z"/>
				</g>
				<g>
					<path fill="#0A0A0A" d="M304.957,287.492c-1.208,0-2.266-0.455-2.968-1.268c-1.527-1.781-0.919-4.824,1.38-6.761
						c2.217-1.874,5.456-2.019,6.942-0.283c1.524,1.772,0.91,4.806-1.377,6.755C307.762,286.917,306.319,287.492,304.957,287.492
						L304.957,287.492z M307.334,279.168c-1.057,0-2.208,0.452-3.148,1.251c-1.754,1.494-2.308,3.732-1.229,4.989
						c1.033,1.196,3.459,0.988,5.155-0.437c1.76-1.491,2.305-3.721,1.232-4.984C308.886,279.457,308.172,279.168,307.334,279.168
						L307.334,279.168z"/>
				</g>
			</g>
			<g>
				<g>
					<path fill="#52499E" d="M399.593,271.313c0,0-0.928-50.879-43.133-53.651c-42.199-2.769-40.445,47.797-40.445,47.797
						s20.527-9.373,43.968-7.758C383.432,259.315,399.593,271.313,399.593,271.313z"/>
				</g>
				<g>
					<path fill="#0A0A0A" d="M400.25,272.584l-1.033-0.771c-0.163-0.114-16.3-11.901-39.277-13.489
						c-1.783-0.115-3.625-0.181-5.468-0.181c-20.669,0-38.011,7.806-38.183,7.885l-0.868,0.395l-0.042-0.94
						c-0.003-0.247-0.696-24.802,12.931-38.803c6.297-6.481,14.673-9.756,24.868-9.756c1.076,0,2.181,0.036,3.326,0.106
						c42.295,2.775,43.711,53.756,43.723,54.269L400.25,272.584L400.25,272.584z M354.472,256.884c1.871,0,3.739,0.063,5.553,0.193
						c19.964,1.368,34.851,10.329,38.873,12.986c-0.515-7.809-5.041-49.312-42.482-51.774c-1.108-0.075-2.19-0.112-3.236-0.112
						c-9.84,0-17.905,3.152-23.943,9.367c-11.772,12.091-12.564,32.38-12.585,36.96
						C320.486,262.907,336.195,256.884,354.472,256.884L354.472,256.884z"/>
				</g>
			</g>
		</g>
		<g>
			<g>
				<path fill="#42210B" d="M301.778,357.133c0,0,21.365,4.335,42.314-14.45c0,0-10.539-24.134-33.567-15.948
					C290.146,333.991,301.778,357.133,301.778,357.133z"/>
			</g>
			<g>
				<path fill="#0A0A0A" d="M307.479,358.194L307.479,358.194c-3.597,0-5.743-0.428-5.83-0.443l-0.308-0.06l-0.132-0.277
					c-0.247-0.479-5.89-11.913-2.052-21.407c1.853-4.57,5.604-7.885,11.154-9.858c3.23-1.151,6.417-1.736,9.448-1.736
					c16.845,0,24.829,17.84,24.914,18.023l0.178,0.41l-0.331,0.308C329.916,356.241,315.045,358.194,307.479,358.194
					L307.479,358.194z M302.21,356.57c0.705,0.111,2.573,0.364,5.27,0.364c7.324,0,21.663-1.874,35.826-14.41
					c-1.271-2.606-8.93-16.848-23.546-16.848c-2.889,0-5.929,0.561-9.021,1.66c-5.191,1.844-8.695,4.917-10.395,9.141
					C297.024,344.65,301.369,354.762,302.21,356.57L302.21,356.57z"/>
			</g>
		</g>
		<g>
			<path d="M374.155,366.133c1.805,2.215,2.16,4.893,0.795,5.987c-1.364,1.103-3.919,0.187-5.724-2.025
				c-1.808-2.215-2.151-4.881-0.798-5.984C369.789,363.027,372.359,363.921,374.155,366.133z"/>
		</g>
		<g>
			<path d="M330.368,398.895c1.807,2.218,2.16,4.902,0.795,5.996c-1.365,1.097-3.92,0.19-5.728-2.028
				c-1.799-2.208-2.151-4.887-0.792-5.983C326.005,395.786,328.575,396.686,330.368,398.895z"/>
		</g>
		<g>
			<g>
				<path fill="#D92231" d="M402.362,362.137c0,0,22.064,29.695-19.96,52.702c0,0,17.366-4.085,30.301-13.956
					C412.702,400.884,427.45,377.151,402.362,362.137z"/>
			</g>
			<g>
				<path fill="#0A0A0A" d="M382.552,415.451l-0.452-1.159c14.095-7.725,22.428-16.996,24.755-27.559
					c2.94-13.323-4.923-24.107-4.999-24.215l0.832-0.916c7.728,4.625,12.525,10.545,14.245,17.589
					c2.784,11.419-3.432,21.597-3.697,22.021C400.196,411.224,382.73,415.412,382.552,415.451L382.552,415.451z M404.365,364.171
					c2.23,4.047,5.954,12.741,3.73,22.838c-2.16,9.786-9.229,18.463-21.033,25.842c6.047-1.923,16.689-5.927,25.251-12.47l0,0
					c-0.051,0,6.032-10.042,3.384-20.907C414.239,373.499,410.428,368.368,404.365,364.171L404.365,364.171z"/>
			</g>
		</g>
		<g opacity="0.5">
			<path fill="#D76B2A" d="M390.555,313.536c0,0,61.153,30.837,31.777,78.574c0,0,24.079-23.323,9.776-68.077
				c0,0-7.032-21.744-8.484-24.531c-1.449-2.775-12.802-7.996-14.597,4.993c0,0,0.081,11.121,3.157,15.743
				C412.184,320.237,400.958,313.358,390.555,313.536z"/>
		</g>
	</g>
	<g>
		<path fill="#0A0A0A" d="M459.755,347.326l-1.338-2.142c0.573-0.389,47.137-23.212,67.137-33.019l1.121,2.263
			C504.045,325.516,460.927,346.676,459.755,347.326L459.755,347.326z"/>
	</g>
	<g>
		<g>
			<path fill="#F97237" d="M452.292,338.086c-5.492,3.705-13.543,11.235-10.581,19.481c2.97,8.243,21.576,0.265,21.576-4.152
				c0-4.404,2.537-20.798,0-20.578C460.749,333.045,454.811,336.383,452.292,338.086z"/>
		</g>
		<g>
			<path fill="#0A0A0A" d="M448.077,361.773h-0.003c-3.618,0-6.022-1.383-6.957-3.992c-3.465-9.648,7.4-17.909,10.81-20.22
				c2.616-1.757,8.602-5.134,11.308-5.357c0.461,0.091,0.753,0.133,0.991,0.395c1.275,1.395,0.865,7.008,0.142,14.781
				c-0.241,2.576-0.449,4.797-0.449,6.035c0,1.685-2.058,3.763-5.516,5.562C455.015,360.728,451.159,361.773,448.077,361.773
				L448.077,361.773z M463.277,333.442c-2.257,0.211-8.048,3.423-10.635,5.161c-3.218,2.182-13.492,9.961-10.331,18.753
				c0.753,2.094,2.693,3.154,5.763,3.154h0.003c2.89,0,6.523-0.988,9.732-2.654c3.341-1.736,4.844-3.486,4.844-4.441
				c0-1.295,0.205-3.543,0.452-6.149C463.5,343.024,464.314,334.217,463.277,333.442L463.277,333.442z"/>
		</g>
	</g>
	<g>
		<g>
			<path fill="#F9D8B7" d="M520.399,305.528c0.157,4.194,0.217,8.599,2.751,11.443c2.54,2.838,3.812,14.185,7.195,13.341
				c3.384-0.837,1.48-10.075,1.48-10.075s12.696-5.258,13.329-7.566c0.627-2.314-10.154-1.262-10.154-1.262
				s10.154-11.904,7.828-14.986c-2.326-3.079-10.066,7.427-10.066,7.427s-0.295-11.675-3.055-12.561
				c-2.745-0.886-2.745,12.344-2.745,12.344s-5.284-11.757-7.617-11.549C517.016,292.292,520.2,300.132,520.399,305.528z"/>
		</g>
		<g>
			<path fill="#0A0A0A" d="M529.992,330.984c-0.006,0-0.006,0-0.006,0c-2.29,0-3.5-3.718-4.793-7.674
				c-0.784-2.398-1.591-4.884-2.516-5.92c-2.585-2.899-2.742-7.189-2.89-11.344l-0.018-0.504c-0.072-2.034-0.611-4.51-1.073-6.694
				c-0.789-3.67-1.196-5.797-0.425-6.831c0.253-0.331,0.594-0.518,1.013-0.56h0.006c2.118,0,5.258,5.703,7.105,9.476
				c0.042-1.051,0.117-2.305,0.247-3.555c0.518-5.146,1.615-7.237,3.264-6.692c2.489,0.802,3.214,7.812,3.417,11.398
				c1.919-2.389,5.83-6.857,8.373-6.857c0.663,0,1.229,0.283,1.639,0.825c2.181,2.89-4.097,11.19-6.891,14.613
				c0.937-0.063,2.203-0.123,3.492-0.123c4.224,0,5.224,0.669,5.619,1.175c0.241,0.323,0.319,0.723,0.205,1.118
				c-0.627,2.308-9.732,6.315-13.218,7.779c0.389,2.163,1.44,9.449-2.043,10.31C530.336,330.966,530.158,330.984,529.992,330.984
				L529.992,330.984z M519.399,292.711c-0.575,0.687,0.043,3.565,0.536,5.876c0.479,2.232,1.022,4.76,1.103,6.915l0.015,0.497
				c0.136,3.929,0.28,7.996,2.564,10.554c1.109,1.235,1.925,3.73,2.787,6.372c0.985,3.028,2.215,6.797,3.582,6.797h0.006
				c0.064,0,0.133,0,0.199-0.018c2.031-0.507,1.702-6.002,1.013-9.343l-0.109-0.506l0.485-0.199
				c6.095-2.527,12.609-5.89,12.962-7.152c0-0.015-0.383-0.702-4.607-0.702c-2.428,0-4.848,0.235-4.875,0.235l-1.555,0.151
				l1.006-1.184c4.08-4.785,9.196-12.35,7.798-14.203c-0.157-0.21-0.349-0.307-0.615-0.307c-1.989,0-6.219,4.743-8.418,7.725
				l-1.096,1.491l-0.051-1.847c-0.115-4.658-1.015-11.452-2.618-11.974l0,0c-0.937,0-1.913,5.02-1.913,11.745l-1.217,0.262
				C523.948,298.495,520.571,292.711,519.399,292.711L519.399,292.711z"/>
		</g>
	</g>
</g>
</svg>
