<?xml version="1.0" encoding="utf-8"?>
<!-- Generator: Adobe Illustrator 17.0.0, SVG Export Plug-In . SVG Version: 6.00 Build 0)  -->
<!DOCTYPE svg PUBLIC "-//W3C//DTD SVG 1.1//EN" "http://www.w3.org/Graphics/SVG/1.1/DTD/svg11.dtd">
<svg version="1.1" id="Layer_1" xmlns="http://www.w3.org/2000/svg" xmlns:xlink="http://www.w3.org/1999/xlink" x="0px" y="0px"
	 width="800px" height="600px" viewBox="0 0 800 600" enable-background="new 0 0 800 600" xml:space="preserve">
<g>
	<g>
		<g>
			<g>
				<path fill="#0A0A0A" d="M355.253,332.851c-0.256,0-0.527-0.033-0.789-0.111c-6.502-1.693-15.948-29.301-17.779-34.814
					l2.476-0.816c4.363,13.169,12.209,32.147,15.972,33.136c0.133,0.036,0.211,0.036,0.371-0.105
					c4.971-4.453,27.517-20.172,34.949-19.033l-0.394,2.555c-5.481-0.868-26.559,12.796-32.811,18.403
					C356.669,332.58,355.977,332.851,355.253,332.851L355.253,332.851z"/>
			</g>
			<g>
				<path fill="#0A0A0A" d="M482.254,360.769c-1.151,0-2.293-0.308-3.435-0.91c-8.885-4.709-14.878-27.469-15.121-28.433
					l2.521-0.648c0.051,0.223,5.939,22.621,13.827,26.8c1.229,0.657,2.404,0.765,3.576,0.355
					c10.596-3.7,30.581-16.655,30.792-16.788l1.419,2.166c-0.829,0.549-20.452,13.257-31.34,17.069
					C483.757,360.645,483.002,360.769,482.254,360.769L482.254,360.769z"/>
			</g>
		</g>
		<g>
			<g>
				<path fill="#F9D8B7" d="M515.116,322.177c4.977-3.89,16.017-8.524,21.717,6.062c4.338,11.103-4.061,22.398-14.052,21.075
					C512.787,348.013,500.139,333.885,515.116,322.177z"/>
			</g>
			<g>
				<path fill="#0A0A0A" d="M524.369,350.085c-0.549,0-1.109-0.036-1.672-0.109c-5.725-0.747-12.778-5.652-14.676-12.561
					c-1.094-3.956-0.82-9.9,6.68-15.757c1.564-1.224,5.706-4.056,10.521-4.056c3.727,0,8.885,1.805,12.229,10.392
					c2.085,5.321,1.446,11.217-1.699,15.776C533.034,347.726,528.776,350.085,524.369,350.085L524.369,350.085z M525.222,318.923
					c-4.517,0-8.563,2.896-9.696,3.781c-6.918,5.411-7.207,10.798-6.225,14.372c1.744,6.279,8.397,10.91,13.564,11.6
					c4.553,0.597,9-1.603,11.793-5.658c2.898-4.188,3.473-9.629,1.564-14.535C533.736,322.137,530.033,318.923,525.222,318.923
					L525.222,318.923z"/>
			</g>
		</g>
		<g>
			<g>
				<path fill="#0A0A0A" d="M519.922,336.319c-2.585,0-4.712-0.304-4.899-0.325l0.196-1.304c0.087,0.003,9.325,1.317,12.298-1.501
					c0.663-0.618,0.928-1.383,0.829-2.347c-0.096-1.055-0.545-1.851-1.389-2.441c-3.434-2.413-11.594-0.449-11.678-0.434
					l-0.322-1.283c0.359-0.09,8.855-2.118,12.775,0.642c1.16,0.811,1.813,1.952,1.952,3.387c0.136,1.38-0.283,2.54-1.245,3.441
					C526.587,335.904,522.937,336.319,519.922,336.319L519.922,336.319z"/>
			</g>
		</g>
		<g>
			<g>
				<path fill="#F9D8B7" d="M328.366,273.852c5.429-2.371,17.81-3.233,23.025,13.799c5.209,17.035-20.409,25.661-28.674,9.057
					C314.465,280.11,328.366,273.852,328.366,273.852z"/>
			</g>
			<g>
				<path fill="#0A0A0A" d="M336.848,306.289c-6.42,0-11.789-3.383-14.721-9.288c-2.805-5.649-3.42-10.744-1.823-15.164
					c2.148-5.996,7.563-8.491,7.785-8.593c1.157-0.507,3.543-1.338,6.649-1.338c4.677,0,13.142,2.018,17.279,15.556
					c1.407,4.564,0.723,9.006-1.889,12.503C347.231,303.87,342.133,306.289,336.848,306.289L336.848,306.289z M334.738,273.226
					c-2.865,0-5.052,0.768-6.101,1.226c-0.051,0.027-5.128,2.386-7.09,7.846c-1.455,4.067-0.865,8.819,1.772,14.116
					c2.697,5.432,7.632,8.55,13.528,8.55c4.875,0,9.554-2.215,12.217-5.788c1.669-2.232,3.309-6.014,1.678-11.328
					C346.857,275.121,339.044,273.226,334.738,273.226L334.738,273.226z"/>
			</g>
		</g>
		<g>
			<g>
				<path fill="#0A0A0A" d="M342.985,291.77c-1.627,0-7.759-0.223-11.124-3.356c-1.404-1.32-2.145-2.983-2.211-4.951
					c-0.06-2.766,1.332-4.679,3.944-5.39c4.064-1.112,10.85,1.103,12.516,4.076l-1.169,0.642c-1.259-2.253-7.282-4.453-10.995-3.438
					c-2.021,0.545-3.016,1.913-2.953,4.071c0.039,1.597,0.639,2.953,1.784,4.025c3.404,3.173,10.479,2.992,10.548,2.992l0.054,1.325
					C343.341,291.767,343.205,291.77,342.985,291.77L342.985,291.77z"/>
			</g>
		</g>
		<g>
			<g>
				<path fill="#FB626B" d="M411.432,300.601c-1.322,0.373-21.831,8.505-28.017,9.482c-6.188,0.967-2.606,6.056,0,16.122
					c2.603,10.069,29.093,18.798,39.138,19.771c10.045,0.97,30.894,3.561,37.405,0c6.517-3.555,16.288-6.282,14.658-9.126
					C472.989,334.005,448.557,290.155,411.432,300.601z"/>
			</g>
			<g>
				<path fill="#0A0A0A" d="M447.651,348.437L447.651,348.437c-7.195,0-15.664-0.85-21.865-1.485l-3.299-0.328
					c-10.5-1.022-37.034-9.946-39.701-20.262c-0.6-2.317-1.254-4.366-1.835-6.177c-1.349-4.248-2.248-7.062-1.085-8.912
					c0.603-0.964,1.733-1.567,3.447-1.835c4.685-0.738,17.912-5.716,24.269-8.114c1.995-0.747,3.36-1.259,3.673-1.35
					c3.836-1.072,7.719-1.624,11.546-1.624c29.147,0,48.692,31.705,52.314,38.053c0.361,0.627,0.412,1.172,0.241,1.69
					c-0.632,1.896-4.164,3.447-8.641,5.408c-2.199,0.967-4.471,1.965-6.441,3.043C457.934,347.819,453.806,348.437,447.651,348.437
					L447.651,348.437z M422.8,299.643c-3.7,0-7.463,0.521-11.193,1.576c-0.305,0.087-1.627,0.594-3.559,1.311
					c-6.402,2.416-19.716,7.43-24.531,8.186c-1.325,0.208-2.157,0.609-2.543,1.235c-0.837,1.356,0.015,4.08,1.217,7.849
					c0.594,1.829,1.247,3.902,1.85,6.246c2.485,9.599,28.641,18.324,38.577,19.289l3.296,0.325c6.17,0.63,14.613,1.485,21.735,1.485
					l0,0c5.848,0,9.879-0.578,11.988-1.738c2.031-1.1,4.327-2.115,6.547-3.088c3.676-1.612,7.484-3.281,7.924-4.625
					c0.054-0.187,0.045-0.341-0.06-0.515C470.419,330.799,451.221,299.643,422.8,299.643L422.8,299.643z"/>
			</g>
		</g>
		<g>
			<path fill="#0A0A0A" d="M298.041,510.059l-1.464-2.145c1.738-1.154,6.152-12.892,10.045-23.253
				c4.878-12.989,10.425-27.698,14.821-33.941c7.972-11.31,36.495-35.643,48.538-38.412l0.591,2.528
				c-10.638,2.434-38.707,25.604-47.002,37.36c-4.206,5.978-9.677,20.53-14.51,33.371
				C303.57,500.174,300.355,508.507,298.041,510.059L298.041,510.059z"/>
		</g>
		<g>
			<path fill="#0A0A0A" d="M442.188,486.04c-0.554,0-1.274-0.168-2.004-0.786c-6.149-5.14-8.044-42.762-8.234-47.035l2.594-0.123
				c0.726,15.709,3.347,41.867,7.313,45.184c0.091,0.088,0.259,0.166,0.352,0.166c3.173-0.389,19.463-7.276,33.844-13.344
				c28.285-11.946,33.95-14.055,35.519-13.263c2.908,1.446,4.351,10.214,4.836,13.925l-2.585,0.338
				c-0.726-5.58-2.218-10.931-3.272-11.85c-2.799,0.271-19.779,7.445-33.477,13.233c-15.947,6.734-31.018,13.1-34.546,13.537
				C442.423,486.031,442.315,486.04,442.188,486.04L442.188,486.04z"/>
		</g>
		<g>
			<g>
				<path fill="#5E284F" d="M508.226,467.053c0.186,9.117-2.45,36.221,11.889,35.796c14.333-0.434,0.431-32.349-1.741-38.385
					C516.198,458.433,507.741,443.839,508.226,467.053z"/>
			</g>
			<g>
				<path fill="#0A0A0A" d="M519.774,503.5c-2.657,0-4.911-0.919-6.712-2.745c-5.893-5.942-5.664-19.961-5.517-29.244
					c0.03-1.72,0.054-3.245,0.03-4.45c-0.144-7.017,0.503-11.169,1.983-12.666c0.428-0.443,0.967-0.678,1.53-0.678
					c3.417,0,7.092,8.307,7.894,10.534c0.22,0.578,0.531,1.391,0.922,2.401c3.115,8.072,10.437,26.981,5.698,34.07
					c-1.193,1.76-3.034,2.693-5.477,2.772L519.774,503.5L519.774,503.5z M511.088,455.022c-0.13,0-0.343,0.024-0.605,0.274
					c-0.678,0.69-1.781,3.136-1.612,11.741c0.021,1.217,0,2.754-0.024,4.508c-0.133,8.502-0.371,22.747,5.149,28.313
					c1.558,1.575,3.456,2.35,5.779,2.35h0.31c2.028-0.072,3.474-0.789,4.429-2.208c4.369-6.532-3.043-25.673-5.833-32.886
					c-0.392-1.015-0.708-1.847-0.919-2.434C516.376,460.828,513.01,455.022,511.088,455.022L511.088,455.022z"/>
			</g>
		</g>
		<g>
			<g>
				<g>
					<path fill="#5E284F" d="M277.508,472.943c0.03,2.241,0.512,5.516,1.564,10.066c6.083,26.315,10.419,31.048,15.631,32.768
						c0.108,0.046,0.214,0.036,0.313,0.06c-0.13-7.662-3.224-19.822-5.477-25.926C285.276,478.342,277.879,464.666,277.508,472.943z
						"/>
				</g>
				<g>
					<path fill="#0A0A0A" d="M295.679,516.636l-0.81-0.172l0.148-0.627l-0.199,0.618l-0.307-0.054
						c-5.893-1.955-10.199-7.833-16.074-33.251c-1.018-4.396-1.543-7.836-1.582-10.189c0.039-0.826,0.142-3.191,1.748-3.191
						c3.432,0,9.644,14.751,11.554,19.915c2.145,5.803,5.375,18.135,5.514,26.146L295.679,516.636L295.679,516.636z
						 M278.602,471.057c-0.009,0-0.371,0.244-0.437,1.919c0.024,2.236,0.548,5.577,1.546,9.883
						c6.029,26.098,10.392,30.494,14.619,32.109c-0.331-7.861-3.365-19.322-5.393-24.839
						C285.041,479.562,280.093,471.057,278.602,471.057L278.602,471.057z"/>
				</g>
			</g>
			<g>
				<g>
					<path fill="#5E284F" d="M299.048,495.238c-11.214-19.288-21.699-33.006-21.539-22.295c0.371-8.277,7.767,5.399,12.031,16.969
						c2.254,6.104,5.348,18.264,5.477,25.926C300.099,516.977,304.579,504.759,299.048,495.238z"/>
				</g>
				<g>
					<path fill="#0A0A0A" d="M295.682,516.558L295.682,516.558c-0.274,0-0.545-0.033-0.813-0.093l-0.494-0.106l-0.015-0.512
						c-0.127-7.846-3.326-19.991-5.423-25.718c-3.896-10.566-8.843-19.072-10.334-19.072c0,0-0.371,0.244-0.437,1.919l-1.311-0.015
						c-0.03-1.934,0.286-3.206,0.946-3.872c0.349-0.352,0.814-0.545,1.323-0.545c4.483,0,14.772,16.516,20.491,26.375
						c3.709,6.366,3.109,14.046,0.606,18.345C298.987,515.386,297.37,516.558,295.682,516.558L295.682,516.558z M295.649,515.262
						c0.012,0,0.03,0,0.03,0h0.003c1.187,0,2.434-0.964,3.408-2.636c2.311-3.983,2.847-11.124-0.609-17.056
						c-11.024-18.972-17.231-25.736-19.358-25.736c-0.024,0-0.051,0.009-0.069,0.009c3.501,1.145,9.274,14.89,11.103,19.843
						C292.242,495.371,295.387,507.254,295.649,515.262L295.649,515.262z"/>
				</g>
			</g>
		</g>
		<g>
			<g>
				<path fill="#0ABE8C" d="M370.713,393.429c0,0-11.401,13.667-14.329,17.879c-2.941,4.209-2.941,5.182,3.257,10.352
					c6.182,5.173,21.822,18.114,25.079,20.054c3.254,1.938,4.237,3.239,8.46-1.295c4.239-4.529,6.842-8.735,8.144-6.786
					c1.313,1.931,3.257,13.576,6.188,13.576c2.938,0,46.254,0,48.538-2.904c2.277-2.913,0.979-20.798-2.603-23.983
					C449.856,417.132,370.713,393.429,370.713,393.429z"/>
			</g>
			<g>
				<path fill="#0A0A0A" d="M407.513,447.854c-2.26,0-3.613-3.995-5.276-9.656c-0.554-1.874-1.064-3.649-1.452-4.209
					c-0.127-0.199-0.208-0.199-0.244-0.199c-0.717,0-2.356,1.913-3.953,3.77c-0.871,1.015-1.835,2.148-2.925,3.296
					c-3.944,4.224-5.682,3.627-8.479,1.907l-0.795-0.494c-3.76-2.236-22.991-18.292-25.173-20.114
					c-6.206-5.194-6.616-6.556-3.371-11.211c2.916-4.185,13.898-17.367,14.369-17.927l0.277-0.334l0.407,0.126
					c3.242,0.971,79.333,23.784,82.982,27.038c3.875,3.438,5.225,21.621,2.688,24.85C454.331,447.55,421.52,447.854,407.513,447.854
					L407.513,447.854z M400.541,432.498c0.365,0,0.907,0.135,1.335,0.771c0.488,0.732,0.979,2.419,1.612,4.567
					c0.895,3.046,2.568,8.731,4.026,8.731c26.966,0,46.709-1.096,48.026-2.66c2.085-2.669,0.723-20.211-2.528-23.097
					c-2.832-2.525-59.791-19.96-82.074-26.64c-1.757,2.109-11.395,13.739-14.019,17.508c-2.618,3.76-3.025,4.339,3.14,9.491
					c7.882,6.583,22.012,18.213,24.998,19.985l0.823,0.512c1.115,0.681,1.926,1.178,2.706,1.178c1.013,0,2.251-0.856,4.128-2.862
					c1.063-1.142,2.025-2.269,2.892-3.266C397.778,434.17,399.227,432.498,400.541,432.498L400.541,432.498z"/>
			</g>
		</g>
		<g>
			<g>
				<path fill="#FFE428" d="M422.553,295.199c-1.311-0.355-29.042,8.81-46.472,52.593c-17.424,43.787-9.277,50.729-9.277,50.729
					s18.271,25.405,47.077,29.934c28.822,4.525,43.476-4.206,45.107-10.027C460.613,412.606,471.459,308.462,422.553,295.199z"/>
			</g>
			<g>
				<path fill="#0A0A0A" d="M429.034,430.352h-0.003c-4.785,0-9.907-0.419-15.245-1.262c-28.749-4.51-47.33-29.934-47.511-30.186
					c-0.241-0.184-8.195-7.635,9.201-51.343c16.911-42.491,43.75-53.024,46.974-53.024l0.268,0.039
					c10.332,2.793,18.786,9.834,25.119,20.91c19.985,34.917,12.974,98.806,11.769,103.12
					C458.347,423.145,448.91,430.352,429.034,430.352L429.034,430.352z M422.379,295.825c-2.893,0.012-29.298,11.033-45.691,52.214
					c-17.047,42.853-9.536,49.927-9.457,49.99c0.295,0.371,18.563,25.357,46.757,29.783c5.27,0.829,10.331,1.253,15.044,1.253
					c18.144,0,28.074-6.321,29.324-10.81c1.193-4.258,8.135-67.562-11.65-102.138C440.553,305.364,432.366,298.522,422.379,295.825
					L422.379,295.825z"/>
			</g>
		</g>
		<g>
			<g>
				<path fill="#F9D8B7" d="M358.01,157.087c0,0,2.426,12.642-6.282,24.118c-8.708,11.458-34.483,74.223,29.081,113.994
					c64.169,40.135,112.837,0.407,119.118-22.44c6.291-22.838,12.805-52.961-9.352-77.041
					C468.431,171.645,359.631,141.586,358.01,157.087z"/>
			</g>
			<g>
				<path fill="#0A0A0A" d="M435.096,313.053L435.096,313.053c-17.924,0-36.303-5.821-54.639-17.3
					c-22.853-14.281-36.532-32.901-40.671-55.314c-4.959-26.836,5.755-52.193,11.416-59.644c8.427-11.094,6.177-23.462,6.149-23.579
					c0.338-3.414,4.351-5.047,11.937-5.047c27.839,0,103.538,23.266,121.785,43.109c23.757,25.824,14.492,59.539,9.503,77.649
					C495.957,289.749,470.624,313.053,435.096,313.053L435.096,313.053z M369.288,153.495c-4.676,0-10.305,0.63-10.615,3.661
					c0.091,0.334,2.371,12.877-6.405,24.447c-5.547,7.294-16.044,32.187-11.178,58.592c4.077,22.04,17.548,40.352,40.081,54.447
					c18.111,11.328,36.261,17.08,53.925,17.08c34.872,0,59.683-22.726,64.199-39.135c4.911-17.872,14.055-51.138-9.214-76.419
					C472.016,176.532,396.934,153.495,369.288,153.495L369.288,153.495z"/>
			</g>
		</g>
		<g>
			<path d="M362.897,205.444c0,4.022-1.455,7.276-3.257,7.276c-1.799,0-3.257-3.254-3.257-7.276c0-4.019,1.458-7.282,3.257-7.282
				C361.442,198.162,362.897,201.425,362.897,205.444z"/>
		</g>
		<g>
			<g>
				<path fill="#0A0A0A" d="M426.491,230.822c-3.296-6.029-7.406-9.686-12.217-10.87c-6.71-1.639-12.522,2.148-12.579,2.184
					l-1.925,1.274l0.967-2.085c2.703-5.791,6.322-9.448,10.745-10.885c7.002-2.272,14.094,1.623,17.122,3.296
					c0.488,0.265,1.06,0.576,1.199,0.612l-0.268,1.268c-0.301-0.054-0.69-0.268-1.567-0.756c-2.88-1.576-9.626-5.285-16.086-3.191
					c-3.594,1.169-6.628,3.983-9.036,8.379c2.377-1.112,6.785-2.573,11.736-1.35c5.185,1.262,9.575,5.14,13.052,11.507
					L426.491,230.822L426.491,230.822z"/>
			</g>
		</g>
		<g>
			<g>
				<path fill="#0A0A0A" d="M375.268,277.405c-14.45,0-16.215-26.948-16.288-28.092l1.304-0.073
					c0.015,0.265,1.759,26.875,14.983,26.875c13.293,0,16.589-18.779,16.622-18.982l1.29,0.217
					C393.147,257.552,389.664,277.405,375.268,277.405L375.268,277.405z"/>
			</g>
		</g>
		<g>
			<g>
				<path fill="#0A0A0A" d="M395.398,258.378c-1.63,0-3.097-0.379-4.381-1.127c-3.115-1.823-3.965-5.161-4.004-5.3l1.272-0.31
					c0,0.03,0.768,2.974,3.404,4.504c1.829,1.058,4.137,1.22,6.861,0.479l0.349,1.253
					C397.651,258.21,396.497,258.378,395.398,258.378L395.398,258.378z"/>
			</g>
		</g>
		<g>
			<g>
				<path fill="#825529" d="M533.369,230.038c4.155-2.015,7.041-6.215,7.041-11.123c0-5.851-4.089-10.723-9.578-12.037
					c2.206-2.326,3.579-5.42,3.579-8.861c0-6.399-4.7-11.691-10.84-12.72c2.112-2.284,3.438-5.309,3.438-8.665
					c0-7.063-5.764-12.79-12.883-12.79c-0.057,0-0.102,0.015-0.162,0.015c3.166-3.052,5.152-7.33,5.152-12.066
					c0-9.28-7.58-16.812-16.942-16.812c-5.499,0-10.379,2.612-13.474,6.655c-2.558-3.36-6.583-5.571-11.157-5.571
					c-2.838,0-5.481,0.862-7.686,2.308c0-0.118,0.018-0.232,0.018-0.35c0-9.286-7.592-16.818-16.942-16.818
					c-2.705,0-5.254,0.648-7.526,1.766c0.057-0.582,0.088-1.172,0.088-1.766c0-9.285-7.572-16.815-16.93-16.815
					c-7.846,0-14.435,5.3-16.36,12.498c-2.395-1.925-5.414-3.121-8.744-3.121c-6.562,0-12.039,4.504-13.546,10.557
					c-1.934-1.925-4.609-3.119-7.559-3.119c-4.95,0-9.066,3.357-10.271,7.891c-2.176-1.971-5.041-3.206-8.214-3.206
					c-6.746,0-12.22,5.436-12.22,12.133c0,3.155,1.247,5.999,3.233,8.159c-2.742,0.352-4.951,2.371-5.517,5.017
					c-1.964-0.781-4.097-1.226-6.345-1.226c-9.346,0-16.935,7.532-16.935,16.821c0,9.292,7.59,16.821,16.935,16.821
					c9.353,0,16.951-7.529,16.951-16.821c0-0.955-0.109-1.892-0.271-2.814c1.741,0.943,3.687,1.524,5.8,1.524
					c4.39,0,8.207-2.332,10.352-5.779c2.152,3.447,5.957,5.779,10.344,5.779c2.377,0,4.574-0.702,6.441-1.865
					c2.125,6.785,8.5,11.702,16.029,11.702c4.26,0,8.147-1.585,11.099-4.185c-0.042,0.431-0.126,0.858-0.126,1.301
					c0,6.354,5.183,11.504,11.585,11.504c2.136,0,4.106-0.606,5.827-1.606c-0.313,1.124-0.539,2.293-0.539,3.516
					c0,7.415,6.056,13.423,13.519,13.423c1.944,0,3.778-0.421,5.45-1.154c-2.573,3.122-4.119,7.108-4.119,11.458
					c0,10.009,8.165,18.117,18.234,18.117c3.341,0,6.466-0.91,9.156-2.462c2.106,4.619,6.767,7.849,12.208,7.849
					c1.133,0,2.224-0.184,3.278-0.455c-0.802,1.681-1.29,3.546-1.29,5.529c0,4.089,1.943,7.692,4.926,10.066
					c-3.727,2.564-6.174,6.831-6.174,11.678c0,6.427,4.306,11.847,10.202,13.606c-0.015,0.196-0.054,0.392-0.054,0.597
					c0,5.146,4.209,9.312,9.388,9.312c5.192,0,9.395-4.166,9.395-9.312c0-1.299-0.268-2.534-0.75-3.652
					c6.032-0.404,10.817-5.339,10.817-11.425c0-3.088-1.248-5.878-3.236-7.948c6.183-0.238,11.13-5.257,11.13-11.452
					C538.593,235.625,536.51,232.099,533.369,230.038z"/>
			</g>
			<g>
				<path fill="#0A0A0A" d="M511.238,284.09c-5.537,0-10.036-4.474-10.036-9.97c0-0.048,0-0.099,0.006-0.142
					c-6.011-2.031-10.148-7.737-10.148-14.061c0-4.586,2.136-8.906,5.773-11.72c-2.89-2.585-4.532-6.195-4.532-10.024
					c0-1.561,0.283-3.112,0.853-4.631c-0.768,0.141-1.485,0.196-2.194,0.196c-5.26,0-10.087-2.956-12.485-7.592
					c-2.742,1.443-5.788,2.205-8.879,2.205c-10.413,0-18.882-8.409-18.882-18.756c0-3.6,1.042-7.131,3.001-10.147
					c-1.205,0.32-2.44,0.488-3.685,0.488c-7.812,0-14.164-6.306-14.164-14.067c0-0.735,0.072-1.494,0.226-2.308
					c-1.561,0.69-3.191,1.045-4.868,1.045c-6.695,0-12.155-5.36-12.238-11.994c-2.986,2.187-6.599,3.378-10.319,3.378
					c-7.406,0-13.893-4.544-16.396-11.398c-1.886,1.015-3.962,1.554-6.074,1.554c-4.127,0-7.924-1.952-10.344-5.263
					c-3.423,4.676-9.78,6.613-15.329,4.215c0.057,0.587,0.087,1.145,0.087,1.693c0,9.63-7.891,17.46-17.589,17.46
					c-9.686,0-17.583-7.83-17.583-17.46c0-9.635,7.897-17.463,17.583-17.463c2.016,0,3.992,0.338,5.9,1.019
					c0.735-2.202,2.528-3.917,4.772-4.58c-1.735-2.232-2.684-4.944-2.684-7.746c0-7.041,5.766-12.778,12.862-12.778
					c2.848,0,5.623,0.955,7.885,2.733c1.609-4.42,5.83-7.418,10.599-7.418c2.676,0,5.197,0.906,7.216,2.579
					c1.964-5.953,7.526-10.018,13.889-10.018c3.004,0,5.89,0.922,8.385,2.682c2.338-7.15,9.081-12.064,16.719-12.064
					c9.699,0,17.596,7.836,17.596,17.465c0,0.238-0.018,0.483-0.024,0.726c2.163-0.916,4.444-1.37,6.797-1.37
					c9.425,0,17.156,7.403,17.575,16.667c2.163-1.19,4.567-1.807,7.035-1.807c4.335,0,8.352,1.88,11.157,5.179
					c3.357-3.995,8.222-6.267,13.474-6.267c9.705,0,17.593,7.833,17.593,17.46c0,4.278-1.536,8.301-4.354,11.488
					c6.939,0.696,12.248,6.423,12.248,13.353c0,2.991-1.013,5.881-2.896,8.255c6.026,1.522,10.292,6.882,10.292,13.131
					c0,3.1-1.069,6.089-3.052,8.523c5.381,1.736,9.059,6.695,9.059,12.374c0,4.652-2.455,8.855-6.465,11.208
					c2.925,2.299,4.646,5.785,4.646,9.521c0,6.092-4.495,11.133-10.458,11.976c1.66,2.136,2.558,4.724,2.558,7.424
					c0,6.053-4.57,11.157-10.56,11.976c0.334,1,0.503,2.037,0.503,3.101C521.287,279.616,516.776,284.09,511.238,284.09
					L511.238,284.09z M495.426,231.687l-0.596,1.238c-0.817,1.709-1.221,3.468-1.221,5.249c0,3.712,1.709,7.192,4.676,9.56
					l0.678,0.542l-0.72,0.491c-3.682,2.54-5.881,6.713-5.881,11.151c0,5.942,4.004,11.28,9.741,12.989l0.488,0.139l-0.067,0.825
					c-0.024,5.038,3.896,8.921,8.713,8.921c4.827,0,8.738-3.884,8.738-8.671c0-1.172-0.232-2.32-0.696-3.396l-0.368-0.841
					l0.919-0.063c5.734-0.383,10.214-5.116,10.214-10.777c0-2.799-1.076-5.462-3.049-7.502l-1.009-1.034l1.452-0.051
					c5.89-0.238,10.497-4.989,10.497-10.813c0-3.661-1.844-7.041-4.92-9.069l-0.952-0.623l1.022-0.494
					c4.11-1.997,6.68-6.038,6.68-10.542c0-5.439-3.733-10.126-9.084-11.407l-1.093-0.259l0.765-0.819
					c2.199-2.296,3.405-5.288,3.405-8.412c0-5.999-4.33-11.082-10.305-12.085l-1.184-0.196l0.817-0.882
					c2.109-2.269,3.275-5.191,3.275-8.222c0-6.689-5.489-12.142-12.235-12.142h-1.612l0.997-1.097
					c3.188-3.076,4.951-7.203,4.951-11.602c0-8.918-7.303-16.173-16.288-16.173c-5.119,0-9.84,2.341-12.955,6.414l-0.518,0.669
					l-0.521-0.678c-2.573-3.375-6.441-5.309-10.635-5.309c-2.594,0-5.14,0.763-7.327,2.197l-1.037,0.674l0.033-1.229l0.47-0.241
					l-0.054-0.094h-0.41c0-8.921-7.297-16.17-16.285-16.17c-2.522,0-4.953,0.57-7.237,1.706l-1.064,0.521l0.12-1.169
					c0.06-0.56,0.094-1.127,0.094-1.706c0-8.918-7.306-16.173-16.282-16.173c-7.372,0-13.842,4.944-15.727,12.018l-0.259,0.964
					l-0.787-0.627c-2.428-1.941-5.318-2.977-8.331-2.977c-6.119,0-11.428,4.14-12.916,10.069l-0.271,1.115l-0.819-0.814
					c-1.898-1.892-4.417-2.928-7.098-2.928c-4.513,0-8.478,3.046-9.641,7.412l-0.28,1.034l-0.789-0.723
					c-2.151-1.962-4.911-3.034-7.774-3.034c-6.372,0-11.56,5.149-11.56,11.482c0,2.838,1.091,5.583,3.061,7.713l0.837,0.928
					l-1.241,0.157c-2.459,0.32-4.459,2.13-4.965,4.516l-0.166,0.757l-0.714-0.289c-1.962-0.78-4.007-1.184-6.101-1.184
					c-8.984,0-16.285,7.261-16.285,16.173c0,8.924,7.3,16.167,16.285,16.167c8.985,0,16.291-7.243,16.291-16.167
					c0-0.84-0.078-1.72-0.244-2.703l-0.232-1.314l1.187,0.645c5.547,2.986,12.148,0.982,15.276-4.04l0.554-0.892l0.552,0.892
					c2.13,3.422,5.788,5.474,9.792,5.474c2.127,0,4.236-0.612,6.092-1.763l0.723-0.446l0.244,0.801
					c2.112,6.728,8.313,11.254,15.411,11.254c3.92,0,7.713-1.435,10.666-4.029l1.277-1.121l-0.234,2.034
					c-0.039,0.292-0.085,0.578-0.085,0.871c0,5.987,4.905,10.862,10.934,10.862c1.904,0,3.748-0.521,5.502-1.525l1.374-0.808
					l-0.425,1.534c-0.35,1.265-0.507,2.326-0.507,3.35c0,7.053,5.77,12.775,12.862,12.775c1.781,0,3.516-0.367,5.183-1.096
					l0.777,0.997c-2.573,3.106-3.977,7.032-3.977,11.051c0,9.636,7.894,17.469,17.583,17.469c3.091,0,6.149-0.823,8.822-2.377
					l0.639-0.355l0.296,0.648c2.063,4.54,6.625,7.475,11.608,7.475c0.964,0,1.965-0.138,3.119-0.437L495.426,231.687
					L495.426,231.687z"/>
			</g>
		</g>
		<g>
			<polygon fill="#FB626B" points="421.689,379.961 407.594,365.834 390.397,369.404 396.663,351.67 386.335,334.12 
				404.301,337.293 415.102,322.87 419.95,342.565 436.964,351.2 421.981,360.212 			"/>
		</g>
	</g>
	<g opacity="0.5">
		<path fill="#D76B2A" d="M468.275,228.288c0,0,28.611,72.434-31.311,84.064c0,0,45.173-0.66,62.762-39.475
			c0,0-16.869-10.747-2.892-24.679c0,0-8.075-7.909-2.594-15.553c0,0-12.685,2.016-14.887-7.665
			C479.353,224.98,476.123,228.129,468.275,228.288z"/>
	</g>
	<g>
		<path fill="#FFE428" d="M441.935,312.755c0,0,36.293,75.401-20.385,115.973c0,0,26.899,2.381,35.721-8.454
			c0,0,1.536,0.048,2.308-11.88c0.88-13.546,2.199-43.744-3.317-66.085c-5.116-20.699-10.618-28.123-11.802-29.81L441.935,312.755z"
			/>
	</g>
</g>
</svg>
