<?xml version="1.0" encoding="utf-8"?>
<!-- Generator: Adobe Illustrator 17.0.0, SVG Export Plug-In . SVG Version: 6.00 Build 0)  -->
<!DOCTYPE svg PUBLIC "-//W3C//DTD SVG 1.1//EN" "http://www.w3.org/Graphics/SVG/1.1/DTD/svg11.dtd">
<svg version="1.1" id="Layer_1" xmlns="http://www.w3.org/2000/svg" xmlns:xlink="http://www.w3.org/1999/xlink" x="0px" y="0px"
	 width="800px" height="600px" viewBox="0 0 800 600" enable-background="new 0 0 800 600" xml:space="preserve">
<g>
	<g>
		<g>
			<path fill="#0A0A0A" d="M453.636,294.75c-16.138-8.334-26.888-15.962-27.869-16.668c-0.976-0.698-1.205-2.049-0.488-3.012
				c0.698-0.976,2.055-1.169,3.031-0.488c0.542,0.379,54.871,38.878,105.362,38.276c1.211-0.018,2.199,0.94,2.205,2.127
				c0.018,1.199-0.946,2.176-2.151,2.187C504.41,317.521,474.516,305.542,453.636,294.75L453.636,294.75z"/>
		</g>
		<g>
			<path fill="#A85802" d="M540.149,331.761c0,0-5.845-12.233-8.304-13.908c-2.465-1.688,0.892-4.93,5.718-9.606
				c4.839-4.658,5.55-11.027,8.436-9.75c2.874,1.272-0.753,10.076-0.753,10.076s11.648-3.953,12.432-0.663
				c0.783,3.314-11.479,5.405-11.479,5.405s12.155,5.309,11.088,7.978c-1.072,2.657-14.48-1.85-14.48-1.85
				s8.135,10.406,6.472,11.612c-1.669,1.217-9.852-7.123-9.852-7.123s7.352,7.918,4.833,10.347
				C541.734,336.708,540.149,331.761,540.149,331.761z"/>
			<path fill="#0A0A0A" d="M542.879,336.033c-2.387,0-3.549-3.284-3.766-3.947c-2.157-4.489-6.273-12.245-7.882-13.341
				c-0.976-0.669-1.241-1.501-1.29-2.085c-0.199-2.35,2.609-5.068,6.863-9.177c2.018-1.946,3.308-4.255,4.338-6.11
				c1.296-2.302,2.296-4.116,4.14-4.116c0.386,0,0.777,0.084,1.163,0.247c2.802,1.241,1.663,6.207,0.584,9.388
				c2.097-0.597,5.291-1.374,7.707-1.374c2.887,0,3.767,1.169,3.995,2.152c0.163,0.669,0.024,1.362-0.392,1.988
				c-1.301,1.952-5.58,3.302-8.707,4.056c4.585,2.236,9.689,5.405,8.671,7.984c-0.621,1.519-2.688,1.519-3.368,1.519
				c-2.585,0-6.496-0.964-9.25-1.76c2.338,3.206,5.14,7.508,4.881,9.346c-0.085,0.608-0.398,0.946-0.651,1.121
				c-0.289,0.223-0.663,0.331-1.067,0.331c-0.868,0-2.133-0.669-3.476-1.615c0.669,1.712,0.765,3.333-0.35,4.411
				C544.343,335.707,543.626,336.033,542.879,336.033z M545.283,299.414c-0.56,0-1.452,1.597-2.229,3.001
				c-1.115,1.989-2.477,4.447-4.724,6.617c-3.122,3.001-6.333,6.116-6.225,7.454c0.012,0.078,0.024,0.247,0.362,0.482
				c2.561,1.754,7.67,12.245,8.665,14.335c0.421,1.259,1.235,2.568,1.747,2.568c0.156,0,0.386-0.133,0.62-0.368
				c1.013-0.97-1.741-5.471-4.869-8.84c-0.41-0.422-0.386-1.103,0.048-1.512c0.428-0.41,1.109-0.398,1.519,0.03
				c2.892,2.941,6.52,6.05,8.11,6.761c-0.578-1.777-3.525-6.219-6.369-9.834c-0.289-0.374-0.301-0.904-0.024-1.29
				s0.784-0.549,1.235-0.397c0.078,0.03,7.882,2.639,11.787,2.639c1.121,0,1.38-0.229,1.38-0.229
				c-0.109-0.988-5.116-4.158-10.551-6.526c-0.44-0.187-0.699-0.645-0.639-1.115c0.054-0.482,0.422-0.862,0.892-0.934
				c3.742-0.645,9.479-2.242,10.509-3.79c0.12-0.181,0.096-0.259,0.084-0.302c-0.048-0.234-0.663-0.476-1.874-0.476
				c-3.458,0-9.086,1.892-9.135,1.91c-0.41,0.138-0.862,0.024-1.151-0.278c-0.295-0.313-0.373-0.765-0.217-1.157
				c1.657-4.025,2.308-8.249,1.332-8.683C545.446,299.438,545.361,299.414,545.283,299.414z"/>
		</g>
	</g>
	<g>
		<g>
			<g>
				<path fill="#FFFD88" d="M433.202,261.126c1.248,5.478,3.399,17.764-1.928,19.855c-4.694,1.838-10.455-5.242-13.684-9.955
					c-6.315,3.615-13.619,7.183-20.036,8.695c0,0-33.636,81.469-31.202,115.232c0.735,10.081,69.49,36.999,118.239,9.358
					C489.659,401.438,475.895,307.265,433.202,261.126z"/>
				<path fill="#0A0A0A" d="M434.444,417.502h-0.006c-34.166,0-68.573-14.215-69.164-22.477
					c-2.429-33.618,29.888-112.376,31.268-115.72c0.133-0.32,0.416-0.56,0.76-0.639c5.356-1.266,11.997-4.152,19.753-8.575
					c0.488-0.283,1.114-0.144,1.446,0.331c4.857,7.111,9.406,10.708,12.371,9.545c3.736-1.452,3.103-10.557,1.272-18.596
					c-0.109-0.482,0.12-0.976,0.554-1.199c0.434-0.235,0.976-0.139,1.308,0.223c39.903,43.121,54.817,127.025,52.449,142.156
					c-0.241,1.483-0.645,2.314-1.325,2.706C470.78,413.387,453.726,417.502,434.444,417.502z M398.343,280.637
					c-2.82,6.954-33.19,82.493-30.907,114.244c0.41,5.604,31.244,20.464,67.001,20.464c18.909,0.006,35.601-4.032,49.611-11.968
					c3.892-4.839-8.834-92.032-48.996-138.552c1.163,6.767,1.513,15.239-3.38,17.156c-0.632,0.253-1.296,0.379-1.989,0.379
					c-4.417,0-9.099-5.206-12.419-9.9C409.967,276.564,403.609,279.312,398.343,280.637z"/>
			</g>
			<g>
				<path fill="#82B5E6" d="M481.861,373.7c-0.627-3.29-1.356-6.779-2.17-10.406c-42.5,16.855-87.772,2.405-107.073-7.587
					c-0.916,3.628-1.754,7.189-2.489,10.666C387.051,374.93,434.353,394.321,481.861,373.7z"/>
			</g>
			<g>
				<path fill="#82B5E6" d="M368.798,374.333l-0.542,5.128c0,0,17.655,15.944,56.299,16.758c38.903,0.801,59.3-9.455,59.3-9.455
					l-1.362-5.405c0,0-30.731,12.148-61.469,8.906C390.287,387.023,368.798,374.333,368.798,374.333z"/>
			</g>
			<g>
				<path fill="#A85802" d="M431.274,280.981c5.327-2.091,3.176-14.378,1.928-19.855c-0.042-0.042-0.072-0.085-0.12-0.12
					c0,0-6.809,5.049-15.492,10.021C420.819,275.739,426.58,282.819,431.274,280.981z"/>
				<path fill="#0A0A0A" d="M429.683,282.361h-0.006c-4.677,0-9.641-5.833-12.98-10.726c-0.175-0.247-0.229-0.56-0.162-0.855
					c0.066-0.289,0.259-0.542,0.518-0.687c8.526-4.875,15.305-9.912,15.377-9.955c0.422-0.319,1.013-0.283,1.404,0.073l-0.687,0.861
					l0.844-0.681c0.12,0.132,0.235,0.325,0.271,0.5c1.579,6.881,3.32,18.771-2.591,21.091
					C431.039,282.234,430.376,282.361,429.683,282.361z M419.156,271.375c4.007,5.623,7.803,8.822,10.527,8.822l0,0
					c0.422,0,0.801-0.072,1.187-0.229c3.519-1.368,3.164-9.521,1.579-17.18C430.19,264.398,425.164,267.874,419.156,271.375z"/>
			</g>
		</g>
		<g>
			<g>
				<g>
					<g>
						<path fill="#D79634" d="M363.381,269.743c0,0-9.316-30.232,8.84-28.376c18.162,1.844,6.791,16.089-2.422,29.256
							C364.339,278.42,363.381,269.743,363.381,269.743z"/>
						<path fill="#0A0A0A" d="M365.912,274.961c-2.959,0-3.555-4.586-3.616-5.104c-0.193-0.548-5.495-18.107,0.326-25.941
							c2.115-2.838,5.284-4.079,9.714-3.628c5.417,0.555,8.695,2.212,10.015,5.062c2.61,5.688-3.471,14.287-9.9,23.392l-1.765,2.495
							C368.907,273.774,367.4,274.961,365.912,274.961z M370.678,242.368c-2.814,0-4.881,0.927-6.303,2.838
							c-5.182,6.954-0.012,24.043,0.043,24.218c0.187,1.494,0.831,3.375,1.494,3.375c0.175,0,1.138-0.133,2.988-2.79l1.76-2.501
							c5.803-8.22,11.805-16.704,9.707-21.254c-0.952-2.066-3.724-3.35-8.255-3.808C371.606,242.385,371.13,242.368,370.678,242.368
							z"/>
					</g>
					<g>
						<path fill="#D79634" d="M351.685,287.489c0,0-9.316-30.214,8.834-28.364c18.168,1.85,6.797,16.095-2.422,29.255
							C352.631,296.19,351.685,287.489,351.685,287.489z"/>
						<path fill="#0A0A0A" d="M354.216,292.719c-2.965,0-3.555-4.585-3.616-5.104c-0.181-0.549-5.501-18.108,0.326-25.936
							c2.115-2.832,5.291-4.073,9.714-3.621c5.423,0.549,8.701,2.2,10.008,5.05c2.616,5.682-3.465,14.287-9.894,23.398l-1.759,2.495
							C357.217,291.538,355.698,292.719,354.216,292.719z M358.976,260.126c-2.814,0-4.875,0.934-6.297,2.838
							c-5.188,6.948-0.006,24.049,0.049,24.218c0.18,1.488,0.819,3.38,1.488,3.38c0.175,0,1.133-0.144,2.995-2.796l1.754-2.495
							c5.797-8.214,11.805-16.703,9.702-21.265c-0.94-2.067-3.724-3.338-8.255-3.802C359.91,260.15,359.434,260.126,358.976,260.126
							z"/>
					</g>
					<g>
						<path fill="#D79634" d="M342.869,312.309c0,0-9.322-30.225,8.84-28.382c18.162,1.85,6.797,16.095-2.423,29.262
							C343.821,320.992,342.869,312.309,342.869,312.309z"/>
						<path fill="#0A0A0A" d="M345.4,317.521c-2.971,0-3.549-4.574-3.61-5.097c-0.187-0.542-5.514-18.114,0.325-25.947
							c2.115-2.826,5.285-4.074,9.708-3.621c5.423,0.554,8.695,2.211,10.015,5.062c2.609,5.682-3.471,14.293-9.912,23.398
							l-1.747,2.495C348.401,316.335,346.882,317.521,345.4,317.521z M350.166,284.934c-2.82,0-4.881,0.928-6.297,2.832
							c-5.194,6.966-0.012,24.061,0.036,24.23c0.193,1.488,0.819,3.368,1.494,3.368c0.168,0,1.132-0.138,2.995-2.79l1.76-2.501
							c5.797-8.207,11.804-16.697,9.701-21.265c-0.952-2.066-3.73-3.35-8.255-3.802
							C351.094,284.958,350.619,284.934,350.166,284.934z"/>
					</g>
				</g>
				<g>
					<g>
						<path fill="#D79634" d="M346.22,313.357c0,0,5.887,29.256,9.882,40.193l-10.684-4.127c0,0-2.368-12.329-2.254-21.548
							c0.109-9.22-5.266,15.637-4.374,18.427c0.892,2.772-8.84-1.989-8.84-1.989C324.159,340.86,346.22,313.357,346.22,313.357
							L346.22,313.357z"/>
					</g>
					<g>
						<path fill="#0A0A0A" d="M356.102,354.646c-0.126,0-0.265-0.036-0.391-0.078l-10.696-4.14c-0.338-0.139-0.603-0.44-0.663-0.808
							c-0.084-0.446-1.892-9.907-2.229-18.481c-1.283,5.369-2.675,13.594-2.29,14.836c0.241,0.759,0.036,1.283-0.193,1.585
							c-0.344,0.458-0.892,0.687-1.633,0.687c-2.404,0-7.918-2.657-8.533-2.959c-0.844-0.5-1.332-1.247-1.506-2.205
							c-1.248-6.894,15.486-28.014,17.396-30.4c0.271-0.326,0.705-0.47,1.115-0.38c0.41,0.102,0.723,0.428,0.807,0.844
							c0.06,0.289,5.924,29.303,9.84,40.041c0.151,0.398,0.049,0.844-0.253,1.139C356.656,354.526,356.385,354.646,356.102,354.646
							L356.102,354.646z M346.382,348.639l7.948,3.067c-3.272-10.105-7.334-29.213-8.713-35.848
							c-7.129,9.147-16.264,22.639-15.505,26.851c0.072,0.434,0.253,0.597,0.398,0.687c1.946,0.934,5.502,2.453,7.147,2.669
							c-0.35-3.947,2.783-18.885,4.133-20.711c0.373-0.507,1.47-0.699,1.928-0.247c0.428,0.428,0.56,1.103,0.536,2.778
							C344.153,335.768,345.924,346.09,346.382,348.639L346.382,348.639z"/>
					</g>
				</g>
				<g>
					<polygon fill="#0AA4E4" points="345.454,313.533 326.985,299.619 327.503,324.035 345.147,315.466 364.279,326.584 
						365.213,301.216 					"/>
					<path fill="#0A0A0A" d="M364.279,327.657c-0.181,0-0.373-0.048-0.542-0.144l-18.638-10.816l-17.113,8.315
						c-0.338,0.163-0.729,0.145-1.048-0.048c-0.313-0.193-0.512-0.53-0.524-0.904l-0.518-24.423
						c-0.012-0.41,0.217-0.795,0.591-0.982c0.379-0.193,0.826-0.151,1.151,0.097l17.873,13.473l19.12-11.931
						c0.349-0.211,0.777-0.217,1.127-0.019c0.349,0.199,0.554,0.579,0.542,0.982l-0.928,25.363c-0.006,0.379-0.229,0.723-0.56,0.903
						C364.647,327.609,364.466,327.657,364.279,327.657z M345.767,314.575l17.499,10.16l0.783-21.524l-18.017,11.244
						C345.948,314.503,345.852,314.551,345.767,314.575z M328.118,301.83l0.44,20.494l16.107-7.822
						c0.06-0.03,0.115-0.054,0.181-0.072c-0.018-0.018-0.036-0.024-0.048-0.036L328.118,301.83z"/>
				</g>
			</g>
			<g>
				<g>
					<g>
						<path fill="#D79634" d="M289.486,272.364c0,0-23.242-27.604-3.374-33.648c19.867-6.044,14.293,13.901,10.497,31.756
							C294.355,281.059,289.486,272.364,289.486,272.364z"/>
						<path fill="#0A0A0A" d="M293.331,276.799c-2.483,0-4.429-3.26-4.791-3.911c-0.482-0.53-14.263-17.065-11.057-27.773
							c1.061-3.579,3.863-6.074,8.316-7.43c6.448-1.965,10.864-1.392,13.341,1.657c4.218,5.176,1.813,16.24-0.736,27.96
							l-0.729,3.393C297.35,272.207,296.368,276.799,293.331,276.799z M292.414,238.692c-1.663,0-3.681,0.361-5.977,1.06
							c-3.772,1.145-6.008,3.104-6.876,5.984c-2.868,9.587,10.624,25.766,10.756,25.941c0.759,1.295,2.115,2.964,3.013,2.964
							c0.615,0,1.519-1.157,2.211-4.393l0.729-3.404c2.338-10.702,4.743-21.772,1.175-26.146
							C296.349,239.348,294.711,238.692,292.414,238.692z"/>
					</g>
					<g>
						<path fill="#D79634" d="M285.13,296.136c0,0-23.242-27.604-3.368-33.654c19.873-6.044,14.287,13.896,10.497,31.756
							C289.998,304.819,285.13,296.136,285.13,296.136z"/>
						<path fill="#0A0A0A" d="M288.98,300.571c-2.477,0-4.429-3.26-4.796-3.911c-0.47-0.536-14.258-17.077-11.057-27.773
							c1.066-3.579,3.862-6.086,8.309-7.436c6.46-1.964,10.883-1.392,13.353,1.651c4.212,5.176,1.814,16.246-0.741,27.954
							l-0.729,3.404C292.999,295.973,292.017,300.571,288.98,300.571z M288.058,262.464c-1.663,0-3.676,0.355-5.978,1.048
							c-3.766,1.151-6.008,3.109-6.869,5.983c-2.869,9.606,10.611,25.779,10.756,25.947c0.759,1.29,2.115,2.959,3.013,2.959
							c0.621,0,1.525-1.145,2.211-4.38l0.729-3.405c2.326-10.714,4.736-21.777,1.175-26.158
							C291.999,263.108,290.354,262.464,288.058,262.464z"/>
					</g>
					<g>
						<path fill="#D79634" d="M286.943,326.024c0,0-23.242-27.605-3.375-33.648c19.873-6.05,14.299,13.884,10.497,31.75
							C291.824,334.707,286.943,326.024,286.943,326.024z"/>
						<path fill="#0A0A0A" d="M290.794,330.459c-2.47,0-4.429-3.26-4.796-3.911c-0.47-0.536-14.257-17.077-11.064-27.773
							c1.073-3.579,3.875-6.087,8.322-7.43c6.441-1.965,10.87-1.398,13.347,1.645c4.213,5.188,1.808,16.257-0.735,27.977
							l-0.735,3.381C294.813,325.855,293.837,330.459,290.794,330.459z M289.872,292.351c-1.657,0-3.676,0.356-5.983,1.061
							c-3.754,1.145-6.008,3.098-6.87,5.978c-2.868,9.593,10.624,25.778,10.763,25.941c0.759,1.295,2.115,2.959,3.012,2.959
							c0.621,0,1.531-1.145,2.218-4.387l0.723-3.399c2.332-10.701,4.73-21.777,1.175-26.152
							C293.819,293.008,292.174,292.351,289.872,292.351z"/>
					</g>
				</g>
				<g>
					<g>
						<path fill="#D79634" d="M292.379,329.055c0,0,19.222,28.081,28.285,37.806l-13.058,0.356c0,0-7.972-11.871-11.968-21.597
							c-3.989-9.726,1.458,18.716,3.634,21.241c2.175,2.531-10.166,1.802-10.166,1.802
							C281.496,367.578,292.379,329.055,292.379,329.055L292.379,329.055z"/>
					</g>
					<g>
						<path fill="#0A0A0A" d="M292.716,369.838c-2.001,0-3.664-0.097-3.664-0.097c-1.048-0.144-1.856-0.687-2.441-1.572
							c-4.356-6.634,3.778-36.071,4.712-39.409c0.12-0.41,0.458-0.711,0.885-0.777c0.404-0.06,0.826,0.114,1.067,0.464
							c0.193,0.277,19.277,28.128,28.177,37.679c0.295,0.313,0.379,0.765,0.211,1.157c-0.169,0.392-0.542,0.651-0.964,0.663
							l-13.058,0.355c-0.349,0-0.735-0.168-0.94-0.476c-0.073-0.109-6.863-10.256-11.051-19.439
							c0.946,6.153,3.392,16.553,4.441,17.776c0.735,0.861,0.506,1.621,0.373,1.904
							C300.044,368.994,298.814,369.838,292.716,369.838L292.716,369.838z M289.263,367.584c0.061,0,1.609,0.102,3.453,0.102
							c3.41,0,4.875-0.289,5.478-0.482c-2.103-3.658-5.845-21.801-4.857-23.941c0.18-0.379,0.698-0.741,1.127-0.741
							c0.916,0,1.434,0.874,2.187,2.682c3.441,8.406,9.991,18.584,11.533,20.922l10.105-0.277
							c-8.02-9.214-21.241-28.122-25.483-34.263c-2.682,10.081-7.363,30.852-4.369,35.408
							C288.757,367.464,289.058,367.554,289.263,367.584L289.263,367.584L289.263,367.584z"/>
					</g>
				</g>
				<g>
					<polygon fill="#0AA4E4" points="290.209,326.175 264.636,319.697 276.055,345.078 290.745,328.332 315.771,331.574 
						305.437,304.572 					"/>
					<path fill="#0A0A0A" d="M276.055,346.156c-0.048,0-0.097-0.006-0.157-0.012c-0.368-0.054-0.675-0.295-0.838-0.626
						l-11.418-25.387c-0.175-0.373-0.109-0.813,0.156-1.133c0.278-0.32,0.705-0.464,1.109-0.344l24.832,6.291l14.8-21
						c0.235-0.326,0.632-0.494,1.03-0.452c0.397,0.048,0.741,0.32,0.88,0.693l10.237,26.743c0.133,0.175,0.217,0.404,0.217,0.645
						c0,0.602-0.482,1.145-1.109,1.079c-0.061,0-0.115,0-0.169,0l-24.441-3.176l-14.311,16.312
						C276.669,346.03,276.374,346.156,276.055,346.156z M266.54,321.294l9.816,21.801l13.57-15.469
						c0.235-0.277,0.597-0.397,0.958-0.362l23.224,3.001l-8.961-23.411l-14.052,19.94c-0.259,0.367-0.717,0.542-1.169,0.421
						L266.54,321.294z"/>
				</g>
			</g>
			<g>
				<path fill="#D79634" d="M373.974,94.632c-1.452-12.251-1.814-9.009,6.887-2.163c3.555,2.796,37.577,32.787,70.045,36.149
					c-18.614-27.52-50.581-45.7-86.905-45.7c-57.48,0-104.084,45.471-104.084,101.553c0,23.025,7.858,44.23,21.084,61.271
					C313.921,233.136,385.755,194.197,373.974,94.632z"/>
				<path fill="#0A0A0A" d="M281.002,246.82c-0.331,0-0.65-0.144-0.861-0.428c-13.944-17.957-21.307-39.361-21.307-61.922
					c0-56.589,47.176-102.626,105.169-102.626c35.341,0,68.092,17.174,87.658,45.959c0.234,0.199,0.379,0.488,0.379,0.813
					c0,0.602-0.476,1.042-1.103,1.079c-0.048,0.006-0.097,0-0.133-0.006c-13.896-1.44-37.21-8.744-69.387-35.365
					c-0.561-0.47-0.971-0.814-1.224-1.006c-2.187-1.723-3.802-3.206-4.983-4.29c-0.307-0.283-0.621-0.573-0.898-0.826
					c0.072,0.861,0.217,2.073,0.386,3.38l0.355,2.917c11.901,100.499-61.542,139.95-93.659,152.249
					C281.261,246.796,281.128,246.82,281.002,246.82z M364.002,84.002c-56.787,0-102.994,45.073-102.994,100.469
					c0,21.808,7.032,42.524,20.361,59.963c32.027-12.443,103.156-51.467,91.526-149.682l-0.362-2.898
					c-0.518-4.23-0.663-5.357-0.006-6.098c0.211-0.223,0.705-0.452,1.019-0.452c0.826,0,1.506,0.632,3.145,2.139
					c1.157,1.067,2.73,2.507,4.845,4.176c0.265,0.205,0.693,0.56,1.272,1.042c29.972,24.803,52.021,32.6,65.832,34.582
					C429.346,100.121,397.891,84.002,364.002,84.002z"/>
			</g>
			<g>
				<path fill="#A85802" d="M450.906,128.618c-32.467-3.362-66.845-32.961-70.045-36.149c-3.628-3.61-9.418-10.087-7.978,2.163
					c11.786,99.565-58.963,138.504-91.882,151.11c19.006,24.465,49.099,40.277,83,40.277c57.48,0,104.078-45.465,104.078-101.548
					C468.08,163.832,461.753,144.646,450.906,128.618z"/>
				<path fill="#0A0A0A" d="M364.002,287.097c-33.214,0-63.777-14.824-83.861-40.698c-0.205-0.265-0.277-0.621-0.187-0.946
					c0.103-0.338,0.338-0.603,0.657-0.723c31.34-11.998,102.957-50.623,91.189-149.977c-0.47-4.073-0.229-6.406,0.795-7.55
					c0.458-0.512,1.072-0.784,1.765-0.784c1.868,0,3.929,1.922,6.628,4.64l0.639,0.645c0.332,0.319,35.517,32.322,69.394,35.836
					c0.326,0.03,0.609,0.211,0.795,0.476c11.347,16.77,17.343,36.294,17.343,56.456
					C469.159,241.066,421.989,287.097,364.002,287.097z M282.761,246.218c19.675,24.628,49.201,38.728,81.24,38.728
					c56.787,0,102.994-45.073,102.994-100.475c0-19.56-5.785-38.517-16.716-54.835c-31.262-3.495-64.838-31.087-70.183-36.408
					l-0.663-0.65c-1.483-1.494-3.977-3.995-5.074-3.995c-0.338,0.277-0.94,1.35-0.397,5.924
					C385.737,193.938,315.235,233.455,282.761,246.218z"/>
			</g>
		</g>
		<g>
			<path fill="#0A0A0A" d="M461.735,527.106c-0.235,0-0.476-0.036-0.723-0.121c-1.133-0.397-1.736-1.627-1.332-2.759
				c18.029-50.882-0.542-108.218-0.747-108.797c-0.368-1.133,0.259-2.35,1.392-2.724c1.138-0.391,2.368,0.241,2.748,1.38
				c0.186,0.584,19.24,59.282,0.711,111.58C463.47,526.558,462.633,527.106,461.735,527.106L461.735,527.106z"/>
		</g>
		<g>
			<path fill="#0A0A0A" d="M425.796,475.651c-12.937,0-38.059-12.371-41.198-13.944c-1.079-0.548-1.501-1.85-0.964-2.904
				c0.542-1.066,1.844-1.494,2.929-0.958c12.642,6.339,35.233,15.534,41.897,13.136c0.826-0.289,1.072-0.675,1.181-0.928
				c11.335-25.303,16.113-53.57,16.161-53.847c0.199-1.175,1.29-1.994,2.501-1.778c1.193,0.193,1.989,1.314,1.796,2.489
				c-0.048,0.289-4.929,29.087-16.475,54.89c-0.675,1.512-1.952,2.633-3.7,3.247C428.767,475.458,427.375,475.651,425.796,475.651
				L425.796,475.651z"/>
		</g>
		<g>
			<path fill="#FFBD74" d="M457.74,527.112c-4.82-1.416,7.611-0.367,14.137-3.603c6.538-3.248,18.138-19.446,30.473-14.04
				C514.672,514.868,495.823,538.278,457.74,527.112z"/>
			<path fill="#0A0A0A" d="M477.149,531.173c-6.236,0-12.871-1.018-19.716-3.025c-0.784-0.229-1.965-0.573-1.856-1.651
				c0.109-1.127,1.024-1.217,4.061-1.5c3.14-0.296,8.4-0.784,11.757-2.453c1.693-0.844,3.844-2.693,6.315-4.827
				c5.387-4.646,12.082-10.425,19.482-10.425c1.916,0,3.802,0.404,5.592,1.187c3.368,1.47,4.953,4.357,4.242,7.719
				C505.452,523.563,493.852,531.173,477.149,531.173z M461.452,526.992c5.435,1.338,10.708,2.013,15.697,2.013
				c17.005,0,26.61-7.906,27.743-13.251c0.512-2.386-0.524-4.224-2.977-5.297c-1.525-0.669-3.109-1.006-4.724-1.006
				c-6.58,0-12.944,5.496-18.047,9.907c-2.597,2.224-4.827,4.152-6.767,5.116C469.183,526.063,464.832,526.648,461.452,526.992z"/>
		</g>
		<g>
			<path fill="#FFBD74" d="M394.095,509.101c0,0-1.633-51.581-11.691-52.654c-10.063-1.085-7.352,23.488-4.905,39.698
				C379.958,512.343,394.914,522.611,394.095,509.101z"/>
			<path fill="#0A0A0A" d="M390.901,516.435L390.901,516.435c-5.182,0-12.781-8.985-14.474-20.139
				c-2.091-13.829-4.266-32.913,0.952-38.939c1.338-1.531,3.037-2.211,5.14-1.989c10.473,1.121,12.383,44.928,12.666,53.696
				c0.181,2.875-0.331,4.972-1.494,6.201C392.962,516.025,391.998,516.435,390.901,516.435z M381.772,457.489
				c-1.091,0-1.995,0.416-2.736,1.283c-5.176,5.96-1.621,29.479-0.458,37.204c1.585,10.443,8.557,18.295,12.323,18.295l0,0
				c0.5,0,0.885-0.163,1.205-0.494c0.723-0.759,1.037-2.392,0.904-4.61c-0.621-19.608-4.074-50.942-10.726-51.653
				C382.103,457.496,381.935,457.489,381.772,457.489z"/>
		</g>
		<g>
			<path fill="#0A0A0A" d="M383.23,196.475c1.706,6.104-0.253,11.955-4.375,13.082c-4.11,1.133-8.822-2.904-10.515-9.003
				c-1.693-6.098,0.265-11.955,4.375-13.082C376.837,186.339,381.537,190.377,383.23,196.475z"/>
		</g>
		<g>
			<path fill="#0A0A0A" d="M433.082,179.614c-0.012,0-0.036,0-0.06,0c-0.506-0.036-0.928-0.415-1.012-0.916
				c-1.591-10.003-0.241-17.981,4.001-23.718c4.905-6.634,11.853-7.725,12.142-7.767c0.597-0.085,1.151,0.313,1.235,0.91
				c0.09,0.584-0.313,1.139-0.904,1.224c-0.072,0.012-6.393,1.036-10.75,6.947c-3.296,4.483-4.664,10.545-4.055,18.072
				c2.573-4.779,8.521-11.889,20.361-8.762c0.566,0.157,0.922,0.741,0.771,1.32c-0.163,0.573-0.747,0.904-1.338,0.765
				c-15.023-3.965-19.168,10.503-19.331,11.118C434.004,179.283,433.57,179.614,433.082,179.614L433.082,179.614z"/>
		</g>
		<g>
			<g>
				<path fill="#0A0A0A" d="M412.721,245.693c-13.745,0-25.399-4.658-26.104-4.947c-0.566-0.223-0.825-0.856-0.591-1.404
					c0.223-0.56,0.868-0.819,1.416-0.597c0.235,0.102,24.634,9.817,43.91,1.109c9.34-4.242,16.041-12.142,19.922-23.501
					c0.199-0.56,0.813-0.868,1.38-0.669c0.566,0.193,0.874,0.795,0.687,1.362c-4.086,11.95-11.178,20.284-21.102,24.773
					C425.875,244.693,419.078,245.693,412.721,245.693L412.721,245.693z"/>
			</g>
			<g>
				<path fill="#0A0A0A" d="M383.399,245.874c-0.241,0-0.476-0.078-0.687-0.247c-0.464-0.379-0.53-1.061-0.144-1.512
					c6.177-7.503,6.279-14.739,6.279-14.812c0-0.603,0.482-1.073,1.09-1.073l0,0c0.591,0,1.085,0.476,1.085,1.073
					c0,0.325-0.078,8.051-6.773,16.173C384.032,245.742,383.712,245.874,383.399,245.874L383.399,245.874z"/>
			</g>
			<g>
				<path fill="#D92231" d="M397.909,242.632c0,0-2.898,17.638,8.334,18.722c11.25,1.079,10.527-16.565,10.527-16.565
					S408.056,245.513,397.909,242.632z"/>
				<path fill="#0A0A0A" d="M407.219,262.481c-0.349,0-0.711-0.018-1.072-0.048c-2.778-0.265-5.007-1.458-6.623-3.561
					c-4.399-5.658-2.766-15.981-2.7-16.408c0.06-0.307,0.235-0.573,0.5-0.747c0.259-0.169,0.584-0.211,0.88-0.12
					c6.737,1.91,12.859,2.199,15.92,2.199c1.585,0,2.525-0.085,2.549-0.085c0.302-0.036,0.591,0.078,0.808,0.265
					c0.229,0.199,0.355,0.476,0.373,0.771c0.012,0.41,0.362,10.262-4.314,15.101C411.847,261.602,409.72,262.481,407.219,262.481z
					 M398.831,244c-0.277,2.772-0.602,9.672,2.422,13.558c1.253,1.621,2.922,2.519,5.098,2.711c2.338,0.247,4.146-0.404,5.616-1.916
					c3.212-3.314,3.664-9.84,3.712-12.425c-0.422,0.012-0.946,0.018-1.555,0.018C411.136,245.946,405.333,245.693,398.831,244z"/>
			</g>
			<g>
				<path fill="#0A0A0A" d="M406.243,262.433c-0.181,0-0.373-0.048-0.542-0.144c-0.518-0.302-0.699-0.964-0.397-1.477
					c4.724-8.032,0.397-16.143,0.362-16.228c-0.302-0.524-0.097-1.187,0.421-1.464c0.531-0.271,1.193-0.09,1.482,0.434
					c0.205,0.374,4.936,9.286-0.386,18.343C406.978,262.252,406.622,262.433,406.243,262.433L406.243,262.433z"/>
			</g>
		</g>
		<g>
			<path fill="#0A0A0A" d="M378.325,162.32c-0.072,0-0.163-0.006-0.241-0.024c-0.59-0.126-0.952-0.711-0.826-1.29
				c9.955-43.049-5.182-72.786-5.345-73.075c-0.223-0.446-0.12-1,0.259-1.319c0.386-0.326,0.94-0.355,1.35-0.06
				c0.331,0.235,33.449,24.543,35.631,65.639c0.024,0.591-0.44,1.103-1.037,1.133c-0.56,0.12-1.114-0.428-1.145-1.013
				c-1.699-32.19-22.899-53.846-31.316-61.21c3.814,9.768,11.684,35.95,3.73,70.394C379.265,161.983,378.825,162.32,378.325,162.32
				L378.325,162.32z"/>
		</g>
		<g>
			<path fill="#FFFD88" d="M388.111,377.304c-19.301-54.082,29.479-106.277,29.479-106.277c-6.315,3.615-13.619,7.183-20.036,8.695
				c0,0-33.636,81.469-31.202,115.232c0.632,8.665,51.502,29.731,96.732,17.945l-0.452-0.482
				C462.633,412.417,403.344,419.979,388.111,377.304z"/>
		</g>
		<g opacity="0.5">
			<path fill="#D76B2A" d="M317.211,226.609c-13.299,9.28-26.423,15.384-36.209,19.132c19.006,24.465,49.099,40.277,83,40.277
				c17.523,0,34.028-4.242,48.526-11.708l-0.488-0.711C346.279,286.416,324.219,247.537,317.211,226.609z"/>
		</g>
	</g>
	<g>
		<g>
			<path fill="#0A0A0A" d="M418.849,315.804c-10.467-14.763-16.487-26.441-17.041-27.526c-0.542-1.061-0.109-2.356,0.964-2.893
				c1.079-0.542,2.368-0.096,2.928,0.952c0.301,0.585,30.732,59.554,75.86,82.066c1.079,0.542,1.519,1.838,0.964,2.904
				c-0.53,1.061-1.838,1.501-2.911,0.958C453.413,359.202,432.407,334.924,418.849,315.804L418.849,315.804z"/>
		</g>
		<g>
			<path fill="#A85802" d="M478.571,388.15c0,0,0.464-13.527-0.94-16.137c-1.416-2.621,3.073-3.971,9.527-5.911
				c6.441-1.934,10.027-7.273,11.997-4.821c1.971,2.441-5.339,8.605-5.339,8.605s12.19,1.802,11.347,5.092
				c-0.826,3.284-12.685-0.44-12.685-0.44s8.334,10.262,6.158,12.136c-2.193,1.874-12.021-8.249-12.021-8.249
				s2.423,12.956,0.386,13.269c-2.055,0.313-5.453-10.829-5.453-10.829s2.862,10.389-0.494,11.401
				C477.679,393.272,478.571,388.15,478.571,388.15z"/>
			<path fill="#0A0A0A" d="M480.24,393.477c-0.808,0-1.494-0.313-2.007-0.898c-1.217-1.446-0.832-4.092-0.741-4.616
				c0.162-4.965,0.096-13.727-0.826-15.432c-0.56-1.055-0.41-1.904-0.181-2.447c0.91-2.187,4.664-3.308,10.347-5.02
				c2.693-0.813,4.905-2.271,6.683-3.447c1.723-1.145,3.091-2.049,4.411-2.049c0.808,0,1.53,0.355,2.079,1.037
				c1.922,2.374-1.38,6.261-3.808,8.587c3.115,0.621,8.22,1.91,9.641,4.049c0.428,0.621,0.555,1.32,0.392,1.995
				c-0.373,1.44-1.802,2.181-4.266,2.181c-2.067,0-4.646-0.507-6.641-0.982c3.043,4.079,6.128,9.243,4.013,11.057
				c-0.373,0.325-0.861,0.494-1.41,0.494c-2.404,0-6.827-3.76-9.672-6.436c0.591,3.911,1.091,8.99,0.006,10.509
				c-0.355,0.494-0.789,0.651-1.103,0.699c-1.03,0.175-2.248-0.934-3.435-3.181c-0.21,1.814-0.868,3.272-2.356,3.724
				C480.969,393.423,480.596,393.477,480.24,393.477z M497.926,361.727c-0.663,0-1.892,0.819-3.206,1.693
				c-1.898,1.248-4.255,2.814-7.249,3.712c-4.164,1.253-8.466,2.543-8.979,3.784c-0.024,0.078-0.096,0.229,0.096,0.591
				c1.464,2.724,1.145,14.372,1.061,16.686c-0.157,0.994-0.169,2.489,0.253,2.995c0.096,0.121,0.349,0.193,0.837,0.043
				c1.338-0.398,0.976-5.653-0.247-10.076c-0.157-0.566,0.187-1.157,0.753-1.325s1.169,0.163,1.344,0.729
				c1.325,4.363,3.055,8.418,4.061,9.701c0.313-1.85-0.259-7.14-1.103-11.642c-0.084-0.464,0.145-0.934,0.579-1.157
				c0.422-0.217,0.946-0.126,1.283,0.217c3.278,3.38,8.719,8.147,10.515,8.147c0.422-0.928-2.561-6.02-6.291-10.611
				c-0.307-0.368-0.326-0.898-0.054-1.29c0.271-0.392,0.765-0.549,1.223-0.416c0.054,0.018,5.592,1.747,9.153,1.747
				c1.386,0,2.085-0.283,2.157-0.549c0.012-0.042,0.036-0.109-0.072-0.265c-1.006-1.494-6.683-2.941-10.382-3.489
				c-0.428-0.06-0.765-0.362-0.886-0.771c-0.12-0.41,0.018-0.844,0.338-1.127c3.344-2.82,5.863-6.267,5.2-7.105
				C498.125,361.727,498.01,361.727,497.926,361.727z"/>
		</g>
	</g>
</g>
</svg>
