<?xml version="1.0" encoding="utf-8"?>
<!-- Generator: Adobe Illustrator 17.0.0, SVG Export Plug-In . SVG Version: 6.00 Build 0)  -->
<!DOCTYPE svg PUBLIC "-//W3C//DTD SVG 1.1//EN" "http://www.w3.org/Graphics/SVG/1.1/DTD/svg11.dtd">
<svg version="1.1" id="Layer_1" xmlns="http://www.w3.org/2000/svg" xmlns:xlink="http://www.w3.org/1999/xlink" x="0px" y="0px"
	 width="800px" height="600px" viewBox="0 0 800 600" enable-background="new 0 0 800 600" xml:space="preserve">
<g>
	<g>
		<path fill="#141111" d="M484.367,203.474c-0.468-28.528-5-56.49-47.116-69.549c0.47-9.479-0.484-36.577-2.389-42.839
			c-20.119-6.54-40.131,1.033-40.131,1.033s-2.315,28.479-1.254,41.827c-30.162,10.092-54.933,31.925-55.814,78.7
			c-0.88,46.776,7.517,265.127,13.036,271.564c3.992,4.653,15.759,9.513,25.504,5.144c13.717-6.141,7.587-29.609,16.417-30.152
			c8.828-0.544-5.169,23.638,9.751,29.755c6.412,2.631,17.228,1.582,23.336-3.033c6.106-4.612,4.293-25.261,4.981-29.383
			c1.065-6.352,10.011-8.336,12.402-5.292c2.391,3.045-0.958,28.81,6.923,33.182c7.87,4.37,22.679,2.514,28.308-2.866
			C483.946,476.184,484.835,232.001,484.367,203.474z"/>
		<path fill="#A6474F" d="M427.293,95.933c2.62,12.436,1.183,35.103,1.183,35.103s-19.426-2.46-26.655,1.21
			c-1.229-7.036,0.007-27.402,0.422-35.893C409.117,93.887,420.208,93.743,427.293,95.933z"/>
		<path fill="#9A333C" d="M401.303,120.314c-0.053,4.943,0.065,9.341,0.518,11.931c7.229-3.67,26.655-1.21,26.655-1.21
			s0.331-5.212,0.387-12.006C419.669,118.42,410.253,119.038,401.303,120.314z"/>
		<path fill="#C2C2C4" d="M474.186,191.745c2.343,46.006,1.266,276.549-1.203,281.785c-2.472,5.24-15.056,6.207-19.294,2.457
			c-4.231-3.749-1.308-18.86-2.157-27.488c-0.836-8.628-24.172-5.597-27.099-0.343c-2.914,5.253,1.143,25.167-3.576,30.505
			c-4.717,5.333-13.788,4.567-16.723-0.423c-2.935-4.991,1.129-19.431-1.07-23.594c-3.451-6.544-15.329-4.626-19.008-1.109
			c-6.053,5.789-2.724,19.431-8.282,26.384c-2.641,3.31-11.73,3.487-17.784-0.576c-6.057-4.058-6.194-91.195-6.194-91.195
			c26.173,6.576,64.982,3.02,89.484-6.56c-0.463-17.912-5.227-134.917-5.138-182.601c-30.233,10.044-70.758,8.305-88.823,2.065
			c-1.143-25.164,23.295-59.139,61.826-61.247C440.269,138.103,472.236,153.443,474.186,191.745z"/>
		<path fill="#A6474F" d="M366.727,222.596c9.837,1.037,20.82,1.24,30.701,0.371c11.073-0.974,25.599-4.177,31.52-6.8
			c-0.079-2.667-0.155-5.109-0.225-7.297c-24.827,5.363-57.61,9.225-81.463,0.851c-0.093,2.879-0.17,5.851-0.232,8.883
			C353.484,220.332,360.008,221.887,366.727,222.596z"/>
		<path fill="#A6474F" d="M431.941,339.621c-0.903-37.518-2.277-91.537-3.113-121.377c-7.525,2.979-19.073,5.293-30.342,6.558
			c-9.823,1.104-18.612,0.761-28.451-0.077c-7.925-0.676-15.51-2.372-23.046-4.312c-0.696,37.613,0.889,85.663,2.571,122.885
			C376.583,349.672,406.374,350.763,431.941,339.621z"/>
		<path fill="#A6474F" d="M349.645,345.197c0.567,12.401,1.141,23.536,1.636,32.589c19.383,9.366,68.964,4.405,81.59-2.512
			c-0.236-7.676-0.542-19.578-0.884-33.669C406.365,352.45,376.678,351.491,349.645,345.197z"/>
		<path fill="#90333C" d="M428.835,212.35c-0.039-1.214-0.076-2.388-0.113-3.48c-24.827,5.363-57.61,9.225-81.463,0.851
			c-0.045,1.287-0.082,2.593-0.116,3.912C362.595,218.393,387.857,222.923,428.835,212.35z"/>
		<path fill="#90333C" d="M398.053,359.107c-15.853,0.924-32.169,1.226-47.804-1.216c0.361,7.346,0.711,14.06,1.032,19.895
			c19.383,9.366,68.964,4.405,81.59-2.512c-0.16-5.163-0.349-12.244-0.562-20.608C421.072,357.266,409.307,358.452,398.053,359.107z
			"/>
		<path fill="#D68F8D" d="M350.338,246.532c0,0,11.121,5.589,35.963,5.521c16.848-0.047,36.273-6.669,36.273-6.669l1.183,34.242
			c0,0-15.621,9.822-39.489,10.32c-23.788,0.498-33.136-6.879-33.136-6.879L350.338,246.532z"/>
		<path fill="#C37977" d="M351.458,286.935c0,0,13.006,8.453,37.138,7.64c21.336-0.72,35.295-9.232,35.295-9.232l0.951,28.101
			c0,0-15.2,7.131-34.664,8.789c-19.452,1.658-38.015-5.47-38.015-5.47L351.458,286.935z"/>
		<path fill="#EFEFF0" d="M442.167,157.108c8.143,4.345,17.575,15.479,17.961,23.985c0.386,8.506-17.55,4.672-28.778-7.993
			C425.196,166.157,419.421,144.968,442.167,157.108z"/>
		<path fill="#EFEFF0" d="M401.861,151.258c9.705-1.928,11.907,8.785,1.308,10.701C392.57,163.876,392.493,153.118,401.861,151.258z
			"/>
		<path fill="#EFEFF0" d="M468.466,215.318c0.016,10.76,0.685,51.269,1.268,64.157c0.588,12.887-12.557-14.139-12.501-31.003
			C457.289,231.61,468.456,205.989,468.466,215.318z"/>
		<path fill="#A2A7AE" d="M469.121,338.337c0.419,17.561,0.324,88.596-0.37,100.465c-0.692,11.87-13.538-26.65-12.76-45.698
			C456.772,374.054,468.672,319.343,469.121,338.337z"/>
		<path fill="#A2A7AE" d="M420.693,466.454c-0.009,3.96-0.646,12.944-9.275,12.977C402.791,479.464,420.711,457.844,420.693,466.454
			z"/>
		<path fill="#A2A7AE" d="M471.512,463.429c0.489,6.084,0.709,11.324-6.796,13.224C450.903,480.15,470.565,451.637,471.512,463.429z
			"/>
		<path fill="#A2A7AE" d="M377.485,465.186c-0.669,5.757,1.093,15.019-8.731,15.823
			C358.924,481.815,379.196,450.458,377.485,465.186z"/>
		<path fill="#EFEFF0" d="M393.026,445.47c6.254-0.546,15.684,1.44,15.269,10.427c-0.414,8.987,13.258-6.702-0.271-15.056
			C397.85,434.561,384.432,446.218,393.026,445.47z"/>
		<path fill="#EFEFF0" d="M443.736,439.937c8.698,0.237,13.367,4.775,12.476,12.348c-0.887,7.574,10.467-4.78,2.613-14.828
			C450.975,427.412,433.862,439.665,443.736,439.937z"/>
		<path fill="#141111" d="M404.618,95.137c-0.306,4.874,0.292,9.746,0.542,14.607c0.014,0.234,0.465,0.235,0.475-0.002
			c0.187-4.868-0.217-9.732-0.322-14.598C405.307,94.754,404.643,94.743,404.618,95.137z"/>
		<path fill="#141111" d="M407.458,92.293c-0.092,5.692,0.271,11.379,0.291,17.069c-0.002,0.241,0.466,0.236,0.482-0.004
			c0.366-5.706,0.438-11.428,0.122-17.129C408.321,91.72,407.469,91.798,407.458,92.293z"/>
		<path fill="#141111" d="M410.452,90.878c0.13,5.844,0.058,11.779,0.551,17.598c0.021,0.239,0.477,0.24,0.486-0.003
			c0.213-5.875,0.158-11.641,0.037-17.516C411.51,90.357,410.436,90.269,410.452,90.878z"/>
		<path fill="#141111" d="M414.665,89.488c-0.472,6.765-0.241,13.561-0.435,20.334c-0.007,0.335,0.563,0.371,0.599,0.033
			c0.761-6.743,0.745-13.54,0.949-20.303C415.794,88.928,414.706,88.856,414.665,89.488z"/>
		<path fill="#141111" d="M419.614,90.175c-0.051-0.518-0.894-0.431-0.905,0.071c-0.167,7.309-0.94,14.966-0.292,22.239
			c0.018,0.222,0.426,0.23,0.445,0.005C419.517,105.105,420.313,97.563,419.614,90.175z"/>
		<path fill="#141111" d="M421.634,90.989c-0.532,7.498-0.96,15.583,0.213,23.02c0.037,0.227,0.453,0.24,0.47-0.002
			c0.622-7.584,1.21-15.538,0.729-23.12C422.993,90.07,421.692,90.22,421.634,90.989z"/>
		<path fill="#141111" d="M426.011,91.886c-0.129-0.796-1.419-0.692-1.419,0.11c-0.026,7.47-0.012,15.195,0.771,22.621
			c0.039,0.394,0.662,0.41,0.708,0.004C426.944,107.263,427.183,99.199,426.011,91.886z"/>
	</g>
	<path fill="#A2A7AE" d="M363.086,181.242c-3.789,8.964-12.2,15.731-11.532,8.858c0.861-8.886,7.697-19.023,11.444-23.958
		C367.502,160.208,366.218,173.83,363.086,181.242z"/>
	<path fill="#A2A7AE" d="M370.951,393.916c10.242,0.724,45.23-2.575,57.616-5.741c12.385-3.165-16.2,11.154-33.493,11.418
		C377.782,399.856,352.994,392.647,370.951,393.916z"/>
</g>
</svg>
