<?xml version="1.0" encoding="utf-8"?>
<!-- Generator: Adobe Illustrator 17.0.0, SVG Export Plug-In . SVG Version: 6.00 Build 0)  -->
<!DOCTYPE svg PUBLIC "-//W3C//DTD SVG 1.1//EN" "http://www.w3.org/Graphics/SVG/1.1/DTD/svg11.dtd">
<svg version="1.1" id="Layer_1" xmlns="http://www.w3.org/2000/svg" xmlns:xlink="http://www.w3.org/1999/xlink" x="0px" y="0px"
	 width="800px" height="600px" viewBox="0 0 800 600" enable-background="new 0 0 800 600" xml:space="preserve">
<g>
	<path fill-rule="evenodd" clip-rule="evenodd" fill="#4C4C3C" d="M333.906,171.439c3.346-0.572,21.213,0.005,30.298,0.183
		c4.392,0.086,12.528,0.927,12.715-1.792c0.187-2.72-4.885-8.408-10.473-8.656c-7.544-0.336-17.249,2.311-22.372,0.561
		c2.697-3.997,8.933-14.192,10.589-20.221c1.38-5.024-8.957-10.168-9.248-7.436c-0.288,2.732-2.319,9.087-4,13.489
		c-2.875,7.524-6.899,14.257-12.756,17.541c-1.823,1.023-4.546,1.687-6.705,1.349c-1.205-3.057-0.949-12.521-0.764-13.649
		c0.108-0.653,5.573-0.129,10.12-1.22c3.319-0.795,6.147-2.357,6.063-6.043c-0.023-0.958-3.526-0.799-5.9-0.818
		c-4.071-0.032-8.502,0.393-8.975-0.202c-0.47-0.594,0.282-7.172,0.535-13.55c0.148-3.711,0.529-8.353-0.407-9.715
		c-1.996-2.894-15.091-3.755-13.407-1.349c1.684,2.408,2.754,6.676,3.42,11.077c0.915,6.043,0.916,12.642-0.069,16.58
		c-0.134,0.54-3.47,0.372-6.934,0.793c-3.818,0.464-7.612,2.16-7.811,5.279c-0.2,3.12,4.731,1.541,8.032,1.296
		c3.402-0.252,6.63-0.817,7.103-0.435c0.937,0.752,0.087,9.229,0.28,13.305c-9.631,2.943-22.622,5.552-34.299,4.851
		c-0.243-1.388-0.499-2.78-0.779-4.176c-1.314-6.599-3.307-11.791-4.021-15.515c-0.713-3.725,19.049-17.996,17.14-22.033
		c-1.912-4.036-4.853-8.185-9.098-7.649c-5.448,0.688-8.474,24.756-12.486,21.68c-4.011-3.075-13.557-18.837-18.346-12.237
		c-4.788,6.602,12.807,14.736,12.735,18.889c-0.072,4.152-28.004,17.183-20.108,20.912c7.895,3.728,21.329-12.571,22.79-12.143
		c1.462,0.429,3.886,9.953,3.886,12.643c0,2.69-20.401,22.865-25.335,27.832c-5.698,5.735-22.798,14.456-13.407,16.189
		c9.394,1.734,25.323-21.287,39.548-30.356c0.731,12.906,3.148,33.282-5.362,39.125c-3.476,0.326-9.958-1.083-10.725,0.674
		c-0.765,1.759,3.505,4.501,6.031,8.095c2.328,3.309,3.083,8.867,7.374,8.771c4.309-0.099,8.181-10.194,9.384-15.515
		c0.717-3.166,1.296-6.334,1.767-9.507c-0.027,0.208-0.042,0.415-0.069,0.622c7.14-5.322,14.782-10.139,23.327-14.051
		c6.176,9.935-6.566,30.663,4.692,37.776c3.726-0.522,2.373-6.157,6.031-6.746h20.781c4.668,2.721,3.435,11.382,8.043,14.166
		c12.198-5.298,8.028-27.072,8.635-44.036c0.17-4.74,0.696-10.013,2.09-12.629c1.392-2.615-4.002-4.557-7.006-5.321
		c-7.512-1.909-18.459,1.368-27.179,1.274C324.829,183.011,330.564,172.01,333.906,171.439z M280.901,209.905
		c0.857-10.536,0.423-21.163-1.13-32.002c2.57,0.328,2.817,2.995,5.319,3.395c12.595,1.181,20.642-5.725,30.833-4.722
		C307.437,190.893,295.268,201.506,280.901,209.905z M337.374,196.139c7.116,4.6,3.453,23.407,3.351,33.054
		c-7.624-2.381-21.611-1.11-28.154-0.675c-1.849-2.128-1.841-9.154-0.668-12.143c3.264-2.438,9.479-1.91,14.51-2.576
		c3.066-0.405,7.131,0.176,6.937-3.495c-0.193-3.672-3.765-4.91-7.164-4.366c-4.395,0.705-9.902,3.138-14.282,0.993
		c-0.804-1.891-0.738-4.654-0.67-7.42C314.713,193.568,329.337,195.25,337.374,196.139z"/>
	<path fill-rule="evenodd" clip-rule="evenodd" fill="#8B8B78" d="M332.421,169.945c3.345-0.572,21.211,0.005,30.297,0.183
		c4.392,0.086,12.53,0.927,12.715-1.792c0.187-2.72-4.883-8.407-10.473-8.655c-7.544-0.337-17.247,2.311-22.372,0.56
		c2.698-3.996,8.933-14.192,10.591-20.221c1.38-5.023-8.959-10.168-9.248-7.436c-0.289,2.732-2.32,9.086-4,13.489
		c-2.876,7.525-6.901,14.257-12.757,17.54c-1.82,1.023-4.544,1.687-6.705,1.349c-1.204-3.057-0.949-12.521-0.762-13.649
		c0.108-0.653,5.572-0.128,10.122-1.219c3.318-0.796,6.144-2.358,6.06-6.043c-0.023-0.958-3.524-0.799-5.9-0.818
		c-4.071-0.032-8.502,0.393-8.974-0.201c-0.471-0.594,0.282-7.173,0.535-13.551c0.146-3.711,0.529-8.353-0.408-9.715
		c-1.996-2.894-15.09-3.755-13.407-1.348c1.684,2.407,2.756,6.676,3.42,11.077c0.915,6.043,0.916,12.641-0.068,16.581
		c-0.133,0.539-3.471,0.371-6.934,0.792c-3.82,0.464-7.613,2.161-7.812,5.279c-0.199,3.12,4.734,1.541,8.034,1.296
		c3.401-0.252,6.631-0.817,7.103-0.435c0.937,0.753,0.086,9.229,0.279,13.305c-9.631,2.943-22.622,5.552-34.299,4.851
		c-0.241-1.388-0.499-2.78-0.779-4.176c-1.314-6.599-3.307-11.791-4.021-15.515c-0.713-3.724,19.052-17.996,17.142-22.032
		c-1.912-4.036-4.855-8.185-9.099-7.649c-5.448,0.688-8.472,24.756-12.485,21.681c-4.011-3.076-13.559-18.838-18.347-12.237
		c-4.787,6.602,12.809,14.735,12.735,18.888c-0.072,4.153-28.003,17.183-20.107,20.912c7.894,3.728,21.327-12.57,22.79-12.142
		c1.462,0.428,3.884,9.952,3.884,12.643c0,2.691-20.401,22.866-25.335,27.832c-5.698,5.735-22.796,14.456-13.405,16.19
		c9.393,1.733,25.322-21.287,39.548-30.356c0.732,12.906,3.146,33.282-5.362,39.125c-3.477,0.325-9.959-1.083-10.726,0.674
		c-0.764,1.759,3.505,4.501,6.033,8.096c2.328,3.308,3.081,8.867,7.374,8.77c4.308-0.099,8.18-10.194,9.382-15.515
		c0.717-3.166,1.296-6.333,1.767-9.507c-0.026,0.209-0.042,0.415-0.069,0.623c7.143-5.322,14.782-10.14,23.327-14.051
		c6.177,9.935-6.566,30.662,4.692,37.775c3.728-0.521,2.373-6.157,6.034-6.745h20.777c4.668,2.721,3.437,11.382,8.043,14.166
		c12.198-5.298,8.028-27.072,8.635-44.035c0.172-4.74,0.696-10.014,2.09-12.629c1.395-2.616-4.002-4.557-7.005-5.321
		c-7.514-1.909-18.457,1.368-27.179,1.274C323.344,181.518,329.08,170.515,332.421,169.945z M279.417,208.411
		c0.856-10.536,0.422-21.163-1.13-32.002c2.57,0.329,2.817,2.995,5.317,3.395c12.595,1.181,20.642-5.724,30.833-4.721
		C305.952,189.398,293.785,200.012,279.417,208.411z M335.888,194.644c7.118,4.6,3.453,23.407,3.352,33.054
		c-7.625-2.381-21.612-1.109-28.154-0.675c-1.85-2.127-1.841-9.154-0.669-12.142c3.263-2.439,9.48-1.911,14.51-2.576
		c3.066-0.406,7.131,0.176,6.938-3.496c-0.191-3.672-3.767-4.91-7.164-4.366c-4.397,0.705-9.904,3.138-14.284,0.993
		c-0.803-1.891-0.738-4.654-0.671-7.42C313.227,192.074,327.852,193.757,335.888,194.644z"/>
	<path d="M401.647,188.556c-3.194,5.988-5.885,11.447-8.407,16.377c-6.73,14.088-10.095,24.127-10.095,29.762
		c-3.506,3.694-7.368,10.652-7.704,14.702c-13.551,1.477-17.743,1.04-19.982,1.04c-2.239,0-4.739-0.73-5.644-1.563
		c-0.71,0.357-0.648,0.965-0.648,0.965c1.346,2.289,11.805,3.892,24.552,3.718c-1.248,2.058-2.266,4.973-2.144,7.885
		c0.124,2.912,1.141,4.952,2.655,6.712c-6.393-2.113-15.139-5.458-26.241-10.39c-10.092-4.93-17.157-8.276-21.362-10.214
		c-3.196-4.051-7.232-6.162-12.281-6.162c-16.818,0-32.293,10.741-46.759,32.048c-4.711,6.869-13.431,21.917-18.46,38.945
		c-5.029,17.026-4.571,33.132-0.458,43.026c4.115,9.894,13.946,22.319,34.523,14.266c5.215,0,23.923-2.551,56.387-6.425
		c-4.784,2.647-11.608,6.34-13.289,7.573c-6.389-4.145-17.109,3.752-17.109,12.537c-23.065,10.556-45.594,58.159-45.243,74.919
		c25.829,12.997,80.056,22.643,131.713,23.349c51.659,0.705,136.74-3.529,161.759-23.636c-0.943-22.354-11.112-54.464-21.279-72.93
		c4.879-3.873,8.834-8.076,12.534-12.83c5.046-5.988,7.568-11.095,7.568-15.146c0-0.353,0-0.704,0-0.881l0,0
		c5.215-0.703,14.725-11.84,20.101-24.896c-8.529-0.118-18.757,3.942-18.757,3.942c-0.167-8.805-0.841-14.44-2.352-16.907
		c-10.211,6.731-11.994,23.45-11.496,25.903c-2.572,7.293-9.937,18.937-15.756,25.871c-3.53-5.811-6.56-8.982-8.915-9.51
		c0.506-1.938,4.1-14.009,4.8-29.534c0.701-15.526-2.572-37.756-6.545-45.99c4.793-2.117,7.13-3.544,9.65-6.892
		c2.694-3.345,4.609-5.692,3.908-12.515c-0.702-6.822-0.118-19.995,1.052-29.523c1.168-9.527,3.74-23.994,5.468-34.038
		c1.685,7.573,7.972,26.982,9.726,28.275c1.752,1.294,13.205-4.705,12.623-8.468c-0.585-3.764-15.195-44.225-19.284-44.108
		c-4.092,0.117-11.303,8.452-24.761,24.477c-9.42,11.271-15.61,18.168-18.132,22.217c-3.74-16.349-19.635-22.699-30.482-22.042
		c-7.723,0.47-12.527,1.223-19.774,5.104c-5.257-5.762-13.524-9.055-15.543-9.055c-1.326,1.45-8.246,11.172-10.099,14.166
		c-6.259-10.44-2.813-34.712-7.981-42.339c-21.016,2.08-43.58,19.763-45.649,23.577c2.412,4.335,7.062,8.322,10.509,9.536
		C380.437,201.723,392.15,190.453,401.647,188.556z"/>
	<path fill="#E2AFB6" d="M330.665,274.847c0,15.672-4.375,31.521-13.291,47.723c-6.727,12.149-12.111,20.955-16.147,26.062
		c-10.765,13.383-24.894,21.04-33.81,18.279c-8.915-2.76-15.546-11.274-17.377-28.071c-1.296-11.901,0-22.318,6.402-38.194
		c5.334-13.227,18.317-32.446,27.894-42.337c9.578-9.891,21.92-14.091,31.55-12.655C328.23,247.495,330.665,269.387,330.665,274.847
		z"/>
	<path fill="#FFFFFF" d="M432.934,262.031c2.57-2.235,7.71-1.295,7.829,1.764c0.158,4.119-2.7,6.641-5.961,6.351
		C430.829,269.793,430.184,264.419,432.934,262.031z"/>
	<path fill="#FFFFFF" d="M451.272,245.966c0.594,6.655-2.913,12.653-4.88,14.968c0.167-0.529-0.954-7.608-7.148-9.137
		c-6.196-1.529-14.216,2.27-17.747,7.729c-2.522,3.697-3.396,10.402-1.535,14.149c1.868,3.765,5.374,5.293,9.608,5.045
		c-6.559,3.522-13.934,6.482-21.647,5.776c-7.713-0.706-11.153-4.367-11.153-12.467c0-7.924,3.027-16.025,8.914-24.126
		c7.404-10.038,16.883-13.72,28.26-14.968C445.32,231.684,450.677,239.312,451.272,245.966z"/>
	<path fill="#DA969F" d="M379.058,248.877c1.138-5.801,5.81-12.568,13.844-19.113c8.034-6.545,19.403-12.613,27.08-14.087
		c-0.842,1.232-12.617,22.188-13.625,25.182c-2.522,2.112-4.541,4.579-6.224,7.044c-4.71-6.134-10.428-9.332-13.119-9.156
		c0,0.176,5.888,4.579,9.923,9.861C389.738,248.009,379.058,248.877,379.058,248.877z"/>
	<path fill="#FFFFFF" d="M385.751,253.711c-3.27,1.468-4.966,5.791-2.839,9.955c2.129,4.165,9.224,2.855,10.997,0.261
		c-0.002,4.339-5.362,7.83-11.903,6.48c-6.541-1.348-11.428-9.995-6.069-16.697C378.295,253.711,382.4,253.473,385.751,253.711z"/>
	<path fill="#FFFFFF" d="M388.747,256.924c1.538-1.11,3.942-0.396,4.452,1.348c0.616,2.095-1.299,4.006-3.428,3.529
		C387.644,261.326,387.21,258.035,388.747,256.924z"/>
	<path fill="#B95D6F" d="M429.309,206.631c1.344-1.936,2.804-4.116,3.628-4.867c4.204,0.986,14.021,8.161,19.846,16.377
		c-0.217,1.546-1.386,3.31-2.087,4.134C442.333,213.419,434.525,207.864,429.309,206.631z"/>
	<path fill="#DA969F" d="M372.379,193.663c7.541-8.064,24.594-17.772,39.064-20.372c0.505,1.409,1.644,10.51,3.491,26.359
		c1.013,6.868,2.021,11.624,3.366,13.913c-8.923,1.681-26.494,11.736-31.623,18.667c-0.214-3.117,1.742-11.129,7.57-23.245
		c5.826-12.117,15.989-29.28,12.109-29.41c-1.01,2.114-2.185,4.051-3.194,5.988c-3.606-0.484-15.561,5.069-24.965,13.559
		C374.498,196.304,372.715,194.191,372.379,193.663z"/>
	<path fill="#D4818E" d="M409.188,207.419c-5.426,1.669-10.368,4.047-15.05,7.262c-1.064,0.731-2.272,1.503-3.456,2.35
		c-3.075,7.65-4.166,12.834-4.003,15.197c5.129-6.93,22.7-16.986,31.623-18.667c-0.895-1.524-1.641-4.164-2.338-7.769
		C413.678,206.214,411.413,206.735,409.188,207.419z"/>
	<path fill="#D4818E" d="M403.163,185.562c0.946-1.816,2.031-3.645,2.995-5.606c-5.251,0.236-9.453,1.946-13.747,5.153
		c-3.536,2.639-6.804,5.658-9.667,9.027c-0.936,1.101-1.829,2.237-2.705,3.387C389.104,189.944,399.789,185.11,403.163,185.562z"/>
	<path fill="#FFFFFF" d="M462.953,320.303c-0.689,3.814-37.725,22.19-44.785,24.097c-2.353-1.937-6.763-5.453-9.118-7.567
		c3.365-2.817,53.154-47.194,57.864-52.831C466.577,287.702,463.642,316.489,462.953,320.303z"/>
	<path fill="#FFFFFF" d="M461.06,353.588c-1.514,9.51-3.619,19.938-5.857,19.938c-2.241,0-6.718-3.294-12.232-7.282
		c2.017,1.232,5.726,0.741,8.099,0C453.442,365.502,458.713,356.618,461.06,353.588z"/>
	<path fill="#8C8076" d="M339.688,421.861c-0.383,5.389,1.052,15.203,2.583,22.131c-2.869-1.058-9.568-15.71-12.144-20.976
		c4.711-6.339,7.77-10.458,10.125-14.332c1.731-0.005,13.872,21.26,15.308,25.494C350.015,432.541,339.688,421.861,339.688,421.861z
		"/>
	<path fill="#D5838B" d="M553.71,356.732c-0.166,5.981-6.36,13.272-10.217,17.39c-3.857,4.117-7.318,6.416-9,7.998
		c-0.505-1.055-3.83-7.247-4.837-9.186c7.408-7.635,14.464-21.309,17.157-26.944C548.753,348.01,552.608,354.362,553.71,356.732z"/>
	<path fill="#8C8076" d="M554.044,321.69c0.169,1.583,1.254,11.382,0.434,15.617c-1.346,0.527-2.686,1.294-3.155,1.764
		c1.871,3.529,12.537-3.588,21.27-4.587c-4.791,8.703-11.805,17.407-16.7,19.784c-4.876-8.452-7.903-12.68-9.079-12.68
		C546.532,335.19,550.972,325.193,554.044,321.69z"/>
	<path fill="#DA969F" d="M312.726,383.275c0-3.849,6.884-11.835,12.238-9.526c3.227,1.392,4.731,9.294,6.878,15.562
		c2.147,6.268,5.4,14.416,7.081,17.057c-3.346,3.946-11.95,15.395-11.95,15.395C317.214,401.335,312.726,387.124,312.726,383.275z"
		/>
	<path fill="#DA969F" d="M330.32,253.797c3.506,1.883,8.249,4.495,13.803,6.961c20.013,8.805,34.55,12.845,39.527,13.031
		c4.98,0.187,8.29-0.964,9.756-3.346c-0.601,3.255-0.521,6.042,0.842,9.863c2.183,6.123,7.734,7.747,16.483,7.747
		c14.802,0,26.41-5.811,34.653-17.433c2.86-3.874,6.33-9.045,8.142-15.698c1.814-6.654,1.056-11.071-0.573-15.647
		c-1.63-4.577-8.395-9.837-16.486-9.687c-8.092,0.151-14.056,2.369-17.817,4.196c-3.761,1.827-6.509,3.671-10.378,7.193
		c0,0,11.902-19.999,19.518-32.228c12.156,3.764,22.906,17.525,22.906,17.525c3.027-2.466,5.142-7.764,5.142-8.821
		c-2.219-3.058-3.741-5.411-6.545-7.763c5.377-2.94,13.413-4.578,17.619-4.578c7.401,0,12.613,1.744,19.177,7.042
		c6.563,5.299,10.654,18.708,11.942,28.353c0,0,1.645-4.669,0.466-11.526c3.699-4.754,9.794-13.127,18.204-23.869
		c13.289-15.85,21.196-23.775,23.381-23.775c2.24,0.831,16.075,39.268,15.799,40.233c-0.277,0.964-5.483,4.876-6.715,4.673
		c-1.232-0.204-9.807-25.556-10.817-27.845c0.334-2.642,1.053-6.469-0.622-6.672c-0.503,1.409-4.14,16.058-5.383,23.597
		c-1.24,7.54-3.461,19.066-4.16,26.123c-0.702,7.057-1.404,17.013-0.821,21.995c0.585,4.982-0.466,9.057-3.74,12.703
		c-3.273,3.646-8.267,7.155-15.67,9.971c0,0,1.282,1.817,5.035,0.379c0,0,7.247,18.819,6.896,37.521
		c-0.351,18.701-4.558,37.403-7.83,46.224c2.454,0.235,5.151-4.878,5.991-6.815c2.891,3.404,15.162,24.106,22.757,44.219
		c7.598,20.112,11.221,37.873,11.728,47.882c-22.01,14.338-90.966,22.572-146.595,22.336
		c-55.629-0.236-111.73-11.056-137.267-22.406c2.278-20.643,22.637-56.975,40.952-68.427c0.664,8.118,10.499,32.808,16.355,41.038
		c0.334-0.353,1.353-1.281,1.689-1.81c1.852,4.226,4.246,8.933,6.771,13.16c3.868,6.339,10.46,13.626,11.228,11.612
		c0.771-2.013-3.395-23.152-3.395-23.327c6.308,7.34,13.958,10.515,17.399,8.591c-2.186-5.106-15.679-29.444-18.163-31.08
		c0,0-4.788-9.739-8.489-20.305c-2.017-5.634-3.532-9.686-4.372-11.974c3.029-1.761,8.419-4.876,16.83-10.159
		c9.989-1.214,26.871-2.948,33.589-4.681c6.975-1.799,11.541-5.893,13.78-7.627c3.364,3.522,66.221,46.073,72.004,46.461
		c5.784,0.388,14.644-37.447,10.812-43.189c-0.646,11.81-8.056,37.641-11.157,38.508c-3.099,0.867-26.687-14.961-69.076-45.075
		c4.207-3.346,7.567-5.409,10.93-8.05c13.361,12.558,46.426,38.392,49.623,38.392c9.081,0,14.782-93.424,14.381-102.287
		c-5.168,5.028-13.063,13.185-25.653,24.449c-12.59,11.264-55.846,49.489-63.416,52.653c-7.568,3.164-86.625,13.56-94.532,14.619
		c16.55-8.09,33.011-33.399,43.529-62.161C337.393,285.356,338.956,268.477,330.32,253.797z"/>
	<path fill="#D4818E" d="M320.213,440.212c2.814,3.946,5.843,7.822,9.29,11.236c0.399,0.396,4.166,3.95,4.761,2.088
		c0.416-1.298,0.832-2.595,1.288-3.879c0.663-1.869,1.367-3.722,2.084-5.572c-1.147-1.513-2.254-3.117-3.199-4.666
		c-2.525-4.227-4.919-8.935-6.771-13.16c-0.336,0.528-1.354,1.457-1.689,1.81c-5.857-8.23-15.691-32.92-16.355-41.038
		c-3.923,2.454-7.942,6.055-11.855,10.395c2.938,6.23,5.772,12.518,8.774,18.707C310.565,424.432,314.85,432.691,320.213,440.212z"
		/>
	<path fill="#D4818E" d="M363.648,369.759c4.232-1.122,8.564-1.931,12.726-3.319c7.782-2.599,15.043-6.859,21.204-12.319
		c-2.56-1.853-4.252-3.151-4.732-3.653c-2.239,1.734-6.806,5.828-13.78,7.627c-6.718,1.734-23.6,3.467-33.589,4.681
		c-6.892,4.328-11.725,7.183-14.924,9.049c6.064,0.597,12.114,1.403,18.208,0.931C353.865,372.361,358.718,371.064,363.648,369.759z
		"/>
	<path d="M310.509,283.657c-6.884-1.32-13.776,5.652-18.014,15.57c-4.24,9.919-5.828,16.317-5.722,20.903
		c0.105,4.586,1.589,9.278,5.403,9.278c3.815,0,7.312-2.346,10.704-8.211c3.392-5.866,7.1-11.838,9.325-19.41
		C314.43,294.215,317.186,284.937,310.509,283.657z"/>
	<path fill="#D88F99" d="M311.489,292.985c-2.357-2.396-11.364,3.151-14.437,14.135c-3.074,10.985,1.959,12.302,2.967,12.478
		c-0.955,2.027-4.517,7.165-7.874,6.142c-3.359-1.024-3.039-10.302,0.562-19.794c3.602-9.491,10.829-20.289,16.426-19.409
		C312.522,287.07,312.099,291.442,311.489,292.985z"/>
	<path fill="#B95D6F" d="M301.926,303.813c2.206-5.038,7.604-9.244,7.523-5.972c-0.081,3.272-3.708,13.224-7.523,17.17
		C299.611,317.404,299.17,310.106,301.926,303.813z"/>
	<path d="M279.036,284.298c-4.336-0.273-9.006,6.826-12.186,12.371c-3.178,5.546-4.981,11.304-5.298,16.423
		c-0.318,5.119,2.039,8.736,7.213,6.838c4.974-1.825,7.624-7.585,10.271-13.13c2.65-5.545,3.497-8.745,3.922-14.29
		C283.381,286.964,282.429,284.51,279.036,284.298z"/>
	<path fill="#D88F99" d="M279.355,286.75c2.754,1.28,0.634,9.066,0.634,9.066c-1.481-4.8-5.826-3.52-10.065,6.292
		c-4.24,9.811,2.034,12.186,2.539,12.011c-1.685,2.112-6.144,3.986-7.734,1.213c-1.587-2.772,0.214-9.812,3.393-16.423
		C271.3,292.295,276.601,285.47,279.355,286.75z"/>
	<path fill="#B95D6F" d="M271.62,309.359c-1.475-4.641,3.434-12.818,5.722-12.051C281.156,298.587,273.315,314.692,271.62,309.359z"
		/>
	<path fill="#D4818E" d="M378.292,273.389c0,0,3.089,1.036,7.205,0.863c4.119-0.172,7.036-2.418,7.036-2.418
		s-1.558,13.379,9.608,16.061c15.102,3.627,30.887-4.663,30.887-4.663s-14.585,15.197-33.803,11.57
		c-15.221-2.872-10.984-15.197-10.984-15.197s-4.287-0.691-6.52-2.418C379.492,275.461,378.292,273.389,378.292,273.389z"/>
	<path fill="#D4818E" d="M499.779,240.924c-0.133,3.984,0.343,15.371,0.343,21.76c0,6.388,8.373-12.954,10.295-23.315
		c2.403-12.952,1.029-25.731-2.06-21.759c-3.089,3.972-7.722,10.189-8.065,11.571C499.951,230.562,499.949,235.744,499.779,240.924z
		"/>
	<path fill="#D4818E" d="M424.118,373.564c0,0,37.256,23.694,40.648,24.648c5.064,1.424,10.945-24.043,10.945-24.043
		s-2.956,32.103-9.268,32.103C460.133,406.271,424.118,373.564,424.118,373.564z"/>
	<path fill="#E8C2CA" d="M280.084,265.594c3.67-4.345,15.23-18.337,32.298-19.053c8.909-0.374,12.249,8.966,12.62,11.581
		C325.375,260.737,273.774,273.066,280.084,265.594z"/>
	<path fill="#DC9DA6" d="M253.357,350.027c1.929,6.99,10.393,18.68,23.016,15.318c12.62-3.362,24.501-17.933,28.213-23.537
		C308.298,336.204,251.501,343.302,253.357,350.027z"/>
	<path fill="#E3B1BD" d="M445.227,273.971c0.889-2.677,8.04-10.438,15.43-12.004c7.389-1.565,10.63-0.783,8.425,0.914
		C466.878,264.578,444.449,276.32,445.227,273.971z"/>
	<path fill="#E3B1BD" d="M477.641,208.472c4.258,1.47,11.927,7.698,14.909,16.57C495.531,233.914,459.878,202.34,477.641,208.472z"
		/>
	<path fill="#E3B1BD" d="M515.114,207.818c1.787-2.598,16.334-18.659,19.186-21.399c2.852-2.74-4.54,10.83-6.482,13.309
		C525.873,202.208,512.777,211.21,515.114,207.818z"/>
	<path fill="#E3B1BD" d="M341.642,261.054c10.243,5.218,23.206,9.916,31.894,12.004c2.176,0.523-11.151,2.739-17.764,0.26
		C349.161,270.84,336.205,258.284,341.642,261.054z"/>
	<path fill="#E3B1BD" d="M329.84,385.924c1.207,3.685,6.223,15.918,7.131,18.136c0.907,2.218-5.489-2.173-7.047-6.609
		C328.37,393.015,325.95,374.051,329.84,385.924z"/>
	<path fill="#AFA195" d="M557.244,339.996c1.789-0.5,9.334-3.652,12.577-4.306c0.803-0.162-4.151,4.175-6.483,4.958
		C561.004,341.432,554.911,340.648,557.244,339.996z"/>
	<path fill="#AFA195" d="M342.028,411.239c1.202,1.767,9.982,15.787,11.019,18.266c1.038,2.479-6.739-5.218-8.037-7.176
		C343.714,420.371,340.342,408.759,342.028,411.239z"/>
	<path fill="#AFA195" d="M339.176,424.808c0,2.484,1.425,12.265,1.686,14.222c0.259,1.957-3.114-5.35-3.372-7.959
		C337.231,428.461,339.176,422.199,339.176,424.808z"/>
	<path fill="#E3B1BD" d="M463.767,377.835c0.865-2.812,7.65-13.438,6.741-8.09c-0.907,5.35-3.628,19.05-5.962,20.093
		C462.21,390.882,462.082,383.314,463.767,377.835z"/>
	<path fill="#D4818E" d="M420.666,476.528c15.343,0,51.767-2.681,75.397-6.123c20.107-2.929,42.591-9.052,48.148-11.981
		c5.557-2.929-44.71-11.715-64.287-9.052C460.348,452.033,371.109,476.528,420.666,476.528z"/>
	<path fill="#E3B1BD" d="M271.724,445.642c1.54-4.931,7.939-19.702,11.641-26.358c3.703-6.656,7.936-12.779,10.318-15.442
		c2.38-2.662-3.705,21.3-6.614,26.358C284.16,435.259,268.814,454.961,271.724,445.642z"/>
</g>
</svg>
