<?xml version="1.0" encoding="utf-8"?>
<!-- Generator: Adobe Illustrator 17.0.0, SVG Export Plug-In . SVG Version: 6.00 Build 0)  -->
<!DOCTYPE svg PUBLIC "-//W3C//DTD SVG 1.1//EN" "http://www.w3.org/Graphics/SVG/1.1/DTD/svg11.dtd">
<svg version="1.1" id="Layer_1" xmlns="http://www.w3.org/2000/svg" xmlns:xlink="http://www.w3.org/1999/xlink" x="0px" y="0px"
	 width="800px" height="600px" viewBox="0 0 800 600" enable-background="new 0 0 800 600" xml:space="preserve">
<g>
	<path fill="#FFFFFF" d="M462.067,235.842c-0.104,0.136-0.151,0.275-0.279,0.414c-0.286,0.259-0.613,0.502-0.916,0.749
		c-0.175,0.243-0.414,0.427-0.653,0.582c-0.94,0.781-1.944,1.546-3.02,2.278c-0.064,0.215-0.127,0.43-0.206,0.657
		c-0.574,1.728-2.278,2.158-3.625,1.712c-4.365,2.466-9.463,4.561-15,6.274c0.016,0.796,0.048,1.561,0.096,2.234
		c0.231,3.533-5.25,3.517-5.489,0c-0.008-0.215-0.015-0.474-0.024-0.705c-13.757,3.429-29.514,4.468-43.558,2.219
		c-0.749,0.155-1.553,0.015-2.222-0.41c-15.047-2.832-27.809-9.595-33.536-21.437c-21.477,22.994,28.214,35.48,45.23,37.041
		c11.701,1.068,23.587-0.398,35.034-3.03c8.404-1.944,22.455-3.963,28.255-11.076c1.011-1.239,14.442-20.011,0.597-17.485
		C462.505,235.902,462.298,235.858,462.067,235.842z"/>
	<path fill="#FFFFFF" d="M460.019,330.404c-23.101,13.904-80.502,17.501-106.28,4.971c-16.943,10.324,17.78,17.007,18.45,17.118
		c8.945,1.529,17.954,3.059,27.036,3.529c7.647,0.407,15.303,0.725,22.95,0.295c12.084-0.67,58.485-3.856,37.91-25.793
		C460.067,330.492,460.052,330.448,460.019,330.404z"/>
	<path fill="#FFFFFF" d="M460.904,354.095c-11.263,5.433-28.724,7.313-38.729,7.711c-19.923,0.781-50.145,1.426-68.068-8.746
		c-0.844-0.494-1.649-0.964-2.406-1.466c-5.608,24.518,42.633,22.957,57.426,22.703c6.739-0.127,65.702-3.218,52.065-19.668
		C461.039,354.469,461,354.27,460.904,354.095z"/>
	<path fill="#FFFFFF" d="M413.842,290.747c-14.793,0.091-43.199-0.275-59.115-10.232c-0.119,0.231-0.199,0.458-0.374,0.673
		c-35.057,41.411,139.14,34.588,104.942,2.494C445.641,289.631,423.608,290.687,413.842,290.747z"/>
	<path fill="#FFFFFF" d="M461.167,261.42c-14.761,10.328-40.738,12.714-55.825,11.98c-13.342-0.677-42.203-6.902-55.784-18.544
		c-7.456,28.761,40.864,31.409,59.544,30.537c10.26-0.474,70.856-0.841,52.088-23.942
		C461.174,261.452,461.174,261.436,461.167,261.42z"/>
	<path fill="#FFFFFF" d="M447.083,375.977c0.016,0.04,0.04,0.064,0.048,0.104c7.217,31.21,6.946,70.864,0.278,102.322
		c-2.708,12.745-8.531,26.39-18.003,35.48c41.757-2.454,33.775-110.566,27.212-140.661
		C453.687,374.304,450.453,375.228,447.083,375.977z"/>
	<path fill="#FFFFFF" d="M457.503,307.025c-26.129,11.997-84.072,12.439-105.564-1.927c0.104,0.565,0.016,1.195-0.445,1.836
		c-20.959,28.761,42.792,30.521,57.783,29.88C422.485,336.232,484.149,329.926,457.503,307.025z"/>
	<path fill="#FFFFFF" d="M441.005,241.792c0.016-0.032,0-0.06,0.024-0.091c9.965-19.934,5.831-124.649-28.526-112.25
		c-1.02,0.37-1.959,0.796-2.907,1.227c34.978,5.305,28.772,79.953,28.685,112.047C439.205,242.434,440.105,242.115,441.005,241.792z
		"/>
	<path fill="#FFFFFF" d="M358.121,227.06c2.947,6.947,8.802,11.965,16.346,15.314c-2.024-14.307-4.294-28.884-5.433-43.465
		c-7.965-36.117-8.212-72.242,14.984-103.006c0.995-1.311,2.549-1.379,3.728-0.812c0.669-0.223,1.481-0.434,1.896-0.609
		c1.379-0.582,2.756-1.195,4.158-1.717c3.545-1.299,7.256-2.461,11.056-2.684c8.81-0.51,15.494,3.055,20.863,9.838
		c1.601,0.191,3.202,0.498,4.811,0.94c21.325,5.982,26.933,39.097,29.187,57.023c1.426,11.368,2.701,23.942,2.948,36.579
		c0.51-14.016-0.303-28.151-1.155-41.845c-0.008-0.076,0-0.151-0.008-0.243c0-0.091-0.016-0.183-0.016-0.275
		c-1.983-32.13-12.172-74.791-53.865-70.41c-75.874,7.982-51.658,92.196-46.99,142.756
		C360.789,226.203,359.491,227.075,358.121,227.06z"/>
	<path fill="#FFFFFF" d="M468.065,203.577c8.164-26.773,17.931-53.025,25.563-79.977c-4.597-2.932-8.237-7.122-9.416-12.076
		c-8.563,11.252-12.833,25.586-16.705,39.073C469.364,167.778,469.874,186.06,468.065,203.577z"/>
	<path fill="#FFFFFF" d="M496.002,118.641c2.628-6.177,0.685-12.327-6.022-14.721c-0.008,0.219-0.016,0.426-0.087,0.662
		C487.749,110.802,491.261,115.491,496.002,118.641z"/>
	<path fill="#FFFFFF" d="M352.688,387.528c-14.585,25.825-34.906,47.834-50.981,72.791c3.625,0.135,7.186,1.011,9.695,3.577
		c1.083,1.115,1.721,2.461,2.119,3.871c1.538-1.697,3.027-3.426,4.468-5.202c4.66-5.768,9.153-11.686,13.59-17.653
		c4.548-6.094,8.938-12.347,13.565-18.401C348.387,413.599,351.915,400.639,352.688,387.528z"/>
	<path fill="#FFFFFF" d="M441.85,377.554c-0.048-0.199-0.008-0.358-0.016-0.533c-2.995,0.533-5.982,0.948-8.867,1.282
		c-1.633,29.967,6.389,61.169-3.33,90.364c-3.903,11.742-11.629,35.711-27.004,37.057c-19.532,1.712-30.302-22.703-32.939-38.658
		c-2.246-13.621-3.211-27.219-1.498-40.944c1.927-15.414,7.663-30.732,4.588-46.401c-0.127-0.653,0.016-1.202,0.255-1.712
		c-2.788-0.502-5.497-1.131-8.053-1.88c-0.638,24.965-6.756,49.507-7.01,74.473c-0.287,26.972,7.647,71.214,44.362,68.267
		c34.268-2.772,40.785-36.993,42.155-65.232C445.721,428.527,447.545,402.184,441.85,377.554z"/>
	<path fill="#FFFFFF" d="M359.539,375.73c0.008-0.573,0.191-1.012,0.43-1.387c-0.207-0.095-0.422-0.175-0.605-0.255
		c-0.04,0.263-0.072,0.542-0.199,0.821c-0.374,0.821-0.772,1.601-1.163,2.397c0.685,14.164-2.629,27.952-6.205,41.701
		c2.127-0.485,4.397,2.477,2.556,4.7c-0.988,1.179-3.059,4.127-5.791,8.045c-2.103,8.707-3.816,17.454-4.167,26.359
		c-0.988,25.26,20.6,71.924,50.026,65.391C331.865,513.467,358.559,417.925,359.539,375.73z"/>
	<path fill="#FFFFFF" d="M384.838,441.822c0.693,8.476,3.872,30.764,12.69,40.817c-2.732-18.911-4.445-38.49-4.19-57.553
		c0.192-14.593,3.537-31.059-0.788-45.222c-1.06-0.032-2.127-0.08-3.194-0.144C391.776,400.886,383.078,420.785,384.838,441.822z"/>
	<path fill="#FFFFFF" d="M389.426,495.456c9.695,7.743,17.445,4.636,23.428-3.226c-14.649,4.142-23.642-9.503-27.991-23.252
		c-2.932-9.208-6.031-19.843-5.593-29.681c0.884-20.074,7.504-39.805,4.548-59.926c-1.896-0.152-3.783-0.351-5.663-0.598
		c3.362,18.162-4.254,35.082-5.185,53.109C371.942,451.525,372.435,481.907,389.426,495.456z"/>
	<path fill="#FFFFFF" d="M452.46,236.423c5.608-19.062,4.867-42.621,3.41-62.129c-1.434-19.138-3.234-48.368-18.457-62.543
		c-4.732-4.414-9.472-6.792-14.1-7.579c-0.039,0-0.087-0.008-0.135-0.016c-24.933-4.047-46.624,38.352-48.48,59.293
		c-2.43,27.292,1.832,54.096,5.568,81.068c1.991,0.609,4.055,1.131,6.181,1.573c4.899-27.888-6.946-57.262-2.318-85.533
		c2.781-16.967,16.115-42.801,38.093-37.571c21.085,5.011,24.463,36.284,26.064,53.725c1.577,17.242,5.536,43.939-0.327,62.174
		C449.569,238.104,451.058,237.28,452.46,236.423z"/>
	<path fill="#FFFFFF" d="M399.042,247.683c0-0.076-0.04-0.139-0.04-0.231c-0.534-34.711-6.532-69.044-4.493-103.799
		c-16.067,26.084,1.307,74.991-2.684,103.357C394.19,247.329,396.596,247.56,399.042,247.683z"/>
	<path fill="#FFFFFF" d="M418.223,99.873c-6.061-5.142-13.805-5.194-21.651-2.31c-2.748,1.024-6.3,3.362-9.503,3.533
		c-13.12,18.541-17.748,38.83-17.422,59.859c1.044-7.835,2.756-15.589,5.433-23.204C381.262,120.218,398.738,101.861,418.223,99.873
		z"/>
	<path fill="#FFFFFF" d="M303.491,465.991c-1.999-0.351-4.095-0.255-6.134-0.024c-0.31,0.072-0.637,0.119-0.963,0.087
		c0.096,0.12,0.215,0.199,0.286,0.366c1.083,2.246,2.342,4.517,4.207,6.229c1.075,0.996,1.904,1.546,3.282,1.777
		c0.159,0,0.629,0.04,0.741,0.032c0.12,0,0.144,0,0.144,0.008c0.048-0.008,0.08-0.033,0.215-0.056
		c0.207-0.047,0.414-0.127,0.613-0.183c0.127-0.064,0.406-0.2,0.47-0.247c0.732-0.43,1.202-0.861,1.712-1.848
		c0.749-1.441,0.757-3.202-0.717-4.517C306.542,466.899,305.108,466.285,303.491,465.991z"/>
	<path fill="#0C0A0A" d="M469.061,219.703c8.89-32.19,21.038-63.324,30.079-95.462c0.12-0.119,0.255-0.211,0.335-0.366
		c6.747-10.71,2.437-23.507-10.403-25.953c-2.398-0.445-3.8,1.936-3.29,3.68c-0.167,0.095-0.326,0.175-0.477,0.319
		c-9.783,9.579-15.287,22.4-19.508,35.432c-0.184-1.162-0.351-2.342-0.534-3.497c-4.182-25.713-15.812-54.713-45.788-57.239
		c-27.482-2.31-55.848,9.754-66.291,36.954c-13.614,35.452-1.768,73.119,1.816,109.375c-1.171-0.139-2.366,0.398-2.891,1.422
		c-0.175,0.108-0.367,0.167-0.542,0.339c-11.447,10.647-11.351,19.596-5.401,26.773c-0.844,0.184-1.593,0.733-1.872,1.833
		c-2.844,10.833,0.08,18.528,6.166,24.021c-9.32,11.013-8.341,19.52-1.25,25.717c-0.892-0.064-1.8,0.243-2.462,1.131
		c-9.168,12.59-6.907,21.814,1.8,28.103c-7.177,5.417-6.46,11.001-1.075,16.043c-0.446,0.311-0.813,0.764-0.996,1.458
		c-2.23,9.009,0.319,15.374,5.6,19.859c-0.127,0.398-0.199,0.844-0.119,1.33c0.279,1.68,0.454,3.353,0.597,5.034
		c-15.198,30.844-39.495,55.658-57.593,84.741c-0.095,0-0.191,0.016-0.279,0.024c-1.489,0.207-2.27,2.072-1.919,3.37
		c0.135,0.502,0.398,0.852,0.709,1.163c-1.347,0.598-2.362,2.159-1.529,3.888c2.366,4.835,6.086,10.021,11.845,10.69
		c3.425,0.398,6.707-1.466,8.571-4.278c6.644-2.883,19.46-20.058,29.315-33.998c-3.115,15.9-3.936,31.792,3.353,47.883
		c10.929,24.144,33.83,51.817,61.846,34.763c6.062-0.446,11.383-2.374,16.051-5.282c56.175,8.277,46.465-114.939,38.794-148.013
		c7.726-4.19,11.056-10.403,3.807-19.588c7.225-5.225,9.161-12.92-1.051-24.152c7.146-6.194,7.958-13.964-1.839-22.994
		c8.993-5.795,11.319-13.629,1.736-23.268c7.257-4.895,9.584-12.191,0.956-23.025c1.347-1.315,2.565-2.693,3.545-4.222
		c6.532-10.188,9.439-25.029-5.72-23.376c0.821-2.936,1.522-5.951,2.167-8.994C466.711,221.934,468.535,221.567,469.061,219.703z
		 M489.892,104.582c0.071-0.236,0.079-0.442,0.087-0.662c6.708,2.394,8.651,8.544,6.022,14.721
		C491.261,115.491,487.749,110.802,489.892,104.582z M484.212,111.523c1.179,4.955,4.819,9.145,9.416,12.076
		c-7.632,26.952-17.398,53.204-25.563,79.977c1.808-17.517,1.299-35.799-0.558-52.981
		C471.379,137.109,475.649,122.775,484.212,111.523z M407.62,81.687c41.693-4.381,51.882,38.28,53.865,70.41
		c0,0.092,0.016,0.184,0.016,0.275c0.008,0.092,0,0.167,0.008,0.243c0.853,13.693,1.665,27.828,1.155,41.845
		c-0.247-12.638-1.522-25.212-2.948-36.579c-2.254-17.927-7.862-51.041-29.187-57.023c-1.609-0.442-3.21-0.749-4.811-0.94
		c-5.369-6.783-12.053-10.348-20.863-9.838c-3.8,0.224-7.511,1.386-11.056,2.684c-1.402,0.522-2.78,1.135-4.158,1.717
		c-0.414,0.175-1.227,0.386-1.896,0.609c-1.179-0.566-2.733-0.498-3.728,0.812c-23.197,30.764-22.95,66.889-14.984,103.006
		c1.14,14.581,3.41,29.159,5.433,43.465c-7.544-3.349-13.399-8.367-16.346-15.314c1.37,0.016,2.668-0.856,2.509-2.617
		C355.962,173.884,331.746,89.669,407.62,81.687z M448.286,176.712c-1.601-17.441-4.979-48.714-26.064-53.725
		c-21.978-5.229-35.312,20.604-38.093,37.571c-4.627,28.271,7.217,57.645,2.318,85.533c-2.127-0.442-4.19-0.964-6.181-1.573
		c-3.736-26.972-7.998-53.777-5.568-81.068c1.856-20.941,23.547-63.34,48.48-59.293c0.048,0.008,0.096,0.016,0.135,0.016
		c4.628,0.788,9.368,3.166,14.1,7.579c15.223,14.175,17.023,43.405,18.457,62.543c1.458,19.508,2.198,43.067-3.41,62.129
		c-1.402,0.856-2.892,1.681-4.501,2.462C453.822,220.651,449.863,193.954,448.286,176.712z M409.596,130.678
		c0.948-0.431,1.888-0.856,2.907-1.227c34.357-12.399,38.491,92.316,28.526,112.25c-0.024,0.032-0.008,0.06-0.024,0.091
		c-0.901,0.323-1.8,0.642-2.724,0.932C438.368,210.63,444.574,135.983,409.596,130.678z M400.093,141.124
		c0.104-1.401-0.717-2.218-1.737-2.501c0.812-0.88,1.68-1.728,2.628-2.541c0.135,0,0.239,0.04,0.383,0.015
		c38.077-6.433,31.393,76.966,31.449,108.204c-8.85,2.278-18.736,3.565-28.406,3.533c0.007-0.12,0.072-0.228,0.072-0.383
		C403.94,211.901,397.591,176.76,400.093,141.124z M394.509,143.654c-2.039,34.755,3.959,69.087,4.493,103.799
		c0,0.091,0.04,0.155,0.04,0.231c-2.445-0.123-4.852-0.354-7.217-0.673C395.816,218.644,378.442,169.737,394.509,143.654z
		 M369.647,160.956c-0.326-21.03,4.302-41.318,17.422-59.859c3.202-0.171,6.755-2.509,9.503-3.533
		c7.846-2.883,15.59-2.832,21.651,2.31c-19.485,1.988-36.961,20.344-43.142,37.878C372.403,145.367,370.691,153.121,369.647,160.956
		z M308.063,472.132c-0.51,0.988-0.98,1.418-1.712,1.848c-0.064,0.047-0.343,0.183-0.47,0.247c-0.2,0.055-0.406,0.135-0.613,0.183
		c-0.135,0.024-0.167,0.048-0.215,0.056c0-0.008-0.024-0.008-0.144-0.008c-0.112,0.008-0.582-0.032-0.741-0.032
		c-1.378-0.231-2.206-0.781-3.282-1.777c-1.865-1.713-3.123-3.983-4.207-6.229c-0.072-0.167-0.191-0.246-0.286-0.366
		c0.326,0.032,0.653-0.016,0.963-0.087c2.039-0.232,4.135-0.327,6.134,0.024c1.617,0.294,3.051,0.908,3.855,1.625
		C308.82,468.93,308.812,470.691,308.063,472.132z M331.579,444.913c-4.437,5.967-8.93,11.885-13.59,17.653
		c-1.441,1.776-2.931,3.505-4.468,5.202c-0.398-1.41-1.036-2.756-2.119-3.871c-2.509-2.565-6.07-3.441-9.695-3.577
		c16.075-24.957,36.397-46.966,50.981-72.791c-0.772,13.112-4.301,26.071-7.544,38.984
		C340.517,432.566,336.127,438.819,331.579,444.913z M344.395,458.113c0.351-8.906,2.064-17.653,4.167-26.359
		c2.732-3.919,4.803-6.867,5.791-8.045c1.84-2.223-0.43-5.185-2.556-4.7c3.576-13.749,6.89-27.537,6.205-41.701
		c0.391-0.796,0.789-1.577,1.163-2.397c0.127-0.279,0.159-0.558,0.199-0.821c0.183,0.08,0.398,0.159,0.605,0.255
		c-0.239,0.374-0.422,0.813-0.43,1.387c-0.98,42.195-27.673,137.737,34.883,147.774
		C364.995,530.036,343.408,483.373,344.395,458.113z M402.339,518.868c-36.715,2.947-44.649-41.295-44.362-68.267
		c0.255-24.965,6.372-49.508,7.01-74.473c2.556,0.749,5.265,1.378,8.053,1.88c-0.239,0.51-0.383,1.059-0.255,1.712
		c3.075,15.669-2.661,30.987-4.588,46.401c-1.713,13.725-0.749,27.323,1.498,40.944c2.636,15.956,13.407,40.371,32.939,38.658
		c15.374-1.347,23.101-25.315,27.004-37.057c9.718-29.195,1.697-60.397,3.33-90.364c2.884-0.334,5.871-0.749,8.867-1.282
		c0.007,0.175-0.033,0.334,0.016,0.533c5.695,24.63,3.871,50.973,2.645,76.081C443.125,481.875,436.608,516.096,402.339,518.868z
		 M378.155,378.773c1.88,0.247,3.768,0.446,5.663,0.598c2.956,20.121-3.664,39.853-4.548,59.926
		c-0.438,9.838,2.661,20.472,5.593,29.681c4.349,13.749,13.342,27.395,27.991,23.252c-5.982,7.863-13.733,10.969-23.428,3.226
		c-16.991-13.55-17.484-43.931-16.457-63.575C373.901,413.854,381.516,396.935,378.155,378.773z M389.355,379.721
		c1.067,0.064,2.135,0.112,3.194,0.144c4.325,14.163,0.98,30.629,0.788,45.222c-0.255,19.063,1.458,38.642,4.19,57.553
		c-8.818-10.053-11.996-32.341-12.69-40.817C383.078,420.785,391.776,400.886,389.355,379.721z M429.089,437.672
		c0.064,7.146-3.896,32.883-12.65,48.942c-0.781-0.582-1.825-0.836-2.916-0.351c-4.11,1.833-7.655,1.793-10.722,0.431
		c0.39-0.566,0.613-1.267,0.493-2.079c-3.233-21.101-4.684-43.159-4.413-64.531c0.167-13.231,2.773-27.14-0.661-40.132
		c6.763,0.048,12.856-0.199,17.262-0.35c2.596-0.08,6.914-0.271,11.988-0.733C426.452,398.632,428.913,417.893,429.089,437.672z
		 M429.407,513.881c9.471-9.089,15.294-22.734,18.003-35.48c6.668-31.457,6.938-71.111-0.278-102.322
		c-0.008-0.04-0.032-0.064-0.048-0.104c3.37-0.749,6.604-1.672,9.536-2.756C463.182,403.316,471.164,511.428,429.407,513.881z
		 M409.126,374.296c-14.793,0.255-63.034,1.816-57.426-22.703c0.757,0.502,1.562,0.971,2.406,1.466
		c17.923,10.172,48.145,9.527,68.068,8.746c10.005-0.398,27.466-2.278,38.729-7.711c0.096,0.175,0.135,0.374,0.287,0.533
		C474.828,371.078,415.865,374.169,409.126,374.296z M422.174,356.317c-7.647,0.43-15.303,0.112-22.95-0.295
		c-9.081-0.47-18.091-1.999-27.036-3.529c-0.67-0.111-35.392-6.795-18.45-17.118c25.778,12.53,83.179,8.934,106.28-4.971
		c0.033,0.044,0.048,0.088,0.064,0.12C480.659,352.462,434.258,355.648,422.174,356.317z M409.277,336.813
		c-14.991,0.641-78.742-1.119-57.783-29.88c0.462-0.641,0.549-1.271,0.445-1.836c21.492,14.366,79.435,13.924,105.564,1.927
		C484.149,329.926,422.485,336.232,409.277,336.813z M354.353,281.187c0.175-0.215,0.255-0.442,0.374-0.673
		c15.916,9.957,44.322,10.323,59.115,10.232c9.766-0.06,31.799-1.115,45.453-7.066C493.492,315.775,319.295,322.598,354.353,281.187
		z M409.102,285.394c-18.68,0.872-67.001-1.777-59.544-30.537c13.581,11.642,42.442,17.867,55.784,18.544
		c15.087,0.733,41.064-1.653,55.825-11.98c0.007,0.016,0.007,0.032,0.024,0.032C479.958,284.553,419.362,284.92,409.102,285.394z
		 M462.155,253.343c-5.8,7.113-19.851,9.133-28.255,11.076c-11.447,2.632-23.332,4.098-35.034,3.03
		c-17.016-1.561-66.706-14.047-45.23-37.041c5.727,11.842,18.489,18.604,33.536,21.437c0.669,0.426,1.473,0.565,2.222,0.41
		c14.044,2.25,29.801,1.21,43.558-2.219c0.008,0.231,0.016,0.489,0.024,0.705c0.239,3.517,5.72,3.533,5.489,0
		c-0.048-0.673-0.08-1.438-0.096-2.234c5.537-1.713,10.635-3.808,15-6.274c1.347,0.446,3.051,0.016,3.625-1.712
		c0.079-0.228,0.143-0.442,0.206-0.657c1.076-0.732,2.079-1.498,3.02-2.278c0.239-0.155,0.478-0.339,0.653-0.582
		c0.303-0.246,0.63-0.489,0.916-0.749c0.128-0.139,0.175-0.278,0.279-0.414c0.231,0.016,0.438,0.06,0.685,0.016
		C476.597,233.333,463.166,252.104,462.155,253.343z"/>
	<path d="M358.407,224.391c1.753,2.119,4.612,4.461,7.528,4.254c1.099-0.079,1.115-1.804,0-1.724
		c-1.896,0.135-3.6-1.135-4.939-2.334c-0.605-0.542-1.171-1.135-1.665-1.781c-0.016-0.028-0.04-0.06-0.055-0.087
		c0.254-0.374,0.246-0.913-0.263-1.199c-0.685-0.387-1.792-0.398-1.832,0.657C357.149,223.001,357.921,223.81,358.407,224.391z"/>
	<path d="M367.082,219.595c-3.577,0.626-5.561-2.684-8.07-4.512c-0.892-0.653-1.76,0.844-0.868,1.489
		c1.37,1,2.454,2.362,3.848,3.362c1.649,1.183,3.561,1.672,5.552,1.322C368.636,221.065,368.174,219.405,367.082,219.595z"/>
	<path d="M364.119,209.678c0.988,0.506,1.864-0.984,0.869-1.489c-2.096-1.075-4.509-2.393-6.253-4.003
		c-0.821-0.749-2.039,0.466-1.227,1.219C359.38,207.118,361.889,208.531,364.119,209.678z"/>
	<path d="M365.473,197.499c-0.375,0-0.621,0.199-0.741,0.466c-2.326-0.968-4.485-2.278-6.636-3.569
		c-0.956-0.573-1.824,0.92-0.868,1.489c2.302,1.382,4.612,2.737,7.097,3.764c0.486,0.203,0.836-0.064,0.971-0.446
		c0.056,0.012,0.112,0.02,0.175,0.02C366.588,199.223,366.588,197.499,365.473,197.499z"/>
	<path d="M352.831,185.86c3.33,1.036,6.317,3.095,9.885,3.246c1.116,0.047,1.108-1.677,0-1.725
		c-3.361-0.143-6.277-2.206-9.423-3.186C352.234,183.865,351.772,185.53,352.831,185.86z"/>
	<path d="M357.237,180.125c-0.279-0.239-0.542-0.502-0.805-0.765c-0.789-0.785-2.007,0.435-1.219,1.219
		c0.669,0.666,1.449,1.562,2.454,1.633c0.462,0.032,0.861-0.418,0.861-0.864c0-0.494-0.399-0.829-0.861-0.861
		c0.032,0.004,0.064,0.004,0.08,0.004c0.007,0.008,0.024,0.016,0.055,0.028c-0.016-0.008-0.04-0.02-0.055-0.028
		c0.095-0.004-0.032-0.028,0-0.004c-0.056-0.028-0.104-0.055-0.16-0.087C357.443,180.305,357.396,180.265,357.237,180.125z"/>
	<path d="M352.457,156.215c2.502,2.466,6.198,5.126,9.782,3.35c0.988-0.49,0.12-1.98-0.876-1.486
		c-2.748,1.362-5.831-1.259-7.687-3.083C352.888,154.216,351.661,155.435,352.457,156.215z"/>
	<path d="M352.831,144.661c-1.043,0.363-0.589,2.031,0.462,1.661c3.186-1.119,6.141,1.725,9.2,2.299
		c1.083,0.203,1.545-1.458,0.454-1.661C359.499,146.31,356.495,143.371,352.831,144.661z"/>
	<path d="M355.596,137.587c3.099,1.271,6.572,1.808,9.272,3.915c0.869,0.677,2.095-0.533,1.219-1.219
		c-2.971-2.322-6.611-2.959-10.036-4.357C355.022,135.505,354.584,137.174,355.596,137.587z"/>
	<path d="M360.646,127.475c2.653-0.725,4.995,0.972,6.978,2.533c0.868,0.681,2.095-0.529,1.227-1.219
		c-2.502-1.972-5.345-3.879-8.659-2.979C359.116,126.105,359.579,127.765,360.646,127.475z"/>
	<path d="M362.494,112.018c-1.075,0.294-0.622,1.955,0.454,1.665c2.254-0.617,4.978,1.509,6.516,2.995
		c0.796,0.777,2.016-0.442,1.219-1.219C368.667,113.507,365.433,111.217,362.494,112.018z"/>
	<path d="M365.043,104.29c-0.988,0.514-0.12,1.999,0.868,1.489c2.844-1.477,7.217,0.339,6.978,3.852c-0.08,1.111,1.649,1.103,1.72,0
		C374.945,104.749,368.963,102.251,365.043,104.29z"/>
	<path d="M370.093,99.232c-0.207,0.108-0.318,0.255-0.382,0.418c-0.733,0.33-0.613,1.649,0.366,1.649
		c0.406,0,0.661-0.235,0.772-0.529c0.04-0.016,0.08-0.029,0.12-0.048c2.397-1.215,5.464,0.673,6.085,3.162
		c0.271,1.079,1.936,0.622,1.665-0.458C377.804,99.798,373.479,97.523,370.093,99.232z"/>
	<path d="M377.661,95.293c2.477,0.486,3.146,2.693,3.537,4.915c0.191,1.091,1.848,0.63,1.665-0.458
		c-0.494-2.816-1.673-5.517-4.748-6.122C377.032,93.417,376.57,95.078,377.661,95.293z"/>
	<path d="M384.328,91.645c1.833,0.048,3.227,1.442,3.274,3.278c0.024,1.107,1.753,1.111,1.721,0
		c-0.072-2.784-2.215-4.927-4.995-5.003C383.213,89.892,383.213,91.617,384.328,91.645z"/>
	<path d="M391.283,87.566c0.047,2.127,0.971,4.095,2.724,5.341c0.9,0.645,1.768-0.848,0.868-1.489
		c-1.235-0.876-1.832-2.378-1.872-3.852C392.971,86.455,391.251,86.451,391.283,87.566z"/>
	<path d="M418.35,91.302c-0.406,0-0.653,0.224-0.772,0.51c-0.104,0.04-0.207,0.104-0.303,0.199c-0.199,0.2-0.422,0.406-0.55,0.657
		c-0.135,0.279-0.159,0.569-0.159,0.872c-0.008,0.689,0.662,0.952,1.163,0.785c-0.175,0.526-0.359,1.044-0.59,1.542
		c-0.462,1,1.02,1.876,1.489,0.868c0.104-0.219,0.192-0.449,0.279-0.677c-0.231,0.905,1.091,1.601,1.561,0.677
		c1.402-2.752,3.154-5.408,3.76-8.479c0.223-1.087-1.441-1.55-1.657-0.458c-0.574,2.908-2.23,5.413-3.569,8.014
		c1.275-3.246,1.498-6.951,0.637-10.316c-0.278-1.075-1.943-0.617-1.665,0.462C418.414,87.662,418.534,89.498,418.35,91.302
		L418.35,91.302z"/>
	<path d="M407.254,93.083c0-2.299,0-4.596,0-6.898c0-0.438-0.391-0.901-0.861-0.861c-0.653,0.055-1.202,0.406-1.84,0.458
		c-0.813,0.072-1.227,1.155-0.438,1.609c0.526,0.299,0.494,0.538,0.502,1.095c0,0.578,0.462,0.852,0.916,0.829
		c0,1.255,0,2.513,0,3.768C405.534,94.194,407.254,94.194,407.254,93.083z"/>
	<path d="M414.607,94.46c0.039-3.07,0.43-6.122,0.462-9.192c0.016-1.115-1.713-1.112-1.72,0c-0.032,3.07-0.431,6.122-0.462,9.192
		C412.878,95.572,414.599,95.572,414.607,94.46z"/>
	<path d="M427.718,89.888c-2.844,3.736-6.086,7.146-8.739,11.032c-0.63,0.924,0.868,1.785,1.489,0.873
		c2.645-3.888,5.895-7.301,8.73-11.033C429.877,89.872,428.379,89.016,427.718,89.888z"/>
	<path d="M437.278,91.473c-0.502,1.637-1.785,3.15-2.781,4.509c-1.465,1.995-3.066,3.915-4.803,5.683
		c-0.781,0.797,0.43,2.016,1.219,1.219c1.705-1.74,3.242-3.636,4.732-5.575c1.227-1.609,2.692-3.406,3.298-5.377
		C439.269,90.864,437.612,90.414,437.278,91.473z"/>
	<path d="M434.41,106.238c3.178-2.111,6.412-4.15,9.367-6.572c0.861-0.701-0.366-1.916-1.219-1.219
		c-2.835,2.326-5.958,4.273-9.017,6.301C432.625,105.362,433.477,106.856,434.41,106.238z"/>
	<path d="M440.177,110.002c3.729-1.426,7.313-3.167,11.04-4.596c1.02-0.394,0.582-2.059-0.462-1.661
		c-3.72,1.426-7.313,3.171-11.032,4.596C438.695,108.735,439.141,110.404,440.177,110.002z"/>
	<path d="M445.904,113.137c3.401-1.88,7.081-3.095,10.825-4.051c1.076-0.279,0.622-1.94-0.454-1.665
		c-3.896,0.996-7.719,2.278-11.24,4.226C444.064,112.185,444.932,113.674,445.904,113.137z"/>
	<path d="M455.814,117.533c-2.573,0.861-5.154,1.741-7.814,2.303c-1.091,0.227-0.621,1.888,0.462,1.661
		c2.652-0.562,5.234-1.442,7.814-2.299C457.319,118.848,456.873,117.183,455.814,117.533z"/>
	<path d="M456.522,127.738c-1.816,0.869-3.815,1.271-5.767,1.753c-1.075,0.263-0.622,1.928,0.462,1.661
		c2.104-0.522,4.214-0.988,6.182-1.928C458.403,128.746,457.527,127.26,456.522,127.738z"/>
	<path d="M455.153,137.392c-0.621,0.299-1.187,0.339-1.865,0.343c-1.115,0-1.115,1.72,0,1.72c0.988,0,1.833-0.139,2.733-0.578
		c0.423-0.203,0.534-0.796,0.303-1.179C456.076,137.273,455.566,137.185,455.153,137.392z"/>
	<path d="M456.044,144.629c-1.115,0-1.115,1.724,0,1.724C457.16,146.354,457.16,144.629,456.044,144.629z"/>
	<path d="M477.879,169.945c-1.641-0.346-2.724-1.796-3.991-2.772c-1.035-0.793-2.342-0.948-2.963,0.41
		c-0.454,1.003,1.027,1.88,1.498,0.868c0.032-0.072,0.055-0.119,0.079-0.155c0.127,0.068,0.239,0.163,0.351,0.235
		c0.454,0.326,0.861,0.757,1.274,1.131c0.956,0.852,2.016,1.676,3.291,1.943C478.508,171.837,478.97,170.176,477.879,169.945z"/>
	<path d="M481.941,157.753c-2.11-1.701-4.094-3.656-6.619-4.732c-1.003-0.43-1.879,1.056-0.86,1.489
		c2.389,1.02,4.261,2.848,6.253,4.461C481.575,159.665,482.802,158.454,481.941,157.753z"/>
	<path d="M485.693,147.417c-2.875-0.546-5.521-1.808-8.276-2.756c-1.051-0.366-1.498,1.303-0.454,1.661
		c2.756,0.949,5.393,2.215,8.276,2.76C486.323,149.285,486.785,147.625,485.693,147.417z"/>
	<path d="M487.995,144.199c-3.162-0.562-5.488-2.896-7.44-5.293c-0.693-0.865-1.912,0.362-1.219,1.219
		c2.127,2.613,4.764,5.13,8.197,5.739C488.625,146.055,489.087,144.394,487.995,144.199z"/>
	<path d="M492.13,136.385c-2.987-0.478-5.783-1.653-8.73-2.299c-1.084-0.239-1.546,1.426-0.462,1.662
		c2.947,0.645,5.735,1.82,8.73,2.298C492.759,138.221,493.222,136.56,492.13,136.385z"/>
	<path d="M486.817,127.977c0.016,0.012,0.167,0.072,0.167,0.072c0.199,0.108,0.391,0.239,0.573,0.37
		c0.343,0.251,0.645,0.586,0.837,0.956c0.533,0.98,2.015,0.112,1.498-0.868c-0.351-0.649-0.884-1.135-1.459-1.573
		c-0.462-0.351-1.011-0.653-1.593-0.693c-1.107-0.076-1.099,1.649,0,1.725C486.641,127.949,486.737,127.961,486.817,127.977z"/>
	<path d="M474.199,176.84c-1.123-0.207-2.198-0.558-3.226-1.06c-0.422-0.211-0.828-0.463-1.211-0.733
		c-0.127-0.095-0.239-0.195-0.351-0.307c-0.08-0.076-0.095-0.123-0.112-0.135c0.255-0.999-1.33-1.402-1.672-0.378
		c-0.367,1.08,0.701,1.92,1.473,2.458c1.347,0.944,3.043,1.525,4.645,1.821C474.828,178.704,475.29,177.043,474.199,176.84z"/>
	<path d="M480.173,164.429c-2.007-0.454-4.508-1.593-6.053-2.995c-0.812-0.749-2.039,0.466-1.219,1.219
		c1.768,1.609,4.509,2.919,6.819,3.437C480.803,166.333,481.264,164.672,480.173,164.429z"/>
	<path d="M472.136,183.705c-1.14-0.024-2.23-0.334-3.075-1.126c-0.804-0.761-2.023,0.454-1.219,1.219
		c1.18,1.107,2.701,1.601,4.294,1.633C473.243,185.45,473.243,183.73,472.136,183.705z"/>
	<path d="M474.255,151.034c-0.367-0.709-1.22-1.502-1.259-2.326c-0.064-1.103-1.785-1.111-1.728,0
		c0.071,1.255,0.948,2.135,1.497,3.194C473.283,152.886,474.772,152.014,474.255,151.034z"/>
	<path d="M489.119,109.456c1.658-0.984,3.968-0.709,5.768-0.37c1.091,0.199,1.561-1.462,0.462-1.665
		c-2.278-0.423-5.011-0.693-7.097,0.546C487.295,108.536,488.163,110.026,489.119,109.456z"/>
	<path d="M494.432,113.682c0.247,0.036,0.454-0.028,0.629-0.139c0.135,0.104,0.303,0.171,0.518,0.171c1.115,0,1.115-1.724,0-1.724
		c-0.175,0-0.311,0.043-0.43,0.111c-0.08-0.036-0.159-0.068-0.263-0.083c-3.091-0.438-6.134-0.04-9.193,0.462
		c-1.091,0.179-0.629,1.84,0.462,1.661C488.88,113.694,491.668,113.288,494.432,113.682z"/>
	<path d="M495.81,115.697c-2.748,0.423-5.528,0.494-8.276,0.92c-1.1,0.167-0.63,1.829,0.462,1.662
		c2.748-0.423,5.529-0.494,8.277-0.92C497.364,117.192,496.894,115.53,495.81,115.697z"/>
	<path d="M400.132,115.634c-0.605,0.852-0.574,2.31-0.661,3.302c-0.167,1.872-0.159,3.776,0.119,5.636
		c0.152,1.1,1.817,0.63,1.658-0.458c-0.215-1.434-0.184-2.904-0.112-4.349c0.048-0.888-0.055-2.498,0.486-3.262
		C402.26,115.594,400.77,114.734,400.132,115.634z"/>
	<path d="M406.76,127.332c1.044-4.034,2.796-8.747,0.374-12.618c-0.581-0.94-2.078-0.075-1.489,0.869
		c2.135,3.406,0.367,7.747-0.542,11.292C404.824,127.949,406.489,128.407,406.76,127.332z"/>
	<path d="M413.834,112.619c0.845,3.676,0.845,7.36,0,11.036c-0.246,1.08,1.418,1.542,1.665,0.458c0.916-3.971,0.916-7.982,0-11.952
		C415.252,111.077,413.587,111.535,413.834,112.619z"/>
	<path d="M422.54,112.392c-0.565,4.214-2.19,8.189-2.756,12.411c-0.144,1.099,1.578,1.087,1.721,0
		c0.565-4.218,2.19-8.193,2.756-12.411C424.412,111.292,422.684,111.305,422.54,112.392z"/>
	<path d="M429.295,124.571c0.638-3.779,4.063-7.026,3.219-11.032c-0.231-1.087-1.896-0.626-1.665,0.458
		c0.717,3.418-2.653,6.792-3.219,10.117C427.448,125.201,429.104,125.667,429.295,124.571z"/>
	<path d="M435.987,118.852c-1.665,2.485-3.505,4.843-5.377,7.181c-0.693,0.861,0.518,2.087,1.219,1.219
		c1.959-2.453,3.895-4.923,5.655-7.531C438.097,118.796,436.608,117.936,435.987,118.852z"/>
	<path d="M382.512,112.217c2.175,0.94,3.202,2.923,3.25,5.229c0.024,1.111,1.745,1.115,1.728,0c-0.071-2.856-1.401-5.544-4.11-6.719
		C382.377,110.289,381.493,111.774,382.512,112.217z"/>
	<path d="M386.193,107.508c-1.012,0.467-0.135,1.952,0.868,1.49c1.227-0.57,2.445-0.471,3.378,0.553
		c0.971,1.068,0.844,2.741,0.414,3.987c-0.367,1.056,1.306,1.506,1.665,0.458c0.677-1.963,0.445-4.022-0.86-5.663
		C390.303,106.624,387.993,106.676,386.193,107.508z"/>
	<path d="M394.899,101.761c3.203,0.156,5.425,3.932,7.202,6.182c0.693,0.872,1.904-0.359,1.226-1.219
		c-2.166-2.736-4.564-6.499-8.428-6.687C393.784,99.981,393.792,101.705,394.899,101.761z"/>
	<path d="M402.029,97.591c2.437,0.51,3.751,3.035,3.074,5.377c-0.318,1.068,1.347,1.521,1.657,0.458
		c0.12-0.407,0.2-0.817,0.232-1.227c0.303,0.578,1.362,0.669,1.609-0.152c0.471-1.529,0.471-3.071,0-4.596
		c-0.326-1.06-1.991-0.609-1.665,0.458c0.374,1.183,0.374,2.306,0.056,3.485c-0.152-2.545-1.864-4.915-4.509-5.464
		C401.399,95.704,400.937,97.364,402.029,97.591z"/>
	<path d="M379.732,119.804c-1.115-0.06-1.108,1.665,0,1.724c1.06,0.055,0.963,2.605,0.972,3.274c0.016,1.111,1.728,1.111,1.72,0
		C382.409,122.919,382.178,119.936,379.732,119.804z"/>
	<path d="M374.061,128.172c0.701,0.721,1.003,1.387,0.701,2.378c-0.326,1.068,1.339,1.518,1.657,0.458
		c0.486-1.578-0.016-2.907-1.139-4.055C374.506,126.153,373.288,127.376,374.061,128.172z"/>
	<path d="M439.117,128.252c-0.549,2.808-2.127,5.198-3.584,7.611c-0.582,0.952,0.908,1.821,1.489,0.869
		c1.53-2.538,3.179-5.07,3.76-8.022C440.997,127.626,439.332,127.16,439.117,128.252z"/>
	<path d="M394.126,130.928c0.343-0.394,0.518-0.792,0.613-1.227c1.657,0.737,3.362,1.948,3.441,3.836c0.04,1.107,1.768,1.115,1.72,0
		c-0.127-3.131-3.019-4.955-5.687-5.887c-0.542-0.188-1.1,0.299-1.1,0.832c0,0.399,0.08,0.896-0.207,1.227
		C392.191,130.549,393.402,131.776,394.126,130.928z"/>
	<path d="M388.463,134.975c-1.108-0.028-1.108,1.697,0,1.725c1.171,0.028,2.835,0.43,3.306,1.665
		c0.398,1.027,2.063,0.581,1.665-0.458C392.653,135.891,390.51,135.023,388.463,134.975z"/>
	<path d="M386.017,147.481c0.789,0.777,2.015-0.442,1.219-1.219c-1.466-1.441-3.107-2.497-5.21-2.553
		c-1.115-0.028-1.107,1.697,0,1.725C383.667,145.478,384.886,146.37,386.017,147.481z"/>
	<path d="M382.711,156.897c1.434-0.458,3.122-0.884,4.605-0.462c1.067,0.307,1.529-1.354,0.454-1.661
		c-1.777-0.51-3.783-0.092-5.513,0.458C381.206,155.57,381.652,157.235,382.711,156.897z"/>
	<path d="M379.875,166.329c1.522-1.848,4.055-2.028,6.286-2.047c1.115-0.008,1.115-1.733,0-1.724
		c-2.653,0.024-5.704,0.354-7.504,2.553C377.964,165.962,379.174,167.188,379.875,166.329z"/>
	<path d="M378.059,174.429c0.254,0.435,0.757,0.507,1.187,0.307c0.733-0.339,1.53-0.339,2.326-0.339
		c1.107-0.004,1.107-1.724,0-1.724c-1.123,0-2.167,0.1-3.194,0.578C377.948,173.45,377.844,174.052,378.059,174.429z"/>
	<path d="M378.785,189.911c0.86-0.43,1.768-0.848,2.477-1.517c0.804-0.765-0.414-1.98-1.219-1.219
		c-0.59,0.558-1.418,0.888-2.127,1.247C376.92,188.919,377.789,190.405,378.785,189.911z"/>
	<path d="M388.694,236.145c-1.569,0.422-3.146,0.517-4.747,0.756c-0.741,0.108-1.705,0.347-1.832,1.227
		c-0.152,1.051,1.394,1.518,1.633,0.558c0.135-0.036,0.271-0.064,0.414-0.088c0.51-0.095,1.036-0.115,1.546-0.171
		c1.163-0.123,2.31-0.314,3.449-0.617C390.223,237.519,389.769,235.858,388.694,236.145z"/>
	<path d="M381.795,233.209c2.223-0.924,4.214-2.29,6.437-3.218c1.011-0.418,0.565-2.087-0.462-1.661
		c-2.215,0.923-4.214,2.294-6.436,3.218C380.329,231.97,380.768,233.639,381.795,233.209z"/>
	<path d="M382.257,223.555c2.183-0.466,4.278-1.271,6.437-1.836c1.075-0.283,0.613-1.944-0.454-1.665
		c-2.167,0.565-4.253,1.374-6.436,1.84C380.712,222.125,381.174,223.786,382.257,223.555z"/>
	<path d="M382.942,212.208c-1.107,0-1.107,1.724,0,1.724c0.199,0,0.334,0,0.423,0.016c0.167,0.032,0.215,0.068,0.351,0.191
		c0.813,0.761,2.039-0.458,1.219-1.219C384.361,212.383,383.715,212.212,382.942,212.208z"/>
	<path d="M380.521,206.655c0.064-0.024,0.127-0.04,0.199-0.051c-0.032,0.011,0.231-0.02,0.263-0.02
		c0.191-0.007,0.39-0.007,0.59-0.007c1.107,0,1.107-1.721,0-1.721c-0.916,0-1.761,0.048-2.454,0.709
		c-0.805,0.769,0.414,1.988,1.219,1.219c0.08-0.068,0.087-0.079,0.024-0.032c0.04-0.032,0.088-0.064,0.135-0.087
		C380.513,206.655,380.513,206.659,380.521,206.655z"/>
	<path d="M400.436,236.232c-1.49,0.689-3.298,0.884-4.899,1.179c-0.892,0.16-2.542,0.12-3.258,0.777
		c-0.399,0.367-0.303,1.1,0.175,1.355c0.2,0.1,0.391,0.131,0.606,0.135c0.231,0.004,0.406-0.064,0.533-0.171
		c0.239-0.048,0.47-0.092,0.701-0.131c0.781-0.139,1.561-0.275,2.342-0.423c1.569-0.29,3.219-0.558,4.676-1.231
		C402.315,237.256,401.447,235.771,400.436,236.232z M393.258,239.602C393.234,239.622,393.234,239.618,393.258,239.602
		L393.258,239.602z"/>
	<path d="M399.495,228.761c-2.389,0.06-4.485,0.988-6.668,1.868c-0.39,0.159-0.788,0.59-0.597,1.06
		c0.223,0.55,0.016,1.031-0.032,1.613c-0.088,1.108,1.633,1.1,1.72,0c0.048-0.529,0.16-0.908,0.135-1.326
		c1.761-0.724,3.505-1.441,5.441-1.494C400.61,230.453,400.61,228.729,399.495,228.761z"/>
	<path d="M396.763,220.604c-1.96,1.003-4.078,2.294-5.696,3.812c-0.804,0.76,0.414,1.979,1.219,1.219
		c1.514-1.418,3.521-2.605,5.345-3.545C398.627,221.583,397.751,220.094,396.763,220.604z"/>
	<path d="M397.345,213.682c0.812-0.769-0.407-1.984-1.219-1.219c-0.916,0.873-2.246,1.542-3.529,1.586
		c-1.099,0.04-1.107,1.76,0,1.724C394.35,215.713,396.094,214.876,397.345,213.682z"/>
	<path d="M390.303,207.496c2.469-0.048,4.596-1.052,6.125-3.012c0.678-0.864-0.533-2.095-1.219-1.219
		c-1.259,1.613-2.852,2.469-4.906,2.505C389.188,205.795,389.188,207.52,390.303,207.496z"/>
	<path d="M394.461,196.698c-1.322,0.865-2.724,1.589-4.134,2.299c-0.996,0.498-0.119,1.983,0.868,1.485
		c1.41-0.705,2.82-1.43,4.143-2.299C396.261,197.578,395.393,196.084,394.461,196.698z"/>
	<path d="M386.853,192.297c3.888-1.064,7.313-3.158,10.778-5.146c0.964-0.554,0.095-2.043-0.868-1.489
		c-3.33,1.916-6.628,3.951-10.364,4.971C385.324,190.927,385.778,192.588,386.853,192.297z"/>
	<path d="M388.694,183.559c2.972-1.02,5.712-2.426,8.197-4.357c0.876-0.681-0.359-1.892-1.219-1.219
		c-2.238,1.737-4.772,2.999-7.433,3.915C387.188,182.256,387.634,183.921,388.694,183.559z"/>
	<path d="M386.4,175.744c2.692-0.598,5.194-1.904,7.551-3.306c0.956-0.565,0.096-2.056-0.868-1.485
		c-2.246,1.326-4.588,2.56-7.146,3.131C384.846,174.322,385.316,175.987,386.4,175.744z"/>
	<path d="M387.769,167.93c1.402-0.471,2.972-1.036,4.063-2.06c0.812-0.764-0.406-1.98-1.219-1.219
		c-0.861,0.808-2.199,1.243-3.298,1.618C386.264,166.619,386.718,168.284,387.769,167.93z"/>
	<path d="M387.858,157.753c-0.789,0.789,0.43,2.007,1.21,1.219c0.414-0.41,0.645-0.653,1.235-0.665c1.107-0.028,1.107-1.753,0-1.724
		C389.291,156.606,388.55,157.06,387.858,157.753z"/>
	<path d="M445.474,231.979c-3.242,0.323-7.751-1.079-10.267,1.629c-0.757,0.817,0.462,2.035,1.219,1.219
		c1.983-2.135,6.429-0.864,9.049-1.126C446.565,233.592,446.581,231.867,445.474,231.979z"/>
	<path d="M438.114,222.667c2.206-0.044,4.525-0.438,6.668-0.948c1.083-0.259,0.622-1.923-0.462-1.665
		c-1.999,0.482-4.142,0.848-6.205,0.892C437.007,220.966,437.007,222.69,438.114,222.667z"/>
	<path d="M443.395,215.74c1.091-0.235,0.629-1.9-0.454-1.661c-1.817,0.398-3.385-0.239-4.851-1.295
		c-0.909-0.649-1.761,0.848-0.869,1.489C439.078,215.609,441.133,216.238,443.395,215.74z"/>
	<path d="M445.235,205.345c-2.063,0.804-4.644,1.832-6.89,1.378c-1.091-0.219-1.545,1.442-0.453,1.661
		c2.604,0.526,5.408-0.438,7.806-1.378C446.725,206.608,446.279,204.939,445.235,205.345z"/>
	<path d="M442.479,198.447c-1.793-0.402-3.704-0.251-5.512,0c-1.1,0.155-0.63,1.816,0.454,1.665
		c-0.254,0.036,0.184-0.02,0.271-0.032c0.406-0.044,0.812-0.076,1.22-0.104c1.027-0.068,2.095-0.092,3.114,0.135
		C443.1,200.355,443.57,198.69,442.479,198.447z"/>
	<path d="M447.307,189.684c-3.665,0.454-7.329,0.884-11.033,0.916c-0.279,0.004-0.622,0.159-0.741,0.43
		c-0.04,0.087-0.08,0.175-0.12,0.263c-0.183,0.434-0.127,0.92,0.311,1.179c0.47,0.278,0.924,0.303,1.474,0.314
		c0.446,0.008,0.709-0.271,0.796-0.601c1.227-0.02,3.107-0.087,3.37-0.108c1.992-0.167,3.968-0.426,5.943-0.673
		C448.397,191.269,448.414,189.545,447.307,189.684z"/>
	<path d="M439.013,185.773c1.888-1.235,3.951-2.211,5.975-3.219c0.995-0.498,0.119-1.983-0.877-1.489
		c-2.015,1.008-4.078,1.984-5.974,3.218C437.213,184.889,438.074,186.383,439.013,185.773z"/>
	<path d="M439.468,174.736c1.506-0.98,3.114-1.748,4.851-2.211c1.076-0.282,0.613-1.947-0.462-1.661
		c-1.872,0.498-3.632,1.326-5.257,2.386C437.676,173.856,438.536,175.349,439.468,174.736z"/>
	<path d="M439.061,165.432c-2.286,1.354-4.684,2.553-7.385,2.645c-1.107,0.036-1.107,1.761,0,1.721
		c3.02-0.095,5.696-1.362,8.253-2.876C440.885,166.356,440.018,164.867,439.061,165.432z"/>
	<path d="M439.802,157.295c-1.202,1.445-4.707,4.795-6.596,2.755c-0.756-0.817-1.976,0.406-1.219,1.219
		c2.709,2.935,7.154-0.498,9.033-2.756C441.73,157.666,440.511,156.439,439.802,157.295z"/>
	<path d="M434.258,154.201c1.554-2.211,3.864-3.832,5.521-5.975c0.677-0.88-0.821-1.737-1.489-0.872
		c-1.657,2.147-3.959,3.752-5.521,5.978C432.131,154.244,433.629,155.104,434.258,154.201z"/>
	<path d="M433.366,140.742c-1.235,1.242-2.406,2.537-3.553,3.855c-0.661,0.769-1.983,1.908-2.183,2.963
		c-0.206,1.087,1.45,1.549,1.665,0.458c0.12-0.653,1.426-1.843,1.944-2.441c1.076-1.238,2.191-2.45,3.346-3.612
		C435.374,141.172,434.154,139.954,433.366,140.742z"/>
	<path d="M423.114,136.779c-0.621,0.932-1.37,1.792-2.158,2.585c-0.789,0.789,0.438,2.007,1.219,1.219
		c0.892-0.896,1.72-1.883,2.429-2.931C425.233,136.728,423.735,135.867,423.114,136.779z"/>
	<path d="M416.112,134.525v-0.004c0.008-0.004,0-0.012-0.016-0.024c-0.024-0.032-0.056-0.068-0.056-0.079
		c0.056,0.111-0.039-0.192-0.039-0.175c0-0.012-0.008-0.224-0.008-0.243c-0.024-1.111-1.753-1.115-1.728,0
		c0.016,0.804,0.278,1.684,1.06,2.063c0.852,0.414,1.792,0.08,2.533-0.398c0.932-0.601,0.072-2.095-0.868-1.489
		c-0.2,0.127-0.399,0.247-0.63,0.322C416.247,134.533,416.175,134.533,416.112,134.525z M416.096,134.521L416.096,134.521
		c-0.008-0.004-0.024,0-0.024,0C416.088,134.525,416.08,134.521,416.096,134.521z"/>
	<path d="M445.705,143.741c-1.658,0.573-2.892,1.764-2.932,3.589c-0.032,1.111,1.688,1.111,1.72,0
		c0.024-1.016,0.765-1.609,1.665-1.928C447.203,145.04,446.757,143.371,445.705,143.741z"/>
	<path d="M443.634,152.444c-1.116,0-1.116,1.725,0,1.725c1.067,0,2.143,0,3.218,0c1.107,0,1.107-1.725,0-1.725
		C445.777,152.444,444.701,152.444,443.634,152.444z"/>
	<path d="M450.533,163.018c-0.613,0-1.227,0-1.848,0c-1.107,0-1.107,1.724,0,1.724c0.622,0,1.235,0,1.848,0
		C451.64,164.743,451.64,163.018,450.533,163.018z"/>
	<path d="M352.059,251.459c-0.701-3.804,0.629-7.667,2.995-10.655c0.685-0.86-0.533-2.091-1.227-1.219
		c-2.773,3.509-4.254,7.863-3.433,12.332C350.593,253.008,352.25,252.546,352.059,251.459z"/>
	<path d="M356.918,258.561c0.462,1.007,1.952,0.131,1.481-0.872c-1.537-3.386-0.804-7.217,2.167-9.527
		c0.884-0.681-0.351-1.892-1.219-1.219C355.739,249.75,355.07,254.526,356.918,258.561z"/>
	<path d="M365.107,250.081c-0.948,2.449-1.378,4.963-1.41,7.583c-0.016,1.112,1.704,1.112,1.72,0
		c0.024-2.477,0.454-4.815,1.346-7.125C367.17,249.5,365.498,249.054,365.107,250.081z"/>
	<path d="M369.241,259.274c0.303,1.068,1.967,0.613,1.665-0.458c-0.773-2.681,0.502-5.246,2.533-6.978
		c0.852-0.721-0.374-1.936-1.219-1.219C369.727,252.741,368.317,256.035,369.241,259.274z"/>
	<path d="M374.753,266.63c0.311,1.063,1.976,0.609,1.665-0.458c-1.147-3.975,0.47-7.599,2.995-10.658
		c0.701-0.848-0.502-2.075-1.211-1.219C375.271,257.835,373.431,262.03,374.753,266.63z"/>
	<path d="M383.691,269.641c-1.999-3.198,0.582-7.022,2.621-9.527c0.701-0.856-0.518-2.082-1.219-1.219
		c-2.549,3.131-5.353,7.668-2.892,11.618C382.791,271.454,384.281,270.589,383.691,269.641z"/>
	<path d="M392.318,260.907c-1.49,2.565-2.397,5.456-0.923,8.225c0.525,0.984,2.007,0.112,1.489-0.868
		c-1.171-2.191-0.231-4.501,0.924-6.485C394.357,260.815,392.868,259.946,392.318,260.907z"/>
	<path d="M398.667,258.816c-1.012,3.043-1.729,5.886-0.374,8.938c0.445,1.016,1.928,0.139,1.489-0.869
		c-1.131-2.557-0.287-5.114,0.55-7.611C400.675,258.214,399.01,257.764,398.667,258.816z"/>
	<path d="M400.969,267.088c0.183,1.095,1.848,0.63,1.657-0.458c-0.311-1.817,0.366-3.382,1.618-4.681
		c0.772-0.796-0.446-2.019-1.22-1.219C401.312,262.508,400.547,264.638,400.969,267.088z"/>
	<path d="M409.787,259.529c-1.919,2.867-4.229,6.332-1.839,9.602c0.645,0.888,2.143,0.032,1.489-0.868
		c-1.976-2.701,0.286-5.552,1.84-7.867C411.891,259.473,410.4,258.609,409.787,259.529z"/>
	<path d="M416.821,260.274c-1.879,1.976-3.146,4.827-1.975,7.48c0.445,1.016,1.928,0.139,1.481-0.869
		c-0.821-1.872,0.446-4.062,1.713-5.393C418.796,260.687,417.586,259.464,416.821,260.274z"/>
	<path d="M418.892,266.63c0.047,0.33,0.238,0.517,0.462,0.589c-0.04,0.462,0.231,0.96,0.829,0.96c0.98,0,1.091-1.33,0.35-1.653
		c0.032-0.108,0.04-0.228,0.024-0.355c-0.311-2.234,0.772-4.114,2.82-5.007c1.02-0.438,0.135-1.923-0.869-1.485
		C419.689,260.898,418.486,263.682,418.892,266.63z"/>
	<path d="M427.718,268.215c0.533,0.971,2.023,0.104,1.481-0.872c-1.067-1.944-0.789-3.796,0.463-5.565
		c0.645-0.912-0.852-1.772-1.49-0.872C426.563,263.181,426.364,265.762,427.718,268.215z"/>
	<path d="M433.693,259.986c-1.545,2.206-1.919,4.947-1.466,7.56c0.192,1.095,1.848,0.629,1.657-0.458
		c-0.374-2.175,0.024-4.413,1.29-6.229C435.819,259.946,434.322,259.087,433.693,259.986z"/>
	<path d="M443.713,254.677c-0.47,2.637-1.362,5.178-1.84,7.814c-0.191,1.087,1.466,1.554,1.665,0.458
		c0.478-2.637,1.362-5.178,1.84-7.814C445.577,254.048,443.912,253.582,443.713,254.677z"/>
	<path d="M450.237,258.609c-0.653,0.896,0.844,1.756,1.489,0.868c1.418-1.927,2.358-3.987,2.414-6.408
		c0.032-1.116-1.697-1.112-1.72,0C452.372,255.187,451.472,256.932,450.237,258.609z"/>
	<path d="M353.15,260.194c-2.063,5.246-3.418,10.527-0.837,15.836c0.494,1,1.976,0.123,1.49-0.872
		c-2.199-4.521-1.036-9.113,0.637-13.542c0.303-0.195,0.422-0.578,0.358-0.92c0-0.016,0.008-0.028,0.016-0.043
		C355.221,259.616,353.557,259.17,353.15,260.194z"/>
	<path d="M358.177,267.777c-0.032,3.171-0.446,6.293-0.892,9.427c-0.151,1.088,1.514,1.554,1.665,0.458
		c0.47-3.282,0.916-6.564,0.948-9.885C359.913,266.666,358.192,266.666,358.177,267.777z"/>
	<path d="M367.465,271.604c0.836-0.737-0.391-1.951-1.219-1.219c-2.709,2.394-2.47,6.297-1.052,9.32
		c0.471,1.007,1.952,0.131,1.49-0.869C365.577,276.484,365.362,273.461,367.465,271.604z"/>
	<path d="M373.145,273.604c-2.191,2.339-2.956,5.533-2.517,8.655c0.143,1.099,1.808,0.629,1.657-0.458
		c-0.343-2.481,0.351-5.13,2.079-6.978C375.12,274.014,373.901,272.791,373.145,273.604z"/>
	<path d="M378.29,283.868c0.088-3.206,1.992-5.651,4.341-7.663c0.845-0.725-0.374-1.94-1.219-1.219
		c-2.7,2.318-4.739,5.217-4.851,8.881C376.53,284.984,378.258,284.98,378.29,283.868z"/>
	<path d="M384.871,283.637c0.191,1.095,1.856,0.63,1.665-0.458c-0.311-1.817,0.366-3.382,1.617-4.676
		c0.773-0.8-0.446-2.019-1.219-1.219C385.22,279.057,384.456,281.187,384.871,283.637z"/>
	<path d="M395.209,278.204c-1.665,2.135-3.242,4.911-1.513,7.48c0.613,0.916,2.111,0.055,1.481-0.872
		c-1.234-1.848,0.064-3.864,1.25-5.389C397.106,278.555,395.886,277.324,395.209,278.204z"/>
	<path d="M403.12,286.166c0.032-2.012,0.549-3.892,1.712-5.54c0.645-0.908-0.844-1.768-1.481-0.869
		c-1.339,1.88-1.927,4.118-1.96,6.409C401.375,287.281,403.096,287.277,403.12,286.166z"/>
	<path d="M410.241,281.136c-0.971,2.115-1.068,4.389-0.542,6.639c0.247,1.084,1.912,0.626,1.657-0.458
		c-0.406-1.768-0.398-3.64,0.374-5.313C412.201,281.005,410.711,280.128,410.241,281.136z"/>
	<path d="M420.493,281.422c-1.099,1.199-1.171,2.737-1.171,4.286c0,1.112,1.72,1.112,1.72,0c0-1.031-0.079-2.254,0.67-3.066
		C422.461,281.821,421.242,280.598,420.493,281.422z"/>
	<path d="M431.653,278.638c0.98-0.525,0.112-2.015-0.868-1.489c-2.303,1.227-3.123,3.605-2.239,6.03
		c0.383,1.035,2.047,0.585,1.665-0.458C429.574,280.992,429.997,279.522,431.653,278.638z"/>
	<path d="M436.823,279.04c-0.454,1.442-0.55,2.948,0.087,4.346c0.454,1.011,1.936,0.131,1.49-0.873
		c-0.431-0.944-0.207-2.067,0.079-3.011C438.814,278.435,437.15,277.986,436.823,279.04z"/>
	<path d="M445.873,279.272c-0.008-0.905-0.303-1.709-1.322-1.781c-0.471-0.036-0.869,0.414-0.869,0.861
		c0,0.339,0.192,0.593,0.462,0.737c0,0.06,0,0.123,0,0.184C444.144,280.383,445.873,280.383,445.873,279.272z"/>
	<path d="M457.829,277.894c0-0.155,0-0.307,0-0.462c0-1.111-1.728-1.111-1.728,0c0,0.155,0,0.307,0,0.462
		C456.101,279.005,457.829,279.005,457.829,277.894z"/>
	<path d="M351.127,293.65c-0.303,3.696,1.211,8.085,4.924,9.439c1.051,0.383,1.497-1.286,0.462-1.661
		c-2.708-0.992-3.553-4.167-3.68-6.763c-0.079-1.92,0.486-5.887,3.219-5.369c1.091,0.207,1.553-1.454,0.462-1.661
		C352.8,286.935,351.382,290.579,351.127,293.65z"/>
	<path d="M360.598,304.073c0.55,0.96,2.047,0.091,1.481-0.872c-2.071-3.585-1.561-7.791,1.705-10.447
		c0.86-0.701-0.359-1.916-1.211-1.219C358.71,294.666,358.16,299.875,360.598,304.073z"/>
	<path d="M369.177,306.22c0.892,0.665,1.753-0.833,0.876-1.489c-3.592-2.673-1.697-7.739,0.63-10.599
		c0.693-0.852-0.518-2.082-1.219-1.219C366.342,296.745,364.597,302.803,369.177,306.22z"/>
	<path d="M375.439,297.509c-2.629,3.19-4.7,6.579-2.892,10.702c0.446,1.016,1.927,0.135,1.489-0.872
		c-1.441-3.294,0.582-6.138,2.621-8.611C377.359,297.88,376.147,296.653,375.439,297.509z"/>
	<path d="M379.326,306.857c-0.024,1.111,1.705,1.107,1.728,0c0.047-2.505,0.757-4.899,2.501-6.747
		c0.765-0.809-0.454-2.032-1.219-1.219C380.282,301.07,379.382,303.894,379.326,306.857z"/>
	<path d="M386.646,312.199c0.909,0.641,1.768-0.852,0.876-1.489c-3.066-2.171,0.374-6.321,2.007-8.301
		c0.702-0.852-0.51-2.079-1.219-1.219C385.826,304.209,382.361,309.159,386.646,312.199z"/>
	<path d="M398.428,301.648c-2.175,2.752-4.294,5.963-2.98,9.576c0.374,1.035,2.039,0.589,1.658-0.458
		c-1.084-2.995,0.749-5.628,2.541-7.898C400.332,302.006,399.113,300.776,398.428,301.648z"/>
	<path d="M404.267,301.365c-1.928,2.999-3.338,6.731-1.379,10.065c0.566,0.955,2.056,0.087,1.49-0.873
		c-1.633-2.776-0.2-5.875,1.378-8.324C406.362,301.298,404.864,300.433,404.267,301.365z"/>
	<path d="M408.257,312.199c0.884,0.673,1.737-0.825,0.869-1.489c-2.286-1.745,0.573-5.425,1.689-7.097
		c0.622-0.928-0.884-1.793-1.489-0.869C407.501,305.491,404.849,309.597,408.257,312.199z"/>
	<path d="M415.276,304.706c0.319-0.346,0.343-0.876,0-1.219c-0.319-0.322-0.901-0.347-1.219,0c-0.287,0.315-0.454,0.657-0.598,1.056
		c-0.104,0.291-0.207,0.657-0.318,0.785c-0.319,0.347-0.351,0.872,0,1.219c0.318,0.319,0.9,0.347,1.211,0
		c0.294-0.315,0.462-0.661,0.598-1.056C415.06,305.201,415.156,304.834,415.276,304.706z"/>
	<path d="M423.345,308.235c0.032-2.317,0.517-4.508,1.346-6.667c0.398-1.04-1.267-1.486-1.657-0.458
		c-0.892,2.299-1.379,4.66-1.419,7.125C421.609,309.347,423.329,309.347,423.345,308.235z"/>
	<path d="M431.271,306.396c0,1.111,1.728,1.111,1.728,0c0-1.478-0.047-2.944-0.493-4.366c-0.326-1.06-1.991-0.609-1.665,0.458
		C431.239,303.771,431.271,305.065,431.271,306.396z"/>
	<path d="M438.878,300.727c-0.605,0.642-1.122,1.554-1.171,2.45c-0.016,0.47,0.414,0.861,0.861,0.861
		c0.493,0,0.844-0.391,0.868-0.861c0-0.007,0-0.004,0-0.011c0.016-0.052,0.024-0.104,0.04-0.152c0.047-0.155,0.08-0.223,0.151-0.37
		c0.135-0.267,0.295-0.502,0.471-0.697C440.87,301.146,439.651,299.923,438.878,300.727z"/>
	<path d="M354.672,331.591c1.075,0.279,1.529-1.382,0.462-1.661c-6.292-1.625-0.828-11.69,1.434-14.825
		c0.653-0.904-0.844-1.76-1.489-0.872C352.083,318.372,346.77,329.548,354.672,331.591z"/>
	<path d="M363.617,319.551c0.996-0.482,0.119-1.968-0.876-1.486c-5.305,2.557-3.322,10.93-1.777,15.223
		c0.374,1.04,2.039,0.59,1.665-0.458C361.355,329.301,359.204,321.678,363.617,319.551z"/>
	<path d="M367.711,334.897c0.064-4.026,0.909-7.962,1.387-11.952c0.135-1.1-1.594-1.087-1.729,0
		c-0.477,3.994-1.314,7.922-1.378,11.952C365.975,336.012,367.704,336.008,367.711,334.897z"/>
	<path d="M374.753,326.393c-0.924,2.892-1.338,5.779-0.454,8.735c0.31,1.064,1.975,0.609,1.665-0.458
		c-0.805-2.673-0.374-5.214,0.454-7.818C376.761,325.792,375.096,325.338,374.753,326.393z"/>
	<path d="M383.317,339.724c-0.756-3.764,0.892-7.448,1.84-11.032c0.279-1.076-1.378-1.534-1.665-0.458
		c-1.035,3.947-2.668,7.81-1.84,11.952C381.867,341.273,383.532,340.812,383.317,339.724z"/>
	<path d="M395.074,326.19c-1.418,2.976-1.944,6.13-1.466,9.396c0.16,1.099,1.817,0.629,1.665-0.458
		c-0.406-2.768,0.096-5.552,1.29-8.069C397.042,326.059,395.544,325.183,395.074,326.19z"/>
	<path d="M402.801,326.393c-0.932,3.537-0.901,7.154,0.462,10.575c0.406,1.02,2.071,0.573,1.658-0.458
		c-1.251-3.155-1.322-6.393-0.454-9.659C404.753,325.776,403.088,325.322,402.801,326.393z"/>
	<path d="M412.28,335.586c0.47-3.306,1.028-6.544,2.295-9.651c0.43-1.032-1.243-1.474-1.658-0.463
		c-1.266,3.111-1.824,6.349-2.294,9.655C410.464,336.215,412.121,336.685,412.28,335.586z"/>
	<path d="M417.976,326.856c-0.987,2.979-1.808,6.086-0.923,9.192c0.311,1.068,1.976,0.613,1.665-0.458
		c-0.805-2.804,0.04-5.601,0.923-8.277C419.983,326.254,418.318,325.805,417.976,326.856z"/>
	<path d="M431.526,331.372c0.47,0.514,0.653,1.47,0.669,2.147c0.024,1.111,1.753,1.111,1.72,0c-0.024-1.152-0.374-2.498-1.171-3.366
		C431.996,329.329,430.785,330.552,431.526,331.372z"/>
	<path d="M442.344,327.314c-0.478,1.534-0.582,3.314,0.079,4.804c0.462,1.011,1.944,0.135,1.489-0.873
		c-0.462-1.035-0.231-2.433,0.088-3.472C444.335,326.708,442.662,326.254,442.344,327.314z"/>
	<path d="M451.074,328.692c-0.351,1.063,1.322,1.513,1.657,0.462c0.231-0.689,0.446-1.485,0.215-2.198
		c-0.295-0.861-1.123-1.175-1.96-1.195c-1.115-0.024-1.107,1.701,0,1.724c-0.04,0,0.215,0.02,0.231,0.016
		c0.016,0.004,0.048,0.016,0.088,0.028c0,0.004,0,0.004,0,0.004c0,0.043,0.008,0.135,0.008,0.147c0,0.052,0,0.072,0,0.084
		c0,0.016,0,0.04-0.008,0.095C451.249,328.142,451.162,328.421,451.074,328.692z M451.313,327.497c0,0.004,0,0.004,0,0.004
		c-0.008-0.004,0-0.004-0.008-0.016L451.313,327.497z M451.313,327.537c0,0,0,0,0,0.003c0.007,0.008,0.007,0.012,0.007,0.02
		C451.321,327.553,451.313,327.544,451.313,327.537z"/>
	<path d="M355.676,340.266c-2.534,2.653-4.581,7.615-0.749,10.085c0.94,0.606,1.8-0.884,0.876-1.489
		c-2.773-1.777-0.59-5.619,1.083-7.376C357.659,340.68,356.44,339.462,355.676,340.266z"/>
	<path d="M362.439,343.659c-1.506,2.119-1.92,4.565-1.474,7.097c0.191,1.091,1.856,0.63,1.665-0.454
		c-0.366-2.096,0.072-4.039,1.29-5.775C364.565,343.619,363.068,342.76,362.439,343.659z"/>
	<path d="M369.002,344.863c-2.087,2.23-2.541,5.249-1.051,7.942c0.542,0.972,2.032,0.104,1.49-0.876
		c-1.108-1.999-0.773-4.19,0.781-5.847C370.977,345.269,369.767,344.05,369.002,344.863z"/>
	<path d="M376.076,345.651c-2.995,1.625-4.588,5.01-3.616,8.324c0.311,1.067,1.976,0.613,1.665-0.463
		c-0.765-2.589,0.485-5.105,2.82-6.38C377.924,346.607,377.055,345.117,376.076,345.651z"/>
	<path d="M379.669,353.282c0.032-1.856,0.86-3.043,2.588-3.76c1.012-0.423,0.566-2.096-0.462-1.665
		c-2.446,1.02-3.808,2.732-3.848,5.424C377.932,354.397,379.652,354.397,379.669,353.282z"/>
	<path d="M388.176,351.012c-1.498,2.095-2.454,4.835-1.378,7.305c0.438,1.02,1.927,0.144,1.489-0.868
		c-0.804-1.848,0.311-4.071,1.378-5.569C390.31,350.98,388.814,350.12,388.176,351.012z"/>
	<path d="M404.036,355.584c0.032-2.326,0.557-4.437,1.72-6.46c0.558-0.963-0.932-1.832-1.489-0.868
		c-1.307,2.278-1.92,4.707-1.96,7.328C402.291,356.7,404.02,356.7,404.036,355.584z"/>
	<path d="M419.441,348.256c-1.744,2.772-2.549,6.134-0.923,9.145c0.533,0.98,2.015,0.104,1.489-0.869
		c-1.33-2.461-0.478-5.177,0.924-7.408C421.521,348.184,420.031,347.324,419.441,348.256z"/>
	<path d="M426.221,349.156c0.055,2.277,0.844,4.468,1.41,6.659c0.271,1.075,1.936,0.621,1.665-0.462
		c-0.525-2.031-1.29-4.087-1.354-6.197C427.909,348.04,426.189,348.033,426.221,349.156z"/>
	<path d="M441.276,353.745c0-2.215,0.008-4.486-0.494-6.66c-0.246-1.091-1.911-0.621-1.665,0.454
		c0.471,2.024,0.431,4.142,0.439,6.206C439.556,354.86,441.276,354.86,441.276,353.745z"/>
	<path d="M449.059,353.06c-0.438-2.733,0.374-5.513,0-8.277c-0.152-1.095-1.808-0.625-1.665,0.462c0.374,2.755-0.438,5.52,0,8.268
		C447.569,354.613,449.234,354.151,449.059,353.06z"/>
	<path d="M455.065,349.61c0.032-1.808,0.454-3.545,0.884-5.289c0.271-1.076-1.394-1.534-1.657-0.458
		c-0.478,1.892-0.908,3.788-0.948,5.747C453.321,350.718,455.049,350.718,455.065,349.61z"/>
	<path d="M459.2,346.854c0-0.199,0-0.343,0.016-0.414c0.032-0.175,0.064-0.223,0.191-0.358c0.757-0.812-0.453-2.031-1.219-1.219
		c-0.533,0.573-0.709,1.219-0.709,1.991C457.478,347.969,459.2,347.969,459.2,346.854z"/>
	<path d="M361.164,360.667c-0.518-1.108-0.884-1.657-2.126-1.808c-0.406-0.048-0.702,0.311-0.829,0.637
		c-1.489,3.704-1.752,7.687-0.462,11.487c0.358,1.051,2.023,0.606,1.665-0.454c-1.076-3.171-0.964-6.381,0.071-9.479
		c0.072,0.175,0.136,0.366,0.192,0.485C360.144,362.547,361.625,361.67,361.164,360.667z"/>
	<path d="M366.11,362.507c-1.537,2.724-1.919,6.054,0,8.682c0.646,0.892,2.143,0.032,1.49-0.868c-1.569-2.151-1.259-4.716,0-6.938
		C368.149,362.412,366.653,361.535,366.11,362.507z"/>
	<path d="M375.279,371.07c-1.538-1.649-1.386-3.529-0.327-5.393c0.55-0.963-0.94-1.839-1.481-0.876
		c-1.458,2.573-1.481,5.265,0.59,7.488C374.817,373.101,376.036,371.874,375.279,371.07z"/>
	<path d="M384.496,373.038c0.525,0.971,2.015,0.104,1.497-0.876c-1.171-2.191-0.238-4.501,0.917-6.485
		c0.557-0.963-0.932-1.832-1.49-0.876C383.93,367.373,383.03,370.265,384.496,373.038z"/>
	<path d="M394.748,365.55c-2.445,2.581-3.521,6.166-0.916,9.033c0.749,0.829,1.959-0.398,1.211-1.219
		c-1.944-2.15-0.828-4.739,0.924-6.596C396.732,365.964,395.512,364.745,394.748,365.55z"/>
	<path d="M403.024,366.928c-1.553,1.617-2.533,3.632-2.055,5.894c0.223,1.091,1.88,0.63,1.657-0.454
		c-0.343-1.633,0.526-3.083,1.618-4.214C405.016,367.35,403.797,366.123,403.024,366.928z"/>
	<path d="M409.922,366.466c-1.991,2.047-2.987,4.366-1.521,7.026c0.542,0.972,2.031,0.104,1.489-0.868
		c-1.075-1.952-0.175-3.473,1.251-4.939C411.914,366.896,410.696,365.677,409.922,366.466z"/>
	<path d="M419.354,369.15c-0.446,1.418-0.494,2.884-0.494,4.366c0,1.107,1.729,1.107,1.729,0c0-1.33,0.024-2.629,0.422-3.903
		C421.345,368.537,419.68,368.09,419.354,369.15z"/>
	<path d="M435.787,370.472c-1.266-0.86-2.406-1.896-3.672-2.756c-0.923-0.629-1.792,0.861-0.876,1.49
		c1.275,0.86,2.405,1.888,3.68,2.755C435.844,372.583,436.703,371.094,435.787,370.472z"/>
	<path d="M294.156,465.426c0.135,1.027,0.295,2.047,0.485,3.074c0.383,2.135,1.02,4.214,2.056,6.134
		c0.518,0.98,2.007,0.111,1.481-0.869c-1.075-2.023-1.601-4.198-2.008-6.444c-0.175-0.988-0.183-2.167-0.326-3.274
		c0.151-0.239,0.191-0.542,0.04-0.861c-0.199-0.382-0.391-0.772-0.582-1.155c-0.502-0.995-1.984-0.119-1.489,0.869
		C294.139,463.553,294.059,464.7,294.156,465.426z"/>
	<path d="M303.324,473.511c-0.494-3.019-1.721-5.887-1.808-8.969c-0.032-1.108-1.752-1.108-1.728,0
		c0.096,3.25,1.354,6.245,1.88,9.423C301.842,475.064,303.499,474.594,303.324,473.511z"/>
	<path d="M303.499,464.772c1.099,3.791,0.756,8.5,3.903,11.415c0.812,0.757,2.031-0.462,1.219-1.219
		c-2.86-2.645-2.462-7.201-3.457-10.659C304.853,463.251,303.197,463.704,303.499,464.772z"/>
	<path d="M310.023,466.867c-0.67,1.489-0.566,3.266-0.088,4.804c0.327,1.06,1.992,0.605,1.665-0.462
		c-0.326-1.035-0.55-2.437-0.087-3.472C311.967,466.731,310.477,465.855,310.023,466.867z"/>
	<path d="M310.079,453.134c-1.1,0.167-0.629,1.825,0.462,1.665c4.357-0.645,6.19,6.469,7.209,9.511
		c0.359,1.051,2.016,0.598,1.665-0.454C317.997,459.618,315.846,452.281,310.079,453.134z"/>
	<path d="M316.459,447.096c-0.549,0.964,0.932,1.832,1.49,0.868c0.016-0.032,0.111-0.263,0.206-0.493
		c2.454,2.764,4.247,6.054,5.569,9.487c0.398,1.027,2.063,0.582,1.665-0.462c-1.22-3.162-2.773-6.26-4.891-8.929
		c-0.534-0.669-1.538-2.509-2.605-2.246C316.755,445.598,316.962,446.22,316.459,447.096z"/>
	<path d="M321.821,444.602c2.525,1.147,3.823,4.381,4.667,6.835c0.359,1.043,2.024,0.598,1.658-0.454
		c-0.98-2.867-2.502-6.531-5.449-7.87C321.693,442.659,320.817,444.141,321.821,444.602z"/>
	<path d="M325.325,438.947c2.104,2.613,4.302,5.122,7.074,7.034c0.916,0.629,1.785-0.869,0.877-1.489
		c-2.645-1.817-4.732-4.278-6.724-6.764C325.851,436.86,324.641,438.087,325.325,438.947z"/>
	<path d="M329.181,432.184c2.334,1.505,3.553,4.189,4.747,6.588c0.502,0.995,1.992,0.119,1.49-0.869
		c-1.355-2.7-2.749-5.52-5.369-7.209C329.117,430.097,328.249,431.586,329.181,432.184z"/>
	<path d="M332.861,424.831c2.286,1.45,3.783,3.863,4.66,6.38c0.358,1.044,2.031,0.598,1.665-0.454
		c-1.044-2.955-2.773-5.712-5.457-7.416C332.79,422.744,331.921,424.234,332.861,424.831z"/>
	<path d="M336.685,419.001c0.98,1.903,2.246,3.624,3.219,5.52c0.51,0.988,1.999,0.12,1.489-0.868
		c-0.98-1.896-2.238-3.625-3.219-5.512C337.664,417.144,336.175,418.013,336.685,419.001z"/>
	<path d="M344.763,414.149c-1.387-0.9-2.908-1.466-4.573-1.498c-1.115-0.024-1.107,1.697,0,1.728
		c1.37,0.024,2.565,0.518,3.704,1.259C344.834,416.245,345.694,414.747,344.763,414.149z"/>
	<path d="M351.86,416.292c-0.653,0.908,0.844,1.768,1.489,0.876c0.701-0.988,1.578-0.525,2.326,0.167
		c0.438,0.423,0.995,0.247,1.29-0.127c0.135,0.215,0.366,0.374,0.693,0.391c1.211,0.015,2.613,0.279,3.529,1.115
		c0.812,0.764,2.032-0.462,1.219-1.211c-1.258-1.171-3.066-1.609-4.747-1.633c-0.326-0.008-0.557,0.143-0.685,0.343
		c-0.032-0.033-0.056-0.064-0.087-0.096c-0.741-0.709-1.561-1.227-2.613-1.282C353.238,414.779,352.417,415.519,351.86,416.292z"/>
	<path d="M349.613,422.617c1.489-0.454,2.987-0.286,4.397,0.374c0.995,0.47,1.871-1.011,0.868-1.489
		c-1.817-0.852-3.776-1.14-5.728-0.542C348.099,421.278,348.546,422.943,349.613,422.617z"/>
	<path d="M346.395,429.229c-1.084,0.239-0.621,1.904,0.462,1.665c1.904-0.406,4.023,0.007,5.767,0.828
		c1.004,0.478,1.88-1.011,0.877-1.481C351.31,429.204,348.785,428.719,346.395,429.229z"/>
	<path d="M348.873,436.502c0.015-0.327,3.17,0.701,3.505,0.828c1.035,0.406,1.473-1.267,0.454-1.665
		c-1.569-0.605-5.456-2.016-5.687,0.837C347.056,437.609,348.777,437.6,348.873,436.502z"/>
	<path d="M354.902,442.531c-2.605,0-5.209,0-7.814,0c-0.032,0-0.055,0-0.079,0c-1.123,0-1.123,1.728,0,1.728
		c0.024,0,0.047,0,0.079,0c2.605,0,5.21,0,7.814,0C356.017,444.26,356.017,442.531,354.902,442.531z"/>
	<path d="M348.467,448.505c-0.192,0-0.367,0-0.558,0c-1.107,0-1.107,1.729,0,1.729c0.191,0,0.366,0,0.558,0c1.378,0,2.756,0,4.134,0
		c1.115,0,1.115-1.729,0-1.729C351.223,448.505,349.844,448.505,348.467,448.505z"/>
	<path d="M345.702,456.671c2.151,0,4.294,0,6.437,0c1.115,0,1.115-1.728,0-1.728c-2.143,0-4.286,0-6.437,0
		C344.595,454.942,344.595,456.671,345.702,456.671z"/>
	<path d="M346.833,461.817c-0.271-0.016-0.542-0.032-0.821-0.064c-0.048,0-0.088-0.016-0.127-0.024
		c-0.295-0.398-0.852-0.582-1.251-0.095c-0.756,0.94,0.104,1.665,1.028,1.8c0.932,0.127,1.864,0.135,2.804,0.135
		c1.107,0,1.107-1.728,0-1.728C347.925,461.841,347.375,461.832,346.833,461.817z"/>
	<path d="M348.945,468.396c-1.458,0.669-2.868,0.294-4.008-0.789c-0.804-0.756-2.031,0.454-1.219,1.219
		c1.745,1.658,3.911,2.064,6.102,1.06C350.824,469.424,349.956,467.935,348.945,468.396z"/>
	<path d="M350.211,477.645c-0.032,0.215-0.072,0.127,0.167-0.016c0.303-0.184,0.622-0.327,0.941-0.471
		c0.645-0.286,1.306-0.525,1.976-0.749c1.043-0.358,0.597-2.023-0.462-1.665c-0.924,0.311-1.84,0.67-2.732,1.083
		c-0.558,0.263-1.426,0.67-1.546,1.355C348.355,478.274,350.02,478.736,350.211,477.645z"/>
	<path d="M352.114,485.977c1.999-0.98,4.063-1.753,6.238-2.215c1.083-0.231,0.621-1.896-0.463-1.665
		c-2.317,0.493-4.525,1.346-6.635,2.39C350.25,484.973,351.127,486.463,352.114,485.977z"/>
	<path d="M357.81,491.354c-0.064,0.055,0.239-0.135,0.199-0.12c0.159-0.064,0.318-0.112,0.486-0.167
		c0.43-0.144,0.82-0.326,1.155-0.629c0.342-0.319,0.318-0.901,0-1.219c-0.343-0.342-0.877-0.318-1.219,0
		c0.064-0.055-0.239,0.136-0.199,0.12c-0.159,0.064-0.326,0.112-0.485,0.167c-0.431,0.144-0.821,0.326-1.155,0.63
		c-0.343,0.318-0.327,0.9,0,1.219C356.934,491.697,357.46,491.672,357.81,491.354z"/>
	<path d="M360.965,493.544c-0.191,0.135-0.391,0.263-0.59,0.391c-0.072,0.04-0.144,0.079-0.215,0.119
		c-0.263-0.079-0.558-0.032-0.813,0.224c-0.438,0.446-0.645,0.963-0.206,1.513c0.342,0.446,0.955,0.239,1.37,0.048
		c0.662-0.311,1.37-0.757,1.896-1.267c0.805-0.772-0.422-1.991-1.219-1.219c-0.039,0.04-0.079,0.08-0.127,0.112
		C361.028,493.497,360.988,493.521,360.965,493.544z M359.762,494.285c-0.032,0.016-0.072,0.04-0.111,0.056
		C359.539,494.373,359.611,494.301,359.762,494.285z"/>
	<path d="M360.24,502.674c0.462-0.829,1.657-1.14,2.454-1.529c1.004-0.486,0.12-1.976-0.868-1.49
		c-1.123,0.55-2.43,0.996-3.075,2.151C358.217,502.777,359.706,503.645,360.24,502.674z"/>
	<path d="M362.661,506.839c0-0.016,0-0.032,0-0.048h0.008c0.167-0.016,0.334-0.007,0.51-0.007c1.115-0.008,1.115-1.728,0-1.728
		c-0.518,0-1.02,0.007-1.489,0.246c-0.574,0.287-0.749,0.956-0.749,1.538C360.917,507.946,362.645,507.946,362.661,506.839z"/>
	<path d="M372.371,514.248c-1.115,0-1.115,1.728,0,1.728c0.303,0,0.613,0,0.916,0c1.116,0,1.116-1.728,0-1.728
		C372.985,514.248,372.674,514.248,372.371,514.248z"/>
	<path d="M393.29,391.813c1.067,0.319,1.521-1.346,0.454-1.657c-1.465-0.438-3.743-0.358-4.97,0.677
		c-0.852,0.725,0.374,1.936,1.219,1.219c0.271-0.231,0.963-0.303,1.338-0.343C391.983,391.622,392.653,391.63,393.29,391.813z"/>
	<path d="M389.61,402.391c1.083-0.263,0.621-1.919-0.454-1.665c-1.107,0.263-2.405,0.533-3.162-0.518
		c-0.645-0.9-2.142-0.039-1.497,0.869C385.77,402.854,387.634,402.861,389.61,402.391z"/>
	<path d="M383.173,410.206c2.494,0.414,5.059,0.909,7.584,0.948c1.116,0.024,1.116-1.704,0-1.72
		c-2.382-0.04-4.779-0.502-7.121-0.884C382.552,408.366,382.082,410.023,383.173,410.206z"/>
	<path d="M390.534,418.196c-2.844,0.908-5.799,1.354-8.739,1.84c-1.091,0.184-0.629,1.848,0.462,1.665
		c2.94-0.486,5.887-0.932,8.731-1.84C392.04,419.526,391.593,417.861,390.534,418.196z"/>
	<path d="M381.715,428.83c1.626-1.481,4.207-1.561,6.285-1.585c1.116-0.008,1.116-1.728,0-1.72
		c-2.588,0.024-5.504,0.271-7.504,2.095C379.669,428.368,380.895,429.579,381.715,428.83z"/>
	<path d="M389.155,434.295c-2.357,0.462-4.724,0.852-7.129,0.883c-1.115,0.008-1.115,1.737,0,1.721
		c2.549-0.032,5.083-0.454,7.584-0.948C390.701,435.736,390.239,434.072,389.155,434.295z"/>
	<path d="M390.071,442.85c1.052-0.334,0.606-1.999-0.462-1.665c-1.506,0.478-3.242,0.836-4.827,0.892
		c-1.107,0.032-1.107,1.752,0,1.72C386.519,443.743,388.423,443.368,390.071,442.85z"/>
	<path d="M392.143,447.128c-1.219,0.015-5.871,0.112-4.971,2.469c0.366,0.98,1.879,0.63,1.705-0.294
		c0.032-0.008,0.047-0.024,0.095-0.04c0.279-0.112,0.573-0.167,0.861-0.231c0.756-0.152,1.537-0.167,2.31-0.175
		C393.25,448.848,393.25,447.12,392.143,447.128z M388.781,449.351C388.757,449.374,388.742,449.374,388.781,449.351
		L388.781,449.351z"/>
	<path d="M390.757,454.942c-0.756,0-1.529,0-2.294,0c-0.064,0-0.127,0-0.192,0c-1.107,0-1.107,1.728,0,1.728
		c0.064,0,0.128,0,0.192,0c0.764,0,1.538,0,2.294,0C391.872,456.671,391.872,454.942,390.757,454.942z"/>
	<path d="M390.303,463.569c0.303,0,0.613,0,0.916,0c1.115,0,1.115-1.728,0-1.728c-0.303,0-0.613,0-0.916,0
		C389.188,461.841,389.188,463.569,390.303,463.569z"/>
	<path d="M393.513,470.459c0.805-0.024,1.521-0.438,2.303-0.462c1.107-0.032,1.115-1.752,0-1.72
		c-0.805,0.024-1.506,0.438-2.303,0.462C392.414,468.771,392.406,470.492,393.513,470.459z"/>
	<path d="M441.562,383.258c-1.991,0.494-4.158,1.227-6.213,1.347c-1.099,0.071-1.107,1.792,0,1.728
		c2.223-0.128,4.525-0.877,6.676-1.41C443.092,384.652,442.638,382.995,441.562,383.258z"/>
	<path d="M439.261,392.912c-1.983,0.494-3.99,0.892-5.974,1.379c-1.075,0.271-0.622,1.936,0.462,1.665
		c1.984-0.486,3.983-0.892,5.975-1.379C440.798,394.306,440.344,392.65,439.261,392.912z"/>
	<path d="M437.198,399.779c-0.924,0-1.848,0-2.764,0c-1.107,0-1.107,1.72,0,1.72c0.916,0,1.84,0,2.764,0
		C438.305,401.499,438.305,399.779,437.198,399.779z"/>
	<path d="M433.263,404.598c-0.231,0.295-0.128,0.805,0.127,1.044c0.326,0.31,0.861,0.342,1.274,0.422
		c0.192,0.048,0.374,0.016,0.534-0.047c0.358,0.039,0.717,0.079,1.075,0.079c1.108,0.016,1.108-1.712,0-1.72
		c-0.51,0-1.02-0.072-1.513-0.127C434.162,404.184,433.677,404.056,433.263,404.598z M434.354,404.248c0,0-0.016-0.008-0.024-0.008
		C434.202,404.208,434.234,404.184,434.354,404.248z"/>
	<path d="M437.198,408.509c-0.311,0-0.622,0-0.924,0c-0.032,0-0.064,0-0.095,0c-1.107,0-1.107,1.728,0,1.728
		c0.032,0,0.064,0,0.095,0c0.303,0,0.613,0,0.924,0C438.305,410.238,438.305,408.509,437.198,408.509z"/>
	<path d="M365.202,386.444c0.279,0.04,0.558,0.104,0.829,0.167c0.813,0.184,1.617,0.407,2.429,0.613
		c1.083,0.271,1.538-1.394,0.462-1.665c-1.29-0.326-2.574-0.701-3.896-0.868c-1.187-0.152-1.959,0.884-1.083,1.848
		C364.358,386.985,364.916,386.818,365.202,386.444z"/>
	<path d="M369.384,393.828c-2.676-0.446-5.329-0.916-8.045-0.948c-1.115-0.016-1.108,1.713,0,1.728
		c2.565,0.024,5.058,0.462,7.584,0.884C370.014,395.677,370.476,394.02,369.384,393.828z"/>
	<path d="M365.25,403.029c-1.083-0.374-2.637-0.988-3.083-2.158c-0.391-1.028-2.056-0.582-1.666,0.454
		c0.702,1.824,2.534,2.764,4.286,3.369C365.839,405.052,366.286,403.387,365.25,403.029z"/>
	<path d="M363.402,409.465c-1.067-0.374-2.198-1.043-2.613-2.158c-0.383-1.036-2.047-0.59-1.657,0.454
		c0.629,1.737,2.118,2.78,3.816,3.361C364,411.489,364.445,409.824,363.402,409.465z"/>
	<path d="M358.431,426.074c1.347,1.227,3.433,1.601,5.202,1.633c1.116,0.016,1.116-1.705,0-1.728
		c-1.274-0.016-2.994-0.223-3.982-1.123C358.83,424.106,357.611,425.325,358.431,426.074z"/>
	<path d="M365.473,433.793c-0.724-0.007-1.426-0.119-2.135-0.246c-0.064-0.008-0.144-0.016-0.215-0.033
		c0.207-0.677-0.756-1.426-1.473-0.844c-0.334,0.271-0.876,0.215-1.18,0.558c-0.318,0.383-0.462,1.043,0,1.41
		c0.645,0.518,1.323,0.414,2.111,0.534c0.964,0.135,1.92,0.334,2.892,0.35C366.588,435.546,366.588,433.824,365.473,433.793z"/>
	<path d="M358.208,472.587c-0.247,1.083,1.418,1.545,1.657,0.462c0.462-2.031,2.047-3.114,3.999-3.537
		c1.091-0.239,0.621-1.896-0.463-1.665C360.901,468.396,358.79,470.006,358.208,472.587z"/>
	<path d="M363.665,475.295c-1.975,0.964-4.014,1.785-5.982,2.756c-0.995,0.486-0.119,1.976,0.877,1.489
		c1.959-0.971,3.999-1.792,5.974-2.764C365.529,476.291,364.652,474.801,363.665,475.295z"/>
	<path d="M359.443,454.432c0.032-0.901,1.219-0.971,1.896-0.98c1.107-0.016,1.107-1.737,0-1.728
		c-1.72,0.024-3.553,0.732-3.624,2.708C357.675,455.539,359.403,455.539,359.443,454.432z"/>
	<path d="M367.743,485.053c0.98-0.533,0.112-2.023-0.868-1.489c-2.326,1.282-3.959,3.951-4.533,6.492
		c-0.246,1.083,1.418,1.545,1.665,0.462C364.485,488.391,365.792,486.128,367.743,485.053z"/>
	<path d="M370.388,489.219c-2.375,2.478-3.8,5.601-5.656,8.452c-0.613,0.932,0.884,1.792,1.489,0.868
		c1.768-2.716,3.115-5.735,5.385-8.101C372.371,489.633,371.153,488.414,370.388,489.219z"/>
	<path d="M373.009,495.831c-1.387,1.84-2.756,3.672-4.143,5.512c-0.669,0.892,0.829,1.752,1.49,0.876
		c1.378-1.84,2.755-3.68,4.134-5.521C375.16,495.807,373.662,494.955,373.009,495.831z"/>
	<path d="M376.881,506.146c0.318-1.211,0.884-2.613,2.15-3.074c1.044-0.383,0.59-2.047-0.454-1.665
		c-1.888,0.693-2.868,2.422-3.361,4.286C374.937,506.768,376.594,507.222,376.881,506.146z"/>
	<path d="M387.316,507.206c1.091-0.175,0.621-1.832-0.462-1.657c-4.126,0.669-6.532,4.644-6.15,8.643
		c0.104,1.099,1.824,1.107,1.72,0C382.114,510.886,383.883,507.764,387.316,507.206z"/>
	<path d="M387.483,516.948c0.024-2.263,0.215-7.672,3.051-8.364c1.075-0.255,0.622-1.92-0.462-1.658
		c-3.831,0.924-4.278,6.875-4.309,10.022C385.755,518.063,387.475,518.063,387.483,516.948z"/>
	<path d="M397.042,508.528c-2.397,2.007-3.847,4.82-3.927,7.966c-0.032,1.107,1.697,1.107,1.72,0
		c0.072-2.716,1.37-5.026,3.426-6.747C399.121,509.03,397.894,507.819,397.042,508.528z"/>
	<path d="M401.049,509.158c-1.427,2.947-2.406,6.158-1.466,9.399c0.311,1.068,1.976,0.613,1.665-0.454
		c-0.812-2.781,0.072-5.552,1.291-8.07C403.024,509.038,401.534,508.162,401.049,509.158z"/>
	<path d="M408.863,509.158c-1.37,2.892-1.936,5.831-1.004,8.946c0.311,1.059,1.984,0.605,1.657-0.462
		c-0.788-2.66-0.343-5.138,0.837-7.607C410.831,509.03,409.342,508.154,408.863,509.158z"/>
	<path d="M417.705,512.838c-1.29-1.936-0.781-4.549-0.366-6.692c0.215-1.083-1.449-1.545-1.665-0.454
		c-0.51,2.596-1.02,5.672,0.542,8.013C416.837,514.63,418.335,513.761,417.705,512.838z"/>
	<path d="M424.293,505.636c-1.522-0.804-1.737-2.015-1.434-3.624c0.199-1.091-1.466-1.553-1.673-0.462
		c-0.43,2.35,0,4.397,2.238,5.568C424.404,507.636,425.281,506.154,424.293,505.636z"/>
	<path d="M430.299,497.703c-0.869-0.024-1.713-0.191-2.549-0.414c-0.573-0.151-1.434-0.319-1.896-0.717
		c-0.844-0.717-2.071,0.502-1.219,1.219c1.394,1.203,3.879,1.593,5.663,1.633C431.406,499.448,431.406,497.726,430.299,497.703z"/>
	<path d="M434.202,490.375c-2.19-0.478-4.413-1.442-6.054-2.995c-0.804-0.765-2.023,0.454-1.219,1.219
		c1.848,1.752,4.341,2.899,6.818,3.441C434.832,492.278,435.286,490.613,434.202,490.375z"/>
	<path d="M432.362,480.082c1.426,0.51,2.709,1.339,4.142,1.84c1.051,0.374,1.498-1.29,0.454-1.657
		c-1.418-0.51-2.701-1.339-4.134-1.84C431.773,478.051,431.327,479.716,432.362,480.082z"/>
	<path d="M439.516,470.802c1.003,0.462,1.879-1.02,0.868-1.489c-0.589-0.271-1.163-0.446-1.816-0.518
		c-0.51-0.055-1.339-0.215-1.808,0.064c-0.869,0.502-0.884,1.712-0.884,2.581c0,1.107,1.72,1.107,1.72,0
		c0-0.303-0.047-0.677,0.056-0.972C438.297,470.476,438.918,470.531,439.516,470.802z"/>
	<path d="M441.252,462.621c0.318,0.032,0.637-0.087,0.82-0.398c0.224-0.383,0.12-0.98-0.303-1.18
		c-0.629-0.303-1.449-0.502-2.007,0.056c-0.581,0.573-0.406,1.378-0.095,2.039c0.199,0.422,0.805,0.533,1.18,0.311
		C441.156,463.266,441.284,462.947,441.252,462.621z"/>
	<path d="M443.777,458.718c0.112-0.112,0.064-0.072,0.192-0.144c0.016-0.016,0.032-0.024,0.04-0.032
		c0.015-0.008,0.032-0.008,0.055-0.015c0.024-0.008,0.04-0.016,0.055-0.024c1.076-0.055,1.076-1.744-0.032-1.72
		c-0.589,0.015-1.107,0.326-1.529,0.717C441.746,458.256,442.965,459.475,443.777,458.718z"/>
	<path d="M379.501,458.941c1.083-0.246,0.621-1.911-0.462-1.665c-2.645,0.598-4.963,2.502-6.03,4.995
		c-0.439,1.012,1.051,1.888,1.481,0.869C375.407,461.012,377.231,459.451,379.501,458.941z"/>
	<path d="M376.45,469.137c0.024-1.011,0.765-1.609,1.665-1.927c1.044-0.358,0.598-2.031-0.454-1.657
		c-1.649,0.573-2.884,1.76-2.932,3.584C374.698,470.253,376.418,470.253,376.45,469.137z"/>
	<path d="M375.678,476.267c-0.207,1.083,1.449,1.545,1.665,0.454c0.486-2.533,2.374-4.421,4.915-4.906
		c1.084-0.215,0.63-1.872-0.462-1.665C378.72,470.738,376.267,473.192,375.678,476.267z"/>
	<path d="M377.804,486.375c0.59-3.266,3.433-5.536,6.039-7.296c0.908-0.622,0.047-2.111-0.876-1.489
		c-2.955,2.007-6.15,4.62-6.827,8.332C375.94,487.005,377.598,487.475,377.804,486.375z"/>
	<path d="M380.099,490.056c0.868-2.111,2.255-3.8,4.198-5.003c0.949-0.582,0.08-2.071-0.868-1.489
		c-2.358,1.458-3.943,3.489-4.986,6.038C378.011,490.629,379.676,491.067,380.099,490.056z"/>
	<path d="M389.992,489.06c0.861-0.709-0.366-1.919-1.219-1.219c-2.43,1.991-5.226,5.026-4.852,8.42c0.128,1.091,1.848,1.108,1.729,0
		C385.316,493.314,387.897,490.773,389.992,489.06z"/>
	<path d="M392.079,499.941c0.056-1.625,0.949-3.29,2.047-4.445c0.772-0.805-0.454-2.031-1.219-1.219
		c-1.418,1.489-2.485,3.576-2.549,5.663C390.319,501.056,392.047,501.048,392.079,499.941z"/>
	<path d="M397.966,496.571c-2.103,2.135-5.242,6.301-1.202,8.252c0.995,0.478,1.872-1.003,0.868-1.489
		c-2.684-1.299,0.279-4.238,1.553-5.544C399.965,497.002,398.746,495.783,397.966,496.571z"/>
	<path d="M405.534,502.697c0.015,1.115,1.736,1.115,1.72,0c-0.024-1.235-0.741-2.039-1.808-2.581
		c-0.422-0.215-0.932-0.112-1.179,0.311c-0.224,0.39-0.112,0.963,0.311,1.179c0.343,0.175,0.565,0.303,0.781,0.518
		c0.007,0.016,0.016,0.016,0.024,0.032c0.008,0.008,0.016,0.024,0.04,0.055c0.008,0.008,0.04,0.095,0.055,0.127
		c0.016,0.056,0.032,0.112,0.048,0.175C405.509,502.482,405.534,502.706,405.534,502.697z"/>
	<path d="M369.384,440.094c0.94-0.294,2.063-0.518,3.012-0.088c1.003,0.446,1.879-1.035,0.868-1.497
		c-1.394-0.63-2.9-0.534-4.341-0.088C367.863,438.755,368.317,440.42,369.384,440.094z"/>
	<path d="M456.73,383.537c1.083,0.215,1.554-1.449,0.462-1.657c-1.976-0.383-5.84-0.709-5.194,2.437
		c0.215,1.091,1.872,0.629,1.658-0.454C453.456,382.851,456.252,383.449,456.73,383.537z"/>
	<path d="M453.973,392.737c2.82,0.431,5.656,0.486,8.5,0.486c1.115,0,1.115-1.72,0-1.72c-2.693,0-5.377-0.016-8.037-0.431
		C453.344,390.905,452.882,392.57,453.973,392.737z"/>
	<path d="M459.717,401.619c-0.613,0-1.227,0-1.84,0c-1.107,0-1.107,1.72,0,1.72c0.613,0,1.227,0,1.84,0
		C460.833,403.339,460.833,401.619,459.717,401.619z"/>
	<path d="M460.179,410.349c-0.909,0-1.753,0.055-2.445,0.717c-0.812,0.764,0.414,1.984,1.211,1.219
		c0.088-0.072,0.095-0.08,0.032-0.04c0.04-0.032,0.088-0.055,0.135-0.079c0.016-0.016,0.008-0.008,0.016-0.016
		c0.064-0.016,0.135-0.032,0.199-0.048c-0.024,0.008,0.239-0.016,0.271-0.024c0.191-0.008,0.383-0.008,0.582-0.008
		C461.286,412.07,461.286,410.349,460.179,410.349z"/>
	<path d="M459.263,419.088c-0.367,0-0.725-0.04-1.083-0.112c-0.135-0.024-0.263-0.064-0.391-0.112
		c-0.024-0.159-0.08-0.31-0.215-0.445c-0.31-0.303-0.923-0.359-1.227,0c-0.542,0.661-0.35,1.394,0.343,1.848
		c0.71,0.47,1.753,0.534,2.574,0.542C460.378,420.825,460.37,419.104,459.263,419.088z"/>
	<path d="M458.339,431.961c-0.104,0-0.207,0-0.319,0c-1.107,0-1.107,1.721,0,1.721c0.112,0,0.215,0,0.319,0c0.151,0,0.311,0,0.462,0
		c1.115,0,1.115-1.721,0-1.721C458.65,431.961,458.49,431.961,458.339,431.961z"/>
	<path d="M460.641,447.478c0.152,0,0.303,0,0.462,0c1.107,0,1.107-1.729,0-1.729c-0.16,0-0.311,0-0.462,0
		C459.526,445.749,459.526,447.478,460.641,447.478z"/>
	<path d="M439.723,510.886c1.091,0.184,1.553-1.481,0.454-1.665c-1.163-0.191-2.238-0.669-3.162-1.41
		c-0.343-0.278-0.685-0.605-0.94-0.971c-0.064-0.087-0.135-0.199-0.184-0.303c0.582-0.597,0.128-1.824-0.764-1.449
		c-1.466,0.613-1.02,2.095-0.199,3.074C436.123,509.588,437.898,510.584,439.723,510.886z"/>
	<path d="M442.025,501.869c-1.123-0.406-1.792-1.545-2.159-2.613c-0.366-1.043-2.031-0.597-1.665,0.454
		c0.59,1.689,1.626,3.186,3.361,3.823C442.607,503.916,443.053,502.251,442.025,501.869z"/>
	<path d="M446.868,498.85c0.98,0.526,1.848-0.964,0.877-1.489c-2.773-1.498-4.254-4.389-5.123-7.305
		c-0.318-1.06-1.983-0.605-1.665,0.462C441.961,493.847,443.713,497.145,446.868,498.85z"/>
	<path d="M450.094,494.253c0.98,0.518,1.848-0.971,0.869-1.489c-3.418-1.816-5.521-5.003-6.5-8.682
		c-0.286-1.076-1.951-0.613-1.665,0.462C443.889,488.63,446.294,492.238,450.094,494.253z"/>
	<path d="M453.432,485.077c-2.326-2.349-4.445-4.891-6.3-7.639c-0.613-0.916-2.111-0.047-1.49,0.869
		c1.936,2.867,4.143,5.536,6.572,7.99C453.002,487.092,454.212,485.874,453.432,485.077z"/>
	<path d="M454.643,477.127c-1.984-1.21-3.744-2.82-4.668-4.995c-0.423-1.011-2.087-0.573-1.657,0.454
		c1.099,2.621,3.043,4.556,5.448,6.03C454.715,479.206,455.583,477.708,454.643,477.127z"/>
	<path d="M453.512,468.588c1.075,0.303,1.538-1.362,0.462-1.658c-1.609-0.446-3.122-1.45-4.086-2.82
		c-0.63-0.908-2.127-0.047-1.49,0.869C449.624,466.723,451.456,468.022,453.512,468.588z"/>
	<path d="M454.348,460.717c-0.414-0.39-0.916-0.685-1.498-0.565c-0.582,0.111-0.852,0.637-0.884,1.171
		c-0.039,0.47,0.414,0.861,0.853,0.861c0.183,0,0.327-0.055,0.454-0.144C454.07,462.558,455.121,461.434,454.348,460.717z
		 M453.655,461.458c0.007-0.047,0.032-0.087,0.032-0.135C453.687,461.371,453.671,461.411,453.655,461.458z"/>
</g>
</svg>
