<?xml version="1.0" encoding="utf-8"?>
<!-- Generator: Adobe Illustrator 17.0.0, SVG Export Plug-In . SVG Version: 6.00 Build 0)  -->
<!DOCTYPE svg PUBLIC "-//W3C//DTD SVG 1.1//EN" "http://www.w3.org/Graphics/SVG/1.1/DTD/svg11.dtd">
<svg version="1.1" id="Layer_1" xmlns="http://www.w3.org/2000/svg" xmlns:xlink="http://www.w3.org/1999/xlink" x="0px" y="0px"
	 width="800px" height="600px" viewBox="0 0 800 600" enable-background="new 0 0 800 600" xml:space="preserve">
<g>
	<path fill="#120E0F" d="M607.044,290.726c-4.271-9.708-9.311-19.067-14.884-28.082c-0.989-2.211-2.039-4.394-3.142-6.547
		c-0.003-0.083-0.017-0.176-0.052-0.293c-0.167-0.548-0.492-1.052-0.882-1.504c-2.621-4.966-5.485-9.79-8.414-14.506
		c-6.926-11.151-14.628-21.761-22.748-31.925c-15.107-18.91-32.305-37.889-52.585-50.335c-5.537-3.399-11.437-5.998-17.66-7.508
		c-5.829-1.414-11.81-1.408-17.749-1.39c-5.116,0.015-9.74-0.347-14.248-3.128c-4.478-2.762-9.222-7.19-14.709-6.651
		c-2.321,0.228-4.551,1.793-6.444,3.129c-0.871,0.615-1.787,1.171-2.56,1.939c-0.482-1.277-1.206-2.419-2.328-3.619
		c-2.696-2.883-4.896-2.174-7.733,0.012c-0.036,0.014-0.068,0.034-0.088,0.066c-0.02,0.016-0.034,0.036-0.044,0.06
		c-1.074,1.6-3.775,1.732-5.358,1.813c-5.688,0.296-11.224-3.037-16.818-1.069c-10.276,3.616-16.416,16.288-17.422,27.241
		c-0.898,9.778-1.904,19.541-2.606,29.337c-5.869-6.584-12.978-11.796-21.145-14.501c-13.063-4.328-27.044-1.831-40.096,1.16
		c-28.556,6.544-55.939,19.384-80.299,36.658c-21.649,15.352-41.727,34.952-55.091,59.114c-5.739,10.375-9.95,21.778-11.946,33.682
		c-1.593,9.498-1.784,20.002,1.888,28.992c3.281,8.034,10.571,15.205,18.443,17.551c4.625,1.378,9.591,1.07,14.27,0.224
		c7.719-1.395,15.254-3.643,23.027-4.824c13.944-2.119,28.01-2.299,42.064-2.033c11.392,0.216,22.835,0.666,34.176-0.8
		c4.662-0.602,9.268-1.608,13.765-3.041c-0.263,11.057,0.384,22.136,2.031,33.083c5.542,36.838,28.658,88.975,70.69,82.676
		c19.628-2.941,34.056-21.405,45.983-36.811c8.924-11.527,17.413-23.439,26.209-35.078c5.172-6.844,10.442-13.602,15.831-20.249
		c3.535-4.359,7.083-8.658,10.398-13.189c0.25,0.158,0.503,0.295,0.76,0.384c13.574,4.73,27.605,8.305,41.644,10.972
		c11.016,2.094,22.25,3.538,33.452,3.154c9.599-0.329,19.059-2.832,27.821-7.056c12.937-6.236,22.377-17.523,24.06-32.99
		C618.151,319.69,612.968,304.194,607.044,290.726z M509.242,206.374c-2.463-5.126-4.309-10.594-4.835-16.353
		c8.243,6.913,16.394,13.989,24.339,21.318c-0.027,0.109-0.041,0.235-0.025,0.397c0.714,7.66,3.734,14.989,6.871,21.872
		c-4.861-4.564-9.842-8.994-14.535-13.785c-4.115-4.202-8.141-8.501-12.134-12.837C509.317,207.103,509.533,206.978,509.242,206.374
		z M556.74,218.044c4.619,5.158,7.963,9.402,12.267,14.98c4.185,5.423,8.228,10.979,12.101,16.668
		c-5.247-2.534-10.813-3.642-16.743-3.81c-8.443-10.219-17.565-19.796-27.074-28.907c-1.281-1.228-2.568-2.451-3.86-3.668
		c8.453-0.868,16.836-0.846,25.088,1.752c4.646,6.011,9.103,12.222,13.266,18.634c-3.249-4.137-6.567-8.19-9.925-12.157
		c-0.956-1.129-1.915-2.255-2.9-3.355c-0.747-0.835-2.061-2.434-3.247-2.506C554.807,215.621,556.636,217.929,556.74,218.044z
		 M539.891,236.546c-3.131-6.786-6.337-13.993-7.261-21.589c7.125,6.709,14.069,13.633,20.739,20.85
		c3.406,3.686,6.669,7.492,9.823,11.399c0.094,0.161,0.189,0.312,0.276,0.442c-0.049,8.835,2.439,17.236,4.354,25.745
		c-6.58-8.684-12.503-17.971-19.384-26.387c-2.709-3.313-5.621-6.386-8.627-9.348C540.051,237.438,540.122,237.047,539.891,236.546z
		 M570.736,277.131c-1.888-8.685-4.54-17.229-4.609-26.217c2.167,2.784,4.29,5.612,6.374,8.485
		c5.989,8.254,11.718,16.815,16.334,26.057c2.882,5.77,5.12,11.846,6.558,18.216c0.529,2.343,0.941,4.712,1.307,7.09
		c-2.508-5.71-5.757-11.017-9.503-15.865c-4.075-5.272-9.246-9.263-13.562-14.268C572.648,279.483,571.685,278.313,570.736,277.131z
		 M596.966,300.98c-2.341-8.799-6.406-16.934-10.969-24.604c-5.538-9.311-11.711-18.086-18.346-26.435
		c5.508,0.146,10.702,1.105,15.576,3.525c0.988,1.949,1.955,3.908,2.873,5.89c6.066,13.093,10.265,28.331,11.339,43.535
		C597.287,302.253,597.135,301.615,596.966,300.98z M544.621,198.165c4.737,5.442,9.4,11.073,13.894,16.887
		c-0.345-0.157-1.165-1.824-1.908-2.057c-8.354-2.633-16.82-2.637-25.374-1.746c-8.211-7.671-16.618-15.138-25.184-22.39
		c8.757-2.068,18.904-4.521,27.842-2.403C537.571,190.254,541.144,194.172,544.621,198.165z M457.613,151.67
		c4.382,2.635,9.109,3.261,14.044,3.366c5.879,0.126,11.661-0.07,17.485,1.028c11.15,2.104,20.818,8.903,29.616,16.237
		c3.979,3.317,7.808,6.847,11.524,10.514c-9.173-1.865-19.325,0.645-28.182,2.726c-10.211-8.519-20.633-16.74-31.208-24.643
		c-1.652-1.235-1.778,0.974-0.546,1.894c9.916,7.411,19.592,15.217,29.159,23.139c0.807,0.668,1.613,1.34,2.419,2.012
		c0.42,5.687,2.128,11.16,4.451,16.265c-3.806-4.159-7.591-8.341-11.398-12.499c-6.269-6.845-12.539-14.325-19.983-19.724
		c-4.763-3.455-9.575-6.726-13.509-11.303c-1.267-1.474-1.739-2.123-2.641-3.577c-0.092-0.148-0.178-0.3-0.265-0.451
		c-0.038-0.07-0.079-0.144-0.103-0.193c-0.112-0.217-0.216-0.439-0.31-0.666c-1.178-2.841-4.427-5.32-6.703-7.103
		c-1.855-1.454-3.934-2.691-6.157-3.355C449.701,145.167,454.04,149.522,457.613,151.67z M410.443,222.738
		c2.809,5.79,7.046,10.878,13.11,12.505c1.165,0.314-1.186-2.854-2.115-3.102c-5.47-1.469-8.095-6.792-9.937-12.101
		c-0.112-0.321-0.283-0.625-0.488-0.908c0.097-0.148,0.09-0.343,0.018-0.555c0.286-2.306,0.511-4.621,0.654-6.944
		c0.299-4.866,0.256-9.724,0.368-14.583c4.912,7.052,13.251,12.212,20.394,15.062c0.914,0.365,0.032-0.913-0.151-1.149
		c-0.627-0.807-1.514-1.832-2.456-2.208c-6.59-2.63-14.507-7.06-17.336-14.416c-0.083-0.216-0.203-0.426-0.342-0.632
		c0.081-1.874,0.198-3.749,0.387-5.625c0.797-7.902,2.366-15.912,5.257-23.283c4.111,4.363,9.505,6.348,15.009,7.868
		c5.914,1.633,12.413,2.906,16.292,8.482c0.685,0.984,1.809,1.497,2.488,1.393c-0.261,1.894-0.701,3.742-1.307,5.465
		c-0.797,2.267-1.988,4.202-3.222,6.194c-2.268,3.661-4.414,7.412-6.491,11.202c-3.294,6.009-6.376,12.184-8.874,18.629
		c-2.66,6.863-5.532,13.366-9.484,19.495c-6.488,10.061-15.035,17.994-23.92,25.486c-2.459,2.073-4.788,4.289-6.999,6.628
		c7.336-12.944,13.03-27.287,16.777-41.668C409.039,230.273,409.833,226.523,410.443,222.738z M450.887,165.857
		C450.715,165.871,450.728,165.84,450.887,165.857L450.887,165.857z M451.18,165.43c-0.537,0.184-0.825,0.479-0.932,0.836
		c-2.46-2.957-5.478-5.421-8.683-7.525c-0.798-0.524-1.613-1.014-2.434-1.496c0.228-0.015,0.399-0.107,0.489-0.298
		c0.007-0.015,0.015-0.028,0.022-0.044c0.052-0.06,0.089-0.138,0.116-0.227c0.83-1.645,2.097-3.068,3.512-4.124
		c3.456-2.579,6.931-0.768,9.681,1.815c1.833,4.02,4.875,7.638,8.177,10.826C457.809,164.64,454.253,164.378,451.18,165.43z
		 M385.428,175.296c0.527-5.45,1.349-10.383,3.669-15.346c3.785-8.094,11.386-16.637,20.563-14.477
		c4.12,0.97,8.518,2.037,12.719,0.955c0.936-0.24,2.279-0.677,2.858-1.599c0.631-0.491,1.28-1.003,1.976-1.401
		c0.202,2.079,0.225,4.25,0.9,6.19c1.449,4.165,5.697,7.014,9.12,9.081c4.126,2.491,9.26,4.476,11.884,8.959
		c2.246,3.837,3.006,8.557,2.663,13.136c-0.076-0.128-0.154-0.26-0.255-0.404c-3.861-5.551-9.472-8.407-15.53-10.222
		c-5.92-1.776-12.711-2.62-17.145-7.661c-0.02-0.022-0.044-0.047-0.067-0.072c0.508-1.151,1.049-2.283,1.629-3.394
		c1.236-2.366,2.699-4.934,4.609-6.76c0.523-0.5-1.83-3.079-2.461-2.475c-2.453,2.345-4.196,5.782-5.659,8.874
		c-1.142,2.411-2.114,4.907-2.947,7.46c-4.418,3.393-9.096,5.883-14.395,7.252c-4.705,1.215-9.696,1.356-14.057,3.82
		c-0.907,0.512,1.07,2.741,1.813,2.321c4.568-2.581,9.912-2.75,14.851-4.025c3.745-0.967,7.206-2.658,10.458-4.778
		c-1.571,6.095-2.454,12.423-2.955,18.66c-0.05,0.621-0.082,1.243-0.118,1.864c-0.032,0.008-0.066,0.011-0.094,0.028
		c-0.027,0.017-0.055,0.033-0.082,0.05c-0.13-0.027-0.22,0.003-0.225,0.137c-6.734,4.102-15.967,9.967-23.823,6.723
		c-0.72-0.297-0.044,0.738,0.094,0.918c0.492,0.644,1.172,1.401,1.911,1.706c7.232,2.986,15.408-1.253,22.035-5.214
		c-0.145,5.841-0.004,11.688-0.522,17.515c-0.147,1.653-0.345,3.299-0.574,4.941c-5.106,6.595-13.686,7.426-21.108,8.834
		c-0.718,0.136,0.936,2.368,1.762,2.211c6.267-1.188,13.359-2.001,18.539-6.114c-0.768,4.129-1.748,8.214-2.877,12.237
		c-3.499,12.475-8.668,24.413-14.697,35.688c-0.189,0.353-0.384,0.704-0.574,1.057c0.195-1.565,0.293-3.151,0.257-4.765
		c-0.304-13.549-6.156-26.127-7.09-39.565c-0.832-11.963,0.39-24.197,1.42-36.103C384.369,186.121,384.904,180.709,385.428,175.296z
		 M317.024,343.345c-22.596,8.777-47.246,4.717-70.731,5.386c-15.153,0.432-29.853,2.851-44.62,6.426
		c-5.086,1.231-10.411,1.604-15.52,0.336c-1.934-0.481-3.776-1.283-5.492-2.351c-0.207-0.129-1.129-0.937-1.13-0.871
		c-0.487-0.588-0.886-1.304-1.272-1.956c-4.907-8.272-4.833-19.377-3.643-28.732c1.509-11.871,5.576-23.312,10.951-33.744
		c12.566-24.39,32.505-44.062,53.654-59.668c22.365-16.503,47.499-28.825,73.694-36.278c12.932-3.68,26.705-6.958,40.135-5.495
		c9.149,0.997,19.013,4.637,24.972,12.546c0.137,0.182,0.288,0.357,0.433,0.535c-0.06,0.889-0.122,1.779-0.177,2.668
		c-0.288,4.697-0.497,9.406-0.511,14.115c-1.019-1.29-3.313-3.586-3.607-3.278c-9.177,9.627-17.649,19.989-25.011,31.295
		c-9.07,13.928-15.91,29.193-21.104,45.236c-5.638,17.414-9.149,35.682-10.167,54.094
		C317.546,343.384,317.241,343.261,317.024,343.345z M460.241,387.366c-8.965,11.763-17.587,23.822-26.565,35.573
		c-12.054,15.776-26.241,34.358-45.904,38.399c-8.693,1.787-18.369,0.373-26.483-3.365c-7.492-3.451-13.143-9.617-17.883-16.605
		c-13.827-20.39-19.967-46.492-21.466-71.358c-0.432-7.16-0.451-14.361-0.086-21.551c0.062-0.024,0.124-0.045,0.186-0.069
		c0.067-0.026-0.01-0.19-0.162-0.422c1.386-26.07,7.837-52,18.199-75.418c9.179-20.743,22.509-38.952,37.688-54.962
		c0.004,0.832,0.013,1.664,0.032,2.496c0.123,5.629,1.082,10.995,2.334,16.452c2.48,10.804,6.33,22.434,4.468,33.69
		c-0.52,3.142-1.891,6.141-2.87,9.137c-0.828,2.533-1.585,5.092-2.289,7.666c-0.605,2.211-1.187,4.453-1.597,6.718
		c-0.201,1.106,4.008,4.99,4.474,4.214c5.125-8.543,11.241-16.654,18.64-23.007c7.689-6.603,15.275-13.107,21.627-21.272
		c4.195-5.39,7.709-11.356,10.562-17.678c2.952-6.541,5.253-13.315,8.474-19.737c3.441-6.86,7.501-13.243,11.282-19.86
		c2.682-4.694,3.775-10.164,3.312-15.555c0.091,0.04,0.181,0.079,0.268,0.097c9.373,1.892,18.3,5.828,26.052,11.846
		c7.522,5.84,13.242,13.947,17.734,22.61c10.132,19.54,13.456,42.643,11.937,64.776c-1.725,25.125-10.131,49.466-23.405,70.13
		C480.334,363.489,469.67,374.995,460.241,387.366z M601.205,353.603c-13.458,14.019-34.043,17.332-51.926,16.223
		c-19.676-1.221-39.284-6.1-58.157-12.048c-0.138-0.044-0.275-0.088-0.412-0.132c0.291-0.421,0.586-0.838,0.872-1.263
		c25.418-37.76,34.182-91.751,14.085-134.411c-10.028-21.289-28.206-38.804-49.934-44.392c-0.127-0.614-0.267-1.226-0.435-1.832
		c-0.57-2.054-1.389-3.937-2.392-5.678c0.794,0.499,1.604,0.792,2.189,0.685c0.246-0.045,0.347-0.224,0.34-0.485
		c0.773-0.256,1.597-0.345,2.396-0.426c3.202-0.325,6.47,0.22,9.611,0.863c0.279,0.227,0.559,0.453,0.833,0.672
		c1.502,1.206,3.062,2.327,4.621,3.444c0.85,0.609,1.717,1.19,2.584,1.77c0.069,0.047,0.294,0.211,0.41,0.295
		c1.344,1.026,2.153,1.808,3.117,2.721c3.503,3.319,6.813,6.878,10.112,10.428c8.575,9.23,16.945,18.679,25.616,27.808
		c4.201,4.423,8.477,8.767,12.911,12.92c4.616,4.324,9.512,8.231,13.778,12.982c7.061,7.863,13.02,16.764,19.227,25.394
		c3.008,4.183,6.071,8.32,9.387,12.226c3.27,3.851,6.972,7.085,10.468,10.67c8.533,8.752,14.523,22.289,15.916,34.942
		c0.18,1.637,5.723,7.139,6.246,4.541c1.196-5.944,1.249-12.274,1.093-18.318c-0.322-12.455-2.594-24.707-6.306-36.464
		C609.605,299.962,621.267,332.705,601.205,353.603z"/>
	<path fill="#120E0F" d="M456.605,371.467c-12.411,14.513-21.918,30.851-31.458,47.586c-6.458,11.328-13.699,22.079-25.771,26.674
		c0.03-0.012,1.429,2.404,2.126,2.138c12.088-4.6,19.289-15.35,25.772-26.674c9.574-16.72,19.04-33.065,31.458-47.586
		C459.005,373.285,456.872,371.154,456.605,371.467z"/>
	<path fill="#120E0F" d="M275.55,223.114c-6.448,0.823-12.925,3.906-18.78,6.766c-10.45,5.105-20.104,12.193-28.325,20.817
		c-3.317,3.48-6.633,7.292-9.133,11.523c-0.656,1.11,2.123,3.572,2.656,2.669c6.85-11.596,18.125-20.9,28.994-27.637
		c5.209-3.229,10.709-5.885,16.351-8.098c2.746-1.077,5.54-2.031,8.391-2.726c1.017-0.248,2.226-0.56,3.365-0.572
		c-0.161,0.286-0.358,0.555-0.54,0.804c-0.899,1.235-2.086,2.24-3.237,3.184c-3.571,2.926-7.7,5.074-11.866,6.814
		c-1.127,0.471,1.251,3.335,2.273,2.908c4.323-1.807,8.507-4.082,12.248-7.052c1.497-1.187,4.894-3.773,4.239-6.253
		C281.35,223.093,278.049,222.795,275.55,223.114z"/>
</g>
</svg>
