<?xml version="1.0" encoding="utf-8"?>
<!-- Generator: Adobe Illustrator 17.0.0, SVG Export Plug-In . SVG Version: 6.00 Build 0)  -->
<!DOCTYPE svg PUBLIC "-//W3C//DTD SVG 1.1//EN" "http://www.w3.org/Graphics/SVG/1.1/DTD/svg11.dtd">
<svg version="1.1" id="Layer_1" xmlns="http://www.w3.org/2000/svg" xmlns:xlink="http://www.w3.org/1999/xlink" x="0px" y="0px"
	 width="800px" height="600px" viewBox="0 0 800 600" enable-background="new 0 0 800 600" xml:space="preserve">
<g>
	<path fill="#040404" d="M750.86,244.915l-82.729-12.31L536.038,127.196c-0.835-0.663-2.013-0.663-2.843,0l-64.406,51.395
		L326.223,77.158c-0.792-0.565-1.851-0.565-2.643,0L84.653,247.151l-45.918,7.729h-2.085v22.702h15.587v13.585h-3.422
		c-1.259,0-2.278,1.019-2.278,2.278v22.969c0,1.259,1.019,2.278,2.278,2.278h3.244v153.307c0,1.259,1.019,2.278,2.278,2.278h177.491
		v13.74h-24.224c-1.259,0-2.278,1.019-2.278,2.278v16.023h-12.486v-28.486c0-1.259-1.019-2.278-2.278-2.278H54.249
		c-1.259,0-2.278,1.019-2.278,2.278v53.936c0,1.259,1.019,2.278,2.278,2.278h654.449c1.259,0,2.278-1.019,2.278-2.278v-53.936
		c0-1.259-1.019-2.278-2.278-2.278H360.182c-1.259,0-2.278,1.019-2.278,2.278v28.486h-4.463v-16.023
		c0-1.259-1.019-2.278-2.278-2.278h-24.344v-13.74h32.095v-1.896h349.784c1.259,0,2.278-1.019,2.278-2.278V310.544h3.235
		c1.259,0,2.278-1.019,2.278-2.278v-22.504h22.889v-18.145h13.589v-22.702H750.86z M188.285,508.379
		c-0.009,0.073-0.044,0.142-0.044,0.218v20.893H56.527v-49.38h131.758V508.379z M362.46,508.597V480.11H706.42v49.38H362.46V508.597
		z M719.904,244.915H349.325l55.151-8.207h260.28L719.904,244.915z M300.215,223.581v-12.263h22.404v12.263H300.215z
		 M322.618,228.138v11.961h-22.404v-11.961H322.618z M300.215,206.762v-12.263h22.404v12.263H300.215z M300.215,189.942v-11.958
		h22.404v11.958H300.215z M295.658,173.427h-15.156c1.193-23.456,20.651-42.171,44.394-42.171c23.743,0,43.201,18.715,44.394,42.171
		H354.14H295.658z M295.658,180.309v9.633v4.556v12.263v4.556v12.263v4.556v9.638h-26.965v-57.467H295.658z M381.104,180.309v55.282
		l-14.693,2.185H354.14v-9.638v-4.556v-12.263v-4.556v-12.263v-4.556v-9.633H381.104z M327.175,206.762v-12.263h22.408v12.263
		H327.175z M349.583,211.318v12.263h-22.408v-12.263H349.583z M327.175,189.942v-11.958h22.408v11.958H327.175z M327.175,228.138
		h22.408v11.961h-22.408V228.138z M534.616,131.893l125.641,100.259H408.979L534.616,131.893z M324.901,81.812l10.862,7.729h-21.727
		L324.901,81.812z M307.632,94.097h34.153l2.249,1.602h-38.654L307.632,94.097z M298.978,100.256h51.466l2.254,1.602h-55.972
		L298.978,100.256z M290.323,106.414h68.773l2.254,1.602h-73.278L290.323,106.414z M281.664,112.572h86.091l2.254,1.602h-90.596
		L281.664,112.572z M273.01,118.731h103.778l88.294,62.82l-64.003,51.073l-15.418,2.292v-59.162h-11.756v-0.047
		c0-27.02-21.986-49.006-49.008-49.006c-27.022,0-49.008,21.986-49.008,49.006v0.047h-11.751v66.58h31.521v2.323h24.464l-1.753,0.26
		h-2.105v3.537H90.678L273.01,118.731z M81.863,252.232c0.423,0.472,1.019,0.776,1.682,0.776h232.719v1.871H66.147L81.863,252.232z
		 M41.207,273.025v-13.589h275.057v8.181h13.589v5.408H52.238H41.207z M348.885,285.762v5.404H231.869h-30.195H79.016H56.794
		v-13.585h273.059v8.181H348.885z M71.224,469.72H58.427h-1.811V318.692h14.608V469.72z M51.094,314.135v-18.412h1.143h24.5v18.412
		H51.094z M87.683,469.72H75.781v-6.855h11.903V469.72z M87.683,458.309H75.781v-59.356h11.903V458.309z M94.189,469.72H92.24
		v-70.767h1.949V469.72z M111.213,469.72H98.745v-6.855h12.468V469.72z M111.213,458.309H98.745v-59.356h3.666v4.881v4.556v24.842
		h8.801V458.309z M111.213,428.677h-4.245v-20.286h4.245V428.677z M111.213,403.835h-4.245v-4.881h4.245V403.835z M117.718,469.72
		h-1.949v-70.767h1.949V469.72z M134.738,469.72h-12.463v-6.855h12.463V469.72z M134.738,458.309h-12.463v-25.076h12.463V458.309z
		 M134.738,428.677h-12.463v-20.286h12.463V428.677z M134.738,403.835h-12.463v-4.881h12.463V403.835z M141.244,469.72h-1.949
		v-70.767h1.949V469.72z M142.957,394.397h-35.989v-11.295h35.989V394.397z M142.957,378.546h-35.989v-20.738h35.989V378.546z
		 M142.957,353.252h-35.989v-20.284h35.989V353.252z M158.263,469.72H145.8v-6.855h12.463V469.72z M158.263,458.309H145.8v-25.076
		h12.463V458.309z M158.263,428.677h-10.75v-20.286h10.75V428.677z M158.263,403.835h-10.75v-4.881h10.75V403.835z M164.768,469.72
		h-1.949v-70.767h1.949V469.72z M181.793,469.72h-12.468v-6.855h12.468V469.72z M181.793,458.309h-12.468v-25.076h12.468V458.309z
		 M181.793,428.677h-12.468v-20.286h12.468V428.677z M181.793,403.835h-12.468v-4.881h12.468V403.835z M183.501,394.397h-35.989
		v-11.295h35.989V394.397z M183.501,378.546h-35.989v-20.738h35.989V378.546z M183.501,353.252h-35.989v-20.284h35.989V353.252z
		 M188.298,469.72h-1.949v-70.767h1.949V469.72z M204.909,469.72h-12.054v-6.855h12.054V469.72z M204.909,458.309h-12.054v-59.356
		h12.054V458.309z M204.909,394.397h-16.851v-11.295v-4.556v-20.738v-4.556v-24.84h-85.646v24.84v4.556v20.738v4.556v11.295H75.781
		v-75.706h3.235c1.259,0,2.278-1.019,2.278-2.278v-20.691h118.102v20.691c0,1.259,1.019,2.278,2.278,2.278h3.235V394.397z
		 M224.077,469.72h-14.612V318.692h14.612V469.72z M203.952,314.135v-18.412h25.639v18.412H203.952z M357.904,510.875v18.615
		H192.841v-18.615H357.904z M348.885,492.574v13.745H209.883v-13.745H348.885z M257.04,368.572h59.465v52.305
		c-1.09-1.651-2.959-2.75-5.086-2.75c-2.661,0-4.899,1.722-5.727,4.103v-0.294h-18.368v42.819h18.368v-38.551
		c0.827,2.38,3.066,4.107,5.727,4.107c2.127,0,3.996-1.099,5.086-2.759v41.497H257.04V368.572z M250.926,364.015v-27.089h71.692
		v27.089H250.926z M312.954,424.214c0,0.85-0.69,1.539-1.535,1.539c-0.843,0-1.531-0.69-1.531-1.539
		c0-0.845,0.687-1.531,1.531-1.531C312.264,422.684,312.954,423.369,312.954,424.214z M301.136,426.493v33.706h-9.255v-33.706
		H301.136z M322.263,474.277v13.74h-85.877v-13.74H322.263z M354.398,469.72H324.63c-0.031,0-0.058-0.018-0.089-0.018h-3.479
		V368.572h6.114V332.37H246.37v36.202h6.114v101.131h-18.377c-0.031,0-0.058,0.018-0.089,0.018h-5.384V318.692h3.235
		c1.259,0,2.278-1.019,2.278-2.278v-20.691h114.738v12.543c0,1.259,1.019,2.278,2.278,2.278h3.235V469.72z M373.567,467.825h-14.612
		v-157.28h14.612V467.825z M353.441,305.988v-19.333h25.639v19.333H353.441z M382.955,467.825h-1.949v-70.767h1.949V467.825z
		 M399.975,467.825h-12.463v-70.767h12.463V467.825z M406.48,467.825h-1.949v-70.767h1.949V467.825z M423.5,467.825h-12.463v-70.767
		H423.5V467.825z M430.01,467.825h-1.953v-70.767h1.953V467.825z M447.03,467.825h-12.463v-70.767h12.463V467.825z M453.535,467.825
		h-1.949v-70.767h1.949V467.825z M470.555,467.825h-12.463v-23.013h12.463V467.825z M470.555,440.255h-11.097v-43.197h11.097
		V440.255z M477.06,467.825h-1.949v-23.013h1.949V467.825z M477.06,440.255h-1.949v-43.197h1.949V440.255z M472.833,392.502h-13.376
		v-69.523h31.877v23.318v4.556v28.486v4.556v8.605h-11.996H472.833z M491.335,397.058v15.316v4.556v23.325h-9.718v-43.197H491.335z
		 M494.08,467.825h-12.463v-23.013h9.718v4.565h2.745V467.825z M500.59,467.825h-1.953v-18.448h1.953V467.825z M500.59,444.82
		h-1.953v-27.89h1.953V444.82z M500.59,412.374h-1.953v-15.316h1.953V412.374z M517.609,467.825h-12.463v-18.448h12.463V467.825z
		 M517.609,444.82h-12.463v-27.89h12.463V444.82z M517.609,412.374h-12.463v-15.316h12.463V412.374z M520.822,392.502h-0.934h-17.02
		h-6.51h-0.467v-8.605h24.931V392.502z M520.822,379.34h-24.931v-28.486h24.931V379.34z M520.822,346.297h-24.931v-27.881h24.931
		V346.297z M520.822,313.859h-29.487v4.563h-36.433v74.079h-5.593h-17.02h-6.51h-17.02h-6.505h-17.02h-6.505h-0.605v-81.957h3.235
		c1.259,0,2.278-1.019,2.278-2.278v-22.504h131.673v22.504c0,1.259,1.019,2.278,2.278,2.278h3.235V313.859z M539.987,467.825
		h-14.608v-157.28h14.608V467.825z M519.865,305.988v-19.333h25.639v19.333H519.865z M588.189,416.93v27.89h-12.463v-27.89H588.189z
		 M575.726,412.374v-15.316h12.463v15.316H575.726z M588.189,449.377v7.035h-12.463v-7.035H588.189z M588.897,379.34h-44.354
		v-28.486h44.354V379.34z M588.897,346.297h-44.354v-27.881h44.354V346.297z M547.644,467.825h-1.953v-18.448h1.953V467.825z
		 M547.644,444.82h-1.953v-27.89h1.953V444.82z M547.644,412.374h-1.953v-15.316h1.953V412.374z M564.66,412.374h-12.459v-15.316
		h12.459V412.374z M564.66,416.93v27.89h-12.459v-27.89H564.66z M564.66,449.377v7.035h-12.459v-7.035H564.66z M552.201,467.825
		v-6.857h12.459v6.857H552.201z M571.17,467.825h-1.954v-18.448h1.954V467.825z M571.17,444.82h-1.954v-27.89h1.954V444.82z
		 M571.17,412.374h-1.954v-15.316h1.954V412.374z M573.448,392.502h-6.51h-17.015h-5.38v-8.605h44.354v8.605H573.448z
		 M575.726,467.825v-6.857h12.463v6.857H575.726z M594.694,467.825h-1.949v-18.448h0.707v-4.565h1.241V467.825z M594.694,440.255
		h-1.241V416.93v-4.556v-15.316h1.241V440.255z M611.714,440.255h-12.463v-43.197h12.463V440.255z M611.714,444.812v11.6h-12.463
		v-11.6H611.714z M599.251,467.825v-6.857h12.463v6.857H599.251z M618.224,467.825h-1.954v-23.013h1.954V467.825z M618.224,440.255
		h-1.954v-43.197h1.954V440.255z M620.502,392.502h-6.51h-17.02h-3.52v-8.605v-4.556v-28.486v-4.556v-23.318h31.868v69.523H620.502z
		 M635.244,456.412h-12.463v-11.6h7.097v-47.753h5.366V456.412z M622.781,440.255v-43.197h2.541v43.197H622.781z M622.781,467.825
		v-6.857h12.463v6.857H622.781z M641.749,467.825H639.8v-70.767h1.949V467.825z M658.769,456.412h-12.463v-59.354h12.463V456.412z
		 M646.306,467.825v-6.857h12.463v6.857H646.306z M665.274,467.825h-1.949v-70.767h1.949V467.825z M682.294,456.412h-12.463v-59.354
		h12.463V456.412z M669.831,467.825v-6.857h12.463v6.857H669.831z M687.255,467.825h-0.405v-70.767h0.405V467.825z M687.255,392.502
		h-2.683h-17.02h-6.505h-17.02h-6.505h-7.644v-74.079h-36.425v-4.563h-48.91v-3.315h3.239c1.259,0,2.278-1.019,2.278-2.278v-22.504
		h131.678v22.504c0,1.259,1.019,2.278,2.278,2.278h3.239V392.502z M706.42,467.825h-14.608v-157.28h14.608V467.825z
		 M711.933,305.988h-25.639v-19.333h25.639V305.988z M734.822,281.206H334.41v-13.589h400.412V281.206z M748.411,263.061h-9.033
		H329.854h-9.033v-13.589h427.59V263.061z"/>
	<path fill="#040404" d="M522.856,190.81h23.523l11.767-20.375l-11.767-20.37h-23.523l-11.76,20.37L522.856,190.81z
		 M525.485,154.621h18.263l9.133,15.814l-9.133,15.818h-18.263l-9.131-15.818L525.485,154.621z"/>
	<path fill="#040404" d="M267.857,464.755h18.364v-42.819h-18.364V464.755z M272.414,426.493h9.251v33.706h-9.251V426.493z"/>
	<path fill="#040404" d="M305.692,371.66h-37.835v49.079h37.835V371.66z M301.136,416.183h-28.722v-39.966h28.722V416.183z"/>
</g>
</svg>
