<?xml version="1.0" encoding="utf-8"?>
<!-- Generator: Adobe Illustrator 17.0.0, SVG Export Plug-In . SVG Version: 6.00 Build 0)  -->
<!DOCTYPE svg PUBLIC "-//W3C//DTD SVG 1.1//EN" "http://www.w3.org/Graphics/SVG/1.1/DTD/svg11.dtd">
<svg version="1.1" id="Layer_1" xmlns="http://www.w3.org/2000/svg" xmlns:xlink="http://www.w3.org/1999/xlink" x="0px" y="0px"
	 width="800px" height="600px" viewBox="0 0 800 600" enable-background="new 0 0 800 600" xml:space="preserve">
<g>
	<path d="M432.293,144.039c1.938-2.155,3.673-9.953,1.939-12.724c-20.496-2.155-51.493,2.564-61.998,5.951
		c-0.157,1.743,0.655,5.697,0.815,8.108c-4.85,2.618-8.87,7.286-10.78,11.672c-2.171-0.46-5.427-0.919-7.053-1.211
		c0.567-2.727-0.383-5.741-1.801-7.372c1.992-0.517,4.828-2.271,5.409-3.245c-8.508-10.194-15.569-15.664-17.827-15.291
		c-2.258,0.373-9.726,5.302-10.333,6.321c5.335,2.214,11.69,7.299,11.894,7.299c-5.739-1.422-12.243,2.285-13.865,7.176
		c-1.621-0.406-13.172-1.913-14.6-1.392c-1.425,0.521-48.421,43.349-70.705,72.706c-8.308,10.603-22.89,29.626-34.636,46.345
		c-14.993,21.407-22.204,34.3-22.828,36.441c-0.625,2.141,25.924,12.439,29.519,12.28c3.593-0.161,11.091-4.493,21.219-9.387
		c-1.189,4.145-1.859,10.238-1.757,16.521c0.19,11.615,5.608,24.663,16.143,35.674c-12.141,4.686-21.562,22.495-23.401,38.683
		c-1.84,16.19,2.988,30.298,11.95,40.475c8.96,10.176,24.112,15.65,40.829,14.424c20.071-1.471,43.842-15.426,52.064-8.564
		c8.222,6.861-11.136,15.991-11.541,16.807c8.044,6.244,33.093,4.162,40.916-17.213c10.735,3.874,21.329,6.111,33.081,6.111
		c20.057,0,39.801-5.129,52.623-13.877c13.562-9.251,20.225-21.508,22.477-35.866c2.073-13.212,1.424-34.674-7.874-46.346
		c14.817-11.92,27.496-31.338,27.038-59.324c-0.458-27.985-12.221-55.282-18.195-67.308c-5.974-12.026-14.642-30.597-15.882-36.464
		c-1.237-5.867-29.792-17.861-32.83-18.881c3.364-7.799,5.606-22.885-16.276-31.021
		C416.183,140.858,426.888,143.115,432.293,144.039z M455.458,300.781c-1.264,10.588-7.812,19.221-14.383,24.671
		c-1.621-1.834-9.01-8.174-21.201-10.901c-12.189-2.727-29.123,0-34.511,1.728c-3.646-4.285-19.869-25.01-34.119-33.539
		c-14.253-8.533-23.934-11.362-35.546-12.96c2.305-1.005,21.489-9.021,25.54-10.854c13.816,9.901,44.732,32.884,57.699,41.651
		c11.951,7.544,22.039,11.246,25.685,11.246c6.687,0,9.566-7.167,13.214-21.847c1.822-7.544,3.038-13.662,3.443-18.962
		C444.034,275.014,456.724,290.195,455.458,300.781z M286.017,309.787c7.583-3.236,17.458,1.862,23.782,9.143
		c6.324,7.279,13.676,15.375,20.46,22.223c-3.105,1.939-12.816,6.307-23.702,6.32c-10.888,0.014-18.129-4.496-23.702-13.458
		C277.284,325.053,278.432,313.025,286.017,309.787z M418.791,376.832c4.88,0.948,7.638,10.66,4.651,18.986
		c-2.986,8.326-14.174,11.799-24.91,11.799c-10.328,0-23.095-5.502-38.288-16.309c-8.712-6.322-21.699-14.329-24.13-15.145
		c5.872-1.266,16.548-5.781,23.211-8.787C368.532,373.665,394.486,383.332,418.791,376.832z M275.905,403.684
		c-0.229-5.32,0.315-14.909,8.504-16.19c13.327-2.082,23.77,12.784,33.087,24.814c-12.765,5.097-18.38,7.794-27.803,6.176
		C280.27,416.866,276.135,409.002,275.905,403.684z"/>
	<path fill-rule="evenodd" clip-rule="evenodd" fill="#4C4C3C" d="M567.952,314.973c4.294,1.73,8.2,5.292,10.235,9.357
		c1.772,3.544,3.148,11.938,0.891,12.558c-2.257,0.621-8.272-3.717-11.064-6.376c-3.021-2.875-9.206-15.206-7.895-16.391
		C561.432,312.936,565.374,313.934,567.952,314.973z M500.903,319.956c-0.124,2.191,0.839,9.986,1.516,16.928
		c0.521,5.35,0.753,10.869-0.615,15.686c-11.57,3.315-21.281,2.018-21.419,3.521c-0.139,1.505,1.026,7.021,2.652,9.973
		c1.626,2.949,2.043,26.352,6.583,25.751c1.27-0.167,1.434-4.749,2.873-4.749c1.436,0,6.156,0,9.982-1.44
		c0.545,0.83,1.507,13.325,1.341,20.912c-5.692,3.081-14.608,5.514-20.79,6.845c-6.182,1.332-8.182-0.298-9.373,1.25
		c-1.193,1.546,5.912,10.223,8.579,10.223c2.668,0,42.679-19.824,43.704-20.342c1.023-0.518,1.847,9.602,4.103,10.015
		c2.26,0.413,6.363-12.596,3.488-19.203c-2.87-6.607-6.974-6.815-10.273-6.327c-3.297,0.485,1.657,8.805,0.671,9.444
		c-0.987,0.637-9.888,5.762-12.066,5.395c-2.176-0.366-0.901-18.218-1.341-19.562c-0.438-1.345,16.113-1.326,19.438-6.745
		c1.467-3.511-1.63-4.876-1.34-8.096c0.523-5.81,3.887-16.235,4.91-18.713c1.029-2.477-14.757-3.247-22.979-0.826
		c-1.653-4.782-0.556-9.198,0.569-13.589c1.126-4.385,2.017-11.234,1.071-12.635C511.244,322.27,501.03,317.765,500.903,319.956z
		 M523.924,356.618c-0.576,2.387-0.246,18.264-1.478,18.471c-1.228,0.206-10.9,2.322-11.695,1.651
		c-0.793-0.669-0.613-16.726-0.234-18.099C510.899,357.269,524.498,354.233,523.924,356.618z M503.144,359.992
		c0.053,4.205-0.475,15.85-0.393,17.574c0.081,1.727-10.671,3.719-11,1.314c-0.332-2.405-1.516-14.94-2.542-17.008
		C488.182,359.808,499.567,358.401,503.144,359.992z M552.746,347.173c-2.489-0.417-3.83-2.852-6.033-2.696
		c-2.201,0.152-1.029,4.546-2.009,8.092c-1.367,4.944-4.693,10.098-5.979,14.211c-1.067,3.414,0.342,8.514,3.295,7.377
		c2.956-1.138,4.615-3.452,5.863-6.242c2.081-4.654,5.751-12.649,6.203-13.996c0.228-0.68,6.729-0.306,14.528-1.752
		c7.797-1.445,20.107-3.098,22.338-3.645c2.231-0.548-4.487,10.872-2.011,13.491c1.373,1.454,5.439-1.633,9.878-5.459
		c3.574-3.081,8.162-7.279,10.23-8.706c2.069-1.427-5.557-8.07-11.501-8.114c-3.477-0.027-13.752,3.966-22.546,5.944
		C566.21,347.654,559.861,348.44,552.746,347.173z M553.417,369.436c-0.497,0.916,2.661,4.699,3.151,7.529
		c1.947,11.279-6.214,23.729-2.522,40.455c3.694,16.727,23.729,21.838,40.695,17.836c6.233-1.47,15.115-6.271,16.322-8.481
		c1.207-2.212-3.257-24.023-5.361-24.285c-4.461-0.557-4.363,21.374-18.1,23.61c-18.091,2.944-29.452-7.767-24.13-26.309
		c8.792-3.446,17.479-6.993,24.492-12.225c4.151-3.096,11.019-9.174,10.363-11.385c-0.654-2.212-7.963-6.462-10.22-6.667
		c-2.258-0.208-3.919,7.681-6.361,10.942c-4.293,5.727-15.387,12.186-17.603,12.59c-2.215,0.404,3.447-20.021,1.394-22.293
		C563.483,368.482,555.277,366.002,553.417,369.436z"/>
	<path fill="#34803C" d="M432.091,133.879c0,0,0.613,4.208-1.529,7.184c-4.998-1.128-12.293-2.263-25.695-2.052
		c-13.404,0.21-25.084,3.078-29.162,4.105c-0.444-1.096-0.818-3.079-0.875-4.421C391.916,134.393,414.857,132.341,432.091,133.879z"
		/>
	<path fill="#FFFFB6" d="M416.082,175.749c-4.487,6.363-11.877,9.339-19.373,9.339c-10.94,0-19.205-1.514-25.685-6.815
		c-4.865-3.67-6.822-9.767-6.619-13.256c0.205-3.49,0.499-6.547,4.752-11.235c5.671-6.728,14.704-9.846,25.103-10.46
		c10.401-0.615,21.044,5.803,24.472,12.931C421.792,162.614,420.567,169.387,416.082,175.749z"/>
	<path fill="#FFFFFF" d="M345.148,156.286c-0.066-1.29,0.279-3.074,0.484-3.106c0.332-0.051,1.05,1.761,1.044,3.234
		c-0.004,1.473-0.28,2.644-0.559,2.618C345.862,159.009,345.223,157.8,345.148,156.286z"/>
	<path fill="#FFFFB6" d="M345.621,148.678c-1.549-0.368-3.938,3.071-3.321,8.578c0.454,4.049,3.02,6.789,4.561,6.919
		c-4.678,3.02-12.251,1.195-14.778-2.328c-2.528-3.523-1.877-7.659-1.156-10.218c0.964-3.423,5.513-5.465,8.867-5.82
		c3.306-0.35,8.742,0.926,10.856,3.579c3.279,4.116,2.242,10.124-3.016,14.592C350.332,158.549,348.789,149.431,345.621,148.678z"/>
	<path fill="#34803C" d="M351.182,146.902c-0.555-0.607-13.99-10.199-16.417-11.015c1.675-1.333,4.205-2.494,6.635-3.92
		c5.103,1.522,13.979,11.877,14.549,12.537C355.457,145.607,352.57,146.739,351.182,146.902z"/>
	<path fill="#FFFFFF" d="M429.326,210.258c-3.322,12.108-24.607,34.949-35.251,44.855c-10.642,9.907-16.508,13.905-16.508,13.905
		c-11.549-7.339-20.365-12.682-25.429-14.924C391.001,235.504,421.628,216.374,429.326,210.258z"/>
	<path fill="#88A634" d="M426.888,375.699c4.457-1.632,21.903-8.398,31.944-16.651c6.191,7.915,8.24,23.431,7.565,33.687
		c-0.672,10.255-2.661,19.575-10.093,29.219c-9.251,12.008-34.068,24.805-60.809,24.198c-26.744-0.606-54.549-14.714-69.691-31.807
		c-9.199-10.381-15.399-17.942-19.45-21.813c-6.482-6.73-12.56-9.993-18.233-9.993c-11.344,0-14.284,5.182-15.891,12.122
		c-1.609,6.94-0.25,14.327,1.608,18.734c1.858,4.407,8.251,9.457,15.626,10.639c10.111,1.618,27.316-5.531,30.666-7.853
		c7.024,8.78,20.583,19.419,36.467,26.098c-1.406,10.897-17.723,20.38-24.386,17.142c6.663-4.163,7.354-9.714,6.435-13.414
		c-1.128-4.543-5.286-7.633-14.249-6.938c-14.437,1.12-29.238,9.705-48.49,10.175c-19.254,0.47-41.135-11.794-43.434-40.937
		c-1.936-24.544,16.777-43.939,22.629-44.523c10.234,7.986,22.644,13.997,39.191,15.849c16.544,1.85,26.595,0.449,34.7-1.386
		c14.18,7.747,22.745,13.062,29.024,17.137c10.735,7.341,17.22,11.421,19.045,12.233c6.682,3.265,14.583,4.895,23.701,4.895
		c9.926,0,26.626-5.044,29.173-21C430.796,386.105,429.189,379.401,426.888,375.699z"/>
	<path fill="#88A634" d="M388.946,319.549c5.897-2.349,17.996-4.25,30.027-2.045c12.031,2.207,17.726,9.003,18.739,10.225
		c-6.28,3.263-15.07,5.471-23.987,5.471C406.434,333.2,395.493,328.184,388.946,319.549z"/>
	<path fill="#88A634" d="M420.671,176.365c9.177,3.694,29.396,11.697,31.608,18.471c2.213,6.773,5.004,14.197,8.448,20.928
		c1.825,3.669,4.659,8.969,8.508,16.105c8.915,17.535,16.328,46.41,15.335,68.409c-1.16,25.674-11.718,38.647-24.819,50.904
		c-8.178,7.654-25.05,18.272-46.192,21.74c-21.142,3.468-42.779-4.115-51.493-9.343c-8.715-5.227-18.032-13.253-27.958-23.854
		c-10.332-11.826-16.147-17.449-22.813-25.543c-6.664-8.094-17.375-12.694-26.426-9.714c-11.951,3.932-12.45,20.942-7.125,30.991
		c5.516,10.408,14.707,16.42,28.609,16.907c10.684,0.374,19.189-1.874,27.35-7.339c7.294,7.951,14.586,14.27,21.473,19.164
		c-8.492,5.728-32.011,11.909-50.241,11.826c-18.228-0.084-36.352-7.597-46.364-15.405c-10.012-7.808-24.797-29.837-16.676-54.987
		c9.486-5.469,56.584-29.183,69.522-32.775c14.183,1.63,28.335,6.32,39.146,14.434c13.321,9.999,27.101,24.101,35.408,35.316
		c8.71,9.378,17.829,14.27,27.755,14.27c9.929,0,25.343-2.78,36.467-15.495c5.949-6.798,10.325-16.824,8.292-26.822
		c-2.033-9.995-11.966-22.265-17.003-27.818c0,0,2.78-15.808,0-16.925c-1.059,5.662-3.599,19.113-5.469,29.157
		c-1.871,10.044-5.846,27.182-11.332,28.133c-5.487,0.952-13.648-3.301-21.487-7.743c-7.839-4.443-50.734-35.563-58.546-42.002
		c1.416-0.612,3.037-1.223,4.454-1.834c12.357,6.522,26.944,15.493,43.761,26.911c14.99,9.989,25.581,16.42,27.279,17.241
		c1.698,0.821,9.081-12.186,10.217-31.227c0.691-11.597,0.179-25.101,0.184-28.832c0.005-3.73,2.457-18.81,3.221-22.962
		c0.763-4.152,2.397-10.251,2.048-14.55c-0.347-4.299-3.648-6.934-3.648-6.934c-0.105,1.301-0.957,9.202-3.322,11.013
		c-2.366,1.81-32.786,21.235-43.071,26.707c-10.283,5.472-33.511,16.609-57.94,27.322c-24.43,10.712-49.025,20.999-76.58,34.862
		c-22.284,11.419-31.297,16.544-34.035,17.332c-2.739,0.788-25.93-8.156-25.93-9.174c0-3.469,17.627-28.953,52.674-76.253
		c8.105-11.011,27.894-32.043,34.033-38.536c6.14-6.492,36.226-35.614,37.481-36.088c1.252-0.474,6.887,0.408,12.357,1.223l0,0
		c-0.204,1.02-0.568,5.839,1.418,9.175c1.987,3.337,8.432,7.068,15.67,5.114c6.908-1.866,8.56-6.574,9.655-9.396
		c1.642,0.334,4.467,0.779,6.232,1.312c-2.335,7.552,0.21,15.633,5.622,20.996c6.73,6.67,19.882,9.265,29.979,8.826
		C407.512,189.12,415.878,184.369,420.671,176.365z"/>
	<path fill="#6A902B" d="M344.104,445.708c2.863,1.676,5.786,3.202,8.739,4.656c1.98-2.462,3.384-5.222,3.753-8.083
		c-15.884-6.679-29.443-17.318-36.467-26.098c-1.356,0.94-5.004,2.671-9.516,4.293C321.059,429.819,332.017,438.636,344.104,445.708
		z"/>
	<path fill="#6A902B" d="M260.495,443.076c-10.081-2.754-19.709-11.088-25.189-21.189c6.944,19.402,24.665,27.748,40.6,27.357
		c11.969-0.292,22.217-3.72,31.728-6.542C292.684,439.989,275.783,447.251,260.495,443.076z"/>
	<path fill="#6A902B" d="M274.568,388.419c2.189-3.578,6.009-5.878,13.553-5.878c5.673,0,11.751,3.262,18.233,9.993
		c0.562,0.536,1.169,1.151,1.817,1.828c9.198,0.23,18.62-0.598,27.122-3.91c2.688-1.047,5.56-2.468,8.519-3.83
		c-4.152-2.439-9.008-5.2-14.82-8.374c-8.105,1.835-18.156,3.236-34.7,1.386c-16.547-1.852-28.957-7.864-39.191-15.849
		c-2.213,0.222-6.269,3.138-10.351,8.005C253.358,379.031,263.706,384.624,274.568,388.419z"/>
	<path fill="#6A902B" d="M386.052,445.383c3.147,0.426,6.302,0.699,9.443,0.77c26.741,0.607,51.558-12.189,60.809-24.198
		c7.433-9.644,9.421-18.965,10.093-29.219c0.06-0.91,0.09-1.871,0.105-2.854C457.608,422.505,420.216,446.029,386.052,445.383z"/>
	<path fill="#6A902B" d="M430.146,387.72c12.994-1.434,24.341-7.738,34.216-16.306c-1.242-4.788-3.047-9.192-5.53-12.365
		c-10.041,8.252-27.487,15.019-31.944,16.651C428.672,378.57,430.023,383.243,430.146,387.72z"/>
	<path fill="#6A902B" d="M412.131,328.622c-8.017-0.869-17.31-3.024-23.087-9.11c-0.032,0.012-0.068,0.024-0.098,0.036
		c6.547,8.635,17.488,13.651,24.779,13.651c8.917,0,17.707-2.207,23.987-5.471c-0.199-0.238-0.58-0.695-1.148-1.282
		C428.886,329.217,419.876,329.463,412.131,328.622z"/>
	<path fill="#6A902B" d="M333.157,170.77c1.904,2.52,4.754,5.235,8.145,5.176c4.074-0.071,6.959-2.891,9.335-5.937
		c0.34-0.436,1.136-0.185,1.242,0.329c4.495,22.333,28.16,34.632,49.554,28.994c10.188-2.685,18.748-8.765,23.221-18.54
		c0.362-0.793,0.679-1.602,0.997-2.408c-1.856-0.764-3.551-1.444-4.981-2.019c-4.793,8.004-13.16,12.755-24.268,13.238
		c-10.096,0.439-23.249-2.155-29.979-8.826c-5.412-5.363-7.957-13.444-5.622-20.996c-1.764-0.533-4.589-0.977-6.232-1.312
		c-1.095,2.822-2.747,7.53-9.655,9.396c-7.08,1.911-13.389-1.615-15.521-4.893C330.192,165.814,331.447,168.51,333.157,170.77z"/>
	<path fill="#6A902B" d="M296.11,245.718c-2.168,1.488-5.715,6.248-11.431,11.008c-5.715,4.761-20.793,17.256-23.06,19.141
		c-2.265,1.884-5.519,3.408-5.71,3.304c-0.199,1.555,0.514,3.972,2.757,4.927c2.275,0.97,4.954-0.371,6.923-1.776
		c2.802-1.999,4.903-4.6,7.294-7.039c3.45-3.518,8.507-6.243,12.977-8.045c7.466-3.009,23.455-3.173,19.807-17.156
		C304.212,244.494,299.461,243.419,296.11,245.718z"/>
	<path fill="#6A902B" d="M308.375,281.976c8.264-1.798,16.736-3.304,25.23-3.806c-7.056-2.674-14.609-4.448-22.188-5.319
		c-12.938,3.592-60.036,27.305-69.522,32.775c-1.309,4.056-2.016,8.028-2.249,11.874c7.696-7.982,17.521-14.053,27.047-19.348
		C279.745,290.897,293.772,285.154,308.375,281.976z"/>
	<path fill="#6A902B" d="M333.703,345.027c-5.035,3.372-10.208,5.513-15.938,6.574c6.185,6.268,13.6,11.54,21.151,15.298
		c1.685,0.838,3.393,1.623,5.111,2.384c4.699-1.617,8.605-3.373,11.15-5.091C348.289,359.297,340.997,352.978,333.703,345.027z"/>
	<path fill="#6A902B" d="M484.233,286.747c-0.003,0.081,0.003,0.163,0,0.243c-0.301,7.543-1.725,14.886-4.104,22.048
		c-4.005,12.048-9.085,23.827-17.064,33.78c-7.621,9.509-17.393,17.994-28.38,23.973c11.116-4.665,19.858-10.734,25.067-15.608
		c13.101-12.257,23.658-25.23,24.819-50.904C484.764,295.986,484.629,291.428,484.233,286.747z"/>
	<path fill="#6A902B" d="M218.413,308.47c-1.019-4.877-3.41-10.358-9.168-10.453c-6.212-0.103-11.989,3.061-17.897,5.326
		c1.314,1.434,23.208,9.827,25.866,9.061c0.414-0.119,0.995-0.351,1.721-0.675C218.801,310.64,218.639,309.552,218.413,308.47z"/>
	<path fill="#6A902B" d="M447.454,273.907c-0.065-6.808-1.796-13.624-4.751-19.969c0.142,5.029-1.224,12.797-1.224,12.797
		C443.106,268.526,445.24,271.02,447.454,273.907z"/>
	<path fill="#FFFFFF" d="M428.921,222.898c-1.213,8.768-1.825,14.476-1.825,16.923c0,0-0.203,8.969-0.203,26.504
		c-1.213,17.739-6.723,28.601-7.701,27.828c-0.978-0.773-14.583-7.847-34.437-20.487c17.791-1.983,33.333-23.007,35.955-30.735
		C423.332,235.202,426.007,228.268,428.921,222.898z"/>
	<path d="M403.988,182.928c3.726-0.387,8.032-9.182,6.873-20.176c-1.055-10.026-7.326-16.931-10.666-16.426
		c-3.34,0.505-7.508,8.975-6.812,18.56C394.247,176.751,400.471,183.295,403.988,182.928z"/>
	<path fill="#FFFFFF" d="M402.63,172.655c-0.551,0.031-2.616-5.276-2.822-8.391c-0.193-2.91,0.309-7.289,0.918-7.37
		c0.756-0.1,2.682,3.102,2.94,7.305C403.894,167.947,403.169,172.624,402.63,172.655z"/>
	<path d="M296.428,256.335c2.052-0.838,4.184-2.041,4.252-4.485c0.071-2.445-3.241-7.499-5.039-5.873
		c-1.797,1.626-37.79,31.807-39.733,33.194c0.19,2.033,1.593,3.132,3.446,3.059c1.852-0.074,4.009-2.807,7.294-6.116
		c4.207-4.241,8.391-9.506,13.571-12.845C286.37,259.306,294.376,257.172,296.428,256.335z"/>
	<path d="M417.69,238.59c0,0,21.901-2.242,40.464,5.23c53.859,21.682,47.074,56.92,47.074,56.92s2.057-0.345,4.455-5.174
		c1.659-3.336,2.905-8.251,5.266-8.407c5.57-0.374,13.074,10.823,13.074,10.823s1.998-25.784-36.831-47.809
		c-40.833-23.163-70.161-17.559-70.161-17.559L417.69,238.59z"/>
	<path fill="#C0002A" d="M420.557,233.985c0,0,22.283-2.76,47.478,7.417c44.513,17.979,54.504,43.987,54.504,43.987
		s-6.625-5.215-9.257-3.45c-1.026,0.688-1.712,1.897-2.571,4.139c-0.856,2.242-2.4,3.45-2.4,3.45s-3.084-18.112-17.139-29.497
		c-14.055-11.384-29.479-18.801-44.049-21.906c-14.568-3.105-27.766-1.899-27.766-1.899L420.557,233.985z"/>
	<path fill-rule="evenodd" clip-rule="evenodd" fill="#8B8B78" d="M566.466,313.478c4.294,1.73,8.201,5.292,10.235,9.357
		c1.772,3.544,3.149,11.938,0.891,12.558c-2.256,0.621-8.272-3.717-11.064-6.376c-3.021-2.875-9.206-15.206-7.894-16.391
		C559.947,311.441,563.888,312.439,566.466,313.478z M499.418,318.461c-0.122,2.191,0.841,9.987,1.516,16.928
		c0.523,5.35,0.756,10.869-0.615,15.686c-11.569,3.315-21.279,2.017-21.419,3.523c-0.139,1.504,1.026,7.021,2.652,9.971
		c1.626,2.949,2.043,26.354,6.583,25.753c1.27-0.169,1.434-4.751,2.873-4.751c1.436,0,6.156,0,9.983-1.44
		c0.544,0.83,1.505,13.325,1.34,20.913c-5.692,3.08-14.608,5.513-20.79,6.843c-6.182,1.333-8.181-0.297-9.373,1.251
		c-1.193,1.546,5.912,10.223,8.581,10.223s42.678-19.824,43.702-20.342c1.025-0.518,1.847,9.602,4.104,10.015
		c2.258,0.414,6.361-12.595,3.488-19.203c-2.872-6.607-6.976-6.813-10.273-6.327c-3.298,0.485,1.656,8.807,0.669,9.444
		c-0.985,0.637-9.889,5.762-12.064,5.397c-2.176-0.366-0.901-18.219-1.341-19.563c-0.44-1.346,16.111-1.326,19.438-6.746
		c1.469-3.509-1.63-4.876-1.34-8.096c0.521-5.81,3.886-16.235,4.91-18.713c1.028-2.476-14.758-3.247-22.98-0.826
		c-1.653-4.782-0.554-9.198,0.571-13.588c1.124-4.386,2.016-11.235,1.07-12.635C509.758,320.775,499.546,316.27,499.418,318.461z
		 M522.439,355.124c-0.574,2.387-0.246,18.264-1.477,18.472c-1.229,0.205-10.901,2.322-11.697,1.65
		c-0.793-0.669-0.613-16.726-0.232-18.099C509.415,355.775,523.014,352.739,522.439,355.124z M501.66,358.497
		c0.051,4.205-0.473,15.851-0.395,17.574c0.081,1.727-10.669,3.718-11,1.314c-0.33-2.405-1.514-14.941-2.542-17.008
		C486.698,358.315,498.081,356.906,501.66,358.497z M551.262,345.68c-2.489-0.417-3.83-2.854-6.033-2.697
		c-2.203,0.152-1.029,4.546-2.01,8.092c-1.367,4.944-4.693,10.098-5.977,14.211c-1.068,3.414,0.341,8.514,3.295,7.378
		c2.955-1.139,4.614-3.453,5.863-6.244c2.079-4.654,5.749-12.649,6.202-13.996c0.229-0.679,6.73-0.306,14.529-1.752
		c7.797-1.445,20.106-3.098,22.338-3.643c2.23-0.55-4.488,10.872-2.013,13.49c1.374,1.454,5.439-1.633,9.878-5.459
		c3.574-3.081,8.163-7.279,10.232-8.706c2.067-1.427-5.558-8.07-11.501-8.114c-3.479-0.027-13.753,3.966-22.548,5.944
		C564.726,346.159,558.375,346.945,551.262,345.68z M551.931,367.941c-0.497,0.918,2.661,4.699,3.151,7.529
		c1.95,11.279-6.214,23.729-2.522,40.455c3.694,16.727,23.731,21.838,40.698,17.836c6.232-1.471,15.112-6.271,16.319-8.481
		c1.207-2.212-3.256-24.023-5.361-24.285c-4.461-0.556-4.362,21.374-18.1,23.61c-18.089,2.944-29.45-7.766-24.13-26.309
		c8.792-3.446,17.479-6.993,24.493-12.225c4.151-3.095,11.019-9.173,10.362-11.385c-0.654-2.212-7.963-6.462-10.219-6.667
		c-2.26-0.208-3.92,7.681-6.363,10.942c-4.293,5.727-15.387,12.186-17.601,12.59c-2.215,0.404,3.446-20.021,1.394-22.293
		C561.997,366.988,553.792,364.508,551.931,367.941z"/>
	<path fill="#ACC034" d="M236.57,241.292c-2.95,4.142-5.757,8.157-8.273,11.801c2.084,0.603,4.062,1.887,5.484,3.623
		c3.514-2.934,7.366-6.214,11.294-9.615C242.862,244.331,239.749,241.865,236.57,241.292z"/>
	<path fill="#ACC034" d="M297.914,183.539c5.9-11.501,9.577-20.51,6.685-17.845c-2.366,2.182-7.485,6.901-13.75,12.911
		C293.442,179.75,295.808,181.456,297.914,183.539z"/>
	<path fill="#ACC034" d="M289.727,179.685c-4.24,4.083-8.938,8.7-13.643,13.506c4.645,1.571,8.777,4.287,12.188,7.766
		c3.138-5.243,6.248-10.87,8.95-16.075C295.021,182.61,292.506,180.797,289.727,179.685z"/>
	<path fill="#ACC034" d="M274.94,194.362c-4.321,4.442-8.612,9.011-12.512,13.435c5.361,1.227,10.345,5.054,14.232,9.946
		c0.069-0.077,0.154-0.167,0.222-0.241c3.084-3.495,6.842-9.046,10.604-15.246C284.028,198.634,279.772,195.845,274.94,194.362z"/>
	<path fill="#ACC034" d="M261.346,209.03c-0.437,0.501-0.869,1-1.294,1.497c-3.544,4.143-7.418,9.039-11.346,14.212
		c4.962,0.697,9.242,3.828,12.433,8.099c5.988-5.469,11.208-10.453,14.502-13.976C271.762,213.86,266.728,209.959,261.346,209.03z"
		/>
	<path fill="#ACC034" d="M247.619,226.185c-3.425,4.543-6.868,9.255-10.149,13.846c3.378,0.776,6.636,3.143,8.799,6.037
		c4.672-4.061,9.415-8.265,13.795-12.247C256.898,229.596,252.595,226.575,247.619,226.185z"/>
	<path fill="#ACC034" d="M231.305,255.971c-1.118-0.888-2.474-1.44-3.863-1.638c-4.362,6.335-7.778,11.437-9.461,13.978
		c-1.541,2.325,5.242-2.822,14.79-10.755C232.359,256.962,231.878,256.424,231.305,255.971z"/>
	<path fill="#ACC034" d="M363.198,301.759c-4.971-4.277-9.648-7.65-13.062-9.539c-7.265-4.023-0.128,1.927,7.898,11.454
		C359.702,302.84,361.476,302.201,363.198,301.759z"/>
	<path fill="#ACC034" d="M372.733,310.837c-2.644-2.772-5.378-5.398-8.058-7.778c-1.917,0.383-3.871,0.967-5.668,1.782
		c2.245,2.723,4.499,5.706,6.504,8.805C367.781,312.314,370.317,311.369,372.733,310.837z"/>
	<path fill="#ACC034" d="M399.305,336.165c-3.181-1.41-6.187-3.253-8.975-5.516c-3.39,1.948-6.006,4.727-7.002,8.484
		c4.327,4.559,9.195,8.234,15.048,10.479C397.326,345.389,397.785,340.599,399.305,336.165z"/>
	<path fill="#ACC034" d="M416.902,339.315c-5.75,0.326-11.204-0.574-16.235-2.573c-1.517,4.485-1.876,9.345-0.547,13.48
		c4.106,1.33,8.677,1.981,13.866,1.773c2.801-0.113,5.423-0.469,7.901-0.988C419.574,347.42,417.864,343.433,416.902,339.315z"/>
	<path fill="#ACC034" d="M442.089,332.124c-2.558,1.825-5.24,3.153-8.432,4.184c0.973,2.765,2.534,5.32,4.508,7.63
		c3.244-2.304,5.903-4.876,8.017-7.396C444.646,335.282,443.266,333.82,442.089,332.124z"/>
	<path fill="#ACC034" d="M447.126,335.375c6.328-8.126,6.866-15.194,2.498-10.279c-2.213,2.488-4.258,4.472-6.345,6.113
		C444.387,332.808,445.683,334.187,447.126,335.375z"/>
	<path fill="#ACC034" d="M432.216,336.743c-3.39,0.961-7.347,1.659-12.29,2.302c-0.514,0.066-1.02,0.102-1.529,0.151
		c0.975,4.052,2.712,7.967,5.041,11.469c5.243-1.29,9.718-3.402,13.487-5.888C434.861,342.345,433.231,339.655,432.216,336.743z"/>
	<path fill="#ACC034" d="M389.152,329.67c-2.656-2.313-5.114-4.996-7.326-8.041c-2.893,1.317-5.843,3.399-7.553,5.912
		c2.498,3.723,5.1,7.225,7.919,10.362C383.392,334.364,385.922,331.649,389.152,329.67z"/>
	<path fill="#ACC034" d="M380.795,320.26c-2.096-2.771-4.397-5.49-6.803-8.091c-2.543,0.481-5.275,1.377-7.675,2.726
		c0.048,0.081,0.104,0.16,0.154,0.24c2.331,3.814,4.626,7.588,6.994,11.184C375.289,323.766,378.05,321.595,380.795,320.26z"/>
	<path fill="#ACC034" d="M324.831,252.14c-8.035,7.469-11.466,12.75,2.536,6.208c0.797-0.372,1.871-0.882,3.158-1.497
		C329.244,254.795,327.417,253.148,324.831,252.14z"/>
	<path fill="#ACC034" d="M336.208,242.47c-3.491,2.762-7.068,5.753-10.128,8.524c2.616,1.163,4.461,2.994,5.783,5.216
		c2.787-1.339,6.378-3.079,10.429-5.058C341.131,247.396,339.244,244.227,336.208,242.47z"/>
	<path fill="#ACC034" d="M349.746,232.889c-0.035,0.017-0.072,0.036-0.107,0.054c-2.491,1.32-7.172,4.635-12.192,8.551
		c3.014,1.971,4.919,5.228,6.122,9.032c4.318-2.115,9.105-4.477,13.991-6.912C355.954,239.436,353.406,235.736,349.746,232.889z"/>
	<path fill="#ACC034" d="M363.352,228.176c-4.925,1.391-9.3,2.811-12.093,4.007c3.52,2.922,5.992,6.635,7.609,10.778
		c4.029-2.011,8.099-4.062,12.007-6.055C369.252,233.386,366.822,230.361,363.352,228.176z"/>
	<path fill="#ACC034" d="M375.8,225.009c-3.509,0.8-7.139,1.707-10.573,2.644c3.129,2.262,5.382,5.216,6.937,8.593
		c3.029-1.549,5.929-3.049,8.63-4.469C379.454,229.302,377.797,227.021,375.8,225.009z"/>
	<path fill="#ACC034" d="M377.542,224.62c1.807,1.947,3.307,4.135,4.567,6.467c4.544-2.402,8.424-4.524,11.089-6.113
		C400.346,220.711,390.078,221.864,377.542,224.62z"/>
	<path fill="#ACC034" d="M254.112,277.774c4.003-3.941,32.667-29.888,43.556-35.367c10.89-5.479-16.331-2.491-24.746,4.982
		C264.507,254.861,231.345,300.189,254.112,277.774z"/>
	<path fill="#ACC034" d="M422.024,305.401c-2.417-0.324-0.419-2.53,1.71-6.024c2.322-3.812,4.397-9.958,5.618-14.754
		c1.223-4.794,2.891,7.428,0,14.383C427.155,304.295,425.689,305.892,422.024,305.401z"/>
	<path fill="#ACC034" d="M428.426,192.372c1.761-0.237,6.865,0.115,9.497,5.988c2.444,5.455,2.518,10.018,2.289,14.855
		c-0.176,3.71,10.869-11.63,4.461-20.267C436.627,182.106,424.993,192.833,428.426,192.372z"/>
	<path fill="#6A902B" d="M431.089,241.198c0,0,10.794-0.045,23.167,4.125c12.923,4.354,20.571,9.521,23.814,11.852
		c1.324,3.664,2.45,9.592,2.45,9.592s-9.525-11.533-26.404-17.304c-15.53-5.31-22.97-4.369-22.97-4.369L431.089,241.198z"/>
	<path fill="#ACC034" d="M287.682,349.043c-1.84-1.236-3.685-2.729-5.415-4.478c-1.278,1.498-2.257,3.176-2.786,5.056
		c1.781,2.733,4.223,5.385,7.36,7.324C286.861,354.322,287.136,351.646,287.682,349.043z"/>
	<path fill="#ACC034" d="M304.117,353.891c-1.852-0.118-3.771-0.322-5.689-0.654c-0.342,2.194-0.497,4.481-0.241,6.66
		c2.607-0.09,5.135-0.598,7.413-1.297C304.977,357.087,304.486,355.508,304.117,353.891z"/>
	<path fill="#ACC034" d="M314.387,353.311c-2.124,0.535-5.242,0.779-8.728,0.66c0.348,1.425,0.803,2.816,1.359,4.151
		C313.047,355.968,316.805,352.704,314.387,353.311z"/>
	<path fill="#ACC034" d="M296.951,352.957c-0.652-0.133-1.302-0.274-1.942-0.437c-1.837-0.461-3.901-1.362-6.007-2.629
		c-0.502,2.613-0.711,5.289-0.675,7.889c1.031,0.521,2.109,0.984,3.277,1.329c1.686,0.502,3.404,0.741,5.102,0.791
		C296.449,357.604,296.594,355.216,296.951,352.957z"/>
	<path fill="#ACC034" d="M281.283,343.515c-1.175-1.287-2.299-2.665-3.297-4.172c-3.173-4.788-3.359,1.736,0.53,8.677
		C279.16,346.371,280.111,344.874,281.283,343.515z"/>
	<path fill="#ACC034" d="M369.915,409.213c0.574-0.964,1.153-1.925,1.733-2.884c-2.759-1.594-5.293-3.319-7.762-5.049
		C360.823,399.136,363.789,403.938,369.915,409.213z"/>
	<path fill="#ACC034" d="M379.005,409.896c-2.168-0.854-4.18-1.813-6.069-2.845c-0.628,1.04-1.251,2.081-1.871,3.126
		c1.953,1.594,4.18,3.19,6.59,4.623C378.099,413.165,378.548,411.529,379.005,409.896z"/>
	<path fill="#ACC034" d="M390.732,412.96c-0.224-0.033-0.431-0.048-0.658-0.083c-3.596-0.562-6.78-1.413-9.673-2.453
		c-0.479,1.71-0.951,3.423-1.412,5.139c3.621,1.995,7.623,3.551,11.766,4.151C390.783,417.462,390.774,415.211,390.732,412.96z"/>
	<path fill="#ACC034" d="M401.235,413.551c-2.784,0.107-5.754,0.001-9.013-0.405c0.038,2.251,0.044,4.499,0.017,6.751
		c0.586,0.05,1.174,0.087,1.763,0.096c2.937,0.041,5.707-0.276,8.267-0.827C401.969,417.287,401.628,415.415,401.235,413.551z"/>
	<path fill="#ACC034" d="M417.571,409.451c-2.721,1.368-5.598,2.435-8.737,3.146c0.494,1.291,1.012,2.576,1.504,3.859
		C418.795,412.519,422.418,407.01,417.571,409.451z"/>
	<path fill="#ACC034" d="M407.477,412.87c-1.516,0.286-3.086,0.5-4.736,0.619c0.368,1.772,0.694,3.548,0.978,5.334
		c1.929-0.494,3.701-1.126,5.338-1.816C408.562,415.633,408.013,414.254,407.477,412.87z"/>
	<path fill="#FF7C65" d="M472.648,244.01c4.763,2.197,15.872,7.188,24.998,14.375c10.844,8.541,13.292,11.381,15.276,14.177
		c1.983,2.795-7.936-6.19-19.441-13.976C482.201,250.952,467.968,241.852,472.648,244.01z"/>
</g>
</svg>
