<?xml version="1.0" encoding="utf-8"?>
<!-- Generator: Adobe Illustrator 17.0.0, SVG Export Plug-In . SVG Version: 6.00 Build 0)  -->
<!DOCTYPE svg PUBLIC "-//W3C//DTD SVG 1.1//EN" "http://www.w3.org/Graphics/SVG/1.1/DTD/svg11.dtd">
<svg version="1.1" id="Layer_1" xmlns="http://www.w3.org/2000/svg" xmlns:xlink="http://www.w3.org/1999/xlink" x="0px" y="0px"
	 width="800px" height="600px" viewBox="0 0 800 600" enable-background="new 0 0 800 600" xml:space="preserve">
<g>
	<path fill="#F1E1C0" d="M720.797,270.352c-1.228-7.736-2.779-15.462-5.117-22.945c-4.458-14.263-12.848-26.907-25.184-35.508
		c-13.981-9.749-30.93-12.289-47.039-16.489c-0.22-0.057-0.959-0.269-1.441-0.405c-0.612-0.192-1.224-0.39-1.833-0.591
		c-1.724-0.571-3.412-1.239-5.079-1.959c-0.489-0.211-0.969-0.445-1.447-0.679c0.536,0.242-1.088-0.643-1.409-0.843
		c-0.721-0.45-1.405-0.954-2.086-1.46c-0.209-0.172-0.365-0.297-0.474-0.384c-0.228-0.223-0.461-0.441-0.68-0.673
		c-0.931-0.953-1.728-2.033-2.508-3.112c-0.202-0.381-0.387-0.771-0.568-1.162c-1.008-2.17-1.642-4.511-2.193-6.832
		c-0.097-0.406-0.181-0.815-0.267-1.223c-0.052-0.259-0.106-0.53-0.131-0.667c-0.226-1.245-0.424-2.495-0.62-3.745
		c-0.434-2.769-0.821-5.545-1.265-8.312c-0.882-5.505-1.846-11.159-4.029-16.322c-6.005-14.206-21.828-18.239-35.861-14.576
		c-6.305,1.646-11.602,6.049-7.491,12.615c-1.527-2.438,0.454,1.058,0.761,1.732c0.629,1.379,1.118,2.818,1.562,4.265
		c0.198,0.645,0.363,1.299,0.529,1.952c0.08,0.324,0.151,0.65,0.223,0.976c0.008,0.045,0.015,0.082,0.024,0.133
		c0.287,1.648,0.455,3.316,0.582,4.984c0.246,3.224,0.156,6.468-0.116,9.687c-0.149,1.769-0.404,3.527-0.701,5.277
		c-0.008,0.047-0.015,0.088-0.022,0.13c-0.03,0.127-0.072,0.31-0.13,0.574c-0.217,0.989-0.478,1.968-0.744,2.945
		c-0.851,3.12-2.015,6.148-3.405,9.066c-0.313,0.656-0.656,1.298-0.999,1.939c-0.181,0.332-0.37,0.66-0.559,0.988
		c-0.007,0.01-0.011,0.017-0.018,0.028c-0.885,1.367-1.889,2.651-2.945,3.889c-0.385,0.452-2.225,2.188-2.232,2.264
		c-0.827,0.645-1.698,1.229-2.592,1.778c-0.073,0.038-0.144,0.073-0.204,0.101c-0.431,0.199-0.872,0.374-1.317,0.537
		c-0.281,0.081-0.592,0.167-0.812,0.213c-0.962,0.202-4.277,0.379-0.145,0.114c-1.055,0.068-2.415,0.25-3.848,0.582
		c-8.262-5.353-18.748-2.675-25.644,3.495c-3.582,3.205-4.984,7.503-6.007,12.081c-0.569,2.547-1.005,5.102-1.322,7.666
		c-2.043-1.634-4.218-3.128-6.539-4.458c7.504-8.224,12.728-17.761,15.977-28.721c3.892-13.127,5.319-27.995,2.393-41.451
		c-2.631-12.096-8.612-23.065-16.766-32.308c-18.052-20.464-44.432-32.717-70.723-38.506c-21.445-4.722-44.048-5.538-65.527-0.592
		c-11.153,2.568-22.478,6.994-32.76,11.981c-10.408,5.047-19.278,12.068-25.644,21.599c-1.264,0.601-2.376,1.409-3.222,2.483
		c-3.915,4.971-5.941,10.651-6.327,16.779c-0.131,0.423-0.251,0.851-0.357,1.287c-0.116,0.476,0.018,0.936,0.292,1.366
		c0.003,0.269,0.003,0.538,0.013,0.808c0.26,7.427,2.129,14.652,1.776,22.123c-0.013,0.277-0.035,0.55-0.058,0.824
		c-0.561-0.095-1.112-0.171-1.631-0.233c-4.874-0.577-12.115-0.394-15.524,3.795c-5.057,6.213-5.993,15.003-2.913,21.85
		c-0.998,0.884-1.812,1.942-2.37,3.196c-3.065,6.888-1.832,15.33-0.655,22.49c0.703,4.277,1.652,8.52,2.766,12.723
		c-18.018-9.709-38.948-16.259-59.352-15.757c1.336-8.556,0.745-17.549-0.934-25.68c-1.846-8.94-3.272-18.709-11.55-23.99
		c-7.908-5.045-19.277-2.4-26.292,2.78c-5.448,4.022-8.269,8.903-6.995,15.591c1.311,6.883,4.218,13.415,6.414,20.037
		c0.97,2.924,1.759,5.851,2.195,8.905c0.434,3.034,0.281,5.677-0.496,7.86c-0.745,2.094-1.814,4.056-3.085,5.874
		c-0.072,0.104-0.292,0.38-0.46,0.592c-0.247,0.276-0.494,0.552-0.749,0.819c-0.835,0.875-1.756,1.663-2.698,2.417
		c-0.403,0.323-0.822,0.624-1.24,0.926c-0.008,0.005-0.012,0.007-0.02,0.012c-0.913,0.581-1.861,1.107-2.814,1.619
		c-2.172,1.169-4.436,2.165-6.705,3.127c-10.75,4.554-21.296,8.566-30.901,15.383c-13.121,9.312-21.706,23.346-27.256,38.192
		c-9.155,24.484-10.192,51.624,1.914,75.292c1.37,2.677,5.531,3.965,9.882,4.097c0.342,0.724,0.695,1.444,1.064,2.159
		c5.947,11.542,15.304,20.586,26.08,27.604c4.375,2.85,9.07,5.154,13.893,7.146c1.218,0.751,2.632,1.294,4.143,1.63
		c0.698,0.261,1.397,0.521,2.097,0.772c1.729,0.62,3.479,1.179,5.242,1.693c2.447,2.367,7.346,3.246,11.72,2.827
		c0.347,0.071,0.693,0.146,1.04,0.216c2.993,0.605,2.627,0.379,5.642,1.233c2.811,0.796,5.553,1.739,8.273,2.722
		c1.918,1.345,4.045,2.435,6.428,3.182c1.048,0.329,2.658,0.6,4.474,0.709c2.609,0.852,5.257,1.615,7.986,2.191
		c10.764,2.271,22.451,0.805,32.892-2.303c5.045-1.502,9.908-3.505,14.818-5.383c3.741,0.352,7.54-0.185,11.056-1.895
		c1.504-0.731,2.65-1.698,3.519-2.831c5.453-1.654,10.846-3.723,15.495-6.999c3.651-2.573,6.085-6.347,8.1-10.259
		c0.649-0.286,1.276-0.611,1.873-0.985c-2.038,6.034-3.048,12.444-3.282,18.749c-0.198,5.336,9.885,6.275,13.26,6.275
		c0.544,0,1.212-0.02,1.952-0.07c-3.001,10.41-5.686,21.067-4.401,31.928c1.797,15.178,8.749,30.155,20.896,39.493
		c1.356,2.528,3.037,4.898,5.151,7.122c6.571,6.914,18.339,8.958,27.684,8.378c5.854,2.555,11.526,5.416,17.106,8.611
		c7.064,4.044,14.756,9.466,22.84,13.359c10.046,4.837,21.118,7.056,32.241,6.77c5.632-0.145,11.246-0.755,16.806-1.638
		c2.466-0.392,4.921-0.86,7.374-1.331c1.241-0.238,2.48-0.487,3.719-0.734c1.471-0.294,2.942-0.587,4.412-0.881
		c-1.089,0.217-0.896,0.18,0.58-0.113c5.039-0.997,10.092-1.9,15.188-2.553c0.862-0.11,1.727-0.201,2.593-0.287
		c-0.506,0.058,3.329-0.279,4.411-0.354c2.14-0.149,4.273-0.379,6.4-0.653c16.224-2.084,32.443-7.933,43.893-20.024
		c6.415-6.774,11.381-14.624,14.419-23.454c3.494-10.156,4.891-20.87,9.167-30.775c2.705-6.266,6.826-11.789,9.549-18.033
		c3.291-7.547,3.474-15.884,3.478-23.976c0.004-7.593-1.122-15.155-3.201-22.457c1.298,0.363,2.599,0.58,3.757,0.676
		c2.039,1.902,4.268,3.598,6.728,5.026c26.012,15.1,52.584-4.992,74.582-18.046c11.803-7.004,23.656-14.834,32.305-25.674
		c9.481-11.884,13.298-26.613,13.043-41.646C723.4,286.579,722.071,278.382,720.797,270.352z M207.522,161.746
		C207.195,161.556,207.295,161.599,207.522,161.746L207.522,161.746z M218.087,162.408
		C218.624,162.189,219.061,162.071,218.087,162.408L218.087,162.408z M418.833,316.365c0.043,0.012,0.086,0.024,0.125,0.035
		c0.076,0.032,0.149,0.071,0.225,0.103C419.066,316.458,418.951,316.409,418.833,316.365z M426.884,284.535
		c-0.122,0.674-0.23,1.351-0.345,2.027c-0.929,0.394-1.864,0.774-2.807,1.14c-0.193,0.055-1.667,0.583-1.843,0.642
		c-0.928,0.311-1.864,0.599-2.8,0.888c-2.18,0.673-4.383,1.27-6.59,1.851c-7.808,2.055-15.728,3.659-23.515,5.799
		c-8.16,2.242-16.302,5.129-23.634,9.4c-0.902,0.526-1.779,1.07-2.639,1.628c-1.666,0.602-3.324,1.22-4.974,1.854
		c0.445-8.911-1.517-17.817-4.036-26.329c-0.06-0.204-0.13-0.405-0.191-0.608c4.052-0.385,10.758-1.665,10.077-5.289
		c-0.202-1.073-0.447-2.141-0.709-3.208c1.143,0.101,2.309,0.144,3.483,0.13c6.665,0.599,13.312,1.423,19.954,2.092
		c1.34,4.372,8.871,4.89,12.486,4.89c2.632,0,10.394-0.474,12.227-3.843c4.583-0.206,9.174-0.706,13.775-1.63
		c1.333-0.268,2.642-0.594,3.933-0.961C427.965,278.26,427.426,281.549,426.884,284.535z M456.925,504.504
		c-0.837,0.217-2.074,0.373,0.035-0.016C456.948,504.494,456.937,504.499,456.925,504.504z M459.321,265.981
		C459.758,265.651,460.173,265.469,459.321,265.981L459.321,265.981z M470.206,505.523
		C470.374,505.612,470.341,505.598,470.206,505.523L470.206,505.523z M539.643,211.697c0.031,0.038,0.063,0.074,0.093,0.112
		C539.32,211.579,539.388,211.568,539.643,211.697z M563.411,197.621C565.124,196.602,564.137,197.232,563.411,197.621
		L563.411,197.621z"/>
	<g>
		<path fill="#E4C5B5" d="M230.424,343.252c0.819-8.122,3.013-15.413,5.351-22.959c3.108-10.03,6.592-19.942,9.818-29.934
			c1.749-5.417-5.034-7.57-9.211-8.147c-3.359-0.464-6.9-0.292-10.162,0.668c-1.798,0.529-5.378,1.842-6.061,3.958
			c-5.853,18.128-13.238,36.302-15.969,55.258c-3.217,22.33,9.343,42.161,22.997,58.525c3.863,4.63,10.509,5.415,16.223,4.626
			c2.35-0.325,13.05-3.546,9.211-8.147C239.677,381.587,228.297,364.322,230.424,343.252z"/>
		<path fill="#E4C5B5" d="M323.17,146.267c-2.401-1.604-5.379-2.278-8.235-2.278c-0.154,0-0.308,0-0.462,0
			c-2.856,0-5.834,0.674-8.235,2.278c-1.85,1.235-3.411,3.162-3.411,5.499c0,2.337,1.561,4.264,3.411,5.499
			c2.401,1.604,5.379,2.278,8.235,2.278c0.154,0,0.308,0,0.462,0c2.856,0,5.834-0.674,8.235-2.278
			c1.85-1.235,3.411-3.162,3.411-5.499C326.581,149.429,325.021,147.502,323.17,146.267z"/>
		<path fill="#E4C5B5" d="M375.984,260.372c3.01-0.482,11.132-3.703,8.146-8.347c-10.039-15.611-14.898-32.947-13.986-51.49
			c0.661-13.442,4.462-26.299,9.83-38.593c4.073-9.329-18.956-11.706-22.492-3.608c-5.695,13.045-9.598,26.954-10.602,41.188
			c-1.394,19.752,4.088,39.518,14.758,56.111C364.604,260.245,370.922,261.182,375.984,260.372z"/>
		<path fill="#E4C5B5" d="M411.903,158.817c4.818,1.071,9.691,1.874,14.493,3.012c2.101,0.498,3.776,1.036,4.846,1.444
			c2.234,0.853,4.336,1.927,6.366,3.179c8.286,5.107,15.603,11.672,21.259,19.6c3.029,4.245,10.635,4.337,15.189,3.786
			c2.176-0.263,11.665-2.408,8.624-6.668c-6.56-9.194-15.114-16.868-24.709-22.782c-10.477-6.458-21.82-8.313-33.604-10.933
			c-5.22-1.161-12.345-1.465-16.894,1.945C403.025,154.734,408.682,158.101,411.903,158.817z"/>
		<path fill="#E4C5B5" d="M412.755,111.532c4.291,3.189,11.758,3.545,16.001,0c1.033-0.863,2.092-1.68,3.186-2.463
			c0.664-0.475,1.353-0.913,2.041-1.351c0.114-0.073,0.201-0.129,0.285-0.184c0.086-0.046,0.171-0.091,0.284-0.153
			c2.486-1.352,5.113-2.426,7.785-3.354c-0.442,0.189,2.601-0.708,3.129-0.834c1.728-0.414,3.482-0.716,5.239-0.982
			c0.261-0.04,1.219-0.147,1.641-0.2c0.55-0.038,1.101-0.071,1.652-0.101c1.835-0.1,3.674-0.087,5.51-0.038
			c0.537,0.015,3.57,0.269,3.482,0.228c1.556,0.199,3.103,0.465,4.642,0.762c1.864,0.359,3.703,0.834,5.529,1.347
			c0.069,0.019,0.129,0.036,0.189,0.053c0.155,0.057,0.394,0.142,0.749,0.265c0.909,0.312,1.804,0.664,2.698,1.016
			c1.501,0.591,2.965,1.268,4.417,1.968c0.763,0.368,1.511,0.766,2.257,1.168c-1.039-0.549,1.329,0.798,1.424,0.858
			c1.685,1.048,3.293,2.214,4.87,3.417c0.798,0.609,1.566,1.257,2.334,1.904c-0.103-0.087,2.35,2.125,1.225,1.042
			c4.167,4.012,10,5.402,15.481,3.016c3.967-1.727,8.174-7.542,4.059-11.504c-14.207-13.679-31.891-20.942-51.507-22.268
			c-16.861-1.14-35.485,3.538-48.603,14.497C408.735,102.999,408.318,108.234,412.755,111.532z"/>
		<path fill="#E4C5B5" d="M500.408,163.991c-3.475,0.94-7.523,3.609-4.012,7.066c9.797,9.647,13.075,26.269,12.056,39.479
			c-1.116,14.46-9.121,26.2-20.828,34.264c-4.32,2.976,1.283,6.328,4.012,7.067c4.885,1.322,11.024,1.092,15.3-1.853
			c13.572-9.349,22.272-22.927,23.882-39.478c1.515-15.575-3.869-33.625-15.109-44.693
			C512.255,162.444,504.611,162.854,500.408,163.991z"/>
		<path fill="#E4C5B5" d="M675.991,324.478c-2.492-23.103-17.467-41.488-30.77-59.538c-3.456-4.689-5.589-7.641-8.776-12.514
			c-3.134-4.791-5.997-9.757-8.461-14.926c-0.323-0.678-0.635-1.354-0.935-2.029c2.107,2.668,4.264,5.283,6.46,7.837
			c3.803,4.424,12.259,4.385,17.239,2.665c4.58-1.582,8.318-5.745,4.52-10.163c-15-17.448-27.64-37.785-33.823-60.099
			c-1.497-5.4-11.37-5.858-15.499-5.188c-0.739,0.12-1.499,0.29-2.25,0.511c-1.79-4.081-8.739-5.279-12.409-5.279
			c-4.122,0-12.9,1.588-12.84,7.313c0.105,9.976,2.698,19.63,4.082,29.458c0.539,3.825,0.752,7.522,0.485,11.107
			c-3.213,0.336-6.267,1.565-7.783,4.099c-9.063,15.148-17.866,30.663-24.444,47.079c-3.04,7.585-4.89,15.146-4.865,23.357
			c0.026,8.472,1.429,17.16,3.696,25.31c1.539,5.533,9.751,6.849,14.394,5.924c5.068-1.01,9.72-4.872,8.173-10.433
			c-1.879-6.755-2.728-13.299-2.86-20.801c-0.03-1.694,0.039-3.386,0.146-5.076c0.06-0.952,0.176-1.898,0.295-2.844
			c0.024-0.186,0.042-0.341,0.057-0.471c0.041-0.136,0.101-0.366,0.189-0.735c0.79-3.315,2.099-6.557,3.342-9.722
			c4.059-10.343,9.287-20.64,14.735-30.369c5.084,0.445,10.784-0.716,13.903-4.913c4.725,12.606,12.366,24.238,20.419,35.326
			c6.78,9.334,12.776,16.879,18.539,26.288c2.838,4.635,5.346,9.468,7.373,14.512c2.122,5.282,3.073,9.106,3.635,14.315
			c0.591,5.482,7.442,7.165,12.016,7.165C667.589,331.643,676.576,329.9,675.991,324.478z"/>
		<path fill="#E4C5B5" d="M524.985,238.564c-1.219,0.497-2.204,1.28-2.954,2.35c-0.378,0.755-0.739,1.555-1.29,2.204
			c-0.032,0.035-0.064,0.07-0.095,0.105c-0.547,0.944-0.547,1.887,0,2.831c1.057,1.782,3.411,2.675,5.279,3.182
			c2.855,0.775,5.924,0.91,8.852,0.537c0.915-0.179,1.829-0.358,2.744-0.537c1.501-0.367,2.875-1.003,4.121-1.91
			c0.679-0.717,1.318-1.35,1.81-2.182c0.268-0.452,0.498-0.928,0.733-1.398c0.137-0.472,0.274-0.944,0.41-1.415
			c-0.102-1.131-0.625-2.027-1.568-2.687c-1.905-1.508-4.513-2.147-6.865-2.447c-2.927-0.373-5.996-0.238-8.852,0.537
			C526.535,238.009,525.76,238.287,524.985,238.564z"/>
		<path fill="#E4C5B5" d="M524.654,350.563c-7.786-5.913-15.866-11.632-25.532-13.824c-4.762-1.08-13.366,0.056-15.807,5.063
			c-2.218,4.548,2.876,7.107,6.781,8.326c0.089,0.045,0.196,0.098,0.327,0.163c-1.653-0.384-0.551-0.146,0.246,0.121
			c1.444,0.702,2.832,1.52,4.207,2.347c1.69,1.017,3.329,2.116,4.955,3.231c0.203,0.139,1.88,1.347,2.116,1.508
			c0.983,0.733,1.955,1.48,2.922,2.234c8.129,6.341,15.773,13.485,22.221,21.546c0.133,0.166,0.233,0.29,0.319,0.396
			c0.088,0.131,0.236,0.345,0.493,0.705c0.726,1.019,1.405,2.071,2.08,3.125c1.263,1.974,2.41,4.02,3.52,6.083
			c2.596,4.827,4.751,9.885,6.641,15.025c3.653,9.936,5.871,20.381,5.955,30.989c0.045,5.708,8.68,7.248,12.85,7.248
			c4.095,0,12.895-1.546,12.849-7.248c-0.18-22.7-8.998-46.742-23.152-64.436C541.79,364.595,533.371,357.183,524.654,350.563z
			 M490.828,350.384c-0.068-0.032-0.142-0.067-0.221-0.102c0.614,0.179,1.188,0.324,1.682,0.436
			C491.684,350.581,491.211,350.473,490.828,350.384z"/>
		<path fill="#E4C5B5" d="M376.467,475.37c-13.154-12.047-17.788-30.673-17.792-48.145c-0.001-5.467-8.94-6.713-12.756-6.713
			c-3.814,0-12.757,1.246-12.756,6.713c0.005,19.985,6.204,41.118,21.275,54.921c4.334,3.969,12.183,4.033,17.453,2.408
			C375.83,483.34,380.824,479.361,376.467,475.37z"/>
		<path fill="#E4C5B5" d="M495.897,392.241c-4.198,0.656-9.217,2.973-7.921,7.922c9.439,36.033,4.723,76.524-9.682,110.639
			c-3.79,8.977,18.607,11.157,21.872,3.424c15.465-36.628,19.784-78.92,9.682-117.487
			C508.598,391.97,499.432,391.689,495.897,392.241z"/>
		<path fill="#E4C5B5" d="M460.789,307.499c-3.058,0-6.276,0.463-9.062,1.794c-0.964,0.46-2.881,1.606-3.555,2.977
			c-1.319-1.465-3.274-2.626-5.014-3.196c-5.68-1.86-13.412-1.503-18.063,2.648c-0.497,0.444-1.007,0.871-1.527,1.288
			c-0.288,0.191-0.574,0.386-0.866,0.571c-1.095,0.693-2.241,1.302-3.402,1.877c-0.132,0.065-0.322,0.153-0.527,0.244
			c-0.586,0.23-1.176,0.45-1.769,0.662c-1.509,0.54-3.052,0.983-4.6,1.395c-0.349,0.074-0.698,0.15-1.048,0.219
			c-1.178,0.24-2.366,0.433-3.553,0.621c-1.291,0.204-2.59,0.36-3.888,0.511c-0.391,0.045-2.431,0.207-2.941,0.256
			c-2.894,0.161-5.795,0.203-8.692,0.192c-4.207-0.015-13.202,1.556-13.202,7.382c0,5.847,8.994,7.367,13.202,7.382
			c18.808,0.068,40.891-2.01,55.612-15.149c0.408-0.364,0.735-0.731,0.997-1.099c1.816,9.89,2.107,19.978-0.27,29.841
			c-1.896,7.866-6.887,16.254-12.34,22.923c-0.449,0.549-0.913,1.085-1.376,1.621c0.056-0.086-1.38,1.51-1.618,1.764
			c-1.436,1.533-2.925,3.017-4.428,4.484c-2.713,2.647-5.515,5.202-8.28,7.794c-5.085,4.766-10.483,9.824-13.789,16.041
			c-4.274,8.037,20.791,10.637,24.716,3.256c0.645-1.213,1.372-2.368,2.164-3.491c0.461-0.654,0.957-1.283,1.457-1.908
			c0.207-0.255,0.416-0.509,0.628-0.76c0.048-0.057,0.081-0.098,0.117-0.141c2.412-2.675,5.05-5.145,7.679-7.603
			c6.247-5.841,12.434-11.673,17.861-18.309c14.034-17.16,17.062-38.707,12.192-59.964
			C472.41,308.407,465.24,307.499,460.789,307.499z M417.907,316.077C417.623,316.199,417.531,316.236,417.907,316.077
			L417.907,316.077z"/>
		<path fill="#E4C5B5" d="M224.886,264.839c3.201-8.818,3.043-17.91,1.008-26.934c-0.938-4.16-2.505-8.167-3.51-12.32
			c-1.077-4.449-1.668-8.997-2.085-13.55c-0.873-9.548-0.762-19.23-0.765-28.808c-0.001-4.671-3.962-7.471-8.717-8.413
			c0.351-0.734,0.553-1.553,0.553-2.468c0-5.382-6.875-7.538-11.178-7.538c-4.303,0-11.178,2.156-11.178,7.538
			c0,3.759,3.353,5.942,6.842,6.918c-0.728,1.125-1.154,2.443-1.153,3.962c0.003,8.61,0.051,17.228,0.673,25.776
			c-3.169,2.018-5.062,5.294-4.094,9.575c0.573,2.535,1.024,7.144,0.929,10.792c-0.042,1.603-0.223,3.197-0.462,4.781
			c0.083-0.661-0.309,1.33-0.363,1.545c-0.274,1.087-0.63,2.152-0.996,3.211c-0.534,1.543-1.211,3.031-1.929,4.495
			c-0.203,0.413-0.424,0.817-0.647,1.219c0.143-0.29-0.658,1.05-0.836,1.318c-1.837,2.771-4.037,5.291-6.366,7.656
			c-0.234,0.238-0.479,0.464-0.719,0.696c-0.26,0.235-0.81,0.74-1.026,0.928c-1.082,0.94-2.204,1.835-3.334,2.718
			c-2.274,1.776-4.648,3.421-7.043,5.03c-4.419,2.968-8.756,5.921-12.785,9.421c-12.045,10.463-21.672,23.651-25.985,39.171
			c-2.373,8.54-3.474,17.416-1.756,26.142c1.477,7.5,5.305,14.176,9.347,20.57c4.594,7.268,10.123,13.945,15.703,20.466
			c4.245,4.961,12.206,5.786,17.988,3.368c5.015-2.098,8.908-7.945,4.716-12.843c-3.273-3.825-6.475-7.707-9.535-11.705
			c-1.342-1.753-2.633-3.544-3.897-5.354c-0.59-0.845-1.16-1.706-1.728-2.567c-0.149-0.226-1.386-2.229-1.486-2.354
			c-1.621-2.816-3.027-5.752-4.159-8.798c-0.529-1.422-0.94-2.882-1.298-4.355c-0.005-0.021-0.009-0.038-0.015-0.059
			c-0.011-0.079-0.023-0.165-0.039-0.269c-0.137-0.918-0.199-1.845-0.247-2.771c-0.434-8.362,1.414-15.072,4.669-22.914
			c0.726-1.749,1.566-3.45,2.44-5.13c0.068-0.13,0.857-1.532,0.887-1.621c0.339-0.548,0.684-1.092,1.033-1.633
			c2.018-3.129,4.338-6.057,6.801-8.844c1.065-1.205,2.184-2.36,3.319-3.498c0.298-0.3,0.607-0.589,0.912-0.881
			c0.284-0.262,0.737-0.682,0.921-0.845c2.201-1.945,4.523-3.752,6.907-5.468c4.261-3.068,8.751-5.778,12.921-8.983
			c0.692-0.532,1.37-1.074,2.041-1.622c-1.869,2.61-4.097,5.058-6.696,7.608c-4.393,4.31,0.129,10.103,4.454,11.874
			c5.778,2.366,12.544,1.246,16.988-3.114C216.973,280.011,221.976,272.853,224.886,264.839z"/>
	</g>
	<g>
		<path fill="#FFFFFF" d="M455.996,243.59c-4.127,0-9.023,1.811-11.5,5.262c-2.729,0.181-5.4,1.008-7.431,2.402
			c-1.893,1.299-3.443,3.304-3.443,5.703c0,2.489,1.575,4.265,3.424,5.688c5.239,11.786,8.46,24.243,10.129,37.03
			c0.685,5.246,15.931,4.612,15.329,0c-1.275-9.764-3.445-19.414-6.656-28.713c1.724-0.641,3.336-1.614,4.526-3.008
			c1.341-1.571,1.685-3.179,1.427-4.995c3.959-1.529,7.305-4.619,7.305-9.13C469.106,247.157,461.791,243.59,455.996,243.59z"/>
		<path fill="#FFFFFF" d="M625.839,188.536c-1.071-7.491-3.435-14.592-5.78-21.766c-0.403-1.231-1.164-2.229-2.157-3.03
			c-0.715-2.143-1.418-4.292-2.099-6.449c-1.358-4.298-2.666-8.641-4.65-12.7c-0.847-1.733-2.652-2.973-4.918-3.764
			c-4.064-2.229-10.254-2.761-13.269-2.761c-4.708,0-17.166,1.29-17.166,8.328c0,5.717,8.22,7.642,13.83,8.163
			c0.731,2.098,1.388,4.225,2.057,6.341c0.908,2.873,1.847,5.734,2.818,8.583c0.044,0.502,0.151,1.027,0.33,1.574
			c1.369,4.189,2.771,8.376,3.943,12.627c0.128,0.463,0.241,0.929,0.355,1.395c0.022,0.103,0.041,0.197,0.055,0.273
			c0.196,1.057,0.34,2.123,0.492,3.187c0.863,6.04,7.773,8.057,13.08,8.057C616.669,196.593,626.691,194.499,625.839,188.536z
			 M599.04,184.656C598.816,183.712,598.919,184.122,599.04,184.656L599.04,184.656z"/>
		<path fill="#FFFFFF" d="M409.622,106.909c-5.214-2.208-11.128-2.513-16.679-1.744c-4.519,0.626-8.682,2.432-12.338,5.038
			c-1.505-0.291-2.946-0.392-4.027-0.341c-9.454,0.453-19.209,4.664-22.342,14.34c-2.989,9.228,3.107,17.646,12.075,20.14
			c15.745,4.378,33.078-3.827,44.729-14.176c4.352-3.866,9.377-9.609,7.435-15.84C417.262,110.435,413.066,108.367,409.622,106.909z
			"/>
		<path fill="#FFFFFF" d="M280.309,232.274c-10.233-4.806-20.354-8.84-28.218-16.867c-4.725-4.823-6.05-10.925-7.729-17.73
			c-2.015-8.165-4.168-16.614-8.141-24.078c-5.588-10.498-18.292-13.345-28.995-8.739c-2.166,0.932-3.788,2.543-2.856,4.94
			c1.671,4.3,4.023,8.3,6.399,12.281c-2.431,1.037-4.462,2.661-2.91,4.891c5.443,7.82,8.398,17.009,9.715,26.382
			c0.493,3.511,5.294,4.536,8.154,4.896c1.434,0.18,3.471,0.292,5.556,0.133c8.391,9.778,21.422,15.484,33.318,21.071
			c4.597,2.159,11.105,2.104,15.707,0C284.362,237.601,284.288,234.143,280.309,232.274z"/>
	</g>
	<g>
		<path fill="#5F470A" d="M163.919,374.343c-13.95-12.311-21.229-28.595-22.357-47.095c-0.206-3.386-8.192-3.29-7.991,0
			c1.153,18.912,8.431,35.671,22.374,48.593c10.497,9.729,23.701,16.023,34.034,25.88c1.394,1.33,3.715,1.506,5.467,0.878
			c1.322-0.474,2.821-2.024,1.434-3.347C186.886,389.721,174.264,383.473,163.919,374.343z"/>
		<path fill="#5F470A" d="M284.413,397.944c-8.418,4.306-16.712,5.712-26.041,6.489c-1.808,0.15-4.211,0.969-4.211,3.2
			c0,2.014,2.399,3.351,4.211,3.2c10.76-0.896,20.567-2.389,30.292-7.363C293.568,400.962,288.357,395.926,284.413,397.944z"/>
		<path fill="#5F470A" d="M316.552,388.7c-1.345,0-3.864,0.537-3.895,2.311c-0.004,0.197-0.014,0.392-0.032,0.589
			c-0.004,0.039-0.019,0.116-0.036,0.19c-0.015,0.048-0.034,0.094-0.052,0.141c-1.365,0.052-2.884,0.51-3.435,1.698
			c-0.773,1.667,1.501,2.624,2.721,2.842c2.054,0.367,4.652,0.231,6.388-1.073c1.467-1.103,2.204-2.536,2.237-4.386
			C320.478,389.24,317.845,388.7,316.552,388.7z"/>
		<path fill="#5F470A" d="M287.435,251.658c-15.513-13.404-34.199-21.699-51.83-31.817c-1.899-1.09-4.387-1.302-6.267,0
			c-1.546,1.071-1.784,3.317,0,4.341c17.631,10.118,36.317,18.413,51.83,31.817C284.175,258.597,291.574,255.234,287.435,251.658z"
			/>
		<path fill="#5F470A" d="M213.363,217.148c-1.862-2.231-10.399-0.932-7.667,2.341c0.056,0.068,0.113,0.136,0.17,0.204
			c-0.041,0.15-0.068,0.306-0.07,0.473c-0.055,5.846-0.758,11.92-4.016,16.921c-1.789,2.747,5.883,3.813,7.554,1.249
			c1.672-2.566,2.715-5.467,3.357-8.479c0.459,1.087,0.834,2.21,1.086,3.38c0.919,4.263,0.166,9.028-1.169,13.133
			c-2.651,8.152-9.957,14.922-15.326,21.282c-2.747,3.254,5.791,4.563,7.667,2.341c5.802-6.872,13.519-14.079,16.377-22.865
			c1.53-4.705,2.199-9.865,1.151-14.727C221.198,226.468,217.151,221.686,213.363,217.148z"/>
		<path fill="#5F470A" d="M491.529,413.586c2.344,19.528,1.477,39.395-2.123,58.719c-2.516,13.506-6.104,27.835-12.87,39.922
			c-2.388,4.267,5.265,6.681,7.214,3.2c7.121-12.722,10.978-27.207,13.712-41.437c3.817-19.868,4.834-40.301,2.421-60.404
			C499.378,409.371,491.034,409.459,491.529,413.586z"/>
		<path fill="#5F470A" d="M644.616,260.264c-1.438-1.569-3.761-2.006-5.715-1.137c-1.565,0.696-2.917,2.79-1.499,4.337
			c12.684,13.836,24.215,29.995,27.518,48.873c2.594,14.827-0.59,29.569-5.784,43.463c-1.576,4.216,6.637,5.481,8.056,1.686
			c5.506-14.73,8.678-30.315,5.934-45.995C669.672,291.75,657.913,274.769,644.616,260.264z"/>
		<path fill="#5F470A" d="M339.193,137.188c-11.257,0.093-23.743,4.348-30.484,13.829c-2.517,3.539,5.255,5.1,7.074,2.542
			c5.295-7.447,14.417-11.261,23.41-11.335C344.191,142.183,344.205,137.147,339.193,137.188z"/>
		<path fill="#5F470A" d="M372.544,163.496c-5.397,11.992-11.173,24.013-11.694,37.403c-0.157,4.03,8.68,4.08,8.838,0
			c0.498-12.818,6.214-24.332,11.378-35.807C382.848,161.135,374.127,159.979,372.544,163.496z"/>
		<path fill="#5F470A" d="M410.783,169.256C410.924,168.939,410.865,168.948,410.783,169.256L410.783,169.256z"/>
		<path fill="#5F470A" d="M430.58,262.557c-12.003-17.949-17.622-39.427-19.675-60.721c-0.742-7.696-0.972-15.447-0.753-23.174
			c0.065-2.275,0.182-4.55,0.353-6.82c0.051-0.67,0.11-1.34,0.176-2.008c0.025-0.253,0.065-0.44,0.101-0.578
			c-0.022,0.049-0.05,0.107-0.083,0.171c0.05-0.163,0.087-0.333,0.1-0.516c0.003-0.032,0.006-0.066,0.005-0.098
			c-0.125-2.943-5.519-3.581-6.931-1.326c-1.509,2.412-0.999,6.954-1.108,9.635c-0.323,7.96-0.069,15.942,0.623,23.876
			c1.972,22.599,8.06,45.208,20.767,64.21C425.99,267.948,432.926,266.065,430.58,262.557z"/>
		<path fill="#5F470A" d="M516.47,142.608c-1.692-2.606-10.359-1.493-8.598,1.22c6.036,9.296,10.469,19.372,12.393,30.32
			c1.358,7.726,1.198,15.54,1.185,23.348c-0.005,3.199,8.91,3.203,8.915,0c0.013-7.832,0.082-15.59-1.185-23.348
			C527.328,162.804,522.704,152.209,516.47,142.608z"/>
		<path fill="#5F470A" d="M718.95,267.55c-3.857-11.361-11.594-21.305-21.968-27.418c-1.833-1.08-4.204-1.323-6.016,0
			c-1.474,1.077-1.739,3.368,0,4.394c9.459,5.574,16.261,14.312,19.78,24.676C712.021,272.961,720.39,271.794,718.95,267.55z"/>
		<path fill="#5F470A" d="M409.925,98.187c1.209,0.24,2.668,0.645,4.122,1.224c-3.029,0.142-6.061,2.676-3.059,5.185
			c2.689,2.155,5.359,4.808,5.926,8.371c1.089,6.841-4.336,13.356-8.478,18.101c-3.15,3.608,4.78,5.998,7.305,3.106
			c4.992-5.719,10.525-13.136,9.633-21.207c-0.097-0.882-0.285-1.723-0.536-2.534c2.052,0.144,4.111-0.685,4.468-2.996
			c1.363-8.842-10.537-13.871-17.132-15.184C407.525,91.328,404.464,97.1,409.925,98.187z"/>
		<path fill="#5F470A" d="M484.492,339.649c1.85,1.271,4.437,1.447,6.269,0c1.589-1.254,1.778-3.73,0-4.95
			c-7.14-4.904-12.434-12.165-17.368-19.163c-3.204-4.543-5.908-10.535-10.106-14.271c-1.189-1.059-2.83-1.22-4.279-0.826
			c-0.131-0.764-0.232-1.526-0.267-2.283c-0.152-3.279-7.79-3.212-7.641,0c0.115,2.47,0.982,5.025,1.29,7.491
			c0.714,5.727,0.618,11.533-0.131,17.249c-2.618,19.982-14.963,37.037-30.362,49.419c-3.595,2.89,3.01,5.289,5.403,3.366
			c16.214-13.037,28.697-29.929,32.29-50.738c0.777-4.502,1.049-9.09,0.878-13.658c2.068,3.108,4.143,6.209,6.308,9.251
			C471.756,327.532,477.345,334.74,484.492,339.649z"/>
		<path fill="#5F470A" d="M434.441,329.223c-1.696,3.994,6.983,5.118,8.482,1.587c3.97-9.349,6.42-19.263,7.234-29.389
			c0.258-3.213,1.566-10.856-1.535-13.224c-2.688-2.052-8.782,0.24-7.281,3.053c0.004,0.034,0.008,0.069,0.014,0.113
			c0.107,0.811,0.143,1.633,0.18,2.45c0.127,2.823-0.017,5.658-0.243,8.471C440.544,311.582,438.08,320.654,434.441,329.223z"/>
		<path fill="#5F470A" d="M513.847,310.924c-17.429,1.199-30.412-10.065-39.749-23.617c-1.808-2.623-9.706-1.059-7.197,2.582
			c10.889,15.806,26.939,27.527,46.946,26.151c1.459-0.1,4.168-0.562,4.168-2.558C518.014,311.625,515.305,310.823,513.847,310.924z
			"/>
		<path fill="#5F470A" d="M425.952,245.74c-1.645,3.801,0.163,8.156,2.061,11.47c1.389,2.428,8.546,1.528,7.022-1.134
			c-3.053-5.335-3.611-10.864,2.83-13.466c5.616-2.269,12.166-2.292,18.131-2.303c1.218-0.002,3.641-0.485,3.641-2.134
			c0-1.645-2.423-2.136-3.641-2.134c-7.61,0.015-15.874,0.253-22.946,3.366C430.062,240.721,427.286,242.657,425.952,245.74z"/>
		<path fill="#5F470A" d="M601.25,182.853c0.004-0.086,0.015-0.169,0.019-0.256c0.141-3.062-8.737-3.18-8.884,0
			c-1.072,23.217-23.544,33.303-42.224,40.924c-1.735,0.708-1.513,2.4,0,3.162c1.943,0.978,4.326,0.798,6.282,0
			c15.587-6.36,33.452-14.605,41.088-29.658c1.075,10.643-0.6,21.112-5.191,31.285c-5.768,12.781-14.724,23.909-22.228,35.673
			c-1.885,2.954,5.662,4.076,7.404,1.346c7.694-12.061,16.698-23.416,22.613-36.525c6.428-14.246,6.83-29.449,2.668-44.392
			C602.592,183.677,602.007,183.163,601.25,182.853z"/>
		<path fill="#5F470A" d="M608.643,153.187c-1.436,3.185-3.542,5.866-6.01,8.319c-2.047,2.034-5.446,4.759-8.531,4.149
			c-4.555-0.9-7.807,4.496-2.27,5.59c10.84,2.143,20.901-7.325,25.045-16.518C618.599,150.908,610.173,149.792,608.643,153.187z"/>
	</g>
	<g>
		<path d="M456.432,296.534c-1.054-0.247-1.96,0.512-1.512,1.621c0.469,1.161,0.963,2.307,1.467,3.448
			c2.724,14.251,3.08,29.171-3.541,42.45c-4.995,10.018-13.626,17.51-21.396,25.313c-17.05,17.122-31.713,37.053-37.848,60.758
			c-4.577,17.685-3.676,36.199,0.74,53.81c0.299,1.191,3.247,2.69,2.749,0.702c-4.416-17.605-4.993-35.821-0.429-53.454
			c3.474-13.425,9.966-25.859,18.065-37.052c6.145-8.493,13.257-16.366,20.686-23.751c7.725-7.679,15.644-15.12,20.572-25.004
			c5.453-10.936,5.948-23.272,4.423-35.243c0.892,1.818,1.791,3.634,2.678,5.461c4.229,8.718,7.358,17.928,10.33,27.134
			c6.363,19.714,12.12,39.578,14.309,60.241c1.962,18.523,1.208,37.229-1.19,55.672c-1.661,12.765-4.175,25.392-6.508,38.046
			c-0.374,2.03,4.03,5.162,4.43,2.991c2.792-15.146,5.723-30.247,7.41-45.568c2.065-18.757,2.051-37.684-0.489-56.393
			c-2.659-19.58-8.553-38.609-14.713-57.331c-2.86-8.694-6.01-17.305-10.027-25.537c-2.537-5.199-5.203-10.303-7.374-15.674
			C458.77,297.953,457.761,296.846,456.432,296.534z"/>
		<path d="M369.104,153.855c-5.724-3.504-14.309-2.035-19.118-7.006c-1.168-1.208-3.211-3.518-5.06-3.629
			c-1.404-0.084,1.448,3.254,1.607,3.418c4.139,4.279,8.769,7.929,14.45,9.883c3.909,1.345,8.65,1.176,12.212,3.356
			c1.544,0.945,2.083,0.265,1.101-1.18C372.981,156.762,371.091,155.072,369.104,153.855z"/>
		<path d="M722.582,285.922c-2.169-14.626-1.337-29.526-6.829-43.523c-6.363-16.216-20.316-29.724-35.168-38.326
			c-12.637-7.318-26.814-10.529-40.807-14.115c-2.465-0.632-4.918-1.316-7.325-2.147c-0.938-0.324-1.882-0.677-2.779-1.103
			c-0.128-0.061-0.257-0.132-0.383-0.208c-0.056-0.131-0.105-0.267-0.132-0.395c-0.402-1.952-0.55-3.965-0.944-5.926
			c-0.712-3.542-1.891-6.99-3.4-10.268c-2.398-5.21-5.787-9.798-7.052-15.486c-0.829-3.728-0.783-7.612-0.55-11.399
			c0.125-2.02-0.079-3.301-1.097-5.077c-4.44-7.743-14.549-11.019-22.824-12.031c-7.517-0.92-18.387-0.397-22.979,6.711
			c-4.314,6.679,0.822,16.326,2.644,22.859c2.194,7.87,5.08,17.403,1.953,25.412c-2.674,6.848-8.676,10.798-15.81,11.2
			c-4.737,0.266-9.48,0.02-14.219,0.371c-3.829,0.283-7.586,0.969-11.268,1.963c3.343-5.761,5.989-11.946,7.795-18.337
			c2.857-10.113,3.031-20.884-0.34-30.89c-3.897-11.569-12.722-20.997-22.188-28.587c-5.222-7.594-12.475-14.199-19.553-19.854
			c-15.469-12.359-34.094-19.026-53.902-19.033c-5.073-4.131-10.859-7.342-17.169-9.199c-6.787-1.997-13.991-1.983-20.869-0.49
			c-4.396,0.954-8.579,2.712-12.556,4.78c-0.62,0.322-2.785,2.06-3.35,1.803c-0.497-0.225-1.006-0.421-1.516-0.613
			c-12.444-4.683-26.563-2.885-38.189,3.142c-3.406,1.766-6.369,4.161-9.755,5.939c-2.921,1.533-5.705,3.324-8.381,5.249
			c-9.032,6.495-16.567,15.039-21.457,25.056c-3.145,6.442-4.904,13.466-5.547,20.587c-0.174,1.929-0.214,3.867-0.212,5.803
			c0.001,1.033,0.346,1.758-0.484,2.459c-0.545,0.46-1.049,0.969-1.552,1.474c-2.427,2.437-4.313,5.39-5.961,8.389
			c-7.712,14.033-9.736,31.665-7.798,47.367c0.418,3.391,1.121,6.704,2.07,9.929c-7.668-5.179-16.284-7.972-25.56-8.889
			c-4-0.395-8.02-0.534-12.021-0.911c-1.813-0.171-3.617-0.562-5.374-1.03c-0.673-0.179-1.055-0.359-1.694-0.63
			c-0.088-0.037-1.15-0.711-1.236-0.685c-0.329-0.345-0.792-0.872-1.011-1.221c-0.842-1.348-1.517-2.801-2.093-4.28
			c-1.383-3.552-2.315-7.28-3.183-10.984c-1.727-7.369-2.75-14.951-5.089-22.166c-0.96-2.962-3.771-5.657-6.825-6.365
			c-0.293-0.068-0.572-0.101-0.842-0.112c-3.906-7.31-13.822-8.264-21.394-7.331c-8.867,1.093-19.037,5.369-22.944,13.956
			c-2.32,5.099-1.649,10.551,0.003,15.739c2.488,7.816,5.282,15.592,6.479,23.743c0.662,4.504,0.586,9.391-2.784,12.817
			c-1.581,1.608-3.675,2.461-5.781,3.144c-4.518,1.466-9.117,2.545-13.582,4.205c-11.421,4.246-21.714,10.976-27.796,21.754
			c-2.15,3.809-3.776,7.883-5.583,11.857c-1.979,4.352-4.599,7.897-7.581,11.606c-19.506,24.26-27.152,60.876-6.275,86.658
			c5.901,7.287,13.963,12.297,21.295,17.981c6.911,5.358,13.577,11.013,20.307,16.592c11.552,9.577,23.421,18.452,37.61,23.729
			c17.846,6.638,37.622,7.473,56.374,5.298c7.608-0.882,15.212-2.396,22.485-4.819c4.589-1.529,8.482-4.254,12.974-5.95
			c8.786-3.318,18.363-5.084,27.674-6.501c0.553,2.386,1.36,4.781,2.459,7.181c2.341,5.111,4.471,9.872,5.805,15.38
			c1.279,5.279,2.017,10.671,2.787,16.041c1.557,10.857,3.188,21.865,8.37,31.685c6.063,11.49,16.889,19.22,28.997,23.356
			c7.705,2.631,15.787,3.576,23.599,5.8c5.527,1.574,10.949,3.798,15.923,6.687c7.462,4.334,13.63,10.408,20.863,15.051
			c8.249,5.295,17.489,7.11,27.203,6.431c7.432-0.519,14.798-2.275,21.958-4.254c2.242-0.62,4.467-1.299,6.688-1.992
			c0.892-0.279,2.145-1.034,3.068-0.983c1.475,0.082,2.953,0.114,4.43,0.135c14.112,0.2,28.9-1.221,42.108-6.44
			c13.942-5.509,26.3-16.195,33.43-29.371c2.736-5.054,4.868-10.981,5.348-16.826c0.151-0.128,0.246-0.326,0.246-0.639
			c0-0.13-0.001-0.261-0.002-0.392c0.025-0.021,0.045-0.04,0.072-0.063c0.808-0.696,1.588-1.425,2.358-2.163
			c2.758-2.647,5.302-5.513,7.698-8.491c7.766-9.653,13.679-20.856,17.211-32.727c3.745-12.586,5.133-27.138,2.182-40.192
			c5.913,4.941,13.467,7.395,21.285,7.535c7.543,0.135,15.446-1.729,21.976-5.54c5.108-2.981,9.136-7.446,13.421-11.441
			c5.333-4.973,11.319-8.787,18.143-11.385c3.925-1.494,8.039-2.392,11.961-3.913c3.697-1.435,7.205-3.324,10.525-5.485
			c11.093-7.219,19.141-18.537,23.228-31.035c1.626-4.973,2.579-10.196,2.661-15.43
			C725.344,297.277,723.434,291.668,722.582,285.922z M347.655,89.814c2.289-1.273,4.228-2.432,6.441-3.919
			c7.408-4.979,16.087-7.835,24.984-8.294c5.521-0.284,11.174,0.565,16.403,2.348c0.817,0.279,1.632,0.588,2.413,0.958
			c0.579,0.274,3.977-2.118,4.659-2.472c2.382-1.238,4.882-2.229,7.421-3.089c11.802-3.999,25.217-2.39,35.647,4.424
			c-7.893,1.748-15.572,5.435-21.397,10.923c-0.464-0.401-0.937-0.803-1.43-1.204c-6.62-5.393-14.84-6.063-23.099-6.32
			c-4.839-0.15-9.689,0.071-14.519,0.35c-3.697,0.213-7.506,0.252-10.76,2.215c-3.102,1.872-6.131,3.469-9.702,4.305
			c-4.855,1.136-10.102,0.536-13.448,4.856c-1.188,1.534-1.749,3.542-2.793,5.182c-1.285,2.02-3.412,3.086-5.494,4.095
			c-3.356,1.627-4.766,4.097-4.805,7.7c-0.038,3.433,0.596,6.834-0.613,10.124c-1.738,4.729-3.944,7.788-1.299,12.743
			c0.045,0.084,0.102,0.165,0.151,0.248c-7.984,0.18-16.094,2.673-23.247,6.465C314.481,119.409,328.614,100.404,347.655,89.814z
			 M191.357,173.345c6.383,4.371,15.886,3.497,22.951,1.376c5.024-1.509,10.367-4.986,12.91-9.732
			c0.122,0.578,0.241,1.159,0.358,1.742c-1.059,3.061-3.329,5.824-5.659,7.775c-7.546,6.32-20.103,9.22-29.313,4.826
			C191.999,177.356,191.524,175.361,191.357,173.345z M222.905,153.97c-0.002-0.002-0.006-0.004-0.008-0.006
			c0.022,0.007,0.044,0.015,0.066,0.023C222.938,153.978,222.925,153.976,222.905,153.97z M200.117,157.997
			c3.866-2.419,8.605-3.673,13.071-4.345c1.877-0.282,3.756-0.367,5.651-0.3c1.281,0.045,2.137,0.122,2.935,0.296
			c0.874,0.951,1.912,1.758,3.038,2.362c0.03,0.017,0.069,0.033,0.103,0.05c0.012,0.04,0.018,0.078,0.031,0.118
			c0.006,0.018,0.011,0.036,0.017,0.054c-0.224,4.719-3.391,9.055-7.168,11.709c-5.642,3.965-13.59,5.532-20.354,5.129
			c-2.121-0.126-4.225-0.634-6.147-1.537c0.021-1.163,0.158-2.332,0.458-3.509C192.874,163.63,196.398,160.325,200.117,157.997z
			 M201.814,401.951c-12.837-9.693-21.628-25.454-25.755-40.509c-3.452-12.593-2.75-26.018,0.437-38.578
			c4.278-16.862,13.403-32.167,23.945-45.832c9.544-12.372,24.046-25.046,21.897-42.372c-1.041-8.389-6.306-16.461-13.404-21.077
			c-2.57-1.671-0.328,2.003,0.766,2.714c-0.642-0.418,0.451,0.343,0.803,0.624c0.636,0.509,1.838,1.686,2.619,2.572
			c2.913,3.305,4.688,7.414,5.445,11.729c3.138,17.9-13.513,31.88-23.143,44.54c-17.485,22.985-30.035,52.075-23.509,81.303
			c3.513,15.732,12.696,32.171,25.325,43.421c-1.446-0.505-2.884-1.034-4.302-1.614c-13.149-5.379-23.968-15.238-34.742-24.212
			c-3.961-3.299-7.95-6.56-11.986-9.761c-5.912-13.919-9.638-28.852-8.419-44.066c0.952-11.876,5.197-23.221,11.826-33.074
			c5.352-7.955,12.22-14.796,19.657-20.799c6.13-4.947,12.837-9.097,18.85-14.194c8.389-7.111,16.043-16.366,18.518-27.323
			c0.829-3.669,1.143-8.055-0.115-11.689c-0.544-1.572-5.005-4.031-4.026-1.204c1.755,5.071-0.537,13.027-3.093,18.254
			c-5.474,11.198-15.653,19.183-25.606,26.218c-15.391,10.88-29.026,24.26-35.977,42.145c-7.829,20.142-4.588,42.043,3.186,61.664
			c-2.034-1.564-4.081-3.112-6.147-4.636c-5.84-4.307-10.441-8.903-13.514-15.585c-6.395-13.908-4.648-30.254,0.263-44.309
			c2.789-7.98,6.95-15.397,11.934-22.204c3.222-4.4,6.624-8.194,9.044-13.12c4.063-8.27,7.024-16.491,13.915-22.975
			c5.035-4.738,11.263-7.912,17.634-10.447c6.624-2.636,14.55-3.295,20.44-7.481c9.753-6.933,3.361-23.923,0.705-32.716
			c-0.604-1.998-1.354-4.013-2.042-6.045c0.262,0.196,0.532,0.381,0.813,0.546c9.582,5.616,22.407,2.78,30.935-3.442
			c1.467-1.071,2.887-2.479,4.059-4.088c2.022,10.297,4.539,20.522,11.969,27.924c6.275,6.251,14.916,7.631,23.369,8.217
			c10.389,0.72,19.646,1.848,28.203,8.347c0.987,0.75,2.852,1.526,4.371,1.396c2.893,5.805,6.604,11.207,10.928,16.099
			c-15.052-11.349-32.398-19.127-51.036-22.181c-8.073-1.323-16.847-2.015-24.991-0.704c-1.219,0.196,1.225,3.254,2.534,3.043
			c7.164-1.153,14.791-0.551,21.927,0.388c18.842,2.479,36.555,10.404,51.617,21.874c1.553,1.183,1.855,0.224,1.388-0.833
			c1.792,1.922,3.679,3.761,5.649,5.507c5.727,5.078,12.064,9.424,19.387,11.823c3.894,1.276,8.141,0.95,11.886,2.616
			c2.228,0.991,4.13,2.58,5.574,3.708c2.746,2.145,5.474,4.312,8.348,6.286c20.379,13.999,45.344,13.357,68.765,8.961
			c0.156,1.901,0.183,3.702-0.029,5.026c-0.084,0.526-0.717,2.098-0.573,1.979c-0.026,0.037-0.051,0.076-0.079,0.112
			c-0.807-0.202-2.033-0.444-2.223-0.494c-2.259-0.6-4.567-0.998-6.881-1.308c-7.771-1.043-15.532-0.372-23.106,1.57
			c-11.547,2.96-22.179,9.455-30.961,17.574c-0.464-4.494-1.295-8.972-2.044-13.247c-1.012-5.767-2.164-11.522-3.561-17.209
			c-0.569-2.316-3.317-4.539-5.209-5.74c-0.997-0.633-3.739-1.936-3.16,0.419c1.333,5.426,2.438,10.913,3.421,16.412
			c1.48,8.278,3.159,17.398,1.811,25.8c-0.096,0.599,0.194,1.328,0.713,2.089c-2.658,3.309-5.01,6.861-6.983,10.621
			c-2.096,3.995-2.513,8.123-3.979,12.28c-0.295,0.837-0.639,1.657-1.014,2.464c-2.215-11.963-7.416-23.47-13.113-34.063
			c-15.547-28.905-39.549-51.28-67.923-67.429c-14.993-8.534-31.364-15.988-48.144-20.283c-1.27-0.325,1.64,3.397,1.746,3.508
			c1.403,1.471,3.219,3.315,5.259,3.837c0.009,0.002,0.018,0.005,0.027,0.007c5.75,5.348,10.057,11.775,12.371,19.471
			c2.167,7.206,2.102,14.926,1.166,22.324c-1.639,12.948-6.269,25.405-10.272,37.761c-9.003,27.796-16.671,61.27,2.808,86.373
			c6.14,7.913,14.16,14.313,23.299,17.971c-1.177,0.169-2.354,0.33-3.53,0.476C233.252,407.025,216.938,406.364,201.814,401.951z
			 M271.262,400.284c-4.954,1.708-10.099,2.886-15.282,3.766c-12.325-3.27-22.617-11.812-29.35-23.026
			c-8.422-14.027-8.17-31.328-5.769-46.993c2.157-14.072,6.693-27.511,11.037-41.013c4.298-13.36,8.622-27.263,7.67-41.464
			c-0.751-11.201-5.739-20.899-13.147-28.776c7.284,5.351,13.693,11.932,19.608,18.702c9.261,10.599,17.243,22.336,24.303,34.493
			c13.91,23.956,25.18,51.53,26.183,79.529c0.478,13.343-2.081,27.024-9.773,37.982c-0.838,0.277-1.678,0.551-2.506,0.851
			C279.726,395.967,275.83,398.708,271.262,400.284z M318.336,389.048c-1.318-1.015-2.874-1.747-4.435-1.515
			c-6.311,0.935-12.71,2.036-18.965,3.587c8.525-17.15,6.868-38.454,2.524-56.729c-6.542-27.518-19.957-53.65-36.356-76.557
			c-9.237-12.902-19.917-25.649-32.598-35.54c12.549,3.828,25.528,9.731,37.083,16.019c12.51,6.808,24.344,14.919,34.707,24.717
			c12.657,11.966,22.012,26.945,29.268,42.684c4.393,9.531,7.867,19.798,8.673,30.323c0.239,3.119,0.407,6.842-0.535,9.779
			c-0.083,0.258-0.071,0.539,0.012,0.834c-0.118,0.164-0.237,0.328-0.355,0.491c-4.008,5.573-8.086,11.092-11.56,17.023
			C321.127,372.135,318.221,380.501,318.336,389.048z M602.165,377.077c0.004,0.004,0.013,0.013,0.017,0.017
			C602.016,376.97,602.073,376.992,602.165,377.077z M602.623,377.567c0.114,0.128,0.242,0.274,0.407,0.465
			C602.898,377.88,602.761,377.724,602.623,377.567z M602.41,377.33c0.023,0.025,0.046,0.05,0.072,0.079
			C602.458,377.383,602.433,377.356,602.41,377.33z M718.002,305.771c-2.171,12.483-8.919,24.124-18.186,32.67
			c-5.506,5.078-12.089,8.842-19.091,11.432c-6.083,2.249-11.98,3.865-17.562,6.77c5.359-14.2,5.942-30.89,3.068-45.323
			c-3.321-16.674-12.146-31.849-23.731-44.143c-7.343-7.792-14.329-15.448-19.875-24.669c-4.112-6.839-7.238-14.225-9.487-21.873
			c-2.903-9.878-3.09-19.941-4.746-30.001c-0.242-1.468-4.225-4.049-3.886-1.993c1.618,9.824,1.954,19.602,4.537,29.299
			c4.394,16.495,13.54,31.268,24.973,43.807c7.039,7.721,14.018,14.879,19.326,23.978c4.263,7.306,7.261,15.335,9.003,23.602
			c2.565,12.174,2.029,24.863-0.929,36.91c-1.174,4.778-2.681,9.695-4.95,14.086c-0.102,0.198-0.099,0.438-0.033,0.692
			c-3.781,3.008-7.109,6.545-10.677,9.796c-4.736,4.317-10.078,7.398-16.308,8.999c-7.013,1.801-14.733,2.153-21.696-0.025
			c-1.886-0.59-3.718-1.412-5.347-2.532c-0.081-0.056-0.14-0.098-0.188-0.133c-0.375-0.407-0.771-0.81-1.191-1.187
			c-0.078-0.258-0.144-0.522-0.226-0.778c-5.304-16.623-15.621-31.959-26.215-45.623c-2.486-3.206-5.069-6.303-7.766-9.267
			c-0.853-2.338-1.518-4.751-2.06-7.169c-2.904-12.965-1.061-26.58,3.18-39.026c3.357-9.85,8.553-18.887,14.311-27.504
			c5.463-8.176,9.732-17.112,13.028-26.363c3.268-9.172,5.889-19.298,6.104-29.107c0.006-0.295-0.165-0.636-0.431-0.983
			c-0.38-1.014-1.852-2.105-2.582-1.986c-0.436-0.18-0.747-0.2-0.753,0.052c-0.024,1.102-0.084,2.208-0.167,3.314
			c-2.049,9.431-7.952,16.471-15.891,22.206c-6.38,4.609-13.505,8.194-20.58,11.59c-8.457,4.059-17.479,7.158-25.52,12.023
			c-17.451,10.559-28.457,30.173-29.583,50.425c-0.021,0.376-0.038,0.754-0.039,1.131c0,0.111,0.028,0.228,0.069,0.346
			c-3.073-0.219-6.156-0.302-9.233-0.241c-4.727,0.093,0.654,7.715,4.098,7.647c17.45-0.344,34.089,4.257,48.276,14.535
			c6.428,4.657,11.82,10.465,16.846,16.564c0.33,0.401,0.653,0.808,0.98,1.212c-4.154-3.055-8.583-5.731-13.32-7.893
			c-9.628-4.396-19.963-6.145-30.445-6.935c-8.723-0.657-17.605-0.735-26.021-3.377c-9.929-3.117-16.408-10.739-21.537-19.461
			c-1.284-2.183-3.963-4.606-6.617-4.792c-2.741-0.192-1.922,2.81-1.068,4.262c6.214,10.566,14.442,20.007,25.472,25.674
			c8.421,4.326,17.869,5.545,27.188,6.203c9.728,0.687,19.425,1.128,28.798,4.073c12.464,3.916,22.33,12.459,30.519,22.389
			c0.692,0.839,1.792,1.933,3.022,2.707c0.119,0.2,0.242,0.396,0.361,0.596c3.953,6.683,7.533,13.679,9.985,21.06
			c2.314,6.964,2.527,14.414,2.248,21.692c-0.554,14.43-5.228,28.71-12.678,41.033c-3.022,4.999-6.538,9.762-10.469,14.126
			c-0.921-26.553-5.19-53.053-21.592-74.894c-8.569-11.411-19.308-21.437-31.644-28.657c-8.262-4.836-17.997-8.012-25.671-13.33
			c-11.114-7.702-18.097-20.954-23.864-33.186c-1.02-2.163-3.309-4.202-5.495-5.124c-1.903-0.802-2.724,0.223-1.879,2.015
			c6.767,14.353,14.99,28.027,27.266,38.319c7.919,6.639,17.517,10.372,26.66,14.923c23.745,11.818,38.871,34.624,44.389,60.104
			c3.344,15.442,3.836,31.421,3.856,47.165c0,0.373,0.071,0.743,0.189,1.105c-0.024,0.145-0.047,0.291-0.052,0.457
			c-0.068,2.201-0.421,3.848-1.095,6.462c-3.076,11.918-11.009,21.774-20.656,29.147c-13.378,10.225-29.542,13.647-46.03,14.511
			c-4.48,0.235-8.985,0.273-13.467,0.061c-2.427-0.114-5.028,1.288-7.32,1.991c-4.386,1.344-8.823,2.522-13.303,3.508
			c-9.928,2.185-20.975,3.255-30.161-1.23c-1.348-0.658-2.469-1.367-4.123-2.492c-1.686-1.147-3.3-2.398-4.904-3.656
			c-3.423-2.684-6.803-5.41-10.407-7.851c-10.84-7.344-23.164-11.379-35.952-13.762c-12.079-2.25-24.497-7.035-30.991-18.1
			c-5.339-9.097-6.562-20.073-8.033-30.32c-0.349-2.433-0.712-4.871-1.116-7.299c1.197-7.302,3.495-14.535,6.212-21.18
			c9.453-23.114,28.153-40.461,51.147-49.809c10.274-4.177,21.38-5.743,31.365-10.657c7.795-3.836,14.535-9.562,19.081-16.997
			c7.234-11.834,7.489-26.437,5.228-39.728c-0.169-0.993-3.063-2.971-2.825-1.566c1.725,10.144,1.9,20.613-1.276,30.5
			c-4.155,12.936-14.533,21.918-26.789,27.06c-7.877,3.305-16.401,4.729-24.417,7.677c-6.729,2.475-13.181,5.676-19.257,9.477
			c-10.363,6.483-19.258,15.134-26.143,25.221c-6.248,9.154-11.32,20.194-13.995,31.524c-1.326-5.671-3.134-11.205-5.902-16.42
			c-7.031-13.245-1.439-27.223,6.04-38.891c2.522-3.935,5.284-7.706,8.024-11.491c0.515,0.046,0.974-0.095,1.285-0.521
			c12.069-16.512,32.438-29.031,53.077-29.313c8.737-0.12,17.097,2.039,25.882,0.77c5.819-0.841,11.464-3.006,15.722-7.156
			c3.479-3.391,5.183-8.005,5.767-12.731c0.797-6.453,0.502-13.331,0.18-19.827c-0.015-0.292-0.031-0.585-0.052-0.877
			c-0.176-2.392-5.758-5.741-5.519-2.475c0.369,5.03,0.245,10.117,0.124,15.152c-0.137,5.713-0.713,10.854-4.535,15.365
			c-10.393,12.264-28.794,6.065-42.326,6.489c-13.612,0.426-27.157,6.284-38.274,14.923c1.035-3.946,2.036-7.515,4.196-11.169
			c3.117-5.275,7.154-10,11.519-14.275c10.427-10.213,24.006-17.758,38.597-19.599c3.76-0.474,7.564-0.47,11.336-0.168
			c3.761,0.301,7.225,1.738,10.894,2.272c1.381,0.201,2.46-0.026,3.558-0.923c3.963-3.234,1.898-12.357,1.215-16.356
			c-1.287-7.536-3.356-14.911-5.598-22.211c-1.263-4.108-2.513-8.061,0.491-11.711c5.02-6.099,15.665-6.554,22.871-6.833
			c3.067-0.119,6.14-0.077,9.206,0.063c-2.386,3.258-4.934,6.444-7.896,9.046c-5.616,4.935-14.94,7.282-21.856,4.283
			c-2.379-1.032,0.983,3.001,1.99,3.438c6.735,2.92,14.554,1.782,20.752-1.844c0.761-0.445,1.494-0.944,2.203-1.485
			c-1.147,1.358-2.355,2.649-3.661,3.805c-4.826,4.273-12.603,6.155-18.693,3.529c-1.083-0.467-0.046,1.063,0.138,1.286
			c0.763,0.928,1.76,1.899,2.88,2.382c5.367,2.315,11.655,1.375,16.651-1.347c3.865-2.107,6.897-5.837,9.588-9.582
			c0.264,3.05,0.608,6.088,1.045,9.099c1.822,12.558,5.68,28.577,18.478,34.307c1.531,0.685,3.918,0.627,3.834-1.61
			c-0.084-2.24-2.154-4.302-4.08-5.165c-3.103-1.389-5.387-5.621-6.968-9.976c-2.119-5.838-3.178-12.033-3.897-18.18
			c-0.905-7.743-1.274-15.657-0.953-23.453c0.096-2.335-2.862-5.234-5.08-5.504c-6.071-0.741-12.235-0.953-18.343-0.717
			c-8.328,0.323-19.234,1.317-25.164,7.972c-3.035,3.406-3.257,7.889-2.407,12.15c0.838,4.197,2.514,8.316,3.661,12.445
			c0.668,2.404,1.279,4.824,1.835,7.257c-11.575-15.958-18.485-34.73-21.457-54.265c-2.27-14.922-2.648-30.924,0.687-45.733
			c0.252-1.121-2.533-3.183-2.798-2.005c-3.444,15.292-2.901,31.772-0.56,47.165c3.227,21.211,11.413,41.603,24.681,58.482
			c-11.8,2.522-24.429,4.369-36.733,3.84c-16.856-16.559-27.379-37.926-28.226-61.78c-0.546-15.363,2.672-32.12,10.575-45.479
			c0.775-1.31-1.937-3.623-2.63-2.452c-8.447,14.277-11.621,31.84-10.889,48.254c1.045,23.451,11.769,44.701,27.941,61.263
			c-11.616-0.912-22.848-4.1-32.709-11.037c-3.838-2.7-7.548-6.155-11.793-8.783c-6.118-13.799-10.95-28.173-12.691-43.234
			c-2.419-20.93,2.718-41.578,16.642-57.658c0.671-0.775-3.471-4.49-4.071-3.797c-13.871,16.019-18.861,36.299-16.834,57.129
			c1.545,15.876,6.884,31.176,13.385,45.661c-3.331-1.353-7.115-1.21-10.571-2.16c-8.007-2.201-14.683-7.072-19.624-13.651
			c-10.944-14.575-14.182-32.924-12.2-50.735c0.899-8.073,2.965-16.076,6.294-23.49c1.375-3.062,3.078-5.97,5.076-8.666
			c0.892-1.204,1.899-2.316,2.955-3.376c0.497-0.499,1.034-0.955,1.572-1.41c0.14-0.118,0.143-0.847,0.107-1.653
			c7.72-4.686,16.917-7.873,25.935-8.107c0.812,0.76,1.657,1.474,2.42,2.142c0.359,0.314,4.103,2.901,3.804,2.342
			c-2.261-4.234-0.841-7.319,1.012-11.322c1.42-3.069,1.088-6.121,0.992-9.412c-0.088-3.001,0.026-5.176,2.097-7.516
			c1.065-1.202,2.854-1.801,4.248-2.507c2.206-1.117,3.676-2.718,4.843-4.867c2.16-3.977,3.553-6.313,8.313-7.344
			c4.939-1.069,9.459-1.45,14.042-3.81c2.384-1.228,4.191-2.678,6.887-3.25c4.762-1.011,10.03-0.841,14.878-0.961
			c5.232-0.13,10.465,0.061,15.654,0.763c1.903,0.258,3.738,0.704,5.557,1.291c0.625,1.754,1.021,3.618,1.492,5.385
			c1.024,3.843,2.483,7.549,3.571,11.372c2.329,8.186-3.29,13.829-7.284,20.432c-2.326,3.845-5.04,7.326-8.118,10.591
			c-2.223,2.358-3.661,5.225-5.747,7.636c-3.027,3.498-8.998,2.291-12.932,1.91c-6.355-0.616-12.652,0.229-19.013,0.297
			c0.07-0.001,3.729,4.457,4.097,4.8c1.077,1.005,3.42,3.769,5.074,3.752c5.212-0.056,10.449-0.819,15.66-0.555
			c3.747,0.19,7.48,0.932,11.242,0.652c2.659-0.198,4.879-1.779,6.221-3.967c2.031-3.31,4.7-5.992,7.254-8.886
			c3.173-3.596,5.491-7.873,8.024-11.915c2.072-3.306,4.592-6.225,5.306-10.174c0.497-2.753-0.388-5.69-1.177-8.293
			c-1.124-3.71-2.457-7.332-3.445-11.085c-1.162-4.413-3.057-7.827-5.705-10.902c6.133-5.823,14.557-9.662,22.961-11.077
			c1.221,0.333,2.469,0.165,4.141,0.214c8.067,0.239,16.066,1.76,23.708,4.326c10.558,3.546,21.128,9.696,28.636,17.612
			c1.97,2.077,3.7,4.166,5.308,6.426c2.476,3.478,5.743,5.864,8.999,8.603c20.699,17.418,16.682,47.016,4.454,67.918
			c-0.33,0.564-0.685,1.113-1.029,1.669c-3.372-23.243-11.013-47.428-29.937-62.466c-15.423-12.257-35.146-15.371-54.331-15.404
			c-2.12-0.004,0.611,3.591,2.1,3.594c17.719,0.03,36.049,2.519,50.548,13.515c19.692,14.936,26.016,41.911,28.701,65.164
			c-0.294,0.407-0.593,0.811-0.901,1.208c-0.685,0.885,0.193,4.103,0.216,5.355c0.114,6.242-1.303,12.277-3.773,17.888
			c-0.082,0.104-0.141,0.223-0.162,0.363c-1.72,3.823-3.924,7.447-6.481,10.793c-6.215,8.131-14.739,15.265-23.921,20.407
			c2.21-23.974-2.309-48.202-14.752-69.097c-8.655-14.533-22.786-30.258-40.156-33.727c-1.525-0.305-0.973,1.671-0.572,2.322
			c0.807,1.312,2.111,2.328,3.623,2.63c15.189,3.034,26.949,18.016,34.166,30.621c12.112,21.154,15.214,46.365,11.767,70.244
			c-0.334,0.151-0.667,0.309-1.001,0.455c0.074-0.032,0.372,0.316,0.806,0.859c-0.02,0.13-0.038,0.262-0.058,0.392
			c-0.252,1.596,2.634,4.086,4.192,4.287c0.665,0.539,1.264,0.829,1.69,0.644c15.398-6.696,30.26-19.177,37.335-34.533
			c0.404-0.877,0.766-1.769,1.107-2.669c20.093-0.633,40.87-5.297,56.248-18.899c5.641-4.99,11.376-11.939,13.466-19.369
			c0.575-2.043-3.794-5.241-4.437-2.956c-1.986,7.059-7.36,13.413-12.625,18.248c-13.789,12.666-32.808,17.348-51.21,18.397
			c0.987-3.897,1.435-7.924,1.361-11.964c-0.021-1.135-0.791-3.739-0.078-4.665c0.325-0.423,0.639-0.854,0.949-1.288
			c1.182,1.2,2.482,2.106,3.405,1.755c8.661-3.294,17.439-4.305,26.639-4.334c5.299-0.017,11.13,0.223,15.462-3.333
			c9.926-8.146,8.117-20.036,5.267-31.189c-2.469-9.664-10.458-23.773,1.759-29.812c7.737-3.824,18.475-2.654,26.292,0.28
			c0.777,0.292,1.764,0.779,2.485,1.17c0.183,0.749,0.011,1.683-0.043,2.369c-0.075,0.942-0.119,1.877-0.136,2.808
			c-6.347,5.765-14.193,10.776-23.072,9.563c-2.476-0.338-4.891-1.336-6.921-2.783c-0.598-0.426-0.864-0.735-0.963-0.838
			c0.274,0.285-0.653-0.827,0.036,0.087c-0.829-1.1-1.841-2.133-3.039-2.834c-0.864-0.505-1.284-0.175-0.637,0.683
			c2.972,3.944,7.234,7.215,11.871,8.912c5.797,2.122,11.536,1.017,16.76-1.573c-6.652,6.652-15.782,7.507-24.528,4.068
			c-1.167-0.459-0.063,1.115,0.155,1.379c0.803,0.974,1.9,2.096,3.102,2.569c9.231,3.63,18.67,2.95,25.853-4.292
			c1.039-1.047,2.006-2.215,2.903-3.451c0.545,1.798,1.239,3.567,2.109,5.3c2.931,5.84,6.069,11.07,7.507,17.554
			c0.589,2.658,0.469,5.62,1.656,8.11c1.138,2.387,3.168,4.273,5.128,5.978c3.575,3.109,8.241,4.673,12.714,5.954
			c6.112,1.75,12.342,3.066,18.47,4.76c16.577,4.584,31.786,11.831,42.594,25.647c9.834,12.571,11.347,27.721,12.547,43.009
			c-4.697-9.17-11.303-17.56-18.643-24.138c-4.969-4.453-10.575-8.127-16.558-11.065c-7.025-3.449-14.412-5.051-21.999-6.686
			c-13.051-2.813-24.259-10.182-31.733-21.23c-2.587-3.824-4.578-8.104-6.065-12.465c-0.469-1.375-0.873-2.774-1.219-4.185
			c-0.107-0.438-0.448-2.257-0.288-1.269c-0.242-1.499-1.295-2.758-2.681-3.384c-0.863-0.39-2.743-0.456-2.501,1.041
			c2.658,16.424,14.379,31.601,28.586,39.716c6.645,3.796,13.867,6.051,21.365,7.429c7.445,1.369,14.667,4.013,21.192,7.855
			c10.097,5.946,18.126,14.805,23.934,24.908c3.144,5.47,5.943,11.502,7.39,17.68c0.142,0.607,0.639,1.23,1.263,1.748
			c0.424,2.4,0.883,4.8,1.364,7.221C719.184,296.217,718.81,301.123,718.002,305.771z M561.972,315.216
			c-7.37-7.244-15.621-13.447-25.172-18.064c-8.737-4.224-18.191-6.676-27.807-7.673c0.357-17.539,10.173-35.166,23.744-45.773
			c7.289-5.697,15.956-8.834,24.304-12.597c7.661-3.453,15.248-7.144,22.409-11.554c5.859-3.608,11.407-7.901,15.441-13.33
			c-0.974,3.769-2.137,7.475-3.378,11.059c-6.681,19.287-20.551,34.649-27.338,53.867
			C559.497,284.393,557.547,301.076,561.972,315.216z"/>
		<path d="M364.846,143.194c13.622,6.403,28.743,2.593,40.345-6.087c8.036-6.012,16.292-15.162,13.348-25.83
			c-4.456-16.15-26.899-12.688-38.819-10.011c-1.564,0.351,1.136,3.648,2.649,3.309c7.786-1.749,16.237-3.235,24.161-1.473
			c6.05,1.345,8.972,5.398,9.26,11.463c0.225,4.739-3.476,9.32-6.375,12.688c-4.529,5.261-10.288,9.466-16.575,12.367
			c-7.215,3.33-15.269,4.33-23.011,2.458c-5.852-1.415-15.182-5.384-15.506-12.485c-0.385-8.421,10.901-15.274,17.181-18.805
			c0.577-0.325,1.16-0.642,1.753-0.938c1.603-0.799-1.306-3.977-2.649-3.308c-6.238,3.109-12.565,7.439-16.78,13.041
			C346.089,129.868,355.502,138.803,364.846,143.194z"/>
	</g>
</g>
</svg>
