<?xml version="1.0" encoding="utf-8"?>
<!-- Generator: Adobe Illustrator 17.0.0, SVG Export Plug-In . SVG Version: 6.00 Build 0)  -->
<!DOCTYPE svg PUBLIC "-//W3C//DTD SVG 1.1//EN" "http://www.w3.org/Graphics/SVG/1.1/DTD/svg11.dtd">
<svg version="1.1" id="Layer_1" xmlns="http://www.w3.org/2000/svg" xmlns:xlink="http://www.w3.org/1999/xlink" x="0px" y="0px"
	 width="800px" height="600px" viewBox="0 0 800 600" enable-background="new 0 0 800 600" xml:space="preserve">
<g>
	<g>
		<path fill="#213B10" d="M615.744,264.019c-2.451-2.778-7.104-3.13-10.373-1.837c-2.814,1.113-5.145,4.255-2.72,7.004
			c3.374,3.825,5.496,8.217,5.641,13.368c0.075,2.665-0.68,5.062-1.802,7.447c-0.719,1.53-1.107,1.412-2.574,2.266
			c0.671-0.391-1.525,0.608-1.804,0.716c-0.332,0.129-2.212,0.74-2.077,0.713c-2.143,0.591-4.333,1.007-6.522,1.382
			c-2.086,0.356-4.188,0.611-6.292,0.833c-0.1,0.01-0.185,0.018-0.264,0.026c-0.361,0.03-0.723,0.058-1.084,0.084
			c-0.728,0.054-1.457,0.095-2.186,0.133c-2.918,0.153-7.581,1.36-7.581,5.12c0,3.545,4.661,5.272,7.581,5.12
			c10.63-0.555,22.18-1.781,31.538-7.229c5.515-3.21,7.767-9.54,8.207-15.613C623.954,276.368,620.367,269.259,615.744,264.019z"/>
		<path fill="#213B10" d="M588.149,250.082c1.04-0.236,3.195-1.194,3.788-2.498c3.234,1.613,6.517,3.113,9.976,4.249
			c2.439,0.801,5.458,0.677,7.906,0c1.283-0.355,5.26-2.101,3.599-4.179c-5.662-7.082-12.229-13.331-17.792-20.52
			c-5.194-6.713-10.34-13.462-15.481-20.215c-4.238-5.567-8.468-11.14-12.703-16.709c-1.348-3.398-3.755-6.389-6.25-9.074
			c-0.851-0.916-1.754-1.781-2.678-2.625c-3.022-3.945-6.052-7.883-9.101-11.807c-7.045-9.066-14.085-18.034-22.27-26.099
			c-13.034-12.843-26.069-25.883-42.313-34.666c-5.137-2.777-10.676-4.901-16.317-6.393c-3.27-0.865-7.924-0.924-10.715,1.327
			c-2.787,2.248,0.639,4.488,2.81,5.063c1.625,0.43,3.22,0.931,4.786,1.497c-2.551,0.379-4.705,1.452-4.972,3.62
			c-0.713,5.781,1.652,11.31,1.385,17.084c-0.085,1.84,2.531,2.822,3.879,3.195c3.014,0.834,6.625,0.751,9.491-0.579
			c-0.16,0.074,1.268-0.516,1.413-0.608c0.057-0.013,0.122-0.028,0.193-0.045c3.186,1.468,5.599,4.762,7.593,7.525
			c2.04,2.826,4.872,6.199,5.041,9.783c0.121,2.569-0.546,5.113-0.646,7.673c-0.22,5.633,5.074,6.869,10.394,6.45
			c1.268,0.237,2.502,0.31,3.258,0.319c0.097,0.001,0.233,0.007,0.375,0.014c0.328,0.037,0.655,0.077,0.982,0.12
			c0.349,0.046,0.696,0.11,1.044,0.169c0.258,0.052,1.012,0.195,1.161,0.229c2.741,0.62,5.43,1.465,8.087,2.376
			c2.222,0.762,4.576,1.709,6.955,2.765c0.694,0.783,1.347,1.609,1.947,2.494c3.239,4.778,3.622,10.292,2.554,15.838
			c-0.33,1.71,2.738,2.959,3.879,3.195c8.278,1.714,15.154,5.959,20.393,13.21c4.887,6.765,7.727,14.796,10.213,22.685
			c1.969,6.248,3.43,13.109,6.977,18.705C571.54,250.836,580.438,251.837,588.149,250.082z M504.987,146.513
			c-0.008-0.058-0.013-0.118-0.021-0.176c0.043,0.05,0.088,0.099,0.131,0.149C505.059,146.496,505.024,146.505,504.987,146.513z
			 M584.202,243.887c0,0-0.001,0-0.001-0.001C584.86,244.073,584.592,244.022,584.202,243.887z M578.56,233.973
			c-1.439-3.96-2.581-8.043-3.823-12.076c3.188,4.158,6.438,8.263,9.805,12.259C582.616,233.782,580.529,233.679,578.56,233.973z"/>
		<path fill="#213B10" d="M523.114,323.416c-3.095-0.394-8.559-0.236-10.291,3.038c-0.993,1.876,0.327,3.258,2.054,4.154
			c-0.023,0.077-0.045,0.146-0.067,0.197c-0.302,0.713-0.716,1.38-1.132,2.031c-0.211,0.331-0.441,0.65-0.669,0.969
			c-0.18,0.252-1.261,1.592-0.266,0.384c-5.099,6.193,10.983,8.597,14.447,4.39c1.971-2.394,3.897-4.809,4.508-7.928
			C532.629,325.906,526.721,323.875,523.114,323.416z"/>
		<path fill="#213B10" d="M491.148,396.41c-0.597-3.328-5.419-3.905-8.121-3.905c-1.938,0-3.979,0.296-5.743,1.144
			c-0.859,0.413-2.604,1.507-2.378,2.762c0.471,2.631,1.336,4.988,1.847,7.388c0.706,3.32,5.328,3.905,8.121,3.905
			c1.939,0,3.979-0.296,5.743-1.144c0.825-0.397,2.642-1.525,2.379-2.762C492.446,401.214,491.603,398.942,491.148,396.41z"/>
		<path fill="#213B10" d="M463.679,421.206c-3.549-2.272-8.571-2.503-12.096,0c-3.083,2.188-3.345,6.447,0,8.587
			c0.669,0.429,1.319,0.876,1.955,1.351c0.147,0.113,0.287,0.234,0.432,0.35c-0.184-0.13,0.665,0.634,0.81,0.791
			c0.253,0.284,0.494,0.578,0.724,0.881c0.102,0.129,0.174,0.216,0.234,0.285c0.026,0.051,0.05,0.099,0.084,0.164
			c0.164,0.332,0.309,0.672,0.436,1.019c0.087,0.219,0.458,1.744,0.683,2.262c1.304,2.996,4.721,4.371,8.078,4.371
			c2.986,0,9.146-1.917,8.554-6.073C472.693,429.026,468.837,424.507,463.679,421.206z"/>
		<path fill="#213B10" d="M516.616,229.545c-2.528-0.797-5.247-0.852-7.746-0.137c-1.412-1.132-2.706-2.427-3.995-3.689
			c-1.69-1.654-3.426-3.211-5.225-4.701c1.336-2.004,1.252-4.562-1.552-7.143c-8.02-7.381-16.041-14.763-24.062-22.144
			c0.925-0.225,1.818-0.565,2.644-1.037c2.809-1.604,3.098-4.92,0-6.463c-7.081-3.525-13.709-7.81-19.883-12.749
			c-3.506-2.804-6.679-5.981-10.139-8.828c-0.67-0.551-1.413-0.992-2.201-1.34c2.55-0.167,6.759-0.876,6.759-3.446
			c0-2.148-2.941-2.995-5.396-3.314c0.521-0.518,0.85-1.155,0.85-1.946c0-3.33-5.705-4-7.971-4c-2.267,0-7.971,0.67-7.971,4
			c0,2.252,2.609,3.285,4.999,3.719c-0.402,0.42-0.651,0.925-0.651,1.54c0,1.326,1.125,2.155,2.562,2.672
			c-0.658,0.11-1.306,0.267-1.928,0.475c-2.376,0.795-5.841,3.809-2.871,6.252c3.459,2.846,6.653,6.002,10.138,8.828
			c3.651,2.96,7.449,5.739,11.391,8.296c-3.141,2.071-4.512,5.618-0.606,9.213c3.056,2.812,6.112,5.625,9.168,8.438
			c-1.214,0.916-1.881,2.099-0.871,3.475c6.723,9.15,16.601,14.156,24.995,21.469c4.064,3.54,7.465,7.716,12.328,10.25
			c6.507,3.389,14.352,2.615,20.221-1.557C522.893,233.342,518.823,230.24,516.616,229.545z"/>
		<path fill="#213B10" d="M352.775,163.894c3.266-1.932,3.025-5.817,0-7.795c-3.497-2.287-8.405-2.081-11.921,0
			c-0.476,0.281-0.954,0.556-1.437,0.824c-0.015,0.008-0.022,0.012-0.036,0.02c-0.081,0.036-0.178,0.079-0.308,0.14
			c-0.526,0.243-1.067,0.448-1.609,0.651c-0.083,0.027-0.148,0.048-0.212,0.07c-0.176,0.037-0.35,0.081-0.528,0.11
			c-2.986,0.563-7.472,3.014-5.888,6.78c1.553,3.692,6.935,4.497,10.37,3.85C345.373,167.758,349.144,166.042,352.775,163.894z"/>
		<path fill="#213B10" d="M357.335,229.58c-0.993-0.93-2.419-1.401-3.675-1.805c-1.52-0.489-3.43-0.606-5-0.608
			c-2.01-0.003-4.131,0.296-5.969,1.154c-1.071,0.499-2.473,1.415-2.473,2.785c0,1.37,1.402,2.285,2.473,2.785
			c0.615,0.287,1.261,0.505,1.922,0.676c1.025,0.4,2.087,0.672,3.188,0.799c2.151,0.276,4.408,0.176,6.505-0.397
			c1.376-0.376,3.104-1.039,3.879-2.354c0.1-0.349,0.201-0.698,0.302-1.047C358.413,230.732,358.029,230.07,357.335,229.58z"/>
	</g>
	<path fill="#4BAB27" d="M645.8,268.757c-1.118-1.328-2.45-2.383-3.919-3.18c-0.103-5.087-0.902-10.181-2.421-15.37
		c-3.115-10.642-9.026-20.318-14.397-29.928c-0.411-0.735-1.08-1.351-1.909-1.846c0.064-0.447-0.037-0.913-0.401-1.387
		c-7.052-9.189-13.47-18.84-20.448-28.087c-11.248-14.907-24.73-27.643-39.955-38.459c-3.523-2.503-6.981-4.704-9.977-7.86
		c-3.343-3.521-6.173-7.429-9.842-10.646c-3.511-3.078-7.759-5.381-11.812-7.649c-4.607-2.579-8.958-5.495-13.403-8.337
		c-1.962-1.254-3.94-2.483-5.926-3.696c-5.044-4.752-9.71-9.942-15.066-14.326c-7.028-5.753-16.118-7.961-24.523-10.919
		c-0.297-0.104-0.611-0.193-0.934-0.274c-0.509-0.401-1.02-0.8-1.528-1.207c-0.336-0.799-0.914-1.525-1.781-2.072
		c-0.863-0.546-1.742-1.036-2.631-1.492c-8.511-6.832-17.318-13.051-27.757-16.657c-2.601-0.899-6.292-0.937-9.032,0.325
		c-2.764-1.809-5.487-3.66-8.186-5.44c-7.477-4.932-13.947-10.926-22.041-14.951c-0.681-0.339-1.456-0.61-2.272-0.859
		c-2.89-2.333-5.777-4.669-8.705-6.955c-2.777-2.168-6.085-4.978-9.472-6.02c-7.456-2.294-19.999-2.485-23.417,6.591
		c-1.692,4.493,1.2,9.075,2.858,13.117c2.179,5.31,4.38,10.609,6.597,15.903c4.451,10.631,9.353,20.866,14.632,31.125
		c3.358,6.526,6.469,13.053,8.664,20.055c-7.331-7.97-15.706-14.489-24.659-20.721c-10.295-7.166-21.041-13.738-32.749-18.337
		c-7.036-2.764-15.926-4.406-23.389-2.672c-9.471,2.2-18.321,7.119-14.846,18.05c1.052,3.311,3.796,6.335,5.888,8.963
		c2.166,2.722,4.621,5.215,7.036,7.713c0.222,0.229,0.438,0.463,0.659,0.692c0.079,0.55,0.166,1.099,0.272,1.647
		c0.601,3.107,1.379,6.057,3.227,8.648c2.014,2.58,2.447,3.178,1.299,1.791c0.374,0.573,0.723,1.16,1.048,1.761
		c0.768,1.358,1.347,2.826,1.931,4.269c2.363,5.841,5.581,10.556,10.7,14.341c1.551,1.147,3.114,2.277,4.68,3.403
		c0.068,0.451,0.125,0.913,0.172,1.391c0.763,7.687-0.559,16.024-1.334,23.692c-1.279,12.649-6.454,25.395-5.746,38.188
		c0.141,2.561,1.588,4.514,3.515,5.976c-0.268,1.139-0.508,2.269-0.753,3.343c-0.874,3.83-1.221,7.785-1.449,11.698
		c-0.201,3.466-0.124,6.926-0.464,10.386c-0.105,1.071-0.274,2.135-0.443,3.198c-0.008,0.054-0.428,2.085-0.389,2.06
		c-0.54,2.072-1.244,4.099-2.023,6.092c-1.441,3.688-3.384,7.164-5.522,10.487c-0.536,0.833-1.107,1.644-1.676,2.454
		c-0.123,0.175-0.223,0.318-0.305,0.436c-0.078,0.1-0.167,0.214-0.274,0.351c-1.446,1.859-2.991,3.64-4.558,5.397
		c-5.865,6.575-12.291,13.075-19.227,18.518c-0.087,0.068-0.166,0.13-0.238,0.187c-0.099,0.068-0.209,0.142-0.34,0.232
		c-0.828,0.571-1.681,1.103-2.534,1.635c-1.646,1.027-3.357,1.946-5.083,2.83c-0.845,0.433-1.705,0.834-2.564,1.236
		c-0.032,0.015-0.057,0.027-0.088,0.041c-1.963,0.814-3.957,1.556-5.954,2.283c-7.995,2.912-16.005,6.215-24.117,8.749
		c-5.456,1.705-11.1,2.783-16.621,4.253c-6.295,1.677-12.013,4.398-17.796,7.321c-10.072,5.089-19.792,10.8-29.437,16.651
		c-1.083,0.657-2.189,1.437-3.108,2.368c-3.071,1.519-6.02,3.983-6.02,7.512c0,6.031,8.35,9.248,13.199,9.695
		c29.424,2.714,59.389,3.217,88.902,1.948c4.295-0.185,8.577-0.501,12.863-0.824c1.287-0.097,2.766-0.38,8.537-0.8
		c11.559-0.883,23.293-1.842,34.568-4.629c9.573-2.365,18.24-7.141,27.531-10.317c5.305-1.814,9.086-5.146,11.319-10.237
		c0.612-1.396,1.117-2.841,1.679-4.257c0.227-0.572,0.479-1.131,0.739-1.688c1.507-0.985,2.998-2.106,4.347-3.314
		c1.907-1.706,3.337-4.019,4.789-6.1c0.098-0.141,0.662-0.895,0.964-1.312c0.555-0.643,1.149-1.25,1.763-1.837
		c0.211-0.201,0.694-0.573,1.065-0.853c0.71-0.434,1.442-0.834,2.172-1.229c8.146-4.406,16.304-7.351,21.786-15.368
		c2.389-3.494,3.864-7.749,5.427-11.663c1.868-4.677,3.47-9.458,4.904-14.284c2.929-9.855,5.079-20.023,5.967-30.272
		c1.829-21.104-3.828-42.747-9.085-63.01c0.945,1.679,1.909,3.351,2.914,5.007c7.618,12.556,16.179,23.956,26.518,34.377
		c12.209,12.306,23.178,25.933,33.931,39.516c1.691,2.135,4.061,3.577,6.703,4.443c-6.141,5.744-11.739,12.057-17.006,18.603
		c-11.968,14.873-22.108,31.108-33.925,46.096c-4.702,5.963-9.047,11.81-12.927,18.167c-0.397-0.025-0.766-0.037-1.091-0.037
		c-3.041,0-6.941,0.747-8.652,3.574c-4.702,7.774-6.715,16.666-9.8,25.123c-0.385,1.057-0.811,2.086-1.268,3.092
		c-1.689,0.756-2.942,1.894-2.642,3.554c0.074,0.408,0.123,0.815,0.153,1.221c-3.026,5.185-6.765,9.904-10.264,14.911
		c-5.21,7.455-9.857,15.39-12.172,24.251c-2.265,8.668-3.123,17.725-3.587,26.686c-2.25,9.405-5.791,18.468-8.236,27.836
		c-2.574,9.862-5.673,19.956-7.21,30.033c-1.533,10.045-0.584,20.336-0.628,30.447c-0.058,13.434-1.756,31.832,13.174,38.295
		c4.436,1.92,13.828,2.765,15.316-3.442c0.141-0.586,0.272-1.173,0.396-1.76c1.939-0.3,3.8-1.002,5.305-2.248
		c4.612-3.82,6.368-8.443,6.828-13.53c2.274,0.103,4.466-0.122,5.653-0.423c9.223-2.339,17.898-8.353,25.447-13.902
		c4.957-3.644,11.691-8.825,14.947-14.994c2.961-0.152,6.007-1.111,7.595-3.565c1.981-3.06,2.599-6.647,4.183-9.891
		c1.297-2.655,6.049-4.294,8.304-6.031c1.774-1.366,1.356-3.499,0-4.913c-1.186-1.238-2.691-2.12-4.24-2.828
		c-0.371-0.17-0.744-0.335-1.115-0.502c0.778-0.772-0.068-0.035,1.068-0.738c1.777-1.098,3.596-2.039,5.29-3.275
		c2.889-2.109,5.212-5.213,6.362-8.593c1.24-3.645,1.236-7.569,2.312-11.25c1.243-4.255,4.114-8.236,6.343-12.019
		c2.572-4.363,4.564-8.621,5.281-13.677c0.647-4.566,0.125-9.12,2.094-13.412c2.305-5.025,6.025-9.744,9.047-14.362
		c11.716-17.904,23.219-35.672,31.881-55.313c3.786-8.585,5.894-18.068,10.943-26.019c4.288-6.751,10.009-12.652,12.515-20.402
		c0.264-0.817,0.476-1.653,0.655-2.496c0.394,2.991,1.782,5.539,5.339,6.86c4.482,1.665,8.366,1.086,11.504-0.845
		c2.109,3.005,7.079,3.192,10.378,2.279c1.921,3.423,6.426,4.541,10.091,3.392c2.113,2.744,6.626,3.439,10.156,2.252
		c0.112,0.216,0.218,0.436,0.341,0.646c1.969,3.365,7.412,3.952,11.196,2.239c2.292,0.716,4.951,0.524,7.099-0.461
		c4.167,2.032,10.803,0.68,12.219-3.737c0.228-0.71,0.376-1.409,0.455-2.094c2.495-0.37,4.834-1.546,6.254-3.634
		c0.83-1.22,1.322-2.573,1.63-3.979c1.755-0.617,3.237-1.693,3.344-3.504C644.161,297.736,656.51,281.484,645.8,268.757z
		 M586.785,203.398c0.008-0.17-0.003-0.331-0.012-0.494c1.049,1.197,2.075,2.412,3.046,3.671c0.137,0.178,0.263,0.359,0.395,0.539
		c-1.199,0.223-2.538,0.59-3.613,1.153c-0.097-0.123-0.197-0.243-0.3-0.363C586.543,206.431,586.715,204.933,586.785,203.398z
		 M471.012,202.244c-5.553-5.629-10.471-11.61-15.026-18.073c-2.419-3.433-4.728-6.944-6.97-10.494
		c-0.301-0.477-0.595-0.958-0.891-1.438c-0.084-0.147-0.765-1.276-0.926-1.551c-1.115-1.904-2.13-3.86-3.146-5.818
		c-3.453-6.651-6.503-13.481-10.313-19.946c-2.464-4.181-5.075-8.271-7.632-12.395c-0.071-0.115-0.132-0.213-0.189-0.304
		c-0.086-0.146-0.197-0.336-0.346-0.587c-0.527-0.889-1.032-1.791-1.537-2.693c-1.221-2.185-2.322-4.433-3.355-6.713
		c-1.962-4.332-3.214-8.883-4.744-13.37c-1.454-4.264-3.434-8.313-5.44-12.339c-3.157-6.338-6.518-12.572-9.654-18.92
		c1.65,0.398,3.381,0.651,5.292,0.758c4.299,0.24,9.252-1.219,12.577-4.16c4.987,3.05,10.044,5.963,15.18,8.828
		c7.185,4.009,16.102,4.072,23.044,8.46c0.774,0.489,1.614,0.878,2.487,1.156c4.319,3.512,8.685,6.915,13.332,9.761
		c8.517,5.214,17.351,9.908,25.923,15.04c3.543,3.338,7.077,6.684,10.487,10.165c6.921,7.063,13.61,14.346,21.45,20.421
		c7.47,5.788,13.512,12.663,19.584,19.86c5.942,7.043,12.411,12.995,19.449,18.908c4.39,3.688,8.802,7.477,12.885,11.567
		c-4.026-1.294-9.706-0.323-11.523,2.964c-1.654-0.204-3.298-0.324-4.869-0.349c-2.986-0.049-6.967,1.635-7.51,4.891
		c-0.485,0.127-0.954,0.291-1.394,0.498c-4.048,1.9-7.17,4.586-9.983,8.031c-2.593,3.176-4.771,5.429-8.606,7.087
		c-4.214,1.822-8.338,3.376-12.03,6.205c-4.286,3.283-8.021,7.401-12.265,10.789c-2.348,1.874-4.762,3.67-7.193,5.447
		C495.725,229.499,483.942,215.351,471.012,202.244z M567.333,208.04c-0.027-0.012-0.055-0.025-0.082-0.038
		c-0.011-0.011-0.02-0.023-0.031-0.034c0.029,0.008,0.055,0.016,0.076,0.02C567.307,208.003,567.32,208.022,567.333,208.04z
		 M459.148,493.999C458.993,494.235,458.653,494.507,459.148,493.999L459.148,493.999z M557.368,241.242
		c-0.749,3.741-0.827,7.556-1.625,11.289c-3.895,18.217-11.825,35.724-18.733,52.943c-0.177,0.44-0.282,0.86-0.332,1.262
		c-0.411,0.567-0.682,1.21-0.751,1.939c-0.749,7.856-6.408,14.239-10.825,20.408c-5.457,7.624-7.758,16.134-11.24,24.726
		c-7.993,19.729-19.2,37.734-30.89,55.432c-5.649,8.552-13.193,17.293-14.185,27.806c-0.445,4.713-0.447,8.875-2.507,13.235
		c-2.078,4.398-4.899,8.42-7.148,12.731c-1.959,3.755-2.88,7.705-3.506,11.864c-0.559,3.715-1.506,6.528-4.358,9.112
		c-0.07,0.064-0.125,0.115-0.172,0.16c-0.105,0.058-0.234,0.132-0.416,0.241c-0.67,0.402-1.358,0.775-2.036,1.163
		c-1.634,0.933-3.211,1.996-4.657,3.2c-2.009,1.673-2.843,3.839-2.489,5.939c-1.334-0.112-2.661-0.08-3.862,0.069
		c-6.13,0.758-11,5.103-14.908,9.568c-0.658,0.751-1.31,1.504-1.972,2.246c-3.282-0.344-6.92,0.307-8.718,1.364
		c-2.704,1.589-4.544,3.535-6.002,6.304c-0.554,1.051-0.536,1.934-0.153,2.674c-2.895-0.275-5.841,0.057-8.645,0.91
		c-0.095-2.497-0.19-4.994-0.299-7.492c-0.227-5.208-0.804-10.383-0.786-15.603c0.019-5.513,1.166-10.837,2.713-16.097
		c2.943-10.004,3.151-20.092,3.979-30.418c0.381-4.745,0.989-9.46,1.925-14.129c1.056-5.271,2.905-10.372,4.187-15.595
		c1.206-4.91,3.017-9.591,4.325-14.46c1.317-4.899,1.895-9.943,2.897-14.907c1.414-7.011,6.026-13.214,9.48-19.341
		c1.951-3.46,4.032-7.359,5.217-11.402c2.983-5.91,6.051-11.771,9.754-17.277c5.291-7.867,11.791-14.963,17.371-22.646
		c5.632-7.755,11.06-15.657,16.717-23.394c5.647-7.723,11.572-15.245,18.087-22.259c6.723-7.238,14.461-13.03,22.391-18.865
		c3.992-2.938,7.958-5.907,11.811-9.027c4.162-3.37,7.789-7.582,12.204-10.589c3.241-2.207,7.452-3.016,10.884-4.948
		c4.196-2.363,7.266-5.545,10.245-9.274c0.404-0.506,0.809-0.987,1.229-1.442c1.402,0.502,2.845,0.893,4.245,1.215
		c-1.362,3.012-2.853,5.982-4.228,8.972C559.751,232.837,558.231,236.933,557.368,241.242z M620.988,301.899
		c-3.464,0.25-8.204,1.981-8.105,6.271c0.003,0.145,0.009,0.295,0.013,0.442c-1.337-0.201-2.719-0.18-4.056,0.024
		c-1.39-0.63-2.996-1.064-4.866-1.247c-1.979-0.194-3.866,0.207-5.592,1.012c-1.253-0.838-2.644-1.467-4.176-1.791
		c-0.987-0.209-1.94-0.299-2.869-0.293c-1.764-2.09-4.113-3.668-7.281-4.386c-1.31-0.297-2.741-0.308-4.112-0.041
		c-1.025-1.307-2.202-2.463-3.566-3.367c-1.762-1.168-4.01-1.773-6.182-1.732c-1.464-3.771-7.148-4.923-11.295-3.431
		c5.103-12.633,9.96-25.463,12.789-38.694c0.78-3.649,1.061-7.271,1.575-10.951c0.622-4.455,2.657-8.804,4.518-12.854
		c1.735-3.776,3.532-7.484,5.064-11.266c1.335-0.617,2.568-1.442,3.631-2.547c0.201-0.208,0.378-0.418,0.544-0.628
		c6.369,12.397,13.865,24.207,21.776,35.669c1.127,1.632,2.925,2.473,4.833,2.853c0.755,3.364,1.699,6.68,3.023,9.839
		c0.826,1.97,2.152,3.439,3.792,4.528c-2.035,2.297-3.81,5.734-2.534,8.613c0.732,1.651,2.016,2.855,3.422,3.94
		c-1.876,1.961-2.328,5.151-0.583,7.241c0.3,0.832,0.541,1.686,0.779,2.537c0.666,2.386,1.406,5.814,1.714,7.604
		c0.167,0.971,0.311,1.945,0.444,2.921C622.853,301.935,621.961,301.829,620.988,301.899z"/>
	<g>
		<path fill="#82A016" d="M515.883,320.68c-1.902-0.717-4.774-0.469-5.587,1.761c-1.219,3.343,0.231,7.002,0.964,10.296
			c1.241,5.574,0.25,10.821-2.148,15.853c-0.57,0.216-1.083,0.544-1.473,1.001c-2.252,2.641-5.089,5.359-8.818,4.675
			c-1.495-0.275-4.093,0.591-4.778,2.06c-2.206,0.142-4.399,1.219-3.24,3.458c0.944,1.821,2.104,3.86,3.532,5.639
			c0.771,4.127-0.82,9.534-1.806,12.643c-1.081,3.405-2.579,6.697-4.518,9.697c-1.177,1.822-3.09,4.421-4.842,4.652
			c-1.496,0.198-3.464,1.951-2.656,3.624c3.519,7.288-3.924,14.301-8.726,18.989c-1.946,1.9-4.551,3.972-7.382,4.22
			c-1.714,0.15-3.402-0.123-5.106,0.241c-5.099,1.09-5.473,6.802-3.476,10.665c1.143,2.211,2.682,4.158,4.249,6.077
			c-0.216,6.752-0.708,12.924-3.125,19.382c-3.221,8.609-8.128,16.519-12.248,24.705c-1.831,3.638,5.654,4.904,7.334,1.566
			c6.202-12.323,13.579-23.902,15.241-37.649c1.856-0.029,3.749-1.011,3.913-2.929c0.253-7.18,6.299-14.723,11.415-19.215
			c2.383-2.092,0.19-5.306-2.689-5.029c-0.221,0.021-0.442,0.045-0.664,0.067c0.937-0.947,1.847-1.924,2.742-2.903
			c4.293-4.694,8.305-10.952,6.732-17.324c5.612-3.115,9.031-11.254,10.901-16.558c1.037-2.942,2.043-6.674,2.319-10.385
			c1.501-0.043,3.449-0.603,4.747-1.626c0.84-0.229,1.586-0.605,2.035-1.088c2.366-2.547,4.017-6.01,5.755-8.987
			c2.35-4.026,4.625-8.106,6.756-12.252C525.555,337.608,526.294,324.603,515.883,320.68z"/>
		<path fill="#82A016" d="M554.915,224.28c-8.012,6.125-14.573,14.074-23.383,19.147c-8.933,5.144-18.648,9.133-28.4,12.424
			c-3.499,1.18-5.271,5.501-2.943,8.518c2.683,3.477,7.45,3.506,11.222,2.233c0.099-0.033,0.198-0.07,0.298-0.103
			c2.854,1.452,5.743,1.427,8.918,2.051c3.265,0.641,6.274,1.917,9.2,3.476c4.219,2.247,7.628,6.05,8.841,10.422
			c1.969,7.095,15.594,5.684,16.111-1.655c1.231-17.463,8.418-34.001,13.844-50.456C571.114,222.787,559.368,220.875,554.915,224.28
			z"/>
		<path fill="#82A016" d="M470.259,300.714c0,3.788,6.05,4.706,8.728,4.706c2.678,0,8.728-0.918,8.728-4.706
			c0-1.057-0.481-1.883-1.218-2.536c1.24-0.669,2.127-1.631,2.127-3.005c0-3.709-6.437-4.428-8.944-4.428
			c-2.507,0-8.944,0.719-8.944,4.428c0,1.076,0.551,1.893,1.38,2.521C471.021,298.402,470.259,299.376,470.259,300.714z"/>
		<path fill="#82A016" d="M454.078,339.5c0-0.015-0.003-0.028-0.003-0.042c3.128-0.845,6.039-3.073,6.039-6.538
			c0-4.501-4.913-6.925-8.832-6.925c-3.919,0-8.832,2.424-8.832,6.925c0,0.385,0.048,0.749,0.116,1.104
			c-2.409,0.907-4.469,2.745-4.469,5.476c0,4.043,4.512,6.136,7.99,6.136C449.566,345.636,454.078,343.543,454.078,339.5z"/>
		<path fill="#82A016" d="M430.85,361.985c-2.38,0-7.722,0.823-7.722,4.181c0,0.112,0.021,0.214,0.033,0.321
			c-1.663,0.766-2.97,1.987-2.97,3.835c0,3.765,5.416,4.936,8.236,4.936c2.819,0,8.236-1.171,8.236-4.936
			c0-0.433-0.079-0.828-0.21-1.194c1.22-0.643,2.121-1.587,2.121-2.962C438.572,362.807,433.23,361.985,430.85,361.985z"/>
		<path fill="#82A016" d="M428.304,401.516c0.009-0.124,0.027-0.244,0.027-0.373c0-4.096-4.774-6.055-8.217-6.055
			s-8.217,1.959-8.217,6.055c0,1.332,0.51,2.434,1.31,3.32c-0.054,0.266-0.09,0.542-0.09,0.835c0,4.096,5.562,5.541,8.728,5.541
			c3.166,0,8.728-1.445,8.728-5.541C430.574,403.617,429.629,402.388,428.304,401.516z"/>
		<path fill="#82A016" d="M415.266,501.312c-3.313-0.191-5.854-3.287-8.573-4.838c-3.424-1.953-8.442-1.488-9.578,2.818
			c-0.373,1.414,0.451,2.42,1.692,2.974c-0.44,0.299-0.783,0.687-0.938,1.182c-0.668,2.127-0.124,3.984,1.949,5.057
			c0.064,0.033,0.133,0.056,0.197,0.087c-0.971,1.098-1.322,2.58-0.476,4.776c1.24,3.218,9.331,2.275,7.905-1.427
			c-0.402-1.044-0.801-0.651-0.011-0.945c0.867-0.322,1.766-0.536,2.629-0.872c1.756-0.684,2.273-2.089,1.654-3.248
			c1.183-0.093,2.366-0.174,3.55-0.195c1.533-0.028,4.099-0.716,4.099-2.685C419.365,501.985,416.797,501.4,415.266,501.312z"/>
		<path fill="#82A016" d="M375.92,307.206c-8.99,11.674-23.947,19.509-37.07,25.529c-9.232,4.235-18.649,7.892-28.605,10.017
			c-38.042,8.122-76.922,2.998-115.417,3.73c-1.232,0.023-3.977,0.413-3.977,2.163c0,1.718,2.746,2.186,3.977,2.163
			c17.847-0.339,35.754,0.508,53.621,0.769c-0.129,0.218-0.209,0.461-0.209,0.737c0,1.783,2.747,2.091,3.977,2.163
			c29.54,1.723,59.335-3.312,86.92-13.927c8.483-3.265,16.833-7.041,24.691-11.624c4.004-2.335,8.169-4.61,11.876-7.381
			c3.435-2.567,11.15-9.262,7.886-14.34C382.075,304.848,377.508,305.143,375.92,307.206z"/>
		<path fill="#82A016" d="M406.048,167.65c2.812-1.112,5.147-4.257,2.72-7.004c-8.199-9.284-21.396-16.036-33.795-16.241
			c-14.145-0.234-27.332,6.295-38.6,14.28c-2.767,1.961-2.877,5.297,0,7.24c2.981,2.013,7.752,2.105,10.722,0
			c7.912-5.607,16.763-10.839,26.706-11.266c1.183-0.051,2.367,0.004,3.549,0.06c-1.702-0.08,1.554,0.438,0.993,0.271
			c2.215,0.659,4.407,1.616,6.438,2.712c3.947,2.131,7.908,4.728,10.896,8.111C398.128,168.59,402.778,168.944,406.048,167.65z"/>
	</g>
	<g>
		<path fill="#4B791A" d="M427.597,99.069c-3.928,1.574-7.101,3.802-9.446,6.706c0.363-3.209,1.43-6.223,4.078-8.423
			c2.9-2.409,6.828-2.874,10.34-3.427c1.909-0.301,4.629-0.794,5.732-2.644c0.731-1.226-0.027-2.312-1.014-3.042
			c0.784-0.53,1.307-1.243,1.307-2.22c0-2.591-4.027-3.557-6.672-3.758c-0.009-0.003-0.016-0.005-0.025-0.008
			c-0.076-0.023-0.132-0.04-0.188-0.057c-0.044-0.017-0.079-0.03-0.132-0.05c-0.78-0.293-1.548-0.615-2.316-0.936
			c-2.999-1.256-5.931-2.676-8.845-4.115c-2.93-1.447-5.829-2.96-8.704-4.513c-1.071-0.579-2.134-1.171-3.193-1.771
			c-0.229-0.13-0.456-0.264-0.684-0.396c0.039,0.017-0.646-0.397-0.836-0.522c-1.54-1.007-3.344-1.584-5.206-1.807
			c-0.193-0.315-0.384-0.632-0.583-0.945c-2.538-4.004-3.896-7.909-8.063-10.639c-3.213-2.105-7.579-2.344-11.228-1.358
			c-1.929,0.521-6.189,3.054-2.944,5.18c3.33,2.181,4.484,5.501,6.409,8.83c2.415,4.176,4.757,8.375,7.034,12.631
			c2.367,4.425,3.862,8.997,5.585,13.7c1.744,4.758,3.135,8.95,3.578,14.058c0.326,3.762,8.169,4.839,12.893,3.376
			c-0.24,0.825-0.446,1.677-0.604,2.567c-1.122,6.313,0.336,12.973,5.039,17.226c-0.496,0.843-0.55,1.864,0.062,3.044
			c7.53,14.513,29.593,5.34,38.611-2.686c4.954-4.409,6.907-12.018,6.446-18.41c-0.556-7.706-4.947-13.59-11.79-16.896
			C444.948,94.241,434.748,96.205,427.597,99.069z"/>
		<path fill="#4B791A" d="M545.147,197.91c-0.752-1.108-1.722-2.082-3.052-2.872c-3.669-2.181-10.037-2.033-13.799,0.555
			c-2.094-1.44-4.835-1.917-7.497-1.643c3.708-5.25,4.202-11.619,2.182-17.785c0.356-1.413,0.114-2.906-0.498-4.285
			c-0.911-2.051-2.635-3.405-4.643-4.139c-0.991-4.057-6.427-6.021-10.163-6.005c-4.985,0.022-9.703,1.905-13.859,4.546
			c-2.343-0.997-5.242-1.19-7.737-0.598c2.842-3.256,4.974-7.141,6.12-11.298c2.112-7.669,1.175-16.467-6.244-20.8
			c-9.776-5.71-20.409-0.362-29.259,2.892c-8.539,3.139-12.487,11.645-14.774,19.824c-0.366,1.309,0.899,2.346,2.87,2.993
			c-0.164,3.258,0.824,6.653,2.617,9.134c5.519,7.637,17.746,7.94,25.916,5.561c2.614-0.761,5.06-1.953,7.291-3.464
			c-0.075,0.428-0.109,0.879-0.078,1.36c0.313,4.893-1.651,9.47-2.612,14.226c-1.283,0.728-2.255,1.828-2.613,3.429
			c-1.742,7.776,0.279,14.825,6.061,20.316c3.451,3.277,7.872,4.221,12.222,3.642c2.078,0.072,4.132,0.004,6.211-0.049
			c0.271,1.523-0.064,3.215-0.076,4.75c-0.017,2.25,0.74,5.822,2.433,7.434c3.347,3.186,9.209,3.26,13.473,2.495
			c3.881-0.697,7.285-2.402,8.293-6.4c0.265-1.049,0.457-2.12,0.623-3.196c3.3,0.22,6.817-0.614,8.35-2.25
			c1.951-2.082,3.313-4.516,4.518-7.046c4.949,0.379,17.051-0.199,14.673-8.008C551.457,199.136,548.42,198.045,545.147,197.91z
			 M509.738,206.046c-0.527-0.179-1.066-0.331-1.613-0.457c0.655-0.531,1.373-1.101,2.071-1.653
			C510.021,204.641,509.872,205.349,509.738,206.046z"/>
		<path fill="#4B791A" d="M613.522,269.866c-0.573-1.603-3.186-2.336-4.973-2.656c1.442-2.416,2.474-5.066,2.85-8.053
			c0.331-2.622-4.54-3.649-6.192-3.865c-0.873-0.114-1.94-0.189-3.057-0.17c-1.47-2.816-9.033-3.109-13.172-1.906
			c-3.179-0.831-6.997-0.743-9.985,0.682c-2.426,1.157-4.675,2.874-7.297,3.529c-2.378,0.594-6.001,3.071-3.026,5.484
			c0.732,0.594,1.577,1.033,2.485,1.35c-1.643,2.329-3.213,4.702-4.375,7.336c-0.667,1.512-0.286,2.585,0.7,3.325
			c-0.058,0.088-0.122,0.17-0.177,0.262c-1.498,2.518-0.276,5.931,0.652,8.384c0.747,1.976,1.792,4.079,3.083,6.072
			c-0.032,0.105-0.072,0.205-0.102,0.311c-0.821,2.877,1.341,4.204,4.242,4.682c1.768,1.63,3.757,2.914,5.935,3.57
			c9.708,2.924,19.57-1.307,25.942-8.637C611.475,284.481,615.986,276.762,613.522,269.866z M591.408,291.943
			C592.016,292.212,591.754,292.132,591.408,291.943L591.408,291.943z"/>
		<path fill="#4B791A" d="M533.914,276.71c-10.419-7.627-28.477-8.958-38.207-0.114c-5.098,0.905-9.055,4.547-10.954,9.267
			c-1.603,3.986-1.01,8.333-0.07,12.39c0.513,2.215,1.684,4.012,3.147,5.586c-0.575-0.125-1.154-0.237-1.739-0.332
			c-9.504-1.536-18.876,1.311-26.136,7.484c-5.98,5.085-10.052,14.04-7.972,21.825c0.618,2.311,2.181,4.47,3.678,6.455
			c-0.586,0.115-1.169,0.24-1.746,0.388c-7.011,1.8-13.671,5.874-17.501,12.08c-2.194,3.554-2.164,9.444-1.774,13.452
			c0.315,3.237,1.592,5.785,3.589,7.55c-2.96,0.875-5.866,1.952-8.752,3.029c-2.158,0.805-4.913,2.699-4.331,5.274
			c-1.72,1.187-3.232,2.642-4.403,4.406c-1.445,2.178-2.006,4.799-2.106,7.387c-0.154,3.986,2.016,6.175,4.975,8.422
			c0.984,0.747,2.074,1.365,3.107,2.047c0.026,0.025,0.056,0.053,0.093,0.088c-0.021,0.031-0.043,0.079-0.069,0.165
			c-0.461,1.533-1.183,2.881-1.903,4.226c-3.319-0.63-7.195-0.025-9.284,1.362c-5.683,3.774-8.374,10.66-10.533,16.862
			c-1.001,2.875-1.684,5.78-2.137,8.789c-0.365,2.419-0.577,5.945-2.227,7.641c-2.268,2.332-0.931,4.776,1.2,6.257
			c-1.318,0.987-2.462,2.228-3.356,3.783c-2.083,3.627-0.654,6.653,2.04,8.451c-1.67,1.106-2.866,2.753-2.866,4.973
			c0,1.75,0.804,3.199,2.005,4.301c-0.438,0.837-0.672,1.823-0.62,2.971c0.187,4.183-0.846,8.288-0.346,12.467
			c0.252,2.108,1.361,3.755,2.904,4.897c0.954,3.615,2.938,6.754,6.089,9.242c4.599,3.631,12.187,4.376,16.972,0.684
			c0.765-0.59,1.406-1.248,1.944-1.95c0.136,0.041,0.267,0.09,0.405,0.128c5.898,1.64,11.569-0.338,15.526-4.857
			c3.41-3.897,4.275-9.72,4.641-14.661c0.384-5.193,0.199-10.785-1.072-15.844c-0.588-2.34-1.648-4.358-3.037-6.106
			c0.297,0.024,0.587,0.043,0.858,0.055c3.83,0.16,8.633-0.661,11.959-2.674c5.627-3.405,5.318-10.236,5.312-16.021
			c-0.005-4.838-0.684-9.616-3.902-12.446c0.22-2.292-0.076-4.276-0.76-6.007c0.113,0.02,0.222,0.036,0.327,0.047
			c1.793,0.19,3.545,0.174,5.251-0.027c3.264,0.157,6.754-0.89,8.825-2.831c1.812-0.969,3.544-2.145,5.181-3.505
			c3.865-3.209,6.303-7.379,4.154-11.758c0.926-3.856,0.089-8.006-1.737-11.577c1.057,0,2.063-0.078,2.965-0.227
			c5.336-0.884,9.173-4.431,10.912-9.444c2.364-6.815,3.492-18.328-1.361-24.379c-0.265-0.33-0.549-0.636-0.841-0.93
			c0.632,0.064,1.256,0.109,1.863,0.132c9.36,0.351,17.482-4.704,19.489-13.996c1.487-6.88-0.083-14.735-3.12-21.228
			c0.299,0.063,0.598,0.119,0.899,0.171c1.189,1.865,4.145,2.989,6.046,3.326c4.637,0.822,8.717,0.038,12.819-1.66
			c0.81-0.299,1.607-0.649,2.416-1.094c1.575-0.866,2.366-2.138,2.453-3.442c1.942-0.77,3.797-1.68,5.51-2.742
			c6.945-4.302,7.469-12.098,5.885-19.409C542.924,288.272,540.051,281.203,533.914,276.71z M418.72,495.101
			c-0.004-0.001-0.006-0.003-0.01-0.004c0.004,0.001,0.008,0.003,0.012,0.004C418.721,495.101,418.72,495.101,418.72,495.101z
			 M424.824,447.062c-0.97-0.27-1.999-0.521-3.069-0.743c0.292-0.129,0.58-0.27,0.86-0.425c0.528,0.158,1.067,0.284,1.603,0.372
			c0.226,0.037,0.452,0.068,0.68,0.095C424.87,446.595,424.847,446.829,424.824,447.062z M482.979,361.855
			C483.426,361.464,483.509,361.648,482.979,361.855L482.979,361.855z"/>
		<path fill="#4B791A" d="M375.464,555.942c-0.496-4.36-2.203-8.179-3.613-12.284c-1.409-4.1-1.723-8.665-1.891-12.965
			c-0.375-9.619,2.132-18.892,4.264-28.181c2.005-8.739,5.197-17.157,6.617-26.03c1.536-9.598,0.873-19.602,0.857-29.281
			c-0.012-7.051-14.603-7.048-14.592,0c0.016,9.747,0.439,19.591-0.857,29.281c-0.576,4.309-2.041,8.527-3.306,12.671
			c-1.324,4.341-2.356,8.717-3.383,13.135c-2.179,9.372-4.41,18.722-4.193,28.405c0.102,4.528,0.723,9.159,1.81,13.558
			c0.974,3.943,3.234,7.645,3.694,11.691C361.676,562.998,376.245,562.804,375.464,555.942z"/>
		<path fill="#4B791A" d="M383.406,563.072c-1.87,0-4.524,0.503-6.443,1.723c-0.095-0.126-0.192-0.25-0.286-0.375
			c-0.947-1.257-3.263-1.832-4.69-2.056c-1.998-0.313-4.123-0.191-6.047,0.451c-1.386,0.463-2.937,1.286-3.607,2.674
			c-0.668,1.383-0.021,2.369,0.791,3.447c1.083,1.439,2.198,2.871,3.463,4.156c1.196,1.215,3.06,1.8,4.69,2.056
			c1.998,0.313,4.122,0.191,6.047-0.451c0.653-0.219,1.341-0.52,1.958-0.92c1.432,0.459,2.937,0.663,4.124,0.663
			c3.247,0,8.875-1.503,8.875-5.684S386.653,563.072,383.406,563.072z"/>
		<path fill="#4B791A" d="M570.485,215.727c-1.645,4.642-3.381,9.251-5.17,13.839c-3.029,7.769,12.433,10.083,15.151,3.111
			c2.103-5.393,4.088-10.824,6.035-16.275c1.592-4.459,3.059-8.474,3.279-13.332c0.737-16.317-19.747-21.6-29.908-10.871
			c-2.708,2.859-0.067,6.748,2.818,8.007c3.506,1.529,7.59,0.864,10.341-1.702c0.043,0.046,0.084,0.092,0.118,0.136
			c1.993,2.583,0.975,8.359-0.439,11.15C571.764,211.654,571.181,213.763,570.485,215.727z"/>
		<path fill="#4B791A" d="M376.428,40.668c-0.35-0.219,0.428,0.297,0.911,0.645c0.813,0.586,1.623,1.175,2.437,1.76
			c2.438,1.752,4.912,3.452,7.409,5.117c7.143,4.762,14.621,9.019,22.425,12.599c8.521,3.91,17.297,7.077,25.632,11.42
			c4.676,2.437,9.616,5.046,13.535,8.635c2.043,1.871,10.141,0.407,7.258-2.233c-3.64-3.334-8.129-5.848-12.42-8.226
			c-8.322-4.612-17.12-8.051-25.859-11.753c-8.365-3.543-16.289-8.114-23.882-13.079c-3.907-2.555-7.549-5.539-11.502-8.014
			C379.983,36.042,372.325,38.098,376.428,40.668z"/>
		<path fill="#4B791A" d="M459.858,85.927c5.64,3.413,10.413,7.19,16.909,9.001c1.72,0.48,4.236,0.472,5.713-0.69
			c1.511-1.188-0.387-2.321-1.498-2.631c-5.348-1.491-9.271-4.812-13.913-7.622c-1.693-1.024-3.807-1.204-5.713-0.69
			C460.432,83.546,458.151,84.893,459.858,85.927z"/>
		<path fill="#4B791A" d="M304.714,127.399c4.737,11.448,14.473,21.056,17.08,33.387c0.772,3.65,9.092,2.708,8.186-1.579
			c-2.533-11.979-11.74-21.816-16.8-32.751c-2.004-4.331-3.564-8.838-5.657-13.145c-2.8-5.761-4.996-11.726-6.947-17.823
			c-1.155-3.608-9.511-2.564-8.186,1.579C295.733,107.511,300.533,117.291,304.714,127.399z"/>
		<path fill="#4B791A" d="M401.682,239.474c5.273-6.738-9.136-10.59-13.231-5.357c-2.607,3.331-5.662,5.753-9.572,7.377
			c-3.271,1.357-6.769,1.775-9.715,1.835c-0.776,0.016-1.553-0.012-2.329-0.04c-0.302-0.014-0.604-0.037-0.905-0.058
			c-0.092-0.014-0.294-0.039-0.614-0.075c-2.318-0.299-4.585-0.86-6.794-1.608c-4.253-1.442-8.712-3.581-12.012-6.695
			c-2.796-2.639-6.882-3.365-10.482-1.904c-2.609,1.059-5.515,4.65-2.749,7.261C351.097,257.026,385.389,260.296,401.682,239.474z"
			/>
		<path fill="#4B791A" d="M320.237,331.319c9.522,1.928,19.952,0.645,29.08-2.428c7.771-2.616,17.067-8.309,18.111-17.282
			c0.698-6.008-13.674-6.399-14.792-0.261c-0.028,0.089-0.062,0.202-0.107,0.351c-0.232,0.727-0.578,1.419-0.907,2.106
			c-0.614,1.28-1.469,2.4-2.591,3.283c-2.428,1.913-5.184,3.111-8.09,4.089c-5.947,2.002-11.961,2.166-17.533,1.038
			c-8.227-1.665-20.195-9.187-21.815-20.001c-0.516-3.447-4.35-4.639-7.421-4.639c-2.237,0-7.93,1.236-7.421,4.639
			C289.176,318.39,305.293,328.294,320.237,331.319z"/>
		<path fill="#4B791A" d="M390.599,303.266c-0.158,0.315-0.325,0.622-0.5,0.928c-0.005,0.008-0.007,0.013-0.012,0.021
			c-0.047,0.068-0.109,0.159-0.198,0.293c-0.621,0.937-1.293,1.84-1.968,2.738c-1.915,2.549-3.984,4.984-6.083,7.383
			c-4.686,5.357-9.674,10.554-15.032,15.246c-2.395,2.098-4.893,4.08-7.513,5.89c-0.974,0.673-1.987,1.287-3.017,1.87
			c0.292-0.204-2.436,1.157-2.28,1.083c-1.482,0.702-2.952,1.428-4.422,2.155c-8.792,4.342-17.457,8.808-26.787,11.914
			c-19.193,6.388-40.113,3.741-59.97,2.825c-21.281-0.982-42.556-2.199-63.862-2.488c-4.892-0.067-9.785-0.065-14.677-0.002
			c-2.833,0.036-7.329,1.404-7.329,4.965c0,3.51,4.495,5.001,7.329,4.965c21.087-0.27,42.164,0.74,63.22,1.757
			c20.748,1.002,42.052,3.221,62.777,1.189c19.822-1.943,38.615-11.976,55.974-21.112c5.943-3.128,11.108-7.986,15.976-12.531
			c5.272-4.922,10.219-10.214,14.86-15.732c2.789-3.316,5.689-6.823,7.646-10.716C407.919,299.565,393.462,297.569,390.599,303.266z
			"/>
	</g>
	<g>
		<path fill="#22661F" d="M586.125,193.814c-2.192-5.32-12.954-4.477-17.303-2.274c-0.679,0.344-2.151,1.321-2.168,2.348
			c-1.685,0.926-3.025,2.194-3.711,3.887c-1.222,3.017,0.751,5.75,3.452,7.039c3.42,1.632,7.733,1.809,11.461,0.874
			c1.817,0.549,3.776,0.865,5.829,0.963c1.906,0.091,6.231-0.492,7.046-2.726C592.582,198.847,589.986,195.672,586.125,193.814z"/>
		<path fill="#22661F" d="M418.81,194.388c-1.946-6.398-16.291-4.512-14.071,2.789c2.349,7.724,3.597,15.627,4.304,23.658
			c0.696,7.903,1.175,16.032,0.327,23.94c-1.467,13.67-4.138,28.219-9.216,41.037c-2.779,7.015,11.597,9.034,14.071,2.789
			c5.347-13.5,7.937-28.781,9.659-43.139c0.976-8.14,0.415-16.484-0.248-24.627C422.908,211.908,421.418,202.965,418.81,194.388z"/>
		<path fill="#22661F" d="M413.832,179.852c0-3.511-5.376-4.456-7.917-4.456c-2.541,0-7.917,0.945-7.917,4.456
			c0,3.511,5.376,4.456,7.917,4.456C408.456,184.308,413.832,183.363,413.832,179.852z"/>
		<path fill="#22661F" d="M497.1,232.706c-1.276-0.586-3.366-2.177-4.314-2.961c-0.794-0.656-2.601-2.314-2.966-2.676
			c-2.661-2.643-6.693-3.366-10.181-1.907c-2.623,1.098-5.298,4.66-2.669,7.271c4.601,4.57,9.742,9.491,16.521,9.959
			c3.023,0.209,7.441-1.797,7.441-5.314C500.931,234.892,498.814,233.494,497.1,232.706z"/>
		<path fill="#22661F" d="M540.647,156.572c-1.784-1.168-3.987-1.654-6.097-1.654c-0.346,0-0.693,0-1.039,0
			c-2.109,0-4.312,0.486-6.097,1.654c-1.356,0.888-2.525,2.283-2.525,3.993c0,1.71,1.169,3.105,2.525,3.993
			c1.784,1.168,3.987,1.654,6.097,1.654c0.346,0,0.693,0,1.039,0c2.109,0,4.312-0.486,6.097-1.654
			c1.356-0.888,2.525-2.283,2.525-3.993C543.172,158.855,542.003,157.46,540.647,156.572z"/>
	</g>
	<g>
		<path fill="#314610" d="M619.203,265.432c-0.416-1.248-1.387-2.238-2.399-3.044c-1.423-1.135-3.516-1.576-5.265-1.788
			c-2.245-0.273-4.593-0.176-6.788,0.392c-1.407,0.364-3.223,1.001-4.048,2.326c-0.725,1.163-0.045,2.254,0.888,2.998
			c0.017,0.013,0.03,0.028,0.046,0.042c0.136,0.196,0.255,0.399,0.358,0.614c0.063,0.483,0.029,0.955-0.088,1.443
			c-0.045,0.146-0.089,0.293-0.134,0.44c0.086,0.839,0.487,1.493,1.203,1.964c1.477,1.114,3.472,1.57,5.265,1.788
			c2.245,0.273,4.593,0.176,6.788-0.392c1.102-0.285,3.58-1.02,4.048-2.326C619.693,268.171,619.776,267.15,619.203,265.432z"/>
		<path fill="#314610" d="M494.47,295.549c-2.44,0-8.284,0.774-8.284,4.297s5.844,4.297,8.284,4.297c2.44,0,8.284-0.774,8.284-4.297
			S496.911,295.549,494.47,295.549z"/>
		<path fill="#314610" d="M458.091,332.228c-2.076,0-8.179,0.476-8.179,3.694c0,3.218,6.103,3.694,8.179,3.694
			c2.077,0,8.179-0.476,8.179-3.694C466.27,332.703,460.168,332.228,458.091,332.228z"/>
		<path fill="#314610" d="M442.853,365.33c-3.223,0-7.442,1.926-7.442,5.684c0,3.758,4.218,5.684,7.442,5.684
			s7.442-1.926,7.442-5.684C450.295,367.256,446.077,365.33,442.853,365.33z"/>
		<path fill="#314610" d="M427.616,403.127c-2.474,0-8.672,0.736-8.672,4.365c0,3.629,6.198,4.365,8.672,4.365
			s8.672-0.736,8.672-4.365C436.287,403.863,430.09,403.127,427.616,403.127z"/>
		<path fill="#314610" d="M408.223,440.734c-3.167,0-8.377,1.542-8.377,5.544c0,0.986,0.319,1.821,0.842,2.522
			c-1.021,0.822-1.711,1.92-1.711,3.346c0,3.903,5.144,5.37,8.212,5.37s8.212-1.467,8.212-5.37c0-0.885-0.274-1.638-0.718-2.283
			c1.136-0.864,1.917-2.04,1.917-3.585C416.599,442.276,411.389,440.734,408.223,440.734z"/>
		<path fill="#314610" d="M439.75,151.212c2.63,0,7.802-1.065,7.802-4.606c0-3.541-5.172-4.606-7.802-4.606
			c-2.63,0-7.802,1.065-7.802,4.606C431.949,150.148,437.12,151.212,439.75,151.212z"/>
		<path fill="#314610" d="M471.022,173.909c-2.7,0-8.138,1.064-8.138,4.731c0,3.667,5.438,4.731,8.138,4.731
			c2.701,0,8.138-1.064,8.138-4.731C479.16,174.973,473.723,173.909,471.022,173.909z"/>
		<path fill="#314610" d="M566.139,285.83c-2.766,0-7.851,1.204-7.851,4.841s5.085,4.84,7.851,4.84c2.766,0,7.851-1.204,7.851-4.84
			S568.905,285.83,566.139,285.83z"/>
		<path fill="#314610" d="M498.326,211.552c-2.724,0-8.517,1.007-8.517,4.778c0,3.772,5.794,4.778,8.517,4.778
			c2.724,0,8.517-1.007,8.517-4.778C506.843,212.558,501.05,211.552,498.326,211.552z"/>
	</g>
	<g>
		<path fill="#70B61E" d="M444.83,457.484c-2.76-2.273-6.728-2.707-10.08-1.553c-2.21,0.76-5.396,3.656-2.643,5.922
			c3.397,2.798,3.26,7.645,3.843,11.668c0.483,3.333,4.502,4.329,7.367,4.329c2.083,0,7.843-1.048,7.367-4.329
			C449.858,467.819,449.646,461.449,444.83,457.484z"/>
		<path fill="#70B61E" d="M452.989,422.439c-3.066-2.272-7.957-2.285-11.485-1.355c-2.139,0.564-6.118,2.868-3.011,5.169
			c4.043,2.996,5.58,8.144,7.465,12.604c1.983,4.692,18.486,3.426,16.189-2.009C459.868,431.458,457.871,426.056,452.989,422.439z"
			/>
		<path fill="#70B61E" d="M467.637,383.354c-3.143-0.986-7.885-0.863-10.539,1.348c-2.762,2.3,0.617,4.468,2.764,5.141
			c1.22,0.382,2.226,3.148,2.679,4.527c0.831,2.529,0.765,5.527,0.778,8.159c0.027,5.285,15.433,5.262,15.406,0
			C478.681,393.92,476.656,386.181,467.637,383.354z"/>
		<path fill="#70B61E" d="M480.531,344.497c-3.721-0.714-8.884,0.409-10.351,4.408c-1.347,3.672,1.912,6.672,5.184,7.597
			c0.18,0.234,0.353,0.474,0.513,0.729c0.995,1.592,3.296,2.543,5.029,2.9c2.148,0.443,4.469,0.249,6.484-0.637
			c1.671-0.734,3.221-2.011,3.867-3.771c0.665-1.813,0.116-3.32-0.848-4.862C488.29,347.472,484.387,345.236,480.531,344.497z"/>
		<path fill="#70B61E" d="M505.013,315.158c-3.357-0.632-8.41,0.22-9.862,3.835c-0.866,2.155,0.21,3.924,1.852,5.13
			c-0.07,2.967,2.986,4.899,5.826,5.434c2.043,0.385,4.241,0.224,6.178-0.554c1.422-0.57,3.191-1.709,3.685-3.282
			c0.549-1.748,0.875-3.831-0.037-5.54C511.092,317.255,508.203,315.759,505.013,315.158z"/>
		<path fill="#70B61E" d="M539.555,279.829c-2.748-3.396-8.199-3.917-12.017-2.291c-3.451,1.469-5.863,5.387-3.151,8.738
			c0.12,0.149,0.495,0.718,0.617,0.866c0.177,0.411,0.323,0.837,0.461,1.261c0.091,0.301,0.168,0.604,0.239,0.91
			c0.105,0.68,0.178,1.367,0.255,2.051c0.488,4.341,4.759,6.387,8.783,6.387c3.247,0,9.27-2.062,8.783-6.387
			C543.048,287.124,542.31,283.233,539.555,279.829z"/>
		<path fill="#70B61E" d="M597.118,253.731c-1.661-0.893-3.71-1.286-5.582-1.243c-3.493,0.08-7.413,0.728-10.43,2.628
			c-1.088,0.685-2.312,1.544-2.312,3.002c0,1.391,1.205,2.407,2.312,3.002c1.689,0.908,3.685,1.243,5.582,1.243
			c1.786,0,4.025-0.262,5.582-1.243c0.114-0.072,0.232-0.133,0.348-0.197c1.56-0.119,3.107-0.439,4.5-1.188
			c1.107-0.595,2.312-1.611,2.312-3.002C599.431,255.342,598.225,254.326,597.118,253.731z"/>
		<path fill="#70B61E" d="M524.506,205.03c0.549-0.62,1.11-1.226,1.692-1.816c0.043-0.043,0.088-0.084,0.131-0.127
			c0.171-0.157,0.427-0.39,0.556-0.496c1.207-0.992,2.538-1.819,3.895-2.586c3.486-1.968,2.981-6.376,0-8.445
			c-3.669-2.547-8.455-2.093-12.163,0c-3.417,1.929-6.367,4.508-8.963,7.442c-2.78,3.141-0.123,6.865,3.085,8.17
			C516.512,208.707,521.694,208.209,524.506,205.03z"/>
		<path fill="#70B61E" d="M481.155,181.832c3.351,1.145,7.314,0.717,10.08-1.541c3.059-2.498,5.739-5.539,8.891-7.442
			c2.677-1.616,2.749-4.474,0-6.077c-2.959-1.726-7.466-1.783-10.419,0c-4.199,2.535-7.431,6.108-11.195,9.181
			C475.752,178.206,478.962,181.082,481.155,181.832z"/>
		<path fill="#70B61E" d="M456.866,145.811c2.842,2.235,7.468,2.29,10.303,0c0.379-0.306,0.764-0.598,1.161-0.881
			c0.016-0.01,0.026-0.018,0.042-0.027c0.213-0.116,0.426-0.232,0.644-0.338c0.207-0.105,0.925-0.368,1.236-0.492
			c0.437-0.101,0.877-0.186,1.321-0.251c3.201-0.47,6.259-3.701,5.088-7.049c-1.28-3.661-5.606-4.495-8.962-4.003
			c-3.935,0.578-7.755,2.451-10.834,4.937C454.149,139.901,454.088,143.626,456.866,145.811z"/>
		<path fill="#70B61E" d="M441.127,104.026c2.473-0.028,8.285-0.786,8.285-4.351c0-3.528-5.813-4.379-8.285-4.351
			c-7.951,0.089-15.798,2.163-22.391,6.657c-3.313,2.258,0.86,5.303,2.972,5.954c3.835,1.18,8.034,0.689,11.335-1.561
			C435.051,105.004,438.847,104.051,441.127,104.026z"/>
	</g>
	<g>
		<path d="M573.681,217.197c0.447-0.869-4.014-5.011-4.915-4.584c-16.009,7.575-30.988,18.017-45.039,28.681
			c-33.049,25.083-61.809,55.989-83.635,91.316c-29.894,48.384-44.788,104.304-45.022,161.055
			c-0.037,8.869,0.309,17.738,0.935,26.585c0.068,0.957,4.662,4.874,4.929,4.392c2.527-4.564,7.106-8.34,11.011-11.63
			c5.591-4.71,11.698-8.793,17.934-12.59c7.138-4.346,15.469-7.39,21.739-12.99c11.551-10.317,16.895-27.243,22.301-41.233
			c7.319-18.944,15.058-37.515,24.252-55.638c10.891-21.468,22.954-42.317,33.861-63.776c0.404-0.795-1.803-2.629-3.392-3.724
			c10.23-3.966,13.47-17.817,14.202-27.521c0.127-1.686,0.069-3.339-0.139-4.952c0.443,0.346,0.868,0.567,1.227,0.544
			c5.378-0.342,6.77-8.56,7.797-12.615c2.143-8.462,3.896-16.869,6.714-25.155C562.64,241.015,567.712,228.801,573.681,217.197z
			 M508.267,329.451c0.892,6.111-1.081,12.893-4.521,17.937c-3.191,4.68-8.061,6.356-13.297,5.485
			c-0.006-0.012-0.012-0.025-0.018-0.037c-4.727-9.222-13.045-15.831-23.166-18.12c-3.751-0.848-7.709-1.013-11.554-0.494
			c-2.488-5.247-1.413-10.442,1.26-15.031c1.139-1.591,2.29-3.172,3.458-4.741c1.212-1.38,2.524-2.668,3.863-3.841
			c5.033-4.409,11.801-6.716,18.415-7.159C496.358,302.537,506.507,317.397,508.267,329.451z M479.406,390.073
			c-3.805-8.82-13.142-15.271-21.658-18.624c-6.055-2.384-12.426-3.619-18.586-2.881c-2.137-6.054-2.802-12.602,0.307-18.465
			c2.109-3.977,5.767-7.01,9.644-9.169c4.045-2.252,7.911-3.481,12.515-3.454c8.628,0.05,17.042,3.268,22.516,10.111
			c9.635,12.042,10.684,33.618-4.302,41.827C479.561,389.572,479.433,389.804,479.406,390.073z M444.521,476.02
			c-1.572,5.732-5.151,10.64-9.772,14.239c-2.678,1.434-5.325,2.927-7.939,4.475c-0.897,0.343-1.804,0.655-2.727,0.91
			c-7.287,2.012-18.899,1.719-23.149-5.678c-0.094-0.164-0.348-0.427-0.669-0.716c0.392-12.264,1.447-24.474,3.197-36.566
			c0.192,0.05,0.353,0.045,0.454-0.051c6.209-5.885,16.093-6.443,23.906-4.335C440.426,451.698,448.043,463.179,444.521,476.02z
			 M431.193,447.328c-7.801-3.926-18.726-5.199-26.77-0.84c1.721-10.441,3.964-20.785,6.734-30.994
			c5.148-4.402,11.36-6.396,18.24-5.996c7.105,0.413,14.194,2.533,19.541,7.398c5.882,5.352,10.035,14.754,9.386,22.755
			c-0.715,8.81-5.45,16.397-14.596,18.022C440.442,453.316,435.958,449.726,431.193,447.328z M452.714,418.561
			c-0.561-0.649-1.13-1.277-1.711-1.859c-5.943-5.949-13.675-9.212-21.977-10.062c-3.292-0.337-6.791-0.474-10.029,0.231
			c-2.077,0.452-4.148,1.32-6.102,2.442c1.679-5.713,3.535-11.379,5.554-16.993c0.798,3.243,2.405,6.349,4.221,9.11
			c0.589,0.896,1.486,1.729,2.42,2.256c0.729,0.412,1.002,0.114,0.544-0.583c-3.315-5.04-5.329-10.838-3.418-16.786
			c1.37-4.263,4.767-7.615,8.358-10.104c7.743-5.366,16.295-5.421,25.2-3.077c11.107,2.924,21.493,10.132,21.937,22.543
			c0.232,6.471-2.504,13.426-7.292,17.781C465.689,417.764,458.91,418.712,452.714,418.561z M452.186,333.463
			c0.235,0.432,0.53,0.851,0.872,1.232c-3.059,0.682-5.99,1.818-8.626,3.418c1.922-3.145,3.901-6.255,5.934-9.329
			C450.737,330.337,451.334,331.901,452.186,333.463z M435.774,368.076c0.11,0.296,0.386,0.629,0.736,0.948
			c-2.675,0.583-5.296,1.556-7.815,3.019c-1.037,0.603-2.038,1.277-2.988,2.013c2.41-5.523,4.986-10.988,7.748-16.382
			C433.62,361.234,434.559,364.8,435.774,368.076z M471.103,300.876c4.257-5.132,8.669-10.138,13.225-15.01
			c-0.738,4.567-0.093,9.422,1.228,13.955C481.053,298.775,475.98,299.261,471.103,300.876z M400.381,514.2
			c-0.311-7.555-0.377-15.106-0.187-22.638c4.538,5.311,11.344,8.065,18.316,8.381c-1.41,0.938-2.811,1.89-4.192,2.87
			C409.811,506.012,404.496,509.775,400.381,514.2z M474.183,428.217c-6.278,15.962-11.423,33.25-21.289,47.473
			c-1.858,2.678-3.913,4.965-6.196,6.971c0.757-1.667,1.362-3.416,1.791-5.232c1.431-6.056,0.103-11.858-2.84-16.878
			c0.228,0.103,0.446,0.156,0.632,0.123c9.86-1.731,14.633-10.078,15.269-19.468c0.441-6.499-2.347-13.665-6.294-19.369
			c6.935,0.233,13.95-0.969,19.246-5.786c5.183-4.714,7.281-13.059,6.546-19.836c-0.176-1.618-0.545-3.175-1.069-4.67
			c0.763,1.008,2.083,1.876,2.815,1.475c13.436-7.36,14.445-23.332,9.4-36.259c14.403,3.333,21.702-12.328,20.355-24.811
			c-0.381-3.528-1.479-7.113-3.113-10.56c4.818,3.018,10.923,3.678,16.879,2.369C508.581,358.47,488.492,391.839,474.183,428.217z
			 M538.924,303.94c-1.417,5.814-4.274,11.487-9.116,15.158c-6.452,4.891-17.162,3.924-22.643-1.861
			c-4.634-7.456-11.667-13.777-19.112-16.65c-0.03-0.012-0.061-0.021-0.091-0.033c-1.898-6.396-2.409-13.081,0.763-19.177
			c0.06-0.115,0.133-0.221,0.196-0.333c2.509-2.582,5.061-5.121,7.648-7.623c0.446-0.285,0.897-0.559,1.349-0.822
			c13.334-7.75,30.981-5.714,39.265,8.342c1.054,1.788,1.806,3.643,2.314,5.54c-0.034,0.003-0.066,0.01-0.1,0.012
			c-0.009,0.001,0.059,0.121,0.176,0.308C540.972,292.354,540.31,298.259,538.924,303.94z M547.268,272.047
			c-0.784,3.37-1.965,11.231-5.695,13.697c-3.487-10.226-13.352-18-24.015-19.865c-4.578-0.801-9.481-0.364-14.115,1.06
			c5.097-4.673,10.327-9.198,15.678-13.567c14.041-11.461,29.057-22.306,44.999-31.163c-3.619,7.904-6.843,16.007-9.757,24.167
			C551.351,254.809,549.292,263.343,547.268,272.047z"/>
		<path d="M638.642,241.924c-16.591-35.217-45.323-64.322-73.653-90.315c-19.677-18.054-40.538-34.757-62.635-49.763
			c-13.277-9.016-26.949-17.432-40.963-25.253c-16.54-9.231-33.692-17.01-50.727-25.245c-18.54-8.963-36.761-19.542-53.496-31.709
			c-0.882-1.663-2.603-3.092-4.088-3.881c-0.558-0.296-1.361-0.564-2.069-0.59c-1.297-0.74-3.297-1.605-2.297,0.375
			c0.218,0.433,0.479,0.847,0.756,1.255c0.003,0.028,0.001,0.051,0.005,0.079c0.909,6.459,2.63,12.861,4.354,19.138
			c4.985,18.149,11.587,35.831,19.101,53.076c4.42,10.144,9.167,20.138,14.198,29.991c-24.506-28.886-59.219-52.24-97.164-47.559
			c-0.896,0.141-1.61,0.405-2.176,0.766c-0.997-0.519-1.914-0.551-1.751,0.568c0.07,0.482,0.152,0.962,0.227,1.444
			c-0.628,2.026,0.136,4.877,1.409,7.777c1.194,5.788,2.678,11.527,4.359,17.168c2.167,7.274,4.86,14.421,8.329,21.179
			c3.098,6.033,7.087,11.621,10.491,17.487c6.005,10.349,10.726,21.253,12.645,33.125c0.229,1.414,0.409,2.833,0.569,4.254
			c-0.07,3.89-0.246,7.777-0.51,11.652c-2.862,41.95-18.203,99.544-65.075,111.227c-7.727,1.926-15.534,3.234-23.184,5.527
			c-6.87,2.06-13.592,4.605-20.096,7.627c-10.318,4.794-20.006,11.057-28.291,18.876c-6.755,6.375-13.933,14.76-16.702,23.876
			c-0.642,2.114,4.191,5.644,5.845,6.223c9.352,3.277,19.55,4.775,29.298,6.237c31.206,4.679,63.004,5.405,94.499,4.702
			c14.943-0.333,29.236-1.516,43.368-6.7c11.698-4.291,22.411-10.952,31.817-19.082c18.667-16.135,31.712-38.076,40.471-60.922
			c7.905-20.617,12.683-42.879,13.02-64.992c0.22-14.456-2.621-28.646-7.425-42.212c17.914,27.308,37.787,53.362,58.821,78.174
			c-12.765,12.369-24.857,25.429-36.168,39.108c-34.472,41.69-61.344,89.833-76.06,142.02
			c-8.557,30.343-12.716,61.834-12.672,93.347c0.018,12.606-0.028,27.569,7.726,38.172c5.281,7.222,13.166,11.128,21.475,6.604
			c5.665-3.086,10.23-7.914,14.408-12.74c1.117-1.29,2.091-3.536,3.554-4.283c1.094-0.558,2.181-1.13,3.266-1.706
			c9.237-4.9,18.251-10.24,26.932-16.072c10.255-6.888,20.88-14.663,28.121-24.833c3.47-4.873,4.947-10.812,7.267-16.27
			c2.927-6.888,6.116-13.666,9.301-20.437c9.636-20.48,19.607-40.803,29.492-61.165c11.047-22.757,22.078-45.523,32.766-68.451
			c4.88-10.47,9.804-20.97,14.401-31.601c1.095,0.898,2.266,1.687,3.502,2.254c25.605,11.746,56.651,16.848,84.367,9.867
			c1.724-0.434,1.628-1.569,2.3-3.301c1.635-4.214,2.941-8.549,4.008-12.94c1.906-7.836,2.758-15.897,2.669-23.955
			C650.397,272.709,645.592,256.677,638.642,241.924z M316.136,141.202c-3.132-5.729-6.656-11.225-10.094-16.772
			c-4.132-6.668-6.951-14.114-9.353-21.55c-1.099-3.402-2.109-6.855-3.017-10.341c0.114,0.179,0.219,0.345,0.307,0.488
			c8.798,14.305,19.172,28.166,25.598,43.781c2.59,6.293,3.324,13.471,3.91,20.186c0.013,0.152,0.022,0.305,0.034,0.457
			C321.526,151.863,319.007,146.453,316.136,141.202z M318.632,363.052c-8.204,1.416-16.523,1.538-24.824,1.737
			c-10.12,0.242-20.245,0.275-30.366,0.109c-15.72-0.258-31.441-1.08-47.084-2.68c-9.277-0.949-18.965-1.92-28.401-3.716
			c23.775-1.23,47.728-1.257,71.424,0.425c21.987,1.56,44.582-1.287,65.693-7.472c26.38-7.729,51.022-22.026,68.496-43.52
			c1.232-1.516,2.405-3.065,3.536-4.638c-4.352,7.628-9.297,14.905-14.889,21.675C365.971,344.633,343.919,358.686,318.632,363.052z
			 M408.039,157.088c6.182,13.031,11.079,27.158,12.878,41.52c1.644,13.127,0.856,26.658-1.344,39.88
			c-0.811,2.86-1.683,5.7-2.559,8.51c-5.304,17.009-11.721,34.286-21.655,49.176c-15.844,23.748-40.343,39.843-67.042,48.998
			c-21.679,7.433-45.12,10.741-68.013,9.767c-17.481-0.743-34.838-1.564-52.35-1.27c-9.602,0.161-19.206,0.496-28.796,1.02
			c3.986-7.983,10.763-15.093,17.115-20.695c9.701-8.555,21.191-14.892,33.149-19.69c8.365-3.356,17.062-5.825,25.855-7.77
			c6.334-1.401,12.534-2.503,18.575-4.946c21.125-8.545,34.852-28.303,43.269-48.679c8.785-21.267,12.782-44.62,13.673-67.531
			c0.342-8.784,0.158-17.616-0.802-26.357c-0.664-6.041-1.655-12.272-3.982-17.925c-5.981-14.533-15.423-27.773-23.813-40.974
			c-1.887-2.97-15.13-20.748-6.191-22.151c32.441-4.002,62.321,13.369,83.667,36.514c5.693,6.173,10.864,12.834,15.523,19.84
			c3.744,6.825,7.624,13.576,11.628,20.257C407.235,155.415,407.641,156.25,408.039,157.088z M368.96,569.001
			c0.019,0.017,0.03,0.028,0.051,0.046c-0.018-0.016-0.028-0.024-0.043-0.037C368.965,569.007,368.963,569.005,368.96,569.001z
			 M368.511,568.66c0.063,0.036,0.108,0.06,0.158,0.087c-0.008-0.003-0.015-0.005-0.023-0.008
			C368.609,568.716,368.566,568.691,368.511,568.66z M481.624,445.407c-5.994,12.408-12.093,24.803-17.755,37.38
			c-0.707-0.506-1.244-0.834-1.277-0.778c-5.239,8.807-13.435,16.207-20.925,23.047c-10.076,9.202-20.97,17.774-32.831,24.566
			c-4.866,2.787-10.009,5.247-15.447,6.681c-2.151,0.567-4.376,0.894-6.603,0.849c-2.566-0.051-4.989-0.748-7.586-0.516
			c-9.44,0.843-11.821,12.046-11.905,19.768c-0.007,0.63,0.004,1.263,0.043,1.892c0.06,0.969,2.153,2.472,2.799,3.031
			c0.157,0.136,2.114,1.771,2.079,1.196c-0.409-6.6,0.995-14.993,6.493-19.265c4.343-3.373,9.348-1.387,14.264-1.55
			c4.961-0.164,9.844-2.12,14.291-4.167c12.102-5.57,23.008-13.94,33.125-22.5c5.559-4.703,11.087-9.654,16.172-14.983
			c-1.401,3.45-2.953,6.786-5.369,9.89c-7.772,9.984-18.728,17.616-29.196,24.503c-8.134,5.352-16.572,10.29-25.204,14.797
			c-3.694,1.929-5.758,5.425-8.574,8.493c-3.796,4.135-8.234,8.474-13.559,10.544c-1.395,0.542-2.978,0.92-4.475,0.799
			c-0.539-0.043-0.919-0.139-1.175-0.22c-0.069-0.071-0.24-0.198-0.368-0.278c-0.451-0.609-0.176-0.216-0.609-1.025
			c-0.85-1.587-1.35-2.943-1.851-4.535c-1.828-5.801-2.556-12.046-2.784-17.891c-2.201-56.382,11.252-113.175,36.126-163.628
			c21.881-44.381,52.526-84.161,87.976-118.539c21.135-20.496,44.12-39.449,68.862-55.457c2.043-1.322,4.1-2.627,6.195-3.866
			c0.774-0.458,0.767-2.008,0.985-2.769c1.078-3.757,3.064-7.313,6.279-9.623c1.574-1.131,3.77-1.694,5.699-1.606
			c0.712,0.032,1.419,0.156,2.113,0.315c0.029,0.007,0.05,0.011,0.066,0.014c0.044,0.019,0.095,0.039,0.16,0.065
			c1.891,0.758,2.872-0.298,1.986-2.13c-1.055-2.183-3.242-4.22-5.493-5.122c-3.639-1.458-6.981-1.239-9.852,0.091
			c-2.42-3.289-5.232-6.404-7.611-9.331c-8.002-9.847-16.677-19.18-25.717-28.079c-23.847-23.473-50.958-45.215-82.047-58.226
			c-9.235-3.865-18.563-6.957-27.455-11.653c-8.646-4.566-16.874-9.961-24.795-15.681c-6.44-4.651-11.762-8.857-17.686-13.873
			c-0.988-0.836-1.968-1.681-2.944-2.531c-0.299-0.26-0.598-0.523-0.896-0.785c-0.035-0.032-0.063-0.057-0.105-0.094
			c-0.654-0.585-1.305-1.173-1.946-1.772c-1.303-1.218-2.692-2.392-4.201-3.351c0.029,0.018-2.914-1.692-2.363-0.324
			c14.088,34.967,31.311,68.972,50.189,101.564c21.465,37.058,46.182,73.805,78.19,102.652c-3.937,3.501-7.819,7.064-11.64,10.692
			c-43.239-51.293-81.384-107.963-106.963-170.199c-5.956-14.491-11.266-29.454-15.205-44.353
			c-1.123-4.246-2.229-8.554-3.027-12.895c21.067,15.658,44.402,28.944,68.219,39.766c33.843,15.376,66.144,33.967,96.082,56.021
			c9.965,7.341,19.596,15.091,28.995,23.203c0.927,0.801,1.851,1.606,2.773,2.413c0.046,0.04,0.076,0.067,0.115,0.1
			c0.068,0.061,0.149,0.133,0.26,0.231c0.424,0.375,0.847,0.75,1.27,1.126c2.654,2.359,5.283,4.747,7.9,7.148
			c7.502,6.883,14.821,13.959,21.888,21.288c24.418,25.324,47.607,55.557,53.332,91.184c2.059,12.807,1.373,25.938-1.818,38.496
			c-0.858,3.375-1.944,6.689-3.139,9.958c-0.149,0.406-0.702,2.41-1.173,3.425c-1.635-4.413-1.913-8.762-5.355-12.34
			c-0.857-0.891-1.767-1.753-2.729-2.549c0.907-1.558,0.817-5.832,0.885-7.121c0.171-3.234-0.072-6.495-0.51-9.699
			c-0.92-6.73-3.045-13.309-5.501-19.62c-4.73-12.158-11.353-23.632-18.558-34.477c-2.927-4.406-5.978-8.767-9.263-12.916
			c-0.264-0.334-0.623-0.724-1.038-1.109c2.46-9.271,3.206-18.723,0.509-28.14c-0.664-2.315-2.788-4.319-4.81-5.496
			c-0.964-0.561-3.988-1.586-3.315,0.762c4.483,15.646-1.75,31.99-8.077,46.21c-6.122,13.762-14.398,27.409-17.166,42.384
			c-2.523,13.653-8.387,26.385-13.943,39.056C524.631,358.373,502.72,401.737,481.624,445.407z M550.236,170.863
			c0.001,0.003,0.053,0.071,0.499,0.633c1.356,1.709,2.682,3.442,3.974,5.199c0.444,0.605,0.88,1.214,1.312,1.827
			c0.19,0.27,0.378,0.542,0.565,0.815c0.078,0.112,0.132,0.192,0.176,0.255c0.46,0.706,0.924,1.429,1.259,2.203
			c0.558,1.288,1.559,2.532,2.712,3.68c-2.034,1.933-3.665,4.48-4.783,7.3c-0.606,1.53-0.299,3.105-1.674,3.931
			c-0.787,0.472-1.567,0.954-2.345,1.439c-0.35,0.218-0.697,0.442-1.047,0.662c-0.059-0.048-0.119-0.096-0.178-0.145
			c-2.101-3.165-4.738-6.001-7.737-8.306c-3.524-4.741-6.386-9.977-9.4-15.228c-4.62-8.05-10.247-15.07-17.689-20.679
			c-5.111-3.853-10.93-6.581-15.985-10.552c-4.187-3.291-7.936-7.157-11.094-11.446c-2.36-3.203-5.001-7.592-6.036-11.043
			c-0.313-1.044-2.908-2.392-2.9-2.365c4.073,13.58,16.856,24.695,28.319,31.958c6.051,3.834,11.702,7.214,16.329,12.824
			c3.557,4.312,6.256,9.275,8.982,14.129c2.031,3.617,4.165,7.099,6.532,10.382c-0.947-0.578-1.919-1.109-2.911-1.58
			c-3.994-1.897-8.102-2.277-12.054-1.583c0.787-5.217-0.295-10.577-3.46-15.12c-6.474-9.289-18.425-13.505-28.891-9.921
			c0.753-1.548,1.35-3.157,1.758-4.812c0.368-1.493,0.581-2.946,0.626-4.484c-0.112-10.911-7.705-20.178-18.512-22.08
			c-4.268-0.751-8.581-0.43-12.65,0.746c3.143-6.413,3.737-14.08,1.048-21.273c-1.898-4.525-4.834-8.421-8.428-11.481
			c0.695,0.279,1.39,0.556,2.081,0.845c7.641,3.198,15.002,7.049,22.101,11.309c13.277,7.968,26.078,17.859,37.228,27.937
			c10.496,9.488,19.439,18.758,28.553,29.528c0.796,0.94,1.583,1.888,2.366,2.839c0.37,0.449,0.736,0.9,1.103,1.351
			C550.175,170.789,550.225,170.85,550.236,170.863z M508.671,229.787c-1.802-2.273-2.367-5.802-2.653-8.471
			c-0.851-7.918,3.01-15.351,8.081-21.167c5.261-6.032,13.092-10.637,21.318-9.582c5.898,0.757,10.143,4.982,12.461,10.162
			c-6.586,4.27-13.003,8.808-19.308,13.476C521.801,219.218,515.171,224.422,508.671,229.787z M419.1,131.863
			c-1.023-1.858-2.04-3.719-3.048-5.586c-3.955-11.375,3.179-23.942,13.438-29.117c10.888-5.492,25.561-2.715,30.542,9.158
			c4.441,11.879-2.041,24.77-12.99,30.292C437.664,141.339,425.482,139.931,419.1,131.863z M454.104,140.369
			c1.612-0.992,3.09-2.143,4.422-3.427c3.498-2.249,7.438-3.844,11.478-4.634c5.752-1.126,14.029-1.017,18.042,3.968
			c2.568,3.19,3.464,7.709,3.505,11.709c-0.378,12.68-13.34,24.046-25.243,26.105c-4.682,0.81-9.798,0.42-14.154-1.537
			c-6.047-2.716-7.012-9.745-6.48-15.67C446.262,150.331,449.485,144.661,454.104,140.369z M493.594,166.962
			c7.295-4.53,21.251-5.155,25.323,4.189c2.246,5.155,1.032,11.923-1.598,16.788c-3.041,1.648-5.842,3.848-8.237,6.348
			c-3.917,4.089-6.768,8.98-8.1,14.222c-4.705,1.686-9.722,1.932-14.437,0.047c-4.889-1.954-7.661-6.121-9.086-11.037
			C473.926,185.336,483.854,173.01,493.594,166.962z M428.787,90.568c-11.193,3.313-18.302,13.26-18.903,24.071
			c-3.08-5.917-6.097-11.865-9.052-17.842c-7.586-15.34-15.027-31.11-21.426-46.618c16.876,14.734,35.673,27.933,55.599,37.805
			c1.01,0.501,2.028,0.977,3.052,1.437C434.987,89.299,431.863,89.657,428.787,90.568z M445.605,143.735
			c-1.362,2.341-2.4,4.869-3.031,7.536c-3.052,12.901,5.528,24.158,18.215,26.234c4.672,0.764,9.608,0.073,14.237-1.695
			c-0.587,1.002-1.126,2.013-1.597,3.023c-2.851,6.114-2.52,13.138,0.257,19.192c4.652,10.142,15.441,17.668,26.46,16.739
			c-0.04,2.655,0.319,5.352,1.137,8.04c0.925,3.04,2.774,6.205,5.192,8.798c-3.108,2.596-6.179,5.237-9.222,7.91
			c-9.639-8.701-18.382-18.319-26.912-28.991c-9.656-12.08-18.552-24.77-26.929-37.764c-6.971-10.811-13.595-21.846-19.932-33.045
			C430.02,143.722,438.058,145.322,445.605,143.735z M589.442,224.116c0.203,0.277,0.44,0.609,0.972,1.344
			c2.874,3.972,5.604,8.048,8.222,12.192c3.978,6.296,7.736,12.845,10.929,19.639c-1.758-2.354-3.963-4.472-6.608-6.242
			c-7.828-5.241-17.266-4.54-25.097-0.174C581.984,242.321,586.418,233.329,589.442,224.116z M586.723,298.409
			c-6.797,0.739-14.288-3.731-17.15-9.774c-1.535-3.241-2.062-6.969-1.886-10.53c0.115-2.323,0.799-4.632,1.405-6.857
			c0.145-0.532,0.299-1.074,0.458-1.618c1.208-3.255,2.591-6.449,4.017-9.607c1.095-1.755,2.4-3.342,3.994-4.616
			c5.703-4.127,12.334-6.286,19.368-5.118c7.819,1.3,12.989,7.327,14.535,14.866C614.559,280.255,601.878,296.76,586.723,298.409z
			 M565.703,284.891c0.06-0.294,0.116-0.586,0.173-0.879c1.299,4.095,3.734,7.784,7,10.662c-2.907-1.432-5.747-3.006-8.523-4.671
			C564.88,288.317,565.349,286.615,565.703,284.891z M594.092,299.992c7.522-2.709,13.98-8.13,17.53-15.33
			c2.545-5.162,3.404-10.616,2.699-15.764c0.579,1.669,1.119,3.349,1.608,5.045c1.79,6.195,2.897,12.7,2.435,19.159
			c-0.067,0.929-0.129,4.74-0.823,5.192c-0.265,0.173-0.731,0.432-1.628,0.851c-7.911,3.693-17.272,3.543-25.698,1.741
			C591.505,300.742,592.799,300.457,594.092,299.992z M555.598,312.806c2.352-5.578,4.611-11.191,6.697-16.864
			c0.206-0.559,0.41-1.122,0.613-1.685c0.302,0.215,0.604,0.419,0.898,0.601c13.232,8.155,28.66,14.935,44.532,14.181
			c5.387-0.256,11.412-1.275,16-4.363c4.398,2.582,4.315,9.168,6.175,13.463c0.231,0.534,0.537,1.121,0.893,1.73
			c-1.777,0.42-3.575,0.757-5.374,1.061C602.432,324.911,577.756,321.703,555.598,312.806z"/>
		<path d="M355.304,311.585c-9.358,10.857-25.818,16.259-39.54,10.958c-8.298-3.205-19.121-10.455-19.205-20.613
			c-0.012-1.49-4.096-4.433-4.077-2.194c0.091,11.026,11.466,20.032,20.215,24.464c15.549,7.875,34.945,4.211,46.4-9.078
			C360.195,313.849,356.357,310.364,355.304,311.585z"/>
		<path d="M397.258,228.651c-10.789,9.663-24.318,13.618-38.558,10.993c-6.494-1.197-13.286-3.627-18.804-7.342
			c-2.229-1.501-0.173,1.716,0.733,2.326c5.77,3.884,12.72,6.398,19.471,7.85c14.687,3.161,29.093-0.981,40.234-10.959
			C401.019,230.905,398.069,227.926,397.258,228.651z"/>
		<path d="M359.377,154.179c-7.692,2.229-15.44,6.151-21.703,11.194c-2.113,1.702,3.161,6.973,5.478,5.108
			c15.207-12.245,39.136-18.197,55.354-4.766c0.911,0.755,2.998,2.277,4.154,1.038c1.091-1.171-0.414-3.318-1.324-4.072
			C389.164,152.6,374.487,149.801,359.377,154.179z"/>
	</g>
</g>
</svg>
