<?xml version="1.0" encoding="utf-8"?>
<!-- Generator: Adobe Illustrator 17.0.0, SVG Export Plug-In . SVG Version: 6.00 Build 0)  -->
<!DOCTYPE svg PUBLIC "-//W3C//DTD SVG 1.1//EN" "http://www.w3.org/Graphics/SVG/1.1/DTD/svg11.dtd">
<svg version="1.1" id="Layer_1" xmlns="http://www.w3.org/2000/svg" xmlns:xlink="http://www.w3.org/1999/xlink" x="0px" y="0px"
	 width="800px" height="600px" viewBox="0 0 800 600" enable-background="new 0 0 800 600" xml:space="preserve">
<g>
	<path d="M264.832,366.97c2.973,37.697,41.683,71.966,74.523,64.215c15.719,19.102,52.927,19.733,76.1,13.747
		c25.131-6.491,45.884-16.086,64.488-38.475c57.783,14.588,83.966-77.485,76.184-120.103c-6.317-34.611-29.358-65.022-60.059-80.758
		c-20.381-10.447-68.32-21.414-88.968-13.591c4.81-6.679,13.538-16.216,18.62-22.45c4.988-6.123-6.054-12.106-10.817-12.65
		c-10.294-1.178-25.478-0.214-29.024,4.083c-7.425,9.006-9.655,21.038-11.474,32.449c-0.504,3.16-1.061,6.775-1.41,10.53
		c-34.766-31.039-89.578,12.612-110.701,40.54c-14.594,19.302-24.29,43.449-23.92,67.793c0.148,9.851,1.226,19.677,5.114,28.694
		C251.971,360.655,264.798,366.94,264.832,366.97z"/>
	<path fill="#C6A853" d="M422.153,165.234c2.008,4.789-12.565,2.386-14.211,2.072c-4.799-0.916-16.549-3.8-14.416-5.921
		C395.656,159.262,418.949,157.593,422.153,165.234z"/>
	<path fill="#B28814" d="M388.473,165.086c0.817,1.085,1.796,1.712,2.101,1.959c-4.033,4.952-5.436,13.196-6.352,19.074
		c-0.06,0.384,0.494,0.54,0.593,0.152c1.901-7.507,4.066-13.466,7.081-18.202c0.458,0.306,0.954,0.565,1.443,0.837
		c-3.104,4.983-5.092,12.558-5.888,15.999c-0.09,0.386,0.489,0.536,0.593,0.152c0.854-3.096,4.36-12.386,6.432-15.537
		c2.256,1.106,4.742,1.915,7.241,2.483c-5.899,8.029-9.296,14.997-12.972,24.232c-1.104,2.768-0.947,6.907-0.272,4.875
		c3.307-9.884,9.764-19.965,16.39-28.033c0.944,0.135,4.422,0.08,4.726,0.11c-7.004,9.01-11.026,14.405-15.97,24.675
		c-1.757,3.655-1.49,5.431-1.146,4.767c5.484-10.727,12.623-20.126,20.316-29.209c1.215,0.058,2.461,0.091,3.712,0.029
		c-12.746,14.335-27.739,33.802-25.913,52.873c-0.67-0.094-1.332-0.231-2.003-0.335c-1.596-3.885-1.371-12.02-0.514-15.081
		c0.101-0.356-0.5-0.601-0.614-0.239c-1.69,5.338-2.103,12.975-1.505,14.878c-0.585-0.106-1.18-0.184-1.764-0.295
		c-1.671-7.21-0.6-21.38,0.223-26.462c0.063-0.384-0.492-0.54-0.593-0.153c-2.382,9.112-3.027,22.79-2.072,26.13
		c-1.016-0.204-2.033-0.399-3.048-0.605C377.913,208.153,377.132,182.47,388.473,165.086z"/>
	<path fill="#9F7E00" d="M393.619,207.541c-5.567-4.471-10.421-9.757-14.128-15.759c-1.622,11.726-1.232,23.53-0.794,32.378
		c1.016,0.205,2.033,0.401,3.048,0.605c-0.955-3.341-0.31-17.018,2.072-26.13c0.101-0.388,0.657-0.231,0.593,0.153
		c-0.823,5.082-1.894,19.252-0.223,26.462c0.584,0.111,1.178,0.189,1.764,0.295c-0.598-1.902-0.186-9.539,1.505-14.878
		c0.114-0.362,0.716-0.118,0.614,0.239c-0.857,3.06-1.082,11.196,0.514,15.081c0.672,0.104,1.333,0.241,2.003,0.335
		C389.984,220.036,391.245,213.713,393.619,207.541z"/>
	<path fill="#FF7700" d="M354.572,432.971c-25.198-11.209-25.843-42.878-30.466-65.97c-0.14-0.706-1.353-0.54-1.252,0.178
		c2.781,20.464,1.779,40.343,10.926,56.287c-0.72-0.008-1.418-0.069-2.129-0.105c-0.52-0.635-1.038-1.282-1.539-1.999
		c-2.131-3.068-3.316-6.679-4.347-10.231c-1.647-5.684-2.422-11.711-3.536-17.513c-0.139-0.741-1.384-0.556-1.306,0.193
		c0.72,6.818,0.543,20.472,4.779,28.972c-41.386-6.388-63.247-56.68-52.795-95.388c8.569-31.721,35.888-60.51,53.428-79.452
		c0.585-0.635-2.572,0.235-6.317,4.209c-26.795,28.45-53.105,57.491-55.343,98.742c-33.578-34.24,8.142-102.584,38.185-123.318
		c0.621-0.426,0.051-1.443-0.584-1.023c-23.775,15.834-54.51,60.03-53.762,96.186c-0.119-0.679-0.267-1.305-0.365-2.014
		c-2.968-21.841,4.092-42.879,14.689-61.718c19.527-34.712,69.42-74.645,109.833-49.213c-0.011,0.704,0.015,1.405,0.026,2.108
		c-6.838-4.153-21.194-5.643-29.705-3.79c-0.756,0.163-0.434,1.241,0.297,1.135c5.391-0.774,17.018-0.281,29.477,5.949
		c0.011,0.123,0.228,1.698,0.246,1.821c-5.899-2.063-13.52,1.118-18.131,4.443c-0.632,0.456-0.054,1.505,0.616,1.064
		c3.358-2.227,10.9-4.483,18.216-2.995c0.148,0.53,0.564,3.338,0.742,3.853c-0.694-0.124-1.39-0.267-2.096-0.376
		c-1.614-0.247-1.982,2.014-0.865,2.81c9.482,6.764,24.798,8.337,35.984,5.858c1.371-0.306,1.625-2.484,0.14-2.845
		c-4.581-1.112-10.775-1.394-14.54-2.119c0.813-7.586,2.864-14.632,6.017-21.282c14.025-1.61,58.82-1.274,70.932,27.032
		c0.284,0.672,1.374,0.187,1.162-0.493c-7.864-25.485-45.799-37.096-70.421-29.762c0.445-0.84,1.72-2.694,2.199-3.532
		c5.764-4.933,48.749-5.416,85.547,9.23c30.831,12.27,52.036,42.766,59.273,74.893c4.212,18.684,1.76,42.36-6.326,63.544
		c1.694-13.574,0.99-27.387,0.484-41.014c-0.011-0.429-0.654-0.414-0.665,0.013c-0.328,11.455-0.311,22.868-1.288,34.308
		c-0.848,9.929-1.341,18.008-7.233,24.79c0.932-2.999,9.323-44.483,3.761-73.522c-0.145-0.74-1.403-0.554-1.31,0.193
		c2.101,16.666,0.872,32.996-1.58,49.578c-3.1,20.943-10.154,34.346-17.251,42.427c-7.101,8.079-14.449,12.658-20.076,14.441
		c4.065-8.237,6.61-25.935,7.195-31.646c0.065-0.664-1.061-0.809-1.159-0.152c-0.984,6.55-7.259,25.679-13.117,33.06
		c-1.567,0.324-3.149,0.607-4.77,0.791c11.43-19.103,15.447-42.436,15.394-64.298c-0.003-2.444-3.42-2.256-3.994-0.196
		c-6.338,22.731-12.421,45.954-25.703,65.783c-13.927,20.797-38.367,29.528-61.519,35.62
		C390.859,441.193,371.396,440.451,354.572,432.971z"/>
	<path fill="#CA5B00" d="M289.852,236.853c-9.627,3.885-18.278,11.031-25.478,19.54c-0.526,0.872-1.05,1.747-1.536,2.613
		c-10.597,18.84-17.657,39.878-14.689,61.718c0.098,0.709,0.246,1.335,0.365,2.014C247.894,292.674,269.043,257.104,289.852,236.853
		z"/>
	<path fill="#CA5B00" d="M489.22,398.816c5.859-7.382,12.133-26.511,13.117-33.06c0.098-0.657,1.224-0.512,1.159,0.152
		c-0.585,5.711-3.13,23.409-7.195,31.646c3.051-0.966,6.615-2.787,10.362-5.512c3.337-11.969,4.343-24.871,4.432-36.21
		c0.111-14.738-0.373-48.826-15.245-60.296c2.119,13.038,2.09,25.975,0.355,38.872c1.053-1.353,3.635-1.221,3.638,0.903
		c0.052,21.862-3.964,45.195-15.394,64.298C486.071,399.423,487.653,399.14,489.22,398.816z"/>
	<path fill="#CA5B00" d="M406.027,204.958c-2.73,0.085-5.104,0.258-6.933,0.468c-3.152,6.651-5.203,13.696-6.017,21.282
		c1.865,0.358,4.328,0.608,6.889,0.906C400.266,219.832,401.888,211.614,406.027,204.958z"/>
	<path fill="#CA5B00" d="M358.94,228.046c11.251,9.738,40.281,24.192,47.311,3.831c-11.062,2.117-25.612,0.464-34.758-6.063
		c-1.117-0.796-0.748-3.057,0.865-2.81c0.706,0.108,1.402,0.252,2.096,0.376c-0.178-0.514-0.593-3.322-0.742-3.853
		c-7.316-1.488-14.858,0.769-18.216,2.995c-0.67,0.441-1.249-0.608-0.616-1.064c4.612-3.325,12.232-6.506,18.131-4.443
		c-0.018-0.123-0.235-1.698-0.246-1.821c-9.331-4.664-18.185-6.11-24.316-6.221C349.877,216.192,352.963,222.874,358.94,228.046z"/>
	<path fill="#CA5B00" d="M348.175,207.463c8.341-0.539,18.928,1.039,24.523,4.437c-0.012-0.703-0.038-1.403-0.026-2.108
		c-8.098-5.098-16.578-7.551-25.121-7.966C347.67,203.727,347.87,205.609,348.175,207.463z"/>
	<path fill="#CA5B00" d="M437.729,423.956c3.621-12.558,7.275-25.184,9.95-37.982c3.056-14.65,4.673-29.34,4.279-44.303
		c-0.201-7.699,0.094-21.137-6.012-27.533c2.561,26.688-3.348,54.707-13.962,79.163c-7.417,17.074-17.778,34.764-33.488,45.197
		c3.414-0.489,6.809-1.107,10.133-1.983c9.45-2.485,19.103-5.434,28.179-9.439C437.13,426.018,437.435,424.972,437.729,423.956z"/>
	<path fill="#CA5B00" d="M452.947,210.073c-0.792-5.317-3.024-9.509-6.266-12.844c-22.031-2.98-40.116-1.636-43.716,1.441
		c-0.479,0.838-1.754,2.692-2.199,3.532C416.507,197.514,437.66,200.602,452.947,210.073z"/>
	<path fill="#CA5B00" d="M549.135,314.365c-1.8-9.579-5.433-17.381-11.984-19.607c4.202,28.722-3.503,66.807-4.393,69.677
		c5.891-6.783,6.385-14.862,7.233-24.79c0.977-11.441,0.96-22.853,1.288-34.308c0.011-0.427,0.654-0.442,0.665-0.013
		c0.505,13.627,1.21,27.44-0.484,41.014C545.412,335.982,547.997,325.037,549.135,314.365z"/>
	<path fill="#CA5B00" d="M325.736,247.897c-33.901-1.483-55.987,30.593-63.671,60.76c-2.686,10.541-4.173,21.244-4.788,32.008
		c1.886,3.653,4.316,7.085,7.399,10.229c2.238-41.251,28.548-70.292,55.343-98.742C322.493,249.524,324.689,248.274,325.736,247.897
		z"/>
	<path d="M366.506,284.576c-13.469-6.843-45.999-18.801-45.986-18.788c-3.713,3.843-5.48,11.768-3.332,18.206
		c3.425,10.271,11.019,15.563,20.692,19.585c12.362,5.134,44.575,6.099,52.992-4.19C384.492,294.005,375.569,289.18,366.506,284.576
		z"/>
	<path fill="#5A260E" d="M330.631,294.509c-4.841-2.702-11.427-10.373-10.918-16.949c16.232,7.016,44.526,19.736,52.358,24.468
		C360.362,304.241,345.963,303.071,330.631,294.509z"/>
	<path fill="#BD4C00" d="M377.132,300.98c-6.556-5.934-46.008-21.158-57.441-25.933c0.17-1.933,0.789-3.771,2.049-5.369
		c22.177,8.609,53.612,22.426,60.849,29.224C381.092,299.733,378.785,300.49,377.132,300.98z"/>
	<path d="M464.068,242.677c-8.812,6.609-48.715,40.393-58.096,51.008C441.141,317.177,485.287,280.459,464.068,242.677z"/>
	<path fill="#BD4C00" d="M413.397,292.534c9.857-9.189,39.249-34.923,49.289-43.377c0,0.03,0,0.055,0.003,0.085
		c-1.231,2.821-4.333,8.448-6.537,12.775c-3.997,3.507-30.615,26.79-38.19,32.07C416.389,293.919,414.293,293.106,413.397,292.534z"
		/>
	<path fill="#5A260E" d="M420.494,294.982c7.332-4.745,30.699-24.829,35.169-29.7c0.489,3.101,1.55,19.094-11.424,27.477
		C437.822,296.907,427.267,297.349,420.494,294.982z"/>
	<path fill="#BD4C00" d="M456.398,284.05c2.284-5.712,3.022-15.586,1.558-20.438c0.768-1.008,5.658-10.042,5.87-10.49
		C466.025,263.731,464.311,275.89,456.398,284.05z"/>
	<path d="M404.741,322.635c-2.235-5.527-10.403-22.369-16.394-9.783c-9.078,19.075-15.838,56.301,12.724,46.295
		C415.038,354.253,408.536,332.028,404.741,322.635z"/>
	<path fill="#5A260E" d="M389.496,317.209c11.755,2.932,9.526,30.062,6.155,38.683C380.483,359.549,384.609,330.267,389.496,317.209
		z"/>
	<path fill="#BD4C00" d="M399.578,354.944c0.106-0.846,2.442-12.456,0.272-25.049c-0.867-5.03-3.058-14.466-9.789-14.166
		c0.37-0.924,0.628-3.262,2.613-3.847c4.603-1.354,9.616,11.239,11.241,18.013C405.887,338.118,408.655,352.912,399.578,354.944z"/>
	<path d="M355.349,348.291c-3.405-9.623-13.621-6.781-17.789,0.275c-4.289,7.257-7.143,23.53-0.791,30.902
		c2.781,4.911,9.225,4.047,13.116-1.5C355.251,370.314,358.58,357.41,355.349,348.291z"/>
	<path fill="#5A260E" d="M337.99,356.998c0.975-3.538,4.895-10.753,7.854-10.94c2.955-0.188,2.005,8.752,0.111,15.252
		c-1.894,6.5-7.582,14.625-9.878,9.666C334.867,368.364,336.973,360.686,337.99,356.998z"/>
	<path fill="#BD4C00" d="M350.022,371.059c-4.338,8.669-9.755,10.428-12.462,4.198c7.04,1.085,14.219-19.229,12.666-28.214
		C355.846,351.152,352.919,365.26,350.022,371.059z"/>
	<path d="M374.86,372.305c-2.041-6.957-7.87-11.063-13.241-4.597c-5.37,6.467-7.132,16.653-7.357,21.832
		c-0.386,8.749,8.912,19.332,17.29,10.772C378.369,393.341,377.377,380.868,374.86,372.305z"/>
	<path fill="#5A260E" d="M365.593,368.35c4.457-1.27-1.355,28.44-7.285,24.866C354.873,391.143,361.134,369.623,365.593,368.35z"/>
	<path fill="#BD4C00" d="M370.211,396.199c-1.57,2.895-4.732,3.888-7.793,2.876c-1.588-0.526-2.615-1.774-3.308-3.316
		c3.223,1.431,6.183-2.153,7.953-6.004c2.507-5.453,4.796-14.944,1.994-20.998c1.718,1.928,2.421,5.038,2.963,7.401
		C373.492,382.543,373.396,390.345,370.211,396.199z"/>
	<path d="M405.606,385.55c-1.17-5.897-5.935-14.062-12.935-11.785c-7,2.278-8.256,15.437-8.574,20.134
		c-0.36,5.366,0.699,11.12,4.664,15.259c2.558,2.662,7.541,3.525,10.91,1.486C407.435,405.947,407.134,393.225,405.606,385.55z"/>
	<path fill="#5A260E" d="M394.492,376.952c5.766,10.084-0.329,24.711-4.801,27.148c-1.755-1.623-3.452-7.006-2.302-13.68
		C388.065,386.496,390.637,376.202,394.492,376.952z"/>
	<path fill="#BD4C00" d="M400.529,404.778c-2.157,3.787-7.451,3.926-8.762,1.745c3.715-1.438,6.52-8.578,7.047-11.311
		c0.976-5.049,0.986-12.597-1.914-17.6C404.454,381.154,404.061,398.565,400.529,404.778z"/>
	<path d="M420.65,367.532c-5.795,1.663-6.991,9.855-7.803,16.982c-0.81,7.128,0.14,19.918,9.989,21.098
		C437.364,407.352,435.737,363.201,420.65,367.532z"/>
	<path fill="#5A260E" d="M422.598,370.378c4.471,11.649,0.407,27.629-4.426,28.263C413.529,393.945,415.403,369.829,422.598,370.378
		z"/>
	<path fill="#BD4C00" d="M420.298,400.851c5.12-1.978,8.804-18.012,5.28-29.389c1.762,0.271,4.607,6.502,4.471,14.356
		C429.914,393.673,428.56,403.965,420.298,400.851z"/>
	<path d="M452.077,359.061c-3.078-6.616-9.436-9.265-12.82-3.441c-3.387,5.824-4.036,14.715-2.877,21.237
		c2.877,16.141,13.438,11.807,16.306,6.347C456.39,376.134,455.242,365.87,452.077,359.061z"/>
	<path fill="#5A260E" d="M442.774,356.161c7.044,12.731,3.793,24.921,0.29,25.97C437.766,378.643,438.717,359.682,442.774,356.161z"
		/>
	<path fill="#BD4C00" d="M446.702,383.517c1.915-2.661,5.012-14.897-2.165-27.625C450.634,354.673,456.863,381.216,446.702,383.517z
		"/>
	<path d="M469.013,333.561c-5.11-6.047-9.461,0.055-11.078,5.774c-1.614,5.721-2.152,14.503-0.068,19.289
		c3.744,8.587,13.349,8.237,16.058-1.243C476.337,348.937,473.871,339.303,469.013,333.561z"/>
	<path fill="#5A260E" d="M460.674,339.646c3.634,2.028,6.442,13.837,4.313,20.986C458.623,360.091,458.703,344.853,460.674,339.646z
		"/>
	<path fill="#BD4C00" d="M467.965,360.496c1.368-7.74-0.538-18.148-5.955-23.157c1.893-4.605,5.034-2.908,6.227-0.543
		C474.601,349.391,471.362,358.5,467.965,360.496z"/>
	<path fill="#953A00" d="M334.132,274.644c-4.29-1.77-8.486-3.453-12.392-4.966c-1.26,1.598-1.879,3.436-2.049,5.369
		c2.874,1.202,7.513,3.059,12.958,5.264C333.03,278.379,333.544,276.497,334.132,274.644z"/>
	<path fill="#953A00" d="M373.386,292.845c-1.304,1.216-2.657,2.369-4.105,3.411c3.655,1.853,6.491,3.495,7.85,4.725
		c1.653-0.491,3.96-1.248,5.457-2.078C380.827,297.252,377.546,295.158,373.386,292.845z"/>
	<path fill="#953A00" d="M462.685,249.157c-2.186,1.841-5.345,4.551-8.972,7.686c-1.747,4.263-3.692,8.428-5.915,12.455
		c4.028-3.491,7.182-6.252,8.354-7.281c2.204-4.327,5.306-9.954,6.537-12.775C462.685,249.212,462.685,249.187,462.685,249.157z"/>
	<path fill="#953A00" d="M418.743,287.647c-2.088,1.884-3.941,3.578-5.347,4.887c0.897,0.572,2.993,1.385,4.566,1.553
		c1.713-1.196,4.411-3.322,7.583-5.915C423.278,288.063,421.012,287.887,418.743,287.647z"/>
	<path fill="#953A00" d="M458.612,272.732c2.028-5.392,3.27-11.068,3.756-16.889c-1.562,2.874-3.898,7.093-4.411,7.768
		C458.64,265.873,458.822,269.223,458.612,272.732z"/>
	<path fill="#953A00" d="M400.674,344.091c-0.218,6.036-1.032,10.354-1.095,10.854c5.671-1.271,6.665-7.513,6.163-14.026
		C404.037,341.953,402.349,343.015,400.674,344.091z"/>
	<path fill="#953A00" d="M346.146,368.625c-0.277,0.038-0.526,0.008-0.764-0.045c-2.269,4.202-5.057,7.105-7.821,6.677
		c2.707,6.229,8.124,4.471,12.462-4.198c0.445-0.898,0.89-2.006,1.309-3.232C349.623,368.161,347.887,368.383,346.146,368.625z"/>
	<path fill="#953A00" d="M365.995,391.747c-1.778,2.964-4.235,5.188-6.885,4.012c0.693,1.542,1.72,2.79,3.308,3.316
		c3.061,1.012,6.224,0.019,7.793-2.876c1.224-2.25,1.989-4.793,2.382-7.427C370.78,390.499,368.607,391.718,365.995,391.747z"/>
	<path fill="#953A00" d="M400.181,393.709c-0.326,0.55-0.789,0.83-1.275,0.912c-0.034,0.194-0.055,0.404-0.093,0.591
		c-0.527,2.734-3.332,9.874-7.047,11.311c1.31,2.181,6.605,2.042,8.762-1.745c1.902-3.342,2.874-9.918,2.209-15.84
		C401.939,390.554,401.101,392.154,400.181,393.709z"/>
	<path fill="#953A00" d="M428.157,388.218c-0.225,0.327-0.455,0.656-0.73,0.962c-0.388,0.433-0.835,0.598-1.272,0.605
		c-1.125,5.627-3.311,10.084-5.857,11.067c8.028,3.027,9.529-6.596,9.735-14.351C429.433,387.102,428.804,387.677,428.157,388.218z"
		/>
	<path fill="#953A00" d="M450.354,368.173c-0.37,0.676-0.944,0.928-1.524,0.936c0.784,7.123-0.905,12.712-2.127,14.408
		c5.591-1.266,6.204-9.868,4.623-17.15C451.001,366.97,450.685,367.572,450.354,368.173z"/>
	<path fill="#953A00" d="M470.066,343.086c-0.262,0.523-0.645,0.796-1.061,0.905c-0.484,1.18-1.066,2.322-1.668,3.448
		c1.096,4.328,1.338,9.034,0.628,13.056c2.871-1.685,5.528-8.494,2.474-18.144C470.317,342.599,470.185,342.841,470.066,343.086z"/>
	<path fill="#FF9544" d="M480.654,210.33c14.561,2.912,39.72,18.888,51.445,50.144C543.825,291.733,464.371,207.072,480.654,210.33z
		"/>
	<path fill="#FF9544" d="M420.091,209.679c11.671-1.667,31.909,5.213,39.724,13.677
		C467.629,231.821,397.295,212.937,420.091,209.679z"/>
	<path fill="#FF9544" d="M484.563,238.984c16.692,4.555,34.514,26.701,39.071,46.237
		C528.194,304.758,470.238,235.076,484.563,238.984z"/>
	<path fill="#FF9544" d="M285.939,251.358c3.412-12.652,28.65-31.259,44.281-33.864
		C345.852,214.889,282.025,265.866,285.939,251.358z"/>
	<path fill="#FF9544" d="M293.75,393.324c-15.443-13.902-21.538-42.151-13.673-69.681c5.208-18.233,24.099-44.932,26.052-37.771
		C308.082,293.036,300.262,399.187,293.75,393.324z"/>
	<path fill="#FF9544" d="M337.384,267.638c9.089,2.694,35.161,14.328,41.028,18.885c5.86,4.56,0-20.838-18.236-26.05
		C341.944,255.266,319.8,262.426,337.384,267.638z"/>
	<path fill="#FF9544" d="M483.906,276.105c7.823,10.617,10.426,42.329,3.26,69.028C480.654,369.412,474.787,263.731,483.906,276.105
		z"/>
	<path fill="#FF9544" d="M326.963,313.222c-8.563,7.709-9.763,31.911-5.208,41.68C326.313,364.673,339.986,301.502,326.963,313.222z
		"/>
	<path fill="#FF9544" d="M529.494,311.922c3.409,6.817,1.956,33.211-4.556,48.191C518.426,375.091,519.725,292.384,529.494,311.922z
		"/>
</g>
</svg>
