<?xml version="1.0" encoding="utf-8"?>
<!-- Generator: Adobe Illustrator 17.0.0, SVG Export Plug-In . SVG Version: 6.00 Build 0)  -->
<!DOCTYPE svg PUBLIC "-//W3C//DTD SVG 1.1//EN" "http://www.w3.org/Graphics/SVG/1.1/DTD/svg11.dtd">
<svg version="1.1" id="Layer_1" xmlns="http://www.w3.org/2000/svg" xmlns:xlink="http://www.w3.org/1999/xlink" x="0px" y="0px"
	 width="800px" height="600px" viewBox="0 0 800 600" enable-background="new 0 0 800 600" xml:space="preserve">
<g>
	<g>
		<path d="M440.567,124.401c-16.095,3.14-182.019,41.735-199.589,45.587c-8.758,29.117-60.254,273.242-60.672,290.313
			c16.967,8.212,253.893,61.749,276.514,69.778c21.048-22.971,105.143-130.721,117.143-145.057
			c2.772-12.002,47.518-175.073,54.382-207.967C618.742,171.671,467.337,135.165,440.567,124.401z"/>
		<path fill="#FFFFFF" d="M615.805,179.728c-5.326,2.687-16.844,10.112-30.181,19.104c-27.046-9.351-55.356-16.852-83.466-22.705
			c11.74-5.015,23.365-10.311,34.354-16.559C577.521,170.301,615.601,179.629,615.805,179.728z"/>
		<path fill="#FFFFFF" d="M513.671,251.831c-2.504,12.163-13.742,59.281-25.928,110.866c-29.629-6.831-92.399-20.744-111.847-26.073
			c10.314-38.687,21.901-79.075,31.216-115.706C460.524,235.965,507.255,249.136,513.671,251.831z"/>
		<path fill="#FFFFFF" d="M414.72,213.957c19.277-8.512,58.262-25.594,58.448-25.675c29.127,8.902,61.153,18.243,86.89,28.187
			c-16.253,11.335-32.454,22.812-39.283,27.919C502.081,238.68,459.946,226.645,414.72,213.957z"/>
		<path fill="#CA0042" d="M486.592,367.588c-2.285,9.695-4.601,19.491-6.883,29.247c-25.492-7.784-83.68-20.75-112.249-26.496
			c4.006-8.92,5.698-23.393,7.417-29.935C395.614,349.366,465.165,365.066,486.592,367.588z"/>
		<path fill="#CA0042" d="M495.115,366.427c15.413-16.817,32.242-29.777,45.225-42.339c-1.169,4.684-6.067,21.829-7.706,27.973
			c-10.767,11.126-38.187,38.151-43.618,43.75C491.062,387.171,493.062,375.041,495.115,366.427z"/>
		<path fill="#FFFFFF" d="M496.943,358.928c8.159-34.397,18.304-73.746,26.106-106.373c6.597-5.627,23.05-17.891,40.783-30.569
			c-7.267,30.956-14.476,64.928-22.074,95.818C535.045,324.408,510.561,346.793,496.943,358.928z"/>
		<path fill="#A7003A" d="M477.784,186.631c7.572-3.21,13.113-5.737,20.762-8.964c27.68,7.573,55.803,14.613,83.101,23.847
			c-6.304,4.279-11.049,7.415-17.535,11.918C538.173,204.1,507.28,194.153,477.784,186.631z"/>
		<path fill="#A7003A" d="M530.352,157.947c-18.113,9.443-99.809,44.675-122.922,54.186c-12.858-3.607-21.532-6.241-34.354-9.802
			c24.023-7.845,106.337-37.795,136.405-49.948C516.358,154.241,523.373,156.106,530.352,157.947z"/>
		<path fill="#FFFFFF" d="M441.456,131.729c10.092,4.33,34.448,11.485,61.846,18.969c-11.218,4.702-22.563,9.025-33.985,13.171
			c-0.097-0.056-0.178-0.125-0.29-0.166c-25.867-8.558-52.643-15.82-80.162-20.808C409.002,138.52,427.665,134.526,441.456,131.729z
			"/>
		<path fill="#A7003A" d="M381.931,144.827c27.767,5.892,55.121,12.998,82.356,20.844c-7.805,2.794-15.63,5.53-23.483,8.212
			c-0.094-0.272-75.279-19.736-89.088-22.589C363.267,148.752,370.522,147.308,381.931,144.827z"/>
		<path fill="#FFFFFF" d="M342.444,153.059c27.91,7.16,63.794,15.09,92.578,23.009c-9.895,4.335-46.789,17.889-69.472,24.183
			c-53.068-14.707-100.206-27.474-107.636-28.872C261.484,170.956,299.764,162.453,342.444,153.059z"/>
		<path fill="#FFFFFF" d="M248.377,176.763c7.311,1.78,58.129,15.723,113.429,31.157c-10.105,36.234-20.966,78.306-31.7,117.412
			c-17.064-4.671-90.517-21.86-109.97-26.455C231.183,247.931,242.222,200.159,248.377,176.763z"/>
		<path fill="#CA0042" d="M219.482,301.901c13.818,8.393,88.874,23.371,109.845,26.277c-2.384,8.814-7.45,30.082-7.837,31.835
			c-17.054-6.358-84.078-18.921-108.645-24.978C215.437,322.661,216.812,314.255,219.482,301.901z"/>
		<path fill="#FFFFFF" d="M189.47,454.447c4.068-26.384,14.119-70.867,23.373-115.097c16.381,4.814,88.339,19.287,107.81,24.377
			c-5.161,23.083-23.383,99.391-27.635,118.184C248.331,471.233,207.441,460.881,189.47,454.447z"/>
		<path fill="#CA0042" d="M296.898,482.843c3.37-18.625,53.503-217.563,68.674-273.868c12.132,3.392,24.44,6.836,36.504,10.235
			c-22.818,82.297-61.698,230.999-67.352,272.538C322.141,488.804,309.397,485.818,296.898,482.843z"/>
		<path fill="#FFFFFF" d="M337.921,492.492c9.794-42.711,19.396-77.353,29.659-117.282c26.987,7.845,86.63,20.306,110.917,26.776
			c-12.693,54.148-24.269,104.801-25.93,117.4C434.808,514.724,387.921,504.132,337.921,492.492z"/>
		<path fill="#FFFFFF" d="M460.83,516.568c9.223-40.332,16.913-71.53,26.962-114.063c5.589-5.802,35.62-35.37,42.796-42.141
			c-8.085,30.408-15.851,61.336-19.713,90.394C489.264,477.825,469.778,503.649,460.83,516.568z"/>
		<path fill="#CA0042" d="M515.607,445.623c8.53-38.987,45.447-191.653,51.728-226.144c6.824-4.852,12.525-8.617,19.076-13.133
			c-11.167,42.566-46.863,176.204-49.588,212.949C530.126,427.549,522.892,436.52,515.607,445.623z"/>
		<path fill="#FFFFFF" d="M567.534,382.147c-4.654,5.308-15.164,18.009-27.943,33.745c4.218-26.424,9.995-52.288,16.524-78.132
			c5.848-6.159,28.579-28.748,33.085-32.502C580.81,335.692,571.26,367.028,567.534,382.147z"/>
		<path fill="#CA0042" d="M589.804,299.861c-6.895,7.013-27.397,24.932-31.88,30.839c1.622-6.258,6.363-24.616,7.563-29.305
			c12.13-10.635,22.502-21.931,32.591-31.723C595.359,279.68,592.565,289.853,589.804,299.861z"/>
		<path fill="#A7003A" d="M387.104,344.806c-4.939-1.574-9.134-3.072-12.227-4.401c-1.719,6.541-3.411,21.014-7.417,29.935
			c4.952,0.998,10.835,2.226,17.252,3.592C385.087,364.19,385.881,354.46,387.104,344.806z"/>
		<path fill="#A7003A" d="M396.48,347.618c-1.75-0.51-3.466-1.004-5.099-1.492c-1.185,9.537-1.941,19.139-2.297,28.732
			c2.33,0.504,4.738,1.029,7.17,1.569C395.907,366.808,395.933,357.191,396.48,347.618z"/>
		<path fill="#A7003A" d="M523.86,339.034c-0.061,0.637-0.125,1.258-0.181,1.89c-0.107,7.081-0.392,14.137-0.94,21.187
			c3.872-3.902,7.356-7.433,9.895-10.051c1.638-6.144,6.536-23.289,7.706-27.973C535.329,328.932,529.716,333.869,523.86,339.034z"
			/>
		<path fill="#A7003A" d="M299.901,354.078c1.605,0.382,3.186,0.749,4.689,1.131c3.001-9.786,4.475-20.011,4.824-30.398
			c-1.925-0.359-3.915-0.731-5.968-1.126C303.281,333.878,302.153,344.057,299.901,354.078z"/>
		<path fill="#A7003A" d="M308.86,356.294c5.349,1.37,9.722,2.639,12.629,3.719c0.387-1.753,5.453-23.022,7.837-31.835
			c-3.704-0.509-9.132-1.406-15.584-2.575C313.35,336.079,311.855,346.385,308.86,356.294z"/>
		<path fill="#A7003A" d="M398.1,233.622c1.368-4.982,2.703-9.815,3.976-14.412c-12.063-3.398-24.372-6.842-36.504-10.235
			c-0.423,1.574-0.881,3.301-1.352,5.091C373.568,224.021,385.469,231.632,398.1,233.622z"/>
		<path fill="#A7003A" d="M564.11,245.048c4.679-3.994,9.649-7.382,14.83-10.301c3.001-11.434,5.596-21.226,7.471-28.401
			c-6.551,4.516-12.252,8.281-19.076,13.133c-1.103,6.073-3.171,15.856-5.856,27.989C562.34,246.65,563.191,245.827,564.11,245.048z
			"/>
		<path fill="#A7003A" d="M573.354,256.182c1.424-5.492,2.807-10.793,4.116-15.805c-4.674,2.94-9.056,6.353-12.991,10.377
			c-1.788,1.826-3.426,3.729-4.998,5.668c-1.235,5.499-2.575,11.398-3.976,17.547C560.519,267.076,566.589,261.225,573.354,256.182z
			"/>
		<path fill="#A7003A" d="M572.198,297.517c0.207-0.96,0.426-1.905,0.627-2.86c-2.394,2.259-4.809,4.519-7.338,6.737
			c-1.2,4.689-5.94,23.047-7.563,29.305c1.694-2.229,5.675-6.174,10.336-10.604C570.206,312.742,570.649,305.039,572.198,297.517z"
			/>
		<path fill="#FFFFFF" d="M599.924,262.865c-10.92,11.582-22.097,21.203-32.675,32.118c7.764-30.676,14.621-61.56,23.597-91.92
			c12.316-8.426,22.953-15.367,28.534-18.358C616.776,199.374,608.9,229.724,599.924,262.865z"/>
	</g>
	<g>
		<path d="M568.708,227.427c-11.524,5.999-21.057,8.79-32.357,4.109c-8.133-3.363-10.244-11.381-12.677-18.753
			c2.139,1.877,4.439,3.663,7,5.285c11.263,7.16,25.102,6.969,35.306,2.614c21.452-9.14,33.356-39.469,28.898-60.929
			c-9.657-46.42-87.361-33.078-108.831-10.566c-1.776-2.173-3.928-4.063-6.546-5.443c-10.836-5.724-27.833-4.547-35.353,3.382
			c-18.689-21.305-52.724-45.378-79.609-31.547c-23.964,12.326-13.452,48.557-5.329,69.887c8.235,21.616,25.423,44.137,53.371,42.64
			c12.369-0.655,26.491-7.891,36.636-17.858c-16.429,37.286-32.706,50.447-53.001,38.401c-0.056-0.035,1.439,25.895,5.886,38.119
			c29.071,3.945,43.325-25.026,49.634-39.665c7.515-17.456,15.668-42.102,12.81-62.976c3.396,1.704,12.104-1.903,19.081-5.24
			c10.314,7.698,11.544,19.524,13.528,29.985c2.03,10.66,6.487,20.576,13.327,30.312c11.47,16.33,40.88,28.152,55.212,28.579
			C566.247,260.314,569.401,233.841,568.708,227.427z M503.706,163.808c10.187-5.724,22.51-9.55,34.306-11.493
			c9.544-1.574,20.991-1.347,29.504,5.591c6.424,5.234,5.155,14.091,3.721,19.751c-2.748,10.81-13.115,25.197-28.648,22.387
			C524.466,196.774,519.805,172.094,503.706,163.808z M450.215,168.393c-7.679,10.471-13.979,21.284-25.823,28.793
			c-18.307,11.62-35.971-2.772-43.549-20.044c-6.235-14.216-9.252-37.426,7.828-42.754
			C408.276,128.272,444.533,154.977,450.215,168.393z"/>
		<path fill="#CA0042" d="M421.157,219.113c-27.099,11.272-46.221-13.296-55.277-34.28c-7.942-18.418-13.166-40.609-5.576-57.342
			c5.372-11.875,21.883-13.233,36.111-10.24c19.743,4.145,33.659,20.434,46.124,33.57c0.285,1.034,0.899,2.547,1.732,4.343
			c-13.391-14.356-35.867-25.752-53.649-24.313c-19.761,1.599-19.838,24.591-16.728,38.279
			c3.663,16.129,16.318,36.078,37.676,36.249c19.371,0.153,36.083-19.504,41.491-34.616c1.961,2.993,4.012,5.848,5.978,8.199
			C453.068,197.028,440.674,210.997,421.157,219.113z"/>
		<path fill="#CA0042" d="M461.28,192.897c-0.334,13.465-4.847,30.839-10.884,45.987c-4.585,11.546-22.202,46.252-44.061,41.712
			c-1.737-6.686-2.919-15.792-3.642-22.356c12.532,4.198,24.631-3.217,30.046-9.552c10.874-12.688,15.136-26.501,19.894-42.121
			C454.599,204.283,459.806,195.352,461.28,192.897z"/>
		<path fill="#CA0042" d="M486.406,169.825c-1.786,1.77-15.594,7.858-18.788,8.459c-3.192,0.606-21.017-25.531-18.763-28.327
			c2.265-2.797,16.482-5.596,26.366-0.38C485.084,154.781,488.197,168.054,486.406,169.825z"/>
		<path fill="#CA0042" d="M488.359,152.552c15.739-11.307,34.56-18.513,57.151-17.927c18.622,0.487,40.008,8.678,44.133,27.107
			c4.366,19.445-8.73,42.676-25.314,52.37c-30.803,18.031-51.415-26.784-70.498-43.47c2.127-1.829,4.468-3.528,6.969-5.1
			c0.066,0.041,0.11,0.094,0.181,0.125c19.845,9.147,23.645,42.79,50.791,38.399c15.627-2.53,24.547-18.959,25.821-31.735
			c1.696-16.949-15.38-26.111-32.984-25.849c-18.383,0.283-40.976,7.642-52.041,19.881
			C492.28,162.153,490.993,157.066,488.359,152.552z"/>
		<path fill="#CA0042" d="M523.36,246.108c-12.321-10.021-18.505-24.471-21.297-37.591c-1.875-8.826-3.933-25.793-15.158-31.29
			c1.895-1.024,3.398-1.977,4.162-2.705c0.226-0.222,0.44-0.53,0.629-0.889c11.281,10.858,17.512,24.43,28.045,35.385
			c2.104,10.018,3.092,19.501,14.274,26.814c9.035,5.907,22.007,3.194,29.675-1.862c-0.861,4.315-0.94,8.938-1.366,13.309
			c-0.54,5.528-1.592,11.091-1.607,16.738C547.355,259.745,534.387,255.066,523.36,246.108z"/>
		<path fill="#A7003A" d="M423.401,139.279c1.454-1.174,2.797-2.514,4.048-3.968c-2.777-2.601-5.688-5.082-8.732-7.369
			c-1.35,2.575-2.865,4.967-4.552,7.066C417.291,136.227,420.393,137.649,423.401,139.279z"/>
		<path fill="#A7003A" d="M427.344,141.553c6.368,3.89,12.216,8.559,16.929,13.61c-0.833-1.796-1.447-3.308-1.732-4.343
			c-3.821-4.022-7.774-8.345-11.992-12.517C429.538,139.462,428.46,140.545,427.344,141.553z"/>
		<path fill="#A7003A" d="M457.33,183.396c0.594-1.467,1.207-2.911,1.712-4.435c-1.966-2.351-4.017-5.206-5.978-8.199
			c-1.796,5.02-4.857,10.53-8.839,15.662C448.506,185.141,452.9,184.157,457.33,183.396z"/>
		<path fill="#A7003A" d="M451.186,236.803c1.309-3.428,2.557-6.92,3.678-10.474c-3.581,1.08-7.157,2.568-10.751,4.252
			c-0.695,1.518-1.429,3.021-2.211,4.503C445.052,235.366,448.157,235.945,451.186,236.803z"/>
		<path fill="#A7003A" d="M456.352,221.408c2.858-10.031,4.717-20.044,4.929-28.511c-1.475,2.455-6.681,11.386-8.648,13.671
			c-1.931,6.327-3.795,12.349-6.037,18.124C449.864,223.339,453.112,222.197,456.352,221.408z"/>
		<path fill="#A7003A" d="M482.944,159.155c-2.387,5.52-7.96,6.701-13.449,5.698c-5.596-1.029-14.784-5.255-19.975-11.108
			c3.34,7.982,15.513,25.034,18.098,24.54c3.194-0.601,17.002-6.689,18.788-8.459c1.134-1.124,0.28-6.901-3.021-12.3
			C483.235,158.07,483.174,158.632,482.944,159.155z"/>
		<path fill="#A7003A" d="M510.66,172.922c-2.84-3.001-5.976-5.56-9.679-7.265c-0.071-0.03-0.115-0.084-0.181-0.125
			c-2.501,1.572-4.842,3.271-6.969,5.1c4.103,3.591,8.273,8.482,12.606,13.767C507.199,180.225,508.592,176.241,510.66,172.922z"/>
		<path fill="#A7003A" d="M494.203,148.655c-1.994,1.241-3.945,2.539-5.843,3.897c2.634,4.514,3.92,9.601,4.208,13.801
			c1.905-2.111,4.251-4.014,6.755-5.818C498.574,156.309,496.48,152.455,494.203,148.655z"/>
		<path fill="#A7003A" d="M518.628,183.017c-1.605-2.252-3.233-4.498-4.947-6.61c-1.984,3.627-3.064,8.131-3.423,12.672
			c1.347,1.666,2.723,3.332,4.119,4.992C515.197,190.092,516.496,186.295,518.628,183.017z"/>
		<path fill="#A7003A" d="M525.299,228.311c-6.842-5.705-13.969-10.464-21.723-13.877c0.668,2.336,1.488,4.692,2.41,7.028
			C512.532,223.428,518.923,225.852,525.299,228.311z"/>
		<path fill="#A7003A" d="M502.196,209.016c7.15,2.797,13.795,6.643,20.135,11.297c-1.128-3.617-1.778-7.418-2.59-11.294
			c-10.533-10.955-16.763-24.527-28.045-35.385c-0.189,0.359-0.403,0.667-0.629,0.889c-0.764,0.728-2.267,1.681-4.162,2.705
			c11.226,5.497,13.284,22.464,15.158,31.29C502.104,208.684,502.155,208.85,502.196,209.016z"/>
	</g>
	<path fill="#F76073" d="M319.55,409.092c6.146-26.037,23.839-95.446,27.973-111.299c4.155-15.851,5.156,34.471,0.67,56.514
		C343.695,376.365,311.262,444.238,319.55,409.092z"/>
	<path fill="#F76073" d="M368.632,150.313c-0.346-11.375,6.215-25.497,22.41-24.114c16.19,1.393-10.673-16.203-23.773-1.044
		C354.164,140.315,369.302,172.372,368.632,150.313z"/>
	<path fill="#F76073" d="M556.107,144.554c16.837,4.654,28.59,15.874,20.653,37.923c-7.939,22.045,24.068-7.581,5.879-29.634
		C569.548,136.979,546.107,141.793,556.107,144.554z"/>
	<path fill="#F76073" d="M458.657,149.921c5.548-2.763,13.054-2.598,17.881,3.144C481.365,158.806,448.743,154.875,458.657,149.921z
		"/>
</g>
</svg>
