<?xml version="1.0" encoding="utf-8"?>
<!-- Generator: Adobe Illustrator 17.0.0, SVG Export Plug-In . SVG Version: 6.00 Build 0)  -->
<!DOCTYPE svg PUBLIC "-//W3C//DTD SVG 1.1//EN" "http://www.w3.org/Graphics/SVG/1.1/DTD/svg11.dtd">
<svg version="1.1" id="Layer_1" xmlns="http://www.w3.org/2000/svg" xmlns:xlink="http://www.w3.org/1999/xlink" x="0px" y="0px"
	 width="800px" height="600px" viewBox="0 0 800 600" enable-background="new 0 0 800 600" xml:space="preserve">
<g>
	<path d="M587.857,473.956c-3.811-22.175-49.131-147.765-60.743-176.211c-11.279-10.732-22.936-18.133-26.921-19.685
		c3.117-8.054,6.866-17.203,9.081-26.607c-19.475-17.315-45.278-20.685-68.897-14.21c11.158-11.805,20.25-25.671,25.561-38.331
		c9.963-23.711,5.368-57.546-20.005-68.943c-26.852-12.042-45.805,11.682-52.839,34.214c-5.252,16.783-7.99,45.307-9.189,63.274
		c-8.186,1.202-19.128,2.883-29.116,5.782c-10.437-16.052-23.595-38.633-34.349-53.297c-11.956-16.312-34.037-51.226-58.452-47.308
		c-10.555,1.686-14.788,14.85-16.805,23.576c-4.509,19.542-2.417,39.101,10.657,54.832c4.924,5.922,10.614,10.689,16.813,14.704
		c-5.992,11.169-6.048,26.459-2.641,32.394c-0.416,0.064-19.222,4.521-18.606,8.527c0.603,4.007,35.005,132.625,41.282,162.878
		c18.935,26.031,85.639,95.106,100.917,109.363C410.113,534.839,580.33,477.748,587.857,473.956z"/>
	<path fill="#8CCDFF" d="M368.592,251.563c-2.106-2.164-6.285-8.161-9.157-12.475c6.231-1.904,17.165-4.045,23.917-4.975
		c0.027,4.528-0.419,10.538-0.183,15.175C377.052,247.145,370.797,249.964,368.592,251.563z"/>
	<path fill="#8CCDFF" d="M512.355,294.903c-15.686,2.627-45.888,11.324-66.433,18.469c-6.131-6.484-33.717-23.242-39.905-26.018
		c8.143-2.095,51.107-13.764,57.868-15.474c8.1,2.781,21.546,11.295,28.6,17.434c1.231-0.742,3.751-3.711,4.536-5.392
		C499.991,286.59,510.322,293.143,512.355,294.903z"/>
	<path fill="#4554E1" d="M439.457,315.601c-0.675,0.231-9.888,3.318-13.803,4.612c-10.085-7.748-29.07-20.508-36.07-23.402
		c3.861-2.248,7.28-5.44,9.84-9.164C411.955,294.668,429.467,306.762,439.457,315.601z"/>
	<path fill="#4554E1" d="M401.674,283.772c0.153-0.337,1.775-5.102,1.982-7.231c16.127-6.546,33.636-9.789,50.311-7.683
		C449.727,270.044,415.23,280.886,401.674,283.772z"/>
	<path fill="#4554E1" d="M467.288,241.391c15.565,2.148,23.944,5.765,33.448,13.042c-1.621,7.767-6.994,17.402-10.111,21.637
		c-24.049-18.085-60.227-19.768-87.31-6.357c-0.433-2.151-1.049-4.268-2.009-6.239c9.121-4.698,19.056-10.283,29.242-17.404
		C442.853,241.121,454.836,239.667,467.288,241.391z"/>
	<path fill="#4554E1" d="M440.388,137.817c25.757,6.22,23.197,44.724,14.594,62.835c-9.42,19.814-28.68,39.732-48.577,51.767
		c2.079-4.633,4.165-9.275,6.206-13.914c6.237-14.269,11.994-28.723,16.504-43.634c3.633-12.059,8.484-52.339-16.531-35.444
		c-0.836,0.573-0.132,1.788,0.751,1.681c12.464-1.447,13.927,4.179,11.945,15.688c-2.157,12.457-14.395,54.927-28.987,79.546
		c-1.952-2.218-3.848-3.385-6.357-5.123C393.416,217.575,390.1,125.697,440.388,137.817z"/>
	<path fill="#4554E1" d="M371.338,260.54c6.134-4.195,15.204-1.218,18.77,2.493c4.061,4.236,5.86,9.59,4.286,15.321
		c-2.418,8.901-12.879,16.094-21.952,12.825C362.52,287.596,359.366,268.718,371.338,260.54z"/>
	<path fill="#4554E1" d="M253.568,161.476c1.56-8.904,4.897-22.256,16.377-18.883c9.641,2.832,17.896,12.717,24.389,19.833
		c10.856,11.867,20.268,25.055,29.43,38.224c5.701,8.194,10.988,17.049,16.452,25.808c-4.66-3.321-9.254-6.365-13.273-9.146
		c-18.05-12.516-31.977-26.33-40.634-46.843c-0.438-1.027-1.864-0.506-1.78,0.522c1.632,20.088,12.591,33.817,28.094,46.004
		c8.817,6.93,18.305,12.972,27.133,19.916c6.298,4.964,10.905,11.117,15.828,17.033c-25.561-16.493-57.08-21.557-82.375-39.047
		C254.665,202.061,249.825,182.933,253.568,161.476z"/>
	<path fill="#4554E1" d="M277.983,228.982c25.252,14.148,57.215,18.23,80.904,34.44c-1.85,1.49-3.671,3.873-4.058,6.167
		c-24.288-14.027-57.164-14.519-77.642-12.752C272.451,247.508,272.852,235.751,277.983,228.982z"/>
	<path fill="#4554E1" d="M362.678,294.098c-11.496,1.721-46.676,14.995-57.115,18.45c-4.953-3.835-11.679-10.891-16.2-15.675
		c14.761-5.236,52.463-13.978,65.678-18.055C355.587,285.049,357.924,289.968,362.678,294.098z"/>
	<path fill="#3035BD" d="M402.61,304.218c3.738-2.711,7.645-5.144,11.642-7.43c-5.19-3.442-10.34-6.624-14.828-9.141
		c-2.56,3.725-5.978,6.916-9.84,9.164C392.415,297.979,397.24,300.808,402.61,304.218z"/>
	<path fill="#3035BD" d="M401.674,283.772c0.153-0.337,1.775-5.102,1.982-7.231c16.127-6.546,33.636-9.789,50.311-7.683
		C449.727,270.044,415.23,280.886,401.674,283.772z"/>
	<path fill="#3035BD" d="M482.452,244.628c-4.316-1.377-9.205-2.417-15.164-3.237c-12.451-1.724-24.434-0.269-36.74,4.679
		c-4.919,3.431-9.765,6.499-14.495,9.288C437.548,247.401,460.608,241.88,482.452,244.628z"/>
	<path fill="#3035BD" d="M404.627,239.941c10.711-23.899,18.926-53.154,20.653-63.145c1.584-9.18,0.866-14.546-5.773-15.632
		C404.388,181.492,405.633,213.377,404.627,239.941z"/>
	<path fill="#3035BD" d="M393.201,276.898c-2.947,4.201-7.492,7-12.763,7.008c-8.38,0.006-14.312-5.3-16.32-12.155
		c-1.668,8.167,1.813,17.079,8.326,19.426c9.073,3.27,19.534-3.923,21.952-12.825c0.53-1.904,0.557-3.746,0.366-5.54
		C394.521,274.263,394.056,275.661,393.201,276.898z"/>
	<path fill="#3035BD" d="M312.722,190.04c-4.585-3.8-9.345-7.634-14.774-10.2c-0.761-0.361-5.314-2.297-8.923-3.612
		c8.742,17.38,21.632,29.788,37.918,41.083c4.02,2.781,8.613,5.825,13.273,9.146c-5.368-8.616-10.579-17.307-16.17-25.383
		C320.477,197.173,316.761,193.413,312.722,190.04z"/>
	<path fill="#3035BD" d="M277.983,228.982c-0.721,0.955-1.304,2.036-1.821,3.176c20.395,5.55,39.612,15.594,56.274,28.613
		c7.828,2.038,15.474,4.819,22.393,8.818c0.387-2.294,2.208-4.676,4.058-6.167C335.198,247.213,303.235,243.13,277.983,228.982z"/>
	<path fill="#3035BD" d="M334.945,284.267c2.966,5.166,6.354,10.168,10.294,14.573c7.234-2.331,13.645-4.173,17.439-4.741
		c-4.755-4.131-7.091-9.049-7.637-15.28C350.55,280.195,343.217,282.129,334.945,284.267z"/>
	<path fill="#8CCDFF" d="M276.894,263.245c12.582,0.734,58.003,2.98,72.527,11.173c-10.735,3.015-52.108,12.707-63.685,18.943
		c-8.621-8.006-15.517-14.707-23.342-24.883C265.352,267.126,271.908,264.768,276.894,263.245z"/>
	<path fill="#6EB6E3" d="M321.168,454.653c-7.328-8.546-16.781-20.179-22.788-28.118c-5.634-27.768-32.326-123.944-37.261-148.294
		c5.395,8.107,14.193,16.813,21.387,23.595C289.001,342.073,313.843,430.703,321.168,454.653z"/>
	<path fill="#2E38C5" d="M324.939,411.013c3.7,17.238,15.344,59.995,16.732,64.406c-4.73-4.921-9.337-9.901-13.817-14.963
		c-11.182-37.154-32.921-115.083-40.913-154.834c1.734,1.589,13.179,12.397,16.81,15.621
		C305.902,339.091,321.247,393.791,324.939,411.013z"/>
	<path fill="#1245CC" d="M324.097,419.984c-4.037-3.765-7.78-7.853-11.359-12.085c5.65,20.352,11.071,39.127,15.116,52.557
		c4.48,5.061,9.087,10.042,13.817,14.963c-1.097-3.485-8.632-31.054-13.554-50.927C326.781,422.99,325.426,421.495,324.097,419.984z
		"/>
	<path fill="#6EB6E3" d="M389.261,524.34c-13.513-13.897-23.918-23.928-38.915-40.122c-11.502-37.159-39.794-141.827-42.25-159.159
		c10.541,9.248,32.16,28.15,32.455,28.312C342.386,364.565,381.492,495.507,389.261,524.34z"/>
	<path fill="#8CCDFF" d="M342.773,344.867c-10.703-10.135-20.683-18.117-31.923-27.65c13.994-5.37,47.768-17.224,57.658-18.359
		c4.671,2.208,11.117,2.135,17.058-0.129c11.921,6.903,24.2,17.326,32.649,23.971C393.289,330.954,368.498,338.717,342.773,344.867z
		"/>
	<path fill="#9FDAFF" d="M399.472,528.336c-12.255-36.293-52.595-175.91-52.536-176.337c23.339-6.35,50.183-14.255,76.631-21.264
		c3.915,13.629,29.621,86.296,45.605,132.291c7.312,21.04,12.599,36.503,12.838,38.186
		C462.953,508.334,411.138,525.088,399.472,528.336z"/>
	<path fill="#2D45BF" d="M472.069,454.932c-12.489-33.023-35.408-102.969-42.717-125.948c4.851-1.726,10.875-3.794,16.482-5.607
		c6.548,22.344,33.658,102.985,44.699,126.956C484.28,450.807,477.896,452.76,472.069,454.932z"/>
	<path fill="#1E329F" d="M463.902,432.419c2.993,8.465,20.29,60.501,22.681,66.837c6.459-1.231,15.422-4.534,21.228-6.669
		c-3.23-7.003-25.109-61.103-30.17-74.931C473.131,422.635,468.554,427.557,463.902,432.419z"/>
	<path fill="#9FDAFF" d="M512.036,491.295c-2.092-5.895-7.503-20.819-14.293-39.585c-16.264-44.85-40.485-111.636-46.549-129.777
		c18.886-6.228,48.454-15.17,67.78-18.537c9.547,23.915,53.891,145.328,58.995,165.578
		C574.22,470.712,526.774,486.966,512.036,491.295z"/>
	<path fill="#81BDEB" d="M407.722,525.911c13.013-3.975,62.833-19.9,74.289-24.697c-2.644-10.461-10.429-32.275-12.838-38.186
		C442.63,476.344,419.124,497.653,407.722,525.911z"/>
	<path fill="#81BDEB" d="M497.742,451.711c0.108,0.312,10.727,30.329,14.293,39.585c11.743-2.667,57.946-18.275,65.933-22.32
		c-0.976-3.851-3.375-11.397-6.682-21.217C547.073,444.256,521.321,445.423,497.742,451.711z"/>
	<path fill="#6D83FE" d="M371.835,265.631c4.144-5.185,10.918-5.636,16.646,1.805C394.206,274.887,363.937,275.519,371.835,265.631z
		"/>
	<path fill="#6D83FE" d="M437.873,141.423c12.464,1.487,16.91,12.072,18.099,27.225C457.152,183.81,417.597,139.008,437.873,141.423
		z"/>
	<path fill="#6D83FE" d="M461.979,248.417c10.991-0.987,26.908,1.541,31.864,4.628c4.964,3.076-0.511,13.368-2.084,13.849
		C490.183,267.379,451.349,249.364,461.979,248.417z"/>
	<path fill="#6D83FE" d="M256.749,182.436c-1.605-8.796,0.183-35.113,9.439-36.791c9.261-1.684,14.266,20.346,13.981,25.028
		C279.874,175.363,261.031,205.837,256.749,182.436z"/>
	<path fill="#6D83FE" d="M308.691,309.08c5.096-2.138,23.853-8.441,29.113-10.049c5.255-1.605-15.554-3.867-20.126-1.896
		C313.112,299.103,303.597,311.215,308.691,309.08z"/>
	<path fill="#C4F3FF" d="M359.349,362.877c5.911,19.335,23.81,86.516,29.721,105.851c5.911,19.329,17.547-46.319,14.591-55.989
		C400.709,403.08,353.439,343.547,359.349,362.877z"/>
</g>
</svg>
