<?xml version="1.0" encoding="utf-8"?>
<!-- Generator: Adobe Illustrator 17.0.0, SVG Export Plug-In . SVG Version: 6.00 Build 0)  -->
<!DOCTYPE svg PUBLIC "-//W3C//DTD SVG 1.1//EN" "http://www.w3.org/Graphics/SVG/1.1/DTD/svg11.dtd">
<svg version="1.1" id="Layer_1" xmlns="http://www.w3.org/2000/svg" xmlns:xlink="http://www.w3.org/1999/xlink" x="0px" y="0px"
	 width="800px" height="600px" viewBox="0 0 800 600" enable-background="new 0 0 800 600" xml:space="preserve">
<g>
	<path fill="#141111" d="M296.794,211.674c46.913-19.202,103.183-10.016,122.832-0.548c-12.701-20.911-17.733-40.769-10.2-66.529
		c2.356,0.867,8.326-1.689,9.015-3.696c-0.553-1.129-2.722-4.454-6.106-7.188c3.447-12.08,21.332-40.24,44.091-57.116
		c2.386,1.146,9.774,8.941,12.99,12.142c1.544-4.484,3.143-15.161,1.662-18.833c19.116-7.927,42.892,1.946,55.56,14.412
		c12.679,12.467,17.443,31.343,16.485,37.804c8.055,0.712,18.561,0.791,19.128,4.409c0.556,3.605-6.106,14.087-6.106,14.087
		s15.885-3.068,16.568-2.638c1.342,0.843,5.382,12.055,4.49,15.839c-0.898,3.782-35.09,20-37.395,23.372
		c-0.783,1.162,7.326,15.932,4.731,21.914c-2.6,5.983-28.748,30.153-39.58,36.728c-15.049,9.12-32.157,13.138-52.345,6.504
		c-2.419,43.985-6.879,166.032-3.204,224.944c-26.997,42.049-137.586,49.061-191.053,4.28c1.22-44.769,0.958-173.467-7.177-192.493
		C244.127,262.54,249.766,230.879,296.794,211.674z"/>
	<path fill="#D0CEC0" d="M477.758,77.144c1.333,5.337-2.472,18.914-6.315,20.674c-2.9-3-7.867-8.296-11.348-10.71
		c-12.536,9.022-25.16,23.066-35.537,46.426c1.62,2.866,5.066,6.997,6.634,11.11c-3.856,4.993-9.161,6.339-12.351,6.886
		c-5.055,26.496,5.673,48.427,17.209,62.397c14.084,17.024,34.127,24.671,53.782,17.344c19.639-7.32,41.879-29.314,45.219-35.382
		c3.335-6.068-4.991-19.45-3.023-22.019c1.967-2.569,37.149-19.103,38.115-21.217c0.945-2.122-0.727-8.592-0.727-8.592
		s-16.762,1.977-22.63,1.011c3.366-4.407,7.849-10.281,8.582-14.712c0.31-1.853-10.807-5.534-22.878-2.959
		C539.609,88.989,495.36,69.459,477.758,77.144z"/>
	<path fill="#B9B6A1" d="M474.637,93.801c2.416-4.917,4.069-12.862,3.122-16.657c4.666-2.039,11.203-2.144,18.156-0.511
		C488.59,82.144,481.336,87.727,474.637,93.801z"/>
	<path fill="#B9B6A1" d="M429.706,154.738c17.737,17.165,38.932,33.383,64.562,39.678c13.592,3.333,26.349,4.262,39.175,3.795
		c-6.228,8.06-25.952,26.477-43.612,33.059c-19.655,7.326-39.698-0.32-53.782-17.344c-11.536-13.97-22.264-35.9-17.209-62.397
		c1.592-0.27,3.703-0.743,5.902-1.764C426.376,151.436,428.017,153.106,429.706,154.738z"/>
	<path fill="#141111" d="M464.557,127.117c-19.915,15.453-21.426,38.324-19.735,47.201c1.697,8.876,7.176,14.693,12.015,14.457
		c-9.118-18.272-2.137-42.801,11.765-53.126c13.874-10.326,31.27-9.718,40.217,6.245c8.965,15.971,5.342,37.099-9.89,52.592
		c-15.274,15.484-31.285,14.711-49.59,5.961c2.805,5.573,12.466,13.556,29.514,12.653c17.049-0.903,35.367-22.099,39.65-40.635
		c4.272-18.539-2.109-36.15-12.145-44.637C496.318,119.338,479.736,115.326,464.557,127.117z"/>
	<path fill="#141111" d="M474.277,140.317c-12.171,9.786-15.165,28.233-9.546,42.519c6.993,6.347,14.409-4.037,16.366-12.617
		c1.961-8.574-2.317-15.083-6.789-17.895c0.715-2.482,2.782-9.766,10.159-7.309c7.393,2.466,10.532,14.441,7.927,25.818
		c-2.609,11.379-6.368,18.442-12.402,23.217c7.745,4.1,20.577-13.788,20.994-29.861
		C501.395,148.113,486.423,130.528,474.277,140.317z"/>
	<path fill="#D0CEC0" d="M305.42,217.662c-27.167,10.867-53.982,37.001-43.92,55.829c10.076,18.825,56.792,29.666,101.815,21.713
		c44.992-7.949,77.278-21.082,79.04-51.658c-4.981-1.232-11.663,1.225-11.663,1.225s-11.828,33.233-68.598,37.05
		c0.458-11.205-0.919-21.378-0.919-21.378l-15.872,1.534c0,0-13.742,20.948-17.302,22.035c-3.6-3.907-7.68-9.765-7.68-9.765
		s-3.689,1.972-8.879,3.476c-0.157,2.917,0.664,7.826,0.664,7.826s-21.975-3.257-29.433-9.048
		c-7.451-5.793-13.298-14.381-8.886-24.48c2.961-6.788,9.904-13.251,14.624-15.556c5.539,1.208,13.418,1.856,17.406,2.72
		c5.684-3.004,3.314-16.374,3.314-16.374s14.855-5.143,21.361-5.382c3.585,3.904,5.051,9.661,10.129,13.839
		c5.449-1.502,22.935-5.566,22.935-5.566l3.699-7.995c0,0,9.966-0.685,16.52,1.237l10.654,9.326
		c7.363-0.275,31.729-4.164,31.729-4.164C393.686,207.621,332.541,206.798,305.42,217.662z"/>
	<path fill="#E9E8E1" d="M400.285,227.763c-2.384,0.268-4.435,0.454-5.858,0.507l-10.654-9.326
		c-0.681-0.201-1.437-0.338-2.176-0.485C386.342,214.536,394.922,221.915,400.285,227.763z"/>
	<path fill="#E9E8E1" d="M305.816,239.184c-0.706-0.153-1.565-0.298-2.486-0.442c1.292-5.969,1.984-12.013,2.231-18.176
		c7.567-2.557,14.873-5.861,22.826-7.09c0.417,1.318,0.787,2.66,1.097,4.029c-6.904,0.654-20.353,5.306-20.353,5.306
		S311.499,236.18,305.816,239.184z"/>
	<path fill="#E9E8E1" d="M272.806,276.646c-9.094-9.198-4.993-19.035,2.215-27.056c-0.46,0.799-0.88,1.613-1.236,2.43
		c-4.412,10.099,1.435,18.688,8.886,24.48c5.166,4.011,17.283,6.805,24.253,8.143C297.319,291.23,279.941,283.861,272.806,276.646z"
		/>
	<path fill="#E9E8E1" d="M311.735,278.724c-0.121,0.012-0.201,0.07-0.312,0.099c-0.007-0.386,0-0.759,0.018-1.1
		c5.19-1.504,8.879-3.476,8.879-3.476s0.588,0.847,1.512,2.104C318.563,277.472,315.207,278.331,311.735,278.724z"/>
	<path fill="#E9E8E1" d="M356.831,265.547c-4.53-0.007-8.993-0.079-13.422-0.741c1.148-1.703,1.893-2.829,1.893-2.829l15.872-1.534
		c0,0,1.19,8.84,0.982,19.112c-0.116,0.181-0.204,0.37-0.261,0.583c-1.356,0.139-2.717,0.19-4.076,0.042
		c0.269-4.213,0.886-8.395,1.042-12.621C358.904,266.459,357.909,265.549,356.831,265.547z"/>
	<path fill="#E9E8E1" d="M408.636,274.002c-9.488,5.56-19.234,5.981-29.298,5.529c30.796-6.243,44.038-22.028,48.912-29.998
		C425.063,259.629,417.712,268.679,408.636,274.002z"/>
	<path fill="#E9E8E1" d="M366.91,218.451l-3.356,7.251c0,0-13.328,3.1-20.334,4.885C349.408,224.378,358.465,219.936,366.91,218.451
		z"/>
	<path fill="#99A5AE" d="M266.942,294.513c1.331,11.835,4.43,34.134,4.463,48.457c51.873,13.268,127.755-5.944,166.613-21.838
		c2.47-14.307,2.328-32.97,4.409-50.236C414.279,303.569,328.178,320.33,266.942,294.513z"/>
	<path fill="#CECCBD" d="M271.426,355.63l-0.29,47.686c28.549,12.341,108.243,23.649,166.784-10.865c0,0-0.243-10.717-0.639-18.788
		c-34.3,25.252-128.156,36.893-140.15,18.961c35.448,5.412,90.238,1.666,141.363-26.03c0.5-4.064,0.574-23.176-0.009-25.498
		c-25.998,16.056-76.794,33.664-109.94,36.629c-13.848,1.238-22.007,1.977-29.814-4.874c45.16,0.685,108.121-19.202,139.977-41.453
		C395.853,348.419,318.817,365.62,271.426,355.63z"/>
	<path fill="#99A5AE" d="M437.578,400.851c-58.353,40.929-167.196,12.8-167.196,12.8l1.926,45.322
		c33.858,22.216,134.107,27.185,165.822-9.244C438.918,432.211,437.472,419.964,437.578,400.851z"/>
	<path fill="#7F8E9A" d="M347.905,315.131c-24.466,1.824-52.556-6.353-67.388-15.728c46.795,14.408,103.554,7.358,138.541-10.936
		C409.021,298.577,380.023,312.738,347.905,315.131z"/>
	<path fill="#7F8E9A" d="M288.042,346.049c-5.757-0.718-11.328-1.718-16.637-3.078c-0.034-14.323-3.132-36.622-4.463-48.457
		c0.037,0.012,0.069,0.026,0.106,0.041C276.9,310.61,282.195,328.688,288.042,346.049z"/>
	<path fill="#7F8E9A" d="M355.814,422.955c28.664-0.727,59.065-6.157,81.764-22.104c-0.019,3.483,0.023,6.687,0.084,9.789
		C414.288,425.575,385.257,429.128,355.814,422.955z"/>
	<path fill="#7F8E9A" d="M313.149,441.335c1.558,10.763,2.764,21.53,3.849,32.296c-18.438-2.912-34.553-8.001-44.689-14.658
		l-1.926-45.322c0,0,16.116,4.157,39.261,6.949C310.971,427.489,312.145,434.401,313.149,441.335z"/>
	<path fill="#D0CEC0" d="M439.289,458.667c0,0-24.373,21.642-71.188,23.304c-68.249,2.428-96.453-15.529-96.453-15.529l-0.169,3.836
		c0,0,29.764,20.67,96.094,18.436c52.239-1.761,71.661-22.639,71.661-22.639L439.289,458.667z"/>
	<path fill="#B3AC99" d="M303.416,393.449c-2.15-0.246-4.261-0.518-6.286-0.826c1.407,2.104,3.984,3.789,7.416,5.104
		c1.266,5.02,2.414,10.053,3.493,15.101c-15.524-2.31-28.46-5.861-36.904-9.513l0.29-47.686c6.467,1.361,13.501,2.204,20.919,2.625
		C296.641,369.911,300.301,381.646,303.416,393.449z"/>
	<path fill="#B3AC99" d="M318.218,485.815c-31.942-5.28-46.739-15.536-46.739-15.536l0.169-3.836c0,0,13.962,8.87,45.961,13.297
		C317.801,481.765,318.033,483.79,318.218,485.815z"/>
	<path fill="#B9B6A1" d="M489.266,165.308c-2.085,7.628-8.27,11.358-8.27,11.358s4.835-6.586,2.558-13.983
		c-2.275-7.395-6.71-10.763-6.71-10.763s2.137-10.396,9.951-2.594C489.729,152.249,490.511,160.729,489.266,165.308z"/>
	<path fill="#B9B6A1" d="M507.771,126.549c0,0-8.937-12.736-29.083-8.694c-20.158,4.045-29.748,20.159-32.697,27.936
		c-5.219-8.107,3.067-31.557,28.953-36.455C501.695,104.269,507.771,126.549,507.771,126.549z"/>
	<path fill="#B9B6A1" d="M501.316,172.49c0,0,5.036-8.381-0.831-21.488c-5.86-13.106-13.644-14.544-17.929-14.74
		c7.467-3.954,19.808,1.305,23.172,15.534C509.096,166.025,501.316,172.49,501.316,172.49z"/>
	<path fill="#B9B6A1" d="M564.6,155.314c-2.778,1.254-27.835,14.041-29.66,15.199c-1.829,1.159,5.521-15.166,7.092-16.296
		C543.593,153.087,567.452,154.03,564.6,155.314z"/>
	<path fill="#B9B6A1" d="M553.541,131.493c-0.095,1.329-5.967,10.266-7.416,11.854c-1.447,1.588-4.594-6.531-3.539-9.136
		C543.632,131.607,553.68,129.471,553.541,131.493z"/>
	<path fill="#B6B3AC" d="M386.897,287.612c-8.288,3.817-43.941,8.594-63.599,8.022C303.64,295.058,403.083,280.166,386.897,287.612z
		"/>
	<path fill="#B7C4CB" d="M317.195,335.486c10.28-5.675,34.812-13.605,47.73-14.642c9.569-0.769,25.491-1.419,37.126-0.933
		C384.812,327.03,334.164,333.513,317.195,335.486z"/>
	<path fill="#B7C4CB" d="M366.612,332.271c15.934-2.578,30.738-6.78,45.721-11.363c6.368,1.254,6.5,3.669-6.932,7.958
		c-18.103,5.777-56.085,14.895-83.84,13.175c-5.889-0.363-8.263-1.456-8.185-2.956C331.154,337.041,348.952,335.131,366.612,332.271
		z"/>
	<path fill="#B7C4CB" d="M397.593,454.614c-10.633,2.703-21.441,4.228-32.298,5.745c-11.478,1.604-23.338,4.796-34.971,4.387
		c10.259-6.314,42.207-14.487,50.653-15.339c7.148-0.72,22.625-0.963,32.157,0.474C407.995,451.598,402.84,453.277,397.593,454.614z
		"/>
	<path fill="#B7C4CB" d="M340.982,468.108c9.691-1.192,19.309-3.013,28.979-4.368c17.337-2.432,33.328-7.229,49.78-12.061
		c2.123,1.173,2.115,2.768-1.435,4.916c-10.465,6.315-49.487,18.388-82.123,15.004c-5.995-0.62-8.68-1.722-9.023-3.111
		C331.763,468.641,336.371,468.675,340.982,468.108z"/>
	<path fill="#B6B3AC" d="M362.922,212.231c-6.08-0.172-21.873,0.747-26.394,1.122c-4.528,0.374,4.145,2.614,10.932,2.989
		C354.248,216.715,376.118,212.604,362.922,212.231z"/>
	<path fill="#E9E8E1" d="M412.698,375.882c-13.686,5.896-38.467,13.078-55.058,14.948c-16.589,1.868,27.148-11.585,38.09-14.948
		C406.664,372.52,430.042,368.407,412.698,375.882z"/>
	<path fill="#E9E8E1" d="M414.58,400.543c-9.904,3.467-35.823,11.582-58.069,11.955C334.265,412.873,446.631,389.333,414.58,400.543
		z"/>
	<path fill="#E6E6DF" d="M528.461,112.091c0-6.024-8.298-20.55-14.709-24.286c-6.411-3.735-3.77,20.55-1.505,22.044
		C514.509,111.344,528.461,118.443,528.461,112.091z"/>
	<path fill="#E6E6DF" d="M519.032,142.73c3.78,8.432,5.275,29.89-1.886,41.099c-7.164,11.21,14.006-6.354,12.068-26.528
		C527.705,141.608,516.014,136.002,519.032,142.73z"/>
	<path fill="#E6E6DF" d="M452.288,96.4c-10.559,10.461-20.357,28.395-23.755,33.253c-3.395,4.858,14.328-4.481,16.968-7.471
		C448.142,119.19,458.334,90.409,452.288,96.4z"/>
	<path fill="#D0CEC0" d="M439.089,201.017c-9.566-11.974-17.234-25.955-16.212-18.682c1.289,9.153,12.443,31.012,30.921,41.101
		C463.907,228.956,450.656,215.49,439.089,201.017z"/>
</g>
</svg>
