<?xml version="1.0" encoding="utf-8"?>
<!-- Generator: Adobe Illustrator 17.0.0, SVG Export Plug-In . SVG Version: 6.00 Build 0)  -->
<!DOCTYPE svg PUBLIC "-//W3C//DTD SVG 1.1//EN" "http://www.w3.org/Graphics/SVG/1.1/DTD/svg11.dtd">
<svg version="1.1" id="Layer_1" xmlns="http://www.w3.org/2000/svg" xmlns:xlink="http://www.w3.org/1999/xlink" x="0px" y="0px"
	 width="800px" height="600px" viewBox="0 0 800 600" enable-background="new 0 0 800 600" xml:space="preserve">
<g>
	<path d="M600.571,323.82c1.037-23.361-3.315-40.05-10.777-53.607c-11.624-21.121-44.56-31.079-63.088-18.463
		c-20.919,14.243-27.899,41.407-26.033,59.973c1.814,18.05,11.814,43.386,15.337,62.367c1.983,10.684,4.146,24.115-0.001,37.127
		c-3.523,11.055-5.182,15.646-9.485,23.128c-0.359,0.622,2.44,11.317,7.228,14.19c7.838,4.704,15.879-1.439,20.77-7.341
		c6.268-7.567,10.627-16.419,11.125-33.731c0.497-17.31-6.319-27.689-1.659-30.663c8.498-5.423,5.804,10.637,14.923,25.239
		c7.081,11.338,18.446,15.227,23.872,11.817c-8.298-12.247-16.067-28.315-15.79-43.731c5.009,13.11,13.472,31.29,27.99,26.846
		c-5.267-12.476-9.513-26.156-9.544-38.944c3.068,10.764,10.663,22.23,21.347,22.875
		C600.779,367.833,599.636,344.891,600.571,323.82z"/>
	<path fill="#B80000" d="M509.815,432.888c0,0,9.559-10.904,11.153-35.92c1.326-20.805-7.085-44.832-12.521-60.335
		c-3.824-10.904-7.137-29.465-5.225-43.256c1.911-13.791,12.038-46.006,41.327-43.936c26.471,1.87,43.132,15.13,49.506,40.466
		c6.373,25.337,1.781,43.613,3.562,62.974c1.299,14.112,4.394,23.068,4.394,23.068s-3.25,0.893-8.667-7.767
		c-5.418-8.661-8.074-20.553-8.074-20.553s-5.049,6.488-1.543,26.051c2.263,12.634,7.987,20.723,7.987,20.723
		s-8.105,2.099-15.823-12.121c-5.424-9.993-10.307-24.44-10.307-24.44s-3.165,13.464,0,26.619
		c4.134,17.181,11.732,27.219,11.732,27.219s-9.82,0.041-16.831-14.071c-7.011-14.11-5.737-23.411-10.835-25.335
		c-5.099-1.924-10.398,1.662-9.854,7.381c0.544,5.719,4.119,26.935,1.887,37.839c-2.807,13.722-9.241,25.016-17.527,28.864
		c-5.216,2.423-7.967,1.924-10.197-1.282C511.727,441.869,505.991,439.944,509.815,432.888z"/>
	<path fill="#8D0000" d="M524.814,273.632c0,0-8.596,12.917-8.413,27.396c0.246,19.675,4.702,35.367,8.413,52.055
		c3.713,16.688,5.693,34.867,4.95,45.081c-0.743,10.213-5.692,20.672-5.692,20.672s11.632-7.473,9.651-36.364
		c-1.98-28.891-9.156-58.778-10.641-75.466C521.267,286.611,524.814,273.632,524.814,273.632z"/>
	<path fill="#8D0000" d="M530.011,342.871c0,0-3.662-20.442-4.95-39.102c-2.475-35.866,4.207-34.87,4.207-34.87
		s1.486,19.179,2.228,33.375C532.239,316.47,530.011,342.871,530.011,342.871z"/>
	<path fill="#8D0000" d="M532.734,323.444c0,0,0.988-19.925-0.248-30.386c-1.237-10.46-2.228-19.424,1.485-28.891
		c3.712-9.465,9.9-11.706,16.828-11.457c6.929,0.25,17.076,4.482,22.521,19.177c5.444,14.696,8.909,27.149,11.137,36.863
		c2.227,9.712,4.95,19.925,4.95,19.925s-11.383-15.94-18.065-42.839c-4.296-17.294-12.87-28.145-21.036-26.402
		c-8.167,1.745-11.632,5.98-12.127,16.688c-0.495,10.71-0.743,16.935-0.743,25.154C537.436,309.497,532.734,323.444,532.734,323.444
		z"/>
	<path fill="#8D0000" d="M539.771,378.493c-2.676,4.284-3.802,10.235-4.03,14.499c-0.507,9.471,1.318,19.155-0.559,28.534
		c-2.31,11.546-9.089,20.793-19.445,25.423c1.963,1.398,4.491,1.234,8.419-0.591c8.285-3.848,14.72-15.142,17.527-28.864
		c2.231-10.904-1.343-32.12-1.887-37.839C539.757,379.257,539.754,378.871,539.771,378.493z"/>
	<path fill="#8D0000" d="M564.164,395.922c-4.721-9.129-7.177-19.925-12.011-21.454c2.417,3.883,2.798,12.006,8.331,23.14
		c6.483,13.048,15.349,13.993,16.652,14.064C571.634,408.179,567.184,401.762,564.164,395.922z"/>
	<path fill="#8D0000" d="M579.507,379.983c-4.048-8.242-10.146-19.179-12.819-19.016c1.741,4.796,5.328,14.178,9.202,21.315
		c6.089,11.219,12.415,12.28,14.816,12.227C586.437,391.438,582.018,385.094,579.507,379.983z"/>
	<path fill="#8D0000" d="M577.398,266.282c5.839,10.009,10.472,20.499,13.437,31.734c3.01,11.398,4.825,22.828,6.244,34.513
		c0.074,0.607,0.149,1.216,0.226,1.825c0.353-13.259,1.085-27.22-3.249-44.446c-4.082-16.221-12.403-27.466-24.799-33.963
		C572.459,258.825,575.13,262.395,577.398,266.282z"/>
	<path fill="#8D0000" d="M596.049,336.157c-1.47-10.982-2.739-21.817-5.35-32.611c-2.811-11.632-6.873-22.465-12.589-32.965
		c-3.998-7.344-8.77-14.222-16.081-17.731c-0.912-0.312-1.831-0.616-2.778-0.887c0.784,0.47,1.552,0.964,2.29,1.502
		c4.528,3.297,8.251,7.473,10.938,12.42c6.758,12.441,10.109,27.012,13.238,40.728c3.084,13.521,5.865,27.095,10.776,40.104
		c0.269,0.713,0.565,1.41,0.845,2.117c-0.09-1.775-0.127-3.544-0.143-5.316C596.745,341.072,596.376,338.609,596.049,336.157z"/>
	<path fill="#8D0000" d="M520.969,396.968c-1.594,25.016-11.153,35.92-11.153,35.92c-0.075,0.139-0.124,0.264-0.192,0.399
		c2.272-1.671,4.547-3.343,6.561-5.305c3.844-3.744,6.462-8.227,8.108-13.351c3.059-9.521,3.653-19.807,3.196-29.756
		c-0.501-10.898-2.231-21.7-4.703-32.314c-2.309-9.911-5.095-19.685-6.678-29.759c-2.681-17.066-2.444-34.032,1.12-50.936
		c0.979-4.642,2.282-10.347,4.532-15.424c-12.185,9.878-17.243,27.61-18.536,36.935c-1.912,13.791,1.401,32.352,5.225,43.256
		C513.884,352.136,522.295,376.163,520.969,396.968z"/>
	<path fill="#8D0000" d="M585.906,350.118c1.076,3.943,3.538,11.829,7.438,18.064c3.085,4.931,5.464,6.761,6.944,7.425
		C599.058,368.774,589.159,352.088,585.906,350.118z"/>
	<path fill-rule="evenodd" clip-rule="evenodd" fill="#4C4C3C" d="M285.034,340.697c0.613,1.056-0.677,4.283-3.652,7.546
		c-3.228,3.539-8.235,7.234-9.352,11.148c4.216,0.126,10.105-1.642,15.986-2.563c8.53-1.337,15.255,2.194,14.357,4.434
		c-0.899,2.242-2.045,5.014-2.724,9.283c-2.115,13.306-8.757,35.786-11.518,35.588c-6.561-0.47-14.711-12.488-14.522-14.205
		c0.189-1.718,8.562,4.279,10.806,2.364c6.392-5.502,4.965-30.668,3.716-30.538c-1.253,0.131-23.079,2.771-24.773,3.74
		c-1.691,0.97-1.514,45.304,0.015,46.184c1.529,0.88,27.486-4.962,38.48-6.486c10.994-1.528,19.523,4.388,19.903,7.057
		c0.38,2.673-4.507,11.523-5.76,19.307c-1.252,7.784-3.4,14.882-4.955,18.697c-1.955,4.8-10.324,18.846-13.622,15.579
		c-9.798-9.709-18.49-12.352-16.037-13.711c3.789-2.099,12.698,0.756,13.838,0.571c5.877-0.952,10.903-14.513,12.108-24.252
		c0.978-7.909-1.492-18.099-3.958-18.099c-2.464,0-22.519,3.932-28.053,4.96c-12.322,2.289-21.244,6.37-22.748,6.678
		c-1.501,0.306,2.656-16.215,3.413-24.419c0.759-8.201-2.391-36.815-1.291-37.675c1.102-0.86,12.096-2.005,12.096-2.005
		s1.746-4.49,3.346-10.125c1.161-4.089,3.072-9.584,2.515-12.797C272.094,333.743,283.758,338.49,285.034,340.697z M231.907,362.359
		c-2.085,0.954-12.131,4.58-20.283,7.25c-8.15,2.67-13.786-1.867-12.321,1.144c1.464,3.012,9.485,5.623,15.945,3.91
		c7.435-1.965,14.806-5.423,15.294-3.429c0.908,3.724-4.361,19.524-4.956,21.189c-0.502,1.415-18.294-13.851-17.958-10.594
		c0.964,9.337,14.5,19.789,13.623,22.436c-4.129,12.465-29.34,36.883-25.386,36.768c3.95-0.115,10.548-4.82,15.204-8.644
		c9.745-8.004,17.073-18.371,18.184-20.048c0.76-1.144,10.78,10.771,12.436,11.242c2.73,0.779,3.108-12.004-8.671-23.682
		c4.768-7.589,10.073-22.28,10.073-25.142C243.091,371.898,233.992,361.405,231.907,362.359z M269.63,376.667
		c0.594,2.567,8.719,10.303,11.183,10.303c2.466,0,1.707-7.249-0.732-9.504C277.643,375.213,269.036,374.101,269.63,376.667z
		 M289.723,427.221c-4.739-0.191-14.218,2.29-25.591,4.962c-11.374,2.67-24.452,5.533-29.257,6.358
		c-4.806,0.826-9.981,0.506-8.844,1.653c1.822,1.835,9.667,4.962,17.44,4.006c5.828-0.714,23.349-5.047,38.395-7.353
		c5.016-0.773,10.32-1.614,13.695-1.424C298.936,435.615,292.949,427.352,289.723,427.221z"/>
	<path d="M398.384,170.844c-1.566,0.628-3.126,1.522-4.379,2.47c-3.445-10.247-10.918-16.048-21.568-16.048
		c-12.372,0-23.648,4.1-33.517,12.295c-3.759,3.152-13.27,12.76-12.372,18.127c0.897,5.368,5.072,9.759,12.108,16.295
		c9.107,8.462,23.645,14.457,34.155,14.986c10.51,0.527,14.725-0.642,19.268-1.587c-1.051,2.114-1.576,4.406-1.788,6.715
		c-9.073,2.796-20.478,7.769-23.529,9.532c1.581,1.364,5.675,3.551,7.398,4.497c-6.438,5.16-8.264,14.359-6.231,21.296
		c-5.115,1.205-20.84,3.482-33.657,5.478c-12.817,1.996-29.733,3.993-38.607,6.227c-8.875,2.233-17.721,6.034-24.507,10.368
		c-6.786,4.335-23.623,18.129-33.803,27.717c-10.18,9.587-28.499,26.946-28.059,29.815c0.261,1.709,43.722-10.639,49.464-11.165
		c5.743-0.526,17.045-0.681,25.503-0.997c13.39,5.465,58.194,9.293,81.687,9.765c-6.396,3.547-22.99,11.187-30.687,12.952
		c-9.736,2.231-21.296,4.945-25.733,11.249c-4.436,6.307-4.421,10.895-4.213,16.648c0.209,5.751,2.699,12.126,7.919,18.43
		c5.219,6.304,9.874,9.156,23.05,8.664c11.845-0.444,34.064-5.518,50.9-21.936c9.61-9.373,21.534-26.007,25.45-36.648
		c3.393,2.628,9.006,12.349,8.875,16.419c-0.13,4.073-10.441,13.266-17.124,18.522c-5.951,0-15.348,6.147-28.505,18.126
		c-12.686,11.822-21.195,21.936-21.065,23.774c0.131,1.837,2.559,2.89,6.135,4.204c-2.793,4.464-6.315,10.686-5.873,12.61
		c1.174,5.121,21.587,15.971,30.671,19.438c25.581,9.458,52.598,12.741,71.783,12.346c15.397-0.315,31.27-2.704,43.017-7.589
		c10.807-4.571,16.628-10.009,18.586-14.345c0-1.733-16-36.413-24.406-49.913c7.1,0.497,13.835-4.073,16.314-8.537
		c2.481-4.466,3.394-7.356,2.219-14.054c4.229,6.619,7.047,9.851,10.31,13.529s12.138,12.61,23.231,13.134
		c8.609,0.41,10.504-2.509,10.312-5.121c-0.262-3.547-9.503-10.612-15.846-14.763c-6.342-4.152-20.099-17.705-19.42-19.86
		c0.679-2.154,10.832,1.653,17.698,4.413c6.865,2.759,15.609,4.99,21.352,4.464c5.743-0.524,10.05-3.414,10.703-9.589
		c0.652-6.173-2.506-9.269-8.563-10.479c-6.055-1.21-26.676-0.685-30.983-0.685c-4.308,0-15.376-1.757-15.063-3.571
		c0.314-1.813,30.986-4.571,38.947-6.542c7.961-1.969,13.441-5.386,13.572-11.559c0.132-6.173-2.088-8.852-6.003-8.852
		c-2.662,0-10.493,2.679-23.335,8.196c-15.661,6.462-28.453,13.16-28.661,11.505c-0.208-1.654,18.48-13.657,22.709-16.391
		c4.229-2.733,9.058-7.856,10.625-12.584c1.566-4.73,0.001-11.691-3.393-11.953c-3.394-0.262-7.518,4.968-11.459,9.248
		c-3.942,4.281-10.242,11.038-15.82,16.889c-6.134,6.437-15.139,15.501-16.835,15.501c-1.696,0-11.485,1.312-18.01,3.414
		c-5.955,1.918-9.028,5.507-9.137,8.539c-0.262,7.356,5.83,14.454,8.092,13.661c3.003-1.052,8.875-9.195,10.832-10.246
		c0,0.157,0,0,0,0c0,1.734,1.567,4.098,4.699,6.777c3.133,2.839,4.699,5.044,4.699,6.62c0,2.364-2.036,6.147-6.264,11.034
		c-2.507,2.995-4.229,5.201-5.326,6.777c-9.554-14.79-15.557-18.469-15.557-18.469c-2.036-9.298-6.056-14.472-8.092-16.521
		c2.506-6.149,5.012-17.339,7.361-33.887c6.995-1.341,15.087-5.019,20.57-15.923c0.47,7.41,1.357,10.404,1.357,11.193
		c6.474-4.098,12.974-15.949,13.913-21.306c0.209,4.306,0.652,9.983,1.436,11.034c4.568-2.759,14.487-16.156,17.619-29.422
		c17.987,14.883,34.172,0.885,33.596-13.266c-0.386-9.464-3.966-17.267-12.737-23.571c6.109-0.946,11.735-5.465,13.137-11.989
		c1.718-7.993-1.964-15.145-9.107-21.504c-7.145-6.36-22.191-13.143-30.828-15.512c7.182-2.114,9.809-8.989,8.407-15.688
		c-1.401-6.699-5.955-16.042-12.961-23.798c-7.006-7.757-15.948-16.185-31.703-16.922c-13.933-0.652-21.719,1.41-26.099,7.58
		c-4.379,6.17-8.581,16.218-10.508,19.566c-1.927,3.348-6.615,1.835-7.181,0.354c-0.876-2.293,5.887-10.074,8.582-15.161
		c2.802-5.288,4.904-15.16-5.605-17.452c-10.881-2.373-30.478,3.526-39.388,9.733c-8.119,5.655-12.213,10.826-12.687,16.236
		C389.976,159.208,393.528,166.43,398.384,170.844z"/>
	<path fill="#CA9A4E" d="M449.962,225.83c-0.627,0-31.303-18.796-35.031-21.752c1.097-1.576,3.566-3.411,4.35-3.411
		c11.125,3.467,34.339,20.803,34.226,21.541C453.393,222.948,450.795,225.506,449.962,225.83z"/>
	<path fill="#FFFFFF" d="M410.547,312.758c-3.158,0.288-8.352-1.181-11.094-2.757c10.886-5.386,34.717-18.522,42.287-24.431
		c7.57-5.911,17.368-14.137,20.727-19.423c0.071,2.512-2.727,12.456-3.498,15.088c-0.771,2.631-6.311,12.069-14.487,18.364
		C429.602,311.049,413.705,312.47,410.547,312.758z"/>
	<path fill="#FFFFFF" d="M406.371,315.517c2.976,0.628,42.809,1.971,50.639-24.038c-1.957,14.844-4.959,35.726-4.828,44.79
		C452.212,338.369,419.109,325.392,406.371,315.517z"/>
	<path fill="#FFFFFF" d="M394.989,248.372c1.422,0.205,1.76,3.217,0.405,4.128c-0.931,0.624-2.626-0.057-2.754-1.451
		C392.514,249.657,393.588,248.169,394.989,248.372z"/>
	<path fill="#FFFFFF" d="M372.805,259.261c-1.866-4.716-2.43-10.286,1.072-15.118c3.908-5.391,10.506-8.129,16.727-8.382
		c4.449-0.179,8.067,2.016,9.76,4.062c-0.469,1.731-0.989,4.134-1.459,6.184c-2.552-3.795-11.746-2.079-12.373,5.674
		c-0.627,7.752,9.088,8.775,11.746,5.201c0.158,1.419,0.313,2.835,0.627,4.256c-2.324,3.238-6.389,5.171-12.772,5.626
		C379.751,267.218,374.563,263.706,372.805,259.261z"/>
	<path fill="#FFFFFF" d="M407.14,235.223c4.235-5.457,12.283-9.866,24.653-9.866c7.205,0,12.373,2.837,15.506,8.513
		c1.88,3.625,2.976,7.88,2.976,12.766c0,4.571-1.33,9.937-4.618,15.296c-5.013,8.038-12.766,11.499-22.633,11.499
		c-13.47,0-20.1-9.118-20.965-18.204C401.379,248.068,403.675,239.686,407.14,235.223z"/>
	<path fill="#DE0000" d="M314.225,361.288c4.436-3.987,16.576-7.348,25.243-9.712c8.667-2.366,38.982-17.695,42.567-19.427
		c6.187-2.989,27.833,3.544,27.833,8.115c-18.011,38.932-43.697,58.32-77.056,58.32c-6.734,0-12.62-1.544-17.384-8.198
		C308.093,380.141,308.118,366.776,314.225,361.288z"/>
	<path fill="#FFAE00" d="M297.129,325.499c19.84-1.576,49.334-3.598,63.561-4.623c14.226-1.025,28.452-5.49,33.986-8.355
		c4.072,3.31,11.119,8.038,21.144,14.5c2.505,1.576,4.854,2.995,7.204,4.256c-2.663,0.946-7.205,0.972-13,1.443
		c-4.959-4.464-22.317-6.173-25.059-5.225c-1.282,0.443-4.699,2.337-9.005,4.306C332.76,333.774,297.129,325.499,297.129,325.499z"
		/>
	<path fill="#DE0000" d="M435.025,130.959c6.305-0.178,10.923,1.835,11.624,5.712c0.7,3.878-3.825,10.728-6.866,14.606
		c-3.041,3.878-5.493,8.106-4.617,11.104c0.747,2.56,1.666,3.869,5.713,4.5c3.92,0.612,7.501-1.742,9.554-4.91
		c2.627-4.054,7.726-18.656,12.164-21.763c6.216-4.353,25.631-4.793,36.49,1.904c10.859,6.7,23.169,23.839,22.448,32.807
		c-0.719,8.968-6.23,9.085-14.88,7.181c-8.263-1.819-13.518-2.109-15.948,1.089c28.355,7.377,62.082,19.907,62.711,39.173
		c0.224,6.89-6.247,10.053-15.223,10.657c-0.524,2.117,3.047,5.677,5.445,7.225c9.651,6.226,11.734,14.365,10.859,22.652
		c-0.875,8.285-8.636,11.419-14.241,11.77c-5.604,0.354-10.057-2.337-12.51-6.569c1.958-4.99,2.561-11.954,2.088-19.7
		c-0.521-8.537-2.818-15.028-7.83-22.595c-4.855-7.407-8.483-11.558-21.274-21.54c-12.289-9.589-32.89-16.813-54.163-18.389
		c-13.63-1.01-27.691,0.66-35.222,4.889c-7.532,4.231-9.284,10.048-9.635,15.513c-0.35,5.463-23.646,9.696-37.833,5.288
		c-14.188-4.407-34.402-19.947-32.65-26.47c3.215-11.968,24.866-24.308,37.302-24.484c10.707-0.154,19.998,4.048,22.976,15.505
		c-2.627,3.526-3.884,8.534-2.162,9.794c6.481-9.87,14.645-13.303,20.25-15.771c-0.56-2.269-5.837-1.817-8.628-0.279
		c-4.568-4.535-7.46-12.795-7.027-16.866c0.433-4.071,7.399-10.309,12.975-13.874C416.14,133.222,428.721,131.137,435.025,130.959z"
		/>
	<path fill="#C20000" d="M382.035,332.148c-0.477,0.231-1.437,0.707-2.744,1.354c4.249,0.371,8.427,1.415,11.993,3.645
		c4.59,2.87,9.227,7.704,8.332,13.658c-0.971,6.452-6.226,13.038-10.236,18.005c-4.46,5.522-9.519,10.533-14.996,15.031
		c-3.7,3.039-7.537,5.873-11.462,8.569c19.141-8.52,34.793-25.876,46.947-52.147C409.869,335.692,388.223,329.159,382.035,332.148z"
		/>
	<path fill="#C20000" d="M388.647,182.642c0.305-2.009,1.356-4.508,2.859-6.526c-1.948-7.494-6.606-11.868-12.586-13.966
		C384.219,166.975,387.413,175.33,388.647,182.642z"/>
	<path fill="#C20000" d="M434.981,130.96c-0.428,4.089-2.173,8.118-3.872,11.73c-2.732,5.816-8.683,14.047-6.307,20.756
		c1.58,4.466,6.114,5.878,10.475,4.855c1.581-0.371,2.983-0.951,4.272-1.678c-2.933-0.708-3.726-1.992-4.384-4.241
		c-0.876-2.998,1.575-7.226,4.617-11.104c3.041-3.878,7.566-10.728,6.866-14.606c-0.701-3.877-5.319-5.89-11.624-5.712
		C435.011,130.959,434.995,130.96,434.981,130.96z"/>
	<path fill="#C20000" d="M541.896,232.589c6.992-1.168,11.714-4.327,11.522-10.226c-0.14-4.29-1.929-8.245-4.926-11.885
		c0.877,2.216,1.407,4.553,1.441,6.988C550.024,224.036,546.782,229.104,541.896,232.589z"/>
	<path fill="#C20000" d="M529.836,248.398c0.117,1.924,0.15,3.782,0.128,5.59c1.237-3.072,1.945-6.348,1.87-9.819
		c-0.209-9.679-5.22-18.427-11.379-25.588c-10.029-11.663-23.884-21.263-39.037-24.889c7.521,2.949,14.155,6.548,19.313,10.573
		c12.791,9.982,16.419,14.133,21.274,21.54C527.018,233.37,529.315,239.861,529.836,248.398z"/>
	<path fill="#C20000" d="M505.736,165.542c-2.39,7.163-7.732,12.335-13.822,16.483c-0.002,0.014-0.006,0.026-0.008,0.039
		c2.772-1.948,7.64-1.529,14.75,0.036c8.65,1.905,14.161,1.787,14.88-7.181c0.641-7.975-9.023-22.396-18.808-30.206
		c0.505,0.975,0.982,1.962,1.411,2.971C506.513,153.275,507.711,159.622,505.736,165.542z"/>
	<path fill="#C20000" d="M396.786,203.796c-3.787,1.879-7.718,3.08-11.894,3.713c-4.962,0.753-9.986,0.514-14.981,0.628
		c-4.635,0.107-9.259,0.432-13.887-0.01c-0.198-0.02-0.391-0.065-0.588-0.087c2.903,1.478,5.779,2.699,8.443,3.526
		c14.187,4.407,37.483,0.175,37.833-5.288c0.125-1.95,0.435-3.942,1.115-5.893C400.841,201.566,398.864,202.767,396.786,203.796z"/>
	<path fill="#C20000" d="M544.237,240.656c2.5,3.792,4.557,7.882,4.321,12.518c-0.237,4.657-2.039,7.27-6.293,9.146
		c-4.771,2.106-9.097,1.856-13.034,0.273c-0.36,2.013-0.842,3.874-1.483,5.506c2.453,4.232,6.905,6.923,12.51,6.569
		c5.605-0.351,13.366-3.485,14.241-11.77C555.357,254.789,553.361,246.828,544.237,240.656z"/>
	<path fill="#FFE1A2" d="M359.777,421.646c0.523-2.231,12.978-15.456,22.506-23.993c9.528-8.537,15.344-12.703,25.263-12.784
		c8.355-0.069,26.593,6.857,38.34,20.256c4.542,5.043,10.114,12.387,13.116,18.43c3.003,6.043,5.444,13.948,2.722,15.691
		s-11.239-15.891-18.809-25.349c-7.569-9.458-19.447-19.572-22.241-16.419c0,0,15.536,13.065,20.757,23.835
		c5.22,10.77,6.931,22.986,6.434,26.899c-0.496,3.913-2.341,3.643-5.081,2.2s-10.963-19.831-16.183-28.633
		c-5.221-8.801-14.748-21.279-18.925-16.419c6.135,6.961,19.447,37.17,17.098,44.526c-2.349,7.357-11.894-12.272-16.706-22.066
		c-6.003-12.216-10.624-14.633-13.051-13.004c0.966,2.156,3.026,5.254,3.732,9.458c0.704,4.204,3.68,18.548,1.879,20.36
		c-1.801,1.811-5.872-6.83-8.222-13.399c-2.349-6.566-7.83-11.82-7.048-9.061c0.783,2.757-0.469,6.251-3.367,6.672
		C379.093,429.266,359.256,423.878,359.777,421.646z"/>
	<path fill="#FFAE00" d="M266.326,290.008c7.051-5.909,21.037-13.247,31.404-15.802c9.992-2.464,23.942-4.392,35.687-6.363
		c11.746-1.971,26.63-4.591,35.28-5.951c3.702,8.073,21.727,12.944,31.617,3.187c3.327,8.449,13.287,13.929,24.86,13.624
		c12.902-0.342,24.398-9.61,27.79-20.322c2.036-1.263,18.428-12.873,19.838-12.873c1.409,0,0.496,19.284-0.6,28.557
		c-1.097,9.272-2.558,20.069-3.837,31.34c-1.278,11.269-3.289,23.485-4.308,29.947c-1.018,6.462-3.131,16.682-6.394,17.994
		c-3.263,1.314-14.017-13.267-14.487-14.054c1.253,0.315,13.442,5.123,13.442,2.364c0-2.757,0.706-26.925,4.62-48.044
		c3.759-19.23,5.888-34.259,3.226-34.259c-6.134,9.194-22.72,21.377-40.451,31.972c-12.46,7.445-30.269,15.611-35.28,17.66
		c-8.928,3.782-21.621,5.588-38.223,6.693c-43.539,2.994-75.176,5.358-88.488,6.541c-13.312,1.181-33.19,8.011-39.456,8.144
		C222.566,330.359,232.002,318.774,266.326,290.008z"/>
	<path fill="#F09000" d="M325.733,326.162c9.928,0.146,19.811-0.875,29.732-0.924c10.378-0.051,20.083-1.244,30.038-4.277
		c4.547-1.386,8.915-3.084,12.967-5.557c-1.463-1.058-2.735-2.021-3.794-2.882c-5.534,2.864-19.76,7.33-33.986,8.355
		c-12.793,0.922-37.93,2.649-57.293,4.134C310.843,325.386,318.275,326.05,325.733,326.162z"/>
	<path fill="#F09000" d="M373.064,288.476c-4.438,2.179-9.796,5.392-11.76,10.244c-0.703,4.802,7.89,3.899,10.255,3.36
		c3.179-0.725,6.301-1.767,9.256-3.157c3.211-1.51,11.38-5.754,9.862-10.478C388.669,282.192,376.716,286.685,373.064,288.476z"/>
	<path fill="#F09000" d="M398.245,270.609c7.188,13.699,21.481,15.038,32.649,11.065c5.89-2.094,12.374-6.465,14.826-11.908
		c-5.307,5.173-12.657,8.725-20.545,8.935c-11.573,0.306-21.533-5.174-24.86-13.624c-9.89,9.757-27.915,4.886-31.617-3.187
		c-0.798,0.127-1.663,0.265-2.559,0.411C371.286,275.029,387.6,280.828,398.245,270.609z"/>
	<path fill="#CA9A4E" d="M375.882,236.707c-1.101-0.636-3.19-1.772-4.262-2.851c4.97-2.671,14.797-7.163,25.132-9.607
		c0.508,1.308,0.792,4.662,0.621,5.285c-0.17,0.625-2.033,1.478-4.262,2.444C388.11,230.844,379.798,233.397,375.882,236.707z"/>
	<path fill="#FFE1A2" d="M519.918,231.453c3.263,5.778,5.305,11.559,5.22,22.067c-0.13,16.286-10.964,39.141-15.348,43.241
		c0,0-0.469-11.299-3.706-15.002c-0.626,9.141-6.395,21.935-11.329,25.56c0.313-3.625-0.939-12.95-3.132-14.027
		c-1.071,6.2-7.988,16.078-14.722,20.176c-2.037,1.261-4.072,2.207-5.795,2.837c2.193-16.706,6.449-58.032,6.265-64.757
		c-0.182-6.724-0.13-13.266-2.349-12.216c-2.219,1.053-10.729,7.41-21.012,15.632c2.349-5.911,1.565-20.884-4.204-25.982
		c1.41-0.157,6.422-5.673,6.422-6.777c0-1.733-5.482-6.304-16.445-14.027c-11.277-7.723-18.356-11.318-22.24-11.663
		c-3.286,1.255-8.143,6.144-8.77,7.88c10.963,7.25,19.733,12.768,26.312,16.866c-16.194-0.759-28.224,5.774-32.889,14.974
		c-1.602-1.582-4.257-3.289-5.668-3.687c0.711-0.262,2.689-1.471,2.767-2.331c0.077-0.857-0.395-6.877-1.074-8.468
		c-0.847,0.057-3.162,0.796-4.801,1.309c0.328-2.697,1.017-5.343,2.198-6.526c5.638-1.736,9.693-4.856,9.84-8.549
		c0.147-3.691,0-10.991,7.833-14.933c7.833-3.942,19.142-4.238,29.622-3.719c14.561,0.72,45.581,8.915,62.808,25.625
		C511.825,220.787,516.654,225.675,519.918,231.453z"/>
	<path fill="#EDD7A2" d="M366.042,429.003c5.872,1.838,13.819,3.545,16.183,3.545c2.349,0,4.15-0.71,5.246-2.127
		c6.761,16.444,12.674,23.297,15.505,21.041c3.133-2.494,0.262-21.016-1.174-26.664c2.349,5.649,12.661,27.19,16.967,30.735
		c3.575,2.944,9.037,3.256,10.181-2.495c1.565-7.88-1.698-17.074-7.179-28.765c5.351,6.435,12.267,25.352,17.881,30.342
		c3.884,3.452,6.445,2.072,8.743,0.551c6.004-3.967,0.654-23.012-2.035-29.317c5.559,6.04,9.083,16.812,13.783,16.944
		c3.271,0.09,5.298-2.759,5.089-6.437c-0.208-3.678-3.786-17.731-15.27-30.997c-11.484-13.268-25.8-21.665-40.209-23.399
		c9.241-9.141,14.733-14.745,14.681-20.104c-0.053-5.359-4.229-14.555-9.712-20.86c0.524-2.076,0.262-3.94-0.783-5.121
		c2.507,0.157,10.702-0.657,15.193-0.972c2.349,1.261,5.612,2.652,7.647,3.598c2.089,3.547,4.517,7.357,7.962,11.297
		c5.483,6.304,8.979,8.906,13.835,8.906c1.253,0,2.35-0.948,3.446-2.68c6.631,7.008,9.434,26.838,7.869,28.676
		c-3.608-6.679-7.904-13.946-9.158-13.946c-0.464,10.888-2.722,16.438-6.187,19.925c-0.156-5.834-0.93-21.442-4.271-21.572
		c0.626,5.516,2.167,25.613,2.349,27.583c2.193,0,8.432-6.962,9.345-20.096c1.722,2.524,5.481,7.88,7.701,15.367
		c1.096,0,5.409-3.984,3.19-16.724c4.568,3.809,11.477,12.525,19.552,26.649c10.394,18.183,20.293,38.855,22.546,46.818
		c-1.043,2.89-7.362,8.462-15.819,11.98c-8.456,3.521-21.116,6.17-36.257,6.935c-23.361,1.183-55.338-4.467-71.521-10.377
		c-16.184-5.911-29.791-14.3-30.932-18.126C360.038,437.804,365.416,429.947,366.042,429.003z"/>
	<path fill="#DECA92" d="M470.175,198.586c13.735,7.387,26.407,17.131,36.374,29.236c8.188,9.943,14.235,21.028,17.965,32.738
		c0.379-2.427,0.606-4.797,0.624-7.039c0.085-10.508-1.957-16.289-5.22-22.067c-3.264-5.778-8.093-10.666-14.2-16.497
		c-14.131-13.707-37.534-21.679-53.529-24.501C458.387,192.667,464.445,195.505,470.175,198.586z"/>
	<path fill="#DECA92" d="M481.297,289.476c0.025-3.459,0.539-40.633-4.33-46.884c0.279,2.341,0.313,5.625,0.403,8.956
		c0.184,6.724-4.072,48.05-6.265,64.757c1.724-0.63,3.758-1.576,5.795-2.837c1.329-0.809,2.663-1.849,3.96-3.036
		C481.081,303.445,481.247,296.457,481.297,289.476z"/>
	<path fill="#DECA92" d="M411.029,205.88c5.247,5.278,10.531,10.553,15.982,15.638c2.555-0.288,5.246-0.39,8.073-0.258
		C428.968,217.45,420.934,212.395,411.029,205.88z"/>
	<path fill="#DECA92" d="M469.671,391.961c-2.219-7.487-5.979-12.843-7.701-15.367c-0.555,7.984-3.078,13.672-5.464,16.917
		c2.247-1.134,4.029-2.967,5.665-5.093c0.306-0.396,0.938-0.215,1.166,0.152c2.778,4.478,4.052,9.557,5.691,14.517
		c6.022-4.031,9.858-11.227,11.879-18.938c-3.131-4.128-5.86-7.089-8.047-8.914C475.08,387.977,470.767,391.961,469.671,391.961z"/>
	<path fill="#DECA92" d="M392.164,444.613c0.246,0,0.53,0.139,0.641,0.371c1.744,3.625,3.729,7.392,6.427,10.402
		c1.14,1.27,2.644,3.041,4.443,3.286c3.098,0.419,4.198-3.798,4.849-6.037c0.184-0.631,1.016-0.729,1.357-0.178
		c4.222,6.806,21.538,18.022,24.257,4.66c0.091-0.446,0.713-0.719,1.091-0.446c7.328,5.313,16.063,3.723,20.348-4.648
		c1.707-3.333,2.354-6.786,2.19-10.208c-3.618-2.793-6.821-10.981-11.407-15.965c2.689,6.306,8.04,25.35,2.035,29.317
		c-2.298,1.52-4.86,2.9-8.743-0.551c-5.613-4.99-12.53-23.907-17.881-30.342c5.481,11.691,8.744,20.884,7.179,28.765
		c-1.144,5.751-6.606,5.439-10.181,2.495c-4.306-3.545-14.618-25.087-16.967-30.735c1.436,5.649,4.308,24.171,1.174,26.664
		c-2.83,2.256-8.743-4.597-15.505-21.041c-1.097,1.418-2.897,2.127-5.246,2.127c-2.364,0-10.311-1.707-16.183-3.545
		c-0.314,0.472-1.821,2.682-3.197,4.933C371.366,441.021,380.804,444.613,392.164,444.613z"/>
	<path fill="#DECA92" d="M414.723,340.997c1.02,1.172,1.993,2.445,2.904,3.773c6.425-4.3,13.842-4.556,21.444-2.546
		c-0.818-1.267-1.577-2.51-2.29-3.722c-2.035-0.946-5.298-2.337-7.647-3.598c-4.491,0.315-12.686,1.128-15.193,0.972
		C414.984,337.057,415.246,338.92,414.723,340.997z"/>
	<path fill="#E8CA90" d="M540.017,341.839c-8.771,1.103-14.722,1.891-18.011,2.522c-5.325,0.788-8.144,1.734-8.144,2.994
		c0,5.201,8.771,7.882,26.312,7.725c12.686,0,19.943,0.234,23.466,1.678c3.523,1.446,5.351,3.679,4.307,7.619
		c-1.043,3.942-5.481,5.124-10.441,5.124c-4.96,0-13.444-2.367-19.839-4.862c-6.395-2.495-16.575-5.78-18.402-2.757
		c-1.827,3.021,7.95,14.003,16.836,21.41c4.568,3.809,9.769,7.672,12.269,9.587c2.741,2.102,5.794,3.836,4.698,6.042
		c-0.913,1.84-3.393,2.233-9.658,1.052c-6.264-1.183-15.139-8.013-18.924-12.741c-3.785-4.728-7.048-8.013-9.788-11.822
		c-2.741-3.811-5.692-6.042-5.065-4.728c0.627,1.312,1.253,3.94,1.41,6.304c0.314,3.153,0.157,6.149-0.469,8.513
		c-1.723,7.88-7.36,11.662-16.914,11.662c-1.541-2.049-4.229-6.043-4.543-6.515c3.133-4.202,6.265-8.142,7.988-10.035
		c2.819-3.465,4.229-6.777,4.229-10.086c0-2.207-1.854-5.911-5.012-8.196c-3.158-2.287-4.855-4.52-5.011-7.25
		c2.819-2.524,4.856-3.967,6.683-4.755c-1.174-2.89-10.677,3.572-13.105,6.645c-2.427,3.074-5.403,6.621-6.734,6.621
		c-2.088,0-5.09-6.568-4.699-9.456c0.392-2.89,2.193-4.886,9.554-7.25c2.976-0.946,13.286-2.6,15.245-2.6
		c1.958,0,11.877-9.459,17.358-15.37c5.482-5.909,23.047-25.138,25.032-25.374c1.984-0.238,2.374,5.147,0.548,9.744
		c-1.828,4.599-9.527,10.509-15.74,14.528c-6.255,4.047-15.535,12.391-15.976,13.056c-0.783,1.183-0.652,2.757,1.306,2.89
		c1.959,0.133,17.49-5.781,26.364-9.456c8.874-3.678,24.146-9.852,26.624-9.195c2.48,0.657,2.245,4.757,2.245,4.913
		C566.015,335.377,557.401,339.317,540.017,341.839z"/>
	<path d="M423.63,256.758c-0.282,6.48,5.026,11.083,10.827,10.054c6.313-1.123,9.504-5.62,9.617-10.565
		c0.106-4.576-3.049-9.549-8.923-9.549C429.278,246.698,423.875,251.138,423.63,256.758z"/>
	<path fill="#FFFFFF" d="M433.513,259.772c-1.129-2.671,1.187-5.628,3.502-6.423c2.316-0.794,3.728,1.534,2.824,4.148
		C439.075,259.71,434.643,262.445,433.513,259.772z"/>
	<path d="M368,289.115c-6.302,3.236-8.744,8.275-7.048,9.457c3.62-3.982,11.089-8.254,17.03-9.791
		c-6.281,5.466-5.005,7.365-2.546,7.687c3.905,0.512,13.707-5.252,15.404-8.406c1.697-3.152-1.043-5.252-6.656-4.728
		C378.571,283.859,374.395,285.832,368,289.115z"/>
	<path fill-rule="evenodd" clip-rule="evenodd" fill="#8B8B78" d="M283.55,339.202c0.612,1.056-0.677,4.284-3.652,7.546
		c-3.229,3.539-8.235,7.234-9.353,11.148c4.217,0.127,10.105-1.642,15.988-2.561c8.53-1.338,15.254,2.192,14.357,4.433
		c-0.899,2.242-2.044,5.014-2.724,9.283c-2.115,13.306-8.757,35.786-11.517,35.588c-6.562-0.47-14.712-12.488-14.523-14.205
		c0.189-1.718,8.562,4.279,10.806,2.364c6.393-5.501,4.965-30.667,3.717-30.536c-1.254,0.13-23.079,2.769-24.773,3.738
		c-1.692,0.97-1.513,45.305,0.015,46.184c1.529,0.88,27.485-4.96,38.48-6.486c10.994-1.528,19.524,4.387,19.903,7.057
		c0.38,2.673-4.507,11.523-5.76,19.307c-1.253,7.784-3.4,14.882-4.954,18.697c-1.956,4.8-10.325,18.846-13.623,15.579
		c-9.797-9.709-18.49-12.352-16.037-13.711c3.79-2.099,12.698,0.758,13.837,0.573c5.878-0.954,10.904-14.514,12.109-24.253
		c0.977-7.909-1.493-18.099-3.958-18.099c-2.463,0-22.52,3.932-28.054,4.962c-12.32,2.287-21.243,6.37-22.747,6.676
		c-1.502,0.306,2.655-16.215,3.413-24.418c0.758-8.203-2.392-36.816-1.291-37.677c1.101-0.86,12.096-2.005,12.096-2.005
		s1.746-4.488,3.346-10.125c1.161-4.089,3.071-9.584,2.516-12.796C270.61,332.249,282.273,336.995,283.55,339.202z M230.422,360.866
		c-2.085,0.952-12.131,4.579-20.282,7.249c-8.15,2.67-13.786-1.867-12.322,1.144c1.465,3.012,9.485,5.623,15.945,3.911
		c7.436-1.966,14.806-5.424,15.294-3.429c0.907,3.723-4.361,19.522-4.956,21.187c-0.502,1.415-18.294-13.85-17.958-10.594
		c0.963,9.337,14.501,19.789,13.624,22.436c-4.129,12.465-29.341,36.883-25.388,36.768c3.951-0.115,10.549-4.82,15.204-8.644
		c9.745-8.004,17.073-18.371,18.185-20.048c0.759-1.144,10.779,10.773,12.435,11.241c2.732,0.779,3.109-12.004-8.67-23.682
		c4.767-7.589,10.072-22.28,10.072-25.141C241.605,370.403,232.508,359.91,230.422,360.866z M268.145,375.173
		c0.595,2.566,8.719,10.301,11.183,10.301c2.465,0,1.706-7.249-0.733-9.504C276.158,373.718,267.551,372.606,268.145,375.173z
		 M288.239,425.726c-4.741-0.191-14.218,2.29-25.591,4.962c-11.374,2.67-24.453,5.533-29.257,6.358
		c-4.805,0.827-9.981,0.506-8.844,1.653c1.822,1.835,9.668,4.962,17.44,4.008c5.827-0.716,23.349-5.049,38.395-7.354
		c5.016-0.773,10.321-1.612,13.695-1.424C297.451,434.12,291.465,425.857,288.239,425.726z"/>
	<path fill="#FFC758" d="M281.935,282.154c4.236-2.308,12.135-5.747,21.178-7.424c9.042-1.677,43.545-7.901,50.446-8.38
		c6.901-0.481-15.229,9.337-33.551,13.41C301.685,283.831,276.224,285.267,281.935,282.154z"/>
	<path fill="#FFC758" d="M371.405,285.027c5.276-1.326,17.388-6.168,21.179-0.717c1.665,2.394-0.593,8.558-1.428,9.818
		c-2.38,3.592,9.993-5.028,5.71-12.451C391.631,272.598,363.79,286.944,371.405,285.027z"/>
	<path fill="#FFC758" d="M455.642,258.446c2.326-1.951,14.375-11.245,15.942-10.059c0.951,0.72,0.951,12.213,0.476,13.411
		c-0.476,1.199-2.38-8.144-3.807-7.903C466.825,254.135,452.786,260.84,455.642,258.446z"/>
	<path fill="#FF7258" d="M360.729,177.377c-11.229,6.556-28.35,13.199-26.038,5.942c1.104-3.462,6.844-12.022,20.401-16.884
		c13.557-4.864,18.791-4.053,20.671-2.432C376.689,164.804,371.659,170.996,360.729,177.377z"/>
	<path fill="#FF7258" d="M396.566,153.873c-0.075-2.983,6.442-11.076,15.704-15.399c9.262-4.323,16.107-5.539,17.314-4.187
		C430.792,135.639,396.834,164.679,396.566,153.873z"/>
	<path fill="#FF7258" d="M392.54,185.887c2.124-3.664,9.26-11.617,22.012-15.805c8.449-2.775-2.953,6.349-6.175,8.511
		C405.156,180.754,390.66,189.13,392.54,185.887z"/>
	<path fill="#FF7258" d="M466.496,140.501c3.546-1.189,11.62-1.897,17.985-0.811c7.113,1.216,11.544,2.973,14.362,5.269
		c2.818,2.296-11.007,4.187-20.536,4.457C468.777,149.686,457.637,143.472,466.496,140.501z"/>
	<path fill="#FF7258" d="M512.936,192.503c5.569,2.085,23.757,8.376,29.393,15.4c5.637,7.024,0.94,9.051-10.469,2.567
		C520.452,203.986,501.393,188.18,512.936,192.503z"/>
	<path fill="#FF7258" d="M315.574,373.076c-0.636-2.494,0.42-10,14.461-12.735c11.208-2.183,21.332-7.642,28.201-10.553
		c6.87-2.911,2.53,2.548-5.785,10.553C344.136,368.346,319.189,387.266,315.574,373.076z"/>
	<path fill="#FFF2BB" d="M502.914,267.73c0,0,3.086,4.184,4.828,10.797c1.743,6.614,2.548,14.847,2.548,14.847
		s3.219-9.043,1.342-16.197C509.754,270.023,502.914,267.73,502.914,267.73z"/>
	<path fill="#FFF2BB" d="M495.672,261.657c0,0,5.096,4.995,7.511,9.583c2.413,4.588,2.547,8.502,2.547,8.502
		s-4.694-3.642-6.572-7.961C497.282,267.46,495.672,261.657,495.672,261.657z"/>
	<path fill="#FFF2BB" d="M496.074,268.269c0,0,0.804,3.511,3.353,7.154c2.548,3.645,4.962,6.072,4.962,6.072
		s-3.755,1.621-7.243-3.238C493.66,273.398,496.074,268.269,496.074,268.269z"/>
	<path fill="#FFF2BB" d="M497.416,280.822c0,0,7.375,2.43,6.303,8.368c-1.073,5.938-5.767,12.417-5.767,12.417
		s2.816-7.289,2.28-12.147C499.695,284.602,497.416,280.822,497.416,280.822z"/>
	<path fill="#FFF2BB" d="M491.38,277.718c0,0,4.829,2.022,6.304,7.692c1.474,5.67-0.671,11.204-0.671,11.204
		s-1.072-6.75-2.547-10.664C492.99,282.036,491.38,277.718,491.38,277.718z"/>
	<path fill="#FFF2BB" d="M504.39,262.871c0,0,4.292,2.296,6.973,8.638c2.683,6.343,2.415,12.956,2.415,12.956
		s4.425-7.018,1.207-15.251C511.766,260.982,504.39,262.871,504.39,262.871z"/>
	<path fill="#FFF2BB" d="M502.378,256.797c0,0,5.901-0.136,9.388,3.509c3.486,3.643,4.962,9.313,4.962,9.313
		s2.012-7.559-2.28-12.418C510.157,252.344,502.378,256.797,502.378,256.797z"/>
	<path fill="#FFF2BB" d="M507.742,249.24c0,0,5.499,2.43,7.912,7.018c2.414,4.588,2.816,9.718,2.816,9.718s2.95-7.018,0.269-11.743
		C516.057,249.509,507.742,249.24,507.742,249.24z"/>
	<path fill="#FFF2BB" d="M489.741,277.087c0,0,2.186,5.587,3.195,8.294c1.009,2.706,1.513,6.092,1.513,6.092
		s-3.364-3.045-4.372-6.77C489.068,280.98,489.741,277.087,489.741,277.087z"/>
	<path fill="#FFF2BB" d="M488.058,278.272c0,0-0.167,3.386,0.674,6.262c0.841,2.876,2.185,4.739,2.185,4.739s-4.709-2.2-4.876-5.415
		C485.873,280.641,488.058,278.272,488.058,278.272z"/>
	<path fill="#FFF2BB" d="M496.467,239.854c0,0-0.504,6.601,2.523,9.985c3.025,3.384,10.93,2.709,10.93,2.709s-5.045-2.54-7.4-4.739
		C500.167,245.61,496.467,239.854,496.467,239.854z"/>
	<path fill="#FFF2BB" d="M498.149,239.347c0,0,1.85,3.045,3.868,5.078c2.018,2.031,4.877,4.061,4.877,4.061
		s-1.009-4.737-3.027-6.768C501.849,239.686,498.149,239.347,498.149,239.347z"/>
	<path fill="#FFF2BB" d="M490.077,252.209c0,0,3.532,3.551,4.372,7.276c0.841,3.724-0.505,10.663-0.505,10.663
		s-2.017-5.754-2.69-9.985C490.581,255.933,490.077,252.209,490.077,252.209z"/>
	<path fill="#FFF2BB" d="M484.696,394.539c0,0,4.54,3.386,7.231,9.14c2.691,5.754,1.681,12.016,1.681,12.016
		s-3.698-7.448-5.717-12.016C485.873,399.109,484.696,394.539,484.696,394.539z"/>
	<path fill="#FFF2BB" d="M485.201,401.477c0,0,1.849,3.722,4.54,8.969c2.691,5.248,4.708,8.802,4.708,8.802
		s-5.886-2.878-8.071-7.955C484.191,406.216,485.201,401.477,485.201,401.477z"/>
	<path fill="#FFF2BB" d="M496.131,417.724c0,0,2.86,5.076,4.036,8.801c1.177,3.725,1.849,8.293,1.849,8.293
		s2.859-4.907,0.504-10.493C500.167,418.741,496.131,417.724,496.131,417.724z"/>
	<path fill="#FFF2BB" d="M497.14,423.31c0,0,2.523,4.907,3.532,9.646s-1.345,11.339-1.345,11.339s-1.513-5.923-2.018-11
		C496.803,428.217,497.14,423.31,497.14,423.31z"/>
	<path fill="#FFF2BB" d="M495.963,427.879c0,0-0.169,5.245,0.672,9.646c0.841,4.401,2.186,9.14,2.186,9.14s-4.204-3.048-4.877-9.479
		C493.272,430.757,495.963,427.879,495.963,427.879z"/>
	<path fill="#FFF2BB" d="M486.882,417.387c0,0,4.589,1.716,5.55,6.431c1.345,6.601-2.691,10.663-2.691,10.663
		s0.505-5.415-0.167-9.14C488.9,421.617,486.882,417.387,486.882,417.387z"/>
	<path fill="#FFF2BB" d="M484.023,414.003c0,0,2.445,4.546,3.532,9.138c1.681,7.109,0.504,10.493,0.504,10.493
		s-2.522-5.417-3.532-10.663C483.759,418.97,484.023,414.003,484.023,414.003z"/>
	<path fill="#FFF2BB" d="M483.183,421.11c0,0,0.168,4.229,1.345,7.277c1.177,3.047,3.196,6.431,3.196,6.431s-4.54-1.862-5.213-5.923
		C481.837,424.833,483.183,421.11,483.183,421.11z"/>
	<path fill="#FFF2BB" d="M489.405,437.694c0,0,1.682,3.217,1.849,6.771c0.168,3.553-0.841,6.601-0.841,6.601
		s4.372-3.048,3.531-7.787C493.105,438.541,489.405,437.694,489.405,437.694z"/>
	<path fill="#FFF2BB" d="M489.405,442.433c0,0,1.178,3.048,0.336,7.448c-0.768,4.02-3.532,7.616-3.532,7.616s0.169-4.74,0.673-8.293
		C487.386,445.649,489.405,442.433,489.405,442.433z"/>
	<path fill="#FFF2BB" d="M488.395,440.403c0,0-1.849,4.064-2.186,6.601c-0.336,2.537-0.505,5.415-0.505,5.415
		s-2.185-3.893-1.344-7.109C485.201,442.097,488.395,440.403,488.395,440.403z"/>
	<path fill="#FFF2BB" d="M480.155,431.265c0,0,3.869,1.184,4.877,5.078c1.009,3.892-2.354,9.138-2.354,9.138
		s0.671-5.248,0.168-7.787C482.342,435.157,480.155,431.265,480.155,431.265z"/>
	<path fill="#FFF2BB" d="M479.652,433.633c0,0,2.354,3.386,2.185,7.448c-0.168,4.061-1.345,5.923-1.345,5.923
		s-0.504-4.064-0.84-7.448C479.315,436.172,479.652,433.633,479.652,433.633z"/>
	<path fill="#FFF2BB" d="M479.483,409.941c0,0,2.69,1.691,2.859,6.092c0.168,4.401-2.019,8.632-2.019,8.632s0.169-5.924,0-8.802
		C480.155,412.986,479.483,409.941,479.483,409.941z"/>
	<path fill="#FFF2BB" d="M479.146,415.018c0,0,0.337,4.398,0.337,6.937c0,2.54,0.336,5.417,0.336,5.417s-2.69-2.201-2.522-6.262
		C477.465,417.048,479.146,415.018,479.146,415.018z"/>
	<path fill="#FFF2BB" d="M423.821,352.567c0,0,1.681,3.723,1.849,6.093c0.169,2.37-0.504,5.415-0.504,5.415s3.699-2.878,3.027-6.092
		C427.52,354.768,423.821,352.567,423.821,352.567z"/>
	<path fill="#FFF2BB" d="M426.68,353.074c0,0,2.354,2.031,2.522,4.909c0.168,2.878-1.346,5.246-1.346,5.246s4.036-2.033,3.363-5.586
		C430.548,354.09,426.68,353.074,426.68,353.074z"/>
	<path fill="#FFF2BB" d="M432.396,357.813c0,0-1.177,3.217-0.84,6.771c0.337,3.553,4.036,6.599,4.036,6.599
		s-1.849-4.231-2.185-7.109C433.07,361.199,432.396,357.813,432.396,357.813z"/>
	<path fill="#FFF2BB" d="M430.042,363.906c0,0,0.144,3.118,1.683,5.246c1.345,1.862,3.867,3.725,3.867,3.725
		s-5.044-0.17-6.053-3.047C428.529,366.953,430.042,363.906,430.042,363.906z"/>
	<path fill="#FFF2BB" d="M434.078,361.706c0,0,0.673,2.878,1.514,5.924c0.568,2.063,1.346,4.739,1.346,4.739
		s1.345-3.215,0.504-5.924C436.601,363.737,434.078,361.706,434.078,361.706z"/>
	<path fill="#FFF2BB" d="M424.326,347.32c0,0-0.336,2.879,1.682,4.232c2.017,1.353,4.035,1.353,4.035,1.353
		s-2.017-1.692-3.025-2.876C426.007,348.844,424.326,347.32,424.326,347.32z"/>
	<path fill="#FFF2BB" d="M427.184,348.675c0,0,2.691,2.537,3.532,3.892c0.841,1.355,1.514,2.878,1.514,2.878
		s1.513-2.537-0.337-4.739C430.042,348.506,427.184,348.675,427.184,348.675z"/>
	<path fill="#FFF2BB" d="M424.83,367.631c0,0-1.513,2.37-3.194,4.061c-1.682,1.692-3.364,2.708-3.364,2.708s3.364,0.509,5.381-1.522
		C425.67,370.846,424.83,367.631,424.83,367.631z"/>
	<path fill="#FFF2BB" d="M425.502,365.768c0,0,0.505,3.215,0.168,5.078c-0.337,1.862-2.354,3.723-2.354,3.723
		s4.541-0.677,4.709-3.723C428.193,367.798,425.502,365.768,425.502,365.768z"/>
	<path fill="#FFF2BB" d="M438.619,364.414c0,0,1.178,3.048,1.009,6.262c-0.169,3.215-1.009,6.093-1.009,6.093
		s3.364-2.37,3.364-5.923C441.983,367.292,438.619,364.414,438.619,364.414z"/>
	<path fill="#FFF2BB" d="M441.478,365.6c0,0,2.017,3.047,1.682,5.923c-0.336,2.876-1.513,4.57-1.513,4.57s3.195-1.184,3.532-4.739
		C445.514,367.798,441.478,365.6,441.478,365.6z"/>
	<path fill="#FFF2BB" d="M428.865,373.383c0,0-2.354,1.695-2.185,4.064c0.168,2.369,3.531,3.722,3.531,3.722
		s-1.681-2.198-1.681-3.892C428.529,375.585,428.865,373.383,428.865,373.383z"/>
	<path fill="#FFF2BB" d="M429.875,373.215c0,0-0.505,2.876,0.336,5.415c0.841,2.539,2.859,4.232,2.859,4.232
		s0.503-3.384-0.505-5.246C431.556,375.753,429.875,373.215,429.875,373.215z"/>
	<path fill="#FFF2BB" d="M432.396,349.014c0,0,1.514,0.845,1.851,3.215c0.337,2.368,0,4.062,0,4.062s2.185-2.372,1.514-4.571
		C435.087,349.522,432.396,349.014,432.396,349.014z"/>
	<path fill="#F2E1B6" d="M475.005,353.406c0.337-1.474,2.613-3.633,5.6-2.756c2.987,0.879,3.111,4.761,1.618,7.641
		s-3.485,4.383-4.605,3.131C476.499,360.17,474.259,356.662,475.005,353.406z"/>
	<path fill="#F2E1B6" d="M509.475,346.892c3.147,1.624,5.212,5.254,4.978,11.147c-0.249,6.263-4.562,8.853-4.729,7.515
		c-0.123-1.002,1.761-4.329-0.124-10.02c-1.867-5.635-6.223-7.014-7.84-7.139C500.143,348.271,504.622,344.388,509.475,346.892z"/>
	<path fill="#F2E1B6" d="M547.68,331.489c2.77-1.175,12.818-5.135,15.057-5.01c2.24,0.125,2.738,6.138-2.738,8.643
		C554.524,337.626,540.586,334.495,547.68,331.489z"/>
	<path fill="#F2E1B6" d="M551.661,356.914c2.741,0.035,12.319-0.127,14.559,3.381c2.241,3.506-1.987,6.17-5.848,6.512
		C553.278,367.432,542.078,356.789,551.661,356.914z"/>
	<path fill="#F2E1B6" d="M541.457,389.725c1.927,1.424,7.964,5.385,8.96,6.764c0.995,1.377-1.245,3.129-6.596,1.877
		C538.471,397.114,533.99,384.215,541.457,389.725z"/>
	<path fill="#F2E1B6" d="M530.756,314.207c1.854-2.031,8.212-8.516,9.332-9.141c1.12-0.627,1.742,4.883-0.373,8.389
		C537.599,316.963,525.156,320.344,530.756,314.207z"/>
	<path fill="#FFF2C0" d="M413.406,388.975c3.235-0.75,8.213,0.877,5.849,3.883c-2.365,3.006-25.137,18.16-32.354,21.165
		C379.683,417.027,405.642,390.78,413.406,388.975z"/>
</g>
</svg>
