<?xml version="1.0" encoding="utf-8"?>
<!-- Generator: Adobe Illustrator 17.0.0, SVG Export Plug-In . SVG Version: 6.00 Build 0)  -->
<!DOCTYPE svg PUBLIC "-//W3C//DTD SVG 1.1//EN" "http://www.w3.org/Graphics/SVG/1.1/DTD/svg11.dtd">
<svg version="1.1" id="Layer_1" xmlns="http://www.w3.org/2000/svg" xmlns:xlink="http://www.w3.org/1999/xlink" x="0px" y="0px"
	 width="800px" height="600px" viewBox="0 0 800 600" enable-background="new 0 0 800 600" xml:space="preserve">
<g>
	<g>
		<path fill="#34AA22" d="M391.849,84.892c-0.842,17.386-15.041,36.93-25.568,49.472c-4.656,5.547-19.512,11.802-14.116,16.491
			c4.363,3.792,43.146-43.186,43.146-57.862L391.849,84.892z"/>
		<path fill="#D33100" d="M342.532,356.302c-18.278-1.997-49.81-5.169-76.276,11.684c-80.599,51.324-37.492,152.716,37.439,175.971
			c63.005,19.554,137.337-44.412,113.757-117.314c-13.68-53.182-32.829-57.02-70.988-69.533L342.532,356.302z"/>
		<path fill="#AD1D0D" d="M301.335,370.285c10.086-3.205,19.15-1.584,28.262-1.764c11.305-0.223,41.76,16.461,18.841,28.23
			c-14.622,7.508-73.07-7.666-47.76-25.995L301.335,370.285z"/>
		<path fill="#B4D136" d="M318.743,368.765c5.685-19.704,12.232-41.421,17.279-61.003c15.015-58.251,38.755-114.215,53.279-172.061
			c6.243-24.866-9.37-60.992,6.48-79.774c7.316-8.669,18.003,25.047,18.72,28.938c4.026,21.868,7.773,27.757,33.637,47.382
			c28.49,27.677,47.947,107.186,56.361,161.437c0.55,8.367,8.3,45.73,2.88,51.618c-18.286,19.864-17.709-63.018-18.72-69.606
			c-6.232-40.615-27.682-135.699-78.478-150.944c-8.423,7.847-14.795,37.089-18,49.272c-13.098,49.798-34.564,97.788-43.919,148.598
			c-2.663,14.463-4.182,51.431-12.96,63.35c-3.954,5.368-22.208,3.6-19.695-9.896L318.743,368.765z"/>
		<path fill="#D33100" d="M573.635,345.696c-21.065-28.734-95.455-18.849-130.335,5.081c-40.213,27.589-34.95,119.503,0.72,147.034
			c84.892,65.522,187.142-6.461,158.396-115.75c-4.415-16.787-15.06-28.566-28.079-35.976L573.635,345.696z"/>
		<path fill="#E8818A" d="M277.922,398.792c-31.41,16.583-34.837,62.908-19.265,93.919c4.196,8.357,30.985,37.158,41.435,25.806
			c13.2-14.339-24.693-44.35-24.309-64.815c0.276-14.705,31.291-55.812,3.315-55.812L277.922,398.792z"/>
		<path fill="#E8818A" d="M459.545,374.441c-36.549,3.726-20.055,75.767-7.086,94.549c3.127,4.529,14.108,19.375,20.692,16.055
			c13.818-6.969-8.713-45.151-9.29-55.962c-0.759-14.223,16.434-50.19-3.8-54.586L459.545,374.441z"/>
		<path fill="#E8818A" d="M572.844,362.447c-5.611-1.5-29.887-7.032-26.141,9.246c2.32,10.078,15.445,13.489,19.425,22.935
			c2.211,5.25-1.428,34.277,6.334,36.238c31.939,8.069,15.346-59.286,1.267-67.888L572.844,362.447z"/>
		<path fill="#E8818A" d="M393.432,450.421c4.912,21.342-10.085,38.201-26.719,47.236c-5.908,3.209-30.275,4.226-24.624,16.504
			c5.804,12.61,21.59,3.537,28.291-0.569c20.205-12.381,34.809-25.491,29.863-52.358L393.432,450.421z"/>
		<path fill="#34AA22" d="M352.698,144.779c5.196,1.529-52.25,4.813-52.25,4.813l-21.164,8.211l-31.746,27.917l-17.133,30.654
			l-11.59,30.106l-5.039,72.802l-8.567,19.159l18.645-12.59l59.966-9.306l18.645-9.306l29.227-25.18l22.676-45.433l4.031-19.706
			l3.023-20.253l-7.559-53.096L352.698,144.779z"/>
		<path fill="#3CD824" d="M327.9,175.532c-29.047,26.699-47.421,51.348-67.333,85.702c-3.594,6.2-16.1,36.94-23.125,36.94
			c-4.18,0,5.337-6.996,8.162-10.343c9.112-10.797,18.177-20.595,25.165-33.246c17.456-31.603,35.897-55.986,59.852-82.008
			L327.9,175.532z"/>
	</g>
</g>
</svg>
