<?xml version="1.0" encoding="utf-8"?>
<!-- Generator: Adobe Illustrator 17.0.0, SVG Export Plug-In . SVG Version: 6.00 Build 0)  -->
<!DOCTYPE svg PUBLIC "-//W3C//DTD SVG 1.1//EN" "http://www.w3.org/Graphics/SVG/1.1/DTD/svg11.dtd">
<svg version="1.1" id="Layer_1" xmlns="http://www.w3.org/2000/svg" xmlns:xlink="http://www.w3.org/1999/xlink" x="0px" y="0px"
	 width="800px" height="600px" viewBox="0 0 800 600" enable-background="new 0 0 800 600" xml:space="preserve">
<g>
	<path fill-rule="evenodd" clip-rule="evenodd" d="M289.47,500.775c0.594-5.957-6.106-10.224-5.957-14.892
		c0.285-8.994,13.716-11.062,18.467-15.491c7.944-7.404,9.221-20.937,5.957-30.978c-3.043-9.365-13.766-17.204-13.701-25.021
		c0.066-8.281,4.138-16.614,7.744-24.426c13.166,7.638,28.938,3.367,36.675-10.961c9.752,6.509,20.598,9.313,32.406,5.313
		c11.605-3.93,20.403-13.775,27.021-23.917c5.643,4.923,12.643,7.59,19.666,2.643c7.571-5.333,11.306-15.387,15.053-23.457
		c1.668-3.597,3.258-7.138,6.007-10.024c3.284-3.449,9.704-2.888,13.528-5.937c8.499-6.779,8.163-17.465,5.839-27.34
		c34.443,8.489,59.078-4.502,60.6-14.578c1.446-9.591-8.361-8.228-16.624-19.232c-2.379-3.161-8.768-11.409-11.32-14.297
		c17.79-13.555-3.575-77.446-36.341-73.278c4.766-35.744-33.361-41.104-42.893-32.766c-0.596-24.424-32.169-24.424-43.49-16.084
		c-7.745-23.83-58.978-18.469-61.361,8.937c-14.054-4.193-29.787,9.531-26.212,19.66c-19.66-5.958-41.056,3.455-45.865,31.621
		c-14.919,0.524-35.786,17.76-52.813,13.61c-4.357-1.065-11.45-7.179-11.787,3.013c-0.482,14.68,26.8,12.608,37.615,19.041
		c-10.143,1.714-22.939,16.641-12.024,25.769c-8.258,2.697-17.489,18.624-0.334,20.006c-6.634,6.506-6.911,18.601,0.6,23.32
		c-1.558,4.125-2.187,8.242-1.134,12.155c-20.436-3.172-28.505,19.315-9.664,25.169c-5.366,6.36-3.881,23.943,11.864,20.868
		c-0.851,4.99,2.145,10.554,6.335,10.856c-23.526,8.326-50.186,23.612-43.134,48.956c7.215,25.921,19.191,32.28,31.191,42.981
		c11.462,10.224,24.439,16.793,36.377,23.528c12.671,7.146-3.607,12.961-4.419,20.47c-1.597,14.775,28.001,17.275,34.053,1.261
		c2.59,6.301,2.884,15.42,14.799,15.42C284.108,512.692,288.876,506.732,289.47,500.775z"/>
	<path fill-rule="evenodd" clip-rule="evenodd" fill="#EDCA9E" d="M284.045,216.412c10.103,0.918,18.513-8.211,29.828-12.056
		c10.357-3.519,28.166-5.574,41.651-1.394c11.595,3.595,30.631,13.911,29.78,26.675c-0.254,3.822-3.252,4.953-0.095,8.277
		c21.46-16.846,66.361-13.45,90.54,3.987c9.568,6.904,17.278,18.783,26.353,28.503c2.232,2.393,8.673,7.6,8.805,9.356
		c0.555,7.56-22.666,11.927-28.484,12.229c-37.828,1.95-75.042-15.383-95.661-31.632c-7.446,5.49,7.526,8.558,8.666,13.888
		c-6.125,43.404-54.214,74.902-72.001,62.104c-12.905,14.159-20.122,32.789-28.847,54.139c-2.617,6.407-6.865,15.665-7.019,22.323
		c-0.361,15.849,27.622,34.342,8.954,53.573c-6.65,6.849-22.222,7.77-22.308,20.784c-0.042,6.076,7.988,8.024,7.887,12.881
		c-0.118,5.599-8.431,6.712-12.914,4.689c-10.843-4.897-6.833-15.58-6.261-29.697c0.531-13.054-0.915-33.521-2.895-47.288
		c-3.146-21.859-6.755-41.979-14.219-54.571c4.32-1.495,16.852-1.62,21.457-1.402c-10.473-18.65-51.631-1.931-43.909,13.029
		c3.534-2.902,8.937-9.286,14.482-9.931c7.84,9.447,11.46,26.82,14.718,45.823c3.583,20.909,6.346,40.219,3.578,61.824
		c-0.793,6.191-2.131,12.739-7.377,16.179c-5.248,3.439-16.006,4.842-16.858-1.571c-0.471-3.512,7.087-9.653,7.991-16.891
		c0.904-7.237-14.048-11.868-23.611-17.043c-17.901-9.7-42.994-32.107-49.14-52.902c-8.364-28.291,22.339-39.564,40.716-45.948
		c5.96-28.001,53.618-112.596,71.491-137.619c-10.6,0.901-8.698,11.539-25.337,10.36c-15.704-1.107-22.049-10.161-35.845-17.278
		c-5.68-2.936-16.428-5.293-24.092-6.341c-6.961-0.954-14.449-2.343-17.344-5.059c-2.898-2.715-3.495-7.261,0-5.973
		c3.491,1.29,9.799,2.086,14.839,1.447c9.274-1.178,18.667-4.72,27.246-7.848c13.874-5.05,28.102-9.367,44.65-6.927
		C276.303,191.012,295.671,205.539,284.045,216.412z"/>
	<path fill-rule="evenodd" clip-rule="evenodd" fill="#FFFCE7" d="M179.979,311.933c4.615-9.938,17.68-2.95,23.971-2.089
		c-12.93-11.663,1.55-22.887,1.55-22.887s-3.143,0.948-8.034-0.743c-7.001-2.42-4.013-10.102,0.796-15.726
		c3.159-3.694,7.435-5.967,9.026-7.14c-0.013-0.934-1.098-1.038-1.112-1.97c-4.748,2.192-24.466,4.578-12.26-7.901
		c4.133-4.222,12.79-6.61,12.79-6.61s-11.13-1.387-11.281-7.854c-0.21-9.172,10.972-13.196,19.839-14.68
		c13.036,9.006,30.12,25.037,49.047,16.29c-33.82,48.661-55.011,101.896-58.632,115.29c-4.317-2.024-5.426-9.594-3.313-13.011
		c-18.422,9.162-20.215-12.327-6.461-16.129C185.951,326.232,175.275,322.07,179.979,311.933z"/>
	<path fill-rule="evenodd" clip-rule="evenodd" d="M187.513,393.823c-0.674-7.247,9.504-12.904,18.049-6.366
		c5.175,3.961,15.535,20.525,12.201,29.453c-1.019,2.739-4.754,4.592-8.707,3.876C199.495,419.053,188.243,401.643,187.513,393.823z
		"/>
	<path fill-rule="evenodd" clip-rule="evenodd" fill="#CD8D57" d="M193.359,390.943c5.651,7.343,16.485,16.548,18.113,18.72
		c1.628,2.172,2.895,6.333-0.907,6.694C206.766,416.717,193.002,402.37,193.359,390.943z"/>
	<path fill-rule="evenodd" clip-rule="evenodd" fill="#FFFBE2" d="M294.8,207.336c23.262-13.585,42.806-15.214,60.737-10.89
		c17.282,4.169,36.401,15.393,34.423,32.429c22.859-12.963,62.939-12.32,89.181,8.674c2.7,2.161,5.308,4.522,7.832,7.045
		c0.076-0.065,0.133-0.134,0.214-0.191c15.069-10.941-0.525-65.926-36.866-67.712c7.148-31.576-31.574-44.086-40.509-26.215
		c-2.384-41.106-44.631-19.132-44.682-19.061c-1.192-23.235-57.55-23.202-54.213,10.721c-8.935-9.532-34.72,1.548-23.234,17.278
		c-14.894-4.171-43.238-4.208-46.779,24.478C265.395,177.824,287.497,186.067,294.8,207.336z"/>
	<path fill-rule="evenodd" clip-rule="evenodd" fill="#FFFBE2" d="M333.471,372.259c0.958-2.872,4.049-3.443,6.281-1.659
		c9.225,7.374,21.123,11.255,32.156,5.192c9.749-5.361,16.608-13.839,22.235-23.271c1.186-1.987,4.266-2.601,5.902-0.759
		c6.517,7.32,12.515,8.565,18.122-0.184c4.092-6.386,6.747-13.448,10.245-20.14c3.204-6.13,7.363-9.737,14.106-11.617
		c11.75-3.273,9.427-13.427,6.613-23.387c-18.361-3.696-33.449-9.635-47.661-16.084c-7.558,39.109-49.447,70.894-79.691,65.847
		c-5.501,8.026-14.439,30.069-16.82,37.218C315.54,390.01,328.922,385.914,333.471,372.259z"/>
	<path fill-rule="evenodd" clip-rule="evenodd" fill="#F6E3C5" d="M333.438,204.795c9.881-1.056,29.578,3.289,38,12.12
		c8.422,8.832-14.585,10.063-32.661,4.726C320.702,216.299,306.53,207.672,333.438,204.795z"/>
	<path fill-rule="evenodd" clip-rule="evenodd" fill="#F6E3C5" d="M406.766,235.194c12.264-3.11,31.836-6.364,53.197,4.112
		c21.363,10.473,33.07,27.519,34.921,31.633c1.846,4.106-23.828-1.233-49.09-12.532
		C420.527,247.111,393.002,238.687,406.766,235.194z"/>
	<path fill-rule="evenodd" clip-rule="evenodd" fill="#F6E3C5" d="M222.316,199.869c12.712-4.374,30.604-11.296,46.213-4.931
		c15.613,6.369,18.692,16.228,7.191,16.638C264.215,211.985,203.214,206.44,222.316,199.869z"/>
	<path fill-rule="evenodd" clip-rule="evenodd" fill="#F6E3C5" d="M234.64,313.044c5.541-9.776,17.868-24.853,22.799-29.784
		c4.931-4.928,10.064,18.486-6.777,42.931c-16.843,24.441-29.373,34.096-32.865,34.096
		C214.303,360.286,223.341,332.968,234.64,313.044z"/>
	<path fill-rule="evenodd" clip-rule="evenodd" fill="#F6E3C5" d="M295.438,441.212c2.327,3.638,6.16,13.763-1.029,20.338
		c-7.189,6.57-14.994,5.544-14.584-4.521C280.236,446.962,285.578,425.809,295.438,441.212z"/>
	<path fill-rule="evenodd" clip-rule="evenodd" fill="#F6E3C5" d="M346.994,290.037c13.141-11.12,40.256-20.13,40.462-8.01
		c0.207,12.117-17.048,35.74-37.381,42.107C329.739,330.5,314.95,317.15,346.994,290.037z"/>
	<path fill-rule="evenodd" clip-rule="evenodd" fill="#DCAB7A" d="M266.266,402.861c1.499,4.501,4.672,20.066,5.772,36.282
		c0.648,9.598-1.376,25.014,0.822,22.264c2.201-2.747,7.972-16.215,7.148-29.961C279.183,417.703,262.693,392.139,266.266,402.861z"
		/>
	<path fill-rule="evenodd" clip-rule="evenodd" fill="#DCAB7A" d="M405.345,269.829c6.398,3.552,27.762,14.294,41.231,17.317
		c13.469,3.024,31.332,3.572,40.129,2.198c8.797-1.373-16.489-7.697-44.802-14.569C413.591,267.904,395.451,264.331,405.345,269.829
		z"/>
	<path fill-rule="evenodd" clip-rule="evenodd" fill="#DCAB7A" d="M290.727,392.695c3.219-7.511,9.621-21.99,13.743-30.788
		c4.123-8.795,9.895-17.041,12.918-20.889c3.024-3.848-16.218,0.548-24.739,18.967C284.13,378.397,284.955,406.165,290.727,392.695z
		"/>
	<path fill-rule="evenodd" clip-rule="evenodd" fill="#DCAB7A" d="M269.836,229.148c-2.066,2.324-5.498,7.146-13.192,6.872
		c-7.696-0.274-15.67-3.849-21.991-7.971c-6.321-4.123-7.694-5.772-11.819-8.247c-4.123-2.475-7.97-3.846-11.818-4.948
		c-3.848-1.098,10.169-0.548,20.888,4.948c10.721,5.498,21.717,8.797,25.289,8.797C260.767,228.6,274.235,224.203,269.836,229.148z"
		/>
	<g>
		<path d="M336.423,264.089c-2.469,11.247-13.584,18.367-24.838,15.894c-11.247-2.463-18.357-13.578-15.887-24.829
			c2.462-11.234,13.575-18.35,24.829-15.892C331.768,241.729,338.881,252.845,336.423,264.089z"/>
		<path fill="#FFFFFF" d="M333.378,262.581c-2.034,9.237-11.166,15.085-20.419,13.056c-9.235-2.026-15.086-11.166-13.05-20.397
			c2.019-9.244,11.159-15.089,20.397-13.064C329.54,244.201,335.396,253.343,333.378,262.581z"/>
	</g>
	<g>
		<path d="M328.399,258.429c-1.202,5.455-6.601,8.924-12.066,7.713c-5.452-1.189-8.911-6.587-7.719-12.05
			c1.202-5.455,6.6-8.915,12.059-7.714C326.132,247.581,329.596,252.964,328.399,258.429z"/>
		<path fill="#FFFFFF" d="M326.046,254.192c-0.364,1.716-2.064,2.796-3.779,2.419c-1.729-0.372-2.808-2.072-2.43-3.782
			c0.374-1.722,2.076-2.811,3.792-2.432C325.339,250.772,326.435,252.475,326.046,254.192z"/>
	</g>
	<g>
		<path d="M283.912,268.716c-2.244,10.209-12.327,16.664-22.528,14.419c-10.212-2.231-16.667-12.318-14.432-22.521
			c2.245-10.205,12.327-16.669,22.532-14.43C279.69,248.422,286.143,258.512,283.912,268.716z"/>
		<path fill="#FFFFFF" d="M281.143,267.339c-1.841,8.391-10.13,13.701-18.516,11.856c-8.383-1.841-13.691-10.126-11.851-18.508
			c1.838-8.389,10.127-13.7,18.512-11.861C277.677,250.67,282.982,258.958,281.143,267.339z"/>
	</g>
	<g>
		<path d="M276.248,264.495c-1.079,4.934-5.954,8.057-10.884,6.973c-4.931-1.08-8.059-5.957-6.964-10.882
			c1.073-4.93,5.942-8.049,10.874-6.97C274.2,254.699,277.325,259.569,276.248,264.495z"/>
		<path fill="#FFFFFF" d="M274.134,260.673c-0.339,1.544-1.874,2.525-3.425,2.188c-1.544-0.341-2.538-1.873-2.193-3.423
			c0.344-1.548,1.878-2.531,3.42-2.188C273.496,257.593,274.471,259.118,274.134,260.673z"/>
	</g>
	<polygon points="357.819,235.165 322.032,206.702 318.398,219.353 	"/>
	<polygon points="296.097,217.757 294.173,232.54 255.935,233.796 	"/>
</g>
</svg>
