<?xml version="1.0" encoding="utf-8"?>
<!-- Generator: Adobe Illustrator 17.0.0, SVG Export Plug-In . SVG Version: 6.00 Build 0)  -->
<!DOCTYPE svg PUBLIC "-//W3C//DTD SVG 1.1//EN" "http://www.w3.org/Graphics/SVG/1.1/DTD/svg11.dtd">
<svg version="1.1" id="Layer_1" xmlns="http://www.w3.org/2000/svg" xmlns:xlink="http://www.w3.org/1999/xlink" x="0px" y="0px"
	 width="800px" height="600px" viewBox="0 0 800 600" enable-background="new 0 0 800 600" xml:space="preserve">
<g>
	<path d="M387.155,400.178c-0.894,17.845-13.318,58.9-19.831,81.935c12.334-0.564,25.733-23.951,25.733-23.951l-2.044,28.608
		c12.736-6.333,35.189-40.816,39.281-56.992c2.709,9.042,6.171,23.076,14.306,51.997c4.767-3.405,13.267-25.444,17.711-46.773
		c5.448,9.762,8.4,20.208,8.4,20.208s4.321-3.947,6.813-14.079c1.811,17.172,8.854,29.066,16.574,34.058c0,0,0-11.126,0.681-17.483
		c1.785,2.327,4.542,4.087,8.304,3.776c-1.558-6.544-5.352-21.713-4.608-36.341s8.132-60.553,8.132-73.21
		c0-52.43-11.925-88.363-42.65-115.481c10.849-1.241,15.645-14.399,9.209-26.426c4.123,2.782,8.475,2,11.592,0.651
		c5.194-2.257,8.505-9.484,7.643-17.069c-1.954-17.248-22.4-16.713-22.4-16.713c-2.191-22.459-30.275-14.773-30.275-14.773
		c4.674-16.34-28.753-28.433-56.486-4.075c-0.828-13.221-10.492-23.463-27.532-26.082c-20.878-3.201-44.067,5.506-57.29,21.482
		c-13.222,15.975-11.37,35.569-10.465,38.285c-11.754,2.713-22.912,10.676-31.952,17.907
		c-12.654,10.845-21.341,33.242-15.423,43.241c7.991,13.495,46.675,3.978,63.566-3.991c-8.4,21.067,1.694,49.481,1.694,49.481
		c-14.083,6.603-109.332,59.448-139.079,87.002c7.717,4.4,31.135,6.842,72.721,10.459c37.958,3.614,76.566,7.438,95.85,6.059
		c-4.41,6.058-25.618,37.46-18.732,40.767c6.881,3.298,26.417-5.765,41.773-14.802C371.033,418.819,379.869,410.489,387.155,400.178
		z"/>
	<path fill="#C0001F" d="M468.646,182.911c9.947,0,17.889,4.113,18.247,11.939c0.3,6.77-4.806,13.158-11.377,10.667
		c-6.581-2.488-13.691-5.334-17.96-1.958c-5.572,4.409-5.884,7.087-4.978,8.891c2.669-3.021,5.199-6.31,8.176-6.222
		c6.225,0.181,11.201,9.073,9.78,17.069c-1.42,8.001-5.16,7.643-11.733,7.643c-6.578,0-10.94-3.745-10.04-7.357
		c0-7.23-0.805-11.841-7.739-13.974c-6.854-2.106-9.248-7.466-8.891-10.667C432.131,198.94,461.287,198.052,468.646,182.911z"/>
	<path fill="#C0001F" d="M460.224,180.807c-2.669,10.842-36.622,15.643-45.694,7.644c14.021-7.011,19.026-13.337,21.866-18.667
		C446.986,163.429,462.887,169.957,460.224,180.807z"/>
	<path fill="#C0001F" d="M383.594,167.297c8.183-9.782,34.031-20.549,45.284-12.41c11.257,8.142-14.347,25.559-23.236,30.718
		c-8.888,5.155-21.06,11.084-31.467,6.576C379.864,184.183,382.346,174.941,383.594,167.297z"/>
	<path fill="#98101D" d="M457.652,220.938c-8.502-5.349-10.655-16.451-6.915-25.219c-9.386,2.944-18.605,3.222-18.605,3.222
		c-0.357,3.201,2.037,8.561,8.891,10.667c6.934,2.133,7.739,6.745,7.739,13.974c-0.9,3.613,3.462,7.357,10.04,7.357
		c6.572,0,10.312,0.358,11.733-7.643c0.257-1.43,0.297-2.888,0.172-4.318C466.956,222.088,461.802,223.544,457.652,220.938z"/>
	<path fill="#98101D" d="M426.925,180.819c-3.089,2.437-7.099,4.984-12.394,7.633c7.895,6.964,34.638,4.224,43.193-3.756
		C447.143,191.087,435.249,192.174,426.925,180.819z"/>
	<path fill="#98101D" d="M411.205,181.959c-6.432,2.392-13.571,3.436-20.017,0.487c-3.749-1.712-7.392-4.21-9.182-7.69
		c-1.518,5.778-3.899,11.898-7.832,17.426c10.407,4.508,22.579-1.422,31.467-6.576c1.617-0.937,3.783-2.286,6.185-3.9
		C411.615,181.787,411.416,181.88,411.205,181.959z"/>
	<path fill="#C0001F" d="M293.298,247.079c-17.46,5.524-42.254,8.826-46.385,0.565c-4.134-8.262,3.855-25.341,17.628-36.902
		c13.778-11.571,53.714-23.694,54.969-8.852c0.707,8.316-14.478,20.136-25.305,28.017c4.491,1.766,13.668-2.643,20.787-9.944
		c7.113-7.297,12.367-13.308,10.146-21.343c-3.585-12.95-24.75-9.724-28.368-8.816c-4.521-4.519-0.756-23.168,6.472-31.304
		c10.848-11.75,30.576-20.715,47.107-19.297c16.534,1.422,30.637,12.68,24.294,36.474c-6.336,23.793-28.338,31.823-37.961,33.44
		C335.875,218.448,310.765,241.56,293.298,247.079z"/>
	<path fill="#97111D" d="M375.524,158.643c-0.626,11.087-4.474,21.023-13.194,29.937c-9.291,9.499-23.004,19.236-36.903,16.018
		c-0.967,5.304-5.194,9.987-10.435,15.366c-1.205,1.238-2.479,2.353-3.769,3.41c-3.478,8.509-12.912,14.74-20.876,18.209
		c-6.574,2.868-13.874,4.043-21.026,4.231c-7.638,0.207-17.067-0.841-23.394-4.981c-0.232,2.609,0.049,4.941,0.986,6.812
		c4.132,8.261,28.925,4.958,46.385-0.565c17.467-5.519,42.578-28.631,43.384-37.961c9.623-1.617,31.625-9.647,37.961-33.44
		C376.419,169.027,376.549,163.391,375.524,158.643z"/>
	<path fill="#BC6C1D" d="M483.16,396.1l0.855-29.71c0,0,2.525,2.511,1.804,23.5c4.525-4.521,10.856-17.079,11.752-31.639
		c0.899-14.555,0.525-22.95-1.805-47.896c-2.336-24.948-21.142-61.81-36.253-73.013c0,0-11.73,0.712-15.463-7.469
		c-2.694-5.882,2.318-14.156-3.38-15.465c-8.537-1.958-12.804-9.14-12.804-15.468c-7.106,0.353-16.004-1.25-20.624-5.513
		c-8.092,5.747-27.023,10.848-35.556,4.264c-8.135,11.748-19.637,16.851-29.576,16.851c-1.809,6.33-7.231,14.041-17.205,20.896
		c-7.974,5.482-14.618,10.108-17.143,11.641c-4.496,9.687-4.307,21.887-2.613,29.345c0.473,2.093,3.68,13.967,6.298,18.452
		c6.729-2.244,43.738-0.374,54.829-0.125c11.092,0.251,50.579-3.859,56.087,6.881c5.506,10.745-1.374,46.553-17.073,65.831
		c-1.067,5.514-7.387,16.691-12.623,25.783c1.93,9.085-7.176,46.36-16.214,78.897c9.037-10.851,16.861-23.858,20.475-30.182
		c0.906,1.806-0.161,28.554-1.063,33.073c12.978-12.271,28.446-42.67,35.379-62.404c4.801,9.775,14.561,44.087,15.464,54.932
		c1.808-3.616,10.192-31.581,14.713-47.846c3.6,4.471,8.925,19.001,9.825,21.71c1.811-4.516,6.224-18.132,6.224-18.132
		s5.688,30.223,13.777,39.806c0,0,1.08-27.079,1.693-36.769c1.066-16.888,3.897-37.262,4.802-52.631
		C495.027,382.739,489.488,390.68,483.16,396.1z"/>
	<path fill="#EBBD04" d="M248.841,389.221c26.215-3.626,69.337-23.536,82.491-30.822c7.233,0.905,25.567,3.832,32.36,6.224
		c9.597,3.376,11.787-13.808,19.019-39.117c0.904-0.905,5.155-4.446,6.577-5.513c0,0,0.713,14.404-11.027,40.074
		c5.696-1.136,14.406-22.431,16.275-35.252c1.864-12.822-3.636-14.656-18.083-15.367c-6.008-0.297-6.008,3.614-6.008,3.614
		c8.001-0.534,14.222,2.492,14.222,2.492c-14.756,13.154-47.615,32.324-70.385,43.086c-22.773,10.763-55.283,22.397-86.922,27.823
		c-13.769-0.549-38.911-3.797-43.426-4.706c31.8-24.905,94.964-62.134,111.134-71.747c16.875-9.526,28.958-11.503,34.565-11.327
		c23.113,0.728,68.117,1.858,74.415,3.003c7.822,1.42,13.861,7.821,9.242,23.107c-4.62,15.291-8.179,29.52-19.377,41.433
		c-11.202,11.908-34.348,24.647-53.905,27.674C320.452,396.928,256.978,390.116,248.841,389.221z"/>
	<path fill="#F5D96C" d="M394.535,324.814c-0.653,4.459-2.142,9.95-4.037,15.257c6.528-4.958,13.942-12.235,13.196-20.003
		c-0.918-9.504-8.116-12.208-15.997-12.453c-0.348,0.017-0.694,0.017-1.049,0.046c-2.753,0.224-7.971,0.161-11.109,1.816
		c0.307-0.006,0.567-0.046,0.913-0.03C390.899,310.159,396.399,311.992,394.535,324.814z"/>
	<path fill="#F5D96C" d="M215.445,375.122c7.752-6.554,15.658-12.92,23.773-19.017c17.911-13.452,36.572-25.899,55.875-37.269
		c8.45-4.978,33.66-19.687,34.539-20.153c-2.984-0.439-9.093-0.439-12.955,0.309c-3.861,0.746-17.816,7.475-38.004,19.562
		c-20.188,12.086-70.371,44.12-94.739,63.203c2.588,0.518,11.953,1.808,22.063,2.918
		C209.24,381.346,212.312,377.772,215.445,375.122z"/>
	<path fill="#FFFFFF" d="M352.953,344.697c2.557-2.121,5.696-4.049,9.313-5.857c0,1.808,2.64,10.222,4.442,15.648
		c0.179-3.026-1.419-13.158-2.131-16.889c7.229-4.518,9.957-6.931,15.493-10.977c-1.811,3.616-3.11,8.788-5.36,16.843
		c-2.251,8.055-5.511,20.09-12.62,17.6c-7.116-2.488-19.074-5.519-26.313-6.425c6.33-3.614,10.852-6.324,15.366-9.037
		c0.904,1.809,4.337,8.131,6.146,10.841L352.953,344.697z"/>
	<path fill="#C0001F" d="M366.175,415.664c-14.32,11.842-38.957,21.793-42.147,19.419c-3.185-2.373,8.367-18.904,20.457-34.016
		c27.915-5.69,52.76-27.446,52.76-27.446S380.498,403.816,366.175,415.664z"/>
	<path fill="#92121D" d="M373.439,389.885c-0.212,2.806-0.756,5.63-1.425,8.377c-1.251,5.135-2.277,10.676-4.057,15.841
		c13.891-12.727,29.288-40.482,29.288-40.482S387.537,382.124,373.439,389.885z"/>
	<path fill="#98531C" d="M357.368,224.434c8.792-3.168,15.054-4.891,19.767-13.756c0.344-0.644,1.201-0.817,1.818-0.472
		c7.453,4.185,17.318,7.219,25.314,2.699c4.132-2.332,7.647-2.871,12.409-2.187c6.251,0.892,15.285,0.581,17.924,7.799
		c3.861,10.548,3.006,22.178,13.54,29.306c7.465,5.053,16.004,5.895,23.891,3.314c-4.185-5.943-8.479-10.799-12.518-13.795
		c0,0-11.73,0.712-15.463-7.469c-2.694-5.882,2.318-14.156-3.38-15.465c-8.537-1.958-12.804-9.14-12.804-15.468
		c-7.106,0.353-16.004-1.25-20.624-5.513c-8.092,5.747-27.023,10.848-35.556,4.264c-8.135,11.748-19.637,16.851-29.576,16.851
		c-1.809,6.33-6.579,14.211-16.146,20.43C333.626,236.435,349.388,227.307,357.368,224.434z"/>
	<path fill="#98531C" d="M394.089,390.759c16.257-14.341,29.173-33.084,35.327-53.189c3.636-11.895,8.281-31.363-3.207-40.651
		c-8.551-6.911-20.235-5.634-31.15-3.13c12.509-0.148,23.919,1.238,27.302,7.843c5.506,10.745-1.374,46.553-17.073,65.831
		C404.318,372.485,398.99,382.192,394.089,390.759z"/>
	<path d="M478.005,275.384c-3.023,16.181-7.097,25.023-8.003,27.736c-6.327-9.944-11.019-15.288-13.103-16.268
		c2.71,3.611,8.409,13.66,12.924,20.889c1.073-1.598,2.132-3.379,3.379-6.576c1.808,5.422,5.286,12.99,8.003,22.935
		c6.397-8.887,7.333-20.984,7.333-20.984c-1.287,4.805-3.778,10.849-6.443,15.648c-1.957-4.977-4.089-11.558-7.648-20.44
		C478.356,285.876,478.005,275.384,478.005,275.384z"/>
	<path d="M451.474,332.045c0,0,5.371,17.462,5.371,18.367c7.647-14.225,9.09-28.315,9.09-28.315
		c-2.713,7.241-4.941,14.49-8.561,22.622L451.474,332.045z"/>
	<path d="M472.269,336.56L472.269,336.56c1.803,7.231,2.176,18.293,2.176,29.14c3.911-4.087,13.156-19.556,14.092-27.328l0,0l0,0
		c-1.812,3.616-4.905,10.243-12.135,21.997C477.307,352.23,474.445,336.9,472.269,336.56z"/>
	<path d="M446.051,304.924l11.683,16.862c2.709-8.129,4.628-17.955,3.736-20.799c-1.072,4.089-2.287,9.673-4.095,16.001
		C452.859,310.66,448.761,304.924,446.051,304.924z"/>
	<path d="M436.11,383.564c0,0,1.538,15.209,3.491,17.697c2.845-3.201,5.549-11.37,7.353-18.597
		c-1.129,2.06-4.686,9.882-6.465,12.732C439.248,392.014,437.017,386.277,436.11,383.564z"/>
	<path d="M470.896,386.504c1.808-3.617,5.317-9.716,6.217-13.331L460.58,395.75l-5.489-21.225
		c-0.732,3.801,2.643,21.404,4.779,25.848c2.71-3.614,5.865-7.112,8.776-11.386c0.907,14.459,4.736,28.272,7.047,30.584
		c5.511-3.201,7.417-14.313,7.417-14.313c-2.262,3.648-4.403,9.096-6.888,10.046C472.84,405.291,471.249,394.504,470.896,386.504z"
		/>
	<path fill="#D37A5E" d="M296.675,197.829c-0.99,1.72-33.625,38.962-44.944,32.011c-8.472,22.485,64.507-16.816,64.658-29.218
		C316.448,196.049,307.46,195.543,296.675,197.829z"/>
	<path fill="#D37A5E" d="M258.135,227.115c4.62-1.871,9.096-4.214,13.097-7.212c7.62-5.704,14.653-12.667,19.901-20.697
		c-2.019,0.598-4.116,1.268-6.321,2.04c-17.307,6.054-26.155,16.044-31.509,25.216C253.891,227.751,255.294,228.266,258.135,227.115
		z"/>
	<path fill="#D37A5E" d="M342.108,161.968c4.188-3.958,10.711-11.686,13.116-18.832c-6.138-1.511-13.965-1.387-23.575,1.471
		c-25.559,7.594-32.033,23.013-32.281,30.219C307.797,184.278,336.714,167.076,342.108,161.968z"/>
	<path fill="#D37A5E" d="M317.354,182.037c5.054-0.65,10.097-2.148,14.611-3.747c9.337-3.309,18.655-8.772,25.179-16.363
		c3.97-4.617,6.175-9.931,6.542-15.055c-1.75-1.201-3.765-2.242-6.069-3.026c-2.436,7.6-8.691,15.57-13.634,19.997
		c-6.007,5.389-30.584,20.129-42.73,15.587C304.014,181.205,309.995,182.027,317.354,182.037z"/>
	<path fill="#D37A5E" d="M365.6,157.35c0.783-2.737,1.102-5.397,1.057-7.995c-0.178-0.171-0.323-0.354-0.507-0.527
		c-0.607,4.174-2.257,8.426-5.056,12.423c-6.098,8.706-16.945,15.531-26.804,19.021c-0.872,0.31-1.768,0.614-2.667,0.911
		c4.757-0.528,9.614-1.308,14.239-2.307C354.74,174.862,363.257,165.556,365.6,157.35z"/>
	<path fill="#D37A5E" d="M369.192,152.354c-0.218,2.45-0.758,4.942-1.67,7.469c-2.162,5.969-7.089,12.23-13.033,16.823
		C368.327,172.891,372.052,156.522,369.192,152.354z"/>
	<path fill="#D37A5E" d="M414.417,159.305c-6.726,1.795-13.588,4.858-19.611,8.381c-0.669,0.393-1.356,0.808-2.05,1.215
		c8.082,0.288,23.815-2.636,28.279-3.301c3.783-0.57,7.33-3.291,7.482-6.08C423.912,158.29,419.156,158.04,414.417,159.305z"/>
	<path fill="#D37A5E" d="M388.644,168.132c2.56-1.01,5.086-3.047,7.192-4.009c3.285-1.502,6.509-3.165,9.846-4.564
		c6.115-2.577,12.303-4.29,18.987-3.204c0.977,0.158,1.935,0.351,2.889,0.574c-1.011-1.151-2.881-2.185-5.862-2.933
		c-11.932-2.984-30.637,8.499-33.152,11.604C387.577,166.799,387.729,167.607,388.644,168.132z"/>
	<path fill="#D37A5E" d="M440.262,169.908c3.614-2.55,17.235-0.993,16.901,7.954C456.834,186.811,434.626,173.889,440.262,169.908z"
		/>
	<path fill="#D37A5E" d="M480.37,188.473c3.499,1.207,6.628,7.623,2.318,11.27C478.383,203.387,470.756,185.156,480.37,188.473z"/>
	<path fill="#DE9C18" d="M354.076,375.099c-6.901-3.573-13.58-8.353-8.621-7.958c8.287,0.663,20.885,5.967,23.535,4.638
		c3.717-1.855,5.636-4.638,6.297-7.624c0.667-2.987,3.978,10.944-1.323,14.254C370.568,380.531,363.689,380.065,354.076,375.099z"/>
	<path fill="#DE9C18" d="M252.643,389.347c0,0,25.19-5.637,50.717-16.905c11.547-5.096,27.84-12.927,27.84-12.927
		s-5.858,11.177-19.885,17.239C284.464,388.356,252.643,389.347,252.643,389.347z"/>
	<path fill="#DE9C18" d="M311.978,326.364c6.958-5.631,23.28-9.16,25.189,2.324c1.327,7.954-9.945,12.597-19.557,12.924
		C309.6,341.889,301.184,335.104,311.978,326.364z"/>
	<path d="M314.704,337.048c-0.542-0.539-2.983-1.271-1.442-4.113c1.954-3.597,14.7-6.167,13.479-3.597
		c-0.895,1.87-4.518,2.707-8.133,4.514c5.552,3.914,14.202-3.885,12.653-7.23c-1.548-3.347-6.072-3.044-11.316-1.908
		c-5.241,1.125-11.1,5.55-11.276,9.138C308.562,335.984,309.949,338.255,314.704,337.048z"/>
	<path fill="#D37A5E" d="M327.554,428.466c2.58-5.671,7.957-13.925,12.27-17.571c4.305-3.647,3.641,4.311,0.66,10.939
		C337.498,428.466,322.586,439.401,327.554,428.466z"/>
	<path fill="#D98D3B" d="M453.031,278.987c0,0,4.376,4.644,8.746,10.11c4.374,5.466,7.382,11.479,7.382,11.479
		s1.37-15.03-0.277-17.763C467.243,280.08,453.031,278.987,453.031,278.987z"/>
	<path fill="#D98D3B" d="M444.557,299.756c0,0,4.103,3.826,7.106,7.379c3.008,3.552,4.922,7.651,4.922,7.651
		s1.366-13.119-0.819-14.76C453.576,298.39,444.557,299.756,444.557,299.756z"/>
	<path fill="#D98D3B" d="M450.029,325.991c0,0,3.274,5.466,4.372,8.472c1.092,3.009,2.185,6.835,2.185,6.835
		s2.733-9.022,2.188-11.207C458.224,327.907,450.029,325.991,450.029,325.991z"/>
	<path fill="#D98D3B" d="M471.89,328.453c0,0,3.007,5.739,4.098,12.845c1.096,7.104,1.37,14.208,1.37,14.208
		s6.011-14.757,5.462-18.582C482.273,333.094,471.89,328.453,471.89,328.453z"/>
	<path fill="#D98D3B" d="M456.041,366.161c0,3.006,1.363,9.29,2.184,14.759c0.822,5.463,3.006,10.934,3.006,10.934
		s5.195-13.666,4.376-17.492C464.782,370.533,456.041,366.161,456.041,366.161z"/>
	<path fill="#D98D3B" d="M435.542,377.366c1.329,3.109,4.646,14.488,4.646,14.488s3.554-12.3,2.736-14.76
		C442.103,374.633,434.724,375.451,435.542,377.366z"/>
	<path fill="#D98D3B" d="M431.166,407.155c1.716,3.917,7.927,21.859,9.568,28.691c1.64,6.834,4.649,19.954,5.465,23.235
		c0.821,3.28,4.92-31.703,3.558-36.348C448.388,418.085,429.258,402.783,431.166,407.155z"/>
	<path fill="#D98D3B" d="M461.777,416.449c1.495,2.382,3.554,6.284,5.193,10.382c1.638,4.099,3.281,8.748,3.549,10.387
		c0.274,1.638,1.92-13.392,0.822-16.123C470.251,418.361,460.409,414.261,461.777,416.449z"/>
	<g>
		<path d="M391.521,259.307c-0.656,13.056-11.765,23.116-24.832,22.454c-13.057-0.647-23.103-11.76-22.443-24.823
			c0.646-13.036,11.759-23.093,24.822-22.45C382.112,235.144,392.165,246.254,391.521,259.307z"/>
		<path fill="#FFFFFF" d="M387.826,258.192c-0.541,10.723-9.673,18.985-20.412,18.449c-10.726-0.538-18.988-9.679-18.44-20.393
			c0.528-10.733,9.664-18.991,20.387-18.456C380.083,238.33,388.353,247.468,387.826,258.192z"/>
	</g>
	<g>
		<path d="M380.666,256.277c-0.321,6.333-5.719,11.227-12.065,10.898c-6.328-0.309-11.215-5.701-10.905-12.044
			c0.327-6.333,5.72-11.221,12.057-10.9C376.092,244.554,380.983,249.934,380.666,256.277z"/>
		<path fill="#FFFFFF" d="M377.237,251.972c-0.086,1.99-1.789,3.518-3.779,3.42c-2.003-0.093-3.531-1.795-3.433-3.779
			c0.098-2,1.801-3.536,3.789-3.433C375.802,248.276,377.349,249.977,377.237,251.972z"/>
	</g>
	<g>
		<path d="M333.524,272.249c-0.511,10.138-9.135,17.938-19.262,17.423c-10.138-0.496-17.943-9.125-17.435-19.254
			c0.511-10.136,9.13-17.944,19.264-17.436C326.226,253.488,334.026,262.115,333.524,272.249z"/>
		<path fill="#FFFFFF" d="M330.653,271.373c-0.419,8.334-7.506,14.749-15.833,14.326c-8.324-0.416-14.742-7.501-14.318-15.826
			c0.412-8.33,7.499-14.745,15.826-14.328C324.659,255.963,331.069,263.05,330.653,271.373z"/>
	</g>
	<g>
		<path d="M326.125,270.28c-0.245,4.901-4.413,8.673-9.308,8.425c-4.894-0.242-8.673-4.413-8.418-9.304
			c0.238-4.897,4.4-8.666,9.297-8.422C322.59,261.227,326.363,265.39,326.125,270.28z"/>
		<path fill="#FFFFFF" d="M323.487,266.957c-0.078,1.536-1.392,2.719-2.928,2.646c-1.535-0.079-2.734-1.386-2.653-2.927
			c0.083-1.535,1.393-2.723,2.922-2.644C322.378,264.11,323.559,265.415,323.487,266.957z"/>
	</g>
	<polygon points="324.432,243.315 281.301,263.449 291.403,272.706 	"/>
	<polygon points="389.275,215.253 382.442,229.188 344.32,217.665 	"/>
</g>
</svg>
