<?xml version="1.0" encoding="utf-8"?>
<!-- Generator: Adobe Illustrator 17.0.0, SVG Export Plug-In . SVG Version: 6.00 Build 0)  -->
<!DOCTYPE svg PUBLIC "-//W3C//DTD SVG 1.1//EN" "http://www.w3.org/Graphics/SVG/1.1/DTD/svg11.dtd">
<svg version="1.1" id="Layer_1" xmlns="http://www.w3.org/2000/svg" xmlns:xlink="http://www.w3.org/1999/xlink" x="0px" y="0px"
	 width="800px" height="600px" viewBox="0 0 800 600" enable-background="new 0 0 800 600" xml:space="preserve">
<g>
	<path fill="#191919" d="M588.465,269.173c-19.662-38.014-77.993-20.317-77.993-20.317s15.074-53.743-31.46-68.818
		c-46.534-15.074-67.507,32.771-67.507,32.771s-9.831-46.534-52.433-44.568c-42.602,1.967-57.021,41.29-57.021,41.29
		c-55.709-12.452-58.331,38.67-58.331,38.67s-7.865-1.312-19.007,3.933c-11.142,5.243-41.946,28.182-11.142,76.682
		c30.804,48.501,100.933,22.94,100.933,22.94s4.233,45.814,47.49,56.301c43.257,10.486,78.349-32.707,78.349-32.707
		s9.176,25.562,40.635,17.041c31.46-8.521,29.494-33.426,29.494-33.426s13.763,1.967,38.013-3.277
		C572.736,350.443,608.128,307.188,588.465,269.173z M522.925,305.221c-10.487-0.656-12.453-1.966-12.453-1.966
		s-4.588,11.797-11.797,14.418c-7.21,2.621-12.453-2.621-12.453-2.621s1.31,24.25-18.352,27.527
		c-19.662,3.276-29.493-13.765-29.493-13.765s9.831-3.276,15.074-13.107c5.244-9.831,5.899-13.108,5.899-13.108
		s-20.973,21.628-37.358,20.974c-16.385-0.655-28.183-9.176-28.183-9.176s8.521,15.074,15.075,17.696
		c6.554,2.621,11.797,3.276,11.797,3.276s-15.074,36.703-45.878,38.014c-30.804,1.311-38.014-19.007-44.568-36.048
		c-6.554-17.041-6.554-22.283-6.554-22.283s-11.142,24.905-34.081,21.628c-22.939-3.277-36.703-25.561-36.703-25.561
		s3.277,16.386,9.831,24.25c6.554,7.865,13.763,10.486,13.763,10.486s-38.013,1.967-55.71-24.905
		c-17.696-26.871-9.175-55.054,13.108-62.264c22.284-7.21,29.493-2.622,29.493-2.622l-10.486-7.864c0,0,3.932-22.284,24.25-27.527
		c20.317-5.243,30.148,2.622,30.148,2.622s7.209-43.258,52.433-48.5c45.223-5.244,47.845,60.297,47.845,60.297
		s17.696-51.121,57.676-47.845c39.979,3.277,36.047,66.853,36.047,66.853s33.426-9.832,47.845,16.385
		C563.56,296.7,533.411,305.876,522.925,305.221z"/>
</g>
</svg>
