<?xml version="1.0" encoding="utf-8"?>
<!-- Generator: Adobe Illustrator 17.0.0, SVG Export Plug-In . SVG Version: 6.00 Build 0)  -->
<!DOCTYPE svg PUBLIC "-//W3C//DTD SVG 1.1//EN" "http://www.w3.org/Graphics/SVG/1.1/DTD/svg11.dtd">
<svg version="1.1" id="Layer_1" xmlns="http://www.w3.org/2000/svg" xmlns:xlink="http://www.w3.org/1999/xlink" x="0px" y="0px"
	 width="800px" height="600px" viewBox="0 0 800 600" enable-background="new 0 0 800 600" xml:space="preserve">
<g>
	<g>
		<ellipse fill="#E4E4E5" cx="392.755" cy="567.149" rx="182.393" ry="29.063"/>
		<g>
			<path d="M434.869,192.382c-15.824-0.658-80.581,0.974-87.091,0.631c-6.51-0.344-14.728-0.1-18.045,0.717
				c-5.945,2.054-8.994,7.596-15.143,21.192c-3.417,6.59-9.578,15.853-18.868,28.112c-0.834,1.38-8.1,10.913-21.054,28.301
				c-6.492,8.873-14.246,15.478-23.293,20.172l-8.571,3.286c-1.02-0.803-2.787-1.306-3.863-1.392
				c-1.435-0.115-2.873-0.23-5.083,0.316c0,0-0.236,4.059,3.228,9.29c-2.454-0.919-6.015-1.566-11.012-2.328
				c-10.383-1.192-16.728-3.147-19.069-5.5c-3.977-8.991-7.91-14.003-11.858-14.319c-3.95-0.316-9.754,11.068-7.286,20.273
				c2.469,9.205,8.287,12.323,15.466,12.898c5.385,0.431,8.5,2.125,8.987,5.056c-1.134,0.63-2.656,1.593-4.595,3.245
				c-1.938,1.651-18.003,11.466-25.547,16.739c-7.543,5.273-19.992,14.797-15.48,21.881c4.513,7.084,13.367-0.012,21.064-5.898
				c-0.415,0.689-12.11,14.712-11.692,19.02c0.419,4.308,4.569,5.861,9.319,5.631c4.751-0.23,11.791-6.919,20.868-21.003
				c0.99,1.164,2.312,2.715,3.633,4.263c-6.91,8.684-9.835,18.518-10.152,22.468c-0.23,2.872,2.037,6.714,5.984,7.03
				c4.309,0.345,9.127-2.513,14.805-13.468c-0.029,0.357,0.043,3.976,0.33,9.42c1.033,5.139,1.625,7.665,6.905,8.497
				c5.28,0.831,6.919-10.525,7.412-20.356c7.352-1.581,13.744-13.714,19.863-35.983c3.104,3.378,7.119,7.894,11.954,9.01
				c13.585-16.252,25.741-33.087,32.29-42.679c5.859-10.007,10.139-18.335,13.915-24.896c-1.593,6.375-19.41,103.447-27.383,120.804
				c3.334,1.758,7.064,4.247,17.568,6.868c-1.82,11.967-7.512,41.451-10.966,59.611c-3.454,18.16-7.966,36.524-16.312,64.036
				c1.667,0.88,3.808,2.046,3.808,2.046c-4.208,2.916-13.981,10.921-21.103,18.659c-11.058,11.758-15.851,18.178-16.08,21.051
				c4.734,2.86,10.824,5.206,23.76,5.934c12.935,0.725,40.783-3,59.093-14.687c11.127,0.893,22.353-0.83,28.657-2.85
				c5.587-2.081,8.273-4.036,8.445-6.191c-0.259-5.799-0.933-10.914-1.062-13.812c3.317-0.817,4.868-2.14,4.983-3.578
				c-2.212-11.908-2.493-59.084-2.062-64.469c0.606-16.573,1.421-43.074,2.407-53.708c3.59,0.288,17.699,1.501,26.043,1.445
				c0.043-5.053-0.021-11.061,0.08-16.852c2.069,1.249,3.697,1.384,4.777,1.471c3.27,39.725-2.562,124.912-2.562,124.912
				c1.608,1.618,4.015,2.557,6.354,2.781c-0.921,2.46-4.147,19.237-1.859,27.86c16.512,1.323,29.877-0.626,31.744-5.896
				c29.237,13.013,101.553,11.855,111.232-0.524c-6.914-9.735-45.532-26.481-57.053-31.372c2.298-1.623,4.242-3.387,5.919-5.733
				c-5.496-26.089-17.195-82.784-17.358-110.741c4.509-2.168,8.897-3.608,10.762-5.196c-6.104-26.054-11.01-51.714-13.164-82.065
				c-2.155-30.353-4.37-58.277-6.28-74.459c2.155,0.172,93.698,21.702,106.262,22.708c1.523-1.863,2.107-9.143,2.303-11.952
				c6.288,2.672,13.741,4.354,22.714,5.073c8.615,0.69,15.136,0.489,19.945-0.933c0,0,25.339,12.528,29.235,4.872
				c2.689-5.283-12.362-12.551-14.43-13.8c4.882,2.198,25.343,9.384,27.914,3.319c2.571-6.064-13.554-11.201-18.437-13.398
				c8.974,0.719,21.391,2.169,22.33-3.63c0.938-5.799-10.675-10.186-21.056-11.377c1.852-0.575,14.576-0.172,14.839-5.74
				c0.263-5.568-3.043-7.108-10.222-7.683c-6.461-0.517-36.473,4.305-39.07,5.179c-2.011-1.967-2.615-3.46-2.5-4.896
				c0.029-0.359,1.94-1.651,5.071-4.653c3.461-2.613,5.184-6.087,5.471-9.677c1.307-11.817-5.396-19.501-13.052-19.198
				c-4.667-0.374-7.552,1.29-7.811,4.52c-0.259,3.231,1.249,6.964,5.241,11.258c-0.258,3.23-5.716,8.213-16.643,13.841
				c-3.403,1.896-6.06,3.489-8.358,5.112c-2.405-7.365-47.208-8.466-73.014-13.074C476.504,198.616,450.693,193.039,434.869,192.382
				z"/>
			<path fill="#8D9082" d="M425.168,197.252c2.008-0.297,5.683-0.487,7.945-0.152c-6.767,17.777-9.406,36.535-10.261,42.404
				c-5.413-0.072-8.05,0.785-9.301,2.853c0.331,0.388,4.956,1.197,11.963,3.926c0,0-23.969,32.428-34.239,53.177
				c-0.63-10.166-0.534-18.836-1.394-26.131C395.639,260.062,411.735,217.297,425.168,197.252z"/>
			<path fill="#FDFBFC" d="M402.729,197.054c5.056,0.043,10.469,0.116,16.269-0.144c-2.054,3.089-4.609,7.942-7.611,13.842
				C408.889,205.856,403.059,197.441,402.729,197.054z"/>
			<path fill="#0089CB" d="M398.034,197.038c1.349,1.193,2.341,2.355,3.331,3.52c-0.966,3.452-5.665,11.52-8.686,14.093
				c-2.988-3.076-5.96-7.12-7.208-9.81c3.576-4.047,6.029-6.155,7.608-7.835C394.545,196.761,396.599,196.923,398.034,197.038z"/>
			<path fill="#FDFBFC" d="M396.398,217.426c2.354-2.342,4.394-4.897,7.511-12.234c2.612,3.462,4.143,5.839,5.651,9.572
				c-2.586,5.212-3.796,8.553-6.942,16.251C401.262,225.584,398.408,219.394,396.398,217.426z"/>
			<path fill="#9CA090" d="M511.893,210.152c17.407,2.228,37.253,2.067,51.31,7.62c-0.28,18.755,2.897,41.5,4.405,45.234
				c-5.63-1.896-19.097-5.143-40.766-9.768c-23.82-4.798-64.18-14.514-79.256-15.722c-0.361,1.614,5.127,6.518,11.583,8.134
				c1.223,13.043,4.313,44.301,6.497,76.75c2.184,32.449,10.515,74.069,12.152,78.42c-30.699,11.44-60.164,4.364-85.061-2.608
				c0.333-35.741-0.157-63.778-1.217-86.623c15.554-29.737,34.888-59.584,42.958-68.86c-1.747-1.056-3.128-1.833-7.408-2.538
				c1.898-14.66,9.67-37.315,12.055-42.08C453.638,197.583,483.402,206.506,511.893,210.152z"/>
			<path fill="#8D9082" d="M359.439,196.414c2.514,0.202,6.619,0.282,12.032,0.354c5.697,10.837,7.972,26.559,10.06,39.413
				c2.088,12.853,2.368,20.06,3.286,35.668c0,0,0,0-0.029,0.359c-0.259,3.23,0.302,14.537,1.032,36.996
				c-4.333-9.763-20.549-39.42-35.608-56.385c3.432-2.253,20.98-13.854,21.095-15.289c0.086-1.078-8.045,1.335-12.67,4.939
				C362.985,223.596,360.745,202.661,359.439,196.414z"/>
			<path fill="#9CA090" d="M321.881,214.385c2.225-6.69,3.913-13.483,7.761-15.959c3.849-2.477,12.333-1.572,26.55-2.209
				c1.048,9.477,0.875,20.663-0.16,33.585c-0.288,3.59-1.438,8.917-3.779,15.595c-4.17,3.232-9.273,6.225-10.247,8.028
				c11.12,10.659,31.414,41.516,44.465,70.362c0.173,6.877,0.993,52.893,0.73,92.395c0,0-69.173-6.568-94.001-15.756
				c0,0,12.156-40.225,16.569-67.421c4.412-27.195,13.408-71.873,14.888-76.814c11.936-27.223,15.699-36.272,16.63-39.463
				c0.931-3.191,1.078-5.723,0.059-6.527c-10.34,11.817-23.999,51.547-24.646,55.107c-3.604,4.407-17.575,33.608-21.111,38.05
				c-3.536,4.441-16.529,21.436-16.529,21.436c-6.018,7.466-10.068,12.922-12.207,17.085c-2.584-3.819-6.461-9.55-12.319-17.604
				c-9.074-13.012-15.204-22.173-17.615-28.146l0,0c2.871,0.23,6.231,3.391,10.08,9.479c1.622,2.296,3.574,4.982,5.828,8.414
				c0.029-0.359,0.057-0.717,0.057-0.717c-2.382-6.333-4.551-10.843-6.475-13.887l0.359,0.029c7.18,0.575,16.7-5.526,27.788-17.644
				c2.799-3.389,13.671-17.331,33.029-42.514C312.078,232.785,319.655,221.075,321.881,214.385z"/>
			<path fill="#FDFBFC" d="M390.033,197.1c-1.522,0.962-9.105,8.836-9.967,10.573c-1.478-4.091-2.422-8.656-3.685-10.923
				C379.971,197.038,385.366,196.726,390.033,197.1z"/>
			<path fill="#FDFBFC" d="M384.367,230.164c-0.888-6.937-2.421-15.28-3.482-20.061c1.019-1.329,1.841-2.219,2.842-3.15
				c0.604,1.493,4.246,7.433,7.601,10.639C388.5,221.341,384.784,229.473,384.367,230.164z"/>
			<path fill="#0089CB" d="M388.421,267.44c0.058-0.719,0.087-1.076,0.144-1.795c-0.961-10.554-2.478-20.92-3.252-29.291
				c2.403-8.653,5.873-13.664,7.842-16.374c0,0,4.573,4.758,7.131,16.618c-1.127,3.298-8.574,21.35-11.95,31.917
				C388.364,268.159,388.392,267.799,388.421,267.44z"/>
			<path fill="#006FA8" d="M394.602,207.569c-3.118,1.019-5.424,0.392-8.066-0.778c1.501,2.475,3.811,5.459,6.143,7.86
				c2.343-1.996,5.687-7.288,7.525-11.178C398.649,205.217,396.857,206.831,394.602,207.569z"/>
			<path fill="#006FA8" d="M388.335,268.516c3.377-10.567,10.824-28.62,11.95-31.917c-0.405-1.878-0.864-3.559-1.343-5.09
				c-1.195,6.966-4.292,14.085-7.218,19.682c-1.2,2.295-2.524,4.467-3.973,6.513c0.293,2.616,0.572,5.272,0.815,7.94
				L388.335,268.516z"/>
			<path fill="#EBC29D" d="M604.04,195.855c-1.679-1.581-6.064-6.719-5.394-9.121c0.67-2.401,5.749-2.911,9.789,0.008
				s7.927,17.275-6.775,27.393c-1.226,7.688,5.868,9.478,6.301,14.168c0.433,4.69-3.015,10.597-8.431,19.557
				c1.799,0.901,6.404,2.492,9.675-5.947c3.271-8.44,2.662-17.269,1.7-18.792c1.823-0.214,23.828-4.504,30.739-5.019
				c6.91-0.516,11.727-0.891,11.693,2.998c-0.033,3.889-17.101,5.422-25.024,5.246c-1.177-3.346-3.628-4.772-4.375-4.473
				c4.482,22.189-7.527,36.798-7.527,36.798c-3.676,0.789-9.516,0.979-19.209,0.202c-8.255-0.661-22.012-3.962-27.211-7.599
				l-2.065-19.312c2.83-3.748,11.713-11.653,21.21-17.762C598.633,208.092,605.843,203.125,604.04,195.855z"/>
			<path fill="#E3A77C" d="M606.829,246.201c7.803-2.702,10.183-15.895,8.566-23.862c-2.36,0.427-4.043,0.73-4.49,0.782
				c0.962,1.523,1.571,10.352-1.7,18.792C608.466,243.82,607.656,245.194,606.829,246.201z"/>
			<path fill="#E3A77C" d="M632.835,219.286c-2.979,0.478-6.228,1.041-9.299,1.585c0.238,0.324,0.49,0.641,0.716,0.975
				c0.968,0.075,3.014,1.525,4.061,4.5c2.078,0.047,4.787-0.026,7.652-0.227C635.229,223.54,634.22,221.078,632.835,219.286z"/>
			<path fill="#E3A77C" d="M582.123,219.096c-6.596,4.955-12.084,10.07-14.196,12.868l2.065,19.312
				c2.314,1.619,6.326,3.169,10.791,4.452C576.319,244.316,576.732,230.914,582.123,219.096z"/>
			<path fill="#656C5C" d="M568.574,217.439c1.462-1.104,3.483,1.541,3.785,2.288c-0.747,0.3-4.662,3.635-5.078,4.325
				C567.281,224.052,567.113,218.543,568.574,217.439z"/>
			<path fill="#EBC29D" d="M627.484,248.109c0.447-1.049,1.755-5.816,1.812-6.534c0,0,28.002,8.959,26.643,13.394
				C654.581,259.403,630.299,249.056,627.484,248.109z"/>
			<path fill="#E3A77C" d="M633.777,243.088c-2.672-0.934-4.48-1.513-4.48-1.513c-0.057,0.718-1.366,5.485-1.812,6.534
				c0.666,0.225,2.539,0.976,5.02,1.932C633.054,247.711,633.465,245.4,633.777,243.088z"/>
			<path fill="#EBC29D" d="M629.283,237.238c-0.13-2.9-0.258-5.8-0.775-8.371c1.076,0.087,34.154,4.957,32.034,10.515
				C658.423,244.939,630.717,237.353,629.283,237.238z"/>
			<path fill="#E3A77C" d="M634.31,238.365c0.248-2.779,0.417-5.6,0.589-8.49c-3.546-0.622-6.104-0.986-6.389-1.009
				c0.516,2.571,0.644,5.471,0.775,8.371C629.635,237.266,631.568,237.743,634.31,238.365z"/>
			<path fill="#EBC29D" d="M642.403,265.791c-2.579,3.61-22.309-5.45-22.309-5.45c1.938-1.651,4.371-4.585,5.637-7.487
				C628.044,255.569,644.982,262.182,642.403,265.791z"/>
			<path fill="#E3A77C" d="M630.715,256.094c-2.347-1.301-4.302-2.441-4.983-3.24c-1.266,2.901-3.699,5.836-5.637,7.487
				c0,0,2.709,1.244,6.251,2.626C628.139,261.065,629.626,258.829,630.715,256.094z"/>
			<path d="M626.783,250.406c0,0,0,0-0.029,0.359C626.783,250.406,626.783,250.406,626.783,250.406z"/>
			<path fill="#858E85" d="M467.597,411.066c0.142,16.27,4.898,53.227,17.214,106.962c-22.295,11.865-59.317,18.578-81.965,10.064
				c2.893-26.822,2.078-115.942,1.618-119.232C416.194,411.794,439.821,416.636,467.597,411.066z"/>
			<path fill="#858E85" d="M360.981,420.593c-1.898,23.695-2.403,43.524-2.204,59.069c-0.13,6.135,0.891,54.896,1.503,57.924
				c-31.4,9.155-64.405-0.193-76.794-6.646c4.481-10.84,19.229-85.27,24.867-119.444
				C323.889,415.992,340.907,418.621,360.981,420.593z"/>
			<path fill="#6B7368" d="M449.203,420.117c6.281-1.025,12.461-2.463,18.545-4.216c-0.087-1.771-0.138-3.389-0.151-4.835
				c-27.776,5.57-51.404,0.728-63.133-2.206c0.07,0.499,0.148,2.99,0.22,6.931C417.94,422.825,434.642,422.494,449.203,420.117z"/>
			<path fill="#6B7368" d="M427.757,425.496c8.127,0.863,16.361,1.092,24.505,0.27c5.386-0.54,10.746-1.425,15.982-2.723
				c-0.137-1.611-0.255-3.148-0.347-4.58c-7.951,2.28-16.053,3.954-24.235,4.751c-13.141,1.282-27.153,1.046-38.932-4.751
				c0.008,0.506,0.015,1.059,0.022,1.603C411.674,423.901,419.938,424.667,427.757,425.496z"/>
			<path fill="#6B7368" d="M321.198,435.112c7.561-0.16,15.184-1.186,22.447-3.341c5.964-1.776,11.664-4.145,17.02-7.087
				c0.001-0.013,0.003-0.025,0.003-0.038c-17.929,7.117-37.731,9.853-55.33,4.196c-0.286,1.585-0.583,3.216-0.885,4.86
				C309.717,435.509,315.761,435.229,321.198,435.112z"/>
			<path fill="#6B7368" d="M360.868,422.061c0.039-0.494,0.074-0.975,0.114-1.468c-20.075-1.972-37.092-4.601-52.629-9.097
				c-0.726,4.402-1.606,9.481-2.594,15.003C323.257,432.239,343.063,429.339,360.868,422.061z"/>
			<path fill="#715F4B" d="M404.419,536.79c16.015,4.13,48.863,3.036,75.401-7.69c5.959,2.28,32.71,12.761,52.14,26.214
				c-13.827,5.758-29.278,6.092-57.184,4.354c-27.907-1.741-59.947-13.013-60.306-13.041c-0.029,0.359-0.537,4.193,12.435,7.135
				c-5.284,2.829-12.822,4.023-22.156,3.275C402.835,549.932,404.419,536.79,404.419,536.79z"/>
			<path fill="#715F4B" d="M357.551,544.594c-0.201,2.516,0.201,6.522,0.486,11.964c-9.754,5.137-21.894,4.911-25.843,4.595
				c4.854-4.824,6.571-7.667,4.176-9.224c-5.427,4.626-10.069,7.781-22.425,13.965c-12.356,6.183-30.748,8.954-40.179,8.942
				c-9.431-0.01-19.827-1.618-23.763-3.886c7.242-11.12,26.046-28.183,32.911-32.692c7.428,3.163,29.068,9.331,43.693,9.277
				C341.231,547.479,355.698,545.171,357.551,544.594z"/>
			<path fill="#614D3C" d="M433.924,545.729c11.302,0.911,22.7,0.318,33.799-2.074c9.202-1.977,18.08-4.906,26.647-8.56
				c-6.863-3.015-12.254-5.117-14.55-5.995c-26.538,10.725-59.387,11.819-75.401,7.69c0,0-0.031,0.262-0.078,0.715
				C413.807,541.584,423.496,544.887,433.924,545.729z"/>
			<path fill="#614D3C" d="M436.241,548.459c12.608,0.794,26.001,0.827,38.468-1.425c9.237-1.669,17.987-4.847,26.388-8.891
				c-1.255-0.585-2.492-1.158-3.686-1.695c-9.964,4.455-20.348,7.911-31.099,9.891c-11.344,2.089-23.022,2.88-34.512,1.545
				c-0.698-0.081-1.386-0.191-2.076-0.293C431.855,548.011,434.022,548.319,436.241,548.459z"/>
			<path fill="#614D3C" d="M294.249,551.912c11.686,0.906,23.478,0.42,34.976-1.957c4.165-0.86,8.258-1.921,12.286-3.15
				c-4.584,0.407-9.728,0.713-14.904,0.73c-14.625,0.053-36.265-6.115-43.693-9.277c-2.3,1.509-5.942,4.433-10.038,8.066
				C279.663,549.085,286.578,551.319,294.249,551.912z"/>
			<path fill="#614D3C" d="M330.582,556.444c2.074-1.456,3.886-2.896,5.788-4.514c1.093,0.71,1.321,1.692,0.794,3.003
				c6.945-1.794,13.764-4.206,20.368-7.176c-0.046-1.227-0.051-2.293,0.018-3.163c-0.552,0.17-2.245,0.501-4.71,0.875
				c-8.064,3.158-16.387,5.623-24.965,7.143c-11.774,2.086-23.842,2.751-35.752,1.468c-7.557-0.812-14.429-3.186-21.194-6.008
				c-0.769,0.702-1.55,1.425-2.335,2.16C288.622,559.047,310.021,560.528,330.582,556.444z"/>
			<path fill="#EBC29D" d="M192.329,294.927c0.345-4.307,1.578-8.269,3.599-8.718c2.021-0.449,4.915,6.157,8.336,11.64
				c3.421,5.484,25.701,5.589,34.661,9.279c1.508,3.733,10.064,23.206,11.987,26.249c-3.764,20.438-9.081,33.447-20.206,40.288
				c-0.029,0.361,0.331,0.391,0.961,1.523c-0.861,1.738,0.366,19.202-4.941,16.585c-5.307-2.616-1.347-19.254-1.29-19.973
				c-7.653-8.201-10.882-10.333-16.209-18.639c-5.327-8.305-8.858-13.777-9.72-18.482c-1.436-0.115-2.601,0.877-2.744,2.671
				c-0.115,1.435,0.13,2.9,0.374,4.364c-14.919,10.366-20.369,21.131-25.188,16.77c-4.819-4.36,6.098-12.951,13.877-18.587
				c7.779-5.636,18.573-12.788,20.918-14.392c2.346-1.605,4.538-2.527,5.7-3.518c-0.531,2.126-1.061,4.251-2.729,7.007
				c-0.559,2.485,1.307,6.247,4.609,10.125c3.992,4.292,8.128,6.791,13.153,7.194c1.795,0.144,2.9-0.13,3.733-1.508
				c-12.737-7.884-18.206-16.271-16.052-25.13l0,0c1.177-5.685-1.795-9.176-9.576-11.244
				C196.725,306.277,191.782,301.747,192.329,294.927z"/>
			<path fill="#EBC29D" d="M186.8,375.392c-2.864,1.45-7.075,0.653-7.299-2.264c-0.224-2.919,16.113-21.419,19-25.885
				c0.875,2.599,2.857,4.926,5.14,7.999C196.314,367.147,189.663,373.942,186.8,375.392z"/>
			<path fill="#EBC29D" d="M204.909,387.529c-3.788-4.064,5.564-18.37,7.316-22.206c2.614,3.458,4.954,5.816,6.633,7.393
				C215.426,384.006,208.697,391.592,204.909,387.529z"/>
			<path fill="#E5AE82" d="M246.055,332.911c1.238,1.956,2.52,3.779,3.857,5.489c0.345-1.628,0.681-3.289,1-5.023
				c-1.923-3.043-10.48-22.516-11.987-26.249c-1.835-0.755-4.232-1.359-6.907-1.892C233.9,314.975,241.237,325.3,246.055,332.911z"
				/>
			<path fill="#E5AE82" d="M192.953,344.811c1.307-1.026,2.697-2.063,4.184-3.097c-0.244-1.464-0.489-2.929-0.374-4.364
				c0.002-0.024,0.008-0.043,0.011-0.066c-0.29-1.576-0.4-3.198-0.331-4.814c-2.02,1.38-4.139,2.844-6.211,4.295
				C190.748,339.553,191.738,342.218,192.953,344.811z"/>
			<path fill="#E5AE82" d="M212.445,321.987c-1.122,0.957-3.208,1.856-5.462,3.361c0.001,0.025,0.013,0.043,0.011,0.069
				c-0.46,10.534,7.299,21.709,17.611,20.39c-3.774-0.979-7.078-3.246-10.281-6.689c-3.302-3.877-5.167-7.639-4.609-10.125
				C211.384,326.238,211.914,324.113,212.445,321.987z"/>
			<path fill="#E5AE82" d="M231.519,374.939c-2.175-0.424-4.3-0.969-6.342-1.764c-0.162,0.84-0.375,1.997-0.581,3.342
				c2.205,0.573,4.455,0.994,6.738,1.28c0.074-1.298,0.162-2.265,0.333-2.609C231.615,375.094,231.567,375.019,231.519,374.939z"/>
			<path fill="#E5AE82" d="M196.955,352.332c1.324,2.357,2.634,4.725,4.063,7.001c0.861-1.29,1.737-2.651,2.623-4.092
				c-2.283-3.073-4.265-5.4-5.14-7.999c-0.492,0.762-1.383,1.94-2.509,3.371C196.312,351.189,196.634,351.761,196.955,352.332z"/>
			<path fill="#E5AE82" d="M218.312,374.38c0.188-0.547,0.374-1.097,0.546-1.665c-1.679-1.577-4.019-3.935-6.633-7.393
				c-0.415,0.909-1.263,2.417-2.256,4.228C212.614,371.549,215.405,373.137,218.312,374.38z"/>
			<path d="M403.477,336.565c-1.308,3.276,0.762,6.394,2.684,7.082c-1.134,0.63-2.082,3.445-2.082,3.445
				c5.848-2.728,10.409-4.366,16.126-4.646c0.805-1.019-3.59-3.022-5.8-2.475c1.199-3.272-0.151-6.349-3.374-7.496
				C407.807,331.328,404.786,333.29,403.477,336.565z"/>
			<path fill="#878878" d="M408.918,334.581c2.523,0.097,2.8,1.912,2.884,3.501c0.083,1.588-0.906,3.407-3.027,3.553
				c-2.121,0.147-3.6-1.132-3.675-2.825C405.024,337.117,406.395,334.484,408.918,334.581z"/>
			<path d="M412.758,372.222c4.209-5.148-0.791-9.872-4.79-9.981c-3.999-0.109-5.915,4.192-5.34,7.494
				c0.574,3.303,2.522,3.987,3.763,4.296c-1.769,1.019-1.136,2.335-1.136,2.335s2.658-1.58,7.545-2.032
				c4.887-0.452,7.867,0.524,7.867,0.524C420.423,373.394,418.073,371.698,412.758,372.222z"/>
			<path fill="#878878" d="M408.445,372.087c-1.895-0.046-3.543-1.567-3.548-3.615c-0.006-2.048,1.215-4.1,3.216-4.078
				c2.001,0.022,3.971,1.761,3.9,3.971C411.94,370.574,410.34,372.133,408.445,372.087z"/>
			<path fill="#F6E4C7" d="M217.666,326.881c0.566,3.211,3.709,9.425,12.005,14.756c8.296,5.331,8.555-13.109,0.743-19.415
				C222.602,315.915,215.853,316.592,217.666,326.881z"/>
			<path fill="#F6E4C7" d="M199.012,291.305c1.282,2.62,3.7,6.99,3.604,8.2c-0.097,1.21-7.167,0.847-8.498-5.346
				C192.787,287.966,196.223,285.604,199.012,291.305z"/>
			<path fill="#F6E4C7" d="M217.229,347.539c5.116,5.811,16.148,23.811,9.738,20.255c-6.41-3.556-13.52-11.024-18.89-19.974
				C202.708,338.869,205.7,334.443,217.229,347.539z"/>
			<path fill="#F6E4C7" d="M186.168,365.54c2.383-2.535,9.815-2.612,5.837,3.104c-3.209,4.612-6.469,6.981-9.805,5.909
				C178.864,373.482,183.507,368.371,186.168,365.54z"/>
			<path fill="#F6E4C7" d="M181.444,353.598c-2.09,2.272-6.629,6.772-8.354,2.983c-1.725-3.79,3.234-7.451,6.838-9.393
				C183.533,345.245,185.444,349.253,181.444,353.598z"/>
			<path fill="#F6E4C7" d="M206.913,377.548c-1.271,2.44-3.032,7.465-0.307,8.901c2.725,1.437,4.982-1.424,6.354-3.344
				C214.331,381.185,209.55,372.485,206.913,377.548z"/>
			<path fill="#F6E4C7" d="M224.861,386.492c-0.108,2.259,3.046,7.548,4.942,1.613C231.698,382.17,225.159,380.227,224.861,386.492z
				"/>
			<path fill="#F6E4C7" d="M603.623,224.308c2.934,3.887,2.427,7.7-0.977,14.731c-3.405,7.031-4.959,3.66-7.039-0.767
				C593.527,233.846,598.52,217.548,603.623,224.308z"/>
			<path fill="#F6E4C7" d="M623.789,228.357c0.548,3.851-0.511,13.957-3.478,20.617c-2.968,6.66-6.557-1.742-4.402-10.902
				C618.063,228.913,622.621,220.148,623.789,228.357z"/>
			<path fill="#F6E4C7" d="M608.344,188.17c2.017,1.826,2.669,4.677,2.16,8.491c-0.508,3.813-4.619-0.573-6.191-3.742
				C602.739,189.749,603.426,183.718,608.344,188.17z"/>
			<path fill="#F6E4C7" d="M641.98,219.062c3.13-0.648,9.82-1.039,9.812,1.597c-0.008,2.637-7.41,3.87-9.193,3.321
				C640.817,223.433,637.03,220.086,641.98,219.062z"/>
			<path fill="#F6E4C7" d="M651.807,235.674c2.298-0.831,8.587,1.702,7.652,3.249c-0.936,1.548-3.823,2.129-7.636,1.62
				C649.59,240.246,649.509,236.504,651.807,235.674z"/>
			<path fill="#F6E4C7" d="M654.45,253.332c0.982,1.076,0.361,3.073-2.831,2.411c-3.193-0.662-6.553-1.742-5.135-4.266
				C647.903,248.953,651.653,250.267,654.45,253.332z"/>
			<path fill="#F6E4C7" d="M637.831,260.724c1.643,0.756,4.072,2.354,3.539,3.935c-0.532,1.581-1.928,1.266-4.935,0.822
				C633.428,265.037,631.962,258.022,637.831,260.724z"/>
			<path fill="#45ABE3" d="M386.985,204.123c0.91-1.054,5.169-5.543,6.654-6.142c1.485-0.6,2.833,0.535,2.347,2.755
				C395.5,202.955,385.74,205.563,386.985,204.123z"/>
			<path fill="#45ABE3" d="M392.566,234.454c1.353-5.057,1.006-12.515,0.732-12.984c-0.491-0.837-4.06,5.835-5.07,9.452
				c-1.009,3.616-1.638,8.907-0.928,12.866C387.702,246.03,390.802,241.051,392.566,234.454z"/>
			<path fill="#C1C3B1" d="M484.831,208.126c9.256,2.286,23.765,5.17,29.284,5.613c5.519,0.442,19.908,0.288,26.375,1.132
				c6.468,0.845-16.039,8.518-27.974,6.582C500.583,219.517,467.209,203.774,484.831,208.126z"/>
			<path fill="#C1C3B1" d="M561.178,221.757c-0.592,4.532,1.465,26.584,2.971,32.258c1.506,5.676-8.324-6.221-9.245-15.117
				C553.983,230.002,562.023,215.289,561.178,221.757z"/>
			<path fill="#C1C3B1" d="M409.054,346.477c4.181-2.141,11.429-3.986,19.844-2.985
				C437.313,344.493,397.469,352.411,409.054,346.477z"/>
			<path fill="#C1C3B1" d="M414.611,350.517c3.983-0.599,17.519-2.518,23.389-2.375c5.87,0.144-5.013,5.48-10.936,5.986
				C421.143,354.634,404.69,352.009,414.611,350.517z"/>
			<path fill="#C1C3B1" d="M413.882,375.945c3.256,0.057,19.506,1.235,24.921,2.976c5.415,1.741-10.728,3.389-15.571,2.674
				C418.388,380.88,403.441,375.761,413.882,375.945z"/>
			<path fill="#C1C3B1" d="M425.348,383.725c5.372-1.491,20.987-0.933,23.129,0.872
				C451.715,387.325,411.647,387.528,425.348,383.725z"/>
			<path fill="#C1C3B1" d="M433.802,388.323c2.625-0.052,9.169-0.246,13.091-0.258c3.922-0.013-0.831,2.221-6.078,2.454
				C435.568,390.751,420.711,388.581,433.802,388.323z"/>
			<path fill="#C1C3B1" d="M330.305,199.669c1.919-2.631,13.922-2.479,19.765-2.011
				C355.915,198.127,320.395,213.252,330.305,199.669z"/>
			<path fill="#C1C3B1" d="M297.456,254.872c-6.431,8.729-14.781,21.361-19.365,25.569c-4.585,4.207,11.96,1.611,16.935-7.466
				C300.001,263.898,308.821,239.445,297.456,254.872z"/>
			<path fill="#C1C3B1" d="M250.063,312.177c3.931,3.558,15.686,16.287,16.594,21.261c0.909,4.974-5.415-1.741-10.141-8.001
				C251.789,319.177,242.142,305.008,250.063,312.177z"/>
			<path fill="#C1C3B1" d="M252.855,305.866c2.306,3.172,11.361,17.248,13.023,20.975c1.662,3.727,0.417-13.363-2.92-16.571
				C259.621,307.061,247.558,298.58,252.855,305.866z"/>
			<path fill="#C1C3B1" d="M345.51,352.497c13.247,1.714,40.153,12.692,35.452,14.276c-4.701,1.584-59.88-7.084-64.049-8.071
				C312.744,357.714,332.251,350.781,345.51,352.497z"/>
			<path fill="#C1C3B1" d="M338.197,366.288c6.809,0.645,29.544,2.366,34.336,3.73c4.792,1.364-10.286,6.038-15.156,5.648
				C352.507,375.276,315.821,364.169,338.197,366.288z"/>
			<path fill="#878878" d="M475.66,241.046c6.461,1.054,48.829,10.446,61.685,13.109c12.856,2.664-7.765-9.118-15.453-11.04
				C514.204,241.192,455.985,237.836,475.66,241.046z"/>
			<path fill="#878878" d="M458.322,249.46c-0.034,3.962,4.321,39.882,4.618,48.401c0.298,8.519,1.685,27.909,1.971,32.506
				c0.285,4.597-9.543-23.637-11.139-40.428C452.177,273.146,458.401,240.317,458.322,249.46z"/>
			<path fill="#878878" d="M426.127,255.703c-2.39,3.73-14.157,21.738-19.508,31.439c-5.352,9.7-12.859,21.842-13.34,23.764
				c-0.481,1.922,16.412-11.196,21.222-20.192C421.034,278.494,429.115,251.041,426.127,255.703z"/>
			<path fill="#878878" d="M351.427,266.383c2.786,4.013,21.256,32.417,25.696,42.248c4.441,9.831-15.31-8.741-18.491-13.897
				C355.451,289.578,339.416,249.084,351.427,266.383z"/>
			<path fill="#878878" d="M337.518,399.235c8.72,1.503,50.789,14.523,44.569,14.678c-6.221,0.155-63.296-9.316-77.1-12.383
				C291.183,398.464,323.337,396.793,337.518,399.235z"/>
			<path fill="#878878" d="M393.16,332.788c-0.329,7.224,0.929,53.661,0.968,57.258s6.599-17.116,6.34-22.038
				C400.208,363.086,393.589,323.347,393.16,332.788z"/>
		</g>
	</g>
	<g>
		<path d="M482.264,132.473c-1.518,1.772-7.807,5.407-11.684,4.827c-4.55-0.679-5.727-3.534-6.007-7.088
			c-0.376-4.764,0.723-10.216,1.583-14.91c2.261-12.328,8.464-23.11,11.816-35.197c4.94-17.813,7.79-38.865-6.469-55.364
			c-13.69-15.84-35.838-17.904-55.846-10.02c-9.813,3.866-18.451,10.667-24.161,18.94c-5.305,7.69-9.606,18.767-7.393,27.986
			c-3.282,4.706-5.576,8.975-7.779,14.176c-3.249,7.666-6.959,17.367-3.157,25.33c-20.178,5.696-39.619,14.417-48.079,33.506
			c-1.463,3.3-3.292,9.138-2.468,10.662c5.526-2.318,15.257-6.97,20.586-9.652c10.171-5.122,20.638-10.619,31.517-14.38
			c3.214,14.239-0.006,33.338-1.833,42.307c-1.828,8.97-4.52,18.935-4.754,19.799c-7.768,2.2-7.657,8.621-3.473,12.099
			c8.958,7.447,30.88,4.994,37.659,3.893c14.076-2.284,23.4-7.615,30.725-19.576c5.065-8.272,7.577-16.048,8.914-25.559
			c5.483,4.96,15.742,1.977,22.174-0.078C478.502,149.584,483.651,140.477,482.264,132.473z"/>
		<path fill="#ECC4A1" d="M439.968,112.933c0.932,24.264,2.482,68.708-27.788,80.835c-12.177,4.695-37.643,5.874-45.982-0.816
			c-2.155-1.731-1.259-5.07,0.568-6.171c1.829-1.1,3.748-1.184,6.033-0.338c2.286,0.847,4.022,1.862,4.662,2.284
			c0.64,0.423,0.092-3.976-6.991-5.048c3.842-14.16,7.952-28.454,8.454-43.096c0.183-5.33,0.365-12.185-1.277-20.561
			c5.607-1.867,13.239-4.468,17.002-9.052c1.514-1.847,2.926-5.585-0.822-6.854c-3.449-1.168-7.351-0.441-10.419,1.354
			c-1.738,1.016-1.731,3.099-0.826,2.622c2.848-1.502,9.507-2.961,10.146-0.846c0.641,2.116-2.394,3.872-3.664,4.693
			c-3.21,2.071-6.891,3.477-10.548,4.713c-7.274,2.459-14.141,5.287-20.935,8.741c-10.513,5.342-20.856,11.006-31.786,15.606
			c3.817-12.563,13.082-22.121,25.221-28.465c6.328-3.307,13.425-6.162,20.321-8.249c4.88-1.475,9.324-2.283,10.969-2.622
			c1.646-0.339-2.924-1.524-5.998-1.164c-1.863-3.321-1.393-9.866-1.003-12.132c0.74-4.292,2.177-8.458,3.953-12.475
			c3.165-7.159,7.514-14.278,12.781-20.262c7.552-9.513,21.052-21.313,35.185-19.77c15.959,2.108,20.415,18.336,21.363,30.909
			c0.265,3.524,0.534,6.461,0.343,10.586c-0.06,1.293-0.723,8.145-1.545,12.207c-5.484,0.083-6.856,5.499-5.708,8.222
			c0.321,0.76,1.007,0.444,1.137-0.44c0.394-2.678,2.583-6.616,6.118-4.641c5.725,3.199,6.324,11.502,1.978,15.863
			c-2.283,2.293-8.828,3.417-12.484-0.897C437.734,106.845,438.339,110.883,439.968,112.933z"/>
		<path fill="#DAA782" d="M396.657,114.944c0.962-1.514,1.668-3.314,1.316-5.097c-0.177-0.899-0.492-1.763-1.008-2.546
			c-0.279-0.424-0.58-0.833-0.917-1.217c0.552,1.615-0.394,3.663-1.397,4.885c-3.763,4.585-11.395,7.185-17.002,9.052
			c0.472,2.405,0.781,4.667,0.995,6.821c2.536-1.033,5.02-2.172,7.407-3.468C389.964,121.251,394.297,118.654,396.657,114.944z"/>
		<path fill="#DAA782" d="M388.129,183.492c-3.332-0.544-7.601-2.528-8.167-5.88c-0.997,1.908-0.463,5.287,0.046,6.975
			c0.83,2.753,2.572,5.354,6.005,5.479c6.721,0.245,13.264-4.607,12.115-10.999C395.796,182.008,392.269,184.166,388.129,183.492z"
			/>
		<path fill="#DAA782" d="M414.204,60.705c-7.91-2.338-16.467-1.371-23.336,2.898c7.597-1.674,15.199-2.997,22.679,0.162
			c2.987,1.261,6.289,3.046,8.345,5.484c0.817,0.969,1.568,1.985,2.401,2.942c0.618,0.707,2.293,2.88,2.879,1.013
			C429.021,67.32,419.145,62.166,414.204,60.705z"/>
		<path fill="#DAA782" d="M377.751,91.125c0.127,0.01,0.251,0.071,0.336,0.203c1.829,2.856,5.947,1.253,8.753,0.868
			c1.712-0.236,3.342-0.131,4.746,0.656C390.233,86.976,380.665,85.64,377.751,91.125z"/>
		<path fill="#DAA782" d="M410.479,86.682c-3.536-1.69-7.083-1.052-10.045,1.014c2.896,0.129,5.223,1.374,7.239,3.43
			c1.326,1.353,6.033,7.72,8.562,5.95c1.786-1.248-0.434-5.01-1.249-6.211C413.858,89.198,412.402,87.601,410.479,86.682z"/>
		<path fill="#DAA782" d="M430.104,141.889c-4.767,7.188-8.229,15.095-10.303,23.308c-2.254,8.925-3.977,18.071-4.738,27.265
			c21.604-10.873,25.172-39.676,25.273-62.852C436.241,133.188,432.868,137.72,430.104,141.889z"/>
		<path fill="#DAA782" d="M425.636,93.866c-1.125-0.302-2.303-0.334-3.475-0.399c0.51,1.006,0.751,2.167,1.189,3.179
			c0.35,0.807,0.782,1.795,1.618,2.279c0.763,0.441,2.495,1.354,2.917,0.025C428.442,97.188,427.771,94.436,425.636,93.866z"/>
		<path fill="#DAA782" d="M434.711,41.759c3.166,5.565,4.45,11.712,4.658,17.957c0.239,7.205-0.415,15.386,3.279,22.011
			c1.279,2.292,3.095,3.924,5.194,5.236c0.601-3.898,1.043-8.565,1.092-9.61c0.191-4.125-0.078-7.062-0.343-10.586
			c-0.892-11.828-4.891-26.888-18.649-30.386C431.997,37.762,433.531,39.685,434.711,41.759z"/>
		<path fill="#DAA782" d="M447.005,104.502c2.772-0.708,3.651-4.305,1.574-6.165c-1.668-1.495-3.925-1.677-5.872-0.608
			c-0.109,0.258-0.273,0.419-0.449,0.462c-0.079,0.597-0.117,1.198-0.078,1.78C442.333,102.214,443.982,105.275,447.005,104.502z"/>
		<path fill="#7C4726" d="M455.07,89.349c0.049,2.239,0.125,4.481,0.187,6.722c-0.602-1.284-1.41-2.493-2.416-3.569
			c-1.058-1.136-2.503-2.154-4.085-2.635c1.924-4.621,2.725-19.036,2.599-22.797c-0.368-11.026-3.265-22.35-12.393-29.078
			c1.23-1.76,2.793-3.279,5.1-3.796c2.514-0.563,5.043,0.898,6.853,2.342c3.66,2.92,6.177,7.491,6.949,11.869
			c1.237,7.021-0.387,13.921-1.631,20.834C455.036,75.899,454.92,82.615,455.07,89.349z"/>
		<path fill="#65391B" d="M442.434,150.431c1.447-12.339,0.801-25.082,0.293-36.842c0.8,0.067,1.577,0.058,2.34,0.004
			c-2.006,13.445-4.11,31.981,9.809,40.175C449.976,154.514,445.049,154.039,442.434,150.431z"/>
		<path fill="#6F3C1A" d="M456.29,153.521c-14.608-7.755-12.27-26.655-10.261-40.031c0.702-0.099,1.39-0.236,2.046-0.437
			c-0.562,9.202-1.37,17.988,0.884,27.11c0.802,3.25,3.075,6.985,5.935,9.027c1.528,1.092,4.41,2.747,7.716,2.786
			C460.738,152.66,458.474,153.086,456.29,153.521z"/>
		<path fill="#7C4726" d="M463.987,151.188c-1.419,0.043-4.272-0.472-6.634-1.644c-3.985-1.98-6.617-6.232-7.59-10.166
			c-2.169-8.782-1.249-17.802-0.721-26.668c2.361-0.945,4.342-2.59,5.719-4.857c0.181-0.3,0.347-0.604,0.5-0.912
			c-0.042,0.968-0.095,1.935-0.172,2.901c-0.425,5.386-1.37,10.721-1.671,16.117c-0.267,4.82-0.053,10.021,2.048,14.514
			c1.765,3.768,4.897,7.853,13.038,8.795C467.602,149.701,464.444,151.003,463.987,151.188z"/>
		<path fill="#8B512C" d="M469.903,148.365c-6.656,0.235-11.624-4.605-13.082-7.244c-2.76-4.994-2.727-11.029-2.373-16.487
			c0.347-5.341,1.172-10.641,1.679-15.972c0.676-7.12-0.071-17.12-0.144-21.043c-0.135-7.186,0.403-14.174,1.74-21.254
			c1.141-6.046,2.135-12.069,1.055-18.193c-1.074-6.087-6.893-16.048-14.967-14.823c-2.449,0.371-4.265,2.19-5.6,4.089
			c-0.603-0.412-1.228-0.809-1.885-1.183c-2.269-1.287-4.569-2.125-6.877-2.604c1.819-5.297,11.627-5.951,16.477-5.322
			c7.661,0.992,13.08,6.398,15.938,12.743c3.204,7.106,0.219,14.237-1.996,21.144c-2.463,7.68-2.435,14.018-0.223,21.742
			c0.156,0.546,1.187,1.61,1.03,1.062c-1.442-5.033-2.084-10.092-1.571-15.289c0.418-4.24,2.036-8.312,3.359-12.36
			c1.166-3.57,2.001-7.19,1.735-10.935c-0.276-3.917-2.111-7.662-4.465-10.87c-4.091-5.579-10.971-8.692-18.235-8.307
			c-4.63,0.244-11.362,1.676-12.939,6.216c-5.844-0.971-11.706,0.382-17.188,3.003c1.951-6.84,9.33-10.4,16.513-12.016
			c8.035-1.809,16.941-1.747,24.608,1.273c4.466,1.76,8.503,4.489,11.585,7.961c3.502,3.943,4.615,8.681,4.056,13.68
			c-1.099,9.801-6.758,16.835-7.513,26.77c-0.044,0.566,0.466,1.739,0.508,1.178c0.857-11.265,8.596-20.579,8.094-32.08
			c-0.402-9.213-9.553-15.937-18.122-18.969c-7.971-2.82-17.483-2.289-25.568-0.148c-7.13,1.888-13.711,6.032-15.272,12.899
			c-3.77,1.936-7.342,4.445-10.584,7.173c-0.286-3.422,3.579-7.976,5.954-10.438c2.631-2.726,4.864-4.326,7.885-6.673
			c7.56-5.869,16.69-8.462,26.545-8.251c9.508,0.207,18.608,4.307,24.965,10.808c3.091,3.161,5.191,7.335,6.307,11.442
			c1.198,4.406,0.593,7.767-0.96,11.944c-0.2,0.536,0.057,1.827,0.255,1.295c1.5-4.03,2.567-8.051,1.87-12.322
			c-0.688-4.221-3.05-8.748-5.948-12.036c-6.314-7.17-15.832-11.396-25.727-11.977c-10.374-0.611-20.742,2.887-28.704,8.901
			c-3.71,2.801-6.614,5.18-10.034,9.55c-1.96,2.506-3.834,5.392-3.26,8.491c-3.12,2.71-5.914,5.598-8.243,8.327
			c-0.027,0.033-0.054,0.067-0.08,0.099c1.829-16.307,15.556-29.589,31.821-35.18c8.393-2.886,17.693-3.567,26.363-1.375
			c10.354,2.621,19.464,9.892,24.156,18.764c0.269,0.51,0.427-0.635,0.16-1.14c-4.77-9.021-13.069-15.239-23.374-18.281
			c-8.941-2.636-18.843-1.699-27.557,1.186c-17.135,5.672-31.395,20.152-32.636,37.323c-1.124,1.365-2.224,2.751-3.273,4.173
			c-1.535-10.239,4.967-21.559,11.563-29.268c7.166-8.382,17.803-13.499,28.812-16.138c22.769-5.458,45.379,6.789,51.121,27.805
			c2.914,10.669,1.506,22.414-0.782,33.045c-2.562,11.912-8.109,22.891-11.755,34.5c-1.465,4.667-1.897,7.665-2.658,12.455
			c-0.546,3.433-0.748,8.379,0.066,11.793c0.647,2.716,2.628,5.259,5.478,6.231c4.417,1.506,7.872,0.346,11.395-1.91
			c0.122,2.238-0.875,4.225-2.455,5.97c-4.073,1.165-7.943,0.319-10.68-1.219c-2.66-1.495-4.266-4.156-5.265-6.797
			c-2.01-5.306-1.826-11.301-1.253-16.818c0.941-9.072,4.322-17.758,5.79-26.751c1.568-9.601,0.261-19.462,3.43-28.846
			c0.183-0.543-0.845,0.37-1.027,0.908c-3.506,10.386-1.734,20.325-3.929,30.922c-1.852,8.94-4.901,17.658-5.464,26.794
			c-0.354,5.73-0.03,12.045,3.043,17.172c2.593,4.328,8.858,7.123,14.178,5.796C473.889,146.162,472.176,147.196,469.903,148.365z"
			/>
		<path fill="#A45F2E" d="M394.104,39.528c4.661-8.271,12.361-15.117,21.36-19.5c10.111-5.515,22.163-7.978,33.474-4.062
			c0.228,0.062,0.46,0.118,0.688,0.184c4.852,1.433,9.253,3.578,13.056,6.38c3.317,2.031,6.482,4.335,9.382,6.867
			c-9.523-13.485-27.472-20.299-45.529-15.971c-11.008,2.639-21.646,7.756-28.812,16.138c-6.596,7.709-13.098,19.029-11.563,29.268
			c0.436-0.593,0.888-1.176,1.341-1.756C387.962,50.857,390.471,44.912,394.104,39.528z"/>
		<path fill="#A45F2E" d="M460.54,32.817c-3.198-2.357-6.644-4.4-10.236-6.03c-9.896-4.489-20.516-3.659-29.571,1.217
			c-3.338,2.461-6.356,5.396-9.017,8.319c2.4-1.12,4.87-1.999,7.378-2.541c3.475-4.712,12.822-6.134,18.331-6.571
			c2.088-0.165,4.156-0.141,6.192,0.043c2.02,0.083,3.99,0.427,5.856,1.024c4.135,1.078,8.032,2.884,11.536,5.299
			C460.792,33.331,460.633,33.078,460.54,32.817z"/>
		<path fill="#A45F2E" d="M459.102,69.733c-0.472,4.789,0.046,9.459,1.255,14.102c1.112-6.335,2.682-12.593,3.618-18.952
			c0.076-0.514,0.14-1.037,0.198-1.561c-1.449,3.873-2.727,7.801-3.047,12.005c-0.041,0.56-0.551-0.613-0.508-1.178
			c0.389-5.115,2.073-9.463,3.768-13.814c0.082-2.538-0.104-5.109-0.677-7.579c-0.319,1.551-0.748,3.089-1.248,4.618
			C461.137,61.42,459.52,65.492,459.102,69.733z"/>
		<path fill="#A45F2E" d="M462.24,145.707c-11.237-7.305-6.17-22.709-4.907-33.065c0.994-8.146,1.267-16.355,2.346-24.495
			c0.148-1.118,0.322-2.233,0.508-3.345c-0.234-0.261-0.475-0.6-0.544-0.843c-2.212-7.723-2.241-14.062,0.223-21.742
			c1.232-3.838,2.697-7.747,3.209-11.681c-0.881-2.565-2.247-4.961-4.269-7.01c-0.91-0.921-1.83-1.735-2.758-2.46
			c1.412,2.417,2.357,4.995,2.73,7.107c1.08,6.123,0.086,12.146-1.055,18.193c-1.337,7.079-1.875,14.068-1.74,21.254
			c0.073,3.922,0.82,13.923,0.144,21.043c-0.507,5.331-1.331,10.631-1.679,15.972c-0.354,5.459-0.387,11.494,2.373,16.487
			c1.282,2.32,5.272,6.335,10.738,7.115C465.689,147.607,463.899,146.785,462.24,145.707z"/>
		<path d="M426.263,98.598c-0.61-1.543-1.138-2.641-3.043-3.44c-0.513-0.214-1.562-0.181-1.046,0.034
			c1.758,0.737,2.412,2.372,3.33,3.818C425.791,99.462,426.458,99.092,426.263,98.598z"/>
		<path d="M388.367,176.474c2.612,1.366,5.824-0.19,7.952-1.683c4.844-3.403,7.709-8.29,10.158-13.36
			c5.856-12.121,8.001-25.843,8.128-39.07c0.06-6.317-0.397-16.302-4.328-19.77c-0.555,6.588-3.549,17.457-6.916,23.412
			c-1.453,2.57-3.191,5.496-6.021,6.939c-1.196,0.612-2.831,0.901-4.089,0.631c-1.532-0.328-3.266-1.368-5.003-3.06
			c-0.631-0.617-0.456,3.13,3.293,5.16c-3.514,8.099-7.263,27.447-6.515,33.885C385.431,173.048,385.882,175.173,388.367,176.474z"
			/>
		<path fill="#FFFFFF" d="M394.047,135.99c3.48,0.822,7.859-2.966,10.564-7.36c3.1-5.033,5.399-11.51,6.588-20.818
			c2.01,3.553,1.567,20.591,0.174,27.439c-5.829,8.636-15.915,7.723-19.652,6.937C392.001,141.228,392.91,138.096,394.047,135.99z"
			/>
		<path d="M384.856,87.014c-3.582-0.254-8.232,3.361-7.941,4.745c0.232,1.106,1.356,1.472,1.985,0.613
			c1.949-2.67,4.595-3.744,7.338-3.405c-2.457,0.356-4.952,1.373-5.942,3.3c-0.241,0.471-0.137,1.272,0.106,0.798
			c1.39-2.705,5.737-3.839,8.847-2.858c1.876,1.055,1.819,2.504,2.564,1.889C392.348,91.658,390.901,87.444,384.856,87.014z"/>
		<path d="M418.681,94.362c-2.385-4.017-6.209-9.92-11.692-10.475c-2.808-0.284-5.365,1.142-7.146,3.047
			c-1.62,1.732-0.319,2.776,0.744,1.439c0.007-0.007,0.012-0.01,0.019-0.018c4.831-2.246,8.884,1.441,11.211,5.218
			c0.28,0.454,0.295-0.595,0.015-1.052c-2.253-3.654-5.244-6.338-9.623-5.538c3.189-1.945,7.082-0.09,9.811,2.777
			c1.691,1.776,3.071,3.807,4.303,5.878C417.167,97.057,419.503,95.747,418.681,94.362z"/>
		<path d="M427.828,70.687c-0.73-2.2-2.559-4.823-6.413-7.313c-5.459-3.526-11.46-4.694-17.76-4.161
			c7.519-1.649,15.305-1.214,22.484,2.213c0.503,0.241-0.325-0.716-0.829-0.96c-9.56-4.623-19.62-3.688-29.623,0.404
			c-0.036,0.015-0.059,0.037-0.088,0.057c-1.237,0.442-2.503,0.964-3.693,1.552c-2.743,1.354-5.139,3.714-4.115,3.215
			c2.172-1.057,7.335-3.139,9.693-3.765c9.351-2.477,17.954-0.952,24.626,4.886c2.067,1.807,3.518,4.613,4.165,7.511
			C426.815,76.741,428.56,72.887,427.828,70.687z"/>
		<path d="M391.174,72.721c-1.899-0.351-4.475,2.423-5.758,3.894c-3.473,3.975-4.942,7.195-5.895,7.351
			c-0.622,0.101,0.504-1.938,1.324-3.545c0.822-1.608,3.788-6.509,6.674-8.715c2.102-1.609,3.623-1.998,5.108-1.226
			c1.382,0.717,1.839,2.833,1.566,3.51C393.94,74.607,393.003,73.058,391.174,72.721z"/>
		<path d="M418.33,86.17c-0.282-2.195-2.481-9.076-3.756-11.417c-1.043-1.919-2.367-3.697-4.576-4.643
			c-1.164-0.407-2.92,0.326-4.291,2.188c-0.513,0.697-1.097-0.761-0.285-2.224c0.948-1.704,2.755-3.022,5.131-2.431
			c2.007,0.502,3.837,2.454,5.026,4.824C420.748,82.777,418.439,87.027,418.33,86.17z"/>
		<path d="M397.528,178.701c-3.87,6.144-15.246,4.321-16.473-2.746c-0.179-1.032-1.041,0.479-0.863,1.506
			c1.476,8.505,12.968,9.992,17.543,2.727C398.308,179.279,398.099,177.793,397.528,178.701z"/>
		<path fill="#F1D3BA" d="M336.34,126.515c2.234-3.308,10.639-10.083,18.238-13.835c7.599-3.751,16.213-7.033,22.293-8.441
			c6.079-1.407-9.375,8.441-16.719,11.49C352.805,118.777,335.074,128.391,336.34,126.515z"/>
		<path fill="#F1D3BA" d="M397.641,50.774c2.391-2.917,7.6-7.97,14.44-11.019c6.839-3.049,11.906-3.518,14.946-2.58
			C430.066,38.113,392.068,57.576,397.641,50.774z"/>
		<path fill="#F1D3BA" d="M423.342,92.975c1.267,0,3.782-1.003,5,0.089c1.218,1.092,2.485,2.499,2.485,3.438
			c0,0.937,2.027-3.049-1.267-5.394C426.266,88.763,421.316,92.975,423.342,92.975z"/>
		<path d="M428.342,93.064c-2.689-1.818-6.23-0.587-6.281-0.526c-0.307-0.074-0.618-0.126-0.936-0.16
			c-0.563-0.058-0.557,0.758,0,0.814c2.179,0.224,4.802,2.109,6.064,3.704c0.331,0.419,0.08-0.602-0.256-1.027
			c-1.018-1.287-1.985-2.211-3.592-2.894c1.863-0.38,3.643-0.179,5.245,0.98C429.028,94.274,428.799,93.373,428.342,93.064z"/>
		<path fill="#F1D3BA" d="M373.577,187.95c3.378,0.349,5.573,3.753,5.827,5.159C379.656,194.516,359.898,186.543,373.577,187.95z"/>
	</g>
</g>
</svg>
