<?xml version="1.0" encoding="utf-8"?>
<!-- Generator: Adobe Illustrator 17.0.0, SVG Export Plug-In . SVG Version: 6.00 Build 0)  -->
<!DOCTYPE svg PUBLIC "-//W3C//DTD SVG 1.1//EN" "http://www.w3.org/Graphics/SVG/1.1/DTD/svg11.dtd">
<svg version="1.1" id="Layer_1" xmlns="http://www.w3.org/2000/svg" xmlns:xlink="http://www.w3.org/1999/xlink" x="0px" y="0px"
	 width="800px" height="600px" viewBox="0 0 800 600" enable-background="new 0 0 800 600" xml:space="preserve">
<g>
	<g>
		<path fill="#F52D0A" d="M428.314,420.24c23.418,5.616,10.041,50.326-17.232,41.321c-26.915-8.887-5.388-43.327,17.232-43.327
			V420.24z"/>
		<path fill="#D30A00" d="M460.119,341.211c25.202-27.46,66.587,10.264,43.422,37.607c-46.094,28.508-56.696-14.715-43.422-38.82
			V341.211z"/>
		<path fill="#FF0C0C" d="M404.975,329.404c-28.038-27.579,24.612-52.718,44.759-24.262c10.594,14.963-5.766,40.868-26.722,37.606
			c-15.036-2.34-16.387-10.786-24.049-21.836L404.975,329.404z"/>
		<path fill="#D30A00" d="M361.477,374.275c-4.724-5.72-9.854-7.525-17.649-7.826c-50.478-1.95-23.253,55.939-6.567,40.247
			c5.069-4.767,6.799-11.778,11.082-17.142c2.816-3.527,24.674,2.972,14.365-13.416L361.477,374.275z"/>
		<path fill="#FF0C0C" d="M337.975,417.123c3.246-26.522-39.551-20.065-47.41,6.695c-2.06,25.338,28.127,34.505,41.045,16.423
			c5.855-8.196,6.682-17.1,14.466-24.168L337.975,417.123z"/>
		<path fill="#D30A00" d="M359.651,409.522c-27.73-13.153-62.447,14.075-37.785,35.15c32.97,31.564,63.997-16.987,39.026-35.15
			H359.651z"/>
		<path fill="#D30A00" d="M404.936,431.433c-23.046-18.676-68.108,14.697-45.457,40.16c30.951,34.793,80.604-10.536,45.835-39.474
			L404.936,431.433z"/>
		<path fill="#F42D09" d="M363.005,444.042c-29.618-12.945-50.55,43.839-11.378,51.652c38.591,13.831,46.932-45.841,13.867-51.975
			L363.005,444.042z"/>
		<path fill="#D30A00" d="M377.982,363.773c-4.502,4.087-17.075-3.432-19.656-7.064c-8.764-12.334-0.48-26.873,12.285-33.463
			c15.505-8.005,51.506,2.138,39.312,23.052c-6.342,10.877-22.44,12.58-32.35,20.078L377.982,363.773z"/>
		<path fill="#F42D09" d="M337.279,419.516c-21.514-21.975,22.474-46.123,42.685-26.831c25.088,23.947-15.837,55.175-41.043,27.204
			L337.279,419.516z"/>
		<path fill="#FF0C0C" d="M417.472,340.28c-29.599-16.401-53.4,25.748-25.905,43.224c30.928,19.657,63.052-24.359,26.267-42.856
			L417.472,340.28z"/>
		<path fill="#D30A00" d="M401,383.551c36.026,1.371,39.202,56.194-4.652,54.169c-36.889-1.703-33.829-54.235,3.956-54.235
			L401,383.551z"/>
		<path fill="#F52D0A" d="M417.048,341.159c3.886-1.543,17.172-17.643,36.132-11.23c14.945,5.055,20.212,28.216,12.285,39.412
			c-18.693,26.402-70.361,1.287-48.73-26.77L417.048,341.159z"/>
		<path fill="#FF0C0C" d="M456.865,373.06c31.338,12.448,9.828,59.861-22.522,48.335c-59.377-29.373,19.576-79.706,29.893-37.553
			L456.865,373.06z"/>
		<path fill="#4A9B14" d="M459.717,272.832c-6.436-11.652-35.453-11.144-47.354-14.299c-17.123-4.538-24.616-21.743-47.456-19.879
			c-5.895,0.481-6.287,11.988-12.198,11.715c-13.552-0.624-43.168-0.339-40.112,20.401c4.096,27.799,47.866-11.588,57.034-5.173
			c2.282,1.597-19.051,14.705-19.008,19.98c0.286,35.233,43.388-17.889,46.556-20.024c12.598-8.49,71.293,10.858,61.456,7.821
			L459.717,272.832z"/>
		<path fill="#F52D0A" d="M340.409,365.152c5.836-29.144,56.72-20.666,55.276,11.153c-1.494,23.455-54.192,18.167-54.192-8.857
			L340.409,365.152z"/>
		<path fill="#5DC601" d="M457.779,332.31c29.337-49.185-29.851-70.355-28.61-86.128c0.162-2.055,3.439,2.782,5.504,3.635
			c7.432,3.067,12.205,6.173,17.013,12.721c10.655,14.512,19.73,27.866,20.834,40.587c-1.218,10.927-1.21,17.946-11.122,31.811
			L457.779,332.31z"/>
		<path fill="#FF0C0C" d="M328.738,438.98c-12.973-7.907-48.886,17.755-36.389,40.449c8.267,15.013,42.023,16.975,49.763,0
			c7.372-16.168,2.658-33.17-12.151-39.93L328.738,438.98z"/>
		<path fill="#59C90E" d="M462.844,284.087c-8.752-7.372-9.249-42.644-18.562-48.41c-23.7-14.674-70.023-6.35-73.633-46.614
			c-2.999-33.451,26.825-19.989,40.966-8.604c7.205,5.801-9.163-16.059-9.415-24.8c-0.398-13.757,3.159-53.751,25.707-47.206
			c0,0,11.669,9.188,5.522,23.291c0,0,4.645-14.125,19.94-2.464c0,0,12.153,17.947,3.126,27.21c0,0,6.491-24.938,25.405-23.082
			c0,0,18.955,3.935,23.108,22.504c0,0,6.293,27.779-5.922,45.267c0,0-8.803,21.923-47.39,32.785
			c3.912,9.535,14.228,45.063,12.489,56.079L462.844,284.087z"/>
		<path fill="#4A9B14" d="M463.908,283.742c-0.235-5.692,14.015-18.967,12.915-24.252c-2.801-13.449-23.422-25.985-8.285-42.165
			c12.576-13.442,18.149,1.623,18.744,10.625c0.303,4.587,3.168-9.059,6.651-12.392c5.482-5.246,23.172-18.908,28.872-8.868
			c0,0,0.576,7.351-7.48,10.518c0,0,7.507-3.682,8.418,5.812c0,0-2.829,10.77-15.513,17.911c5.539-6.745,18.157-13.822,24.426-6.751
			c0,0,5.434,7.858-0.623,16.159c0,0-9.031,12.446-20.726,14.823c0,0-12.243,5.176-31.028-3.807
			c-2.449,4.863-13.155,21.546-18.31,25.052L463.908,283.742z"/>
		<path fill="#FFFFFF" d="M310.941,453.097c-19.491,2.212-21.19,27.924-1.966,31.415c11.115,2.018,0.09-30.627-1.573-31.058
			L310.941,453.097z"/>
		<path fill="#FFFFFF" d="M426.145,383.812c-13.822-6.325-7.233,31.577,11.974,33.592c27.034-3.223-2.595-5.315-1.366-19.324
			c0.683-12.893,3.143-7.491-6.286-13.912L426.145,383.812z"/>
		<path fill="#FFFFFF" d="M362.761,352.166c-18.548-3.976-23.201,25.518-4.162,28.719c24.688,4.151-1.9-11.207-0.434-15.351
			c-1.538-6.981,15.222-9.031,5.636-13.383L362.761,352.166z"/>
		<path fill="#FFFFFF" d="M362.127,458.644c-10.362,8.685-7.555,39.139,10.44,26.068c8.267-6.005-0.812-27.761-8.576-27.761
			L362.127,458.644z"/>
		<path fill="#FFFFFF" d="M353.924,390.935c-11.093,3.358-21.901,10.208-16.405,22.682c1.223,2.777,11.571,10.483,15.287,7.109
			c3.482-3.162,6.272-29.115,1.118-29.115V390.935z"/>
		<path fill="#FFFFFF" d="M448.444,337.021c-30.004-6.811-27.938,40.482-5.727,30.399c6.186-2.808-2.037-13.31,1.322-18.799
			c4.759-7.778,10.465-6.021,3.084-14.399L448.444,337.021z"/>
		<path fill="#FFFFFF" d="M426.418,297.023c-19.066-1.237-33.939,27.396-11.453,30.799c8.495,1.285,18.956-30.165,13.216-32.399
			L426.418,297.023z"/>
		<path fill="#FFFFFF" d="M477.728,152.529c37.06-11.216,10.202,69.948-25.83,64.495c-21.922-3.317,18.854-31.174,20.583-36.278
			c3.474-10.252-7.233-26.018,4.44-26.018L477.728,152.529z"/>
		<path fill="#FFFFFF" d="M488.137,251.663c6.777-2.051,24.562-12.441,31.618-10.305c10.391,3.145-6.449,17.17-11.35,17.912
			c-9.835,1.488-15.505-7.852-24.321-7.852L488.137,251.663z"/>
	</g>
</g>
</svg>
