<?xml version="1.0" encoding="utf-8"?>
<!-- Generator: Adobe Illustrator 17.0.0, SVG Export Plug-In . SVG Version: 6.00 Build 0)  -->
<!DOCTYPE svg PUBLIC "-//W3C//DTD SVG 1.1//EN" "http://www.w3.org/Graphics/SVG/1.1/DTD/svg11.dtd">
<svg version="1.1" id="Layer_1" xmlns="http://www.w3.org/2000/svg" xmlns:xlink="http://www.w3.org/1999/xlink" x="0px" y="0px"
	 width="800px" height="600px" viewBox="0 0 800 600" enable-background="new 0 0 800 600" xml:space="preserve">
<g>
	<g>
		<ellipse fill="#E4E4E5" cx="390.575" cy="545.135" rx="182.393" ry="29.063"/>
		<path d="M435.677,170.079c-15.819-0.753-80.586,0.487-87.094,0.104c-6.508-0.383-14.727-0.189-18.048,0.608
			c-5.957,2.018-9.04,7.541-15.271,21.1c-3.455,6.57-9.673,15.794-19.037,27.998c-0.844,1.375-8.167,10.864-21.225,28.173
			c-6.546,8.835-14.338,15.392-23.415,20.031l-8.59,3.234c-1.015-0.809-2.779-1.323-3.855-1.415
			c-1.434-0.124-2.87-0.248-5.085,0.285c0,0-0.26,4.057,3.173,9.31c-2.449-0.935-6.005-1.603-10.996-2.394
			c-10.377-1.254-16.709-3.248-19.036-5.616c-3.922-9.014-7.827-14.05-11.772-14.389c-3.948-0.34-9.819,11.008-7.407,20.228
			c2.412,9.22,8.213,12.373,15.388,12.991c5.382,0.464,8.486,2.177,8.956,5.111c-1.137,0.623-2.664,1.577-4.615,3.216
			c-1.947,1.639-18.071,11.358-25.647,16.585c-7.575,5.226-20.081,14.676-15.612,21.787c4.47,7.111,13.367,0.068,21.098-5.771
			c-0.419,0.686-12.199,14.638-11.807,18.949c0.392,4.31,4.534,5.889,9.285,5.688c4.752-0.201,11.833-6.848,20.994-20.876
			c0.983,1.17,2.296,2.728,3.607,4.285c-6.962,8.643-9.947,18.458-10.288,22.407c-0.247,2.87,1.997,6.726,5.943,7.066
			c4.307,0.371,9.142-2.458,14.885-13.379c-0.03,0.357,0.019,3.977,0.274,9.421c1.001,5.146,1.578,7.676,6.854,8.539
			c5.274,0.863,6.982-10.483,7.535-20.311c7.361-1.536,13.826-13.63,20.08-35.862c3.083,3.397,7.071,7.936,11.898,9.083
			c13.683-16.17,25.94-32.931,32.547-42.483c5.92-9.971,7.145-13.225,10.961-19.763c-1.632,6.365-27.134,55.53-30.92,116.739
			c3.322,1.778,12.952,3.14,23.438,5.823c-1.892,11.957-7.762,41.404-11.326,59.544c-3.565,18.14-8.188,36.475-16.7,63.937
			c1.662,0.889,3.796,2.067,3.796,2.067c-4.226,2.892-14.047,10.836-21.218,18.531c-11.129,11.693-15.961,18.084-16.207,20.953
			c4.719,2.889,10.793,5.272,23.724,6.078c12.93,0.805,40.801-2.751,59.181-14.327c11.12,0.958,22.356-0.696,28.672-2.677
			c5.599-2.05,8.298-3.987,8.483-6.14c-0.224-5.802-0.866-10.919-0.978-13.82c3.322-0.796,4.88-2.111,5.004-3.545
			c-2.14-11.924-2.135-59.1-1.67-64.481c0.705-16.569,1.681-43.064,2.729-53.693c3.589,0.309,17.691,1.609,26.036,1.603
			c0.072-5.053,0.046-11.06,0.182-16.851c2.061,1.261,3.688,1.406,4.767,1.499c3.032,39.743-3.317,124.895-3.317,124.895
			c1.597,1.627,3.999,2.579,6.336,2.819c-0.934,2.455-4.262,19.211-2.027,27.848c16.504,1.422,29.881-0.447,31.78-5.705
			c29.158,13.192,101.48,12.471,111.234,0.151c-6.855-9.777-45.372-26.757-56.864-31.719c2.308-1.608,4.263-3.359,5.954-5.695
			c-5.336-26.122-16.695-82.889-16.688-110.845c4.524-2.14,17.704-4.989,24.013-8.775c-0.631-42.278-15.775-112.322-31.715-152.994
			c2.153,0.186,93.564,22.269,106.122,23.351c1.536-1.853,2.163-9.13,2.377-11.938c6.272,2.709,13.714,4.436,22.682,5.209
			c8.612,0.742,15.134,0.581,19.95-0.812c0,0,25.265,12.68,29.206,5.048c2.72-5.267-12.286-12.626-14.346-13.888
			c4.868,2.227,25.285,9.536,27.893,3.488c2.607-6.048-13.486-11.283-18.356-13.51c8.97,0.773,21.378,2.298,22.353-3.495
			c0.971-5.793-10.615-10.25-20.989-11.505c1.857-0.564,14.578-0.084,14.874-5.65c0.299-5.566-3-7.126-10.174-7.744
			c-6.459-0.557-36.499,4.083-39.101,4.943c-2-1.98-2.594-3.476-2.471-4.911c0.032-0.359,1.95-1.639,5.098-4.623
			c3.477-2.591,5.221-6.055,5.531-9.643c1.378-11.809-5.279-19.534-12.937-19.277c-4.665-0.402-7.56,1.244-7.838,4.473
			c-0.279,3.229,1.207,6.971,5.174,11.29c-0.279,3.229-5.767,8.178-16.728,13.739c-3.416,1.875-6.08,3.453-8.389,5.061
			c-2.36-7.379-47.156-8.751-72.934-13.516C477.272,176.565,451.496,170.832,435.677,170.079z"/>
		<path fill="#8A7665" d="M425.945,174.891c2.01-0.286,5.686-0.452,7.947-0.104c-6.874,17.735-9.626,36.477-10.517,42.341
			c-5.414-0.104-8.055,0.737-9.318,2.796c0.329,0.391,4.949,1.226,11.939,3.998c0,0-24.164,32.283-34.561,52.969
			c-0.569-10.169-0.419-18.839-1.235-26.139C396.038,237.521,412.391,194.854,425.945,174.891z"/>
		<path fill="#FDFBFC" d="M403.51,174.557c5.055,0.074,10.468,0.179,16.27-0.045c-2.074,3.076-4.658,7.913-7.696,13.795
			C409.617,183.396,403.837,174.945,403.51,174.557z"/>
		<path fill="#374492" d="M398.814,174.513c1.342,1.201,2.327,2.37,3.312,3.539c-0.987,3.447-5.736,11.486-8.772,14.041
			c-2.968-3.094-5.917-7.157-7.148-9.853c3.601-4.026,6.065-6.119,7.655-7.789C395.327,174.215,397.38,174.389,398.814,174.513z"/>
		<path fill="#FDFBFC" d="M397.054,194.891c2.369-2.327,4.425-4.87,7.585-12.188c2.592,3.478,4.108,5.864,5.593,9.606
			c-2.617,5.195-3.847,8.53-7.041,16.208C401.87,203.078,399.052,196.87,397.054,194.891z"/>
		<path fill="#957F6C" d="M512.592,188.316c17.393,2.333,37.241,2.293,51.264,7.93c-0.396,18.753,2.646,41.517,4.131,45.26
			c-5.618-1.93-19.066-5.258-40.705-10.014c-23.792-4.942-64.092-14.903-79.16-16.201c-0.37,1.612,7.232,8.578,13.678,10.233
			c5.678,13.882,12.662,40.023,18.93,71.936c6.941,35.337,10.379,71.993,11.99,76.354c-30.767,11.255-75.544,8.957-100.399,1.836
			c0.55-35.738,0.23-63.777-0.692-86.628c15.734-29.642,35.248-59.372,43.373-68.599c-1.74-1.066-3.116-1.852-7.391-2.582
			c1.986-14.649,9.894-37.256,12.309-42.007C454.415,175.395,484.124,184.497,512.592,188.316z"/>
		<path fill="#8A7665" d="M360.223,173.655c2.511,0.216,6.617,0.321,12.031,0.426c5.63,10.871,7.81,26.606,9.821,39.472
			c2.012,12.866,2.247,20.074,3.07,35.687c0,0,0,0-0.031,0.359c-0.279,3.228,0.212,14.538,0.808,37.001
			c-4.275-9.789-20.309-39.544-35.265-56.599c3.445-2.231,21.063-13.727,21.187-15.161c0.093-1.077-8.055,1.286-12.7,4.862
			C363.604,200.858,361.492,179.91,360.223,173.655z"/>
		<path fill="#957F6C" d="M322.558,191.398c2.266-6.676,3.995-13.459,7.859-15.912c3.863-2.453,12.342-1.497,26.561-2.048
			c0.991,9.484,0.749,20.668-0.364,33.584c-0.309,3.588-1.49,8.908-3.873,15.572c-4.19,3.207-9.311,6.168-10.296,7.966
			c11.056,10.726,31.162,41.705,44.038,70.63c0.13,6.878,0.674,52.899,0.171,92.397c0,0-74.873-7.911-99.647-17.248
			c0,0,0-23.979,8.204-55.53c8.94-34.385,28.359-82.656,29.867-87.588c12.102-27.15,15.919-36.176,16.87-39.362
			c0.95-3.185,1.112-5.716,0.098-6.526c-10.411,11.754-24.311,51.4-24.979,54.957c-3.631,4.386-17.779,33.501-21.342,37.921
			c-3.562,4.42-16.658,21.335-16.658,21.335c-6.062,7.429-10.145,12.861-12.309,17.012c-2.56-3.835-6.403-9.589-12.211-17.678
			c-8.995-13.066-15.07-22.265-17.445-28.253l0,0c2.87,0.248,6.21,3.428,10.022,9.54c1.607,2.305,3.545,5.003,5.777,8.449
			c0.03-0.359,0.061-0.717,0.061-0.717c-2.343-6.347-4.485-10.87-6.389-13.925l0.358,0.03c7.177,0.618,16.733-5.426,27.893-17.476
			c2.821-3.372,13.776-17.247,33.286-42.313C312.643,209.739,320.292,198.075,322.558,191.398z"/>
		<path fill="#FDFBFC" d="M390.814,174.526c-1.528,0.952-9.159,8.781-10.032,10.513c-1.453-4.1-2.369-8.67-3.618-10.945
			C380.751,174.403,386.148,174.124,390.814,174.526z"/>
		<path fill="#FDFBFC" d="M384.947,207.555c-0.847-6.942-2.328-15.294-3.361-20.081c1.027-1.322,1.855-2.208,2.861-3.132
			c0.594,1.497,4.201,7.459,7.536,10.685C389.133,198.757,385.368,206.868,384.947,207.555z"/>
		<path fill="#374492" d="M388.776,244.855c0.062-0.719,0.093-1.076,0.154-1.794c-0.896-10.56-2.351-20.935-3.075-29.311
			c2.456-8.638,5.956-13.629,7.94-16.326c0,0,4.545,4.786,7.031,16.661c-1.146,3.291-8.702,21.298-12.143,31.845
			C388.713,245.574,388.745,245.214,388.776,244.855z"/>
		<path fill="#1A256A" d="M395.318,185.022c-3.122,1-5.425,0.359-8.06-0.827c1.486,2.485,3.778,5.482,6.095,7.898
			c2.356-1.982,5.733-7.253,7.593-11.132C399.38,182.695,397.577,184.299,395.318,185.022z"/>
		<path fill="#1A256A" d="M388.683,245.931c3.44-10.547,10.996-28.554,12.143-31.845c-0.393-1.88-0.842-3.564-1.313-5.098
			c-1.235,6.959-4.377,14.059-7.337,19.639c-1.214,2.287-2.551,4.451-4.011,6.489c0.277,2.618,0.539,5.276,0.766,7.945
			L388.683,245.931z"/>
		<path fill="#EBC29D" d="M604.823,174.576c-1.669-1.592-6.023-6.756-5.338-9.153c0.685-2.398,5.767-2.876,9.789,0.067
			c4.022,2.943,7.821,17.322-6.941,27.351c-1.272,7.68,5.812,9.513,6.215,14.206c0.405,4.693-3.078,10.579-8.548,19.505
			c1.793,0.913,6.388,2.531,9.711-5.889c3.321-8.42,2.767-17.253,1.813-18.781c1.826-0.203,23.855-4.36,30.769-4.833
			c6.913-0.473,11.732-0.819,11.676,3.069c-0.057,3.889-17.134,5.319-25.055,5.094c-1.156-3.352-3.599-4.794-4.347-4.499
			c4.347,22.216-7.749,36.752-7.749,36.752c-3.681,0.767-9.522,0.921-19.211,0.086c-8.249-0.711-21.986-4.095-27.164-7.763
			l-1.948-19.324c2.852-3.731,11.784-11.583,21.318-17.634C599.342,186.781,606.582,181.858,604.823,174.576z"/>
		<path fill="#E3A77C" d="M607.309,224.938c7.819-2.655,10.277-15.833,8.71-23.81c-2.363,0.413-4.047,0.705-4.496,0.755
			c0.954,1.529,1.508,10.362-1.813,18.781C608.959,222.567,608.141,223.936,607.309,224.938z"/>
		<path fill="#E3A77C" d="M633.477,198.181c-2.982,0.46-6.234,1.003-9.309,1.529c0.235,0.326,0.486,0.644,0.71,0.979
			c0.967,0.081,3.004,1.543,4.034,4.524c2.076,0.059,4.785,0.003,7.651-0.181C635.845,202.449,634.851,199.982,633.477,198.181z"/>
		<path fill="#E3A77C" d="M582.767,197.683c-6.627,4.915-12.145,9.997-14.275,12.782l1.948,19.324
			c2.305,1.632,6.308,3.207,10.765,4.517C576.811,222.869,577.305,209.468,582.767,197.683z"/>
		<path fill="#6D5E4F" d="M569.227,195.945c1.468-1.095,3.475,1.562,3.772,2.311c-0.748,0.296-4.683,3.607-5.106,4.295
			C567.894,202.55,567.759,197.041,569.227,195.945z"/>
		<path fill="#EBC29D" d="M627.95,226.971c0.453-1.046,1.79-5.805,1.852-6.524c0,0,27.948,9.129,26.564,13.555
			C654.98,238.428,630.762,227.935,627.95,226.971z"/>
		<path fill="#E3A77C" d="M634.275,221.988c-2.665-0.95-4.472-1.541-4.472-1.541c-0.062,0.718-1.4,5.477-1.852,6.524
			c0.665,0.228,2.536,0.992,5.009,1.962C633.524,226.607,633.948,224.298,634.275,221.988z"/>
		<path fill="#EBC29D" d="M629.817,216.111c-0.113-2.901-0.223-5.802-0.724-8.376c1.075,0.093,34.124,5.164,31.97,10.709
			C658.909,223.989,631.249,216.234,629.817,216.111z"/>
		<path fill="#E3A77C" d="M634.835,217.269c0.266-2.777,0.452-5.597,0.64-8.486c-3.541-0.644-6.098-1.023-6.382-1.048
			c0.501,2.574,0.611,5.475,0.724,8.376C630.166,216.141,632.099,216.63,634.835,217.269z"/>
		<path fill="#EBC29D" d="M642.762,244.743c-2.601,3.594-22.275-5.586-22.275-5.586c1.948-1.639,4.398-4.559,5.682-7.452
			C628.464,234.434,645.363,241.149,642.762,244.743z"/>
		<path fill="#E3A77C" d="M631.132,234.975c-2.339-1.314-4.288-2.466-4.963-3.27c-1.284,2.893-3.734,5.813-5.682,7.452
			c0,0,2.701,1.26,6.235,2.663C628.527,239.93,630.029,237.703,631.132,234.975z"/>
		<path d="M627.238,229.263c0,0,0,0-0.032,0.359C627.238,229.263,627.238,229.263,627.238,229.263z"/>
		<path fill="#886950" d="M467.082,388.958c0.043,16.27,4.576,53.256,16.568,107.066c-22.368,11.728-59.429,18.219-82.026,9.566
			c3.056-26.803,2.78-115.928,2.34-119.22C415.675,389.374,439.272,394.36,467.082,388.958z"/>
		<path fill="#886950" d="M360.41,397.839c-2.042,23.683-2.667,43.509-2.562,59.056c-0.167,6.134,0.56,54.9,1.153,57.932
			c-31.454,8.963-64.402-0.583-76.752-7.111c4.547-10.812,19.744-85.153,25.589-119.292
			C323.346,393.014,340.348,395.747,360.41,397.839z"/>
		<path fill="#735945" d="M448.632,397.898c6.288-0.989,12.475-2.388,18.571-4.106c-0.078-1.771-0.12-3.389-0.122-4.835
			c-27.809,5.402-51.406,0.416-63.119-2.588c0.068,0.499,0.13,2.99,0.177,6.931C417.353,400.415,434.056,400.186,448.632,397.898z"
			/>
		<path fill="#735945" d="M427.154,403.146c8.121,0.912,16.355,1.19,24.503,0.419c5.389-0.509,10.753-1.361,15.999-2.626
			c-0.13-1.612-0.237-3.149-0.321-4.584c-7.963,2.233-16.078,3.858-24.264,4.606c-13.146,1.204-27.158,0.883-38.902-4.987
			c0.005,0.509,0.009,1.061,0.014,1.604C411.081,401.454,419.341,402.269,427.154,403.146z"/>
		<path fill="#735945" d="M320.54,412.118c7.562-0.115,15.191-1.094,22.466-3.207c5.976-1.738,11.688-4.073,17.062-6.982
			c0.001-0.013,0.003-0.026,0.003-0.038c-17.971,7.009-37.789,9.625-55.353,3.861c-0.297,1.583-0.603,3.211-0.914,4.855
			C309.056,412.444,315.101,412.201,320.54,412.118z"/>
		<path fill="#735945" d="M360.286,399.307c0.043-0.492,0.081-0.975,0.125-1.468c-20.062-2.092-37.064-4.824-52.573-9.415
			c-0.753,4.4-1.663,9.472-2.686,14.987C322.615,409.258,342.439,406.477,360.286,399.307z"/>
		<path fill="#75847D" d="M403.143,514.297c15.99,4.227,48.845,3.332,75.447-7.234c5.945,2.318,32.631,12.959,51.98,26.528
			c-13.862,5.676-29.316,5.914-57.209,4.008c-27.897-1.908-59.868-13.373-60.228-13.405c-0.031,0.357-0.562,4.191,12.392,7.211
			c-5.3,2.796-12.847,3.944-22.176,3.14C401.479,527.43,403.143,514.297,403.143,514.297z"/>
		<path fill="#75847D" d="M356.23,521.819c-0.217,2.514,0.16,6.52,0.414,11.964c-9.785,5.08-21.924,4.779-25.87,4.439
			c4.882-4.794,6.616-7.626,4.232-9.197c-5.457,4.592-10.117,7.719-22.509,13.828c-12.393,6.108-30.803,8.768-40.233,8.698
			c-9.43-0.066-19.817-1.738-23.739-4.03c7.309-11.074,26.216-28.024,33.108-32.493c7.407,3.207,29.012,9.509,43.636,9.543
			C339.892,524.604,354.372,522.384,356.23,521.819z"/>
		<path fill="#626F66" d="M432.594,523.414c11.295,0.98,22.699,0.455,33.812-1.869c9.214-1.924,18.108-4.796,26.697-8.4
			c-6.844-3.057-12.223-5.191-14.513-6.083c-26.602,10.566-59.457,11.461-75.447,7.234c0,0-0.033,0.261-0.083,0.714
			C412.501,519.147,422.172,522.509,432.594,523.414z"/>
		<path fill="#626F66" d="M434.896,526.16c12.603,0.869,25.994,0.983,38.476-1.195c9.247-1.613,18.015-4.738,26.44-8.73
			c-1.251-0.594-2.485-1.173-3.674-1.717c-9.992,4.396-20.396,7.789-31.161,9.705c-11.355,2.019-23.038,2.739-34.519,1.335
			c-0.697-0.085-1.385-0.201-2.075-0.307C430.51,525.684,432.677,526.005,434.896,526.16z"/>
		<path fill="#626F66" d="M292.884,528.753c11.681,0.976,23.475,0.56,34.987-1.744c4.169-0.836,8.269-1.873,12.304-3.078
			c-4.585,0.379-9.733,0.653-14.909,0.641c-14.625-0.034-36.229-6.336-43.636-9.543c-2.308,1.496-5.968,4.397-10.087,8.005
			C278.316,525.837,285.218,528.113,292.884,528.753z"/>
		<path fill="#626F66" d="M329.189,533.504c2.084-1.441,3.903-2.871,5.816-4.478c1.088,0.716,1.31,1.698,0.776,3.006
			c6.954-1.751,13.789-4.121,20.411-7.052c-0.038-1.227-0.037-2.291,0.038-3.16c-0.553,0.167-2.249,0.485-4.716,0.845
			c-8.083,3.108-16.421,5.523-25.006,6.992c-11.786,2.014-23.859,2.604-35.76,1.252c-7.552-0.858-14.41-3.275-21.158-6.137
			c-0.772,0.697-1.559,1.416-2.349,2.148C287.214,535.852,308.603,537.463,329.189,533.504z"/>
		<path fill="#EBC29D" d="M192.52,271.155c0.371-4.305,1.629-8.26,3.653-8.696c2.023-0.437,4.877,6.186,8.265,11.69
			c3.388,5.504,25.666,5.744,34.606,9.489c1.484,3.742,9.922,23.267,11.826,26.321c-3.887,20.415-9.281,33.391-20.448,40.165
			c-0.031,0.361,0.327,0.393,0.952,1.529c-0.871,1.733,0.249,19.204-5.041,16.554c-5.291-2.648-1.232-19.262-1.169-19.98
			c-7.604-8.247-10.821-10.4-16.097-18.736c-5.276-8.337-8.774-13.832-9.607-18.541c-1.435-0.123-2.604,0.861-2.759,2.655
			c-0.124,1.435,0.112,2.901,0.346,4.366c-14.981,10.276-20.495,21.006-25.289,16.617c-4.79-4.39,6.177-12.914,13.99-18.503
			c7.813-5.588,18.649-12.675,21.005-14.266c2.355-1.59,4.553-2.499,5.721-3.483c-0.545,2.122-1.088,4.244-2.772,6.99
			c-0.574,2.482,1.268,6.255,4.547,10.152c3.967,4.316,8.088,6.84,13.111,7.274c1.793,0.155,2.901-0.112,3.742-1.485
			c-12.688-7.961-18.106-16.381-15.898-25.226l0,0c1.211-5.678-1.739-9.187-9.508-11.302
			C196.848,282.531,191.932,277.973,192.52,271.155z"/>
		<path fill="#EBC29D" d="M186.505,351.585c-2.872,1.433-7.079,0.611-7.284-2.308c-0.207-2.92,16.242-21.321,19.155-25.769
			c0.859,2.604,2.826,4.943,5.09,8.029C196.068,343.398,189.376,350.153,186.505,351.585z"/>
		<path fill="#EBC29D" d="M204.54,363.831c-3.762-4.087,5.676-18.336,7.451-22.161c2.593,3.474,4.919,5.845,6.589,7.433
			C215.08,360.373,208.304,367.918,204.54,363.831z"/>
		<path fill="#E5AE82" d="M246.016,309.464c1.225,1.963,2.497,3.793,3.823,5.512c0.354-1.625,0.7-3.284,1.029-5.017
			c-1.903-3.055-10.342-22.579-11.826-26.321c-1.832-0.767-4.225-1.385-6.897-1.933
			C233.971,291.455,241.244,301.824,246.016,309.464z"/>
		<path fill="#E5AE82" d="M192.843,321.042c1.313-1.018,2.71-2.046,4.202-3.071c-0.234-1.466-0.47-2.931-0.346-4.366
			c0.002-0.023,0.008-0.043,0.01-0.066c-0.28-1.578-0.38-3.2-0.302-4.816c-2.029,1.368-4.158,2.819-6.237,4.258
			C190.669,315.771,191.645,318.442,192.843,321.042z"/>
		<path fill="#E5AE82" d="M212.473,298.337c-1.128,0.95-3.22,1.836-5.482,3.328c0,0.025,0.013,0.043,0.01,0.069
			c-0.523,10.531,7.169,21.753,17.487,20.496c-3.767-1.001-7.059-3.288-10.241-6.751c-3.279-3.897-5.121-7.671-4.547-10.152
			C211.385,302.581,211.928,300.459,212.473,298.337z"/>
		<path fill="#E5AE82" d="M231.225,351.403c-2.172-0.436-4.294-0.995-6.331-1.802c-0.165,0.839-0.388,1.995-0.601,3.338
			c2.202,0.587,4.448,1.021,6.732,1.321c0.081-1.298,0.174-2.264,0.347-2.607C231.322,351.559,231.275,351.483,231.225,351.403z"/>
		<path fill="#E5AE82" d="M196.8,328.587c1.308,2.366,2.606,4.741,4.019,7.026c0.87-1.284,1.753-2.641,2.648-4.076
			c-2.265-3.087-4.232-5.425-5.09-8.029c-0.496,0.759-1.394,1.931-2.529,3.356C196.164,327.44,196.482,328.014,196.8,328.587z"/>
		<path fill="#E5AE82" d="M218.023,350.764c0.191-0.546,0.38-1.095,0.557-1.661c-1.67-1.588-3.996-3.959-6.589-7.433
			c-0.421,0.906-1.277,2.41-2.283,4.214C212.342,347.899,215.123,349.504,218.023,350.764z"/>
		<path d="M403.414,314.07c-1.33,3.268,0.723,6.399,2.639,7.097c-1.136,0.623-2.101,3.433-2.101,3.433
			c5.863-2.693,10.433-4.304,16.153-4.549c0.81-1.013-3.572-3.043-5.786-2.51c1.219-3.265-0.112-6.35-3.328-7.517
			C407.776,308.86,404.741,310.802,403.414,314.07z"/>
		<path fill="#806D5D" d="M408.866,312.119c2.522,0.112,2.789,1.929,2.861,3.518c0.075,1.589-0.926,3.401-3.047,3.536
			c-2.122,0.134-3.594-1.154-3.659-2.848C404.956,314.631,406.342,312.007,408.866,312.119z"/>
		<path d="M412.478,349.782c4.24-5.122-0.732-9.877-4.729-10.01c-3.999-0.134-5.94,4.156-5.387,7.462
			c0.555,3.306,2.499,4.002,3.738,4.319c-1.776,1.008-1.15,2.328-1.15,2.328c0,0.001,2.667-1.564,7.557-1.987
			c4.889-0.423,7.863,0.572,7.863,0.572C420.137,351.001,417.796,349.29,412.478,349.782z"/>
		<path fill="#806D5D" d="M408.165,349.621c-1.894-0.058-3.533-1.588-3.525-3.636c0.005-2.048,1.239-4.093,3.242-4.059
			c2,0.034,3.959,1.786,3.874,3.994C411.67,348.13,410.061,349.679,408.165,349.621z"/>
		<path fill="#F6E4C7" d="M217.664,303.262c0.547,3.214,3.651,9.448,11.915,14.828c8.265,5.381,8.635-13.057,0.86-19.41
			C222.666,292.326,215.912,292.963,217.664,303.262z"/>
		<path fill="#F6E4C7" d="M199.225,267.574c1.267,2.627,3.659,7.012,3.555,8.221c-0.104,1.209-7.173,0.803-8.466-5.398
			C193.02,264.196,196.47,261.856,199.225,267.574z"/>
		<path fill="#F6E4C7" d="M217.101,323.916c5.081,5.842,16.003,23.908,9.616,20.314c-6.389-3.595-13.453-11.106-18.77-20.088
			C202.633,315.159,205.652,310.751,217.101,323.916z"/>
		<path fill="#F6E4C7" d="M185.932,341.73c2.398-2.521,9.831-2.553,5.818,3.139c-3.237,4.592-6.511,6.941-9.84,5.85
			C178.58,349.627,183.255,344.544,185.932,341.73z"/>
		<path fill="#F6E4C7" d="M181.281,329.759c-2.103,2.259-6.669,6.732-8.372,2.932c-1.702-3.8,3.28-7.43,6.896-9.351
			C183.421,321.419,185.307,325.439,181.281,329.759z"/>
		<path fill="#F6E4C7" d="M206.605,353.863c-1.285,2.432-3.078,7.447-0.361,8.899c2.716,1.453,4.99-1.395,6.373-3.306
			C214,357.544,209.272,348.817,206.605,353.863z"/>
		<path fill="#F6E4C7" d="M224.498,362.915c-0.122,2.258,3,7.566,4.931,1.643C231.361,358.635,224.834,356.653,224.498,362.915z"/>
		<path fill="#F6E4C7" d="M604.235,203.026c2.91,3.905,2.379,7.715-1.068,14.725c-3.447,7.01-4.982,3.63-7.033-0.809
			C594.081,212.502,599.173,196.236,604.235,203.026z"/>
		<path fill="#F6E4C7" d="M624.376,207.197c0.523,3.854-0.595,13.954-3.604,20.596c-3.006,6.641-6.546-1.782-4.335-10.928
			C618.646,207.718,623.258,198.982,624.376,207.197z"/>
		<path fill="#F6E4C7" d="M609.173,166.917c2.008,1.838,2.64,4.693,2.111,8.504c-0.533,3.81-4.617-0.601-6.169-3.779
			C603.56,168.463,604.283,162.436,609.173,166.917z"/>
		<path fill="#F6E4C7" d="M642.622,198.012c3.134-0.628,9.827-0.979,9.802,1.657c-0.023,2.636-7.431,3.825-9.213,3.265
			C641.434,202.376,637.665,199.006,642.622,198.012z"/>
		<path fill="#F6E4C7" d="M652.349,214.732c2.303-0.817,8.578,1.754,7.634,3.296c-0.947,1.542-3.837,2.105-7.648,1.573
			C650.104,219.291,650.046,215.549,652.349,214.732z"/>
		<path fill="#F6E4C7" d="M654.886,232.406c0.974,1.082,0.344,3.074-2.847,2.394c-3.187-0.681-6.542-1.782-5.107-4.297
			C648.363,227.987,652.107,229.324,654.886,232.406z"/>
		<path fill="#F6E4C7" d="M638.221,239.648c1.64,0.766,4.057,2.379,3.515,3.957c-0.542,1.577-1.934,1.254-4.939,0.792
			C633.793,243.935,632.368,236.911,638.221,239.648z"/>
		<path fill="#677CB8" d="M387.722,181.53c0.917-1.048,5.202-5.511,6.691-6.102c1.489-0.59,2.831,0.553,2.331,2.77
			C396.244,180.415,386.47,182.964,387.722,181.53z"/>
		<path fill="#677CB8" d="M393.119,211.895c1.384-5.049,1.084-12.509,0.812-12.979c-0.486-0.84-4.095,5.811-5.127,9.422
			c-1.032,3.611-1.692,8.896-1.006,12.86C388.186,223.44,391.315,218.481,393.119,211.895z"/>
		<path fill="#B8A183" d="M485.542,186.125c9.243,2.342,23.733,5.314,29.25,5.79c5.516,0.475,19.906,0.408,26.368,1.292
			c6.463,0.884-16.09,8.42-28.013,6.412C501.224,197.611,467.947,181.667,485.542,186.125z"/>
		<path fill="#B8A183" d="M561.805,200.218c-0.618,4.529,1.304,26.592,2.776,32.276c1.471,5.684-8.286-6.272-9.154-15.173
			C554.56,208.419,562.689,193.755,561.805,200.218z"/>
		<path fill="#B8A183" d="M408.928,324.016c4.195-2.116,11.453-3.917,19.862-2.865C437.2,322.203,397.309,329.879,408.928,324.016z"
			/>
		<path fill="#B8A183" d="M414.463,328.089c3.987-0.575,17.533-2.412,23.402-2.233c5.869,0.179-5.046,5.45-10.971,5.92
			C420.969,332.246,404.531,329.521,414.463,328.089z"/>
		<path fill="#B8A183" d="M413.579,353.511c3.257,0.078,19.498,1.354,24.902,3.127c5.405,1.773-10.747,3.324-15.587,2.58
			C418.054,358.474,403.138,353.266,413.579,353.511z"/>
		<path fill="#B8A183" d="M424.998,361.361c5.382-1.459,20.991-0.806,23.122,1.013C451.342,365.121,411.274,365.081,424.998,361.361
			z"/>
		<path fill="#B8A183" d="M433.423,366.01c2.626-0.036,9.171-0.19,13.092-0.179c3.923,0.011-0.845,2.216-6.093,2.417
			C435.175,368.449,420.332,366.189,433.423,366.01z"/>
		<path fill="#B8A183" d="M331.069,176.734c1.938-2.62,13.936-2.395,19.777-1.891C356.688,175.346,321.078,190.257,331.069,176.734z
			"/>
		<path fill="#B8A183" d="M297.887,231.737c-6.482,8.69-14.91,21.272-19.519,25.451c-4.609,4.179,11.951,1.684,16.98-7.363
			C300.377,240.778,309.345,216.379,297.887,231.737z"/>
		<path fill="#B8A183" d="M250.147,288.754c3.911,3.581,15.588,16.381,16.466,21.361c0.879,4.979-5.405-1.774-10.093-8.062
			C251.832,295.765,242.271,281.537,250.147,288.754z"/>
		<path fill="#B8A183" d="M252.98,282.46c2.286,3.186,11.257,17.316,12.896,21.053c1.639,3.737,0.497-13.361-2.821-16.589
			C259.738,283.697,247.725,275.142,252.98,282.46z"/>
		<path fill="#B8A183" d="M345.349,329.651c13.238,1.794,40.077,12.935,35.365,14.49c-4.711,1.555-59.836-7.446-63.999-8.459
			C312.554,334.67,332.101,327.855,345.349,329.651z"/>
		<path fill="#B8A183" d="M337.953,343.397c6.807,0.686,29.529,2.545,34.313,3.938c4.784,1.393-10.322,5.975-15.19,5.556
			C352.209,352.472,315.591,341.143,337.953,343.397z"/>
		<path fill="#806D5D" d="M476.172,218.989c6.456,1.094,48.764,10.741,61.604,13.482c12.841,2.741-7.71-9.164-15.386-11.133
			C514.714,219.369,456.517,215.66,476.172,218.989z"/>
		<path fill="#806D5D" d="M468.057,249.657c0.458,3.936,9.237,39.037,10.589,47.454c1.354,8.417,5.136,27.484,5.99,32.01
			c0.854,4.527-12.402-22.269-16.07-38.734C465.099,274.822,467.054,241.028,468.057,249.657z"/>
		<path fill="#806D5D" d="M426.551,233.346c-2.411,3.716-14.288,21.652-19.699,31.32c-5.41,9.668-12.99,21.764-13.482,23.683
			c-0.492,1.919,16.478-11.097,21.344-20.063C421.32,256.106,429.567,228.703,426.551,233.346z"/>
		<path fill="#806D5D" d="M351.788,243.575c2.763,4.03,21.06,32.545,25.44,42.402c4.38,9.858-15.257-8.834-18.407-14.009
			C355.671,266.793,339.882,226.203,351.788,243.575z"/>
		<path fill="#806D5D" d="M337.076,376.34c8.711,1.555,50.7,14.83,44.479,14.949c-6.221,0.117-63.238-9.701-77.023-12.85
			C290.746,375.289,322.91,373.812,337.076,376.34z"/>
		<path fill="#806D5D" d="M393.118,310.23c-0.372,7.222,0.605,53.665,0.622,57.263c0.017,3.597,6.702-17.076,6.472-21.999
			C399.983,340.571,393.604,300.792,393.118,310.23z"/>
	</g>
	<g>
		<path d="M447.464,96.286c-4.374-10.19-12.663-19.125-21.963-23.029c3.593-0.353,5.963-3.891,6.424-6.726
			c0.462-2.834-0.197-5.027-1.377-6.105c-1.711-1.569-5.752-0.773-7.458,0.136c3.197-4.158,16.065-9.935,28.571-8.721
			c-1.08-1.717-5.735-3.054-10.995-3.869c-5.228-0.808-12.459-0.44-15.515,0.489c2.922-3.487,8.214-7.114,13.803-9.139
			c-1.095-1.176-5.92-1.809-10.795-1.171c-7.714,1.009-14.934,3.059-20.855,5.978c2.593-6.629,9.845-12,16.887-14.142
			c-0.838-0.865-4.066-1.017-10.281-0.393c-3.756,0.38-7.994,1.742-11.557,3.196c-6.084,2.483-12.102,6.019-16.499,11.689
			c-1.501,1.938-3.013,4.095-3.824,6.521c-0.982,2.331-1.725,5.19-2.055,7.758c-1.038-1.495-3.191-1.812-4.622-1.385
			c-1.733,0.515-3.397,1.738-4.29,3.527c-1.632,3.269-2.01,7.723,0.66,9.63c-1.574,1.127-6.828,7.295-11.553,13.517
			c-3.822,5.04-9.051,12.211-12.294,17.771c-6.682,11.464-12.584,24.517-14.5,38.348c-1.658,11.935,1.896,22.569,9.73,30.716
			c8.234,8.564,20.363,11.506,31.187,12.436c20.849,1.793,43.836-5.665,59.626-21.976c7.28-7.522,13.066-16.559,15.835-27.473
			C452.832,121.746,452.291,107.52,447.464,96.286z"/>
		<path fill="#F2CF00" d="M396.472,38.956c5.3-3.338,12.624-6.705,16.57-6.153c-2.645,2.326-5.289,5.624-7.132,8.831
			c-1.786,3.111-2.369,5.48-2.463,6.787c8-3.738,20.311-8.113,27.888-7.662c-3.541,1.842-11.458,8.863-11.141,10.968
			c4.395-1.744,17.148-2.604,19.432-1.397c-7.758,1.59-19.611,6.314-21.7,13.877c-1.779-2.36-4.041-4.228-6.554-5.709
			c-0.93-4.009-2.633-8.7-5.91-8.882c-1.386-0.075-1.537,3.237-0.156,3.313c1.629,0.088,2.739,1.943,3.478,4.225
			c-5.084-2.355-11.303-3.386-16.051-3.797c1.09-0.931,2.803-1.761,4.015-1.517c1.35,0.273,1.987-2.122,0.627-2.396
			c-2.751-0.557-5.952,1.348-7.7,3.748c-2.809-0.094-4.735-0.036-5.808,0.08C385.272,46.861,391.695,41.965,396.472,38.956z"/>
		<path fill="#E3A300" d="M429.367,53.096c-2.335,0.593-4.812,1.059-6.969,2.317c-2.19,1.275-5.087,3.397-7.048,6.007
			c0.936,0.841,1.803,1.765,2.575,2.788c1.486-5.377,7.908-9.32,14.286-11.72C431.261,52.659,430.313,52.856,429.367,53.096z"/>
		<path fill="#E3A300" d="M387.041,52.425c-0.622,0.207-1.217,0.485-1.817,0.759c1.099-0.046,2.574-0.052,4.45,0.011
			c0.335-0.458,0.723-0.898,1.148-1.305C389.552,51.923,388.263,52.016,387.041,52.425z"/>
		<path fill="#E3A300" d="M400.898,53.121c-1.925-0.549-3.875-0.9-5.841-1.088c-0.84,0.282-1.687,0.784-2.324,1.328
			c4.667,0.403,10.743,1.413,15.775,3.681C406.199,55.305,403.707,53.922,400.898,53.121z"/>
		<path fill="#F8DE6A" d="M384.449,51.95c1.422-1.44,2.793-2.928,4.341-4.195c3.457-2.83,7.181-5.2,10.878-7.567
			c3.66-2.344,7.438-4.326,11.225-6.363c0.655-0.351,1.308-0.696,1.963-1.035c-3.983-0.433-11.162,2.877-16.384,6.166
			c-4.515,2.845-10.499,7.379-12.324,13.288C384.249,52.147,384.353,52.048,384.449,51.95z"/>
		<path fill="#F8DE6A" d="M411.865,47.164c3.164-0.635,6.207-1.709,9.272-2.819c3.065-1.111,6.198-2.061,9.213-3.349
			c0.187-0.08,0.372-0.165,0.557-0.245c-7.298-0.263-18.632,3.662-26.482,7.223C406.903,47.7,409.397,47.659,411.865,47.164z"/>
		<path fill="#F8DE6A" d="M431.857,50.812c2.357-0.233,4.717-0.443,7.07-0.717c-3.268-0.782-13.363-0.073-17.934,1.355
			C424.638,51.706,428.196,51.175,431.857,50.812z"/>
		<path fill="#EBC29C" d="M402.492,176.296c-12.224,4.137-25.433,5.312-37.863,1.987c-11.052-2.957-22.634-10.097-26.242-23.512
			c-3.729-13.863,1.537-28.685,7.192-40.854c5.638-12.129,16.813-30.689,28.568-42.49c2.882,0.912,6.42-2.734,3.803-1.912
			c-1.597,0.502-5.313,0.045-5.499-3.927c-0.187-3.97,4.786-7.368,8.367-3.079c0.272,0.324,0.875-3.671,1.936-6.646
			c1.547-0.03,3.86-0.116,5.214-0.106c-0.678,1.074-1.275,2.263-1.698,3.674c-0.461,1.529,0.527,2.976,0.983,1.459
			c0.538-1.777,1.884-3.693,3.215-4.828c6.136,0.224,10.06,0.789,14.01,1.84c1.621,0.43,3.509,1.232,5.15,2.018
			c0.393,1.963,1.048,4.794,1.095,5.96c0.064,1.6,1.31-0.049,1.245-1.661c-0.043-1.076,0.097-1.747-0.116-3.163
			c2.751,1.609,4.956,3.452,5.569,4.909c-0.559,1.372,0.174,4.254,0.781,3.401c1.368-1.93,2.586-3.399,4.602-5.045
			c2.019-1.645,5.424-2.617,6.319-0.494c0.899,2.121-0.891,5.387-3.22,6.255c-2.328,0.87-3.403,0.67-1.55,2.721
			c-4.953-1.101-7.458,1.071-6.523,1.169c5.824,0.603,11.311,4.093,15.911,8.21c9.295,8.319,14.686,22.322,14.671,35.998
			C448.384,148.062,425.077,168.646,402.492,176.296z"/>
		<path fill="#E4AC83" d="M397.856,60.036c3.526,1.331,8.897,2.923,12.56,3.732c-0.237-1.241-0.557-2.693-0.787-3.847
			c-1.641-0.787-3.529-1.588-5.15-2.018c-3.95-1.051-7.874-1.616-14.01-1.84c-0.179,0.154-0.36,0.324-0.538,0.503
			C391.853,57.707,394.65,58.827,397.856,60.036z"/>
		<path fill="#E4AC83" d="M416.792,64.959c-0.985-1.247-2.789-2.645-4.939-3.903c0.202,1.345,0.088,2.023,0.113,3.01
			C413.58,64.328,415.215,64.53,416.792,64.959z"/>
		<path fill="#E4AC83" d="M403.751,155.537c-1.667,5.92,7.272,11.073,11.42,9.916c6.714-1.873,12.155-10.211,8.901-17.912
			C420.519,155.097,409.846,162.508,403.751,155.537z"/>
		<path fill="#E4AC83" d="M371.793,168.279c-2.131-1.146-4.748-3.932-5.623-6.908c-1.591,5.487-0.019,12.312,5.148,14.594
			c3.528,1.559,7.483,1.557,10.752-0.69c3.162-2.175,4.977-7.871,3.375-12.06C382.735,168.733,376.889,171.018,371.793,168.279z"/>
		<path fill="#E4AC83" d="M447.373,107.657c-1.692,3.361-2.817,7.118-3.766,10.836c-2.02,7.91-3.219,16.087-3.786,24.297
			c-0.122,1.735-0.174,3.46-0.182,5.178c5.399-8.46,8.765-18.453,8.775-29.787C448.419,114.659,448.055,111.118,447.373,107.657z"/>
		<path fill="#E4AC83" d="M352.359,164.051c-2.604-4.474-5.588-8.774-9.159-12.256c-1.771-1.725-3.715-3.601-5.982-4.314
			c0.151,2.447,0.522,4.883,1.169,7.29c2.779,10.335,10.293,16.942,18.645,20.785C356.002,171.529,354.464,167.664,352.359,164.051z
			"/>
		<path fill="#E4AC83" d="M385.739,112.027c-2.051,1.636-3.721,4.053-5.717,5.787c-1.71,1.487-3.351,3.289-5.308,4.325
			c-1.786,0.944-3.548,2.217-4.631,2.661c-1.55,0.636-2.183,9.067-1.956,10.955c5.307-1.136,11.004-4.446,15.224-8.165
			c3.258-2.872,10.649-10.484,11.216-15.557C392.432,112.201,387.611,112.081,385.739,112.027z"/>
		<path fill="#E4AC83" d="M398.614,94.382c-0.297,0.482-0.598,0.961-0.903,1.438c-1.512,2.344-3.092,4.63-4.57,7.003
			c-1.795,2.879-3.248,6.223-5.733,8.332c2.567,0.118,5.243,0.233,7.667-0.687c1.887-0.718,4.515-8.795,4.477-11.133
			c-0.022-1.23-0.071-2.492-0.365-3.681C399.089,95.261,399.034,93.711,398.614,94.382z"/>
		<path fill="#E4AC83" d="M427.308,69.221c-0.013-0.132-0.062-0.267-0.192-0.406c-0.34-0.371-0.773-0.625-1.223-0.763
			c-0.85-0.262-1.586-0.129-2.371,0.329c-0.385,0.226-0.793,0.475-1.093,0.85c-0.295,0.372-0.644,1.255-0.064,1.588
			c0.711,0.408,1.805-0.116,2.453-0.518c0.151-0.095,0.291-0.062,0.4,0.024c0.215-0.071,0.441-0.15,0.687-0.242
			C426.404,69.896,426.879,69.595,427.308,69.221z"/>
		<path d="M392.006,72.375c0.681-0.922,0.336-6.066-0.823-4.478c-1.156,1.59-3.136,4.463-5.631,3.946
			c-1.846-0.385-3.191-1.843-4.081-3.247c-1.842-2.904-0.2,4.601,3.226,5.996C387.703,75.813,390.324,74.659,392.006,72.375z"/>
		<path d="M412.343,76.438c1.496-0.945,2.318-3.038,1.536-2.635c-2.006,1.029-4.912,1.193-6.576-0.999
			c-1.665-2.19-0.159-4.155-1.62-4.188c-0.857-0.02-2.829,2.291-2.267,3.946C405.516,78.761,410.85,77.383,412.343,76.438z"/>
		<path d="M428.06,95.811c-0.672-5.485-2.832-10.675-3.578-9.924c0.483,2.011,0.604,5.321-0.537,8.784
			c-2.106,6.394-7.939,9.779-13.181,11.776c-9.601,3.66-18.68,3.345-21.009,3.318c2.584-3.219,5.609-7.035,7.327-9.782
			c2.013-3.227,3.36-8.74,2.653-8.132c-2.113,1.82-6.038,7.944-7.884,10.12c-6.781,7.973-14.945,20.182-25.457,21.001
			c1.716-7.744,6.139-14.664,10.597-20.601c4.532-6.038,9.398-10.919,14.948-15.698c3.243-2.793,5.115-4.293,6.185-4.931
			c0.868-0.52-3.034-0.07-6.581,2.155c-5.785,3.626-14.584,12.963-18.688,18.99c-3.408-2.125-6.093-5.877-7.616-8.45
			c-1.994-3.361-0.232,7.068,5.939,10.987c-2.439,3.821-4.704,7.839-6.267,12.256c-0.794,2.245-2.074,6.666-2.397,9.065
			c8.545,1.427,19.765-7.361,24.925-13.649c3.947,0.474,7.917,0.106,9.965-0.08c-0.078,7.061,0.829,13.803,2.405,20.616
			c1.129,4.874,2.972,10.73,7.048,13.241c4.351,2.683,9.026-1.174,12.051-4.753c3.256-3.852,6.012-9.448,7.41-14.549
			C428.301,120.314,429.588,108.331,428.06,95.811z"/>
		<path fill="#FFFFFF" d="M400.177,112.851c5.913-0.774,15.218-3.385,21-8.809c1.723,5.333,2.588,11.204-1.637,15.388
			c-4.625,4.58-12.592,5.757-18.424,4.429C400.571,119.935,400.18,115.917,400.177,112.851z"/>
		<path fill="#FFFFFF" d="M418.558,138.077c-2.028,2.865-5.191,5.884-8.673,5.831c-3.118-0.05-5.034-3.656-6.06-6.651
			c3.501-1.408,11.042-4.665,12.461-4.263C417.331,133.29,418.422,137.363,418.558,138.077z"/>
		<path d="M423.416,146.524c-2.822,6.05-13.024,12.618-19.741,6.931c-0.863-0.728-0.697,2.283,1.547,4.664
			c2.944,3.123,7.353,2.721,11.377,0.627c2.402-1.252,4.741-3.829,5.921-6.008C424.509,149.068,424.044,145.177,423.416,146.524z"/>
		<path d="M368.305,158.523c0.559-3.951,2.83-4.398,4.286-5.329c1.741-1.113-1.028-1.254-2.696-0.371
			c-3.234,1.713-5.439,5.148-4.444,9.629c1.672,7.53,11.319,10.543,16.536,6.721c2.55-1.871,4.826-5.108,4.575-9.507
			c-0.141-2.464-2.311-4.01-2.317-2.59c-0.033,7.226-4.444,10.628-8.513,9.99C372.569,166.452,367.522,164.06,368.305,158.523z"/>
		<path d="M382.344,74.329c-2.354-1.515-4.671-0.448-6.888,0.981c-0.405,0.263-0.061,0.992,0.343,0.729
			c1.97-1.269,4.723-2.326,6.83-0.968C383.033,75.328,382.748,74.588,382.344,74.329z"/>
		<path d="M421.314,82.064c-3.372-3.886-7.123-5.968-11.849-3.544c-0.425,0.218-0.73,0.979-0.318,0.729
			c4.253-2.621,8.522-0.207,11.645,3.393C421.122,83.017,421.64,82.441,421.314,82.064z"/>
		<path d="M372.543,89.141c-3.069-1.082-5.354-0.829-8.171,0.866c-2.827,1.7-4.169,4.055-4.901,6.924
			c-0.207,0.823-0.178,2.227,0.005,1.742c1.199-3.188,2.788-6.309,5.503-7.901c2.734-1.603,5.746-1.572,8.541-0.604
			C373.964,90.321,373.293,89.402,372.543,89.141z"/>
		<path fill="#F1D3B5" d="M377.008,103.848c2.097-3.068,10.405-11.616,12.66-13.626c0.683-0.609,0.814,5.337-7.168,14.066
			c-7.986,8.73-11.934,11.141-11.643,10.209C371.136,113.601,373.536,108.928,377.008,103.848z"/>
		<path fill="#F1D3B5" d="M409.369,79.73c1.243-0.989,3.394-1.642,6.316-0.324c2.921,1.319,3.961,2.906,4.475,3.856
			C420.671,84.213,408.413,80.489,409.369,79.73z"/>
		<path fill="#F1D3B5" d="M431.721,82.279c1.99,0.983,10.13,8.834,12.084,17.167c1.957,8.334-6.173,0.016-8.874-5.051
			C432.231,89.328,428.404,80.639,431.721,82.279z"/>
		<path fill="#F1D3B5" d="M376.938,159.205c2.831,0.065,6.557,0.778,4.477,3.701c-2.08,2.922-6.92,3.28-9.537,0.405
			C369.262,160.436,372.781,159.11,376.938,159.205z"/>
		<path fill="#F1D3B5" d="M416.272,146.976c2.711-1.745,7.038-2.494,4.398,1.354c-2.64,3.848-5.889,5.181-8.186,5.753
			C410.189,154.656,412.051,149.695,416.272,146.976z"/>
		<path fill="#F1D3B5" d="M375.72,61.507c1.034-0.662,3.832-0.26,4.319,1.84C380.527,65.446,369.717,65.337,375.72,61.507z"/>
		<path fill="#F1D3B5" d="M421.858,65.913c1.345-1.91,4.323-3.59,6.328-2.361C430.189,64.782,419.884,68.721,421.858,65.913z"/>
	</g>
</g>
</svg>
