<?xml version="1.0" encoding="utf-8"?>
<!-- Generator: Adobe Illustrator 17.0.0, SVG Export Plug-In . SVG Version: 6.00 Build 0)  -->
<!DOCTYPE svg PUBLIC "-//W3C//DTD SVG 1.1//EN" "http://www.w3.org/Graphics/SVG/1.1/DTD/svg11.dtd">
<svg version="1.1" id="Layer_1" xmlns="http://www.w3.org/2000/svg" xmlns:xlink="http://www.w3.org/1999/xlink" x="0px" y="0px"
	 width="800px" height="600px" viewBox="0 0 800 600" enable-background="new 0 0 800 600" xml:space="preserve">
<g>
	<ellipse fill="#C0AC9B" cx="400.161" cy="512.108" rx="295.551" ry="43.649"/>
	<path fill="#B0907C" d="M712.052,242.211c3.505,0.443,7.019,0.913,10.534,1.348c-1.465-1.695-2.864-3.231-4.171-4.622
		c-3.21-0.308-6.422-0.608-9.63-0.931c0.711,1.001,1.551,2.096,2.537,3.29C711.565,241.589,711.81,241.9,712.052,242.211z"/>
	<path fill="#B0907C" d="M726.728,248.596c-0.625-0.798-1.245-1.573-1.853-2.318c-3.616-0.422-7.229-0.906-10.837-1.374
		c0.657,0.949,1.311,1.955,1.961,3C719.58,248.062,723.153,248.332,726.728,248.596z"/>
	<path fill="#B0907C" d="M730.646,253.878c-0.656-0.93-1.307-1.834-1.952-2.703c-3.729-0.265-7.457-0.557-11.19-0.75
		c0.599,1.043,1.191,2.134,1.778,3.252C723.07,253.772,726.859,253.803,730.646,253.878z"/>
	<path fill="#B0907C" d="M738.508,266.455c-0.811-1.464-1.625-2.882-2.441-4.238c-4.338-0.25-8.676-0.487-13.018-0.636
		c0.548,1.263,1.07,2.58,1.593,3.897C729.259,265.875,733.884,266.156,738.508,266.455z"/>
	<path fill="#B0907C" d="M741.856,272.852c-0.654-1.325-1.313-2.618-1.976-3.869c-4.756-0.311-9.514-0.592-14.262-0.984
		c0.407,1.083,0.792,2.199,1.18,3.311C731.815,271.841,736.837,272.34,741.856,272.852z"/>
	<path fill="#B0907C" d="M745.839,281.594c-0.901-2.133-1.815-4.211-2.744-6.179c-5.146-0.531-10.294-1.038-15.439-1.572
		c0.562,1.71,1.089,3.455,1.6,5.212C734.763,280.029,740.296,280.849,745.839,281.594z"/>
	<path fill="#B0907C" d="M749.522,291.05c-0.848-2.374-1.717-4.664-2.605-6.865c-5.657-0.748-11.302-1.563-16.924-2.533
		c0.557,2.048,1.072,4.125,1.547,6.216C737.565,288.71,743.548,289.848,749.522,291.05z"/>
	<path fill="#B0907C" d="M753.121,302.227c-0.736-2.522-1.494-4.979-2.278-7.334c-6.154-1.248-12.312-2.45-18.515-3.345
		c0.545,2.718,1.011,5.456,1.391,8.194C740.237,300.11,746.689,301.065,753.121,302.227z"/>
	<path fill="#B0907C" d="M734.709,310.262c7.406,1.863,14.701,4.184,22.036,6.243c-0.213-1.032-0.428-2.062-0.669-3.091
		c-0.41-1.744-0.835-3.446-1.268-5.118c-6.782-1.257-13.577-2.319-20.435-2.752c0.077,0.851,0.163,1.702,0.221,2.55
		C734.642,308.803,734.669,309.542,734.709,310.262z"/>
	<path fill="#B0907C" d="M734.874,325.348c7.224,2.1,14.333,4.569,21.737,5.923c0.745,0.136,1.492,0.259,2.239,0.385
		c-0.226-2.987-0.549-5.969-0.999-8.944c-7.642-2.071-15.226-4.485-22.921-6.475C734.988,319.198,734.969,322.242,734.874,325.348z"
		/>
	<path fill="#B0907C" d="M757.901,360.015c0.429-3.187,0.781-6.376,0.999-9.566c-0.961-0.193-1.921-0.382-2.882-0.588
		c-7.645-1.631-15.118-3.751-22.741-5.032c-0.293,2.214-0.628,4.445-1.002,6.68C740.925,353.969,749.391,357.064,757.901,360.015z"
		/>
	<path fill="#B0907C" d="M755.187,374.802c0.688-2.999,1.306-6.003,1.825-9.01c-8.571-2.963-17.092-6.092-25.796-8.594
		c-0.503,2.524-1.081,5.05-1.695,7.575C737.938,368.458,746.513,371.76,755.187,374.802z"/>
	<path fill="#B0907C" d="M752.069,386.57c0.613-2.048,1.202-4.1,1.744-6.156c-8.703-3.043-17.31-6.335-25.76-10
		c-0.524,1.881-1.088,3.755-1.677,5.623C734.934,379.563,743.495,383.083,752.069,386.57z"/>
	<path fill="#B0907C" d="M710.325,446.225c3.61,2.096,7.245,4.147,10.88,6.199c1.542-2.349,3.03-4.722,4.458-7.119
		c-8.977-4.73-17.797-9.76-26.664-14.714c-1.375,1.937-2.792,3.774-4.238,5.565C699.892,439.594,704.974,443.118,710.325,446.225z"
		/>
	<path fill="#B0907C" d="M707.271,471.121c3.002-3.585,5.883-7.244,8.604-10.987c-3.437-1.945-6.871-3.896-10.272-5.906
		c-5.835-3.446-11.384-7.355-17.033-11.089c-3.25,3.329-6.766,6.449-10.672,9.451C687.817,458.577,697.631,464.721,707.271,471.121z
		"/>
	<path fill="#B0907C" d="M660.582,494.706c4.981,2.46,10.012,4.821,15.042,7.179c4.081-3.235,8.033-6.601,11.843-10.084
		c-11.844-7.797-23.746-15.537-36.538-21.413c-5.704,3.046-11.952,5.611-20.079,7.809
		C640.725,483.755,650.392,489.674,660.582,494.706z"/>
	<path fill="#B0907C" d="M567.002,514.491c15.444,7.305,30.979,14.487,46.1,22.418c1.122-0.401,2.244-0.804,3.344-1.226
		c7.338-2.817,14.48-6.029,21.417-9.566c-8.973-4.409-18.047-8.631-27.088-12.907c-17.899-8.466-35.072-18.993-53.227-27.048
		c-13.752,0.437-29.321,0.745-45.653,0.946C530.071,496.644,548.518,505.747,567.002,514.491z"/>
	<path fill="#B0907C" d="M497.809,515.924c20.149,11.529,42.238,20.325,61.708,32.934c10.284-1.274,20.535-2.987,30.402-5.253
		c-11.165-5.482-22.459-10.726-33.688-16.076c-26.438-12.594-52.814-25.876-78.401-40.15c-8.576,0.034-17.163,0.044-25.628,0.034
		C467.767,496.352,482.238,507.011,497.809,515.924z"/>
	<path fill="#B0907C" d="M438.065,525.66c13.721,8.668,27.536,17.272,41.446,25.723c14.448,0.752,32.299,0.978,51.212-0.022
		c-13.777-7.039-28.065-13.324-41.281-21.259c-16.136-9.686-31.38-20.873-47.941-29.859c-8.937-4.85-18.176-9.076-27.542-13.021
		c-13.087-0.115-25.187-0.277-35.668-0.472C398.464,499.323,417.958,512.956,438.065,525.66z"/>
	<path fill="#B0907C" d="M361.643,520.224c12.23,9.501,24.822,18.617,37.23,27.954c16.395,0.286,32.348,0.585,45.757,1.083
		c-4.993-3.126-9.973-6.264-14.932-9.422c-28.028-17.852-55.01-37.342-84.241-53.278c-0.407-0.222-0.768-0.466-1.112-0.721
		c-8.338-0.172-17.56-0.09-27.252,0.144C332.069,497.231,346.854,508.734,361.643,520.224z"/>
	<path fill="#B0907C" d="M298.521,506.493c20.677,13.226,41.23,26.63,61.147,40.919c3.65,0.092,7.362,0.175,11.119,0.253
		c-6.248-4.648-12.476-9.313-18.611-14.079c-20.315-15.781-40.609-31.596-61.44-46.701c-6.607,0.278-13.259,0.582-19.846,0.887
		C279.995,494.172,289.15,500.497,298.521,506.493z"/>
	<path fill="#B0907C" d="M255.368,516.333c13.018,9.2,26.798,17.822,39.472,27.634c6.245,0.241,12.272,0.62,17.878,1.177
		c4.76,0.472,10.38,0.857,16.598,1.183c-14.526-9.763-29.274-19.213-43.98-28.735c-14.079-9.115-27.665-18.959-41.381-28.606
		c-8.441,0.349-16.456,0.628-23.777,0.771C231.856,498.645,243.345,507.835,255.368,516.333z"/>
	<path fill="#B0907C" d="M224.711,523.233c9.803,6.456,19.967,13.166,29.348,20.716c4.041-0.115,8.164-0.209,12.334-0.265
		c-8.377-5.598-16.808-11.082-24.666-17.013c-16.576-12.51-32.689-25.855-49.948-37.425c-8.71-0.518-16.808-1.112-23.864-1.544
		C186.831,499.567,206.075,510.958,224.711,523.233z"/>
	<path fill="#B0907C" d="M619.142,499.031c12.032,5.67,24.117,11.274,35.942,17.35c4.149-2.598,8.201-5.314,12.146-8.153
		c-3.807-1.801-7.606-3.622-11.37-5.518c-13.249-6.677-25.702-14.69-38.865-21.471c-4.698,0.841-9.901,1.618-15.783,2.34
		c-2.877,0.352-6.361,0.675-10.331,0.972C600.25,489.51,609.588,494.529,619.142,499.031z"/>
	<path fill="#B0907C" d="M694.285,485.271c2.331-2.324,4.621-4.68,6.829-7.093c-10.331-6.819-20.849-13.36-31.481-19.726
		c-3.301,2.262-6.325,4.349-9.282,6.285C672.095,470.728,683.185,478.018,694.285,485.271z"/>
	<path fill="#B0907C" d="M730.178,437.321c2.009-3.66,3.971-7.34,5.833-11.058c-3.113-1.298-6.199-2.663-9.261-4.088
		c-5.386-2.507-11.179-6.014-17.104-8.872c-1.856,3.388-3.688,6.557-5.539,9.556C712.767,427.74,721.392,432.691,730.178,437.321z"
		/>
	<path fill="#B0907C" d="M724.129,410.711c5.272,2.509,10.559,4.936,15.925,7.155c1.797-3.89,3.508-7.8,5.1-11.734
		c-8.876-3.379-17.905-6.41-26.793-9.775c-0.161,0.333-0.311,0.669-0.475,0.999c-1.414,2.861-2.78,5.561-4.127,8.178
		C717.225,407.237,720.65,409.057,724.129,410.711z"/>
	<path fill="#B0907C" d="M748.429,397.581c0.663-1.84,1.313-3.683,1.923-5.53c-8.608-3.5-17.202-7.036-25.796-10.574
		c-0.774,2.183-1.609,4.347-2.481,6.496C730.81,391.311,739.683,394.293,748.429,397.581z"/>
	<path fill="#B0907C" d="M755.028,343.771c1.379,0.293,2.763,0.571,4.147,0.844c0.059-2.34,0.061-4.677-0.006-7.014
		c-2.305-0.389-4.602-0.821-6.877-1.351c-5.999-1.4-11.811-3.311-17.689-5.028c-0.16,2.615-0.379,5.268-0.653,7.945
		C740.993,340.374,747.91,342.254,755.028,343.771z"/>
	<path fill="#B0907C" d="M734.512,259.686c-0.727-1.153-1.453-2.281-2.174-3.355c-3.931-0.092-7.865-0.117-11.8-0.191
		c0.475,0.962,0.943,1.954,1.405,2.962C726.136,259.229,730.323,259.448,734.512,259.686z"/>
	<path d="M634.142,108.561c-4.44-8.201-15.706-10.908-24.607-8.041c-8.528-18.098-29.215-12.95-42.989-2.389
		c-4.131-11.702-13.821-21.135-24.054-27.925c-10.211-6.778-22.154-10.386-34.328-11.475c-22.103-1.976-51.1,2.719-63.582,23.111
		c-19.882-15.217-46.369-21.764-70.93-15.174c-24.042,6.449-45.013,24.314-55.771,46.452c-4.402,9.055-6.965,19.13-6.8,29.203
		c-15.78-4.96-35.215-1.214-46.002,11.354c-7.377,8.592-10.479,20.979-9.449,32.053c1.057,11.326,6.575,21.953,12.285,31.664
		c-8.996,0.924-15.971,5.096-21.154,11.921c-3.597,4.738-5.844,10.614-5.759,16.524c-6.564,2.223-18.114,5.81-17.96,14.933
		c0.034,2.009,0.413,9.988,1.458,12.787c1.046,2.798,8.522,7.074,14.961,8.499c-1.089,9.764-0.589,46.458,0.317,54.42
		c-11.237,0.339-28.011,2.262-33.963,3.933c-15.824,4.442-24.564,14.616-30.283,25.76c-4.921-1.331-11.036-1.565-15.583-1.098
		c-3.153,0.323-7.048,1.174-9.014,2.019c-9.016,3.882-13.474,11.616-15.043,21.262c-1.702,10.464,0.267,22.039,5.781,31.142
		c2.581,4.263,6.388,7.297,10.932,9.283c4.03,1.764,9.979,1.368,13.734-1.362c1.224,5.457,3.216,10.697,6.191,15.442
		c-10.553,1.704-19.495,9.375-26.544,17.554c-1.351,0-6.501,0.186-7.755,0.081c-0.785-8.235-3.921-12.714-6.273-14.138
		c-2.823-1.71-12.364-3.696-18.975,0.311c-8.748,5.302-10.265,20.056-7.739,28.615c1.282,4.346,4.887,10.126,9.621,11.465
		c4.391,1.242,10.036,0.62,14.106-1.618c-2.188,3.637-9.011,13.58-12.067,19.949c-0.433,0.901,18.191,10.564,25.722,18.601
		c6.655-0.123,13.346-1.424,19.99-1.979c6.741-0.564,13.472-0.784,20.233-0.879c8.515-0.118,17.056,0.3,25.59,0.555
		c3.462,20.599,37.964,22.976,48.732,4.334c0.644,0.978,1.325,1.936,2.068,2.86c6.955,8.651,17.738,13.728,28.868,11.984
		c9.641-1.511,16.613-8.349,21.774-16.081c4.883,6.862,14.96,4.38,21.835,0.351c7.361,7.877,17.562,12.699,29.536,11.464
		c9.646-0.995,18.966-7,24.019-15.153c4.109-6.628,5.607-13.841,5.573-21.193c5.852,2.254,12.874,4.278,18.028,5.784
		c5.379,7.993,11.69,11.381,19.288,14.414c9.721,3.879,23.361,4.146,29.842-3.345c3.212,8.36,6.45,16.015,12.917,22.548
		c7.879,7.959,20.83,10.613,31.821,9.571c15.623-1.485,30.881-13.657,33.717-37.469c7.147,16.366,22.64,26.379,33.859,27.86
		c24.07,3.176,46.215-13.681,47.883-39.458c0.733-11.333-1.057-22.621-7.34-33.082c6.74-9.263,12.153-28.627,12.424-52.974
		c0.133-12.03-1.89-38.528-18.906-61.536c-1.304-0.152-4.069-0.28-5.38-0.326c0.206-5.232-1.091-58.37-1.101-70.307
		c1.616,0.004,4.603-0.932,6.212-0.804c1.755-4.28,2.448-15.192,2.43-17.924c-3.646-13.377-21.471-25.953-36.324-28.495
		c-7.293,0.937-35.798,5.24-70.084,7.894c-34.284,2.654-60.219,1.038-71.632,5.268c-11.413,4.229-18.841,12.793-22.757,21.487
		c0.813,1.88,5.472,6.311,7.293,6.957c1.35-1.739,3.502-6.563,5.447-8.366c-0.181,2.507,1.496,59.856,2.913,74.12
		c-6.604-0.204-44.267-3.094-53.474-3.512c-10.833-0.493-21.678-0.793-32.524-1.058c-0.056-0.003-0.111-0.009-0.169-0.003
		c-3.32-0.083-6.64-0.164-9.96-0.244c0.993-3.677,1.158-22.168,0.064-27.209c1.699,0.224,3.739-0.087,5.149-0.398
		c1.989-2.965,2.979-7.768,3.533-11.4c-1.652-0.561-4.497-0.958-5.477-1.006c-2.083-9.113-8.822-14.65-17.972-14.624
		c-7.76,0.021-17.682,6.301-16.036,14.535c-1.311,0.035-3.724,0.377-4.664,1.154c0.389,1.61,2.823,8.857,4.861,11.341
		c1.567,0.311,4.572,0.114,5.872,0.149c-0.829,4.657-1.282,22.84-0.358,26.827c-11.666-0.296-23.31-0.522-34.995-0.361
		c1.138-8.175,1.597-43.76,0.472-52.956c4.547-0.816,15.797-3.836,16.634-6.53c0.429-1.379,2.978-15.526,1.676-19.379
		c-1.862-5.508-8.924-9.793-14.751-10.573c0.157-2.097-0.201-3.065-0.916-4.951c3.104-1.721,5.618-4.716,5.327-7.544
		c10.962,10.111,28.615,6.683,41.335-0.918c7.954-4.751,14.915-11.415,19.607-19.379c2.161-3.669,3.703-7.71,4.423-11.9
		c0.222-1.301,0.335-2.587,0.355-3.86c29.808,33.062,93.717,32.523,117.825-6.957c3.988-6.53,6.381-14.171,7.791-20.54
		c14.428,10.099,40.311,9.871,52.219,7.147c11.279-2.583,22.674-8.739,30.779-16.919c4.061-4.1,7.167-8.827,9.379-13.96
		c15.225,7.794,40.465,4.831,48.11-11.242c8.173,8.412,27.776,5.459,29.896-4.132c3.376,3.224,9.445,5.136,15.094,2.723
		c5.022-2.148,9.199-7.23,9.957-12.636C662.335,108.082,643.872,102.003,634.142,108.561z M427.968,261.264
		c6.132-3.86,23.377-2.45,36.405,19.644c-0.62,12.67,0.233,54.152,0.244,60.507c-6.008,0.463-27.952,0.266-35.243,0.534
		C429.404,335.207,427.753,272.925,427.968,261.264z M550.497,286.13c0.272,12.477,1.252,46.689,2.028,55.151
		c-5.941,0.135-72.918,0.938-78.848,1.083c-0.002-3.327-0.283-37.87-0.293-49.183C489.87,291.786,542.633,286.962,550.497,286.13z
		 M587.094,282.689c-0.953,11.608-0.774,53.822-0.084,63.663c-5.993-1.192-20.378-4.506-24.897-4.802
		c-0.136-7.627-1.636-45.632-1.602-56.501C561.948,284.894,579.396,283.475,587.094,282.689z M408.022,456.944
		c-4.657,5.049-6.456,14.843-6.6,21.188c-5.398-1.211-11.748-3.345-16.07-4.815c-1.39-4.147-5.815-13.916-10.262-18.194
		C377.284,455.301,403.472,456.762,408.022,456.944z M389.877,489.409c-0.118-0.687-0.243-1.375-0.377-2.059
		c0.004,0,0.007,0.001,0.01,0.003c4.662,1.477,9.319,2.972,13.974,4.469c0.042,0.739,0.124,1.465,0.231,2.179
		C400.566,493.216,391.41,489.96,389.877,489.409z"/>
	<path fill="#9DA5A1" d="M164.025,366.779c3.215,0,6.776,0.194,10.533,1.348c-0.704,1.471-1.368,2.953-1.986,4.437
		C170.176,369.377,167.988,367.79,164.025,366.779z"/>
	<path fill="#525454" d="M241.918,253.337c0.79,2.979,2.108,5.855,3.996,8.056c-2.131-0.275-8.336-0.688-9.914-3.866
		C234.683,254.867,239.983,253.141,241.918,253.337z"/>
	<path fill="#FFFFFF" d="M164.737,413.758c-4.674,3.095-10.2,2.149-13.334-2.355c-3.138-4.507-4.372-10.83-4.862-16.157
		c-0.558-6.086,2.352-16.622,10.162-17.106c-5.512,6.735-2.574,23.999,8.548,23.873
		C165.033,404.115,164.695,411.901,164.737,413.758z"/>
	<path fill="#C5C9C7" d="M156.666,374.642c-8.824,2.231-12.806,10.1-12.791,18.586c0.013,7.476,1.81,16.071,6.743,22.058
		c3.318,4.027,10.086,5.299,14.285,2.038c0.135,1.986,0.351,3.964,0.653,5.923c-3.333,3.379-13.289,5.989-21.053-5.319
		c-4.495-6.547-6.49-16.324-6.273-24.079c0.209-7.455,2.04-15.378,8.619-21.065c7.753-6.701,19.367-5.897,24.68,2.678
		c-0.567,1.459-1.107,2.928-1.597,4.415C167.974,375.352,161.585,373.398,156.666,374.642z"/>
	<path fill="#C5C9C7" d="M170.671,390.843c2.657-13.605,9.115-27.002,19.07-36.895c10.974-10.904,27.874-14.526,41.272-5.607
		c10.201,6.789,14.674,19.715,16.841,31.111c2.481,13.037,1.597,26.648-1.71,39.454c-3.563,13.798-10.34,27.856-23.422,34.447
		c-19.729,9.939-43.251-1.248-49.68-17.402C168.822,425.348,167.083,409.229,170.671,390.843z"/>
	<path fill="#ACB3B0" d="M247.853,379.452c-0.053-0.281-0.115-0.567-0.172-0.85c-0.956,11.654-4.541,23.274-9.936,33.278
		c-8.385,15.55-21.07,27.704-37.397,34.938c-4.433,1.963-9.55,3.28-14.811,3.802c10.268,6.773,24.506,9.119,37.185,2.732
		c13.081-6.591,19.859-20.649,23.422-34.447C249.45,406.1,250.334,392.489,247.853,379.452z"/>
	<path fill="#9DA5A1" d="M245.861,478.535c2.026,0.133,4.997,0.4,7.635,0.697c-1.365,4.273-2.309,8.582-2.857,12.664
		c-0.995-0.104-3.999-0.308-4.541-0.294C246.512,488.445,246.941,483.483,245.861,478.535z"/>
	<path fill="#9B916B" d="M245.665,475.758c-0.588-2.561-4.8-12.028-9.12-12.92c-1.507-0.311-11.832-1.026-13.656-0.904
		c0.009-0.207,0.021-0.933-0.012-1.144c2.667-0.169,37.551-1.578,41.855-2.399c-4.452,5.069-7.851,11.409-10.259,17.989
		C252.905,476.307,247.032,475.742,245.665,475.758z"/>
	<path fill="#9DA5A1" d="M226.822,464.265c0.52,0.055,9.122,0.514,9.992,1.159c10.352,7.67,7.291,41.069,0.136,43.209
		c-1.977,0.59-5.402,0.536-7.97,0.453C240.594,500.34,237.895,471.844,226.822,464.265z"/>
	<path fill="#C5C9C7" d="M227.632,468.1c5.237,6.665,9.989,25.14,0.406,37.458c-4.997,6.421-12.424,3.611-16.068-1.874
		c-3.027-4.551-6.234-11.279-5.041-21.805C208.458,468.366,220.545,459.077,227.632,468.1z"/>
	<path fill="#9DA5A1" d="M138.387,462.668c1.768,0.499,3.512,0.314,5.414,0.355c-1.1,1.363-5.71,8.462-6.982,10.362
		C137.01,472.673,138.544,467.172,138.387,462.668z"/>
	<path fill="#C5C9C7" d="M114.348,482.904c-4.171-1.431-6.451-7.64-7.108-11.351c-1.263-7.139,0.554-18.219,6.937-22.445
		c12.605-8.346,16.683,14.492,10.641,26.549C122.96,479.366,119.19,484.563,114.348,482.904z"/>
	<path fill="#DCDFDD" d="M227.877,479.091c1.243-0.971,2.5-1.926,3.752-2.886c-0.992-3.054-2.263-5.675-3.6-7.54
		c-7.118,6.2-14.231,12.406-21.34,18.614c0.102,3.529,0.739,6.524,1.63,9.115C214.735,490.515,220.968,484.489,227.877,479.091z"/>
	<path fill="#DCDFDD" d="M227.442,489.684c1.961-1.736,3.916-3.478,5.897-5.194c-0.163-1.628-0.406-3.224-0.746-4.742
		c-2.276,1.772-4.538,3.561-6.764,5.396c-5.615,4.628-10.777,9.708-16.11,14.619c0.529,1.078,1.088,2.044,1.652,2.956
		C216.682,498.319,222.052,493.989,227.442,489.684z"/>
	<path fill="#DCDFDD" d="M107.647,473.322c3.398-3.511,6.788-7.029,10.162-10.564c0.103-0.11,0.198-0.226,0.301-0.338
		c2.163-2.319,4.357-4.61,6.55-6.905c0.507-0.54,1.015-1.078,1.521-1.619c-0.683-1.948-1.613-3.601-2.795-4.753
		c-5.439,5.309-10.996,10.504-16.443,15.808c-0.155,2.349-0.053,4.628,0.296,6.601C107.336,472.093,107.48,472.697,107.647,473.322z
		"/>
	<path fill="#DCDFDD" d="M114.57,482.96c4.734,1.428,8.419-3.65,10.248-7.303c0.764-1.523,1.34-3.228,1.773-5.009
		C122.604,474.772,118.589,478.869,114.57,482.96z"/>
	<path fill="#9DA5A1" d="M126.626,483.795c-1.062,0.414-5.175,1.242-6.743,0.931c10.977-3.262,15.211-32.933,3.646-38.384
		c2.384,0.206,6.828,0.972,7.801,2.032C139.327,457.073,135.407,480.377,126.626,483.795z"/>
	<path fill="#838D88" d="M246.269,480.994c0.518,4.087,0.173,7.975-0.172,10.607c0.542-0.013,3.546,0.191,4.541,0.294
		c0.444-3.318,1.166-6.788,2.149-10.265C250.612,481.484,248.439,481.282,246.269,480.994z"/>
	<path fill="#838D88" d="M242.428,494.546c-2.035-0.441-4.112-0.805-6.2-0.826c-0.722,6.424-3.034,12.193-7.248,15.365
		c2.568,0.083,5.993,0.138,7.97-0.453c2.879-0.862,5.086-6.786,6.029-14.055C242.806,494.591,242.624,494.588,242.428,494.546z"/>
	<path fill="#838D88" d="M241.829,473.773c-0.422-1.421-0.925-2.749-1.525-3.934c-3.07-0.317-6.137-0.674-9.2-1.045
		c0.781,1.175,1.468,2.499,2.088,3.896C236.033,473.317,238.925,473.572,241.829,473.773z"/>
	<path fill="#838D88" d="M138.355,464.627c-0.224,4.01-1.373,8.147-1.536,8.758c0.872-1.301,3.301-5.028,5.102-7.694
		C140.719,465.404,139.526,465.067,138.355,464.627z"/>
	<path fill="#838D88" d="M129.921,467.787c-1.212,7.979-4.856,15.399-10.039,16.938c1.568,0.311,5.681-0.517,6.743-0.931
		c4.382-1.705,7.525-8.36,8.598-15.679C133.502,468.653,131.683,468.178,129.921,467.787z"/>
	<path fill="#838D88" d="M134.801,455.331c-0.417-1.627-0.985-3.145-1.73-4.483c-1.804-0.133-3.6-0.338-5.391-0.597
		c0.717,1.177,1.281,2.531,1.708,3.999C131.212,454.503,133.009,454.896,134.801,455.331z"/>
	<path fill="#D40000" d="M120.438,504.827c1.792-2.034,3.437-4.215,4.992-6.483c5.77,2.735,10.941,6.45,16.636,9.317
		c0.305,0.154,0.619-0.265,0.352-0.494c-4.725-4.038-10.043-7.944-15.561-10.962c4.42-6.828,8.97-16.369,13.098-23.132
		c12.828-21.015,23.522-26.875,33.492-28.846c0.338,0.496,0.708,0.975,1.067,1.459c-9.155,1.22-17.186,7.503-22.641,14.181
		c-6.967,8.531-11.689,20.358-14.325,30.927c-0.086,0.345,0.427,0.462,0.535,0.13c2.964-9.143,12.221-33.386,27.422-39.38
		c-14.738,10.812-21.087,32.245-22.73,49.254c-0.037,0.394,0.555,0.543,0.623,0.133c1.713-10.527,4.76-21.139,9.625-30.665
		c5.263-10.303,13.24-17.209,23.621-21.915c0.184,0.204,0.916,1.372,1.103,1.575c-11.985,4.24-20.039,17.431-23.963,28.38
		c-4.741,13.226-5.832,29.258-10.16,40.959C141.639,515.974,125.708,505.306,120.438,504.827z"/>
	<path fill="#D40000" d="M182.529,517.312c-12.081,0.077-26.172,0.451-37.879,4.36c-0.004-0.018-0.007-0.033-0.012-0.05
		c4.87-11.541,6.27-24.558,9.63-36.569c2.119-7.572,5.038-15.04,9.647-21.487c4.186-5.857,9.283-10.062,15.387-12.463
		c0.348,0.326,0.712,0.631,1.069,0.943c-14.59,12.15-23.146,30.126-25.3,48.754c-0.046,0.394,0.546,0.54,0.623,0.133
		c3.41-18.401,11.296-35.678,26.065-47.725c0.767,0.61,1.563,1.178,2.371,1.727c-17.205,17.363-20.254,37.4-19.899,46.394
		c0.018,0.41,0.706,0.462,0.739,0.039c0.682-9.03,5.405-32.33,21.2-45.145c1.212,0.707,2.462,1.341,3.739,1.889
		c-13.574,12.634-18.774,37.574-15.538,45.039c0.151,0.346,0.719,0.284,0.684-0.13c-0.725-8.711,2.377-30.409,17.033-44.083
		c1.421,0.48,4.844,1.242,5.089,1.319c-12.688,10.023-13.78,33.901-13.77,42.3c0.002,0.654,1.005,0.78,1.04,0.099
		c1.14-21.502,7.412-34.24,14.884-41.861c1.533,0.312,3.091,0.471,4.653,0.525c-11.027,14.088-10.601,33.951-9.126,40.919
		c0.115,0.537,1.057,0.548,0.974-0.012c-2.248-15.325,4.181-31.947,10.423-40.903c0.844-0.03,9.723-0.17,13.33-0.351
		c-0.006,0.269,0.012,1.057,0.062,1.457c-8.309,1.791-13.487,8.166-15.062,17.174c-1.575,9.007,0.224,17.229,3.902,23.698
		c0.897,1.581,2.108,3.086,3.529,4.393c-16.335-1.434-41.099,0.804-45.15,1.338c-4.051,0.536-6.616,1.739-4.526,1.723
		c18.746-0.151,40.446-0.385,62.796,1.511c-0.186,2.023,0.334,5.194-0.204,6.131C220.875,518.295,200.895,517.195,182.529,517.312z"
		/>
	<path fill="#AC0000" d="M142.563,468.97c-0.98,3.838-1.587,7.777-1.892,11.657c2.719-7.489,6.418-14.902,11.202-20.759
		c5.456-6.678,13.487-12.961,22.641-14.181c-0.36-0.484-0.73-0.964-1.067-1.459C164.161,446.064,154.244,451.281,142.563,468.97z"/>
	<path fill="#AC0000" d="M165.505,451.546c-2.632,1.039-5.083,2.635-7.356,4.593c0.172,0.308,0.166,0.69-0.196,0.992
		c-5.861,4.933-8.887,11.822-10.937,19.02c-1.988,6.977-4.249,14.351-3.906,21.665C145.181,481.353,151.617,461.735,165.505,451.546
		z"/>
	<path fill="#AC0000" d="M194.629,500.963c-1.254-7.871-1.066-26.33,9.356-39.642c-0.511-0.018-1.018-0.067-1.527-0.108
		c-4.69,6.185-7.661,13.488-8.987,21.219C192.544,487.842,190.922,496.142,194.629,500.963z"/>
	<path fill="#AC0000" d="M197.177,460.257c-0.142-0.046-1.38-0.327-2.663-0.648c-4.366,4.938-7.25,11.209-9.057,17.513
		c-2.028,7.074-4.458,16.052-2.031,23.401C183.613,490.808,185.395,469.565,197.177,460.257z"/>
	<path fill="#AC0000" d="M189.909,458.112c-0.716-0.306-1.421-0.647-2.117-1.007c-5.435,5.984-9.357,13.465-11.998,20.932
		c-2.43,6.869-5.66,16.336-1.965,23.339C171.89,492.325,177.263,469.882,189.909,458.112z"/>
	<path fill="#AC0000" d="M170.992,470.059c-4.643,8.65-7.336,17.269-6.65,26.644c0.74-10.185,5.096-26.94,19.789-41.768
		c-0.527-0.357-1.032-0.743-1.542-1.123C177.677,458.304,173.996,464.461,170.992,470.059z"/>
	<path fill="#AC0000" d="M163.902,469.706c-3.967,8.144-8.491,17.97-8.305,27.351c2.811-17.272,11.166-33.677,24.774-45.011
		c-0.357-0.312-0.721-0.617-1.069-0.943c-0.089,0.036-0.173,0.08-0.263,0.117C172.467,455.946,167.468,462.386,163.902,469.706z"/>
	<path fill="#AC0000" d="M166.865,456.972c3.168-3.089,6.789-5.596,10.882-7.044c-0.186-0.203-0.919-1.371-1.103-1.575
		c-4.224,1.915-8.028,4.218-11.435,6.943C165.742,455.869,166.292,456.429,166.865,456.972z"/>
	<path fill="#AC0000" d="M128.799,493.049c-0.649,1.095-1.297,2.159-1.942,3.157c4.485,2.454,8.818,5.5,12.827,8.721
		C138.402,499.56,133.733,495.911,128.799,493.049z"/>
	<path fill="#AC0000" d="M161.689,450.813c3.863-2.599,8.2-4.51,12.825-5.126c-0.36-0.484-0.73-0.964-1.067-1.459
		c-4.067,0.804-8.255,2.257-12.658,5.12C161.073,449.845,161.377,450.332,161.689,450.813z"/>
	<path fill="#AC0000" d="M198.325,471.168c1.424-3.426,3.256-6.776,5.66-9.847c-1.563-0.055-3.12-0.213-4.653-0.525
		c-2.433,2.482-4.733,5.518-6.776,9.211C194.492,470.478,196.423,470.866,198.325,471.168z"/>
	<path fill="#AC0000" d="M203.378,471.698c-7.119,14.474-3.964,31.425-1.378,35.542c3.509,0.044,6.914,0.184,10.016,0.456
		c-1.421-1.307-2.632-2.812-3.529-4.393c-3.678-6.47-5.476-14.692-3.902-23.698c1.575-9.008,6.752-15.383,15.062-17.174
		c-0.05-0.4-0.068-1.187-0.062-1.457c-3.607,0.181-12.486,0.321-13.33,0.351c-1.918,2.753-3.853,6.236-5.549,10.176
		C201.007,471.538,203.079,471.665,203.378,471.698z"/>
	<path fill="#AC0000" d="M189.977,469.331c1.844-3.54,4.193-6.699,7.199-9.075c-0.244-0.077-3.668-0.839-5.089-1.319
		c-2.842,2.652-5.237,5.608-7.267,8.709C186.524,468.276,188.247,468.841,189.977,469.331z"/>
	<path fill="#AC0000" d="M205.181,511.09c5.695,5.333,12.728,7.11,19.928,6.686c0.206-1.316-0.13-3.808,0.027-5.508
		C218.399,511.697,211.737,511.336,205.181,511.09z"/>
	<path fill="#AC0000" d="M171.647,460.86c2.62-3.178,5.518-6.144,8.724-8.814c-0.357-0.312-0.721-0.617-1.069-0.943
		c-4.088,1.608-7.714,4.044-10.928,7.223C169.415,459.217,170.511,460.06,171.647,460.86z"/>
	<path fill="#AC0000" d="M178.148,464.747c1.52,0.773,3.082,1.476,4.668,2.123c2.037-3.247,4.396-6.248,7.093-8.758
		c-1.277-0.548-2.527-1.181-3.739-1.889C183.089,458.725,180.439,461.631,178.148,464.747z"/>
	<path fill="#AC0000" d="M173.059,461.824c1.138,0.741,2.315,1.443,3.521,2.103c2.155-3.03,4.634-6.049,7.55-8.992
		c-0.808-0.549-1.604-1.117-2.371-1.727C178.533,455.84,175.654,458.735,173.059,461.824z"/>
	<path fill="#9B916B" d="M232.069,534.344c-9.789,0.335-18.615-3.37-21.317-12.87c5.906,0.161,10.858,0.946,16.745,0.669
		c1.547-0.072,1.021-9.193,1.129-10.321c0.793,0.013,7.111-0.292,8.457-0.38c4.053-0.268,7.649-10.689,8.777-17.124
		c1.153,0.024,2.972,0.133,4.479,0.173c-0.562,9.593,1.098,20.787,4.84,28.188C250.005,530.833,242.078,534.004,232.069,534.344z"/>
	<path fill="#D40000" d="M309.716,517.258c-4.642,8.757-11.154,16.529-21.151,19.174c-10.315,2.729-20.671-2.549-26.389-10.584
		c-6.727-9.455-8.142-20.741-8.024-27.998c0.29-17.634,8.616-41.327,27.223-46.739c22.69-6.6,34.3,15.251,34.57,35.452
		C316.09,497.403,314.352,508.513,309.716,517.258z"/>
	<path fill="#D40000" d="M333.175,379.529c-2.109-8.141-5.436-16.962-10.971-23.538c1.039-0.222,2.068-0.49,3.086-0.777
		c13.189,16.724,14.037,44.7,13.503,54.63c-1.254,23.303-5.959,33.865-10.821,41.788c-1.097,0.466-2.821,0.466-4.254-0.028
		c4.725-6.185,10.997-19.388,12.652-41.534C337.137,399.838,335.749,389.467,333.175,379.529z"/>
	<path fill="#9B916B" d="M329.044,455.524c-5.93,6.661-8.508,14.046-10.804,22.741c-1.668-8.699-4.356-15.152-9.723-22.338
		C312.595,456.083,326.009,455.832,329.044,455.524z"/>
	<path fill="#9B916B" d="M311.084,522.679c3.301-5.018,6.886-16.989,7.427-23.41c1.411,8.311,5.926,17.209,11.208,23.543
		C323.641,526.609,316.448,528.151,311.084,522.679z"/>
	<path fill="#D40000" d="M383.327,516.66c-4.053,8.175-12.885,13.724-21.708,15.529c-10.35,2.121-20.424-2.165-27.7-9.326
		c-7.439-7.316-12.341-20.032-13.114-29.614c-0.77-9.582,1.541-33.042,20.932-43.209c7.685-4.029,16.53-3.468,23.63,1.07
		c8.373,5.351,12.887,13.903,15.934,20.602c-3.514-1.113-6.501-2.353-10.127-3.345c-4.726-8.428-16.16-16.737-28.087-10.032
		c-19.04,10.701-16.502,42.713,0.81,55.918c9.092,6.933,22.551,6.287,29.573-3.077c5.889-7.853,6.347-20.334,3.625-27.706
		c2.66,0.833,6.005,1.988,8.663,2.824C387.538,496.703,388.152,506.922,383.327,516.66z"/>
	<path fill="#D40000" d="M467.193,368.755c1.585-0.158,3.293-0.4,5.549-0.394c10.053,10.254,13.579,31.783,14.329,39.199
		c2.466,24.381-6.4,45.393-9.184,47.693c-1.554-0.117-3.104-0.243-4.654-0.368C482.003,440.603,491.585,398.383,467.193,368.755z"/>
	<path fill="#525454" d="M467.312,285.821c1.305,2.211,2.709,4.335,4.406,6.104c-0.62,11.364-0.545,69.758,0.071,73.609
		c-1.649,0.249-3.329,0.314-5.096,0.537C467.675,359.672,466.778,299.946,467.312,285.821z"/>
	<path fill="#525454" d="M552.539,285.91c1.921-0.206,3.841-0.416,5.762-0.622c0.022,10.121,2.09,47.463,1.781,56.101
		c-1.47-0.144-3.122-0.117-4.631,0.194C553.876,327.102,553.2,297.271,552.539,285.91z"/>
	<path fill="#990000" d="M473.934,344.492c11.478,0.268,81.697-0.802,87.961-0.882c5.078,1.15,20.473,4.495,25.346,5.405
		c0.119,1.163,0.253,2.321,0.426,3.468c-4.332,0.484-111.095,11.946-114.325,12.347C473.53,359.074,473.936,347.877,473.934,344.492
		z"/>
	<path fill="#D40000" d="M573.186,427.432c-11.459,3.126-59.138,9.579-71.839,7.491c-1.89-16.989-3.853-56.798-3.878-68.608
		c0.274-0.028,76.838-7.99,77.718-8.099C575.616,373.253,574.004,418.493,573.186,427.432z"/>
	<path fill="#AC0000" d="M498.203,366.239c-0.457,0.046-0.719,0.074-0.734,0.075c0.022,10.108,1.462,40.709,3.062,59.976
		c1.776-7.362,2.812-14.909,3.169-22.382C504.256,392.234,504.508,377.016,498.203,366.239z"/>
	<path fill="#9B916B" d="M474.205,457.799c-15.664,8.027-20.137,26.676-19.04,37.055c-10.12-3.302-37.81-11.906-50.907-16.053
		c-0.406-10.032,3.78-17.257,6.817-21.743C415.43,457.213,457.613,458.612,474.205,457.799z"/>
	<path fill="#C5BD96" d="M353.62,463.951c-3.105-3.342-8.203-2.186-9.994,0.269c-2.965,4.066-3.301,11.048,0.405,14.314
		c4.861,4.279,9.976,1.871,12.147-1.714c5.543,1.714,13.78,4.121,17.698,5.641c2.833,7.898,2.54,17.664-1.758,24.835
		c-6.119,10.207-21.278,9.501-29.073,1.846c-6.282-6.172-9.715-16.33-10.096-24.891c-0.488-10.956,5.41-21.101,11.487-23.911
		c6.077-2.809,15.393-2.942,21.74,6.288C361.888,465.613,357.879,464.293,353.62,463.951z"/>
	<path fill="#D40000" d="M353.62,471.578c0.135,2.942-0.946,5.217-3.916,5.617c-2.971,0.403-4.726-2.273-5.266-4.948
		c-0.54-2.676,0-6.69,3.78-7.224C351.999,464.487,353.484,468.635,353.62,471.578z"/>
	<path fill="#888F8D" d="M390.753,497.93c-0.074-2.386-0.232-4.226-0.58-6.619c3.822,1.538,9.223,3.007,13.928,4.68
		c0.599,2.497,1.615,4.819,2.916,6.988C401.821,501.059,396.021,499.536,390.753,497.93z"/>
	<path fill="#767E7C" d="M401.163,501.04c1.991,0.611,3.968,1.242,5.854,1.939c-1.301-2.168-2.317-4.491-2.916-6.988
		c-1.193-0.425-2.43-0.829-3.674-1.231C400.442,496.881,400.708,498.975,401.163,501.04z"/>
	<path fill="#767E7C" d="M393.312,492.707c-0.018-0.087-0.019-0.17-0.024-0.255c-1.113-0.38-2.164-0.758-3.116-1.141
		c0.348,2.393,0.506,4.233,0.58,6.619c1.174,0.358,2.38,0.712,3.594,1.066C394.057,496.895,393.722,494.798,393.312,492.707z"/>
	<path fill="#9B916B" d="M428.045,516.805c-12.31-4.693-21.028-13.826-22.032-24.092c6.797,2.191,39.759,13.172,50.033,16.107
		c0.335,1.819,0.799,3.641,1.415,5.297C452.194,519.469,441.458,521.918,428.045,516.805z"/>
	<path fill="#9DA5A1" d="M357.088,474.337c0.342-2.047,0.028-4.498-0.888-6.594c9.613,2.648,115.407,35.619,138.936,43.566
		c-0.109,0.08-3.107,2.541-3.407,4.918C476.77,511.709,367.257,477.598,357.088,474.337z"/>
	<path fill="#818B86" d="M432.377,494.282c-15.963-5.312-32.122-9.647-48.277-14.305c-8.346-2.404-19.033-4.788-27.132-9.65
		c0.265,1.373,0.329,2.765,0.12,4.011c10.17,3.261,119.683,37.372,134.641,41.89c0.064-0.499,0.26-0.996,0.509-1.48
		C472.198,508.204,452.39,500.942,432.377,494.282z"/>
	<path fill="#D40000" d="M495.001,519.334c-1.593-3.492,0.539-6.554,3.645-7.223c3.105-0.669,7.088,2.003,6.002,6.52
		C503.299,524.251,496.891,523.482,495.001,519.334z"/>
	<path fill="#AC0000" d="M350.144,471.841c-2.737-0.005-4.719-1.18-5.669-3.111c-0.274,1.181-0.255,2.45-0.039,3.517
		c0.54,2.675,2.296,5.351,5.266,4.948c2.971-0.4,4.051-2.675,3.916-5.617c-0.006-0.114-0.03-0.241-0.041-0.36
		C352.471,471.612,351.312,471.843,350.144,471.841z"/>
	<path fill="#AC0000" d="M501.699,519.601c-2.159,0.231-4.935-0.844-5.897-2.951c-0.386-0.847-0.508-1.65-0.462-2.421
		c-0.955,1.341-1.229,3.156-0.339,5.106c1.889,4.146,8.286,4.914,9.643-0.69C503.7,519.146,502.712,519.492,501.699,519.601z"/>
	<path fill="#C5BD96" d="M504.649,523.809c3.255-2.248,3.302-6.94,2.139-10.59c-0.81-2.541-4.751-5.176-9.264-3.764
		c-6.89-2.589-15.677-5.413-25.103-8.634c-3.58-15.337,6.211-31.222,21.358-28.892c11.046,1.699,21.629,10.932,23.88,27.304
		c1.381,10.041-1.427,25.362-11.347,29.048c-19.003,7.059-29.811-8.009-31.951-14.042c5.842,1.88,11.66,3.817,17.544,5.542
		C493.65,526.156,500.734,526.514,504.649,523.809z"/>
	<path fill="#D40000" d="M525.247,530.706c-5.438,7.985-14.573,12.634-24.123,14.147c-10.507,1.665-22.402-1.877-29.493-9.514
		c-6.316-6.8-10.929-18.546-11.64-25.421c2.33,0.588,6.955,2.034,10.837,3.264c6.616,18.728,22.314,23.309,35.245,18.629
		c12.794-4.628,16.197-20.291,14.934-32.681c-1.263-12.395-11.119-29.605-27.671-30.698c-18.152-1.199-26.704,16.398-24.398,31.105
		c-1.443-0.407-8.721-2.991-11.073-3.745c-0.675-9.633,1.965-19.822,9.181-28.227c7.176-8.36,17.471-11.576,28.088-10.087
		c21.548,3.021,33.084,18.249,36.729,39.919C533.736,508.513,531.899,520.94,525.247,530.706z"/>
	<path fill="#9B916B" d="M529.029,476.661c-3.916-7.626-8.602-13.065-15.664-16.856c1.896,0.179,12.963,0.133,20.39,0.133
		C531.325,463.951,529.177,468.594,529.029,476.661z"/>
	<path fill="#7D704E" d="M222.889,461.934c1.823-0.121,12.149,0.594,13.656,0.904c2.256,0.466,4.479,3.273,6.175,6.211
		c4.998-0.493,9.995-0.413,14.624,0.625c2.028-4.11,4.479-7.97,7.389-11.283c-4.304,0.822-39.188,2.23-41.855,2.399
		C222.91,461.001,222.898,461.726,222.889,461.934z"/>
	<path fill="#7D704E" d="M244.723,500.143c1.865,0.028,3.702,0.049,5.54,0.001c-0.055-1.918-0.03-3.816,0.077-5.653
		c-1.507-0.04-3.326-0.149-4.479-0.173c-0.308,1.757-0.805,3.811-1.439,5.875C244.523,500.174,244.623,500.141,244.723,500.143z"/>
	<path fill="#7D704E" d="M249.693,528.804c2.071-1.621,3.909-3.638,5.487-6.125c-2.404-4.753-3.934-11.07-4.583-17.52
		C246.722,512.52,246.487,521.34,249.693,528.804z"/>
	<path fill="#7D704E" d="M221.049,532.652c5.813-1.946,10.393-6.755,10.741-14.156c0.047-0.99,0.761-1.656,1.742-1.726
		c5.253-0.367,7.445-5.728,8.604-10.673c-1.465,2.993-3.21,5.223-5.053,5.345c-1.347,0.089-7.664,0.394-8.457,0.38
		c-0.108,1.128,0.417,10.248-1.129,10.321c-5.886,0.277-10.839-0.508-16.745-0.669C212.366,527.145,216.17,530.737,221.049,532.652z
		"/>
	<path fill="#7D704E" d="M323.292,464.043c1.507-2.982,3.344-5.814,5.752-8.518c-3.034,0.308-16.449,0.558-20.526,0.403
		c1.664,2.226,3.043,4.386,4.242,6.561C316.349,462.641,319.873,463.143,323.292,464.043z"/>
	<path fill="#7D704E" d="M322.617,511.649c-1.936-4.019-3.407-8.268-4.106-12.38c-0.269,3.181-1.285,7.723-2.643,12.11
		C318.043,512.024,320.347,512.056,322.617,511.649z"/>
	<path fill="#7D704E" d="M312.77,519.575c-0.56,1.19-1.126,2.253-1.686,3.104c5.364,5.472,12.557,3.93,18.635,0.133
		c-0.891-1.069-1.748-2.232-2.584-3.431C322.271,521.3,317.01,521.796,312.77,519.575z"/>
	<path fill="#7D704E" d="M413.109,464.501c8.042,0.605,17.896,2.794,25.479,5.55c6.286,2.284,12.457,5.943,18.055,10.424
		c2.448-8.641,7.85-17.701,17.563-22.677c-16.592,0.813-58.776-0.586-63.13-0.741c-1.304,1.926-2.817,4.359-4.09,7.298
		C409.024,464.325,411.063,464.348,413.109,464.501z"/>
	<path fill="#7D704E" d="M447.193,514.931c1.943,0.759,3.873,1.535,5.798,2.322c1.749-0.858,3.265-1.912,4.47-3.136
		c-0.616-1.656-1.081-3.478-1.415-5.297c-10.273-2.935-43.236-13.916-50.033-16.107c0.148,1.513,0.482,2.996,0.955,4.448
		C420.69,502.301,433.526,509.586,447.193,514.931z"/>
	<path fill="#7D704E" d="M531.129,465.19c0.762-1.961,1.665-3.666,2.626-5.251c-7.427,0-18.494,0.046-20.39-0.133
		c2.503,1.342,4.685,2.917,6.66,4.699C523.861,464.479,527.592,464.555,531.129,465.19z"/>
	<path fill="#D40000" d="M611.913,507.874c-3.157,12.309-13.977,22.106-25.855,25.988c-21.787,7.124-44.592-12.88-48.989-31.605
		c-0.072-2.319-1.424-13.021-3.989-17.837c-3.242-17.257,7.435-31.725,24.906-36.708c8.571-2.445,17.849-2.05,26.191,1.011
		c10.725,3.936,18.21,13.439,23.139,23.279C612.773,482.896,614.958,496.001,611.913,507.874z"/>
	<path fill="#AC0000" d="M309.209,473.086c-2.746-7.848-8.231-15.053-17.559-14.328c-7.217,0.561-14.56,4.483-19.908,9.738
		c-0.345,0.529-0.693,1.058-1.027,1.593c-0.013,0.11-0.038,0.221-0.101,0.335c-0.376,0.697-0.802,1.347-1.192,2.012
		c-0.229,0.496-0.442,0.999-0.61,1.523c-0.052,0.161-0.138,0.28-0.235,0.377c-0.047,0.126-0.096,0.249-0.144,0.373
		c-0.327,0.863-1.424,0.776-1.727,0.127c-6.409,13.863-9.497,31.626-1.348,45.01c10.105,16.598,33.233,12.028,41.546-3.879
		C313.526,503.293,313.896,486.489,309.209,473.086z"/>
	<path fill="#AC0000" d="M374.056,469.241c-2.695-3.511-5.889-6.481-9.448-8.574c2.759,2.21,5.022,4.947,6.566,7.7
		C372.177,468.641,373.126,468.936,374.056,469.241z"/>
	<path fill="#AC0000" d="M373.47,511.174c-7.022,9.365-20.48,10.01-29.573,3.077c-11.034-8.416-16.053-24.469-13.321-37.777
		c-2.247,8.527-1.813,18.485-0.135,25.155c3.911,15.534,21.071,28.17,37.071,20.02c13.98-7.119,17.605-22.745,14.122-36.701
		c-1.57-0.521-3.148-1.045-4.54-1.48C379.816,490.84,379.359,503.321,373.47,511.174z"/>
	<path fill="#AC0000" d="M486.174,536.401c9.588,3.418,21.295,2.053,28.797-4.88c6.341-5.857,8.407-13.485,9.02-21.733
		c0.613-8.249-0.935-17.701-5.598-24.357c-1.313-1.875-2.943-3.499-4.754-4.917c4.247,5.804,6.772,12.748,7.37,18.614
		c1.263,12.39-2.14,28.053-14.934,32.681c-12.93,4.68-28.629,0.099-35.245-18.629c-1.548-0.49-3.21-1.012-4.802-1.504
		C470.638,525.891,477.573,533.336,486.174,536.401z"/>
	<path fill="#AC0000" d="M465.77,498.49c1.458,0.497,2.669,0.906,3.169,1.046c-0.629-4.01-0.444-8.231,0.515-12.23
		C467.517,490.691,466.334,494.514,465.77,498.49z"/>
	<path fill="#AC0000" d="M552.825,469.026c-11.314,11.197-12.606,29.351-3.749,42.798c8.749,13.286,25.807,20.044,40.005,10.543
		c12.167-8.144,19.437-25.121,12.131-38.787C591.841,466.051,570.021,460.122,552.825,469.026z"/>
	<path fill="#D40000" d="M601.268,356.145c15.803,20.988,25.796,68.879,6.727,107.034c-5.536-8.305-13.064-15.096-22.021-18.63
		c-16.398-6.468-37.052-1.858-50.598,12.448c-6.708-0.26-21.201-0.268-27.817-0.669c-9.992-3.878-20.734-3.027-25.856-1.881
		c3.468-7.821,10.356-26.413,7.269-50.181c-1.069-8.224-4.124-25.596-13.303-36.004c5.787-0.629,13.009-1.548,19.498-1.699
		c-0.024,22.84,3.156,70.754,4.022,70.904c17.149,2.942,75.754-6.422,76.404-7.707c0.734-1.452,3.265-60.117,2.34-71.903
		C585.676,356.803,593.481,355.505,601.268,356.145z"/>
	<path fill="#AC0000" d="M487.555,450.198c4.682-12.895,6.672-31.384,3.545-48.93c-1.539-8.635-5.817-27.484-14.763-32.184
		c8.647,10.479,11.592,27.166,12.634,35.181c3.087,23.768-3.801,42.36-7.269,50.181c5.123-1.146,15.864-1.997,25.856,1.881
		c2.208,0.133,5.302,0.225,8.682,0.293C508.176,451.317,499.814,448.189,487.555,450.198z"/>
	<path fill="#AC0000" d="M580.252,357.534c-0.774,0.108-1.548,0.216-2.321,0.321c0.925,11.786-1.606,70.451-2.34,71.903
		c-0.511,1.01-36.803,7.007-60.649,8.102c9.563,0.838,27.311,1.695,65.581-3.936C581.206,420.569,580.092,369.905,580.252,357.534z"
		/>
	<path fill="#AC0000" d="M585.183,438.786c-8.848-1.403-18.022-0.821-26.404,2.46c-9.039,3.539-18.546,8.378-25.161,15.692
		c0.626,0.018,1.221,0.037,1.757,0.058c13.546-14.305,34.2-18.916,50.598-12.448c8.958,3.534,16.486,10.325,22.021,18.63
		c1.658-3.317,3.083-6.714,4.317-10.155C605.497,445.476,595.715,440.455,585.183,438.786z"/>
	<path fill="#525454" d="M589.805,281.295c1.476-0.127,4.189-0.154,5.661-0.212c-0.007,11.317,0.746,58.418,1.081,71.169
		c-2.456-0.018-4.044-0.232-6.505-0.007C589.254,334.86,590.065,297.671,589.805,281.295z"/>
	<path fill="#525454" d="M601.407,277.338c-9.992,0.802-121.89,12.648-125.852,13.108c0.648-1.653,1.514-7.657,1.972-9.208
		c9.65,0.329,107.947-9.787,125.956-14.073C603.346,269.13,602.218,274.93,601.407,277.338z"/>
	<path fill="#404242" d="M559.539,278.878c-16.546,0.434-32.726,2.994-49.032,5.617c-7.92,1.274-15.845,2.595-23.678,4.331
		c-0.919,0.204-1.828,0.441-2.728,0.702c19.97-2.128,69.733-7.383,97.849-10.265C574.49,278.86,567.018,278.679,559.539,278.878z"/>
	<path fill="#808282" d="M569.468,237.269c15.06,1.943,31.805,16.524,33.057,26.796c-9.132,3.768-108.184,13.795-124.539,13.808
		c-8.755-20.371-21.34-27.81-30.652-30.233C470.154,247.372,541.317,244.161,569.468,237.269z"/>
	<path fill="#6C6F6F" d="M550.327,267.848c-13.54,0.709-27.114,2.114-40.538,4.005c-6.122,0.863-12.236,1.843-18.28,3.147
		c-4.045,0.878-8.37,1.658-12.467,2.86c13.515-0.275,65.102-5.203,97.377-9.375C567.768,267.688,559.147,267.388,550.327,267.848z"
		/>
	<path fill="#6C6F6F" d="M569.903,237.335c-0.145-0.022-0.29-0.047-0.435-0.067c-23.032,5.641-74.841,8.814-105.425,9.927
		C501.25,253.127,560.428,244.813,569.903,237.335z"/>
	<path fill="#636964" d="M412.407,272.355c-1.459-1.1-2.749-1.84-3.558-3.847c1.863-4.878,10.901-18.648,25.251-19.53
		c17.42-1.07,31.192,9.498,41.455,29.965c-0.244,1.632-2.429,9.307-2.565,10.167c-7.158-15.785-17.42-25.685-28.088-30.366
		C435.089,254.435,419.382,257.271,412.407,272.355z"/>
	<path fill="#525954" d="M424.787,251.521c-8.924,4.408-14.519,13.271-15.938,16.987c0.809,2.007,2.099,2.747,3.558,3.847
		c1.141-2.469,2.534-4.578,4.079-6.412C418.229,260.757,421.115,255.634,424.787,251.521z"/>
	<path fill="#525954" d="M464.701,262.497c1.116,4.275,1.239,8.802,0.66,13.4c2.796,3.831,5.368,8.227,7.629,13.213
		c0.136-0.86,2.321-8.534,2.565-10.167C472.294,272.441,468.676,266.946,464.701,262.497z"/>
	<path fill="#990000" d="M464.804,364.561c-5.604-5.746-27.449-18.288-31.768-20.253c4.625,0.121,22.804-0.619,31.651-0.576
		C464.688,344.659,464.117,358.656,464.804,364.561z"/>
	<path fill="#740000" d="M581.975,347.955c-15.997,2.975-32.208,4.833-48.455,5.552c-18.968,0.836-37.903,0.265-56.781-1.757
		c-0.989-0.105-1.972-0.244-2.957-0.363c-0.133,4.523-0.326,9.97-0.44,13.443c3.23-0.401,109.992-11.863,114.325-12.347
		c-0.173-1.147-0.308-2.305-0.426-3.468C586.03,348.788,584.167,348.411,581.975,347.955z"/>
	<path fill="#740000" d="M464.524,350.134c-10.087-0.974-20.907-2.725-29.456-4.806c6.917,3.634,24.749,14.12,29.736,19.233
		C464.401,361.105,464.431,354.891,464.524,350.134z"/>
	<path fill="#525454" d="M420.767,265.654c1.451-1.165,2.981-2.22,4.615-3.123c-0.093,12.468,1.425,64.437,1.439,79.591
		c-1.163-0.264-2.309-0.44-3.416-0.466C422.86,321.377,421.272,286.968,420.767,265.654z"/>
	<path fill="#3E4040" d="M471.526,297.834c0.055-2.519,0.118-4.556,0.192-5.909c-1.698-1.769-3.101-3.893-4.406-6.104
		c-0.095,2.497-0.144,6.438-0.167,11.239C468.631,297.242,470.094,297.499,471.526,297.834z"/>
	<path fill="#3E4040" d="M558.574,295.551c-0.16-4.366-0.268-7.999-0.272-10.263c-1.921,0.206-3.841,0.416-5.762,0.622
		c0.145,2.5,0.292,5.897,0.447,9.828C554.844,295.569,556.707,295.488,558.574,295.551z"/>
	<path fill="#3E4040" d="M589.855,292.923c1.92-0.247,3.833-0.3,5.703,0.025c-0.058-5.182-0.093-9.384-0.092-11.865
		c-1.473,0.058-4.186,0.084-5.661,0.212C589.855,284.482,589.865,288.462,589.855,292.923z"/>
	<path fill="#3E4040" d="M425.484,273.505c-0.078-4.747-0.12-8.586-0.102-10.974c-1.634,0.903-3.165,1.958-4.615,3.123
		c0.071,2.991,0.164,6.261,0.272,9.692C422.494,274.653,423.979,274.036,425.484,273.505z"/>
	<path fill="#3E4040" d="M425.574,278.573c-0.021-1.095-0.041-2.17-0.059-3.198c-1.496,0.552-2.971,1.19-4.414,1.905
		c0.031,0.977,0.065,1.979,0.099,2.981C422.583,279.579,424.056,279.027,425.574,278.573z"/>
	<path fill="#D40000" d="M422.915,344.462c8.484,1.904,27.659,13.141,41.262,23.288c26.695,31.102,13.63,79.108,7.186,86.983
		c-12.559-0.108-52.573-1.405-54.269-1.446c3.284-2.931,8.454-16.782,8.287-37.588c-0.178-22.017-9.334-53.323-32.376-72.383
		C403.133,343.996,416.546,344.225,422.915,344.462z"/>
	<path fill="#AC0000" d="M408.522,360.754c11.736,17.649,16.728,38.791,16.859,54.945c0.167,20.806-5.003,34.657-8.287,37.588
		c0.361,0.009,2.467,0.075,5.663,0.173C441.751,426.693,431.208,385.994,408.522,360.754z"/>
	<path fill="#AC0000" d="M458.704,454.488c5.173,0.127,9.686,0.218,12.658,0.244c3.822-4.668,9.97-23.453,8.776-44.453
		C478.579,426.689,470.763,442.759,458.704,454.488z"/>
	<path fill="#D40000" d="M389.899,343.305c18.308,12.248,28.685,37.863,32.341,59.787c1.476,8.836,2.358,38.59-7.676,50.132
		c-1.618-0.044-3.236-0.089-4.853-0.136c9.186-9.758,8.457-30.603,8.235-39.174c-0.647-25.035-13.539-57.185-35.884-71.139
		C384.673,342.946,387.285,343.127,389.899,343.305z"/>
	<path fill="#D40000" d="M380.235,342.659c20.38,15.078,32.548,40.148,35.109,64.861c0.913,8.825,0.744,18.023-0.432,26.81
		c-0.606,4.517-2.191,13.237-7.599,18.695c-4.843-0.152-29.657-1.112-35.202-0.651c-1.649-1.544-3.465-2.934-5.481-4.202
		c-7.546-4.75-16.893-5.093-25.073-1.912c-3.092,1.202-6.194,3.369-8.722,5.374c-0.929,0.185-2.154,0.04-2.823,0
		c0.975-1.103,10.1-19.887,10.506-45.517c0.228-14.323-2.149-34.327-13.487-51.113c7.37-1.399,15.21-9.166,16.592-14.066
		C352.29,341.306,372.339,342.375,380.235,342.659z"/>
	<path fill="#AC0000" d="M357.53,440.608c-5.861-0.043-10.62,2.373-15.16,5.36c7.982-2.851,16.962-2.39,24.259,2.204
		c2.016,1.268,3.832,2.658,5.481,4.202c0.716-0.059,1.758-0.095,3.033-0.111C371.369,445.867,365.481,440.666,357.53,440.608z"/>
	<path fill="#AC0000" d="M343.972,404.068c0.662-15.267-2.725-36.186-13.679-47.823c6.372-1.797,14.046-7.962,15.546-15.21
		c-0.792-0.037-1.547-0.071-2.216-0.098c-1.382,4.899-9.223,12.667-16.592,14.066c11.338,16.786,13.715,36.79,13.487,51.113
		c-0.406,25.63-9.531,44.414-10.506,45.517c0.441,0.027,1.128,0.09,1.809,0.083C340.734,439.81,343.068,424.886,343.972,404.068z"/>
	<path fill="#AC0000" d="M415.344,407.52c-0.647-6.246-1.912-12.516-3.765-18.641c1.166,8.924,1.163,18.047,0.722,26.476
		c-0.617,11.785-2.149,27.083-9.422,37.518c1.977,0.068,3.551,0.123,4.434,0.151c5.408-5.459,6.993-14.178,7.599-18.695
		C416.088,425.543,416.257,416.344,415.344,407.52z"/>
	<path fill="#D40000" d="M311.978,284.94c7.06,0.545,11.965,5.169,13.81,11.958c-4.109,0.108-23.994-0.107-29.87-0.09
		C297.254,288.83,303.307,284.27,311.978,284.94z"/>
	<path fill="#AE0000" d="M306.709,294.262c-2.763-0.296-6.468-0.555-9.476-1.727c-0.607,1.286-1.054,2.711-1.316,4.273
		c5.876-0.016,25.762,0.198,29.87,0.09c-0.287-1.061-0.66-2.065-1.095-3.014C318.942,295.048,312.919,294.928,306.709,294.262z"/>
	<path fill="#990000" d="M295.981,307.466c-1.409-2.174-2.507-5.283-3.389-8.435c5.9-0.731,30.52-0.265,38.203,0.201
		c-0.157,2.796-1.097,5.749-2.319,8.123C320.915,307.311,302.567,307.466,295.981,307.466z"/>
	<path fill="#7C0000" d="M320.675,305.738c-8.502-0.663-17.668,0.261-26.216-1.217c0.463,1.089,0.968,2.09,1.522,2.945
		c6.587,0,24.934-0.155,32.495-0.111c0.222-0.432,0.42-0.9,0.622-1.366C326.294,306.016,323.486,305.957,320.675,305.738z"/>
	<path fill="#717373" d="M301.617,309.485c3.007-0.034,17.742,0.44,22.11,0.333c-0.731,3.611-1.329,22.172,0.059,27.083
		c-3.668-0.087-18.214-0.459-21.814-0.551C302.914,332.315,302.428,314.093,301.617,309.485z"/>
	<path fill="#555757" d="M302.237,334.444c-0.072,0.786-0.158,1.446-0.265,1.906c3.6,0.092,18.146,0.463,21.814,0.551
		c-0.086-0.305-0.163-0.676-0.234-1.079C316.38,336.407,309.152,336.274,302.237,334.444z"/>
	<path fill="#555757" d="M317.83,312.564c1.818,0.391,3.65,0.878,5.456,1.465c0.129-1.92,0.281-3.422,0.441-4.211
		c-4.368,0.107-19.102-0.367-22.11-0.333c0.133,0.753,0.254,1.899,0.366,3.261C307.095,311.64,312.33,311.383,317.83,312.564z"/>
	<path fill="#8B9E90" d="M333.008,340.498c-3.868,5.721-11.465,8.447-19.777,8.292c-7.939-0.15-17.563-2.33-17.175-9.081
		C301.669,339.788,326.305,340.254,333.008,340.498z"/>
	<path fill="#697770" d="M318.752,346.37c-7.044,1.026-17.609,0.049-22.668-5.807c0.45,6.073,9.556,8.084,17.146,8.227
		c6.595,0.123,12.735-1.575,16.924-5.138C326.451,344.982,322.528,345.821,318.752,346.37z"/>
	<path fill="#A1B1A5" d="M293.272,339.671c-0.533,8.24,10.47,11.167,17.294,11.449c11.29,0.466,20.473-2.441,24.813-10.533
		c1.804,0.068,3.609,0.155,5.414,0.229c-4.911,11.133-17.482,14.328-28.973,14.187c-5.534-0.07-12.21-1.199-17.064-3.909
		c-4.963-2.768-6.208-6.606-6.165-11.471C290.152,339.638,291.712,339.652,293.272,339.671z"/>
	<path fill="#8C9989" d="M317.141,353.138c-8.895,0.483-26.127-2.577-28.543-12.688c0.107,4.473,1.48,8.034,6.157,10.644
		c4.855,2.71,11.53,3.839,17.064,3.909c9.766,0.12,20.294-2.191,26.253-9.714C332.23,349.872,325.009,352.714,317.141,353.138z"/>
	<path fill="#D40000" d="M286.718,339.603c-1.713,10.431,9.732,15.673,18.359,16.955c6.273,0.932,11.644,0.462,16.033-0.366
		c5.012,7.615,8.739,15.408,10.996,24.298c2.361,9.304,3.117,18.993,2.799,28.562c-0.302,9.098-4.109,33.725-13.805,42.986
		c-3.799,0.527-10.617,1.106-15.824,0.545c-14.378-11.567-32.832-1.895-37.675,2.783c-5.18-0.04-41.671,2.112-46.209,2.37
		c8.277-3.839,15.216-10.537,20.18-17.989c12.933-19.413,14.242-46.236,8.241-68.155c-2.709-9.896-8.031-20.285-16.885-26.1
		c-2.898-1.906-5.984-3.314-9.165-4.255c2.378-0.141,4.753-0.29,7.112-0.408c8.9-0.446,17.806-0.792,26.712-1.038
		C267.299,339.521,277.008,339.515,286.718,339.603z"/>
	<path fill="#AC0000" d="M308.363,446.172c7.054-3.293,10.242-12.147,12.193-19.153c1.983-7.128,3.281-14.351,3.117-21.776
		c-0.333-15.075-6.043-34.838-22.949-38.334c-0.098,0.346-0.374,0.628-0.848,0.614c-6.003-0.164-11.948,0.771-17.948,0.807
		c-3.443,0.019-8.534-0.33-11.797,1.656c0.209,0.314,0.226,0.715-0.169,1.023c-11.398,8.909-12.471,26.023-12.593,39.781
		c0.411,0.05,0.776,0.327,0.74,0.861c-0.409,6.153-0.776,12.578,0.543,18.654c1.351,6.228,4.628,14.337,11.659,15.967
		c6.095,1.415,12.292,0.28,18.436-0.112C295.294,445.741,301.821,446.534,308.363,446.172z"/>
	<path fill="#AC0000" d="M286.566,341.297c-1.314,7.72,5.213,14.143,12.884,16.219c7.54,2.042,15.065,1.795,22.524,0.035
		c-0.29-0.453-0.567-0.909-0.864-1.36c-4.389,0.827-9.76,1.298-16.033,0.366C296.932,355.348,286.29,350.602,286.566,341.297z"/>
	<path fill="#AC0000" d="M231.433,451.191c6.624-3.814,12.587-8.512,16.918-15.34c9.494-14.958,13.87-31.915,13.971-49.473
		c0.002-0.123,0.031-0.225,0.068-0.324c-0.881-9.93-3.197-20.21-9.821-27.995c-6.447-7.578-16.043-13.922-26.139-15.904
		c2.24,0.864,4.418,1.967,6.498,3.335c8.854,5.815,14.177,16.204,16.885,26.1c6,21.919,4.692,48.742-8.241,68.155
		C238.783,443.931,235.355,447.855,231.433,451.191z"/>
	<path fill="#AC0000" d="M332.106,380.49c-0.454-1.794-0.987-3.533-1.56-5.244c0.368,1.332,0.694,2.691,0.946,4.1
		c1.735,9.701,1.755,19.56,0.728,29.346c-1.534,14.627-4.584,31.648-14.023,43.684c1.081-0.107,2.068-0.222,2.902-0.339
		c9.696-9.261,13.503-33.887,13.805-42.986C335.223,399.483,334.467,389.794,332.106,380.49z"/>
	<path fill="#AC0000" d="M290.469,442.319c-10.772,0.623-20.668,5.855-28.324,13.213c2.581-0.109,4.526-0.175,5.456-0.167
		c4.843-4.677,23.297-14.35,37.675-2.783c2.182,0.234,4.643,0.264,7.05,0.187C307.351,446.027,299.897,441.773,290.469,442.319z"/>
	<path fill="#525454" d="M241.814,282.828c5.805,1.196,15.325,1.715,21.184,0.679c-0.262,12.318-0.629,44.273,0.57,52.47
		c-1.488,0.025-2.975,0.047-4.466,0.087c-5.719,0.151-11.612,0.204-17.542,0.361C242.452,328.561,242.829,292.557,241.814,282.828z"
		/>
	<path fill="#3F4141" d="M260.696,290.073c0.718,0.127,1.446,0.29,2.177,0.472c0.041-2.715,0.084-5.117,0.124-7.038
		c-5.858,1.036-15.378,0.517-21.184-0.679c0.163,1.569,0.29,3.829,0.385,6.536C248.33,288.608,254.691,289.012,260.696,290.073z"/>
	<path fill="#3F4141" d="M262.799,296.531c0.015-1.419,0.031-2.796,0.049-4.112c-1.716-0.46-3.415-0.799-5.052-0.972
		c-5.163-0.546-10.439-0.798-15.538-0.224c0.024,0.872,0.044,1.778,0.064,2.716C249.398,293.133,256.083,294.31,262.799,296.531z"/>
	<path fill="#3F4141" d="M259.623,335.972c-6.009-0.408-11.899-1.632-17.812-2.719c-0.079,1.301-0.163,2.383-0.252,3.173
		c5.931-0.157,11.823-0.21,17.542-0.361c0.666-0.018,1.332-0.027,1.997-0.04C260.607,336.008,260.117,336.008,259.623,335.972z"/>
	<path fill="#525454" d="M282.038,264.438c0.107,2.487-0.977,9.223-1.778,10.364c-1.674,2.384-13.601,6.425-28.874,6.218
		c-10.346-0.139-22.701-4.767-24.538-8.756c-0.866-1.881-1.511-5.961-1.511-8.552c4.917,6.219,21.471,8.477,30.233,7.982
		C267.598,271.011,277.435,269.516,282.038,264.438z"/>
	<path fill="#808282" d="M268.856,249.675c5.858,0.46,13.25,4.716,12.765,9.892c-0.888,9.459-26.887,10.882-43.036,8.179
		c-4.081-0.682-13.771-4.449-12.738-9.276c1.236-5.783,10.891-9.094,15.183-10.097c0.077,1.548,0.209,2.384,0.523,3.628
		c-3.138,0.311-9.297,3.44-6.286,7.112c2.729,3.324,8.839,3.604,12.791,4.061c4.014,0.463,12.43,1.264,20.91-2.364
		c1.741-0.744,3.592-3.018,3.045-5.105c-0.523-1.998-2.126-2.752-3.91-3.055C268.421,251.666,268.672,250.671,268.856,249.675z"/>
	<path fill="#727474" d="M238.38,252.933c1.113-0.505,2.266-0.842,3.172-0.932c-0.314-1.243-0.446-2.08-0.523-3.628
		c-1.218,0.284-2.876,0.771-4.642,1.434C236.992,250.889,237.688,251.91,238.38,252.933z"/>
	<path fill="#727474" d="M271.57,254.753c1.202-1.064,2.337-2.2,3.484-3.317c-1.997-0.95-4.174-1.601-6.199-1.761
		c-0.184,0.996-0.435,1.991-0.755,2.975C269.55,252.896,270.845,253.483,271.57,254.753z"/>
	<path fill="#525454" d="M263.812,261.032c1.516-2.096,2.885-4.56,3.863-7.152c1.699,0.697,3.277,1.862,2.229,3.763
		C268.78,259.681,265.965,260.536,263.812,261.032z"/>
	<path fill="#3E4040" d="M238.019,259.487c2.512,1.419,6.317,1.702,7.895,1.906c-1.027-1.196-1.871-2.601-2.567-4.106
		C241.568,258.005,239.803,258.755,238.019,259.487z"/>
	<path fill="#3E4040" d="M266.15,257.215c-0.711,1.357-1.495,2.65-2.339,3.817c2.001-0.462,4.556-1.246,5.813-2.988
		C268.489,257.7,267.333,257.42,266.15,257.215z"/>
	<path fill="#FFFFFF" d="M652.07,131.571c-5.149,3.151-12.03,2.322-16.53-1.243c0.94-4.599-1.437-7.39-1.385-7.013
		c0.26,1.895,1.723,6.18-1.966,10.482c-7.06,8.237-21.955,4.041-26.303,0.826c1.932-5.022,1.166-7.079,1.079-6.712
		c-5.423,22.729-32.776,23.552-49.048,17.545c3.062-8.713,2.532-13.251,2.415-12.739c-2.18,9.467-5.938,18.524-12.612,25.736
		c-6.798,7.346-18.157,14.083-29.16,16.941c-11.341,2.946-28.76,1.901-39.58-0.897c-6.184-1.597-13.956-4.969-20.352-12.686
		c-0.195-0.235,0.595,3.677,4.874,7.293c-3.085,13.777-9.199,26.217-20.238,35.47c-8.91,7.466-19.973,11.999-31.37,14.128
		c-23.035,4.301-48.65-1.612-66.653-16.662c-1.992-1.664-4.008-3.443-5.841-5.314c-0.136-4.93-1.572-9.685-3.23-14.446
		c-0.118-0.34-0.702-0.175-0.613,0.176c2.629,10.288,3.181,19.933-1.898,29.469c-4.175,7.84-10.943,14.296-18.389,19.089
		c-14.31,9.208-35.117,12.565-45.884-3.588c-0.218-0.326-0.218,1.564,2.324,4.537c1.539,3.764-2.96,9.983-10.472,10.321
		c-0.191,0.007-0.244,0.24-0.078,0.311c1.732,0.736,3.967,0.437,6.072-0.481c0.891,5.947-0.992,12.787-4.902,19.217
		c-4.55,0.845-10.84,0.929-14.664,0.271c-1.138-2.121-2.485-4.075-3.403-6.341c-1.117-2.755-1.616-5.727-1.67-8.687
		c-0.101-5.505,1.813-10.861,4.856-15.41c7.023-10.499,18.478-14.27,30.507-11.603c0.465,0.104-1.255-1.761-8.896-2.211
		c-4.926-9.639-10.121-19.357-11.708-30.175c-1.613-11.003,1.588-23.154,8.509-31.923c10.454-13.247,34.693-17.566,52.262-8.983
		c0.529,0.258-0.935-1.742-5.759-3.523c0.893-26.288,16.04-49.273,37.89-63.718c10.755-7.111,23.226-11.8,36.115-13.046
		c14.405-1.394,29.363,1.772,42.351,7.916c5.325,2.519,15.996,9.375,19.734,12.279c0.463,0.358-0.286-1.452-3.003-3.663
		c13.443-19.512,40.308-24.042,62.55-22.227c11.456,0.935,22.538,4.4,32.298,10.438c4.973,3.076,9.461,6.857,13.548,11.011
		c4.723,4.799,9.116,10.981,11.806,17.186c-6.437,5.373-8.459,9.428-8.28,9.257c7.757-7.494,14.936-13.391,24.785-16.749
		c4.719-1.607,9.878-2.026,14.674-0.531c5.105,1.59,8.89,5.749,12.039,9.852c-8.796,4.913-9.479,8.37-9.36,8.234
		c4.226-4.774,10.994-8.079,17.995-7.923c6.52,0.147,11.689,3.446,15.729,8.179c-2.718,2.537-3.051,4.877-2.827,4.545
		c3.875-5.741,10.988-7.71,18.491-5.651c5.482,1.504,10.219,6.076,10.025,11.977C658.765,124.943,656.077,129.117,652.07,131.571z"
		/>
	<path d="M760.007,329.57c-1.117-17.272-4.542-34.183-11.446-50.121c-7.981-18.42-20.805-33.042-34.064-47.848
		c-1.026-1.144-2.601,0.517-1.661,1.661c15.074,18.333,29.191,39.269,36.177,62.079c7.953,25.969,8.412,55.377,3.055,81.845
		c-5.768,28.504-19.418,54.89-36.618,78.235c-17.36,23.561-38.696,44.67-63.716,60.17c-45.227,28.014-99.217,33.833-151.436,33.593
		c-27.374-0.127-54.713-1.813-82.052-2.981c-33.836-1.446-67.71-2.75-101.561-3.684c-42.86-1.183-85.63-0.881-128.111,5.118
		c-0.66,0.092-0.494,1.06,0.157,1.002c68.633-6.086,137.708-1.582,206.403,1.017c55.059,2.082,110.944,7.67,165.87,0.969
		c25.396-3.098,50.366-9.462,73.586-20.212c25.096-11.617,47.179-28.745,65.753-49.001c19.049-20.773,35.351-43.914,46.374-69.868
		C757.809,385.424,761.829,357.757,760.007,329.57z"/>
	<path d="M735.839,304.429c-3.459-27.1-12.381-54.285-32.712-73.386c-0.337-0.317-0.918,0.212-0.604,0.555
		c18.713,20.414,25.918,47.041,29.339,73.814c3.391,26.549-1.273,53.771-10.533,78.726c-8.688,23.414-22.206,45.644-40.665,62.735
		c-16.576,15.347-40.373,32.347-64.222,31.636c-1.495-0.044-1.455,2.146-0.002,2.272c24.807,2.177,48.296-13.579,66.027-29.28
		c19.964-17.677,33.992-41.138,43.403-65.786C735.719,359.919,739.332,331.797,735.839,304.429z"/>
	<path d="M308.659,481.923c-0.184-9.541-5.349-22.181-15.097-26.057c-6.131-2.439-13.448-0.266-18.667,3.539
		c-5.22,3.805-11.792,13.118-14.174,21.583c-3.534,12.572-3.144,29.389,6.382,39.428c4.436,4.676,10.534,6.578,16.9,6.064
		C293.589,525.703,309.328,516.793,308.659,481.923z"/>
	<path fill="#C5BD96" d="M303.414,499.919c-1.622,8.932-5.977,17.65-14.869,21.209c-6.092,2.441-13.376,1.467-18.333-2.803
		c-8.736-7.525-9.312-22.187-7.72-32.588c1.289-8.432,6.017-16.657,12.133-22.453c4.998-4.738,10.124-6.263,16.499-4.204
		c5.331,1.723,8.679,7.367,10.817,12.106C305.823,479.799,305.061,490.857,303.414,499.919z"/>
	<path d="M596.541,476.006c-7.128-12.534-22.729-23.83-37.527-16.961c-14.32,6.644-16.78,22.98-12.699,35.406
		c7.291,22.208,25.251,30.769,39.16,24.213C602.387,510.695,604.73,490.404,596.541,476.006z"/>
	<path fill="#C5BD96" d="M590.9,510.058c-18.521,21.29-50.933-10.522-41.15-36.454c2.675-7.09,10.536-12.861,18.555-12.984
		c7.207-0.111,13.906,4.215,18.804,9.091C598.075,480.629,601.558,497.803,590.9,510.058z"/>
	<path fill="#A29571" d="M355.061,464.106c3.731,0.485,7.313,1.622,11.116,2.521c-4.793-6.97-11.279-8.596-16.785-7.766
		C351.499,460.194,353.401,462.039,355.061,464.106z"/>
	<path fill="#A29571" d="M373.877,482.461c-2.555-0.992-6.948-2.359-11.233-3.668c2.669,8.035,3.696,16.965,0.197,24.801
		c-1.982,4.443-5.312,8.465-9.547,10.851c7.096,1.476,14.857-0.534,18.824-7.149C376.417,500.125,376.71,490.359,373.877,482.461z"
		/>
	<path fill="#A29571" d="M492.106,520.364c-0.068-0.194-0.145-0.377-0.201-0.585c-5.884-1.724-11.702-3.662-17.544-5.542
		c0.185,0.521,0.437,1.11,0.75,1.747C479.853,517.588,487.664,519.722,492.106,520.364z"/>
	<path fill="#A29571" d="M517.659,499.233c-1.1-7.993-4.192-14.271-8.348-18.815c0.804,1.428,1.508,2.937,2.075,4.541
		c3.355,9.502,4.223,23.404-4.027,30.871c0.394,3.048-0.195,6.242-2.71,7.979c-3.02,2.087-7.916,2.339-10.802-0.577
		c-4.067,1.212-8.32,1.637-12.423,0.912c5.411,4.8,13.737,8.28,24.888,4.137C516.232,524.594,519.04,509.274,517.659,499.233z"/>
	<path fill="#A29571" d="M301.94,471.186c-2.137-4.739-5.485-10.383-10.817-12.106c-2.457-0.793-4.727-1.042-6.877-0.792
		c3.7,2.133,6.957,5.482,9.32,9.573c7.321,12.673,4.01,29.428-4.896,40.726c-8.018,10.173-19.341,7.298-25.392-1.992
		c1.267,4.563,3.438,8.721,6.933,11.73c4.957,4.27,12.241,5.244,18.333,2.803c8.892-3.558,13.247-12.276,14.869-21.209
		C305.061,490.857,305.823,479.799,301.94,471.186z"/>
	<path fill="#A29571" d="M587.108,469.712c-0.721-0.718-1.485-1.419-2.278-2.1c3.993,4.693,6.559,10.3,5.986,16.749
		c-0.955,10.741-8.823,23.851-21.428,23.01c-8.08-0.539-14.109-4.695-18.61-10.59c7.29,16.99,27.119,28.226,40.122,13.278
		C601.558,497.803,598.075,480.629,587.108,469.712z"/>
	<path d="M313.076,377.532c-2.251-6.089-7.842-13.047-12.545-13.358c-2.978-0.197-22.479,0.038-27.129,2.02
		c-16.78,7.144-21.327,27.185-18.817,48.313c1.077,9.084,6.585,22.215,15.367,23.925c8.783,1.708,24.037,0.474,27.443-0.155
		c11.761-2.176,19.675-17.103,20.188-30.921C318.146,392.138,316.498,386.795,313.076,377.532z"/>
	<path fill="#C5C9C7" d="M274.812,434.859c-9.807,0.82-15.053-9.944-16.776-19c-1.818-9.556-2.356-22.326,3.29-33.667
		c5.645-11.341,12.859-16.776,21.798-12.427c8.937,4.35,13.801,17.09,13.016,32.003C295.356,416.682,288.305,433.73,274.812,434.859
		z"/>
	<path fill="#ACB3B0" d="M138.37,391.315c1.821-5.454,3.792-10.846,6.072-16.11C140.414,379.902,138.832,385.654,138.37,391.315z"/>
	<path fill="#ACB3B0" d="M166.933,370.767c-0.673,1.501-1.292,3.037-1.86,4.602c2.163,0.937,3.968,2.454,4.858,4.508
		c0.49-1.487,1.03-2.956,1.597-4.415C170.296,373.474,168.717,371.921,166.933,370.767z"/>
	<path fill="#ACB3B0" d="M159.358,419.173c0.087,2.27,0.225,4.54,0.392,6.806c2.521-0.397,4.6-1.508,5.805-2.731
		c-0.302-1.96-0.518-3.937-0.653-5.923C163.314,418.557,161.356,419.14,159.358,419.173z"/>
	<path fill="#ACB3B0" d="M274.418,381.43c3.452-3.614,6.949-7.173,10.578-10.575c-0.605-0.401-1.224-0.774-1.872-1.089
		c-8.939-4.349-16.153,1.086-21.798,12.427c-2.88,5.784-4.146,11.94-4.458,17.852C262.571,393.707,268.536,387.587,274.418,381.43z"
		/>
	<path fill="#ACB3B0" d="M285.504,411.747c-7.041,6.209-13.493,12.979-19.974,19.727c2.47,2.319,5.543,3.697,9.282,3.385
		c13.225-1.107,20.257-17.507,21.269-32.202C292.553,405.675,288.994,408.667,285.504,411.747z"/>
	<path fill="#9DA5A1" d="M313.982,404.867c-0.015,12.353-7.806,28.281-17.204,30.348c-2.343,0.518-12.905,0.203-14.051,0.302
		c9.804-4.856,15.293-14.332,16.548-33.751c0.782-12.1-2.124-28.321-14.255-34.251c1.088-0.025,13.26-0.713,15.196-0.389
		C302.153,367.448,314.016,374.89,313.982,404.867z"/>
	<path fill="#79847F" d="M169.774,369.559c0.98,0.804,1.878,1.782,2.797,3.006c0.619-1.485,1.282-2.966,1.986-4.437
		c-1.177-0.361-2.325-0.602-3.458-0.793C170.671,368.083,170.223,368.822,169.774,369.559z"/>
	<path fill="#79847F" d="M304.009,369.747c-1.758-1.766-3.218-2.525-3.792-2.621c-1.936-0.324-14.109,0.364-15.196,0.389
		c1.28,0.626,2.438,1.385,3.509,2.232H304.009z"/>
	<path fill="#79847F" d="M307.549,424.232c-4.501-0.04-9.018,0.129-13.533,0.215c-2.74,5.205-6.495,8.697-11.289,11.071
		c1.146-0.099,11.708,0.216,14.051-0.302c4.602-1.012,8.813-5.358,11.919-10.974C308.315,424.239,307.931,424.235,307.549,424.232z"
		/>
	<path d="M274.368,375.271c-11.003,1.952-13.51,16.709-12.101,29.604c1.276,11.659,4.868,18.882,12.075,19.573
		c9.723,0.933,16.153-11.807,15.996-26.038C290.222,387.936,285.371,373.32,274.368,375.271z"/>
	<path fill="#FFFFFF" d="M279.187,419.068c-10.697,7.034-14.372-10.29-14.567-19.009c-0.157-6.991,0.799-18.857,7.614-20.457
		c-6.202,12.689,5.089,28.691,14.353,23.285C286.059,409.174,284.137,415.814,279.187,419.068z"/>
	<path d="M242.418,392.286c-3.276-4.101-7.484-4.659-12.347-2.895c-5.619,2.04-8.419,7.429-10.669,12.491
		c-0.263,0.594,0.589,1.11,0.99,0.588c2.343-3.045,5.339-5.669,9.132-7.503c2.569,7.794,2.195,14.576-2.407,21.786
		c-3.459,5.419-8.545,9.557-14.299,12.386c-14.417,7.09-35.385-2.044-31.185-24.298c0.072-0.382-0.463-0.712-0.638-0.327
		c-5.758,12.639-0.299,26.37,7.417,32.976c7.458,6.382,18.139,7.424,27.126,4.673c10.414-3.188,18.756-11.484,22.581-21.593
		c3.099-8.198,0.157-22.682-4.929-26.891c2.42-0.916,5.843-0.582,9.005,0.636C243.146,394.68,243.037,393.062,242.418,392.286z"/>
	<path fill="#FFFFFF" d="M186.437,428.441c6.329,6.156,15.276,7.019,23.463,4.698c8.013-2.27,15-8.138,19.478-14.969
		c1.869-2.849,3.065-5.738,3.697-8.666c-0.006,0.326-0.015,0.651-0.035,0.981c-0.426,6.96-3.871,13.186-8.722,18.095
		c-5.405,5.466-13.497,9.496-21.268,9.325c-6.739-0.146-12.282-4.434-16.634-9.486C186.425,428.426,186.431,428.434,186.437,428.441
		z"/>
	<path fill="#FFFFFF" d="M234.825,399.129c2.824,6.37,3.891,14.064,0.941,21.595c-3.348,8.551-11.403,15.994-19.757,19.262
		c-5.592,2.186-16.623,2.176-19.132-0.777c9.251,1.708,18.034-0.466,26.188-7.145C232.504,424.332,236.865,413.887,234.825,399.129z
		"/>
	<ellipse fill="#FFFFFF" cx="281.703" cy="384.704" rx="3.502" ry="3.469"/>
	<ellipse fill="#FFFFFF" cx="275.767" cy="380.633" rx="1.522" ry="1.507"/>
	<ellipse fill="#FFFFFF" cx="165.099" cy="381.99" rx="2.892" ry="2.864"/>
	<ellipse fill="#FFFFFF" cx="159.772" cy="379.125" rx="1.218" ry="1.208"/>
	<path fill="#E0EBEF" d="M372.737,196.442c12.591-10.503,84.068-35.004,80.414-16.899c-3.654,18.105-29.215,35.002-56.046,35.002
		C377.003,214.546,361.162,206.097,372.737,196.442z"/>
	<path fill="#E0EBEF" d="M483.381,160.059c12.328-12.574,72.721-28.794,66.629-12.501c-6.092,16.295-24.977,23.537-45.08,24.141
		C484.827,172.301,478.063,165.483,483.381,160.059z"/>
	<path fill="#E0EBEF" d="M579.859,134.885c9.442-2.751,24.367-4.226,18.885,3.016c-5.482,7.242-18.274,9.053-24.976,7.846
		C567.067,144.542,569.503,137.902,579.859,134.885z"/>
	<path fill="#E0EBEF" d="M325.832,135.489c-4.434-9.581,2.436-28.969,14.011-33.796C351.417,96.865,332.532,149.972,325.832,135.489
		z"/>
	<path fill="#E0EBEF" d="M458.023,84.191c0.268-5.556,9.747-14.484,18.275-13.879C484.827,70.915,457.413,96.865,458.023,84.191z"/>
	<path fill="#E0EBEF" d="M271.005,208.513c-7.547-4.205-9.748-21.727-3.046-27.761C274.66,174.716,280.75,213.943,271.005,208.513z"
		/>
	<path fill="#E0EBEF" d="M305.729,214.546c8.529-7.242,24.976-13.881,20.711-3.62c-4.264,10.259-15.23,19.917-29.241,21.725
		C283.188,234.464,297.2,221.788,305.729,214.546z"/>
	<path fill="#E0EBEF" d="M616.334,135.87c4.109,1.649,13.657-0.357,14.504-5.864C631.685,124.496,606.784,132.041,616.334,135.87z"
		/>
	<path fill="#E0EBEF" d="M651.265,129.046c-3.626,1.077,1.571-18.08,4.23-12.572C658.155,121.982,654.425,128.108,651.265,129.046z"
		/>
	<path fill="#E0EBEF" d="M299.9,145.094c3.202-1.71,11.724,0.716,12.087,4.428C312.281,152.537,293.616,148.445,299.9,145.094z"/>
	<path fill="#E0EBEF" d="M263.277,240.886c3.006-0.472,7.615-3.352,7.131-6.945C269.925,230.349,255.662,242.083,263.277,240.886z"
		/>
	<path fill="#E0EBEF" d="M250.224,260.284c2.176,0.358,9.064,0.598,10.877-0.718c2.42-1.76,2.417-7.186-2.296-6.826
		C253.199,253.166,248.048,259.923,250.224,260.284z"/>
	<path fill="#E0EBEF" d="M568.292,106.201c-0.469-4.633,6.883-9.937,11.456-8.425C583.393,98.978,568.64,109.637,568.292,106.201z"
		/>
	<path fill="#939595" d="M498.158,251.376c12.38,0.246,45.046-1.313,58.958-6.125c13.912-4.812-3.131,9.941-22.081,12.251
		C506.33,261.001,476.076,250.939,498.158,251.376z"/>
	<path fill="#939595" d="M585.602,247.657c5.556,1.066,10.962,6.791,11.261,10.938C597.306,264.72,578.757,246.343,585.602,247.657z
		"/>
	<path fill="#FF7162" d="M310.242,286.597c4.236-1.399,9.936,1.75,10.82,5.469C321.945,295.784,304.28,288.565,310.242,286.597z"/>
	<path fill="#C24A38" d="M304.28,299.94c4.418-0.175,17.224-0.219,20.537-0.219c3.312,0-4.859,3.064-9.055,3.064
		C311.566,302.785,298.76,300.158,304.28,299.94z"/>
	<path fill="#6B6D6D" d="M241.346,272.159c4.924,1.044,16.782,1.31,24.29-0.221s-4.62,5.607-13.471,5.25
		C241.346,276.751,235.163,270.845,241.346,272.159z"/>
	<path fill="#9C9F9E" d="M228.318,256.187c-1.906,1.889-1.545,4.813,1.545,7.22c3.092,2.407,7.288,3.501,11.262,3.72
		c3.974,0.217-5.3-1.97-8.832-5.471C228.759,258.157,229.864,254.657,228.318,256.187z"/>
	<path fill="#6B6D6D" d="M243.333,304.753c0,5.254-0.219,15.313-0.219,19.031c0,3.718,3.754-6.78,3.973-10.282
		C247.308,310.005,243.333,299.065,243.333,304.753z"/>
	<path fill="#DCDFDD" d="M178.193,378.255c2.389-10.126,15.677-28.22,29.148-30.189
		C220.811,346.099,174.217,395.099,178.193,378.255z"/>
	<path fill="#DCDFDD" d="M220.811,348.066c4.896-2.053,11.702,4.158,12.365,9.406C233.839,362.722,215.068,350.473,220.811,348.066z
		"/>
	<path fill="#D5CFA9" d="M266.751,492.427c-1.186-8.489,6.012-22.344,13.129-23.162
		C295.347,467.481,269.088,509.176,266.751,492.427z"/>
	<path fill="#D5CFA9" d="M336.896,485.3c-1.129,3.135,0.002,10.869,3.418,13.719C343.729,501.87,339.594,477.815,336.896,485.3z"/>
	<path fill="#D5CFA9" d="M477.547,493.139c-1.399-7.183,3.777-15.858,13.669-15.503
		C501.108,477.993,479.526,503.294,477.547,493.139z"/>
	<path fill="#D5CFA9" d="M553.268,484.229c-0.817-6.742,5.037-19.064,15.469-17.283
		C579.168,468.727,554.885,497.591,553.268,484.229z"/>
	<path fill="#D5CFA9" d="M559.563,488.685c0,0,3.777-1.96,8.274-7.128c3.974-4.568,5.576-8.909,5.576-8.909s1.079,6.949-3.058,11.58
		C566.217,488.861,559.563,488.685,559.563,488.685z"/>
	<path fill="#D5CFA9" d="M501.289,479.775c3.138-0.805,5.934,3.384,5.755,6.236C506.864,488.863,496.432,481.021,501.289,479.775z"
		/>
	<path fill="#8B8D8D" d="M303.213,318.074c0.225,3.136,0.145,8.709,0,10.707c-0.145,1.998,2.882-2.857,2.882-5.71
		C306.094,320.216,302.925,314.078,303.213,318.074z"/>
	<path fill="#A5B4A9" d="M308.112,340.917c3.743,0.138,12.68,0.142,15.707,0.142c3.025,0-5.296,2.571-7.783,2.571
		C310.849,343.63,304.221,340.774,308.112,340.917z"/>
	<path fill="#FF6552" d="M245.565,342.335c7.589-0.327,23.999-0.752,32.082-0.5c6.822,0.212-8.589,6.006-12.378,6.006
		C261.479,347.841,233.946,342.835,245.565,342.335z"/>
	<path fill="#FF6552" d="M351.281,342.708c5.275,0.551,20.461,1.126,24.25,1.502c3.789,0.375-3.41,6.006-9.852,5.254
		C359.238,348.714,344.082,341.958,351.281,342.708z"/>
	<path fill="#FF6552" d="M518.76,366.357c9.116-0.934,40.922-3.379,46.606-4.504c5.684-1.126-4.926,9.384-9.473,9.758
		C551.346,371.988,507.772,367.484,518.76,366.357z"/>
	<path fill="#FF6552" d="M424.032,374.241c6.221,8.903,12.697,31.479,14.02,49.174c0.758,10.134,11.367-11.262,7.199-28.153
		C440.078,374.298,420.622,369.361,424.032,374.241z"/>
	<path fill="#FF6552" d="M347.113,380.246c2.404,11.61,3.031,25.526,0.379,37.163c-2.652,11.637,13.262-9.009,12.883-19.52
		S344.082,365.607,347.113,380.246z"/>
	<path fill="#FF6552" d="M167.121,512.056c5.796-0.142,22.048-0.182,26.459,0.364c4.409,0.545-12.036,3.093-15.526,3.093
		C174.563,515.514,159.679,512.24,167.121,512.056z"/>
	<path fill="#FF6552" d="M128.811,501.954c2.989,0.845,7.441,3.82,9.646,5.642c2.205,1.821-4.134,1.092-6.247-0.454
		C130.097,505.594,124.953,500.861,128.811,501.954z"/>
	<path fill="#FF6552" d="M152.145,498.313c-0.826,3.712-3.215,13.561-4.132,16.746c-0.919,3.185,4.316-3.185,4.96-5.732
		C153.617,506.778,153.341,492.944,152.145,498.313z"/>
	<path fill="#FF6552" d="M156.069,482.054c0.953-3.776,3.409-9.896,5.223-12.935C166.384,460.582,153.981,490.334,156.069,482.054z"
		/>
	<path fill="#FF6552" d="M277.37,456.7c4.864-2.275,9.011-4.397,15.669-2.458c6.66,1.94,9.272,5.305,10.837,7.633
		c1.568,2.328-0.915-9.572-12.534-10.866C279.72,449.715,272.67,458.898,277.37,456.7z"/>
	<path fill="#FF6552" d="M341.48,456.701c6.909-3.012,16.714-5.305,24.156,2.457c7.444,7.762,0.784-8.796-10.575-9.314
		C343.7,449.327,334.952,459.547,341.48,456.701z"/>
	<path fill="#FF6552" d="M475.708,470.54c7.464-6.212,22.316-7.097,34.733,1.292c5.744,3.882-4.44-12.676-19.456-12.158
		C474.228,460.252,472.444,473.255,475.708,470.54z"/>
	<path fill="#FF6552" d="M549.872,461.485c3.814-3.333,11.62-9.443,22.197-7.115c10.577,2.33,17.889,8.795,20.762,12.677
		c2.873,3.881-1.976-16.856-19.586-18.238C551.832,447.128,545.432,465.364,549.872,461.485z"/>
	<path fill="#FF6552" d="M498.818,513.356c1.914-0.998,3.526,0.13,3.918,2.071C503.129,517.366,496.336,514.65,498.818,513.356z"/>
	<path fill="#FF6552" d="M346.964,466.532c1.305-1.033,4.048-1.033,4.569,0.906C352.057,469.379,345.005,468.083,346.964,466.532z"
		/>
</g>
</svg>
