<?xml version="1.0" encoding="utf-8"?>
<!-- Generator: Adobe Illustrator 17.0.0, SVG Export Plug-In . SVG Version: 6.00 Build 0)  -->
<!DOCTYPE svg PUBLIC "-//W3C//DTD SVG 1.1//EN" "http://www.w3.org/Graphics/SVG/1.1/DTD/svg11.dtd">
<svg version="1.1" id="Layer_1" xmlns="http://www.w3.org/2000/svg" xmlns:xlink="http://www.w3.org/1999/xlink" x="0px" y="0px"
	 width="800px" height="600px" viewBox="0 0 800 600" enable-background="new 0 0 800 600" xml:space="preserve">
<g>
	<path d="M382.275,386.486c21.673-4.878,38.083,0.381,68.266,12.459c32.513,13.007,89.887-6.663,74.303-89.394
		c22.617,12.06,51.311,3.658,59.618-8.651c6.184-9.165-1.94-16.617-14.484-23.199c-18.755-9.836-35.71,0.525-48.192,3.822
		c-9.59-27.945-8.482-62.094-1.389-112.817c3.429-24.505,7.329-39.259,10.643-56.401c-7.808-0.356-24.143,4.889-40.398,60.699
		c-4.402,15.113-8.367,41.268-7.464,57.213c0.683,12.048,2.27,24.499,6.921,34.898c-12.462-7.044-33.38-7.541-33.38-7.541
		s-8.591-49.52-10.037-59.276c-2.803-18.944-8.135-57.19-8.224-78.9c-6.41,0.035-16.605,16.996-22.895,57.32
		c-2.683,17.205-3.09,35.454,0.568,52.788c2.749,12.967,6.008,20.691,13.285,31.813c-21.733,0.554-29.44,5.53-48.766,8.671
		c-43.345,7.044-93.735-6.502-116.142,3.885c-15.503,7.182-26.728,22.229-24.734,44.88c-11.92,12.462,8.33,34.255,14.089,42.261
		c-1.624,17.882-20.338,62.519-50.935,74.774c10.838,5.418,28.717,1.085,36.904-4.539c-6.689,12.508-19.064,21.394-29.672,28.766
		c16.892,0.674,27.518-6.562,36.921-14.367c-5.865,13.871-10.683,21.079-20.852,32.404c15.274,0.924,25.239-2.8,37.386-12.462
		c-3.791,26.008-28.003,40.616-37.925,45.509c7.584,3.254,21.871,3.98,36.846-4.33c14.97-8.313,23.515-18.221,29.796-29.799
		c2,5.067,4.935,19.879,4.901,25.644c22.734-25.107,20.545-86.209,7.021-124.799C331.395,388.202,360.6,391.361,382.275,386.486z"/>
	<path fill="#E9E5C5" d="M298.17,390.592c-2.809-7.71-5.943-17.687-8.181-25.819c23.934,9.876,65.735,19.001,98.243,10.875
		c15.633-3.905,38.806-0.646,59.064,8.671c27.087,12.459,42.803,5.96,58.513-10.84c12.852-13.736,17.34-43.885,11.925-74.226
		c5.96,4.333,20.206,5.762,26.792,6.565c9.26,1.133,36.846-5.346,34.221-12.184c-2.628-6.835-19.718-15.811-32.542-12.927
		c-8.071,1.816-16.551,5.598-25.894,7.721c-2.387-4.089-6.364-9.765-6.364-9.765c-5.033-3.182-11.828-3.698-17.486-5.687
		c-21.274-7.44-44.743-7.044-66.8-5.595c-11.813,0.78-24.508,5.762-36.49,7.478c-14.671,2.103-30.054,2.798-44.964,3.667
		c-21.785,1.277-45.291-2.798-67.047-1.314c-14.918,1.024-33.959,13.81-32.984,31.42c0.732,13.257,25.925,23.667,45.741,30.06
		c12.189,3.928,27.5,5.027,38.281-1.937c6.74-4.353,12.327-13.937,9.885-22.714c10.496,11.211,0.689,24.7-5.306,29.784
		c-10.35,8.777-31.067,4.798-42.651,1.627c-18.295-5.007-38.858-15.799-47.053-21.713c-10.008,3.684,6.726,26.043,13.294,33.342
		c0.358,14.43-5.079,28.691-12.393,41.196c-7.314,12.514-16.511,23.262-23.661,30.674c11.512-0.901,22.33-5.902,32.998-16.465
		c-2.786,10.809-9.242,21.156-19.09,31.119c8.356-2.611,17.609-7.443,24.849-14.864c-2.052,11.584-6.752,20.99-13.736,33.477
		c11.707-2.726,16.335-7.882,21.096-16.984c1.512,11.627-1.016,22.594-4.781,34.493c4.614-4.089,11.96-8.749,15.337-14.99
		c0.502,6.221-0.493,14.703-1.684,20.605c5.974-4.898,11.521-15.753,15.962-27.389c0.812,4.083,3.047,14.014,5.363,19.65
		c3.372-15.598,5.257-34.384,4.651-50.479C304.867,415.834,302.098,401.387,298.17,390.592z"/>
	
		<linearGradient id="SVGID_1_" gradientUnits="userSpaceOnUse" x1="422.0558" y1="180.7879" x2="497.1474" y2="310.8504" gradientTransform="matrix(0.8648 0.5021 -0.5021 0.8648 232.78 -246.225)">
		<stop  offset="0" style="stop-color:#F8DF51"/>
		<stop  offset="0.2616" style="stop-color:#F6DB4D"/>
		<stop  offset="0.5213" style="stop-color:#F2CF41"/>
		<stop  offset="0.7792" style="stop-color:#EABB2D"/>
		<stop  offset="1" style="stop-color:#E1A416"/>
	</linearGradient>
	<path fill="url(#SVGID_1_)" d="M496.885,266.657c-7.131-5.151-9.481-32.232-7.601-56.019c1.882-23.79,10.126-48.048,16.252-63.592
		c6.123-15.543,12.645-24.117,19.547-24.967c-2.118,8.953-6.677,28.198-7.773,35.799c-2.425,0.103-7.535-0.706-10.362-1.647
		c-0.944,4.474,8.425,5.572,8.425,5.572s-1.32,11.159-1.831,13.036c-2.953,0.19-8.006-0.947-10.835-1.888
		c-3.062,4.241,10.069,6.606,10.069,6.606s-0.743,7.417-1.911,14.881c-4.861-1.228-12.634-2.892-13.81-3.351
		c0.709,3.524,13.661,8.244,13.661,8.244s-1.176,6.594-1.65,14.605c-5.346-1.624-10.832-2.359-14.364-2.482
		c0.471,2.717,13.661,6.247,13.661,6.247s-1.65,11.306-0.947,19.552c-5.125-0.565-10.594-2.591-12.783-3.658
		c0.304,5.306,13.021,7.426,13.021,7.426s-0.221,9.742,2.121,17.899c-1.885,0.235-9.658-2.826-12.72-4.473
		c0.218,2.232,4.006,6.123,13.254,8.998c0.172,3.01,1.687,8.786,1.687,8.786S501.373,269.891,496.885,266.657z"/>
	
		<linearGradient id="SVGID_2_" gradientUnits="userSpaceOnUse" x1="365.2144" y1="225.5534" x2="428.8594" y2="335.7898" gradientTransform="matrix(0.8648 0.5021 -0.5021 0.8648 232.78 -246.225)">
		<stop  offset="0" style="stop-color:#F8DF51"/>
		<stop  offset="0.2896" style="stop-color:#F7DC4E"/>
		<stop  offset="0.5325" style="stop-color:#F3D143"/>
		<stop  offset="0.7586" style="stop-color:#ECC032"/>
		<stop  offset="0.9734" style="stop-color:#E2A81A"/>
		<stop  offset="1" style="stop-color:#E1A416"/>
	</linearGradient>
	<path fill="url(#SVGID_2_)" d="M452.306,258.212c-0.941-4.006-1.647-10.362-2.353-13.423c-3.529,0.941-16.622,3.521-17.784-1.79
		c2.941-0.786,14.031-1.154,17.073-1.509c-0.703-3.062-1.409-7.773-2.353-12.247c-5.415-1.179-13.062,1.538-19.509,5.194
		c-5.087-4.723,13.776-11.265,19.084-10.166c-0.514-4.683-1.696-9.868-1.696-14.809c-4.732,1.042-14.588,3.71-20.491,7.535
		c-1.506-6.023,12.958-12.485,19.314-13.188c-0.941-5.42-1.65-12.014-2.118-16.726c-3.957,1.742-11.303,5.681-15.363,7.174
		c-0.743-4.603,6.645-9.997,14.18-13.297c-1.65-12.953-4.086-36.717-4.941-48.751c-7.303,2.826-15.779,44.987-17.194,64.295
		c-1.414,19.314,4.476,48.286,16.892,62.329C437.207,260.651,452.306,258.212,452.306,258.212z"/>
	<path d="M282.627,307.801c1.644-1.248,15.44-11.329,23.434-11.535c6.207-0.155,17.624,12.72,16.166,17.067
		c-1.449,4.347-16.08,5.173-22.192,4.594c-7.377-0.717-14.755-3.727-16.327-4.419C280.83,312.243,279.711,310.04,282.627,307.801z"
		/>
	<path fill="#C8BD92" d="M447.224,287.245c-9.03,10.8-7.862,26.436,2.608,34.926c10.436,8.49,26.221,6.617,35.245-4.186
		c9.027-10.795,7.857-26.433-2.594-34.915C472.028,274.574,456.243,276.45,447.224,287.245z"/>
	<path fill="#C8BD92" d="M407.475,272.112c-6.149,7.372-4.869,18.427,2.864,24.714c7.742,6.287,19.004,5.412,25.156-1.954
		c6.155-7.369,4.867-18.436-2.875-24.72C424.883,263.876,413.624,264.749,407.475,272.112z"/>
	<path fill="#C8BD92" d="M276.882,475.653c0,0-11.309,12.648-18.221,18.628c-6.921,5.98-15.635,11.945-15.635,11.945
		s11.423,1.423,20.657-6.379C277.186,488.436,276.882,475.653,276.882,475.653z"/>
	<path fill="#C8BD92" d="M273.548,363.127l12.284,2.769c0,0,3.653,16.783,4.186,25.506c2.313,37.891-8.232,50.266-8.232,50.266
		s4.571-32.419,0.497-51.368C278.213,371.347,273.548,363.127,273.548,363.127z"/>
	<path fill="#C8BD92" d="M327.527,357.692c0,0,8.057-0.163,12.907-3.265c4.852-3.108,10.717-11.17,10.717-11.17
		s6.565,13.374-3.63,17.836C337.326,365.557,327.527,357.692,327.527,357.692z"/>
	<path fill="#C8BD92" d="M523.264,297.265c6.387,2.525,33.917,5.518,38.528,1.532c5.254-4.542-10.78-7.627-20.401-6.588
		C533.292,293.084,516.874,294.74,523.264,297.265z"/>
	<path fill="#FFFCEB" d="M324.945,281.391c0,0,19.718-0.006,30.892,0.548c11.179,0.554,25.228-0.795,33.256-2.605
		c8.017-1.811,4.545,3.988-8.717,10.855c-13.265,6.864-21.664,9.558-35.618,5.756C330.79,292.146,309.874,280.229,324.945,281.391z"
		/>
	<path fill="#C8BD92" d="M276.862,386.047c0,0,1.584,13.925,0.316,22.496c-1.271,8.571-11.486,17.11-11.486,17.11
		s2.02-11.033,3.604-17.718C270.891,401.249,276.862,386.047,276.862,386.047z"/>
	<path fill="#C8BD92" d="M317.226,322.303c3.983-1.903,10.769-2.987,11.288-9.102c0.517-6.115-2.955-9.412-4.097-11.549
		c-1.142-2.141,3.174-3.065,7.219,1.303c4.046,4.37,8.534,10.218,0.743,18.146C324.589,329.023,310.93,325.322,317.226,322.303z"/>
	<g>
		<path d="M487.293,305.497c-4.175,11.604-16.964,17.638-28.585,13.455c-11.607-4.161-17.627-16.958-13.446-28.571
			c4.164-11.598,16.956-17.624,28.568-13.46C485.431,281.096,491.456,293.885,487.293,305.497z"/>
		<path fill="#FFFFFF" d="M484.266,303.468c-3.435,9.541-13.948,14.488-23.501,11.065c-9.529-3.429-14.485-13.951-11.05-23.48
			c3.426-9.538,13.942-14.496,23.477-11.065C482.725,283.42,487.683,293.936,484.266,303.468z"/>
	</g>
	<g>
		<path d="M478.323,299.776c-2.029,5.639-8.247,8.571-13.882,6.534c-5.63-2.017-8.562-8.227-6.536-13.868
			c2.029-5.63,8.238-8.565,13.871-6.531C477.416,287.939,480.349,294.134,478.323,299.776z"/>
		<path fill="#FFFFFF" d="M476.409,294.952c-0.623,1.776-2.58,2.686-4.35,2.049c-1.785-0.631-2.697-2.588-2.063-4.356
			c0.64-1.776,2.597-2.697,4.365-2.057C476.128,291.222,477.064,293.176,476.409,294.952z"/>
	</g>
	<g>
		<path d="M437.655,283.979c-3.395,9.435-13.785,14.33-23.211,10.932c-9.446-3.383-14.344-13.782-10.947-23.208
			c3.394-9.437,13.785-14.339,23.219-10.944C436.149,264.143,441.041,274.545,437.655,283.979z"/>
		<path fill="#FFFFFF" d="M435.19,282.321c-2.783,7.762-11.334,11.785-19.081,8.996c-7.748-2.786-11.773-11.326-8.987-19.076
			c2.783-7.75,11.331-11.782,19.076-8.998C433.956,266.04,437.977,274.576,435.19,282.321z"/>
	</g>
	<g>
		<path d="M431.228,279.994c-1.638,4.559-6.666,6.924-11.217,5.285c-4.56-1.635-6.93-6.66-5.285-11.219
			c1.633-4.557,6.648-6.918,11.205-5.283C430.49,270.419,432.86,275.437,431.228,279.994z"/>
		<path fill="#FFFFFF" d="M429.684,276.092c-0.505,1.432-2.095,2.169-3.527,1.661c-1.423-0.52-2.187-2.095-1.661-3.532
			c0.516-1.429,2.097-2.172,3.518-1.653C429.457,273.084,430.197,274.651,429.684,276.092z"/>
	</g>
	<polygon points="391.862,258.912 428.504,253.988 423.162,244.789 	"/>
	<polygon points="459.273,247.77 475.302,243.854 491.867,282.817 	"/>
	<path fill="#FFFCEB" d="M254.658,297.147c3.584-7.162,17.323-17.323,30.932-16.089c13.61,1.237-8.252,11.549-12.376,13.612
		C269.094,296.734,250.948,304.57,254.658,297.147z"/>
</g>
</svg>
