<?xml version="1.0" encoding="utf-8"?>
<!-- Generator: Adobe Illustrator 17.0.0, SVG Export Plug-In . SVG Version: 6.00 Build 0)  -->
<!DOCTYPE svg PUBLIC "-//W3C//DTD SVG 1.1//EN" "http://www.w3.org/Graphics/SVG/1.1/DTD/svg11.dtd">
<svg version="1.1" id="Layer_1" xmlns="http://www.w3.org/2000/svg" xmlns:xlink="http://www.w3.org/1999/xlink" x="0px" y="0px"
	 width="800px" height="600px" viewBox="0 0 800 600" enable-background="new 0 0 800 600" xml:space="preserve">
<g>
	<path d="M616.44,391.744c-1.712-8.769-4.728-19.431-8.918-27.259c1.94-5.814,3.867-15.014,4.468-20.736
		c-6.739,1.989-17.47,6.093-19.971,7.337c-3.606-4.23-9.259-10.869-11.549-13.547c-0.841,3.976-1.672,11.452-1.41,16.212
		c-5.099-6.994-32.031-41.2-36.889-49.51c2.932-2.751,6-9.605,6.659-14.933c0.604-4.848-0.613-7.861-4.299-8.177
		c0.316-1.651,0.4-3.956-0.151-5.75c-1.208-3.947-6.736-6.838-13.095-8.339c0.047-2.614,0.044-5.273-0.8-7.601
		c-2.774-7.645-12.042,1.172-15.102,3.994c-7.371,6.806-14.859,13.491-21.553,21.031c-3.976,4.478-8.509,9.53-8.489,15.588
		c-0.523-0.28-2.056-1.02-2.999-0.823c-1.535,6.388,0.125,27.294-1.891,36.366c-9.904-9.471-23.508-25.824-33.224-39.024
		c-1.408-11.24-4.722-43.035-9.769-57.287c7.269,4.78,14.766-2.966,14.206-11c-0.586-8.543-10.545-17.79-18.616-6.044
		c-7.432-25.279-19.581-50.216-42.159-53.293c7.068-3.272,13.451-7.71,9.118-13.561c-3.095-4.177-9.959-1.876-12.307-7.022
		c-2.614-5.741,3.999-9.775,8.397-10.124c7.619-0.599,6.109,8.503,10.017,12.479c3.383,3.44,8.973-4.79,7.727-4.086
		c-2.719,1.531-5.711,4.104-6.914,0.078c-0.595-1.975-0.984-4.177-1.97-6.001c-1.843-3.406-5.18-5.842-9.072-6.024
		c-6.765-0.317-13.467,4.859-13.171,12.376c0.303,7.655,7.279,7.563,12.697,10.627c4.598,2.602-2.518,6.805-13.012,11.161
		c-14.972,1.992-26.315,16.311-32.68,29.275c-4.46,9.092-7.17,17.624-9.53,27.671c-0.927-3.008-2.881-4.904-5.082-5.607
		c-6.837-2.179-11.139,5.245-11.03,10.25c0.184,8.842,6.115,14.62,13.299,8.229c-1.319,7.143-2.386,14.305-3.396,21.323
		c-1.607,11.171-2.725,22.408-3.582,33.668c-1.776,2.92-22.513,36.243-25.288,43.609c-1.219-2.094-11.142-15.207-12.193-15.997
		c3.581-19.284-1.277-32.97-7.9-27.343c-3.622,3.081-11.23,6.724-18.625,8.288c-4.483-1.899-11.881-4.329-13.756-4.031
		c2.941-12.631,7.243-31.372,9.005-40.101c1.278-6.322,2.366-12.726,2.62-19.194c0.152-3.771,0.274-9.749-2.953-12.401
		c-3.434-2.823-7.864-0.49-10.868,1.907c-4.737,3.775-6.977,10.261-8.447,16.006c-3.727,14.548-3.804,30.944-2.616,46.05
		c-5.289-1.694-10.146-0.781-14.538,0.12c0.123-6.835,1.688-15.865,3.351-23.596c1.596-7.426,3.457-16.577,4.131-24.158
		c0.581-6.472-2.206-23.884-11.908-17.703c-3.8,2.416-5.508,8.269-6.671,12.298c-1.782,6.152-2.588,12.64-3.273,19.005
		c-1.409,13.077-1.808,26.41-1.33,39.672c-14.198,0.426-45.99,5.295-45.853,18.974c0.093,9.643,14.427,14.453,25.929,17.117
		c-5.403,22.368-17.624,65.396-19.282,71.393c17.196,25.252,87.216,32.105,102.547,11.015c-2.695-7.377-7.733-46.477-7.045-64.545
		c6.31-0.858,11.394-8.561,13.671-14.603c1.931-0.794,4.81-1.963,6.858-3.838c4.232,8.529,11.211,20.332,17.709,28.344
		c0.738,0.908,3.302,1.302,3.866,0.294c5.501-9.836,17.132-30.822,21.222-39.701c-0.528,10.277-2.61,96.314-1.975,108.994
		c-8.249,1.753-34.485,12.144-42.515,27.108c4.011,6.456,37.439,16.399,65.653,2.26c5.204,0.145,17.049-5.758,20.589-10.547
		c10.63,3.042,24.634,4.025,37.811,3.644c2.899,6.72,11.207,13.095,18.818,16.157c17.75,12.254,53.766,15.557,64.128,6.593
		c-4.653-15.518-22.135-32.312-39.727-35.524c2.482-27.878,1.727-56.66,0.946-84.593c-0.303-10.813-0.858-21.665-1.686-32.498
		c8.877,15.746,18.911,35.267,35.483,40.412c0.899,0.278,2.165-0.009,2.462-1.007c2.824-9.466,3.329-19.596,4.509-29.348
		c1.322-10.939,6.012-24.99,5.172-25.737c-0.843-0.746-4.521-2.31-5.534-2.861c4.571-6.341,13.798-4.388,20.562-2.715
		c7.68,1.899,15.133,5.056,22.161,8.736c0.895,0.464,1.914,0.094,2.407-0.782c0.612-1.086,1.032-2.147,1.313-3.188
		c6.732,10.884,32.79,45.646,39.452,53.773c-4.769,0.21-12.785,1.371-15.519,2.486c3.491,4.726,10.507,12.926,11.309,13.918
		c-0.644,3.854-3.591,15.364-4.331,18.776c3.969-0.747,16.721-6.96,20.933-9.693C598.887,387.963,611.388,390.997,616.44,391.744z"
		/>
	<path fill="#FFD0B5" d="M443.207,221.633c2.858,1.625,6.514,6.368,2.073,11.534c-4.442,5.161-9.716,1.146-10.883-6.318
		C436.247,223.026,438.859,219.159,443.207,221.633z"/>
	<path fill="#FFD0B5" d="M329.845,236.657c-3.895-1.928-4.574-13.663,3.045-13.998c2.754-0.122,5.09,3.664,5.598,7.343
		C338.37,233.686,334.756,239.084,329.845,236.657z"/>
	<path fill="#FFD0B5" d="M336.276,273.342c3.489-30.717,10.41-99.147,51.614-99.817c18.629-0.303,30.371,24.225,36.341,39.088
		c8.883,22.122,14.941,54.12,16.04,74.845c-17.72,16.292-83.829,23.747-105.665,2.517
		C335.103,284.429,335.644,278.884,336.276,273.342z"/>
	<path fill="#FAC400" d="M369.62,306.204c5.902,1.027,13.652,0.889,20.414,0.697c0.279,5.166-4.719,12.051-9.885,16.026
		C374.487,318.38,370.603,311.497,369.62,306.204z"/>
	<path fill="#FAC400" d="M390.034,374.615c-2.973,3.275-12.204,12.338-15.008,15.714c-2.596-6.243-7.512-13.549-10.808-19.444
		c8.605-12.91,9.437-36.153,15.206-41.486C383.094,340.186,389.756,363.141,390.034,374.615z"/>
	<path fill="#FFFFFF" d="M212.925,260.752c0.977-9.927,1.727-22.254,7.149-30.809c2.981-4.705,7.465-2.196,8.787,2.4
		c1.904,6.61,0.12,14.748-1,21.332c-0.997,5.862-6.666,32.037-5.913,38.813c-2.73,2.814-2.581,4.786-2.231,4.547
		c6.269-4.32,16.131-5.079,22.167-2.191c1.418,0.679,0.385-1.878-0.738-3.195c-0.146-12.624-0.324-25.749,1.689-38.769
		c1.015-6.57,2.699-13.292,6.379-18.838c2.477-3.736,9.78-9.1,11.411-2.117c2.269,9.711-1.301,21.478-3.307,30.988
		c-2.173,10.3-4.296,20.617-6.449,30.924c-2.089,10.009-4.437,20.486-4.906,30.777c-2.709,0.038-8.2-0.714-12.251-1.254
		c0.796-7.251-9.16-6.367-10.203-2.001c-3.909-0.867-7.474-1.289-11.356-2.482c-0.295-9.734-0.362-20.425-0.562-30.205
		C211.402,279.299,212.01,270.061,212.925,260.752z"/>
	<path fill="#D9F0F2" d="M211.937,309.696c0.058,3.112,0.126,6.196,0.218,9.182c3.882,1.193,7.447,1.614,11.356,2.482
		c1.042-4.366,10.998-5.25,10.203,2.001c4.051,0.54,9.542,1.292,12.251,1.254c0.114-2.499,0.342-5.009,0.648-7.525
		C234.898,316.146,223.082,313.369,211.937,309.696z"/>
	<path fill="#424F4F" d="M249.832,314.156c5.021,1.07,8.684,4.42,9.125,6.85c0.443,2.435-4.926,3.771-10.008,3.65
		C249.104,321.31,249.37,317.525,249.832,314.156z"/>
	<path fill="#424F4F" d="M210.536,318.421c-4.291-0.943-10.747-3.345-11.482-5.93c-0.735-2.588,5.447-3.806,11.043-3.806
		C210.315,311.513,210.233,315.613,210.536,318.421z"/>
	<path fill="#5B6363" d="M267.345,412.783c-10.41,10.266-66.755,12.838-93.562-10.238c3.599-14.18,10.314-36.431,15.017-54.604
		c15.723,14.317,60.883,17.529,72.485,9.821c0.201,5.441,0.595,12.471,0.881,17.552C262.873,387.934,264.545,400.48,267.345,412.783
		z"/>
	<path fill="#ADB1B1" d="M189.451,345.427c1.079-4.169,2.155-8.336,3.236-12.485c22.817,5.123,50.785,8.334,69.792,6.252
		c-0.975,4.606-1.309,9.477-1.331,14.395C250.721,359.046,211.776,359.904,189.451,345.427z"/>
	<path fill="#FFD0B5" d="M265.635,346.834c-0.155-2.164-0.414-4.492-0.641-7.905c3.451-0.428,6.866-1.076,10.158-2.069
		C273.716,340.628,269.273,346.177,265.635,346.834z"/>
	<path fill="#696F6F" d="M285.476,323.339c-0.329,0.607-0.568,1.214-0.595,1.791c-3.44,6.224-19.692,8.47-24.401,8.938
		c-5.937,0.586-12.012,0.733-17.975,0.511c-12.092-0.46-24.228-2.196-36.142-4.293c-3.915-0.692-29.531-4.105-36.013-12.301
		c-5.671-7.181,4.636-12.376,8.972-13.884c8.696-3.02,20.322-4.999,29.938-5.314c0.134,2.998,0.178,5.242,0.393,8.226
		c-4.711,0-18.969,2.851-14.425,8.212c5.149,6.087,21.601,8.559,28.26,9.889c5.426,1.083,15.524,2.404,21.047,2.585
		c6.561,0.212,12.774-0.062,16.484-3.045c5.298-4.259-4.528-12.097-10.746-12.934c0.491-3.193,1.128-7.621,1.768-10.799
		c2.432,0.196,6.233,1.099,8.538,1.983c-4.822,7.255,2.2,16.499,8.946,16.807c4.022,0.181,7.741-1.633,10.927-3.997
		c0.175-0.129,0.318-0.274,0.485-0.408C284.515,318.462,285.768,321.116,285.476,323.339z"/>
	<path fill="#FFD0B5" d="M282.301,314.107c3.218-3.202,3.649-12.325,3.15-11.355c-2.817,5.466-7.359,12.015-15.014,12.319
		c-7.652,0.304-11.291-8.742-7.946-8.973c6.624-0.46,17.809-5.02,24.435-10.741c1.8-1.549,7.21,8.308,2.941,24.429
		C288.688,317.203,284.908,315.231,282.301,314.107z"/>
	<path fill="#4DB8F0" d="M305.837,355.652c-1.412,2.094-12.152-17.379-17.57-26.34c0.761-1.083,2.719-4.822,3.176-5.744
		c0.032-0.012,0.052-0.04,0.084-0.055c4.376,5.399,10.938,14.132,14.972,22.587c0.358,0.747,0.884-2.585-0.046-6.021
		c8.142-16.034,19.18-35.349,23.888-40.525c-0.208,3.221-0.922,8.902-1.103,12.123C325.043,320.394,307.253,353.56,305.837,355.652z
		"/>
	<path fill="#C84B52" d="M351.454,453.336c-0.507-2.584-1.277-5.142-1.905-7.675c-0.368-1.497-2.704,6.161-2.463,8.795
		c-19.355,7.83-42.095,8.524-57.954,0.659c8.886-10.93,22.844-18.803,38.918-23.173c7.625,7.086,24.08,12.75,35.514,15.107
		C361.891,449.646,356.604,452.49,351.454,453.336z"/>
	<path fill="#4DB8F0" d="M330.672,428.297c-0.51-24.779,0.974-108.06,3.617-134.78c4.378,5.324,22.154,11.377,32.355,12.103
		c1.459,9.316,8.171,16.697,11.781,19.888c-9.396,11.994-11.088,31.801-17.26,45.377c3.608,5.74,10.27,17.791,13.324,24.964
		c6.371-8.651,16.657-16.93,19.99-20.945c-0.082-7.007-10.854-42.017-12.783-48.842c4.175-3.092,10.006-10.263,11.951-18.87
		c21.108-0.782,40.21-7.727,47.749-14.637c5.632,47.477,5.948,98.329,3.624,145.958C416.672,453.368,352.375,442.87,330.672,428.297
		z"/>
	<path fill="#C84B52" d="M484.57,471.292c-14.383,4.153-36.343,3.308-52.244-7.216c0.134-1.765,1.377-8.311,1.63-10.404
		c0.154-1.24-6.327,4.643-6.707,8.325c-3.806-0.759-10.362-5.569-13.407-9.85c9.39,0.345,31.506-5.892,36.252-9.71
		C466.651,446.308,478.221,456.427,484.57,471.292z"/>
	<path fill="#4DB8F0" d="M494.813,308.197c-0.705,2.722-3.27,14.57-4.089,21.136c-0.819,6.564-3.612,29.127-4.922,28.651
		c-15.536-5.653-24.29-27.204-35.442-41.533c-0.403-4.647-0.858-9.288-1.391-13.914c3.921,6.513,27.668,34.423,30.587,36.401
		c-0.682,2.267-1.411,4.524-1.578,6.872c-0.043,0.622,0.74,1.061,1.191,0.603c4.924-4.964,4.804-13.126,4.678-20.602
		c-0.125-7.473-0.251-18.847,0.516-23.37C487.156,305.049,491.199,307.161,494.813,308.197z"/>
	<path fill="#FFD0B5" d="M535.569,305.516c-8.351-4.067-17.144-7.557-26.223-9.282c-6.612-1.257-17.15-1.552-19.282,6.528
		c-1.223-0.679-2.424-1.414-3.646-2.111c0.537-5.32,7.305-11.825,10.298-15.09c5.776-6.307,12.208-11.96,18.573-17.61
		c2.689-2.384,5.234-4.777,8.255-6.729c4.612-2.979,4.312,1.707,4.48,5.269c0.356,7.593,0.139,19.054,4.428,26.092
		c-2.225-1.228-4.544-2.044-6.92-2.558c-2.568-7.929-1.922-18.751-1.605-22.355c0.12-1.367-1.803,1.368-2.161,3.695
		c-7.704,5.259-7.911,16.689-7.102,17.689c-2.521,0.123-4.646,1.733-3.968,1.741c4.849,0.065,13.094,1.153,17.683,2.737
		C533.827,295.414,539.206,300.494,535.569,305.516z"/>
	<path fill="#FFD0B5" d="M521.247,275.364c-0.18,2.333,0.545,12.073,1.359,14.314c-1.21-0.126-4.195-0.737-5.414-0.747
		C515.865,284.208,517.551,276.997,521.247,275.364z"/>
	<path fill="#FFD0B5" d="M535.295,292.017c-0.575-2.502-1.584-4.904-2.219-7.41c0.513-0.418,5.315-4.247,4.662-5.224
		c-0.747-1.122-5.75-3.905-6.102-3.95c-0.251-1.914-0.37-4.401-0.382-6.026c5.426,1.377,12.762,4.486,11.44,9.828
		C541.826,282.737,538.241,288.933,535.295,292.017z"/>
	<path fill="#FFD0B5" d="M537.041,294.905c2.258-2.798,5.052-7.461,6.742-11.333c1.68,0.018,2.814,1.366,2.92,3.294
		c0.321,5.799-3.421,11.75-5.933,14.122C539.566,298.624,538.288,296.591,537.041,294.905z"/>
	<path fill="#FFCF00" d="M574.116,390.386c0.7-4.363,2.264-10.828,3.349-15.178c-2.045-1.99-6.257-7.334-9.626-11.686
		c4.958-0.703,10.226-1.742,12.872-1.865c2.001,2.381,4.681,5.537,6.785,7.82c0.703,0.764,1.805-0.326,1.304-1.164
		c-2.448-4.098-5.105-8.057-7.865-11.939c-0.557-4.493,0.004-9.449,0.692-13.845c3.189,4.048,6.371,8.092,9.891,11.858
		c4.833-2.8,11.809-5.536,17.156-7.161c-1.257,5.728-2.69,12.583-4.265,17.539c4.131,7.191,6.472,15.04,8.351,23.164
		c-6.546-1.158-15.568-3.392-21.814-5.941C587.448,384.034,577.431,389.015,574.116,390.386z"/>
	<path d="M224.951,307.383c-2.824,0-2.881,4.53-0.055,4.53C227.723,311.913,227.779,307.383,224.951,307.383z"/>
	<path d="M233.867,306.461c-1.458,0-2.756,0.952-2.88,2.544c-0.105,1.411,1.001,2.976,2.462,2.976c1.456,0,2.759-0.95,2.882-2.544
		C236.436,308.028,235.33,306.461,233.867,306.461z"/>
	<path d="M416.757,215.463c-2.008-0.3-4.038-0.476-6.085-0.593c-0.012-5.34-1.208-11.633-4.751-15.457
		c2.047,0.989,4.163,2.153,5.776,3.265c1.525,1.051,0.846-2.626-1.75-5.659c-1.383-1.624-6.554-6.077-15.232-5.933
		c-0.694,0.011-0.825,1.094-0.298,1.447c2.161,1.449,4.408,2.642,6.676,3.857c-7.745-2.464-12.681,3.049-14.731,9.889
		c-0.076-0.548-0.107-1.09-0.219-1.634c-1.96-9.582-10.541-11.251-16.942-5.18c-3.863,3.666-6.379,9.682-6.566,15.605
		c-2.992,0.087-5.98,0.222-8.956,0.462c-0.563,0.046-0.645,0.995-0.055,1.045c2.999,0.245,6.01,0.387,9.025,0.475
		c0.233,4.605,1.79,8.719,4.857,10.646c-2.587,0.181-5.158,0.397-7.499,1.26c-6.187,2.284-10.225,6.735-12.024,13.129
		c-2.713,9.634,2.544,21.25,10.795,27.409c9.08,6.779,21.781,8.67,32.312,4.994c14.369-5.015,19.754-21.842,12.132-34.85
		c-0.671-1.141-2.257-0.288-2.115,0.784c2.12,15.85-3.059,26.772-18.368,28.625c-9.078,1.094-18.887-2.803-25.191-9.507
		c-7.07-7.52-5.794-22.406,3.991-26.037c6.607-2.453,10.673-1.576,15.259-3.04c4.603-1.474,5.986-6.313,7.5-9.635
		c0.475,6.285,3.821,12.853,10.437,14.1c9.166,1.73,15.606-8.78,15.865-17.676c2.056-0.12,4.104-0.294,6.128-0.596
		C417.375,216.563,417.431,215.564,416.757,215.463z"/>
	<path fill="#FFFFFF" d="M374.798,226.728c-5.128,0.648-9.033-4.474-9.381-9.631c1.904,0.031,3.809,0.031,5.715,0.033
		c0.216,1.701,1.266,3.098,2.969,3.568c2.171,0.601,4.382-1.38,4.496-3.574c1.255-0.008,2.512-0.009,3.766-0.021
		C381.705,222.645,379.071,226.186,374.798,226.728z"/>
	<path fill="#FFD0B5" d="M383.027,215.02c-5.864-0.036-11.743-0.091-17.613,0.006c0.362-7.792,3.787-15.56,10.866-16.199
		C380.799,198.419,384.921,204.43,383.027,215.02z"/>
	<path fill="#FFFFFF" d="M394.753,230.179c-5.934-1.403-8.307-8.408-7.967-13.664c1.165,0.009,3.937,0.612,5.108,0.641
		c-0.242,1.522,0.969,2.731,2.422,3.279c1.967,0.75,5.009-0.415,5.155-3.093c2.604,0.061,5.209,0.103,7.803,0.043
		C406.953,224.572,401.518,231.775,394.753,230.179z"/>
	<path fill="#FFD0B5" d="M386.277,214.938c0.339-9.106,7.165-19.515,15.262-15.023c4.691,2.6,5.927,9.354,5.864,14.821
		C400.89,214.591,392.72,214.903,386.277,214.938z"/>
	<path d="M386.2,183.53c-1.834-3.267-5.954-4.451-9.427-3.065c-3.882,1.546-7.579,6.192-8.874,8.051
		c-0.315,0.447,0.148,0.901,0.619,0.593c7.932-5.174,14.033-4.821,16.825-3.678C386.204,185.782,386.644,184.326,386.2,183.53z"/>
	<path d="M419.242,258.993c-5.784-1.523-10.845,3.821-14.272,8.048c-4.028,4.965-10.754,11.581-16.656,13.926
		c-2.205,0.881,1.523,2.106,4.746,0.177c4.815-2.882,7.392-5.158,11.183-9.282c3.223-3.503,6.549-5.951,10.169-6.657
		c2.71-0.526,5.425,0.005,7.795,1.054C424.58,267.306,422.885,259.952,419.242,258.993z"/>
	<path d="M410.47,278.488c-2.763,0.841-11.263,5.082-13.025,6.211c-0.569,0.365-0.122,1.071,0.45,1.163
		c6.689,1.061,12.459-0.72,14.475-2.392C414.003,282.11,412.854,277.758,410.47,278.488z"/>
</g>
</svg>
