<?xml version="1.0" encoding="utf-8"?>
<!-- Generator: Adobe Illustrator 17.0.0, SVG Export Plug-In . SVG Version: 6.00 Build 0)  -->
<!DOCTYPE svg PUBLIC "-//W3C//DTD SVG 1.1//EN" "http://www.w3.org/Graphics/SVG/1.1/DTD/svg11.dtd">
<svg version="1.1" id="Layer_1" xmlns="http://www.w3.org/2000/svg" xmlns:xlink="http://www.w3.org/1999/xlink" x="0px" y="0px"
	 width="800px" height="600px" viewBox="0 0 800 600" enable-background="new 0 0 800 600" xml:space="preserve">
<g>
	<path d="M410.891,395.804c-8.453,4.635-16.011,12.646-21.424,19.386c-6.733,7.957-7.165,15.041-6.659,20.094
		c0,0,5.569-2.063,12.115-6.504c0,0-14.967,23.321-18.084,35.305c2.19-1.631,13.361-6.776,14.878-7.947
		c-1.083,2.371-5.116,11.103-6.379,14.373c13.601-2.371,30.553-7.82,40.811-12.193c2.403,10.01,3.821,34.3,14.195,37.431
		c13.081-3.096,30.199-18.417,38.865-27.227c1.649,4.122,5.622,12.136,8.418,16.255c14.284-6.719,27.163-23.915,35.103-36.858
		c3.952,4.798,7.498,14.178,9.366,19.698c13.17-9.108,26.003-39.756,28.593-46.231c1.507,4.494,5.654,12.31,7.724,16.492
		c19.245-8.665,24.354-30.323,27.864-51.058c2.788,3.658,7.954,14.854,11.209,20.833c9.55-12.727,12.158-31.374,14.553-47.725
		c8.4,14.652,25.08,11.004,27.206,8.977c-0.984-13.718-2.962-24.584-10.601-30.73c0.34-14.26-7.14-34.265-14.358-46.033
		c2.817,3.181,6.461,6.701,10.579,8.386c5.778,2.357,15.127,2.147,15.933,9.543c1.115-1.522,2.212-4.175,1.624-6.999
		c-0.591-2.827-3.379-6.425-8.18-8.782c-4.812-2.357-13.559-6.511-16.87-10.551c-5.06-6.185-6.864-14.472-10.933-21.138
		c-4.338-7.08-10.59-10.587-17.008-12.809c1.072-3.082,1.709-5.721,2.565-8.141c1.065-3.959,2.098-11.429,3.765-22.638
		c1.433-12.525,2.236-21.307,2.194-26.792c-0.078-9.875-0.446-15.038-3.602-17.224c-3.153-2.183-8.365,4.154-18.994,18.944
		c-3.255,4.2-6.079,7.954-8.902,11.712c-1.776-1.744-15.056-10.664-25.784-12.734c-1.104-0.651-12.087-14.312-39.01-27.17
		c-26.926-12.855-45.58-9.872-54.129-8.924c-4.158-5.909-11.04-12.862-19.549-17.21c-8.517-4.356-21.633-7.562-30.759-8.223
		c-9.132-0.662-18.282-1.185-27.998,2.445c-13.877,5.187-11.259,15.162-11.259,15.162c-8.725-1.893-18.806,2.558-23.466,7.307
		c1.677,1.232,4.193,2.82,5.594,4.593c-4.529,3.775-13.923,11.772-17.96,19.669c-5.024,0.655-15.99,0.439-23.236-3.188
		c-6.358-3.184-13.583-11.577-16.043-14.45c-2.459-2.87-6.719-2.533-6.507,4.925c0.212,7.462,10.399,42.092,36.09,45.92
		c-3.036,4.894-6.086,11.546-9.118,19.974c-3.729,1.21-9.645,3.542-14.61,10.13c-4.041,5.35-6.298,11.977-6.242,18.778
		c0.025,2.859,0.966,6.557,2.07,8.559c0,0,0.088-6.217,2.87-12.554c3.255-7.399,9.284-14.086,12.957-15.961
		c-3.896,11.57-5.587,19.899-5.527,27.107c0.035,4.614,0.733,8.998,2.314,14.033c1.582,5.686,3.811,9.402,6.677,10.912
		c0,0-1.214-13.375-1.242-17.104c-0.23-5.275,0.683-9.391,1.766-11.917c1.079-2.526,2.724-5.859,5.951-8.131
		c-0.067,2.76,0.138,8.075,0.322,10.541c0.251,3.368,1.122,8.103,1.829,10.031c0.708,1.936,1.879,4.32,3.089,5.233
		c0.63-1.391,0.796-3.882,1.04-7.289c0.23-3.153,0.725-7.844,1.68-11.492c0.963-3.648,3.967-7.774,6.528-9.872
		c2.569-2.091,6.655-3.415,8.227-3.397c-2.721,1.709-5.764,5.778-7.848,10.123c-2.084,4.348-3.737,10.307-3.138,15.278
		c4.628-8.421,17.391-19.305,24.135-19.782c0,0-12.954,15.084-13.099,23.31c1.953-0.244,5.463-3.206,7.766-4.915
		c-1.136,4.678-8.478,20.533-9.942,21.81c-1.468,1.281-47.466,14.189-61.244,19.418c-7.42,2.809-82.612,25.614-88.525,27.415
		c-3.004-12.416-12.196-21.523-24.255-23.714c-13.842-2.509-24.423,5.888-25.012,17.628c-0.711,14.252,5.997,22.758,15.441,28.069
		c9.447,5.318,18.877,7.215,29.895,1.833c8.623,5.598,30.015,15.466,45.87,21.258c19.807,7.076,34.658,10.664,49.14,10.65
		c23.735-0.021,89.052-23.342,96.935-25.822C380.943,374.899,399.201,387.531,410.891,395.804z"/>
	<path fill="#E9B90C" d="M379.676,234.312c-4.186,5.951-10.661,18.481-11.517,20.437c17.808,3.365,35.096,14.015,47.48,25.982
		c12.331,11.92,20.02,22.617,22.076,25.936c-0.004-0.219-1.026-11.156-2.544-18.374c-1.529-7.218-4.32-14.924-6.56-20.395
		l1.511-0.786c13.877,17.999,23.791,32.832,28.327,51.893c0.177-4.83,0.442-19.064,0.078-26.067
		c2.675,5.032,6.454,20.087,6.967,29.297c0.997,13.82,1.953,23.034,1.953,23.034c3.507-4.929,8.319-12.278,11.348-19.075
		c7.43,18.084-0.096,53.333-2.834,55.884c-0.233-4.097-1.238-11.758-1.967-15.165c-1.95,2.877-3.758,9.041-6.061,17.529
		c-3.605,13.279-9.302,15.487-9.302,15.487c1.645-10.93,2.962-30.836-0.265-31.965c-4.303,12.819-15.006,26.137-19.072,29.598
		c-0.874,0.007-0.633-3.772-1.086-5.523c-3.882,8.581-14.677,15.845-19.054,17.419c-0.902-0.297,3.63-8.343,4.122-9.854
		c-0.909-0.789-5.788-2.434-5.788-2.434c-2.976,1.171-12.395,7.07-19.302,14.535c-6.323,6.843-11.188,13.669-10.93,17.837
		c0,0,10.477-7.615,16.241-8.541c-2.098,4.281-2.951,8.004-7.501,15.292c-5.845,9.259-9.525,15.88-11.687,19.846
		c3.889-2.746,10.282-5.905,13.389-7.137c-1.818,3.623-3.276,7.561-6.365,15.883c12.589-2.487,31.424-10.155,38.762-12.741
		c2.403,10.003,4.225,37.938,11.132,38.769c11-4.002,29.053-17.95,40.004-28.391c2.155,5.856,4.929,12.15,8.06,16.871
		c14.291-6.719,25.451-25.2,33.614-38.603c4.872,5.247,8.651,14.033,10.516,19.56c13.17-9.111,23.116-40.768,27.174-50.459
		c1.511,4.49,8.46,17.804,10.53,21.987c16.81-10.916,21.035-42.721,22.779-53.775c4.738,5.024,10.3,15.222,13.555,21.202
		c8.499-13.361,9.398-33.695,12.89-48.789c5.124,7.777,13.729,18.742,25.426,15.89c1.221-18.87-10.106-26.137-10.106-26.137
		c-0.538-12.062-3.446-27.538-9.928-40.874c-4.837-10.12-11.383-20.434-19.224-30.957c-0.201,0.28-0.432,0.542-0.676,0.789
		c2.162,2.909,7.912,11.967,9.709,15.901c-0.145,0.325-0.647,0.506-0.899,0.534c-4.67-8.082-8.23-13.541-10.01-16.379
		c0-0.021,1.737-2.473,1.73-2.866c5.626,6.284,10.127,12.706,14.451,19.967c2.445,2.654,8.906,10.3,15.933,12.656
		c5.527,1.858,12.476,3.616,13.792,6.196c1.019-2.947-1.861-6.468-6.298-8.503c-4.419-2.038-12.228-5.69-17.635-11.008
		c-3.966-3.896-7.544-13.336-11.057-19.874c-3.506-6.539-9.054-10.41-16.991-14.291c-2.371,5.506-5.612,11.457-9.723,18.077
		c-7.579,12.352-18.997,20.271-18.997,20.271c2.442,3.708,3.843,4.872,6.504,7.923c-4.667,8.481-16.524-7.54-25.03-27.443
		c-2.905-6.341-9.723-23.862-18.049-48.152c0,0,3.45-0.028,5.113,6.167c5.031-1.458,12.345-3.708,18.742-7.059
		c6.401-3.34,11.747-7.94,15.936-12.497c-5.923-4.964-18.388-11.62-20.586-11.821c0.669,2.176,3.535,5.859,7.076,8.329
		c-7.002,0.612-11.436-7.855-12.554-11.333c-25.936-24.857-51.075-32.935-71.711-34.714c-13.577-1.175-26.343,1.967-39.427,4.724
		c3.28-2.003,6.779-3.566,10.717-4.918c-0.86-3.432-8.361-7.791-12.816-11.213c7.049,3.011,13.354,7.682,15.576,10.516
		c0.432-0.223,1.624-0.439,1.84-0.439c-10.841-12.115-33.95-18.374-40.977-18.756c-0.082-0.368-0.028-0.8,0.266-0.93
		c3.729,0.187,24.959,4.391,35.061,11.496c-12.257-11.326-31.647-16.082-49.2-15.933c-7.682,0.064-15.898,0.941-20.972,5.69
		c-5.074,4.741-3.92,10.399-3.92,10.399s4.242,1.051,7.253,2.898c3.015,1.85,4.632,3.896,4.957,4.922
		c-0.042,0.375-0.368,0.658-0.722,0.782c-3.432-4.869-9.115-7.579-12.787-7.133c0,0,6.832,2.707,6.769,6.033
		c-1.89-1.674-6.978-5.608-14.019-5.078c-6.67,0.495-10.349,2.845-12.133,4.663c0,0,5.194,3.715,5.198,3.938
		c-6.539,5.322-12.023,9.907-17.44,17.419c-10.579,14.656-11.779,23.646-11.779,23.646c14.054-5.852,25.777-6.362,25.777-6.362
		c-10.505,3.821-19.146,8.155-25.444,16.11c-4.989,6.192-8.474,14.008-8.87,19.061c2.176-2.431,5.813-5.307,7.989-7.073
		c8.934-7.54,16.28-9.79,23.176-10.717c6.903-0.92,10.544,0.955,11.075,1.985c-4.614-0.619-13.474-0.06-21.562,3.461
		c-8.092,3.524-15.324,9.798-21.973,16.403c-3.45,5.661-6.581,13.601-8.042,20.773c-1.305,6.38-2.134,10.983-2.003,15.544
		c0.216,7.922,3.17,16.308,4.943,18.707c-0.269-5.704-0.884-11.482-0.906-14.56c-0.035-4.356,1.108-8.743,2.105-11.354
		c1.005-2.604,4.295-7.084,6.9-9.284c1.68-15.618,9.451-20.671,9.451-20.671c-4.419,8.347-6.578,14.815-7.073,21.821
		c-0.495,7.006,0.234,11.425,0.676,15.062c0.446,3.637,2.009,8.421,2.009,8.414c0.17-1.982,0.326-4.979,0.584-7.37
		c0.184-1.748,0.591-6.415,1.32-8.984c0.729-2.565,3.008-7.646,5.605-11.213c2.601-3.574,7.71-8.166,14.288-9.097
		c0,0,0.853,0.881,0.856,1.32c-9.196,2.707-14.822,8.018-17.84,14.62c-0.007,0.014-0.011,0.029-0.018,0.043
		c1.826-2.583,4.982-5.757,8.474-7.215c3.488-1.458,8.545-2.65,11.446-1.111c-6.882,1.49-14.327,11.015-16.145,21.34
		c4.306-6.698,15.501-17.497,25.95-17.582c1.716-3.114,3.584-7.016,7.2-11.722C370.289,237.667,375.721,233.474,379.676,234.312z"/>
	<path d="M498.238,169.211l-0.439,0.007l0.003,0.216c10.552,2.325,19.146,6.645,25.561,12.515
		c3.542,3.262,7.533,8.276,11.974,14.383c-5.088-5-12.147-9.334-20.519-12.777c-9.026-3.655-17.606-5.775-25.288-5.488
		c-3.506-0.191-5.7,0.266-6.574,0.492c10.972-0.092,22.404,2.445,34.077,7.395c10.13,4.522,16.534,9.079,19.432,13.445
		c0.428-0.442,0.644-0.881,0.641-1.104C525.093,178.644,512.285,169.098,498.238,169.211z"/>
	<path d="M350.294,272.062L350.294,272.062L350.294,272.062z"/>
	<g>
		<path d="M445.687,222.629c-3.588-10.258-10.767-16.524-17.632-21.23c-3.262-2.233-8.775-5.201-16.711-5.835
			c-7.936-0.64-18.657,1.66-22.514,3.486c3.025-5.534,9.284-13.216,18.884-15.919c9.002,0.145,24.945,3.821,32.998,9.387
			c0,0-0.711-3.421-9.875-7.059c-7.823-3.103-21.297-4.037-21.52-4.037c0.899-0.909,3.708-2.243,8.616-2.579
			c5.017-0.347,10.742,0.311,16.489,3.075c5.746,2.76,11.489,5.927,14.415,7.307c2.922,1.384,6.581,2.728,8.555,3.156l-0.446-0.874
			c-2.201-0.64-5.502-2.151-10.137-4.525c-5.732-3.245-9.698-5.407-12.126-6.486c-5.725-2.587-11.439-3.637-16.708-3.372
			c0.439-0.442,0.69-1.996,0.69-1.996c6.139-0.209,10.785,0.853,14.217,1.964c2.342,0.761,5.806,2.629,7.586,3.836
			c1.776,1.2,3.846,2.866,7.208,4.946c6.634,4.101,9.026,3.22,9.026,3.22c-4.401-1.5-5.368-2.01-7.105-2.937
			c-1.741-0.927-5.697-3.807-6.765-4.663c-1.069-0.853-5.424-3.57-7.788-4.536c-2.367-0.966-5.414-1.744-9.387-2.204
			c-0.01-1.73,0.074-6.178-2.162-9.893c-4.77-7.943-9.405-6.578-9.405-6.578c1.613,0.899,5.877,2.792,7.682,6.946
			c1.801,4.15,1.68,9.369,1.705,9.408c-2.105-0.28-4.862-0.149-4.862-0.149c-0.021-2.636-0.18-3.333-1.458-5.877
			c-1.284-2.544-3.98-5.711-7.498-7.452l-0.371,0.456c1.546,1.083,4.409,2.732,5.856,5.987c1.44,3.251,1.267,5.576,0.69,7.82
			c-9.745,1.221-20.625,9.136-20.841,9.355c-1.115-2.406-4.349-6.429-8.945-10.597c-4.6-4.168-12.334-7.682-15.275-6.517
			c3.581,0.396,8.145,2.615,11.011,4.776c1.55,1.09,3.694,2.76,6.132,5.375c1.55,1.525,5.569,6.691,6.019,7.784
			c-0.22,0.219-0.825,0.711-1.097,1.029c-0.899-2.179-4.614-6.737-12.579-10.88c-9.634-5.024-16.095-3.68-16.095-3.68
			c2.317,0.782,7.144,1.741,11.075,3.018c3.924,1.27,7.653,3.45,9.773,5.035c2.123,1.589,4.345,3.747,6.79,7.678
			c-1.521,1.543-3.609,4.303-4.196,5.82c-1.327-1.309-7.537-5.123-12.862-5.183c1.543,0.87,8.846,3.796,11.719,6.627
			c-0.651,0.668-3.266,4.865-3.917,5.75c-0.878-0.432-2.491-1.681-7.724-3.34c-5.237-1.663-11.117-1.458-11.117-1.458
			c4.285,1.115,12.161,1.656,18.116,5.725c-0.216,0.439-1.005,1.416-0.998,1.854c-2.647-1.518-8.177-4.267-15.116-4.522
			c-6.938-0.258-10.94,1.582-11.832,2.951c0,0,5.601-2.516,12.129-1.865c6.532,0.647,11.606,3.248,13.813,4.547
			c-1.083,1.982-1.914,3.135-1.907,3.793c0,0-6.344-3.669-9.713-0.449c3.383-0.878,6.372-0.099,9.161,1.918
			c-0.81,1.847-1.302,3.959-1.086,5.36c4.196-2.643,10.792-6.411,24.743-6.429c13.955-0.018,32.184,7.063,39.671,14.429
			c7.491,7.363,10.923,13.307,12.257,15.175c1.419-0.233,2.622-1.553,2.838-2.211C454.656,232.564,448.433,224.964,445.687,222.629z
			 M408.828,206.724c-12.865-1.698-25.713,2.608-29.378,4.264c1.872-4.133,5.251-8.481,8.425-10.336
			c6.631-2.445,19.559-4.557,28.204-2.926c8.651,1.638,21.279,11.57,25.706,21.347C432.355,211.448,421.69,208.43,408.828,206.724z"
			/>
	</g>
	<path d="M415.742,370.71c-6.033,1.341-10.112-0.007-12.09-0.87c0,0-0.644,0.378-0.87,1.026c1.475,1.079,5.403,2.862,10.311,2.816
		c4.246-0.036,7.869-0.294,12.048-4.412c4.171-4.115,3.871-11.029,1.974-8.053C424.96,364.592,421.775,369.372,415.742,370.71z"/>
	<path d="M401.225,142.373c10.371,0.704,20.603,2.385,25.331,3.368c-7.487-2.838-17.592-4.412-25.331-3.815
		C401.225,141.927,401.225,141.927,401.225,142.373z"/>
	<path fill="#B7791B" d="M567.185,265.86c-2.226-5.534-6.188-12.741-11.712-23.165c-4.67-7.862-7.345-12.664-7.798-14.199
		c-0.878,0.007-1.751,0.453-2.633,0.679c6.238,10.484,11.164,22.291,15.229,35.648l-0.22,0.219
		c-2.922-8.092-7.852-20.122-15.222-35.645c-1.093,0.23-2.187,0.679-3.064,1.125c3.117,5.24,9.599,17.377,13.619,26.735
		c5.835,13.594,5.863,20.069,5.863,20.069c1.561,2.618,3.344,5.456,5.116,8.081c1.15-1.086,2.381-2.335,3.673-3.715
		C570.949,276.605,569.414,271.397,567.185,265.86z"/>
	<path fill="#C4831B" d="M601.499,181.514c-3.082,1.921-14.1,20.094-19.761,25.851c-7.179,7.515-16.35,13.52-27.503,18.226
		c2.877,2.388,7.979,9.146,15.537,20.278l-0.439,0.665c-8.198-9.373-13.958-15.908-16.842-20.055
		c-1.097,0.23-1.971,0.899-2.629,1.121c3.34,5.679,6.687,12.016,10.045,19.45c1.065,2.441,7.912,16.495,8.938,19.33
		c1.029,2.824,2.961,9.189,2.516,13.866c9.249-10.3,20.777-26.969,24.676-42.276C600.696,219.731,604.567,179.603,601.499,181.514z"
		/>
	<path fill="#B16F1C" d="M559.248,273.609c-2.233-4.147-4.462-8.52-6.475-12.894c-4.918-10.93-13.414-29.074-13.414-29.297
		c0-0.216,1.093-0.665,1.532-0.669c1.564,3.276,5.138,10.71,10.721,22.295C555.629,260.913,558.102,267.915,559.248,273.609z"/>
	<path fill="#C4831B" d="M311.78,204.941c-4.437-2.852-9.67-9.355-13.679-15.565c-4.009-6.206-8.269-19.135-7.179-21.254
		c1.497-2.905,5.176,6.206,11.669,11.475c6.125,4.975,12.752,7.381,23.947,7.289l2.413-0.025c-5.884,10.76-5.116,18.261-4.894,18.7
		c1.759,0.205,9.171-2.721,10.265-2.951c-2.041,1.122-7.791,5.343-9.868,8.159C320.658,210.199,316.221,207.803,311.78,204.941z"/>
	<path fill="#E9B90C" d="M294.258,263.751c0,0-1.489-20.129,18.849-27.606c-0.648,0.906-1.854,3.305-2.272,4.646
		C302.917,244.481,296.003,255.153,294.258,263.751z"/>
	<path fill="#E9B90C" d="M351.695,265.747c2.732-4.062,7.636-9.408,8.51-10.077c-0.559,3.461-1.093,6.044-4.749,10.516
		c-3.142,3.832-7.66,9.047-9.249,10.066C346.208,276.252,348.971,269.812,351.695,265.747z"/>
	<path fill="#7F7060" d="M184.716,357.586c0,0,3.478-7.186-1.532-16.75c-4.448-8.51-10.895-13-19.121-13.569
		c-3.942-0.272-10.381,1.426-12.108,5.269c1.521-1.769,6.061-4.26,11.1-4.239c5.032,0.021,10.013,1.921,13.491,5.354
		c1.773,1.751,5.548,6.797,6.992,12.009c1.444,5.216,0.683,10.721-1.1,11.574c-3.637,1.755-9.412,0.339-13.286-1.125
		c-9.401-3.559-12.211-11.184-12.211-11.184c-0.81,1.79,1.95,5.888,4.593,8.057c3.315,2.831,10.502,5.478,15.993,6.309
		c-4.968,0.361-13.088-2.565-17.323-5.718c-4.232-3.156-6.44-7.54-6.44-7.54c0.474,2.997,1.705,5.219,6.323,9.005
		c4.624,3.786,16.187,6.366,23.385,5.484c-0.952,0.899-3.56,1.681-7.954,1.458c-6.323-0.329-12.71-2.056-18.551-6.532
		c-5.838-4.479-7.526-10.802-7.221-17.154c0.272-5.612,1.967-9.005,6.861-11.089c4.525-1.925,9.967-1.822,14.38-0.138
		c4.409,1.684,9.366,5.53,12.295,10.371C189.281,347.368,188.662,356.758,184.716,357.586z"/>
	<path fill="#A36D31" d="M191.004,364.277c-0.878-0.209-2.141-0.884-2.583-1.323c3.096-3.889,4.136-7.667,3.124-15.494
		C193.633,351.005,194.051,361.921,191.004,364.277z"/>
	<path fill="#AB7032" d="M191.846,364.829c1.84-1.925,2.183-5.785,2.247-8.853c0.106-4.614-1.369-8.128-1.723-8.895
		c0.418-0.382,1.401-0.411,1.401-0.411c0.439,0.747,2.328,4.175,2.282,9.801c-0.046,5.47-1.504,8.69-1.967,9.5
		C193.371,365.721,192.313,365.289,191.846,364.829z"/>
	<path fill="#BB8036" d="M195.034,366.418c1.858-4.419,3.51-12.338-0.552-19.832c0.216-0.223,1.695-0.499,1.918-0.506
		c0.669,1.093,2.3,4.356,2.753,8.545c0.4,3.694,0.382,8.531-1.89,12.901C196.715,367.31,195.444,366.807,195.034,366.418z"/>
	<path fill="#C4831B" d="M478.038,332.213c-4.158,9.001-12.317,19.588-12.317,19.588c-0.963-10.087-2.3-38.044-5.417-46.999
		c0.931,12.398-0.878,26.703-2.378,30.235l-1.539,0.01c2.042-18.236-4.964-36.108-21.286-57.745
		c6.373,14.868,6.344,33.342,6.1,38.012c-20.02-27.878-45.977-54.659-76.275-58.969c0,0,5.191-10.512,11.326-19.245
		c0,0-5.417-0.471-14.323,15.862c0.633,9.592-3.772,14.327-7.321,18.792c0.46,5.056-11.216,27.853-12.239,28.536
		c-1.019,0.683-14.465,5.52-19.39,6.819c-5.424,1.422-61.075,20.136-69.62,22.84c-8.552,2.693-46.058,13.626-55.912,15.901
		c2.438,3.057,4.709,14.433,0.895,22.295c13.661,6.465,25.553,11.857,35.68,15.282c19.149,7.087,36.876,10.65,49.865,9.992
		c12.986-0.655,48.291-10.909,67.32-17.147c19.022-6.245,37.347-12.111,50.459-16.63c13.113-4.529,18.81-6.984,24.705-10.449
		c5.891-3.457,9.426-7.236,10.562-12.837c1.143-5.598-1.415-8.694-4.072-9.001c-4.547-0.531-15.427,2.399-15.866,2.399
		c0,0,0.251-2.707,3.16-4.069c2.47-1.153,9.557-2.509,15.929-2.565c7.331-0.06,11.765,2.112,15.211,6.199
		c3.446,4.087,5.509,10.799,1.628,11.68c-1.904-8.765-6.783-13.265-12.335-13.216c2.491,4.303,2.36,9.302-1.921,15.969
		c-4.285,6.67-16.443,12.274-27.001,16.064c-10.555,3.786-24.138,8.722-28.076,10.073c4.405,1.939,12.568,6.921,24.485,14.942
		c12.805,8.45,17.84,12.2,18.063,12.639c0.011,0.878-1.674,5.219-1.666,5.654c3.276-1.334,6.758-5.315,10.427-12.812
		c2.587-5.29,4.957-11.015,6.879-17.614c3.06-0.021,0.035,14.532-0.811,17.829c0,0,11.553-10.533,16.828-27.539
		c2.335,0.92,3.952,3.875,4.787,8.287c0.842,4.412,0.007,16.184-0.325,20.986c1.886-2.328,4.536-9.574,6.182-17.221
		c1.642-7.639,6.004-13.998,6.004-13.998s2.151,5.396,2.795,10.311C479.318,355.884,479.849,339.414,478.038,332.213z"/>
	<path d="M439.045,305.464c-1.121-3.061-3.938-22.475-6.422-29.478C437.039,283.976,438.77,298.667,439.045,305.464z"/>
	<path fill="#C8BCAC" d="M163.123,331.502c3.269-0.821,9.327,1.529,12.908,7.278c3.58,5.757,3.319,12.819-5.049,10.484
		C162.606,346.922,153.183,333.993,163.123,331.502z"/>
	<path fill="#FFFFFF" d="M161.346,330.232c2.884-0.35,7.494,0.679,8.393,5.23c1.171,5.934-6.213,5.509-9.61,3.131
		C156.732,336.215,155.964,330.876,161.346,330.232z"/>
	<path fill="#DCA742" d="M246.895,337.896c8.018-2.353,34.548-11.839,49.108-16.319c14.567-4.479,32.832-8.552,41.09-11.453
		c7.876-2.77,4.041,19.609-37.658,30.603C252.468,353.103,199.514,351.801,246.895,337.896z"/>
	<path fill="#DCA742" d="M418.301,324.641c5.297-2.455,14.861-4.108,22.235-3.021c6.39,0.941,9.886,3.039,12.037,6.28
		c2.155,3.241,1.44-3.117-0.474-5.81c-4.306-6.061-14.733-6.825-24.22-5.045C418.393,318.824,413.8,326.725,418.301,324.641z"/>
	<path fill="#DCA742" d="M306.515,184.748c2.661,1.776,9.309,3.209,12.6,3.464c3.283,0.262-3.368,7.597-10.399,3.514
		C301.689,187.649,299.343,179.957,306.515,184.748z"/>
	<path fill="#DCA742" d="M568.101,222.119c5.148-3.496,12.494-9.242,16.591-14.56c4.094-5.318,8.039-11.206,9.737-13.927
		c1.681-2.732,3.241,12.819-5.951,23.749C579.293,228.304,562.567,225.877,568.101,222.119z"/>
	<path fill="#F2D029" d="M375.657,218.447c0,0,12.009-7.784,30.309-6.84c18.3,0.945,28.596,7.076,35.263,16.899
		c6.666,9.826,5.315,23.006,5.315,23.006s-8.552-16.39-28.013-25.373C399.063,217.152,375.657,218.447,375.657,218.447z"/>
	<path d="M401.554,218.956c-9.433-0.226-20.006,2.434-20.228,2.441c9.613-0.049,20.756,0.563,29.909,2.696
		c9.157,2.126,14.217,7.098,16.17,9.178c1.953,2.08,3.658,4.175,4.097,4.171c1.974-0.017,2.176-1.995,2.176-1.995
		c-0.244-2.852-3.828-6.691-9.787-10.456C417.94,221.228,410.994,219.179,401.554,218.956z"/>
	<path fill="#F2D029" d="M331.58,197.592c0,0,13.463-8.892,29.177-11.22c15.71-2.325,25.642,4.179,25.642,4.179
		s0.273-12.565-21.679-11.528C336.562,180.357,331.58,197.592,331.58,197.592z"/>
	<path fill="#F2D029" d="M358.386,165.538c0,0,10.58-4.108,21.969,2.013c11.39,6.125,14.019,13.785,14.019,13.785
		s8.711-7.756-6.372-17.872C372.918,153.345,358.386,165.538,358.386,165.538z"/>
	<path fill="#F2D029" d="M393.759,195.61c0,0,12.398-4.862,28.175,0.499c15.774,5.354,24.708,23.204,24.708,23.204
		s4.947-20.525-20.727-28.727C400.234,182.388,393.759,195.61,393.759,195.61z"/>
	<path fill="#F2D029" d="M328.842,219.932c0,0,6.882-7.738,19.319-8.577c12.433-0.828,19.057,4.232,19.057,4.232
		s2.849-9.532-13.983-9.762C336.403,205.603,328.842,219.932,328.842,219.932z"/>
	<path fill="#F2D029" d="M323.803,230.222c0,0,16.358-12.943,30.992-13.067c14.631-0.12,21.254,4.95,21.254,4.95
		s-13.912-1.716-25.607-0.155C338.749,223.51,323.803,230.222,323.803,230.222z"/>
	<path fill="#F2D029" d="M430.522,172.987c0,0,16.007-11.974,37.955-11.291c27.807,0.867,34.519,15.445,34.519,15.445
		s-17.635-9.002-37.025-8.474C446.586,169.197,430.522,172.987,430.522,172.987z"/>
	<path fill="#F2D029" d="M437.478,174.027c0,0,14.62-2.678,28.515-2.799c13.899-0.113,25.274,3.446,25.274,3.446
		s-16.453,1.603-28.526,1.702C450.672,176.479,437.478,174.027,437.478,174.027z"/>
	<path fill="#F2D029" d="M466.807,181.1c0,0,24.124-2.76,44.31,4.748c20.186,7.523,26.509,20.274,26.509,20.274
		s-17.649-10.831-32.322-15.466C490.63,186.022,466.807,181.1,466.807,181.1z"/>
	<path fill="#F2D029" d="M471.966,185.08c0,0,17.589,3.513,35.574,10.682c17.985,7.169,35.666,21.29,35.666,21.29
		s-21.24-2.753-42.169-11.726C480.104,196.353,471.966,185.08,471.966,185.08z"/>
	<path fill="#F2D029" d="M386.428,149.938c0,0,13.088-9.982,38.036-1.773c16.708,5.488,18.735,9.716,18.735,9.716
		s-11.361-2.753-23.834-6.383C404.696,147.228,386.428,149.938,386.428,149.938z"/>
	<path fill="#F2D029" d="M531.168,221.535c0.775,4.752,11.167,41.709,18.406,57.288c11.174,24.053,26.944,29.41,26.944,29.41
		s-27.39,4.986-40.46-27.103C522.981,249.046,531.168,221.535,531.168,221.535z"/>
	<path fill="#F2D029" d="M525.836,239.51c0,0-4.458,36.621,14.376,56.952c18.824,20.328,31.955,15.098,31.955,15.098
		s-30.995,12.334-45.145-16.818C512.879,265.594,525.836,239.51,525.836,239.51z"/>
	<path fill="#F2D029" d="M421.397,451.797c19.602-25.005,48.506-43.323,48.506-43.323s-17.603,1.946-36.83,15.586
		C418.785,434.197,416.273,449.501,421.397,451.797z"/>
	<path fill="#F2D029" d="M438.642,454.443c25.515-32.446,61.043-58.527,61.043-58.527s-12.126,5.01-23.342,11.917
		C446.433,426.25,433.734,448.198,438.642,454.443z"/>
	<path fill="#F2D029" d="M444.83,486.451c0,0,6.196-29.938,20.664-51.733c14.472-21.803,41.299-36.681,41.299-36.681
		s-24.973,26.576-35.96,44.837C459.858,461.134,444.83,486.451,444.83,486.451z"/>
	<path fill="#B16F1C" d="M412.752,372.369c3.956-1.2,19.164-7.052,24.202-12.175c5.035-5.123,7.904-9.132,8.244-11.676
		c0.343-2.544,10.176,10.643-5.987,21.456C426.584,378.42,406.596,374.237,412.752,372.369z"/>
	<path fill="#B16F1C" d="M369.476,258.97c0,0,12.419,1.982,27.517,11.793c7.813,5.078,18.972,16.478,23.951,21.874
		c6.921,7.494,9.557,10.93,9.557,10.93s-14.235-1.32-27.616-10.912C389.506,283.059,369.476,258.97,369.476,258.97z"/>
	<path fill="#B16F1C" d="M437.34,281.495c0,0,5.226,6.953,10.778,17.582c6.694,12.819,7.377,22.995,7.377,22.995
		s-5.032-11.04-8.064-14.907c-2.084-2.671-6.036-5.64-6.036-5.64s-0.343-5.683-1.437-10.919
		C438.865,285.377,437.34,281.495,437.34,281.495z"/>
	<g>
		<path d="M403.206,306.677c-3.566,11.011-15.377,17.058-26.392,13.492c-11.018-3.56-17.048-15.367-13.481-26.382
			c3.549-11,15.363-17.04,26.378-13.488C400.715,283.863,406.755,295.67,403.206,306.677z"/>
		<path fill="#FFFFFF" d="M400.305,304.877c-2.933,9.04-12.632,14.004-21.697,11.078c-9.048-2.926-14.008-12.639-11.078-21.672
			c2.916-9.054,12.632-14.015,21.676-11.096C398.249,286.12,403.22,295.829,400.305,304.877z"/>
	</g>
	<g>
		<path d="M394.622,301.589c-1.734,5.34-7.473,8.287-12.823,6.55c-5.339-1.727-8.276-7.455-6.549-12.809
			c1.727-5.339,7.462-8.276,12.809-6.542C393.405,290.518,396.349,296.243,394.622,301.589z"/>
		<path fill="#FFFFFF" d="M392.68,297.128c-0.531,1.674-2.336,2.59-4.02,2.049c-1.688-0.538-2.604-2.346-2.059-4.023
			c0.538-1.681,2.342-2.604,4.027-2.059C392.301,293.635,393.235,295.44,392.68,297.128z"/>
	</g>
	<g>
		<path d="M351.911,299.219c-2.951,9.115-12.72,14.107-21.828,11.156c-9.111-2.933-14.111-12.71-11.167-21.82
			c2.951-9.108,12.72-14.111,21.828-11.167C349.856,280.335,354.852,290.108,351.911,299.219z"/>
		<path fill="#FFFFFF" d="M349.506,297.719c-2.417,7.491-10.449,11.602-17.936,9.171c-7.487-2.417-11.592-10.449-9.171-17.932
			c2.417-7.487,10.449-11.591,17.932-9.178C347.825,282.203,351.926,290.235,349.506,297.719z"/>
	</g>
	<g>
		<path d="M345.649,295.613c-1.422,4.405-6.142,6.819-10.544,5.396c-4.401-1.422-6.822-6.15-5.389-10.544
			c1.416-4.405,6.136-6.818,10.534-5.396C344.647,286.491,347.068,291.215,345.649,295.613z"/>
		<path fill="#FFFFFF" d="M344.06,291.937c-0.442,1.376-1.935,2.137-3.315,1.691c-1.38-0.446-2.151-1.932-1.702-3.316
			c0.453-1.38,1.939-2.141,3.315-1.695C343.749,289.071,344.502,290.546,344.06,291.937z"/>
	</g>
	<polygon points="344.269,268.701 311.501,278.463 312.308,267.406 	"/>
	<polygon points="412.544,260.587 405.715,273.743 369.578,261.914 	"/>
</g>
</svg>
