<?xml version="1.0" encoding="utf-8"?>
<!-- Generator: Adobe Illustrator 17.0.0, SVG Export Plug-In . SVG Version: 6.00 Build 0)  -->
<!DOCTYPE svg PUBLIC "-//W3C//DTD SVG 1.1//EN" "http://www.w3.org/Graphics/SVG/1.1/DTD/svg11.dtd">
<svg version="1.1" id="Layer_1" xmlns="http://www.w3.org/2000/svg" xmlns:xlink="http://www.w3.org/1999/xlink" x="0px" y="0px"
	 width="800px" height="600px" viewBox="0 0 800 600" enable-background="new 0 0 800 600" xml:space="preserve">
<g>
	<g>
		<g>
			<g>
				<path fill="#E6AE9D" d="M333.807,499.641c-6.422,0-13.174-4.044-17.621-10.553c-4.813-7.043-6.017-15.523-3.224-22.686
					c1.628-4.17,3.625-8.124,5.785-11.802c-1.357,1.303-2.699,2.617-4.037,3.925c-11.494,11.239-23.379,22.865-38.617,22.865
					c-5.878,0-11.89-1.777-17.87-5.283c-10.837-6.357-18.379-16.757-21.808-30.084c-3.587-13.946-2.345-30.637,3.596-48.266
					c5.791-17.18,16.505-32.653,27.019-45.165c-12.034,9.534-23.877,19.914-29.994,25.826c-7.034,6.799-14.69,10.391-22.139,10.391
					c-6.146,0-11.775-2.388-16.28-6.905c-13.148-13.195-5.499-44.073,17.058-68.834c10.458-11.485,32.537-28.142,56.244-42.437
					c15.329-9.243,43.869-25.019,66.808-29.507c19.198-30.58,42.857-53.742,70.354-68.871
					c18.393-10.122,30.698-15.608,43.011-15.608c2.557,0,5.063,0.232,7.66,0.708c9.101,1.665,16.087,7.966,19.674,17.737
					c1.629,4.445,2.503,9.652,2.623,14.413c8.22-2.763,15.62-4.061,25.51-4.682c1.306-0.081,2.614-0.124,3.89-0.124
					c16.789,0,31.015,7.035,39.028,19.303c6.416,9.825,7.618,21.687,3.21,31.729c-6.63,15.109-27.743,19.758-48.159,24.253
					c-3.461,0.762-6.732,1.48-9.916,2.249c-2.501,0.603-4.974,1.23-7.407,1.876c8.456-0.999,15.769-1.479,22.307-1.479
					c10.282,0,18.562,1.213,25.316,3.71c14.415,5.33,20.004,14.692,22.157,21.608c2.899,9.311,1.287,19.32-1.581,27.032
					c13.102,0.901,23.961,5.64,30.901,13.569c5.982,6.837,8.62,15.496,7.434,24.385c-2.952,22.04-19.414,31.92-33.431,38.063
					c-3.247,1.425-6.933,3.039-10.997,4.813c-55.383,24.22-185.083,80.936-206.103,99.786c-2.95,2.648-6.545,4.045-10.398,4.045
					C333.809,499.641,333.809,499.641,333.807,499.641z"/>
				<path fill="#F0C7B8" d="M452.092,162.622c2.198,0,4.375,0.206,6.586,0.61c19.462,3.563,18.711,32.23,16.024,35.506
					c12.035-5.137,20.267-7.136,33.236-7.951c1.191-0.076,2.36-0.112,3.511-0.112c29.634,0.002,44.798,24.357,36.765,42.656
					c-6.398,14.578-32.999,18.03-54,23.093c-38.034,9.167-72.35,24.765-66.01,24.765c0.7,0,1.886-0.188,3.619-0.594
					c11.062-2.602,23.582-5.257,36.307-7.462c16.362-2.835,30.549-4.528,42.382-4.528c9.207,0,16.987,1.025,23.244,3.34
					c28.921,10.693,19.464,39.8,12.965,49.034c1.731-0.122,3.402-0.179,5.025-0.179c26.448,0,39.163,15.668,37.066,31.342
					c-2.243,16.756-13.168,26.047-29.902,33.385c-48.514,21.266-195.401,84.732-218.692,105.624c-1.95,1.749-4.156,2.517-6.41,2.517
					c-9.472,0-19.771-13.575-15.279-25.092c8.314-21.317,27.761-37.448,24.233-37.448c-0.266,0-0.665,0.091-1.21,0.28
					c-25.994,9.042-41.87,44.008-65.459,44.008c-4.608,0-9.517-1.338-14.847-4.463c-18.143-10.639-27.449-36.045-15.571-71.287
					c14.036-41.646,59.719-74.145,53.3-74.145c-0.448,0-1.151,0.157-2.135,0.483c-15.085,4.977-52.278,36.832-63.957,48.119
					c-6.309,6.097-12.507,8.711-17.985,8.711c-4.661,0-8.803-1.893-12.046-5.148c-10.586-10.622-2.781-38.615,17.241-60.592
					c20.019-21.981,85.645-64.753,122.304-70.549c12.837-20.936,34.792-49.923,69.562-69.054
					C430.33,167.381,441.495,162.622,452.092,162.622L452.092,162.622z M452.094,150.673L452.094,150.673
					c-13.604-0.002-26.626,5.745-45.895,16.347c-27.747,15.266-51.669,38.39-71.17,68.782c-23.365,5.277-51.082,20.6-66.195,29.714
					c-24.532,14.791-46.595,31.472-57.577,43.53c-10.881,11.944-18.966,25.922-22.763,39.351
					c-4.517,15.98-2.425,29.377,5.892,37.726c5.569,5.588,12.852,8.662,20.511,8.662c5.786,0,14.42-1.767,23.791-9.791
					c-1.629,3.531-3.09,7.151-4.339,10.858c-6.312,18.727-7.599,36.591-3.721,51.665c1.903,7.393,5.003,14.061,9.212,19.822
					c4.18,5.714,9.348,10.4,15.36,13.924c6.906,4.051,13.936,6.104,20.891,6.104c8.289,0,16.371-2.835,24.705-8.666
					c1.602-1.12,3.172-2.322,4.717-3.582c0.142,5.961,2.092,12.008,5.738,17.344c5.629,8.239,14.061,13.156,22.556,13.156
					c5.35,0,10.326-1.926,14.389-5.572c4.761-4.274,22.508-15.994,87.843-46.501c41.998-19.608,88.737-40.047,116.664-52.259
					c4.065-1.777,7.754-3.39,11.003-4.816c10.65-4.669,18.347-9.702,24.221-15.842c7.042-7.36,11.325-16.413,12.727-26.903
					c1.423-10.621-1.727-20.96-8.862-29.11c-6.617-7.567-16.191-12.604-27.633-14.685c1.928-8.367,1.766-16.57-0.472-23.757
					c-2.549-8.197-9.097-19.264-25.789-25.436c-1.702-0.629-3.481-1.183-5.344-1.663c1.028-0.366,2.044-0.745,3.046-1.139
					c12.1-4.775,19.803-11.251,23.555-19.801c5.219-11.897,3.847-25.877-3.681-37.398c-4.318-6.612-10.48-12.118-17.82-15.918
					c-7.801-4.041-16.619-6.091-26.208-6.092c-1.4,0-2.836,0.045-4.262,0.136c-7.468,0.47-13.698,1.34-19.868,2.886
					c-0.46-2.735-1.179-5.695-2.284-8.71c-4.345-11.84-12.941-19.495-24.207-21.558
					C457.872,150.936,455.014,150.673,452.094,150.673L452.094,150.673z"/>
			</g>
		</g>
	</g>
	<g>
		<g>
			<g>
				<circle fill="#C04E35" cx="497.776" cy="445.612" r="52.864"/>
				<path fill="#A72D21" d="M497.775,499.442c-29.679,0-53.827-24.147-53.827-53.829c0-29.682,24.148-53.829,53.827-53.829
					c29.683,0,53.83,24.148,53.83,53.829C551.605,475.294,527.458,499.442,497.775,499.442L497.775,499.442z M497.775,393.71
					c-28.618,0-51.899,23.284-51.899,51.902c0,28.618,23.281,51.902,51.899,51.902c28.621,0,51.905-23.284,51.905-51.902
					C549.68,416.994,526.395,393.71,497.775,393.71L497.775,393.71z"/>
			</g>
			<path fill="#AC321C" d="M544.849,459.896c-1.609,9.128-11.084,23.215-25.412,30.245c-16.701,8.193-35.791,3.757-43.487-0.18
				c-7.695-3.938,17.884-3.924,34.896-11.454C532.68,468.843,546.461,450.769,544.849,459.896z"/>
			<path fill="#D97258" d="M538.275,432.023c0,19.111-15.494,34.603-34.607,34.603c-19.107,0-34.602-15.492-34.602-34.603
				c0-19.111,15.494-34.604,34.602-34.604C522.781,397.419,538.275,412.912,538.275,432.023z"/>
			<path fill="#D97258" d="M496.396,483.019c0,3.694-2.998,6.691-6.697,6.691c-3.694,0-6.692-2.997-6.692-6.691
				c0-3.697,2.998-6.693,6.692-6.693C493.398,476.326,496.396,479.323,496.396,483.019z"/>
		</g>
		<g>
			<path fill="#F7B8A4" d="M518.658,482.922c-6.978,0.001-12.033-5.374-12.583-13.374c-0.584-8.476,1.185-16.855,2.475-22.973
				c0.367-1.738,0.681-3.238,0.881-4.464c0.849-5.131,1.735-12.231-0.29-14.613c-0.471-0.551-1.086-0.819-1.902-0.819h-0.053
				c-4.561,0.065-9.129,18.108-11.282,35.898c-0.225,1.868-2.103,3.025-3.712,3.025c-0.846,0-1.576-0.304-2.066-0.856
				c-0.366-0.417-0.77-1.179-0.612-2.448c2.156-17.248,2.848-36.611-0.731-38.371c-0.37-0.182-0.736-0.272-1.09-0.272
				c-3.398,0-6.521,8.205-7.742,15.925c-0.968,6.133-1.295,10.761-1.612,15.235c-0.193,2.691-0.372,5.231-0.68,8.038
				c-0.225,2.018-1.9,3.074-3.438,3.074c-0.857,0-1.64-0.317-2.205-0.889c-0.429-0.431-0.932-1.22-0.917-2.529
				c0.019-1.556,0.07-3.323,0.125-5.193c0.236-8.176,0.559-19.374-1.638-24.897c-0.798-2.011-2.021-3.212-3.269-3.212
				c-0.675,0-1.335,0.341-1.913,0.99c-1.44,1.613-2.05,4.733-1.64,8.347c0.071,0.632-0.13,1.01-0.313,1.214
				c-0.225,0.253-0.556,0.394-0.92,0.394c-1.343,0-3.172-1.867-3.749-4.644c-1.301-6.229,0.788-13.676,7.228-15.206
				c0.661-0.156,1.313-0.235,1.939-0.235c4.719,0,7.384,4.279,8.823,8.066c1.569-5.884,6.114-12.618,11.79-12.699l0.116-0.001
				c6.415,0,8.769,7.257,9.58,11.256c1.547-3.152,4.908-8.295,10.294-8.295c1.456,0,2.969,0.386,4.496,1.149
				c4.824,2.409,6.734,10.683,5.797,17.286c-0.454,3.177-0.931,6.192-1.389,9.108c-0.955,6.054-1.855,11.775-2.388,17.891
				c-0.52,6.001,0.463,9.525,2.93,10.472c0.722,0.277,1.4,0.418,2.015,0.418c1.104,0,2.041-0.444,2.853-1.357
				c2.47-2.769,3.025-9.025,3.021-12.627c-2.531,3.327-6.382,6.063-7.557,6.063c-0.301,0-0.564-0.132-0.717-0.366
				c-0.096-0.141-0.223-0.439-0.051-0.851c0.424-0.996,1.166-2.48,2.097-4.363c1.544-3.109,3.658-7.368,5.518-11.818l0.347-0.831
				l0.737,0.519c3.275,2.31,10.938,8.302,13.455,10.269c0.428,0.331,0.717,0.561,0.844,0.658c0.393,0.306,0.434,0.709,0.344,0.984
				c-0.235,0.678-1.12,0.678-1.499,0.678c-1.38,0-4.434-0.559-7.965-2.523c2.126,7.978,1.124,19.597-6.529,22.707
				C522.18,482.565,520.411,482.922,518.658,482.922L518.658,482.922z"/>
			<path fill="#7E282D" d="M487.679,416.156c8.103,0,9.252,13.147,9.252,13.147s3.449-10.188,10.622-10.188
				c1.276,0,2.662,0.32,4.171,1.075c4.583,2.287,6.288,10.331,5.405,16.537c-1.389,9.761-2.992,17.945-3.782,27.037
				c-0.523,6.058,0.438,10.075,3.395,11.21c0.828,0.318,1.587,0.465,2.272,0.465c6.721,0,6.837-14.055,6.5-16.97
				c-2.273,4.163-7.311,7.606-8.183,7.606c-0.122,0-0.161-0.068-0.102-0.213c1.126-2.65,4.655-9.1,7.615-16.184
				c3.793,2.675,13.371,10.214,14.276,10.91c0.276,0.213-0.015,0.366-0.714,0.366c-1.578,0-5.247-0.78-9.216-3.405
				c2.592,7.276,2.501,20.374-5.55,23.644c-1.668,0.68-3.353,1.007-4.979,1.007c-6.065,0-11.308-4.586-11.864-12.699
				c-0.742-10.82,2.453-21.776,3.353-27.272c1.606-9.768,1.477-16.272-2.907-16.272c-0.02,0-0.042,0-0.06,0
				c-6.206,0.088-10.486,24.093-11.988,36.537c-0.176,1.456-1.687,2.387-2.998,2.387c-1.168,0-2.181-0.736-1.961-2.493
				c0.48-3.828,4.398-36.393-1.131-39.109c-0.483-0.236-0.951-0.347-1.408-0.347c-4.233-0.001-7.345,9.505-8.456,16.537
				c-1.546,9.794-1.467,15.767-2.297,23.305c-0.175,1.57-1.474,2.43-2.719,2.43c-1.237,0-2.422-0.847-2.399-2.687
				c0.104-8.577,1.183-23.454-1.563-30.364c-0.993-2.494-2.487-3.669-3.944-3.669c-2.571,0-5.007,3.662-4.27,10.141
				c0.064,0.547-0.155,0.804-0.514,0.804c-0.852,0-2.501-1.473-3.043-4.068c-1.245-5.962,0.739-12.94,6.686-14.355
				c0.624-0.146,1.216-0.215,1.775-0.215c5.12,0,7.801,5.755,9.009,10.299c0.54-5.75,5.383-14.843,11.613-14.932
				C487.609,416.156,487.645,416.156,487.679,416.156L487.679,416.156z M487.679,414.709l-0.124,0.002
				c-5.408,0.077-9.832,5.746-11.877,11.341c-2.089-4.363-5.098-6.71-8.728-6.71c-0.684,0-1.391,0.088-2.106,0.257
				c-6.885,1.635-9.142,9.493-7.768,16.057c0.672,3.221,2.837,5.217,4.457,5.217c0.575,0,1.093-0.225,1.459-0.633
				c0.279-0.315,0.595-0.88,0.491-1.779c-0.389-3.414,0.158-6.324,1.46-7.784c0.305-0.341,0.791-0.749,1.374-0.749
				c0.929,0.001,1.925,1.056,2.6,2.757c2.139,5.385,1.82,16.498,1.584,24.609c-0.054,1.873-0.102,3.644-0.125,5.206
				c-0.017,1.557,0.602,2.514,1.127,3.047c0.703,0.711,1.668,1.102,2.72,1.102c1.86,0,3.886-1.275,4.153-3.716
				c0.31-2.822,0.493-5.37,0.683-8.069c0.316-4.456,0.646-9.068,1.609-15.173c1.312-8.302,4.53-15.315,7.026-15.315
				c0.246,0,0.499,0.066,0.77,0.199c0.271,0.134,2.634,1.766,2.01,17.784c-0.347,8.903-1.459,18.095-1.676,19.849
				c-0.192,1.535,0.322,2.488,0.787,3.015c0.629,0.709,1.553,1.1,2.608,1.1c1.961,0,4.155-1.369,4.432-3.658
				c0.366-3.027,1.75-13.605,4.192-22.699c3.203-11.918,5.876-12.558,6.379-12.564h0.043c0.602,0,1.02,0.174,1.35,0.565
				c1.357,1.593,1.395,6.312,0.135,14.027c-0.204,1.21-0.516,2.702-0.883,4.431c-1.298,6.16-3.077,14.596-2.489,23.173
				c0.29,4.208,1.767,7.773,4.277,10.311c2.387,2.407,5.592,3.735,9.027,3.735c1.849,0,3.708-0.375,5.526-1.114
				c4.109-1.671,6.755-5.628,7.647-11.439c0.513-3.329,0.375-7.14-0.331-10.582c3.06,1.451,5.645,1.888,6.904,1.888
				c1.185,0,1.914-0.392,2.18-1.168c0.223-0.644-0.009-1.344-0.582-1.787c-0.127-0.098-0.417-0.324-0.841-0.657
				c-2.523-1.969-10.195-7.967-13.484-10.289l-1.474-1.039l-0.692,1.663c-1.85,4.428-3.96,8.674-5.499,11.775
				c-0.94,1.892-1.682,3.385-2.113,4.403c-0.228,0.526-0.184,1.084,0.109,1.529c0.288,0.434,0.779,0.694,1.323,0.694
				c1.233,0,4.299-2.093,6.794-4.779c-0.194,3.566-0.951,8.066-2.8,10.139c-0.677,0.76-1.409,1.113-2.311,1.113
				c-0.525,0-1.118-0.125-1.755-0.369c-2.651-1.019-2.808-5.857-2.47-9.736c0.53-6.09,1.428-11.798,2.382-17.84
				c0.457-2.919,0.932-5.937,1.386-9.117c0.966-6.764-0.873-15.382-6.185-18.036c-1.628-0.814-3.249-1.226-4.818-1.226
				c-4.861,0-8.143,3.844-10.029,7.024C496.353,420.441,493.669,414.709,487.679,414.709L487.679,414.709z"/>
		</g>
	</g>
	<g>
		<path fill="#722600" d="M369.228,379.815c-1.259,8.58-5.671,17.357-13.009,34.689c-7.335,17.331-11.389,41.565-11.389,54.291
			c0,32.948,18.247,52.714,18.247,52.714h81.101c0,0,15.541-26.392,15.713-44.098c0.17-17.704-3.55-35.481-11.658-47.646
			c-8.11-12.165-13.179-14.19-16.727-24.836c-3.548-10.645-4.056-18.754-4.056-18.754s-20.274-5.576-27.878-7.604
			C391.969,376.544,370.312,372.44,369.228,379.815z"/>
		<path fill="#5B1C00" d="M368.981,399.753c4.857,1.358,9.51,1.588,14.535,1.01c5.885-0.676,11.642-0.867,17.565-0.966
			c5.08-0.084,10.152,0.436,15.055,1.821c5.625,1.59,11.085,3.663,16.403,6.082c-0.358-0.859-0.702-1.778-1.033-2.771
			c-3.548-10.645-4.056-18.754-4.056-18.754s-20.274-5.576-27.878-7.604c-7.603-2.027-29.26-6.131-30.344,1.244
			c-0.798,5.438-2.863,10.958-6.136,18.681C365.098,398.672,367.119,399.234,368.981,399.753z"/>
		<path d="M512.12,204.071c-0.839-3.748-7.098-3.994-9.848-5.416c-9.041-4.675,6.86-12.008,9.41-14.616
			c3.701-3.786,3.33-8.455,0.931-12.465c-3.418-5.71-13.647-7.88-18.711-11.816c-5.002-3.891-3.17-11.535-5.742-16.412
			c-3.121-5.908-10.392-8.758-15.38-7.666c-1.936,0.422-5.465,1.594-9.405,2.741c-3.938,1.15-9.021-1.244-7.711-3.576
			c1.31-2.331,0.819-4.63-1.477-7.746c-2.3-3.12-7.714-5.798-20.517-6.784c-9.05-0.698-11.229-7.98-10.21-14.056
			c1.017-6.078-8.104-9.822-15.719-3.615c-4.434,3.61-5.487,7.948-5.614,8.997c-0.985,8.161-16.258,12.875-14.938,5.677
			c0.113-0.629,2.169-8.767-2.893-11.119c-6.73-3.122-13.539-0.456-19.845,3.341c-2.263,1.361-5.06,4.509-6.933,6.397
			c-3.535,3.561-8.504,14.286-10.202,10.201c-1.982-4.773-2.826-9.71-9.074-6.512c-6.312,3.23-6.52,10.735-5.547,16.741
			c0.177,1.106,0.369,5.172-2.748,4.843c-3.119-0.327-5.141-1.762-6.849-5.512c-1.314-2.879-2.847-4.143-5.926-5.047
			c-12.667-3.719-23.479,18.055-18.129,29.912c-6.517-1.79-9.198,8.856-9.84,12.373c-1.927,10.618-0.287,19.974,8.096,24.344
			c-7.095,5.51-5.093,17.102-2.709,24.785c1.481,4.78,4.173,9.006,7.361,12.816c3.384,4.043,5.715,7.296,5.012,12.876
			c-0.183,1.449-0.16,5.221,1.975,7.355c2.134,2.133,5.639,2.806,9.772,0.774c4.376-2.153,8.255-3.872,11.979,0.317
			c1.558,1.752,3.052,3.242,5.026,4.5c7.571,4.829,14.124-1.78,17.436-8.886c5.186-0.152,10.126-2.448,12.842-5.127
			c3.418,13.278,7.808,38.826,21.663,47.239c0,0-2.41,16.688-3.387,17.148c-17.068,8.041-39.32,6.848-46.45,15.515
			c-5.108,6.207-4.476,14.533-2.239,21.178c2.239,6.644,11.764,24.148,15.006,37.327c3.43,13.939-2.956,28.993-2.752,43.176
			c-17.148,0.572-26.843-8.847-37.434-20.714c-3.014-3.373-7.749-5.042-11.565-7.244c-9.461-5.457-22.669-25.353-25.884-41.991
			c-21.25-7.828-26.281-40.259-24.529-53.9c-13.269-6.001-18.598-22.891-16.826-36.062c1.793-13.347,6.862-21.933,9.342-25.089
			c5.513,2.321,5.116,10.32,5.854,15.712c0.767,5.64,1.605,11.614,4.171,16.775c4.197,8.447,10.38,12.919,19.409,15.29
			c14.739,3.868,32.101-2.772,32.497-19.959c-12.024,9.925-27.263,2.517-33.072-7.598c-4.264-7.425-3.446-17.43-3.691-25.723
			c-0.367-12.575-0.557-28.432-13.986-33.779c-9.854-3.926-22.432,4.133-26.559,12.441c-3.276,6.59-1.34,12.965,2.351,17.447
			c-4.921-1.16-9.843-0.533-14.334,3.749c-9.855,9.402-9.764,29.192-10.532,41.619c-0.53,8.556-1.071,22.666,7.619,27.913
			c5.887,3.553,13.196,3.682,20.343,2.943c-13.192,8.104-21.297,21.02-12.996,37.568c4.635,9.242,11.767,19.158,21.235,23.794
			c7.496,3.67,15.375-1.214,22.641-4.96c-5.635,7.154-10.411,14.891-11.833,24.104c-1.772,11.502,5.451,20.374,12.154,28.718
			c4.338,5.396,13.011,17.144,21.688,13.958c8.524-3.131,11.853-11.499,16.367-18.751c-0.043,10.116-1.077,20.596,4.044,29.641
			c6.789,11.997,27.283,11.987,39.083,13.966c-0.15,1.879-0.456,3.777-0.294,5.691c0.471,5.619,2.99,11.344,2.933,8.902
			c-0.819-34.63,13.654-54.125,21.568-79.6c0,0,5.111,1.991,12.057,1.884c7.765,4.271,12.593,12.52,15.872,20.483
			c3.463,8.405,5.556,19.834,5.794,28.936c0.06,2.29,0.544-0.817,1.087-4.352c1.564-10.172,3.277-20.051,7.753-30.197
			c1.471-3.33,5.578-11.699,10.34-14.011c3.093,0.657,5.546,1.162,7.756,1.525c2.431,11.49,9.788,19.852,16.469,30.883
			c9.625,15.892,15.369,34.764,13.235,56.594c-0.237,2.436,2.792-2.955,3.283-9.028c1.103-13.566-2.49-27.372-8.008-39.662
			c-1.731-3.849-3.788-7.696-6.133-11.307c0.057-0.117,0.15-0.205,0.175-0.351c2.149-12.687,1.655-23.519,1.693-33.664
			c4.996-4.065,8.301-10.051,8.626-17.842c0.209-4.984-1.546-10.91-3.409-15.834c0.849-3.275,2.475-8.364,3.28-10.83
			c0.807-2.47,3.285-7.043,3.285-10.343c0-6.4-1.64-13.129-13.459-15.754c-10.712-2.38-31.184-9.52-33.482-13.13
			c-2.325-3.655-1.478-9.684-0.655-15.592c14.356-9.599,24.184-30.158,29.27-44.852c5.109,3.821,11.737,7.642,10.777,11.209
			c-1.276,4.716-1.824,11.815,4.976,11.654c3.006-0.072,7.379-4.932,8.665,1.211c0.42,2.012,2.802,5.331,4.903,5.845
			c6.727,1.639,16.249-4.597,18.688-11.108c5.44-0.828,8.722-2.678,11.346-7.275c0.843-1.467,1.481-4.431,1.126-6.447
			c-0.81-4.619,1.905-3.858,4.95-6.189c3.042-2.33,4.104-5.909-0.113-11.707c-2.391-3.282-5.633-6.84-3.992-10.615
			C505.389,219.497,513.926,212.113,512.12,204.071z"/>
		<path fill="#813828" d="M228.65,221.145c1.526-6.537,7.578-11.674,13.758-13.562c18.625-5.692,19.707,23.132,20.025,34.26
			c0.311,10.843,0.908,24.206,10.351,31.443c6.779,5.193,18.276,8.961,25.76,4.354c-5.353,14.688-29.851,12.854-40.113,3.01
			c-8.608-8.261-7.518-23.332-9.317-34.095c-0.801-4.785-2.944-6.622-8.635-8.655C234.786,235.866,226.581,230.004,228.65,221.145z"
			/>
		<path fill="#813828" d="M217.469,306.332c-11.118-1.766-11.032-15.748-10.752-24.302c0.307-9.404,1.117-18.799,3.463-27.929
			c1.626-6.329,4.918-15.731,12.876-16.729c4.593-0.578,9.54,2.362,13.57,4.905c-6.033,10.707-9.582,26.947-8.361,35.478
			c1.436,10.059,4.778,19.924,12.447,26.927c0.263,0.24,0.506,0.458,0.736,0.665C233.523,306.428,225.436,307.601,217.469,306.332z"
			/>
		<path fill="#813828" d="M248.41,368.858c-10.373,3.586-19.285-9.997-23.901-17.082c-5.422-8.323-8.761-17.167-3.959-26.595
			c4.26-8.368,18.01-15.44,23.644-17.091c-1.159,10.598,2.057,42.471,22.379,52.673C260.25,362.86,254.723,366.675,248.41,368.858z"
			/>
		<path fill="#813828" d="M291.607,421.692c-3.399,5.53-8.424,9.966-15.197,6.542c-4.023-2.038-7.217-6.346-10.035-9.74
			c-7.341-8.842-14.163-17.171-12.282-29.373c1.536-9.94,15.746-26.347,15.815-26.481c1.223,10.508,14.087,39.026,30.721,43.498
			C298.951,410.753,294.567,416.876,291.607,421.692z"/>
		<path fill="#813828" d="M343.761,454.394c-12.349-1.979-31.591-1.399-37.241-13.998c-3.513-7.835-2.955-27.685-2.257-32.159
			c3.934,2.796,5.911,5.159,9.458,9.353c8.364,9.888,21.595,14.956,34.312,14.475c0.331-0.012,0.608-0.102,0.851-0.23
			C346.555,439.146,344.7,446.603,343.761,454.394z"/>
		<path fill="#682D21" d="M261.419,279.809c-3.938-5.194-5.409-11.477-5.383-17.917c0.027-6.373,1.342-13.774-1.593-19.726
			c-1.81-3.672-4.806-6.188-8.458-7.942c-5.611-2.697-11.851-4.033-17.287-6.984c1.519,5.732,7.393,9.575,11.781,11.142
			c5.691,2.033,7.834,3.869,8.635,8.655c1.799,10.76,0.709,25.832,9.317,34.092c2.932,2.81,7.021,4.966,11.493,6.272
			C266.691,285.263,263.627,282.722,261.419,279.809z"/>
		<path fill="#682D21" d="M232.255,292.597c-3.947,1.432-8.09,2.362-11.939,2.889c-4.243,0.58-9.049,0.564-13.007-0.994
			c1.072,5.751,3.756,10.823,10.159,11.84c7.968,1.268,16.054,0.096,23.977-0.987c-0.23-0.207-0.472-0.425-0.736-0.665
			C236.941,301.24,234.22,297.105,232.255,292.597z"/>
		<path fill="#682D21" d="M221.66,242.079c3.37,1.309,6.478,3.543,8.943,6.19c0.759,0.816,1.462,1.673,2.116,2.558
			c1.136-3.049,2.448-5.961,3.907-8.551c-4.03-2.542-8.977-5.482-13.57-4.905c-2.841,0.355-5.084,1.786-6.873,3.763
			C218.066,241.197,219.926,241.408,221.66,242.079z"/>
		<path fill="#682D21" d="M254.185,349.487c-5.049,3.18-10.386,6.369-16.038,8.21c-2.815,0.918-5.857,1.541-8.816,1.031
			c4.895,6.389,11.608,12.714,19.079,10.131c6.313-2.183,11.84-5.998,18.163-8.095C261.407,358.17,257.348,354.175,254.185,349.487z
			"/>
		<path fill="#682D21" d="M269.428,422.178c2.054,2.397,4.339,4.716,6.982,6.056c6.773,3.425,11.798-1.011,15.197-6.542
			c2.96-4.816,7.344-10.94,9.022-15.554c-3.344-0.898-6.535-2.771-9.51-5.271C285.358,412.471,277.957,422.431,269.428,422.178z"/>
		<path fill="#682D21" d="M337.186,431.146c-2.693,7.07-4.836,14.298-5.775,21.739c4.366,0.551,8.665,0.917,12.35,1.508
			c0.939-7.791,2.795-15.248,5.124-22.559c-0.243,0.128-0.52,0.218-0.851,0.23C344.419,432.202,340.762,431.89,337.186,431.146z"/>
		<path fill="#88A95D" d="M377.582,238.67c1.562,0.602,3.156,0.568,4.639,0c1.337-0.506,2.222-1.834,2.156-3.123
			c1.139,0.36,2.537,0.867,3.645,1.288c-3.961,5.606-17.496,5.122-14.292-3.412c0.716-0.05,1.451-0.012,2.19,0.07
			C374.654,235.136,375.666,237.935,377.582,238.67z"/>
		<path fill="#FFFFFF" d="M389.565,237.457c1.639,0.691,3.262,1.436,4.857,2.294c-6.524,6.542-17.87,9.122-25.397,3.026
			c1.071-1.718,1.906-3.603,2.59-5.581C373.223,243.927,385.49,243.658,389.565,237.457z"/>
		<path fill="#9F7744" d="M386.574,313.718c1.079,3.393,5.114,6.526,7.836,6.329c0.327,0.444,0.645,0.912,0.949,1.399
			c-5.007,0.246-8.435-2.747-10.311-6.943C385.629,314.24,386.144,313.977,386.574,313.718z"/>
		<path fill="#C78D00" d="M397.639,331.089c1.764-4.674,0.264-8.775-2.398-11.556c3.054-1.13,7.258-1.749,9.818-0.781
			C404.17,323.596,401.475,330.868,397.639,331.089z"/>
		<path fill="#FF9D6D" d="M351.71,423.528c0.639-11.967,4.026-23.657,3.097-35.744c-0.314-4.085-1.309-8.047-2.668-11.935
			c3.296,9.322,9.243,15.071,12.102,16.31C362.75,397.751,356.014,411.635,351.71,423.528z"/>
		<path fill="#B83800" d="M409.073,407.84c-4.214,8.72-6.016,18.44-7.21,28.032c-0.773-7.343-2.103-14.571-4.898-21.355
			c-3.059-7.428-7.049-14.906-13.872-19.451c5.441-0.545,15.958-3.604,20.432-2.765c3.621,0.68,9.075,1.902,14.279,3.021
			C413.758,398.258,410.695,404.486,409.073,407.84z"/>
		<path fill="#952B00" d="M388.862,400.274c4.058-0.291,8.097-0.408,12.218-0.476c3.974-0.064,7.94,0.246,11.829,1.045
			c1.394-2.137,3.038-4.175,4.894-5.52c-5.203-1.119-10.658-2.341-14.279-3.021c-4.473-0.839-14.99,2.22-20.432,2.765
			C385.289,396.531,387.191,398.302,388.862,400.274z"/>
		<path fill="#FF9D6D" d="M444.228,420.835c-6.619-8.658-11.381-18.671-11.709-23.758c4.926,0,7.878-0.952,12.948-3.81
			C445.575,402.464,446.116,411.803,444.228,420.835z"/>
		<path fill="#722600" d="M447.808,387.309c-9.137,9.17-30.444,5.035-41.489,2.475c-12.552-2.916-19.712,4.334-37.465,0.139
			c-6.913-1.632-10.484-7.829-12.581-12.442c-4.305-9.469-1.818-23.206,0.138-29.218c11.703,13.647,25.716,24.844,43.941,27.265
			c19.739,2.622,41.896-12.865,47.906-23.35c2.89,5.135,4.109,10.16,5.18,15.916C454.767,375.201,452.919,382.181,447.808,387.309z"
			/>
		<path fill="#FF9D6D" d="M448.439,323.717c7.389,2.132,8.674,7.312,8.863,11.159c0.243,4.863-2.193,8.776-3.032,10.872
			c-0.838,2.098-1.728,6.113-2.055,7.509c-4.033-7.817-8.428-12.54-13.461-16.315c-1.934-1.453-6.969-3.145-5.069-1.601
			c5.272,4.283,8.745,7.709,12.196,13.624c-6.147,10.903-25.277,23.817-41.267,23.046c-1.307-4.639-1.979-8.662-3.913-12.509
			c3.755-6.901,10.68-11.644,15.899-12.645c2.4-0.461-0.536-0.89-2.93-0.47c-9.867,1.737-14.42,10.417-14.441,10.453
			c-5.934-9.49-13.727-9.329-11.678-8.013c6.153,3.951,11.817,12.145,13.951,23.142c-15.919-0.658-35.94-17.57-46.346-30.135
			c-0.709-0.855-6.69,22.109-4.211,30.817c-3.028-7.559-7.811-16.83-10.258-22.216c-2.448-5.385-4.161-12.071-2.168-18.387
			c2.515-7.969,20.271-10.306,27.957-12.123c5.032-1.189,12.944-3.103,17.663-5.03c1.728,4.468,6.034,8.073,11.787,7.505
			c1.912,3.381,1.449,7.898-0.049,10.589c5.071,0.306,8.289-5.866,9.568-10.803c5.148,1.161,10.32-3.332,12.575-8.23
			C426.784,317.606,441.337,321.663,448.439,323.717z"/>
		<path fill="#9F7744" d="M417.105,313.568c-2.033,4.354-6.828,8.5-11.442,7.688c0.222-0.749,0.353-1.366,0.53-2.205
			c3.714-0.209,7.804-2.65,9.12-6.3C415.869,313.019,416.471,313.292,417.105,313.568z"/>
		<path fill="#FF9D6D" d="M414.427,312.305c-1.104,3.276-4.84,5.685-8.2,5.745c-4.178-1.467-10.264-0.452-12.365,1.177
			c-1.777-0.352-3.192-1.214-4.07-2.204c-0.952-1.071-2.081-2.356-2.419-3.868c0.376-0.315,0.615-0.627,0.67-0.927
			c0.494-2.627,2.249-12.186,3.135-16.624c2.979,1.058,6.329,1.398,10.125,0.791c2.892-0.464,5.621-1.364,8.207-2.605
			c-0.788,6.292-0.788,11.871,1.513,15.975C411.449,310.529,412.665,311.39,414.427,312.305z"/>
		<path fill="#FF9D6D" d="M403.896,291.994c-23.999,8.327-30.009-29.792-33.949-45.01c14.983,8.72,29.13-6.817,27.548-7.636
			c-5.021-2.6-11.169-5.334-16.611-6.764c-2.401-0.632-5.188-1.261-7.773-0.993c0.473-2.436,0.836-4.444,1.026-6.989
			c7.821-0.598,17.372,2.059,22.448,7.821c0.809,0.919,0.348-0.624-0.411-1.575c-4.747-5.944-13.642-9.164-21.995-8.639
			c0.086-1.585,0.146-3.174,0.169-4.749c8.241,0.155,15.171,0.359,22.059-5.144c5.298-4.236,4.945-11.441,7.683-17.165
			c2.17-4.541,10.235-2.92,10.212,2.353c-0.019,5.273,5.363,9.088,8.756,10.946c8.454,4.627,10.768,12.089,11.785,20.593
			c-9.866-4.615-20.97-0.624-25.482,2.499c-1.002,0.693-1.862,2.264-0.838,1.587c4.088-2.715,19.925-5.925,26.612-1.245
			c0.091,0.957,0.17,1.921,0.243,2.897c0.005,0.055,0.012,0.112,0.017,0.165c-7.734-3.371-20.591,1.754-28.045,3.721
			c-0.684,0.181,1.188,1.918,1.741,2.322c4.568,3.33,8.81,6.345,14.497,8.022c3.034,0.894,5.787,1.495,8.703,0.87
			c2.303-0.494,3.499-2.088,5.797-2.513C432.206,264.337,421.989,285.716,403.896,291.994z"/>
		<path fill="#DE8856" d="M354.949,393.14c0.4,0.324,0.794,0.651,1.176,0.985c1.899,1.665,3.722,3.451,5.439,5.337
			c1.245-3.027,2.215-5.565,2.678-7.303c-2.859-1.24-8.806-6.988-12.102-16.31c1.358,3.888,2.353,7.849,2.668,11.935
			C354.944,389.578,354.979,391.363,354.949,393.14z"/>
		<path fill="#DE8856" d="M445.581,399.921c-0.039-2.223-0.088-4.442-0.115-6.654c-5.07,2.859-8.022,3.81-12.948,3.81
			c0.104,1.573,0.632,3.62,1.502,5.95C437.513,401.203,441.46,400.23,445.581,399.921z"/>
		<path fill="#DE8856" d="M400.546,333.803c4.864-0.819,8.379-4.461,10.075-9.807c4.73-2.434,7.522-5.272,8.928-9.422
			c-0.526-0.208-1.038-0.413-1.53-0.619c-2.255,4.898-7.427,9.391-12.575,8.23c-0.788,3.045-2.317,6.559-4.558,8.732
			C400.828,331.883,400.713,332.843,400.546,333.803z"/>
		<path fill="#DE8856" d="M392.573,349.906c2.09,1.305,4.494,3.477,6.656,6.933c0.018-0.032,3.427-6.516,10.719-9.397
			C404.246,344.675,395.17,347.325,392.573,349.906z"/>
		<path fill="#DE8856" d="M352.178,352.015c-2.809,1.768-5.495,3.673-8.004,5.747c2.274,4.713,4.869,10.138,6.771,14.888
			C349.603,367.936,350.739,359.044,352.178,352.015z"/>
		<path fill="#DE8856" d="M439.288,337.351c4.81,3.71,9.041,8.367,12.927,15.905c0.327-1.395,1.217-5.411,2.055-7.509
			c0.214-0.533,0.533-1.183,0.88-1.935C450.371,340.385,444.965,338.019,439.288,337.351z"/>
		<path fill="#DE8856" d="M397.148,326.607c-0.111-1.46-0.492-2.917-1.223-4.208c-5.752,0.568-10.058-3.037-11.787-7.505
			c-1.072,0.441-2.315,0.875-3.646,1.303C383.476,322.272,390.344,326.995,397.148,326.607z"/>
		<path fill="#DE8856" d="M393.254,306.424c3.818,1.243,8.346,1.415,12.224,0.293c1.388-0.402,2.699-0.943,3.948-1.589
			c-0.609-3.32-0.437-7.173,0.084-11.338c-2.586,1.241-5.315,2.141-8.207,2.605c-3.796,0.608-7.146,0.267-10.125-0.791
			c-0.429,2.142-1.057,5.476-1.652,8.648C390.652,305.191,391.871,305.974,393.254,306.424z"/>
		<path fill="#DE8856" d="M396.467,218.775c5.056-2.726,7.943-10.025,13.857-11.152c7.996-1.523,11.922,7.384,16.718,11.947
			c2.225,2.119,4.634,3.957,7.197,5.495c-1.307-6.831-4.073-12.722-11.181-16.613c-3.393-1.858-8.775-5.673-8.756-10.946
			c0.023-5.273-8.042-6.894-10.212-2.353c-2.738,5.723-2.385,12.929-7.683,17.165c-6.888,5.503-13.818,5.299-22.059,5.144
			c-0.016,1.065-0.052,2.136-0.097,3.208C381.555,221.66,390.069,222.224,396.467,218.775z"/>
		<path fill="#88A95D" d="M427.07,241.183c3.48,0,5.769-2.848,4.57-5.342c1.186,0.197,2.733,0.561,3.774,1.077
			c-1.33,3.496-4.494,5.791-8.268,5.854c-2.789,0.047-8.267-2.071-8.781-5.408c1.016-0.275,2.376-0.616,3.41-0.846
			C421.339,239.281,424.289,241.371,427.07,241.183z"/>
		<path fill="#688B4C" d="M374.837,239.119c0.459-0.485,0.947-0.948,1.458-1.387c-0.213-0.253-0.394-0.537-0.54-0.838
			c-0.633,0.393-1.232,0.822-1.817,1.275C374.183,238.527,374.488,238.843,374.837,239.119z"/>
		<path fill="#688B4C" d="M378.302,238.897c-0.241-0.061-0.481-0.134-0.72-0.228c-0.2-0.074-0.389-0.173-0.567-0.292
			c-0.472,0.401-0.929,0.823-1.361,1.268c0.577,0.304,1.236,0.519,1.94,0.665C377.824,239.837,378.06,239.367,378.302,238.897z"/>
		<path fill="#688B4C" d="M380.079,240.514c0.06-0.475,0.118-0.952,0.18-1.429c-0.319,0.02-0.641,0.024-0.963-0.008
			c-0.242,0.46-0.475,0.926-0.705,1.391C379.075,240.518,379.573,240.53,380.079,240.514z"/>
		<path fill="#688B4C" d="M375.583,234.079c0.087-0.206,0.196-0.404,0.337-0.585c-0.739-0.081-1.474-0.12-2.19-0.07
			c-0.132,0.35-0.232,0.686-0.307,1.01C374.138,234.295,374.857,234.172,375.583,234.079z"/>
		<path fill="#688B4C" d="M375.367,235.075c-0.705,0.098-1.405,0.222-2.102,0.363c-0.05,0.692,0.031,1.313,0.227,1.859
			c0.622-0.478,1.269-0.925,1.945-1.337C375.377,235.667,375.356,235.368,375.367,235.075z"/>
		<path fill="#688B4C" d="M421.737,236.949c0.003-0.143,0.017-0.286,0.039-0.431c-1.034,0.23-2.394,0.571-3.41,0.846
			c0.029,0.195,0.079,0.387,0.143,0.574C419.558,237.528,420.623,237.171,421.737,236.949z"/>
		<path fill="#688B4C" d="M423.88,240.403c-0.435-0.259-0.833-0.568-1.158-0.928c-0.703,0.34-1.389,0.705-2.071,1.083
			c0.59,0.427,1.259,0.791,1.945,1.103C423.011,241.23,423.437,240.81,423.88,240.403z"/>
		<path fill="#688B4C" d="M425.677,241.082c-0.293-0.06-0.581-0.133-0.86-0.235c-0.432,0.389-0.847,0.795-1.254,1.209
			c0.514,0.187,1.03,0.338,1.525,0.454C425.295,242.041,425.489,241.561,425.677,241.082z"/>
		<path fill="#688B4C" d="M427.891,241.124c-0.266,0.035-0.539,0.059-0.821,0.059c-0.13,0.01-0.266,0.007-0.396,0.005
			c-0.192,0.507-0.392,1.01-0.607,1.507c0.385,0.054,0.754,0.082,1.079,0.077c0.254-0.005,0.505-0.021,0.754-0.045
			C427.902,242.193,427.9,241.659,427.891,241.124z"/>
		<path fill="#688B4C" d="M419.855,239.905c0.76-0.422,1.524-0.833,2.303-1.218c-0.136-0.25-0.243-0.513-0.314-0.787
			c-1.007,0.201-1.978,0.518-2.93,0.887C419.161,239.187,419.486,239.557,419.855,239.905z"/>
		<path fill="#FFFFFF" d="M436.26,244.721c-2.019,0.963-3.004,1.989-5.54,2.274c-2.188,0.247-5.056-0.229-7.076-0.85
			c-4.801-1.479-11.324-5.982-12.109-6.843c1.643-0.435,3.458-0.984,5.354-1.526c0.901,3.979,5.555,6.147,9.238,6.522
			c4.349,0.445,8.019-1.87,9.973-5.337c0.471,1.668,1.2,3.265,2.322,4.449c0.133,0.141,0.293,0.292,0.461,0.448
			C437.956,243.949,437.191,244.273,436.26,244.721z"/>
		<path fill="#975100" d="M505.108,236.651c5.532,7.293-5.698,6.291-5.969,11.448c-0.136,2.56,1.044,6.607-0.477,8.654
			c-4.268,5.746-10.619,6.074-15.594,6.074c-2.442,0,1.793,3.217,4.344,2.921c-3.523,5.12-13.907,12.536-16.921,4.013
			c-0.381-1.093-0.881-4.8-3.672-5.622c-2.788-0.82-7.221,3.611-9.518,1.478c-2.293-2.134-0.491-6.566-0.328-9.028
			c0.166-2.461-2.374-5.138-4.83-6.845c-8.053-5.592-12.701-10.189-13.36-20.453c-0.358-5.594-1.705-13.139-5.614-17.45
			c-3.04-3.35-9.005-5.802-12.625-9.198c1.413,0.544,3.012,0.763,4.679,0.655c4.158-0.271,7.358-3.382,11.102-4.807
			c2.427-0.922,2.939,1.262,3.156,3.254c0.28,2.577-0.001,5.105,0.79,7.617c0.846,2.684,3.043,3.961,5.764,3.896
			c2.893-0.067,5.645-1.364,8.555-1.223c4.38,0.211,3.471,5.934,2.58,8.689c-0.999,3.095-3.133,6.46-2.685,9.829
			c0.483,3.622,4.852,4.151,7.765,4.322c2.631,0.15,5.903,0.4,7.954,2.268c1.745,1.588,1.327,4.411,0.938,6.456
			c-0.863,4.512-3.773,10.802,1.318,13.981c3.972,2.479,10.886-1.015,11.041-5.668c0.093-2.822-3.155-5.434-4.587-3.378
			c-0.544,0.784-0.489,1.509,0.022,0.714c1.467-2.282,3.712,1.059,3.376,3.489c-0.445,3.262-5.709,4.563-8.434,3.859
			c-5.718-1.477-1.557-10.584-1.064-14.104c0.413-2.975-0.198-5.747-2.891-7.376c-1.487-0.897-3.348-1.247-5.044-1.463
			c-2.591-0.327-5.913,0.053-8.07-1.69c-2.602-2.101,0.63-7.653,1.476-9.963c1.12-3.042,1.942-6.603,0.002-9.498
			c-3.458-5.163-10.79,1.367-15.127-1.378c-3.777-2.393,0.282-15.56-6.235-14.312c-2.819,0.54-5.313,2.558-7.849,3.803
			c-4.022,1.977-9.534,1.602-10.963-1.259c-0.446-0.894-0.601-2.41-0.558-3.112c0.091-1.475-0.325-2.7-1.061-3.698
			c3.858,1.008,7.756,1.668,11.544-0.249c5.029-2.54,8.193-6.897,11.82-11.044c3.819-4.373,8.799-7.753,14.85-7.258
			c6.975,0.57,5.826,8.31,3.618,12.814c-1.874,3.834-4.584,8.509-1.131,12.266c2.825,3.073,8.603,1.561,12.132,1.053
			c4.056-0.584,9.798-1.112,12.307,2.932c2.628,4.236,0.695,11.525-2.171,15.102c-1.719,2.143-4.312,3.514-7.047,2.688
			c-2.798-0.845-4.946-4.32-4.823-7.149c0.197-4.356,6.862-6.513,7.701-1.313c0.155,0.937,0.448,0.043,0.222-0.873
			c-1.426-5.812-9.792-2.86-9.03,3.666c0.474,4.066,4.226,7.757,8.361,7.389c4.333-0.387,7.286-4.868,8.462-8.629
			c1.146-3.666,1.491-8.57-0.612-11.96c-1.824-2.943-5.536-3.634-8.73-3.694c-4.635-0.088-10.721,2.591-15.024,0.289
			c-3.362-1.797-1.699-6.101-0.511-8.662c1.107-2.388,2.345-4.569,2.926-7.16c0.844-3.759-0.121-8.155-4.078-9.628
			c-4.457-1.661-9.664-0.098-13.449,2.452c-4.663,3.14-7.593,8.209-11.596,12.054c-2.842,2.727-6.346,4.451-10.33,4.42
			c-2.846-0.024-6.408-1.069-8.366-1.801c-1.957-0.732-5.173-1.354-7.234-0.947c-5.789,1.145-6.607,5.428-7.949,9.983
			c-0.163,0.548-0.308,1.079-0.447,1.594c-1.215,1.472-2.674,2.764-4.187,3.905c-3.035,2.291-6.095,4.065-10.013,4.038
			c-6.161-0.039-8.989-6.78-14.688-7.891c-3.389-0.66-5.509,2.541-6.601,5.25c-1.625,4.029-2.287,8.357-4.094,12.318
			c-2.058,4.512-4.843,8.942-8.694,12.126c-1.922,1.591-4.271,2.545-6.778,2.397c-2.96-0.176-4.573-2.08-5.81-4.514
			c-1.308-2.576-2.543-8.19-5.937-8.839c-3.275-0.63-4.391,4.327-5.07,6.497c-0.548,1.749-1.088,3.588-2.225,5.058
			c-1.28,1.655-3.899,1.917-5.832,1.822c-2.488-0.125-4.442-1.729-5.135-4.081c-0.962-3.267,2.045-8.978,5.755-5.772
			c0.714,0.618,0.252-0.349-0.551-0.86c-2.949-1.878-6.272-0.125-6.528,4.292c-0.253,4.404,2.124,7.403,6.458,7.894
			c4.256,0.48,7.149-1.754,8.645-5.497c0.782-1.956,1.206-4.038,2.059-5.968c0.357-0.808,0.851-1.644,1.74-1.919
			c1.18-0.366,2.089,1.399,2.541,2.174c1.934,3.309,2.706,8.146,6.309,10.124c3.625,1.992,7.819,1.005,10.953-1.42
			c3.803-2.939,6.51-7.101,8.676-11.335c1.903-3.718,2.809-7.667,4.045-11.627c0.949-3.041,2.575-7.617,6.588-6.481
			c2.3,0.654,4.206,2.664,5.997,4.143c1.518,1.253,3.117,2.293,4.947,3.024c4.286,1.709,9.273-0.18,12.703-2.806
			c1.362-1.04,2.709-2.089,3.942-3.227c-0.646,2.103-1.502,4.007-3.402,5.934c-5.503,5.58-14.221,4.098-21.252,4.002
			c-1.038-0.014-1.893,0.873-1.896,1.895c-0.054,13.435-0.589,29.413-16.175,33.113c2.291-6.337-0.368-13.177-0.663-10.768
			c-1.969,16.084-11.234,25.297-19.323,16.838c-1.937-2.023-3.496-4.01-5.99-5.362c-1.748-0.949-3.034-0.554-4.862-0.171
			c-1.508,0.316-3.34,1.645-4.648,2.386c-11.225,6.354-7.792-4.586-7.705-7.042c0.237-6.915-6.437-11.782-10.017-17.039
			c-4.593-6.739-8.627-26.436,0.84-28.846c1.019,0.587,2.062,1.093,3.12,1.48c2.356,0.863,5.099,1.41,7.613,0.989
			c2.832-0.474,5.181-2.301,7.9-3.122c1.427-0.432,3.713,0.108,3.739,1.882c0.023,1.388-0.842,2.865-1.408,4.085
			c-1.046,2.259-2.473,4.958-1.565,7.488c1.127,3.134,5.722,3.891,8.556,3.66c3.85-0.313,6.561-3.282,8.223-6.521
			c3.798-7.404,1.468-16.623,6.167-23.601c3.697-5.493,7.337,5.585,9.799,7.321c4.751,3.349,12.544,2.04,17.534-0.105
			c2.761-1.186,5.725-2.729,8.394-4.111c2.594-1.341,5.265-2.418,7.513-0.537c2.407,2.016,1.879,6.808,0.717,9.211
			c-0.865,1.782-2.621,3.292-4.651,3.488c-1.405,0.135-6.528-2.236-2.324-5.276c0.463-0.335-0.877-0.07-1.61,0.537
			c-2.594,2.146,0.221,4.908,2.697,5.577c4.152,1.12,6.895-3.004,7.81-6.394c0.863-3.195,0.161-7.655-3.401-8.889
			c-3.367-1.166-7.792,1.438-10.753,2.785c-5.173,2.355-9.819,4.386-15.691,4.095c-2.671-0.131-5.338-0.905-6.798-3.257
			c-1.219-1.962-2.138-4.009-3.712-5.739c-6.252-6.857-9.751,7.491-10.166,11.361c-0.664,6.166-1.226,15.429-8.032,18.161
			c-2.591,1.041-8.144,0.577-9.02-2.708c-0.578-2.173,1.18-4.886,2.034-6.769c0.703-1.549,1.625-3.51,0.91-5.212
			c-0.836-1.988-3.508-2.347-5.351-1.952c-2.16,0.462-4.12,1.859-6.154,2.67c-2.472,0.986-9.125-0.51-12.719-3.347
			c-5.327-4.202-9.209-7.084-9.537-16.11c-0.327-9.026,5.182-19.931,9.844-15.27c1.732,1.731,5.345,2.228,3.615,0.498
			c-6.639-6.637-5.582-21.17,4.113-29.127c2.76-2.266,8.796-1.717,10.384,1.731c0.475,1.033,0.905,2.08,1.615,2.98
			c2.092,2.661,3.976,3.503,7.195,4.23c10.296,2.319,6.674-10.207,7.466-16.057c0.552-4.083,5.795-7.985,7.239-2.694
			c0.332,1.216,1.542,5.292,3.676,5.292c2.131,0,5.088-1.149,8.042-5.417c2.953-4.267,6.476-10.224,12.704-13.973
			c6.776-4.081,16.064-6.397,16.071,2.562c-2.129,6.26-8.046,11.285-8.759,18.126c-0.769,7.404,5.118,14.713,12.566,15.199
			c6.599,0.432,12.83-3.486,18.919-5.421c2.724-0.867,5.837-1.492,8.493-0.105c3.678,1.923,4.64,6.841,5.56,10.468
			c1.149,4.524,3.32,6.92,7.347,9.26c2.665,1.548,5.62,3.13,6.862,6.127c1.016,2.449,0.372,5.619-0.708,7.927
			c-4.336,9.266-18.844,10.479-22.332,0.019c-2.357-7.07-0.273-19.649-9.116-22.564c-3.762-1.237-7.642,0.697-10.893,2.416
			c-4.344,2.296-8.642,4.627-13.64,2.93c-9.492-3.224-7.184-15.45-12.467-22.009c-4.484-5.569-18.979-6.472-19.216,2.952
			c-0.049,1.969,1.031,4.032,2.244,5.507c1.506,1.833,5.784,4.06,5.165,6.822c-0.441,1.967-2.917,3.523-4.672,4.096
			c-1.62,0.533-3.423,0.171-5.015-0.259c-2.829-0.762-5.4-2.359-8.037-3.597c-2.939-1.38-8.407-3.852-11.344-1.185
			c-1.426,1.294-1.942,3.033-1.88,4.915c0.036,1.107,0.258,2.193,0.27,3.303c0.026,2.468-2.064,4.225-4.213,4.978
			c-2.082,0.729-4.297,0.677-6.303,1.683c-2.127,1.065-3.036,3.509-3.226,5.72c-0.288,3.356,0.905,5.998-0.755,9.249
			c-0.808,1.585-2.051,3.049-2.315,4.855c-0.603,4.143,6.191,5.351,9.019,5.094c4.931-0.45,9.184-4.361,10.998-8.788
			c1.152-2.804,1.187-6.243,1.69-9.203c0.533-3.145,1.11-7.235,3.584-9.505c3.351-3.071,7.929,2.737,9.304,5.214
			c1.973,3.553,3.901,5.999,8.251,6.184c3.401,0.146,6.444-1.145,8.294-4.017c1.6-2.484,4.182-11.952,8.274-8.464
			c3.2,2.728,4.026,7.711,6.628,10.979c2.524,3.172,5.881,4.785,9.901,5.138c4.569,0.4,12.972-1.701,13.805-7.214
			c0.797-5.269-7.599-6.439-7.331-2.863c0.07,0.938,0.609,1.399,0.513,0.454c-0.301-2.918,4.494-1.705,5.329,0.154
			c1.189,2.651-0.702,4.633-2.34,5.63c-3.769,2.297-8.671,2.934-12.9,1.837c-6.013-1.561-7.774-7.763-10.53-12.516
			c-2.063-3.556-5.837-5.663-8.611-1.459c-2.506,3.803-3.43,9.427-8.413,10.635c-2.685,0.651-5.622,0.218-7.522-1.868
			c-1.415-1.556-2.167-3.704-3.336-5.439c-1.613-2.396-5.06-5.176-8.192-4.507c-2.718,0.581-3.998,3.286-4.824,5.681
			c-1.181,3.423-1.547,7.11-2.102,10.669c-0.758,4.867-2.888,8.655-7.526,10.932c-3.114,1.529-7.276,1.191-9.937-1.115
			c-1.687-1.462,0.811-4.376,1.563-5.754c1.241-2.272,1.411-4.525,1.146-7.066c-0.426-4.064,0.425-7.255,4.78-8.174
			c2.031-0.428,4.414-0.592,6.058-2.031c1.962-1.721,2.848-3.598,2.672-6.212c-0.176-2.612-0.694-5.82,2.624-6.632
			c2.593-0.635,5.862,0.937,8.155,1.981c4.486,2.045,9.028,5.173,14.189,4.006c3.637-0.82,7.744-5.449,4.725-8.924
			c-1.851-2.128-4.157-3.518-5.581-6.045c-1.593-2.822-0.644-5.802,2.057-7.416c4.637-2.772,11.726-0.857,14.495,3.615
			c2.232,3.606,2.692,8.169,4.084,12.121c1.381,3.912,3.779,7.225,7.624,8.975c3.924,1.789,8.001,0.901,11.754-0.82
			c3.946-1.815,7.966-5.087,12.563-4.445c5.284,0.736,6.387,6.42,7.088,10.796c0.734,4.565,0.956,9.355,3.032,13.569
			c3.889,7.888,14.469,7.076,20.359,2.281c3.159-2.574,4.962-6.482,4.948-10.531c-0.019-5.413-4.417-7.997-8.592-10.421
			c-2.038-1.183-3.971-2.579-5.041-4.723c-1.149-2.304-1.4-5.057-2.193-7.494c-0.951-2.927-2.568-5.854-5.385-7.328
			c-5.217-2.727-12.046,1.053-16.897,2.946c-3.61,1.409-7.42,2.757-11.353,2.5c-5.076-0.332-8.924-4.662-10.378-9.27
			c-1.69-5.364,1.743-10.44,4.478-14.759c0.615-0.971,1.227-1.959,1.798-2.966c-0.036,0.143-0.079,0.291-0.114,0.436
			c-0.688,2.688-0.915,5.334-0.078,8.013c0.9,2.887,2.994,5.624,5.893,6.643c5.606,1.966,12.469-2.953,17.348-5.062
			c3.056-1.321,6.514-2.473,9.853-1.673c5.17,1.238,6.957,6.757,7.751,11.346c0.948,5.447,3.886,9.506,9.371,10.909
			c5.278,1.348,10.579-0.285,15.834,0.632c3.838,0.666,3.817,4.296,3.759,7.438c-0.043,2.421,0.178,4.754,1.786,6.686
			c2.659,3.203,6.205,3.717,10.128,2.966c4.397-0.843,8.778-3.247,13.36-2.432c6.137,1.089,6.823,7.643,5.921,12.601
			c-0.641,3.515-1.925,7.557,0.307,10.772c1.007,1.45,2.71,2.41,4.394,2.815c0.984,0.235,2.015,0.174,2.96,0.583
			c1.773,0.773,1.532,3.638,1.154,5.094c-1.259,4.875-4.827,8.604-3.77,13.988c0.4,2.026,1.377,3.626,2.749,5.144
			c1.454,1.608,3.396,2.332,4.908,3.759c0.914,0.859-0.036,3.248-0.307,4.188c-0.471,1.627-1.214,3.155-2.012,4.641
			c-0.959,1.796-2.027,3.478-2.27,5.536c-0.268,2.227,1.206,4.509,2.518,6.15c0.745,0.932,1.521,1.793,2.314,2.682
			c0.938,1.048,0.619,2.308-0.389,3.075c-0.621,0.471-5.185,3.666-5.365-1.073c-0.034-0.95-0.475,0.08-0.5,1.031
			c-0.132,4.587,7.063,1.335,8.141-1.065c0.57-1.258-0.344-2.452-1.141-3.344c-1.781-1.986-3.977-4.215-4.121-7.031
			c-0.104-2.016,1.453-4.033,2.355-5.724c1.253-2.336,2.171-4.839,2.52-7.471c0.173-1.329-0.276-2.366-1.324-3.152
			c-2.08-1.555-4.078-2.639-5.586-4.891c-3.392-5.07,0.813-10.713,2.521-15.48c0.638-1.779,0.807-3.919-0.125-5.643
			c-0.977-1.806-2.442-2.071-4.342-2.332c-6.17-0.854-5.135-6.926-4.267-11.338c0.767-3.906,1.199-8.292-1.549-11.575
			c-6.782-8.098-15.748,0.637-23.877-0.758c-2.667-0.456-4.807-2.735-5.437-5.293c-0.681-2.779,0.218-5.682-0.655-8.469
			c-1.46-4.651-7.907-3.867-11.621-3.606c-6.106,0.428-13.297-0.266-15.982-6.692c-1.18-2.822-1.118-6.021-2.157-8.901
			c-0.697-1.917-2.069-3.668-3.568-5.026c-5.061-4.586-11.967-1.775-17.286,0.698c-4.16,1.934-10.226,5.91-14.891,3.441
			c-3.398-1.8-4.651-6.388-4.28-9.951c3.805,5.596,20.816-0.634,21.65-8.526c0.158-1.465,0.293-5.248,5.05-8.857
			c4.762-3.61,9.719-1.83,8.852,2.537c-0.203,2.572-0.115,5.138,0.598,7.628c1.512,5.253,7.454,7.877,12.791,8.347
			c3.762,0.333,11.403,0.363,16.493,4.3c5.087,3.939,2.199,6.333,2.131,7.287c-0.307,4.351,4.386,6.554,7.948,6.901
			c7.646,0.748,13.556-5.325,20.613-1.223c7.057,4.103,5.448,10.662,7.203,16.128c1.222,3.807,4.217,5.669,7.401,7.871
			c5.416,3.746,22.962,7.431,13.306,17.312c-5.501,5.63-11.99,7.599-12.32,12.851c-0.327,5.252,2.955,6.728,10.011,8.698
			c7.056,1.969-2.484,14.437-5.581,17.889C497.04,225.247,500.847,231.023,505.108,236.651z"/>
		<path fill="#B87426" d="M380.838,123.164c0.567,0.823,1.114,1.663,1.683,2.489c-0.223-1.947,0.027-3.886,0.529-5.849
			c0.035-0.145,0.079-0.293,0.114-0.436c-0.571,1.007-1.182,1.995-1.798,2.966C381.192,122.606,381.015,122.884,380.838,123.164z"/>
		<path fill="#B87426" d="M294.734,169.805c2.263-1.028,4.651-1.426,7.096-0.952c3.111,0.605,5.335-1.134,4.744-4.287
			c-0.763-4.074-3.55-8.38-2.636-12.624c0.942-4.376,3.966-8.882,8.548-9.924c4.242-0.963,7.485,2.174,9.834,5.218
			c0.894,1.158,1.94,2.441,3.116,3.529c2.603-1.579,6.583-0.175,9.392,1.068c3.983-2.966,4.651-8.174,6.012-12.661
			c0.494-1.635,1.472-3.61,3.484-3.586c1.127,0.012,2.135,0.338,3.011,0.903c1.739-3.06,5.782-4.091,9.755-3.649
			c0.015-0.027,0.028-0.055,0.041-0.083c2.094-4.101,3.44-8.982,6.769-12.318c3.107-3.112,8.246-4.644,12.243-2.172
			c1.533,0.948,2.709,2.212,3.756,3.591c1.533-2.372,3.056-4.744,3.931-7.321c-0.007-8.959-9.295-6.643-16.071-2.562
			c-6.228,3.749-9.751,9.706-12.704,13.973c-2.954,4.268-5.911,5.417-8.042,5.417c-2.135,0-3.344-4.075-3.676-5.292
			c-1.443-5.291-6.686-1.389-7.239,2.694c-0.792,5.849,2.83,18.376-7.466,16.057c-3.22-0.727-5.103-1.57-7.195-4.23
			c-0.71-0.901-1.14-1.947-1.615-2.98c-1.588-3.449-7.623-3.998-10.384-1.731c-9.695,7.957-10.752,22.49-4.113,29.127
			c1.731,1.73-1.882,1.233-3.615-0.498c-3.067-3.067-6.502,0.605-8.398,6.047C293.768,170.282,294.239,170.031,294.734,169.805z"/>
		<path fill="#B87426" d="M409.527,162.704c1.072,0.472,2.134,1.184,3.175,2.071c5.327,4.549,10.437,0.177,15.45-2.599
			c-0.065-0.037-0.132-0.074-0.195-0.111c-1.747-1.014-3.144-2.041-4.259-3.244c-3.485,2.02-6.994,2.958-10.224-0.54
			c-2.41-2.615-3.94-7.173-8.319-6.241c-1.149,0.245-2.136,0.739-2.997,1.395c0.169,0.043,0.338,0.085,0.506,0.141
			C406.882,154.965,408.612,158.559,409.527,162.704z"/>
		<path fill="#B87426" d="M385.557,129.314c2.497,2.285,5.628,3.521,8.85,3.683c3.127-0.807,6.278-2.681,8.755-3.834
			c0.895-0.415,1.837-0.841,2.806-1.239c1.753-2.383,2.63-5.347,3.388-8.435c0.973-3.977,1.852-9.944,5.823-12.133
			c1.519-0.839,3.032-1.063,4.449-0.824c-0.254-3.404-4.672-4.499-8.937-1.263c-4.758,3.61-4.892,7.393-5.05,8.857
			c-0.835,7.892-17.845,14.122-21.65,8.526c-0.198,1.893,0.071,4.073,0.869,5.975C385.084,128.864,385.314,129.094,385.557,129.314z
			"/>
		<path fill="#B87426" d="M318.328,188.707c4.637-2.277,6.768-6.065,7.526-10.932c0.554-3.559,0.921-7.245,2.102-10.669
			c0.826-2.395,2.106-5.101,4.824-5.681c3.133-0.668,6.579,2.112,8.192,4.507c1.169,1.735,1.92,3.883,3.336,5.439
			c1.9,2.085,4.836,2.518,7.522,1.868c4.984-1.208,5.907-6.833,8.413-10.635c2.774-4.205,6.548-2.098,8.611,1.459
			c2.757,4.753,4.517,10.955,10.53,12.516c4.229,1.097,9.132,0.46,12.9-1.837c1.638-0.997,3.529-2.98,2.34-5.63
			c-0.122-0.276-0.336-0.537-0.603-0.773c-1.179,2.482-2.778,5.511-5.434,6.69c-3.089,1.372-6.659,0.55-9.218-1.602
			c-3.776-3.174-4.521-8.077-7.033-12.085c-2.415-3.859-7.04-7.046-10.745-3.053c-2.749,2.963-4.514,6.843-7.739,9.363
			c-6.987,5.459-11.496-3.943-16.149-7.636c-2.962-2.35-7.18-1.991-9.893,0.674c-2.656,2.606-3.734,6.346-4.622,9.854
			c-1.69,6.676-2.732,15.327-9.311,19.089C315.419,189.683,316.973,189.372,318.328,188.707z"/>
		<path fill="#B87426" d="M481.14,204.663c0.503,0.445,1.022,0.869,1.549,1.285c-0.189-1.049-0.525-2.034-1.056-2.888
			c-0.853-1.374-2.083-2.212-3.492-2.709C478.845,201.94,479.717,203.406,481.14,204.663z"/>
		<path fill="#B87426" d="M459.69,182.901c0.895-4.081,0.211-8.481-4.984-8.906c-0.409-0.033-0.813-0.045-1.214-0.045
			C455.49,176.995,457.39,180.118,459.69,182.901z"/>
		<path fill="#B87426" d="M338.381,169.396c3.435,1.838,6.059,4.867,9.504,6.664c2.938,1.53,5.458,1.18,8.36-0.255
			c2.425-1.2,5.306-3.545,8.132-3.499c5.518,0.089,7.529,6.821,12.618,8.059c5.376,1.309,15.031,0.803,18.406-4.416
			c2.372-3.667,3.392-8.277,6.445-11.506c1.896-2.012,3.892-2.628,5.888-2.292c-0.858-3.485-2.466-6.827-6.435-7.382
			c-0.176-0.026-0.35-0.033-0.525-0.046c-0.965,1.088-1.746,2.381-2.417,3.697c-1.491,2.924-2.575,6.027-3.924,9.016
			c1.158,0.817,1.954,2.134,1.681,3.93c-0.832,5.513-9.236,7.614-13.805,7.214c-4.02-0.353-7.378-1.966-9.901-5.138
			c-2.602-3.269-3.428-8.251-6.628-10.979c-4.092-3.488-6.674,5.98-8.274,8.464c-1.85,2.872-4.893,4.163-8.294,4.017
			c-4.349-0.185-6.278-2.63-8.251-6.184c-1.375-2.476-5.953-8.285-9.304-5.214c-1.399,1.285-2.19,3.152-2.714,5.103
			C332.145,167.789,335.396,167.798,338.381,169.396z"/>
		<path fill="#B87426" d="M429.695,161.382c0.071-0.032,0.139-0.065,0.206-0.098c4.999-2.263,10.627-0.558,14.89,2.599
			c3.169,2.351,5.543,5.386,7.715,8.59c1.618-0.102,3.243,0.08,4.773,0.653c3.957,1.474,4.922,5.869,4.078,9.628
			c-0.118,0.535-0.273,1.047-0.44,1.551c1.445,1.562,3.052,2.982,4.936,4.166c4.107,2.585,9.171,3.748,11.033,8.685
			c0.192,0.51,0.378,1.014,0.567,1.509c1.753,0.386,3.409,1.115,4.587,2.448c-0.065-1.162-0.099-2.36-0.194-3.611
			c-0.395-5.156-5.721-5.948-9.565-7.92c-3.453-1.772-4.802-4.455-5.228-8.242c-0.667-5.955-2.449-11.501-8.931-13.12
			c-4.88-1.216-9.82-1.471-12.756-6.17c-2.445-3.911-5.247-10.485-11.158-9.309c-2.89,0.577-6.088,3.279-9.34,5.361
			c0.962,0.923,2.095,1.68,3.266,2.362C428.651,160.764,429.176,161.069,429.695,161.382z"/>
		<path fill="#B87426" d="M326.778,151.865c1.904,1.354,4.089,2.009,6.499,0.903c-1.954-0.812-4.174-1.501-6.043-1.045
			C327.071,151.763,326.924,151.812,326.778,151.865z"/>
		<path fill="#B87426" d="M348.578,137.539c0.158,0.175,0.31,0.359,0.452,0.552c0.472,0.64,1.225,2.325,2.186,2.294
			c1.385-0.046,2.221-0.739,2.962-1.885c0.912-1.41,1.597-2.931,2.315-4.438c-2.012-0.132-4.026,0.253-5.715,1.262
			C349.802,135.908,349.059,136.673,348.578,137.539z"/>
		<path fill="#814200" d="M436.325,198.491c-3.594,1.367-6.687,4.277-10.599,4.753c1.882,0.372,3.822,0.638,5.75,1.075
			c3.426,0.778,6.498,2.243,8.705,4.713c-0.669-2.402-0.432-4.823-0.7-7.287C439.264,199.753,438.752,197.57,436.325,198.491z"/>
		<path fill="#814200" d="M454.59,212.034c-2.91-0.14-5.662,1.157-8.555,1.223c-1.457,0.036-2.76-0.319-3.788-1.062
			c0.076,0.164,0.155,0.326,0.225,0.496c0.708,1.722,0.872,3.422,1.223,5.221c0.31,1.601,1.386,2.034,2.93,2.393
			c3.557,0.83,7.228-0.165,10.755-0.301C458.169,217.087,458.616,212.23,454.59,212.034z"/>
		<path fill="#814200" d="M456.808,231.961c2.157,1.744,5.479,1.364,8.07,1.69c0.802,0.102,1.641,0.237,2.464,0.442
			c-0.235-0.393-0.451-0.803-0.638-1.244c-1.013-2.411-1.335-5.327-2.935-7.455c-1.561-2.076-3.639-2.57-5.848-2.509
			C456.788,225.51,454.499,230.096,456.808,231.961z"/>
		<path fill="#814200" d="M473.877,256.595c2.726,0.705,7.99-0.597,8.434-3.859c0.336-2.431-1.91-5.771-3.376-3.489
			c-0.511,0.795-0.565,0.071-0.022-0.714c0.322-0.464,0.739-0.688,1.191-0.728c-1.008-1.714,0.335-4.188-1.239-5.49
			c-1.849-1.528-4.082-2.303-6.159-3.406c0.271,1.113,0.28,2.328,0.107,3.58C472.321,246.011,468.159,255.118,473.877,256.595z"/>
		<path fill="#814200" d="M482.353,263.312c-0.765-0.042-7.128,0.801-9.552,0.724c-2.227-0.07-4.363-0.64-6.203-2.202
			c-1.563-1.331-2.498-2.989-2.914-4.996c-0.218-1.066-0.367-2.189-0.764-3.207c-0.457-1.179-0.547-1.474-1.745-1.518
			c-1.834-0.064-4.031-0.513-5.052-2.253c-0.7-1.193-0.815-2.703-0.887-4.048c-0.081-1.458,0.136-4.398-1.775-6.336
			c-0.886-0.897-3.212-1.145-4.406-1.539c-3.844-1.271-6.909-2.949-9.595-5.993c-0.153-0.173-0.311-0.342-0.466-0.514
			c1.145,8.792,5.681,13.126,13.15,18.313c2.456,1.707,4.996,4.384,4.83,6.845c-0.163,2.462-1.965,6.894,0.328,9.028
			c2.297,2.132,6.731-2.298,9.518-1.478c2.791,0.821,3.291,4.529,3.672,5.622c3.014,8.524,13.398,1.107,16.921-4.013
			C485.489,265.972,482.613,264.2,482.353,263.312z"/>
		<path fill="#814200" d="M433.169,211.841c3.337,3.681,4.802,9.714,5.388,14.883c1.148,1.18,2.28,2.379,3.399,3.601
			c2.758,3.012,6.226,4.394,10.136,5.423c2.648,0.697,3.551,1.903,4.644,4.39c1.253,2.832,0.805,7.186,1.315,8.46
			c0.829,2.063,4.319,0.097,5.869,1.174c1.669,1.162,2.114,3.924,2.495,5.76c0.576,2.757,2.047,4.906,5.05,5.424
			c2.96,0.507,5.831-0.319,8.724-0.835c2.403-0.427,4.76-0.533,7.195-0.255c2.05,0.234,4.048,0.656,5.97,1.243
			c0.449-0.21,0.898-0.444,1.337-0.709c-0.217-2.096-1.313-4.785-5.066-7.789c-2.913-2.33-5.374-3.042-6.844-3.122
			c0.457,0.7,0.748,1.551,0.719,2.423c-0.155,4.653-7.068,8.148-11.041,5.668c-5.09-3.179-2.181-9.469-1.318-13.981
			c0.35-1.85,0.722-4.334-0.502-5.967c-0.536-0.391-1.036-0.808-1.498-1.255c-2.012-1.175-4.68-1.377-6.893-1.502
			c-2.913-0.17-7.282-0.7-7.765-4.322c-0.338-2.553,0.804-5.104,1.815-7.537c-1.053,0.127-2.109,0.321-3.138,0.479
			c-2.642,0.41-5.301,0.311-7.867-0.493c-3.554-1.113-4.137-3.021-4.741-6.375c-1.021-5.649-5.078-8.545-10.466-9.592
			c-1.507-0.292-3.079-0.517-4.64-0.797C428.309,208.054,431.294,209.778,433.169,211.841z"/>
		<path fill="#814200" d="M393.104,198.567c-1.076-0.243-1.879-1.349-2.934-1.497c-0.294-0.042-0.592,0.012-0.891,0.125
			c-1.347,2.574-3.684,4.739-6.83,3.89c-0.036-0.011-0.074-0.022-0.108-0.033c-0.612,0.068-1.237,0.078-1.876,0.016
			c-2.105-0.202-4.03-0.855-5.879-1.872c-1.556-0.853-3.11-2.018-4.836-2.499c-5.689-1.582-10.483,5.4-11.903,9.785
			c-1.422,4.402-1.228,9.252-5.11,11.192c-3.066,1.535-8.567-0.172-10.65-0.519c-1.601-0.267-3.24-0.317-4.844-0.023
			c-1.745,0.321-3.266,1.408-4.85,2.161c-0.342,0.163-0.702,0.301-1.069,0.425c3.233,0.842,4.444,6.269,5.724,8.789
			c1.237,2.434,2.85,4.338,5.81,4.514c2.507,0.148,4.856-0.806,6.778-2.397c3.851-3.184,6.636-7.614,8.694-12.126
			c1.807-3.962,2.469-8.289,4.094-12.318c1.092-2.709,3.212-5.91,6.601-5.25c5.698,1.111,8.527,7.852,14.688,7.891
			c3.918,0.027,6.978-1.747,10.013-4.038c1.513-1.141,2.972-2.433,4.187-3.905c0.139-0.516,0.284-1.046,0.447-1.594
			c0.281-0.962,0.541-1.908,0.831-2.817C397.598,197.443,395.041,199.005,393.104,198.567z"/>
		<path fill="#814200" d="M311.213,244.528c-0.041,1.173-0.843,4.277-0.45,6.51c0.561-2.765,1.518-5.388,3.044-7.646
			c4.733-6.996,12.715-5.993,19.371-2.332c1.373,0.755,4.511,3.036,6.241,2.438c0.78-0.268,1.175-1.877,1.466-2.542
			c1.081-2.483,2.678-4.864,4.727-6.71c-2.1,0.482-4.307,0.301-6.336-0.813c-3.603-1.978-4.375-6.815-6.309-10.124
			c-0.452-0.774-1.361-2.54-2.541-2.174c-0.889,0.276-1.383,1.112-1.74,1.919c-0.853,1.93-1.277,4.012-2.059,5.968
			c-1.495,3.743-4.389,5.977-8.645,5.497c-4.334-0.491-6.711-3.49-6.458-7.894c0.256-4.417,3.578-6.17,6.528-4.292
			c0.803,0.511,1.265,1.478,0.551,0.86c-3.71-3.206-6.717,2.505-5.755,5.772c0.693,2.352,2.647,3.956,5.135,4.081
			c1.933,0.095,4.552-0.167,5.832-1.822c1.138-1.47,1.677-3.309,2.225-5.058c0.491-1.566,1.21-4.59,2.805-5.91
			c-1.256,0.121-2.535,0.028-3.716-0.304c-1.951-0.551-3.518-1.625-4.878-3.113c-1.211-1.325-2.531-3.052-4.414-3.401
			c-3.031-0.561-6.205,0.196-9.225,0.52c-2.753,0.296-5.415,0.32-8.128-0.307c-0.68-0.156-1.34-0.344-1.99-0.557
			c0.642,5.583,2.612,11.33,4.7,14.394C304.776,232.746,311.45,237.613,311.213,244.528z"/>
		<path fill="#814200" d="M370.237,221.908c-2.365,0.704-4.85,1.826-6.041,4.106c-0.925,1.772-2.049,3.692-3.604,4.99
			c-1.965,1.637-3.969,2.101-6.44,2.488c-2.93,0.459-5.396,1.685-7.471,3.848c-1.438,1.5-2.435,3.203-3.251,5.103
			c-0.441,1.023-0.871,2.339-1.772,3.071c-2.956,2.4-7.262-0.383-9.966-1.91c-3.294-1.86-8.118-3.796-11.832-1.892
			c-2.992,1.533-4.65,4.589-5.538,7.728c-0.379,1.334-0.664,2.701-0.873,4.086c1.242,0.002,3.001-0.558,5.471-1.956
			c1.308-0.74,3.14-2.07,4.648-2.386c1.828-0.383,3.114-0.778,4.862,0.171c2.494,1.352,4.054,3.339,5.99,5.362
			c8.089,8.459,17.354-0.753,19.323-16.838c0.295-2.409,2.954,4.431,0.663,10.768c13.198-3.133,15.602-15.07,16.064-26.811
			C370.391,221.86,370.315,221.885,370.237,221.908z"/>
		<path fill="#814200" d="M393.187,206.931c-3.43,2.626-8.417,4.515-12.703,2.806c-1.831-0.731-3.429-1.772-4.947-3.024
			c-1.791-1.478-3.698-3.489-5.997-4.143c-4.013-1.136-5.639,3.44-6.588,6.481c-1.236,3.96-2.142,7.909-4.045,11.627
			c-1.965,3.843-4.381,7.619-7.651,10.485c2.031-0.438,4.287-0.42,6.027-1.412c2.067-1.176,3.27-3.195,4.37-5.224
			c1.944-3.587,5.546-4.38,8.894-5.773c0.017-1.085,0.025-2.162,0.033-3.222c0.002-1.022,0.857-1.909,1.896-1.895
			c7.032,0.096,15.75,1.578,21.252-4.002c1.899-1.926,2.756-3.831,3.402-5.934C395.896,204.842,394.549,205.891,393.187,206.931z"/>
		<path fill="#814200" d="M343.965,214.52c2.174,0.407,8.189,2.187,9.551-1.855c1.699-5.037,2.741-10.684,6.514-14.7
			c1.741-1.855,3.767-3.401,6.018-4.056c-4.151,0.785-8.69,0.634-11.868-1.606c-2.462-1.736-6.102-12.814-9.799-7.321
			c-4.699,6.978-2.369,16.197-6.167,23.601c-1.662,3.24-4.373,6.209-8.223,6.521c-2.834,0.232-7.429-0.526-8.556-3.66
			c-0.908-2.531,0.519-5.229,1.565-7.488c0.566-1.22,1.431-2.696,1.408-4.085c-0.026-1.774-2.312-2.315-3.739-1.882
			c-2.719,0.821-5.068,2.648-7.9,3.122c-2.514,0.421-5.257-0.126-7.613-0.989c-1.058-0.387-2.101-0.893-3.12-1.48
			c-4.351,1.107-5.845,5.866-5.749,11.339c1.618,0.67,3.383,1.106,5.343,1.226c5.157,0.309,11.451-2.421,16.332-0.118
			c3.498,1.653,5.107,6.145,9.359,6.216c3.745,0.064,6.349-2.602,9.931-3.13C339.544,213.839,341.709,214.098,343.965,214.52z"/>
		<circle fill="#FFFFFF" cx="381.931" cy="235.482" r="1.256"/>
		<circle fill="#FFFFFF" cx="429.197" cy="237.028" r="1.255"/>
		<path d="M405.401,257.679c-1.388,1.066-3.655,2.637-5.135,2.888c-1.388,0.236-3.212-1.88-4.141-3.189
			c-0.431-0.604-0.751,0.92-0.043,1.919c1.039,1.467,2.175,3.039,4.126,2.998c2.063-0.045,3.67-1.449,4.843-2.547
			C406.241,258.636,405.795,257.377,405.401,257.679z"/>
		<path fill="#B10000" d="M388.553,273.711c0,0,0.266,9.963,9.431,9.61c16.195-0.623,13.97-9.521,13.97-9.521
			s-6.585,2.937-12.633,2.582C393.267,276.025,388.553,273.711,388.553,273.711z"/>
		<path d="M414.21,272.523c1.07-1.038,0.863-2.937,0.505-2.589c-0.18,0.178-1.552,1.392-2.901,2.134
			c-3.182,0.26-5.169-0.884-6.699-3.382c-0.42-0.686-1.62-1.153-2.713-0.808c-0.774,0.245-1.88,2.037-2.617,2.872
			c-2.167,2.452-3.464-2.177-3.575-2.536c-0.228-0.738-0.95-1.034-1.429-0.574c-1.964,1.882-4.355,3.376-7.332,3.639
			c-0.197-0.144-1.93-0.952-2.127-1.088c-0.338-0.23,0.043,2.23,2.006,3.302c0.727,5.012,2.522,8.566,7.578,10.262
			c5.234,1.753,10.133,0.122,13.696-2.101c2.196-1.37,2.303-3.237,1.84-2.872c-3.477,2.745-8.48,3.797-12.815,3.156
			c-4.784-0.707-7.212-3.186-8.158-7.261C397.426,278.583,407.845,278.706,414.21,272.523z"/>
		<path fill="#9A0000" d="M389.404,272.688c2.04-0.355,4.345-1.99,5.34-2.767c0.363-0.283,1.29,2.709,2.874,3.281
			c0.962,0.348,1.959,0.254,2.995-0.792c0.547-0.552,1.045-1.464,1.501-2.093c1.617-2.229,2.639,0.863,3.901,1.809
			c1.081,0.811,2.735,1.413,4,1.419C404.173,276.441,395.217,275.681,389.404,272.688z"/>
		<path fill="#F76D2B" d="M374.828,230.929c1.297-0.067,5.041,0.459,9.627,2.064c4.583,1.604,10.927,4.891,12.378,5.5
			c1.453,0.614-0.993-4.889-6.723-8.786c-3.818-2.596-8.636-4.281-11.997-4.356c-3.364-0.076-3.44,0.076-3.516,1.147
			C374.521,227.567,373.375,231.006,374.828,230.929z"/>
		<path fill="#F76D2B" d="M408.37,237.73c2.098-0.749,11.335-3.267,16.507-4.051c6.571-0.992,10.086,0.612,10.086,0.612
			s0.153-1.757-0.077-2.061c-0.228-0.307-3.591-1.989-7.641-2.141c-4.051-0.153-7.336,0.458-11.691,2.141
			C411.196,233.909,406.231,238.494,408.37,237.73z"/>
		<path fill="#FFC095" d="M379.184,348.363c5.966,0.645,12.527,6.746,15.097,13.169C396.85,367.957,367.301,347.079,379.184,348.363
			z"/>
		<path fill="#FFC095" d="M405.522,358.32c1.612-4.63,9.633-10.598,17.666-10.922C431.219,347.079,402.953,365.707,405.522,358.32z"
			/>
		<path fill="#FFC095" d="M344.175,329.092c2.891-3.533,10.599-4.498,15.417-5.139C364.407,323.311,335.502,339.692,344.175,329.092
			z"/>
		<path fill="#FFC095" d="M440.531,323.311c4.448,1.175,11.886,1.928,13.813,7.706C456.269,336.8,429.612,320.42,440.531,323.311z"
			/>
		<path fill="#FFC095" d="M424.151,262.605c2.668-5.089,10.601-12.846,8.996-7.708c-1.609,5.138-9.315,18.95-12.208,21.52
			C418.048,278.986,420.618,269.351,424.151,262.605z"/>
		<path fill="#FFC095" d="M381.432,252.326c4.501,0.25,6.103,4.174,0.643,4.174C376.614,256.5,375.65,252.006,381.432,252.326z"/>
		<path fill="#F7AE95" d="M407.594,277.376c1.589-0.517,1.637,1.133-0.063,1.761C405.624,279.844,405.268,278.131,407.594,277.376z"
			/>
		<path fill="#AE6856" d="M250.877,212.352c3.707,0.58,7.891,11.835,8.048,19.409c0.225,10.768-8.206-3.787-9.939-7.417
			C247.249,220.714,245.828,211.563,250.877,212.352z"/>
		<path fill="#AE6856" d="M262.398,259.998c1.262,5.681,4.58,11.975,10.098,15.937c6.154,4.418,12.308,5.365,14.675,5.524
			c2.367,0.157-11.469,5.231-19.881-1.579C257.347,271.832,260.27,250.432,262.398,259.998z"/>
		<path fill="#AE6856" d="M230.68,222.608c0.387-3.884,4.102-8.521,7.575-9.784C241.725,211.563,229.733,232.076,230.68,222.608z"/>
		<path fill="#AE6856" d="M212.69,256.377c1.242-4.472,3.315-8.363,5.998-6.785c2.681,1.577-0.159,13.727-2.683,21.775
			c-2.525,8.048-6.978,15.947-6.47,7.575C209.851,273.735,211.114,262.056,212.69,256.377z"/>
		<path fill="#AE6856" d="M222.475,331.015c2.379-5.606,14.832-5.365,16.411-1.735C240.462,332.909,217.583,342.535,222.475,331.015
			z"/>
		<path fill="#924735" d="M435.503,372.348c8.047-3.944,12.78-4.102,12.625,0c-0.163,4.103-8.052,9.311-16.414,9.153
			C423.35,381.343,426.629,376.698,435.503,372.348z"/>
		<path fill="#924735" d="M373.328,372.034c6.951,3.474,13.887,8.834,10.416,10.414c-3.472,1.577-10.731,0.315-15.623-4.103
			C363.23,373.926,362.599,366.668,373.328,372.034z"/>
		<path fill="#924735" d="M438.815,425.998c3.813,5.394,8.835,14.834,9.623,21.62c0.79,6.785-8.363-2.684-12.465-10.731
			C433.499,432.031,428.87,411.955,438.815,425.998z"/>
		<path fill="#AE6856" d="M259.383,384.015c3.371-6.742,9.152-11.079,9.634-6.742c0.483,4.336-3.372,18.787-7.708,19.268
			C256.973,397.025,256.49,389.798,259.383,384.015z"/>
		<path fill="#924735" d="M350.439,462.547c0.344-7.218,5.299-25.534,6.744-14.455c1.446,11.082,0,38.061-3.372,35.171
			C350.439,480.373,349.957,472.664,350.439,462.547z"/>
		<path fill="#B87426" d="M422.793,122.445c4.675,4.384,9.352,2.924,14.615,3.216c5.262,0.292,10.234,2.924,11.401,5.554
			c1.168,2.633-2.047,6.723,2.631,10.525c6.944,5.643,10.934,4.674,15.493,2.63c8.477-3.8,13.74-2.047,15.786,2.923
			c2.046,4.97-0.585,11.402,5.846,16.37c6.43,4.97,12.385,6.333,16.369,9.94c6.14,5.553-3.799,11.108-6.139,13.154
			c1.755-3.8,5.553-9.647,0.584-12.278c-4.164-2.206-14.322-6.432-18.124-12.277c-3.8-5.848-3.213-13.447-6.723-13.74
			c-3.506-0.292-10.52,5.261-17.831,2.047c-7.308-3.217-12.57-5.847-13.449-11.109c-0.561-3.376,1.772-7.04-0.582-8.478
			c-5.262-3.216-9.648-0.877-14.324-2.63C423.669,126.538,422.793,122.445,422.793,122.445z"/>
		<path fill="#E0B500" d="M403.806,319.598c-0.073,1.599-0.872,3.854-1.598,5.526c-1.052,2.416-2.182,3.124-2.182,3.124
			s1.02-2.762,0.945-4.796c-0.076-2.113-1.307-3.78-0.871-3.925C401.222,319.151,402.934,319.017,403.806,319.598z"/>
	</g>
</g>
</svg>
