<?xml version="1.0" encoding="utf-8"?>
<!-- Generator: Adobe Illustrator 17.0.0, SVG Export Plug-In . SVG Version: 6.00 Build 0)  -->
<!DOCTYPE svg PUBLIC "-//W3C//DTD SVG 1.1//EN" "http://www.w3.org/Graphics/SVG/1.1/DTD/svg11.dtd">
<svg version="1.1" id="Layer_1" xmlns="http://www.w3.org/2000/svg" xmlns:xlink="http://www.w3.org/1999/xlink" x="0px" y="0px"
	 width="800px" height="600px" viewBox="0 0 800 600" enable-background="new 0 0 800 600" xml:space="preserve">
<g>
	<path fill-rule="evenodd" clip-rule="evenodd" fill="#E8E8E9" d="M546.257,407.414c-3.478-40.69-34.444-88.828-60.359-108.176
		c2.789-12.39-0.103-28.469-3.138-36.676c-7.323-19.795-24.487-48.009-28.999-70.757c7.572-0.616,12.721-6.7,10.854-15.514
		c-1.867-8.818-7.741-13.227-17.536-10.053c-1.045-8.031-3.384-15.19-5.082-22.595c13.474-1.741,28.773-7.736,26.906-18.487
		c-1.867-10.755-11.94-11.107-19.85-8.186c0.075-24.612-10.557-48.239-49.172-44.535c-20.199,1.935-26,15.333-27.798,25.037
		c-1.794,9.703-1.675,15.518-1.675,22.043c-8.398-0.71-16.979-12.17-24.044-1.433c-7.389,11.221,8.373,24.352,24.695,26.671
		c-2.702,8.259-4.382,17.253-5.883,24.45c-9.877-4.726-17.152,3.387-18.647,13.083c-1.493,9.699,3.359,17.983,12.378,15.078
		c-6.52,22.712-28.789,70.264-18.156,110.639c-33.202,18.517-55.482,58.335-64.638,88.21c-9.404,30.667-10.817,49.78-10.817,77.779
		c8.466,0.445,24.923,0.89,35.27,0.445c2.385,1.127,25.644,11.276,27.367,12.28c-6.05,14.096,2.707,24.521,14.916,19.003
		c2.919,7.759,13.834,11.134,23.563,3.982c0.536,5.719,9.188,9.605,15.587,5.785c2.46,3.921,9.058,4.158,13.809,1.162
		c8.111-5.105,10.379-12.563,10.815-21.144c18.96-4.571,42.018-10.938,63.207-16.961c1.848,3.284,6.276,7.985,10.064,8.391
		c3.994,0.424,8.752-2.15,9.405-6.641c2.481,4.29,10.26,3.779,12.319-1.737c4.432,3.574,11.132,1.226,14.854-5.199
		c2.006,3.051,5.899,3.51,9.409,1.851c3.512-1.661,6.506-9.982,7.074-16.981c5.785-2.065,30.172-10.221,31.103-12.864
		C564.988,442.723,551.362,413.624,546.257,407.414z"/>
	<path fill-rule="evenodd" clip-rule="evenodd" fill="#141111" d="M542.281,407.414c-3.48-40.69-34.444-88.828-60.362-108.176
		c2.784-12.39-0.105-28.469-3.14-36.676c-7.321-19.795-24.487-48.009-28.996-70.757c7.57-0.616,12.716-6.7,10.854-15.514
		c-1.867-8.818-7.743-13.227-17.54-10.053c-1.041-8.031-3.38-15.19-5.078-22.595c13.476-1.741,28.773-7.736,26.906-18.487
		c-1.867-10.755-11.94-11.107-19.852-8.186c0.08-24.612-10.557-48.239-49.17-44.535c-20.201,1.935-26,15.333-27.796,25.037
		c-1.796,9.703-1.682,15.518-1.682,22.043c-8.391-0.71-16.974-12.17-24.04-1.433c-7.39,11.221,8.373,24.352,24.692,26.671
		c-2.707,8.259-4.38,17.253-5.881,24.45c-9.879-4.726-17.15,3.387-18.649,13.083c-1.493,9.699,3.359,17.983,12.38,15.078
		c-6.515,22.712-28.789,70.264-18.156,110.639c-33.205,18.517-55.48,58.335-64.64,88.21c-9.407,30.667-10.817,49.78-10.817,77.779
		c8.466,0.445,24.925,0.89,35.27,0.445c2.385,1.127,25.644,11.276,27.369,12.28c-6.05,14.096,2.702,24.521,14.916,19.003
		c2.916,7.759,13.834,11.134,23.563,3.982c0.538,5.719,9.188,9.605,15.591,5.785c2.458,3.921,9.051,4.158,13.804,1.162
		c8.111-5.105,10.374-12.563,10.812-21.144c18.964-4.571,42.018-10.938,63.212-16.961c1.846,3.284,6.276,7.985,10.062,8.391
		c3.994,0.424,8.752-2.15,9.402-6.641c2.485,4.29,10.265,3.779,12.319-1.737c4.434,3.574,11.134,1.226,14.856-5.199
		c2.008,3.051,5.897,3.51,9.407,1.851c3.512-1.661,6.504-9.982,7.072-16.981c5.79-2.065,30.174-10.221,31.112-12.864
		C561.01,442.723,547.384,413.624,542.281,407.414z"/>
	<path fill-rule="evenodd" clip-rule="evenodd" fill="#005E96" d="M480.973,305.007c18.469,13.754,51.402,54.962,55.038,97.336
		c-8.409-6.538-23.812-10.715-25.299-10.913c-1.492-0.201-14.993,2.093-14.993,2.093s-8.031-6.999-9.487-7.965
		c-1.403-0.929-37.237-14.482-42.004-16.187c12.83-4.676,44.957-18.697,46.637-20.459c1.68-1.764-12.351-25.728-12.889-26.618
		c-0.538-0.888-4.646-4.065-6.636-5.274C475.114,314.042,479.297,309.241,480.973,305.007z"/>
	<path fill-rule="evenodd" clip-rule="evenodd" fill="#A07E2A" d="M334.156,395.194c-0.737-1.143,3.179-9.432,3.179-9.432
		s34.886,10.762,38.059,10.582c3.172-0.178,27.39-10.858,30.035-11.99c9.325,3.877,26.842,10.489,40.293,14.462
		c-4.101,10.048-6.709,20.653-9.27,32.68C426.513,429.758,334.891,396.332,334.156,395.194z"/>
	<path fill-rule="evenodd" clip-rule="evenodd" fill="#EDC300" d="M417.361,431.611c-13.238,2.999-46.904,12.04-48.684,12.166
		c-1.784,0.128-34.492-12.223-36.091-12.282c-1.593-0.062,43.739-13.811,44.857-13.46S403.374,426.671,417.361,431.611z"/>
	<path fill-rule="evenodd" clip-rule="evenodd" fill="#CAA721" d="M378.004,389.468c-1.041-0.344-3.873-21.267-2.987-22.921
		c0.885-1.657,97.494-42.201,99.244-42.143c1.753,0.064,11.566,18.341,12.873,22.745C468.48,356.85,379.04,389.808,378.004,389.468z
		"/>
	<path fill-rule="evenodd" clip-rule="evenodd" fill="#AD8828" d="M482.287,387.882c-8.46,1.33-32.648,8.284-32.648,8.284
		s-30.662-9.512-38.268-14.313c6.741-3.138,17.796-7.506,25.957-10.189C440.219,370.707,471.424,382.22,482.287,387.882z"/>
	<path fill-rule="evenodd" clip-rule="evenodd" fill="#EDC300" d="M374.132,363.326c-7.136-2.777-17.953-6.301-26.536-8.594
		c14.366-5.29,100.552-39.85,102.603-40.379c2.049-0.53,16.31,3.64,21.449,7.054C450.917,330.85,391.806,355.962,374.132,363.326z"
		/>
	<path fill-rule="evenodd" clip-rule="evenodd" fill="#AD8828" d="M370.355,366.371c0.813,0.81,2.985,22.741,2.054,23.624
		c-0.936,0.883-44.216-11.28-44.96-12.869c-0.749-1.593,12.196-19.304,13.056-19.574
		C341.628,357.199,369.538,365.554,370.355,366.371z"/>
	<path fill-rule="evenodd" clip-rule="evenodd" fill="#CAA721" d="M450.947,400.753c1.408-1.034,32.091-9.302,34.138-9.523
		c2.052-0.215,17.828,15.245,19.4,18.341c-18.353,9.199-58.76,24.026-61.005,23.275
		C441.239,432.095,449.541,401.789,450.947,400.753z"/>
	<path fill-rule="evenodd" clip-rule="evenodd" fill="#EDC300" d="M511.76,408.686c0,0-7.275-8.46-11.75-12.871
		c3.957-0.872,9.471-1.522,10.822-1.412c1.342,0.116,17.851,6.876,20.514,9.701C521.649,406.399,511.76,408.686,511.76,408.686z"/>
	<path fill-rule="evenodd" clip-rule="evenodd" fill="#005E96" d="M400.752,76.316c23.506-0.707,34.51,11.636,38.059,31.21
		c-9.701,2.818-53.326,13.898-66.786,0.876C371.279,90.597,381.909,76.882,400.752,76.316z"/>
	<path fill-rule="evenodd" clip-rule="evenodd" fill="#92A6C7" d="M372.208,111.93c14.927,10.404,48.88,4.058,66.786-1.586
		c0.931,1.94,1.171,6.23,0.374,8.288c-8.581,8.111-27.841,10.153-43.682,9.45c-14.338-0.637-24.035-5.749-24.035-5.749
		S370.649,115.999,372.208,111.93z"/>
	<path fill-rule="evenodd" clip-rule="evenodd" fill="#005E96" d="M361.203,138.558c-8.766-4.057-17.67-9.019-14.548-17.631
		c2.424-6.7,9.14,1.935,19.587,4.231c10.445,2.289,20.151,7.732,42.162,6.347c22.011-1.385,30.964-6.522,36.372-9.17
		c5.559-2.718,13.06-2.469,14.366,3.702c1.305,6.173-9.516,9.347-18.279,11.817c-8.772,2.469-25.932,5.112-38.992,4.761
		C388.815,142.262,369.971,142.613,361.203,138.558z"/>
	<path fill-rule="evenodd" clip-rule="evenodd" fill="#EAC4A3" d="M350.224,225.889c3.22-11.625,7.809-25.619,10.979-34.61
		c-3.362,1.766-9.884,5.114-12.31-0.174c-2.428-5.29-0.749-15.167,4.29-17.812c5.03-2.645,9.514,1.588,11.187,3.174
		c1.109-10.808,3.549-20.808,6.349-30.859c18.124,2.287,44.893,1.908,62.308-0.707c3.17,8.996,5.114,18.686,7.088,28.038
		c7.091-4.936,13.617-3.348,14.923,4.409c1.305,7.757-3.17,9.345-9.699,8.64c0.561,6.173,2.241,17.634,6.534,29.448
		c4.286,11.812,17.716,35.265,22.209,50.457c2.809,9.516,4.405,25.665,1.175,35.197c-1.883,5.564-5.395,11.826-10.975,13.709
		c-2.332-0.272-12.41-3.62-14.649-2.912c-2.236,0.703-51.491,19.92-66.783,26.443c-14.918-3.581-23.69-8.987-32.627-19.829
		C330.696,294.818,342.408,254.101,350.224,225.889z"/>
	<path fill-rule="evenodd" clip-rule="evenodd" fill="#005E96" d="M268.37,467.771c-0.329-8.998-1.885-44.446,16.004-86.288
		c12.641-29.569,30.569-53.33,54.485-68.536c8.731,16.573,23.816,25.407,36.534,28.031c-11.785,4.252-36.178,13.725-37.687,14.282
		c-1.511,0.557-17.278,21.148-16.098,23.257c0.803,1.431,11.623,5.308,11.623,5.308s-5.598,11.636-5.347,12.846
		c0.498,2.437,27.355,12.542,45.464,18.519c-15.496,3.905-46.792,12.348-50.17,14.827c-3.382,2.478-26.596,29.754-29.889,37.312
		C286.312,468.143,277.058,468.148,268.37,467.771z"/>
	<path fill-rule="evenodd" clip-rule="evenodd" fill="#EAC4A3" d="M336.707,501.222c-5.947,2.967-10.422-0.612-10.265-5.616
		c0.212-7.049,6.912-21.486,10.803-24.822c4.646-3.987,7.693-2.166,8.861,1.94C347.278,476.831,339.834,499.661,336.707,501.222z"/>
	<path fill-rule="evenodd" clip-rule="evenodd" fill="#EAC4A3" d="M344.165,501.841c0.659-7.159,9.726-27.283,14.589-29.015
		c4.026-1.438,6.808-1.433,8.108,3.571c1.296,5.009-7.349,25.135-9.621,29.734C354.973,510.723,343.506,508.997,344.165,501.841z"/>
	<path fill-rule="evenodd" clip-rule="evenodd" fill="#AD8828" d="M365.35,496.626c2.485-6.944,5.454-16.21,5.08-21.146
		c-0.374-4.939-3.966-7.159-6.488-7.684c-7.78-1.611-12.125,4.977-14.699,10.851c1.171-5.972,1.515-11.75-4.507-13.441
		c-9.637-2.711-15.315,9.557-18.293,16.098c-4.763-1.52-26.632-12.111-26.235-14.076c0.399-1.965,24.003-31.872,25.749-32.442
		c1.746-0.568,38.771,12.59,39.357,13.754c0.591,1.164,10.1,20.046,10.409,32.967C372.831,483.972,368.682,489.743,365.35,496.626z"
		/>
	<path fill-rule="evenodd" clip-rule="evenodd" fill="#EAC4A3" d="M367.078,504.846c1.294-7.501,6.874-19.149,13.941-22.011
		c3.786-1.531,5.331,1.246,5.655,2.376c2.02,7.024-7.49,23.677-9.22,25.822C375.398,513.584,366.092,510.542,367.078,504.846z"/>
	<path fill-rule="evenodd" clip-rule="evenodd" fill="#EAC4A3" d="M392.475,511.747c-6.481,5.511-8.377,1.707-8.934,0.139
		c-1.438-4.023,7.097-25.375,13.261-22.408C400.556,491.281,398.958,506.229,392.475,511.747z"/>
	<path fill-rule="evenodd" clip-rule="evenodd" fill="#EAC4A3" d="M480.879,479.168c1.187,5.112-5.753,4.308-8.542,1.839
		c-3.186-2.821-11.668-16.545-10.803-21.856c0.507-3.113,3.457-4.393,6.808-1.536C470.101,459.117,479.69,474.059,480.879,479.168z"
		/>
	<path fill-rule="evenodd" clip-rule="evenodd" fill="#EAC4A3" d="M491.363,478.967c-2.859,0.92-8.861-5.922-12.538-17.161
		c-3.676-11.237-1.732-19.92,1.942-21.452c5.185-2.168,7.787,12.054,10.16,18.798C493.31,465.893,497.089,477.13,491.363,478.967z"
		/>
	<path fill-rule="evenodd" clip-rule="evenodd" fill="#EAC4A3" d="M508.221,472.942c-1.15,1.913-5.726,4.085-7.994,2.449
		c-2.273-1.632-2.798-4.468-3.243-8.069c-1.191-9.601-0.219-22.066,0.648-27.782c0.865-5.726,3.549-6.408,5.835-6.337
		c6.698,0.205,5.294,18.286,5.294,25.028C508.762,464.973,510.058,469.878,508.221,472.942z"/>
	<path fill-rule="evenodd" clip-rule="evenodd" fill="#EAC4A3" d="M527.028,441.988c-0.322,11.643-2.054,23.905-5.513,27.89
		c-3.455,3.982-7.78,1.022-8.106-2.757c-0.319-3.784-1.404-38.214,6.919-40.815C525.432,424.713,527.352,430.338,527.028,441.988z"
		/>
	<path fill-rule="evenodd" clip-rule="evenodd" fill="#CAA721" d="M529.67,453.296c0.539-5.272,1.816-17.189-0.203-23.748
		c-2.008-6.561-5.4-8.985-11.515-6.461c-4.208,1.739-6.205,6.929-7.138,10.521c-3.453-6.538-13.83-5.819-15.886,2.248
		c-1.816,7.159-1.944,14.61-2.038,20.831c-2.604-7.444-5.178-24.551-13.845-20.117c-7.782,3.985-6.159,17.57-4.432,25.032
		c-1.992-3.396-6.486-10.525-13.076-7.974c-6.591,2.551-2.052,14.605,1.723,20.829c-20.893,5.995-41.92,11.899-61.3,16.308
		c-1.264-5.272-7.323-7.522-10.997-2.618c1.625-6.794-4.535-10.215-8.48-9.459c-1.347-10.596-5.783-20.984-9.142-29.973
		c17.027-5.5,51.302-13.051,51.302-13.051s13.247,4.411,15.667,4.236c2.428-0.178,34.332-10.758,49.999-18.517
		c11.778-4.033,41.975-13.398,44.029-13.047c2.052,0.349,21.194,33.844,18.841,35.97
		C550.561,446.673,536.384,450.831,529.67,453.296z"/>
	<path fill-rule="evenodd" clip-rule="evenodd" fill="#141111" d="M385.891,194.768c-1.312,19.612-15.527,46.657-12.939,70.019
		c2.335,21.007,31.299,25.11,40.811,9.258c8.651-14.404-0.105-52.815-7.88-74.837c9.263,4.197,19.77,0.466,25.067-8.22
		c5.297-8.683,3.565-20.431-6.253-26.226c2.796-1.867,5.929-5.952,6.36-9.021c-3.126-2.341-11.564-6.639-17.511-7.252
		c-2.834,1.326-4.968,5.313-5.705,7.75c1.924,1.652,6.358,4.717,11.004,6.862c-10.701-2.556-20.213,5.005-22.371,9.811
		c-10.162-10.934-29.877-4.562-30.181,9.258C365.991,195.996,377.011,199.878,385.891,194.768z"/>
	<path fill-rule="evenodd" clip-rule="evenodd" fill="#F9EEDB" d="M423.489,162.28c0,0-8.759-4.083-12.426-6.94
		c0.429-1.33,1.839-3.886,3.46-4.703c3.889,1.125,10.806,4.087,13.722,5.927C426.624,160.037,423.489,162.28,423.489,162.28z"/>
	<path fill-rule="evenodd" clip-rule="evenodd" fill="#FFFFFF" d="M412.815,165.623c12.285-1.337,17.803,8.836,16.995,16.463
		c-0.648,6.132-5.039,13.695-15.628,14.204c-6.536,0.315-13.832-2.579-15.879-13.396
		C396.704,174.489,404.388,166.546,412.815,165.623z"/>
	<path fill-rule="evenodd" clip-rule="evenodd" fill="#EAC4A3" d="M394.513,188.842c3.797,0.004,12.766,24.523,17.196,48.426
		c2.33,12.549,3.807,35.594-8.574,39.741c-8.282,2.775-27.093,2.862-25.865-20.742c0.853-16.381,10.374-46.126,11.417-53.526
		C389.771,195.076,390.722,188.837,394.513,188.842z"/>
	<path fill-rule="evenodd" clip-rule="evenodd" fill="#FFFFFF" d="M378.237,171.194c6.484-2.453,14.551,1.328,15.626,7.02
		c0.701,3.711,0.424,9.845-7.513,13.072c-7.611,3.094-14.959,1.141-16.221-5.486C368.81,178.857,371.753,173.645,378.237,171.194z"
		/>
	<path fill-rule="evenodd" clip-rule="evenodd" fill="#141111" d="M373.739,162.164c0.356-3.457,1.655-6.929,3.14-9.998
		c4.578-0.424,14.731,0.308,18.807,2.593c0.244,2.111-0.942,6.299-2.241,7.93C388.358,164.325,378.096,163.713,373.739,162.164z"/>
	<path fill-rule="evenodd" clip-rule="evenodd" fill="#F9EEDB" d="M378.746,154.313c-0.65,1.739-1.294,4.699-1.189,5.824
		c2.396,0.974,11.988,1.561,14.158,0.308c0.648-0.819,1.079-2.962,0.97-4.188C390.85,154.827,383.173,153.702,378.746,154.313z"/>
	<path fill-rule="evenodd" clip-rule="evenodd" fill="#141111" d="M412.249,176.89c5.838,0,4.854,8.521-0.37,8.195
		C406.743,184.759,406.941,176.89,412.249,176.89z"/>
	<path fill-rule="evenodd" clip-rule="evenodd" fill="#141111" d="M383.41,179.702c2.665,1.157,2.029,4.947,0.027,6.016
		c-2.001,1.07-4.644-0.354-4.89-2.606C378.299,180.859,380.754,178.549,383.41,179.702z"/>
	<path fill-rule="evenodd" clip-rule="evenodd" fill="#141111" d="M443.921,218.678c10.81,15.117-2.807,40.179-16.484,23.506
		C433.149,234.748,438.649,226.537,443.921,218.678z"/>
	<path fill-rule="evenodd" clip-rule="evenodd" fill="#141111" d="M397.66,324.001c-7.463,1.636-13.791-1.365-12.161-8.092
		c5.942,7.1,16.431,2.214,20.696-3.346C409.276,315.571,405.116,322.367,397.66,324.001z"/>
	<path fill-rule="evenodd" clip-rule="evenodd" fill="#95B1D8" d="M382.998,87.528c2.236-2.741,7.412-5.425,11.413-4.261
		c4.001,1.161,2.006,9.685-5.801,14.523C380.793,102.631,376.996,94.885,382.998,87.528z"/>
	<path fill-rule="evenodd" clip-rule="evenodd" fill="#95B1D8" d="M349.77,127.031c-2.045-2.57-1.369-7.307,4.605-4.256
		c3.325,1.696,10.206,4.644,19.416,7.36c4.731,1.392-6.885,4.32-14.409,1.935C354.35,130.479,351.774,129.553,349.77,127.031z"/>
	<path fill-rule="evenodd" clip-rule="evenodd" fill="#95B1D8" d="M422.035,131.684c3.597-0.415,11.406-1.935,16.011-4.067
		c4.601-2.131,2.602,4.842-6.406,7.163C422.633,137.109,413.628,132.649,422.035,131.684z"/>
	<path fill-rule="evenodd" clip-rule="evenodd" fill="#95B1D8" d="M311.534,343.358c4.099-5.164,10.81-12.978,16.413-15.496
		c5.607-2.517-5.203,11.041-11.207,22.077c-6.006,11.041-16.415,29.051-18.017,23.435
		C297.122,367.761,300.922,356.717,311.534,343.358z"/>
	<path fill-rule="evenodd" clip-rule="evenodd" fill="#95B1D8" d="M278.708,419.468c1.851-8.747,7.004-22.467,12.207-25.758
		c7.946-5.025-1.2,18.59-3.003,30.79c-1.798,12.205-3.601,24.599-3.8,30.795c-0.201,6.198-8.405,6.586-8.606-1.741
		C275.305,445.224,275.508,434.576,278.708,419.468z"/>
	<path fill-rule="evenodd" clip-rule="evenodd" fill="#E4B194" d="M381.569,146.979c0,0,11.516,0.712,17.225,0.712
		c5.712,0,14.74-0.621,14.74-0.621s-8.015,4.808-19.713,4.274C382.121,150.813,381.569,146.979,381.569,146.979z"/>
	<path fill-rule="evenodd" clip-rule="evenodd" fill="#E4B194" d="M429.929,256.775c0,0,1.203,5.881,10.132,2.052
		c8.934-3.834,10.132-10.963,10.132-10.963s7.734,13.725-6.723,18.271C429.012,270.678,429.929,256.775,429.929,256.775z"/>
	<path fill-rule="evenodd" clip-rule="evenodd" fill="#141111" d="M443.921,260.459c-7.134,3.291-16.121,1.91-14.911-5.676
		c8.574,7.54,20.534-1.682,20.746-9.649C452.782,249.938,450.187,257.572,443.921,260.459z"/>
	<path fill-rule="evenodd" clip-rule="evenodd" fill="#E4B194" d="M374.074,271.677c0,0,3.115,12.056,21.388,12.857
		c18.28,0.803,20.973-15.267,20.973-15.267s5.194,25.514-21.803,26.719C370.925,297.043,374.074,271.677,374.074,271.677z"/>
	<path fill-rule="evenodd" clip-rule="evenodd" fill="#F6E6D3" d="M383.666,236.309c0.87-5.865,3.505-14.585,5.959-15.26
		c2.779-0.769,6.31,31.541,4.909,40.361c-1.404,8.82-11.219,10.511-12.62-0.678C380.51,249.536,382.963,241.058,383.666,236.309z"/>
	<path fill-rule="evenodd" clip-rule="evenodd" fill="#F6E6D3" d="M395.935,304.147c5.351-0.972,11.217,4.409,5.26,8.82
		c-7.225,5.347-11.919,2.711-12.62-0.34C387.872,309.574,390.323,305.165,395.935,304.147z"/>
	<path fill-rule="evenodd" clip-rule="evenodd" fill="#F6E6D3" d="M439.794,248.97c3.108-1.566,7.289-3.528,7.175-0.66
		c-0.114,2.864-3.631,6.935-9.567,7.271C433.53,255.803,434.327,251.723,439.794,248.97z"/>
	<path fill-rule="evenodd" clip-rule="evenodd" fill="#F6E6D3" d="M354.517,174.033c1.44-0.719,5.128-0.395,6.235,1.431
		c1.225,2.033-2.095,4.309-5.523,5.395c-3.423,1.089-4.633-1.947-3.777-3.606C351.957,176.258,352.933,174.825,354.517,174.033z"/>
	<path fill-rule="evenodd" clip-rule="evenodd" fill="#F6E6D3" d="M346.516,258.806c1.6-6.744,5.352-15.856,8.362-17.469
		c3.012-1.618,1.004,26.527-0.667,37.527C352.538,289.863,340.833,282.745,346.516,258.806z"/>
	<polygon fill-rule="evenodd" clip-rule="evenodd" fill="#F8E59A" points="386.354,340.309 427.761,339.223 447.535,331.468 
		402.03,334.28 	"/>
	<polygon fill-rule="evenodd" clip-rule="evenodd" fill="#F8E59A" points="340.74,428.693 387.507,438.693 408.53,433.008 
		355.526,424.382 	"/>
	<polygon fill-rule="evenodd" clip-rule="evenodd" fill="#DFC044" points="433.42,341.678 452.129,333.575 476.86,351.247 
		454.592,360.038 	"/>
	<polygon fill-rule="evenodd" clip-rule="evenodd" fill="#CDAE3E" points="362.698,364.337 370.106,367.087 338.257,380.342 
		328.878,376.996 	"/>
	<path fill-rule="evenodd" clip-rule="evenodd" fill="#DFC044" d="M387.407,445.676l25.525-6.171l44.661,19.941
		c0,0,0.491,2.376,1.474,7.127c0.981,4.745,2.453,7.123,2.453,7.123l-31.904,8.544L387.407,445.676z"/>
	<path fill-rule="evenodd" clip-rule="evenodd" fill="#CDAE3E" d="M340.098,439.706c0,0,4.183,1.152,7.775,2.456
		c3.583,1.303,9.263,3.617,9.263,3.617s-39.302,30.356-39.9,30.642c-0.596,0.297-5.376-2.02-9.56-4.477
		c-4.181-2.462-7.173-4.628-6.28-5.491C302.293,465.58,340.098,439.706,340.098,439.706z"/>
	<polygon fill-rule="evenodd" clip-rule="evenodd" fill="#CDAE3E" points="447.291,374.618 456.513,377.498 449.325,395.486 
		436.04,390.954 	"/>
	<path fill-rule="evenodd" clip-rule="evenodd" fill="#7E6324" d="M360.558,393.226c0,0,13.115,3.873,15.94,3.624
		c2.825-0.251,28.595-12.098,28.595-12.098l5.473,2.268c0,0-30.943,20.105-33.914,21.167c-2.964,1.063-26.561-14.361-27.346-14.962
		c-0.78-0.612-4.964-4.338-2.971-3.936C350.09,390.045,356.648,392.165,360.558,393.226z"/>
	<path fill-rule="evenodd" clip-rule="evenodd" fill="#AC8C23" d="M424.632,436.164c0,0,13.446,4.537,15.315,4.685
		c0.833,0.066,10.26-2.69,21.251-6.803c13.809-5.167,29.699-11.944,29.699-11.944l9.375-3.177c0,0-49.387,31.297-53.294,32.207
		c-3.903,0.906-24.692-14.366-24.692-14.366L424.632,436.164z"/>
	<path fill-rule="evenodd" clip-rule="evenodd" fill="#F6DE7F" d="M519.807,398.512c0,0,9.685,4.389,10.468,4.991
		c0.783,0.605-13.905,3.631-13.905,3.631L519.807,398.512z"/>
	<polygon fill-rule="evenodd" clip-rule="evenodd" fill="#DFC044" points="453.346,401.545 469.418,396.214 496.984,411.769 
		471.721,421.1 	"/>
	<polygon fill-rule="evenodd" clip-rule="evenodd" fill="#CDAE3E" points="433.128,395.766 445.721,398.815 409.7,422.435 
		387.651,413.991 	"/>
</g>
</svg>
