<?xml version="1.0" encoding="utf-8"?>
<!-- Generator: Adobe Illustrator 17.0.0, SVG Export Plug-In . SVG Version: 6.00 Build 0)  -->
<!DOCTYPE svg PUBLIC "-//W3C//DTD SVG 1.1//EN" "http://www.w3.org/Graphics/SVG/1.1/DTD/svg11.dtd">
<svg version="1.1" id="Layer_1" xmlns="http://www.w3.org/2000/svg" xmlns:xlink="http://www.w3.org/1999/xlink" x="0px" y="0px"
	 width="800px" height="600px" viewBox="0 0 800 600" enable-background="new 0 0 800 600" xml:space="preserve">
<g>
	<path fill-rule="evenodd" clip-rule="evenodd" fill="#000011" d="M476.231,98.286c-1.69-6.558-7.263-12.178-12.312-8.833
		c-3.111-7.256-13.36-7.738-17.796-2.484c-3.226-2.026-10.365-0.54-12.756,3.322c-2.046,3.307-0.622,8.276,0.338,12.127
		c-3.954,1.094-9.715-4.063-13.26,0.362c-2.691,3.36-4.705,24.657-3.823,26.209c3.681,6.486,20.955,14.172,27.935,16.701
		c2.495,8.503,9.057,23.452,13.063,35.113c4.008,11.66,8.525,30.719,12.195,44.221c3.669,13.501,13.926,48.349,19.561,65.271
		c5.637,16.922,12.531,38.34,18.199,56.7c-8.27,0.32-16.751,1.081-25.326,2.457c-2.989-3.162-14.237-10.575-20.083-10.04
		c-2.989-9.551-7.34-20.664-10.896-29.129c-3.862-9.198-9.858-18.493-14.739-26.699c-11.84-19.907-22.673-38.783-35.298-56.596
		c4.147-3.708,6.214-11.788,4.097-19.002c-1.266-4.317-2.717-7.054-7.145-6.757c-6.451,0.43-8.195,8.286-8.751,12.235
		c-5.354-4.855-7.375-13.479-12.783-22.883c-4.489-7.806-8.054-14.569-15.64-22.761c-8.391,2.511-18.424,17.73-21.785,23.458
		c-5.34,9.101-9.049,15.839-15.044,26.948c-2.946,5.46-16.576,29.104-19.923,35.013c-4.269,7.538-9.834,16.433-12.844,16.396
		c-3.011-0.036-2.897-4.401-2.747-7.059c-2.549,2.634-6.341,8.697-3.894,13.979c3.151,6.801,9.239,2.78,14.15-1.989
		c5.099-4.949,23.168-28.109,31.125-37.121c5.47,10.945,16.039,27.424,23.939,36.331c-3.295,9.037-9.203,23.824-8.514,33.172
		c0.487,6.623,5.022,10.502,10.855,9.899c10.971-1.134,15.142-14.543,18.284-22.573c5.298,5.523,41.614,47.087,47.693,52.475
		c5.924,5.251,12.81,9.113,23.09,4.032c0.372,0.692,1.055,1.915,1.943,2.81c-3.61,2.182-9.949,6.214-12.039,7.943
		c-0.135,0.526-0.151,1.462-0.152,2.292c-6.892,5.141-19.608,15.048-24.447,19.121c-2.529,6.745-8.098,33.347-12.452,43.849
		c0.553-15.206,2.733-28.505,4.171-43.465c-1.249-0.563-3.698-0.194-5.004-0.154c0.151-4.878,1.878-10.34,2.994-14.388
		c1.121-4.069,4.374-10.878,3.372-14.684c-1.653-6.279-20.645-15.319-23.453-13.773c-0.549-1.887-1.159-4.571-2.897-5.741
		c-2.653-1.789-14.513,0.061-15.115,6.765c-6.084-0.757-12.064,12.506-5.647,16.243c-5.011,2.652-7.36,12.036-0.661,15.024
		c-2.148,2.498-3.461,7.267-1.11,10.676c2.43,3.526,13.43,2.295,17.733,1.822c2.653,3.692,5.836,4.332,8.109,4.891
		c-1.798,0.793-4.129,2.332-5.091,3.227c1.825,23.995,4.093,47.659,7.566,64.322c2.57,12.324,5.574,22.623,7.589,24.943
		c7.106-2.263,13.471-23.886,14.88-28.473c3.159-10.291,5.656-20.433,8.31-29.671c0.487,20.04,5.161,63.16,10.4,82.792
		c37.337-10.259,84.765-25.21,119.119-40.104c-5.141-24.364-17.826-87.439-24.308-110.945c1.881-2.02,3.279-4.413,2.761-8.555
		c-0.652-5.186-13.487-64.968-18.91-87.301c-2.185-8.995-8.257-35.501-11.704-52.441c-4.891-24.021-7.216-57.427-7.149-74.718
		c-1.961,0.093-6.269,1.146-8.489,1.638c0.931-2.735,1.64-4.98,1.715-7.601c6.027-0.726,7.868-18.225,8.243-20.982
		C486.71,98.516,481.276,95.84,476.231,98.286z"/>
	<path fill-rule="evenodd" clip-rule="evenodd" fill="#E9BB91" d="M465.154,92.446c2.96-2.625,7.127,2.057,7.728,5.054
		c0.539,2.703-1.706,16.155-3.405,21.755c-0.003-1.024-3.296-3.135-4.855-2.926c-2.484,0.334-2.196,5.586-2.152,6.599
		c-0.891,0.135-1.212-1.65-1.181-2.218C461.503,116.94,463.298,94.091,465.154,92.446z"/>
	<path fill-rule="evenodd" clip-rule="evenodd" fill="#F1D7C1" d="M468.734,119.426c0.171,0.61-0.37,2.262-0.517,2.459
		c-1.248,1.688-3.13,1.8-4.76,1.487c-0.537-1.94,0.411-5.088,1.082-5.592C465.21,117.277,468.563,118.817,468.734,119.426z"/>
	<path fill-rule="evenodd" clip-rule="evenodd" fill="#E9BB91" d="M448.621,88.528c3.526-2.582,10.721-1.402,11.957,0.659
		c1.459,2.43-0.534,22.895-1.436,32.01c-2.018-1.169-5.866-1.388-7.138,0.728c-1.18,1.96-0.919,4.919,0.019,7.177
		c-0.209-0.111-0.383-0.252-0.492-0.434c-1.684-2.799-1.327-9.709-1.264-14.92c5.516-4.737,4.291-17.276-2.296-17.85
		C447.496,94.625,447.096,89.642,448.621,88.528z"/>
	<path fill-rule="evenodd" clip-rule="evenodd" fill="#F1D7C1" d="M458.992,122.72c-0.109,1.102-0.191,1.936-0.229,2.404
		c-0.215,2.634-2.967,4.093-5.047,4.247c-0.912-1.613-1.193-3.741-0.932-5.521C453.162,121.301,456.775,120.694,458.992,122.72z"/>
	<path fill-rule="evenodd" clip-rule="evenodd" fill="#E9BB91" d="M441.781,123.476c-1.186,2.261-1.276,5.552,0.137,7.866
		c-0.419-0.19-0.798-0.481-1.092-0.922c-1.853-2.772-1.458-8.244-1.371-11.062c3.188-0.631,5.782-2.042,8.166-3.959
		c0.214,2.241,0.262,5.086,0.229,7.614C445.742,122.097,442.911,121.322,441.781,123.476z"/>
	<path fill-rule="evenodd" clip-rule="evenodd" fill="#F1D7C1" d="M447.816,124.554c-0.053,1.893-0.147,3.46-0.24,4.211
		c-0.145,1.136-1.927,2.478-3.71,2.773c-1.865-1.713-1.913-4.779-1.309-7.067C443.069,122.533,446.422,123.224,447.816,124.554z"/>
	<path fill-rule="evenodd" clip-rule="evenodd" fill="#E9BB91" d="M435.66,92.19c1.157-2.551,6.895-3.622,9.108-2.306
		c-0.417,3.097,0.499,6.266,0.499,6.266s-2.599,1.115-3.891,3.965c-1.76-0.179-3.739,0.718-5.129,1.429
		C435.725,98.946,434.419,94.925,435.66,92.19z"/>
	<path fill-rule="evenodd" clip-rule="evenodd" fill="#F1D7C1" d="M436.795,103.825c0.375-0.964,3.236-2.148,4.616-1.626
		c1.217,1.469,1.908,3.719,1.823,5.744c-0.321,0.758-4.174,2.016-5.212,1.636C437.228,108.627,436.41,104.81,436.795,103.825z"/>
	<path fill-rule="evenodd" clip-rule="evenodd" fill="#007BBD" d="M452.788,367.226c1.034-5.069,2.414-9.688,3.285-12.704
		c1.879,2.87,4.011,5.81,6.506,8.919c-0.342,4.413-1.72,9.291-4.559,14.028C456.228,375.157,453.899,371.089,452.788,367.226z"/>
	<path fill-rule="evenodd" clip-rule="evenodd" fill="#C2E0F5" d="M457.142,379.586c-1.468,9.166-2.11,27.619-2.162,44.056
		c-1.646-9.214-4.745-31.655-5.7-45.039c0.611-3.599,1.261-4.955,2.373-8.728C453.284,373.433,455.425,377.376,457.142,379.586z"/>
	<path fill-rule="evenodd" clip-rule="evenodd" fill="#C2E0F5" d="M459.931,379.441c1.503-4.073,4.261-10.789,4.695-14.886
		c3.197,13.344,8.165,56.314,8.343,69.035C470.688,418.043,464.902,394.813,459.931,379.441z"/>
	<path fill-rule="evenodd" clip-rule="evenodd" fill="#C2E0F5" d="M456.043,349.98c1.932-1.878,3.908-4.769,5.332-6.668
		c1.768,5.862,3.516,14.231,3.931,19.506C462.32,360.441,457.709,353.583,456.043,349.98z"/>
	<path fill-rule="evenodd" clip-rule="evenodd" fill="#E8B300" d="M313.851,253.437c-3.043,3.955-12.449,15.789-16.322,19.838
		c-2.941,3.073-8.446,6.761-10.47,2.948c-1.288-2.427-0.811-6.663,0.298-8.387c-0.082,1.935,1.787,5.002,4.111,4.459
		c4.813-1.122,11.409-12.862,15.683-20.466c3.698-6.578,8.077-13.234,11.926-20.437c3.68-6.884,7.514-13.881,11.274-20.749
		c3.54-6.466,7.432-13.617,11.708-20.541c3.935-6.37,11.281-15.353,17.973-19.138c3.998,4.486,7.699,10.176,11.628,16.11
		c3.859,5.83,6.677,11.439,10.011,19.204c1.003,2.336,4.389,7.732,6.502,10.167c-0.506,1.45-2.988,3.784-4.593,5.175
		c-5.206-4.137-15.611-25.564-22.368-35.015c-6.449,15.244-19.981,34.177-28.27,43.691
		C325.996,238.271,320.124,245.291,313.851,253.437z"/>
	<path fill-rule="evenodd" clip-rule="evenodd" fill="#E9BB91" d="M440.934,349.117c-4.653,1.575-7.96,0.624-11.273-0.988
		c-3.312-1.607-7.284-5.178-10.597-8.534c-3.441-3.486-18.235-20.121-26.123-29.352c-7.709-9.019-11.972-14.205-16.87-19.403
		c4.829-10.276,5.866-23.919-2.078-22.867c-5.043,0.67-9.142,7.521-10.521,11.104c-1.086,2.818-1.138,6.267,1.862,8.363
		c-1.352-6.571,3.218-12.583,5.614-14.743c1.737-1.566,4.248-3.274,5.608-0.132c1.361,3.141-0.701,10.092-2.925,15.379
		c-2.089,4.968-3.985,9.831-6.324,14.314c-2.028,3.887-5.696,11.457-12.297,11.186c-2.866-0.117-6.258-4.101-6.432-8.016
		c-0.13-2.952,1.152-7.432,1.88-10.65c2.086-9.215,9.061-29.93,13.984-37.135c5.371,4.579,12.033,4.008,17.837-1.834
		c5.534-5.571,4.997-11.606,2.455-17.381c-2.056-4.67-5.829-6.966-9.527-6.962c-0.76-1.865-0.725-5.372-0.046-7.771
		c-3.854-0.486-10.328-2.27-15.046-4.484c-1.148,2.208-2.51,6.887-1.186,9.439c2.474,1.541,6.605,2.881,11.784,4.398
		c-5.866,2.664-8.601,7.884-9.089,13.122c-4.562-3.522-9.618-1.628-12.195,1.228c-5.506,6.104-0.359,18.012,9.538,14.908
		c-1.187,2.579-2.487,5.385-3.606,8.08c-8.52-9.697-16.233-21.075-22.556-35.351c11.494-13.111,27.237-39.838,29.119-43.332
		c3.808,5.584,15.3,29.435,20.901,33.55c2.67-1.259,5.453-4.718,7.341-6.632c0.556,0.737,0.965,1.513,1.697,1.747
		c0.615-5.529,0.467-15.611,5.926-16.647c6.254-1.186,6.049,11.399,5.421,14.48c-0.631,3.08-1.936,6.589-3.965,6.604
		c-2.027,0.017-3.396-6.728-2.676-11.57c-1.9,0.049-4.586,12.414,2.637,14.887c10.426,14.624,29.664,47.566,39.011,63.414
		c3.201,5.431,6.827,11.537,10.387,19.255c4.225,9.154,7.884,19.841,11.326,29.837c-2.543,4.328-6.325,8.571-10.262,11.101
		c-0.849-0.741-1.942-2.081-2.202-2.818c7.929-7.433,6.234-22.522,3.255-24.437c0.492,3.866,0.358,11.656-1.354,16.842
		C448.017,345.413,444.713,347.838,440.934,349.117z"/>
	<path fill-rule="evenodd" clip-rule="evenodd" fill="#E2A476" d="M386.389,289.565c0,0,6.625,5.134,15.654,16.406
		c8.408,10.496,13.836,19.451,13.836,19.451l3.242-3.79l-4.974-5.234l3.391-3.36c0,0-2.971-5.698-6.594-11.888
		c-3.625-6.189-8.839-12.783-8.839-12.783l-4.868,5.327c0,0-2.997-3.038-4.395-4.955c-1.397-1.915-3.309-4.614-3.309-4.614
		L386.389,289.565z"/>
	<path fill-rule="evenodd" clip-rule="evenodd" fill="#FFFFFF" d="M352.288,259.387c-4.293-2.807-3.489-10.069,0.797-12.161
		c4.663-2.277,9.58,1.448,9.529,6.491C362.564,258.627,356.579,262.194,352.288,259.387z"/>
	<path fill-rule="evenodd" clip-rule="evenodd" fill="#FFFFFF" d="M374.668,234.734c5.849-0.345,9.109,6.386,8.423,12.914
		c-0.711,6.771-9.398,12.175-15.151,8.386c-2.262-1.49-3.739-4.845-3.89-9.239C363.899,242.4,368.817,235.079,374.668,234.734z"/>
	<path fill-rule="evenodd" clip-rule="evenodd" fill="#F3DABD" d="M361.029,227.213c-0.428-1.754,0.006-4.13,0.54-4.955
		c1.73,0.965,8.985,3.046,10.814,2.926c-0.353,1.522-0.385,4.138-0.054,5.8C369.97,230.416,363.241,229.166,361.029,227.213z"/>
	<path fill-rule="evenodd" clip-rule="evenodd" fill="#C2E0F5" d="M454.528,350.822c-1.499,7.481-3.884,15.647-5.99,22.773
		c-0.503-4.854-1.643-16.704-1.643-16.704S450.666,354.267,454.528,350.822z"/>
	<path fill-rule="evenodd" clip-rule="evenodd" fill="#E2A476" d="M423.624,333.049c0,0,7.004,2.113,12.263-1.425
		c5.257-3.539,5.21-10.506,5.21-10.506s8.74,5.862,1.05,15.283C435.248,344.855,423.624,333.049,423.624,333.049z"/>
	<path fill-rule="evenodd" clip-rule="evenodd" fill="#E9BB91" d="M365.874,341.676c-0.717-2.858,7.931-5.587,9.924-4.692
		c1.992,0.899,2.369,6.271,2.369,6.271s-3.465,6.255-4.795,9.514C371.116,350.105,366.875,345.676,365.874,341.676z"/>
	<path fill-rule="evenodd" clip-rule="evenodd" fill="#E9BB91" d="M363.241,345.081c1.299,0.794,5.557,6.522,8.623,9.975
		c-0.761,1.992-1.896,4.818-2.813,6.98c-3.54-1.186-10.888-5.984-12.195-8.559C355.551,350.903,360.594,343.458,363.241,345.081z"/>
	<path fill-rule="evenodd" clip-rule="evenodd" fill="#F1D7C1" d="M373.175,358.097c1.257,0.462,3.292,1.45,4.193,2.405
		c-1.141,1.972-3.778,4.36-6.313,3.498C370.941,362.923,372.248,359.538,373.175,358.097z"/>
	<path fill-rule="evenodd" clip-rule="evenodd" fill="#F1D7C1" d="M371.399,370.951c1.118,0.296,3.369,0.433,4.512,0.344
		c-0.37,0.733-1.361,1.17-1.999,1.227c-0.534,0.049-1.324-0.036-1.85-0.133C371.335,372.255,371.378,371.506,371.399,370.951z"/>
	<path fill-rule="evenodd" clip-rule="evenodd" fill="#E9BB91" d="M358.045,360.482c2.212-0.3,7.914,3.198,10.552,4.348
		c-0.97,3.061,0.335,4.915,2.072,5.83c-0.025,1.073-0.329,1.518,0.553,2.312c0.491,0.445,1.788,0.425,2.376,0.369
		c1.564-0.162,2.618-0.814,3.321-2.239c0.296-0.073,0.579-0.15,0.831-0.239c0.514,4.935-8.168,2.879-11.759,1.749
		c-3.591-1.129-9.26-1.129-10.67-4.227C353.912,365.291,355.759,360.789,358.045,360.482z"/>
	<path fill-rule="evenodd" clip-rule="evenodd" fill="#E9BB91" d="M357.231,381.287c-1.5-2.385,0.046-6.077,1.291-6.656
		c2.981-1.389,14.091,0.781,15.888,2.36c-1.137-0.223-2.237-0.028-3.402,0.154c-1.606,0.251-2.213,1.478-2.408,2.976
		c-0.148,1.138,0.913,2.441,2.035,3.215C366.689,383.611,358.279,382.951,357.231,381.287z"/>
	<path fill-rule="evenodd" clip-rule="evenodd" fill="#F1D7C1" d="M372.14,383.23c-1.152-0.551-2.341-1.761-2.451-2.729
		c-0.211-1.858,1.428-2.648,2.933-2.542c0.763,0.053,2.48,0.263,2.653,0.287C375.748,380.311,374.85,382.679,372.14,383.23z"/>
	<path fill-rule="evenodd" clip-rule="evenodd" fill="#E9BB91" d="M374.938,384.364c2.754-1.425,4.273-4.591,2.28-8.38
		c2.021-0.21,4.492-3.397,3.195-6.854c4.017,2.34,9.073-1,9.477-4.372c0.254-2.138-0.666-5.518-4.034-7.603
		c0.247-2.243,0.114-4.15-0.548-5.636c-1.139-2.551-2.613-2.551-3.111-0.899c2.906,3.802,0.02,12.526-3.988,16.332
		c-2.403,2.283-6.291,1.725-7.024,0c-0.165-0.385-0.12-1.073,0.023-1.866c3.035,0.745,5.879-1.708,7.265-4.421
		c0.108-0.215,0.093-0.518-0.058-0.712c-1.098-1.397-2.662-2.113-4.271-2.729c2.543-5.619,5.581-12.866,6.835-13.919
		c1.479-1.239,13.25,5.328,17.031,8.219c4.184,3.198,2.705,7.405,1.323,11.441c-2.604,7.607-4.091,14.04-5.043,21.08
		c-4.944,1.959-8.147,4.158-12.189,3.749C379.512,387.534,376.452,385.768,374.938,384.364z"/>
	<path fill-rule="evenodd" clip-rule="evenodd" fill="#E9BB91" d="M386.439,364.607c0.763-1.684-0.02-3.433-1.513-4.093
		c0.074-0.267,0.139-0.51,0.188-0.705c2.103,1.174,3.338,3.133,1.93,5.708c-1.409,2.571-4.008,2.449-5.79,1.239
		c0.118-0.121,0.21-0.239,0.32-0.356C383.285,367.368,385.63,366.396,386.439,364.607z"/>
	<path fill-rule="evenodd" clip-rule="evenodd" fill="#F1D7C1" d="M382.243,365.587c0.976-1.279,2.168-3.271,2.546-4.243
		c0.784,0.409,1.316,1.927,0.622,3.126C384.648,365.793,383.18,365.898,382.243,365.587z"/>
	<path fill-rule="evenodd" clip-rule="evenodd" fill="#526471" d="M426.832,503.426c-4.364-18.74-9.75-68.258-11.779-92.241
		c-2.335,6.603-9.185,33.133-13.33,45.647c-2.369,7.162-4.498,15.396-9.872,21.165c-8.614-16.668-13.321-75.666-13.61-83.751
		c4.257-3.097,17.225-8.392,21.041-7.81c-0.71,13.109-4.401,35.562-3.269,48.975c-1.311,4.214-4.122,12.55-4.421,14.166
		c-0.3,1.611,1.546,2.494,2.272,2.401c1.185-3.773,17.49-63.326,19.175-67.509c4.161-3.704,17.835-14.117,22.964-17.987
		c1.647,10.117,4.389,26.768,5.956,35.048c3.608,19.036,5.454,33.785,9.272,51.934c2.8,13.311,4.51,27.497,9.668,40.254
		C450.061,496.839,437.859,500.499,426.832,503.426z"/>
	<path fill-rule="evenodd" clip-rule="evenodd" fill="#42525D" d="M441.854,388.934c-0.712-4.04-3.973-22.137-4.083-26.262
		c2.328-1.777,5.366-3.806,6.878-4.498c0.443,6.47,2.196,22.777,3.52,33.566c1.325,10.789,5.298,41.566,6.355,49.562
		c1.058,8,5.06,37.254,5.931,43.347C451.634,453.564,447.263,419.602,441.854,388.934z"/>
	<path fill-rule="evenodd" clip-rule="evenodd" fill="#007BBD" d="M464.925,492.576c-3.992-16.315-8.049-59.116-7.961-70.881
		c0.031-4.182,0.479-26.425,2.162-36.926c3.328,8.085,10.108,38.368,12.025,52.047c0.963,6.866,5.831,37.861,6.538,51.663
		C474.047,489.766,468.241,491.568,464.925,492.576z"/>
	<path fill-rule="evenodd" clip-rule="evenodd" fill="#42525D" d="M463.906,343.466c3.321-0.878,15.618,6.255,16.823,8.652
		c1.404,15.04,2.132,43.254,1.867,59.274c-0.347,20.805-0.453,58.655-3.171,69.347C476.463,441.379,471.032,372.068,463.906,343.466
		z"/>
	<path fill-rule="evenodd" clip-rule="evenodd" fill="#526471" d="M480.707,137.121c0.103,16.213,1.56,34.693,3.845,52.405
		c1.858,14.387,7.513,39.105,9.409,46.494c3.927,15.296,10.632,44.551,14.042,58.008c3.41,13.456,9.614,43.063,10.576,48.702
		c1.428,8.36-0.363,9.959-2.683,11.907c5.834,25.319,15.293,70.849,23.36,110.293c-17.557,8.174-36.541,15.178-57.376,21.838
		c3.576-24.129,4.643-90.464,2.331-134.373c9.296-1.206,18.581-1.725,28.026-2.316c-1.081-3.623-4.57-13.615-7.714-23.255
		c-7.866-24.101-15.871-47.196-22.456-71.115c-3.086-11.212-15.218-55.386-18.269-66.381c-4.178-15.064-13.302-35.846-15.015-43.488
		C458.309,143.077,470.753,139.749,480.707,137.121z"/>
	<path fill-rule="evenodd" clip-rule="evenodd" fill="#E9BB91" d="M472.453,135.666c-6.094,1.956-19.579,5.599-25.122,7.076
		c-11.796-2.552-27.28-13.363-28.052-14.988c-0.769-1.624,1.587-22.409,3.911-24.026c2.322-1.616,7.015,2.918,11.94,1.817
		c0.212,2.086,0.543,5.336,2.526,6.148c2.36-0.421,5.81-1.344,7.258-2.944c0.853-2.396-0.449-5.529-1.67-7.294
		c1.183-4.009,5.573-4.856,7.229-0.152c1.657,4.704,0.535,8.299-2.795,10.762c-2.73,2.019-6.625,4.131-10.262,4.583
		c-3.633,0.452-6.997-2.594-8.649-5.612c-2.419,3.355,3.104,7.994,8.061,9.068c0.128,3.722-0.461,8.68,1.824,12.347
		c2.52,4.042,7.445,2.323,11.174-0.686c3.713,2.882,11.09-0.812,11.475-6.208c1.757,1.847,6.819,0.065,9.052-2.467
		c0.699,2.625,2.546,3.643,4.607,4.113C474.683,130.091,473.881,133.475,472.453,135.666z"/>
	<path fill-rule="evenodd" clip-rule="evenodd" fill="#F1D7C1" d="M477.911,123.241c-1.809,1.094-3.313,0.584-4.31-0.411
		c0.281-1.475,0.927-4.061,1.45-4.469c0.525-0.408,2.761,0.991,3.091,1.678C478.473,120.727,478.247,122.359,477.911,123.241z"/>
	<path fill-rule="evenodd" clip-rule="evenodd" fill="#E9BB91" d="M479.231,123.003c-0.028-0.337-0.028-2.397-0.337-3.362
		c-0.463-1.443-4.184-2.632-4.562-2.186c-0.379,0.446-1.123,3.247-1.441,4.524c-0.509-0.178-1.328-1.096-0.655-4.902
		c0.962-5.453,2.894-14.863,4.157-16.124c1.701-1.697,5.952-1.797,6.838,1.283C483.977,104.836,482.257,120.197,479.231,123.003z"/>
	<path fill-rule="evenodd" clip-rule="evenodd" fill="#000011" d="M471.237,146.374c6.068-2.036,6.752,6.674,2.814,7.989
		C468.602,156.182,466.062,148.111,471.237,146.374z"/>
	<path fill-rule="evenodd" clip-rule="evenodd" fill="#42525D" d="M474.363,149.862c0.565,2.768-2.909,3.021-3.494,1.132
		C470.145,148.655,473.81,147.164,474.363,149.862z"/>
	<path fill-rule="evenodd" clip-rule="evenodd" fill="#000011" d="M473.7,161.778c5.298-1.873,8.895,6.638,2.73,8.78
		C469.701,172.896,468.401,163.652,473.7,161.778z"/>
	<path fill-rule="evenodd" clip-rule="evenodd" fill="#42525D" d="M472.908,167.837c1.072,1.617,3.739,1.069,4.455-0.671
		c0.914-2.219-1.289-3.936-2.828-3.494C472.995,164.115,471.838,166.217,472.908,167.837z"/>
	<path fill-rule="evenodd" clip-rule="evenodd" fill="#000011" d="M347.588,233.977c1.264,0.671,2.902,2.094,3.943,4.025
		c0.138,1.105-3.854,8.841-6.002,11.133c-1.465-0.828-3.738-2.95-4.65-4.497C341.214,242.197,345.971,235.603,347.588,233.977z"/>
	<path fill-rule="evenodd" clip-rule="evenodd" fill="#F3DABD" d="M347.669,236.174c-3.18,3.598-4.868,8.005-4.868,8.005
		s1.354,1.681,2.481,2.174c1.747-2.075,3.381-5.192,4.412-8.032C349.189,237.609,348.317,236.39,347.669,236.174z"/>
	<path fill-rule="evenodd" clip-rule="evenodd" fill="#000011" d="M437.413,334.604c-1.487,0.648-3.031,0.049-3.876-0.543
		c-1.282,0.846-2.854,1.45-5.508,1.494c-2.653,0.045-10.446-2.417-12.744-6.174c-2.004-3.275-0.613-7.032,1.525-8.474
		c-2.498-1.927-4.705-5.85-4.705-5.85s1.674-1.352,2.713-2.037c-3.733-7.712-8.648-16.129-13.636-22.15
		c-1.25,1.347-2.699,3.001-4.689,4.211c-2.56-2.402-5.347-5.803-7.126-9.051c-1.303,2.361-2.043,4.658-4.729,7.13
		c-3.078-1.792-4.916-6.02-4.543-7.485c1.425,1.339,2.619,3.381,4.004,3.816c4.284-5.936,7.817-17.008,10.127-24.294
		c2.493-7.851,3.603-23.501-1.177-32.745c3.364-0.548,16.537,20.249,21.489,29.085c5.648,10.081,9.156,16.856,13.933,26.397
		c2.481,4.956,4.675,9.421,7.132,15.924c2.757,7.286,3.209,11.45-0.292,16.304c-1.821,2.526-4.781,4.097-8.564,4.538
		c-4.133,0.482-6.892-1.891-8.275-1.134c-1.147,0.628-1.826,2.441-1.117,4c1.342,2.955,6.698,4.494,8.84,4.761
		c4.784,0.599,7.926-1.47,9.991-4.279c1.76-2.401,3.116-5.04,3.818-7.376c1.806-0.64,4.771,3.198,2.381,7.668
		C440.855,331.207,439.966,333.482,437.413,334.604z"/>
	<path fill-rule="evenodd" clip-rule="evenodd" fill="#FFFFFF" d="M390.696,283.846c1.577,2.495,3.581,5.265,5.937,7.12
		c5.871-4.966,13.62-20.487,14.771-28.952c-2.361-4.895-9.178-15.77-12.396-18.955C400.948,258.397,395.754,271.521,390.696,283.846
		z"/>
	<path fill-rule="evenodd" clip-rule="evenodd" fill="#FFFFFF" d="M415.602,315.604c3.075,5.636,10.757,8.534,16.945,3.368
		c3.26-2.721,3.854-8.344,0.964-13.299C428.36,307.997,419.173,312.758,415.602,315.604z"/>
	<path fill-rule="evenodd" clip-rule="evenodd" fill="#000011" d="M374.97,242.631c1.483-0.878,3.124-0.148,3.712,0.979
		c0.587,1.128,0.522,2.928-1.016,3.789c-1.539,0.859-3.048,0.182-3.714-1.169C373.286,244.876,373.658,243.412,374.97,242.631z"/>
	<path fill-rule="evenodd" clip-rule="evenodd" fill="#000011" d="M357.673,255.203c-1.811-0.359-2.328-3.182-0.771-4.174
		c1.555-0.993,3.11-0.338,3.562,1.096C360.985,253.782,359.518,255.57,357.673,255.203z"/>
	<path fill-rule="evenodd" clip-rule="evenodd" fill="#000011" d="M382.416,398.845c-0.37-2.186,2.692-4.142,4.262-2.858
		c1.57,1.283,2.025,4.036,0.113,5.129C384.878,402.209,382.786,401.027,382.416,398.845z"/>
	<path fill-rule="evenodd" clip-rule="evenodd" fill="#000011" d="M382.54,408.942c-0.078-1.81,2.004-4.057,4.099-2.64
		c2.095,1.417,1.938,4.822-0.48,5.437C383.741,412.351,382.618,410.748,382.54,408.942z"/>
	<path fill-rule="evenodd" clip-rule="evenodd" fill="#F3D26F" d="M324.282,227.659c5.809-9.515,11.801-18.981,17.024-28.834
		c3.875-7.308,8.02-14.354,12.439-21.202c-4.127,4.28-10.329,12.045-17.924,25.665c-8.737,15.662-22.37,39.832-27.504,48.929
		C314.046,244.304,319.192,235.999,324.282,227.659z"/>
	<path fill-rule="evenodd" clip-rule="evenodd" fill="#F3D26F" d="M341.312,201.781c-5.414,9.753-11.309,19.246-17.135,28.755
		c-4.052,6.613-8.173,13.183-12.609,19.538c7.931-8.793,23.076-26.178,33.601-41.943c14.846-22.24,14.186-35.321,14.186-35.321
		s-0.707,0.381-2.019,1.455C351.366,183.138,346.492,192.45,341.312,201.781z"/>
	<path fill-rule="evenodd" clip-rule="evenodd" fill="#D08908" d="M371.439,191.434c2.388,3.592,4.128,7.536,6.158,11.334
		c2.661,4.976,5.643,9.631,9.301,13.7c0.161,0.053,0.269,0.085,0.269,0.085s-3.073-3.253-3.966-5.106
		c-0.895-1.853-3.499-7.197-6.255-12.97c-2.756-5.774-9.165-15.079-9.165-15.079s0.52,1.866,1.315,4.606
		C369.885,189.205,370.721,190.355,371.439,191.434z"/>
	<path fill-rule="evenodd" clip-rule="evenodd" fill="#D08908" d="M376.906,203.247c-2.197-4.15-4.179-8.361-6.788-12.274
		c-0.088-0.134-0.178-0.267-0.269-0.402c1.823,6.163,4.431,14.563,6.045,17.91c1.883,3.903,6.668,6.298,9.36,7.383
		C382.023,212.064,379.317,207.803,376.906,203.247z"/>
	<path fill-rule="evenodd" clip-rule="evenodd" fill="#E2A476" d="M335.704,232.51c0,0,7.593-9.899,13.27-18.402
		c5.676-8.503,12.375-20.256,12.375-20.256s-3.2,18.951-11.424,29.795C341.702,234.493,335.704,232.51,335.704,232.51z"/>
	<path fill-rule="evenodd" clip-rule="evenodd" fill="#E7DFDB" d="M391.157,283.715c0.846-1.608,3.946-9.41,6.406-17.882
		c3.779-13.026,1.949-21.656,1.949-21.656s1.554,1.883,2.951,3.799s1.981,3.335,1.981,3.335s-0.704,8.385-4.036,17.452
		c-4.295,11.688-7.955,16.915-7.955,16.915S391.563,284.581,391.157,283.715z"/>
	<path fill-rule="evenodd" clip-rule="evenodd" fill="#E2A476" d="M377.693,382.177c0,0,0.584-0.98,0.642-3.012
		c0.058-2.032-0.557-2.899-0.557-2.899s2.058-1.186,2.901-3.186c0.843-2,0.269-3.19,0.269-3.19s4.978,2.271,7.766-2.117
		c2.788-4.389,1.566-5.66,1.566-5.66s2.124,8.231-2.437,14.17C383.281,382.222,377.693,382.177,377.693,382.177z"/>
	<path fill-rule="evenodd" clip-rule="evenodd" fill="#E2A476" d="M441.853,135.496c0,0,2.032,0.058,3.684-0.523
		c1.651-0.582,4.479-2.661,4.479-2.661s2.329,2.503,7.522-0.174c3.8-1.958,3.922-5.559,3.922-5.559s2.366,0.559,4.34,0.019
		c1.976-0.541,4.432-2.801,4.432-2.801s0.631,1.792,1.471,2.423c0.841,0.633,2.419,1.16,2.419,1.16s-3.906,5.212-13.21,7.748
		C445.38,139.361,441.853,135.496,441.853,135.496z"/>
	<path fill-rule="evenodd" clip-rule="evenodd" fill="#F2D7B2" d="M352.853,290.753c1.274-4.123,3.17-10.211,4.963-8.728
		c1.791,1.484,1.763,11.011,0.831,15.569c-0.932,4.559-4.081,12.432-6.666,8.693C349.799,303.13,350.58,298.109,352.853,290.753z"/>
	<path fill-rule="evenodd" clip-rule="evenodd" fill="#F2D7B2" d="M422.768,325.341c2.052,0.668,5.643,1.607,7.246,3.158
		c1.603,1.551-2.647,3.895-7.225,1.701C418.207,328.005,418.708,324.021,422.768,325.341z"/>
	<path fill-rule="evenodd" clip-rule="evenodd" fill="#F2D7B2" d="M435.348,341.846c2.503,0.316,8.298,1.943,6.945,4.109
		c-1.351,2.166-7.835,2.972-11.086,0.947C427.955,344.871,430.922,341.288,435.348,341.846z"/>
	<path fill-rule="evenodd" clip-rule="evenodd" fill="#F2D7B2" d="M357.713,352.377c-0.267-0.992,2.163-6.113,4.372-6.461
		c2.209-0.344,1.573,4.712,1.12,6.858C362.752,354.919,358.813,356.482,357.713,352.377z"/>
	<path fill-rule="evenodd" clip-rule="evenodd" fill="#F2D7B2" d="M367.106,341.296c0.085-0.903,2.912-3.008,5.608-3.441
		c2.696-0.433,3.641,0.53,3.603,1.409c-0.036,0.875-6.538,5.247-7.541,4.814C367.452,343.506,366.997,342.458,367.106,341.296z"/>
	<path fill-rule="evenodd" clip-rule="evenodd" fill="#F2D7B2" d="M356.411,368.291c-0.85-1.004-0.752-4.83,0.794-6.324
		c1.546-1.494,2.538-0.636,3.459,0.506c0.921,1.146,1.312,5.931-0.14,6.959C359.201,370.372,357.593,369.688,356.411,368.291z"/>
	<path fill-rule="evenodd" clip-rule="evenodd" fill="#F2D7B2" d="M384.107,344.462c1.177,0.401,9.118,4.559,11.434,5.988
		c2.315,1.429-3.129,2.397-5.332,1.534C388.004,351.118,379.495,342.891,384.107,344.462z"/>
	<path fill-rule="evenodd" clip-rule="evenodd" fill="#F2D7B2" d="M423.71,104.928c0.504-0.523,2.556,6.171,2.264,9.142
		c-0.291,2.97-5.007,10.747-5.441,8.7C420.1,120.725,421.888,106.812,423.71,104.928z"/>
	<path fill-rule="evenodd" clip-rule="evenodd" fill="#F2D7B2" d="M449.13,89.189c0.865-0.957,7.346-2.204,9.464,0.012
		c2.118,2.216,1.416,6.191,0.8,6.886C458.781,96.78,446.724,91.852,449.13,89.189z"/>
	<path fill-rule="evenodd" clip-rule="evenodd" fill="#F2D7B2" d="M465.195,96.815c-0.459-1.213,0.392-3.909,0.928-4.15
		c0.909-0.407,4.664,1.032,5.891,4.519c0.599,1.7,0.157,4.245-0.377,4.624C471.247,102.085,466.427,100.078,465.195,96.815z"/>
	<path fill-rule="evenodd" clip-rule="evenodd" fill="#F2D7B2" d="M476.182,102.501c0.142-0.838,1.646-2.108,3.845-1.831
		c2.2,0.276,3.064,2.457,2.903,4.712C482.769,107.635,475.871,104.331,476.182,102.501z"/>
	<path fill-rule="evenodd" clip-rule="evenodd" fill="#E2A476" d="M447.887,348.943c0,0,3.599-3.308,4.806-7.931
		c1.208-4.623,0.696-10.911,0.696-10.911s5.402,9.214,2.24,14.413c-3.162,5.198-5.845,6.599-5.845,6.599
		S448.479,349.984,447.887,348.943z"/>
	<path fill-rule="evenodd" clip-rule="evenodd" fill="#6EA1D5" d="M454.041,366.745c0.008-0.539,3.322-3.903,3.772-3.146
		c2.229,3.753,0.13,11.64-0.15,11.17C457.385,374.303,454.012,368.91,454.041,366.745z"/>
	<path fill-rule="evenodd" clip-rule="evenodd" fill="#6EA1D5" d="M458.488,419.63c-0.069-4.061,0.325-16.789,1.016-18.052
		c0.688-1.267,5.373,21.704,5.871,33.096c0.496,11.401-1.527,29.809-2.618,27.356C461.667,459.577,458.728,433.84,458.488,419.63z"
		/>
	<path fill-rule="evenodd" clip-rule="evenodd" fill="#0064A9" d="M471.451,441.613c0.312,1.927,3.591,24.372,4.282,31.165
		c0.69,6.789,1.6,14.526,1.575,15.101c-0.024,0.575-7.488-14.498-7.865-18.785C469.066,464.803,470.581,436.245,471.451,441.613z"/>
	<path fill-rule="evenodd" clip-rule="evenodd" fill="#3D505D" d="M485.12,357.385c0,0,1.024,22.558,1.081,35.922
		c0.057,13.368-0.334,38.347-0.413,41.667c-0.08,3.32,5.179-32.003,5.362-41.141C491.335,384.692,486.768,360.777,485.12,357.385z"
		/>
	<path fill-rule="evenodd" clip-rule="evenodd" fill="#3D505D" d="M439.149,388.554c0.38,1.7,7.016,40.865,7.827,46.703
		c0.81,5.842,5.762,28.603,5.964,30.461c0.2,1.854-10.176-23.416-11.216-30.878C440.683,427.379,438.16,384.137,439.149,388.554z"/>
	<path fill-rule="evenodd" clip-rule="evenodd" fill="#42525D" d="M383.777,398.12c0.019-0.915,1.81-1.984,2.611-0.676
		c0.799,1.308-0.304,2.146-1.081,2.19C384.53,399.683,383.758,399.035,383.777,398.12z"/>
	<path fill-rule="evenodd" clip-rule="evenodd" fill="#42525D" d="M383.903,408.169c0.325-1.174,1.922-1.668,2.665-0.486
		c0.65,1.032-0.028,2.429-1.04,2.522C384.252,410.319,383.596,409.278,383.903,408.169z"/>
	<path fill-rule="evenodd" clip-rule="evenodd" fill="#3D505D" d="M391.274,449.119c0.144-1.016,1.655-6.235,2.512-8.672
		c0.857-2.433,1.889-4.972,1.889-4.972s-5.27,5.433-5.842,8.247C388.993,447.872,391.274,449.119,391.274,449.119z"/>
	<path fill-rule="evenodd" clip-rule="evenodd" fill="#3D505D" d="M383.184,411.42c0,0,0.693,1.134,2.747,0.79
		c2.054-0.348,2.677-2.615,2.677-2.615s1.102,3.838-2.31,4.368C382.887,414.493,383.184,411.42,383.184,411.42z"/>
	<path fill-rule="evenodd" clip-rule="evenodd" fill="#3D505D" d="M382.917,400.801c0.002,0.125,0.687,1.474,3.027,1.109
		c2.341-0.364,2.622-2.178,2.622-2.178s0.616,3.372-2.802,4.04C382.553,404.4,382.917,400.801,382.917,400.801z"/>
	<path fill-rule="evenodd" clip-rule="evenodd" fill="#3D505D" d="M451.727,146.4c0.829,0,9.01-2.205,13.607-3.222
		c4.598-1.014,11.549-3.583,12.37-3.994c0.822-0.41-8.175,6.988-14.883,8.868C456.113,149.932,449.313,146.406,451.727,146.4z"/>
	<path fill-rule="evenodd" clip-rule="evenodd" fill="#3D505D" d="M467.877,152.797c0,0,0.378,3.13,4.019,3.176
		c4.109,0.053,5.528-3.518,5.528-3.518s0.078,6.74-5.979,6.698C465.387,159.112,467.877,152.797,467.877,152.797z"/>
	<path fill-rule="evenodd" clip-rule="evenodd" fill="#3D505D" d="M469.625,168.737c0,0,0.375,2.735,3.406,3.151
		c4.442,0.609,7.025-2.353,7.025-2.353s-0.927,6.973-6.497,5.914C467.989,174.389,469.625,168.737,469.625,168.737z"/>
	<path fill-rule="evenodd" clip-rule="evenodd" fill="#3D505D" d="M515.188,355.939c0,0,8.191,35.453,11.029,48.926
		c2.837,13.478,8.312,39.861,8.951,43.934c0.637,4.069-20.599-62.1-21.635-70.007C512.497,370.886,515.188,355.939,515.188,355.939z
		"/>
	<path fill-rule="evenodd" clip-rule="evenodd" fill="#72838F" d="M380.146,393.841c0.729-0.494,4.754-2.785,9.459-4.445
		c4.706-1.656,8.371-2,8.691-1.725c0.32,0.279-7.1,4.506-8.272,4.976C388.854,393.117,379.292,394.42,380.146,393.841z"/>
	<path fill-rule="evenodd" clip-rule="evenodd" fill="#72838F" d="M396.556,445.277c0.516-2.445,5.539-18.91,6.701-23.631
		c1.162-4.725,0.445,10.554-0.078,13.712C402.654,438.516,395.776,448.969,396.556,445.277z"/>
	<path fill-rule="evenodd" clip-rule="evenodd" fill="#72838F" d="M414.963,384.352c1.141-1.178,15.495-12.595,17.294-13.826
		c1.797-1.227-4.988,9.49-7.922,11.716C421.399,384.465,413.655,385.704,414.963,384.352z"/>
	<path fill-rule="evenodd" clip-rule="evenodd" fill="#72838F" d="M488.573,352.624c2.45,0.049,20.516-1.721,22.337-1.619
		c1.822,0.101-7.139,5.49-9.669,5.49C498.711,356.49,486.176,352.579,488.573,352.624z"/>
	<path fill-rule="evenodd" clip-rule="evenodd" fill="#72838F" d="M484.968,260.036c-1.514-5.267-8.881-31.976-8.553-33.578
		c0.327-1.603,13.703,25.815,16.327,34.112c2.625,8.298,7.263,43.85,5.329,39.625C496.136,295.967,488.929,273.813,484.968,260.036z
		"/>
</g>
</svg>
