<?xml version="1.0" encoding="utf-8"?>
<!-- Generator: Adobe Illustrator 17.0.0, SVG Export Plug-In . SVG Version: 6.00 Build 0)  -->
<!DOCTYPE svg PUBLIC "-//W3C//DTD SVG 1.1//EN" "http://www.w3.org/Graphics/SVG/1.1/DTD/svg11.dtd">
<svg version="1.1" id="Layer_1" xmlns="http://www.w3.org/2000/svg" xmlns:xlink="http://www.w3.org/1999/xlink" x="0px" y="0px"
	 width="800px" height="600px" viewBox="0 0 800 600" enable-background="new 0 0 800 600" xml:space="preserve">
<path fill="#120E0F" d="M539.156,272.343c-3.904-4.792-9.558-6.2-15.311-5.831c2.341-3.068,4.25-6.481,5.671-9.005
	c6.618-11.756,10.413-25.219,11.634-38.613c1.481-16.247-1.745-32.703-9.489-47.071c-9.607-17.821-25.739-32.072-43.199-41.947
	c-5.108-2.889-10.407-5.263-15.841-7.145c2.449-7.61,2.888-16.06,2.371-23.816c-1.256-18.822-9.441-36.627-21.101-51.245
	c-10.396-13.035-24.809-23.38-40.728-28.422c-19.395-6.144-39.971-4.169-59.242,1.465c-26.178,7.653-48.53,24.41-56.725,51.154
	c-4.921,16.06-4.236,33.847-0.283,50.049c0.447,1.835,0.929,3.679,1.55,5.465c0.032,0.092,0.079,0.181,0.113,0.272
	c-15.532,3.935-30.175,10.892-41.822,21.172c-17.042,15.042-25.934,36.975-27.812,59.306c-1.203,14.306,0.425,29.013,4.979,42.639
	c2.666,7.977,7.068,16.714,13.567,22.704c-1.837,0.547-3.665,1.116-5.48,1.723c-3.574,1.196-7.425,2.436-10.666,4.421
	c-0.061,0.037-0.069,0.13-0.039,0.259c-0.008,0.146,0.037,0.349,0.168,0.639c11.421,25.26,22.843,50.519,34.264,75.779
	c21.295,47.095,42.59,94.19,63.884,141.285c11.713,25.905,23.427,51.81,35.14,77.715c3.367,7.447,5.615,14.778,11.854,20.475
	c3.487,3.184,7.907,6.76,12.745,4.35c4.472-2.227,7.147-7.948,8.91-12.371c3.271-8.208,6.542-16.416,9.813-24.624
	c16.986-42.626,33.974-85.253,50.96-127.88c5.398-13.544,10.795-27.088,16.191-40.632c1.728,3.884,5.938,8.615,10.14,9.541
	c3.743,0.826,6.398-2.388,8.214-5.2c2.586-4.002,4.247-8.597,6.014-12.996c0.46-1.147,1.61-5.234,3.104-6.895
	c0.255,0.487,0.544,0.956,0.854,1.402c1.14,1.642,2.794,3.217,4.618,4.068c3.472,1.62,6.506-1.271,8.354-3.958
	c3.42-4.975,4.464-11.55,4.879-17.429c0.684-9.688-2.367-18.801-2.627-28.367c-0.386-14.259,8.176-25.296,16.269-36.098
	C540.845,290.949,546.333,281.151,539.156,272.343z M470.932,379.357c-2.838-2.778-5.678-5.557-8.517-8.335
	c6.424-6.216,12.847-12.433,19.27-18.649C478.102,361.367,474.517,370.362,470.932,379.357z M442.434,450.869
	c-1.253-1.233-2.506-2.467-3.758-3.7c2.897-2.893,5.795-5.787,8.692-8.681C445.724,442.615,444.079,446.742,442.434,450.869z
	 M426.592,490.625c-0.566,1.42-1.131,2.84-1.698,4.26c-5.602-5.723-11.204-11.446-16.806-17.169
	c9.243-9.23,18.485-18.46,27.728-27.69c1.665,1.639,3.331,3.279,4.995,4.918C436.071,466.837,431.331,478.731,426.592,490.625z
	 M333.523,495.306c0.3,0.002,0.559-0.081,0.757-0.273c6.232-6.031,12.464-12.063,18.696-18.094
	c7.893,8.227,15.784,16.453,23.676,24.68c0.127,0.132,0.253,0.264,0.38,0.395c-1.795,1.792-3.589,3.584-5.384,5.376
	c-7.5,7.49-15,14.98-22.501,22.47C343.938,518.342,338.73,506.824,333.523,495.306z M316.705,458.112
	c3.184-3.008,6.369-6.017,9.553-9.025c7.119,7.421,14.238,14.841,21.356,22.262c-5.779,5.593-11.558,11.186-17.338,16.779
	C325.754,478.123,321.229,468.117,316.705,458.112z M285.077,388.165c5.387-5.352,10.774-10.704,16.161-16.056
	c6.018,6.148,12.036,12.296,18.054,18.444c0.414,0.423,0.828,0.846,1.242,1.269c-7.745,7.596-15.489,15.191-23.232,22.786
	c-0.143-0.134-0.293-0.269-0.448-0.399C292.928,405.527,289.003,396.846,285.077,388.165z M267.044,348.284
	c1.869-1.793,3.739-3.585,5.608-5.378c8.054,8.228,16.107,16.455,24.161,24.683c-4.839,4.808-9.678,9.616-14.518,14.424
	C277.212,370.769,272.128,359.527,267.044,348.284z M257.712,327.644c3.302,3.374,6.605,6.748,9.908,10.122
	c-1.24,1.189-2.479,2.378-3.719,3.566C261.837,336.769,259.775,332.206,257.712,327.644z M290.973,272.968
	c5.095-0.746,10.207-1.385,15.32-1.949c5.089,5.004,10.18,10.008,15.269,15.013c-7.863,7.541-15.727,15.082-23.59,22.624
	c-7.114-7.004-14.228-14.008-21.343-21.011c-0.226-0.223-0.452-0.445-0.679-0.668C280.958,282.307,285.966,277.637,290.973,272.968z
	 M272.097,283.184c-1.898-1.869-3.797-3.739-5.696-5.608c4.964-1.167,9.969-2.184,15.003-3.07
	C278.303,277.398,275.2,280.291,272.097,283.184z M417.588,266.689c2.387,7.641,4.775,15.281,7.162,22.921
	c-7.579,7.433-15.157,14.866-22.736,22.298c-3.827-3.745-7.654-7.49-11.481-11.236c-2.921-2.859-5.843-5.718-8.764-8.577
	c8.564-8.509,17.128-17.018,25.692-25.527C410.837,266.598,414.213,266.638,417.588,266.689z M478.705,266.556
	c1.407,0.153,2.809,0.339,4.21,0.531c7.086,0.972,14.786,2.065,22.074,4.12c-6.37,6.017-12.741,12.035-19.111,18.053
	c-4.818-4.872-9.637-9.745-14.455-14.618c0.173-0.191,0.345-0.383,0.518-0.574c2.056-2.281,4.112-4.561,6.167-6.842
	C478.68,266.592,478.731,266.558,478.705,266.556z M469.083,277.239c4.752,4.806,9.504,9.612,14.257,14.418
	c-8.345,7.883-16.69,15.766-25.035,23.649c-4.058-4.201-8.117-8.402-12.175-12.603C453.781,294.215,461.432,285.727,469.083,277.239
	z M443.718,305.379c3.991,4.132,7.983,8.264,11.975,12.395c-5.322,5.027-10.644,10.055-15.966,15.082
	c-2.766,2.613-5.532,5.226-8.298,7.839c-8.181-8.006-16.362-16.012-24.542-24.018c6.715-6.587,13.431-13.174,20.147-19.76
	c0.911,2.917,1.823,5.835,2.735,8.752c0.4,1.28,6.272,8.227,7.638,6.711C439.51,310.048,441.614,307.714,443.718,305.379z
	 M451.814,427.331c-5.509,5.501-11.017,11.003-16.526,16.504c-7.95-7.826-15.899-15.652-23.849-23.478
	c7.852-7.598,15.702-15.197,23.554-22.796c6.546,6.436,13.092,12.872,19.638,19.308c0.362,0.356,0.708,0.617,1.03,0.809
	C454.379,420.895,453.097,424.113,451.814,427.331z M380.886,449.927c9.216-8.919,18.432-17.839,27.648-26.758
	c6.888,6.781,13.776,13.562,20.665,20.343c1.076,1.06,2.153,2.119,3.229,3.179c-9.221,9.21-18.443,18.419-27.665,27.628
	C396.804,466.188,388.845,458.058,380.886,449.927z M403.007,476.073c-7.952,7.942-15.905,15.883-23.857,23.824
	c-8.007-8.347-16.015-16.695-24.022-25.042c7.991-7.734,15.982-15.468,23.974-23.203
	C387.07,459.793,395.038,467.933,403.007,476.073z M350.95,267.814c7.772,7.606,15.544,15.213,23.317,22.82
	c-7.317,7.27-14.634,14.54-21.951,21.809c-7.884-7.752-15.768-15.504-23.652-23.256c7.168-6.875,14.337-13.749,21.505-20.624
	C350.43,268.313,350.69,268.063,350.95,267.814z M378.116,387.551c-7.235-7.122-14.47-14.245-21.706-21.368
	c7.788-7.639,15.577-15.277,23.365-22.915c0.241,0.237,0.482,0.474,0.723,0.71c7.751,7.621,15.503,15.242,23.254,22.863
	c-7.94,7.5-15.879,14.999-23.818,22.499C379.327,388.744,378.721,388.147,378.116,387.551z M351.552,361.401
	c-6.62-6.517-13.24-13.034-19.86-19.55c7.733-7.683,15.466-15.366,23.199-23.049c6.674,6.562,13.348,13.125,20.023,19.687
	C367.126,346.126,359.339,353.763,351.552,361.401z M381.725,341.356c0.268-0.263,0.536-0.527,0.805-0.79
	c7.119-6.982,14.238-13.964,21.356-20.946c8.161,7.988,16.324,15.976,24.486,23.963c-7.545,7.128-15.09,14.255-22.635,21.382
	C397.733,357.095,389.729,349.226,381.725,341.356z M376.863,336.576c-6.679-6.566-13.357-13.133-20.036-19.699
	c3.413-3.391,6.826-6.782,10.24-10.173c3.907-3.882,7.814-7.764,11.722-11.646c6.741,6.598,13.483,13.195,20.225,19.793
	C391.63,322.093,384.247,329.335,376.863,336.576z M350.38,314.367c-7.732,7.682-15.463,15.364-23.196,23.046
	c-8.028-7.903-16.056-15.806-24.084-23.709c7.864-7.543,15.728-15.084,23.593-22.627
	C334.589,298.841,342.484,306.603,350.38,314.367z M324.317,340.262c-1.128,1.121-2.257,2.242-3.385,3.363
	c-7.452,7.405-14.905,14.81-22.358,22.214c-8.044-8.217-16.087-16.434-24.13-24.651c8.579-8.228,17.159-16.457,25.738-24.685
	C308.227,324.422,316.272,332.342,324.317,340.262z M328.825,344.699c6.614,6.511,13.227,13.021,19.841,19.532
	c-1.744,1.71-3.488,3.421-5.232,5.131c-7.042,6.907-14.084,13.814-21.127,20.721c-6.436-6.575-12.872-13.15-19.307-19.725
	C311.607,361.806,320.216,353.253,328.825,344.699z M353.524,369.014c7.823,7.701,15.646,15.402,23.469,23.104
	c-9.126,8.621-18.252,17.242-27.378,25.863c-7.513-7.676-15.027-15.351-22.541-23.026
	C335.891,386.308,344.707,377.661,353.524,369.014z M381.681,396.733c7.111,7,14.222,14,21.333,21.001
	c-9.181,8.886-18.363,17.772-27.544,26.658c-4.827-4.931-9.654-9.861-14.48-14.792c-2.258-2.307-4.516-4.614-6.775-6.921
	C363.37,414.03,372.525,405.382,381.681,396.733z M415.763,405.395c-3.282,3.176-6.563,6.351-9.844,9.527
	c-7.1-6.989-14.199-13.977-21.298-20.966c7.94-7.501,15.88-15.001,23.821-22.502c7.01,6.892,14.019,13.784,21.029,20.676
	C424.901,396.551,420.332,400.973,415.763,405.395z M410.428,369.577c7.549-7.131,15.097-14.262,22.646-21.393
	c6.929,6.781,13.856,13.561,20.785,20.341c-7.475,7.234-14.951,14.469-22.426,21.704
	C424.431,383.346,417.43,376.462,410.428,369.577z M436.131,345.298c8.043-7.598,16.086-15.197,24.13-22.795
	c6.628,6.861,13.256,13.722,19.885,20.583c-7.755,7.506-15.511,15.011-23.266,22.517
	C449.963,358.835,443.047,352.066,436.131,345.298z M377.248,287.672c-6.936-6.789-13.874-13.577-20.81-20.366
	c14.022-0.576,28.062-0.803,42.097-0.784C391.44,273.572,384.344,280.622,377.248,287.672z M323.532,284.141
	c-4.576-4.499-9.151-8.998-13.727-13.497c4.846-0.503,9.691-0.948,14.521-1.355c5.293-0.446,10.591-0.823,15.893-1.15
	C334.656,273.473,329.094,278.807,323.532,284.141z M295.054,311.454c-8.547,8.198-17.095,16.395-25.643,24.593
	c-1.776-1.814-3.552-3.629-5.328-5.443c-3.118-3.185-6.236-6.37-9.353-9.555c-1.514-3.35-3.029-6.7-4.544-10.05
	c7.602-7.088,15.203-14.176,22.805-21.264C280.345,296.975,287.699,304.214,295.054,311.454z M325.302,396.693
	c7.503,7.664,15.005,15.329,22.508,22.993c-4.9,4.628-9.799,9.256-14.698,13.885c-3.076,2.906-6.152,5.811-9.228,8.716
	c-7.282-7.591-14.565-15.183-21.847-22.775C309.792,411.905,317.547,404.299,325.302,396.693z M352.41,424.385
	c7.091,7.245,14.183,14.489,21.275,21.734c-7.973,7.716-15.945,15.432-23.918,23.148c-6.445-6.719-12.891-13.437-19.336-20.156
	c-0.665-0.693-1.33-1.387-1.996-2.08C336.426,439.482,344.418,431.933,352.41,424.385z M380.322,505.445
	c8.527,8.889,17.054,17.778,25.582,26.667c-9.255,8.973-18.51,17.947-27.765,26.919c-8.106-8.456-16.211-16.912-24.317-25.368
	c-0.329-0.343-0.648-0.605-0.953-0.803C362.02,523.721,371.171,514.583,380.322,505.445z M412.677,525.544
	c-1.541,1.494-3.082,2.988-4.623,4.482c-8.537-8.9-17.074-17.799-25.612-26.699c7.963-7.953,15.927-15.905,23.89-23.858
	c3.289,3.36,6.578,6.72,9.867,10.08c2.564,2.619,5.127,5.238,7.691,7.857C420.152,506.786,416.414,516.165,412.677,525.544z
	 M456.694,415.086c-0.067-0.072-0.125-0.142-0.199-0.215c-6.513-6.403-13.025-12.807-19.538-19.21
	c7.48-7.238,14.959-14.478,22.438-21.716c3.284,3.213,6.568,6.427,9.851,9.641C465.063,394.086,460.878,404.586,456.694,415.086z
	 M488.677,334.829c-1.983,1.919-3.966,3.839-5.949,5.758c-6.619-6.851-13.237-13.701-19.855-20.552
	c8.363-7.9,16.727-15.801,25.09-23.702c3.814,3.857,7.628,7.714,11.442,11.571C495.83,316.879,492.253,325.854,488.677,334.829z
	 M500.817,304.366c-3.438-3.477-6.877-6.954-10.314-10.431c0.063-0.06,0.126-0.12,0.19-0.179c7.096-6.704,14.193-13.406,21.29-20.11
	c0.316,0.162,0.627,0.271,0.924,0.31c0.009,0.003,0.016,0.007,0.025,0.01C508.893,284.099,504.855,294.232,500.817,304.366z
	 M516.985,260.145c-2.156,2.715-5.343,6.52-9.018,7.279c-9.442-4.039-20.158-5.824-30.034-7.307
	c-1.109-0.167-5.909-1.593-6.826-0.576c-1.848,2.049-3.695,4.099-5.542,6.148c-10.538,11.691-21.075,23.381-31.613,35.071
	c-3.585-11.474-7.171-22.948-10.756-34.422c-0.701-2.242-4.751-6.757-7.298-6.805c-0.156-0.003-0.311-0.005-0.467-0.008
	c4.779-8.71,8.143-18.381,10.411-27.917c4.149-17.438,2.286-35.115-4.648-51.54c-3.131-7.418-7.224-14.254-12.089-20.415
	c3.767-0.875,7.796-0.949,11.564-0.187c4.828,0.977,5.684,4.052,7.017,8.349c1.461,4.705,2.97,9.397,4.802,13.973
	c1.8,4.498,5.271,11.94,10.519,13.434c2.632,0.75,4.03-1.841,5.172-3.77c1.955-3.3,4.871-6.088,8.367-7.676
	c1.467-0.667,3.07-0.877,4.663-0.727c2.105,0.199,2.349,2.031,2.877,3.806c1.188,3.989,1.575,8.288,2.606,12.338
	c1.635,6.427,3.722,13.525,8.385,18.461c3.902,4.13,7.58,5.853,11.049,0.298c2.455-3.93,3.738-8.452,6.296-12.373
	c2.164-3.316,4.985-6.208,8.334-8.321c2.39-1.508,5.196-2.368,8.025-2.217c0.962,0.051,1.9,0.31,2.777,0.695
	c0.135,0.173,0.291,0.41,0.442,0.726c0.275,0.575,0.447,1.194,0.621,1.804c1.125,3.949,0.006,8.384-0.25,12.382
	c-0.27,4.233-0.233,8.502,0.358,12.706c0.782,5.566,3.32,9.962,7.653,13.497c2.428,1.981,5.029,2.852,7.778,2.985
	c-0.275,0.722-0.547,1.446-0.838,2.16C524.694,248.44,521.322,254.686,516.985,260.145z M511.426,195.577
	C511.077,195.327,511.172,195.297,511.426,195.577L511.426,195.577z M532.592,186.878c3.733,15.894,2.3,32.801-2.767,48.286
	c-2.763,0.685-5.538,1.033-8.349,0.402c-2.772-0.622-3.076-2.474-3.986-6.081c-2.15-8.526,0.451-16.973-0.219-25.491
	c-0.401-5.11-4.317-9.18-8.489-11.741c-4.628-2.84-10.36-0.549-14.289,2.368c-3.125,2.321-5.516,5.537-7.532,8.823
	c-2.466,4.021-3.552,8.825-6.532,12.52c-0.755,0.936-1.823,1.714-3.047,1.823c-0.333,0.03-0.617-0.071-0.772-0.125
	c-0.226-0.361-0.44-0.732-0.651-1.094c-2.097-3.598-3.32-7.779-4.457-11.757c-1.981-6.938-1.824-15.253-6.772-20.875
	c-4.1-4.657-9.015-6.381-14.565-3.05c-3.213,1.928-5.339,5.061-7.239,8.187c-0.638,1.05-1.521,1.917-2.707,2.268
	c-0.271,0.08-0.411,0.17-0.481,0.246c-0.025-0.094-0.085-0.23-0.205-0.418c-0.587-0.922-1.061-1.913-1.534-2.897
	c-1.912-3.972-3.28-8.222-4.641-12.406c-1.29-3.964-2.103-8.286-4.461-11.785c-5.266-7.813-14.479-10.414-23.306-8.604
	c-5.667-6.348-12.2-11.867-19.365-16.435c16.942-10.042,37.825-15.164,57.231-15.565c6.433-0.133,12.89,0.419,19.236,1.589
	c3.095,2.775,6.962,4.685,7.705,3.188c0.208-0.419,0.402-0.847,0.594-1.275C500.137,135.021,525.448,156.461,532.592,186.878z
	 M336.674,44.602c14.7-10.066,33.075-15.277,50.62-17.204c17.203-1.889,35.579,1.185,49.582,11.593
	c4.894,3.638,8.708,7.805,12.422,13.103c3.438,4.904,6.245,10.388,8.459,16.122c-2.021-2.39-4.138-4.69-6.366-6.853
	c-3.573-3.469-7.913-7.023-12.917-8.019c-4.779-0.95-8.029,3.55-11.976,5.391c-8.536,3.981-18.346,1.752-26.326-2.42
	c-3.265-1.707-11.481-9.063-15.386-4.738c-2.828,3.132-2.35,9.134-4.24,12.87c-3.075,6.079-11.448,6.731-17.253,4.878
	c-5.11-1.631-9.382-4.995-15.014-4.288c-8.933,1.121-14.288,10.359-21.916,14.203c-5.831,2.939-10.816,1.307-13.62-4.365
	c-0.173-0.351-0.324-0.718-0.484-1.077C317.388,62.233,325.586,52.195,336.674,44.602z M305.988,101.698
	c0.315-9.121,2.143-17.838,5.407-25.868c1.497,2.178,3.314,4.133,5.455,5.752c13.078,9.887,23.691-12.62,35.849-13.441
	c5.392-0.364,10.304,3.677,15.395,4.926c5.677,1.392,12.795-0.149,15.814-5.481c2.231-3.939,1.543-9.24,4.24-12.87
	c1.477-1.987,4.189-1.014,6.026-0.224c4.963,2.134,9.156,5.583,14.284,7.513c7.126,2.682,15.084,2.816,22.029-0.423
	c2.338-1.091,4.044-2.859,6.177-4.217c2.476-1.576,5.615-0.882,8.066,0.335c5.964,2.961,10.521,9.099,14.413,14.375
	c0.524,1.574,1.021,3.157,1.457,4.752c3.53,12.903,3.619,27.585-1.411,40.144c-0.082,0.205,0.082-0.114-0.265,0.584
	c-0.221,0.446-0.289,0.94-0.242,1.464c-15.251-2.909-31.133-2.33-46.488,1.294c-11.915,2.812-24.271,7.219-34.716,13.782
	c-9.117-4.541-19-7.657-29.258-9.116c-12.895-1.835-26.762-1.661-40.285,0.684C306.236,117.779,305.714,109.638,305.988,101.698z
	 M308.019,136.392c1.128,0.26,2.229,0.244,2.49-0.57c2.697-0.589,5.413-1.095,8.14-1.513c32.403-4.965,70.519,0.112,88.917,30.341
	c2.866,4.709,5.134,9.655,6.865,14.748c-12.277,10.452-23.273-3.192-31.7-11.683c-3.391-3.417-7.577-7.849-12.562-8.684
	c-7.021-1.175-8.109,5.41-8.183,10.781c-0.081,5.858,0.646,17.916-6.509,20.421c-2.627,0.92-6.937-6.529-8.158-8.106
	c-7.05-9.109-17.516-20.254-29.593-12.277c-11.315,7.473,1.851,23.536-4.343,32.747c-4.623,6.875-13.386,0.551-16.862-3.996
	c-3.47-4.54-2.741-12.99-9.607-14.605c-5.346-1.258-10.619,3.616-14.458,6.641c-3.826,3.015-7.495,6.233-11.21,9.381
	c-3.674,3.114-7.282,6.726-11.83,8.518c-5.287,2.083-7.823-2.496-9.052-7.235c2.115-9.23,5.569-18.13,10.498-26.278
	C263.536,154.073,284.874,141.943,308.019,136.392z M249.849,271.013c-0.002-0.002-0.004-0.004-0.006-0.007
	c0.04,0.036,0.076,0.068,0.12,0.107C249.917,271.072,249.885,271.044,249.849,271.013z M249.297,270.529
	c-0.235-0.203-0.392-0.353,0.02,0.011C249.312,270.536,249.304,270.533,249.297,270.529z M249.803,270.787
	c-0.08-0.038-0.158-0.081-0.238-0.121c-0.159-0.199-0.312-0.401-0.465-0.605c0.046,0.035-0.804-1.178-0.962-1.424
	c-0.421-0.662-0.815-1.342-1.2-2.026c-0.494-0.876-1.508-3.02-2.145-4.502c-3.432-7.983-5.29-16.589-6.275-25.195
	c-1.075-9.389-0.958-18.977,0.465-28.345c1.662,2.225,3.732,4.087,6.299,5.295c6.681,3.145,12.911-1.874,17.794-5.93
	c7.219-5.996,14.566-14.251,23.341-17.973c0.452-0.192,0.946-0.34,1.437-0.423c0.418,1.201,0.552,2.659,0.947,3.787
	c1.41,4.025,4.107,7.48,7.039,10.503c4.635,4.778,12.603,9.372,19.352,6.609c6.348-2.6,5.928-10.528,5.168-16.069
	c-0.853-6.22-3.297-14.193,2.057-19.05c10.88-9.871,20.467,8.54,26.358,14.959c2.78,3.029,7.021,6.951,11.507,5.381
	c6.564-2.298,7.488-12.67,7.634-18.349c0.087-3.399-0.995-15.622,5.924-12.139c4.744,2.389,8.584,7.886,12.296,11.557
	c8.282,8.188,19.44,16.219,30.383,9.958c5.502,23.566,0.075,49.412-13.293,69.865c-0.427,0.653-0.023,1.686,0.806,2.81
	c-35.897-0.403-71.916,0.534-107.567,4.811c-14.878,1.785-29.924,4.071-44.454,8.011
	C251.295,271.631,250.554,271.147,249.803,270.787z M256.713,280.067c1.686-0.476,3.379-0.924,5.077-1.36
	c2.45,2.412,4.899,4.823,7.349,7.235c-7.101,6.62-14.201,13.241-21.302,19.862c-0.116-0.256-0.231-0.512-0.347-0.768
	c-2.786-6.161-5.571-12.323-8.358-18.484C244.396,283.391,250.889,281.712,256.713,280.067z M300.469,422.204
	c7.079,7.38,14.158,14.76,21.238,22.14c-2.622,2.477-5.245,4.954-7.867,7.432c-3.632-8.032-7.263-16.063-10.894-24.095
	C302.119,425.855,301.294,424.029,300.469,422.204z M360.588,555.164c-2.773-6.132-5.546-12.265-8.319-18.398
	c7.841,8.18,15.682,16.36,23.523,24.54c-2.88,2.792-5.759,5.584-8.639,8.377C364.965,564.843,362.776,560.004,360.588,555.164z
	 M386.454,588.637c-1.879,2.645-5.02,5.86-8.529,4.979c-0.274-0.42-0.528-0.857-0.774-1.275c-1.182-2.004-2.118-4.15-3.022-6.289
	c-0.785-1.859-1.308-3.833-2.137-5.667c-1.113-2.462-2.226-4.924-3.339-7.386c0.624,0.423,1.225,0.631,1.524,0.342
	c2.963-2.873,5.927-5.746,8.889-8.619c4.238,4.421,8.476,8.842,12.714,13.263c-0.23,0.576-0.458,1.151-0.688,1.727
	C389.843,582.844,388.417,585.872,386.454,588.637z M393.109,574.647c-3.899-4.067-7.797-8.135-11.696-12.202
	c8.996-8.721,17.99-17.442,26.985-26.164C403.301,549.07,398.205,561.859,393.109,574.647z M501.734,376.699
	C501.507,376.312,501.482,376.158,501.734,376.699L501.734,376.699z M506.383,381.635
	C506.459,381.689,506.453,381.702,506.383,381.635L506.383,381.635z M519.211,313.565c-3.233,6.615-4.528,13.875-3.972,21.199
	c0.377,4.974,1.734,9.842,2.249,14.812c0.504,4.855,0.443,9.766-0.179,14.605c-0.722,5.61-2.555,12.371-7.158,16.109
	c-1.091,0.886-2.522,1.466-3.909,1.176c-0.083-0.11-0.181-0.261-0.285-0.483c-0.208-0.442-0.355-0.912-0.519-1.371
	c-0.268-0.751-0.693-1.457-1.196-2.075c-0.843-1.036-2.845-3.354-4.388-2.409c-1.602,0.982-2.414,3.926-3.085,5.53
	c-2.459,5.879-4.425,12.397-8.576,17.361c-1.531,1.83-3.744,3.353-6.213,2.608c-3.964-1.198-4.737-6.954-4.659-11.254
	c11.139-27.953,22.278-55.906,33.418-83.86c3.64-9.135,7.281-18.27,10.921-27.404c0.611-1.534-2.264-3.994-4.306-5.494
	c0.514-0.292,1.017-0.624,1.51-0.988c3.601-1.129,7.422-1.741,11.159-1.708c3.96,0.035,7.129,0.987,8.386,4.988
	c0.814,2.59,0.724,5.372,0.054,7.977c-1.365,5.306-5.115,9.908-8.356,14.187C526.114,302.344,522.128,307.598,519.211,313.565z"/>
</svg>
