<?xml version="1.0" encoding="utf-8"?>
<!-- Generator: Adobe Illustrator 17.0.0, SVG Export Plug-In . SVG Version: 6.00 Build 0)  -->
<!DOCTYPE svg PUBLIC "-//W3C//DTD SVG 1.1//EN" "http://www.w3.org/Graphics/SVG/1.1/DTD/svg11.dtd">
<svg version="1.1" id="Layer_1" xmlns="http://www.w3.org/2000/svg" xmlns:xlink="http://www.w3.org/1999/xlink" x="0px" y="0px"
	 width="800px" height="600px" viewBox="0 0 800 600" enable-background="new 0 0 800 600" xml:space="preserve">
<g>
	<path fill="#120E0F" d="M481.856,175.598c-4.789-4.017-11.358-3.584-17.237-3.136c-0.046,0.003-0.093,0.005-0.139,0.009
		c1.32-0.918,2.862-1.645,4.017-2.255c3.175-1.676,6.634-2.764,9.745-4.562c1.885-1.089,2.991-2.479,2.17-4.623
		c-1.186-3.097-4.988-5.579-7.608-7.311c-0.052-0.035-0.099-0.064-0.145-0.094c-0.273-0.512-0.48-1.056-0.657-1.607
		c-0.409-1.277-0.542-2.636-0.602-3.969c-0.15-3.331,0.507-6.86,1.651-9.991c0.483-1.321-3.808-5.055-5.062-4.996
		c-4.079,0.192-8.159,0.383-12.238,0.575c-0.218-0.02-0.309,0.079-0.274,0.294c-0.574,3.597-0.534,7.366,0.096,10.946
		c0.435,2.469,1.496,4.492,2.642,6.677c0.954,1.819,0.179,3.552-1.151,4.89c-4.047,4.072-10.705,5.358-15.613,8.053
		c-4.05,2.224-8.282,6.031-8.501,10.957c-0.212,4.786,5.622,9.295,9.386,11.147c2.13,1.048,4.404,1.76,6.727,2.277
		c-3.935,10.186-7.871,20.371-11.806,30.557c-0.48,1.242-0.96,2.484-1.44,3.726c-0.243-0.147-0.485-0.275-0.724-0.381
		c-6.637-2.936-13.553-5.022-20.613-6.434c3.667-19.183,7.334-38.366,11.001-57.549c1.303-6.819,2.607-13.637,3.91-20.456
		c0.179-0.937-3.018-3.893-3.939-3.674c-5.92,1.41-11.84,2.819-17.761,4.229c-0.175-0.007-0.253,0.076-0.233,0.25
		c-2.098,24.205-4.196,48.411-6.293,72.616c-0.077,0.893-0.155,1.785-0.232,2.678c-5.181-0.441-10.393-0.584-15.589-0.482
		c-6.943,0.136-14.021,0.615-20.929,1.725c-0.029-1.016-0.09-2.042-0.197-3.072c0.562,0.314,1.129,0.505,1.655,0.463
		c6.158-0.487,10.313-3.885,10.213-10.277c-0.054-3.463-1.149-7.182-2.673-10.289c-0.788-1.606-2.072-2.994-3.504-4.099
		c0.318-1.527,0.532-3.079,0.672-4.627c0.389-4.311-0.376-8.396,2.138-12.164c1.456-2.183,3.516-4.127,5.645-5.654
		c1.18-0.846-4.603-5.853-5.871-5.851c-8.277,0.008-16.957,1.306-23.931,6.028c-0.393-3.514-2.003-6.835-4.591-9.553
		c-1.512-1.589-2.89-2.433-3.723-4.524c-0.707-1.773-0.737-3.778-0.484-5.643c0.533-3.942,3.4-7.128,6.957-8.668
		c0.423-0.183-3.035-5.026-4.643-4.33c-7.409,3.207-9.043,12.047-4.843,18.498c1.224,1.88,2.872,3.468,4.592,4.887
		c1.399,1.155,1.799,3.597,1.992,5.285c0.241,2.11,0.025,4.495-0.678,6.513c-0.171,0.491,0.156,1.11,0.702,1.725
		c-0.001,0.001-0.002,0.002-0.003,0.004c-1.155-1.295-2.529-2.399-3.896-3.492c-1.911-1.528-3.085-3.107-3.803-5.596
		c-0.61-2.114-0.932-4.343-1.119-6.534c-0.187-2.198-3.582-5.64-5.831-4.005c-1.307,0.95-2.464,1.969-3.489,3.045
		c-0.106-0.165-0.213-0.328-0.314-0.499c-1.702-2.899-1.091-5.769,1.239-8.101c1.521-1.523,2.987-2.487,4.009-4.455
		c0.711-1.369,0.753-3.126,0.538-4.617c-0.314-2.176-1.296-4.288-2.607-6.044c-0.752-1.007-2.476-2.344-3.842-1.827
		c-1.432,0.543-0.434,2.455,0.142,3.225c-0.514-0.689,0.302,0.484,0.52,1.023c0.551,1.362,0.585,2.694,0.149,4.091
		c-0.642,2.058-2.775,3.15-4.207,4.583c-1.283,1.285-2.105,3.064-2.325,4.85c-0.478,3.875,1.584,7.826,4.21,10.87
		c-5.079,7.585-4.997,17.283-2.863,26.778c-1.202-1.102-2.628-2.486-3.46-3.343c-3.476-3.579-6.732-7.457-8.966-11.946
		c-0.954-1.917-1.546-4.054-1.528-6.198c0.024-2.781,1.609-4.388,3.237-6.431c3.758-4.719,2.606-11.591-0.518-16.285
		c-0.829-1.246-2.41-2.676-3.887-3.079c-1.571-0.428-0.416,1.508-0.091,1.997c-0.491-0.737,0.027,0.106,0.098,0.258
		c0.244,0.523,0.436,1.069,0.622,1.615c0.563,1.657,0.707,3.378,0.593,5.116c-0.254,3.899-3.145,5.749-4.712,8.941
		c-2.134,4.345,0.093,9.514,2.244,13.377c1.608,2.887,3.545,5.636,5.693,8.243c-1.913-1.245-3.949-2.314-6.121-3.161
		c-4.423-1.725-10.158-2.626-14.752-0.872c-0.211,0.021-0.319,0.137-0.325,0.349c0.95,6.019,3.843,11.446,7.595,16.285
		c-0.072,0.063-0.122,0.15-0.139,0.271c-0.762,5.26,0.377,11.01,2.604,15.77c5.344,11.421,17.378,16.19,29.289,16.529
		c1.813,2.142,3.765,4.168,5.729,6.096c-0.578-0.163-1.119-0.154-1.548,0.099c-7.435,4.392-13.898,11.692-16.337,20.139
		c-0.586,2.028,2.775,5.243,4.995,5.646c1.7,2.265,3.268,4.984,4.506,7.655c4.621,9.975,4.835,21.258,1.502,31.651
		c-2.337,7.286-5.287,14.234-7.098,21.705c-1.644,6.788-2.632,13.718-2.87,20.698c-0.438,12.84,2.269,25.722,8.237,37.121
		c8.977,17.146,24.699,30.29,42.954,36.369c-10.469,3.791-19.837,11.962-24.408,21.98c-4.221,9.25-4.102,20.342,0.06,29.569
		c4.015,8.901,11.583,15.755,19.958,20.502c8.19,4.643,17.715,7.303,27.122,7.565c6.715,0.187,13.526-1.332,19.821-3.567
		c17.372-6.169,32.147-21.571,30.484-41.141c-0.845-9.941-7.027-18.768-14.118-25.393c-3.5-3.27-7.563-6.347-11.955-8.687
		c9.344-2.673,18.127-7.095,25.527-13.332c16.859-14.21,22.797-36.545,21.525-57.948c-0.807-13.596-5.842-26.17-8.564-39.403
		c-2.413-11.731-3.638-23.965-2.027-35.888c0.616-4.558,1.773-9.041,3.628-13.255c0.187-0.425-0.117-1.059-0.66-1.734
		c0.661-2.848,0.473-5.813-0.921-8.769c-1.162-2.466-2.946-4.805-5.068-6.615c1.353-2.809,2.707-5.617,4.06-8.425
		c5.186-10.761,10.372-21.523,15.558-32.284c0.034-0.071,0.069-0.142,0.103-0.214c0.146-0.304-0.001-0.713-0.318-1.16
		c0.907-0.071,1.813-0.153,2.715-0.26c3.934-0.467,8.19-1.316,11.555-3.516c1.586-1.036,3.264-2.9,3.565-4.827
		C485.904,179.074,483.468,176.95,481.856,175.598z M480.21,176.386C479.78,175.642,480.193,175.374,480.21,176.386L480.21,176.386z
		 M464.021,158.08c0.207-1.951-1.343-3.753-2.107-5.404c-1.174-2.539-1.375-5.593-1.438-8.347c-0.042-1.843,0.081-3.698,0.319-5.525
		c0.008-0.06,0.007-0.101,0.006-0.142c0.04,0.009,0.09,0.015,0.158,0.011c0.702-0.033,1.403-0.066,2.105-0.099
		c1.107-0.052,2.213-0.104,3.32-0.156c-0.333,2.054-0.45,4.143-0.304,6.17c0.209,2.913,1.358,5.744,3.266,7.959
		c1.373,1.594,2.89,3.023,4.6,4.252c0.356,0.247,0.718,0.483,1.086,0.71c0.162,0.122,0.289,0.213,0.401,0.289
		c0,0.432-0.234,0.881-0.444,1.214c-1.624,2.581-6.213,3.69-8.804,4.832c-3.115,1.372-6.724,3.001-8.998,5.635
		c-0.735,0.852-0.728,1.744-0.354,2.593c-3.047,0.04-6.095-0.017-9.133-0.268c-0.963-0.08-1.96-0.171-2.949-0.322
		c-0.055-0.172-0.163-0.381-0.313-0.615c2.997-2.06,6.574-3.442,9.781-4.862C457.648,164.489,463.553,162.483,464.021,158.08z
		 M444.066,173.532C444.066,173.532,444.066,173.531,444.066,173.532c0.011,0.018,0.025,0.035,0.036,0.053
		C444.086,173.559,444.077,173.549,444.066,173.532z M412.59,230.609c0.349,3.466-5.497,4.91-7.448,6.666
		c-1.814,1.633,3.22,5.033,4.521,5.511c2.638,0.969,5.742,0.901,8.509,1.101c2.761,0.199,5.784,0.237,8.501,0.985
		c0.019,0.072,0.04,0.144,0.054,0.218c0.166,0.854-0.651,1.318-1.329,1.565c-2.489,0.909-5.57,0.599-8.175,0.936
		c-2.999,0.387-6.115,1.217-8.209,3.532c-2.557,2.827-1.408,7.094-3.735,10.027c-1.825,2.3-5.262,0.642-7.385-0.228
		c-3.212-1.316-6.497-2.717-10.04-2.532c-4.481,0.234-6.82,3.696-10.171,6.095c-2.042,1.462-4.02,1.577-5.736,0.259
		c-2.381-1.828-4.704-3.52-7.609-4.415c-4.13-1.273-8.071,0.042-12.151,0.608c0.515-2.127,1.179-4.293,0.769-6.497
		c-0.604-3.251-4.007-6.045-6.68-7.615c-1.674-0.984-3.54-1.535-5.429-1.937c-0.023-0.005-0.047-0.008-0.07-0.013
		c1.523-0.858,3.329-1.577,3.901-1.849c1.924-0.916,3.891-1.756,5.877-2.538c0.765,0.329,1.49,0.389,2.008-0.007
		c2.397-1.832,4.46-3.922,6.164-6.222c1.409,0.28,3.003,0.018,4.313-0.24c2.29-0.452,4.472-1.324,6.587-2.289
		c2.731-1.245,5.182-3.154,8.228-3.536c3.797-0.476,7.123,1.99,10.265,3.722c3.501,1.931,7.08,2.775,10.982,1.582
		c3.036-0.928,5.537-2.625,8.761-3.102c1.23-0.182,2.478-0.141,3.707,0.012C411.913,230.447,412.254,230.519,412.59,230.609z
		 M407.25,239.013c-0.133-0.024-0.266-0.043-0.399-0.07C405.191,238.611,406.085,238.291,407.25,239.013z M348.836,250.346
		c0.022,0.01,0.045,0.02,0.067,0.03C349.527,250.679,349.439,250.921,348.836,250.346z M339.951,214.227
		c0.172-0.882,0.494-1.727,1.028-2.451c1.642-2.229,4.453-2.091,6.994-1.386c-0.696,2.869-1.05,5.817-1.29,8.433
		c-0.301,3.284-0.414,6.626-0.349,9.96c-0.849-2.566-1.939-5.046-3.372-7.366c-1.119-1.813-2.463-3.54-3.952-5.154
		c0.499-0.092,0.837-0.472,0.843-1.264C339.856,214.44,339.786,215.074,339.951,214.227z M357.8,206.312
		c0.343,1.838,0.549,3.728,0.636,5.624c0.313,6.825-1.987,13.079-6.092,18.149c0.022-1.976,0.107-3.951,0.248-5.912
		C352.978,218.786,353.791,210.838,357.8,206.312z M407.529,226.212c-1.035-0.182-2.09-0.186-3.14-0.083
		c0.123-1.424,0.247-2.847,0.37-4.271c1.003,1.169,2.684,2.241,3.446,2.066c-0.149,0.779-0.298,1.558-0.447,2.336
		C407.681,226.246,407.607,226.226,407.529,226.212z M424.035,139.812c0.087-0.02,0.174-0.041,0.26-0.062
		c-0.018,0.095-0.036,0.19-0.055,0.286C424.174,139.96,424.107,139.886,424.035,139.812z M410.342,157.44
		c0.423-4.881,0.846-9.762,1.269-14.644c0.001-0.011,0.002-0.016,0.003-0.025c0.018-0.004,0.035-0.009,0.053-0.013
		c0.921,1.16,2.345,2.288,3.24,2.086c1.546-0.348,3.093-0.695,4.64-1.043c-4.511,22.099-9.021,44.198-13.532,66.297
		c-0.137,0.67-0.274,1.341-0.411,2.012C407.183,193.886,408.763,175.663,410.342,157.44z M365.889,223.8
		c7.634-1.575,15.539-2.149,23.312-2.363c3.68-0.101,7.397-0.085,11.119,0.079c-0.148,1.705-0.296,3.411-0.443,5.117
		c-0.013,0.149,0.028,0.31,0.102,0.478c-2.835,0.924-5.151,2.615-8.216,2.82c-3.929,0.263-7.278-2.185-10.554-3.977
		c-2.01-1.1-4.173-1.938-6.485-1.999c-3.503-0.092-6.496,2.222-9.506,3.66c-1.102,0.527-2.245,1.011-3.415,1.418
		c0.802-1.757,1.431-3.595,1.869-5.504C364.388,223.823,365.142,223.954,365.889,223.8z M368.923,196.365
		c0.413,4.931-2.009,8.113-6.062,9.402c-0.275-0.912-0.59-1.806-0.944-2.679c2.291-2.701,4.429-5.526,6.006-8.716
		c0.183-0.37,0.35-0.746,0.51-1.124C368.668,194.278,368.835,195.321,368.923,196.365z M353.274,172.947
		c3.634-2.933,7.945-4.677,12.464-5.678c-1.501,3.122-1.189,6.458-1.389,10.076c-0.206,3.725-0.851,7.356-2.365,10.782
		c-1.727,3.908-4.539,7.282-7.325,10.473c-0.118,0.135-0.14,0.328-0.091,0.558c-2.508,1.751-4.198,4.344-5.357,7.264
		c-1.631-0.622-3.411-1.173-5.181-1.399c-1.062-5.706-0.976-11.809,0.247-17.352C345.551,181.9,348.669,176.664,353.274,172.947z
		 M293.125,175.899c0.532-0.159,1.075-0.276,1.62-0.378c1.857-0.346,3.763-0.387,5.642-0.228c6.587,0.556,12.267,4.395,16.368,9.404
		c3.981,4.862,6.864,10.558,9.264,16.334c0.141,0.34,0.333,0.665,0.554,0.974c0.396,0.926,0.792,1.832,1.182,2.708
		c1.237,2.781,7.215,4.461,5.216-0.036c-2.725-6.128-5.807-13.944-7.071-21.32c-1.429-8.344-0.657-16.933,4.421-23.357
		c0.702,2.246,1.701,4.379,3.154,6.251c1.767,2.276,4.175,3.947,6.157,5.697c0.6,0.529,0.672,0.361,0.837,1.338
		c0.125,0.741,0.08,1.49-0.048,2.231c-0.956,1.906-1.699,3.929-2.227,6.013c-1.788,7.064-1.623,15.116,0.405,22.143
		c0.174,0.603,0.492,1.168,0.885,1.694c-0.902,0.306-1.758,0.781-2.537,1.474c-1.439,1.28-2.174,3.42-2.282,5.344
		c-1.091-0.89-2.214-1.722-3.349-2.484c-3.125-2.099-7.444-3.496-11.262-2.774c-0.643-0.399-1.284-0.803-1.919-1.215
		c-3.181-2.061-6.231-4.309-9.163-6.71c-7.094-5.808-14.243-13.409-15.951-22.745C292.955,175.895,292.341,176.134,293.125,175.899z
		 M302.436,205.059c-1.316-3.446-1.953-7.425-1.648-11.168c1.897,1.952,3.881,3.787,5.858,5.505
		c4.405,3.829,9.138,7.392,14.132,10.464c0.911,2.276,2.093,4.437,3.466,6.493C315.275,216.217,305.829,213.944,302.436,205.059z
		 M326.819,214.947c-0.733-1.83-1.195-2.16,0.574-2.274c2.883-0.186,5.813,0.56,8.322,1.982c0.135,0.139,0.277,0.272,0.426,0.399
		c0.027,0.038,0.054,0.075,0.076,0.105c0.982,1.355,1.749,2.866,2.449,4.382c2.043,4.423,3.074,9.288,3.727,14.092c0,0,0,0-0.001,0
		c-0.782-0.57-1.667-1.245-2.343-1.786c-2.326-1.864-4.406-3.791-6.394-6.047C330.815,222.575,328.419,218.944,326.819,214.947z
		 M325.983,256.665c2.533,2.174,5.064,4.351,7.729,6.367c5.94,4.495,12.486,8.009,19.56,10.358
		c10.656,3.538,22.048,4.568,33.21,4.832c12.045,0.285,23.974-0.951,35.419-4.845c8.691-2.957,16.867-7.54,23.772-13.601
		c-0.497,4.413-0.575,8.886-0.41,13.284c0.188,5.016,0.751,9.976,1.573,14.892c-6.194-5.067-15.307-5.753-22.467-1.983
		c-4.577,2.41-6.839,6.466-10.04,10.257c-2.398,2.839-5.476,4.54-9.165,5.028c-5.983,0.792-12.376-0.62-18.12-2.165
		c-5.439-1.463-10.901-4.03-16.626-4.007c-9.897,0.039-20.14,12.252-29.998,5.335c-4.248-2.98-5.48-10.257-5.462-15.109
		c0.002-0.537-0.26-1.121-0.672-1.675C334.397,274.071,331.448,264.666,325.983,256.665z M423.035,301.186
		c-0.006,0.836-0.455,1.467-1.209,1.805c-0.643,0.288-1.238,0.145-1.31-0.57C420.385,301.119,422.868,299.534,423.035,301.186z
		 M408.905,308.886c-0.006,0.847-0.469,1.495-1.233,1.837c-0.693,0.31-1.308,0.139-1.385-0.621
		C406.149,308.74,408.729,307.148,408.905,308.886z M394.764,312.622c-0.009,1.29-0.696,2.281-1.863,2.803
		c-1.322,0.591-2.583-0.09-2.725-1.495C389.91,311.306,394.446,309.471,394.764,312.622z M389.1,306.473
		c-0.006,0.964-0.529,1.702-1.399,2.092c-0.858,0.384-1.643,0.082-1.738-0.851C385.792,306.02,388.885,304.346,389.1,306.473z
		 M362.879,307.504c-0.117-0.761,0.417-1.452,0.991-1.869c0.281-0.204,0.657-0.263,1.008-0.257
		c-0.025,0.797-0.339,1.379-0.996,1.856C363.617,307.426,363.201,307.503,362.879,307.504z M348.467,309.038
		c0.318-0.231,0.709-0.296,1.088-0.334c0.627-0.063,0.722,0.086,0.781,0.672c-0.006,0.861-0.355,1.514-1.047,2.017
		c-0.318,0.231-0.71,0.295-1.088,0.333c-0.626,0.063-0.721-0.085-0.781-0.671C347.335,310.222,347.824,309.504,348.467,309.038z
		 M336.139,301.995c0.05-0.005,0.091-0.006,0.134-0.009c0.21,0.219,0.424,0.432,0.642,0.639c0.002,0.015,0.004,0.026,0.005,0.041
		c-0.006,0.861-0.355,1.513-1.047,2.017c-0.318,0.231-0.71,0.295-1.088,0.333c-0.627,0.063-0.722-0.085-0.781-0.671
		c-0.084-0.833,0.405-1.551,1.048-2.018C335.368,302.098,335.76,302.033,336.139,301.995z M407.728,441.779
		c0.74,0.378,2.076,0.486,1.959-0.718c-0.118-1.219-1.274-2.287-2.298-2.81c-9.586-4.897-8.612-16.795-4.78-25.493
		c0.26,0.19,0.521,0.327,0.753,0.33c13.056,0.194,23.172,10.174,25.912,22.545c2.396,10.816-2.674,22.913-10.3,30.493
		c-14.645,14.556-38.7,14.146-55.587,3.961c-13.607-8.207-18.075-26.644-8.612-39.653c5.161-7.095,13.573-12.575,21.834-15.483
		c0.375,0.486,0.416,0.562,0.68,0.992c1.198,1.947,2.023,4.091,2.31,6.378c0.757,6.039-2.781,11.036-7.797,14.048
		c-3.648,2.191,2.703,9.081,5.683,7.291c6.832-4.103,11.101-10.652,9.835-18.815c-0.781-5.032-3.158-9.722-6.507-13.552
		c5.505,0.806,11.142,1.046,16.759,0.711c-1.044,2.966-1.695,6.099-1.903,9.168C395.056,430.206,399.724,437.689,407.728,441.779z
		 M428.602,422.814c7.363,8.314,10.081,18.581,7.344,29.368c-4.492,17.701-21.594,27.962-38.547,31.139
		c-16.706,3.131-36.494-3.194-46.975-16.879c-6.421-8.384-7.495-19.612-4.522-29.53c2.55-8.51,8.659-15.377,15.952-20.219
		c3.338-2.216,7.11-4.169,10.979-5.391c0.094,0.09,0.188,0.179,0.282,0.263c-11.305,3.951-23.153,12.68-26.379,24.651
		c-5.27,19.553,13.776,36.384,30.403,41.964c18.802,6.31,41.699,1.089,51.798-17.122c5.582-10.065,5.91-21.94,0.076-31.905
		c-4.698-8.025-12.889-15.421-21.996-18.263c1.276-0.228,2.545-0.488,3.807-0.777C417.657,412.527,423.984,417.598,428.602,422.814z
		 M453.106,313.809c6.586,22.267,4.962,49.509-9.678,68.335c-13.174,16.941-34.324,24.5-55.272,24.776
		c-4.789,0.063-9.588-0.299-14.304-1.103c-0.24-0.062-0.482-0.106-0.719-0.128c-7.038-1.271-13.881-3.544-20.212-6.944
		c-8.959-4.811-16.065-11.921-21.318-20.585c-6.637-10.949-9.464-23.788-9.514-36.495c-0.028-7.125,0.931-14.231,2.445-21.182
		c1.686-7.737,4.532-14.984,7.174-22.415c0.211-0.595,0.406-1.192,0.591-1.79c0.428,0.86,0.897,1.692,1.411,2.48
		c0.324,0.496,0.663,0.973,1.016,1.434c-1.417-0.016-2.594,1.258-2.604,2.7c-0.012,1.774,1.791,3.283,3.32,3.801
		c1.698,0.576,3.287-0.831,3.352-2.486c1.761,1.304,3.741,2.32,5.937,3.012c0.549,0.173,1.101,0.303,1.654,0.411
		c-0.514,0.503-0.842,1.214-0.847,1.971c-0.012,1.774,1.791,3.283,3.32,3.801c1.728,0.586,3.347-0.881,3.358-2.573
		c0-0.065-0.01-0.13-0.029-0.194c-0.169-1.096-0.81-2.042-1.672-2.724c3.275-0.163,6.529-1.152,9.569-2.401
		c0,0.004-0.001,0.008-0.001,0.012c-0.014,2.087,2.063,4.115,4.006,4.551c1.822,0.409,3.564-0.814,3.577-2.727
		c0-0.046-0.009-0.09-0.013-0.134c0.001-0.04,0.009-0.072,0.005-0.119c-0.155-1.535-1.31-2.999-2.709-3.788
		c3.533-1.641,7.164-3.098,11.118-2.402c3.36,0.592,6.62,1.63,9.888,2.651c-1.292,0.434-2.162,1.68-2.172,3.169
		c-0.014,2.023,1.997,3.831,3.899,4.05c0.318,0.037,0.621,0.025,0.911-0.02c-0.374,0.636-0.592,1.386-0.597,2.188
		c-0.017,2.401,2.328,4.482,4.58,4.741c2.396,0.276,4.219-1.544,4.355-3.827c0.015-0.068,0.023-0.145,0.013-0.241
		c0-0.063-0.01-0.128-0.028-0.194c-0.323-2.328-2.171-4.274-4.55-4.548c-0.503-0.058-0.979-0.02-1.421,0.092
		c0.183-0.392,0.295-0.829,0.323-1.294c0.015-0.059,0.019-0.127,0.011-0.206c0-0.063-0.01-0.129-0.028-0.194
		c-0.137-0.934-0.568-1.803-1.204-2.482c1.534,0.432,3.08,0.819,4.648,1.114c3.381,0.636,6.867,1.114,10.24,1.056
		c-0.514,0.549-0.824,1.305-0.83,2.155c-0.013,1.888,1.878,3.599,3.656,3.804c1.81,0.209,3.198-1.093,3.311-2.833
		c0.015-0.059,0.019-0.127,0.011-0.206c0-0.063-0.01-0.129-0.029-0.195c-0.192-1.277-0.986-2.433-2.089-3.084
		c3.425-0.586,6.624-1.945,9.344-4.518c0.362,1.642,2.028,3.011,3.63,3.196c1.825,0.211,3.24-1.11,3.36-2.865
		c0.015-0.062,0.02-0.134,0.012-0.215c0-0.068-0.011-0.138-0.03-0.209c-0.281-1.846-1.775-3.437-3.674-3.656
		c-0.052-0.006-0.102-0.006-0.153-0.01c1.093-1.514,2.152-3.043,3.512-4.374c2.2-2.152,4.97-3.537,7.915-4.349
		c3.985-1.098,9.96-0.725,12.688,2.717c0.541,0.683,1.46,1.504,2.44,1.851C449.4,300.78,451.186,307.319,453.106,313.809z
		 M447.204,235.761c0.459,0.536,0.698,0.943,1.077,1.622c2.142,3.83,0.194,8.507-2.07,11.787
		c-4.565,5.481-10.75,9.971-16.652,13.397c-20.124,11.681-45.136,12.436-67.599,8.91c-9.445-1.482-18.777-4.399-26.76-9.769
		c-4.342-2.921-8.396-6.666-12.595-10.209c2.321-7.332,8.059-13.996,14.57-17.841c0.909-0.537,1-1.473,0.624-2.474
		c2.214,2.016,4.504,3.965,6.884,5.783c-0.987,0.409-1.969,0.833-2.944,1.268c-2.45,1.092-5.577,2.256-7.402,4.314
		c-1.775,2.002,3.46,5.314,5.033,5.761c2.133,0.607,4.485,0.507,6.664,1.026c0.794,0.189,1.559,0.457,2.303,0.783
		c0.006,0.019,0.013,0.038,0.019,0.056c0.73,2.162-0.058,4.539-0.583,6.652c-0.602,2.425-0.362,3.692,1.379,5.589
		c2.561,2.791,4.916,3.158,8.484,2.464c4.272-0.831,8.491-1.587,12.577,0.374c2.235,1.073,3.919,3.033,6.143,4.158
		c2.486,1.257,4.83-0.043,6.805-1.629c1.719-1.381,3.082-3.048,5.036-4.134c1.789-0.994,3.826-1.21,5.83-1.019
		c3.438,0.329,6.516,2.109,9.731,3.213c2.453,0.843,4.995,1.111,6.49-1.402c1.947-3.272,0.892-7.2,3.945-9.981
		c2.369-2.158,5.908-2.604,8.959-2.887c2.291-0.212,5.097,0.016,7.209-1.045c2.193-1.101-0.364-4.267-1.221-5.348
		c-2.181-2.749-4.686-4.218-8.083-4.792c-2.848-0.481-5.751-0.622-8.636-0.825c2.476-1.333,5.123-2.781,4.471-5.946
		c-0.374-1.814-2.272-3.554-3.632-4.644c-0.348-0.279-0.697-0.536-1.049-0.779c0.348-1.819,0.695-3.637,1.043-5.456
		c7.067,1.065,14.007,2.824,20.592,5.509c-1.184,3.064-2.367,6.127-3.551,9.191c-0.403,1.043-0.805,2.085-1.208,3.127
		c-0.244,0.632,0.585,1.793,0.89,2.28c1.246,1.988,3.121,3.653,5.107,4.873c1.613,0.992,4.816,1.829,5.794-0.202
		c0.812-1.685,1.624-3.37,2.436-5.054c1.155-2.397,2.31-4.793,3.465-7.19C446.981,235.443,446.673,235.14,447.204,235.761z
		 M449.168,216.309c-3.17,6.577-6.34,13.155-9.509,19.732c-0.986,2.046-1.972,4.092-2.958,6.138c-0.783,1.626-1.04,2.15-2.678,2.027
		c0.049-0.126,0.097-0.252,0.146-0.378c0.678-1.754,1.355-3.508,2.033-5.262c2.366-6.124,4.732-12.248,7.098-18.372
		c3.65-9.447,7.3-18.894,10.95-28.34c0.234-0.607-0.472-1.484-1.401-2.294c0.749,0.107,1.498,0.206,2.244,0.29
		c2.199,0.249,4.415,0.376,6.634,0.399C457.541,198.936,453.354,207.622,449.168,216.309z M472.278,183.353
		c-9.021,2.961-20.162,2.456-29.27,0.168c-0.977-0.246-1.932-0.561-2.874-0.915c-0.412-0.155-0.813-0.333-1.214-0.514
		c-0.094-0.042-0.169-0.072-0.244-0.102c-0.892-1.976-0.056-4.341,0.943-6.093c0.591-1.036,1.307-1.952,2.112-2.778
		c0.145,0.125,0.281,0.241,0.401,0.344c2.187,1.872,4.65,2.737,7.45,3.218c4.618,0.795,9.408,0.785,14.118,0.632
		c1.794,0.414,3.702,0.349,5.751,0.201c2.981-0.227,5.963-0.332,8.946-0.09c0.55,0.045,1.097,0.114,1.64,0.204
		C479.119,180.618,474.786,182.53,472.278,183.353z"/>
	<path fill="#120E0F" d="M362.598,317.994c0-0.046-0.009-0.09-0.013-0.134c0.001-0.04,0.009-0.072,0.005-0.12
		c-0.201-1.99-2.081-3.866-3.998-4.297c-1.822-0.41-3.564,0.814-3.577,2.727c-0.014,2.087,2.063,4.114,4.006,4.551
		C360.842,321.13,362.585,319.906,362.598,317.994z M357.809,318.151c-0.117-0.761,0.417-1.452,0.991-1.869
		c0.281-0.204,0.657-0.263,1.008-0.257c-0.025,0.797-0.339,1.379-0.996,1.856C358.548,318.073,358.131,318.15,357.809,318.151z"/>
	<path fill="#120E0F" d="M332.999,340.656c-0.201-1.99-2.081-3.866-3.998-4.297c-1.822-0.41-3.564,0.814-3.577,2.727
		c-0.014,2.087,2.063,4.114,4.006,4.551c1.822,0.409,3.564-0.814,3.577-2.727c0-0.046-0.009-0.09-0.013-0.134
		C332.996,340.735,333.004,340.703,332.999,340.656z M329.222,340.797c-0.264,0.192-0.681,0.269-1.002,0.27
		c-0.117-0.761,0.417-1.452,0.991-1.869c0.281-0.204,0.657-0.263,1.008-0.257C330.193,339.738,329.879,340.32,329.222,340.797z"/>
	<path fill="#120E0F" d="M342.222,328.911c1.728,0.586,3.347-0.881,3.358-2.573c0-0.065-0.01-0.129-0.029-0.194
		c-0.264-1.714-1.684-3.063-3.291-3.608c-1.729-0.586-3.346,0.882-3.358,2.574C338.89,326.885,340.693,328.393,342.222,328.911z
		 M341.83,324.546c0.318-0.23,0.709-0.295,1.088-0.333c0.627-0.063,0.722,0.086,0.781,0.672c-0.006,0.861-0.355,1.514-1.047,2.017
		c-0.318,0.231-0.71,0.295-1.088,0.333c-0.627,0.063-0.721-0.085-0.781-0.671C340.699,325.731,341.188,325.013,341.83,324.546z"/>
	<path fill="#120E0F" d="M365.391,337.682c-1.688-0.777-3.48,0.495-3.492,2.292c-0.011,1.643,1.953,3.307,3.307,3.93
		c1.687,0.776,3.479-0.493,3.492-2.291c0-0.017-0.007-0.035-0.01-0.052c0.002-0.008,0.011-0.009,0.01-0.02
		C368.532,339.896,366.819,338.339,365.391,337.682z M363.638,342.141C363.324,342.015,363.319,341.835,363.638,342.141
		L363.638,342.141z M365.392,341.999c-0.429,0.25-0.942,0.279-1.422,0.224c-0.015-0.065-0.03-0.131-0.043-0.195
		c-0.214-1.008,0.45-1.961,1.279-2.441c0.435-0.252,0.943-0.287,1.428-0.213c0.03,0.139,0.047,0.281,0.061,0.422
		C366.673,340.755,366.229,341.514,365.392,341.999z"/>
	<path fill="#120E0F" d="M343.33,355.468c-1.772-0.6-3.394,0.639-3.406,2.473c-0.006,0.861,0.606,1.665,1.149,2.271
		c0.763,0.852,1.725,1.777,2.833,2.152c1.772,0.601,3.393-0.638,3.406-2.472c-0.091-0.898-0.556-1.61-1.148-2.271
		C345.4,356.769,344.438,355.844,343.33,355.468z M343.431,359.861c-0.284,0.164-0.599,0.221-0.917,0.228
		c-0.076-0.902,0.558-1.692,1.292-2.117c0.283-0.164,0.597-0.22,0.915-0.228C344.704,358.675,344.228,359.398,343.431,359.861z"/>
	<path fill="#120E0F" d="M386.31,380.768c-0.178-1.761-1.854-3.513-3.57-3.898c-1.779-0.4-3.437,0.774-3.449,2.639
		c-0.012,1.831,1.876,3.711,3.586,4.096c1.779,0.4,3.436-0.775,3.449-2.64c0-0.051-0.009-0.101-0.017-0.152
		C386.308,380.796,386.312,380.785,386.31,380.768z M383.061,381.267c-0.301,0.219-0.699,0.276-1.057,0.312
		c-0.138,0-0.273-0.021-0.405-0.054c-0.028-0.088-0.05-0.178-0.061-0.271c-0.174-0.823,0.397-1.598,1.017-2.048
		c0.385-0.279,0.923-0.334,1.377-0.282c0.034,0.014,0.063,0.024,0.09,0.034c0.033,0.115,0.052,0.234,0.065,0.353
		C384.074,380.15,383.741,380.773,383.061,381.267z"/>
	<path fill="#120E0F" d="M415.751,393.294c-0.178-1.761-1.854-3.513-3.57-3.898c-1.779-0.4-3.437,0.774-3.449,2.639
		c-0.012,1.831,1.876,3.711,3.586,4.096c1.779,0.4,3.436-0.775,3.449-2.64c0-0.051-0.009-0.101-0.017-0.152
		C415.749,393.323,415.753,393.312,415.751,393.294z M412.502,393.793c-0.301,0.219-0.699,0.276-1.057,0.312
		c-0.138,0-0.273-0.021-0.405-0.054c-0.028-0.088-0.05-0.178-0.061-0.271c-0.174-0.823,0.397-1.598,1.017-2.048
		c0.385-0.279,0.923-0.334,1.377-0.282c0.034,0.014,0.063,0.024,0.09,0.034c0.033,0.115,0.052,0.234,0.065,0.353
		C413.515,392.676,413.182,393.299,412.502,393.793z"/>
	<path fill="#120E0F" d="M432.73,373.38c-0.178-1.761-1.854-3.513-3.57-3.898c-1.779-0.4-3.437,0.774-3.449,2.639
		c-0.012,1.831,1.876,3.711,3.586,4.096c1.779,0.4,3.436-0.775,3.449-2.64c0-0.051-0.009-0.101-0.017-0.152
		C432.728,373.409,432.732,373.398,432.73,373.38z M429.482,373.88c-0.301,0.219-0.699,0.276-1.057,0.312
		c-0.138,0-0.273-0.021-0.405-0.054c-0.028-0.088-0.05-0.178-0.061-0.271c-0.174-0.823,0.397-1.598,1.017-2.048
		c0.385-0.279,0.923-0.334,1.377-0.282c0.034,0.014,0.063,0.024,0.09,0.034c0.033,0.115,0.052,0.234,0.065,0.353
		C430.494,372.763,430.161,373.385,429.482,373.88z"/>
	<path fill="#120E0F" d="M409.799,328.808c1.709,0.786,3.57-0.343,3.583-2.244c0-0.018-0.008-0.037-0.011-0.056
		c0.002-0.007,0.009-0.006,0.009-0.015c-0.161-1.597-1.861-3.212-3.257-3.854c-1.709-0.786-3.57,0.344-3.583,2.244
		C406.528,326.478,408.478,328.201,409.799,328.808z M409.89,324.539c0.425-0.246,0.92-0.281,1.395-0.215
		c0.023,0.121,0.037,0.244,0.05,0.366c-0.016,0.967-0.462,1.732-1.303,2.22c-0.419,0.243-0.92,0.278-1.389,0.228
		c-0.012-0.053-0.024-0.107-0.035-0.158C408.395,325.972,409.063,325.018,409.89,324.539z M408.265,327.047
		C408.063,326.959,408.062,326.868,408.265,327.047L408.265,327.047z"/>
	<path fill="#120E0F" d="M429.067,322.567c1.709,0.787,3.57-0.343,3.583-2.244c0-0.018-0.008-0.037-0.011-0.055
		c0.002-0.007,0.01-0.007,0.009-0.016c-0.161-1.597-1.861-3.212-3.257-3.854c-1.709-0.786-3.57,0.344-3.583,2.244
		C425.796,320.237,427.746,321.959,429.067,322.567z M429.158,318.298c0.425-0.247,0.92-0.281,1.395-0.215
		c0.023,0.121,0.037,0.244,0.05,0.366c-0.016,0.967-0.462,1.733-1.303,2.22c-0.419,0.243-0.92,0.278-1.39,0.229
		c-0.012-0.053-0.024-0.107-0.035-0.158C427.663,319.731,428.331,318.777,429.158,318.298z M427.532,320.806
		C427.331,320.718,427.33,320.627,427.532,320.806L427.532,320.806z"/>
	<path fill="#120E0F" d="M384.053,359.598c0.017-0.069,0.022-0.148,0.013-0.239c0-0.076-0.013-0.154-0.034-0.233
		c-0.299-1.912-1.853-3.572-3.823-3.799c-1.947-0.224-3.451,1.229-3.464,3.146c-0.014,1.999,1.969,3.815,3.858,4.032
		C382.469,362.72,383.922,361.394,384.053,359.598z M379.268,359.585c-0.08-0.789,0.501-1.443,1.173-1.744
		c0.625-0.28,1.044-0.174,1.103,0.406c-0.006,0.809-0.442,1.417-1.173,1.744C379.746,360.271,379.327,360.165,379.268,359.585z"/>
	<path fill="#120E0F" d="M391.159,337.805c-0.299-1.912-1.854-3.572-3.824-3.799c-1.947-0.224-3.451,1.229-3.464,3.146
		c-0.014,1.999,1.969,3.815,3.858,4.032c1.865,0.215,3.318-1.111,3.45-2.907c0.017-0.069,0.022-0.148,0.013-0.238
		C391.193,337.962,391.18,337.884,391.159,337.805z M387.497,338.67c-0.625,0.28-1.044,0.174-1.103-0.406
		c-0.08-0.789,0.501-1.443,1.173-1.744c0.625-0.28,1.044-0.174,1.103,0.406C388.664,337.736,388.228,338.343,387.497,338.67z"/>
	<path fill="#120E0F" d="M365.211,382.977c-0.319-1.998-2.106-3.82-4.137-4.053c-1.978-0.227-3.41,1.219-3.423,3.145
		c-0.015,2.072,2.231,4.062,4.172,4.285c1.886,0.217,3.273-1.089,3.409-2.881c0.018-0.075,0.024-0.161,0.014-0.263
		C365.246,383.135,365.233,383.057,365.211,382.977z M362.39,381.522C362.362,381.481,362.369,381.463,362.39,381.522
		L362.39,381.522z M360.506,383.755C360.535,383.797,360.527,383.817,360.506,383.755L360.506,383.755z M361.261,383.571
		c-0.244,0.109-0.514,0.138-0.776,0.105c-0.013-0.056-0.026-0.129-0.037-0.24c-0.077-0.763,0.547-1.442,1.189-1.729
		c0.244-0.109,0.513-0.138,0.776-0.105c0.013,0.056,0.026,0.129,0.038,0.241C362.444,382.628,361.961,383.258,361.261,383.571z"/>
	<path fill="#120E0F" d="M412.427,357.553c0.009-0.033,0.012-0.07,0.007-0.117c0.001-0.099-0.017-0.199-0.045-0.297
		c-0.34-1.898-2.065-3.776-3.95-4.201c-1.808-0.407-3.494,0.744-3.507,2.655c-0.014,1.968,2.17,4.089,3.995,4.499
		C410.698,360.489,412.346,359.393,412.427,357.553z M409.698,355.157C409.53,354.963,409.628,354.841,409.698,355.157
		L409.698,355.157z M407.668,357.872C407.836,358.066,407.738,358.188,407.668,357.872L407.668,357.872z M407.67,357.637
		c-0.012,0-0.024-0.002-0.035-0.002c-0.07-0.808,0.4-1.484,1.025-1.937c0.298-0.217,0.682-0.27,1.037-0.306
		c0.011,0,0.021,0.002,0.032,0.002c-0.013,0.834-0.347,1.447-1.023,1.938C408.408,357.548,408.025,357.601,407.67,357.637z"/>
	<path fill="#120E0F" d="M439.708,294.719c-0.318-2.215-2.07-4.073-4.342-4.335c-2.334-0.268-4.112,1.565-4.128,3.826
		c-0.016,2.295,2.213,4.294,4.372,4.542c2.258,0.26,3.993-1.45,4.116-3.61c0.015-0.062,0.02-0.134,0.012-0.215
		C439.739,294.86,439.727,294.79,439.708,294.719z M435.796,296.422c-1.102,0.494-2.159-0.015-2.279-1.202
		c-0.223-2.211,3.67-4,3.943-1.302C437.452,295.075,436.841,295.954,435.796,296.422z"/>
	<path fill="#120E0F" d="M349.182,344.536c-0.274-1.816-1.763-3.394-3.626-3.608c-1.882-0.216-3.311,1.195-3.324,3.039
		c-0.013,1.888,1.878,3.599,3.656,3.804c1.81,0.209,3.198-1.093,3.311-2.833c0.015-0.059,0.019-0.127,0.011-0.206
		C349.211,344.668,349.2,344.603,349.182,344.536z M345.797,345.579c-0.693,0.31-1.308,0.139-1.385-0.621
		c-0.138-1.362,2.442-2.954,2.618-1.216C347.025,344.588,346.561,345.237,345.797,345.579z"/>
	<path fill="#120E0F" d="M445.383,324.376c-2.014-0.232-3.566,1.227-3.58,3.223c-0.015,2.096,2.103,4.048,4.086,4.276
		c1.921,0.221,3.419-1.096,3.565-2.951c0.02-0.078,0.025-0.168,0.015-0.271c0.001-0.085-0.014-0.173-0.038-0.262
		C449.108,326.388,447.446,324.613,445.383,324.376z M445.471,329.039c-0.198,0.089-0.542,0.162-0.761,0.089
		c-0.026-0.081-0.032-0.175-0.04-0.249c-0.076-0.754,0.489-1.38,1.13-1.667c0.199-0.089,0.542-0.162,0.76-0.089
		c0.027,0.081,0.032,0.176,0.04,0.25C446.595,328.146,446.167,328.727,445.471,329.039z"/>
	<path fill="#120E0F" d="M449.431,351.526c-0.323-2.002-1.985-3.777-4.048-4.015c-2.014-0.232-3.566,1.227-3.58,3.223
		c-0.015,2.096,2.103,4.048,4.086,4.276c1.921,0.221,3.419-1.096,3.565-2.951c0.02-0.078,0.025-0.168,0.015-0.271
		C449.47,351.703,449.455,351.615,449.431,351.526z M445.471,352.175c-0.198,0.089-0.542,0.162-0.761,0.089
		c-0.026-0.081-0.032-0.176-0.04-0.249c-0.076-0.754,0.489-1.38,1.13-1.667c0.199-0.089,0.542-0.162,0.76-0.089
		c0.027,0.081,0.032,0.176,0.04,0.25C446.595,351.281,446.167,351.863,445.471,352.175z"/>
	<path fill="#120E0F" d="M430.005,343.758c0.014-0.056,0.018-0.121,0.011-0.196c0-0.059-0.01-0.12-0.027-0.182
		c-0.264-1.776-1.734-3.345-3.556-3.554c-1.866-0.215-3.278,1.17-3.29,3.002c-0.012,1.84,1.847,3.536,3.583,3.736
		C428.524,346.771,429.896,345.49,430.005,343.758z M425.216,343.788c-0.145-1.438,2.54-3.014,2.725-1.186
		c-0.006,0.858-0.482,1.523-1.256,1.87C425.946,344.803,425.298,344.593,425.216,343.788z"/>
</g>
</svg>
