<?xml version="1.0" encoding="utf-8"?>
<!-- Generator: Adobe Illustrator 17.0.0, SVG Export Plug-In . SVG Version: 6.00 Build 0)  -->
<!DOCTYPE svg PUBLIC "-//W3C//DTD SVG 1.1//EN" "http://www.w3.org/Graphics/SVG/1.1/DTD/svg11.dtd">
<svg version="1.1" id="Layer_1" xmlns="http://www.w3.org/2000/svg" xmlns:xlink="http://www.w3.org/1999/xlink" x="0px" y="0px"
	 width="800px" height="600px" viewBox="0 0 800 600" enable-background="new 0 0 800 600" xml:space="preserve">
<g>
	<path d="M536.919,404.715c-0.73-17.788-7.995-38.289-16.568-54.084c-4.885-8.995-10.361-17.143-16.542-25.269
		c-2.78-3.655-6.544-7.651-9.862-11.326c-3.506-12.026,7.945-26.399,5.609-39.818c-0.479-2.737-2.069-5.648-5.096-5.648
		c-3.619,0-6.012,3.316-7.876,6.413c-1.236-0.856-2.386-1.939-3.368-3.322c2.809-8.74,8.712-16.631,12.483-25.047
		c6.683-14.919,8.567-27.959,2.006-44.01c-3.087-7.544-9.687-18.497-14.417-25.059c-5.238-7.276-10.255-14.651-15.824-21.693
		c-10.325-13.058-23.707-24.984-38.682-32.413c-14.612-7.251-30.595-9.806-48.078-6.232c-20.114,4.116-32.442,15.154-47.381,26.318
		c-6.177,4.614-12.341,8.572-17.599,15.145c-5.123,6.395-8.963,13.798-12.245,21.23c-6.815,15.393-13.27,30.755-16.512,47.245
		c-1.299-1.71-3.229-4.558-3.893-6.492c-3.874,4.511-5.976,10.409-6.752,16.102c-1.041-0.911-2.082-3.636-2.71-5.873
		c-5.866,8.081-4.977,19.397-2.8,28.719c-2.898-1.071-6.967-3.555-9.168-6.356c-4.263,7.925,2.499,20.476,9.367,25.543
		c-13.855,30.246-10.992,53.335-0.4,79.622c-7.991,20.721-4.396,62.164,6.534,82.751c1.461-5.328,3.378-9.596,4.462-12.124
		c4.085,19.422,20.124,41.121,36.315,52.368c-1.871-4.396-2.072-13.79-1.672-16.581c5.169,7.942,13.461,14.892,21.39,20.311
		c-0.066-2.664,0.469-6.126,1.2-7.725c2.132,1,4.835,1.416,5.85,1.791c0.406,1.01,0.823,2.014,1.256,2.999
		c8.729,19.949,24.675,30.429,46.535,30c24.854-0.498,51.327-11.755,68.536-29.694c4.931-5.136,8.226-10.184,10.847-16.31
		c7.271-1.144,12.179-5.825,14.542-11.04c0.684,2.685,1.306,7.403,1.173,9.867c8.977-6.524,16.145-17.039,21.81-26.485
		c0.225,1.689,0.678,4.361,0.655,6.103c6.392-4.64,20.257-25.322,15.967-47.264C529.354,398.717,532.989,401.247,536.919,404.715z"
		/>
	<path fill="#8C665D" d="M485.109,277.918c-1.226,3.041,0.205,6.992,0.783,5.065c0.387-1.299,1.725-4.127,3.387-6.653
		c1.669-2.537,5.866-6.134,7.271-1.281c1.322,4.573-0.671,9.94-2.056,14.235c-2.257,7.013-5.057,13.959-4.102,21.242
		c-2.525-3.021-4.71-6.417-6.441-10.479c-1.735-4.067-3.88-16.17-1.99-24.989C482.842,276.018,484.035,277.176,485.109,277.918z"/>
	<path fill="#765D57" d="M523.193,393.721c0.8,8.33,1.398,16.991-1.527,26.784c-2.082,6.947-5.853,12.908-9.866,18.923
		c-0.02-1.631-0.658-5.704-1.133-7.329c-3.93,6.727-12.5,21.208-21.255,27.986c-0.327-2.981-1.11-8.211-2.201-11.062
		c-4.062,8.125-7.724,12.394-14.056,14.124c8.19-18.763,7.539-49.145,12.562-60.76c2.617-2.259,17.209-15.015,11.412-38.735
		c-3.232-13.212-14.238-22.484-26.883-23.717c1.9-9.467-0.506-22.981-7.241-29.598c-7.493-7.356-20.049-7.575-29.765-8.993
		c-16.637-2.426-32.614-11.341-33.1-28.912c-0.086-3.012-1.464-4.28-1.378-1.263c0.308,11.135,4.389,20.26,13.316,27.057
		c9.456,7.2,21.681,7.56,32.882,9.517c14.853,2.596,21.539,11.269,20.7,26.503c-0.8,14.469-16.671,29.081-24.695,33.117
		c-2.697,1.353,0.472,2.735,4.336,1.039c10.963-4.815,19.705-15.276,23.446-26.28c8.881,2.558,20.316,8.013,23.641,21.531
		c3.107,12.642,0.687,24.91-8.021,33.634c-7.089,7.098-20.904,12.594-29.081,14.377c-8.18,1.783-15.59,2.168-22.996,2.183
		c-15.613,0.033-33.807-7.175-41.63-9.081c-3.764-0.914-10.199-0.874-15.814,0.53c-11.723,2.932-27.26,12.777-46.095,9.2
		c-18.825-3.583-19.79-26.067-13.993-40.298c3.999-9.809,13.709-15.818,20.488-18.182c7.486,3.612,16.224,4.974,24.186,5.133
		c3.398,0.068,6.729-2.867,3.731-3.13c-8.933-0.805-18.914-2.01-26.546-6.678c-5.909-3.622-2.684-13.028-0.436-17.774
		c3.335-7.035,11.174-9.475,18.092-11.743c11.125-3.649,21.747-5.427,29.352-15.213c7.341-9.446,8.395-22.334,6.488-33.728
		c-0.496-2.965-1.755-1.672-1.262,1.273c3.007,17.95-7.146,34.382-25.161,40.057c-11.412,3.599-23.003,4.316-29.768,15.063
		c-6.683,10.626-6.58,18.158-3.348,24.366c-10.612,3.779-17.474,11.759-21.611,23.193c-5.434,15.025-2.105,31.099,9.561,38.165
		c6.802,4.118,13.108,5.681,19.556,5.224c18.155,13.75,39.803,61.781,75.989,52.703c23.975-6.007,31.494-38.667,43.957-57.093
		c7.925-1.91,15.696-5.002,22.425-9.471c-6.785,24.694-4.548,52.705-22.735,72.843c-16.684,18.48-44.525,28.484-69.032,28.35
		c-47.094-0.263-39.912-59.657-67.763-85.711c-2.201-2.057-4.65,0.008-2.489,2.119c14.014,13.698,18.128,33.675,24.851,51.615
		c-2.439-0.433-4.502-1.297-6.035-2.029c-1.401,2.199-1.999,6.392-1.999,6.392c-8.157-5.883-16.459-14.592-21.721-25.251
		c-0.803,4.801-0.354,14,0.03,18.87c-15.458-11.806-27.025-32.931-29.745-52.183c-2.932,2.403-5.559,6.861-6.465,9.661
		c-7.737-22.099-8.92-44.567-4.64-67.619c3.497,8.033,7.631,16.78,9.965,19.911c2.333,3.133,6.418,5.354,4.931,2.73
		c-18.174-32.073-31.16-72.454-11.525-107.397c-4.597-2.332-13.273-11.549-12.741-20.481c2.509,2.309,7.318,4.72,10.649,5.457
		c-2.118-8.479-4.634-20.358-0.767-28.222c1.061,2.469,3.53,4.335,4.762,5.139c0.773-5.547,1.305-11.449,4.723-16.051
		c1.576,2.877,2.981,5.747,5.833,7.602c2.598-15.079,9.928-32.075,15.887-46.513c3.05-7.38,6.428-14.539,10.86-21.202
		c5.476-8.228,13.653-13.321,21.41-19.111c14.473-10.816,26.609-21.19,44.84-25.062c18.422-3.913,38.606,0.921,54.334,10.766
		c14.08,8.808,25.948,21.739,35.271,35.309c10.027,14.593,22.2,28.535,25.918,46.259c3.669,17.497-3.95,34.675-12.794,49.295
		c-7.786,12.868-7.77,27.605-3.222,40.201c3.117,8.623,9.614,12.529,14.357,18.272c6.683,8.099,12.929,16.558,18.502,25.455
		c10.288,16.423,16.604,33.842,18.763,53.079C530.206,396.757,526.128,394.987,523.193,393.721z"/>
	<path fill="#5B453F" d="M330.569,295.663c-4.217-5.8-21.423-22.14-17.92-32.153c3.507-10.013,12.123-13.705,27.934-15.287
		c15.811-1.581,37.423-3.69,63.777-14.23c26.355-10.542,45.858-17.92,57.451-14.759c11.594,3.16,20.557,10.54,18.445,25.829
		c-2.102,15.282-13.174,22.663-14.228,29.514c-5.268-6.324-31.097-14.232-69.045-8.434
		C349.441,273.407,330.569,295.663,330.569,295.663z"/>
	<path fill="#FFFFFF" d="M397.01,468.393c-7.443-2.054-13.399-5.356-18.997-10.174c0.734-5.399,1.464-10.793,2.264-15.591
		c5.437,2.652,10.599,4.551,16.661,5.331C396.693,454.815,396.135,461.562,397.01,468.393z"/>
	<path fill="#FFFFFF" d="M376.681,440.894c-0.664,4.069-1.599,9.662-2.237,14.045c-10.754-10.644-19.751-23.704-26.04-31.586
		C357.072,427.241,375.227,440.082,376.681,440.894z"/>
	<path fill="#FFFFFF" d="M348.307,418.249c10.712-3.14,22.379-10.601,32.105-11.201c-0.546,9.644-1.732,19.79-2.998,29.05
		C367.754,430.351,358.652,422.612,348.307,418.249z"/>
	<path fill="#FFFFFF" d="M395.692,443.122c-5.691-0.777-11.68-3.094-14.949-5.49c0.8-4.931,3.14-20.306,3.735-30.583
		c4.396-0.732,13.052,3.383,19.771,5.754c-0.006,0.058-0.033,0.097-0.033,0.158v30.383c0,0.045,0.023,0.076,0.026,0.119
		C401.495,443.624,398.649,443.53,395.692,443.122z"/>
	<path fill="#FFFFFF" d="M401.069,448.16c5.926,0.065,13.736-1,19.589-3.599c0.744,6.123,1.21,12.25,2.26,18.346
		c-7.661,6.708-16.717,7.202-22.12,6.242C400.269,462.084,400.401,454.953,401.069,448.16z"/>
	<path fill="#FFFFFF" d="M407.335,443.176v-29.294c7.922,2.631,16.945,4.523,22.114,4.696c-0.519,5.149-0.373,10.452-0.314,15.729
		C422.512,438.8,415.36,442.115,407.335,443.176z"/>
	<path fill="#FFFFFF" d="M447.052,425.534c-6.243,12.263-11.369,25.518-20.865,34.617c-0.816-5.779-1.266-11.305-2.029-17.087
		C432.602,438.696,440.151,432.174,447.052,425.534z"/>
	<path fill="#FFFFFF" d="M432.582,431.969c-0.119-4.559,0.132-8.927,0.519-13.417c3.695-0.003,10.675-0.309,15.392-0.977
		C443.291,422.739,438.31,427.681,432.582,431.969z"/>
	<path d="M480.985,234.315c-13.365-31.135-46.922-13.106-69.174-4.62c-17.137,6.537-35.85,12.731-54.146,14.697
		c-13.957,1.502-29.474,0.765-41.508,9.106c-22.044,15.269,12.88,32.863,15.478,50.91c0.426,2.966,2.079-0.91,1.167-4.934
		c-3.728-16.512-37.33-35.331-5.737-46.272c12.569-4.353,26.662-3.097,39.667-5.384c16.568-2.913,33.216-8.616,48.895-14.596
		c12.09-4.609,23.876-11.012,36.963-12.222c14.724-1.363,27.696,11.659,25.356,26.554c-2.809,17.921-22.15,25.908-12.179,45.558
		c1.361,2.692,4.151,3.71,2.793,1.028c-6.075-11.983,2.432-22.197,8.411-32.184C481.989,253.563,485.046,243.77,480.985,234.315z"/>
	<path d="M297.427,276.204c-1.312-3.794-6.957-5.334-9.958-2.14c-6.263,6.663-9.859,22.117-10.589,33.444
		c-0.426,6.529-0.44,28.532,10.857,26.987c13.124-1.798,2.462-20.248,6.395-36.112C296.594,288.461,299.697,282.763,297.427,276.204
		z"/>
	<path fill="#8C665D" d="M291.124,325.391c-0.211,2.899-2.218,6.961-5.88,5.331c-1.901-0.843-2.727-3.735-3.299-5.485
		c-1.613-5.014-1.745-10.551-1.808-15.776c-0.103-8.464,1.914-15.765,4.498-23.814c4.102-12.784,10.305-10.183,10.292-5.093
		c-0.017,6.28-1.533,8.225-3.662,18.52C289.137,309.377,291.689,317.588,291.124,325.391z"/>
	<path d="M444.183,325.765c-10.728-2.69-19.559,1.129-24.166,9.066c-5.526,9.535-3.778,20.57-12.678,28.907
		c-10.682,10.009-19.688-12.006-22.005-17.603c-3.702-8.943-7.43-18.505-18.187-17.34c-9.314,1.008-16.962,9.897-11.201,16.761
		c5.889,7.022,19.136,7.017,29.705,13.435c3.712,5.858,10.196,11.878,16.985,11.12c5.242-0.585,9.27-3.627,11.849-6.919
		c9.469-1.985,27.914-4.541,35.291-17.375C453.206,339.841,454.481,328.351,444.183,325.765z"/>
	<path fill="#342422" d="M374.622,335.343c-2.396-1.436-5.228-0.838-7.608,1.393c-2.783,2.621-2.991,6.512-1.788,10.034
		c0.092,0.279,0.208,0.549,0.314,0.82c5.757,2.877,12.473,4.328,18.396,6.949c-2.34-5.004-3.959-10.021-5.113-12.995
		C378.053,339.548,376.585,337.165,374.622,335.343z"/>
	<path fill="#422E2A" d="M363.411,341.508c0.265-3.664,2.7-6.172,5.969-7.666c0.75-0.34,1.484-0.527,2.194-0.572
		c-1.963-0.891-4.19-1.086-6.577-0.046c-7.126,3.108-9.258,8.223-2.499,12.633c0.489,0.32,0.998,0.625,1.514,0.915
		C363.501,345.167,363.276,343.42,363.411,341.508z"/>
	<path fill="#342422" d="M436.558,352.405c2.7-4.389,3.335-9.583,0.932-14.28c-1.064-2.079-2.723-4.262-5.179-4.739
		c-2.925-0.573-5.44,0.669-7.671,2.451c-3.364,6.172-4.29,16.434-8.196,24.158c7.337-1.599,13.911-3.249,19.268-6.312
		C436.003,353.264,436.291,352.844,436.558,352.405z"/>
	<path fill="#422E2A" d="M439.877,329.03c-5.46-0.21-10.371,0.826-13.518,4.338c3.358-1.71,7.301-2.003,10.143,1.215
		c3.083,3.493,4.624,9.13,3.246,13.656c-0.42,1.387-0.972,2.682-1.633,3.907c3.149-2.234,5.787-5.123,7.787-9.009
		C448.486,338.123,447.306,329.313,439.877,329.03z"/>
	<path d="M398.762,381.795c-0.182,5.898-1.811,13.153-3.249,18.831c-0.489,1.948,1.385,1.228,2.416-0.499
		c2.26-3.786,3.907-9.42,3.43-15.603C401.099,381.142,398.825,379.792,398.762,381.795z"/>
	<path fill="#8F7066" d="M409.9,321.617c8.613-8.991,20.861-7.273,26.797-3.829c5.929,3.449-10.15,0.959-17.229,13.014
		c-7.079,12.057-7.079,19.718-8.993,22.393C407.93,356.754,395.057,337.126,409.9,321.617z"/>
	<path fill="#8F7066" d="M381.959,333.484c3.45,3.822,6.508,15.311,8.034,18.754c1.534,3.444,6.845-4.248,4.214-13.78
		C390.186,323.916,367.794,317.788,381.959,333.484z"/>
	<path fill="#8F7066" d="M455.258,326.211c3.037,2.899,5.361,8.613,3.635,13.587c-1.725,4.977,7.846-4.974,3.447-15.502
		C457.939,313.771,446.46,317.787,455.258,326.211z"/>
	<path fill="#8F7066" d="M337.556,336.546c1.329-3.574,3.064-6.318,7.271-8.229c4.214-1.917-5.741,7.273-2.102,15.31
		c3.636,8.038-0.578,9.185-3.83,6.698C335.643,347.836,335.064,343.247,337.556,336.546z"/>
	<path fill="#8F7066" d="M471.334,386.115c6.468-6.843,20.289-21.626,20.481-11.675c0.192,9.951-7.846,24.497-24.884,30.243
		C449.901,410.421,461.382,396.64,471.334,386.115z"/>
	<path fill="#8F7066" d="M347.514,390.119c9.353-1.454,23.158-1.725,28.512,2.299c5.361,4.021-13.204,5.931-22.197,9.183
		c-8.996,3.255-20.478,5.171-27.369,2.684C319.57,401.794,327.8,393.183,347.514,390.119z"/>
	<path fill="#8F7066" d="M395.933,381.481c0.288,4.201-0.866,13.365-3.735,17.379c-2.869,4.024-3.619-5.818-2.28-11.366
		C391.256,381.94,395.354,373.251,395.933,381.481z"/>
	<path fill="#8F7066" d="M407.028,481.283c8.828-2.989,29.669-9.756,31.196-5.547c1.533,4.209-13.967,15.692-31.576,20.288
		C389.039,500.614,383.294,489.327,407.028,481.283z"/>
	<path fill="#8F7066" d="M304.635,260.373c1.342-7.465,10.289-13.909,20.865-15.884c17.418-3.255,33.113-2.682,42.678-4.594
		c9.568-1.917,18.756-4.212,21.436-6.126c2.68-1.912-18.948,1.533-38.275,0.573c-19.331-0.955-28.546-0.628-38.279,3.827
		C292.581,247.553,302.123,274.372,304.635,260.373z"/>
	<path fill="#8F7066" d="M435.736,214.06c6.468-3.166,23.733-8.808,34.451-4.019c10.718,4.782,15.888,13.012,16.271,18.946
		c0.383,5.927,5.242-26.551-12.44-31.2C447.795,190.902,417.749,222.859,435.736,214.06z"/>
	<path fill="#8F7066" d="M397.013,276.586c1.111,4.632,3.183,13.389,6.861,18.738c3.678,5.356,7.36,10.708,8.702,12.213
		c1.339,1.507-13.888,1.342-17.398-10.371C391.659,285.455,395.18,268.892,397.013,276.586z"/>
	<path fill="#5B453F" d="M441.671,369.884c6.868-1.5,12.238-5.154,19.328-12.671c3.388-3.591,8.375-13.311,8.375-13.311
		s8.805,3.865-3.434,18.039C453.698,376.114,441.671,369.884,441.671,369.884z"/>
	<path fill="#5B453F" d="M335.164,357.429c0,0,4.934,2.362,10.305,3.436c5.371,1.076,12.242,1.289,15.028,0.646
		c2.793-0.646-2.551,5.105-15.458,4.082C326.141,364.085,335.164,357.429,335.164,357.429z"/>
	<path fill="#664D47" d="M402.804,382.554c0.922,4.064-0.43,13.101-3.223,17.183c-2.789,4.075,8.59,0.853,10.523-8.593
		C412.038,381.694,400.652,373.108,402.804,382.554z"/>
	<path fill="#5B453F" d="M386.695,362.586c0,0,7.519,8.8,15.679,8.586c8.157-0.213,11.809-6.443,11.809-6.443
		s0.863,11.384-11.594,11.164C390.132,375.681,386.695,362.586,386.695,362.586z"/>
	<path fill="#664D47" d="M346.109,407.678c9.049-0.95,16.386-3.389,24.695-4.721c6.025-0.969,11.809,0,6.441,0.854
		c-7.912,1.271-27.055,10.312-38.223,10.525c-11.164,0.216-15.458-1.72-16.32-3.223C321.847,409.612,331.366,409.23,346.109,407.678
		z"/>
	<path fill="#664D47" d="M432.434,405.747c7.294,0.354,27.918,4.078,22.55,5.154c-5.368,1.076-18.895,3.865-36.078,0.426
		C401.733,407.895,401.512,404.244,432.434,405.747z"/>
	<path fill="#5B453F" d="M424.062,492.07c7.42-2.707,25.555-7.088,19.54-2.146c-6.012,4.937-22.544,12.885-38.437,15.462
		C389.273,507.963,401.733,500.231,424.062,492.07z"/>
	<path fill="#8F7066" d="M399.734,127.984c13.293,2.555,26.03,9.576,36.765,17.664c11.082,8.349,20.445,18.685,30.892,27.795
		c3.004,2.621,6.048,5.263,9.023,7.985c-3.034-4.746-7.727-11.789-13.547-19.643c-10.54-14.231-36.365-35.319-56.394-39.006
		c-15.408-2.839-28.625,1.809-37.267,6.742C379.038,126.533,389.66,126.045,399.734,127.984z"/>
	<path fill="#8F7066" d="M429.767,155.215c5.681,4.101,11.194,8.431,16.628,12.85c5.387,4.389,11.052,8.894,17.176,12.204
		c4.25,2.305,8.616,3.817,13.177,4.878c-3.629-3.418-7.41-6.688-11.128-9.937c-10.262-8.957-19.43-19.273-30.386-27.405
		c-10.579-7.856-23.052-15.061-36.167-17.414c-10.285-1.834-21.103-1.281-30.985,2.108
		C390.344,131.208,412.174,142.505,429.767,155.215z"/>
	<path fill="#8F7066" d="M421.424,161.565c11.578,6.418,23.347,12.511,35.519,17.596c-8.861-5.833-16.813-13.207-25.283-19.477
		c-17.887-13.25-40.107-25.982-63.076-24.726C387.614,139.953,404.43,152.142,421.424,161.565z"/>
	<path fill="#8F7066" d="M387.674,151.329c9.452,7.02,19.437,12.073,30.555,15.928c7.023,2.439,14.212,4.558,21.377,6.739
		c-6.002-2.968-11.935-6.119-17.804-9.363c-10.199-5.638-20.098-11.838-30.353-17.379c-6.775-3.661-13.809-6.998-21.172-9.224
		C376.186,142.303,381.814,146.979,387.674,151.329z"/>
	<path fill="#8F7066" d="M415.902,169.084c-10.976-3.953-20.855-9.064-30.182-16.105c-6.944-5.248-13.623-10.867-20.871-15.682
		c6.095,8.821,26.543,32.245,76.935,42.407c7.215,1.454,13.071,2.641,17.834,3.612C445.343,177.853,430.259,174.259,415.902,169.084
		z"/>
	<path fill="#8F7066" d="M393.299,169.047c9.667,3.591,19.377,7.078,29.058,10.651c-7.968-3.858-18.019-8.691-27.481-13.17
		c-15.524-7.349-35.473-15.97-43.669-19.478C362.169,158.587,378.397,163.503,393.299,169.047z"/>
	<path fill="#8F7066" d="M425.162,186.494c-12.536-1.396-25.161-3.285-37.353-6.569c-15.891-4.27-35.665-13.701-41.157-30.319
		c-1.051,8.583-0.288,28.066,26.087,35.365c29.388,8.139,56.057,3.869,63.043,2.489
		C432.235,187.205,428.699,186.885,425.162,186.494z"/>
	<path fill="#8F7066" d="M392.089,178.427c11.683,2.77,23.608,4.733,35.611,5.909c-12.942-4.825-25.967-9.439-38.894-14.314
		c-9.39-3.535-19.298-6.749-27.954-11.923c-4.548-2.723-8.586-5.999-12.04-9.853C354.012,165.64,375.947,174.598,392.089,178.427z"
		/>
	<path fill="#8F7066" d="M492.952,325.046c2.773,6.01,5.367,12.113,8.249,18.068c3.04,6.286,6.138,12.658,9.69,18.675
		c3.275,5.561,6.835,10.958,10.15,16.5c2.908,4.855,5.893,9.576,9.039,14.17c-1.061-6.676-4.498-23.991-13.296-38.786
		c-8.901-14.967-22.96-32.191-28.298-38.565C489.915,318.448,491.425,321.751,492.952,325.046z"/>
	<path fill="#8F7066" d="M518.88,379.551c-3.507-5.806-7.406-11.424-10.635-17.391c-3.332-6.161-6.633-12.351-9.634-18.679
		c-4.075-8.596-8.273-17.277-11.971-26.116c0.78,7.987,3.622,24.912,13.904,42.904c10.084,17.649,20.928,27.871,26.377,32.328
		C524.105,388.336,521.534,383.943,518.88,379.551z"/>
	<path fill="#8F7066" d="M516.785,393.381c2.228,4.675,3.566,9.312,4.346,14.182c0.066-3.212-0.149-6.648-0.8-10.25
		c-1.97-11.037-9.145-16.563-12.245-18.477C511.004,383.672,514.349,388.266,516.785,393.381z"/>
	<path fill="#8F7066" d="M513.694,398.291c2.472,7.752,4.69,15.491,4.852,23.693c0.01,0.426,0.01,0.849,0.017,1.273
		c0.37-1.221,0.747-2.568,1.087-4.029c-0.053-1.241-0.119-2.484-0.195-3.721c-0.522-8.038-1.815-15.319-5.652-22.504
		c-1.408-2.631-3.011-5.148-4.617-7.666C510.938,389.537,512.29,393.901,513.694,398.291z"/>
	<path fill="#8F7066" d="M516.044,421.984c-0.278-8.005-2.346-15.448-4.762-23.029c-1.497-4.685-2.931-9.33-4.882-13.774
		c-0.083,5.871,0.063,14.106,1.25,19.743c2.029,9.644,4.567,30.446,4.567,30.446s1.805-1.453,3.589-4.953
		C516.051,427.613,516.14,424.804,516.044,421.984z"/>
	<path fill="#8F7066" d="M494.77,444.268c1.319-4.648,2.575-9.289,4.069-13.891c2.72-8.413,5.222-16.95,4.928-25.642
		c-0.975,2.437-3.956,10.1-7.281,20.488c-3.387,10.596-4.654,24.013-4.977,28.149C492.929,450.48,493.904,447.34,494.77,444.268z"/>
	<path fill="#8F7066" d="M506.046,410.76c-0.694,7.164-2.832,14.222-5.096,21.208c-1.904,5.855-3.123,12.275-5.334,18.181
		c2.393-3.188,5.496-8.339,8.477-16.3C507.541,424.668,507.091,416.304,506.046,410.76z"/>
	<path fill="#664D47" d="M339.265,189.332c5.248,9.872,15.91,15.115,26.599,16.847c15.13,2.451,29.964,0.469,44.42-3.457
		c1.95-1.061,3.732-2.118,5.331-3.125c-12.195,3.746-25.135,4.88-37.591,2.432c-11.958-2.34-24.011-7.967-31.725-17.669
		c-5.235-6.572-7.506-14.484-7.83-22.608C335.315,170.754,334.737,180.818,339.265,189.332z"/>
	<path fill="#664D47" d="M360.982,207.709c-10.5-2.75-20.762-8.92-24.937-19.42c-3.913-9.847-2.839-20.595,1.137-30.175
		c-6.319,7.793-25.234,35.156,7.09,49.524c20.62,9.163,40.186,5.99,54.877,0.278C386.732,210.125,373.211,210.905,360.982,207.709z"
		/>
	<path fill="#664D47" d="M350.452,185.354c8.577,8.796,21.01,13.741,33.103,14.993c13.491,1.396,27.26-0.964,39.832-6.205
		c0.998-0.793,1.53-1.259,1.53-1.259s-41.693,4.675-63.777-8.961c-11.703-7.233-17.559-16.929-20.217-22.79
		C341.212,170.047,343.998,178.734,350.452,185.354z"/>
	<path fill="#664D47" d="M319.266,192.724c-2.317,6.934-4.819,13.911-9.003,19.974c-3.903,5.648-8.566,10.669-13.088,15.81
		c2.462,0.592,5.424-1.78,8.709-4.52c6.818-5.681,15.342-17.895,16.76-28.691c0.681-5.151,1.216-14.344,2.482-19.873
		C322.882,181.142,321.143,187.116,319.266,192.724z"/>
	<path fill="#664D47" d="M309.566,209.165c3.721-6.184,5.979-13.07,8.21-19.898c2.194-6.732,4.369-13.918,7.532-20.488
		c-5.066,6.498-8.907,14.189-12.199,21.62c-3.543,8.01-6.736,16.163-10.639,24.01c-1.834,3.675-3.86,7.274-5.78,10.915
		C301.303,220.184,306.013,215.081,309.566,209.165z"/>
	<path fill="#664D47" d="M295.325,222.866c5.159-9.803,9.611-19.791,13.977-29.95c4.098-9.529,8.838-19.571,15.586-27.551
		c-4.697,1.938-14.479,8.9-24.113,33.906c-5.344,13.868-6.861,22.303-7.202,26.918C294.151,225.085,294.736,223.985,295.325,222.866
		z"/>
	<path fill="#664D47" d="M334.859,204.953c0,0,7.671,5.685,17.612,7.955c10.613,2.426,21.023,2.271,21.023,2.271
		s-11.366,6.818-23.581,2.844C337.702,214.045,334.859,204.953,334.859,204.953z"/>
	<path fill="#664D47" d="M273.505,239.61c0,0-2.855,4.267,1.137,16.761c4.26,13.347,15.62,11.363,15.62,11.363
		s-9.37-9.373-11.928-14.203C275.779,248.702,273.505,239.61,273.505,239.61z"/>
	<path fill="#8F7066" d="M275.491,241.313c0,0,1.421,7.673,5.113,12.787c3.692,5.111,9.092,10.508,9.092,10.508
		s-2.843-8.238-5.966-14.203C280.604,244.438,275.491,241.313,275.491,241.313z"/>
	<path fill="#664D47" d="M276.056,298.979c0,0-3.973,15.34,1.14,27.838c5.113,12.5,10.794,9.373,10.794,9.373
		s-12.5,12.212-15.623-3.976C269.241,316.022,276.056,298.979,276.056,298.979z"/>
	<path fill="#A47E75" d="M289.412,282.506c1.17-3.363,5.113-3.411,3.695,2.271c-1.424,5.681-4.829,23.009-5.966,19.602
		C286.001,300.967,287.141,289.036,289.412,282.506z"/>
	<path fill="#A47E75" d="M489.961,279.094c1.19-3.219,3.123-5.116,4.548-3.695c1.414,1.423,0.281,5.971-1.712,11.933
		C490.81,293.298,487.119,286.765,489.961,279.094z"/>
	<path fill="#5B453F" d="M330.887,331.645c0,0-3.126,6.25-3.695,12.501c-0.569,6.248,2.271,8.805,2.271,8.805
		s-13.917,5.395-20.167,19.886c-7.863,18.221-0.284,33.802-0.284,33.802s-21.02-25.283-8.52-51.985
		C312.987,327.951,330.887,331.645,330.887,331.645z"/>
	<path fill="#664D47" d="M276.406,405.74c-1.328-7.363-3.289-14.413-3.814-21.92c-0.185-2.58-0.268-5.161-0.268-7.734
		c-0.589,4.695-1.081,11.348-0.81,19.758c0.413,13.08,3.404,22.663,4.991,26.875C277.104,417.058,277.395,411.233,276.406,405.74z"
		/>
	<path fill="#664D47" d="M278.049,377.948c-1.104-2.515-2.291-5.291-3.13-7.269c-0.261,5.075-0.149,10.168,0.35,15.219
		c0.744,7.565,3.384,14.832,3.933,22.382c0.248,3.416,0.221,6.818,0.04,10.208c1.408-5.554,3.252-13.512,3.92-19.519
		C284.296,388.742,280.036,382.492,278.049,377.948z"/>
	<path fill="#664D47" d="M289.25,412.254c1.203,3.932,2.337,7.879,3.427,11.842c2.006,7.294,4.151,14.492,6.977,21.519
		c2.565,6.377,5.466,12.619,8.659,18.708c-0.367-6.808-1.603-24.237-4.984-33.257c-3.004-8.005-10.652-16.571-14.919-20.934
		C288.738,410.843,289.028,411.55,289.25,412.254z"/>
	<path fill="#664D47" d="M297.242,446.28c-2.918-7.367-5.133-14.878-7.255-22.504c-1.183-4.263-2.042-9.07-3.9-13.098
		c-0.212-0.459-0.43-0.92-0.651-1.386c0.092,5.096,0.899,18.779,6.534,32.288c4.412,10.583,9.697,17.882,13.068,21.894
		C302.176,457.862,299.558,452.129,297.242,446.28z"/>
	<path fill="#664D47" d="M310.895,420.426c1.92,3.18,3.89,6.349,5.714,9.586c3.427,6.072,6.769,12.518,8.808,19.212
		c2.515,8.223,4.448,16.684,6.147,25.189c0.952-1.234,5.364-7.413,4.25-14.595c-1.249-8.031-5.261-17.867-10.388-25.067
		c-4.012-5.638-11.921-12.628-15.177-15.405C310.468,419.71,310.68,420.072,310.895,420.426z"/>
	<path fill="#664D47" d="M316.523,455.292c-1.477-6.084-2.432-12.275-3.662-18.41c-0.872-4.373-2.234-8.634-3.979-12.738
		c0.152,3.96,0.555,9.181,1.587,13.516c0,0,0.552,9.692,6.372,19.802c0.189,0.335,0.387,0.666,0.582,0.991
		C317.095,457.414,316.788,456.363,316.523,455.292z"/>
	<path fill="#664D47" d="M314.923,434.528c1.325,6.063,2.208,12.224,3.589,18.283c1.18,5.184,3.143,9.952,5.493,14.539
		c1.567,1.793,3.054,3.31,4.27,4.483c-0.162-0.758-0.321-1.517-0.483-2.28c-1.709-7.802-3.09-16.008-6.108-23.439
		c-2.228-5.483-4.948-10.702-7.869-15.821C314.239,431.694,314.609,433.109,314.923,434.528z"/>
	<g>
		<path d="M450.707,264.589c1.163,12.295-7.863,23.21-20.161,24.371c-12.298,1.168-23.201-7.854-24.365-20.158
			c-1.163-12.283,7.863-23.195,20.154-24.365C438.627,243.273,449.53,252.299,450.707,264.589z"/>
		<path fill="#FFFFFF" d="M447.102,264.048c0.948,10.102-6.468,19.064-16.571,20.025c-10.107,0.955-19.077-6.464-20.019-16.565
			c-0.965-10.105,6.455-19.068,16.555-20.027C437.166,246.529,446.14,253.942,447.102,264.048z"/>
	</g>
	<g>
		<path d="M436.942,269.066c0.506,5.359-3.418,10.116-8.781,10.617c-5.348,0.506-10.104-3.421-10.616-8.773
			c-0.499-5.356,3.43-10.11,8.781-10.616C431.683,259.793,436.442,263.71,436.942,269.066z"/>
		<path fill="#FFFFFF" d="M433.548,265.875c0.165,1.679-1.068,3.176-2.75,3.332c-1.696,0.165-3.186-1.076-3.345-2.753
			c-0.159-1.687,1.077-3.184,2.766-3.34C431.895,262.951,433.395,264.189,433.548,265.875z"/>
	</g>
	<g>
		<path d="M382.191,273.793c1.16,12.298-7.859,23.201-20.151,24.36c-12.298,1.17-23.208-7.851-24.371-20.144
			c-1.164-12.299,7.856-23.211,20.151-24.369C370.114,252.469,381.021,261.494,382.191,273.793z"/>
		<path fill="#FFFFFF" d="M378.578,273.238c0.958,10.11-6.455,19.075-16.562,20.027c-10.107,0.957-19.067-6.453-20.022-16.562
			c-0.952-10.095,6.458-19.068,16.558-20.025C368.66,255.728,377.623,263.14,378.578,273.238z"/>
	</g>
	<g>
		<path d="M369.734,277.991c0.509,5.357-3.421,10.12-8.781,10.622c-5.357,0.506-10.12-3.426-10.613-8.785
			c-0.512-5.349,3.414-10.103,8.775-10.616C364.462,268.712,369.222,272.642,369.734,277.991z"/>
		<path fill="#FFFFFF" d="M366.343,274.793c0.159,1.682-1.077,3.176-2.763,3.34c-1.679,0.157-3.189-1.076-3.338-2.762
			c-0.159-1.679,1.078-3.181,2.76-3.331C364.687,271.876,366.181,273.111,366.343,274.793z"/>
	</g>
	<polygon points="325.754,244.773 372.632,232.51 369.07,219.568 	"/>
	<polygon points="407.143,223.772 411.371,212.272 446.087,232.821 	"/>
</g>
</svg>
