<?xml version="1.0" encoding="utf-8"?>
<!-- Generator: Adobe Illustrator 17.0.0, SVG Export Plug-In . SVG Version: 6.00 Build 0)  -->
<!DOCTYPE svg PUBLIC "-//W3C//DTD SVG 1.1//EN" "http://www.w3.org/Graphics/SVG/1.1/DTD/svg11.dtd">
<svg version="1.1" id="Layer_1" xmlns="http://www.w3.org/2000/svg" xmlns:xlink="http://www.w3.org/1999/xlink" x="0px" y="0px"
	 width="800px" height="600px" viewBox="0 0 800 600" enable-background="new 0 0 800 600" xml:space="preserve">
<g>
	<path fill-rule="evenodd" clip-rule="evenodd" d="M441.089,100.16c24.311-4.991,28.006,16.83,25.573,26.972
		c-5.752,23.986-32.175,25.886-43.238,5.639c-6.106-11.17-2.087-25.882,8.548-29.897c-0.707-5.435-3.555-11.723-6.511-15.955
		c-5.534-7.922-8.792-8.792-12.915-8.575c-0.652,2.388-1.737,6.295-1.845,12.699c-0.121,7.15-0.56,15.405-0.977,24.421
		c-0.352,7.597-1.629,15.302-4.557,19.97c2.278,2.387,4.293,5.674,4.618,8.171c0.324,2.496-2.913,14.867-4.589,18.978
		c-1.564,3.832-4.605,9.818-7.299,11.68c-3.864,2.667-10.817-0.384-14.054-1.619c-0.294,1.472-0.637,2.929-0.705,4.709
		c9.711-1.707,9.56,9.076,8.239,12.595c10.326-0.412,41.5,1.895,54.269,27.213c11.798-4.979,47.719-35.091,64.522-65.794
		c-0.758-1.091-2.928-2.718-2.96-4.83c-0.048-3.009,8.077-13.84,10.151-15.007c2.401-1.35,6,1.05,8.39,2.232
		c1.839-9.216-0.901-16.974-4.639-23.079c-3.451-5.398-8.998-7.348-12.45-8.698c-5.631-2.204,1.201-15.448,10.8-13.198
		c9.598,2.25,11.528,7.735,12.518,11.789c0.858,3.51-0.372,8.308,1.577,9.358c1.951,1.05,3.751-1.2,8.401,0.3
		c4.348-4.949,7.347-15.447,7.947-21.597c-2.249-15.746,10.311-18.226,18.147-17.996c8.905,0.262,15.811,4.138,20.096,8.698
		c4.65,4.95,5.972,10.352,5.134,16.828c-1.281,9.931-6.714,18.151-12.276,25.38c-7.498,9.748-16.165,13.721-23.254,16.531
		c-8.678,3.441-14.579,5.112-21.265,6.517c1.286,1.894,2.85,5.239,2.401,7.339c-0.451,2.1-13.494,14.585-14.544,14.885
		c-1.05,0.301-4.337-1.819-5.985-2.853c-4.052,8.383-31.2,53.203-61.59,72.011c23.883,14.673,40.161,34.314,49.223,48.583
		c11.463,18.051,19.594,35.123,25.279,55.612c4.389,15.816,5.474,28.123,5.236,43.876c-0.233,15.485-1.264,30.515-2.347,43.153
		c4.378-0.832,9.423,0.643,11.195,5.597c2.718,7.6,1.454,32.954-1.219,37.769c-1.392,2.503-3.282,4.667-5.208,5.951
		c1.811,1.501,8.377,5.528,10.502,5.3c1.433-0.153,5.303-6.216,6.616-9.796c-1.176-1.284-3.745-4.28-3.853-5.884
		c-0.106-1.605,2.569-8.239,5.458-13.052c2.889-4.815,13.051-25.57,15.083-29.528c2.033-3.958,2.999-5.948,6.632-6.204
		c5.944-0.42,13.161,0.986,17.837,3.223c6.837,3.271,12.427,9.011,21.185,22.894c7.88,12.488,11.39,25.249,13.081,42.146
		c0.998,9.98,0.778,24.031-2.824,30.848c-2.081,3.939-7.137,6.987-10.48,2.528c-1.472-1.964-2.431-8.761-2.826-11.299
		c-1.385-8.963-3.325-13.291-6.243-20.218c-4.151-9.852-7.26-18.582-13.453-26.536c-2.798-3.594-6.521-7.414-7.805-6.987
		c-1.285,0.427-3.418,6.778-4.46,11.224c-1.042,4.446-3.903,18.531-7.433,19.921c-1.1,0.433-7.12-3.176-9.367-4.46
		c-3.522,11.107-10.493,25.012-23.117,18.807c-4.311-2.119-15.61-8.028-20.899-12.76c-11.874,5.991-37.663,12.276-52.32,14.629
		c-13.153,2.112-19.095,3.721-36.451,4.96c-6.273,0.448-20.186,0.477-26.036,0.249c-5.611-0.22-13.425-1.762-19.095-2.977
		c-12.896-2.76-22.209-2.668-34.469-3.471c-3.498-0.23-14.264-3.206-19.186-5.345c-1.604,7.809-7.853,17.26-11.556,21.125
		c2.247,1.819,3.691,4.988,3.972,7.041c0.499,3.634-3.567,6.355-5.778,8.667c-5.132,5.365-9.704,8.846-15.348,13.724
		c-6.113,5.282-9.747,14.103-15.889,19.139c-1.906,1.562-7.383,5.778-8.665,5.778c-1.286,0-8.93-8.862-15.35-15.709
		c-5.359-5.718-11.295-14.009-16.068-19.862c-5.154-6.318-11.679-13.17-16.251-20.222c-5.588-8.621-10.916-19.213-11.917-30.696
		c-0.367-4.21,0.181-10.472,3.792-11.736c3.09-1.082,8.196,4.093,10.326,5.787c2.999,2.386,5.659,5.843,7.6,8.271
		c4.253,5.316,8.853,10.135,13.587,14.87c7.211,7.211,13.687,13.279,22.786,19.042c3.209,2.034,8.131,5.671,8.998,6.272
		c4.374-7.77,13.896-21.571,15.715-22.32c1.82-0.748,5.513,2.172,6.954,3.424c4.445-4.675,6.716-10.86,7.924-17.472
		c-18.16-5.859-40.081-21.259-46.224-30.875c-26.068-1.158-56.099-18.493-62.473-25.098c35.223-3.128,55.066-30.234,62.292-56.876
		c4.173-15.389,6.886-33.403,6.32-52.543c-2.317,7.183-6.995,13.483-10.473,16.612c0.888-7.597,0.024-20.906-2.346-28.709
		c-1.819-5.985-4.637-12.046-7.764-20.042c-4.784-12.222-7.621-22.322-6.139-38.098c1.336-14.235,5.286-28.064,11.014-38.64
		c-10.489-7.471-24.195-15.943-34.848-26.181c-0.817,0.738-2.787,1.135-4.334,1.084c-2.53-0.085-11.576-2.92-15.167-5.237
		c-3.591-2.317-3.41-4.287-3.25-7.944c-5.938,1.993-14.305,1.188-21.667-1.806c-10.651-4.333-17.019-15.884-19.679-22.028
		c-1.413-3.26-4.624-9.866-4.335-22.208c0.372-15.813,7.947-29.973,22.931-31.057c6.623-0.478,12.703,5.743,14.873,10.807
		c1.847,4.304,3.946,12.157,0.607,19.273c-0.711,5.623,2.686,9.862,5.099,12.861c0.056-10.163,2.126-20.844,9.877-24.188
		c5.458-2.355,11.94-0.087,12.93,5.141c1.18,6.225-5.132,7.712-7.947,11.063c-5.244,6.245-2.47,16.212,2.055,21.886
		c7.416-3.707,8.924,1.275,11.355,4.983c2.435,3.707,4.877,6.641,4.509,9.588c-0.22,1.766-1.813,2.844-2.96,3.583
		c5.056,7.8,22.319,19.154,39.26,26.485c18.659-22.01,37.475-27.145,55.155-24.211c0.923-4.904,3.509-10.46,10.128-7.963
		c0.218-0.977,0.503-3.272,0.542-5.101c-7.053,0.109-14.155-2.462-15.845-6.729c-1.143-2.885-0.923-8.923-0.436-12.861
		c0.979-7.868-0.259-18.353,4.127-22.737c3.073-3.075,9.875-3.908,14.65-4.667c3.801-7.815,10.095-18.017,19.24-20.895
		c2.578-7.216,6.375-12.642,9.739-16.549c3.365-3.907,8.66-7.707,14.253-11.65c3.178-2.24,6.188-3.828,9.659-5.92
		c4.274-2.574,7.77-5.81,14.4-6.198c12.159-0.713,18.38,7.021,22.356,14.76C435.36,78.82,439.896,90.61,441.089,100.16z"/>
	<path fill-rule="evenodd" clip-rule="evenodd" fill="#C0001F" d="M424.167,65.052c-3.293-3.674-9.6-7.216-16.515-6.389
		c-5.4,0.647-8.844,4.032-12.931,6.233c-13.572,7.304-25.055,16.779-30.688,31.356c6.186-0.651,12.732-0.725,16.822,0.218
		c-6.619,1.084-17.196,0.972-22.903,4.259c-4.663,2.687-10.962,10.886-12.911,16.145c24.627-3.409,45.256,6.729,57.782,16.418
		c7.697-14.172,2.368-40.624,7.479-56.867c0.914-2.912,3.451-6.558,6.586-6.546c-1.085,1.41-3.477,3.501-3.315,5.921
		c7.239-0.198,10.994,5.135,14.022,10.127c3.26,5.37,5.372,10.932,7.169,16.515c1.277-0.177,3.163-0.522,3.831-1.307
		C438.081,93.298,432.19,74.004,424.167,65.052z"/>
	<path fill-rule="evenodd" clip-rule="evenodd" fill="#713221" d="M557.064,135.006c9.035-3.539,17.457-9.768,23.058-17.293
		c8.025-10.781,10.575-18.28,10.439-27.421c-0.061-4.102-3.751-9.164-6.388-11.375c-3.665-3.07-9.224-5.129-15.823-5.729
		c-9.795-0.891-17.924,5.056-16.427,14.611c0.739,4.716,6.979,13.434,13.129,18.534c-3.3,1.649-12.148-7.948-13.909-13.549
		c-0.639,8.299-6.184,16.452-6.854,18.539c5.316,1.757,10.132,7.095,9.665,12.106c-3.301-5.699-8.317-10.744-15.43-11.014
		c-2.172-0.084-5.173,0.722-6.701-0.312c-2.809-1.903-1.225-6.722-1.869-10.751c-0.776-4.863-4.566-8.574-10.195-10.167
		c-7.948-2.25-14.188,7.68-8.969,9.389c5.22,1.709,9.529,4.715,11.841,8.413c5.378,8.592,6.876,15.792,5.611,26.019
		c2.031,1.832,4.388,4.464,5.919,6.387C540.961,141.261,555.525,135.608,557.064,135.006z"/>
	<path fill-rule="evenodd" clip-rule="evenodd" fill="#FFFFFF" d="M426.346,112.415c-5.96,10.445,1.824,24.773,10.62,28.553
		c12.371,5.318,24.635-3.581,26.304-15.466c1.692-12.033-3.965-23.368-15.422-22.903
		C437.487,103.021,430.194,105.672,426.346,112.415z"/>
	<path fill-rule="evenodd" clip-rule="evenodd" fill="#713221" d="M188.285,140.615c1.309-3.904,3.82-7.434,6.139-10.099
		c2.316-2.664,3.632-3.573,3.986-7.039c0.728-7.088-2.338-14.615-6.387-17.918c-9.134-7.451-19.756,0.942-23.525,8.102
		c-3.016,5.729-5.182,13.846-4.518,21.812c0.415,4.997,1.567,11.355,3.116,15.113c3.293,7.989,9.454,16.643,15.741,20.365
		c6.846,4.055,16.316,5.697,25.026,2.781c1.854-5.098,5.845-10.915,10.648-14.267c-3.779-6.769-7.202-20.493,0-26.641
		c2.202-1.88,5.342-2.656,6.076-6.543c0.506-2.682-1.258-4.791-2.492-5.453c-5.171-2.779-11.102,2.274-13.419,7.718
		c-2.316,5.445-2.664,12.745-2.472,16.742c-7.954,2.375-10.852,7.589-13.088,13.243c-1.47-3.917,1.426-10.057,8.57-13.711
		c-2.626-3.994-4.596-9.323-4.52-12.62c-6.107,2.41-8.881,12.566-9.503,17.917C186.776,148.706,186.776,145.115,188.285,140.615z"/>
	<path fill-rule="evenodd" clip-rule="evenodd" fill="#FFFFFF" d="M395.187,171.774c2.453-0.527,4.333-4.431,5.854-7.905
		c2.248-5.142,5.923-13.481,5.208-21.385c-0.652-7.159-26.807-23.113-50.012-23.526c-7.928-0.141-15.219,0.854-21.969,2.337
		c-1.296,0.285-2.883,0.822-3.74,1.246c-5.331,2.649-4.691,12.301-5.296,19.787c-0.339,4.166-1.431,11.397,0.311,14.8
		c1.932,3.774,8.153,4.766,13.959,4.786c0.216-1.302,0.387-3.812,0.216-4.993c-1.953-0.108-7.656-0.663-7.319-3.377
		c0.374-3.027,9.467-3.589,11.684-3.74c6.863-0.465,11.489,1.285,16.256,3.426c5.318,2.387,11.554,3.895,16.15,5.611
		c2.373,0.884,14.564,6.762,13.587,9.041c-0.616,1.439-4.125-1.089-5.642-1.737c-0.11,0.759-0.478,1.718-0.465,2.667
		C386.01,170.143,391.405,172.589,395.187,171.774z"/>
	<path fill-rule="evenodd" clip-rule="evenodd" fill="#FFFFFF" d="M518.708,133.477c-1.562-0.114-9.285,10.911-9.493,12.711
		c-0.071,0.623,1.176,2.334,2.042,2.684c1.154-1.597,2.69-3.829,3.272-4.362c0.581-0.534,7.55,5.627,7.846,6.804
		c-0.624,2.355-1.716,5.56-3.016,8.465c0.156,0.715,3.574,3.364,4.674,3.115c1.424-0.321,11.807-10.611,11.997-12.93
		C536.221,147.602,526.808,134.077,518.708,133.477z"/>
	<path fill-rule="evenodd" clip-rule="evenodd" fill="#C0001F" d="M488.866,184.618c-11.871,13.302-25.698,25.889-41.157,35.472
		c1.355,2.776,4.776,10.31,5.862,13.132c30.945-20.109,60.464-64.021,66.382-81.215c-0.518-1.253-3.643-4.282-4.799-4.693
		C511.661,153.424,504.36,167.254,488.866,184.618z"/>
	<path fill-rule="evenodd" clip-rule="evenodd" fill="#EBC6A1" d="M382.591,164.846c-1.411-1.954-7.595-4.907-15.521-7.164
		c-6.435-1.832-10.435-4.141-15.506-5.384c-2.835-0.694-6.912-0.895-9.348,0.391c-1.106,8.096-1.59,21.143-3.585,28.278
		c2.066,1.027,4.996,2.33,6.856,3.115c4.328-4.911,11.636-9.86,12.033-7.081c0.108,0.759-1.645,0.7-3.799,2.279
		c-3.254,2.388-6.186,5.535-9.116,9.333c-2.887,3.743-7.658,9.941-7.375,14.787c0.646,11.043,28.387,17.756,36.148,10.595
		c5.856-5.406,0.73-20.966-2.725-26.467c-3.997-6.365-8.431-8.297-7.87-9.054c0.925-1.257,2.552,0.047,4.397,1.782
		c1.845,1.737,6.074,7.093,8.068,11.616c1.591-0.111,3.22-0.22,4.413-0.762C378.926,181.7,381.154,170.638,382.591,164.846z"/>
	<path fill-rule="evenodd" clip-rule="evenodd" fill="#FFFFFF" d="M224.586,182.057c-0.862-3.922,2.407-11.492,4.518-11.529
		c1.482-0.025,1.973,2.602,3.585,2.492c0.536-0.037,1.975-1.385,2.025-2.492c0.108-2.467-2.249-4.727-3.429-6.7
		c-1.232-2.056-2.695-5.328-4.829-5.452c-2.414-0.14-6.122,2.348-7.701,3.771c-1.409,1.268-4.125,4.308-5.387,6.356
		c-1.798,2.913-2.971,6.521-3.116,8.881c-0.298,4.872,3.12,6.506,7.167,7.634c3.42,0.953,6.914,2.686,10.283,1.403
		C226.749,185.32,225.072,184.268,224.586,182.057z"/>
	<path fill-rule="evenodd" clip-rule="evenodd" fill="#EBC6A1" d="M338.091,171.574c0,0-1.735-1.627-4.289-0.267
		c-1.893,1.009-2.869,4.24-3.09,6.671c1.955,0.435,3.944,1,5.752,1.737C337.502,177.444,338.091,171.574,338.091,171.574z"/>
	<path fill-rule="evenodd" clip-rule="evenodd" fill="#C0001F" d="M246.449,189.571c-6.509-4.43-16.308-14.991-16.772-15.917
		c-0.464-0.927-3.835,6.049-2.288,8.404c5.067,7.701,21.751,18.591,38.951,30.069c1.454-2.788,3.624-6.019,4.83-7.789
		C263.066,199.376,254.304,194.918,246.449,189.571z"/>
	<path fill-rule="evenodd" clip-rule="evenodd" fill="#FFFCED" d="M292.047,188.134c-21.124,13.674-34.448,42.639-35.99,73.849
		c-0.51,10.336,5.532,26.549,11.273,40.044c4.635,10.892,5.795,21.318,5.396,29.444c5.112-8.474,8.33-18.114,10.247-29.56
		c1.266-7.577,2.712-19.027,3.36-27.111c0.694-8.689,0.542-14.895,2.897-21.435c1.811-5.032,6.521-9.945,10.659-12.281
		c13.099-7.398,24.787,0.027,35.338-0.464c9.963-0.464,16.221-4.519,22.099-9.33c-0.086,2.841-4.142,5.738-7.79,7.946
		c10.478,4.514,35.934,7.72,43.782,7.479c15.21-0.468,23.46-1.337,31.003-5.764c0.987-0.58,2.2-2.45,2.025-3.895
		c-0.344-2.845-3.164-4.592-5.141-5.298c6.318-4.83,9.324,5.966,10.659,10.039c1.368,4.18,3.909,10.258,4.449,18.885
		c1.085,17.366-3.04,31.691-6.537,32.462c4.979-14.127,6.308-35.954-0.467-49.078c-2.221,19.543-11.662,47.655-19.944,53.907
		c-7.535,5.689-15.947-1.652-19.629-6.232c-10.402-12.934-15.72-28.129-15.936-34.641c-2.28-0.652-5.21-1.786-8.466-3.907
		c-0.434-1.628-0.326-4.884-0.214-6.322c-4.574-1.175-13.57-3.663-18.654-5.787c-4.633,2.202-11.818,2.896-20.508,1.506
		s-17.148-4.518-26.416,1.622c-6.427,4.258-9.333,12.988-9.964,20.391c-0.927,10.891-2.152,40.69-7.414,53.413
		c2.251,14.968-1.087,40.432-3.941,54.108c-3.358,16.105-8.689,29.892-20.739,43.101c-7.427,8.14-15.755,15.989-36.032,20.856
		c8.574,6.024,36.619,18.868,60.159,19.56c9.393,0.278,18.855-1.359,27.576-2.96c8.803-1.616,17.222-3.241,24.929-5.765
		c7.792-2.55,14.901-5.713,21.811-8.724c7.033-3.065,24.951-13.349,36.457-24.773c16.519-16.399,29.495-48.027,33.681-61.685
		c-3.823-11.817-4.75-29.428,3.088-40.675c-6.1,19.473-1.344,37.103,2.336,45.182c1.526-4.469,3.433-8.828,6.454-12.967
		c1.681-2.304,4.808-4.982,7.695-9.476c4.804-7.473,7.316-14.885,9.093-22.68c2.963-12.995,3.822-23.852,3.723-33.289
		c-0.216-21.164-7.466-45.556-16.37-60.405c-2.036-3.394-6.543-10.709-16.774-16.603c-7.574-4.364-19.121-8.293-31.524-8.325
		c-7.416-0.018-12.137,1.414-17.762,1.871c1.899,5.752,3.796,15.359,0.272,20.839c-1.902,2.958-6.225,4.946-10.421,5.208
		c-6.403,0.403-16.943-1.599-21.163-3.798c-4.75-2.479-8.252-4.925-9.352-8.071c-3.079-8.809,3.71-16.456,8.258-22.28
		C322.48,172.842,299.307,183.435,292.047,188.134z"/>
	<path fill-rule="evenodd" clip-rule="evenodd" fill="#EBC6A1" d="M381.943,180.5c-0.439,3.231-0.439,7.571-0.004,10.393
		c2.062-0.326,4.238-0.611,5.86-0.868C390.31,186.081,388.851,177.33,381.943,180.5z"/>
	<path fill-rule="evenodd" clip-rule="evenodd" fill="#C0001F" d="M422.296,472.935c9.216-0.068,17.794-0.445,26.018-1.773
		c8.229-1.329,16.062-3.003,23.527-4.771c6.962-1.648,18.088-4.751,30.712-9.137c12.625-4.387,23.857-11.019,25.999-13.297
		c1.601-6.066,4.343-52.088,3.863-67.737c-1.091-35.399-16.372-66.686-25.363-81.519c-4.836-7.979-11.232-19.112-23.51-31.631
		c-12.276-12.519-22.648-20.627-28.166-23.111c3.518,9.912,5.903,22.485,6.018,37.315c0.115,14.83-2.228,28.001-4.134,35.72
		c-4.069,16.475-8.572,22.901-15.091,29.588c-4.352,4.466-8.192,14.005-10.312,20.044c-0.927-1.158-2.208-2.451-3.686-5.484
		c-6.863,22.496-19.489,46.428-36.112,61.571c-4.635,11.122-8.743,34.754-8.401,52.354
		C393.864,473.242,409.286,473.033,422.296,472.935z"/>
	<path fill-rule="evenodd" clip-rule="evenodd" fill="#FBFCFD" d="M417.972,247.765c-0.544,4.45-1.629,9.117-2.714,13.242
		c3.31,0.539,6.394-0.051,8.574-0.868c1.402-3.415,2.822-11.721,3.04-17.69C425.676,244.076,421.203,246.967,417.972,247.765z"/>
	<path fill-rule="evenodd" clip-rule="evenodd" fill="#FBFCFD" d="M402.235,249.828c-0.326,3.581-0.748,5.995-1.846,10.094
		c3.161,1.229,8.773,1.51,12.699,1.085c1.303-4.775,1.953-8.357,2.496-12.698C411.133,249.285,406.792,249.393,402.235,249.828z"/>
	<path fill-rule="evenodd" clip-rule="evenodd" fill="#FBFCFD" d="M367.178,247.115c-0.218,0.976-0.436,2.93-0.218,4.233
		c3.12,2.207,10.636,4.124,14.979,4.558c0.108-2.17,0.652-4.667,0.975-6.294C381.548,249.516,369.24,247.874,367.178,247.115z"/>
	<path fill-rule="evenodd" clip-rule="evenodd" fill="#FBFCFD" d="M384.653,249.719c-0.328,1.846-0.763,4.912-0.544,6.729
		c4.136,1.58,9.804,2.941,14.108,3.257c1.014-2.92,1.737-6.295,1.737-9.877C394.962,250.154,389.318,250.154,384.653,249.719z"/>
	<path fill-rule="evenodd" clip-rule="evenodd" fill="#FBFCFD" d="M387.473,283.907c2.213,4.539,4.89,7.677,8.792,10.528
		c-0.123-2.702,0.164-5.679,0.542-8.14C393.843,284.894,390.597,284.631,387.473,283.907z"/>
	<path fill-rule="evenodd" clip-rule="evenodd" fill="#FBFCFD" d="M398.436,295.737c2.079,1.495,4.775,2.713,8.792,0.868
		c2.865-1.317,4.944-6.342,5.86-8.357c-4.233-1.411-10.852-1.954-14.108-1.629C398.543,289.443,398.11,294,398.436,295.737z"/>
	<path fill-rule="evenodd" clip-rule="evenodd" fill="#C0001F" d="M386.463,422.684c-16.422,15.466-45.321,28.348-76.558,33.223
		c16.161,6.893,39.431,11.607,68.794,14.264C378.764,456.16,382.092,431.546,386.463,422.684z"/>
	<path fill-rule="evenodd" clip-rule="evenodd" fill="#713221" d="M583.326,454.688c0.523-1.066,2.305-4.362,3.494-4.499
		c2.636-0.302,7.504,4.925,9.038,6.544c5.258,5.547,8.673,12.602,11.841,19.63c4.117,9.128,8.615,18.373,10.439,29.447
		c0.92,5.577,1.035,10.944,3.116,11.684c2.083,0.74,3.974-1.039,4.831-2.492c3.235-5.488,3.178-17.14,2.803-25.396
		c-0.873-19.219-5.817-33.584-13.866-46.117c-4.343-6.762-12.031-16.494-19.073-20.041c-4.248-2.14-14.655-3.958-17.386-3.017
		c-2.189,0.755-5.59,7.771-6.541,9.815c-3.667,7.871-6.999,14.84-10.908,21.812c-1.835,3.276-5.085,9.633-5.817,12.792
		c-1.063,4.576,18.307,17.098,19.374,16.186C578.082,478.117,579.437,462.611,583.326,454.688z"/>
	<path fill-rule="evenodd" clip-rule="evenodd" fill="#FFFFFF" d="M292.868,470.737c7.275,5.028,19.257,12.195,31.239,15.941
		c11.982,3.744,20.433,6.74,27.066,8.237c6.634,1.497,17.652,1.177,28.136,2.675c10.484,1.497,18.723,3.85,27.174,4.493
		c8.453,0.641,16.5-0.323,26.096-0.323c13.382-0.001,43.867-5.741,58.422-9.415c10.59-2.675,19.795-5.786,27.89-9.126
		c8.483-3.498,18.11-9.062,21.656-14.956c2.074-3.445,3.544-19.503,2.962-26.642c-0.285-3.472-0.426-8.452-2.492-9.815
		c-3.265-2.153-7.653-0.119-7.653-0.119s-0.106,3.743-0.534,5.348c1.445-0.137,6.318-2.956,6.525-0.213
		c0.43,5.67-15.94,14.977-30.061,20.968c-4.957,2.103-21.12,7.336-25.675,8.665c-16.018,4.675-55.286,14.773-100.564,8.142
		c-5.193-0.547-11.135-1.261-18.166-2.137c-31.63-3.939-53.876-12.743-61.175-15.873c-8.11,1.623-19.977,2.155-24.214,1.97
		C280.724,460.619,285.594,465.708,292.868,470.737z"/>
	<path fill-rule="evenodd" clip-rule="evenodd" fill="#A7041E" d="M550.052,484.465c-2.742,0.45-10.38-3.046-13.803-5.612
		c-2.978,2.259-6.547,4.225-10.184,5.723c0.035,0.588,12.541,9.375,17.911,11.418c4.371,1.661,7.329,1.477,10.141-1.295
		c3.673-3.618,7.489-11.553,9.093-16.262c-1.497-1.07-4.064-3.102-5.348-4.172C555.809,478.124,553.849,483.84,550.052,484.465z"/>
	<path fill-rule="evenodd" clip-rule="evenodd" fill="#713221" d="M262.757,509.238c-4.093-4.093-8.12-8.117-11.997-12.153
		c-4.051-4.218-7.498-8.38-11.063-13.086c-2.571-3.4-10.056-9.304-12.463-8.727c-2.943,0.706-1.873,9.91-1.091,13.088
		c2.535,10.299,6.612,17.459,9.972,22.435c6.685,9.902,17.49,21.028,22.304,28.088c4.814,7.062,23.253,25.284,24.713,25.249
		c1.001-0.025,8.343-5.136,12.731-13.054c2.031-3.665,8.176-10.328,11.982-13.265c4.881-3.768,15.997-13.831,15.834-16.155
		c-0.182-2.59-16.375-15.002-18.233-14.447c-2.521,0.753-13.22,18.512-15.268,22.902
		C281.323,523.072,270.934,517.417,262.757,509.238z"/>
	<path fill-rule="evenodd" clip-rule="evenodd" fill="#A7041E" d="M314.158,508.821c1.819,1.177,4.706,3.21,5.99,4.494
		c4.968-4.186,9.825-14.15,11.347-20.96c-2.355-0.749-5.636-1.91-8.03-2.79C322.449,493.463,318.579,503.503,314.158,508.821z"/>
	<path fill-rule="evenodd" clip-rule="evenodd" d="M352.655,174.14c-3.365-0.251-6.1-3.196-5.342-6.982
		c0.757-3.786,3.701-5.932,6.772-6.268c4.183-0.458,6.898,3.112,6.268,7.319C359.721,172.415,356.02,174.393,352.655,174.14z"/>
	<path fill-rule="evenodd" clip-rule="evenodd" fill="#FFFFFF" d="M358.165,170.102c1.307-2.017,1.262-5.006-0.631-6.857
		c-2.02-1.976-5.931-0.883-7.697,1.641c-1.767,2.524-1.348,5.804,1.725,7.276C353.269,172.983,356.694,172.373,358.165,170.102z"/>
	<path fill-rule="evenodd" clip-rule="evenodd" d="M374.622,173.333c-3.963,5.531-12.166,3.71-12.464-2.96
		c-0.195-4.389,3.496-8.81,9.038-7.947C376.437,163.244,377.39,169.471,374.622,173.333z"/>
	<path fill-rule="evenodd" clip-rule="evenodd" fill="#FFFFFF" d="M364.183,172.397c1.554,2.963,5.43,2.904,7.401,1.658
		c1.632-1.029,3.239-3.029,2.902-5.847c-0.337-2.818-2.355-4.669-5.677-4.332C365.484,164.212,362.237,168.687,364.183,172.397z"/>
	<path fill-rule="evenodd" clip-rule="evenodd" d="M354.211,164.549c4.052-0.566,3.611,5.396,0.294,5.636
		C350.715,170.461,350.592,165.054,354.211,164.549z"/>
	<path fill-rule="evenodd" clip-rule="evenodd" fill="#FFFFFF" d="M354.903,166.019c-0.722-0.843-2.228,0.209-1.389,1.177
		C354.356,168.164,355.661,166.902,354.903,166.019z"/>
	<path fill-rule="evenodd" clip-rule="evenodd" d="M369.691,166.443c3.997,0.631,2.692,6.94-1.303,6.351
		C364.391,172.206,365.696,165.81,369.691,166.443z"/>
	<path fill-rule="evenodd" clip-rule="evenodd" fill="#FFFFFF" d="M368.196,169.804c1.221,0.337,1.599-1.683,0.38-1.85
		C367.355,167.785,366.977,169.468,368.196,169.804z"/>
	<path fill-rule="evenodd" clip-rule="evenodd" fill="#894D37" d="M173.93,111.852c2.169-3.357,7.541-7.271,12.12-5.655
		c4.577,1.615,5.923,6.059,4.711,11.984c-1.212,5.924-9.696,19.121-15.485,21.411C169.486,141.88,162.886,128.954,173.93,111.852z"
		/>
	<path fill-rule="evenodd" clip-rule="evenodd" fill="#894D37" d="M210.826,127.473c1.701-3.122,5.251-6.194,8.079-5.521
		c2.828,0.673,0.404,4.982-3.499,7.81C211.498,132.589,208.402,131.916,210.826,127.473z"/>
	<path fill-rule="evenodd" clip-rule="evenodd" fill="#894D37" d="M198.032,153.462c2.143-3.461,6.463-5.117,9.966-4.444
		c3.5,0.674-2.403,13.767-5.387,15.89C196.55,169.217,192.781,161.945,198.032,153.462z"/>
	<path fill-rule="evenodd" clip-rule="evenodd" fill="#59271E" d="M175.41,159.79c1.409,3.787,4.959,7.378,9.023,9.965
		c4.445,2.828,9.291,3.366,12.118,3.5c2.829,0.136-3.77-8.618-6.597-11.041C187.126,159.79,173.254,154,175.41,159.79z"/>
	<path fill-rule="evenodd" clip-rule="evenodd" fill="#59271E" d="M192.377,155.616c0,0-0.134-3.501,4.309-7.676
		c2.569-2.413,4.173-3.232,4.173-3.232l-2.288-4.443c0,0-3.231,1.213-5.117,5.521C191.569,150.095,192.377,155.616,192.377,155.616z
		"/>
	<path fill-rule="evenodd" clip-rule="evenodd" fill="#894D37" d="M517.845,91.922c2.427,0,7.012,1.881,9.56,5.656
		c2.548,3.774-4.173,2.694-7.405,1.481C516.767,97.847,510.572,91.922,517.845,91.922z"/>
	<path fill-rule="evenodd" clip-rule="evenodd" fill="#894D37" d="M535.484,114.142c4.023-0.473,9.156,0.539,12.794,4.847
		c3.635,4.309,4.309,8.08,2.828,9.427c-1.48,1.346-10.772,1.616-15.082-2.424C531.715,121.951,528.617,114.95,535.484,114.142z"/>
	<path fill-rule="evenodd" clip-rule="evenodd" fill="#894D37" d="M556.491,79.669c1.748-2.732,7.003-4.848,15.485-2.829
		c8.485,2.02,14.948,7.541,15.082,13.062c0.136,5.521-13.332,5.656-21.948,1.886C556.491,88.017,554.339,83.036,556.491,79.669z"/>
	<path fill-rule="evenodd" clip-rule="evenodd" fill="#894D37" d="M571.17,116.566c3.045-3.171,15.352-12.927,12.524-6.867
		c-2.828,6.06-10.37,14.678-17.909,19.121C558.242,133.264,564.707,123.298,571.17,116.566z"/>
	<path fill-rule="evenodd" clip-rule="evenodd" fill="#59271E" d="M551.377,94.483c0,0,1.48,4.713,5.117,7.811
		c3.635,3.097,5.521,4.577,7.407,4.712c1.884,0.135-6.195,3.501-10.368,0.404c-4.175-3.097-4.311-5.116-4.311-5.116
		s0.944-1.752,1.482-3.771C551.241,96.503,551.377,94.483,551.377,94.483z"/>
	<path fill-rule="evenodd" clip-rule="evenodd" fill="#59271E" d="M543.298,133.265c2.766-0.886,15.89-0.539,12.388,1.347
		c-3.501,1.885-12.794,4.712-16.833,5.655C534.814,141.209,539.931,134.341,543.298,133.265z"/>
	<path fill-rule="evenodd" clip-rule="evenodd" fill="#59271E" d="M292.598,531.748c1.737,0.935,5.469,4.922,6.199,7.656
		c0.728,2.735,5.102-1.822,2.552-5.104C298.797,531.021,287.859,529.195,292.598,531.748z"/>
	<path fill-rule="evenodd" clip-rule="evenodd" fill="#59271E" d="M293.875,529.562c3.099,0.54,8.019,2.186,9.296,4.922
		c1.277,2.735,3.098,3.463,4.192,1.458c1.095-2.006-2.005-4.74-6.561-6.927C296.895,527.14,289.681,528.832,293.875,529.562z"/>
	<path fill-rule="evenodd" clip-rule="evenodd" fill="#59271E" d="M252.497,529.016c3.924,4.511,9.478,12.577,11.848,15.311
		c2.37,2.734-2.55-12.759-5.467-17.499c-2.919-4.739-24.061-19.323-18.229-11.667C246.482,522.817,248.852,524.823,252.497,529.016z
		"/>
	<path fill-rule="evenodd" clip-rule="evenodd" fill="#59271E" d="M619.976,455.557c2.154,4.575,5.651,18.228,7.293,30.259
		c1.64,12.031,0.545,18.412-0.184,20.234c-0.728,1.822-4.375-13.673-6.562-26.978C618.336,465.765,617.059,449.359,619.976,455.557z
		"/>
	<path fill-rule="evenodd" clip-rule="evenodd" fill="#59271E" d="M584.979,449.359c-1.62-0.324-6.379-1.639-9.661-3.462
		c-3.282-1.823-7.291-1.094-3.282,2.005C576.045,451,587.713,449.905,584.979,449.359z"/>
	<path fill-rule="evenodd" clip-rule="evenodd" fill="#59271E" d="M582.609,451c-2.003,0.211-8.386,0.182-11.118-1.457
		c-2.735-1.641-2.552,3.098,1.822,3.827C577.687,454.099,586.071,450.636,582.609,451z"/>
	<path fill-rule="evenodd" clip-rule="evenodd" fill="#59271E" d="M559.458,468.135c1.938,1.721,8.386,7.29,13.308,9.479
		c3.352,1.489-1.457-6.745-3.097-7.839C568.026,468.681,554.538,463.761,559.458,468.135z"/>
	<path fill-rule="evenodd" clip-rule="evenodd" fill="#894D37" d="M589.72,423.111c2.835,1.002,6.197,2.007,8.931,4.011
		c4.708,3.45,9.661,9.295,12.943,13.671c3.28,4.375-8.386-2.917-13.123-7.109C593.731,429.492,571.673,416.73,589.72,423.111z"/>
	<path fill-rule="evenodd" clip-rule="evenodd" fill="#59271E" d="M598.833,458.839c4.328,5.506,7.109,11.848,9.298,16.952
		c2.187,5.103-0.182-14.4-5.469-20.963c-5.287-6.563-15.858-6.745-11.848-3.828C594.824,453.918,596.829,456.288,598.833,458.839z"
		/>
	<path fill-rule="evenodd" clip-rule="evenodd" fill="#894D37" d="M573.679,442.798c2.511,1.826,6.197,4.01,9.114,4.739
		c2.917,0.729,4.739,0.547,4.739-0.181C587.533,446.626,565.66,436.965,573.679,442.798z"/>
	<path fill-rule="evenodd" clip-rule="evenodd" fill="#894D37" d="M288.591,530.659c4.064,2.78,5.287,4.921,7.656,8.019
		c2.37,3.099-0.732,2.734-2.736,1.095C291.506,538.132,285.126,528.289,288.591,530.659z"/>
	<path fill-rule="evenodd" clip-rule="evenodd" fill="#894D37" d="M237.368,483.631c2.526,2.577,10.026,11.848,13.673,15.858
		c3.645,4.011-7.841-1.64-10.573-4.374C237.734,492.379,228.437,474.516,237.368,483.631z"/>
	<path fill-rule="evenodd" clip-rule="evenodd" fill="#894D37" d="M308.458,510.608c2.422,1.372,10.026,6.563,11.85,9.844
		c1.82,3.282-6.016,0.729-8.568-2.187C309.188,515.347,302.991,507.509,308.458,510.608z"/>
	<path fill-rule="evenodd" clip-rule="evenodd" fill="#E9E9EA" d="M281.48,459.204c0,0,6.564,0.182,11.85-0.365
		c5.287-0.547,10.026-1.276,10.026-1.276s2.915,4.921-6.928,5.65C286.584,463.943,281.48,459.204,281.48,459.204z"/>
	<path fill-rule="evenodd" clip-rule="evenodd" fill="#E9E9EA" d="M326.87,485.634c5.225,1.662,18.775,6.562,24.426,7.655
		c5.651,1.095-0.365-8.02-9.661-10.755C332.339,479.801,298.797,476.703,326.87,485.634z"/>
	<path fill-rule="evenodd" clip-rule="evenodd" fill="#E9E9EA" d="M385.563,497.482c1.89,0.6,5.651,1.277,10.938,2.37
		c7.358,1.523,13.853,2.006,19.867,1.459c6.016-0.547,16.224-0.547,20.416-0.73c5.309-0.231,15.13-1.822,21.509-2.916
		c6.379-1.094-11.12-7.292-32.081-6.927C408.178,491.051,373.926,493.787,385.563,497.482z"/>
	<path fill-rule="evenodd" clip-rule="evenodd" fill="#E9E9EA" d="M535.946,471.78c-2.128,2.259-12.029,7.474-20.232,10.938
		c-8.203,3.462-15.13,5.65-20.599,7.108c-5.467,1.458,7.839-11.483,18.592-16.587C524.462,468.135,541.962,465.4,535.946,471.78z"/>
	<path fill-rule="evenodd" clip-rule="evenodd" fill="#8B161F" d="M323.582,489.887c0,0,1.541,0.587,3.341,1.212
		c1.798,0.624,4.237,1.463,4.237,1.463s-1.227,3.163-2.95,2.685C326.482,494.769,323.582,489.887,323.582,489.887z"/>
	<path fill-rule="evenodd" clip-rule="evenodd" fill="#8B161F" d="M527.173,484.797c0,0,3.192-1.248,5.065-2.423
		c1.873-1.175,4.333-2.828,4.333-2.828s1.249,1.028,2.386,1.578c1.137,0.551-0.138,1.684-4.002,2.864
		C530.145,485.458,527.173,484.797,527.173,484.797z"/>
	<path fill-rule="evenodd" clip-rule="evenodd" fill="#8B161F" d="M550.722,492.344c2.102-1.863,8.151-5.103,6.279-2.313
		c-1.873,2.789-3.965,5.91-6.755,6.315C547.455,496.75,548.447,494.364,550.722,492.344z"/>
	<path fill-rule="evenodd" clip-rule="evenodd" fill="#A20A1E" d="M317.127,455.727c0,0,15.999-3.684,32.14-9.931
		c22.39-8.667,35.029-19.681,35.029-19.681s-7.945,20.223-33.946,28.529C325.73,462.508,317.127,455.727,317.127,455.727z"/>
	<path fill-rule="evenodd" clip-rule="evenodd" fill="#A20A1E" d="M394.225,419.254c0,0,8.879-9.956,17.952-23.67
		c10.731-16.224,15.813-34.288,15.813-34.288s3.431,21.667-9.931,41.528C404.699,422.684,394.225,419.254,394.225,419.254z"/>
	<path fill-rule="evenodd" clip-rule="evenodd" fill="#A20A1E" d="M464.103,453.019c16.485-4.191,67.348-8.848,47.486-0.903
		c-19.86,7.945-53.084,18.056-76.015,18.959C412.642,471.978,432.143,461.144,464.103,453.019z"/>
	<path fill-rule="evenodd" clip-rule="evenodd" fill="#A20A1E" d="M360.94,115.65c6.629,0.339,18.866,3.229,28.045,8.327
		c9.177,5.1,7.609-2.962-3.57-7.138C369.948,111.06,346.75,114.922,360.94,115.65z"/>
	<path fill-rule="evenodd" clip-rule="evenodd" fill="#A20A1E" d="M387.284,96.273c4.064-0.369,13.598-0.339,16.487,2.89
		c2.889,3.23,0.942,3.376-5.346,1.846C392.136,99.479,381.565,96.794,387.284,96.273z"/>
	<path fill-rule="evenodd" clip-rule="evenodd" fill="#A20A1E" d="M418.77,75.721c2.906,1.661,8.116,6.276,11.684,14.263
		c0.894,1.996,1.975,4.049,2.848,6.083c0.873,2.035,0.944-6.489-3.187-14.581C424.874,71.216,416.736,74.559,418.77,75.721z"/>
	<path fill-rule="evenodd" clip-rule="evenodd" fill="#A20A1E" d="M373.717,98.538c4.082-0.287,8.833-0.321,14.102,1.039
		c5.27,1.359,12.416,2.858,13.946,4.047c1.53,1.19-9.698,0.543-19.724-1.158C372.014,100.766,361.649,99.388,373.717,98.538z"/>
	<path fill-rule="evenodd" clip-rule="evenodd" fill="#E9E9EA" d="M431.815,135.874c3.205,3.59,9.856,6.458,17.334,4.589
		c7.48-1.87,10.879-8.158,12.068-12.747C462.407,123.127,423.316,126.356,431.815,135.874z"/>
	<path fill-rule="evenodd" clip-rule="evenodd" fill="#E9E9EA" d="M376.236,157.118c4.929,1.703,13.767,6.629,15.636,9.179
		c1.869,2.549-0.849,2.889-1.869,3.058c-1.02,0.17,5.532,3.382,7.989-1.53c2.21-4.418,3.228-6.288,4.079-9.177
		c0.849-2.89-5.609-5.948-15.808-7.139C378.804,150.639,366.889,153.889,376.236,157.118z"/>
	<path fill-rule="evenodd" clip-rule="evenodd" fill="#E9E9EA" d="M338.504,148.96c4.361-0.984,9.858-1.189,13.767,0.17
		c3.909,1.36,0.168-5.843-7.477-5.608C333.746,143.861,327.968,151.339,338.504,148.96z"/>
	<path fill-rule="evenodd" clip-rule="evenodd" fill="#E9E9EA" d="M212.213,181.776c0.882,1.213,2.842,2.173,4.905,2.619
		c2.061,0.446,3.231,0.892,4.067,1.226c0.836,0.334,2.774,0.55,3.12,0c0.67-1.059-2.785-5.071-5.571-7.356
		C215.947,175.981,208.814,177.096,212.213,181.776z"/>
	<path fill-rule="evenodd" clip-rule="evenodd" fill="#E9E9EA" d="M524.768,154.243c1.783-2.213,12.096-5.615,9.611-2.699
		c-2.481,2.916-9.447,10.529-10.528,10.475C522.77,161.965,523.468,155.859,524.768,154.243z"/>
	<path fill-rule="evenodd" clip-rule="evenodd" fill="#D06F5E" d="M379.531,77.029c3.33-3.066,10.901-8.574,14.097-9.737
		c3.198-1.162-2.76,9.011-8.138,13.806c-5.378,4.796-14.823,10.61-15.26,8.575C369.793,87.638,374.007,82.115,379.531,77.029z"/>
	<path fill-rule="evenodd" clip-rule="evenodd" fill="#D06F5E" d="M404.964,60.752c2.042-1.158,5.521-2.325,10.608,0
		c5.087,2.325-4.214,3.197-6.539,3.197C406.708,63.949,400.602,63.222,404.964,60.752z"/>
	<path fill-rule="evenodd" clip-rule="evenodd" fill="#D06F5E" d="M369.503,101.736c4.655,0.698,19.475,3.052,24.415,4.36
		c4.942,1.308-27.466,0.145-32.118-0.145C357.15,105.66,357.876,99.992,369.503,101.736z"/>
	<path fill-rule="evenodd" clip-rule="evenodd" fill="#A20A1E" d="M400.312,113.798c0.555-2.702,5.959-9.157,6.106-5.96
		c0.145,3.198-1.454,17.15-3.053,21.219C401.766,133.127,399.15,119.466,400.312,113.798z"/>
	<path fill-rule="evenodd" clip-rule="evenodd" fill="#A20A1E" d="M515.309,147.919c0.188-0.113,1.662,1.247,2.424,1.94
		c0.761,0.692,1.593,1.87,1.731,2.216c0.14,0.347-0.759,2.356-1.245,3.256c-0.486,0.9-4.086-5.333-3.809-5.749
		C514.686,149.166,514.963,148.128,515.309,147.919z"/>
	<path fill-rule="evenodd" clip-rule="evenodd" fill="#A20A1E" d="M448.194,220.367c0,0,1.314,2.355,2.701,5.472
		c1.385,3.117,2.77,6.649,2.77,6.649s3.116-1.801,1.316-5.957C453.179,222.376,448.194,220.367,448.194,220.367z"/>
	<path fill-rule="evenodd" clip-rule="evenodd" fill="#A20A1E" d="M459.408,251.515c0,0,4.153,18.416,2.528,38.82
		c-1.625,20.404-7.403,34.848-7.403,34.848s12.639-5.778,14.806-29.251C471.506,272.459,459.408,251.515,459.408,251.515z"/>
	<path fill-rule="evenodd" clip-rule="evenodd" fill="#A20A1E" d="M266.272,211.771c0.853-1.656,0.834-1.615,2.063-3.647
		c1.048-1.733,2.448-3.648,2.448-3.648s-4.847,1.152-6.48,3.695C263.055,210.118,266.272,211.771,266.272,211.771z"/>
	<path fill-rule="evenodd" clip-rule="evenodd" fill="#A20A1E" d="M227.203,180.526c-0.1-1.1,0.575-3.07,1.057-4.27
		c0.48-1.201,1.007-2.113,1.199-2.209c0.192-0.096,1.392,1.68,1.633,1.968c0.238,0.288,1.582,11.469,0,9.838
		C229.508,184.222,227.348,182.11,227.203,180.526z"/>
	<path fill-rule="evenodd" clip-rule="evenodd" fill="#D06F5E" d="M469.773,205.194c3.967-3.228,16.638-15.684,23.568-23.924
		c4.382-5.211-2.725,11.607-8.764,17.292C478.536,204.247,460.888,212.419,469.773,205.194z"/>
	<path fill-rule="evenodd" clip-rule="evenodd" fill="#D06F5E" d="M502.577,291.296c3.866,6.685,13.267,23.451,17.766,35.532
		c5.337,14.328,8.529,29.964,9.477,39.912c1.141,11.992-18.598-27.475-21.202-34.701
		C506.012,324.814,496.892,281.467,502.577,291.296z"/>
	<path fill-rule="evenodd" clip-rule="evenodd" fill="#D06F5E" d="M437.651,458.167c8.969-3.467,26.585-9.56,39.875-11.427
		c13.293-1.865,23.737-1.807,28.45-1.633c6.297,0.234-3.393-10.486-30.548-5.129C441.149,446.74,420.163,464.929,437.651,458.167z"
		/>
	<path fill-rule="evenodd" clip-rule="evenodd" fill="#59271E" d="M208.058,171.399c0.938-1.777,2.781-5.178,4.25-7.186
		c1.469-2.009,4.482-4.404,5.177-4.791c0.696-0.386-3.246-1.314-7.263,2.936C206.202,166.608,206.589,174.181,208.058,171.399z"/>
	<path fill-rule="evenodd" clip-rule="evenodd" fill="#EDEBDB" d="M351.085,361.036c3.986-13.517,9.94-26.61,15.931-39.357
		c3.917-8.332,8.507-17.206,15.322-23.651c-2.061-2.872-3.196-5.165-3.196-5.165s-14.49,13.671-27.615,53.042
		c-6.078,18.228-15.031,49.782-9.337,60.157C343.347,390.913,346.743,375.764,351.085,361.036z"/>
	<path fill-rule="evenodd" clip-rule="evenodd" fill="#EDEBDB" d="M418.297,303.64c0,0-5.195,4.648-9.023,6.288
		c-3.827,1.642-6.282,3.717-15.039-0.273c-3.883-1.77-7.116-4.926-9.514-7.894c-7.031,6.69-11.625,16.159-15.521,24.763
		c-5.639,12.45-11.489,24.979-15.19,38.161c-4.213,15.004-7.6,30.358-8.591,45.686c1.545,0.932,3.567,1.143,6.161,0.448
		c19.413-5.194,48.394-22.967,61.246-65.893C419.982,321.033,418.297,303.64,418.297,303.64z"/>
	<path fill-rule="evenodd" clip-rule="evenodd" d="M377.427,286.133c1.798,4.504,7.721,16.178,14.8,20.564
		c7.185,4.452,13.875,4.096,19.786,0.623c5.307-3.117,6.5-7.676,7.947-10.75c0.508,1.121,0.616,6.981-4.702,12.083
		c0.891,12.243-4.015,34.947-7.762,37.618c2.988-10.595,7.021-29.8,5.81-36.316c-0.651,0.543-2.144,1.67-3.04,1.737
		c-1.601,13.934-6.186,25.505-10.637,37.877c-1.949,5.421-4.884,12.265-7.868,14.463c1.759-5.408,15.597-37.652,16.226-51.255
		c-1.629,0.543-3.907,0.759-4.994,0.868c-1.189,3.023-3.797,9.769-5.936,13.309c-0.169-3.589,2.465-9.726,4.201-13.524
		c-1.21-0.217-2.062-0.327-3.365-0.761c-6.94,10.225-13.349,37.118-17.351,45.444c-0.665-3.333,7.801-32.204,15.506-46.204
		c-1.085-0.543-2.604-0.977-3.471-1.52c-3.226,4.837-12.636,21.695-14.527,24.198c3.099-9.105,8.205-17.143,12.898-25.175
		C381.288,301.707,376.511,290.637,377.427,286.133z"/>
	<path fill-rule="evenodd" clip-rule="evenodd" fill="#EDEBDB" d="M368.732,300.132c0,0-13.397,19.959-21.599,48.122
		c-9.222,31.659-9.57,43.473-9.57,43.473s-6.837-13.123,2.459-44.566C349.319,315.716,368.732,300.132,368.732,300.132z"/>
	<path fill-rule="evenodd" clip-rule="evenodd" fill="#EDEBDB" d="M355.609,308.881c0,0-12.304,15.584-17.5,34.177
		c-5.193,18.592-5.741,28.709-5.741,28.709s-6.29-13.399,0.272-32.811C339.204,319.544,355.609,308.881,355.609,308.881z"/>
	<path fill-rule="evenodd" clip-rule="evenodd" fill="#EDEBDB" d="M366.698,408.632c0,0,24.878-10.937,38.004-35.818
		c13.123-24.88,14.491-40.465,14.491-40.465s4.101,24.88-13.944,51.676C387.203,410.819,366.698,408.632,366.698,408.632z"/>
	<path fill-rule="evenodd" clip-rule="evenodd" fill="#EDEBDB" d="M448.647,236.925c0,0,9.419,21.347,7.654,51.676
		c-1.366,23.515-7.701,37.793-10.389,41.287c-2.735,3.554-7.93,9.295-7.93,9.295s6.014-13.943,8.751-31.169
		c2.734-17.225,4.374-33.63,3.28-46.754C448.92,248.136,448.647,236.925,448.647,236.925z"/>
	<path fill-rule="evenodd" clip-rule="evenodd" fill="#EDEBDB" d="M429.53,245.406c0,0,2.684,5.611,3.537,15.369
		c0.853,9.759-0.609,20.615-1.951,25.617c-1.586-15.614-5.368-20.737-5.368-20.737s1.221-5.611,2.196-10.246
		C428.919,250.772,429.53,245.406,429.53,245.406z"/>
	<path fill-rule="evenodd" clip-rule="evenodd" fill="#EDEBDB" d="M287.816,301.108c0,0,1.925-17.574,2.409-28.649
		c0.48-11.074,0.48-17.093,6.258-23.833c5.778-6.741,12.036-7.945,17.334-7.223c5.296,0.722,7.463,1.685,12.76,2.408
		c5.294,0.721,11.072,0.24,11.072,0.24s-4.333,6.019-14.203,7.223c-9.869,1.204-20.705-1.445-25.519,8.426
		c-4.814,9.87-2.409,15.408-3.853,24.556C292.63,293.405,287.816,301.108,287.816,301.108z"/>
	<path fill-rule="evenodd" clip-rule="evenodd" fill="#EDEBDB" d="M243.057,440.755c0,0,11.327,15.794,51.522,12.131
		c53.836-4.908,91.318-36.801,91.318-36.801s-32.3,19.627-83.155,27.304C267.504,448.709,243.057,440.755,243.057,440.755z"/>
	<path fill-rule="evenodd" clip-rule="evenodd" fill="#EDEBDB" d="M337.651,213.477c0,0,3.213,3.687,14.685,6.259
		c13.963,3.129,19.259,0.481,19.259,0.481s-8.907,8.667-20.945,5.297C338.614,222.144,337.651,213.477,337.651,213.477z"/>
	<path fill-rule="evenodd" clip-rule="evenodd" fill="#F3DCC0" d="M340.838,198.161c1.119-2.985,5.151-9.238,8.419-12.753
		c3.271-3.516,6.295-5.722,8.094-5.967c1.796-0.246-2.372,12.018-4.332,15.124C351.056,197.671,338.141,205.355,340.838,198.161z"/>
	<path fill-rule="evenodd" clip-rule="evenodd" fill="#F3DCC0" d="M342.718,159.247c-0.168,3.12-1.063,10.873-1.636,14.471
		c-0.571,3.596,3.353-1.88,3.844-6.54C345.415,162.518,343.044,153.115,342.718,159.247z"/>
	<path fill-rule="evenodd" clip-rule="evenodd" fill="#F3DCC0" d="M332.089,174.616c0.555-1.697,1.554-2.778,2.863-2.942
		c1.307-0.164,2.042,0.163,2.288,0.817S330.864,178.376,332.089,174.616z"/>
	<path fill-rule="evenodd" clip-rule="evenodd" fill="#F3DCC0" d="M383.756,180.912c1.13-0.245,2.943,0,3.842,2.126
		c0.901,2.126,0.655,4.17,0.164,4.741C387.272,188.351,380.733,181.565,383.756,180.912z"/>
	<path fill-rule="evenodd" clip-rule="evenodd" fill="#E4B18E" d="M346.722,207.808c3.405-0.568,13.818-1.717,21.092,0.981
		c4.704,1.744,6.336,5.607-1.389,6.458C355.307,216.474,337.404,209.36,346.722,207.808z"/>
	<path fill-rule="evenodd" clip-rule="evenodd" fill="#E4B18E" d="M349.503,152.379c2.226,0.141,5.722,1.39,8.911,2.78
		c3.189,1.39,5.886,2.208,8.337,2.943c2.453,0.736,4.415,1.39,5.97,2.207c1.553,0.818-13.572-1.471-17.252-2.207
		C351.791,157.367,335.276,151.48,349.503,152.379z"/>
	<path fill-rule="evenodd" clip-rule="evenodd" d="M348.26,159.192c0,0,1.21-1.912,6.428-3.571c6.286-2,10.145-1.285,10.145-1.285
		l-0.571-5.143c0,0-4.859-0.572-11.431,2.286c-5.625,2.447-6.141,5.571-6.141,5.571L348.26,159.192z"/>
	<path fill-rule="evenodd" clip-rule="evenodd" fill="#FFFCED" d="M347.852,156.545c0,0,0.839-1.982,4.38-3.624
		c6.61-3.065,10.949-2.587,10.949-2.587l0.199,2.548c0,0-4.38,0.199-8.92,1.752c-4.507,1.541-5.892,2.907-5.892,2.907
		L347.852,156.545z"/>
	<path fill-rule="evenodd" clip-rule="evenodd" d="M372.021,153.041c0,0,1.791,0.637,3.343,3.503
		c1.552,2.867,1.513,5.574,1.513,5.574s1.314,0.318,2.23,0.199c0.916-0.12,2.228-0.677,2.228-0.677s0.677-4.141-1.99-8.68
		c-2.435-4.142-4.46-4.221-4.46-4.221s-0.676,0.599-1.553,1.952C372.459,152.045,372.021,153.041,372.021,153.041z"/>
	<path fill-rule="evenodd" clip-rule="evenodd" fill="#FFFCED" d="M373.533,152.682c0,0,0.16-0.597,0.678-1.353
		c0.516-0.757,0.875-1.155,0.875-1.155s2.338,1.201,3.823,4.3c1.832,3.822,1.353,6.65,1.353,6.65s-0.359,0.318-1.154,0.397
		c-0.477,0.048-1.117-0.079-1.117-0.079s-0.117-2.707-1.633-5.376C374.847,153.398,373.533,152.682,373.533,152.682z"/>
	<path fill-rule="evenodd" clip-rule="evenodd" fill="#E4B18E" d="M367.118,179.724c1.491,1.491,3.101,3.519,5.071,6.084
		c1.968,2.564,3.159,5.487,3.159,5.487s4.039,0.594,1.253-3.756C372.247,180.738,367.118,179.724,367.118,179.724z"/>
	<path fill-rule="evenodd" clip-rule="evenodd" fill="#E9E9EA" d="M450.104,123.082c4.845-0.073,8.099-0.073,10.052,0.795
		c1.953,0.868,1.517-5.639-4.628-5.929C449.274,117.654,447.422,123.122,450.104,123.082z"/>
	<path fill-rule="evenodd" clip-rule="evenodd" fill="#59271E" d="M515.246,101.915c3.496,1.607,6.679,4.225,8.587,7.905
		c1.908,3.68,0.819-5.179-2.725-8.041C517.564,98.916,508.431,98.779,515.246,101.915z"/>
	<path fill-rule="evenodd" clip-rule="evenodd" fill="#59271E" d="M529.15,134.899c0,0,1.77,1.635,3.135,3.135
		c1.363,1.499,1.091-2.454-0.274-3.953C530.648,132.582,528.059,133.808,529.15,134.899z"/>
</g>
</svg>
