<?xml version="1.0" encoding="utf-8"?>
<!-- Generator: Adobe Illustrator 17.0.0, SVG Export Plug-In . SVG Version: 6.00 Build 0)  -->
<!DOCTYPE svg PUBLIC "-//W3C//DTD SVG 1.1//EN" "http://www.w3.org/Graphics/SVG/1.1/DTD/svg11.dtd">
<svg version="1.1" id="Layer_1" xmlns="http://www.w3.org/2000/svg" xmlns:xlink="http://www.w3.org/1999/xlink" x="0px" y="0px"
	 width="800px" height="600px" viewBox="0 0 800 600" enable-background="new 0 0 800 600" xml:space="preserve">
<g>
	<path d="M372.722,494.666c-1.772-18.29-12.156-34.508-19.916-47.07c-10.87-17.609-14.707-34.042-10.147-54.5
		c4.25-19.034,15.041-36.375,25.621-52.487c38.001-21.003,96.427,7.615,133.272,37.819c16.601,13.607,39.601,16.343,52.741,8.134
		c26.844-16.77,25.191-44.906,19.166-66.259c-4.901-17.381-24.348-68.893-41.931-99.567c-8.844-15.421-21.013-30.479-38.946-35.013
		c-10.93-2.763-23.149,0.952-33.701,3.52c-7.149,1.735-32.175,7.849-46.961,11.138c-14.784,3.288-36.534,10.691-48.283,13.921
		c-12.569,3.454-25.561,3.619-37.565,9.188c-10.851,5.037-18.181,15.61-26.004,24.203c-11.009,12.08-23.76,22.451-34.647,34.742
		c-17.484,19.741-35.456,51.905-45.669,65.274c-4.386,5.747-8.177,12.976-6.835,20.369c1.164,6.412,10.834,12.401,15.626,15.27
		c6.898,4.134,16.148,7.618,24.113,9.188c10.014,1.983,20.207-5.493,27.614-11.062c8.781-6.61,16.984-13.885,25.214-21.099
		c12.308,2.875,22.742-0.721,33.5-7.03c-6.121,10.742-8.646,18.687-11.892,31.081c-5.294,20.21-4.918,41.396-13.187,60.872
		c-7.476,17.606-23.565,28.066-22.428,50.55c0.152,3.077,4.65,3.07,4.773,0c0.615-15.673,16.314-28.136,31.047-29.65
		C343.383,464.541,363.666,479.043,372.722,494.666z"/>
	<path fill="#A1BC30" d="M310.217,356.242c11.951-10.368,24.163-20.319,38.444-27.614c4.805-2.456,9.568-4.974,14.304-7.522
		c-6.627,6.581-12.48,13.815-17.556,21.599C337.206,349.076,321.798,356.869,310.217,356.242z"/>
	<path fill="#B15372" d="M369.172,332.132c-12.09,17.639-22.358,34.944-28.674,55.498c-4.769,15.507-5.083,32.971,1.848,47.863
		c6.904,14.83,15.934,27.805,21.916,42.919c-10.12-11.379-24.517-18.27-40.269-16.651c-7.886,0.813-15.676,5.149-21.661,11.24
		c5.503-9.687,12.632-19.196,16.661-30.109c6.032-16.334,6.838-34.789,9.938-51.796c6.313-34.567,33.764-76.075,61.051-84.632
		C383.969,313.527,374.566,324.252,369.172,332.132z"/>
	<path fill="#A1BC30" d="M513.797,337.783c-22.229,1.12-45.107-9.611-65.694-16.611c-13.822-4.7-44.71-19.576-59.755-7.962
		c-4.422,3.414-11.429,14.383-15.54,20.554c37.803-15.187,88.258,4.204,118.158,28.069c10.56,8.431,37.592,26.916,55.66,19.252
		c19.295-8.183,30.119-27.379,20.954-59.186c-8.236-28.572-18.786-56.499-31.893-83.105c-8.435-17.117-19.844-40.559-39.426-47.028
		c-13.247-4.376-27.323-0.4-40.351,3.183c-13.749,3.778-27.471,6.167-41.478,9.634c-14.007,3.464-39.369,12.486-53.185,15.147
		c-11.637,2.241-25.68,2.717-35.803,9.525c-9.809,6.6-15.92,16.343-24.417,24.295c-9.052,8.468-18.214,16.803-26.579,25.974
		c-16.525,18.115-27.865,38.841-42.149,58.489c-5.047,6.941-12.526,15.339-14.159,23.991c-1.834,9.713,12.037,15.778,19.172,19.377
		c11.24,5.671,20.356,9.337,32.148,1.818c8.223-5.248,15.487-11.759,23.201-17.702c10.219-7.872,18.792-17.576,28.876-25.587
		c8.808-6.993,18.426-12.371,28.523-17.298c11.105-5.407,21.883-11.326,32.498-17.52c1.441-0.965,29.633-18.013,33.804-20.624
		c10.88-6.815,21.727-13.706,32.221-21.112c4.092-2.879,14.374-9.538,22.431-15.735c7.536-5.787,10.199-11.65,6.878-18.115
		c-7.866-2.413-16.743-1.881-20.65,4.158c-1.673,2.581-3.989,1.752-2.542-0.965c11.22-21.129,56.02,1.623,66.398,14.436
		c1.917,2.366-1.435,5.767-3.378,3.375c-4.171-5.149-16.31-13.071-28.641-17.771c13.822,14.512,34.141,53.839,36.623,59.738
		C532.322,308.23,538.773,336.52,513.797,337.783z"/>
	<path fill="#FFFFFF" d="M483.678,233.668c4.396,5.162,14.992,21.017,21.466,30.958c-0.01,0.109-0.056,0.188-0.053,0.304
		c0.347,18.092-8.563,32.485-24.639,40.616c-17.404,8.798-49.946,4.264-58.42,2.591c-8.468-1.672-18.188-4.498-26.962-2.733
		c2.614-2.581,5.328-5.07,8.263-7.344c10.037-6.055,19.995-12.268,29.904-18.657c12.093-7.793,24.021-15.963,35.334-24.851
		C475.178,249.36,485.119,242.711,483.678,233.668z"/>
	<path fill="#FFFFFF" d="M509.58,271.54c6.967,12.553,20.607,34.141,17.408,51.463c-3.391,18.353-34.326,7.611-45.074,4.422
		c-14.344-4.257-28.198-8.715-42.427-13.326c16.958,1.144,32.968,1.993,48.97-7.502C501.122,299.084,508.129,285.682,509.58,271.54z
		"/>
	<path d="M274.087,347.235c-0.8-2.062-3.635-3.658-8.077-0.466c-4.439,3.196-7.059,10.242-5.857,17.048
		c0.529,3.017,3.325,3.074,3.371,0c0.06-3.9,1.358-8.312,4.33-11.244C274.001,353.872,274.887,349.304,274.087,347.235z"/>
	<path fill="#C6CF43" d="M278.773,300.41c5.083-8.087,21.998-42.116,16.631-37.416c-4.535,3.97-16.023,15.355-22.719,22.788
		C273.062,291.076,275.356,296.298,278.773,300.41z"/>
	<path fill="#C6CF43" d="M270.597,292.312c-0.34-1.081-0.549-2.198-0.687-3.331c-0.311,0.373-0.612,0.737-0.866,1.064
		c-4.852,6.246-21.846,31.751-25.667,38.156c-6.63,11.125,25.131-15.953,33.391-25.184
		C274.12,299.828,271.859,296.288,270.597,292.312z"/>
	<path fill="#C6CF43" d="M265.341,343.924c5.275-3.837,10.874-3.467,13.412,0.231c2.545,3.701,2.046-11.403-10.404-8.557
		c-16.185,3.701-12.711,33.909-12.024,26.592C257.02,354.794,260.258,347.625,265.341,343.924z"/>
	<path fill="#C6CF43" d="M336.333,227.841c8.788-2.542,23.585-4.855,24.973-4.161c1.388,0.698-12.486,9.713-20.808,14.337
		c-8.326,4.624-21.278,9.479-23.357,8.325C315.059,245.189,322.479,231.85,336.333,227.841z"/>
	<path fill="#C6CF43" d="M506.754,343.693c6.408,0.942,16.651,0.228,22.659-4.161c6.015-4.393,7.631-9.251,8.094-13.412
		c0.466-4.164,9.786,11.782-3.236,20.118C522.711,353.634,498.888,342.532,506.754,343.693z"/>
	<path fill="#C6CF43" d="M453.801,229.229c4.759-3.993,7.86-9.482,23.819-7.165c15.953,2.314,24.973,8.325,30.525,12.021
		c5.546,3.701-8.025-20.333-32.373-21.734C455.652,211.194,448.017,234.091,453.801,229.229z"/>
	<path fill="#89A834" d="M374.447,332.591c0,0,4.482-6.511,8.441-12.057c3.959-5.546,6.954-8.2,11.535-9.713
		c5.609-1.848,10.348-1.18,10.348-1.18s-9.899,2.182-13.865,8.124c-3.959,5.939-6.534,12.08-6.534,12.08s-2.032,0.201-4.521,0.836
		C377.369,331.315,374.447,332.591,374.447,332.591z"/>
	<path fill="#89A834" d="M518.685,351.115c5.083,1.081,11.825,0.274,17.133-2.852c5.301-3.127,6.927-7.476,7.611-11.693
		c0.678-4.214,6.851,14.939-4.353,19.989C526.706,362.131,512.293,349.76,518.685,351.115z"/>
	<path fill="#EBECEC" d="M476.629,312.817c0,0,7.129-1.738,14.096-6.574c6.766-4.686,10.008-8.573,13.419-14.773
		c5.866-10.662,5.83-18.085,5.83-18.085s2.991,5.116,4.23,7.78c1.246,2.667-1.923,13.081-12.767,23.029
		C490.599,314.145,476.629,312.817,476.629,312.817z"/>
	<path fill="#D6889A" d="M312.977,462.776c2.757-1.646,8.094-4.161,19.655-3.236c11.567,0.929,18.27,5.09,20.815,6.937
		c2.542,1.851-8.791-15.028-23.128-13.64C315.984,454.226,308.353,465.552,312.977,462.776z"/>
	<path fill="#D6889A" d="M330.094,407.744c0.651-7.4,1.613-21.503,7.165-36.303c5.553-14.8,9.948-21.737,15.494-29.6
		c5.546-7.859,9.71-12.483,12.714-15.028c3.008-2.545-15.028,18.726-23.581,41.852C333.326,391.794,329.4,415.607,330.094,407.744z"
		/>
	<path fill="#973056" d="M338.416,391.559c0,0-5.09,16.648-0.925,32.373c4.158,15.722,12.949,29.365,12.949,29.365
		s-12.487-8.094-17.345-23.585C328.24,414.222,338.416,391.559,338.416,391.559z"/>
	<path fill="#973056" d="M352.522,358.261c0,0,8.322-16.185,15.953-26.827c7.631-10.632,17.807-22.197,17.807-22.197
		s-13.58,10.295-21.969,23.357C352.29,351.327,352.522,358.261,352.522,358.261z"/>
	<g>
		<path d="M462.665,183.775c1.438,15.246-9.753,28.78-25.006,30.225c-15.25,1.447-28.77-9.743-30.215-25.003
			c-1.441-15.233,9.743-28.764,24.993-30.214C447.68,157.338,461.207,168.533,462.665,183.775z"/>
		<path fill="#FFFFFF" d="M458.19,183.101c1.176,12.529-8.018,23.647-20.551,24.837c-12.533,1.183-23.657-8.018-24.827-20.541
			c-1.197-12.536,8.005-23.651,20.531-24.837C445.869,161.374,456.997,170.572,458.19,183.101z"/>
	</g>
	<g>
		<path d="M449.604,182.311c0.624,6.643-4.244,12.546-10.894,13.167c-6.633,0.631-12.526-4.244-13.164-10.883
			c-0.621-6.643,4.253-12.539,10.887-13.167C443.079,170.81,448.982,175.668,449.604,182.311z"/>
		<path fill="#FFFFFF" d="M445.393,178.352c0.202,2.082-1.329,3.933-3.414,4.135c-2.099,0.201-3.95-1.335-4.144-3.421
			c-0.198-2.092,1.332-3.943,3.427-4.144C443.344,174.726,445.204,176.26,445.393,178.352z"/>
	</g>
	<g>
		<path d="M395.811,197.002c1.177,12.433-7.945,23.466-20.379,24.632c-12.433,1.187-23.466-7.939-24.645-20.369
			c-1.173-12.433,7.948-23.469,20.379-24.645C383.599,175.443,394.628,184.565,395.811,197.002z"/>
		<path fill="#FFFFFF" d="M392.155,196.444c0.972,10.222-6.527,19.288-16.746,20.25c-10.216,0.968-19.282-6.527-20.243-16.743
			c-0.972-10.216,6.524-19.285,16.743-20.25C382.128,178.732,391.194,186.231,392.155,196.444z"/>
	</g>
	<g>
		<path d="M385.218,196.741c0.512,5.42-3.46,10.232-8.881,10.741c-5.42,0.515-10.232-3.467-10.732-8.881
			c-0.519-5.414,3.45-10.219,8.874-10.738C379.89,187.355,384.703,191.334,385.218,196.741z"/>
		<path fill="#FFFFFF" d="M381.788,193.509c0.162,1.702-1.091,3.209-2.793,3.378c-1.699,0.155-3.223-1.087-3.378-2.796
			c-0.158-1.699,1.094-3.216,2.789-3.368C380.115,190.557,381.626,191.803,381.788,193.509z"/>
	</g>
	<polygon points="340.703,188.594 384.28,174.769 376.219,159.662 	"/>
	<polygon points="406.116,145.939 417.588,127.917 457.013,157.114 	"/>
</g>
</svg>
