<?xml version="1.0" encoding="utf-8"?>
<!-- Generator: Adobe Illustrator 17.0.0, SVG Export Plug-In . SVG Version: 6.00 Build 0)  -->
<!DOCTYPE svg PUBLIC "-//W3C//DTD SVG 1.1//EN" "http://www.w3.org/Graphics/SVG/1.1/DTD/svg11.dtd">
<svg version="1.1" id="Layer_1" xmlns="http://www.w3.org/2000/svg" xmlns:xlink="http://www.w3.org/1999/xlink" x="0px" y="0px"
	 width="800px" height="600px" viewBox="0 0 800 600" enable-background="new 0 0 800 600" xml:space="preserve">
<g>
	<g>
		<path fill="#FEEA80" d="M550.897,213.293c4.894,0.271,12.439,6.243,42.407,29.331c27.717,22.547,36.956,44.215,31.896,83.159
			c-4.093,11.955-12.61,32.11-29.013,47.646c-29.336,20.995-29.021,21.835-71.606,20.155c-44.793-15.116-53.655-6.34-91.77-7.675
			c-46.579-1.632-80.95,49.796-137.369,31.02c-95.668-31.02-109.159-129.795-14.718-177.958
			c29.634-18.408,60.697-31.59,93.828-27.755c28.164,3.26,53.602,20.248,82.176,19.592c16.741-0.384,25.254-13.803,40.475-19.592
			c16.999-6.465,29.428-3.895,41.459-2.538L550.897,213.293z"/>
		<path fill="#F7902A" d="M284.124,294.503c12.852-76.983,86.773-119.58,140.435-81.632c52.346,37.017,55.303,96.307-7.359,116.734
			c-15.286,4.983-33.36,6.531-49.06,6.531c-23.041,0-66.826-11.394-81.563-37.551L284.124,294.503z"/>
		<path fill="#FCC185" d="M308.011,262.79c11.031-36.41,93.722-82.774,105.42-20.488c2.702,14.386-46.271,5.363-52.658,7.064
			c-19.731,5.253-14.484,31.335-28.982,41.296c-14.327,9.843-36.123-6.526-24.492-27.168L308.011,262.79z"/>
		<path fill="#FFFFE3" d="M242.484,294.929c16.534,5.897,30.559,23.683,45.027,35.23c18.326,14.626,37.565,29.843,58.509,36.387
			c7.387,2.308,18.817-5.247,22.611,3.501c3.314,7.642-41.582,4.741-44.721,4.132c-31.369-6.084-75.993-32.101-83.049-78.002
			L242.484,294.929z"/>
		<path fill="#FFFFE3" d="M484.275,241.235c22.148,41.275-4.662,82.744-34.445,101.4c-13.34,8.356-27.215,12.76-41.731,14.99
			c-5.622,0.864-21.152,5.138-15.898,7.936c30.311,16.139,94.807-20.044,111.283-53.786c12.964-26.549,13.455-74.948-18.547-74.948
			L484.275,241.235z"/>
	</g>
</g>
</svg>
