<?xml version="1.0" encoding="utf-8"?>
<!-- Generator: Adobe Illustrator 17.0.0, SVG Export Plug-In . SVG Version: 6.00 Build 0)  -->
<!DOCTYPE svg PUBLIC "-//W3C//DTD SVG 1.1//EN" "http://www.w3.org/Graphics/SVG/1.1/DTD/svg11.dtd">
<svg version="1.1" id="Layer_1" xmlns="http://www.w3.org/2000/svg" xmlns:xlink="http://www.w3.org/1999/xlink" x="0px" y="0px"
	 width="800px" height="600px" viewBox="0 0 800 600" enable-background="new 0 0 800 600" xml:space="preserve">
<g>
	<g>
		<path fill="#333333" d="M302.716,198.41c0,0,0,0-0.354,0c-0.354,0.706-1.415,1.415-1.768,2.121c0,0,0,0.354-0.354,0.354
			c0,1.063,0,2.476-0.354,3.183c-0.706,3.535-0.352,6.364,0.354,9.192c0,6.012,0.354,11.316,1.768,16.974
			c0.354,1.06,0.707,1.769,1.413,2.121c0.355,0,0.709-0.352,0.709-0.707c-0.354-0.707-0.709-1.413-1.415-2.122v-0.354
			c-0.354-4.242-0.707-8.131-1.061-12.021c0,0.354,0,0.354,0.354,0.354c-0.354-1.061-0.354-1.767-0.354-2.476
			c-0.352-3.535-0.707-7.072-0.707-10.961c0.355-0.707,0.707-1.768,0.707-2.474c0.354-0.355,0.707-0.709,1.061-1.063
			c0-0.352,0-0.352,0.354-0.706c1.061,0,1.415,0,2.474,0c0,1.413,0,2.474,0,3.535c0,1.768,0,3.537,0.355,5.303
			c-0.709,6.011-0.355,12.376,1.413,18.034c1.415,5.657,4.244,10.255,7.779,13.79c0,0,0,0-0.354,0c0.354,0,0.354,0,0.354,0
			l0.355,0.354c-0.355-0.354-0.355-0.354-0.709-0.354c0,0-0.354,0-0.354-0.354c-0.354,0-0.354,0-0.706,0c-0.354,0-0.354,0-0.707,0
			c0,0.354,0,0.354-0.355,0.354c3.537,1.415,7.427,3.181,11.316,4.949c4.242,2.122,8.133,4.244,12.021,6.364
			c3.89,3.183,8.133,6.72,12.021,10.255c0.355,0,0.355-0.354,0.709-0.354l-0.354-0.354c0-0.354-0.355-0.354-0.355-0.707
			c-1.767-1.415-3.181-2.829-4.949-4.242c3.183,2.122,5.658,3.89,8.486,6.364c0.354,0.354,0.354,0.707,0.354,1.413
			c0.354-0.352,0.354-0.352,0.354-0.352c0-0.354,0-0.707,0-0.707c0.707,0.707,1.768,1.413,2.829,2.476
			c0.354,0,0.354-0.354,0.707-0.354l-0.354-0.354c-1.415-1.415-2.122-2.477-3.537-3.183c-0.707-7.779-1.769-15.556-3.182-22.983
			c0-1.061,0.354-2.122,0.706-3.182l0,0c1.769-1.416,2.83-2.829,4.244-4.244c-0.354,0-0.354,0-0.354,0
			c-1.415,1.061-2.474,1.768-3.537,2.476c0-0.354,0-0.707,0-1.061c0.709,0,0.709,0,1.415-0.354c0.354,0,0.354,0,0.354,0
			c0-0.352,0-0.352,0-0.352c-0.706,0-1.06-0.355-1.769-0.355c-0.354,0-1.059,0.707-1.059,1.415c0,0.354-0.354,1.059-0.354,1.768
			c-0.355,0-0.709,0.354-1.415,0.707c0.354,0,0.706,0,1.059,0.352c-1.767,7.779-1.059,15.56,2.477,23.337c0-0.354,0-0.354,0-0.354
			c0.354,0.354,0.354,0.707,0.706,1.061h-0.352c-7.425-7.072-16.265-12.375-25.459-16.265c-3.537-1.767-7.072-3.888-10.608-5.303
			h-0.354c2.476,1.061,5.303,2.828,7.781,4.244c-1.768-0.707-3.891-1.416-6.012-1.768c0-0.354,0-0.354,0-0.354l-0.354-0.354
			c-0.707-0.707-1.061-1.415-1.415-1.768c-3.889-6.718-6.363-13.436-7.072-20.154c0.354,1.061,0.709,2.829,1.063,3.888
			c0.706,2.476,1.059,4.244,1.767,6.718c1.415,2.122,2.83,4.244,3.889,6.366c0.354-0.354,0.354-0.707,0.354-0.707
			c0-0.355,0-0.355-0.354-0.707c-1.768-4.598-3.535-9.547-4.95-14.497c-1.059-4.244-1.415-8.486-1.768-12.729
			c0-1.415,0-2.476,0.354-3.537c-0.354,0.354-0.707,0.707-0.707,1.061c-0.352-1.061-0.352-2.474-0.706-3.888
			c0.354,0,0.706-0.354,0.706-0.354c0.354,0,0.354,0,0.354-0.354c0-0.355,0-0.355-0.354-0.709l-0.706-0.352
			c-1.063,0-2.122,0-3.183-0.354v0.354C302.716,198.41,302.716,198.41,302.716,198.41z M315.799,240.84L315.799,240.84
			c1.061,0.352,2.122,0.707,2.829,1.061C317.565,241.547,316.506,241.192,315.799,240.84z M351.157,260.994c0,0,0,0-0.352-0.354
			c0.352,0,0.352,0,0.352,0S351.157,260.64,351.157,260.994z"/>
		<path fill="#333333" d="M299.887,213.614c-0.352,0.354-0.352,0.354-0.706,0.354c-0.709,7.072,0,14.497,2.474,21.569
			c-2.12-0.354-4.242-0.354-6.364,0l0,0c0,0,0,0-0.354,0.352c0-0.352,0-0.352,0-0.352c-1.415-0.354-2.828-0.707-3.89-0.707
			c0,0-0.352,0-0.706,0c-1.768,0.707-3.891,1.059-6.012,1.767c-2.122,0.355-4.242,1.061-6.009,1.769
			c0.352,0.354,0.352,0.354,0.352,0.354c-1.768,0.707-3.537,1.415-5.303,2.474v0.355c0,0.707,0.354,1.061,0,1.767
			c0,0.354,0,0.709,0,1.063c0.354,0,0.354,0.352,0.354,0.352c0.354,0.354,0.354,0.354,0.707,0.707
			c0.706-0.354,1.415-0.354,1.768-0.707v-0.352c0-0.354,0-0.354,0-0.709v-0.354c0.354-0.354,0.354-0.354,0.706-0.706
			c-0.352,0-0.352-0.354-0.352-0.354c0-0.354,0-0.354,0-0.707c2.828-1.061,6.011-2.476,9.546-3.537
			c7.425-0.354,15.206-0.706,22.983-0.706c0-0.354,0-0.354,0-0.354c-2.122-0.709-4.596-1.415-6.364-1.415v-0.354
			C300.595,228.111,299.535,221.04,299.887,213.614z"/>
		<path fill="#333333" d="M291.047,244.377c-1.413,0-2.474,0.352-3.182,1.768c4.244-0.709,8.84-0.709,13.082-0.709
			c5.305,1.061,10.255,2.476,15.204,4.244c0,0.352,0.354,0.352,0.354,0.706c-1.059-0.354-2.122-0.706-3.181-0.706
			c-0.709-0.354-1.769-0.707-2.476-1.061v0.354c0.354,0,0.707,0.354,1.413,0.354c0,0.354,0,0.354-0.352,0.354
			c0,0.352,0,0.352,0,0.352c2.121,0.709,4.242,1.063,6.011,1.768c0,0,0,0,0.354,0.354V251.8v0.354
			c3.182,1.063,5.657,2.83,8.486,4.244c-1.061,0-2.122-0.354-3.183-0.707v0.354c2.122,0.354,3.89,1.413,6.364,2.122
			c3.535,2.474,7.425,5.303,10.962,8.131c4.95,4.598,9.547,9.194,13.082,14.497c-0.707-0.707-1.768-1.413-2.476-2.476h-0.354
			c2.476,2.476,4.597,4.951,6.366,7.78c0.706,1.06,1.059,1.767,1.767,2.828c-0.354-0.352-0.354-0.707-0.354-1.061
			c1.061,1.768,2.122,3.183,2.828,4.949c2.476,4.244,4.598,8.134,6.366,11.67c-0.707-0.707-1.769-1.415-2.122-1.767
			c1.769,3.887,3.183,8.485,3.89,12.727c-3.537-2.12-7.072-3.887-10.608-4.596c-1.767-0.707-3.182-1.413-4.598-1.768
			c-0.706-0.708-1.413-1.06-2.474-1.413c0,0-0.354,0-0.354-0.354c-4.244,0-8.131,0-12.021,0c-0.707,0-1.413,0-1.768,0
			c-1.061,0.707-2.122,1.059-3.535,1.767c0,0.355,0,0.355,0,0.355c0,0.354,0.706,0.706,0.706,0.706v0.354h-0.706
			c-0.354,0-0.354,0-0.709,0.354c0,0-0.354,0-0.706,0c-0.354,0-0.354,0.354-0.707,0.709v0.352c7.072,0,14.143,1.415,21.215,3.888
			c0,0,0.354,0,0.354-0.354c0,0,0,0,0-0.352c0,0,0-0.354,0-0.707c-0.354,0-0.354-0.354-0.707-0.354
			c-3.183-0.707-6.364-1.768-9.9-2.474c4.594,0.706,9.194,1.767,13.79,2.828c-0.355,0.354-0.355,0.354,0,0.354
			c0.354,0.354,0.354,0.354,1.059,0.706c3.535,1.063,6.366,2.83,9.194,5.303c-2.122-1.059-4.596-2.119-6.718-2.474
			c-2.122-0.707-3.891-0.354-5.657,0c0-0.707,0-1.413,0-2.122c-0.355,0.709-0.707,1.769-1.061,2.478l0,0l0,0
			c-1.768,6.362-6.366,10.607-12.729,13.434c-0.354-0.354-0.354-0.354-0.709-0.707c0.709,0,1.063-0.352,1.768-0.706
			c0,0,0.354,0,0.708-0.354c0,0,0,0,0.355-0.355c2.121-1.767,3.889-4.241,4.95-6.718c0.354-0.707,0.354-1.059,1.059-1.413
			c0-0.354,0-0.354,0-0.354c0.354-0.354,0.354-0.709,0.354-0.709c0.354-0.352,0.354-0.706,0.354-1.059
			c0.355,0,0.355-0.354,0.355-0.707c0.354-0.352,0.706-0.707,1.06-1.061h-0.354c-0.352,0-0.706,0.354-0.706,0.354
			c0-0.707-0.355-1.413-0.709-2.122h-0.354c-0.706,0.355-1.059,1.061-0.706,2.122c-2.122,4.949-5.303,8.84-9.901,12.023v0.354
			c0,1.059,0,1.767,0.707,2.828c1.768,0,3.89,0,6.011-0.354c-2.121,0-3.183-0.352-4.242-1.061c0.354,0,0.354,0,0.354,0
			c8.131-1.767,12.375-6.01,13.436-13.082c4.95,0.354,9.547,2.122,14.143,4.598c0.707,0.706,2.122,1.413,2.829,2.122
			c0,3.182,0.352,6.363,0.706,9.9c0.354,6.363,0.709,13.082,0.709,19.8c0-4.244-0.355-8.485-0.709-12.728
			c0,4.596,0,10.253-0.354,16.265c0,17.325-0.706,34.651-1.768,51.623c-1.413,14.143-2.474,28.287-4.242,42.077
			c-0.354-0.707-0.707-1.415-1.413-1.769c-0.354-0.354-0.709-0.354-0.354,0c0.706,1.061,1.413,2.122,1.767,2.828
			c0,3.183-0.354,6.366-0.707,9.547c0,1.061,0.354,1.061,1.415,0.707c0.354-2.829,0.707-5.305,1.061-8.133
			c0.706,1.061,1.415,2.122,2.122,2.828c-0.354,0.355-0.354,0.709-0.354,1.063c0.354-0.354,0.706-0.354,1.059-0.354
			c2.122,2.476,4.598,4.95,7.425,7.425c0.355-0.354,1.415-0.354,1.768-0.707c0,0,0-0.355-0.354-0.355
			c-2.828-2.828-5.657-5.303-8.131-8.131c0-1.059,0-2.476,0-3.537c0.706,0.709,1.059,1.415,1.413,2.122
			c1.768,2.474,3.537,3.891,5.659,4.596c-1.768-2.122-2.829-4.241-4.244-6.009c0.354-0.354,0.354-0.354,0.354-0.354h0.354
			c0.707,1.059,1.768,2.122,2.474,3.535c0.354,0,0.354-0.354,0.707-0.354l-0.354-0.354c0-0.354-0.354-0.354-0.354-0.706
			c-0.706-1.063-1.413-2.122-2.474-3.185c0-0.352-0.354-0.706-0.354-1.059v-0.354c0.354,0,0.708,0,1.415,0
			c0.354,0.354,0.707,0.354,0.707,0c-1.061-0.355-2.122-1.061-3.182-1.415c-0.354,0.354-0.354,0.354-0.354,0.354s0,0-0.355,0.354
			c-0.354-0.354-0.707-0.707-1.059-1.061c0.352-2.122,0.706-4.242,0.706-6.718c2.122,2.828,4.244,5.303,7.072,7.072
			c-0.354-0.354-0.354-0.354-0.354-0.707c-2.12-2.829-4.242-5.657-6.364-7.779c0-0.354,0-0.707,0-1.061
			c0.709-8.486,1.061-16.971,1.415-25.457c1.415,2.828,3.535,4.95,6.011,6.009v-0.352c-1.767-2.476-3.888-4.598-6.011-6.718
			c0-2.476,0-4.951,0-7.425c0-1.415,0-2.476,0.354-3.535c1.415,3.182,3.535,5.655,6.364,7.777c0.707,0,1.061,0,1.415-0.354
			c-0.354,0-0.354-0.352-0.707-0.352c-2.828-2.829-4.949-5.658-6.718-9.194c0,0-0.354,0-0.354,0.354
			c0.354-2.122,0.354-3.89,0.354-6.011c1.768,3.535,4.596,5.303,7.425,6.363c0-0.352,0-0.352-0.354-0.352
			c-2.476-2.476-4.949-5.303-7.071-8.84c0.707-6.364,1.061-13.082,1.415-19.8c1.413,2.474,3.181,4.596,5.303,6.718
			c1.06,0.354,1.415,0,1.415-1.061c0,0,0,0-0.355-0.354c-2.474-2.122-4.241-4.598-6.363-7.072c0-1.768,0-3.535,0-5.303
			c0-0.354,0-0.354,0-0.354c1.413,2.476,3.181,4.596,5.303,6.716c0.354,0.355,0.707,0.355,1.06,0.355
			c0.355-0.355,0.709-0.709,1.063-1.061v-0.354c-0.354-1.415-0.707-1.768-1.415-1.061c0.352,0,0.352,0.354,0.352,0.354
			c0,0.354,0,0.707,0,0.707s-0.706,0-0.706-0.354c-2.122-1.768-3.89-4.244-5.657-6.364c0-1.768,0-3.535,0-5.303
			c1.059,1.768,2.828,3.181,4.596,4.596c0.707,0,1.061,0,1.415,0c0-0.354,0-0.354,0-0.354c0-1.415-0.354-2.122-1.415-2.122
			c0.354,0.354,0.354,0.707,0.354,1.061v0.354l-0.354-0.354c-1.768-1.767-3.537-3.181-4.596-5.303c0-2.122,0-4.598-0.354-7.072
			c1.767,2.828,3.888,5.303,6.01,7.777c1.415,0.354,1.769,0,1.769-1.06c0,0,0,0-0.354-0.354c-3.183-2.122-5.305-4.949-7.425-8.133
			c-0.354-6.366-1.061-13.082-1.415-19.446c2.122,2.474,3.891,4.95,6.364,7.425c0-0.354,0-0.354-0.352-0.707
			c-1.416-2.476-3.89-4.95-6.012-7.425h0.354c0,0.354,0.354,0.354,0.707,0.354c0.354,0,0.354,0,0.354,0.354h0.354
			c0,0,0,0,0.354,0.354c0.706,0.706,1.768,1.768,2.474,2.828l0.354-0.354c-0.354-0.354-0.706-0.706-1.059-1.059
			c0.706,0.354,1.413,0.706,1.767,1.413c0,0,0.355-0.354,0.707-0.354l-0.352-0.354c-0.355-0.352-0.355-0.352-0.355-0.706
			c-3.535-3.537-7.07-6.366-11.314-8.486c0-0.354,0-0.707,0-1.061c0-0.707,0-1.061,0-1.415c-1.061-1.059-2.474-1.768-3.537-2.476
			c1.063,0.354,2.476,0.707,3.89,1.416c0.354-1.769,1.059-2.831,2.122-3.537c-0.354-3.183-1.415-6.366-2.476-9.194
			c-0.707-2.122-1.415-4.598-2.474-6.718c1.767,3.537,3.182,7.777,4.596,11.668c0.354,0.354,0.354,0.354,0.707,0.354
			c0.352,0.355,0.352,0.355,0.706,0.355c0-0.709,0-1.416-0.354-2.122c0.354,0.354,0.707,0.706,1.063,1.06
			c-0.355-3.537-1.768-6.718-3.183-9.9c-5.303-12.021-12.729-22.277-21.922-31.47c-1.061-1.767-2.122-3.183-3.537-4.597
			c-0.707-1.059-1.413-1.767-2.122-2.474c-2.828-3.535-6.009-7.071-8.84-10.607c-0.354,0-0.354,0-0.354,0
			c1.416,2.474,3.185,4.95,4.953,7.072c-2.477-2.122-4.953-3.89-7.781-5.303c-3.182-2.831-6.011-5.658-8.84-8.134
			c-0.707,0-1.413,0-1.767,0l0,0c0,0.354,0,0.354-0.355,0.354c0,0.354,0,0.354,0,0.354c0.709,0.355,1.415,0.355,1.768,0.355
			c0.709,0.706,1.063,1.06,1.768,1.413c1.061,1.061,2.476,2.122,3.89,3.537c-3.183-1.768-6.012-2.831-9.194-3.89
			c-1.415-1.769-2.829-3.537-3.89-5.657h-0.352c1.059,1.767,1.768,3.535,3.181,5.303c-1.413-0.354-2.476-0.706-3.535-1.061
			c-2.476-2.476-5.303-5.303-7.781-7.425h-0.354c2.476,2.476,4.598,4.949,7.072,7.071c-2.828-0.354-5.303-1.059-7.777-1.059
			c-6.012-1.768-12.375-2.829-18.388-2.476c-3.535,0.707-6.718,1.767-10.253,3.535c-0.709,0.354-1.415,1.061-2.122,1.769
			c1.061-0.354,2.122-0.354,2.829-0.707c1.768-1.061,3.535-1.415,5.655-1.769c4.598-0.706,9.194-0.706,13.437-0.352
			C293.876,244.377,292.816,244.377,291.047,244.377z M320.397,251.448c0,0,0,0,0,0.352c-1.063-0.706-2.122-1.059-3.537-1.415
			c0,0,0,0,0-0.354C317.921,250.386,319.334,251.095,320.397,251.448z M323.224,252.508h-0.354
			c3.535,1.415,7.072,2.828,10.607,4.596c0,0.354,0.354,0.707,0.709,1.063C330.65,255.691,326.761,253.922,323.224,252.508z
			 M321.102,250.741c-0.706-0.709-1.06-1.061-1.415-1.768c3.537,1.413,7.073,3.181,10.608,4.949
			c0.354,0.708,0.707,1.061,1.415,1.769C328.174,253.569,324.639,252.154,321.102,250.741z M303.777,245.79
			c1.061,0,2.476,0,3.889,0.355c1.061,0.352,2.122,0.706,3.537,1.06c0-0.354,0-0.354,0-0.354c-0.354,0-0.707,0-1.061-0.354
			c1.415,0.354,2.474,0.354,3.537,0.707c0.352,0.354,0.706,0.707,1.059,1.059C310.849,247.204,307.313,246.145,303.777,245.79z
			 M314.738,247.558c1.061,0.354,2.122,0.706,3.537,1.061c0,0.354,0.354,0.707,0.707,1.061c-1.061-0.354-2.122-0.707-3.535-1.061
			C315.092,248.264,315.092,247.912,314.738,247.558z M334.893,258.872c0.352,0.354,0.352,0.354,0.352,0.354
			c0.354,0.354,0.707,0.354,1.063,0.354c0.354,0.354,1.059,0.709,1.767,1.061c0-0.352-0.354-0.352-0.354-0.352
			c-0.354-0.355-0.707-0.355-0.707-0.709l0,0c0.707,0.354,1.061,0.709,1.768,1.061c0.354,0,0.354,0,0.707,0
			c0,0,0.354,0.354,0.354,0.707c1.061,1.06,2.122,2.122,3.182,2.828c-3.535-2.474-7.425-4.596-11.314-6.009
			c-2.12-1.415-3.889-2.476-6.011-3.537C328.881,256.044,332.064,257.457,334.893,258.872z M335.246,257.457
			c-0.706-0.354-1.06-1.059-1.769-1.413c1.769,0.707,3.185,2.122,4.598,3.535C337.368,258.872,336.308,258.166,335.246,257.457z
			 M347.974,270.895c-0.354-0.354-1.059-0.707-1.059-1.061c-2.476-2.122-4.598-4.242-7.072-6.01
			c2.122,1.415,4.242,3.181,6.718,4.949C346.915,269.48,347.269,270.188,347.974,270.895z M356.814,283.624
			c-1.059-1.415-1.413-2.829-2.474-4.242c2.474,3.181,4.95,6.363,6.718,9.546C359.997,286.807,358.582,285.038,356.814,283.624z
			 M363.532,289.281c1.063,2.476,2.476,4.598,3.537,7.072c-4.596-8.133-10.255-15.912-16.618-23.337
			C355.401,277.966,359.644,283.624,363.532,289.281z M347.621,310.142c1.063-0.352,2.122-0.352,2.831,0c0,0,0,0,0.354,0
			c0.706,0,1.413,0.354,2.121,0.354l0,0c0,0,0,0,0.354,0.354c-0.354,0,0,0,0.354,0.354c0.354,0,1.059,0,1.415,0.355
			c0.707,0.352,1.413,0.706,2.122,0.706c-5.658-1.415-11.316-2.122-17.326-2.122c-1.061,0-2.122,0-2.829,0l0,0
			c3.535-1.415,6.719-1.415,10.607-0.706c-0.706,0-1.059,0.354-1.413,0.354C346.561,310.142,346.915,310.142,347.621,310.142z
			 M369.898,316.153c-0.354-0.354-0.707-0.354-1.063-0.707c0.355,0.354,0.709,0.354,1.063,0.354V316.153z M371.313,440.263
			c-0.355,0-0.355,0-0.355,0c0,0.354,0.355,0.706,0.709,1.413c-0.354,2.476-0.354,4.95-0.709,7.779l0,0c0-0.354,0-0.354,0-0.354
			c0-0.707,0-1.061-0.354-1.767c-0.352,0-0.706,0-0.706,0.354c0,0.352,0,0.706,0,1.059h-0.354c0,0.354,0,0.354,0.354,0.707
			c-0.354,0-0.354,0.354-0.354,0.707c0.354,0.707,0.707,1.413,1.413,2.122c-0.354,1.413-0.354,2.828-0.354,4.244
			c-1.059-0.709-1.768-1.416-2.474-2.122c0.354-2.831,0.706-5.305,1.061-7.781c1.413-7.425,2.122-14.849,3.181-22.274
			c-0.352,5.657-0.706,10.96-0.706,16.265C371.667,440.617,371.667,440.617,371.313,440.263z"/>
		<path fill="#333333" d="M425.411,180.732c0,0.352,0,0.352,0,0.352c0,0.707,0,1.061,0.354,1.767
			c0.354,4.953,2.476,9.194,5.657,13.437c0.354,0,1.061-0.354,1.415-0.707c0.354,0,0.354,0,0.354-0.354
			c-0.354-0.352-0.707-0.707-1.415-1.415c-2.83-4.242-4.598-8.84-5.303-13.79c0-0.354-0.354-0.354-0.707-0.354
			c-0.707-0.354-1.061-0.354-1.768-0.354c0,0-0.354,0.354-0.706,0.354c-0.708,1.063-1.769,1.768-2.476,2.829
			c-0.354,0.707-0.354,1.769,0,2.474c0.354,5.305,1.413,10.255,2.828,15.558c0,0,0,0.354,0.354,0.354
			c-2.474,3.537-3.891,7.072-5.303,11.316c-0.354-0.354-0.706-0.354-1.061-0.354c-1.767-2.828-3.889-4.95-6.364-7.425
			c-0.707-1.061-1.061-2.122-1.768-2.828c0-0.355,0-0.709-0.352-0.709c-0.354-0.354-0.354-0.706-0.354-1.059c0,0,0,0-0.355,0
			c0,0-0.354,0-0.707,0.354v0.352c-0.352,1.063-0.706,1.768-1.06,2.829c0.708-0.354,1.413-0.354,1.767,0
			c0,0,0.355,0.354,0.355,0.707c1.413,1.767,2.474,3.535,3.535,5.303c1.768,2.122,3.537,3.535,6.011,3.888
			c-0.352,0.355-0.352,0.709-0.352,0.709c0.352,0,0.706,0,0.706,0c0.354-0.354,0.354-0.354,0.354-0.709c0.707,0,1.768,0,2.476-0.354
			c-0.354-0.352-1.061-0.706-1.768-0.706c2.474-4.95,4.596-9.547,6.718-14.143c-0.354,0-0.354,0-0.707,0
			c-0.354,0.706-1.061,1.415-1.061,1.769c0,0,0,0,0-0.354c0-0.355,0-0.355,0-0.709c0,0,0.354,0,0.707-0.352v-0.354
			c0.354-0.707,0-1.415,0-2.122c-1.768-3.535-2.474-7.425-2.828-11.316c0-0.352-0.355-0.706-0.709-0.706c0-0.354,0-0.708,0-0.708
			c0-0.355,0.354-0.707,0.709-1.061c0.354,0,0.708-0.354,1.06-0.707c0.354,0,0.354,0,0.354-0.354v-0.352
			C424.35,180.732,424.703,180.732,425.411,180.732z"/>
		<path fill="#333333" d="M368.836,158.454v0.354c0,0-0.352,0-0.706,0c0,0.354,0,0.354,0,0.354s-0.354,0.354-0.707,0.354
			c-0.706,0.354-1.061,0.707-1.415,1.415c0-0.354,0-0.707-0.354-0.707c0-0.354,0-0.707,0-1.061c-0.354,0-0.354,0-0.354,0
			c-0.706,1.061-1.061,2.122-1.061,3.537c-0.707,0.354-1.413,1.059-1.413,1.768h0.354c0.352,0,0.352,0,0.352,0s0,0,0,0.354
			c-0.706-0.354-0.706,0-0.706,0c-1.063,5.655-1.415,11.314-0.707,17.325c-1.415,0.706-2.829,1.769-3.891,2.828
			c-3.181-0.354-6.01,0-8.486,1.768c-0.354,0.354-0.354,0.707-0.706,1.063c-0.354,1.059-0.354,2.119,0.352,3.181
			c1.063,0,1.769,0.354,2.476,0.354c0,0-0.354,0-0.354,0.352c0.354,0.354,0.707,0.354,1.063,0.354
			c2.118,0.709,3.535,1.063,4.949,1.415c2.474,1.061,4.596,1.416,6.716,1.416c1.768,3.887,3.89,7.777,5.659,12.021
			c0.354,1.767,0.706,3.182,1.059,4.596c0,2.476,0.709,4.244,1.415,6.011c-3.181,0-6.011-1.061-8.133-3.182
			c-0.354,0-1.413,0-1.767,0l0,0c0,0-0.354,0-0.709,0c0,0.352-0.352,0.352-0.706,0.352c0,0,0,0,0,0.354c0,0-0.354,0-0.707,0.354
			c0,0.355-0.354,0.355-0.354,0.355v0.354c1.061,0.352,2.476,0.352,3.889,0c0.709,0.706,1.415,1.413,2.476,1.767h-0.354v0.354
			c-0.354-0.354-0.707-0.707-1.413-1.061c-0.355,0-0.355,0.354,0,0.354c3.182,3.537,6.363,7.072,8.84,10.608l-0.355,0.354
			c0,0.352,0,1.059,0,1.415c-2.828-4.597-6.363-8.486-10.253-12.376h-0.354c6.011,6.364,10.962,14.143,14.143,22.63l0,0
			c0,1.059,0.354,1.768,1.059,2.828c1.416,12.023,1.063,24.044-1.413,35.712c-0.354,0.355-1.061,0.355-1.415,0.709
			c0.354,0.354,0.708,0.706,1.415,0.706c-0.354,0.354-0.354,0.707-0.354,1.416c-1.061-1.416-2.474-2.476-3.183-3.185
			c-3.535-4.242-7.072-8.485-10.607-12.375c-4.596-9.192-7.427-19.093-8.486-29.348c0-1.767,0-3.181,0-4.594
			c-0.354,0-0.354,0-0.354,0c-0.354,1.413-0.354,3.181-0.354,4.594c-0.352,1.061-0.707,2.122-0.352,3.537
			c0,0.354,0,1.059,0.352,1.768c0.354,9.194,2.829,18.032,7.425,26.518c0.354-0.354,0.354-0.354,0.354-0.354
			c-0.707-1.415-1.415-2.828-1.769-4.242c1.061,1.768,1.769,3.537,2.828,5.657c-1.059-1.061-2.12-1.768-3.182-2.476
			c-1.059,0.355-1.059,0.707,0,1.415c1.769,1.415,3.537,2.828,5.303,4.244c1.415,2.12,2.831,4.596,4.244,6.718
			c0.354,0,0.706,0,1.061,0c0.354,0.706,0.707,1.059,1.413,1.768c0.354-0.355,0.354-0.709,0.354-0.709
			c-1.059-1.413-1.767-2.828-2.828-3.891c1.061,0.709,1.768,1.416,2.474,2.122c1.768,2.831,3.537,5.305,5.305,8.134
			c2.829,3.535,6.01,6.364,9.547,8.131c0.354,0.709,1.413,1.768,2.122,2.829c0,0,0.354,0,0.706,0c0,0.354,0.354,0.354,0.354,0.354
			c0.354,0.354,0.707,0.354,0.707,0.354c-0.354-0.707-0.707-1.415-1.413-2.122c-3.185-4.95-6.72-9.546-10.962-13.79
			c0.354-0.354,0.354-1.059,0.706-1.768c0-0.354,0-0.707,0.354-1.059c0.354,1.059,0.709,2.12,0.709,3.535
			c2.122,2.829,4.596,5.305,6.718,7.779c0.354,0,1.059,0,1.413-0.354c-0.354-0.707-1.059-1.415-2.122-2.12v-0.355
			c-2.474-2.829-4.596-6.011-6.364-9.192c-0.354,0-0.354,0-0.354,0c0.709-1.769,0.709-3.891,1.415-5.659
			c1.768,4.244,4.598,8.134,8.134,11.316c0.354,0.354,0.706,0.354,1.059,0.354c0.354,0,0.354,0,0.354-0.354c0,0,0-0.354,0-0.707
			c0-0.354,0-0.354,0-0.707l0,0c-0.354,0-0.354,0-0.707,0c0,0.354,0,0.354,0,0c-3.537-3.183-6.718-6.72-8.84-10.607
			c0-1.416,0.354-2.83,0.707-4.244c0-1.768,0.354-3.535,0.354-5.303c3.537,4.244,6.718,8.485,9.901,12.728
			c0.354,0,0.708,0,1.061-0.354c0.352,0,0.352,0,0.352,0c0-0.354,0-0.354,0-0.707c-3.535-4.242-7.072-8.133-11.314-12.376
			c0-0.706,0-1.767,0-2.828c1.768,3.183,4.596,6.364,7.779,9.194c0.354,0,1.061,0,1.768-0.354v-0.354
			c-0.354-1.061-0.707-1.768-1.061-2.122c-0.354,0-0.354,0.354-0.707,0.354c0,0.354,0,0.354,0,0.354
			c-0.352-0.354-0.706-0.354-0.706-0.707c-2.122-2.12-4.599-4.596-7.073-7.072c0-1.061,0-2.12,0-2.828
			c2.474,2.476,5.305,4.244,8.486,5.303c0-0.354-0.354-0.354-0.354-0.354c-2.122-2.122-4.596-4.242-6.718-6.01
			c-0.354,0-0.707,0-1.059,0c0,0,0,0-0.355,0.352c0-1.413,0-2.828,0-4.241c-0.354,0-0.354,0-0.354,0c0-1.415-0.354-2.831-0.354-3.89
			c1.415,2.122,3.182,3.89,4.95,5.657c0.354,0,0.354,0,0.354,0c0.355-0.354,0.709-0.707,0.709-1.061c0,0,0-0.352-0.354-0.352
			c-2.122-2.476-4.244-4.597-6.364-7.425c-0.354-0.709-0.354-1.415-0.354-2.122l0,0v-0.354c0-0.355,0-0.707,0-0.707
			c1.767,2.474,4.241,4.242,6.718,4.949c-2.477-3.181-4.951-6.01-7.427-9.194c-1.413-6.716-4.594-12.021-9.899-16.619
			c0.706,0,1.061,0,1.768,0.355c0-0.355,0-0.355-0.354-0.355c-1.061-0.706-1.768-1.059-2.828-1.767
			c2.119,1.061,4.241,1.415,6.718,1.061c0,0,0.354,0,0.354-0.354c0.352-0.354,0.352-0.354,0.352-0.707v-0.354
			c0-0.354,0-0.707-0.352-1.061c-0.354-0.354-0.354-0.706-0.354-1.059c-0.355,0-0.355,0-0.355,0.354c0-1.063,0-2.122-0.354-3.185
			c0.354,0.354,0.709,1.063,1.063,1.063c0,0.706,0,1.413-0.354,1.769c0.354,0.354,0.706,0.354,0.706,0.706
			c0.354,0,0.707-0.352,0.707-0.352c0.354,0,0.354-0.354,0.354-0.354s0-0.355,0-0.709c0-0.706,0-1.06,0-2.122
			c1.061,1.769,2.474,3.185,3.89,4.598c0.352,0,0.352-0.707,0.352-0.707c0-0.354-0.352-0.354-0.706-0.706
			c-1.063-1.063-2.476-2.122-3.537-3.891c-0.354-6.366-3.182-11.669-7.779-15.558c-0.706-0.707-1.061-1.415-1.415-1.767
			c0-0.355,0.354-0.355,0.709-0.355c-0.355,0-1.063-0.354-2.122-0.707c-0.355-0.354-1.063-0.706-1.768-1.059
			c-1.768-0.354-2.829-1.063-4.244-1.769c-1.059,0-2.828,0-3.89,0c-1.413-0.354-2.828-1.063-4.241-1.768
			c1.767-2.122,3.889-2.476,6.718-1.768c2.121,1.061,3.535,0.355,4.242-1.767c-0.354,0-0.354,0-0.354-0.354
			c0-0.355,0-0.355-0.354-0.709c0.707,0,1.415-0.352,2.122-0.706c0,0,0.706-0.354,1.059-0.708c0,0,0-0.355-0.354-0.355
			c0.354-0.352,0.354-0.706,0.707-1.413c0,0,0,0-0.354-0.354c0,0-0.354-0.352-0.706-0.352c0-0.355,0-1.063,0-1.416
			c0.352-0.352,0.352-0.352,0.352-0.706c0,0,0-0.709-0.352-0.709c-0.354-0.706-0.354-1.059,0-1.767
			c0.352-4.242,1.059-8.84,2.12-13.082c1.416-1.063,2.83-1.768,4.244-2.829c-0.354,1.061-0.709,2.122-1.061,3.181
			c-0.354,1.768-0.354,3.537-0.707,5.303c-0.354,3.537-0.354,7.072-0.354,10.962c0,0,0,0,0,0.354l0.354,0.354v0.355
			c0.354,0,0.354,0,0.354-0.355c0.354,0.355,0.706,0.355,0.706,0.355c0.355,0,0.355,0,0.709-0.355
			c-0.709-0.707-0.709-1.413-0.709-1.767c-0.352-0.709-0.352-1.063-0.352-1.415c0.352-5.657,1.061-11.316,2.474-16.973
			c0.709,0.354,1.063,0,1.415-0.354c0-0.354,0-0.354,0-0.708c0,0,0,0-0.352,0C370.958,158.808,369.898,158.808,368.836,158.454z
			 M366.008,196.288c0.354,1.061,1.415,2.474,2.122,3.537c-1.061-1.769-2.122-3.183-3.535-4.95
			C365.3,195.227,365.654,195.581,366.008,196.288z M366.717,273.015c-0.355-0.352-0.709-0.706-1.416-1.059
			c-0.706-0.709-0.706-1.415-1.415-2.476C364.595,270.895,366.008,271.956,366.717,273.015z"/>
		<path fill="#333333" d="M371.313,180.376c-0.355,0-0.355,0-0.709,0.355c0,0,0,0,0,0.352c-1.059,1.061-2.474,2.122-3.535,3.183
			c0.354,0.352,0.707,0.352,1.061,0.352c0,0,0,0,0.354-0.352c1.768-1.061,3.537-2.122,4.951-3.183
			c1.413-0.707,2.474-1.061,3.535-1.415c-1.768,2.476-3.535,4.598-5.303,6.718c-0.354-0.706-0.709-1.415-1.063-2.12l-0.706,0.352
			c0.354,1.063,0.706,1.768,1.059,2.829h-0.354c0,0.355,0.354,0.355,0.709,0.355c0.354,1.413,1.059,3.181,1.767,5.303
			c-0.354-0.354-0.707-1.063-1.413-1.768l0,0c1.059,1.415,1.768,2.828,2.474,3.888c1.061,2.829,1.769,5.303,2.83,8.133
			c0,0.707,0.706,1.768,1.059,2.828c1.768,7.072,3.183,13.79,4.244,20.861c-2.122-3.535-4.598-7.072-7.425-10.253l-0.354,0.354
			c2.122,4.244,4.95,8.486,7.779,12.375c0,0.709,0,1.415,0,2.122c-2.122-3.182-4.598-6.718-7.071-10.607l0,0
			c1.768,4.596,4.242,8.485,7.425,12.375c0,0.354,0,0.706,0,1.061c0.352-0.355,0.352-0.355,0.708-0.707
			c0.354,0.707,0.707,1.061,1.061,1.415c0.352,1.768,0.706,3.535,1.061,5.303c-1.768-2.476-3.537-4.95-4.951-7.425
			c-1.767-1.059-2.829-2.828-3.888-4.596c0-0.354,0-0.354,0-0.707c-0.354-0.355-0.354-0.709-0.354-1.061
			c-0.354,0-0.354,0-0.707,0.352c-0.354,0.709-0.354,1.416,0,1.768c3.183,4.598,6.364,8.84,10.255,12.73
			c0.354,1.767,1.059,3.535,1.768,5.657c0-1.415,0-2.828,0-3.891c0,0,0.706,0.354,0.706,0.709c0.354,0.354,0.354,1.059,0.354,1.413
			c-0.354,0.709-1.059,1.415-1.059,1.769h0.354c0.352-0.354,0.706-0.707,0.706-0.707s0,0.354,0,0.707c0.354,0,0.354,0,0.707,0
			c-1.061,1.768-1.767,4.244-1.767,6.364c0,0,0.354,0,0.706-0.352c0,0,0.354,0,0.354-0.355v-0.354
			c2.476-4.596,5.303-8.485,8.84-12.375c1.413-0.707,2.83-1.415,4.244-2.122c0,3.182,0,6.012,0.706,8.487c0-0.352,0-0.352,0-0.708
			c0.354-2.829,0.354-5.657,0-8.133c0.354-0.352,0.354-0.352,0.707-0.706c0.354-0.355,1.415-0.709,1.768-1.415
			c-0.354,3.535-0.707,6.718-0.707,9.899c-0.352,0.354-0.352,0.354-0.707,0.354c0,0-0.354,0.355-0.354,0.708
			c0,0.707,0.354,1.415,1.415,1.415c-0.354,0.707-0.706,1.061-1.061,1.415v-0.354c0-0.354-0.354,0-0.354,0
			c0,0.707,0,1.059-0.354,1.413c-0.354,0.709-1.059,1.415-1.768,1.768c0,0.354,0,0.354,0,0.707c0,0.355,0.354,1.061,0.354,1.415
			c0.355-0.708,0.355-1.415,1.061-1.769c-1.415,2.476-2.12,5.303-2.474,8.486c-0.354,0-0.354,0-0.354,0.354
			c-0.355,0.354-0.355,0.707-0.709,0.707c0,0.352,0,0.352,0.354,0.352c0.355,0.355,0.709,0.355,0.709,0.355
			c0,1.413-0.354,2.829-0.354,3.889c-0.355-0.354-0.709-0.707-1.415-1.059v-0.354c-1.063-1.415-1.768-2.476-2.122-3.891
			c-0.354,0-0.354,0-0.354,0c-0.354,2.122,0.707,4.244,2.476,5.657c0.706,0,1.06,0,1.415,0c0,1.415,0,3.183,0,4.951v0.354v0.354
			c-1.769-2.476-3.537-4.951-4.951-7.779l-0.354,0.354c0.709,3.181,2.828,6.363,5.305,8.838c0,1.415,0,2.829-0.355,4.596
			c-1.767-2.828-3.535-5.303-5.303-8.131c-0.354,0-0.706,0-1.059,0c0,0,0,0,0,0.354c0,0.352,0,0.706,0.354,0.706
			c0.352,0.355,0.352,0.355,0.352,0.709c1.768,2.828,3.535,5.657,5.303,8.485c0.354,0,0.354,0,0.354,0c0,0.709,0,1.061,0,1.415
			c0,0.707,0,1.061,0,1.415h-0.354c0,0,0,0-0.352,0c0,0,0-0.354-0.354-0.354c-2.122-3.183-4.244-6.011-6.366-9.194h-0.352
			c2.12,4.242,4.242,8.486,6.718,13.082c0,0,0.706,0,1.06,0c0,5.303,0.355,10.608,1.415,15.56c-0.352,3.181-0.352,6.009,0,8.84
			c-2.474-2.477-4.596-5.659-6.011-9.194c0,0,0,0-0.354,0c0,0-0.354,0.354-0.707,0.706c0.707,2.122,1.768,4.244,2.829,6.011
			c-1.768-1.767-3.181-3.889-4.598-6.011c-0.706,0-0.706,0.354-0.706,0.707c2.474,2.827,4.596,5.658,6.364,8.486
			c0.707,0.354,1.767,0.354,2.476,0.354c0,0,0.354,0,0.706,0.354c0,3.537,0,7.425,0.354,11.314c0,0.707,0.354,1.061,0.709,0.354
			c0,0.708,0,1.415-0.355,1.769c0.355,0,0.355,0,0.355,0c-1.768,3.181-3.537,6.718-4.951,10.607c0.352,0,0.352-0.354,0.707-0.354
			l0.354-0.352c0-0.354,0-0.354,0-0.707c1.769-3.183,3.891-6.364,5.657-9.194c0,0.354,0,0.707,0.355,1.061
			c-2.122,3.183-4.244,6.364-6.366,9.546c0.354,0,0.354,0,0.354,0c8.131-9.194,15.912-18.384,23.337-27.578
			c0,0.354,0,0.354-0.354,0.354c-0.354,0.352-0.709,0.706-1.415,1.413c0.354-0.354,0.354-0.707,0.706-0.707
			c1.416-1.415,3.185-2.474,4.951-3.182c-1.061,0.707-2.474,1.767-3.889,2.476c0.706,0,1.06,0,1.415,0
			c0.354-0.354,0.708-0.709,1.413-0.709c0.707-0.708,2.122-1.06,3.181-1.767c0,1.413,0,2.828,0,4.244
			c0.355-0.355,0.709-0.709,0.709-0.709c0-1.413,0-2.828,0-3.891c0.354-0.354,0.707-0.354,1.059-0.706c0,0.352,0,0.352-0.352,0.352
			c0.352,0,0.706-0.352,1.059-0.706c5.659-2.829,10.962-5.657,16.266-8.486c2.474-1.061,4.596-1.767,6.718-2.829
			c-1.767,2.122-3.888,4.244-6.363,6.012c-0.355,0.354-0.355,0.706-0.709,0.706c-1.413,0.707-2.476,1.416-3.535,2.476
			c0.354-1.059,1.413-2.122,2.122-3.182c-0.355,0-0.355,0-0.355,0c-2.12,1.769-3.535,3.182-4.949,4.95
			c-5.303,3.535-10.607,7.425-14.851,12.021c-6.718,6.718-11.668,14.143-14.497,21.922c0-1.413,0-2.829,0-4.242
			c-0.706-0.355-0.706,0-0.706,0.354c-0.355-0.354-0.709,0-0.709,0c-0.354,6.011-0.354,11.667-0.354,17.678
			c-0.352,1.415-0.706,2.829-0.706,4.244c-0.354,1.415-0.708,2.828-1.063,4.242c-1.06-1.415-2.474-3.181-4.241-4.242
			c-0.355,0-0.709,0-0.709,0.352c-0.354,0-0.354,0-0.354,0.354c1.768,2.122,3.185,3.89,5.303,5.305
			c-0.706,2.122-0.706,4.598-1.06,7.072c-0.354-0.707-0.707-1.415-1.415-2.122c0-0.352-0.354,0,0,0c0,1.061,0.707,2.122,1.061,3.183
			c0.354,0,0.354,0,0.354,0.352c0,1.768,0,3.537,0,5.305c0.354-1.415,0.354-2.829,1.06-4.242l0,0c0.355,0,0.355,0,0.709,0.354
			c0,2.12,0,4.242,0.354,6.364c-2.476-2.122-4.598-4.596-6.012-7.427h-0.354c1.063,3.183,2.829,6.012,6.012,8.486
			c0.354,0,0.354,0,0.354,0c0,0.707,0,1.063,0.354,1.768c0.352-0.352,0.706-0.352,0.706-0.352c0,1.059,0,2.474,0,3.887
			c0-0.352,0-0.352-0.354-0.706c-1.413-2.829-3.535-5.303-6.009-7.779c-0.355-0.354-0.709-0.354-0.355,0
			c2.122,3.181,4.596,6.364,6.718,9.547c0,1.06,0,2.122,0,3.182c-1.767-2.122-3.535-3.889-4.95-5.657c0-0.354,0-0.354-0.354-0.707
			c0-0.354-0.354-0.707-0.354-1.061c-0.706,0-0.706,0-0.706,0.354c0,0.707,0,1.415,0.354,2.122c0.706,0.354,1.059,0.706,1.413,1.061
			c0.707,1.061,1.061,1.767,1.415,2.476c1.06,1.413,2.122,2.474,3.181,2.828c-0.354,3.535-0.354,7.072-0.706,10.96
			c-0.354,0-0.354,0-0.354-0.354c-2.122-2.122-4.244-4.596-6.012-7.425c-0.706,0-0.706,0-0.354,0.354
			c1.063,2.122,2.476,4.244,3.89,6.718c0.707,0.354,1.413,0.707,1.413,1.416c0.709,0,1.063-0.354,1.416-0.709
			c-0.354,1.415-0.354,2.478-0.354,3.537c-2.122-2.828-4.244-5.657-7.072-8.486l0,0c2.122,3.537,4.596,6.718,7.072,10.608
			c0,0.706,0,1.768,0,2.474c-1.769-2.474-3.537-4.949-5.303-7.072c-0.355-0.352-0.709-0.352-0.355,0
			c1.768,2.83,3.537,5.657,5.659,8.133c0,0.707,0,1.768,0,2.829c-1.769-3.183-3.89-6.011-6.012-8.84c-0.354-0.354-0.706,0-0.354,0
			c2.122,3.535,4.244,7.072,6.366,10.607c0,0.709,0,1.415,0,2.122c-1.063-1.413-2.476-2.828-3.89-3.888c0-0.354,0-0.354-0.354-0.707
			c0-1.061-1.059-2.122-1.768-2.476h-0.354c1.063,1.061,1.416,2.476,1.768,3.891c2.122,1.059,3.535,2.474,4.598,4.242
			c0,1.415,0,2.83,0.354,4.244c-2.122-3.183-4.951-6.012-7.779-8.486h-0.355c2.477,3.181,5.305,6.718,8.134,10.253
			c0,1.415,0,2.83,0.352,4.244c-3.181-3.183-6.009-6.366-8.84-9.194c-0.706-0.354-0.706-0.354-0.706,0
			c3.182,3.89,6.011,7.072,9.546,9.899c0,1.768,0,3.537,0.354,5.659c-1.413-1.415-2.474-2.828-3.535-4.244
			c-0.354,1.063,0.707,2.476,2.122,4.598c0.354,0.354,1.06,1.059,1.413,1.415c0.354,2.828,0.709,5.657,0.709,8.485
			c-2.476-3.889-5.659-7.425-9.194-10.253h-0.355c3.89,3.535,7.073,7.425,10.255,12.021c0,1.768,0.354,3.891,0.707,5.657
			c-3.181-3.889-6.363-7.425-10.253-10.607c0,0.708,0.706,1.415,2.474,2.828c1.768,1.063,2.829,2.122,3.89,3.537
			c1.061,2.476,2.476,4.242,4.242,5.303c0,2.122,0.354,3.89,0.707,5.657c0.354,0.709,0.707,1.063,1.061,0.354
			c-0.354-3.535-0.707-7.425-1.061-10.961c-0.707-3.89-1.061-7.425-1.061-11.314l0,0v-0.354c-0.354-3.891-0.707-7.425-0.707-10.962
			l0,0c0.707,10.962,1.768,22.276,3.535,33.237v0.354c0,0.355,0,0.709,0,1.061c0.709,0,1.063,0,1.416,0
			c-0.354,0-0.354-0.352-0.354-0.706c0-0.355,0-0.709,0-1.063c0-0.352,0-0.706,0-1.06c0,0,0.354,0,0.706,0
			c0-0.354,0.354-0.709,0.354-1.061c-0.706-4.598-1.06-8.84-1.413-13.436c-0.355-6.364-0.709-12.73-1.415-19.095
			c1.415,8.133,3.182,15.912,5.303,23.691c-0.707-8.486-1.767-16.619-2.829-25.104c-1.769-13.79-2.474-27.933-2.828-41.724
			c0-10.255,0-20.508-0.354-30.407c1.767-6.366,3.889-12.73,6.366-18.741c-1.063,0-2.122,0.707-2.477,2.476
			c-1.413,3.535-2.828,7.072-4.242,10.253c0,0,0,0,0-0.354c0.354-2.827,0.707-5.657,1.061-8.485
			c-0.707,0.707-1.061,2.12-1.768,3.181l0,0c0,0.354,0,0.354,0,0.354v0.354c-0.354,0.706-0.707,1.768-0.707,2.474
			c-0.354-1.059-0.354-2.474-0.354-3.887c5.657-9.903,12.729-18.387,21.569-25.813c0.354-0.355,1.063-0.707,1.768-1.415
			c0,0.354,0,0.354,0,0.354c0.354,0,0.707,0,0.707-0.354c1.061-0.707,1.768-1.768,2.828-2.828c2.122-1.416,3.891-2.476,5.659-3.89
			c-0.354,1.059-1.061,2.122-1.415,3.182c0,0,0.354,0,0.707-0.354c1.767-1.768,3.535-3.535,4.951-5.657h0.352
			c0,0,0.354,0,0.354-0.352c1.768-0.709,3.181-1.416,4.949-2.122c-0.352,0.706-0.706,1.06-1.059,1.413
			c0.354,0.355,1.413,0.355,1.767,0.709c0.355-0.354,0.355-0.354,0.709-0.709c1.06-0.707,1.413-1.767,2.474-2.828
			c0.707-0.354,1.767-0.707,2.476-1.061c0,0.354,0,0.707-0.354,1.061c0,0-0.355,0.352-0.709,0.352c0,0.355,0,0.355,0,0.709
			c0.354,0.354,0.354,0.707,0.354,1.06c0.355,0,0.355,0,0.709-0.352c0.706-1.061,1.767-2.476,2.828-3.537
			c1.413-0.354,2.83-0.707,4.244-1.061c0.354,0,0.706,0,0.706,0c0.354,0,0.354,0,0.354-0.354c1.768-0.352,3.183-0.706,4.95-0.706
			c-0.706,0.354-1.059,0.706-1.413,1.059c0.707,0.354,1.413,0.354,1.768,0.707c0.354-0.354,0.354-0.354,0.707-0.707
			c0.354-0.354,0.706-1.059,1.413-1.768c0.354,0,1.061,0,1.415-0.354c0.354,0.354,0.354,0.354,0.354,0.354
			c0.354,0,0.354-0.354,0.354-0.354c8.486-1.415,16.617-2.474,24.752-3.182c0-0.354,0-0.354,0-0.354
			c-0.707,0-1.415-0.354-2.122-0.354c0.354-0.354,1.059-0.354,1.415-0.354c0.354,0,0.354,0,0.354,0v0.354h0.354l0,0
			c0,0,0.706,0,0.706-0.354l-0.706-0.354c0-0.354,0-0.354,0-0.707c0.706,0,1.415,0,2.122,0c0-0.352,0-0.352-0.354-0.352
			c-0.354-0.355-1.063-0.355-1.769-0.355c0.354-1.061,0-1.767,0-2.829c0.354,0.354,1.06,0.354,1.415,0.709
			c0.354,0,0.354-0.355,0.354-0.355c0.354,0,0.354-0.354,0.354-0.354c-0.354-0.706-0.707-1.06-1.416-1.413
			c-1.06-0.354-2.121-0.707-3.182-1.061c-0.354-0.354-1.061-0.354-1.415-0.707c-0.707,0-1.413,0-2.122,0.354
			c-1.768-0.354-3.889-0.354-6.363,0.354c-2.122-0.354-4.598,0-7.781,0.354c-1.413,0-2.828,0.354-3.889,0.354
			c1.061-6.718,3.183-13.082,6.364-19.095c2.474-2.122,4.95-3.535,7.779-4.241c0.354-0.709,0.707-1.063,0.354-1.768
			c0-0.354,0-0.709,0-1.063c0,0,0-0.354-0.354-0.354c-0.707,0-1.061,0-1.768-0.352c-1.061,0-2.474,0-3.537,0
			c-0.706,0.352-1.06,0.706-1.767,1.059c0,0,0,0-0.352,0l0,0c-2.122,0.355-3.89,0.355-5.659,0.709c0-0.354,0-0.354,0-0.354
			c0-0.355,0-0.355,0-0.709c-1.061-5.657-2.122-11.668-3.537-17.325c0-0.354-0.354-0.354-0.354-0.707h-0.354
			c-0.354,0.354-1.059,0.354-1.767,0.354c0.354,0.354,0.707,0.707,1.767,1.061c0.354,0.352,0.354,0.707,0.354,1.061s0,0.707,0,1.059
			c-0.354,0-0.354,0-0.707,0c0-0.352,0-0.706,0-1.059c-0.352,0-0.352,0-0.706,0c0,0.354,0,0.707,0,1.413l0,0
			c0,0.354,0,0.354,0,0.354c0,10.255-1.768,20.156-4.244,29.701c-3.181,6.366-7.425,12.021-12.021,17.326
			c-4.244,1.767-8.486,3.535-12.377,5.303c-3.535,1.415-6.716,3.183-9.192,5.303c-2.474,1.063-4.596,2.476-6.718,3.89
			c0.354-6.718,1.413-13.082,3.182-19.448c3.181-11.312,6.718-22.628,10.962-33.944c0.354,0.707,1.413,1.416,2.827,1.768v-0.352
			c-0.706-1.063-1.415-2.122-2.474-2.831l0,0c0.706-1.413,1.059-2.828,1.768-4.241c-1.063,0.706-1.768,1.767-2.122,2.828
			c-0.354-0.354-0.707-0.354-1.061-0.354l0,0c-0.354,0.707-0.354,1.061,0,1.413c-2.476,2.476-4.598,4.951-6.011,7.779
			c-3.183,4.951-5.659,10.255-7.425,15.912c0.707,1.061,1.413,0.709,1.767,0c0.354-0.354,0.354-0.354,0.354-0.707
			c0.709-3.182,2.122-6.011,3.537-9.192c-0.354,2.12-0.354,3.888-0.354,6.01c0.354-0.354,0.354-0.354,0.707-0.354
			c-0.354,0.708-0.707,1.415-1.061,2.121c-3.183,8.84-4.95,18.387-5.305,27.581c-0.352,0-0.706,0-0.706,0.352
			c0,0-0.354,0.355-0.354,0.709c0.354-2.122,0.707-4.244,1.059-6.364c-1.059,0.706-1.767,2.121-2.474,3.535
			c-0.707,2.476-1.413,4.596-1.767,6.364c-0.354,1.061-1.063,2.122-1.769,3.181c1.415-3.181,2.122-6.363,3.182-9.546v-0.354
			c0-0.354,0-0.354,0.354-0.707c0-0.706,0-1.768,0.354-2.828c0.354-0.354,0.707-0.709,1.061-1.415v-0.354
			c0-1.061,0.354-2.122,0.354-3.181c-0.354,0-0.354,0-0.354,0c0.354-5.305-0.354-9.903-2.122-14.143c0.354,0,0.707,0,1.061,0
			c0.354-0.355,0.707-0.709,1.061-0.709c0,0,0,0,0.354,0c0,0.354,0,0.354,0,0.709c0,0.352,0,0.706,0,0.706
			c0.354,0.354,0.354,0.354,0.706,0.354c0-0.354,0-0.354,0-0.707c0.355-0.352,0.355-1.061,0.355-1.415c0-0.354,0-0.354,0-0.706
			c-1.061-1.063-1.768-2.122-2.829-2.83c-1.061-1.061-2.121-2.122-3.182-2.829c-1.416,0-2.829,0-4.598-0.354
			c-0.706,0.354-1.415,0.354-2.122,0.354c0,0.355,0,0.707-0.352,0.707c0,0.354,0,0.354,0,0.707c1.06-0.354,2.121-0.354,3.182-0.354
			c0,0.354,0,0.707,0,0.707c0.355,0.707,0.707,1.061,1.061,1.415c0.354,0.354,0.707,0.707,1.413,1.413
			c0.709,1.063,1.416,1.768,2.477,2.476c0.354,0.707,0.354,1.415,0.354,1.768c1.059,11.314,0,22.276-3.537,32.883
			c-4.244,2.831-8.486,5.659-12.375,9.194c-0.708,0.709-1.769,1.415-2.476,2.476c0-8.838,0-17.326,0-26.166
			c0.354-14.143,1.061-27.933,2.122-41.723c-0.354,1.061-0.709,2.122-0.709,3.537c0-0.354,0-0.709,0-0.709
			c-1.06,5.305-2.119,10.608-2.828,16.621c0-0.355-0.354-0.355-0.707-0.709c0.354-4.596,1.061-9.192,1.768-14.143
			c0-1.059,0.354-2.12,0.707-2.828c0.354-1.06,0.707-1.769,1.415-2.476c1.413-2.12,2.476-4.242,4.242-6.364
			c9.901-7.425,15.912-17.678,18.739-29.699c-1.413,2.828-2.828,5.657-4.596,9.192c-1.061,2.12-2.121,3.889-3.535,6.011v-0.354
			c3.535-8.133,7.777-16.264,12.375-23.689c3.183-2.829,6.364-5.303,9.899-6.718h-0.354c-2.827,0.706-6.009,1.768-8.131,3.535
			c0-0.354,0-0.354,0-0.354s0-0.354,0-0.707c5.303-2.828,10.607-4.596,16.265-5.303c-0.354,0.354-0.709,0.707-1.415,0.707
			c0.706,0.354,1.415,0.706,1.768,0.706c0.352,0.354,0.352,0.354,0.352,0c0.354,0,0.707-0.352,1.063-0.352
			c0.706-0.354,1.413-0.354,1.413-1.061c0.354,0,1.415,0,1.768,0c0.354,0,0.354-0.355,0.354-0.355c0-0.352-0.354-0.352-0.354-0.352
			c-0.707,0-1.061,0-1.415-0.354c-0.354,0-0.354-0.354-0.354-0.707c0.354,0,1.415,0,1.768,0c0-0.354,0-0.354,0-0.354
			c-0.707,0-1.415,0-1.768-0.352c-0.354-0.355-0.354-0.355-0.354-0.709c-0.354-0.354-0.706-0.354-1.06-0.707
			c-0.355,0-0.709,0-1.415,0l0,0c-0.354,0.354-0.354,0.707-0.354,1.061l0,0c-3.537-0.354-7.072-0.354-10.962,0c0,0-0.354,0-0.707,0
			c-0.352,0.355-0.707,0.355-1.061,0.355c-3.182,0-6.011,0.706-8.84,2.119c0,0-0.354,0-0.354,0.355c0.354,0,0.709,0.354,1.063,0
			c1.06,0,1.769,0,2.828,0c-1.415,0.707-2.122,1.413-3.182,2.476c1.06,0,1.767-0.709,3.182-1.063
			c2.122-0.706,4.596-1.413,6.718-1.769c3.181-0.352,6.011-0.706,8.84-0.706c-0.355,0-1.061,0-1.415,0.354
			c-2.828,0.352-5.657,1.415-8.486,2.121c-1.767,1.063-3.535,2.122-4.598,3.537v0.354c0,0.707,0.355,0.707,0.355,1.415
			c-3.183,1.767-5.659,4.596-7.779,8.133c0.352,0.354,0.352,0.706,0.352,1.059c0,0,0,0.355,0,0.709
			c-1.059,1.06-1.767,2.828-2.474,4.596c-2.121,4.244-3.535,8.838-4.242,13.438c-1.061,1.059-1.415,1.767-2.122,2.474
			c0-0.355,0-0.355,0.354-0.707c-1.415,0.707-2.828,1.768-3.537,2.828c-0.354,0.355-0.354,0.709-0.706,0.709
			c1.06-4.597,1.06-9.194,0.706-13.791c-0.354-0.352-0.706,0-0.706,0c0,4.951,0,9.547-0.354,14.143
			c-1.768,2.476-3.89,4.598-5.658,7.425c-0.707,0.354-1.059,0.707-1.413,1.415c0.706-2.121,1.768-3.889,3.181-5.305
			c-0.354,0-0.354,0-0.354,0c-0.354,0.355-0.706,0.709-1.059,1.063c1.059-3.89,1.059-7.425,0.706-10.962
			c0.354-0.707,0.707-1.06,1.061-1.413c0,0,0.707-0.355,1.061-0.709c-0.354,3.537-0.354,7.072-0.354,10.255
			c0.354,0,0.354,0,0.354-0.354c0.707-3.535,0.707-7.07,1.061-10.255c0.706-0.352,1.061-0.706,1.415-1.059
			c-0.354,0-0.709,0-1.415,0.354c0-0.709,0-1.415,0.352-2.476c1.063-3.183,1.769-6.718,1.063-10.608l0,0
			c0,1.768-0.354,3.537-1.063,4.949c0-5.655-2.12-10.958-6.009-15.91l0,0c2.474,5.657,4.242,11.67,5.303,17.326
			c-1.061,3.181-2.476,5.655-4.244,8.131c-0.706,0.355-1.413,0.709-2.122,1.061c0,0,0,0,0,0.354c0-0.354,0-0.354,0-0.354
			c-0.352,0-0.352,0-0.706,0c0,0.354,0,0.354,0,0.354c-2.476,1.768-5.303,3.537-8.134,5.303c-2.828,1.768-4.948,3.891-6.716,6.718
			c0-0.706,0-1.059-0.354-1.768c-0.707-6.716-2.12-13.081-4.242-19.093c-1.415-7.425-3.891-14.143-7.072-20.506
			c-1.768-4.951-3.891-9.549-6.366-14.145c0.354,0,0.707-0.354,1.063-1.061c0.354,0.354,0.354,0.354,0.354,0.354
			c0.352,0.354,0.352,0.707,0.352,0.707c0.354,0,0.707-0.707,1.061-0.707c0-0.354,0-0.354,0-0.354
			c1.415-1.415,2.122-2.474,3.181-3.889c0,0.352,0,0.352,0,0.352c0.355,0,0.709,0,1.061,0c0.354,0,0.354,0,0.354,0
			c0-0.706-0.354-0.706-0.706-1.413c-0.354-0.354-0.354-0.354-0.354-0.354c0.706-1.415,1.059-2.474,1.059-3.888c0,0,0,0-0.354,0l0,0
			l0,0c-0.352-0.354-0.352-0.354-0.706-0.354c-0.355,0-0.709,0-1.063-0.354c0.354-0.709,1.063-1.061,1.416-1.415
			c-0.354-0.354-0.354-0.707-0.709-0.707c0,0,0,0-0.354,0h-0.354c0,0,0,0-0.352,0C375.202,176.841,373.079,178.61,371.313,180.376z
			 M381.919,216.09c0,0.352,0,0.706,0.354,0.706c0.706,3.89,1.415,7.779,1.415,11.669c0,0.706,0,1.415,0.354,2.121
			c0,1.061,0,2.476,0,3.535c0-0.352-0.354-1.059-0.707-1.413c-0.355-0.354-0.355-0.354-0.355-0.706c0-0.709,0-1.416,0-1.769
			c0,0,0.355,0.352,0.355,0.706c0.354,0,0.354-0.354,0.707-0.354l-0.354-0.352c0-0.354,0-0.354-0.354-0.709
			c0-0.354-0.355-0.707-0.708-1.413c-0.354-1.415-0.354-2.829-0.354-4.597C382.273,221.04,382.273,218.564,381.919,216.09z
			 M390.406,245.082L390.406,245.082c0,0,0,0,0,0.354V245.082z M404.549,246.497c0.354-0.352,0.354-0.352,0.354-0.708
			c0.354-3.535,0.707-7.071,1.06-10.607c0.709-1.063,1.768-2.122,2.831-2.829c-0.355,1.415-0.355,2.829-0.709,4.242
			c-0.354,2.476,0,4.596,0.354,6.012c-1.413,1.768-2.476,3.181-3.889,5.303C404.903,247.204,404.903,246.851,404.549,246.497z
			 M388.284,243.668c0-0.354-0.706-0.707-0.706-0.707c0-1.413,0-2.828,0-4.242C387.578,240.133,388.284,241.901,388.284,243.668z
			 M402.427,271.956c0.354,0,0.707,0,0.707,0c-0.354,2.476-0.707,4.949-1.059,7.779
			C402.075,276.906,402.427,274.432,402.427,271.956z M452.991,195.934c-0.355,0.354-0.355,0.354-0.355,0.354
			c-1.413,0-2.122,0-3.181,0C450.514,195.934,451.577,195.934,452.991,195.934z M411.621,228.465c0-0.354,0-0.354,0-0.354V228.465z
			 M440.969,250.386c-0.354,0.355-0.354,0.709-0.354,1.063c0,0,0,0-0.354,0.352c-0.354,0.354-0.707,0.707-1.415,1.416
			C439.554,252.154,440.261,251.448,440.969,250.386z M433.543,268.773v-0.354c0-3.181,1.061-6.012,2.122-9.194
			c1.061-1.768,2.474-3.535,3.889-5.303C437.433,258.872,435.311,263.47,433.543,268.773z M473.144,244.023h0.354
			c0.354,6.009,1.415,12.375,3.183,18.384c0.707-0.352,1.061-0.706,1.061-0.706c0-0.354,0-0.354,0-0.707
			c0-0.706,0-1.415-0.354-2.122l0,0c1.769,0.354,3.535,0.354,5.303,0.707c0.354,0,0.354,0,0.354-0.354
			c0.707-0.354,1.415-0.354,1.768-0.706c1.769,0,3.182,0,4.95,0v0.352c0,0-0.354,0.354-0.707,0.354c0,0-0.706,0-0.706-0.354
			c-0.709,0.354-1.768,0.707-2.476,1.416c0,0,0,0-0.355,0.352c0-0.352,0-0.352,0.355-0.352h-0.355c0,0.352-0.706,0.706-0.706,1.059
			c-2.476,1.769-4.597,3.891-6.366,6.364c0,0.354,0,0.354,0,0.707v0.354c-0.352,0.354-0.352,0.354-0.352,0.707v0.354
			c0.352,0,0.352,0,0.706,0c0,0,0,0,0.355,0c-0.355,0.708-0.709,1.413-1.415,2.122c-2.829,3.888-4.598,8.131-5.657,13.434
			c0,0,0,0.354-0.354,0.354c0,0.355,0,0.355-0.355,0.709v0.354c0,0.706,0,1.059,0.355,1.768c0.707-0.355,0.707-0.709,1.413-0.709
			c0-0.354,0-0.354,0-0.354c0.707,0,1.061,0,2.122,0c0,0.707,0,1.415,0,2.122c0.354-0.354,0.707-0.707,0.707-0.707
			c0-0.352,0-0.352,0-0.707c0-0.354,0-0.707,0-0.707c1.061-0.354,2.122-0.354,3.183-0.706c5.303-1.769,10.253-2.476,15.91-2.476
			c1.061,0,2.122,0.354,3.537,0.707c0.354,0.706,1.059,1.769,1.768,3.182c-0.709-0.354-1.415-0.354-2.122-0.354
			c0-0.354,0-0.354,0-0.354c-0.354-0.354-0.354-0.354-0.354-0.354c-0.707-0.352-0.707-0.706-1.415-0.706c0-0.354,0-0.354,0-0.354
			c0-0.355,0-0.355-0.354-0.709c-0.352,0-0.706-0.352-1.061-0.352h-0.354c0.354,0.352,0.709,1.061,0.709,1.415
			c0,0.354,0,0.706-0.355,0.706c0,0.354,0,0.354,0,0.354c-1.767,0-3.535,0-5.303,0.354c-1.413,0-2.828,0.354-4.244,0.709
			c0,0,0,0,0.355-0.355h-0.355c0,0.355-0.706,0.355-0.706,0.707c0,0-0.354,0-0.707,0c-1.415,0.707-2.827,1.061-3.89,1.061
			c-0.706,0.354-1.059,0.354-1.415,0.707c-1.06,0-1.767,0.354-2.828,0.354c0.707-0.707,1.415-1.768,1.768-2.474
			c0-0.355-0.354,0-0.354,0c-1.061,1.059-1.768,2.12-2.828,3.181c-2.122,0.354-4.244,1.059-6.72,1.768
			c1.061-1.768,2.476-3.537,3.891-4.949h-0.355c-0.706,0.352-1.767,0.706-2.474,1.059c-0.354,0-0.354,0.354-0.354,0.354
			c-0.707,1.061-1.413,2.122-2.122,2.828c0,0.355-0.354,0.709-0.706,1.415c-1.063,0.354-2.122,0.707-3.185,1.063
			c0.355-0.355,0.709-0.709,1.063-1.063c0.706-0.706,1.768-1.06,2.828-1.415c-1.059,0.355-1.768,0.709-2.828,0.709
			c1.059-0.709,1.768-1.768,2.474-2.829c-0.352,0-0.352,0-0.706,0c-1.415,1.061-2.831,2.476-3.891,3.889
			c-1.415,0.354-2.122,0.709-3.181,1.063c0.706-1.416,1.413-2.476,1.767-3.537c0,0,0,0-0.354,0
			c-1.767,1.061-3.181,2.474-3.888,4.596c-2.122,0.707-3.891,1.415-6.011,2.476c1.415-1.415,2.828-3.183,4.242-4.951
			c-0.354,0-0.354,0-0.354,0c5.657-3.182,10.961-7.072,15.912-11.314c-3.888,2.122-7.779,4.596-11.667,6.718
			c7.072-6.364,12.021-14.143,15.556-22.983v-0.354c0.354-1.059,0.354-2.122,0.354-3.181c-0.707-0.354-0.707,0-1.059,0.354
			c-0.707,2.122-1.768,4.242-2.829,6.364C472.438,261.348,473.498,252.861,473.144,244.023z M500.371,288.927
			c0,0.354,0,0.354,0,0.354s-0.354,0-0.709-0.354C500.017,288.927,500.017,288.927,500.371,288.927z M473.498,286.453
			c0-0.709,0.354-1.415,0.354-2.122c0.354,0.354,1.061,0.354,1.415,0.707c0,0,0,0.352,0,0.706
			C474.56,286.099,473.851,286.099,473.498,286.453z M476.327,285.391L476.327,285.391c0.354,0,0.354,0,0.707,0
			C476.68,285.391,476.68,285.391,476.327,285.391z M474.205,284.331c0.355-2.476,1.061-4.596,1.768-6.718
			c-0.354,2.122-0.354,4.242-0.707,6.364C474.912,283.977,474.205,283.977,474.205,284.331z M460.417,295.647
			c-0.355,0-0.355,0-0.355,0.352c-0.354,0-1.061,0.354-1.767,0.354C459,295.999,459.708,295.647,460.417,295.647z M422.228,307.314
			c0.355-0.355,0.709-1.061,0.709-1.415c0,0.354,0,0.706,0,1.059C422.937,306.959,422.583,307.314,422.228,307.314z
			 M419.046,311.203c-0.354,0-0.354,0-0.354,0.355c0.354,0,0.354,0,0.354,0c-5.303,4.594-10.253,9.546-14.143,14.849v-0.354
			c0-0.352,0-0.707,0-1.061c1.768-2.476,3.535-4.949,5.657-7.071C413.387,315.445,415.865,313.325,419.046,311.203z
			 M425.764,301.656c0.354-1.06,0.707-1.767,1.413-2.474c-0.352,2.121-0.352,4.242-0.352,6.364
			c-0.707,0.354-1.415,0.354-2.122,0.707C424.703,304.485,425.411,303.07,425.764,301.656z M398.185,311.203L398.185,311.203
			c-0.354-0.354-0.354-0.354-0.354-0.707C397.831,310.849,398.185,310.849,398.185,311.203z M402.075,313.325
			c0-0.707,0-1.415,0-2.476v-0.354c0.352,0.707,0.352,1.415,0.706,2.122c0,3.181,0.354,6.364,0.707,9.194
			c-0.707,1.059-1.061,1.768-1.767,2.828c0.354-3.535,0.354-7.071,0.354-10.607c0,0,0,0,0.352,0
			C402.427,313.677,402.427,313.677,402.075,313.325z M406.317,370.959c0,0.354,0,0.707,0,1.06c0,0,0,0,0-0.352
			C406.317,371.313,406.317,370.959,406.317,370.959z M408.084,373.787L408.084,373.787c0-0.352,0-0.706,0-1.06
			C408.084,373.081,408.084,373.435,408.084,373.787z M408.084,374.141L408.084,374.141c0,1.063,0,1.768,0,2.831
			c0,0.706,0,1.413,0,2.118C408.084,377.324,408.084,375.909,408.084,374.141z"/>
		<path fill="#333333" d="M346.561,261.701c-0.354-0.354-0.707,0-0.354,0c1.413,4.596,3.888,8.133,6.718,10.609
			c-0.352-0.354-0.352-0.354-0.707-0.709C350.451,268.419,348.329,264.884,346.561,261.701z"/>
		<path fill="#333333" d="M381.212,268.419c-0.352,0-0.707,0-0.707,0c1.768,3.891,4.242,7.425,6.718,10.609
			c0.355,0.354,1.061,0.707,1.415,0.707c0.354,0,0.354,0,0.354-0.354c0.354-0.354,0.354-0.709,0-1.063v-0.352
			C385.81,275.137,383.334,271.956,381.212,268.419z"/>
		<path fill="#333333" d="M418.693,224.928c-0.354,0-0.354,0-0.354,0c-0.352,3.537-0.707,6.718-1.061,9.547
			c0.354,0,0.354-0.355,0.709-0.707v-0.354C418.693,230.585,419.046,227.758,418.693,224.928z"/>
		<path fill="#333333" d="M391.113,279.735c-0.354,0-0.354,0-0.354,0c1.769,4.596,3.889,8.485,6.718,12.375
			c0.354,0,0.707,0,1.061-0.354c0.352,0,0.352,0,0.706-0.354c0,0-0.354,0-0.354-0.354c-0.706-0.354-0.706-0.707-1.413-1.061
			c0-0.354,0-0.354-0.355-0.707C395.355,286.099,393.235,282.916,391.113,279.735z"/>
		<path fill="#333333" d="M391.819,287.866h-0.352c1.415,1.768,2.474,3.89,3.181,6.364c1.415,2.476,2.829,4.597,4.596,5.658
			c0,0,0-0.355-0.354-0.355C397.122,295.293,394.648,291.403,391.819,287.866z"/>
		<path fill="#333333" d="M392.882,294.23c-0.354-0.352-0.354-0.706-0.354-1.06c-0.354,0-0.354,0-0.709,0.354
			c0,0.706,0,1.413,0,1.769c1.768,3.181,3.89,6.009,6.012,8.485c0.354-0.354,0.354-0.354,0.354-0.354c0-0.354,0-0.706,0-1.059
			c-1.768-2.122-3.89-4.598-5.303-7.427C392.882,294.584,392.882,294.584,392.882,294.23z"/>
		<path fill="#333333" d="M389.345,309.436L389.345,309.436c1.415,4.241,3.537,7.778,7.425,10.607c0.707,0,1.061-0.354,1.415-0.707
			c-0.354-0.706-0.707-1.061-1.768-1.415c0,0,0,0,0-0.354C393.941,315.093,391.467,312.264,389.345,309.436z"/>
		<path fill="#333333" d="M388.284,312.264c-0.706,0-0.706,0.354-0.706,0.707c2.828,4.242,5.657,8.486,8.838,12.375
			c0.706-0.354,1.061-0.708,1.415-0.708c0-0.354,0-0.354-0.354-0.706c0-0.354,0-0.709-0.355-1.063c-0.352,0-0.706-0.354-1.059-0.354
			c0-0.352,0-0.352-0.354-0.706C392.882,318.63,390.759,315.445,388.284,312.264z"/>
		<path fill="#333333" d="M388.991,317.921l-0.354,0.354c3.182,4.242,6.011,8.486,8.84,13.082c0.707,0,0.707,0,1.413,0
			c0-0.352,0-0.352,0-0.706C395.709,326.407,392.528,322.165,388.991,317.921z"/>
		<path fill="#333333" d="M394.648,334.892c0.355,0,0.707,0,1.061,0c0.354,0,0.354-0.352,0.354-0.352
			c0-0.354-0.354-0.354-0.354-0.354c-3.535-2.476-6.364-5.303-8.84-8.485c-0.354-0.355-0.706-0.355-0.354,0
			C387.578,329.589,390.759,332.773,394.648,334.892z"/>
		<path fill="#333333" d="M378.383,333.479c-0.354,0-0.354,0-0.354,0c1.063,2.122,2.476,4.244,3.89,6.366c0.354,0,0.707,0,1.06,0
			c0.355,0,0.355,0,0.355,0c0-0.355,0-0.355,0-0.355C381.919,337.369,380.151,335.247,378.383,333.479z"/>
		<path fill="#333333" d="M379.797,337.369c-0.354-0.355-0.706-0.355-0.354,0c1.061,1.767,2.476,3.889,3.891,5.657
			c0.707,1.415,1.767,1.768,2.122,1.059v-0.354C383.334,341.612,381.566,339.49,379.797,337.369z"/>
		<path fill="#333333" d="M376.263,339.136l-0.354,0.354c1.415,4.596,4.242,8.84,8.133,12.73c0-0.354,0.706-0.707,1.059-0.707
			c0-0.355,0-0.355-0.354-0.709C381.919,347.269,378.738,343.38,376.263,339.136z"/>
		<path fill="#333333" d="M385.456,348.329c0-0.354,0-0.354-0.355-0.707c-2.122-2.474-4.596-4.949-6.718-7.777
			c0,1.413,0.709,3.182,2.477,5.655C382.979,347.976,384.042,348.683,385.456,348.329z"/>
		<path fill="#333333" d="M377.676,385.456c-0.706-0.354-0.706,0-0.706,0.354c1.768,2.828,3.535,5.657,4.949,8.486
			c1.06,0,1.415,0.354,1.415,1.415c0.354,0,0.354-0.355,0.707-0.355v-0.354c-0.354-0.352-0.707-0.706-1.063-1.059
			c-0.352-0.354-0.352-0.354-0.706-0.709C380.86,390.76,379.092,387.93,377.676,385.456z"/>
		<path fill="#333333" d="M376.97,377.677c-0.354-0.354-0.707-0.354-0.354,0c1.767,3.181,3.888,6.364,6.01,9.547
			c0.352-0.354,0.708-0.354,1.061-0.707l-0.354-0.355C380.86,383.334,378.738,380.507,376.97,377.677z"/>
		<path fill="#333333" d="M406.317,395.355c-1.415-2.122-2.829-3.888-3.89-6.009h-0.352c0.706,2.828,2.12,5.303,3.887,7.777
			c0.709,0,1.063-0.354,1.416-0.354c0-0.352,0-0.352,0-0.706c0-0.709-0.354-1.063-0.708-0.709
			C406.317,395.355,406.317,395.355,406.317,395.355z"/>
		<path fill="#333333" d="M374.848,426.825c-0.707,0-0.707,0-0.354,0.354c1.061,2.83,3.182,5.303,5.303,7.425
			c0.354,0,0.707-0.354,0.707-0.707v-0.352C378.383,431.423,376.263,429.301,374.848,426.825z"/>
		<path fill="#333333" d="M374.848,421.168h-0.354c2.476,3.183,5.303,6.718,7.425,9.901c0.354,0.354,0.707,0.354,1.06,0.354
			c0.355,0,0.355,0,0.355-0.354c0.354,0,0.354,0,0,0C380.505,427.532,378.029,424.351,374.848,421.168z"/>
		<path fill="#333333" d="M374.14,432.482c-0.352,0-0.706,0-0.706,0c1.767,3.183,3.535,6.012,6.363,8.486
			c0.354,0,0.354,0,0.707-0.352c0,0,0,0,0-0.354c0,0,0,0-0.354-0.355C378.029,437.786,375.909,435.311,374.14,432.482z"/>
		<path fill="#333333" d="M374.14,437.432h-0.352c1.059,2.831,2.121,5.658,3.887,8.488c0.707,0,1.063,0,1.416,0
			c-0.354-0.354-0.709-0.707-1.063-1.061v-0.355C376.97,442.03,375.555,439.554,374.14,437.432z"/>
		<path fill="#333333" d="M401.722,432.836c-0.355-0.354-0.709,0-0.355,0c1.768,3.537,3.89,6.718,6.718,9.547
			c0-0.354,0-0.354-0.354-0.707C405.962,438.848,403.844,435.665,401.722,432.836z"/>
		<path fill="#333333" d="M399.6,447.688h-0.355c1.768,2.12,3.537,4.596,5.305,7.072c1.768,2.474,3.535,4.242,5.657,5.655
			c-0.354-0.352-0.354-0.352-0.354-0.706C407.025,455.466,403.488,451.223,399.6,447.688z"/>
		<path fill="#333333" d="M413.034,464.306c0.354,0,0.354,0,0.354-0.354c0-0.352-0.354-0.707-0.354-0.707
			c-2.474-2.476-4.949-4.598-7.777-6.716c-0.707,0-1.061,0-1.768,0l0,0c2.829,2.119,5.659,4.241,8.486,6.716v0.355
			c0,0.352,0,0.352-0.354,0.706C412.328,464.306,412.328,464.306,413.034,464.306z"/>
	</g>
</g>
</svg>
