<?xml version="1.0" encoding="utf-8"?>
<!-- Generator: Adobe Illustrator 17.0.0, SVG Export Plug-In . SVG Version: 6.00 Build 0)  -->
<!DOCTYPE svg PUBLIC "-//W3C//DTD SVG 1.1//EN" "http://www.w3.org/Graphics/SVG/1.1/DTD/svg11.dtd">
<svg version="1.1" id="Layer_1" xmlns="http://www.w3.org/2000/svg" xmlns:xlink="http://www.w3.org/1999/xlink" x="0px" y="0px"
	 width="800px" height="600px" viewBox="0 0 800 600" enable-background="new 0 0 800 600" xml:space="preserve">
<g>
	<path fill-rule="evenodd" clip-rule="evenodd" fill="#352828" d="M437.97,262.953c13.094-14.488,24.673-30.485,22.909-59.832
		c-8.602-5.468-14.93,4.963-21.974,7.012c-2.15-10.001-3.986-20.319-8.88-27.58c-7.834-2.495-20.319-2.7-32.829-2.33
		c-3.218-0.205-6.426,0.044-9.689,0.374c-0.632,0.031-1.263,0.057-1.886,0.086c-4.991,0.232-10.886,0.171-16.366,0.935
		c-4.874,0.68-12.296,1.175-14.955,2.804c-3.792,2.33-3.461,8.666-3.739,12.154c-2.033,0.615-4.365,0.933-5.611,2.34
		c-1.01,3.194-2.003,6.407-2.801,9.814c-5.369-2.53-14.894-7.841-21.507-3.273c1.819,13.206,6.443,27.677,11.689,38.798
		c1.141,2.413,3.277,6.237,5.141,8.883c4.446,6.302,9.962,7.93,15.426,12.621c-6.401,0.114-14.892,3.904-16.36,8.88
		c-2.49,8.449,1.486,24.916,5.144,27.58c-1.586,2.484-2.089,5.276-2.337,8.414c-1.547,19.354-0.567,46.836,3.272,62.636
		c2.743,3.801,9.826,3.262,10.282,9.35c-6.385-0.686-7.648,14.508-6.543,20.099c1.024,5.181,6.546,7.117,9.347,8.881
		c-0.826,7.617,0.014,15.288,3.274,20.101c9.904,4.579,30.195,8.499,48.143,7.478c9.578-0.545,22.353-2.167,27.58-7.011
		c4.785-4.434,4.382-14.183,2.804-22.439c8.429-3.045,9.069-24.03,0.467-27.578c8.363-1.317,12.886-5.611,13.556-14.957
		c1.266-17.685,1.597-48.657-1.872-60.3c-0.556-1.875-1.853-3.002-1.867-4.674c-0.025-3.386,4.354-5.055,5.141-7.012
		c2.256-5.615-0.27-18.559-0.467-24.307C449.459,266.424,440.146,268.259,437.97,262.953z"/>
	<path fill-rule="evenodd" clip-rule="evenodd" fill="#FFFFFF" d="M341.21,213.404c-0.651,4.18-1.736,7.924-2.801,11.686
		c-5.984-3.209-8.24-10.15-12.624-14.957C329.676,205.595,337.827,211.372,341.21,213.404z"/>
	<path fill-rule="evenodd" clip-rule="evenodd" fill="#FFFFFF" d="M442.649,251.269c-9.158,6.19-25.271,8.649-40.669,9.347
		c-6.165,0.281-14.24,0.857-19.634-1.402C404.064,258.18,426.186,257.554,442.649,251.269z"/>
	<path fill-rule="evenodd" clip-rule="evenodd" fill="#FFFFFF" d="M345.886,254.071c2.729-0.538,7.316,1.088,9.814,2.337
		C352.393,257.531,348.157,255.55,345.886,254.071z"/>
	<path fill-rule="evenodd" clip-rule="evenodd" fill="#FFFFFF" d="M357.106,255.942c1.992,0.658,4.735,0.566,6.076,1.87
		C361.432,258.767,357.659,257.738,357.106,255.942z"/>
	<path fill-rule="evenodd" clip-rule="evenodd" fill="#FFFFFF" d="M365.051,257.812c1.416-1.387,3.833,0.195,4.676,0.935
		C368.309,260.133,365.891,258.552,365.051,257.812z"/>
	<path fill-rule="evenodd" clip-rule="evenodd" fill="#FFFFFF" d="M370.659,258.278c1.419-1.384,3.833,0.196,4.674,0.936
		C373.92,260.599,371.499,259.019,370.659,258.278z"/>
	<path fill-rule="evenodd" clip-rule="evenodd" fill="#FFFFFF" d="M376.268,258.746c1.53-1.345,4.298,0.049,5.144,0.935
		C379.884,261.026,377.119,259.634,376.268,258.746z"/>
	<path fill-rule="evenodd" clip-rule="evenodd" fill="#FFFFFF" d="M348.221,259.681c3.764-0.796,7.389,2.582,10.755,3.739
		C355.223,264.202,351.893,260.531,348.221,259.681z"/>
	<path fill-rule="evenodd" clip-rule="evenodd" fill="#FFFFFF" d="M431.894,260.148c0.387,1.67-2.111,2.214-3.742,2.804
		c-7.43,2.7-17.431,3.279-27.577,3.74c-6.916,0.316-16.983,2.307-17.765-2.804c3.839-0.562,4.81,1.736,7.013,2.804
		c0.256-1.655-1.655-1.15-1.4-2.804C404.37,264.099,418.992,262.98,431.894,260.148z"/>
	<path fill-rule="evenodd" clip-rule="evenodd" fill="#FFFFFF" d="M356.638,261.55c4.073-0.798,8.958,1.631,10.749,4.675
		C362.631,265.844,360.18,263.151,356.638,261.55z"/>
	<path fill-rule="evenodd" clip-rule="evenodd" fill="#FFFFFF" d="M365.515,262.487c3.55-0.118,4.501,2.359,6.546,3.739
		C369.341,267.376,366.79,264.339,365.515,262.487z"/>
	<path fill-rule="evenodd" clip-rule="evenodd" fill="#FFFFFF" d="M371.127,263.889c3.232-1.664,5.772,1.388,7.013,3.273
		C374.832,267.036,372.726,265.722,371.127,263.889z"/>
	<path fill-rule="evenodd" clip-rule="evenodd" fill="#FFFFFF" d="M376.738,263.42c2.91,0.207,4.482,1.75,6.073,3.273
		C379.742,268.504,377.428,265.547,376.738,263.42z"/>
	<path fill-rule="evenodd" clip-rule="evenodd" fill="#FFFFFF" d="M431.894,266.225c0.921,2.488-3.594,3.568-6.543,3.74
		C425.68,266.864,429.936,267.696,431.894,266.225z"/>
	<path fill-rule="evenodd" clip-rule="evenodd" fill="#FFFFFF" d="M355.701,266.693c15.515,6.309,42.572,5.299,62.17,3.273
		c-4.985,3.708-13.871,3.37-21.969,3.739c-13.896,0.633-30.762-0.606-39.734-5.142C355.807,268.146,355.668,267.508,355.701,266.693
		z"/>
	<path fill-rule="evenodd" clip-rule="evenodd" fill="#FFFFFF" d="M448.725,272.302c0.295,2.787-2.726,2.262-3.742,3.74
		c-3.274-1.711-6.034-3.939-9.817-5.142C437.926,265.294,445.1,269.636,448.725,272.302z"/>
	<path fill-rule="evenodd" clip-rule="evenodd" fill="#FFFFFF" d="M423.482,268.562c1.16,1.043-1.219,2.497-2.807,2.338
		C420.783,269.291,422.603,269.398,423.482,268.562z"/>
	<path fill-rule="evenodd" clip-rule="evenodd" fill="#FFFFFF" d="M366.92,275.574c-1.146,2.593-2.701,4.779-4.676,6.545
		c-7.008-1.712-16.143-1.308-20.564-5.61c1.605-3.847,7.347-3.555,10.749-5.608C356.319,273.399,360.817,275.288,366.92,275.574z"/>
	<path fill-rule="evenodd" clip-rule="evenodd" fill="#FFFFFF" d="M443.581,276.043c-4.337,3.71-7.472-2.577-11.687-3.273
		C435.522,270.551,439.269,275.872,443.581,276.043z"/>
	<path fill-rule="evenodd" clip-rule="evenodd" fill="#FFFFFF" d="M437.97,277.911c-21.844,4.462-48.079,7.724-73.386,4.675
		c1.282-2.459,3.038-4.441,4.671-6.543c20.464,2.296,43.353,1.693,60.303-3.273C432.209,274.634,434.843,276.52,437.97,277.911z"/>
	<path fill-rule="evenodd" clip-rule="evenodd" fill="#FFFFFF" d="M341.21,280.716c0.99,0.726,2.896,0.534,2.34,2.806
		c-1.096-0.156-1.933-0.563-2.807-0.936C341.107,282.17,341.246,281.53,341.21,280.716z"/>
	<path fill-rule="evenodd" clip-rule="evenodd" fill="#FFFFFF" d="M344.482,282.118c1.113,1.224,4.676,0.001,4.209,2.804
		C346.501,284.772,344.337,284.601,344.482,282.118z"/>
	<path fill-rule="evenodd" clip-rule="evenodd" fill="#FFFFFF" d="M440.777,282.586c-0.532,1.184-2.073,1.356-3.742,1.402
		C437.222,282.459,439.331,282.85,440.777,282.586z"/>
	<path fill-rule="evenodd" clip-rule="evenodd" fill="#FFFFFF" d="M447.787,282.586c1.277,2.099,2.295,8.916,0,10.283
		C447.245,290.162,446.624,284.067,447.787,282.586z"/>
	<path fill-rule="evenodd" clip-rule="evenodd" fill="#FFFFFF" d="M436.103,283.522c0.045,1.444-1.413,1.391-2.807,1.401
		C433.28,283.505,434.938,283.758,436.103,283.522z"/>
	<path fill-rule="evenodd" clip-rule="evenodd" fill="#FFFFFF" d="M444.983,283.522c-0.044,3.465,2.735,12.036-1.869,11.685
		c0.295-4.035-0.812-6.668-0.465-10.751C443.478,284.196,444.588,284.214,444.983,283.522z"/>
	<path fill-rule="evenodd" clip-rule="evenodd" fill="#FFFFFF" d="M350.56,283.988c0.832,0.257,1.942,0.242,2.337,0.935
		C353.041,286.857,349.631,285.792,350.56,283.988z"/>
	<path fill-rule="evenodd" clip-rule="evenodd" fill="#FFFFFF" d="M431.894,284.457c0.22,1.932-2.187,1.241-3.271,1.87
		c0.078-0.546-0.103-0.835-0.47-0.935C428.261,283.936,430.481,284.601,431.894,284.457z"/>
	<path fill-rule="evenodd" clip-rule="evenodd" fill="#FFFFFF" d="M340.743,284.923c0.884,0.517,2.209,0.597,3.271,0.935
		c0.211,2.906,0.64,5.596,0.935,8.415c-1.73,0.017-2.707-0.719-3.739-1.404C341.383,289.892,340.378,288.091,340.743,284.923z"/>
	<path fill-rule="evenodd" clip-rule="evenodd" fill="#FFFFFF" d="M354.766,284.923c1.054,0.818,3.5,0.239,4.209,1.404
		C359.176,287.702,353.887,287.261,354.766,284.923z"/>
	<path fill-rule="evenodd" clip-rule="evenodd" fill="#FFFFFF" d="M427.221,284.923c0.592,2.618-2.484,1.568-3.739,2.338
		c0-0.623,0-1.248,0-1.87C425.24,285.75,425.713,284.819,427.221,284.923z"/>
	<path fill-rule="evenodd" clip-rule="evenodd" fill="#FFFFFF" d="M441.242,285.391c0.175,3.253-0.428,7.286,0.47,9.816
		c-1.146,0.416-2.028,1.089-3.742,0.934c-0.901-2.679-0.234-6.93-0.935-9.815C438.543,286.117,439.569,285.43,441.242,285.391z"/>
	<path fill-rule="evenodd" clip-rule="evenodd" fill="#FFFFFF" d="M421.612,285.857c0,0.623,0,1.246,0,1.87
		c-0.968-0.278-3.071,0.579-3.271-0.466C418.419,285.783,420.191,285.992,421.612,285.857z"/>
	<path fill-rule="evenodd" clip-rule="evenodd" fill="#FFFFFF" d="M344.949,286.326c1.444,0.115,2.646,0.473,3.742,0.935
		c-0.114,3.073,0.826,5.096,0.47,8.414c-1.68,0.275-2.262-0.544-3.274-0.936C345.926,291.581,345.447,288.942,344.949,286.326z"/>
	<path fill-rule="evenodd" clip-rule="evenodd" fill="#FFFFFF" d="M360.377,286.326c2.162,0.019,4.621-0.263,5.611,0.935
		C365.819,288.75,360.439,287.994,360.377,286.326z"/>
	<path fill-rule="evenodd" clip-rule="evenodd" fill="#FFFFFF" d="M367.388,286.793c1.683-0.128,3.232-0.117,2.807,1.868
		C368.626,288.671,367.076,288.661,367.388,286.793z"/>
	<path fill-rule="evenodd" clip-rule="evenodd" fill="#FFFFFF" d="M416.469,286.793c0.91,2.49-3.336,2.241-4.206,1.404
		C412.257,286.318,414.702,286.896,416.469,286.793z"/>
	<path fill-rule="evenodd" clip-rule="evenodd" fill="#FFFFFF" d="M434.231,286.793c0.626,0,1.246,0,1.872,0
		c-0.834,3.788,1.68,8.18-0.47,10.283C433.299,295.754,433.722,289.428,434.231,286.793z"/>
	<path fill-rule="evenodd" clip-rule="evenodd" fill="#FFFFFF" d="M372.061,287.261c2.103,0.704,6.167-0.555,6.546,1.869
		C376.32,288.617,371.594,290.535,372.061,287.261z"/>
	<path fill-rule="evenodd" clip-rule="evenodd" fill="#FFFFFF" d="M410.858,288.661c-0.706,0.72-3.202,0.834-2.799-0.935
		C409.161,287.398,411.019,286.654,410.858,288.661z"/>
	<path fill-rule="evenodd" clip-rule="evenodd" fill="#FFFFFF" d="M350.56,287.727c1.427-0.337,1.705,0.478,2.807,0.47
		c-0.35,3.462,0.754,5.473,0.465,8.88c-1.43,0.338-1.703-0.479-2.804-0.469C351.114,293.407,351.053,290.35,350.56,287.727z"/>
	<path fill-rule="evenodd" clip-rule="evenodd" fill="#FFFFFF" d="M406.652,287.727c0.904,2.637-3.728,2.164-4.671,1.403
		C402.359,287.488,404.777,287.873,406.652,287.727z"/>
	<path fill-rule="evenodd" clip-rule="evenodd" fill="#FFFFFF" d="M431.894,287.727c0.479,2.733,0.695,7.902,0.47,9.817
		c-1.099,0.149-1.755,0.739-3.274,0.467c0.306-3.733-0.414-6.441-0.467-9.814C430.245,288.57,430.42,287.499,431.894,287.727z"/>
	<path fill-rule="evenodd" clip-rule="evenodd" fill="#FFFFFF" d="M379.542,288.197c1.727,0.298,4.657-0.608,5.608,0.465
		C385.044,290.226,379.044,290.286,379.542,288.197z"/>
	<path fill-rule="evenodd" clip-rule="evenodd" fill="#FFFFFF" d="M393.095,288.661c-0.209,2.44-4.256,1.04-6.546,1.404
		c0-0.312,0-0.622,0-0.935C386.928,287.304,391.946,288.22,393.095,288.661z"/>
	<path fill-rule="evenodd" clip-rule="evenodd" fill="#FFFFFF" d="M400.576,288.661c-0.456,1.725-3.094,1.27-5.141,1.404
		c-0.245-0.377-0.49-0.758-0.467-1.404C395.93,288.042,399.661,287.778,400.576,288.661z"/>
	<path fill-rule="evenodd" clip-rule="evenodd" fill="#FFFFFF" d="M354.766,288.661c1.811-0.248,2.284,0.836,4.209,0.469
		c0.262,2.796,0.837,7.44,0.465,9.35c-1.065-0.491-2.818-0.298-3.739-0.936C355.376,294.599,355.39,291.312,354.766,288.661z"/>
	<path fill-rule="evenodd" clip-rule="evenodd" fill="#FFFFFF" d="M427.221,298.48c-1.099,0.147-1.755,0.738-3.274,0.467
		c-0.05-3.219,0.253-6.797-0.465-9.351C428.331,286.368,427.009,294.331,427.221,298.48z"/>
	<path fill-rule="evenodd" clip-rule="evenodd" fill="#FFFFFF" d="M360.845,289.596c2.131-0.263,2.91,0.829,5.144,0.469
		c-0.362,3.632,0.715,5.828,0.467,9.348c-2.217,0.345-3.216-0.526-5.144-0.466C361.309,295.675,360.519,293.193,360.845,289.596z"/>
	<path fill-rule="evenodd" clip-rule="evenodd" fill="#FFFFFF" d="M421.145,289.596c0.823,2.757,0.985,6.184,0.932,9.817
		c-1.616-0.374-1.794,0.697-3.269,0.467c0-3.273,0-6.543,0-9.816C419.484,289.81,421.223,290.61,421.145,289.596z"/>
	<path fill-rule="evenodd" clip-rule="evenodd" fill="#FFFFFF" d="M367.388,290.532c0.935,0,1.866,0,2.807,0
		c-0.309,3.12,0.612,7.472-0.467,9.817C366.219,299.803,368.528,293.442,367.388,290.532z"/>
	<path fill-rule="evenodd" clip-rule="evenodd" fill="#FFFFFF" d="M416.469,290.532c-0.326,3.597,0.467,6.076,0.467,9.349
		c-0.484,1.072-3.335-0.221-3.739,0.935C412.891,297.603,409.645,288.862,416.469,290.532z"/>
	<path fill-rule="evenodd" clip-rule="evenodd" fill="#FFFFFF" d="M372.061,291c2.581-0.244,4.409,0.268,6.546,0.469
		c0,3.27,0,6.543,0,9.814c-2.707,0.367-3.995-0.677-6.546-0.467C372.061,297.544,372.061,294.272,372.061,291z"/>
	<path fill-rule="evenodd" clip-rule="evenodd" fill="#FFFFFF" d="M409.458,291c1.185,1.708,2.148,8.33,0.465,9.816
		C408.582,299.071,407.711,292.826,409.458,291z"/>
	<path fill-rule="evenodd" clip-rule="evenodd" fill="#FFFFFF" d="M380.009,291.468c1.717,0.15,4.137-0.401,5.141,0.466
		c0,3.273,0,6.546,0,9.816c-2.231,0.362-3.004-0.73-5.141-0.467C380.009,298.011,380.009,294.738,380.009,291.468z"/>
	<path fill-rule="evenodd" clip-rule="evenodd" fill="#FFFFFF" d="M400.108,291.468c1.021,2.561,0.209,6.96,0.467,10.282
		c-1.867-0.153-2.593,0.835-4.674,0.469c-1.024-2.562-0.206-6.962-0.467-10.285C397.513,292.301,398.239,291.312,400.108,291.468z"
		/>
	<path fill-rule="evenodd" clip-rule="evenodd" fill="#FFFFFF" d="M406.652,291.468c-0.203,3.632,0.834,6.023,0.467,9.814
		c-2.039-0.327-2.632,0.797-4.674,0.467C402.395,297.995,399.521,289.365,406.652,291.468z"/>
	<path fill-rule="evenodd" clip-rule="evenodd" fill="#FFFFFF" d="M386.549,291.934c2.031,0,4.053,0,6.078,0
		c-0.158,3.746,0.832,6.339,0.467,10.285c-2.537,0.355-3.619-0.742-6.073-0.469C387.367,297.978,386.26,295.655,386.549,291.934z"/>
	<path fill-rule="evenodd" clip-rule="evenodd" fill="#FFFFFF" d="M341.68,295.675c1.441,0.581,3.664,0.385,3.739,2.337
		C343.975,297.428,341.75,297.627,341.68,295.675z"/>
	<path fill-rule="evenodd" clip-rule="evenodd" fill="#FFFFFF" d="M346.354,297.077c1.421-0.021,1.817,0.988,2.807,1.404
		C348.682,299.372,345.761,298.797,346.354,297.077z"/>
	<path fill-rule="evenodd" clip-rule="evenodd" fill="#FFFFFF" d="M351.027,299.413c0.606-1.025,2.526,0.553,3.739,0.467
		C354.09,300.975,351.984,299.583,351.027,299.413z"/>
	<path fill-rule="evenodd" clip-rule="evenodd" fill="#FFFFFF" d="M432.829,299.881c0.109,1.238-2.887,1.737-3.271,0.935
		C429.446,299.58,432.445,299.081,432.829,299.881z"/>
	<path fill-rule="evenodd" clip-rule="evenodd" fill="#FFFFFF" d="M427.688,300.816c0.025,1.74-2.081,1.348-3.741,1.404
		C423.699,300.288,427.162,300.522,427.688,300.816z"/>
	<path fill-rule="evenodd" clip-rule="evenodd" fill="#FFFFFF" d="M361.312,301.75c0.99-0.961,3.238,0.791,5.144,0.469
		C365.179,303.461,362.545,302.098,361.312,301.75z"/>
	<path fill-rule="evenodd" clip-rule="evenodd" fill="#FFFFFF" d="M423.015,302.219c-0.225,1.49-3.11,0.317-3.739,1.401
		c-0.637-0.145-0.389-1.17-0.467-1.87C420.836,302.119,422.208,300.432,423.015,302.219z"/>
	<path fill-rule="evenodd" clip-rule="evenodd" fill="#FFFFFF" d="M417.404,303.62c-2.543,0.574-5.099,1.133-8.412,0.936
		C409.892,302.824,416.755,301.116,417.404,303.62z"/>
	<path fill-rule="evenodd" clip-rule="evenodd" fill="#FFFFFF" d="M442.176,302.219c1.238,1.27-0.567,3.456-1.87,3.74
		C439.291,304.906,441.258,302.884,442.176,302.219z"/>
	<path fill-rule="evenodd" clip-rule="evenodd" fill="#FFFFFF" d="M344.949,302.685c17.025,6.202,41.339,9.015,64.042,6.546
		c-1.152,4.703-10.574,3.059-15.428,3.273c-15.632,0.686-33.967-1.946-46.742-5.144
		C346.112,305.888,345.263,304.556,344.949,302.685z"/>
	<path fill-rule="evenodd" clip-rule="evenodd" fill="#FFFFFF" d="M371.594,303.62c3.747-0.628,9.717,0.566,14.027,0.936
		C381.322,305.728,375.85,304.044,371.594,303.62z"/>
	<path fill-rule="evenodd" clip-rule="evenodd" fill="#FFFFFF" d="M407.586,303.62c0.145,2.477-3.667,1.004-5.606,1.403
		C402.623,303.33,405.433,303.799,407.586,303.62z"/>
	<path fill-rule="evenodd" clip-rule="evenodd" fill="#FFFFFF" d="M437.97,303.62c0.623,0.352,0.239,3.637-1.399,3.273
		C436.362,305.128,437.494,304.698,437.97,303.62z"/>
	<path fill-rule="evenodd" clip-rule="evenodd" fill="#FFFFFF" d="M393.563,305.49c-2.276-0.216-5.472,0.49-7.013-0.467
		C387.137,303.663,393.677,303.175,393.563,305.49z"/>
	<path fill-rule="evenodd" clip-rule="evenodd" fill="#FFFFFF" d="M401.513,304.556c-1.068,0.821-4.657,1.554-6.078,0.467
		C395.677,303.201,400.492,304.116,401.513,304.556z"/>
	<path fill-rule="evenodd" clip-rule="evenodd" fill="#FFFFFF" d="M435.633,304.556c-0.515,1.355-0.579,3.16-2.337,3.273
		C433.717,306.375,433.778,304.57,435.633,304.556z"/>
	<path fill-rule="evenodd" clip-rule="evenodd" fill="#FFFFFF" d="M431.427,305.49c2.095,0.093,0.15,2.915-0.467,3.271
		C429.747,308.11,431.302,306.343,431.427,305.49z"/>
	<path fill-rule="evenodd" clip-rule="evenodd" fill="#FFFFFF" d="M429.09,305.959c0.907,0.639,0.122,3.518-1.402,3.272
		C427.485,307.466,428.609,307.037,429.09,305.959z"/>
	<path fill-rule="evenodd" clip-rule="evenodd" fill="#FFFFFF" d="M426.753,306.893c-0.417,1.765-0.648,3.714-3.271,3.271
		C424.063,308.564,424.294,306.614,426.753,306.893z"/>
	<path fill-rule="evenodd" clip-rule="evenodd" fill="#FFFFFF" d="M419.276,307.829c1.213,0.649-0.345,2.419-0.467,3.27
		c-1.608-0.203-2.623,0.185-3.739,0.469c0.119-1.437,1.012-2.103,1.399-3.273C417.29,308.027,419.217,308.861,419.276,307.829z"/>
	<path fill-rule="evenodd" clip-rule="evenodd" fill="#FFFFFF" d="M414.602,308.762c-0.654,0.598-0.289,2.207-0.938,2.806
		c-1.402,0-2.807,0-4.206,0C409.981,309.442,411.606,308.417,414.602,308.762z"/>
	<path fill-rule="evenodd" clip-rule="evenodd" fill="#FFFFFF" d="M343.55,309.697c1.146,0.412,2.696,0.421,2.804,1.871
		C345.347,312.436,343.174,311.638,343.55,309.697z"/>
	<path fill-rule="evenodd" clip-rule="evenodd" fill="#FFFFFF" d="M440.777,309.697c1.246,0.983-4.362,2.424-7.013,3.271
		c-22.787,7.289-64.123,6.607-86.475-0.935c2.79-1.352,5.675,0.826,8.412,1.403c25.004,5.259,60.965,5.436,82.736-3.273
		C439.353,309.798,439.403,309.773,440.777,309.697z"/>
	<path fill-rule="evenodd" clip-rule="evenodd" fill="#FFFFFF" d="M444.983,311.568c1.664,4.288,1.967,12.326,1.402,17.295
		C444.978,324.317,445.773,315.182,444.983,311.568z"/>
	<path fill-rule="evenodd" clip-rule="evenodd" fill="#FFFFFF" d="M444.983,329.33c-11.712,6.819-30.214,8.856-47.209,8.881
		c0.209-5.977-0.209-11.325-0.467-16.828c17-1.071,32.974-3.173,45.807-8.415C444.335,317.824,444.085,324.153,444.983,329.33z
		 M426.753,324.188c0.047,2.137-0.378,4.742,0.935,5.608c4.643-0.188,8.257-1.401,11.687-2.803c0.651-1.48,0.651-4.128,0-5.61
		C434.832,321.982,430.662,322.954,426.753,324.188z M403.38,326.993c0.212,1.818,0.356,3.697,0.932,5.142
		c6.023,0.992,13.523-0.053,17.765-2.34c-0.217-2.178,0.924-3.003,0-4.673C416.836,324.965,409.325,326.321,403.38,326.993z
		 M413.665,334.938c-1.55,0.222-4.37-0.986-5.141,1.402c11.971,0.59,24.695-2.095,32.718-7.011
		C432.234,330.924,422.864,333.618,413.665,334.938z M405.252,335.406c-0.37,1.801,2.236,1.801,1.866,0
		C406.192,334.628,406.529,335.45,405.252,335.406z"/>
	<path fill-rule="evenodd" clip-rule="evenodd" fill="#FFFFFF" d="M343.082,314.372c1.321-0.385,1.21,0.659,2.337,0.467
		c-0.735,2.769-1.169,11.633-0.938,15.427C341.322,327.789,345.16,318.834,343.082,314.372z"/>
	<path fill-rule="evenodd" clip-rule="evenodd" fill="#FFFFFF" d="M390.294,321.383c-0.181,6.259,0.646,11.507,1.402,16.828
		c-16.825-0.627-32.036-2.869-45.342-7.012c0.723-4.73,0.175-10.733,0.935-15.425C360.492,318.773,374.39,321.083,390.294,321.383z
		 M350.56,328.863c9.606,2.583,22.267,3.952,34.126,2.804c0.376-1.682,1.349-4.61,0.465-6.076c-11.395-1.381-24.453-1.1-34.59-3.74
		C349.717,324.197,350.263,327.363,350.56,328.863z M375.803,334.938c1.855,1.458,8.07,2.341,10.282,0.467
		C381.843,333.939,379.267,333.055,375.803,334.938z"/>
	<path fill-rule="evenodd" clip-rule="evenodd" fill="#FFFFFF" d="M395.902,338.211c-4.501,0.576-2.648-5.487-2.807-8.881
		c-0.139-3.111-0.871-5.664-0.467-7.946c1.68,0.385,2.262-1.053,3.274,0C394.528,326.313,396.164,334.425,395.902,338.211z"/>
	<path fill-rule="evenodd" clip-rule="evenodd" fill="#FFFFFF" d="M436.103,325.122c-0.322,2.795-4.239,1.995-6.546,2.804
		c0-0.778,0-1.558,0-2.336C432.022,326.013,434.751,324.264,436.103,325.122z"/>
	<path fill-rule="evenodd" clip-rule="evenodd" fill="#FFFFFF" d="M382.811,328.395c-0.718,2.39-6.243,1.543-9.344,1.401
		c-7.328-0.331-15.721-1.48-21.507-2.803c0-0.467,0-0.936,0-1.402c0.384-0.089,0.47-0.47,0.938-0.469
		C361.813,327.268,373.922,326.221,382.811,328.395z"/>
	<path fill-rule="evenodd" clip-rule="evenodd" fill="#FFFFFF" d="M419.74,328.863c-4.359,0.164-9.297,2.228-13.089,1.404
		C407.347,327.648,418.753,326.793,419.74,328.863z"/>
	<path fill-rule="evenodd" clip-rule="evenodd" fill="#FFFFFF" d="M446.385,332.135c0.898,2.219,1.989,8.038-0.935,8.881
		c-0.381-2.424-0.465-5.145-0.935-7.479C445.136,333.068,446.257,333.094,446.385,332.135z"/>
	<path fill-rule="evenodd" clip-rule="evenodd" fill="#FFFFFF" d="M343.082,333.538c2.451,0.188,0.153,5.479,0.932,8.412
		C341.931,340.919,343.636,336.101,343.082,333.538z"/>
	<path fill-rule="evenodd" clip-rule="evenodd" fill="#FFFFFF" d="M346.821,334.471c1.124-0.191,1.016,0.854,2.34,0.467
		c-0.882,2.391-0.306,6.24-0.47,9.35C346.123,342.96,347.336,337.852,346.821,334.471z"/>
	<path fill-rule="evenodd" clip-rule="evenodd" fill="#FFFFFF" d="M443.114,334.471c-0.331,3.135,0.481,5.13,0.467,7.948
		c-1.335,0.691-3.093,0.957-4.206,1.869c-1.104-2.164-0.576-5.97-1.405-8.414C439.895,335.616,440.997,334.533,443.114,334.471z"/>
	<path fill-rule="evenodd" clip-rule="evenodd" fill="#FFFFFF" d="M351.495,335.874c1.741-0.029,2.954,0.471,4.206,0.933
		c-1.204,2.714,0.487,5.451,0,8.884c-2.075,0.363-2.804-0.623-4.673-0.47C351.08,342.004,350.777,338.428,351.495,335.874z"/>
	<path fill-rule="evenodd" clip-rule="evenodd" fill="#FFFFFF" d="M437.035,345.222c-1.858-0.145-2.348,1.081-4.206,0.936
		c0.287-3.406-0.815-5.419-0.465-8.881C437.931,334.349,437.007,340.242,437.035,345.222z"/>
	<path fill-rule="evenodd" clip-rule="evenodd" fill="#FFFFFF" d="M357.571,337.276c1.622-0.374,1.797,0.697,3.274,0.467
		c-0.423,3.187,0.659,6.966,0,8.881c-0.782,0-1.561,0-2.34,0C357.854,343.85,357.623,340.652,357.571,337.276z"/>
	<path fill-rule="evenodd" clip-rule="evenodd" fill="#FFFFFF" d="M362.714,338.211c1.102,0.612,3.23,0.198,4.206,0.935
		c0,2.804,0,5.61,0,8.414c-1.508,0.103-1.978-0.826-3.739-0.467C363.465,343.692,362.823,341.22,362.714,338.211z"/>
	<path fill-rule="evenodd" clip-rule="evenodd" fill="#FFFFFF" d="M430.495,338.211c0.492,2.623,0.551,5.679,0.465,8.881
		c-1.622-0.375-1.797,0.697-3.272,0.467c-0.949-2.323-0.147-6.398-0.935-8.881C428.258,338.781,428.731,337.852,430.495,338.211z"/>
	<path fill-rule="evenodd" clip-rule="evenodd" fill="#FFFFFF" d="M425.819,339.146c0,2.961,0,5.923,0,8.881
		c-1.808-0.249-2.281,0.836-4.206,0.469c-0.829-2.082-0.481-7.474-0.467-8.883C423.012,339.768,423.741,338.78,425.819,339.146z"/>
	<path fill-rule="evenodd" clip-rule="evenodd" fill="#FFFFFF" d="M368.79,339.613c1.241,0.004,2.671-0.178,3.271,0.467
		c-0.353,2.833,0.548,6.425,0,7.946c-0.782,0-1.558,0.001-2.334,0C368.918,345.718,369.332,342.186,368.79,339.613z"/>
	<path fill-rule="evenodd" clip-rule="evenodd" fill="#FFFFFF" d="M377.205,340.549c0,2.646,0,5.297,0,7.947
		c-4.885,1.146-1.794-5.688-3.272-7.947C374.715,339.723,375.497,340.965,377.205,340.549z"/>
	<path fill-rule="evenodd" clip-rule="evenodd" fill="#FFFFFF" d="M419.276,340.081c0,2.961,0,5.921,0,8.881
		c-1.246,0-2.493,0-3.739,0C416.104,344.781,412.721,338.758,419.276,340.081z"/>
	<path fill-rule="evenodd" clip-rule="evenodd" fill="#FFFFFF" d="M413.665,348.962c-0.885,0.829-3.088,0.341-4.674,0.469
		c0.356-3.316-0.581-5.341-0.467-8.414C414.875,338.811,413.723,343.806,413.665,348.962z"/>
	<path fill-rule="evenodd" clip-rule="evenodd" fill="#FFFFFF" d="M379.074,341.017c0.935,0,1.87,0,2.804,0c0,2.648,0,5.297,0,7.945
		c-1.427,0.338-1.705-0.477-2.804-0.466C379.074,346.002,379.074,343.508,379.074,341.017z"/>
	<path fill-rule="evenodd" clip-rule="evenodd" fill="#FFFFFF" d="M406.187,341.017c1.619,0.96-0.173,5.443,0.465,8.414
		c-1.088,0-2.181,0-3.272,0c-0.178-2.626-0.718-4.889-0.467-7.948C403.881,341.206,405.987,342.061,406.187,341.017z"/>
	<path fill-rule="evenodd" clip-rule="evenodd" fill="#FFFFFF" d="M384.215,341.483c1.714,0,3.43,0,5.141,0c0,2.494,0,4.986,0,7.479
		c-1.558-0.001-3.113,0-4.671,0C385.05,345.949,383.99,344.359,384.215,341.483z"/>
	<path fill-rule="evenodd" clip-rule="evenodd" fill="#FFFFFF" d="M394.967,341.483c0,2.651,0,5.298,0,7.948
		c-0.932,0-1.872,0-2.804,0c-0.84-1.965-0.309-5.302-0.935-7.481C391.907,341.228,393.621,341.54,394.967,341.483z"/>
	<path fill-rule="evenodd" clip-rule="evenodd" fill="#FFFFFF" d="M396.837,341.483c1.402,0,2.804,0,4.206,0
		c-0.231,2.572,0.515,6.126-0.467,7.948c-1.088,0-2.184,0-3.269,0C396.912,347.019,396.692,344.43,396.837,341.483z"/>
	<path fill-rule="evenodd" clip-rule="evenodd" fill="#FFFFFF" d="M343.082,345.222c2.234,0.883-0.014,6.247,1.4,7.948
		C341.711,352.826,343.669,347.753,343.082,345.222z"/>
	<path fill-rule="evenodd" clip-rule="evenodd" fill="#FFFFFF" d="M446.385,345.222c1.071,0.801,0.173,3.569,0.47,5.142
		C445.573,349.842,445.62,346.327,446.385,345.222z"/>
	<path fill-rule="evenodd" clip-rule="evenodd" fill="#FFFFFF" d="M443.114,346.625c1.694,1.11,0.645,4.966,0.935,7.479
		c-1.291,0.577-2.376,1.366-4.206,1.402c0.326-2.972-0.79-4.505-0.467-7.479C440.674,347.615,442.218,347.444,443.114,346.625z"/>
	<path fill-rule="evenodd" clip-rule="evenodd" fill="#FFFFFF" d="M347.289,347.092c0.467,0,0.932,0,1.402,0
		c1.01,2.262,0.214,6.329,0.47,9.348C346.607,355.252,347.848,350.271,347.289,347.092z"/>
	<path fill-rule="evenodd" clip-rule="evenodd" fill="#FFFFFF" d="M351.027,348.027c1.678,0.508,3.633,0.732,5.141,1.404
		c-0.342,3.458,0.523,5.707,0.47,8.881c-1.716-0.309-3.143-0.907-5.144-0.936C351.147,354.45,350.861,351.468,351.027,348.027z"/>
	<path fill-rule="evenodd" clip-rule="evenodd" fill="#FFFFFF" d="M437.503,348.962c-0.278,2.774,0.823,4.166,0.467,7.013
		c-1.21,0.501-2.292,1.135-4.206,0.933c0.362-2.854-0.612-4.373-0.467-7.01C434.801,349.689,435.831,349.002,437.503,348.962z"/>
	<path fill-rule="evenodd" clip-rule="evenodd" fill="#FFFFFF" d="M358.505,349.898c1.43-0.34,1.703,0.477,2.807,0.466
		c-0.303,2.656,0.612,6.536-0.467,8.415c-0.314,0-0.623,0-0.935,0C358.102,357.16,358.725,353.105,358.505,349.898z"/>
	<path fill-rule="evenodd" clip-rule="evenodd" fill="#FFFFFF" d="M431.427,350.364c-0.35,2.847,0.751,4.24,0.467,7.012
		c-1.138,0.416-2.023,1.089-3.742,0.936c0.287-2.932-0.35-4.946-0.465-7.479C429.193,350.935,429.666,350.006,431.427,350.364z"/>
	<path fill-rule="evenodd" clip-rule="evenodd" fill="#FFFFFF" d="M363.649,350.833c1.441,0.115,2.643,0.473,3.739,0.935
		c0,2.806,0,5.608,0,8.414c-1.068-0.489-2.821-0.296-3.739-0.935C363.649,356.441,363.649,353.637,363.649,350.833z"/>
	<path fill-rule="evenodd" clip-rule="evenodd" fill="#FFFFFF" d="M425.819,351.3c0.974,1.678,0.242,5.055,0.467,7.479
		c-1.16,0.552-2.752,0.676-4.209,0.935c0.231-2.877-0.829-4.466-0.465-7.481C422.775,351.681,424.361,351.559,425.819,351.3z"/>
	<path fill-rule="evenodd" clip-rule="evenodd" fill="#FFFFFF" d="M369.727,351.767c1.427-0.338,1.702,0.479,2.801,0.466
		c0,2.961,0,5.921,0,8.881c-1.43,0.341-1.372-0.806-2.801-0.466C369.727,357.688,369.727,354.727,369.727,351.767z"/>
	<path fill-rule="evenodd" clip-rule="evenodd" fill="#FFFFFF" d="M374.866,352.233c1.13-0.191,1.018,0.855,2.34,0.469
		c-0.306,2.81,0.615,6.849-0.467,8.883c-0.312,0-0.623,0-0.935,0C374.276,359.9,374.426,354.364,374.866,352.233z"/>
	<path fill-rule="evenodd" clip-rule="evenodd" fill="#FFFFFF" d="M420.208,360.181c-1.116,0.282-2.131,0.672-3.739,0.467
		c-0.982-1.822-0.234-5.376-0.467-7.947C421.496,350.556,419.195,356.746,420.208,360.181z"/>
	<path fill-rule="evenodd" clip-rule="evenodd" fill="#FFFFFF" d="M382.346,353.169c0,2.96,0,5.921,0,8.881c-0.935,0-1.87,0-2.804,0
		c0.348-3.463-0.759-5.475-0.467-8.881C379.856,352.343,380.641,353.584,382.346,353.169z"/>
	<path fill-rule="evenodd" clip-rule="evenodd" fill="#FFFFFF" d="M413.665,353.169c-0.25,3.056,0.287,5.322,0.465,7.945
		c-0.885,0.83-3.085,0.342-4.671,0.47c0-2.65,0-5.298,0-7.948C411.264,353.887,411.737,352.802,413.665,353.169z"/>
	<path fill-rule="evenodd" clip-rule="evenodd" fill="#FFFFFF" d="M385.15,353.637c1.703-0.145,3.044,0.074,4.206,0.467
		c0.448,2.513,0.581,5.341,0.467,8.414c-2.039,0.327-2.632-0.794-4.674-0.467C385.15,359.246,385.15,356.441,385.15,353.637z"/>
	<path fill-rule="evenodd" clip-rule="evenodd" fill="#FFFFFF" d="M406.652,353.637c-0.437,3.06,1.368,5.934,0,8.414
		c-0.932,0-1.87,0-2.801,0C404.76,358.454,400.907,352.666,406.652,353.637z"/>
	<path fill-rule="evenodd" clip-rule="evenodd" fill="#FFFFFF" d="M392.163,354.104c0.932,0,1.872,0,2.804,0
		c-0.595,3.216,1.291,6.012,0,8.414c-0.932,0-1.872,0-2.804,0C392.377,359.682,391.846,355.531,392.163,354.104z"/>
	<path fill-rule="evenodd" clip-rule="evenodd" fill="#FFFFFF" d="M397.775,354.104c0.932,0,1.866,0,2.801,0
		c0.392,2.411,0.612,4.999,0.467,7.947c-0.623,0-1.243,0-1.869,0C396.792,361.315,398.128,356.862,397.775,354.104z"/>
	<path fill-rule="evenodd" clip-rule="evenodd" fill="#FFFFFF" d="M343.082,358.312c0.467,0,0.932,0,1.4,0
		c0.893,2.536,0.924,5.934,1.405,8.881C342.264,366.918,343.174,362.114,343.082,358.312z"/>
	<path fill-rule="evenodd" clip-rule="evenodd" fill="#FFFFFF" d="M444.516,359.246c-0.362,3.632,0.607,5.937,0.467,9.348
		c-1.33,0.351-3.199,1.708-4.206,0.935c0.359-3.632-0.607-5.937-0.47-9.349C441.559,359.718,442.774,359.218,444.516,359.246z"/>
	<path fill-rule="evenodd" clip-rule="evenodd" fill="#FFFFFF" d="M347.756,359.714c0.465,0,0.935,0,1.405,0
		c0.957,3.093,0.915,7.184,1.399,10.751C346.46,370.047,348.054,363.934,347.756,359.714z"/>
	<path fill-rule="evenodd" clip-rule="evenodd" fill="#FFFFFF" d="M351.495,360.649c2.273,0.067,3.939,0.737,5.611,1.402
		c0,3.273,0,6.544,0,9.817c-2.223,0.195-3.372-0.68-5.146-0.936C352.218,367.093,351.139,364.59,351.495,360.649z"/>
	<path fill-rule="evenodd" clip-rule="evenodd" fill="#FFFFFF" d="M439.375,370.464c-1.068,0.802-3.296,0.444-4.209,1.404
		c-0.762-2.977-0.618-6.863-0.935-10.283C440.315,358.155,438.287,366.361,439.375,370.464z"/>
	<path fill-rule="evenodd" clip-rule="evenodd" fill="#FFFFFF" d="M358.975,362.051c1.469-0.224,1.825,0.666,2.801,0.933
		c-0.289,4.032,0.64,6.842,0.938,10.285c-0.681-0.878-3.063-0.056-3.739-0.934C359.816,368.708,358.85,366.104,358.975,362.051z"/>
	<path fill-rule="evenodd" clip-rule="evenodd" fill="#FFFFFF" d="M433.296,371.868c-1.21,0.501-2.292,1.135-4.206,0.935
		c0.351-3.779-0.553-6.301-0.467-9.819C434.365,359.42,432.053,368.276,433.296,371.868z"/>
	<path fill-rule="evenodd" clip-rule="evenodd" fill="#FFFFFF" d="M363.649,362.984c1.88-0.318,2.668,0.449,4.206,0.47
		c-0.336,3.919,0.506,6.661,0.467,10.283c-2.081,0.366-2.807-0.623-4.673-0.469C363.282,369.171,364.506,366.303,363.649,362.984z"
		/>
	<path fill-rule="evenodd" clip-rule="evenodd" fill="#FFFFFF" d="M427.688,373.269c-1.639,0.231-3.043,0.698-5.141,0.469
		c-0.034-3.084,0.222-6.452-0.47-8.881c0.924-0.796,2.891-0.538,3.742-1.402C427.894,365.272,427.151,369.91,427.688,373.269z"/>
	<path fill-rule="evenodd" clip-rule="evenodd" fill="#FFFFFF" d="M369.727,363.92c0.932,0,1.866,0,2.801,0
		c0.481,3.261,0.392,7.088,0.937,10.285c-1.093,0-2.187,0-3.272,0C369.171,371.643,369.986,367.241,369.727,363.92z"/>
	<path fill-rule="evenodd" clip-rule="evenodd" fill="#FFFFFF" d="M374.866,364.387c1.43-0.337,1.705,0.479,2.807,0.469
		c-0.364,3.792,0.671,6.182,0.467,9.815c-0.935,0-1.872,0-2.807,0C374.312,372.11,375.13,367.71,374.866,364.387z"/>
	<path fill-rule="evenodd" clip-rule="evenodd" fill="#FFFFFF" d="M379.542,364.856c1.065,0.338,2.389,0.416,3.269,0.934
		c-0.328,3.757,0.71,6.151,0.94,9.348c-1.466-0.096-3.435,0.316-4.209-0.467C379.542,371.399,379.542,368.128,379.542,364.856z"/>
	<path fill-rule="evenodd" clip-rule="evenodd" fill="#FFFFFF" d="M419.74,364.856c1.861,1.878,0.737,6.741,1.872,9.349
		c-2.136-0.263-2.912,0.828-5.144,0.466c0-2.96,0-5.922,0-8.881C416.867,364.783,419.451,365.966,419.74,364.856z"/>
	<path fill-rule="evenodd" clip-rule="evenodd" fill="#FFFFFF" d="M385.62,365.789c1.46,0.096,3.43-0.316,4.203,0.469
		c0.648,2.935,0.793,6.378,1.405,9.349c-1.853-0.174-4.479,0.428-5.608-0.469C385.62,372.022,385.62,368.905,385.62,365.789z"/>
	<path fill-rule="evenodd" clip-rule="evenodd" fill="#FFFFFF" d="M392.163,366.258c1.347,0.056,3.057-0.256,3.739,0.467
		c-0.476,3.39,1.085,6.871,0.467,8.881c-1.246,0-2.493,0-3.742,0C392.539,373.654,391.974,369.854,392.163,366.258z"/>
	<path fill-rule="evenodd" clip-rule="evenodd" fill="#FFFFFF" d="M414.602,366.726c-0.364,3.169,0.634,4.97,0.467,7.945
		c-1.007,0.868-3.428,0.317-5.147,0.467C409.7,370.807,408.966,363.668,414.602,366.726z"/>
	<path fill-rule="evenodd" clip-rule="evenodd" fill="#FFFFFF" d="M398.239,366.726c1.09,0,2.181,0,3.274,0
		c-0.159,3.274,0.612,5.619,0.932,8.412c-1.502-0.101-1.975,0.826-3.739,0.469C398.901,372.295,398.534,369.545,398.239,366.726z"/>
	<path fill-rule="evenodd" clip-rule="evenodd" fill="#FFFFFF" d="M403.85,366.726c1.243,0,2.49,0,3.736,0
		c0.339,2.936,1.138,5.406,1.405,8.412c-1.558,0-3.116,0-4.679,0C404.432,372.065,404.295,369.239,403.85,366.726z"/>
	<path fill-rule="evenodd" clip-rule="evenodd" fill="#FFFFFF" d="M355.701,380.28c3.942-0.202,4.142,3.336,5.611,5.611
		C358.105,387.218,356.627,382.792,355.701,380.28z"/>
	<path fill-rule="evenodd" clip-rule="evenodd" fill="#FFFFFF" d="M361.312,381.682c3.514,0.068,3.722,3.445,5.144,5.61
		C363.154,388.868,362.094,384.176,361.312,381.682z"/>
	<path fill-rule="evenodd" clip-rule="evenodd" fill="#FFFFFF" d="M365.989,383.086c10.257,0.648,23.095,2.765,35.054,3.271
		c-1.132,1.517-2.846,2.448-4.206,3.739c-10.212,0.085-20.489,0.234-28.515-1.87C367.841,386.217,367.157,384.409,365.989,383.086z"
		/>
	<path fill-rule="evenodd" clip-rule="evenodd" fill="#FFFFFF" d="M428.153,384.022c1.03,0.903-1.088,2.62-2.334,2.803
		C426.3,385.595,427.672,385.252,428.153,384.022z"/>
	<path fill-rule="evenodd" clip-rule="evenodd" fill="#FFFFFF" d="M425.351,384.955c-0.946,1.082-1.552,2.497-3.274,2.806
		C422.558,386.214,423.373,385.003,425.351,384.955z"/>
	<path fill-rule="evenodd" clip-rule="evenodd" fill="#FFFFFF" d="M420.208,385.421c1.024,0.907-1.088,2.625-2.337,2.805
		C418.541,387.182,419.37,386.299,420.208,385.421z"/>
	<path fill-rule="evenodd" clip-rule="evenodd" fill="#FFFFFF" d="M416.001,385.891c1.747,0.829-1.519,4.27-4.671,3.272
		C411.712,386.897,413.926,386.46,416.001,385.891z"/>
	<path fill-rule="evenodd" clip-rule="evenodd" fill="#FFFFFF" d="M437.503,386.825c0.69,2.675-3.416,3.217-5.138,3.74
		c-12.349,3.75-25.73,5.458-43.008,4.674c-14.435-0.654-30.364,0.124-36.927-7.947c0.378-0.087,0.467-0.469,0.938-0.467
		c0.414-0.288,0.832-0.563,0.932,0c17.615,9.077,55.393,9.881,76.661,2.805C433.5,388.786,435.132,387.229,437.503,386.825z"/>
	<path fill-rule="evenodd" clip-rule="evenodd" fill="#FFFFFF" d="M405.252,386.825c-0.723,2.082-2.142,3.47-5.144,3.271
		C401.321,388.502,401.85,386.228,405.252,386.825z"/>
	<path fill-rule="evenodd" clip-rule="evenodd" fill="#FFFFFF" d="M410.39,386.825c-0.417,2.542-2.954,2.965-5.608,3.271
		C406.117,388.472,406.66,386.054,410.39,386.825z"/>
	<path fill-rule="evenodd" clip-rule="evenodd" fill="#FFFFFF" d="M437.97,391.5c-1.978,4.099-11.027,5.171-14.955,8.881
		c-0.209,1.607,0.186,2.621,0.467,3.739c6.412,1.853,11.064-1.99,15.423-3.739c-2.086,5.355-9.725,6.998-16.828,8.414
		c-15.871,3.161-41.756,4.995-58.895,0.933c-4.37-1.034-10.129-2.33-11.222-6.542c3.338,0.776,7.836,2.679,11.689,1.401
		c0.587-0.193-0.698-3.802,1.866-3.27c-3.494-4.138-12.382-2.886-14.955-7.948c1.917-0.547,3.708,0.391,5.608,0.935
		c10.777,3.085,25.668,4.547,38.799,5.141C411.228,400.183,426.394,395.322,437.97,391.5z M393.563,404.12
		c0.501,2.305,0.795,4.817,2.339,6.078c6.866-0.661,31.196-0.859,23.374-9.35C410.599,401.833,402.05,402.946,393.563,404.12z
		 M372.999,405.989c-0.128-1.586,0.362-3.789-0.47-4.672c-0.467,0-0.935,0-1.402,0C369.858,402.637,369.764,406.601,372.999,405.989
		z M377.672,407.393c3.567,0.862,3.194-3.735,1.87-5.142c-0.623,0-1.246,0-1.87,0C377.225,403.481,376.768,406.255,377.672,407.393z
		 M387.023,408.795c1.577-0.842,0.94-4.142,0-5.142c-0.626,0-1.246,0-1.872,0C384.202,405.308,384.616,409.002,387.023,408.795z"/>
	<path fill-rule="evenodd" clip-rule="evenodd" fill="#FFFFFF" d="M438.905,396.175c-1.257,4.692-9.021,5.269-13.086,5.608
		C429.441,399.481,435.341,396.973,438.905,396.175z"/>
	<path fill-rule="evenodd" clip-rule="evenodd" fill="#FFFFFF" d="M351.495,398.511c3.038,1.324,7.336,1.388,10.282,2.806
		C359.999,403.952,351.979,401.738,351.495,398.511z"/>
	<path fill-rule="evenodd" clip-rule="evenodd" fill="#FFFFFF" d="M414.602,403.652c1.803,1.374,2.15,0.908,3.739,0.935
		c-0.879,1.462-3.597,1.078-5.611,1.402c0-0.623,0-1.246,0-1.87C413.47,404.081,414.513,404.345,414.602,403.652z"/>
	<path fill-rule="evenodd" clip-rule="evenodd" fill="#FFFFFF" d="M410.858,406.457c-1.096,0.15-1.753,0.738-3.271,0.469
		c0-0.623,0-1.246,0-1.871C409.642,404.988,410.752,404.004,410.858,406.457z"/>
	<path fill-rule="evenodd" clip-rule="evenodd" fill="#FFFFFF" d="M403.85,405.522c1.461-0.217,2.086,0.406,1.869,1.871
		c-0.626,0-1.249,0-1.869,0C403.85,406.769,403.85,406.146,403.85,405.522z"/>
	<path fill-rule="evenodd" clip-rule="evenodd" fill="#FFFFFF" d="M400.108,405.989c0.626,0,1.246,0,1.872,0
		c0.217,1.465-0.409,2.088-1.872,1.869C400.108,407.237,400.108,406.612,400.108,405.989z"/>
	<path fill-rule="evenodd" clip-rule="evenodd" fill="#FFFFFF" d="M432.829,411.132c1.021,0.069,1.007,1.178,0.935,2.337
		c-0.971-1.022-1.511,0.41-2.337-0.467C431.018,411.5,432.64,412.033,432.829,411.132z"/>
	<path fill-rule="evenodd" clip-rule="evenodd" fill="#FFFFFF" d="M360.845,412.534c1.246,0.311,2.89,0.226,2.337,2.338
		C361.293,415.203,360.517,414.424,360.845,412.534z"/>
	<path fill-rule="evenodd" clip-rule="evenodd" fill="#FFFFFF" d="M428.623,412.534c0.311,0,0.623,0,0.935,0
		c-2.309,2.924-7.65,2.978-12.154,3.739c-7.002,1.185-14.53,1.764-22.436,1.403c-9.495-0.431-19.829,0.575-27.112-2.804
		c4.331-1.195,9.458,0.684,14.955,0.935c15.442,0.701,33.973,0.456,45.342-3.273C428.311,412.534,428.464,412.534,428.623,412.534z"
		/>
	<path fill-rule="evenodd" clip-rule="evenodd" fill="#FFFFFF" d="M364.116,413.468c1.686-0.125,3.233-0.117,2.804,1.869
		C366.022,416.101,363.958,415.196,364.116,413.468z"/>
	<path fill-rule="evenodd" clip-rule="evenodd" fill="#FFFFFF" d="M431.894,413.937c0.623,0,1.246,0,1.87,0
		c-1.191,2.529,1.408,7.311-1.4,8.883C431.319,420.95,430.951,416.275,431.894,413.937z"/>
	<path fill-rule="evenodd" clip-rule="evenodd" fill="#FFFFFF" d="M428.153,415.338c2.448,1.142,0.871,6.301,2.342,8.415
		c-14.867,6.436-38.054,6.998-58.434,5.14c-1.107-3.099-2.05-6.359-2.807-9.814C389.251,420.636,411.734,421.541,428.153,415.338z"
		/>
	<path fill-rule="evenodd" clip-rule="evenodd" fill="#FFFFFF" d="M361.777,417.676c0.467,0,0.938,0,1.405,0
		c1.263,2.946,1.703,6.713,3.274,9.347C362.681,427.986,362.881,420.939,361.777,417.676z"/>
	<path fill-rule="evenodd" clip-rule="evenodd" fill="#FFFFFF" d="M365.515,418.611c0.473,0,0.94,0,1.405,0
		c1.324,3.04,2.195,6.529,3.274,9.817C366.142,427.646,366.62,422.337,365.515,418.611z"/>
	<path fill-rule="evenodd" clip-rule="evenodd" fill="#FFFFFF" d="M359.91,420.013c1.324,1.637,1.488,4.43,2.334,6.546
		C359.824,426.019,360.046,422.836,359.91,420.013z"/>
	<path fill-rule="evenodd" clip-rule="evenodd" fill="#FFFFFF" d="M431.894,427.023c0.448,1.658-4.821,3.274-7.948,4.209
		c-12.327,3.68-36.056,3.867-50.948,0.935C392.692,433.305,416.185,432.695,431.894,427.023z"/>
	<path fill-rule="evenodd" clip-rule="evenodd" fill="#FFFFFF" d="M355.701,191.436c13.103-2.319,43.189-5.885,61.235-4.674
		c16.739,1.121,14.613,13.776,20.567,25.707c6.265,0.808,7.884-3.024,12.151-4.206c-4.523,6.535-1.805,20.319-13.083,20.098
		c-3.797-9.257-1.324-21.053-6.546-28.046c-2.456-3.291-10.006-5.937-15.423-6.543c-17.44-1.95-41.951,1.918-58.901,1.87
		c-0.592-1.899-0.862-4.121-0.935-6.545c5.948-3.166,16.605-4.051,27.58-4.675c13.228-0.75,29.296-2.203,39.731-0.466
		c2.893,0.483,5.567,2.487,7.481,4.206c-0.208,0.68-0.409-0.047-0.935,0c-5.108-3.381-15.067-2.756-24.311-2.338
		C387.036,186.61,366.038,185.143,355.701,191.436z"/>
	<path fill-rule="evenodd" clip-rule="evenodd" fill="#FFFFFF" d="M328.591,225.09c2.754,2.043,7.214,10.477,13.556,7.481
		c-10.207-1.64-14.021-9.663-17.295-18.231c5.33,3.436,6.471,16.717,14.491,15.426c6.596-1.061,4.345-17.184,6.076-25.24
		c3.28-4.821,7.547-4.246,17.295-4.675c14.491-0.638,37.328-4.297,53.755-2.337c5.714,0.68,9.503,4.329,11.219,8.414
		c-0.523,7.805-1.822,20.124,2.807,24.305c-1.978-3.36-2.504-10.536-1.405-15.424c1.942,6.921,1.422,17.972,7.945,19.166
		c11.372,2.075,11.4-24.076,18.697-27.114c-2.025,10.283-4.662,19.956-6.543,30.384c4.354-9.048,6.418-20.382,8.415-31.786
		c0.465,14.645-3.238,29.171-8.88,39.266c-11.759,6.472-34.629,10.831-57.029,9.814c-19.729-0.894-42.446,1.146-52.353-8.88
		C333.585,239.832,333.471,231.77,328.591,225.09z M355.239,202.655c1.344-0.366,4.991,0.113,7.475,0
		c4.899-0.224,11.495-0.173,18.23-0.469c19.223-0.844,40.949-4.221,45.342,3.74c-2.498-6.802-9.531-6.907-17.763-6.546
		c-17.557,0.772-42.966,1.104-57.029,2.338c-3.458,4.73-5.742,15.331-4.674,21.503C349.681,216.947,346.958,204.894,355.239,202.655
		z M394.036,226.026c-1.469-5.234-2.431-10.973-4.212-15.893C390.767,215.893,391.963,221.395,394.036,226.026z M389.824,249.396
		c-2.331-9.358-7.645-23.82-11.217-35.058C380.822,227.553,384.413,239.387,389.824,249.396z M442.649,235.842
		c4.437-0.861,7.275-5.804,6.54-10.283C447.047,229.023,445.286,232.873,442.649,235.842z M344.014,229.765
		c1.466,0.218,2.086-0.405,1.872-1.868C344.696,227.953,344.07,228.575,344.014,229.765z M439.842,237.244
		c-1.16-1.5-4.924-2.854-6.546-2.337C434.968,236.198,436.435,237.69,439.842,237.244z M424.884,244.255
		c0.89,5.171,11.734,1.666,12.619-1.871C434.946,239.817,427.449,242.383,424.884,244.255z M343.082,245.19
		c2.61,2.15,8.872,4.818,13.086,2.338c0-0.935,0-1.869,0-2.804C352.647,244.215,344.749,241.791,343.082,245.19z M367.855,248.929
		c1.096,0.931,2.977,1.078,5.144,0.936c0.362-1.037,0.982-1.822,0.935-3.271C372.476,244.611,366.528,244.227,367.855,248.929z
		 M383.284,249.396c0.976,0.271,1.332,1.16,2.801,0.936C388.753,246.155,382.413,243.581,383.284,249.396z"/>
	<path fill-rule="evenodd" clip-rule="evenodd" fill="#FFFFFF" d="M352.897,269.966c-3.502,0.858-7.634,1.092-9.815,3.271
		C343.466,271.578,350.83,267.014,352.897,269.966z"/>
	<path fill-rule="evenodd" clip-rule="evenodd" fill="#FFFFFF" d="M434.699,299.881c0.963-2.156,4.521-1.712,6.543-2.804
		C439.586,298.534,437.135,299.201,434.699,299.881z"/>
	<path fill-rule="evenodd" clip-rule="evenodd" fill="#FFFFFF" d="M355.701,300.816c1.149-1.269,3.205,0.512,4.676,0.467
		C359.554,302.224,357.298,300.651,355.701,300.816z"/>
	<path fill-rule="evenodd" clip-rule="evenodd" fill="#FFFFFF" d="M346.354,372.803c26.564,8.162,72.835,9.317,99.564-0.935
		c1.38,1.188-3.216,3.641-4.676,4.206c-12.165,4.72-31.647,6.01-49.078,6.076C374.771,382.217,356.983,378.117,346.354,372.803z"/>
	<path fill-rule="evenodd" clip-rule="evenodd" fill="#FFFFFF" d="M432.829,383.086c1.461,1.341-1.822,1.89-2.334,2.805
		C429.691,385.206,431.803,383.488,432.829,383.086z"/>
</g>
</svg>
