<?xml version="1.0" encoding="utf-8"?>
<!-- Generator: Adobe Illustrator 17.0.0, SVG Export Plug-In . SVG Version: 6.00 Build 0)  -->
<!DOCTYPE svg PUBLIC "-//W3C//DTD SVG 1.1//EN" "http://www.w3.org/Graphics/SVG/1.1/DTD/svg11.dtd">
<svg version="1.1" id="Layer_1" xmlns="http://www.w3.org/2000/svg" xmlns:xlink="http://www.w3.org/1999/xlink" x="0px" y="0px"
	 width="800px" height="600px" viewBox="0 0 800 600" enable-background="new 0 0 800 600" xml:space="preserve">
<g>
	<g>
		<path d="M326.4,328.05c-11.622-11.719-32.428-19.292-51.552-17.484c-14.177,1.335-31.387,14.28-23.783,27.658
			c-1.373,3.269-1.346,7.252-0.82,10.634c0.865,5.586,5.05,14.547,12.274,12.708c1.945,6.023,8.059,9.986,14.477,9.604
			c7.075-0.421,13.083-9.207,17.345-13.817c6.759-7.293,14.554-11.607,29.638-7.194c3.017-2.677,3.69-8.46,4.105-12.238
			C328.435,334.651,328.931,330.498,326.4,328.05z"/>
		<path fill="#C8C8C8" d="M321.737,346.063c-8.788-4.515-19.529-2.324-27.704,3.092c-3.867,2.558-6.963,6.531-10.172,9.83
			c-3.692,3.798-8.911,8.771-14.302,2.096c-2.486-3.087-3.27-8.171-0.733-12.057c0.508-0.772-1.012-1.264-1.697-0.929
			c-4.284,2.084-5.731,5.575-5.37,9.206c-4.877-0.113-6.91-5.233-7.517-9.726c-0.348-2.547,0.732-10.006,10.158-12.124
			c0.842-0.19-2.978-6.082-10.939-0.729c-2.933-15.67,17.187-21.378,30.246-20.717c15.377,0.779,27.962,7.406,39.84,15.466
			C323.278,331.666,323.666,341.116,321.737,346.063z"/>
		<path fill="#A8A8A6" d="M292.507,315.182c-0.822,10.115,3.02,20.925,8.141,30.549c6.87-2.661,14.525-3.044,21.089,0.332
			c1.929-4.947,1.541-14.397,1.811-16.592C314.019,323.016,304.014,317.525,292.507,315.182z"/>
	</g>
	<g>
		<path d="M338.163,379.385c-9.466,13.818-22.941,10.89-30.905,2.699c-5.33-5.484-10.725-9.854-18.373-11.176
			c-18.801-3.251-23.251,37.73-41.641,18.385c-11.257-11.827-19.203-18.631-30.789-4.877c-12.625,14.992-0.035,28.969,9.637,36.773
			c13.372,10.794,31.408,12.252,46.266,3.277c14.523-8.788,16.869-24.533,21.961-20.535c7.832,6.156,16.392,10.984,27.247,11.858
			c17.383,1.387,29.969-20.517,32.34-32.01C348.63,382.443,343.377,380.98,338.163,379.385z"/>
		<path fill="#C8C8C8" d="M343.728,381.038c-4.253,6.58-9.818,12.24-18.165,13.746c-15.108,2.724-19.488-7.695-30.457-15.18
			c-14.987-10.215-20.242,14.483-31.106,20.423c-8.22,4.504-17.929-0.256-23.408-6.662c-1.722-2.028-3.348-4.323-5.295-6.13
			c-10.311-9.621-21.907,7.586-15.55,17.58c6.587,10.333,17.019,16.309,29.199,17.871c13.766,1.777,20.626-3.198,29.053-12.424
			c6.588-7.222,6.066-13.683,13.178-14.349c7.013-0.646,15.416,10.594,26.545,13.493c9.28,2.419,19.183-7.434,23.632-14.723
			c1.084-1.775,5.438-8.65,6.047-12.628C346.18,381.721,344.947,381.39,343.728,381.038z"/>
		<path fill="#A8A8A6" d="M343.728,381.038c-4.253,6.58-9.818,12.24-18.165,13.746c-0.179,0.038-0.332,0.043-0.517,0.073
			c2.651,3.16,5.586,6.12,8.756,8.826c3.124-2.785,5.776-6.089,7.552-8.999c1.084-1.775,5.438-8.65,6.047-12.628
			C346.18,381.721,344.947,381.39,343.728,381.038z"/>
		<path fill="#DEDEDE" d="M224.293,403.694c-4.139-5.074-0.098-16.412,7.855-11.652
			C240.105,396.804,233.128,414.536,224.293,403.694z"/>
	</g>
	<g>
		<path d="M358.541,373.574c-3.857,10.637-17.177,22.246-25.766,13.551c-3.467-3.517-9.012-7.105-13.861-6.864
			c-6.933,0.334-9.873,6.725-9.852,12.845c0.02,4.788,1.926,9.716,4.868,13.49c-3.179,0.854-5.846,3.753-6.515,6.991
			c-0.982,4.793,1.274,9.412,4.402,12.914c2.844,3.186,6.767,5.304,10.942,6.054c-1.49,5.951,6.033,8.513,11.515,8.802
			c11.727,0.608,21.654-9.128,27.308-17.934c7.38-11.5,13.828-30.795,10.597-42.199C370.512,375.33,360.5,368.2,358.541,373.574z"/>
		<path fill="#C8C8C8" d="M360.947,411.708c-4.249,8.771-12.232,21.363-21.686,24.892c-5.018,1.884-11.896,1.735-13.628-3.763
			c7.093-1.106,13.014-3.125,13.752-8.935c0.08-0.643-0.755-1.577-1.22-1.111c-10.364,10.387-20.775,3.727-23.486,1.221
			c-2.45-2.284-7.265-10.425,1.858-14.638c13.257,7.798,16.671-7.811,14.242-5.452c-11.315,10.963-24.401-12.278-16.133-17.807
			c4.952-3.31,11.108-0.664,15.607,3.904c4.506,4.575,10.33,3.798,14.154,3.091c5.354-0.997,11.525-6.684,17.029-13.911
			C374.784,379.235,363.251,406.963,360.947,411.708z"/>
		<path fill="#A8A8A6" d="M362.868,407.254c3.702-9.31,9.535-28.019-1.432-28.055c-5.504,7.227-11.675,12.915-17.029,13.911
			c-1.158,0.21-2.512,0.413-3.943,0.489C346.508,400.117,354.355,404.859,362.868,407.254z"/>
	</g>
	<path d="M463.833,180.119c-0.072-9.199-0.349-14.671-3.59-23.565c-0.678-1.873-2.411-3.309-2.104-2.078
		c2.243,9.143,3.57,18.659,4.572,27.73C462.776,182.856,463.84,181.701,463.833,180.119z"/>
	<path d="M317.893,270.102c-41.182,43.662,9.465,150.98,87.07,123.442c26.278-9.318,77.746-35.104,91.511-77.518
		c3.381,0.497,5.818,0.549,9.235,0.468c2.392,8.627,2.867,21.719,2.708,29.637c-0.017,0.901,1.148,0.016,1.327-2.8
		c0.541-8.579,0.628-18.329-1.72-26.938c3.505-0.225,7.016-0.754,10.516-1.649c3.297-0.85,6.326-1.995,9.093-3.375
		c6.585,9.27,12.991,21.73,18,31.418c0.896,1.742,1.689-0.408,0.399-3.411c-4.513-10.513-9.729-19.949-16.192-29.192
		c7.994-4.601,13.656-11.409,17.333-19.41c20.311,0.726,35.266-29.063,35.684-41.285c0.055-1.558-13.917,3.274-31.022,2.856
		c-1.326-12.376-6.798-31.636-19.484-44.729c3.052-8.241,10.656-18.582,15.219-27.483c0.662-1.299-33.494-9.292-54.501,2.765
		c-11.462-3.251-20.6-2.4-33.059,1.773c-5.622,1.886-10.842,4.674-14.966,7.842c-4.153-6.085-9.302-11.847-15.102-16.98
		c-2.511-2.221-6.05-3.33-5.233-2.653c7.67,6.318,14.554,15.088,18.537,21.239c-5.75,5.014-10.179,11.186-12.921,18.064
		c-5.871-1.838-9.873-2.553-16.284-2.775c-2.433-0.081-5.352,1.426-4.435,1.421c5.848-0.045,14.204,1.833,19.864,3.495
		c-1.054,2.996-2.144,5.915-2.758,8.877C401.576,222.743,351.143,234.843,317.893,270.102z"/>
	<path fill="#C8C8C8" d="M577.489,255.118c-0.434,1.638-6.877,25.933-28.738,31.799c3.364-9.156,4.657-20.215,3.897-30.538
		C563.202,257.766,577.927,253.464,577.489,255.118z"/>
	<path fill="#C8C8C8" d="M541.285,184.11c-1.058,1.606-8.953,12.478-12.16,19.998c-8.598-8.888-18.974-15.75-30.352-19.476
		C515.317,176.402,542.34,182.514,541.285,184.11z"/>
	<path fill="#A8A8A6" d="M558.76,256.634c-2.096,0.053-4.176,0.002-6.112-0.255c0.76,10.323-0.533,21.381-3.897,30.538
		c3.73-1.003,6.99-2.565,9.863-4.438C560.063,273.964,560.072,265.339,558.76,256.634z"/>
	<path fill="#A8A8A6" d="M509.301,181.337c-3.717,0.66-7.321,1.697-10.529,3.296c11.378,3.725,21.754,10.587,30.352,19.476
		c0.523-1.213,1.189-2.532,1.904-3.876C525.083,192.632,517.662,186.049,509.301,181.337z"/>
	<path fill="#C8C8C8" d="M440.364,370.057c21.42-13.731,46.049-34.341,52.222-54.355c-2.358-0.425-3.886-1.19-6.214-1.853
		c-3.709,6.028-6.892,13.929-10.581,24.026c-0.739,2.043-0.797-2.36,0.545-6.282c3.581-10.419,6.508-15.937,8.054-18.289
		c-21.54-6.897-34.427-16.899-46.433-35.853c-3.104-4.909-3-9.607-2.22-8.265c11.879,20.448,39.433,40.284,67.649,40.142
		c-0.674-2.896,0.778-2.948,1.087-2.215c0.312,0.727,0.728,1.747,0.94,2.403c4.138,0.091,13.152-2.405,17.38-4.431
		c-0.876-1.046-2.068-2.811-2.986-3.819c-1.007-1.094,1.403-1.347,2.449-0.284c0.558,0.578,1.702,1.742,2.726,2.947
		c26.807-15.058,25.91-57.599,9.754-82.95c-15.689-24.593-46.266-42.57-75.449-30.009c-4.119,1.767-7.826,4.191-11.014,6.7
		c1.526,2.942,2.571,5.499,3.799,8.688c0.492,1.284-0.336,3.666-0.916,2.342c-1.276-2.95-3.293-6.811-4.86-9.576
		c-4.751,4.196-8.363,9.191-10.995,14.693c1.14,0.433,2.358,0.726,3.442,1.325c1.573,0.883,2.211,2.449,1.176,2.135
		c-1.206-0.362-4.228-1.277-5.446-1.651c-6.059,13.205-6.133,30.218-2.28,44.794c0.381,1.453-2.416-1.737-4.281-8.374
		c-1.608-5.704-2.616-15.622-1.883-24.479c-12.558,0.62-35.856,6.75-56.451,15.589c-13.333,5.718-32.594,16.651-47.966,32.101
		c-7.237,7.262-21.194,40.095-1.175,75.998c17.233,30.927,44.116,39.442,66.377,37.481
		C407.326,386.93,425.509,379.574,440.364,370.057z"/>
	<path fill="#A8A8A6" d="M512.435,276.498c8.485-1.874,6.55-12.966,1.636-17.831c-4.87-4.833-11.213-7.657-16.235-12.258
		c-3.982-3.643-6.125-7.938-8.369-12.78c-2.45-5.284-5.26-12.893-11.662-14.161c-0.404-0.073-0.643-0.302-0.772-0.582
		c-10.161,1.304-9.682,13.905-6.962,22.535c2.854,9.049,7.41,17.808,14.265,24.493C490.747,272.153,503.219,278.521,512.435,276.498
		z"/>
	<path fill="#A8A8A6" d="M407.821,286.211c-5.089-0.992-10.672,1.119-15.613,2.21c-6.311,1.395-13.8,3.258-19.484-0.896
		c-6.074-4.431-6.68-14.863-6.145-21.628c0.15-1.878,0.601-3.598,1.267-5.163c-7.066,7.252-11.201,17.073-8.534,27.333
		c5.19,19.909,31.045,17.259,43.768,6.594C404.08,293.824,411.79,286.976,407.821,286.211z"/>
	<path fill="#A8A8A6" d="M424.844,348.95c-4.258-9.784-3.254-26.33,4.414-34.955c-9.825-2.995-15.909,11.843-18.126,19.147
		c-2.369,7.809-4.376,17.732,0.409,25.123c9.204,14.195,29.71,6.232,39.945-4.529C441.939,359.212,430.441,361.789,424.844,348.95z"
		/>
	<path fill="#A8A8A6" d="M490.17,321.745c0.974-2.011,1.794-4.038,2.415-6.042c-2.358-0.425-3.886-1.19-6.214-1.853
		c-1.15,1.869-2.25,3.95-3.334,6.195C485.375,320.776,487.763,321.338,490.17,321.745z"/>
	<path fill="#A8A8A6" d="M441.262,282.38c7.756,16.82,22.533,31.017,39.876,37.033c1.365-2.967,2.485-4.937,3.252-6.109
		C464.812,307.029,452.388,298.175,441.262,282.38z"/>
	<path fill="#A8A8A6" d="M427.913,252.046c-1.608-5.704-2.616-15.622-1.883-24.479c-1.291,0.063-2.689,0.187-4.193,0.362
		c0.007,9.743,1.869,19.631,7.234,27.533C428.667,254.446,428.276,253.333,427.913,252.046z"/>
	<path d="M518.992,270.956c13.714-13.929-18.675-39.042-23.796-41.525c-1.199-5.249-3.845-9.905-8.255-12.557
		c-3.808-2.312-9.862-4.596-13.709-0.58c-4.98,5.209-0.916,15.246,1.477,23.722c1.769,6.282,6.587,15.144,8.488,18.092
		C488.405,266.21,507.844,282.284,518.992,270.956z"/>
	<path fill="#F7A194" d="M477.233,231.595c-1.154-3.841-4.337-14.433,3.578-12.891c9.382,1.82,12.658,13.392,13.552,21.444
		c0.206,1.845,2.083-0.555,1.478-7.037c7.542,5.362,14.332,13.911,18.972,22.816c5.792,11.101-5.506,15.015-13.596,10.744
		c-4.912-2.592-9.226-6.57-13.049-10.539C482.548,250.304,479.487,239.115,477.233,231.595z"/>
	<path fill="#D6857D" d="M516.129,259.424c-0.58,2.874-2.52,4.819-7.403,4.119c-8.081-1.152-13.956-8.543-17.949-15.091
		c-2.469-4.038-12.318-23.789-8.103-29.219c-0.599-0.221-1.212-0.408-1.863-0.529c-7.915-1.542-4.733,9.05-3.578,12.891
		c2.254,7.52,5.314,18.709,10.935,24.537c3.823,3.97,8.137,7.948,13.049,10.539C508.384,270.452,518.051,267.803,516.129,259.424z"
		/>
	<path d="M483.873,254.918c0.117-0.531-0.436-0.942-0.827-0.676c-2.009,1.388-5.182,5.576-8.01,3.196
		c-0.418-0.364-0.839,0.136-0.549,0.59C477.242,262.308,483.165,258.154,483.873,254.918z"/>
	<path d="M481.926,250.033c0.105-1.925-0.535-3.788-0.406-5.684c0.169-2.542,3.06-4.201,5.386-3.894
		c0.247,0.03,0.443-0.291,0.226-0.465c-2.356-1.935-6.311-0.496-7.651,2.035c-1.507,2.846-0.603,6.204,1.453,8.493
		C481.326,250.968,481.902,250.471,481.926,250.033z"/>
	<path d="M500.805,264.212c2.039-2.097,1.174-5.338-0.839-7.065c-0.169-0.144-0.458,0.008-0.381,0.228
		c0.726,1.972,1.439,4.304-0.714,5.626c-1.669,1.013-3.9,0.306-5.741,0.488c-0.401,0.035-0.777,0.55-0.46,0.916
		C494.699,266.755,498.716,266.358,500.805,264.212z"/>
	<path d="M522.814,211.339c-4.36-1.628-9.358-0.265-13.612,1.086c-0.287,0.089-0.187,0.597,0.121,0.532
		c2.939-0.63,6.054-0.491,8.997,0.104c1.452,0.284,3.049,0.648,4.224,1.607c1.413,1.147,0.722,3.955,0.566,5.475
		c-0.068,0.588,0.694,1.074,1.171,0.626C527.448,217.801,527.242,212.995,522.814,211.339z"/>
	<path d="M536.824,235.857c1.7-5.11-3.055-8.123-7.587-7.786c-0.703,0.055-0.775,1.041-0.278,1.391
		c1.423,0.993,3.721,2.076,4.594,3.696c0.65,1.19-0.275,2.833-0.831,3.892c-1.563,2.915-3.81,5.76-5.929,8.297
		c-0.273,0.335,0.204,0.765,0.526,0.514C530.89,243.005,535.291,240.473,536.824,235.857z"/>
	<path d="M456.69,350.091c-9.723,6.381-20.862,9.388-23.411,6.218c7.679-5.546,12.924-14.096,14.817-23.287
		c4.575,3.671,11.181-0.962,13.957-5.211c0.217-0.324-0.165-0.759-0.498-0.489c-2.585,2.041-9.579,4.773-12.888,1.909
		c0.055-10.126-4.234-19.596-10.984-22.424c-5-2.092-8.629-0.906-11.163,1.575c-2.829,2.744-4.018,7.122-3.344,10.958
		c-3.816,0.081-7.113,1.147-9.368,4.476c-4.614,6.786-5.5,14.061-0.872,16.633c-2.935,2.168-5.188,7.897-4.247,11.688
		c2.119,8.48,11.944,9.287,19.225,6.895c2.905,2.2,7.109,3.438,12.176,2.107C453.128,357.695,458.097,349.16,456.69,350.091z"/>
	<path fill="#C8C8C8" d="M427.367,355.827c-3.746,1.947-9.61,1.605-13.008-0.727c-4.085-2.823-1.492-9.668,1.493-11.906
		c10.704,2.839,16.021-2.148,15.048-2.157c-4.471-0.035-9.705-0.2-13.862-2.544c-4.325-2.439-4.38-6.451-0.985-11.387
		c3.395-4.925,6.941-5.342,10.145-4.079c3.204,1.271,5.643,4.623,6.688,6.563c0.315,0.6,3.484-6.047-6.032-9.822
		c-1.678-3.884,0.325-7.277,1.871-9.163c1.53-1.886,4.424-3.568,8.167-1.2c10.165,6.437,10.873,22.503,3.604,34.002
		C437.347,348.398,432.613,353.124,427.367,355.827z"/>
	<path d="M403.537,288.945c3.371,1.997,8.545,0.727,11.073-2.2c4.086-4.709,4.265-11.295,1.606-16.732
		c-3.49-7.171-12.275-8.76-19.416-8.905c-1.22-0.017-2.523,0.056-3.857,0.167c-0.253-1.968-0.042-3.707,0.973-5.735
		c1.393-2.808,4.784-6.017,7.506-7.601c1.488-0.864-1.405-0.998-2.888-0.135c-4.464,2.593-10.79,7.834-8.779,13.861
		c-5.834,0.917-12.074,2.973-17.044,5.96c-2.312,1.393-4.699,3.061-6.773,5.028c-0.805-2.15,0-5.59,0.873-8.072
		c1.918-5.51,5.396-9.819,9.607-13.668c0.431-0.398-0.126-1.102-0.621-0.798c-5.319,3.203-10.002,7.252-12.466,13.019
		c-1.411,3.281-2.421,9.338-0.601,12.903c-2.615,3.552-3.52,7.571-2.021,12.714c2.614,8.964,13.18,8.183,19.934,4.128
		c0.166,0.232,0.303,0.478,0.516,0.699c2.549,2.661,6.769,3.175,10.259,2.962c3.834-0.231,8.031-1.707,10.571-4.71
		C402.738,290.938,403.237,289.966,403.537,288.945z"/>
	<path fill="#C8C8C8" d="M384.819,291.087c-2.179-1.593,0.053-7.917,0.731-9.568c0.943-2.319-3.375-0.337-5.996,8.196
		c-5.968,2.162-14.502,4.59-14.926-4.38c-0.439-9.059,6.872-14.255,15.259-17.944c8.364-3.682,21.421-4.428,29.472,0.724
		c4.565,2.909,5.453,8.868,3.829,13.63c-1.787,5.266-7.294,4.722-9.394,3.828c-0.404-5.246-5.299-9.113-4.263-6.713
		c1.378,3.18,1.934,8.411-0.963,10.926C394.171,293.627,388.074,293.463,384.819,291.087z"/>
	<path fill="#FAC6BE" d="M503.05,243.134c4.326,2.922,11.8,12.797,10.042,16.6C511.324,263.537,494.215,237.151,503.05,243.134z"/>
	<path fill="#DEDEDE" d="M433.734,310.533c4.952,2.084,9.487,11.825,8.376,20.719C441.51,336.094,428.848,308.478,433.734,310.533z"
		/>
	<path fill="#DEDEDE" d="M398.72,267.2c-7.55-1.233-16.819,0.788-22.118,5.945C371.308,278.293,411.706,269.333,398.72,267.2z"/>
	<path fill="#DEDEDE" d="M474.153,190.71c8.465-3.008,28.594,3.048,34.735,12.891C517.708,217.742,458.941,196.113,474.153,190.71z"
		/>
	<path fill="#DEDEDE" d="M314.385,310.167c-1.468-12.763,13.436-38.851,29.124-44.242
		C366.042,258.182,317.012,333.101,314.385,310.167z"/>
	<path d="M504.322,211.404c0.486-0.712-0.372-1.448-1.072-1.139c-5.734,2.563-7.838,9.297-5.256,14.884
		c2.071,4.496,8.769,8.255,13.481,5.72c0.386-0.212,0.283-0.759-0.103-0.894c-4.487-1.602-8.45-1.831-10.536-6.784
		C499.011,218.852,502.013,214.838,504.322,211.404z"/>
	<path d="M528.282,251.491c-3.039-1.636-6.196-3.436-8.575-6.028c-1.613-1.755-2.712-3.854-3.162-6.189
		c-0.326-1.762,0.486-3.319,0.55-5.047c0.01-0.279-0.302-0.582-0.598-0.479c-4.847,1.803-2.245,8.898-0.318,11.893
		c2.519,3.92,7.208,8.196,12.02,6.928C528.704,252.433,528.699,251.719,528.282,251.491z"/>
	<path d="M505.474,285.125c0.385,7.579-3.434,12.941-11.583,10.692c-4.524-1.24-8.965-4.005-12.884-6.507
		c-8.689-5.55-16.023-13.554-22.32-21.634c-11.107-14.24-22.085-43.336,3.65-49.481c0.385-0.086-0.68-0.605-1.676-0.592
		c-9.825,0.061-15.703,8.571-16.415,17.61c-1.015,12.931,7.298,27.364,14.806,36.963c8.345,10.682,20.687,20.963,31.756,25.351
		c3.907,1.555,8.866,2.112,12.562-1.079c3.66-3.173,4.471-7.047,2.78-11.516C505.993,284.537,505.454,284.74,505.474,285.125z"/>
	<path d="M445.682,262.008c-0.101-0.192-0.514-0.031-0.569,0.19c-2.458,8.432,4.422,15.448,12.839,18.035
		c0.727,0.223,1.515-0.673,1.03-1.045C452.655,274.328,449.059,268.577,445.682,262.008z"/>
	<path d="M352.821,263.992c5.302-5.135,11.173-7.662,17.241-8.28c0.196-0.248,0.39-0.492,0.619-0.74
		c0.456-0.623,0.987-1.192,1.583-1.663c-7.107,0.684-13.922,3.811-19.884,10.316C352.119,263.903,352.562,264.255,352.821,263.992z"
		/>
	<path d="M431.669,356.055c-0.965,0.669-1.974,1.261-3.023,1.727c-2.797,7.343-7.456,13.384-15.345,12.837
		c-1.121-0.086-1.701,1.692-0.506,2.005c10.511,2.778,16.363-4.838,19.716-13.853C431.971,357.953,431.67,356.998,431.669,356.055z"
		/>
	<path d="M412.617,270.535c1.533,2.446,2.575,5.183,2.316,7.933c6.178,6.584,11.207,13.642,14.29,19.808
		c1.348,2.702,2.312,5.647,3.004,8.74c1.498,0.163,2.959,0.451,4.36,1.013c-0.775-4.021-1.937-7.857-3.589-11.336
		C428.895,288.107,421.548,278.526,412.617,270.535z"/>
	<path d="M401.1,261.782c-3.106-1.955-6.297-3.667-9.538-5.024c-0.017,0.296-0.047,0.593-0.04,0.894
		c0.143,0.874,0.241,1.76,0.296,2.658l0.004,0.007c0.003,0.074,0.007,0.137,0.012,0.213l0.005,0.041
		c1.026,0.522,2.054,1.084,3.069,1.664C396.946,261.528,399.054,261.415,401.1,261.782z"/>
</g>
</svg>
