<?xml version="1.0" encoding="utf-8"?>
<!-- Generator: Adobe Illustrator 17.0.0, SVG Export Plug-In . SVG Version: 6.00 Build 0)  -->
<!DOCTYPE svg PUBLIC "-//W3C//DTD SVG 1.1//EN" "http://www.w3.org/Graphics/SVG/1.1/DTD/svg11.dtd">
<svg version="1.1" id="Layer_1" xmlns="http://www.w3.org/2000/svg" xmlns:xlink="http://www.w3.org/1999/xlink" x="0px" y="0px"
	 width="800px" height="600px" viewBox="0 0 800 600" enable-background="new 0 0 800 600" xml:space="preserve">
<g>
	<path fill-rule="evenodd" clip-rule="evenodd" d="M255.248,461.773c-6.625-5.18-12.477-10.229-15.568-18.515
		c-1.632-4.378-2.696-9.272-2.328-14.46c0.335-4.751,2.348-9.134,4.41-13.329c-7.734-7.623-13.577-16.594-10.884-31.596
		c-11.463-8.8-22.424-33.875-18.531-59.241c-5.401-4.299-13.086-9.639-18.763-17.004c-7.138-9.258-14.792-24.262-18.084-47.009
		c-2.404-16.619-0.29-26.26,3.822-25.655c7.715,1.14,56.153,17.802,76.036,27.555c1.214-0.89,2.82-2.089,4.245-3.294
		c1.623-12.245,4.558-24.63,14.31-40.874c7.234-12.054,17.316-23.874,28.468-33.414c12.966-11.087,28.808-21.522,41.38-27.391
		c12.572-5.863,29.954-12.481,46.424-16.773c16.472-4.296,43.745-8.414,62.271-7.499c18.524,0.914,50.293,6.967,65.013,11.683
		c29.485,9.44,54.222,25.319,62.579,33.393c15.765,15.23,36.517,40.371,44.312,53.816c7.793,13.447,14.816,22.239,19.804,39.582
		c4.189,14.549,7.179,40.107,6.641,53.509c-0.754,18.774-6.113,45.218-12.475,61.325c-9.301,23.542-17.947,40.411-51.998,62.6
		c-9.444,6.154-41.594,22.241-72.905,30.359c-23.18,6.008-51.479,10.044-68.731,12.389c-16.7,2.27-47.189,3.033-75.011,2.834
		c-24.003-0.173-53.957-2.515-60.769-3.118c-17.021-1.5-42.047-2.737-69.064-7.962c-27.017-5.225-43.962-17.3-58.768-29.483
		c-9.456-7.783-15.184-15.504-21.268-27.325c-5.719-11.11-10.097-26.728-6.474-42.685c1.397-6.145,4.42-11.914,8.721-15.676
		c8.923-7.806,23.66-10.625,31.56-2.509c2.955,3.033,6.102,9.606,5.148,15.881c-1.552,10.192-10.281,17.076-9.713,29.644
		c0.675,14.914,14.408,24.674,24.264,32.117c5.749,4.342,12.496,8.082,19.092,10.997
		C239.159,457.625,246.469,460.29,255.248,461.773z"/>
	<path fill-rule="evenodd" clip-rule="evenodd" fill="#AA0015" d="M590.366,194.571c-6.062-6.374-12.394-12.393-18.883-17.943
		c-4.87-4.165-11.781-8.883-20.482-13.57c17.851,21.779,16.548,51.533,8.8,77.343c-8.255,27.49-22.71,53.403-39.901,76.496
		c2.251-0.128,4.405-0.138,6.44-0.056c2.128,0.086,4.247,0.316,6.343,0.647c18.019-17.52,32.656-38.073,45.305-59.593
		c6.589-11.213,13.035-22.762,14.894-35.784C594.237,212.627,593.333,203.404,590.366,194.571z"/>
	<path fill-rule="evenodd" clip-rule="evenodd" fill="#C6331E" d="M561.89,192.557c-2.261-12.59-8.057-23.78-17.071-32.674
		c-10.768-5.267-23.765-10.323-38.65-14.312c-3.159-0.846-6.155-1.62-9.029-2.332c2.486,5.338,3.882,11.465,4.895,15.952
		c2.758,12.224,4.204,24.836,5.398,37.296c2.03,21.201,1.353,42.611-1.724,63.685c-3.307,22.655-9.05,44.901-16.859,66.432
		c9.51-5.846,19.276-8.552,27.919-9.452c17.915-23.756,33.266-50.732,41.315-79.341C562.182,223.246,564.593,207.596,561.89,192.557
		z"/>
	<path fill-rule="evenodd" clip-rule="evenodd" fill="#C6331E" d="M321.171,208.932c10.731,7.97,20.124,17.699,26.822,29.227
		c4.452,7.661,7.673,15.75,9.984,24.088c2.556,1.881,5.047,3.945,7.448,6.221c6.403-4.827,14.044-9.031,21.907-12.497
		c-0.597-2.601-1.229-5.193-1.917-7.776c-7.998-30.11-21.467-63.284-46.751-83.537c-11.286,6.546-24.913,15.354-29.237,19.052
		c-4.217,3.606-8.48,7.611-12.579,11.841C305.549,198.627,313.646,203.341,321.171,208.932z"/>
	<path fill-rule="evenodd" clip-rule="evenodd" fill="#AA0015" d="M310.829,242.907c1.498,1.219,2.936,2.492,4.341,3.794
		c1.608,0.143,3.241,0.317,4.905,0.536c11.705,1.54,23.865,5.548,34.939,12.928c-2.019-6.636-4.673-13.078-8.144-19.21
		c-6.708-11.843-15.984-22.009-27.039-30.091c-7.732-5.65-15.912-10.442-24.772-13.445c-7.52,7.982-14.355,16.677-19.119,25.064
		c-0.87,1.535-1.752,3.152-2.622,4.833C286.984,229.101,299.966,234.072,310.829,242.907z"/>
	<path fill-rule="evenodd" clip-rule="evenodd" fill="#C6331E" d="M309.489,244.84c-10.991-8.726-23.697-13.628-37.291-15.304
		c-3.99,8.1-7.539,17.588-8.442,27.349c13.185-6.964,28.363-11.477,47.647-10.454C310.771,245.896,310.141,245.358,309.489,244.84z"
		/>
	<path fill-rule="evenodd" clip-rule="evenodd" fill="#AA0015" d="M414.467,218.362c-3.204-14.662-7.121-29.462-13.101-43.291
		c-4.127-9.541-10.286-22.69-20.41-28.027c-13.669,4.252-24.741,8.736-29.329,10.732c-2.632,1.145-6.471,3.177-10.788,5.634
		c6.453,5.322,12.151,11.527,17.085,18.238c15.784,21.472,25.856,47.196,31.753,73.312c5.227-2.197,10.506-4.064,15.544-5.568
		c4.614-1.378,9.166-2.556,13.894-3.555C417.986,236.622,416.454,227.456,414.467,218.362z"/>
	<path fill-rule="evenodd" clip-rule="evenodd" fill="#C6331E" d="M313.742,409.424c12.299-3.255,23.257-9.845,31.929-18.66
		c-2.37,0.586-4.786,1.122-7.274,1.572c-9.59,7.153-22.329,4.803-27.496,2.058c-2.208,14.165-26.315,15.728-28.675,0.719
		c-7.961,1.882-14.959,2.229-21.06,1.639C275.289,409.369,294.509,414.513,313.742,409.424z"/>
	<path fill-rule="evenodd" clip-rule="evenodd" fill="#AA0015" d="M280.438,416.762c14.52,6.304,30.783,7.838,46.164,3.743
		c22.757-6.06,41.661-22.465,50.801-43.377c-7.757,5.165-16.948,9.46-27.399,12.478c-9.375,10.614-21.772,18.597-35.791,22.112
		c-21.177,5.307-42.205-0.678-57.08-15.511c-2.392-0.417-4.617-0.982-6.7-1.639C259.554,403.164,268.789,411.701,280.438,416.762z"
		/>
	<path fill-rule="evenodd" clip-rule="evenodd" fill="#C6331E" d="M388.181,423.021c-2.36-5.83-12.303-17.549-15.298-22.867
		c2.22,1.145,5.121,3.786,8.034,7.298c3.565-11.436,8.278-22.646,10.435-34.447c0.568-3.113,1.063-6.236,1.496-9.37
		c-3.364,3.908-7.347,7.593-11.884,10.969c-8.693,22.908-28.58,41.455-52.921,47.937c-15.627,4.159-32.492,3.331-47.375-3.132
		c-14.18-6.158-24.762-16.784-35.827-26.972c-4.611-2.079-8.246-4.538-10.97-6.644c-2.085,13.129,2.296,21.555,9.715,27.112
		c2.057-2.727,5.214-7,7.89-7.192c-0.16,2.235-2.994,4.661-5.099,7.509c-2.103,2.85-5.655,8.06-6.747,14.297
		c-1.294,7.387,0.943,11.882,3.214,16.364c3.836,7.567,10.392,14.711,20.311,19.51c2.852,1.378,20.149,3.775,24.499,4.196
		c9.014,0.867,19.101,2.39,26.646,2.187c11.66-0.312,26.076,0.663,35.279-3.853c1.132-0.555,8.536-5.657,4.576-7.934
		c-2.078-1.197-6.112,2.478-8.942,0.102c3.287-2.092,12.844-1.248,12.158-6.877c-0.743-6.099-12.609,0.929-14.785,0.24
		c1.68-3.18,6.211-3.128,8.934-5.128c-3.542-5.788-10.45-2.026-14.629,0.546c-4.18,2.574-10.001,5.212-14.503,7.225
		c-4.505,2.013-13.057,4.76-22.124,5.388c-10.316,0.712-20.488-1.332-29.072-3.971c-13.621-4.187-30.766-14.569-21.445-31.784
		c1.263-2.335,3.309-6.514,5.731-6.243c-1.158,4.983-7.115,9.207-6.404,15.702c1.131,10.328,10.884,16.28,20.519,19.165
		c-3.066-3.745-10.051-8.369-6.049-14.943c-2.158-4.433,2.352-8.58,6.688-6.891c0.931-1.747,1.268-3.583,2.688-4.481
		c5.224-3.3,10.606,2.264,13.835,5.434c2.608,2.563,5.398,5.136,8.266,6.847c3.02,1.798,7.02,4.192,11.959,6.409
		c23.209,1.729,49.185-7.515,61.149-26.672c-1.933-1.921-5.21-4.228-5.987-6.608c2.579,0.578,5.086,2.322,7.215,4.51
		c0.539-0.978,1.046-1.979,1.512-3.006c0.62-1.367,2.872-0.604,2.244,0.776c-0.64,1.411-1.346,2.776-2.114,4.098
		c1.998,2.503,3.48,5.282,4.072,7.518c3.59,13.568-5.91,20.798-15.201,24.066c0.679,4.053-1.729,5.919-3.473,7.833
		c1.916,2.291-0.032,5.996-0.908,7.649c12.756-5.049,29.551-8.054,34.564-22.017C392.555,435.905,390.341,428.363,388.181,423.021z"
		/>
	<path fill-rule="evenodd" clip-rule="evenodd" fill="#AA0015" d="M313.452,447.283c3.457,1.181,7.246,2.184,11.374,2.83
		c6.939-1.019,15.774-10.333,23.769-8.83c2.249,0.426,4.681,1.84,5.295,3.796c1.424-0.081,2.735,0.545,4.234,2.381
		c4.35,0.268,10.318-4.512,12.808-7.511c4.653-5.603,2.709-15.133-1.213-20.051C358.224,437.545,335.38,447.014,313.452,447.283z"/>
	<path fill-rule="evenodd" clip-rule="evenodd" fill="#AA0015" d="M406.034,330.803c0.106,9.919-3.472,20.012-10.236,29.154
		c-0.627,5.484-1.482,10.939-2.711,16.287c-2.621,11.403-7.01,22.282-10.386,33.472c4.336,5.769,8.391,13.216,9.907,20.246
		c2.24,10.373-1.526,18.113-7.129,23.363c-8.841,8.287-24.327,11.288-35.779,16.016c10.026,0.372,22.847,0.462,34.661,0.261
		c8.422-13.449,13.483-28.821,17.424-44.113c5.66-21.971,10.402-44.263,13.937-66.66c2.085-13.21,3.695-26.554,4.702-39.95
		C415.909,324.207,411.241,328.263,406.034,330.803z"/>
	<path fill-rule="evenodd" clip-rule="evenodd" fill="#C6331E" d="M474.148,233.256c-0.898-20.817-3.233-42.269-11.077-61.792
		c-3.833-9.535-8.638-18.343-16.387-25.358c-3.735-3.383-7.718-6.469-11.617-9.65c-9.446,0.375-26.91,3.129-42.111,7.135
		c-3.086,0.814-6.105,1.672-9.024,2.547c9.478,6.119,15.509,18.346,19.566,27.897c6.866,16.165,11.441,33.509,14.695,50.699
		c1.297,6.849,2.355,13.734,3.199,20.642c6.315-1.239,13.006-2.166,20.641-2.809c6.123-0.514,15.743,0.575,16.067,4.098
		c0.29,3.164-3.818,10.451-5.116,13.121c-4.611,9.474-8.806,22.218-18.31,38.217c-3.981,6.702-7.776,12.617-11.625,17.626
		c-1.057,15.971-3.001,31.889-5.647,47.633c-3.684,21.932-8.212,43.87-13.992,65.366c-3.809,14.163-8.607,28.333-16.218,40.921
		c8.934-0.192,17.093-0.552,22.742-1.091c0.581-1.205,0.927-2.679,1.55-3.84c-2.344-1.69-4.023-4.883-2.671-8.613
		c1.113-3.07,6.274-6.205,6.274-6.205s-1.393-2.351-1.172-4.027c0.589-4.464,7.695-6.359,13.942-7.079
		c11.005-22.527,20.38-45.685,28.51-69.38C471.39,325.525,476.139,279.302,474.148,233.256z"/>
	<path fill-rule="evenodd" clip-rule="evenodd" fill="#AA0015" d="M446.687,438.7c1.958,0.192,3.984,0.482,6.035,0.827
		c0.628-0.943,1.259-1.88,1.91-2.802c6.126-8.686,12.739-17.426,16.311-27.46c-6.141-10.653-10.185-23.293-9.63-37.893
		c0.256-6.739,2.581-24.211,18.38-38.016c1.909-1.668,3.852-3.164,5.808-4.535c14.441-38.845,22.747-80.5,20.366-121.924
		c-0.795-13.78-2.378-27.908-4.97-41.486c-1.288-6.752-2.808-13.644-5.637-19.954c-0.436-0.974-0.923-2.002-1.466-3.029
		c-22.074-5.26-36.472-6.515-55.043-6.08c5.42,4.321,10.87,8.608,15.257,13.953c7.747,9.435,12.329,21.447,15.522,33.051
		c6.903,25.086,7.77,51.634,7.357,77.488c-0.375,23.392-2.615,46.816-7.377,69.752c-4.709,22.687-12.21,44.561-20.622,66.159
		c-5.512,14.154-11.654,28.026-18.268,41.693c0.588-0.039,1.154-0.071,1.694-0.093C437.461,438.142,442.888,438.328,446.687,438.7z"
		/>
	<path fill-rule="evenodd" clip-rule="evenodd" fill="#C6331E" d="M484.352,426.939c-4.245-4.431-8.326-9.461-11.85-15.084
		c-3.908,9.802-10.58,18.264-16.496,27.049c-0.241,0.358-0.479,0.719-0.719,1.081c9.231,1.732,18.881,4.388,26.503,5.074
		c7.876,0.708,15.447,0.625,18.967-2.643C494.676,438.055,489.595,432.414,484.352,426.939z"/>
	<path fill-rule="evenodd" clip-rule="evenodd" fill="#C6331E" d="M619.761,231.913c-7.494-11.729-16.23-23.001-25.725-33.408
		c1.992,7.722,2.526,15.761,1.219,23.768c-2.051,12.583-7.562,23.688-13.953,34.636c-12.847,22.008-27.548,43.053-45.785,61.083
		c3.181,0.655,6.287,1.538,9.266,2.574c0.064-0.06,0.138-0.119,0.223-0.17c19.539-11.886,38.324-25.076,52.763-42.897
		C607.262,265.778,620.078,248.299,619.761,231.913z"/>
	<path fill-rule="evenodd" clip-rule="evenodd" fill="#AA0015" d="M621.976,235.453c-1.349,15.073-12.03,30.563-20.701,41.444
		c-14.773,18.536-33.587,32.32-53.734,44.686c5.168,2.013,9.856,4.431,13.723,6.783c0.25-0.136,0.561-0.178,0.914-0.06
		c8.741,2.91,18.692-0.931,26.502-4.793c7.864-3.884,15.436-8.709,22.287-14.151c13.572-10.779,22.482-25.511,26.863-41.814
		C633.79,256.715,628.389,245.92,621.976,235.453z"/>
	<path fill-rule="evenodd" clip-rule="evenodd" fill="#C6331E" d="M639.197,271.372c-4.99,16.211-14.436,31.007-28.536,41.172
		c-7.532,5.431-15.267,10.706-23.848,14.428c-6.481,2.807-13.869,5.317-21.026,4.495c4.47,3.523,8.385,8.035,11.696,12.836
		c0.178-0.092,0.393-0.138,0.648-0.111c29.602,3.082,58.03-19.878,67.087-47.47C644.181,288.359,642.111,279.863,639.197,271.372z"
		/>
	<path fill-rule="evenodd" clip-rule="evenodd" fill="#AA0015" d="M586.266,361.292c28.016,1.593,50.889-19.441,59.958-44.265
		c0.047-5.113-0.101-10.159-0.488-15.081c-10.713,26.192-37.909,47.098-66.709,44.672c1.428,2.235,2.733,4.505,3.9,6.745
		C584.166,355.741,586.07,358.513,586.266,361.292z"/>
	<path fill-rule="evenodd" clip-rule="evenodd" fill="#AA0015" d="M560.581,386.592c1.932-14.741,4.727-30.505,12.443-43.504
		c-0.686-0.868-1.395-1.741-2.146-2.607c-3.941-4.553-9.238-8.864-15.644-12.4c-2.146,2.636-3.994,5.513-5.557,8.318
		c-4.665,8.366-8.096,17.584-10.38,26.851c-5.482,22.255-6.065,49.862,7.36,69.717c4.562-1.34,9.245-4.282,14.037-7.585
		c-2.712-2.929-2.174-9.784-2.154-12.93C558.587,403.81,559.457,395.158,560.581,386.592z"/>
	<path fill-rule="evenodd" clip-rule="evenodd" fill="#C6331E" d="M474.085,379.564c-0.159-15.956,3.966-33.433,12.387-48.061
		c-5.828,4.362-10.377,9.45-12.929,13.701c-4.314,7.187-7.562,12.764-8.911,23.708c-1.349,10.946,2.539,29.66,9.454,40.819
		c5.319,8.586,11.873,15.461,18.812,22.638c2.311,2.392,12.512,10.441,12.512,10.441s-5.603,3.92-12.474,4.448
		c-20.621,1.589-39.776-8.702-60.967-6.7c-4.988,0.47-18.028,1.85-14.437,8.153c6.968-2.107,14.883-3.304,16.856-1.173
		c-4.381,1.346-8.435,1.312-12.955,2.698c-3.634,1.117-8.911,3.294-10.121,6.478c-0.893,2.353-0.144,5.433,1.784,5.682
		c2.221-1.642,3.437-2.68,8.881-4.365c5.446-1.683,7.448-1.963,7.698-0.594c0.216,1.181-5.55,2.192-6.759,2.765
		c-3.781,1.791-9.122,3.185-9.486,7.777c20.453-0.923,40.291-4.424,58.824-8.636c14.88-3.38,30.39-8.008,44.191-12.851
		C492.389,432.929,474.361,407.419,474.085,379.564z"/>
	<path fill-rule="evenodd" clip-rule="evenodd" fill="#AA0015" d="M524.408,438.608c-17.835-17.685-22.815-46.06-18.963-69.914
		c3.088-19.127,12.3-37.356,27.979-48.24c-0.99-0.176-1.991-0.334-3.007-0.473c-10.083-1.364-17.971-0.355-30.265,4.038
		c-3.166,1.132-6.176,2.614-8.982,4.308c-9.901,14.872-14.89,33.669-14.723,50.433c0.279,27.996,18.043,53.55,42.702,66.607
		c2.778-1.016,8.513-3.261,8.794-3.383C526.913,441.13,525.357,439.548,524.408,438.608z"/>
	<path fill-rule="evenodd" clip-rule="evenodd" fill="#C6331E" d="M537.301,361.504c2.714-10.243,6.513-20.647,12.323-29.61
		c1.091-1.684,2.273-3.332,3.542-4.905c-4.937-2.502-10.474-4.543-16.531-5.896c-17.621,11.155-27.36,31.817-29.44,52.527
		c-2.342,23.298,3.824,52.02,23.229,67.464c5.093-2.205,9.783-4.547,14.429-6.764C530.904,413.731,531.182,384.606,537.301,361.504z
		"/>
	<path fill-rule="evenodd" clip-rule="evenodd" fill="#C6331E" d="M561.227,419.236c0.129,0.973,0.248,3.26,1.039,4.392
		c12.969-9.415,24.008-21.547,27.957-37.242c0.367-1.462,2.609-0.678,2.244,0.776c-1.298,5.167-3.359,9.957-5.986,14.405
		c0.005,0.007,0.011,0.012,0.018,0.017c6.422,8.458,18.876,12.448,29.147,13.406c1.211,0.115,2.455,0.186,3.712,0.211
		c2.118-2.694,3.912-5.338,5.323-7.88c11.644-20.992,20.058-53.1,21.372-83.803c-10.684,23.21-32.994,41.678-60.023,40.104
		c-0.933-0.053-1.231-0.939-0.982-1.605c-2.257-3.526-5.407-10.04-10.498-16.936c-6.935,12.104-9.6,26.691-11.406,40.231
		c-1.045,7.829-1.912,15.717-2.163,23.614C560.874,412.348,560.782,415.835,561.227,419.236z"/>
	<path fill-rule="evenodd" clip-rule="evenodd" fill="#AA0015" d="M579.685,448.453c2.425-1.422,4.769-2.877,7.011-4.381
		c12.334-8.266,23.243-17.642,30.796-26.58c-0.138-0.012-0.274-0.018-0.411-0.029c-11.159-0.871-24.632-4.763-31.91-13.778
		c-3.753,5.8-9.43,11.921-14.747,16.653C568.752,430.036,572.597,440.953,579.685,448.453z"/>
	<path fill-rule="evenodd" clip-rule="evenodd" fill="#C6331E" d="M555.042,460.6c7.911-3.35,15.569-7,22.601-10.982
		c-6.986-7.672-11.114-17.819-9.351-27.201c-4.764,4.445-10.489,8.533-17.104,12.409C550.265,443.615,551.627,452.63,555.042,460.6z
		"/>
	<path fill-rule="evenodd" clip-rule="evenodd" fill="#C6331E" d="M501.696,478.544c7.759-1.958,15.549-4.198,23.303-6.768
		c1.315-0.433,2.645-0.897,3.97-1.346c-0.336-0.638-0.647-1.294-0.924-1.979c-2.792-6.891-2.278-15.456,0.575-22.634
		c-0.549,0.236-17.316,6.281-23.172,7.941C500.384,460.762,499.161,470.31,501.696,478.544z"/>
	<path fill-rule="evenodd" clip-rule="evenodd" fill="#AA0015" d="M444.94,468.104c-5.969,0.955-11.73,1.775-16.371,2.351
		c-3.03,0.379-6.596,0.714-10.306,1.004c-3.917,3.883-6.288,9.214-5.609,14.859c0.208,1.736,0.645,3.329,1.275,4.776
		c8.185-0.441,16.917-1.077,26.044-2c-0.144-0.839-0.255-1.695-0.293-2.594C439.402,480.097,441.342,473.534,444.94,468.104z"/>
	<path fill-rule="evenodd" clip-rule="evenodd" fill="#C6331E" d="M299.13,471.204c-6.782-0.594-13.58-1.42-20.132-2.42
		c-3.646,2.869-6.056,7.254-6.64,12.118c-0.204,1.711-0.216,3.407-0.057,5.067c7.665,0.835,15.267,1.452,22.834,2.002
		c-0.094-0.798-0.167-1.604-0.189-2.409C294.798,480.469,296.085,475.081,299.13,471.204z"/>
	<path fill-rule="evenodd" clip-rule="evenodd" fill="#AA0015" d="M169.309,432.846c1.491-4.862,4.39-9.732,9.172-12.083
		c3.323-1.631,6.45-1.514,9.543-0.756c-1.337-3.425-2.095-7.111-1.954-11.055c0.407-11.351,7.968-17.202,9.608-27.498
		c0.836-5.239-0.941-9.058-3.399-12c-7.112-8.505-22.084-4.248-28.432,0.665c-10.3,7.978-10.64,29.005-6.47,42.975
		c2.675,8.96,6.375,16.387,11.158,22.97C168.737,434.955,168.993,433.875,169.309,432.846z"/>
	<path fill-rule="evenodd" clip-rule="evenodd" fill="#C6331E" d="M189.317,422.909c-3.467-1.112-6.939-1.583-10.311,0.515
		c-3.943,2.453-6.361,6.62-7.432,11.016c-0.354,1.451-0.601,3.004-0.74,4.605c3.098,3.832,6.589,7.398,10.506,10.832
		c1.624,1.428,3.221,2.79,4.813,4.11c2.399-7.265,7.264-13.587,13.655-17.639C195.814,432.584,191.933,428.082,189.317,422.909z"/>
	<path fill-rule="evenodd" clip-rule="evenodd" fill="#AA0015" d="M203.785,439.856c-0.652-0.542-1.316-1.109-1.98-1.693
		c-6.486,3.87-11.368,10.236-13.515,17.564c3.16,2.531,6.358,4.889,9.812,7.141c4.479,2.918,9.162,5.576,14.138,7.978
		c2.009-6.923,6.819-13.163,13.092-16.787C217.024,449.881,210.226,445.2,203.785,439.856z"/>
	<path fill-rule="evenodd" clip-rule="evenodd" fill="#C6331E" d="M253.74,463.779c-5.977-1.396-12.255-2.857-17.079-4.718
		c-2.999-1.16-5.802-2.363-8.458-3.609c-6.566,3.16-11.722,9.489-13.64,16.489c9.381,4.295,19.844,7.702,32.059,10.181
		c-0.051-1.08-0.026-2.182,0.088-3.299C247.324,472.917,249.861,467.762,253.74,463.779z"/>
	<path fill-rule="evenodd" clip-rule="evenodd" fill="#AA0015" d="M275.642,468.254c-6.526-1.07-12.756-2.305-18.406-3.654
		c-0.18-0.042-0.365-0.086-0.545-0.129c-4.15,3.724-6.965,8.789-7.37,14.531c-0.088,1.246-0.069,2.46,0.044,3.646
		c0.526,0.099,1.04,0.203,1.572,0.3c6.365,1.142,12.665,2.02,18.923,2.742C269.349,479.24,271.298,472.693,275.642,468.254z"/>
	<path fill-rule="evenodd" clip-rule="evenodd" fill="#AA0015" d="M330.273,472.075c-0.822,0.021-1.649,0.039-2.467,0.065
		c-7.983,0.27-16.647,0-25.413-0.668c-3.674,3.442-5.127,9.108-4.838,14.27c0.046,0.809,0.139,1.618,0.257,2.423
		c5.853,0.418,11.688,0.814,17.52,1.265c2.875,0.224,6.275,0.439,10.043,0.643c-0.276-1.401-0.417-2.845-0.391-4.328
		C325.074,480.393,327.08,475.802,330.273,472.075z"/>
	<path fill-rule="evenodd" clip-rule="evenodd" fill="#C6331E" d="M361.224,472.387c-9.347-0.261-18.442-0.493-27.307-0.381
		c-4.036,3.773-6.667,8.734-6.307,14.686c0.074,1.212,0.254,2.39,0.526,3.525c8.064,0.404,17.544,0.754,27.202,1.019
		c-0.338-1.383-0.496-2.86-0.443-4.427C355.079,481.234,357.485,476.234,361.224,472.387z"/>
	<path fill-rule="evenodd" clip-rule="evenodd" fill="#AA0015" d="M387.751,472.889c-7.766-0.005-15.369-0.192-22.815-0.398
		c-4.227,3.428-7.224,8.262-7.41,13.828c-0.061,1.805,0.182,3.465,0.657,4.991c9.284,0.238,18.617,0.388,26.899,0.428
		c-0.791-1.641-1.349-3.403-1.591-5.259C382.795,481.11,384.463,476.452,387.751,472.889z"/>
	<path fill-rule="evenodd" clip-rule="evenodd" fill="#C6331E" d="M414.58,471.733c-9.754,0.68-19.644,1.068-22.978,1.14
		c-4.185,3.308-6.685,8.188-5.409,13.856c0.405,1.808,1.073,3.488,1.953,5.021c6.796,0.007,12.738-0.067,17.148-0.245
		c1.878-0.077,3.802-0.166,5.748-0.261c-0.492-1.369-0.823-2.841-0.954-4.417C409.62,481.207,411.317,475.936,414.58,471.733z"/>
	<path fill-rule="evenodd" clip-rule="evenodd" fill="#C6331E" d="M472.785,462.519c-6.005,1.685-15.074,3.458-24.106,4.972
		c-4.716,6.089-7.139,14.374-5.851,21.307c8.331-0.888,16.97-2.016,25.8-3.454C466.946,477.827,468.528,469.26,472.785,462.519z"/>
	<path fill-rule="evenodd" clip-rule="evenodd" fill="#AA0015" d="M501.676,454.812c-9.251,2.557-18.611,4.94-24.93,6.625
		c-5.196,6.443-7.39,15.641-5.584,23.48c9.191-1.556,18.566-3.438,28.008-5.747C496.823,471.123,497.576,462.08,501.676,454.812z"/>
	<path fill-rule="evenodd" clip-rule="evenodd" fill="#AA0015" d="M531.291,469.163c0.079,0.136,0.161,0.266,0.244,0.396
		c7.11-2.464,14.311-5.141,21.346-8.058c-3.349-7.816-4.821-16.592-4.191-25.245c-5.078,2.844-10.422,5.07-16.462,7.757
		C528.255,451.689,527.181,461.994,531.291,469.163z"/>
	<path fill-rule="evenodd" clip-rule="evenodd" fill="#B8001F" d="M238.174,340.243c-6.886-6.041-14.463-10.808-23.137-13.527
		c-0.478,4.717-0.501,9.49-0.123,14.149C222.569,339.069,230.546,338.38,238.174,340.243z"/>
	<path fill-rule="evenodd" clip-rule="evenodd" fill="#B8001F" d="M232.854,355.267c2.735-1.424,5.669-2.42,8.413-3.817
		c-7.527-3.949-16.939-3.173-25.368-2.98c1.133,6.3,3.011,12.197,5.485,17.249c1.406-2.072,2.957-4.032,4.811-5.726
		C228.192,358.17,230.44,356.521,232.854,355.267z"/>
	<path fill-rule="evenodd" clip-rule="evenodd" fill="#B8001F" d="M242.639,364.152c-5.809,0.245-14.1,4.363-15.767,10.209
		c4.557,5.691,9.763,10.04,15.173,13.234C238.892,380.135,238.865,371.306,242.639,364.152z"/>
	<path fill-rule="evenodd" clip-rule="evenodd" fill="#B7001F" d="M391.673,336.284c-6.307,0.362-12.103,2.851-18.087,4.614
		c8.597,2.185,17.431,6.299,23.65,12.695c3.048-4.804,5.331-10.342,6.27-16.948C399.986,335.198,395.175,336.085,391.673,336.284z"
		/>
	<path fill-rule="evenodd" clip-rule="evenodd" fill="#B7001F" d="M361.131,368.492c2.54,3.72,5.022,7.334,6.893,11.262
		c2.789-1.592,5.47-3.334,8.074-5.217C371.565,371.548,366.595,369.075,361.131,368.492z"/>
	<path fill-rule="evenodd" clip-rule="evenodd" fill="#C9461D" d="M455.532,247.987c-0.786-2.302-7.209-2.931-12.738-2.749
		c-5.528,0.182-23.355,2.138-41.847,8.274c-12.652,4.199-24.612,9.41-33.459,16.713c0.798,2.389,4.238,6.238,3.445,9.364
		c-8.956-13.15-27.643-25.847-48.702-29.336c-31.355-5.19-51.766,4.25-67.966,17.39c-1.84,1.493-3.368,3.587-5.773,4.267
		c-0.075-3.541,1.706-5.341,3.069-7.612c-16.784-9.738-70.267-27.879-72.143-25.575c-1.875,2.304-1.692,16.364-0.775,23.186
		c1.834,13.647,6.377,25.164,12.044,35.802c5.827,10.939,15.463,18.587,24.821,25.267c-0.144,0.928-0.263,1.858-0.369,2.792
		c9.514,2.942,17.748,8.318,25.169,15.115c0.348,0.319-0.011,0.921-0.463,0.783c-8.103-2.468-16.662-1.802-24.852,0.138
		c0.18,1.937,0.437,3.848,0.751,5.73c8.926-0.192,18.921-1.041,26.78,3.507c0.303,0.176,0.315,0.638,0,0.811
		c-5.545,3.044-11.546,4.654-16.129,9.256c-1.714,1.722-3.168,3.63-4.504,5.622c1.093,2.114,2.292,4.074,3.593,5.829
		c0.228,0.309,0.463,0.601,0.694,0.901c2.298-6.19,11.191-10.393,17.261-10.258c0.363,0.009,0.591,0.391,0.412,0.705
		c-4.232,7.391-4.086,16.818-0.412,24.486c12.34,6.789,25.528,7.665,34.378,4.621c-12.765-2.348-25.445-10.627-17.006-27.533
		c2.167-4.341,9.263-12.75,17.049-12.588c-9.93,3.246-20.739,18.166-16.768,26.595c3.38,7.178,14.274,13.855,24.548,11.194
		c2.124-0.548,5.204-2.568,7.211-3.988c2.898-2.047,5.828-5.917,6.141-9.443c0.287-3.249-0.117-9.222,1.877-12.081
		c1.361,3.43,0.285,7.847,0.874,12.938c0.592,5.092,5.327,10.755,8.48,13.009c8.279,5.919,21.555,4.364,28.558-1.625
		c4.704-4.023,10.55-9.437,10.157-17.237c-0.633-12.61-9.61-19.501-21.121-23.513c12.835,1.279,22.642,10.408,22.948,23.459
		c0.214,9.055-4.78,11.971-8.318,17.004c9.415-1.887,17.462-4.929,24.75-8.98c-1.992-4.215-4.707-8.055-7.431-12.054
		c-0.196-0.289,0.061-0.73,0.412-0.707c6.153,0.398,11.699,3.128,16.728,6.48c0.831-0.612,1.658-1.235,2.474-1.879
		c-3.263-6.794-7.926-12.235-15.109-15.951c-0.441-0.226-0.21-0.854,0.24-0.873c9.86-0.427,19.34,2.695,29.109,3.327
		c1.085-1.325,2.118-2.708,3.081-4.158c-6.514-6.805-16.074-10.996-25.093-13.028c-0.468-0.106-0.445-0.789,0-0.905
		c7.055-1.872,13.555-4.586,20.903-5.202c3.335-0.282,7.712-0.821,11.119,0.439c0.135-1.117,0.235-2.264,0.293-3.443
		c-1.283-0.583-6.159,3.194-6.571,1.145c2.2-1.533,11.525-7.048,16.014-11.249c6.52-6.1,11.782-11.646,18.846-24.336
		c4.016-7.212,11.012-19.964,13.973-28.038C451.139,256.289,456.321,250.284,455.532,247.987z"/>
	<path fill-rule="evenodd" clip-rule="evenodd" fill="#B7001F" d="M366.275,356.146c6.428,3.727,10.756,8.948,13.859,15.324
		c0.989-0.79,1.971-1.595,2.945-2.427c3.403-2.91,6.771-6.046,9.787-9.586C383.946,358.765,375.248,356.126,366.275,356.146z"/>
	<path fill-rule="evenodd" clip-rule="evenodd" d="M389.181,277.994c9.944-8.68,23.97-12.767,37.889-17.485
		c4.578-1.554,9.767-3.885,14.375-4.752c4.844-0.91,2.495,7.332,1.829,10.17c-1.631,6.975-4.428,12.348-7.448,17.603
		c-6.188,10.766-14.32,21.806-25.21,28.935c-6.167,4.041-14.236,5.171-14.236,5.171s-2.001-9.306-3.916-14.489
		c-2.685-7.271-6.523-12.298-13.344-15.791C382.315,283.493,386.348,280.464,389.181,277.994z"/>
	<path fill-rule="evenodd" clip-rule="evenodd" fill="#9A2517" d="M390.307,293.816c2.533-2.339,3.939-6.229,4.604-9.31
		c0.602-2.789,1.056-6.212,0.596-9.347c-4.732,3.169-8.838,7.051-11.987,12.03C386.299,288.956,388.506,291.217,390.307,293.816z"/>
	<path fill-rule="evenodd" clip-rule="evenodd" fill="#A52618" d="M407.74,268.833c-4.026,1.644-7.859,3.507-11.36,5.751
		c0.665,3.708,0.083,7.891-0.798,11.134c-0.841,3.094-2.309,6.627-4.785,8.856c0.955,1.472,1.785,3.05,2.531,4.694
		C402.521,292.48,408.205,280.207,407.74,268.833z"/>
	<path fill-rule="evenodd" clip-rule="evenodd" fill="#AE2718" d="M411.631,283.836c2.618-5.334,5.152-11.962,5.047-18.249
		c-2.724,0.892-5.402,1.835-7.999,2.866c0.618,11.84-5.35,24.663-14.983,31.68c0.357,0.834,0.688,1.689,1.006,2.555
		C401.992,298.322,407.961,291.308,411.631,283.836z"/>
	<path fill-rule="evenodd" clip-rule="evenodd" fill="#B62818" d="M441.657,257.923c-7.853,2.659-16.123,4.818-24.041,7.366
		c0.18,6.343-2.256,13.07-4.891,18.439c-3.873,7.885-9.978,15.288-17.695,19.849c1.208,3.442,2.162,7.078,3.06,10.72
		c10.417-1.071,18.286-7.379,24.365-14.467c2.894-3.374,5.694-7.547,8.302-11.625c4.309-6.745,8.184-12.708,10.436-21.163
		C441.956,264.169,443.347,260.46,441.657,257.923z"/>
	<path fill-rule="evenodd" clip-rule="evenodd" d="M217.796,317.504c-17.114-9.757-27.985-39.68-30.03-48.444
		c-0.907-3.883-3.893-17.479-0.655-20.251c1.823-1.558,21.356,13.61,25.241,15.957c11.186,6.753,24.605,13.287,33.055,12.12
		C232.505,284.376,219.765,305.128,217.796,317.504z"/>
	<path fill-rule="evenodd" clip-rule="evenodd" fill="#A52618" d="M226.613,292.886c1.232-1.727,2.491-3.362,3.725-4.859
		c-5.448-3.972-10.253-9.1-10.23-16.007c-2.142-1.132-4.164-2.273-5.987-3.333C214.207,277.882,219.559,286.517,226.613,292.886z"/>
	<path fill-rule="evenodd" clip-rule="evenodd" fill="#AE2718" d="M209.487,280.193c2.074,4.958,4.816,9.647,8.2,13.853
		c1.502,1.866,3.101,3.638,4.768,5.343c1.121-1.99,2.346-3.914,3.613-5.736c-7.426-6.676-13.019-15.82-12.879-25.509
		c-0.727-0.425-1.42-0.835-2.067-1.22c-1.34-0.796-2.759-1.72-4.21-2.714C205.867,269.603,207.352,275.091,209.487,280.193z"/>
	<path fill-rule="evenodd" clip-rule="evenodd" fill="#B62818" d="M215.722,293.015c-5.84-7.921-11.92-19.269-9.662-29.393
		c-7.58-5.273-15.723-12.033-17.414-11.606c-2.082,0.523,1.735,16.938,4.482,24.16c4.172,10.966,12.041,30.811,23.99,38.064
		c0.561-4.702,2.419-9.486,4.847-13.965C219.725,297.997,217.623,295.591,215.722,293.015z"/>
	<path fill-rule="evenodd" clip-rule="evenodd" fill="#D8843F" d="M278.114,361.397c4.249-0.835,11.559,7.109,9.824,14.214
		c-1.733,7.106-10.114,9.665-17.048,6.253C263.954,378.453,262.221,364.526,278.114,361.397z"/>
	<path fill-rule="evenodd" clip-rule="evenodd" fill="#9A2517" d="M221.056,272.517c0.226,6.365,4.77,11.1,9.873,14.801
		c3.18-3.786,6.106-6.657,7.752-8.058C232.967,278.188,226.652,275.422,221.056,272.517z"/>
	<path fill-rule="evenodd" clip-rule="evenodd" d="M353.262,300.614c0.008-0.035,0.019-0.067,0.018-0.106
		c-0.271-6.954-8.171-11.456-14.617-11.037c-4.42,0.288-8.973,2.569-12.521,5.056c-2.292,1.606-4.052,3.75-5.79,5.905
		c-3.157,2.587-5.991,5.884-7.014,9.233c-2.17,7.109-2.279,16.17-2.807,24.113c-0.371,5.607,0.459,10.733,2.78,14.776
		c-3.364-1.413-9.578-2.942-14.233-2.392c-6.256,0.744-9.67,2.55-14.198,4.954c2.472-2.525,3.774-5.931,5.061-9.812
		c1.724-5.196,2.684-12.108,2.952-18.459c0.461-10.889-0.853-19.79-7.737-24.411c-5.731-6.165-15.105-9.611-22.66-5.626
		c-0.493,0.26-0.055,0.995,0.438,0.734c6.266-3.305,13.861-1.164,19.328,3.347c-1.596-0.667-3.405-1.175-5.47-1.494
		c-18.645-2.882-30.774,9.935-36.703,21.312c1.595,2.6,4.698,5.18,8.436,7.009c3.425,1.677,8.038,3.759,11.901,4.426
		c9,1.549,17.05,0.713,23.572-1.354c-2.902,2.065-6.078,3.615-10.036,4.079c-8.248,0.967-16.824-0.962-24.509-3.804
		c-0.524-0.194-0.748,0.632-0.231,0.821c8.048,2.978,16.825,4.763,25.438,3.754c4.833-0.569,8.576-2.929,12.048-5.815
		c1.244-0.49,2.43-1.021,3.534-1.594c-0.499,9.092-2.214,17.829-6.254,23.878c-0.712,1.064-2.316,1.739-2.422,3.282
		c-0.278,4.047,6.316,7.11,10.183,8.071c0.917,0.227,2.109,0.047,3.075,0.368c1.992,0.664,3.17,2.937,5.596,3.365
		c4.922,0.867,6.74-2.652,9.86-2.775c1.327-0.05,2.572,0.652,3.789,0.576c3.389-0.214,6.27-2.171,6.396-5.362
		c0.168-4.23-4.604-6.591-6.037-9.98c-2.65-6.277-1.366-13.626-0.419-21.487c10.63,6.632,23.898,4.782,33.801-2.267
		c4.149-1.62,7.939-3.522,10.247-5.238C358.372,310.133,357.097,304.621,353.262,300.614z M314.122,323.222
		c0.077-0.676,0.153-1.356,0.222-2.042c4.609,2.769,10.075,4.923,18.274,4.55c3.177-0.144,7.364-1.128,11.52-2.506
		C334.862,328.431,323.431,329.202,314.122,323.222z M348.682,297.198c-6.987-3.715-15.919-3.528-21.903-0.85
		c-1.06,0.474-2.213,1.112-3.385,1.866c0.366-0.404,0.728-0.813,1.117-1.201c2.99-2.962,7.276-5.03,11.312-6.174
		c6.362-1.804,15.618,1.724,16.523,8.885C351.293,298.782,350.077,297.939,348.682,297.198z"/>
	<path fill-rule="evenodd" clip-rule="evenodd" fill="#BC3117" d="M353.939,307.908c-4.277-1.735-9.17-4.38-15.508-4.988
		c-8.29-0.791-14.879,0.501-19.999,3.191c3.058-5.103,10.473-9.394,17.913-9.764C346.552,295.842,352.479,301.532,353.939,307.908z"
		/>
	<path fill-rule="evenodd" clip-rule="evenodd" fill="#BC3117" d="M289.618,309.917c-2.774-4.918-9.34-7.9-18.212-7.995
		c-8.87-0.098-15.759,2.704-21.544,4.776c5.795-6.237,15.557-11.489,28.59-8.996C284.715,298.9,289.19,304.487,289.618,309.917z"/>
	<path fill-rule="evenodd" clip-rule="evenodd" fill="#FFFFFF" d="M337.539,305.212c-0.126,3.353-0.697,6.823-2.691,8.878
		C332.396,312.198,332.594,303.297,337.539,305.212z"/>
	<path fill-rule="evenodd" clip-rule="evenodd" fill="#FFFFFF" d="M341.769,305.518c3.141,0.772,6.039,1.464,9.178,3.437
		c1.962,1.235,5.241,3.998,5.077,5.525c-0.18,1.67-5.31,3.604-6.876,4.388c-5.803,2.916-14.714,5.902-24.199,4.454
		c-3.702-0.568-10.238-3.197-10.714-5.756c-1.387-7.447,7.475-11.221,13.801-12.068c-0.923,5.347-0.071,12.384,5.321,14.948
		C337.942,319.215,340.85,314.244,341.769,305.518z"/>
	<path fill-rule="evenodd" clip-rule="evenodd" fill="#FFFFFF" d="M273.973,304.294c-1.223,3.308-2.386,7.534-5.388,9.638
		c-1.993-2.287-1.612-7.538,0.115-9.844C270.12,303.915,272.455,303.821,273.973,304.294z"/>
	<path fill-rule="evenodd" clip-rule="evenodd" fill="#FFFFFF" d="M260.935,305.592c-1.727,7.048,0.838,15.368,4.312,16.29
		c5.422-1.345,10.484-9.14,12.662-16.535c11.84,0.887,12.025,13.594,11.895,14.775c-1.636,3.018-5.373,4.806-8.608,5.682
		c-10.55,2.852-24.013,0.617-31.993-3.924c-1.802-1.024-6.531-3.682-6.54-5.468c-0.009-1.8,5.777-6.008,7.235-6.873
		C253.33,307.5,256.839,306.488,260.935,305.592z"/>
	<path fill-rule="evenodd" clip-rule="evenodd" fill="#E09E75" d="M309.41,354.714c0.584-1.59,4.224-0.161,5.031-1.535
		c-2.513-1.691-6.648-1.177-7.346,0.748c-0.701,1.935,1.445,3.148,1.119,4.782c-0.349,1.757-5.61,2.926-7.649,2.453
		c-0.781-0.18-2.699-1.125-2.781-1.915c-0.201-1.931,4.364-3.57,1.169-6.192c-0.268-0.222-4.482-2.155-4.898-0.338
		c-0.332,1.439,3.341,0.962,3.666,2.293c0.38,1.559-1.917,2.99-4.032,2.858c-3.394-0.21-4.824-2.613-7-4.061
		c3.133-2.728,6.961-5.728,12.642-6.057c6.54-0.38,13.518,1.947,17.164,4.785C322.734,357.394,308.791,362.73,309.41,354.714z"/>
	<path fill-rule="evenodd" clip-rule="evenodd" fill="#C9461D" d="M284.555,393.122c2.933,0.258,9.224-4.543,9.224-4.543
		s2.223,2.285,4.011,2.356c2.337,0.093,4.094-1.402,5.247-3.897c1.439,1.873,3.285,4.538,5.764,6.137
		c0.567,3.499-4.054,7.926-6.866,9.391C294.459,406.461,284.259,401.421,284.555,393.122z"/>
	<path fill-rule="evenodd" clip-rule="evenodd" fill="#C0001F" d="M321.243,451.603c-3.997,2.385-9.807,4.15-15.685,5.197
		c-5.333,0.953-16.387,1.405-22.405-0.282c-3.641-1.02-7.531-3.421-10.388-5.199c-3.906-2.431-8.323-6.115-8.131-11.321
		c1.769,1.915,4.188,3.692,6.408,3.545c-2.301-2.404-6.334-5.408-5.859-8.708c0.182-1.259,1.666-2.294,2.719-2.324
		c4.553-0.13,7.594,7.047,11.927,7.302c0.514-4.421-6.626-4.722-7.302-8.241c-0.526-2.739,2.284-4.792,5.228-4.303
		c2.596,0.43,6.596,4.471,8.822,6.703c2.689,2.697,7.943,7.247,13.319,9.886C305.271,446.499,313.822,450.292,321.243,451.603z"/>
	<path fill-rule="evenodd" clip-rule="evenodd" fill="#D8843F" d="M313.367,368.504c3.795-5.298,10.691-8.243,19.65-2.842
		c8.957,5.4,5.892,15.826-1.446,19.897C320.302,391.814,304.409,381.011,313.367,368.504z"/>
	<path fill-rule="evenodd" clip-rule="evenodd" d="M271.877,366.228c-3.982-7.427-10.366-12.77-17.552-17.109
		c-8.364-5.053-17.545-9.113-26.602-12.793c-18.834-7.649-39.52-12.528-59.943-9.821c-1.104,0.145-0.633,1.787,0.46,1.643
		c19.684-2.608,39.402,2.192,57.631,9.27c8.706,3.38,17.188,7.464,25.377,11.915c7.822,4.247,14.911,9.88,19.132,17.756
		C270.902,368.063,272.398,367.202,271.877,366.228z"/>
	<path fill-rule="evenodd" clip-rule="evenodd" d="M428.569,355.917c-6.96-4.742-15.236-7.832-23.699-8.23
		c-13.038-0.61-26.307,2.203-39.14,4.108c-6.643,0.985-13.338,2.129-19.632,4.516c-5.581,2.115-10.769,4.65-15.924,7.802
		c-0.946,0.581-0.49,2.229,0.461,1.645c4.477-2.761,7.743-4.316,11.934-6.242c5.402-2.484,11.687-4.01,17.49-5.085
		c12.151-2.252,24.716-4.18,37.053-4.942c9.442-0.583,17.492,0.844,25.879,5.129c6.782,3.465,15.901,9.731,15.277,18.254
		c-0.081,1.096,1.654,1.089,1.734,0C440.551,365.398,434.28,359.811,428.569,355.917z"/>
	<path fill-rule="evenodd" clip-rule="evenodd" d="M270.338,373.303c-8.769-7.763-19.3-12.853-30.322-16.764
		c-10.873-3.859-22.345-6.99-33.822-8.461c-20.323-2.603-44.15,0.051-59.844,14.183c-0.826,0.744,0.404,1.947,1.226,1.207
		c15.476-13.939,38.658-16.016,58.618-13.684c10.423,1.217,20.755,4.26,30.689,7.492c11.686,3.803,23.017,9.078,32.229,17.231
		C269.94,375.241,271.171,374.039,270.338,373.303z"/>
	<path fill-rule="evenodd" clip-rule="evenodd" d="M416.559,390.215c-5.921-6.331-13.843-10.697-21.499-14.65
		c-9.126-4.71-19.277-7.124-29.492-7.995c-5.598-0.479-10.848-0.507-16.411,0.245c-5.676,0.77-12.479,2.003-18.508,3.426
		c-1.553,0.369-1.472,1.842-0.381,1.606c9.254-1.981,18.243-3.705,27.685-3.836c10.055-0.139,20.031,1.592,29.445,5.043
		c7.321,2.682,14.393,6.75,20.73,11.223c3.236,2.285,6.185,4.924,8.787,7.886c2.518,2.871,6.343,8.443,4.639,12.399
		c-0.431,1,1.063,1.872,1.497,0.861C425.494,400.745,420.203,394.11,416.559,390.215z"/>
	<path fill-rule="evenodd" clip-rule="evenodd" d="M270.733,371.879c-6.547-7.798-14.316-14.362-23.314-19.273
		c-8.979-4.902-18.882-7.939-28.845-10.21c-12.938-2.949-26.125-4.488-39.414-4.254c-6.28,0.112-12.059,1.274-18.038,3.13
		c-6.02,1.867-12,3.983-18.367,4.261c-0.557,0.024-0.559,0.876,0,0.852c11.717-0.512,22.167-6.842,33.921-7.318
		c13.532-0.548,27.132,0.894,40.322,3.853c10.192,2.284,20.198,5.263,29.447,10.135c9.172,4.829,17.068,11.559,23.675,19.427
		C270.477,372.907,271.086,372.299,270.733,371.879z"/>
	<path fill-rule="evenodd" clip-rule="evenodd" fill="#CD582F" d="M343.285,182.344c-5.927,2.766-11.714,5.781-17.335,9.199
		c-1.949,1.187-3.893,2.382-5.839,3.569c0.823,2.156,2.702,4.391,6.037,6.619c6.031,4.023,10.822,7.639,15.324,12.333
		c5.965-2.452,12.122-4.498,18.253-6.256C354.569,194.741,349.401,187.177,343.285,182.344z"/>
	<path fill-rule="evenodd" clip-rule="evenodd" d="M438.503,399.669c-5.173-17.4-22.313-29.01-39.013-34.544
		c-10.539-3.49-21.757-5.059-32.859-4.488c-11.76,0.607-23.209,3.79-34.237,7.68c-0.523,0.184-0.298,1.009,0.229,0.825
		c10.533-3.717,21.344-6.694,32.539-7.556c10.98-0.845,21.912,0.727,32.426,3.837c17.019,5.036,34.866,16.937,40.077,34.473
		C437.823,400.425,438.659,400.199,438.503,399.669z"/>
	<path fill-rule="evenodd" clip-rule="evenodd" d="M416.689,418.756c-0.837-5.084-3.377-9.939-5.995-14.322
		c-3.055-5.112-6.749-9.867-10.739-14.303c-14.479-16.104-37.509-22.229-58.556-17.785c-3.307,0.699-6.545,1.695-9.706,2.874
		c-0.518,0.193-0.293,1.018,0.231,0.823c18.968-7.072,40.179-5.375,57.119,5.862c9.118,6.047,16.213,14.917,21.649,24.222
		c2.475,4.241,4.698,8.993,5.314,13.895c0.272,2.167-0.466,3.882-2.239,5.177c-0.565,0.413-1.235,0.704-1.939,0.757
		c-1.606,0.12-1.351-2.736-0.165-2.3c0.524,0.195,0.75-0.632,0.231-0.821c-0.644-0.239-0.983-0.148-1.634,0
		c-0.133,0.031-0.281,0.16-0.302,0.299c-0.351,2.245,0.592,4.603,3.297,3.329C416.523,424.926,417.232,422.048,416.689,418.756z"/>
	<path fill-rule="evenodd" clip-rule="evenodd" fill="#D8843F" d="M339.692,268.185c-1.071-1.012-2.326-2.069-3.786-3.148
		c-8.091-5.968-21.673-7.959-38.721-7.959c-17.048,0-30.608,8.438-35.252,11.938c-9.235,6.96-7.413,9.267-0.972,9.445
		C283.243,263.21,314.055,259.077,339.692,268.185z"/>
	<path fill-rule="evenodd" clip-rule="evenodd" fill="#D8843F" d="M262.589,278.464c1.209-0.026,2.533-0.103,3.948-0.226
		c11.109-3.572,22.357-6.699,33.964-8.303c9.23-1.276,18.532-1.688,27.838-1.09c4.476,0.289,8.98,0.77,13.438,1.512
		c-0.174-0.204-0.357-0.411-0.548-0.621C315.954,260.014,285.046,263.616,262.589,278.464z"/>
	<path fill-rule="evenodd" clip-rule="evenodd" fill="#D8843F" d="M325.305,269.613c-9.983-0.384-19.952,0.273-29.787,2.022
		c-8.225,1.462-16.267,3.624-24.224,6.078c9.044-1.163,19.885-3.338,26.469-4.149c16.181-1.99,42.476,2.843,45.365,2.843
		c1.766,0,1.688-2.02-0.477-4.948C336.925,270.422,331.109,269.837,325.305,269.613z"/>
	<path fill-rule="evenodd" clip-rule="evenodd" d="M343.724,197.656c-0.857-0.53-1.879-0.754-2.877-0.624
		c-2.197,0.291-3.725,2.357-4.8,4.069c-3.073,4.895-4.389,10.851-5.775,16.371c-2.702,10.759-5.182,21.46-6.336,32.509
		c-0.662,6.337-0.868,12.717-0.59,19.083c0.138,3.137,0.449,6.265,0.827,9.383c0.39,3.226,1.26,6.348,1.326,9.615
		c0.01,0.548,0.879,0.549,0.867,0c-0.106-5.294-1.532-10.549-1.958-15.839c-0.445-5.545-0.397-11.121-0.066-16.669
		c0.696-11.648,2.945-23.175,5.866-34.468c1.271-4.913,2.429-9.883,4.238-14.639c0.973-2.553,2.174-5.24,4.127-7.224
		c1.424-1.447,5.739-2.085,5.673,0.436c-0.015,0.552,0.851,0.551,0.867,0C345.149,198.301,344.903,198.384,343.724,197.656z"/>
	<path fill-rule="evenodd" clip-rule="evenodd" d="M274.881,254.895c-3.058-9.205-7.321-18.063-12.431-26.335
		c-3.951-6.396-8.607-13.091-15.127-17.188c-6.66-4.187-14.561-3.642-21.786-1.293c-0.529,0.172-0.302,0.997,0.23,0.825
		c7.317-2.381,14.839-2.745,21.528,1.461c6.569,4.131,11.151,11.288,15.079,17.721c4.932,8.082,8.919,16.754,11.896,25.712
		c2.879,8.661,4.76,17.85,4.214,26.996c-0.034,0.549,0.834,0.545,0.866,0C279.918,273.314,277.861,263.862,274.881,254.895z"/>
	<path fill-rule="evenodd" clip-rule="evenodd" d="M273.008,258.598c-3.268-8.664-7.798-16.949-13.451-24.333
		c-4.931-6.436-11.165-12.574-19.078-15.219c-7.991-2.673-16.595-0.323-24.316,2.089c-0.531,0.166-0.305,0.991,0.23,0.823
		c7.713-2.412,15.871-4.558,23.856-2.089c8.28,2.561,14.699,9.598,19.661,16.288c5.263,7.099,9.391,15.056,12.493,23.28
		c2.889,7.656,4.904,15.871,4.699,24.077c-0.013,0.551,0.854,0.55,0.868,0C278.181,274.989,276.005,266.54,273.008,258.598z"/>
	<path fill-rule="evenodd" clip-rule="evenodd" d="M344.43,222.684c-0.02-0.247-0.184-0.406-0.433-0.426
		c-4.487-0.359-7.571,2.847-9.519,6.469c-2.882,5.361-3.939,11.679-4.732,17.624c-1.704,12.793-1.727,26.108-0.404,38.946
		c0.099,0.96,0.216,1.922,0.367,2.879c0.085,0.543,0.92,0.311,0.835-0.226c-0.753-4.78-0.916-9.683-1.058-14.51
		c-0.211-7.145-0.077-14.31,0.52-21.436c0.565-6.734,1.502-13.635,3.929-19.992c1.599-4.188,4.524-9.094,9.679-8.919
		c0.225,1.609,0.977,3.078,1.103,4.711c0.042,0.545,0.909,0.548,0.866,0C345.447,226.03,344.567,224.453,344.43,222.684z"/>
	<path fill-rule="evenodd" clip-rule="evenodd" d="M351.728,236.53c-17.324-11.468-19.088,41.258-19.145,49.427
		c0,0.132-0.001,0.265-0.001,0.398c-0.001,0.552,0.867,0.552,0.867,0c0.012-10.163,0.863-20.475,2.682-30.478
		c1.141-6.27,4.812-25.462,15.159-18.612C351.756,237.572,352.189,236.835,351.728,236.53z"/>
	<path fill-rule="evenodd" clip-rule="evenodd" d="M271.954,268.635c-1.376-6.684-4.009-13.156-7.226-19.177
		c-5.165-9.661-14.828-23.277-27.669-21.561c-2.587,0.346-5.004,1.498-7.131,2.946c-0.456,0.31-0.024,1.05,0.437,0.737
		c12.859-8.764,25.054,4.267,31.409,14.486c3.821,6.142,6.753,12.887,8.638,19.845c1.237,4.567,2.753,10.801,0.581,15.332
		c-0.06,0.118-0.122,0.237-0.188,0.35c-0.271,0.482,0.479,0.912,0.747,0.43C273.745,278.103,272.809,272.785,271.954,268.635z"/>
	<path fill-rule="evenodd" clip-rule="evenodd" d="M270.612,377.1c-1.12,0-1.12,1.706,0,1.706
		C271.729,378.806,271.729,377.1,270.612,377.1z"/>
	<path fill-rule="evenodd" clip-rule="evenodd" d="M273.472,373.423v0.216c0,1.099,1.733,1.099,1.733,0v-0.216
		C275.205,372.324,273.472,372.324,273.472,373.423z"/>
	<path fill-rule="evenodd" clip-rule="evenodd" d="M275.655,376.884c-1.117,0-1.117,1.706,0,1.706
		C276.772,378.59,276.772,376.884,275.655,376.884z"/>
	<path fill-rule="evenodd" clip-rule="evenodd" d="M279.822,371.059c-1.118,0-1.118,1.705,0,1.705
		C280.939,372.764,280.939,371.059,279.822,371.059z"/>
	<path fill-rule="evenodd" clip-rule="evenodd" d="M275.436,367.608c-1.118,0-1.118,1.706,0,1.706
		C276.554,369.314,276.554,367.608,275.436,367.608z"/>
	<path fill-rule="evenodd" clip-rule="evenodd" d="M323.033,369.97v0.217c0,1.1,1.733,1.1,1.733,0v-0.217
		C324.767,368.87,323.033,368.87,323.033,369.97z"/>
	<path fill-rule="evenodd" clip-rule="evenodd" d="M327.628,367.825c-1.117,0-1.117,1.704,0,1.704
		C328.745,369.529,328.745,367.825,327.628,367.825z"/>
	<path fill-rule="evenodd" clip-rule="evenodd" d="M322.145,374.942c-1.118,0-1.118,1.706,0,1.706
		C323.262,376.648,323.262,374.942,322.145,374.942z"/>
	<path fill-rule="evenodd" clip-rule="evenodd" d="M326.577,373.684c-0.002,0-0.002,0-0.003,0.003
		c-0.923,0.189-0.873,1.678,0.177,1.667c0.442-0.003,0.742-0.166,1.051-0.466C328.599,374.115,327.372,372.91,326.577,373.684z"/>
	<path fill-rule="evenodd" clip-rule="evenodd" d="M329.381,379.687c-1.117,0-1.117,1.708,0,1.708
		C330.499,381.395,330.499,379.687,329.381,379.687z"/>
	<path fill-rule="evenodd" clip-rule="evenodd" d="M323.9,381.415c-1.118,0-1.118,1.705,0,1.705
		C325.018,383.12,325.018,381.415,323.9,381.415z"/>
	<path fill-rule="evenodd" clip-rule="evenodd" d="M318.418,378.179c-1.12,0-1.12,1.706,0,1.706
		C319.535,379.885,319.535,378.179,318.418,378.179z"/>
	<path fill-rule="evenodd" clip-rule="evenodd" d="M319.075,371.49c-1.118,0-1.118,1.706,0,1.706
		C320.192,373.196,320.192,371.49,319.075,371.49z"/>
	<path fill-rule="evenodd" clip-rule="evenodd" d="M280.479,376.453c-1.118,0-1.118,1.704,0,1.704
		C281.597,378.157,281.597,376.453,280.479,376.453z"/>
	<path fill-rule="evenodd" clip-rule="evenodd" fill="#D8843F" d="M221.19,253.099c11.343,4.069,19.36,7.959,21.383,11.938
		c2.022,3.98-10.113,5.685-22.539-1.99C207.609,255.373,196.628,244.288,221.19,253.099z"/>
	<path fill-rule="evenodd" clip-rule="evenodd" fill="#D8843F" d="M377.804,266.175c5.346-2.338,17.337-6.538,27.451-9.097
		c10.114-2.558,15.025-1.705,15.315,0.285c0.29,1.99-20.516,7.674-29.763,12.506C381.562,274.702,372.603,268.449,377.804,266.175z"
		/>
	<path fill-rule="evenodd" clip-rule="evenodd" fill="#D57942" d="M294.006,336.953c1.004-3.949,3.467-11.653,2.889-16.771
		c-0.577-5.115-1.444-15.349-3.179-17.908c-1.733-2.557,6.069-2.273,8.959,10.518c2.889,12.792,3.466,24.729,2.599,25.866
		C304.409,339.796,292.562,342.637,294.006,336.953z"/>
	<path fill-rule="evenodd" clip-rule="evenodd" fill="#D8843F" d="M293.717,394.655c3.203,0.421,8.091,2.559,6.935,4.549
		c-1.523,2.623-5.49,3.696-8.668,1.137C288.805,397.783,289.383,394.087,293.717,394.655z"/>
	<path fill-rule="evenodd" clip-rule="evenodd" fill="#F0D2B9" d="M301.519,349.176c3.77,0.483,6.357,5.116,0.578,3.694
		C296.318,351.45,294.873,348.324,301.519,349.176z"/>
	<path fill-rule="evenodd" clip-rule="evenodd" fill="#F0D2B9" d="M301.808,357.418c1.734-1.136,4.624,0,4.046,0.854
		c-0.579,0.851-2.602,1.99-3.757,1.99C300.941,360.262,300.075,358.555,301.808,357.418z"/>
	<path fill-rule="evenodd" clip-rule="evenodd" fill="#CD582F" d="M443.906,159.1c-8.393,0.212-16.781,0.826-25.145,1.804
		c-3.13,0.457-6.252,0.967-9.362,1.521c0.211,0.499,0.468,1.014,0.79,1.549c4.48,7.459,10.216,20.697,14.668,30.88
		c9.239-1.407,18.501-2.555,27.813-3.119c-0.042-0.356-0.073-0.705-0.13-1.073C450.408,176.817,447.176,165.95,443.906,159.1z"/>
	<path fill-rule="evenodd" clip-rule="evenodd" fill="#CD582F" d="M541.083,178.65c-9.518-3.85-19.174-7.311-28.978-10.254
		c-0.13,0.996-0.148,2.111-0.01,3.39c0.883,8.098,3.052,17.231,4.173,25.993c6.409,1.662,12.704,3.696,18.813,6.166
		c3.432,1.387,6.814,2.854,10.149,4.396c1.396-11.426,2.363-20.539,1.575-27.209C544.9,180.299,542.997,179.462,541.083,178.65z"/>
	<path fill-rule="evenodd" clip-rule="evenodd" fill="#CD582F" d="M599.954,229.415c-0.436,3.767-1.912,8.204-4.625,14.055
		c3.361,3.562,6.51,7.249,9.474,11.049c2.649-2.365,4.781-5.008,6.07-8.257C607.317,240.593,603.716,234.95,599.954,229.415z"/>
	<path fill-rule="evenodd" clip-rule="evenodd" fill="#C0001F" d="M177.921,372.931c7.073-1.814,12.573,5.207,9.926,10.416
		c-2.647,5.206-13.235,10.414-19.19,7.811C162.701,388.552,162.701,376.838,177.921,372.931z"/>
	<path fill-rule="evenodd" clip-rule="evenodd" fill="#B9001F" d="M361.167,175.162c5.085,5.96,13.613,18.796,17.26,26.569
		c0.207,0.441,0.472,0.864,0.771,1.275c7.591-1.612,15.23-3,22.878-4.335c-1.78-10.851-6.996-25.223-11.648-32.235
		C380.533,168.854,370.77,171.767,361.167,175.162z"/>
	<path fill-rule="evenodd" clip-rule="evenodd" fill="#B9001F" d="M492.97,163.399c-5.102-1.127-10.247-2.097-15.438-2.883
		c-3.436-0.388-6.874-0.694-10.315-0.93c3.504,8.687,8.112,22.513,10.612,32.249c5.91,0.397,11.839,0.999,17.738,1.844
		c0.005-0.344,0.004-0.694-0.014-1.063C494.969,180.547,495.925,170.51,492.97,163.399z"/>
	<path fill-rule="evenodd" clip-rule="evenodd" fill="#B9001F" d="M578.205,203.045c-1.848-1.745-3.721-3.467-5.684-5.085
		c-0.374-0.309-0.749-0.617-1.125-0.926c-0.28-0.197-0.566-0.384-0.849-0.577c-0.13,0.4-0.217,0.841-0.217,1.369
		c0,5.804-0.793,14.725-2.243,23.022c4.171,2.704,8.213,5.604,12.118,8.712c3.163-4.508,6.233-10.768,6.749-17.358
		C584.161,209.04,581.279,205.945,578.205,203.045z"/>
	<path fill-rule="evenodd" clip-rule="evenodd" fill="#C0001F" d="M486.951,352.752c3.464-10.222,16.542-20.832,23.16-20.179
		c6.619,0.65-6.618,13.019-8.602,23.433c-1.985,10.417-5.294,25.389-9.926,24.737C486.951,380.093,480.995,370.327,486.951,352.752z
		"/>
	<path fill-rule="evenodd" clip-rule="evenodd" fill="#CD5B30" d="M324.654,456.587c3.846-1.479,12.251-3.14,14.561-0.173
		c2.309,2.97-4.262,9.608-13.851,8.907C315.775,464.623,316.486,459.735,324.654,456.587z"/>
	<path fill-rule="evenodd" clip-rule="evenodd" fill="#CB532E" d="M291.98,444.362c3.891,1.951,8.168,5.938,7.458,7.336
		c-0.711,1.398-12.609,1.223-16.515-1.919C279.017,446.632,283.28,439.995,291.98,444.362z"/>
	<path fill-rule="evenodd" clip-rule="evenodd" fill="#CD5B30" d="M452.112,445.227c7.523,0.21,13.892,2.887,16.045,6.93
		c2.153,4.041-18.98,7.314-25.045,6.158C437.046,457.16,438.415,444.842,452.112,445.227z"/>
	<path fill-rule="evenodd" clip-rule="evenodd" fill="#CD5B30" d="M517.39,352.1c3.232-9.139,10.588-14.973,15.22-15.623
		c4.633-0.651,0.002,13.02-3.308,22.783c-3.309,9.765-9.264,20.18-13.235,19.529C512.096,378.139,512.096,367.073,517.39,352.1z"/>
</g>
</svg>
