<?xml version="1.0" encoding="utf-8"?>
<!-- Generator: Adobe Illustrator 17.0.0, SVG Export Plug-In . SVG Version: 6.00 Build 0)  -->
<!DOCTYPE svg PUBLIC "-//W3C//DTD SVG 1.1//EN" "http://www.w3.org/Graphics/SVG/1.1/DTD/svg11.dtd">
<svg version="1.1" id="Layer_1" xmlns="http://www.w3.org/2000/svg" xmlns:xlink="http://www.w3.org/1999/xlink" x="0px" y="0px"
	 width="800px" height="600px" viewBox="0 0 800 600" enable-background="new 0 0 800 600" xml:space="preserve">
<g>
	<path fill="#F4D72C" d="M391.056,155.063c0,0-12.999,56.912-21.152,76.212l10.798,1.873c3.592-17.44,29.661-75.93,29.661-75.93
		S397.335,157.401,391.056,155.063L391.056,155.063z"/>
	<path fill="#F4CC30" d="M391.056,155.063l-0.524-0.113c0,0-0.204,0.888-0.574,2.48c-1.3,5.571-4.659,19.779-8.586,34.697
		c-3.924,14.904-8.417,30.556-11.96,38.938l-0.265,0.627l11.978,2.078l0.105-0.514c0.881-4.297,3.184-11.221,6.125-19.137
		c4.42-11.89,10.294-26.062,15.066-37.261c2.385-5.599,4.494-10.453,6.008-13.904c0.754-1.732,1.36-3.113,1.782-4.057
		c0.415-0.944,0.645-1.451,0.645-1.451l0.345-0.775l-0.845,0.014c0,0-0.225,0-0.638,0c-1.338,0-4.634-0.028-8.259-0.317
		c-3.627-0.281-7.593-0.824-10.217-1.81l-0.574-0.211l-0.137,0.606L391.056,155.063l-0.19,0.507
		c2.821,1.042,6.835,1.577,10.509,1.873c3.67,0.282,6.984,0.317,8.343,0.317c0.416,0,0.648-0.007,0.648-0.007l-0.004-0.535
		L409.869,157c0,0.007-6.519,14.629-13.488,31.436c-3.483,8.41-7.082,17.356-10.034,25.301c-2.955,7.953-5.258,14.883-6.17,19.3
		l0.525,0.113l0.092-0.535l-10.798-1.867l-0.092,0.529l0.497,0.211c4.103-9.721,9.385-28.766,13.657-45.418
		c4.272-16.651,7.523-30.88,7.523-30.88L391.056,155.063l-0.19,0.507L391.056,155.063L391.056,155.063z"/>
	<path fill="#F3CB2E" d="M364.522,230.345l5.381,0.93c8.153-19.3,21.152-76.212,21.152-76.212l-4.937-4.191
		C381.512,165.917,364.522,230.345,364.522,230.345L364.522,230.345z"/>
	<path fill="#EFBC28" d="M364.522,230.345l-0.092,0.528l5.8,1.007l0.169-0.394c4.103-9.721,9.385-28.766,13.657-45.418
		c4.272-16.651,7.523-30.88,7.523-30.88l0.071-0.324l-5.811-4.938l-0.236,0.782c-2.31,7.551-7.71,27.414-12.531,45.404
		c-4.825,17.989-9.072,34.091-9.072,34.091l-0.148,0.571l0.577,0.099L364.522,230.345l0.521,0.133c0.004,0,0.264-1.007,0.739-2.796
		c3.311-12.531,16.827-63.519,20.85-76.656l-0.514-0.155l-0.349,0.408l4.934,4.191l0.352-0.408l-0.524-0.113
		c0,0-0.204,0.888-0.574,2.48c-1.3,5.571-4.659,19.779-8.586,34.697c-3.924,14.904-8.417,30.556-11.96,38.938l0.493,0.211
		l0.092-0.529l-5.381-0.937L364.522,230.345l0.521,0.133L364.522,230.345L364.522,230.345z"/>
	<path fill="#F6DE24" d="M410.363,157.218c0,0-11.809-6.663-14.816-7.023c-3.011-0.359-9.428,0.677-9.428,0.677l4.937,4.191
		C397.335,157.401,410.363,157.218,410.363,157.218L410.363,157.218z"/>
	<path fill="#F4CE30" d="M410.363,157.218l0.268-0.465c-0.007-0.007-2.958-1.676-6.3-3.388c-1.67-0.859-3.434-1.726-4.983-2.416
		c-0.775-0.338-1.487-0.634-2.121-0.859c-0.63-0.219-1.166-0.374-1.616-0.43c-0.479-0.056-1.025-0.077-1.61-0.077
		c-3.31,0-7.952,0.754-7.969,0.754l-1.148,0.19l5.896,5.016l0.088,0.028c2.821,1.042,6.835,1.577,10.509,1.873
		c3.67,0.282,6.984,0.317,8.343,0.317c0.416,0,0.648-0.007,0.648-0.007l2-0.028l-1.736-0.972L410.363,157.218l-0.007-0.535
		c0,0-0.225,0-0.638,0c-1.338,0-4.634-0.028-8.259-0.317c-3.627-0.281-7.593-0.824-10.217-1.81l-0.187,0.508l0.349-0.409
		l-4.938-4.198l-0.348,0.415l0.084,0.528c0,0,0.285-0.042,0.767-0.113c1.444-0.211,4.659-0.634,7.029-0.634
		c0.557,0,1.064,0.028,1.483,0.071c0.299,0.042,0.796,0.169,1.384,0.38c2.078,0.74,5.409,2.395,8.191,3.853
		c1.395,0.733,2.656,1.416,3.568,1.916c0.912,0.501,1.472,0.81,1.472,0.81L410.363,157.218l-0.007-0.535L410.363,157.218
		L410.363,157.218z"/>
	<path fill="#F1CD21" d="M393.846,158.268c0,0-3.417,13.249-6.879,25.435c0.025-0.007,0.046-0.014,0.074-0.029
		c0.666-0.225,1.373-0.451,2.085-0.661c4.722-10.742,10.967-23.441,14.559-23.575L393.846,158.268L393.846,158.268z"/>
	<path fill="#FBEF92" d="M389.619,151.809l2.663,2.606l11.333,2.099c0.042,0,0.091,0,0.133,0.007
		C401.597,156.035,393.729,154.189,389.619,151.809L389.619,151.809z"/>
	<path fill="#FAE798" d="M404.308,156.64L404.308,156.64L404.308,156.64L404.308,156.64z M403.615,156.513l0.693,0.127
		c-0.007,0-0.201-0.043-0.56-0.12C403.706,156.513,403.657,156.513,403.615,156.513L403.615,156.513z"/>
	<path fill="#FAEB96" d="M394.029,182.167l-0.022,0.028c0.022,0,0.043,0.007,0.067,0.014L394.029,182.167L394.029,182.167z"/>
	<path fill="#D32429" d="M498.147,292.864c-1.444-17.877-16.363-74.747-92.102-75.55c-76.441-0.803-107.827,29.372-107.827,69.211
		c0.077,0.359,0.158,0.733,0.236,1.106c6.927-4.536,34.21-19.398,95.525-20.419C454.463,266.197,488.547,286.229,498.147,292.864
		L498.147,292.864z"/>
	<path fill="#AF0507" d="M468.719,270.606c-0.236,3.24-0.369,5.621-0.429,6.846c0,0.077-0.004,0.155-0.007,0.219
		c0.782,0.275,1.556,0.556,2.314,0.831l1.775,0.514C471.41,276.319,470.206,273.48,468.719,270.606L468.719,270.606z
		 M466.402,266.493c-0.098,3.345-0.176,6.832-0.221,10.46c0.348,0.12,0.694,0.232,1.039,0.352c0.078-1.472,0.239-4.431,0.557-8.473
		C467.339,268.057,466.88,267.268,466.402,266.493L466.402,266.493z M342.948,262.978c0.211,3.303,0.331,6.156,0.331,8.41
		c0,0.021,0,0.042,0,0.063c0.49-0.099,0.982-0.183,1.479-0.282C344.258,269.071,343.628,266.295,342.948,262.978L342.948,262.978z
		 M453.212,251.208c-1.373,8.396-2.419,15.285-2.958,18.948c-0.141,0.958-0.247,1.691-0.321,2.176
		c2.916,0.684,5.699,1.416,8.361,2.177c2.37,0.676,4.638,1.367,6.811,2.085c0.057-4.085,0.149-7.988,0.271-11.728
		C462.26,260.111,458.281,255.406,453.212,251.208L453.212,251.208z M363.857,239.798c-0.429,0.113-0.859,0.232-1.282,0.352
		c-0.017,9.58-0.486,19.279-1.606,28.626c0.264-0.028,0.532-0.056,0.792-0.084c0.021-0.183,0.05-0.423,0.074-0.719
		c0.074-0.747,0.187-1.845,0.313-3.254c0.258-2.824,0.602-6.889,0.944-11.84C363.364,249.01,363.632,244.587,363.857,239.798
		L363.857,239.798z M365.121,239.459c-0.053,0.014-0.116,0.035-0.172,0.05c-0.701,14.946-1.803,26.258-2.088,29.055
		c1.775-0.198,3.588-0.381,5.451-0.55C366.527,259.632,365.558,249.715,365.121,239.459L365.121,239.459z"/>
	<path fill="#F4D72C" d="M393.902,195.725c0,0,6.624,57.991,5.342,78.91l10.805-1.818c-2.398-17.644,2.783-81.466,2.783-81.466
		S400.604,195.845,393.902,195.725L393.902,195.725z"/>
	<path fill="#F4CC30" d="M393.902,195.725l-0.535,0.063c0,0,0.088,0.747,0.239,2.113c1.049,9.551,5.265,49.129,5.262,70.394
		c0,2.352-0.05,4.473-0.166,6.304l-0.035,0.676l11.988-2.014l-0.07-0.514c-0.444-3.269-0.634-8.213-0.628-14.045
		c0-12.622,0.849-29.457,1.705-43.121c0.426-6.84,0.852-12.89,1.173-17.229c0.162-2.162,0.296-3.902,0.387-5.099
		c0.092-1.205,0.148-1.859,0.148-1.859l0.063-0.845l-0.789,0.296c0,0-0.18,0.071-0.518,0.183c-1.179,0.415-4.23,1.465-7.709,2.395
		c-3.477,0.944-7.399,1.768-10.256,1.761c-0.084,0-0.169,0-0.253,0l-0.613-0.007l0.071,0.612L393.902,195.725l-0.007,0.542
		c0.084,0,0.176,0,0.268,0c3.487-0.006,8.167-1.113,12.016-2.211c3.842-1.098,6.833-2.198,6.84-2.198l-0.187-0.507l-0.539-0.043
		c0,0-3.413,42.079-3.42,67.394c0.006,5.86,0.186,10.819,0.644,14.186l0.532-0.071l-0.092-0.535l-10.805,1.818l0.092,0.535
		l0.539,0.028c0.109-1.859,0.166-4.001,0.166-6.367c-0.004-24.427-5.512-72.62-5.512-72.634L393.902,195.725l-0.007,0.542
		L393.902,195.725L393.902,195.725z"/>
	<path fill="#F3CB2E" d="M393.852,275.537l5.392-0.902c1.282-20.92-5.342-78.91-5.342-78.91l-6.047-2.317
		C388.506,209.129,393.852,275.537,393.852,275.537L393.852,275.537z"/>
	<path fill="#EFBC28" d="M393.852,275.537l0.092,0.535l5.811-0.972l0.028-0.436c0.109-1.859,0.166-4.001,0.166-6.367
		c-0.004-24.427-5.512-72.62-5.512-72.634l-0.035-0.325l-7.121-2.733l0.032,0.817c0.659,15.764,6.008,82.157,6.008,82.157
		l0.043,0.592l0.581-0.099L393.852,275.537l0.539-0.043c0,0-0.081-1.042-0.232-2.881c-1.029-12.925-5.195-65.499-5.765-79.233
		l-0.539,0.028l-0.194,0.493l6.051,2.325l0.19-0.501l-0.535,0.063c0,0,0.088,0.747,0.239,2.113
		c1.049,9.551,5.265,49.129,5.262,70.394c0,2.352-0.05,4.473-0.166,6.304l0.542,0.035l-0.092-0.535l-5.385,0.908L393.852,275.537
		l0.539-0.043L393.852,275.537L393.852,275.537z"/>
	<path fill="#F6DE24" d="M412.832,191.351c0,0-13.344-2.366-16.309-1.712c-2.959,0.655-8.667,3.769-8.667,3.769l6.047,2.317
		C400.604,195.845,412.832,191.351,412.832,191.351L412.832,191.351z"/>
	<path fill="#F4CE30" d="M412.832,191.351l0.095-0.535c-0.007,0-2.581-0.451-5.73-0.916c-3.145-0.451-6.85-0.915-9.17-0.915
		c-0.648,0-1.187,0.035-1.621,0.127c-1.57,0.352-3.743,1.31-5.561,2.169c-1.81,0.867-3.244,1.649-3.244,1.649l-1.028,0.563
		l7.223,2.768l0.099,0.006c0.084,0,0.176,0,0.268,0c3.487-0.006,8.167-1.113,12.016-2.211c3.842-1.098,6.833-2.198,6.84-2.198
		l1.873-0.69l-1.965-0.352L412.832,191.351l-0.187-0.507c0,0-0.18,0.071-0.518,0.183c-1.179,0.415-4.23,1.465-7.709,2.395
		c-3.477,0.944-7.399,1.768-10.256,1.761c-0.084,0-0.169,0-0.253,0l-0.007,0.542l0.19-0.507l-6.043-2.317l-0.194,0.508l0.257,0.464
		c0,0,0.085-0.042,0.247-0.127c0.56-0.296,2.011-1.063,3.634-1.817c1.624-0.754,3.438-1.494,4.649-1.761
		c0.288-0.07,0.778-0.105,1.384-0.105c2.194,0,5.891,0.451,9.019,0.909c1.56,0.225,2.987,0.451,4.019,0.62
		c1.031,0.169,1.673,0.288,1.673,0.288L412.832,191.351l-0.187-0.507L412.832,191.351L412.832,191.351z"/>
	<path fill="#F1CD21" d="M400.579,235.121c-0.134,0.816-0.261,1.634-0.384,2.444c0.032,0.796,0.067,1.155,0.102,1.155
		C400.371,238.72,400.452,237.36,400.579,235.121L400.579,235.121z"/>
	<polygon fill="#FAEB96" points="402.016,236.726 400.889,236.726 401.27,238.234 402.016,236.726 	"/>
	<path fill="#FAEB96" d="M399.315,243.446c-0.007,0.07-0.018,0.126-0.028,0.182l0.116-0.154L399.315,243.446L399.315,243.446z"/>
	<path fill="#F4D72C" d="M423.175,198.437c0,0,6.621,57.997,5.339,78.917l10.805-1.817c-2.398-17.652,2.786-81.467,2.786-81.467
		S429.874,198.557,423.175,198.437L423.175,198.437z"/>
	<path fill="#F4CC30" d="M423.175,198.437l-0.536,0.063c0,0.007,0.089,0.754,0.237,2.121c1.053,9.551,5.265,49.129,5.265,70.386
		c0,2.346-0.049,4.48-0.165,6.305l-0.039,0.676l11.988-2.015l-0.07-0.507c-0.447-3.275-0.63-8.213-0.63-14.059
		c0-12.608,0.852-29.442,1.704-43.107c0.434-6.846,0.855-12.89,1.176-17.228c0.162-2.17,0.296-3.909,0.387-5.107
		c0.095-1.204,0.148-1.852,0.148-1.852l0.067-0.845l-0.793,0.296c0,0-0.176,0.063-0.518,0.183c-1.176,0.415-4.226,1.458-7.705,2.395
		c-3.479,0.943-7.403,1.768-10.259,1.761c-0.084,0-0.165,0-0.25,0l-0.612-0.014l0.07,0.612L423.175,198.437l-0.011,0.535
		c0.088,0.007,0.18,0.007,0.268,0.007c3.483-0.007,8.167-1.106,12.02-2.204c3.842-1.099,6.829-2.198,6.836-2.205l-0.183-0.5
		l-0.539-0.05c0,0.007-3.417,42.079-3.417,67.387c0,5.874,0.18,10.833,0.638,14.2l0.532-0.07l-0.088-0.535l-10.808,1.817
		l0.092,0.535l0.539,0.028c0.113-1.859,0.166-4.007,0.166-6.375c-0.004-24.427-5.505-72.619-5.512-72.627L423.175,198.437
		l-0.011,0.535L423.175,198.437L423.175,198.437z"/>
	<path fill="#F3CB2E" d="M423.126,278.256l5.389-0.902c1.282-20.92-5.339-78.917-5.339-78.917l-6.051-2.317
		C417.776,211.848,423.126,278.256,423.126,278.256L423.126,278.256z"/>
	<path fill="#EFBC28" d="M423.126,278.256l0.092,0.535l5.811-0.986l0.025-0.423c0.113-1.859,0.166-4.007,0.166-6.375
		c-0.004-24.427-5.505-72.619-5.512-72.627l-0.035-0.324l-7.117-2.733l0.028,0.817c0.659,15.756,6.008,82.157,6.008,82.157
		l0.049,0.584l0.578-0.092L423.126,278.256l0.539-0.042c0,0-0.084-1.043-0.232-2.888c-1.032-12.918-5.198-65.499-5.772-79.227
		l-0.535,0.021l-0.194,0.501l6.051,2.324l0.194-0.507l-0.536,0.063c0,0.007,0.089,0.754,0.237,2.121
		c1.053,9.551,5.265,49.129,5.265,70.386c0,2.346-0.049,4.48-0.165,6.305l0.539,0.042l-0.092-0.535l-5.385,0.902L423.126,278.256
		l0.539-0.042L423.126,278.256L423.126,278.256z"/>
	<path fill="#F6DE24" d="M442.105,194.071c0,0-13.351-2.367-16.31-1.719c-2.962,0.662-8.67,3.768-8.67,3.768l6.051,2.317
		C429.874,198.557,442.105,194.071,442.105,194.071L442.105,194.071z"/>
	<path fill="#F4CE30" d="M442.105,194.071l0.092-0.536c-0.004,0-2.581-0.457-5.727-0.915c-3.152-0.458-6.853-0.916-9.174-0.916
		c-0.645,0-1.184,0.028-1.617,0.127c-1.574,0.352-3.743,1.296-5.561,2.17c-1.813,0.859-3.247,1.648-3.25,1.648l-1.029,0.563
		l7.23,2.761h0.095c0.088,0.007,0.18,0.007,0.268,0.007c3.483-0.007,8.167-1.106,12.02-2.204c3.842-1.099,6.829-2.198,6.836-2.205
		l1.873-0.683l-1.965-0.353L442.105,194.071l-0.19-0.508c0,0-0.176,0.063-0.518,0.183c-1.176,0.415-4.226,1.458-7.705,2.395
		c-3.479,0.936-7.403,1.768-10.259,1.761c-0.084,0-0.165,0-0.25,0l-0.007,0.535l0.19-0.5l-6.05-2.317l-0.19,0.5l0.257,0.472
		c0,0,0.089-0.05,0.247-0.127c0.563-0.31,2.011-1.064,3.634-1.818c1.624-0.754,3.441-1.5,4.649-1.768
		c0.292-0.063,0.782-0.105,1.384-0.105c2.194,0,5.895,0.457,9.019,0.915c1.564,0.226,2.987,0.451,4.023,0.62
		c1.031,0.169,1.669,0.281,1.669,0.281L442.105,194.071l-0.19-0.508L442.105,194.071L442.105,194.071z"/>
	<path fill="#FBEF92" d="M422.964,196.127l0.021,0.761l1.13,0.528l1.339-0.204c0.236-0.338,0.475-0.662,0.715-0.986
		c-0.056,0-0.12,0-0.18,0C424.95,196.226,423.925,196.198,422.964,196.127L422.964,196.127z M435.635,195.599
		c-0.285,0.035-0.666,0.077-1.124,0.126c0.035,0.014,0.074,0.035,0.11,0.05l0.881-0.141
		C435.544,195.62,435.59,195.605,435.635,195.599L435.635,195.599z"/>
	<path fill="#FAE798" d="M436.198,195.521c0,0-0.204,0.028-0.563,0.078c-0.045,0.006-0.092,0.021-0.133,0.035L436.198,195.521
		L436.198,195.521z"/>
	<path fill="#F3CB2E" d="M312.604,199.311l-1.613,9.058c7.61,20.37,14.415,55.377,16.584,67.126c4.62-1.212,7.808-1.845,7.808-1.845
		C332.816,248.701,312.604,199.311,312.604,199.311L312.604,199.311z"/>
	<path fill="#EFBC28" d="M312.604,199.311l-0.532-0.092l-1.642,9.192l0.053,0.141c7.586,20.299,14.394,55.306,16.56,67.041
		l0.106,0.563l0.56-0.141c2.307-0.606,4.251-1.064,5.621-1.367c0.687-0.155,1.225-0.275,1.595-0.352
		c0.37-0.084,0.563-0.12,0.563-0.12l0.483-0.092l-0.053-0.493c-1.296-12.565-7.001-31.161-12.376-46.643
		c-5.381-15.481-10.439-27.836-10.443-27.836l-0.7-1.719l-0.327,1.824L312.604,199.311l-0.5,0.211c0.003,0,0.317,0.761,0.873,2.162
		c1.948,4.889,6.861,17.468,11.566,31.542c4.701,14.066,9.192,29.646,10.305,40.48l0.535-0.056l-0.106-0.529
		c-0.007,0-3.205,0.641-7.839,1.853l0.138,0.521l0.524-0.099c-1.081-5.874-3.328-17.574-6.251-30.357
		c-2.926-12.77-6.533-26.632-10.354-36.86l-0.503,0.19l0.528,0.092l1.616-9.051L312.604,199.311l-0.5,0.211L312.604,199.311
		L312.604,199.311z"/>
	<polygon fill="#F6DE24" points="312.604,199.311 302.644,199.311 296.309,211.989 310.991,208.369 312.604,199.311 	"/>
	<polygon fill="#F4CE30" points="312.604,199.311 312.604,198.775 302.31,198.775 295.305,212.793 311.46,208.805 313.245,198.775 
		312.604,198.775 312.604,199.311 312.073,199.219 310.519,207.925 297.313,211.186 302.975,199.846 312.604,199.846 
		312.604,199.311 312.073,199.219 312.604,199.311 	"/>
	<path fill="#F4D72C" d="M310.991,208.369l-14.683,3.62c7.847,18.405,16.296,68.197,16.296,68.197
		c5.329-2.014,10.745-3.592,14.971-4.691C325.406,263.746,318.602,228.739,310.991,208.369L310.991,208.369z"/>
	<path fill="#F4CC30" d="M310.991,208.369l-0.134-0.521l-15.295,3.769l0.25,0.584c1.944,4.55,3.937,11.101,5.832,18.342
		c2.835,10.868,5.444,23.301,7.342,33.02c0.948,4.86,1.722,9.037,2.258,12.003c0.268,1.479,0.472,2.662,0.609,3.466
		c0.144,0.81,0.219,1.239,0.219,1.239l0.109,0.648l0.613-0.226c5.303-2.014,10.702-3.578,14.914-4.677l0.483-0.127l-0.092-0.493
		c-1.081-5.874-3.328-17.574-6.251-30.357c-2.926-12.77-6.533-26.632-10.354-36.86l-0.172-0.451l-0.465,0.12L310.991,208.369
		l-0.508,0.183c7.586,20.299,14.394,55.306,16.56,67.041l0.532-0.099l-0.138-0.521c-4.237,1.098-9.667,2.683-15.024,4.705
		l0.19,0.507l0.532-0.092c0-0.007-2.116-12.46-5.212-27.216c-1.55-7.375-3.339-15.334-5.241-22.603
		c-1.898-7.269-3.898-13.848-5.881-18.497l-0.493,0.211l0.127,0.521l14.682-3.621L310.991,208.369l-0.508,0.183L310.991,208.369
		L310.991,208.369z"/>
	<path fill="#F6DE24" d="M331.615,170.643l-2.715-7.847l-16.296,1.818l-1.613,11.157l20.793-3.902
		C331.674,171.08,331.615,170.643,331.615,170.643L331.615,170.643z"/>
	<path fill="#F4CE30" d="M331.615,170.643l0.507-0.169l-2.853-8.256l-17.14,1.902l-1.782,12.326l22.043-4.142l-0.071-0.507
		c-0.109-0.789-0.169-1.226-0.169-1.226l-0.011-0.056l-0.018-0.042L331.615,170.643l-0.532,0.077c0,0,0.06,0.43,0.169,1.219
		l0.532-0.071l-0.099-0.528l-20.057,3.768l1.448-10.008l15.454-1.719l2.574,7.438L331.615,170.643l-0.532,0.077L331.615,170.643
		L331.615,170.643z"/>
	<path fill="#F4D72C" d="M331.784,171.868l-20.793,3.902c8.036,19.92,10.072,45.784,10.072,45.784l14.32,52.095l7.35-1.55
		C342.97,252.85,333.2,182.019,331.784,171.868L331.784,171.868z"/>
	<path fill="#F4CC30" d="M331.784,171.868l-0.099-0.528l-21.444,4.029l0.246,0.606c4.001,9.903,6.512,21.321,8.023,30.252
		c0.754,4.465,1.258,8.311,1.571,11.03c0.159,1.367,0.271,2.451,0.342,3.198c0.07,0.747,0.102,1.141,0.102,1.141l0.004,0.056
		L335,274.283l8.272-1.74v-0.429c0.004-0.239,0.007-0.479,0.007-0.726c-0.004-10.179-2.395-32.541-4.955-53.652
		c-2.567-21.103-5.303-40.923-6.005-45.938l-0.078-0.564l-0.556,0.106L331.784,171.868l-0.532,0.071
		c0.701,5.015,3.438,24.836,6.002,45.925c2.56,21.088,4.948,43.473,4.948,53.525c0,0.247-0.004,0.479-0.004,0.711h0.535
		l-0.109-0.521l-6.853,1.437l-14.19-51.602l-0.518,0.141l0.536-0.043c-0.004-0.028-2.029-25.907-10.111-45.938l-0.496,0.197
		l0.098,0.536l20.796-3.903L331.784,171.868l-0.532,0.071L331.784,171.868L331.784,171.868z"/>
	<path fill="#F4D72C" d="M339.272,194.789c-4.131,30.083,3.381,65.365,6.156,76.86l6.659-1.141
		c-3.068-51.926,2.159-78.741,2.159-78.741L339.272,194.789L339.272,194.789z"/>
	<path fill="#F4CC30" d="M339.272,194.789l-0.532-0.078c-0.863,6.29-1.218,12.784-1.218,19.251
		c0.004,24.624,5.177,48.678,7.378,57.814l0.12,0.479l7.632-1.296l-0.025-0.486c-0.697-11.762-0.965-22.237-0.965-31.393
		c0-15.623,0.778-27.428,1.556-35.331c0.391-3.952,0.782-6.924,1.075-8.903c0.144-1,0.264-1.74,0.348-2.24
		c0.046-0.239,0.078-0.423,0.099-0.549c0.021-0.127,0.035-0.183,0.035-0.183l0.155-0.789l-16.138,3.254l-0.053,0.373
		L339.272,194.789l0.109,0.521l14.971-3.014l-0.106-0.529l-0.524-0.105c-0.011,0.035-3.138,16.102-3.138,47.418
		c0,9.185,0.268,19.673,0.965,31.457l0.539-0.028l-0.092-0.535l-6.659,1.141l0.092,0.535l0.521-0.127
		c-2.187-9.086-7.35-33.091-7.35-57.56c0-6.424,0.356-12.876,1.208-19.103L339.272,194.789l0.109,0.521L339.272,194.789
		L339.272,194.789z"/>
	<path fill="#F6DE24" d="M354.246,191.767c-8.748-2.712-18.863-1.81-18.863-1.81l3.888,4.832L354.246,191.767L354.246,191.767z"/>
	<path fill="#F5DA27" d="M354.246,191.767l0.162-0.514c-5.339-1.648-11.122-1.972-14.904-1.979c-2.522,0-4.156,0.148-4.17,0.148
		l-1,0.084l4.726,5.875l15.292-3.085l0.056-1.043L354.246,191.767l-0.105-0.528l-14.655,2.958l-3.684-4.578l-0.419,0.338
		l0.049,0.536c0,0,0.095-0.007,0.282-0.014c0.563-0.043,1.93-0.127,3.79-0.127c3.719,0,9.417,0.325,14.584,1.93L354.246,191.767
		l-0.105-0.528L354.246,191.767L354.246,191.767z"/>
	<path fill="#F3CB2E" d="M339.272,194.789l-3.888-4.832c-11.316,20.216,7.35,82.143,7.35,82.143l2.695-0.451
		C342.652,260.154,335.14,224.872,339.272,194.789z"/>
	<path fill="#EFBC28" d="M339.272,194.789l0.422-0.338l-4.387-5.452l-0.391,0.697c-2.708,4.853-3.709,11.883-3.712,19.842
		c0,13.115,2.757,28.787,5.508,41.184c2.75,12.404,5.505,21.533,5.505,21.533l0.141,0.458l3.73-0.634l-0.138-0.557
		c-2.187-9.086-7.35-33.091-7.35-57.56c0-6.424,0.356-12.876,1.208-19.103l0.032-0.225l-0.145-0.183L339.272,194.789l-0.532-0.078
		c-0.863,6.29-1.218,12.784-1.218,19.251c0.004,24.624,5.177,48.678,7.378,57.814l0.529-0.127l-0.092-0.535l-2.695,0.465
		l0.092,0.521l0.518-0.155c0,0-0.169-0.563-0.472-1.606c-2.099-7.311-10.502-38.085-10.499-60.801
		c-0.004-7.875,1.018-14.764,3.575-19.313l-0.472-0.268l-0.419,0.338l3.888,4.832L339.272,194.789l-0.532-0.078L339.272,194.789z"/>
	<path fill="#F6DE24" d="M354.246,161.289l2.716-9.656l-18.902,4.226l-2.677,12.066
		C335.383,167.925,350.929,160.683,354.246,161.289L354.246,161.289z"/>
	<path fill="#F4CE30" d="M354.246,161.289l0.521,0.148l2.958-10.523l-20.116,4.493l-2.987,13.475l0.99-0.465
		c0,0,0.222-0.105,0.62-0.281c1.391-0.641,4.941-2.233,8.575-3.663c1.814-0.718,3.652-1.394,5.252-1.888
		c1.588-0.493,2.954-0.796,3.733-0.789c0.145,0,0.265,0,0.356,0.029l0.485,0.084l0.134-0.472L354.246,161.289l0.099-0.528
		c-0.176-0.035-0.359-0.049-0.553-0.049c-0.584,0.007-1.282,0.113-2.084,0.309c-2.807,0.648-6.921,2.254-10.365,3.698
		c-3.438,1.444-6.181,2.719-6.185,2.726l0.226,0.48l0.528,0.12l2.603-11.735l17.69-3.951l-2.476,8.79L354.246,161.289l0.099-0.528
		L354.246,161.289L354.246,161.289z"/>
	<path fill="#F4D72C" d="M354.246,161.289c-3.317-0.606-18.863,6.636-18.863,6.636s7.22,17.933,7.357,22.032l9.347,80.551
		l8.259-1.085C366.404,220.484,354.246,161.289,354.246,161.289L354.246,161.289z"/>
	<path fill="#F4CC30" d="M354.246,161.289l0.099-0.528c-0.176-0.035-0.359-0.049-0.553-0.049c-0.584,0.007-1.282,0.113-2.084,0.309
		c-2.807,0.648-6.921,2.254-10.365,3.698c-3.438,1.444-6.181,2.719-6.185,2.726l-0.465,0.211l0.19,0.472
		c0,0,0.113,0.281,0.309,0.775c0.69,1.74,2.42,6.149,3.994,10.572c0.782,2.212,1.525,4.416,2.078,6.29
		c0.278,0.937,0.507,1.789,0.669,2.514c0.162,0.718,0.254,1.311,0.268,1.691v0.028l9.41,81.115l9.22-1.212l0.049-0.415
		c1.212-9.783,1.698-19.976,1.698-30.013c-0.004-40.318-7.804-78.269-7.804-78.29l-0.074-0.359l-0.356-0.063L354.246,161.289
		l-0.524,0.113c0,0,0.12,0.584,0.331,1.704c1.486,7.79,7.449,41.213,7.449,76.367c0,10.002-0.483,20.144-1.687,29.879l0.532,0.07
		l-0.07-0.535l-7.72,1.014l-9.281-80.002l-0.535,0.056l0.539-0.014c-0.021-0.585-0.155-1.331-0.373-2.233
		c-0.75-3.141-2.501-8.121-4.068-12.333c-1.571-4.212-2.955-7.65-2.955-7.65l-0.5,0.198l0.229,0.493c0,0,0.222-0.105,0.62-0.281
		c1.391-0.641,4.941-2.233,8.575-3.663c1.814-0.718,3.652-1.394,5.252-1.888c1.588-0.493,2.954-0.796,3.733-0.789
		c0.145,0,0.265,0,0.356,0.029L354.246,161.289l-0.524,0.113L354.246,161.289L354.246,161.289z"/>
	<path fill="#F3CB2E" d="M356.961,151.633l-2.716,9.656c0,0,12.158,59.195,6.1,108.134l1.909-0.253
		C362.255,269.17,371.144,187.238,356.961,151.633z"/>
	<path fill="#EFBC28" d="M356.961,151.633l-0.518-0.148l-2.75,9.79l0.028,0.127c0,0,0.12,0.584,0.331,1.704
		c1.486,7.79,7.449,41.213,7.449,76.367c0,10.002-0.483,20.144-1.687,29.879l-0.088,0.69l3.018-0.395l0.046-0.423
		c0-0.007,2.754-25.371,2.754-54.039c0-11.425-0.436-23.385-1.665-34.472s-3.24-21.307-6.417-29.281l-0.584-1.472l-0.434,1.522
		L356.961,151.633l-0.5,0.204c3.12,7.819,5.128,17.961,6.346,28.991c1.223,11.03,1.659,22.962,1.659,34.359
		c0,14.298-0.687,27.78-1.373,37.691c-0.342,4.952-0.687,9.016-0.944,11.84c-0.126,1.409-0.239,2.507-0.313,3.254
		c-0.074,0.747-0.116,1.142-0.116,1.142l0.535,0.056l-0.067-0.536l-1.912,0.254l0.07,0.535l0.535,0.063
		c1.212-9.783,1.698-19.976,1.698-30.013c-0.004-40.318-7.804-78.269-7.804-78.29l-0.529,0.105l0.521,0.148l2.712-9.656
		L356.961,151.633l-0.5,0.204L356.961,151.633L356.961,151.633z"/>
	<path fill="#F3CB2E" d="M367.914,174.376c-6.272,1.536-10.702,4.325-10.702,4.325l5.043,90.469l6.74-0.55
		C362.512,239.332,366.404,190.196,367.914,174.376z"/>
	<path fill="#EFBC28" d="M367.914,174.376l-0.13-0.529c-6.361,1.571-10.83,4.382-10.862,4.403l-0.264,0.169l5.089,91.335
		l7.903-0.655l-0.131-0.599c-2.722-12.284-3.61-28.14-3.61-43.544c0-21.124,1.67-41.396,2.536-50.539l0.077-0.753l-0.739,0.182
		L367.914,174.376l-0.539-0.056c-0.873,9.156-2.542,29.457-2.542,50.637c0,15.447,0.887,31.351,3.631,43.776l0.532-0.113
		l-0.045-0.535l-6.188,0.507l-5.011-89.919l-0.539,0.028l0.285,0.458l0.046-0.028c0.479-0.296,4.701-2.811,10.498-4.24
		L367.914,174.376l-0.539-0.056L367.914,174.376z"/>
	<path fill="#F4D72C" d="M381.407,173.967c-4.804-1.056-9.516-0.577-13.493,0.409c-1.51,15.82-5.402,64.956,1.081,94.244
		l11.097-0.916C384.512,250.089,381.407,173.967,381.407,173.967L381.407,173.967z"/>
	<path fill="#F4CC30" d="M381.407,173.967l0.113-0.535c-1.945-0.423-3.874-0.599-5.748-0.599c-2.845,0-5.557,0.415-7.987,1.014
		l-0.37,0.092l-0.039,0.381c-0.873,9.156-2.542,29.457-2.542,50.637c0,15.447,0.887,31.351,3.631,43.776l0.102,0.458l11.956-0.979
		l0.092-0.381c0.937-3.733,1.525-9.931,1.891-17.454c0.366-7.523,0.5-16.355,0.5-25.301c0-25.132-1.06-51.13-1.06-51.137
		l-0.022-0.408l-0.405-0.099L381.407,173.967l-0.536,0.014c0,0,0.014,0.408,0.043,1.169c0.204,5.311,1.014,27.964,1.014,49.925
		c0,8.931-0.137,17.75-0.5,25.244c-0.359,7.487-0.958,13.664-1.859,17.25l0.524,0.133l-0.042-0.535l-11.101,0.916l0.045,0.535
		l0.525-0.12c-2.722-12.284-3.61-28.14-3.61-43.544c0-21.124,1.67-41.396,2.536-50.539l-0.532-0.042l0.127,0.514
		c2.366-0.585,4.99-0.979,7.731-0.979c1.803,0,3.655,0.17,5.518,0.578L381.407,173.967l-0.536,0.014L381.407,173.967
		L381.407,173.967z"/>
	<path fill="#F3CB2E" d="M447.556,206.502c-4.265,0.789-8.128,3.332-13.344,8.805c-5.212,5.473-18.303,42.459-21.768,52.44
		c7.241,0.268,14.228,0.669,14.228,0.669C427.799,252.885,445.32,211.708,447.556,206.502L447.556,206.502z"/>
	<path fill="#EFBC28" d="M447.556,206.502l-0.098-0.529c-2.208,0.409-4.315,1.268-6.516,2.719c-2.197,1.451-4.493,3.487-7.117,6.24
		c-0.711,0.754-1.493,1.951-2.37,3.522c-3.053,5.508-7.163,15.581-10.903,25.392c-3.741,9.812-7.104,19.349-8.618,23.716
		l-0.239,0.69l0.728,0.028c3.617,0.134,7.171,0.303,9.823,0.437c1.327,0.07,2.423,0.126,3.19,0.169
		c0.768,0.043,1.201,0.071,1.201,0.071l0.532,0.028l0.042-0.535c0.271-3.804,1.567-9.27,3.402-15.369
		c5.49-18.335,15.76-42.473,17.437-46.368l0.398-0.923l-0.99,0.182L447.556,206.502l-0.496-0.211
		c-1.12,2.613-6.064,14.207-10.868,27.111c-2.403,6.452-4.773,13.228-6.614,19.37c-1.839,6.142-3.156,11.643-3.445,15.609
		l0.539,0.035l0.028-0.535c0,0-6.987-0.402-14.239-0.669l-0.017,0.535l0.503,0.176c1.732-4.987,5.875-16.728,10.228-27.893
		c2.18-5.585,4.406-11.023,6.416-15.404c1.004-2.184,1.947-4.107,2.804-5.642c0.849-1.536,1.62-2.691,2.208-3.304
		c2.592-2.718,4.836-4.705,6.935-6.085c2.103-1.381,4.057-2.183,6.117-2.564L447.556,206.502l-0.496-0.211L447.556,206.502
		L447.556,206.502z"/>
	<path fill="#F4D72C" d="M427.271,195.691c-15.087,18.708-25.043,71.817-25.043,71.817c2.912,0,6.596,0.105,10.217,0.239
		c3.465-9.981,16.556-46.967,21.768-52.44c0.099-0.099,0.187-0.19,0.282-0.288c-1.796-4.635-4.515-14.249-6.057-19.857
		C427.616,195.352,427.271,195.691,427.271,195.691L427.271,195.691z"/>
	<path fill="#F4CC30" d="M427.271,195.691l-0.415-0.338c-3.831,4.747-7.29,11.615-10.357,19.257
		c-9.199,22.906-14.795,52.785-14.799,52.799l-0.12,0.648h0.648c2.902,0,6.575,0.098,10.195,0.225l0.395,0.014l0.131-0.374
		c1.732-4.987,5.875-16.728,10.228-27.893c2.18-5.585,4.406-11.023,6.416-15.404c1.004-2.184,1.947-4.107,2.804-5.642
		c0.849-1.536,1.62-2.691,2.208-3.304l-0.01,0.014l0.01-0.014c0.092-0.098,0.183-0.19,0.278-0.288l0.236-0.247l-0.123-0.324
		c-1.771-4.579-4.501-14.207-6.036-19.8l-0.137-0.5l-0.503,0.113c-0.93,0.219-1.367,0.62-1.423,0.676l-0.021,0.014l-0.018,0.028
		L427.271,195.691l0.384,0.38l-0.247-0.239l0.236,0.254l0.011-0.014l-0.247-0.239l0.236,0.254l0.007-0.014
		c0.049-0.028,0.32-0.247,0.905-0.38l-0.12-0.529l-0.518,0.148c1.542,5.607,4.261,15.222,6.075,19.906l0.5-0.197l-0.387-0.374
		c-0.099,0.092-0.183,0.19-0.282,0.289l0.007-0.007l-0.007,0.007c-0.711,0.754-1.493,1.951-2.37,3.522
		c-3.053,5.508-7.163,15.581-10.903,25.392c-3.741,9.812-7.104,19.349-8.618,23.716l0.511,0.183l0.017-0.535
		c-3.627-0.141-7.308-0.239-10.234-0.239v0.535l0.528,0.105c0,0,0.039-0.204,0.116-0.599c0.574-2.944,3.265-16.348,7.579-31.203
		c2.159-7.424,4.719-15.201,7.618-22.216c2.898-7.016,6.142-13.249,9.621-17.567L427.271,195.691l0.384,0.38L427.271,195.691
		L427.271,195.691z"/>
	<path fill="#F6DE24" d="M428.437,195.162c1.542,5.607,4.261,15.222,6.057,19.857c5.071-5.269,8.875-7.749,13.062-8.516
		c0.151-0.359,0.239-0.557,0.239-0.557C436.181,195.212,430.617,194.662,428.437,195.162L428.437,195.162z"/>
	<path fill="#F5DA27" d="M428.437,195.162l-0.518,0.148c1.542,5.607,4.261,15.222,6.075,19.906l0.299,0.789l0.588-0.613
		c2.518-2.613,4.708-4.529,6.769-5.868c2.06-1.338,3.979-2.12,6.005-2.493l0.282-0.056l0.113-0.26
		c0.155-0.359,0.236-0.542,0.236-0.542l0.155-0.352l-0.282-0.268c-4.98-4.607-8.871-7.354-11.889-8.974
		c-3.011-1.606-5.163-2.071-6.653-2.078c-0.511,0-0.94,0.05-1.299,0.134l-0.546,0.127l0.148,0.549L428.437,195.162l0.12,0.529
		c0.278-0.071,0.63-0.113,1.06-0.113c1.258,0,3.241,0.402,6.146,1.951c2.905,1.557,6.73,4.255,11.668,8.819l0.366-0.402
		l-0.496-0.211c0,0-0.084,0.198-0.239,0.557l0.496,0.211l-0.098-0.529c-2.166,0.395-4.237,1.24-6.396,2.648
		c-2.159,1.409-4.406,3.367-6.955,6.023l0.387,0.374l0.5-0.198c-1.771-4.579-4.501-14.207-6.036-19.8L428.437,195.162l0.12,0.529
		L428.437,195.162L428.437,195.162z"/>
	<path fill="#F4D72C" d="M438.424,270.451l0.014,0.077l10.861,2.416c0.606-20.215,15.394-86.608,15.394-86.608h-15.993
		C448.701,186.336,438.188,207.982,438.424,270.451L438.424,270.451z"/>
	<path fill="#F4CC30" d="M438.424,270.451l-0.532,0.084l0.014,0.071l0.057,0.366l11.858,2.634l0.017-0.648
		c0.151-5.001,1.184-12.932,2.652-21.991c2.209-13.587,5.389-29.724,8.019-42.452c1.314-6.361,2.491-11.883,3.342-15.806
		c0.423-1.965,0.765-3.529,1-4.6c0.236-1.078,0.363-1.655,0.366-1.663l0.148-0.648h-17.003l-0.149,0.296
		c-0.045,0.099-10.333,21.342-10.333,82.291c0,0.683,0.004,1.373,0.007,2.071v0.035l0.004,0.042L438.424,270.451h0.542
		c0-0.69-0.007-1.381-0.007-2.064c0-30.414,2.568-50.891,5.128-63.752c1.282-6.431,2.564-10.96,3.518-13.876
		c0.475-1.451,0.873-2.508,1.151-3.191c0.138-0.345,0.247-0.599,0.317-0.761c0.039-0.077,0.063-0.141,0.084-0.183l0.025-0.049
		l-0.483-0.239v0.535h15.993v-0.535l-0.528-0.113c0,0-3.698,16.594-7.47,35.725c-1.888,9.572-3.793,19.771-5.265,28.851
		c-1.472,9.072-2.514,17.018-2.666,22.131l0.535,0.014l0.12-0.528l-10.864-2.416l-0.116,0.528l0.532-0.077l-0.011-0.077
		L438.424,270.451h0.542H438.424L438.424,270.451z"/>
	<path fill="#F3CB2E" d="M438.424,270.451c-0.236-62.47,10.277-84.115,10.277-84.115h0.127l-4.663-7.53
		C428.486,209.89,438.051,268.226,438.424,270.451L438.424,270.451z"/>
	<path fill="#EFBC28" d="M438.424,270.451h0.542c0-0.69-0.007-1.381-0.007-2.064c0-30.414,2.568-50.891,5.128-63.752
		c1.282-6.431,2.564-10.96,3.518-13.876c0.475-1.451,0.873-2.508,1.151-3.191c0.138-0.345,0.247-0.599,0.317-0.761
		c0.039-0.077,0.063-0.141,0.084-0.183l0.025-0.049l-0.483-0.239v0.535h0.127h0.969l-5.677-9.171l-0.433,0.86
		c-7.068,14.024-9.026,33.4-9.026,50.763c0,21.526,3.025,39.973,3.236,41.227l1.07-0.099H438.424l0.532-0.084
		c-0.201-1.212-3.223-19.61-3.223-41.044c-0.007-17.278,1.979-36.542,8.913-50.27l-0.483-0.247l-0.458,0.282l4.663,7.53l0.458-0.282
		v-0.535h-0.127h-0.338l-0.149,0.296c-0.045,0.099-10.333,21.342-10.333,82.291c0,0.683,0.004,1.373,0.007,2.071L438.424,270.451
		l0.532-0.084L438.424,270.451L438.424,270.451z"/>
	<polygon fill="#F6DE24" points="462.883,181.209 444.172,178.8 444.165,178.806 448.828,186.336 464.694,186.336 462.883,181.209 	
		"/>
	<polygon fill="#F4CE30" points="462.883,181.209 462.947,180.673 443.876,178.208 443.69,178.546 443.545,178.828 448.529,186.872 
		465.455,186.872 463.278,180.716 462.947,180.673 462.883,181.209 462.373,181.385 463.93,185.801 449.131,185.801 
		444.623,178.518 444.165,178.806 444.64,179.06 444.647,179.053 444.172,178.8 444.101,179.328 462.813,181.744 462.883,181.209 
		462.373,181.385 462.883,181.209 	"/>
	<path fill="#F6DE24" d="M421.541,162.501l4.663-4.91c-0.765-0.345-4.064-1.732-8.283-1.732c-3.709,0-7.234,5.332-8.671,7.811
		C411.666,163.909,415.497,163.754,421.541,162.501L421.541,162.501z"/>
	<path fill="#F4CE30" d="M421.541,162.501l0.387,0.366l5.184-5.452l-0.687-0.309c-0.803-0.366-4.167-1.789-8.505-1.789
		c-1.06,0-2.071,0.38-3.001,0.958c-1.394,0.86-2.648,2.17-3.698,3.494c-1.046,1.338-1.888,2.684-2.436,3.627l-0.42,0.726
		l0.828,0.084c0.63,0.056,1.345,0.099,2.155,0.099c2.43,0,5.748-0.331,10.301-1.282l0.166-0.028l0.113-0.127L421.541,162.501
		l-0.109-0.535c-4.498,0.943-7.751,1.261-10.083,1.261c-0.778,0-1.458-0.035-2.043-0.092l-0.056,0.535l0.465,0.268
		c0.711-1.218,1.937-3.148,3.416-4.733c0.736-0.803,1.539-1.515,2.356-2.014c0.814-0.507,1.638-0.789,2.434-0.789
		c4.103-0.007,7.335,1.352,8.054,1.676l0.229-0.486l-0.395-0.373l-4.659,4.909L421.541,162.501l-0.109-0.535L421.541,162.501
		L421.541,162.501z"/>
	<path fill="#F4D72C" d="M421.541,162.501c-6.044,1.254-9.875,1.409-12.291,1.169c-0.436,0.747-0.687,1.24-0.687,1.24
		c-6.036,31.992-1.208,77.557-1.208,77.557l15.362-34.464l-1.117-45.573L421.541,162.501L421.541,162.501z"/>
	<path fill="#F4CC30" d="M421.541,162.501l-0.109-0.535c-4.498,0.943-7.751,1.261-10.083,1.261c-0.778,0-1.458-0.035-2.043-0.092
		l-0.348-0.043l-0.172,0.303c-0.441,0.761-0.697,1.261-0.701,1.275l-0.035,0.07l-0.014,0.071
		c-2.328,12.355-3.042,26.696-3.042,39.67c0,20.757,1.828,38.036,1.828,38.043l0.211,1.994l16.225-36.409l-1.145-47.002
		l-0.961,1.021L421.541,162.501l-0.109-0.535L421.541,162.501l0.387,0.366l0.067-0.071l-0.395-0.366l-0.532,0.014l1.106,45.446
		l-15.31,34.358l0.49,0.219l0.539-0.063c0,0-0.028-0.268-0.081-0.775c-0.349-3.571-1.747-19.039-1.747-37.148
		c0-12.932,0.715-27.216,3.029-39.472l-0.532-0.099l0.483,0.247l0.042-0.085c0.092-0.169,0.31-0.584,0.628-1.134l-0.465-0.268
		l-0.056,0.535c0.63,0.056,1.345,0.099,2.155,0.099c2.43,0,5.748-0.331,10.301-1.282l0.166-0.028l0.113-0.127L421.541,162.501
		L421.541,162.501z"/>
	<path fill="#F3CB2E" d="M426.369,157.669c0,0-0.06-0.028-0.165-0.078l-4.603,4.839l1.117,45.573l5.72-12.841L426.369,157.669z"/>
	<path fill="#EFBC28" d="M426.369,157.669l0.237-0.479c-0.004-0.007-0.063-0.035-0.18-0.084l-0.349-0.169l-5.019,5.283l1.12,45.798
		l1.029,0.205l5.775-12.953l-2.092-37.944l-0.285-0.133L426.369,157.669l-0.539,0.028l2.064,37.366l-4.698,10.545l-1.049-42.967
		l4.444-4.677l-0.387-0.374l-0.229,0.486l0.116,0.056l0.042,0.022L426.369,157.669l-0.539,0.028L426.369,157.669z"/>
	<path fill="#F6DE24" d="M489.984,194.69l-4.17-6.846c-5.388-0.845-17.44-1.169-18.866-1.197l9.214,7.234L489.984,194.69
		L489.984,194.69z"/>
	<path fill="#F4CE30" d="M489.984,194.69l0.457-0.275l-4.293-7.065l-0.247-0.035c-2.743-0.429-7.103-0.726-10.977-0.915
		c-3.878-0.19-7.248-0.275-7.966-0.296l-1.62-0.035l10.621,8.339l15.018,0.888l-0.536-0.881L489.984,194.69l0.032-0.535
		l-13.658-0.803l-9.079-7.128l-0.331,0.423l-0.014,0.535c0.708,0.014,4.074,0.105,7.935,0.296c3.856,0.183,8.212,0.479,10.864,0.902
		l0.081-0.535l-0.457,0.281l4.166,6.847L489.984,194.69l0.032-0.535L489.984,194.69L489.984,194.69z"/>
	<path fill="#F4D72C" d="M490.04,194.789l-0.056-0.099l-13.823-0.81l-0.469-0.359c-3.381,9.206-9.417,32.697-10.058,84.115
		l7.811,2.247C472.537,237.036,490.04,194.789,490.04,194.789z"/>
	<path fill="#F4CC30" d="M490.04,194.789l0.458-0.282l-0.057-0.092l-0.148-0.247l-13.936-0.817l-0.331-0.253l-0.581-0.465
		l-0.257,0.697c-3.413,9.291-9.449,32.844-10.097,84.305l-0.004,0.408l8.911,2.564l-0.018-0.733
		c-0.021-1.085-0.032-2.155-0.032-3.225c0-20.793,4.149-41.22,8.297-56.433c2.074-7.607,4.149-13.918,5.705-18.328
		c0.775-2.197,1.423-3.93,1.877-5.099c0.225-0.591,0.401-1.042,0.528-1.338c0.12-0.31,0.183-0.458,0.183-0.458l0.106-0.254
		l-0.148-0.232L490.04,194.789l-0.497-0.211c-0.01,0.035-16.665,40.219-16.672,82.072c0,1.078,0.011,2.155,0.032,3.24l0.542-0.007
		l0.148-0.514l-7.811-2.247l-0.148,0.514l0.535,0.014c0.645-51.39,6.677-74.824,10.03-83.945l-0.507-0.183l-0.327,0.423l0.462,0.366
		l0.133,0.098l13.993,0.824l0.032-0.542l-0.462,0.282l0.056,0.098L490.04,194.789l-0.497-0.211L490.04,194.789L490.04,194.789z"/>
	<path fill="#F3CB2E" d="M466.948,186.647c-0.095-0.007-0.144-0.007-0.144-0.007c-8.146,20.518-17.504,86.305-17.504,86.305
		l16.335,4.691c0.641-51.418,6.677-74.909,10.058-84.115L466.948,186.647z"/>
	<path fill="#EFBC28" d="M466.948,186.647l0.011-0.542c-0.088-0.007-0.141-0.007-0.141-0.007h-0.377l-0.137,0.338
		c-2.057,5.191-4.17,13.157-6.199,22.229c-6.075,27.188-11.333,64.196-11.333,64.203l-0.071,0.465l17.458,5.022l0.011-0.705
		c0.645-51.39,6.677-74.824,10.03-83.945l0.138-0.366l-9.199-7.227l-0.18-0.007L466.948,186.647l-0.335,0.423l8.752,6.874
		l0.327-0.423l-0.503-0.19c-3.413,9.291-9.449,32.844-10.097,84.305h0.542l0.148-0.514l-16.331-4.698l-0.151,0.521l0.536,0.071
		c0,0,0.144-1.029,0.419-2.86c0.947-6.431,3.437-22.794,6.575-39.797c1.571-8.494,3.303-17.151,5.089-24.794
		c1.786-7.649,3.621-14.285,5.385-18.722l-0.5-0.204l-0.011,0.542c0,0,0.046,0,0.141,0L466.948,186.647l-0.335,0.423
		L466.948,186.647L466.948,186.647z"/>
	<path fill="#F3CB2E" d="M496.982,172.151c-25.953,22.328-29.27,106.225-29.27,106.225l5.733,2.219
		c0.514-61.617,24.268-96.195,26.385-99.16c-1.12-3.451-1.852-6.593-2.331-9.079L496.982,172.151z"/>
	<path fill="#EFBC28" d="M496.982,172.151l-0.353-0.402c-6.607,5.684-11.695,15.194-15.679,26.238
		c-5.962,16.581-9.4,36.656-11.358,52.602c-1.955,15.947-2.419,27.751-2.419,27.766l-0.018,0.38l6.818,2.641l0.007-0.782
		c0.518-61.469,24.216-95.941,26.29-98.843l0.155-0.218l-0.081-0.254c-1.113-3.437-1.846-6.551-2.317-9.03l-0.049-0.289
		l-1.106-0.429l-0.243,0.218L496.982,172.151l-0.198,0.507l0.525,0.197l0.19-0.5l-0.529,0.106c0.479,2.5,1.219,5.663,2.349,9.142
		l0.511-0.169l-0.44-0.31c-2.159,3.022-25.966,37.711-26.488,99.47h0.542l0.19-0.507l-5.734-2.211l-0.19,0.5l0.539,0.022
		c0,0,0.01-0.325,0.039-0.944c0.232-4.635,1.454-25.695,5.655-48.199c2.099-11.249,4.945-22.857,8.773-32.929
		c3.825-10.087,8.643-18.631,14.612-23.766L496.982,172.151l-0.198,0.507L496.982,172.151L496.982,172.151z"/>
	<path fill="#F6DE24" d="M512.636,185.42l-0.87-7.537l-14.267-5.529c0.479,2.486,1.211,5.628,2.331,9.079
		c0.099-0.134,0.169-0.225,0.169-0.225L512.636,185.42L512.636,185.42z"/>
	<path fill="#F4CE30" d="M512.636,185.42l0.535-0.063l-0.909-7.853l-15.471-6.002l0.18,0.959c0.479,2.5,1.219,5.663,2.349,9.142
		l0.324,1.015l0.627-0.86c0.095-0.141,0.166-0.239,0.166-0.239L500,181.209l-0.169,0.507l13.436,4.48l-0.095-0.839L512.636,185.42
		l0.169-0.514l-13.01-4.331l-0.232,0.317c0,0-0.071,0.092-0.169,0.232l0.436,0.31l0.514-0.155c-1.113-3.437-1.846-6.551-2.317-9.03
		l-0.528,0.105l-0.19,0.5l13.96,5.424l0.828,7.198L512.636,185.42l0.169-0.514L512.636,185.42L512.636,185.42z"/>
	<path fill="#F4D72C" d="M500,181.209c0,0-26.015,34.894-26.554,99.385l3.617,1.402c8.152-35.908,35.613-96.265,35.613-96.265
		l-0.039-0.31L500,181.209L500,181.209z"/>
	<path fill="#F4CC30" d="M500,181.209l-0.433-0.325c-0.046,0.056-26.118,35.07-26.664,99.71l-0.004,0.366l4.554,1.761l0.133-0.606
		c4.061-17.898,12.953-41.952,20.835-61.519c3.941-9.777,7.625-18.441,10.326-24.653c1.352-3.113,2.458-5.606,3.223-7.325
		c0.38-0.859,0.679-1.528,0.884-1.972c0.201-0.451,0.309-0.69,0.309-0.69l0.063-0.141l-0.056-0.458l-0.043-0.345l-13.33-4.437
		l-0.232,0.309L500,181.209l-0.169,0.507l12.637,4.211l0.169-0.507l-0.539,0.063l0.039,0.317l0.539-0.071l-0.493-0.219
		c0,0.007-6.867,15.095-14.76,34.69c-7.885,19.581-16.795,43.656-20.884,61.674l0.525,0.12l0.197-0.501l-3.624-1.409l-0.19,0.507
		h0.535c0.271-32.168,6.896-56.948,13.447-73.676c3.275-8.368,6.529-14.721,8.966-18.982c1.215-2.134,2.226-3.74,2.934-4.811
		c0.356-0.535,0.63-0.93,0.82-1.197c0.092-0.141,0.169-0.239,0.211-0.296c0.05-0.07,0.071-0.098,0.071-0.098L500,181.209
		l-0.169,0.507L500,181.209L500,181.209z"/>
	<path fill="#F6DE24" d="M521.726,201.727l-14.182-4.53c-1.384,1.719-2.835,4.121-4.328,7.016l19.092,5.093L521.726,201.727
		L521.726,201.727z"/>
	<path fill="#F4CE30" d="M521.726,201.727l0.166-0.514l-14.538-4.635l-0.229,0.282c-1.426,1.768-2.888,4.198-4.388,7.107
		l-0.307,0.599l20.476,5.452l-0.669-8.692l-0.345-0.113L521.726,201.727l-0.539,0.042l0.525,6.825l-18.359-4.902l-0.138,0.521
		l0.476,0.247c1.482-2.881,2.926-5.248,4.271-6.924l-0.419-0.338l-0.165,0.514l14.186,4.53L521.726,201.727l-0.539,0.042
		L521.726,201.727L521.726,201.727z"/>
	<path fill="#F4D72C" d="M503.215,204.213c-11.865,23.026-26.152,77.783-26.152,77.783l10.565,4.529
		c9.657-27.16,34.7-76.951,34.7-76.951l-0.021-0.268L503.215,204.213L503.215,204.213z"/>
	<path fill="#F4CC30" d="M503.215,204.213l-0.479-0.247c-5.966,11.58-12.499,31.035-17.559,47.622
		c-5.058,16.573-8.632,30.267-8.632,30.273l-0.12,0.451l11.519,4.931l0.19-0.535c4.811-13.552,13.485-32.781,20.951-48.615
		c3.733-7.917,7.164-14.989,9.661-20.074c1.25-2.55,2.264-4.6,2.969-6.015c0.704-1.409,1.091-2.184,1.091-2.19l0.071-0.134
		l-0.035-0.415l-0.028-0.38l-19.88-5.304l-0.198,0.387L503.215,204.213l-0.141,0.521l19.096,5.092l0.137-0.521l-0.535,0.042
		l0.021,0.268l0.535-0.042l-0.483-0.247c0,0.007-6.265,12.453-13.735,28.308c-7.473,15.855-16.147,35.091-20.99,48.706l0.507,0.183
		l0.211-0.493l-10.562-4.537l-0.214,0.501l0.521,0.133c0.004,0,0.222-0.845,0.641-2.395c1.444-5.395,5.226-19.194,9.942-34.161
		c4.712-14.961,10.368-31.105,15.525-41.114L503.215,204.213l-0.141,0.521L503.215,204.213L503.215,204.213z"/>
	<path fill="#F3CB2E" d="M487.628,286.525l6.033,3.325c6.903-30.795,33.809-63.464,36.306-66.45
		c-3.758-3.522-8.262-5.706-11.33-6.903C509.312,234.853,487.628,286.525,487.628,286.525z"/>
	<path fill="#EFBC28" d="M487.628,286.525l-0.257,0.465l6.659,3.67l0.155-0.697c3.427-15.285,11.85-31.119,19.736-43.474
		c7.882-12.368,15.222-21.264,16.457-22.751l0.328-0.387l-0.37-0.345c-3.832-3.593-8.396-5.797-11.502-7.016l-0.451-0.176
		l-0.222,0.436c-4.68,9.206-12.428,26.71-19.018,41.931c-6.589,15.214-12.013,28.132-12.013,28.132l-0.19,0.451l0.43,0.226
		L487.628,286.525l0.493,0.211c0,0,0.341-0.817,0.951-2.261c2.141-5.064,7.614-17.996,13.573-31.661
		c5.959-13.664,12.407-28.062,16.475-36.078l-0.483-0.239l-0.19,0.501c3.021,1.176,7.469,3.345,11.153,6.797l0.366-0.394
		l-0.412-0.353c-1.261,1.507-8.621,10.439-16.546,22.857c-7.913,12.418-16.397,28.322-19.873,43.818l0.524,0.127l0.258-0.48
		l-6.033-3.324L487.628,286.525l0.493,0.211L487.628,286.525z"/>
	<path fill="#F6DE24" d="M527.763,211.989l-7.544,1.507c-0.476,0.86-1.004,1.867-1.582,3c3.068,1.197,7.572,3.381,11.33,6.903
		c0.123-0.148,0.208-0.254,0.208-0.254L527.763,211.989L527.763,211.989z"/>
	<path fill="#F4CE30" d="M527.763,211.989l-0.106-0.535l-7.79,1.564l-0.123,0.219c-0.475,0.866-1.007,1.88-1.581,3.014l-0.268,0.529
		l0.553,0.219c3.021,1.176,7.469,3.345,11.153,6.797l0.416,0.388l0.366-0.444c0.12-0.141,0.201-0.239,0.201-0.239l0.176-0.197
		l-2.585-11.946l-0.518,0.099L527.763,211.989l-0.529,0.113l2.413,11.164l0.528-0.12l-0.408-0.338c0,0-0.088,0.099-0.211,0.247
		l0.412,0.345l0.37-0.395c-3.832-3.593-8.396-5.797-11.502-7.016l-0.198,0.507l0.483,0.239c0.574-1.127,1.099-2.127,1.567-2.98
		l-0.468-0.26l0.105,0.529l7.544-1.515L527.763,211.989l-0.529,0.113L527.763,211.989L527.763,211.989z"/>
	<path fill="#F6DE24" d="M287.395,219.864c-0.285-0.408-0.44-0.634-0.44-0.634l-10.562,3.318v5.135
		c0.285,0.211,0.571,0.458,0.852,0.705l10.513-3.825L287.395,219.864L287.395,219.864z"/>
	<path fill="#F4CE30" d="M287.395,219.864l0.447-0.296c-0.289-0.423-0.451-0.648-0.451-0.655l-0.229-0.317l-11.309,3.557v5.797
		l0.215,0.155c0.261,0.197,0.542,0.451,0.831,0.69l0.24,0.198l11.185-4.064l-0.405-5.248l-0.077-0.113L287.395,219.864l-0.539,0.043
		l0.331,4.282l-10.125,3.691l0.183,0.507l0.349-0.416c-0.282-0.239-0.574-0.485-0.877-0.725l-0.324,0.436h0.535v-4.74l10.189-3.205
		l-0.162-0.507l-0.44,0.31c0,0,0.039,0.056,0.113,0.155c0.07,0.113,0.183,0.268,0.324,0.479L287.395,219.864l-0.539,0.043
		L287.395,219.864L287.395,219.864z"/>
	<path fill="#F4D72C" d="M277.245,228.387c14.545,12.157,29.999,54.49,29.999,54.49l2.772-1.212
		c-5.36-29.175-22.258-57.103-22.258-57.103L277.245,228.387L277.245,228.387z"/>
	<path fill="#F4CC30" d="M277.245,228.387l-0.345,0.408c3.557,2.972,7.234,7.861,10.71,13.51
		c5.219,8.48,10.006,18.679,13.482,26.745c1.74,4.035,3.152,7.544,4.128,10.037c0.489,1.246,0.866,2.24,1.127,2.923
		c0.257,0.684,0.387,1.049,0.387,1.049l0.198,0.536l3.691-1.613l-0.078-0.423c-5.391-29.294-22.31-57.243-22.328-57.279l-0.225-0.38
		l-11.805,4.297l0.715,0.599L277.245,228.387l0.187,0.5l10.506-3.825l-0.18-0.5l-0.462,0.275c0,0,0.063,0.113,0.187,0.324
		c1.867,3.141,17.003,29.372,22.001,56.596l0.532-0.092l-0.219-0.493l-2.771,1.212l0.218,0.493l0.507-0.183
		c-0.007-0.014-3.874-10.608-9.565-22.73c-2.846-6.064-6.15-12.517-9.657-18.215c-3.515-5.712-7.223-10.671-10.939-13.778
		L277.245,228.387l0.187,0.5L277.245,228.387L277.245,228.387z"/>
	<path fill="#F3CB2E" d="M287.395,219.864l0.363,4.698c0,0,16.897,27.928,22.258,57.103l0.976-0.437
		C305.958,248.194,290.233,224.02,287.395,219.864z"/>
	<path fill="#EFBC28" d="M287.395,219.864l-0.539,0.043l0.373,4.818l0.067,0.113c0,0,0.063,0.113,0.187,0.324
		c1.867,3.141,17.003,29.372,22.001,56.596l0.127,0.669l1.976-0.867l-0.067-0.401c-5.054-33.175-20.817-57.406-23.677-61.59
		l-1.138-1.669l0.151,2.007L287.395,219.864l-0.444,0.31c2.814,4.106,18.497,28.224,23.504,61.139l0.536-0.085l-0.222-0.485
		l-0.972,0.429l0.219,0.493l0.528-0.106c-5.391-29.294-22.31-57.243-22.328-57.279l-0.457,0.282l0.535-0.049l-0.359-4.691
		L287.395,219.864l-0.444,0.31L287.395,219.864z"/>
	<path fill="#F1CD21" d="M500.201,183.617c0,0-15.489,23.54-18.508,47.883c0,0,13.274-44.46,27.358-45.671L500.201,183.617
		L500.201,183.617z"/>
	<path fill="#F1CD21" d="M517.081,209.834l0.219,0.043C517.229,209.862,517.158,209.848,517.081,209.834L517.081,209.834z
		 M504.427,207.256c0,0-9.661,21.526-12.474,34.401c0,0,10.534-31.964,23.628-31.964c0.5,0,0.997,0.042,1.5,0.141L504.427,207.256
		L504.427,207.256z"/>
	<path fill="#F1CD21" d="M459.767,188.752h-9.456c0,0-5.832,20.519-7.847,34.197c-0.264,1.782-0.345,2.563-0.264,2.563
		C442.743,225.513,450.494,190.852,459.767,188.752L459.767,188.752z"/>
	<path fill="#F1CD21" d="M411.458,166.008c-0.06,0-0.12,0-0.18,0.014c0,0,0.126,0,0.341-0.007
		C411.567,166.008,411.515,166.008,411.458,166.008L411.458,166.008z M418.928,165.417c-1.549,0.514-6.036,0.591-7.308,0.599
		c2.663,0.317,4.564,8.424,5.85,16.531c1.317,8.277,1.993,16.545,2.194,16.545c0.042,0,0.066-0.401,0.066-1.289
		C419.73,188.752,418.928,165.417,418.928,165.417L418.928,165.417z"/>
	<path fill="#F1CD21" d="M379.494,175.278l-8.85,0.599c0,0-4.825,32.788-2.617,45.868c0.236,1.388,0.401,2.007,0.535,2.007
		c0.37,0,0.423-5.114,0.782-12.016l-1.282-0.141l0.391-0.824l0.936,0.077C370.122,197.416,372.053,177.94,379.494,175.278
		L379.494,175.278z"/>
	<path fill="#F1CD21" d="M351.33,164.008c-2.211,0-13.077,5.029-13.077,5.029c0.282-0.029,0.564-0.043,0.835-0.043
		c5.825,0,9.615,5.656,12.086,13.157l0.187-0.641l0.638,1.416l-0.542,0.099c1.064,3.43,1.87,7.199,2.483,10.974
		c2.025,12.495,1.927,25.005,2.072,25.005c0.032,0,0.066-0.591,0.148-1.888c0.517-8.657-0.712-28.104-2.24-40.91l-1.613-0.183
		l0.395-0.817l1.106,0.099C352.989,168.657,352.087,164.008,351.33,164.008L351.33,164.008z"/>
	<path fill="#F1CD21" d="M324.976,205.044l-1.046-0.113l0.219-0.464l0.919,0.084L324.976,205.044L324.976,205.044z M321.743,194.451
		l-1.859-0.211l0.391-0.817l1.63,0.141L321.743,194.451L321.743,194.451z M325.786,188.238l0.483-1.62l0.634,1.422L325.786,188.238
		L325.786,188.238z M329.072,181.35l-1.863-0.211l0.391-0.817l1.634,0.134L329.072,181.35L329.072,181.35z M326.994,175.377
		c-3.339,0-12.478,1.908-12.478,1.908s11.664,50.897,11.664,58.343c0,0.535,0.018,0.782,0.046,0.782
		c0.366,0,2.954-41.368,3.775-44.439c2.215-8.248-1.606-15.087-1.81-16.298C328.156,175.461,327.709,175.377,326.994,175.377
		L326.994,175.377z"/>
	<path fill="#F1CD21" d="M308.388,211.594c-2.962,0-8.561,1.705-8.561,1.705c0.099-0.014,0.197-0.014,0.292-0.014
		c5.935,0,10.435,8.551,13.506,17.13l0.141-0.056l-0.01,0.423c3.011,8.523,4.602,16.954,4.779,16.954c0.028,0,0.028-0.141,0-0.444
		c-0.398-5.029-7.438-33.598-8.449-35.204C309.864,211.729,309.234,211.594,308.388,211.594L308.388,211.594z"/>
	<path fill="#F1CD21" d="M296.868,248.039l-1.295-0.845l0.827-0.775L296.868,248.039L296.868,248.039z M288.222,232.296l-0.19-0.472
		l0.943-0.464l0.063,0.507L288.222,232.296L288.222,232.296z M286.955,227.372l-7.445,2.015c0.081-0.014,0.166-0.014,0.25-0.014
		c2.624,0,6.698,5.311,10.29,10.621c3.589,5.311,6.696,10.622,7.386,10.622c0.186,0,0.193-0.402-0.022-1.31
		C295.601,241.657,286.955,227.372,286.955,227.372L286.955,227.372z"/>
	<path fill="#FBEF92" d="M310.642,200.367c0,0-2.718,5.733-10.262,8.903l9.202-2.268L310.642,200.367L310.642,200.367z"/>
	<path fill="#FBEF92" d="M327.237,165.516c0,0-3.135,4.015-7.526,4.015c-1.624,0-3.423-0.55-5.296-2.056l-0.602,5.733l14.932-3.015
		L327.237,165.516L327.237,165.516z"/>
	<path fill="#FBEF92" d="M354.7,154.048c0,0-6.941,6.487-17.049,10.566c0,0,12.672-4.53,14.482-4.677
		C353.943,159.781,354.7,154.048,354.7,154.048L354.7,154.048z"/>
	<path fill="#FBEF92" d="M285.747,220.582c0,0-5.885,4.677-7.998,5.888l7.847-2.718L285.747,220.582L285.747,220.582z"/>
	<path fill="#FBEF92" d="M423.2,157.514c0,0-5.737,3.775-11.316,4.832c0,0,7.998-0.606,8.752-0.902
		C421.386,161.141,423.2,157.514,423.2,157.514L423.2,157.514z"/>
	<path fill="#FBEF92" d="M446.437,181.391l3.07,4.156l13.376,0.183C462.883,185.731,452.219,185.371,446.437,181.391
		L446.437,181.391z"/>
	<polygon fill="#FBEF92" points="471.938,188.45 476.612,192.823 482.194,192.823 483.55,189.506 471.938,188.45 	"/>
	<path fill="#FBEF92" d="M499.697,175.32l1.208,4.072l10.259,3.479C511.164,182.871,502.113,179.096,499.697,175.32L499.697,175.32z
		"/>
	<path fill="#FBEF92" d="M507.846,199.311l-2.264,3.93c0,0,12.372,3.761,14.334,3.761
		C521.877,207.002,507.994,203.839,507.846,199.311L507.846,199.311z"/>
	<path fill="#FBEF92" d="M526.555,214.102l-4.526,1.352c0,0,4.977,2.564,5.431,4.072c0.042,0.154,0.07,0.218,0.084,0.218
		C527.66,219.744,526.555,214.102,526.555,214.102L526.555,214.102z"/>
	<polygon fill="#FAEB96" points="504.906,233.106 504.148,234.613 505.279,234.613 504.906,233.106 	"/>
	<polygon fill="#FAEB96" points="507.318,227.133 506.79,227.88 508.579,228.401 508.899,227.555 507.318,227.133 	"/>
	<polygon fill="#FAEB96" points="499.697,250.306 499.401,250.729 500.409,251.025 500.588,250.546 499.697,250.306 	"/>
	<polygon fill="#FAEB96" points="497.809,238.755 497.285,239.487 499.077,240.023 499.395,239.178 497.809,238.755 	"/>
	<polygon fill="#FAEB96" points="494.84,251.419 494.09,252.927 495.221,252.927 494.84,251.419 	"/>
	<polygon fill="#FAEB96" points="497.257,245.446 496.728,246.179 498.524,246.707 498.838,245.869 497.257,245.446 	"/>
	<polygon fill="#FAEB96" points="489.635,268.62 489.339,269.036 490.35,269.331 490.527,268.86 489.635,268.62 	"/>
	<polygon fill="#FAEB96" points="487.755,257.055 487.223,257.801 489.019,258.329 489.336,257.484 487.755,257.055 	"/>
	<polygon fill="#FAEB96" points="485.307,233.402 484.18,233.444 484.62,234.938 485.307,233.402 	"/>
	<polygon fill="#FAEB96" points="481.148,239.798 480.87,240.657 482.469,241.009 482.968,240.248 481.148,239.798 	"/>
	<polygon fill="#FAEB96" points="488.332,216.85 488.177,217.329 489.075,217.525 489.354,217.096 488.332,216.85 	"/>
	<polygon fill="#FAEB96" points="490.139,227.781 489.861,228.64 491.463,228.993 491.956,228.232 490.139,227.781 	"/>
	<polygon fill="#FAEB96" points="449.838,222.583 448.715,222.716 449.265,224.168 449.838,222.583 	"/>
	<polygon fill="#FAEB96" points="446.162,229.274 445.947,230.162 447.571,230.387 448.011,229.592 446.162,229.274 	"/>
	<polygon fill="#FAEB96" points="451.621,205.854 451.505,206.347 452.413,206.481 452.66,206.031 451.621,205.854 	"/>
	<polygon fill="#FAEB96" points="454.237,216.624 454.022,217.497 455.646,217.737 456.083,216.934 454.237,216.624 	"/>
	<polygon fill="#FAEB96" points="418.343,238.466 417.223,238.6 417.776,240.051 418.343,238.466 	"/>
	<polygon fill="#FAEB96" points="414.674,245.164 414.455,246.038 416.075,246.271 416.515,245.475 414.674,245.164 	"/>
	<polygon fill="#FAEB96" points="420.132,221.738 420.013,222.231 420.925,222.357 421.167,221.914 420.132,221.738 	"/>
	<path fill="#FAEB96" d="M423.224,232.585c-0.141,0.282-0.275,0.563-0.408,0.838l1.338,0.19l0.437-0.789L423.224,232.585
		L423.224,232.585z"/>
	<polygon fill="#FAEB96" points="355.179,231.338 354.239,231.972 355.391,233.007 355.179,231.338 	"/>
	<polygon fill="#FAEB96" points="356.75,238.41 354.964,238.973 355.179,239.854 356.722,239.319 356.75,238.41 	"/>
	<polygon fill="#FAEB96" points="350.125,215.328 349.122,215.638 349.238,216.131 350.112,215.835 350.125,215.328 	"/>
	<polygon fill="#FAEB96" points="358.152,223.463 356.37,224.027 356.578,224.907 358.131,224.372 358.152,223.463 	"/>
	<polygon fill="#FAEB96" points="314.714,256.04 313.777,256.674 314.929,257.717 314.714,256.04 	"/>
	<polygon fill="#FAEB96" points="316.288,263.112 314.506,263.675 314.714,264.556 316.26,264.028 316.288,263.112 	"/>
	<polygon fill="#FAEB96" points="309.664,240.03 308.66,240.347 308.776,240.84 309.649,240.544 309.664,240.03 	"/>
	<polygon fill="#FAEB96" points="317.69,248.166 315.904,248.729 316.115,249.609 317.665,249.081 317.69,248.166 	"/>
	<polygon fill="#FAEB96" points="310.79,238.241 309.853,238.868 311.005,239.91 310.79,238.241 	"/>
	<polygon fill="#FAEB96" points="312.365,245.312 310.579,245.869 310.787,246.756 312.337,246.221 312.365,245.312 	"/>
	<polygon fill="#FAEB96" points="305.74,222.224 304.74,222.54 304.853,223.034 305.726,222.738 305.74,222.224 	"/>
	<path fill="#FAEB96" d="M313.625,230.415l-1.645,0.514l0.211,0.881l1.553-0.535l0.011-0.493c-0.032-0.084-0.063-0.183-0.095-0.268
		C313.65,230.479,313.636,230.443,313.625,230.415L313.625,230.415z"/>
	<path fill="#F8E690" d="M313.766,230.359l-0.141,0.056c0.011,0.028,0.025,0.063,0.035,0.099c0.032,0.084,0.063,0.183,0.095,0.268
		L313.766,230.359L313.766,230.359z"/>
	<polygon fill="#F8E690" points="296.4,246.419 295.573,247.193 296.868,248.039 296.4,246.419 	"/>
	<polygon fill="#FAEB96" points="299.034,253.166 297.354,253.997 297.696,254.829 299.14,254.068 299.034,253.166 	"/>
	<polygon fill="#F8E690" points="288.976,231.359 288.033,231.824 288.222,232.296 289.04,231.866 288.976,231.359 	"/>
	<polygon fill="#FAEB96" points="374.451,203.974 373.968,205.594 375.081,205.397 374.451,203.974 	"/>
	<polygon fill="#FAEB96" points="375.782,197.677 375.391,198.493 377.251,198.698 377.412,197.818 375.782,197.677 	"/>
	<polygon fill="#FAEB96" points="372.331,221.822 372.105,222.287 373.158,222.4 373.25,221.9 372.331,221.822 	"/>
	<path fill="#FAEB96" d="M369.39,210.848c-0.014,0.303-0.032,0.592-0.045,0.888l0.581,0.063l0.162-0.888L369.39,210.848
		L369.39,210.848z"/>
	<path fill="#F8E690" d="M368.453,210.771l-0.391,0.824l1.282,0.141c0.014-0.296,0.032-0.585,0.045-0.888L368.453,210.771
		L368.453,210.771z"/>
	<path fill="#FAEB96" d="M351.175,182.152l-0.288,0.986l0.57-0.113C351.362,182.737,351.273,182.448,351.175,182.152
		L351.175,182.152z"/>
	<path fill="#F8E690" d="M351.362,181.511l-0.187,0.641c0.099,0.296,0.187,0.585,0.282,0.873l0.542-0.099L351.362,181.511
		L351.362,181.511z"/>
	<path fill="#FAEB96" d="M353.806,175.306c0.043,0.296,0.077,0.591,0.113,0.902l0.25,0.028l0.162-0.887L353.806,175.306
		L353.806,175.306z"/>
	<path fill="#F8E690" d="M352.7,175.207l-0.395,0.817l1.613,0.183c-0.035-0.31-0.07-0.606-0.113-0.902L352.7,175.207L352.7,175.207z
		"/>
	<polygon fill="#FAEB96" points="349.249,199.36 349.027,199.818 350.073,199.937 350.164,199.438 349.249,199.36 	"/>
	<polygon fill="#FAEB96" points="345.371,188.308 344.98,189.126 346.84,189.337 347.005,188.45 345.371,188.308 	"/>
	<polygon fill="#F8E690" points="326.269,186.618 325.786,188.238 326.903,188.041 326.269,186.618 	"/>
	<polygon fill="#F8E690" points="327.6,180.321 327.209,181.138 329.072,181.35 329.234,180.455 327.6,180.321 	"/>
	<polygon fill="#F8E690" points="324.149,204.467 323.93,204.931 324.976,205.044 325.068,204.551 324.149,204.467 	"/>
	<polygon fill="#F8E690" points="320.275,193.422 319.884,194.239 321.743,194.451 321.905,193.563 320.275,193.422 	"/>
	<polygon fill="#FAEB96" points="375.972,233.106 375.497,234.726 376.606,234.529 375.972,233.106 	"/>
	<polygon fill="#FAEB96" points="377.307,226.809 376.912,227.626 378.775,227.83 378.941,226.95 377.307,226.809 	"/>
	<polygon fill="#FAEB96" points="373.856,250.955 373.637,251.419 374.683,251.533 374.775,251.039 373.856,250.955 	"/>
	<polygon fill="#FAEB96" points="369.982,239.91 369.587,240.727 371.447,240.931 371.612,240.051 369.982,239.91 	"/>
	<polygon fill="#FAEB96" points="411.504,213.215 410.384,213.349 410.937,214.807 411.504,213.215 	"/>
	<polygon fill="#FAEB96" points="407.827,219.906 407.615,220.787 409.236,221.019 409.676,220.223 407.827,219.906 	"/>
	<polygon fill="#FAEB96" points="413.293,196.486 413.17,196.979 414.085,197.113 414.328,196.662 413.293,196.486 	"/>
	<polygon fill="#FAEB96" points="415.909,207.256 415.691,208.13 417.315,208.369 417.755,207.565 415.909,207.256 	"/>
	<polygon fill="#FAEB96" points="414.842,190.788 413.926,191.457 415.124,192.45 414.842,190.788 	"/>
	<polygon fill="#FAEB96" points="416.706,197.782 414.945,198.423 415.187,199.29 416.716,198.691 416.706,197.782 	"/>
	<polygon fill="#FAEB96" points="409.134,174.996 408.14,175.349 408.281,175.841 409.137,175.503 409.134,174.996 	"/>
	<polygon fill="#FAEB96" points="417.487,182.794 415.727,183.434 415.973,184.301 417.501,183.702 417.487,182.794 	"/>
	<path fill="#F4D72C" d="M389.556,188.45c0,0-0.268,58.37-4.007,78.987l10.945-0.528c-0.302-17.799,12.373-80.572,12.373-80.572
		S396.191,189.351,389.556,188.45L389.556,188.45z"/>
	<path fill="#F4CC30" d="M389.556,188.45h-0.539c0,0-0.007,0.908-0.021,2.542c-0.053,5.726-0.229,20.321-0.803,35.732
		s-1.554,31.661-3.174,40.614l-0.123,0.669l12.143-0.584l-0.006-0.521c-0.007-0.211-0.007-0.423-0.007-0.641
		c0-4.6,0.771-11.917,1.93-20.271c1.74-12.531,4.349-27.421,6.525-39.176c1.085-5.875,2.064-10.968,2.772-14.588
		c0.352-1.818,0.638-3.262,0.835-4.254c0.198-0.987,0.303-1.522,0.31-1.522l0.162-0.831l-0.817,0.197c0,0-0.148,0.028-0.419,0.099
		c-1.909,0.43-9.992,2.17-15.908,2.17c-1.01,0-1.955-0.056-2.789-0.169l-0.609-0.084v0.62H389.556l-0.077,0.535
		c0.898,0.127,1.891,0.169,2.937,0.169c6.973,0,16.556-2.289,16.574-2.296l-0.123-0.521l-0.529-0.106
		c0,0.007-3.096,15.334-6.194,32.986c-1.546,8.833-3.093,18.25-4.255,26.625c-1.158,8.375-1.937,15.707-1.937,20.419
		c0,0.226,0,0.444,0.003,0.656l0.539-0.007l-0.028-0.542l-10.942,0.535l0.025,0.535l0.528,0.099
		c1.881-10.383,2.881-30.119,3.416-47.305c0.536-17.179,0.599-31.781,0.599-31.781H389.556l-0.077,0.535L389.556,188.45
		L389.556,188.45z"/>
	<path fill="#F3CB2E" d="M380.092,267.704l5.456-0.268c3.74-20.617,4.007-78.987,4.007-78.987l-5.737-3.015
		C382.61,201.121,380.092,267.704,380.092,267.704L380.092,267.704z"/>
	<path fill="#EFBC28" d="M380.092,267.704l0.028,0.536l5.878-0.282l0.077-0.423c1.881-10.383,2.881-30.119,3.416-47.305
		c0.536-17.179,0.599-31.781,0.599-31.781v-0.325l-6.745-3.55l-0.063,0.817c-1.212,15.721-3.73,82.284-3.73,82.284l-0.021,0.592
		l0.588-0.028L380.092,267.704l0.539,0.014c0,0,0.039-1.042,0.11-2.888c0.496-12.953,2.56-65.661,3.616-79.354l-0.539-0.042
		l-0.25,0.472l5.73,3.022l0.257-0.479h-0.539c0,0-0.007,0.908-0.021,2.542c-0.053,5.726-0.229,20.321-0.803,35.732
		s-1.554,31.661-3.174,40.614l0.529,0.098l-0.025-0.535l-5.456,0.268L380.092,267.704l0.539,0.014L380.092,267.704L380.092,267.704z
		"/>
	<path fill="#F6DE24" d="M408.866,186.336c0,0-12.978-3.924-15.993-3.621c-3.018,0.303-9.055,2.719-9.055,2.719l5.737,3.015
		C396.191,189.351,408.866,186.336,408.866,186.336L408.866,186.336z"/>
	<path fill="#F4CE30" d="M408.866,186.336l0.159-0.514c-0.007-0.007-3.019-0.909-6.484-1.824c-1.736-0.458-3.585-0.916-5.234-1.254
		c-1.645-0.352-3.081-0.584-4.06-0.584c-0.151,0-0.296,0.007-0.43,0.021c-1.606,0.162-3.87,0.845-5.776,1.493
		c-1.902,0.648-3.42,1.254-3.423,1.254l-1.081,0.436l6.85,3.606l0.092,0.014c0.898,0.127,1.891,0.169,2.937,0.169
		c6.973,0,16.556-2.289,16.574-2.296l1.944-0.458l-1.908-0.578L408.866,186.336l-0.123-0.521c0,0-0.148,0.028-0.419,0.099
		c-1.909,0.43-9.992,2.17-15.908,2.17c-1.01,0-1.955-0.056-2.789-0.169l-0.071,0.536l0.247-0.479l-5.733-3.015l-0.25,0.479
		l0.201,0.493c0,0,0.092-0.028,0.26-0.098c0.591-0.233,2.12-0.817,3.825-1.374c1.697-0.556,3.585-1.078,4.821-1.204
		c0.084-0.014,0.198-0.014,0.321-0.014c0.816,0,2.232,0.219,3.842,0.556c2.43,0.508,5.335,1.275,7.635,1.909
		c1.151,0.324,2.148,0.606,2.856,0.817c0.711,0.211,1.127,0.331,1.127,0.331L408.866,186.336l-0.123-0.521L408.866,186.336
		L408.866,186.336z"/>
	<path fill="#F1CD21" d="M402.83,189.956l-9.854,1.008c0,0-0.807,24.941-2.018,38.628c-0.138,1.598-0.176,2.303-0.127,2.303
		C391.222,231.895,396.79,191.555,402.83,189.956L402.83,189.956z"/>
	<path fill="#FBEF92" d="M387.439,185.583l3.169,1.965l11.513-0.437c0.05,0,0.092-0.014,0.138-0.014c-0.032,0-0.06,0-0.095,0
		C399.832,187.097,391.908,186.984,387.439,185.583L387.439,185.583z"/>
	<path fill="#FAE798" d="M402.83,187.09c0,0-0.205,0.007-0.571,0.007c-0.046,0-0.088,0.014-0.138,0.014L402.83,187.09L402.83,187.09
		z"/>
	<polygon fill="#FAEB96" points="391.652,229.993 391.856,231.528 392.775,230.12 391.652,229.993 	"/>
	<path fill="#FAEB96" d="M388.862,236.296c-0.014,0.275-0.025,0.557-0.038,0.839l0.556-0.62L388.862,236.296L388.862,236.296z"/>
	<path fill="#F9E597" d="M387.654,235.783l-0.405,0.803l0.511,0.211c0.018-0.317,0.032-0.634,0.046-0.944L387.654,235.783
		L387.654,235.783z"/>
	<path fill="#F7DE94" d="M387.806,235.853c-0.014,0.31-0.028,0.627-0.046,0.944l1.008,0.395l0.056-0.056
		c0.014-0.282,0.025-0.564,0.038-0.839L387.806,235.853L387.806,235.853z"/>
	<polygon fill="#FAEB96" points="398.371,214.25 398.142,214.708 398.998,215.046 399.34,214.666 398.371,214.25 	"/>
	<polygon fill="#FAEB96" points="398.431,225.33 398.022,226.14 399.544,226.739 400.153,226.062 398.431,225.33 	"/>
	<path fill="#F1CD21" d="M428.063,203.143c-0.268,0-0.451,0.507-0.49,1.704c0,0-1.119,20.765-10.041,39.191
		c1.163-2.31,3.159-6.311,5.283-10.615l-0.286-0.043l0.215-0.873l0.479,0.077c3.621-7.361,7.456-15.327,7.974-17.074
		C432.015,212.722,429.236,203.143,428.063,203.143L428.063,203.143z"/>
	<path fill="#F7E071" d="M422.745,232.508l-0.215,0.873l0.286,0.043c0.133-0.275,0.268-0.556,0.408-0.838L422.745,232.508
		L422.745,232.508z"/>
	<path fill="#F1CD21" d="M417.533,244.038c-0.641,1.282-1.021,2.05-1.021,2.05C416.861,245.404,417.205,244.728,417.533,244.038
		L417.533,244.038z"/>
	<path fill="#F1CD21" d="M342.276,197.197h-1.807c0,0-2.011,30.175,2.412,50.095l4.424-1
		C347.304,246.292,342.078,209.271,342.276,197.197L342.276,197.197z"/>
	<path fill="#EF5056" d="M498.186,293.357c-0.011-0.155-0.025-0.324-0.039-0.493c-1.874-1.296-4.691-3.099-8.449-5.163
		c-7.097-3.895-17.577-8.699-31.552-12.686c-13.485-3.839-30.231-6.903-50.295-7.649c-4.466-0.169-9.079-0.239-13.873-0.155
		c-11.812,0.197-22.342,0.909-31.724,1.958c-30.587,3.43-48.795,10.466-58.012,15.157c-2.634,1.339-4.543,2.493-5.79,3.303
		c3.219,15.109,7.881,37.564,12.538,60.16c3.458,16.806,6.913,33.682,9.769,47.657c4.008,19.609,6.833,33.507,6.833,33.507
		s5.05,3.374,14.081,7.6c23.078,10.798,72.208,27.16,129.828,7.142c3.37-1.169,6.765-2.451,10.191-3.874
		c2.356-1.521,5.702-21.722,8.763-47.094c1.469-12.129,2.867-25.441,4.064-38.458C496.795,329.491,498.341,305.782,498.186,293.357
		L498.186,293.357z"/>
	<path fill="#D0434B" d="M498.186,293.357l0.539-0.028c-0.014-0.169-0.025-0.338-0.043-0.514l-0.021-0.247l-0.208-0.148
		c-1.888-1.303-4.723-3.12-8.495-5.191c-7.135-3.917-17.651-8.735-31.664-12.721c-13.527-3.86-30.316-6.931-50.422-7.684
		c-3.191-0.12-6.463-0.19-9.816-0.19c-1.349,0-2.711,0.014-4.092,0.043c-11.823,0.19-22.371,0.902-31.77,1.958
		c-30.647,3.438-48.918,10.495-58.195,15.214c-2.652,1.352-4.581,2.508-5.842,3.332l-0.307,0.205l0.074,0.359
		c3.223,15.108,7.882,37.564,12.538,60.16c3.458,16.799,6.913,33.675,9.77,47.657c2.001,9.798,3.712,18.172,4.92,24.103
		c0.599,2.959,1.078,5.311,1.406,6.917c0.327,1.62,0.503,2.479,0.503,2.479l0.042,0.219l0.187,0.12
		c0.018,0.014,5.096,3.409,14.154,7.65c15.218,7.114,41.706,16.637,74.49,16.637c17.108,0,35.926-2.592,55.743-9.481
		c3.381-1.169,6.786-2.451,10.224-3.888l0.042-0.014l0.039-0.028c0.25-0.162,0.433-0.38,0.612-0.662
		c0.335-0.514,0.641-1.233,0.965-2.17c1.12-3.268,2.339-9.198,3.606-16.947c1.264-7.748,2.568-17.292,3.825-27.702
		c1.465-12.136,2.867-25.449,4.068-38.465c2.17-23.666,3.676-46.34,3.676-59.194c0-0.613,0-1.212-0.01-1.775v-0.014v-0.014
		L498.186,293.357l-0.539,0.014c0.01,0.564,0.014,1.155,0.014,1.761c0,12.777-1.507,35.45-3.676,59.096
		c-1.202,13.01-2.599,26.308-4.064,38.431c-1.528,12.678-3.127,24.068-4.638,32.464c-0.757,4.198-1.489,7.643-2.18,10.122
		c-0.338,1.239-0.673,2.232-0.976,2.944c-0.151,0.352-0.299,0.633-0.434,0.838c-0.126,0.204-0.246,0.317-0.292,0.338l0.292,0.458
		l-0.208-0.5c-3.416,1.422-6.8,2.698-10.161,3.867c-19.697,6.846-38.395,9.425-55.391,9.425c-32.577,0-58.913-9.474-74.032-16.553
		c-4.497-2.099-8.009-3.994-10.389-5.353c-1.191-0.69-2.099-1.239-2.708-1.62c-0.307-0.183-0.535-0.331-0.69-0.436
		c-0.151-0.099-0.226-0.141-0.226-0.141l-0.296,0.444l0.521-0.106c0,0-2.821-13.904-6.829-33.507
		c-2.856-13.981-6.307-30.858-9.77-47.664c-4.656-22.589-9.315-45.051-12.534-60.16l-0.528,0.113l0.296,0.451
		c1.225-0.803,3.12-1.944,5.737-3.275c9.156-4.656,27.294-11.678,57.828-15.101c9.364-1.049,19.88-1.761,31.672-1.958
		c1.373-0.021,2.726-0.028,4.071-0.028c3.342,0,6.597,0.063,9.777,0.183c20.014,0.746,36.718,3.803,50.165,7.635
		c13.932,3.973,24.375,8.755,31.443,12.636c3.736,2.05,6.543,3.846,8.399,5.128l0.307-0.437l-0.539,0.043
		c0.017,0.169,0.032,0.338,0.045,0.493L498.186,293.357l-0.539,0.014L498.186,293.357L498.186,293.357z"/>
	<path fill="#D91E3E" d="M306.948,290.498c0,0,29.157,129.518,42.248,136.259c13.087,6.741,72.789,26.773,120.784,5.754
		l16.662-135.66C486.642,296.851,419.206,248.454,306.948,290.498L306.948,290.498z"/>
	<polygon fill="#D91E3E" points="346.389,424.411 327.477,428.426 327.699,429.482 346.614,425.461 	"/>
	<polygon fill="#D91E3E" points="469.748,432.991 481.457,438.696 481.93,437.724 470.216,432.026 	"/>
	<path fill="#E14B65" d="M428.585,280.693c49.083,10.657,35.401,150.072,35.401,150.072l17.707-129.955
		C459.964,284.109,428.585,280.693,428.585,280.693L428.585,280.693z"/>
	<path fill="#C61124" d="M311.899,292.555c0,0,26.153,126.342,41.843,132.779c15.693,6.438,35.813,10.46,46.273,10.869
		C400.015,436.202,342.878,395.159,311.899,292.555L311.899,292.555z"/>
</g>
</svg>
