<?xml version="1.0" encoding="utf-8"?>
<!-- Generator: Adobe Illustrator 17.0.0, SVG Export Plug-In . SVG Version: 6.00 Build 0)  -->
<!DOCTYPE svg PUBLIC "-//W3C//DTD SVG 1.1//EN" "http://www.w3.org/Graphics/SVG/1.1/DTD/svg11.dtd">
<svg version="1.1" id="Layer_1" xmlns="http://www.w3.org/2000/svg" xmlns:xlink="http://www.w3.org/1999/xlink" x="0px" y="0px"
	 width="800px" height="600px" viewBox="0 0 800 600" enable-background="new 0 0 800 600" xml:space="preserve">
<g>
	<g>
		<g>
			<g>
				<path fill="#E6AE9D" d="M339.457,538.39c-7.986,0-16.385-5.03-21.916-13.126c-5.985-8.758-7.483-19.304-4.009-28.213
					c2.024-5.188,4.509-10.107,7.196-14.681c-1.689,1.618-3.358,3.252-5.023,4.88c-14.297,13.98-29.078,28.44-48.032,28.44
					c-7.311,0-14.788-2.21-22.226-6.57c-13.479-7.907-22.862-20.842-27.126-37.419c-4.46-17.349-2.915-38.108,4.474-60.034
					c7.204-21.37,20.53-40.616,33.607-56.175c-14.967,11.858-29.699,24.768-37.307,32.122c-8.75,8.457-18.272,12.925-27.537,12.925
					c-7.644,0-14.645-2.971-20.247-8.591c-16.353-16.413-6.84-54.817,21.215-85.615c13.007-14.286,40.469-35.006,69.958-52.784
					c19.065-11.496,54.562-31.118,83.095-36.699c23.877-38.035,53.306-66.844,87.507-85.661
					c22.877-12.59,38.181-19.415,53.498-19.415c3.177,0,6.294,0.289,9.527,0.883c11.319,2.069,20.007,9.908,24.47,22.059
					c2.025,5.53,3.112,12.008,3.262,17.929c10.226-3.437,19.43-5.052,31.729-5.826c1.625-0.1,3.253-0.155,4.839-0.155
					c20.883,0,38.576,8.751,48.545,24.012c7.98,12.217,9.474,26.973,3.992,39.461c-8.246,18.795-34.509,24.577-59.901,30.167
					c-4.305,0.948-8.372,1.843-12.333,2.797c-3.112,0.752-6.187,1.533-9.214,2.333c10.517-1.239,19.612-1.836,27.747-1.836
					c12.787,0,23.088,1.509,31.487,4.613c17.931,6.629,24.882,18.276,27.56,26.876c3.602,11.581,1.601,24.031-1.97,33.624
					c16.297,1.118,29.806,7.014,38.438,16.873c7.441,8.504,10.72,19.275,9.243,30.332c-3.672,27.414-24.148,39.702-41.581,47.342
					c-4.038,1.771-8.625,3.781-13.679,5.986c-68.884,30.126-230.205,100.669-256.349,124.116c-3.67,3.294-8.141,5.03-12.935,5.03
					C339.458,538.39,339.458,538.39,339.457,538.39z"/>
				<path fill="#F0C7B8" d="M486.581,119.205c2.731,0,5.44,0.257,8.19,0.762c24.206,4.429,23.272,40.085,19.93,44.159
					c14.97-6.388,25.212-8.875,41.341-9.886c1.479-0.1,2.937-0.141,4.366-0.141c36.859,0,55.719,30.291,45.731,53.054
					c-7.96,18.132-41.045,22.425-67.167,28.724c-47.308,11.399-89.99,30.803-82.105,30.803c0.873,0,2.348-0.235,4.502-0.74
					c13.759-3.236,29.331-6.537,45.156-9.28c20.354-3.526,37.999-5.634,52.719-5.634c11.453,0,21.13,1.278,28.908,4.152
					c35.976,13.303,24.213,49.505,16.129,60.989c2.151-0.15,4.232-0.218,6.248-0.218c32.898,0,48.712,19.486,46.105,38.981
					c-2.792,20.837-16.379,32.396-37.191,41.523c-60.344,26.452-243.041,105.389-272.012,131.375
					c-2.424,2.175-5.167,3.129-7.973,3.129c-11.78,0-24.59-16.881-19.003-31.208c10.342-26.512,34.531-46.578,30.141-46.578
					c-0.331,0-0.827,0.111-1.505,0.349c-32.331,11.244-52.079,54.737-81.418,54.737c-5.732,0-11.837-1.664-18.467-5.554
					c-22.566-13.226-34.143-44.831-19.366-88.664c17.456-51.802,74.277-92.224,66.293-92.224c-0.557,0-1.432,0.196-2.656,0.604
					c-18.762,6.187-65.023,45.811-79.549,59.849c-7.848,7.584-15.557,10.834-22.371,10.834c-5.797,0-10.948-2.355-14.982-6.403
					c-13.167-13.211-3.458-48.03,21.444-75.365c24.901-27.339,106.525-80.538,152.123-87.751
					c15.966-26.037,43.273-62.093,86.521-85.887C459.511,125.123,473.399,119.203,486.581,119.205L486.581,119.205z
					 M486.581,104.345L486.581,104.345c-16.92-0.005-33.117,7.145-57.085,20.332c-34.509,18.986-64.264,47.752-88.519,85.549
					c-29.063,6.565-63.536,25.624-82.332,36.958c-30.513,18.399-57.955,39.144-71.615,54.143
					c-13.534,14.858-23.589,32.241-28.313,48.945c-5.618,19.876-3.017,36.539,7.328,46.922c6.927,6.949,15.986,10.776,25.512,10.776
					c7.196,0,17.936-2.2,29.592-12.18c-2.028,4.39-3.843,8.896-5.396,13.505c-7.851,23.291-9.452,45.515-4.628,64.261
					c2.366,9.197,6.221,17.487,11.458,24.652c5.199,7.109,11.626,12.94,19.105,17.322c8.59,5.038,17.334,7.592,25.985,7.592
					c10.309,0,20.363-3.527,30.728-10.776c1.993-1.397,3.946-2.889,5.867-4.458c0.18,7.414,2.604,14.936,7.137,21.574
					c7.001,10.245,17.49,16.364,28.054,16.364c6.655,0,12.845-2.396,17.898-6.932c5.923-5.316,27.995-19.893,109.261-57.839
					c52.236-24.39,110.371-49.808,145.105-64.999c5.057-2.212,9.646-4.218,13.687-5.991c13.248-5.806,22.821-12.066,30.129-19.704
					c8.753-9.156,14.084-20.415,15.828-33.461c1.771-13.211-2.149-26.068-11.021-36.209c-8.232-9.408-20.138-15.675-34.37-18.263
					c2.396-10.41,2.195-20.611-0.589-29.551c-3.168-10.194-11.315-23.961-32.076-31.639c-2.115-0.781-4.329-1.47-6.646-2.069
					c1.278-0.454,2.542-0.922,3.789-1.414c15.05-5.937,24.633-13.995,29.299-24.63c6.49-14.795,4.783-32.185-4.579-46.515
					c-5.372-8.227-13.037-15.071-22.166-19.801c-9.702-5.023-20.669-7.575-32.598-7.575c-1.739,0-3.526,0.053-5.299,0.17
					c-9.292,0.585-17.039,1.664-24.715,3.587c-0.57-3.401-1.463-7.082-2.838-10.832c-5.406-14.725-16.097-24.249-30.109-26.818
					C493.77,104.67,490.215,104.345,486.581,104.345L486.581,104.345z"/>
			</g>
		</g>
	</g>
	<g>
		<g>
			<g>
				<path fill="#C04E35" d="M609.157,471.191c0,36.316-29.44,65.753-65.758,65.753c-36.311,0-65.751-29.437-65.751-65.753
					c0-36.316,29.44-65.755,65.751-65.755C579.717,405.436,609.157,434.875,609.157,471.191z"/>
				<path fill="#A72D21" d="M543.399,538.145c-36.915,0-66.949-30.039-66.949-66.954c0-36.92,30.034-66.954,66.949-66.954
					c36.922,0,66.956,30.034,66.956,66.954C610.355,508.106,580.321,538.145,543.399,538.145L543.399,538.145z M543.399,406.631
					c-35.593,0-64.547,28.962-64.547,64.56c0,35.595,28.955,64.555,64.547,64.555c35.6,0,64.562-28.96,64.562-64.555
					C607.961,435.594,578.999,406.631,543.399,406.631L543.399,406.631z"/>
			</g>
			<path fill="#AC321C" d="M601.954,488.955c-2.004,11.356-13.789,28.875-31.608,37.618c-20.774,10.192-44.518,4.676-54.089-0.221
				c-9.573-4.902,22.246-4.882,43.403-14.247C586.814,500.083,603.955,477.602,601.954,488.955z"/>
			<path fill="#D97258" d="M593.775,454.286c0,23.772-19.272,43.041-43.044,43.041c-23.767,0-43.039-19.27-43.039-43.041
				c0-23.767,19.272-43.039,43.039-43.039C574.503,411.247,593.775,430.519,593.775,454.286z"/>
			<path fill="#D97258" d="M541.687,517.716c0,4.594-3.73,8.324-8.329,8.324c-4.596,0-8.321-3.73-8.321-8.324
				c0-4.599,3.725-8.324,8.321-8.324C537.956,509.391,541.687,513.117,541.687,517.716z"/>
		</g>
		<g>
			<path fill="#F7B8A4" d="M569.375,517.597c-8.681,0-14.967-6.684-15.649-16.636c-0.725-10.541,1.47-20.965,3.076-28.576
				c0.458-2.159,0.849-4.021,1.096-5.549c1.058-6.386,2.159-15.215-0.359-18.176c-0.587-0.684-1.351-1.019-2.365-1.019h-0.065
				c-5.673,0.077-11.353,22.525-14.031,44.649c-0.281,2.323-2.619,3.762-4.618,3.762c-1.055,0-1.965-0.376-2.571-1.065
				c-0.453-0.519-0.958-1.467-0.761-3.044c2.68-21.455,3.541-45.537-0.909-47.727c-0.461-0.226-0.914-0.34-1.356-0.34
				c-4.225,0-8.111,10.209-9.629,19.811c-1.203,7.63-1.61,13.384-2.006,18.945c-0.243,3.35-0.461,6.507-0.844,10.003
				c-0.281,2.51-2.365,3.822-4.278,3.822c-1.065,0-2.04-0.393-2.741-1.103c-0.534-0.538-1.159-1.521-1.142-3.151
				c0.027-1.933,0.09-4.133,0.158-6.456c0.291-10.17,0.696-24.096-2.04-30.968c-0.992-2.501-2.513-3.995-4.062-3.995
				c-0.842,0-1.662,0.424-2.382,1.232c-1.792,2.008-2.549,5.886-2.04,10.381c0.09,0.786-0.162,1.256-0.388,1.509
				c-0.281,0.318-0.691,0.492-1.145,0.492c-1.673,0-3.946-2.321-4.664-5.777c-1.618-7.747,0.98-17.007,8.991-18.911
				c0.82-0.194,1.632-0.296,2.411-0.296c5.87,0,9.185,5.326,10.973,10.036c1.955-7.32,7.604-15.693,14.666-15.797h0.143
				c7.979,0,10.907,9.025,11.916,13.999c1.926-3.922,6.105-10.32,12.804-10.32c1.812,0,3.691,0.483,5.593,1.431
				c6,2.996,8.375,13.284,7.208,21.499c-0.565,3.953-1.159,7.703-1.727,11.329c-1.191,7.531-2.309,14.647-2.971,22.256
				c-0.648,7.463,0.575,11.843,3.643,13.025c0.9,0.344,1.741,0.519,2.508,0.519c1.373,0,2.537-0.551,3.548-1.686
				c3.073-3.447,3.759-11.227,3.757-15.709c-3.148,4.14-7.936,7.543-9.398,7.543c-0.374,0-0.703-0.165-0.893-0.458
				c-0.121-0.172-0.279-0.546-0.066-1.055c0.529-1.239,1.45-3.085,2.61-5.43c1.921-3.866,4.55-9.163,6.864-14.696l0.432-1.036
				l0.917,0.647c4.075,2.872,13.604,10.323,16.735,12.772c0.531,0.412,0.89,0.696,1.048,0.82c0.49,0.378,0.541,0.88,0.427,1.222
				c-0.291,0.846-1.39,0.846-1.86,0.846c-1.719,0-5.518-0.699-9.91-3.141c2.646,9.923,1.4,24.376-8.12,28.244
				C573.756,517.151,571.556,517.597,569.375,517.597L569.375,517.597z"/>
			<path fill="#7E282D" d="M530.843,434.55c10.08,0,11.508,16.357,11.508,16.357s4.288-12.675,13.211-12.675
				c1.586,0,3.311,0.4,5.188,1.336c5.7,2.847,7.817,12.852,6.723,20.57c-1.729,12.139-3.725,22.319-4.705,33.626
				c-0.652,7.536,0.543,12.532,4.223,13.946c1.031,0.393,1.974,0.58,2.826,0.58c8.36,0,8.504-17.485,8.084-21.108
				c-2.828,5.173-9.095,9.457-10.177,9.457c-0.153,0-0.201-0.082-0.131-0.262c1.402-3.301,5.794-11.322,9.476-20.131
				c4.712,3.325,16.629,12.702,17.754,13.573c0.342,0.26-0.019,0.451-0.885,0.451c-1.967,0-6.529-0.97-11.467-4.235
				c3.226,9.049,3.112,25.341-6.903,29.406c-2.074,0.849-4.169,1.256-6.192,1.256c-7.543,0-14.065-5.704-14.756-15.794
				c-0.922-13.461,3.049-27.085,4.169-33.922c1.996-12.151,1.838-20.24-3.614-20.24c-0.027,0-0.053,0-0.078,0
				c-7.718,0.109-13.039,29.966-14.911,45.445c-0.218,1.809-2.096,2.969-3.725,2.969c-1.453,0-2.712-0.917-2.44-3.1
				c0.597-4.764,5.469-45.266-1.404-48.647c-0.604-0.294-1.186-0.429-1.753-0.429c-5.263,0-9.137,11.824-10.517,20.57
				c-1.923,12.18-1.821,19.609-2.857,28.986c-0.218,1.95-1.834,3.02-3.383,3.02c-1.538,0-3.015-1.05-2.983-3.34
				c0.129-10.667,1.472-29.17-1.94-37.768c-1.24-3.1-3.097-4.562-4.907-4.562c-3.199,0-6.228,4.552-5.312,12.612
				c0.075,0.682-0.191,1.002-0.64,1.002c-1.06,0-3.109-1.831-3.786-5.062c-1.548-7.417,0.919-16.093,8.317-17.853
				c0.776-0.182,1.514-0.267,2.207-0.267c6.369,0,9.702,7.158,11.205,12.809c0.669-7.153,6.694-18.462,14.443-18.574
				C530.755,434.55,530.801,434.55,530.843,434.55L530.843,434.55z M530.843,432.753l-0.155,0.002
				c-6.723,0.095-12.227,7.148-14.771,14.104c-2.598-5.421-6.34-8.344-10.856-8.344c-0.851,0-1.729,0.107-2.622,0.32
				c-8.562,2.033-11.368,11.805-9.66,19.971c0.837,4.007,3.531,6.488,5.544,6.488c0.713,0,1.361-0.279,1.814-0.786
				c0.347-0.393,0.742-1.094,0.611-2.212c-0.485-4.249,0.196-7.868,1.817-9.685c0.378-0.427,0.985-0.931,1.71-0.931
				c1.152,0.002,2.394,1.315,3.231,3.427c2.663,6.699,2.265,20.521,1.972,30.611c-0.068,2.328-0.128,4.531-0.155,6.476
				c-0.024,1.936,0.747,3.126,1.402,3.789c0.875,0.885,2.074,1.368,3.381,1.368c2.316,0,4.834-1.584,5.166-4.621
				c0.385-3.507,0.613-6.677,0.851-10.036c0.393-5.542,0.803-11.276,2.001-18.872c1.632-10.325,5.634-19.047,8.739-19.047
				c0.308,0,0.621,0.08,0.955,0.247c0.34,0.165,3.279,2.198,2.503,22.12c-0.432,11.072-1.817,22.505-2.086,24.688
				c-0.238,1.909,0.4,3.092,0.98,3.752c0.779,0.883,1.933,1.365,3.245,1.365c2.437,0,5.166-1.703,5.51-4.55
				c0.453-3.762,2.178-16.922,5.215-28.232c3.983-14.824,7.308-15.62,7.934-15.629h0.056c0.747,0,1.269,0.216,1.678,0.706
				c1.691,1.981,1.737,7.851,0.167,17.444c-0.255,1.506-0.64,3.362-1.099,5.515c-1.613,7.659-3.825,18.154-3.095,28.821
				c0.364,5.232,2.2,9.668,5.321,12.823c2.971,2.998,6.956,4.647,11.227,4.647c2.299,0,4.613-0.468,6.871-1.385
				c5.11-2.079,8.407-7,9.515-14.228c0.638-4.14,0.466-8.882-0.415-13.16c3.808,1.802,7.024,2.345,8.591,2.345
				c1.472,0,2.382-0.487,2.709-1.453c0.279-0.796-0.01-1.671-0.723-2.222c-0.158-0.124-0.522-0.405-1.048-0.82
				c-3.136-2.45-12.678-9.91-16.769-12.799l-1.836-1.29l-0.859,2.069c-2.302,5.506-4.929,10.788-6.845,14.647
				c-1.169,2.35-2.091,4.206-2.624,5.477c-0.284,0.655-0.228,1.348,0.133,1.899c0.359,0.541,0.97,0.864,1.647,0.864
				c1.53,0,5.346-2.6,8.45-5.945c-0.243,4.438-1.184,10.034-3.485,12.612c-0.839,0.948-1.749,1.385-2.872,1.385
				c-0.655,0-1.392-0.155-2.183-0.461c-3.299-1.266-3.492-7.286-3.071-12.108c0.657-7.577,1.773-14.674,2.961-22.19
				c0.568-3.631,1.159-7.385,1.722-11.341c1.203-8.409-1.082-19.132-7.689-22.433c-2.028-1.011-4.043-1.523-5.995-1.523
				c-6.047,0-10.128,4.783-12.477,8.736C541.631,439.882,538.294,432.753,530.843,432.753L530.843,432.753z"/>
		</g>
	</g>
	<g>
		<path fill="#722600" d="M383.514,389.35c-1.565,10.669-7.054,21.589-16.18,43.148c-9.123,21.555-14.167,51.695-14.167,67.526
			c0,40.982,22.697,65.564,22.697,65.564h100.872c0,0,19.331-32.823,19.544-54.846c0.211-22.02-4.414-44.133-14.501-59.263
			c-10.087-15.135-16.391-17.65-20.803-30.895c-4.414-13.238-5.047-23.328-5.047-23.328s-25.215-6.932-34.674-9.454
			C411.798,385.283,384.862,380.18,383.514,389.35z"/>
		<path fill="#5B1C00" d="M383.206,414.148c6.042,1.693,11.828,1.977,18.078,1.259c7.32-0.841,14.48-1.079,21.848-1.201
			c6.318-0.104,12.627,0.541,18.724,2.261c6.997,1.981,13.789,4.557,20.403,7.57c-0.444-1.067-0.873-2.214-1.283-3.451
			c-4.414-13.238-5.047-23.328-5.047-23.328s-25.215-6.932-34.674-9.454c-9.457-2.52-36.393-7.623-37.741,1.547
			c-0.992,6.765-3.561,13.631-7.631,23.236C378.378,412.804,380.89,413.505,383.206,414.148z"/>
		<path d="M561.243,170.76c-1.045-4.662-8.826-4.967-12.249-6.735c-11.247-5.816,8.53-14.936,11.703-18.181
			c4.601-4.708,4.142-10.517,1.157-15.503c-4.25-7.104-16.976-9.801-23.272-14.696c-6.224-4.844-3.944-14.349-7.143-20.415
			c-3.881-7.349-12.925-10.897-19.129-9.534c-2.406,0.524-6.798,1.982-11.698,3.408c-4.897,1.431-11.218-1.547-9.592-4.446
			c1.632-2.898,1.021-5.761-1.836-9.639c-2.86-3.878-9.595-7.208-25.518-8.436c-11.256-0.866-13.968-9.927-12.702-17.482
			c1.266-7.558-10.078-12.214-19.549-4.497c-5.515,4.492-6.825,9.886-6.983,11.193c-1.225,10.151-20.221,16.01-18.581,7.06
			c0.141-0.781,2.697-10.905-3.597-13.83c-8.373-3.886-16.841-0.565-24.686,4.155c-2.813,1.695-6.293,5.61-8.622,7.958
			c-4.395,4.429-10.577,17.766-12.687,12.69c-2.465-5.94-3.516-12.079-11.288-8.103c-7.851,4.019-8.11,13.354-6.9,20.825
			c0.221,1.375,0.461,6.435-3.417,6.022c-3.879-0.405-6.393-2.193-8.519-6.854c-1.633-3.58-3.541-5.154-7.37-6.279
			c-15.754-4.625-29.203,22.459-22.55,37.206c-8.104-2.226-11.439,11.014-12.239,15.389c-2.397,13.209-0.358,24.839,10.069,30.279
			c-8.825,6.854-6.333,21.269-3.368,30.827c1.842,5.942,5.189,11.2,9.156,15.942c4.209,5.025,7.108,9.071,6.236,16.013
			c-0.229,1.802-0.2,6.495,2.456,9.151c2.656,2.651,7.013,3.49,12.154,0.961c5.443-2.678,10.268-4.817,14.901,0.395
			c1.938,2.178,3.796,4.031,6.25,5.598c9.417,6.005,17.567-2.217,21.688-11.055c6.45-0.189,12.594-3.044,15.972-6.374
			c4.252,16.515,9.713,48.29,26.944,58.753c0,0-2.997,20.757-4.214,21.329c-21.227,10.002-48.905,8.518-57.772,19.299
			c-6.353,7.72-5.568,18.079-2.784,26.343c2.784,8.263,14.633,30.036,18.663,46.427c4.265,17.337-3.677,36.061-3.422,53.704
			c-21.329,0.711-33.388-11.007-46.562-25.765c-3.749-4.196-9.637-6.272-14.384-9.013c-11.767-6.784-28.195-31.533-32.195-52.224
			c-26.431-9.738-32.687-50.075-30.509-67.043c-16.505-7.465-23.131-28.472-20.929-44.853c2.23-16.6,8.536-27.279,11.62-31.206
			c6.857,2.889,6.362,12.838,7.281,19.542c0.953,7.017,1.996,14.446,5.186,20.866c5.221,10.507,12.912,16.066,24.143,19.018
			c18.334,4.812,39.928-3.449,40.42-24.827c-14.955,12.345-33.91,3.131-41.135-9.449c-5.301-9.234-4.286-21.678-4.59-31.996
			c-0.456-15.642-0.691-35.36-17.395-42.011c-12.257-4.887-27.901,5.14-33.033,15.474c-4.076,8.195-1.669,16.124,2.923,21.698
			c-6.121-1.438-12.244-0.662-17.828,4.666c-12.258,11.691-12.145,36.309-13.1,51.766c-0.658,10.64-1.331,28.193,9.476,34.72
			c7.324,4.417,16.413,4.574,25.303,3.658c-16.408,10.08-26.489,26.143-16.165,46.725c5.765,11.499,14.635,23.83,26.413,29.595
			c9.323,4.567,19.123-1.509,28.159-6.168c-7.008,8.899-12.948,18.523-14.716,29.983c-2.205,14.303,6.779,25.338,15.116,35.717
			c5.395,6.713,16.184,21.324,26.976,17.361c10.603-3.898,14.743-14.3,20.358-23.32c-0.052,12.583-1.339,25.617,5.03,36.866
			c8.444,14.921,33.934,14.914,48.61,17.371c-0.187,2.336-0.568,4.698-0.366,7.077c0.587,6.99,3.719,14.108,3.649,11.074
			c-1.02-43.071,16.982-67.322,26.826-99.006c0,0,6.356,2.471,14.998,2.343c9.656,5.314,15.661,15.571,19.741,25.477
			c4.307,10.451,6.91,24.666,7.206,35.991c0.075,2.847,0.677-1.016,1.351-5.414c1.948-12.651,4.077-24.943,9.646-37.56
			c1.829-4.14,6.934-14.55,12.859-17.427c3.847,0.815,6.9,1.446,9.646,1.902c3.025,14.288,12.175,24.686,20.485,38.411
			c11.97,19.762,19.117,43.235,16.461,70.388c-0.294,3.032,3.473-3.674,4.084-11.23c1.37-16.871-3.097-34.046-9.964-49.331
			c-2.151-4.788-4.71-9.573-7.625-14.063c0.07-0.148,0.187-0.257,0.218-0.437c2.673-15.782,2.057-29.255,2.105-41.872
			c6.214-5.057,10.323-12.501,10.73-22.192c0.26-6.197-1.923-13.565-4.242-19.692c1.058-4.075,3.08-10.405,4.082-13.468
			c1.004-3.075,4.084-8.763,4.084-12.867c0-7.96-2.04-16.328-16.743-19.595c-13.323-2.959-38.787-11.838-41.642-16.33
			c-2.894-4.548-1.838-12.047-0.815-19.396c17.856-11.935,30.077-37.509,36.405-55.787c6.352,4.754,14.599,9.505,13.403,13.944
			c-1.586,5.865-2.268,14.693,6.19,14.497c3.74-0.095,9.178-6.136,10.776,1.506c0.524,2.498,3.485,6.631,6.1,7.266
			c8.368,2.042,20.211-5.717,23.243-13.815c6.767-1.031,10.849-3.33,14.113-9.049c1.048-1.824,1.841-5.508,1.4-8.018
			c-1.009-5.743,2.367-4.798,6.156-7.694c3.781-2.903,5.103-7.354-0.141-14.565c-2.973-4.082-7.005-8.508-4.965-13.201
			C552.87,189.947,563.489,180.762,561.243,170.76z"/>
		<path fill="#813828" d="M208.663,191.997c1.899-8.132,9.425-14.521,17.111-16.869c23.167-7.077,24.511,28.773,24.907,42.612
			c0.387,13.485,1.13,30.104,12.877,39.107c8.432,6.457,22.73,11.147,32.04,5.416c-6.659,18.268-37.128,15.988-49.893,3.742
			c-10.707-10.274-9.35-29.02-11.587-42.406c-0.996-5.954-3.662-8.237-10.74-10.766C216.294,210.306,206.09,203.013,208.663,191.997
			z"/>
		<path fill="#813828" d="M194.755,297.953c-13.829-2.197-13.722-19.588-13.374-30.228c0.381-11.698,1.389-23.381,4.308-34.739
			c2.023-7.873,6.117-19.566,16.014-20.808c5.713-0.72,11.867,2.94,16.88,6.1c-7.504,13.32-11.92,33.519-10.4,44.131
			c1.785,12.51,5.941,24.778,15.481,33.488c0.327,0.301,0.628,0.572,0.914,0.83C214.724,298.072,204.666,299.53,194.755,297.953z"/>
		<path fill="#813828" d="M233.241,375.722c-12.903,4.46-23.987-12.433-29.729-21.244c-6.744-10.356-10.897-21.353-4.925-33.08
			c5.3-10.41,22.402-19.202,29.408-21.259c-1.441,13.182,2.56,52.823,27.835,65.515C247.968,368.264,241.093,373.01,233.241,375.722
			z"/>
		<path fill="#813828" d="M286.967,441.439c-4.225,6.876-10.477,12.396-18.9,8.135c-5.004-2.535-8.978-7.89-12.482-12.115
			c-9.13-10.994-17.616-21.356-15.275-36.531c1.91-12.367,19.584-32.772,19.671-32.94c1.521,13.071,17.521,48.542,38.21,54.104
			C296.104,427.83,290.651,435.448,286.967,441.439z"/>
		<path fill="#813828" d="M351.837,482.113c-15.359-2.462-39.294-1.741-46.321-17.412c-4.369-9.745-3.675-34.436-2.806-40
			c4.894,3.478,7.353,6.42,11.763,11.635c10.403,12.302,26.861,18.603,42.678,18.001c0.412-0.014,0.756-0.124,1.06-0.284
			C355.313,463.146,353.006,472.421,351.837,482.113z"/>
		<path fill="#682D21" d="M249.42,264.96c-4.898-6.459-6.727-14.273-6.695-22.282c0.034-7.926,1.67-17.133-1.98-24.535
			c-2.251-4.57-5.979-7.696-10.52-9.879c-6.979-3.354-14.742-5.018-21.503-8.685c1.889,7.128,9.197,11.906,14.654,13.856
			c7.077,2.527,9.744,4.812,10.74,10.769c2.238,13.381,0.88,32.129,11.587,42.401c3.647,3.495,8.733,6.178,14.297,7.8
			C255.978,271.747,252.167,268.587,249.42,264.96z"/>
		<path fill="#682D21" d="M213.146,280.869c-4.909,1.78-10.06,2.937-14.85,3.595c-5.278,0.72-11.254,0.701-16.176-1.235
			c1.334,7.15,4.671,13.461,12.635,14.725c9.91,1.577,19.968,0.119,29.823-1.227c-0.286-0.257-0.587-0.529-0.914-0.83
			C218.975,291.618,215.592,286.474,213.146,280.869z"/>
		<path fill="#682D21" d="M199.967,218.034c4.192,1.63,8.058,4.409,11.125,7.698c0.944,1.016,1.817,2.079,2.63,3.182
			c1.413-3.791,3.043-7.415,4.859-10.636c-5.013-3.16-11.167-6.82-16.88-6.1c-3.534,0.441-6.323,2.219-8.548,4.681
			C195.499,216.937,197.811,217.199,199.967,218.034z"/>
		<path fill="#682D21" d="M240.422,351.63c-6.28,3.953-12.917,7.922-19.947,10.211c-3.501,1.14-7.286,1.914-10.966,1.281
			c6.088,7.948,14.439,15.814,23.732,12.6c7.852-2.712,14.727-7.458,22.59-10.068C249.406,362.431,244.356,357.459,240.422,351.63z"
			/>
		<path fill="#682D21" d="M259.383,442.04c2.554,2.983,5.395,5.867,8.684,7.533c8.423,4.261,14.675-1.259,18.9-8.135
			c3.684-5.991,9.137-13.609,11.224-19.348c-4.16-1.118-8.129-3.449-11.829-6.556C279.196,429.969,269.99,442.358,259.383,442.04z"
			/>
		<path fill="#682D21" d="M343.659,453.199c-3.35,8.79-6.014,17.781-7.182,27.039c5.43,0.684,10.778,1.137,15.36,1.875
			c1.169-9.692,3.476-18.967,6.374-28.06c-0.304,0.16-0.647,0.269-1.06,0.284C352.655,454.512,348.107,454.124,343.659,453.199z"/>
		<path fill="#88A95D" d="M393.905,213.797c1.942,0.745,3.924,0.703,5.77,0c1.661-0.631,2.763-2.282,2.681-3.886
			c1.416,0.444,3.155,1.074,4.533,1.603c-4.927,6.973-21.761,6.371-17.776-4.247c0.889-0.063,1.803-0.012,2.724,0.09
			C390.262,209.399,391.522,212.882,393.905,213.797z"/>
		<path fill="#FFFFFF" d="M408.808,212.288c2.04,0.859,4.06,1.783,6.042,2.85c-8.113,8.137-22.226,11.346-31.589,3.764
			c1.334-2.137,2.372-4.48,3.223-6.944C388.483,220.33,403.741,219.998,408.808,212.288z"/>
		<path fill="#9F7744" d="M405.09,307.141c1.339,4.218,6.36,8.115,9.748,7.868c0.405,0.555,0.8,1.137,1.179,1.742
			c-6.229,0.308-10.493-3.417-12.826-8.635C403.913,307.786,404.554,307.461,405.09,307.141z"/>
		<path fill="#C78D00" d="M418.852,328.747c2.195-5.814,0.33-10.915-2.981-14.373c3.798-1.407,9.027-2.176,12.21-0.973
			C426.974,319.423,423.625,328.47,418.852,328.747z"/>
		<path fill="#FF9D6D" d="M361.725,443.721c0.794-14.887,5.007-29.425,3.853-44.458c-0.391-5.079-1.629-10.009-3.318-14.846
			c4.1,11.596,11.496,18.744,15.052,20.286C375.456,411.659,367.078,428.926,361.725,443.721z"/>
		<path fill="#B83800" d="M433.072,424.209c-5.239,10.846-7.482,22.937-8.967,34.865c-0.96-9.132-2.615-18.123-6.093-26.561
			c-3.806-9.238-8.765-18.54-17.252-24.193c6.767-0.674,19.847-4.48,25.411-3.439c4.504,0.849,11.288,2.365,17.761,3.757
			C438.9,412.29,435.09,420.034,433.072,424.209z"/>
		<path fill="#952B00" d="M407.935,414.798c5.047-0.364,10.073-0.507,15.198-0.592c4.943-0.08,9.876,0.303,14.713,1.298
			c1.734-2.656,3.779-5.193,6.088-6.866c-6.474-1.392-13.257-2.908-17.761-3.757c-5.564-1.041-18.644,2.765-25.411,3.439
			C403.49,410.141,405.857,412.346,407.935,414.798z"/>
		<path fill="#FF9D6D" d="M476.8,440.372c-8.232-10.767-14.157-23.221-14.565-29.554c6.129,0,9.799-1.179,16.105-4.735
			C478.476,417.524,479.147,429.139,476.8,440.372z"/>
		<path fill="#722600" d="M481.253,398.671c-11.363,11.407-37.868,6.26-51.606,3.078c-15.612-3.626-24.516,5.394-46.598,0.175
			c-8.597-2.03-13.038-9.738-15.648-15.474c-5.353-11.78-2.262-28.867,0.172-36.343c14.556,16.973,31.984,30.902,54.654,33.915
			c24.55,3.257,52.108-16.003,59.588-29.047c3.592,6.389,5.108,12.639,6.442,19.799
			C489.907,383.612,487.607,392.295,481.253,398.671z"/>
		<path fill="#FF9D6D" d="M482.036,319.574c9.19,2.654,10.788,9.095,11.024,13.883c0.303,6.047-2.726,10.912-3.772,13.519
			c-1.043,2.61-2.149,7.606-2.556,9.338c-5.013-9.721-10.483-15.593-16.743-20.289c-2.404-1.807-8.668-3.914-6.304-1.991
			c6.556,5.324,10.878,9.583,15.171,16.944c-7.645,13.561-31.443,29.624-51.332,28.664c-1.625-5.767-2.462-10.771-4.865-15.556
			c4.669-8.584,13.284-14.485,19.777-15.729c2.983-0.572-0.669-1.106-3.645-0.587c-12.273,2.163-17.936,12.959-17.963,13.005
			c-7.378-11.807-17.073-11.606-14.526-9.966c7.655,4.914,14.701,15.103,17.354,28.782c-19.801-0.82-44.702-21.853-57.645-37.482
			c-0.884-1.065-8.323,27.497-5.239,38.331c-3.767-9.401-9.716-20.934-12.76-27.633c-3.044-6.702-5.176-15.016-2.696-22.872
			c3.129-9.91,25.214-12.816,34.772-15.079c6.259-1.477,16.101-3.861,21.969-6.255c2.15,5.557,7.507,10.039,14.662,9.335
			c2.377,4.203,1.8,9.823-0.061,13.17c6.306,0.381,10.308-7.296,11.899-13.442c6.403,1.448,12.838-4.14,15.641-10.233
			C455.102,311.973,473.203,317.022,482.036,319.574z"/>
		<path fill="#9F7744" d="M443.062,306.954c-2.53,5.411-8.494,10.57-14.23,9.561c0.274-0.931,0.439-1.698,0.66-2.743
			c4.618-0.26,9.704-3.296,11.344-7.832C441.527,306.268,442.276,306.61,443.062,306.954z"/>
		<path fill="#FF9D6D" d="M439.732,305.382c-1.373,4.077-6.018,7.073-10.199,7.145c-5.197-1.824-12.765-0.56-15.379,1.465
			c-2.21-0.439-3.971-1.509-5.062-2.745c-1.184-1.329-2.59-2.927-3.008-4.812c0.463-0.388,0.762-0.776,0.83-1.15
			c0.616-3.267,2.797-15.157,3.9-20.674c3.706,1.31,7.873,1.737,12.595,0.982c3.597-0.577,6.992-1.698,10.209-3.24
			c-0.98,7.827-0.98,14.766,1.882,19.871C436.028,303.173,437.539,304.242,439.732,305.382z"/>
		<path fill="#FF9D6D" d="M426.635,280.12c-29.851,10.359-37.325-37.056-42.226-55.984c18.637,10.846,36.231-8.479,34.266-9.5
			c-6.246-3.228-13.894-6.631-20.662-8.411c-2.987-0.783-6.453-1.567-9.67-1.232c0.589-3.029,1.042-5.528,1.277-8.693
			c9.728-0.747,21.607,2.559,27.92,9.728c1.007,1.142,0.432-0.778-0.512-1.962c-5.904-7.393-16.967-11.397-27.355-10.742
			c0.104-1.974,0.181-3.951,0.209-5.908c10.251,0.191,18.871,0.444,27.438-6.398c6.59-5.27,6.151-14.23,9.556-21.351
			c2.697-5.646,12.731-3.628,12.702,2.93c-0.024,6.558,6.67,11.3,10.89,13.614c10.517,5.756,13.393,15.038,14.659,25.615
			c-12.27-5.738-26.083-0.778-31.693,3.107c-1.247,0.859-2.316,2.813-1.043,1.974c5.084-3.376,24.783-7.371,33.1-1.55
			c0.112,1.191,0.213,2.389,0.301,3.602c0.007,0.07,0.017,0.138,0.024,0.209c-9.622-4.196-25.615,2.18-34.885,4.63
			c-0.849,0.223,1.479,2.382,2.166,2.884c5.683,4.143,10.958,7.892,18.031,9.98c3.774,1.108,7.201,1.858,10.825,1.082
			c2.867-0.616,4.354-2.6,7.213-3.126C461.847,245.717,449.138,272.309,426.635,280.12z"/>
		<path fill="#DE8856" d="M365.754,405.923c0.497,0.407,0.987,0.812,1.461,1.227c2.361,2.071,4.631,4.291,6.766,6.636
			c1.549-3.764,2.755-6.92,3.33-9.083c-3.556-1.543-10.952-8.69-15.052-20.286c1.689,4.836,2.927,9.767,3.318,14.846
			C365.748,401.492,365.791,403.714,365.754,405.923z"/>
		<path fill="#DE8856" d="M478.483,414.359c-0.051-2.765-0.112-5.528-0.143-8.276c-6.306,3.556-9.976,4.735-16.105,4.735
			c0.129,1.96,0.784,4.509,1.87,7.402C468.447,415.953,473.358,414.742,478.483,414.359z"/>
		<path fill="#DE8856" d="M422.468,332.12c6.049-1.021,10.422-5.552,12.53-12.2c5.882-3.024,9.355-6.553,11.106-11.717
			c-0.657-0.26-1.293-0.514-1.904-0.771c-2.804,6.093-9.238,11.681-15.641,10.233c-0.98,3.791-2.882,8.162-5.671,10.866
			C422.817,329.734,422.674,330.93,422.468,332.12z"/>
		<path fill="#DE8856" d="M412.55,352.149c2.6,1.625,5.591,4.324,8.278,8.625c0.022-0.041,4.264-8.108,13.335-11.691
			C427.069,345.645,415.781,348.936,412.55,352.149z"/>
		<path fill="#DE8856" d="M362.307,354.774c-3.494,2.197-6.834,4.564-9.955,7.148c2.828,5.865,6.055,12.61,8.421,18.518
			C359.104,374.577,360.517,363.515,362.307,354.774z"/>
		<path fill="#DE8856" d="M470.654,336.532c5.984,4.616,11.244,10.408,16.078,19.782c0.408-1.732,1.514-6.728,2.556-9.338
			c0.267-0.662,0.662-1.47,1.094-2.406C484.44,340.308,477.716,337.367,470.654,336.532z"/>
		<path fill="#DE8856" d="M418.24,323.168c-0.138-1.814-0.611-3.626-1.521-5.232c-7.155,0.703-12.512-3.779-14.662-9.335
			c-1.333,0.548-2.879,1.087-4.533,1.62C401.236,317.779,409.781,323.653,418.24,323.168z"/>
		<path fill="#DE8856" d="M413.399,298.065c4.747,1.548,10.381,1.761,15.203,0.366c1.727-0.5,3.359-1.174,4.909-1.977
			c-0.754-4.128-0.541-8.921,0.107-14.101c-3.216,1.543-6.612,2.663-10.209,3.24c-4.722,0.754-8.889,0.327-12.595-0.982
			c-0.533,2.658-1.312,6.808-2.054,10.757C410.161,296.535,411.677,297.51,413.399,298.065z"/>
		<path fill="#DE8856" d="M417.394,189.05c6.289-3.393,9.881-12.472,17.235-13.873c9.947-1.892,14.829,9.185,20.793,14.858
			c2.767,2.639,5.765,4.924,8.952,6.84c-1.625-8.496-5.064-15.826-13.908-20.665c-4.22-2.314-10.914-7.056-10.89-13.614
			c0.029-6.558-10.005-8.576-12.702-2.93c-3.405,7.121-2.966,16.08-9.556,21.351c-8.567,6.842-17.187,6.59-27.438,6.398
			c-0.019,1.324-0.064,2.658-0.12,3.99C398.846,192.637,409.439,193.336,417.394,189.05z"/>
		<path fill="#88A95D" d="M455.458,216.918c4.327,0,7.174-3.541,5.685-6.641c1.475,0.245,3.4,0.698,4.693,1.339
			c-1.654,4.346-5.591,7.199-10.284,7.281c-3.468,0.061-10.281-2.576-10.922-6.728c1.261-0.339,2.954-0.764,4.242-1.05
			C448.33,214.553,452,217.153,455.458,216.918z"/>
		<path fill="#688B4C" d="M390.491,214.352c0.57-0.604,1.177-1.179,1.812-1.724c-0.264-0.315-0.489-0.67-0.671-1.043
			c-0.788,0.49-1.532,1.023-2.261,1.589C389.676,213.617,390.056,214.007,390.491,214.352z"/>
		<path fill="#688B4C" d="M394.801,214.078c-0.301-0.077-0.599-0.17-0.896-0.281c-0.25-0.092-0.484-0.218-0.705-0.366
			c-0.588,0.5-1.157,1.026-1.694,1.577c0.719,0.378,1.538,0.647,2.415,0.832C394.206,215.247,394.5,214.66,394.801,214.078z"/>
		<path fill="#688B4C" d="M397.011,216.091c0.075-0.592,0.148-1.186,0.226-1.78c-0.398,0.027-0.799,0.029-1.199-0.01
			c-0.302,0.572-0.591,1.152-0.877,1.732C395.762,216.093,396.381,216.105,397.011,216.091z"/>
		<path fill="#688B4C" d="M391.418,208.085c0.107-0.257,0.244-0.505,0.419-0.728c-0.92-0.102-1.835-0.153-2.724-0.09
			c-0.165,0.436-0.289,0.854-0.383,1.256C389.623,208.356,390.516,208.201,391.418,208.085z"/>
		<path fill="#688B4C" d="M391.151,209.324c-0.877,0.119-1.749,0.274-2.617,0.451c-0.061,0.861,0.04,1.635,0.284,2.312
			c0.774-0.592,1.579-1.147,2.418-1.662C391.161,210.061,391.136,209.685,391.151,209.324z"/>
		<path fill="#688B4C" d="M448.822,211.655c0.005-0.182,0.024-0.359,0.051-0.536c-1.288,0.286-2.981,0.711-4.242,1.05
			c0.034,0.245,0.097,0.48,0.177,0.716C446.113,212.375,447.44,211.929,448.822,211.655z"/>
		<path fill="#688B4C" d="M451.491,215.95c-0.541-0.322-1.038-0.706-1.441-1.157c-0.876,0.424-1.727,0.88-2.576,1.349
			c0.735,0.531,1.567,0.987,2.418,1.373C450.409,216.979,450.94,216.455,451.491,215.95z"/>
		<path fill="#688B4C" d="M453.724,216.794c-0.364-0.073-0.723-0.165-1.07-0.291c-0.538,0.485-1.055,0.989-1.559,1.499
			c0.64,0.238,1.281,0.424,1.897,0.568C453.251,217.988,453.489,217.391,453.724,216.794z"/>
		<path fill="#688B4C" d="M456.479,216.848c-0.332,0.044-0.669,0.07-1.021,0.07c-0.162,0.015-0.332,0.01-0.495,0.007
			c-0.235,0.628-0.485,1.256-0.752,1.875c0.478,0.068,0.936,0.102,1.341,0.097c0.318-0.005,0.628-0.027,0.936-0.056
			C456.492,218.177,456.489,217.512,456.479,216.848z"/>
		<path fill="#688B4C" d="M446.484,215.329c0.946-0.524,1.894-1.038,2.865-1.516c-0.17-0.306-0.303-0.638-0.391-0.98
			c-1.251,0.25-2.462,0.647-3.645,1.103C445.621,214.439,446.026,214.897,446.484,215.329z"/>
		<path fill="#FFFFFF" d="M466.889,221.322c-2.513,1.196-3.738,2.474-6.891,2.828c-2.724,0.308-6.289-0.284-8.802-1.06
			c-5.971-1.838-14.084-7.439-15.062-8.508c2.045-0.543,4.303-1.225,6.658-1.899c1.123,4.95,6.91,7.643,11.494,8.111
			c5.406,0.556,9.971-2.323,12.404-6.638c0.584,2.076,1.494,4.06,2.886,5.535c0.167,0.177,0.364,0.364,0.572,0.558
			C468.997,220.359,468.046,220.762,466.889,221.322z"/>
		<path fill="#975100" d="M552.519,211.281c6.883,9.073-7.085,7.827-7.422,14.244c-0.167,3.182,1.298,8.215-0.594,10.762
			c-5.307,7.145-13.206,7.555-19.394,7.555c-3.039,0,2.229,4,5.404,3.631c-4.385,6.369-17.298,15.593-21.045,4.992
			c-0.473-1.361-1.099-5.971-4.567-6.992c-3.471-1.021-8.984,4.492-11.841,1.836c-2.852-2.651-0.609-8.166-0.408-11.227
			c0.206-3.061-2.957-6.389-6.01-8.516c-10.015-6.954-15.797-12.67-16.617-25.435c-0.444-6.959-2.12-16.345-6.98-21.707
			c-3.784-4.162-11.203-7.213-15.704-11.441c1.756,0.677,3.745,0.951,5.818,0.817c5.173-0.335,9.154-4.208,13.81-5.979
			c3.02-1.147,3.655,1.569,3.927,4.046c0.347,3.206-0.002,6.352,0.982,9.476c1.048,3.337,3.784,4.926,7.17,4.844
			c3.597-0.082,7.019-1.695,10.64-1.521c5.448,0.265,4.315,7.378,3.209,10.808c-1.242,3.852-3.898,8.035-3.342,12.224
			c0.602,4.506,6.037,5.164,9.661,5.377c3.272,0.187,7.342,0.497,9.891,2.821c2.173,1.974,1.652,5.486,1.167,8.031
			c-1.072,5.61-4.691,13.434,1.644,17.388c4.938,3.085,13.536-1.264,13.728-7.051c0.119-3.509-3.922-6.759-5.705-4.201
			c-0.677,0.978-0.609,1.877,0.029,0.888c1.819-2.838,4.616,1.319,4.199,4.341c-0.556,4.055-7.102,5.676-10.493,4.795
			c-7.109-1.834-1.935-13.161-1.319-17.541c0.512-3.701-0.247-7.145-3.602-9.173c-1.846-1.116-4.162-1.55-6.27-1.821
			c-3.223-0.408-7.356,0.068-10.039-2.103c-3.235-2.612,0.786-9.517,1.834-12.387c1.395-3.789,2.418-8.217,0.002-11.817
			c-4.3-6.422-13.417,1.703-18.814-1.717c-4.698-2.971,0.349-19.35-7.757-17.795c-3.505,0.669-6.607,3.177-9.76,4.725
			c-5.001,2.462-11.858,1.994-13.636-1.562c-0.555-1.116-0.747-3-0.694-3.873c0.112-1.831-0.408-3.359-1.322-4.598
			c4.8,1.254,9.648,2.074,14.358-0.308c6.257-3.158,10.192-8.576,14.703-13.735c4.749-5.44,10.944-9.646,18.472-9.03
			c8.671,0.711,7.245,10.337,4.499,15.937c-2.331,4.768-5.705,10.587-1.407,15.258c3.515,3.825,10.699,1.943,15.091,1.31
			c5.043-0.725,12.185-1.382,15.307,3.648c3.269,5.266,0.864,14.332-2.704,18.782c-2.137,2.668-5.358,4.37-8.761,3.345
			c-3.483-1.05-6.153-5.375-6-8.894c0.247-5.418,8.535-8.098,9.58-1.635c0.194,1.169,0.558,0.053,0.274-1.084
			c-1.773-7.23-12.178-3.556-11.232,4.562c0.589,5.057,5.256,9.648,10.403,9.19c5.389-0.48,9.061-6.056,10.521-10.735
			c1.429-4.56,1.856-10.657-0.759-14.875c-2.27-3.658-6.888-4.523-10.858-4.594c-5.763-0.109-13.335,3.221-18.686,0.357
			c-4.184-2.236-2.113-7.587-0.635-10.771c1.378-2.969,2.915-5.685,3.64-8.906c1.048-4.676-0.15-10.141-5.074-11.974
			c-5.544-2.067-12.02-0.124-16.726,3.049c-5.801,3.905-9.447,10.209-14.424,14.994c-3.536,3.391-7.895,5.537-12.847,5.494
			c-3.541-0.027-7.972-1.327-10.408-2.241c-2.432-0.907-6.432-1.681-8.998-1.174c-7.199,1.421-8.217,6.75-9.886,12.416
			c-0.201,0.682-0.383,1.344-0.555,1.984c-1.511,1.831-3.325,3.437-5.207,4.858c-3.774,2.85-7.579,5.057-12.454,5.023
			c-7.662-0.053-11.18-8.433-18.268-9.818c-4.214-0.82-6.852,3.16-8.209,6.529c-2.02,5.016-2.845,10.395-5.092,15.324
			c-2.56,5.613-6.026,11.12-10.814,15.084c-2.39,1.979-5.311,3.163-8.431,2.979c-3.682-0.218-5.689-2.588-7.227-5.613
			c-1.626-3.204-3.163-10.189-7.384-10.992c-4.074-0.786-5.461,5.38-6.305,8.079c-0.682,2.173-1.353,4.463-2.769,6.289
			c-1.591,2.061-4.849,2.384-7.253,2.268c-3.096-0.155-5.525-2.152-6.386-5.077c-1.198-4.062,2.543-11.164,7.157-7.177
			c0.889,0.764,0.313-0.437-0.686-1.072c-3.668-2.333-7.8-0.153-8.119,5.341c-0.314,5.477,2.645,9.205,8.034,9.818
			c5.293,0.597,8.891-2.183,10.753-6.837c0.972-2.435,1.499-5.023,2.56-7.427c0.444-1.004,1.059-2.045,2.163-2.389
			c1.467-0.451,2.598,1.744,3.161,2.707c2.405,4.113,3.367,10.131,7.846,12.593c4.51,2.476,9.726,1.249,13.624-1.766
			c4.731-3.658,8.098-8.831,10.792-14.099c2.367-4.625,3.492-9.537,5.032-14.463c1.181-3.784,3.203-9.476,8.194-8.062
			c2.861,0.815,5.232,3.315,7.459,5.152c1.889,1.562,3.878,2.857,6.153,3.764c5.331,2.125,11.534-0.223,15.801-3.49
			c1.693-1.295,3.369-2.6,4.902-4.016c-0.803,2.617-1.868,4.989-4.23,7.383c-6.845,6.939-17.687,5.098-26.433,4.977
			c-1.291-0.022-2.355,1.087-2.357,2.357c-0.067,16.709-0.734,36.585-20.119,41.184c2.85-7.878-0.458-16.389-0.825-13.391
			c-2.449,20.005-13.973,31.467-24.035,20.941c-2.408-2.515-4.349-4.984-7.451-6.67c-2.173-1.176-3.773-0.686-6.046-0.211
			c-1.876,0.395-4.155,2.047-5.781,2.969c-13.962,7.902-9.692-5.705-9.584-8.76c0.294-8.598-8.005-14.657-12.458-21.191
			c-5.713-8.384-10.73-32.884,1.044-35.879c1.269,0.727,2.565,1.358,3.881,1.841c2.931,1.072,6.341,1.751,9.47,1.23
			c3.522-0.589,6.443-2.864,9.824-3.886c1.774-0.538,4.619,0.138,4.651,2.343c0.029,1.727-1.046,3.563-1.751,5.079
			c-1.301,2.811-3.077,6.165-1.946,9.314c1.402,3.898,7.116,4.841,10.643,4.555c4.788-0.388,8.159-4.084,10.227-8.115
			c4.724-9.207,1.826-20.672,7.669-29.352c4.599-6.832,9.126,6.946,12.189,9.107c5.908,4.162,15.601,2.537,21.809-0.134
			c3.433-1.477,7.119-3.395,10.439-5.11c3.228-1.668,6.549-3.01,9.345-0.669c2.993,2.508,2.338,8.467,0.89,11.458
			c-1.074,2.214-3.26,4.094-5.785,4.339c-1.747,0.165-8.119-2.782-2.89-6.563c0.576-0.417-1.092-0.09-2.002,0.664
			c-3.227,2.67,0.274,6.105,3.356,6.939c5.162,1.392,8.575-3.738,9.713-7.955c1.074-3.971,0.201-9.52-4.23-11.058
			c-4.187-1.45-9.692,1.79-13.375,3.466c-6.433,2.93-12.213,5.455-19.516,5.091c-3.322-0.162-6.64-1.125-8.455-4.048
			c-1.517-2.442-2.659-4.987-4.618-7.14c-7.775-8.525-12.127,9.321-12.645,14.133c-0.826,7.669-1.524,19.19-9.99,22.588
			c-3.223,1.295-10.128,0.718-11.219-3.369c-0.719-2.702,1.468-6.076,2.53-8.419c0.874-1.926,2.022-4.363,1.133-6.483
			c-1.039-2.469-4.365-2.92-6.655-2.428c-2.686,0.575-5.125,2.309-7.656,3.323c-3.075,1.225-11.35-0.633-15.82-4.164
			c-6.625-5.225-11.454-8.812-11.862-20.039c-0.407-11.227,6.446-24.79,12.242-18.991c2.156,2.154,6.651,2.772,4.498,0.618
			c-8.259-8.254-6.944-26.33,5.114-36.228c3.434-2.821,10.941-2.137,12.916,2.154c0.589,1.286,1.126,2.585,2.007,3.706
			c2.604,3.311,4.947,4.358,8.95,5.263c12.806,2.884,8.302-12.695,9.287-19.973c0.686-5.076,7.208-9.93,9.003-3.349
			c0.412,1.513,1.917,6.583,4.573,6.583c2.65,0,6.328-1.429,10.001-6.738c3.674-5.307,8.056-12.716,15.802-17.378
			c8.428-5.076,19.98-7.96,19.99,3.187c-2.649,7.783-10.009,14.036-10.895,22.547c-0.956,9.204,6.366,18.295,15.632,18.901
			c8.205,0.536,15.957-4.334,23.532-6.74c3.388-1.079,7.257-1.858,10.56-0.134c4.574,2.394,5.772,8.508,6.917,13.022
			c1.426,5.627,4.128,8.605,9.137,11.516c3.315,1.926,6.992,3.893,8.535,7.621c1.264,3.046,0.463,6.988-0.88,9.862
			c-5.394,11.523-23.437,13.034-27.776,0.022c-2.932-8.795-0.337-24.441-11.339-28.064c-4.676-1.54-9.505,0.868-13.548,3.005
			c-5.401,2.852-10.748,5.758-16.966,3.645c-11.804-4.012-8.935-19.217-15.506-27.378c-5.576-6.927-23.605-8.045-23.9,3.672
			c-0.061,2.45,1.282,5.016,2.791,6.852c1.874,2.28,7.195,5.05,6.425,8.487c-0.548,2.445-3.629,4.38-5.811,5.093
			c-2.015,0.662-4.256,0.211-6.237-0.322c-3.519-0.948-6.717-2.935-9.998-4.475c-3.654-1.715-10.457-4.79-14.108-1.472
			c-1.773,1.608-2.416,3.772-2.338,6.114c0.042,1.373,0.32,2.726,0.336,4.106c0.032,3.071-2.567,5.256-5.24,6.194
			c-2.59,0.907-5.346,0.839-7.841,2.096c-2.645,1.319-3.775,4.361-4.012,7.111c-0.359,4.172,1.127,7.461-0.939,11.504
			c-1.005,1.969-2.549,3.793-2.881,6.037c-0.748,5.152,7.702,6.658,11.22,6.338c6.133-0.56,11.421-5.426,13.678-10.934
			c1.432-3.486,1.476-7.761,2.103-11.446c0.662-3.91,1.381-9.001,4.457-11.822c4.169-3.82,9.864,3.405,11.574,6.485
			c2.453,4.419,4.853,7.461,10.262,7.691c4.229,0.18,8.015-1.426,10.315-4.996c1.991-3.092,5.201-14.865,10.291-10.529
			c3.981,3.393,5.007,9.593,8.244,13.655c3.139,3.944,7.315,5.952,12.316,6.393c5.683,0.497,16.134-2.118,17.17-8.972
			c0.992-6.556-9.452-8.011-9.12-3.561c0.087,1.167,0.759,1.737,0.638,0.563c-0.373-3.631,5.591-2.122,6.629,0.192
			c1.479,3.294-0.873,5.763-2.911,7c-4.688,2.857-10.785,3.65-16.046,2.287c-7.479-1.943-9.668-9.656-13.096-15.569
			c-2.565-4.426-7.26-7.046-10.709-1.814c-3.117,4.73-4.266,11.727-10.466,13.228c-3.34,0.808-6.991,0.269-9.355-2.323
			c-1.761-1.936-2.696-4.608-4.149-6.765c-2.008-2.978-6.293-6.44-10.19-5.605c-3.381,0.723-4.973,4.087-5.999,7.065
			c-1.471,4.259-1.926,8.848-2.616,13.272c-0.941,6.049-3.592,10.762-9.361,13.594c-3.871,1.904-9.049,1.482-12.358-1.39
			c-2.1-1.817,1.008-5.44,1.943-7.153c1.542-2.826,1.755-5.629,1.425-8.792c-0.53-5.052,0.528-9.02,5.946-10.165
			c2.526-0.533,5.491-0.735,7.535-2.525c2.439-2.142,3.542-4.475,3.323-7.727c-0.218-3.25-0.863-7.24,3.266-8.249
			c3.224-0.791,7.289,1.164,10.141,2.462c5.581,2.544,11.228,6.435,17.647,4.984c4.525-1.021,9.634-6.779,5.879-11.101
			c-2.305-2.644-5.172-4.375-6.943-7.519c-1.98-3.512-0.8-7.218,2.559-9.221c5.767-3.451,14.584-1.065,18.028,4.494
			c2.778,4.487,3.349,10.163,5.081,15.076c1.717,4.868,4.699,8.984,9.482,11.162c4.881,2.227,9.952,1.121,14.619-1.021
			c4.909-2.258,9.908-6.323,15.627-5.525c6.573,0.914,7.943,7.984,8.816,13.427c0.912,5.678,1.188,11.635,3.769,16.876
			c4.836,9.811,17.999,8.802,25.326,2.835c3.929-3.202,6.17-8.062,6.151-13.095c-0.022-6.735-5.491-9.951-10.684-12.964
			c-2.537-1.47-4.94-3.207-6.272-5.875c-1.429-2.867-1.739-6.289-2.729-9.321c-1.179-3.64-3.192-7.281-6.694-9.115
			c-6.49-3.393-14.984,1.312-21.019,3.662c-4.489,1.753-9.229,3.429-14.121,3.109c-6.312-0.41-11.099-5.797-12.907-11.53
			c-2.102-6.668,2.168-12.986,5.57-18.356c0.765-1.208,1.526-2.437,2.236-3.689c-0.045,0.18-0.098,0.361-0.143,0.541
			c-0.855,3.344-1.136,6.634-0.097,9.968c1.12,3.59,3.724,6.995,7.329,8.264c6.973,2.442,15.508-3.675,21.579-6.299
			c3.798-1.644,8.101-3.075,12.253-2.081c6.43,1.538,8.656,8.404,9.641,14.113c1.179,6.772,4.831,11.824,11.657,13.568
			c6.563,1.676,13.158-0.354,19.694,0.786c4.773,0.825,4.749,5.343,4.676,9.251c-0.056,3.01,0.218,5.916,2.217,8.317
			c3.308,3.982,7.72,4.621,12.597,3.689c5.469-1.05,10.922-4.041,16.619-3.022c7.633,1.351,8.489,9.503,7.366,15.668
			c-0.8,4.373-2.396,9.401,0.381,13.4c1.252,1.802,3.371,2.995,5.464,3.5c1.225,0.291,2.505,0.216,3.682,0.725
			c2.205,0.961,1.904,4.523,1.433,6.333c-1.567,6.066-6.005,10.706-4.688,17.4c0.497,2.525,1.715,4.514,3.42,6.401
			c1.807,1.998,4.225,2.898,6.105,4.676c1.135,1.067-0.044,4.041-0.381,5.21c-0.587,2.023-1.511,3.922-2.505,5.772
			c-1.191,2.234-2.52,4.325-2.826,6.881c-0.33,2.77,1.504,5.613,3.136,7.655c0.926,1.157,1.889,2.227,2.879,3.335
			c1.167,1.3,0.769,2.869-0.485,3.825c-0.771,0.587-6.452,4.557-6.672-1.336c-0.041-1.181-0.592,0.099-0.623,1.286
			c-0.163,5.702,8.787,1.659,10.128-1.329c0.708-1.562-0.429-3.046-1.421-4.157c-2.214-2.469-4.945-5.241-5.127-8.746
			c-0.126-2.505,1.809-5.013,2.932-7.116c1.56-2.906,2.7-6.018,3.134-9.292c0.216-1.654-0.342-2.945-1.649-3.922
			c-2.585-1.938-5.069-3.282-6.946-6.083c-4.218-6.309,1.011-13.325,3.136-19.253c0.793-2.214,1.004-4.875-0.158-7.024
			c-1.213-2.243-3.036-2.574-5.399-2.898c-7.674-1.06-6.389-8.615-5.307-14.099c0.953-4.858,1.494-10.318-1.926-14.4
			c-8.436-10.073-19.588,0.796-29.697-0.944c-3.32-0.565-5.981-3.403-6.765-6.583c-0.849-3.456,0.269-7.065-0.815-10.534
			c-1.817-5.787-9.837-4.812-14.455-4.485c-7.594,0.534-16.539-0.335-19.879-8.324c-1.467-3.51-1.39-7.49-2.683-11.074
			c-0.868-2.382-2.576-4.56-4.438-6.248c-6.294-5.702-14.882-2.21-21.501,0.868c-5.173,2.408-12.719,7.351-18.518,4.278
			c-4.229-2.236-5.787-7.941-5.325-12.374c4.731,6.961,25.89-0.788,26.928-10.604c0.196-1.824,0.364-6.529,6.279-11.019
			c5.925-4.489,12.091-2.275,11.011,3.155c-0.252,3.197-0.143,6.391,0.745,9.488c1.88,6.531,9.27,9.796,15.908,10.381
			c4.678,0.415,14.184,0.451,20.514,5.348c6.328,4.899,2.736,7.88,2.648,9.061c-0.381,5.416,5.455,8.157,9.886,8.586
			c9.51,0.931,16.862-6.624,25.639-1.521c8.778,5.103,6.777,13.262,8.957,20.063c1.521,4.732,5.249,7.051,9.209,9.786
			c6.735,4.659,28.562,9.243,16.551,21.53c-6.847,7.005-14.916,9.454-15.324,15.986c-0.407,6.534,3.672,8.368,12.452,10.82
			c8.77,2.447-3.095,17.958-6.944,22.251C542.487,197.097,547.222,204.281,552.519,211.281z"/>
		<path fill="#B87426" d="M397.954,70.127c0.705,1.026,1.385,2.071,2.093,3.095c-0.278-2.421,0.033-4.831,0.657-7.274
			c0.045-0.18,0.098-0.361,0.143-0.541c-0.711,1.252-1.471,2.481-2.236,3.689C398.394,69.436,398.175,69.78,397.954,70.127z"/>
		<path fill="#B87426" d="M290.859,128.14c2.815-1.281,5.786-1.773,8.826-1.186c3.868,0.752,6.636-1.407,5.901-5.331
			c-0.95-5.067-4.417-10.422-3.278-15.702c1.169-5.443,4.932-11.043,10.629-12.345c5.276-1.196,9.31,2.707,12.233,6.495
			c1.112,1.438,2.412,3.032,3.876,4.388c3.235-1.965,8.188-0.218,11.681,1.327c4.954-3.689,5.786-10.167,7.477-15.748
			c0.614-2.035,1.831-4.487,4.334-4.458c1.402,0.014,2.656,0.419,3.745,1.123c2.163-3.808,7.191-5.091,12.133-4.538
			c0.019-0.037,0.037-0.071,0.052-0.107c2.604-5.101,4.279-11.172,8.42-15.319c3.864-3.871,10.256-5.775,15.227-2.702
			c1.906,1.179,3.37,2.751,4.673,4.468c1.906-2.949,3.8-5.901,4.89-9.105c-0.01-11.147-11.562-8.263-19.99-3.187
			c-7.746,4.662-12.127,12.071-15.802,17.378c-3.673,5.309-7.352,6.738-10.001,6.738c-2.656,0-4.161-5.069-4.573-6.583
			c-1.795-6.58-8.317-1.727-9.003,3.349c-0.985,7.279,3.519,22.857-9.287,19.973c-4.003-0.905-6.346-1.952-8.95-5.263
			c-0.881-1.121-1.418-2.421-2.007-3.706c-1.975-4.29-9.482-4.974-12.916-2.154c-12.058,9.898-13.373,27.975-5.114,36.228
			c2.153,2.154-2.342,1.535-4.498-0.618c-3.814-3.818-8.086,0.752-10.444,7.521C289.657,128.732,290.243,128.422,290.859,128.14z"/>
		<path fill="#B87426" d="M433.637,119.307c1.334,0.587,2.656,1.472,3.948,2.576c6.629,5.659,12.983,0.221,19.217-3.233
			c-0.08-0.046-0.162-0.09-0.242-0.138c-2.171-1.261-3.91-2.539-5.295-4.033c-4.337,2.513-8.7,3.679-12.719-0.677
			c-2.998-3.25-4.899-8.918-10.349-7.759c-1.426,0.306-2.653,0.919-3.725,1.734c0.211,0.051,0.42,0.104,0.628,0.175
			C430.348,109.681,432.499,114.153,433.637,119.307z"/>
		<path fill="#B87426" d="M403.823,77.777c3.106,2.843,7.001,4.38,11.01,4.584c3.888-1.007,7.807-3.335,10.888-4.771
			c1.113-0.514,2.285-1.045,3.49-1.54c2.18-2.964,3.272-6.65,4.215-10.492c1.21-4.945,2.302-12.367,7.242-15.091
			c1.89-1.043,3.772-1.324,5.535-1.026c-0.318-4.232-5.811-5.593-11.118-1.569c-5.915,4.49-6.083,9.195-6.279,11.019
			c-1.038,9.816-22.197,17.565-26.928,10.604c-0.247,2.355,0.086,5.067,1.079,7.429C403.236,77.216,403.522,77.503,403.823,77.777z"
			/>
		<path fill="#B87426" d="M320.204,151.65c5.769-2.833,8.42-7.546,9.361-13.594c0.69-4.424,1.145-9.013,2.616-13.272
			c1.026-2.978,2.618-6.342,5.999-7.065c3.898-0.834,8.182,2.627,10.19,5.605c1.453,2.156,2.388,4.829,4.149,6.765
			c2.364,2.593,6.015,3.131,9.355,2.323c6.199-1.501,7.349-8.499,10.466-13.228c3.449-5.232,8.145-2.612,10.709,1.814
			c3.428,5.913,5.617,13.626,13.096,15.569c5.262,1.363,11.358,0.57,16.046-2.287c2.037-1.237,4.39-3.706,2.911-7
			c-0.153-0.344-0.417-0.669-0.752-0.963c-1.465,3.088-3.454,6.854-6.76,8.319c-3.839,1.71-8.28,0.686-11.464-1.989
			c-4.697-3.948-5.622-10.049-8.746-15.035c-3.005-4.797-8.757-8.763-13.365-3.793c-3.418,3.684-5.615,8.511-9.624,11.647
			c-8.691,6.789-14.3-4.907-20.087-9.5c-3.684-2.922-8.929-2.476-12.304,0.842c-3.303,3.238-4.645,7.892-5.748,12.253
			c-2.103,8.305-3.398,19.064-11.58,23.742C316.586,152.863,318.519,152.479,320.204,151.65z"/>
		<path fill="#B87426" d="M522.71,171.497c0.628,0.551,1.271,1.077,1.926,1.598c-0.235-1.303-0.652-2.53-1.312-3.592
			c-1.062-1.712-2.593-2.753-4.346-3.369C519.856,168.106,520.942,169.933,522.71,171.497z"/>
		<path fill="#B87426" d="M496.031,144.427c1.111-5.074,0.262-10.551-6.197-11.077c-0.512-0.043-1.014-0.056-1.511-0.056
			C490.809,137.085,493.171,140.968,496.031,144.427z"/>
		<path fill="#B87426" d="M345.147,127.631c4.274,2.29,7.536,6.054,11.82,8.288c3.655,1.904,6.79,1.47,10.399-0.315
			c3.016-1.492,6.6-4.409,10.115-4.351c6.863,0.109,9.363,8.484,15.694,10.024c6.688,1.628,18.694,0.997,22.892-5.496
			c2.952-4.56,4.22-10.291,8.016-14.307c2.357-2.505,4.841-3.269,7.325-2.855c-1.067-4.337-3.068-8.492-8.004-9.178
			c-0.221-0.032-0.437-0.044-0.652-0.061c-1.201,1.353-2.173,2.964-3.008,4.601c-1.855,3.638-3.201,7.497-4.88,11.213
			c1.438,1.019,2.43,2.656,2.091,4.892c-1.036,6.854-11.487,9.469-17.17,8.972c-5.001-0.442-9.178-2.45-12.316-6.393
			c-3.237-4.063-4.263-10.262-8.244-13.655c-5.09-4.337-8.3,7.436-10.291,10.529c-2.3,3.57-6.087,5.176-10.315,4.996
			c-5.409-0.23-7.809-3.272-10.262-7.691c-1.71-3.08-7.405-10.306-11.574-6.485c-1.739,1.598-2.724,3.919-3.375,6.347
			C337.389,125.632,341.434,125.645,345.147,127.631z"/>
		<path fill="#B87426" d="M458.723,117.663c0.09-0.036,0.172-0.08,0.255-0.121c6.219-2.813,13.221-0.691,18.523,3.233
			c3.939,2.925,6.896,6.699,9.598,10.684c2.013-0.126,4.033,0.102,5.935,0.813c4.924,1.833,6.122,7.298,5.074,11.974
			c-0.148,0.667-0.34,1.3-0.548,1.931c1.795,1.943,3.796,3.706,6.139,5.181c5.11,3.214,11.407,4.662,13.723,10.803
			c0.235,0.631,0.47,1.259,0.703,1.875c2.18,0.483,4.242,1.39,5.704,3.049c-0.08-1.448-0.124-2.94-0.24-4.494
			c-0.49-6.413-7.114-7.397-11.897-9.85c-4.295-2.205-5.971-5.54-6.5-10.252c-0.832-7.405-3.049-14.305-11.111-16.32
			c-6.069-1.511-12.214-1.829-15.867-7.674c-3.039-4.86-6.524-13.042-13.878-11.579c-3.594,0.718-7.57,4.08-11.615,6.67
			c1.193,1.15,2.605,2.091,4.062,2.937C457.425,116.896,458.078,117.275,458.723,117.663z"/>
		<path fill="#B87426" d="M330.716,105.824c2.367,1.686,5.086,2.501,8.081,1.123c-2.43-1.009-5.189-1.865-7.514-1.298
			C331.079,105.7,330.896,105.761,330.716,105.824z"/>
		<path fill="#B87426" d="M357.829,88.007c0.196,0.216,0.386,0.449,0.562,0.686c0.587,0.796,1.524,2.891,2.72,2.855
			c1.721-0.058,2.761-0.919,3.683-2.346c1.134-1.756,1.986-3.648,2.88-5.52c-2.502-0.162-5.007,0.313-7.108,1.572
			C359.351,85.979,358.427,86.93,357.829,88.007z"/>
		<path fill="#814200" d="M466.969,163.821c-4.47,1.698-8.317,5.319-13.182,5.911c2.338,0.463,4.751,0.793,7.15,1.339
			c4.261,0.968,8.084,2.789,10.829,5.86c-0.834-2.988-0.538-6-0.871-9.064C470.625,165.39,469.989,162.674,466.969,163.821z"/>
		<path fill="#814200" d="M489.688,180.665c-3.621-0.175-7.043,1.438-10.64,1.521c-1.814,0.044-3.435-0.398-4.715-1.319
			c0.097,0.206,0.194,0.405,0.281,0.616c0.88,2.142,1.082,4.259,1.521,6.498c0.388,1.989,1.724,2.527,3.645,2.976
			c4.424,1.028,8.991-0.209,13.376-0.376C494.137,186.949,494.697,180.908,489.688,180.665z"/>
		<path fill="#814200" d="M492.446,205.448c2.683,2.171,6.815,1.695,10.039,2.103c0.994,0.129,2.042,0.298,3.063,0.553
			c-0.294-0.49-0.563-1.002-0.793-1.548c-1.259-3-1.661-6.626-3.65-9.272c-1.943-2.583-4.528-3.197-7.274-3.119
			C492.419,197.422,489.572,203.132,492.446,205.448z"/>
		<path fill="#814200" d="M513.676,236.086c3.391,0.88,9.937-0.74,10.493-4.795c0.417-3.022-2.38-7.179-4.199-4.341
			c-0.638,0.989-0.706,0.09-0.029-0.888c0.4-0.577,0.919-0.856,1.482-0.905c-1.254-2.132,0.415-5.212-1.54-6.827
			c-2.302-1.902-5.081-2.867-7.664-4.237c0.34,1.385,0.349,2.896,0.138,4.453C511.74,222.926,506.567,234.252,513.676,236.086z"/>
		<path fill="#814200" d="M524.219,244.444c-0.953-0.053-8.865,0.997-11.88,0.902c-2.77-0.087-5.431-0.798-7.715-2.738
			c-1.945-1.659-3.109-3.718-3.628-6.216c-0.269-1.327-0.456-2.724-0.946-3.99c-0.57-1.465-0.679-1.834-2.173-1.887
			c-2.28-0.08-5.013-0.636-6.282-2.804c-0.873-1.482-1.016-3.362-1.103-5.033c-0.102-1.814,0.17-5.469-2.207-7.878
			c-1.103-1.118-3.997-1.429-5.481-1.916c-4.78-1.579-8.593-3.67-11.933-7.453c-0.194-0.216-0.388-0.427-0.582-0.638
			c1.424,10.934,7.065,16.323,16.355,22.772c3.054,2.127,6.216,5.455,6.01,8.516c-0.201,3.061-2.445,8.576,0.408,11.227
			c2.857,2.656,8.37-2.857,11.841-1.836c3.468,1.021,4.094,5.632,4.567,6.992c3.747,10.601,16.66,1.378,21.045-4.992
			C528.119,247.752,524.544,245.55,524.219,244.444z"/>
		<path fill="#814200" d="M463.045,180.423c4.15,4.584,5.971,12.086,6.699,18.511c1.429,1.47,2.838,2.959,4.227,4.482
			c3.43,3.745,7.747,5.467,12.61,6.745c3.294,0.868,4.417,2.365,5.777,5.46c1.56,3.524,0.999,8.938,1.635,10.522
			c1.031,2.566,5.372,0.119,7.301,1.46c2.074,1.448,2.627,4.88,3.102,7.162c0.716,3.432,2.549,6.105,6.282,6.75
			c3.679,0.631,7.252-0.398,10.851-1.038c2.988-0.531,5.918-0.662,8.95-0.318c2.549,0.291,5.033,0.817,7.424,1.545
			c0.558-0.26,1.116-0.553,1.662-0.88c-0.269-2.61-1.633-5.954-6.301-9.69c-3.621-2.896-6.682-3.781-8.508-3.883
			c0.568,0.871,0.926,1.928,0.89,3.012c-0.192,5.787-8.79,10.136-13.728,7.051c-6.335-3.953-2.716-11.778-1.644-17.388
			c0.437-2.304,0.9-5.392-0.621-7.422c-0.669-0.487-1.288-1.004-1.865-1.564c-2.501-1.463-5.821-1.707-8.571-1.865
			c-3.624-0.213-9.059-0.871-9.661-5.377c-0.419-3.173,1.002-6.35,2.261-9.374c-1.312,0.16-2.624,0.398-3.908,0.599
			c-3.284,0.507-6.59,0.383-9.779-0.616c-4.424-1.385-5.149-3.757-5.899-7.929c-1.268-7.026-6.316-10.631-13.017-11.933
			c-1.875-0.361-3.83-0.645-5.772-0.992C456.998,175.715,460.71,177.857,463.045,180.423z"/>
		<path fill="#814200" d="M413.21,163.915c-1.339-0.306-2.336-1.678-3.648-1.863c-0.366-0.051-0.737,0.014-1.108,0.157
			c-1.676,3.202-4.582,5.891-8.495,4.839c-0.046-0.015-0.093-0.029-0.136-0.044c-0.761,0.085-1.539,0.097-2.333,0.019
			c-2.619-0.25-5.013-1.062-7.313-2.326c-1.935-1.062-3.868-2.513-6.016-3.109c-7.075-1.967-13.037,6.718-14.805,12.171
			c-1.768,5.479-1.527,11.509-6.355,13.924c-3.814,1.906-10.656-0.216-13.246-0.648c-1.993-0.332-4.03-0.395-6.026-0.029
			c-2.17,0.4-4.061,1.754-6.032,2.69c-0.427,0.201-0.872,0.376-1.329,0.526c4.021,1.05,5.526,7.798,7.119,10.934
			c1.538,3.025,3.545,5.394,7.227,5.613c3.119,0.184,6.04-0.999,8.431-2.979c4.788-3.963,8.254-9.471,10.814-15.084
			c2.247-4.929,3.072-10.308,5.092-15.324c1.357-3.369,3.995-7.349,8.209-6.529c7.088,1.385,10.606,9.765,18.268,9.818
			c4.875,0.034,8.681-2.173,12.454-5.023c1.882-1.421,3.696-3.027,5.207-4.858c0.172-0.64,0.354-1.302,0.555-1.984
			c0.349-1.198,0.674-2.374,1.033-3.505C418.801,162.518,415.621,164.456,413.21,163.915z"/>
		<path fill="#814200" d="M311.355,221.08c-0.051,1.46-1.049,5.316-0.56,8.098c0.7-3.439,1.89-6.701,3.787-9.51
			c5.885-8.702,15.815-7.456,24.094-2.901c1.706,0.939,5.61,3.777,7.763,3.03c0.97-0.33,1.461-2.333,1.823-3.16
			c1.346-3.088,3.331-6.047,5.88-8.344c-2.612,0.599-5.357,0.374-7.882-1.011c-4.48-2.462-5.441-8.479-7.846-12.593
			c-0.564-0.963-1.694-3.158-3.161-2.707c-1.105,0.344-1.72,1.385-2.163,2.389c-1.061,2.403-1.589,4.991-2.56,7.427
			c-1.861,4.654-5.46,7.434-10.753,6.837c-5.389-0.613-8.348-4.341-8.034-9.818c0.319-5.494,4.451-7.674,8.119-5.341
			c0.999,0.636,1.575,1.836,0.686,1.072c-4.614-3.987-8.356,3.114-7.157,7.177c0.861,2.925,3.29,4.921,6.386,5.077
			c2.405,0.116,5.662-0.206,7.253-2.268c1.415-1.826,2.087-4.116,2.769-6.289c0.611-1.95,1.505-5.709,3.489-7.351
			c-1.562,0.153-3.152,0.034-4.622-0.379c-2.427-0.684-4.376-2.023-6.066-3.873c-1.506-1.647-3.15-3.796-5.491-4.23
			c-3.768-0.696-7.718,0.245-11.472,0.648c-3.426,0.369-6.735,0.4-10.112-0.381c-0.844-0.196-1.666-0.427-2.475-0.694
			c0.799,6.941,3.25,14.089,5.848,17.904C303.35,206.423,311.648,212.482,311.355,221.08z"/>
		<path fill="#814200" d="M384.768,192.947c-2.941,0.876-6.033,2.27-7.514,5.106c-1.15,2.205-2.549,4.591-4.483,6.207
			c-2.443,2.037-4.936,2.615-8.01,3.095c-3.645,0.57-6.711,2.096-9.293,4.788c-1.787,1.863-3.028,3.983-4.043,6.345
			c-0.548,1.273-1.083,2.911-2.203,3.82c-3.678,2.986-9.033-0.475-12.396-2.374c-4.098-2.314-10.098-4.722-14.717-2.355
			c-3.72,1.909-5.783,5.707-6.889,9.61c-0.468,1.661-0.825,3.359-1.084,5.086c1.545,0.002,3.733-0.696,6.804-2.433
			c1.626-0.922,3.905-2.573,5.781-2.969c2.274-0.475,3.873-0.965,6.046,0.211c3.102,1.686,5.043,4.155,7.451,6.67
			c10.062,10.526,21.586-0.936,24.035-20.941c0.366-2.998,3.675,5.513,0.825,13.391c16.417-3.895,19.406-18.744,19.979-33.347
			C384.959,192.887,384.866,192.916,384.768,192.947z"/>
		<path fill="#814200" d="M413.314,174.318c-4.266,3.267-10.47,5.615-15.801,3.49c-2.275-0.907-4.264-2.202-6.153-3.764
			c-2.228-1.836-4.599-4.337-7.459-5.152c-4.992-1.414-7.013,4.278-8.194,8.062c-1.539,4.926-2.664,9.837-5.032,14.463
			c-2.442,4.778-5.448,9.479-9.516,13.044c2.529-0.546,5.332-0.524,7.498-1.758c2.571-1.463,4.066-3.973,5.435-6.495
			c2.418-4.463,6.898-5.45,11.06-7.182c0.023-1.351,0.032-2.69,0.042-4.007c0.002-1.271,1.066-2.379,2.357-2.357
			c8.746,0.121,19.589,1.962,26.433-4.977c2.362-2.394,3.427-4.766,4.23-7.383C416.683,171.718,415.007,173.023,413.314,174.318z"/>
		<path fill="#814200" d="M352.093,183.758c2.701,0.502,10.184,2.719,11.878-2.307c2.113-6.267,3.41-13.291,8.102-18.288
			c2.165-2.304,4.685-4.227,7.485-5.042c-5.165,0.975-10.809,0.788-14.762-1.996c-3.063-2.161-7.59-15.94-12.189-9.107
			c-5.843,8.681-2.946,20.145-7.669,29.352c-2.068,4.031-5.439,7.727-10.227,8.115c-3.527,0.286-9.241-0.657-10.643-4.555
			c-1.13-3.148,0.645-6.502,1.946-9.314c0.705-1.516,1.78-3.352,1.751-5.079c-0.032-2.205-2.877-2.882-4.651-2.343
			c-3.381,1.021-6.302,3.296-9.824,3.886c-3.129,0.521-6.539-0.158-9.47-1.23c-1.316-0.483-2.612-1.113-3.881-1.841
			c-5.412,1.375-7.27,7.296-7.15,14.101c2.011,0.834,4.207,1.375,6.646,1.523c6.414,0.383,14.241-3.01,20.313-0.146
			c4.351,2.057,6.353,7.642,11.64,7.732c4.661,0.082,7.897-3.236,12.353-3.893C346.592,182.909,349.286,183.231,352.093,183.758z"/>
		<path fill="#FFFFFF" d="M400.877,209.831c0,0.861-0.697,1.559-1.563,1.559c-0.862,0-1.562-0.698-1.562-1.559
			c0-0.868,0.7-1.567,1.562-1.567C400.18,208.264,400.877,208.963,400.877,209.831z"/>
		<path fill="#FFFFFF" d="M459.664,211.754c0,0.861-0.699,1.559-1.557,1.559c-0.863,0-1.564-0.698-1.564-1.559
			c0-0.866,0.701-1.564,1.564-1.564C458.965,210.19,459.664,210.888,459.664,211.754z"/>
		<path d="M428.505,237.437c-1.725,1.327-4.545,3.284-6.386,3.597c-1.727,0.291-3.995-2.341-5.149-3.973
			c-0.536-0.749-0.936,1.147-0.056,2.389c1.293,1.826,2.707,3.779,5.132,3.73c2.564-0.058,4.565-1.805,6.022-3.17
			C429.55,238.628,428.995,237.061,428.505,237.437z"/>
		<path fill="#B10000" d="M407.551,257.379c0,0,0.33,12.392,11.729,11.952c20.143-0.776,17.376-11.841,17.376-11.841
			s-8.191,3.653-15.714,3.211C413.414,260.258,407.551,257.379,407.551,257.379z"/>
		<path d="M439.463,255.902c1.331-1.293,1.072-3.653,0.631-3.221c-0.226,0.221-1.933,1.732-3.609,2.654
			c-3.958,0.325-6.432-1.096-8.334-4.206c-0.524-0.856-2.015-1.433-3.374-1.007c-0.965,0.303-2.341,2.535-3.257,3.573
			c-2.695,3.049-4.308-2.707-4.446-3.15c-0.284-0.919-1.183-1.288-1.778-0.716c-2.442,2.338-5.418,4.196-9.12,4.526
			c-0.246-0.179-2.401-1.183-2.646-1.353c-0.421-0.286,0.052,2.772,2.493,4.109c0.905,6.233,3.139,10.655,9.428,12.763
			c6.507,2.178,12.602,0.153,17.034-2.615c2.733-1.703,2.864-4.024,2.287-3.568c-4.322,3.41-10.546,4.72-15.937,3.922
			c-5.95-0.878-8.969-3.966-10.148-9.03C418.587,263.437,431.544,263.593,439.463,255.902z"/>
		<path fill="#9A0000" d="M408.609,256.105c2.54-0.439,5.406-2.474,6.641-3.442c0.454-0.349,1.605,3.369,3.575,4.079
			c1.198,0.437,2.438,0.318,3.725-0.98c0.679-0.689,1.3-1.821,1.865-2.605c2.013-2.775,3.284,1.072,4.853,2.248
			c1.346,1.009,3.403,1.758,4.977,1.768C426.979,260.774,415.839,259.828,408.609,256.105z"/>
		<path fill="#F76D2B" d="M390.478,204.167c1.614-0.085,6.272,0.57,11.976,2.566c5.7,1.996,13.592,6.085,15.394,6.84
			c1.807,0.766-1.235-6.08-8.361-10.926c-4.749-3.231-10.742-5.324-14.923-5.421c-4.183-0.092-4.277,0.097-4.373,1.426
			C390.097,199.986,388.672,204.265,390.478,204.167z"/>
		<path fill="#F76D2B" d="M432.199,212.627c2.61-0.934,14.099-4.067,20.531-5.043c8.174-1.23,12.547,0.764,12.547,0.764
			s0.189-2.185-0.097-2.566c-0.284-0.381-4.465-2.474-9.505-2.663c-5.038-0.189-9.122,0.575-14.54,2.663
			C435.713,207.874,429.538,213.573,432.199,212.627z"/>
		<path fill="#FFC095" d="M395.898,350.231c7.419,0.803,15.581,8.389,18.777,16.379
			C417.872,374.602,381.118,348.633,395.898,350.231z"/>
		<path fill="#FFC095" d="M428.658,362.615c2.006-5.758,11.979-13.182,21.969-13.585
			C460.617,348.633,425.461,371.803,428.658,362.615z"/>
		<path fill="#FFC095" d="M352.353,326.263c3.596-4.395,13.182-5.596,19.175-6.394C377.519,319.069,341.566,339.445,352.353,326.263
			z"/>
		<path fill="#FFC095" d="M472.201,319.069c5.533,1.465,14.783,2.401,17.179,9.585C491.774,335.846,458.619,315.475,472.201,319.069
			z"/>
		<path fill="#FFC095" d="M451.828,243.566c3.318-6.328,13.185-15.981,11.191-9.588c-2.004,6.389-11.589,23.568-15.186,26.765
			C444.236,263.939,447.435,251.958,451.828,243.566z"/>
		<path fill="#FFC095" d="M398.694,230.779c5.597,0.31,7.589,5.195,0.799,5.195C392.7,235.974,391.501,230.384,398.694,230.779z"/>
		<path fill="#F7AE95" d="M431.233,261.938c1.977-0.642,2.037,1.409-0.078,2.188C428.786,265.007,428.34,262.877,431.233,261.938z"
			/>
		<path fill="#AE6856" d="M236.309,181.058c4.611,0.72,9.816,14.72,10.01,24.14c0.279,13.396-10.206-4.708-12.363-9.224
			C231.796,191.461,230.031,180.076,236.309,181.058z"/>
		<path fill="#AE6856" d="M250.638,240.321c1.571,7.065,5.697,14.895,12.559,19.821c7.656,5.499,15.312,6.672,18.254,6.874
			c2.944,0.196-14.264,6.507-24.727-1.965C244.356,255.041,247.993,228.427,250.638,240.321z"/>
		<path fill="#AE6856" d="M211.189,193.816c0.48-4.831,5.101-10.597,9.42-12.168C224.926,180.076,210.01,205.591,211.189,193.816z"
			/>
		<path fill="#AE6856" d="M188.812,235.819c1.546-5.564,4.123-10.402,7.459-8.443c3.335,1.962-0.196,17.075-3.336,27.085
			c-3.14,10.012-8.68,19.835-8.048,9.423C185.282,257.408,186.852,242.88,188.812,235.819z"/>
		<path fill="#AE6856" d="M200.983,328.652c2.958-6.971,18.448-6.67,20.412-2.159C223.355,331.009,194.897,342.984,200.983,328.652z
			"/>
		<path fill="#924735" d="M465.946,380.064c10.009-4.904,15.896-5.101,15.704,0c-0.204,5.103-10.017,11.579-20.417,11.385
			C450.831,391.25,454.91,385.477,465.946,380.064z"/>
		<path fill="#924735" d="M388.613,379.673c8.646,4.322,17.273,10.987,12.955,12.952c-4.32,1.965-13.348,0.393-19.431-5.103
			C376.053,382.028,375.268,372.996,388.613,379.673z"/>
		<path fill="#924735" d="M470.067,446.794c4.742,6.706,10.99,18.453,11.97,26.891c0.982,8.44-10.403-3.337-15.503-13.345
			C463.455,454.293,457.697,429.329,470.067,446.794z"/>
		<path fill="#AE6856" d="M246.888,394.572c4.194-8.382,11.384-13.779,11.982-8.382c0.602,5.392-4.192,23.364-9.585,23.963
			C243.892,410.755,243.29,401.769,246.888,394.572z"/>
		<path fill="#924735" d="M360.145,492.253c0.428-8.979,6.59-31.758,8.388-17.982c1.798,13.789,0,47.342-4.194,43.747
			C360.145,514.424,359.544,504.837,360.145,492.253z"/>
		<path fill="#B87426" d="M450.137,69.232c5.816,5.455,11.635,3.638,18.179,4.002c6.546,0.359,12.729,3.636,14.184,6.907
			c1.45,3.272-2.551,8.36,3.267,13.087c8.642,7.019,13.604,5.816,19.272,3.272c10.543-4.727,17.09-2.544,19.634,3.638
			c2.547,6.18-0.728,14.181,7.274,20.361c7.994,6.182,15.404,7.878,20.361,12.362c7.635,6.908-4.727,13.815-7.638,16.362
			c2.183-4.725,6.908-11.996,0.725-15.27c-5.181-2.748-17.812-8.002-22.542-15.27c-4.727-7.272-3.997-16.726-8.363-17.09
			c-4.361-0.361-13.083,6.541-22.178,2.544c-9.088-3.999-15.634-7.269-16.726-13.818c-0.698-4.198,2.202-8.758-0.725-10.543
			c-6.546-3.999-12.001-1.091-17.817-3.272C451.229,74.321,450.137,69.232,450.137,69.232z"/>
		<path fill="#E0B500" d="M426.523,314.451c-0.092,1.989-1.087,4.797-1.989,6.876c-1.31,3.002-2.714,3.883-2.714,3.883
			s1.268-3.434,1.176-5.962c-0.095-2.631-1.625-4.703-1.084-4.885C423.31,313.898,425.437,313.728,426.523,314.451z"/>
	</g>
</g>
</svg>
