<?xml version="1.0" encoding="utf-8"?>
<!-- Generator: Adobe Illustrator 17.0.0, SVG Export Plug-In . SVG Version: 6.00 Build 0)  -->
<!DOCTYPE svg PUBLIC "-//W3C//DTD SVG 1.1//EN" "http://www.w3.org/Graphics/SVG/1.1/DTD/svg11.dtd">
<svg version="1.1" id="Layer_1" xmlns="http://www.w3.org/2000/svg" xmlns:xlink="http://www.w3.org/1999/xlink" x="0px" y="0px"
	 width="800px" height="600px" viewBox="0 0 800 600" enable-background="new 0 0 800 600" xml:space="preserve">
<g>
	<path fill="#DCDCDC" d="M105.267,330.155c-9.207,60.193,119.74,129.852,288.014,155.597
		c168.273,25.741,312.153-2.189,321.358-62.377c9.209-60.183-119.738-129.844-288.014-155.583
		C258.352,242.043,114.476,269.978,105.267,330.155z"/>
	<path d="M104.21,265.734c0.12-0.881,1.243-1.775,3.372-1.243c-0.162-15.141,0.23-28.91,2.463-43.893
		c1.195-8.023,6.043-35.377,8.006-40.395c-3.095-6.579-7.097-15.967-2.129-20.226c3.362-2.881,11.066-5.236,14.957-7.263
		c5.532-2.878,10.404-7.138,15.341-10.929c19.667-15.1,50.972-42.488,56.648-44.617c5.679-2.13,20.229-4.259,32.876-5.52
		c12.509-1.247,25.084-1.814,37.646-1.746c24.573,0.131,49.103,2.768,73.409,6.216c26.054,3.695,51.962,8.337,77.685,13.883
		c11.208,2.416,32.964,7.848,43.891,11.417c19.32,6.31,40.415,16.56,59.201,29.552c9.763,6.752,33.455,30.183,40.314,42.883
		c10.882,1.493,20.739,5.633,30.265,10.724c41.73,8.315,88.256,30.79,103.208,45.699c7.523,3.226,16.593,18.8,15.725,30.057
		c3.518,17.836,6.041,35.888,9.029,53.819c2.194,13.175,5.678,26.263-0.578,38.883c-3.705,7.472-10.482,11.834-18.424,15.501
		c1.183,11.829-7.383,31.323-12.815,36.078c-7.886,6.899-30.756,14.59-42.19,14.59c-4.931,0-21.687-4.733-29.178-14.985
		c-20.841,8.303-69.02,24.599-71.703,25.102c-0.997,10.868-9.892,22.466-21.63,28.503c-13.018,6.693-58.032,12.473-70.9,11.967
		c-25.006-0.981-39.357-33.556-44.214-62.239c-0.877,1.093-6.942,11.455-8.514,12.537c-0.306,0.211-6.56,0.252-9.84-1.514
		c-15.589-5.493-77.226-34.279-92.714-40.895c-15.227-6.506-49.444-19.445-61.853-24.066c-0.267,0.846-10.659,11.009-15.626,11.897
		c-3.511,0.626-39.412-2.413-48.085-5.145c-12.952-4.081-22.712-14.553-28.746-40.103c-2.528,2.192-5.857,3.192-7.986,3.192
		c-2.128,0-7.042-2.271-9.582-3.904c-12.778,2.304-19.441-18.069-21.424-25.048C105.63,298.738,102.789,276.202,104.21,265.734z"/>
	<path fill="#910000" d="M113.26,229.71c1.723-1.497,16.502-11.89,19.694-14.196c-1.479-0.304-13.099-1.727-17.211-1.949
		C115.3,215.836,113.521,226.565,113.26,229.71z"/>
	<path fill="#FF9942" d="M117.873,204.868c-0.203,0.921-1.046,4.755-1.243,5.678c6.388,0.355,14.372,1.773,20.584,2.836
		c1.265-0.719,3.443-1.927,4.79-2.481C137.036,209.127,124.084,206.11,117.873,204.868z"/>
	<path fill="#FF6E2E" d="M119.621,210.781c-1.024-0.1-2.029-0.182-2.991-0.234c0.198-0.923,1.04-4.757,1.243-5.678
		c0.854,0.17,1.845,0.379,2.918,0.608C120.341,207.23,119.95,208.998,119.621,210.781z"/>
	<path fill="#FF6E2E" d="M134.853,208.811c2.905,0.761,5.486,1.496,7.151,2.091c-1.348,0.554-3.526,1.762-4.79,2.481
		c-1.11-0.187-2.289-0.39-3.491-0.594C134.138,211.472,134.514,210.148,134.853,208.811z"/>
	<path fill="#910000" d="M146.617,208.771c0.709-3.726,1.066-10.114,1.242-12.775c-5.322-2.306-20.76-9.936-26.354-12.728
		c-1.149,5.277-2.92,14.06-3.455,17.875C125.325,203.094,139.35,206.47,146.617,208.771z"/>
	<path fill="#C70000" d="M121.573,214.086c1.334,0.143,2.727,0.302,4.067,0.458c-0.793,2.584-1.544,5.175-2.253,7.78
		c-1.951,1.39-3.888,2.775-5.56,3.984C119.156,222.261,120.396,218.184,121.573,214.086z"/>
	<path fill="#C70000" d="M126.179,197.326c1.35-3.275,2.621-6.581,3.651-9.938c1.738,0.853,3.562,1.747,5.381,2.631
		c-2.264,4.549-4.243,9.231-6.015,13.999c-1.545-0.395-3.061-0.781-4.506-1.15C125.186,201.019,125.684,199.172,126.179,197.326z"/>
	<path fill="#CAE8F1" d="M528.306,158.087c-23.067-16.955-43.902-25.048-51.456-26.814c-7.555-1.764-89.984,2.133-111.18,4.68
		c20.614,28.375,34.238,83.378,36.76,110.12c12.968-1.367,24.738-3.018,37.535-5.149c2.386-6.546,27.03-14.266,40.447-18.377
		c15.001-4.595,30.857-8.518,46.479-10.161c0.385-0.04,0.556,0.596,0.191,0.743c-12.934,5.226-26.764,8.464-40.125,12.441
		c0.017,0.03,0.018,3.231,0.025,3.771c0.008,0.542-3.393,1.483-3.453,0.956c-0.061-0.525,0.047-3.075,0-3.822
		c-6.454,1.984-26.59,8.691-35.456,13.035c13.257-2.423,26.427-5.353,39.498-9.012c14.43-4.037,25.948-7.555,42.309-15.041
		c12.181-5.575,28.195-14.593,33.514-20.504C560.536,188.855,536.788,164.323,528.306,158.087z"/>
	<path fill="#99968E" d="M578.452,320.314c28.716-7.131,70.603-19.686,86.153-27.108c-0.651-0.46-1.966-1.329-2.614-1.799
		c-12.486,5.324-67.685,22.957-83.321,24.578c-0.406,0.044-0.545-0.519-0.137-0.626c34.014-8.71,73.468-21.391,81.031-25.807
		c-0.41-0.299-0.824-0.586-1.236-0.881c-14.141,5.042-63.201,19.387-76.042,21.13c-0.495,0.066-0.613-0.635-0.13-0.764
		c12.812-3.42,60.377-17.564,71.128-21.884c-10.684-0.649-36.637,8.095-67.052,17.413c-0.428,0.129-0.69-0.629-0.229-0.79
		c12.584-4.409,43.133-14.726,45.802-15.737c-7.856-0.477-26.173,6.696-40.212,11.521c-0.393,0.133-0.773-0.393-0.403-0.628
		c7.011-4.451,29.308-11.013,30.75-11.577c-2.475-0.691-20.024,2.511-32.455,10.16c-5.694,3.502-8.851,8.142-12.111,13.625
		c-2.199,3.701-3.617,7.45-3.936,11.836c-0.353,4.81,2.732,5.832,6.703,5.063c5.374-1.039,11.914-2.177,18.189-3.97
		c15.508-4.43,57.641-16.908,59.013-20.476c-7.392,2.671-64.905,20.092-77.029,20.929c-0.34,0.025-0.538-0.488-0.207-0.561
		c15.534-3.479,77.531-20.515,88.53-27.886c-0.366-0.275-2.021-1.343-2.032-1.339c-14.011,6.072-71.22,24.466-87.933,26.195
		C578.321,320.966,578.068,320.408,578.452,320.314z"/>
	<path fill="#736B62" d="M625.018,292.736c12.627-3.619,22.604-5.925,28.266-5.582c-4.123,1.657-13.664,4.759-24.579,8.147
		C627.49,294.351,626.263,293.498,625.018,292.736z"/>
	<path fill="#736B62" d="M614.175,288.188c3.938-0.811,6.861-1.086,7.765-0.832c-0.391,0.154-2.314,0.746-5.041,1.617
		C616.001,288.678,615.092,288.424,614.175,288.188z"/>
	<path fill="#736B62" d="M619.824,290.071c4.897-1.364,9.132-2.205,11.981-2.032c-0.84,0.318-4.441,1.558-9.373,3.245
		C621.571,290.846,620.701,290.437,619.824,290.071z"/>
	<path fill="#736B62" d="M632.164,298.285c-0.384-0.369-0.768-0.699-1.153-1.047c11.542-3.395,21.949-6.652,27.318-8.567
		c0.412,0.296,0.826,0.582,1.236,0.881c-3.411,1.99-13.318,5.666-26.276,9.897C632.922,299.054,632.558,298.661,632.164,298.285z"/>
	<path fill="#736B62" d="M637.47,305.093c12.803-4.161,23.938-8.107,29.133-10.357c0.011-0.003,1.666,1.065,2.032,1.339
		c-4.241,2.843-16.074,7.124-29.894,11.507C638.353,306.736,637.935,305.906,637.47,305.093z"/>
	<path fill="#736B62" d="M634.625,300.979c12.201-3.921,22.731-7.595,27.366-9.572c0.648,0.47,1.963,1.339,2.614,1.799
		c-6.089,2.906-16.225,6.6-28.018,10.446C635.989,302.732,635.331,301.843,634.625,300.979z"/>
	<path fill="#736B62" d="M577.374,311.14c2.729-4.589,5.403-8.574,9.534-11.81c-1.52,2.902-2.594,6.053-3.199,9.287
		c-0.559,0.152-1.084,0.296-1.553,0.42c-0.482,0.129-0.365,0.831,0.13,0.764c0.38-0.054,0.805-0.117,1.248-0.192
		c-0.235,1.509-0.363,3.03-0.389,4.551c-1.543,0.404-3.087,0.81-4.612,1.199c-0.408,0.107-0.268,0.67,0.137,0.626
		c1.244-0.128,2.761-0.371,4.465-0.689c0.021,1.262,0.112,2.519,0.283,3.759c-1.685,0.432-3.357,0.858-4.967,1.259
		c-0.385,0.095-0.131,0.652,0.219,0.617c1.376-0.142,3.056-0.411,4.935-0.764c0.168,0.953,0.373,1.893,0.631,2.818
		c-1.595,0.388-2.995,0.72-4.131,0.976c-0.331,0.074-0.133,0.586,0.207,0.561c1.071-0.073,2.505-0.28,4.217-0.593
		c0.331,1.044,0.723,2.056,1.177,3.045c-1.943,0.376-3.819,0.727-5.566,1.065c-3.971,0.769-7.056-0.254-6.703-5.063
		C573.757,318.59,575.175,314.841,577.374,311.14z"/>
	<path fill="#736B62" d="M639.446,309.22c8.793-2.649,15.655-4.817,17.897-5.628c-0.554,1.442-7.776,4.344-17.204,7.577
		C639.929,310.513,639.698,309.864,639.446,309.22z"/>
	<path fill="#D2D2D2" d="M589.83,329.172c-5.593,1.332-14.439,3.652-17.486,0.727c-4.315-4.142-0.911-14.209,3.571-22.354
		c6.548-11.906,16.065-15.266,28.611-19.349c14.07-4.575,31-6.401,45.775-5.411c-0.65-0.867-1.833-2.304-4.118-3.25
		c-11.052,0.217-24.271,1.517-38.793,5.203c-14.521,3.682-26.821,7.841-30.558,12.567c-10.618,13.438-15.01,34.603-12.045,38.828
		c1.121,1.6,9.554,2.11,28.565-1.802c12.689-2.61,35.458-9.715,54.381-18.599c16.912-7.939,25.355-13,25.804-15.537
		c0.179-1.009-1.739-2.294-3.719-3.516C669.126,308.588,597.402,327.368,589.83,329.172z"/>
	<path fill="#E6F5FF" d="M572.279,297.307c-4.49,1.191-65.984,11.373-87.122,12.57c2.067,5.953,7.369,18.204,12.234,25.025
		c20.924,4.231,51.915-5.736,63.618-14.623C564.26,312.044,567.726,304.677,572.279,297.307z"/>
	<path fill="#4773C4" d="M503.601,302.337c10.503-1.016,59.9-8.693,62.34-9.048c-18.943-8.866-45.53-20.901-72.43-29.807
		c-24.614-8.145-61.814-15.137-75.834-11.966C445.825,261.969,497.043,293.758,503.601,302.337z"/>
	<path fill="#4773C4" d="M567.144,199.09c-19.905,16.759-49.287,27.603-76.252,35.236c-21.126,5.979-42.338,10.161-63.885,13.013
		c19.827-1.012,45.311,5.044,69.53,12.361c28.076,8.478,69.436,28.227,78.995,33.056c15.164-11.639,55.071-17.142,69.999-16.471
		c-5.416-11.702-18.259-34.227-27.53-46.241C604.902,213.068,588.996,201.09,567.144,199.09z"/>
	<path fill="#4773C4" d="M605.22,210.092c14.163,11.866,37.424,48.733,44.849,66.33c7.885-1.35,16.086-6.7,22.038-10.474
		c8.05-5.105,16.21-11.993,25.399-15.144C673.792,234.38,630.025,216.243,605.22,210.092z"/>
	<path fill="#034EA6" d="M530.721,282.34c-10.923-5.306-21.893-10.759-33.335-14.878c-16.458-5.922-33.355-10.368-50.225-14.91
		c15.266,2.276,32.732,6.423,46.349,10.931c26.901,8.906,53.487,20.941,72.43,29.807c-0.577,0.084-3.798,0.58-8.489,1.297
		C549.059,289.718,539.26,286.492,530.721,282.34z"/>
	<path fill="#034EA6" d="M491.78,284.489c9.589,4.867,19.143,9.895,28.186,15.695c-7.273,1.04-13.388,1.864-16.364,2.154
		c-4.49-5.871-29.89-22.609-54.502-35.94C464.133,268.881,478.494,277.744,491.78,284.489z"/>
	<path fill="#034EA6" d="M640.501,276.266c-11.13-29.625-32.345-55.971-58.708-74.096c14.619,4.932,26.231,14.947,36.208,27.872
		c9.271,12.014,22.114,34.54,27.53,46.241C644.078,276.217,642.382,276.214,640.501,276.266z"/>
	<path fill="#034EA6" d="M428.198,247.305c-0.104-0.032-0.209-0.063-0.314-0.093c16.412-2.201,32.636-5.18,48.772-9.142
		c38.532,5.345,74.222,26.307,105.241,50.822c-2.407,1.204-4.571,2.486-6.365,3.862c-9.559-4.829-50.92-24.578-78.995-33.056
		C472.795,252.526,447.852,246.583,428.198,247.305z"/>
	<path fill="#034EA6" d="M664.268,270.747c-4.464,2.535-9.388,4.852-14.199,5.675c-7.425-17.597-30.686-54.464-44.849-66.33
		c6.29,1.56,13.805,3.894,21.899,6.77C642.83,232.006,654.987,251.01,664.268,270.747z"/>
	<path fill="#E6F5FF" d="M700.758,254.307c-10.731,3.121-21.01,13.037-30.538,18.585c-3.88,2.257-10.263,5.64-16.264,6.838
		c2.109,1.236,9.047,7.369,10.008,8.275c10.566,1.275,22.864-1.477,28.054-3.053c4.744-1.441,15.661-4.231,20.943-8.604
		C712.154,267.507,705.532,257.238,700.758,254.307z"/>
	<path fill="#C6E8FF" d="M508.088,329.029c5.051,0.722,40.772-6.133,54.38-12.336c-0.493,1.18-0.979,2.372-1.458,3.588
		c-11.703,8.887-42.694,18.854-63.618,14.623c-4.865-6.822-10.167-19.072-12.234-25.025c0.053-0.003,0.118-0.009,0.172-0.01
		C492.572,317.483,504.84,328.568,508.088,329.029z"/>
	<path fill="#C6E8FF" d="M672.174,284.101c8.402-0.668,15.789-4.92,23.456-8.042c5.253-2.14,10.542-4.194,15.825-6.257
		c0.769,2.182,1.311,4.406,1.506,6.547c-5.282,4.373-16.199,7.163-20.943,8.604c-5.19,1.575-17.489,4.327-28.054,3.053
		c-0.961-0.906-7.898-7.039-10.008-8.275c1.542-0.308,3.109-0.762,4.653-1.303C662.547,281.954,666.976,284.517,672.174,284.101z"/>
	<path fill="#595959" d="M652.46,433.943c2.558-0.977,4.873-3.357,6.6-5.137c3.081-3.17,5.463-6.932,7.454-10.861
		c0.136-0.267,0.582-0.082,0.483,0.198c-1.854,5.282-4.638,10.667-8.443,14.827c1.197-0.297,2.509-0.661,3.895-1.065
		c0.577-0.407,1.146-0.829,1.689-1.29c1.823-1.547,3.373-3.315,4.818-5.208c3.094-4.051,5.076-9.173,5.639-14.219
		c0.042-0.371,0.58-0.367,0.585,0.016c0.065,5.651-1.436,10.661-4.274,15.567c-0.566,0.981-1.267,2.053-2.063,3.124
		c1.699-0.572,3.428-1.175,5.135-1.797c2.051-2.04,3.487-4.673,4.693-7.268c1.997-4.29,3.057-9.21,3.981-13.831
		c0.095-0.481,0.809-0.442,0.769,0.063c-0.398,5.224-1.761,13.46-5.181,19.436c0.351-0.136,0.697-0.275,1.041-0.409
		c1.432-1.339,2.822-2.734,3.949-4.455c3.019-4.616,5.115-10.591,7.114-15.779c0.143-0.372,0.718-0.208,0.596,0.178
		c-1.576,4.997-2.896,12.076-5.86,17.609c0.204-0.093,0.397-0.185,0.594-0.276c2.363-2.198,4.608-4.505,6.41-7.476
		c3.011-4.958,4.706-10.917,5.874-16.55c0.068-0.337,0.622-0.245,0.591,0.096c-0.482,5.119-1.987,11.959-4.793,17.964
		c5.603-7.481,9.594-20.859,9.463-27.186c-2.478,1.073-29.23,12.446-40.466,17.245c0.632,9.287-4.015,17.027-13.159,20.308
		c-4.386,1.575-10.771,1.818-15.821,0.787C638.742,431.726,645.905,433.787,652.46,433.943z"/>
	<path fill="#717171" d="M647.332,425.106c8.687-1.771,12.586-9.21,13.655-17.142c-1.748,0.745-3.497,1.497-5.242,2.24
		c-0.363,5.011-3.614,9.451-8.527,11.088c-3.672,1.222-9.5,1.549-14.036-1.607c-0.619,0.252-3.716,1.523-4.336,1.775
		C633.378,425.204,640.082,426.584,647.332,425.106z"/>
	<path fill="#646464" d="M637.009,425.175c-3.115-0.633-5.916-1.858-8.163-3.715c0.62-0.252,3.717-1.523,4.336-1.775
		c1.971,1.371,4.182,2.07,6.353,2.332C638.647,423.014,637.803,424.073,637.009,425.175z"/>
	<path fill="#646464" d="M654.029,415.714c0.97-1.656,1.573-3.537,1.716-5.511c1.746-0.743,3.494-1.495,5.242-2.24
		c-0.472,3.5-1.51,6.894-3.255,9.756C656.509,416.748,655.268,416.092,654.029,415.714z"/>
	<path fill="#383838" d="M653.44,411.188c-1.796,0.769-13.247,5.878-16.708,7.315C644.223,422.248,651.716,416.922,653.44,411.188z"
		/>
	<path fill="#919191" d="M566.217,437.798c27.774-8.663,54.872-18.878,81.632-30.298c12.355-5.273,23.353-9.387,35.611-14.763
		c8.82-3.866,25.484-10.107,29.521-14.127c-2.962-1.785-12.262-6.827-14.575-6.516c-2.314,0.313-24.351,10.271-36.129,15.266
		c-12.484,5.292-25.436,10.749-38.071,15.674c-19.609,7.645-41.604,15.076-60.572,19.795c-1.49,4.012-5.461,15.826-6.35,17.656
		C560.284,439.628,563.264,438.719,566.217,437.798z"/>
	<path fill="#919191" d="M554.324,441.551c0.832-2.754,6.133-14.815,7.871-18.406c-1.357,0.287-4.408,1.032-5.399,1.203
		c-0.99,0.168-6.531,11.193-8.494,18.602C549.914,442.733,552.28,442.198,554.324,441.551z"/>
	<path fill="#595959" d="M482.854,481.635c0.951-0.357,1.884-0.757,2.771-1.268c2.56-1.481,4.627-3.713,6.532-5.934
		c5.247-6.116,8.092-14.841,11.481-22.1c0.159-0.337,0.682-0.073,0.577,0.264c-2.669,8.789-5.273,17.207-10.71,24.802
		c-0.651,0.906-1.464,1.871-2.4,2.825c0.045-0.009,0.093-0.016,0.139-0.025c2.092-1.311,3.986-2.986,5.748-4.663
		c6.297-5.992,9.813-14.995,12.217-23.143c0.113-0.386,0.701-0.262,0.679,0.129c-0.525,9.514-4.303,17.988-10.575,25.144
		c-0.354,0.404-0.748,0.822-1.16,1.245c1.215-0.231,2.454-0.474,3.7-0.719c1.488-1.184,2.95-2.406,4.288-3.776
		c5.434-5.574,7.646-13.205,10.106-20.347c0.163-0.472,0.81-0.259,0.802,0.189c-0.125,7.086-3.269,15.997-8.504,22.567
		c1.207-0.254,2.393-0.511,3.553-0.764c1.3-1.159,2.565-2.367,3.651-3.783c4.016-5.231,5.227-12.139,8.693-17.744
		c0.199-0.324,0.654-0.077,0.578,0.264c-1.25,5.63-3.484,13.878-7.492,20.011c1.31-0.32,2.519-0.631,3.623-0.932
		c0.857-0.771,1.696-1.56,2.423-2.439c3.913-4.708,5.868-10.945,7.881-16.613c0.143-0.407,0.768-0.276,0.732,0.152
		c-0.465,5.654-1.914,11.198-5.036,16.008c-0.24,0.369-0.492,0.754-0.754,1.142c0.005-0.002,0.014-0.005,0.018-0.007
		c0.858-0.435,1.815-1.026,2.815-1.727c1.354-1.775,2.792-3.5,4.005-5.352c2.094-3.196,3.637-6.923,4.509-10.631
		c0.126-0.535,0.897-0.47,0.863,0.1c-0.194,3.137-0.969,6.409-2.241,9.513c3.545-3.932,6.468-8.605,6.814-12.861
		c-25.483,3.355-37.502-1.712-41.631-9.24c-0.971,12.869-8.333,30.697-20.264,39.935
		C481.63,481.818,482.176,481.738,482.854,481.635z"/>
	<path fill="#717171" d="M420.073,432.364c4.185,18.499,17.846,60.317,52.117,50.815c13.956-3.869,25.084-27.454,27.131-43.738
		c0.004-0.045,0.023-0.084,0.038-0.121c-1.368-0.385-4.33-1.058-5.592-3.016c1.796-17.459,0.885-37.71-5.4-53.605
		c-4.6-11.635-10.993-23.265-19.376-32.933c-7.524-4.14-17.525-5.301-25.117-3.692c-11.826,2.509-18.975,14.195-22.755,24.713
		C414.216,389.993,415.653,412.83,420.073,432.364z"/>
	<path fill="#646464" d="M429.558,427.392c0.144,0.201,0.298,0.4,0.476,0.603c0.008,0.011,0.018,0.016,0.026,0.025
		c1.399,2.336,2.95,4.574,4.485,6.829c3.072,6.135,6.333,12.156,10.318,17.795c1.457,2.063,3.561,2.778,5.571,2.614
		c2.18,1.588,4.549,2.734,7.099,3.257c15.248,3.117,22.805-13.474,25.929-26.676c0.174-0.362,0.346-0.726,0.534-1.086l0.313-0.463
		c-0.019-0.01-0.038-0.019-0.059-0.028c0.24-0.462,0.471-0.927,0.664-1.406c0.031-0.077,0.035-0.147,0.062-0.222
		c0.333-0.042,0.66-0.122,0.96-0.271c1.058,0.514,2.57,0.292,3.397-0.678c-0.017,1.084-0.038,2.171-0.066,3.257
		c-0.448,0.294-0.79,0.78-0.909,1.514c-0.874,5.46-1.858,10.901-2.762,16.345c-2.887,11.084-8.043,23.485-17.633,27.828
		c-15.544,5.105-28.743-12.883-36.893-30.821c-1.311-6.887-2.295-13.827-2.879-20.865c0.107,0.355,0.206,0.708,0.317,1.058
		C428.716,426.654,429.098,427.103,429.558,427.392z"/>
	<path fill="#646464" d="M421.119,370.786c3.78-10.518,10.929-22.204,22.755-24.713c7.592-1.608,17.593-0.448,25.117,3.692
		c8.382,9.668,14.776,21.298,19.376,32.933c5.381,13.609,6.814,30.403,5.992,45.909c-0.007,0.005-0.014,0.009-0.02,0.012
		c0.294-17.419-0.946-34.713-9.202-50.105c-5.886-15.453-16.984-27.88-35.995-27.096c-4.532,0.187-8.417,2.21-11.661,5.187
		c-11.169,8.787-17.43,27.3-19.413,39.15c-0.662,3.962-1.164,7.965-1.51,11.992C415.855,395.117,416.981,382.301,421.119,370.786z"
		/>
	<path fill="#383838" d="M407.232,432.018c0.42-0.31,4.598-6.609,6.805-6.974c-3.569-21.476-2.824-45.957,7.185-65.015
		c5.118-9.747,16.791-24.644,41.516-17.581c-16.654-17.66-39.885-14.343-51.258,0.437
		C392.598,367.426,400.234,403.35,407.232,432.018z"/>
	<path fill="#919191" d="M397.897,435.296c2.271,1.012,5.046,1.012,7.063,0.254c-6.054-19.677-16.904-66.609-0.629-91.556
		c10.584-16.224,29.393-23.087,47.496-14.142c17.905,8.848,30.192,27.216,37.822,45.042c7.453,17.406,11.416,42.743,7.547,58.56
		c1.331,1.518,3.777,2.177,5.178,2.012c5.49-27.543,0.129-55.7-12.349-78.837c-13.244-24.555-38.63-46.208-68.327-39.39
		c-23.122,5.31-29.788,31.279-31.24,51.794C388.875,391.369,391.269,413.929,397.897,435.296z"/>
	<path fill="#595959" d="M197.61,376.863c4.965-1.538,8.833-5.951,11.407-10.24c0.24-0.402,0.87-0.047,0.712,0.374
		c-1.703,4.505-4.443,8.91-8.384,11.784c0.78,0.11,1.593,0.222,2.417,0.339c0.673-0.355,1.34-0.747,1.989-1.206
		c3.673-2.596,6.138-6.675,8.187-10.6c0.088-0.166,0.371-0.058,0.344,0.122c-0.634,4.217-3.369,8.979-7.114,12.165
		c0.876,0.122,1.757,0.247,2.63,0.367c1.202-0.65,2.229-1.521,3.212-2.726c2.263-2.771,3.419-6.289,5.649-9.051
		c0.142-0.177,0.412-0.061,0.397,0.159c-0.267,4.052-2.963,8.397-5.613,11.375c-0.212,0.236-0.437,0.444-0.663,0.65
		c0.705,0.098,1.394,0.19,2.068,0.28c1.104-0.747,2.125-1.622,3.056-2.556c2.44-2.446,3.918-5.602,5.865-8.406
		c0.097-0.14,0.35-0.074,0.329,0.112c-0.402,3.38-2.173,6.289-4.334,8.862c-0.623,0.739-1.402,1.554-2.277,2.33
		c0.737,0.093,1.432,0.177,2.084,0.255c0.867-0.481,1.716-0.993,2.504-1.619c2.802-2.229,5.208-4.815,7.605-7.448
		c0.173-0.187,0.53-0.073,0.526,0.194c-0.071,3.467-3.871,6.079-6.198,8.226c-0.357,0.329-0.737,0.659-1.128,0.986
		c0.512,0.037,0.932,0.06,1.219,0.056c3.256-0.04,11.064-6.429,12.875-9.544c-9.097-2.972-22.614-7.953-28.604-10.369
		c-0.948,2.568-6.069,11.504-12.587,15.527C196.398,377.166,197.011,377.049,197.61,376.863z"/>
	<path fill="#444444" d="M684.447,418.298c0.299-0.147,0.608-0.267,0.906-0.42c-0.66,1.311-1.357,2.584-2.122,3.755
		c-1.127,1.72-2.517,3.115-3.949,4.455c-0.344,0.135-0.69,0.273-1.041,0.409c1.07-1.871,1.903-3.972,2.6-6.126
		C682.082,419.76,683.284,419.068,684.447,418.298z"/>
	<path fill="#444444" d="M689.61,415.492c0.6-0.372,0.892-0.897,0.967-1.439c0.068-0.091,0.144-0.175,0.204-0.267
		c0.156-0.145,0.34-0.271,0.491-0.421c2.407-2.406,2.534-5.628-0.529-6.665c0.065-0.22,0.13-0.455,0.197-0.666
		c0.122-0.386-0.453-0.551-0.596-0.178c-0.085,0.22-0.17,0.446-0.255,0.67c-0.265-0.056-0.546-0.101-0.848-0.128
		c-7.734-0.692-14.747,2.056-21.826,4.673c-1.812,0.559-3.489,1.103-4.883,1.565c0.265-1.654,0.343-3.385,0.222-5.175
		c11.236-4.799,37.987-16.172,40.466-17.245c0.131,6.327-3.859,19.705-9.463,27.186c2.806-6.005,4.31-12.845,4.793-17.964
		c0.031-0.341-0.523-0.434-0.591-0.096c-1.168,5.633-2.863,11.591-5.874,16.55c-1.803,2.97-4.047,5.278-6.41,7.476
		c-0.198,0.091-0.39,0.184-0.594,0.276c1.197-2.231,2.115-4.715,2.9-7.21C688.521,416.118,689.074,415.824,689.61,415.492z"/>
	<path fill="#444444" d="M669.766,424.208c-0.263,0.404-0.517,0.816-0.809,1.199c-1.445,1.893-2.996,3.661-4.818,5.208
		c-0.543,0.462-1.112,0.883-1.689,1.29c-1.387,0.404-2.699,0.767-3.895,1.065c2.002-2.187,3.677-4.733,5.117-7.406
		C665.705,425.145,667.745,424.704,669.766,424.208z"/>
	<path fill="#444444" d="M657.592,426.839c1.262-0.28,2.538-0.546,3.823-0.811c-0.74,0.963-1.505,1.904-2.355,2.778
		c-1.727,1.78-4.042,4.159-6.6,5.137c-5.325-0.126-11.022-1.533-15.643-3.75C643.791,429.54,650.707,428.365,657.592,426.839z"/>
	<path fill="#444444" d="M672.522,423.48c1.986-0.561,3.937-1.215,5.827-1.993c-1.142,2.376-2.494,4.743-4.37,6.61
		c-1.707,0.622-3.436,1.226-5.135,1.797c0.796-1.072,1.498-2.143,2.063-3.124C671.534,425.687,672.047,424.587,672.522,423.48z"/>
	<path fill="#444444" d="M527.969,464.059c-1.179,2.651-2.569,5.187-4.394,7.382c-0.727,0.879-1.566,1.668-2.423,2.439
		c-1.104,0.301-2.313,0.612-3.623,0.932c1.796-2.748,3.22-5.922,4.374-9.095C523.947,465.267,525.968,464.715,527.969,464.059z"/>
	<path fill="#444444" d="M530.727,463.071c1.24-0.483,2.47-0.998,3.688-1.588c1.442-0.698,1.303-2.899,0-3.633
		c-0.775-0.441-1.587-0.792-2.413-1.112c0.069-0.586,0.135-1.17,0.184-1.759c0.037-0.428-0.588-0.559-0.732-0.152
		c-0.177,0.498-0.355,1.003-0.532,1.51c-1.922-0.622-3.942-0.988-5.976-1.225c0.022-0.1,0.051-0.213,0.073-0.313
		c0.076-0.341-0.378-0.587-0.578-0.264c-0.099,0.163-0.183,0.334-0.279,0.498c-1.65-0.166-3.301-0.269-4.914-0.364
		c-0.739-0.044-1.479-0.095-2.219-0.136c0.002-0.091,0.017-0.185,0.018-0.274c0.007-0.448-0.639-0.661-0.802-0.189
		c-0.045,0.135-0.093,0.271-0.138,0.406c-2.126-0.124-4.251-0.255-6.374-0.392c0.049-0.519,0.125-1.033,0.153-1.561
		c0.022-0.392-0.566-0.516-0.679-0.129c-0.158,0.537-0.336,1.084-0.504,1.628c-1.608-0.102-3.216-0.219-4.824-0.33
		c0.112-0.365,0.223-0.727,0.334-1.094c0.105-0.337-0.418-0.602-0.577-0.264c-0.197,0.423-0.39,0.865-0.584,1.297
		c-1.243-0.086-2.484-0.177-3.728-0.269c1.192-4,1.956-7.906,2.222-11.437c4.129,7.528,16.148,12.595,41.631,9.24
		c-0.346,4.256-3.269,8.929-6.814,12.861c1.272-3.103,2.047-6.376,2.241-9.513c0.034-0.57-0.737-0.635-0.863-0.1
		c-0.872,3.708-2.415,7.436-4.509,10.631c-1.213,1.852-2.651,3.577-4.005,5.352c-1,0.701-1.957,1.292-2.815,1.727
		c-0.004,0.002-0.012,0.005-0.018,0.007c0.261-0.388,0.513-0.773,0.754-1.142C528.757,468.514,529.914,465.846,530.727,463.071z"/>
	<path fill="#444444" d="M519.153,466.271c-0.938,2.122-1.994,4.172-3.404,6.009c-1.086,1.416-2.351,2.624-3.651,3.783
		c-1.16,0.254-2.345,0.511-3.553,0.764c2.328-2.923,4.214-6.313,5.635-9.798C515.846,466.816,517.506,466.571,519.153,466.271z"/>
	<path fill="#444444" d="M492.528,468.802c1.218-0.105,2.437-0.196,3.656-0.287c-1.192,2.124-2.501,4.14-4.027,5.918
		c-1.905,2.22-3.972,4.453-6.532,5.934c-0.887,0.511-1.82,0.911-2.771,1.268c-0.678,0.103-1.224,0.184-1.569,0.224
		C485.687,478.449,489.462,473.869,492.528,468.802z"/>
	<path fill="#444444" d="M498.658,468.344c1.375-0.093,2.748-0.184,4.119-0.276c-1.623,2.757-3.519,5.313-5.785,7.469
		c-1.762,1.677-3.656,3.351-5.748,4.663c-0.046,0.009-0.094,0.016-0.139,0.025c0.936-0.955,1.749-1.92,2.4-2.825
		C495.584,474.493,497.246,471.467,498.658,468.344z"/>
	<path fill="#444444" d="M505.864,467.846c1.747-0.131,3.491-0.282,5.227-0.46c-1.317,2.544-2.905,4.934-4.949,7.032
		c-1.338,1.371-2.8,2.593-4.288,3.776c-1.247,0.245-2.485,0.488-3.7,0.719c0.412-0.423,0.806-0.841,1.16-1.245
		C501.976,474.629,504.158,471.339,505.864,467.846z"/>
	<path fill="#444444" d="M216.2,376.056c0.986,0.201,1.972,0.4,2.96,0.598c-0.392,0.502-0.803,0.991-1.256,1.446
		c-0.931,0.934-1.952,1.809-3.056,2.556c-0.674-0.089-1.364-0.182-2.068-0.28c0.226-0.206,0.45-0.414,0.663-0.65
		C214.395,378.655,215.35,377.403,216.2,376.056z"/>
	<path fill="#444444" d="M219.763,378.668c0.444-0.53,0.861-1.081,1.261-1.642c1.092,0.22,2.182,0.444,3.272,0.666
		c-0.718,0.67-1.447,1.325-2.222,1.942c-0.788,0.626-1.637,1.138-2.504,1.619c-0.652-0.079-1.347-0.163-2.084-0.255
		C218.361,380.222,219.139,379.407,219.763,378.668z"/>
	<path fill="#444444" d="M226.718,378.181c1.714,0.302,2.76-1.329,2.515-2.635c0.002-0.082,0.008-0.166,0.002-0.248
		c0.562-0.902,0.949-1.867,0.971-2.918c0.003-0.267-0.353-0.381-0.526-0.194c-0.477,0.526-0.967,1.035-1.451,1.551
		c-0.141-0.074-0.296-0.14-0.469-0.189c-0.745-0.212-1.464-0.493-2.174-0.804c-0.031-0.011-0.05-0.032-0.084-0.044
		c-0.012-0.004-0.023-0.005-0.034-0.009c-0.606-0.269-1.202-0.566-1.791-0.886c0.188-0.65,0.34-1.315,0.421-2
		c0.021-0.185-0.232-0.252-0.329-0.112c-0.36,0.517-0.693,1.054-1.029,1.587c-1.268-0.745-2.511-1.556-3.755-2.346
		c0.027-0.196,0.058-0.39,0.071-0.584c0.015-0.22-0.255-0.336-0.397-0.159c-0.096,0.119-0.171,0.25-0.263,0.371
		c-0.875-0.547-1.753-1.073-2.647-1.542c-2.63-1.378-5.285-2.706-7.914-4.084c0.227-0.472,0.421-0.895,0.535-1.201
		c5.991,2.416,19.508,7.397,28.604,10.369c-1.811,3.116-9.618,9.504-12.875,9.544c-0.287,0.004-0.706-0.019-1.219-0.056
		c0.391-0.327,0.771-0.657,1.128-0.986C224.809,379.867,225.78,379.05,226.718,378.181z"/>
	<path fill="#444444" d="M201.217,372.589c0.814,0.225,1.626,0.458,2.445,0.668c-1.78,1.607-3.798,2.907-6.053,3.607
		c-0.599,0.185-1.212,0.303-1.828,0.399C197.747,376.049,199.583,374.388,201.217,372.589z"/>
	<path fill="#444444" d="M211.178,375.005c0.994,0.215,1.989,0.428,2.984,0.633c-0.354,0.554-0.733,1.093-1.153,1.605
		c-0.983,1.204-2.01,2.075-3.212,2.726c-0.873-0.121-1.754-0.245-2.63-0.367C208.709,378.29,210.06,376.704,211.178,375.005z"/>
	<path fill="#444444" d="M206.093,373.846c1.057,0.254,2.115,0.503,3.177,0.741c-1.046,1.248-2.196,2.392-3.52,3.327
		c-0.649,0.46-1.316,0.851-1.989,1.206c-0.824-0.117-1.637-0.229-2.417-0.339C203.197,377.43,204.759,375.725,206.093,373.846z"/>
	<path fill="#717171" d="M150.88,331.391c1.952,10.646,4.614,20.407,10.508,31.062c4.01,7.245,12.735,13.653,21.252,13.653
		c8.52,0,24.432-10.988,25.198-33.356c0.684-19.971-2.948-36.063-5.142-42.768c-3.373-10.291-8.695-21.116-15.084-26.615
		c-6.389-5.498-15.684-7.549-23.463-2.334c-8.106,5.435-11.796,16.478-13.557,25.524C148.75,306.018,148.93,320.742,150.88,331.391z
		"/>
	<path fill="#646464" d="M170.881,350.64c4.618,3.649,10.285,6.352,16.061,3.463c3.221-1.614,5.354-4.423,6.841-7.624
		c1.386-1.238,2.559-2.825,3.471-4.738c1.78,21.093-2.771,39.044-23.548,32.136c-0.174-0.056-0.33-0.133-0.5-0.192
		c-4.978-2.516-9.316-6.71-11.818-11.231c-1.453-2.628-2.708-5.201-3.806-7.749c-1.876-7.719-1.759-16.695-0.792-25.297
		C159.644,337.713,164.748,345.794,170.881,350.64z"/>
	<path fill="#646464" d="M205.28,312.805c-2.243-12.069-7.477-25.59-16.094-33.718c-11.21-10.57-25.018-6.451-32.742,6.238
		c-2.695,4.43-4.784,9.434-6.408,14.723c0.159-1.224,0.343-2.393,0.556-3.49c1.761-9.046,5.451-20.088,13.557-25.524
		c7.778-5.215,17.073-3.164,23.463,2.334c6.388,5.499,11.711,16.324,15.084,26.615c1.178,3.603,2.768,9.929,3.883,18.095
		C206.183,316.308,205.75,314.549,205.28,312.805z"/>
	<path fill="#383838" d="M143.958,337.424c1.42,0,3.55-1.421,4.627-2.656c-2.321-12.96-3.207-30.349,1.114-47.088
		c2.619-10.149,9.7-26.91,30.638-21.943c-8.695-9.759-24.493-6.607-30.875,6.033C140.236,290.048,141.903,316.219,143.958,337.424z"
		/>
	<path fill="#232623" d="M433.871,345.421c-9.51-0.725-19.124,1.387-28.016,6.631c1.537-3.194,3.39-6.262,5.625-9.168
		c11.373-14.78,34.605-18.097,51.258-0.437C449.895,338.778,440.581,341.04,433.871,345.421z"/>
	<path fill="#232623" d="M157.254,272.013c-2.215-0.948-4.588-1.528-6.937-1.724c6.833-11.368,21.68-13.91,30.02-4.551
		C169.185,263.091,161.964,266.612,157.254,272.013z"/>
	<path fill="#919191" d="M134.162,333.304c0.216,1.633,3.798,3.988,6.07,4.297c-1.595-22.712-3.195-52.698,5.857-68.667
		c7.487-13.214,20.983-15.583,32.202-9.488c13.141,7.135,21.798,19.947,27.246,36.465c7.192,21.8,7.917,43.935,5.185,61.125
		c1.705,0.906,5.351,1.93,7.644,2.767c1.462-11.731,0.229-44.839-7.336-68.316c-5.157-16.004-15.447-33.147-29.857-41.979
		c-20.358-12.476-37.12,1.988-43.573,20.973C130.94,290.078,133.947,331.669,134.162,333.304z"/>
	<path fill="#4773C4" d="M136.16,261.355c8.122-17.314,25.639-27.186,43.477-18.169c16.002,8.089,28.144,26.873,34.144,43.14
		c8.517,23.087,10.492,56.417,8.517,74.7c12.471,4.437,23.99,8.063,36.377,12.763c15.857,6.014,31.543,12.478,47.129,19.171
		c15.245,6.551,69.134,31.989,86.795,39.559c-5.785-20.317-7.504-41.04-6.632-62.104c0.82-19.863,6.193-43.024,24.835-53.553
		c21.453-12.118,48.777-1.815,65.095,13.934c19.724,19.039,30.277,47.156,32.475,74.047c0.895,10.939-0.507,21.777-2.206,32.949
		c5.58,7.831,19.879,8.093,27.182,7.493c3.056-0.25,6.985-0.603,10.01-1.154c2.796-8.063,9.737-22.377,11.505-22.793
		c1.768-0.42,29.354-7.528,43.009-12.305c11.004-3.843,22.124-7.483,33.01-11.651c10.961-4.198,21.778-8.789,32.581-13.38
		c11.125-4.724,32.225-14.56,35.036-14.202c2.812,0.357,11.844,4.443,16.47,7.21c1.721-1.486,3.296-3.11,4.644-4.93
		c7.704-10.399,3.336-25.747,1.49-37.318c-2.9-18.191-6.241-35.986-7.045-54.41c-5.464,4.556-15.847,8.561-24.974,10.618
		c-5.982,1.346-13.293,0.921-21.29,0.678c4.734,3.095,11.072,7.103,8.297,10.64c-6.284,8.018-35.217,21.13-58.695,29.127
		c-28.387,9.67-50.652,11.722-55.858,8.257c-2.563-1.706-2.616-10.981-1.292-15.885c-8.32,8.196-18.493,11.894-30.115,14.532
		c-13.112,2.979-31.295,4.014-36.086,1.247c-5.2-7.805-14.087-26.657-16.469-34.891c6.872-0.189,13.428-1.206,20.227-1.836
		c-18.924-15.641-70.14-44.404-99.408-52.73c-5.297-33.809-17.405-88.058-40.112-118.082c21.422-2.243,94.714-7.338,107.028-6.294
		c-9.049-3.371-26.484-7.913-36.553-10.114c-26.792-5.855-48.651-9.315-75.025-13.205c-24.733-3.645-49.527-7.13-74.548-7.158
		c-37.627-0.043-65.487,3.863-74.895,6.524c-3.639,1.03-33.513,27.103-51.055,41.281c-7.318,5.915-14.493,11.836-22.756,16.342
		c-4.193,2.289-13.491,3.588-11.716,9.443c1.337,4.409,3.195,9.759,4.081,10.469c0.886,0.712,28.652,13.745,28.745,14.906
		c0.095,1.159-0.434,16.995-0.892,17.202c-10.644,4.799-29.805,17.219-37.081,23.964c-1.064,10.116-1.418,20.583-0.942,31.758
		c0.002,0.023-0.004,0.04-0.006,0.059c5.032,2.434,12.661,6.513,18.338,9.354C132.111,271.114,133.74,266.514,136.16,261.355z"/>
	<path fill="#034EA6" d="M534.151,358.048c8.13,4.329,21.626,7.058,30.422,7.78c7.889,0.647,15.529,2.497,23.518,1.998
		c9.188-0.573,18.793-1.591,27.742-3.796c18.055-4.45,36.62-10.854,52.131-21.246c7.218-4.836,15.976-9.555,22.66-15.854
		c-8.451,11.735-18.587,22.543-26.423,34.46c-8.45,12.845-16.845,24.627-28.06,33.928c-1.751,0.692-3.5,1.392-5.26,2.065
		c-10.886,4.168-22.006,7.808-33.01,11.651c-5.596,1.958-13.533,4.306-21.073,6.425
		C527.228,393.679,531.912,361.917,534.151,358.048z"/>
	<path fill="#034EA6" d="M675.033,297.105c-1.818-1.939-4.747-3.825-7.242-5.455c7.997,0.243,15.308,0.668,21.29-0.678
		c9.127-2.056,19.51-6.062,24.974-10.618c0.107,2.46,0.265,4.906,0.456,7.345C703.143,294.153,688.598,296.872,675.033,297.105z"/>
	<path fill="#034EA6" d="M495.819,340.255c6.506,1.853,22.461,0.759,34.309-1.934c11.622-2.638,21.795-6.336,30.115-14.532
		c-1.324,4.904-1.271,14.179,1.292,15.885c5.206,3.465,27.471,1.413,55.858-8.257c17.692-6.026,38.477-14.957,50.338-22.422
		c-17.064,13.834-39.039,20.52-59.443,28.325c-10.667,4.077-21.631,8.112-32.995,9.707c-5.952,0.837-22.459,3.759-25.305-3.773
		c-0.548-1.449-1.933-1.906-3.134-1.675c-0.729-0.54-1.71-0.76-2.742-0.283c-8.937,4.124-18.343,3.474-27.902,3.841
		c-5.667,0.22-14.212,1.642-19.387-1.81C496.515,342.295,496.181,341.269,495.819,340.255z"/>
	<path fill="#034EA6" d="M553.019,423.465c-2.805,4.346-7.486,14.387-9.663,20.667c-1.365,0.25-2.92,0.453-4.491,0.628
		C541.534,436.018,545.279,427.39,553.019,423.465z"/>
	<path fill="#034EA6" d="M129.702,259.21c3.423-8.158,8.165-15.976,17.73-17.403c2.893-0.432,5.645-0.387,8.325-0.051
		c-8.283,3.269-15.272,10.38-19.597,19.599c-2.42,5.159-4.049,9.759-5.157,15.205c-1.782-0.892-3.763-1.909-5.791-2.956
		C126.296,268.635,127.783,263.787,129.702,259.21z"/>
	<path fill="#034EA6" d="M122.689,234.728c-3.286,2.448-6.521,4.944-9.652,7.556c0.157-2.318,0.337-4.624,0.576-6.895
		c7.276-6.745,26.437-19.165,37.081-23.964c0.397-0.18,0.845-12.065,0.897-16.002c0.687,0.398,1.367,0.816,2.051,1.222
		c0.055,6.161,0.232,12.319,0.324,18.474C142.699,220.065,132.515,227.403,122.689,234.728z"/>
	<path fill="#034EA6" d="M125.887,170.327c1.597,4.394,3.217,8.78,5.091,13.065c-4.397-2.152-7.835-3.832-8.138-4.075
		c-0.886-0.71-2.745-6.06-4.081-10.469c-0.233-0.773-0.27-1.462-0.155-2.089C121.144,167.75,123.601,168.902,125.887,170.327z"/>
	<path fill="#034EA6" d="M267.839,353.881c11.402,3.736,22.86,7.486,33.988,11.983c14.911,6.026,29.305,13.064,43.754,20.104
		c8.164,3.977,18.49,8.602,24.07,16.277c-1.685-0.364-3.403-0.616-5.089-0.832c-6.805-0.872-13.337-2.196-19.932-4.142
		c-14.794-4.371-28.983-10.188-43.447-15.488c-14.809-5.43-30.47-9.055-44.76-15.826c-5.741-2.72-11.702-5.581-16.967-9.166
		c-2.804-1.911-5.221-4.196-7.66-6.458C243.143,345.939,256.854,350.282,267.839,353.881z"/>
	<path fill="#034EA6" d="M266.804,95.391c3.995-0.088,8.12-0.138,12.378-0.133c25.021,0.029,49.816,3.513,74.548,7.158
		c20.256,2.99,37.856,5.726,57.066,9.485C363.354,113.545,317.965,107.223,266.804,95.391z"/>
	<path fill="#034EA6" d="M382.089,427.865c-3.476-17.195-5.321-34.813-3.347-52.166c1.858-16.331,7.545-34.362,18.991-46.838
		c-8.281,11.724-11.187,27.456-11.768,41.554c-0.871,21.064,0.847,41.787,6.632,62.104
		C389.869,431.35,386.271,429.752,382.089,427.865z"/>
	<path fill="#919191" d="M110.597,299.271c2.13,11.889,4.079,19.094,8.873,26.973c2.485,4.079,6.211,8.338,9.77,7.784
		c-0.361-10.798-1.546-36.126,1.058-52.771c-5.325-3.1-19.683-10.507-21.296-11.083
		C106.517,269.284,108.467,287.384,110.597,299.271z"/>
	<path fill="#7A7A7A" d="M685.673,377.201c6.463-2.792,11.673-4.962,12.733-5.107c2.313-0.311,11.613,4.731,14.575,6.516
		c-2.758,2.745-11.4,6.523-19.414,9.876C691.414,384.283,688.721,380.578,685.673,377.201z"/>
	<path fill="#7A7A7A" d="M563.634,422.828c6.835-1.7,14.067-3.761,21.433-6.048c-0.982,3.32-1.934,6.651-2.844,9.994
		c-0.702,2.163-1.381,4.332-2.044,6.502c-4.638,1.547-9.288,3.065-13.962,4.521c-2.953,0.921-5.933,1.83-8.932,2.687
		C558.173,438.654,562.145,426.841,563.634,422.828z"/>
	<path fill="#7A7A7A" d="M390.457,369.032c0.99-13.976,4.403-30.48,13.791-41.262c-6.124,9.817-9.686,21.555-10.748,32.793
		c-2.376,13.707-2.234,28.31-0.554,41.748c1.474,11.787,5.054,22.705,8.567,33.727c-1.228-0.023-2.479-0.236-3.615-0.743
		C391.269,413.929,388.875,391.369,390.457,369.032z"/>
	<path fill="#7A7A7A" d="M137.6,270.481c3.511-10.329,10.077-19.309,18.613-23.351c-10.477,8.336-15.318,24.296-16.808,38.313
		c-1.78,16.765-3.226,34.063-2.094,51.056c-1.599-0.906-3.016-2.187-3.149-3.196C133.947,331.669,130.94,290.078,137.6,270.481z"/>
	<path fill="#7A7A7A" d="M124.443,312.987c0.217-11.445,0.543-22.84,1.362-34.227c1.766,0.955,3.345,1.829,4.491,2.497
		c-2.604,16.646-1.419,41.974-1.058,52.771c-1.681,0.262-3.399-0.558-5.006-1.918C124.653,325.65,124.329,319.036,124.443,312.987z"
		/>
	<path d="M181.671,133.295c10.738-13.095,22.398-20.121,38.773-24.475c20.617-5.484,41.923-3.019,62.518,1.131
		c11.543,2.327,57.914,17.644,68.251,21.578c9.335,8.831,19.912,38.801,23.469,48.943c9.781,27.902,15.389,53.487,16.394,69.132
		c-4.538,19.429-16.395,96.378-15.64,157.688c-26.239-14.633-108.489-46.17-144.064-55.761c1.767-22.454-2.948-45.341-11.855-67.363
		c-9.084-22.454-27.249-40.619-40.093-45.598c0.732-13.691,5.526-50.021,9.311-63.898c-7.913-1.885-17.189-4.341-25.228-5.803
		C166.029,157.013,171.325,145.911,181.671,133.295z"/>
	<path fill="#CAE8F1" d="M230.429,112.022c-7.634,3.36-28.322,27.833-34.243,58.567c28.024,7.2,68.994,21.492,83.014,26.464
		c3.137-22.127,10.959-57.198,19.538-77.382C295.812,118.707,256.098,106.3,230.429,112.022z"/>
	<path fill="#CAE8F1" d="M348.694,135.563c-9.335-3.533-36.656-12.443-44.407-14.376c-7.567,18.669-16.147,55.504-19.579,77.842
		c17.109,6.117,74.333,32.662,100.569,45.526C381.747,212.512,367.334,164.106,348.694,135.563z"/>
	<path fill="#4773C4" d="M370.139,397.957c-1.908-24.038,6.057-116.566,14.887-148.354c-25.228-12.868-84.457-39.42-101.134-45.359
		c-1.416,9.256-2.637,18.539-3.621,27.854c-4.486,42.572-8.35,87.937,3.555,129.577
		C293.177,364.823,351.972,387.247,370.139,397.957z"/>
	<path fill="#4773C4" d="M184.446,235.728c14.634,6.056,30.651,25.122,38.854,43.9c9.589,21.95,14.54,42.558,12.868,66.356
		c11.354,2.775,31.284,9.586,42.004,13.721c-11.032-38.834-7.523-82.689-4.183-122.194c0.997-11.801,2.53-23.545,4.373-35.239
		c-27.774-9.834-56.307-19.281-84.833-26.34C189.53,192.076,185.289,224.091,184.446,235.728z"/>
	<path fill="#034EA6" d="M375.438,272.006c2.255-6.178,4.645-11.506,8.158-16.691c-7.653,33.402-14.26,108.263-13.709,136.93
		c-1.722-11.28-1.955-22.726-2.004-34.173c-0.058-13.611-0.552-27.235,0.225-40.836
		C368.977,302.012,370.169,286.442,375.438,272.006z"/>
	<path fill="#034EA6" d="M311.244,310.182c4.153,15.17-21.078,18.349-33.678,19.151c-1.759-15.56-1.961-31.386-1.326-47.178
		c5.415,3.327,11.042,6.315,16.363,9.799C298.995,296.141,309.056,302.184,311.244,310.182z"/>
	<path fill="#034EA6" d="M267.39,325.05c-3.096-15.256-4.097-30.856-3.469-46.404c0.996-24.706,4.606-49.502,13.848-72.431
		c-1.571,10.39-2.894,20.819-3.78,31.297c-3.122,36.919-6.383,77.638,2.207,114.506C272.698,343.212,269.285,334.377,267.39,325.05z
		"/>
	<path fill="#034EA6" d="M233.214,276.707c5.37,5.593,10.922,13.327,7.8,21.55c-1.634,4.301-4.465,7.464-7.945,9.85
		c-2.255-9.488-5.567-18.854-9.77-28.479c-2.637-6.035-6.088-12.097-10.034-17.751C220.584,265.974,227.496,270.756,233.214,276.707
		z"/>
	<path fill="#CAE8F1" d="M169.857,164.585c6.54,1.285,13.021,2.729,19.462,4.289c7.994-30.783,23.398-49.205,28.999-54.079
		C207.949,118.013,180.156,131.278,169.857,164.585z"/>
	<path fill="#DFF1F6" d="M456.327,237.919c-2.748,0.549-5.497,1.089-8.253,1.593c2.456-1.205,5.787-2.588,9.444-4.004
		C457.119,236.31,456.727,237.116,456.327,237.919z"/>
	<path fill="#DFF1F6" d="M470.84,130.865c2.981,0.058,5.073,0.191,6.01,0.407c4.444,1.04,13.509,4.294,24.903,10.233
		c-14.399,28.823-27,58.548-41.05,87.533c-10.084,3.712-19.323,8.004-20.739,11.885c-7.859,1.31-15.334,2.436-22.933,3.428
		C438.232,208.465,451.903,168.248,470.84,130.865z"/>
	<path fill="#DFF1F6" d="M267.084,192.81c-17.179-22.728-30.803-48.06-47.541-71.012c4.387-5.215,8.355-8.663,10.887-9.777
		c1.069-0.24,2.171-0.434,3.285-0.61c14.682,23.349,31.675,45.224,48.651,67.087c-1.307,6.703-2.381,13.03-3.165,18.555
		C276.24,196.004,272.071,194.534,267.084,192.81z"/>
	<path fill="#DFF1F6" d="M296.159,146.345c2.233-8.151,4.568-15.717,6.844-21.84c28.749,35.203,54.317,72.945,80.877,109.894
		c0.57,3.525,1.041,6.927,1.398,10.156c-6.59-3.233-15.139-7.325-24.514-11.743C337.823,205.089,317.574,175.247,296.159,146.345z"
		/>
	<path fill="#DFF1F6" d="M183.157,139.453c3.101-3.853,6.409-7.189,9.742-10.055c2.291,3.874,4.585,7.749,6.887,11.618
		c-2.135,4.221-4.213,8.923-6.124,14.074C190.236,149.829,186.733,144.618,183.157,139.453z"/>
	<path fill="#ABDCE8" d="M515.701,217.208c3.844-1.241,7.652-2.574,11.381-4.079c0.365-0.147,0.194-0.783-0.191-0.743
		c-3.168,0.332-6.344,0.783-9.521,1.288c7.254-15.572,13.564-31.631,20.007-47.663c10.343,9.817,23.902,24.428,26.019,28.942
		c-5.319,5.911-21.333,14.929-33.514,20.504c-6.121,2.801-11.564,5.046-16.734,6.971
		C514.012,220.694,514.866,218.955,515.701,217.208z"/>
	<path fill="#ABDCE8" d="M419.56,132.315c-9.988,18.266-17.899,37.961-30.184,54.743c-6.132-19.111-14.157-37.96-23.706-51.105
		C375.281,134.799,397.466,133.372,419.56,132.315z"/>
	<path fill="#ABDCE8" d="M263.019,111.739c17.967,2.348,33.906,7.334,35.719,7.932c-3.177,7.476-6.248,16.997-9.019,27.143
		C280.954,135.018,272.048,123.328,263.019,111.739z"/>
	<path fill="#ABDCE8" d="M236.879,182.68c-13.822-4.474-28.484-8.955-40.692-12.091c1.964-10.196,5.556-19.693,9.754-27.966
		C215.423,156.522,226.059,169.697,236.879,182.68z"/>
	<path fill="#ABDCE8" d="M303.708,186.32c8.172,10.42,16.287,20.884,24.39,31.36c-18.406-8.369-35.337-15.775-43.389-18.651
		c1.193-7.775,3.013-17.307,5.196-27.218C294.517,176.636,299.131,181.464,303.708,186.32z"/>
	<path fill="#ABDCE8" d="M321.057,126.218c10.328,3.292,22.12,7.254,27.637,9.345c10.367,15.875,19.42,37.893,26.026,59.824
		C357.611,171.766,340.408,147.98,321.057,126.218z"/>
	<path fill="#ABDCE8" d="M207.858,127.297c-1.435-1.867-2.881-3.731-4.332-5.588c5.992-3.637,11.356-5.848,14.793-6.915
		C216.054,116.767,212.186,120.972,207.858,127.297z"/>
	<path fill="#ABDCE8" d="M190.613,164.281c-0.445,1.505-0.886,3.019-1.294,4.593c-6.441-1.56-12.922-3.004-19.462-4.289
		c2.055-6.644,4.808-12.48,7.979-17.602C182.09,152.751,186.373,158.499,190.613,164.281z"/>
	<path d="M515.165,398.298c6.111,1.955,20.712,3.67,29.511,2.201c-0.525,3.88-2.274,8.184-3.38,11.376
		c-1.015,2.925-5.109,12.086-7.309,17.466c-3.913,0.734-15.316-0.229-19.31-1.224C514.953,418.795,514.92,407.587,515.165,398.298z"
		/>
	<path fill="#1A579E" d="M539.608,404.653c-5.865,0.733-14.686-0.163-21.177-1.834c-0.165,2.565-0.165,5.878,0.165,8.859
		c7.618-6.046,15.979,0.661,16.713,4.45C537.163,412.963,538.654,408.274,539.608,404.653z"/>
	<path fill="#E6F5FF" d="M531.829,424.64c3.078-6.011-1.368-10.931-5.351-11.593c-4.736-0.79-7.512,1.591-7.882,3.678
		c-0.389,2.205-0.303,5.194-0.331,7.203C522.868,424.83,527.46,425.021,531.829,424.64z"/>
	<path d="M716.939,331.938c1.174-0.297,3.194,19.197,1.886,25.589c-1.258,1.934-8.092,8.909-11.216,9.603
		c-4.503-7.796-10.244-17.413-12.734-21.303C699.223,342.571,712.756,333.001,716.939,331.938z"/>
	<path fill="#E6F5FF" d="M708.359,363.142c3.781-1.616,8.073-5.563,8.624-6.584c-0.039-2.045-0.097-4.206-0.79-5.313
		c-2.894-4.63-9.134-5.189-12.33,2.673C704.787,355.841,706.998,360.805,708.359,363.142z"/>
	<path fill="#C6E8FF" d="M532.817,420.673c0.01,1.238-0.272,2.568-0.988,3.967c-4.369,0.381-8.961,0.19-13.564-0.712
		c0.02-1.496-0.003-3.514,0.14-5.364C523.005,420.068,527.878,420.664,532.817,420.673z"/>
	<path fill="#C6E8FF" d="M716.066,351.07c0.04,0.061,0.087,0.114,0.126,0.175c0.693,1.107,0.752,3.268,0.79,5.313
		c-0.551,1.021-4.843,4.969-8.624,6.584c-0.585-1.004-1.322-2.49-2.051-4.011C709.874,356.854,713.161,354.198,716.066,351.07z"/>
	<path fill="#1A579E" d="M702.324,350.156c1.489-2.082,3.683-4.217,5.977-4.747c2.923-0.675,6.516,0.827,8.465,2.864
		c-0.193-4.691-0.953-9.018-1.607-11.446c-3.72,1.549-9.5,4.843-15.046,9.661C700.686,347.591,701.38,348.887,702.324,350.156z"/>
	<path d="M526.332,356.014c5.578-10.909,18.725-19.265,30.117-11.761c0.906,0.598,0.335,1.766-0.513,1.988
		c-5.167,1.357-10.713,3.579-14.436,6.549c6.012,4.554,20.036,9.836,36.188,11.004c20.034,1.446,37.362-0.276,58.529-7.726
		c13.781-4.85,27.534-10.668,38.614-20.219c5.588-4.813,18.271-16.179,24.656-30.657c-3.453-1.993-7.481-2.056-10.674-1.241
		c-1.18,0.301-1.805-1.205-0.978-2.406c5.382-7.815,15.044-4.969,20.149,0.624c4.611,5.047,7.956,11.638,6.028,18.487
		c-0.26,0.927-1.518,0.696-1.729-0.115c-1.133-4.327-3.616-9.369-8.246-13.292c-4.997,14.98-22.467,31.699-38.132,42.08
		c-8.734,12.506-15.966,23.936-26.948,34.792c-11.203,11.072-25.365,17.338-40.984,18.447c-13.863,0.984-29.813-2.336-40.695-11.074
		c-11.226-9.013-17.965-18.667-21.621-30.597c-3.449,5.74-4.723,14.663-3.42,26.064c0.143,1.247-1.899,1.694-2.653,0.989
		C522.374,381.206,521.95,364.581,526.332,356.014z"/>
	<path fill="#FFFFFF" d="M591.408,369.73c-12.204,0.547-32.24-2.733-43.17-6.376c9.838,12.205,24.774,15.485,42.504,16.2
		c20.141,0.815,48.025-10.369,55.988-14.378c4.023-4.918,7.958-9.833,12.379-14.38C640.589,362.445,616.63,368.601,591.408,369.73z"
		/>
	<path fill="#FFFFFF" d="M575.197,392.68c7.151,2.495,18.732,2.934,26.23,2.371c14.062-1.061,27.193-8.948,38.995-22.382
		c-15.315,7.808-33.891,15.331-51.563,13.82c-20.548-1.761-31.148-6.741-35.997-10.773
		C556.618,382.48,563.723,388.673,575.197,392.68z"/>
	<g>
		<path d="M287.404,237.102c0.507,0.07,3.09,0.949,3.115,0.956c2.526-3.581,6.286-3.897,9.956-2.567
			c4.617,1.671,7.907,5.665,7.716,10.396c1.832,1.105,4.346,2.729,4.449,3.117c0.702,2.624-0.224,10.541-0.904,10.504
			c-0.678-0.037-3.571-1.428-5.027-1.915c-2.562,3.28-7.356,3.998-11.146,2.642c-5.343-1.913-8.107-6.315-8.254-10.728
			c-1.042-0.493-2.766-1.259-3.202-1.691C283.402,247.124,286.398,236.959,287.404,237.102z"/>
		<path fill="#1A579E" d="M300.807,237.272c-4.117-1.908-6.247-0.97-8.111,1.318c1.287,0.458,13.172,5.885,14.828,6.909
			C307.002,241.751,304.255,238.868,300.807,237.272z"/>
		<path fill="#1A579E" d="M305.368,256.776c-4.801-1.593-10.352-3.738-14.877-5.92C291.865,258.932,301.632,259.677,305.368,256.776
			z"/>
		<path fill="#D2D2D2" d="M310.201,255.292c0.207-1.692,0.874-3.878,0.209-5.088c-0.664-1.206-20.13-9.565-20.98-9.612
			c-0.848-0.045-2.111,4.483-1.969,5C287.603,246.111,303.588,252.753,310.201,255.292z"/>
	</g>
	<g>
		<path d="M197.122,201.66c0.428,0.061,2.608,0.804,2.629,0.811c2.131-3.025,5.304-3.289,8.402-2.168
			c3.897,1.411,6.673,4.783,6.512,8.775c1.546,0.932,3.668,2.301,3.754,2.63c0.594,2.217-0.188,8.897-0.761,8.866
			c-0.573-0.03-3.012-1.206-4.242-1.617c-2.161,2.771-6.209,3.376-9.408,2.231c-4.507-1.614-6.84-5.329-6.965-9.053
			c-0.878-0.418-2.334-1.065-2.702-1.428C193.745,210.119,196.273,201.543,197.122,201.66z"/>
		<path fill="#1A579E" d="M208.434,201.807c-3.476-1.612-5.27-0.82-6.845,1.11c1.086,0.386,11.117,4.969,12.513,5.834
			C213.661,205.585,211.343,203.153,208.434,201.807z"/>
		<path fill="#1A579E" d="M212.283,218.267c-4.052-1.346-8.737-3.156-12.555-4.997C200.886,220.084,209.129,220.713,212.283,218.267
			z"/>
		<path fill="#D2D2D2" d="M216.361,217.012c0.174-1.427,0.739-3.271,0.177-4.29c-0.562-1.019-16.991-8.076-17.705-8.112
			c-0.716-0.038-1.783,3.78-1.664,4.219C197.291,209.265,210.781,214.872,216.361,217.012z"/>
	</g>
	<path d="M386.772,155.877c15.982-2.483,38.172-8.654,49.044-13.228c1.267-0.535,3.123,0.827,2.553,2.159
		c-1.647,3.857-4.448,6.635-7.88,8.798c2.823,0.15,5.645,0.67,8.253,1.428c8.674,2.525,17.457,8.266,24.056,15.474
		c-1.559-11.511,5.491-18.531,17.426-18.826c-8.018-3.1-13.76-4.234-22.527-5.077c-2.502-0.24-3.27-3.159-0.849-4.264
		c9.855-4.502,18.584-3.334,28.478,0.231c10.042,3.617,21.346,13.256,24.295,16.42c1.233,1.323-0.274,3.6-1.881,2.542
		c-4.201-2.762-9.944-5.707-14.905-6.839c18.276,9.287,26.372,23.326,20.593,38.953c6.054-2.671,15.01-2.96,12.306-1.364
		c-12.272,7.247-18.539,12.453-27.572,21.092c-0.962,0.92-3.239,0.056-2.906-1.369c0.653-2.803,3.065-6.436,4.629-8.628
		c-7.572,2.493-18.711-2.128-23.648-6.31c-0.102,5.964-2.912,11.146-9.016,14.188c3.54,0.96,6.945,2.331,10.218,4.306
		c0.937,0.566,0.143,1.71-0.774,1.587c-16.73-2.22-38.141-2.673-56.725,0.722c-1.466,0.269-2.321-2.072-0.894-2.881
		c5.743-3.261,12.349-4.642,19.116-5.215c-12.953-5.039-35.408-27.228-24.643-49.537c-8.349,2.332-18.568,4.103-25.881,0.095
		C385.946,159.412,384.554,156.221,386.772,155.877z"/>
	<path fill="#FFFFFF" d="M474.816,178.565c3.842,0,3.842-5.17,0-5.17S470.974,178.565,474.816,178.565z"/>
	<path fill="#FFFFFF" d="M487.089,172.131c9.659,5.89,11.748,23.097-5.485,20.835c24.545,13.584,29.807-7.885,25.067-18.343
		c-4.742-10.458-15.124-17.373-24.543-17.662c-14.884-0.453-15.406,9.282-12.533,14.945
		C470.898,168.508,477.428,166.243,487.089,172.131z"/>
	<path fill="#FFFFFF" d="M425.468,185.191c4.268,0,4.268-5.74,0-5.74C421.198,179.451,421.198,185.191,425.468,185.191z"/>
	<path fill="#FFFFFF" d="M419.288,179.159c1.48-9.972,12.708-7.932,21.323-1.82c8.722,6.187,13.053,25.812-5.745,23.099
		c5.745,4.527,15.667,7.923,22.716,6.792c10.998-1.768,13.317-8.152,9.924-18.118c-3.396-9.962-11.323-19.094-21.935-25.13
		c-8.355-4.759-15.694-6.395-22.193-3.399C415.023,164.433,417.316,173.572,419.288,179.159z"/>
	<path d="M157.111,293.584c2.508-9.766,7.655-19.375,16.808-20.3c10.45-1.056,17.659,10.427,20.953,20.788
		c3.576,11.254,5.215,27.739,4.536,37.988c-0.678,10.249-1.628,20.908-7.199,28.76c-5.048,7.117-12.04,9.901-19.151,6.259
		c-8.917-4.558-13.786-18.445-16.179-28.942C153.523,323.42,153.296,308.425,157.111,293.584z"/>
	<path fill="#383838" d="M162.826,287.394c2.269,6.019,8.529,21.912,10.088,27.234c1.023-0.533,2.182-0.796,3.301-0.75
		c1.939-12.174,4.928-20.239,8.072-32.043C174.035,270.45,166.143,279.805,162.826,287.394z"/>
	<path fill="#D2D2D2" d="M173.215,328.37c0.73,2.331,2.233,6.287,4.611,6.348c4.025,0.1,5.506-5.729,4.376-10.507
		c-1.129-4.778-5.876-8.173-8.767-4.698C171.865,321.403,172.581,326.337,173.215,328.37z"/>
	<path fill="#D2D2D2" d="M185.914,283.407c-1.872,10.139-5.132,20.697-7.436,31.04c0.019,0.01,0.04,0.016,0.061,0.025
		c1.719,0.93,2.621,2.005,3.404,3.136c3.041-7.387,6.586-12.359,10.93-19.677C191.352,292.442,189.112,287.459,185.914,283.407z"/>
	<path fill="#383838" d="M193.634,300.045c-3.457,7.452-8.239,15.975-10.216,19.475c0.512,0.843,0.956,1.997,1.392,3.04
		c2.671-0.626,8.672-1.495,11.768-1.56C196.361,314.967,194.542,303.47,193.634,300.045z"/>
	<path fill="#D2D2D2" d="M196.445,322.898c-2.963,0.689-8.616,1.818-11.115,2.009c0.174,1.129,0.008,3.327-0.196,4.853
		c1.566,0.608,7.827,4.523,10.798,6.492C195.938,336.187,196.714,325.629,196.445,322.898z"/>
	<path fill="#383838" d="M190.772,355.943c2.38-4.334,4.204-10.242,4.963-18.27c-1.962-0.24-7.905-4.173-11.187-6.163
		c-0.276,0.824-1.128,3.152-1.158,3.21C184.785,337.55,189.731,353.114,190.772,355.943z"/>
	<path fill="#D2D2D2" d="M189.651,358.027c-2.261-5.044-6.49-18.784-7.546-21.585c-0.724,0.837-2.171,1.573-3.151,1.934
		c0.674,2.131,3.527,20.595,3.769,25.335C184.919,362.871,187.997,361.085,189.651,358.027z"/>
	<path fill="#383838" d="M180.695,364.375c-0.886-2.563-2.726-21.426-3.185-25.739c-1.219-0.03-2.295-0.479-3.302-1.39
		c-1.74,5.995-3.944,15.42-5.165,21.651C173.055,363.268,177.348,365.004,180.695,364.375z"/>
	<path fill="#D2D2D2" d="M166.694,356.027c1.305-4.957,4.261-14.088,6.211-20.087c-1.392-1.717-2.174-3.563-2.678-5.867
		c-2.511,4.647-5.825,10.689-8.577,15.083C163.145,348.605,164.507,353.322,166.694,356.027z"/>
	<path fill="#383838" d="M160.521,342.37c2.342-4.535,6.098-10.004,9.198-13.84c-0.572-1.972-0.948-4.63-0.848-6.771
		c-2.713-1.208-8.783-4.869-12-7.133C156.424,325.23,158.519,334.72,160.521,342.37z"/>
	<path fill="#D2D2D2" d="M169.188,319.92c0.36-1.561,1.456-3.617,2.595-4.544c-2.134-4.168-9.195-19.207-10.549-24.55
		c-2.32,4.735-3.737,14.714-4.185,20.707C160.35,313.673,165.045,316.89,169.188,319.92z"/>
	<path d="M425.133,383.444c2.644-11.845,9.096-23.718,22.191-25.576c14.949-2.119,26.48,10.967,32.259,23.039
		c6.277,13.113,10.773,33.131,9.997,45.741c-0.775,12.607-2.263,26.003-9.493,35.828c-6.539,8.885-16.677,10.443-26.624,5.187
		c-12.873-6.799-20.73-19.35-24.772-31.816C422.862,417.877,421.122,401.438,425.133,383.444z"/>
	<path fill="#383838" d="M454.695,362.668c-11.532-3.344-18.182,3.764-22.203,13.083c5.162,9.6,15.168,26.081,17.944,32.295
		c1.423-0.72,3.066-1.126,4.68-1.166c2.199-15.772,5.906-25.169,9.855-38.739C462.016,365.716,458.623,363.807,454.695,362.668z"/>
	<path fill="#D2D2D2" d="M459.5,432.019c5.686,0.598,8.504-8.212,5.229-14.896c-3.273-6.682-11.318-9.563-14.032-4.303
		C447.451,419.111,450.697,431.093,459.5,432.019z"/>
	<path fill="#D2D2D2" d="M466.248,369.237c-2.51,13.932-5.357,24.655-7.813,38.133c0.029,0.009,0.062,0.012,0.089,0.026
		c2.434,1.189,4.088,2.248,5.679,4.035c4.387-9.322,7.928-16.029,13.452-25.104C474.918,379.912,471.259,373.8,466.248,369.237z"/>
	<path fill="#383838" d="M478.398,388.124c-4.427,9.499-8.552,17.392-12.343,25.424c0.794,0.928,1.576,2.75,1.788,3.444
		c3.046-1.988,12.229-3.761,16.888-4.144C483.815,405.679,480.431,393.137,478.398,388.124z"/>
	<path fill="#D2D2D2" d="M484.73,415.122c-4.659,0.801-12.717,3.128-16.092,4.32c0.397,1.388,0.538,3.063,0.397,4.901
		c3.683,1.988,13.522,5.909,16.287,6.731C485.65,425.869,485.386,418.386,484.73,415.122z"/>
	<path fill="#383838" d="M479.758,454.664c2.552-5.72,4.773-14.488,5.421-21.882c-2.847-0.122-13.36-4.299-16.342-5.86
		c-0.135,1.325-0.663,2.914-1.379,4.023C469.75,434.201,477.976,451.38,479.758,454.664z"/>
	<path fill="#D2D2D2" d="M478.909,456.569c-3.453-4.885-10.471-19.319-13.251-23.49c-0.957,1.058-2.067,1.876-3.443,2.383
		c1.187,2.484,5.998,23.788,6.822,29.414C472.113,463.694,477.044,460.29,478.909,456.569z"/>
	<path fill="#383838" d="M466.98,465.454c-2.251-6.818-5.925-24.496-7.016-29.594c-1.76,0.065-3.446-0.246-4.988-1.25
		c-1.277,7.145-3.788,17.912-5.426,26.225C455.794,465.189,462.224,466.479,466.98,465.454z"/>
	<path fill="#D2D2D2" d="M446.754,458.538c1.628-6.785,4.253-17.139,6.474-25.268c-2.177-1.932-3.475-3.17-4.732-5.687
		c-2.871,5.565-7.332,14.305-10.618,20.344C440.377,451.91,443.329,455.496,446.754,458.538z"/>
	<path fill="#383838" d="M436.215,445.111c2.963-5.345,6.54-14.118,11.01-20.24c-1.022-2.303-1.094-4.789-1.164-7.35
		c-4.381-1.776-14.251-6.621-19.171-8.988C427.302,421.202,430.271,434.338,436.215,445.111z"/>
	<path fill="#D2D2D2" d="M446.193,415.139c0.332-2.649,1.411-4.287,2.98-5.892c-3.884-6.339-15.291-22.573-18.371-29.431
		c-2.415,4.874-3.916,17.838-3.964,25.013C431.991,407.669,439.166,411.078,446.193,415.139z"/>
	<path fill="#BCBCBC" d="M634.523,282.786c-0.885-0.809-1.799-1.582-2.71-2.364c5.1-0.525,9.917-0.797,14.369-0.886
		c2.285,0.946,3.468,2.383,4.118,3.25C645.23,282.447,639.898,282.463,634.523,282.786z"/>
	<path fill="#BCBCBC" d="M655.294,307.869c8.472-3.92,14.328-7.829,14.523-11.189c1.981,1.222,3.899,2.507,3.719,3.516
		c-0.354,2.004-5.727,5.593-16.308,10.929C656.602,310.03,655.96,308.943,655.294,307.869z"/>
	<path fill="#BCBCBC" d="M573.466,302.14c-3.641,11.432-5.518,23.108-5.327,35.066c-1.901-0.182-3.001-0.57-3.352-1.072
		C562.157,332.388,565.316,315.327,573.466,302.14z"/>
	<path fill="#BCBCBC" d="M289.43,240.592c0.296,0.016,2.852,1.042,6.082,2.423c0.507,2.348,1.061,4.691,1.689,7.004
		c-5.184-2.177-9.666-4.152-9.74-4.427C287.319,245.075,288.582,240.546,289.43,240.592z"/>
	<path fill="#BCBCBC" d="M205.528,212.622c-4.432-1.86-8.294-3.561-8.359-3.794c-0.12-0.439,0.948-4.257,1.664-4.219
		c0.251,0.012,2.429,0.888,5.164,2.058C204.51,208.653,205.015,210.64,205.528,212.622z"/>
	<path fill="#BCBCBC" d="M173.436,319.513c0.211-0.257,0.435-0.462,0.665-0.643c-0.365,5.614,2.845,13.011,7.634,12.938
		c-0.771,1.759-2.072,2.954-3.908,2.911c-2.378-0.061-3.881-4.018-4.611-6.348C172.581,326.337,171.865,321.403,173.436,319.513z"/>
	<path fill="#BCBCBC" d="M184.488,290.181c0.525-2.271,1.013-4.535,1.426-6.775c3.198,4.053,5.437,9.035,6.958,14.523
		c-0.554,0.935-1.095,1.827-1.623,2.694C189.554,296.741,187.257,293.082,184.488,290.181z"/>
	<path fill="#BCBCBC" d="M183.027,315.126c-0.368,0.801-0.729,1.622-1.084,2.481c-0.783-1.131-1.685-2.206-3.404-3.136
		c-0.021-0.009-0.042-0.014-0.061-0.025c0.343-1.54,0.711-3.086,1.089-4.633C180.763,311.556,181.918,313.327,183.027,315.126z"/>
	<path fill="#BCBCBC" d="M195.128,323.726c0.007-0.178,0.014-0.358,0.02-0.537c0.468-0.103,0.908-0.199,1.297-0.292
		c0.268,2.731-0.507,13.289-0.513,13.354c-0.273-0.178-0.578-0.379-0.899-0.586C195.204,331.688,195.164,327.707,195.128,323.726z"
		/>
	<path fill="#BCBCBC" d="M187.168,324.684c-0.085,1.998-0.16,3.998-0.232,6c-0.79-0.446-1.43-0.78-1.802-0.925
		c0.204-1.526,0.37-3.724,0.196-4.853C185.827,324.868,186.469,324.786,187.168,324.684z"/>
	<path fill="#BCBCBC" d="M180.189,344.918c-0.534-3.259-1.007-5.827-1.234-6.542c0.98-0.36,2.427-1.096,3.151-1.934
		c0.229,0.61,0.615,1.757,1.092,3.199C182.214,341.411,181.21,343.168,180.189,344.918z"/>
	<path fill="#BCBCBC" d="M187.844,353.406c0.664,1.838,1.289,3.462,1.808,4.621c-1.654,3.058-4.733,4.844-6.927,5.684
		c-0.026-0.539-0.093-1.269-0.18-2.116C184.4,358.92,186.18,356.196,187.844,353.406z"/>
	<path fill="#BCBCBC" d="M168.65,332.979c0.547-1.005,1.08-1.986,1.578-2.906c0.504,2.304,1.286,4.151,2.678,5.867
		c-0.337,1.04-0.712,2.194-1.097,3.385C170.806,337.188,169.73,335.08,168.65,332.979z"/>
	<path fill="#BCBCBC" d="M167.581,352.871c-0.337,1.154-0.644,2.241-0.886,3.156c-2.187-2.705-3.549-7.422-5.044-10.871
		c0.504-0.804,1.028-1.675,1.56-2.568C164.548,346.068,165.895,349.544,167.581,352.871z"/>
	<path fill="#BCBCBC" d="M160.369,313.735c-1.194-0.806-2.324-1.556-3.318-2.201c0.448-5.993,1.865-15.973,4.185-20.707
		c0.391,1.547,1.268,3.915,2.359,6.586C162.85,302.918,161.697,308.345,160.369,313.735z"/>
	<path fill="#BCBCBC" d="M169.271,310.203c1.047,2.222,1.952,4.081,2.512,5.173c-1.14,0.927-2.235,2.983-2.595,4.544
		c-0.619-0.455-1.254-0.913-1.893-1.369C167.996,315.777,168.661,312.995,169.271,310.203z"/>
	<path fill="#BCBCBC" d="M450.697,412.821c0.658-1.274,1.633-2.063,2.775-2.444c-0.032,0.255-0.078,0.505-0.066,0.783
		c0.251,6.152,3.643,11.425,8.514,14.955c0.859,0.937,1.886,1.736,3.05,2.392c-1.13,2.292-3.033,3.769-5.47,3.512
		C450.697,431.093,447.451,419.111,450.697,412.821z"/>
	<path fill="#BCBCBC" d="M465.65,372.421c0.199-1.054,0.401-2.094,0.598-3.184c5.012,4.563,8.671,10.675,11.408,17.09
		c-1.046,1.72-2.004,3.337-2.927,4.92C471.979,384.837,468.958,378.563,465.65,372.421z"/>
	<path fill="#BCBCBC" d="M466.217,407.225c-0.658,1.355-1.325,2.741-2.014,4.206c-1.592-1.787-3.246-2.846-5.679-4.035
		c-0.027-0.014-0.06-0.017-0.089-0.026c0.669-3.666,1.365-7.123,2.078-10.5C462.472,400.289,464.404,403.723,466.217,407.225z"/>
	<path fill="#BCBCBC" d="M481.613,415.76c1.13-0.259,2.192-0.481,3.117-0.638c0.656,3.264,0.92,10.747,0.591,15.952
		c-0.684-0.203-1.803-0.6-3.155-1.105C482.062,425.232,481.777,420.5,481.613,415.76z"/>
	<path fill="#BCBCBC" d="M468.637,419.442c0.845-0.299,1.985-0.67,3.292-1.068c0.106,2.507,0.23,5.014,0.33,7.525
		c-1.278-0.577-2.408-1.117-3.225-1.556C469.175,422.505,469.034,420.83,468.637,419.442z"/>
	<path fill="#BCBCBC" d="M464.72,444.553c-1.08-4.484-2.053-8.147-2.505-9.091c1.377-0.507,2.486-1.325,3.443-2.383
		c0.779,1.168,1.893,3.152,3.164,5.492C467.522,440.614,466.142,442.597,464.72,444.553z"/>
	<path fill="#BCBCBC" d="M469.436,462.473c2.574-3.049,4.968-6.219,7.229-9.492c0.837,1.439,1.602,2.68,2.244,3.588
		c-1.865,3.721-6.796,7.124-9.873,8.306c-0.07-0.477-0.171-1.079-0.295-1.762C468.986,462.931,469.221,462.727,469.436,462.473z"/>
	<path fill="#BCBCBC" d="M446.773,430.93c0.612-1.189,1.2-2.334,1.723-3.348c1.257,2.518,2.555,3.755,4.732,5.687
		c-0.487,1.783-0.995,3.682-1.505,5.616C450.124,436.2,448.499,433.533,446.773,430.93z"/>
	<path fill="#BCBCBC" d="M442.834,448.396c1.372,2.505,2.917,4.925,4.613,7.28c-0.247,1.005-0.479,1.967-0.693,2.862
		c-3.425-3.042-6.377-6.628-8.875-10.612c0.628-1.157,1.309-2.43,2.004-3.743C440.865,445.588,441.856,446.988,442.834,448.396z"/>
	<path fill="#BCBCBC" d="M433.3,400.018c-0.282,2.579-0.606,5.149-0.948,7.722c-1.993-1.028-3.864-2-5.512-2.911
		c0.047-7.175,1.549-20.139,3.964-25.013c0.704,1.568,1.857,3.642,3.246,5.963C433.565,390.537,433.307,395.28,433.3,400.018z"/>
	<path fill="#BCBCBC" d="M446.922,405.717c0.881,1.353,1.66,2.565,2.251,3.53c-1.569,1.605-2.648,3.243-2.98,5.892
		c-0.262-0.152-0.524-0.294-0.788-0.442C446.017,411.721,446.497,408.725,446.922,405.717z"/>
	<path fill="#858785" d="M484.235,386.376c-2.834-6.61-7.749-17.637-15.765-23.515c-8.016-5.878-14.159-8.285-21.375-6.413
		c-7.216,1.872,6.679-9.354,22.177,2.404C484.77,370.611,486.639,391.988,484.235,386.376z"/>
	<path fill="#858785" d="M441.752,467.073c-3.357-4.434-12.561-20.307-15.767-32.867c-1.65-6.474-1.337,9.354,4.275,21.377
		C435.416,466.629,448.432,475.892,441.752,467.073z"/>
	<path fill="#858785" d="M197.528,299.002c1.334,8.451,4.007,24.05,3.74,33.669c-0.267,9.617,4.276-4.541,2.404-16.3
		C201.801,304.614,195.925,288.847,197.528,299.002z"/>
	<path fill="#858785" d="M155.041,297.666c-1.182,6.506-2.405,19.775-1.602,27.791c0.802,8.014-2.851-3.206-2.671-12.025
		C151.033,300.339,156.644,288.847,155.041,297.666z"/>
	<path fill="#6A99E2" d="M336.351,123.884c-7.381-2.567-37.347-12.063-51.134-15.513c-13.788-3.446-27.579-4.596-35.047-4.596
		c-7.47,0,24.131-4.596,46.538,0C319.115,108.371,349.565,128.481,336.351,123.884z"/>
	<path fill="#6A99E2" d="M354.738,239.368c-10.577-4.666-52.283-24.129-58.603-25.854c-6.321-1.724,10.34,15.515,17.81,19.536
		C321.414,237.071,374.272,247.984,354.738,239.368z"/>
	<path fill="#6A99E2" d="M255.34,198.576c-7.622-2.439-43.664-14.366-49.984-15.513c-6.319-1.149,5.744,9.764,12.065,12.639
		C223.742,198.576,269.703,203.174,255.34,198.576z"/>
	<path fill="#6A99E2" d="M324.862,300.271c-6.689-1.86-36.938-23.001-38.823-28.034c-1.859-4.962,56.635,20.562,63.529,24.585
		C356.46,300.844,335.203,303.143,324.862,300.271z"/>
	<path fill="#6A99E2" d="M253.042,259.477c-5.425-2.455-35.046-16.09-42.515-17.237c-7.469-1.149,17.236,18.959,23.557,21.258
		C240.404,265.797,266.63,265.624,253.042,259.477z"/>
	<path fill="#6A99E2" d="M172.033,176.166c-9.274-2.593-32.174-10.34-36.196-10.34c-4.022,0,5.747,12.64,11.491,13.789
		C153.073,180.764,186.398,180.187,172.033,176.166z"/>
	<path fill="#6A99E2" d="M466.197,289.924c-9.713-5.976-37.919-23.553-52.284-28.15c-14.363-4.598,12.066,17.807,19.535,21.256
		C440.917,286.478,481.134,299.117,466.197,289.924z"/>
	<path fill="#6A99E2" d="M579.385,279.583c-16.087-11.49-42.516-28.725-64.923-37.344c-12.958-4.985,46.515,5.06,58.006,13.677
		C579.882,261.474,587.428,285.328,579.385,279.583z"/>
	<path fill="#6A99E2" d="M621.75,254.187c-8.583-13.352-22.48-31.125-34.584-39.773c-12.104-8.647-2.593,15.563,3.459,19.887
		C596.677,238.623,629.531,266.291,621.75,254.187z"/>
	<path fill="#6A99E2" d="M526.788,350.817c-3.121,3.119-8.43,13.564-6.231,23.094c1.831,7.93-9.897-1.834-6.231-15.763
		C517.675,345.421,533.02,344.586,526.788,350.817z"/>
	<path fill="#A9A9A9" d="M438.076,318.564c-8.338-1.668-25.807,2.074-33.359,10.997C400.685,334.325,445.408,320.03,438.076,318.564
		z"/>
	<path fill="#A9A9A9" d="M168.648,252.216c8.449,1.425,17.819,3.339,12.465-0.369c-5.686-3.934-15.765-6.596-22.362-2.563
		C155.86,251.05,162.057,251.108,168.648,252.216z"/>
</g>
</svg>
