<?xml version="1.0" encoding="utf-8"?>
<!-- Generator: Adobe Illustrator 17.0.0, SVG Export Plug-In . SVG Version: 6.00 Build 0)  -->
<!DOCTYPE svg PUBLIC "-//W3C//DTD SVG 1.1//EN" "http://www.w3.org/Graphics/SVG/1.1/DTD/svg11.dtd">
<svg version="1.1" id="Layer_1" xmlns="http://www.w3.org/2000/svg" xmlns:xlink="http://www.w3.org/1999/xlink" x="0px" y="0px"
	 width="800px" height="600px" viewBox="0 0 800 600" enable-background="new 0 0 800 600" xml:space="preserve">
<g>
	<g>
		<path fill="#231F20" d="M442.37,251.415c0,0-19.913-31.627-23.037-51.147c0,0-5.075-51.15-3.509-55.833
			c0,0,3.509-3.644,0.389-11.453c0,0-5.036-3.617-11.84-5.27v-0.356c-1.84-0.389-3.67-0.488-5.446-0.417
			c-1.781-0.071-3.603,0.028-5.445,0.417v0.356c-6.803,1.651-11.84,5.27-11.84,5.27c-3.121,7.809,0.389,11.453,0.389,11.453
			c1.563,4.683-3.509,55.833-3.509,55.833c-3.125,19.52-23.041,51.147-23.041,51.147c-8.981,16.789-9.76,40.218-9.76,40.218
			l0.779,169.836c4.365,26.529,46.591,27.016,52.427,26.955c5.835,0.061,48.064-0.426,52.425-26.955l0.78-169.836
			C452.131,291.634,451.351,268.204,442.37,251.415z"/>
	</g>
	<g>
		<path fill="#FFFFFF" d="M347.28,290.157c0.935,45.788,1.658,91.587,2.758,137.376c0.225,9.392-4.099,23.41,0.43,32.054
			c4.235,8.085,18.288,12.315,26.569,14.77c10.616,3.143,21.238,3.487,32.173,1.903c13.077-1.89,32.313-5.234,36.336-20.385
			c2.901-10.935-0.946-27.363-0.305-38.996c1.865-33.78-0.052-67.927,0.744-101.776c0.031-1.216,0.551-24.163,0.333-24.169
			C446.291,290.936,371.483,289.379,347.28,290.157z"/>
	</g>
	<g>
		<path fill="#FFFFFF" d="M377.214,206.904c0,0,22.647,13.009,42.298-1.696l0.909,4.298c0,0-17.179,11.974-43.464,0.52
			C376.957,210.026,378.52,208.207,377.214,206.904z"/>
	</g>
	<g>
		<path fill="#FFFFFF" d="M388.144,139.225c0,0-1.817,5.728,0.783,8.072c0,0,3.417,40.067-1.789,62.449c0,0,5.695,3.663,7.775,1.321
			c0,0,0-58.307,0.524-61.43c0,0-1.823-7.547-1.041-10.671C394.395,138.966,390.492,139.225,388.144,139.225z"/>
	</g>
	<g>
		<path fill="#FFFFFF" d="M397.778,138.446c0,0-2.865,4.423-0.524,9.631c0,0,1.042,59.607-0.257,62.47l1.039,1.043
			c0,0,1.825-61.95,0.783-63.251C398.818,148.338,396.509,141.819,397.778,138.446z"/>
	</g>
	<g>
		<path fill="#FFFFFF" d="M401.941,139.487h1.824l2.083,71.32l-2.605,0.521C403.242,211.329,401.426,140.788,401.941,139.487z"/>
	</g>
	<g>
		<path fill="#FFFFFF" d="M382.029,145.473c0,0,16.529,9.11,33.97,0.26C415.999,145.733,393.871,151.46,382.029,145.473z"/>
	</g>
	<g>
		<path fill="#FFFFFF" d="M446.77,290.004c0,3.798-22.222,6.871-49.63,6.871c-27.412,0-49.633-3.073-49.633-6.871
			c0-3.797,22.221-6.87,49.633-6.87C424.548,283.134,446.77,286.207,446.77,290.004z"/>
		<path fill="#231F20" d="M397.14,297.193c-24.554,0-49.954-2.69-49.954-7.19s25.4-7.188,49.954-7.188
			c24.553,0,49.949,2.688,49.949,7.188S421.693,297.193,397.14,297.193z M397.14,283.453c-29.5,0-49.315,3.387-49.315,6.551
			s19.815,6.553,49.315,6.553c29.497,0,49.312-3.389,49.312-6.553S426.637,283.453,397.14,283.453z"/>
	</g>
	<g>
		<path fill="#FFFFFF" d="M407.733,231.294c0,6.814-3.942,12.336-8.808,12.336c-4.866,0-8.812-5.522-8.812-12.336
			c0-6.809,3.945-12.331,8.812-12.331C403.791,218.964,407.733,224.485,407.733,231.294z"/>
	</g>
	<g>
		<path fill="#FFFFFF" d="M400.601,212.577c0,0-9.429-1.539-3.748,10.086l5.288-0.704c0,0-2.908-4.756,2.683-8.288
			C404.824,213.67,399.807,214.466,400.601,212.577z"/>
	</g>
	<g>
		<path fill="#231F20" d="M445.73,331.78v101.617c-4.101,1.117-7.122,4.854-7.122,9.314c0,0.696,0.078,1.371,0.218,2.025
			c-0.072,0.002-0.145,0.011-0.218,0.011c0,0-8.393,4.576-36.883,4.576c-31.305,0-41.289-3.487-43.325-4.375
			c0.213-0.793,0.338-1.628,0.338-2.495c0-4.724-3.402-8.656-7.889-9.493l-0.987-100.937c4.235-1.031,8.365-5.337,8.365-9.884
			c0-0.789-0.104-1.557-0.286-2.288c0.012-0.005,0.023-0.005,0.032-0.005c0,0,6.36-5.342,41.715-5.342
			c25.582,0,34.489,2.759,37.485,4.313c-0.379,1.034-0.601,2.151-0.601,3.322C436.573,327.305,440.628,331.511,445.73,331.78z
			 M435.062,324.47c0-1.124,0.208-2.195,0.578-3.195c-2.881-1.49-11.44-4.141-36.024-4.141c-33.98,0-40.091,5.135-40.091,5.135
			c-0.008,0-0.022,0-0.027,0c0.172,0.705,0.271,1.441,0.271,2.201c0,4.37-3.969,8.51-8.037,9.499l0.947,96.999
			c4.313,0.805,7.578,4.584,7.578,9.129c0,0.831-0.12,1.632-0.323,2.392c1.959,0.853,11.552,4.209,41.636,4.209
			c27.378,0,35.446-4.401,35.446-4.401c0.074,0,0.139-0.011,0.212-0.013c-0.136-0.624-0.212-1.273-0.212-1.945
			c0-4.281,2.902-7.874,6.846-8.952v-97.653C438.959,333.475,435.062,329.433,435.062,324.47z"/>
	</g>
	<g>
		<ellipse fill="#231F20" cx="397.547" cy="413.436" rx="39.416" ry="20.648"/>
	</g>
	<g>
		<g>
			<g>
				<g>
					<path fill="#231F20" d="M398.494,398.034c0,0-0.661-4.424-1.698-4.573c0,0,2.803,1.623,3.761,1.034l0.884-0.743
						c0,0,2.064,1.259,2.506,0.891l0.738-0.518c0,0,1.841,1.181,2.14,1.399c0,0,1.178,0.516,1.399,1.031l1.181-0.808l1.844,3.535
						l0.368-0.142v3.167c0,0,0.368,1.327,1.62,0.515c0,0,2.579-1.476,2.949-1.324c0,0,1.329,1.844,1.178,2.578
						c0,0,1.477-0.588,0.888,1.547c0,0,2.214-0.291,0.076,3.174c0,0,2.432,0.441-1.919,3.535c0,0-4.127-1.251-5.159-0.437
						c0,0-2.951,3.317-2.51,7.223c0,0,2.802,4.277,4.205,4.792l-0.445,0.37l0.296,4.349l-1.402-0.588c0,0-2.43,3.901-2.947,4.052
						l-0.815-0.81l-1.471,0.883l-0.37-0.661l-3.834,2.214l-1.325-2.948l-3.248,1.029l-0.291-1.545l-1.771,0.516
						c0,0,0.222-0.667-0.146-0.516c-0.368,0.145-2.878-0.447-3.686,0.809c0,0,0.365-2.433-0.37-2.726c0,0-2.287-0.737-2.727,0.293
						l0.147-1.326l-3.613-0.518l0.739-2.065l-2.437-1.107l0.811-1.102l-2.874-2.582l6.12-1.845c0,0,6.415-0.364,6.932-1.394
						c0,0-2.066-1.703-4.13-0.154l-3.834,0.073l-0.152-0.442c0,0-2.062-2.137-3.979-1.839l0.885-1.919l-1.031-1.033l1.843-5.456
						l-6.117-3.613l10.024-0.368l0.814-3.539l2.579,0.443c0,0,0.22-0.443,0.591-0.369c0.366,0.071,0.664,0.738,0.664,0.738
						l1.107-0.443l1.25,0.589l2.95,2.508c0,0,1.846-3.392,0.593-3.834"/>
				</g>
			</g>
			<g>
				<g>
					<path fill="#FFFFFF" d="M384.069,422.609l-0.815,1.107l2.432,1.106l-0.734,2.064l3.612,0.515l-0.145,1.326
						c0.438-1.029,2.729-0.294,2.729-0.294c0.731,0.294,0.363,2.725,0.363,2.725c0.816-1.252,3.32-0.665,3.689-0.806
						c0.368-0.149,0.147,0.511,0.147,0.511l1.766-0.511l0.297,1.549l3.247-1.038l1.324,2.953l3.837-2.213l0.37,0.666l1.472-0.89
						l0.81,0.813c0.513-0.146,2.948-4.053,2.948-4.053l1.403,0.587l-0.296-4.349l0.446-0.37c-0.551-0.199-1.309-0.972-2.027-1.834
						l0.196,2.908l-1.104-0.472c0,0-1.922,3.088-2.331,3.209l-0.644-0.646l-1.167,0.703l-0.286-0.527l-3.033,1.75l-1.046-2.329
						l-2.562,0.814l-0.234-1.222l-1.397,0.409c0,0,0.178-0.523-0.116-0.409c-0.292,0.118-2.274-0.352-2.911,0.641
						c0,0,0.289-1.919-0.295-2.155c0,0-1.802-0.583-2.152,0.235l0.118-1.053l-2.857-0.41l0.583-1.63l-1.921-0.873l0.64-0.872
						l-1.995-1.792l-5.239,1.574L384.069,422.609z"/>
				</g>
			</g>
			<g>
				<g>
					<path fill="#FFFFFF" d="M418.351,408.89c2.138-3.459-0.076-3.163-0.076-3.163c0.594-2.138-0.879-1.55-0.879-1.55
						c0.145-0.734-1.184-2.579-1.184-2.579c-0.369-0.15-2.947,1.327-2.947,1.327c-1.256,0.809-1.621-0.52-1.621-0.52v-3.168
						l-0.37,0.147l-1.845-3.538l-1.179,0.809c-0.221-0.514-1.402-1.033-1.402-1.033c-0.291-0.222-2.14-1.4-2.14-1.4l-0.736,0.52
						c-0.443,0.366-2.507-0.889-2.507-0.889l-0.883,0.738c-0.768,0.472-2.719-0.473-3.469-0.868
						c0.866,0.817,1.406,4.406,1.406,4.406h-0.224c1.256,0.445-0.588,3.84-0.588,3.84l-2.948-2.509l-1.257-0.593l-1.101,0.445
						c0,0-0.297-0.661-0.667-0.738c-0.367-0.074-0.586,0.369-0.586,0.369l-2.584-0.443l-0.809,3.537l-10.032,0.369l6.126,3.617
						l-1.85,5.455l1.038,1.032l-0.889,1.918c1.922-0.296,3.982,1.84,3.982,1.84l0.149,0.448l3.834-0.078
						c1.463-1.096,2.926-0.565,3.654-0.162c1.257-0.177,2.504-0.443,2.696-0.831c0,0-1.63-1.341-3.259-0.116l-3.032,0.057
						l-0.115-0.345c0,0-1.629-1.694-3.145-1.46l0.703-1.512l-0.818-0.817l1.455-4.309l-4.835-2.854l7.92-0.291l0.645-2.796
						l2.035,0.348c0,0,0.177-0.348,0.467-0.289c0.288,0.055,0.525,0.581,0.525,0.581l0.872-0.349l0.991,0.466l2.333,1.978
						c0,0,1.456-2.675,0.463-3.026h0.176c0,0-0.425-2.839-1.107-3.482c0.587,0.311,2.13,1.059,2.735,0.687l0.701-0.582
						c0,0,1.632,0.989,1.982,0.7l0.581-0.411c0,0,1.459,0.931,1.689,1.108c0,0,0.932,0.406,1.108,0.811l0.932-0.637l1.453,2.795
						l0.296-0.114v2.504c0,0,0.291,1.047,1.28,0.407c0,0,2.038-1.165,2.332-1.05c0,0,1.046,1.456,0.93,2.039
						c0,0,1.165-0.467,0.7,1.224c0,0,1.747-0.234,0.057,2.505c0,0,1.537,0.281-0.609,2.098c0.156,0.177,0.244,0.384,0.264,0.592
						c0.731,0.173,1.268,0.334,1.268,0.334C420.784,409.338,418.351,408.89,418.351,408.89z"/>
				</g>
			</g>
			<g>
				<g>
					<path fill="#FFFFFF" d="M386.153,418.207l0.278,0.246l0.874-0.265c0,0,6.417-0.37,6.934-1.404c0,0-0.176-0.143-0.474-0.31
						c-1.384,0.193-2.776,0.276-2.776,0.276L386.153,418.207z"/>
				</g>
			</g>
		</g>
		<g>
			<g>
				<path fill="#FFFFFF" d="M415.645,403.344c0,0-2.8,8.107-5.233,8.477l0.587,0.368
					C410.999,412.189,414.025,410.126,415.645,403.344z"/>
			</g>
		</g>
		<g>
			<g>
				<path fill="#FFFFFF" d="M409.677,397.516c0,0,0.885,6.549-2.063,13.844l0.255,0.795C410,404.82,410.486,404.015,409.677,397.516
					z"/>
			</g>
		</g>
		<g>
			<g>
				<path fill="#FFFFFF" d="M390.624,425.146c0,0,6.13-3.583,6.127-6.032l0.368,0.548
					C397.119,419.662,395.837,422.865,390.624,425.146z"/>
			</g>
		</g>
		<g>
			<g>
				<path fill="#FFFFFF" d="M402.609,399.183c0,0,4.529,5.468,6.946,5.069l-0.483,0.448
					C409.072,404.701,405.702,403.962,402.609,399.183z"/>
			</g>
		</g>
		<g>
			<g>
				<path fill="#FFFFFF" d="M410.766,403.61c0,0,2.297,4.546,3.132,4.541l-0.122,0.271
					C413.775,408.422,412.464,407.477,410.766,403.61z"/>
			</g>
		</g>
		<g>
			<g>
				<path fill="#FFFFFF" d="M385.951,426.813c0,0,3.924-3.307,3.819-5.749l0.271,0.562
					C390.041,421.626,389.322,424.762,385.951,426.813z"/>
			</g>
		</g>
		<g>
			<g>
				<path fill="#FFFFFF" d="M400.214,411.526c0,0,9.734,0.396,9.534,5.699l-1.081,0.593c0,0,0.889-3.543-8.651-5.212
					C400.015,412.606,398.442,412.214,400.214,411.526z"/>
			</g>
		</g>
		<g>
			<g>
				<path fill="#FFFFFF" d="M398.279,426.225c0,0,5.545-5.85,4.815-7.952l0.556,0.308
					C403.65,418.581,403.226,421.907,398.279,426.225z"/>
			</g>
		</g>
		<g>
			<g>
				<path fill="#FFFFFF" d="M402.801,429.859c0,0,6.396-8.564,4.93-12.223l0.836,0.624
					C408.567,418.26,408.703,423.722,402.801,429.859z"/>
			</g>
		</g>
		<g>
			<g>
				<path fill="#FFFFFF" d="M382.567,420.027c0,0,11.995,5.015,26.148-4.126l-0.094-0.39
					C408.62,415.511,395.738,424.451,382.567,420.027z"/>
			</g>
		</g>
		<g>
			<g>
				<path fill="#FFFFFF" d="M406.947,424.451c0,0,3.539,2.853,1.867,6.884C408.815,431.335,409.405,427.698,406.947,424.451z"/>
			</g>
		</g>
		<g>
			<g>
				<path fill="#FFFFFF" d="M400.142,427.282c0,0,2.852-3.543,6.881-1.87C407.023,425.412,403.385,424.823,400.142,427.282z"/>
			</g>
		</g>
		<g>
			<g>
				<path fill="#FFFFFF" d="M403.385,423.057c0,0,1.752-3.538,4.229-1.872C407.614,421.185,405.38,420.599,403.385,423.057z"/>
			</g>
		</g>
		<g>
			<g>
				<path fill="#FFFFFF" d="M408.224,421.208c0,0,3.539,1.955,1.87,4.72C410.094,425.929,410.681,423.432,408.224,421.208z"/>
			</g>
		</g>
		<g>
			<g>
				<path fill="#FFFFFF" d="M409.696,415.408l9.636,17.108l-0.982,0.093l-9.731-16.413
					C408.62,416.196,408.521,414.031,409.696,415.408z"/>
			</g>
		</g>
		<g>
			<g>
				<g>
					<g>
						<g>
							<path fill="#FFFFFF" d="M393.973,399.108c1.607-1.029,3.808-0.462,4.912,1.267c1.104,1.725,0.697,3.962-0.911,4.991
								c-1.609,1.03-3.808,0.462-4.915-1.267C391.952,402.373,392.36,400.138,393.973,399.108z"/>
						</g>
					</g>
					<g>
						<g>
							<path fill="#231F20" d="M396.204,406.199c-1.345,0-2.652-0.739-3.413-1.928c-0.6-0.935-0.811-2.073-0.582-3.119
								c0.214-0.972,0.779-1.794,1.592-2.313c0.576-0.369,1.246-0.563,1.937-0.563c1.347,0,2.655,0.738,3.415,1.926
								c0.578,0.904,0.794,1.964,0.607,2.987c-0.188,1.033-0.762,1.899-1.615,2.444
								C397.568,406.002,396.897,406.199,396.204,406.199z M395.738,398.912c-0.569,0-1.121,0.161-1.594,0.464
								c-0.67,0.427-1.137,1.107-1.312,1.912c-0.193,0.883-0.014,1.846,0.495,2.639c0.645,1.008,1.746,1.633,2.877,1.633
								c0.571,0,1.122-0.16,1.597-0.463c0.703-0.45,1.175-1.168,1.332-2.025c0.156-0.862-0.027-1.761-0.516-2.528
								C397.972,399.539,396.87,398.912,395.738,398.912z"/>
						</g>
					</g>
				</g>
				<g>
					<g>
						<path fill="#231F20" d="M394.652,400.012c1.368-0.875,3.123-0.662,4.247,0.426c-0.031-0.057-0.069-0.104-0.096-0.161
							c-0.898-1.912-3.262-2.229-4.867-1.204c-1.605,1.027-1.969,3.313-0.937,4.917c0.15,0.234,0.323,0.447,0.516,0.633
							C392.614,403.037,393.097,401.002,394.652,400.012z"/>
					</g>
				</g>
				<g>
					<g>
						<path fill="#231F20" d="M396.187,401.71c0,0-2.633,0.569-1.431-0.141c0,0,0.587,0.222,0.015-1.132
							c0,0,1.282-0.166,1.506-0.833c0,0,0.437,0.836,0.567,0.979c0,0,1.119,0.276,0.422,1.304
							C397.265,401.888,396.91,401.542,396.187,401.71z"/>
					</g>
				</g>
			</g>
			<g>
				<g>
					<g>
						<g>
							<path fill="#FFFFFF" d="M380.405,414.269c-1.755-0.784-2.64-2.915-1.97-4.762c0.667-1.844,2.635-2.712,4.387-1.928
								c1.761,0.781,2.645,2.91,1.98,4.758C384.131,414.182,382.163,415.049,380.405,414.269z"/>
						</g>
					</g>
					<g>
						<g>
							<path fill="#231F20" d="M381.737,414.875c-0.5,0-0.991-0.107-1.461-0.316c-1.906-0.849-2.865-3.164-2.142-5.16
								c0.532-1.474,1.85-2.428,3.357-2.428c0.5,0,0.992,0.106,1.461,0.317c1.906,0.846,2.87,3.159,2.15,5.156
								C384.564,413.921,383.244,414.875,381.737,414.875z M381.491,407.608c-1.235,0-2.317,0.788-2.756,2.009
								c-0.612,1.687,0.196,3.643,1.8,4.36c0.389,0.173,0.792,0.26,1.203,0.26c1.234,0,2.319-0.789,2.765-2.01
								c0.61-1.689-0.202-3.643-1.81-4.358C382.306,407.696,381.899,407.608,381.491,407.608z"/>
						</g>
					</g>
				</g>
				<g>
					<g>
						<path fill="#231F20" d="M380.817,413.961c-1.758-0.779-2.64-2.91-1.974-4.758c0.207-0.576,0.541-1.052,0.95-1.414
							c-0.617,0.378-1.117,0.977-1.396,1.737c-0.669,1.85,0.217,3.978,1.975,4.766c1.21,0.535,2.522,0.291,3.44-0.523
							C382.942,414.309,381.842,414.419,380.817,413.961z"/>
					</g>
				</g>
			</g>
			<g>
				<g>
					<g>
						<path fill="#FFFFFF" d="M377.486,401.823c1.653-1.067,4.002-0.692,5.255,0.838c1.253,1.534,0.929,3.647-0.725,4.713
							c-1.652,1.074-4.001,0.694-5.253-0.838C375.51,405.003,375.832,402.892,377.486,401.823z"/>
					</g>
				</g>
				<g>
					<g>
						<path fill="#231F20" d="M379.904,408.304c-1.32,0-2.587-0.584-3.388-1.565c-0.667-0.818-0.951-1.809-0.796-2.797
							c0.155-0.976,0.719-1.824,1.592-2.387c0.667-0.43,1.459-0.658,2.29-0.658c1.319,0,2.584,0.585,3.384,1.563
							c0.669,0.817,0.951,1.81,0.795,2.795c-0.152,0.977-0.719,1.825-1.592,2.389C381.524,408.075,380.733,408.304,379.904,408.304z
							 M379.602,401.533c-0.707,0-1.38,0.193-1.944,0.557c-0.718,0.464-1.183,1.157-1.307,1.952
							c-0.128,0.804,0.108,1.618,0.66,2.293c0.68,0.833,1.762,1.331,2.893,1.331c0.706,0,1.376-0.192,1.938-0.558
							c0.719-0.466,1.185-1.158,1.31-1.953c0.128-0.802-0.108-1.617-0.659-2.292C381.813,402.03,380.732,401.533,379.602,401.533z"
							/>
					</g>
				</g>
			</g>
			<g>
				<g>
					<g>
						<g>
							<path fill="#FFFFFF" d="M380.993,406.111c1.814-1.171,4.392-0.752,5.767,0.93c1.375,1.685,1.024,4.001-0.791,5.172
								c-1.808,1.178-4.392,0.76-5.762-0.926C378.833,409.602,379.186,407.284,380.993,406.111z"/>
						</g>
					</g>
					<g>
						<g>
							<path fill="#231F20" d="M383.654,413.202c-1.444,0-2.823-0.64-3.695-1.714c-0.725-0.889-1.033-1.971-0.866-3.045
								c0.168-1.061,0.781-1.985,1.727-2.599c0.725-0.468,1.583-0.714,2.485-0.714c1.44,0,2.825,0.639,3.7,1.711
								c0.728,0.892,1.035,1.973,0.867,3.046c-0.168,1.061-0.784,1.982-1.732,2.595
								C385.417,412.953,384.557,413.202,383.654,413.202z M383.306,405.766c-0.779,0-1.518,0.213-2.138,0.613
								c-0.792,0.515-1.307,1.284-1.444,2.163c-0.14,0.893,0.12,1.796,0.731,2.543c0.752,0.926,1.948,1.48,3.2,1.48
								c0.779,0,1.518-0.214,2.139-0.62c0.797-0.513,1.311-1.278,1.45-2.157c0.14-0.893-0.119-1.794-0.729-2.543
								C385.755,406.318,384.558,405.766,383.306,405.766z"/>
						</g>
					</g>
				</g>
				<g>
					<g>
						<path fill="#231F20" d="M381.041,406.672c1.812-1.173,4.39-0.755,5.766,0.926c0.426,0.521,0.681,1.105,0.786,1.694
							c0.006-0.79-0.264-1.6-0.833-2.297c-1.375-1.685-3.953-2.104-5.767-0.93c-1.249,0.81-1.803,2.164-1.574,3.477
							C379.426,408.432,379.98,407.355,381.041,406.672z"/>
					</g>
				</g>
			</g>
			<g>
				<g>
					<path fill="#231F20" d="M386.217,412.094c-1.807,1.173-4.39,0.757-5.764-0.931c-0.866-1.052-1.043-2.363-0.617-3.478
						c-0.968,1.248-0.978,2.997,0.121,4.343c1.375,1.684,3.951,2.101,5.768,0.932c0.674-0.443,1.146-1.032,1.399-1.695
						C386.882,411.576,386.581,411.859,386.217,412.094z"/>
				</g>
			</g>
			<g>
				<g>
					<g>
						<g>
							<path fill="#FFFFFF" d="M387.002,407.721c1.595-1.076,3.871-0.692,5.086,0.854c1.211,1.545,0.9,3.67-0.696,4.749
								c-1.596,1.072-3.87,0.692-5.081-0.856C385.1,410.922,385.407,408.8,387.002,407.721z"/>
						</g>
					</g>
					<g>
						<g>
							<path fill="#231F20" d="M389.354,414.252c-1.285,0-2.516-0.594-3.293-1.586c-0.65-0.831-0.922-1.837-0.765-2.832
								c0.151-0.969,0.695-1.813,1.527-2.376c0.646-0.435,1.414-0.665,2.218-0.665c1.285,0,2.519,0.592,3.299,1.586
								c0.649,0.829,0.919,1.833,0.764,2.83c-0.153,0.97-0.697,1.814-1.533,2.379C390.924,414.021,390.157,414.252,389.354,414.252z
								 M389.04,407.43c-0.678,0-1.321,0.192-1.86,0.556c-0.686,0.462-1.131,1.154-1.257,1.945c-0.126,0.82,0.099,1.652,0.638,2.34
								c0.659,0.841,1.703,1.342,2.792,1.342c0.676,0,1.32-0.192,1.86-0.555c0.687-0.464,1.134-1.158,1.259-1.95
								c0.129-0.819-0.097-1.649-0.635-2.337C391.178,407.932,390.133,407.43,389.04,407.43z"/>
						</g>
					</g>
				</g>
				<g>
					<g>
						<path fill="#231F20" d="M387.047,408.234c1.594-1.073,3.87-0.695,5.083,0.85c0.369,0.48,0.601,1.016,0.692,1.558
							c0.005-0.724-0.23-1.466-0.734-2.104c-1.215-1.553-3.491-1.932-5.086-0.86c-1.097,0.745-1.587,1.986-1.388,3.194
							C385.623,409.848,386.114,408.859,387.047,408.234z"/>
					</g>
				</g>
			</g>
			<g>
				<g>
					<g>
						<path fill="#FFFFFF" d="M382.942,400.232c1.358-1.314,3.65-1.396,5.119-0.181c1.464,1.212,1.553,3.267,0.193,4.584
							c-1.36,1.315-3.651,1.398-5.12,0.183C381.669,403.6,381.58,401.547,382.942,400.232z"/>
					</g>
				</g>
				<g>
					<g>
						<path fill="#231F20" d="M385.589,405.997c-0.986,0-1.93-0.332-2.658-0.934c-0.784-0.651-1.236-1.54-1.273-2.504
							c-0.035-0.954,0.342-1.861,1.061-2.557c0.744-0.719,1.795-1.131,2.884-1.131c0.988,0,1.933,0.331,2.662,0.934
							c0.781,0.647,1.232,1.533,1.271,2.494c0.037,0.953-0.339,1.866-1.06,2.564C387.733,405.585,386.679,405.997,385.589,405.997z
							 M385.603,399.51c-0.925,0-1.814,0.347-2.441,0.952c-0.588,0.567-0.896,1.304-0.867,2.074c0.028,0.78,0.399,1.503,1.043,2.037
							c0.613,0.507,1.413,0.786,2.251,0.786c0.926,0,1.817-0.347,2.443-0.954c0.588-0.571,0.896-1.31,0.866-2.083
							c-0.03-0.776-0.399-1.496-1.04-2.024C387.244,399.789,386.443,399.51,385.603,399.51z"/>
					</g>
				</g>
			</g>
			<g>
				<g>
					<path fill="#231F20" d="M383.483,404.568c-1.466-1.213-1.554-3.265-0.194-4.585c0.019-0.015,0.031-0.027,0.049-0.04
						c-0.136,0.093-0.266,0.201-0.389,0.317c-1.356,1.317-1.271,3.371,0.195,4.583c1.451,1.204,3.706,1.135,5.073-0.143
						C386.838,405.699,384.818,405.675,383.483,404.568z"/>
				</g>
			</g>
			<g>
				<g>
					<path fill="#231F20" d="M385.645,402.375c0,0,0.495-0.776-1.501-0.541c0,0,0.607,0.062-0.265-0.96c0,0,1.839-0.418,1.994-0.328
						c0,0,1.126-0.01,0.715,1.015C386.588,401.562,386.882,402.928,385.645,402.375z"/>
				</g>
			</g>
			<g>
				<g>
					<path fill="#231F20" d="M382.333,409.621c0,0,0.609,0.059-0.261-0.962c0,0,1.838-0.419,1.997-0.324c0,0,1.121-0.01,0.717,1.012
						C384.786,409.346,384.333,409.385,382.333,409.621z"/>
				</g>
			</g>
			<g>
				<g>
					<g>
						<g>
							<path fill="#FFFFFF" d="M411.322,403.859c0,1.905-1.663,3.455-3.714,3.455c-2.052,0-3.713-1.55-3.713-3.455
								c0-1.916,1.662-3.463,3.713-3.463C409.659,400.395,411.322,401.943,411.322,403.859z"/>
						</g>
					</g>
					<g>
						<g>
							<path fill="#231F20" d="M407.608,407.632c-2.224,0-4.033-1.692-4.033-3.773c0-2.085,1.809-3.782,4.033-3.782
								c2.224,0,4.033,1.696,4.033,3.782C411.642,405.94,409.833,407.632,407.608,407.632z M407.608,400.714
								c-1.871,0-3.394,1.412-3.394,3.145c0,1.728,1.523,3.137,3.394,3.137c1.872,0,3.395-1.409,3.395-3.137
								C411.004,402.125,409.481,400.714,407.608,400.714z"/>
						</g>
					</g>
				</g>
				<g>
					<g>
						<path fill="#231F20" d="M407.656,401.541c1.755,0,3.219,1.126,3.608,2.641c0.006-0.058-0.002-0.114,0.01-0.18
							c0.294-2.092-1.673-3.638-3.722-3.638c-2.049,0-3.704,1.729-3.704,3.638c0,0.279,0.036,0.551,0.099,0.81
							C404.051,402.988,405.671,401.541,407.656,401.541z"/>
					</g>
				</g>
				<g>
					<g>
						<path fill="#231F20" d="M408.293,404.661c0,0,0.941-2.525,0.893-1.129c0,0-0.504,0.375,0.946,0.619
							c0,0-0.555,1.17-0.109,1.714c0,0-0.941-0.078-1.133-0.047c0,0-0.836,0.796-1.329-0.346
							C407.562,405.472,408.048,405.36,408.293,404.661z"/>
					</g>
				</g>
			</g>
			<g>
				<g>
					<g>
						<g>
							<path fill="#FFFFFF" d="M407.802,412.568c0,1.909-1.667,3.461-3.717,3.461c-2.048,0-3.712-1.552-3.712-3.461
								c0-1.911,1.664-3.461,3.712-3.461C406.135,409.107,407.802,410.657,407.802,412.568z"/>
						</g>
					</g>
					<g>
						<g>
							<path fill="#231F20" d="M404.084,416.348c-2.223,0-4.032-1.695-4.032-3.78c0-2.085,1.809-3.779,4.032-3.779
								c2.225,0,4.037,1.694,4.037,3.779C408.121,414.653,406.31,416.348,404.084,416.348z M404.084,409.426
								c-1.87,0-3.394,1.411-3.394,3.142c0,1.732,1.524,3.143,3.394,3.143c1.875,0,3.398-1.41,3.398-3.143
								C407.482,410.837,405.959,409.426,404.084,409.426z"/>
						</g>
					</g>
				</g>
				<g>
					<g>
						<path fill="#231F20" d="M404.134,410.256c1.751,0,3.221,1.127,3.609,2.646c0.006-0.064-0.002-0.125,0.006-0.182
							c0.297-2.096-1.667-3.644-3.717-3.644c-2.053,0-3.71,1.732-3.71,3.644c0,0.275,0.037,0.548,0.104,0.809
							C400.526,411.698,402.15,410.256,404.134,410.256z"/>
					</g>
				</g>
				<g>
					<g>
						<path fill="#231F20" d="M404.769,413.376c0,0,0.386-0.76,1.84-0.514c0,0-0.552,1.171-0.107,1.721c0,0-0.941-0.083-1.133-0.053
							c0,0-0.837,0.798-1.33-0.348C404.04,414.182,404.525,414.071,404.769,413.376z"/>
					</g>
				</g>
			</g>
			<g>
				<g>
					<g>
						<g>
							<path fill="#FFFFFF" d="M402.609,412.196c0,1.911-1.663,3.461-3.715,3.461c-2.048,0-3.714-1.551-3.714-3.461
								c0-1.909,1.666-3.456,3.714-3.456C400.947,408.74,402.609,410.287,402.609,412.196z"/>
						</g>
					</g>
					<g>
						<g>
							<path fill="#231F20" d="M398.895,415.977c-2.224,0-4.032-1.696-4.032-3.78c0-2.083,1.808-3.776,4.032-3.776
								c2.223,0,4.033,1.693,4.033,3.776C402.928,414.28,401.118,415.977,398.895,415.977z M398.895,409.057
								c-1.871,0-3.394,1.409-3.394,3.139c0,1.731,1.523,3.142,3.394,3.142c1.872,0,3.394-1.411,3.394-3.142
								C402.289,410.466,400.767,409.057,398.895,409.057z"/>
						</g>
					</g>
				</g>
				<g>
					<g>
						<path fill="#231F20" d="M398.947,409.884c1.747,0,3.215,1.125,3.609,2.647c0-0.063-0.005-0.125,0.006-0.187
							c0.293-2.091-1.673-3.639-3.725-3.639c-2.049,0-3.706,1.734-3.706,3.639c0,0.277,0.033,0.551,0.103,0.811
							C395.338,411.333,396.957,409.884,398.947,409.884z"/>
					</g>
				</g>
				<g>
					<g>
						<path fill="#231F20" d="M399.579,413.001c0,0,0.389-0.755,1.836-0.506c0,0-0.549,1.166-0.103,1.714
							c0,0-0.945-0.081-1.137-0.047c0,0-0.835,0.795-1.33-0.349C398.846,413.812,399.334,413.698,399.579,413.001z"/>
					</g>
				</g>
			</g>
			<g>
				<g>
					<g>
						<g>
							<path fill="#FFFFFF" d="M407.118,407.192c0,1.907-1.661,3.46-3.712,3.46c-2.053,0-3.715-1.553-3.715-3.46
								c0-1.911,1.662-3.459,3.715-3.459C405.458,403.734,407.118,405.282,407.118,407.192z"/>
						</g>
					</g>
					<g>
						<g>
							<path fill="#231F20" d="M403.406,410.97c-2.224,0-4.033-1.694-4.033-3.778c0-2.083,1.809-3.777,4.033-3.777
								c2.224,0,4.032,1.694,4.032,3.777C407.438,409.276,405.63,410.97,403.406,410.97z M403.406,404.055
								c-1.872,0-3.395,1.408-3.395,3.138c0,1.732,1.523,3.141,3.395,3.141c1.871,0,3.395-1.409,3.395-3.141
								C406.801,405.462,405.277,404.055,403.406,404.055z"/>
						</g>
					</g>
				</g>
				<g>
					<g>
						<path fill="#231F20" d="M403.454,404.877c1.753,0,3.217,1.128,3.607,2.65c0.009-0.064,0-0.124,0.011-0.185
							c0.296-2.098-1.672-3.639-3.721-3.639c-2.052,0-3.712,1.729-3.712,3.639c0,0.277,0.043,0.549,0.109,0.809
							C399.848,406.328,401.468,404.877,403.454,404.877z"/>
					</g>
				</g>
				<g>
					<g>
						<path fill="#231F20" d="M404.093,407.995c0,0,0.385-0.753,1.834-0.505c0,0-0.547,1.167-0.109,1.714
							c0,0-0.939-0.078-1.127-0.047c0,0-0.837,0.793-1.327-0.352C403.364,408.805,403.848,408.696,404.093,407.995z"/>
					</g>
				</g>
			</g>
			<g>
				<g>
					<g>
						<g>
							<path fill="#FFFFFF" d="M392.104,407.192c0,1.907-1.662,3.46-3.718,3.46c-2.044,0-3.71-1.553-3.71-3.46
								c0-1.911,1.666-3.459,3.71-3.459C390.442,403.734,392.104,405.282,392.104,407.192z"/>
						</g>
					</g>
					<g>
						<g>
							<path fill="#231F20" d="M388.387,410.97c-2.223,0-4.029-1.694-4.029-3.778c0-2.083,1.807-3.777,4.029-3.777
								c2.225,0,4.036,1.694,4.036,3.777C392.422,409.276,390.612,410.97,388.387,410.97z M388.387,404.055
								c-1.87,0-3.393,1.408-3.393,3.138c0,1.732,1.523,3.141,3.393,3.141c1.874,0,3.398-1.409,3.398-3.141
								C391.785,405.462,390.26,404.055,388.387,404.055z"/>
						</g>
					</g>
				</g>
				<g>
					<g>
						<path fill="#231F20" d="M388.439,404.877c1.75,0,3.217,1.128,3.613,2.65c0-0.064-0.005-0.124,0.003-0.185
							c0.293-2.098-1.669-3.639-3.723-3.639c-2.045,0-3.708,1.729-3.708,3.639c0,0.277,0.042,0.549,0.107,0.809
							C384.832,406.328,386.455,404.877,388.439,404.877z"/>
					</g>
				</g>
				<g>
					<g>
						<path fill="#231F20" d="M389.072,407.995c0,0,0.386-0.753,1.845-0.505c0,0-0.555,1.167-0.11,1.714
							c0,0-0.946-0.078-1.135-0.047c0,0-0.833,0.793-1.328-0.352C388.343,408.805,388.832,408.696,389.072,407.995z"/>
					</g>
				</g>
			</g>
			<g>
				<g>
					<g>
						<g>
							<ellipse fill="#FFFFFF" cx="392.837" cy="408.859" rx="3.714" ry="3.46"/>
						</g>
					</g>
					<g>
						<g>
							<path fill="#231F20" d="M392.836,412.637c-2.221,0-4.032-1.695-4.032-3.778c0-2.083,1.81-3.777,4.032-3.777
								c2.224,0,4.034,1.694,4.034,3.777C396.87,410.942,395.06,412.637,392.836,412.637z M392.836,405.719
								c-1.87,0-3.393,1.411-3.393,3.14c0,1.731,1.523,3.14,3.393,3.14c1.874,0,3.398-1.409,3.398-3.14
								C396.234,407.129,394.709,405.719,392.836,405.719z"/>
						</g>
					</g>
				</g>
				<g>
					<g>
						<path fill="#231F20" d="M392.889,406.547c1.751,0,3.217,1.124,3.605,2.646c0.011-0.061,0-0.122,0.011-0.184
							c0.293-2.091-1.673-3.639-3.722-3.639s-3.711,1.731-3.711,3.639c0,0.277,0.04,0.549,0.109,0.811
							C389.28,407.995,390.9,406.547,392.889,406.547z"/>
					</g>
				</g>
				<g>
					<g>
						<path fill="#231F20" d="M393.524,409.666c0,0,0.387-0.76,1.839-0.51c0,0-0.551,1.169-0.109,1.719c0,0-0.942-0.082-1.131-0.052
							c0,0-0.838,0.795-1.327-0.347C392.796,410.476,393.28,410.363,393.524,409.666z"/>
					</g>
				</g>
			</g>
			<g>
				<g>
					<g>
						<g>
							<ellipse fill="#FFFFFF" cx="395.312" cy="416.954" rx="3.713" ry="3.459"/>
						</g>
					</g>
					<g>
						<g>
							<path fill="#231F20" d="M395.311,420.73c-2.224,0-4.032-1.695-4.032-3.777c0-2.083,1.808-3.777,4.032-3.777
								c2.224,0,4.033,1.694,4.033,3.777C399.344,419.035,397.535,420.73,395.311,420.73z M395.311,413.813
								c-1.871,0-3.394,1.409-3.394,3.14c0,1.731,1.523,3.139,3.394,3.139c1.874,0,3.395-1.408,3.395-3.139
								C398.707,415.223,397.185,413.813,395.311,413.813z"/>
						</g>
					</g>
				</g>
				<g>
					<g>
						<path fill="#231F20" d="M395.362,414.641c1.747,0,3.215,1.128,3.608,2.645c0.003-0.061-0.005-0.122,0.003-0.181
							c0.297-2.095-1.667-3.638-3.719-3.638c-2.052,0-3.705,1.727-3.705,3.638c0,0.281,0.036,0.551,0.104,0.812
							C391.755,416.092,393.376,414.641,395.362,414.641z"/>
					</g>
				</g>
				<g>
					<g>
						<path fill="#231F20" d="M395.995,417.757c0,0,0.386-0.755,1.838-0.506c0,0-0.552,1.17-0.109,1.717c0,0-0.94-0.082-1.131-0.051
							c0,0-0.838,0.796-1.328-0.349C395.265,418.568,395.748,418.456,395.995,417.757z"/>
					</g>
				</g>
			</g>
			<g>
				<g>
					<g>
						<g>
							<path fill="#FFFFFF" d="M389.009,401.001c1.301-1.397,3.574-1.397,5.078,0.004c1.494,1.397,1.656,3.665,0.354,5.061
								c-1.302,1.396-3.574,1.396-5.077-0.004C387.869,404.661,387.708,402.396,389.009,401.001z"/>
						</g>
					</g>
					<g>
						<g>
							<path fill="#231F20" d="M391.98,407.431c-1.039,0-2.046-0.404-2.831-1.136c-1.623-1.519-1.792-3.993-0.373-5.513
								c0.69-0.741,1.646-1.148,2.693-1.148c1.04,0,2.047,0.405,2.835,1.138c1.624,1.516,1.788,3.987,0.37,5.509
								C393.985,407.023,393.029,407.431,391.98,407.431z M391.47,400.273c-0.868,0-1.659,0.336-2.228,0.944
								c-1.179,1.265-1.025,3.335,0.343,4.615c0.666,0.619,1.517,0.961,2.395,0.961c0.868,0,1.661-0.334,2.229-0.945
								c1.18-1.265,1.028-3.334-0.338-4.61C393.201,400.616,392.349,400.273,391.47,400.273z"/>
						</g>
					</g>
				</g>
				<g>
					<g>
						<path fill="#231F20" d="M389.89,401.703c1.108-1.188,2.864-1.412,4.225-0.645c-0.043-0.04-0.093-0.079-0.131-0.125
							c-1.344-1.631-3.719-1.35-5.016,0.043c-1.3,1.392-1.083,3.695,0.317,4.993c0.204,0.193,0.425,0.354,0.658,0.484
							C388.671,405.142,388.64,403.053,389.89,401.703z"/>
					</g>
				</g>
				<g>
					<g>
						<path fill="#231F20" d="M391.807,402.97c0,0-2.415,1.202-1.428,0.218c0,0,0.625,0.074-0.268-1.1c0,0,1.205-0.479,1.252-1.179
							c0,0,0.636,0.7,0.794,0.805c0,0,1.154-0.011,0.732,1.161C392.889,402.876,392.458,402.626,391.807,402.97z"/>
					</g>
				</g>
			</g>
			<g>
				<g>
					<g>
						<g>
							<path fill="#FFFFFF" d="M407.245,398.943c0,1.912-1.662,3.456-3.715,3.456c-2.048,0-3.713-1.544-3.713-3.456
								c0-1.912,1.665-3.457,3.713-3.457C405.583,395.486,407.245,397.031,407.245,398.943z"/>
						</g>
					</g>
					<g>
						<g>
							<path fill="#231F20" d="M403.53,402.717c-2.223,0-4.032-1.693-4.032-3.774c0-2.083,1.809-3.777,4.032-3.777
								c2.224,0,4.033,1.694,4.033,3.777C407.563,401.024,405.754,402.717,403.53,402.717z M403.53,395.803
								c-1.87,0-3.394,1.409-3.394,3.14c0,1.73,1.524,3.137,3.394,3.137c1.872,0,3.397-1.406,3.397-3.137
								C406.926,397.212,405.402,395.803,403.53,395.803z"/>
						</g>
					</g>
				</g>
				<g>
					<g>
						<path fill="#231F20" d="M403.578,396.63c1.75,0,3.218,1.126,3.608,2.646c0.006-0.062,0-0.125,0.009-0.182
							c0.3-2.096-1.669-3.64-3.722-3.64c-2.051,0-3.709,1.73-3.709,3.64c0,0.282,0.043,0.552,0.105,0.807
							C399.973,398.079,401.595,396.63,403.578,396.63z"/>
					</g>
				</g>
			</g>
			<g>
				<g>
					<g>
						<g>
							<path fill="#FFFFFF" d="M405.02,402.373c0,1.908-1.664,3.458-3.717,3.458c-2.049,0-3.712-1.55-3.712-3.458
								c0-1.914,1.663-3.459,3.712-3.459C403.356,398.914,405.02,400.459,405.02,402.373z"/>
						</g>
					</g>
					<g>
						<g>
							<path fill="#231F20" d="M401.303,406.15c-2.223,0-4.032-1.694-4.032-3.777s1.809-3.778,4.032-3.778
								c2.225,0,4.036,1.695,4.036,3.778S403.528,406.15,401.303,406.15z M401.303,399.233c-1.871,0-3.394,1.409-3.394,3.14
								c0,1.73,1.523,3.14,3.394,3.14c1.874,0,3.399-1.411,3.399-3.14C404.702,400.642,403.177,399.233,401.303,399.233z"/>
						</g>
					</g>
				</g>
				<g>
					<g>
						<path fill="#231F20" d="M401.353,400.057c1.753,0,3.22,1.129,3.61,2.645c0.006-0.062-0.003-0.121,0.006-0.18
							c0.296-2.096-1.669-3.642-3.72-3.642c-2.051,0-3.705,1.728-3.705,3.642c0,0.28,0.034,0.55,0.1,0.805
							C397.752,401.51,399.369,400.057,401.353,400.057z"/>
					</g>
				</g>
				<g>
					<g>
						<path fill="#231F20" d="M400.507,402.702c0,0,1.192-0.557,1.192-1.058c0,0,0.921-0.932,0.876,0.464
							c0,0-0.505,0.37,0.946,0.619c0,0-0.997,0.903,0.431,0.402c0,0-0.984,0.771-0.541,1.317c0,0-0.941-0.084-1.133-0.052
							c0,0-0.837,0.798-1.326-0.347C400.951,404.05,400.262,403.402,400.507,402.702z"/>
					</g>
				</g>
			</g>
			<g>
				<g>
					<g>
						<g>
							<path fill="#FFFFFF" d="M402.483,405.742c0,2.372-2.088,4.289-4.661,4.289c-2.582,0-4.668-1.917-4.668-4.289
								c0-2.371,2.087-4.294,4.668-4.294C400.396,401.448,402.483,403.371,402.483,405.742z"/>
						</g>
					</g>
					<g>
						<g>
							<path fill="#231F20" d="M397.822,410.349c-2.749,0-4.987-2.067-4.987-4.606c0-2.543,2.238-4.614,4.987-4.614
								c2.745,0,4.98,2.071,4.98,4.614C402.803,408.282,400.568,410.349,397.822,410.349z M397.822,401.767
								c-2.397,0-4.347,1.782-4.347,3.975c0,2.189,1.95,3.97,4.347,3.97c2.394,0,4.343-1.781,4.343-3.97
								C402.165,403.549,400.216,401.767,397.822,401.767z"/>
						</g>
					</g>
				</g>
				<g>
					<g>
						<path fill="#231F20" d="M397.882,402.868c2.2,0,4.045,1.4,4.539,3.286c0-0.072,0-0.15,0-0.23c0-2.369-2.042-4.493-4.62-4.493
							c-2.572,0-4.709,2.124-4.709,4.493c0,0.349,0.047,0.682,0.131,1.008C393.351,404.67,395.387,402.868,397.882,402.868z"/>
					</g>
				</g>
				<g>
					<g>
						<path fill="#231F20" d="M395.443,405.216c0,0,1.485-1.234,1.485-1.854c0,0,1.171-0.618,1.108,1.112
							c0,0,0.864-1.296,0.802,0.557c0,0-0.245,1.051,1.544,0.432c0,0-1.853,1.23-1.294,1.917c0,0-1.36-1.298-1.417-0.062
							c0,0-1.055,0.984-1.677-0.431C395.995,406.888,395.132,406.083,395.443,405.216z"/>
					</g>
				</g>
			</g>
			<g>
				<g>
					<g>
						<g>
							<path fill="#FFFFFF" d="M384.16,410.754c1.599-1.075,3.876-0.697,5.083,0.852c1.207,1.545,0.902,3.665-0.692,4.74
								c-1.6,1.082-3.871,0.696-5.083-0.849C382.255,413.953,382.567,411.826,384.16,410.754z"/>
						</g>
					</g>
					<g>
						<g>
							<path fill="#231F20" d="M386.511,417.279c-1.283,0-2.514-0.593-3.294-1.588c-0.65-0.825-0.923-1.829-0.765-2.826
								c0.152-0.971,0.697-1.816,1.53-2.377c0.649-0.436,1.417-0.666,2.223-0.666c1.285,0,2.515,0.593,3.29,1.586
								c0.649,0.831,0.92,1.836,0.763,2.832c-0.153,0.968-0.696,1.81-1.528,2.37C388.083,417.048,387.316,417.279,386.511,417.279z
								 M386.205,410.46c-0.68,0-1.325,0.193-1.866,0.558c-0.686,0.461-1.132,1.152-1.257,1.945
								c-0.129,0.82,0.097,1.648,0.635,2.333c0.661,0.842,1.705,1.345,2.794,1.345c0.676,0,1.32-0.193,1.862-0.56
								c0.683-0.461,1.131-1.152,1.254-1.942c0.13-0.818-0.095-1.649-0.635-2.339C388.338,410.962,387.295,410.46,386.205,410.46z"
								/>
						</g>
					</g>
				</g>
				<g>
					<g>
						<path fill="#231F20" d="M384.202,411.259c1.599-1.074,3.872-0.691,5.082,0.856c0.379,0.479,0.606,1.01,0.695,1.555
							c0.005-0.727-0.232-1.466-0.736-2.109c-1.207-1.544-3.484-1.926-5.083-0.852c-1.1,0.741-1.587,1.984-1.386,3.19
							C382.78,412.875,383.269,411.888,384.202,411.259z"/>
					</g>
				</g>
			</g>
			<g>
				<g>
					<g>
						<g>
							<path fill="#FFFFFF" d="M389.538,414.088c1.596-1.077,3.872-0.697,5.084,0.851c1.211,1.547,0.898,3.67-0.696,4.746
								c-1.6,1.075-3.871,0.695-5.084-0.851C387.63,417.285,387.942,415.162,389.538,414.088z"/>
						</g>
					</g>
					<g>
						<g>
							<path fill="#231F20" d="M391.883,420.615c-1.283,0-2.512-0.591-3.292-1.585c-0.65-0.829-0.923-1.835-0.764-2.832
								c0.154-0.97,0.698-1.813,1.533-2.375c0.648-0.436,1.417-0.667,2.222-0.667c1.285,0,2.515,0.593,3.291,1.585
								c0.65,0.83,0.92,1.834,0.761,2.831c-0.152,0.971-0.695,1.817-1.53,2.377C393.457,420.385,392.69,420.615,391.883,420.615z
								 M391.581,413.794c-0.68,0-1.324,0.194-1.864,0.558c-0.688,0.463-1.134,1.153-1.26,1.945c-0.13,0.82,0.097,1.651,0.635,2.339
								c0.66,0.839,1.702,1.342,2.791,1.342c0.679,0,1.323-0.193,1.865-0.559c0.685-0.462,1.133-1.155,1.257-1.949
								c0.129-0.819-0.095-1.649-0.635-2.337C393.715,414.294,392.671,413.794,391.581,413.794z"/>
						</g>
					</g>
				</g>
				<g>
					<g>
						<path fill="#231F20" d="M389.579,414.6c1.593-1.079,3.871-0.698,5.081,0.853c0.375,0.479,0.605,1.012,0.696,1.557
							c0.006-0.728-0.232-1.469-0.733-2.113c-1.212-1.545-3.488-1.928-5.084-0.854c-1.102,0.746-1.586,1.986-1.388,3.192
							C388.155,416.213,388.644,415.226,389.579,414.6z"/>
					</g>
				</g>
			</g>
			<g>
				<g>
					<path fill="#231F20" d="M393.869,418.879c-1.599,1.079-3.877,0.697-5.088-0.851c-0.404-0.515-0.637-1.101-0.71-1.686
						c-0.109,0.839,0.12,1.736,0.71,2.493c1.211,1.545,3.49,1.926,5.088,0.851c1.055-0.711,1.545-1.887,1.4-3.056
						C395.158,417.508,394.676,418.333,393.869,418.879z"/>
				</g>
			</g>
			<g>
				<g>
					<g>
						<g>
							<path fill="#FFFFFF" d="M394.759,419.001c1.601-1.075,3.871-0.696,5.082,0.848c1.211,1.553,0.904,3.678-0.696,4.745
								c-1.595,1.079-3.87,0.698-5.081-0.85C392.853,422.199,393.165,420.075,394.759,419.001z"/>
						</g>
					</g>
					<g>
						<g>
							<path fill="#231F20" d="M397.104,425.525c-1.284,0-2.514-0.591-3.291-1.583c-0.649-0.831-0.919-1.836-0.762-2.831
								c0.152-0.97,0.696-1.813,1.529-2.375c0.649-0.435,1.417-0.665,2.222-0.665c1.284,0,2.512,0.591,3.289,1.581
								c0.654,0.836,0.924,1.846,0.763,2.847c-0.156,0.966-0.698,1.803-1.533,2.359
								C398.678,425.296,397.909,425.525,397.104,425.525z M396.802,418.71c-0.677,0-1.323,0.191-1.865,0.556
								c-0.685,0.462-1.132,1.152-1.258,1.945c-0.129,0.82,0.097,1.649,0.635,2.339c0.656,0.837,1.699,1.339,2.79,1.339
								c0.677,0,1.323-0.193,1.861-0.558c0.686-0.458,1.133-1.143,1.261-1.932c0.131-0.822-0.094-1.658-0.638-2.354
								C398.933,419.209,397.891,418.71,396.802,418.71z"/>
						</g>
					</g>
				</g>
				<g>
					<g>
						<path fill="#231F20" d="M394.801,419.507c1.595-1.069,3.868-0.689,5.082,0.856c0.373,0.482,0.604,1.013,0.695,1.554
							c0.005-0.726-0.234-1.465-0.737-2.106c-1.211-1.546-3.481-1.929-5.082-0.852c-1.102,0.739-1.589,1.984-1.389,3.187
							C393.379,421.125,393.869,420.141,394.801,419.507z"/>
					</g>
				</g>
			</g>
			<g>
				<g>
					<path fill="#231F20" d="M399.083,423.796c-1.595,1.074-3.866,0.691-5.078-0.853c-0.408-0.519-0.639-1.103-0.711-1.694
						c-0.11,0.846,0.116,1.739,0.711,2.495c1.212,1.548,3.483,1.928,5.078,0.85c1.061-0.71,1.552-1.89,1.404-3.051
						C400.379,422.424,399.9,423.244,399.083,423.796z"/>
				</g>
			</g>
			<g>
				<g>
					<g>
						<g>
							<g>
								<path fill="#FFFFFF" d="M392.187,410.469c1.737-1.249,4.213-0.803,5.536,0.989c1.317,1.798,0.979,4.268-0.76,5.519
									c-1.734,1.252-4.215,0.805-5.535-0.988C390.108,414.188,390.444,411.719,392.187,410.469z"/>
							</g>
						</g>
						<g>
							<g>
								<path fill="#231F20" d="M394.745,418.007c-1.394,0-2.731-0.683-3.572-1.829c-0.71-0.968-0.999-2.136-0.816-3.29
									c0.173-1.091,0.758-2.042,1.644-2.68c0.698-0.501,1.529-0.768,2.402-0.768c1.394,0,2.73,0.683,3.576,1.829
									c0.706,0.963,0.996,2.128,0.813,3.283c-0.173,1.092-0.757,2.046-1.643,2.683
									C396.452,417.74,395.621,418.007,394.745,418.007z M394.404,410.079c-0.739,0-1.441,0.224-2.031,0.648
									c-0.747,0.539-1.24,1.34-1.386,2.261c-0.157,0.986,0.092,1.985,0.698,2.813c0.723,0.981,1.869,1.568,3.06,1.568
									c0.739,0,1.442-0.225,2.031-0.65c0.748-0.536,1.24-1.341,1.387-2.265c0.155-0.984-0.092-1.981-0.697-2.806
									C396.741,410.666,395.597,410.079,394.404,410.079z"/>
							</g>
						</g>
					</g>
					<g>
						<g>
							<path fill="#231F20" d="M392.228,411.063c1.74-1.248,4.216-0.805,5.54,0.992c0.403,0.555,0.659,1.176,0.757,1.804
								c0.004-0.838-0.254-1.704-0.801-2.448c-1.324-1.797-3.799-2.241-5.536-0.988c-1.205,0.857-1.736,2.304-1.516,3.705
								C390.679,412.943,391.212,411.795,392.228,411.063z"/>
						</g>
					</g>
				</g>
				<g>
					<g>
						<path fill="#231F20" d="M397.572,412.878c0,0-0.557,1.949-2.594,2.319c0,0-1.3,1.252-3.013,0.182c0,0-0.649-1.018-0.51-1.804
							c0,0,0.971-2.506,3.335-1.205c0,0,1.023-1.069,1.949,1.02C396.739,413.391,396.225,412.137,397.572,412.878z"/>
					</g>
				</g>
			</g>
			<g>
				<g>
					<path fill="#231F20" d="M397.088,416.297c-1.737,1.251-4.219,0.801-5.536-0.989c-0.651-0.882-0.894-1.928-0.774-2.913
						c-0.415,1.194-0.241,2.584,0.589,3.714c1.315,1.796,3.798,2.24,5.536,0.989c0.882-0.634,1.403-1.588,1.528-2.608
						C398.188,415.2,397.737,415.831,397.088,416.297z"/>
				</g>
			</g>
			<g>
				<g>
					<g>
						<g>
							<path fill="#FFFFFF" d="M398.658,415.661c1.999-1.249,4.847-0.807,6.356,0.991c1.519,1.797,1.131,4.265-0.866,5.517
								c-1.996,1.247-4.843,0.804-6.364-0.992C396.276,419.381,396.661,416.909,398.658,415.661z"/>
						</g>
					</g>
					<g>
						<g>
							<path fill="#231F20" d="M401.598,423.193c-1.578,0-3.093-0.676-4.055-1.81c-0.793-0.942-1.129-2.087-0.951-3.221
								c0.18-1.135,0.854-2.119,1.898-2.77c0.794-0.497,1.732-0.759,2.722-0.759c1.579,0,3.093,0.679,4.048,1.814
								c0.794,0.939,1.133,2.08,0.956,3.215c-0.178,1.135-0.851,2.12-1.898,2.776C403.525,422.932,402.585,423.193,401.598,423.193z
								 M401.212,415.271c-0.868,0-1.691,0.228-2.384,0.661c-0.887,0.554-1.456,1.381-1.606,2.329
								c-0.151,0.95,0.136,1.912,0.809,2.711c0.839,0.993,2.176,1.584,3.567,1.584c0.867,0,1.69-0.227,2.381-0.659
								c0.887-0.556,1.456-1.386,1.606-2.335c0.149-0.948-0.14-1.908-0.814-2.704C403.936,415.863,402.606,415.271,401.212,415.271z
								"/>
						</g>
					</g>
				</g>
				<g>
					<g>
						<path fill="#231F20" d="M398.707,416.255c1.999-1.251,4.844-0.807,6.363,0.991c0.466,0.555,0.752,1.175,0.865,1.807
							c0.007-0.844-0.286-1.706-0.92-2.452c-1.509-1.793-4.358-2.235-6.356-0.991c-1.378,0.864-1.99,2.307-1.737,3.711
							C396.928,418.133,397.544,416.985,398.707,416.255z"/>
					</g>
				</g>
			</g>
			<g>
				<g>
					<path fill="#231F20" d="M404.269,421.487c-1.991,1.251-4.837,0.807-6.359-0.992c-0.651-0.771-0.947-1.673-0.918-2.547
						c-0.306,1.104-0.064,2.333,0.792,3.354c1.521,1.797,4.368,2.234,6.364,0.99c1.131-0.708,1.746-1.818,1.79-2.971
						C405.702,420.172,405.137,420.942,404.269,421.487z"/>
				</g>
			</g>
			<g>
				<g>
					<path fill="#231F20" d="M403.239,417.967c0,0-0.422,1.32-1.964,1.569c0,0-0.98,0.845-2.276,0.127c0,0-0.489-0.687-0.381-1.221
						c0,0,0.732-1.695,2.52-0.817C401.137,417.624,402.223,417.469,403.239,417.967z"/>
				</g>
			</g>
			<g>
				<g>
					<path fill="#231F20" d="M400.833,408.509c-1.99,1.171-4.834,0.755-6.351-0.93c-0.949-1.058-1.143-2.365-0.676-3.48
						c-1.07,1.245-1.078,2.994,0.134,4.349c1.516,1.682,4.36,2.1,6.349,0.926c0.743-0.436,1.261-1.03,1.544-1.698
						C401.567,407.995,401.234,408.275,400.833,408.509z"/>
				</g>
			</g>
		</g>
	</g>
	<g>
		<path fill="#231F20" d="M405.9,231.294c0,5.259-3.046,9.517-6.799,9.517c-3.749,0-6.794-4.258-6.794-9.517
			c0-5.252,3.045-9.511,6.794-9.511C402.853,221.783,405.9,226.043,405.9,231.294z"/>
	</g>
</g>
</svg>
