<?xml version="1.0" encoding="utf-8"?>
<!-- Generator: Adobe Illustrator 17.0.0, SVG Export Plug-In . SVG Version: 6.00 Build 0)  -->
<!DOCTYPE svg PUBLIC "-//W3C//DTD SVG 1.1//EN" "http://www.w3.org/Graphics/SVG/1.1/DTD/svg11.dtd">
<svg version="1.1" id="Layer_1" xmlns="http://www.w3.org/2000/svg" xmlns:xlink="http://www.w3.org/1999/xlink" x="0px" y="0px"
	 width="800px" height="600px" viewBox="0 0 800 600" enable-background="new 0 0 800 600" xml:space="preserve">
<g>
	<g>
		<ellipse fill="#231F20" cx="399.169" cy="456.43" rx="65.043" ry="24.516"/>
	</g>
	<g>
		<path fill="#231F20" d="M461.145,296.048c1.02-13.279-7.152-15.32-7.152-15.32c-50.054-19.409-28.603-61.805-28.603-61.805
			c8.685-14.302-6.127-25.028-6.127-25.028l-2.044-60.27c-4.222-1.253-8.409-1.872-12.382-2.118l-0.003-0.126
			c-0.484,0.012-1.076,0.027-1.72,0.047c-0.32-0.01-0.649-0.04-0.961-0.047v0.082c-5.871,0.216-16.03,0.854-20.432,2.162
			l-2.039,60.27c0,0-14.814,10.726-6.132,25.028c0,0,21.451,42.396-28.603,61.805c0,0-8.169,2.041-7.149,15.32l-0.51,153.74
			c0,0,28.752,18.267,68.487,16.479c39.028,1.788,55.88-16.479,55.88-16.479L461.145,296.048z"/>
	</g>
	<g>
		<path fill="#FFFFFF" d="M419.928,223.165c0,0-17.151-7.769-38.3-0.726c0,0,6.22,8.279-0.318,24.124c0,0,23.827-9.176,37.958,1.213
			C419.268,247.778,412.175,235.37,419.928,223.165z"/>
	</g>
	<g>
		<path fill="#FFFFFF" d="M357.973,274.851c0,0,52.611,16.6,80.957-0.255c0,0,7.405,3.321,10.724,6.132
			c0,0-39.199,23.24-98.193-2.046L357.973,274.851z"/>
	</g>
	<g>
		<path fill="#FFFFFF" d="M415.433,177.294c0,7.62-6.173,13.792-13.79,13.792h-5.106c-7.617,0-13.792-6.172-13.792-13.792l0,0
			c0-7.615,6.175-13.792,13.792-13.792h5.106C409.26,163.502,415.433,169.679,415.433,177.294L415.433,177.294z"/>
	</g>
	<g>
		<path fill="#FFFFFF" d="M345.76,322.614c0,0,55.371,20.885,107.719-0.825l2.475,132.452c0,0-40.671,30.504-111.569-0.548
			L345.76,322.614z"/>
	</g>
	<g>
		<ellipse fill="#FFFFFF" cx="399.551" cy="321.307" rx="54.136" ry="11.816"/>
		<path fill="#231F20" d="M399.551,334.39c-26.858,0-55.404-4.587-55.404-13.084c0-8.5,28.546-13.086,55.404-13.086
			c26.858,0,55.405,4.586,55.405,13.086C454.955,329.804,426.409,334.39,399.551,334.39z M399.551,310.757
			c-32.755,0-52.868,6.144-52.868,10.55c0,4.403,20.113,10.548,52.868,10.548s52.868-6.144,52.868-10.548
			C452.419,316.901,432.306,310.757,399.551,310.757z"/>
	</g>
	<g>
		<path fill="#231F20" d="M454.47,435.243c0,7.616-7.166,13.792-16.005,13.792h-78.833c-8.839,0-16.001-6.176-16.001-13.792v-83.767
			c0-7.615,7.162-13.789,16.001-13.789h78.833c8.839,0,16.005,6.174,16.005,13.789V435.243z"/>
	</g>
	<g>
		<path fill="#FFFFFF" d="M449.872,432.348c0,7.088-6.671,12.836-14.898,12.836h-73.383c-8.227,0-14.898-5.748-14.898-12.836
			v-77.977c0-7.088,6.67-12.836,14.898-12.836h73.383c8.227,0,14.898,5.748,14.898,12.836V432.348z"/>
	</g>
	<g>
		<g>
			<path fill="#FFFFFF" d="M413.143,251.121c-0.64,1.543-6.32,0.448-12.973,0.443c-6.653-0.002-12.333,1.1-12.974-0.443
				c-0.639-1.54,5.019-5.604,12.974-5.599C408.125,245.524,413.782,249.58,413.143,251.121z"/>
		</g>
	</g>
	<g>
		<path fill="#FFFFFF" d="M388.942,270.45c-1.968,2.313-2.713,4.906-1.673,5.79c1.04,0.882,3.479-0.275,5.442-2.588
			c1.965-2.316,2.712-4.909,1.67-5.793C393.342,266.978,390.905,268.137,388.942,270.45z"/>
	</g>
	<g>
		<path fill="#FFFFFF" d="M396.538,273.351c-1.498,1.763-2.067,3.74-1.273,4.411c0.79,0.671,2.647-0.213,4.146-1.974
			c1.498-1.763,2.064-3.737,1.272-4.411C399.889,270.703,398.035,271.587,396.538,273.351z"/>
	</g>
</g>
</svg>
