<?xml version="1.0" encoding="utf-8"?>
<!-- Generator: Adobe Illustrator 17.0.0, SVG Export Plug-In . SVG Version: 6.00 Build 0)  -->
<!DOCTYPE svg PUBLIC "-//W3C//DTD SVG 1.1//EN" "http://www.w3.org/Graphics/SVG/1.1/DTD/svg11.dtd">
<svg version="1.1" id="Layer_1" xmlns="http://www.w3.org/2000/svg" xmlns:xlink="http://www.w3.org/1999/xlink" x="0px" y="0px"
	 width="800px" height="600px" viewBox="0 0 800 600" enable-background="new 0 0 800 600" xml:space="preserve">
<path fill="#FFFFFF" d="M511.594,571.275l-3.792-31.292l23.253-21.465l17.396-27.47l25.331-62.034l3.565-14.051l3.887,14.814
	l29.476,1.297l17.518-20.195l-2.197-6.013l2.197-1.304l3.738,6.569l9.421,7.06l29.007-16.921l1.358-10.273l-15.718-32.352
	L618.108,378.5l-1.56,0.421l-32.225-3.118l5.454-12.271l58.23-40.212l28.519-8.139l15.389-18.903c0,0-6.624-0.718-8.823,0
	c-2.199,0.718-17.566,9.343-17.566,9.343l-25.044,3.635l18.252-15.977c0,0,3.952-15.781-1.133-34.72l-8.305-16.117l-3.868,1.179
	l-8.601-12.56l-4.535-11.74l-3.881,5.565l2.512,30.157c0,0-7.848-10.551-28.922-12.665l-19.942-8.924c0,0-1.914,8.421,0,10.661
	c1.915,2.24,30.636,17.201,30.636,17.201l-1.641,17.551l-21.188,10.503l-7.023-3.135l-0.453-20.978c0,0,0.644-17.694-3.689-20.529
	c-4.332-2.836-5.331,0.832-5.331,0.832l-3.206,26.84l-4.763,28.44l-10.004,32.143l-3.531,14.698l-43.871,18.85l-21.037-11.185
	l-10.647-31.977c0,0-11.897-18.691-35.757-31.151v-61.504l5.655-8.31c0,0,62.962-27.568,77.588-38.76
	c14.626-11.192,79.375-61.588,88.81-86.543c9.435-24.955,9.59-48.548-43.189-48.531L458.067,59.714l-9.294-11.142L419.917,26.85
	c0,0-23.37-11.665-47.229-3.977c-23.859,7.688-57.345,16.899-66.302,33.607c-8.957,16.708-14.82,43.008-10.578,59.974l-1.409,7.952
	l1.934,4.86l3.981,9.113c0,0-27.911,49.259-51.96,67.869c0,0-45.074,44.509-44.54,50.923c0.533,6.414,0.534,15.648,21.211,16.466
	c20.678,0.818,91.665-6.395,111.578-16.707l-20.912,33.431l-44.538,113.73l-30.487,104.014c0,0-13.195,43.573,27.041,34.105
	c0,0,77.217-11.188,94.413-21.5l-2.52,15.003l-14.482,21.181l-6.362,14.38H511.594z"/>
<g>
	<path fill="#FFFFFF" d="M541.919,389.087l17.945-74.688l5.373-12.319l4.57-34.078c0,0,1.759-21.663,6.555-23.866
		c4.797-2.204,8.403,16.851,5.49,24.186l1.777,14.605l3.193,5.615l4.357,0.792l19.877-10.465l1.64-17.551l-25.857-11.054
		c0,0-8.791-7.923-5.394-14.256l14.368,3.867l27.734,9.466c0,0,8.65,3.052,7.79,8.573l-2.859-19.819c0,0-2.988-15.883,3.814-18.773
		l13.136,24.299c0,0,8.335-2.865,9.651,1.418c1.318,4.285,6.207,44.99,6.207,44.99s-17.645,14.2-19.926,18.003
		c-2.281,3.801-5.143,3.005-5.143,3.005l30.992-4.315c0,0,15.656-13.495,23.127-9.302c0,0-11.345,18.213-16.047,18.939l-28.208,7.29
		l-56.054,38.271l-6.198,12.003"/>
	<path d="M578.025,331.803c-9.137,2.315-11.894,22.046-11.894,22.046c-0.538-12.251,4.272-19.066,8.679-23.105
		c3.55-3.255,35.06-9.486,48.8-12.558C605.687,323.625,583.374,330.45,578.025,331.803z"/>
	<path fill="#FFFFFF" d="M632.571,308.07l-3.355-0.739l-4.062,3.849C625.154,311.18,635.927,308.809,632.571,308.07z"/>
	<path d="M335.733,452.152c0,0,0.188-0.335,0.51-0.919c4.216-0.158,8.918-0.352,13.793-0.561
		C342.757,451.351,337.114,451.905,335.733,452.152z"/>
	<path d="M427.552,208.772c0-0.001-3.811,5.155-5.494,5.209c-1.686,0.053-5.813,5.024-7.36,5.567
		c-2.714,2.764-15.451,3.946-21.516,1.612c-2.28-0.876-6.492-3.837-9.048-4.442c-3.605-0.855-5.576-3.015-8.111-5.506
		c-0.886-0.873-3.353-2.995-2.386-3.753c0.966-0.758,3.953,0.04,3.953,0.04s0.66,3.305,1.933,4.037
		c1.274,0.734,13.904,5.3,13.904,5.3s12.885,0.49,15.241-0.764c2.36-1.255,15.165-6.906,15.165-6.906l1.786-3.14l2.509,0.399
		L427.552,208.772z"/>
	<g>
		<path fill="#F5F5F5" d="M401.473,209.844l-24.293-2.33c0,0-0.887,4.864,2.266,5.055c0,0,1.499,2.543,5.347,2.605
			c0,0,1.247,2.134,4.743,2.208c0,0,1.053,2.355,4.567,1.565c0,0,3.622,2.951,7.715-0.184c4.274,2.521,7.412-0.401,7.412-0.401
			c3.289,0.833,4.725-1.918,4.725-1.918c3.487-0.343,4.566-2.571,4.566-2.571c3.83-0.356,5.124-3.005,5.124-3.005
			c3.129-0.434,2.646-4.62,2.646-4.62L401.473,209.844z"/>
		<path fill="none" stroke="#000000" stroke-width="0.2917" stroke-miterlimit="10" d="M396.824,210.51l23.645-2.704
			c0,0-2.419,1.241-2.63,2.765c0,0-3.992-1.904-4.756,1.521c0,0-2.43-2.259-3.944,1.227c0,0-3.978-3.454-7.262,1.454h-0.006
			c-3.739-4.555-7.369-0.715-7.369-0.715c-1.839-3.319-4.038-0.828-4.038-0.828c-1.092-3.331-4.882-1.034-4.882-1.034
			c-0.354-1.497-2.863-2.271-2.863-2.271s-1.192-0.256-1.69-0.236c0,0-0.386-1.396-1.251-2.275L396.824,210.51z"/>
	</g>
	<path d="M384.85,142.289c-2.937-1.826-13.076-7.911-21.237-10.221c-3.847-1.088-10.813,1.45-15.458,11.309
		c0,0,4.43-13.149,13.332-13.154c8.903,0,15.579,4.789,22.103,6.824c0,0,2.638,1.819,2.393,4.54
		C385.947,141.978,385.386,142.62,384.85,142.289z"/>
	<path d="M417.824,140.992c2.784-2.05,12.412-8.913,20.368-11.854c3.749-1.386,10.894,0.596,16.299,10.061
		c0,0-5.448-12.763-14.325-12.066c-8.873,0.696-15.154,5.996-21.497,8.537c0,0-2.489,2.019-2.03,4.714
		C416.704,140.77,417.314,141.367,417.824,140.992z"/>
	<path d="M374.423,154.158c-0.994-0.741-4.27-2.039-6.384-0.733c5.39-0.008,5.995,3.272,6.505,5.616
		c0.084,0.392-0.283,0.738-0.481,1.07c0.117-0.333,0.195-0.681,0.201-1.053c0.025-1.825-1.435-3.324-3.26-3.349
		c-1.823-0.025-3.325,1.434-3.35,3.258c-0.026,1.826,1.437,3.326,3.263,3.352c0.042,0,0.081-0.012,0.125-0.013
		c-1.028,0.275-2.17,0.282-3.315-0.037c-1.067-0.303-1.982-0.854-2.694-1.553c0.357,1.212,0.909,2.641,2.178,3.136
		c2.992,1.165,6.462,1.437,8.453-1.24C377.658,159.938,377.103,156.151,374.423,154.158z"/>
	<path fill="none" stroke="#000000" stroke-width="0.5088" stroke-miterlimit="10" d="M376.968,159.095
		c-0.047,3.431-3.002,5.453-6.433,5.404c-3.433-0.045-6.04-2.143-5.991-5.573c0.046-3.43,2.863-6.174,6.293-6.128
		C374.271,152.843,377.015,155.663,376.968,159.095z"/>
	<path fill="#FFFFFF" d="M371.185,157.661c-0.136,1.509,0.975,2.847,2.485,2.987c1.511,0.137,2.85-0.975,2.99-2.485
		c0.136-1.512-0.977-2.849-2.485-2.986C372.662,155.037,371.323,156.147,371.185,157.661z"/>
	<g>
		<path d="M378.285,151.142c0,0-10.706-6.877-18.702-2.794c-5.234,2.675-4.889,4.732-4.889,4.732s0.272-3.003,4.132-5.25
			C366.607,143.298,375.914,149.094,378.285,151.142z"/>
		<g>
			<path d="M355.199,156.772c-1.923,0.138-3.138-2.188-3.138-2.188c3.819,1.201,5.881-0.553,5.881-0.553
				c-3.064-0.426-2.844-2.188-2.844-2.188c0.269,0.225,1.333,0.943,3.4,0.56c0.833-0.154,1.043-0.238,1.671-0.556
				c-0.989-0.462-2.224-1.75-2.224-1.75c1.547,0.662,2.544,0.31,3.86,0.241c16.479-6.962,19.093,7.075,23.198,9.596
				c0.521,0.321,1.28,0.678,1.536,1.889c0.098,0.454-0.185,0.728-0.621,0.891c0.044-0.029,0.092-0.06,0.114-0.108
				c0.607-1.447-1.496-2.351-1.496-2.351s-0.839-0.254-1.89-1.378c0.129,0.357,0.228,0.831,0.258,1.499
				c0.058,1.466-1.05,2.473-1.894,3.026c0.471-0.082,0.735-0.141,0.735-0.141s-0.549,0.284-1.655,0.638
				c0,0.002-0.01,0.006-0.01,0.006v-0.003c-1.066,0.341-2.646,0.75-4.774,1.037c-5.977,0.808-11.174-1.586-11.71-1.977
				c-1.184-0.862-4.271-0.094-4.271-0.094c1.415-1.309,2.632-0.784,2.632-0.784s-0.887-0.761-1.559-1.065
				c-1.594-0.722-2.825,0.02-2.825,0.02c2.618-2.281,3.941,0.248,10.44,2.035c4.682,1.288,9.73,0.817,12.194,0.454
				c4.374-1.809,1.635-5.6,1.613-5.627c-1.485-1.751-4.088-5.658-8.407-6.228c-8.872-1.173-12.509,4.049-13.722,5.775
				c-0.376,0.633-0.865,1.86,0.319,2.716c0,0-1.226-0.278-0.867-2.11c0-0.003,0-0.003,0.001-0.005
				c-0.859,0.735-1.732,0.772-1.732,0.772c-4.214,0.714-8.299-1.807-8.299-1.807C354.252,158.072,355.199,156.772,355.199,156.772z"
				/>
			<path d="M385.533,162.819c0.138-0.028,0.267-0.063,0.386-0.105C385.827,162.777,385.699,162.811,385.533,162.819z"/>
			<path d="M385.533,162.819c-0.695,0.148-1.573,0.115-2.028,0.081c-0.873-0.066-1.758,0.361-1.758,0.361s1.05-0.643,1.599-0.692
				C383.747,162.536,384.867,162.852,385.533,162.819z"/>
		</g>
	</g>
	<path d="M433.615,152.444c-1.117-0.544-4.574-1.219-6.413,0.453c5.296-0.997,6.494,2.112,7.425,4.326
		c0.157,0.368-0.14,0.776-0.275,1.139c0.055-0.348,0.07-0.708,0.005-1.073c-0.31-1.798-2.021-3.003-3.818-2.692
		c-1.799,0.31-3.005,2.02-2.697,3.819c0.314,1.8,2.024,3.004,3.825,2.694c0.039-0.01,0.077-0.025,0.119-0.036
		c-0.957,0.459-2.081,0.677-3.261,0.571c-1.106-0.1-2.109-0.474-2.935-1.029c0.572,1.123,1.381,2.428,2.716,2.68
		c3.155,0.596,6.616,0.225,8.084-2.77C437.855,157.529,436.612,153.912,433.615,152.444z"/>
	<path fill="none" stroke="#000000" stroke-width="0.5088" stroke-miterlimit="10" d="M437.021,156.829
		c0.586,3.381-1.949,5.911-5.33,6.496c-3.381,0.585-6.328-0.995-6.916-4.377c-0.582-3.383,1.68-6.595,5.064-7.182
		C433.221,151.179,436.437,153.449,437.021,156.829z"/>
	<path fill="#FFFFFF" d="M431.075,156.481c0.142,1.51,1.48,2.62,2.99,2.48c1.512-0.142,2.624-1.481,2.482-2.992
		c-0.143-1.512-1.482-2.621-2.994-2.481C432.046,153.632,430.935,154.97,431.075,156.481z"/>
	<g>
		<path d="M423.362,150.029c0,0,10.692-6.892,18.691-2.822c5.238,2.667,4.899,4.725,4.899,4.725s-0.277-3.003-4.141-5.246
			C435.026,142.17,425.728,147.98,423.362,150.029z"/>
		<g>
			<path d="M446.622,155.475c1.919,0.136,3.247-2.62,3.247-2.62c-3.82,1.209-6.393,0.065-6.393,0.065
				c3.065-0.43,2.299-2.282,2.299-2.282c-0.271,0.224-0.528,1.335-2.398,0.871c-0.823-0.204-0.844-0.583-1.47-0.902
				c0.988-0.462,1.121-1.989,1.121-1.989c-0.9,1.083-2.586,1.244-3.903,1.179c-0.484-0.271-0.599-1.238-1.31-1.609
				c-12.421-5.11-17.348,7.145-21.163,10.649c-0.45,0.413-1.279,0.68-1.533,1.889c-0.099,0.457,0.185,0.732,0.622,0.893
				c-0.045-0.033-0.092-0.06-0.114-0.107c-0.61-1.447,1.488-2.357,1.488-2.357s0.841-0.257,1.888-1.38
				c-0.125,0.358-0.226,0.832-0.251,1.501c-0.056,1.467,1.051,2.472,1.9,3.022c-0.472-0.082-0.736-0.14-0.736-0.14
				s0.547,0.282,1.653,0.638c0.001-0.001,0.01,0.002,0.01,0.002l0,0c1.066,0.34,2.648,0.745,4.776,1.028
				c5.98,0.797,11.172-1.602,11.708-1.994c1.181-0.864,4.272-0.102,4.272-0.102c-1.416-1.305-2.633-0.779-2.633-0.779
				s0.887-0.76,1.555-1.068c1.595-0.726,2.825,0.018,2.825,0.018c-2.621-2.277-3.938,0.254-10.433,2.05
				c-4.68,1.295-9.734,0.834-12.198,0.473c-4.377-1.798-1.643-5.595-1.622-5.624c1.485-1.755,3.777-4.979,7.956-6.206
				c8.363-2.407,13.563,3.788,14.175,5.719c0.375,0.632,0.869,1.859-0.315,2.714c0,0,1.223-0.277,0.863-2.109
				c0-0.003-0.001-0.003-0.001-0.004c0.861,0.731,1.732,0.769,1.732,0.769c4.215,0.708,8.772-1.761,8.772-1.761
				C447.876,156.98,446.622,155.475,446.622,155.475z"/>
			<path d="M416.127,161.721c-0.135-0.027-0.266-0.061-0.385-0.104C415.835,161.678,415.962,161.713,416.127,161.721z"/>
			<path d="M416.127,161.721c0.7,0.147,1.573,0.113,2.031,0.078c0.874-0.068,1.759,0.357,1.759,0.357s-1.055-0.641-1.602-0.689
				C417.915,161.434,416.795,161.754,416.127,161.721z"/>
		</g>
	</g>
	<path d="M370.643,207.458c1.527,3.582,14.961,19.438,18.886,22.192c5.216,3.664,10.772,3.789,12.717,3.636
		c1.944,0.146,9.612,0.047,14.5-5.181c3.325-3.556,13.097-18.541,14.368-21.469c0.824,1.541,1.579,3.315,1.899,5.085
		c0,0-0.205-4.019-1.759-6.468c-1.559-2.45-5.362-5.018-3.23-3.275c0,0,1.512,1.803,2.897,4.302
		c-2.379-0.778-15.587-4.177-28.799-0.294h-0.298c-16.379-4.005-28.071,0.069-30.91,0.966c1.384-2.482,2.884-4.268,2.884-4.268
		c2.136-1.741-1.671,0.823-3.23,3.269c-1.56,2.448-1.77,6.466-1.77,6.466C369.114,210.696,369.838,208.972,370.643,207.458z
		 M374.299,208.494c-0.641-0.641,0.163-0.987,0.163-0.987l4.194,0.784c12.196,3.348,21.435,3.909,23.183,3.977l0.262,0.001
		c1.747-0.066,11.842-2.246,24.044-5.577l0.993-0.033c0,0,0.911,0.477,0.271,1.331c-2.646,3.545-10.107,12.87-16.781,14.943
		c-1.919,0.593-3.191,0.693-6.402,0.933l-4.12-0.009c-3.038-0.214-4.295-0.319-6.165-0.892
		C387.092,220.859,377.413,211.602,374.299,208.494z"/>
	<path fill="#F5F5F5" d="M412.967,205.972c0,0-3.702-0.362-5.742,1.724c-2.04,2.087,1.497,1.438,2.241,1.252
		c0.745-0.186,0.749-1.076,2.236-0.805C412.821,208.346,415.071,206.718,412.967,205.972z"/>
	<path fill="#F5F5F5" d="M413.664,223.929c0,0-2.156,1.784-4.251,2.127c-2.968,0.485-4.303,1.738-3.549,2.378
		c0.465,0.398,2.654,0.811,3.434,0.064c0.535-0.512,0.693-1.244,1.797-1.824c1.55-0.816,1.924-0.387,2.987-0.625
		c1.465-0.328,4.017-2.811,1.792-3.344C415.27,222.558,413.664,223.929,413.664,223.929z"/>
	<path d="M405.324,195.289c0,0,1.287-1.732,2.204-2.79c1.033-1.189,3.154-2.432,4.688-1.06c1.395,1.247,0.49,2.465-0.509,2.045
		c-1.003-0.417-3.397-0.642-4.44,0.639C407.267,194.124,404.017,196.808,405.324,195.289z"/>
	<g>
		<path d="M389.521,193.069c0.032-0.057,0.062-0.12,0.096-0.188c0.002-0.003,0.002-0.005,0.004-0.006
			c0.002-0.002,0.001-0.005,0.003-0.008c0.135-0.266,0.32-0.604,0.765-1.029c0.611-0.582,2.502-0.376,2.502-0.376
			c2.745,0.605,2.581,3.687,4.887,4.646c0.896,0.374,2.425,0.192,2.425,0.192c2.007,0.267-0.658,0.504-0.658,0.504
			c-0.635,0-2.078-0.001-4.47-1.972c-0.429-0.352-0.841-0.913-3.06-0.762C392.011,194.07,389.266,193.929,389.521,193.069z"/>
		<path d="M385.518,183.646c0,0-2.708,4.96-1.479,8.295c0.277,0.752,3.034,2.012,3.128,2.169c-1.243-0.313-2.92-0.88-3.565-2.069
			C381.73,188.589,385.518,183.646,385.518,183.646z"/>
	</g>
	<path d="M391.811,153.717c0,0,1.842,2.47,1.976,6.063c0.136,3.594-0.864,6.105-0.864,6.105S392.721,156.583,391.811,153.717z"/>
	<path d="M405.019,189.313c0,0-4.167,1.251-6.502,0.289c-2.335-0.96-4.324-1.962-4.324-1.962s1.698,1.446,4.507,2.768
		C401.511,191.728,404.308,189.429,405.019,189.313z"/>
	<g>
		<path d="M324.517,183.263C324.779,183.415,324.748,183.458,324.517,183.263L324.517,183.263z"/>
		<path d="M323.816,182.52c0.305,0.376,0.546,0.613,0.7,0.743c-0.032-0.019-0.066-0.039-0.109-0.06
			C324.228,183.105,324.028,182.867,323.816,182.52z"/>
	</g>
	<path d="M323.816,182.52c-1.24-1.536-3.489-5.43-4.854-14.202c0,0-0.408-11.643,1.441-12.491c-0.229-0.319-0.449-0.463-0.654-0.358
		c0,0,0.123-2.595,0.79-1.671c0,0,3.176,10.936,3.029,13.848c-0.148,2.91-0.888,7.128,0.847,8.413
		c1.737,1.288,5.087,11.377,3.215,10.711c-1.874-0.665-1.329-2.529-1.25-3.581c0.083-1.053-1.02-6.262-2.12-6.486
		c-1.099-0.226-2.559-6.562-1.669-8.528c0.657-1.461-0.424-8.165-1.622-11.218c-0.357,2.298-1.183,8.146-0.961,11.319
		C320.251,171.794,322.297,180.024,323.816,182.52z"/>
	<path d="M591.558,404.867c0.029,0.012,0.056,0.023,0.087,0.036C591.594,404.884,591.569,404.873,591.558,404.867z"/>
	<path d="M656.035,357.647L618.108,378.5l1.386,3.66c-0.34-0.895-0.827-0.612-1.124-0.314l-1.192-3.346l-32.648-2.075l0.511,3.006
		v7.408l-1.063,2.248l1.063,8.131l-1.063,1.335c0.264,0.026,0.499,0.054,0.755,0.081c0.032-0.615,0.352-1.132,1.09-1.48v-17.635
		l30.306,1.662l-7.18,18.468l-23.126-2.495l23.227,3.335l3.04,8.862l-16.445-1.82c-0.588,0.013-0.968,0.006-0.968,0.006
		l-3.032,2.366l20.796,0.138l14.232,0.093l-10.545-29.882l-30.539-1.721l-0.451-1.475l31.411,1.865l11.68,31.959h-22.491
		l-29.361-0.747l3.401,21.103l31.523,1.083l17.628-20.85l-2.079-5.83c0.265-0.503,0.832-0.674,1.261-0.721l2.244,5.926
		l41.399-20.846l-1.358,10.273l-29.007,15.863l-9.421-6.003l-1.613,0.712l11.034,6.349l30.064-16.165l1.512-11.639L656.035,357.647z
		 M610.71,431.075l-29.476-1.297l1.619-10.202l13.119-8.098h30.7L610.71,431.075z M619.469,378.5l36.264-19.191l0.108,0.203
		l-2.073,15.872l-19.485,10.219L619.469,378.5z M625.06,400.616l-4.731-13.274c0.282-1.146,1.128,0,1.128,0
		s-0.585-1.544-1.143-3.019l5.952,15.725C625.67,400.036,625.277,400.35,625.06,400.616z M631.108,409.485l-11.283-30.039
		l13.393,7.264l8.395,17.679L631.108,409.485z M642.608,403.907l-8.175-17.197l20.089-11.103l9.82,17.001l7.261-3.521
		L642.608,403.907z"/>
	<g>
		<g>
			
				<ellipse transform="matrix(0.9195 -0.3931 0.3931 0.9195 -46.4744 245.4545)" fill="none" stroke="#000000" stroke-width="3.3136" stroke-miterlimit="10" cx="576.113" cy="236.208" rx="4.172" ry="11.562"/>
			<g>
				
					<polygon fill="none" stroke="#000000" stroke-width="0.6478" stroke-linecap="round" stroke-linejoin="round" stroke-miterlimit="10" points="
					571.422,224.847 575.644,211.923 570.351,209.395 565.487,211.566 565.315,211.643 560.454,213.814 558.802,219.445 
					571.247,224.924 				"/>
				
					<line fill="none" stroke="#000000" stroke-width="0.6478" stroke-linecap="round" stroke-linejoin="round" stroke-miterlimit="10" x1="558.802" y1="219.445" x2="575.644" y2="211.923"/>
				
					<polyline fill="none" stroke="#000000" stroke-width="0.6478" stroke-linecap="round" stroke-linejoin="round" stroke-miterlimit="10" points="
					570.351,209.395 570.088,214.406 565.315,211.643 564.533,216.887 560.454,213.814 				"/>
				
					<polyline fill="none" stroke="#000000" stroke-width="0.6478" stroke-linecap="round" stroke-linejoin="round" stroke-miterlimit="10" points="
					570.088,214.406 571.333,224.887 564.533,216.887 				"/>
			</g>
		</g>
		<path d="M573.113,210.188l-0.184,0.438l2.635,1.322l-3.982,12.396l-3.338-9.117c-0.95-1.568-1.535-1.905-2.084-1.492
			c-0.494,0.37,0.202,2.333,0.202,2.333l4.272,8.427l-11.557-5.174l0.297-1.834l-0.297-0.463c0,0-1.401,0.622-0.953,3.004
			l12.465,5.419l1.164,0.062l0.668-1.131l4.039-12.457C576.462,211.923,575.047,209.74,573.113,210.188z"/>
	</g>
	<path d="M435.329,397.106c18.353,9.576,58.622,13.192,58.622,13.192l6.989-13.064c-73.142,15.9-97.463-89.082-97.463-89.082
		l-1.786,5.351c0,11.548,10.011,24.324,11.607,32.538c1.597,8.213-15.073-27.857-15.073-27.857
		c1.601,19.392,37.581,68.049,37.581,68.049c-17.214-7.569-25.481-43.469-22.91-24.386c1.608,11.926-15.984-36.248-15.984-36.248
		s-0.596,0.857-1.624,2.371c1.888,21.767,13.53,63.971,11.313,81.022c-0.732,5.632-0.944,35.951-0.944,35.951l5.547-0.336
		l71.986-19.009l4.394-8.012c-40.319,11.713-57.042,5.053-43.876,4.654c13.166-0.398,46.126-9.799,46.126-9.799
		c-5.985,0.956-32.16,0.222-48.52-4.965C424.954,402.294,416.974,387.53,435.329,397.106z"/>
	<polygon points="344.676,432.319 349.817,450.673 347.246,450.673 342.884,438.956 	"/>
	<path d="M401.69,504.99c0,0-23.5,50.045-44.136,61.652c-20.635,11.609-2.58-17.409,0-22.568c2.58-5.16,3.583-24.128,3.583-24.128
		l-2.646,3.614l5.843-4.585l-1.621,38.64c0,0,26.729-28.91,33.678-48.633L401.69,504.99z"/>
	<path d="M505.357,378.081l-4.418,5.241c0,0-34.495,8.696-61.069-14.292c-26.573-22.988-34.852-64.825-34.852-64.825
		s9.266,62.563,56.822,79.117c0,0,38.365,7.635,40.94,1.197C502.986,384.009,505.357,378.081,505.357,378.081z"/>
	<path d="M603.865,54.353c-4.11-1.908-9.342-3.286-15.839-4.038C594.248,51.313,599.491,52.678,603.865,54.353z"/>
	<path d="M690.823,296.833c0,0-5.876-3.433-14.346,2.639c-8.472,6.068-8.085,5.636-17.495,7.496c0,0-14.329,2.006-15.983,2.2
		c0,0,17.382-11.326,18.288-19.139c0.902-7.815-4.226-30.668-3.81-33.924c0.42-3.255-3.78-17.887-6.482-17.544
		c-1.3,0.165-1.698,3.88-1.698,3.88s-2.892,0.511-3.868,1.179l-0.697-1.349l-5.997-10.799c0,0,0.861-6.695-4.975-14.253
		c0,0-1.912-2.727-1.467,2.102c0,0,2.63,11.332,4.535,11.74c1.906,0.412,7.426,12.999,7.426,12.999s-3.788,3.777-4,13.264
		c-0.21,9.487,1.744,15.217,1.392,19.328c-0.353,4.113-6.017,12.542-5.924,15.358c0.094,2.82,3.266-1.388,3.912-2.311
		c0.646-0.924,5.511-8.535,5.511-8.535s-0.85-13.214-1.145-16.403c-0.291-3.189-1.787-8.593-1.926-9.379
		c-0.139-0.786,2.998-9.101,4.894-11.261c1.137-1.294,3.459,0.593,3.459,0.593s2.786,7.365,4.919,9.377
		c0,0,5.11,28.908,3.649,33.823c-1.46,4.917-7.565,12.517-17.633,20.118c-8.125,6.133-10.163,2.353-11.655,3.223
		c8.277,1.405,17.259-0.099,17.792-0.115c1.619-0.056,18.539-3.481,19.713-4.417c0,0,16.302-12.143,22.623-9.655l0.504,0.353
		c0,0-6.742,10.027-6.866,10.889c0,0-7.02,6.919-13.883,8.778c-7.814,2.124-21.268,4.9-23.506,6.563
		c-2.233,1.658-52.196,37.185-56.054,38.271c0,0-1.459,1.061-2.531,3.86c-0.668,1.741-2.656,5.052-3.667,8.143
		c-0.02,0.114-0.061,0.258-0.11,0.417c-0.908-1.947-2.198-3.686-3.938-5.02c-6.874-5.268-17.378-23.931-18.803-23.931
		c-0.554,0-3.405,0.306-7.968,1.382c2.21-9.116,6.886-30.357,12.033-41.965c3.63-8.189,6.423-47.879,6.683-50.221
		c0.263-2.338,2.832-9.949,4.727-8.395c1.896,1.555,9.662,8.824,5.938,19.068c0,0-0.309-0.218-1.741,0.847
		c-1.43,1.064,0.024,1.11,1.201,2.216c1.177,1.108,0.391,12.894-0.148,13.662c-0.54,0.771,3.066,5.128-0.089,8.658
		c-3.159,3.528-7.454,2.126-7.454,2.126s1.336,2.709,8.144-0.494c1.724-0.808,6.504-0.542,9.189-0.613
		c2.952,0.525,5.677,1.473,7.379,2.142c0,0,9.281,6.311,8.372,9.632c0,0,2.465-1.576-2.753-5.96l3.609,2.92
		c0,0,6.403,5.508,6.43,7.807c0,0,3.202,0.749-0.443-4.421c-3.644-5.172-16.489-11.712-16.494-11.716
		c-0.845-0.51-1.813-0.959-2.841-1.181c-3.252-0.699,7.694-5.114,9.173-5.915c0.939-0.509,6.939-3.499,11.205-5.617
		c-0.874-0.803-1.433-1.315-1.433-1.315l0.506-12.389c0,0,7.519-6.003,6.641-6.882c-0.879-0.879-8.33,1.135-8.33,1.135
		s-18.22-7.958-25.544-12.379c-5.422-3.274-5.129-9.04-4.855-10.967c2.201,1.747,4.736,3.325,6.2,3.922
		c1.447,0.321,1.756-1.166,1.756-1.166c1.542,1.145,17.751,5.75,17.81,5.777c6.906,2.624,14.504,4.104,15.667,4.254
		c3.588,0.464,4.464,6.08,4.013,10.056l-0.583,20.737c0.189,1.314,0.138,2.705,0.017,3.877c-1.332-1.536-2.724-2.964-4.128-4.092
		c-3.961-3.183-0.199,0.444,4.033,6.371c0,0.007,0,0.016,0,0.021c0.001-0.004,0.006-0.009,0.009-0.012
		c2.833,3.972,5.878,8.97,6.958,13.651c0.124,0.542,0.114,1.125,0.324,1.657c2.107,5.352,1.749-4.627,1.749-4.627
		s-3.584-6.507-8.136-12.024c0.157-0.289,0.291-0.567,0.323-0.785c0.123-0.831,1.903-22.071,4.426-32.237
		c0,0-3.057-14.987-3.579-17.188c-0.525-2.202-1.919-9.76,3.319-15.425c0,0-9.424,1.051-3.379,20.225
		c0.636,4.423,0.717,8.653,0.52,12.484c-1.095-1.651-3.566-4.256-8.592-5.122c-7.547-1.3-31.272-9.025-31.272-9.025
		s-9.356-6.543-10.185-4.639c-0.21,0.477,0.323,1.224,1.274,2.081c0.249,0.226,0.514,0.455,0.786,0.681
		c-0.685,2.092-1.972,8.527,5.394,14.256c8.94,6.959,25.422,10.167,25.857,11.054c0.431,0.886,0.631,8.262-0.167,13.086
		c-0.542,3.268-1.657,4.896-2.355,5.765c-7.005,4.229-17.518,11.724-23.352,8.373c-2.58-1.481-2.506-4.274-3.193-5.615
		c-0.666-1.291-1.521-13.227,0.391-17.448c1.911-4.223,1.186-14.113-7.658-21.342c0,0-1.797-4.387-3.85-0.956
		c-2.052,3.43-2.467,21.905-2.467,21.905s-2.568,33.469-5.442,38.585c-10.501,18.677-12.433,35.904-14.609,43.864
		c-17.962,3.904-40.336,18.364-41.998,18.998l-8.943-4.869c-3.708-1.861-7.965-3.987-12.094-6.315
		c-0.324-12.702-8.972-34.722-8.972-34.722c-3.629-5.424-7.611-10.14-10.801-12.701c-9.038-7.63-16.439-14.488-25.791-17.42
		c0,0,0.805-53.844,1.019-61.398c0,0,7.353-11.23,12.453-28.019c0.729,5.233,2.878,13.806,9.228,17.196
		c9.421,5.03-5.597,14.89-7.81,20.323c-2.213,5.433,6.108,9.439,6.108,9.439c-13.315-16.703,22.817-16.982,4.679-33.273
		c-5.434-4.881-7.986-11.696-8.915-18.845c0,0,0.139-27.361,3.358-32.483c1.684-2.677,1.988-5.272,1.899-7.145
		c-0.207-1.622-0.489-2.822-0.489-2.822s0.409,1.111,0.489,2.822c0.314,2.469,0.447,5.927-0.892,7.685
		c-2.217,2.912-3.22,21.721-3.019,22.818c0.201,1.099,6.64-14.314,6.841-22.303c0,0,0.865,13.963-5.634,26.315l-2.554,5.113
		c12.314-15.219,13.218-31.06,13.231-35.164l0.425-0.721c15.758-15.309,9.179-44.271,9.179-44.271h-0.003
		c3.815-10.407,0.844-18.527-4.527-24.657c1.494-0.166,3.957-2.262,4.646-5.768c0,0-7.243,3.031-12.559-9.604
		c-4.938,2.336-10.199,4.947-15.7,7.77c0.571,1.435,1.371,3.326,1.017,4.686c-0.516-1.424-1.068-2.898-1.748-4.308
		c-0.542,0.279-1.081,0.555-1.628,0.838c0.232,1.118,0.38,2.25,0.347,3.396c-0.32-1.046-0.711-2.029-1.134-2.988
		c-0.633,0.328-1.27,0.663-1.908,0.997c0.127,1.137,0.232,2.283,0.297,3.457c-0.331-1.049-0.624-2.084-0.943-3.12
		c-0.685,0.358-1.374,0.72-2.063,1.084c0.052,0.987,0.047,1.958-0.124,2.797c-0.236-0.785-0.469-1.572-0.705-2.358
		c-9.572,5.062-19.674,10.625-29.917,16.417c-0.534,1.052-1.183,2.115-1.977,3.168c-2.517,3.342-4.889,7.142-8.14,9.767
		c-0.956,0.77-2.511,1.066-2.819,1.394c4.07-2.611,6.748-6.903,8.005-11.528c-0.845,0.481-1.69,0.964-2.537,1.448
		c-0.062,0.06-0.126,0.117-0.186,0.177c-3.08,3.146-5.807,6.389-9.469,8.922c-1.591,1.097-9.616,3.845-10.133,3.688
		c0.28-0.02,6.403-2.916,7.145-3.612c1.266-1.187,2.398-2.513,3.467-3.892c-13.542,7.847-26.931,15.813-39.23,23.239
		c14.718-1.463,28.892-5.765,39.742-9.886c0.852-0.407,19.881-9.642,21.074-24.696c0,0-0.283,9.968-5.309,17.086
		c2.664-3.119,5.794-7.744,7.142-13.409c0,0-2.813,18.412-7.767,23.875c-0.007,0.007-0.013,0.012-0.019,0.02
		c-6.821,9.517-18.843,14.448-26.898,16.807c23.152-4.44,39.758-20.018,39.758-20.018c-6.985,11.38-21.892,17.431-29.023,17.527
		c35.792,1.499,54.128-26.659,53.926-33.326c0.848,6.592,0.277,22.173-12.511,27.516c0,0,7.764-1.45,13.113-8.494
		c-4.426,8.992-7.954,10.199-9.218,10.189c0,0,1.955,1.722,12.548-7.997c-1.545,4.575-4.803,9.043-11.492,10.575
		c0,0,11.862,1.455,15.046-12.374c0,0,0.746,11.628-6.224,15.215c0,0,3.428-0.111,6.379-3.217
		c-1.128,5.508-1.668,14.166-1.736,15.354c-0.004,0.044-0.006,0.085-0.009,0.132v0.005c0,0,0,0,0,0.001
		c-0.021,0.504-0.008,1.069,0.091,1.606c0.028,0.16,0.139,0.624,0.277,1.347c0.365,5.633-0.16,15.792-0.752,24.194
		c-0.316,1.94-0.645,3.813-0.946,5.47c-2.468,10.446-7.15,23.312-15.749,38.313c-11.394,19.871-30.211,26.125-34.875,25.454
		c0,0-21.595-17.319-28.958-16.606c-2.444,0.236-4.976,0.428-7.277,0.581c0,0-14.434-7.92-21.593-21.641
		c-1.987-4.286-3.876-9.284-5.436-15.293c-2.621-10.108-7.245-14.468-7.018-40.035c0,0-1.825-3.479-1.829-6.656
		c0.921-1.192,1.807-2.427,2.675-3.675c-0.642,0.395-1.285,0.792-1.914,1.178c-0.29,0.704-0.533,1.255-0.686,1.534
		c-0.024,0.721-0.457,1.294-0.767,2.015c-0.483,1.125-1.345,2.45-1.403,3.727c0.346-0.414,0.843-0.857,1.26-1.234
		c0.735,1.887-0.357,5.169-1.027,7.006c-0.846,2.318-2.009,4.819-2.395,7.322c0.089-1.4,0.06-2.811,0.386-4.219
		c0.574-2.514,1.002-6.186,2.725-8.191c-1.491,2.091-3.053,4.12-4.307,6.403c-0.005-4.709,3.218-8.295,4.812-12.496
		c-1.063,1.742-2.548,2.948-3.996,4.516c-1.23,1.331-3.567,2.479-4.258,4.389c0.314,1.078,0.625,1.901,0.903,2.233
		c1.332,1.583,2.609,9.381,2.049,11.302c-0.212,0.743,3.695,13.524,3.695,13.528c0.483,1.781,0.762,3.205,0.579,3.82
		c0,0-4.619-1.975-8.659-8.191c-2.292-7.277-3.677-16.683-4.198-17.914c-0.242-0.569-0.591-2.807-0.634-5.53
		c-0.103,0.028-0.214,0.033-0.318,0.055c-5.805,3.624-10.282,6.446-13.078,8.215c7.756,28.128,27.141,36.871,32.742,39.841
		c0.222,0.13,0.636,0.477,1.147,0.945c0.28,2.254,0.266,4.38-0.209,6.183c-2.452,9.369-23.723-0.461-14.098,14.653
		c9.625,15.114,3.447,15.923,3.447,15.923s6.258,1.453,2.382-8.536c-3.874-9.991-2.552-14.937,4.58-14.511
		c3.935,0.235,7.296-3.37,7.533-10.151c2.367,2.409,4.69,4.871,4.692,4.881c3.265,11.377-1.053,23.693-1.402,25.254
		c0,0-31.685,22.801-47.639,76.486c-15.951,53.689-60.231,162.112-59.911,184.679c0.323,22.567-1.445,35.053,12.214,37.904
		c13.66,2.85,25.361-0.997,25.361-0.997l68.928-14.629h0.002l9.075-2.954l0,0c9.274-3.525,23.149-8.734,46.695-17.765
		c-1.162,0.395-2.337,0.79-3.517,1.185l34.591-13.363c-0.639,0.309-1.293,0.617-1.968,0.933c7.941-3.096,15.563-6.096,22.466-8.855
		l0.014-0.003c16.796-6.715,29.302-11.993,31.544-13.679c5.835-4.388,20.692-6.863,25.892-7.612
		c-1.688,9.681-7.905,45.81-10.405,67.074l0,0l-0.015,0.138c-0.21,1.789-0.393,3.467-0.543,5.02l-0.024,0.215
		c0.001,0,0.002-0.002,0.002-0.002c-0.225,2.349-0.382,4.406-0.443,6.051l-2.285,18.702c0.074-2.636,10.164-17.069,10.363-20.723
		c53.594-31.808,71.532-123.726,73.366-131.784c3.546-0.575,9.51,1.643,11.664-0.75c0,0,4.273-1.71,4.273-2.564
		c0-0.853,4.298-0.877,5.129-1.709c5.318-5.322-11.112-6.268-11.112-6.268l-5.621-1.427c2.72,0.703,2.962-1.239,2.962-1.239
		c0.015-0.045-1.805-7.868-1.644-8.434c1.132-3.866,1.211-8.722-0.272-12.9c1.741-4.06,7.233-12.126,7.233-12.126
		s49.891-33.933,56.45-40.356c9.727-1.648,26.283-6.96,26.283-6.96s5.195-2.113,9.313-7.513c0,0,5.248-2.915,11.088-11.502
		C694.691,297.346,693.672,294.94,690.823,296.833z M437.869,119.104c-1.55,3.117-4.353,5.677-7.197,7.572
		c-0.248,0.163-0.476,0.343-0.71,0.518c-0.579,0.522-1.193,0.999-1.819,1.447c-0.694,0.584,5.829-6.272,6.951-8.785
		c1.452-3.257,2.646-6.539,2.295-10.131c-1.047,2.156-1.305,4.43-2.833,6.421c-0.631,0.82-2.933,4.376-3.492,5.057
		c0.19-0.842,1.66-3.408,1.858-3.871c0.744-1.746,1.331-3.528,1.529-5.428c0.206-1.99-0.243-3.933-0.321-5.905
		c0.388,5.706-3.446,10.57-7.093,14.539c0.304-1.746,1.394-3.451,2.01-5.095c1.013-2.688,1.521-5.638,1.474-8.506
		c-0.028-1.729-0.132-3.489-0.468-5.196c1.468,3.213,2.028,7.192,2.028,7.192c1.314-7.084-1.288-12.826-1.288-12.826
		c4.164,4.606,5.33,13.994,5.33,13.994c1.562-6.043-2.555-12.295-2.555-12.295c3.555,4.07,4.464,10.015,4.464,10.015
		c0.271,0.636,0.483,1.293,0.659,2.075C439.354,112.865,439.242,116.334,437.869,119.104z M464.8,135.887
		c-0.051,16.266,4.213,20.146,6.407,21.067C463.574,156.127,464.8,135.887,464.8,135.887z M471.458,156.501
		c-4.017-3.521-3.825-12.223-3.27-17.516c-0.284,7.291,2.949,14.158,2.949,14.158c-0.444-3.109,2.012-14.476,2.173-12.582
		C473.435,141.99,472.116,151.77,471.458,156.501z M473.12,153.43c2.165-8.053,3.654-19.947,3.654-19.947
		C477.787,141.003,475.715,147.995,473.12,153.43z M476.945,98.788c0.509,0.077,2.568,6.675,2.702,8.615
		c0.178,2.585,0.042,5.58-0.903,8.027c-0.081-2.758,1.469-6.104-0.061-8.703c0.122,2.438-1.118,4.507-1.328,6.813
		c-0.363-2.83,0.116-5.866-0.196-8.744c-0.134,1.11-0.052,2.321-0.48,3.475c-0.418,1.117-1.12,2.248-1.565,3.298
		c-0.301-2.427,1.553-5.997-0.407-8.166c-0.014,1.141-0.471,2.508-0.711,3.641c-0.273,1.279-0.625,2.45-1.429,3.493
		c-0.461,0.597-1.034,1.026-1.387,1.713c0.046-0.827,0.443-1.68,0.613-2.505c0.382-1.839,0.55-3.89,0.364-5.756
		c-0.184-1.872-0.7-4.203-1.366-5.976c1.519,2.505,2.044,5.539,2.146,8.431c1.083-2.111,1.419-5.458,1.388-7.841
		c0.956,1.28,1.645,3.782,1.803,5.666c0.024-1.061,0.199-2.317,0.147-3.355c0.506,1.681,1.35,3.145,1.531,4.87
		C478.257,105.206,476.945,98.788,476.945,98.788z M470.226,88.13c-1.371-1.471-3.74-2.533-3.476-5.082
		c1.026,2.001,2.707,4.057,4.95,4.65c1.537,0.41,7.515,0.95,8.149-1.253c0,0,0.114,2.923-5.191,3.099
		c-3.072,0.103-8.706-0.052-9.044-4.122C466.703,86.789,468.392,88.155,470.226,88.13z M456.946,104.867
		c-1.04-2.248-3.004-5.428-5.803-4.665c0,0,2.9,3.616,3.192,5.161c0.608,3.22,1.094,8.515-0.401,11.529
		c-0.728-5.467,0.002-12.976-5.122-16.801c1.296,1.592,1.342,3.741,1.008,5.668c-0.306,1.779-0.545,3.78-1.283,5.441
		c-0.467,1.051-1.395,1.89-1.407,3.088c0.204-3.795,1.798-6.886,0.292-10.802c-1.263-3.286-1.711-2.924-4.498-3.18
		c1.164-1.107,3.334-2.221,4.958-2.104c-1.761-0.09-4.022-0.634-5.604,0.108c2.185-1.933,5.326-3.378,8.292-4.024
		c3.648-0.794,9.684-0.25,12.709,1.962c-3.458-1.288-9.659-1.368-12.813,0.26c3.506,0.085,7.604,0.35,10.354,2.683
		c6.261,5.314,6.097,14.525,4.402,21.795c-1.218-6.737,0.274-14.402-5.549-19.444c-1.655-1.435-4.447-3.278-6.638-2.209
		c2.079,0.582,3.063,1.03,4.3,2.776c1.685,2.38,2.651,5.337,2.7,8.25c0.039,2.26,0.21,5.784-0.794,7.789
		C459.61,113.845,458.752,108.783,456.946,104.867z M337.761,210.521c-0.934-3.728-3.195-7.206-4.365-10.898
		c-1.156-3.639-1.972-7.52-2.264-11.326c-0.265-3.466,0.149-6.863,0.012-10.356c-0.083-2.119-0.167-4.237-0.25-6.355l0.299,3.774
		c0.306,7.785,2.037,15.01,3.306,22.569c0.476,2.824,1.242,5.691,2.226,8.41C337.129,207.456,338.227,209.382,337.761,210.521z
		 M506.725,370.993l-0.313,1.134c-0.523,1.889-1.671,5.952-3.097,10.646c-0.934-2.275-2.5-4.629-3.513-6.661L499.267,375
		c-4.186-7.992-9.836-14.436-15.965-19.596C486.819,356.236,500.903,362.599,506.725,370.993z M463.326,307.747
		c0,0,6.206,6.355,12.342,14.512c2.602,3.381,8.263,26.854,9.497,32.057c-1.124-0.657-2.234-1.326-3.309-2.015
		c0,0-24.502-46.208-40.213-57.199C441.642,295.102,453.783,300.848,463.326,307.747z M458.79,318.575
		c-4.403-3.896-10.594-10.369-16.121-19.723c2.258,1.179,4.794,2.768,4.794,2.768S452.399,308.835,458.79,318.575z M437.124,236.497
		c0,0,1.081,31.474-0.97,55.141c-2.669,30.839,2.139,6.396,3.214,5.989c0,0,22.771,39.969,36.418,52.187
		c-16.37-10.791-33.183-13.818-33.183-13.818c-0.998-0.209-10.27-8.191-10.27-8.191c1.504,2.735,9.246,9.417,9.246,9.417
		c28.717,7.15,46.465,26.417,55.533,39.378l1.324,1.932c1.395,2.09,3.254,4.319,4.345,5.989c-2.452,7.948-5.552,17.103-7.775,20.585
		c-4.252,6.657-14.48,19.336-14.48,19.336c-7.173,2.372-55.662,15.125-78.554,21.53c-19.001-9.424-16.674-46.011-16.674-46.011
		c-1.813,11.646-0.518,21.595,1.771,29.488l-0.005-0.009c0,0,0.005,0.015,0.008,0.019c0.024,0.082,0.045,0.166,0.069,0.247
		c0.148,0.505,0.31,0.978,0.465,1.465c1.053,4.216,1.97,14.867-14.67,17.318c0,0-5.642,0.6-9.996,0.998
		c-7.87,0.314-17.692,0.507-26.078,0.62c5.557-10.111,23.895-44.045,28.509-59.596c5.472-18.434,20.04-46.331,23.142-50.824
		c2.412-3.493,19.224-27.811,20.985-56.898l0.004-9.716l-0.019,0.007c-0.335-5.297-1.221-10.686-2.863-16.082
		C406.62,256.997,423.888,251.954,437.124,236.497z M366.488,238.571c-3.489,0.207-6.004,0.308-6.004,0.308
		c-2.266-4.352-6.376-9.22-10.488-16.612C353.183,226.906,358.297,232.597,366.488,238.571z M500.704,543.79
		c0.725-10.939,4.709-36.646,7.434-48.748c0.817-3.632,1.522-6.825,2.138-9.655l1.539-7.22c2.274-10.926,2.475-13.286,2.475-13.286
		s22.729-19.939,25.941-32.905c2.217-1.777,5.179-4.248,8.635-6.797c0,0,19.62-9.247,26.212-12.383
		C555.064,500.368,518.258,529.952,500.704,543.79z M582.146,395.797l-11.66,0.457c0,0-6.113-2.353-7.492-3.918
		c-1.379-1.561-0.587-5.359-3.438-1.296c0,0-1.204,2.87-3.609,3.906c-2.407,1.033-11.583,6.851-13.613,7.873
		c-2.033,1.02-6.232,4.196-6.232,4.196s7.018-3.288,10.032-3.218c3.014,0.068,5.824-0.227,6.566-0.448
		c0.745-0.217,13.351-5.041,16.538-5.352c3.185-0.313,9.764-2.267,12.446-0.705l0.499,0.339c0.867,0.597,2.686,1.886,3.975,3.064
		c0,0-1.096,1.506,5.4,4.172c-0.331-0.157,9.41,3.688-7.555,3.375c-0.475-0.142-0.776-0.256-0.776-0.256l-4.788-0.714
		c0,0-25.805,10.852-29.402,12.086c-3.255,1.118-12.78,12.19-13.172,14.752c-2.74,4.867-9.458,15.368-21.332,25.692
		c-0.108,0.085-0.23,0.189-0.381,0.324c-3.196,2.893-26.306,6.927-26.306,6.927s-16.026,6.551-36.48,17.396
		c0,0-69.547,29.511-87.031,34.525c-7.308,2.148-20.29,6.56-20.195,6.917c-12.898,3.352-25.474,5.678-25.509,5.688
		c-18.241,1.397-43.288,7.11-45.84,7.426c-4.35,0.538-19.854,3.286-23.9,2.351c-4.042-0.934-9.789-10.94-9.019-28.457
		c0.77-17.52,58.973-167.676,68.616-197.757c15.065-46.995,38.576-66.004,48.925-71.51c10.348-5.509,41.498-3.089,49.536,21.735
		c0,0,6.035,18.442-3.471,42.786c0,0-14.685,29.335-24.792,41.027c0,0-12.503,24.902-16.674,39.275
		c-4.078,14.051-17.35,51.081-29.842,61.71c-7.707,0.087-13.299,0.107-13.299,0.107c-0.022,0.007-0.041,0.014-0.063,0.021
		c-13.349,0.504-21.331,15.63-19.326,15.506c2.037-0.127,4.329-5.222,7.895-9.297c3.566-4.075,16.47-4.352,16.47-4.352h0.001
		c2.294,0.107,5.267,0.156,8.748,0.088c3.076,0.011,6.717-0.016,11.032-0.088c14.448-0.243,53.883-4.118,58.342-5.23h0.004
		c18.813-4.686,66.931-16.938,70.217-17.617c4.338-0.902,9.78-1.48,9.78-1.48s20.008-28.502,19.991-28.923
		c-0.017-0.424,5.512-24.911,6.273-27.06l0.816-1.37c2.05-2.813,7.146-7.619,9.257-8.058c1.947-0.404,8.43-3.774,11.273-5.283
		c3.567-1.274,7.564-2.702,11.013-3.934c0.698-0.234,1.319-0.444,1.815-0.613c0.866-0.299,2.129-0.783,3.604-1.321
		c0.949-0.339,1.709-0.61,2.247-0.802c0.492-0.172,0.988-0.34,1.498-0.509c3.387-1.052,9.786-2.419,11.058-1.737
		c1.206,0.646,9.764,12.57,12.095,15.837c-6.23-3.355-11.802-6.717-15.282-5.357c-1.708,0.665-30.32,16.113-30.32,16.113
		c-3.605,0.875-6.031,1.588-7.645,2.159c0.413,0.555,0.763,1.03,1.025,1.389c3.252-0.814,7.987-2.11,10.392-3.32
		c4.059-2.04,27.287-14.242,29.512-15.082c2.202-0.832,15.837,9.652,17.511,11.443c2.159,2.867,5.284,5.423,5.195,10.925
		c-0.002,0.092-0.002,0.166-0.003,0.256c-0.24,2.466-0.825,4.522-0.828,4.532l-9.85-8.438c-9.074-6.286-15.959-3.89-17.102-4.222
		c-1.142-0.328-21.259,14.384-27.196,16.5c-5.939,2.114-3.249,3.516,0.115,2.973c3.365-0.539,23.56-13.31,27.96-16.29
		c4.398-2.982,9.77-0.385,9.77-0.385l14.61,10.337c0.296,0.223,0.854,0.699,1.381,1.414c0,0.003,1.582,3.135,1.934,5.064
		C584.955,398.802,583.469,395.881,582.146,395.797z"/>
</g>
<g>
	<path d="M442.304,571.275h17.858c4.268-20.513,10.342-43.534,17.944-66.285C478.106,504.99,463.181,537.748,442.304,571.275z"/>
	<path d="M405.662,571.275h29.44c11.538-19.459,26.068-45.96,45.081-82.726C480.182,488.55,430.651,554.294,405.662,571.275z"/>
	<path d="M343.562,571.275c1.066-10.388,15.563-32.737,15.563-32.737l-16.241,21.286c0,0-3.08,4.138-5.197,11.451H343.562z"/>
	<path d="M386.755,571.275c21.533-9.822,47.083-27.049,67.132-57.122c43.596-59.511,35.983-38.752,35.983-38.752
		s-16.094,51.071-24.893,95.874h29.591c-2.653-36.259,6.37-106.856,6.37-106.856c-7.013,1.772-91.966,39.703-91.966,39.703
		c-6.079,15.005-33.931,53.222-51.525,67.153H386.755z"/>
</g>
<path d="M505.852,571.275c-0.315-5.431-0.507-11.214-0.55-17.383c0,0,0.607,7.299,1.881,17.383h5.024
	c-6.065-46.674,0.178-106.856,0.178-106.856h-6.831c0,0-4.949,43.849-6.813,91.971c-0.189,4.873-0.156,9.859,0.049,14.886H505.852z"
	/>
<g>
	<path d="M603.865,54.353c43.229,20.057-37.231,98.535-69.381,120.954c0,0-54.621,36.969-90.978,47.1
		c30.841-7.507,86.889-36.514,127.828-72.796C593.63,129.85,652.46,72.95,603.865,54.353z"/>
	<path d="M552.322,50.552c6.859-0.134,12.172,0.479,16.285,1.569C561.148,49.414,552.322,50.552,552.322,50.552z"/>
	<path d="M581.062,71.941c0,0,6.225-14.865-12.456-19.82c7.426,2.696,13.497,9.203,8.144,24.444
		c-11.561,32.919-32.766,57.046-102.34,95.155C474.411,171.72,556.076,142.64,581.062,71.941z"/>
</g>
<path d="M320.243,162.567C415.2,102.487,515.209,49.262,576.462,49.653c4.242,0.027,8.076,0.259,11.565,0.662
	c-25.115-4.03-66.132-2.104-129.959,9.4c-0.585-0.744-1.083-1.384-1.533-1.96c0.146-0.873,0.319-2.445-0.121-3.401
	c-0.629-1.372-3.853-1.368-3.853-1.368s-1.641-1.655-1.486-3.386c0.154-1.73-3.259-1.332-3.259-1.332
	c-17.212-22.57-43.235-36.189-86.021-25.878c-62.667,15.102-75.234,62.992-67.553,98.903c-0.977,0.691-2.076,1.816-1.311,3.059
	c0.778,1.266,1.798,1.75,2.572,2.102c0.43,1.552,0.898,3.075,1.4,4.566c0.183,2.732,0.554,5.965,1.836,6.522
	c-30.524,66.077-109.003,105.635-93.725,131.758c15.715,21.499,131.589-12.368,131.589-12.368
	c-81.072,20.863-198.408,37.553-80.738-50.633c-2.389,1.847-13.414,11.198-18.233,29.91
	c-6.945,26.966,109.574-19.424,109.574-19.424l-0.898-2.011c0,0-69.258,28.405-99.114,27.3c-20.547-0.76,9.117-36.098,9.141-36.125
	C272.823,193.617,293.873,179.251,320.243,162.567z M336.956,36.181c17.004-5.668,1.533,1.984,51.244-11.337
	c16.619-4.454,24.732,0,24.732,0s35.728,17.331,30.574,25.47c-5.153,8.14-84.111,36.124-100.306,43.676
	c-16.195,7.552-39.712,23.976-42.952,24.786C300.248,118.776,280.002,62.363,336.956,36.181z M296.543,125.294
	c-2.351-1.567,1.384-2.716,3.418-3.224c-0.812,0.2-1.482,0.362-1.971,0.479c-0.195-0.805-0.286-1.317-0.286-1.317
	c20.703-2.509,41.146-28.823,75.711-37.125c34.048-8.178,61.799-20.933,71.65-31.057c-4.327,8.646-44.616,26.05-44.616,26.05
	s-5.321,4.59-1.201,2.535c4.121-2.056,47.743-26.54,48.683-27.283c0.304-0.239,0.782-0.378,1.22-0.593
	c-1.782,5.427-18.214,18.546-59.997,34.008c2.111-0.488,26.61-9.907,43.502-15.709c7.099-3.687,14.962-9.081,18.448-16.051
	c0,0,1.978-1.278,3.605,1.046c1.627,2.325-5.951,6.341-3.605,7.091c2.347,0.75,8.37-3.371,8.37-3.371s6.271-1.537,2.287,1.246
	c-18.439,14.114-58.57,24.613-90.588,38.812c-37.557,16.653-66.015,35.968-66.015,35.968c-1.144-1.67,6.729-7.996,13.575-13.039
	c-0.978,2.005-5.23,6.461-5.23,6.461c12.092-10.304,75.224-37.751,76.951-38.693c1.728-0.942,48.948-17.274,49.415-18.217
	c0.47-0.942,5.865-6.596,7.086-8.795c1.222-2.199-21.008,12.406-25.092,13.192c-4.082,0.785-34.711,12.651-36.429,13.033
	c-9.702,2.156,8.444-5.582,9.669-8.877c1.227-3.295-40.454,12.497-53.486,22.404c-10.229,7.776-34.119,15.942-41.644,17.798
	c-0.001,0.001-2.33,2.127,2.692,1.499c5.026-0.628,17.747-6.124,18.061-4.711c0.257,1.154-14.451,5.76-21.142,6.559
	c1.165,1.181,2.428,2.438,3.082,3.021c1.415,1.256,15.859-6.594,16.256-5.451c-7.237,4.382-16.309,9.273-17.761,7.238
	c-1.009-1.411-1.759-3.153-2.306-4.734C297.727,125.581,296.903,125.534,296.543,125.294z M300.179,145.009
	c5.767-10.382,98.471-51.912,116.403-56.752c17.934-4.841,47.643-22.692,49.58-28.138c0,0,50.151-6.88,59.726-5.766
	c0,0-47.141,13.826-59.726,21.39c-12.585,7.563-83.944,28.64-169.008,91.572c-5.887,4.357-44.779,37.126-44.779,37.126
	S294.413,155.392,300.179,145.009z"/>
<circle cx="444.041" cy="169.609" r="2.04"/>
</svg>
