<?xml version="1.0" encoding="utf-8"?>
<!-- Generator: Adobe Illustrator 17.0.0, SVG Export Plug-In . SVG Version: 6.00 Build 0)  -->
<!DOCTYPE svg PUBLIC "-//W3C//DTD SVG 1.1//EN" "http://www.w3.org/Graphics/SVG/1.1/DTD/svg11.dtd">
<svg version="1.1" id="Layer_1" xmlns="http://www.w3.org/2000/svg" xmlns:xlink="http://www.w3.org/1999/xlink" x="0px" y="0px"
	 width="800px" height="600px" viewBox="0 0 800 600" enable-background="new 0 0 800 600" xml:space="preserve">
<g>
	<path d="M572.595,182.994c1.957-0.941,3.558-2.474,4.769-4.313c3.511-5.331,1.728-12.568-4.342-14.74
		c-5.863-2.101-13.056,2.382-15.02,8.194c-4.912-0.966-82.284,0.502-100.533,0.33c-7.286-5.399-18.687-9.612-27.874-4.397
		c-8.159-5.71-20.304-2.25-28.506,4.022c-5.948-0.01-56.231-0.81-78.312,0.693c-1.002-10.469-11.348-11.609-16.822-6.818
		c-5.364,4.696-3.482,14.138,2.698,16.932c-10.137,17.874-43.098,85.034-50.929,100.816c-4.78,2.198-11.959,6.135-13.835,12.957
		c-1.876,6.822,3.953,21.587,10.763,28.01c9.473,8.935,20.601,13.318,33.456,15.118c17.408,2.434,40.147,0.992,58.485-9.665
		c13.529-7.861,19.827-18.586,19.083-35.191c-0.434-9.694-31.474-71.869-49.022-112.161c4.135-1.737,5.826-4.836,6.205-7.618
		c21.504,1.569,67.948,1.326,73.546,1.321c-11.701,11.41-19.577,29.157-22.481,41.767c-5.008,21.716-2.572,42.059,3.771,63.188
		c2.66,8.861,5.985,17.515,8.586,26.384c1.213,4.141,1.837,8.323,1.915,12.623c0.208,11.03-12.893,12.857-17.651,0.886
		c-11.863,9.926-0.838,22.532,10.809,24.687c4.429,2.466,9.258,3.292,13.975,2.746c-0.833,3.357-1.541,6.774-2.939,9.935
		c-4.056,9.17-9.823,10.943-12.485,11.219c-2.662,0.276-8.294,0.267-11.717,0.317c-3.423,0.049-6.356-0.145-8.36,0.587
		c-1.104,0.404-0.587,1.615,0.44,2.689c1.027,1.075,3.967,2.155,7.41,1.908c1.047,2.149,5.264,2.252,7.397,2.095
		c1.834-0.136,7.397-0.81,8.756-2.929c11.207-1.738,14.855-15.016,17.377-27.238c4.637-1.665,8.91-4.564,12.255-8.386
		c4.509,4.315,6.964,10.456,4.661,15.675c-14.27,6.746-18.726,14.428-18.572,21.948c0.025,1.237-3.52,1.432-4.446,0.87
		c-0.926-0.562,1.224,11.566,22.099,13.101c1.173,13.378,3.967,28.034,8.442,38.68c1.227,2.919,1.075,4.453-0.768,5.834
		c-1.843,1.381-7.368,3.53-13.863,5.248c-3.415,0.903-10.555,3.497-8.853,6.417c2.148,3.684,10.269,4.767,16.269,3.531
		c5.219-1.074,9.057-3.838,10.744-7.061c2.457,4.144,6.754,6.908,11.818,8.288c5.065,1.381,12.315-0.7,10.591-2.455
		c-2.32-2.364-16.812-13.406-21.332-15.312c0.386-9.052,6.906-33.806,12.216-45.98c21.241-6.863,23.134-17.647,21.807-17.381
		c-6.552,1.31-13.564-5.813-15.915-8.207c-2.913-2.974-5.679-5.219-9.376-6.921c-0.321-5.826,8.508-19.295,10.143-21.321
		c1.48,1.525,4.856,4.401,6.671,5.534c1.259,13.575,6.928,27.422,16.5,32.255c0.876,3.931,3.389,5.647,5.669,5.855
		c2.045,0.186,2.553-0.492,5.241-0.527c2.008-0.026,4.449,0.484,5.207,0.621c0.758,0.138,1.069-0.656,1.077-1.475
		c3.202,0.61,6.97,0.528,9.334-1.835c1.172-1.172,1.103-3.447-0.173-3.309c-1.276,0.138-8.738,0.684-12.524-0.658
		c-3.196-1.134-7.95-2.418-9.868-3.565c-1.918-1.147-5.884-3.594-9.725-11.277c-1.343-2.685-3.989-9.343-4.411-13.221
		c13.87,3.884,36.125-8.243,33.207-25.741c-12.585,11.665-17.956-0.611-10.234-21.624c2.551-6.942,4.054-14.153,5.235-21.454
		c2.135-13.188,2.047-26.791,0.443-40.023c-2.291-18.86-11.011-45.775-28.418-58.073c15.441-0.13,89.533,1.737,95.362,0.526
		c0.308,2.237,1.379,4.411,3.318,6.035c-4.047,9.148-44.75,85.775-52.148,102.51c-3.242,2.277-7.162,6.013-8.649,10.474
		c-10.149,30.447,33.398,44.663,54.768,44.979c16.7,0.245,36.241-3.876,49.812-13.754c9.89-7.202,17.843-18.587,15.241-32.341
		C617.779,281.755,580.731,200.858,572.595,182.994z M310.984,183.578c0.118,0.003,0.524-0.021,0.643-0.007
		c-2.058,21.268-7.501,81.38-8.05,90.127c-14.726,1.419-33.97,4.888-42.977,8.605C268.665,266.394,300.994,203.744,310.984,183.578z
		 M358.365,282.674c-14.251-9.542-42.986-10.059-52.773-9.151c0.238-8.779,5.569-68.617,7.713-89.925
		c0.234-0.035,1.109-0.2,1.342-0.248C317.244,191.141,347.956,257.768,358.365,282.674z M563.699,183.455
		c0.8,0.307,1.629,0.468,2.463,0.565c2.479,32.363,5.14,61.113,6.443,91.84c-14.656-0.861-46.838-0.743-59.724,6.939
		C523.041,261.486,556.992,197.548,563.699,183.455z M611.173,282.083c-7.263-4.243-25.012-5.505-35.172-6
		c-2.293-31.356-4.041-61.717-7.6-91.99c0.393-0.068,1.747-0.302,2.132-0.412C580.659,210.559,602.963,260.37,611.173,282.083z"/>
	<path fill="#CC9600" d="M303.286,278.074c-1.178,11.538-2.663,23.682-3.903,33.967c-26.817,0.939-48.579-7.673-51.2-13.705
		C243.747,288.127,282.904,278.957,303.286,278.074z"/>
	<path fill="#E0B000" d="M292.323,336.224c-21.854-0.858-40.482-13.869-43.619-31.617c12.39,10.657,29.987,12.144,50.432,12.762
		c14.359,0.434,25.326,0.462,38.288-2.849c10.999-2.81,18.09-4.957,22.055-9.418C354.524,328.397,326.52,337.567,292.323,336.224z"
		/>
	<path fill="#CC9600" d="M360.029,295.483c-0.831,5.476-8.64,9.765-13.138,11.529c-12.193,4.78-32.054,6.404-45.524,5.029
		c1.449-10.273,2.354-22.18,4.08-34.113C328.626,275.363,362.046,282.154,360.029,295.483z"/>
	<path fill="#E0B000" d="M313.452,178.362c-5.527,1.475-7.589-6.319-4.069-9.625c2.996-2.816,7.603-0.932,8.871,2.588
		C319.522,174.846,317.039,177.409,313.452,178.362z"/>
	<path fill="#FFF299" d="M427.362,169.042c-1.12,0.599-2.206,1.292-3.258,2.097c-0.357,0.272-0.029,0.8,0.373,0.591
		c4.626-2.378,17.528-6.894,27.396,0.68c-1.555-0.017-30.094-0.271-42.798-0.307C414.53,169.216,420.637,167.892,427.362,169.042z"
		/>
	<path fill="#FFC9A8" d="M393.853,365.101c-3.276,5.573-7.721,7.819-10.581,8.092c-1.803,2.069-4.574,2.516-6.393,2.788
		c-2.442,0.364-6.491,0.216-7.812-0.835c-1.84-1.464,4.796-2.313,9.385-2.438c0.383-0.01-0.681-0.72-3.004-0.614
		c-1.398,0.064-6.607-0.215-7.827,1.986c-5.641,0.456-7.801-2.196-6.912-2.527c2.103-0.783,17.381,0.436,23.612-1.783
		c6.231-2.219,10.702-11.804,12.568-21.229c1.061-0.167,1.541-0.35,2.58-0.643C398.693,353.907,396.351,360.851,393.853,365.101z"/>
	<path fill="#9E80E6" d="M404.311,445.967c-1.237-1.237,5.036-2.879,8.807-4.146c0.096,3.531,6.096,3.576,14.217-0.613
		C425.186,447.962,409.53,451.186,404.311,445.967z"/>
	<path fill="#FFC9A8" d="M422.883,441.823c-1.786,0.777-5.262,1.68-7.156,1.326c-1.473-0.28-1.467-1.066-0.983-1.86
		c5.377-1.461,11.67-4.224,12.897-6.526C428.716,438.599,426.415,440.288,422.883,441.823z"/>
	<path fill="#FFC9A8" d="M425.648,420.64c-3.376-7.522-6.139-27.168-5.987-29.953c2.942,0.118,5.789,0.006,8.454-0.222
		C426.595,398.941,425.35,411.418,425.648,420.64z"/>
	<path fill="#9E80E6" d="M442.992,444.432c1.183,1.061,4.758,3.225,5.679,4.298c0.921,1.073-3.825,2.297-8.749-0.154
		C441.303,448.267,443.144,445.967,442.992,444.432z"/>
	<path fill="#FFC9A8" d="M440.959,443.295c-0.424,4.207-5.643,4.973-10.554-3.007c0.208-1.263,0.182-3.598-0.165-4.754
		C433.781,438.159,437.5,440.583,440.959,443.295z"/>
	<path fill="#E8B08A" d="M433.136,443.856c-0.38-2.166-0.55-4.384-0.438-6.545c-0.825-0.587-1.647-1.176-2.458-1.777
		c0.347,1.156,0.373,3.491,0.165,4.754C431.316,441.767,432.236,442.944,433.136,443.856z"/>
	<path fill="#FFC9A8" d="M428.257,423.556c-0.614-9.823,0.154-23.945,1.147-33.178c0.042-0.006,0.089-0.006,0.131-0.015
		c2.839-0.292,6.396-0.924,10.172-1.87C433.63,397.309,430.253,415.727,428.257,423.556z"/>
	<path fill="#9E80E6" d="M437.278,354.363c-1.962-1.262-4.263-0.956-2.728,0.119c0.582,0.408,6.033,3.205,8.749,6.6
		c4.297,5.373,8.922,10.761,15.809,12.739c-2.916,5.988-15.196,11.974-29.316,12.742c-14.12,0.768-26.862-0.308-32.541-6.755
		c2.122-0.06,4.297-0.63,4.144-2.455c-0.423-5.06,7.056-16.138,18.858-19.241c2.297-2.689,3.244-5.711,0.831-12.515
		c-1.143-3.222-3.601-6.131-6.1-8.547c0.269-0.363,0.53-0.72,0.78-1.09c6.314,5.808,17.481,7.191,23.468,0.341
		c0.681-0.78-0.189-1.763-1.034-1.699c-7.025,0.526-14.933,3.105-21.412-0.306c1.381-2.381,2.471-4.959,3.112-7.726
		c0.675-2.926,0.833-5.932,0.655-8.969c7.101,3.672,17.743,2.441,21.649-2.688c0.411,6.174,2.281,11.891,5.419,16.565
		C440.074,338.826,436.241,350.274,437.278,354.363z"/>
	<path fill="#8457D6" d="M418.844,341.451c5.808,2.376,15.491,2.723,17.802-2.892c-6.233,4.147-15.393,2.451-20.884-2.601
		c-0.25,0.37-0.511,0.728-0.78,1.09C416.355,338.376,417.707,339.855,418.844,341.451z"/>
	<path fill="#8457D6" d="M421.826,443.526c-4.785,4.14-13.269,5.403-17.174,1.438c-0.485,0.353-0.653,0.691-0.341,1.003
		c5.219,5.219,20.875,1.995,23.024-4.758C425.353,442.231,423.5,442.997,421.826,443.526z"/>
	<path fill="#8457D6" d="M442.176,446.75c-0.629,0.9-1.504,1.658-2.254,1.827c3.482,1.734,6.865,1.626,8.227,1.037
		C445.95,449.023,443.86,448.069,442.176,446.75z"/>
	<path fill="#8457D6" d="M423.268,318.715c-0.944-0.303-1.857-0.672-2.717-1.117c0.179,3.038,0.02,6.043-0.655,8.969
		c-0.64,2.768-1.731,5.345-3.112,7.726c1.038,0.546,2.116,0.926,3.218,1.198C422.328,330.4,423.299,324.619,423.268,318.715z"/>
	<path fill="#8457D6" d="M445.887,333.322c0.556-0.636,1.128-1.257,1.732-1.847c-3.138-4.674-5.008-10.391-5.419-16.565
		c-0.437,0.575-0.969,1.095-1.561,1.57C440.552,322.232,442.495,328.374,445.887,333.322z"/>
	<path fill="#8457D6" d="M434.988,384.597c8.499-1.817,15.296-6.254,17.927-13.687c-14.052,9.69-34.33,12.267-49.758,5.907
		C409.244,385.898,425.337,386.66,434.988,384.597z"/>
	<path fill="#A8C7F0" d="M412.794,226.256c-1.225,0.612-2.91,0.918-4.059,0.689c-3.598-1.761-5.207-8.04-3.446-11.869
		c1.532-0.612,3.047-0.706,3.752-0.689C404.984,218.753,409.575,226.041,412.794,226.256z"/>
	<path fill="#FFC9A8" d="M401.612,214.426c0.745-2.741,1.645-5.434,2.641-8.076c4.228-3.298,9.511-5.054,13.214,0.635
		c1.257,1.941,1.795,4.432,2.389,6.841C414.049,212.486,406.549,211.73,401.612,214.426z"/>
	<path fill="#FFFFFF" d="M404.218,215.307c-0.935,2.205-0.787,4.507-0.152,6.968c0.611,2.373,1.571,3.462,2.862,4.827
		c-2.887-0.099-5.697-0.616-7.501-2.919c0.459-2.588,1.027-5.211,1.684-7.827C402.151,215.843,403.198,215.518,404.218,215.307z"/>
	<path fill="#FFC9A8" d="M411.533,228.415c4.324-0.781,10.909-5.561,10.146-10.505c2.701-0.219,5.833-1.927,3.258-2.72
		c-0.707-0.216-2.758-0.796-3.571-1.009c-0.395-1.918-1.938-9.133-6.129-11.482c-3.992-2.238-7.313-1.001-10.178,1.527
		c4.102-8.944,10.111-10.446,15.647-5.984c0.597,0.481,1.6-0.397,1.268-1.131c-2.606-5.798-7.259-6.078-11.19-3.743
		c3.232-4.805,7.154-8.85,11.93-11.557c3.643,2.468,7.085,5.046,10.298,7.845c-2.653,0.071-4.756,1.935-4.496,5.286
		c0.055,0.711,1.041,1.215,1.542,0.685c5.519-5.854,9.902,0.031,13.885,6.06c-1.972-1.101-4.178-1.549-6.366-0.456
		c-4.895,2.442-5.405,7.983-6.041,12.832c-1.304,0.405-4.583,1.393-3.597,2.379c0.751,0.751,2.701,0.616,3.665,0.611
		c1.594,10.406,14.412,14.651,22.346,9.966c2.913,9.583,3.115,26.829,2.037,32.37c-1.077,5.541-9.68,15.389-18.92,19.148
		c-16.642,6.77-29.779-9.799-34.988-17.299c-2.399-8.807-4.815-23.26-2.866-35.834C402.018,229.354,406.783,229.274,411.533,228.415
		z"/>
	<path fill="#E8B08A" d="M413.712,195.896c-3.218,0.447-6.261,3.115-8.653,8.331c1.668-1.472,3.495-2.479,5.514-2.644
		C411.513,199.608,412.556,197.706,413.712,195.896z"/>
	<path fill="#E8B08A" d="M423.106,185.306c1.397,0.351,5.227,3.365,7.029,5.413c0.78-0.645,1.764-1.033,2.879-1.063
		c-3.214-2.8-6.655-5.377-10.298-7.845c-4.776,2.707-8.698,6.752-11.93,11.557c1.814-1.077,3.78-1.586,5.629-1.265
		C418.083,189.442,420.847,186.404,423.106,185.306z"/>
	<path fill="#E8B08A" d="M438.185,200.981c1.986-0.741,3.968-0.293,5.759,0.707c-3.184-4.82-6.629-9.502-10.7-8.207
		C435.161,195.835,436.878,198.297,438.185,200.981z"/>
	<path fill="#E8B08A" d="M453.952,227.02c-1.703,1.006-3.636,1.576-5.63,1.787c0.565,1.999,1.089,4.025,1.552,6.09
		c1.952,8.704,4.734,18.972,4.407,28.603c0.87-1.499,1.474-2.909,1.708-4.109C457.066,253.849,456.865,236.603,453.952,227.02z"/>
	<path fill="#E8B08A" d="M424.197,238.276c-3.064-0.449-4.111-3.924-3.187-6.541c-2.877,0.913-4.382,5.61-1.862,7.915
		c2.211,2.022,4.215,0.619,5.436-1.379C424.454,238.269,424.327,238.295,424.197,238.276z"/>
	<path fill="#E8B08A" d="M402.978,230.005c0.069-0.543,0.15-1.1,0.226-1.652c-1.544-0.512-2.911-1.43-3.989-2.947
		c-1.949,12.574,0.467,27.027,2.866,35.834c0.856,1.233,1.931,2.713,3.195,4.291C402.156,254.01,401.491,241.759,402.978,230.005z"
		/>
	<path fill="#FFFFFF" d="M442.043,226.406c-4.901-0.765-8.457-4.924-9.897-9.3c-0.013-0.032-0.036-0.036-0.049-0.06
		c1.907-0.025,3.884-0.092,5.862-0.138C437.378,219.362,439.058,224.186,442.043,226.406z"/>
	<path fill="#A8C7F0" d="M439.007,216.895c0.874-0.016,2.548-0.076,3.42-0.059c-1.303,4.364,2.525,8.575,6.125,10.03
		c-0.765,0.306-2.068,0.536-3.752-0.077C440.206,224.722,438.975,219.606,439.007,216.895z"/>
	<path fill="#769CE2" d="M407.588,219.936c-0.362-1.912-0.05-3.931,1.454-5.548c-0.706-0.018-2.22,0.077-3.752,0.689
		c-0.812,1.766-0.9,4.051-0.414,6.176C405.753,220.758,406.659,220.323,407.588,219.936z"/>
	<path fill="#769CE2" d="M442.874,221.602c-0.694-1.472-0.942-3.107-0.447-4.766c-0.871-0.016-2.545,0.043-3.42,0.059
		c-0.017,1.449,0.35,3.579,1.375,5.569C441.198,222.134,442.03,221.847,442.874,221.602z"/>
	<path fill="#FFC9A8" d="M432.445,213.816c0.379-3.508,1.381-7.514,3.899-9.778c3.1-2.786,7.247-2.243,9.714,0.928
		c1.514,2.544,2.797,5.235,3.894,8.016C445.74,212.097,433.989,213.484,432.445,213.816z"/>
	<path fill="#E8B08A" d="M407.709,204.203c-1.192,0.545-2.36,1.292-3.456,2.147c-0.996,2.643-1.896,5.336-2.641,8.076
		c1.022-0.558,2.171-0.937,3.373-1.225C405.451,210.068,406.357,207.004,407.709,204.203z"/>
	<path fill="#E8B08A" d="M445.639,212.692c1.725-0.011,3.257,0.068,4.314,0.29c-1.098-2.781-2.38-5.472-3.894-8.016
		c-1.294-1.663-3.052-2.582-4.876-2.697C443.026,205.628,444.512,209.088,445.639,212.692z"/>
	<path fill="#FFC9A8" d="M424.309,283.431c1.458,0.399,5.621,0.648,6.385,0.627c0.061,7.424,0.45,16.432,0.749,18.285
		c0.299,1.853,6.966,6.642,8.811,7.352c-0.789,5.498-12.299,9.796-20.164,3.7c-0.26-1.642-0.617-3.287-1.035-4.927
		c0.542-0.344,5.779-2.235,6.003-3.244C425.282,304.214,426.075,290.938,424.309,283.431z"/>
	<path fill="#E8B08A" d="M430.78,289.158c-0.041-1.715-0.072-3.447-0.086-5.1c-0.764,0.02-4.927-0.228-6.385-0.627
		c0.367,1.559,0.619,3.373,0.792,5.268C426.984,289.203,428.909,289.383,430.78,289.158z"/>
	<path fill="#E8B08A" d="M421.285,307.49c-1.075,0.466-2.016,0.842-2.229,0.977c0.418,1.639,0.775,3.284,1.035,4.927
		c0.981,0.761,2.018,1.358,3.085,1.814C422.867,312.559,422.267,309.986,421.285,307.49z"/>
	<path fill="#EBCC69" d="M433.825,300.758c-0.378-1.796-0.436-14.063-0.751-16.7c8.027-1.032,15.928-7.668,21.203-14.772
		c-4.619,11.863-10.047,24.29-11.666,36.658C440.584,305.849,434.202,302.555,433.825,300.758z"/>
	<path fill="#EBCC69" d="M421.68,282.809c1.252,6.883,1.628,14.27,1.377,20.407c-0.652,0.351-2.63,1.753-4.851,2.169
		c-2.258-7.465-5.643-14.762-8.223-21.219c-1.985-4.962-3.801-9.835-5.416-14.711C409.235,274.926,415.24,280.48,421.68,282.809z"/>
	<path fill="#DBB04B" d="M449.845,280.569c1.462-3.804,2.987-7.571,4.432-11.283c-5.275,7.103-13.176,13.739-21.203,14.772
		c0.078,0.648,0.139,1.883,0.194,3.398C439.775,286.534,445.061,284.166,449.845,280.569z"/>
	<path fill="#DBB04B" d="M422.315,286.961c-0.181-1.394-0.386-2.784-0.635-4.151c-6.44-2.329-12.444-7.883-17.114-13.353
		c0.969,2.927,2.033,5.861,3.141,8.805C411.692,282.398,416.835,285.531,422.315,286.961z"/>
	<path fill="#DBB04B" d="M449.599,274.667c-1.956,5.683-3.251,11.455-3.755,17.413c2.377-7.717,5.541-15.367,8.434-22.794
		C452.889,271.154,451.309,272.971,449.599,274.667z"/>
	<path fill="#DBB04B" d="M437.58,298.437c-0.942-5.056-0.254-10.356-0.109-15.486c-1.451,0.536-2.922,0.918-4.397,1.108
		c0.315,2.637,0.373,14.904,0.751,16.7c0.378,1.796,6.759,5.091,8.786,5.185c0.029-0.219,0.067-0.438,0.099-0.656
		C440.384,303.527,438.126,301.357,437.58,298.437z"/>
	<path fill="#DBB04B" d="M409.069,274.257c-1.602-1.549-3.115-3.174-4.504-4.801c1.615,4.876,3.431,9.749,5.416,14.711
		c1.318,3.298,2.838,6.825,4.315,10.474C413.22,287.686,411.484,280.895,409.069,274.257z"/>
	<path fill="#DBB04B" d="M421.68,282.809c-0.549-0.199-1.09-0.451-1.631-0.694c0.013,0.052,0.041,0.091,0.049,0.147
		c0.389,3.105,0.756,6.212,1.058,9.326c0.182,1.877,1.102,4.989,0.536,6.836c-0.623,2.037-2.585,2.922-4.539,3.729
		c0.369,1.074,0.725,2.151,1.053,3.234c2.222-0.417,4.199-1.818,4.851-2.169C423.307,297.079,422.931,289.692,421.68,282.809z"/>
	<path fill="#FFC9A8" d="M475.492,368.041c3.126,0.91,9.559,3.446,12.965,3.925c3.407,0.479,8.682,0.272,9.405,0.238
		c0.723-0.033-1.069,4.137-8.482,2.759c-0.973-2.649-4.044-2.772-6.033-2.551c-1.861,0.206-2.38,0.909-1.962,0.86
		c6.893-0.825,7.443,3.45,6.513,3.174c-0.931-0.276-5.316-0.746-7.888-0.375c-3.202,0.454-6.131-3.067-6.713-5.05
		c-8.711-5.823-14.937-19.453-15.351-30.373c0.82,0.408,1.664,0.781,2.537,1.108C462.263,353.21,469.233,366.221,475.492,368.041z"
		/>
	<path fill="#E8B08A" d="M398.16,354.282c0.58-2.14,1.042-4.316,1.309-6.383c-1.04,0.293-1.519,0.476-2.58,0.643
		c-0.384,1.94-0.884,3.883-1.482,5.771C396.324,354.295,397.242,354.29,398.16,354.282z"/>
	<path fill="#E8B08A" d="M426.256,404.898c-1.193,3.025-2.137,5.996-2.798,9.004c0.68,2.643,1.416,5.014,2.19,6.738
		C425.496,415.909,425.764,410.349,426.256,404.898z"/>
	<path fill="#E8B08A" d="M427.515,394.127c0.193-1.281,0.394-2.511,0.6-3.662c-2.665,0.228-5.512,0.34-8.454,0.222
		c-0.035,0.632,0.082,2.133,0.319,4.157C422.438,394.286,424.977,394.051,427.515,394.127z"/>
	<path fill="#E8B08A" d="M436.046,395.59c1.099-2.688,2.31-5.137,3.661-7.098c-3.775,0.947-7.333,1.578-10.172,1.87
		c-0.042,0.009-0.089,0.009-0.131,0.015c-0.129,1.204-0.255,2.495-0.374,3.844C431.414,394.407,433.772,394.868,436.046,395.59z"/>
	<path fill="#E8B08A" d="M461.943,348.097c-0.634-2.114-1.136-4.253-1.459-6.341c-0.873-0.327-1.716-0.7-2.537-1.108
		c0.083,2.169,0.402,4.446,0.918,6.748C459.879,347.692,460.906,347.923,461.943,348.097z"/>
	<path fill="#FFF299" d="M480.303,208.757c6.466,16.804,8.267,35.893,7.182,53.727c-0.476,7.77-1.39,14.461-3.199,22.011
		c-3.53,14.734-6.228,19.577-6.139,30.084c0.062,6.828,5.525,14.58,11.818,11.511c-3.992,8.442-15.675,11.48-18.485,1.165
		c-1.52-5.582-0.71-11.98,0.048-17.612c1.143-8.457,2.89-15.611,4.162-24.08c1.645-10.939,2.027-17.198,2.302-28.241
		c0.152-6.139-0.581-6.399-0.593-6.01c-0.225,10.596-1.054,21.658-2.63,32.41c-1.998,13.632-4.867,26.868-5.589,39.127
		c-0.248,4.22,1.587,10.815,6.357,12.604c1.227,0.46,3.07,0.768,5.371,0.308c-3.459,2.336-7.793,2.274-10.458-0.152
		c-2.409-2.191-2.951-6.608-3.444-9.643c-1.143-7.04,0.521-20.563,1.777-27.507c3.852-21.325,7.212-33.004,5.063-51.729
		c-0.654-5.694-1.863-6.433-1.792-6.049c5.113,26.153-5.416,50.558-6.955,76.29c-0.388,6.428-0.556,11.837,2.455,17.863
		c1.227,2.455,2.772,4.246,4.455,4.766c-17.041,2.601-25.841-13.863-25.482-28.705c0.389-16.169,12.754-39.706,14.219-61.272
		c1.465-21.566-13.398-63.981-40.386-70.336c-0.504-0.118-0.78,0.434-0.349,0.719c0.463,0.297,0.903,0.604,1.358,0.907
		c-10.401,4.355-16.06,15.666-19.554,25.859c-4.019,11.742-6.43,23.616-6.89,35.709c-1.548,18.673,8.377,37.84,14.965,54.651
		c5.043,12.876,9.925,28.629-0.396,40.256c-2.789,3.141-6.353,5.056-10.204,6.071c9.491-7.934,3.563-32.153,1.603-40.738
		c-1.001-4.382-3.068-9.752-3.004-9.391c3.38,19.157,13.646,56.843-14.214,49.797c4.622-1.545,9.136-5.014,11.711-8.923
		c9.965-15.139-0.841-38.901-4.162-54.469c-0.1-0.443-0.845-0.292-0.778,0.154c2.181,14.592,8.056,29.139,6.289,44.066
		c-0.655,5.559-4.291,10.965-8.506,14.4c-12.501,10.189-25.898-6.212-17.72-13.221c3.064,10.893,17.592,10.243,20.876-0.787
		c1.846-6.203-0.24-13.577-1.943-19.583c-3.373-11.888-7.863-23.4-10.908-35.396c-5.498-21.627-4.358-44.123,4.432-64.688
		c4.315-10.102,11.238-21.603,20.458-28.848c10.381-0.02,20.763-0.105,31.147-0.194c14.069,6.813,24.841,16.899,29.775,32.31
		c0.109,0.34,0.648,0.195,0.542-0.146c-3.7-11.953-12.569-27.095-25.099-32.197c2.047-0.02,4.093-0.02,6.139-0.035
		c15.682,6.69,22.395,25.845,24.801,41.86c0.081,0.547,0.942,0.479,0.864-0.08c-1.652-11.852-7.895-35.051-20.897-41.831
		c1.728-0.017,3.459-0.041,5.19-0.055C472.486,186.396,477.269,200.879,480.303,208.757z"/>
	<path fill="#FFF7BD" d="M475.265,199.469c1.965,6.292,3.26,12.721,4.35,19.215c2.209,13.152,5.037,26.412,4.771,39.827
		c-0.16,8.092-2.541,16.076-3.736,24.046c-0.767,5.124-1.943,12.199-0.665,18.08c1.095-4.247,2.599-9.043,4.3-16.143
		c1.809-7.549,2.723-14.241,3.199-22.011c1.085-17.834-0.716-36.923-7.182-53.727c-1.737-4.511-4.059-11.187-8.833-18.121
		C472.923,193.492,474.301,196.383,475.265,199.469z"/>
	<path fill="#FFF7BD" d="M401.815,206.772c3.165-9.236,8.122-19.373,16.761-24.438c-8.16,2.085-14.324,11.863-17.423,18.894
		c-5.188,11.769-8.179,25.72-8.265,38.548c-0.096,14.102,2.129,28.283,8.722,40.886c1.745,3.335,3.642,6.581,5.576,9.805
		c-6.269-15.118-13.607-31.738-12.261-47.986C395.385,230.389,397.796,218.515,401.815,206.772z"/>
	<path fill="#F2DB6E" d="M434.439,171.146c-2.842,0.073-5.657,0.004-8.468-0.116c-0.555,0.243-1.07,0.481-1.495,0.7
		c-0.402,0.209-0.73-0.319-0.373-0.591c0.087-0.067,0.179-0.121,0.266-0.186c-2.364-0.116-4.729-0.251-7.113-0.365
		c-1.539-0.074-3.125-0.049-4.714-0.046c-1.181,0.455-2.341,0.966-3.468,1.561c12.704,0.036,41.243,0.29,42.798,0.307
		c-1.233-0.947-2.513-1.704-3.82-2.301C443.527,170.645,438.988,171.03,434.439,171.146z"/>
	<path fill="#F2DB6E" d="M451.807,178.986c-1.806-1.337-3.748-2.505-5.879-3.414c-2.046,0.014-4.092,0.014-6.139,0.035
		c1.976,0.805,3.852,1.877,5.637,3.136C447.545,178.802,449.674,178.885,451.807,178.986z"/>
	<path fill="#F2DB6E" d="M461.452,179.634c-1.692-1.43-3.53-2.827-5.566-4.167c-1.731,0.015-3.462,0.039-5.19,0.055
		c1.782,0.929,3.424,2.196,4.956,3.672C457.588,179.314,459.521,179.463,461.452,179.634z"/>
	<path fill="#F2DB6E" d="M399.692,318.478c-0.072-0.352-0.135-0.704-0.206-1.056c0.16,6.115-0.885,11.898-4.101,16.783
		c-2.575,3.909-7.089,7.378-11.711,8.923c0.043,0.01,0.081,0.016,0.123,0.026c0.13-0.022,0.265-0.035,0.415-0.009
		C397.156,345.444,401.694,328.314,399.692,318.478z"/>
	<path fill="#F2DB6E" d="M399.829,188.224c-17.603,14.004-18.584,42.079-11.676,63.914c-2.576-11.363-3.253-23.084-1.321-35.036
		C388.577,206.298,392.521,195.641,399.829,188.224z"/>
	<path fill="#F2DB6E" d="M390.904,253.83c-4.056-24.926-0.253-52.947,17.587-69.372c-12.884,7.068-18.552,22.43-19.985,37.029
		C387.408,232.679,388.349,243.419,390.904,253.83z"/>
	<path fill="#F2DB6E" d="M402.518,306.348c-0.608-1.592-1.251-3.17-1.899-4.745c0.097,0.377,0.19,0.751,0.274,1.119
		c1.96,8.585,7.888,32.804-1.603,40.738c2.606-0.687,5.075-1.799,7.267-3.412c1.074-4.934,0.418-10.973-0.044-14.805
		C405.745,318.887,404.813,312.358,402.518,306.348z"/>
	<path fill="#F2DB6E" d="M415.534,178.347c7.632-0.406,15.292,0.147,22.929,0.248c0.539,0.007,1.085,0.021,1.625,0.03
		c-1.782-1.051-3.607-2.06-5.516-2.985c-10.384,0.089-20.766,0.174-31.147,0.194c-1.602,1.259-3.125,2.66-4.588,4.146
		C404.332,178.959,410.154,178.633,415.534,178.347z"/>
	<path fill="#F2DB6E" d="M467.555,334.834c-3.012-6.026-2.843-11.435-2.455-17.863c0.479-8.021,1.834-15.913,3.314-23.77
		c-3.693,13.191-10.757,39.97-2.187,46.54c1.809,0.203,3.735,0.171,5.784-0.141C470.327,339.08,468.782,337.289,467.555,334.834z"/>
	<path fill="#F2DB6E" d="M472.299,298.94c-3.64,15.536-8.039,36.129,3.367,38.512c1.763-0.032,3.6-0.582,5.242-1.692
		c-2.302,0.46-4.144,0.153-5.371-0.308c-4.77-1.789-6.605-8.384-6.357-12.604C469.63,315.212,470.912,307.195,472.299,298.94z"/>
	<path fill="#F2DB6E" d="M454.673,200.409c7.41,13.37,11.586,29.874,10.837,44.573c-0.849,16.637-6.16,32.599-8.214,49.042
		c4.999-17.923,11.471-35.932,11.319-54.512C468.499,225.382,465.255,209.834,454.673,200.409z"/>
	<path fill="#F2DB6E" d="M476.444,319.547c-0.269,8.765,4.764,9.219,10.186,7.207c-4.773-0.401-8.434-6.592-8.484-12.174
		c-0.016-1.867,0.061-3.552,0.209-5.149C477.308,312.806,476.546,316.198,476.444,319.547z"/>
	<path fill="#CC9600" d="M612.316,293.507c-0.292,5.92-9.902,9.263-14.335,10.827c-6.727,2.378-13.815,3.944-21.027,4.934
		c-0.316-8.482-0.758-19.375-0.877-28.855C586.514,279.979,612.837,282.883,612.316,293.507z"/>
	<path fill="#E0B000" d="M563.19,169.421c3.841-3.346,12.142-3.47,10.167,5.459c-0.764,3.454-4.886,4.634-7.94,3.972
		C561.369,177.973,559.349,172.766,563.19,169.421z"/>
	<path fill="#CC9600" d="M537.232,280.522c12.321-1.224,23.232-1.275,35.427-0.299c0.383,9.595,0.828,19.809,1.085,29.473
		c-10.729,1.304-20.598,1.223-31.071,0.7c-7.329-0.36-39.45-1.692-38.063-14.705c0.029-0.28-0.003-0.526-0.061-0.757
		C509.016,283.622,526.812,281.556,537.232,280.522z"/>
	<path fill="#E0B000" d="M248.315,298.586c3.192-10.671,35.081-15.579,42.302-16.618c4.045-0.582,8.209-1.125,12.423-1.539
		c0.082-0.786,0.166-1.575,0.246-2.355c-20.383,0.883-59.539,10.053-55.103,20.262C248.219,298.418,248.272,298.503,248.315,298.586
		z"/>
	<path fill="#E0B000" d="M343.552,284.096c5.903,1.809,12.703,5.437,16.526,10.693c0.767-12.867-31.86-19.381-54.63-16.861
		c-0.112,0.771-0.211,1.541-0.317,2.312C317.849,280.204,331.302,280.341,343.552,284.096z"/>
	<path fill="#E0B000" d="M599.272,285.968c5.184,1.61,9.871,3.553,13.019,7.705c0.004-0.057,0.022-0.11,0.025-0.167
		c0.521-10.623-25.802-13.527-36.239-13.095c0.01,0.794,0.025,1.611,0.039,2.424C576.996,282.881,592.593,283.895,599.272,285.968z"
		/>
	<path fill="#E0B000" d="M504.828,298.317c1.411-11.473,22.786-14.545,37.063-16.056c10.68-1.13,21.073-0.222,30.867,0.385
		c-0.032-0.805-0.065-1.626-0.097-2.424c-12.196-0.976-23.107-0.925-35.427,0.299c-10.42,1.034-28.217,3.1-32.683,14.412
		c0.058,0.231,0.09,0.476,0.061,0.757C504.51,296.628,504.603,297.498,504.828,298.317z"/>
	<path fill="#B37A00" d="M283.122,287.026c-8.86,1.343-28.388,4.285-31.608,14.824c7.493,5.362,25.982,10.957,47.869,10.191
		c0.952-7.898,2.046-16.889,3.037-25.863C295.968,286.021,289.423,286.071,283.122,287.026z"/>
	<path fill="#B37A00" d="M309.313,286.394c-1.636-0.057-3.288-0.113-4.947-0.163c-1.088,9.079-1.888,17.928-3,25.809
		c13.469,1.375,33.331-0.248,45.524-5.029c2.909-1.141,7.175-3.348,10.068-6.239C351.09,287.811,319.714,286.753,309.313,286.394z"
		/>
	<path fill="#B37A00" d="M597.923,297.652c-6.41-4.418-13.968-6.911-21.659-8.298c0.192,6.947,0.469,14.013,0.69,19.913
		c7.212-0.99,14.3-2.556,21.027-4.934c1.348-0.475,3.173-1.117,5.069-1.944C601.638,300.647,599.947,299.048,597.923,297.652z"/>
	<path fill="#B37A00" d="M567.809,288.23c-10.822-0.95-21.871-0.629-32.588,1.212c-5.988,1.029-26.608,5.392-26.438,13.87
		c8.711,5.984,28.359,6.813,33.89,7.085c10.474,0.523,20.342,0.604,31.071-0.7c-0.181-6.817-0.456-13.902-0.738-20.856
		C571.27,288.594,569.534,288.382,567.809,288.23z"/>
	<path fill="#E0B000" d="M597.385,324.704c-11.222,6.537-24.555,9.608-37.347,10.317c-21.65,1.199-56.698-9.227-57.175-30.706
		c7.032,8.907,27.868,10.536,36.338,11.217c21.971,1.761,63.392-0.518,76.539-16.501
		C616.717,310.182,608.911,317.989,597.385,324.704z"/>
	<path fill="#C99600" d="M280.482,334.487c0.302,0.077,0.595,0.168,0.9,0.241c9.426-8.172,23.569-10.58,35.659-9.868
		c6.881,0.404,14.44,1.687,21.279,4.391c1.271-0.581,2.491-1.202,3.669-1.859C320.645,320.72,294.869,316.735,280.482,334.487z"/>
	<path fill="#C99600" d="M317.041,327.102c-11.007-0.449-23.921,1.249-32.912,8.21c2.662,0.491,5.401,0.801,8.194,0.912
		c16.417,0.645,31.398-1.141,43.096-5.743C329.386,328.364,322.9,327.341,317.041,327.102z"/>
	<path fill="#C99600" d="M317.324,169.746c-2.236,3.132-5.333,5.729-9.004,6.226c0.887,1.834,2.648,3.054,5.132,2.391
		c3.587-0.953,6.07-3.516,4.802-7.037C318.042,170.736,317.705,170.223,317.324,169.746z"/>
	<path fill="#C99600" d="M562.029,176.497c0.749,1.152,1.93,2.039,3.388,2.355c3.054,0.662,7.176-0.518,7.94-3.972
		c0.398-1.799,0.363-3.213,0.042-4.318C570.543,174.008,566.624,176.348,562.029,176.497z"/>
	<path fill="#C99600" d="M540.047,333.36c0.501,0.102,1.002,0.202,1.503,0.295c15.022-7.395,33.419-9.569,50.12-6.033
		c1.182-0.542,2.347-1.118,3.498-1.716C576.64,321.366,556.956,323.45,540.047,333.36z"/>
	<path fill="#C99600" d="M545.515,334.3c5.126,0.719,10.105,0.967,14.522,0.722c9.367-0.518,19.016-2.322,27.92-5.807
		C573.738,326.871,558.53,328.67,545.515,334.3z"/>
	<path d="M440.281,247.922c-0.517,0.74-1.847,2.161-2.679,2.679c-0.468-2.845-2.975-6.986-5.248-8.286
		c-2.662-1.521-4.838,0.907-5.625,3.309c-1.082-1.699-1.909-2.978-4.169-2.371c-2.744,0.739-3.995,4.857-4.407,7.654
		c-0.375-0.311-1.632-1.125-1.991-1.455c-0.306-0.28-0.152,1.226,2.275,2.932c-0.039,6.444,3.392,13.211,10.355,14.197
		c6.678,0.947,11.336-6.255,9.575-12.993C441.429,250.907,440.816,247.155,440.281,247.922z"/>
	<path fill="#C94761" d="M423.156,244.98c1.914-0.761,2.807,1.487,3.036,3.63c0.099,0.928,1.285,1.07,1.378,0.077
		c0.229-2.45,0.694-4.191,2.951-4.699c2.257-0.508,4.722,4.514,5.166,7.532c-5.437,3.675-13.511,2.447-16.391,0.47
		C419.226,250.372,419.991,246.237,423.156,244.98z"/>
	<path fill="#BD3D53" d="M419.308,251.997c2.869,1.96,10.842,3.173,16.271-0.411C430.368,249.834,424.97,250.156,419.308,251.997z"
		/>
	<path fill="#FF7085" d="M429.464,263.867c-5.62,0.29-8.926-5.829-9.983-10.777c4.546,3.038,11.654,3.62,16.436,1.799
		C437.066,259.023,434.317,263.614,429.464,263.867z"/>
	<path d="M426.422,230.006c0.508-0.487,0.459-1.838-0.536-1.149c-0.995,0.689-5.329,1.908-6.148,2.217s-1.125,2.224-0.732,4.19
		c0.569,2.843,3.02,4.444,5.811,4.045c0.389-0.054,0.709-0.812,0.248-0.896c-3.697-0.675-4.234-5.575-3.545-5.729
		C422.211,232.533,425.163,231.199,426.422,230.006z"/>
	<g>
		<path d="M386.065,435.805c-9.43-0.711-53.028-1.96-67.086,0.177c-6.165,0.938-8.738,6.674-6.584,6.407
			c2.848-0.354,9.787-0.534,25.147-0.171c11.335,0.267,39.16-0.601,50.48-0.543C401.443,441.747,393.183,436.343,386.065,435.805z"
			/>
		<path d="M316.464,428.858c6.43-0.886,13.725-1.594,19.954-1.774c1.846-0.049,1.6-0.889,1.423-3.38
			c-0.709-9.926,0.407-24.119,12.547-25.885c14.737-2.143,15.756,16.943,14.522,27.711c-0.2,1.734-0.383,2.82,0.868,2.8
			c3.95-0.052,15.482,0.357,26.515,1.423c1.792,0.177-0.009-7.31-17.974-7.827c1.949-11.942-2.313-32.921-23.133-32.567
			c-15.993,0.276-23.667,17.439-21.71,31.675c-2.368,0.473-8.782,1.65-14.59,5.875C312.93,428.33,315.314,429.018,316.464,428.858z"
			/>
	</g>
	<g>
		<path fill="#6E45D1" d="M383.879,433.324c-9.43-0.712-53.028-1.96-67.086,0.177c-6.166,0.938-8.738,6.674-6.584,6.407
			c2.847-0.354,9.787-0.534,25.147-0.171c11.335,0.267,39.159-0.601,50.48-0.543C399.258,439.266,390.997,433.861,383.879,433.324z"
			/>
		<path fill="#6E45D1" d="M314.279,426.377c6.43-0.886,13.725-1.594,19.954-1.775c1.846-0.049,1.6-0.889,1.423-3.38
			c-0.709-9.926,0.407-24.119,12.547-25.885c14.737-2.143,15.756,16.943,14.522,27.711c-0.2,1.734-0.383,2.82,0.868,2.8
			c3.95-0.052,15.482,0.357,26.515,1.423c1.792,0.177-0.009-7.31-17.974-7.827c1.949-11.942-2.313-32.921-23.133-32.567
			c-15.993,0.276-23.667,17.439-21.71,31.675c-2.368,0.473-8.782,1.65-14.59,5.875C310.744,425.848,313.129,426.537,314.279,426.377
			z"/>
	</g>
	<circle fill="#FFFFFF" cx="450.223" cy="218.49" r="1.758"/>
	<circle fill="#FFFFFF" cx="418.264" cy="218.803" r="1.695"/>
	<circle fill="#FFFFFF" cx="414.433" cy="216.983" r="0.879"/>
	<circle fill="#FFFFFF" cx="446.142" cy="217.673" r="0.942"/>
	<path fill="#F2D470" d="M258.314,314.868c-0.149-2.675,12.973,1.319,13.227,4.756C271.838,323.637,258.507,318.333,258.314,314.868
		z"/>
	<path fill="#F2D470" d="M275.702,320.662c0.28-2.66,6.39-1.93,6.39,0.745C282.093,324.081,275.405,323.485,275.702,320.662z"/>
	<path fill="#F2D470" d="M516.895,317.942c-1.239-3.806,14.325-1.289,15.608,2.066C533.996,323.91,518.501,322.876,516.895,317.942z
		"/>
	<path fill="#F2D470" d="M539.274,321.27c-0.099-3.15,7.645-2.964,8.149,0.459C547.997,325.631,539.389,324.943,539.274,321.27z"/>
	<path fill="#F2D470" d="M588.376,317.804c0.206-3.028,16.067-8.9,15.605-5.432C603.52,315.84,588.029,322.889,588.376,317.804z"/>
	<path fill="#F2D470" d="M336.624,319.467c0.197-2.863,12.773-7.667,12.773-4.509C349.398,317.512,336.324,323.824,336.624,319.467z
		"/>
	<path fill="#F2D470" d="M309.432,171.607c-0.585-1.429,1.422-3.12,2.776-2.505C313.697,169.779,310.041,173.096,309.432,171.607z"
		/>
	<path fill="#F2D470" d="M563.833,172.098c-0.34-1.915,2.993-3.863,4.485-2.867C570.26,170.525,564.341,174.965,563.833,172.098z"/>
	<path fill="#B39EF5" d="M409.638,371.001c0.234-4.705,4.855-8.903,10.79-10.252C426.363,359.4,409.368,376.397,409.638,371.001z"/>
	<path fill="#B39EF5" d="M432.837,357.242c4.458-1.114,8.903,4.317,9.982,8.094C443.898,369.113,429.601,358.051,432.837,357.242z"
		/>
	<path fill="#FFBAC6" d="M430.886,260.996c-0.75-1.616,2.238-3.446,2.97-2.45C434.673,259.66,431.851,263.075,430.886,260.996z"/>
</g>
</svg>
