<?xml version="1.0" encoding="utf-8"?>
<!-- Generator: Adobe Illustrator 17.0.0, SVG Export Plug-In . SVG Version: 6.00 Build 0)  -->
<!DOCTYPE svg PUBLIC "-//W3C//DTD SVG 1.1//EN" "http://www.w3.org/Graphics/SVG/1.1/DTD/svg11.dtd">
<svg version="1.1" id="Layer_1" xmlns="http://www.w3.org/2000/svg" xmlns:xlink="http://www.w3.org/1999/xlink" x="0px" y="0px"
	 width="800px" height="600px" viewBox="0 0 800 600" enable-background="new 0 0 800 600" xml:space="preserve">
<g>
	<path fill="#231F20" d="M451.564,292.294c-2.458-2.643-21.535-23.83-24.949-26.12c-2.958-5.52-7.482-12.192-7.829-15.33
		c-0.967-8.574,8.068-12.341-0.074-24.307l-40.615,0.02c-8.091,12.001,0.958,15.731,0.03,24.305
		c-0.376,3.502-5.928,11.424-8.712,17.222c-6.128,5.842-20.627,21.932-22.747,24.211c-14.976,16.107-14.467,33.738-14.151,54.427
		c0,0.042,1.32,86.685,1.32,86.685s-5.273,34.608,58.339,34.608c2.405,0,4.712-0.052,6.939-0.139
		c2.229,0.087,4.532,0.139,6.941,0.139c63.616,0,58.339-34.608,58.339-34.608s1.323-86.642,1.323-86.685
		C466.028,326.032,466.539,308.402,451.564,292.294z M398.499,267.526c-0.009,0-0.021,0-0.032,0
		c0.006-0.037,0.011-0.074,0.017-0.119C398.491,267.452,398.491,267.486,398.499,267.526z"/>
	<path fill="#231F20" d="M412.611,203.92c-7.051-4.002-22.42-3.747-29.896,0.49l-0.16,0.089l-0.129,0.136
		c-1.408,1.476-13.687,14.585-11.937,20.793c0.3,1.052,1.118,2.424,3.328,3.012l-0.63-2.001c-0.789,0.931-2.519,3.286-1.559,4.995
		c0.873,1.553,3.062,1.216,3.785,1.107c10.176-1.573,26.268-2.875,45.108-0.148c0.873,0.126,1.112,0.161,1.309,0.161h0.129
		l0.125-0.025c0.777-0.168,3.14-0.664,3.547-2.548c0.402-1.88-1.579-3.445-1.981-3.74l-0.418,2.199
		c2.151-0.567,2.927-1.9,3.194-2.915c1.621-6.107-11.01-18.913-13.554-21.417l-0.116-0.111L412.611,203.92z M422.184,228.243h-0.004
		c0.541,0.404,1.013,1.018,1.019,1.234c0-0.012,0.004-0.03,0.011-0.042c-0.003,0.002-0.25,0.369-1.636,0.661l0.256-0.03
		c-0.069-0.005-0.495-0.064-0.956-0.131c-19.143-2.771-35.494-1.451-45.841,0.151c-1.049,0.161-1.347,0.012-1.35,0.005
		c0.062,0.037,0.14,0.151,0.149,0.225c-0.035-0.359,0.577-1.469,1.258-2.276l1.26-1.493l-1.893-0.508
		c-1.172-0.31-1.457-0.882-1.572-1.283c-1.034-3.658,6.406-13.232,11.341-18.403l-0.287,0.22c6.746-3.824,21.114-4.086,27.445-0.493
		l-0.258-0.196c5.501,5.409,13.866,15.352,12.892,19.005c-0.098,0.389-0.355,0.869-1.424,1.149l-2.514,0.666L422.184,228.243z"/>
	<path fill="#FFFFFF" d="M378.593,230.861c-0.125,0.518-0.191,1.052-0.191,1.602v2.278c0,4.119,3.596,7.455,8.04,7.455h23.901
		c4.442,0,8.043-3.336,8.043-7.455v-2.278c0-0.579-0.074-1.137-0.213-1.677C411.428,229.917,396.549,228.495,378.593,230.861z"/>
	<path fill="#FFFFFF" d="M458.164,437.975c0,14.074-26.712,25.484-59.667,25.484c-32.948,0-59.665-11.409-59.665-25.484
		c0-14.072,26.717-25.481,59.665-25.481C431.451,412.494,458.164,423.904,458.164,437.975z"/>
	<path fill="#231F20" d="M406.197,180.931l-0.311-4.606l1.055,0.012c-1.061-4.507,2.384-9.812,2.384-9.812
		c1.24-2.296,0.618-4.081-1.031-5.359c0.437-1.062,0.678-2.224,0.678-3.442c0-5.052-4.092-9.148-9.151-9.148
		c-5.052,0-9.151,4.096-9.151,9.148c0,0.874,0.131,1.716,0.358,2.514c-2.301,1.077-3.648,2.749-3.065,5.003
		c-0.389,1.523-3.273,10.523-16.391,9.064c0,0,11.312,4.292,18.261-5.089c0.822,1.946,1.595,4.653,1.013,7.123l0.7-0.005
		l-1.232,18.396c0,0-12.198,8.755-12.198,32.101l19.629,0.134v0.012l0.973-0.005l0.975,0.005v-0.012l19.627-0.134
		c0-23.346-12.202-32.101-12.202-32.101l-0.529-7.898c24.736,1.169,29.971,20.37,29.971,20.37l9.553,0.262
		C446.112,183.028,414.068,181.049,406.197,180.931z"/>
	<path fill="#FFFFFF" d="M403.651,425.243c0,3.408-2.629,6.172-5.871,6.172l0,0c-3.248,0-5.877-2.764-5.877-6.172V240.123
		c0-3.405,2.629-6.169,5.877-6.169l0,0c3.242,0,5.871,2.764,5.871,6.169V425.243z"/>
	<path fill="#231F20" d="M398.049,412.494c-2.231,0-4.434,0.055-6.596,0.161v12.588c0,3.408,2.629,6.172,5.873,6.172
		c3.244,0,5.875-2.764,5.875-6.172v-12.65C401.5,412.536,399.785,412.494,398.049,412.494z"/>
	<path fill="#FFFFFF" d="M375.533,286.477c-3.683,3.502-8.066,8.685-12.455,16.331c2.626,1.498,5.577,2.992,8.799,4.455
		c2.464-6.189,5.831-12.39,10.318-16.516C382.196,290.746,379.125,289.228,375.533,286.477z M372.695,284.109
		c-1.123-1.028-2.234-2.162-3.265-3.4c0,0-8.398,2.623-17.271,14.701c2.204,1.786,4.777,3.643,7.789,5.525
		C364.377,293.173,368.835,287.806,372.695,284.109z M361.311,305.999c-2.335,4.445-4.642,9.631-6.817,15.642
		c4.173,1.31,8.443,3.408,11.585,6.791c0,0,1.252-8.425,4.53-17.774C367.204,309.127,364.09,307.569,361.311,305.999z
		 M350.067,298.431c-3.49,5.34-6.959,12.195-9.919,21.031c0,0,4.953-0.089,10.871,1.241c2.28-6.357,4.704-11.858,7.165-16.553
		C355.056,302.213,352.378,300.288,350.067,298.431z"/>
</g>
</svg>
