<?xml version="1.0" encoding="utf-8"?>
<!-- Generator: Adobe Illustrator 17.0.0, SVG Export Plug-In . SVG Version: 6.00 Build 0)  -->
<!DOCTYPE svg PUBLIC "-//W3C//DTD SVG 1.1//EN" "http://www.w3.org/Graphics/SVG/1.1/DTD/svg11.dtd">
<svg version="1.1" id="Layer_1" xmlns="http://www.w3.org/2000/svg" xmlns:xlink="http://www.w3.org/1999/xlink" x="0px" y="0px"
	 width="800px" height="600px" viewBox="0 0 800 600" enable-background="new 0 0 800 600" xml:space="preserve">
<g>
	<path fill="#FFFFFF" d="M310.016,232.563c12.307,98.013,20.655,197.357,32.949,295.374c8.974,18.348,41.693,19.364,58.943,19.395
		c17.071,0.031,53.086-2.918,57.845-19.39c23.131-80.092,21.859-196.123,34.183-294.132
		C430.036,226.709,373.915,225.48,310.016,232.563z"/>
	<path fill="#231F20" d="M402.179,548.579L402.179,548.579h-0.273c-21.582-0.04-51.291-2.165-60.062-20.094l-0.116-0.392
		c-6.139-48.951-11.38-99.046-16.449-147.493c-5.081-48.581-10.338-98.815-16.5-147.881l-0.158-1.256l1.259-0.138
		c28.793-3.194,56.368-4.744,84.296-4.744c31.375,0,63.119,1.902,99.899,5.991l1.256,0.138l-0.159,1.256
		c-4.378,34.816-7.078,72.475-9.69,108.89c-4.715,65.726-9.588,133.689-24.532,185.428
		C455.371,547.599,411.019,548.579,402.179,548.579z M344.176,527.571c8.278,16.508,36.896,18.477,57.735,18.517h0.268
		c23.542,0,52.433-4.846,56.376-18.495c14.869-51.485,19.737-119.319,24.441-184.916c2.583-36.015,5.251-73.237,9.547-107.768
		c-36.156-3.978-67.444-5.835-98.367-5.835c-27.43,0-54.517,1.501-82.764,4.588c6.095,48.692,11.305,98.503,16.346,146.678
		C332.819,428.708,338.051,478.714,344.176,527.571z"/>
	<path fill="#231F20" d="M313.745,271.179c9.03,74.408,16.544,145.079,25.574,219.496c36.635,18.166,83.136,12.13,120.833,2.499
		c8.71-74.137,17.437-148.269,26.156-222.409C428.826,268.782,371.105,274.074,313.745,271.179z"/>
	<path fill="#FFFFFF" d="M401.972,499.86c-18.598,0.138-52.529,0.833-63.067-18.125c1.97,15.702,3.85,31.266,5.816,46.973
		c8.974,18.348,39.937,18.593,57.187,18.624c17.071,0.031,49.57-3.51,55.867-19.457c4.961-12.562,10.389-45.721,10.389-45.721
		C464.644,482.92,446.724,499.535,401.972,499.86z"/>
	<path fill="#231F20" d="M401.928,532.895c-17.652-0.027-50.047,0.223-59.492-18.321c0.718,5.728-0.187,7.631,0.529,13.363
		c8.974,18.348,41.693,19.364,58.943,19.395c17.071,0.031,52.682-3.038,57.845-19.39c3.122-9.898,3.95-13.934,3.95-13.934
		C449.427,520.172,419.384,532.926,401.928,532.895z"/>
	<ellipse fill="#FFFFFF" cx="400.134" cy="270.742" rx="86.303" ry="20.273"/>
	<path fill="#231F20" d="M400.136,292.266c-43.036,0-87.552-8.049-87.552-21.524s44.516-21.524,87.552-21.524
		c43.035,0,87.549,8.049,87.549,21.524S443.17,292.266,400.136,292.266z M400.136,251.708c-50.879,0-85.059,9.844-85.059,19.034
		s34.179,19.03,85.059,19.03c50.877,0,85.055-9.84,85.055-19.03S451.013,251.708,400.136,251.708z"/>
	<ellipse fill="#231F20" cx="401.325" cy="233.311" rx="92.653" ry="27.85"/>
	<path fill="#231F20" d="M496.893,233.556c0,16.865-42.788,30.545-95.567,30.545c-52.781,0-95.571-13.68-95.571-30.545
		c0-16.869,42.79-30.545,95.571-30.545C454.105,203.011,496.893,216.686,496.893,233.556z M401.326,206.441
		c-49.823,0-90.211,12.139-90.211,27.115c0,14.976,40.388,27.119,90.211,27.119c49.821,0,90.21-12.143,90.21-27.119
		C491.535,218.58,451.146,206.441,401.326,206.441z"/>
	<path fill="#231F20" d="M317.318,222.023c0,0-5.86-4.851,4.808-11.586c0,0,4.693-11.675,13.978-15.337c0,0,5.095-4.25,5.967-5.92
		c0,0,2.158-2.682,8.033,3.604c0,0,5.552,0.187,9.638,8.9c0,0,10.37,6.936,16.113,18.469c0,0,19.215,15.947-6.092,22.745
		c0,0-4.008,8.085-13.365,9.907c0,0-2.41,7.127-7.382,5.417c0,0-20.083-6.089-26.765-14.397
		C322.252,243.824,316.652,231.863,317.318,222.023z"/>
	<path fill="#231F20" d="M323.937,243.467c0,0,0.523-6.027,15.528-14.544c0,0,13.38-11.858,15.061-16.317
		c0,0,2.126-9.644-7.555-13.404c0,0,1.49-2.989-3.404-5.528c0,0-1.581-0.993,0.228-4.651c0,0-15.83,9.876-19.266,21.048
		c0,0-9.642,5.354-7.888,9.493C316.641,219.564,319.473,241.062,323.937,243.467z"/>
	<path fill="#FFFFFF" d="M324.475,244.469l-0.833-0.45c-4.563-2.459-7.265-21.711-7.608-24.29
		c-1.685-4.276,6.275-9.109,7.974-10.081c3.607-11.159,18.808-20.749,19.456-21.154l1.862-1.158l-0.973,1.964
		c-1.49,3.016-0.445,3.849-0.437,3.858c3.953,2.045,4.035,4.526,3.81,5.68c9.459,4.049,7.431,13.8,7.409,13.903
		c-1.742,4.637-14.705,16.161-15.255,16.651c-14.657,8.334-15.317,14.076-15.321,14.134L324.475,244.469z M342.502,190.641
		c-4.094,2.842-14.694,10.896-17.377,19.613l-0.075,0.241l-0.219,0.12c-2.545,1.417-8.874,5.738-7.615,8.704l0.044,0.165
		c0.726,5.515,3.197,19.618,6.325,22.918c0.778-2.12,3.818-7.35,15.574-14.023c0.027-0.04,13.177-11.729,14.782-15.992
		c0.057-0.29,1.859-9.087-7.196-12.602l-0.636-0.25l0.304-0.61c0.043-0.094,1.11-2.499-3.135-4.699
		C343.07,194.098,341.817,193.207,342.502,190.641z"/>
	<path fill="#231F20" d="M345.395,189.501c0,0,5.293,1.764,6.199,4.392c0,0,5.353-1.221,8.148,7.791c0,0,7.94,2.993,16.405,19.039
		c0,0,7.754,5.893,6.773,11.577c0,0-18.736-16.13-27.298-22.616c0,0,2.586-2.543-5.735-10.82c0,0-0.665-4.406-4.83-9.622"/>
	<path fill="#231F20" d="M325.676,245.458c0,0,17.273,13.27,26.716,12.045c0,0,3.59-6.076,5.689-5.778c0,0,8.728-1.929,10.73-9.711
		c0,0,12.437-2.392,14.108-9.715c0,0-20.845-21.956-27.255-20.99c0,0-2.011,10.45-18.747,21.074
		C336.918,232.384,322.68,240.581,325.676,245.458z"/>
	<path fill="#FFFFFF" d="M351.099,258.207L351.099,258.207c-9.739,0-25.154-11.755-25.803-12.254l-0.151-0.169
		c-0.511-0.833-0.638-1.786-0.372-2.833c1.263-4.976,11.402-10.86,11.832-11.11c16.245-10.312,18.426-20.549,18.448-20.651
		l0.086-0.432l0.433-0.062l0.527-0.04c7.049,0,26.45,20.348,27.273,21.217l0.229,0.241l-0.073,0.325
		c-1.594,6.976-12.034,9.626-14.215,10.112c-2.246,7.742-10.731,9.706-11.098,9.787l-0.109,0.027l-0.114-0.018h-0.002
		c-1.281,0-3.717,3.203-5.063,5.475l-0.153,0.263l-0.302,0.04C352.029,258.176,351.571,258.207,351.099,258.207z M326.152,245.035
		c1.332,1.002,16.014,11.925,24.948,11.925c0.314,0,0.618-0.013,0.918-0.04c0.87-1.43,3.722-5.827,5.911-5.827l0.103,0.004
		c0.882-0.223,8.399-2.325,10.177-9.239l0.097-0.383l0.39-0.071c0.117-0.027,11.685-2.33,13.536-8.922
		c-5.673-5.938-20.68-20.464-26.069-20.58c-0.603,2.205-3.946,11.506-18.91,21.007c-0.125,0.071-10.135,5.884-11.268,10.348
		C325.81,243.935,325.865,244.518,326.152,245.035z"/>
	<path fill="#FFFFFF" d="M326.765,213.314c0,0,0.783,11.974,11.731,4.379C338.496,217.693,331.015,221.074,326.765,213.314z"/>
	<path fill="#FFFFFF" d="M324.098,237.703c0,0-3.546-14.018,18.373-18.157C342.471,219.546,322.985,227.614,324.098,237.703z"/>
	<path fill="#FFFFFF" d="M329.913,212.433c0,0-0.696-15.475,15.139-13.769C345.052,198.664,333.134,199.853,329.913,212.433z"/>
	<path fill="#FFFFFF" d="M345.492,232.825c0,0,15.311,0.962,8.517,18.388C354.009,251.213,356.186,237.155,345.492,232.825z"/>
	<path fill="#FFFFFF" d="M349.538,229.756c0,0,8.468,12.655,23.115,9.216C372.652,238.972,360.969,240.327,349.538,229.756z"/>
	<path fill="#231F20" d="M352.494,246.167c0,0-5.119-5.626,6.386-10.807c0,0,6.283-10.891,15.988-13.216
		c0,0,5.637-3.492,6.741-5.025c0,0,2.511-2.356,7.442,4.695c0,0,5.477,0.958,8.3,10.161c0,0,9.296,8.321,13.363,20.544
		c0,0,16.789,18.486-9.221,21.662c0,0-5.102,7.444-14.62,7.938c0,0-3.388,6.717-8.068,4.33c0,0-19.03-8.847-24.485-18.01
		C354.321,268.439,350.453,255.81,352.494,246.167z"/>
	<path fill="#231F20" d="M356.04,268.323c0,0,1.364-5.889,17.416-12.223c0,0,14.911-9.862,17.196-14.045
		c0,0,3.458-9.248-5.599-14.326c0,0,1.896-2.753-2.594-5.956c0,0-1.428-1.203,0.878-4.57c0,0-17.057,7.559-22.025,18.134
		c0,0-10.302,3.951-9.144,8.299C352.167,243.636,351.959,265.321,356.04,268.323z"/>
	<path fill="#FFFFFF" d="M356.415,269.366l-0.745-0.539c-4.169-3.069-4.147-22.513-4.125-25.119c-1.071-4.468,7.491-8.134,9.31-8.86
		c5.136-10.544,21.529-17.907,22.229-18.214l2.006-0.891l-1.239,1.813c-1.899,2.78-0.979,3.751-0.972,3.76
		c3.627,2.579,3.359,5.047,2.974,6.156c8.796,5.336,5.418,14.704,5.384,14.802c-2.37,4.347-16.825,13.943-17.437,14.348
		c-15.525,6.138-17.139,11.796-17.152,11.854L356.415,269.366z M381.828,218.624c-4.452,2.241-16.075,8.726-19.953,16.981
		l-0.108,0.227l-0.233,0.089c-2.721,1.047-9.596,4.432-8.765,7.555l0.022,0.165c-0.054,5.564,0.413,19.872,3.046,23.578
		c1.071-1.987,4.813-6.735,17.388-11.702c0.034-0.036,14.693-9.76,16.878-13.76c0.098-0.276,3.115-8.74-5.355-13.488l-0.597-0.334
		l0.386-0.561c0.06-0.085,1.45-2.316-2.441-5.091C381.909,222.126,380.794,221.07,381.828,218.624z"/>
	<path fill="#231F20" d="M384.851,217.903c0,0,4.992,2.486,5.526,5.216c0,0,5.467-0.459,6.975,8.856c0,0,7.436,4.076,13.57,21.15
		c0,0,6.851,6.918,5.084,12.415c0,0-16.289-18.598-23.857-26.224c0,0,2.918-2.156-4.16-11.519c0,0-0.038-4.454-3.435-10.196"/>
	<path fill="#231F20" d="M357.482,270.537c0,0,15.245,15.564,24.767,15.675c0,0,4.403-5.515,6.44-4.922
		c0,0,8.913-0.686,11.986-8.112c0,0,12.65-0.624,15.329-7.639c0,0-17.56-24.665-24.043-24.607c0,0-3.453,10.067-21.513,18.237
		C370.448,259.169,355.199,265.29,357.482,270.537z"/>
	<path fill="#FFFFFF" d="M382.547,286.841h-0.305c-9.667-0.116-24.574-15.226-25.205-15.871l-0.128-0.183
		c-0.389-0.9-0.38-1.857,0.03-2.855c1.949-4.748,12.816-9.154,13.277-9.341c17.529-7.929,21.123-17.76,21.157-17.863l0.144-0.41
		l0.441-0.005c6.662,0,22.744,22.317,24.555,24.865l0.193,0.272l-0.119,0.312c-2.553,6.682-13.259,7.845-15.489,8.014
		c-3.31,7.354-11.986,8.107-12.358,8.134l-0.116,0.013l-0.106-0.031h-0.018c-1.5,0-4.306,2.886-5.762,4.713L382.547,286.841z
		 M358.012,270.185c1.217,1.22,15.131,14.989,23.947,15.395c1.075-1.31,4.655-5.354,6.772-4.918
		c0.935-0.102,8.644-1.14,11.367-7.724l0.151-0.365l0.394-0.018c0.121-0.004,11.897-0.664,14.653-6.936
		c-4.863-6.789-17.657-23.221-22.926-24.032c-0.904,2.094-5.51,10.842-21.666,18.152c-0.134,0.053-10.865,4.401-12.613,8.664
		C357.828,269.045,357.801,269.633,358.012,270.185z"/>
	<path fill="#FFFFFF" d="M363.064,238.865c0,0-0.901,11.969,11.003,5.983C374.067,244.848,366.185,247.147,363.064,238.865z"/>
	<path fill="#FFFFFF" d="M357.01,262.639c0,0-1.549-14.375,20.731-15.395C377.741,247.245,357.321,252.496,357.01,262.639z"/>
	<path fill="#FFFFFF" d="M366.308,238.434c0,0,1.48-15.421,16.918-11.511C383.226,226.923,371.259,226.429,366.308,238.434z"/>
	<path fill="#FFFFFF" d="M378.874,260.808c0,0,15.027,3.1,5.854,19.404C384.728,280.212,388.857,266.595,378.874,260.808z"/>
	<path fill="#FFFFFF" d="M383.312,258.336c0,0,6.608,13.72,21.591,12.366C404.903,270.702,393.143,270.404,383.312,258.336z"/>
	<path fill="#231F20" d="M379.965,296.792c0,0,4.335-6.735,12.73,3.555c0,0,12.795,3.43,17.805,12.664c0,0,5.085,4.797,6.946,5.492
		c0,0,3.078,1.916-2.754,8.847c0,0,0.519,5.835-8.074,11.208c0,0-5.938,11.729-17.267,19.19c0,0-14.23,22.112-24.549-3.483
		c0,0-8.957-3.158-12.049-12.704c0,0-7.76-1.626-6.605-7.034c0,0,3.824-21.769,11.653-29.81
		C357.801,304.717,369.6,297.349,379.965,296.792z"/>
	<path fill="#FFFFFF" d="M358.396,306.427c0,0,6.358-0.214,17.171,14.392c0,0,14.096,12.482,18.972,13.671
		c0,0,10.346,1.007,13.047-9.6c0,0,3.319,1.185,5.355-4.254c0,0,0.833-1.782,4.883-0.361c0,0-12.327-15.288-24.442-17.462
		c0,0-5.854-8.624-9.961-6.263C383.421,296.551,360.331,301.465,358.396,306.427z"/>
	<path fill="#FFFFFF" d="M417.531,322.014c0,0-1.167,5.76-3.804,7.038c0,0,1.956,5.448-7.109,9.506c0,0-2.129,8.682-17.827,19.564
		c0,0-5.173,8.856-11.247,8.553c0,0,14.491-21.64,20.185-31.409c0,0,2.991,2.383,10.584-7.372c0,0,4.52-1.243,9.44-6.272"/>
	<path fill="#231F20" d="M376.844,367.022l0.379-0.566c0.147-0.214,14.55-21.734,20.17-31.382l0.226-0.387l0.354,0.281
		c0.025,0.018,2.879,1.889,10.034-7.31l0.083-0.098l0.121-0.031c0.047-0.013,4.487-1.296,9.268-6.178l0.552,0.548l-0.186,0.183
		l0.065,0.013c-0.044,0.232-1.157,5.577-3.736,7.154c0.258,1.274,0.613,6.009-7.229,9.59c-0.406,1.354-3.349,9.466-17.86,19.555
		c-0.556,0.927-5.553,8.967-11.556,8.664L376.844,367.022z M397.88,335.774c-5.201,8.869-17.238,26.959-19.605,30.505
		c5.465-0.396,10.136-8.268,10.182-8.352l0.116-0.12c15.357-10.655,17.649-19.252,17.673-19.341l0.043-0.183l0.17-0.076
		c8.636-3.866,6.922-8.971,6.902-9.02l-0.117-0.33l0.314-0.156c1.771-0.855,2.86-4.013,3.328-5.693
		c-4.078,3.769-7.626,5.003-8.344,5.225c-4.657,5.96-7.662,7.452-9.367,7.657C398.585,335.956,398.162,335.876,397.88,335.774z"/>
	<path fill="#FFFFFF" d="M356.537,308.499c0,0-11.69,19.747-9.203,29.462c0,0,6.804,2.98,6.753,5.216c0,0,3.127,8.878,11.515,9.978
		c0,0,4.081,12.709,11.942,13.519c0,0,9.892-22.829,18.49-31.15c0,0-11.181-0.78-24.406-16.927
		C371.628,318.597,361.252,304.757,356.537,308.499z"/>
	<path fill="#231F20" d="M390.27,305.558c0,0-12.418,2.343-3.086,12.811C387.184,318.37,382.698,310.993,390.27,305.558z"/>
	<path fill="#231F20" d="M364.443,305.866c0,0,14.201-5.488,21.304,16.901C385.746,322.766,374.837,303.411,364.443,305.866z"/>
	<path fill="#231F20" d="M391.596,308.735c0,0,16.084-2.682,16.308,14.081C407.904,322.815,405.158,310.508,391.596,308.735z"/>
	<path fill="#231F20" d="M372.255,327.613c0,0,0.931,16.134-18.15,11.234C354.105,338.847,369.084,339.341,372.255,327.613z"/>
	<path fill="#231F20" d="M375.976,331.457c0,0-12.152,10.459-6.698,25.333C369.278,356.79,366.378,344.745,375.976,331.457z"/>
	<path fill="#231F20" d="M397.958,383.922c0,0-2.388-7.644,10.89-7.483c0,0,10.842-7.613,21.139-5.533c0,0,6.944-0.815,8.671-1.795
		c0,0,3.443-1.136,5.016,7.782c0,0,4.813,3.35,3.418,13.386c0,0,5.185,12.081,3.64,25.556c0,0,7.828,25.106-18.42,16.597
		c0,0-8.174,4.842-17.482,1.087c0,0-6.224,4.909-9.629,0.552c0,0-14.247-16.901-15.389-28.063
		C389.811,406.008,391.733,392.225,397.958,383.922z"/>
	<path fill="#FFFFFF" d="M391.507,406.649c0,0,3.916-5.016,22.057-3.938c0,0,18.617-2.802,22.659-5.782
		c0,0,7.409-7.283,1.009-16.157c0,0,3.039-1.791,0.175-6.842c0,0-0.833-1.782,2.854-3.973c0,0-19.634-0.356-29.073,7.541
		c0,0-10.374-1.047-11.199,3.617C399.988,381.116,388.94,401.976,391.507,406.649z"/>
	<path fill="#FFFFFF" d="M441.405,371.294c0,0,3.667,4.593,2.956,7.435c0,0,5.431,1.996,2.731,11.55c0,0,5.292,7.203,3.567,26.228
		c0,0,3.471,9.649-0.656,14.112c0,0-7.3-24.999-11.137-35.632c0,0,3.745-0.766,1.137-12.851c0,0,1.943-4.263,1.244-11.265"/>
	<path fill="#231F20" d="M449.819,431.381l-0.187-0.65c-0.072-0.254-7.341-25.106-11.13-35.614l-0.154-0.419l0.441-0.094
		c0.029-0.005,3.293-0.993,0.832-12.384l-0.023-0.125l0.055-0.12c0.018-0.04,1.889-4.263,1.209-11.065l0.772-0.071l0.024,0.258
		l0.049-0.045c0.15,0.187,3.536,4.468,3.093,7.457c1.142,0.619,5.002,3.39,2.718,11.702c0.775,1.176,5.109,8.637,3.536,26.242
		c0.356,1.024,3.313,10.014-0.767,14.428L449.819,431.381z M439.35,395.192c3.466,9.68,9.617,30.522,10.819,34.612
		c3.204-4.446,0.165-13.079,0.126-13.167l-0.02-0.165c1.683-18.615-3.443-25.894-3.492-25.965l-0.111-0.151l0.049-0.183
		c2.576-9.1-2.441-11.065-2.49-11.078l-0.325-0.125l0.082-0.334c0.477-1.911-1.247-4.775-2.235-6.209
		c0.275,5.546-1.053,9.056-1.345,9.751c1.583,7.399,0.8,10.66-0.136,12.098C439.941,394.769,439.608,395.045,439.35,395.192z"/>
	<path fill="#FFFFFF" d="M391.904,409.402c0,0,7.642,21.64,16.692,25.965c0,0,6.651-3.305,8.333-1.831c0,0,8.817,3.296,15.041-2.432
		c0,0,12.367,5.029,18.033-0.486c0,0-11.164-22.232-12.031-34.171c0,0-7.77,8.076-28.643,7.862
		C409.33,404.311,392.055,403.384,391.904,409.402z"/>
	<path fill="#231F20" d="M411.29,381.642c0,0-6.167,11.029,7.849,10.593C419.138,392.234,410.602,390.938,411.29,381.642z"/>
	<path fill="#231F20" d="M394.957,401.656c0,0,4.901-14.419,26.633-5.501C421.591,396.154,399.745,392.105,394.957,401.656z"/>
	<path fill="#231F20" d="M414.582,382.666c0,0,8.261-14.058,21.26-3.474C435.842,379.192,424.641,373.401,414.582,382.666z"/>
	<path fill="#231F20" d="M416.652,409.616c0,0,12.966,9.635-3.035,21.128C413.617,430.744,423.612,419.572,416.652,409.616z"/>
	<path fill="#231F20" d="M421.985,409.224c0,0,0.224,16.036,15.134,21.395C437.119,430.619,426.017,425.113,421.985,409.224z"/>
	<path fill="#FFFFFF" d="M348.831,268.501c0,0,15.173,11.747,33.039,1.711c8.957-5.029,14.193-6.112,36.711,2.695
		c0,0-22.152,23.493-47.112,13.586C371.468,286.493,341.121,282.818,348.831,268.501z"/>
	<path fill="#231F20" d="M424.182,208.597c0,0,4.232-6.321,12.022,3.608c0,0,12.083,3.483,16.672,12.348
		c0,0,4.744,4.633,6.492,5.336c0,0,2.891,1.871-2.769,8.352c0,0,0.382,5.55-7.872,10.495c0,0-5.846,11.02-16.733,17.907
		c0,0-13.915,20.736-23.245-3.746c0,0-8.451-3.167-11.215-12.29c0,0-7.336-1.675-6.142-6.793c0,0,4.02-20.598,11.606-28.09
		C402.999,215.724,414.326,208.94,424.182,208.597z"/>
	<path fill="#231F20" d="M403.52,217.364c0,0,6.049-0.089,16.05,13.969c0,0,13.156,12.107,17.767,13.323
		c0,0,9.807,1.14,12.564-8.873c0,0,3.126,1.176,5.158-3.951c0,0,0.823-1.675,4.644-0.245c0,0-11.434-14.744-22.896-17.025
		c0,0-6.306-9.052-10.248-6.887C426.558,207.675,405.459,212.682,403.52,217.364z"/>
	<path fill="#FFFFFF" d="M438.236,245.32c-0.608,0-0.971-0.044-0.971-0.044c-4.793-1.256-17.577-12.985-18.117-13.484
		c-9.688-13.595-15.567-13.805-15.627-13.805l-0.922-0.009l0.348-0.851c1.978-4.789,20.855-9.435,23.39-10.036
		c0.476-0.25,0.999-0.374,1.556-0.374c3.82,0,8.393,6.058,9.28,7.283c11.47,2.45,22.554,16.602,23.022,17.203l1.346,1.737
		l-2.058-0.771c-0.952-0.356-1.782-0.539-2.462-0.539c-1.104,0-1.403,0.477-1.414,0.499c-1.674,4.232-4.181,4.464-5.269,4.374
		C447.779,244.674,440.458,245.32,438.236,245.32z M437.493,244.051c0.049,0,0.328,0.022,0.743,0.022
		c2.626,0,8.96-0.824,11.062-8.459l0.184-0.659l0.638,0.241c0,0.004,2.582,0.891,4.359-3.59c0.078-0.165,0.649-1.216,2.543-1.216
		c0.295,0,0.611,0.022,0.942,0.076c-3.246-3.782-12.332-13.511-21.278-15.292l-0.246-0.049l-0.143-0.209
		c-1.35-1.933-5.49-6.945-8.404-6.945c-0.379,0-0.718,0.08-1.035,0.254l-0.156,0.058c-5.416,1.287-19.21,5.181-22.161,8.628
		c2.184,0.575,7.728,3.083,15.537,14.063c0.044,0.022,12.988,11.898,17.406,13.078H437.493z"/>
	<path fill="#231F20" d="M459.388,233.226c0,0-1.213,5.443-3.74,6.615c0,0,1.757,5.198-6.921,8.896c0,0-2.174,8.201-17.268,18.255
		c0,0-5.076,8.312-10.833,7.916c0,0,14.143-20.277,19.727-29.458c0,0,2.795,2.316,10.18-6.807c0,0,4.315-1.105,9.077-5.777"/>
	<path fill="#231F20" d="M401.722,219.292c0,0-11.45,18.54-9.273,27.81c0,0,6.409,2.953,6.324,5.065c0,0,2.809,8.49,10.755,9.693
		c0,0,3.643,12.13,11.097,13.047c0,0,19.727-22.967,18.112-29.248c0,0-10.6-0.94-22.865-16.508
		C415.873,229.15,406.268,215.822,401.722,219.292z"/>
	<path fill="#FFFFFF" d="M420.881,275.566l-0.331-0.04c-7.101-0.873-10.8-10.989-11.499-13.114
		c-7.937-1.448-10.752-9.693-10.869-10.049l-0.037-0.107l0.006-0.111c0.043-1.051-3.061-3.14-5.962-4.477l-0.277-0.129l-0.069-0.294
		c-2.21-9.412,8.878-27.511,9.35-28.282l0.153-0.165c0.612-0.472,1.329-0.704,2.129-0.704c5.138,0,12.591,10.254,12.905,10.691
		c11.946,15.163,22.312,16.241,22.415,16.25l0.439,0.04l0.109,0.428c1.649,6.415-16.202,27.435-18.243,29.81L420.881,275.566z
		 M399.397,252.055c0.321,0.878,3.178,8.125,10.223,9.185l0.39,0.062l0.116,0.374c0.034,0.12,3.505,11.39,10.252,12.562
		c5.429-6.357,18.306-22.718,17.825-28.023c-2.247-0.379-11.846-2.748-22.819-16.682c-2.056-2.846-8.171-10.192-11.909-10.192
		c-0.489,0-0.91,0.125-1.284,0.383c-0.893,1.474-10.918,18.286-9.198,26.941C394.538,247.4,399.292,249.846,399.397,252.055z"/>
	<path fill="#FFFFFF" d="M433.803,217.11c0,0-11.829,2-3.159,12.116C430.643,229.226,426.521,222.13,433.803,217.11z"/>
	<path fill="#FFFFFF" d="M409.273,216.941c0,0,13.584-4.953,19.926,16.428C429.199,233.369,419.194,214.802,409.273,216.941z"/>
	<path fill="#FFFFFF" d="M435.004,220.152c0,0,15.323-2.267,15.233,13.662C450.238,233.814,447.845,222.076,435.004,220.152z"/>
	<path fill="#FFFFFF" d="M416.301,237.725c0,0,0.595,15.333-17.429,10.343C398.872,248.069,413.082,248.808,416.301,237.725z"/>
	<path fill="#FFFFFF" d="M419.764,241.44c0,0-11.729,9.706-6.814,23.929C412.95,265.37,410.412,253.882,419.764,241.44z"/>
	<polygon fill="#231F20" points="450.036,278.417 436.593,276.871 508.081,68.188 520.579,72.469 	"/>
	<polygon fill="#231F20" points="356.157,278.35 343.2,273.646 277.095,75.09 289.681,71.054 	"/>
	<path fill="#FFFFFF" d="M408.304,270.212c0,0,5.382-8.317,31.324-3.666C439.628,266.546,423.905,310.962,408.304,270.212z"/>
	<path fill="#231F20" d="M362.211,257.998c-30.232-4.379-51.096-13.675-51.096-24.442c0-1.488,0.417-2.944,1.182-4.37
		c-1.854,0.009-3.707,0.022-5.564,0.031c-0.633,1.417-0.979,2.864-0.979,4.339c0,12.482,23.443,23.208,57.015,27.948
		C362.358,260.426,362.198,259.227,362.211,257.998z"/>
	<path fill="#231F20" d="M456.728,254.92c-15.411,3.688-35.395,5.751-56.627,5.751c-21.728,0-39.828-2.178-55.4-6.027
		c-0.749,0.37-4.722,1.858-6.181,1.929c16.936,4.878,36.974,7.911,61.566,7.911c24.244,0,46.365-2.896,63.212-7.648
		C462.15,256.648,457.868,255.303,456.728,254.92z"/>
	<path fill="#231F20" d="M455.535,469.97c0,9.586-25.152,17.355-56.185,17.355c-31.026,0-56.183-7.769-56.183-17.355
		c0-9.586,25.158-17.355,56.183-17.355C430.383,452.615,455.535,460.384,455.535,469.97z"/>
	<path fill="#FFFFFF" d="M399.35,488.006c-31.888,0-56.866-7.925-56.866-18.036c0-10.116,24.979-18.036,56.866-18.036
		c31.89,0,56.866,7.92,56.866,18.036C456.217,480.082,431.24,488.006,399.35,488.006z M399.35,453.301
		c-30.081,0-55.497,7.631-55.497,16.669c0,9.034,25.415,16.669,55.497,16.669c30.087,0,55.5-7.635,55.5-16.669
		C454.85,460.932,429.437,453.301,399.35,453.301z"/>
	<ellipse fill="#FFFFFF" cx="399.095" cy="478.051" rx="13.768" ry="4.254"/>
	<path fill="#FFFFFF" d="M455.876,470.58c0,0-57.738,17.765-112.582-0.343c0,0-2.723,13.604,2.722,14.281
		c0,0,64.961,19.391,109.181-2.379L455.876,470.58z"/>
	<path fill="#FFFFFF" d="M353.673,460.567c0,0,21.586-4.125,30.005,9.898C383.677,470.465,371.388,459.221,353.673,460.567z"/>
	<path fill="#FFFFFF" d="M412.078,474.371c0,0,10.754-18.192,26.818-15.221C438.896,459.15,422.453,460.754,412.078,474.371z"/>
	<path fill="#FFFFFF" d="M403.596,477.062c0,0-7.769-14.905,0.675-24.175C404.27,452.887,398.718,464.375,403.596,477.062z"/>
	<path fill="#231F20" d="M373.108,325.711l-0.022,2.41c0,0-13.466-1.269-18.783,10.161c-5.314,11.435,1.734,23.529,1.734,23.529
		l-1.53,1.425c0,0-15.206-9.163-4.296-28.838l0.131-0.241C361.506,314.312,373.108,325.711,373.108,325.711z"/>
	<path fill="#FFFFFF" d="M363.512,322.04c5.728-0.775,9.785,3.136,9.956,3.301l0.156,0.156l-0.029,3.185l-0.555-0.049
		c-0.02-0.004-1.783-0.16-4.234,0.174c-4.636,0.624-10.84,2.815-14.036,9.693c-5.14,11.052,1.64,22.932,1.709,23.052l0.204,0.352
		l-2.108,1.973l-0.335-0.2c-0.155-0.094-15.502-9.649-4.478-29.529l0.134-0.25C353.941,326.704,358.525,322.713,363.512,322.04z
		 M372.591,325.933c-0.77-0.673-4.315-3.501-8.94-2.878c-4.649,0.628-8.979,4.446-12.861,11.35l-0.121,0.214
		c-9.674,17.448,1.694,26.5,3.784,27.965l0.94-0.882c-1.115-2.12-6.404-13.203-1.556-23.64c3.398-7.296,9.939-9.613,14.833-10.277
		c1.763-0.24,3.17-0.236,3.907-0.209L372.591,325.933z"/>
	<path fill="#231F20" d="M373.083,325.755c-10.497-0.624-20.35,6.152-23.221,16.7c-2.054,7.537-0.053,15.212,4.664,20.731
		c-1.534-0.089-3.086-0.343-4.633-0.762c-12.093-3.296-19.229-15.764-15.937-27.854c3.291-12.098,15.764-19.23,27.856-15.943
		C366.371,319.871,370.229,322.419,373.083,325.755z"/>
	<path fill="#FFFFFF" d="M352.757,317.523c3.078-0.419,6.171-0.209,9.192,0.61c4.514,1.23,8.499,3.751,11.523,7.292l0.785,0.918
		l-1.204-0.071c-1.417-0.085-2.849-0.031-4.256,0.156c-8.856,1.198-16.093,7.546-18.438,16.161
		c-1.931,7.091-0.226,14.664,4.557,20.259l0.783,0.913l-1.202-0.067c-1.559-0.085-3.157-0.348-4.74-0.775
		c-5.981-1.63-10.968-5.488-14.047-10.869c-3.079-5.381-3.878-11.635-2.251-17.613C335.914,325.412,343.489,318.771,352.757,317.523
		z M371.892,325.207c-2.775-2.918-6.285-5.011-10.213-6.085c-2.887-0.784-5.843-0.98-8.782-0.584
		c-8.86,1.198-16.101,7.546-18.444,16.165c-1.558,5.715-0.793,11.693,2.148,16.838c2.942,5.141,7.711,8.829,13.425,10.384
		c1.115,0.303,2.235,0.517,3.343,0.641c-4.418-5.742-5.915-13.221-4.001-20.246c2.454-9.02,10.026-15.658,19.293-16.909
		C369.728,325.265,370.814,325.194,371.892,325.207z"/>
	<path fill="#FFFFFF" d="M351.243,338.406c-0.215,0.557-0.404,1.14-0.595,1.711c-8.596,2.588-11.431-0.116-11.431-0.116
		C340.503,340.62,347.485,339.226,351.243,338.406z"/>
	<path fill="#FFFFFF" d="M349.144,347.199c-2.399,1.907-4.442,3.368-4.442,3.368c1.722-1.466,3.25-3.042,4.568-4.553v0.013
		C349.179,346.406,349.139,346.803,349.144,347.199z"/>
	<path fill="#FFFFFF" d="M360.619,324.78c-1.109,2.214-1.873,3.996-2.388,5.443c-0.448,0.076-0.901,0.214-1.336,0.428
		C358.733,323.319,360.619,324.78,360.619,324.78z"/>
	<path fill="#FFFFFF" d="M353.04,335.266c-0.281,0.343-0.536,0.695-0.77,1.056c-3.069-3.091-9.527-8.334-9.527-8.334
		c2.001-0.187,7.452,4.517,10.35,7.167L353.04,335.266z"/>
	<path fill="#FFFFFF" d="M353.834,333.8c-1.333-3.866-3.155-10.379-3.155-10.379c0.426,0.78,2.683,5.817,4.111,9.025
		C354.432,332.883,354.116,333.333,353.834,333.8z"/>
	<path fill="#231F20" d="M448.848,356.215l-1.909-1.47c0,0,9.135-9.978,3.229-21.114c-5.919-11.136-19.813-12.811-19.813-12.811
		l-0.217-2.076c0,0,16.483-6.602,25.593,13.969l0.114,0.25C464.936,353.832,448.848,356.215,448.848,356.215z"/>
	<path fill="#FFFFFF" d="M457.562,350.776c-2.835,5.034-8.402,5.907-8.64,5.947l-0.216,0.027l-2.524-1.942l0.375-0.41
		c0.014-0.018,1.203-1.327,2.415-3.479c2.3-4.076,4.294-10.348,0.738-17.047c-5.718-10.762-19.281-12.522-19.417-12.54l-0.406-0.049
		l-0.3-2.873l0.361-0.147c0.167-0.067,17.048-6.544,26.253,14.246l0.118,0.254C459.614,340.33,460.033,346.393,457.562,350.776z
		 M448.979,355.667c1.003-0.209,5.397-1.327,7.689-5.394c2.304-4.089,1.87-9.844-1.294-17.105l-0.097-0.227
		c-8.08-18.241-22.157-14.633-24.587-13.849l0.136,1.283c2.366,0.392,14.393,2.855,19.795,13.016
		c3.771,7.109,1.67,13.729-0.753,18.032c-0.874,1.55-1.727,2.673-2.189,3.243L448.979,355.667z"/>
	<path fill="#231F20" d="M448.826,356.171c6.827-8,7.372-19.947,0.689-28.598c-4.773-6.183-12.098-9.216-19.347-8.784
		c0.997-1.172,2.136-2.254,3.4-3.238c9.924-7.657,24.173-5.827,31.831,4.094c7.664,9.925,5.825,24.175-4.089,31.836
		C457.566,354.362,453.21,355.904,448.826,356.171z"/>
	<path fill="#FFFFFF" d="M467.654,344.923c-1.525,2.704-3.556,5.047-6.03,6.962c-3.707,2.86-8.123,4.517-12.769,4.793l-1.208,0.067
		l0.787-0.913c0.921-1.078,1.744-2.254,2.44-3.492c4.389-7.782,3.693-17.386-1.765-24.451c-4.488-5.822-11.562-9.029-18.908-8.588
		L429,319.372l0.78-0.918c1.01-1.189,2.182-2.303,3.478-3.31c4.907-3.786,10.993-5.439,17.144-4.646
		c6.147,0.789,11.616,3.925,15.404,8.833C471.52,326.731,472.247,336.776,467.654,344.923z M449.983,355.552
		c4.004-0.459,7.788-1.996,11.013-4.481c2.368-1.831,4.305-4.067,5.762-6.651c4.389-7.787,3.697-17.39-1.765-24.464
		c-3.622-4.686-8.848-7.684-14.726-8.441c-5.875-0.757-11.694,0.824-16.379,4.441c-0.917,0.708-1.761,1.474-2.53,2.285
		c7.248-0.063,14.114,3.256,18.562,9.02c5.714,7.394,6.439,17.439,1.851,25.587C451.239,353.788,450.643,354.696,449.983,355.552z"
		/>
	<path fill="#FFFFFF" d="M451.911,331.114c-0.317-0.508-0.663-1.007-1.004-1.501c3.124-8.419,6.988-9.047,6.988-9.047
		C456.621,321.216,453.525,327.626,451.911,331.114z"/>
	<path fill="#FFFFFF" d="M446.163,324.134c-0.072-3.06-0.009-5.573-0.009-5.573c0.136,2.258,0.47,4.432,0.882,6.392l-0.014-0.009
		C446.773,324.646,446.48,324.374,446.163,324.134z"/>
	<path fill="#FFFFFF" d="M457.123,346.812c-1.096-2.218-2.06-3.902-2.903-5.185c0.209-0.405,0.375-0.846,0.465-1.327
		C459.426,346.193,457.123,346.812,457.123,346.812z"/>
	<path fill="#FFFFFF" d="M453.331,334.446c-0.106-0.432-0.232-0.846-0.377-1.252c4.315-0.583,12.394-2.575,12.394-2.575
		c-1.058,1.715-8.098,3.225-11.96,3.933L453.331,334.446z"/>
	<path fill="#FFFFFF" d="M454.02,335.965c3.887,1.265,10.181,3.742,10.181,3.742c-0.877-0.129-6.255-1.368-9.678-2.169
		C454.391,336.99,454.226,336.469,454.02,335.965z"/>
	<path fill="#231F20" d="M361.797,378.158l1.979,1.372c0,0-8.641,10.41-2.203,21.244c6.452,10.838,20.412,11.836,20.412,11.836
		l0.318,2.067c0,0-16.144,7.39-26.244-12.709l-0.126-0.25C345.84,381.312,361.797,378.158,361.797,378.158z"/>
	<path fill="#FFFFFF" d="M353.353,384.007c2.589-5.163,8.108-6.308,8.342-6.352l0.214-0.045l2.616,1.818l-0.355,0.432
		c-0.012,0.013-1.135,1.381-2.243,3.59c-2.097,4.187-3.787,10.544,0.089,17.061c6.235,10.477,19.868,11.577,20.005,11.586
		l0.409,0.031l0.439,2.851l-0.351,0.165c-0.166,0.076-16.711,7.363-26.919-12.949l-0.129-0.249
		C351.812,394.546,351.101,388.51,353.353,384.007z M361.69,378.706c-0.993,0.258-5.329,1.59-7.417,5.764
		c-2.103,4.196-1.39,9.925,2.124,17.021l0.109,0.223c8.957,17.827,22.838,13.537,25.228,12.642l-0.197-1.279
		c-2.383-0.276-14.517-2.147-20.402-12.041c-4.114-6.918-2.338-13.631-0.126-18.045c0.798-1.59,1.591-2.753,2.03-3.345
		L361.69,378.706z"/>
	<path fill="#231F20" d="M361.819,378.198c-6.431,8.321-6.393,20.277,0.703,28.598c5.065,5.942,12.529,8.619,19.75,7.836
		c-0.938,1.216-2.023,2.352-3.242,3.394c-9.539,8.134-23.86,6.994-31.988-2.539c-8.137-9.537-6.998-23.863,2.535-31.997
		C353.176,380.426,357.453,378.679,361.819,378.198z"/>
	<path fill="#FFFFFF" d="M343.561,390.35c1.389-2.78,3.303-5.216,5.684-7.248c3.567-3.038,7.891-4.909,12.52-5.408l1.204-0.134
		l-0.741,0.953c-0.87,1.123-1.634,2.334-2.267,3.604c-4.008,7.991-2.844,17.551,2.95,24.34c4.765,5.595,11.984,8.455,19.304,7.662
		l1.197-0.129l-0.734,0.953c-0.956,1.238-2.07,2.41-3.316,3.474c-4.715,4.022-10.717,5.969-16.896,5.475
		c-6.177-0.49-11.793-3.359-15.817-8.072C340.58,408.707,339.368,398.707,343.561,390.35z M360.692,378.871
		c-3.974,0.655-7.681,2.37-10.781,5.011c-2.277,1.942-4.104,4.272-5.433,6.922c-4.004,7.991-2.844,17.555,2.954,24.348
		c3.844,4.508,9.21,7.247,15.115,7.715c5.909,0.472,11.641-1.39,16.148-5.234c0.878-0.749,1.685-1.55,2.415-2.397
		c-7.239,0.41-14.257-2.566-18.982-8.112c-6.064-7.109-7.276-17.105-3.088-25.462C359.522,380.697,360.076,379.757,360.692,378.871z
		"/>
	<path fill="#FFFFFF" d="M359.951,403.375c0.342,0.49,0.716,0.971,1.079,1.448c-2.711,8.562-6.538,9.381-6.538,9.381
		C355.728,413.487,358.509,406.939,359.951,403.375z"/>
	<path fill="#FFFFFF" d="M366.035,410.066c0.219,3.056,0.277,5.564,0.277,5.564c-0.244-2.25-0.681-4.397-1.188-6.339l0.015,0.009
		C365.399,409.585,365.704,409.843,366.035,410.066z"/>
	<path fill="#FFFFFF" d="M353.984,387.945c1.204,2.165,2.249,3.8,3.152,5.042c-0.189,0.414-0.332,0.864-0.399,1.345
		C351.715,388.68,353.984,387.945,353.984,387.945z"/>
	<path fill="#FFFFFF" d="M358.373,400.119c0.127,0.423,0.273,0.829,0.439,1.229c-4.282,0.793-12.255,3.172-12.255,3.172
		c0.974-1.764,7.936-3.613,11.758-4.513L358.373,400.119z"/>
	<path fill="#FFFFFF" d="M357.612,398.631c-3.943-1.074-10.35-3.243-10.35-3.243c0.884,0.089,6.313,1.064,9.773,1.693
		C357.19,397.624,357.384,398.141,357.612,398.631z"/>
</g>
</svg>
