<?xml version="1.0" encoding="utf-8"?>
<!-- Generator: Adobe Illustrator 17.0.0, SVG Export Plug-In . SVG Version: 6.00 Build 0)  -->
<!DOCTYPE svg PUBLIC "-//W3C//DTD SVG 1.1//EN" "http://www.w3.org/Graphics/SVG/1.1/DTD/svg11.dtd">
<svg version="1.1" id="Layer_1" xmlns="http://www.w3.org/2000/svg" xmlns:xlink="http://www.w3.org/1999/xlink" x="0px" y="0px"
	 width="800px" height="600px" viewBox="0 0 800 600" enable-background="new 0 0 800 600" xml:space="preserve">
<g>
	<path d="M410.757,322.034c-0.013-0.041-0.023-0.083-0.036-0.123c-8.016,4.18-17.721,2.827-25.318-2.185
		c1.339-3.733-0.189-9.212-1.591-10.678s-2.948-2.477-3.014-4.965c-0.051-1.872,0.348-3.97-0.399-5.743
		c-0.895-2.124-4.018-1.436-5.461,0.142c-2.212-3.835-4.824-6.001-8.551-7.098c-3.658-1.076-7.776-0.441-11.21,1.872
		c-0.415-4.374-10.295-18.04-20.249-16.889c1.311-2.071,3.902-3.07,6.117-4.217c2.201-1.138,5.336-4.67,4.282-7.639
		c-2.421-6.819-13.925-10.972-21.8-11.956c-8.741-1.089-20.767,2.079-23.177,9.707c-1.063,3.364,0.648,5.858,2.94,7.83
		c2.591,2.226,4.528,4.199,5.801,6.476c-10.153,1.493-20.251,13.23-23.691,22.283c-4.886,12.841-2.924,27.07,3.788,38.884
		c6.548,11.526,18.568,19.84,31.967,19.728c14.358-0.12,28.506-7.257,31.676-17.259c1.904,1.356,4.217,2.219,6.857,2.399
		c4.715,0.322,14.948-1.888,16.043-9.415c2.392,1.382,5.275,1.583,7.578-0.28c0.964-0.78,1.456-2.641,2.129-3.807
		c7.596,4.951,19.201,5.489,27.325,0.936C412.118,327.354,411.512,324.666,410.757,322.034z M364.43,332.028
		c-3.238,2.123-7.029,0.579-7.893-1.83c1.565-4.218,3.89-16.183,1.651-23.563c3.292-4.39,7.907-4.497,9.112-4.122
		c2.365,0.736,4.057,6.318,2.878,10.246c-1.291-0.643-2.932-1.086-4.127-0.138c-0.987,0.784-1.398,1.687-1.085,2.794
		c-3.711-0.38-4.605,3.889-0.45,6.714c-1.165,0.019-3.395,0.783-3.899,2.463c-0.574,1.912,1.48,3.116,2.2,3.751
		C362.053,329.692,363.048,331.007,364.43,332.028z"/>
	<path fill="#B86E59" d="M362.145,340.203c-7.253,0.481-11.283-4.941-14.457-10.873c-0.131-0.245-0.5-0.081-0.484,0.167
		c0.229,3.72,1.562,5.54,3.729,9.045c-5.161,10.96-18.799,16.058-30.08,16.343c-13.087,0.33-24.466-9.232-30.488-19.815
		c-5.779-10.156-6.923-22.941-3.362-33.983c2.935-9.105,12.979-20.631,22.612-23.415c0.952,2.14,1.392,4.584,1.232,7.779
		c-0.012,0.24,1.024-0.105,1.215-2.653c0.396-5.296-0.988-8.853-5.268-12.529c-2.215-1.901-5.217-3.533-4.329-7.347
		c0.944-4.062,5.468-6.152,8.967-7.3c4.368-1.426,9.311-1.218,13.81-0.661c5.635,0.701,10.976,3.417,15.267,7.053
		c5.56,4.712-1.844,8.638-5.013,10.755c-4.528,3.03-4.096,9.695-1.989,13.959c0.197,0.402,0.932,0.264,0.883-0.216
		c-0.238-2.4-0.598-5.817,0.007-9.025c4.323,0.035,13.159,4.737,18.842,17.278c-2.924,2.678-4.795,6.347-4.198,9.984
		c0.051,0.322,0.516,0.405,0.639,0.084c2.68-6.884,9.24-12.81,17.126-10.474c7.976,2.365,10.211,12.707,9.794,20.018
		c-1.226-0.558-2.595-0.942-3.921-1.198c0.873-10.057-2.859-14.447-8.39-13.323c-4.231,0.86-10.501,4.333-10.764,9.247
		c-0.01,0.231,0.245,0.469,0.463,0.291c0.648-0.532,1.658-1.281,2.297-1.817c0.521,6.09,0.388,14.773-2.042,19.369
		c-1.403-1.785-2.463-4.233-2.74-5.862c-0.106-0.623-0.648,0.376-0.696,1.12c-0.282,4.343,2.034,8.304,5.243,11.076
		c2.685,2.319,7.048,2.906,9.534,0.165c2.994,1.019,6.181,1.147,7.465,0.675C371.894,337.845,366.947,339.885,362.145,340.203z"/>
	<path fill="#A15533" d="M365.586,333.448c-0.577,0.636-1.263,1.076-1.998,1.374c1.521,1.558,3.254,2.775,5.152,3.724
		c2.089-1.021,3.712-2.493,4.311-4.423C371.768,334.595,368.58,334.468,365.586,333.448z"/>
	<path fill="#A15533" d="M347.419,331.19c-1.492,4.336-1.746,9.067-0.892,13.596c1.782-1.824,3.299-3.89,4.407-6.244
		C349.126,335.616,347.909,333.852,347.419,331.19z"/>
	<path fill="#A15533" d="M320.078,258.063c-3.462,0.318-9.427,0.938-11.315,4.194c-0.824,1.423-0.158,3.007,0.791,3.877
		c1.539,1.679,5.485,2.988,9.884,3.601c7.57,1.056,16.48,0.047,16.781-4.708C336.56,259.637,327.832,257.351,320.078,258.063z"/>
	<path fill="#A15533" d="M289.694,325.029c-1.125-0.165-2.246-0.208-3.353-0.119c0.897,3.552,2.22,6.989,4.025,10.16
		c5.39,9.472,15.078,18.104,26.435,19.58C312.65,341.793,301.831,328.883,289.694,325.029z"/>
	<path fill="#A15533" d="M318.223,343.64c-3.695-4.899-8.271-9.135-13.62-12.183c-0.577-0.328-1.179-0.674-1.793-1.024
		c7.422,6.309,13.322,15.348,16.048,24.409c0.661,0.033,1.324,0.059,1.995,0.042c1.148-0.029,2.324-0.122,3.51-0.253
		C322.772,350.735,320.774,347.022,318.223,343.64z"/>
	<path fill="#A15533" d="M302.039,281.514c3.055,0.203,6.021,1.172,8.814,2.601c-0.013-2.541-0.426-4.617-1.237-6.441
		C307.071,278.409,304.501,279.765,302.039,281.514z"/>
	<path fill="#A15533" d="M334.397,277.488c-0.58,3.073-0.274,6.327-0.039,8.705c2.864-2.056,6.02-3.6,9.31-4.451
		C340.078,278.788,336.633,277.506,334.397,277.488z"/>
	<path fill="#A15533" d="M372.661,307.803c0.176,1.567,0.194,3.351,0.019,5.378c1.326,0.255,2.695,0.64,3.921,1.198
		c0.122-2.145,0.007-4.549-0.404-6.938C375.03,307.596,373.848,307.697,372.661,307.803z"/>
	<path fill="#FFD6BA" d="M362.082,325.931c-0.581-0.781,0.508-2.486,3.122-2.358c2.614,0.128,7.125,1.628,9.304,3.058
		c2.548,1.674,1.209,3.314-1.083,3.504C370.14,330.408,363.931,328.415,362.082,325.931z"/>
	<path fill="#FFD6BA" d="M367.613,322.389c-1.25-0.761-3.938-2.383-4.32-3.977c-0.382-1.594,0.828-1.848,2.383-1.66
		c1.856,2.239,8.454,3.786,9.592,3.977c2.871,0.485,4.59,2.907,4.336,4.118c-0.337,1.603-2.103,1.465-3.511,0.822
		C373.882,323.779,370.583,322.821,367.613,322.389z"/>
	<path fill="#FFD6BA" d="M375.59,319.112c-1.838-0.164-3.354-0.903-5.081-1.532c-1.082-0.395-2.098-0.935-3.061-1.561
		c-0.52-0.338-1.321-0.976-0.954-1.737c0.404-0.831,0.886-1.406,2.187-0.932c1.301,0.473,4.87,1.272,6.781,1.875
		c1.211,0.382,2.641,0.966,3.314,2.23C379.859,319.494,376.589,319.199,375.59,319.112z"/>
	<path fill="#FFD6BA" d="M372.404,332.811c-3.632,0.701-9.176-1.21-8.927-3.935c2.769,2.034,7.821,2.461,10.394,2.47
		C373.663,331.578,373.655,332.568,372.404,332.811z"/>
	<path fill="#FFD6BA" d="M409.484,329.307c-2.089,0.967-5.028,1.915-7.581,2.103c-5.662,0.418-12.807-1.975-16.061-3.24
		c0.325-1.22,0.961-2.495,0.452-2.367c-1.592,0.399-2.457,2.583-2.943,3.95c-1.32,3.72-4.988,3.287-8.136,2.316
		c0.059-0.202,0.096-0.407,0.073-0.611c1.801-0.81,2.975-2.53,2.061-4.316c0.992,0.373,2.033,0.446,2.952-0.427
		c0.916-0.87,0.82-2.19,0.357-3.269c-0.54-1.265-1.477-2.197-2.589-2.939c1.606-0.245,3.896-1.969,0.68-4.761
		c0.666-4.025-0.219-10.981-2.743-15.526c0.543-1.115,2.213-2.277,3.028-1.625c0.955,0.764,0.289,5.068,0.414,6.544
		c0.189,2.274,2.694,4.229,3.601,5.627c2.23,3.44-0.375,13.284,2.103,13.317c0.309,0.006,0.192-1.274,0.523-2.143
		c4.885,4.732,15.719,5.711,23.049,3.351C409.166,326.695,409.675,328.925,409.484,329.307z"/>
	<path fill="#E8BD9C" d="M382.3,320.118c-0.616-3.042-1.488-6.014-2.12-9.055c-0.871-4.188-1.576-8.376-2.074-12.598
		c-0.802,0.194-1.724,0.979-2.102,1.756c2.524,4.545,3.409,11.5,2.743,15.526c3.216,2.792,0.926,4.516-0.68,4.761
		c1.112,0.742,2.049,1.674,2.589,2.939c0.463,1.079,0.559,2.399-0.357,3.269c-0.919,0.873-1.96,0.8-2.952,0.427
		c0.915,1.786-0.26,3.505-2.061,4.316c0.023,0.205-0.013,0.409-0.073,0.611c0.666,0.206,1.356,0.383,2.042,0.507
		C381.155,329.442,383.328,325.202,382.3,320.118z"/>
	<path fill="#E8BD9C" d="M408.72,325.292c-1.092,0.351-2.267,0.62-3.484,0.822c0.116,0.601,0.232,1.202,0.308,1.814
		c0.113,0.91,0.205,1.822,0.283,2.733c1.329-0.383,2.601-0.865,3.657-1.353C409.675,328.925,409.166,326.695,408.72,325.292z"/>
	<path d="M338.314,386.444c-1.003,4.934,0.833,10.352,6.786,10.764c3.014,0.209,5.766-1.853,8.332-3.154
		c1.798-0.913,7.477-4.493,12.302-4.718C358.812,378.795,340.826,374.089,338.314,386.444z"/>
	<path fill="#A1D9F2" d="M340.874,390.849c-2.962-13.716,14.19-9.608,20.129-3.348C354.452,388.591,342.954,400.467,340.874,390.849
		z"/>
	<path d="M372.613,367.801c0.213-4.148,1.459-11.862-3.52-13.986c-6.141-2.611-10.747,5.924-10.542,10.722
		c0.449,10.548,7.631,20.423,12.681,21.434C370.783,382.38,372.42,371.5,372.613,367.801z"/>
	<path fill="#A1D9F2" d="M361.131,364.761c0.562-5.386,2.431-8.1,5.275-8.416c4.04-0.449,4.289,3.897,4.263,5.274
		c-0.112,5.948-0.819,19.844-0.897,21.099C365.504,377.895,360.507,370.746,361.131,364.761z"/>
	<path d="M551.533,404.677c-2.367-4.003-8.739-1.975-11.922-0.42c-4.377,2.14-11.364,9.577-12.526,13.877
		c4.016-2.749,11.788-1.424,18.618-2.312C550.191,415.239,554.297,409.349,551.533,404.677z"/>
	<path fill="#A1D9F2" d="M540.729,413.912c-3.07,0.09-6.316,0.045-9.43,0.478c1.83-2.641,4.493-4.847,7.092-6.502
		c2.564-1.637,7.713-4.449,10.696-2.33c1.899,1.347,0.424,5.092-0.9,6.189C546.302,413.309,543.084,413.841,540.729,413.912z"/>
	<path d="M523.633,336.413c-3.892-5.351-9.985-2.143-13.502,3.481c-2.901,4.638-4.452,15.35-4.156,19.869
		c3.02-3.533,10.313-8.365,13.766-11.818C523.246,344.439,526.249,340.01,523.633,336.413z"/>
	<path fill="#A1D9F2" d="M521.818,340.412c-2.274,6.51-9.532,10.134-13.897,14.805c0.392-3.378,1.17-8.572,2.773-12.255
		c1.324-3.041,3.979-5.665,6.836-6.704C520.389,335.218,522.633,338.076,521.818,340.412z"/>
	<path fill="#75C7EC" d="M355.771,389.282c-2.923,0.665-5.797,1.275-8.815,1.134c-2.75-0.128-4.94-0.896-6.411-2.429
		c0.003,0.857,0.099,1.799,0.328,2.862c1.682,7.776,9.519,1.504,15.92-1.76C356.454,389.151,356.121,389.202,355.771,389.282z"/>
	<path fill="#75C7EC" d="M368.708,374.158c-2.763,1.484-5.053-0.257-6.373-2.691c1.66,4.092,4.695,8.15,7.438,11.249
		c0.042-0.671,0.263-4.957,0.478-9.707C369.77,373.454,369.266,373.858,368.708,374.158z"/>
	<path fill="#75C7EC" d="M541.786,411.498c-2.556,0.052-4.652-0.513-6.27-1.512c-1.58,1.285-3.07,2.746-4.217,4.403
		c3.113-0.433,6.36-0.388,9.43-0.478c2.355-0.071,5.573-0.603,7.458-2.166c0.578-0.479,1.167-1.467,1.51-2.535
		C547.423,410.588,544.783,411.438,541.786,411.498z"/>
	<path fill="#75C7EC" d="M517.034,344.345c-1.417,1.365-5.213,4.167-8.079,4.398c-0.497,2.338-0.825,4.667-1.034,6.475
		c4.365-4.671,11.623-8.296,13.897-14.805c0.343-0.983,0.139-2.056-0.418-2.894C520.598,339.967,519.16,342.294,517.034,344.345z"/>
	<path d="M572.05,277.878c-0.787-0.546-1.96,0.298-1.504,1.239c3.131,6.452,0.648,11.198-3.561,15.472
		c-4.758,4.831-10.725,5.817-17.073,3.751c-10.173-3.311-16.307-13.647-19.028-23.265c-5.408-19.131,1.048-40.259,3.773-59.31
		c2.712-18.939-2.948-55.407-28.578-54.05c-14.674-14.652-42.731-5.562-63.421,11.232c-22.438,18.21-34.23,46.632-39.197,74.607
		c-4.93,27.763,1.141,58.108,6.746,85.412c2.537,12.343,15.348,55.138-2.066,61.263c-4.167-1.812-8.66-1.705-13.054-0.302
		c-5.399,1.722-12.183,5.959-16.111,2.929c-2.512-1.938-2.328-5.434-5.05-5.274c-1.908,0.112-4.39,1.04-5.662,3.677
		c-1.911,3.971-1.404,8.926,1.044,12.544c4.995,7.374,9.443,11.38,25.826,12.277c16.384,0.897,10.08,46.535,34.14,33.049
		c2.124-1.194,4.243-3.113,6.083-4.671c8.845-7.485,19.85-7.265,27.494,0.256c4.273,4.212,7.712,7.281,13.741,7.924
		c3.764,0.402,9.322-2.416,11.834-5.095c5.191-5.532,7.725-13.133,17.253-13.806c4.257-0.296,8.387,2.91,14.568,5.467
		c6.18,2.557,13.44,0.166,17.544-6.226c1.83-2.849,2.544-15.995-10.815-14.434c-6.575,0.768-7.513-10.196-18.21-19.304
		c-13.984-11.908-7.138-27.52-8.135-43.246c-0.691-10.905-5.071-60.977-5.762-66.779c9.221-6.542,16.871-12.87,22.67-22.911
		c-1.722,24.13,7.369,46.132,27.823,52.199c10.557,3.131,23.77,0.177,30.531-8.618C583.414,304.105,582.305,285.039,572.05,277.878z
		"/>
	<path fill="#FFD454" d="M531.578,220.008c-0.27-12.329-3.703-27.401-8.193-38.829c-2.469-6.284-6.091-13.212-11.33-16.758
		C524.957,165.468,535.955,191.278,531.578,220.008z"/>
	<path fill="#FFD454" d="M419.574,207.476c9.694-20.227,29.946-41.367,52.652-47.203c-14.255,8.762-19.668,31.502-19.893,46.361
		c-0.001,0.364,0.536,0.341,0.558-0.012c0.742-10.719,3.155-21.177,8.271-30.682c4.998-9.298,15.993-19.228,21.042-16.973
		c-5.779,4.057-10.195,12.269-12.245,17.495c-5.747,14.66-6.73,30.469-8.811,45.899c-0.051,0.412,0.55,0.552,0.634,0.142
		c2.316-11.598,3.624-23.336,6.502-34.83c1.818-7.255,4.869-14.8,9.319-20.859c5.763-7.847,13.018-10.212,19.629-6.182
		c-22.906,2.823-30.396,44.366-32.258,62.369c-0.038,0.358,0.514,0.507,0.562,0.129c2.407-18.357,14.534-67.314,39.015-59.305
		c-15.083,26.509-16.537,61-15.29,93.302c-1.958-0.755-4.229-1.144-5.974-2.521c-0.961-0.761-1.834-1.645-2.678-2.56
		c0.433-10.401,1.069-20.853,1.497-31.444c0.019-0.526-0.759-0.685-0.829-0.132c-1.25,9.73-2.12,19.523-2.615,29.33
		c-1.204-1.473-2.374-2.978-3.633-4.339c-3.55-3.835-8.538-6.043-13.738-4.904c-4.394,0.967-7.488,5.484-9.825,8.946
		c-3.312,4.917-8.339,15.691-13.753,6.023c-4.26-7.617-10.612-48.059-23.388-35.518
		C415.853,215.826,417.575,211.653,419.574,207.476z"/>
	<path fill="#82CCB8" d="M504.113,222.259c3.961-0.38,9.958-3.934,9.964-10.9c0.267,0.2,1.632,1.264,1.902,1.467
		c1.011,4.601-1.986,8.625-6.958,11.222c-5.84,3.054-12.096,1.366-15.438-3.441c0.103-1.249,0.165-2.506,0.282-3.756
		C495.667,220.232,499.797,222.669,504.113,222.259z"/>
	<path fill="#4AAD98" d="M497.219,220.449c-1.417-0.945-2.598-2.179-3.354-3.597c-0.116,1.25-0.179,2.507-0.282,3.756
		c1.019,1.467,2.312,2.638,3.778,3.478C497.298,222.875,497.251,221.662,497.219,220.449z"/>
	<path fill="#4AAD98" d="M506.675,221.642c-0.659,0.245-1.307,0.421-1.923,0.526c0.113,1.075,0.232,2.151,0.383,3.22
		c0.903-0.159,1.812-0.421,2.715-0.794C507.589,223.824,507.029,222.474,506.675,221.642z"/>
	<path fill="#4AAD98" d="M515.683,217.182c0.482-1.37,0.633-2.825,0.296-4.356c-0.27-0.203-1.635-1.267-1.902-1.467
		c0,1.144-0.183,2.182-0.476,3.139C514.246,215.432,514.943,216.326,515.683,217.182z"/>
	<path fill="#4AAD98" d="M503.277,222.277c-1.597,0.013-3.144-0.341-4.541-0.985c0.036,1.17,0.073,2.34,0.141,3.508
		c1.493,0.581,3.117,0.841,4.79,0.752C503.512,224.465,503.393,223.371,503.277,222.277z"/>
	<path fill="#FFFFFF" d="M493.482,221.978c2.702,3.547,7.371,5.344,12.29,4.257c5.832-1.289,11.779-5.553,11.622-12.199
		c1.83,1.535,4.174,3.785,5.882,5.412c-4.604,5.948-18.518,14.365-30.255,8.591C493.129,226.01,493.322,223.999,493.482,221.978z"/>
	<path fill="#FFD6BA" d="M495.734,202.13c0.412-2.585,0.91-5.149,1.42-7.712c7.374-3.026,19.72,2.585,25.445,20.203
		C515.323,208.441,504.334,199.461,495.734,202.13z"/>
	<path fill="#94D1A1" d="M445.436,312.88c1.279,0.147,2.649,0.07,4.107-0.27c0.279,5.579-0.025,11.113-1.526,17.028
		c-2.127,8.37-4.622,16.523-2.043,25.103c0.107,0.363,0.243,0.71,0.357,1.065c-0.947-0.041-1.856-0.197-2.717-0.494
		c-0.472-1.724-0.873-3.456-1.143-5.19c-1.58-10.24,2.707-21.389,3.15-31.675C445.704,316.584,445.601,314.731,445.436,312.88z"/>
	<path fill="#94D1A1" d="M450.971,312.215c0.061-0.023,0.119-0.032,0.18-0.051c8.233-2.875,8.601-15.035,11.807-21.617
		c3.74-7.679,12.852,2.651,16.845,5.829c0.597,5.541,1.35,11.059,2.323,16.557c0.17,0.96,0.366,1.914,0.543,2.868
		c-0.593,0.242-1.188,0.53-1.77,0.916c-8.596,5.766-12.886,18.337-18.293,26.738c-3.076,4.779-6.977,10.275-12.711,11.942
		c-0.553,0.161-1.082,0.238-1.612,0.315c-0.578-1.793-1.095-3.61-1.471-5.492c-1.333-6.765,0.958-13.758,2.691-20.239
		C451.158,323.772,451.447,318.014,450.971,312.215z"/>
	<path fill="#C2D454" d="M480.486,255.217c0.851,0.854,1.744,1.654,2.737,2.288c1.602,1.022,4.369,1.568,6.147,2.457
		c0.497,11.457,1.289,22.596,1.904,32.953c0.03,0.578,0.091,1.16,0.128,1.737c-4.249,2.037-7.079,1.584-10.323-0.671
		C479.94,281.026,480.008,268.154,480.486,255.217z"/>
	<path fill="#73C7B8" d="M446.869,357.406c3.041,8.564,7.956,16.528,11.708,24.788c-1.533,2.085-3.228,3.786-5.158,4.831
		c-0.861-10.207-6.321-20.116-9.343-30.119C445.004,357.169,445.934,357.349,446.869,357.406z"/>
	<path fill="#73C7B8" d="M452.603,365.861c-1.467-2.778-2.728-5.606-3.775-8.518c2.951-0.289,5.878-1.588,8.715-4.164
		c7.531-6.825,11.733-17.074,17.049-25.539c2.152-3.43,4.77-7.605,8.506-9.588c2.546,13.021,5.665,25.674,5.872,38.878
		c-5.749-1.95-12.459-1.477-16.782,2.275c-4.452,3.863-7.646,13.549-12.052,20.666C457.831,375.2,455.099,370.598,452.603,365.861z"
		/>
	<path fill="#94D1A1" d="M481.428,297.437c3.501,2.005,6.791,1.576,10.185-0.01c0.524,6.948,1.286,13.936,2.063,20.939
		c-2.666-2.4-6.122-3.746-9.515-3.022C482.914,309.342,482.051,303.379,481.428,297.437z"/>
	<path fill="#C2D454" d="M413.394,222.631c4.186-3.98,8.392-4.417,11.866,2.042c2.585,4.806,3.955,10.31,5.376,15.539
		c1.613,5.926,3.019,18.812,10.063,21.428c7.334,2.726,12.224-10.859,15.713-14.994c6.944-8.227,15.081-2.033,20.42,4.414
		c0.543,0.652,1.096,1.324,1.665,1.997c-0.537,13.249-0.282,26.508,0.948,39.688c-0.572-0.469-1.147-0.967-1.764-1.523
		c-2.371-2.152-5.021-3.993-7.952-5.274c-2.964-1.297-5.688-0.751-7.892,1.497c-3.02,3.074-3.783,8.953-5.033,12.87
		c-1.205,3.771-3.447,6.939-6.168,8.638c-0.478-3.71-1.223-7.465-2.124-11.4c-0.084-0.379-0.725-0.257-0.665,0.128
		c0.613,4.134,1.179,8.069,1.51,11.948c-1.337,0.576-2.757,0.793-4.208,0.574c-1.175-8.015-4.185-15.845-6.77-23.386
		c-0.135-0.389-0.727-0.206-0.613,0.195c2.123,7.507,4.356,14.905,5.351,22.559c-1.56-0.697-3.125-1.914-4.619-3.828
		c-9.713-12.417-7.009-30.717-12.051-44.865c-3.132-8.786-13.056-16.294-19.482-10.122
		C408.142,241.332,410.194,231.969,413.394,222.631z"/>
	<path fill="#A1BA47" d="M484.975,291.205c-1.313-0.816-2.776-1.984-4.33-3.176c0.121,1.982,0.259,3.966,0.433,5.952
		c3.244,2.255,6.074,2.708,10.323,0.671c-0.025-0.395-0.057-0.793-0.087-1.191C489.176,293.287,487.045,292.488,484.975,291.205z"/>
	<path fill="#A1BA47" d="M433.057,281.066c-0.745-6.637-0.603-13.806-2.952-20.129c-2.07-5.573-6.747-9.618-11.843-10.516
		c3.543,2.245,6.666,6.193,8.186,10.456c5.042,14.147,2.338,32.448,12.051,44.865c1.494,1.914,3.059,3.131,4.619,3.828
		c-0.267-2.059-0.63-4.101-1.051-6.131C435.114,299.541,433.842,288.057,433.057,281.066z"/>
	<path fill="#A1BA47" d="M445.415,304.613c-0.511-0.087-0.986-0.227-1.454-0.376c0.487,1.976,0.895,3.964,1.188,5.965
		c1.451,0.219,2.871,0.003,4.208-0.574c-0.142-1.663-0.332-3.338-0.546-5.031C447.666,304.783,446.516,304.8,445.415,304.613z"/>
	<path fill="#A1BA47" d="M469.865,283.224c-1.728,0.224-3.122,1.012-4.3,2.136c1.308-0.237,2.707-0.049,4.165,0.588
		c2.93,1.281,5.58,3.122,7.952,5.274c0.617,0.556,1.192,1.054,1.764,1.523c-0.186-1.991-0.343-3.984-0.484-5.978
		C476.051,284.653,472.907,282.829,469.865,283.224z"/>
	<path fill="#A1BA47" d="M449.909,304.34c0.28,1.549,0.532,3.087,0.728,4.613c2.721-1.699,4.963-4.867,6.168-8.638
		c0.006-0.02,0.012-0.044,0.019-0.064C455.06,302.163,452.549,303.665,449.909,304.34z"/>
	<path fill="#94D1A1" d="M406.635,253.467c5.791-6.51,14.126-1.218,17.717,5.76c2.8,5.432,3.174,12.071,3.836,18.017
		c0.746,6.697,1.721,13.602,3.665,20.073c1.939,6.46,5.672,13.227,11.558,15.115c0.163,1.921,0.27,3.86,0.234,5.824
		c-0.183,10.005-3.528,19.677-3.451,29.705c0.012,2.026,0.242,3.984,0.6,5.904c-5.901-4.134-9.176-13.795-9.831-19.744
		c-1.01-9.132-0.01-20.32-7.315-27.329c-4.806-4.62-10.689-6.285-15.236-2.637C405.836,286.934,404.863,270.102,406.635,253.467z"/>
	<path fill="#72C28C" d="M445.068,350.31c-0.245-0.022-0.481-0.013-0.729-0.044c-0.682-0.084-1.31-0.234-1.902-0.421
		c0.013,0.093,0.019,0.186,0.033,0.277c0.27,1.734,0.671,3.466,1.143,5.19c0.861,0.296,1.77,0.453,2.717,0.494
		c-0.115-0.354-0.25-0.701-0.357-1.065C445.526,353.252,445.24,351.776,445.068,350.31z"/>
	<path fill="#72C28C" d="M446.856,350.404c0.373,1.815,0.868,3.574,1.427,5.307c0.53-0.077,1.059-0.154,1.612-0.315
		c5.734-1.667,9.636-7.163,12.711-11.942c0.443-0.688,0.876-1.411,1.307-2.149C459.306,346.391,453.699,350.326,446.856,350.404z"/>
	<path fill="#72C28C" d="M490.502,310.249c-2.564,0.305-4.783,1.741-6.652,3.479c0.106,0.539,0.199,1.077,0.311,1.616
		c3.393-0.725,6.849,0.621,9.515,3.022c-0.293-2.641-0.579-5.28-0.857-7.915C492.091,310.237,491.32,310.151,490.502,310.249z"/>
	<path fill="#72C28C" d="M433.934,328.82c-0.472-6.889-2.121-14.452-6.168-20.192c-3.704-5.252-8.41-7.233-13.514-6.443
		c3.169,0.1,6.479,1.805,9.395,4.608c7.305,7.009,6.305,18.197,7.315,27.329c0.655,5.949,3.929,15.61,9.831,19.744
		c-0.308-1.652-0.492-3.344-0.552-5.074C434.409,344.997,434.362,335.095,433.934,328.82z"/>
	<path fill="#73C7B8" d="M411.451,321.399c-1.064-5.313-2-10.574-2.805-15.809c6.06-4.583,12.282-0.232,16.291,5.784
		c3.505,5.258,3.508,12.465,3.855,18.544c0.462,8.203,1.375,17.203,8.06,22.918c1.439,1.228,2.898,2.171,4.369,2.919
		c2.618,10.899,9.565,20.508,11.041,31.808c-2.299,0.884-4.915,0.865-7.998-0.504c-8.508-3.786-11.458-18.264-15.081-25.866
		c-1.95-4.093-5.813-10.051-10.899-8.325C415.943,339.187,412.448,326.356,411.451,321.399z"/>
	<path fill="#DAF3FA" d="M526.908,425.507c8.936-1.159,9.773,5.458,8.039,9.277c-3.096,6.81-11.869,6.96-15.836,4.342
		c-9.64-6.362-19.739-8.493-28.044,4.188c-5.053,7.716-16.405,12.613-23.66,5.111c-11.457-11.846-18.669-11.233-25.524-8.649
		c-7.127,2.691-17.782,19.978-25.988,8.808c-3.961-5.392-5.091-12.52-7.106-18.804c-2.197-6.845-4.467-12.142-12.595-12.829
		c-8.129-0.687-12.675-2.66-18.232-6.199c-2.906-1.851-5.981-4.802-7.178-8.062c-2.501-6.815,3.322-10.043,4.86-6.761
		c0.6,1.281,2.322,4.741,7.709,4.404c5.387-0.337,15.057-6.598,22.668-4.714c11.782,2.917,10.828,25.482,24.987,24.867
		c3.546-0.153,7.067-3.001,9.813-4.878c14.919-10.195,20.843,2.358,28.16,13.663c3.815,5.898,11.169,8.833,16.397,3.926
		c6.07-5.691,5.869-13.279,19.374-11.291c3.36,0.492,6.842,2.029,10.115,2.939C518.742,425.923,522.096,426.131,526.908,425.507z"/>
	<path fill="#A9E3F3" d="M529.04,437.268c-9.697,2.426-14.582-8.464-23.911-7.853c-11.489,0.752-14.607,16.305-25.67,17.618
		c-3.759,0.446-7.067-1.217-9.948-3.54c-5.823-4.697-11.559-10.843-19.732-10.596c-7.644,0.232-13.176,4.613-18.525,9.627
		c-2.072,1.941-5.172,5.386-8.344,5.313c-9.368-0.215-8.325-15.935-9.616-22.008c-1.832-8.618-8.27-13.061-16.877-13.397
		c-4.962-0.195-10.21-0.042-14.787-2.293c-6.183-3.039-10.761-8.293-10.061-14.471c-1.254,1.289-1.991,3.732-0.785,7.021
		c1.197,3.26,4.272,6.211,7.178,8.062c5.557,3.539,10.104,5.512,18.232,6.199c8.129,0.687,10.398,5.984,12.595,12.829
		c2.015,6.284,3.145,13.413,7.106,18.804c8.206,11.169,18.861-6.118,25.988-8.808c6.855-2.585,14.068-3.197,25.524,8.649
		c7.255,7.502,18.607,2.605,23.66-5.111c8.304-12.681,18.404-10.549,28.044-4.188c3.967,2.618,12.74,2.469,15.836-4.342
		c0.052-0.115,0.093-0.238,0.139-0.359C533.283,435.726,531.262,436.714,529.04,437.268z"/>
	<path fill="#57C7E8" d="M506.445,404.601c7.478,5.833,9.459,12.489,14.141,17.394c-2.464-0.206-6.219-0.616-8.652-1.266
		c-4.045-1.076-9.224-3.531-13.557-2.181c-5.92,1.843-9.44,5.111-13.304,10.015c-8.789,11.164-18.576-10.15-23.242-16.185
		c-4.509-5.823-12.19-4.917-17.842-2.213c-2.418,1.156-4.655,2.984-6.871,4.481c-7.5,5.081-16.311-3.887-18.86-11.139
		c-1.3-3.694-2.964-5.829-5.715-7.802c9.704-4.311,8.949-23.377,5.985-41.391c6.229-3.347,10.963,11.776,13.369,18.01
		c2.421,6.267,5.111,13.406,11.2,16.969c3.016,1.76,6.305,1.654,9.376,0.511c0.115,1.876,0.084,3.791-0.165,5.778
		c-0.045,0.386,0.521,0.532,0.607,0.131c0.472-2.133,0.64-4.252,0.616-6.35c2.316-1.056,4.467-2.659,6.227-4.449
		c2.861,6.899,4.697,14.075,3.755,22.053c-0.061,0.527,0.787,0.784,0.931,0.24c2.374-8.932,0.476-16.774-2.893-24.343
		c2.817-4.182,5.331-11.537,8.031-16.594c4.665-8.744,12.533-9.196,19.407-5.879c-0.047,1.837-0.135,3.678-0.315,5.542
		c-0.906,9.414-3.82,21.887,2.856,29.894c0.266,0.319,0.805,0.015,0.562-0.357c-6.343-9.608-2.739-22.819-1.673-34.33
		c2.307,1.315,4.464,3.017,6.293,4.963c-0.07,1.819-0.16,3.629-0.295,5.438C495.409,384.901,495.123,395.77,506.445,404.601z"/>
	<path fill="#1CABDF" d="M505.943,414.851c-3.668-0.6-7.974-1.098-11.514,0.388c-3.237,1.359-4.96,3.844-7.048,6.526
		c-2.648,3.404-5.977,6.578-10.649,5.116c-3.877-1.213-6.549-4.122-8.811-7.385c-3.1-4.471-5.953-10.443-11.084-12.922
		c-7.583-3.662-12.738,1.359-19.057,4.706c-9.081,4.811-15.496-3.463-20.989-11.013c0.547,0.944,1.032,1.998,1.469,3.241
		c2.548,7.252,11.359,16.22,18.86,11.139c2.216-1.497,4.453-3.325,6.871-4.481c5.652-2.704,13.333-3.61,17.842,2.213
		c4.665,6.035,14.452,27.348,23.242,16.185c3.864-4.904,7.384-8.172,13.304-10.015c4.334-1.35,9.512,1.105,13.557,2.181
		c2.434,0.651,6.189,1.06,8.652,1.266c-1.147-1.201-2.13-2.508-3.073-3.881C513.74,416.694,509.889,415.498,505.943,414.851z"/>
	<path fill="#73C7B8" d="M496.795,361.951c-1.621-1.856-3.758-3.322-6.132-4.365c0.028-0.823,0.039-1.634,0.022-2.428
		c-0.298-12.877-3.418-25.238-6.09-37.761c3.944-1.24,7.208,2.084,9.584,5.519C495.625,335.937,496.945,348.996,496.795,361.951z"/>
	<path fill="#4FB09E" d="M452.458,381.16c0.456,1.946,0.796,3.9,0.961,5.865c1.93-1.046,3.624-2.746,5.158-4.831
		c-0.579-1.276-1.192-2.542-1.815-3.809C455.446,379.589,454.022,380.549,452.458,381.16z"/>
	<path fill="#4FB09E" d="M470.456,358.099c-3.783,4.484-7.137,12.996-11.988,18.531c0.572,1.079,1.134,2.158,1.668,3.241
		c4.406-7.117,7.6-16.803,12.052-20.666c4.323-3.752,11.033-4.226,16.782-2.275c-0.016-1.025-0.08-2.042-0.129-3.06
		C482.783,351.027,476.225,351.259,470.456,358.099z"/>
	<path fill="#4FB09E" d="M449.911,381.817c-17.542,2.201-14.563-36.457-31.812-30c0.062,0.352,0.126,0.7,0.186,1.051
		c5.087-1.727,8.949,4.231,10.899,8.325c3.623,7.602,6.574,22.08,15.081,25.866c3.083,1.369,5.699,1.388,7.998,0.504
		c-0.266-2.031-0.713-4.005-1.275-5.945C450.635,381.701,450.278,381.77,449.911,381.817z"/>
	<path fill="#4FB09E" d="M490.669,354.823c0.003,0.112,0.013,0.224,0.016,0.335c0.017,0.794,0.006,1.605-0.022,2.428
		c2.374,1.043,4.512,2.509,6.132,4.365c0.01-0.838-0.003-1.679-0.006-2.518C494.871,357.653,492.812,356.06,490.669,354.823z"/>
	<path fill="#FFD6BA" d="M494.453,288.11c-0.608-7.686-1.131-15.473-1.475-23.301c9.245-1.365,17.222-14.553,10.546-22.381
		c-0.346-0.404-0.929,0.006-0.674,0.466c4.275,7.706-1.322,17.984-9.972,19.117c-0.417-10.796-0.469-21.656,0.059-32.462
		c10.005,6.574,27.556-1.084,33.701-10.663c-2.021-8.08-6.174-16.833-12.939-22.714c-5.091-4.426-10.719-5.551-16.255-3.317
		c0.69-3.338,1.503-6.64,2.373-9.926c5.278-0.631,10.572,3.721,12.93,7.135c0.163,0.237,0.616,0.155,0.575-0.176
		c-0.68-5.674-6.395-11.402-12.258-11.556c1.428-4.851,3.069-9.632,4.962-14.337c14.777,3.49,22.113,40.672,22.406,52.083
		c0.366,14.248-3.232,28.395-8.585,41.553C514.481,270.823,505.946,280.297,494.453,288.11z"/>
	<path fill="#E8BD9C" d="M501.115,201.824c0.602-2.694,1.264-5.375,1.996-8.036c-2.161-0.303-4.202-0.09-5.957,0.63
		c-0.51,2.563-1.008,5.126-1.42,7.712C497.449,201.598,499.26,201.544,501.115,201.824z"/>
	<path fill="#E8BD9C" d="M503.692,191.758c0.311-1.072,0.616-2.146,0.95-3.213c0.441-1.415,0.857-2.885,1.272-4.379
		c-1.914-0.947-4.005-1.486-6.096-1.236c-0.87,3.286-1.683,6.588-2.373,9.926C499.525,192.016,501.618,191.652,503.692,191.758z"/>
	<path fill="#E8BD9C" d="M496.819,231.304c-1.378-0.4-2.686-0.97-3.881-1.755c-0.528,10.806-0.476,21.666-0.059,32.462
		c1.455-0.19,2.814-0.658,4.064-1.311C496.129,250.911,496.103,241.059,496.819,231.304z"/>
	<path fill="#E8BD9C" d="M511.533,167.062c-1.705-1.521-3.537-2.599-5.506-3.065c-1.894,4.705-3.534,9.486-4.962,14.337
		c2.058,0.054,4.094,0.805,5.903,1.99C508.211,175.814,509.567,171.216,511.533,167.062z"/>
	<path fill="#E8BD9C" d="M497.177,263.363c-1.335,0.729-2.752,1.233-4.199,1.446c0.344,7.828,0.867,15.616,1.475,23.301
		c2.072-1.41,4.045-2.874,5.924-4.404C498.91,277.003,497.847,270.205,497.177,263.363z"/>
	<path fill="#FFD454" d="M575.402,289.262c-2.956,9.848-12.067,15.266-21.912,14.094c-17.344-2.065-26.387-22.979-27.148-37.811
		c-0.221-4.273-0.079-8.502,0.267-12.698c-10.793,15.979-6.131,58.536,19.237,64.633c8.062,1.939,18.101,1.311,24.415-4.767
		C577.127,306.104,577.638,297.071,575.402,289.262z"/>
	<path fill="#E3B83B" d="M528.665,197.023c-0.084,0.131-0.166,0.264-0.25,0.395c1.824,7.633,3.009,15.557,3.163,22.589
		c1.368-8.985,1.214-17.668-0.012-25.413C530.594,195.397,529.638,196.222,528.665,197.023z"/>
	<path fill="#E3B83B" d="M521.757,176.524c0.537-1.382,1.112-2.747,1.725-4.093c-3.311-4.752-7.267-7.674-11.426-8.011
		c4.054,2.745,7.131,7.517,9.46,12.447C521.597,176.753,521.675,176.637,521.757,176.524z"/>
	<path fill="#E3B83B" d="M467.991,209.915c2.869-8.427,6.152-16.713,10.484-24.478c5.139-9.211,12.133-18.689,22.096-22.41
		C483.153,161.58,472.666,189.689,467.991,209.915z"/>
	<path fill="#E3B83B" d="M432.016,232.377c-0.942-4.948-1.715-10.914-4.693-15.133c-3.517-4.984-8.655-1.906-12.416,1.227
		c-0.193,0.513-0.393,1.025-0.58,1.538c9.87-9.688,15.905,12.237,20.104,26.227C433.135,241.364,432.703,235.987,432.016,232.377z"
		/>
	<path fill="#E3B83B" d="M442.669,257.262c-3.849-1.15-6.093-4.558-7.517-8.653c0.941,3.046,1.788,5.529,2.563,6.918
		c3.017,5.39,5.916,4.423,8.463,1.664C445.115,257.581,443.953,257.646,442.669,257.262z"/>
	<path fill="#E3B83B" d="M475.72,241.053c-4.302-5.221-12.864-11.275-17.923-3.639c-1.104,1.665-2.214,4.879-3.558,8.255
		c1.905-2.358,4.202-4.483,7.053-5.111c5.2-1.14,10.188,1.069,13.738,4.904c1.259,1.361,2.429,2.866,3.633,4.339
		c0.074-1.47,0.173-2.936,0.264-4.403C477.918,243.916,476.873,242.451,475.72,241.053z"/>
	<path fill="#E3B83B" d="M480.795,248.191c-0.058,1.284-0.131,2.575-0.184,3.855c0.844,0.915,1.716,1.799,2.678,2.56
		c1.112,0.877,2.438,1.353,3.761,1.779C484.649,253.94,482.718,251.094,480.795,248.191z"/>
	<path fill="#E3B83B" d="M461.162,175.941c-2.206,4.097-3.881,8.378-5.165,12.774c4.732-11.958,12.579-23.186,22.919-29.833
		C473.339,160.324,465.248,168.338,461.162,175.941z"/>
	<path fill="#E3B83B" d="M477.603,166.813c-4.451,6.059-7.501,13.604-9.319,20.859c-0.113,0.453-0.211,0.909-0.318,1.363
		c1.262-3.456,2.662-6.859,4.249-10.171c3.29-6.87,8.529-15.746,15.43-19.738C484.093,160.083,480.64,162.678,477.603,166.813z"/>
	<path fill="#E3B83B" d="M568.092,312.822c-12.912,6.524-26.991,4.253-34.873-8.574c-5.323-8.67-6.735-18.091-4.864-27.215
		c-1.156-3.95-1.83-7.896-2.013-11.487c-0.221-4.273-0.079-8.502,0.267-12.698c-10.793,15.979-6.131,58.536,19.237,64.633
		c8.062,1.939,18.101,1.311,24.415-4.767c0.979-0.941,1.812-1.934,2.541-2.964C571.409,310.89,569.861,311.929,568.092,312.822z"/>
	<g>
		<path d="M368.627,212.346C368.578,212.303,368.564,212.317,368.627,212.346L368.627,212.346z"/>
		<path d="M300.33,213.043c1.43-0.649,3.521-4.582,4.907-5.714c2.162-1.764,5.746-4.165,8.717-3.239
			c5.98,1.864,7.546,10.759,14.113,12.847c11.274,3.585,12.925-12.714,22.176-12.007c3.415,0.902,5.855,6.858,7.409,9.542
			c3.498,6.036,8.146,9.279,15.441,8.341c6.392-0.822,16.205-11.708,17.474-21.284c0.681-5.138-11.797,10.644-19.97,11.34
			c-7.352-0.158-8.779-15.862-17.381-17.505c-7.205-1.374-13.231,2.52-17.383,7.766c-1.451,1.835-3.61,5.805-6.528,5.237
			c-2.849-0.553-5.441-5.159-7.416-7.08c-4.625-4.503-10.387-5.037-15.799-1.383C300.946,203.377,296.63,214.718,300.33,213.043z"/>
		<path d="M375.845,222.032c-0.154,0.057-0.308,0.103-0.463,0.154C375.235,222.247,375.32,222.223,375.845,222.032z"/>
		<path d="M368.753,237.423c-8.374,0.084-11.262-15.022-18.385-16.541c-5.784-1.233-9.359,2.094-14.415,7.15
			c-4.112,4.114-10.108,4.314-13.504-1.314c-3.064-5.074-5.987-16.671-14.86-11.995c-3.065,1.616-5.877,4.314-7.468,7.346
			c-2.875,5.47-2.011,11.511-0.902,10.525c1.51-1.343,1.893-4.467,4.067-8.506c1.727-3.205,5.302-5.794,7.125-4.917
			c2.196,1.057,3.028,5.497,3.484,7.034c1.149,3.871,2.99,6.958,5.865,9.823c5.91,5.888,14.1,5.195,18.537,0.757
			c2.469-2.469,5.075-7.361,8.32-6.706c2.678,1.034,4.114,4.968,5.441,7.323c3.989,7.077,11.664,11.567,20.386,9.616
			c8.285-1.856,12.752-7.005,17.259-13.561c2.711-3.945,4.314-8.506,4.314-12.081C394.018,217.8,383.046,237.278,368.753,237.423z"
			/>
	</g>
	<g>
		<path fill="#5294C4" d="M367.605,208.593C367.556,208.551,367.543,208.564,367.605,208.593L367.605,208.593z"/>
		<path fill="#5294C4" d="M299.309,209.29c1.43-0.649,3.521-4.582,4.907-5.714c2.162-1.764,5.746-4.165,8.717-3.239
			c5.98,1.864,7.546,10.759,14.113,12.847c11.274,3.585,12.925-12.714,22.176-12.007c3.415,0.902,5.855,6.858,7.408,9.542
			c3.498,6.036,8.146,9.279,15.441,8.341c6.392-0.822,16.205-11.708,17.474-21.284c0.681-5.138-11.797,10.644-19.97,11.34
			c-7.352-0.158-8.779-15.862-17.381-17.505c-7.205-1.374-13.231,2.52-17.383,7.766c-1.451,1.835-3.61,5.805-6.528,5.237
			c-2.849-0.553-5.441-5.158-7.416-7.08c-4.625-4.503-10.387-5.037-15.799-1.383C299.924,199.625,295.609,210.966,299.309,209.29z"
			/>
		<path fill="#5294C4" d="M374.824,218.28c-0.154,0.057-0.308,0.103-0.463,0.154C374.214,218.495,374.298,218.47,374.824,218.28z"/>
		<path fill="#5294C4" d="M367.732,233.671c-8.374,0.084-11.262-15.022-18.385-16.541c-5.784-1.233-9.359,2.094-14.415,7.15
			c-4.112,4.114-10.108,4.314-13.504-1.314c-3.064-5.074-5.987-16.671-14.86-11.996c-3.065,1.616-5.877,4.314-7.468,7.346
			c-2.875,5.47-2.011,11.511-0.902,10.525c1.51-1.343,1.893-4.467,4.067-8.506c1.727-3.205,5.302-5.794,7.125-4.917
			c2.196,1.057,3.028,5.498,3.484,7.034c1.148,3.871,2.99,6.958,5.865,9.823c5.91,5.888,14.1,5.196,18.537,0.757
			c2.469-2.468,5.075-7.361,8.32-6.706c2.678,1.034,4.114,4.967,5.441,7.323c3.989,7.077,11.664,11.567,20.386,9.616
			c8.285-1.856,12.752-7.005,17.259-13.561c2.711-3.945,4.314-8.506,4.314-12.081C392.996,214.047,382.024,233.526,367.732,233.671z
			"/>
	</g>
	<path d="M329.592,261.564c-5.489-1.156-15.873-0.813-18.215,4.086c-2.524-1.41-2.185-4.371,0.82-5.363
		c0.273-0.091,0.195-0.536-0.1-0.499c-6.548,0.796-4.652,6.899,0.475,8.991c4.843,1.976,14.586,3.739,20.799,0.18
		C338.977,265.747,333.161,262.317,329.592,261.564z"/>
	<path fill="#FFFFFF" d="M511.908,211.206c0,1.404-1.141,2.543-2.541,2.543c-1.406,0-2.544-1.138-2.544-2.543
		c0-1.404,1.138-2.542,2.544-2.542C510.767,208.663,511.908,209.802,511.908,211.206z"/>
	<circle fill="#FFFFFF" cx="504.79" cy="207.307" r="1.243"/>
	<path d="M542.579,309.954c-9.54-5.261-14.773-15.645-16.783-25.982c-1.06-5.448-1.179-11.078-0.767-16.6
		c0.212-2.862,0.381-5.726,0.697-8.579c0.354-3.184,1.446-5.981,2.248-9.048c0.09-0.343-0.418-0.635-0.674-0.392
		c-3.825,3.645-3.139,11.081-3.398,15.906c-0.328,6.102-0.604,11.936,0.363,18.007c1.847,11.602,7.548,21.549,18.189,26.92
		C542.605,310.262,542.727,310.037,542.579,309.954z"/>
	<path fill="#CB9485" d="M330.76,258.221c3.096,1.032,5.697,3.007,6.409,6.093c0.712,3.086,2.243-1.738-1.266-4.827
		C333.925,257.746,329.335,257.746,330.76,258.221z"/>
	<path fill="#CB9485" d="M308.446,266.766c2.021,2.246,7.597,4.591,11.474,4.907c3.877,0.315-2.058,2.769-8.151-0.237
		C307.771,269.461,306.31,264.394,308.446,266.766z"/>
	<path fill="#CB9485" d="M359.843,299.235c-3.958,1.661-8.072,3.746-6.939,1.984c2.219-3.45,8.179-7.682,12.391-5.701
		C367.366,296.493,363.671,297.629,359.843,299.235z"/>
	<path fill="#CB9485" d="M292.436,302.457c-1.487-4.956,8.426-14.868,15.365-11.647C314.74,294.03,294.861,310.54,292.436,302.457z"
		/>
	<path fill="#CB9485" d="M326.883,293.04c2.151-5.108,11.4-6.691,15.861-2.23C347.205,295.271,324.901,297.748,326.883,293.04z"/>
	<path fill="#FFE28C" d="M485.911,196.317c1.86-7.596,4.467-15.61,8.419-22.714c-4.169,2.593-10.869,9.568-13.056,19.565
		c-1.822,8.33,0.048,20.07,2.233,27.769C482.768,212.669,484.023,204.025,485.911,196.317z"/>
	<path fill="#FFE28C" d="M497.214,172.494c-4.594,7.442-7.538,16.176-9.422,24.341c-2.32,10.047-3.857,21.7-0.881,31.916
		c0.494,0.242,0.809-0.441,0.809-2.375c0-9.43,3.469-36.677,9.912-52.538C497.98,172.978,497.783,172.544,497.214,172.494z"/>
</g>
</svg>
