<?xml version="1.0" encoding="utf-8"?>
<!-- Generator: Adobe Illustrator 17.0.0, SVG Export Plug-In . SVG Version: 6.00 Build 0)  -->
<!DOCTYPE svg PUBLIC "-//W3C//DTD SVG 1.1//EN" "http://www.w3.org/Graphics/SVG/1.1/DTD/svg11.dtd">
<svg version="1.1" id="Layer_1" xmlns="http://www.w3.org/2000/svg" xmlns:xlink="http://www.w3.org/1999/xlink" x="0px" y="0px"
	 width="800px" height="600px" viewBox="0 0 800 600" enable-background="new 0 0 800 600" xml:space="preserve">
<g>
	<path fill="#C4C4C4" d="M284.576,521.393c0,10.043,74.133,18.183,165.579,18.183c91.451,0,165.584-8.141,165.584-18.183
		c0-10.041-74.134-18.183-165.584-18.183C358.709,503.209,284.576,511.352,284.576,521.393z"/>
	<path d="M570.54,230.651c-6.796,3.281-14.873,2.953-21.562,1.642c-7.839-1.537-12.643-7.772-15.466-14.53
		c-2.406-5.754-5.392-20.858-19.218-36.559c-9.235-10.489-20.622-18.045-37.029-21.795c-10.826-2.474-21.714-2.204-32.795,1.587
		c4.84-3.064,19.97-12.76,46.2-6.261c21.026,5.209,29.108,16.129,35.447,34.856c0.278,0.818,0.71-3.427-0.709-7.917
		c-3.677-11.643-7.208-23.513-30.367-30.84c-25.229-7.98-52.225,1.773-67.822,18.196c-0.035,0.036-1.626,0.008-1.805,0.016
		c9.148-12.726,27.298-21.638,42.688-23.646c8.152-1.065,20.086-1.417,18.787-10.28c-0.442-3.006-3.556-2.949-3.427-2.6
		c3.545,9.571-10.043,6.499-29.067,12.051c-11.76,3.434-25.431,12.67-30.838,24.459c-2.501,0.129-3.803,0.337-4.116,0.348
		c-5.028,0.176-32.215-12.779-34.624-13.543c-2.409-0.764-5.385,1.19-5.97,3.2c-0.704,2.412,1.015,4.54,3.389,5.641
		c4.187,1.942,10.067,4.732,16.855,7.31c-0.1,0-0.203-0.006-0.302-0.006c-4.453,0-8.886,0.429-13.308,1.011
		c-7.066,0.926-14.022,2.571-20.837,4.54c-15.384,4.443-30.34,10.74-43.894,18.921c-29.396,17.74-41.151,43.864-34.312,65.066
		c6.145,19.054,27.044,26.431,45.682,27.316c13.51,0.64,34.447-1.009,48.784-3.239c9.448,23.084,9.318,58.238,7.13,81.402
		c-9.46,25.178-22.026,71.941-24.02,104.092c11.792,3.426,30.486,4.732,48.393,5.776s55.238-0.2,78.994-2.434
		c20.815-1.956,43.856-4.818,55.802-8.284c-1.624-33.05-12.672-77.358-18.32-97.901c0.952-12.328,2.504-60.215,0.437-88.637
		c11.273-5.291,17.278-16.899,12.862-29.035C561.204,252.713,570.773,238.62,570.54,230.651z"/>
	<path fill="#FFDBCC" d="M407.698,181.495c6.237-3.246,13.902-2.849,18.701-2.153c7.537,1.096,12.549,6.928,13.909,12.59
		c0.788,3.272,0.798,6.545-0.002,9.598c-4.704-13.073-22.25-21.172-35.957-17.875C405.359,182.857,406.471,182.134,407.698,181.495z
		"/>
	<path fill="#FFFFFF" d="M399.302,190.181c7.653-4.909,13.907-4.414,24.417-0.632c8.508,3.061,13.677,9.998,13.359,18.604
		c-4.062,4.608-11.002,7.041-18.794,6.496c-7.516-0.526-12.754-3.833-15.65-6.567C400.158,205.744,395.431,196.137,399.302,190.181z
		"/>
	<path fill="#FFFFFF" d="M434.481,380.278c-12.069-0.286-23.945-1.176-35.828-2.767c2.039,3.791,7.365,11.368,13.643,19.571
		C418.796,389.56,426.577,383.873,434.481,380.278z"/>
	<path fill="#FFFFFF" d="M453.218,380.281c7.251,3.231,13.17,9.278,18.921,15.886c5.496-5.945,10.315-12.002,14.003-17.982
		C475.477,379.212,463.357,379.978,453.218,380.281z"/>
	<path fill="#3083FF" d="M442.975,395.171c3.445-1.287,7.157-6.084,9.79-10.059c-2.651-1.414-5.479-2.558-8.514-3.342
		c-3.505,0.586-7.039,1.748-10.462,3.385C435.265,389.153,438.743,396.752,442.975,395.171z"/>
	<path fill="#FFFFFF" d="M437.356,398.352c-1.142-1.106-2.143-2.387-2.873-3.277c-1.939-2.364-3.337-5.093-4.392-7.945
		c-5.69,3.383-10.901,8.085-14.912,13.677c3.329,4.254,6.815,8.544,10.149,12.457C427.388,407.168,432.04,401.996,437.356,398.352z"
		/>
	<path fill="#3083FF" d="M440.793,401.06c-3.979,0.647-11.206,9.572-12.431,15.708c3.537,4.009,6.776,7.403,9.291,9.609
		c4.495-3.297,9.018-6.825,13.45-10.501C449.441,410.916,444.773,400.416,440.793,401.06z"/>
	<path fill="#FFFFFF" d="M456.329,387.24c-1.808,2.816-6.507,9.194-10.275,11.142c4.484,2.786,7.346,8.411,9.124,13.61
		c5.129-4.402,9.378-7.948,13.941-12.641C465.479,394.748,461.254,390.519,456.329,387.24z"/>
	<path fill="#58A244" d="M521.13,373.939c-8.98,1.338-17.907,2.488-26.767,3.44c-12.711,20.861-36.128,41.452-57.309,57.078
		c-5.625-4.549-38.642-45.385-43.575-54.622c-7.186,15.671-16.858,51.774-19.564,84.262c12.733,3.443,47.722,5.606,78.383,4.475
		c31.193-1.151,72.73-6.34,86.379-9.563C538.079,446.184,529.658,396.491,521.13,373.939z"/>
	<path fill="#FFDBCC" d="M531.039,265.576c-2.258,5.368-8.964,7.567-14.065,5.953c-3.113-0.985-6.065-5.713-9.704-2.431
		c-4.074,3.677,0.01,8.614,3.313,10.801c2.905,1.923,6.3,2.326,9.644,2.066c1.745,29.624,0.99,66.106-0.628,82.975
		c-38.477,7.95-100.651,8.527-122.482,1.95c3.526-23.748,2.195-59.414-7.769-83.334c8.166-1.8,14.26-3.428,22.234-5.854
		c2.515-0.766,4.112-3.149,3.389-5.639c-0.682-2.328-3.451-3.966-5.97-3.199c-14.352,4.365-28.97,7.901-43.911,9.884
		c-12.695,1.519-25.479,1.959-38.186,0.399c-13.423-1.648-26.945-7.794-32.475-24.39c-4.904-14.71,7.942-34.331,22.741-44.867
		c11.556-8.228,20.592-12.596,33.888-17.97c11.943-4.68,24.409-8.376,37.233-10.119c2.957-0.348,5.926-0.58,8.902-0.639
		c-4.413,4.204-7.602,12.688-5.864,20.899c1.115,5.266,5.986,11.821,10.724,14.506c1.022,0.58,2.107,1.111,3.24,1.595
		c-0.958,0.18-1.915,0.367-2.863,0.561c-2.962,0.607-2.117,5.004,0.86,4.591c14.374-1.996,28.279-0.833,42.607,0.799
		c2.765,0.315,3.407-3.796,0.904-4.684c-3.183-1.13-6.432-1.926-9.722-2.466c1.996-1.219,3.633-2.651,4.971-4.228
		c4.637-5.474,6.085-10.947,5.795-18.064c-0.268-6.615-4.057-13.956-8.986-16.694c24.586-1.797,47.326,8.994,57.054,23.402
		c4.831,7.151,11.792,17.224,17.263,36.044c-5.02,2.705-9.027,7.233-10.116,11.876c-0.903,3.839,3.097,6.951,4.874,3.839
		c3.583-6.27,8.441-7.998,12.585-7.489c3.413,0.419,5.975,1.688,8.093,4.421C532.493,255.076,533.286,260.234,531.039,265.576z"/>
	<path fill="#F2C9B5" d="M406.3,301.126c3.777-4.828,7.076-10.585,6.752-16.926c-0.118-2.288-0.405-4.551-0.683-6.815
		c-0.251,0.122-0.51,0.232-0.785,0.316c-7.974,2.426-14.068,4.054-22.234,5.854c3.307,7.937,5.657,17.171,7.2,26.831
		C400.284,307.746,403.617,304.552,406.3,301.126z"/>
	<path fill="#F2C9B5" d="M438.859,177.974c4.929,2.738,8.717,10.079,8.986,16.694c0.289,7.117-1.158,12.59-5.795,18.064
		c-1.338,1.578-2.975,3.01-4.971,4.228c3.289,0.54,6.539,1.336,9.722,2.466c0.308,0.11,0.567,0.267,0.782,0.459
		c9.453-3.223,12.634-18.28,10.566-26.709c-1.525-6.215-4.882-11.212-9.29-15.247C445.579,177.726,442.237,177.728,438.859,177.974z
		"/>
	<path fill="#F2C9B5" d="M424.521,317.932c-1.923,11.144,4.796,22.649,17.565,22.707c7.934,0.038,16.334-5.849,16.129-13.947
		c-0.075-2.938-0.834-5.725-1.982-8.401C448.106,324.454,430.709,325.329,424.521,317.932z"/>
	<path fill="#F5D447" d="M538.8,243.581c-3.728-5.185-9.911-8.751-16.323-8.833c-3.998-14.246-10.4-28.296-19.409-40.025
		c-5.598-7.29-17.963-20.279-39.279-23.941c-8.066-1.384-16.763-1.875-24.305-1.972c6.846-6.121,27.246-7.101,41.061-3.31
		c11.953,3.281,24.424,11.908,33.279,23.906c7.265,9.843,9.854,18.168,12.421,25.077c2.241,6.034,4.661,12.139,9.607,16.404
		c6.796,5.859,15.423,8.324,25.715,6.515C559.524,244.947,546.634,246.824,538.8,243.581z"/>
	<path d="M404.463,469.633c-3.315,0.186-6.612,0.183-9.911-0.402c-3.361,9.633-8.76,25.162-9.646,30.441
		c-2.846-1.73-5.851-3.474-7.079-4.151c-8.192-4.511-17.039-8.81-26.373-10.321c-13.742-2.225-20.732,11.81-9.944,20.824
		c9.423,7.874,25.53,12.069,37.633,11.262c-0.351,3.687-0.787,5.908-1.157,6.806c-0.365,0.901,18.139,4.869,19.28,2.813
		c2.377-4.274,2.403-13.834-3.855-21.415C394.411,498.492,400.455,480.036,404.463,469.633z"/>
	<path fill="#92564E" d="M356.162,507.633c-3.707-1.479-7.152-3.517-9.827-6.31c-3.621-3.135-4.281-8.465,0.367-9.749
		c3.165-0.874,8.211-0.106,12.841,1.238c0.753,2.784,0.761,5.547,0.045,8.571c-0.499,2.109-1.414,4.094-2.867,5.736
		C356.55,507.314,356.359,507.479,356.162,507.633z"/>
	<path fill="#9A796F" d="M393.996,521.804c-0.246,1.828-10.531-0.054-10.326-1.258c0.208-1.2,1.641-10.307-0.081-9.655
		c-1.217,0.458-13.739,1.29-24.911-2.35c1.292-1.621,2.244-3.617,2.709-4.915c0.982-2.732,1.246-6.768,0.242-10.157
		c1.405,0.472,2.738,0.982,3.917,1.505c5.496,2.536,19.243,9.544,23.154,13.399C392.612,512.227,394.584,517.409,393.996,521.804z"
		/>
	<path d="M562.712,506.046c-3.792-5.814-15.089-13.116-21.438-14.112c-2.433-3.399-10.391-17.149-16.1-27.533
		c-3.456,0.644-6.943,1.038-10.459,1.074c5.63,10.375,14.978,25.409,17.511,28.922c-5.647,1.179-11.64,3.383-15.836,5.291
		c-6.682,3.045-13.499,7.397-17.416,13.837c-3.437,5.651-1.282,12.452,4.187,15.263c11.819,6.069,30.882-10.003,38.053-18.22
		c2.151,2.647,3.89,6.542,4.735,7.659C546.796,519.346,563.727,507.6,562.712,506.046z"/>
	<path fill="#92564E" d="M518.327,522.005c-7.91,3.267-13.812,1.889-14.17-3.097c-0.278-3.854,2.986-7.504,7.489-10.739
		c2.964,1.386,5.203,3.238,6.803,6.459c0.987,1.983,1.834,4.2,1.797,6.478C519.594,521.442,518.95,521.746,518.327,522.005z"/>
	<path fill="#9A796F" d="M547.545,512.245c-1.119-4.338-6.444-9.461-7.089-8.522c-2.708,3.925-10.539,11.511-17.632,15.916
		c-0.544-3.151-2.485-6.501-3.919-8.23c-1.278-1.54-3.23-3.486-5.417-4.503c0.774-0.505,1.573-1,2.387-1.479
		c8.249-4.869,19.622-8.732,26.078-8.412c1.517,0.075,10.489,4.46,14.19,9.029C557.025,507.133,549.475,511.136,547.545,512.245z"/>
	<g>
		<path d="M372.809,339.376c-10.388-2.099-21.444,4.265-27.025,12.029c-4.877-9.695-13.529-17.497-24.935-17.842
			c-13.492-0.411-24.811,9.263-29.272,21.511c-5.722,15.717,0.292,33.766,9.622,46.764c12.979,18.082,30.908,26.327,38.283,28.288
			c10.121-3.281,23.186-11.822,33.875-22.359c10.828-10.669,20.478-24.705,20.281-40.587
			C393.475,353.787,388.266,342.497,372.809,339.376z"/>
		<path fill="#D4000F" d="M386.734,370.583c-0.256,11.956-6.804,23.005-14.705,31.097c-10.61,10.864-22.332,19.353-32.745,23.721
			c-9.949-3.798-22.645-11.786-30.993-22.579c-8.735-11.292-15.945-28.198-11.66-42.011c3.124-10.078,11.57-18.417,21.934-19.318
			c13.704-1.193,23.885,12.329,25.649,23.383c5.118-7.85,12.676-16.021,24.756-16.761
			C380.77,347.39,386.929,361.329,386.734,370.583z"/>
	</g>
	<g>
		<path d="M294.015,410.749c4.411-0.774,8.319-2.782,11.645-7.133c1.792-2.347,4.773-3.448,7.446-1.827
			c2.269,1.374,3.69,5.141,1.827,7.446c-2.938,3.636-13.99,11.427-19.788,8.555C291.989,416.227,290.829,411.309,294.015,410.749z"
			/>
		<path d="M300.075,420.298c8.53-0.505,13.898-6.548,16.219-8.951c4.961-5.133,12.159,2.945,7.408,8.234
			c-5.986,6.663-17.208,8.889-21.466,7.646C297.98,425.985,297.531,420.447,300.075,420.298z"/>
		<path d="M317.156,426.613c2.757-1.046,6.949-2.832,9.298-7.297c3.143-5.97,11.589-0.839,7.864,4.588
			c-2.153,3.137-4.84,5.311-8.349,6.76c-1.691,0.698-3.509,1.53-5.337,1.486C316.036,432.031,315.318,427.311,317.156,426.613z"/>
		<path d="M289.82,404.756c-2.736-2.102-3.893-7.762-0.13-10.122c6.725-4.22,15.193-0.486,14.985,4.975
			C304.477,404.816,295.904,409.427,289.82,404.756z"/>
	</g>
	<path d="M605.328,427.838c-3.749-5.439-10.291-9.924-18.415-7.756c-7.103-12.633-16.311-24.646-27.88-33.438
		c-10.531-8.007-22.83-15.272-34.752-20.521c-1.13-0.496-2.5,5.024-1.416,5.655c11.107,6.469,22.773,13.133,32.345,21.783
		c9.77,8.824,20.534,23.441,23.701,32.536c-1.967,3.23-2.684,6.89-4.248,10.623c-1.033,2.471-4.964,6.191-7.753,4.46
		c-2.787-1.732-7.55-4.406-9.245-1.004c-1.95,3.911,2.733,13.831,12.252,10.782c4.203-1.346,7.85-6.567,9.466-10.264
		c4.216,1.891,3.397,6.847,3.065,11.079c-0.38,4.831,9.947,7.202,11.591-3.575c-0.072,9.097,10.052,5.139,7.862-3.734
		c1.497,2.201,3.456,3.636,5.662,1.368C611.761,441.51,608.162,431.949,605.328,427.838z"/>
	<path d="M421.786,186.504c-10.777-3.234-10.507,10.764-2.798,12.18C427.053,200.165,431.662,189.466,421.786,186.504z"/>
	<path d="M460.842,252.392c-2.035-7.281-7.853-13.842-13.597-16.674c3.507-0.172,7.181,0.604,10.907,2.329
		c2.593,1.2,3.342-1.258,1.157-3.027c-8.565-6.936-20.948-4.599-26.313,3.831c-1.176,1.848-1.33,5.792,0.091,4.165
		c1.842-2.109,6.148-4.769,6.255-4.684c5.873,4.64,9.932,8.748,12.193,16.048c2.357,7.616,2.28,15.911,0.618,23.637
		c-3.494,16.222-15.374,24.35-31.322,26.152c-1.006,0.115-1.171,1.729-0.089,1.831c8.841,0.831,17.216,0.351,24.949-4.359
		c7.731-4.71,11.977-13.13,14.567-21.488C463.162,270.777,463.497,261.89,460.842,252.392z"/>
	<path d="M453.369,316.217c-6.514,4.071-23.934,6.434-28.917-0.334c-0.756-1.027-2.283,0.194-1.756,1.252
		c4.942,9.93,18.824,13.071,27.822,10.071C460.287,323.951,455.984,314.581,453.369,316.217z"/>
	<g>
		<g>
			<path d="M369.623,85.421c-13.62-17.422-33.739-24.603-54.385-28.147c-20.483-3.515-39.521-3.577-59.017,4.287
				c-15.479,6.243-29.51,21.142-33.57,38.042c-4.163,17.327,0.132,42.488,11.703,55.265c9.221,10.186,23.726,22.604,54.936,25.396
				c26.048,2.329,57.765-3.504,76.187-23.322C382.707,138.404,383.224,102.821,369.623,85.421z"/>
			<path fill="#CFE8FF" d="M367.74,127.761c-2.765,13.58-12.46,25.073-24.031,31.255c-14.624,7.812-28.504,11.401-59.6,9.328
				c-20.012-1.333-53.382-18.139-52.346-55.972c0.612-22.331,17.729-39.868,37.26-44.519c21.109-5.027,43.241-3.745,63.724,3.296
				C373.715,85.225,370.3,115.18,367.74,127.761z"/>
		</g>
		<g>
			<path d="M417.727,112.42c-0.4-7.383-4.503-12.528-11.492-14.001c-5.465-1.151-12.655,0.288-15.819,7.767
				c-3.601,8.512-0.78,18.631,9.204,21.568C409.398,130.63,418.233,121.786,417.727,112.42z"/>
			<path fill="#FFFFFF" d="M401.657,121.736c-6.607-1.382-8.91-10.203-5.188-15.843c3.725-5.639,15.279-5.392,16.542,5.549
				C413.651,116.981,407.553,122.968,401.657,121.736z"/>
		</g>
		<g>
			<path d="M433.588,105.625c-12.903,0-13.033,20.014-0.122,20.014C446.367,125.639,446.498,105.625,433.588,105.625z"/>
			<path fill="#FFFFFF" d="M433.553,109.507c-7.589,0-7.667,11.773-0.071,11.773C441.071,121.281,441.147,109.507,433.553,109.507z"
				/>
		</g>
		<g>
			<path d="M455.547,124.398L455.547,124.398c-2.805-2.806-7.608-2.568-10.294,0.253c-2.786,2.926-2.552,7.489,0.253,10.294h0.002
				c2.805,2.806,7.608,2.568,10.294-0.253C458.587,131.767,458.352,127.203,455.547,124.398z"/>
			<path fill="#FFFFFF" d="M450.235,125.464c-4.545,0-4.591,7.051-0.043,7.051C454.737,132.515,454.781,125.464,450.235,125.464z"/>
		</g>
	</g>
	<path d="M365.774,121.738c-2.469-12.272-7.707-23.747-17.29-32.002c-9.844-8.481-27.328-17.476-36.514-15.463
		c-5.338-1.313-14.7-2.363-20.484-0.23c-15.74-4.146-26.766-1.691-34.277,10.412c-4.097,6.598-5.867,14.222-10.388,20.611
		c-3.942,5.566-7.411,10.75-10.027,17.06c-5.924,14.279-1.807,28.626,9.69,38.61c8.848,7.686,23.176,12.97,34.948,12.36
		c1.594-0.081,2.312-1.311,2.114-2.428c4.254,0.901,8.533,1.621,12.905,2.04c1.305,0.125,2.388,0.547,3.259,1.163
		c6.491,0.199,13.117,0.062,19.841-0.469c0.099,0.3,0.195,0.636,0.292,0.956c0.809-0.361,1.697-0.561,2.627-0.551
		c0.521,0.005,1.041,0.032,1.559,0.049c-0.002-0.18,0.005-0.354,0.016-0.524c13.893-2.094,28.188-7.389,36.36-20.383
		C366.591,143.115,367.991,132.752,365.774,121.738z"/>
	<path fill="#885D4C" d="M252.554,156.981c-11.953-7.812-17.189-18.554-13.206-32.262c1.954-6.725,5.549-12.55,9.407-18.312
		c3.59-5.363,5.681-11.187,8.238-17.055c2.433-5.59,6.169-10.41,11.583-13.349c6.032-3.276,12.728-1.715,19.046-0.241
		c-0.804,0.435-1.592,0.893-2.368,1.353c-0.316,0.187-0.642,0.393-0.965,0.595c-6.092-2.096-12.25,0.868-16.243,5.837
		c-4.495,5.597-4.545,14.462-4.723,18.387c-0.176,3.925-0.092,7.866-0.837,10.295c-1.282,4.168-3.817,6.296-8.816,6.381
		c-4.108,0.072-5.209,4.63-3.963,8.049c2.288,6.286,7.314,8.926,14.009,9.646c-1.856,11.403,2.515,23.818,11.387,30.656
		C265.824,165.17,260.06,161.888,252.554,156.981z"/>
	<path fill="#FFDBCC" d="M295.636,169.166c-5.005-0.205-9.402-0.286-11.527-0.823c-3.318-0.836-18.67-10.602-16.898-32.615
		c3.375-0.493,5.006-4.206,3.931-4.143c-18.838,1.149-20.845-9.333-16.146-9.733c4.696-0.399,7.368-2.662,9.946-6.707
		c1.67-2.622,1.276-5.269,1.184-9.116c-0.092-3.844,0.359-12.209,2.517-17.233c3.497-8.144,10.338-10.148,15.765-8.047
		c5.425,2.099,7.837,5.479,11.225,9.038c3.386,3.561,6.51,7.313,9.25,12.485c2.738,5.172,3.574,9.72,3.995,14.025
		c0.453,4.6-1.092,9.556-3.062,13.674c-0.952,1.988-1.831,3.95-2.145,6.132c-0.283,1.948-0.067,3.93,0.114,5.878
		c0.191,2.037,0.361,4.101-0.384,6.056c-0.591,1.545-1.758,2.824-2.878,4.041c-2.619,2.854-4.731,5.6-5.574,9.387
		C294.32,164.286,294.595,166.446,295.636,169.166z"/>
	<path fill="#885D4C" d="M299.378,169.166c-0.11-0.002-0.466,0.005-0.577,0c-1.746-3.672-1.931-6.823-0.172-10.636
		c1.51-3.264,4.731-5.423,6.502-8.546c1.784-3.142,1.058-6.76,0.802-10.151c-0.184-2.445,0.073-4.739,1.149-6.981
		c0.915-1.907,2.005-3.731,2.889-5.654c3.683-8.001,1.111-17.181-2.152-24.91c-1.616-3.83-4.595-7.732-7.489-11.217
		c-1.527-1.842-7.796-7.867-9.361-9.1c-0.041-0.032,3.634,0.024,5.282,0.578c3.305,1.112,6.069,3.248,8.527,5.56
		c3.946,3.709,7.265,8.028,9.83,12.696c4.785,8.706,7.365,21.576,0.857,30.047c-2.223,2.892-5.331,5.166-6.593,8.644
		c-1.347,3.715,1.624,7.113-0.016,10.739c-1.471,3.254-5.547,5.121-7.807,7.845C298.229,161.483,297.972,165.194,299.378,169.166z"
		/>
	<path fill="#885D4C" d="M322.452,168.084c-6.091,1.082-15.132,1.346-21.252,1.179c-1.054-2.879-0.958-4.894-0.539-6.831
		c0.334-1.546,2.05-3.766,3.995-4.972c2.782-1.727,5.639-4.427,6.524-7.677c0.508-1.872,0.116-4.027-0.385-5.852
		c-0.648-2.372,0.37-4.986,2.207-6.62c3.103-2.755,5.622-5.266,7.197-9.212c3.935-9.854,1.653-19.801-3.524-28.808
		c-5.314-9.248-14.869-18.633-26.631-18.476c-0.841-0.602-3.288-1.934-3.501-2.058c5.3-4.222,15.86-3.718,21.28-2.701
		c10.931,2.048,20.305,8.508,25.841,17.656c5.314,8.783,10.249,20.197,8.01,30.451c-1.119,5.122-5.425,8.924-7.915,13.431
		c-1.295,2.344-1.788,4.875-1.487,7.518c0.356,3.126,1.398,6.234,0.901,9.388c-0.694,4.43-4.88,6.963-8.077,9.715
		C323.816,165.317,322.963,166.638,322.452,168.084z"/>
	<path fill="#885D4C" d="M327.683,167.058c-0.464,0.084-2.678,0.343-3.135,0.448c0.93-2.272,4.384-4.287,7.071-6.687
		c1.705-1.524,2.836-3.116,3.44-5.29c0.734-2.643,0.119-5.344-0.318-7.988c-0.521-3.157-0.497-5.964,1.073-8.867
		c1.381-2.547,3.38-4.759,5.087-7.108c3.041-4.193,4.316-8.74,4.097-13.821c-0.426-9.776-5.025-20.041-10.75-28.101
		c-4.77-6.717-11.83-11.541-19.753-14.265c10.192,1.916,19.377,6.232,26.181,14.114c3.405,3.944,5.961,8.541,7.971,13.243
		c2.434,5.7,4.274,11.832,4.742,17.972c0.516,6.803-1.503,12.412-6.513,17.274c-1.864,1.812-4.036,3.299-5.854,5.16
		c-2.043,2.085-2.585,4.629-2.773,7.386C337.849,156.382,334.4,163.411,327.683,167.058z"/>
	<path fill="#885D4C" d="M356.757,149.977c-7.403,10.91-21.301,15.064-25.726,16.536c5.29-4.062,8.728-8.911,9.356-13.701
		c0.37-2.829,0.302-5.336,2.272-7.688c1.859-2.223,4.468-3.841,6.545-5.879c3.998-3.923,6.078-8.822,6.436-14.247
		c0.383-5.814-1.139-11.679-3.011-17.179c-1.659-4.882-3.826-9.602-6.62-14.001c-2.04-3.208-4.451-6.097-7.2-8.611
		c2.277,1.792,4.486,3.669,6.674,5.484c10.097,8.371,16.334,20.737,17.513,33.859C363.763,133.089,362.228,141.917,356.757,149.977z
		"/>
	<path d="M297.633,139.553c-1.457,1.201-3.165,2.212-5.179,2.895c-1.065-0.51-1.163-2.635-1.173-3.367
		c-0.016-1.398-0.116-2.833-1.205-3.923c-1.014-1.017-2.884-1.189-4.405-0.41c-2.194,1.122-1.39,5.425-2.856,5.703
		c-1.467,0.278-0.764-2.237-2.96-3.121c-1.492-0.601-3.131,0.199-3.842,1.384c-0.909,1.518-1.862,7.791-1.951,8.239
		c-0.423-0.022-0.842-0.059-1.246-0.127c-0.421-0.068-0.62,0.456-0.253,0.582c0.933,0.311,1.899,0.481,2.887,0.558
		c-5.52,4.815,1.29,11.851,8.695,10.573c4.314-0.744,6.358-3.922,7.23-6.974c0.668-2.328,1.227-4.958,2.673-7.666
		C297.428,142.157,298.407,138.917,297.633,139.553z"/>
	<path fill="#DC5381" d="M278.449,139.597c1.51-0.13,1.355,1.231,1.891,1.907c0.914,1.154,2.45,1.435,3.583,0.392
		c1.416-1.298,1.223-5.042,2.895-5.095c1.673-0.051,1.907,1.527,2.001,2.345c0.2,1.785,0.814,3.062,2.236,3.879
		c-3.625,1.716-12.283,3.93-16.227,3.947C276.041,145.002,276.937,139.728,278.449,139.597z"/>
	<path fill="#DC5381" d="M290.405,147.002c-1.1,2.541-1.723,5.33-3.653,7.646c-4.715,5.651-14.827-0.844-9.263-6.591
		c2.625,0.373,9.862-0.688,13.901-3.116C290.977,145.693,290.652,146.43,290.405,147.002z"/>
	<path d="M306.502,111.392c-1.707,1.659-3.024,2.463-5.39,2.597c1.209-0.326,2.395-0.89,3.544-1.764
		c0.707-0.539-0.051-1.678-0.782-1.142c-2.232,1.638-4.643,1.816-7.108,1.382c1.864-12.167-12.042-15.643-18.994-12.882
		c-4.942,1.962-7.405,6.626-7.91,8.984c-0.974,0.106-1.937,0.249-2.897,0.404c-0.078,0.226-0.145,0.451-0.219,0.677
		c0.982,0.17,1.953,0.184,2.93,0.127c-0.076,0.809-0.065,1.638,0.067,2.471c0.386,2.418,2.525,5.527,4.712,6.882
		c2.674,1.656,6.285,2.719,10.249,2.62c0.607-0.014,1.181-0.054,1.73-0.116c0.202,0.073,0.404,0.149,0.601,0.232
		c0.923,0.378,1.939,0.99,2.299,1.924c0.373,0.972-0.218,1.71-0.248,2.647c-0.011,0.423,0.523,0.733,0.882,0.429
		c1.843-1.556,0.494-4.087-1.126-5.195c-0.178-0.122-0.369-0.229-0.563-0.335c0.346-0.076,0.672-0.167,0.99-0.262
		c0.766,0.475,1.464,1.057,1.928,1.758c0.898,1.357,0.364,2.817,0.663,4.26c0.095,0.456,0.849,0.617,1.082,0.173
		c0.756-1.429,0.323-3.501-0.456-4.867c-0.469-0.828-1.146-1.39-1.929-1.788c0.408-0.175,0.78-0.372,1.139-0.577
		c1.181,0.291,2.266,0.809,3.032,1.8c1.106,1.432,0.75,3.161,0.232,4.712c-0.232,0.702,0.98,1.124,1.289,0.45
		c1.519-3.312-0.13-6.793-3.292-7.812c0.242-0.197,0.472-0.4,0.686-0.613c1.222-1.208,2.036-2.444,2.547-3.799
		c4.116,1.082,7.348,1.276,10.109-1.076C307.9,112.328,306.732,111.169,306.502,111.392z"/>
	<path fill="#FFFFFF" d="M291.129,116.55c-2.066,1.985-5.161,2.666-8.88,2.187c-3.571-0.458-5.975-2.109-7.284-3.434
		c-1.109-1.123-2.26-3.235-1.864-5.798c1.775-0.061,3.55,0.124,5.314,0.324c0.134,0.016,0.265,0.036,0.397,0.052
		c-0.601,0.598-1.001,1.362-1.054,2.217c-0.125,2.013,1.653,3.812,3.898,3.95c2.25,0.14,4.232-1.427,4.356-3.442
		c0.032-0.51-0.06-1.006-0.25-1.465c1.198,0.307,2.387,0.65,3.545,1.077c1.254,0.466,2.523,0.922,3.796,1.289
		C292.709,114.624,292.056,115.658,291.129,116.55z"/>
	<path fill="#FFB3A7" d="M293.518,111.616c-2.388-0.777-4.777-1.783-7.051-2.268c-4.264-0.91-8.7-1.235-13.084-1.041
		c0.701-2.234,2.333-3.876,4.743-4.888c3.065-1.284,6.712-0.879,8.983-0.423c3.564,0.718,5.792,3.504,6.283,6.107
		C293.553,109.955,293.595,110.798,293.518,111.616z"/>
	<path d="M287.447,85.567c-6.013-0.961-11.529,1.797-14.374,6.741c-0.31,0.539,0.464,0.965,0.841,0.483
		c2.264-2.878,6.407-3.814,10.697-3.321c6.631,0.759,7.88,6.115,8.145,7.686c1.513,0.145,3.143-1.333,2.827-5.107
		C295.315,88.854,291.02,86.14,287.447,85.567z"/>
	<path fill="#FF7D82" d="M307.911,351.729c4.394-6.153,19.531-7.001,25.795,1.473C339.972,361.678,300.541,362.049,307.911,351.729z
		"/>
</g>
</svg>
