<?xml version="1.0" encoding="utf-8"?>
<!-- Generator: Adobe Illustrator 17.0.0, SVG Export Plug-In . SVG Version: 6.00 Build 0)  -->
<!DOCTYPE svg PUBLIC "-//W3C//DTD SVG 1.1//EN" "http://www.w3.org/Graphics/SVG/1.1/DTD/svg11.dtd">
<svg version="1.1" id="Layer_1" xmlns="http://www.w3.org/2000/svg" xmlns:xlink="http://www.w3.org/1999/xlink" x="0px" y="0px"
	 width="800px" height="600px" viewBox="0 0 800 600" enable-background="new 0 0 800 600" xml:space="preserve">
<g>
	<g>
		<path fill="#141111" d="M341.562,75.756c-4.892,2.576-10.649,6.285-10.881,6.285l3.369-9.893
			c-3.669-0.687-12.752,6.701-16.803,15.129c-19.359-0.7-34.383,13.901-34.383,13.901s1.223-7.506,5.71-14.211
			c-9.439,1.478-13.996,11.292-16.022,19.211c-4.537-9.639-8.555,1.528-8.555,1.528c-3.318-6.701-8.909-2.577-10.204,2.569
			c-1.39,0.685-4.121-2.569-3.772-6.521c-6.463,2.233-7.86,10.306-7.573,15.63c-2.549,0-5.3-3.095-6.229-3.778
			c-2.778,1.821-3.144,10.307,1.827,15.619c-1.334,1.441-4.62,3.105-7.766,3.277c0.699,4.296,4.018,7.902,9.618,9.476
			c1.853,3.642,10.996,37.076,20.149,46.91c-2.547,2.047-8.72,8.925-8.539,18.541c0.18,9.618,4.708,18.345,10.323,25.112
			c5.614,6.769,13.767,12.823,23.921,11.907c0.695,2.962,7.415,29.769,11.58,47.596c-11.117,11.156-19.222,18.67-24.78,22.543
			c-10.652,7.74-21.306,11.387-31.727,11.157c-0.464,2.049,3.075,8.135,6.946,11.157c2.549,1.141,9.894,1.432,20.38-0.682
			c-15.052,15.941-30.542,33.716-35.387,48.891c0,0,12.383,0.354,27.635-10.409c0,0-5.202,8.115-7.356,16.408
			c-2.153,8.293,0.272,20.484,3.051,22.764c2.332-2.647,5.203-4.766,7.658-5.692c3.288,8.515,12.261,13.103,18.362,13.278
			c1.389,3.645,2.151,5.647,2.151,7.235c-4.845,0.176-13.996-2.294-19.56-3.177c2.334,8.293,12.921,19.764,12.921,19.764
			c13.896,2.502,31.516-3.855,49.347-18.203c-0.926,5.465-3.339,13.804-6.442,18.302c-3.105,4.499-12.579,14.456-16.827,22.65
			c-4.247,8.192-9.966,20.24-5.718,33.092c3.432,3.534,9.646,6.509,13.887,7.229c-0.693-14.118,5.374-27.759,16.027-39.6
			c8.568-9.564,20.381-17.763,34.97-24.597c-11.579,18.903-16.199,24.998-25.02,47.812c-8.823,22.81-13.887,66.022,1.398,69.922
			c1.379-12.573,6.725-30.438,12.978-43.416c5.093-10.248,21.727-34.699,21.727-34.699c0,4.178,0.906,7.199,3.757,9.318
			c0,0-15.029,25.059-5.063,35.019c-2.287,11.084-2.451,22.168-0.653,29.075c5.229,8.514,15.518,9.799,15.518,9.799
			s0-12.851,1.991-18.758c6.254,9.563,16.307,19.079,36.401,10.727c-8.496-6.427-13.069-17.352-12.744-30.844
			c0.328-13.493,15.847-31.483,26.466-39.997c21.237-2.893,43.724-22.841,57.996-46.427c11.763-19.436,56.189-97.685,71.881-129.796
			c1.788,5.447,4.575,11.246,11.273,13.494c6.697,2.249,18.952-2.41,20.748-10.279c-7.842,0.32-20.91-10.123-16.989-26.83
			c3.921-16.704,18.295-55.58,17.315-86.265c-0.981-30.682-18.624-53.651-26.956-66.182c-8.332-12.531-16.857-30.665-27.118-41.607
			c-15.521-16.545-33.001-22.81-54.24-13.813c-28.915-15.904-54.399-3.053-70.085,6.104c-15.683,9.157-40.443,31.156-46.784,58.404
			c-3.595-3.496-7.787-5.9-12.855-7.789c4.018-2.234,6.117-6.701,6.989-9.448c0.874-2.75,1.058-6.68-1.446-7.789
			c-9.56-4.235-25.704-24.139-25.704-24.139s10.84-10.144,13.983-14.095c3.145-3.949,1.95-6.974-2.867-5.032
			c-4.817,1.94-11.806,5.205-11.806,5.205C345.579,79.363,346.452,73.178,341.562,75.756z M264.679,178.592
			c-1.39-0.911-1.39-2.505-0.232-4.325c1.39-2.279,2.315-3.873,2.548-4.556L264.679,178.592z"/>
		<path fill="#F1D4A4" d="M489.124,109.719c-10.781-4.659-18.565-3.556-33.478,5.151c-10.365,6.052-17.955,21.814-19.809,29.104
			c6.525-5.959,23.771-9.396,33.562,0.006C469.398,143.979,478.016,121.766,489.124,109.719z"/>
		<path fill="#B2D8F1" d="M467.398,149.558c-1.854-3.188-11.484-8.763-19.605-7.069c-16.172,3.374-18.92,22.213-18.689,27.678
			c6.716,2.276,18.504,2.832,33.557,1.238C462.428,168.898,464.293,156.303,467.398,149.558z"/>
		<path fill="#FFFFFF" d="M461.258,177.193c-0.721-1.183-3.302-2.221-4.804-0.236c-1.502,1.984-0.601,4.015,0.601,5.077
			c1.202,1.064,3.244,1.064,4.203-0.354C462.22,180.264,461.98,178.373,461.258,177.193z"/>
		<path fill="#FFFFFF" d="M466.543,190.657c-3.066,0.827-9.273,2.433-14.666-1.102c-6.086-3.988-6.097-8.695-6.697-13.654
			c-7.353,0.161-16.664-1.928-16.664-1.928s0.328,8.032,5.228,14.298c4.9,6.264,11.071,10.398,17.318,10.279
			C457.308,198.433,464.621,196.088,466.543,190.657z"/>
		<path fill="#F1D4A4" d="M450.64,225.274c-2.083-0.91-3.936-1.822-5.093-2.05c0.462-4.1,0.926-6.831,1.619-8.426
			c0.926-2.96,2.548-5.465,4.633-7.286c2.082,0,4.4,0.684,6.946,1.821l8.999,4.588c0,0,1.08-3.424,0.359-8.148
			c-0.72-4.725-2.522-8.857-2.522-8.857c-7.686,3.543-15.913,5.298-23.059,2.243c-8.596-3.673-13.8-12.319-17.03-21.142
			c0,0-1.973,9.353-0.896,16.763c1.076,7.41,5.743,19.763,12.382,26.997c6.64,7.235,17.586,15.703,27.096,16.932l0.926-10.476
			c-2.085,1.595-5.326,1.595-9.265-0.227L450.64,225.274z"/>
		<path fill="#141111" d="M444.85,207.513c-0.692-0.685-6.251-0.912-6.251-0.912c-1.158,0-1.854,0.912-2.315,2.051
			c-0.464,1.364-0.231,2.503,0.462,3.415C440.914,210.699,443.693,209.334,444.85,207.513z"/>
		<path fill="#C9536A" d="M448.766,221.717c1.159-2.278,4.423-4.642,7.2-5.323c3.939-1.139,6.254-1.527,8.775-1.645
			c0,0-9.488-7.086-12.371-4.843C449.488,212.15,448.535,220.35,448.766,221.717z"/>
		<path fill="#C00076" d="M465.462,218.527l-7.806,2.479c-5.406,0.355-6.127,2.008-4.565,3.307c1.562,1.301,4.515,2.708,6.367,2.48
			c0.925-0.455,2.883-0.826,4.203-2.599C464.982,222.425,465.462,218.527,465.462,218.527z"/>
		<path fill="#FFFFFF" d="M377.528,170.239c0,0,1.157-7.533-1.445-10.093c-9.396,6.824-41.488,19.048-41.488,19.048
			c3.318,7.902,22.253,17.671,31.658,9.382c-4.626-0.995-8.963-8.954-4.337-15.636C365.934,167.136,374.203,168.107,377.528,170.239
			z"/>
		<path fill="#FFFFFF" d="M368.892,179.048c0-2.961,2.185-4.828,4.734-5.966c-1.622-0.456-4.039-0.64-5.43,0.045
			c-1.158,0.682-1.852,1.593-2.084,2.96c-0.927,3.416,0.464,6.148,3.938,7.971L368.892,179.048z"/>
		<path fill="#DFA04B" d="M263.904,172.746c-1.159,1.821-0.615,4.935,0.774,5.846l3.462-12.094
			C267.907,167.18,265.294,170.47,263.904,172.746z"/>
		<path fill="#FFEB00" d="M279.964,380.578c-1.853,2.957-3.707,6.146-5.561,9.336c0.928,1.823,1.251,5.845,0.354,9.021
			c-0.898,3.176-3.59,7.234-3.59,7.234c-0.462,2.962,4.308,10.589,10.88,9.933C279.964,404.716,279.268,392.874,279.964,380.578z"/>
		<path fill="#F0CA00" d="M276.952,356.438c-4.632,6.376-8.338,12.981-11.348,19.813c-0.232,0-5.743,9.626-6.82,14.391
			c-1.075,4.764-1.075,12.174,0.539,15.352c2.872-2.647,8.434-4.234,10.588-7.41c2.153-3.178,8.199-15.048,10.053-18.005
			c0-0.458,0-0.684,0-0.911c0.925-12.753,9.891-38.973,10.122-39.884C286.611,343.199,277.647,355.53,276.952,356.438z"/>
		<path fill="#FFEB00" d="M285.752,325.926c-1.852,2.732-3.937,5.464-6.253,8.198c-3.009,3.414-7.873,8.422-14.589,15.483
			c-6.718,6.375-11.349,11.614-14.358,15.256c-4.864,5.922-8.337,11.613-10.653,17.308c3.242-0.912,7.412-2.961,12.505-6.604
			c6.253-4.098,10.423-6.831,12.969-7.742c0.696,2.733,0.696,5.693,0,8.652c0,0,0-0.226,0.232-0.226
			c3.01-6.831,20.29-30.787,23.763-34.201c2.015-5.159,4.553-12.469,8.195-18.629c-0.926,0.228-2.083,0.228-3.475,0.228
			c-0.461,0-1.157,0-1.619,0.228C289.921,324.329,287.837,325.015,285.752,325.926z"/>
		<path fill="#F0CA00" d="M276.322,318.964c-9.495,7.058-20.262,10.714-29.523,11.397l4.447,4.216
			c6.484,0.229,14.361-1.166,22.234-5.265c3.707-2.052,10.129-5.623,17.366-12.724c-1.683,4.209-3.474,6.832-5.095,9.337
			c2.085-0.911,10.885-2.277,11.811-2.505c2.222-3.599,4.478-8.478,6.507-13.579c-2.255-5.323-4.745-11.716-4.745-11.716
			C287.515,309.28,280.027,316.229,276.322,318.964z"/>
		<path fill="#E3AD92" d="M354.025,163.125c1.157-9.564-4.433-15.551,3.441-21.017c0,0-4.167-1.958-9.601-0.178
			c-6.076,1.992-11.772,5.522-14.308,12.646c-2.536,7.123-2.646,14.906-0.563,18.322
			C333.458,172.672,353.562,165.631,354.025,163.125z"/>
		<path fill="#E3AD92" d="M379.544,262.163h-4.4c-0.23-0.455-0.692-0.91-0.926-1.138l0,0c-4.4-0.228-9.784-0.668-11.174,2.747
			c-1.39,3.415,0.093,9.294,2.871,11.117c3.706,2.503,9.692,2.075,14.323,1.393c0.926,0,1.623-0.229,2.085-0.457
			C380.702,269.45,379.544,262.163,379.544,262.163L379.544,262.163z"/>
		<path fill="#E3AD92" d="M350.597,293.815c-1.62,0.457-3.475,1.595-5.559,3.418c-9.264,1.82-18.064,0.909-26.633-3.188
			c0-1.597-0.463-2.962-0.927-4.328c-4.167-10.932-8.336-21.861-12.504-32.565c-0.232-1.366-0.463-2.96-0.926-4.098
			c-0.696-1.822-1.391-3.644-2.084-5.466c-1.623-3.642-3.706-6.604-6.719-8.881c-0.693,1.593-1.852,3.187-3.474,5.011l16.908,58.977
			c7.41,2.963,15.514,4.103,24.315,3.417c9.262-0.454,17.137-3.188,23.158-7.514c-0.231-0.23-0.231-0.23-0.231-0.457
			C354.533,296.776,352.912,295.183,350.597,293.815z"/>
		<path fill="#F1D7C7" d="M343.649,108.682c-9.185,2.26-28.881,10.084-38.84,12.134c-7.41,1.595-17.737,5.529-24.684,7.58
			c-4.633,1.366-5.906,4.251-7.065,9.261c-0.927,5.009-0.23,14.077,0,19.77c0,3.871,1.343,7.048,2.502,10.919l1.621-2.507
			c0,0,0.36,3.399,0.927,7.289c0.565,3.89,0.385,8.518,9.263,5.465c-2.538,8.4-3.959,13.521-1.207,17.658
			c1.013-4.263,2.533-10.193,4.915-11.087c0.904,2.852,6.506,18.905,13.894,26.903c-0.577,6.447-2.316,15.256-3.475,17.078
			c-8.338-8.882-12.737-16.394-12.969-22.544c-0.463-0.684-3.335-7.501-10.037-9.458c-6.7-1.959-14.127-1.425-17.206,3.563
			c-3.08,4.985-3.08,13.534,1.269,22.262c4.347,8.727,12.858,17.274,20.648,15.495c7.786-1.781,10.866-6.946,11.348-12.05
			c0,0,4.771,3.501,0.693,12.297c3.013,2.277,4.567,5.645,6.188,9.289c0.695,1.823,6.693,19.312,8.877,25.321
			c3.791,10.444,7.748,22.248,7.748,22.248s9.751,3.934,20.626,3.564c7.932-0.38,11.102-5.085,11.912-5.315
			c-0.232-0.225-7.874-5.237-7.874-5.237c-5.56-3.87-8.337-7.743-8.337-11.613c1.389,0.227,8.674,4.714,13.051,7.171
			c4.373,2.459,13.625,8.481,19.75,11.925c6.125,3.44,13.7,7.299,18.563,8.667c1.392-5.924,0.973-13.416-1.342-21.841
			c-0.928-2.506-1.391-4.782-2.085-7.06c-0.462,0.228-1.159,0.457-2.085,0.457c-4.631,0.682-15.758-2.806-14.82-10.477
			c1.39-3.415,4.399-5.01,8.8-4.781l0,0c-1.157-1.366-1.39-2.506-1.157-3.416c3.801-1.247,11.159-3.365,11.159-7.071
			c0-3.704-8.703-43.559-8.703-43.559c4.563-0.944,10.133-6.184,10.133-6.184c0.463-2.278-6.801-18.105-6.801-18.561
			c-2.083,4.555-4.862,7.97-8.336,10.701c-4.168,3.189-8.569,4.555-12.969,4.329c-11.117,0-19.917-4.783-26.863-14.121
			c-8.107-14.345-8.071-20.85-4.911-31.417c2.717-9.083,9.25-14.419,14.405-17.54c5.156-3.12,15.393-6.83,20.914-8.642
			C361.089,125.546,344.343,109.594,343.649,108.682z"/>
		<path fill="#141111" d="M367.271,248.273c4.169-0.456,7.181-2.05,9.032-5.239c1.852-3.415,0.926-5.69-2.549-7.057
			c-5.094,5.919-11.344,8.143-21.996,4.499c0,0,1.229,5.474,5.091,6.887C360.712,248.773,364.953,248.501,367.271,248.273z"/>
		<path fill="#141111" d="M282.973,208.423c-0.464-0.91-2.719-2.979-4.792-2.341c-2.07,0.64-3.314,2.341-3.777,4.391
			c-0.229,2.049,0.078,3.481,0.928,5.691c0.851,2.211,2.658,4.963,4.633,6.148c1.972,1.19,5.776,2.613,7.588,1.901
			c1.812-0.712,0.98-4.177,0.285-5.314c-0.464-0.684-1.39-1.596-3.011-2.962c-1.62-1.139-2.547-2.277-2.779-2.959
			C281.351,211.611,281.584,210.016,282.973,208.423z"/>
		<path fill="#141111" d="M320.027,235.978c-0.764-0.654-3.384,7.592-3.035,9.48c0.351,1.889,2.855,2.672,3.961,0.992
			C322.061,244.771,320.789,236.629,320.027,235.978z"/>
		<path fill="#141111" d="M311.23,239.79c-0.175,2.747,3.144,3.434,4.191,1.201c1.049-2.233,0.524-9.961-2.573-11.847
			C312.848,229.144,311.402,237.04,311.23,239.79z"/>
		<path fill="#141111" d="M304.975,229.372c-0.463,3.643,0.926,5.92,4.4,6.605c1.621-4.554,1.139-10.082-1.641-16.458
			L304.975,229.372z"/>
		<path fill="#E3AD92" d="M343.649,108.682c-1.158-1.593-2.548-2.732-4.169-3.415c-2.779-1.366-74.006,19.923-74.932,19.923
			c-3.442,9.261-3.345,23.116-2.649,26.987l4.822-10.78c1.087,2.672,0.727,8.192-0.181,11.398
			c-0.906,3.205-2.094,11.149-1.631,12.289c1.39-0.912,3.61-6.15,6.159-11.756c0.694,2.279,1.314,5.348,1.019,8.642
			c-0.294,3.291-1.2,7.032-1.926,9.525l3.624,6.057c0.18-5.343,1.776-9.207,1.776-9.207c-1.159-3.871-1.621-7.971-1.621-11.841
			c-0.231-5.694,0.462-11.158,1.39-16.167c1.159-5.012,3.937-7.971,8.569-9.338c6.946-2.049,14.358-3.872,21.768-5.466
			c9.959-2.049,19.916-4.553,29.411-7.742C338.553,116.88,342.976,112.723,343.649,108.682z"/>
		<path fill="#F0CA00" d="M440.914,123.94c-14.687,6.179-24.41,21.186-22.278,32.791c2.571,2.929,5.316,4.427,5.316,4.427
			C429.312,143.285,440.45,124.168,440.914,123.94z"/>
		<path fill="#F0CA00" d="M415.114,164.342c-1.296,0.51-1.903,2.855-1.092,4.39c1.641,1.02,5.257,1.148,6.05-1.753
			C420.072,166.978,417.552,165.798,415.114,164.342z"/>
		<path fill="#F0CA00" d="M459.232,356.942c3.595-3.535,4.954-4.807,5.882-5.943c-6.948,4.551-38.228,11.244-52.605,16.224
			c-14.377,4.979-31.205,13.814-38.228,17.67c-7.023,3.855-19.746,12.993-26.926,19.596c-3.475,3.186-8.25,7.064-11.955,9.802
			c0,0-0.326,12.852-4.901,25.06c0,0,18.787-11.086,25.813-21.044c7.024-9.96,41.495-21.847,56.853-29.076
			C428.519,382.003,455.638,360.476,459.232,356.942z"/>
		<path fill="#F0CA00" d="M557.905,139.114c-5.065-0.642-5.394,22.973-0.818,37.43c4.575,14.458,8.822,27.632,4.411,39.678
			c-4.411,12.049-11.273,28.273-14.05,46.105c-2.777,17.831-1.228,28.351,0.164,35.18c0.925,4.556,4.899,17.992,13.958,20.904
			c1.62-2.96,4.176-7.251,5.646-11.267c-1.852-10.929-1.635-25.862,0.489-37.107c2.124-11.245,12.908-46.104,14.215-59.276
			c1.307-13.173,0.161-24.578-4.575-34.697C572.607,165.942,559.528,143.897,557.905,139.114z"/>
		<path fill="#FFEB00" d="M492.229,86.585c-21.563-10.762-44.137-6.367-60.576,3.425c-13.897,7.97-27.67,20.527-35.765,32.326
			c-8.096,11.798-13.446,27.15-12.722,37.952c0.724,10.803,2.168,15.57,4.252,23.312l5.326,18.446c0,0-3.427,4.933-9.495,8.197
			c4.401,17.078,8.242,39.9,8.106,42.127c-0.136,2.227-2.468,6.638-5.699,7.696c-0.082,2.432,5.468,17.811,5.699,19.176
			c5.559,1.366,13.553,5.311,20.501,9.409c0,0,29.022-22.744,34.813-27.526c-0.697-0.228-21.342-24.77-24.585-33.879
			c-6.252-16.852-11.459-33.948-8.609-53.988c-8.809-4.841-11.928-10.835-10.771-16.981c0,0,2.221,5.349,4.725,8.064
			c2.506,2.718,5.411,4.073,6.829,4.506c0.464-0.913,1.202-4.251,1.202-4.251s-11.285-7.329-6.059-12.31
			c1.397,6.025,6.323,9.263,9.427,9.423c0,0-12.954-13.587-8.283-20.025c0.818,2.411,2.253,9.361,8.268,15.276
			c2.549-7.287,7.544-19.873,21.302-31.822c15.685-21.525,42.15-24.738,55.872-17.349c-23.39,30.058-31.45,63.059-24.038,92.436
			c4.166,18.674,1.746,37.773-3.243,52.601c-4.988,14.83-17.385,30.759-28.254,41.674c-9.494,9.793-23.391,21.405-41.222,34.842
			c-24.315,17.989-35.149,29.524-39.086,32.94c-3.012,4.327-11.631,12.83-19.041,26.945c-6.022,11.617-12.151,19.413-17.715,25.765
			c-5.563,6.352-17.486,14.088-21.655,16.139c-9.03,4.554-17.831,5.465-26.4,2.961l4.862,7.968
			c9.728,0.228,19.685-2.733,30.339-9.107c4.399-2.734,21.599-13.201,26.009-17.538c4.412-4.338,21.075-17.67,28.59-22.811
			c7.516-5.141,20.432-11.286,29.003-15.442c8.571-4.156,30.953-9.938,37.978-12.026c7.026-2.089,24.343-9.155,28.754-11.566
			c-14.59,11.843-34.077,24.733-50.521,33.612c-1.39,0.684-2.546,1.14-3.937,1.82c-8.799,3.416-17.138,7.517-25.243,12.3
			c-5.557,3.415-10.643,4.961-16.441,10.02c-5.8,5.058-6.087,10.809-11.58,16.849c-5.492,6.04-26.4,20.04-34.041,28.694
			c-10.421,12.064-19.482,32.768-17.193,42.405c1.96,1.927,5.88,3.374,5.88,3.374c1.39-10.248,6.861-23.454,12.743-31.005
			c5.882-7.549,11.767-12.957,22.191-19.558c13.895-9.106,19.632-11.767,26.002-16.585c6.372-4.82,13.599-14.386,17.07-22.127
			c0.697,3.645-0.247,11.932-7.921,23.571c-7.674,11.641-24.995,32.609-33.327,54.779c-8.332,22.167-14.213,56.705-7.846,62.151
			c4.578-35.325,29.411-66.495,40.296-80.839c0,0-0.431,14.03,3.49,16.921c2.94-6.104,9.516-15.101,11.6-15.101
			c-2.777,6.265-10.456,19.597-14.05,28.272c-3.594,8.675-6.861,17.831-2.777,21.847c1.852-4.554,7.392-18.179,9.476-18.635
			c-6.861,18.152-9.803,39.839-8.657,48.995c1.156,2.961,5.034,5.917,7.35,5.461c0-13.974,4.736-34.374,11.435-52.525
			c6.698-18.151,16.175-38.875,27.061-44.572c-8.273,12.444-16.1,31.036-17.259,34.452c14.213-17.189,23.362-22.973,34.961-37.591
			c11.599-14.617,21.278-30.862,26.14-42.247c1.632,3.855-0.604,11.896-3.432,17.189c-13.559,25.38-31.593,42.021-42.262,52.334
			c-10.67,10.315-18.296,21.406-21.308,27.101c-6.021,11.157-6.775,23.766-2.316,31.881c4.949,9.001,11.484,13.017,19.162,10.286
			c-5.063-5.141-8.822-11.887-9.148-23.132s3.188-20.857,13.378-32.698c3.473-3.645,19.281-18.6,30.404-31.074
			c11.123-12.476,32.021-37.429,37.901-42.733c-1.797,8.676-34.266,48.528-45.148,57.868c11.33-2.607,26.523-14.814,39.756-30.557
			c13.234-15.744,28.793-44.591,44.311-71.919c2.082-4.099,13.662-25.506,34.506-64.444c-1.622-1.821-4.156-10.622-5.463-19.78
			c-1.307-9.156-1.144-17.189-0.327-27.951c0.817-10.764,9.765-30.924,12.97-49.276c3.204-18.354-2.78-44.178-3.938-47.364
			c-3.241-9.337-5.111-22.394-5.56-32.108c-1.156-2.732-1.85-5.01-2.545-7.286c12.737,17.533,22.471,32.341,26.863,43.948
			c4.392,11.607,4.631,22.543,3.011,35.524c-1.159,7.06-3.937,18.445-8.569,35.067c-4.167,14.803-6.756,24.414-7.179,34.84
			c-0.515,12.679,0.792,29.215,7.49,35.651c7.188,6.907,13.725,3.053,16.665,0c-3.268-1.446-12.178-3.359-14.703-18.635
			c-2.123-12.852,4.589-28.517,7.685-39.56c3.097-11.043,6.526-22.769,8.324-35.299c0.848-5.913,1.775-19.001,0.489-29.878
			c-1.44-12.173-5.465-22.436-11.763-34.057c-9.043-16.689-19.604-27.791-26.139-40.643c-5.031-9.896-14.866-24.096-24.668-30.682
			C524.412,84.338,510.854,80.481,492.229,86.585z M502.284,128.039c0.927-1.141,2.084-1.594,3.242-1.594
			c-3.939,11.84-5.558,23.91-5.327,36.435c0.232,2.505-0.461,28.236,0.928,38.713c0.461,5.008,0.926,9.79,1.157,14.801
			c0.695,14.802-0.464,29.146-3.243,43.037c-2.315,11.159-6.252,21.634-11.809,31.426c-5.79,9.108-11.685,15.564-17.623,20.962
			c-5.938,5.397-16.285,12.563-23.033,16.545c-6.748,3.981-30.862,14.154-35.9,14.597c8.568-5.014,38.509-24.152,48.317-35.123
			c9.807-10.971,17.183-19.021,21.323-27.87c4.139-8.847,8.189-20.35,9.537-28.929c1.35-8.582-0.359-37.07-1.928-41.704
			c-0.462,3.187-0.693,5.921-0.926,8.426l-2.547,14.802c0.465-7.287,0.926-16.624,0.926-28.237c-0.231-13.663,0-22.772,0-27.1
			c0.927-20.947,5.79-38.027,14.127-51.919c-3.011,6.148-5.79,12.525-7.874,19.356C494.179,138.514,497.653,133.048,502.284,128.039
			z"/>
		<path fill="#141111" d="M487.925,159.918c0.926-5.236,2.317-10.475,3.706-15.256c2.084-6.831,4.863-13.208,7.874-19.356
			c-8.337,13.892-14.734,30.117-15.661,51.065c0,4.326,0.32,14.318,0.551,27.982c0,11.613,0.522,20.921,0.058,28.208l2.547-14.802
			c0.233-2.505,0.464-5.238,0.926-8.426c0.926-6.832,3.684-15.382,6.693-25.628c4.398-14.574,8.819-34.47,8.232-44.484
			l-15.852,58.727c-0.694-5.012-1.644-12.202-1.585-15.334C485.414,175.327,486.537,167.434,487.925,159.918z"/>
		<path fill="#F0CA00" d="M501.818,143.542c1.35-8.05,4.994-15.25,6.748-20.524c-5.183,0-14.397,13.978-16.376,19.994
			c-1.979,6.016-3.34,11.67-4.266,16.906c-1.388,7.516-1.672,15.918-1.943,22.907c-0.269,6.989,0.361,11.502,1.017,15.123
			l11.76-47.77c-0.72,7.698-3.064,21.655-4.857,28.843c-1.794,7.188-5.051,23.481-5.977,30.313
			c0.218,14.012-0.23,35.751-3.705,50.097c-2.315,9.337-6.251,17.989-11.348,25.731c-4.398,6.605-9.285,13.319-18.379,22.764
			c-9.097,9.444-28.794,26.098-46.927,36.218c6.347,2.002,21.013-4.015,29.649-8.438c8.639-4.424,19.624-10.335,29.604-19.11
			c7.647-6.725,14.126-13.624,20.063-23.445c5.94-9.82,10.347-19.554,12.866-32.646c2.52-13.095,3.845-29.258,3.149-44.059
			c-0.232-5.012-0.898-13.98-1.35-20.704c-0.448-6.724-1.118-30.356-1.35-32.861C500.07,155.936,500.729,150.247,501.818,143.542z"
			/>
		<path fill="#F0CA00" d="M429.336,220.491c-8.508-11.77-12.063-29.229-10.768-45.363c0,0-3.885-0.85-5.785-2.293
			c0,0.227-0.123,2.568-0.355,3.024c-3.241,17.763-1.851,35.295,4.4,52.147c3.243,9.108,13.868,24.121,22.124,30.825
			c-5.564,11.471-20.997,24.175-28.609,29.064l16.907,11.385c30.363-30.215,34.273-51.008,34.507-51.236
			C450.64,243.72,437.843,232.263,429.336,220.491z"/>
		<path fill="#123F7F" d="M361.943,304.293c0-0.23,0.233-0.458,0.464-0.685c-0.23-0.228-0.23-0.228-0.464-0.228
			c-6.715,5.008-14.821,8.197-24.084,10.021c-8.801,1.594-17.6,1.365-26.863-0.458c-0.232,0.912-0.695,1.597-1.159,2.277
			l-4.862,8.428c-0.232,0.454-0.463,0.91-0.926,1.366c5.326,0,10.419-0.227,15.745-0.456c4.864-0.456,9.729-1.367,14.592-2.732
			c5.558-1.821,10.883-3.871,15.747-6.605C354.997,312.716,358.933,309.075,361.943,304.293z"/>
		<path fill="#005EA3" d="M362.407,303.608c-0.23,0.227-0.464,0.455-0.464,0.685c-3.011,4.782-6.946,8.423-11.811,10.928
			c-4.864,2.734-10.189,4.784-15.747,6.605c-4.863,1.365-9.728,2.276-14.592,2.732c-5.326,0.229-10.419,0.456-15.745,0.456
			c0.463-0.456,0.693-0.912,0.926-1.366c-8.106,14.573-13.664,29.375-16.906,44.405c-2.779,14.571-3.195,28.842-1.11,41.821
			c0,0,9.152,0,21.714-8.645c12.56-8.647,35.172-37.94,42.709-45.526c7.536-7.587,60.793-54.241,64.962-54.7
			c-4.864-5.008-13.509-8.266-22.309-11.227c0,0,0.873,14.085-1.573,18.38c-2.445,4.295-8.273,5.871-15.928,3.194
			C368.879,308.672,364.028,304.063,362.407,303.608z"/>
		<path fill="#123F7F" d="M414.822,299.74c-1.746-1.03-57.013,40.355-71.173,58.747c-14.162,18.392-25.945,32.877-35.666,39.398
			c-9.719,6.52-20.147,8.421-21.536,8.881c0.869,8.049,3.84,19.632,4.998,23.048c9.151-1.765,20.995-8.999,29.787-19.939
			c8.794-10.94,24.586-39.363,37.165-53.448c12.577-14.085,23-22.077,35.042-30.729c11.579-8.426,21.648-16.42,26.974-20.977
			C419.256,302.674,416.569,300.77,414.822,299.74z"/>
		<path fill="#F1D7C7" d="M338.553,167.434c-0.464,2.505-5.095,5.238-5.557,5.466c0.231,0,0.231,0,0.231,0l21.306-7.971
			c8.569-3.188,15.054-6.604,19.918-10.247c-1.854-4.553-4.849-6.694-8.291-9.901c-3.44-3.205-9.235-6.411-18.112-1.603
			C339.172,147.987,339.711,157.869,338.553,167.434z"/>
	</g>
	<g>
		<path fill-rule="evenodd" clip-rule="evenodd" fill="#FF0000" d="M390.678,82.843c0,0-15.211-8.494-24.225-22.526
			c-6.906-10.755-5.935-25.438,7.7-30.284c15.586-5.54,21.407,11.08,21.407,11.08s8.677-16.598,23.284-9.417
			c15.025,7.385,7.7,26.405-3.003,36.746C406.945,77.033,390.678,82.843,390.678,82.843z"/>
		<path d="M390.44,85.624l-1.033-0.579c-0.645-0.359-15.879-8.973-25.133-23.376c-4.514-7.028-5.803-15.257-3.446-22.011
			c1.975-5.663,6.28-9.814,12.449-12.009c2.392-0.849,4.736-1.28,6.969-1.28c8.218,0,13.14,5.563,15.65,9.661
			c2.935-3.7,8.265-8.669,15.733-8.669c2.759,0,5.574,0.696,8.367,2.069c5.458,2.682,8.814,7.03,9.703,12.573
			c1.592,9.931-4.906,21.34-12.053,28.246c-9.19,8.876-25.402,14.732-26.09,14.977L390.44,85.624L390.44,85.624z M380.245,31.437
			c-1.633,0-3.389,0.33-5.217,0.98c-4.65,1.651-7.876,4.726-9.326,8.887c-1.827,5.235-0.704,12.002,2.929,17.66
			c7.252,11.289,18.82,18.934,22.3,21.07c3.768-1.468,16.037-6.573,23.104-13.401c6.004-5.8,11.874-15.734,10.574-23.84
			c-0.628-3.913-2.957-6.885-6.918-8.831c-2.07-1.02-4.11-1.536-6.063-1.536c-8.533,0-13.727,9.746-13.776,9.844l-2.763,5.283
			l-1.967-5.617C392.973,41.516,389.276,31.437,380.245,31.437L380.245,31.437z"/>
	</g>
</g>
</svg>
