<?xml version="1.0" encoding="utf-8"?>
<!-- Generator: Adobe Illustrator 17.0.0, SVG Export Plug-In . SVG Version: 6.00 Build 0)  -->
<!DOCTYPE svg PUBLIC "-//W3C//DTD SVG 1.1//EN" "http://www.w3.org/Graphics/SVG/1.1/DTD/svg11.dtd">
<svg version="1.1" id="Layer_1" xmlns="http://www.w3.org/2000/svg" xmlns:xlink="http://www.w3.org/1999/xlink" x="0px" y="0px"
	 width="800px" height="600px" viewBox="0 0 800 600" enable-background="new 0 0 800 600" xml:space="preserve">
<g>
	<path d="M514.72,236.506c-18.532-30.888-55.596-64.244-130.344-57.451c-56.32,5.121-100.073,37.682-116.339,92.207
		c-13.982,46.869-2.932,98.533,27.501,132.538c38.8,43.355,100.414,53.136,155.554,34.087
		c34.443-11.897,64.122-39.531,78.717-85.214C544.213,307.584,535.899,271.802,514.72,236.506z"/>
	<path fill="#CCEBE8" d="M405.381,187.085c4.154-0.121,8.334,0.023,12.511,0.397c-0.257,7.177-1.558,14.141-3.592,21.219
		c-2.749,9.57-7.551,27.133-19.212,29.734c-11.98,2.677-12.052-18.136-14.099-25.297c-1.171-4.094-3.252-8.042-7.128-10.057
		c-1.917-0.995-4.203-1.194-6.306-1.483c-4.355-0.598-6.81-4.524-7.927-8.557C373.171,189.433,388.292,187.58,405.381,187.085z"/>
	<path fill="#B0DBD6" d="M388.555,213.02c-0.837-3.973-1.889-8.531-4.889-11.496c-3.151-3.11-6.602-3.541-10.598-4.853
		c-3.475-1.138-5.418-2.936-6.14-5.352c-2.477,0.527-4.923,1.088-7.3,1.723c1.117,4.032,3.572,7.959,7.927,8.557
		c2.102,0.289,4.389,0.488,6.306,1.483c3.876,2.015,5.957,5.963,7.128,10.057c2.047,7.161,2.118,27.974,14.099,25.297
		c0.802-0.179,1.566-0.434,2.306-0.747C391.711,231.829,390.569,222.609,388.555,213.02z"/>
	<path fill="#5C9CE3" d="M290.182,375.202c-10.84-20.06-18.396-45.818-18.316-69.387c1.536,1.344,4.927,5.631,5.913,12.392
		c0.903,6.186,3.112,16.77,7.454,26.267c3.826,8.372,8.673,15.671,14.984,22.518c4.022,4.359,8.52,4.68,11.895,3.977
		c4.605-0.961,9.79-4.033,10.905,2.222c1.186,6.632-3.2,15.122-4.277,21.48c-0.913,5.374,1.367,10.15,5.925,13.109
		c5.921,3.843,14.472,1.661,20.658,4.711c4.128,2.034,7.648,10.765,7.929,14.565C325.291,417.8,303.904,400.592,290.182,375.202z"/>
	<path fill="#99C961" d="M359.189,429.089c-2.618-6.385-4.774-13.286-10.047-17.861c-4.826-4.188-12.428-3.685-18.292-4.939
		c-18.03-3.856-0.894-23.963-4.647-34.931c-1.544-4.521-5.635-5.786-9.676-4.423c-3.225,1.089-8.766,2.947-13.822-1.152
		c-4.736-3.837-9.723-12.291-12.572-17.531c-5.254-9.66-7.923-20.589-9.701-31.424c-1.242-7.577-3.456-13.633-8.063-18.624
		c1.958-18.897,9.657-40.337,21.2-57.375c9.127-13.475,17.295-22.323,28.833-30.284c7.555,3.375,18.725,0.732,25.489,5.772
		c5.656,4.217,8.666,13.689,10.173,20.187c0.801,3.442,1.281,7.605-0.548,10.806c-1.477,2.584-5.49,2.601-7.428,0.769
		c-3.377-3.197-4.797-10.132-6.299-14.382c-3.3-9.335-14.781-6.912-18.505,0.366c-2.763,5.396-1.165,13.088,1.229,18.45
		c3.726,8.354,7.87,9.405,12.669,11.52c3.157,1.389,8.479,8.954,11.783,13.843c0.576,0.854,1.653,1.637,2.724-3.431
		c0.657-3.115-0.346-8.574,1.42-11.483c4.732-7.814,21.132-1.891,21.317-2.001c0.128,5.268,3.003,10.665,5.477,15.202
		c1.574,2.885,5.062,5.429,6.114,8.58c1.837,5.501-7.246,9.3-13.403,9.892c-2.549,0.245-4.256,1.422-5.204,3.493
		c-1.139,2.494-1.056,5.599-3.99,9.693c-4.273,5.963-15.456,6.193-25.582,6.397c-9.859,0.199-17.936,12.976-17.924,22.282
		c-4.802-8.096-13.683-20.27-20.432-14.35c-13.343,11.703-2.084,33.886,10.819,41.33c3.459-2.307,7.439-5.763,10.754-5.763
		c1.917,0,1.344,1.917,1.344,6.146c-0.003,3.039,2.043,5.096,4.031,5.375c2.035,0.288,4.767-0.918,6.719-1.535
		c7.296-2.303,14.863-0.223,18.621,0.767c3.724,0.984,10.975,2.941,14.613,4.222c4.931,1.739,7.314,9.568,10.009,13.554
		c5.163,7.643,8.508,14.163,4.338,23.098c-2.781,5.954-9.639,14.781-11.165,22.919C367.39,431.4,363.257,430.34,359.189,429.089z"/>
	<path fill="#5C9CE3" d="M458.547,420.842c-7.493,3.561-15.86,6.302-24.752,9.015c-18.439,5.63-36.636,6.901-55.759,3.679
		c-0.808-3.344,0.003-8.37,2.677-13.094c2.9-5.128,5.888-11.672,6.114-17.785c0.275-7.423-3.517-12.548-7.557-18.384
		c-2.789-4.028-5.108-10.619-7.148-11.846c-5.005-3.002-15.253-4.661-20.836-6.128c-7.414-1.948-11.254-2.488-18.381,0.613
		c-11.061,4.811-4.668-10.728-7.891-11.455c-4.561-1.029-9.172,3.016-12.458,5.494c-6.397-4.19-11.235-10.402-13.478-17.596
		c-1.79-5.742-1.603-17.7,5.015-20.693c6.295-2.849,17.504,15.807,18.461,17.72c0.384,0.768,0.804,0.408,0.709-0.355
		c-1.344-10.942,7.05-24.707,16.691-24.74c9.643-0.038,17.196-0.554,22.516-3.546c2.781-1.563,4.625-3.719,5.728-6.701
		c1.212-3.279,1.309-6.745,3.496-8.482c2.778-2.21,4.755-0.508,10.691-3.279c4.479-2.091,8.844-5.771,6.414-10.678
		c-1.866-3.755-4.496-7.063-6.428-10.794c-2.128-4.112-3.323-8.716-4.357-13.206c-3.507-0.904-14.45-1.097-18.291-0.135
		c-3.424,0.855-5.359,2.306-6.688,5.705c-1.493,3.815-0.12,7.257-1.653,10.881c-4.244-5.168-6.879-11.261-13.764-14.214
		c-6.883-2.95-10.011-9.8-10.734-18.205c-0.448-5.224,1.574-9.206,6.543-11.193c2.888-1.156,5.411-0.504,7.212,1.98
		c3.985,5.496,3.458,18.821,12.75,18.611c12.209-0.275,7.032-17.846,4.514-24.232c-1.965-4.991-4.868-10.617-9.292-13.87
		c-6.357-4.676-15.306-3.865-22.914-5.898c9.638-6.43,20.256-11.173,32.117-14.508c0.459,4.777,2.976,9.162,8.007,10.583
		c4.118,1.164,7.601,0.807,10.306,4.828c2.171,3.227,2.881,7.571,3.659,11.306c1.935,9.253,4.366,23.91,17.396,20.064
		c10.177-3.006,16.477-17.265,19.763-26.133c2.395-6.451,4.066-13.292,5.095-20.094c0.268-1.765,0.686-3.927,0.764-6.028
		c18.35,2.489,36.431,9.602,51.945,20.353c-17.351,5.591-29.82,39.53-6.455,39.933c0.859,0.016,2.665-8.729,2.667-10.238
		c0.002-1.512,3.284-8.258,5.878-9.254c2.881,2.98,1.739,8.335,3.564,12.048c0.708,1.438,2.018,3.183,3.109,3.306
		c0,2.939-1.064,7.211-2.467,10.043c-3.579,0.754-7.184,1.304-10.7,2.328c-0.682-1.52-2.051-3.826-2.986-5.027
		c-1.334,0.801-3.688,4.764-4.179,7.282c-2.742,0.163-16.27,3.053-19.809,4.822c-2.146,1.069-4.007,3.01-4.165,5.508
		c-0.292,4.553,7.592,7.983,4.785,12.433c-3.472,1.6-13.376,3.71-15.875,5.294c-0.517,0.326-0.674,1.374-0.16,1.638
		c5.849,3.03,12.19,13.674,12.59,13.652c2.403-0.133,10.635-1.6,10.621-2.043c-0.102-3.401-0.41-6.743-0.972-10.368
		c1.992-2.091,9.975-5.383,14.247-6.584c1.202,2.27,6.521,14.566,4.385,20.974c-0.315,0.942-0.393,1.318,0.533,1.202
		c3.204-0.399,10.265-2.463,10.777-7.075c0.545-4.868-4.151-10.507-5.704-14.82c4.94-3.07,7.21,5.607,8.68,10.014
		c1.447,4.348,5.339,10.148,8.276,10.683c0.504,0.092,10.25-2.88,14.217-2.573c0.604,3.241,0.731,8.716,0.733,9.516
		c0.003,0.803-17.24,7.022-26.775,6.442c-7.089-0.434-19.761-0.905-18.389-10.931c0.13-0.958-0.536-1.781-1.528-1.752
		c-4.298,0.119-15.151,0.876-18.059,1.3c-2.907,0.425-12.978,8.529-20.415,16.264c-4.954,5.157-11.091,12.979-9.622,16.448
		c3.447,8.149,7.902,21.327,14.753,26.527c1.124,0.853,6.303,0.929,11.791,1.632c8.833,1.132,19.27,2.83,20.943,4.098
		c2.711,2.056,4.714,6.477,5.742,14.4C466.568,399.299,461.259,414.528,458.547,420.842z"/>
	<path fill="#2279D9" d="M333.742,410.327c-3.255-0.316-6.429-0.829-9.077-2.547c-2.965-1.926-4.944-4.628-5.73-7.756
		c-27.335-22.051-46.444-55.854-43.779-89.788c-1.201-2.218-2.495-3.724-3.291-4.421c-0.079,23.568,7.477,49.327,18.316,69.387
		c13.723,25.39,35.109,42.598,63.07,51.855c-0.15-2.038-1.236-5.488-2.843-8.567C344.713,416.264,339.132,413.523,333.742,410.327z"
		/>
	<path fill="#2279D9" d="M433.484,418.134c-16.318,7.337-36.944,11.999-54.668,6.603c-1.1,3.302-1.346,6.462-0.78,8.799
		c19.123,3.223,37.319,1.951,55.759-3.679c8.892-2.713,17.259-5.454,24.752-9.015c2.343-5.455,6.613-17.561,6.582-29.637
		C458.331,403.207,446.001,412.507,433.484,418.134z"/>
	<path fill="#2279D9" d="M464.439,283.172c-4.272,1.201-12.255,4.493-14.247,6.584c0.121,0.786,0.227,1.552,0.325,2.316
		c4.786-2.32,10.509-4.231,15.897-4.336C465.59,285.564,464.814,283.88,464.439,283.172z"/>
	<path fill="#2279D9" d="M474.431,283.452c1.254,3.479,4.549,7.822,5.49,11.928c1.694,3.077,3.089,6.469,6.219,8.894
		c5.835,4.517,13.917,2.81,19.831,6.962c0.044,0.03,0.078,0.065,0.121,0.098c0.156-0.104,0.245-0.188,0.245-0.242
		c-0.003-0.8-0.13-6.274-0.733-9.516c-3.967-0.307-13.713,2.665-14.217,2.573c-2.938-0.534-6.829-6.335-8.276-10.683
		C481.641,289.06,479.371,280.382,474.431,283.452z"/>
	<path fill="#2279D9" d="M469.52,245.473c3.651-0.023,7.107-2.988,10.569-5.307c-1.387-3.657-0.553-8.531-3.253-11.325
		c-2.594,0.996-5.876,7.742-5.878,9.254C470.957,239.035,470.257,242.783,469.52,245.473z"/>
	<path fill="#2279D9" d="M428.475,188.977c-1.888-0.354-3.777-0.672-5.673-0.929c-0.077,2.102-0.496,4.264-0.764,6.028
		c-1.028,6.802-2.7,13.643-5.095,20.094c-2.641,7.129-7.236,17.73-14.222,23.182C419.12,236.278,426.423,208.773,428.475,188.977z"
		/>
	<path fill="#2279D9" d="M440.025,239.42c-2.105-7.003-7.109-0.707-8.294,3.409c-0.617,2.145-1.35,4.574-3.086,6.124
		c-1.481,1.324-3.995,0.968-5.287,2.349c-2.526,2.704-4.145,5.622-4.616,9.199C429.947,271.15,443.153,249.812,440.025,239.42z"/>
	<path fill="#2279D9" d="M391.642,286.507c9.565,5.322,12.151-13.162,12.19-18.775c0.085-12.328-7.273-22.319-19.688-24.063
		c-3.862,5.162-1.791,16.719-0.831,22.203c0.521,2.971,1.182,7.487,2.483,11.617c1.067,1.666,2.122,3.337,3.003,5.11
		c0.353,0.712,0.548,1.397,0.633,2.055C390.092,285.409,390.819,286.049,391.642,286.507z"/>
	<path fill="#2279D9" d="M394.734,402.168c4.505,4.543,12.665,7.251,18.657,3.785c8.775-5.073,10.959-16.426,6.835-25.088
		c-7.504,9.749-21.607,16.514-30.342,8.121C390.193,393.801,391.39,398.796,394.734,402.168z"/>
	<path fill="#2279D9" d="M343.08,327.34c2.035,9.88,8.085,18.907,17.064,23.831c10.6,5.81,28.469,6.742,37.476-2.75
		c2.597-2.738,4.382-5.901,5.029-9.652c1.186-6.862-1.461-5.116-5.883-3.205c-6.553,2.831-14.042,5.214-21.275,5.004
		c-11.993-0.349-20.932-6.009-26.003-16.512c-1.294-2.396-2.774-4.826-4.787-6.564C340.673,314.013,342.788,325.924,343.08,327.34z"
		/>
	<path fill="#2279D9" d="M362.895,231.902c-0.792-5.993-4.34-11.528-8.427-15.858c-5.155-5.46-12.305-11.263-20.016-13.23
		c-3.004,1.604-5.929,3.329-8.757,5.216c7.608,2.033,16.558,1.223,22.914,5.898c4.424,3.253,7.327,8.879,9.292,13.87
		c1.168,2.963,2.905,8.331,3.217,13.265C362.639,238.708,363.37,235.496,362.895,231.902z"/>
	<path fill="#2279D9" d="M343.114,239.025c-0.688-2.151-1.423-4.152-2.476-5.606c-1.801-2.484-4.324-3.137-7.212-1.98
		c-4.969,1.987-6.991,5.97-6.543,11.193c0.161,1.868,0.448,3.652,0.861,5.341c0.204-2.114,0.783-4.175,1.849-6.106
		C333.203,235.328,338.497,236.158,343.114,239.025z"/>
	<path fill="#99C961" d="M513.525,360.816c-11.6,27.589-27.014,45.335-48.467,57.092c0.114-0.304,3.432-14.417,3.521-22.392
		c0.084-7.754-2.648-20.571-7.815-25.132c-3.474-3.064-23.523-5.441-32.735-5.441c-1.331,0-6.301-5.685-9.235-12.228
		c-2.936-6.543-6.571-14.557-6.155-16.222c1.174-4.692,5.892-9.8,9.068-13.31c3.015-3.33,15.864-14.521,19.386-15.39
		c1.159-0.287,14.319-1.132,18.118-1.289c-0.255,7.632,3.368,10.809,11.712,12.327c4.677,0.851,10.478,1.181,15.2,0.548
		c7.361-0.988,17.013-3.216,21.953-5.887c1.397-0.754,0-14.951-0.587-14.99c-5.803-0.382-11.344,1.078-16.742,2.789
		c-3.751-3.275-5.863-8.766-7.762-13.612c-2.546-6.495-7.088-8.633-10.568-4.904c0.279,0.943,4.044,9.259,5.351,12.961
		c1.341,3.787-2.901,5.636-6.176,6.733c1.459-6.787-5.069-20.573-5.841-20.62c-3.092-0.175-18.139,6.397-17.757,7.479
		c0.801,2.268,1.353,6.578,1.869,9.612c-2.522,0.582-6.025,1.033-8.54,1.688c-2.674-4.903-6.853-8.479-10.606-12.54
		c1.963-0.992,11.937-4.236,14.206-4.902c6.628-4.847-8.512-14.557-0.297-18.601c3.69-1.815,18.755-4.229,20.224-4.495
		c0.267-2.135,1.038-4.148,2.063-4.986c0.505,1.099,2.282,4.491,3.016,4.272c3.978-1.179,8.133-2.18,12.249-2.632
		c2.131-3.148,3.252-10.711,3.336-13.75c-7.161-2.7-2.197-12.97-8.111-17.023c-3.636,0.6-8.176,9.679-8.176,11.016
		c0,2.552-0.457,10.164-1.924,10.032c-6.982-0.634-11.549-7.864-10.008-13.686c2.259-8.529,11.86-20.122,21.447-22.034
		c13.948,10.549,25.525,24.143,32.889,40.032C526.587,283.603,531.686,317.605,513.525,360.816z"/>
	<path fill="#75AB2E" d="M307.037,235.05c5.065,6.691,6.009,14.194,10.057,21.275c3.863,6.76,10.975,9.295,15.727,15.096
		c3.534,4.314,6.226,9.513,10.2,13.435c12.356,12.192,21.493-0.233,28.613-10.061c1.933-2.672,3.979-5.065,6.275-6.967
		c-0.837-2.261-1.428-4.575-1.483-6.867c-0.186,0.11-16.585-5.813-21.317,2.001c-1.766,2.909-0.763,8.368-1.42,11.483
		c-1.07,5.067-2.147,4.284-2.724,3.431c-3.304-4.889-8.626-12.454-11.783-13.843c-4.799-2.114-8.943-3.166-12.669-11.52
		c-2.394-5.362-3.991-13.054-1.229-18.45c3.724-7.278,15.205-9.701,18.505-0.366c1.502,4.25,2.922,11.185,6.299,14.382
		c1.938,1.832,5.951,1.815,7.428-0.769c1.829-3.2,1.349-7.363,0.548-10.806c-1.507-6.498-4.517-15.97-10.173-20.187
		c-6.765-5.04-17.935-2.397-25.489-5.772c-8.157,5.629-14.632,11.714-20.951,19.553C303.553,231.236,305.389,232.871,307.037,235.05
		z"/>
	<path fill="#75AB2E" d="M355.516,313.037c-7.865-1.851-16.59-3.951-22.814,0.152c-3.691,2.43-5.445,5.713-5.866,9.248
		c3.273-4.627,7.892-8.116,13.002-8.22C345.159,314.111,350.767,313.987,355.516,313.037z"/>
	<path fill="#75AB2E" d="M335.913,367.491c1.079,1.357,2.089,2.765,3.461,4.064c4.747,4.492,9.899,2.644,14.939,0.022
		c1.274-0.661,2.538-1.324,3.807-1.938c-1.65-0.45-3.177-0.859-4.351-1.169C350.143,367.516,342.969,365.556,335.913,367.491z"/>
	<path fill="#75AB2E" d="M345.609,392.138c-9.548,2.266,8.329,14.25,9.625,15.702c3,3.358,5.768,7.013,7.903,10.988
		c2.126,3.954,4.042,8.248,5.068,12.658c1.119,0.26,2.232,0.544,3.358,0.777c1.526-8.138,8.384-16.965,11.165-22.919
		c2.2-4.715,2.295-8.758,1.148-12.647C371.509,392.681,359.125,390.306,345.609,392.138z"/>
	<path fill="#75AB2E" d="M467.302,247.019c0.065,0.006,0.127-0.021,0.188-0.045c-0.101-0.01-0.202-0.01-0.303-0.022
		c-6.341-0.78-7.623-8.593-5.74-13.657c3.446-9.262,11.801-14.845,19.84-19.98c-0.844-0.675-1.683-1.361-2.546-2.015
		c-9.587,1.912-19.189,13.505-21.447,22.034C455.753,239.154,460.32,246.385,467.302,247.019z"/>
	<path fill="#75AB2E" d="M488.095,239.349c-1.372,0.818-2.842,1.713-4.377,2.593c0.499,0.412,1.072,0.779,1.795,1.053
		c-0.084,3.039-1.205,10.602-3.336,13.75c-4.116,0.452-8.272,1.453-12.249,2.632c-0.733,0.219-2.511-3.174-3.016-4.272
		c-1.024,0.838-1.796,2.852-2.063,4.986c-1.469,0.266-16.533,2.68-20.224,4.495c-4.5,2.216-1.991,6.132,0.108,10.019
		c11.999-4.398,25.354-5.424,36.286-12.111c9.418-5.763,16.741-14.156,25.315-21.023c-2.064-3.381-4.345-6.618-6.779-9.737
		C495.795,234.355,492.042,236.995,488.095,239.349z"/>
	<path fill="#75AB2E" d="M471.576,414.004c-0.099-5.061,0.272-10.26-0.071-15.345c-0.342-5.073-1.57-9.707-4.054-13.547
		c0.775,3.711,1.161,7.431,1.129,10.404c-0.09,7.975-3.407,22.088-3.521,22.392C467.302,416.68,469.464,415.369,471.576,414.004z"/>
	<path fill="#75AB2E" d="M489.273,399.377c9.63-10.087,17.576-22.686,24.252-38.56c4.168-9.92,7.1-19.35,8.979-28.388
		C509.977,353.771,492.922,375.379,489.273,399.377z"/>
	<path d="M435.844,238.46c-2.623,1.014-2.598,10.4-2.441,15.154c-0.843-0.985-2.499-1.938-5.156-1.121
		c-2.052,0.63-3.84,2.285-2.87,4.584c0.695,1.646,2.753,2.556,4.45,2.445c1.378-0.088,2.712-0.804,3.67-1.844
		c0.02,1.52,0.32,6.244,1.414,6.146c2.267-0.203,9.966-4.949,11.712-5.888C449.142,256.587,438.468,237.444,435.844,238.46z"/>
	<path fill="#99C961" d="M426.888,256.977c-0.745-0.837-0.715-2.281,0.994-3.275c2.12-1.24,4.541-0.108,5.022,0.821
		c0.482,0.93,0.04,2.765-1.029,3.165C430.819,258.083,427.957,258.176,426.888,256.977z"/>
	<path fill="#99C961" d="M445.244,257.639c-1.6,0.795-8.029,4.068-9.192,4.289c-2.47-4.808-1.968-20.579-0.331-21.621
		C437.357,239.263,447.247,256.641,445.244,257.639z"/>
	<path fill="#D6D461" d="M283.076,309.119c2.455,7.277,4.022,14.925,8.068,21.474c2.526-7.809,3.411-16.019,5.989-23.828
		c2.846-8.625,5.635-16.846,4.571-26.115c-1.344-11.723-6.42-22.099-13.482-31.111c-7.456,13.332-12.704,28.383-15.015,42.493
		C276.607,297.699,280.924,302.741,283.076,309.119z"/>
	<path fill="#D6D461" d="M378.392,386.247c-2.695-3.985-5.078-11.814-10.009-13.554c-1.182-0.417-2.75-0.904-4.451-1.406
		c-2.147,5.458-6.679,9.909-12.033,12.439c-3.439,1.623-8.602,3.078-11.173,6.023c-5.011,5.739,3.678,7.181,7.308,7.629
		c6.508,0.801,11.511,2.567,16.992,6.36c5.94,4.108,11.044,7.517,16.788,7.404c0.334-0.621,0.649-1.227,0.916-1.799
		C386.899,400.41,383.555,393.89,378.392,386.247z"/>
	<path fill="#D6D461" d="M340.073,406.634c-3.507-1.75-9.204-1.251-11.922-4.513c-3.135-3.762-4.095-7.943-4.575-12.281
		c-1.942,7.555-2.455,14.367,7.274,16.449c3.54,0.758,7.711,0.879,11.525,1.773C341.67,407.532,340.908,407.051,340.073,406.634z"/>
	<path fill="#D6D461" d="M459.222,308.084c-15.129-2.509-35.146,9.004-37.539,24.571c-1.878,12.228,6.768,18.824,17.34,22.095
		c8.325,2.576,16,6,24.153,9.011c11.381,4.204,22.844,5.273,33.262-2.201c7.399-5.308,14.548-12.989,17.504-21.784
		c1.704-5.071,2.826-11.868-1.626-16.048c-4.777-4.489-12.267-3.351-18.196-2.428c-6.295,0.977-11.84-0.223-17.477-1.749
		c-1.987-0.148-3.936-0.396-5.72-0.72C463.183,317.422,459.51,314.582,459.222,308.084z"/>
	<path fill="#D6D461" d="M487.868,286.22c-2.35,0.802-3.477,2.324-3.814,4.145c1.654,4.081,3.622,8.244,6.692,10.927
		c5.398-1.711,10.939-3.171,16.742-2.789c0.438,0.029,1.324,7.927,1.169,12.257c5.338,1.483,10.814,2.517,16.321,2.559
		c0.627-12.682-0.844-24.635-3.881-36.154c-4.311,2.531-8.712,4.89-13.398,6.328C501.303,285.453,494.171,284.068,487.868,286.22z"
		/>
	<path d="M402.771,327.467c-7.696,1.924-17.258,3.663-25.404,3.687c-6.759,0.023-13.301-1.951-18.408-6.45
		c-12.009-10.576-7.101-34.614,37.794-33.349c1.588,0.043-2.088-14.475-35.068-4.861c-17.471,5.094-25.951,25.022-15.393,43.138
		c4.878,8.368,14.782,13.486,24.087,15.05c11.612,1.955,28.545-2.306,34.274-10.875C406.086,331.662,405.25,326.846,402.771,327.467
		z"/>
	<path d="M399.937,267.593c0,11.845-9.601,21.446-21.447,21.446c-11.841,0-21.444-9.602-21.444-21.446
		c0-11.844,9.603-21.443,21.444-21.443C390.337,246.149,399.937,255.749,399.937,267.593z"/>
	<path d="M450.365,279.376c0-13.226-10.724-23.95-23.946-23.95c-13.225,0-23.949,10.725-23.949,23.95
		c0,9.676,5.755,17.993,14.018,21.769c-9.629,1.905-11.955,5.56-9.132,5.392c4.448-0.263,28.231,0.499,34.707,0.831
		c1.371,0.07-0.995-4.816-7.234-5.594C443.897,298.363,450.365,289.636,450.365,279.376z"/>
	<circle fill="#FFFFFF" cx="426.079" cy="278.293" r="16.585"/>
	<circle fill="#FFFFFF" cx="378.102" cy="266.685" r="15.295"/>
	<circle cx="429.125" cy="281.825" r="8.858"/>
	<path d="M390.266,270.348c0,4.108-3.331,7.438-7.438,7.438c-4.11,0-7.441-3.329-7.441-7.438c0-4.112,3.331-7.441,7.441-7.441
		C386.935,262.906,390.266,266.235,390.266,270.348z"/>
	<path fill="#FFFFFF" d="M434.857,279.22c0,1.326-1.073,2.398-2.397,2.398c-1.324,0-2.397-1.072-2.397-2.398
		c0-1.321,1.073-2.396,2.397-2.396C433.784,276.823,434.857,277.898,434.857,279.22z"/>
	<circle fill="#FFFFFF" cx="386.03" cy="268.903" r="1.882"/>
	<path d="M449.249,233.527c-6.439-8.069-13.517-13.39-23.511-11.965c-5.775,0.824-9.076,12.787-3.302,14.025
		c7.017,1.503,11.827,5.051,17.403,9.24c6.788,5.101,11.059,14.273,12.707,22.523c0.139,0.691,5.93,1.348,6.189-5.362
		C459.147,251.262,454.286,239.839,449.249,233.527z"/>
	<path d="M395.861,236.748c-16.735-1.572-31.998-5.284-45.409,15.02c-0.966,1.464,1.147,3.266,2.637,2.578
		c13.823-6.395,30.614-3.718,43.729-12.054C399.006,240.902,398.574,237.004,395.861,236.748z"/>
	<path d="M458.918,332.26c-3.815-10.501-11.588-16.366-22.515-18.159c-4.985-0.816-9.602-0.26-14.44,1.09
		c-5.073,1.409-11.144,5.295-12.765,7.533c-0.741,1.026-0.048,2.483,1.093,1.939c4.703-2.243,10.638-2.746,16.24-2.311
		c2.069,7.407,1.296,19.007-4.115,26.74c-5.276,7.537-16.031,13.521-24.742,16.236c-11.394,3.547-23.455,0.952-34.177-4.44
		c-9.936-4.999-13.66-9.642-23.765-14.281c-1.33-0.61-2.138,1.419-0.863,2.074c12.813,6.588,17.263,15.236,29.67,22.3
		c12.154,6.921,26.113,6.534,38.911,1.672c10.987-4.177,19.807-12.174,25.809-22.166c2.887-4.808,6.166-16.859,2.632-26.462
		c7.016,1.099,15.906,6.125,19.203,10.906C456.376,336.788,459.81,334.714,458.918,332.26z"/>
	<path d="M421.615,383.383c0.192-2.23-2.006-6.816-3.067-4.91c-3.862,6.957-17.395,11.597-28.02,7.585
		c-1.522-0.577-2.463,1.629-1.699,2.764c4.173,6.201,9.344,9.877,17.243,9.368C413.868,397.691,420.869,392.001,421.615,383.383z"/>
</g>
</svg>
