<?xml version="1.0" encoding="utf-8"?>
<!-- Generator: Adobe Illustrator 17.0.0, SVG Export Plug-In . SVG Version: 6.00 Build 0)  -->
<!DOCTYPE svg PUBLIC "-//W3C//DTD SVG 1.1//EN" "http://www.w3.org/Graphics/SVG/1.1/DTD/svg11.dtd">
<svg version="1.1" id="Layer_1" xmlns="http://www.w3.org/2000/svg" xmlns:xlink="http://www.w3.org/1999/xlink" x="0px" y="0px"
	 width="800px" height="600px" viewBox="0 0 800 600" enable-background="new 0 0 800 600" xml:space="preserve">
<g>
	<g>
		<path fill="#1D1D1B" d="M371.654,172.881c1.742-1.428,2.312-2.876,1.324-4.959c-1.924-4.058-5.793-4.231-5.831-9.54
			c-0.052-7.169,5.983-7.486,11.742-8.128c6.797-0.757,13.676-0.797,20.507-0.807c6.849-0.01,13.686,0.169,20.505,0.842
			c5.935,0.586,11.457,1.05,11.637,8.093c0.121,4.715-3.621,5.993-6.017,9.371c-1.45,2.044-0.204,3.952,1.421,5.322
			c0.628,0.53,1.464-0.285,0.906-0.906c-3.793-4.224,4.59-6.795,5.321-10.279c0.579-2.76,0.706-7.058-1.151-9.448
			c-2-2.573-5.352-3.18-8.421-3.587c-8.036-1.068-16.104-1.277-24.201-1.289c-7.476-0.011-14.929,0.204-22.357,1.086
			c-3.114,0.37-7.76,0.676-9.891,3.439c-1.813,2.352-2.178,6.248-1.53,9.079c0.878,3.834,9.359,6.791,5.519,11.193
			C370.819,172.723,371.29,173.179,371.654,172.881L371.654,172.881z"/>
	</g>
	<g>
		<path fill="#1D1D1B" d="M430.732,151.288c-0.277,2.213-0.155,4.473-0.177,6.7c-0.021,2.061-0.579,4.343,0.441,6.2
			c0.166,0.302,0.629,0.297,0.796,0c1.027-1.824,0.605-4.157,0.604-6.2c-0.001-2.344-0.092-4.699-1.052-6.865
			C431.195,150.786,430.767,151.008,430.732,151.288L430.732,151.288z"/>
	</g>
	<g>
		<path fill="#1D1D1B" d="M367.444,151.122c-0.831,1.874-0.993,3.85-1.042,5.884c-0.055,2.26-0.542,5.162,0.594,7.181
			c0.167,0.297,0.63,0.302,0.796,0c0.89-1.621,0.509-3.403,0.461-5.214c-0.068-2.554,0.121-5.148-0.197-7.686
			C368.02,151.008,367.593,150.786,367.444,151.122L367.444,151.122z"/>
	</g>
	<g>
		<path fill="#1D1D1B" d="M368.959,165.324c9.743,2.406,20.485,1.165,30.435,1.263c5.65,0.056,11.307,0.019,16.957-0.012
			c4.229-0.023,9.542,0.593,13.536-1.04c0.478-0.196,0.66-1.054,0-1.16c-3.853-0.62-8.088,0.087-11.988,0.133
			c-5.698,0.066-11.398-0.047-17.096-0.014c-10.58,0.06-21.164-0.059-31.743,0.079C368.634,164.577,368.532,165.219,368.959,165.324
			L368.959,165.324z"/>
	</g>
	<g>
		<path fill="#1D1D1B" d="M426.394,173.522c2.518,0.071,5.581-0.993,7.71,0.711c1.599,1.281-0.104,1.768-1.386,2.147
			c-1.855,0.548-3.813,0.718-5.725,0.942c-1.159,0.136-2.723,0.072-3.749,0.709c-0.191,0.118-0.193,0.395,0,0.513
			c1.516,0.924,4.244,0.404,5.887,0.216c2.111-0.241,4.667-0.486,6.436-1.784c1.571-1.154,0.986-2.807-0.289-3.915
			c-2.543-2.213-6.232-1.256-9.001,0.025C426.052,173.189,426.177,173.516,426.394,173.522L426.394,173.522z"/>
	</g>
	<g>
		<path fill="#1D1D1B" d="M372.512,173.086c-2.633-1.218-6.208-2.207-8.717-0.247c-1.324,1.034-2.277,2.678-0.745,4.005
			c1.608,1.394,4.233,1.606,6.242,1.872c1.717,0.227,4.66,0.799,6.251-0.171c0.193-0.118,0.191-0.394,0-0.513
			c-0.936-0.581-2.349-0.56-3.411-0.672c-1.928-0.203-3.866-0.424-5.75-0.895c-1.081-0.27-3.229-0.715-1.944-2.014
			c2.022-2.041,5.402-0.858,7.955-0.93C372.611,173.516,372.736,173.189,372.512,173.086L372.512,173.086z"/>
	</g>
	<g>
		<path fill="#1D1D1B" d="M430.328,178.178c-2.844,12.076,7.956,24.635,13.813,34.135c3.77,6.114,7.193,12.412,9.652,19.176
			c2.397,6.594,2.002,13.691,4.201,20.243c0.148,0.44,0.802,0.368,0.813-0.11c0.295-12.546-3.397-23.623-9.421-34.506
			c-3.289-5.941-7.108-11.57-10.67-17.347c-4.304-6.981-6.212-13.617-7.591-21.591C431.056,177.768,430.418,177.795,430.328,178.178
			L430.328,178.178z"/>
	</g>
	<g>
		<path fill="#1D1D1B" d="M367.661,178.178c-1.283,7.416-2.927,13.527-6.723,20.139c-3.379,5.885-7.274,11.468-10.701,17.33
			c-6.546,11.2-10.565,22.901-10.258,35.974c0.011,0.478,0.666,0.55,0.813,0.11c2.015-6.005,1.828-12.563,3.679-18.677
			c2.234-7.383,6.191-14.189,10.175-20.742c5.814-9.564,16.669-22.008,13.813-34.135
			C368.37,177.795,367.732,177.768,367.661,178.178L367.661,178.178z"/>
	</g>
	<g>
		<path fill="#1D1D1B" d="M457.227,245.955c-1.036,8.229,0.107,16.564,0.616,24.801c0.554,8.973,0.356,18.014,0.361,27
			c0.005,8.994,0.246,17.989,0.231,26.981c-0.014,8.186-1.492,16.933,0.226,24.995c0.082,0.386,0.733,0.407,0.798,0
			c1.211-7.503,0.847-15.487,0.999-23.079c0.18-8.977-0.202-17.981-0.208-26.963c-0.013-17.986-0.633-35.8-2.024-53.735
			C458.176,245.299,457.307,245.324,457.227,245.955L457.227,245.955z"/>
	</g>
	<g>
		<path fill="#1D1D1B" d="M340.561,245.955c-1.34,17.284-2.032,34.465-2.023,51.801c0.004,8.995-0.246,17.988-0.231,26.981
			c0.014,8.174-0.281,16.92,1.022,24.995c0.066,0.407,0.716,0.386,0.799,0c1.584-7.434,0.401-15.531,0.249-23.079
			c-0.18-8.977,0.202-17.981,0.208-26.963c0.006-8.996-0.114-18.012,0.259-27.002c0.369-8.899,1.837-17.844,0.718-26.733
			C341.481,245.324,340.612,245.299,340.561,245.955L340.561,245.955z"/>
	</g>
	<g>
		<path fill="#1D1D1B" d="M458.972,341.955c-1.975,17.162-1.295,34.862-1.91,52.128c-0.292,8.197-0.659,16.391-0.602,24.594
			c0.058,8.377-0.787,16.94-0.327,25.278c0.037,0.679,0.947,0.797,1.166,0.158c2.337-6.818,1.661-14.671,1.608-21.777
			c-0.066-8.78,0.147-17.536,0.413-26.312c0.539-17.803,2.491-36.331,0.495-54.069C459.755,341.411,459.034,341.413,458.972,341.955
			L458.972,341.955z"/>
	</g>
	<g>
		<path fill="#1D1D1B" d="M338.972,341.955c-1.926,17.109-0.089,34.956,0.436,52.128c0.269,8.809,0.561,17.609,0.488,26.423
			c-0.063,7.664-0.931,16.25,1.591,23.607c0.219,0.639,1.129,0.521,1.166-0.158c0.427-7.747-0.423-15.667-0.344-23.45
			c0.089-8.816-0.271-17.614-0.584-26.423c-0.614-17.265,0.064-34.966-1.91-52.128C339.754,341.413,339.033,341.411,338.972,341.955
			L338.972,341.955z"/>
	</g>
	<g>
		<path fill="#1D1D1B" d="M341.554,437.574c-2.338,11.204,4.702,19.415,14.884,22.917c5.232,1.799,10.928,2.29,16.412,2.666
			c8.802,0.604,17.722,1.56,26.544,1.429c8.858-0.131,17.696-0.865,26.544-1.394c5.554-0.332,11.097-0.998,16.431-2.632
			c10.535-3.227,17.007-12.033,15.407-23.135c-0.129-0.893-1.377-0.564-1.458,0.197c-0.647,6.094-0.794,11.073-5.293,15.744
			c-3.564,3.701-8.872,5.328-13.74,6.396c-5.065,1.111-10.305,1.329-15.467,1.595c-7.475,0.385-14.935,1.306-22.424,1.194
			c-12.429-0.185-25.652-0.362-37.908-2.731c-5.058-0.978-9.96-2.872-13.804-6.375c-4.694-4.277-4.803-10.085-5.782-15.872
			C341.871,437.398,341.589,437.405,341.554,437.574L341.554,437.574z"/>
	</g>
	<g>
		<path fill="#1D1D1B" d="M346.556,446.793c12.699,13.597,36.174,9.882,52.838,9.614c10.043-0.161,19.969,1.16,29.999-0.151
			c8.088-1.058,17.364-2.811,22.856-9.447c0.219-0.265-0.111-0.594-0.376-0.376c-14.247,11.721-35.371,8.036-52.479,7.761
			c-16.59-0.267-38.966,4.817-52.495-7.745C346.669,446.237,346.342,446.564,346.556,446.793L346.556,446.793z"/>
	</g>
	<g>
		<path fill="#1D1D1B" d="M371.593,190.184c8.806,4.296,18.167,4.666,27.801,4.584c8.713-0.075,20.543,1.184,27.888-4.592
			c0.271-0.213-0.032-0.573-0.304-0.522c-4.563,0.846-8.761,2.587-13.435,3.188c-4.681,0.603-9.439,0.547-14.148,0.507
			c-9.496-0.081-18.656,0.096-27.596-3.65C371.52,189.582,371.325,190.053,371.593,190.184L371.593,190.184z"/>
	</g>
	<g>
		<path fill="#1D1D1B" d="M377.394,188.298c14.589-1.673,29.387,0.268,44-0.047c0.333-0.007,0.407-0.495,0.079-0.583
			c-6.279-1.692-13.753-0.881-20.186-0.867c-7.903,0.016-16.037-0.197-23.893,0.81C376.962,187.666,376.952,188.349,377.394,188.298
			L377.394,188.298z"/>
	</g>
	<g>
		<path fill="#1D1D1B" d="M344.367,421.774c6.298,12.021,21.282,21.541,34.86,22.145c0.4,0.018,0.485-0.609,0.094-0.697
			c-13.877-3.146-26.16-9.827-34.234-21.868C344.789,420.908,344.116,421.295,344.367,421.774L344.367,421.774z"/>
	</g>
	<g>
		<path fill="#1D1D1B" d="M354.401,419.89c5.116,4.513,11.303,8.925,18.326,9.44c0.305,0.022,0.356-0.447,0.071-0.523
			c-6.886-1.827-12.403-4.836-17.745-9.57C354.61,418.844,353.954,419.496,354.401,419.89L354.401,419.89z"/>
	</g>
	<g>
		<path fill="#1D1D1B" d="M362.539,417.385c1.538,0.99,3.403,1.715,5.257,1.426c0.25-0.039,0.243-0.451,0-0.496
			c-1.796-0.336-3.309-0.553-4.88-1.574C362.511,416.479,362.137,417.126,362.539,417.385L362.539,417.385z"/>
	</g>
	<g>
		<path fill="#1D1D1B" d="M364.727,410.365c0.555,0.048,0.972,0.484,1.557,0.404c0.224-0.031,0.181-0.353,0-0.411
			c-0.543-0.173-0.974-0.547-1.557-0.596C364.34,409.729,364.343,410.332,364.727,410.365L364.727,410.365z"/>
	</g>
	<g>
		<path fill="#1D1D1B" d="M339.183,313.73c-1.078,9.498-0.71,19.105-0.568,28.649c0.244,16.289,0.601,32.574,1.001,48.859
			c0.287,11.706,0.521,23.419,0.992,35.12c0.334,8.281,0.348,16.68,4.135,24.261c3.975,7.958,14.083,12.721,22.65,12.824
			c1.185,0.014,1.422-1.754,0.278-2.056c-10.967-2.901-19.612-6.433-22.68-18.252c-1.675-6.453-1.429-13.343-1.657-19.967
			c-0.428-12.431-0.705-24.867-1.005-37.302c-0.579-23.942,0.065-48.331-2.725-72.137
			C339.573,313.46,339.214,313.459,339.183,313.73L339.183,313.73z"/>
	</g>
	<g>
		<path fill="#1D1D1B" d="M368.967,173.403c3.104,0.958,6.554,0.734,9.784,0.806c4.298,0.096,8.696,0.748,12.976,0.548
			c0.405-0.019,0.489-0.585,0.095-0.706c-3.647-1.12-7.641-1.081-11.429-1.333c-3.708-0.247-7.778-0.788-11.427,0.007
			C368.612,172.802,368.651,173.305,368.967,173.403L368.967,173.403z"/>
	</g>
	<g>
		<path fill="#1D1D1B" d="M383.661,179.305c8.987,1.938,19.813,2.537,28.885,0.976c0.544-0.094,0.549-1.01,0-1.1
			c-9.271-1.515-19.396,0.044-28.818-0.367C383.447,178.801,383.385,179.245,383.661,179.305L383.661,179.305z"/>
	</g>
	<g>
		<path fill="#1D1D1B" d="M370.707,151.966c-0.636,3.096-1.87,7.048,0.165,9.875c0.138,0.191,0.476,0.083,0.4-0.169
			c-1.017-3.367-0.552-6.128,0.143-9.511C371.51,151.699,370.802,151.502,370.707,151.966L370.707,151.966z"/>
	</g>
	<g>
		<path fill="#1D1D1B" d="M374.009,153.172c-1.008,1.964-1.908,5.032-0.538,7.041c0.163,0.239,0.547,0.158,0.553-0.15
			c0.042-2.263-0.176-4.283,0.754-6.442C375,153.108,374.277,152.651,374.009,153.172L374.009,153.172z"/>
	</g>
	<g>
		<path fill="#1D1D1B" d="M385.043,152.192c-0.793,1.601-0.906,4.06,0.518,5.371c0.159,0.146,0.382,0.037,0.4-0.166
			c0.06-0.66-0.106-1.294-0.231-1.94c-0.195-1.007-0.176-1.953,0.055-2.952C385.886,152.072,385.255,151.764,385.043,152.192
			L385.043,152.192z"/>
	</g>
	<g>
		<path fill="#1D1D1B" d="M389.023,149.18c-1.717,3.819-3.01,10.684,0.139,14.116c0.182,0.199,0.591,0.056,0.56-0.232
			c-0.223-2.068-0.792-4.038-0.867-6.138c-0.089-2.492,0.376-5.002,0.953-7.414C389.917,149.056,389.23,148.72,389.023,149.18
			L389.023,149.18z"/>
	</g>
	<g>
		<path fill="#1D1D1B" d="M392.639,150.281c-1.29,3.76-3.167,10.497,0.173,13.698c0.204,0.195,0.631,0.073,0.6-0.249
			c-0.197-2.062-0.693-4.033-0.693-6.123c-0.001-2.378,0.415-4.749,0.764-7.094C393.564,149.964,392.826,149.736,392.639,150.281
			L392.639,150.281z"/>
	</g>
	<g>
		<path fill="#1D1D1B" d="M396.328,149.62c-1.383,3.958-2.96,10.938-0.244,14.625c0.174,0.237,0.572,0.241,0.657-0.086
			c0.569-2.184,0.011-4.649-0.019-6.895c-0.033-2.495,0.192-5.051,0.42-7.534C397.186,149.239,396.473,149.204,396.328,149.62
			L396.328,149.62z"/>
	</g>
	<g>
		<path fill="#1D1D1B" d="M398.949,149.397c-0.468,4.001-1.836,10.227,0.468,13.848c0.152,0.238,0.603,0.242,0.657-0.086
			c0.317-1.915-0.039-3.888-0.078-5.824c-0.054-2.655,0.104-5.289-0.156-7.938C399.783,148.82,399.015,148.829,398.949,149.397
			L398.949,149.397z"/>
	</g>
	<g>
		<path fill="#1D1D1B" d="M402.654,150.509c0.689,2.568,0.84,5.163,0.908,7.808c0.049,1.925-0.001,3.846,0.822,5.614
			c0.141,0.303,0.671,0.236,0.728-0.095c0.712-4.139,0.16-9.847-1.687-13.652C403.211,149.744,402.533,150.058,402.654,150.509
			L402.654,150.509z"/>
	</g>
	<g>
		<path fill="#1D1D1B" d="M407.957,152.518c0.775,3.338,0.345,7.259,1.793,10.394c0.162,0.351,0.648,0.142,0.67-0.181
			c0.224-3.348-0.559-7.275-1.589-10.454C408.651,151.721,407.824,151.947,407.957,152.518L407.957,152.518z"/>
	</g>
	<g>
		<path fill="#1D1D1B" d="M414.336,152.172c0.484,3.435-0.768,7.522,0.775,10.724c0.116,0.241,0.561,0.202,0.6-0.078
			c0.249-1.822-0.012-3.708-0.039-5.546c-0.027-1.817-0.192-3.538-0.553-5.316C415.013,151.432,414.264,151.667,414.336,152.172
			L414.336,152.172z"/>
	</g>
	<g>
		<path fill="#1D1D1B" d="M418.965,154.945c-0.319,1.49-0.408,4.27,1.291,5.021c0.171,0.076,0.429-0.008,0.411-0.236
			c-0.048-0.633-0.377-1.176-0.575-1.772c-0.305-0.915-0.399-1.819-0.269-2.776C419.899,154.631,419.088,154.37,418.965,154.945
			L418.965,154.945z"/>
	</g>
	<g>
		<path fill="#1D1D1B" d="M421.98,158.511c0.071,0.401,0.347,0.666,0.532,1.012c0.103,0.193,0.402,0.144,0.457-0.06
			c0.11-0.409-0.124-0.674-0.145-1.066C422.791,157.776,421.87,157.891,421.98,158.511L421.98,158.511z"/>
	</g>
	<g>
		<path fill="#1D1D1B" d="M377.584,165.73c0.112,1.116,0.312,2.158,0.247,3.29c-0.074,1.285-0.3,2.369,0.219,3.578
			c0.097,0.225,0.474,0.265,0.626,0.081c1.363-1.66,1.529-5.801-0.278-7.285C378.115,165.161,377.538,165.272,377.584,165.73
			L377.584,165.73z"/>
	</g>
	<g>
		<path fill="#1D1D1B" d="M381.328,166.507c0.219,1.151,0.069,2.426-0.034,3.583c-0.099,1.119-0.483,2.154,0.035,3.206
			c0.129,0.261,0.532,0.303,0.724,0.093c0.824-0.9,0.758-2.134,0.807-3.3c0.057-1.383-0.218-2.535-0.733-3.803
			C381.928,165.798,381.227,165.974,381.328,166.507L381.328,166.507z"/>
	</g>
	<g>
		<path fill="#1D1D1B" d="M384.289,166.32c0.828,1.197,0.821,2.513,0.723,3.913c-0.076,1.091-0.578,2.378,0.025,3.373
			c0.14,0.231,0.456,0.271,0.65,0.084c0.99-0.957,0.869-3.05,0.877-4.335c0.008-1.37-0.445-2.734-1.477-3.651
			C384.676,165.34,383.944,165.822,384.289,166.32L384.289,166.32z"/>
	</g>
	<g>
		<path fill="#1D1D1B" d="M388.298,167.064c-0.049,1.014-0.107,2.027-0.118,3.042c-0.012,1.114-0.183,2.326,0.238,3.377
			c0.122,0.303,0.496,0.303,0.618,0c0.372-0.929,0.254-1.942,0.243-2.928c-0.013-1.165-0.067-2.327-0.123-3.491
			C389.13,166.51,388.324,166.51,388.298,167.064L388.298,167.064z"/>
	</g>
	<g>
		<path fill="#1D1D1B" d="M391.972,167.397c0.122,1.076,0.174,2.148,0.18,3.231c0.005,0.982-0.134,2.031,0.299,2.931
			c0.101,0.209,0.453,0.209,0.553,0c0.436-0.908,0.275-1.944,0.233-2.931c-0.048-1.119-0.222-2.246-0.436-3.343
			C392.71,166.821,391.918,166.924,391.972,167.397L391.972,167.397z"/>
	</g>
	<g>
		<path fill="#1D1D1B" d="M396.274,170.397c-0.059,1.015-0.242,2.184,0.244,3.122c0.082,0.158,0.337,0.158,0.418,0
			c0.486-0.938,0.303-2.107,0.244-3.122C397.147,169.813,396.308,169.813,396.274,170.397L396.274,170.397z"/>
	</g>
	<g>
		<path fill="#1D1D1B" d="M374.429,173.099c-1.455,1.441-2.037,4.052-0.289,5.552c0.284,0.244,0.66,0.007,0.601-0.35
			c-0.265-1.596-0.908-3.194,0.285-4.606C375.372,173.285,374.821,172.71,374.429,173.099L374.429,173.099z"/>
	</g>
	<g>
		<path fill="#1D1D1B" d="M378.276,173.968c-2.475,0.921-3.143,5.138-0.292,6.041c0.261,0.083,0.429-0.211,0.326-0.425
			c-0.775-1.62-1.217-3.612,0.399-4.872C379.059,174.439,378.681,173.817,378.276,173.968L378.276,173.968z"/>
	</g>
	<g>
		<path fill="#1D1D1B" d="M380.016,173.51c-0.532,1.142-0.896,2.309-0.58,3.566c0.253,1.003,1.283,2.057,2.384,1.66
			c0.216-0.078,0.325-0.306,0.21-0.516c-0.355-0.649-1.017-1.006-1.246-1.741c-0.254-0.817-0.119-1.81,0.031-2.632
			C380.899,173.391,380.24,173.03,380.016,173.51L380.016,173.51z"/>
	</g>
	<g>
		<path fill="#1D1D1B" d="M383.639,174.281c-0.364,1.674-0.274,3.636,0.901,4.971c0.196,0.223,0.478-0.024,0.444-0.258
			c-0.222-1.555-0.165-3.177-0.501-4.712C384.391,173.862,383.73,173.861,383.639,174.281L383.639,174.281z"/>
	</g>
	<g>
		<path fill="#1D1D1B" d="M374.835,181.668c-2.568,8.747-7.052,16.443-12.039,23.999c-4.728,7.163-9.917,14.442-11.673,22.988
			c-0.061,0.296,0.372,0.521,0.514,0.217c3.889-8.289,8.57-15.898,13.513-23.584c4.711-7.324,9.025-14.795,10.145-23.558
			C375.329,181.46,374.906,181.424,374.835,181.668L374.835,181.668z"/>
	</g>
	<g>
		<path fill="#1D1D1B" d="M377.486,185.331c-5.468,13.63-15.758,24.574-21.31,38.072c-5.117,12.441-7.902,27.373-3.5,40.433
			c0.135,0.402,0.845,0.361,0.783-0.106c-1.964-14.817-0.642-29.031,5.585-42.757c5.589-12.32,15.53-22.123,18.924-35.51
			C378.05,185.143,377.603,185.038,377.486,185.331L377.486,185.331z"/>
	</g>
	<g>
		<path fill="#1D1D1B" d="M347.446,252.064c-1.164,30.811-0.955,61.685-1.213,92.513c-0.132,15.779-0.27,31.559-0.357,47.338
			c-0.086,15.626-0.993,31.556,0.062,47.149c0.069,1.017,1.509,1.016,1.578,0c1.017-14.953,0.271-30.191,0.367-45.179
			c0.101-15.778,0.218-31.556,0.338-47.334c0.24-31.477,0.965-63.023-0.213-94.487C347.995,251.701,347.46,251.701,347.446,252.064
			L347.446,252.064z"/>
	</g>
	<g>
		<path fill="#1D1D1B" d="M352.571,286.064c-1.189,12.565-0.673,25.375-0.708,37.986c-0.036,13.297-0.07,26.593-0.094,39.889
			c-0.024,13.231-0.049,26.461-0.069,39.692c-0.01,6.58-0.02,13.16-0.03,19.741c-0.009,5.807-0.791,12.174,0.431,17.865
			c0.133,0.621,1.117,0.621,1.251,0c1.094-5.094,0.442-10.699,0.434-15.895c-0.01-6.578-0.02-13.155-0.029-19.732
			c-0.02-13.227-0.045-26.453-0.068-39.68c-0.024-13.294-0.056-26.588-0.092-39.882c-0.036-13.269,0.538-26.762-0.713-39.983
			C352.865,285.862,352.59,285.862,352.571,286.064L352.571,286.064z"/>
	</g>
	<g>
		<path fill="#1D1D1B" d="M370.227,163.368c8.638,1.004,17.625,0.722,26.312,0.629c8.652-0.093,18.399,0.68,26.823-1.444
			c0.469-0.118,0.503-0.883,0-0.979c-7.973-1.525-16.863-0.138-24.933,0.224c-9.382,0.421-18.84,0.351-28.202,0.961
			C369.828,162.785,369.843,163.324,370.227,163.368L370.227,163.368z"/>
	</g>
	<g>
		<path fill="#1D1D1B" d="M375.727,166.689c7.229-0.476,14.39-0.854,21.639-1.011c5.742-0.125,13.185,0.197,18.157-3.108
			c0.494-0.328,0.293-1.056-0.296-1.092c-6.378-0.393-13.122,1.063-19.563,1.185c-6.688,0.127-13.771-0.151-20.237,1.816
			C374.25,164.837,374.421,166.775,375.727,166.689L375.727,166.689z"/>
	</g>
	<g>
		<path fill="#1D1D1B" d="M388.94,151.276c-1.611,1.662-1.677,4.627-1.68,6.789c-0.002,1.89,0.18,5.665,2.367,6.36
			c0.231,0.073,0.479-0.124,0.475-0.362c-0.015-0.772-0.334-1.324-0.608-2.043c-0.486-1.274-0.684-2.601-0.778-3.956
			c-0.148-2.133,0.083-4.409,0.903-6.394C389.78,151.282,389.205,151.003,388.94,151.276L388.94,151.276z"/>
	</g>
	<g>
		<path fill="#1D1D1B" d="M391.807,153.144c-1.536,1.701-2.323,4.021-2.072,6.308c0.171,1.561,1.656,4.344,3.613,3.549
			c0.228-0.093,0.389-0.298,0.316-0.557c-0.154-0.555-0.473-0.856-0.852-1.289c-0.674-0.771-1.046-1.494-1.159-2.528
			c-0.184-1.691,0.51-3.38,1.146-4.905C393.032,153.164,392.187,152.723,391.807,153.144L391.807,153.144z"/>
	</g>
	<g>
		<path fill="#1D1D1B" d="M395.289,155.307c-0.966,2.269-1.021,5.236,0.148,7.426c0.174,0.325,0.589,0.133,0.626-0.169
			c0.279-2.289,0.068-4.687,0.172-7C396.257,155.084,395.49,154.834,395.289,155.307L395.289,155.307z"/>
	</g>
	<g>
		<path fill="#1D1D1B" d="M384.667,153.736c-0.69,1.577-0.777,3.391-0.795,5.093c-0.014,1.32-0.047,3.294,1.032,4.255
			c0.317,0.282,0.797,0.398,1.177,0.152c0.948-0.615,0.164-2.095,0.005-2.942c-0.387-2.058,0.006-4.167-0.211-6.231
			C385.817,153.504,384.956,153.077,384.667,153.736L384.667,153.736z"/>
	</g>
	<g>
		<path fill="#1D1D1B" d="M382.26,157.435c-0.704,1.709-1.158,3.989-0.326,5.731c0.349,0.731,1.546,0.373,1.511-0.409
			c-0.038-0.821-0.243-1.621-0.287-2.444c-0.049-0.916-0.007-1.835,0.055-2.749C383.251,156.971,382.451,156.971,382.26,157.435
			L382.26,157.435z"/>
	</g>
	<g>
		<path fill="#1D1D1B" d="M417.929,166.265c-1.689,1.34-2.138,4.502,0.156,5.541c0.2,0.09,0.508-0.06,0.413-0.318
			c-0.282-0.763-0.715-1.458-0.781-2.287c-0.073-0.905,0.384-1.707,0.874-2.425C418.884,166.348,418.275,165.991,417.929,166.265
			L417.929,166.265z"/>
	</g>
	<g>
		<path fill="#1D1D1B" d="M420.37,166.855c-1.377,2.764-1.068,6.191,1.12,8.446c0.237,0.244,0.648-0.006,0.561-0.327
			c-0.703-2.613-1.553-5.069-0.925-7.801C421.228,166.733,420.587,166.419,420.37,166.855L420.37,166.855z"/>
	</g>
	<g>
		<path fill="#1D1D1B" d="M358.75,379.07c-0.919,2.966-0.362,7.949-0.546,11.41c-0.273,5.112-0.632,10.219-0.859,15.333
			c-0.267,5.998-0.513,11.967-0.873,17.962c-0.399,6.649-2.386,24.799,6.072,27.951c0.59,0.22,1.055-0.522,0.776-1.01
			c-2.628-4.608-4.256-7.943-4.753-13.39c-0.517-5.665-0.073-11.407,0.273-17.068c0.373-6.094,0.38-12.178,0.629-18.278
			c0.335-8.215,1.574-16.866,0.116-25.016c-0.074-0.417-0.749-0.316-0.732,0.099c-0.05,0.665-0.1,1.329-0.15,1.994
			C358.699,379.087,358.741,379.099,358.75,379.07L358.75,379.07z"/>
	</g>
	<g>
		<path fill="#1D1D1B" d="M355.238,452.699c0.279,0.759,0.625,1.487,1.111,2.138c0.458,0.613,0.979,1.42,1.783,1.574
			c0.285,0.055,0.489-0.163,0.442-0.442c-0.116-0.693-0.688-1.244-1.077-1.803c-0.435-0.625-0.905-1.227-1.331-1.858
			C355.861,451.856,355.028,452.129,355.238,452.699L355.238,452.699z"/>
	</g>
	<g>
		<path fill="#1D1D1B" d="M359.823,455.3c1.096,1.88,2.402,3.82,4.283,4.973c0.209,0.128,0.453-0.124,0.331-0.331
			c-1.08-1.831-2.508-3.429-3.804-5.114C360.275,454.363,359.508,454.762,359.823,455.3L359.823,455.3z"/>
	</g>
	<g>
		<path fill="#1D1D1B" d="M364.39,456.261c0.566,0.973,1.238,1.866,1.943,2.741c0.593,0.736,1.398,1.82,2.394,1.914
			c0.178,0.017,0.368-0.173,0.352-0.352c-0.087-0.931-0.993-1.576-1.625-2.198c-0.849-0.835-1.706-1.645-2.451-2.579
			C364.721,455.433,364.173,455.887,364.39,456.261L364.39,456.261z"/>
	</g>
	<g>
		<path fill="#1D1D1B" d="M368.813,456.678c0.447,1.104,0.848,2.21,1.41,3.263c0.408,0.764,1.035,1.95,2.004,1.967
			c0.19,0.003,0.34-0.159,0.344-0.344c0.015-0.839-0.859-1.56-1.29-2.241c-0.607-0.961-1.105-1.996-1.683-2.975
			C369.358,455.94,368.626,456.215,368.813,456.678L368.813,456.678z"/>
	</g>
	<g>
		<path fill="#1D1D1B" d="M371.863,456.777c0.514,1.072,1.064,2.141,1.732,3.128c0.499,0.738,1.148,1.72,2.056,1.938
			c0.22,0.053,0.404-0.138,0.355-0.356c-0.201-0.904-1.121-1.661-1.668-2.376c-0.668-0.872-1.229-1.792-1.746-2.76
			C372.333,455.866,371.63,456.292,371.863,456.777L371.863,456.777z"/>
	</g>
	<g>
		<path fill="#1D1D1B" d="M375.37,456.773c0.496,1.114,1.098,2.076,1.856,3.029c0.622,0.782,1.438,2.021,2.501,2.129
			c0.185,0.019,0.386-0.182,0.367-0.367c-0.091-0.901-0.96-1.507-1.563-2.12c-0.914-0.93-1.776-1.97-2.447-3.089
			C375.804,455.887,375.157,456.295,375.37,456.773L375.37,456.773z"/>
	</g>
	<g>
		<path fill="#1D1D1B" d="M378.856,457.28c0.567,1.231,1.331,2.31,2.246,3.304c0.68,0.739,1.548,1.744,2.625,1.784
			c0.254,0.009,0.349-0.261,0.263-0.458c-0.387-0.893-1.391-1.479-2.067-2.146c-0.885-0.873-1.695-1.845-2.325-2.917
			C379.313,456.361,378.629,456.786,378.856,457.28L378.856,457.28z"/>
	</g>
	<g>
		<path fill="#1D1D1B" d="M383.313,457.678c0.739,1.791,2.579,5.22,4.995,4.68c0.225-0.05,0.293-0.355,0.134-0.509
			c-0.673-0.657-1.524-1.062-2.22-1.703c-0.853-0.788-1.518-1.815-2.125-2.798C383.852,456.949,383.121,457.213,383.313,457.678
			L383.313,457.678z"/>
	</g>
	<g>
		<path fill="#1D1D1B" d="M388.356,458.78c0.947,1.992,2.945,4.491,5.442,4.039c0.248-0.045,0.232-0.367,0.063-0.486
			c-0.823-0.577-1.787-0.869-2.618-1.445c-0.916-0.635-1.611-1.582-2.145-2.543C388.826,457.857,388.121,458.287,388.356,458.78
			L388.356,458.78z"/>
	</g>
	<g>
		<path fill="#1D1D1B" d="M394.32,458.676c0.331,1.018,0.848,1.921,1.593,2.69c0.516,0.533,1.728,1.473,2.491,1.001
			c0.129-0.08,0.212-0.246,0.162-0.397c-0.214-0.638-1.099-0.93-1.593-1.34c-0.738-0.614-1.476-1.267-1.84-2.178
			C394.938,457.959,394.149,458.148,394.32,458.676L394.32,458.676z"/>
	</g>
	<g>
		<path fill="#1D1D1B" d="M399.912,460.879c0.397,0.379,0.712,0.652,1.189,0.901c0.225,0.118,0.46-0.117,0.342-0.342
			c-0.249-0.477-0.522-0.791-0.901-1.189C400.145,459.833,399.497,460.481,399.912,460.879L399.912,460.879z"/>
	</g>
	<g>
		<path fill="#1D1D1B" d="M403.727,462.189c0.167-0.008,0.333-0.016,0.5-0.023c0.131-0.006,0.131-0.197,0-0.203
			c-0.167-0.008-0.333-0.016-0.5-0.023C403.566,461.931,403.566,462.196,403.727,462.189L403.727,462.189z"/>
	</g>
	<g>
		<path fill="#1D1D1B" d="M433.766,456.564c-0.02,0.702-0.621,1.471-0.282,2.142c0.1,0.199,0.377,0.165,0.486,0
			c0.429-0.654,0.695-1.345,0.718-2.142C434.706,455.969,433.784,455.97,433.766,456.564L433.766,456.564z"/>
	</g>
	<g>
		<path fill="#1D1D1B" d="M437.298,455.564c-0.026,0.514-0.229,0.906-0.45,1.358c-0.195,0.401-0.45,0.75-0.362,1.208
			c0.033,0.172,0.232,0.212,0.367,0.149c0.434-0.2,0.699-0.765,0.924-1.168c0.264-0.472,0.375-1.013,0.379-1.548
			C438.161,455.007,437.326,455.014,437.298,455.564L437.298,455.564z"/>
	</g>
	<g>
		<path fill="#1D1D1B" d="M440.836,454.335c-0.583,1.048-1.031,2.163-1.513,3.259c-0.29,0.66,0.659,1.246,0.985,0.576
			c0.548-1.125,0.871-2.335,1.356-3.486C441.866,454.204,441.08,453.895,440.836,454.335L440.836,454.335z"/>
	</g>
	<g>
		<path fill="#1D1D1B" d="M445.336,451.835c-0.675,0.94-1.154,1.883-1.562,2.966c-0.325,0.862-0.939,2.121-0.411,2.976
			c0.121,0.196,0.375,0.269,0.577,0.151c0.797-0.464,0.845-1.569,1.045-2.404c0.26-1.089,0.589-2.248,1.134-3.232
			C446.407,451.772,445.671,451.368,445.336,451.835L445.336,451.835z"/>
	</g>
	<g>
		<path fill="#1D1D1B" d="M450.266,451.064c-0.051,0.731-0.215,1.411-0.467,2.097c-0.287,0.782-0.731,1.491-0.873,2.319
			c-0.042,0.245,0.209,0.522,0.459,0.353c1.47-0.991,1.85-3.113,1.803-4.77C451.171,450.465,450.308,450.475,450.266,451.064
			L450.266,451.064z"/>
	</g>
	<g>
		<path fill="#1D1D1B" d="M453.001,363.564c-1.404,14.239-1.951,28.998-1.64,43.303c0.288,13.268,0.693,25.64-5.16,37.889
			c-0.281,0.587,0.477,1.295,0.957,0.738c7.638-8.86,6.628-23.491,6.292-34.362c-0.218-7.059-0.324-14.083-0.185-21.147
			c0.172-8.765,0.983-17.676,0.189-26.422C453.427,363.271,453.029,363.273,453.001,363.564L453.001,363.564z"/>
	</g>
	<g>
		<path fill="#1D1D1B" d="M448.313,415.564c-0.46,5.429-0.957,11.057-1.016,16.5c-0.005,0.501,0.694,0.564,0.844,0.114
			c1.721-5.154,1.449-11.269,1-16.614C449.097,415.03,448.358,415.031,448.313,415.564L448.313,415.564z"/>
	</g>
	<g>
		<path fill="#1D1D1B" d="M411.313,179.949c-0.527,2.057-1.171,4.448,0.249,6.28c0.159,0.205,0.429-0.025,0.392-0.228
			c-0.383-2.088-0.309-3.761,0.188-5.824C412.271,179.64,411.451,179.412,411.313,179.949L411.313,179.949z"/>
	</g>
	<g>
		<path fill="#1D1D1B" d="M414.313,180.064c-0.038,1.778-0.458,4.634,0.658,6.15c0.135,0.184,0.491,0.21,0.543-0.071
			c0.173-0.947-0.123-1.895-0.223-2.848c-0.113-1.072-0.125-2.155-0.149-3.231C415.129,179.53,414.325,179.53,414.313,180.064
			L414.313,180.064z"/>
	</g>
	<g>
		<path fill="#1D1D1B" d="M425.785,166.73c-0.282,2.343-0.724,5.744,0.906,7.704c0.251,0.302,0.79,0.131,0.875-0.231
			c0.273-1.17-0.017-2.395-0.164-3.572c-0.162-1.296-0.24-2.603-0.398-3.9C426.908,165.947,425.879,165.947,425.785,166.73
			L425.785,166.73z"/>
	</g>
	<g>
		<path fill="#1D1D1B" d="M419.603,178.516c3.254,1.258,11.781,3.908,13.507-0.921c0.18-0.504-0.277-0.881-0.716-0.939
			c-1.963-0.263-4.001,1.046-6.083,1.069c-2.213,0.024-4.362-0.281-6.583-0.129C419.182,177.632,419.111,178.325,419.603,178.516
			L419.603,178.516z"/>
	</g>
	<g>
		<path fill="#1D1D1B" d="M427.86,181.879c-1.602,0.266,6.372,15.441,7.224,16.946c4.653,8.219,9.605,16.183,13.264,24.921
			c7.038,16.807,8.997,35.271,9.847,53.306c0.84,17.827,1.045,35.754,0.738,53.595c-0.334,19.341-1.651,38.758-0.56,58.084
			c0.05,0.887,1.322,0.885,1.375,0c2.387-39.97,3.658-80.57,0.91-120.558c-1.236-17.985-4.62-35.778-12.484-52.108
			c-4.144-8.604-9.518-16.574-14.08-24.954c-1.325-2.434-2.724-4.968-3.608-7.599c-0.341-1.015-0.289-1.952-0.877-2.861
			c-0.656-1.015-1.691-0.181-2.234,0.393C427.008,181.43,427.382,181.959,427.86,181.879L427.86,181.879z"/>
	</g>
	<g>
		<path fill="#1D1D1B" d="M347.585,455.64c13.861,8.608,31.054,10.767,47.073,10.871c8.831,0.057,17.658-0.73,26.409-1.856
			c8.4-1.08,17.665-1.915,25.544-5.134c0.802-0.327,0.779-1.638-0.218-1.611c-7.515,0.203-15.028,2.311-22.458,3.42
			c-8.602,1.284-17.277,2.047-25.971,2.268c-17.377,0.44-33.882-2.508-50.163-8.472C347.493,455.013,347.324,455.477,347.585,455.64
			L347.585,455.64z"/>
	</g>
</g>
</svg>
