<?xml version="1.0" encoding="utf-8"?>
<!-- Generator: Adobe Illustrator 17.0.0, SVG Export Plug-In . SVG Version: 6.00 Build 0)  -->
<!DOCTYPE svg PUBLIC "-//W3C//DTD SVG 1.1//EN" "http://www.w3.org/Graphics/SVG/1.1/DTD/svg11.dtd">
<svg version="1.1" id="Layer_1" xmlns="http://www.w3.org/2000/svg" xmlns:xlink="http://www.w3.org/1999/xlink" x="0px" y="0px"
	 width="800px" height="600px" viewBox="0 0 800 600" enable-background="new 0 0 800 600" xml:space="preserve">
<g>
	<path d="M484.759,262.199c-0.457-1.865-1.706-2.915-2.992-3.006c2.013-4.143,3.521-8.681,3.58-13.156
		c0.025-2.108-1.544-4.199-3.248-3.06c0.484-1.552-0.068-2.852-1.098-3.467c0.01-3.53-4.052-2.585-6.533-1.635
		c-0.357-5.031-0.444-15.412-1.7-16.088c-1.246-0.671-37.451,3.57-45.511,5.097c-0.801,0.152,3.103,30.326,3.432,34.274
		c-7.597,2.589-13.715,2.25-19.94-3.776c-2.771-2.684-4.589-7.89-5.389-12.514c-0.785-4.623-0.651-10.555-3.638-12.181
		c-2.396-1.314-8.982-5.634-10.756-8.49c-1.766-2.858-3.124-14.425-1.525-25.69c2.559-1.382,4.02-2.954,6.182-6.276
		c6.736-10.343,11.703-22.851,15.787-34.343c2.652-7.453,5.166-14.969,7.226-22.594c0.036,3.957,0.011,7.896-0.209,11.803
		c-0.778,13.653-0.67,28.899-1.131,42.574c-0.361,10.593,1.442,21.173,11.329,27.054c7.062,4.198,17.174,5.933,24.835,2.178
		c4.191-0.399,8.446-1.811,11.847-3.696c12.312-6.853,17.301-23.09,11.369-35.725c-2.136-4.53-8.33-9.419-13.103-7.497
		c-6.068,2.444-5.93,7.461-4.714,13.149c0.065,0.316,0.514,0.213,0.556-0.105c1.095-9.327,7.207-7.639,7.241,0.163
		c0.042,7.807-4.384,13.074-9.741,11.79c-4.984-1.183-6-8.016-6.304-12.049c-0.793-10.577,0.061-21.43-0.199-32.044
		c-0.186-7.864-0.586-15.675-1.375-23.43c5.678,6.196,17.619,1.629,20.609-10.235c3.14-12.456-4.373-19.357-8.707-15.058
		c2.815,0.608,3.834,2.677,2.517,5.414c-3.377,6.972-9.737,4.542-11.951-2.391c-1.882-5.878-5.683-20.056-7.929-25.382
		c5.219-0.279,9.589-5.167,10.047-11.884c0.478-7.076-3.261-12.138-7.823-10.9c-0.857,0.234-1.434,1.401-0.806,1.441
		c2.159,0.118,1.834,10.984-4.166,7.212c-1.836-1.159-2.614-4.219-3.238-6.118c-1.423-4.306-2.026-8.957-2.948-13.388
		c-2.197-10.528-9.453-20.917-16.768-28.507c-7.649-7.951-17.919-12.648-29.035-12.001c-8.757,0.516-13.894,5.639-14.615,13.246
		c-4.532-7.05-15.806-8.93-24.206-7.419c-14.413,2.591-23.936,14.216-29.544,27.014c-6.839,15.623-7.013,34.058-6.433,50.794
		c0.357,10.204,2.813,20.258,3.57,30.433c0.379,5.017,0.836,16.918-4.462,23.92c-5.029,6.654-15.463-1.821-11.484-7.889
		c-3.714,1.056-4.758,5.491-3.555,8.76c2.043,5.527,6.046,9.36,12.135,9.428c7.188,0.089,12.421-7.918,14.73-13.685
		c1.203-2.993,1.817-5.963,1.99-8.931c3.608,19.14,8.131,38.447,8.929,57.929c0.252,6.245,0.343,14.664-3.363,20.021
		c-3.553,5.131-11.336-4.316-12.975-7.055c-2.17-3.636-2.857-12.565,0.495-13.774c3.352-1.208,0.603,6.022-0.662,7.42
		c-0.512,0.568,3.236-0.242,5.625-2.857c4.437-4.828,6.319-19.733-3.618-19.733c-14.764,0-15.707,20.004-11.299,31.991
		c6.372,17.338,24.686,28.664,40.956,16.729c13.474-9.881,13.08-34.441,10.824-52.245c3.399,10.778,11.858,25.409,19.505,27.603
		c0.336,6.599,0.561,19.206-1.84,23.614c-2.415,4.398-10.691,5.806-14.29,6.227c-2.544,0.297-4.494,1.391-5.991,4.653
		c-1.495,3.267-5.384,19.265-3.062,29.844c-1.745,7.633-0.658,15.966-0.22,23.661c0.577,10.137,1.622,27.82,1.484,37.973
		c-0.184,13.454-1.453,31.634-6.9,39.944c-7.228,5.59-11.465,18.597-13.095,28.053c-2.458,14.163,1.63,30.359,7.996,32.357
		c0.954-4.685,3.563-10.316,6.044-14.139c0.368,7.127,4.642,14.209,7.933,20.157c5.325,9.632,11.716,19.237,11.921,30.592
		c0.211,12.056-7.579,23.023-9.265,34.786c-1.84,12.803,3.908,24.856,3.462,40.608c-4.858,6.804-6.808,18.045-5.039,27.026
		c2.65,1.904,5.395,1.728,7.711,0.547c0.105-3.535,0.091-7.053,0.281-10.576c1.193,4.966,2.394,9.74,5.998,13.673
		c-6.33,5.986-13.63,12.3-21.871,16.411c3.187,3.711,19.294,1.147,31.035-7.076c8.969,9.727,26.313,7.076,26.847,3.534
		c-7.171-1.269-13.797-5.974-18.139-11.339c0.945-1.277,2.413-3.086,3.553-4.172c0.161,2.333,0.195,4.661,0.709,6.972
		c1.576,1.014,5.733,0.656,7.419-0.049c-1.855-6.46-3.094-14.255-3.045-22.358c0.123-17.926,4.564-28.261,7.292-41.82
		c2.697-13.405-0.4-24.415-8.169-35.218c-4.595-6.374-8.994-10.731-7.226-15.509c1.639-4.42,6.283-12.344,9.559-19.564
		c8.072-17.78,11.059-32.39,11.568-45.986c1.958,0.593,3.595,1.686,4.646,3.078c3.779-9.325-2.502-23.209-7.666-29.017
		c-0.472-7.278-2.722-14.476-5.568-20.994c-5.682-13.034-14.865-25.349-15.015-39.152c16.02,9.404,39.589,7.876,47.738,2.648
		c0.226,3.471,1.222,7.019,1.996,10.226c0.135,0.564,0.683,1.419,1.929,1.419c12.416,0,36.743-5.499,40.292-8.344
		c1.038-0.843-2.25-22.827-3.978-33.11C483.951,272.542,485.765,266.411,484.759,262.199z M415.306,270.287
		c-6.994-1.122-11.029-8.147-12.674-14.946c3.663,7.495,11.308,14.848,19.065,15.136c-0.203,3.353,8.514,23.263,11.41,29.36
		c-13.535,3.724-28.781,3.279-41.763-2.346c1.783-6.267,5.021-13.445,5.979-15.354c5.469,2.092,15.138,0.387,17.982-8.151
		C415.775,272.576,415.843,270.378,415.306,270.287z M392.694,547.333c0,0.007,0.004,0.014,0.004,0.018
		c-3.255,4.384-6.116,7.943-9.61,11.929c-3.54-5.046-5.611-10.904-6.901-19.032c-0.078-0.479-0.892-1.06-1.235-0.888
		c-2.219-12.292-1.514-21.712,0.615-32.92c2.102-11.055,4.422-20.362,7.254-31.545c0.732,2.017,1.392,4.049,2.02,6.096
		c2.328,7.591,3.764,15.44,4.93,23.286C390.947,512.172,394.507,538.481,392.694,547.333z M377.317,394.972
		c4.614-1.447,9.367-2.557,14.48-3.308c3.018,13.38,0.577,25.418-3.655,38.411c-1.722,5.285-3.637,10.495-5.462,15.735
		c-1.093-2.409-3.045-10.816-3.306-23.569C379.18,413.132,379.343,403.895,377.317,394.972z"/>
	<path fill="#FFC7B0" d="M482.052,244.62c6.657-0.602-10.549,36.911-18.412,28.615C470.217,264.368,477.735,254.882,482.052,244.62z
		"/>
	<path fill="#FFC7B0" d="M476.779,250.928c-3.117,3.895-8.26,8.173-11.845,10.722c-2.637,1.873-9.421,4.841-11.412,1.902
		c-0.298-0.445,4.593-3.416,9.164-7.092c5.501-4.418,13-9.048,17.377-14.691C482.139,242.2,480.305,246.524,476.779,250.928z"/>
	<path fill="#FFC7B0" d="M479.277,239.086c0.173,0.217,0.611,1.731-2.847,4.324c-8.123,5.447-18.631,8.191-21.52,4.147
		c3.629-2.071,8.21-3.805,12.962-5.874C472.622,239.61,478.676,238.31,479.277,239.086z"/>
	<path fill="#FFC7B0" d="M402.885,237.915c0.654,4.009-0.235,14.682,8.036,22.081c5.156,4.613,14.522,6.261,20.455,3.107
		c0.184,1.36,0.421,2.79,0.385,4.024c-2.855-0.12-5.75,0-8.612-0.298c-0.725-0.08-1.504,0.622-1.381,1.362
		c-7.248-0.299-15.569-6.517-19.624-17.753c-1.127-5.339-1.499-11.027-1.558-15.589
		C401.348,234.646,402.501,235.561,402.885,237.915z"/>
	<path fill="#E0A791" d="M426.601,267.025c1.722,0.038,3.445,0.032,5.16,0.103c0.036-1.233-0.201-2.663-0.385-4.024
		c-1.436,0.761-3.075,1.241-4.805,1.466C426.603,265.384,426.62,266.207,426.601,267.025z"/>
	<path fill="#E0A791" d="M401.688,235.246c-0.377-0.347-0.778-0.482-1.102-0.396c0.059,4.561,0.431,10.249,1.558,15.589
		c0.512,1.414,1.085,2.743,1.722,3.995C402.048,248.288,401.741,241.48,401.688,235.246z"/>
	<path d="M418.901,109.551c-0.319-0.465-0.626-0.933-0.962-1.386c0.522-0.696,0.96-1.458,1.337-2.256
		C419.125,107.117,419.002,108.331,418.901,109.551z"/>
	<path fill="#FFD578" d="M359.111,169.11c1.074,11.945,2.681,38.121-7.334,49.389c-16.758,18.862-39.414-1.348-40.962-20.815
		c-0.565-7.05-0.135-17.281,7.869-19.742c7.548-2.325,9.823,8.487,4.856,14.796c0.668-4.16-2.548-6.584-4.834-4.16
		c-11.693,12.38,12.002,40.077,18.526,20.797c2.555-7.563,1.476-18.516,0.802-27.515c-1.409-18.918-7.967-44.707-10.172-54.5
		c-2.206-9.789-7.482-40.89-2.018-60.123c5.465-19.22,13.685-36.184,32.805-39.42c0.306-0.049-0.893-0.364-2.593-0.3
		c-19.393,0.746-26.807,19.978-31.72,35.015c-3.401,10.398-5.363,34.781,0.567,62.948c0.182,8.483-0.302,15.033-6.459,23.069
		c-4.022,5.234-10.91,7.41-15.74,2.585c-3.525-3.522-4.431-8.678-2.874-10.574c0.918,9.141,10.443,12.369,14.711,7.159
		c11.505-14.029,2.352-37.858,1.539-53.86c-1.047-20.452,0.425-42.912,11.325-60.415c4.995-8.016,12.537-13.952,21.757-16.126
		c6.22-1.468,15.442-1.933,22.153,3.872c-7.237-3.976-13.173-2.347-16.301-0.455c-1.876,1.134-1.794,1.648-1.495,1.483
		c8.146-4.693,19.228,1.364,22.884,7.975c0.288,0.524,0.651-0.651,0.302-1.91c5.604-7.205,16.136-6.466,24.147-4.366
		c9.667,2.532,17.32,11.527,23.669,18.751c0.281,0.325-0.896-2.106-3.248-5.104c-7.33-9.373-10.957-13.632-22.957-16.768
		c-5.566-1.448-14.831-1.268-20.084,2.219c0.017-1.579,5.672-6.911,17.805-6.656c13.548,0.296,22.299,12.656,28.958,20.682
		c0.235,0.291-0.404-1.609-1.958-3.781c-7.044-9.851-14.026-18.842-28.797-18.921c-4.885-0.025-13.736,1.725-17.851,6.087
		c1.059-3.283,2.548-6.203,6.017-8.144c4.098-2.302,9.35-1.968,13.791-1.268c7.571,1.185,14.055,5.626,19.689,10.577
		c6.704,5.885,11.758,14.551,15.21,22.541c2.036,4.698,2.402,9.975,3.756,14.884c0.88,3.168,4.022,13.004,10.094,10.707
		c2.409-0.911,3.915-5.214,2.409-8.741c1.049-0.585,3.976,0.919,4.31,6.332c0.455,7.368-4.828,12.002-8.971,12.452
		c-6.139-15.496-16.936-30.624-21.243-34.932c-3.047-3.043-5.114-3.494-4.856-3.282c8.015,6.676,15.276,21.197,20.782,32.204
		c3.733,7.471,5.83,14.989,8.294,22.961c1.701,5.517,2.432,11.412,5.619,16.327c3.952,6.086,12.727,3.243,14.017-3.087
		c0.558-2.747,0-4.588-0.757-5.158c3.151,0.298,5.186,7.246,3.597,12.584c-4.528,15.22-17.068,12.362-19.294,9.665
		c-1.203-10.956-2.248-17.199-5.154-27.993c-0.818-3.044-2.062-3.957-1.99-3.626c4.638,20.647,5.418,41.749,5.515,62.826
		c0.04,9.659-0.307,18.808,0.461,28.433c0.525,6.584,2.55,11.331,7.302,13.17c-2.864,0.375-5.683-0.329-8.508-3.118
		c-4.183-4.146-4.638-11.446-5.063-16.957c-1.186-15.221-1.37-22.655-2.335-37.89c-0.44-6.941-1.514-8.363-1.493-7.994
		c0.581,11.7,0.951,23.629,1.537,35.329c0.379,7.52,0.129,18.691,3.289,25.538c1.876,4.064,4.623,6.338,9.496,7.206
		c3.711,0.652,8.599,0.263,12.378-3.165c3.775-3.423,5.08-9.117,4.566-14.758c-0.613-6.759-4.211-7.902-7.378-7.111
		c0.876-3.166,4.179-3.985,6.412-2.718c10.542,5.968,8.406,21.393,5.615,27.626c-4.672,10.432-23.305,20.062-32.843,10.223
		c-6.26-6.453-6.271-22.042-6.681-30.214c-0.436-8.867-0.556-21.56-1.576-34.168c-0.44-5.445-1.76-7.99-1.671-7.111
		c2.102,20.945-2.178,44.811,4.044,65.083c2.017,6.588,6.706,11.227,10.587,12.5c-1.641,0.169-3.308,0.27-5.023,0.138
		c-5.746-0.455-10.648-2.859-14.673-6.925c-8.849-8.946-5.365-24.388-5.418-35.623c-0.064-12.096,0.594-24.159,1.072-36.248
		c0.205-5.076-0.423-23.292-0.504-25.11c0.601,0.186,1.193,0.294,1.743,0.287c0.398-0.013,0.736-0.49,0.415-0.827
		c-0.732-0.762-1.519-1.444-2.273-2.179c-0.084-2.225-0.148-4.447-0.188-6.671c3.454,4.828,7.114,3.27,6.621,3.075
		c-3.612-1.476-5.886-5.449-5.609-7.818c3.062,1.229,6.613,1.544,8.971,0.098c0.59-0.359-4.507-0.19-7.233-2.648
		c6.594-1.405,8.831-4.686,8.521-4.564c-3.688,1.399-6.782,2.278-10.45,1.49c0.831-5.979-2.897-15.458-8.527-17.364
		c-0.133-6.62-2.335-15.102-5.672-21.094c2.804,2.266,5.621,6.326,6.909,10.489c0.315,1.016,0.92-0.548,0.713-2.053
		c-0.836-6.273-3.61-12.548-11.13-12.808c-2.051-1.92-4.625-3.157-7.334-3.911c-3.232-0.898-6.036-0.794-9.05-2.662
		c-4.039-2.508-4.604-6.918-5.408-12.144c-0.586-3.819-5.962,1.439-9.8-1.479c-4.378-3.33-9.244-1.727-12.788,1.984
		c-3.638,3.807-4.816,11.845-4.799,17.175c-8.049,6.412-13.402,20.015-14.472,27.498c-0.402,2.809,0.158,3.946,0.294,3.407
		c2.274-8.748,8.838-19.979,13.86-25.496c0,5.516-0.101,12.548-0.565,20.29c-6.681,3.666-11.765,11.76-9.883,18.983
		c-8.337,1.642-13.41,6.308-12.644,6.125c2.942-0.72,6.539-1.472,9.493-2.11c-2.658,1.595-8.015,4.053-10.822,5.346
		c-0.267,0.118,9.151,0.363,14.804-5.396c0.493,2.775-2.227,8.395-4.953,10.415c-0.362,0.269,2.502,0.14,5.974-4.567
		c-0.431,3.091-1.146,7.229-3.161,9.826c-0.197,0.246,0.935-0.087,2.108-1.308c2.022-2.107,2.969-4.198,3.162-7.728
		c1.043,0.943,2.635,1.98,3.95,2.588c0.008,2.422-1.197,6.694-1.88,8.429c-0.178,0.462,3.376-2.059,3.862-7.663
		c0.197,0.064,0.4,0.105,0.603,0.161C353.445,115.22,358.037,157.163,359.111,169.11z"/>
	<path fill="#E8B34E" d="M451.736,122.831c-3.17-3.534-4.407-9.252-5.277-13.783c-0.552-2.898-1.078-6.954-2.735-9.918
		c2.885,10.741,3.929,16.981,5.131,27.915c1.65,1.991,8.965,4.077,14.48-1.167C459.32,127.281,455.022,126.501,451.736,122.831z"/>
	<path fill="#E8B34E" d="M424.934,201.908c-3.868-13.982-0.698-28.223,0.074-42.377c0.93-16.966,1.005-34.958-2.117-52.119
		c-0.768-0.532-1.58-1.295-2.375-2.411c0.04,2.223,0.104,4.445,0.188,6.671c0.753,0.734,1.54,1.417,2.273,2.179
		c0.321,0.337-0.017,0.814-0.415,0.827c-0.55,0.007-1.142-0.102-1.743-0.287c0.082,1.817,0.709,20.033,0.504,25.11
		c-0.478,12.089-1.136,24.152-1.072,36.248c0.053,11.235-3.432,26.677,5.418,35.623c2.635,2.664,5.666,4.603,9.051,5.757
		C429.985,213.424,426.578,207.855,424.934,201.908z"/>
	<path fill="#E8B34E" d="M424.582,48.45c5.16,6.531,13.156,18.8,18.115,31.314c2.007-0.215,4.264-1.419,6.025-3.423
		c-1.347-0.221-2.747-0.823-4.179-1.943c-6.076-4.744-8.512-12.605-13.186-18.511C429.272,53.258,427.05,50.7,424.582,48.45z"/>
	<path fill="#E8B34E" d="M407.136,56.175c1.214,2.185,2.263,4.697,3.126,7.328c1.214,0.655,2.373,1.404,3.456,2.241
		C412.322,61.915,409.733,58.271,407.136,56.175z"/>
	<path fill="#E8B34E" d="M354.177,109.568c-0.203-0.056-0.406-0.098-0.603-0.161c-0.281,3.217-1.569,5.413-2.578,6.62
		c1.013,0.631,2.132,1.121,3.348,1.442C354.103,113.622,354.014,110.768,354.177,109.568z"/>
	<path fill="#E8B34E" d="M346.358,111.246c1.038,1.692,2.335,3.158,3.887,4.284c0.639-2.058,1.354-5.024,1.347-6.891
		c-1.315-0.608-2.906-1.646-3.95-2.588C347.524,108.209,347.12,109.828,346.358,111.246z"/>
	<path fill="#E8B34E" d="M403.651,15.841c-8.345-4.3-18.591-5.178-25.609,0.758c-0.693,1.187-1.21,2.47-1.651,3.825
		c4.115-4.361,12.966-6.111,17.851-6.087C397.793,14.362,400.887,14.904,403.651,15.841z"/>
	<path fill="#E8B34E" d="M398.317,20.794c6.554,1.711,10.604,3.769,14.133,6.8c-2.384-2.874-5.164-5.354-8.508-7.001
		c-6.846-3.354-19.532-4.102-25.301,2.174C383.958,19.532,392.889,19.38,398.317,20.794z"/>
	<path fill="#E8B34E" d="M412.715,47.482c-3.995-1.808-7.952-1.746-11.983-1.734c6.573,2.968,13,5.946,17.2,12.325
		c2.677,4.071,4.361,8.562,5.609,13.2c-0.11-4.288-0.372-8.546-1.584-12.624C420.491,53.729,417.486,49.648,412.715,47.482z"/>
	<path fill="#E8B34E" d="M348.458,181.079c1.349,6.791,2.03,13.812,1.889,20.743c-0.14,6.812-1.074,15.689-4.892,21.887
		c2.161-1.209,4.289-2.918,6.323-5.21c0.71-0.794,1.351-1.675,1.948-2.615c4.955-18.048-5.845-40.215-11.033-59.141
		C344.013,164.936,346.832,172.916,348.458,181.079z"/>
	<path fill="#E8B34E" d="M322.784,188.786c-0.812-2.639-2.711-5.131-5.479-4.142c-1.573,0.562-2.73,1.819-3.272,3.405
		c-1.222,3.605-0.837,7.676,0.135,11.291c1.155,4.305,4.285,11.722,9.007,13.552c-6.44-5.587-11.037-17.368-4.467-24.315
		C320.078,187.119,321.778,187.422,322.784,188.786z"/>
	<path fill="#E8B34E" d="M362.577,30.99c-2.76,0.347-5.325,1.837-7.049,4.768c-2.254,3.821-2.394,7.917-0.949,11.702
		c0.391-4.944,1.722-10.79,4.668-13.869C360.257,32.525,361.39,31.645,362.577,30.99z"/>
	<path fill="#E8B34E" d="M356.518,19.962c3.339-1.467,8.593-2.187,14.798,1.227c-2.971-2.575-6.44-3.91-9.923-4.475
		C359.589,17.49,357.912,18.618,356.518,19.962z"/>
	<path fill="#E8B34E" d="M324.904,125.48c-5.93-28.167-3.969-52.55-0.567-62.948c3.477-10.67,8.233-23.436,17.617-30.225
		c-2.887,1.454-5.573,3.306-7.874,5.595c-5.644,5.617-8.886,12.421-10.965,20.026c-4.382,16.05-5.448,34.068-2.821,50.525
		c1.677,10.448,5.247,23.476,1.838,34.173C324.804,137.04,325.043,131.8,324.904,125.48z"/>
	<path fill="#E8B34E" d="M348.031,67.493c1.795-2.04,3.826-3.634,6.05-4.914c0.03-2.297,0.049-4.45,0.049-6.404
		c-4.35,4.782-9.855,13.846-12.723,21.872C343.351,74.354,345.299,70.603,348.031,67.493z"/>
	<path fill="#E8B34E" d="M462.177,200.322c7.85-1.382,12.799-11.486,8.669-18.743c-1.387-2.438-3.963-5.42-7.112-5.131
		c-0.491,0.051-0.943,0.159-1.368,0.33c2.914-0.36,5.93,1.137,6.488,7.268c0.514,5.641-0.791,11.335-4.566,14.758
		C463.617,199.415,462.904,199.893,462.177,200.322z"/>
	<path fill="#E8B34E" d="M456.179,213.311c-8.374,0.816-13.452-5.725-16.176-12.863c-3.925-10.268-4.999-21.534-6.268-32.372
		c-0.148-1.293-0.281-2.633-0.408-3.987c0.26,6.657,0.408,12.808,0.652,17.764c0.41,8.171,0.421,23.761,6.681,30.214
		c7.671,7.918,21.227,3.227,28.668-4.338C465.647,210.752,461.255,212.823,456.179,213.311z"/>
	<path fill="#E8B34E" d="M442.17,163.288c-0.262-5.441-1.396-10.694-2.756-15.914c0.692,11.778,0.969,19.133,2.003,32.407
		c0.425,5.511,0.88,12.812,5.063,16.957c2.825,2.789,5.644,3.492,8.508,3.118c-2.167-0.839-3.747-2.308-4.894-4.257
		c-4.217-3.245-5.871-12.222-6.529-16.719C442.809,173.709,442.422,168.506,442.17,163.288z"/>
	<path fill="#FFFFFF" d="M407.128,107.175c4.454,1.248,8.235-0.333,10.604-3.141c-1.497,4.214-5.535,5.969-10.978,5.444
		c-7.214-0.697-13.175-6.851-13.397-12.071c2.766,0.251,5.537,0.519,8.303,0.794C400.257,101.896,403.628,106.198,407.128,107.175z"
		/>
	<path fill="#C294CC" d="M392.772,95.395c0.368-7.879,7.461-17.311,16.587-15.962c7.201,1.069,9.254,9.581,8.73,16.162
		C410.795,95.774,400.521,95.594,392.772,95.395z"/>
	<path fill="#FFFFFF" d="M357.715,103.949c3.796,1.598,7.32,0.523,10.124-1.322c-5.702,6.149-12.15,4.899-16.03,3.05
		c-2.864-1.359-5.661-4.72-6.013-8.498c2.11-0.524,5.092-1.228,8.258-1.406C353.636,98.421,354.579,102.626,357.715,103.949z"/>
	<path fill="#C294CC" d="M345.273,95.175c-0.793-8.182,5.556-18.511,15.546-17.496c7.359,0.754,10.976,8.698,10.272,15.197
		C363.303,91.787,350.017,94.016,345.273,95.175z"/>
	<path fill="#AC6EB3" d="M409.359,79.433c-1.007-0.144-1.988-0.144-2.946-0.046c2.512,1.11,4.591,3.241,5.886,6.666
		c1.142,3.026,1.73,6.287,1.884,9.603c1.358-0.012,2.684-0.03,3.906-0.062C418.613,89.014,416.56,80.502,409.359,79.433z"/>
	<path fill="#AC6EB3" d="M360.818,77.679c-2.015-0.201-3.87,0.07-5.551,0.676c3.961,0.688,7.533,2.881,9.834,6.753
		c1.408,2.378,2.261,4.914,2.639,7.506c1.191,0.034,2.32,0.121,3.35,0.262C371.794,86.377,368.177,78.433,360.818,77.679z"/>
	<path fill="#FFC7B0" d="M373.87,189.105c-4.815-6.023-9.246-15.523-12.477-22.542c-0.58-9.899-4.919-47.045-6.046-56.742
		c0.818,0.141,1.632,0.212,2.436,0.212c1.54,2.61,1.55,6.015,1.478,8.812c-0.023,0.996,3.141-3.659,0.979-9.054
		c1.013-0.14,2.367-0.719,3.466-1.267c0.451,5.788,5.262,8.134,5.04,7.685c-0.907-1.897-3.012-5.762-3.697-8.43
		c1.115-0.667,2.176-1.474,3.157-2.367c1.749,3.895,7.763,3.887,7.22,3.6c-1.958-1.021-4.42-2.865-6.107-4.703
		c0.863-0.92,1.618-1.917,2.254-2.972c2.595,2.87,6.372,2.256,5.744,1.963c-1.825-0.86-3.502-1.901-5.078-3.129
		c4.739-9.838-1.233-28.544-16.8-24.591c1.098-6.855,0.696-16.894,0.398-20.636c4.316-4.689,6.894-1.608,8.529,0.528
		c1.472,1.919,2.713,4.819,3.566,7.236c0.336,0.958,0.852-0.709,0.751-2.82c-0.345-7.216-5.018-14.655-12.653-10.027
		c0.239-3.868,0.81-7.728,2.523-11.175c1.732-3.471,4.712-6.046,8.905-6.319c2.032-0.135,3.788,2.091,5.666,2.42
		c4.695,0.811,7.146-3.717,7.742,0.87c0.869,6.874,4.001,12.535,11.536,14.231c2.961,0.659,5.577,0.829,8.125,2.205
		c-8.093,1.616-13.472,6.592-17.189,12.913c-1.225,2.092-1.298,4.42-0.598,3.618c4.392-5.026,13.05-13.749,21.677-13.091
		c1.584,2.201,2.614,4.928,3.475,7.347c1.567,4.411,2.775,9.057,2.863,13.752c-13.224-0.353-18.959,10.174-19.52,18.902
		c-2.145,0.192-4.253,0.399-6.305,0.633c-0.385,0.046-0.311,0.437,0.03,0.586c1.592,0.692,4.139,0.868,6.421,0.606
		c0.011,1.104,0.355,2.372,0.66,3.058c-1.62,1.595-3.821,2.914-6.188,4.147c-0.358,0.177,0.856,0.409,1.489,0.347
		c2.381-0.22,3.948-1.315,5.044-3.335c0.495,1.378,1.222,2.637,2.121,3.793c-1.457,1.828-3.422,3.746-5.236,4.814
		c-0.632,0.373,0.857,0.449,2.199,0c1.58-0.531,3.223-1.49,3.764-3.951c1.1,1.221,2.394,2.29,3.815,3.193
		c-0.727,3.304-1.518,5.062-3.297,7.641c-0.271,0.396,0.723,0.584,1.514-0.116c2.366-2.104,3.375-3.762,2.986-6.833
		c1.667,0.909,3.464,1.595,5.291,2.052c-0.802,1.534-0.833,3.552-0.543,5.393c0.476,3.033,3.767,4.523,3.507,4.042
		c-0.77-1.447-2.546-7.118-1.914-9.202c1.043,0.325,2.984,0.319,4.16,0.15c0.129,4.397,2.03,5.885,3.819,6.674
		c0.791,0.351,1.622-0.044,1.455-0.204c-1.889-1.723-3.472-5.148-3.452-6.879c1.258-0.416,2.386-1.064,3.379-1.88
		c0.51,1.192,1.516,2.275,2.699,3.071c-0.192,3.861-0.199,7.755-0.163,11.646c-6.097,20.375-15.362,47.494-22.476,60.779
		C388.904,199.042,380.853,197.835,373.87,189.105z"/>
	<path fill="#E0A791" d="M366.113,58.366c-0.529-1.067-1.112-2.076-1.747-2.897c-1.635-2.136-4.213-5.218-8.529-0.528
		c0.102,1.289,0.214,3.333,0.283,5.733C359.346,58.676,362.649,57.527,366.113,58.366z"/>
	<path fill="#E0A791" d="M406.751,59.902c-0.639-1.528-1.377-3.042-2.333-4.371c-5.42-0.416-10.859,2.88-15.235,6.636
		C394.587,59.246,400.902,58.197,406.751,59.902z"/>
	<path fill="#E0A791" d="M366.443,36.592c3.128,0.117,5.666,2.584,8.889,2.4c2.032-0.113,3.957-0.668,5.894-1.185
		c-0.146-0.7-0.275-1.42-0.36-2.152c-0.596-4.587-3.047-0.059-7.742-0.87c-1.878-0.328-3.635-2.554-5.666-2.42
		c-4.192,0.273-7.173,2.848-8.905,6.319c-0.231,0.469-0.438,0.943-0.633,1.425C360.293,37.937,363.385,36.475,366.443,36.592z"/>
	<path fill="#E0A791" d="M399.952,51.808c-2.371-1.109-4.813-1.31-7.55-1.923c-5.15-1.159-8.224-4.19-9.948-8.183
		C383.057,49.323,392.84,54.67,399.952,51.808z"/>
	<path fill="#E0A791" d="M369.309,106.954c-0.444-0.429-0.833-0.933-1.104-1.545c-0.981,0.894-2.041,1.701-3.157,2.367
		c0.228,0.879,0.613,1.89,1.057,2.922C367.284,109.59,368.357,108.325,369.309,106.954z"/>
	<path fill="#E0A791" d="M364.595,111.969c-0.444-0.98-0.789-2.119-0.89-3.447c-1.098,0.548-2.453,1.127-3.466,1.267
		c0.62,1.561,0.799,3.057,0.736,4.372C362.249,113.599,363.453,112.847,364.595,111.969z"/>
	<path fill="#E0A791" d="M392.44,101.701c0.125,1.707,0.459,3.353,1.034,4.87c0.362-0.403,0.713-0.801,1.034-1.204
		C393.642,104.25,392.927,103.022,392.44,101.701z"/>
	<path fill="#E0A791" d="M400.251,110.114c0.173,1.367,0.048,2.441-0.322,3.415c0.768,0.349,1.577,0.656,2.478,0.884
		c0.799,0.203,1.616,0.357,2.453,0.485c0.061-0.984,0.256-1.926,0.683-2.731C403.715,111.709,401.919,111.023,400.251,110.114z"/>
	<path fill="#E0A791" d="M418.343,113.098c-1.039-0.772-1.927-1.755-2.39-2.838c-0.992,0.816-2.121,1.464-3.379,1.88
		c-0.01,0.676,0.233,1.618,0.637,2.611C415.006,114.413,416.731,113.864,418.343,113.098z"/>
	<path fill="#E0A791" d="M398.174,112.561c0.33-0.913,0.605-1.924,0.875-3.14c-1.421-0.903-2.715-1.972-3.815-3.193
		c-0.193,0.892-0.537,1.575-0.964,2.124C395.181,110.016,396.475,111.445,398.174,112.561z"/>
	<path fill="#E0A791" d="M386.889,131.902c-1.726-3.568-6.222-6.129-8.648-3.285c0.049,0.168,0.038,0.358-0.078,0.559
		c-1.732,2.906-3.299,7.882-0.116,10.411c3.352,2.671,9.335-0.335,9.548-4.589c0.023-0.435-0.027-0.876-0.11-1.318
		C387.069,133.179,386.916,132.56,386.889,131.902z"/>
	<path fill="#E0A791" d="M386.652,164.883c-3.034-1.874-6.408-3.207-10.001-3.412c-1.377-0.07-7.984-0.581-7.468,2.227
		c0.121,0.649-0.514,1.032-0.983,0.924c0.516,5.638,2.343,11.468,5.482,16.138c3.729,5.562,11.708,12.442,17.946,6.426
		C398.341,180.717,393.367,169.024,386.652,164.883z"/>
	<path fill="#E0A791" d="M388.837,128.041c-0.07,0.857-0.366,2.218-0.296,3.377c0.213,0.477,0.372,0.98,0.476,1.486
		c0.121,0.158,0.266,0.288,0.446,0.395c0.442,0.25,1.049,0.517,1.396,0.896c0.893,0.977,1.231,2.156,1.284,3.484
		c0.243,6.708-7.956,7.386-12.841,6.163c-3.305-0.826-11.826-3.563-11.693-8.279c-3.268,11.371,12.179,16.141,20.875,11.704
		c5.236-2.666,8.977-7.982,5.424-13.553c-1.578-2.475-3.511-4.692-5.05-7.18C388.875,127.046,388.875,127.554,388.837,128.041z"/>
	<path fill="#E0A791" d="M411.091,115.053c-0.18-0.712-0.307-1.524-0.338-2.503c-1.176,0.169-3.117,0.175-4.16-0.15
		c-0.19,0.64-0.159,1.615,0,2.695C408.078,115.214,409.594,115.2,411.091,115.053z"/>
	<path fill="#E0A791" d="M357.783,110.032c-0.804,0-1.618-0.07-2.436-0.212c0.156,1.364,0.383,3.285,0.653,5.589
		c1.076-0.071,2.136-0.269,3.168-0.578C359.003,113.145,358.631,111.467,357.783,110.032z"/>
	<path fill="#FFC7B0" d="M382.217,224.308c2.087-3.791,1.618-19.785,0.791-24.579c1.489,0.159,2.973-0.095,4.405-0.665
		c-2.297,14.792,0.696,24.318,1.787,26.904c1.087,2.581,4.236,4.889,5.443,5.641c0.358,5.834,0.759,11.752-1.017,17.86
		c-1.502,5.16-6.385,10.833-12.458,9.516c-10.995-2.384-9.908-18.462-10.231-27.948C377.48,228.762,380.458,227.505,382.217,224.308
		z"/>
	<path fill="#E0A791" d="M386.72,205.438c0.131-2.002,0.341-4.121,0.693-6.375c-1.432,0.57-2.916,0.824-4.405,0.665
		c0.228,1.332,0.431,3.542,0.558,6.101C384.614,205.789,385.664,205.643,386.72,205.438z"/>
	<path fill="#E0A791" d="M385.197,254.789c-0.288-1.209-0.861-2.875-2.39-1.944c-1.939,1.17-1.4,4.263-1.148,6.214
		c1.368,0.21,2.673,0.083,3.889-0.318C385.557,257.419,385.523,256.101,385.197,254.789z"/>
	<path fill="#E0A791" d="M371.385,233.019c-0.032,0.002-0.057-0.005-0.085-0.005c-0.108,0.027-0.21,0.047-0.313,0.076
		c0.023,1.085,0.04,2.226,0.066,3.405c1.798-0.663,3.553-1.428,5.295-2.248C374.879,233.025,373.424,232.683,371.385,233.019z"/>
	<path fill="#E0A791" d="M391.501,234.658c-0.704-0.108-2.531-0.58-3.086,0.102c-0.516,0.627,1.273,2.085,1.654,2.405
		c1.51,1.298,3.198,2.308,4.858,3.387c0.046-1.604,0.013-3.194-0.057-4.787c-0.045-0.02-0.091-0.028-0.131-0.058
		C393.79,235.025,392.631,234.832,391.501,234.658z"/>
	<path fill="#FFC3DC" d="M363.602,254.263c-0.08-6.903,3.604-17.485,2.396-22.091c1.119-0.313,2.32-0.457,3.631-0.782
		c-0.804,11.28-0.778,29.864,13.085,30.791c5.099,0.333,9.546-4.197,11.832-8.672c2.908-5.699,2.557-14.506,1.994-20.955
		c0.423,0.238,2.223,1.736,2.624,1.964c-0.11,8.688,0.645,18.565,3.47,26.673c1.294,3.708,3.802,6.553,7.013,8.883
		c2.094,1.518,4.073,1.273,3.716,2.318c-2.396,7.095-11.598,8.846-17.86,6.773c2.84-5.654-7.592-5.938-10.155-11.434
		c-0.368-0.794-0.503,1.659,1.144,3.603c4.078,4.836,7.391,3.602,7.391,5.872c0,2.017-5.215,7.115-9.179,8.405
		c-1.884,0.613,4.894,1.503,9.559-4.798c0.214,0.114,1.297,0.626,1.508,0.72c-1.455,1.771-4.706,9.656-6.478,15.366
		c-4.041-1.973-7.998-4.889-11.403-7.96C369.383,281.248,363.717,264.546,363.602,254.263z"/>
	<path fill="#69CCFF" d="M344.136,420.895c-8.876-15.005-3.944-41.02,7.694-53.559c3.451,5.635,16.462,5.738,23.217,6.021
		c7.461,0.32,22.049-0.207,29.506-2.934c-5.454,4.908-11.452,8.182-18.959,11.686c-7.77,3.629-15.407,7.294-22.159,12.648
		C356.905,399.924,346.194,410.235,344.136,420.895z"/>
	<path fill="#54BAE6" d="M342.816,401.179c-0.525-5.5-0.444-11.066,0.514-16.512c0.556-3.189,1.69-6.197,2.819-9.218
		c-7.302,13.609-9.267,33.191-2.013,45.446c0.366-1.909,1.019-3.809,1.872-5.664C344.394,410.698,343.273,405.997,342.816,401.179z"
		/>
	<path fill="#FFC7B0" d="M365.035,495.356c3.094-13.982,9.206-21.046,9.113-33.632c-0.138-19.146-18.059-31.858-20.275-53.464
		c1.487-1.884,3.106-3.68,4.853-5.364c5.482-2.934,10.822-5.328,16.329-7.198c0.884,9.719,1.078,19.385,1.358,29.14
		c0.212,7.627,1.897,19.182,5.173,23.168c-1.523,4.239-4.213,11.351-3.959,15.738c0.14,2.419,2.864,4.689,4.037,8.443
		c-4.335,11.953-7.224,23.714-9.358,35.682c-1.447,8.151-1.263,21.505,0.159,31.061c-1.324-0.447-3.274-0.884-4.792-1.821
		C368.46,523.09,361.913,509.449,365.035,495.356z"/>
	<path fill="#FF8F99" d="M366.443,563.438c-1.06,0.62-2.741,0.706-3.627,0.09c-1.237-7.701,0.095-17.614,4.426-23.806
		c0.618,0.255,5.507,2.17,6.994,2.297c0.529,7.52,4.866,16.02,7.434,19.034c-1.415,2.033-3.803,4.157-5.843,5.834
		c-4.041-5.401-5.68-11.552-7.434-17.965C366.36,550.514,366.563,559.734,366.443,563.438z"/>
	<path fill="#FF8F99" d="M405.212,581.579c-6.903,1.686-14.69-1.056-19.059-5.619c1.322-1.005,3.599-2.733,4.989-4.474
		C394.175,576.052,400.1,579.533,405.212,581.579z"/>
	<path fill="#FF8F99" d="M401.674,570.962c-1.062,0.443-2.567,0.353-3.365,0c-0.707-2.478-1.058-7.433-1.415-9.647
		c-2.419,1.212-4.568,3.827-6.209,5.918c-2.566,3.265-5.351,5.89-8.827,8.206c-5.85,3.89-14.956,7.511-22.832,8.148
		c14.21-8.098,25.541-20.819,34.67-34.238c1.319,1.917,3.551,3.547,5.632,3.116C398.671,560.602,401.318,569.582,401.674,570.962z"
		/>
	<path fill="#CF6F7C" d="M363.77,563.875c0.869,0.154,1.925,0.004,2.673-0.437c0.101-3.053-0.015-9.835,1.066-13.024
		C364.423,553.693,363.529,558.949,363.77,563.875z"/>
	<path fill="#CF6F7C" d="M374.684,565.21c0.364,0.564,0.732,1.131,1.144,1.677c2.039-1.677,4.428-3.802,5.843-5.834
		c-0.44-0.51-0.926-1.192-1.434-1.99C378.519,561.239,376.706,563.329,374.684,565.21z"/>
	<path fill="#CF6F7C" d="M393.382,574.165c-0.84-0.849-1.607-1.731-2.24-2.679c-1.39,1.742-3.667,3.469-4.989,4.474
		c0.854,0.883,1.835,1.697,2.903,2.433C390.624,577.127,392.055,575.703,393.382,574.165z"/>
	<path fill="#CF6F7C" d="M397.601,562.586c-0.222-0.376-0.467-0.732-0.683-1.11c0.34,2.272,0.698,7.061,1.39,9.486
		c0.651,0.289,1.76,0.376,2.732,0.168C399.715,568.357,398.573,565.505,397.601,562.586z"/>
	<path fill="#FFC7B0" d="M408.583,411.007c-1.713,7.925-6.732,22.59-10.268,29.827c-5.835,11.949-11.063,17.346-8.233,22.741
		c2.515,4.796,5.659,7.692,10.35,15.691c4.707,8.016,6.659,17.25,5.443,26.365c-1.925,14.429-7.203,28.952-6.311,43.875
		c-1.869,0.387-3.642-0.676-4.614-1.908c1.415-4.779,0.493-13.493,0.083-20.089c-0.455-7.502-1.277-15.406-2.388-22.84
		c-1.094-7.359-2.339-15.509-4.338-22.678c-0.935-3.351-2.075-6.643-3.28-9.904c-1.356-3.673-5.401-7.24-4.498-11.255
		c2.474-10.972,10.071-26.121,13.44-39.484c2.242-8.877,3.635-21.054-0.488-29.938c5.547-1.206,13.55-2.693,18.632-0.452
		C410.972,397.993,409.867,405.052,408.583,411.007z"/>
	<path fill="#E0A791" d="M365.902,410.671c3.195-1.705,6.478-3.309,9.846-4.706c-0.175-3.422-0.387-6.839-0.693-10.267
		c-5.507,1.87-10.847,4.264-16.329,7.198c-1.747,1.684-3.365,3.48-4.853,5.364c0.334,3.285,1.044,6.356,1.983,9.278
		C358.895,414.811,362.404,412.543,365.902,410.671z"/>
	<path fill="#E0A791" d="M376.416,466.114c0.376,4.513,1.44,8.915,2.834,13.219c0.751-2.375,1.552-4.751,2.415-7.148
		c-1.172-3.754-3.897-6.024-4.037-8.443c-0.254-4.387,2.436-11.499,3.959-15.738c-0.472-0.572-0.903-1.312-1.303-2.156
		C377.654,452.298,375.828,459.088,376.416,466.114z"/>
	<path fill="#E0A791" d="M399.472,546.19c-1.366-0.596-2.66-1.346-3.906-2.218c-0.114,1.347-0.311,2.588-0.616,3.626
		c0.971,1.232,2.745,2.295,4.614,1.908C399.499,548.398,399.472,547.295,399.472,546.19z"/>
	<path fill="#E0A791" d="M410.366,401.579c0.59-3.447,1.163-7.037,1.747-10.62c-5.082-2.24-13.085-0.754-18.632,0.452
		c1.335,2.88,2.085,6.109,2.423,9.456C400.849,400.488,405.671,400.764,410.366,401.579z"/>
	<path fill="#3DB3ED" d="M409.858,368.482c3.058,4.486,7.603,13.032,7.781,23.031c-1.493-4.578-10.119-4.878-19.818-3.454
		c-11.826,1.732-24.274,4.669-34.723,10.543c7.637-8.002,18.729-11.092,30.03-17.384
		C398.698,378.116,406.916,372.783,409.858,368.482z"/>
	<path fill="#129AD4" d="M386.191,389.058c8.576-5.12,17.75-9.915,22.307-18.896c-3.627,3.937-10.504,8.351-15.369,11.056
		c-11.301,6.292-22.392,9.382-30.03,17.384c6.194-3.485,13.089-5.918,20.137-7.693C384.201,390.274,385.184,389.658,386.191,389.058
		z"/>
	<path fill="#129AD4" d="M409.164,384.626c-5.936-0.881-12.283,2.254-18.168,4.594c2.284-0.432,4.57-0.832,6.826-1.161
		c7.254-1.063,13.895-1.165,17.422,0.766C413.662,386.631,411.672,384.997,409.164,384.626z"/>
	<path fill="#FFC3DC" d="M397.029,334.787c5.346,10.547,9.707,19.274,10.445,30.706c-14.372,5.654-46.549,6.566-54.01,0.562
		c2.908-5.27,6.727-14.718,6.664-42.885c-0.034-18.309-3.993-37.344-2.969-55.71c4.678,17.554,12.194,29.674,30.828,37.874
		C386.944,315.468,392.555,325.977,397.029,334.787z"/>
	<path fill="#E69FC3" d="M387.944,285.53c1.774,0.473,3.644,0.606,5.49,0.393c0.924-2.07,1.766-3.703,2.335-4.392
		c-0.211-0.094-1.294-0.606-1.508-0.72C392.259,283.517,389.871,284.888,387.944,285.53z"/>
	<path fill="#E69FC3" d="M399.641,279.934c0.205-1.508,0.061-3.006-0.988-4.047c-1.372-1.373-3.291-1.89-5.099-2.447
		c-0.892-0.277-1.777-0.572-2.633-0.901c3.255,1.8,6.273,3.263,4.581,6.625C396.786,279.59,398.186,279.846,399.641,279.934z"/>
	<path fill="#E69FC3" d="M373.331,258.839c3.715,6.04,11.272,7.001,16.041,1.59c0.457-0.526,0.876-1.077,1.286-1.645
		c-2.233,2.131-4.974,3.594-7.945,3.397c-7.613-0.507-11.046-6.344-12.469-13.374C370.632,252.397,371.493,255.847,373.331,258.839z
		"/>
	<path fill="#E69FC3" d="M371.787,300.789c4.801,3.997,10.305,6.097,16.089,7.153c-0.008-0.868,0.023-1.745,0.112-2.607
		c-18.634-8.2-26.15-20.32-30.828-37.874c-0.133,2.455-0.18,4.922-0.156,7.397C359.883,284.602,363.89,294.214,371.787,300.789z"/>
	<path fill="#E69FC3" d="M364.148,325.215c0.123-7.256-2.134-14.154-5.057-20.779c0.562,6.292,1.028,12.553,1.038,18.734
		c0.019,7.999-0.279,14.47-0.774,19.784C362.137,337.394,364.032,331.438,364.148,325.215z"/>
	<path fill="#E69FC3" d="M387.665,368.513c-8.92,0.955-17.35-0.457-25.467-4.265c-2.115-0.993-4.304-2.108-6.359-3.423
		c-0.799,2.201-1.62,3.86-2.375,5.23c7.461,6.003,39.638,5.092,54.01-0.562c-0.078-1.246-0.218-2.456-0.383-3.646
		C401.433,365.365,395.052,367.722,387.665,368.513z"/>
	<path fill="#FFC7B0" d="M415.088,309.863c-13.137-0.877-25.475-4.054-36.149-12.274c-9.417-7.252-15.645-17.391-19.014-28.639
		c-1.226-4.093-2.396-7.183-2.396-13.772c0-6.586,2.512-18.125,3.16-19.7c1.034-2.509,3.699-4.256,3.538-1.093
		c-0.167,3.156-2.523,13.132-2.625,18.952c-0.15,9.126,2.648,23.414,13.535,35.98c12.665,14.608,41.423,21.455,58.661,11.929
		c0.33,0.656,0.582,1.363,1.021,1.957c0.389,0.519,0.768-2.355-1.721-8.678c-1.956-4.959-9.388-23.564-8.142-24.91
		c1.244-1.34,17.767,0.299,18.849,0.322c2.153,0.055,12.384,0.35,15.647-0.23c-0.772,7.575-18.972,3.586-23.874,2.321
		c-0.345-0.087,0.341,0.806,2.218,1.419c5.562,1.818,13.894,3.643,19.945,1.202c0.844,2.344-1.472,3.928-3.847,4.163
		c-5.329,0.532-14.609-1.859-18.01-2.586c2.202,4.312,9.235,7.613,15.039,9.677c4.879,1.739,9.773,2.581,13.414,2.104
		c0.383,2.208-0.396,4.759-5.04,3.961c-4.636-0.796-12.958-5.004-17.957-7.791c-0.865-0.48,0.795,1.423,2.4,2.49
		c4.594,3.064,8.525,4.787,13.41,6.807c-1.243,2.395-6.226,3.352-15.516-4.214c-2.882-4.889-6.516-5.749-5.64-4.577
		c1.848,2.457,3.439,4.677,4.56,7.432c1.298,3.201,2.223,7.683-1.324,11.995C435.686,308.423,421.673,310.304,415.088,309.863z"/>
	<path fill="#FF9FC7" d="M480.015,309.596c-3.056,3.44-36.227,8.336-37.145,8.113c-0.918-0.212-2.115-6.655-2.396-10.631
		c1.927-1.548,4.796-5.272,2.701-14.031c1.994,1.53,4.217,2.771,6.476,3.666c2.864,1.154,8.709,2.511,9.99-2.669
		c4.321,0.895,8.123-2.88,6.533-7.654c-0.15-0.455-0.708-0.786-1.199-0.734c-9.36,1.019-20.954-3.006-25.843-7.799
		c5.78,2.366,12.249,4.182,18.207,1.908c1.745-0.653,4.361-3.563,2.206-5.457c0.668-0.543,3.253-4.308,1.15-6.417
		c-4.781,1.211-24.553-0.774-27.116-0.863c-0.095-5.074-4.276-37.544-4.293-38.175c-0.015-0.626,41.269-5.044,41.941-4.661
		c0.675,0.382,1.14,10.489,1.347,14.326c-6.158,1.778-13.524,5.015-18.708,7.947c-0.859,0.489-0.943,1.465-0.601,2.046
		c2.766,4.668,8.69,4.328,14.411,1.472c-5.27,4.216-10.604,8.367-16.195,12.326c-0.416,0.296-0.533,1.181-0.207,1.676
		c4.841,7.347,17.045-0.763,22.218-6.746c-3.813,5.715-12.023,15.85-11.76,16.603c1.298,3.628,5.226,2.846,7.833,1.424
		c2.28-1.252,4.166-3.263,5.812-5.469c-2.35,4.99-9.992,12.477-9.582,13.034c2.938,3.975,8.049,1.293,10.891-1.904
		C477.209,284.908,480.944,308.561,480.015,309.596z"/>
	<path fill="#CF7596" d="M452.317,227.693c4.094-0.58,11.041-2.145,14.996-3.281c-9.062,0.768-31.109,3.171-36.701,4.118
		C434.356,229.088,444.843,228.762,452.317,227.693z"/>
	<path fill="#CF7596" d="M443.111,241.886c-1.193-2.494-1.17-5.498,0.057-7.746c-1.872,1.107-2.868,4.394-2.191,7.001
		c1.023,3.959,3.76,6.175,7.142,6.357c2.553,0.138,4.13-0.973,5.014-2.087C447.701,247.728,444.374,244.533,443.111,241.886z"/>
	<path fill="#CF7596" d="M454.17,266.419c2.815,2.689,8.189,1.58,13.061-0.546c2.218-2.964,4.64-6.198,6.262-8.632
		C469.156,262.244,459.907,268.737,454.17,266.419z"/>
	<path fill="#CF7596" d="M472.01,274.944c1.37-1.772,2.631-3.581,3.369-5.147c-1.647,2.206-3.532,4.217-5.812,5.469
		c-0.901,0.49-1.962,0.902-3.016,1.085C468.214,276.61,470.264,275.859,472.01,274.944z"/>
	<path fill="#CF7596" d="M468.686,284.725c0.717,0.805,1.573,1.42,2.846,1.402c1.893-0.038,3.644-0.674,5.224-1.703
		c0.14-0.087,0.262-0.187,0.396-0.271c-0.216-1.464-0.381-2.588-0.465-3.225C474.641,283.226,471.423,285.249,468.686,284.725z"/>
	<path fill="#CF7596" d="M445.611,298.919c0.046-0.526,0.45-0.811,0.958-0.731c2.919,0.465,6.308,1.869,8.905-0.467
		c-2.037,0.245-4.333-0.405-5.822-1.007c-2.259-0.895-4.483-2.136-6.476-3.666c2.094,8.759-0.774,12.483-2.701,14.031
		c0.006,0.032,0.006,0.072,0.009,0.11C443.367,305.536,445.288,302.914,445.611,298.919z"/>
	<path fill="#CF7596" d="M457.046,279.867c-5.875,2.101-12.228,0.318-17.913-2.01c0.871,0.852,1.954,1.673,3.198,2.455
		C447.25,282.459,453.802,282.857,457.046,279.867z"/>
	<path fill="#CF7596" d="M447.476,317.189c7.652-1.083,22.756-3.644,29.441-6.003C472.068,310.772,452.924,314.363,447.476,317.189z
		"/>
	<path fill="#CF7596" d="M463.357,294.34c0.305-0.385,0.561-0.773,0.808-1.167c-1.235,0.848-2.842,1.221-4.524,0.872
		c-0.22,0.902-0.59,1.593-1.047,2.132C460.362,295.983,461.955,296.083,463.357,294.34z"/>
	<path fill="#CF7596" d="M453.975,249.505c-0.192,3.987,4.659,4.889,8.749,4.394c1.658-1.302,3.31-2.605,4.953-3.915
		C462.399,252.612,456.955,253.097,453.975,249.505z"/>
	<path fill="#FFC7B0" d="M474.618,280.325c-4.723,4.433-7.152,2.31-6.658,1.815c4.896-4.851,12.363-15.993,12.932-21.228
		C486.892,262.002,480.235,275.051,474.618,280.325z"/>
	<path fill="#E86CB8" d="M468.506,271.331c-0.381-0.877-1.04-1.637-1.861-2.125c-1.011,1.352-2.02,2.697-3.005,4.03
		C465.103,274.778,468.022,272.482,468.506,271.331z"/>
	<path fill="#E86CB8" d="M460.65,261.189c-0.491-0.73-1.125-1.394-1.787-1.825c-3.094,2.25-5.553,3.869-5.342,4.188
		C454.895,265.579,459.802,263.497,460.65,261.189z"/>
	<path fill="#E86CB8" d="M461.701,247.43c0.26-0.72-0.155-1.776-0.709-2.82c-2.204,0.957-4.262,1.906-6.082,2.946
		C456.077,249.199,461.324,248.499,461.701,247.43z"/>
	<path fill="#E86CB8" d="M454.297,272.059c0.404,0.572,4.892,0.225,5.154-2.351c-1.151,0.207-3.181,0.299-5.408,0.337
		C453.863,270.656,454.016,271.415,454.297,272.059z"/>
	<path fill="#E86CB8" d="M464.359,289.681c0.093-0.536,0.068-1.116-0.023-1.673c-1.588,0.217-3.413,0.156-5.371-0.103
		C458.583,289.832,462.088,290.903,464.359,289.681z"/>
	<path fill="#E86CB8" d="M453.333,277.505c2.891,0.458,4.64-2.208,4.407-2.855c-1.523,0.617-3.193,0.95-4.93,1.088
		C452.66,275.753,452.63,277.393,453.333,277.505z"/>
	<path fill="#E86CB8" d="M472.569,279.892c-0.389-0.515-0.897-0.952-1.501-1.251c-1.091,1.349-2.144,2.549-3.109,3.499
		C467.512,282.582,471.752,281.998,472.569,279.892z"/>
	<path fill="#E86CB8" d="M452.922,293.726c1.095,0.602,3.711,0.751,4.227-0.251c-1.666-0.687-3.21-1.34-4.724-2.025
		C452.474,292.222,452.491,293.113,452.922,293.726z"/>
	<path fill="#E0A791" d="M480.874,242.578c-0.104-0.425-0.359-0.714-0.812-0.809c-4.376,5.644-11.875,10.273-17.377,14.691
		c-1.108,0.897-2.239,1.745-3.312,2.529C458.588,259.57,473.81,253.769,480.874,242.578z"/>
	<path fill="#E0A791" d="M452.444,275.779c-5.018,0.324-10.521-0.985-14.571-2.308c1.514,1.5,4.244,2.419,7.617,3.046
		C448.627,277.096,451.806,276.439,452.444,275.779z"/>
	<path fill="#E0A791" d="M443.012,286.128c1.032,1.5,2.538,3.156,5.298,4.394c2.204,0.991,3.61,0.702,3.365,0.584
		c-2.639-1.229-5.169-2.593-7.937-4.44C443.494,286.505,443.245,286.324,443.012,286.128z"/>
	<path fill="#E0A791" d="M370.218,288.963c2.532,3.176,5.424,6.086,8.721,8.627c4.536,3.492,9.367,6.066,14.442,7.947
		C391.117,302.631,372.333,288.948,370.218,288.963z"/>
	<path fill="#E0A791" d="M483.044,262.753c-0.317-0.965-0.99-1.629-2.153-1.841c-0.375,3.463-3.773,9.502-7.442,14.604
		C477.454,272.255,480.827,267.619,483.044,262.753z"/>
	<path d="M455.642,233.244c-2.191-3.876-7.785-3.638-10.504-0.359c-2.172,2.612-2.142,6.723-0.372,9.204
		C450.061,249.474,460.22,241.335,455.642,233.244z"/>
	<path fill="#C7C7C7" d="M447.836,242.887c-3.244-1.264-4.333-6.289-1.986-9.133c2.661-3.209,7.393-2.828,8.851,0.433
		C456.651,238.559,453.233,244.987,447.836,242.887z"/>
	<path fill="#F1F1F1" d="M452.675,232.079c-2.341,3.044-4.612,6.135-6.82,9.265c0.516,0.682,1.18,1.225,1.98,1.543
		c0.201,0.074,0.385,0.119,0.581,0.17c1.244-2.024,2.601-3.983,4.054-5.87c0.717-1.001,1.482-1.959,2.257-2.906
		c-0.006-0.028-0.013-0.06-0.027-0.093C454.271,233.222,453.546,232.524,452.675,232.079z"/>
	<path d="M453.554,235.067c-0.848-2.533-3.893-2.738-5.568-1.666c-3.542,2.256-1.823,9.157,2.781,8.016
		C453.195,240.811,454.582,238.163,453.554,235.067z"/>
	<path d="M389.968,131.697c0.101-1.336-0.36-3.108-0.949-4.157c-0.028-6.587-0.459-9.428-1.463-16.05
		c-0.328-2.194-2.432-5.403-2.108-3.72c1.005,5.224,1.305,10.842,1.4,16.275c-1.339-1.699-3.54-2.279-5.945-1.149
		c-3.722,1.747-5.913,6.109-5.443,10.023c0.649,5.369,6.273,8.58,10.487,4.366c1.709-0.202,3.217-1.109,3.485-2.561
		c1.842,2.961,0.668,5.515-1.571,7.074c-2.314,1.61-5.524,1.61-9.102,0.916c-2.329-0.449-4.67-1.163-6.746-2.26
		c-5.805-3.071-1.117-7.884,2.051-8.663c0.491-0.121,0.135-0.97-0.328-1.079c-0.013-0.009-0.03-0.009-0.051-0.014
		c0.719-12.282-1.531-16.343-1.512-15.946c0.224,5.769,0.027,10.306-0.88,15.807c-2.58,1.049-5.315,4.218-4.839,7.229
		c0.742,4.675,6.647,6.689,10.238,7.721c4.892,1.406,10.394,1.445,14.277-2.239C393.944,140.443,394.35,132.951,389.968,131.697z"/>
	<path fill="#D67975" d="M376.717,132.546c-0.279-4.276,1.599-6.437,3.802-8.219c2.085-1.695,4.891-0.906,5.473,0.65
		c-4.659-1.46-8.125,3.585-7.178,7.137c0.653,2.443,2.773,4.299,5.217,4.733C380.379,139.142,376.911,135.303,376.717,132.546z"/>
	<path fill="#BD5457" d="M377.542,129.81c0.211-2.575,2.421-5.512,5.031-6.367c-0.698,0.096-1.413,0.359-2.055,0.884
		c-2.202,1.781-4.08,3.943-3.802,8.219c0.18,2.582,3.231,6.106,6.613,4.668C380.028,136.35,377.231,133.502,377.542,129.81z"/>
	<path fill="#F0A19E" d="M380.949,132.213c-1.06-2.403,0.645-5.01,2.768-5.65c2.605-0.772,5.145,2.89,4.538,6.303
		C387.657,136.28,382.338,135.38,380.949,132.213z"/>
	<path fill="#DB7C78" d="M382.776,127.01c-1.641,1.015-2.72,3.176-1.827,5.203c1.083,2.456,4.519,3.545,6.291,2.31
		C384.332,133.477,381.615,129.692,382.776,127.01z"/>
	<path d="M394.314,161.606c1.425-1.41,2.599-3.203,3.367-5.467c0.176-0.536-0.562-0.993-0.954-0.581
		c-0.749,0.8-1.499,1.539-2.259,2.234c-2.468-0.948-4.092-2.092-6.05-4.255c-1.592-1.761-3.966-3.759-6.442-3.674
		c-1.793,0.056-2.732,2.232-3.361,3.582c-3.141,6.748-4.777-1.365-6.454-4.19c-0.273-0.47-0.867-0.702-1.33-0.315
		c-2.61,2.171-4.725,4.904-7.159,7.302c-0.603-0.284-1.216-0.571-1.844-0.828c-0.269-0.116-0.62,0.204-0.408,0.467
		c0.888,1.109,1.977,2.148,3.194,3.132c2.802,9.199,7.131,23.765,17.726,27.058C397.564,190.805,402.461,171.97,394.314,161.606z"/>
	<path fill="#C83D4D" d="M370.562,151.487c1.362-1.147,1.912,3.488,3.331,5.178c1.546,1.841,2.969,1.928,4.088,0.875
		c0.823-0.768,1.726-2.497,2.163-3.48c2.445-5.512,8.316,4.417,11.966,5.551c-2.529,1.691-5.941,3.272-9.489,3.334
		c-7.106,0.134-11.957-3.185-17.517-6.007C366.53,155.464,368.888,152.894,370.562,151.487z"/>
	<path fill="#A61345" d="M379.493,161.086c-4.682-0.372-9.798-2.051-13.004-5.599c-0.507,0.535-0.984,1.041-1.385,1.45
		c5.56,2.822,10.411,6.141,17.517,6.007c3.547-0.062,6.96-1.643,9.489-3.334c-0.681-0.206-1.434-0.725-2.235-1.387
		C386.864,160.229,383.414,161.403,379.493,161.086z"/>
	<path fill="#FFFFFF" d="M388.947,164.738c0.596-0.204,2.654-1.418,3.219-1.693c0.159,3.274-0.33,7.583-2.404,10.146
		C389.655,171.069,389.182,167.43,388.947,164.738z"/>
	<path fill="#FFFFFF" d="M375.847,164.637c1.667,0.462,5.01,0.967,5.01,0.993c0.127,3.362,0.453,6.254,0.776,9.251
		c-2.172-0.931-3.711-2.109-5.509-3.676c0-0.01,0.008-0.01,0.008-0.028C376.108,168.985,376.061,166.813,375.847,164.637z"/>
	<path fill="#FFFFFF" d="M381.835,165.639c2.092,0.11,4.28-0.102,6.18-0.576c0.11,3.167,0.389,5.905,0.82,8.895
		c-1.165,1.412-3.288,2.326-6.059,1.336C382.386,172.101,382.057,168.851,381.835,165.639z"/>
	<path fill="#FFFFFF" d="M375.359,170.51c-2.938-2.75-5.435-6.108-7.732-9.387c2.183,1.33,4.636,2.426,7.159,3.216
		C374.716,166.415,374.982,168.453,375.359,170.51z"/>
	<path fill="#FF6B75" d="M394.397,180.062c-3.946,7.226-12.812,5.232-17.942-0.058c-3.454-3.57-6.71-10.034-8.182-15.158
		c2.887,4.632,10.574,12.567,16.03,13.197c6.698,0.776,9.272-7.222,9.335-13.306C396.116,167.151,397.49,174.391,394.397,180.062z"
		/>
	<path fill="#FFFFFF" d="M414.889,98.076c-1.195,0-2.159,0.965-2.159,2.158c0,1.187,0.964,2.156,2.159,2.156
		c1.187,0,2.151-0.969,2.151-2.156C417.04,99.04,416.076,98.076,414.889,98.076z"/>
	<path fill="#FFFFFF" d="M411.505,98.076c-0.518,0-0.93,0.42-0.93,0.937c0,0.512,0.412,0.931,0.93,0.931
		c0.516,0,0.935-0.419,0.935-0.931C412.44,98.496,412.02,98.076,411.505,98.076z"/>
	<path fill="#FFFFFF" d="M367.724,94.625c-1.189,0-2.155,0.97-2.155,2.156c0,1.192,0.965,2.158,2.155,2.158
		c1.197,0,2.157-0.965,2.157-2.158C369.881,95.594,368.921,94.625,367.724,94.625z"/>
	<path fill="#FFFFFF" d="M364.345,94.625c-0.518,0-0.93,0.42-0.93,0.937c0,0.515,0.412,0.931,0.93,0.931
		c0.522,0,0.933-0.416,0.933-0.931C365.278,95.045,364.867,94.625,364.345,94.625z"/>
	<circle fill="#FFFFFF" cx="451.505" cy="235.295" r="1.373"/>
	<path fill="#FFFFFF" d="M449.632,233.271c-0.328,0-0.596,0.266-0.596,0.585c0,0.329,0.267,0.596,0.596,0.596
		c0.326,0,0.59-0.267,0.59-0.596C450.223,233.537,449.959,233.271,449.632,233.271z"/>
	<path d="M378.176,232.529c-2.113-1.946-5.998-3.123-8.798-2.165c-0.224,0.08-0.161,0.404,0.032,0.476
		c1.269,0.447,2.605,0.394,3.934,0.568c1.561,0.2,3.259,0.647,4.659,1.399C378.165,232.895,378.311,232.651,378.176,232.529z"/>
	<path d="M395.978,232.703c-0.569-1.049-1.941-0.977-3.005-0.989c-1.855-0.024-3.547,0.591-5.34,0.975
		c-0.165,0.028-0.118,0.292,0.051,0.28c1.616-0.128,3.272-0.148,4.887-0.136c1.055,0.008,2.221,0.578,3.231,0.249
		C395.959,233.036,396.074,232.863,395.978,232.703z"/>
	<path d="M395.794,235.683c-0.804-0.722-1.891-0.505-2.923-0.658c-1.269-0.193-2.54-0.275-3.822-0.261
		c-0.163,0-0.156,0.237,0.004,0.245c1.277,0.036,2.514,0.17,3.766,0.409c0.984,0.184,1.757,0.924,2.766,0.818
		C395.841,236.206,396.014,235.886,395.794,235.683z"/>
	<path d="M375.391,233.709c-1.038-0.483-2.045-0.924-3.204-1.015c-0.668-0.04-2.026,0.064-1.973,0.983
		c0.008,0.136,0.087,0.269,0.226,0.298c0.224,0.047,0.338,0.031,0.556-0.045c0.611-0.189,0.956-0.355,1.63-0.331
		c0.893,0.032,1.808,0.176,2.667,0.414C375.469,234.059,375.553,233.786,375.391,233.709z"/>
	<path d="M385.066,253.35c-1.328-1.595-3.278-1.223-3.866,0.723c-0.047,0.149,0.182,0.227,0.25,0.089
		c0.63-1.27,2.049-1.254,2.83-0.215c0.527,0.714,0.548,1.741,0.596,2.593c0.084,1.452-0.085,2.657,0.728,3.897
		c0.114,0.177,0.434,0.069,0.433-0.136C385.977,258.157,386.582,255.173,385.066,253.35z"/>
	<path d="M386.874,469.905c-0.886-1.646-2.28-2.622-3.678-3.831c-3.13-2.707-2.121-6.259-1.468-9.775
		c0.051-0.262-0.341-0.318-0.44-0.104c-1.072,2.323-2.121,5.357-0.844,7.844c1.385,2.684,4.024,4.033,6.123,6.095
		C386.709,470.269,386.967,470.068,386.874,469.905z"/>
	<path d="M404.154,506.69c-0.948-6.871-2.874-13.74-5.148-20.28c-0.072-0.204-0.36-0.088-0.313,0.114
		c1.535,6.366,3.479,12.581,4.443,19.072c0.48,3.251,0.685,6.529,0.618,9.813c-0.057,3.304-0.96,6.438-1.294,9.693
		c-0.03,0.316,0.381,0.338,0.499,0.094C405.593,519.77,404.958,512.492,404.154,506.69z"/>
	<path d="M337.51,134.419c-0.006-0.197-0.531,1.791-0.359,4.418c1.199,17.857,6.257,30.494,8.212,48.134
		c0.983,8.851,0.543,17.755-2.286,26.237c-1.286,3.854-3.033,7.726-6.226,10.364c-3.646,3.001-8.601,1.388-12.338-0.506
		c-0.328-0.167-0.603,0.28-0.298,0.491c15.265,10.597,21.798-11.181,22.8-22.714C348.958,178.344,337.745,156.808,337.51,134.419z"
		/>
	<path d="M349.472,182.287c-1.888-12.08-6.285-23.591-8.472-35.597c-0.032-0.162-0.218,0.897,0.125,2.634
		c2.055,10.276,4.56,17.74,6.543,28.009c1.246,6.424,1.675,12.984,1.632,19.52c-0.057,10.817-1.013,31.133-16.428,29.649
		c-0.408-0.04-0.573,0.558-0.15,0.644c14.747,2.981,17.134-14.923,17.652-25.68C350.679,195.123,350.451,188.568,349.472,182.287z"
		/>
	<path d="M423.82,235.4c-2.512-0.405-4.621,1.64-6.118,3.363c-0.264,0.311,0.156,0.813,0.49,0.546
		c1.736-1.425,3.889-2.092,5.718-3.327C424.125,235.835,424.114,235.446,423.82,235.4z"/>
	<path d="M422.976,228.724c-2.451-0.633-4.993-0.648-7.385-1.543c-0.269-0.094-0.524,0.315-0.294,0.498
		c2.072,1.649,5.074,2.438,7.679,1.831C423.431,229.406,423.412,228.836,422.976,228.724z"/>
	<path d="M422.778,218.668c-0.191-0.256-0.683-0.116-0.563,0.235c0.641,1.883,1.755,3.447,2.885,5.055
		c0.226,0.312,0.759,0.079,0.624-0.302C425.072,221.779,423.941,220.274,422.778,218.668z"/>
	<path d="M430.133,218.724c-0.125-0.24-0.478-0.136-0.44,0.139c0.078,0.684,0.104,1.378,0.119,2.071
		c0.015,0.581,0.18,1.089,0.254,1.659c0.046,0.338,0.506,0.23,0.552-0.056c0.076-0.546,0.222-1.022,0.173-1.59
		C430.733,220.16,430.509,219.42,430.133,218.724z"/>
	<path d="M435.532,220.762c-0.503,0.688-0.964,1.25-1.347,2.026c-0.165,0.353,0.345,0.656,0.533,0.307
		c0.412-0.736,0.869-1.329,1.15-2.136C435.938,220.76,435.674,220.573,435.532,220.762z"/>
	<path d="M393.997,120.252c-1.36,0.766-2.447,1.666-3.418,2.882c-0.194,0.242,0.174,0.515,0.393,0.343
		c1.152-0.912,2.1-2.008,3.221-2.948C394.359,120.396,394.187,120.149,393.997,120.252z"/>
	<path d="M399.407,124.275c-2.386,0.139-4.538,0.573-6.689,1.635c-0.302,0.144-0.106,0.622,0.209,0.533
		c2.199-0.615,4.452-0.965,6.617-1.715C399.827,124.635,399.656,124.261,399.407,124.275z"/>
	<path d="M400.405,132.555c-1.973-1.125-4.044-1.935-6.23-2.539c-0.309-0.084-0.474,0.315-0.231,0.493
		c1.846,1.354,4.05,1.943,6.25,2.469C400.432,133.037,400.663,132.7,400.405,132.555z"/>
	<path d="M397.992,137.608c-0.273-0.684-1.597-2.583-3.342-3.019c-0.332-0.086-0.556,0.239-0.29,0.442
		c0.567,0.421,2.764,2.328,3.32,2.827C397.837,137.998,398.068,137.796,397.992,137.608z"/>
	<path fill="#FFC3DB" d="M432.341,235.025c0.55,5.387,3.466,25.733,3.826,28.009c0.359,2.27,3.233-9.819,2.639-12.681
		C438.211,247.477,431.744,229.165,432.341,235.025z"/>
	<path fill="#FFC3DB" d="M454.479,230.605c1.425,1.139,2.991,3.229,3.225,4.91c0.245,1.671,0,4.177-0.359,5.261
		c-0.353,1.079,3.088-2.329,1.918-6.227C457.829,229.768,453.28,229.648,454.479,230.605z"/>
	<path fill="#FFC3DB" d="M476.853,294.735c0.715,3.232,1.558,11.249,1.315,12.807c-0.252,1.707-16.508,3.711-17.946,3.111
		C458.292,309.846,476.173,291.663,476.853,294.735z"/>
	<path fill="#FFB1B0" d="M390.685,178.526c1.516-2.026,4.052-2.451,3.629-0.93c-0.425,1.523-1.861,3.634-3.297,4.48
		C389.587,182.918,389.374,180.273,390.685,178.526z"/>
	<path fill="#FFCCC7" d="M385.61,128.059c1.324,0.333,2.185,2.326,1.996,3.548C387.27,133.714,383.88,127.632,385.61,128.059z"/>
	<path fill="#FFE8B5" d="M346.555,22.336c-17.747,1.512-20.569,16.45-24.046,29.007c-0.106,0.352,0.419,0.45,0.529,0.124
		c2.265-6.427,5.334-12.575,9.128-18.227c4.261-6.349,10.843-9.091,18.251-9.714C351.201,23.461,347.376,22.262,346.555,22.336z"/>
	<path fill="#FFE8B5" d="M354.923,31.724c-9.961-0.358-17.13,9.064-20.704,17.369c-4.818,11.216-6.698,23.875-4.714,35.97
		c0.091,0.576,0.913,0.449,0.882-0.124c-0.926-18.493,4.858-46.204,24.631-52.39C355.418,32.423,355.338,31.74,354.923,31.724z"/>
	<path fill="#FFE8B5" d="M349.825,38.964c-12.405,6.048-16.893,22.244-16.625,35.047c0.011,0.548,0.848,0.826,1.005,0.213
		c1.688-6.332,2.73-12.852,5.008-19.014c2.29-6.205,6.533-10.96,11.033-15.647C350.495,39.301,350.157,38.805,349.825,38.964z"/>
	<path fill="#FFE8B5" d="M335.924,153.603c-0.093-0.371-0.706-0.249-0.654,0.131c1.157,8.778,2.991,17.47,4.2,26.255
		c1.125,8.162,0.33,16.161-0.019,24.329c-0.03,0.674,0.994,0.92,1.292,0.311C348.353,188.808,340.025,169.323,335.924,153.603z"/>
	<path fill="#FFE8B5" d="M352.604,126.872c-0.08-0.504-0.763-0.421-0.772,0.072c-0.209,15.601-0.224,32.586,4.177,47.664
		c0.135,0.455,0.744,0.236,0.744-0.171C356.829,158.734,354.98,142.386,352.604,126.872z"/>
	<path fill="#FFE8B5" d="M349.97,129.885c-0.04-0.443-0.744-0.474-0.787-0.016c-1.026,10.58-2.282,22.189,1.408,32.386
		c0.19,0.51,1.059,0.331,1.041-0.204C351.229,151.367,350.888,140.538,349.97,129.885z"/>
	<path fill="#FFE8B5" d="M467.168,112.816c-0.053-0.409-0.666-0.626-0.945-0.308c-2.986,3.33-8.167,8.497-12.936,4.981
		c-0.425-0.313-0.894,0.216-0.628,0.629c2.062,3.213,4.737,3.988,8.432,2.912C464.678,119.994,467.662,116.628,467.168,112.816z"/>
	<path fill="#FFE8B5" d="M471.746,197.388c-4.49,4.749-10.653,8.725-17.541,7.641c-0.461-0.074-0.624,0.58-0.216,0.776
		c6.552,3.111,18.073,0.83,18.981-7.769C473.041,197.36,472.275,196.83,471.746,197.388z"/>
	<path fill="#FFE8B5" d="M439.015,92.429c-0.161-0.455-0.804-0.204-0.689,0.247c4.211,16.033,2.21,32.804,5.213,49.003
		c0.099,0.533,0.844,0.439,0.827-0.096C443.997,124.937,444.653,108.374,439.015,92.429z"/>
	<path fill="#FFE8B5" d="M433.307,108.686c-0.063-0.35-0.651-0.234-0.613,0.118c1.671,17.011-0.176,34.23,3.181,51.047
		c0.118,0.594,1.043,0.559,1.068-0.066C437.505,142.726,436.541,125.486,433.307,108.686z"/>
	<path fill="#FFE8B5" d="M437.105,99.623c-0.152-0.416-0.744-0.205-0.641,0.212c2.371,9.335,1.243,19.216,3.299,28.637
		c0.114,0.546,0.837,0.439,0.837-0.107C440.644,118.383,440.449,109.112,437.105,99.623z"/>
	<path fill="#FFE8B5" d="M412.876,36.261c-5.668-8.992-17.942-13.647-27.941-9.366c-0.379,0.161-0.267,0.745,0.156,0.711
		c10.367-0.689,18.613,3.384,26.643,9.635C412.406,37.762,413.352,37.012,412.876,36.261z"/>
	<path fill="#FFE8B5" d="M413.155,42.011c-0.372-0.13-0.736,0.343-0.393,0.618c8.034,6.177,12.977,14.966,17.153,24.08
		c0.227,0.512,1.051,0.275,0.941-0.287C429.042,56.968,422.898,45.445,413.155,42.011z"/>
	<path fill="#FFDFD4" d="M383.788,103.351c0.561,3.931,1.455,12.308,1.622,14.901c0.154,2.59-3.726-3.078-3.891-5.995
		C381.357,109.347,383.137,98.817,383.788,103.351z"/>
	<path fill="#FFDFD4" d="M411.96,138.816c-1.007,3.841-4.206,15.386-5.991,19.432c-1.781,4.055-2.749-6.314-1.455-10.038
		C405.806,144.488,413.584,132.664,411.96,138.816z"/>
	<path fill="#FFDFD4" d="M427.356,275.685c1.482,4.272,4.835,13.291,5.795,16.2c0.971,2.9,0.493-6.527-0.478-10.396
		C431.704,277.624,425.419,270.13,427.356,275.685z"/>
	<path fill="#FFE0F0" d="M392.597,330.455c3.432,7.384,9.944,20.462,10.513,24.728c0.573,4.264-9.948-3.126-12.503-10.232
		C387.805,337.161,388.904,322.497,392.597,330.455z"/>
	<path fill="#FFE0F0" d="M400.276,258.832c1.038,4.172,4.832,9.099,6.533,10.799c1.704,1.707-5.682,1.42-7.677-2.559
		C397.144,263.092,399.415,255.419,400.276,258.832z"/>
	<path fill="#FFE0F0" d="M382.651,269.341c1.685,3.141,5.683,6.827,7.393,7.396c1.7,0.564-4.551,1.989-7.393-1.139
		C379.807,272.474,380.661,265.649,382.651,269.341z"/>
	<path fill="#FFDFD4" d="M386.91,445.005c-1.647,4.01-4.83,11.378-4.547,14.787c0.286,3.408,4.266,0.564,4.839-1.995
		C387.763,455.24,388.902,440.181,386.91,445.005z"/>
	<path fill="#FFDFD4" d="M368.439,487.928c-2.212,4.294-4.327,14.792-3.13,19.9C367.583,517.491,372.984,479.118,368.439,487.928z"
		/>
	<path fill="#8CD9FF" d="M358.204,397.253c4.722-4.998,13.359-11.087,18.19-12.789c4.836-1.706,9.667-4.549,11.94-5.401
		c2.273-0.85-9.383-1.139-19.329,3.981C360.177,387.58,353.373,402.369,358.204,397.253z"/>
	<path fill="#FFB9BA" d="M372.421,575.472c3.76-3.054,12.786-13.069,16.483-17.619c3.694-4.546-0.569,5.965-4.839,10.23
		C379.807,572.345,367.868,579.167,372.421,575.472z"/>
</g>
</svg>
