<?xml version="1.0" encoding="utf-8"?>
<!-- Generator: Adobe Illustrator 17.0.0, SVG Export Plug-In . SVG Version: 6.00 Build 0)  -->
<!DOCTYPE svg PUBLIC "-//W3C//DTD SVG 1.1//EN" "http://www.w3.org/Graphics/SVG/1.1/DTD/svg11.dtd">
<svg version="1.1" id="Layer_1" xmlns="http://www.w3.org/2000/svg" xmlns:xlink="http://www.w3.org/1999/xlink" x="0px" y="0px"
	 width="800px" height="600px" viewBox="0 0 800 600" enable-background="new 0 0 800 600" xml:space="preserve">
<g>
	<path fill-rule="evenodd" clip-rule="evenodd" d="M320.546,158.531c-55.138-13.767-112.084-11.224-155.839,13.287
		c4.161,33.805,42.415,94.352,80.446,122.279c-24.403,70.188,10.313,124.228,31.299,148.024
		c35.885,40.689,94.036,64.018,155.843,69.188c54.542,4.563,90.905-5.535,130.229-49.133
		c29.812-33.057,99.054-156.135,28.062-232.787c22.387-26.605,44.525-102.488,30.978-125.481
		c-41.251-9.674-99.99-1.038-140.295,36.242c-14.339-7.204-29.79-12.231-45.936-14.566c1.791-9.711,2.653-21.885,15.918-23.367
		c2.169-0.241,1.704-2.468-0.5-2.253c-14.029,1.373-16.51,13.857-18.771,25.153c-2.102-0.253-4.22-0.478-6.353-0.639
		c-0.621-12.785-0.684-30.518,15.863-36.128c2.063-0.697-0.839-1.522-2.898-0.77c-15.268,5.588-16.964,22.438-16.373,36.677
		c-19.932-0.991-40.713,2.255-61.689,10.942c-5.348-20.232-13.075-43.755-37.837-46.363c-2.167-0.225-3.705,1.495-1.51,1.724
		c23.59,2.486,31.225,26.754,36.215,45.975c-2.394,1.058-4.788,2.137-7.182,3.332c-3.946-16.549-15.317-44.78-35.899-37.345
		c-2.041,0.737-3.587,3.44-1.552,2.639c19.35-7.601,31.097,21.694,34.365,36.26C338.262,146.087,329.379,151.755,320.546,158.531z"
		/>
	<path fill-rule="evenodd" clip-rule="evenodd" fill="#CD5A0D" d="M581.298,218.632c-9.929-13.154-21.366-24.773-32.684-35.245
		c17.342-15.943,19.503-38.63,19.523-46.529c-19.489-4.235-52.011,21.529-52.011,21.529s-12.282-8.148-24.06-12.897
		c22.113-19.207,82.485-41.422,118.208-33.272C615.943,128.731,606.147,176.614,581.298,218.632z"/>
	<path fill-rule="evenodd" clip-rule="evenodd" fill="#DE985D" d="M525.372,163.443c0,0,20.996-18.547,32.888-16.827
		c0.306,9.94-6.12,25.173-14.913,31.55C536.218,170.795,525.372,163.443,525.372,163.443z"/>
	<path fill-rule="evenodd" clip-rule="evenodd" fill="#CD5A0D" d="M543.626,198.394c19.734,19.897,70.732,62.329,63.921,126.485
		c-6.81,64.159-31.646,103.007-64.326,137.776c-39.813,42.358-102.895,44.829-171.349,22.898
		c-79.543-25.474-139.717-98.046-115.354-184.421c11.406-40.432,32.78-76.9,55.445-109.039
		c-26.34,1.277-53.206,62.888-60.627,87.924c-29.074-20.153-64.465-77.795-69.048-100.619
		c34.089-12.795,85.126-18.963,134.757-7.227c52.905-36.45,102.2-40.101,132.288-31.085
		C493.031,154.18,523.895,178.497,543.626,198.394z"/>
	<path fill-rule="evenodd" clip-rule="evenodd" d="M457.224,160.981c-16.055,1.757-34.788-5.643-42.818,8.309
		c-6.928-3.137-10.805-8.091-9.238-16.32C419.548,155.166,440.675,148.979,457.224,160.981z"/>
	<path fill-rule="evenodd" clip-rule="evenodd" d="M301.667,241.26c32.028,20.11,81.155,12.056,113.753-3.352
		c40.636-19.207,64.218-45.495,67.517-64.534c28.948,42.925,23.678,138.156-2.335,209.092
		c-14.664,39.962-46.719,96.303-97.61,66.546C311.651,407.296,267.647,337.637,301.667,241.26z"/>
	<path fill-rule="evenodd" clip-rule="evenodd" d="M415.487,182.3c24.364,5.971-4.192,31.536-13.916,34.659
		c-9.717,3.123-29.238-3.385-32.304-16.229C366.052,187.305,404.018,179.483,415.487,182.3z"/>
	<path fill-rule="evenodd" clip-rule="evenodd" d="M361.07,172.763c3.374,5.352-1.475,16.551-6.003,21.176
		c-9.384-8.24-24.036,4.044-31.307,12.662C321.047,191.304,347.744,176.176,361.07,172.763z"/>
	<path fill-rule="evenodd" clip-rule="evenodd" fill="#FFFFFF" d="M306.812,254.552c5.74,3.944,15.91,7.329,28.172,8.072
		c12.018,49.635,21.488,104.024,38.513,150.651c-2.919-48.536-22.236-101.708-28.782-150.077
		c14.897,0.061,32.608-0.544,48.753-6.969c7.731,50.699,12.043,110.358,25.416,159.183c2.108-50.35-10.944-109.829-15.43-161.575
		c15.697-4.903,27.169-10.103,41.11-20.488c3.691,46.374,0.825,111.18,6.812,156.166c5.856-34.906,3.176-112.875,2.809-162.608
		c9.267-4.878,25.408-19.288,29.89-31.417c20.392,47.826,5.827,137.139-10.43,180.945c-10.992,29.595-33.503,69.218-56.35,72.406
		c-21.595,3.021-46.132-17.213-63.958-29.881c-10.003-7.108-26.051-24.865-34.491-37.88
		C300.073,352.103,290.285,307.412,306.812,254.552z"/>
	<path fill-rule="evenodd" clip-rule="evenodd" fill="#DE985D" d="M414.835,190.785c3.236,1.663-7.448,16.6-18.034,18.913
		c-8.268,1.806-16.913-8.324-16.006-10.642C382.862,193.772,409.075,187.826,414.835,190.785z"/>
	<path fill-rule="evenodd" clip-rule="evenodd" fill="#B3480F" d="M222.303,187.233c0,0,15.27-9.163,39.195-6.23
		c23.937,2.933,34.165,12.01,34.165,12.01s-15.267,9.159-21.345,20.408c-6.085,11.253-16.89,32.813-16.89,32.813
		s-9.09-7.564-18.225-21.443C230.077,210.911,222.303,187.233,222.303,187.233z"/>
	<path fill-rule="evenodd" clip-rule="evenodd" d="M339.641,218.898c-2.149-0.492-2.88,2.714-0.731,3.203
		C341.069,222.597,341.8,219.39,339.641,218.898z"/>
	<path fill-rule="evenodd" clip-rule="evenodd" d="M351.829,212.866c-2.151-0.488-2.884,2.714-0.731,3.205
		C353.253,216.563,353.984,213.36,351.829,212.866z"/>
	<path fill-rule="evenodd" clip-rule="evenodd" d="M350.495,223.449c-2.151-0.492-2.882,2.714-0.731,3.201
		C351.919,227.144,352.65,223.937,350.495,223.449z"/>
	<path fill-rule="evenodd" clip-rule="evenodd" d="M359.215,220.773c-2.157-0.494-2.89,2.712-0.733,3.203
		C360.639,224.472,361.372,221.265,359.215,220.773z"/>
	<path fill-rule="evenodd" clip-rule="evenodd" d="M342.262,233.488c-2.159-0.494-2.89,2.712-0.731,3.203
		C343.689,237.183,344.419,233.98,342.262,233.488z"/>
	<path fill-rule="evenodd" clip-rule="evenodd" d="M355.306,230.766c-2.155-0.494-2.886,2.708-0.729,3.201
		C356.734,234.457,357.465,231.258,355.306,230.766z"/>
	<path fill-rule="evenodd" clip-rule="evenodd" d="M437.494,183.183c-2.149-0.49-2.874,2.712-0.729,3.201
		C438.92,186.874,439.653,183.675,437.494,183.183z"/>
	<path fill-rule="evenodd" clip-rule="evenodd" d="M449.699,181.818c-2.161-0.493-2.89,2.716-0.733,3.207
		C451.121,185.517,451.854,182.31,449.699,181.818z"/>
	<path fill-rule="evenodd" clip-rule="evenodd" d="M458.59,180.74c-2.161-0.492-2.89,2.71-0.733,3.205
		C460.004,184.435,460.741,181.232,458.59,180.74z"/>
	<path fill-rule="evenodd" clip-rule="evenodd" d="M443.855,174.263c-2.157-0.492-2.89,2.714-0.733,3.209
		C445.281,177.964,446.01,174.755,443.855,174.263z"/>
	<path fill-rule="evenodd" clip-rule="evenodd" d="M445.91,191.324c-2.155-0.494-2.884,2.705-0.729,3.195
		C447.331,195.01,448.063,191.815,445.91,191.324z"/>
	<path fill-rule="evenodd" clip-rule="evenodd" d="M455.539,189.374c-2.157-0.494-2.886,2.712-0.733,3.205
		C456.954,193.069,457.687,189.864,455.539,189.374z"/>
	<path fill-rule="evenodd" clip-rule="evenodd" d="M453.999,172.437c-2.157-0.494-2.89,2.712-0.729,3.205
		C455.428,176.13,456.156,172.929,453.999,172.437z"/>
	<path fill-rule="evenodd" clip-rule="evenodd" d="M334.424,227.553c-2.149-0.49-2.88,2.718-0.731,3.205
		C335.85,231.252,336.581,228.049,334.424,227.553z"/>
</g>
</svg>
