<?xml version="1.0" encoding="utf-8"?>
<!-- Generator: Adobe Illustrator 17.0.0, SVG Export Plug-In . SVG Version: 6.00 Build 0)  -->
<!DOCTYPE svg PUBLIC "-//W3C//DTD SVG 1.1//EN" "http://www.w3.org/Graphics/SVG/1.1/DTD/svg11.dtd">
<svg version="1.1" id="Layer_1" xmlns="http://www.w3.org/2000/svg" xmlns:xlink="http://www.w3.org/1999/xlink" x="0px" y="0px"
	 width="800px" height="600px" viewBox="0 0 800 600" enable-background="new 0 0 800 600" xml:space="preserve">
<g>
	<path fill="#CCE878" d="M193.538,160.534c15.448-61.993,117.956-60.558,234.726-35.427
		c116.767,25.127,219.372,68.401,220.682,216.671c1.285,145.132-151.438,162.94-282.633,78.386
		C237.193,336.948,166.613,268.572,193.538,160.534z"/>
	<path fill="#B5DB61" d="M326.845,117.34c122.646,50.244,238.703,137.485,318.344,262.783c2.566-11.62,3.88-24.388,3.757-38.344
		c-1.31-148.271-103.915-191.545-220.682-216.671c-45.031-9.691-87.936-15.852-124.546-16.219
		C311.487,111.426,319.203,114.212,326.845,117.34z"/>
	<path fill="#B5DB61" d="M289.573,140.195c43.272,26.747,85.187,54.363,124,90.119c36.657,33.774,72.146,70.037,104.773,109.622
		c28.457,34.528,55.735,70.982,79.468,110.733c21.264-13.617,37.193-34.223,45.242-62.199
		c-7.228-11.582-14.785-22.854-22.659-33.779c-56.241-77.992-126.536-139.505-202.909-184.452
		c-38.669-22.758-79.254-43.391-121.156-55.978c-5.545-1.665-11.111-3.206-16.694-4.682c-12.764,0.918-24.48,2.754-34.915,5.63
		C260.094,122.482,275.04,131.21,289.573,140.195z"/>
	<path fill="#B5DB61" d="M549.394,406.343c-46.249-66.858-103.739-121.226-164.061-167.491
		c-29.43-22.576-59.777-43.034-90.853-62.055c-26.754-16.378-53.324-33.417-81.209-46.592c-9.784,7.699-16.587,17.686-19.735,30.33
		c-26.924,108.038,43.655,176.413,172.775,259.63c75.775,48.835,158.684,63.474,214.991,39.2
		C571.729,440.747,560.968,423.073,549.394,406.343z"/>
	<path d="M573.93,427.524c-38.116,2.365-94.032-2.863-113.569-6.309c-40.071-7.067-91.486-24.31-127.566-43.359
		c-33.186-17.522-56.641-39.815-80.972-68.49c-22.48-26.495-43.26-59.217-48.772-94.126c5.938,1.052,34.689-1.819,43.217-3.139
		c-5.831-13.096-63.849-70.811-69.232-75.964c-6.876,12.121-29.018,93.397-28.263,98.677c5.836-0.784,31.451-11.48,35.737-14.724
		c0.3,36.067,10.282,80.741,26.939,113.618c14.78,29.171,40.046,63.685,67.674,90.663c28.465,27.797,58.378,47.855,92.997,66.93
		c38.101,20.998,101.163,37.064,127.273,40.364C515.007,519.048,565.373,450.386,573.93,427.524z"/>
	<path fill="#FF5E00" d="M497.001,523.78c-43.778-5.747-85.522-19.7-124.368-40.361c-35.315-18.785-68.803-43.173-96.932-71.964
		c-49.875-51.048-85.254-115.589-86.705-198.337c-8.071,3.637-25.717,12.729-35.287,14.85c3.973-18.939,18.242-66.978,24.408-83.82
		c19.252,19.565,41.979,44.723,56.993,64.064c-7.538,1.57-24.284,2.479-34.751,2.176c-0.598,14.245,4.424,34.171,11.662,49.401
		c7.861,16.542,18.849,33.846,30.129,48.143c24.435,30.965,54.472,57.273,88.534,76.793c35.821,20.532,79.326,33.084,119.666,40.555
		c45.145,8.361,94.198,9.996,114.234,7.578C550.828,457.709,521.358,498.487,497.001,523.78z"/>
	<path fill="#CC4200" d="M250.358,329.093c8.977,18.095,21.025,34.015,35.472,47.993c25.787,24.951,57.218,43.089,91.236,53.783
		c59.734,18.775,123.894,17.735,185.104,6.223c0.846-1.449,1.662-2.875,2.416-4.233c-20.036,2.417-69.089,0.782-114.234-7.578
		c-40.34-7.471-83.845-20.023-119.666-40.555c-34.062-19.52-64.099-45.828-88.534-76.793c-0.521-0.662-1.035-1.359-1.556-2.032
		C243.473,313.797,246.629,321.578,250.358,329.093z"/>
	<path d="M580.185,169.505c-2.426-4.992-21.244-1.953-28.63-0.405c-0.305-0.168-1.067-0.953-1.409-1.163
		c5.945-3.561,12.15-6.675,17.87-10.599c2.364-1.625,8.63-5.901,6.95-9.113c-3.526-6.739-19.175,7.332-27.048,14.411
		c3.694-7.63,10.542-24.969,5.014-25.457c-3.4-0.3-7.531,10.801-8.974,15.267c-2.474,7.66-4.808,15.915-6.181,23.316
		c-0.409-0.007-2.32,0.25-2.545,0.317c-1.049-3.573-3.374-7.551-10.362-6.796c-3.68,0.397-7.565,2.201-10.196,4.831
		c-1.213,1.213-1.858,3.615,0.198,4.24c2.406,0.73,9.774-1.462,14.423,3.166c4.164,4.146,4.007,10.964,2.04,13.458
		c-16.944,10.011-52.031,28.435-80.909,27.837c4.732-1.93,9.168-4.504,13.013-7.664c9.935-8.17,14.791-24.541,16.734-37.22
		c0.34,0.137,0.682,0.255,0.988,0.322c1.375,0.298,2.801,0.169,4.129-0.268c2.876-0.945,5.421-3.295,6.136-6.334
		c0.745-3.159-1.035-6.391-3.848-7.81c-2.04-1.03-4.794-0.662-6.803,0.65c-0.9-10.407-5.201-19.978-13.088-27.361
		c1.303,0.482,2.672,0.876,4.151,1.191c4.947,1.047,12.865,1.637,17.132-1.677c0.58-0.451,0.129-1.33-0.499-1.38
		c-3.849-0.31-7.764,1.194-11.667,1.241c-4.937,0.055-10.245-1.248-14.507-3.958c3.255,1.253,6.573,2.379,10.29,2.702
		c6.046,0.524,12.741-0.898,18.078-3.726c0.692-0.363,0.469-1.638-0.375-1.563c-9.228,0.834-16.75,3.404-26.191,1.178
		c-1.628-0.38-3.127-0.89-4.6-1.385c10.54,0.032,18.82-0.36,24.763-1.828c15.255-3.767,17.006-9.426,16.493-9.182
		c-6.2,2.995-8.866,4.156-15.813,5.108c12.096-6.074,11.399-10.692,10.857-10.228c-1.813,1.544-4.767,3.189-5.819,2.623
		c10.681-7.163,10.857-14.172,10.205-13.446c-4.005,4.444-8.098,7.116-11.922,9.282c-5.317,3.01-11.999,4.164-17.889,5.146
		c-13.235,2.208-22.827-5.647-35.345-6.551c-0.206-0.015-0.4-0.007-0.601-0.015c9.441-0.74,17.927,4.163,27.678,4.352
		c13.098,0.251,21.775-3.516,28.542-7.672c3.504-2.151,4.34-4.319,3.243-3.866c-20.616,8.518-44.198-3.973-65.094,2.937
		c-5.806,1.918-14.073,7.079-14.641,14.093c-0.357,4.451,0.735,9.093,4.714,9.959c-4.148,1.854-7.992,4.29-10.922,6.582
		c-5.451,4.258-9.227,10.116-11.818,16.56c-1.25-1.323-3.245-2.342-4.602-2.916c-2.608-1.104-5.059-0.06-6.486,2.303
		c-3.566,5.913,1.638,12.379,7.349,13.867c0.005,0.002,0.012,0,0.015,0.002c-0.424,2.305-0.756,4.603-1,6.85
		c-2.102,19.371,3.975,39.103,19.112,48.11c-11.51-2.375-33.146-9.196-46.617-20.586c-6.523-5.513-13.29-14.597-16.426-19.236
		c0.054-4.176,1.538-7.667,3.297-11.401c2.421-5.146,5.36,0.586,8.165,1.734c5.05,2.071,4.089-5.503,1.315-10.265
		c-2.035-3.506-5.662-4.642-9.518-0.856c-1.349,1.323-3.856,1.709-5.851,1.578c-0.779-4.999,0.668-12.327,0.975-18.787
		c0.199-4.101,1.861-14.059-1.513-15.892c-3.333-1.813-4.819,2.807-5.302,5.494c-0.719,4.014-0.963,10.017-0.724,14.535
		c-1.131-4.908-3.023-11.032-4.582-15.023c-1.042-2.677-4.829-5.838-6.747-2.077c-2.854,5.6,4.792,22.609,7.593,26.506
		c-0.603,0.612-1.568,2.077-1.928,2.811c-2.395-1.411-5.632-3.074-8.163-4.203c-2.762-1.233-10.255-4.585-12.686-1.415
		c-4.218,5.496,9.55,9.386,16.15,10.868c-6.389,3.178-11.805,7.595-10.121,9.905c1.685,2.31,9.017-1.794,11.806-4.65
		c-0.404,4.632,3.615,15.023,12.622,16.366c-0.767,0.729-1.608,1.734-2.059,2.375c1.173,3.59,3.101,7.213,5.556,9.56
		c0.878-0.476,1.684-1.253,2.034-1.628c6.499,9.954,17.822,16.691,27.802,22.457c11.538,6.665,27.418,9.686,37.191,10.498
		c-4.166,17.217-7.692,28.424-10.094,36.706c-2.405,8.284-14.745,27.774-11.667,37.101c-11.036-1.42-60.68,1.807-68.898,5.546
		c-1.529,0.697-1.084,2.692,0,4.419c9.057,14.448,11.738,32.635,9.007,44.094c-16.326,6.036-39.558,1.079-49.436-5.989
		c-1.022,9.339,8.453,17.91,20.961,21.857c13.022,4.107,24.834-1.32,34.29-6.48c0.482,1.707,0.452,4.791,0.38,6.355
		c3.26,0.62,9.272,0.516,11.92,0.204c0.858-2.73-1.489-11.364-3.057-12.907c0.759-0.117,1.732-0.414,2.432-1.072
		c-0.837-4.757-7.714-32.126-13.384-41.572c8.042,0.884,37.595,1.387,46.931,0.099c5.513,6.02,39.934,25.194,51.867,25.191
		c1.536,22.226,9.334,44.421,15.959,45.875c7.851,1.717,49.743-21.879,61.141-32.481c-0.387-2.231-1.295-4.461-1.908-6.057
		c12.656-7.59,36.473,34.136,42.042,46.6c2.057-14.729-0.881-34.488-9.575-46.59c-4.025-5.607-13.222-13.905-20.591-11.93
		c1.622-1.729,2.588-2.885,4.531-4.196c-0.906-2.101-2.979-4.593-4.66-6.037c-3.885,0.657-13.076,6.561-15.587,12.28
		c-5.118,4.123-41.981,28.39-50.829,31.042c-2.01-3.72-4.097-7.37-5.642-11.384c-2.074-5.382-2.645-11.081-4.019-16.602
		c3.258-1.538,6.493-5.662,7.56-7.764c2.839-5.576,4.325-10.305,3.968-15.81c7.994-1.162,5.238-54.693-0.06-89.199
		c11.641,0.008,23.427-3.04,34.397-6.424c12.116-3.737,24.787-8.798,35.958-15.512c0.504,0.703,1.01,1.576,1.766,1.957
		c2.633-1.097,8.227-4.19,9.454-5.523c-0.221-0.881-1.724-4.798-2.163-5.521c2.808-1.707,9.376-1.218,14.405-4.164
		c4.236-2.486,7.758-7.526,8.119-12.61c3.593,3.114,7.997,5.689,10.357,2.943c2.695-3.142-2.191-7.93-6.92-11.424
		C570.439,175.986,583.301,175.916,580.185,169.505z"/>
	<path fill="#FFC9A6" d="M480.935,167.18c1.816-1.216,3.786-2.228,5.758-0.451c1.563,1.409,2.06,3.531,0.915,5.325
		c-0.925,1.449-2.519,2.308-4.158,2.608c-0.995,0.181-1.885-0.206-2.786-0.581C480.905,171.756,481.004,169.45,480.935,167.18z"/>
	<path fill="#FFFFFF" d="M464.142,111.79c-2.881,0.921-7.699,0.142-10.771-0.486c-3.365-0.683-9.022-2.347-12.111-2.704
		C445.074,107.535,463.906,111.75,464.142,111.79z"/>
	<path fill="#FFFFFF" d="M446.216,117.391c6.448,2.742,14.341,4.819,21.299,4.565c3.942-0.146,8.436-0.754,12.85-1.935
		c-0.839,0.38-1.678,0.754-2.523,1.119c-2.967,0.906-5.886,1.967-9.046,2.377c-10.798,1.406-18.204-3.759-27.727-6.54
		c-5.571-1.626-10.267-0.447-14.542,2.215C431.224,113.979,437.72,113.78,446.216,117.391z"/>
	<path fill="#FFFFFF" d="M428.105,119.519c3.885-1.824,11.428-2.253,15.054,0.565c-6.381-1.241-15.227-0.563-19.212,3.504
		C424.141,123.07,424.193,121.353,428.105,119.519z"/>
	<path fill="#FFFFFF" d="M448.504,124.062c-8.674-1.451-15.539-2.61-21.948,0.789C430.009,120.003,438.97,120.293,448.504,124.062z"
		/>
	<path fill="#FFC9A6" d="M392.414,162.987c-2.942-0.689-5.347-3.154-5.131-6.32c0.412-5.92,4.779-2.261,7.866-0.42
		c-0.792,2.282-1.446,4.62-1.99,6.972C392.92,163.128,392.672,163.047,392.414,162.987z"/>
	<path fill="#FFC9A6" d="M394.528,185.581c-0.963-12.019,1.975-24.884,7.485-35.514c4.814-9.285,15.391-18.341,30.417-19.612
		c15.028-1.27,24.162,1.233,33.811,10.419c9.63,9.168,10.664,24.583,9.026,37.062c-2.982,22.732-15.353,39.861-37.865,44.399
		C412.152,227.428,396.458,209.604,394.528,185.581z"/>
	<path fill="#E6B58F" d="M437.727,222.258c16.473-3.429,27.462-13.639,33.278-27.857
		C458.016,200.386,445.087,209.837,437.727,222.258z"/>
	<path fill="#0061C4" d="M423.748,226.421c1.233,0.181,7.881,0.459,9.94,0.315c-1.027,3.59-4.873,8.136-7.312,9.22
		C425.332,232.796,424.409,229.717,423.748,226.421z"/>
	<path fill="#0061C4" d="M420.803,294.156c-2.082,1.95-5.288,4.059-7.657,5.173c-1.889-2.176-5.19-8.377-6.607-11.994
		c2.863-9.053,15.384-36.382,19.431-46.612C427.956,250.787,427.373,277.914,420.803,294.156z"/>
	<path fill="#FFC9A6" d="M331.089,168.051c-2.392,1.655-10.726,7.94-11.207,5.741c-0.484-2.196,10.362-7.818,11.808-8.674
		c0.883-0.524-0.601-0.975-1.685-0.389c-7.475-1.563-21.046-7.079-15.897-9.188c2.91-1.189,17.257,6,19.269,7.014
		c0.961-1.953,2.411-3.664,3.349-4.793c-3.531-6.969-11.181-23.301-7.444-25.499c3.734-2.198,7.734,17.949,9.277,23.45
		c0.362,0,1.208-0.243,1.809-0.854c-0.843-4.518-0.642-12.491-0.389-15.237c0.277-3.024,0.871-10.044,3.402-9.436
		c2.531,0.61-0.126,18.969-0.122,24.95c0,2.777-0.36,5.585,0.193,7.602c-6.458,0.183-8.436,8.094-7.905,13.497
		c0.122,1.223,1.196,2.767,1.258,1.849c0.31-4.412,1.275-14.674,9.108-12.842c2.585,0.606,5.067-1.853,6.387-2.809
		c2.531-1.831,7.471-1.953,8.593,5.195c0.275,1.757-1.002,3.109-2.447,1.523c-1.447-1.588-3.258-2.794-4.702-3.176
		c-6.025-1.59-7.171,10.622-7.228,15.879c-1.568,0.853-4.119,2.774-4.34,3.178C336.753,185.151,330.366,176.845,331.089,168.051z"/>
	<path fill="#DEF2FF" d="M346.028,196.597c-1.888-1.948-3.347-4.525-4.195-7.069c0.082-0.01,3.705-3.431,5.044-4.746
		c1.68,2.193,3.37,4.328,5.059,6.35C350.37,192.478,347.653,194.779,346.028,196.597z"/>
	<path fill="#966952" d="M346.785,371.286c-1.405,0.539-4.563,0.645-6.804,0.454c0.283-2.196-0.419-5.91-1.417-7.503
		c-7.714,3.568-19.574,8.997-27.395,8.533c-12.456-0.737-24.685-9.203-26.211-15.403c11.538,7.121,34.948,8.679,48.239,3.129
		c0.379,0.663,7.548,2.38,11.006,1.811C345.481,364.495,346.474,368.125,346.785,371.286z"/>
	<path fill="#966952" d="M520.202,331.718c1.035,1.052,2.328,2.166,2.848,3.022c-2.322,2.146-6.054,5.654-6.736,8.738
		c-0.085,0.394,0.424,0.858,0.756,0.61c10.123-7.511,21.287,6.417,25.4,13.873c4.655,8.448,6.677,19.765,6.498,29.615
		c-8.064-15.679-30.442-48.81-40.299-38.528c-0.563-1.808-1.332-3.593-2.04-5.427C509.456,338.542,515.711,333.17,520.202,331.718z"
		/>
	<path fill="#727D96" d="M439.504,342.293c-0.548-0.057-0.11,2.476,2.962,2.839c-0.797,11.039,4.856,27.239,13.16,32.933
		c0.754,0.518,1.528-0.456,1.178-1.176c-0.36-0.745-0.749-1.469-1.129-2.199c10.872-4.337,39.21-21.411,48.145-28.936
		c0.849,2.824,2.37,7.255,3.454,9.98c-12.939,10.964-49.001,32.678-57.243,29.826c-5.342-1.851-12.336-30.471-13.816-44.661
		c-12.304-1.076-45.398-18.276-55.79-29.886c-1.271,0.645-0.739,3.663-0.095,4.442c-9.612,1.389-32.784,2.439-50.753,0.054
		c-0.987-0.132,1.248,2.357,3.623,3.005c5.533,12.744,9.558,25.152,11.574,40.111c-2.518,1.02-5.659,1.014-9.392-0.338
		c3.044-13.766-2.35-33.997-11.909-45.894c2.271-2.952,51.321-6.288,69.794-4.784c5.844,8.354,30.814,14.828,44.435,15.919
		c3.958,0.32,9.835,0.501,14.739-0.871C451.91,336.814,442.575,342.616,439.504,342.293z"/>
	<path fill="#B7D4FF" d="M449.27,230.26c-0.621,0.043-0.67,1.047-0.02,1.127c1.876,0.221,3.762,0.343,5.652,0.387
		c1.462,13.666,2.638,30.172,3.159,44.624c0.255,7.094,1.35,32.198-1.741,38.851c-4.623,9.952-42.382,3.932-57.959-6.982
		c-10.634-7.449,2.496-26.682,7.499-42.974c5.007-16.291,8.741-33.447,9.813-36.429c-14.904-1.95-28.836-4.972-41.161-12.198
		c-11.88-6.965-19.413-12.49-25.727-20.185c1.112-1.188,2.958-2.799,3.932-3.489c7.111,8.262,14.915,14.706,25.573,19.899
		c10.783,5.253,24.564,10.94,35.461,10.94c2.787,1.322,4.848,2,8.173,2.598c0.399,3.816,1.422,7.958,2.884,12.181
		c-7.049,15.428-16.344,36.381-20.671,49.048c1.923,6.171,6.754,13.309,8.493,15.267c4.007-1.948,7.853-4.386,10.578-6.66
		c5.287-10.719,8.811-40.114,4.486-57.167c5.268-3.937,7.848-9.835,8.665-12.62c3.262-0.399,6.516-1.096,9.684-2.084
		c20.591,4.632,63.913-13.709,76.674-20.957c0.419,1.323,1.578,3.168,2.248,4.313C505.256,219.281,479.776,228.216,449.27,230.26z"
		/>
	<path fill="#DEF2FF" d="M529.132,209.048c-0.745-1.112-3.129-5.926-4.116-6.917c2.129-1.245,4.255-2.526,6.377-3.863
		c0.384,1.442,3.161,6.096,3.672,7.533C533.269,206.797,530.914,208.051,529.132,209.048z"/>
	<path fill="#FFC9A6" d="M552.611,173.398c-0.64,1.464,3.387,1.764,4.968,1.952c3.525,1.216,12.5,8.769,8.716,10.274
		c-2.38,0.941-8.555-4.347-12.848-8.26c-1.075,0.909,1.317,2.958,2.451,4.156c-0.239,5.118-2.565,11.128-9.056,13.401
		c-4.236,1.484-8.719,2.214-12.419,4.139c-0.126-0.139-1.153-2.456-1.283-2.598c4.727-6.582,0.757-14.393-4.885-18.515
		c-2.905-2.117-7.773-1.38-10.947-1.422c-4.04-0.057,0.157-3.121,3.253-4.181c5.93-2.029,11.311-1.332,12.26,5.198
		c0.124,0.854,0.124,1.796,0.982,1.576c8.314-2.144,10.635,4.354,9.719,10.816c-0.142,1.013,0.997,0.682,1.638-1.104
		c1.935-5.387-0.209-10.751-5.595-12.694c1.896-10.709,5.27-22.485,9.684-32.295c4.109-9.143,5.488-2.312,2.079,6.577
		c-1.737,4.538-6.397,15.267-6.727,16.08c-0.332,0.812,1.28,0.487,2.124-1.375c4.573-3.104,13.741-11.212,18.576-14.15
		c1.405-0.856,2.846-1.615,4.379-2.198c1.551-0.59,4.091,0.452,2.402,2.618c-2.199,2.826-5.312,4.258-8.304,6.099
		c-5.394,3.325-10.58,6.558-15.974,9.898c0.909,1.209,2.565,2.68,3.045,3.411c1.841-0.404,21.979-3.7,26.122-1.462
		c3.606,1.95,0.159,3.98-4.325,4.225C568.196,173.802,556.194,173.415,552.611,173.398z"/>
	<path d="M431.524,170.957c-2.176,1.709-4.536,2.57-7.657,2.153c-2.663-0.355-4.231-1.99-5.94-3.57
		c2.524-1.558,4.464-3.142,8.171-6.672c3.955-3.767,7.263-7.928,7.406-13.5c0.012-0.359-0.558-0.533-0.7-0.174
		c-0.608,1.57-1.372,2.746-2.258,4.047c0,0,1.199-8.669-8.211-10.319c-5.871-1.029-12.704,3.602-12.915,10.059
		c-0.174,5.272,3.268,9.156,8.089,10.011c0.781,0.139,1.558,0.163,2.328,0.129c-1.566,1.044-5.978,3.848-7.597,4.776
		c-1.968,1.126,4.577,8.175,10.436,8.932C432.086,178.04,431.989,170.589,431.524,170.957z"/>
	<path fill="#FFFFFF" d="M412.07,154.63c-1.246-4.898,4.02-8.801,8.047-9.218c5.23-0.534,8.64,3.583,8.783,8.367
		c-0.003,0.012-0.008,0.019-0.01,0.028c-0.261,1.385-2.632,3.503-3.68,4.402c-1.571,1.349-3.653,2.047-5.685,2.139
		C415.982,160.513,412.968,158.169,412.07,154.63z"/>
	<path d="M449.866,144.617c-3.692-1.285-7.918-0.194-10.828,2.188c-9.774,7.997-4.233,19.185,0.829,21.623
		c5.548,2.665,12.495,0.027,15.855-4.841C460.038,157.338,456.94,147.081,449.866,144.617z"/>
	<path fill="#FFFFFF" d="M453.13,161.392c-1.856,3.486-5.478,5.288-10.351,4.421c-5.185-0.921-7.974-8.108-5.826-12.766
		c2.148-4.66,7.19-7.312,11.815-5.875C453.945,148.782,456.039,155.929,453.13,161.392z"/>
	<path d="M452.287,173.19c-3.915-1.697-7.421-0.121-10.806,1.858c-0.387,0.223-0.107,0.884,0.318,0.732
		c2.153-0.784,4.664-0.73,6.955-0.173c-9.575,12.106-36.898,23.115-43.254,2.397c-0.162-0.528-0.871-0.387-0.983,0.089
		c-1.712,7.171,4.438,11.981,10.679,13.822c-1.263,9.106,6.379,19.227,16.413,16.376c13.396-3.806,15.704-20.101,20.066-31.546
		c1.236,0.568,3.168,1.472,5.794,5.188c0.343,0.486,1.171-0.069,1.182-0.625C458.743,177.401,455.629,174.637,452.287,173.19z"/>
	<path fill="#FFFFFF" d="M447.906,180.184c-2.24,3.154-3.122,7.218-5.312,10.508c-5.478,8.227-13.773,10.815-23.082,9.099
		c-0.08-0.017-0.149,0.012-0.213,0.04c-1.129-2.339-1.751-5.025-1.948-7.396C430.326,194.902,440.965,188.204,447.906,180.184z"/>
	<path fill="#FFFFFF" d="M439.713,198.339c-2.968,4.811-7.359,7.989-13.079,7.417c-3.129-0.315-5.364-2.367-6.865-5.032
		c7.729,3.538,15.256,1.049,20.941-4.176C440.375,197.143,440.068,197.766,439.713,198.339z"/>
	<path d="M438.948,211.311c-2.154,0.727-3.781,2.268-5.828,3.24c-4.064,1.943-9.148,1.029-12.79-1.483
		c-0.461-0.32-1.204,0.245-0.776,0.73c2.943,3.327,5.967,4.998,10.498,5.01c3.958,0.008,8.982-2.33,10.141-6.366
		C440.402,211.721,439.598,211.093,438.948,211.311z"/>
	<path d="M428.244,155.571c0,2.565-2.054,4.643-4.583,4.643c-2.529,0-4.585-2.079-4.585-4.643c0-2.568,2.055-4.645,4.585-4.645
		C426.19,150.926,428.244,153.003,428.244,155.571z"/>
	<ellipse cx="448.26" cy="159.752" rx="5.349" ry="5.419"/>
	<path fill="#FFFFFF" d="M452.384,159.132c0,1.111-0.889,2.012-1.987,2.012c-1.096,0-1.985-0.901-1.985-2.012
		c0-1.114,0.889-2.013,1.985-2.013C451.495,157.119,452.384,158.018,452.384,159.132z"/>
	<path fill="#FFFFFF" d="M427.565,155.107c0,0.901-0.722,1.635-1.612,1.635c-0.895,0-1.617-0.734-1.617-1.635
		c0-0.905,0.722-1.637,1.617-1.637C426.843,153.471,427.565,154.202,427.565,155.107z"/>
	<path d="M426.627,135.568c-4.211-1.476-8.776,1.702-12.329,3.653c-0.404,0.221-0.139,0.739,0.231,0.771
		c4.101,0.36,9.342,0.102,12.537-2.888C427.621,136.587,427.232,135.781,426.627,135.568z"/>
	<path d="M453.352,139.048c-1.789-1.008-10.862-2.427-13.413-2.744c-0.481-0.059-0.787,0.466-0.529,0.871
		c2.545,3.978,9.848,5.935,14.059,3.638C454.187,140.42,453.959,139.389,453.352,139.048z"/>
	<path fill="#9CC2ED" d="M352.91,201.024c1.124-1.375,2.268-2.737,3.411-4.097c-1.223-1.268-2.427-2.568-3.603-3.935
		c-0.973,0.69-2.819,2.302-3.932,3.489C350.099,198.081,351.466,199.58,352.91,201.024z"/>
	<path fill="#9CC2ED" d="M516.644,212.273c2.875-1.454,5.655-2.962,8.322-4.523c-0.67-1.146-1.829-2.99-2.248-4.313
		c-2.091,1.188-5.01,2.674-8.503,4.303C515.079,209.211,515.902,210.713,516.644,212.273z"/>
	<path fill="#9CC2ED" d="M448.858,236.915c2.224-1.328,4.236-2.878,6.102-4.58c-0.02-0.184-0.039-0.379-0.059-0.561
		c-1.89-0.044-3.776-0.166-5.652-0.387c-0.65-0.08-0.601-1.084,0.02-1.127c2.895-0.194,5.742-0.456,8.546-0.771
		c1.466-1.581,2.841-3.253,4.164-4.982c-6.005,0.792-11.508,0.885-15.937-0.114c-3.168,0.988-6.422,1.685-9.684,2.084
		c-0.817,2.786-3.397,8.684-8.665,12.62c0.136,0.536,0.265,1.087,0.385,1.647C434.904,241.956,442.152,240.914,448.858,236.915z"/>
	<path fill="#9CC2ED" d="M413.874,315.534c13.971,4.585,30.757,6.384,38.545,3.039C440.402,314.829,426.565,315.099,413.874,315.534
		z"/>
	<path fill="#9CC2ED" d="M422.702,300.276c3.704-4.364,5.262-10.037,6.339-15.584c1.687-8.686,2.087-17.018,0.566-25.224
		c-0.191,14.453-2.903,29.708-6.399,36.798c-2.6,2.169-6.22,4.479-10.021,6.381C415.962,304.664,420.024,303.428,422.702,300.276z"
		/>
	<path fill="#9CC2ED" d="M406.797,227.526c2.918,0.508,5.876,0.945,8.877,1.338c-0.31,0.863-0.851,2.943-1.575,5.818
		c3.099,2.271,6.531,4.034,10.155,5.146c0.184-0.405,0.374-0.821,0.554-1.218c-1.462-4.223-2.486-8.366-2.884-12.181
		c-3.325-0.598-5.385-1.277-8.173-2.598c-3.185,0-6.622-0.497-10.153-1.317C404.531,224.282,405.599,225.958,406.797,227.526z"/>
	<path fill="#0047AB" d="M430.994,231.701c1.208-1.586,2.235-3.364,2.694-4.965c-2.059,0.144-8.707-0.134-9.94-0.315
		c0.3,1.493,0.67,2.932,1.065,4.362C426.882,231.031,428.947,231.322,430.994,231.701z"/>
	<path fill="#0047AB" d="M426.951,257.158c0.122-6.838-0.255-12.771-0.98-16.435c-0.982,2.486-2.466,5.982-4.191,9.977
		C423.63,252.732,425.376,254.891,426.951,257.158z"/>
	<path fill="#5C6680" d="M451.146,330.239c0.704-2.201,1.188-4.71,1.293-7.582c-4.905,1.372-10.781,1.191-14.739,0.871
		c-8.937-0.717-22.76-3.749-32.861-8.111C417.404,326.307,434.423,331.14,451.146,330.239z"/>
	<path fill="#5C6680" d="M339.708,351.134c-1.226-0.432-2.374-0.997-3.491-1.612c0.022,3.094-0.24,6.057-0.838,8.764
		c3.734,1.352,6.875,1.359,9.392,0.338c-0.29-2.147-0.632-4.23-1.003-6.28C342.407,351.994,341.051,351.607,339.708,351.134z"/>
	<path fill="#5C6680" d="M439.742,360.419c2.888,12.138,6.918,23.971,10.289,25.14c1.595,0.553,4.241,0.176,7.555-0.859
		C453.525,375.817,446.454,368.009,439.742,360.419z"/>
	<path fill="#7A5439" d="M337.344,364.8c0.414-0.193,0.826-0.382,1.219-0.563c0.223,0.354,0.427,0.827,0.613,1.352
		c2.23,0.941,4.489,1.811,6.773,2.541c0.112,0.022,0.224,0.033,0.337,0.057c-0.481-2.225-1.213-4.389-2.084-5.88
		c-3.457,0.57-10.627-1.147-11.006-1.811c-0.901,0.375-1.854,0.714-2.841,1.022C332.649,362.642,334.977,363.753,337.344,364.8z"/>
	<path fill="#7A5439" d="M546.488,368.507c-6.151-6.222-14.929-14.833-24.338-17.168c10.046,8.108,21.519,25.934,26.817,36.236
		c0.11-6.071-0.621-12.698-2.287-18.867C546.617,368.641,546.553,368.572,546.488,368.507z"/>
	<path fill="#FFDEC8" d="M466.603,145.405c3.354,3.29,6.987,13.344,6.806,21.368C473.187,176.565,459.792,138.724,466.603,145.405z"
		/>
	<path fill="#FFDEC8" d="M546.598,169.25c3.31,1.419,6.171,7.721,6.493,11.483C553.601,186.67,538.831,165.922,546.598,169.25z"/>
	<path fill="#D0E3FF" d="M454.679,261.506c1.285,10.441,1.213,23.976,0.605,31.968c-0.605,7.989-5.456-7.992-5.456-14.753
		C449.828,271.957,453.466,251.672,454.679,261.506z"/>
	<path fill="#428AE5" d="M409.415,282.642c1.328-2.865,5.332-13.513,6.563-16.006c1.23-2.494,0.819,7.692,0,9.771
		C415.156,278.486,407.772,286.174,409.415,282.642z"/>
	<path fill="#FF9B52" d="M185.969,155.605c7.98,8.711,29.404,30.559,34.679,39.731c5.278,9.168-15.832-4.585-21.862-11.461
		C192.757,176.998,176.168,144.907,185.969,155.605z"/>
</g>
</svg>
