<?xml version="1.0" encoding="utf-8"?>
<!-- Generator: Adobe Illustrator 17.0.0, SVG Export Plug-In . SVG Version: 6.00 Build 0)  -->
<!DOCTYPE svg PUBLIC "-//W3C//DTD SVG 1.1//EN" "http://www.w3.org/Graphics/SVG/1.1/DTD/svg11.dtd">
<svg version="1.1" id="Layer_1" xmlns="http://www.w3.org/2000/svg" xmlns:xlink="http://www.w3.org/1999/xlink" x="0px" y="0px"
	 width="800px" height="600px" viewBox="0 0 800 600" enable-background="new 0 0 800 600" xml:space="preserve">
<g>
	<g>
		<path d="M579.353,388.18c-2.946-35.59-19.418-73.707-36.922-104.351c-8.714,1.69-21.623,9.724-34.738,19.332
			c-13.115,9.613-26.694,24.729-29.237,30.018c5.95,8.54,15.453,26.439,19.674,38.666c4.905,14.2,7.293,33.83,8.606,48.755
			C518.193,421.405,556.02,404.932,579.353,388.18z"/>
		<path fill="#FFFFFF" d="M535.009,291.393c-1.56,3.734-8.527,42.091-9.327,47.784c-6.072-1.777-31.637-7.035-38.398-8.18
			C500.369,312.27,525.983,295.6,535.009,291.393z"/>
		<path fill="#FFFFFF" d="M486.217,336.04c6.267,1.023,32.461,4.35,39.184,5.362c-0.604,5.376-2.379,13.432-1.169,16.371
			c1.209,2.939,7.417,6.118,10.214,8.268c-4.489,17.755-12.626,35.836-20.685,44.937
			C513.671,384.015,501.415,357.787,486.217,336.04z"/>
		<path fill="#FFFFFF" d="M543.448,401.146c-8.868,4.238-18.467,8.391-27.948,11.5c10.507-9.808,18.205-28.849,22.634-43.662
			c2.02,1.445,21.931,14.156,30.783,18.389C560.946,392.72,552.042,397.039,543.448,401.146z"/>
		<path fill="#FFFFFF" d="M527.852,354.287c-0.591-3.872,6.248-43.929,11.932-63.737c5.682,10.912,13.97,27.442,20.466,44.946
			c6.493,17.501,10.854,35.58,11.11,46.741C564.524,378.648,528.443,358.16,527.852,354.287z"/>
	</g>
	<path fill="#C4C4C4" d="M578.87,515.43c0.017,10.154-80.518,18.872-179.878,19.469c-99.368,0.602-179.932-7.144-179.95-17.295
		c-0.019-10.152,80.513-18.87,179.881-19.472C498.286,497.533,578.852,505.277,578.87,515.43z"/>
	<polygon points="281.502,121.661 281.495,121.661 281.504,121.661 	"/>
	<path d="M281.508,121.662L281.508,121.662c0.094,0.023,0.184,0.048,0.275,0.068C281.692,121.706,281.602,121.681,281.508,121.662z"
		/>
	<path d="M483.347,226.872c-19.612-17.523-48.148-36.002-64.467-45.664c-16.321-9.661-33.967-20.013-44.523-24.847
		c-10.716-4.903-20.243-8.798-32.114-8.222c-14.153,0.682-25.437,6.443-33.293,19.973c-7.051,12.143-11.524,31.173-12.67,48.176
		c-0.479,7.161-1.063,12.692-1.199,19.852c-5.164,3.667-9.449,10.007-9.588,18.203c-0.108,6.364,3.336,17.648,11.394,21.26
		c1.478,21.469,2.909,58.964,3.203,83.892c0.296,24.929,0.137,107.905,0.137,110.659c8.632,0.425,24.529-1.254,42.023-1.53
		c-0.268,13.883-0.423,8.687,0.783,22.514c-8.5-1.113-26.68-0.512-33.742,3.322c-11.235,6.103-13.248,14.215-12.396,21.322
		c11.106,1.565,54.547,1.69,67.412,0.693c0.935-4.791-0.33-21.269-15.191-23.927c-1.35-14.317-1.189-9.619-0.91-23.997
		c8.05-0.073,40.243,1.158,49.456,1.27c-0.095,13.812,1.472,8.457,1.901,22.255c-10.629,1.983-18.616,12.306-16.65,20.933
		c15.391,6.783,63.677,5.398,73.283,0.454c-2.243-16.453-31.773-21.005-50.668-21.165c-0.42-13.866-2.007-8.58-1.911-22.455
		c9.396-0.05,25.865-0.273,32.788-1.848c0.514-19.569-1.092-168.971-2.237-180.289c11.791,0.603,23.578,1.084,35.351-0.473
		c13.692-1.807,30.413-6.639,32.814-22.579C504.417,250.83,493.123,235.607,483.347,226.872z"/>
	<path fill="#562D14" d="M324.996,500.841c-1.085-1.637-2.357-2.862-3.768-3.705c-0.442,0.03-0.875,0.059-1.294,0.087
		c-10.114,0.653-17.662,8.431-16.587,13.117c1.36,0.239,12.93,0.352,24.391,0.222C328.376,507.313,326.649,503.334,324.996,500.841z
		"/>
	<path fill="#6A3A23" d="M324.578,496.916c0.841,0.802,1.605,1.748,2.267,2.844c1.843,3.053,3.538,7.128,3.034,10.772
		c6.603-0.091,12.954-0.273,17.049-0.56c0.355-1.672,0.21-3.982-0.363-5.829c-0.331-1.07,0.624-1.489,1.81-0.039
		c1.072,1.31,1.8,3.438,1.793,5.962c2.79,0.023,6.693,0.009,8.499,0.172C356.943,495.818,337.826,496.094,324.578,496.916z"/>
	<path fill="#FFFFFF" d="M355.059,209.089c-3.564,0-3.564,5.52,0,5.52C358.619,214.61,358.619,209.089,355.059,209.089z"/>
	<path fill="#FFDBCC" d="M402.668,275.455c17.94,2.391,48.488,3.148,66.557,0.895c4.515-0.647,9.007-1.602,13.254-3.28
		c1.631-0.735,3.19-1.594,4.647-2.628c0.773-0.65,1.493-1.352,2.151-2.117c0.583-0.848,1.083-1.738,1.519-2.667
		c0.399-1.073,0.702-2.173,0.907-3.297c0.122-1.323,0.11-2.645-0.016-3.968c-0.343-2.008-0.925-3.953-1.671-5.849
		c-1.647-3.653-3.819-7.029-6.235-10.222c-6.725-8.495-37.737-33.667-61.341-47.148c0.607,8.929-6.682,14.324-16.037,14.931
		c-4.999,0.324-10.189-0.661-14.713-2.813c-3.473-1.651-6.72-4.193-9.525-7.502c2.004,9.061,0.377,19.352-7.82,24.405
		c-9.206,5.677-21.623,5.328-29.691,0.245c-0.147,0.324-0.313,0.636-0.454,0.96c-0.151,0.374-0.302,0.747-0.446,1.116
		c-1.735,4.415-5.738-1.351-3.097-7.048c11.04-23.829,30.564-39.434,56.578-39.434c0.545,0,1.097,0.026,1.646,0.047
		c-6.773-4.136-13.433-8.268-20.66-11.96c-5.003,0.399-8.87,1.752-12.274,3.152c-4.629,2.022-8.916,4.651-12.939,7.699
		c-5.46,4.27-10.321,9.22-14.59,14.677c-0.637,0.834-1.435-2.988,2.14-7.245c8.165-9.72,16.242-17.481,32.195-20.931
		c-0.767-0.349-1.533-0.699-2.315-1.036c-6.595-2.731-13.419-4.956-20.493-6.021c-3.736-0.436-7.491-0.515-11.231-0.098
		c-2.602,0.414-5.15,1.058-7.602,2.005c-1.754,0.81-3.401,1.783-4.962,2.914c-1.864,1.54-3.536,3.263-5.058,5.13
		c-2.498,3.367-4.491,7.037-6.16,10.873c-3.464,8.515-5.444,17.558-6.709,26.641c-1.233,9.534-1.852,19.173-2.09,28.836
		c4.637,0.358,8.488,1.966,11.318,6.01c2.918,4.168-0.7,8.884-4.057,5.452c-0.65-0.659-2.333-2.813-6.086-3.646
		c-3.751-0.833-8.337,0.695-10.282,3.891c-1.945,3.194-2.951,6.079-2.587,10.264c0.364,4.187,3.587,8.895,7.881,9.667
		c4.294,0.774,7.907-0.061,10.824-2.979c2.639-2.642,5.988,2.666,3.056,6.39c-3.043,3.864-5.696,4.864-9.448,5.699
		c0.587,11.264,2.152,40.927,3.16,59.76c14.289-0.054,46.054-0.465,73.269-0.831c0.011,0,0.019-0.003,0.027-0.003
		c0.011,0,0.019,0.003,0.029,0.003c18.944-0.257,35.67-0.49,42.731-0.568c-0.706-18.732-1.35-35.903-1.788-46.615
		C400.064,285.431,396.161,274.587,402.668,275.455z"/>
	<path fill="#F2C9B5" d="M424.978,307.613c-1.938-0.529-3.85-1.137-5.724-1.862c-10.593-4.112-18.061-14.424-17.705-25.785
		c2.963,2.914,10.036,6.317,22.631,7.246C424.399,292.59,424.671,299.599,424.978,307.613z"/>
	<path fill="#F2C9B5" d="M341.795,327.443c-10.663-1.022-13.655-10.833-12.303-19.878c6.755,8.138,17.717,14.134,26.976,10.188
		C354.596,323.881,348.816,328.119,341.795,327.443z"/>
	<path fill="#F2C9B5" d="M426.203,197.386c-0.108,16.425-19.211,22.792-37.485,13.655c-2.767,13.013-11.158,18.765-21.595,20.491
		c-7.197,1.188-18.552,0.828-23.401-4.958c0.009-0.02,0.023-0.036,0.031-0.059c0.143-0.369,0.295-0.743,0.446-1.116
		c0.142-0.324,0.307-0.636,0.454-0.96c8.069,5.083,20.486,5.432,29.691-0.245c8.197-5.052,9.824-15.344,7.82-24.405
		c2.805,3.309,6.052,5.851,9.525,7.502c4.523,2.152,9.713,3.137,14.713,2.813c9.355-0.608,16.644-6.003,16.037-14.931
		C423.674,195.881,424.933,196.623,426.203,197.386z"/>
	<path fill="#FFFFFF" d="M357.995,219.121c-3.861,0-6.39-2.066-7.589-4.768c-1.494,2.166-2.867,4.409-4.1,6.732
		c7.566,5.032,16.298,4.675,24.691,1.037c5.738-2.489,8.167-8.803,8.746-13.992c0.31-2.811-0.099-10.213-4.149-15.525
		c-3.829,1.901-7.466,4.153-10.885,6.733c-1.21,0.949-2.376,1.951-3.522,2.973C369.065,205.265,368.003,219.121,357.995,219.121z"/>
	<path fill="#FFFFFF" d="M419.011,194.946c-0.101-0.606-0.236-1.197-0.385-1.788c-0.316-0.164-0.633-0.323-0.951-0.485
		c-0.283-0.076-0.571-0.185-0.862-0.34c-1.206-0.645-2.433-1.239-3.677-1.791c-3.354-1.351-6.812-2.307-10.38-2.866
		c0.913,4.861-1.824,10.529-8.222,10.529c-5.938,0-8.727-4.88-8.372-9.465c-2.096,0.529-4.158,1.177-6.184,1.94
		c1.781,3.635,5.162,9.301,11.039,12.622c4.266,2.411,7.582,2.787,9.832,3.123c2.449,0.298,4.903,0.329,7.354,0.04
		c1.665-0.25,3.285-0.654,4.854-1.273c0.971-0.436,1.886-0.947,2.752-1.571c0.596-0.49,1.136-1.022,1.627-1.616
		c0.398-0.552,0.736-1.13,1.025-1.751c0.262-0.693,0.45-1.397,0.581-2.126C419.152,197.062,419.128,196.011,419.011,194.946z"/>
	<path fill="#FFFFFF" d="M391.15,193.058c3.413,0,3.413-5.289,0-5.289C387.738,187.769,387.738,193.058,391.15,193.058z"/>
	<path fill="#2D4D81" d="M348.732,361.338c2.243-0.026,5.303,2.411,3.182,2.653c-3.255,0.375-13.932,2.628-14.703,2.87
		c1.065,1.831,21.333,28.588,30.518,42.485c-0.28-4.632-0.678-9.267-1.284-13.917c-2.611-18.186-7.663-44.069-10.198-55.215
		c-5.687,0.11-11.287,0.2-16.832,0.273c1.314,5.492,3.084,17.847,4.068,21.464C345.205,361.741,346.929,361.359,348.732,361.338z"/>
	<path fill="#2D4D81" d="M387.549,363.394c-1.152-0.496,2.441-2.798,6.934-1.262c0.388-4.16,1.576-15.485,1.973-22.77
		c-3.628,0.068-7.298,0.144-10.839,0.215c0.301,8.93-1.439,19.346-3.409,27.447c-2.29,9.419-6.797,19.424-11.044,28.182
		c0.756,7.322,1.24,14.635,1.547,21.953c7.035-11.165,23.883-40.887,28.591-48.874C396.238,366.48,388.706,363.89,387.549,363.394z"
		/>
	<path fill="#FFFFFF" d="M376.11,339.782c1.787,1.608,3.461,3.362,5.112,5.123c0.036-1.744-0.023-3.494-0.216-5.23
		C379.315,339.71,377.676,339.744,376.11,339.782z"/>
	<path fill="#1F4172" d="M370.254,387.803c0.238-0.53,0.491-1.05,0.72-1.583c3.228-7.712,5.895-15.775,7.772-23.981
		c-1.091-2.895-3.191-5.979-3.907-6.514c-2.055,3.756-6.034,12.87-7.183,16.273C368.654,377.527,369.57,383.005,370.254,387.803z"/>
	<path fill="#1F4172" d="M368.645,348.526c1.085,1.242,3.513,3.577,5.435,4.204c0.392-0.716,2.324-5.05,2.335-7.817
		c-1.309-1.338-2.662-2.621-4.105-3.816C371.209,343.317,369.927,345.857,368.645,348.526z"/>
	<path fill="#FFFFFF" d="M378.101,346.608c-0.352,2.496-1.262,4.923-2.1,7.062c1.536,1.749,2.386,3.286,3.353,5.361
		c0.53-2.556,0.943-4.446,1.306-7.021c0.1-0.786,0.189-1.574,0.267-2.36C379.858,348.532,379.163,347.727,378.101,346.608z"/>
	<path fill="#FFFFFF" d="M366.93,368.147c1.97-4.978,3.584-8.325,5.944-13.136c-2.191-1.234-4.067-3.086-5.184-4.292
		c-1.113,2.377-1.941,4.119-2.846,6.483C365.598,360.99,366.167,364.016,366.93,368.147z"/>
	<path fill="#FFFFFF" d="M363.673,351.438c1.741-3.889,3.563-7.605,5.358-11.497c-0.043,0-0.093,0.005-0.136,0.005
		c-2.588,0.057-5.144,0.116-7.682,0.171C361.715,342.196,362.612,346.29,363.673,351.438z"/>
	<path fill="#2D4D81" d="M426.163,339.013c-3.394-0.081-14.224,0.068-26.171,0.285c-0.291,8.713-1.385,20.996-1.769,24.18
		c2.059,0.744,6.732,2.506,8.462,3.63c-4.842,8.392-28.095,46.612-33.766,55.722c0.176,5.896,0.261,30.903,0.288,36.811
		c17.969,0.83,35.937,1.49,53.843-0.43C427.07,439.999,426.7,353.272,426.163,339.013z"/>
	<path fill="#6A3A23" d="M425.826,499.728c-16.939-3.35-37.448-2.54-37.876,8.637c1.551,0.543,3.463,1.03,5.627,1.445
		c0.365-2.208,1.738-4.109,3.582-5.598c0.626-0.506,1.477,0.312,1.018,0.965c-1.236,1.754-1.625,3.508-1.219,5.336
		c4.428,0.572,13.429,1.085,22.839,1.237C420.153,507.084,422.359,502.516,425.826,499.728z"/>
	<path fill="#562D14" d="M428.615,500.326c-3.825,2.146-6.209,6.826-6.642,11.456c10.406,0.107,20.923-0.253,25.993-1.486
		C447.138,506.49,438.813,502.679,428.615,500.326z"/>
	<path fill="#2D4D81" d="M368.272,459.412c0.031-7.984-0.048-34.113-0.316-42.05c-5.613-9.889-31.338-41.785-36.747-52.056
		c1.802-0.903,6.603-2.58,8.795-2.895c-1.258-4.858-3.096-17.659-4.173-21.882c-8.539,0.099-17.021,0.149-25.63,0.157
		c0.356,7.097-0.159,95.562,0.115,120.103C329.571,458.574,348.943,458.512,368.272,459.412z"/>
	<path d="M330.651,307.253c7.273,7.595,17.105,9.098,27.097,8.355c0.484-0.036,0.597,0.597,0.327,0.885
		c-7.758,8.324-27.066,2.318-29.35-8.299C328.485,307.076,329.919,306.49,330.651,307.253z"/>
	<path d="M306.408,429.642c0,0,15.63,6.913,60.465,6.798c44.93-0.116,63.793-8.729,63.793-8.729l-0.17,11.157
		c0,0-13.099,8.659-63.866,8.501c-53.618-0.166-60.222-6.072-60.222-6.072V429.642z"/>
	<path d="M360.075,424.528c-4.759,0-4.808,7.383-0.045,7.383C364.789,431.91,364.836,424.528,360.075,424.528z"/>
	<path d="M359.976,411.502c-4.759,0-4.806,7.383-0.045,7.383C364.69,418.885,364.738,411.502,359.976,411.502z"/>
	<path fill="#6A3A23" d="M357.585,439.143c-32.381-0.22-47.402-5.417-47.402-5.417l0.177,5.483c0,0,11.145,4.571,47.406,5.368
		C357.377,442.833,357.334,440.996,357.585,439.143z"/>
	<path fill="#6A3A23" d="M385.363,444.237c29.626-1.647,41.764-7.149,41.764-7.149l-0.178-4.954c0,0-13.32,4.221-41.898,6.136
		C385.676,440.169,385.721,442.207,385.363,444.237z"/>
	<path fill="#9A7F35" d="M381.585,438.485c-4.058,0.236-8.387,0.423-13.018,0.547c-2.664,0.071-5.225,0.107-7.697,0.115
		c-0.151,0.817-0.254,1.641-0.223,2.472c0.039,1.078,0.198,2.079,0.49,3.019c1.777,0.028,3.591,0.048,5.483,0.056
		c5.578,0.025,10.714-0.087,15.444-0.295C382.526,442.37,382.46,440.307,381.585,438.485z"/>
	<path d="M518.725,367.926c-1.544,0.258-5.102,0.833-7.567,0.737c-2.467-0.095-4.332-1.574-6.39-3.245
		c-2.058-1.672-5.596-3.089-8.426-2.315c-2.83,0.772-4.502,3.539-3.217,7.784c1.287,4.243,3.266,7.933,3.692,11.523
		c0.424,3.588-17.502-0.036-31.475-9.369c-11.703-7.814-22.452-19.287-32.301-29.201c-1.456-1.465-3.449,0.566-2.276,2.145
		c8.206,11.018,14.136,20.661,25.022,29.181c12.207,9.552,33.437,21.761,42.905,16.856c5.606-2.901,3.365-11.157,2.034-16.298
		c1.459,1.155,2.883,2.368,4.409,3.356c4.546,2.945,10.464,2.016,14.368-1.481C523.483,374.036,520.269,367.669,518.725,367.926z"/>
	<path d="M371.893,294.697c1.482-4.613,2.238-11.182-0.58-6.975c-2.232,3.332-8.195,8.651-13.05,9.119
		c-8.872,0.859-12.909-5.576-15.077-11.458c-2.361-6.4-1.392-14.497-1.175-21.143c0.161-4.906-0.568-11.599-2.357-16.214
		c4.54,0.795,9.195,4.889,10.78,8.226c1.24,2.619,2.273-2.379,0.599-4.933c-3.847-5.866-8.612-7.415-15.862-7.173
		c-5.774,0.191-10.441,5.016-7.988,10.312c0.517,1.117,2.455,2.013,2.299,1.223c-0.54-2.762,1.033-7.229,5.951-7.645
		c0.86,4.728,1.721,9.264,1.78,14.111c0.061,5.032-0.475,10.065-0.528,15.096c-0.091,8.722,1.057,17.329,7.85,23.815
		C353.044,309.182,368.704,304.623,371.893,294.697z"/>
	<g>
		<path d="M393.358,101.8c-5.757-4.437-33.07-8.226-54.853-5.434c-9.821,1.261-19.744,3.193-29.276,5.849
			c-9.53,2.656-18.373,5.903-22.7,9.151c-4.563,3.422-2.068,8.383,2.216,12.543c4.284,4.162,21.82,18.104,21.883,18.11
			c0.025,2.766,1.32,16.29,2.283,18.768c0.963,2.48,43.129,20.134,65.776,16.42c7.598-1.248,17.237-5.748,18.592-14.165
			c1.048-6.516-6.866-13.655-13.577-15.549c-0.391-4.465-1.666-12.165-2.166-14.521C385.425,127.998,400.47,107.28,393.358,101.8z"
			/>
		<path fill="#2D4D81" d="M314.676,140.818c26.638,3.374,48.216,0.369,62.909-7.567c0.318,1.312,0.844,4.92,0.843,7.099
			c-6.789,8.64-33.829,12.038-35.214,12.454c-1.386,0.416-4.029,2.793-3.514,8.786c-7.687,0.42-15.407-0.459-22.904-2.459
			C315.852,153.087,314.89,146.039,314.676,140.818z"/>
		<path fill="#9A7F35" d="M379.653,148.695c0.023,1.298-10.552,10.224-36.924,12.663c-0.281-1.141,0.009-5.789,2.423-6.37
			c2.414-0.583,12.043-2.301,15.962-3.512c8.076-2.493,13.158-4.344,17.646-8.626C379.077,144.277,379.627,147.185,379.653,148.695z
			"/>
		<path fill="#565656" d="M389.756,158.046c2.963,4.089,1.278,7.642-2.183,10.017c-6.648,4.565-15.783,4.274-23.464,4.022
			c-10.319-0.338-21.482-2.773-31.114-6.359c6.593,0.524,13.331,0.006,19.364-1.115c9.548-1.774,23.192-4.361,30.263-12.182
			C384.836,153.012,387.734,155.255,389.756,158.046z"/>
		<path fill="#2D4D81" d="M378.425,126.617c-11.897,8.761-39.686,15.048-66.244,9.329c-2.556-1.044-17.787-12.316-21.052-17.391
			c-3.125-4.855,2.773-6.946,5.79-8.005c12.464-4.385,29.447-8.203,45.6-9.623c18.498-1.628,39.278,1.62,43.85,3.84
			C390.939,106.985,386.876,120.392,378.425,126.617z"/>
		<path fill="#5A73A4" d="M304.892,119.245c15.071,4.171,42.64,5.682,66.712-4.398C391.568,106.487,270.825,109.812,304.892,119.245
			z"/>
	</g>
	<path d="M371.751,431.983c64.539-38.953,74.822-81.142,63.387-96.511c-1.339-1.802-4.892-1.934-5.009,0
		c-1.362,22.393-20.108,51.313-62.751,78.721c-15.098,9.704-33.222,18.835-54.58,26.541c-0.425-1.222-0.622-15.659-5.627-17.647
		c-5.005-1.988-75.809,2.128-78.119,3.498c-2.311,1.371-6.391,18.574-8.336,26.999c-2.406,10.424-2.17,31.815-2.015,34.723
		c0.154,2.914,31.238,6.846,51.513,6.767c20.276-0.074,47.48-5.545,47.925-9.013c0.444-3.467,0.815-21.818-0.052-27.447
		C339.172,450.43,356.857,440.969,371.751,431.983z"/>
	<path fill="#562D14" d="M231.472,428.956c0.744-1.078,71.801-4.111,73.252-1.597c1.452,2.518-0.254,26.285-2.094,28.41
		c-1.838,2.123-17.05,4.306-25.505,4.376c-0.5-3.466-1.903-10.374-2.749-11.551c-0.846-1.175-12.533-0.225-13.244,0.653
		c-0.708,0.881-1.008,9.037-1.088,10.904c-8.481,0.462-28.446-0.357-29.94-0.986c-1.793-0.757-3.995-5.351-3.756-7.51
		C226.586,449.498,230.728,430.037,231.472,428.956z"/>
	<path fill="#9A7F35" d="M272.953,472.239c-0.872,1.166-6.741,1-7.805,0.392c-1.065-0.608-2.089-19.391-1.496-20.154
		c0.595-0.76,7.293-1.242,7.873-0.408C272.102,452.9,273.826,471.069,272.953,472.239z"/>
	<path fill="#562D14" d="M278.623,488.443c-18.586,1.492-53.214-1.375-55.084-3.773c-1.872-2.397-0.335-25.149,1.307-28.052
		c0.799,2.357,1.741,4.913,4.449,5.779c2.708,0.862,17.556,1.2,30.844,1.233c0.141,3.342,0.649,8.656,1.277,11.463
		c0.628,2.807,14.994,1.093,15.538-0.366c0.543-1.459,0.885-7.302,0.584-11.011c11.418-0.431,26.661-3.067,28.632-4.888
		c1.97-1.821,2.687-8.293,2.695-11.605c5.338,9.093,4.806,34.076,3.844,36.262C311.745,485.672,285.613,487.88,278.623,488.443z"/>
	<path fill="#562D14" d="M316.788,454.107c-0.332-1.572-1.859-6.798-2.807-9.799c23.076-4.951,109.294-46.874,120.894-101.453
		C440.94,398.223,343.649,445.421,316.788,454.107z"/>
	<path d="M306.647,344.845c0.892-0.909-2.042-5.841-3.017-5.047c-10.293,8.366-20.377,18.783-28.503,29.419
		c-8.927,11.683-14.602,25.81-18.014,39.949c-8.655,0.177-13.842,6.313-15.995,12.593c-1.365,3.974-2.151,11.773,0.795,15.96
		c-0.212,1.661-1.124,8.662,1.4,13.446c2.524,4.785,10.362,2.715,7.306-2.717c-1.846-3.28-2.657-6.59-2.657-8.533
		c0-2.715,2.126-4.008,2.126-2.973c0,5.173,3.961,13.995,6.243,16.682c3.801,4.469,10.094,0.321,6.538-4.126
		c-1.357-1.693-4.228-5.03-5.476-8.808c-1.195-3.618,0.532-5.3,0.798-4.007c1.171,5.694,8.833,15.544,12.088,16.941
		c3.322,1.419,6.426,0.557,7.193-1.622c1.434-4.066-0.816-5.75-3.207-7.82c-2.393-2.067-4.517-3.363-5.846-6.854
		c-1.327-3.491-1.598-7.42,2.034-10.416c2.654,3.109,7.752,7.122,12.294,7.25c10.283,0.287,12.081-10.566,9.034-13.789
		c-2.649-2.804-6.594,1.098-8.856,3.539c-2.262,2.445-7.213-0.045-8.942-2.138c-2.612-3.157-4.369-6.482-7.235-9.042
		c0.53-9.638,6.997-26.706,14.137-37.917C287.879,363.823,297.513,354.163,306.647,344.845z"/>
</g>
</svg>
