<?xml version="1.0" encoding="utf-8"?>
<!-- Generator: Adobe Illustrator 17.0.0, SVG Export Plug-In . SVG Version: 6.00 Build 0)  -->
<!DOCTYPE svg PUBLIC "-//W3C//DTD SVG 1.1//EN" "http://www.w3.org/Graphics/SVG/1.1/DTD/svg11.dtd">
<svg version="1.1" id="Layer_1" xmlns="http://www.w3.org/2000/svg" xmlns:xlink="http://www.w3.org/1999/xlink" x="0px" y="0px"
	 width="800px" height="600px" viewBox="0 0 800 600" enable-background="new 0 0 800 600" xml:space="preserve">
<g>
	<path fill="#D6B687" d="M179.739,484.098c46.959,23.388,183.51-2.597,304.999-58.011
		c121.471-55.432,181.885-119.316,134.926-142.696c-46.966-23.395-183.513,2.59-305,58.004
		C193.194,396.845,132.788,460.707,179.739,484.098z"/>
	<path fill="#E6E0C5" d="M382.734,237.379c-59.529,17.503-141.517,39.984-172.261,62.458
		c-30.748,22.466-44.531,47.055-44.531,83.274c0,36.333,27.672,77.044,70.077,84.74c52.304,9.502,86.409,9.988,162.207-20.123
		c80.717-32.063,113.569-57.868,152.61-87.941c39.049-30.078,90.977-80.754,70.217-127.318
		c-18.55-41.609-83.76-26.961-132.586-12.335C439.644,234.767,382.734,237.379,382.734,237.379z"/>
	<path fill="#D6C1A1" d="M246.442,307.36c0,0,21.53,15.573,80.916,15.573c59.382,0,226.578-17.482,283.933-104.841
		c0,0-11.823-12.887-42.165-12.887L246.442,307.36z"/>
	<path fill="#94501F" d="M131.064,280.819c0,0,157.366,69.248,341.786-2.7L131.064,280.819z"/>
	<path fill="#B88E26" d="M315.734,204.435l-34.709,101.296c0,0,47.673,5.674,113.926-6.974
		c74.553-14.243,122.403-36.097,158.859-62.403c34.823-25.126,61.371-59.028,61.371-59.028l-46.056-54.01
		c0,0-52.791,41.189-108.562,60.612C377.367,212.901,315.734,204.435,315.734,204.435z"/>
	<polygon fill="#E6BF63" points="315.734,204.435 160.464,191.754 132.243,280.827 281.025,305.732 	"/>
	<path opacity="0.26" fill="#94501F" d="M452.535,267.718c-10.754,4.502-20.654,5.331-22.113,1.853
		c-1.451-3.478,6.09-9.94,16.844-14.446c10.758-4.502,20.654-5.327,22.109-1.857C470.827,256.75,463.289,263.212,452.535,267.718z"
		/>
	<path opacity="0.26" fill="#94501F" d="M230.334,270.717c7.741-3.758,15.348-4.056,16.999-0.667
		c1.643,3.393-3.297,9.185-11.034,12.946c-7.741,3.761-15.345,4.056-16.995,0.67C217.661,280.27,222.598,274.479,230.334,270.717z"
		/>
	<path opacity="0.26" fill="#94501F" d="M275.713,232.766c4.369-2.118,9.243-1.087,10.89,2.303c1.647,3.393-0.56,7.855-4.926,9.977
		c-4.366,2.122-9.236,1.091-10.887-2.295C269.143,239.354,271.35,234.892,275.713,232.766z"/>
	<path opacity="0.26" fill="#94501F" d="M567.894,167.482c-8.555-1.573-14.94-5.85-14.262-9.56
		c0.685-3.707,8.171-5.434,16.726-3.865c8.562,1.57,14.943,5.851,14.265,9.553C583.939,167.317,576.453,169.048,567.894,167.482z"/>
	<path opacity="0.26" fill="#94501F" d="M523.603,202.865c-3.876,4.646-8.89,6.842-11.207,4.915c-2.31-1.93-1.039-7.258,2.833-11.9
		c3.872-4.646,8.886-6.845,11.196-4.918C528.743,192.896,527.475,198.22,523.603,202.865z"/>
	<path opacity="0.26" fill="#94501F" d="M556.61,209.095c-4.314-4.244-6.09-9.424-3.979-11.576
		c2.115-2.144,7.317-0.438,11.627,3.802c4.311,4.24,6.094,9.417,3.983,11.561C566.122,215.034,560.92,213.336,556.61,209.095z"/>
	<path fill="#FFE4A6" d="M160.464,191.754c0,0,101.794,13.952,187.197-14.394c85.411-28.353,109.877-54.043,109.877-54.043h111.587
		c0,0-86.796,100.637-253.391,88.468L160.464,191.754z"/>
	<path fill="#324866" d="M217.012,350.745c-1.569,14.737-7.556,26.176-13.377,25.55c-5.821-0.615-9.273-13.06-7.707-27.79
		c1.566-14.729,7.556-26.169,13.374-25.542C215.126,323.582,218.574,336.023,217.012,350.745z"/>
	<path fill="#324866" d="M284.068,358.593c-1.636,15.374-7.858,27.303-13.911,26.647c-6.053-0.645-9.634-13.609-8.002-28.969
		c1.636-15.37,7.866-27.296,13.915-26.651C282.119,330.257,285.7,343.237,284.068,358.593z"/>
	<path fill="#324866" d="M212.801,385.535l3.78,0.155c0,0-14.998,44.299,12.445,46.314c23.947,1.761,26.246-40.983,26.246-40.983
		l3.566-0.538c0,0,1.227,52.942-31.75,47.92C194.763,433.485,212.801,385.535,212.801,385.535z"/>
	<path fill="#D4B07B" d="M295.699,393.213c1.916,2.645-1.569,8.422-7.77,12.887c-6.212,4.48-12.795,5.95-14.703,3.298
		c-1.916-2.653,1.569-8.422,7.777-12.895C287.207,392.023,293.787,390.553,295.699,393.213z"/>
	<path fill="#D4B07B" d="M200.083,385.222c1.86,2.575-1.529,8.201-7.567,12.552c-6.049,4.362-12.456,5.792-14.317,3.209
		c-1.861-2.579,1.529-8.205,7.571-12.552C191.816,384.069,198.219,382.632,200.083,385.222z"/>
	<path fill="#E6E0C5" d="M261.186,320.509c0.685-2.24-34.945-50.683-49.873-42.781c-14.924,7.906,21.663,39.262,21.663,39.262
		L261.186,320.509z"/>
	<path fill="#E6E0C5" d="M241.884,314.01c0,0-54.644-23.962-65.745-12.862c-11.104,11.104,17.529,15.356,17.529,15.356
		L241.884,314.01z"/>
	<path fill="#C3D3E6" d="M209.552,336.826c1.875-5.467,2.675-10.647,0.258-11.248c-2.417-0.582-6.978,3.821-8.665,9.538
		c-1.474,4.999-1.647,10.736,0.84,10.736C204.737,345.852,207.828,341.848,209.552,336.826z"/>
	<path fill="#43648C" d="M207.385,364.962c2.059,6.772-0.851,9.115-3.518,9.281c-2.663,0.166-4.421-4.005-5.386-9.129
		c-0.98-5.21-0.059-9.977,2.608-10.143C203.749,354.812,205.691,359.37,207.385,364.962z"/>
	<path fill="#C3D3E6" d="M276.869,344.231c1.941-5.651,2.771-11.012,0.269-11.623c-2.498-0.612-7.217,3.949-8.96,9.859
		c-1.525,5.173-1.706,11.112,0.87,11.112C271.888,353.578,275.086,349.433,276.869,344.231z"/>
	<path fill="#43648C" d="M274.629,373.329c2.126,7.007-0.884,9.432-3.632,9.605c-2.76,0.166-4.576-4.145-5.578-9.446
		c-1.013-5.386-0.059-10.319,2.701-10.485C270.868,362.829,272.876,367.553,274.629,373.329z"/>
	<path fill="#2E3D39" d="M395.869,448.664l29.982-12.637c32.469-49.088,54.99-128.95,18.557-234.628
		c0,0-31.242-17.809-91.898-25.859l-20.587,5.865l4.056-11.583c0,0,16.711,0.033,52.875-21.719c0,0,40.01,1.183,118.579,18.462
		c0,0,30.995,73.072,21.892,147.389c-4.513,36.772-15.503,80.802-35.232,98.191c0,0-24.4,11.771-77.409,41.455L395.869,448.664z"/>
	<polygon fill="#647871" points="447.945,212.157 511.239,176.59 507.433,166.565 493.993,163.688 437.736,198.109 444.408,201.399 
			"/>
	<polygon fill="#647871" points="449.897,218.615 514.028,184.795 515.686,190.044 451.706,225.008 	"/>
	<path opacity="0.26" fill="#94501F" d="M341.843,251.648c-7.468,8.953-15.868,14.25-18.767,11.837
		c-2.892-2.417,0.822-11.627,8.29-20.584c7.468-8.952,15.868-14.25,18.76-11.841C353.021,233.481,349.311,242.692,341.843,251.648z"
		/>
	<path opacity="0.26" fill="#94501F" d="M186.964,214.938c7.818,3.592,12.88,9.277,11.311,12.707
		c-1.577,3.423-9.189,3.286-17.006-0.302c-7.822-3.588-12.88-9.277-11.314-12.699C171.535,211.217,179.143,211.35,186.964,214.938z"
		/>
	<path opacity="0.26" fill="#94501F" d="M373.995,283.299c-6.499-3.673-10.456-8.971-8.838-11.837
		c1.617-2.859,8.19-2.188,14.693,1.488c6.502,3.673,10.459,8.967,8.842,11.826C387.074,287.635,380.502,286.972,373.995,283.299z"/>
	<path opacity="0.26" fill="#94501F" d="M409.084,237.18c-5.014,2.55-10.294,2.24-11.782-0.692
		c-1.488-2.929,1.378-7.357,6.399-9.907c5.018-2.553,10.286-2.247,11.775,0.681C416.961,230.191,414.105,234.627,409.084,237.18z"/>
</g>
</svg>
