<?xml version="1.0" encoding="utf-8"?>
<!-- Generator: Adobe Illustrator 17.0.0, SVG Export Plug-In . SVG Version: 6.00 Build 0)  -->
<!DOCTYPE svg PUBLIC "-//W3C//DTD SVG 1.1//EN" "http://www.w3.org/Graphics/SVG/1.1/DTD/svg11.dtd">
<svg version="1.1" id="Layer_1" xmlns="http://www.w3.org/2000/svg" xmlns:xlink="http://www.w3.org/1999/xlink" x="0px" y="0px"
	 width="800px" height="600px" viewBox="0 0 800 600" enable-background="new 0 0 800 600" xml:space="preserve">
<g>
	<path d="M204.048,176.085c15.512,0.744,40.275,5.846,53.75,11.088c40.421-36.291,102.11-73.663,164.156-74.525
		c28.787-0.392,56.603,7.468,83.408,18.326c24.607,9.956,47.905,23.239,51.368,25.621c23.212-12.57,49.672-16.367,75.172-20.242
		c26.55-4.036,53.915-1.779,80.309,2.523c2.351,0.376,3.123,2.347,2.802,4.271c0.078,0.337,0.125,0.693,0.118,1.077
		c-0.122,33.799-2.79,67.496-11.974,99.967c-9.274,32.843-29.544,69.682-49.468,80.861c-15.175,56.92-45.119,92.514-64.503,107.74
		c-26.46,20.802-50.267,33.54-75.881,41.671c-25.61,8.134-53.833,14.399-95.214,11.265c-41.377-3.131-91.848-12.272-136.136-35.891
		c-40.656-21.676-81.139-60.553-92.545-108.975c-0.137-0.572-21.276-14.176-45.753-51.552
		c-18.847-28.772-33.674-59.326-33.493-95.272C137.403,182.237,173.803,174.628,204.048,176.085z"/>
	<path fill="#C26B1D" d="M292.17,169.608c6.888,3.777,13.342,8.436,20.422,11.806c-1.571-7.605-2.143-15.403-4.036-22.933
		C303.019,162.023,297.561,165.745,292.17,169.608z"/>
	<path fill="#C26B1D" d="M325.957,148.117c10.807,7.417,20.653,12.699,29.36,19.258c-1.704-10.442-2.872-20.967-4.196-31.464
		C342.551,139.461,334.181,143.583,325.957,148.117z"/>
	<path fill="#C26B1D" d="M374.661,127.726c6.43,9.588,12.891,19.086,20.939,27.216c5.626-10.364,9.705-21.746,12.781-33.274
		C396.854,122.57,385.612,124.662,374.661,127.726z"/>
	<path fill="#C26B1D" d="M438.791,122.072c3.158,11.732,13.588,29.74,13.588,29.74s10.603-15.121,16.441-24.38
		C459.013,124.885,449.045,123.083,438.791,122.072z"/>
	<path fill="#C26B1D" d="M507.721,141.193c-4.514-1.999-9.016-3.825-13.526-5.56c1.704,10.967,2.434,22.115,5.259,32.843
		c8.561-6.716,16.927-14.274,26.515-19.247C519.867,146.467,513.728,143.854,507.721,141.193z"/>
	<path fill="#DC9619" d="M151.685,286.549c17.166,23.486,35.895,49.217,62.79,59.632c4.804,1.853,3.346,8.201-1.501,6.332
		c-4.894-1.9-9.533-4.22-13.973-6.825c13.314,44.48,51.169,80.316,90.105,98.172c60.098,27.561,117.528,34.16,144.047,33.897
		c47.035-0.474,94.003-15.203,134.22-41.193c20.536-13.259,37.161-30.939,49.774-52.728c12.276-21.221,29.371-54.099,26.158-79.882
		c-0.69-5.439,7.288,3.554,8.71,11.657c21.327-22.35,35.86-46.784,44.692-78.04c8.283-29.328,10.242-60.4,10.438-90.904
		c-25.61-3.965-51.815-5.321-77.503-1.414c-22.013,3.342-44.985,6.869-65.353,16.895c7.888,6.077,15.438,12.664,23.58,18.608
		c4.22,3.076,0.239,10.481-4.016,7.374c-9.792-7.147-34.034-29.097-54.597-37.4c-10.987,5.047-20.281,13.957-29.912,21.339
		c-0.725,0.557-1.716-0.043-1.951-0.85c-3.464-11.939-3.993-24.434-6.042-36.663c-6.747-2.508-13.518-4.671-20.351-6.524
		c-3.613,5.133-16.214,25.884-18.326,28.125c-4.933-4.655-15.105-29.199-16.833-34.375c-3.104-0.259-6.23-0.451-9.404-0.548
		c-5.141-0.169-10.219-0.063-15.242,0.243c-3.311,12.64-7.798,25.234-14.149,36.471c-0.458,0.811-1.446,0.905-2.08,0.286
		c-9.004-8.753-16.002-19.219-23.043-29.736c-6.183,1.826-12.264,3.993-18.275,6.402c1.505,11.876,3.025,25.939,5.137,37.717
		c-5.795-3.107-24.078-16.793-35.77-22.879c-4.071,2.311-8.087,4.749-12.084,7.256c2.288,8.679,2.7,17.742,4.847,26.456
		c0.232,0.96-0.662,2.167-1.634,1.751c-8.624-3.664-16.214-9.412-24.497-13.773c-8.091,5.877-16.022,12.029-23.776,18.377
		c5.991,2.096,14.098,7.335,16.7,9.823c3.824,3.644,0.764,8.812-3.577,5.819c-9.568-6.606-21.782-10.791-32.639-13.894
		c-13.04-3.726-30.876-6.383-47.337-7.17c-27.388-1.328-54.456,7.743-80.246,16.512
		C119.457,234.589,132.489,260.285,151.685,286.549z"/>
	<path d="M606.203,197.169c1.313,0.427,2.629,0.952,3.918,1.579c14.815-11.049,34.355-20.085,52.532-20.242
		c1.073-0.012,2.386,0.862,2.559,2.088c3.577,24.963-1.05,58.386-17.429,77.628c-0.227,0.274-0.482,0.427-0.733,0.576
		c0.082,0.529,0.2,1.089,0.266,1.603c0.466,3.585-4.647,5.133-5.125,1.513c-2.645-20.097-17.903-53.026-37.408-59.256
		C601.513,201.613,602.904,196.119,606.203,197.169z"/>
	<path fill="#C26B1D" d="M638.646,209.794c-3.053,2.72-6.324,4.714-9.776,5.921c-4.036-5.517-8.589-10.321-13.522-13.804
		c7.645-5.325,16.002-9.69,24.611-12.766c4.334-1.544,8.75-3.146,13.267-4.008C652.43,194.254,644.864,204.261,638.646,209.794z"/>
	<path fill="#AC5B1D" d="M639.731,210.95c6.563-6.183,14.396-16.229,15.046-26.084c1.03-0.149,1.9-0.211,2.621-0.196
		c-0.87,5.07-1.238,10.144-3.029,15.105c-1.963,5.454-4.467,10.724-7.648,15.489c-3.033,4.541-6.552,8.695-10.552,12.143
		c-1.897-3.57-4.008-7.03-6.281-10.274C633.411,215.844,636.734,213.779,639.731,210.95z"/>
	<path fill="#9B501C" d="M647.391,217.074c3.264-4.894,6.05-10.168,8.068-15.783c1.034-2.864,2.12-5.874,2.606-8.91
		c0.4-2.48,0.568-4.996,0.917-7.484c2.437,0.803,1.995,3.644,1.94,8.612c-0.211,19.357-3.382,42.932-15.222,58.559
		c-1.834-7.433-4.847-15.501-8.761-23.157C640.91,225.541,644.429,221.506,647.391,217.074z"/>
	<path d="M186.169,212.749c7.041-7.108,20.692-3.17,29.077-1.477c14.184,2.856,27.294,10.732,38.168,20.747
		c1.587-1.136,3.201-2.183,4.886-3.013c3.096-1.52,5.791,3.386,2.684,4.909c-17.577,8.644-29.211,37.141-29.857,56.941
		c-0.126,3.66-5.443,3.671-5.317,0c0.122-3.715,0.615-7.707,1.41-11.802c-0.215-0.11-0.423-0.239-0.631-0.415
		c-13.396-11.684-24.669-22.808-33.603-38.657C190.095,234.859,180.127,218.853,186.169,212.749z"/>
	<path fill="#AC5B1D" d="M198.696,214.465c3.24,6.054,6.873,11.864,10.771,17.358c4.51,6.363,9.776,12.734,16.328,16.754
		c3.158,1.936,6.551,3.938,10.101,5.239c-3.135,6.124-5.619,12.738-7.327,19.254c-10.093-8.757-20.234-17.322-27.189-29.324
		c-3.871-6.665-12.068-17.381-11.398-25.574C190.221,215.233,193.97,214.367,198.696,214.465z"/>
	<path fill="#C26B1D" d="M224.501,245.736c-6.285-4.765-11.578-11.175-15.936-17.941c-2.794-4.302-5.446-8.722-7.899-13.24
		c7.151,0.49,15.618,2.699,17.71,3.279c11.304,3.174,21.845,9.666,30.743,17.718c-4.839,4.542-9.047,10.403-12.507,16.872
		C232.236,250.967,227.965,248.369,224.501,245.736z"/>
	<path d="M448.544,415.981c3.393,1.571,0.544,4.808-2.817,3.256c-6.841-3.15-5.87,15.321-4.31,18.451
		c2.394,4.788,7.594,5.207,12.061,4.263c9.251-1.967,14.646-8.656,17.608-17.342c-1.751-6.908-1.755-16.175-2.429-23.459
		c-1.528,0.215-3.068,0.333-4.565,0.372c-8.26,0.133-22.001-4.812-20.775-16.045c1.023-9.459,11.214-15.043,18.867-16.954
		c10.462-2.606,25.488,2.069,28.619,13.467c3.135,11.41-8.73,15.524-16.519,17.922c0,0.012,0.008,0.012,0.008,0.012
		c1.497,14.792,1.258,37.576,20.547,36.887c8.079-0.278,11.982-8.169,10.99-15.814c-0.697-5.305-4.596-15.81-10.634-11.48
		c-3.095,2.198-5.203-1.356-2.139-3.554c6.939-4.96,13.162-0.686,16.375,6.634c3.848,8.761,3.276,18.694-3.386,25.453
		c-6.951,7.045-18.804,6.16-25.962,0.043c-2.261-1.92-3.997-4.091-5.384-6.434c-3.746,8.761-11.523,14.49-20.77,16.457
		c-7.088,1.512-14.258-0.905-17.781-7.97C431.593,430.996,435.492,409.978,448.544,415.981z"/>
	<path fill="#E0A9B7" d="M483.365,383.749c-2.269-8.127-9.588-10.286-17.225-9.705c-6.148,0.466-13.346,4.095-16.5,9.964
		c-3.754,6.994,7.409,10.713,11.825,11.226C469.181,396.131,485.638,391.872,483.365,383.749z"/>
	<path d="M516.576,228.014c-0.114-0.118-0.239-0.219-0.321-0.349c-6.912-10.846-21.026-22.647-30.41-27.055
		c1.685-3.382,6.649-10.18,9.909-11.52c14.172,3.66,27.922,18.686,36.965,30.355c-4.024,2.813-8.93,6.148-11.935,8.299
		c23.176,0.129,38.015,9.799,50.628,20.543c15.81,13.467,23.933,32.463,24.133,53.774c0.376,40.213-29.704,65.944-63.637,65.231
		c-32.459-0.682-60.988-27.345-67.707-59.953C456.733,271.064,478.883,232.089,516.576,228.014z"/>
	<path fill="#EFCC82" d="M526.286,218.387c-8.037-10.074-17.652-20.888-29.724-25.089c-1.618,1.45-3.875,4.388-5.098,6.187
		c11.136,4.831,20.579,13.099,27.518,23.341C521.345,221.184,523.739,219.676,526.286,218.387z"/>
	<path fill="#FFFFFF" d="M468.938,305.972c4.772,28.98,28.255,50.048,55.13,54.918c31.279,5.666,58.746-17.377,65.533-48.794
		c4.44-20.555-3.452-42.125-17.464-56.47c-11.751-12.045-35.076-24.865-52.011-22.405
		C482.139,238.73,463.257,271.503,468.938,305.972z"/>
	<path d="M323.026,274.716c9.243-12.542,24.376-22.922,42.141-26.668c-0.76-0.309-4.416-3.695-4.416-4.945
		c0-8.714,9.42-35.899,27.103-49.331c1.32-0.995,11.504,11.421,10.905,12.146c-12.366,10.544-24.14,25.966-25.68,40.891
		c14.627,0.502,27.565,4.843,38.183,13.401c29.575,23.839,32.569,67.362,16.755,97.596c-18.549,35.433-63.476,38.348-93.936,15.148
		C303.18,349.421,301.507,303.922,323.026,274.716z"/>
	<path fill="#EFCC82" d="M393.727,205.519c-1.317-1.846-4.334-5.242-6.022-6.728c-19.897,19.353-22.769,41.792-22.769,41.792
		s2.343,3.299,4.185,4.482C372.878,228.931,381.949,216.181,393.727,205.519z"/>
	<path fill="#FFFFFF" d="M340.043,369.193c28.012,19.109,65.149,15.959,82.75-13.875c16.782-28.431,7.241-79.69-21.217-94.826
		c-28.697-15.27-57.359-4.189-73.114,15.089C305.108,304.154,308.799,347.881,340.043,369.193z"/>
	<path d="M369.128,267.902c37.878,0,37.878,62.947,0,62.947C331.247,330.849,331.247,267.902,369.128,267.902z"/>
	<path fill="#FFFFFF" d="M362.322,300.847c12.483,0,12.483-20.743,0-20.743C349.839,280.103,349.839,300.847,362.322,300.847z"/>
	<path d="M516.239,253.675h0.717c15.269,0,28.007,13.655,28.007,30.022c0,16.355-12.738,30.014-28.007,30.014h-0.717
		c-15.265,0-28.007-13.659-28.007-30.014C488.232,267.33,500.974,253.675,516.239,253.675z"/>
	<path fill="#FFFFFF" d="M497.024,283.34c0.2,0.208,0.388,0.415,0.576,0.619c3.734,4.001,9.968,3.993,13.691,0
		c3.738-3.997,3.734-10.661,0-14.666c-0.192-0.207-0.376-0.415-0.572-0.619c-3.723-3.997-9.96-3.985-13.694,0
		C493.298,272.678,493.302,279.339,497.024,283.34z"/>
	<path fill="#EFD4DB" d="M473.428,376.23c-3.213-1.505-10.144-1.611-14.901,1.982C451.4,383.577,490.316,384.149,473.428,376.23z"/>
	<path fill="#C98E99" d="M476.332,391.335c-2.132,1.207-10.454,4.138-16.273,2.567C447.803,390.594,487.906,384.693,476.332,391.335
		z"/>
	<path fill="#E7B440" d="M671.293,145.386c-11.363-0.396-42.811,1.74-60.666,5.442c-17.852,3.691-31.252,7.825-36.93,10.869
		c-5.682,3.041,50.314,1.952,57.422,1.085C638.215,161.917,708.626,146.691,671.293,145.386z"/>
	<path fill="#E7B440" d="M242.568,193.874c-7.86-1.791-39.163-8.699-61.889-5.87c-22.726,2.821-42.004,9.13-47.07,11.304
		c-5.078,2.175,51.936,3.26,57.626,2.606C196.909,201.264,252.098,196.045,242.568,193.874z"/>
	<path fill="#E7B440" d="M255.021,362.978c-14.384-3.981-26.21,3.111-26.21,14.349c0,11.234,69.878,29.614,64.647,15.603
		C287.633,377.327,273.076,367.962,255.021,362.978z"/>
	<path fill="#E7B440" d="M617.283,331.143c-12.205,4.212-20.312,21.864-24.465,39.942
		C584.092,409.151,651.647,319.29,617.283,331.143z"/>
	<path fill="#E7B440" d="M502.016,418.496c-1.348-3.93-8.017-6.477-12.742-2.249c-4.733,4.224-9.071,13.934-0.658,16.899
		C497.024,436.093,505.695,429.197,502.016,418.496z"/>
	<path fill="#E7B440" d="M463.124,423.704c-4.393-4.255-11.175-6.9-16.433,0.137c-5.25,7.041-2.367,17.605,6.963,14.929
		C462.986,436.093,467.191,427.641,463.124,423.704z"/>
	<path fill="#E7B440" d="M475.337,444.827c-6.52,0.078-11.555,9.423-2.88,11.265C481.12,457.918,486.374,444.682,475.337,444.827z"
		/>
	<path fill="#D5801C" d="M699.923,213.297c-2.664,11.931-7.515,39.026-21.68,62.571c-14.168,23.541-19.952,30.045-21.974,30.045
		c-2.022,0,9.831-47.399,13.299-54.519C673.04,244.271,704.841,191.304,699.923,213.297z"/>
	<path fill="#D5801C" d="M186.796,282.368c-6.947-9.039-61.866-51.106-55.22-33.763c6.649,17.346,39.605,64.745,58.397,79.925
		C208.766,343.704,194.891,292.904,186.796,282.368z"/>
	<path fill="#D5801C" d="M331.337,436.634c-16.402-6.422-83.255-22.307-66.775-10.54c16.476,11.786,61.572,31.295,98.286,39.042
		C399.565,472.881,355.042,445.932,331.337,436.634z"/>
	<path fill="#D5801C" d="M482.049,461.879c0,0-7.194,5.035-12.5,2.018c-5.309-3.017-8.424-10.376-8.424-10.376
		s-11.241,8.358-4.69,14.055C471.646,480.765,482.049,461.879,482.049,461.879z"/>
	<path d="M464.824,453.122c2.186,6.489,17.295,12.268,18.149,2.676c0.365-3.91,4.15-3.671,3.797,0.286
		c-1.524,16.927-23.646,13.33-28.098,0.133C457.414,452.479,463.578,449.419,464.824,453.122z"/>
	<path fill="#D5801C" d="M477.986,367.5c0,0-6.869-3.346-15.614-1.336c-8.742,2.006-16.237,9.035-16.237,9.035
		s-2.198-30.457,5.932-31.46C464.538,342.2,477.986,367.5,477.986,367.5z"/>
	<path fill="#D5801C" d="M578.587,425.71c-7.978,5.74-32.6,23.208-52.015,30.147c-19.415,6.924,8.46-18.674,17.671-23.745
		C553.447,427.05,601.234,409.445,578.587,425.71z"/>
</g>
</svg>
