<?xml version="1.0" encoding="utf-8"?>
<!-- Generator: Adobe Illustrator 17.0.0, SVG Export Plug-In . SVG Version: 6.00 Build 0)  -->
<!DOCTYPE svg PUBLIC "-//W3C//DTD SVG 1.1//EN" "http://www.w3.org/Graphics/SVG/1.1/DTD/svg11.dtd">
<svg version="1.1" id="Layer_1" xmlns="http://www.w3.org/2000/svg" xmlns:xlink="http://www.w3.org/1999/xlink" x="0px" y="0px"
	 width="800px" height="600px" viewBox="0 0 800 600" enable-background="new 0 0 800 600" xml:space="preserve">
<g>
	<path d="M315.546,266.07c0.034,0.002,0.065,0.002,0.1,0.006c0.341,3.653,1.35,21.044,2.654,30.993
		c1.304,9.95,4.804,14.776,11.372,16.633c6.207,1.753,13.549,1.913,21.111,1.347c0,14.373,9.541,29.41,22.608,30.991
		c0.772,2.719,2.339,4.834,4.338,6.884c-0.3,0.899-0.418,1.3-0.756,2.085c-9.555,2.03-22.969,7.544-31.754,13.272
		c-3.148,2.053-5.77,6.047-1.686,8.056c4.545,2.233,10.452,6.044,13.238,10.712c-0.814,0.702-1.454,1.59-1.897,2.583
		c-0.939,0.051-5.234,0.765-6.378,1.174c-0.016-0.89-1.079-7.667-1.467-9.95c-1.715-0.572-4.462,0.263-5.621,0.858
		c0.541,3.639,2.573,10.481,3.335,12.933c-0.677,0.244-1.396,0.541-1.977,0.928c-0.508-2.407-2.786-11.669-3.645-13.575
		c-1.523,0-4.677,0.769-6.097,2.19c0.666,2.858,4.649,16.017,6.002,19.055c4.668-1.048,14.698-4.107,17.233-5.6
		c1.174,1.043,3.155,1.504,4.705,0.986c-0.913,3.103-1.782,6.789-2.368,9.364c-6.193-1.963-13.754-2.651-16.852-2.575
		c-5.059,0.124-7.821,0.448-11.117,2.459c-7.19,4.382-11.469,14.106-12.459,23.262c-1.497,13.834,4.819,28.36,19.748,30.944
		c5.725,0.992,22.901,3.945,27-3.15c2.961,5.292,5.32,7.845,11.732,9.252c10.895,2.391,26.571,3.155,33.168-1.53
		c4.411-3.132,6.587-7.824,7.911-13.528c7.32,12.04,19.524,11.33,34.42,6.341c5.667-1.897,11.723-5.468,13.971-11.549
		c2.316-6.267,2.049-12.901,0.537-19.281c-2.949-12.449-9.264-23.646-23.587-23.615c-6.652,0.014-13.646,2.023-19.133,5.878
		c1.2-2.074,2.744-6.199,2.452-7.522c-0.271-1.231-8.608-23.146-11.529-29.645c10.483,6.444,22.811,7.898,30.546,7.042
		c4.702-0.52,15.763-2.685,19.42-11.492c3.978,1.171,8.398-0.584,10.673-3.779c2.825,0.862,11.355,3.274,14.817,3.589
		c4.19-10.18,10.932-29.341,13.178-40.12c-2.844-1.496-8.783-3.689-11.857-4.562c3.752-6.971,9.161-16.844,10.958-21.786
		c0.33-1.821-2.385-14.202-4.122-17.407c-3.513-1.009-7.556-0.858-8.501-0.688c-0.852,1.178-1.343,2.083-1.924,3.193
		c-1.441-0.69-3.836-1.004-4.34-1.004c-0.503,0-0.906,2.194-0.189,2.202c0.716,0.007,2.251,0.181,3.586,0.251
		c-0.88,1.348-1.377,2.298-2.013,3.523c-0.505-0.262-3.46-0.755-3.901-0.692c-0.441,0.063-1.259,2.058-0.568,2.015
		c0.691-0.042,3.512,0.166,3.777,0.187c-0.752,1.289-1.323,2.807-2.125,4.065c-0.586-0.279-3.665-0.856-4.105-0.856
		c-0.441,0-0.905,2.226-0.188,2.266c0.717,0.04,3.035,0.091,3.304,0.14c-0.857,1.342-1.688,2.7-2.484,4.078
		c-1.451-0.316-3.339-0.755-3.717-0.881c-0.377-0.126-1.381,2.031-0.817,2.076c0.564,0.045,3.36,0.264,3.674,0.309
		c-0.719,1.336-1.411,2.681-2.1,4.027c-0.406-0.297-3.009-1.245-3.462-1.314c-0.819-0.126-1.322,2.202-0.596,2.258
		c0.726,0.056,3.071,0.528,3.296,0.544c-0.538,1.058-1.271,2.44-1.82,3.489c-1.073-0.636-3.083-1.068-3.461-1.194
		c-0.377-0.126-1.358,2.023-0.629,2.201c0.729,0.179,3.132,0.23,3.404,0.296c-0.525,0.976-1.071,1.942-1.628,2.902
		c-2.786-1.318-7.427-2.366-10.331-2.605c-1.634,4.658-11.617,33.328-13.153,40.28c2.583,1.732,7.674,4.127,11.547,5.43
		c0.134,0.951,0.401,1.902,0.851,2.825c0.001,0.001,0.001,0.002,0.003,0.004c-4.427,5.749-12.236,9.264-24.639,8.294
		c-9.582-0.748-19.763-7.336-24.834-11.682c-2.716-5.39-4.812-10.481-6.867-12.589c2.953-9.122-2.183-17.973-8.875-20.651
		c-5.24-2.096-10.175-1.342-13.624,0.599c-7.856-2.705-10.778-9.73-10.536-15.613c36.739-6.242,66.384-8.637,78.364-18.985
		c4.81-4.154,5.863-8.653,6.738-16.777c0.874-8.125,0.226-14.956-0.49-21.256c7.129-1.628,9.77-13.171,9.022-22.604
		c-0.722-9.092-4.689-23.142-14.823-25.9c-0.503-5.696-1.494-13.189-2.542-19.927c-1.048-6.737-7.072-9.44-14.676-11.648
		c-12.467-3.62-25.785-5.129-38.65-6.712c2.662-2.895,13.693-12.199,17.225-13.316c2.563,2.333,6.441,1.982,8.402-0.513
		c1.647-2.096,2.844-5.539,0.599-8.832c-2.245-3.294-7.364-4.564-10.33-1.647c-1.838,1.807-3.293,5.539-0.711,9.029
		c-5.727,1.9-13.662,9.685-18.162,14.901c-3.337-0.429-6.673-0.886-10.01-1.349c-5.458-7.558-12.587-15.544-20.501-21.299
		c1.026-1.282,1.7-3.277,1.446-4.848c-0.669-4.178-4.548-6.166-8.542-4.787c-3.69,1.274-4.746,5.607-2.469,8.651
		c1.043,1.394,4.004,2.996,6.78,2.524c7.406,4.962,14.891,12.15,20.389,19.36c-9.668-1.336-52.656-7.061-59.544-4.816
		c-8.688,2.833-8.866,17.245-7.332,37.748c-10.475-0.986-16.223,16.985-17.068,28.147
		C292.103,247.816,296.744,264.734,315.546,266.07z M364.855,387.813c-1.048-1.198-2.248-1.693-3.448-2.078
		c-0.663-2.831-4.945-8.975-10.28-12.057c6.691-4.879,17.77-11.167,23.24-11.427C373.434,365.169,366.805,382.492,364.855,387.813z
		 M464.665,351.724c-1.081,0.474-2.027,1.129-2.833,1.902c-0.56-0.146-3.406-0.843-5.255-1.839
		c2.597-9.185,5.46-17.209,8.058-25.913c0.818,0.059,1.887,0.248,2.642,0.374c0.231,0.743,0.561,2.414,0.819,3.147
		c-0.641-0.066-2.378-0.41-2.895-0.382c-0.466,0.026-0.261,2.13,0.189,2.076c0.516-0.061,2.203-0.248,3.021-0.374
		c0.429,1.21,0.707,2.543,1.07,3.775c-0.948-0.121-2.059-0.324-3.021-0.503c-0.579-0.108-0.577,1.872,0.187,2.01
		c0.693,0.126,1.951,0.189,3.023,0.004c0.196,1.116,0.649,2.163,0.754,3.272c-1.06-0.02-2.451-0.218-3.013-0.359
		c-0.756-0.189-0.504,2.014,0.118,1.929c0.944-0.129,1.866,0.093,3.084-0.185c0.252,0.944,0.441,2.076,0.819,2.957
		c1.385,0.189,5.923,0.664,6.816,0.55c1.93-1.87,6.336-7.471,9.141-12.424c0.989,0.234,6.594,1.455,8.444,1.659
		c-1.838,4.624-6.654,19.084-9.526,26.807c-2.728-0.866-7.259-2.375-9.713-3.005C474.584,352.525,469.6,349.561,464.665,351.724z"/>
	<path fill="#D43300" d="M359.02,140.75c-0.637-2.506-3.158-3.223-5.39-2.247c-2.395,1.048-2.247,5.242,0.898,5.99
		C357.673,145.241,359.473,142.531,359.02,140.75z"/>
	<path fill="#D43300" d="M414.416,153.475c2.994,0.899,5.09-2.544,3.743-5.539c-1.208-2.683-5.54-4.042-7.187-1.048
		C409.325,149.882,411.422,152.575,414.416,153.475z"/>
	<path fill="#FAB000" d="M347.315,392.195c-0.38-2.477-0.763-7.433-1.636-10.03c-0.745-0.07-1.81,0.286-2.556,0.597
		c0.557,3.005,2.096,8.764,3.062,11.387l0.002-0.001c2.388-0.864,5.129-1.192,7.983-1.494c0.022-0.583,0.109-1.157,0.249-1.713
		C352.65,391.052,348.904,391.604,347.315,392.195z"/>
	<path fill="#FAB000" d="M354.252,393.926c-4.173,0.555-9.311,2.198-12.749,3.793c-0.483-3.074-2.473-10.633-3.43-13.624
		c-1.333,0.286-2.677,0.626-3.196,1.409c1.481,4.974,3.673,11.835,5.207,15.828c4.468-1.04,11.614-3.327,15.316-4.641
		C354.817,395.885,354.419,394.924,354.252,393.926z"/>
	<path fill="#D43300" d="M454.511,251.278c4.37-1.521,6.507-8.55,6.112-17.238c-0.396-8.687-2.49-20.814-10.875-23.658
		C450.018,213.482,453.939,243.619,454.511,251.278z"/>
	<path fill="#FAB000" d="M461.952,317.57c-2.928,8.413-9.515,28.175-12.317,37.429c2.503,1.526,6.694,3.472,9.339,4.395
		c0.166-1.457,0.66-2.858,1.461-4.087c-1.71-0.577-3.807-1.177-5.602-2.524c0.599-4.042,6.737-23.056,8.683-28.746
		c1.198-0.149,2.545,0.15,3.743,0.449c1.047-1.3,1.988-3.041,2.883-4.51C467.858,318.946,464.414,318.048,461.952,317.57z"/>
	<path fill="#6D8A7D" d="M472.601,341.596c1.158,0.32,2.856,0.383,3.654,0.227c-0.483-3.558-1.741-10.627-3.314-15.073
		c-1.171-0.269-2.578-0.422-3.775-0.503C469.958,330.373,471.808,338.204,472.601,341.596z"/>
	<path fill="#577869" d="M474.724,333.298c0.71,3.225,1.251,6.464,1.531,8.526c-0.798,0.156-2.495,0.093-3.654-0.227
		c-0.062-0.264-0.132-0.561-0.204-0.875C473.188,338.252,473.966,335.779,474.724,333.298z"/>
	<path fill="#AFBFB8" d="M490.646,286.103c-0.901,1.816-15.437,27.429-20.957,38.283c1.061,0.161,2.749,0.415,3.505,0.604
		c4.72-8.561,17.621-30.715,22.415-38.612C494.023,286.032,491.422,285.859,490.646,286.103z"/>
	<path fill="#9BB3A7" d="M489.128,288.88c0.819-1.476,1.366-2.471,1.518-2.778c0.776-0.244,3.378-0.071,4.962,0.275
		c-1.432,2.358-3.589,5.994-6.034,10.154C489.49,293.978,489.331,291.427,489.128,288.88z"/>
	<path fill="#9BB3A7" d="M474.765,314.816c0.194,2.032,0.442,4.06,0.718,6.082c-0.882,1.559-1.661,2.949-2.29,4.091
		c-0.756-0.189-2.443-0.443-3.505-0.604C470.982,321.843,472.773,318.485,474.765,314.816z"/>
	<path fill="#8CA399" d="M501.137,302.33c-0.566-4.971-2.265-12.586-3.713-15.543c-4.937,8.353-18.76,32.343-22.18,39.656
		c1.297,5.379,3.097,12.396,3.214,14.633c2.875-2.816,5.269-6.41,7.453-9.738c-1.435-0.265-3.402-0.818-4.66-1.448
		c0.566-2.958,1.951-6.356,2.894-7.111c1.322,0.189,3.875,0.714,5.286,1.07C493.922,317.265,497.911,309.165,501.137,302.33z"/>
	<path fill="#719181" d="M489.777,318.737c1.609-1.147,3.307-2.497,5.06-3.852c-1.701,3.118-3.505,6.179-5.405,8.965
		c-1.41-0.356-3.964-0.881-5.286-1.07c-0.943,0.756-2.328,4.153-2.894,7.111c1.258,0.629,3.225,1.183,4.66,1.448
		c-2.183,3.328-4.578,6.922-7.453,9.738c-0.106-2.028-1.594-7.983-2.839-13.086C480.578,325.306,485.153,322.031,489.777,318.737z"
		/>
	<path fill="#719181" d="M489.241,300.9c3.293-5.757,6.351-11.012,8.183-14.113c0.503,1.028,1.039,2.628,1.544,4.477
		C495.711,294.463,492.473,297.678,489.241,300.9z"/>
	<path fill="#FAB000" d="M488.863,366.453c1.888-4.972,10.699-27.314,12.209-36.751c-3.747-1.562-10.886-4.027-15.732-4.593
		c-0.566,0.881-1.196,2.579-1.196,3.398c2.223,1.092,10.824,2.894,13.655,3.65c-0.955,5.047-9.511,28.044-10.259,30.646
		c-2.713-0.714-8.684-2.391-10.633-3.082c-0.104,1.022-0.261,2.403-0.759,3.338C479.068,364.043,485.088,365.571,488.863,366.453z"
		/>
	<path fill="#DB9900" d="M346.887,388.84c0.156,1.284,0.294,2.478,0.429,3.355c1.589-0.591,5.335-1.143,7.105-1.254
		c-0.14,0.556-0.227,1.131-0.249,1.713c-2.854,0.302-5.595,0.63-7.983,1.494l-0.002,0.001c-0.379-1.029-0.846-2.541-1.306-4.179
		C345.605,389.651,346.274,389.28,346.887,388.84z"/>
	<path fill="#DB9900" d="M354.781,395.612c0.176,0.38,0.378,0.745,0.619,1.08c-3.702,1.314-10.847,3.601-15.316,4.641
		c-0.261-0.679-0.546-1.464-0.838-2.286C344.303,397.427,349.518,396.233,354.781,395.612z"/>
	<path fill="#DB9900" d="M464.89,318.237c1.852,0.476,3.79,1.079,5.252,1.74c-0.895,1.469-1.835,3.21-2.883,4.51
		c-0.811-0.203-1.69-0.394-2.545-0.457C464.805,322.096,464.865,320.164,464.89,318.237z"/>
	<path fill="#DB9900" d="M456.792,353.927c1.252,0.596,2.529,1.003,3.643,1.38c-0.801,1.229-1.295,2.63-1.461,4.087
		c-1.101-0.384-2.472-0.949-3.876-1.584C455.748,356.551,456.297,355.25,456.792,353.927z"/>
	<path fill="#DB9900" d="M499.688,335.664c-2.993,10.747-9.265,26.684-10.825,30.789c-0.479-0.112-0.997-0.235-1.538-0.365
		C492.086,356.211,496.062,346.006,499.688,335.664z"/>
	<path fill="#DB9900" d="M479.607,364.094c-1.338-0.373-2.555-0.733-3.458-1.037c0.498-0.935,0.655-2.316,0.759-3.338
		c0.648,0.23,1.741,0.569,3.006,0.944C479.828,361.807,479.723,362.952,479.607,364.094z"/>
	<path fill="#D43300" d="M466.886,366.365c4.354,0.466,8.058-3.43,6.515-8.296c-0.959-3.02-3.988-4.816-6.817-4.01
		c-2.814,0.801-4.908,3.398-4.657,6.544C462.169,363.616,463.931,366.049,466.886,366.365z"/>
	<path fill="#B6B1B3" d="M425.384,375.981c5.518,1.872,10.611,2.752,16.426,2.703c7.268-0.061,18.063-3.197,21.466-10.226
		c-0.973-0.645-1.858-1.501-2.57-2.506c-2.101,3.092-5.886,5.332-9.101,6.788c-4.743,2.146-10.445,2.767-15.588,2.391
		c-5.251-0.386-10.064-1.888-14.701-4.351c-3.105-1.649-6.672-3.648-9.746-5.973c0.464,1.515,1.383,3.484,1.795,4.895
		C415.909,371.796,420.55,374.342,425.384,375.981z"/>
	<path fill="#7A7873" d="M462.39,447.636c2.424-5.266,1.755-13.081,0.644-18.43c-2.388-11.485-8.328-20.519-21.026-20.376
		c-4.1,0.045-8.186,1.136-11.913,2.995c2.923,0.391,5.799,1.711,8.267,3.774c4.983,4.165,7.793,10.593,9.273,16.773
		c1.786,7.454,2.016,20.369-3.98,26.161C453.213,455.856,459.44,454.04,462.39,447.636z"/>
	<path fill="#A8A6A3" d="M418.607,429.691c0.071,0.011,0.144,0.01,0.21,0.045c0.836-6.032,3.58-12.816,9.73-12.269
		c8.863,0.789,13.083,12.904,13.387,21.758c0.276,8.032-3.09,18.568-12.986,15.623c-4.316-1.285-8.042-5.395-9.868-10.533
		c-0.181,2.012-0.42,3.976-0.851,6.284c5.161,9.463,19.02,11.47,23.016,8.084c5.117-4.337,6.552-17.1,5.217-24.265
		c-1.804-9.675-8.638-21.766-19.242-20.96c-4.712,0.359-8.608,7.224-10.112,10.599C417.792,425.755,418.27,427.724,418.607,429.691z
		"/>
	<path fill="#736EAB" d="M428.699,430.226l0.015-0.006c-0.734-1.604-2.448-2.365-1.978-3.708c0.669-1.913,4.873,0.669,6.308,4.015
		c1.435,3.345,1.291,9.093-1.366,11.113c-0.541,0.411-1.42-0.084-1.394-0.745c0.027-0.722,0.089-1.428,0.153-2.13
		c-1.762,0.708-7.675,2.547-8.833,2.787c0.977,3.177,2.452,6.991,5.133,8.856c7.838,5.448,12.536-3.133,12.617-10.227
		c0.096-8.506-3.003-16.184-8.868-19.388c-6.329-3.456-10.343,4.859-10.502,11.717C421.309,432.058,426.641,431.005,428.699,430.226
		z"/>
	<path fill="#5F598A" d="M430.41,439.135c-0.051,0.581-0.104,1.163-0.126,1.76c-0.026,0.661,0.853,1.156,1.394,0.745
		c2.118-1.609,2.636-5.585,2.033-8.827c0.916-2.2,1.639-4.473,2.156-6.759c2.348,3.785,3.545,8.792,3.485,14.127
		c-0.081,7.094-4.779,15.676-12.617,10.227c-1.256-0.873-2.24-2.184-3.041-3.648C426.256,444.678,428.521,442.07,430.41,439.135z"/>
	<path fill="#B6B1B3" d="M420.429,434.541c0.286,1.147,0.478,3.347,0.478,4.589c2.675-0.573,6.404-1.721,9.177-2.686
		c0.476-1.616-0.152-3.385-0.91-4.122C426.546,432.821,423.227,433.624,420.429,434.541z"/>
	<path fill="#85BA00" d="M423.365,404.263c0.026-1.181-1.423-5.022-2.519-7.469c-2.915,9.473-11.087,15.163-20.811,16.02
		c-2.263,0.199-6.634,0.396-8.983,0.15c8.983,1.197,19.313,3.143,21.919,6.356C418.152,415.959,423.34,405.444,423.365,404.263z"/>
	<path fill="#A7CD47" d="M410.014,417.287c-4.379-2.038-12.06-3.403-18.961-4.322c2.348,0.246,6.719,0.049,8.983-0.15
		c2.911-0.257,5.678-0.955,8.211-2.051C408.818,412.944,409.401,415.12,410.014,417.287z"/>
	<path fill="#7A7873" d="M408.267,462.657c4.13-3.647,6.327-14.199,6.881-18.413c0.94-7.128-0.338-19.454-4.759-22.703
		c-4.683-3.441-14.735-4.849-16.248-4.971c6.308,6.308,7.109,16.363,6.879,22.081c-0.269,6.641-1.703,12.195-5.067,17.97
		c-2.099,3.604-5.223,6.969-8.991,8.813C394.011,466.133,404.137,466.304,408.267,462.657z"/>
	<path fill="#A8A6A3" d="M376.666,463.903c6.278,1.38,9.563-0.148,12.005-1.575c2.911-1.702,4.929-4.49,6.46-7.424
		c2.406-4.609,3.716-9.877,4.287-15.016c0.648-5.858-0.146-11.785-2.593-17.18c-1.828-4.033-4.505-6.996-10.239-7.953
		c-5.734-0.956-8.958-0.256-12.042,1.816c-5.544,3.728-9.946,10.697-11.292,17.541C361.501,443.016,364.413,461.21,376.666,463.903z
		"/>
	<path fill="#85BA00" d="M363.954,401.287c-0.616,2.318-1.797,6.436-1.951,8.481c4.044,1.769,7.059,4.247,7.129,7.602
		c5.751-4.855,9.139-5.865,14.354-5.674C376.405,409.667,369.42,405.612,363.954,401.287z"/>
	<path fill="#6B9600" d="M363.954,401.287c2.841,2.248,6.099,4.416,9.562,6.272c-0.512,2.471-0.956,4.961-1.355,7.456
		c-0.944,0.661-1.945,1.439-3.029,2.355c-0.071-3.355-3.085-5.833-7.129-7.602C362.157,407.723,363.339,403.605,363.954,401.287z"/>
	<path fill="#A8A6A3" d="M345.089,409.96c-10.133-5.357-22.306,4.715-24.313,22.948c-1.126,10.221,5.031,23.718,13.722,24.766
		c8.691,1.048,15.103-11.899,16.911-20.744C353.128,428.528,351.777,413.496,345.089,409.96z"/>
	<path fill="#99968F" d="M418.817,429.735c-0.066-0.035-0.139-0.034-0.21-0.045c-0.338-1.967-0.816-3.936-1.498-5.634
		c0.982-2.203,2.988-5.886,5.571-8.283c0.161,1.184,0.343,2.362,0.544,3.533C420.696,421.656,419.356,425.846,418.817,429.735z"/>
	<path fill="#99968F" d="M428.949,454.847c1.266,0.376,2.422,0.53,3.48,0.499c0.114,0.442,0.232,0.883,0.344,1.327
		c0.288,1.136,0.558,2.287,0.835,3.438c-5.498-0.583-12.145-3.582-15.378-9.512c0.431-2.308,0.67-4.272,0.851-6.284
		C420.907,449.452,424.633,453.562,428.949,454.847z"/>
	<path fill="#99968F" d="M369.246,452.893c-1.42-6.758,0.106-14.31,3.491-20.324c1.018-1.809,6.984-9.953,11.355-10.713
		c0.139,0.066,0.289,0.126,0.455,0.169c0.867,0.229,1.676,0.531,2.443,0.885c0.019,0.022,0.04,0.04,0.058,0.063
		c0.454,0.582,0.998,0.812,1.528,0.794c10.925,6.853,9.766,27.155,0.929,35.524C382.931,465.518,371.193,462.165,369.246,452.893z"
		/>
	<path fill="#99968F" d="M335.408,453.427c-10.851-0.549-12.156-15.298-10.092-23.4c1.84-7.219,10.023-19.997,18.106-11.438
		c0.204,0.216,0.421,0.365,0.644,0.478c2.94,3.927,3.682,9.478,3.531,14.35C347.382,440.345,345.06,453.917,335.408,453.427z"/>
	<path fill="#7A7873" d="M355.671,410.57c-2.808-0.819-6.65-1.303-9.129-1.404c8.111,5.328,7.806,21.046,6.299,28.911
		c-1.178,6.145-5.83,18.256-14.285,20.701c5.199,0.846,21.746,3.003,24.142-4.551c-4.022-10.417-4.5-23.798,3.526-33.989
		C365.047,413.851,361.594,412.297,355.671,410.57z"/>
	<path fill="#616159" d="M448.735,442.081c1.282,0.956,2.673,1.712,4.201,2.188c3.909,1.213,7.64,0.716,10.733-0.981
		c-0.261,1.555-0.673,3.032-1.279,4.347c-2.95,6.404-9.177,8.221-18.735,10.897C447.466,454.849,448.757,448.289,448.735,442.081z"
		/>
	<path fill="#616159" d="M395.953,456.621c0.284-0.487,0.534-0.971,0.791-1.456c1.885,0.973,3.869,1.659,5.967,1.897
		c3.528,0.4,6.924-0.365,9.859-1.964c-1.086,3.097-2.513,5.977-4.303,7.559c-4.13,3.647-14.256,3.476-21.304,2.777
		C390.73,463.591,393.854,460.225,395.953,456.621z"/>
	<path fill="#616159" d="M350.961,444.455c1.902-0.638,3.761-1.579,5.542-2.918c1.209-0.908,2.342-2.023,3.403-3.268
		c-0.182,5.547,0.908,11.077,2.792,15.958c-2.396,7.554-18.942,5.397-24.142,4.551C344.593,457.033,348.681,450.366,350.961,444.455
		z"/>
	<path fill="#D43300" d="M361.416,395.53c0.526-0.526,1.525-3.431,2.191-5.813c-0.755-1.252-2.209-2.103-3.43-1.81
		c-2.383,0.571-3.335,2.762-3.24,5.239C357.033,395.625,359.986,396.958,361.416,395.53z"/>
	<path fill="#B6B1B3" d="M344.046,371.981c-2.045,2.061,2.715,4.088,4.035,4.871c3.629,2.149,7.869,5.37,10.057,9.263
		c0.359-0.177,0.896-0.398,1.385-0.478c-1.728-5.162-8.301-10.496-12.684-12.402c-0.569-0.248,1.871-0.776,2.458-0.515
		c3.419-3.273,16.502-11.299,25.627-12.199c0.391-1.184,0.8-2.36,1.242-3.517C367.704,358.754,350.363,365.613,344.046,371.981z"/>
	<path fill="#ABDB00" d="M364.958,398.689c8.326,7.086,18.282,11.637,29.333,12.522c5.844,0.469,11.519-0.661,16.487-3.777
		c4.731-2.968,7.676-8.242,9.026-12.454c-4.045-11.807-14.527-40.106-18.06-42.662c-1.787,2.575-11.515,10.35-21.919,2.704
		C377.729,358.768,367.999,387.215,364.958,398.689z"/>
	<path fill="#96C400" d="M375.567,405.826c-3.768-1.94-7.317-4.337-10.608-7.137c3.04-11.475,12.771-39.921,14.866-43.668
		c0.906,0.665,1.806,1.207,2.696,1.653C381.036,373.155,377.946,389.445,375.567,405.826z"/>
	<path fill="#CDE96A" d="M390.037,358.271c1.781-0.106,3.439-0.526,4.92-1.115c0.172,0.531,12.122,51.843,12.187,52.148
		c-4.027,1.681-8.388,2.265-12.853,1.906c-0.571-0.047-1.136-0.108-1.701-0.172C392.821,393.403,392.21,375.776,390.037,358.271z"/>
	<path fill="#D43300" d="M384.316,352.027c6.439,2.845,13.891-1.81,15.082-6.744c0.938-3.886-0.56-10.324-5.364-13.319
		c-6.134-3.825-11.963-1.198-15.823,3.414C374.392,339.941,377.878,349.181,384.316,352.027z"/>
	<path fill="#B6B1B3" d="M372.94,341.849c-0.116-5.489,1.586-8.565,5.091-11.23c-7.489-2.248-11.232-9.734-11.678-17.068
		c-2.04,0.202-9.372,1.083-11.378,1.198C354.975,323.883,362.008,340.05,372.94,341.849z"/>
	<path fill="#FAB000" d="M317.938,250.886c0.663,8.485,2.601,37.18,4.177,46.392c1.576,9.211,8.011,12.818,14.449,13.417
		c7.336,0.682,16.62,0.151,26.352-0.898c18.09-1.948,56.892-9.282,66.174-11.228c9.283-1.946,15.711-5.984,18.71-9.283
		c2.779-3.056,3.624-8.257,4.197-16.473c0.595-8.531-7.026-77.262-8.09-84.284c-0.93-6.144-8.183-9.264-18.113-11.667
		c-9.283-2.247-58.396-8.654-74.392-10.378c-16.482-1.776-29.468-2.418-32.477-1.096c-5.627,2.474-5.342,13.454-5.257,17.736
		C313.962,198.094,316.774,235.993,317.938,250.886z"/>
	<path fill="#D99400" d="M327.257,169.707c8.476-2.961,45.699,4.022,55.274,6.077c14.256,3.06,28.22,6.474,40.942,13.709
		c2.287,18.485,6.722,77.154,5.539,87.578c-0.703,6.177-3.534,10.707-7.659,14.046c-0.224,0.091-0.464,0.148-0.673,0.274
		c-11.4,6.811-46.567,12.325-59.878,13.489c-10.028,0.876-30.602,1.23-32.084-8.655c-1.483-9.885-9.076-106.069-8.677-112.44
		C320.44,177.412,322.198,171.473,327.257,169.707z"/>
	<path fill="#D99400" d="M446.833,281.79c3.1-10.072,1.144-20.082,0.111-30.326c-2.341-23.228-5.07-55.666-7.837-69.614
		c2.663,1.752,4.378,3.905,4.798,6.677c1.064,7.023,8.685,75.753,8.09,84.284c-0.573,8.216-1.418,13.417-4.197,16.473
		c-2.691,2.96-8.149,6.51-15.945,8.614C438.514,294.341,444.099,290.669,446.833,281.79z"/>
	<path fill="#D43300" d="M315.281,262.118c-0.388-4.387-3.415-48.887-4.283-59.026c-9.613-1.089-13.896,18.535-14.631,25.881
		C294.948,243.164,301.086,260.542,315.281,262.118z"/>
	<path fill="#B32600" d="M353.431,141.901h0.495c1.853,0,3.501-0.994,4.456-2.467c0.276,0.368,0.506,0.794,0.638,1.316
		c0.453,1.781-1.348,4.491-4.492,3.743c-1.544-0.368-2.362-1.566-2.515-2.815C352.469,141.809,352.939,141.901,353.431,141.901z"/>
	<path fill="#B32600" d="M414.718,150.303c1.632,0,2.863-0.613,3.719-1.53c0.666,2.755-1.303,5.518-4.02,4.701
		c-2.57-0.771-4.464-2.868-3.91-5.338C411.342,149.4,412.734,150.303,414.718,150.303z"/>
	<path fill="#B32600" d="M453.937,213.006c1.363,11.397,2.98,22.762,4.662,34.117c-1.008,2.076-2.367,3.556-4.088,4.155
		c-0.572-7.659-4.492-37.796-4.763-40.896C451.374,210.932,452.751,211.849,453.937,213.006z"/>
	<path fill="#B32600" d="M463.273,356.259v0.757c0,2.898,2.419,5.317,5.317,5.317c2.283,0,4.249-1.511,4.989-3.565
		c0.993,4.532-2.551,8.04-6.694,7.596c-2.955-0.316-4.717-2.748-4.959-5.762C461.794,358.935,462.332,357.432,463.273,356.259z"/>
	<path fill="#B32600" d="M360.845,392.481h0.495c0.52,0,1.016-0.101,1.495-0.247c-0.525,1.575-1.073,2.95-1.419,3.295
		c-1.43,1.428-4.383,0.095-4.478-2.383c-0.029-0.768,0.055-1.5,0.239-2.173C358.136,391.899,359.431,392.481,360.845,392.481z"/>
	<path fill="#B32600" d="M384.953,344.474c3.902,2.186,8.521,3.066,12.676,1.028c0.739-0.362,1.37-0.823,1.954-1.323
		c-0.044,0.384-0.102,0.756-0.185,1.103c-1.191,4.934-8.643,9.589-15.082,6.744c-5.935-2.623-9.346-10.672-6.854-15.491
		C379.022,339.75,381.516,342.547,384.953,344.474z"/>
	<path fill="#B32600" d="M306.521,204.198c1.343-0.863,2.83-1.293,4.478-1.106c0.867,10.14,3.895,54.64,4.283,59.026
		c-4.07-0.452-7.464-2.218-10.223-4.819C307.461,239.82,307.103,221.956,306.521,204.198z"/>
	<path d="M326.384,173.865c3.444-4.192,12.574-2.501,16.465-2.295c12.974,0.693,65.767,8.778,79.221,10.925
		c6.231,0.996,14.228,2.982,15.113,7.956c0.885,4.973,3.076,29.581,4.676,44.297c0.903,8.307,1.758,19.344,2.054,24.967
		c0.295,5.624,1.243,15.738-0.753,20.895c-1.797,4.641-7.177,6.949-12.872,8.79c-5.694,1.841-24.955,6.062-37.516,7.898
		c-10.627,1.554-21.33,2.781-32.042,3.587c-8.851,0.664-25.962,1.736-27.908-6.649c-1.946-8.384-9.733-99.112-9.733-105.549
		C323.09,182.249,322.94,178.056,326.384,173.865z"/>
	<path fill="#DBFF66" d="M326.834,193.841c1.047,12.213,1.985,23.124,3.002,34.772c1.94,22.208,4.815,56.342,6.147,63.079
		c1.332,6.737,18.533,6.191,27.773,5.288c15.773-1.541,41.374-4.836,60.323-9.121c2.67-0.604,15.398-4.485,16.94-9.385
		c0.652-2.073,1.091-10.738,0.044-23.764c-1.048-13.025-6.306-59.799-6.738-62.131c-0.748-4.042-3.483-5.613-13.624-7.486
		c-13.774-2.546-64.673-9.283-72.909-10.033c-4.971-0.452-16.387-2.6-19.162,1.948C325.854,181.556,326.514,190.112,326.834,193.841
		z"/>
	<path fill="#CFF200" d="M410.451,183.423c4.266,0.649,7.837,1.225,10.251,1.671c10.14,1.873,12.875,3.443,13.624,7.486
		c0.23,1.241,1.826,15.059,3.426,29.682C429.733,208.685,420.59,195.615,410.451,183.423z"/>
	<path fill="#CFF200" d="M340.624,265.099c7.353,10.538,14.198,21.412,21.404,32.037c-9.5,0.786-24.793,0.894-26.045-5.444
		c-0.888-4.487-2.459-21.129-3.983-38.304C334.941,257.249,337.855,261.129,340.624,265.099z"/>
	<path fill="#F0FFAB" d="M424.08,287.86c-0.563,0.128-1.148,0.251-1.723,0.377c-5.14-6.474-10.204-13.002-15.272-19.549
		c-16.899-21.827-34.147-43.394-52.042-64.414c-8.221-9.658-16.576-19.2-25.066-28.617c4.072-2.7,13.439-0.993,17.816-0.595
		c2.801,0.254,10.54,1.202,20.07,2.442c26.599,28.405,51.611,58.275,73.82,90.08c0.061,5.799-0.261,9.61-0.663,10.892
		C439.477,283.374,426.75,287.256,424.08,287.86z"/>
	<path fill="#F0FFAB" d="M371.344,265.178c-12.116-16.175-24.743-31.961-37.775-47.406c-1.724-2.044-3.468-4.07-5.204-6.104
		c-0.498-5.786-1.001-11.638-1.531-17.827c-0.127-1.483-0.304-3.73-0.301-6.183c6.574,7.371,13.061,14.82,19.463,22.341
		c17.378,20.412,34.224,41.271,50.656,62.45c4.678,6.031,9.308,12.093,14.003,18.105c-5.878,1.061-11.985,2.031-17.97,2.895
		C385.917,283.796,378.426,274.63,371.344,265.178z"/>
	<rect x="416.683" y="217.972" width="7.331" height="7.331"/>
	<rect x="409.635" y="210.641" width="7.331" height="7.331"/>
	<rect x="402.304" y="203.31" width="7.331" height="7.331"/>
	<rect x="416.668" y="242.44" width="7.331" height="7.331"/>
	<rect x="409.629" y="249.436" width="7.331" height="7.331"/>
	<rect x="402.638" y="256.202" width="7.331" height="7.331"/>
	<rect x="381.242" y="263.082" width="21.908" height="7.331"/>
	<rect x="374.274" y="255.935" width="7.331" height="7.331"/>
	<rect x="366.945" y="248.724" width="7.331" height="7.331"/>
	<rect x="359.615" y="241.624" width="7.331" height="7.331"/>
	<rect x="349.017" y="217.972" width="7.331" height="7.331"/>
	<rect x="356.066" y="210.641" width="7.331" height="7.331"/>
	<rect x="363.396" y="203.31" width="7.331" height="7.331"/>
	<path d="M382.477,420.491c8.412,0.906,11.548,9.171,11.183,18.925c-0.383,10.228-5.694,19.009-11.852,19.403
		c-10.419,0.668-12.663-8.495-13.381-14.815C367.471,435.593,370.941,419.249,382.477,420.491z"/>
	<path fill="#FAB000" d="M381.425,456.048c6.944-0.88,11.852-15.294,8.794-24.947c-3.059-9.653-11.565-9.653-15.006-4.97
		c-3.441,4.684-4.397,9.557-4.014,16.823C371.556,449.733,374.481,456.928,381.425,456.048z"/>
	<path fill="#DB9900" d="M389.325,428.889c0.329,0.679,0.637,1.398,0.894,2.212c3.058,9.653-1.85,24.067-8.794,24.947
		c-3.307,0.419-5.694-1.006-7.336-3.333C381.803,448.331,388.357,437.943,389.325,428.889z"/>
	<path d="M381.903,429.858c3.441,0.574,5.085,5.413,4.885,10.831c-0.201,5.418-4.097,9.331-8.422,7.427
		c-2.389-1.053-3.248-5.162-2.962-9.941C375.663,433.872,378.038,429.213,381.903,429.858z"/>
	<path fill="#B6B1B3" d="M378.081,439.417c0,4.109,1.337,6.594,3.344,5.925c1.467-0.489,2.678-2.486,2.773-5.544
		c0.095-3.059-1.058-6.686-2.868-6.786C379.61,432.917,378.081,435.308,378.081,439.417z"/>
	<path d="M329.617,419.152c5.017-7.515,13.043-6.334,15.765,1.337c2.205,6.214,1.591,13.879-0.376,19.596
		c-3.155,9.176-10.009,14.666-16.153,4.778C325.533,439.522,324.728,426.477,329.617,419.152z"/>
	<path fill="#FAB000" d="M331.126,443.339c5.651,9.981,11.527-1.65,12.732-7.078c1.161-5.227,0.669-11.852-0.956-15.771
		c-1.625-3.92-4.917-4.946-8.19-3.305c-3.067,1.538-4.472,5.584-5.326,8.651C327.828,431.439,328.24,438.242,331.126,443.339z"/>
	<path fill="#DB9900" d="M344.092,425.026c0.566,3.543,0.551,7.701-0.234,11.235c-1.206,5.428-7.081,17.058-12.732,7.078
		c-0.423-0.748-0.777-1.541-1.096-2.351C336.161,437.815,341.471,431.581,344.092,425.026z"/>
	<path d="M337.547,423.341c2.863,0.737,3.898,4.942,3.333,9.502c-0.566,4.561-4.142,7.58-7.655,5.656
		c-1.94-1.064-2.365-4.597-1.774-8.612C331.983,426.274,334.33,422.514,337.547,423.341z"/>
	<path fill="#B6B1B3" d="M333.621,431.133c-0.301,3.47,0.647,5.666,2.389,5.247c1.275-0.304,2.446-1.901,2.748-4.478
		c0.305-2.576-0.403-5.722-1.926-5.939C335.387,425.757,333.921,427.664,333.621,431.133z"/>
	<path fill="#999295" d="M456.116,370.257c1.786-1.19,3.44-2.617,4.588-4.306c0.712,1.005,1.597,1.861,2.57,2.506
		c-1.081,2.234-2.913,4.072-5.138,5.546C457.551,372.711,456.876,371.457,456.116,370.257z"/>
	<path fill="#999295" d="M417.88,368.882c0.254,1.498,0.653,2.954,1.14,4.385c-2.293-1.179-4.284-2.437-5.657-3.567
		c-0.411-1.411-1.331-3.38-1.795-4.895C413.554,366.308,415.74,367.657,417.88,368.882z"/>
	<path fill="#999295" d="M427.473,432.673c0.589-0.129,1.163-0.249,1.701-0.352c0.758,0.738,1.386,2.506,0.91,4.122
		c-0.539,0.188-1.123,0.383-1.721,0.578C428.342,435.52,428.063,434.037,427.473,432.673z"/>
	<path fill="#999295" d="M423.148,433.733c0.297,0.875,0.563,1.756,0.806,2.638c0.026,0.654-0.008,1.33-0.081,2.012
		c-1.053,0.29-2.075,0.555-2.966,0.746c0-1.242-0.191-3.442-0.478-4.589C421.296,434.257,422.217,433.99,423.148,433.733z"/>
	<path fill="#999295" d="M371.243,358.298c1.823-0.554,3.504-1.002,4.922-1.295c-0.442,1.157-0.851,2.333-1.242,3.517
		c-1.094,0.108-2.247,0.324-3.431,0.616C371.635,360.17,371.557,359.174,371.243,358.298z"/>
	<path fill="#999295" d="M358.501,385.959c-0.125,0.053-0.262,0.106-0.363,0.156c-2.188-3.893-6.428-7.114-10.057-9.263
		c-0.883-0.524-3.298-1.608-4.19-2.887C349.81,376.386,355.01,380.639,358.501,385.959z"/>
	<path fill="#999295" d="M374.478,328.998c1.073,0.679,2.255,1.233,3.553,1.622c-3.505,2.665-5.207,5.741-5.091,11.23
		c-2.149-0.353-4.141-1.274-5.964-2.577C368.36,335.249,371.019,331.958,374.478,328.998z"/>
	<path fill="#999295" d="M356.196,322.396c-0.795-2.76-1.221-5.413-1.221-7.646c2.006-0.116,9.338-0.996,11.378-1.198
		c0.093,1.515,0.333,3.034,0.714,4.512C363.393,319.227,359.642,320.598,356.196,322.396z"/>
	<path fill="#999295" d="M383.649,435.779c0.391,1.218,0.592,2.673,0.55,4.02c-0.095,3.058-1.306,5.055-2.773,5.544
		c-0.743,0.248-1.393,0.059-1.918-0.48C381.789,442.672,383.146,439.2,383.649,435.779z"/>
	<path fill="#999295" d="M338.508,428.175c0.302,1.116,0.396,2.486,0.249,3.728c-0.301,2.577-1.472,4.174-2.748,4.478
		c-0.777,0.187-1.385-0.17-1.806-0.906C336.814,433.841,337.793,431.043,338.508,428.175z"/>
	<path fill="#FCD06E" d="M318.051,233.759c0.42,6.585,3.385,44.598,3.982,49.776c0.598,5.178,2.987-16.128,2.191-23.296
		C323.427,253.072,317.454,224.401,318.051,233.759z"/>
	<path fill="#FCD06E" d="M317.255,168.652c-1.871,2.123-2.39,8.562-1.991,13.34C315.662,186.77,324.621,160.29,317.255,168.652z"/>
	<path fill="#FCD06E" d="M431.096,295.812c-3.877,2.585-15.613,4.462-22.676,5.577c-7.062,1.115,4.089-4.089,11.895-5.947
		C426.378,293.998,436.672,292.095,431.096,295.812z"/>
	<path fill="#FF7B5E" d="M300.246,218.493c-1.966,5.309-2.23,18.214,0.744,15.24C303.963,230.76,304.124,208.014,300.246,218.493z"
		/>
	<path fill="#FF7B5E" d="M395.781,338.563c-0.473-4.499-5.204-7.435-9.293-5.577C382.399,334.845,396.525,345.625,395.781,338.563z"
		/>
	<path fill="#FF7B5E" d="M471.094,357.116c-0.431-1.795-2.456-2.968-4.401-1.535C464.748,357.013,471.708,359.675,471.094,357.116z"
		/>
	<path fill="#FCD06E" d="M335.506,420.864c1.594-1.678,4.075-2.349,3.193-2.902c-1.983-1.241-5.512,0.291-7.254,5.804
		C330.366,427.181,332.909,423.597,335.506,420.864z"/>
	<path fill="#FCD06E" d="M377.586,428.41c3.155-3.119,6.964-3.338,5.513-3.772c-3.169-0.951-8.125,0.288-10.157,8.705
		C371.927,437.55,374.43,431.529,377.586,428.41z"/>
	<path fill="#FCD06E" d="M459.131,327.421c-1.176,5.292-5.804,17.702-6.384,20.024c-0.581,2.321,4.642-6.676,5.223-8.997
		C458.55,336.127,460.292,322.198,459.131,327.421z"/>
	<path fill="#CDE96A" d="M415.305,390.101c-1.13-4.292-3.483-11.607-4.934-15.09c-1.45-3.482-2.032,5.223-0.581,9.867
		C411.242,389.522,416.757,395.614,415.305,390.101z"/>
	<path fill="#CDE96A" d="M406.599,366.306c-1.478-2.961-3.772-3.772-2.612,0C405.148,370.077,408.048,369.209,406.599,366.306z"/>
	<path fill="#92908C" d="M448.283,422.872c1.745,3.52,2.918,7.263,3.146,11.117c-0.79-0.085-1.401-0.731-1.591-2.099
		c-0.591-4.242-4.582-13.743-8.936-16.355c-1.248-0.749-1.416-1.631-0.871-2.375C443.663,414.727,446.838,419.959,448.283,422.872z"
		/>
	<path fill="#92908C" d="M452.445,418.905c-1.364-2.181-3.461-5.087-5.959-7.135c1.758,0.345,3.645,1.171,5.384,2.708
		c5.888,5.202,5.997,11.029,4.363,14.951C455.698,425.703,454.429,422.076,452.445,418.905z"/>
	<path fill="#92908C" d="M452.667,422.116c1.342,2.993,2.198,6.143,2.457,9.346c-0.741,1.064-1.596,1.848-2.403,2.243
		c-0.288-4.702-1.836-9.34-4.331-13.339c-1.64-2.628-4.087-6.422-7.182-8.114c0.756-0.371,1.76-0.618,2.9-0.668
		C447.929,413.811,451.333,419.142,452.667,422.116z"/>
	<path fill="#92908C" d="M408.141,425.318c2.592,2.635,4.948,6.549,5.294,11.389c0.308,4.316-1.011,7.349-2.792,9.231
		C411.767,438.997,410.903,431.813,408.141,425.318z"/>
	<path fill="#92908C" d="M409.095,447.229c-1.056,0.68-2.154,1.036-3.11,1.07c1.099-4.682,1.427-9.647,1.048-14.298
		c-0.333-4.092-1.153-8.357-3.22-11.876c0.584,0.271,1.22,0.648,1.875,1.106C409.547,430.606,410.764,439.137,409.095,447.229z"/>
	<path fill="#92908C" d="M401.932,421.577c3.026,4.145,3.855,9.933,3.893,14.881c0.031,3.879-0.296,7.837-1.171,11.65
		c-1.05-0.388-1.651-1.351-1.304-2.851c1.316-5.699-0.581-17.13-2.411-21.704C400.376,422.145,400.873,421.524,401.932,421.577z"/>
	<path fill="#BFBDBB" d="M380.111,415.879c-3.042,0.406-8.549,2.413-12.057,9.428c-3.508,7.014,3.068-2.193,6.795-4.824
		C378.576,417.852,383.399,415.44,380.111,415.879z"/>
	<path fill="#BFBDBB" d="M339.334,410.18c-2.555-0.767-9.208,1.316-12.277,7.892c-3.068,6.577,3.508-2.411,6.577-4.384
		C336.704,411.714,341.526,410.837,339.334,410.18z"/>
	<path fill="#92908C" d="M359.698,413.541c1.203,0.272,2.438,1.264,2.953,1.859c1.248,1.44,0.526,2.456-0.656,2.68
		C361.73,416.583,360.555,414.748,359.698,413.541z"/>
	<path fill="#92908C" d="M354.23,411.517c0.853,0.202,2.295,0.643,3.198,0.981c1.766,1.52,3.132,3.387,3.577,5.645
		c-0.941-0.056-2.469-0.361-3.713-0.719C356.691,415.29,355.548,413.223,354.23,411.517z"/>
	<path fill="#92908C" d="M351.83,411.275c0.262,0,0.563,0.022,0.88,0.054c1.543,1.596,2.672,3.523,3.401,5.664
		c-0.402-0.145-0.804-0.288-1.21-0.457C353.16,415.811,349.2,411.275,351.83,411.275z"/>
</g>
</svg>
