<?xml version="1.0" encoding="utf-8"?>
<!-- Generator: Adobe Illustrator 17.0.0, SVG Export Plug-In . SVG Version: 6.00 Build 0)  -->
<!DOCTYPE svg PUBLIC "-//W3C//DTD SVG 1.1//EN" "http://www.w3.org/Graphics/SVG/1.1/DTD/svg11.dtd">
<svg version="1.1" id="Layer_1" xmlns="http://www.w3.org/2000/svg" xmlns:xlink="http://www.w3.org/1999/xlink" x="0px" y="0px"
	 width="800px" height="600px" viewBox="0 0 800 600" enable-background="new 0 0 800 600" xml:space="preserve">
<g>
	<path fill="#E5C49D" d="M359.465,420.995c43.008-1.326,200.313,17.025,172.988,33.938c-27.323,16.921-83.503,28.615-152.011,28.663
		c-68.508,0.046-136.704-20.593-128.393-37.111C260.361,429.973,288.934,423.168,359.465,420.995z"/>
	<path fill="#885734" d="M494.574,339.914c4.945-1.666,28.957-9.6,34.124-18.587c5.175-8.989-1.551-15.556-13.955-6.367
		C502.331,324.158,483.54,343.634,494.574,339.914z"/>
	<path fill="#97643F" d="M409.395,217.478c4.131-11.145,11.723-61.765,50.122-50.393c38.403,11.371,41.493,89.549,16.03,64.13
		c-25.469-25.422-39.674-44.646-60.488-6.586C408.796,236.084,405.262,228.62,409.395,217.478z"/>
	<path fill="#97643F" d="M319.868,188.605c-4.53-4.004-21.852-51.439-50.231-27.451c-28.375,23.995-22.422,85.057-4.737,59.521
		c20.042-28.923,27.864-43.114,46.621-22.216L319.868,188.605z"/>
	<path fill="#804E2B" d="M400.758,393.05c2.722,19.704-56.215,99.524-83.288,57.019C290.398,407.562,393.731,342.216,400.758,393.05
		z"/>
	<path fill="#885734" d="M376.952,406.032c3.745,3.407,2.522,30.243-18.105,39.883c-20.626,9.644-27.947-12.637-19.43-31.711
		C347.93,395.129,369.272,399.054,376.952,406.032z"/>
	<path fill="#885734" d="M352.592,386.802c6.116,19.002-31.264,100.171-72.228,69.362
		C245.751,430.13,336.825,337.772,352.592,386.802z"/>
	<path fill="#97643F" d="M352.592,386.802c6.116,19.002-30.014,86.719-67.173,53.316
		C264.945,421.709,336.825,337.772,352.592,386.802z"/>
	<path fill="#804E2B" d="M460.413,366.496c19.952,5.791,71.823,89.951,19.994,95.817
		C428.577,468.184,408.917,351.539,460.413,366.496z"/>
	<path fill="#885734" d="M481.916,398.087c9.995,4.597,24.509,40.392,14.172,51.821c-10.335,11.423-37.977,7.473-49.421-21.939
		C435.222,398.555,467.895,391.631,481.916,398.087z"/>
	<path fill="#885734" d="M454.727,414.002c-45.594,18.169-144.678-10.629-145.521-48.832c-1.405-63.814,4.736-67.805,78.854-74.581
		C498.964,280.459,543.308,378.699,454.727,414.002z"/>
	<path fill="#97643F" d="M453.019,409.023c-45.598,18.171-139.862-9.329-143.812-43.853c-7.256-63.455,4.736-67.805,78.854-74.581
		C498.964,280.459,541.596,373.722,453.019,409.023z"/>
	<path fill="#AB7247" d="M428.606,293.38c13.704,0.752,65.235,17.146,67.475,52.692c1.82,29.012-29.569,59.822-69.815,46.997
		C314.923,357.593,379.492,290.67,428.606,293.38z"/>
	<path fill="#97643F" d="M418.783,206.658c12.773,30.843,19.7,122.023-37.51,152.956c-57.207,30.936-119.111-6.532-128.736-40.175
		c-9.621-33.65,36.378-36.209,36.378-36.209s6.851-75.001,30.953-94.626C343.974,168.983,406.016,175.819,418.783,206.658z"/>
	<path fill="#AB7247" d="M418.783,206.658c12.773,30.843,15.117,115.358-42.1,146.294c-57.207,30.934-114.522,0.131-124.146-33.512
		c-9.621-33.65,36.378-36.209,36.378-36.209s6.851-75.001,30.953-94.626C343.974,168.983,406.016,175.819,418.783,206.658z"/>
	<path fill="#CC9566" d="M379.492,184.302c20.348,4.926,33.573,31.536-3.787,60.592c-37.363,29.056-61.561,18.446-66.502,0
		C300.048,210.678,318.486,169.528,379.492,184.302z"/>
	<path fill="#CC9566" d="M298.107,279.34c16.731-0.877,114.992,16.748,83.452,48.759c-31.537,32.007-81.173,32.502-112.71,4.922
		C237.309,305.445,269.978,280.82,298.107,279.34z"/>
	<g>
		<path fill="#824C2C" d="M319.946,212.331c13.301,1.597,4.296,63.293-10.02,61.291C295.608,271.618,303.244,210.33,319.946,212.331
			z"/>
		<path fill="#F2E7D3" d="M322.542,220.725c1.365,3.805,1.298,12.992,0,17.327c-1.3,4.336-7.463-1.546-8.116-8.662
			C313.767,222.269,318.628,209.85,322.542,220.725z"/>
	</g>
	<g>
		<path fill="#885734" d="M436.497,414.154c16.443,0,28.364-2.238,28.607-2.286l-0.417-1.954
			c-0.495,0.102-50.487,9.462-86.891-10.711c-37.539-20.795-41.359-33.353-41.396-33.475l-2.023,0.505
			c0.144,0.537,4.079,13.485,42.361,34.69C395.956,411.576,418.835,414.154,436.497,414.154L436.497,414.154z"/>
	</g>
	<path fill="#885734" d="M419.923,378.676c17.814,10.35,46.024,104.164-5.705,97.541
		C362.484,469.597,373.963,351.967,419.923,378.676z"/>
	<path fill="#97643F" d="M419.923,378.676c17.814,10.35,48.231,96.295-3.522,89.84C370.341,462.771,373.963,351.967,419.923,378.676
		z"/>
	<path fill="#DCB383" d="M396.094,309.003c2.033-6.807-5.427-14.792-16.66-17.827c-11.231-3.045-21.985,0.008-24.016,6.814
		c-2.033,6.807,5.427,14.788,16.66,17.831C383.31,318.862,394.063,315.81,396.094,309.003z"/>
	<path fill="#AB7247" d="M426.266,385.17c4.734,6.538,27.304,52.535,7.909,66.396c-19.388,13.855-33.827-16.46-35.923-33.13
		C395.305,394.979,403.855,354.253,426.266,385.17z"/>
	<path fill="#CC9566" d="M470.128,312.057c16.074,10.73,21.054,25.55,9.018,28.039c-12.042,2.495-41.173-11.756-47.913-28.304
		C428.024,303.92,439.192,291.407,470.128,312.057z"/>
	<g>
		<path fill="#885734" d="M423.34,472.787c0.536-0.171,13.193-4.388,13.278-24.546c0.121-28.903-10.164-60.724-22.931-70.928
			c-3.59-2.868-7.106-3.198-10.75-2.578l-1.223,0.511c3.01-0.52,7.536,1.125,10.625,3.593c12.351,9.874,22.3,41.01,22.187,69.394
			c-0.079,18.739-11.727,22.622-11.842,22.661L423.34,472.787L423.34,472.787z"/>
	</g>
	<g>
		<path fill="#824C2C" d="M485.604,457.411l0.432-1.952c-24.388-4.885-25.797-44.315-25.81-44.714l-2.09,0.056
			C458.182,412.488,459.622,452.205,485.604,457.411L485.604,457.411z"/>
	</g>
	<g>
		<path fill="#885734" d="M296.533,461.204c21.87-0.678,45.187-58.344,46.168-60.797l-1.954-0.714
			c-0.234,0.593-23.791,58.881-44.286,59.514L296.533,461.204L296.533,461.204z"/>
	</g>
	<path fill="#AB7247" d="M476.96,178.845c7.596,6.643,21.261,45.702,8.878,47.988c-12.381,2.286-34.297-26.613-44.96-39.801
		C430.212,173.848,446.519,152.248,476.96,178.845z"/>
	<path fill="#AB7247" d="M289.928,154.915c6.72,1.525,13.35,16.88-7.657,34.29c-20.998,17.409-28.999,14.386-24.354-3.027
		C262.561,168.758,273.042,151.067,289.928,154.915z"/>
	<g>
		<path fill="#885734" d="M332.631,283.256c0.048-0.392,4.663-39.514,11.095-67.946c7.765-34.328,30.867-36.23,31.827-36.275
			l-3.4-0.538c-0.246,0.014-22.35,0.486-30.469,36.391c-6.457,28.534-11.087,67.752-11.135,68.146L332.631,283.256L332.631,283.256z
			"/>
	</g>
	<path fill="#97643F" d="M529.166,312.155c2.753-0.415,7.1,5.72-2.912,11.788c-10.016,6.068-18.965,4.599-14.201-1.209
		C516.825,316.92,522.248,313.198,529.166,312.155z"/>
	<g>
		<path fill="#885734" d="M334.95,367.433l1.451-1.707c-17.537-2.407-31.205-9.26-38.267-20.37
			c-13.554-21.321-2.659-51.47-2.542-51.771l-1.708-0.572c-0.119,0.305-11.291,31.224,2.699,53.236
			C303.945,357.822,316.848,364.949,334.95,367.433L334.95,367.433z"/>
	</g>
	<path fill="#824C2C" d="M279.459,276.565c16.401-0.002,45.69,11.337,28.433,16.558c-17.255,5.221-34.508,1.958-40.808-2.939
		C260.785,285.291,263.068,276.565,279.459,276.565z"/>
	<path fill="#8D7D6E" d="M289.546,279.308c1.177,0.311,22.855,7.239,17.445,9.565c-5.409,2.325-27.743-1.15-31.055-5.724
		C272.615,278.572,277.169,276.067,289.546,279.308z"/>
	<path fill="#F2E7D3" d="M299.687,282.404c3.423,1.211,14.808,6.271,7.304,7.268c-7.502,0.996-22.344-9.037-20.939-10.364
		C287.465,277.991,294.023,280.398,299.687,282.404z"/>
	<g>
		<g>
			<path fill="#824C2C" d="M377.683,221.806c13.303,1.598,4.294,63.295-10.024,61.293
				C353.345,281.093,360.983,219.807,377.683,221.806z"/>
			<path fill="#F2E7D3" d="M380.275,230.196c1.367,3.807,1.3,12.997,0,17.334c-1.299,4.333-7.465-1.549-8.122-8.664
				C371.5,231.745,376.367,219.322,380.275,230.196z"/>
		</g>
		<path fill="#8D7D6E" d="M365.415,256.416c1.43,2.323,11.176,17.258,6.738,21.425c-4.426,4.165-8.636,1.092-9.423-7.914
			C361.976,261.231,363.584,253.428,365.415,256.416z"/>
	</g>
	<path fill="#8D7D6E" d="M308.556,241.767c2.655,4.37,10.638,21.511,4.359,25.928c-3.419,2.399-7.5-3.186-8.018-12.054
		C304.373,246.768,307.565,240.121,308.556,241.767z"/>
</g>
</svg>
