<?xml version="1.0" encoding="utf-8"?>
<!-- Generator: Adobe Illustrator 17.0.0, SVG Export Plug-In . SVG Version: 6.00 Build 0)  -->
<!DOCTYPE svg PUBLIC "-//W3C//DTD SVG 1.1//EN" "http://www.w3.org/Graphics/SVG/1.1/DTD/svg11.dtd">
<svg version="1.1" id="Layer_1" xmlns="http://www.w3.org/2000/svg" xmlns:xlink="http://www.w3.org/1999/xlink" x="0px" y="0px"
	 width="800px" height="600px" viewBox="0 0 800 600" enable-background="new 0 0 800 600" xml:space="preserve">
<g>
	<path fill="#C27700" d="M369.27,121.001c0,0-1.92-28.394,13.395-46.243c15.31-17.855,39.641-25.218,59.39-10.765
		c12.69,9.284-2.948,20.015-11.074,19.159c-8.123-0.847-16.52-6.996-24.291-7.608c-7.771-0.616-15.049,8.311-18.842,16.248
		c-3.796,7.939-7.209,27.12-7.209,27.12s11.069-0.492,19.535,5.96c8.456,6.447,11.717,17.586,11.717,17.586
		s25.46-24.592,42.162-36.143c16.703-11.549,42.998-28.113,68.569-7.672c19.971,15.965,4.937,40.65-2.553,43.036
		c-7.483,2.395-12.178-2.038-18.051-7.772c-5.866-5.728-16.902-16.715-29.342-13.812c-12.436,2.906-21.713,11.769-31.037,19.569
		c-9.329,7.799-30.111,23.52-30.111,23.52s-2.669,5.879-5.735,8.932c-3.081,3.053-9.09,5.155-3.995,12.409
		c5.109,7.261,34.5,41.57,51.117,57.583c16.612,16.015,44.859,39.837,75.199,55.592c30.335,15.764,58.505,26.751,62.446,27.35
		c3.946,0.604,21.509-2.696,34.475-7.542c12.974-4.848,33.625-17.329,45.739-32.718c12.131-15.388,17.324-37.219,2.06-52.581
		c-15.259-15.357-35.547-8.005-44.989,0.741c-9.45,8.743-11.495,20.897-9.876,29.941c3.063,17.149,19.569,11.604,19.569,11.604
		s-12.58,12.274-26.512,5.215c-13.938-7.052-18.524-27.263-4.989-42.471c13.531-15.212,40.615-32.321,71.144-20.267
		c30.522,12.05,39.91,41.879,23.685,67.561c-16.213,25.682-40.457,39.326-57.966,45.216c-17.506,5.888-44.144,9.75-44.144,9.75
		s-1.545,6.894-4.991,15.067c-3.436,8.168-19.372,35.328-19.372,35.328s26.391-1.217,30.214-0.441
		c3.825,0.786-6.112,13.302-3.906,22.958c2.211,9.666,10.263,14.812,19.801,14.315c9.545-0.5,18.687-5.361,18.687-5.361
		s4.427-16.764,18.15-22.845c21.115-9.358,20.999,8.73,20.999,8.73s8.121,3.14,8.858,10.798s-7.044,11.633-7.044,11.633
		s12.627,9.767,1.935,19.971c-10.692,10.219-16.289,10.554-25.406,7.759c-9.119-2.805-19.818-8.961-38.483-8.195
		c-18.67,0.761-29.869,2.96-33.66-7.761c-3.793-10.729,2.667-24.548,0.68-29.973c-1.984-5.427-28.07-5.04-28.07-5.04
		s-5.851,6.048-13.277,10.263c-7.441,4.217-14.985,7.842-14.985,7.842s8.818,21.521,19.771,21.97
		c10.955,0.448,17.085-3.364,18.312,0.535c1.223,3.882-11.372,19.212-8.643,32.304c2.731,13.075,14.194,18.48,21.033,15.904
		c6.837-2.568,15.554-2.605,18.426,2.649c2.866,5.25-2.75,12.474-2.75,12.474s13.188,0.924,11.919,10.815
		c-1.269,9.891-9.462,13.334-9.462,13.334s6.068,15.337-8.939,14.462c-15.017-0.867-26.529-11.916-37.073-29.736
		c-10.539-17.822-13.349-21.245-15.254-32.501c-1.915-11.246,5.415-19.885,5.415-19.885s-7.934-4.567-17.807-10.426
		c-9.871-5.861-21.149-16.491-26.771-26.401c-5.622-9.91-6.06-19.163-6.06-19.163s-24.188-6.263-64.724-35.013
		c-40.538-28.743-70.139-54.747-70.139-54.747s-71.943,29.448-94.985,36.73c-23.057,7.285-62.768,14.637-69.478,14.731
		c-6.716,0.103-10.423-0.858-10.423-0.858s-8.537,19.589-23.771,12.178c-15.225-7.409-11.523-24.356-21.614-35.22
		c-10.095-10.879-19.241-14.179-21.081-19.271c-4.026-11.148,7.112-14.403,7.112-14.403s0.798-8.422,10.223-10.275
		c9.426-1.856,16.114,5.711,16.114,5.711s6.223-12.71,21.857-3.231c15.633,9.474,11.257,17.519,10.059,23.113
		c-1.198,5.595-0.918,11.658-0.918,11.658s16.594,3.468,38.208,2.12c21.615-1.336,42.719-6.864,66.592-15.382
		c23.873-8.525,54.907-23.505,54.907-23.505l-11.865-11.283c0,0-31.87,22.337-53.256,24.087
		c-21.381,1.762-33.854-0.988-49.362-14.46c-15.498-13.482-20.58-27.633-20.58-27.633s31.175-25.098,43.272-33.599
		c12.106-8.498,18.721-15.308,18.721-15.308s-47.407-17.761-68.944-23.776c-21.535-6.012-54.143-10.775-63.901-16.809
		c-9.754-6.04-1.768-18.322-1.768-18.322s-15.062-2.7-16.268-12.716c-1.205-10.015,12.48-16.688,12.48-16.688
		s-3.156-8.249,4.929-13.053c8.083-4.806,14.677-5.486,14.677-5.486s2.446-27.261,26.916-17.999
		c24.465,9.268,21.281,28.104,16.249,36.745c-5.03,8.637-31.252,30.172-23.601,34.016c7.64,3.855,76.275,30.746,88.389,36.326
		c12.116,5.571,17.637,9.543,17.637,9.543s57.239-53.643,60.428-57.639c3.189-3.996,9.361-18.523,16.639-27.449
		C357.008,124.787,369.27,121.001,369.27,121.001z"/>
	<path fill="#AC6500" d="M226.57,212.845c15.382,5.333,30.695,10.979,36.671,13.2c3.426-1.756,5.871-4.826,8.094-8.141
		c-2.299-1.468-7.606-4.638-16.304-8.644c-3.066-1.411-9.787-4.201-18.211-7.637c-0.796,1.706-1.826,3.303-3.009,4.704
		C231.694,208.847,229.256,211.032,226.57,212.845z"/>
	<path fill="#AC6500" d="M383.56,309.207c-8.572,4.69-17.93,7.847-26.31,12.883c2.344,2.011,8.254,7.088,16.885,14.1
		c0.732-0.808,1.427-1.664,2.06-2.566c2.77-3.948,4.86-8.523,6.243-13.137C383.493,316.959,384.4,312.907,383.56,309.207z"/>
	<path fill="#AC6500" d="M339.187,280.154c-3.027,1.878-6.295,3.517-8.952,5.915c-2.213,2.011-4.2,4.234-6.162,6.492
		c-2.504,2.876-5.013,5.871-7.934,8.365c6.578-3.934,10.938-6.99,10.938-6.99l5.752,5.476c0.407-0.217,0.808-0.441,1.21-0.663
		c10.462-5.878,20.247-13.353,28.701-21.88c9.866-9.949,16.676-22.337,23.345-34.541c3.31-6.05,6.854-11.897,8.532-18.657
		c1.365-5.533,1.905-11.466,0.85-17.107c-0.944-4.993-3.021-10.201-7.098-13.478c-2.79-2.243-5.927-3.512-9.257-4.128
		c2.161,2.907,3.613,6.315,4.074,9.951c2.181,17.349-10.002,32.977-17.006,47.805c-3.086,6.528-6.694,12.772-11.241,18.4
		C350.418,270.707,345.338,276.344,339.187,280.154z"/>
	<path fill="#AC6500" d="M425.077,130.186c-5.373,4.86-9.718,8.963-11.818,10.962c-0.237,6.902,0.712,14.083-0.19,20.865
		c3.187-2.415,10.815-8.234,17.94-13.824C428.931,142.224,426.898,136.237,425.077,130.186z"/>
	<path fill="#AC6500" d="M369.987,106.22c-0.821,6.122-0.836,11.093-0.777,13.392c3.778-0.898,7.631-1.285,11.537-1.283
		c0.242-1.316,0.895-4.748,1.812-8.837C378.5,107.981,374.258,106.893,369.987,106.22z"/>
	<path fill="#AC6500" d="M159.807,345.406c-4.001-3.209-8.137-6.137-13.082-7.663c-2.98-0.909-6.188-1.262-8.96,0.439
		c-2.469,1.513-4.297,3.916-5.803,6.59c1.274,1.19,2.579,2.484,3.909,3.914c10.09,10.864,6.388,27.811,21.614,35.22
		c3.936,1.917,7.428,2.026,10.439,1.138C176.164,372.142,171.4,354.712,159.807,345.406z"/>
	<path fill="#AC6500" d="M522.657,361.761c13.447-10.63,30.672-19.049,48.201-17.832c-6.608-8.796-19.389-9.957-29.541-8.16
		c-20.747,3.687-38.473,18.369-50.843,34.843c-7.305,9.718-13.79,21.154-17.324,33.221c8.649,4.054,14.339,5.989,16.671,6.704
		c0.897-2.6,1.876-5.166,2.958-7.697c-0.311-0.384-0.495-0.848-0.466-1.346c0.256-4.648,2.354-8.239,4.969-11.586
		c1.841-6.344,7.569-11.283,13.087-14.546C513.698,370.323,517.661,365.702,522.657,361.761z"/>
	<path fill="#AC6500" d="M454.076,381.936c-6.775-8.308-16.604-15.954-25.494-21.849c-8.281-5.499-15.579-9.785-24.459-14.256
		c-7.847-3.951-17.102-7.815-26.066-6.465c12.309,9.913,29.036,22.899,48.223,36.504c14.366,10.189,26.677,17.558,36.583,22.818
		C461.127,392.635,458.177,386.967,454.076,381.936z"/>
	<path fill="#AC6500" d="M609.151,255.03c-0.663,6.917,0.715,14.561,5.316,20.01c2.96,3.505,6.687,5.526,10.805,6.189
		c7.231-1.819,12.267-6.733,12.267-6.733s-16.506,5.546-19.569-11.604c-1.491-8.359,0.143-19.371,7.855-27.893
		C617.185,239.042,610.085,245.206,609.151,255.03z"/>
	<path fill="#AC6500" d="M536.382,478.272c-0.513,2.553-0.68,5.43-0.155,8.486c1.905,11.256,4.715,14.679,15.254,32.501
		c10.544,17.819,22.056,28.868,37.073,29.736c5.666,0.335,8.326-1.651,9.447-4.241C571.703,529.689,550.406,505.348,536.382,478.272
		z"/>
	<path fill="#AC6500" d="M596.51,389.21c-7.64,0.071-18.095,0.5-21.206,0.636c-5.072,5.464-9.765,11.268-14.96,16.607
		c5.696,0.076,17.489,0.545,22.576,2.982C588.004,403.103,592.431,396.273,596.51,389.21z"/>
	<path fill="#AC6500" d="M683.948,433.822c0.192,2.98-0.252,6.031-2.105,8.387c-2.25,2.871-5.607,4.377-9.149,4.944
		c-7.559,1.195-15.426-0.291-22.793-1.989c-6.985-1.604-13.965-4.488-21.223-4.214c-6.42,0.229-12.683,1.868-19.094,2.221
		c-5.351,0.286-10.627-0.565-15.564-2.696c-3.808-1.636-7.485-3.825-10.692-6.521c0.032,2.571,0.367,5.107,1.21,7.502
		c3.79,10.721,14.99,8.523,33.66,7.761c18.665-0.766,29.364,5.39,38.483,8.195c9.117,2.795,14.714,2.46,25.406-7.759
		C688.475,443.552,686.543,437.622,683.948,433.822z"/>
	<g>
		<path d="M357.174,151.291c-4.283-2.875-8.737,3.761-4.453,6.637C356.994,160.797,361.45,154.159,357.174,151.291z"/>
		<path d="M371.158,168.648c4.279,2.874,8.735-3.764,4.451-6.636C371.333,159.139,366.879,165.775,371.158,168.648z"/>
		<path d="M366.939,118.214c-0.959,0.292-1.891,0.611-2.827,0.964c-11.914,4.526-19.55,17.175-23.357,24.108
			c-4.624,8.408-2.142,17.276-0.111,13.891c2.041-3.385,9.176-12.814,13.321-17.572c2.704-2.975,5.58-5.73,8.878-8.041
			c2.243-1.394,4.579-2.516,7.061-3.426c2.672-0.808,5.363-1.343,8.143-1.595c3.318-0.126,6.6,0.097,9.873,0.663
			c2.822,0.626,5.546,1.503,8.188,2.701c1.814,0.961,3.517,2.075,5.114,3.368c1.087,1.056,2.07,2.18,2.96,3.411
			c0.564,0.964,1.055,1.951,1.469,2.987c0.389,1.391,0.633,2.79,0.784,4.232c0.089,2.615-0.133,5.207-0.569,7.79
			c-0.769,3.519-1.848,6.945-3.428,10.178c-4.974,10.157-12.153,15.43-16.395,18.718c-5.351,4.133,8.752,4.859,17.198-2.645
			c3.719-3.307,6.714-7.425,8.888-12c15.835-9.291,31.964-26.616,46.868-36.597c3.212-2.064,6.568-3.857,10.181-5.115
			c2.07-0.643,4.18-1.083,6.344-1.284c1.962-0.095,3.899,0.025,5.839,0.361c2.115,0.463,4.128,1.172,6.092,2.081
			c2.967,1.534,5.661,3.464,8.183,5.646c4.478,4.1,8.402,9.101,13.681,12.212c5.469,3.23,11.076,2.182,16.139-1.25
			c11.285-7.65,12.634-25.243,6.802-36.542c-2.127-4.131-5.587-7.562-9.652-10.29c-5.634-3.784-12.434-6.213-18.502-7.294
			c-10.347-1.844-21.004,0.57-30.586,4.467c-22.642,9.21-41.238,27.163-58.057,44.466c-1.905-5.628-7.278-11.679-14.25-15.952
			c-5.511-3.375-12.057-4.456-18.409-4.72c0.138-0.944,0.283-1.893,0.434-2.727c1.173-5.793,2.839-11.415,5.338-16.782
			c2.218-4.446,4.715-8.832,7.939-12.631c1.25-1.343,2.581-2.552,4.087-3.596c0.929-0.544,1.871-0.993,2.861-1.373
			c0.87-0.24,1.72-0.409,2.608-0.52c0.937-0.027,1.843,0.021,2.777,0.144c3.547,0.826,6.739,2.562,10.026,4.096
			c3.184,1.488,6.549,2.268,10.009,2.791c5.654,0.859,12.58,0.429,16.58-4.189c4.02-4.656,3.919-12.349,0.365-17.233
			c-1.255-1.728-2.812-3.145-4.547-4.311c-3.332-2.236-7.332-3.563-11.184-4.455c-12.173-2.825-25.055-1.916-35.833,4.771
			c-10.549,6.545-17.593,17.309-21.967,28.712C368.718,98.129,366.963,108.226,366.939,118.214z M480.349,95.662
			c4.387-1.42,8.873-2.407,13.474-2.779c3.574-0.19,7.116,0.004,10.632,0.643c3.318,0.709,6.492,1.795,9.556,3.248
			c3.497,1.798,6.709,4.008,9.706,6.561c1.087,1.025,2.033,2.138,2.888,3.375c0.863,1.446,1.57,2.942,2.154,4.524
			c0.663,2.134,1.077,4.286,1.287,6.507c0.121,2.463-0.025,4.882-0.436,7.315c-0.443,2.002-1.065,3.919-1.907,5.791
			c-0.816,1.579-1.774,3.032-2.921,4.392c-1.025,1.06-2.114,1.98-3.32,2.826c-0.902,0.532-1.814,0.99-2.79,1.357
			c-0.631,0.169-1.252,0.291-1.893,0.362c-0.597-0.001-1.183-0.047-1.772-0.132c-0.784-0.209-1.53-0.482-2.26-0.81
			c-1.607-0.891-3.039-1.982-4.432-3.176c-7.662-6.984-14.292-15.022-24.856-17.537c-8.252-1.959-16.506,0.302-23.764,4.338
			c-16.185,9.029-29.807,26.712-45.076,37.048c1.057-3.422,1.755-6.931,2.127-10.348c0.274-2.61,0.222-5.146-0.143-7.574
			c12.355-12.275,28.617-26.134,42.527-35.301C465.802,101.999,472.832,98.255,480.349,95.662z M388.196,72.443
			c2.479-2.717,5.215-5.124,8.251-7.196c2.637-1.665,5.413-3.015,8.353-4.055c2.975-0.935,6.001-1.518,9.114-1.789
			c4.464-0.239,8.91,0.158,13.307,0.961c3.024,0.625,5.974,1.481,8.794,2.771c1.301,0.683,2.524,1.457,3.667,2.378
			c0.663,0.626,1.264,1.293,1.814,2.028c0.409,0.69,0.752,1.397,1.038,2.149c0.182,0.737,0.308,1.46,0.387,2.212
			c-0.005,0.945-0.067,1.866-0.212,2.797c-0.155,0.593-0.333,1.161-0.56,1.736c-0.288,0.505-0.596,0.975-0.951,1.432
			c-0.357,0.332-0.715,0.628-1.092,0.919c-0.584,0.335-1.176,0.62-1.809,0.87c-1.122,0.327-2.243,0.526-3.411,0.646
			c-2.494,0.102-4.947-0.136-7.406-0.58c-6.637-1.45-12.217-5.738-18.97-6.695c-6.386-0.902-12.348,2.976-16.328,7.581
			c-9.265,10.711-12.249,22.214-14.011,35.565c-1.898,0.115-3.796,0.339-5.679,0.686c0.116-4.46,0.584-8.903,1.385-13.302
			c1.299-6.54,3.33-12.89,6.221-18.906C382.32,80.265,384.977,76.16,388.196,72.443z"/>
		<path d="M404.593,187.093c-2.96-3.654-5.437,4.583-1.237,10.3c13.906,18.931,36.275,46.38,64.906,70.374
			c24.607,20.631,54.998,38.572,84.974,50.518c22.468,8.954,37.149,5.092,29.322,2.455c-11.581-3.904-38.347-16.168-50.707-22.919
			c-23.468-12.814-44.376-27.17-66.158-46.309C441.809,230.514,407.561,190.742,404.593,187.093z"/>
		<path d="M603.233,275.282c9.696,12.572,29.25,9.723,38.616-1.456c1.279-1.531-0.848-3.866-2.519-2.913
			c-1.483,0.835-2.995,1.572-4.586,2.15c-1.215,0.378-2.43,0.654-3.69,0.784c-0.907,0.038-1.797-0.004-2.691-0.142
			c-0.737-0.171-1.449-0.409-2.144-0.708c-0.695-0.375-1.333-0.804-1.947-1.306c-0.717-0.677-1.348-1.414-1.913-2.228
			c-0.725-1.165-1.289-2.393-1.752-3.679c-0.611-1.962-0.959-3.964-1.121-5.998c-0.128-2.755,0.069-5.483,0.557-8.192
			c0.636-3.081,1.629-6.041,2.972-8.879c1.282-2.511,2.81-4.834,4.633-6.982c1.713-1.893,3.611-3.566,5.716-5.022
			c2.095-1.329,4.288-2.396,6.62-3.223c2.61-0.829,5.269-1.33,7.998-1.555c3.374-0.177,6.721,0.041,10.051,0.636
			c2.625,0.573,5.127,1.386,7.556,2.529c2.06,1.077,3.953,2.349,5.708,3.856c1.572,1.473,2.943,3.072,4.173,4.831
			c1.348,2.117,2.418,4.339,3.258,6.701c0.917,2.88,1.464,5.805,1.703,8.816c0.177,3.473-0.067,6.91-0.673,10.336
			c-0.766,3.704-1.937,7.258-3.544,10.686c-1.866,3.674-4.192,6.916-6.884,10.024c-7.347,8.244-15.739,15.441-24.95,21.521
			c-7.924,5.107-16.365,9.326-25.302,12.372c-6.82,2.213-13.326,3.603-20.402,4.816c-4.922,0.831-9.092,3.529-6.664,3.557
			c30.145,0.308,59.038-16.353,78.942-38.14c8.893-9.732,14.164-21.725,13.459-35.083c-0.665-12.459-7.229-23.5-18.778-28.649
			c-10.667-4.753-24.57-3.816-34.342,2.592c-7.855,5.149-13.016,13.599-14.982,22.692c-1.62,7.485-1.282,16.135,3.362,22.529
			c2.701,3.722,6.544,5.19,10.568,5.171c-0.522,0.221-1.05,0.433-1.59,0.637c-1.92,0.598-3.847,0.988-5.853,1.178
			c-1.952,0.089-3.85-0.028-5.772-0.367c-1.698-0.397-3.293-0.939-4.87-1.683c-1.343-0.739-2.573-1.571-3.756-2.551
			c-1.42-1.332-2.608-2.806-3.695-4.415c-1.21-1.932-2.218-3.942-2.99-6.09c-0.581-1.869-0.966-3.767-1.126-5.717
			c-0.081-1.95,0.047-3.865,0.382-5.788c0.527-2.45,1.365-4.779,2.433-7.032c1.641-3.176,3.68-6.066,6.006-8.77
			c3.852-4.295,8.296-7.976,13.092-11.174c5.439-3.527,11.256-6.43,17.388-8.544c3.842-1.261,7.783-2.205,11.818-2.523
			c4.947-0.253,9.969,0.255,14.827,1.134c5.233,1.049,10.297,2.69,15.103,5.018c3.84,1.966,7.409,4.324,10.674,7.136
			c2.844,2.577,5.368,5.442,7.52,8.614c1.903,2.961,3.431,6.089,4.592,9.412c1.023,3.203,1.669,6.483,1.947,9.837
			c0.205,3.733-0.052,7.431-0.717,11.111c-0.912,4.375-2.381,8.56-4.298,12.594c-3.123,6.206-7.231,11.779-11.788,17.006
			c-5.915,6.581-12.599,12.333-19.973,17.233c-8.853,5.723-18.416,10.098-28.383,13.496c-14.638,4.845-34.65,7.786-49.909,9.812
			c-2.566,0.35,4.035,3.174,7.872,2.893c27.537-2.021,58.811-9.91,82.686-29.573c19.656-16.19,35.604-42.524,25.329-68.394
			c-3.5-8.822-9.831-15.945-17.607-21.168c-11.559-7.762-26.337-11.313-39.809-9.98c-9.989,0.991-19.803,5.467-28.208,10.757
			c-8.809,5.55-17.156,12.979-21.787,22.46C594.646,254.802,596.125,266.069,603.233,275.282z"/>
		<path d="M529.316,457.564c-7.009-5.154-21.79-17.245-27.343-24.905c-4.34-5.984-5.878-13.817-6.08-16.249
			c-0.146-3.244,0.111-6.455,0.687-9.637c1.033-4.853,2.733-9.486,4.88-13.955c3.433-6.746,7.798-12.952,12.759-18.67
			c5.91-6.598,12.575-12.466,19.931-17.405c5.085-3.285,10.48-6.024,16.18-8.092c8.882-3.224,16.626-3.699,21.346-2.933
			c3.8,0.624-2.884-5.028-7.219-5.491c-10.47-1.134-20.649,2.659-29.62,7.823c-10.79,6.216-20.207,14.603-28.171,24.126
			c-7.697,9.198-14.578,21.285-16.935,33.509c-7.155-2.837-14.194-5.957-21.115-9.343c-35.074-17.464-66.871-40.967-96.19-66.806
			c-3.105-2.748-6.169-5.536-9.21-8.35c6.773-2.344,13.132-4.693,15.89-6.038c3.887-1.903,7.909-8.328,5.994-7.862
			c-17.918,4.372-89.299,34.12-132.753,48.743c-18.362,6.083-37.236,10.8-56.581,12.188c-4,0.249-8.257,0.168-11.316,0.076
			c1.278-5.161-1.957-10.396-3.511-6.489c-3.146,7.867-6.817,13.543-8.573,15.68c-0.87,0.922-1.782,1.738-2.801,2.489
			c-0.716,0.414-1.446,0.779-2.216,1.097c-0.776,0.217-1.57,0.372-2.372,0.471c-1.014,0.017-2-0.044-3.001-0.195
			c-1.707-0.38-3.322-0.937-4.923-1.641c-1.365-0.712-2.625-1.521-3.826-2.492c-1.066-1.018-2.01-2.119-2.853-3.33
			c-1.183-1.967-2.075-4.047-2.828-6.203c-2.333-7.367-3.479-15.567-8.613-21.647c-3.045-3.611-9.21-8.121-13.244-10.625
			c-5.808-3.606-10.123-7.355-8.45-11.138c0.928-2.09,2.868-3.603,4.513-4.562c1.406,2.026,3.329,3.751,5.367,5.183
			c3.729,2.632,13.394,0.31,9.168-1.375c-2.62-1.05-5.084-2.703-7.804-5.728c-2.728-3.014-2.009-5.853,1.831-8.742
			c3.839-2.888,9.563-0.453,10.656,0.035c1.124,0.596,2.157,1.309,3.155,2.098c-0.885,2.105-1.324,4.441-1.194,6.893
			c0.492,9.524,8,14.076,14.955,11.86c4.355-1.392,6.1-5.181,1.626-4.36c-0.433,0.094-0.858,0.158-1.285,0.217
			c-0.783,0.022-1.543-0.015-2.319-0.13c-0.564-0.15-1.104-0.343-1.648-0.567c-0.497-0.303-0.971-0.621-1.437-0.976
			c-0.504-0.503-0.954-1.035-1.373-1.607c-0.391-0.685-0.726-1.385-1.013-2.115c-0.215-0.801-0.372-1.599-0.472-2.42
			c-0.018-0.823,0.023-1.632,0.131-2.457c0.191-0.776,0.435-1.523,0.737-2.28c0.384-0.685,0.812-1.336,1.304-1.959
			c0.611-0.616,1.255-1.163,1.964-1.666c0.79-0.459,1.584-0.826,2.42-1.166c0.916-0.264,1.833-0.454,2.786-0.582
			c1.067-0.025,2.109,0.032,3.167,0.195c1.283,0.311,2.503,0.742,3.702,1.284c1.486,0.828,2.861,1.777,4.154,2.867
			c1.46,1.388,2.742,2.886,3.879,4.527c0.965,1.568,1.755,3.192,2.382,4.915c0.309,1.087,0.54,2.159,0.663,3.278
			c0.008,1.291-0.105,2.553-0.323,3.83c-0.938,4.202-2.557,8.18-3.248,12.454c-0.751,4.633,0.725,9.055,3.657,12.641
			c2.881,3.542,9.064,3.712,6.194,0.18c-0.197-0.222-2.503-3.443-2.972-8.013c27.293,4.92,54.491,2.324,80.936-5.888
			c27.032-8.412,52.457-21.028,78.8-31.222c4.064-1.577,27.828-10.76,33.169-12.284c3.327-0.934-6.225-4.259-9.506-3.53
			c-3.578,0.799-11.515,3.857-21.782,8.027c-3.189-3.019-7.111-6.682-9.624-9.006c7.059-5.752,13.684-12.026,19.87-18.682
			c10.795-11.611,20.54-24.443,27.749-38.606c5.378-10.556,9.491-21.319,8.269-33.444c-0.744-7.384-5.755-12.524-7.51-13.595
			c-3.875-2.36-9.026-0.672-7.885,0.412c4.372,4.125,7.167,9.689,7.438,14.682c0.276,4.993-0.143,5.616-0.651,8.388
			c-1.314,6.3-3.68,12.333-6.482,18.105c-6.282,12.56-14.613,24.06-23.865,34.588c-10.711,11.998-22.818,22.819-36.228,31.724
			c-8.693,5.641-17.938,10.45-27.757,13.809c-6.208,2.021-12.592,3.414-19.103,3.926c-4.951,0.276-9.905,0.025-14.78-0.86
			c-4.456-0.927-8.769-2.378-12.885-4.33c-4.456-2.282-8.577-5.124-12.358-8.395c-5.154-4.668-9.553-10.048-13.383-15.835
			c-1.415-2.16-2.817-4.381-3.749-6.791c-0.062-0.239-0.111-0.492-0.163-0.733c0.025-0.036,0.044-0.057,0.062-0.081
			c0.816-0.77,1.73-1.4,2.657-2.012c9.824-6.457,18.899-13.812,28.08-21.145c10.995-8.793,22.519-16.857,33.056-26.205
			c20.306-18.035,37.325-35.668,56.549-55.007c4.389-4.42,5.013-14.943,2.435-12.165c-12.772,13.779-40.085,38.02-58.764,55.314
			c-0.049-0.036-0.104-0.069-0.16-0.095c-31.116-18.602-100.647-43.008-103.159-44.223c-2.519-1.206,3.869-7.951,6.371-10.851
			c7.092-7.82,16.836-15.005,19.777-25.574c2.918-10.507-3.856-22.045-11.29-29.067c-1.417-1.327-2.948-2.564-4.574-3.656
			c-5.687-3.816-12.513-5.892-19.387-4.464c-9.957,2.071-15.565,11.447-17.876,20.642c-8.318,0.197-17.106,2.786-19.081,12.163
			c-0.547,2.579-0.324,4.831,0.445,6.793c-8.302,2.747-15.348,8.968-13.84,18.518c1.204,7.683,7.659,12.259,14.711,13.689
			c-1.687,2.198-2.77,4.712-2.648,7.55c0.269,6.318,5.824,10.39,10.968,13.057c12.81,6.648,27.311,8.68,41.311,11.357
			c29.027,5.759,56.64,16.281,84.384,26.319c-6.314,5.06-12.784,9.889-19.187,14.894c-9.735,7.628-19.096,15.988-29.418,22.848
			c-1.331,0.843-2.753,1.664-4.114,2.577c-1.306-3.444-3.622-6.52-6.859-8.69c-8.344-5.603-19.991-3.317-25.59,5.025
			c-5.605,8.347-3.31,19.992,5.035,25.594c8.005,5.373,19.027,3.485,24.858-4.029c0.581,0.932,1.166,1.811,1.686,2.61
			c5.104,7.934,11.189,15.061,18.606,20.93c12.488,9.888,28.016,13.878,43.745,12.796c15.872-1.102,31.212-7.566,44.719-15.678
			c4.604-2.77,9.072-5.77,13.388-8.964c1.405,1.965,4.705,5.092,7.293,7.522c-21.053,8.673-48.208,20.089-68.697,26.993
			c0.109-0.034,0.217-0.074,0.32-0.113c-0.113,0.047-0.229,0.084-0.335,0.118c-0.177,0.054-0.342,0.113-0.518,0.17
			c0.16-0.052,0.315-0.104,0.481-0.165c-15.074,4.981-30.549,8.641-46.407,9.787c-10.677,0.643-29.085-1.03-36.783-2.46
			c0.891-3.312,2.032-6.556,2.682-9.955c0.828-4.35-0.109-8.634-1.877-12.619c-2.049-4.653-5.573-8.88-9.9-11.781
			c-3.499-2.346-7.516-3.823-11.708-3.965c-4.718-0.153-9.15,1.646-12.389,4.665c-0.409-0.308-0.832-0.621-1.258-0.907
			c-6.726-4.515-15.254-5.44-22.385-0.606c-2.832,1.917-4.817,5.316-4.944,8.759c-5.434,0.288-10.588,7.165-10.903,10.566
			c-0.4,4.372,1.857,9.975,5.435,12.446c4.195,2.886,11.034,6.211,16.214,11.601c5.188,5.371,6.438,8.833,7.176,10.921
			c1.84,5.735,2.92,11.756,5.645,17.169c3.173,6.329,8.961,10.433,15.666,12.449c10.718,3.241,17.678-3.32,22.486-12.316
			c58.981,1.526,112.624-29.918,166.676-49.137c1.898-0.675,3.796-1.321,5.691-1.967c15.697,14.655,32.095,28.555,49.285,41.421
			c26.438,19.794,55.082,37.147,85.969,49.071c0.118,8.737,3.884,16.471,10.347,24.299c3.046,3.697,12.533,11.596,17.334,14.598
			C525.802,459.565,532.994,460.255,529.316,457.564z M265.144,222.122c-0.247-0.168-0.53-0.31-0.858-0.431
			c-18.063-6.509-36.018-13.355-54.382-19.006c-14.917-4.605-30.022-7.677-45.321-10.646c-9.154-1.803-18.454-4.072-26.905-8.084
			c-2.053-1.041-4.036-2.213-5.814-3.68c-0.619-0.583-1.185-1.197-1.691-1.874c-0.201-0.356-0.377-0.719-0.533-1.088
			c-0.058-0.245-0.105-0.481-0.137-0.725c-0.001-0.249,0.014-0.507,0.041-0.754c0.112-0.41,0.251-0.8,0.414-1.187
			c0.418-0.72,0.897-1.391,1.429-2.033c1.58-1.651,6.517-5.514,11.753-8.767c3.851-2.392-3.499-5.542-7.419-3.227
			c-1.466,0.869-3.094,1.869-4.698,2.997c-3.3-0.395-6.791-1.911-7.754-2.334c-0.993-0.56-1.916-1.178-2.802-1.894
			c-0.654-0.642-1.243-1.325-1.796-2.063c-0.402-0.68-0.749-1.378-1.05-2.113c-0.192-0.676-0.33-1.349-0.418-2.049
			c-0.006-0.662,0.037-1.308,0.131-1.958c0.164-0.595,0.361-1.158,0.593-1.715c0.388-0.681,0.825-1.311,1.314-1.92
			c0.726-0.715,1.491-1.342,2.312-1.924c0.999-0.578,4.996-2.313,7.166-3.225c4.295,3.221,10.454,4.86,15.378,5.351
			c4.536,0.454,14.166-4.154,9.631-4.606c-1.147-0.109-11.463-2.709-12.592-2.896c-1.986-0.428-3.906-0.992-5.767-1.82
			c-0.97-0.525-1.872-1.115-2.733-1.803c-0.456-0.446-0.872-0.916-1.261-1.418c-0.234-0.406-0.435-0.822-0.62-1.251
			c-0.097-0.377-0.169-0.751-0.224-1.139c0.006-0.356,0.028-0.705,0.069-1.055c0.122-0.458,0.27-0.893,0.445-1.325
			c0.322-0.559,0.685-1.088,1.083-1.594c0.673-0.675,1.391-1.277,2.172-1.827c1.145-0.679,2.33-1.231,3.57-1.691
			c2.123-0.651,4.286-1.028,6.498-1.215c0.472-0.015,0.944-0.025,1.412-0.027c6.06,5.139,11.246,8.339,17.438,11.655
			c4.019,2.149,11.08-0.431,8.593-1.833c-8.789-4.959-18.376-10.987-20.253-14.788c-1.88-3.802,2.266-9.213,3.49-10.676
			c0.921-0.95,1.897-1.797,2.972-2.558c0.939-0.554,1.897-1.013,2.914-1.405c1.11-0.318,2.232-0.54,3.382-0.653
			c1.304-0.035,2.58,0.052,3.871,0.255c1.789,0.394,3.495,0.991,5.156,1.756c2.079,1.109,3.993,2.432,5.794,3.946
			c2.219,2.065,4.158,4.358,5.856,6.868c1.544,2.469,2.871,5.072,3.86,7.818c0.368,1.285,0.625,2.558,0.762,3.885
			c0.017,1.144-0.062,2.269-0.239,3.398c-0.34,1.352-0.796,2.625-1.37,3.888c-1.42,2.631-3.213,4.98-5.161,7.225
			c-7.695,8.478-16.809,15.871-21.018,26.855c-0.609,1.583,0.281,3.784,2.962,5.103c2.674,1.322,57.553,22.107,83.025,34.537
			c6.751,3.354,13.39,6.928,19.887,10.759c-0.803,0.704-1.604,1.401-2.408,2.089C265.242,222.193,265.196,222.154,265.144,222.122z"
			/>
		<path d="M264.575,331.761c-0.025,0.005-0.035,0.008-0.052,0.01c0.01,0.003,0.027-0.005,0.037-0.005L264.575,331.761z"/>
		<polygon points="355.993,303.221 355.993,303.221 355.993,303.221 		"/>
		<path d="M688.638,436.442c-0.9-2.339-2.539-4.609-4.638-6.63c3.478-2.267,6.29-5.257,6.746-9.605
			c0.439-4.247-1.622-9.607-8.306-12.611c0.207-5.324-4.276-10.677-6.849-12.402c-14.862-9.979-42.116,13.861-36.452,32.684
			c1.299,4.32,5.299,5.738,5.006,3.581c-0.141-1.028-0.456-9.74,2.472-16.037c2.93-6.305,8.456-10.426,10.802-12.055
			c1.74-1.087,5.908-3.899,11.485-3.327c2.923,0.293,4.725,1.511,6.004,4.732c-12.234-1.895-16.513,11.101-12.584,8.796
			c2.433-1.435,5.955-3.441,10.076-3.068c4.111,0.362,11.263,1.663,11.118,7.995c-0.109,4.85-2.931,7.098-5.269,7.106
			c-7.549-4.155-16.484-4.353-20.23,4.042c-2.078,4.661,1.228,9.551,1.735,7.488c0.503-2.053,1.647-4.456,4.757-6.457
			c3.106-2.001,8.35,0.123,9.681,0.737c1.516,0.808,2.935,1.76,4.259,2.859c1.03,0.956,1.95,2.001,2.755,3.147
			c0.451,0.757,0.843,1.541,1.168,2.366c0.163,0.587,0.286,1.171,0.36,1.767c0.012,0.537-0.022,1.05-0.096,1.572
			c-0.138,0.527-0.308,1.025-0.515,1.531c-0.367,0.641-0.776,1.242-1.247,1.826c-0.872,0.902-1.839,1.703-2.871,2.435
			c-2.356,1.471-4.907,2.563-7.534,3.483c-2.741,0.872-5.521,1.592-8.387,1.917c-1.762,0.079-3.48-0.027-5.232-0.313
			c-2.605-0.626-5.035-1.627-7.461-2.792c-6.103-3.024-11.889-5.669-18.899-5.706c-6.277-0.032-12.545,0.966-18.793,1.435
			c-4.488,0.271-8.979,0.301-13.425-0.441c-1.947-0.419-5.602-1.087-9.043-4.084c-3.436-3.004-4.567-9.439-3.803-14.154
			c0.771-4.72,5.696-11.611,3.017-18.544c-3.224-8.36-14.665-7.044-21.987-6.477c1.614-1.718,3.189-3.507,4.703-5.361
			c1.294-1.585,2.534-3.199,3.739-4.841c4.986-0.197,24.047-2.228,26.473-0.291c1.452,1.153-4.858,9.573-4.993,19.587
			c-0.074,5.397,3.399,10.561,7.926,13.292c15.766,9.523,27.853,0.623,29.716-1.181c1.866-1.804-9.403,1.326-17.183-0.505
			c-1.597-0.37-3.123-0.87-4.606-1.538c-1.437-0.759-2.763-1.636-4.013-2.672c-0.978-0.944-1.856-1.952-2.649-3.059
			c-0.68-1.114-1.244-2.255-1.706-3.475c-0.384-1.284-0.633-2.573-0.769-3.916c-0.032-1.008-0.005-1.989,0.136-2.994
			c0.414-1.573,4.054-10.263,5.173-13.874c0.754-2.452,1.772-4.912-0.885-5.826c-2.657-0.917-18.692-1.099-27.735-0.412
			c-0.057,0-0.116,0.007-0.17,0.01c6.47-9.989,10.852-17.28,15.638-28.131c3.337-7.569,0.067-14.867-1.067-12.71
			c-8.36,16.001-21.181,37.021-33.105,50.737c-4.828,5.336-10.186,10.088-16.151,14.118c-5.319,3.404-10.955,6.137-16.873,8.313
			c-0.015-0.035-0.03-0.069-0.052-0.103c-1.415-1.942-3.448-5.715-3.909-6.024c-2.605-1.747-4.21,5.651-2.465,9.107
			c4.306,8.498,10.243,15.907,17.64,21.888c3.534,2.847,8.875,6.238,13.334,7.13c5.814,1.151,11.081-4.209,9.506-0.209
			c-1.577,4-9.792,19.983-8.018,31.166c1.129,7.108,6.211,12.56,11.964,16.449c2.699,1.846,5.274,2.691,7.741,2.6
			c2.46-0.096,5.679-1.646,9.351-2.886c3.668-1.245,9.834-2.504,11.451,1.989c1.237,3.478-0.808,6.28-1.789,7.991
			c-5.274,0.379-9.915,6.401-5.425,6.065c0.141-0.015,5.457,0.069,9.028,0.274c3.564,0.209,7.68,1.883,7.81,6.551
			c0.141,4.678-3.288,8.488-6.625,10.231c-1.558-1.622-3.266-3.108-5.038-4.473c-3.603-2.797-10.918-1.614-7.547,1.422
			c3.803,3.428,13.575,11.295,9.089,16.35c-4.486,5.06-10.423,0.439-11.985-0.286c-3.657-1.885-6.958-4.37-10.051-7.071
			c-7.285-6.559-13.474-14.305-18.887-22.465c-5.038-7.729-15.303-28.425-13.728-36.304c1.092-5.417,1.942-8.737,7.567-9.331
			c2.013-0.2-0.084-4.417-3.448-4.276c-3.406,0.143-7.105,2.13-9.721,7.655c-2.415,5.085-1.323,10.711,0,15.924
			c3.958,15.655,12.057,29.687,22.164,42.084c7.278,8.922,17.097,19.567,28.814,22.234c4.915,1.117,9.933,0.527,13.78-2.852
			c3.167-2.775,6.857-8.584,3.192-13.191c5.853-4.18,10.783-14.3,8.436-21.033c-0.786-2.25-2.218-3.909-4.005-5.109
			c-1.974-1.323-4.372-2.09-6.852-2.509c1.654-2.502,2.647-5.208,2.428-8.387c-0.234-3.396-3.347-5.977-6.211-7.268
			c-3.781-1.703-6.065-1.622-10.161-1.188c-2.906,0.306-7.599,2.536-11.017,3.078c-3.418,0.54-5.947-2.669-7.695-4.108
			c-1.311-1.215-2.484-2.514-3.517-3.968c-0.641-1.065-1.186-2.154-1.632-3.312c-0.377-1.279-0.624-2.583-0.754-3.924
			c-0.052-1.814,0.096-3.603,0.399-5.388c1.767-8.328,6.176-15.742,8.762-23.794c0.441-1.39,0.932-4.547-1.93-6.467
			c-2.859-1.917-7.81,0.624-12.547,1.013c-0.602,0.012-1.173-0.012-1.762-0.094c-0.831-0.242-1.619-0.592-2.408-0.966
			c-3.628-1.871-6.95-4.165-10.048-6.83c-3.201-2.926-6.038-6.154-8.572-9.651c9.928-3.783,18.788-9.265,26.613-16.094
			c0.224,0.069,16.077-0.197,18.877,0.057c2.807,0.254,5.642,1.523,4.456,5.277c-1.186,3.766-3.714,10.847-4.119,16.871
			c-0.458,6.642,2.982,13.292,8.106,16.974c11.195,8.017,27.094,4.301,39.804,3.362c2.889-0.163,5.745-0.185,8.609,0.251
			c2.783,0.626,5.37,1.669,7.939,2.906c6.467,3.214,12.722,6.216,20.193,5.437c6.142-0.646,12.705-2.765,17.972-6.043
			C687.884,451.042,691.613,444.173,688.638,436.442z"/>
	</g>
	<path fill="#FFFFFF" d="M198.172,272.479c-2.152,3.204-6.496,4.063-9.707,1.909c-3.203-2.149-4.052-6.498-1.901-9.703
		c2.152-3.205,6.496-4.061,9.697-1.909C199.47,264.929,200.327,269.272,198.172,272.479z"/>
	<path fill="#E19000" d="M420.049,67.675c-9.265-2.218-19.88-2.361-17.428-3.64c5.008-2.605,14.48-4.531,24.097-2.383
		c9.619,2.147,15.609,6.355,13.874,10.623C439.672,74.523,430.378,70.141,420.049,67.675z"/>
	<path fill="#E19000" d="M503.975,108.826c-10.27-7.081-24.208-10.312-17.62-12.015c7.11-1.84,19.35-2.571,30.769,5.281
		c11.414,7.852,12.87,23.826,7.096,21.264C521.437,122.118,514.353,115.981,503.975,108.826z"/>
	<path fill="#E19000" d="M384.211,138.669c-7.894-4.177-19.621-5.182-15.044-7.48c7.069-3.541,17.58-3.008,26.842,2.458
		c9.265,5.469,7.884,19.537,3.534,15.684C397.539,147.563,391.767,142.658,384.211,138.669z"/>
	<path fill="#E19000" d="M376.836,174.774c-2.361-1.984-5.134-3.244-2.615-3.634c2.302-0.354,7.722,2.181,7.527,6.367
		C381.657,179.687,379.39,176.914,376.836,174.774z"/>
	<path fill="#E19000" d="M350.953,157.766c-0.126-1.035-3.749-4.764-5.393-3.426C342.657,156.709,351.12,159.194,350.953,157.766z"
		/>
	<path fill="#E19000" d="M314.484,191.059c-6.127,6.227-33.894,35.026-48.12,46.511c-14.226,11.487-31.128,25.627-37.209,29.834
		c-6.085,4.211,24.969,0.77,53.428-23.091C311.045,220.45,336.934,168.203,314.484,191.059z"/>
	<path fill="#E19000" d="M174.937,109.823c4.907,3.294,11.838,10.614,10.857,18.252c-0.978,7.639-32.862-16.656-25.384-20.008
		C164.645,106.174,171.056,107.218,174.937,109.823z"/>
	<path fill="#E19000" d="M425.636,229.826c5.457,6.501,25.435,28.329,44.561,42.645c19.128,14.322-16.656,2.751-32.644-12.725
		C421.575,244.277,415.45,217.645,425.636,229.826z"/>
	<path fill="#E19000" d="M502.057,296.527c8.165,5.484,27.651,15.308,40.048,20.666c12.397,5.361-14.066,4.185-30.28-4.331
		C495.62,304.352,481.386,282.653,502.057,296.527z"/>
	<path fill="#E19000" d="M519.199,372.933c7.579-7.877,16.23-14.894,25.046-19.638c8.816-4.747,17.75-5.267,20.343-3.828
		c2.588,1.437-13.176,22.27-28.018,34.234c-14.842,11.958-37.605,26.902-34.581,17.083
		C505.025,390.964,510.371,382.111,519.199,372.933z"/>
	<path fill="#E19000" d="M676.623,221.419c0,0,31.619,9.598,27.153,43.408c-3.84,29.124-40.76,50.568-40.76,50.568
		s32.772-26.303,31.767-53.936C693.779,233.826,676.623,221.419,676.623,221.419z"/>
	<path fill="#E19000" d="M575.2,507.998c4.17,4.367,4.323,15.648-6.162,5.652C558.571,503.648,564.935,497.257,575.2,507.998z"/>
</g>
</svg>
