<?xml version="1.0" encoding="utf-8"?>
<!-- Generator: Adobe Illustrator 17.0.0, SVG Export Plug-In . SVG Version: 6.00 Build 0)  -->
<!DOCTYPE svg PUBLIC "-//W3C//DTD SVG 1.1//EN" "http://www.w3.org/Graphics/SVG/1.1/DTD/svg11.dtd">
<svg version="1.1" id="Layer_1" xmlns="http://www.w3.org/2000/svg" xmlns:xlink="http://www.w3.org/1999/xlink" x="0px" y="0px"
	 width="800px" height="600px" viewBox="0 0 800 600" enable-background="new 0 0 800 600" xml:space="preserve">
<g>
	<path d="M522.371,457.485c0.815,2.664,0.774,5.616-1.413,7.52c-0.426-0.421-3.489-3.491-4.547-4.959
		c-0.895,1.447-1.362,5.496-1.33,6.522c-1.563-0.252-3.22-1.699-4.033-2.849c-0.028-1.398-2.185-7.922-3.136-9.335
		c-0.117-0.166-3.785,4.547-4.187,5.424c-1.788-0.315-3.611-0.129-5.363,0.402c-0.425-0.647-4.103-5.323-5.316-6.782
		c-0.895,2.274-1.935,7.747-2.316,11.123c-1.963,1.48-4.779,3.213-8.053,2.942c-0.404-1.164-2.723-7.38-4.141-9.237
		c-1.199,1.444-2.813,5.789-3.232,6.7c-0.904-0.434-1.797-0.843-2.68-1.147c-1.26-0.432-2.624-0.851-4.02-1.243
		c-0.264-1.04-2.129-6.562-2.846-8.036c-1.243,1.033-3.286,5.882-3.473,6.648c-1.115-0.159-2.225-0.278-3.318-0.318
		c-1.823-14.316-10.892-26.107-21.59-35.705c-7.952-7.137-14.988-12.213-22.752-19.35c22.789-2.839,23.02-61.506,49.79-50.511
		c0.308,2.08,1.138,4.402,1.701,6.503c1.141,4.26,0.505,9.96,0.25,14.224c-0.175,2.886-0.059,7.13,3.596,7.703
		c-0.093,2.185,0.689,7.962,0.898,9.499c2.659-1.584,5.831-7.621,5.518-10.783c8.378-4.113-5.742-27.673-5.31-29.646
		c0.434-1.972,6.015,7.894,8.135,12.313c1.423,2.965,2.501,7.761,4.751,10.271c1.706,1.907,3.281,2.393,5.008,1.925
		c0.648,2.264,2.164,6.333,3.208,7.447c1.715-2.458,4.246-9.848,1.912-12.603c2.879-5.394-3.419-9.929-7.046-13.458
		c3.723,0.771,6.697,2.211,9.63,0.257c0.493,1.889,2.398,5.396,3.208,6.548c1.115-1.397,2.112-4.603,1.776-7.569
		c-0.159-1.428-1.148-3.667-2.739-3.994c-0.76-3.09-3.763-3.578-7.064-2.75c-4.384,1.103-8.263,0.475-12.306-1.306
		c-3.936-4.267-9.34-7.674-13.64-2.884c-31.368-10.644-36.327,40.779-59.065,51.551c-10.361-12.222-21.071-36.948-17.688-45.782
		c4.207-10.986,24.748-19.094,37.787-24.229c15.424-6.076,27.907-10.114,41.136-17.531c24.504-13.734,39.019-27.977,46.279-55.391
		c6.543-24.722,5.145-47.639-12.428-69.15c-17.022-20.836-44.134-31.822-75.527-33.963c-3.451-5.464-3.994-21.402-2.58-27.446
		c16.082-5.53,14.397-28.32,5.37-36.479c0.289-0.377,0.624-0.712,1.114-0.971c1.141-0.6,2.208-0.212,3.354,0.104
		c0.217,0.06,0.323-0.204,0.234-0.363c-1.077-1.948-4.258-1.221-5.716,0.393c-0.032-0.024-0.065-0.052-0.094-0.075
		c-1.503-1.086-3.08-1.908-4.695-2.512c0.049-0.28,0.082-0.569,0.182-0.874c0.271-0.829,0.902-1.488,1.585-1.995
		c1.264-0.932,3.251-1.414,4.784-0.986c0.444,0.124,0.65-0.512,0.222-0.678c-1.989-0.773-3.926-0.627-5.781,0.451
		c-1.019,0.594-2.428,2.151-2.575,3.568c-1.853-0.517-3.743-0.759-5.616-0.727c-0.094-0.39-0.084-0.806,0.017-1.325
		c0.187-0.981,0.795-2.018,1.533-2.68c0.316-0.283-0.072-0.74-0.414-0.503c-1.173,0.81-2.508,2.882-2.405,4.569
		c-2.267,0.181-4.491,0.731-6.58,1.619c-0.32-0.672-0.516-1.369-0.491-2.314c0.044-1.737,0.933-3.582,2.554-4.332
		c0.446-0.205,0.095-0.845-0.344-0.666c-1.886,0.773-3.082,2.544-3.409,4.543c-0.168,1.022-0.15,2.343,0.25,3.445
		c-1.888,0.972-3.646,2.209-5.181,3.703c-1.002-0.417-1.489-1.115-1.839-2.322c-0.437-1.5-0.481-3.037,0.117-4.506
		c0.086-0.212-0.213-0.452-0.358-0.239c-1.309,1.898-1.57,7.083,0.834,8.394c-1.725,1.993-3.098,4.324-3.97,6.936
		c-1.75,5.25-1.676,12.977,1.161,18.08c3.701,6.657,9.345,8.674,14.232,9.346c0.551,7.575,2.807,20.7-3.299,26.754
		c-36.953,1.913-75.217,15.979-98.52,44.067c-18.033,21.739-21.836,54.048-15.426,80.871c3.07,12.855,10.006,23.07,20.1,31.55
		c14.549,12.224,34.647,20.095,40.468,35.583c8.148,21.682-6.69,41.412-21.523,56.711c-2.021-3.687-4.686-6.351-8.053-9.05
		c-6.501-5.209-12.107-11.142-15.255-18.887c-4.657-11.46-24.075-17.139-20.083-28.634c1.304-3.753,6.982-10.28,7.489-17.206
		c0.435-5.941-7.782-10.944-12.352-13.1c-3.22-1.514-6.087-0.897-7.71,1.184c-3.042-1.608-8.59,0.565-9.104,4.075
		c2.23,0.009,5.539-0.087,7.752,0.246c0.115,2.327,1.694,3.625,3.398,4.052c1.255,0.318,2.631,0.334,3.912,0.505
		c3.066,0.409,5.973,2.521,4.725,5.48c-2.141-3.042-8.179-4.658-11.308-5.396c-4.391-1.035-12.696-1.376-14.089,2.905
		c-6.711,0.393-8.621,7.218-7.84,9.244c2.337-0.933,5.854-2.316,8.216-2.438c0.287,0.512,2.26,1.444,3.725,1.412
		c2.737-0.063,5.403-1.634,8.086-2.054c2.779-0.44,4.426,0.147,5.718,1.64c-6.573-1.169-15.802,4.353-15.178,10.348
		c-4.737,4.394-3.197,11.114-1.451,14.201c0.857-1.636,3.491-6.375,5.134-8.218c0.921,0.563,2.5,0.219,3.468-0.383
		c1.762-1.096,2.374-2.75,3.594-4.367c0.983-1.297,1.96-2.05,3.466-2.566c2.368-0.806,3.251-0.07,4.365,1.797
		c-5.074,17.812,10.666,17.396,16.821,29.912c2.276,4.637,3.667,10.759,7.445,14.638c7.775,7.983,13.412,9.869,17.074,17.973
		c-10.944,11.53-29.298,25.518-35.895,48.548c-4.174,14.575,0.921,24.488,9.492,31.074c-2.426,0.161-4.686,0.236-7.141,0.86
		c-3.111,0.792-5.588,2.21-8.882,2.299c-3.755,0.105-7.836,1.467-10.1,4.51c-1.926,2.584-1.813,6.88-0.236,10.104
		c0.126,2.771,2.311,8.604,5.038,9.812c0.664-0.467,1.589-1.089,1.877-1.486c1.019,1.837,2.342,3.479,4.199,4.641
		c1.091,4.208,6.562,6.872,10.596,7.245c0.264-1.162-0.11-4.095-0.51-5.579c1.554-0.476,2.963-1.371,4.054-2.795
		c1.157,1.884,2.895,3.652,5.043,4.307c1.503,4.239,5.889,5.663,9.202,5.538c0.414-1.092,0.689-4.34,0.094-5.921
		c2.201-1.049,6.961-4.548,4.012-12.418c2.675-3.914,11.633-7.427,17.744-8.96c6.784,0.982,13.381,1.517,19.022,1.907
		c18.609,1.283,36.916,0.673,55.222-2.514c2.688,1.93,6.464,4.877,8.712,8.132c-1.044,2.148-1.003,4.289-0.281,6.144
		c-1.834,1.313-3.18,4.751-3.33,6.744c1.655,0.44,5.237,0.276,8.646-1.767c2.374,0.79,6.789,0.32,9.501-3
		c0.211,0.486,0.531,0.886,0.858,1.278c-0.858,1.086-2.248,3.103-2.535,4.248c2.708,0.849,7.705,0.449,9.771-1.986
		c2.117-0.346,4.108-1.419,5.407-3.229c1.267,0.189,4.599-0.507,6.303-2.743c4.361-1.624,5.281-7.538,4.337-11.042
		c-1.766-6.567-8.452-10.495-14.72-12.25c4.659-2.321,8.981-5.239,12.25-8.894c6.775-0.128,11.346,2.21,17.347,5.796
		c3.823,2.29,7.66,3.131,12.012,2.486c4.006-0.594,7.555-3.909,10.52-6.363c6.882-5.692,11.593-2.316,18.604,0.657
		C527.095,490.33,540.738,463.077,522.371,457.485z"/>
	<path fill="#B68100" d="M499.296,355.756c1.645,1.433,1.437,4.714,0.388,6.466c-0.558-1.192-1.115-2.729-1.708-4.517
		C498.221,357.537,498.988,356.633,499.296,355.756z"/>
	<path fill="#B68100" d="M276.415,318.556c-1.916-0.283-4.166-0.178-6.078,0.079c1.248-2.337,4.286-3.04,6.781-2.258
		C276.878,316.88,276.538,317.946,276.415,318.556z"/>
	<path fill="#B68100" d="M257.028,333.879c-0.481-1.844,2.248-4.884,5.674-5.33c-0.362,1.379-0.283,2.8,0.22,3.982
		C261.223,332.348,258.809,333.203,257.028,333.879z"/>
	<path fill="#B68100" d="M472.254,388.762c-0.004-1.75-0.033-3.496-0.105-5.246c1.066-0.117,1.928-0.383,2.695-0.717
		C474.411,385.056,474.009,387.209,472.254,388.762z"/>
	<path fill="#B68100" d="M493.251,376.576c-0.079,1.339-0.522,2.653-1.15,3.853c-0.199-0.474-0.435-0.925-0.615-1.407
		c-0.351-0.946-0.475-1.993-0.76-2.961c0.825-0.475,1.582-1.154,2.211-1.972C493.129,374.881,493.304,375.676,493.251,376.576z"/>
	<path fill="#FFD40D" d="M488.016,353.247c1.087,0.044,2.208-0.257,3.264-0.483c2.278-0.489,4.426-1.12,6.064,1.308
		c0.58,0.86,0.766,1.97-0.175,2.622c-3.452,2.384-8.758-0.178-12.546-0.568c-0.689-0.661-1.288-1.308-1.699-1.933
		c-0.512-0.774-1.115-1.605-1.781-2.44C483.303,352.627,485.516,353.142,488.016,353.247z"/>
	<path fill="#FFD40D" d="M464.946,348.381c-0.079,0.755,0.128,2.07,0.683,1.341c6.49-8.513,11.724,0.42,16.68,6.632
		c4.954,6.212,10.467,8.303,10.885,12.352c0.42,4.048-5.164,8.375-8.095,4.538c-1.367-1.794-2.372-5.445-3.837-8.445
		c-1.467-3.001-4.15-7.181-6.212-10.68c-2.304-3.907-6.281-5.721-5.583-1.881c0.699,3.837,2.515,8.001,3.8,11.523
		c1.322,3.625,6.067,13.488,1.921,16.576c-4.206,3.134-6.354-1.568-6.277-4.721c0.054-2.409,0.388-6.419,0.138-8.822
		c-0.559-5.345-2.493-10.471-3.648-15.421c-0.129-0.561-1.171,1.206-1.159,1.778c-26.738-13.198-30.992,49.727-53.106,49.843
		c-1.134-1.094-2.251-2.213-3.339-3.367C433.95,391.305,431.873,340.98,464.946,348.381z"/>
	<path fill="#FFD40D" d="M399.673,113.74c-2.465-5.837-1.526-14.171,2.629-19.668c5.992-7.935,20.242-9.828,26.142-0.917
		c3.437,5.194,4.433,12.509,2.916,18.407c-1.815,7.064-6.176,9.238-12.261,11.157c-0.657,0.207,1.161,1.16,2.007,1.35
		c-2.433,8.484-1.335,21.799,1.306,28.263c-3.12-0.112-6.251-0.163-9.401-0.089c4.274-7.285,1.935-22.5,1.507-28.73
		C409.02,122.962,402.428,120.258,399.673,113.74z"/>
	<path fill="#B68100" d="M264.702,355.618c-1.127-2.867-0.584-6.618,1.587-8.793c0.348,0.972,0.982,2.071,1.778,2.972
		C266.596,351.56,265.675,353.555,264.702,355.618z"/>
	<path fill="#FFD40D" d="M306.243,380.623c-1.636-4.047-2.699-7.497-5.692-10.722c-7.029-7.576-17.375-10.037-14.599-24.014
		c0.009-0.038-0.023-0.059-0.023-0.1c0.248-2.423-1.94-4.085-4.318-3.882c-3.721,0.316-5.852,2.398-7.829,5.387
		c-0.645,0.974-1.75,3.122-3.459,2.019c-1.29-0.843-2.141-2.421-2.456-3.879c-0.502-2.307,1.292-4.354,2.902-5.704
		c2.83-2.367,7.445-3.919,11.18-3.167c0.666,1.049,1.276,2.216,1.961,3.381c0.43,0.731,1.47,0.182,1.435-0.547
		c-0.411-8.469-7.772-9.345-14.337-7.055c-3.068,1.068-6.578,2.136-6.289-2.585c0.269-4.415,4.996-4.638,8.189-4.342
		c4.283,0.398,13.558,2.494,14.881,6.544c-0.051,0.453-0.168,2.599-0.234,3.04c-0.142,0.954,1.404,0.315,1.773-0.497
		c1.734-3.79,2.365-8.226-1.355-10.661c-1.442-0.939-3.391-1.141-5.041-1.397c-1.835-0.278-4.51-0.687-3.923-3.751
		c0.881-4.603,4.485-3.58,6.366-2.626c2.398,1.213,6.142,3.777,8.104,5.608c3.584,3.351,2.435,7.522,1.101,11.336
		c-1.297,3.722-4.272,5.97-6.169,13.594c-1.891,7.628,7.845,14.005,14.072,19.366c5.484,4.718,7.646,11.568,11.418,17.515
		c4.859,7.653,14.113,11.002,17.674,19.851c-0.809,0.809-1.61,1.605-2.395,2.368C323.732,395.17,310.825,391.98,306.243,380.623z"/>
	<path fill="#B68100" d="M277.896,514.108c-1.297-0.624-3.117-3.66-3.587-6.095c1.127,1.264,2.578,2.106,4.304,2.145
		c0.038,0.86,0.372,1.984,0.647,2.783C278.999,513.434,278.242,513.979,277.896,514.108z"/>
	<path fill="#FFD40D" d="M279.184,506.62c-2.066-0.302-3.69-2.528-3.858-5.366c-0.313-5.181,4.903-6.01,8.169-6.718
		c3.737-0.815,6.856-2.979,10.645-3.846c2.533-0.577,4.674-0.851,6.387-1.629c1.701,1.208,3.346,2.171,5.293,3.162
		c-5.136,0.706-9.731,4.512-14.75,5.887C285.987,499.505,280.991,501.528,279.184,506.62z"/>
	<path fill="#B68100" d="M285.356,519.424c2.383,1.222,5.068,1.787,7.515,1.397c0.295,0.963,0.645,2.442,0.638,3.604
		C290.422,523.962,286.975,522.161,285.356,519.424z"/>
	<path fill="#FFD40D" d="M297.017,515.634c-4.02,2.341-8.737,1.654-12.402-1.4c-5.915-4.935,0.393-10.297,5.073-12.133
		c6.424-2.517,11.728-6.929,18.377-8.796c2.119,0.96,4.332,1.82,6.625,2.578C296.017,501.947,295.117,511.172,297.017,515.634z"/>
	<path fill="#B68100" d="M311.265,525.923c-2.388-0.035-5.284-0.638-6.812-3.449c2.136,0.589,4.384,0.482,6.483-0.199
		C311.299,522.932,311.533,524.918,311.265,525.923z"/>
	<path fill="#FFD40D" d="M312.994,509.511c3.068,6.151-1.526,10.757-7.63,9.256c-8.672-2.133-9.551-15.991,14.101-21.447
		c3.349,0.899,6.791,1.626,10.229,2.227C321.507,501.211,314.903,503.877,312.994,509.511z"/>
	<path fill="#B68100" d="M419.543,518.272c-1.278,0.829-2.884,1.398-4.426,1.262c0.218-1.846,1.161-3.244,2.243-4.645
		c0.65,1.189,1.596,2.208,2.736,2.977C419.911,518.008,419.733,518.153,419.543,518.272z"/>
	<path fill="#FFD40D" d="M424.007,514.963c-3.132-0.117-5.893-3.227-3.72-6.214c0.437-0.605,0.617-1.362,0.122-1.972
		c-2.134-2.626-5.733-5.462-9.233-7.656c3.089-0.57,5.774-1.14,8.842-1.849c2.667,1.505,10.441,6.317,10.775,10.042
		C431.23,512.215,427.86,515.113,424.007,514.963z"/>
	<path fill="#B68100" d="M431.702,520.398c0.15-0.671,0.769-1.772,1.425-2.619c1.033,0.939,2.757,1.696,3.875,1.718
		C435.916,520.209,433.431,520.669,431.702,520.398z"/>
	<path fill="#FFD40D" d="M432.88,514.213c1.655-3.087,1.916-6.985-0.014-9.964c-2.119-3.269-8.252-6.426-10.006-7.639
		c0.458-0.117,4.713-1.222,6.455-1.758c5.609,2.86,11.047,4.099,14.206,10.813C447.352,513.79,436.668,519.536,432.88,514.213z"/>
	<path fill="#B68100" d="M445.889,515.239c0.371-0.729,0.652-1.451,0.867-2.161c0.727,0.54,1.624,0.778,2.566,0.799
		C448.666,514.972,446.873,515.384,445.889,515.239z"/>
	<path fill="#956500" d="M500.28,357.446c-0.187-0.664-0.496-1.262-0.984-1.69c-0.308,0.878-1.075,1.781-1.32,1.949
		c0.278,0.836,0.547,1.612,0.811,2.328C499.268,359.157,499.762,358.294,500.28,357.446z"/>
	<path fill="#956500" d="M274.171,316.146c-0.166,0.76-0.353,1.517-0.566,2.269c0.963-0.012,1.925,0.011,2.811,0.142
		c0.122-0.61,0.463-1.676,0.703-2.18C276.169,316.079,275.146,316.004,274.171,316.146z"/>
	<path fill="#956500" d="M262.702,328.55c-0.871,0.114-1.687,0.407-2.426,0.794c0.252,1.11,0.434,2.23,0.565,3.354
		c0.745-0.152,1.461-0.233,2.082-0.166C262.419,331.35,262.34,329.929,262.702,328.55z"/>
	<path fill="#956500" d="M472.642,386.203c0.516-0.226,1.031-0.442,1.554-0.633c0.276-0.881,0.465-1.816,0.648-2.771
		c-0.767,0.334-1.629,0.6-2.695,0.717c0.038,0.899,0.063,1.799,0.079,2.697C472.366,386.213,472.504,386.204,472.642,386.203z"/>
	<path fill="#956500" d="M493.251,376.01c-0.028-0.675-0.166-1.299-0.315-1.921c-0.629,0.818-1.386,1.496-2.211,1.972
		c0.224,0.757,0.351,1.563,0.565,2.332C491.875,377.532,492.529,376.739,493.251,376.01z"/>
	<path fill="#956500" d="M266.88,351.459c0.362-0.57,0.745-1.129,1.187-1.662c-0.795-0.9-1.43-2-1.778-2.972
		c-0.545,0.545-0.988,1.194-1.327,1.898C265.595,349.641,266.23,350.554,266.88,351.459z"/>
	<path fill="#956500" d="M278.083,514.007c0.379-0.203,0.951-0.642,1.177-1.066c-0.275-0.799-0.608-1.923-0.647-2.783
		c-0.795-0.018-1.533-0.208-2.208-0.531C276.828,511.137,277.422,512.582,278.083,514.007z"/>
	<path fill="#956500" d="M293.465,523.698c-0.094-1.007-0.358-2.106-0.594-2.877c-1.486,0.236-3.056,0.115-4.596-0.283
		C289.854,521.849,291.598,522.878,293.465,523.698z"/>
	<path fill="#956500" d="M309.176,525.715c0.71,0.136,1.418,0.199,2.089,0.208c0.267-1.005,0.033-2.991-0.329-3.648
		c-1.33,0.432-2.72,0.631-4.103,0.572C307.57,523.845,308.348,524.81,309.176,525.715z"/>
	<path fill="#956500" d="M418.186,516.098c-0.572,1.101-1.103,2.223-1.606,3.361c1.058-0.178,2.089-0.621,2.963-1.187
		c0.191-0.119,0.369-0.264,0.552-0.406C419.368,517.374,418.728,516.771,418.186,516.098z"/>
	<path fill="#956500" d="M432.866,520.469c1.545-0.01,3.277-0.407,4.136-0.972c-0.855-0.018-2.063-0.467-3.047-1.094
		C433.586,519.088,433.219,519.775,432.866,520.469z"/>
	<path fill="#956500" d="M445.889,515.239c0.371-0.729,0.652-1.451,0.867-2.161c0.727,0.54,1.624,0.778,2.566,0.799
		C448.666,514.972,446.873,515.384,445.889,515.239z"/>
	<path fill="#FFD40D" d="M453.223,501.451c1.989,5.389-1.306,10.635-6.024,9.378c0.685-7.772-6.873-13.706-15.624-16.739
		c2.08-0.715,4.756-1.694,6.826-2.604C445.219,493.265,451.86,497.759,453.223,501.451z"/>
	<path fill="#FFD40D" d="M451.612,471.389c-4.302,12.965-21.969,16.884-33.679,19.997c-8.025,2.133-16.192,3.51-24.421,4.384
		c22.673-5.735,32.067-18.082,30.419-28.97c-0.114-0.753-1.206-0.556-1.29,0.177c-1.336,11.47-10.775,17.398-20.614,21.35
		c-11.85,4.762-24.205,9.172-37.145,7.957c-22.277-2.098-57.676-14.278-51.246-42.917c0.072-0.325-0.414-0.439-0.498-0.124
		c-6.34,24.215,15.349,37.17,35.955,43.283c-0.362-0.018-0.725-0.028-1.087-0.045c-15.092-0.753-31.716-1.624-44.814-9.911
		c-25.21-15.958-1.026-48.273,13.014-62.165c16.891-16.713,52.514-42.872,43.536-75.89c-6.894-25.362-27.888-30.734-44.525-45.462
		c-23.402-20.716-21.878-70.784-5.218-97.081c24.516-38.692,78.923-50.601,121.501-47.334c25.551,1.959,49.196,11.748,66.248,31.275
		c19.945,22.842,17.637,54.916,5.387,80.185c-5.728,11.813-14.493,21.27-24.693,29.061c-13.094,10-28.592,16.391-43.803,22.271
		c-15.003,5.8-34.383,11.794-45.534,24.57c-5.795,1.851-13.367,2.412-17.003,1.339c-0.296-0.084-0.4,0.362-0.117,0.46
		c3.295,1.175,8.752,2.157,13.935,1.255c-0.264,0.727-0.832,2.973-0.843,3.028c-3.951,1.694-10.497,1.454-14.054,0.021
		c-0.287-0.113-0.526,0.276-0.24,0.432c2.893,1.556,8.242,3.578,13.925,1.942c-0.107,1.038-0.128,2.096-0.114,3.157
		c-2.919,0.972-7.824,1.129-10.027,0.538c-0.285-0.077-0.388,0.343-0.115,0.437c3.015,1.058,7.034,1.794,10.175,0.495
		c0.03,0.502,0.129,1.01,0.182,1.515c-2.902,1.103-6.793,1.157-8.532,0.769c-0.296-0.063-0.409,0.374-0.117,0.461
		c2.223,0.668,6.527,1.365,8.779-0.156c0.185,1.339,0.447,2.689,0.764,4.036c-3.405,1.6-8.89,1.523-11.513,0.972
		c-0.301-0.063-0.409,0.369-0.119,0.46c3.003,0.921,8.726,1.781,12.03,0.023c0.135,0.507,0.303,1.012,0.453,1.516
		c-2.465,1.514-7.413,1.965-9.576,1.804c-0.257-0.019-0.294,0.344-0.058,0.444c1.402,0.589,5.765,1.526,10.072-0.778
		c2.402,7.356,6.233,14.467,9.544,20.069c11.553,19.539,31.997,29.333,46.688,45.955
		C451.743,445.836,455.709,459.028,451.612,471.389z"/>
	<path fill="#FF6000" d="M516.683,462.757c1.038,0.664,2.552,2.386,2.966,3.213c-0.621,0.967-2.411,1.173-3.433,0.804
		C516.328,465.734,516.481,463.764,516.683,462.757z"/>
	<path fill="#FF6000" d="M507.59,456.391c0.621,1.517,1.517,4.618,1.517,6.064c-0.627-0.386-3.566-2.12-4.066-2.272
		C505.61,459.006,506.765,457.148,507.59,456.391z"/>
	<path fill="#FF6000" d="M493.431,456.464c0.996,0.961,2.65,3.098,3.134,4.407c-0.519,0.231-3.62,2.003-4.435,2.617
		C492.291,461.63,492.844,458.528,493.431,456.464z"/>
	<path fill="#FF6000" d="M478.51,460.457c0.617,0.967,2.237,4.721,2.412,6.618c-1.241-0.138-3.202-0.928-4.55-1.587
		C476.69,464.143,477.752,461.422,478.51,460.457z"/>
	<path fill="#FF6000" d="M465.346,456.391c0.621,1.517,1.239,3.928,1.379,5.585c-0.926-0.211-2.444-0.54-3.377-0.69
		C463.556,459.906,464.517,457.77,465.346,456.391z"/>
	<path fill="#FFD40D" d="M512.798,481.202c-4.596-1.603-8.903-5.695-14.154-5.013c-4.029,0.524-6.642,2.461-9.701,5.039
		c-6.915,5.831-12.722,4.456-20.315,0.346c-4.505-2.44-8.834-3.396-13.421-2.51c2.514-3.534,4.069-7.677,4.113-12.565
		c0.007-0.519-0.028-1.024-0.044-1.535c1.556,0.404,3.239,0.551,5.171,0.832c5.001,0.724,9.415,2.889,14.103,4.637
		c4.398,1.638,8.502,0.741,12.435-1.615c1.381-0.829,2.668-2.009,3.947-2.984c5.165-3.923,11.121-1.794,15.776,1.743
		c8.564,6.508,17.311,0.738,13.393-8.137c2.645,2.598,4.671,4.861,4.629,9.23C528.655,476.767,520.707,483.964,512.798,481.202z"/>
	<path fill="#F5AC05" d="M494.337,352.323c-0.021,0-0.044-0.004-0.063-0.004c0.867,1.502,1.869,2.947,2.912,4.361
		c0.059-0.044,0.105-0.093,0.156-0.142C496.314,355.151,495.298,353.753,494.337,352.323z"/>
	<path fill="#F5AC05" d="M487.425,353.197c-2.255-0.156-4.297-0.642-6.282-1.444c0.666,0.836,1.269,1.666,1.781,2.44
		c0.411,0.626,1.01,1.272,1.699,1.933c1.543,0.159,3.34,0.676,5.159,1.077C488.93,355.903,488.156,354.558,487.425,353.197z"/>
	<path fill="#F5AC05" d="M418.604,392.639c-3.038,3.155-6.544,5.632-10.808,6.987c1.087,1.154,2.204,2.272,3.339,3.367
		c4.335-0.023,7.981-2.465,11.248-6.268C421.048,395.439,419.784,394.069,418.604,392.639z"/>
	<path fill="#F5AC05" d="M487.261,369.123c-1.835-3.176-3.8-6.178-5.971-9.137c-1.972-2.688-4.959-7.845-8.702-8.813
		c0.857,0.704,1.739,1.722,2.461,2.945c2.063,3.5,4.746,7.679,6.212,10.68c1.465,3,2.47,6.651,3.837,8.445
		c1.732,2.267,4.384,1.674,6.183-0.016C489.706,372.362,488.387,371.072,487.261,369.123z"/>
	<path fill="#F5AC05" d="M421.798,388.87c-0.531,0.705-1.075,1.392-1.64,2.052c1.141,1.404,2.365,2.755,3.66,4.015
		c0.655-0.869,1.299-1.797,1.932-2.764C424.404,391.104,423.091,389.992,421.798,388.87z"/>
	<path fill="#F5AC05" d="M421.287,92.535c-7.992-1.769-14.012,4.717-16.823,11.474c-0.166,0.401-0.484,0.627-0.825,0.715
		c-0.504,6.551,4.256,14.538,10.836,15.454c6.759,0.94,13.287-4.25,14.918-10.757C430.914,103.362,428.368,94.104,421.287,92.535z"
		/>
	<path fill="#F5AC05" d="M415.521,139.714c-0.012,1.045-0.052,2.083-0.126,3.102c1.634,0.264,3.236,0.303,4.828,0.163
		c-0.149-1.191-0.253-2.423-0.332-3.667C418.469,139.643,417.008,139.792,415.521,139.714z"/>
	<path fill="#F5AC05" d="M415.125,145.424c-0.372,2.599-1.028,4.966-2.115,6.819c3.15-0.074,6.281-0.023,9.401,0.089
		c-0.738-1.808-1.349-4.164-1.804-6.788C418.684,145.853,416.875,145.775,415.125,145.424z"/>
	<path fill="#F5AC05" d="M323.47,393.175c-0.832,1.066-1.724,2.071-2.675,3.008c3.286,2.688,6.352,5.594,8.385,9.52
		c0.785-0.764,1.586-1.559,2.395-2.368C329.84,399.017,326.746,396.011,323.47,393.175z"/>
	<path fill="#F5AC05" d="M316.387,392.679c0.883,0.704,1.778,1.402,2.664,2.104c0.981-0.94,1.89-1.963,2.736-3.054
		c-0.82-0.698-1.638-1.398-2.437-2.117C318.429,390.693,317.45,391.723,316.387,392.679z"/>
	<path fill="#F5AC05" d="M277.759,340.373c-0.276,0.143-0.552,0.287-0.825,0.439c-2.849,2.44-5.564,6.109-8.305,6.609
		c0.428,0.755,0.993,1.432,1.694,1.889c1.71,1.103,2.814-1.045,3.459-2.019c1.977-2.989,4.108-5.071,7.829-5.387
		c0.308-0.026,0.615-0.019,0.911,0.016C281.521,340.602,279.591,340.184,277.759,340.373z"/>
	<path fill="#F5AC05" d="M278.292,329.086c-2.138,0.164-4.251,0.379-6.349,0.837c-2.426,0.533-4.907,1.087-7.233,0.456
		c0.061,3.98,3.377,2.977,6.298,1.96c5.63-1.963,11.831-1.582,13.745,3.9C286.146,332.105,282.689,328.749,278.292,329.086z"/>
	<path fill="#F5AC05" d="M290.581,327.721c0.579-3.222-0.262-6.478-4.185-7.202c-2.641-0.488-5.428,0.154-7.461-1.197
		c-0.119,2.488,2.297,2.865,3.996,3.12c1.65,0.255,3.599,0.458,5.041,1.397C289.516,324.851,290.303,326.211,290.581,327.721z"/>
	<path fill="#F5AC05" d="M298.795,494.719c2.29-1.133,4.596-2.162,7.025-2.496c-1.947-0.991-3.592-1.954-5.293-3.162
		c-1.713,0.778-3.854,1.052-6.387,1.629c-0.657,0.15-1.292,0.35-1.917,0.566C294.409,492.417,296.608,493.56,298.795,494.719z"/>
	<path fill="#F5AC05" d="M306.696,499.187c2.21-1.166,4.844-2.278,7.994-3.304c-2.293-0.759-4.506-1.619-6.625-2.578
		c-2.384,0.668-4.594,1.668-6.744,2.786C303.134,497.083,304.932,498.104,306.696,499.187z"/>
	<path fill="#F5AC05" d="M315.756,505.333c3.101-2.905,8.114-4.603,13.939-5.786c-3.438-0.601-6.88-1.329-10.229-2.227
		c-4.118,0.947-7.478,2.157-10.196,3.512C311.482,502.271,313.644,503.772,315.756,505.333z"/>
	<path fill="#F5AC05" d="M425.056,500.525c-1.959-1.44-3.936-2.631-5.038-3.253c-3.068,0.71-5.753,1.279-8.842,1.849
		c2.019,1.266,4.062,2.748,5.849,4.279C419.705,502.421,422.378,501.451,425.056,500.525z"/>
	<path fill="#F5AC05" d="M434.799,497.441c-1.757-0.858-3.608-1.633-5.484-2.589c-1.743,0.537-5.997,1.641-6.455,1.758
		c0.87,0.601,2.823,1.687,4.83,3.024C430.052,498.848,432.42,498.107,434.799,497.441z"/>
	<path fill="#F5AC05" d="M446.48,494.885c-2.414-1.435-5.227-2.657-8.078-3.4c-2.07,0.911-4.746,1.889-6.826,2.604
		c2.071,0.717,4.071,1.605,5.917,2.632C440.461,495.966,443.454,495.335,446.48,494.885z"/>
	<path fill="#F5AC05" d="M468.562,207.925c2.367-19.948-23.467-29.046-37.381-16.326c-4.04-11.919-13.72-16.276-23.446-15.592
		c-10.565,0.743-17.629,17.512-16.903,21.275c-3.333-9.131-12.888-20.219-26.08-15.727c-9.481,3.229-11.827,12.406-12.296,21.351
		c0.168,0.096-2.372,2.101-2.346,1.327c-11.757-7.06-25.138-6.759-32.81,4.481c-5.999,8.786-7.971,20.495-5.356,30.531
		c2.657,10.21,7.947,18.23,22.277,14.077c8.562-2.482,19.034-8.399,21.494-17.655c0.372-1.404,2.514-0.837,2.222,0.544
		c11.918,3.608,24.588-1.026,32.861-15.68c5.466,6.282,14.134,10.319,30.172,3.646c7.95,7.174,18.919,10.939,28.996,5.896
		c0.063-0.033,2.65-0.829,2.386,0.594c-0.642,3.465-1.162,9.579-0.636,12.888c0.717,4.527,3.193,5.994,8.158,8.3
		c9.385,4.368,21.114,6.254,28.629-2.192c6.314-7.099,10.553-19.036,5.171-27.729C488.628,213.784,482.101,211.149,468.562,207.925z
		"/>
	<path fill="#F5AC05" d="M340.777,256.423c-0.122,0.246-0.355,0.444-0.717,0.523c-6.204,1.353-9.974,8.085-10.925,14.075
		c-0.033,2.445,0.395,4.971,1.482,6.875c3.818,6.684,9.474-3.25,11.013-6.803c2.138-4.929,3.136-9.901,3.267-15.253
		C343.506,255.89,342.118,256.089,340.777,256.423z"/>
	<path fill="#F5AC05" d="M359.761,271.914c-0.128,5.108-0.154,10.219-0.157,15.328c5.132,2.024,9.235,6.429,14.795,7.427
		c2.849,0.51,5.748,0.841,8.639,1.019c1.14,0.072,5.12,0.759,6.394-0.033c1.117-4.992,0.895-10.261,0.843-15.372
		C379.44,281.035,368.756,278.063,359.761,271.914z"/>
	<path fill="#F5AC05" d="M438.453,280.212c-9.813-4.269-19.534-5.414-29.715-3.01c0.297,0.061,0.591,0.126,0.902,0.163
		c1.451,0.168,1.467,2.463,0,2.293c-0.676-0.079-1.306-0.219-1.928-0.383c-3.379,8.308-4.945,17.494-4.707,26.465
		c5.525,3.014,13.89,4.033,20.06,2.29c-0.329-2.431-0.573-4.866-0.781-7.315c-0.059-0.706,0.785-1.353,1.453-1.106
		c5.228,1.951,10.728,0.232,16.073-0.556c-1.229-6.223-0.435-12.559-1.356-18.833C438.453,280.215,438.453,280.213,438.453,280.212z
		"/>
	<path fill="#F5AC05" d="M377.452,343.42c-4.328-0.42-9.034-1.339-8.819,5.468c0.201,6.251,2.374,12.659,5.98,17.891
		c2.753,0.476,7.854,0.468,11.088-1.051c-0.316-1.348-0.579-2.697-0.764-4.036c-2.251,1.521-6.555,0.823-8.779,0.156
		c-0.292-0.087-0.178-0.524,0.117-0.461c1.739,0.388,5.63,0.334,8.532-0.769c-0.052-0.505-0.152-1.014-0.182-1.515
		c-3.141,1.299-7.16,0.563-10.175-0.495c-0.273-0.094-0.169-0.514,0.115-0.437c2.203,0.591,7.107,0.433,10.027-0.538
		c-0.014-1.061,0.007-2.119,0.114-3.157c-5.683,1.636-11.032-0.386-13.925-1.942c-0.287-0.156-0.047-0.545,0.24-0.432
		c3.557,1.433,10.103,1.673,14.054-0.021c0.01-0.054,0.579-2.3,0.843-3.028c-5.183,0.902-10.64-0.08-13.935-1.255
		c-0.283-0.098-0.178-0.544,0.117-0.46c3.636,1.073,11.208,0.512,17.003-1.339c1.484-1.699,3.12-3.272,4.865-4.746
		c-1.554,0.418-3.125,0.806-4.741,1.128C385.385,343.146,381.38,343.803,377.452,343.42z"/>
	<path fill="#F5AC05" d="M386.991,370.168c-3.215,1.718-6.459,1.634-8.48,1.234c3.225,3.125,7.109,5.414,11.458,6.361
		C388.858,375.298,387.835,372.752,386.991,370.168z"/>
	<path fill="#F5AC05" d="M386.1,367.182c-2.966,1.579-7.876,1.047-11.023,0.253c0.792,1.093,1.648,2.126,2.565,3.091
		c2.386,0.044,6.67-0.453,8.911-1.828C386.402,368.194,386.234,367.689,386.1,367.182z"/>
	<path fill="#F5AC05" d="M312.589,455.686c-6.815,5.905-2.32,19.032,2.243,25.232c5.527,7.497,13.395,11.881,21.899,14.879
		c3.798,0.304,7.583,0.498,11.273,0.682c0.362,0.018,0.725,0.028,1.087,0.045C329.189,490.622,308.285,478.335,312.589,455.686z"/>
	<path fill="#F5AC05" d="M363.358,462.063c-1.168,0.327-1.828,1.848-2.085,3.408c-0.407,2.444,0.018,5.127,2.391,6.457
		c2.688,1.503,5.417,0.248,6.072-2.769c0.663-3.052-1.199-5.464-3.816-6.473c-0.18-0.005-0.371-0.056-0.566-0.178
		c-0.021-0.012-0.042-0.021-0.061-0.035c-0.474-0.135-0.963-0.231-1.463-0.274C363.65,462.184,363.494,462.133,363.358,462.063z"/>
	<path fill="#F5AC05" d="M309.69,444.873c3.919-4.506,7.705-9.681,10.45-15.279c-6.658,10.883-16.898,20.015-26.397,28.657
		c-0.371,1.218-0.68,2.435-0.921,3.645C299.108,456.906,304.632,450.683,309.69,444.873z"/>
	<path fill="#F5AC05" d="M432.106,436.816c-2.501-2.517-4.867-5.179-7.12-7.933c2.094,2.891,4.302,5.685,6.637,8.329
		c5.057,5.723,12.182,13.171,20.219,14.482c-0.353-1.227-0.766-2.44-1.245-3.629c-1.624-0.481-3.227-1.012-4.788-1.664
		C440.521,444.188,436.142,440.877,432.106,436.816z"/>
	<path fill="#F5AC05" d="M379.059,428.625c6.84,2.064,16.297,7.462,22.099,14.482c-3.989-8.327-10.327-15.681-19.529-18.268
		c-9.633-2.708-18.756-1.047-27.288,2.827C362.923,425.9,372.514,426.65,379.059,428.625z"/>
	<path fill="#F5AC05" d="M340.164,437.932c9.969-5.546,22.995-5.672,33.737-2.718c12.124,3.333,22.429,10.502,29.986,20.401
		c-0.283-5.501-4.166-10.859-8.025-14.638c-5.692-5.578-12.581-9.322-20.445-10.899
		C365.324,428.057,347.309,428.283,340.164,437.932z"/>
	<path fill="#F5AC05" d="M416.106,412.124c4.87,8.387,10.708,16.403,17.622,23.072c4.589,4.426,9.376,8.135,15.57,10.004
		c-1.607-3.222-3.648-6.261-6.074-9.008C435.116,427.019,425.259,419.924,416.106,412.124z"/>
	<path fill="#F5AC05" d="M316.203,424.404c-6.812,6.74-16.014,17.816-20.8,29.258c11.352-10.32,23.056-21.529,27.701-35.789
		C320.603,420.187,318.264,422.366,316.203,424.404z"/>
	<path fill="#F5AC05" d="M393.511,495.77c7.193-0.766,14.337-1.912,21.382-3.613c1.252-0.886,2.465-1.823,3.576-2.867
		c3.199-3.003,6.134-6.662,7.139-11.042c0.72-3.143,0.829-7.7-1.543-10.193C424.834,478.627,415.318,490.255,393.511,495.77z"/>
	<path fill="#F5AC05" d="M326.711,311.781c1.495,1.016,2.989,2.012,4.475,3.005c-2.433-6.581-4.975-13.168-8.709-19.137
		c-4.162-6.662-9-13.294-14.6-18.837c-1.393-1.376-2.851-2.681-4.332-3.959c5.865,6.726,10.787,14.36,15.106,22.032
		C321.657,300.225,324.491,305.899,326.711,311.781z"/>
	<path fill="#F5AC05" d="M323.383,309.467c-1.951-4.671-4.26-9.181-6.711-13.423c-5.013-8.684-10.586-17.384-17.554-24.677
		c2.39,12.736,7.588,24.154,16.096,31.685C317.852,305.387,320.6,307.486,323.383,309.467z"/>
	<path fill="#F5AC05" d="M356.249,296.25c-3.389,8.013,2.827,20.791,9.81,24.203c11.512,5.625,21.688-4.877,20.328-16.384
		C375.671,305.511,363.672,304.254,356.249,296.25z"/>
	<path fill="#F5AC05" d="M412.732,237.377c4.038,1.764,6.466,5.878,5.917,10.755c-0.767,6.823-7.204,9.485-13.299,9.509
		c4.826,2.891,11.958,2.162,16.11-1.608C428.737,249.42,422.359,235.005,412.732,237.377z"/>
	<path fill="#F5AC05" d="M374.972,250.506c-0.85-2.459-0.269-4.784,1.01-6.772c-3.459,1.066-6.501,4.713-6.062,8.396
		c0.322,2.722,3.319,4.926,6.059,4.006c1.185-0.398,2.237-1.019,3.258-1.701C377.346,253.61,375.638,252.429,374.972,250.506z"/>
	<path fill="#F5AC05" d="M470.766,482.672c2.299-4.013,2.692-9.638,2.024-14.491c-0.593-0.227-1.19-0.451-1.787-0.664
		c0.241,3.293-0.201,6.671-1.706,10.354c-0.411,1.002-0.877,2.15-1.411,3.333c0.246,0.124,0.493,0.238,0.739,0.371
		C469.356,481.971,470.067,482.331,470.766,482.672z"/>
	<path fill="#F5AC05" d="M465.935,480.305c0.947-2.136,1.652-4.25,2.119-5.679c0.893-2.744,1.061-5.323,0.773-7.824
		c-1.423-0.428-2.874-0.788-4.38-1.005c-1.932-0.281-3.615-0.428-5.171-0.832c0.016,0.51,0.051,1.016,0.044,1.535
		c-0.044,4.887-1.599,9.03-4.113,12.565C458.873,478.356,462.374,478.842,465.935,480.305z"/>
	<path d="M423.374,95.294c-5.595-5.099-14.11-3.544-18.471,2.354c-3.618,4.893-3.679,12.265,0.33,17.009
		c4.339,5.13,12.486,5.859,17.651,1.831C430.094,110.868,429.262,100.651,423.374,95.294z"/>
	<path fill="#FFFFFF" d="M419.099,114.412c-4.384,2.304-9.469,1.648-12.215-1.955c-2.75-3.604-2.661-10.144,1.037-13.56
		c4.033-3.725,10.649-3.52,13.865,0.672C425.482,104.389,424.668,111.484,419.099,114.412z"/>
	<path d="M419.039,103.234c-1.077-2.903-4.643-4.033-7.697-2.383c-4.022,2.172-3.195,9.292,1.344,10.017
		C417.267,111.601,420.679,107.663,419.039,103.234z"/>
	<path fill="#FFFFFF" d="M415.903,105.718c-2.22,0-2.22-3.444,0-3.444C418.123,102.273,418.123,105.718,415.903,105.718z"/>
	<path d="M365.996,462.101c-2.419-1.346-4.61,0.385-5.2,2.075c-0.346,0.996-0.054,1.977,0.14,1.608
		c0.771-1.479,2.472-3.351,4.241-2.608c1.308,0.551,1.573,2.267,1,3.5c-0.498,1.077-2.203,2.372-3.132,1.082
		c-0.568-0.787-0.274-2.529,1.339-2.942c0.379-0.096-0.129-0.51-0.947-0.306c-1.706,0.425-2.363,2.197-1.659,3.748
		c1.073,2.36,4.115,1.662,5.27-0.11C368.48,465.944,367.905,463.162,365.996,462.101z"/>
	<path d="M484.894,210.074c-5.204-1.373-13.843-0.28-19.365,3.274c2.744-4.575,1.573-11.959-0.694-16.258
		c-3.477-6.579-9.666-10.223-17.102-10.205c-0.619,0.002-0.591,0.897,0.005,0.946c6.77,0.534,11.726,4.61,14.269,10.734
		c0.016,0.033,0.019,0.066,0.035,0.101c-4.085-6.372-11.544-9.918-19.553-8.706c-4.396,0.664-8.029,2.633-10.82,5.357
		c0.792-10.798-10.68-25.871-33.336-17.969c-0.563,0.196-0.339,1.119,0.245,0.913c8.595-3.037,27.771-1.865,28.776,12.77
		c-5.066-9.824-17.835-13.211-27.912-8.146c-5.466,2.749-9.688,7.701-11.194,13.44c-4.213-12.08-21.518-20.013-33.56-6.184
		c6.179-11.904,17.066-13.076,25.941-9.559c1.054,0.418,0.535-0.906-1.171-1.676c-18.756-8.457-32.071,9.379-30.56,28.375
		c-4-4.744-10.878-7.308-16.952-6.607c-8.997,1.038-14.965,7.239-17.421,15.736c-0.171,0.589,0.727,0.808,0.916,0.232
		c2.601-7.899,8.226-13.28,16.739-13.611c3.902-0.153,7.017,1.131,9.792,3.056c-4.359-1.315-11.5-1.724-18.033,3.636
		c-8.027,6.585-10.719,19.679-6.531,30.23c3.547,8.943,12.977,11.137,20.427,8.878c-4.052,2.09-8.738,2.872-13.316,2.844
		c-0.729-0.005-0.659,1.047,0.033,1.105c9.402,0.79,24.089-2.529,28.173-17.225c13.64,6.274,27.41,2.374,35.565-10.759
		c0.311-0.502-0.46-0.925-0.787-0.449c-8.457,12.365-20.861,14.257-33.551,7.446c0.446-1.797,0.734-3.629,0.836-5.462
		c3.232,2.903,9.016,4.403,13.524,4.151c8.883-0.493,15.313-5.244,18.747-12.369c1.722,2.778,4.671,5.125,7.016,6.749
		c4.202,2.912,9.532,4.433,14.559,3.181c0.61-0.15,0.343-0.998-0.243-0.913c-4.744,0.696-15.62-3.674-20.076-12.039
		c0.369-1.063,0.692-2.145,0.944-3.25c1.897,2.61,4.276,4.872,6.587,6.475c5.788,4.008,13.731,4.702,20.342,2.764
		c3.215-0.946,5.872-2.797,7.955-5.174c0.914,7.892,9.072,14.166,18.861,14.435c-4.763,1.991-14.124,0.315-19.529-4.162
		c-0.547-0.454-1.255,0.288-0.759,0.802c5.426,5.641,16.277,10.96,28.269,4.798c-5.629,11.939,1.622,20.663,8.84,20.495
		c0.617-0.012,0.732-0.977,0.105-1.091c-6.478-1.154-9.799-8.137-4.945-18.136c-0.332,8.242,4.606,17.956,17.284,19.197
		c9.076,0.888,16.25-4.506,19.707-12.156c-0.972,6.389-4.676,12.024-11.997,14.611c-0.283,0.102-0.183,0.465,0.126,0.456
		c14.238-0.384,25.376-35.387-0.164-42.003c10.002-2.565,16.916,7.787,16.664,16.078c-0.023,0.732,0.715,0.414,0.753-0.334
		C497.784,220.402,493.639,212.38,484.894,210.074z"/>
	<path fill="#FFFFFF" d="M347.33,234.274c-4.805,11.995-17.538,15.285-24.235,6.167c-5.464-8.464-3.346-22.345,3.269-27.536
		c6.616-5.192,17.339-2.596,20.911,2.47C351.157,220.877,349.629,228.54,347.33,234.274z"/>
	<path fill="#FFFFFF" d="M374.122,223.539c-5.553,2.01-14.715,0.678-18.197-7.2c-3.484-7.88-3.248-18.342,2.987-24.725
		c8.651-8.855,21.889-2.821,24.89,7.59C386.467,208.44,383.095,220.29,374.122,223.539z"/>
	<path fill="#FFFFFF" d="M412.531,216.673c-8.373,1.507-19.641-3.063-20.432-14.151c-0.503-7.034,4.949-16.181,16.166-16.801
		c8.714-0.484,15.645,5.223,16.66,13.703C425.743,206.257,420.906,215.166,412.531,216.673z"/>
	<path fill="#FFFFFF" d="M442.258,225.717c-9.63-0.921-14.17-9.079-14.14-13.443c0.072-10.087,7.467-17.405,17.138-17.051
		c7.217,0.264,13.75,4.786,14.503,11.57C461.194,219.718,451.888,226.64,442.258,225.717z"/>
	<path fill="#FFFFFF" d="M487.811,235.345c-1.425,7.621-7.031,10.834-12.379,11.262c-7.871,0.631-14.928-4.805-15.086-14.108
		c-0.169-9.796,8.801-18.167,19.929-13.147C487.142,222.45,489.002,228.972,487.811,235.345z"/>
	<path d="M465.46,254.203c-0.642-0.149-0.892,0.711-0.383,1.029c1.105,0.687,2.433,1.897,3.389,2.806
		c-5.491,0.493-9.798,6.449-13.308,11.317c-7.581,10.509-16.416,4.461-22.614-3.695c-3.183-4.188-6.924-6.316-11.556-6.448
		c-7.801-0.226-15.334,7.695-22.577,12.528c-7.384,4.926-14.47,6.651-21.244-6.714c-8.417-16.602-30.248,3.008-42.514,0.467
		c3.236-3.632,7.116-7.116,11.215-9.418c0.995-0.558,0.15-2.019-0.932-1.902c-11.268,1.236-24.411,18.929-11.095,26.668
		c0.512,0.295,0.998-0.414,0.601-0.82c-4.63-4.728-3.519-9.093-0.43-13.047c2.36,1.33,15.496,4.61,19.913,5.225
		c-0.348,2.255-0.348,5.686,0.323,7.363c2.428,0.084,8.289,3.099,13.982,7.703c4.858,3.601,13.776,3.41,17.921,2.43
		c0.502-1.509,0.923-3.545,1.087-4.942c4.498,0.685,8.66,0.019,12.897-1.509c-1.201,4.241-3.23,10.355-3.767,14.571
		c3.395,5.508,16.487,6.253,22.182,4.012c-0.128-1.727-0.406-5.884-0.322-7.039c2.594,2.094,11.047,2.776,17.244-0.406
		c0.36-2.774-0.135-7.048,0.084-10.301c6.59,1.439,11.893,1.973,16.734-3.788c3.721-4.431,7.095-12.196,9.415-15.298
		s5.513-5.305,8.904-4.571c1.874,1.886,3.381,5.823,4.06,9.462c0.103,0.565,1.229,0.542,1.453-0.011
		C478.851,263.23,475.248,256.448,465.46,254.203z"/>
	<path fill="#883800" d="M354.26,269.718c-2.019-0.29-6.933-0.806-8.635-1.713c3.515-0.755,6.774-1.954,10.028-3.447
		C354.961,265.92,354.522,267.789,354.26,269.718z"/>
	<path fill="#E38D00" d="M367.938,282.343c-3.853-1.816-7.223-4.697-11.177-6.106c0-2.622,0.51-9.621,2.68-13.089
		c0.76-0.218,2.975-1.038,3.672-1.112c-1.688,2.75-1.982,6.405-2.37,9.492c-0.038,0.321,0.444,0.451,0.498,0.12
		c0.554-3.465,1.404-6.518,2.811-9.686c0.552-0.009,1.068,0.061,1.58,0.138c-1.281,3.111-2.218,6.394-2.877,9.677
		c-0.066,0.322,0.425,0.446,0.498,0.119c0.727-3.342,1.853-6.503,3.059-9.679c1.758,0.397,3.298,1.257,4.662,2.428
		C369.07,269.596,367.67,279.469,367.938,282.343z"/>
	<path fill="#EBB549" d="M384.227,286.592c-4.522,0.587-10.133,0-13.816-2.51c0.159-4.559,1.421-13.145,3.263-16.573
		c0.4,0.497,0.78,1.021,1.157,1.538c-1.183,2.914-1.636,6.197-2.061,9.265c-0.052,0.376,0.512,0.507,0.578,0.129
		c0.517-2.924,1.318-5.741,2.082-8.583c0.832,1.173,1.626,2.353,2.412,3.463c-0.717,1.916-0.825,4.054-0.806,6.073
		c0.004,0.386,0.584,0.351,0.593-0.028c0.044-1.835,0.383-3.51,0.822-5.209c0.39,0.526,0.783,1.012,1.176,1.484
		c-0.379,1.454-0.413,3.043-0.549,4.499c-0.03,0.304,0.47,0.35,0.526,0.056c0.236-1.232,0.535-2.484,0.783-3.732
		c1.661,1.69,3.508,2.631,5.461,2.972C385.15,281.608,384.696,284.346,384.227,286.592z"/>
	<path fill="#883800" d="M387.503,282.57c0.124-0.998,0.248-1.995,0.372-2.991c5.723-0.061,11.951-4.138,16.353-7.321
		c-1.028,2.253-2.23,5.653-3.001,7.971C397.544,282.491,390.005,283.243,387.503,282.57z"/>
	<path fill="#E39A00" d="M415.403,298.042c-5.81,1.738-13.937,0.33-15.517-2.437c1.087-7.003,4.27-16.896,6.857-25.194
		c0.614-0.458,1.909-1.458,2.521-1.905c-2.286,4.683-3.471,11.233-4.27,16.094c-0.054,0.323,0.434,0.449,0.498,0.122
		c1.175-5.936,2.683-11.432,4.968-16.973c1.225-0.839,2.481-1.629,3.797-2.33c-1.772,5.279-3.222,10.633-3.954,16.167
		c-0.035,0.285,0.395,0.407,0.439,0.117c0.881-5.765,2.522-11.318,4.52-16.784c1.79-1.017,3.549-1.855,5.309-1.773
		C415.884,273.095,414.16,287.095,415.403,298.042z"/>
	<path fill="#D27900" d="M419.197,290.675c-0.554-7.85,1.374-22.336,4.136-27.196c1.259,0.421,2.131,0.85,2.909,1.386
		c-2.479,4.11-3.108,10-3.381,14.516c-0.019,0.308,0.447,0.297,0.47-0.004c0.399-4.845,1.549-9.583,3.655-13.946
		c0.318,0.252,0.603,0.556,0.906,0.839c-0.925,3.222-1.477,6.529-2.281,9.782c-0.075,0.32,0.413,0.441,0.503,0.121
		c0.834-3.11,1.428-6.281,2.356-9.359c1.596,1.648,3.741,4.286,4.83,5.709c-0.42,4.106-0.923,11.724-0.407,19.179
		C429.027,293.124,423.166,293.376,419.197,290.675z"/>
	<path fill="#883800" d="M435.824,281.383c0.133-1.762,0.154-3.665,0.406-5.758c4.298,2.631,10.383,4.856,16.382,0.558
		C450.334,279.28,447.114,285.085,435.824,281.383z"/>
	<path d="M422.607,198.237c-2.001-5.134-9.749-6.382-13.818-2.093c-4.69,4.941-1.813,13.056,4.103,14.153
		C419.676,211.551,425.117,204.685,422.607,198.237z"/>
	<path fill="#FFFFFF" d="M418.604,203.027c-3.47,0-3.47-5.381,0-5.381C422.076,197.646,422.076,203.027,418.604,203.027z"/>
	<path d="M453.395,207.547c-2.089-4.084-7.703-4.27-10.551-0.419c-2.847,3.852,0.669,9.713,5.639,9.127
		C452.451,215.789,455.237,211.147,453.395,207.547z"/>
	<path fill="#FFFFFF" d="M450.462,210.836c-2.049,0-2.049-3.178,0-3.178C452.51,207.659,452.51,210.836,450.462,210.836z"/>
	<path d="M473.492,226.053c-1.916-3.353-7.286-3.433-9.401,0.178c-1.982,3.389,0.441,8.696,5.13,8.279
		C473.161,234.159,475.502,229.568,473.492,226.053z"/>
	<path fill="#FFFFFF" d="M470.139,229.35c-2.253,0-2.253-3.498,0-3.498C472.394,225.852,472.394,229.35,470.139,229.35z"/>
	<path d="M372.757,198.419c-6.532-1.842-12.365,5.249-9.7,11.793c2.664,6.545,11.481,5.726,14.39,0.349
		C380.022,205.801,378.324,199.989,372.757,198.419z"/>
	<path fill="#FFFFFF" d="M373.075,207.537c-3.893,0-3.893-6.04,0-6.04C376.971,201.497,376.971,207.537,373.075,207.537z"/>
	<path d="M335.472,226.796c-2.664-4.522-9.632-4.858-12.561-0.17c-2.931,4.692-0.336,12.227,6.279,12.143
		C335.722,238.686,338.234,231.484,335.472,226.796z"/>
	<path fill="#FFFFFF" d="M331.315,230.67c-2.956,0-2.956-4.585,0-4.585C334.271,226.085,334.271,230.67,331.315,230.67z"/>
	<path d="M385.114,245.073c-2.802-1.4-4.638-0.612-6.333,1.895c-0.47,0.699,0.346,1.437,0.981,0.867
		c1.713-1.542,5.482,0.026,5.758,5.138c0.044,0.813,1.594,0.933,2.036,0.087C388.309,251.619,387.914,246.47,385.114,245.073z"/>
	<path d="M411.701,244.129c-5.179-1.718-9.917,5.807-10.172,8.983c-0.037,0.46,0.676,0.741,0.954,0.36
		c0.996-1.356,4.206-4.531,6.298-4.949c2.094-0.42,2.931,2.428,3.935,1.393C414.195,248.396,414.085,244.921,411.701,244.129z"/>
	<path d="M378.901,253.123c-5.38-3.085-4.209-8.743-2.002-10.264c0.292-0.199,0.021-0.652-0.288-0.47
		c-2.166,1.269-4.064,3.667-3.93,6.31c0.17,3.265,3.061,5.469,5.917,5.228C378.95,253.895,379.219,253.303,378.901,253.123z"/>
	<path d="M415.288,238.759c-0.281-0.156-0.579,0.255-0.327,0.461c4.482,3.753,6.384,14.828-9.873,18.136
		c-0.689,0.138-0.217,1.148,0.383,1.08c5.031-0.603,11.254-1.281,14.178-6.066C422.555,247.627,419.906,241.299,415.288,238.759z"/>
	<path d="M385.016,302.467c-10.007,2.306-20.791-1.631-29.369-8.882c-0.512-0.435-1.054,0.273-0.65,0.804
		c4.606,6.104,11.694,11.766,18.999,13.89c-4.807,1.286-11.941-3.472-15.522-7.01c-0.271-0.269-0.785,0.112-0.54,0.428
		c5.513,7.125,17.417,13.858,28.524,5.326C388.419,305.518,387.323,301.934,385.016,302.467z"/>
	<path fill="#FFE972" d="M404.955,95.816c2.961-3.208,8.862-5.453,12.951-5.044c4.087,0.409-1.042-4.026-8.315-0.954
		C403.456,92.408,403.321,97.588,404.955,95.816z"/>
	<path fill="#FFE972" d="M397.955,237.609c5.501,0,11.135,4.111,6.076,6.31c-5.375,2.337-13.322,2.337-15.893,0.233
		C385.566,242.047,390.241,237.609,397.955,237.609z"/>
	<path fill="#FFE972" d="M447.039,181.514c10.028-1.337,19.163,5.609,21.735,14.492c2.571,8.881,6.779-13.558-6.076-18.231
		C449.841,173.1,440.026,182.448,447.039,181.514z"/>
	<path fill="#FFE972" d="M478.356,206.289c7.027,0,19.167,6.309,21.037,14.957c1.869,8.649,6.045-12.426-6.312-17.761
		C482.796,199.043,475.086,206.289,478.356,206.289z"/>
	<path fill="#FFE972" d="M363.129,168.424c7.494-3.211,42.071-10.049,53.524-8.648c11.451,1.402-14.727,7.479-28.75,9.583
		C373.879,171.462,356.586,171.229,363.129,168.424z"/>
	<path fill="#FFE972" d="M443.064,163.049c7.915-0.843,19.868,3.973,21.502,6.778C466.202,172.633,432.078,164.218,443.064,163.049z
		"/>
	<path fill="#FFE972" d="M390.007,270.096c-3.531-0.185-10.922-2.755-7.478,0.468c2.907,2.72,7.244,5.143,16.594-0.933
		C404.027,266.443,394.45,270.33,390.007,270.096z"/>
	<path fill="#FFE972" d="M428.104,259.344c3.407,2.045,9.116,9.584,12.622,11.687c3.505,2.105-0.701-6.544-4.676-10.048
		C432.078,257.475,424.6,257.243,428.104,259.344z"/>
	<path fill="#FFE972" d="M341.625,253.734c-4.097,1.891-14.021,7.482-14.489,14.96c-0.468,7.48-7.48-3.505-1.169-9.583
		C332.278,253.035,344.665,252.334,341.625,253.734z"/>
	<path fill="#FFE972" d="M375.75,296.508c3.861,1.502,4.91,5.609-3.038,3.973C364.765,298.846,367.335,293.236,375.75,296.508z"/>
	<path fill="#FFE972" d="M319.42,204.419c5.261-5.26,16.83-7.011,22.439-4.908c5.609,2.104-3.739-8.881-12.621-6.077
		C320.357,196.238,315.214,208.626,319.42,204.419z"/>
	<path fill="#FFE972" d="M345.565,428.585c8.095-5.917,23.785-10.168,36.135-6.356c12.348,3.814-8.354-10.712-22.88-5.627
		C344.296,421.684,340.843,432.036,345.565,428.585z"/>
	<path fill="#FFE972" d="M363.905,453.461c11.03,1.865,19.973,13.437,21.426,22.154c1.453,8.714,25.421-15.617,5.265-29.417
		C370.441,432.399,351.012,451.283,363.905,453.461z"/>
	<path fill="#FFE972" d="M337.393,465.991c6.497,10.925,16.342,14.706,23.243,17.249c6.899,2.543-12.53,5.267-20.518-1.996
		C332.128,473.981,333.399,459.273,337.393,465.991z"/>
	<path fill="#FFE972" d="M396.228,393.543c2.893,4.664,11.621,14.162,14.524,17.069c2.905,2.904-7.081,0.542-10.714-3.814
		C396.408,402.44,392.957,388.278,396.228,393.543z"/>
	<path fill="#FFE972" d="M441.8,356.68c2.103-3.734,6.719-6.354,10.895-7.626C456.873,347.783,440.167,359.586,441.8,356.68z"/>
	<path fill="#FFE972" d="M298.9,364.852c4.286,0.505,8.172,7.263,9.623,10.894C309.977,379.378,295.813,364.489,298.9,364.852z"/>
	<path fill="#FFE972" d="M495.73,467.082c2.489-1.834,7.263-3.269,11.623,0C511.709,470.352,492.279,469.625,495.73,467.082z"/>
	<path fill="#FFE972" d="M438.715,501.4c3.884,1.813,5.265,5.992,3.449,8.717C440.348,512.839,433.268,498.859,438.715,501.4z"/>
	<path fill="#FFE972" d="M449.247,498.133c2.327,1.117,4.541,3.994,3.267,6.898C451.245,507.936,444.707,495.953,449.247,498.133z"
		/>
	<path fill="#FFE972" d="M284.19,510.118c-1.124-2.508,1.816-5.629,5.631-6.356C293.633,503.036,286.55,515.383,284.19,510.118z"/>
	<path fill="#FFE972" d="M303.621,515.926c-2.21-1.045-3.996-5.265-0.727-8.17C306.163,504.853,307.07,517.562,303.621,515.926z"/>
</g>
</svg>
