<?xml version="1.0" encoding="utf-8"?>
<!-- Generator: Adobe Illustrator 17.0.0, SVG Export Plug-In . SVG Version: 6.00 Build 0)  -->
<!DOCTYPE svg PUBLIC "-//W3C//DTD SVG 1.1//EN" "http://www.w3.org/Graphics/SVG/1.1/DTD/svg11.dtd">
<svg version="1.1" id="Layer_1" xmlns="http://www.w3.org/2000/svg" xmlns:xlink="http://www.w3.org/1999/xlink" x="0px" y="0px"
	 width="800px" height="600px" viewBox="0 0 800 600" enable-background="new 0 0 800 600" xml:space="preserve">
<g>
	<g>
		<path d="M248.898,393.477c0.698,18.468-1.78,36.493-4.133,54.756c-1.893,0.149-3.754,0.404-5.53,0.865
			c-2.661,0.689-5.649,3.825-3.572,6.56c2.602,3.426,8.601,4.154,12.589,4.765c20.542,3.154,41.038-3.299,61.125-6.747
			c1.211-0.208,2.432-0.415,3.65-0.623c-0.101,3.325,0.733,6.634,0.334,9.979c-0.603,5.023-4.135,6.703-7.501,9.907
			c-0.061,0.059-9.34,3.906-7.747,11.377c-1.152,1.942-1.244,5.61-1.209,7.631c3.63,0.707,19.554,2.28,21.78,1.71
			c-0.044-1.499-0.215-4.429-0.739-5.95c0.674,0.235,2.673,0.819,3.931,1.58c1.259,0.759,8.328,6.744,21.644,8.68
			c9.516,1.383,20.25,0.342,29.858-0.511c0.581-0.854,0.773-3.136,0.483-4.655c2.348,0.03,19.128,0.479,24.073,0.479
			c4.332,0,21.032-0.382,21.905-0.569c0.871-0.191,0.685-6.151-0.195-6.079c-0.86,0.066-2.809,0.094-3.738-0.051
			c2.135-8.816-8.553-15.468-16.405-15.729c-12.075-0.399-21.36,7.052-32.944,8.787c-0.555-0.478-1.134-0.93-1.734-1.356
			c6.847-7.181,10.965-17.524,9.081-28.188c3.718,0.004,8.959-0.228,12.677-0.513c-0.276-1.424-1.242-3.999-1.571-5.173
			c7.644,0.636,19.726,1.852,25.939,3.275c-8.197-8.157-6.58-24.686-5.994-35.275c0.538-9.768,1.387-19.543,1.558-29.325
			c0.189-10.71,0.02-21.442,0.015-32.152c-0.009-10.335,0.446-20.836-0.309-31.162c5.089,3.595,11.094,5.853,17.059,4.196
			c5.267-1.466,11.219-6.035,11.353-11.061c1.925-1.629,5.599-3.435,9.555-6.549c2.794,2.05,9.323,9.492,14.27,16.277
			c3.783,5.19,7.297,10.214,10.861,15.554c0.22,4.043,1.247,10.543,6.362,8.563c3.558-1.382,5.651-4.697,8.28-7.238
			c3.779-3.65,7.984-6.303,13.01-7.628c-0.415,0.626-1.001,1.688-1.394,2.331c-0.189,1.762-0.052,4.852,0.316,6.985
			c1.389,1.225,5.598,3.917,7.742,5.226c-0.768,0.977-1.523,1.975-2.5,2.807c-2.302,1.951-5.125,3.671-7.119,5.963
			c-2.348,2.706-3.94,6.128-2.436,9.683c1.837,4.336,6.498,7.594,7.83,12.038c2.015,6.727-3.641,10.912-8.812,13.638
			c-1.268,0.669-2.959,1.42-3.731,2.678c-4.42,7.201,2.932,11.862,8.823,14.831c3.807,1.918,11.381,4.635,6.612,12.009
			c-2.575,3.985-10.117,6.882-12.13,12.119c-2.013,5.241-0.285,8.638,1.554,10.442c2.135,2.094,4.372,3.307,7.587,4.172
			c5.193,1.404,8.287,4.042,11.101,8.225c0.182,0.272,0.595,0.07,0.459-0.237c-2.392-5.394-5.568-6.799-10.578-9.134
			c-2.956-1.378-5.972-2.236-7.587-5.397c-1.903-3.72-1.828-8.247,4.19-12.52c1.736-1.233,4.688-3.213,6.073-4.85
			c2.07-2.445,4.573-6.615,2.633-9.832c-2.442-4.056-7.453-5.427-11.447-7.62c-2.048-1.119-4.595-2.39-5.983-4.319
			c-4.014-5.577,1.762-8.327,5.607-10.602c6.45-3.808,9.784-11.408,5.237-17.95c-3.794-5.456-9.235-10.936-2.184-16.958
			c3.092-2.64,6.29-4.918,8.724-8c2.408,1.49,6.094,3.764,9.608,5.811c-1.304,2.506-1.391,5.533,0.737,7.749
			c2.052,2.135,5.866,3.057,8.596,1.67c2.019-1.023,3.373-3.307,3.549-5.596c0.057,0.039,0.107,0.083,0.162,0.118
			c4.253,2.675,9.553,0.534,10.563-4.394c0.294-1.427,0.386-3.222,0.197-5.032c7.947,6.777,15.145-3.65,11.204-17.866
			c1.547,0.595,2.899,1.477,5.181,0.882c5.374-1.407,8.215-10.003,2.434-18.062c2.373-2.399,11.258-12.834,12.929-15.52
			c0.61-4.032-0.035-9.161-0.303-11.494c-2.471-0.355-24.466-4.89-29.522-5.526c-2.88,2.241-8.908,8.474-10.008,10.343
			c-3.369-2.875-7.288-1.262-9.141,1.472c-0.981-0.845-2.271-1.168-3.781-0.581c-0.107-0.882-0.134-1.319-0.441-1.584
			c-1.133-0.254-4.787-0.2-6.391-0.046c-3.983-3.509-8.289-6.625-10.479-11.601c-0.586-1.334-1.527-4.266-3.193-4.819
			c-3.428-1.139-5.374,0.386-7.459,3.134c-3.226,4.258-3.426,9.586-1.782,14.502c1.694,5.067,6.542,12.532,6.578,18.626
			c-0.876-0.885-3.83-3.086-4.356-2.524c-0.524,0.56-10.306,9.669-14.309,16.631c-0.625-0.755-1.584-0.755-2.177-0.338
			c-0.606-0.463-1.38-0.485-2.047-0.206c-3.7-3.336-7.736-6.312-11.434-9.667c-4.02-3.645-8.113-7.65-11.669-11.465
			c3.878-2.746,5.474-7.806,4.459-8.801c-0.658-0.647-2.252-0.928-3.294-1.183c-2.91-9.77,0.803-18.933,2.86-27.361
			c2.912-0.092,5.739-1.622,6.696-4.427c2.013-1.426,2.798-4.065,1.271-8.342c1.413,0.228,2.825,0.47,4.234,0.724
			c2.008,1.119,3.935,2.324,5.871,3.58c1.203,0.784,2.412,1.591,3.909,1.286c3.782-0.771-0.852-5.687-3.81-8.272
			c2.14,1.062,4.111,2.379,5.967,4.082c0.202,0.187,0.575-0.028,0.419-0.292c-3.29-5.454-10.688-10.227-17.54-9.858
			c1.912-4.896,4.286-9.672,6.935-14.195c2.087-3.557,4.892-6.764,5.083-10.955c2.116,0.784,4.547,0.917,6.777,0.38
			c5.307-1.275,9.575-1.977,12.457,3.428c1.225,2.3,2.487,4.376,4.157,6.393c0.158,0.193,0.481-0.052,0.349-0.257
			c-2.195-3.424-3.472-10.233-7.85-11.862c-2.184-0.814-4.315-0.606-6.501-0.358c3.059-1.121,6.125-3.823,9.239-0.742
			c1.787,1.773,2.768,3.615,3.885,5.791c1.697,3.312,2.987,6.257,6.299,8.212c0.454,0.266,0.823-0.362,0.426-0.672
			c-4.324-3.353-3.077-8.954-5.362-13.126c-0.968-1.764-2.102-3.176-3.588-4.547c-2.175-2.002-5.21-2.107-7.879-1.266
			c-3.303,1.038-5.307,3.402-7.751,4.383c3.738-2.669,7.451-6.963,10.12-7.585c0.281-0.066,0.165-0.463-0.108-0.419
			c-3.114,0.49-5.601,1.9-8.168,3.621c-1.277,0.856-2.958,2.157-4.721,2.851c2.588-2.294,4.951-5.651,7.275-6.955
			c0.224-0.125,0.09-0.52-0.171-0.428c-2.342,0.838-4.266,2.151-6.174,3.72c-1.266,1.036-2.62,2.157-4.238,2.605
			c-0.503,0.141-1.04,0.213-1.58,0.259c-3.272-3.294-8.344-5.822-11.307-7.499c-1.35-0.764-2.682-1.525-4.01-2.274
			c0.93,0.171,1.861,0.32,2.8,0.41c6.422,0.634,11.294-1.464,9.887-8.395c-0.05-0.263-0.461-0.206-0.465,0.051
			c-0.176,12.119-16.004,3.246-26.342,0.274c4.602,0.733,9.025,2.949,13.804,3.915c2.599,0.523,9.567,1.716,10.282-2.383
			c0.882-5.046-4.082-8.643-7.466-11.414c-4.46-3.652-4.337-7.655-0.452-7.559c2.316,0.053,4.506,1.6,6.56,2.82
			c2.083,1.234,4.078,2.588,6.119,3.887c0.364,0.233,0.667-0.32,0.333-0.562c-3.591-2.576-10.014-8.915-15.014-7.578
			c-5.709,1.525-1.574,7.837,1.04,10.229c2.662,2.434,8.882,9.571,3.228,8.967c-3.04-0.325-5.924-1.192-8.871-1.934
			c-5.917-1.488-13.607-3.836-18.81,0.377c-0.93-4.6,8.856-3.246,11.779-3.551c0.34-0.037,0.349-0.47,0.018-0.512
			c-3.435-0.437-6.448-1.762-10.03-1.332c-2.344,0.281-4.01,1.49-4.609,3.239c-1.225-3.185,2.581-4.831,4.042-4.984
			c0.296-0.033,0.239-0.494-0.05-0.503c-1.89-0.066-3.768,0.153-5.012,1.569c-9.595-47.455-61.69-79.5-109.362-65.719
			c-51.058,14.756-82.361,66.002-89.411,115.445c-2.249,15.766-2.412,31.969-0.887,47.811c1.782,18.472,6.698,35.54,12.085,53.227
			C244.158,355.799,248.18,374.512,248.898,393.477z M324.938,451.375c7.626-1.134,14.52-2.102,22.159-2.078
			c5.899,0.018,10.859,0.264,16.754,0.433c1.304,5.113-0.061,14.164-5.072,18.799c-2.19,2.024-5.168,2.024-7.51,5.976
			c-4.176,0.266-8.16,1.396-12.422,2.254c-5.643,1.135-10.772,0.805-16.264,0.369C328.475,472.929,327.545,460.508,324.938,451.375z
			"/>
		<path fill="#D99F70" d="M448.887,251.131c3.724,0.953,7.516,1.714,11.263,2.596c-0.048-0.603-0.134-1.196-0.244-1.762
			c-6.016-0.961-12.055-1.784-18.011-3.059c-0.095,0.202-0.882,0.819-0.913,0.841C443.579,249.96,446.319,250.475,448.887,251.131z"
			/>
		<path fill="#FFFFFF" d="M442.722,251.03c0.29,0.928,2.469,1.923,2.98,0.569C444.465,251.173,443.739,251.03,442.722,251.03z"/>
		<path fill="#FFFFFF" d="M460.177,254.208c-3.353-0.489-6.639-1.212-9.948-1.929c-0.38-0.085-0.764-0.153-1.15-0.22
			c0.138,3.873-6.968,2.085-7.743-0.834c-0.004-0.018,0-0.031-0.004-0.048c-0.434-0.061-0.865-0.123-1.297-0.2
			c-1.806,3.582,5.98,7.238,8.849,8.155c2.587,0.827,5.485,1.268,8.138,0.509C459.639,258.89,460.269,256.559,460.177,254.208z"/>
		<path fill="#9CB9C7" d="M492.102,309.887c-0.239,0.608,0.963,3.698,1.668,5.191c0.513-0.43,1.036-2.296,1.051-3.413
			C494.011,310.776,492.341,309.279,492.102,309.887z"/>
		<path fill="#BDB3AA" d="M511.377,291.017c-1.725,0.062-3.358,1.295-2.392,4.04c0.906,2.574,2.908,4.536,5.102,5.566
			c2.098-2.478,2.908-8.048,2.43-9.356C515.49,290.984,513.105,290.951,511.377,291.017z"/>
		<path fill="#E3B895" d="M517.995,292.586c0.437,3.167-1.172,7.83-3.147,9.861c-7.488-2.855-10.001-11.48-4.842-12.277
			c-4.19-2.462-7.879-5.575-10.036-9.946c-0.38-0.735-1.1-1.909-1.431-2.667c-2.385-5.473-5.919-1.038-7.391,1.418
			c-1.418,2.37-2.087,4.888-2.337,7.613c-0.478,5.203,4.775,13.433,6.713,18.316c1.135,2.857,1.87,5.263,1.44,7.464
			c-0.428,2.197-1.817,4.771-1.979,4.857c1.9,3.088,4.392,6.022,6.251,8.754c0.867-1.095,8.118-10.163,11.529-12.586
			c-1.229-1.993-1.653-4.473-1.31-5.902c-4.231-1.494-7.879-6.165-10.35-11.096c-4.142-1.058-5.669-5.458-5.803-10.264
			c-0.009-0.277,0.421-0.312,0.481-0.05c0.459,1.96,1.991,6.494,3.854,7.02c-1.086-2.765-1.756-5.396-1.899-7.354
			c-0.033-0.457,0.696-0.722,0.915-0.277c3.353,6.841,5.408,14.641,11.992,19.359C518.958,310.786,526.962,292.858,517.995,292.586z
			"/>
		<path fill="#D70000" d="M526.834,290.808c-1.562,0.213-3.046,1.205-4.343,2.173c0.632,0.878,1.053,2.012,1.218,3.218
			c0.547,4.065-1.679,8.645-5.335,10.67c-1.87,1.034-3.691,1.299-5.432,1.012c0.079,7.24,8.043-0.399,10.181-3.035
			c2.278-2.811,4.143-5.901,5.44-9.257C529.154,294.056,529.927,290.389,526.834,290.808z"/>
		<path fill="#FF7463" d="M523.694,292.149c0.667-0.426,1.363-0.81,2.083-1.062c0.65,2.192,1.271,4.393,1.837,6.608
			c-0.625,1.325-1.33,2.601-2.116,3.838C524.954,298.397,524.326,295.27,523.694,292.149z"/>
		<path fill="#B80000" d="M523.709,296.199c-0.035-0.231-0.081-0.459-0.131-0.683c3.503,6.239-3.41,14.93-10.607,12.975
			c-0.016-0.191-0.026-0.393-0.029-0.61c1.742,0.286,3.562,0.022,5.432-1.012C522.03,304.845,524.256,300.265,523.709,296.199z"/>
		<path fill="#A70000" d="M525.331,305.782c-3.446,4.076-6.895,6.962-10.497,7.19c1.473,1.865,3.602,4.35,4.312,4.947
			c0.711,0.597,7.515-2.605,11.16-7.174c3.647-4.567,4.965-10.339,4.662-11.234c-0.305-0.895-3.244-5.971-3.641-6.61
			C531.233,297.006,527.089,303.704,525.331,305.782z"/>
		<path fill="#CD3D2C" d="M530.302,310.749c-0.283-0.445-0.564-0.895-0.84-1.345c-1.019-1.675-2.039-3.341-3.114-4.973
			c0.569-0.819,1.22-1.837,1.857-2.96c1.31,2.05,2.783,4.012,4.271,5.963c-0.604,1.119-1.321,2.247-2.171,3.31
			C530.306,310.747,530.304,310.747,530.302,310.749z"/>
		<path fill="#900000" d="M519.842,311.015c1.369,1.611,2.515,3.65,3.67,5.317c-2.194,1.253-4.018,1.881-4.367,1.587
			c-0.709-0.597-2.838-3.083-4.312-4.947C516.531,312.863,518.196,312.149,519.842,311.015z"/>
		<path fill="#E3B895" d="M553.317,327.475c1.275-0.314,2.802-1.087,3.448-2.258c0.07-0.125,0.279-0.035,0.23,0.099
			c-0.641,1.734-1.89,2.789-3.575,3.382c5.182,0.604,5.594-6.079,5.236-9.534c-0.162-1.56-0.643-3.261-1.602-4.512
			c-0.722-0.95-1.637-1.043-2.294-0.801c0.357,0.406,0.897,1.604,1.065,2.723c0.25-0.244,0.492-0.492,0.704-0.757
			c0.171-0.207,0.575-0.084,0.47,0.211c-0.443,1.257-0.707,2.296-1.484,3.435c-0.647,0.944-1.545,1.754-2.432,2.476
			c-1.306,1.066-4.24,3.092-5.849,1.712c-0.141-0.119-0.211-0.388-0.138-0.559c0.068-0.16,0.149-0.281,0.233-0.397
			c-0.527-0.002-1.892-1.165-1.927-1.179c-0.606,2.214,1.642,4.617,4.391,6.02C550.956,327.619,552.042,327.786,553.317,327.475z"/>
		<path fill="#BDB3AA" d="M554.645,317.868c0.094-1.844-0.485-3.073-1.062-3.786c-3.615,0.806-6.33,4.041-7.583,6.536
			c0.49,0.665,1.119,1.325,1.89,1.565C551.076,321.556,554.015,318.957,554.645,317.868z"/>
		<path fill="#E3B895" d="M538.352,343.671c1.227,2.197,3.678,3.34,6.202,2.603c0.004-0.002,0.009-0.006,0.013-0.008
			c1.034-1.108,1.514-2.809,1.944-4.166c0.882-2.809,1.141-5.958,0.939-8.88c-0.011-0.178,0.261-0.242,0.288-0.055
			c0.507,3.586,0.518,7.486-0.544,10.971c-0.035,0.109-0.075,0.224-0.118,0.338c1.082-1.411,1.635-3.319,1.997-4.905
			c0.757-3.312,0.074-8.032-0.953-10.49c-1.376-0.817-2.614-1.874-3.494-3.06c0.856,2.429,0.575,5.52,0.266,7.78
			c-0.351,2.585-2.001,8.261-5.596,7.697c-0.303-0.048-0.413-0.435-0.219-0.652c0.215-0.235,0.448-0.446,0.687-0.645
			c-0.67-0.092-1.348-0.382-1.936-0.783c-0.13-0.088-0.255-0.185-0.375-0.286C537.43,340.913,537.705,342.51,538.352,343.671z"/>
		<path fill="#BDB3AA" d="M539.575,334.083c-0.395,1.418-0.441,2.824-0.575,4.247c0.766,0.476,1.622,0.709,2.094,0.746
			c1.622-1.255,3.744-7.938,2.249-14.085c-2.75,0.885-5.32,6.584-5.717,11.81c0.145,0.366,0.373,0.676,0.636,0.946
			c0.099-2.546,1.301-5.239,2.241-7.444c0.048-0.11,0.235-0.031,0.195,0.079C540.264,331.601,539.923,332.84,539.575,334.083z"/>
		<path fill="#4C4C49" d="M543.42,323.511c-0.592-6.404,8.456-12.87,12.569-11.381c3.47-3.715,9.555-10.431,12.902-15.207
			c-0.017-2.502,0-6.417-0.152-8.357c-8.34,10.554-17.307,19.556-26.169,29.693c-8.303,9.498-23.966,26.299-26.193,28.735
			c0.149,0.907,0.49,3.615,0.544,4.071c1.159-1.032,4.565-2.656,7.477,0c-0.244-2.063,0.713-4.247,1.574-6.049
			c1.398-2.927,5.726-8.728,8.979-5.124c-0.13-2.491,0.485-5.103,1.448-7.793C537.56,328.857,539.419,323.586,543.42,323.511z"/>
		<path fill="#3A3A37" d="M536.574,326.607c2.778-3.338,5.792-6.41,9.011-9.305c-1.446,1.872-2.364,4.04-2.164,6.209
			c-4.001,0.075-5.86,5.346-7.021,8.588c-0.963,2.689-1.578,5.302-1.448,7.793c-3.253-3.604-7.582,2.197-8.979,5.124
			c-0.862,1.802-1.819,3.986-1.574,6.049c-1.427-1.303-2.971-1.574-4.313-1.392C524.111,341.211,530.607,333.777,536.574,326.607z"
			/>
		<path fill="#3A3A37" d="M560.083,307.654c-1.519,1.699-2.95,3.252-4.093,4.477c-1.457-0.527-3.531-0.044-5.577,1.067
			C553.236,310.929,556.526,308.579,560.083,307.654z"/>
		<path fill="#BDB3AA" d="M529.721,344.015c-1.301,1.642-2.199,3.54-2.87,5.498c1.426,0.467,3.099-0.445,4.703-2.412
			c1.29-1.578,2.943-6.031,1.777-6.558c-1.9-0.856-4.427,2.151-5.361,3.856c-0.489,0.891-1.282,2.64-1.679,3.873
			c0.746-1.672,1.991-3.151,3.272-4.411C529.668,343.759,529.804,343.908,529.721,344.015z"/>
		<path fill="#E3B895" d="M528.555,354.396c2.377,2.271,5.868,1.707,7.212-1.22c1.567-3.415,0.963-8.261-1.347-11.405
			c0.173,2.118-0.678,4.363-1.773,6.138c-0.753,1.218-2.774,2.767-4.56,3.002c0.239,0.108,0.52,0.182,0.885,0.178
			c1.752-0.017,4.155-1.661,4.879-3.139c0.09-0.182,0.362-0.092,0.305,0.108c-0.603,2.091-2.164,3.716-4.306,4.337
			c-0.841,0.244-2.015,0.097-2.95-0.353C527.243,352.854,527.769,353.642,528.555,354.396z"/>
		<path fill="#E3B895" d="M518.216,360.443c1.56,1.13,4.032,1.352,5.712,0.371c2.364-1.381,3.371-5.783-0.472-8.439
			c0.31,1.613-0.303,3.119-1.819,4.288c-0.946,0.731-2.589,1.08-3.959,0.803c1.088,0.838,2.441,1.288,3.63,0.391
			c0.123-0.092,0.281,0.061,0.169,0.173c-1.416,1.436-3.354,1.211-4.868,0.206C516.884,359.073,517.391,359.846,518.216,360.443z"/>
		<path fill="#BDB3AA" d="M520.191,355.911c1.468-0.691,2.462-2.682,2.528-4.28c-1.688-0.672-5.473-0.327-6.589,3.619
			C517.358,356.676,519.033,356.455,520.191,355.911z"/>
		<path fill="#797977" d="M567.218,287.223c-4.855-1.335-20.257-4.361-26.013-5.226c-0.035-0.005-6.938,7.301-8.52,9.553
			c1.674,2.539,3.549,6.781,4.108,8.061c0.915,2.091-0.913,7.662-5.171,13.034c-4.26,5.375-10.953,8.607-12.931,7.264
			c-0.977-0.663-3.347-3.283-5.276-5.605c-4.615,5.157-11.612,13.962-15.047,19.991c4.956,3.672,13.074,9.09,17.068,11.469
			C524.26,335.424,554.592,301.549,567.218,287.223z"/>
		<path fill="#686865" d="M524.223,324.621c-2.684,1.56-5.476,2.588-8.526,3.189c-2.361,0.463-5.201,1.729-6.753-0.814
			c-0.919-1.506-1.547-3.125-2.149-4.754c2.335-2.971,4.685-5.776,6.619-7.938c1.929,2.322,4.299,4.942,5.276,5.605
			c1.978,1.343,8.671-1.888,12.931-7.264c2.903-3.661,4.672-7.411,5.215-10.093C536.587,310.901,531.351,320.474,524.223,324.621z"
			/>
		<path fill="#959593" d="M553.508,284.229c5.528,1.088,11.12,2.28,13.71,2.994c-3.454,3.917-8.237,9.303-13.537,15.27
			C553.611,296.403,553.548,290.317,553.508,284.229z"/>
		<path fill="#959593" d="M544.811,306.112c-0.283-7.807,0.028-15.641,0.369-23.452c1.11,0.198,2.317,0.421,3.584,0.654
			c0.132,7.916,0.512,15.826,0.862,23.737c-1.479,1.666-2.983,3.356-4.493,5.054C545.002,310.11,544.883,308.113,544.811,306.112z"
			/>
		<path fill="#61615F" d="M497.137,340.199c2.127,1.389,5.158,3.61,7.659,4.96c0.436-0.443,1.137-1.224,1.679-1.582
			c0.581-0.38,1.468,0.182,1.122,0.869c-0.259,0.512-0.753,1.216-1.051,1.688c2.903,1.819,5.908,3.805,8.834,5.418
			c0.112-1.345-0.039-3.287-0.343-4.33c-1.661-0.889-11.919-7.936-17.799-11.64C496.948,336.997,496.805,338.805,497.137,340.199z"
			/>
		<path fill="#D4E3E8" d="M455.144,315.658c5.476,6.667,9.832,13.381,14.217,20.783c0.088-1.163,0.623-3.252,0.816-1.697
			c0.487,3.942,2.122,11.101,6.057,8.627c3.066-1.931,5.078-5.269,8.043-7.383c3.722-2.653,8.816-5.899,13.637-5.528
			c0.862-1.234,1.756-2.452,2.68-3.648c-2.756-2.377-4.833-5.671-6.738-8.658c-1.541-2.412-3.141-5.292-3.446-8.223
			c-2.149,2.679-4.868,5.07-7.067,7.661c-3.913,4.607-6.143,9.545-8.432,14.987c-0.239,0.564-1.159,0.555-1.212-0.081
			c-0.158-1.854,0.333-4.929,1.332-7.036c-0.652-0.777-2.546,0.942-3.285,4.791c-0.053,0.277-0.417,0.167-0.426-0.112
			c-0.037-1.477,0.492-3.832,1.644-5.48c-0.816-0.612-2.497,0.707-3.026,3.204c-0.062,0.303-0.432,0-0.318-0.74
			c0.169-1.091,0.463-2.228,1.411-3.117c-8.605-5.137-16.405-13.504-23.232-20.735c-0.529,0.483-1.598,1.552-2.16,2.026
			C448.615,308.076,452.883,312.907,455.144,315.658z"/>
		<path fill="#BACDD4" d="M480.288,339.449c4.683-7.062,11.731-10.916,19.862-12.036c-0.762,1.003-1.517,2.013-2.237,3.046
			c-4.82-0.371-9.915,2.875-13.637,5.528c-1.697,1.211-3.084,2.82-4.536,4.339C479.92,340.034,480.095,339.736,480.288,339.449z"/>
		<path fill="#BACDD4" d="M449.611,309.349c-1.391-1.503-2.783-2.943-3.974-4.052c0.562-0.474,1.631-1.543,2.16-2.026
			c1.301,1.374,2.636,2.794,4.007,4.225C451.044,308.071,450.309,308.686,449.611,309.349z"/>
		<path fill="#E3B895" d="M418.353,321.046c6.498,0.729,17.362-5.381,12.79-13.425c-0.239-0.413,0.276-0.961,0.672-0.59
			c1.628,1.521,2.475,3.095,2.734,4.646c2.131-2.778,6.59-5.68,9.055-7.516c2.464-1.839,8.342-6.426,7.956-10.264
			c-3.591-0.68-7.242-0.819-10.835-1.53c-4.313-0.856-8.489-2.26-12.786-3.178c-9.837-2.1-22.023-3.29-31.403,1.174
			c-1.606,0.764-0.573-2.302-1.163-6.055c-0.303-1.936-1.018-5.272-1.878-6.893c-2.5,1.824-4.646,4.132-6.911,6.479
			c-0.386,0.399-1.152-0.029-0.952-0.56c1.472-3.926,3.713-6.865,6.689-8.717c2.581-1.606,5.655-1.24,7.613-1.067
			c0.382,0.031,0.479,0.661,0.086,0.755c-1.508,0.36-2.86,0.9-4.113,1.567c1.135,2.236,2.357,7.337,1.92,10.773
			c1.596-0.623,3.189-1.08,4.789-1.4c0.162-2.179-0.198-4.145-0.634-6.637c3.63-2.493,9.843-1.358,11.621-0.141
			c-0.314,2.258-1.091,4.918-1.328,6.288c2.502,0.184,5.035,0.559,7.62,1.038c4.975,0.924,9.983,1.905,14.904,3.086
			c3.812,0.911,8.513,1.984,12.657,2.456c-1.492-8.298,0.942-18.764,4.545-26.463c-1.582-0.099-3.14-0.623-4.387-1.619
			c-0.4-0.318-0.024-0.924,0.441-0.836c3.524,0.693,7.903,1.585,10.288-1.31c-4.675,1.942-13.244-0.419-17.959-4.133
			c2.994,6.736,8.177,13.03,6.889,20.388c-1.493,8.537-9.275,11.829-17.223,9.415c-7.159-2.173-13.965-8.234-16.322-15.242
			c-3.292-9.793,7.484-14.777,15.306-15.123c0.9-0.039,1.032,1.198,0.231,1.475c-6.237,2.149-13.756,3.834-12.49,10.642l0.007-0.024
			c5.248-2.225,7.717,4.615,5.059,8.755c3.233,3.187,7.521,5.502,11.753,6.591c10.749,2.767,12.204-8.449,8.998-15.7
			c-2.511-5.684-5.625-10.354-5.515-16.126c-0.03-0.375-0.009-0.751,0.068-1.128c0.031-0.344,0.083-0.695,0.138-1.045
			c-8.72,11.601-39.01,4.809-33.416-9.297c-3.676,4.009-0.733,11.056,2.851,14.131c0.209,0.178-0.092,0.456-0.303,0.294
			c-3.939-3.013-8.168-10.1-4.519-14.658c-1.865-0.209-3.713-0.487-5.529-0.931c-0.851-0.21-0.766-1.398,0.031-1.611
			c5.103-1.363,11.033,0.22,16.159,1.154c5.967,1.091,11.825,2.678,17.687,4.209c2.397,0.626,4.798,1.216,7.205,1.791
			c1.496-0.388,1.352-3.777,1.168-4.817c-9.202-2.489-18.635-4.271-27.903-6.47c-0.369-0.09-0.222-0.671,0.143-0.628
			c9.564,1.124,18.615,3.305,27.618,6.373c-0.2-0.928-0.457-1.841-0.692-2.704c-11.77-2.302-23.492-5.21-34.691-8.816
			c-0.647-0.209-0.413-1.111,0.257-0.999c8.18,1.356,16.552,2.765,24.863,4.471c-2.442-2.906-4.971-5.743-7.365-8.723
			c-1.611-2.006-3.803-4.493-6.419-5.32c-1.633,0.992-2.877,3.316-4.22,5.159c-0.658,0.904-1.975,0.235-2.091-0.689
			c-0.738-5.836,2.756-12.303,9.595-10.429c6.535,1.791,10.26,9.086,11.166,15.049c0.057,0.39-0.423,0.671-0.711,0.358
			c-1.205-1.301-2.508-2.649-3.861-3.968c0.619,0.926,1.216,1.872,1.787,2.825c1.06,1.762,1.569,3.794,2.61,5.526
			c0.068,0.116,0.018,0.228-0.066,0.299c4.797,0.994,9.569,2.092,14.278,3.336c-4.988-2.065-9.018-6.5-11.598-11.601
			c-0.279-0.553,0.467-1.156,0.915-0.667c6.191,6.773,11.101,12.606,21.202,12.371c0.32-0.008,0.325,0.441,0.046,0.518
			c-2.328,0.645-4.554,0.75-6.658,0.452c4.014,1.15,7.975,2.412,11.84,3.838c0.244,0.09,0.217,0.511-0.074,0.472
			c-6.731-0.929-13.541-2.056-20.333-3.375c0.257,0.897,0.516,1.839,0.733,2.796c0.975,0.336,1.949,0.672,2.926,1.031
			c0.25,0.092,0.16,0.481-0.108,0.402c-0.887-0.255-1.778-0.5-2.669-0.742c0.533,1.933,0.604,3.928,0.042,5.079
			c0.437,0.106,0.875,0.204,1.312,0.307c2.59-0.105,2.655-3.099,2.655-3.656c0-0.261,0.355-0.292,0.465-0.05
			c0.634,1.393,0.707,3.314-0.333,4.354c5.612,1.304,11.223,2.583,16.796,4.051c-4.054-1.888-8.214-3.663-11.792-6.329
			c-1.203-0.896-0.318-2.655,1.086-2.528c3.204,0.281,6.356,0.961,9.417,1.923c1.501-5.217,3.867-9.869,5.7-15.057
			c0.786-2.228,1.576-4.464,2.467-6.652c1.89-4.646-1.729-7.324-4.914-9.696c-6.748-5.024-17.834-11.779-25.179-13.978
			c-5.967-1.786-11.612-2.645-16.127-2.985c-0.272,1.477-2.701,6.125-3.329,5.017c-0.751-1.326-2.634-3.939-5.081-4.925
			c-4.951,0.084-20.963,0.764-28.906,7.537c-7.051,6.009-10.322,21.033-7.286,31.16c0.362,0.334,0.737,0.652,1.084,0.999
			c-0.022-0.764,0.717-7.155,1.69-9.643c0.121-0.309,0.616-0.215,0.57,0.107c-0.516,3.659-0.43,8.715,0.672,12.817
			c0.755,0.976,1.459,1.984,2.098,3.05c0.235,0.395-0.178,0.775-0.569,0.546c-3.347-1.975-6.075-5.32-8.814-8.032
			c-3.446-3.413-7.218-5.983-10.097-5.131c7.26,6.646,7.659,9.411,7.247,9.038c-4.679-4.229-17.177-15.547-21.881-14.5
			c-3.002,0.667,2.148,5.52,8.406,9.479c5.779,3.658,12.352,7.095,14.698,13.741c0.891,2.519,0.116,4.426-0.737,6.795
			c-0.718,2.01-1.198,3.619-1.764,5.693c-1.629,5.983,3.272,1.236,3.988,0.296c3.263-4.286,6.76-12.251,12.823-13.133
			c0.818-0.121,1.174,1.128,0.474,1.503c-0.895,0.481-2.497,1.916-3.279,2.653c1.001,2.401,0.334,4.392-0.391,6.828
			c-1.051,3.535-2.28,7.027-2.245,10.751c0.004,0.307-0.452,0.373-0.599,0.106c-2.35-4.284,1.429-12.292,0.173-13.782
			c-1.034,1.521-1.995,3.084-2.934,4.492c-0.678,6.742-0.985,12.323,1.249,19.069c2.726,8.236,7.835,16.093,13.232,22.881
			c4.387,5.515,8.794,10.976,14.37,15.395C409.248,318.746,413.714,320.528,418.353,321.046z"/>
		<path fill="#FFFFDC" d="M411.932,279.251c-1.721-1.016-6.099-1.069-8.131,0.419c0.529,1.73,0.794,3.439,0.796,5.256
			c1.991-0.263,3.992-0.338,6.011-0.264C410.843,283.452,411.497,281.315,411.932,279.251z"/>
		<path fill="#E3E3BD" d="M411.24,282.107c-0.264,1.012-0.509,1.916-0.632,2.553c-2.019-0.073-4.019,0.002-6.011,0.264
			c-0.002-0.913-0.068-1.798-0.202-2.671C406.364,281.756,408.887,281.837,411.24,282.107z"/>
		<path fill="#B47754" d="M417.093,269.56c0.613,2.283,2.326,4.921,3.163,5.954C423.557,271.766,419.707,267.205,417.093,269.56z"/>
		<path fill="#95563B" d="M420.897,270.256c0.871,1.317,1.007,3.388-0.641,5.258c-0.417-0.514-1.051-1.427-1.659-2.496
			C419.679,272.448,420.486,271.439,420.897,270.256z"/>
		<path fill="#FFFFFF" d="M414.69,249.319c-3.105-0.476-5.519-2.206-5.153-4.646c-1.449-0.252-2.905-0.514-4.347-0.749
			c0.968,5.73,7.853,8.478,13.446,9.268c5.902,0.832,11.204-0.231,15.472-3.496c-4.743-1.132-9.571-2.182-14.417-3.145
			C419.338,248.606,417.016,249.677,414.69,249.319z"/>
		<path fill="#FFFFFF" d="M415.27,245.759c-1.879-0.366-2.476-0.516-4.358-0.854C411.131,246.612,414.253,247.469,415.27,245.759z"
			/>
		<path fill="#D99F70" d="M434.967,248.996c0.483-0.419,0.952-0.863,1.405-1.343c-3.092-1.11-12.786-4.031-18.56-5.458
			c-3.729-0.922-10.385-1.782-12.569-1.552c-0.105,0.531-0.158,1.045-0.176,1.54C410.525,242.937,430.377,247.469,434.967,248.996z"
			/>
		<path fill="#C28856" d="M441.573,249.251c0.153-0.136,0.285-0.272,0.322-0.345c5.956,1.275,11.994,2.098,18.011,3.059
			c0.046,0.235,0.068,0.489,0.101,0.731C455.622,251.887,447.614,250.31,441.573,249.251z"/>
		<path fill="#C28856" d="M405.152,241.238c0.028-0.197,0.053-0.393,0.092-0.595c2.184-0.23,8.84,0.63,12.569,1.552
			c5.774,1.427,15.468,4.348,18.56,5.458c-0.232,0.246-0.478,0.461-0.72,0.689C423.686,244.17,410.656,241.475,405.152,241.238z"/>
		<path fill="#DCEBEF" d="M390.558,331.48c2.087,0.264,6.659,3.882,7.317,4.666c1.426-2.886,2.912-15.185,3.316-20.608
			c-1.492-1.461-3.863-4.365-6.026-7.014c-2.447,3.402-5.733,11.326-7.117,18.224c-1.334,6.661-2.109,13.57-2.307,20.386
			c0.039,0.367,0.057,0.733,0.09,1.099c0.525-1.042,1.157-1.986,1.694-2.66c1.325-1.659,4.025-3.518,6.444-3.456
			C393.4,341.004,390.724,333.341,390.558,331.48z"/>
		<path fill="#A7C1CD" d="M385.802,328.443c0.163-1.176,0.353-2.355,0.584-3.535c1.102-5.636,3.026-13.574,7.868-17.536
			c-4.196-5.272-8.348-10.473-11.968-16.093c-0.075,7.85,0.913,15.543,1.753,23.377C384.507,319.01,385.402,323.744,385.802,328.443
			z"/>
		<path fill="#8CA9BE" d="M387.832,318.795c-0.619,2.137-1.082,4.255-1.446,6.114c-0.231,1.18-0.421,2.359-0.584,3.535
			c-0.401-4.699-1.295-9.433-1.764-13.787c-0.018-0.176-0.037-0.353-0.057-0.527C385.286,315.669,386.57,317.225,387.832,318.795z"
			/>
		<path fill="#8CA9BE" d="M387.455,305.969c-1.536-2.129-3.141-4.203-4.885-6.167c-0.197-2.829-0.312-5.666-0.285-8.522
			c3.621,5.62,7.773,10.82,11.968,16.093c-1.15,0.939-2.127,2.107-2.976,3.411C390.035,309.153,388.763,307.543,387.455,305.969z"/>
		<path fill="#DCEBEF" d="M381.123,289.457c-1.264-2.07-2.452-4.201-3.534-6.421c-2.644-5.412-5.324-13.115-4.446-19.75
			c-0.691,0.744-1.455,1.402-2.278,1.817c-0.424,10.009-1.192,28.1-0.031,33.181c1.565,0.535,2.985,1.2,3.924,1.707
			c0.22,0.116,0.112,0.535-0.145,0.472c-3.527-0.874-8.693-1.078-10.644-0.121c6.261,7.187,11.691,16.555,15.731,24.973
			c1.747,3.643,3.154,7.616,4.209,11.704C383.013,328.512,379.146,297.355,381.123,289.457z"/>
		<path fill="#C5DEE5" d="M391.962,314.522c1.086-2.493,2.212-4.62,3.204-5.998c2.162,2.649,4.534,5.553,6.026,7.014
			c-0.092,1.236-0.241,2.829-0.432,4.582C397.512,318.99,394.591,316.982,391.962,314.522z"/>
		<path fill="#C5DEE5" d="M370.284,281.913c0.121-5.948,0.386-12.226,0.581-16.809c0.823-0.415,1.587-1.073,2.278-1.817
			c-0.878,6.636,1.802,14.338,4.446,19.75c1.082,2.219,2.271,4.35,3.534,6.421c-0.371,1.483-0.533,3.801-0.551,6.626
			C376.602,291.7,373.215,286.942,370.284,281.913z"/>
		<path fill="#6581A2" d="M371.664,449.877c-1.935-0.015-3.869-0.046-5.801-0.097c1.24,5.792,0.083,11.599-3.059,16.659
			c-3.235,5.21-7.146,5.759-8.313,8.057c3.217,0.261,5.686,1.032,8.058,2.451C371.113,468.544,372.786,457.402,371.664,449.877z"/>
		<path fill="#8D7761" d="M404.931,474.571c-6.872-2.66-13.225-0.568-18.839,1.407c-2.313,0.812-4.874,2.136-7.521,3.272
			c-0.259,1.209,0.415,2.063,0.998,2.612c0.371-0.222,0.86-0.298,1.242-0.103c-0.316-0.16,0.083,0.04,0.119,0.061
			c0.702,0.351,0.781,1.347,0.25,1.868c-0.509,0.503-1.578,0.476-1.907-0.235c-0.052-0.114-0.107-0.228-0.156-0.338
			c-0.158-0.338-0.097-0.647,0.072-0.895c-0.682-0.481-1.749-1.381-1.822-2.469c-0.68,0.27-1.363,0.516-2.048,0.737
			c-0.004,0.037-0.011,0.07-0.013,0.105c-0.033,0.525,0.035,1.078,0.206,1.596c0.136-0.051,0.283-0.092,0.456-0.092
			c1.602,0,1.554,2.436-0.044,2.436c-1.168,0-1.448-1.286-0.9-1.99c-0.415-0.502-0.748-1.053-0.913-1.699
			c-0.726,0.191-1.449,0.32-2.17,0.413c0.085,0.489,0.244,1.034,0.463,1.527c0.055-0.013,0.103-0.042,0.163-0.042
			c0.606,0,1.144,0.367,1.198,0.997c0.046,0.555-0.41,1.178-1.018,1.178c-0.604,0-1.146-0.371-1.198-0.999
			c-0.026-0.281,0.083-0.579,0.27-0.803c-0.564-0.435-1.045-0.922-1.22-1.697c-0.004-0.018-0.009-0.039-0.013-0.055
			c-0.823,0.02-1.637-0.02-2.44-0.193c1.694,1.826,2.93,3.915,3.342,6.103c7.694,0.215,35.092,0.691,42.254-0.639
			C414.78,482.61,411.604,477.152,404.931,474.571z"/>
		<path fill="#9D9F9F" d="M418.583,491.193c0.347-0.603,0.29-2.566,0.073-3.174c-8.498,1.179-35.7,1.653-47.025,0.47
			c0.193,0.898,0.303,1.629,0.096,2.417C375.211,491.288,414.943,492.209,418.583,491.193z"/>
		<path fill="#9D9F9F" d="M345.835,496.79c9.049,1.091,17.741-0.687,26.724-0.92c0.145-1.264,0.145-2.024-0.147-2.783
			c-0.169,0.096-2.598,0.215-6.002,0.569c-6.389,0.665-26.621,1.426-39.885-3.325C329.235,493.372,340.447,496.14,345.835,496.79z"
			/>
		<path fill="#9D9F9F" d="M299.206,487.431c-0.127,0.862-0.182,1.734-0.22,2.605c2.739-0.253,5.561,0.327,8.291,0.614
			c3.013,0.318,6.354,0.276,9.312,1.117c-0.342-1.462-0.377-3.101-0.197-4.596c-5.3-1.795-10.695-3.169-16.638-2.724
			C299.682,485.448,299.357,486.452,299.206,487.431z"/>
		<path fill="#868888" d="M387.645,489.159c-0.084,0.761-0.075,1.523-0.011,2.285c-1.234-0.03-2.441-0.055-3.602-0.083
			c-0.162-0.757-0.277-1.519-0.333-2.258C384.981,489.128,386.307,489.146,387.645,489.159z"/>
		<path fill="#868888" d="M371.631,488.489c2.803,0.292,6.584,0.483,10.809,0.588c0.046,0.74,0.15,1.497,0.303,2.252
			c-5.634-0.143-9.97-0.309-11.017-0.422C371.934,490.118,371.824,489.387,371.631,488.489z"/>
		<path fill="#868888" d="M338.033,495.251c-4.826-1.235-9.819-3.024-11.507-4.92c3.47,1.244,7.418,2.107,11.471,2.697
			C337.987,493.77,337.996,494.511,338.033,495.251z"/>
		<path fill="#868888" d="M343.491,493.662c0.011,0.928,0.031,1.853,0.07,2.779c-1.319-0.228-2.776-0.524-4.301-0.887
			c-0.046-0.788-0.066-1.572-0.059-2.359C340.627,493.383,342.063,493.535,343.491,493.662z"/>
		<path fill="#868888" d="M299.361,486.622c0.154-0.722,0.344-1.448,0.393-2.177c5.943-0.445,11.338,0.93,16.638,2.724
			c-0.062,0.516-0.086,1.049-0.094,1.589C310.664,487.792,304.914,486.639,299.361,486.622z"/>
		<path fill="#8D7761" d="M306.505,475.302c-3.952,0.632-6.404,4.964-6.175,7.341c9.935-1.806,20.616,5.214,30.358,7.31
			c18.103,3.893,39.115,1.369,39.109,1.332c-0.783-5.647-3.187-9.323-8.324-11.779c-7.745-3.706-13.736-1.716-20.21-0.56
			c-2.377,0.426-5.089,0.871-7.865,1.093c-1.255,1.271-1.255,3.077-0.481,3.94c0.237-0.14,0.512-0.23,0.81-0.23
			c0.724,0,1.266,0.748,1.207,1.409c-0.066,0.751-0.714,1.185-1.436,1.185c-0.722,0-1.266-0.748-1.209-1.409
			c0.018-0.2,0.083-0.373,0.171-0.525c-0.579-0.7-1.479-2.149-0.698-4.269c-0.816,0.037-1.629,0.042-2.438,0.026
			c-1.053,1.335-0.588,2.924-0.285,3.56c0.213-0.108,0.45-0.184,0.711-0.184c0.718,0,1.262,0.731,1.209,1.392
			c-0.062,0.748-0.702,1.187-1.42,1.187c-0.72,0-1.264-0.731-1.211-1.393c0.018-0.198,0.079-0.373,0.167-0.525
			c-0.511-0.692-1.387-2.227-0.856-4.113c-0.682-0.053-1.352-0.134-2.013-0.235c-1.13,0.887-0.937,2.122-0.388,2.937
			c0.081-0.018,0.153-0.051,0.246-0.051c1.611,0,1.547,2.449-0.061,2.449c-1.247,0-1.479-1.455-0.779-2.118
			c-0.828-0.336-1.117-2.329-0.672-3.54c-1.203-0.292-2.353-0.689-3.415-1.233C315.815,479.869,309.485,477.86,306.505,475.302z"/>
		<path fill="#7D634A" d="M370.598,481.418c0.175,0.775,0.656,1.262,1.22,1.697c-0.187,0.224-0.296,0.522-0.27,0.803
			c0.052,0.628,0.594,0.999,1.198,0.999c0.608,0,1.064-0.623,1.018-1.178c-0.053-0.63-0.592-0.997-1.198-0.997
			c-0.061,0-0.108,0.029-0.163,0.042c-0.219-0.492-0.378-1.038-0.463-1.527c0.72-0.094,1.444-0.222,2.17-0.413
			c0.165,0.647,0.498,1.198,0.913,1.699c-0.547,0.704-0.268,1.99,0.9,1.99c1.598,0,1.646-2.436,0.044-2.436
			c-0.173,0-0.32,0.04-0.456,0.092c-0.171-0.518-0.239-1.071-0.206-1.596c0.002-0.035,0.009-0.068,0.013-0.105
			c0.075-0.022,0.153-0.057,0.228-0.083c0.849,0.321,1.708,0.612,2.572,0.88c0.347,0.388,0.751,0.707,1.071,0.935
			c-0.169,0.248-0.23,0.557-0.072,0.895c0.049,0.11,0.105,0.224,0.156,0.338c0.329,0.711,1.398,0.739,1.907,0.235
			c0.419-0.41,0.441-1.108,0.094-1.56c0.635,0.134,1.273,0.252,1.918,0.342c5.487,0.784,11.234,0.976,16.758,0.423
			c4.271-0.426,8.412-1.345,12.492-2.489c1.326,2.094,1.791,4.323,1.301,6.229c-7.163,1.33-34.561,0.854-42.254,0.639
			c-0.411-2.188-1.648-4.277-3.342-6.103c0.803,0.173,1.617,0.213,2.44,0.193C370.589,481.379,370.595,481.399,370.598,481.418z"/>
		<path fill="#7D634A" d="M308.015,479.796c5.748,2.237,11.7,3.997,17.678,5.548c6.406,1.664,13.335,2.383,19.95,2.047
			c5.991-0.305,14.245-1.483,18.674-6.165c3.2,2.374,4.861,5.592,5.48,10.06c0.005,0.037-21.007,2.561-39.109-1.332
			c-9.742-2.096-20.423-9.116-30.358-7.31c-0.138-1.426,0.693-3.547,2.227-5.155C304.505,478.58,306.867,479.348,308.015,479.796z"
			/>
		<path fill="#6581A2" d="M308.702,473.208c2.644,2.46,7.859,4.102,11.921,3.022c2.826-2.572,3.592-9.551,3.571-12.435
			c-0.029-3.753-0.373-7.853-1.804-12.286c-2.605,0.404-5.195,0.834-7.78,1.273c1.534,4.33,2.094,9.961,0.353,13.997
			C313.75,469.589,311.252,471.511,308.702,473.208z"/>
		<path fill="#536D97" d="M366.14,457.268c0.059-0.423,0.105-0.851,0.138-1.28c1.907,0.053,3.755,0.338,5.588,0.698
			c-0.033,0.445-0.079,0.893-0.134,1.347C369.856,457.67,367.994,457.407,366.14,457.268z"/>
		<path fill="#536D97" d="M364.556,474.773c-0.625,0.74-1.291,1.468-2.008,2.173c-2.372-1.418-4.841-2.19-8.058-2.451
			c0.208-0.41,0.507-0.762,0.869-1.099C358.364,474.283,361.45,474.795,364.556,474.773z"/>
		<path fill="#536D97" d="M369.95,455.003c-1.203-0.173-2.414-0.241-3.624-0.235c0.029-1.653-0.107-3.318-0.463-4.988
			c1.932,0.052,3.867,0.083,5.801,0.097c0.248,1.67,0.351,3.525,0.279,5.485C371.282,455.225,370.621,455.1,369.95,455.003z"/>
		<path fill="#536D97" d="M315.977,459.355c-0.027-0.368-0.062-0.735-0.105-1.1c2.537-0.571,5.171-0.836,7.864-0.878
			c0.055,0.382,0.097,0.755,0.141,1.133C321.255,458.602,318.577,458.837,315.977,459.355z"/>
		<path fill="#536D97" d="M315.694,457.064c-0.25-1.492-0.612-2.95-1.084-4.282c2.585-0.439,5.175-0.869,7.78-1.273
			c0.52,1.606,0.891,3.163,1.161,4.681C320.86,456.243,318.229,456.504,315.694,457.064z"/>
		<path fill="#D4E3E8" d="M249.808,444.113c9.696-3.404,22.548,1.71,32.466,0.338c0.307-0.04,0.426,0.399,0.11,0.467
			c-5.833,1.288-11.489,0.746-17.399,0.547c-5.434-0.187-10.339,0.354-15.588,1.054c-0.088,0.511-0.173,1.023-0.264,1.54
			c2.919-0.015,5.836,0.11,8.594,0.138c8.357,0.083,17.314,0.303,25.533-0.961c0.569-0.086,0.733,0.739,0.167,0.865
			c-12.894,2.917-25.697,2.377-38.788,3.628c-2.206,0.21-4.757,0.176-6.352,1.894c-1.125,1.211,5.389,2.941,6.093,3.112
			c5.767,1.392,11.884,1.488,17.776,1.348c10.6-0.255,20.799-3.059,31.078-5.291c10.229-2.221,20.577-3.964,30.942-5.441
			c9.331-1.328,18.532-2.098,27.96-1.953c9.898,0.153,19.745,0.887,29.636,0.533c-7.258-16.196,3.274-35.139,0.439-51.912
			c-0.068-0.408,0.549-0.577,0.643-0.16c3.095,13.695-2.746,30.166-0.07,44.005c3.463-1.899,7.249,0.202,12.839-0.053
			c0.299-0.013,0.296,0.397-0.009,0.465c-3.303,0.739-10.758-0.751-12.266,1.694c0.219,0.771,0.463,1.543,0.751,2.302
			c4.438,0.022,18.086,1.96,22.581,2.994c-10.506-16.265-3.518-40.467-2.239-58.237c1.624-22.605-1.097-45.445,0.702-68.036
			c-0.997-0.762-1.936-1.576-2.846-2.412c0.303,6.321-0.922,17.634-3.037,22.337c-0.228,0.507-1.003,0.555-1.19,0.018
			c-0.011-0.007-0.028-0.006-0.039-0.018c-1.617-1.694-3.432-3.878-5.829-4.707c0.555,0.961,4.176,7.367,4.26,9.578
			c-7.554-0.171-10.48,7.234-10.275,9.619c0.204,2.383,0.259,6.931,0.318,9.863c0.169,8.252-0.66,16.464-0.694,24.701
			c0,0.301-0.45,0.285-0.472-0.009c-0.492-6.799-0.709-13.479-0.698-20.294c0.011-7.378-0.645-14.783-1.446-21.968
			c-0.803-7.185-2.739-14.441-6.016-21.479c-3.977-8.548-13.512-21.064-16.644-25.109c1.424-1.22,5.55-1.6,8.397-1.383
			c-1.31-4.529-0.836-26.487,0.099-31.914c-3.456,0-3.408-3.156-3.081-5.181c0.406-2.5,1.802-5.86,2.95-8.557
			c1.822-4.279-0.568-6.788-3.514-9.85c-1.065-1.106-2.901-2.453-5.397-4.124c-1.097,5.395-0.437,20.426-2.399,35.363
			c-1.352,10.28,0.47,22.813-3.805,31.059c1.802,1.303,1.619,3.764,0.821,5.368c-0.006,0.013,2.133,3.378-0.092,4.508
			c0.494,4.047,2.014,14.553,3.794,20.23c1.935,6.171,4.835,10.76,7.929,16.331c2.126,3.821,7.822,15.031,4.938,18.949
			c-0.185,0.25-1.24,0.647-1.821,0.384c0.636,9.287-12.667,17.599-18.784,22.41c-3.309,2.603-6.604,5.364-7.087,9.7
			c-0.211,1.907-1.848,2.895-3.568,3.092c-2.923,0.336-5.289-3.231-4.4-6.705c-8.024-4.719-15.26-10.194-23.878-13.844
			c-2.574-1.091-3.819-2.388-3.544-5.032c0.182-1.743,1.073-4.009,1.672-5.743c0.746-2.155,0.977-4.547,1.433-6.805
			c-0.125-0.121-0.198-0.292-0.21-0.463c-0.16-2.48-0.251-5.401,0.344-7.918c3.02,0.45,3.275,3.099,3.174,4.141
			c5.339,1.266,1.424,10.747-0.825,14.471c0.873-0.186,1.791-0.138,2.726,0.084c2.239-2.105,1.045-5.416,3.051-8.721
			c0.478-3.281,0.939-5.454,1.62-5.665c1.512,0.63,2.3,1.955,1.738,4.076c4.484,1.262,0.052,9.713-1.824,12.562
			c0.604,0.426,0.99,0.761,1.582,1.255c2.86-2.219,2.776-8.669,5.252-9.384c0-2.135,0.885-4.673,1.082-4.6
			c2.105,0.762,2.697,3.244,1.268,5.124c0.511,0.358,0.81,0.86,1.11,1.448c0.461-1.093,0.994-2.243,1.973-2.078
			c1.374,1.793,0.074,4.122-0.48,4.885c0.342,0.461,0.47,1.17,0.422,1.87c-0.209,3.149-2.642,6.298-5.166,8.134
			c0.529,0.608,1.011,1.194,1.468,1.756c2.884-2.704,13.096-7.368,14.739-8.188c-1.218-1.062-2.328-1.984-2.372-3.827
			c-1.683-0.66-4.538-3.286-3.577-6.926c0.259-0.976,1.143-1.345,1.969-0.806c1.09,0.715,2.655,1.888,4.887,3.466
			c2.272-0.09,4.279,2.425,6.81,3.088c0.915-0.691,1.826-1.391,2.748-2.087c2.474-5.5-4.154-15.847-7.837-27.852
			c-2.085-6.812-4.598-13.965-5.248-20.981c-1.319-14.208-0.513-20.979,0.897-42.337c0.933-14.149,0.296-29.604-1.13-43.726
			c-4.324-8.925-6.845-25.151,2.831-31.034c0.362-0.219,0.766,0.334,0.435,0.599c-6.696,5.379-5.853,13.181-4.113,20.763
			c-0.336-8.127,0.891-17.004,8.97-20.509c0.369-0.158,0.689,0.358,0.316,0.546c-10.591,5.294-6.555,20.639-5.746,29.974
			c1.415,16.337,0.663,32.556,0.145,48.901c-0.233,7.425-0.702,14.827-0.682,22.26c0.027,9.049,0.88,19.078,2.893,26.171
			c1.921,6.792,4.596,14.851,8.033,22.267c2.008,4.336,3.127,7.064,3.224,10.471c6.466-3.604,11.136-1.655,12.042-0.518
			c1.821-5.581-6.76-17.616-9.09-21.788c-5.212-9.338-6.645-20.779-7.538-31.386c-1.064-0.145-2.059-0.329-2.98-1.098
			c-0.413-0.345-0.167-1.244,0.281-1.016c1.13,0.577,3.604,1.062,2.864-1.769c-0.327-1.242-3.784-2.539-6.448-2.517
			c-0.367,0.004-0.456-0.575-0.079-0.638c1.947-0.34,4.113-0.222,5.811,0.535c1.457-1.345-1.018-4.016-3.786-5.081
			c-0.401-0.154-0.25-0.704,0.171-0.626c1.444,0.25,2.627,0.448,3.836,1.207c2.392-8.98,1.053-18.361,1.308-27.585
			c0.36-13.073,2.873-26.299,3.955-39.302c-7.203-4.909-16.772-11.996-12.069-15.564c2.364-1.793,5.489-0.632,7.855,0.638
			c2.065,1.106,4.192,2.574,6.27,4.227c4.049-1.574,8.614,1.157,13.245,5.162c-0.45-6.406-0.018-11.998,1.642-18.227
			c1.033-3.873,2.171-8.333,4.833-11.572c1.541-1.874,3.558-3.786,5.776-4.933c-9.174,1.918-10.855,10.951-13.436,19.087
			c-0.097,0.305-0.625,0.22-0.569-0.105c1.2-7.148,2.959-18.237,14.38-21.777c-3.327-1.077-8.515,1.271-11.608,4.896
			c-3.896,4.561-2.879,12.253-3.437,17.803c-0.028,0.272-0.478,0.347-0.514,0.044c-1.183-9.834-1.047-18.953,9.079-23.777
			c4.267-2.032,9.604-1.648,14.173-1.352c3.309,0.211,6.58,0.496,9.902,0.355c1.174-0.048,2.276-0.274,3.353-0.573
			c-0.676-0.599-1.461-1.152-2.471-1.624c-3.002-1.402-6.404-1.936-9.67-2.36c-5.801-0.752-12.553-1.1-18.273,0.248
			c-0.299,0.074-0.402-0.364-0.114-0.45c7.864-2.35,18.553-1.978,24.663-1.086c-3.097-4.462-17.09-1.819-23.289-7.02
			c-0.314-0.264-0.138-0.839,0.316-0.691c1.855,0.608,3.72,0.939,5.588,1.137c-3.413-2.138-5.699-5.654-9.509-8.678
			c-0.197-0.158,0.059-0.465,0.268-0.34c4.944,2.927,8.215,7.277,14.281,8.089c5.474,0.739,10.181-0.084,15.553,1.716
			c4.74,1.589,10.352,5.732,12.848,10.73c0.421-0.604-0.213-2.324-0.834-3.498c-1.797-3.41-5.214-5.748-8.88-6.992
			c-7.102-2.408-14.403-1.001-20.458-6.123c-0.193-0.165,0.057-0.458,0.268-0.342c5.296,2.886,11.371,3.119,17.222,3.996
			c4.868,0.728,8.092,2.71,11.618,5.983c1.999,1.859,4.176,5.285,4.692,8.476c0.807,0.296,1.435-3.891-3.09-9.443
			c-0.198-0.244,0.13-0.549,0.354-0.334c1.982,1.888,5.193,5.28,5.583,8.48c1.161-1.117-0.114-3.887-0.801-5.215
			c-0.149-0.283,0.252-0.472,0.428-0.226c0.683,0.959,1.37,1.87,1.901,2.886c-8.166-28.306-29.121-51.995-57.724-61.988
			c-28.223-9.859-59.02-1.835-82.284,15.535c-49.21,36.739-61.415,104.065-51.076,160.605c2.253,12.327,6.365,24.031,9.995,35.993
			c3.648,12.016,6.338,24.292,8.059,36.716C255.264,398.469,253.585,421.381,249.808,444.113z"/>
		<path fill="#BACDD4" d="M418.809,184.627c3.23,4.749,2.66,8.144,1.931,7.877c-0.479-2.958-2.379-6.094-4.245-8.021
			C417.267,184.519,418.039,184.568,418.809,184.627z"/>
		<path fill="#BACDD4" d="M424.05,185.23c0.375,1.132,0.735,2.272,1.065,3.422c-0.531-1.016-1.218-1.927-1.901-2.886
			c-0.176-0.246-0.577-0.057-0.428,0.226c0.687,1.328,1.962,4.098,0.801,5.215c-0.276-2.271-1.971-4.629-3.643-6.487
			C421.318,184.848,422.69,185.007,424.05,185.23z"/>
		<path fill="#BACDD4" d="M359.177,250.308c0.182-5.418,0.322-9.782,0.812-12.202c2.496,1.672,4.332,3.018,5.397,4.124
			c2.947,3.062,5.337,5.572,3.514,9.85c-0.806,1.896-1.727,4.106-2.35,6.128C365.425,254.676,362.69,251.764,359.177,250.308z"/>
		<path fill="#BACDD4" d="M368.932,297.732c-0.952-0.072-2.045-0.07-3.132-0.002c-2.307-10.78-2.03-22.19,0.784-32.85
			c0.492,0.568,1.264,0.939,2.447,0.939C368.096,271.245,367.622,293.203,368.932,297.732z"/>
		<path fill="#BACDD4" d="M398.742,343.539c-0.38-0.298-1.062-0.151-1.04,0.423c0.095,2.21,0.619,4.339,0.999,6.507
			c-4.38-3.303-9.683-0.496-12.448,3.86c-0.02-0.329-0.042-0.641-0.066-0.919c-0.206-2.385,2.721-9.79,10.275-9.619
			c-0.084-2.212-3.705-8.618-4.26-9.578c2.397,0.829,4.212,3.013,5.829,4.707c0.011,0.013,0.027,0.011,0.039,0.018
			c0.187,0.536,0.963,0.489,1.19-0.018c2.114-4.703,3.34-16.016,3.037-22.337c0.909,0.836,1.848,1.65,2.846,2.412
			c-0.373,4.694-0.546,9.398-0.61,14.109c-0.961,3.97-2.153,7.885-3.556,11.737C400.205,344.459,399.466,344.103,398.742,343.539z"
			/>
		<path fill="#BACDD4" d="M381.279,377.468c-3.031,0.535-5.416,3.727-6.29,6.696c-2.892-1.58-4.938-5.228-3.127-8.278
			C374.284,371.817,380.313,373.299,381.279,377.468z"/>
		<path fill="#BACDD4" d="M387.014,438.554c0.601,1.415,1.339,2.78,2.23,4.089c-2.131-0.224-3.97-0.366-5.146-0.371
			c-0.288-0.759-0.533-1.53-0.751-2.302C383.912,439.053,385.313,438.691,387.014,438.554z"/>
		<path fill="#BACDD4" d="M383.746,410.959c0.522,4.574,0.489,9.123,0.654,13.714c0.156,4.339,0.663,8.526,2.039,12.397
			c-1.291-0.024-2.493,0.156-3.656,0.795c-1.72-8.897,0.075-18.885,0.755-28.522C383.607,409.881,383.686,410.419,383.746,410.959z"
			/>
		<path fill="#BACDD4" d="M341.872,376.336c0.044,1.843,1.154,2.765,2.372,3.827c-0.648,0.323-2.644,1.253-4.991,2.419
			c-2.047-4.554-4.06-10.163-0.955-10.326C338.876,374.385,340.673,375.864,341.872,376.336z"/>
		<path fill="#BACDD4" d="M316.409,377.688c-0.935-0.222-1.854-0.27-2.726-0.084c0.836-1.391,1.909-3.582,2.645-5.851
			c0.671,0.018,1.354,0.149,1.966,0.389C317.869,374.291,317.924,376.266,316.409,377.688z"/>
		<path fill="#BACDD4" d="M339.916,405.501c1.72-0.197,3.356-1.185,3.568-3.092c0.483-4.336,3.779-7.097,7.087-9.7
			c3.134-2.463,8.155-5.851,12.218-9.815c-0.917,2.012-2.015,3.939-3.384,5.737c-3.448,4.53-7.815,8.27-11.489,12.617
			c-1.714,2.025-3.652,4.108-4.918,6.441c-0.944,1.745-1.714,3.625-2.835,5.271c-1.556,2.3-4.898,4.914-7.383,1.982
			c-1.209-1.424-1.971-3.141-3.161-4.576c-3.428-4.132-7.85-7.144-12.477-9.858c-2.142-1.255-4.29-2.496-6.448-3.727
			c-2.039-1.165-4.666-2.491-5.789-4.644c-2.399-4.596,1.075-11.285,1.852-16.01c0.243-1.464,0.268-2.974,0.566-4.422
			c0.059-0.349,0.141-0.693,0.241-1.029c0.263-1.328,1.2-1.387,2.807-0.173c0.07,0.153,0.131,0.307,0.189,0.461
			c-0.2,1.097-0.437,2.182-0.793,3.213c-0.599,1.734-1.49,3.999-1.672,5.743c-0.276,2.644,0.97,3.94,3.544,5.032
			c8.618,3.65,15.854,9.125,23.878,13.844C334.627,402.27,336.993,405.837,339.916,405.501z"/>
		<path fill="#BACDD4" d="M269.174,442.836c2.978,0.772,6.018,1.174,9.004,1.848c-9.185-0.075-19.963-3.523-28.37-0.571
			c0.097-0.591,0.189-1.181,0.285-1.773C256.265,439.663,262.642,441.142,269.174,442.836z"/>
		<path fill="#BACDD4" d="M257.727,448.196c-2.757-0.027-5.675-0.152-8.594-0.138c0.092-0.516,0.176-1.029,0.264-1.54
			c5.105-0.68,9.889-1.205,15.147-1.064c4.58,0.656,9.139,1.653,13.706,2.361C271.483,448.402,264.414,448.264,257.727,448.196z"/>
		<path fill="#BACDD4" d="M286.244,453.832c9.503-3.658,19.025-7.348,29.237-8.552c10.073-1.185,20.287-1.22,30.42-1.55
			c8.97-0.292,17.992,0.029,26.689,2.26c-6.815-0.112-13.622-0.487-20.454-0.592c-9.428-0.145-18.63,0.625-27.96,1.953
			c-10.365,1.477-20.713,3.22-30.942,5.441c-3.461,0.751-6.915,1.563-10.374,2.324C283.99,454.692,285.118,454.266,286.244,453.832z
			"/>
		<path fill="#BACDD4" d="M282.484,452.455c9.896-5.75,20.333-8.886,31.678-10.556c11.559-1.705,23.039-1.6,34.614-1.246
			c7.697,0.237,21.591,1.277,23.18,3.926c-8.493-2.048-17.331-2.381-26.055-2.045c-10.535,0.41-21.139,0.354-31.607,1.707
			c-10.299,1.326-19.837,5.212-29.452,8.853c-3.152,1.192-6.319,2.357-9.483,3.533c-0.017,0.004-0.033,0.005-0.051,0.007
			C277.735,455.291,280.103,453.836,282.484,452.455z"/>
		<path fill="#BACDD4" d="M268.48,176.379c-2.203,36.216-19.409,70.67-37.358,102.933c-0.167-2.48-0.293-4.969-0.372-7.462
			c8.398-12.869,15.34-26.682,20.887-40.926c5.735-14.73,9.836-29.832,13.137-45.243c1.168-5.456,2.458-11.166,3.36-16.934
			C268.29,171.29,268.41,173.832,268.48,176.379z"/>
		<path fill="#BACDD4" d="M252.168,428.514c2.146-9.683,5.074-19.186,5.991-29.117c0.323-3.49,0.461-6.931,0.441-10.346
			C259.067,402.547,257.219,415.943,252.168,428.514z"/>
		<path fill="#BACDD4" d="M300.039,430.221c6.263-0.366,14.483-1.034,22.44-0.875c7.954,0.16,12.178,2.511,8.037,3.485
			c-4.142,0.976-12.437,4.152-16.949,4.909c-6.191,1.038-12.184,0.781-18.393,0.079c-5.361-0.606-11.175-2.177-16.581-1.506
			c-3.226,0.399-13.885,2.118-11.623-0.988c2.263-3.11,10.214-1.695,14.752-2.203C287.899,432.434,293.798,430.586,300.039,430.221z
			"/>
		<path fill="#BACDD4" d="M238.821,321.966c11.74,11.928,14.486,30.37,17.361,46.213c-0.391-1.681-0.816-3.364-1.303-5.05
			c-3.516-12.172-8.662-23.693-14.188-35.062C240.057,326.037,239.431,324.001,238.821,321.966z"/>
		<path fill="#BACDD4" d="M267.545,196.169c-2.063,14.829-7.997,28.816-12.553,43.006c-2.361,7.358-4.519,14.855-7.828,21.87
			c-2.767,5.875-6.15,11.524-9.288,17.219c-1.911,3.465-3.861,6.953-5.902,10.392c-0.264-2.377-0.504-4.763-0.69-7.163
			c16.207-29.06,31.947-59.879,36.958-92.184C268.085,191.591,267.862,193.877,267.545,196.169z"/>
		<path fill="#BACDD4" d="M267.734,162.97c-0.891,9.362-3.307,18.762-5.234,27.593c-3.38,15.485-8.028,30.736-14.199,45.379
			c-4.919,11.674-10.778,23.004-17.617,33.703c-0.837-40.002,9.911-81.334,36.694-111.203
			C267.501,159.952,267.618,161.463,267.734,162.97z"/>
		<path fill="#BACDD4" d="M243.081,335.731c4.033,8.68,7.678,17.511,10.336,26.714c3.534,12.237,4.784,24.277,3.525,36.951
			c-0.702,7.062-2.386,13.905-4.064,20.753c1.281-14.836,1.269-29.729-0.794-44.637c-1.721-12.424-4.411-24.699-8.059-36.716
			C243.715,337.772,243.397,336.751,243.081,335.731z"/>
		<path fill="#BACDD4" d="M325.785,374.646c-0.808,2.243-1.457,5.19-3.209,6.549c-0.591-0.494-0.977-0.828-1.582-1.255
			c0.825-1.253,2.146-3.593,2.983-5.926C324.72,373.995,325.326,374.223,325.785,374.646z"/>
		<path fill="#BACDD4" d="M346.873,345.22c3.683,12.005,10.312,22.352,7.837,27.852c-0.922,0.696-1.833,1.396-2.748,2.087
			c-1.863-0.489-3.441-1.975-5.052-2.691c1.049-6.125-1.356-12.431-3.571-18.079c-3.105-7.919-5.625-15.617-6.127-24.165
			c-1.054-17.943,0.999-35.944,1.332-53.881c0.169-9.145,0.031-18.328-1.084-27.416c-0.72-5.888-2.129-11.673-2.744-17.57
			c-0.79-7.569-0.911-19.175,6.994-22.184c-6.641,6.988-4.214,20.959-0.318,29.004c1.426,14.121,2.063,29.577,1.13,43.726
			c-1.409,21.358-2.216,28.129-0.897,42.337C342.275,331.254,344.788,338.408,346.873,345.22z"/>
		<path fill="#BACDD4" d="M398.009,406.892c1.132-10.82,4.732-21.181,6.929-31.77c-0.066,3.975-0.213,7.944-0.498,11.908
			c-0.955,13.256-5.083,30.091-2.756,44.543C398.048,424.201,397.106,415.552,398.009,406.892z"/>
		<path fill="#BACDD4" d="M387.992,373.714c-0.281,3.145-1.218,6.141-2.067,9.161c0.209-6.094,0.639-12.182,0.59-18.29
			C387.347,367.58,388.273,370.566,387.992,373.714z"/>
		<path fill="#BACDD4" d="M377.594,397.308c-0.518,3.435,0.474,6.827,1.826,10.003c-3.018,1.874-8.893,0.432-8.923-3.446
			C370.468,400.3,373.955,397.016,377.594,397.308z"/>
		<path fill="#BACDD4" d="M373.332,348.115c1.655-0.092,4.341-0.116,5.913,0.913c1.33,1.585,2.379,3.152,2.524,5.313
			c0.116,1.742-0.178,2.765-1.909,1.527c-1.993-1.42-3.727-2.374-5.976-3.389c-1.032-0.465-2.778-1.067-3.354-2.107
			C369.606,348.704,372.213,348.179,373.332,348.115z"/>
		<path fill="#BACDD4" d="M382.301,339.938c-1.979-5.937-5.283-11.357-8.614-17.009c-3.384-5.756-6.865-12.97-13.449-15.681
			c1.668-0.81,3.366-1.365,5.201-1.613c4.036,5.532,9.104,12.926,11.741,18.589C379.582,329.384,381.255,334.658,382.301,339.938z"
			/>
		<path fill="#BACDD4" d="M358.046,237c-0.185,2.228-0.421,4.462-0.672,6.703c-6.298-2.138-18.016-12.103-12.229-18.277
			C346.785,229.044,352.994,233.555,358.046,237z"/>
		<path fill="#BACDD4" d="M413.898,184.381c0.942,0.919,1.762,1.953,2.379,3.125c0.621,1.174,1.255,2.893,0.834,3.498
			c-1.255-2.515-3.301-4.813-5.625-6.678C412.287,184.34,413.093,184.359,413.898,184.381z"/>
		<path fill="#BACDD4" d="M386.754,185.494c3.623-0.952,7.337-1.328,11.201-1.392c1.374,0.445,2.471,1.049,3.099,1.958
			C397.396,185.527,392.101,185.185,386.754,185.494z"/>
		<path fill="#BACDD4" d="M393.665,191.551c-4.569-0.296-9.906-0.68-14.173,1.352c-10.126,4.824-10.262,13.943-9.079,23.777
			c0.037,0.303,0.487,0.228,0.514-0.044c0.558-5.55-0.459-13.242,3.437-17.803c3.094-3.624,8.281-5.972,11.608-4.896
			c-11.421,3.54-13.181,14.629-14.38,21.777c-0.055,0.325,0.472,0.41,0.569,0.105c2.581-8.136,4.262-17.169,13.436-19.087
			c-2.217,1.146-4.234,3.059-5.776,4.933c-2.662,3.239-3.801,7.699-4.833,11.572c-1.661,6.229-2.092,11.822-1.642,18.227
			c-2.225-1.92-4.431-3.544-6.573-4.545c-2.715-6.827-4.486-14.222-2.155-21.431c2.249-6.944,7.244-12.76,13.609-16.477
			c1.54-0.902,3.092-1.642,4.657-2.258c4.005-0.2,8.146,0.11,11.893,0.595c3.266,0.424,6.669,0.959,9.67,2.36
			c1.01,0.472,1.795,1.025,2.471,1.624c-1.077,0.299-2.179,0.525-3.353,0.573C400.245,192.047,396.973,191.762,393.665,191.551z"/>
		<path fill="#E3B895" d="M344.861,373.07c-1.563,0.026-2.135,1.677-2.048,3.101c0.085,1.422,1.879,2.89,3.002,3.156
			c1.791-1.018,3.463-2.173,5.1-3.386C348.748,375.625,346.888,373.036,344.861,373.07z"/>
		<path fill="#BDB3AA" d="M344.604,372.221c-2.495-1.721-3.654-2.405-4.571-3.033c-1.209-0.83-2.333,3.729,1.799,5.934
			C341.891,374.216,342.3,372.316,344.604,372.221z"/>
		<path fill="#E3B895" d="M330.246,389.273c0.544,0.691,1.021,1.317,1.389,1.819c0.18,0.246-0.068,0.568-0.351,0.411
			c-3.23-1.787-5.695-5.151-8.489-7.501c-1.99-1.673-3.961-3-6.404-3.937c-1.37-0.527-3.331-0.797-4.124-0.955
			c-0.437-0.084-0.369-0.784,0.033-1.001c0.235-0.129,0.476-0.23,0.72-0.316c0.887-1.918,2.3-5.98,2.599-8.243
			c0.299-2.261,0.597-4.523-1.279-4.94c0.04,0.834-0.173,2.471-0.301,2.721c-0.468,0.209-1.407,0.377-2.127,0.169
			c0.237,2.373-0.119,4.828-0.689,7.161c-0.452,1.852-1.281,3.562-1.538,5.405c-0.395,2.844,3.637,3.759,5.441,4.519
			c7.919,3.338,14.61,9.395,22.149,13.523c0.608,0.331,0.731,1.269-0.22,1.269c0.345,3.487,4.054,4.234,4.075,1.53
			c0.005-0.793,0.02-2.384,0.492-3.057c2.447-3.494,5.208-6.014,8.634-8.608c6.665-5.045,16.043-10.745,17.404-19.565
			c-1.637-2.203-7.664-1.315-10.574,3.154C350.111,381.485,338.951,382.54,330.246,389.273z"/>
		<path fill="#E3B895" d="M331.052,377.039c-0.009,0-0.013-0.004-0.02-0.004c-0.983,2.746-3.794,5.462-5.296,7.051
			c0.465,0.481,1.154,1.214,1.587,1.696c1.361-0.816,3.206-2.803,4.22-4.962C332.31,379.185,332.768,377.003,331.052,377.039z"/>
		<path fill="#BDB3AA" d="M332.268,376.126c0.992-1.189,1.22-3.121,0.67-3.843c-0.724,0.294-1.262,2.803-1.398,3.592
			C331.798,375.875,332.053,376.003,332.268,376.126z"/>
		<path fill="#E3B895" d="M328.085,372.818c-0.953,0.595-1.325,2.01-1.921,3.895c-0.597,1.885-1.793,4.062-2.903,5.022
			c0.608,0.527,1.201,1.078,1.778,1.644c2.3-2.28,5.171-5.598,5.168-8.833C330.205,373.461,329.039,372.219,328.085,372.818z"/>
		<path fill="#BDB3AA" d="M329.634,371.953c0.843-1.31,0.742-3.485-0.54-3.709c-0.322,1.302-0.445,2.948-0.487,3.4
			C328.954,371.655,329.301,371.765,329.634,371.953z"/>
		<path fill="#BDB3AA" d="M320.287,369.107c0.206-0.015,0.573,0.127,0.753,0.151c1.282-1.82,1.782-4.247,0.178-4.964
			C320.489,365.999,320.23,367.83,320.287,369.107z"/>
		<path fill="#E3B895" d="M321.15,370.518c-0.478-0.101-0.887-0.237-1.178-0.382c-1.464,1.47-0.636,6.303-2.897,7.736
			c0.935,0.299,1.888,0.775,2.836,1.358c1.043-1.385,2.118-3.369,2.836-5.197c0.854-2.173,1.409-4.817-0.299-5.779
			C322.265,368.789,321.455,370.584,321.15,370.518z"/>
		<path fill="#D7A277" d="M521.466,294.548c1.585,3.176-1.082,9.253-5.111,11.004C519.201,302.434,521.451,298.553,521.466,294.548z
			"/>
		<path fill="#D7A277" d="M496.697,288.978c0.321-0.421,0.768-0.788,1.374-1.076c0.32,1.572,0.841,3.343,1.569,5.199
			C498.466,292.768,497.42,290.846,496.697,288.978z"/>
		<path fill="#D7A277" d="M499.283,321.049c4.493,1.065,8.338-5.945,8.089-9.505c-0.344-4.927-4.411-7.833-7.143-11.575
			c-1.503-2.057-4.242-5.992-4.183-8.961c0.828,2.651,2.405,4.709,5.061,5.386c2.471,4.931,6.119,9.602,10.35,11.096
			c-0.344,1.429,0.081,3.909,1.31,5.902c-3.411,2.423-10.662,11.491-11.529,12.586c-1.317-1.936-2.952-3.981-4.469-6.105
			C497.521,320.414,498.35,320.827,499.283,321.049z"/>
		<path fill="#D7A277" d="M545.401,321.518c0.035,0.015,1.4,1.178,1.927,1.179c-0.084,0.116-0.165,0.237-0.233,0.397
			c-0.074,0.171-0.004,0.439,0.138,0.559c0.869,0.748,2.127,0.492,3.303-0.061c0.972,1.484,2.241,2.719,3.874,3.512
			c-0.367,0.158-0.742,0.285-1.093,0.371c-1.275,0.31-2.361,0.143-3.525,0.062C547.043,326.134,544.794,323.732,545.401,321.518z"/>
		<path fill="#D7A277" d="M539.765,340.199c-0.239,0.198-0.472,0.41-0.687,0.645c-0.195,0.217-0.084,0.604,0.219,0.652
			c0.577,0.09,1.1,0.005,1.58-0.191c1.372,1.403,2.895,2.522,4.839,3.053c-0.298,0.7-0.652,1.376-1.148,1.909
			c-0.004,0.002-0.009,0.006-0.013,0.008c-2.524,0.737-4.975-0.406-6.202-2.603c-0.647-1.161-0.922-2.758-0.898-4.541
			c0.119,0.101,0.244,0.198,0.375,0.286C538.416,339.817,539.094,340.107,539.765,340.199z"/>
		<path fill="#D7A277" d="M529.473,352.459c1.962,0.977,4.233,1.223,6.325,0.628c-0.013,0.029-0.02,0.059-0.031,0.088
			c-1.345,2.927-4.835,3.49-7.212,1.22c-0.786-0.753-1.312-1.541-1.653-2.353C527.706,352.432,528.676,352.577,529.473,352.459z"/>
		<path fill="#D7A277" d="M525.764,358.426c-0.342,1.031-0.999,1.901-1.837,2.388c-1.679,0.981-4.152,0.759-5.712-0.371
			c-0.825-0.597-1.332-1.37-1.607-2.208c0.588,0.389,1.24,0.659,1.9,0.762C520.876,359.89,523.786,359.753,525.764,358.426z"/>
		<path fill="#D7A277" d="M402.45,281.516c0.169,1.266,0.259,2.465,0.167,3.729c-1.6,0.32-3.193,0.777-4.789,1.4
			c0.154-1.212,0.095-2.629-0.086-4.054C399.286,282.087,400.857,281.738,402.45,281.516z"/>
		<path fill="#D7A277" d="M448.056,262.418c-0.465-0.088-0.841,0.518-0.441,0.836c1.247,0.996,2.805,1.519,4.387,1.619
			c-0.224,0.479-0.434,0.988-0.647,1.49c-2.364-0.382-5.015-1.955-6.215-3.13c-1.688-1.655-3.38-3.665-4.286-5.913
			c4.791,3.511,12.962,5.667,17.489,3.79C455.96,264.003,451.58,263.11,448.056,262.418z"/>
		<path fill="#D7A277" d="M399.556,274.45c-0.623,1.245-1.569,2.59-2.721,3.861c-0.29-0.97-0.608-1.819-0.928-2.44
			C397.025,275.279,398.239,274.807,399.556,274.45z"/>
		<path fill="#D7A277" d="M443.862,303.965c-0.086,0.068-0.182,0.138-0.259,0.197c-2.465,1.835-6.924,4.738-9.055,7.516
			c-0.217-1.304-0.86-2.622-2.023-3.915C435.581,305.24,439.931,304.964,443.862,303.965z"/>
		<path fill="#D7A277" d="M379.681,254.019c1.256,1.49-2.522,9.498-0.173,13.782c0.066,0.119,0.193,0.163,0.314,0.158
			c-0.476,3.61-0.961,7.222-1.374,10.835c-0.147-0.406-0.316-0.806-0.452-1.214c-2.234-6.746-1.927-12.327-1.249-19.069
			C377.686,257.103,378.647,255.54,379.681,254.019z"/>
		<path fill="#D7A277" d="M377.555,231.59c-0.22,1.602-0.347,2.923-0.338,3.246c-0.347-0.347-0.722-0.665-1.084-0.999
			c-0.768-2.561-1.128-5.432-1.13-8.395c0.277,0.738,0.551,1.475,0.838,2.203C376.361,228.963,376.951,230.276,377.555,231.59z"/>
		<path fill="#D7A277" d="M446.965,247.152c-0.761-1.192-0.136-2.55,0.95-3.535c0.09,0.145,0.21,0.281,0.371,0.402
			c3.579,2.666,7.738,4.44,11.792,6.329C455.724,249.202,451.347,248.171,446.965,247.152z"/>
		<path fill="#D7A277" d="M424.834,237.76c-3.57-0.757-6.955-1.934-10.413-3.051c-0.301-0.145-0.612-0.274-0.911-0.426
			c8.122,1.859,16.333,3.505,24.385,5.649C433.729,240.657,428.832,238.607,424.834,237.76z"/>
		<path fill="#D7A277" d="M395.685,197.768c-1.758,0.254-3.531,0.52-5.254,0.952c8.116-3.11,18.156-3.518,21.894-3.58
			c1.721,0.692,3.152,2.188,4.119,3.476C409.515,198.129,402.617,196.759,395.685,197.768z"/>
		<path fill="#D7A277" d="M441.037,199.9c-7.128-1.918-14.663-0.92-21.977-1.143c0.773-1.236,1.53-2.923,1.675-3.711
			c4.516,0.34,10.161,1.2,16.127,2.985c1.844,0.551,3.918,1.389,6.106,2.414C442.323,200.257,441.68,200.071,441.037,199.9z"/>
		<path fill="#D7A277" d="M404.314,201.965c-8.281,0.049-19.01,1.051-25.328,6.525c0.65-1.234,1.37-2.385,2.164-3.404
			c1.923-1.501,3.906-2.994,6.121-3.999c3.287-1.494,7.121-2.12,10.71-2.421c6.437-0.536,12.874,0.865,19.308,1.203
			c0.04,0.064,0.084,0.136,0.118,0.195c0.162,0.283,0.446,0.184,0.777-0.14h0.006c6.948,0.25,14.665-0.988,21.431,0.832
			c0.377,0.103,0.755,0.211,1.135,0.314C428.896,199.182,416.545,201.892,404.314,201.965z"/>
		<path fill="#D7A277" d="M446.703,225.529c1.212,0.57,2.43,1.132,3.676,1.626c0.345,0.136,4.83,2.149,1.712,2.88
			c-0.428,0.101-0.869,0.171-1.315,0.224c-7.08-0.92-15.646-5.498-17.263-12.554c2.032-0.16,3.772,2.414,5.276,3.369
			C441.34,222.695,443.958,224.242,446.703,225.529z"/>
		<path fill="#D7A277" d="M390.819,256.519c0.676-3.345,10.736,4.247,9.668,7.063c-1.065,2.818-9.622,6.759-10.693,6.963
			c-2.835,0.542-1.918-1.109-1.679-2.526C388.457,266.011,390.441,258.383,390.819,256.519z"/>
		<path fill="#D7A277" d="M453.085,235.479c-0.167,0.742-0.581,1.435-1.299,1.767c-0.044,0.02-0.066,0.046-0.099,0.072
			c-1.607-0.512-3.228-1.01-4.861-1.477C448.808,236.122,450.902,236.028,453.085,235.479z"/>
		<path fill="#D7A277" d="M442.918,234.768c-3.002-0.794-6.031-1.51-9.077-2.194c-1.29-1.473-2.083-2.923-2.26-4.999
			c-0.077-0.895-0.399-2.66,0.173-3.621C434.343,228.718,438.193,232.809,442.918,234.768z"/>
		<path fill="#D7A277" d="M438.656,238.297c-0.134-0.511-0.257-1.032-0.397-1.521c5.307,1.031,10.624,1.938,15.903,2.732
			C449.012,239.899,443.802,239.256,438.656,238.297z"/>
		<path fill="#D7A277" d="M437.786,236.688c0.132,0.492,0.272,1.003,0.406,1.521c-3.255-0.621-6.488-1.348-9.659-2.006
			c-4.302-0.895-8.686-1.806-12.892-3.077c-3.202-0.966-6.083-2.449-8.882-4.141C416.841,232.065,427.283,234.632,437.786,236.688z"
			/>
		<path fill="#D7A277" d="M410.211,222.46c1.343-1.843,2.587-4.166,4.22-5.159c2.616,0.827,4.808,3.314,6.419,5.32
			c2.394,2.98,4.923,5.816,7.365,8.723c-1.58-0.323-3.164-0.628-4.749-0.933c-1.721-2.814-3.628-5.585-5.612-8.217
			c-0.676-0.895-2.232-2.442-3.533-1.6c-0.889,0.577-1.291,1.356-1.708,2.306c-0.318,0.715-2.309,5.206-3.645,2.691
			c-0.47-0.885-0.656-2.072-0.601-3.252C408.804,222.913,409.702,223.161,410.211,222.46z"/>
		<path fill="#D7A277" d="M411.561,271.23c-0.972-3.917,0.845-6.961,3.751-8.992c-2.001,2.37-2.871,5.463-1.584,9.297
			c1.075,3.191,3.079,6.174,5.614,8.695C415.717,278.644,412.381,274.542,411.561,271.23z"/>
		<path fill="#D7A277" d="M436.31,250.976c-0.961,1.571-2.003,3.112-3.604,4.1c-1.003,0.621-2.056,1.108-3.141,1.51
			c-0.127-0.116-0.303-0.185-0.529-0.175c-2.86,0.125-6.116,0.876-8.934,2.252c-2.401,0.222-4.819,0.165-7.15-0.393
			c-4.925-1.181-9.024-3.953-11.605-8.3c-1.45-2.442-3.364-7.394-0.841-9.836c0.465,0.061,0.926,0.136,1.392,0.187
			c-3.648,4.558,0.581,11.645,4.519,14.658c0.211,0.162,0.512-0.116,0.303-0.294c-3.584-3.075-6.527-10.122-2.851-14.131
			C398.467,254.178,426.524,260.977,436.31,250.976z"/>
		<path fill="#D7A277" d="M437.971,279.396c-0.614,0.106-1.22,0.259-1.804,0.459c-2.092,0.72-3.217,1.804-4.071,3.557
			c-0.351-0.112-0.702-0.242-1.051-0.375C432.741,280.349,435.228,279.444,437.971,279.396z"/>
		<path fill="#D7A277" d="M423.838,271.269c0.41,2.16,0.474,5.041-1.11,6.777c-0.296-0.259-0.606-0.507-0.885-0.784
			c2.658-4.141,0.189-10.98-5.059-8.755l-0.007,0.024c-0.051-0.279-0.074-0.544-0.097-0.806
			C419.156,264.758,423.306,268.478,423.838,271.269z"/>
		<path fill="#D7A277" d="M437.793,280.669c1.729-0.311,3.395-0.322,4.973,0.272c-1.532,2.651-4.457,4.124-9.169,2.912
			c-0.105-0.026-0.211-0.066-0.314-0.092C434.216,282.023,435.61,281.058,437.793,280.669z"/>
		<path fill="#D7A277" d="M362.767,228.549c1.363-0.404,2.925-0.035,4.558,0.823c1.319,1.968,2.148,4.161,2.113,6.606
			C368.554,234.531,366.643,232.1,362.767,228.549z"/>
		<path fill="#D7A277" d="M392.601,293.745c3.432,1.567,6.391,4.246,9.145,6.755c3.812,3.474,8.197,7.53,10.528,12.154
			c0.909,1.804,2.067,5.159,1.143,7.333c-2.827-0.898-5.487-2.287-7.819-4.133c-5.575-4.418-9.983-9.88-14.37-15.395
			c-2.243-2.82-4.424-5.836-6.419-8.978C386.226,291.274,392.146,293.536,392.601,293.745z"/>
		<path fill="#D7A277" d="M413.578,295.251c3.169-0.937,6.419-0.79,9.679-0.999c0.178-0.013,0.312-0.088,0.406-0.189
			c2.531-0.057,5.273,0.353,7.324,1.352c2.489,1.213,2.708,3.184,0.696,5.221c-2.07,2.1-4.864,3.22-7.835,3.336
			c-2.682,0.109-5.796,0.006-8.315-0.97C412.388,301.782,408.604,296.723,413.578,295.251z"/>
		<path fill="#D7A277" d="M393.496,277.415c0.399,0.751,0.766,1.876,1.075,3.055c-2.423,2.004-5.269,3.428-7.877,3.312
			C388.918,281.473,391.036,279.212,393.496,277.415z"/>
		<path fill="#D7A277" d="M430.051,286.777c2.91,0.884,5.792,0.994,8.355,0.373c2.881,0.797,5.779,1.49,8.75,1.855
			c0.074,0.79,0.163,1.571,0.301,2.329c-4.145-0.472-8.846-1.545-12.657-2.456c-4.922-1.181-9.929-2.162-14.904-3.086
			c-2.585-0.479-5.118-0.854-7.62-1.038c0.134-0.768,0.435-1.944,0.731-3.224c3.288,0.371,6.562,0.981,9.747,1.591
			C425.022,284.74,427.513,286.007,430.051,286.777z"/>
		<path fill="#D7A277" d="M348.271,374.673c0.849,0.582,1.718,1.134,2.644,1.268c-1.637,1.212-3.309,2.368-5.1,3.386
			c-0.823-0.195-1.999-1.034-2.607-2.03C344.936,376.564,346.504,375.465,348.271,374.673z"/>
		<path fill="#D7A277" d="M345.741,391.932c1.71-3.024,4.367-5.428,7.13-7.53c2.565-1.955,5.115-3.755,7.405-6.027
			c2.175-2.155,4.297-4.345,6.742-6.195c-2.555,7.42-10.754,12.512-16.761,17.061c-2.012,1.523-3.786,3.024-5.408,4.706
			C345.096,393.253,345.379,392.574,345.741,391.932z"/>
		<path fill="#D7A277" d="M316.311,384.02c3.454,1.152,6.198,3.218,8.928,5.535c2.399,2.037,5.168,3.808,7.606,5.871
			c-5.825-3.772-11.381-8.169-17.718-10.842c-0.996-0.421-2.671-0.889-3.908-1.703C312.948,383.157,314.665,383.469,316.311,384.02z
			"/>
		<path fill="#D7A277" d="M330.381,378.415c-0.055,0.748-0.132,1.501-0.27,2.243c-0.349,0.964-0.676,1.934-0.902,2.937
			c-0.222,0.48-0.494,0.935-0.801,1.374c-0.378,0.331-0.748,0.608-1.086,0.812c-0.434-0.481-1.122-1.214-1.587-1.696
			C326.985,382.764,329.123,380.664,330.381,378.415z"/>
		<path fill="#D7A277" d="M326.544,381.182c0.094,0.127,0.217,0.191,0.342,0.23c-0.613,0.709-1.249,1.374-1.846,1.967
			c-0.577-0.566-1.17-1.117-1.778-1.644c0.564-0.489,1.148-1.29,1.668-2.208C325.548,379.994,326.088,380.572,326.544,381.182z"/>
		<path fill="#D7A277" d="M318.553,375.364c1.069,0.272,2.05,0.742,2.919,1.393c-0.492,0.911-1.03,1.769-1.56,2.473
			c-0.948-0.582-1.901-1.058-2.836-1.358C317.877,377.365,318.288,376.426,318.553,375.364z"/>
		<path fill="#BDB3AA" d="M311.904,366.464c0.428,0.189,1.111,0.253,1.58,0c0.129-0.946,0.257-2.901,0.173-4.196
			c-0.086-1.295-0.724-1.964-1.73-2.241C311.698,361.643,311.651,364.34,311.904,366.464z"/>
		<path fill="#AC9F94" d="M508.759,293.067c0.04-0.232,0.105-0.456,0.197-0.65c1.626,2.155,4.402,3.974,6.762,5.076
			c-0.105,0.299-0.213,0.59-0.331,0.876C512.848,297.603,510.034,295.582,508.759,293.067z"/>
		<path fill="#AC9F94" d="M514.858,299.46c-0.235,0.428-0.489,0.827-0.772,1.163c-1.929-0.907-3.711-2.535-4.729-4.668
			C510.888,297.584,512.914,298.837,514.858,299.46z"/>
		<path fill="#AC9F94" d="M554.599,316.6c0.05,0.386,0.068,0.807,0.046,1.268c-0.63,1.089-3.569,3.689-6.755,4.315
			c-0.119-0.037-0.231-0.099-0.344-0.158C550.067,320.45,552.422,318.61,554.599,316.6z"/>
		<path fill="#AC9F94" d="M539.575,334.083c0.241-0.867,0.492-1.727,0.761-2.581c-0.007,0.84-0.029,1.679-0.075,2.513
			c-0.305,1.325-0.672,2.634-1.22,3.854C539.147,336.602,539.223,335.349,539.575,334.083z"/>
		<path fill="#AC9F94" d="M540.341,330.679c-0.911,2.133-1.986,4.664-2.079,7.069c-0.263-0.27-0.491-0.581-0.636-0.946
			c0.242-3.174,1.297-6.476,2.697-8.803C540.332,328.89,540.343,329.786,540.341,330.679z"/>
		<path fill="#AC9F94" d="M542.61,325.357c0.244-0.154,0.487-0.285,0.733-0.366c0.702,2.88,0.603,5.867,0.14,8.368
			C543.641,330.609,543.303,327.819,542.61,325.357z"/>
		<path fill="#AC9F94" d="M528.796,344.658c-0.924,1.007-1.773,2.124-2.364,3.351c-0.022,0.015-0.042,0.026-0.062,0.035
			c0.415-1.211,1.143-2.807,1.602-3.645c0.384-0.704,1.047-1.62,1.82-2.399C529.525,342.909,529.194,343.798,528.796,344.658z"/>
		<path fill="#AC9F94" d="M533.138,340.482c0.064,0.02,0.131,0.031,0.193,0.061c1.167,0.527-0.487,4.98-1.777,6.558
			c-0.672,0.828-1.359,1.453-2.032,1.883C531.564,346.831,532.942,343.069,533.138,340.482z"/>
		<path fill="#AC9F94" d="M522.647,352.27c-0.261,1.453-1.178,3.04-2.456,3.641c-0.771,0.362-1.771,0.566-2.717,0.252
			C519.491,355.533,521.42,353.951,522.647,352.27z"/>
		<path fill="#AC9F94" d="M340.155,371.683c0.773,0.522,1.534,1.056,2.278,1.617c-0.437,0.613-0.571,1.352-0.601,1.822
			c-2.056-1.097-2.809-2.776-2.899-4.087C339.343,371.249,339.752,371.462,340.155,371.683z"/>
		<path fill="#AC9F94" d="M332.268,376.126c0.992-1.189,1.22-3.121,0.67-3.843c-0.724,0.294-1.262,2.803-1.398,3.592
			C331.798,375.875,332.053,376.003,332.268,376.126z"/>
		<path fill="#AC9F94" d="M321.839,364.808c0.772,1.023,0.265,2.939-0.799,4.449c-0.055-0.007-0.134-0.027-0.215-0.049
			C321.163,367.74,321.501,366.274,321.839,364.808z"/>
		<path fill="#AC9F94" d="M312.674,366.629c-0.07-2.116-0.081-4.238-0.154-6.355c0.654,0.362,1.069,0.979,1.137,1.993
			c0.084,1.295-0.044,3.25-0.173,4.196C313.251,366.592,312.959,366.638,312.674,366.629z"/>
		<path d="M411.293,295.042c3.621-2.41,8.063-2.366,12.255-1.986c3.298,0.301,8.243,1.06,10.194,4.023
			c0.34,0.516-0.085,1.488-0.678,1.257c-2.533-0.987-6.31-2.127-10.982-1.911c2.826,0.878,5.634,2.092,8.287,3.316
			c1.758,0.816-2.164,0.314-6.738-1.394c-2.945-1.102-9.876-1.853-11.862-1.802C410.926,296.569,410.619,295.487,411.293,295.042z"
			/>
		<path d="M372.07,350.839c0.501,0.011,1.335,0.224,1.848,0.325c-1.093-1.231,0.45-5.928,4.98-3.911
			c1.874,0.834,2.315,2.711,2.219,3.816c-0.149,1.694-1.124,3.09-2.471,2.996c0.364,0.502,0.669,1.036,0.849,1.635
			c0.085,0.283-0.244,0.652-0.524,0.402c-2.118-1.918-5.151-3.615-7.266-4.4C371.282,351.545,371.633,350.836,372.07,350.839z"/>
		<path fill="#79889F" d="M379.958,351.131c0.213-0.885-0.204-2.465-1.446-3.028c-1.251-0.566-2.89-0.281-3.373,0.885
			c-0.485,1.166-0.128,2.552,1.574,3.435C378.417,353.308,379.607,352.614,379.958,351.131z"/>
		<path d="M372.847,374.15c2.05-2.785,7.627-1.361,6.663,3.687c0.656-0.408,1.387-0.665,2.179-0.695
			c0.314-0.011,0.336,0.421,0.103,0.546c-2.162,1.145-3.92,3.489-4.605,5.285c-0.165,0.43-0.884,0.048-0.795-0.4
			c0.095-0.491,0.433-1.308,0.645-1.808C372.213,382.027,370.479,377.361,372.847,374.15z"/>
		<path fill="#79889F" d="M375.794,379.444c2.585-0.195,3.588-3.599,1.82-4.984c-1.769-1.387-3.646-0.268-4.051,0.474
			C372.342,377.172,373.725,379.598,375.794,379.444z"/>
		<path d="M377.034,400.738c0.026-0.749,0.121-1.503,0.235-2.199c0.061-0.373,0.594-0.34,0.597,0.04
			c0.026,2.05,0.391,4.161,1.189,5.994c0.123,0.277-0.369,0.615-0.645,0.356c-0.119-0.114-0.204-0.241-0.305-0.362
			c-0.511,1.053-1.585,1.909-2.743,2.263c-2.287,0.704-4.775-0.614-5.217-2.947C369.358,399.751,375.149,398.037,377.034,400.738z"
			/>
		<path fill="#79889F" d="M371.644,403.567c0.428,1.451,1.888,1.918,3.265,1.584c1.537-0.371,2.465-1.65,2.184-2.84
			C376.393,399.365,370.564,399.929,371.644,403.567z"/>
		<path fill="#667791" d="M379.793,351.633c-0.483,1.126-1.582,1.567-3.079,0.792c-1.616-0.838-2.008-2.127-1.633-3.253
			C376.404,350.894,378.242,352.2,379.793,351.633z"/>
		<path fill="#667791" d="M377.655,375.213c0.108-0.127,0.224-0.25,0.327-0.377c1.22,1.541,0.187,4.429-2.188,4.608
			c-0.867,0.064-1.598-0.344-2.083-0.983C375.322,377.907,376.723,376.729,377.655,375.213z"/>
		<path fill="#667791" d="M376.185,401.212c0.029-0.015,0.062-0.033,0.092-0.048c0.024-0.011,0.035-0.03,0.057-0.044
			c0.356,0.299,0.639,0.689,0.759,1.19c0.281,1.191-0.647,2.469-2.184,2.84c-1.049,0.255-2.133,0.029-2.783-0.729
			C373.813,403.822,375.309,402.705,376.185,401.212z"/>
		<path fill="#9E8C79" d="M404.439,476.048c-2.996-1.991-8.01-2.743-11.737-0.184C388.977,478.425,410.213,479.884,404.439,476.048z
			"/>
		<path fill="#9E8C79" d="M355.632,479.52c-2.882-1.326-8.197-0.731-10.806,1.644C342.219,483.542,361.591,482.261,355.632,479.52z"
			/>
		<path fill="#7E99BB" d="M370.435,462.397c-1.666,3.243-3.834,1.527-4.019-0.119C366.23,460.633,370.738,461.809,370.435,462.397z"
			/>
		<path fill="#7E99BB" d="M323.053,464.884c-0.884-0.226-3.349-0.487-4.337,0c-0.99,0.483,0.799,2.912,2.247,3.062
			C322.409,468.095,324.082,465.145,323.053,464.884z"/>
		<path fill="#EDCDAE" d="M496.366,276.793c-0.972-0.885-4.036,0.406-5.588,5.993C489.223,288.372,499.268,279.434,496.366,276.793z
			"/>
		<path fill="#EDCDAE" d="M436.11,268.765c-6.292-4.238-14.494-4.468-9.42,1.018c5.074,5.484,9.628,7.111,12.321,6.907
			C441.702,276.484,441.39,272.321,436.11,268.765z"/>
		<path fill="#EDCDAE" d="M400.701,253.427c-2.412-1.956-12.011-5.586-9.422-2.337c2.588,3.253,9.217,9.04,11.285,10.769
			C404.634,263.586,403.702,255.865,400.701,253.427z"/>
		<path fill="#EDCDAE" d="M417.164,288.269c-6.184-0.731-11.493,0.099-14.081,2.03s8.799,2.644,13.045,2.032
			C420.372,291.721,425.756,289.286,417.164,288.269z"/>
		<path fill="#EDCDAE" d="M410.742,234.838c-5.708-0.669-15.115,0.305-10.457,1.115c4.659,0.814,13.978,2.644,18.119,3.457
			C422.545,240.22,415.09,235.348,410.742,234.838z"/>
		<path fill="#EDCDAE" d="M395.316,205.175c-6.481,0.985-12.422,5.993-11.803,9.448c0.621,3.452,13.357,0.303,17.186-2.032
			C404.529,210.256,406.704,203.45,395.316,205.175z"/>
		<path fill="#EDCDAE" d="M462.301,215.638c-3.257-3.893-13.047-10.361-16.254-10.866c-3.209-0.513,1.137,6.092,4.866,9.139
			C454.639,216.958,465.613,219.601,462.301,215.638z"/>
		<path fill="#EBF7FF" d="M350.123,284.503c0.527-11.346,2.838-22.708,3.084-14.32c0.162,5.443-0.411,16.537-0.204,20.572
			c0.204,4.036-0.617,7.668-1.646,9.079C350.947,300.393,349.777,291.991,350.123,284.503z"/>
		<path fill="#EBF7FF" d="M353.207,327.466c1.547,7.082,4.317,17.347,7.813,22.188c3.496,4.841-5.963-3.026-8.43-8.873
			C350.123,334.928,351.357,318.996,353.207,327.466z"/>
		<path fill="#EBF7FF" d="M325.245,427.316c-7.888-0.911-21.176,1.008-27.139,1.209c-5.961,0.202-9.867,2.419-13.159,2.825
			c-3.288,0.402,7.198-5.651,20.357-7.466C318.461,422.07,332.235,428.121,325.245,427.316z"/>
		<path fill="#EBF7FF" d="M346.011,203.213c-7.484,2.938-14.186,9.884-14.803,19.164c-0.615,9.279-4.111-10.693,2.057-16.743
			C339.433,199.581,352.18,200.793,346.011,203.213z"/>
		<path fill="#EBF7FF" d="M376.852,136.648c-11.463-7.836-41.325-17.75-63.324-1.009
			C291.529,152.381,401.933,153.794,376.852,136.648z"/>
		<path fill="#EBF7FF" d="M295.433,144.314c-10.291-0.778-18.091,11.497-18.914,19.766
			C275.696,172.35,308.8,145.323,295.433,144.314z"/>
	</g>
</g>
</svg>
