<?xml version="1.0" encoding="utf-8"?>
<!-- Generator: Adobe Illustrator 17.0.0, SVG Export Plug-In . SVG Version: 6.00 Build 0)  -->
<!DOCTYPE svg PUBLIC "-//W3C//DTD SVG 1.1//EN" "http://www.w3.org/Graphics/SVG/1.1/DTD/svg11.dtd">
<svg version="1.1" id="Layer_1" xmlns="http://www.w3.org/2000/svg" xmlns:xlink="http://www.w3.org/1999/xlink" x="0px" y="0px"
	 width="800px" height="600px" viewBox="0 0 800 600" enable-background="new 0 0 800 600" xml:space="preserve">
<g>
	<path fill="#D2D2D2" d="M537.452,461.785c0,11.126-62.382,20.152-139.334,20.152c-76.95,0-139.331-9.027-139.331-20.152
		c0-11.131,62.381-20.159,139.331-20.159C475.071,441.625,537.452,450.654,537.452,461.785z"/>
	<g>
		<path d="M526.128,385.587c2.293-2.078,4.159-4.42,3.806-7.614c-0.956-8.647-10.686-11.129-8.893-20.445
			c0.93-1.157,1.926-2.266,2.803-3.436c2.299-3.072,2.436-6.374,0.904-9.823c-1.929-4.342-7.097-9.908-8.737-4.299
			c8.136,3.861-0.91,11.666-4.124,14.672c-3.746,3.506-6.189,7.432-4.169,12.69c1.126,2.932,3.591,5.39,5.505,7.778
			c3.3,4.124,2.747,6.432-0.524,9.993c-3.095,3.373-5.186,7.777-3.343,12.459c2.01,5.104,4.001,8.118,7.469,11.806
			c5.064,5.384,1.904,18.529-3.774,22.885c-3.158,2.426-7.376,0.811-10.942,1.209c-3.857,0.428-6.934,1.791-10.132,4.015
			c-1.399,0.973-2.727,2.018-4.071,3.033c-3.331-0.186-6.451,0.898-9.791,1.255c-5.905,0.631-10.771-3.575-15.585-6.461
			c-1.523-0.916-3.08-1.571-4.658-2.025c-6.577-3.922-13.919-6.484-21.55-4.406c-4.243,1.155-7.038,3.608-10.819,5.724
			c-4.904,2.747-9.443-4.012-12.409-7.152c-4.081-4.318-8.67-5.206-13.798-3.892c-2.932-0.087-3.145-7.047-3.561-9.037
			c-0.922-4.417-2.545-8.237-5.672-11.441c-2.869-2.935-7.068-3.446-10.763-4.513c-6.902-1.992-2.19-12.445-1.715-17.458
			c0.443-4.634-2.218-9.463-3.944-13.56c-3.214-7.633-2.184-14.091-0.286-21.937c2.783-11.504,2.145-22.722,1.369-34.351
			c2.74-10.472,4.787-21.593,3.901-32.097c6.004-19.286,10.596-38.912,10.11-59.484c-0.22-9.391-3.743-20.208-11.924-25.218
			c-6.992-4.283-14.074-1.306-20.593,2.691c0.598-0.788,1.138-1.663,1.625-2.687c0.476-1.001,6.052-8.991,6.924-6.727
			c0.139,0.364,0.297,0.009,0.294-0.36c-0.011-1.169-0.599-3.202-1.135-3.124c-4.778,0.7-7.385,5.299-10.754,8.608
			c-1.416,1.391-2.889,2.677-4.387,3.922c-0.301-2.643-0.9-5.048-1.837-7.468c2.443-1.125,3.718-4.077,5.067-6.355
			c0.986-1.665,3.488-5.063,2.142-7.093c-0.192-0.289-0.6-0.26-0.841-0.074c-1.31,1.009-2.479,2.044-4.052,2.616
			c-1.268,0.459-2.719,0.368-4.032,0.65c-0.783,0.168-1.5,0.578-1.929,1.171c-0.803-2.792-1.257-5.731-0.978-8.408
			c9.831,1.519,20.166,4.354,30.049,3.557c0.421-1.233,1.122-4.788,0.367-6.356c-1.558-0.173-8.632-0.242-9.363-0.287
			c-3.469-0.208-6.94-0.177-10.401-0.444c-2.958-0.228-5.921-0.566-8.884-0.93c1.835-4.937,11.601-21.289,20.152-30.501
			c-6.273-7.035-18.223-9.938-28.095-11.192c-9.279-1.18-20.278-0.168-27.696,2.777c1.052,6.891,2.624,24.259,4.078,35.663
			c-5.987-0.233-12.636-0.037-18.236,1.767c0,0.799,0.211,2.757,1.052,3.991c3.156-0.436,13.276-0.272,16.426-0.255
			c-0.927,0.586-1.733,1.404-2.266,2.241c-1.045,1.639-1.275,4.015-0.271,5.725c0.621,1.054,1.629,1.393,2.616,1.262
			c-2.013,2.766-3.392,6.135-4.362,9.265c-1.222,3.944-1.567,8.924-1.27,13.038c0.482,6.722,1.601,11.228,3.971,12.147
			c1.244-1.533,10.35-19.106,11.005-20.247c2.141,0.795,1.627,3.145,1.226,5.066c-0.253,1.21-0.956,3.466-0.912,4.563
			c-0.52,0.657-0.737,1.963-0.643,2.72c0.048,0.388,0.487,0.602,0.819,0.443c0.836-0.396,1.701-0.802,2.567-1.213
			c1.158,0.979,3.125,3.998,3.63,6.118c-2.491,2.156-2.094,4.647-1.399,5.697c-4.324,3.917-12.237,11.887-12.677,12.72
			c-0.071,0.141,1.242,3.753,2.225,3.987c-0.269-6.082,7.603-5.633,11.856-5.127c-0.461,1.894-0.818,3.759-1.163,5.387
			c-1.001,4.71-2.147,9.356-3.424,13.953c-0.826-1.109-6.947-6.889-8.696-9.411c0.107-1.35-1.264-3.384-1.857-2.5
			c-0.588,0.873-1.301,2.15-1.761,3.139c-1.825-1.91-5.153-5.095-7.981-3.656c-4.184,2.128-5.148,7.993-5.637,12.356
			c-0.482,4.303-1.112,7.774-2.663,11.848c-0.738,1.939-2.542,4.223-2.76,6.33c-0.172,1.65,3.269,3.842,4.977,4.611
			c-0.02,2.218,0.079,5.701,0.674,7.065c0.826-1.285,1.601-3.896,2.101-5.868c2.018,1.563,3.644,4.016,5.916,5.076
			c1.412,0.659,2.298-2.205,3.114-2.828c1.356-0.127,2.212-2.475,2.653-3.894c0.778-2.503,2.412-4.57,2.957-7.158
			c1.201-1.411,3.08-5.762,3.657-8.236c-1.525,1.071-3.645,3.853-4.238,4.675c0.672-1.704,1.136-3.952,1.112-4.863
			c-0.519,0.244-1.424,1.169-2.456,2.663c-0.444,0.643-1.384,1.84-1.268,2.783c-0.114-0.004-0.228,0.037-0.311,0.159
			c-0.213,0.306-0.4,0.628-0.575,0.957c0.008-0.297,0.03-0.598-0.035-0.879c0.352-1.295,0.221-3.835-0.114-5.684
			c-0.776,0.482-1.776,3.306-1.629,4.792c-1.057,1.165-1.531,3.015-1.647,4.613c-0.621-0.063-1.244-0.061-1.866-0.076
			c-0.063-0.002-0.144-0.012-0.22-0.02c0.005-4.148,0.61-8.852-0.368-12.9c0.046-0.057,0.097-0.113,0.14-0.172
			c0.644-0.866,1.019-1.729,1.371-2.768c0.311-0.917,0.388-1.882,0.245-2.795c0.745-0.419,1.488-0.5,2.316-0.366
			c-0.55,1.344-1.004,3.375-0.796,4.178c1.472,0.107,11.585,3.655,13.678,5.474c-2.117,6.752-4.572,13.387-7.421,19.914
			c-1.381,3.158-2.23,6.391-2.869,9.673c-1.942-0.702-4.164-0.729-6.714-0.718c-1.501,0.007-3.607,0.09-4.877,1.132
			c-0.446-0.57-1.204-0.9-1.688,0.06c-0.271,0.537-0.276,1.411-0.375,2.102c-2.066-1.22-5.738-0.923-6.927,0.603
			c-1.189,1.525-1.371,3.799-1.992,5.593c-0.74,2.138-1.989,4.571-2.765,7.116c-1.014,3.32-1.947,9.378-2.225,13.03
			c-0.32,4.266,0.193,5.982,1.544,5.869c0.164,0.634,0.474,1.196,1.819,1.114c0.335,0.751,2.225,0.332,3.335-0.32
			c1.036,0.864,2.625-0.197,3.728-1.294c1.675-1.667,4.83-5.638,4.838-6.677c1.667-2.176,3.12-5.195,4.205-7.39
			c-0.69-0.231-2.534,1.001-3.122,1.722c-0.492,0.602-0.91,1.272-1.29,1.966c-0.05-0.078-0.112-0.15-0.183-0.216
			c1.077-1.6,2.324-4.641,2.527-5.505c-2.197,0.483-3.629,3.255-3.857,3.796c-0.623-0.368-1.896,0.628-2.263,0.999
			c-0.767,0.766-1.52,1.714-2.103,2.698c-0.017-1.116-0.068-2.238-0.134-3.338c2.463-2.359,2.512-8.515,2.591-11.672
			c0.595-0.453,2.289-1.558,2.421-1.62c0.309,1.658,1.212,3.672,1.999,4.617c0.619-0.937,6.798-5.754,10.108-5.014
			c-0.107,0.719-0.216,1.44-0.332,2.163c-1.183,7.399-2.58,14.756-4.088,22.091c-1.696,8.234-7.071,17.026-5.399,25.59
			c-2.659,5.651-6.63,14.924-7.862,22.832c-1.221,7.828-0.175,14.117,2.892,19.316c0.676,3.763,1.541,7.363,0.221,11.26
			c-1.097,3.233-4.615,5.514-6.452,8.339c-3.908,6.014,2.943,11.815,5.573,16.587c-0.847,2.067-2.303,3.874-4.298,5.46
			c-1.771,1.405-4.734,3.616-4.968,6.186c-0.248,2.75,1.036,4.28,2.869,5.35c-7.798,2.178-15.944,1.287-23.694,3.652
			c-3.746,1.145-6.129,4.219-6.679,7.578c-0.566,3.453,2.772,5.07,5.447,5.639c2.717,0.576,6.212-0.151,8.928-0.469
			c2.325-0.272,4.462-0.231,6.552,0.118c3.178,5.092-16.213,11.46-4.306,16.47c6.447,2.711,15.27-4.019,21.105-5.935
			c5.959-1.961,13.186-0.913,19.265-0.232c5.266,0.59,10.549,0.619,15.802,1.36c0.035,0.006,0.066-0.003,0.097-0.004
			c0.357,0.224,0.72,0.444,1.09,0.654c3.66,2.089,7.965,2.471,12.051,2.234c9.826-0.575,18.927-5.736,28.674-7.015
			c11.684-1.535,23.862,4.504,35.259,6.51c4.172,0.734,10.417,1.234,14.398-0.614c2.775-1.288,5.522-3.243,8.581-1.705
			c1.956,0.979,3.292,3.668,5.181,4.943c6.232,4.209,13.329,0.995,19.143-2.133c4.247-2.287,8.224-3.974,13.11-3.711
			c4.59,0.248,8.894,2.65,13.253,3.938c8.225,2.432,13.21-3.163,18.088-9.177c4.27-5.269,9.048-4.488,15.118-3.876
			c3.614,0.365,6.093-0.604,8.885-2.536c1.361,0.048,2.73-0.143,4.07-0.638c6.957-2.58,5.53-10.736,4.106-16.423
			c-2.109-8.447,6.047-12.421,6.402-20.386C538.262,403.725,523.345,397.294,526.128,385.587z"/>
		<path fill="#D5BB7E" d="M302.202,304.531c-1.176,1.923-2.638,4.604-3.804,6.055c-0.385-0.112-0.604-0.614-0.533-1.006
			C297.936,309.189,300.365,304.772,302.202,304.531z"/>
		<path fill="#D5BB7E" d="M300.312,302.524c-0.619,1.418-1.442,3.137-2.375,4.503c-0.125-0.047-0.543-0.058-0.628-0.038
			C297.29,305.736,298.661,303.195,300.312,302.524z"/>
		<path fill="#E2C0C5" d="M292.664,310.39c1.369-2.164,3.255-4.626,4.141-3.88c-0.005,0.211-0.012,0.5,0.071,0.698
			c-1.42,0.936-3.454,3.588-4.27,4.974C292.644,311.594,292.658,310.992,292.664,310.39z"/>
		<path fill="#E2C0C5" d="M295.101,293.813c0.071-0.729,0.357-1.858,0.583-2.552c0.069-0.206-0.258-0.134-0.494,0.283
			c-0.998,1.762-0.937,3.592-0.999,5.594c-0.109,3.46-0.78,5.681-1.754,7.359c-0.035-0.556-0.069-1.104-0.101-1.638
			c-0.012-0.188-0.309-0.24-0.329-0.036c-0.406,3.834-1.021,8.38-0.312,12.188c0.066,0.339,0.507,0.32,0.572-0.01
			c0.102-0.519,0.173-1.055,0.233-1.596c0.937-1.247,2.836-4.282,4.324-5.342c0.687-0.492,1.085-0.374,1.292,0.026
			c-0.382,0.529-0.751,1.286-0.852,1.66c-0.102,0.375,0.053,1.096,0.723,1.605c-0.261,1.076-3.774,5.138-5.35,6.556
			c-0.931,0.836-2.122,1.069-2.354,0.186c-0.233-0.882-0.026-3.393-0.01-5.01c0.02-1.992,0.056-3.926,0.618-5.851
			c0.122-0.421-0.651-0.133-0.841,0.722c-0.595,2.676-0.523,10.275-0.491,10.382c-0.492,0.427-1.81,0.884-1.81,0.082
			c0-0.804,1.272-7.571,0.936-11.496c-0.015-0.182-0.307-0.239-0.329-0.035c-0.421,3.872-0.74,7.908-1.411,11.744
			c-0.284,0.159-0.828,0.159-1.11-0.295c-0.284-0.455,0.041-2.025,0.311-3.585c0.335-1.954,1.135-4.87,0.889-8.272
			c-0.015-0.196-0.301-0.245-0.344-0.035c-0.439,2.15-0.728,4.746-0.96,6.138c-0.233,1.391-0.621,3.563-0.69,5.156
			c-1.158,0.19-1.051-2.047-0.809-5.101c0.382-4.808,1.546-11.515,2.066-13.005c0.854-2.435,2.677-6.218,3.62-9.374
			c1.153-3.865,4.324-3.446,7.372-3.237c-0.127,1.389-0.112,2.941,0.068,4.431C296.334,291.877,295.106,293.785,295.101,293.813z"/>
		<path fill="#E2C0C5" d="M348.922,179.457c1.711-0.42,3.14-1.191,4.517-2.235c0.178,1.715-2.251,5.104-2.821,6.046
			c-0.365,0.604-0.753,1.193-1.11,1.802c-0.875,1.499-1.747,2.149-3.044,2.686c-0.043-1.676-0.388-3.331,1.151-4.417
			c1.249-0.882,2.283-1.588,3.333-2.737c0.127-0.14-0.063-0.331-0.201-0.209c-1.449,1.282-3.677,1.248-5.186,2.429
			c-0.459,0.359-0.752,0.784-0.913,1.24c-0.354-0.87-0.69-1.776-0.994-2.706C344.77,179.436,347.005,179.93,348.922,179.457z"/>
		<path fill="#8D385B" d="M343.265,167.255c-3.89-0.485-7.786-1.002-11.672-1.375c-5.844-0.559-12.005-1.438-18.144-1.739
			c0.063-1.383,0.035-2.772-0.048-4.162c5.132-0.392,23.93,1.325,31.483,2.471C344.198,164.009,343.633,165.608,343.265,167.255z"/>
		<path fill="#A25C79" d="M325.929,160.453c-1.64-0.125-3.234-0.234-4.719-0.319c-0.137,1.533-0.291,3.065-0.454,4.593
			c1.683,0.171,3.356,0.357,5.015,0.541C325.803,163.662,325.859,162.057,325.929,160.453z"/>
		<path fill="#81244A" d="M314.468,164.211c-0.01-1.429,0-2.857,0.101-4.28c-0.438,0.008-0.839,0.022-1.168,0.046
			c0.083,1.39,0.111,2.779,0.048,4.162C313.789,164.158,314.129,164.187,314.468,164.211z"/>
		<path fill="#81244A" d="M335.566,161.321c-0.509,1.591-0.904,3.218-1.219,4.863c2.973,0.33,5.944,0.7,8.917,1.07
			c0.368-1.647,0.933-3.246,1.619-4.806C342.588,162.1,339.241,161.7,335.566,161.321z"/>
		<path fill="#5D5D5D" d="M309.929,129.674c15.068-6.022,42.824-1.017,51.457,7.529c-4.709,5.092-14.256,20.43-16.132,24.421
			c-0.04-0.026-20.958-3.805-31.898-2.309C313.049,155.02,311.151,136.852,309.929,129.674z"/>
		<path fill="#878787" d="M326.72,149.605c0.766-7.396,1.604-15.171,3.533-22.464c-2.408-0.134-4.805-0.15-7.134-0.032
			c-0.235,8.42-0.753,16.876-1.307,25.245c-0.145,2.215-0.317,4.427-0.507,6.637c1.531,0.036,3.11,0.115,4.688,0.222
			C326.153,156.004,326.388,152.8,326.72,149.605z"/>
		<path fill="#5D5D5D" d="M295.911,168.773c0.005-0.045-0.421-1.087-0.494-1.834c12.14-3.44,25.623-0.978,37.915,0.311
			c12.743,1.335,25.522,3.203,38.343,3.408c0.211,1.378,0.071,2.686-0.278,3.12c-7.751,0.425-14.958-1.013-22.428-2.249
			c-3.948-0.652-9.205-1.639-13.196-1.934C329.553,169.136,305.933,167.54,295.911,168.773z"/>
		<path fill="#FFFFFF" d="M324.698,173.069c-1.275-0.03-2.317,1.099-2.511,2.416c-0.195,1.324,0.753,2.287,1.756,2.554
			c-0.941-0.186-1.868-0.291-2.762-0.274c-1.021-0.548-1.964-1.475-2.174-2.53c-0.413-2.075,1.092-4.076,3.074-4.769
			c1.49,0.161,2.973,0.293,4.448,0.351c1.47,1.004,1.262,3.207,0.446,4.32C326.806,173.998,326.02,173.1,324.698,173.069z"/>
		<path fill="#FFFFFF" d="M325.501,176.113c-1.105,0-1.105-1.774,0-1.774C326.606,174.339,326.606,176.113,325.501,176.113z"/>
		<path fill="#E2C0C5" d="M316.952,169.9c1.358,0.134,2.682,0.29,4.05,0.446c-1.435,0.505-2.629,1.975-3.099,3.504
			C318.324,171.987,317.963,170.643,316.952,169.9z"/>
		<path fill="#FFFFFF" d="M310.495,176.8c-1.019-0.904-0.707-2.696-0.291-3.81c0.659-1.762,2.415-3.066,4.2-3.066
			c2.007,0,3.632,1.846,2.806,3.669c-0.033-1.125-0.743-1.562-1.696-1.509c-2.266,0.127-2.492,3.17-0.659,3.453
			c-0.643,0.488-1.031,0.984-1.587,1.578C312.391,177.413,311.215,177.438,310.495,176.8z"/>
		<path fill="#FFFFFF" d="M316.212,173.983c-0.654,0-0.654-1.048,0-1.048C316.864,172.935,316.864,173.983,316.212,173.983z"/>
		<path fill="#E2C0C5" d="M322.065,204.339c0.342-1.8,2.208-2.824,3.345-4.204c0.145-0.174-0.078-0.379-0.243-0.239
			c-0.741,0.636-1.581,1.104-2.319,1.607c-0.026-0.981,0.866-2.803,1.013-4.679c0.144-1.833-0.167-4.445-2.273-4.469
			c0.933-1.592,1.918-3.151,2.972-4.672c0.588-0.852,1.544-2.246,1.427-3.438c1.544,2.418,2.595,5.413,3.72,7.918
			c1.026,2.289,1.83,4.688,2.754,7.025c-0.01,0-0.015-0.007-0.027-0.004C328.77,200.18,325.542,202.722,322.065,204.339z"/>
		<path fill="#FFFF9F" d="M330.697,201.156c-0.231,1.774-0.289,3.5-0.339,5.297c-0.791-0.671-1.676-2.455-2.066-3.813
			C329.153,202.172,329.886,201.681,330.697,201.156z"/>
		<path fill="#DED98D" d="M330.562,202.429c0.036-0.422,0.079-0.845,0.135-1.273c-0.811,0.525-1.544,1.016-2.405,1.484
			c0.081,0.283,0.187,0.582,0.311,0.886C329.181,203.141,330.094,202.627,330.562,202.429z"/>
		<path fill="#E2C0C5" d="M330.621,209.598c0.119-0.117-0.649-0.462-1.858,0.325c-0.614-2.275-2.692-5.125-4.025-5.538
			c0.988-0.473,1.984-0.962,2.962-1.479c0.342,1.809,1.847,4.47,3.249,4.711c0.003-2.309,0.421-5.501,0.522-6.969
			c0.415-0.287,0.819-0.586,1.211-0.894c0.624,1.538,1.311,3.043,2.167,4.465c0.272,0.453-0.657-4.89-3.437-11.791
			c-1.325-3.291-3.673-8.036-5.807-10.122c-1.006-0.984-1.771-1.598-3.566-1.819c-2.284-0.281-4.147,1.633-5.431,3.405
			c-0.096,0.133,0.119,0.302,0.225,0.177c1.123-1.334,2.552-2.562,4.314-2.755c0.183-0.019,0.349-0.015,0.51,0
			c-0.411,0.115-0.844,0.279-1.308,0.495c-3.632,1.705-4.47,6.407-4.164,10.037c0.033,0.353,0.576,0.334,0.596-0.015
			c0.149-2.499,0.62-4.005,1.749-6.209c2.289-4.475,6.369-1.158,4.664,0.864c-1.845,2.187-3.181,4.985-4.59,7.479
			c-3.018,5.351-5.675,10.863-8.298,16.416c-4.142-8.198-2.322-26.721,7.494-35.239c0.127,1.143,0.674,2.131,1.452,2.881
			c-0.861,0.22-1.672,0.574-2.39,1.137c-0.18,0.142-0.076,0.401,0.13,0.401c3.076-0.007,5.994,0.223,9.045,1.24
			c2.722,0.909,5.444,1.869,8.211,2.45c0.477,0.101,0.757-0.6,0.309-0.841c-2.013-1.075-4.912-2.631-7.917-3.644
			c1.136-0.338,2.743-0.321,4.443,0.225c0.175,0.055,0.279-0.23,0.116-0.31c-0.785-0.382-1.597-0.747-2.448-0.925
			c0.664-0.189,1.48-0.268,2.251-0.039c0.165,0.049,0.218-0.249,0.076-0.326c-0.963-0.514-2.337-0.681-3.421-0.456
			c1.551-2.013,2.357-4.856,0.484-6.089c2.471-0.211,8.462-0.362,13.361,0.771c-0.015,0.054-0.025,0.184-0.036,0.239
			c-1.535-0.192-6.087-0.421-7.831-0.377c-0.623,0.015-0.56,0.173-0.454,0.18c2.722,0.185,6.085,0.402,8.191,0.675
			c-0.038,0.198-0.051,0.404-0.076,0.605c-0.831-0.249-4.323-0.615-5.467-0.648c-0.535-0.014-0.91,0.163-0.809,0.17
			c1.135,0.067,4.778,0.536,6.21,1.016c-0.19,2.811,0.715,5.858,1.183,8.49c0.321,1.813,0.94,3.477,1.622,5.173
			c1.535,3.793,2.572,6.981,3.155,10.951c-2.672,2.157-8.427,6.897-8.633,7.078c-1.837-6.305-4.294-12.247-7.915-17.693
			c-0.119-0.179-0.37-0.022-0.278,0.168c2.852,5.919,5.358,11.917,7.306,18.222c-3.573,3.178-7.008,6.509-10.396,9.826
			C325.74,212.764,330.093,210.123,330.621,209.598z"/>
		<path fill="#D5BB7E" d="M297.781,274.618c-0.274-1.813-0.235-7.198,0.259-11.081c0.291-0.16,1.78-0.08,1.799,0.386
			C299.926,266.108,299.031,273.046,297.781,274.618z"/>
		<path fill="#E2C0C5" d="M306.829,274.402c-0.92,1.263-1.564,0.442-2.598-0.441c-1.34-1.144-2.663-2.8-4.329-3.438
			c0.139-0.595,0.182-0.997,0.281-1.596c0.012,0.004,0.02,0.016,0.031,0.019c1.212,0.292,3.979,1.283,5.537,2.274
			c-0.253,0.877-0.319,1.836,0.02,2.596c0.107,0.245,0.386,0.262,0.386-0.028c0-1.418,0.545-4.55,1.759-4.327
			c-0.621,1.352-0.722,2.409,0.246,3.502C307.597,273.267,307.23,273.852,306.829,274.402z"/>
		<path fill="#D5BB7E" d="M311.372,267.809c-0.588,1.267-1.44,4.722-2.526,4.748c-0.621,0.016-0.859-1.613-0.651-2.399
			c0.21-0.786,0.727-1.32,1.581-2.794c0.852-1.471,2.299-2.998,3.774-4.333C313.067,264.691,312.102,266.239,311.372,267.809z"/>
		<path fill="#D5BB7E" d="M317.142,255.659c-0.575,1.719-1.343,3.355-2.345,4.854c-0.469,0.029-0.755-0.479-0.728-1.041
			C314.767,258.293,316.136,256.474,317.142,255.659z"/>
		<path fill="#D5BB7E" d="M314.377,255.082c-0.207,1.259-0.904,3.746-1.396,4.202c-0.192,0.178-1.173,0.436-1.27-0.05
			C311.612,258.749,313.602,255.619,314.377,255.082z"/>
		<path fill="#D5BB7E" d="M309.879,255.082c0.104,0.67,0.259,2.756-0.155,3.88c-0.154-0.134-0.52-0.103-0.745,0.007
			C309,257.224,309.517,255.483,309.879,255.082z"/>
		<path fill="#C8A661" d="M299.805,307.432c-0.091,0.117-0.178,0.24-0.268,0.358c-0.2,0.263-0.393,0.532-0.581,0.8
			c-0.36,0.529-0.694,1.075-0.943,1.672c0.096,0.149,0.223,0.275,0.385,0.325c1.004-1.251,2.23-3.412,3.3-5.217
			C301.006,305.99,300.385,306.689,299.805,307.432z"/>
		<path fill="#C8A661" d="M298.783,304.921c-0.362,0.602-0.671,1.448-1.13,2.067c0.114,0.004,0.226,0.016,0.284,0.038
			c0.793-1.16,1.493-2.562,2.07-3.83C299.544,303.726,299.143,304.323,298.783,304.921z"/>
		<path fill="#C8A661" d="M297.792,274.6c1.097-1.411,1.918-6.94,2.037-9.719C298.306,267.704,297.781,271.298,297.792,274.6z"/>
		<path fill="#C8A661" d="M308.635,272.49c1.027-2.046,1.744-4.149,2.098-6.497c-0.362,0.458-0.694,0.918-0.956,1.37
			c-0.854,1.474-1.371,2.008-1.581,2.794C308.013,270.848,308.175,272.184,308.635,272.49z"/>
		<path fill="#C8A661" d="M314.514,260.449c0.514-1.113,0.95-2.237,1.279-3.39c-0.666,0.803-1.313,1.718-1.725,2.412
			C314.048,259.908,314.218,260.303,314.514,260.449z"/>
		<path fill="#C8A661" d="M313.604,255.915c-0.879,1.131-1.967,2.957-1.893,3.32c0.043,0.218,0.268,0.281,0.519,0.272
			C312.847,258.513,313.373,257.215,313.604,255.915z"/>
		<path fill="#C8A661" d="M309.476,255.937c-0.256,0.761-0.484,1.888-0.497,3.032c0.225-0.11,0.591-0.14,0.745-0.007
			c0.129-0.352,0.2-0.799,0.236-1.264C309.878,257.092,309.655,256.52,309.476,255.937z"/>
		<path fill="#E2C0C5" d="M307.471,263.86c-0.073-1.392,0.699-3.814,1.037-4.121c0.34-0.309,1.087-0.403,1.242-0.055
			c0.155,0.35-0.155,2.115-0.517,3.079c-0.362,0.963-0.983,2.301-1.138,2.38c-0.154,0.083-3.619,0.321-5.021,0.567
			c-0.813,0.14-0.846,0.317-0.667,0.317c0.936,0.001,2.506,0.024,3.439,0c0.983-0.026,2.483-0.16,2.717-0.428
			c0.23-0.266,2.375-5.538,2.842-5.699c0.131,0.128,0.699,0.266,1.292-0.026c-0.904,1.302-2.078,3.089-2.786,4.467
			c-0.315,0.615-0.372,1.02-0.264,0.857c1.024-1.549,2.525-3.848,3.776-5.192c0.06,0.554,0.595,1.072,1.059,1.153
			c-0.129,0.347-0.362,0.721-0.697,1.042c-1.967,1.223-3.251,2.838-4.488,4.81c-1.458,0.489-4.765,0.507-6.863,0.249
			c-0.646-0.079,0.362,0.386,0.552,0.439c1.622,0.463,4.015,1.045,5.713,0.297c-0.061,0.103-0.345,0.602-0.424,0.749
			c-1.316-0.282-2.118,1.136-2.339,1.923c-1.255-1.554-4.147-2.259-5.612-2.656c0.109-0.879,0.165-1.766,0.147-2.663
			c1.604-0.633,1.68-2.425,1.784-4.966c0.096-2.395,0.441-5.273,0.362-7.671c0.309-0.573,0.778-1.1,1.232-1.619
			c-0.008,1.919-0.07,8.752-0.045,12.171c-0.256,0.063-0.75,0.115-0.512,0.353C303.512,263.836,307.496,264.314,307.471,263.86z"/>
		<path fill="#E2C0C5" d="M305.976,244.018c-0.258-0.835-0.722-1.601-1.434-2.195c-0.127-0.107-0.32-0.003-0.278,0.173
			c0.344,1.369,0.758,2.508,0.577,3.961c-0.337,2.729-2.198,4.573-2.95,5.644c0.053,1.338-0.17,4.952-0.419,6.998
			c-0.198,1.635-0.122,5.447-1.003,5.741c-0.028-0.292,0-0.883-0.362-1.205c-0.223-0.197-2.25-0.695-2.661,0.081
			c-1.14-0.106,1.006-4.764,1.239-6.207c0.529-3.261,0.616-7.019,1.188-10.286c0.066-0.383-0.51,0.102-0.671,0.731
			c-0.311,1.233-0.801,3.642-0.879,5.914c-0.102,3.01-0.839,4.851-1.733,7.597c-0.348,1.079-1.006,3.269,0.596,3.403
			c-0.192,1.075-0.233,4.095-0.233,4.55c-0.509-0.107-2.055-1.383-2.354-1.608c-2.392-1.792-1.148-2.834-0.35-4.517
			c1.769-3.717,3.114-7.698,3.66-11.805c0.55-4.125,0.872-7.809,2.507-11.699c2.451-5.826,6.825-1.496,10.239-0.024
			c-0.418,0.937-1.554,3.592-1.789,4.113C307.735,243.173,306.789,243.531,305.976,244.018z"/>
		<path fill="#D4A2A9" d="M296.77,306.492c-1.645,1.176-2.572,3.357-4.131,4.678c-0.007,0.338-0.012,0.678-0.033,1.012
			c0.816-1.386,2.849-4.038,4.27-4.974c-0.083-0.197-0.076-0.487-0.071-0.698C296.793,306.501,296.781,306.5,296.77,306.492z"/>
		<path fill="#D4A2A9" d="M295.684,291.261c-0.122,0.376-0.259,0.877-0.373,1.375c-0.031,0.319-0.053,0.639-0.066,0.955
			c0.344-0.51,1.288-1.798,2.114-2.136c-0.18-1.49-0.195-3.042-0.068-4.431c-0.249-0.016-0.499-0.032-0.748-0.05
			c-0.458,1.363-0.821,2.8-1.051,4.237C295.625,291.129,295.726,291.141,295.684,291.261z"/>
		<path fill="#D4A2A9" d="M344.788,180.26c-0.441,0.233-0.829,0.573-1.135,1.096c0.304,0.931,0.641,1.837,0.994,2.706
			c0.162-0.457,0.454-0.881,0.913-1.24c0.218-0.17,0.452-0.311,0.697-0.438C345.662,181.758,345.163,181.041,344.788,180.26z"/>
		<path fill="#D4A2A9" d="M348.237,183.935c-0.261-0.143-0.507-0.311-0.75-0.483c-1.374,1.084-1.064,2.683-1.022,4.304
			c1.297-0.537,2.169-1.187,3.044-2.686c0.114-0.192,0.231-0.376,0.349-0.564C349.304,184.393,348.757,184.222,348.237,183.935z"/>
		<path fill="#D4A2A9" d="M317.928,171.459c0.434-0.002,0.859,0.061,1.278,0.162c0.514-0.572,1.12-1.037,1.795-1.275
			c-1.368-0.156-2.692-0.312-4.05-0.446C317.452,170.266,317.769,170.802,317.928,171.459z"/>
		<path fill="#D4A2A9" d="M323.861,196.823c-0.007,0.079-0.02,0.158-0.03,0.237c2.259-3.052,3.625-6.961,3.376-10.597
			c-0.378-0.769-0.775-1.521-1.221-2.22c0.117,1.192-0.839,2.586-1.427,3.438c-1.054,1.521-2.038,3.08-2.972,4.672
			C323.694,192.379,324.004,194.99,323.861,196.823z"/>
		<path fill="#D4A2A9" d="M333.634,171.48c1.744-0.044,6.296,0.185,7.831,0.377c0.011-0.055,0.021-0.186,0.036-0.239
			c-4.899-1.133-10.89-0.982-13.361-0.771c0.502,0.332,0.81,0.783,0.963,1.302c0.056,0.005,0.114,0.012,0.17,0.017
			c0.084-0.016,0.167-0.004,0.246,0.027c4.045,0.39,7.855,1.443,11.702,2.617c-0.018-0.448-0.021-0.894,0.007-1.332
			c-1.432-0.48-5.076-0.949-6.21-1.016c-0.101-0.007,0.274-0.184,0.809-0.17c1.145,0.033,4.636,0.4,5.467,0.648
			c0.025-0.202,0.038-0.407,0.076-0.605c-2.106-0.272-5.469-0.49-8.191-0.675C333.074,171.653,333.011,171.495,333.634,171.48z"/>
		<path fill="#D4A2A9" d="M327.699,202.906c-0.978,0.517-1.974,1.006-2.962,1.479c0.558,0.174,1.246,0.775,1.903,1.581
			c0.603-0.319,1.197-0.657,1.79-0.997C328.081,204.27,327.82,203.536,327.699,202.906z"/>
		<path fill="#D4A2A9" d="M317.479,180.431c-0.938,0.971-1.622,2.163-1.954,3.497c-0.552,2.207-0.6,4.728,0.604,6.654
			c-0.025-3.39,0.994-7.262,4.218-8.774c0.464-0.215,0.897-0.38,1.308-0.495c-0.162-0.015-0.327-0.019-0.51,0
			c-1.762,0.193-3.191,1.421-4.314,2.755c-0.106,0.126-0.32-0.044-0.225-0.177c1.283-1.772,3.147-3.686,5.431-3.405
			c0.238,0.03,0.458,0.068,0.661,0.111c-0.301-0.324-0.654-0.585-1.037-0.781c-0.953-0.122-1.906-0.191-2.869-0.224
			C318.314,179.759,317.862,180.032,317.479,180.431z"/>
		<path fill="#D4A2A9" d="M329.787,176.967c0.013-1.088-0.216-2.184-0.644-3.276c-0.178,1.093-0.73,2.264-1.487,3.246
			C328.314,176.799,329.072,176.824,329.787,176.967z"/>
		<path fill="#D4A2A9" d="M329.561,178.649c-1.113-0.165-2.134-0.116-2.922,0.118c0.86,0.29,1.708,0.627,2.534,0.983
			C329.336,179.385,329.465,179.017,329.561,178.649z"/>
		<path fill="#D4A2A9" d="M327.072,215.202c0.053,0.162,0.114,0.325,0.2,0.49c2.884-2.824,5.806-5.651,8.815-8.391
			C332.623,209.31,329.688,212.101,327.072,215.202z"/>
		<path fill="#D4A2A9" d="M318.508,178.258c0.243-0.09,0.492-0.171,0.743-0.235c-0.778-0.751-1.325-1.738-1.452-2.881
			c-0.276,0.242-0.547,0.494-0.813,0.751C317.234,176.817,317.751,177.634,318.508,178.258z"/>
		<path fill="#D4A2A9" d="M338.804,204.96c0.282-0.234,0.781-0.646,1.414-1.167c-1.402-5.875-4.106-11.716-8.866-15.192
			c3.178,5.063,5.421,10.53,7.122,16.309C338.604,204.879,338.716,204.897,338.804,204.96z"/>
		<path fill="#D4A2A9" d="M331.47,200.647c-0.045,0.65-0.15,1.644-0.256,2.744c0.824-0.448,1.667-0.861,2.535-1.22
			c-0.385-0.794-0.737-1.601-1.069-2.418C332.29,200.061,331.885,200.36,331.47,200.647z"/>
		<path fill="#D4A2A9" d="M309.293,260.874c-0.631,1.425-1.069,2.92-1.691,4.342c0.276-0.031,0.461-0.055,0.494-0.074
			c0.155-0.079,0.776-1.417,1.138-2.38c0.317-0.848,0.596-2.313,0.553-2.893C309.623,260.207,309.445,260.534,309.293,260.874z"/>
		<path fill="#D4A2A9" d="M303.634,267.875c-0.226-0.057-0.446-0.119-0.649-0.177c-0.19-0.053-1.197-0.519-0.552-0.439
			c0.317,0.039,0.667,0.07,1.029,0.097c-0.119-0.434-0.2-0.883-0.251-1.322c-0.294-0.002-0.57-0.006-0.804-0.006
			c-0.178,0-0.145-0.177,0.667-0.317c0.031-0.007,0.069-0.011,0.104-0.018c-0.385-4.26,0.339-8.612,0.659-12.879
			c0.005-0.728,0.008-1.33,0.01-1.72c-0.454,0.519-0.923,1.046-1.232,1.619c0.079,2.398-0.266,5.276-0.362,7.671
			c-0.104,2.541-0.18,4.333-1.784,4.966c0.018,0.896-0.038,1.784-0.147,2.663c1.465,0.397,4.357,1.102,5.612,2.656
			c0.06-0.207,0.16-0.459,0.299-0.711C304.868,269.984,304.074,269.06,303.634,267.875z"/>
		<path fill="#D4A2A9" d="M311.547,259.974c-0.36,1.06-0.666,2.14-0.994,3.213c0.666-1.13,1.478-2.355,2.144-3.315
			C312.226,260.106,311.782,260.064,311.547,259.974z"/>
		<path fill="#D4A2A9" d="M296.312,263.79c-0.386,1.348-0.664,2.752-0.852,4.189c0.55,0.418,1.196,0.877,1.495,0.939
			c0-0.455,0.041-3.474,0.233-4.55C296.717,264.328,296.459,264.102,296.312,263.79z"/>
		<path fill="#D4A2A9" d="M307.02,243.539c0.558-0.192,1.166-0.284,1.848-0.161c0.235-0.521,1.371-3.175,1.789-4.113
			c-0.773-0.335-1.599-0.814-2.44-1.291C307.63,239.786,307.208,241.644,307.02,243.539z"/>
		<path fill="#5D5D5D" d="M308.346,247.802c1.586-5.565,4.603-10.988,4.742-11.265c0.248-0.5,0.704,1.032,0.467,1.462
			c-0.274,0.505-1.115,2.21-1.348,2.738c-1.112,2.516-0.877,3.323-0.755,3.052c0.806-1.781,1.779-3.431,2.735-5.107
			c0.671,2.101,2.676,3.909,4.118,5.359c1.062,1.068,3.982,4.276,4.552,4.751c-0.327,1.136-0.763,2.763-1.107,3.893
			C321.134,252.15,312.827,248.15,308.346,247.802z"/>
		<path fill="#5D5D5D" d="M299.693,295.288c-1.577-2.928-1.68-10.183-1.32-10.797c0.362-0.614,0.985,0.24,1.09,2.75
			c0.051,1.246,0.051,2.49,0.155,3.73c0.02,0.256,0.358-0.139,0.436-0.78c0.22-1.829,0.258-3.801-0.172-5.43
			c1.749-0.806,7.566-0.993,10.934-0.003c-0.383,2.128-0.695,4.278-1.016,6.447C306.414,290.619,300.735,294.043,299.693,295.288z"
			/>
		<path fill="#4B4B4B" d="M312.324,128.852c-0.824,0.248-1.632,0.518-2.395,0.823c1.222,7.178,3.12,25.346,3.427,29.641
			c0.382-0.052,0.775-0.097,1.176-0.136C315.019,149.548,313.946,136.585,312.324,128.852z"/>
		<path fill="#4B4B4B" d="M348.955,130.557c-2.535,3.688-4.511,7.816-6.273,11.934c-2.471,5.771-5.033,11.618-6.594,17.738
			c5.275,0.68,9.147,1.384,9.165,1.395c1.876-3.991,11.423-19.329,16.132-24.421C358.737,134.581,354.285,132.296,348.955,130.557z"
			/>
		<path fill="#4B4B4B" d="M364.247,173.017c-2.283,0.177-4.499,0.121-6.686-0.084c4.532,0.664,9.083,1.107,13.836,0.846
			c0.282-0.353,0.425-1.283,0.359-2.359C369.339,172.256,366.837,172.815,364.247,173.017z"/>
		<path fill="#4B4B4B" d="M341.38,169.643c-8.648-2.042-17.781-2.025-26.611-2.583c-4.607-0.29-9.23-0.474-13.764,0.653
			c-0.932,0.231-1.852,0.534-2.773,0.842c10.956-0.794,31.759,0.614,37.54,1.041c3.991,0.296,9.248,1.283,13.196,1.934
			c0.401,0.066,0.798,0.134,1.197,0.201C347.26,171.103,344.358,170.346,341.38,169.643z"/>
		<path fill="#4B4B4B" d="M319.466,245.25c-0.124,1.167-0.363,2.296-0.672,3.299c-0.215,0.693-0.512,1.488-0.904,2.212
			c2.05,0.897,3.607,1.703,3.862,1.923c0.344-1.13,0.78-2.758,1.107-3.893C322.439,248.442,320.752,246.618,319.466,245.25z"/>
		<path fill="#4B4B4B" d="M318.306,244.04c-0.282-0.283-0.59-0.586-0.9-0.898c-0.378,2.378-1.178,4.649-2.497,6.409
			c0.705,0.264,1.396,0.54,2.053,0.816c0.656-1.225,1.034-2.877,1.176-3.726c0.127-0.769,0.231-1.62,0.279-2.488
			C318.379,244.117,318.339,244.074,318.306,244.04z"/>
		<path fill="#4B4B4B" d="M306.819,284.141c-0.211-0.014-0.426-0.019-0.638-0.028c-0.111,2.691-0.408,5.351-1.045,7.905
			c0.448-0.177,0.898-0.336,1.349-0.469C307.035,289.096,307.17,286.538,306.819,284.141z"/>
		<path fill="#4B4B4B" d="M307.889,284.225c0.307,2.298,0.202,4.708-0.261,7.049c0.778-0.144,1.52-0.181,2.174-0.069
			c0.32-2.169,0.633-4.318,1.016-6.447C309.963,284.509,308.953,284.334,307.889,284.225z"/>
		<path fill="#CA0019" d="M531.448,423.646c-1.333,1.859-2.765,3.969-3.166,6.302c-0.712,4.141,0.91,7.835,1.561,11.886
			c1.952,12.15-12.214,7.919-17.553,4.597c-0.458-0.285-0.851,0.386-0.52,0.753c2.363,2.613,5.578,4.792,9.002,5.597
			c-6.973,1.795-14.705-2.927-21.115,2.379c-0.654,0.539-1.255,1.137-1.828,1.761c-3.759,0.544-6.41-0.197-10.042-2.158
			c-2.94-1.589-5.831-3.033-9.216-2.858c-0.215,0.013-0.207,0.349,0.008,0.348c5.066-0.021,11.165,6.62,16.619,6.76
			c-2.644,1.241-5.342,1.579-8.749,0.535c-2.861-0.877-5.596-2.611-8.29-3.919c-5.176-2.512-10.186-3.243-15.837-2.442
			c-7.39,1.051-13.488,7.171-20.983,2.647c-2.843-1.716-5.104-4.11-8.118-5.635c-3.274-1.652-6.983-2.154-10.555-2.602
			c-0.286-0.037-0.368,0.41-0.081,0.457c3.982,0.662,7.74,1.67,11.329,3.63c3.343,1.825,5.788,5.514,9.416,6.735
			c7.173,2.419,13.876-2.82,20.896-3.736c7.59-0.989,13.749,3.213,20.399,6.157c2.928,1.296,6.329,1.627,9.33,0.757
			c-0.909,1.091-1.855,2.142-2.947,3.053c-4.105,3.427-9.051,1.84-13.489,0.247c-7.173-2.58-13.47-3.512-20.567-0.175
			c-3.541,1.663-6.779,3.849-10.498,5.118c-2.854,0.973-5.743,0.629-8.505-0.445c-2.715-1.057-4.242-3.758-6.141-5.852
			c-0.499-0.548-1.074-0.908-1.693-1.141c-2.885-3.48-7.851-3.961-12.17-3.971c-3.355-0.007-6.608,0.164-9.897-0.69
			c-4.119-1.072-7.53-5.653-10.721-8.354c-4.826-4.084-11.39-5.103-17.425-4.427c-2.182,0.244-4.228,1.063-6.219,2.01
			c-0.003-0.006-0.003-0.009-0.007-0.016c-3.115-5.736-9.933-4.279-14.859-7.254c-7.454-4.499-5.779-16.065-6.826-23.509
			c-0.266-1.894-0.966-2.208-0.943-2.023c0.847,6.771-0.74,14.918,2.587,21.177c1.617,3.043,3.574,5.232,6.63,6.712
			c4.245,2.058,8.805,2.128,12.606,5.308c-0.922,0.454-1.833,0.921-2.743,1.358c-5.545,2.67-9.988,2.605-15.372-0.097
			c-0.236-0.119-0.395,0.231-0.18,0.368c5.006,3.165,9.401,4.237,15.044,1.988c8.637-3.442,16.631-6.248,25.297-0.555
			c5.195,3.41,8.86,8.573,15.24,9.628c3.327,0.55,6.82,0.058,10.173,0.16c2.593,0.076,4.633,0.851,6.612,1.96
			c-1.402,0.219-2.795,0.751-3.916,1.254c-6.372,2.871-13.461,2.079-20.149,0.642c-10.272-2.209-20.488-6.434-31.14-5.421
			c-3.336,0.316-6.567,1.131-9.766,2.113c-5.36,0.075-10.528,0.462-15.273-3.399c-3.074-2.501-5.626-4.031-9.446-5.083
			c-4.38-1.209-8.643-1.966-13.186-1.707c-1.508,0.087-3.004,0.275-4.496,0.509c-1.262-1.56-2.914-2.165-4.992-2.206
			c-1.354-0.026-12.158-0.565-8.405-2.935c3.872-2.447,12.051-3.268,14.069-8.095c2.393-5.723-7.175-7.672-10.099-10.199
			c-0.984-0.851-1.622-2.162-2.083-3.648c1.037-3.842,1.66-7.83,1.883-11.839c0.975-11.068,0.484-22.76,0.003-33.699
			c-0.01-0.224-0.334-0.215-0.334,0.009c-0.027,6.016-0.553,12.204-0.928,18.392c-0.735-2.847-1.734-5.627-2.654-8.405
			c-1.703-5.147-2.129-10.15-1.83-15.546c0.562-10.053,3.905-20.361,6.106-30.135c2.359-10.483,6.055-22.216,9.213-32.486
			c0.489-1.589-0.629,0.29-1.029,1.396c-6.696,18.595-12.66,40.025-15.547,57.958c-1.501,9.338,0.37,16.755,3.13,25.485
			c2.682,8.492,1.766,17.065,1.254,25.73c-0.314-1.715-0.548-3.407-0.898-4.717c-1.424-5.319-3.51-10.335-6.964-14.573
			c-0.126-0.15-0.365,0.055-0.261,0.216c3.426,5.233,5.1,11.511,6.339,17.629c0.796,3.928,0.781,8.071,4.296,10.542
			c3.381,2.375,12.987,4.991,6.475,9.479c-3.753,2.584-9.027,3.286-12.303,6.606c-0.249,0.251-0.271,0.595-0.064,0.884
			c3.66,5.157,10.425,0.911,14.563,4.334c-3.951,0.67-7.879,1.562-11.892,1.641c-0.202,0.003-0.197,0.312,0.003,0.321
			c4.856,0.206,9.532-0.479,14.35-1.041c6.435-0.751,12.493,0.358,18.636,2.303c4.251,1.347,6.868,5.334,11.094,6.793
			c1.807,0.626,3.819,1.043,5.882,1.239c-4.309,1.443-8.625,2.857-13.116,3.428c-5.395,0.688-10.333-0.79-14.883-3.745
			c-4.075-2.645-9.483-2.935-14.021-4.131c-0.246-0.066-0.373,0.347-0.135,0.438c2.745,1.057,5.56,1.836,8.341,2.776
			c1.911,0.649,3.568,1.69,5.211,2.775c-8.571-2.292-17.853-3.113-26.611-2.496c-8.267,0.583-14.629,5.677-22.595,7.227
			c-3.413,0.664-8.785-1.203-5.428-4.899c1.329-1.461,2.95-2.649,4.372-4.014c1.985-1.904,2.757-3.957,1.415-5.788
			c1.924,0.396,3.814,1.05,5.783,1.999c0.438,0.21,0.913-0.387,0.514-0.741c-2.653-2.364-5.138-3.474-8.647-3.783
			c-4.734-0.413-14.026,3.888-16.967-1.272c-1.244-2.183,1.055-4.859,2.459-6.143c2.272-2.077,5.682-2.403,8.552-2.805
			c6.168-0.859,12.286-0.286,18.019-3.258c0.045-0.021,0.074-0.053,0.104-0.085c2.246,1.022,4.932,1.661,6.726,2.946
			c0.335,0.242,0.75-0.263,0.466-0.567c-2.248-2.387-5.267-3.185-7.829-5.101c-4.242-3.172,3.436-8.069,5.269-9.904
			c3.085-3.086,3.016-8.798,1.52-12.608c-0.091-0.234-0.405-0.132-0.357,0.113c0.405,2.013,0.416,3.85,0.069,5.533
			c-0.38-1.6-1.308-2.868-2.425-4.342c-4.057-5.358-2.925-8.63,1.123-13.205c4.456-5.039,3.911-9.35,2.623-14.533
			c2.663,4.089,5.918,7.797,7.59,12.508c0.16,0.456,0.846,0.328,0.732-0.175c-1.387-6.031-4.623-10.54-7.661-15.761
			c-3.703-6.359-3.378-13.552-1.873-20.566c3.064-14.284,11.61-26.639,13.115-41.454c0.018-0.179-0.279-0.216-0.304-0.035
			c-0.907,6.599-4.296,13.233-7.091,19.401c-0.003-7.907,4.387-16.107,6.103-23.478c2.978-12.79,3.563-26.857,8.173-39.121
			c4.104-10.917,8.467-21.305,11.324-32.7c1.079-4.295,1.952-8.624,2.701-12.99c0.89-5.201,2.137-13.225,7.829-15.334
			c0.532-0.196-0.558-0.692-1.885-0.261c-3.029,0.986-5.381,5.796-6.554,9.966c-6.196-0.122-11.985-0.312-12.943,5.015
			c-0.282-0.592-0.889-1.976-0.793-2.166c0.094-0.188,5.102-4.871,7.393-7.12c2.293-2.246,7.969-7.28,12-10.877
			c4.57-4.079,19.145-15.96,21.057-18.25c2.063-2.473,4.638-6.791,8.505-7.881c0.39-0.11,0.851,0.734,1.093,1.782
			c-0.689-0.609-1.378-0.356-1.924,0.021c-1.776,1.226-3.227,3.094-4.552,4.755c-1.155,1.449-1.951,3.191-3.062,4.681
			c-1.966,2.639-5.764,4.96-6.805,5.74c-1.397,1.048-1.64,1.642-1.457,1.544c1.075-0.575,4.491-2.463,6.478-3.586
			c1.985-1.124,8.194-4.222,12.307-4.978c5.01-0.92,9.89,0.068,14.112,5.052c7.375,8.708,6.182,20.668,5.348,31.221
			c-1.275,16.121-4.689,31.083-9.325,46.521c-4.28,14.258-8.947,28.428-12.145,43.005c-0.132,0.605,0.945,0.393,2.34-3.726
			c4.007-11.818,7.135-21.729,11.035-33.686c-0.464,4.05-1.278,10.115-1.954,14.145c-1.358,8.105-3.483,16.064-5.738,23.944
			c-4.26,14.89-9.382,29.504-13.485,44.443c-0.157,0.572,0.923,0.163,2.388-3.884c5.272-14.556,8.98-25.026,13.427-39.882
			c0.737-2.464,1.482-4.997,2.197-7.578c-0.064,5.248,0.026,10.497-0.165,15.747c-0.282,7.831-2.922,15.216-4.266,22.869
			c-1.072,6.108,0.419,11.284,2.743,16.846c1.703,4.071,3.388,7.814,2.767,12.375c-0.352,2.591-1.328,5.137-1.847,7.708
			c-0.755,3.77-0.254,7.784,2.841,10.165c3.588,2.758,8.526,2.141,12.142,5.261c4.593,3.968,4.473,10.884,6.001,16.334
			c0.317,1.135,0.842,2.074,1.605,2.862c-6.911,2.296-12.31-0.382-16.299-5.138c-0.767-2.117-1.477-4.243-2.306-6.205
			c-1.059-2.505-2.806-4.69-4.372-6.869c-3.032-4.22-4.521-8.944-4.509-14.193c0.008-3.455,0.636-6.862,0.624-10.324
			c-0.01-4.037-0.756-8.053-0.935-12.084c-0.015-0.31-0.459-0.26-0.461,0.042c-0.018,4.053,0.334,8.087,0.396,12.139
			c0.073,4.527-1.093,8.965-1.026,13.519c0.129,8.364,6.034,14.136,8.919,21.48c-2.525-2.982-5.133-5.926-7.099-9.254
			c-5.132-8.686-3.079-18.169-3.644-27.766c-0.013-0.215-0.33-0.209-0.322,0.007c0.322,7.998-1.305,15.851,0.912,23.672
			c1.216,4.291,3.701,8.166,6.25,11.715c1.918,2.672,3.994,5.526,6.298,8.038c1.782,4.223,4.055,7.903,8.049,10.81
			c6.31,4.59,14.115,5.169,21.561,5.498c0.641,0.029,0.814-0.889,0.16-1.038c-7.441-1.676-15.054-3.2-21.381-7.822
			c-2.441-1.781-4.068-4.26-5.348-6.992c0.851,0.727,1.789,1.357,2.831,1.866c3.469,1.687,7.007,2.359,10.777,1.668
			c4.764-0.876,8.868-3.28,13.484-0.461c5.438,3.322,8.333,11.582,15.653,11.079c3.822-0.264,7.068-4.101,10.336-5.707
			c5.619-2.759,12.771-1.89,18.902,0.099c-4.22-0.131-8.486,1.044-12.566,3.02c-0.195,0.098-0.038,0.443,0.164,0.36
			c4.643-1.901,9.781-2.556,14.708-1.705c5.105,0.882,9.611,5.389,13.982,8.025c4.114,2.484,9.243,2.357,14.003,1.323
			c-2.34,2.415-10.852,2.699-15.572,2.463c-0.19-0.009-0.22,0.308-0.033,0.343c6.053,1.183,11.583,1.532,17.315-1.249
			c5.292-2.569,9.051-7.343,14.913-8.852c4.281-1.103,8.667,0.227,12.844-1.498c3.948-1.63,6.058-5.06,7.297-8.979
			c1.155-3.654,2.821-11.982-0.832-16.409c-2.737-3.315-5.512-6.345-7.819-11.601c-1.131-2.578-0.765-5.086,0.21-7.139
			c1.027-2.161,2.834-4.108,4.366-5.883c5.508-6.381-2.76-12.226-5.989-17.314c-4.952-7.801,8.485-14.367,10.487-21.138
			c1.541-5.213-3.341-6.729-3.348-6.703c0.895-3.164,5.439,1.906,6.146,4.886c1.957,8.242-4.126,10.472-6.713,15.326
			c-1.939,3.645-1.706,6.223-1.04,10.119c0.211,1.227,1.024,2.353,1.067,1.754c0.253-3.568-0.087-9.561,2.504-11.517
			c-0.312,3.447,1.564,7.109,3.693,9.863c3.68,4.764,6.257,8.515,1.247,13.516c-2.246,2.244-3.976,4.152-4.922,7.26
			c-0.137,0.446,0.525,0.794,0.796,0.423c1.047-1.438,2.684-2.741,4.329-4.1c-0.978,4.506,0.519,8.857,3.358,13.231
			c2.188,3.37,4.813,6.314,6.437,10.056C536.341,415.492,534.344,419.622,531.448,423.646z"/>
		<path fill="#A90019" d="M358.206,362.046c-0.512,1.415-0.976,2.378-1.358,3.017c3.493-2.78,5.28-7.446,6.911-11.534
			c1.975-4.968,4.032-9.878,5.715-14.964c1.586-4.777,2.991-9.609,4.308-14.465c0.021-3.172,0.01-6.343,0.048-9.514
			c-0.715,2.581-1.46,5.114-2.197,7.578C367.187,337.02,363.479,347.49,358.206,362.046z"/>
		<path fill="#A90019" d="M302.658,396.38c-1.779-3.598-4.344-6.702-6.524-10.051c0.647,2.6,1.103,4.982,0.837,7.344
			C299.064,393.658,301.122,394.715,302.658,396.38z"/>
		<path fill="#A90019" d="M294.812,418.41c0.34-1.655,0.334-3.459-0.051-5.428c-0.459,0.763-0.991,1.484-1.586,2.151
			C293.93,416.19,294.525,417.207,294.812,418.41z"/>
		<path fill="#A90019" d="M294.827,440.42c-1.731-0.954-3.962-1.548-5.878-2.422c-0.03,0.032-0.06,0.064-0.104,0.085
			c-1.31,0.68-2.641,1.167-3.987,1.536C288.187,440.935,291.884,442.293,294.827,440.42z"/>
		<path fill="#A90019" d="M303.945,446.925c-0.207-0.288-0.185-0.633,0.064-0.884c3.277-3.32,8.551-4.022,12.303-6.606
			c6.513-4.488-3.094-7.104-6.475-9.479c-3.515-2.471-3.5-6.614-4.296-10.542c-0.479-2.371-1.032-4.767-1.718-7.117
			c0.236,2.805,0.081,5.697,0.007,8.293c-0.078,2.613-0.573,6.291,1.037,8.534c1.807,2.522,4.94,2.256,7.301,3.776
			c5.309,3.417-4.846,7.315-6.992,8.355c-1.665,0.807-3.799,1.884-4.631,3.71c-1.356,2.977,0.862,6.039,4.05,5.827
			c2.92-0.194,5.56-1.165,7.889,1.266c0.071,0.075,0.104,0.156,0.122,0.24c1.97-0.316,3.933-0.704,5.901-1.039
			C314.37,447.836,307.605,452.082,303.945,446.925z"/>
		<path fill="#A90019" d="M307.078,460.699c-3.077-1.069-6.204-2.278-9.512-1.825c-5.439,0.74-9.681,4.127-14.292,6.86
			c-2.195,1.301-4.765,2.558-7.233,3.09c0.922,0.136,1.885,0.127,2.73-0.037c7.966-1.55,14.329-6.644,22.595-7.227
			c2.653-0.188,5.353-0.237,8.07-0.155C308.644,461.197,307.856,460.969,307.078,460.699z"/>
		<path fill="#A90019" d="M372.674,406.539c1.566,2.179,3.313,4.365,4.372,6.869c0.829,1.961,1.539,4.088,2.306,6.205
			c3.617,4.312,8.395,6.9,14.403,5.639c-3.277-0.168-6.458-2.036-7.747-5.262c-0.889-2.229-1.249-4.714-2.406-6.826
			c-1.376-2.508-3.614-4.398-5.654-6.312c-4.076-3.826-7.447-7.833-7.779-13.778c-0.38-6.745,0.819-13.75-2.073-19.9
			c0.284,2.948,0.686,5.893,0.694,8.848c0.012,3.462-0.616,6.869-0.624,10.324C368.153,397.595,369.641,402.319,372.674,406.539z"/>
		<path fill="#A90019" d="M404.294,435.383c-2.438-1.438-5.399-1.587-8.03-2.461c-4.574-1.52-8.515-3.813-12.163-7.004
			c-0.05-0.024-0.101-0.042-0.15-0.066c-1.042-0.509-1.98-1.139-2.831-1.866c1.28,2.731,2.907,5.21,5.348,6.992
			c6.275,4.584,13.813,6.12,21.196,7.781C407.358,437.589,404.926,435.756,404.294,435.383z"/>
		<path fill="#A90019" d="M469.724,448.332c-3.72-0.523-7.104,0.348-10.424,2.07c-5.198,2.695-10.355,6.015-16.342,3.873
			c-3.381-1.208-6.476-3.235-9.907-4.283c-0.221-0.067-0.443-0.113-0.664-0.17c0.281,0.122,0.558,0.239,0.832,0.377
			c3.014,1.524,5.275,3.919,8.118,5.635c7.495,4.524,13.593-1.596,20.983-2.647c5.651-0.801,10.66-0.07,15.837,2.442
			c2.694,1.307,5.429,3.042,8.29,3.919c3.407,1.044,6.105,0.706,8.749-0.535c-0.299-0.008-0.601-0.043-0.903-0.088
			c-6.131,0.868-11.159-2.704-16.075-6.371C475.66,450.646,472.922,448.783,469.724,448.332z"/>
		<path fill="#A90019" d="M520.772,452.781c-3.259-0.766-6.318-2.781-8.645-5.227c-1.478,1.229-1.673,3.231-1.188,5.185
			C514.241,453.063,517.586,453.601,520.772,452.781z"/>
		<path fill="#A90019" d="M531.448,423.646c0.927-1.284,1.758-2.582,2.392-3.918c-0.124,0.175-0.246,0.35-0.377,0.522
			c-1.932,2.527-4.664,4.421-6.371,7.11c-2.127,3.352-2.076,6.527-0.38,10.075c1.3,2.717,2.519,5.852,2.978,8.874
			c0.365-1.153,0.449-2.619,0.152-4.475c-0.651-4.051-2.273-7.745-1.561-11.886C528.684,427.615,530.115,425.505,531.448,423.646z"
			/>
		<path fill="#A90019" d="M516.836,368.374c0.712-1.649,1.657-3.178,2.785-4.484c-0.362-1.237-0.537-2.497-0.426-3.729
			C517.303,361.588,516.975,365.16,516.836,368.374z"/>
		<path fill="#A90019" d="M410.156,460.053c-6.381-1.055-10.046-6.219-15.24-9.628c-8.666-5.693-16.661-2.887-25.297,0.555
			c-2.725,1.086-5.162,1.391-7.515,1.065c3.921,1.074,8.221,0.448,12.213-1.135c4.859-1.92,9.805-3.231,14.811-1
			c5.688,2.534,10.095,7.535,14.832,11.514c1.668,1.398,3.287,2.701,5.084,3.69c4.757,0.533,9.545,0.313,13.982-1.686
			c1.121-0.503,2.514-1.035,3.916-1.254c-1.979-1.109-4.019-1.884-6.612-1.96C416.976,460.111,413.482,460.603,410.156,460.053z"/>
		<path fill="#A90019" d="M261.691,448.086c-0.424-0.884-0.579-1.825-0.534-2.785c-1.194,1.399-2.283,3.335-1.343,4.988
			c2.665,4.674,10.533,1.593,15.509,1.28C270.499,450.685,264.195,453.287,261.691,448.086z"/>
		<path fill="#A90019" d="M308.847,388.902c-4.147-13.196,0.646-26.301,3.183-39.264c1.351-6.91,2.238-13.899,3.325-20.854
			c0.373-2.376,0.557-4.775,0.695-7.174c-2.134,7.089-4.218,14.387-5.745,21.166c-2.202,9.775-5.545,20.082-6.106,30.135
			c-0.299,5.396,0.127,10.399,1.83,15.546c0.92,2.779,1.919,5.559,2.654,8.405c0.154-2.554,0.331-5.103,0.491-7.646
			C309.034,389.181,308.905,389.085,308.847,388.902z"/>
		<path fill="#A90019" d="M306.171,445.941c-1.863,1.176-0.137,1.901,2.236,2.337c-1.24-2.224,1.926-3.485,3.677-3.963
			c3.469-0.951,8.592-0.721,10.505-4.571c1.947-3.914-1.158-5.906-4.283-7.429c1.833,1.393,2.938,3.13,1.934,5.531
			C318.222,442.673,310.043,443.494,306.171,445.941z"/>
		<path fill="#A90019" d="M363.1,403.339c0.803,3.345,1.757,6.844,3.82,9.61c1.853,2.489,4.116,4.641,5.834,7.24
			c3.853,5.824,6.508,12.373,12.883,15.818c3.505,1.895,7.246,2.597,11.065,2.717c-3.749-0.752-7.358-2.043-10.576-4.384
			c-3.994-2.908-6.267-6.588-8.049-10.81c-2.304-2.511-4.38-5.366-6.298-8.038c-2.549-3.549-5.034-7.424-6.25-11.715
			c-2.114-7.46-0.737-14.945-0.882-22.559C361.736,388.17,361.34,396,363.1,403.339z"/>
		<path fill="#A90019" d="M354.858,281.096c1.193-6.402,2.464-12.799,3.895-19.147c2.038-9.03,4.337-19.657-0.236-27.787
			c0.218,3.997,0.259,8.003,0.018,12c-0.423,7.039-1.485,14.019-3.095,20.872c-0.9,3.829-2.236,7.62-2.91,11.497
			c-0.666,3.825-0.819,7.709-1.317,11.557c-0.91,7.017-3.624,13.66-6.167,20.171c-1.407,3.606-2.942,7.237-3.013,11.197
			c-0.058,3.295,0.851,6.318,1.239,9.548c0.799,6.655-0.993,12.854-3.488,18.929c-1.52,3.697-2.919,7.744-2.142,11.825
			c0.679,3.587,2.502,6.363,4.227,9.467c3.178,5.721,5.346,12.023,2.981,18.494c-1.117,3.051-2.858,5.854-3.512,9.083
			c-0.557,2.753-0.253,5.244,0.687,7.654c0.715-4.099,2.79-7.831,4.694-11.535c3.031-5.904,5.094-12.591,3.834-19.336
			c-1.202-6.444-5.242-11.063-7.479-16.997c-1.985-5.271-0.832-10.575,1.827-15.376c3.181-5.75,7.525-10.889,8.984-17.501
			c1.748-7.921,0.15-15.213-0.583-23.116C352.633,295.385,353.54,288.174,354.858,281.096z"/>
		<path fill="#A90019" d="M341.346,435.126c-0.583-3.743,1.021-8.333-0.94-11.735c-1.696-2.946-5.082-3.823-7.649-5.714
			c-3.049-2.248-5.363-5.583-5.188-9.636c0.264-6.135,3.987-10.975,7.16-15.863c1.612-2.479,3.386-5.371,2.999-8.507
			c-0.444-3.598-2.838-6.415-4.36-9.572c-2.499-5.182-3.865-10.763-2.99-16.57c1.164-7.717,4.962-14.954,3.5-22.95
			c-0.573-3.14-1.563-6.256-1.766-9.458c-0.193-3.052,0.218-5.622,1.267-8.486c1.301-3.556,2.412-7.101,2.905-10.89
			c0.476-3.629,0.636-7.294,1.341-10.887c1.435-7.277,4.043-14.214,5.682-21.433c1.553-6.825,1.351-13.377-0.218-19.985
			c-0.34,3.565-0.507,7.15-1.08,10.691c-0.882,5.45-2.598,10.69-4.327,15.901c-1.61,4.844-3.293,9.743-4.083,14.818
			c-0.806,5.198-0.689,10.481-1.508,15.688c-1.194,7.619-3.549,15.12-3.855,22.859c-0.281,7.196,0.885,14.733-0.385,21.845
			c-1.222,6.846-4.496,13.318-4.972,20.305c-0.264,3.852,0.505,7.225,1.368,10.928c0.641,2.744,1.018,5.515,0.312,8.294
			c-1.574,6.171-6.848,12.442-4.594,19.101c2.053,6.064,7.426,9.71,12.857,12.177c3.239,1.471,5.064,3.251,4.278,7.164
			c-0.246,1.224-0.601,2.326-0.993,3.493c-0.476,1.405,1.909,2.538,2.93,2.89c1.802,0.622,3.89,1.028,5.862,0.819
			C343.107,439.197,341.719,437.523,341.346,435.126z"/>
		<path fill="#A90019" d="M360.264,442.055c-3.056-1.481-5.013-3.669-6.63-6.712c-3.204-6.028-1.857-13.806-2.507-20.424
			c-0.953,4.618-2.235,9.299-2.212,14.036c0.025,4.49,0.94,9.83,4.441,12.916c3.019,2.662,6.569,3.197,10.359,3.71
			c2.519,0.339,5.155,0.877,6.932,2.883c0.737-0.363,1.475-0.733,2.221-1.1C369.07,444.183,364.509,444.113,360.264,442.055z"/>
		<path fill="#A90019" d="M349.204,460.632c-3.999,1.201-8.059,2.785-12.298,2.422c-2.729-0.232-5.525-0.468-8.292-0.836
			c4.542,2.94,9.471,4.41,14.851,3.726c4.491-0.572,8.807-1.985,13.116-3.428c-2.063-0.196-4.075-0.613-5.882-1.239
			C350.179,461.098,349.684,460.878,349.204,460.632z"/>
		<path fill="#A90019" d="M308.059,423.999c0.461,1.486,1.098,2.797,2.083,3.648c0.712,0.617,1.822,1.197,3.056,1.809
			c-1.359-1.103-2.476-2.489-3.011-4.245c-0.813-2.665-0.626-5.474-0.207-8.197c0.695-4.512,1.551-8.942,1.794-13.519
			c0.226-4.298,0.332-8.64,0.175-12.942c-0.119-3.278-0.304-7.067-1.914-10.022c0.448,10.335,0.821,21.256-0.093,31.63
			C309.719,416.169,309.096,420.158,308.059,423.999z"/>
		<path fill="#A90019" d="M514.077,387.091c0.803-0.573,1.62-1.122,2.459-1.649c1.52-0.959,3.873-2.022,4.698-3.735
			c2.502-5.205-4.441-8.555-7.757-10.82c-0.613-0.42-1.232-0.858-1.828-1.328c3.672,4.569,9.19,9.681,4.431,15.191
			C515.435,385.497,514.743,386.278,514.077,387.091z"/>
		<path fill="#A90019" d="M520.74,390.342c1.282,0.366,2.433,0.963,3.474,1.739c-0.259-1.637-0.238-3.287,0.124-4.957
			C523.035,388.199,521.743,389.242,520.74,390.342z"/>
		<path fill="#A90019" d="M491.4,458.054c-3.997-1.704-8.125-5.144-11.792-5.716C483.31,455.027,487.013,457.698,491.4,458.054z"/>
		<path fill="#A90019" d="M315.905,459.04c0.908,0.816,1.776,1.689,2.42,2.715c0.086,0.135,0.16,0.273,0.235,0.414
			c3.193,0.444,6.351,1.069,9.418,1.888c-1.643-1.085-3.3-2.126-5.211-2.775C320.481,460.509,318.177,459.837,315.905,459.04z"/>
		<path fill="#A90019" d="M359.09,459.806c-3.834-1.501-6.734-4.649-10.143-6.896c-4.471-2.945-9.369-4.451-14.679-3.77
			c-2.563,0.327-5.089,0.894-7.621,1.405c3.597,0.088,7.063,0.759,10.602,1.735c3.82,1.052,6.372,2.583,9.446,5.083
			c4.745,3.861,9.914,3.474,15.273,3.399c0.038-0.011,0.076-0.022,0.114-0.033C361.077,460.498,360.079,460.194,359.09,459.806z"/>
		<path fill="#A90019" d="M284.124,455.728c-1.688-0.75-3.33-1.297-4.993-1.641c1.207,1.651,0.692,3.482-0.877,5.224
			C280.758,458.843,283.386,457.906,284.124,455.728z"/>
		<path fill="#A90019" d="M365.774,317.605c1.795-2.237,3-4.931,4.126-7.602c1.554-3.682,3.023-7.4,4.385-11.162
			c0.347-0.956,0.676-1.922,1.013-2.883c0.613-3.919,1.287-9.011,1.696-12.56c-3.9,11.957-7.028,21.868-11.035,33.686
			C365.897,317.269,365.836,317.436,365.774,317.605z"/>
		<path fill="#A90019" d="M333.277,257.752c0.654-10.735-0.436-21.528,0.783-32.217c-0.395,0.998-0.765,2.002-1.095,3
			c-1.406,4.252-2.155,8.514-2.549,12.988c-0.723,8.183-1.782,16.122-4.478,23.899c-1.293,3.724-2.781,7.37-4.45,10.93
			c-1.81,3.861-3.871,7.58-5.039,11.726c-1.771,6.28-2.263,12.759-2.656,19.251c2.639-5.912,6.374-11.354,9.483-16.958
			c3.087-5.563,5.885-11.333,7.994-17.359C332.355,267.989,332.968,262.841,333.277,257.752z"/>
		<path fill="#A90019" d="M335.241,232.281c-0.114-1.235-0.337-2.879-0.461-4.622c-0.996,11.046,0.23,22.212-0.798,33.281
			c-0.139,1.493-0.305,2.989-0.499,4.479c0.2-0.854,0.403-1.705,0.57-2.57C335.989,252.766,336.173,242.498,335.241,232.281z"/>
		<path fill="#A90019" d="M334.027,216.764c-3.784,1.145-5.812,6.302-9.357,8.169c-1.285,0.677-2.768,1.197-4.251,1.749
			c2.258-0.472,5.038-0.408,7.913-0.352C329.391,222.563,331.414,218.286,334.027,216.764z"/>
		<path fill="#A90019" d="M317.37,227.955c-0.978,0.482-1.89,1.045-2.666,1.753c0.173,0.511,0.499,1.245,0.686,1.637
			C315.67,229.785,316.374,228.708,317.37,227.955z"/>
		<path fill="#A90019" d="M361.779,186.29c-2.483,1.044-5.053,4.859-6.126,6.525c-0.215,0.333-0.424,0.667-0.634,0.998
			c-1.202,2.071-2.451,4.051-4.005,5.885c-0.256,0.325-0.499,0.659-0.768,0.972c1.561-1.109,3.592-2.677,4.861-4.381
			c1.112-1.49,1.908-3.232,3.062-4.681c1.325-1.661,2.777-3.53,4.552-4.755c0.276-0.189,0.586-0.347,0.915-0.38
			C363.034,186.18,362.408,186.14,361.779,186.29z"/>
		<path fill="#F2D9DC" d="M313.219,181.6c-1.194,1.77-4.262,9.658-4.262,16.014c0,1.946,2.568-4.796,3.446-7.844
			C313.282,186.722,314.659,179.461,313.219,181.6z"/>
		<path fill="#F2D9DC" d="M317.855,189.121c0.233-2.013,1.377-4.539,2.942-4.927C322.364,183.804,317.416,192.881,317.855,189.121z"
			/>
		<path fill="#F2D9DC" d="M328.253,182.054c1.944,0.373,4.509,1.102,5.949,1.816c1.442,0.713-2.192,0.712-3.756,0.194
			C328.88,183.545,324.87,181.405,328.253,182.054z"/>
		<path fill="#F2D9DC" d="M337.149,183.675c1.259-1.022,3.883-0.778,4.949,1.88C343.163,188.215,335.707,184.842,337.149,183.675z"
			/>
		<path fill="#F2D9DC" d="M325.747,201.959c1.67-0.891,3.944-2.399,5.198-2.725c1.254-0.323-0.814-0.907-2.881,0.066
			C325.997,200.274,323.678,203.061,325.747,201.959z"/>
		<path fill="#F2D9DC" d="M337.273,182.444c1.057-0.291,2.131-0.453,2.882-0.13c0.751,0.324-0.752-1.297-1.943-1.167
			C337.022,181.276,336.333,182.702,337.273,182.444z"/>
		<path fill="#F2D9DC" d="M300.626,240.474c0.562-1.993,1.627-3.697,3.32-3.501C305.638,237.167,299.748,243.587,300.626,240.474z"
			/>
		<path fill="#F2D9DC" d="M299.686,250.718c-0.117,1.947-0.375,5.252-0.624,6.418c-0.253,1.167,1.25-1.102,1.315-3.176
			C300.438,251.885,299.81,248.642,299.686,250.718z"/>
		<path fill="#F2D9DC" d="M289.976,292.342c0.307-1.297,0.565-3.372,1.693-4.149c1.125-0.777,2.378-0.908,2.692-0.454
			C294.675,288.193,289.349,295.001,289.976,292.342z"/>
		<path fill="#F2D9DC" d="M286.28,303.3c0-2.143,1.127-5.941,2.258-7.78c0.436-0.714,0.685,3.047,0.061,4.926
			C287.973,302.327,286.28,305.117,286.28,303.3z"/>
		<path fill="#FF5849" d="M330.887,214.691c1.858-1.833,11.529-10.188,13.085-11.53c1.554-1.34-1.62,3.621-4.21,5.9
			C337.17,211.339,326.679,218.848,330.887,214.691z"/>
		<path fill="#FF5849" d="M355.77,200.77c6.447-3.368,15.054-6.133,19.796-0.858C380.308,205.187,343.561,207.151,355.77,200.77z"/>
		<path fill="#FF5849" d="M366.557,206.292c3.158-0.192,8.179-1.596,10.075-2.576c1.896-0.981-1.067,4.049-4.978,4.294
			C367.742,208.255,360.514,206.66,366.557,206.292z"/>
		<path fill="#FF5849" d="M331.589,224.204c0.357-2.453,2.606-5.152,5.571-6.871c2.411-1.397,8.298-4.784,7.705-2.698
			C344.272,216.721,331.234,226.661,331.589,224.204z"/>
		<path fill="#FF5849" d="M328.624,246.657c-0.519,4.304-1.894,14.845-4.978,21.101c-3.08,6.258-6.281,14.111-7.229,14.723
			c-0.95,0.614,2.725-10.306,5.454-18.281C324.596,256.227,329.098,242.73,328.624,246.657z"/>
		<path fill="#FF5849" d="M341.664,251.441c0.149,4.786-0.474,13.864-2.372,20.366c-1.896,6.503-5.452,11.901-6.518,18.281
			c-1.069,6.381-1.66,14.722-1.898,19.018c-0.236,4.293-4.861-10.674-0.712-21.471c4.149-10.797,7.588-16.318,8.417-21.103
			C339.412,261.747,341.546,247.639,341.664,251.441z"/>
		<path fill="#FF5849" d="M350.556,282.604c0.783-5.213,0.474,9.691-2.846,16.317c-3.32,6.624-7.705,11.777-7.349,19.263
			c0.355,7.482,2.134,13.985,2.015,17.667c-0.121,3.681-4.151,8.588-6.521,14.6c-2.37,6.011-2.606,10.796-1.541,13.005
			c1.067,2.208-4.74-3.067-0.829-13.005c3.911-9.938,7.469-13.373,6.283-20.368c-1.186-6.992-5.333-13.74-1.305-21.838
			c4.032-8.097,7.112-8.587,9.008-13.252C349.37,290.334,349.725,288.126,350.556,282.604z"/>
		<path fill="#FF5849" d="M381.256,234.632c1.285,6.744-1.541,21.225-6.283,35.948C370.232,285.302,377.936,217.211,381.256,234.632
			z"/>
		<path fill="#FF5849" d="M326.49,341.986c0.545,4.915,0.476,15.583-3.199,22.696c-3.675,7.117-5.926,12.516-4.149,17.79
			c1.779,5.276,2.648,13.109,0.712,18.159c-3.201,8.343-1.924,12.682-0.712,16.196c0.593,1.716-3.911-3.07-3.675-7.24
			c0.238-4.172,2.253-8.588,3.082-12.514c0.831-3.925-2.251-10.306-2.963-17.789c-0.71-7.485,2.968-11.838,5.69-17.546
			C325.899,352.046,326.016,337.691,326.49,341.986z"/>
		<path fill="#FF5849" d="M343.206,387.994c-1.166,3.318-4.742,9.447-4.623,14.967c0.117,5.523,1.541,11.901,5.097,14.724
			c3.555,2.822-13.514-1.963-10.787-14.355C335.619,390.938,344.628,383.943,343.206,387.994z"/>
		<path fill="#FF5849" d="M302.073,431.302c2.251,1.129,6.757,4.049,5.214,5.522c-1.541,1.473-16.121-2.7-16.476-4.664
			C290.457,430.2,298.162,429.34,302.073,431.302z"/>
		<path fill="#FF5849" d="M279.077,443.203c3.427-0.465,11.971,1.84,14.7,4.295C296.502,449.952,262.479,445.462,279.077,443.203z"
			/>
		<path fill="#FF5849" d="M320.445,430.69c3.877,2.063,7.469,5.767,4.861,9.324c-2.607,3.557-5.452,4.539-7.705,5.522
			c-2.251,0.983,12.683,2.699,14.225-7.485C333.366,427.868,316.298,428.481,320.445,430.69z"/>
		<path fill="#FF5849" d="M378.053,443.57c10.196-1.962,15.055-0.613,19.678,4.051c4.625,4.662,7.469,7.482,10.789,8.343
			c3.317,0.858-3.559-3.313-8.062-10.307c-4.506-6.993-9.957-7.484-15.766-6.993C378.884,439.155,374.124,444.328,378.053,443.57z"
			/>
		<path fill="#FF5849" d="M491.613,442.712c3.024-3.129,8.298-6.501,13.75-5.643C510.815,437.928,483.077,451.546,491.613,442.712z"
			/>
		<path fill="#FF5849" d="M429.263,442.099c3.792-1.104,17.663-4.539,27.263-2.208c9.603,2.332,11.499,3.803,9.127,4.539
			c-2.37,0.736-11.854,1.718-20.98,1.718C438.045,446.148,425.469,443.203,429.263,442.099z"/>
		<path fill="#FF5849" d="M404.251,427.5c2.205-0.546,7.231,3.68,9.958,7.36C416.936,438.543,396.309,429.462,404.251,427.5z"/>
		<path fill="#FF5849" d="M386.708,406.521c2.39,1.066,4.149,5.52,4.385,8.709C391.331,418.421,379.834,403.453,386.708,406.521z"/>
		<path fill="#FF5849" d="M362.763,411.796c1.971,3.447,8.891,12.759,10.787,19.384c1.896,6.625-10.312-4.294-11.735-7.608
			C360.393,420.262,354.703,397.688,362.763,411.796z"/>
		<path fill="#FF5849" d="M371.063,370.326c1.681,3.488,3.317,7.608,2.606,12.024C372.958,386.767,366.675,361.247,371.063,370.326z
			"/>
		<path fill="#FF5849" d="M357.547,318.185c0.142,7.01,0.355,14.968-3.437,21.101c-3.791,6.135-8.179,11.9-7.231,16.686
			c0.95,4.784,4.625,9.569,6.047,14.846c1.422,5.275,1.067-1.841,0-6.015c-1.067-4.17-4.387-7.851-1.186-13.863
			c3.199-6.011,5.807-8.465,7.35-15.95C360.631,327.509,357.428,312.295,357.547,318.185z"/>
	</g>
</g>
</svg>
