<?xml version="1.0" encoding="utf-8"?>
<!-- Generator: Adobe Illustrator 17.0.0, SVG Export Plug-In . SVG Version: 6.00 Build 0)  -->
<!DOCTYPE svg PUBLIC "-//W3C//DTD SVG 1.1//EN" "http://www.w3.org/Graphics/SVG/1.1/DTD/svg11.dtd">
<svg version="1.1" id="Layer_1" xmlns="http://www.w3.org/2000/svg" xmlns:xlink="http://www.w3.org/1999/xlink" x="0px" y="0px"
	 width="800px" height="600px" viewBox="0 0 800 600" enable-background="new 0 0 800 600" xml:space="preserve">
<g>
	<path d="M568.688,127.754c-3.241-0.332-6.74,2.478-9.982,2.71c-3.66,0.263-6.758-2.76-9.599-4.623
		c-6.215-4.073-12.445-2.804-17.162,2.839c-3.164-2.491-6.053-3.014-10.33-2.812c-7.187,0.344-14.245-1.09-21.399-1.727
		c-4.755-0.422-9.544-0.341-14.197,0.761c-4.831,1.144-10.258,6.775-15.445,5.5c-6.147-4.707-13.817-8.871-21.193-8.592
		c-9.579,0.361-16.998,10.1-23.625,15.807c-3.828,3.297-8.872,4.96-12.932,6.715c-3.352,1.449-1.87,4.771-0.082,5.633
		c3.918,1.884,8.258,0.968,12.162-0.522c4.352-1.66,7.456-1.007,11.77,0.13c3.626,0.955,6.234-0.388,9.808,1.308
		c-1.943,2.691-3.243,5.914-2.223,9.285c1.144,3.779,10.984,5.642,7.846,8.892c-3.661,3.793-6.611,10.644-7.977,13.339
		c-1.366,2.697-5.1,11.248-7.061,18.7c-1.962,7.453-3.552,12.766-4.969,16.084c-1.415,3.323-4.303,7.595-6.931,8.762
		c-7.711,3.422-12.208,10.405-14.811,14.432c-3.255,5.044-4.01,10.462-7.643,15.231c-4.4,5.77-12.121,15.962-16.599,22.444
		c-4.478,6.489-11.549,17.409-13.815,21.057c-5.471,8.814-11.144,17.357-17.637,25.467c-5.893,7.359-18.281,26.649-20.411,29.164
		c-13.452,15.879-23.243,43.646-22.851,66.79c-4.578,2.081-10.243-0.496-14.355-2.484c-4.926-2.382-9.414-5.425-13.664-8.852
		c-5.428-4.372-10.449-9.159-15.434-14.599c-3.736-4.076-8.993-10.132-11.873-13.96c-4.681,13.83,7.519,25.898,16.026,32.785
		c10.852,8.784,24.933,20.61,40.084,19.665c0.524,2.877,0.89,5.192,1.701,7.585c1.338,3.955,4.242,7.7,7.949,9.636
		c3.984,2.078,9.469,3.676,11.568,3.064c1.649,2.19,4.321,3.7,6.04,4.798c5.518,3.507,12.749,4.078,17.588,8.704
		c3.373,3.226,5.729,3.854,9.945,1.576c0.931,1.565,3.612-0.285,4.083-1.524c2.368,1.102,5.14,1.002,6.398-0.73
		c1.278,1.013,3.556-0.456,3.168-2.072c0.766,0.562,1.543,0.744,2.56,0.426c-0.168,2.335,2.807,2.302,3.777,1.158
		c0.559-0.659,0.777-2.675,0.763-3.895c2.086-1.041,2.386-2.159,1.613-5.017c-0.679-2.512-2.315-5.379-4.246-7.696
		c1.4-0.187,6.781-1.836,8.916-2.601c0.744,3.609,0.407,12.571,0.51,16.346c0.069,2.539,0.349,6.417,1.767,8.653
		c3.604,5.67,13.932,4.648,17.002,4.996c1.009,2.103,3.898,1.562,4.813,0.365c3.013,1.846,6.736,2.051,9.262,0.367
		c0.647,1.777,3.39,1.772,4.387,0c1.268,0.118,2.751-0.284,3.474-1.403c0.616,0.365,1.46,0.199,2.071-0.669
		c0.512-0.729,1.152-2.284,0.854-5.119c-0.517-4.926-5.26-9.173-10.362-11.839c-3.4-1.775-6.08-4.944-6.931-7.715
		c2.618,2.052,7.005,1.18,9.678,1.307c8.794,0.432,17.312,1.126,25.631,4.185c4.539,1.667,14.82,11.123,19.036,6.566
		c2.73,3.816,10.221,4.339,13.71,1.035c0.007-0.003,1.341,0.609,2.316-0.366c0.503-0.502,0.727-1.32,0.609-2.072
		c1.184-0.167,1.893-1.177,2.255-2.132c0.594,0.173,1.16-0.414,1.585-1.037c0.705-1.038-1.076-5.881-2.073-5.972
		c0.167-11.14-13.761-9.085-21.783-9.337c-9.294-0.293-19.774-5.594-23.552-6.386c9.939-3.531,27.874-19.845,33.267-25.548
		c4.68-4.949,11.26-11.355,9.961-18.904c-0.801-4.654-5.634-8.744-10.258-8.371c3.837-2.653,7.613-5.341,10.673-8.959
		c3.003-3.549,4.574-5.982,7.148-9.797c1.198,11.098,0.964,18.341,3.4,29.293c1.282,5.76,4.173,13.445,4.964,19.299
		c0.929,6.85-0.241,13.914-0.162,20.797c0.063,5.276,0.358,10.768,0.952,16.005c0.384,3.385,1.083,6.347,0.392,9.809
		c-0.452,2.278-0.778,4.731-0.915,7.061c-0.359,6.003,3.503,10.516,9.482,8.822c0.802,1.766,3.176,1.132,3.612,0.4
		c0.909,2.203,3.559,3.525,5.777,3.851c2.73,0.402,4.946-0.771,7.303-1.843c0.098,0.341,0.462,1.35,1.556,1.195
		c1.093-0.154,1.504-0.584,1.919-1.309c1.377-0.061,2.244-0.636,2.583-1.42c0.466,1.993,3.568,2.004,4.229-1.09
		c0.81-0.557,1.548-1.352,1.989-2.1c0.137,0.247,1.367,0.848,2.48,0.161c1.583-0.974,1.22-5.132,0.763-6.314
		c1.109-3.026-0.545-6.526-2.199-9.41c-3.498-6.103-8.241-10.768-10.744-17.501c-3.055-8.223-3.454-17.216-5.485-25.705
		c-2.331-9.737-2.96-23.918-2.735-28.422c0.223-4.501,3.597-21.109,3.27-32.431c-0.208-7.174-2.123-13.876-0.654-21.053
		c1.096-5.377,3.34-9.642,4.838-14.907c3.497-12.283,5.754-33.741-4.577-48.387c2.3,0.285,5.256,1.008,6.408,1.046
		c3.245,0.106,6.488-0.898,10.2-1.961c2.791-0.796,6.572-2.533,7.743-5.618c1.388-3.658-1.111-5.957-3.732-8.171
		c-4.281-3.616-8.385-8.247-10.289-13.802c4.701,0.273,9.032-0.078,13.339-1.701c5.458-2.055,9.472-7.643,10.854-13.207
		c1.995-8.042-0.8-13.984-4.315-21.055c-1.633-3.285-2.717-6.925-4.054-10.329c-1.334-6.598,1.183-12.076,1.7-18.7
		c0.202-2.551-0.275-5.102-1.176-7.454c-2.344-6.111-0.268-10.022-0.654-15.823c-0.255-3.802-2.6-6.032-5.084-8.042
		c0.729-1.213,1.471-2.603,2.6-3.465c2.223-1.7,6.266-0.889,9.023-0.393c3.036,0.545,6.105-1.144,8.108-3.269
		C574.467,134.671,573.694,128.261,568.688,127.754z"/>
	<path fill="#FFFFFF" d="M273.392,411.15c-7.628-6.084-15.82-14.653-15.614-25.579c2.576,3.603,5.885,7.67,11.008,12.731
		c5.534,5.468,10.91,10.898,17.344,15.325c4.365,3.001,9.686,6.52,14.628,8.429c3.433,1.323,7.572,2.393,11.061,0.845
		c0.08,2.562,0.285,5.114,0.63,7.639C300.602,431.715,283.433,419.168,273.392,411.15z"/>
	<path fill="#978B77" d="M369.26,466.196c-0.485,0.484-1.196,0.645-1.552-0.293c-0.355-0.937-0.193-4.302,0.096-5.079
		c0.293-0.775,1.598,0.578,1.852,2.019C369.907,464.287,369.744,465.709,369.26,466.196z"/>
	<path fill="#978B77" d="M378.093,464.568c-1.235,0.012-2.076-3.317-2.205-4.32c0.071-0.775-0.017-1.791,0.913-2.417
		c0.929-0.623,1.872,2.173,2.194,3.622C379.316,462.899,379.621,464.551,378.093,464.568z"/>
	<path fill="#978B77" d="M386.139,464.031c-0.229,0.807-1.715,0.774-1.715,0.194c0-0.584,0.204-5.135,0.328-5.062
		c0.124,0.079,1.06,0.249,1.288,0.725C386.784,461.444,386.365,463.222,386.139,464.031z"/>
	<path fill="#978B77" d="M414.92,475.343c-0.742-1.04-1.087-3.413-0.906-4.681c0.181-1.268,1.721-0.998,2.04-0.136
		c0.316,0.86,0.567,2.315,0.539,3.071C416.507,475.921,415.237,475.782,414.92,475.343z"/>
	<path fill="#978B77" d="M429.65,476.51c-1.087,0.317-1.858-2.72-1.948-4.442c-0.09-1.725,0.362-2.581,1.404-2.403
		c0.943,0.166,1.178,1.181,1.405,3.081C430.738,474.649,430.292,476.32,429.65,476.51z"/>
	<path fill="#978B77" d="M435.994,469.394c0.318,1.087,0.312,4.571-0.498,4.754c-1.359,0.32-1.775-3.831-1.103-4.929
		C434.829,468.509,435.677,468.306,435.994,469.394z"/>
	<path fill="#978B77" d="M476.491,455.985c-0.204-1.219,1.195-1.38,1.599-1.222c1.004,0.4,2.5,3.527,2.227,5.113
		C480.045,461.462,476.828,458.018,476.491,455.985z"/>
	<path fill="#978B77" d="M488.756,461.335c-1.043-1.001-1.459-2.956-0.733-3.633c0.724-0.681,2.221,1.356,2.179,3.686
		C490.181,462.579,489.24,461.801,488.756,461.335z"/>
	<path fill="#978B77" d="M493.232,453.623c0.545,0.448,1.588,3.032,1.453,3.624c-0.137,0.587-0.817,0.587-1.224-0.136
		c-0.408-0.724-1.052-2.584-1.087-3.08C492.336,453.531,492.827,453.256,493.232,453.623z"/>
	<path fill="#FFFFFF" d="M488.035,390.666c2.084,3.568,0.092,7.24-2.031,10.172c-3.671,5.068-8.637,9.585-13.007,14.057
		c-4.993,5.107-10.392,9.831-16.478,13.601c-2.696,1.67-7.589,5.135-13.469,6.648c-11.784,0.187-12.879,5.817-12.159,5.258
		c3.248-2.517,6.015-3.368,9.952-3.583c4.318-0.233,8.331,2.348,12.219,3.778c4.905,1.8,10.059,3.755,15.325,4.025
		c7.169,0.375,22.948-2.157,23.586,8.272c-1.141,0.82,0.208,3.656,0.662,4.695c-0.082,1.47-0.896,1.815-1.368,2.067
		c-0.39-1.683-1.074-2.662-1.837-3.413c0.385-1.631-0.859-3.545-2.007-4.59c-4.522-4.103-8.79-3.637-6.837-2.875
		c1.953,0.765,6.802,4.209,6.763,8.053c-1.48,1.181-0.88,3.491,0.304,5.031c-2.623,2.182-9.735,0.796-11.214-1.249
		c0.183-0.336,0.35-0.701,0.489-1.123c0.58,1.029,1.283,1.742,2.256,2.151c2.04,0.866,2.422-1.603,2.211-3.043
		c-0.173-1.169-0.68-2.596-1.521-3.589c1.303-1.613-1.801-3.73-3.221-4.367c-1.777-0.795-3.719-1.098-5.609-1.485
		c-0.374-0.078-0.675,0.562-0.266,0.653c3.013,0.641,7.589,2.726,6.814,4.012c-1.24,0.03-2.401,0.956-2.226,2.309
		c-0.942,6.781-6.252,3.424-9.579,1.477c-3.418-1.996-6.552-3.951-10.291-5.288c-6.817-2.438-14.169-2.535-21.293-3.105
		c-3.636-0.294-13.63,1.516-15.206-2.653c-0.406-2.996-0.227-6.259,0.013-9.41c9.922-5.332,19.517-11.049,27.039-19.615
		c9.77-11.116,22.244-25.512,31.735-31.683C482.767,385.536,486.016,387.206,488.035,390.666z"/>
	<path fill="#978B77" d="M520.091,473.846c-0.609,2.069-1.905,1.08-2.06-0.311c-0.155-1.391-0.654-5.674,0.111-6.441
		c0.766-0.763,1.434-0.196,1.795,0.883C520.295,469.058,520.352,472.961,520.091,473.846z"/>
	<path fill="#978B77" d="M535.504,477.714c-1.157,0.045-1.494-5.259-1.568-6.387c-0.075-1.137,1.11-2.133,1.853-0.826
		C536.77,472.226,536.661,477.667,535.504,477.714z"/>
	<path fill="#978B77" d="M542.419,476.111c-1.164,2.009-2.255-4.636-1.638-5.559c0.921-1.382,1.83,0.948,1.972,1.435
		C543.134,473.277,543.105,474.926,542.419,476.111z"/>
	<path fill="#978B77" d="M547.774,472.683c-0.717,0.066-1.19-0.563-1.299-0.632c0.122-0.478,0.464-1.556,0.493-2.064
		c0.211,0.058,1.279-1.199,1.571-1.658C548.881,470.381,548.491,472.616,547.774,472.683z"/>
	<path fill="#DE7E86" d="M552.396,258.795c4.007,5.123-10.759,8.896-14.975,8.658c-4.218-0.243-7.091-0.986-10.796-1.615
		c-3.63-0.621-7.365-0.311-11.015-0.781c-6.527-0.837-7.386-6.747-7.345-12.342c0.033-5.126,0.567-9.755-0.535-14.814
		c-0.935-4.305-2.298-8.451-3.13-12.749c0.302,0.261,0.602,0.524,0.904,0.775c5.582,4.644,12.842,8.964,20.593,11.74
		c-0.17,5.966,2.211,20.286,9.02,20.819c0.687,0.054,1.971-0.518,1.232-0.645c-6.636-1.146-8.731-13.597-8.83-19.673
		c3.672,1.214,7.439,2.072,11.174,2.438C540.927,247.876,547.861,253.003,552.396,258.795z"/>
	<path fill="#CA656A" d="M533.679,243.872c2.281,0.348,4.586,0.638,6.896,0.905c-0.78-1.32-1.43-2.701-1.882-4.172
		c-3.736-0.366-7.503-1.223-11.174-2.438c0.023,1.286,0.133,2.863,0.359,4.557C529.791,243.189,531.728,243.573,533.679,243.872z"/>
	<path fill="#CA656A" d="M509.012,233.78c2.463,1.645,4.938,3.364,7.556,4.753c3.114,1.655,6.401,2.878,9.779,3.797
		c-0.207-1.783-0.286-3.41-0.249-4.663c-7.751-2.777-15.011-7.096-20.593-11.74c-0.303-0.251-0.603-0.514-0.904-0.775
		c0.44,2.267,1.025,4.491,1.619,6.722C507.131,232.538,508.083,233.159,509.012,233.78z"/>
	<path fill="#FFFFFF" d="M499.75,230.319c-1.937-2.246-3.384-4.902-4.623-7.709c0.447-1.356,1.263-2.934,2.921-3.679
		c1.55,1.53,3.48,3.812,5.04,5.262C501.083,226.306,500.148,228.171,499.75,230.319z"/>
	<path fill="#FFFFFF" d="M503.143,225.829c0.552,2.774,1.345,6.106,2.043,8.853c-1.888-0.989-3.46-2.247-4.82-3.686
		C500.966,228.661,502.053,227.083,503.143,225.829z"/>
	<path fill="#FFFFFF" d="M496.531,218.793c-0.825,0.833-1.355,1.896-1.769,2.995c-1.264-2.998-2.317-6.139-3.455-9.146
		c2.056,1.722,4.016,3.606,5.952,5.51C496.985,218.362,496.735,218.584,496.531,218.793z"/>
	<path fill="#53262D" d="M482.816,212.219c1.595,1.093,3.375,2.154,4.698,3.583c1.836,1.984,3.248,4.254,4.441,6.674
		c2.827,5.733,7.455,14.186,14.088,15.755c-0.105-0.445-0.211-0.889-0.318-1.332c-0.161,0.01-0.329-0.003-0.505-0.088
		c-9.007-4.536-13.775-16.235-15.979-25.807c-2.573-1.93-5.312-3.552-8.341-4.586c-1.867-0.636-4.019-1.27-5.806-2.354
		C476.161,207.678,479.765,210.132,482.816,212.219z"/>
	<path fill="#622D32" d="M491.863,223.693c-1.375-2.838-2.94-5.969-5.394-8.042c-1.839-1.555-3.911-2.801-5.855-4.218
		c-2.795-2.036-5.583-4.496-6.282-7.881c-0.716-0.527-1.35-1.15-1.846-1.907c-1.459-2.242-1.95-5.005-3.251-7.291
		c-0.362,3.897,1.113,9.483,3.795,12.817c2.627,3.264,11.118,11.766,16.652,17.266c5.181,5.147,8.737,14.471,16.687,15.591
		c0.029,0.003,0.048,0.018,0.075,0.024c-0.079-0.394-0.168-0.786-0.257-1.175C499.546,237.455,494.675,229.487,491.863,223.693z"/>
	<path fill="#5D5D5D" d="M509.393,225.929c4.207,3.119,8.274,5.628,13.519,7.619c-0.7-0.804-1.937-3.343-2.256-5.37
		c-0.602-3.809-0.466-7.8,0.644-11.494c1.29-4.299,3.167-7.897,6.284-9.776c3.922-2.363,9.56-1.879,12.247,0.644
		c2.406,0.557,5.943,1.785,8.877,3.175c2.453,1.162,3.94,0.926,6.639,0.926c2.009,0,4.324,0.774,6.77,2.32
		c-0.643-1.898-1.406-3.776-2.216-5.637c-2.003-0.193-3.988-0.081-5.997,0.084c-1.504,0.127-2.912,0.185-4.32-0.452
		c-3.064-1.392-5.48-3.913-8.527-5.403c-3.618-1.768-7.607-3.011-11.646-3.238c-3.532-0.197-6.713,0.22-9.181,2.974
		c-1.233,1.377-2.56,2.913-3.048,4.738c-0.478,1.788-0.475,3.622-0.234,5.446c0.403,3.047,1.726,6.56,1.226,9.651
		C517.478,226.44,512.319,224.513,509.393,225.929z"/>
	<path fill="#53443D" d="M552.288,226.388c1.769-1.186,3.296,5.103,6.89,5.176c2.763-3.534,4.459-8.828,3.593-12.596
		c-0.865-3.772-4.335-4.533-8.969-4.995c-2.362-0.237-5.683-1.426-8.182-2.783c-2.857-1.547-6.146-2.671-9.471-2.399
		c-0.807,0.064-0.661-0.893,0.668-1.331c-15.064-4.518-17.238,25.414-9.882,27.509c-1.986-3.199-0.977-7.651,2.677-9.029
		c0.432-0.161,0.772,0.426,0.465,0.741c-1.751,1.798-2.404,3.516-1.802,6.185c0.733,3.256,7.105,5.105,10.489,4.958
		c3.382-0.148,9.389-4.967,9.64-9.875c0.017-0.369,0.594-0.393,0.644-0.027c0.492,3.555-1.831,7.813-5.123,10.266
		c4.283,0.007,8.422-0.814,11.705-3.182c0.834-0.602,1.6-1.273,2.307-2.006c-2.135-0.366-3.397-2.402-4.152-3.577
		c-0.98-1.525-1.795,4.847-2.845,3.839C549.892,232.251,550.52,227.571,552.288,226.388z"/>
	<path fill="#FFCFCA" d="M367.103,445.41c2.58-0.433,5.25-0.98,7.879-0.893c2.815,0.087,6.086,0.859,7.734,2.306
		c4.778-0.345,10.832-2.817,10.874-2.823c-0.429-1.948-1.049-3.849-2.017-5.728c-1.394-2.701-2.476-5.537-2.99-8.589
		c-1.242-7.365,2.01-13.794,2.161-21.154c0.028-1.322,0.033-2.662,0.029-4.011c-4.545,3.134-10.048,6.569-15.633,6.269
		c-0.774,3.564-1.863,7.08-3.294,10.562c-1.957,4.759-4.096,9.528-7.687,13.315c-1.606,1.694-3.846,3.544-4.604,5.778
		c-0.6,1.758,0.043,3.185-0.477,4.826C361.752,445.568,364.424,445.855,367.103,445.41z"/>
	<path fill="#FFCFCA" d="M496.315,361.466c-1,0.117-1.994,0.27-2.976,0.494c-1.854,0.421-3.672,0.971-5.474,1.576
		c-3.651,1.226-7.311,2.636-11.142,3.191c-6.923,1.002-13.979,1.398-20.558,3.988c-7.253,2.865-13.035,8.217-19.068,12.995
		c-5.533,4.385-11.24,8.631-17.676,11.582c-0.019,1.174-0.034,2.339-0.045,3.483c-0.118,10.767,0.721,28.468-0.158,35.632
		c5.148-2.738,10.285-5.557,14.97-9.031c5.257-3.904,9.416-8.46,13.577-13.473c8.242-9.924,17.637-20.066,28.287-27.463
		c5.958-4.14,12.321-7.888,16.295-14.174c1.869-2.958,3.49-6.029,5.443-8.881C497.257,361.473,496.522,361.442,496.315,361.466z"/>
	<path fill="#E3C2C0" d="M367.153,443.913c-1.601-3.703-1.601-7.504-1.249-11.33c-0.545,0.72-1.117,1.419-1.743,2.081
		c-1.606,1.694-3.846,3.544-4.604,5.778c-0.6,1.758,0.043,3.185-0.477,4.826c2.673,0.3,5.345,0.587,8.024,0.142
		c0.23-0.042,0.462-0.079,0.692-0.123C367.57,444.836,367.353,444.382,367.153,443.913z"/>
	<path fill="#E3C2C0" d="M390.773,404.518c-1.743,1.201-3.626,2.442-5.6,3.507c0.019,2.451-0.411,4.911-0.788,7.327
		c-0.644,4.142-1.257,8.433-1.348,12.623c-0.091,4.147,0.916,7.766,1.948,11.725c0.574,2.205,1.017,4.466,0.745,6.687
		c3.979-0.814,7.826-2.382,7.859-2.388c-0.429-1.948-1.049-3.849-2.017-5.728c-1.394-2.701-2.476-5.537-2.99-8.589
		c-1.242-7.365,2.01-13.794,2.161-21.154C390.772,407.207,390.777,405.867,390.773,404.518z"/>
	<path fill="#E3C2C0" d="M434.162,425.388c-2.86,0.465-5.832,0.236-7.843-1.922c-1.442-1.55-1.712-4.211-1.816-6.221
		c-0.131-2.47-0.046-4.95-0.088-7.422c-0.101-5.749,0.09-11.496,0.153-17.24c-1.671,0.981-3.38,1.895-5.149,2.71
		c-0.019,1.174-0.034,2.339-0.045,3.483c-0.118,10.767,0.721,28.468-0.158,35.632C424.356,431.675,429.484,428.856,434.162,425.388z
		"/>
	<path fill="#5D5D5D" d="M334.274,385.816c0.845-3.489,0.034-7.158-1.031-10.526c-0.894-2.829-2.04-6.245-4.167-8.498
		c-1.934,3.188-3.79,6.575-5.275,9.982c-3.082,7.077-5.513,14.465-7.076,22.03C324.819,398.491,332.25,394.186,334.274,385.816z"/>
	<path fill="#5D5D5D" d="M333.121,360.492c1.878,0.831,3.027,2.702,4.431,4.248c1.084,1.191,2.454,2.227,4.166,1.839
		c1.736-0.387,3.583-1.43,4.463-3.035c1.593-2.91,0.501-6.577-1.244-9.167c-0.969-1.441-2.997-3.855-5.019-3.775
		c-0.406,0.599-0.763,1.132-1.056,1.567C337.445,354.281,335.369,357.162,333.121,360.492z"/>
	<path fill="#5D5D5D" d="M532.946,436.013c-1.155-4.853-2.106-9.778-3.033-14.705c-3.601,1.875-3.318,7.227-6.289,9.76
		c-1.536,1.313-3.527,1.358-5.369,0.674c-1.416-0.529-2.461-1.777-3.671-2.626c-1.438-1.007-3.005-1.19-4.653-1.391
		c-0.212,3.122-0.347,6.256-0.056,9.349c0.468,4.987,0.483,10.392,1.666,15.243c0.985,4.06,0.016,7.486-0.614,11.501
		c-0.705,4.503-0.466,11.195,5.56,9.718c-0.04-0.309-0.249-1.861-0.104-4.837c0.039-0.754,0.156-2.315,1.338-2.884
		c0.98-0.466,2.307-0.418,2.831,0.258c1.597,2.058,1.338,6.898,1.287,8.081c1.39,2.263,3.951,4.556,7.19,3.476
		c1.643-0.548,2.755-1.352,4.441-1.468c-0.263-1.382-0.668-3.758-0.715-5.326c-0.047-1.564,0.721-2.232,1.898-2.206
		c1.229,0.022,2.114,1.213,2.576,2.284c0.645,1.494,0.515,3.346,0.482,5.271c3.46-0.629,0.27-8.2-0.534-9.491
		c-1.532-2.468-3.845-4.551-5.894-6.584c-0.237-0.236,0.01-0.671,0.337-0.572c3.466,1.098,7.725,5.958,8.766,9.876
		c1.129-0.681,2.666-0.003,3.259,1.382c0.353,0.828,0.576,1.882,0.582,2.928c3.695-3.725-0.265-10.628-3.461-13.602
		c-0.606-0.568,1.12-0.173,1.763,0.342c2.539,2.043,4.001,4.539,4.306,8.188c4.451-4.865-2.682-12.698-5.805-16.425
		C537.005,447.417,534.411,442.161,532.946,436.013z"/>
	<path fill="#FFFFFF" d="M553.631,194.057c-3.421-9.286-7.952-18.28-10.874-27.73c-1.568-5.061-6.374-10.175-4.252-15.669
		c0.189-0.487,0.954-1.147,0.788-0.65c-1.532,4.574,2.167,9.43,3.759,13.499c2.124,5.421,3.627,11.186,6.521,16.292
		c1.968,3.474,3.527,7.12,5,10.805c0.138-5.412,1.973-10.713,1.735-16.272c-0.128-2.955-1.586-5.46-1.778-8.308
		c-0.202-2.987,0.316-5.887,0.452-8.86c0.155-3.421-0.091-6.338-2.766-8.844c-2.073-1.945-4.55-3.379-6.641-5.291
		c-4.305-3.943-9.251-9.566-13.453-12.411c-6.884-4.662-9.561-1.896-15.839-2.808c-6.988-1.013-16.888-2.062-23.933-1.4
		c-3.806,0.359-7.447,1.082-10.894,2.821c-1.914,0.969-3.89,2.207-5.991,2.726c-0.872,0.219-1.688,0.37-2.47,0.389
		c3.56,2.51,6.289,6.984,5.391,6.329c-6.739-4.919-20.971-15.056-29.822-14.235c-9.091,0.845-14.944,9.117-21.514,14.495
		c-2.527,2.069-5.195,4.118-8.265,5.325c-1.237,0.484-2.77,0.854-3.698,1.641c-0.925,0.791,0.038,1.88,2.31,1.965
		c2.271,0.087,5.121-0.743,7.86-1.69c3.952-1.365,6.804-0.907,10.741,0.138c4.371,1.158,8.738-0.257,12.596,2.548
		c0.005,0,0.006,0.003,0.006,0.006c0.275-0.32,1.216-1.192,1.738-2.238c0.525-1.046-5.411-4.536-6.979-5.324
		c-3.175-1.595-6.31-2.067-9.833-2.113c-0.306-0.004-0.35-0.431-0.039-0.479c2.701-0.413,5.454-0.727,8.1,0.166
		c2.491,0.84,4.934,1.996,7.06,3.335c2.128,1.342,6.141,2.895,4.047,4.988c-2.093,2.095-7.733,9.444-5.19,12.389
		c2.049,2.374,4.786,2.641,7.027,4.573c2.67,2.308,2.373,4.228,0.418,5.899c-1.955,1.671-6.317,8.332-7.769,13.408
		c-1.452,5.073,1.147,16.528,5.7,26.128c4.586,9.669,11.439,18.876,17.154,26.41c0.358,0.475-1.018,0.126-2.614-1.851
		c-6.158-7.612-12.249-15.173-16.39-24.072c-3.282-7.047-6.765-16.086-5.155-24.107c-0.613,1.207-1.219,2.418-1.761,3.661
		c-3.416,8.055-5.381,16.786-8.121,25.095c-1.487,4.511-2.907,8.519-7.557,12.233c5.308,4.532,4.7,11.843,4.167,18.204
		c-0.34,4.07-0.251,8.065,0.05,12.141c0.177,2.402,0.491,4.838,0.254,7.245c-0.188,1.918-0.546,3.806-0.829,5.71
		c-0.335,2.251-0.746,4.901,0.013,7.116c0.408,1.196,1.532,2.342,1.58,3.643c0.117,3.104-2.715,5.147-5.213,6.378
		c-3.626,1.792-7.59,2.56-11.536,3.331c-4.571,0.892-9.114,1.727-13.642,2.811c-1.745,0.415-3.636,0.842-5.439,0.569
		c-1.707-0.257-3.304-1.034-4.754-1.949c-3.073-1.934-5.716-4.423-8.591-6.619c-3.305,4.699-6.866,9.664-9.973,14.74
		c-4.517,7.373-9.196,14.596-14.468,21.461c-5.22,6.795-15.169,21.47-19.743,28.262c1.768,0.2,3.486,1.819,4.484,3.116
		c1.975,2.554,3.618,6.415,2.406,9.657c-1.042,2.783-4.84,5.557-7.875,4.139c-2.704-1.265-3.803-4.847-6.545-5.924
		c-1.108,1.655-2.251,3.41-3.374,5.243c2.36,2.393,3.643,6.178,4.551,9.268c1.083,3.688,1.852,7.536,0.686,11.292
		c-2.549,8.2-9.858,12.366-18.047,12.616c-0.555,2.78-0.996,5.576-1.305,8.399c-1,9.134-1.279,18.909,0.895,27.922
		c1.049,4.339,2.803,9.159,6.514,11.956c2.471,1.863,7.128,2.447,9.984,2.524c-2.656-6.057,4.214-8.947,6.795-9.731
		c2.547-0.766,5.4-0.657,4.246-0.229c-4.168,1.543-11.704,5.569-7.923,10.614c2.981,3.975,8.009,6.448,12.655,7.911
		c2.138,0.672,4.486,1.361,6.341,2.668c3.823,2.684,6.668,7.103,11.784,4.481c-0.151-0.493-0.492-4.426,0.64-5.724
		c1.096-1.247,3.072,0.686,3.362,2.914c0.616-3.171-0.899-6.533-2.419-8.417c-0.341-0.426,0.901-0.281,1.742,0.69
		c2.26,2.605,3.422,5.863,1.778,9.343c0.644,0.175,3.395,0.84,4.498-0.735c-0.18-0.42-0.496-1.715-0.618-2.175
		c-0.226,0.71-0.585,0.99-0.669,0.618c-0.271-1.177-0.329-6.638,2.205-5.958c1.644,0.439,2.541,2.508,3.016,4.102
		c0.816-3.213,0.196-6.623-1.639-9.437c-0.403-0.617,0.946-0.332,1.452,0.264c2.166,2.553,2.215,6.539,0.739,10.138
		c0.003,0.003,0.005,0.003,0.007,0.006c0.519,0.777,1.518,1.299,2.718,0.893c0.156-1.143,0.255-2.535,0.384-3.424
		c0-0.003-0.887,0.097-0.776-0.342c0.323-1.289,3.622-0.335,4.208,1.182c1.217-0.697,0.136-3.71-1.021-5.716
		c-1.159-2.008-2.702-4.164-5.791-6.253c-3.088-2.084-8.436-0.796-10.321-0.553c-5.893,0.772-9.55,0.037-15.311-1.609
		c-1.083-0.311-1.258-0.884-1.041-0.884c1.269,0.003,2.478,0.291,3.743,0.423c0-1.7,0.317-4.571,0.694-5.252
		c-1.922,0.977-5.055,0.801-6.955,0.406c-0.191-0.039-0.112-0.308,0.07-0.285c2.863,0.32,7.735-1.28,8.106-2.435
		c-4.215,1.119-9.123,0.063-12.369-2.729c-0.201-0.175,0.053-0.469,0.262-0.314c4.054,3.034,9.454,2.689,13.918,0.884
		c0.059-0.067,0.113-0.139,0.171-0.203c-3.648,0.648-8.098-1.304-11.109-2.648c-0.173-0.082-0.069-0.373,0.113-0.317
		c4.146,1.319,8.734,2.478,12.813,0.703c0.37-0.494,0.743-0.987,1.064-1.519c0.742-1.24,1.455-2.536,2.132-3.872
		c-5.398-2.807-11.55-4.351-14.737-10.04c-1.611-2.874-2.613-6.075-3.233-9.304c-0.573-2.987-1.04-6.1-0.614-9.138
		c0.491-3.498,1.867-6.695,3.297-9.896c1.414-3.167,2.351-6.474,3.688-9.655c1.933-4.608,5.226-9.513,9.835-11.846
		c-3.137,0.23-6.844,1.843-9.384,2.877c-0.523,0.21,0.771-1.391,2.911-2.293c5.42-2.294,10.553-4.569,14.117,1.681
		c3.701,6.492,3.854,15.876,4.234,23.142c0.305,5.8-0.084,11.436-1.226,16.959c5.527,0.281,11.04-3.313,15.502-6.411
		c-0.047-7.552-0.442-15.379-0.067-22.78c0.432-8.596,1.164-17.185,1.4-25.792c0.234-8.514-0.262-16.804-1.264-25.254
		c-0.269-2.276-0.565-4.684-0.111-6.962c0.29-1.459,0.881-3.119,0.811-4.619c-0.175-3.722-3.581-6.973-4.806-8.507
		c-0.801-1.008,0.452-1.813,2.934,1.077c2.973,3.465,4.919,5.521,4.005,10.145c-1.608,8.124,0.889,16.785,0.983,25.034
		c0.19,16.682-2.046,33.271-1.837,49.952c0.099,7.929,1.106,14.774-0.835,22.498c-1.08,4.297-1.865,9.232,0,13.434
		c1.223,2.748,1.976,5.492,3.117,8.28c2.848,6.961,1.66,15.77,1.842,23.128c0.113,4.589,1.26,8.56,6.432,9.628
		c3.278,0.671,6.61,0.638,9.917,1.022c-0.436-1.483-0.81-3.08-0.217-4.417c0.303-0.674,1.012-1.165,2.03-1.067
		c0.145-1.29-0.878-2.463-1.451-3.725c-0.542-1.189-1.128-2.553-1.159-3.909c-0.018-0.842,0.322-1.525,0.435-1.158
		c0.634,2.084,4.261,6.66,4.034,9.516c0.771,0.862,1.455,3.846,1.134,5.256c2.755,1.586,7.069,1.374,8.927,0.229
		c-0.864-1.545-1.36-6.889,2.032-6.159c-0.272-0.49-0.567-0.978-0.921-1.458c-1.219-1.658-2.683-3.419-4.197-4.814
		c-0.242-0.223,0.039-0.632,0.308-0.423c1.074,0.845,3.312,2.345,4.454,3.746c1.995,2.445,3.49,4.846,2.945,9.83
		c0.861,0.048,1.806-0.475,2.155-0.823c-0.477-0.856-0.992-3.567-0.748-5.068c0.243-1.5,1.67-2.1,2.145-2.12
		c-2.589-5.32-9.218-6.366-12.885-10.66c-4.139-4.841-5.512-7.144-5.62-12.356c-0.106-5.216,0.535-9.675,0.622-13.349
		c0.229-9.846,0.086-22.455-0.11-33.726c-0.161-9.388,0.256-20.995,1.407-29.372c0.738-5.37,2.653-11.18,6.107-15.403
		c2.768-3.389,5.095-3.704,8.631-9.282c2.107-3.32,5.591-9.105,7.581-12.49c0.295-0.499,0.464,0.772-0.646,2.838
		c-3.664,6.834-6.259,13.164-11.655,18.685c-1.75,1.794-3.449,3.646-3.746,5.446c6.321-6.278,13.885-10.755,11.671-8.608
		c-6.229,6.051-12.918,11.133-14.924,19.781c-1.636,7.035-2.047,16.668-2.199,25.602c6.897-3.216,12.961-7.908,18.882-12.65
		c5.664-4.535,11.208-9.459,18.118-11.996c3.315-1.214,6.754-1.999,10.237-2.544c3.798-0.59,7.713-0.762,11.469-1.571
		c3.951-0.856,7.688-2.367,11.546-3.539c1.81-0.553,3.647-1.06,5.526-1.314c0.967-0.132,2.078-0.368,3.09-0.332
		c0.892-1.244,1.858-2.445,2.953-3.567c3.507-3.58,8.105-6.786,9.876-11.687c1.818-5.026,2.213-10.559,3.303-15.77
		c0.068-0.324,0.559-0.287,0.52,0.054c-0.672,5.731,0.556,12.184-2.097,17.57c-2.341,4.752-6.336,7.746-10.016,11.401
		c-0.734,0.733-1.391,1.513-2.019,2.318c1.338,10.075,2.046,20.216,4.404,30.132c2.312,9.716,5.64,19.451,5.183,29.556
		c-0.098,2.129-0.276,4.276-0.43,6.432c1.431,0.139,2.956,0.219,4.173,0.984c1.376,0.866,2.503,2.209,3.968,2.913
		c2.445,1.173,4.891,0.493,6.235-1.836c1.636-2.842,2.304-6.913,5.448-8.471c-0.276-1.468-0.548-2.933-0.827-4.399
		c-2.05,0.865-3.616,3.089-5.846,3.415c-1.974,0.297-3.241-1.518-3.468-3.329c-0.565-4.508,3.233-9.634,7.164-11.74
		c-1.116-7.126-1.822-14.791-1.427-20.347c0.517-7.279,5.048-24.474,2.551-36.899c-1.26-6.266-1.43-12.072,0.149-18.308
		c1.487-5.86,3.819-11.488,5.212-17.369c2.911-12.316,1.069-27.902-1.059-33.329c-2.127-5.428-3.511-7.873-5.426-10.002
		c-3.659-0.657-7.768-0.426-12.512-1.453c-3.256-0.705-6.188-2.708-7.085-6.154c-1.098-4.182-0.504-8.377-0.268-12.56
		c-9.088,0.859-18.37-9.139-24.499-16.383c-3.562-4.212-8.046-8.49-11.387-12.864c-3.395-4.442-5.61-10.62-6.045-12.144
		c-0.435-1.526-0.152-2.129-0.103-1.966c0.865,2.837,1.898,5.186,3.041,7.736c1.131,2.52,4.144,6.33,6.048,8.333
		c3.146,3.309,5.508,4.704,8.596,8.081c6.395,6.995,14.82,17.896,24.426,17.057c0.018-1.385-0.039-2.768-0.251-4.148
		c-0.188,0.137-0.418,0.224-0.704,0.209c-7.241-0.436-10.976-7.3-14.786-12.59c-5.801-8.061-17.346-17.476-20.249-22.05
		c-2.905-4.574-4.378-10.771-2.834-15.948c0.246-0.825,0.804-0.981,1.431-0.362c2.186,2.166,2.463,4.867,3.801,7.498
		c2.292,4.514,7.57,5.143,11.873,6.877c7.182,2.896,12.604,10.094,18.393,15.612c1.544,1.47,3.272,2.944,5.145,4.359
		c1.436-0.827,3.197-0.781,4.83-0.911c1.066-0.085,2.528-0.173,3.269-1.077c1.037-1.265,0.662-3.288,0.438-4.765
		c-0.525-3.468-1.536-6.944-1.099-10.478c0.355-2.874,2.395-5.689,4.606-7.494c2.324-1.897,5.084-2.281,8.017-2.114
		c3.642,0.203,7.244,1.046,10.594,2.491c1.838,0.793,3.639,1.709,5.289,2.846c1.33,0.914,2.55,2.027,3.954,2.826
		c1.909,1.087,3.583,1.08,5.709,0.914c1.733-0.137,3.444-0.197,5.164-0.058C557.615,203.164,555.332,198.676,553.631,194.057z"/>
	<path fill="#E8E6E1" d="M305.852,429.999c2.315,0.529,4.539,0.745,6.598,0.541c-0.345-2.524-0.55-5.077-0.63-7.639
		c-1.898,0.846-3.99,0.907-6.053,0.58C305.687,425.66,305.685,427.838,305.852,429.999z"/>
	<path fill="#E8E6E1" d="M434.105,441.22c0.199-1.065,0.444-2.13,0.739-3.179c-1.313,0.547-2.591,1.307-3.953,2.361
		c-0.515,0.4-0.1-2.365,4.485-4.039c0.718-2.055,1.676-4.019,2.999-5.778c2.208-2.943,5.232-4.914,8.457-6.575
		c2.115-1.09,4.375-2.114,6.279-3.556c1.805-1.364,3.503-2.856,5.28-4.257c3.317-2.615,7.047-4.911,10.673-7.074
		c3.642-2.169,7.548-4.26,11.734-5.146c0.987-0.211,1.966-0.285,2.939-0.269c0.792-0.94,1.559-1.894,2.268-2.871
		c2.123-2.932,4.114-6.604,2.031-10.172c-2.019-3.459-5.268-5.129-10.249-4.813c-9.491,6.17-21.965,20.566-31.735,31.683
		c-7.522,8.566-17.117,14.283-27.039,19.615c-0.24,3.152-0.42,6.414-0.013,9.41c1.561,4.13,11.372,2.397,15.095,2.647
		C433.616,446.649,433.594,443.977,434.105,441.22z"/>
	<path fill="#E8E6E1" d="M459.004,449.765c-3.765-2.045-7.662-2.603-11.902-2.612c-3.838-0.01-8,0.242-11.396,2.172
		c6.651,0.487,13.451,0.727,19.791,2.995c3.739,1.337,6.873,3.292,10.291,5.288c1.991,1.167,4.692,2.833,6.743,2.533
		C467.937,456.797,464.037,452.503,459.004,449.765z"/>
	<path fill="#E8E6E1" d="M337.404,441.279c-1.859-0.067-3.707-0.063-5.53,0.505c-3.027,0.944-5.849,2.702-8.171,4.852
		c-0.353,0.333-0.702,0.678-1.037,1.029c0.011,0.009,0.022,0.019,0.035,0.031c2.471,1.863,7.128,2.447,9.984,2.524
		C330.589,445.442,334.425,442.636,337.404,441.279z"/>
	<path fill="#E8E6E1" d="M360.661,461.55c-2.237-2.536-4.521-5.065-7.842-6.169c-5.34-1.772-11.402-0.148-16.189-3.51
		c3.028,3.395,7.586,5.576,11.827,6.914c2.138,0.672,4.486,1.361,6.341,2.668c3.823,2.684,6.668,7.103,11.784,4.481
		c-0.043-0.139-0.099-0.554-0.134-1.104C364.151,464.612,362.219,463.316,360.661,461.55z"/>
	<path fill="#E8E6E1" d="M390.767,403.776c-0.047-7.552-0.442-15.379-0.067-22.78c0.432-8.596,1.164-17.185,1.4-25.792
		c0.234-8.514-0.262-16.804-1.264-25.254c-0.269-2.276-0.565-4.684-0.111-6.962c0.29-1.459,0.881-3.119,0.811-4.619
		c-0.092-1.951-1.071-3.767-2.158-5.282c0.132,1.409,0.317,2.848,0.108,4.245c-0.29,1.955-1.069,3.803-1.768,5.637
		c-1.512,3.981-2.096,8.058-2.034,12.313c0.063,4.143,0.549,8.26,0.944,12.383c0.403,4.2,0.542,8.39,0.541,12.61
		c-0.008,15.721-1.418,31.397-2.06,47.099C387.114,406.273,389.021,404.99,390.767,403.776z"/>
	<path fill="#E8E6E1" d="M514.111,362.72c2.317-5.267,3.42-10.623,2.984-16.383c-0.349-4.641-1.322-9.177-2.351-13.702
		c-0.163,4.926,0.313,10.144-1.894,14.623c-2.341,4.752-6.336,7.746-10.016,11.401c-0.734,0.733-1.391,1.513-2.019,2.318
		c0.819,6.175,1.405,12.372,2.276,18.531c1.217-1.845,2.347-3.751,3.533-5.622C508.996,370.151,512.319,366.789,514.111,362.72z"/>
	<path fill="#E8E6E1" d="M507.03,246.064c0.018-1.385-0.039-2.768-0.251-4.148c-0.188,0.137-0.418,0.224-0.704,0.209
		c-0.675-0.04-1.319-0.139-1.935-0.284c-0.058,1.362-0.14,2.725-0.227,4.087C504.936,246.099,505.976,246.157,507.03,246.064z"/>
	<path fill="#E8E6E1" d="M506.342,268.794c2.093,2.719,5.164,4.275,8.488,4.958c2.802,0.574,5.594,0.84,8.324,1.763
		c2.468,0.832,4.863,1.908,7.085,3.276c0.941,0.578,1.843,1.205,2.723,1.858c-0.231-0.872-0.471-1.64-0.717-2.264
		c-2.127-5.428-3.511-7.873-5.426-10.002c-3.659-0.657-7.768-0.426-12.512-1.453c-3.256-0.705-6.188-2.708-7.085-6.154
		c-1.098-4.182-0.504-8.377-0.268-12.56c-1.059,0.1-2.122,0.048-3.181-0.127c-0.258,4.043-0.469,8.087-0.125,12.12
		C503.908,263.248,504.431,266.308,506.342,268.794z"/>
	<path fill="#E8E6E1" d="M472.632,179.52c-3.209-2.258-8.019-3.213-10.318,0.778c-1.553,2.689-1.782,6.044-1.452,9.082
		c0.139,1.285,0.358,2.385,0.954,3.537c0.362,0.699,1.255,2.297,1.753,1.904c0.002-2.061,0.021-4.14,0.353-6.178
		c0.28-1.728,0.771-4.109,2.424-5.09c1.632-0.967,3.843-0.295,5.252,0.814c0.998,0.787,1.853,1.753,2.77,2.63
		c0.66,0.635,2.545,2.606,2.536,0.36C476.895,184.453,474.967,181.161,472.632,179.52z"/>
	<path fill="#E8E6E1" d="M431.502,144.302c-0.133,0.353-0.243,0.711-0.343,1.073c1.526,0.122,3.072,0.469,4.838,0.937
		c4.371,1.158,8.738-0.257,12.596,2.548c0.005,0,0.006,0.003,0.006,0.006c0.275-0.32,1.216-1.192,1.738-2.238
		c0.525-1.046-5.411-4.536-6.979-5.324c-2.484-1.249-4.947-1.803-7.587-2.011C433.724,140.068,432.24,142.333,431.502,144.302z"/>
	<path fill="#E8E6E1" d="M547.739,161.955c1.978,2.967,3.966-0.898,4.66-2.835c0.76-2.127,1.573-4.845,0.154-6.896
		c-1.565-2.257-3.626,1.992-4.094,3.186c-0.741,1.884-1.559,4.409-0.737,6.389C547.746,161.859,547.747,161.908,547.739,161.955z"/>
	<path fill="#E8E6E1" d="M463.557,210.498c0.082,2.22,0.49,4.423,1.043,6.574c1.156,4.505,2.947,8.898,5.708,12.674
		c3.63,4.962,8.711,8.977,14.03,11.997c5.018,2.85,10.65,5.183,16.471,5.539c-6.973-2.592-13.609-9.84-18.354-15.451
		c-3.562-4.212-8.046-8.49-11.387-12.864c-3.395-4.442-5.61-10.62-6.045-12.144c-0.121-0.426-0.184-0.772-0.214-1.059
		C463.614,206.874,463.501,208.963,463.557,210.498z"/>
	<path fill="#E8E6E1" d="M405.775,332.779c-2.329-0.983-4.141-2.745-5.426-4.908c-2.126-3.577-3.123-7.607-4.001-11.648
		c-0.063,0.09-0.166,0.128-0.274,0.119c0.018,3.376,0.32,6.78,1.114,10.051c0.867,3.577,2.277,7.301,5.473,9.419
		c4.834,3.204,13.788,4.405,15.89-2.48C414.312,332.779,409.863,334.495,405.775,332.779z"/>
	<path fill="#E8E6E1" d="M466.035,332.404c3.959,2.239,8.973,1.879,13.281,1.11c4.14-0.742,8.115-2.051,12.183-3.087
		c2.177-0.556,4.361-0.978,6.603-1.156c1.862-0.146,5.304-0.447,4.241-3.301c-1.574-4.218-3.873-8.155-5.504-12.359
		c-1.079-2.786-1.592-5.763-2.545-8.592c-0.533-1.577-1.123-3.223-2.105-4.587c-1.042-1.453-3.042-3.028-4.949-2.302
		c-1.89,0.718-3.362,2.754-4.762,4.145c-1.48,1.47-2.934,2.971-4.313,4.539c-3.03,3.446-8.096,9.477-10.522,13.376
		C463.289,327.191,462.181,330.228,466.035,332.404z"/>
	<path fill="#E8E6E1" d="M549.319,176.021c-0.939-0.435-1.684-1.088-2.368-1.816c0.763,1.916,1.603,3.798,2.621,5.593
		c1.968,3.474,3.527,7.12,5,10.805c0.124-4.889,1.63-9.691,1.745-14.675c-1.067,0.555-2.232,0.892-3.469,0.868
		C551.639,176.771,550.419,176.533,549.319,176.021z"/>
	<path fill="#E8E6E1" d="M419.428,394.605c1.84-0.857,3.616-1.825,5.347-2.868c-0.37-7.791-0.088-15.684,1.92-23.182
		c1.532-5.724,4.458-11.009,6.814-16.449c-5.232,4.907-10.202,9.649-11.882,16.897C419.992,376.038,419.581,385.671,419.428,394.605
		z"/>
	<path fill="#E8E6E1" d="M436.963,340.1c-2.295,4.405-4.669,8.532-8.336,12.284c-1.75,1.794-3.449,3.646-3.746,5.446
		c3.359-3.334,7.07-6.164,9.477-7.76C435.635,346.863,436.631,343.582,436.963,340.1z"/>
	<path fill="#E8E6E1" d="M359.383,437.716c-1.849,0.493-3.833,0.565-5.75,0.255c-0.407,0.617-0.877,1.392-1.259,2.214
		C355.238,440.094,359.057,438.736,359.383,437.716z"/>
	<path fill="#E8E6E1" d="M361.194,435.557c0.059-0.067,0.113-0.139,0.171-0.203c-1.638,0.29-3.439,0.055-5.196-0.409
		c-0.647,0.623-1.255,1.285-1.796,1.983C356.694,436.945,359.052,436.425,361.194,435.557z"/>
	<path fill="#E8E6E1" d="M364.245,431.573c0.321-0.532,0.632-1.084,0.94-1.639c-2.154-0.136-4.374,1.29-6.015,2.499
		c-0.639,0.472-1.278,0.978-1.898,1.511c2.016,0.161,4.017-0.028,5.91-0.853C363.552,432.598,363.925,432.105,364.245,431.573z"/>
	<path fill="#E8E6E1" d="M353.602,445.432c0.305,0.102,0.612,0.172,0.922,0.227c-0.856-0.32-0.996-0.801-0.798-0.801
		c1.269,0.003,2.478,0.291,3.743,0.423c0-1.7,0.317-4.571,0.694-5.252c-1.62,0.826-4.094,0.826-5.971,0.568
		C351.37,442.564,351.18,444.669,353.602,445.432z"/>
	<path fill="#5D5D5D" d="M395.486,292.762c4.274,1.861,8.699-0.276,12.985-1.077c4.943-0.922,9.92-1.728,14.793-2.986
		c3.111-0.802,7.74-2.37,9.289-5.467c0.606-1.207,0.671-2.388-0.025-3.562c-0.327-0.545-0.686-1.095-0.893-1.703
		c-0.573-1.679-0.641-3.497-0.477-5.256c0.193-2.079,0.602-4.126,0.895-6.196c0.326-2.306,0.323-4.505,0.155-6.823
		c-0.311-4.308-0.684-8.604-0.353-12.919c0.511-6.648,1.768-14.617-3.919-19.415c-1.016,0.768-2.174,1.524-3.512,2.273
		c-5.642,3.15-10.278,9.153-13.603,15.957c-2.084,4.255-3.764,8.695-6.533,12.583c-4.854,6.811-10.796,13.908-15.089,20.5
		c-1.336,2.052-2.82,4.19-4.357,6.381C388.293,287.728,391.457,291.011,395.486,292.762z"/>
	<path fill="#5D5D5D" d="M520.207,415.672c0.07,1.132,0.559,3.107,1.889,3.41c0.991,0.225,1.93-0.311,2.729-0.846
		c1.315-0.878,2.544-1.978,4.029-2.559c-0.294-1.555-0.594-3.11-0.902-4.654c-0.364-1.827-0.711-3.766-1.031-5.743
		C523.491,407.238,519.96,411.736,520.207,415.672z"/>
	<path fill="#5D5D5D" d="M372.738,381.839c-0.426-3.972-0.85-8.872-3.255-12.232c-0.804-1.119-1.993-1.642-3.374-1.777
		c-5.653,2.122-9.631,8.396-11.462,13.884c-0.954,2.857-1.993,5.603-3.219,8.359c-1.378,3.089-2.781,6.303-3.084,9.721
		c-0.277,3.099,0.164,6.254,0.841,9.279c0.668,2.978,1.575,6.029,3.202,8.641c3.292,5.28,9.068,6.74,14.264,9.436
		c2.952-5.973,5.189-12.732,6.239-19.04C374.343,399.383,373.678,390.578,372.738,381.839z"/>
	<path fill="#5D5D5D" d="M570.266,133.809c-0.995,4.76-6.623,4.144-10.613,3.372c-4.939-0.958-7.552,2.054-9.89,5.794
		c-0.515-0.36-1.041-0.721-1.582-1.096c-5.234-3.624-9.99-9.481-14.348-12.51c-0.871-0.665,3.434-3.704,6.232-4.187
		c4.474-0.771,7.845,1.801,10.799,3.923c3.931,2.828,7.216,3.718,11.991,2.442c0.647-0.173,1.351-0.59,1.956-0.866
		c0.635-0.249,1.267-0.5,1.904-0.748C568.778,128.999,571.26,129.047,570.266,133.809z"/>
	<path d="M486.435,147.068c-7.042,5.385-9.685,14.529-4.52,26.796c5.166,12.268,30.131,22.382,34.004,5.917
		c3.875-16.463-2.688-29.807-9.791-34.003C499.026,141.581,491.924,142.873,486.435,147.068z"/>
	<path fill="#5D5D5D" d="M486.943,147.882c-6.736,5.152-9.265,13.898-4.323,25.633c4.941,11.735,28.823,21.413,32.528,5.66
		c3.706-15.75-2.573-28.512-9.367-32.529C498.987,142.631,492.193,143.868,486.943,147.882z"/>
	<path fill="#464646" d="M520.319,224.4c-0.807-0.454-1.586-0.954-2.337-1.497c-1.17,3.298-5.854,1.704-8.589,3.026
		c4.207,3.119,8.274,5.628,13.519,7.619c-0.7-0.804-1.937-3.343-2.256-5.37C520.458,226.933,520.35,225.67,520.319,224.4z"/>
	<path fill="#464646" d="M331.061,386.439c-2.176,2.46-5.042,4.227-8.039,5.521c-1.636,0.704-3.337,1.31-5.081,1.664
		c-0.447,1.718-0.857,3.443-1.217,5.182c8.094-0.314,15.525-4.618,17.549-12.989c0.449-1.851,0.427-3.754,0.152-5.636
		C333.725,382.461,332.682,384.607,331.061,386.439z"/>
	<path fill="#464646" d="M343.713,363.334c-2.163-0.759-3.802-2.329-5.016-4.233c-0.672-1.053-1.391-2.373-2.351-3.289
		c-0.989,1.416-2.084,2.99-3.225,4.68c1.878,0.831,3.027,2.702,4.431,4.248c1.084,1.191,2.454,2.227,4.166,1.839
		c1.702-0.379,3.509-1.395,4.406-2.952C345.322,363.694,344.517,363.615,343.713,363.334z"/>
	<path fill="#464646" d="M516.384,468.699c0.005-0.106,0.013-0.229,0.025-0.359c-2.2-0.025-4.02-0.744-5.735-2.045
		c-0.194,4.094,0.83,8.462,5.814,7.24C516.447,473.227,516.239,471.674,516.384,468.699z"/>
	<path fill="#464646" d="M527.468,470.217c-1.687-0.892-3.442-2.278-5.417-2.318c-0.22-0.006-0.438,0-0.656,0.012
		c0.642,2.299,0.484,5.338,0.444,6.244c1.39,2.263,3.951,4.556,7.19,3.476c1.643-0.548,2.755-1.352,4.441-1.468
		c-0.217-1.138-0.526-2.946-0.656-4.427C530.982,471.719,529.23,471.146,527.468,470.217z"/>
	<path fill="#464646" d="M537.148,470.735c0.028,0.063,0.058,0.119,0.083,0.178c0.645,1.494,0.515,3.346,0.482,5.271
		c2.19-0.396,1.715-3.577,0.867-6.187C538.117,470.273,537.637,470.517,537.148,470.735z"/>
	<path fill="#464646" d="M540.219,468.868c0.06,0.184,0.12,0.365,0.168,0.545c1.129-0.681,2.666-0.003,3.259,1.382
		c0.353,0.828,0.576,1.882,0.582,2.928c2.362-2.381,1.595-6.058-0.099-9.177C543.06,466.178,541.742,467.667,540.219,468.868z"/>
	<path fill="#464646" d="M546.472,459.464c-0.352,1.235-0.849,2.457-1.478,3.628c1.032,1.53,1.657,3.326,1.843,5.56
		C549.198,466.07,548.301,462.657,546.472,459.464z"/>
	<path fill="#464646" d="M431.65,278.004c-2.182,2.157-4.932,3.689-8.193,4.674c-6.866,2.078-15.215,3.32-21.93,0.109
		c-3.333-1.597-6.329-3.787-9.602-5.488c-0.423-0.218-0.87-0.456-1.337-0.698c-0.476,0.695-0.943,1.385-1.388,2.069
		c-1.336,2.052-2.82,4.19-4.357,6.381c3.45,2.677,6.614,5.96,10.643,7.711c4.274,1.861,8.699-0.276,12.985-1.077
		c4.943-0.922,9.92-1.728,14.793-2.986c3.111-0.802,7.74-2.37,9.289-5.467c0.606-1.207,0.671-2.388-0.025-3.562
		C432.208,279.136,431.859,278.595,431.65,278.004z"/>
	<path fill="#464646" d="M520.205,415.404c0.002,0.087-0.004,0.176,0.002,0.267c0.07,1.132,0.559,3.107,1.889,3.41
		c0.991,0.225,1.93-0.311,2.729-0.846c1.315-0.878,2.544-1.978,4.029-2.559c-0.094-0.499-0.194-0.998-0.29-1.494
		C525.87,415.839,522.848,416.562,520.205,415.404z"/>
	<path fill="#464646" d="M363.553,416.63c-3.492-1.126-6.375-3.326-8.639-6.188c-3.681-4.653-5.159-10.057-5.427-15.639
		c-0.563,1.618-0.989,3.279-1.142,4.99c-0.277,3.099,0.164,6.254,0.841,9.279c0.668,2.978,1.575,6.029,3.202,8.641
		c3.292,5.28,9.068,6.74,14.264,9.436c1.564-3.168,2.92-6.551,4.011-9.975C368.284,417.488,365.863,417.374,363.553,416.63z"/>
	<path fill="#464646" d="M545.338,130.577c-2.104-1.777-4.348-3.382-6.548-5.04c-2.651,0.954-5.704,3.264-4.958,3.833
		c4.359,3.028,9.115,8.885,14.348,12.51c0.541,0.374,1.067,0.736,1.582,1.096c1.106-1.768,2.276-3.367,3.721-4.47
		C550.869,135.761,548.231,133.029,545.338,130.577z"/>
	<path fill="#464646" d="M500.298,153.364c-2.016-1.069-4.395-1.626-6.663-1.773c-1.171-0.076-2.383-0.105-3.541,0.128
		c-0.254,0.052-2.993,0.897-2.736,1.241c0.194,0.258-0.119,0.502-0.373,0.42c-2.366,9.122,10.188,18.539,18.284,13.278
		c1.232-0.8,1.938-1.839,1.509-3.343c-0.364-1.279-0.949-2.582-1.538-3.777C504.11,157.243,502.645,154.608,500.298,153.364z"/>
	<path d="M504.213,133.788c-5.669-0.71-10.73,4.103-13.666,8.308c-0.476,0.682,0.405,1.3,1.01,0.902
		c1.991-1.307,4.326-2.574,6.579-3.375c2.157-0.761,4.35-0.406,6.528-0.929C507.169,138.094,506.616,134.087,504.213,133.788z"/>
	<path d="M543.304,144.64c-0.598-1.647-7.432-5.632-7.995-5.98c-2.813-1.741,1.819,5.363,3.516,6.288
		C540.523,145.875,543.732,145.82,543.304,144.64z"/>
	<path d="M500.068,150.192c-4.56-3.371-10.813-0.908-14.478,2.601c-0.418,0.397,0.365,0.76,0.813,0.555
		c2.726,8.419,10.958,15.657,21.664,11.681C507.471,159.592,504.528,153.488,500.068,150.192z"/>
	<path fill="#FFFFFF" d="M502.286,155.761c-2.681,2.306-5.817-2.096-2.973-3.381C500.454,153.229,501.472,154.142,502.286,155.761z"
		/>
	<path d="M551.854,150.966c0.605-0.175,1.159-1.223,0.409-1.467c-3.05-0.993-5.877,0.875-6.625,3.858
		c-0.755,3.009,0.347,6.813,1.564,9.546c0.246,0.551,0.986,0.058,0.852-0.52C552.415,161.699,554.427,155.055,551.854,150.966z"/>
	<path fill="#FFFFFF" d="M547.41,152.882c1.537,0.242,0.335,2.776-0.704,1.925C546.603,153.774,546.996,153.313,547.41,152.882z"/>
	<path d="M474.127,186.178c-1.763-2.402-5.404-6.023-8.155-4.054c-2.981,2.136-2.71,7.936-2.79,11.067
		c-0.011,0.339,0.495,0.43,0.534,0.075c0.305-2.696,0.545-6.463,2.204-8.745c2.356-3.244,7.291,2.025,8.537,3.792
		C475.671,190.036,474.663,186.904,474.127,186.178z"/>
	<path d="M471.811,177.993c-8.761-4.867-11.065,7.904-10.31,14.234c0.047,0.399,0.67,0.341,0.692-0.048
		c0.317-5.404,1.589-17.893,10.389-12.025C473.323,180.648,473.2,178.765,471.811,177.993z"/>
	<path d="M494.32,245.489c-16.99-12.69-32.4-32.352-36.222-54.697c-0.06-0.335-0.399,0.968-0.124,2.255
		c4.468,20.962,16.693,38.607,33.895,51.732C492.875,245.546,494.795,245.842,494.32,245.489z"/>
	<path d="M497.866,249.073c-7.916-3.819-15.782-9.053-21.376-15.273c-9.541-10.601-15.442-23.806-19.525-37.696
		c-0.585-1.993-0.267,1.305,0.264,3.008c6.988,22.365,16.752,39.266,38.563,49.804C496.486,249.253,498.552,249.403,497.866,249.073
		z"/>
	<path d="M501.428,251.13c-14.315-0.701-24.381-11.522-32.451-22.196c-0.742-0.981-0.143,0.653,0.566,1.524
		c8.605,10.599,16.31,20.156,30.354,21.431C501.07,251.994,502.6,251.186,501.428,251.13z"/>
	<path d="M545.945,225.068c-0.055-2.838-3.465-5.816-3.105-2.832c0.382,3.158-0.326,5.119-1.839,5.712
		c-1.858,0.726-5.064-0.132-6.648-1.007c-2.894-1.589-1.794-7.398-2.866-10.3c-0.185-0.5-0.909-0.314-0.801,0.217
		c0.868,4.37-2.093,11.285,3.817,13.017c2.069,0.608,5.102,1.11,7.566,0.311C544.534,229.384,546.001,227.898,545.945,225.068z"/>
	<path d="M516.644,388.785c-0.239-9.086-4.315-16.897-6.689-25.484c-0.095-0.342-0.63-0.261-0.554,0.1
		c1.917,9.165,5.786,17.34,5.663,26.887c-0.117,9.062-0.945,18.396-2.13,27.064c-0.15,1.098,1.341-0.948,1.804-3.881
		C516.222,404.057,516.895,398.345,516.644,388.785z"/>
	<path d="M423.788,330.706c-4.478,1.544-11.815,2.866-15.44,2.359c-4.87-0.681-7.025-5.679-8.602-9.703
		c-3.888-9.929-6.015-21.058-4.351-31.684c0.044-0.284-0.366-0.335-0.435-0.064c-3.055,12.008-0.078,26.768,5.512,37.704
		c3.99,7.802,11.639,5.763,18.925,3.976C422.399,332.56,424.633,330.416,423.788,330.706z"/>
	<path fill="#FFFFFF" d="M487.422,152.801c1.693-0.916,3.335-1.642,4.937-1.995c-1.63,3.86-0.435,8.123,2.356,11.238
		C491.717,159.841,489.351,156.509,487.422,152.801z"/>
	<path fill="#A9683F" d="M495.825,161.866c-3.127-2.759-4.609-7.89-2.407-11.232c1.078-0.25,2.137-0.29,3.027,0.226
		c-5.063,3.938,2.936,12.963,7.837,9.138c0.083,0.223,0.598,1.684,0.678,1.91C502.156,165.187,498.64,164.35,495.825,161.866z"/>
	<path fill="#FFFFFF" d="M502.961,164.764c0.901-0.391,1.694-1.064,2.297-2.043c0.208,0.591,0.417,1.176,0.639,1.758
		C504.875,164.675,503.9,164.758,502.961,164.764z"/>
	<path fill="#A9683F" d="M547.203,159.083c-0.085-0.429-0.178-1.058-0.233-1.488c2.496-0.338,3.368-2.955,3.265-4.471
		C551.251,155.326,549.757,159.043,547.203,159.083z"/>
	<path fill="#FFFFFF" d="M547.91,161.657c-0.25-0.562-0.457-1.371-0.518-1.993c1.805-0.209,5.147-2.784,2.719-8.513
		c0.143-0.011,0.528-0.087,0.671-0.095C553.39,152.668,552.691,160.769,547.91,161.657z"/>
	<path fill="#E8E6E1" d="M497.998,305.812c1.15,4.913,4.252,13.499,6.285,17.194c2.034,3.695,6.471-10.171,4.806-14.42
		C507.427,304.333,495.965,297.125,497.998,305.812z"/>
	<path fill="#FFB8C0" d="M545.193,260.012c3.825-0.833,6.847,0.578,4.875,1.97c-1.973,1.394-6.732,3.134-10.795,3.367
		C535.21,265.582,539.852,261.172,545.193,260.012z"/>
	<path fill="#FFB8C0" d="M515.94,263.954c2.182,0.344,8.011,0.351,9.983,0.814c1.972,0.466-1.625-3.132-5.224-2.786
		C517.101,262.332,512.225,263.376,515.94,263.954z"/>
	<path fill="#74625D" d="M535.21,212.533c1.287,0.886,12.652,11.145,15.09,10.45c2.437-0.696,11.376-1.509,10.911-3.598
		c-0.465-2.093-1.51-3.833-7.197-4.645c-5.688-0.813-8.126-1.973-11.724-3.367C538.691,209.98,529.289,208.471,535.21,212.533z"/>
	<path fill="#74625D" d="M551.111,226.812c0.607-0.91,1.742-1.973,3.252,0.115c1.508,2.088-0.158-3.071-1.974-2.553
		C549.951,225.071,549.718,228.9,551.111,226.812z"/>
	<path fill="#74625D" d="M547.978,228.321c-0.252,2.355-2.09,4.642-4.179,6.151C541.71,235.984,548.559,222.866,547.978,228.321z"/>
	<path fill="#E8E6E1" d="M522.9,170.127c0.79,4.117,4.766,17.839,5.873,20.945c1.108,3.101-7.204-3.77-7.98-6.983
		C520.018,180.874,521.792,164.363,522.9,170.127z"/>
	<path fill="#E8E6E1" d="M460.506,180.987c1.189-3.668,6.872-7.538,10.418-5.986c3.545,1.552-2.217-4.21-7.204-1.329
		C458.733,176.553,459.177,185.086,460.506,180.987z"/>
	<path fill="#E8E6E1" d="M452.971,149.289c-1.94,2.736-5.098,6.984-2.439,9.197c2.66,2.218,5.097,3.217,5.097,1.112
		C455.629,157.492,455.408,145.854,452.971,149.289z"/>
	<path fill="#E8E6E1" d="M476.132,134.219c1.581,1.292,3.214,4.431,3.99,5.762c0.775,1.331,3.546-10.304,2.327-9.974
		c-1.22,0.332-1.996,1.552-3.436,1.885C477.572,132.224,474.914,133.222,476.132,134.219z"/>
	<path fill="#E8E6E1" d="M445.101,195.061c0.776,7.204,3.768,15.515,8.201,22.387c4.432,6.869,8.422,12.522,11.193,16.51
		c2.77,3.99-15.933-6.063-19.284-15.292C440.225,204.925,444.599,190.399,445.101,195.061z"/>
</g>
</svg>
