<?xml version="1.0" encoding="utf-8"?>
<!-- Generator: Adobe Illustrator 17.0.0, SVG Export Plug-In . SVG Version: 6.00 Build 0)  -->
<!DOCTYPE svg PUBLIC "-//W3C//DTD SVG 1.1//EN" "http://www.w3.org/Graphics/SVG/1.1/DTD/svg11.dtd">
<svg version="1.1" id="Layer_1" xmlns="http://www.w3.org/2000/svg" xmlns:xlink="http://www.w3.org/1999/xlink" x="0px" y="0px"
	 width="800px" height="600px" viewBox="0 0 800 600" enable-background="new 0 0 800 600" xml:space="preserve">
<g>
	<g>
		<path fill-rule="evenodd" clip-rule="evenodd" d="M504.057,135.294c1.82,7.869,1.764,21,0.99,25.551
			c-0.235,1.402-1.313,5.132-2.929,6.849c15.81,6.199,30.492,15.017,33.987,37.175c3.282,20.798-5.772,28.426-7.166,37.57
			c-1.398,9.142-3.27,22.4-3.388,48.798c-0.072,15.832,2.919,29.047,5.319,34.507c2.401,5.461,13.127,21.028,18.882,39.24
			c8.886,28.116-17.855,55.292-41.382,65.86c-23.527,10.57-60.867,18.314-108.44,16.256c-47.572-2.056-99.562-14.115-110.856-52.734
			c-9.362-32.013,18.847-47.442,18.638-86.079c-0.209-38.635-8.295-51.959-11.852-67.744c-4.75-21.077-2.918-55.023,50.478-72.893
			c-2.014-1.133-4.343-2.883-4.802-8.028c-0.309-3.473,0.874-19.789,2.412-25.859c1.898-7.492,36.392-17.17,80.999-16.924
			C469.335,117.087,502.463,128.404,504.057,135.294z"/>
		<path fill-rule="evenodd" clip-rule="evenodd" fill="#DCBD51" d="M420.998,120.718c51.171,0.278,75.507,11.546,76.756,15.355
			c1.264,3.851,2.672,19.912,0.035,23.996c-5.034,7.816-33.27,22.731-80.177,21.197c-46.91-1.534-64.382-12.722-70.803-20.739
			c-2.239-2.79-0.454-22.627,1.705-26.088C349.544,132.788,369.828,120.442,420.998,120.718z"/>
		<path fill-rule="evenodd" clip-rule="evenodd" fill="#C29519" d="M448.22,165.771c-48.137,6.166-96.799-5.149-101.457-24.626
			c-1.119,7.192-1.519,17.434,0.046,19.383c6.422,8.016,23.893,19.205,70.803,20.739c46.907,1.534,75.143-13.381,80.177-21.197
			c1.37-2.124,1.643-7.487,1.415-12.685C488.025,159.578,463.371,163.83,448.22,165.771z"/>
		<path fill-rule="evenodd" clip-rule="evenodd" fill="#AE7C00" d="M463.166,163.367c-5.4,1.08-10.573,1.842-14.945,2.404
			c-23.494,3.008-47.099,1.846-65.667-2.391c-0.226,4.68-0.471,9.36-0.723,14.037c9.447,1.96,21.188,3.373,35.782,3.849
			c18.233,0.596,33.604-1.307,45.932-4.297C463.517,172.433,463.404,167.897,463.166,163.367z"/>
		<path fill-rule="evenodd" clip-rule="evenodd" fill="#AE7C00" d="M468.961,175.514c-0.407-4.394-0.776-8.792-1.036-13.197
			c-0.75,0.174-1.504,0.363-2.248,0.526c0.242,4.491,0.359,8.985,0.391,13.479C467.058,176.061,468.017,175.789,468.961,175.514z"/>
		<path fill-rule="evenodd" clip-rule="evenodd" fill="#AE7C00" d="M472.97,161.037c-0.845,0.235-1.691,0.479-2.54,0.692
			c0.247,4.352,0.602,8.696,1.004,13.038c0.769-0.242,1.508-0.488,2.243-0.734C473.335,169.709,473.114,165.376,472.97,161.037z"/>
		<path fill-rule="evenodd" clip-rule="evenodd" fill="#AE7C00" d="M377.336,162.066c-0.121,4.742-0.245,9.484-0.397,14.226
			c0.789,0.195,1.568,0.393,2.392,0.581c0.256-4.693,0.504-9.39,0.726-14.086C379.132,162.556,378.232,162.31,377.336,162.066z"/>
		<path fill-rule="evenodd" clip-rule="evenodd" d="M449.699,156.76c30.689-3.412,41.05-12.552,44.152-14.909
			c3.096-2.357-0.205,8.156-13.643,13.089c-13.438,4.933-36.178,9.004-65.869,7.861c-29.692-1.146-42.038-5.65-52.626-10.871
			c-7.354-3.63-13.443-10.466-9.426-12.395C364.166,150.495,392.788,163.081,449.699,156.76z"/>
		<path fill-rule="evenodd" clip-rule="evenodd" fill="#B8CFE6" d="M319.591,197.118c21.688-4.6,44.275-5.02,66.374-5.27
			c24.27-0.276,48.51,1.4,72.787,1.131c16.166-0.178,32.727-0.25,48.229,4.475c-4.386-10.402-16.964-17.067-28.207-15.346
			c-41.422,8.393-91.582,10.432-129.434-10.129c-16.107,5.663-31.982,13.309-41.206,27.024c-0.282,0.418-0.531,0.838-0.799,1.258
			C311.811,198.76,316.355,197.806,319.591,197.118z"/>
		<path fill-rule="evenodd" clip-rule="evenodd" fill="#A3BDDC" d="M330.659,188.882c-2.981-1.895-5.879-3.072-8.715-3.639
			c-5.385,3.8-10.131,8.29-13.81,13.761c-0.282,0.418-0.531,0.838-0.799,1.258c4.476-1.502,9.021-2.455,12.256-3.144
			c5.663-1.199,11.389-2.103,17.15-2.807C334.989,192.2,332.97,190.35,330.659,188.882z"/>
		<path fill-rule="evenodd" clip-rule="evenodd" fill="#A3BDDC" d="M446.218,186.973c-15.551,1.458-31.512,1.598-47.008-0.187
			c-5.418,1.542-10.811,3.221-16.429,4.464c-0.973,0.216-1.953,0.452-2.932,0.689c2.039-0.03,4.084-0.068,6.115-0.091
			c24.186-0.276,48.344,1.385,72.537,1.131C454.665,190.569,450.528,188.555,446.218,186.973z"/>
		<path fill-rule="evenodd" clip-rule="evenodd" fill="#FF7C0A" d="M456.789,195.533c-21.155,0.219-42.263-1.167-63.409-1.19
			c-19.954-0.023-40.39,0.216-60.178,2.962c-5.186,0.721-18.13,2.149-27.652,6.006c-0.967,1.806-1.814,3.628-2.519,5.478
			c2.053,1.782,4.193,3.424,6.261,4.924c8.16,5.928,16.84,11.34,25.964,15.652c21.163,10.003,44.433,15.456,67.86,15.749
			c17.84,0.219,36.127-0.528,53.792-3.098c17.873-2.595,36.785-7.222,50.626-19.456c1.803-7.186,2.294-15.163,0.417-22.175
			C491.597,194.943,473.895,195.357,456.789,195.533z"/>
		<path fill-rule="evenodd" clip-rule="evenodd" fill="#CD5800" d="M507.953,200.384c-16.355-5.442-34.057-5.028-51.164-4.852
			c-21.155,0.219-42.263-1.167-63.409-1.19c-6.807-0.008-13.667,0.025-20.539,0.166c1.084,0.138,2.169,0.276,3.249,0.41
			c17.779,2.2,35.653,5.694,52.412,12.167c15.573,6.019,30.416,14.349,41.326,27.24c1.256,1.487,2.412,3.025,3.494,4.594
			c12.489-3.023,24.581-7.848,34.215-16.362C509.339,215.373,509.83,207.397,507.953,200.384z"/>
		<path fill-rule="evenodd" clip-rule="evenodd" fill="#E6621E" d="M509.106,344.965c-9.672-8.958-12.517-50.323-11.714-77.012
			c0.608-20.192,2.254-26.007,6.947-36.14c0.709-1.536,1.341-3.204,1.926-4.925c-13.479,10.428-30.842,14.981-47.495,17.402
			c-20.203,2.938-41.652,4.373-62.054,3.117c-24.46-1.506-48.849-7.691-70.306-19.761c-7.313-4.112-16.765-9.322-24.385-15.915
			c-3.313,10.98-2.087,22.84,3.528,36.267c19.171,19.744,108.841,28.375,171.8,7.646c1.844,16.241-2.764,107.052-3.296,119.659
			c-14.083,6.374-43.384,13.903-80.22,10.901c-37.805-3.081-65.784-9.376-93.937-27.026c-4.083,11.714-9.454,28.761,1.129,43.647
			c27.117,38.143,102.607,42.268,147.975,36.393c36.783-4.763,59.566-12.159,71.635-32.16
			C532.707,387.056,525.921,360.54,509.106,344.965z"/>
		<path fill-rule="evenodd" clip-rule="evenodd" fill="#B84400" d="M316.61,248.797c-3.736-3.085-8.434-6.202-13.413-7.243
			c0.681,2.111,1.439,4.248,2.355,6.443c3.869,3.984,10.645,7.506,19.452,10.434C322.678,254.848,319.947,251.557,316.61,248.797z"
			/>
		<path fill-rule="evenodd" clip-rule="evenodd" fill="#B84400" d="M483.739,325.728c-1.992-3.696-4.308-7.585-7.063-11.088
			c-0.997,27.051-2.345,54.183-2.619,60.662c-14.083,6.374-43.384,13.903-80.22,10.901c-37.805-3.081-65.784-9.376-93.937-27.026
			c-2.715,7.791-5.972,17.941-4.754,28.243c8.653,1.882,17.666,1.99,26.833-0.329c8.902-2.255,16.649-3.898,25.882-2.841
			c8.986,1.025,17.564,3.227,26.011,6.462c18.024,6.91,35.472,16.831,54.816,19.581c21.287,3.026,43.572-1.491,62.353-11.96
			c6.564-3.658,16.363-9.355,16.049-18.11c-0.198-5.474-4.144-8.381-8.515-10.914c-6.572-3.815-14.708-8.332-13.792-17.259
			C485.767,342.458,488.703,334.945,483.739,325.728z"/>
		<path fill-rule="evenodd" clip-rule="evenodd" fill="#D2E1EF" d="M522.816,199.168c-3.293-18.809-14.744-24.789-25.485-26.432
			c-2.944,2.026-7.272,4.29-10.527,5.679c13.855,3.516,21.036,11.03,24.18,19.657C514.936,197.135,518.984,197.689,522.816,199.168z
			"/>
		<path fill-rule="evenodd" clip-rule="evenodd" fill="#B1CBE3" d="M516.468,183.434c-1.644,4.509-4.121,8.402-7.381,10.498
			c0.745,1.343,1.383,2.724,1.897,4.139c3.952-0.936,7.999-0.382,11.832,1.097C521.629,192.378,519.363,187.278,516.468,183.434z"/>
		<path fill-rule="evenodd" clip-rule="evenodd" fill="#FF7D45" d="M511.744,200.451c1.842,6.706,1.497,13.905,0.016,20.355
			c3.89,0.467,7.423-0.32,10.715-2.866c1.121-4.309,1.598-9.244,0.791-15.846C519.602,200.428,515.611,199.573,511.744,200.451z"/>
		<path fill-rule="evenodd" clip-rule="evenodd" fill="#E8621F" d="M523.304,213.686c0.454-3.306,0.517-7.048-0.038-11.591
			c-3.664-1.666-7.655-2.521-11.521-1.644c0.546,1.986,0.878,4.014,1.07,6.053C516.96,207.941,520.565,210.474,523.304,213.686z"/>
		<path fill-rule="evenodd" clip-rule="evenodd" fill="#C25100" d="M533.685,365.169c-3.537-11.767-9.09-19.508-15.322-30.335
			c-9.442-16.403-7.176-56.12-5.929-81.281c0.8-16.088,5.834-23.327,8.891-31.894c-3.166,1.651-6.602,2.107-10.203,1.625
			c-1.159,4.118-2.727,7.837-4.392,10.782c-10.699,18.91-5.635,81.412,0.873,101.088c2.335,7.061,7.763,10.053,13.436,18.108
			c5.863,8.319,13.035,24.791,7.413,49.835c0,0,3.919-3.98,5.643-9.117C536.462,386.929,537.392,377.498,533.685,365.169z"/>
		<path fill-rule="evenodd" clip-rule="evenodd" fill="#A94200" d="M525.211,346.429c-0.11,0.002-0.214-0.008-0.329-0.002
			c-2.629,0.123-5.471,0.577-8.082,0.074c-0.604-0.113-1.164-0.276-1.709-0.446c1.863,2.026,3.887,4.279,5.948,7.207
			c2.695,3.821,5.649,9.382,7.529,16.682c1.755-2.105,3.32-4.335,4.473-6.702C530.948,356.94,528.273,351.718,525.211,346.429z"/>
		<path fill-rule="evenodd" clip-rule="evenodd" fill="#A94200" d="M507.084,322.226c1.197-4.481,2.871-8.748,5.012-12.826
			c-1.08-11.834-0.938-25.283-0.485-37.672c-2.423-2.406-4.66-4.952-6.172-8.205c-2.094-4.513-2.012-9.66-3.223-14.357
			c-3.741,23.457-0.689,60.987,3.758,80.035C506.105,326.81,506.501,324.423,507.084,322.226z"/>
		<path fill-rule="evenodd" clip-rule="evenodd" fill="#95B7DA" d="M530.214,202.407c-1.171-6.079-3.299-10.875-6.191-12.611
			c1.256,3.221,2.218,7.545,2.738,12.18C527.925,202.047,529.076,202.195,530.214,202.407z"/>
		<path fill-rule="evenodd" clip-rule="evenodd" fill="#B84400" d="M527.011,204.544c0.254,3.405,0.257,6.902-0.056,10.192
			c1.534-0.25,2.957-0.832,4.277-1.651c-0.025-2.758-0.223-5.459-0.573-8.001C529.461,204.816,528.247,204.639,527.011,204.544z"/>
		<path fill-rule="evenodd" clip-rule="evenodd" fill="#884400" d="M525.794,324.604c-1.787-5.138-3.94-15.057-4.107-30.677
			c-0.168-15.619,1.545-49.785,5.796-59.493c2.324-5.302,3.492-11.909,3.717-18.427c-1.418,0.719-2.934,1.207-4.579,1.362
			c-0.438,2.83-1.134,5.44-2.152,7.6c-4.013,8.533-6.695,15.535-8.039,35.436c-1.574,23.26-1.3,57.688,4.231,70.112
			c2.967,6.662,11.547,15.732,16.075,32.824s3.655,23.166,0.337,33.883c9.788-7.57,10.215-23.663,5.208-38.837
			C537.856,344.98,529.451,335.114,525.794,324.604z"/>
		<path fill-rule="evenodd" clip-rule="evenodd" fill="#743500" d="M522.1,230.333c-2.709,6.704-4.596,14.351-5.659,29.939
			C520.708,250.877,526.573,239.528,522.1,230.333z"/>
		<path fill-rule="evenodd" clip-rule="evenodd" fill="#743500" d="M530.512,334.663c-1.859-3.378-3.547-6.688-4.719-10.059
			c-1.558-4.479-3.388-12.586-3.947-24.925c-2.081-3.006-4.227-5.97-5.995-9.161c-0.08-0.148-0.147-0.291-0.223-0.437
			c0.206,16.661,1.613,32.756,5.032,40.436c1.873,4.207,5.986,9.382,9.905,16.928C530.389,343.28,530.462,339.022,530.512,334.663z"
			/>
		<path fill-rule="evenodd" clip-rule="evenodd" fill="#FFFFFF" d="M474.991,260.371c1.369,37.193-3.064,74.763-4.675,111.554
			c-40.041,14.204-90.846,9.467-126.161,0.363c-27.089-6.983-39.886-15.571-42.216-17.325c0.229-2.434,3.534-8.591,3.534-8.591
			c37.049,19.647,108.34,31.627,154.522,13.706c3.531-13.759,6.362-62.531,5.741-91.282
			c-38.178,11.553-122.348,17.183-156.846-6.384c0,0-1.451-5.431-1.994-8.359C337.924,272.817,408.647,278.286,474.991,260.371z"/>
		<path fill-rule="evenodd" clip-rule="evenodd" fill="#607CE3" d="M309.907,267.315c3.806,17.59,4.217,45.736,2.708,56.098
			c-1.51,10.358-3.83,16.224-5.29,18.575c33.375,18.378,110.005,31.538,149.071,14.888c4.019-30.452,5.843-65.018,5.005-83.449
			C416.169,287.702,335.806,285.672,309.907,267.315z"/>
		<path fill-rule="evenodd" clip-rule="evenodd" fill="#8DA9EB" d="M444.19,309.018c-11.5-0.195-22.436,1.791-33.376,4.267
			c4.09-0.219,8.185-0.359,12.286-0.331c12.036,0.078,25.071,0.883,37.215,4.074c0.135-2.009,0.259-3.993,0.375-5.956
			C455.257,309.884,449.751,309.112,444.19,309.018z"/>
		<path fill-rule="evenodd" clip-rule="evenodd" fill="#8DA9EB" d="M396.272,336.001c-18.486,1.681-36.236,1.772-54.756,1.466
			c-5.681-0.095-11.333,0.102-16.874-0.144c25.702,9.28,54.903,0.965,82.408,2.262c17.137,0.808,34.548,4.182,50.094,11.364
			c0.336-2.784,0.651-5.599,0.948-8.417C439.045,334.372,414.578,334.338,396.272,336.001z"/>
		<path fill-rule="evenodd" clip-rule="evenodd" fill="#325DA9" d="M447.916,320.029c4.061,1.258,8.017,2.724,11.846,4.455
			c0.074-0.95,0.145-1.895,0.217-2.837C455.962,320.938,451.942,320.401,447.916,320.029z"/>
		<path fill-rule="evenodd" clip-rule="evenodd" fill="#325DA9" d="M417.453,328.796c13.791,2.007,28.027,6.866,40.649,13.653
			c0.111-1.031,0.214-2.066,0.319-3.098C445.964,332.853,431.989,329.938,417.453,328.796z"/>
		<path fill-rule="evenodd" clip-rule="evenodd" fill="#325DA9" d="M422.816,344.751c-21.349-6.036-41.64,1.553-63.33,0.577
			c-17.569-0.791-33.504-3.537-48.24-13.608c-0.064-0.047-0.123-0.095-0.187-0.14c-1.287,5.38-2.717,8.769-3.734,10.407
			c33.033,18.189,108.41,31.248,147.83,15.374C445.037,351.759,433.857,347.874,422.816,344.751z"/>
		<path fill-rule="evenodd" clip-rule="evenodd" fill="#F0DC88" d="M411.913,140.477c-26.908,1.665-57.23-3.694-49.664-7.676
			c11.757-6.183,45.78-10.058,72.79-8.293C478.726,127.363,446.84,138.319,411.913,140.477z"/>
		<path fill-rule="evenodd" clip-rule="evenodd" fill="#FFEBA8" d="M472.022,131.539c5.948-2.328,17.869,3.699,14.454,5.814
			C478.153,142.513,465.848,133.955,472.022,131.539z"/>
		<path fill-rule="evenodd" clip-rule="evenodd" fill="#FFEBA8" d="M434.336,154.537c7.971,0.951,27.181-1.262,34.209-5.045
			C475.574,145.713,425.377,153.469,434.336,154.537z"/>
		<path fill-rule="evenodd" clip-rule="evenodd" fill="#FF9F47" d="M351.79,229.306c10.91,7.012,49.026,12.811,63.226,10.156
			C429.219,236.802,335.864,219.073,351.79,229.306z"/>
		<path fill-rule="evenodd" clip-rule="evenodd" fill="#FF9F47" d="M334.934,203.038c8.122-4.691,25.715-5.682,31.605-2.733
			C372.43,203.254,329.231,206.333,334.934,203.038z"/>
		<path fill-rule="evenodd" clip-rule="evenodd" fill="#FFFFFF" d="M314.899,204.533c0.532-5.618,10.65-16.831,18.151-19.733
			C340.549,181.895,313.883,215.269,314.899,204.533z"/>
		<path fill-rule="evenodd" clip-rule="evenodd" fill="#FFFFFF" d="M492.992,220.609c0.096-9.617-7.161-21.673-3.277-19.986
			c3.843,1.67,8.66,5.991,9.898,17.555c0.926,8.648-2.965,19.706-6.871,23.856C487.987,247.089,492.879,231.767,492.992,220.609z"/>
		<path fill-rule="evenodd" clip-rule="evenodd" fill="#FF925A" d="M504.91,350.108c6.629-0.199,17.437,15.989,16.422,26.733
			C520.315,387.58,495.993,350.376,504.91,350.108z"/>
		<path fill-rule="evenodd" clip-rule="evenodd" fill="#FF925A" d="M342.539,396.935c11.624-3.028,38.938,3.736,50.538,18.562
			C399.634,423.876,311.544,405.003,342.539,396.935z"/>
		<path fill-rule="evenodd" clip-rule="evenodd" fill="#FF925A" d="M340.599,243.033c8.036,4.646,27.068,9.897,33.799,11.035
			c6.73,1.135-13.256,4.411-21.4,0.639C344.853,250.938,331.063,237.517,340.599,243.033z"/>
		<path fill-rule="evenodd" clip-rule="evenodd" fill="#FFFFFF" d="M504.303,359.501c3.943-2.351,10.454,6.378,7.021,10.946
			C507.89,375.014,501.215,361.342,504.303,359.501z"/>
		<path fill-rule="evenodd" clip-rule="evenodd" fill="#FFFFFF" d="M462.122,396.468c6.56-8.885,25.435-15.045,30.04-10.273
			C496.765,390.965,457.405,402.858,462.122,396.468z"/>
		<path fill-rule="evenodd" clip-rule="evenodd" fill="#FF925A" d="M410.114,418.109c3.405-4.175,15.513-3.588,17.942,3.032
			C430.484,427.762,404.516,424.97,410.114,418.109z"/>
	</g>
	<g>
		<g>
			<g>
				<path fill-rule="evenodd" clip-rule="evenodd" d="M419.495,288.716c-0.536-2.639-1.329-4.77-2.315-6.781
					c-0.433,0.127-0.894,0.217-1.414,0.219c-1.333,0.008-2.666,0.024-3.999,0.04c-6.407,0.439-12.858,0.45-19.366,0.762
					c-10.789,0.516-21.526,0.278-32.208-1.282c-0.075-0.008-0.148-0.019-0.223-0.027c-0.088,0.002-0.172,0.023-0.261,0.019
					c-0.768-0.034-1.537-0.142-2.291-0.301c-0.368-0.036-0.739-0.081-1.115-0.134c-0.077,0.004-0.142,0.023-0.22,0.023
					c-0.104,0-0.192-0.025-0.293-0.028c-0.443,0.492-0.881,0.999-1.241,1.583c-0.329,0.535-0.583,1.23-0.771,1.755
					c-0.071,0.199-0.069,0.469-0.157,0.675c-0.307,0.743-1.222,1.082-0.99,2.122c-0.309,0.405-0.73,0.914-0.849,1.377
					c-0.309,1.231-0.793,2.586-1.059,3.764c-0.108,0.454-0.074,0.955-0.185,1.4c-0.105,0.407-0.415,0.692-0.484,1.12
					c-0.073,0.467,0.059,0.965,0.006,1.436c-0.062,0.573-0.382,0.899-0.416,1.436c-0.027,0.479,0.163,0.87,0.167,1.345
					c0.008,0.876-0.281,1.871-0.263,2.714c0.062,2.522,0.567,5.109,1.201,7.892c1.227,5.385,3.555,9.259,5.379,11.962
					c3.581,5.308,11.996,12.868,23.886,12.511c11.888-0.365,19.307-4.122,23.534-7.333c0.901-0.685,1.782-1.386,2.572-2.177
					c0.485-0.482,0.282-0.715,0.584-1.063c0.3-0.346,0.556-0.161,0.969-0.656c0.511-0.6,0.232-0.681,0.764-1.271
					c0.358-0.397,0.977-0.607,1.281-0.963c0.946-1.114,1.664-1.85,2.271-3.085c0.226-0.454-0.057-0.73,0.175-1.052
					c0.29-0.403,0.858-0.634,1.177-1.152c0.501-0.812,0.778-1.282,0.999-1.865c0.219-0.585,0.109-1.012,0.346-1.424
					c0.447-0.777,0.904-0.997,1.111-1.468c0.206-0.467,1.202-2.618,1.922-4.364c0.116-0.282-0.069-0.56,0.117-1.023
					c0.192-0.465,0.41-0.422,0.587-0.846c0.177-0.418-0.053-0.709,0.107-1.09c0.165-0.378,0.326-0.836,0.427-1.218
					c0.075-0.27-0.08-1.08-0.01-1.333c0.386-1.415,0.918-2.052,1.039-3.645c0.04-0.533-0.24-0.651-0.204-0.993
					c0.037-0.342,0.323-0.569,0.366-0.98C420.385,293.114,419.979,291.097,419.495,288.716z"/>
				<path fill-rule="evenodd" clip-rule="evenodd" fill="#E3770D" d="M418.84,293.566c-0.028-0.388-0.73-0.492-0.735-1.061
					c-0.002-0.568,0.581-0.227,0.553-0.706c-0.027-0.48-0.037-1.035-0.174-2.031c-0.262-1.891-1.321-4.873-2.66-7.619
					c-0.021,0-0.038,0.006-0.059,0.006c-1.333,0.008-2.666,0.024-3.999,0.04c-6.408,0.439-12.858,0.45-19.366,0.762
					c-9.613,0.46-19.184,0.322-28.713-0.815c-0.002,0.046-0.006,0.089,0.002,0.138c0.188,1.184,1.32,1.504,1.304,2.135
					c-0.019,0.745-1.107,1.05-1.144,2.366c-0.039,1.32,0.412,2.033,0.733,2.461c-0.096,0.127-0.867-0.009-1.16-0.97
					c-0.293-0.957-0.476-1.807-0.099-2.616c0.19-0.412,0.725-0.851,0.63-1.332c-0.09-0.462-0.642-0.76-0.898-1.292
					c-0.184-0.375-0.233-0.692-0.223-0.986c-0.945-0.119-1.89-0.261-2.835-0.401c-0.097,0.002-0.19,0.025-0.288,0.021
					c-0.77-0.034-1.54-0.144-2.294-0.301c-0.168-0.017-0.34-0.028-0.508-0.051c-0.427,0.45-0.886,0.863-1.428,1.68
					c-0.867,1.311-0.789,2.818-1.523,3.32c-0.734,0.501-0.116,1.037-0.175,1.19c-0.772,0.643-1.134,1.269-1.306,1.908
					c-0.191,0.704-1.098,2.894-0.959,4.85c-0.739,0.721-0.331,1.544-0.565,2.701c-0.155,0.757-0.407,1.129-0.308,1.944
					c0.162,1.367-0.17,2.293-0.104,3.471c0.077,1.337,0.118,2.741,0.749,5.372c0.633,2.633,1.119,5.298,2.971,8.917
					c2.246,4.39,6.612,9.057,9.7,11.013c3.093,1.958,8.401,4.922,16.275,4.859c7.874-0.062,16.365-3.414,18.573-4.647
					c2.21-1.235,5.19-3.454,5.781-4.211c0.594-0.753,0.22-0.986,0.743-1.521c0.523-0.541,0.758-0.178,1.2-0.579
					c0.441-0.405,0.126-0.626,0.648-1.282c0.522-0.658,0.633-0.274,1.148-0.76c0.515-0.488,1.618-1.85,1.992-2.629
					c0.376-0.781-0.009-0.857,0.349-1.479c0.359-0.622,0.836-0.566,1.176-0.913c0.428-0.435,0.923-1.392,0.956-1.799
					c0.048-0.602-0.099-0.87,0.247-1.479c0.344-0.611,0.933-0.76,1.208-1.218c0.272-0.464,1.424-3.219,1.744-4.071
					c0.171-0.462,0.09-0.904,0.242-1.309c0.219-0.583,0.532-0.664,0.613-0.863c0.18-0.431-0.068-0.793,0.145-1.186
					c0.217-0.391,0.282-0.183,0.637-0.9c0.357-0.715-0.2-0.887-0.073-1.392c0.122-0.509,0.377-0.462,0.519-0.984
					c0.145-0.52,0.441-1.822,0.478-2.323c0.037-0.497-0.288-0.67-0.241-1.118c0.048-0.445,0.381-0.494,0.496-0.895
					C418.927,294.574,418.863,293.952,418.84,293.566z"/>
				<path fill-rule="evenodd" clip-rule="evenodd" fill="#D95D1E" d="M403.797,300.958c1.121-4.04,5.098-17.349,8.631-18.645
					c3.531-1.29,6.986,10.878,3.841,19.687c-3.146,8.811-8.903,16.303-11.372,16.426
					C402.43,318.549,400.535,312.739,403.797,300.958z"/>
				<path fill-rule="evenodd" clip-rule="evenodd" d="M364.605,291.525c-0.378,0.212-0.396,0.963-0.232,1.536
					c-0.523,0.167-0.596-0.369-0.598-0.967c-0.001-0.531,0.429-0.522,0.456-0.838c0.026-0.312-0.382-0.679-0.591-0.723
					C363.79,289.391,365.296,291.135,364.605,291.525z"/>
				<path fill-rule="evenodd" clip-rule="evenodd" d="M412.91,284.795c-0.509-0.068-0.7-0.751-0.37-1.112
					C412.87,283.321,413.418,284.863,412.91,284.795z"/>
				<path fill-rule="evenodd" clip-rule="evenodd" d="M414.475,284.131c0.489-0.462,1.27,1.602,0.561,1.375
					C414.327,285.281,413.991,284.594,414.475,284.131z"/>
				<path fill-rule="evenodd" clip-rule="evenodd" d="M416.265,285.107c-0.481-0.095-0.745-0.571-0.488-0.995
					C416.034,283.692,416.745,285.199,416.265,285.107z"/>
				<path fill-rule="evenodd" clip-rule="evenodd" d="M411.839,286.372c-0.213,0.388-0.782,0.463-0.916-0.121
					C410.792,285.663,412.053,285.986,411.839,286.372z"/>
				<path fill-rule="evenodd" clip-rule="evenodd" d="M413.797,286.753c0.386-0.403,1.016,0.825,0.45,0.972
					C413.817,287.836,413.41,287.157,413.797,286.753z"/>
				<path fill-rule="evenodd" clip-rule="evenodd" d="M415.441,288.801c-0.577-0.445-0.575-1.475,0.106-1.744
					C416.226,286.785,416.013,289.249,415.441,288.801z"/>
				<path fill-rule="evenodd" clip-rule="evenodd" d="M412.163,287.401c0.491-0.372,0.603,1.161,0.178,1.05
					C411.914,288.339,411.674,287.772,412.163,287.401z"/>
				<path fill-rule="evenodd" clip-rule="evenodd" d="M365.116,297.114c-0.453-0.291-0.741-1.01-0.426-1.434
					C365.006,295.261,365.567,297.404,365.116,297.114z"/>
				<path fill-rule="evenodd" clip-rule="evenodd" d="M413.61,290.774c-0.52-0.56-0.51-1.023-0.128-1.615
					C413.865,288.565,414.132,291.332,413.61,290.774z"/>
				<path fill-rule="evenodd" clip-rule="evenodd" d="M416.179,292.558c-0.868-0.74-1.123-2.304-0.135-2.975
					C417.029,288.907,417.048,293.297,416.179,292.558z"/>
				<path fill-rule="evenodd" clip-rule="evenodd" d="M411.798,291.754c-0.371-0.371-0.028-1.04,0.429-0.997
					C412.499,290.785,412.236,292.194,411.798,291.754z"/>
				<path fill-rule="evenodd" clip-rule="evenodd" d="M365.395,298.696c0.668,0.133,0.41,0.409,0.459,1.033
					c0.037,0.456,0.808,0.923,0.415,1.368C365.601,300.916,365.429,299.384,365.395,298.696z"/>
				<path fill-rule="evenodd" clip-rule="evenodd" d="M412.616,293.604c-0.625-0.717-0.016-1.25,0.409-1.44
					C413.454,291.973,413.238,294.319,412.616,293.604z"/>
				<path fill-rule="evenodd" clip-rule="evenodd" d="M414.289,294.527c-0.624-0.359-0.523-1.207,0.133-1.746
					C415.077,292.242,414.909,294.884,414.289,294.527z"/>
				<path fill-rule="evenodd" clip-rule="evenodd" d="M416.274,295.544c-0.584-0.643-0.382-1.229,0.232-1.738
					C417.121,293.297,416.857,296.184,416.274,295.544z"/>
				<path fill-rule="evenodd" clip-rule="evenodd" d="M411.177,296.184c-0.748-0.552-0.247-2.149,0.28-1.218
					C411.656,295.314,411.53,296.021,411.177,296.184z"/>
				<path fill-rule="evenodd" clip-rule="evenodd" d="M412.978,295.484c0.392-0.199,0.613,1.561,0.048,1.154
					C412.462,296.233,412.588,295.677,412.978,295.484z"/>
				<path fill-rule="evenodd" clip-rule="evenodd" d="M414.339,297.4c-0.435-0.441-0.046-1.207,0.611-1.307
					C415.611,295.993,414.776,297.844,414.339,297.4z"/>
				<path fill-rule="evenodd" clip-rule="evenodd" d="M412.764,299.547c-0.535-0.575-0.267-1.101,0.151-1.385
					C413.329,297.875,413.296,300.12,412.764,299.547z"/>
				<path fill-rule="evenodd" clip-rule="evenodd" d="M415.327,300.131c-0.506-0.52-0.654-1.475,0.223-1.869
					C416.425,297.865,415.832,300.65,415.327,300.131z"/>
				<path fill-rule="evenodd" clip-rule="evenodd" d="M410.862,300.956c-0.546,0.272-0.145-1.579,0.256-1.137
					C411.52,300.258,411.41,300.684,410.862,300.956z"/>
				<path fill-rule="evenodd" clip-rule="evenodd" d="M368.987,308.214c0.677,0.382,1.576,1.271,1.514,2.294
					C369.833,310.102,369.003,309.116,368.987,308.214z"/>
				<path fill-rule="evenodd" clip-rule="evenodd" d="M411.615,301.951c0.464-0.134,0.194,1.303-0.203,0.978
					C411.016,302.6,411.151,302.085,411.615,301.951z"/>
				<path fill-rule="evenodd" clip-rule="evenodd" d="M412.815,302.346c-0.603,0.199,0.082-1.727,0.359-1.366
					C413.64,301.59,413.421,302.146,412.815,302.346z"/>
				<path fill-rule="evenodd" clip-rule="evenodd" d="M413.623,305.11c-0.531-1.054-0.243-1.975,0.809-2.391
					C415.481,302.305,414.149,306.164,413.623,305.11z"/>
				<path fill-rule="evenodd" clip-rule="evenodd" d="M410.456,305.5c-0.445-0.469-0.703-0.863-0.049-1.364
					C411.061,303.638,410.9,305.971,410.456,305.5z"/>
				<path fill-rule="evenodd" clip-rule="evenodd" d="M412.184,308.802c-0.561-0.842-0.714-1.867,0.241-2.487
					C413.38,305.689,412.742,309.644,412.184,308.802z"/>
				<path fill-rule="evenodd" clip-rule="evenodd" d="M410.257,307.743c0.622-0.392,0.755,2.249,0.031,1.761
					C409.564,309.02,409.638,308.14,410.257,307.743z"/>
				<path fill-rule="evenodd" clip-rule="evenodd" d="M376.058,316.834c-0.715,0.617-1.12-0.401-1.622-0.844
					c-0.445-0.39-1.114-0.371-1.071-1.063c0.046-0.69,0.54,0.034,0.878,0.443C374.582,315.78,375.565,315.966,376.058,316.834z"/>
				<path fill-rule="evenodd" clip-rule="evenodd" fill="#D95D1E" d="M377.496,330.905c-1.914-0.456-2.772-2.533-0.403-4.347
					c2.371-1.812,9.397-3.961,14.459-4.228c5.063-0.265,10.675,0.804,9.827,2.37c-0.85,1.56-9.318,4.948-13.191,5.868
					C384.315,331.491,380.674,331.665,377.496,330.905z"/>
				<path fill-rule="evenodd" clip-rule="evenodd" d="M408.264,312.708c-0.481-0.827,0.101-1.436,0.421-1.576
					C409.005,310.996,408.743,313.533,408.264,312.708z"/>
				<path fill-rule="evenodd" clip-rule="evenodd" d="M410.683,311.07c0.601-0.329,0.264,1.736-0.127,1.388
					C410.166,312.114,410.082,311.397,410.683,311.07z"/>
				<path fill-rule="evenodd" clip-rule="evenodd" d="M379.864,320.579c-0.597,0.078-1.714-1.004-1.988-1.265
					C377.826,318.599,379.797,319.843,379.864,320.579z"/>
				<path fill-rule="evenodd" clip-rule="evenodd" d="M409.05,315.33c0.097,0.422-0.465,1.112-1.161,1.052
					C407.196,316.317,408.948,314.908,409.05,315.33z"/>
				<path fill-rule="evenodd" clip-rule="evenodd" d="M406.782,317.94c-0.072,0.414-0.612,0.993-1.272,0.857
					C404.849,318.655,406.851,317.524,406.782,317.94z"/>
				<path fill-rule="evenodd" clip-rule="evenodd" d="M401.814,323.938c-0.127-0.713,1.135-1.438,1.798-1.09
					C403.466,323.379,402.359,324.177,401.814,323.938z"/>
				<path fill-rule="evenodd" clip-rule="evenodd" d="M399.81,326.1c-0.059,0.617-1.327,1.513-1.825,0.755
					C398.151,326.325,399.306,325.868,399.81,326.1z"/>
				<path fill-rule="evenodd" clip-rule="evenodd" fill="#FF9514" d="M385.434,283.172c-0.751,0.011-1.501,0.023-2.251,0.027
					c2.049,5.028-0.551,10.808-4.294,13.398c-2.182,1.515-6.802,2.132-9.331,0.051c0.114,0.335,0.234,0.666,0.361,1.003
					c2.305,2.137,6.823,1.95,9.226,1.322c5.264-1.386,8.618-7.322,7.186-13.256C386.126,284.857,385.806,284.008,385.434,283.172z"
					/>
				<path fill-rule="evenodd" clip-rule="evenodd" fill="#FF9514" d="M369.539,282.714c-1.707,3.603-1.718,8.062-0.409,12.586
					c1.091,1.591,3.309,1.973,4.968,1.982c2.19,0.011,4.132-0.658,5.702-2.223c2.481-2.476,4.355-7.865,2.589-11.866
					C378.096,283.195,373.814,283.045,369.539,282.714z"/>
				<path fill-rule="evenodd" clip-rule="evenodd" fill="#FF9514" d="M388.185,283.119c-0.695,0.021-1.39,0.027-2.085,0.04
					c0.622,1.464,1.029,2.987,1.071,4.508c0.165,5.773-2.922,11.045-8.374,12.03c-2.277,0.414-5.983,0.571-8.431-0.949
					c0.062,0.138,0.111,0.978,0.923,1.621c2.467,1.958,7.616,2.883,11.406,0.376c1.939-1.281,3.728-3.036,4.985-5.073
					c1.4-2.276,1.664-4.986,1.535-7.763C389.139,286.247,388.737,284.626,388.185,283.119z"/>
				<path fill-rule="evenodd" clip-rule="evenodd" fill="#FF9514" d="M388.794,283.096c0.747,2.143,1.113,4.428,1.021,6.859
					c-0.2,5.196-3.293,9.486-7.489,11.756c-3.465,1.875-7.694,1.377-10.452-0.412c4.052,6.165,14.202,6.083,19.082-2.34
					c3-5.177,2.537-11.412,0.436-15.963C390.526,283.034,389.659,283.07,388.794,283.096z"/>
				<path fill-rule="evenodd" clip-rule="evenodd" fill="#FF9514" d="M354.972,304.391c0.835,1.025,1.91,1.895,3.154,2.251
					c2.125,0.613,3.425,0.034,5.196-2.518c-0.69-2.151-1.383-4.64-1.848-7.091c-0.584,0.781-1.257,1.46-2.028,1.924
					c-1.736,1.038-4.104,0.556-5.155-1.544c-0.285-0.564-0.451-1.143-0.546-1.727C352.455,299.543,354.012,303.22,354.972,304.391z"
					/>
				<path fill-rule="evenodd" clip-rule="evenodd" fill="#FF9514" d="M357.478,312.865c1.382,0.774,2.94,1.05,4.394,0.745
					c1.885-0.388,3.125-1.61,3.632-3.501c-0.153-0.335-1.33-3.352-1.863-4.962c-0.27,0.445-0.598,0.847-0.994,1.201
					c-1.721,1.523-3.794,1.572-5.898,0.446c-1.735-0.927-2.546-2.347-3.105-3.966c0.219,2.05,0.715,5.232,1.373,6.796
					C355.675,311.191,356.319,312.218,357.478,312.865z"/>
				<path fill-rule="evenodd" clip-rule="evenodd" fill="#FF9514" d="M371.409,319.088c-1.233-1.231-3.651-3.874-5.555-7.799
					c-0.087,0.21-0.181,0.416-0.288,0.613c-1.061,1.963-3.203,2.671-5.365,2.593c-1.979-0.074-3.282-0.914-4.326-2.224
					C360.643,323.91,372.755,320.428,371.409,319.088z"/>
				<path fill-rule="evenodd" clip-rule="evenodd" fill="#FF9514" d="M354.767,297.054c1.945,3.18,5.082,1.216,6.413-0.898
					c-0.75-5.175-1.619-11.529-2.377-10.988c-1.432,1.023-3.61,4.457-4.462,7.858C353.961,294.549,354.044,295.868,354.767,297.054z
					"/>
			</g>
		</g>
		<g>
			<g>
				<path fill-rule="evenodd" clip-rule="evenodd" d="M391.766,319.832c-1.249-2.601-2.94-5.989-5.986-9.677
					c-1.03-1.252-4.221-4.139-6.471-5.83c0.037-1.184-0.31-2.919-0.691-3.497c-0.247-0.263-2.423-0.528-2.423-0.528
					s-0.891-2.338-2.407-3.233c-0.586-0.341-1.424-0.363-2.175-0.611c-1.526-0.503-2.675-1.761-4.226-2.453
					c-0.606-0.272-1.369-0.439-1.946-0.564c-0.217-0.047-0.5-0.008-0.729-0.072c-0.818-0.219-1.301-1.131-2.357-0.743
					c-0.468-0.267-1.058-0.639-1.56-0.7c-1.331-0.153-2.819-0.473-4.089-0.588c-0.49-0.051-1.01,0.053-1.49,0
					c-0.443-0.055-0.782-0.341-1.242-0.352c-0.497-0.011-1.001,0.193-1.5,0.204c-0.611,0.013-0.996-0.276-1.563-0.238
					c-0.505,0.038-0.886,0.291-1.384,0.361c-0.916,0.131-1.998-0.036-2.879,0.1c-2.633,0.414-5.271,1.298-8.099,2.349
					c-5.469,2.03-9.204,5.003-11.783,7.286c-5.062,4.483-11.817,14.342-9.795,26.743c2.024,12.399,6.984,19.648,10.932,23.629
					c0.061,0.061,0.127,0.115,0.189,0.174c1.796,0.42,3.401,1.226,5.275,1.75c2.399,0.673,4.835,1.178,7.184,2.02
					c0.181,0.064,0.328,0.155,0.493,0.233c7.64,2.052,15.349,3.944,23.108,5.502c2.628,0.202,5.242,0.577,7.843,1.02
					c3.701-1.542,6.365-3.515,9.341-5.938c0.964-0.781,6.93-4.927,9.782-11.864C392.768,340.306,397.04,330.782,391.766,319.832z"/>
				<path fill-rule="evenodd" clip-rule="evenodd" fill="#E3770D" d="M387.19,313.872c-3.424-5.268-6.448-6.874-6.919-6.906
					c0.125,0.931,0.483,2.121,0.113,3.193c2.366,2.909,3.833,7.114,2.942,8.054c-0.916-3.925-3.27-7.014-3.654-7.494
					c-1.319-0.705-2.608-1.975-3.516-3c-1.081-0.053-4.059,0.013-4.418-0.777c-0.248-0.547,0.268-2.531,0.391-3.172
					c-0.77,0.265-1.709-0.628-2.924-0.267c-1.214,0.361-1.39,1.591-2.053,1.661c-0.783,0.085-1.253-1.012-2.639-0.87
					c-1.387,0.142-2.071,0.713-2.475,1.107c-0.148-0.081-0.107-0.91,0.856-1.349c0.963-0.439,1.827-0.747,2.726-0.465
					c0.457,0.142,0.991,0.641,1.481,0.475c0.471-0.157,0.71-0.777,1.231-1.12c1.527-1.02,2.429,0.267,3.795,0.127
					c-0.471-1.078-0.809-2.718-0.077-3.533c1.128-0.059,1.883,0.325,2.861,0.764c-0.129-1.099-1.058-2.088-1.957-2.47
					c-0.716-0.307-1.395-0.384-2.589-0.914c-1.195-0.528-1.552-1.186-3.044-1.912c-1.491-0.726-3.06-0.435-3.686-1.135
					c-0.626-0.7-1.101,0.021-1.271-0.021c-0.78-0.719-1.484-1.01-2.178-1.103c-0.765-0.102-3.182-0.749-5.211-0.333
					c-0.857-0.675-1.664-0.134-2.907-0.217c-0.811-0.059-1.238-0.271-2.078-0.055c-1.41,0.357-2.426,0.138-3.652,0.372
					c-1.387,0.263-2.851,0.501-5.521,1.527c-2.669,1.027-5.394,1.903-8.927,4.343c-4.285,2.96-8.571,8.175-10.191,11.68
					c-1.62,3.509-3.992,9.478-2.837,17.714c1.155,8.238,5.837,16.666,7.436,18.808c1.597,2.143,4.334,4.958,5.208,5.472
					c0.87,0.518,1.06,0.095,1.697,0.568c0.436,0.323,0.434,0.568,0.537,0.821c2.278,0.622,4.583,1.122,6.811,1.92
					c0.227,0.081,0.419,0.191,0.621,0.295c7.612,2.037,15.301,3.891,23.03,5.444c1.778,0.138,3.549,0.352,5.313,0.622
					c3.185-1.059,8.436-4.139,11.26-6.929c0.296-0.291-0.318-0.929,0.201-1.441c0.516-0.513,1.091,0.341,1.625-0.051
					c0.532-0.392,3.616-3.501,5.081-5.663c0.215-0.316-0.627-0.707-0.099-1.345c0.527-0.637,1.052-0.164,1.377-0.56
					c0.324-0.397,3.769-7.044,4.131-14.041C393.456,324.695,391.113,319.9,387.19,313.872z"/>
				<path fill-rule="evenodd" clip-rule="evenodd" fill="#D95D1E" d="M365.75,361.23c6.348-1.218,11.382-4.345,10.157-6.686
					c-1.844-3.52-16.331-5.845-20.716-6.46c-12.787-1.787-18.61,0.999-18.141,3.567c0.194,1.063,1.798,2.54,4.283,4.054
					c7.535,2.026,15.146,3.853,22.797,5.391C364.67,361.138,365.211,361.174,365.75,361.23z"/>
				<path fill-rule="evenodd" clip-rule="evenodd" fill="#A1BC30" d="M378.102,301.382c-0.776-0.416-1.879-0.212-2.73-0.259
					c-0.784-0.441-2.327-0.967-2.905-0.781c-0.188,1.46,0.567,3.064,0.567,3.064s-0.975,2.714-0.587,3.246
					c0.388,0.533,2.534,0.31,4.299,0.416c1.177,1.269,1.824,2.13,2.888,2.491c0.076-0.641,0.111-1.727-0.324-2.712
					c-4.805-0.155-5.705-3.647-4.776-4.489c0.926-0.844,3.473,0.524,3.936,1.018C378.505,303.114,378.359,301.461,378.102,301.382z"
					/>
				<path fill-rule="evenodd" clip-rule="evenodd" fill="#A1BC30" d="M374.967,303.01c-0.656,1.479,2.591,3.401,3.578,2.724
					C379.529,305.055,375.534,301.726,374.967,303.01z"/>
				<path fill-rule="evenodd" clip-rule="evenodd" d="M383.202,318.523c0.602,0.206,0.012,1.04,0.608,1.298
					c0.015,0.394-0.087,0.787-0.379,0.861c-0.428,0.108-0.34-0.274-0.573-0.719C382.602,319.469,382.153,318.782,383.202,318.523z"
					/>
				<path fill-rule="evenodd" clip-rule="evenodd" d="M382.938,325.143c-0.696-0.812-0.573-1.948,0.232-2.523
					c0.915,0.172,0.202,0.817,0.074,1.426C383.139,324.551,383.451,325.064,382.938,325.143z"/>
				<path fill-rule="evenodd" clip-rule="evenodd" d="M382.806,328.223c-0.453-0.278-0.084-1.241,0.151-1.373
					C383.381,327.12,383.266,328.013,382.806,328.223z"/>
				<path fill-rule="evenodd" clip-rule="evenodd" d="M382.649,330.523c-0.222,0.023-0.398-0.025-0.54-0.14
					c-0.017-0.282,0.052-0.526,0.288-0.694C382.904,329.547,382.966,330.32,382.649,330.523z"/>
				<path fill-rule="evenodd" clip-rule="evenodd" d="M381.639,331.406c0.55,0.036,0.476,0.772,0.127,0.878
					C381.282,332.435,381.115,331.662,381.639,331.406z"/>
				<path fill-rule="evenodd" clip-rule="evenodd" d="M380.505,333.988c-0.21-0.492,0.066-0.762,0.323-1.037
					C381.764,332.827,381.319,334.465,380.505,333.988z"/>
				<path fill-rule="evenodd" clip-rule="evenodd" d="M384.403,348.909c-0.362-0.017,0.328-1.424,0.7-0.987
					C385.473,348.358,384.765,348.93,384.403,348.909z"/>
				<path fill-rule="evenodd" clip-rule="evenodd" d="M379.639,335.352c-0.017-0.316,0.123-0.566,0.416-0.741
					C380.861,334.68,380.147,336.001,379.639,335.352z"/>
				<path fill-rule="evenodd" clip-rule="evenodd" d="M381.776,351.54c-0.179-0.741,0.737-1.392,1.394-1.224
					C383.827,350.48,381.958,352.281,381.776,351.54z"/>
				<path fill-rule="evenodd" clip-rule="evenodd" d="M382.49,349.149c0.078,0.427-0.496,0.832-0.985,0.745
					C381.018,349.811,382.411,348.72,382.49,349.149z"/>
				<path fill-rule="evenodd" clip-rule="evenodd" d="M379.461,351.633c-0.405-0.083,0.177-1.377,0.586-1.095
					C380.458,350.821,379.866,351.72,379.461,351.633z"/>
				<path fill-rule="evenodd" clip-rule="evenodd" d="M377.634,353.182c0.333-0.691,0.917-1.139,1.605-0.876
					C379.929,352.573,377.303,353.868,377.634,353.182z"/>
				<path fill-rule="evenodd" clip-rule="evenodd" d="M375.759,356.051c0.205-1.152,1.316-1.231,1.817-1.159
					C378.079,354.964,375.551,357.199,375.759,356.051z"/>
				<path fill-rule="evenodd" clip-rule="evenodd" d="M375.927,352.627c0.303,0.49-0.436,0.952-0.718,0.847
					C374.929,353.367,375.626,352.138,375.927,352.627z"/>
				<path fill-rule="evenodd" clip-rule="evenodd" d="M359.65,305.736c-0.275-0.365-1.063-0.282-1.64-0.028
					c-0.249-0.524,0.304-0.675,0.928-0.76c0.557-0.074,0.607,0.378,0.941,0.361c0.331-0.015,0.658-0.494,0.676-0.719
					C361.771,304.59,360.152,306.407,359.65,305.736z"/>
				<path fill-rule="evenodd" clip-rule="evenodd" d="M373.376,355.391c0.003-0.541,0.69-0.834,1.113-0.539
					C374.914,355.147,373.375,355.932,373.376,355.391z"/>
				<path fill-rule="evenodd" clip-rule="evenodd" d="M374.289,356.94c0.551,0.446-1.505,1.551-1.364,0.777
					C373.065,356.942,373.735,356.496,374.289,356.94z"/>
				<path fill-rule="evenodd" clip-rule="evenodd" d="M373.514,358.947c0.031-0.514,0.494-0.859,0.972-0.647
					C374.964,358.51,373.483,359.463,373.514,358.947z"/>
				<path fill-rule="evenodd" clip-rule="evenodd" d="M371.576,354.489c-0.434-0.17-0.593-0.757,0.002-0.976
					C372.175,353.293,372.011,354.659,371.576,354.489z"/>
				<path fill-rule="evenodd" clip-rule="evenodd" d="M371.449,356.592c0.476,0.348-0.725,1.177-0.956,0.605
					C370.316,356.762,370.972,356.242,371.449,356.592z"/>
				<path fill-rule="evenodd" clip-rule="evenodd" d="M369.53,358.595c0.387-0.664,1.466-0.804,1.843-0.129
					C371.752,359.14,369.141,359.257,369.53,358.595z"/>
				<path fill-rule="evenodd" clip-rule="evenodd" d="M370.545,354.969c0.456,0.464-1.135,0.795-1.076,0.333
					C369.528,354.841,370.088,354.508,370.545,354.969z"/>
				<path fill-rule="evenodd" clip-rule="evenodd" d="M353.867,307.045c0.241-0.513,0.956-0.913,1.441-0.643
					C355.794,306.674,353.627,307.56,353.867,307.045z"/>
				<path fill-rule="evenodd" clip-rule="evenodd" d="M367.211,356.952c0.514-0.622,1-0.675,1.676-0.358
					C369.56,356.914,366.7,357.576,367.211,356.952z"/>
				<path fill-rule="evenodd" clip-rule="evenodd" d="M365.699,359.889c0.654-1.012,2.257-1.494,3.097-0.554
					C369.639,360.275,365.043,360.901,365.699,359.889z"/>
				<path fill-rule="evenodd" clip-rule="evenodd" d="M365.935,355.189c0.338-0.439,1.087-0.174,1.104,0.312
					C367.047,355.788,365.535,355.709,365.935,355.189z"/>
				<path fill-rule="evenodd" clip-rule="evenodd" d="M352.249,307.558c-0.046,0.717-0.372,0.486-1.019,0.622
					c-0.474,0.102-0.854,0.974-1.374,0.624C349.953,308.078,351.533,307.688,352.249,307.558z"/>
				<path fill-rule="evenodd" clip-rule="evenodd" d="M364.11,356.303c0.666-0.755,1.308-0.191,1.566,0.229
					C365.934,356.953,363.448,357.052,364.11,356.303z"/>
				<path fill-rule="evenodd" clip-rule="evenodd" d="M363.377,358.181c0.289-0.702,1.189-0.713,1.845-0.1
					C365.877,358.692,363.087,358.879,363.377,358.181z"/>
				<path fill-rule="evenodd" clip-rule="evenodd" d="M362.587,360.4c0.588-0.7,1.231-0.569,1.849,0.004
					C365.054,360.977,361.995,361.1,362.587,360.4z"/>
				<path fill-rule="evenodd" clip-rule="evenodd" d="M361.209,355.151c0.476-0.859,2.218-0.554,1.314,0.127
					C362.187,355.533,361.429,355.499,361.209,355.151z"/>
				<path fill-rule="evenodd" clip-rule="evenodd" d="M362.193,356.942c0.26,0.384-1.549,0.857-1.202,0.21
					C361.336,356.503,361.936,356.56,362.193,356.942z"/>
				<path fill-rule="evenodd" clip-rule="evenodd" d="M360.373,358.631c0.403-0.516,1.258-0.216,1.454,0.46
					C362.024,359.768,359.969,359.149,360.373,358.631z"/>
				<path fill-rule="evenodd" clip-rule="evenodd" d="M357.908,357.279c0.528-0.639,1.116-0.431,1.473-0.034
					C359.736,357.638,357.38,357.914,357.908,357.279z"/>
				<path fill-rule="evenodd" clip-rule="evenodd" d="M356.169,355.484c-0.36-0.533,1.633-0.373,1.227,0.11
					C356.989,356.074,356.529,356.019,356.169,355.484z"/>
				<path fill-rule="evenodd" clip-rule="evenodd" d="M342.779,312.635c-0.305,0.76-1.114,1.825-2.194,1.901
					C340.92,313.781,341.837,312.776,342.779,312.635z"/>
				<path fill-rule="evenodd" clip-rule="evenodd" d="M355.232,356.409c0.205,0.467-1.341,0.382-1.053-0.079
					C354.47,355.871,355.028,355.941,355.232,356.409z"/>
				<path fill-rule="evenodd" clip-rule="evenodd" d="M354.984,357.719c-0.291-0.603,1.82-0.153,1.478,0.189
					C355.89,358.478,355.277,358.327,354.984,357.719z"/>
				<path fill-rule="evenodd" clip-rule="evenodd" d="M351.354,355.684c0.43-0.531,0.807-0.857,1.423-0.238
					C353.389,356.061,350.923,356.214,351.354,355.684z"/>
				<path fill-rule="evenodd" clip-rule="evenodd" d="M348.978,355.786c0.497,0.598-2.249,1.101-1.84,0.276
					C347.546,355.238,348.477,355.192,348.978,355.786z"/>
				<path fill-rule="evenodd" clip-rule="evenodd" d="M334.731,321.232c-0.744-0.664,0.264-1.23,0.656-1.816
					c0.349-0.52,0.237-1.218,0.968-1.267c0.728-0.047,0.037,0.569-0.344,0.98C335.63,319.539,335.57,320.596,334.731,321.232z"/>
				<path fill-rule="evenodd" clip-rule="evenodd" fill="#D95D1E" d="M320.192,324.682c0.214-2.068,2.27-3.254,4.496-1.023
					c2.227,2.232,5.45,9.293,6.428,14.557c0.976,5.266,0.632,11.289-1.124,10.617c-1.752-0.673-6.47-9.072-7.97-13.001
					C320.523,331.904,319.837,328.117,320.192,324.682z"/>
				<path fill-rule="evenodd" clip-rule="evenodd" d="M343.505,354.387c0.798-0.618,1.518-0.093,1.706,0.223
					C345.398,354.926,342.705,355.001,343.505,354.387z"/>
				<path fill-rule="evenodd" clip-rule="evenodd" d="M331.335,325.734c-0.164-0.615,0.812-1.933,1.049-2.257
					C333.126,323.326,332.096,325.563,331.335,325.734z"/>
				<path fill-rule="evenodd" clip-rule="evenodd" d="M337.818,353.556c-0.445-0.017-1.123-0.503-1.071-1.212
					C336.802,351.633,338.264,353.573,337.818,353.556z"/>
				<path fill-rule="evenodd" clip-rule="evenodd" d="M330.851,349.185c0.729-0.231,1.663,0.989,1.388,1.733
					C331.666,350.836,330.677,349.788,330.851,349.185z"/>
				<path fill-rule="evenodd" clip-rule="evenodd" d="M328.311,347.386c-0.655,0.023-1.769-1.182-1.042-1.806
					C327.845,345.678,328.484,346.826,328.311,347.386z"/>
				<path fill-rule="evenodd" clip-rule="evenodd" fill="#FF9514" d="M368.738,327.688c3.776-1.455,7.311-4.585,9.176-8.23
					c-0.76-3.645-2.774-6.403-4.684-7.924c3.418,5.221,2.291,9.28-1.322,11.917c-5.089,3.713-12.153,1.74-15.595-2.052
					c-1.886-2.075-3.171-6.828-1.342-9.766c-0.335,0.166-0.667,0.339-1.001,0.518c-1.919,2.709-1.1,7.415-0.108,9.844
					C356.042,327.315,362.723,330.006,368.738,327.688z"/>
				<path fill-rule="evenodd" clip-rule="evenodd" fill="#FF9514" d="M354.933,316.474c0.29,2.296,1.258,4.235,3.115,5.663
					c4.036,3.102,13.757,4.373,16.164-3.244c0.877-2.784-0.311-5.542-1.992-8.058c-4.5-2.711-10.298-2.293-15.9,0.163
					C354.806,312.36,354.712,314.736,354.933,316.474z"/>
				<path fill-rule="evenodd" clip-rule="evenodd" fill="#FF9514" d="M377.906,324.111c0.677-1.108,0.322-2.684,0.174-3.713
					c-2.37,4.093-6.686,7.701-11.27,8.438c-6.024,0.97-11.969-1.532-13.756-7.104c-0.749-2.331-1.423-6.187-0.171-8.96
					c-0.137,0.083-1.009,0.252-1.569,1.19c-1.709,2.852-1.965,8.374,1.182,11.996c1.609,1.852,3.695,3.484,6.003,4.519
					c2.576,1.152,5.452,1.052,8.34,0.533C371.879,330.105,376.434,326.53,377.906,324.111z"/>
				<path fill-rule="evenodd" clip-rule="evenodd" fill="#FF9514" d="M377.845,325.238c-3.406,3.933-7.828,6.191-13.067,6.683
					c-5.466,0.509-10.389-2.137-13.346-6.217c-2.442-3.369-2.506-7.867-1.014-11.001c-5.894,5.094-4.405,15.713,5.091,19.659
					C365.442,338.488,377.267,331.741,377.845,325.238z"/>
				<path fill-rule="evenodd" clip-rule="evenodd" fill="#FF9514" d="M388.42,327.933c1.612-1.746,2.101-3.575,1.991-4.835
					c-0.111-1.26-1.329-3.959-1.828-4.695c-2.294-3.382-1.428,4.63-2.84,11.228C386.715,329.341,387.634,328.783,388.42,327.933z"/>
				<path fill-rule="evenodd" clip-rule="evenodd" fill="#FF9514" d="M385.589,330.313c-0.135,0.55-0.284,1.084-0.457,1.602
					c-0.436,1.307-0.889,2.548-1.353,3.721c0.233-0.032,0.464-0.072,0.695-0.117c1.958-0.388,4.042-1.19,5.32-2.835
					c0.91-1.173,1.429-2.535,1.616-3.919c-0.101-1.377-0.317-2.758-0.599-4.052c-0.363,1.517-1.119,2.939-2.469,4.133
					C387.499,329.585,386.559,330.065,385.589,330.313z"/>
				<path fill-rule="evenodd" clip-rule="evenodd" fill="#FF9514" d="M385.711,335.866c-0.726,0.185-1.455,0.318-2.189,0.414
					c-0.891,2.196-1.817,4.15-2.736,5.845c2.32-0.471,4.824-1.16,6.733-2.557c1.298-0.946,2.692-2.643,3.248-3.898
					c0.558-1.256,0.627-2.919,0.688-4.767C390.504,333.215,388.571,335.121,385.711,335.866z"/>
				<path fill-rule="evenodd" clip-rule="evenodd" fill="#FF9514" d="M386.594,342.81c2.242-2.096,2.712-3.634,3.283-4.816
					c-2.945,3.522-6.53,4.256-9.294,4.801c-0.062,0.013-0.128,0.025-0.191,0.036c-0.899,1.585-1.792,2.922-2.639,3.987
					C375.373,349.807,381.594,347.481,386.594,342.81z"/>
				<path fill-rule="evenodd" clip-rule="evenodd" fill="#FF9514" d="M344.843,297.428c-0.957,1.018-1.72,2.262-1.922,3.615
					c-0.345,2.31,0.439,3.59,3.357,5.094c2.157-1.02,4.666-2.09,7.171-2.915c-0.9-0.505-1.703-1.116-2.296-1.859
					c-1.325-1.672-1.146-4.222,0.903-5.61c0.554-0.375,1.135-0.632,1.735-0.812C349.571,294.124,345.938,296.263,344.843,297.428z"
					/>
				<path fill-rule="evenodd" clip-rule="evenodd" fill="#FF9514" d="M336.316,301.225c-0.619,1.555-0.692,3.225-0.172,4.706
					c0.668,1.92,2.119,3.049,4.169,3.318c0.329-0.204,3.326-1.856,4.938-2.637c-0.502-0.221-0.971-0.509-1.396-0.876
					c-1.833-1.589-2.171-3.755-1.283-6.114c0.731-1.945,2.106-2.99,3.725-3.8c-2.117,0.514-5.381,1.473-6.928,2.378
					C337.82,299.106,336.833,299.923,336.316,301.225z"/>
				<path fill-rule="evenodd" clip-rule="evenodd" fill="#FF9514" d="M331.726,316.677c1.119-1.464,3.552-4.36,7.398-6.898
					c-0.231-0.061-0.459-0.131-0.681-0.217c-2.203-0.84-3.24-2.983-3.458-5.259c-0.196-2.083,0.503-3.562,1.732-4.837
					C325.186,306.067,330.51,318.27,331.726,316.677z"/>
				<path fill-rule="evenodd" clip-rule="evenodd" fill="#FF9514" d="M352.5,296.201c-3.063,2.476-0.571,5.487,1.827,6.59
					c5.317-1.5,11.849-3.29,11.178-4.006c-1.271-1.36-5.166-3.167-8.846-3.586C355.011,295.009,353.642,295.28,352.5,296.201z"/>
				<path fill-rule="evenodd" clip-rule="evenodd" fill="#80AD37" d="M376.612,304.104c0.349,0.267,1.768,1.373,1.316,1.456
					c-0.451,0.089-2.129-0.516-2.631-1.449C374.795,303.179,375.577,303.328,376.612,304.104z"/>
				<path fill-rule="evenodd" clip-rule="evenodd" fill="#80AD37" d="M376.504,306.842l-1.564-1.218c0,0-0.627,0.299-1.225,0.437
					c-0.595,0.132-0.87,0.142-0.87,0.142s-0.117,0.206,0.091,0.301c0.205,0.091,1.083,0.223,1.91,0.263
					C375.675,306.807,376.504,306.842,376.504,306.842z"/>
				<path fill-rule="evenodd" clip-rule="evenodd" fill="#80AD37" d="M379.221,306.933c0,0,0.306,0.741,0.331,1.419
					c0.025,0.673-0.069,0.95-0.069,0.95s-0.771-1.095-1.037-1.649c-0.269-0.552-0.34-0.785-0.34-0.785s0.338,0.064,0.621,0.076
					C379.008,306.956,379.221,306.933,379.221,306.933z"/>
				<path fill-rule="evenodd" clip-rule="evenodd" fill="#80AD37" d="M375.414,301.996c0,0,0.598-0.066,1.319,0.214
					c0.723,0.282,1.595,0.861,1.595,0.861s-0.11-1.351-0.295-1.506C377.544,301.157,375.414,301.996,375.414,301.996z"/>
			</g>
		</g>
		<g>
			<path fill-rule="evenodd" clip-rule="evenodd" d="M417.159,298.456c-1.864,0.308-4.434,1.248-6.312,1.893
				c-3.775,1.29-6.948,2.658-9.926,4.466c-4,2.427-6.735,5.595-8.947,9.077c-1.519,2.395-2.217,4.742-2.997,7.672
				c-0.728,2.731-1.398,5.875-1.364,8.565c0.007,0.645,0.081,1.33,0.098,2.013c0.015,0.651-0.03,1.326,0.017,1.965
				c0.062,0.834,0.372,1.619,0.489,2.436c0.101,0.709-0.052,1.4,0.114,2.073c0.147,0.585,0.427,1.239,0.741,1.78
				c0.341,0.59,1.021,0.847,1.299,1.502c0.25,0.588,0.021,1.271,0.248,1.774c0.371,0.828,1.351,0.713,1.629,1.421
				c0.208,0.526-0.062,0.772,0.234,1.451c0.31,0.704,0.792,1.328,1.148,2.003c0.371,0.698,0.644,1.428,1.084,2.018
				c0.398,0.539,1.004,0.995,1.513,1.515c0.507,0.522,0.948,1.126,1.463,1.593c2.034,1.852,4.632,3.021,7.233,4.11
				c0.644,0.27,1.354,0.448,2.01,0.73c0.667,0.282,1.234,0.721,1.846,0.9c0.952,0.284,2.126,0.528,3.178,0.626
				c1.093,0.104,2.231,0.329,3.311,0.327c1.037,0,2.332-0.149,3.659-0.221c4.207-0.233,8.46-1.604,13.177-3.011
				c1.215-0.361,2.459-0.751,3.619-1.195c0.536-0.208,1.035-0.539,1.564-0.732c4.814-1.79,9.374-4.46,11.675-7.746
				c1.07-1.528,1.821-3.414,2.289-5.257c0.495-1.939,0.502-4.073,0.331-6.327c-0.119-1.515-0.584-3.098-0.8-4.721
				c-0.214-1.587-0.58-3.191-0.997-4.67c-0.866-3.087-1.928-6.068-3.326-8.535c-2.462-4.349-5.102-8.213-8.371-11.238
				c-4.289-3.966-8.884-6.096-11.085-6.796c-1.356-0.431-3.033-0.952-4.517-1.197C421.939,298.629,419.035,298.143,417.159,298.456z
				"/>
			<path fill-rule="evenodd" clip-rule="evenodd" fill="#F8E5A6" d="M429.022,301.762c3.171,1.419,6.369,3.518,8.695,5.966
				c0.819,0.864,3.219,3.747,3.558,4.271c0.348,0.537,1.805,2.427,2.046,2.756c0.609,0.842,1.072,2.022,1.647,3.127
				c1.63,3.125,3.378,6.683,4.295,10.647c2.188,9.473,2.103,17.89-5.654,21.823c-4.399,2.236-10.607,0.605-13.495-0.389
				c-2.524-0.864-4.063-1.85-6.125-3.344c-3.092-2.241-5.904-5.347-8.147-8.735c-1.559-2.359-3.071-4.693-4.184-7.789
				c-0.551-1.536-1.091-3.138-1.52-4.795c-0.434-1.682-0.564-3.185-0.799-4.723c-0.071-0.467-0.23-0.637-0.35-1.354
				c-0.112-0.675,0.059-1.373,0.032-2.045c-0.065-1.615-0.15-2.862,0.116-4.169c0.077-0.373,0.247-0.709,0.354-1.078
				c0.122-0.42,0.018-0.806,0.108-1.209c0.101-0.456,0.451-1.001,0.636-1.61c0.165-0.547,0.464-1.065,0.637-1.61
				c0.826-2.593,1.997-4.791,3.906-6.592c0.788-0.741,1.972-1.379,3.243-1.561C421.888,298.796,426.932,300.826,429.022,301.762z"/>
			<path fill-rule="evenodd" clip-rule="evenodd" fill="#E3770D" d="M397.905,351.515c-0.224-0.274-0.667-0.354-0.915-0.552
				c-0.419-0.331-0.796-0.776-1.155-1.213c-0.383-0.464-0.507-1.003-0.856-1.683c-0.392-0.772-1.17-1.358-1.607-2.147
				c-0.2-0.365-0.284-0.795-0.498-1.118c-0.369-0.558-1.016-0.842-1.252-1.322c-0.245-0.486-0.239-1.095-0.479-1.581
				c-0.618-1.258-1.479-2.17-1.861-3.397c-0.234-0.76-0.482-1.689-0.52-2.559c-0.018-0.42,0.156-0.823,0.093-1.273
				c-0.119-0.834-0.407-1.551-0.375-2.266c0.156-3.751,0.318-7.161,1.197-10.296c1.299-4.634,3.718-9.944,6.579-12.613
				c2.861-2.665,6.181-4.769,6.864-5.115c5.529-2.809,10.557-3.961,10.566-3.917c-1.292,1.617-2.605,3.634-3.345,5.533
				c-0.607,1.559-0.958,2.998-1.382,4.695c-0.455,1.816-0.919,3.602-0.866,5.61c0.015,0.581,0.218,1.171,0.248,1.776
				c0.024,0.484-0.171,0.889-0.077,1.33c0.043,0.197,0.185,0.384,0.227,0.601c0.18,0.987,0.191,2.189,0.352,2.998
				c0.414,2.075,1.65,5.743,2.318,7.612c0.674,1.897,1.639,3.709,2.613,5.236c0.316,0.495,2.154,3.39,2.661,4.127
				c0.767,1.116,3.786,4.494,3.992,4.799c0.606,0.893,5.982,5.12,8.317,5.868c1.08,0.344,2.086,0.921,3.108,1.167
				c1.697,0.407,3.493,0.73,5.258,0.808c0.598,0.028,1.264-0.1,1.803,0.193c-1.55,1.199-3.738,1.687-5.925,2.578
				c-1.248,0.514-2.563,1.046-3.833,1.455c-4.373,1.398-8.118,1.57-11.79,1.861c-2.578,0.206-4.985,0.064-6.983-0.431
				c-0.273-0.117-0.235-0.726-0.602-0.696c-0.47,0.191-0.938,0.391-1.446,0.11c-0.295-0.371-0.379-1.076-0.908-1.078
				c-0.456,0.066-0.486,0.528-0.938,0.439c-0.479-0.407-0.315-1.052-0.978-1.061c-0.285-0.006-0.486,0.304-0.756,0.325
				c-0.707,0.059-1.394-0.745-1.531-1.311c-0.294-0.055-0.663,0.238-1.019,0.131c-0.531-0.159-0.359-0.95-0.727-1.192
				c-0.331-0.219-1.103,0.093-1.344-0.047c-0.489-0.28-0.058-0.895-0.399-1.275c-0.259-0.206-0.835,0.102-1.132-0.036
				C398.164,352.417,398.18,351.856,397.905,351.515z"/>
			<path fill-rule="evenodd" clip-rule="evenodd" d="M410.998,336.506c-0.341-0.376-0.902,0.023-0.824,0.346
				C410.279,337.276,411.177,337.181,410.998,336.506z"/>
			<path fill-rule="evenodd" clip-rule="evenodd" d="M411.921,337.907c0.214,0.564,1.166,0.112,1.021-0.393
				C412.617,337.136,412.204,337.673,411.921,337.907z"/>
			<path fill-rule="evenodd" clip-rule="evenodd" d="M408.247,339.973c0.074,0.263,0.256,0.352,0.557,0.252
				c0.047-0.076,0.096-0.155,0.149-0.235C408.845,339.585,408.294,339.583,408.247,339.973z"/>
			<path fill-rule="evenodd" clip-rule="evenodd" d="M411.262,340.51c0.057-0.252-0.11-0.624,0.234-0.715
				c0.253,0.064,0.247,0.535,0.553,0.513c0.277-0.11,0.377-0.271,0.382-0.426C412.46,338.38,409.476,340.041,411.262,340.51z"/>
			<path fill-rule="evenodd" clip-rule="evenodd" d="M414.039,339.595c0.046,0.448,0.568,0.146,0.737,0.403
				c0.081,0.571-0.91,0.193-0.989,0.516c0.185,0.639,1.634,0.269,1.757-0.255C415.477,339.423,414.442,338.821,414.039,339.595z"/>
			<path fill-rule="evenodd" clip-rule="evenodd" d="M407.584,342.839c-0.178,0.231-0.121,0.594,0.226,0.6
				C408.308,343.325,408.14,342.604,407.584,342.839z"/>
			<path fill-rule="evenodd" clip-rule="evenodd" d="M410.576,342.199c-0.43,0.083-0.582,0.318-0.613,0.618
				C410.37,343.312,411.286,342.445,410.576,342.199z"/>
			<path fill-rule="evenodd" clip-rule="evenodd" d="M415.628,341.946c0.222,0.227,0.577,0.246,0.816,0.446
				C417.701,341.912,415.753,340.926,415.628,341.946z"/>
			<path fill-rule="evenodd" clip-rule="evenodd" d="M412.734,342.691c0.045,0.484,0.516,0.287,0.802,0.386
				c0.358,0.62-0.439,0.607-0.678,0.898C414.649,345.26,414.438,341.244,412.734,342.691z"/>
			<path fill-rule="evenodd" clip-rule="evenodd" fill="#D95D1E" d="M393.308,339.245c-0.799-0.558-0.319,2.385,0.518,3.808
				c3.562,6.085,7.384,8.839,8.942,9.74c3.02,1.735,6.727,2.966,7.241,3.6c0.515,0.634,5.053,0.558,7.185,0.662
				c2.132,0.108,7.907-1.053,9.962-1.697c2.056-0.637,4.935-1.81,3.189-2.135c-1.743-0.325-11.325-1.528-20.952-5.001
				C398.98,344.46,395.592,340.847,393.308,339.245z"/>
			<path fill-rule="evenodd" clip-rule="evenodd" d="M408.716,345.046c0.2,0.172,0.595,0.042,0.917,0.025
				C410.209,344.259,408.524,344.193,408.716,345.046z"/>
			<path fill-rule="evenodd" clip-rule="evenodd" d="M415.898,345.162c0.307-0.18-0.215-0.777,0.238-0.982
				c0.662-0.123,0.819,0.556,1.158,0.948c0.249-0.019,0.339-0.131,0.428-0.242c-0.368-0.762-1.054-1.443-1.961-1.067
				C415.594,344.098,415.474,344.899,415.898,345.162z"/>
			<path fill-rule="evenodd" clip-rule="evenodd" d="M411.45,347.755c0.154-0.369-0.601-0.826-0.155-1.142
				c0.46-0.176,0.501,0.31,0.95,0.147c0.013-0.096,0.065-0.174,0.149-0.234c-0.188-0.628-0.826-0.547-1.505-0.399
				C410.398,346.537,410.78,347.745,411.45,347.755z"/>
			<path fill-rule="evenodd" clip-rule="evenodd" d="M414.442,346.851c0.202,0.346,0.927-0.134,1.064,0.316
				c0.176,0.486-0.773,0.356-0.876,0.687c0.246,0.282,0.949,0.183,1.329-0.015C416.634,346.945,414.68,345.476,414.442,346.851z"/>
			<path fill-rule="evenodd" clip-rule="evenodd" d="M408.191,348.99c0.355-0.195,0.816-0.25,1.25-0.323
				c0.072-0.1-0.005-0.282-0.047-0.446C408.864,347.927,407.874,348.525,408.191,348.99z"/>
			<path fill-rule="evenodd" clip-rule="evenodd" d="M419.043,347.568c0.141-0.17-0.01-0.501,0.103-0.685
				c0.333-0.117,0.456,0.093,0.824-0.079c0.045-0.102,0.06-0.216,0.133-0.297C419.454,345.445,417.559,347.29,419.043,347.568z"/>
			<path fill-rule="evenodd" clip-rule="evenodd" d="M412.117,350.341c0.098,0.221-0.068,0.435,0.144,0.554
				c1.732-0.653-1.19-2.003-0.782-0.847C411.584,350.335,411.817,350.216,412.117,350.341z"/>
			<path fill-rule="evenodd" clip-rule="evenodd" d="M416.036,350.579c0.111,0.289-0.304,0.291-0.448,0.445
				c0.446,0.685,1.125,0.019,1.088-0.414c-0.065-0.753-1.745-1.169-1.507-0.399C415.313,350.672,415.678,350.261,416.036,350.579z"
				/>
			<path fill-rule="evenodd" clip-rule="evenodd" d="M404.55,353.083c0.029,0.242,0.128,0.38,0.308,0.382
				c0.255-0.04,0.266-0.208,0.329-0.35C405.149,352.769,404.655,352.834,404.55,353.083z"/>
			<path fill-rule="evenodd" clip-rule="evenodd" d="M407.509,352.321c0.029,0.07,0.013,0.113-0.034,0.14
				c0.029,0.505,0.702,0.399,0.705,0.015C408.118,352.141,407.754,352.113,407.509,352.321z"/>
			<path fill-rule="evenodd" clip-rule="evenodd" d="M420.187,350.358c0.449-0.961-1.205-0.573-1.083-0.115
				C419.186,350.549,419.807,350.333,420.187,350.358z"/>
			<path fill-rule="evenodd" clip-rule="evenodd" d="M408.316,353.821c0.498,0.953,2.099-0.412,1.041-0.861
				C408.979,353.299,408.805,353.656,408.316,353.821z"/>
			<path fill-rule="evenodd" clip-rule="evenodd" d="M422.71,350.628c0.359-0.068,0.237-0.399,0.578-0.477
				c0.378-0.049,0.5,0.308,0.801,0.382c0.155-0.072,0.194-0.208,0.264-0.329C424.139,349.151,422.186,349.692,422.71,350.628z"/>
			<path fill-rule="evenodd" clip-rule="evenodd" d="M406.321,355.323c-0.388,0.087-0.434-0.355-0.835-0.246
				c0.275,1.288,2.149,0.592,1.806-0.337c-0.129-0.348-0.442-0.411-0.687-0.218C406.359,354.718,406.655,355.202,406.321,355.323z"
				/>
			<path fill-rule="evenodd" clip-rule="evenodd" d="M412.607,354.682c0.305-0.062-0.132-0.53,0.038-0.666
				c0.324-0.136,0.341,0.214,0.605,0.172c0.874-0.516-0.581-1.269-1.078-0.641C412.05,353.887,412.247,354.598,412.607,354.682z"/>
			<path fill-rule="evenodd" clip-rule="evenodd" d="M418.599,353.987c0.115-0.148,0.022-0.41,0.135-0.56
				c0.369-0.091,0.352,0.431,0.719,0.341c0.224,0,0.096-0.197,0.217-0.252c-0.238-0.566-0.875-0.98-1.457-0.478
				C418.058,353.303,418.096,354.092,418.599,353.987z"/>
			<path fill-rule="evenodd" clip-rule="evenodd" d="M409.591,356.579c0.713,1.097,2.005-0.961,0.776-0.793
				C410.02,355.836,409.857,356.522,409.591,356.579z"/>
			<path fill-rule="evenodd" clip-rule="evenodd" d="M422.209,353.581c0.301-0.312,1.222-0.138,1.302-0.664
				C423.145,352.209,421.789,352.991,422.209,353.581z"/>
			<path fill-rule="evenodd" clip-rule="evenodd" d="M425.022,352.79c0.326,0.335,1.044,0.089,0.902-0.303
				C425.789,352.105,425.031,352.236,425.022,352.79z"/>
			<path fill-rule="evenodd" clip-rule="evenodd" d="M415.27,356.03c0.431-0.047,0.284-0.41,0.643-0.492
				c0.344-0.112,0.31,0.376,0.638,0.293c0.385-0.144-0.039-0.724-0.157-0.88C415.71,354.67,415.189,355.416,415.27,356.03z"/>
			<path fill-rule="evenodd" clip-rule="evenodd" d="M427.361,353.698c0.064-0.015,0.068,0.06,0.097,0.106
				c0.357,0.036,1.057-0.151,1.068-0.475C428.341,352.705,427.193,353.119,427.361,353.698z"/>
			<path fill-rule="evenodd" clip-rule="evenodd" d="M419.42,355.813c0.49-0.289,0.966-0.178,1.362,0.11
				C421.639,354.939,419.199,354.676,419.42,355.813z"/>
			<path fill-rule="evenodd" clip-rule="evenodd" d="M413.374,357.112c0.163,0.67,1.703,1.099,1.543-0.004
				c-0.224-0.093-0.359-0.131-0.624,0.03C413.966,357.148,413.52,356.6,413.374,357.112z"/>
			<path fill-rule="evenodd" clip-rule="evenodd" d="M431.321,352.739c0.099,0.898,1.322,1.593,1.716,0.675
				c-0.33-0.494-1.271-0.019-1.454-0.743C431.497,352.694,431.407,352.716,431.321,352.739z"/>
			<path fill-rule="evenodd" clip-rule="evenodd" d="M425.315,355.011C426.384,353.95,424.114,354.407,425.315,355.011
				L425.315,355.011z"/>
			<path fill-rule="evenodd" clip-rule="evenodd" d="M423.982,355.554c0.223,0.24,0.445,1.199,1.007,1.184
				C425.232,356.121,424.443,355.342,423.982,355.554z"/>
			<path fill-rule="evenodd" clip-rule="evenodd" d="M417.425,357.315c-0.145,0.967,2.276,1.194,1.983,0.079
				c-0.686,0.187-1.451,0.358-1.803-0.191C417.494,357.212,417.508,357.288,417.425,357.315z"/>
			<path fill-rule="evenodd" clip-rule="evenodd" d="M422.033,357.241c-0.496,0.087-0.676-0.32-1.178-0.221
				c-0.233,1.156,2.589,1.241,2.021-0.327C422.399,356.344,422.215,356.972,422.033,357.241z"/>
			<path fill-rule="evenodd" clip-rule="evenodd" d="M430.006,354.983c0.327,0.53,1.553,0.409,1.428-0.17
				C431.291,354.146,430.466,354.912,430.006,354.983z"/>
			<path fill-rule="evenodd" clip-rule="evenodd" d="M426.011,356.08c0.375,0.7,1.944,0.694,2.119-0.216
				c-0.198-0.513-0.663-0.301-0.82,0.08C426.756,356.221,426.402,355.777,426.011,356.08z"/>
			<path fill-rule="evenodd" clip-rule="evenodd" d="M416.8,330.999c-0.585,2.315,0.26,5.775,1.691,7.642
				c2.215,2.892,4.953,4.752,6.986,4.506c4.27,7.006,11.229,6.002,12.359,4.952c1.631,0.641,4.521-0.03,6.754-2.005
				c2.23-1.975,2.682-3.827,1.479-6.295c2.982-3.132,2.691-6.759,0.577-10.53c0.644-1.141,0.571-2.455-0.111-4.504
				c-0.683-2.045-2.118-4.318-3.404-5.032c0.054-2.179-1.664-4.984-2.886-6.286c-1.221-1.301-2.53-2.429-4.443-2.531
				c-0.015-0.846-0.803-2.735-2.436-4.562c-0.875-0.978-6.016-5.457-7.27-3.967c-1.367-1.275-2.894-2.332-5.15-2.022
				c-1.24,0.17-2.394,0.878-3.194,1.483c-1.921,1.46-3.04,3.371-2.729,5.673c-1.86,2.294-3.453,6.39-2.596,10.088
				c0.083,0.365,0.18,0.569,0.421,0.814c-0.733,1.763-1.006,4.07-0.527,6.378C412.925,327.706,415.057,329.785,416.8,330.999z"/>
			<path fill-rule="evenodd" clip-rule="evenodd" fill="#DC9619" d="M441.109,336.875c0.627,0.518,1.459,1.029,2.197,1.733
				c1.098,1.04,2.196,1.456,2.47,3.042c0.303,1.752-0.811,3.009-2.129,3.966c-0.837,0.605-1.725,1.273-2.871,1.659
				c-1.564,0.53-2.053-0.104-3.097-0.318c-0.361,0.269-0.247,0.56-0.644,0.762c-0.593,0.291-2.028,0.246-2.609,0.212
				c-1.744-0.11-3.625-0.707-4.99-1.668c-1.244-0.874-2.07-2.402-2.94-3.513c-0.174-1.01,0.381-1.625,0.399-2.531
				c-0.686,0.545-0.499,1.852-1.413,2.137c-0.641,0.202-3.064-1.078-3.555-1.557c-1.047-1.014-2.428-2.54-3.075-4.023
				c-0.882-2.018-1.273-4.6-0.312-5.83c0.407-0.528,2.946-2.045,3.136-2.784c-1.413,0.815-2.517,1.801-4.201,2.467
				c-0.633-0.393-2.608-2.173-3.719-4.907c-1.109-2.739-0.504-5.824-0.097-6.477c1.299,0.497,4.323,2.075,4.467,1.691
				c0.143-0.386-3.124-1.545-4.572-2.501c-0.119-0.301-0.256-1.742-0.258-2.362c-0.008-1.282,0.356-2.745,0.736-3.935
				c0.396-1.25,0.956-2.544,1.947-3.327c0.92,0.978,1.488,2.162,2.303,3.216c1.97,2.552,4.067,5.016,6.137,7.477
				c0.712,0.849,1.686,1.419,1.405,2.726c-1.602,0.592-2.763-0.259-4.146-0.308c1.083,1.152,4.235,0.811,4.884,2.351
				c0.162,0.378,0.154,0.781-0.008,1.055c-0.272,0.456-2.284,0.747-2.193,1.286c1.418-0.259,3.995-0.545,4.735,0.244
				c1.336,1.428-1.204,8.841-1.056,9.647c1.142-2.173,1.957-6.163,2.532-7.023c1.082-1.623,2.376,0.426,3.049,2.404
				c0.673,1.979,1.974,6.242,2.604,8.614c0.133-2.16-0.889-4.379-1.424-6.592c-0.255-1.067-1.736-4.897-1.299-5.58
				c0.437-0.679,4.144,0.055,6.332-0.189c-1.317-0.484-3.201-0.388-4.682-0.762c-0.321-0.079-1.591-0.199-1.967-0.28
				c-0.635-0.136-1.466-0.458-1.566-0.91c-0.169-0.747,1.303-1.825,1.954-2.213c0.843-0.501,2.388-1.101,3.554-1.706
				c1.245-0.643,2.785-0.664,3.968-1.116c0.547-0.208,0.952-0.76,1.493-0.817c0.695-0.079,1.403,0.948,1.839,1.693
				c0.879,1.483,2.857,4.82,1.395,7.277c0.057,0.238,1.801,2.442,1.794,4.447c-0.007,2.003-0.75,4.275-2.554,5.652
				c-1.425-1.035-2.807-2.137-4.209-3.252c-1.427-1.133-5.424-5.138-5.991-5.283C435.153,331.565,439.598,335.628,441.109,336.875z"
				/>
			<path fill-rule="evenodd" clip-rule="evenodd" fill="#E8B50F" d="M425.126,302.967c0.295,0.577,0.125,1.583,0.196,2.116
				c0.12,0.889,0.541,1.873,0.667,2.849c0.051,0.386-0.066,0.967-0.012,1.58c0.072,0.826,0.43,2.151,0.5,3.026
				c0.068,0.864-0.025,2.612,0.069,3.791c0.061,0.806,0.746,3.857-0.009,4.05c-0.758,0.197-2.659-2.143-3.037-2.542
				c-0.369-0.38-2.398-3.017-3.118-3.923c-0.751-0.944-1.444-1.725-2.08-2.616c-0.668-0.938-2.269-3.806-2.34-4.057
				c-0.071-0.259-0.338-3.651,3.395-5.446C423.086,299.997,424.928,302.573,425.126,302.967z"/>
			<path fill-rule="evenodd" clip-rule="evenodd" fill="#DC9619" d="M430.786,304.788c1.21,1.033,2.466,1.962,3.344,3.465
				c0.404,0.688,0.81,1.661,0.922,2.461c0.105,0.743-0.319,1.14-0.604,1.733c-1.084,2.257-2.122,4.193-3.283,6.301
				c-0.474,0.866-0.634,2.015-1.153,2.599c-1.933,2.189-2.464-1.086-2.875-3.267c-0.252-1.335-0.244-2.769-0.262-4.267
				c-0.015-1.502-0.41-3.021-0.521-4.462c-0.032-0.429,0.085-1.126,0.029-1.519c-0.27-1.91-1.084-3.942,0.154-4.835
				C427.353,302.146,430.22,304.304,430.786,304.788z"/>
			<path fill-rule="evenodd" clip-rule="evenodd" fill="#E8B50F" d="M433.924,314.49c0.479-0.84,0.764-1.922,1.398-2.463
				c1.14-0.986,2.323-0.108,2.98,0.412c0.363,0.286,0.826,0.503,1.109,0.764c1.063,0.97,2.722,3.246,2.91,5.292
				c0.178,1.928-1.804,2.209-3.663,2.654c-1.365,0.327-2.89,1.067-4.278,1.629c-0.532,0.217-1.249,0.53-2.007,0.914
				c-0.457,0.231-1.449,0.963-1.876,0.88c-1.028-0.199-0.213-2.603-0.042-3.142c0.546-1.729,1.299-3.045,1.973-4.585
				C433.022,316.153,433.433,315.345,433.924,314.49z"/>
			<path fill-rule="evenodd" clip-rule="evenodd" fill="#F8E5A6" d="M426.441,321.086c0.274,0.155,0.566,0.191,0.754-0.064
				c0.315,1.108,1.031,2.624,2.166,1.873c0.103,1.337,0.254,2.849,2.515,1.585c-2.108,2.016-0.343,2.626,1.195,3.242
				c-0.805,0.172-0.62,0.812-0.558,1.127c-0.598-0.603-1.683-0.586-2.212-0.151c-0.177-1.612-0.242-3.108-3.127-2.873
				c0.728-0.929-0.031-2.128-0.782-2.754C426.803,322.618,426.569,321.676,426.441,321.086z"/>
			<path fill-rule="evenodd" clip-rule="evenodd" fill="#E6B242" d="M422.342,319.858c-2.926-1.273-7.311-3.989-7.799-4.519
				c-0.49-0.528-0.227-1.072-0.131-1.526c0.13-0.619,0.319-1.479,0.848-1.124c0.531,0.358,5.249,4.377,8.018,6.755
				c0.458,0.558,0.796,0.976,0.934,1.159C423.582,320.371,422.955,320.127,422.342,319.858z"/>
			<path fill-rule="evenodd" clip-rule="evenodd" fill="#E6B242" d="M422.514,320.632c0.52,0.208,1.044,0.401,1.572,0.59
				c-1.474,0.178-7.702-2.321-8.397-2.809c-0.577-0.405-1.186-1.249-1.368-2.497C416.926,317.679,419.523,319.442,422.514,320.632z"
				/>
			<path fill-rule="evenodd" clip-rule="evenodd" fill="#E6B242" d="M415.375,311.797c0.601-0.605,1.266-0.615,1.535-0.187
				c0.237,0.374,2.139,2.692,3.95,4.892C419.027,314.942,417.192,313.376,415.375,311.797z"/>
			<path fill-rule="evenodd" clip-rule="evenodd" fill="#F1D07D" d="M421.653,302.382c0.777-0.166,1.435-0.072,1.827,0.386
				c0.561,0.653,1.418,7.536,1.836,11.497C423.624,310.457,422.11,306.489,421.653,302.382z"/>
			<path fill-rule="evenodd" clip-rule="evenodd" fill="#F1D07D" d="M422.446,308.948c1.204,3.484,2.649,5.875,2.365,5.824
				c-0.445-0.083-3.894-4.281-5.597-11.251c-0.113-0.45,1.251-0.751,1.782-0.944C421.175,304.09,421.774,307,422.446,308.948z"/>
			<path fill-rule="evenodd" clip-rule="evenodd" fill="#F1D07D" d="M418.643,304.011c0.982,3.482,2.276,6.774,4.515,9.726
				c0.747,0.986,1.551,1.926,2.38,2.841c0.012,0.153,0.021,0.274,0.021,0.35c0.101,2.765-7.556-8.559-7.833-9.637
				C417.492,306.394,417.636,305.057,418.643,304.011z"/>
			<path fill-rule="evenodd" clip-rule="evenodd" fill="#E6B242" d="M421.202,337.546c-0.266,1.188-2.268-1.717-1.748-2.973
				c0.522-1.256,4.988-5.327,8.422-6.759c0.098,0.219,0.135,0.528,0.126,0.895C423.179,332.488,421.465,336.353,421.202,337.546z"/>
			<path fill-rule="evenodd" clip-rule="evenodd" fill="#E6B242" d="M425.161,332.386c0.886-0.891,1.824-1.735,2.712-2.622
				c-0.227,1.141-0.725,2.527-1.359,3.751c-1.229,2.372-2.126,6.709-3.188,6.329c-0.37-0.134-1.934-0.607-1.673-1.681
				C421.914,337.088,423.642,333.916,425.161,332.386z"/>
			<path fill-rule="evenodd" clip-rule="evenodd" fill="#E6B242" d="M419.177,333.85c-0.072-0.25-0.112-0.462-0.102-0.628
				c0.072-1.417,1.477-2.764,2.713-3.742c1.076-0.851,4.141-2.162,5.445-2.073C424.003,328.849,421.257,331.121,419.177,333.85z"/>
			<path fill-rule="evenodd" clip-rule="evenodd" fill="#E6B242" d="M430.693,331.37c-0.54,0.409-2.715,8.828-3.115,10.001
				c-0.398,1.175,0.877,3.061,1.658,3.025c0.777-0.04,1.176-5.97,1.416-8.088C430.896,334.193,431.354,330.873,430.693,331.37z"/>
			<path fill-rule="evenodd" clip-rule="evenodd" fill="#E6B242" d="M431.806,333.302c-0.451,0.634-1.246,9.433-1.19,10.326
				c0.054,0.889,1.055,1.369,1.857,1.078C433.273,344.416,432.446,332.395,431.806,333.302z"/>
			<path fill-rule="evenodd" clip-rule="evenodd" fill="#F1D07D" d="M436.129,313.051c-0.559,0.202-3.357,4.644-3.984,5.956
				c-0.624,1.313-1.504,3.344-1.199,3.842c0.304,0.494,1.269-2.55,3.053-4.816c1.78-2.264,4.009-4.156,3.91-4.542
				C437.81,313.109,436.932,312.759,436.129,313.051z"/>
			<path fill-rule="evenodd" clip-rule="evenodd" fill="#F1D07D" d="M438.578,314.388c-0.41,0.106-2.229,1.889-3.576,3.467
				c-1.344,1.583-2.985,4.385-2.846,4.926c0.14,0.539,2.027-2.331,3.7-3.995c1.676-1.667,2.933-2.563,3.531-2.964
				C439.984,315.419,439.154,314.24,438.578,314.388z"/>
			<path fill-rule="evenodd" clip-rule="evenodd" fill="#E6B242" d="M446.048,331.431c-0.583-1.035-2.733-1.759-4.656-2.085
				c-1.926-0.325-6.944-1.084-7.051-0.482c-0.108,0.605,4.932,1.11,8.078,2.432C445.567,332.621,447.019,333.15,446.048,331.431z"/>
			<path fill-rule="evenodd" clip-rule="evenodd" fill="#E6B242" d="M445.313,333.67c-0.622-0.703-2.854-1.888-4.758-2.465
				c-1.902-0.577-4.213-1.377-4.705-1.25c-0.494,0.127,4.433,1.893,6.475,3.007C444.366,334.079,446.552,335.078,445.313,333.67z"/>
			<path fill-rule="evenodd" clip-rule="evenodd" fill="#E6B242" d="M440.958,321.905c-0.797,0.098-3.515,0.987-4.995,1.7
				c-1.482,0.71-3.5,1.721-3.36,2.262c0.14,0.539,4.442-1.803,6.375-2.468C440.91,322.735,442.824,321.668,440.958,321.905z"/>
			<path fill-rule="evenodd" clip-rule="evenodd" fill="#E6B242" d="M442.508,322.817c-1.552,0.467-4.047,1.292-5.55,1.926
				c-1.503,0.636-1.503,0.636-1.503,0.636s-0.886,0.637-0.56,0.883c0.324,0.244,4.315-1.279,6.411-1.986
				C443.404,323.572,444.379,322.249,442.508,322.817z"/>
			<path fill-rule="evenodd" clip-rule="evenodd" fill="#D5801C" d="M425.163,325.573c-0.672,0.391-3.852,2.062-4.881,2.82
				c-1.031,0.76-2.575,1.57-2.984,1.347c-0.41-0.223-1.243-1.074-0.954-1.315C416.633,328.185,427.449,324.241,425.163,325.573z"/>
			<path fill-rule="evenodd" clip-rule="evenodd" fill="#D5801C" d="M428.095,333.192c-0.314,0.681-3.71,7.364-3.469,7.958
				c0.242,0.594,0.712,0.721,1.211-0.07C426.335,340.296,428.991,331.234,428.095,333.192z"/>
			<path fill-rule="evenodd" clip-rule="evenodd" fill="#D5801C" d="M435.483,334.981c0.417,1.466,2.77,9.709,2.824,10.6
				c0.053,0.887,0.688,1.301,1.754,1.025c1.072-0.276,0.523-1.369-0.194-3.811C439.149,340.353,434.525,331.612,435.483,334.981z"/>
			<path fill-rule="evenodd" clip-rule="evenodd" fill="#D5801C" d="M437.826,336.589c0.37,0.811,3.032,5.296,3.308,6.702
				c0.275,1.407,1.541,2.23,1.955,1.466c0.416-0.766-1.054-3.753-2.557-5.499C439.029,337.512,437.021,334.83,437.826,336.589z"/>
			<path fill-rule="evenodd" clip-rule="evenodd" fill="#D5801C" d="M436.592,331.815c0.563,0.615,7.128,6.21,7.885,6.426
				c0.757,0.214,1.297-0.747,1.442-1.197C446.068,336.597,435.862,331.022,436.592,331.815z"/>
			<path fill-rule="evenodd" clip-rule="evenodd" fill="#D5801C" d="M434.44,311.596c-0.203,0.668-1.848,3.026-2.849,4.924
				c-0.998,1.903-1.988,4.867-2.561,5.017c-0.577,0.149,0.985-5.348,1.429-7.021c0.444-1.678,2.119-6.049,2.529-6.155
				C433.397,308.254,434.818,310.348,434.44,311.596z"/>
			<path fill-rule="evenodd" clip-rule="evenodd" fill="#D5801C" d="M437.717,327.339c1.393,0.287,7.494,1.186,7.844,0.849
				c0.351-0.339,0.217-1.538-0.126-2.187C445.091,325.349,435.771,326.938,437.717,327.339z"/>
			<path fill-rule="evenodd" clip-rule="evenodd" fill="#FF9514" d="M397.548,320.861c0.64-2.571,1.304-5.268,3.202-7.341
				c1.586-1.736,3.196-3.441,4.941-5.022c-1.738,2.881-4.419,6.641-5.812,9.125c-1.014,1.808-2.112,4.243-3.126,6.662
				C396.994,323.138,397.267,321.998,397.548,320.861z"/>
			<path fill-rule="evenodd" clip-rule="evenodd" fill="#FF9514" d="M393.354,321.871c-0.431,2.139-0.66,4.283-0.869,6.443
				c-0.195,2.005-0.702,3.957-1.18,5.922c-0.782-0.268-1.55-1.275-1.754-3.654c-0.398-4.716,1.177-10.377,4.945-16.604
				c3.768-6.231,10.563-8.935,11.282-9.268c1.02-0.464,1.479-0.393,1.546,0.053C399.867,307.911,394.863,314.39,393.354,321.871z"/>
			<path fill-rule="evenodd" clip-rule="evenodd" fill="#FF9514" d="M392.56,331.889c0.79-3.573,0.764-7.224,1.65-10.784
				c1.687-6.783,6.237-12.637,13.011-15.611c-0.117,0.369-0.317,0.815-0.577,1.322c-2.524,2.069-5.235,4.507-7.074,7.137
				c-1.554,2.219-2.148,4.699-2.792,7.233c-0.515,2.024-0.971,4.08-1.262,6.14c-1.215,3.066-2.151,5.624-2.407,6.168
				c-0.184,0.388-0.615,0.723-1.119,0.802C392.185,333.491,392.383,332.693,392.56,331.889z"/>
		</g>
	</g>
</g>
</svg>
