<?xml version="1.0" encoding="utf-8"?>
<!-- Generator: Adobe Illustrator 17.0.0, SVG Export Plug-In . SVG Version: 6.00 Build 0)  -->
<!DOCTYPE svg PUBLIC "-//W3C//DTD SVG 1.1//EN" "http://www.w3.org/Graphics/SVG/1.1/DTD/svg11.dtd">
<svg version="1.1" id="Layer_1" xmlns="http://www.w3.org/2000/svg" xmlns:xlink="http://www.w3.org/1999/xlink" x="0px" y="0px"
	 width="800px" height="600px" viewBox="0 0 800 600" enable-background="new 0 0 800 600" xml:space="preserve">
<g>
	<path d="M488.764,246.523c12.994-24.026,12.451-52.793-1.672-76.072c-13.611-22.428-38.478-36.671-63.58-40.511
		c-29.6-4.524-57.993,7.03-76.36,31.128c-22.975,30.146-30.573,72.308-16.213,106.969c-18.321,24.263-15.969,51.359-10.151,75.759
		c5.072,21.287,22.021,35.915,41.83,42.914c20.463,7.23,43.463,6.072,64.3,1.25c23.84-5.521,45.352-17.219,60.326-37.41
		c9.958-13.422,15.866-29.791,15.967-46.672c0.103-17.612-9.142-35.025-20.408-47.96
		C484.99,252.939,486.988,249.802,488.764,246.523z"/>
	<path fill="#FFE300" d="M498.874,307.423c-0.587,16.558-8.224,32.198-18.357,44.77c-16.148,20.026-40.812,29.783-65.226,33.892
		c-22.358,3.763-47.473,2.361-67.157-10.132c-23.069-14.635-28.684-44.87-27.376-70.751c0.65-12.949,4.767-25.028,12.813-35.053
		c0.968,2.32,2.021,4.613,3.161,6.863c0.346,0.682,1.508,0.199,1.225-0.524c-7.495-18.829-12.058-37.589-10.036-58.031
		c1.792-18.121,8.738-36.176,18.738-51.166c18.574-27.844,50.699-38.865,82.37-32.055c27.485,5.911,52.452,25.735,61.671,53.294
		c10.126,30.276-4.107,65.163-29.623,82.309c-11.906,7.998-26.659,10.594-40.669,9.163c-1.78-0.181-2.425,2.814-0.627,3.187
		c23.51,4.876,45.609-5.891,60.351-23.834C491.384,272.617,499.508,289.59,498.874,307.423z"/>
	<path fill="#E1B800" d="M399.624,203.083c0,0,76.002-32.087,81.261-33.881c-12.206-17.368-31.326-29.552-51.857-33.967
		c-31.671-6.81-63.796,4.21-82.37,32.055c-0.275,0.412-0.521,0.848-0.791,1.265C347.258,169.461,399.624,203.083,399.624,203.083z"
		/>
	<path fill="#E1B800" d="M489.025,297.891c0,0-11.984,14.731-16.089,17.345c-0.677,0.432-5.806-13.653-8.188-19.985
		c-9.175,6.783-46.323,44.387-46.364,44.405c-0.355,0.424-0.941,0.684-1.579,0.399c-16.916-7.526-45.946-30.848-45.946-30.848
		s-44.119,25.729-47.481,28.548c3.615,15.432,11.12,29.546,24.757,38.197c19.685,12.493,44.799,13.895,67.157,10.132
		c24.415-4.109,49.078-13.866,65.226-33.892c10.133-12.571,17.77-28.212,18.357-44.77c0.026-0.73,0.015-1.456,0.011-2.182
		C497.587,303.446,489.025,297.891,489.025,297.891z"/>
	<path d="M403.598,234.068c-0.048-0.048-0.105-0.071-0.154-0.109c-0.284-7.604-7.437-14.486-15.467-12.653
		c-4.724,1.079-10.237,6.047-13.986,10.317c-4.365,4.963-9.174,13.435-8.459,20.403c0.051,0.522,0.461,1.002,0.988,1.063
		c0.48,0.058,0.978,0.097,1.472,0.143c5.961,8.421,17.285,10.626,26.847,5.122C403.819,253.186,410.935,241.614,403.598,234.068z"/>
	<path fill="#FFA21C" d="M390.873,224.369c8.273-0.831,13.607,11.351,5.353,18.693c-7.498,6.672-19.371,8.047-28.894,6.348
		C367.915,237.749,382.601,225.2,390.873,224.369z"/>
	<path fill="#FFA21C" d="M394.131,255.295c-7.834,5.258-16.672,3.341-23.462-1.887c11.26,0.447,24.75-2.545,30.951-12.53
		c0.6-0.963,1.004-1.964,1.307-2.971C404.803,244.925,400.031,251.339,394.131,255.295z"/>
	<path d="M452.467,211.887c-8.312-13.19-24.185-23.847-39.859-19.34c-0.656,0.188-0.597,1.256,0.126,1.25
		c8.224-0.076,15.069,2.34,21.169,6.28c-3.612-1.031-7.672-0.793-11.314,0.503c-6.549,2.33-9.342,7.45-9.261,13.835
		c0.077,6.384,3.674,10.819,8.466,12.747c-1.679,0.624-3.368,1.372-5.161,2.188c-0.913,0.422-0.449,1.942,0.543,1.721
		c5.431-1.207,9.703-2.709,15.399-2.239c4.505,0.371,9.015,1.907,13.352,3.109c1.423,0.392,2.47-1.879,1.036-2.503
		c-3.28-1.424-6.538-2.464-9.932-3.159c6.4-3.616,8.873-11.084,5.815-18.351c-0.174-0.413-0.378-0.8-0.581-1.182
		c2.4,2.264,4.714,4.729,6.994,7.33C450.678,215.696,453.684,213.821,452.467,211.887z"/>
	<path fill="#FFFFFF" d="M415.907,214.748c-0.184-5.837,2.406-9.416,7.689-11.362c5.971-2.198,12.37-0.162,15.257,5.609
		C447.727,226.764,416.411,231.217,415.907,214.748z"/>
	<path d="M393.883,197.706c-8.276,0.37-16.284,2.534-23.873,5.905c-7.627,3.387-12.8,9.196-19.277,14.225
		c-0.501,0.389-0.01,1.249,0.562,1.081c1.385-0.405,2.699-1.003,3.971-1.72c-0.139,0.445-0.251,0.902-0.33,1.365
		c-0.84,4.978,0.998,10.501,5.296,12.735c-1.989,0.722-3.969,1.552-6.01,2.333c-0.823,0.314-0.494,1.88,0.371,1.565
		c5.823-2.113,12.564-3.582,18.254-3.372c1.569,0.059-0.126-2.1-1.576-2.383c0.107-0.074,2.596-0.864,4.599-5.222
		c2.005-4.358,1.168-14.807-7.221-15.809c8.296-4.34,16.827-5.36,25.726-7.889C395.93,200.078,395.455,197.637,393.883,197.706z"/>
	<path fill="#FFFFFF" d="M374.602,219.771c0.114,3.349-1.492,5.564-4.152,7.623c-1.608,1.242-3.779,1.795-5.722,2.137
		c-5.455,0.966-7.696-5.397-7.395-9.826c0.154-2.301,1.207-5.441,4.695-7.223c3.487-1.784,5.344-1.684,7.972-0.626
		C373.19,213.14,374.489,216.423,374.602,219.771z"/>
	<path d="M372.787,219.824c0.455,2.719-1.327,5.304-3.985,5.772c-2.654,0.467-5.179-1.357-5.637-4.077
		c-0.456-2.72,1.326-5.304,3.981-5.771C369.804,215.278,372.329,217.104,372.787,219.824z"/>
	<path d="M436.518,213.595c0.62,3.686-1.796,7.188-5.396,7.823c-3.6,0.635-7.02-1.837-7.64-5.524
		c-0.619-3.687,1.796-7.189,5.396-7.823C432.479,207.436,435.898,209.911,436.518,213.595z"/>
	<path fill="#FFFFFF" d="M434.3,212.785c0.221,1.324-0.648,2.583-1.94,2.809c-1.292,0.227-2.521-0.659-2.745-1.982
		c-0.223-1.324,0.646-2.584,1.938-2.812C432.847,210.574,434.078,211.461,434.3,212.785z"/>
	<path fill="#FFFFFF" d="M371.147,219.38c0.176,1.038-0.508,2.024-1.517,2.203c-1.017,0.179-1.98-0.517-2.155-1.556
		c-0.174-1.038,0.507-2.022,1.521-2.203C370.007,217.647,370.972,218.341,371.147,219.38z"/>
</g>
<g>
	<path d="M507.711,166.732c1.654-0.961,3.354-1.85,5.115-2.59c0.074-0.033,0.15-0.044,0.224-0.076l5.685-6.65
		c-4.875,1.084-9.763,3.193-14.007,5.81L507.711,166.732z"/>
	<g>
		<path d="M318.202,171.097l33.868-23.638l43.105,37.599l65.903-40.201l4.47,6.204l16.054-9.907l26.831,32.647l21.332-23.191
			c-7.938-17.834-19.748-38.962-31.283-55.063c-15.877-22.174-46.27-60.741-82.073-57.567c-33.34,2.968-53.391,23.674-70.28,40.714
			c-16.115,16.266-33.304,47.356-47.501,80.023L318.202,171.097z M421.957,45.462c10.214,0.819,23.255,6.985,33.582,14.098
			c-3.724,2.416-7.319,5.305-11.423,7.079c-7.926,3.433-16.641,4.904-25.219,5.474c-8.762,0.591-17.522-0.474-25.865-2.655
			c-5.822-1.522-10.671-4.366-15.63-7.154C392.049,52.328,408.124,44.368,421.957,45.462z M368.375,68.801
			c1.907-1.438,3.86-2.873,5.843-4.278c10.086,9.364,29.563,11.58,42.514,11.53c9.212-0.039,18.411-1.834,27.102-4.822
			c4.699-1.613,11.741-4.473,16.153-8.421c3.228,2.52,6.06,5.065,8.21,7.472c8.746,9.746,17.288,20.017,25.61,31.68
			c-10.034,13.51-31.861-25.514-43.672-7.25c-4.022,6.211-3.911,13.991-8.859,19.849c-5.119,6.062-14.799,3.008-17.533-3.194
			c-2.136-4.831-2.049-10.008-5.393-14.394c-16.001-20.948-39.641,27.469-50.005,7.015c-4.182-8.254-6.781-20.316-15.284-20.736
			C358.163,77.557,363.316,72.638,368.375,68.801z M350.715,85.921c11.585-0.57,10.697,20.571,19.547,26.464
			c7.062,4.691,16.058-4.005,21.164-7.585c3.256-2.265,6.123-4.917,9.473-7.095c7.219-4.691,14.529,0.475,16.588,6.827
			c1.732,5.352,2.111,10.332,6.641,14.327c5.593,4.946,15.326,3.277,20.259-1.775c5.298-5.439,5.95-13.578,9.182-19.957
			c5.015-9.918,21.111,7.101,26.798,9.952c6.28,3.149,12.652,2.846,16.409-0.877c4.865,7.073,9.646,14.713,14.329,23.011
			c-8.037,5.843-20.588,6.239-26.966-1.319c-3.308-3.903-5.27-8.374-9.585-11.509c-7.088-5.151-15.74-3.261-21.011,3.186
			c-5.7,6.988-7.542,16.199-12.298,23.694c-3.166,5.001-7.598,8.079-13.987,7.654c-7.223-0.48-10.713-6.973-12.874-12.491
			c-2.507-6.389-3.138-16.203-9.782-20.259c-7.512-4.592-18.003,4.489-22.972,9.008c-3.157,2.866-5.94,5.897-9.494,8.389
			c-8.313,5.865-17.13,0.571-18.912-7.308c-1.563-6.916-1.131-13.968-3.186-20.875c-1.377-4.611-3.836-9.216-7.583-11.133
			C345.176,92.635,347.93,89.156,350.715,85.921z"/>
		<path fill="#CF0000" d="M418.898,72.113c8.578-0.57,17.293-2.041,25.219-5.474c4.104-1.774,7.699-4.663,11.423-7.079
			c-10.327-7.113-23.368-13.279-33.582-14.098c-13.834-1.095-29.908,6.866-44.554,16.842c4.958,2.788,9.807,5.631,15.63,7.154
			C401.376,71.639,410.136,72.704,418.898,72.113z"/>
		<path fill="#548AFF" d="M368.345,103.986c10.364,20.454,34.004-27.963,50.005-7.015c3.344,4.386,3.257,9.563,5.393,14.394
			c2.735,6.202,12.415,9.256,17.533,3.194c4.947-5.858,4.837-13.638,8.859-19.849c11.81-18.264,33.637,20.761,43.672,7.25
			c-8.322-11.663-16.864-21.934-25.61-31.68c-2.15-2.407-4.983-4.952-8.21-7.472c-4.411,3.948-11.454,6.808-16.153,8.421
			c-8.691,2.988-17.89,4.783-27.102,4.822c-12.951,0.05-32.429-2.166-42.514-11.53c-1.983,1.405-3.936,2.84-5.843,4.278
			c-5.059,3.837-10.212,8.756-15.313,14.449C361.564,83.671,364.163,95.732,368.345,103.986z"/>
		<path fill="#C7008F" d="M350.04,107.386c2.054,6.907,1.623,13.959,3.186,20.875c1.782,7.879,10.599,13.173,18.912,7.308
			c3.553-2.492,6.337-5.523,9.494-8.389c4.969-4.519,15.46-13.6,22.972-9.008c6.644,4.056,7.275,13.871,9.782,20.259
			c2.161,5.517,5.651,12.01,12.874,12.491c6.389,0.426,10.821-2.652,13.987-7.654c4.756-7.495,6.598-16.706,12.298-23.694
			c5.271-6.446,13.923-8.336,21.011-3.186c4.316,3.134,6.277,7.606,9.585,11.509c6.378,7.558,18.928,7.162,26.966,1.319
			c-4.684-8.298-9.464-15.939-14.329-23.011c-3.757,3.723-10.13,4.025-16.409,0.877c-5.686-2.851-21.783-19.87-26.798-9.952
			c-3.232,6.379-3.885,14.518-9.182,19.957c-4.934,5.051-14.666,6.721-20.259,1.775c-4.53-3.995-4.909-8.975-6.641-14.327
			c-2.06-6.352-9.37-11.519-16.588-6.827c-3.35,2.178-6.217,4.829-9.473,7.095c-5.107,3.58-14.102,12.276-21.164,7.585
			c-8.85-5.893-7.962-27.034-19.547-26.464c-2.785,3.235-5.539,6.714-8.258,10.331C346.204,98.169,348.663,102.774,350.04,107.386z"
			/>
		<path fill="#C7008F" d="M308.696,154.597c-0.641,1.467-1.222,2.901-1.826,4.345l11.606,7.056l4.24-2.849
			C319.405,158.995,314.765,155.877,308.696,154.597z"/>
		<path fill="#FFD100" d="M420.57,153.254c-8.545-4.052-10.641-14.464-13.137-22.213c-1.021-3.176-2.728-10.705-7.747-10.076
			c-7.27,0.907-13.333,7.241-18.185,11.846c-9.066,8.595-23.961,13.893-30.833,0.41c-2.56-5.032-1.14-30.496-9.706-34.973
			c-11.722,15.977-22.559,34.945-30.693,52.824c6.573,0.147,12.736,4.555,16.252,9.518l25.74-17.293l42.552,36.566
			c4.141-1.654,40.146-24.429,40.146-24.429C432.039,155.675,424.321,155.032,420.57,153.254z"/>
		<path fill="#C7008F" d="M507.711,166.732l1.527,1.796l3.812-4.462c-0.075,0.032-0.151,0.043-0.224,0.076
			C511.064,164.882,509.364,165.771,507.711,166.732z"/>
	</g>
	<path fill="#FFD100" d="M513.518,133.509c-8.75,5.577-21.977,7.644-29.776,0.955c-4.626-3.969-6.552-10.278-11.396-13.88
		c-5.502-4.101-11.781-3.409-15.588,2.267c-3.409,5.083-10.743,23.449-18.272,30.337l20.188-12.657l7.37,7.21l15.938-11.252
		l22.746,26.738c4.244-2.617,9.132-4.727,14.007-5.81l4.105-4.805c-2.914-6.573-5.98-12.976-9.241-18.968
		C513.565,133.591,513.544,133.555,513.518,133.509z"/>
</g>
<g>
	<path d="M539.442,346.255c-1.471-7.065-3.337-14.003-5.551-20.814c-1.234-3.79-6.484-16.44-6.484-16.44l-21.079,22.848
		l-26.774-32.887l-15.796,11.306l-6.998-15.236l-61.2,50.781l-45.894-39.563l-32.636,23.059l-21.109-12.172
		c0,0-5.902,15.884-7.549,21.578c-9.318,32.191-10.263,66.983-1.579,98.762c20.469,74.929,96.917,130.026,174.686,93.832
		c27.424-12.763,54.794-38.474,70.936-77.297C548.421,415.52,545.377,374.779,539.442,346.255z M298.303,332.563l14.593,13.25
		l13.385-6.774c0.076,4.754-0.76,9.598-2.542,14.069c-3.208,8.061-10.637,14.346-18.01,19.201c-5.018,3.3-11.211,5.418-16.331,8.605
		C290.254,364.475,293.352,348.079,298.303,332.563z M365.766,520.909c-8.108-3.675-15.459-8.112-22.172-13.153
		c7.261-0.419,14.544-1.201,21.783-1.441c11.61-0.392,23.197,0.172,34.645,1.635c11.256,1.444,22.179,4.234,32.738,7.911
		c6.511,2.275,12.483,5.562,18.606,8.507C423.823,534.552,393.306,533.387,365.766,520.909z M481.517,507.541
		c-7.542,5.864-15.595,10.635-23.971,14.322c-14.946-10.061-36.64-14.903-54.174-17.582c-19.732-3.006-43.224-3.783-63.538,0.537
		c-20.773-16.93-34.65-40.026-43.107-65.492c-0.36-1.094-0.711-2.192-1.043-3.295c5.244-3.79,13.655,1.035,16.78,4.533
		c1.934,2.165,3.122,4.849,4.261,7.426c2.113,4.795,3.492,9.988,6.548,14.351c6.039,8.615,16.575,9.855,26.764,6.252
		c10.903-3.864,21.022-20.48,33.471-17.492c13.011,3.123,18.714,22.456,26.543,31.215c18.641,20.862,40.878-11.606,53.185-22.65
		c13.447-12.076,17.633,16.874,22.764,24.307c3.891,5.629,9.438,6.901,15.225,6.08C495.131,496.225,488.539,502.084,481.517,507.541
		z M506.666,484.261c-5.965,1.836-12.135,2.211-16.328-2.927c-4.564-5.59-5.695-13.43-8.538-19.809
		c-3.585-8.048-11.087-13.238-19.687-6.879c-11.295,8.34-17.085,20.912-30.119,27.516c-16.141,8.161-23.823-10.757-30.295-20.524
		c-5.612-8.467-14.638-18.421-26.738-14.43c-13.336,4.388-19.828,18.377-35.161,19.095c-14.712,0.679-16.52-16.663-22.048-25.66
		c-4.529-7.392-15.955-12.155-22.853-7.338c-0.772-2.765-1.466-5.558-2.083-8.367c11.264-14.65,29.817,13.4,39.097,19.627
		c9.366,6.29,18.603,1.015,26.91-4.496c13.306-8.835,31.588-15.71,41.345-0.056c5.417,8.681,8.401,18.688,19.789,22.005
		c11.937,3.474,22.132-5.506,29.29-13.314c4.686-5.111,8.982-10.578,14.848-14.621c7.512-5.163,19.633-4.619,23.46,3.79
		c3.889,8.546-0.055,21.877,10.229,27.271c9.566,5.016,16.562,0.098,25.004-6.05C517.628,468.032,513.787,476.348,506.666,484.261z
		 M523.929,453.632c-6.139,4.03-5.675,4.579-12.573,7.435c-11.663,4.829-15.333-4.822-16.414-12.966
		c-1.4-10.569-3.701-19.72-16.41-21.863c-13.273-2.228-22.796,7.938-30.408,16.582c-4.963,5.638-10.1,11.88-17.658,14.528
		c-8.466,2.961-15.578-1.809-19.71-8.043c-5.581-8.397-8.222-18.521-19.136-22.302c-14.02-4.852-28.611,5.413-39.581,12.493
		c-17.541,11.319-26.638-9.012-38.501-17.553c-7.644-5.503-16.13-6.599-21.609-1.321c-2.143-11.375-3.018-23.081-2.723-34.809
		c8.561-1.981,17.685-8.504,24.418-13.491c8.252-6.102,14.968-14.888,16.781-24.562c0.711-3.795,0.873-7.489,0.54-11.081
		l17.908-9.061l41.746,36.812l63.237-44.851l4.959,7.617l14.053-4.655l15.766,11.809c-5.097,9.031-6.296,19.821-4.939,29.634
		c3.82,27.638,24.212,44.961,52.526,41.945C535.627,420.571,530.278,440.207,523.929,453.632z M489.083,365.673
		c-2.024-9.375-0.987-19.531,3.545-28.318l14.112,10.573l18.89-24.768c9.081,24.814,11.702,52.394,11.551,77.625
		C513.112,403.993,494.215,389.441,489.083,365.673z"/>
	<path fill="#C7008F" d="M305.728,372.31c7.373-4.854,14.802-11.14,18.01-19.201c3.003-7.536,3.387-16.131,1.086-23.569l-8.65,5.81
		l-15.598-9.492c-6.281,17.455-10.197,36.229-11.179,55.056C294.517,377.728,300.71,375.609,305.728,372.31z"/>
	<path fill="#CF0000" d="M400.022,507.95c-11.449-1.464-23.035-2.027-34.645-1.635c-7.239,0.24-14.521,1.022-21.783,1.441
		c6.712,5.041,14.063,9.478,22.172,13.153c27.54,12.478,58.057,13.643,85.6,3.459c-6.123-2.944-12.095-6.232-18.606-8.507
		C422.202,512.184,411.279,509.394,400.022,507.95z"/>
	<path fill="#548AFF" d="M485.999,483.972c-5.131-7.433-9.317-36.383-22.764-24.307c-12.307,11.044-34.543,43.512-53.185,22.65
		c-7.829-8.759-13.531-28.092-26.543-31.215c-12.449-2.988-22.567,13.628-33.471,17.492c-10.19,3.604-20.725,2.363-26.764-6.252
		c-3.056-4.364-4.435-9.556-6.548-14.351c-1.139-2.576-2.327-5.261-4.261-7.426c-3.124-3.498-11.536-8.323-16.78-4.533
		c0.332,1.103,0.683,2.201,1.043,3.295c8.458,25.466,22.334,48.562,43.107,65.492c20.313-4.32,43.805-3.542,63.538-0.537
		c17.533,2.68,39.228,7.521,54.174,17.582c8.376-3.687,16.429-8.458,23.971-14.322c7.021-5.457,13.613-11.316,19.707-17.489
		C495.437,490.873,489.889,489.6,485.999,483.972z"/>
	<path fill="#C7008F" d="M497.784,465.144c-10.284-5.393-6.34-18.725-10.229-27.271c-3.827-8.409-15.948-8.953-23.46-3.79
		c-5.865,4.042-10.162,9.509-14.848,14.621c-7.157,7.808-17.353,16.788-29.29,13.314c-11.387-3.317-14.372-13.324-19.789-22.005
		c-9.757-15.653-28.039-8.779-41.345,0.056c-8.307,5.511-17.544,10.787-26.91,4.496c-9.28-6.227-27.833-34.277-39.097-19.627
		c0.617,2.809,1.31,5.602,2.083,8.367c6.899-4.817,18.324-0.054,22.853,7.338c5.528,8.997,7.336,26.339,22.048,25.66
		c15.333-0.718,21.825-14.707,35.161-19.095c12.099-3.991,21.126,5.962,26.738,14.43c6.472,9.767,14.154,28.685,30.295,20.524
		c13.035-6.604,18.824-19.176,30.119-27.516c8.6-6.359,16.102-1.169,19.687,6.879c2.842,6.379,3.974,14.219,8.538,19.809
		c4.193,5.138,10.364,4.763,16.328,2.927c7.12-7.914,10.962-16.229,16.122-25.167C514.347,465.242,507.35,470.16,497.784,465.144z"
		/>
	<path fill="#FFD100" d="M330.404,347.76c-1.813,9.674-8.529,18.46-16.781,24.562c-6.733,4.987-15.858,11.51-24.418,13.491
		c-0.295,11.728,0.58,23.434,2.723,34.809c5.479-5.278,13.965-4.182,21.609,1.321c11.863,8.541,20.961,28.872,38.501,17.553
		c10.971-7.08,25.561-17.344,39.581-12.493c10.914,3.78,13.556,13.905,19.136,22.302c4.132,6.234,11.244,11.005,19.71,8.043
		c7.558-2.648,12.695-8.889,17.658-14.528c7.612-8.644,17.135-18.811,30.408-16.582c12.71,2.143,15.01,11.294,16.41,21.863
		c1.081,8.144,4.751,17.795,16.414,12.966c6.897-2.856,6.434-3.405,12.573-7.435c6.349-13.425,11.699-33.061,12.274-47.702
		c-28.314,3.015-48.707-14.307-52.526-41.945c-1.72-12.439,0.563-26.496,9.848-36.481c0.222-0.24,0.506-0.478,0.743-0.718
		l-16.601-19.512l-16.958,11.574l-6.064-14.484l-35.723,28.511c8.282,1.976,16.425,6.447,23.411,14.297
		c14.128,15.876,10.688,41.985-6.441,55.782c-19.377,15.592-50.689,14.435-65.857-4.572c-6.744-8.45-10.919-19.399-9.148-30.215
		c1.379-8.441,6.45-18.806,20.322-27.972l-32.153-26.932l-20.345,13.667C331.189,333.473,331.777,340.432,330.404,347.76z"/>
	<path fill="#C7008F" d="M489.083,365.673c5.132,23.768,24.029,38.32,48.099,35.113c0.157-26.192-2.601-54.936-12.548-80.464
		l-17.973,21.029l-9.321-10.956c-0.488,0.547-1.023,1.052-1.461,1.643C488.576,341.837,486.638,354.342,489.083,365.673z"/>
	<path d="M360.885,368.167c-1.771,10.816,2.404,21.765,9.148,30.215c15.168,19.007,46.48,20.164,65.857,4.572
		c17.129-13.797,20.57-39.906,6.441-55.782c-6.986-7.85-15.128-12.321-23.411-14.297l-6.014,4.8
		c11.012,0.954,20.978,5.972,27.405,14.954c10.565,14.758,5.435,35.89-8.963,47.437c-17.199,13.785-43.586,10.581-56.987-4.807
		c-13.956-16.043-11.847-38.408,8.751-50.479c0.718-0.422,1.451-0.78,2.18-1.162l-4.087-3.422
		C367.335,349.361,362.264,359.726,360.885,368.167z"/>
	<path fill="#CF0000" d="M374.362,395.259c13.401,15.388,39.788,18.592,56.987,4.807c14.398-11.547,19.528-32.679,8.963-47.437
		c-6.428-8.982-16.393-14.001-27.405-14.954l-17.771,14.185l-9.842-8.242c-0.729,0.382-1.462,0.74-2.18,1.162
		C362.515,356.85,360.406,379.216,374.362,395.259z"/>
</g>
<path fill="#FFC262" d="M380.729,238.246c-3.692,4.752-9.739,9.188-9.111,5.497c0.525-3.085,5.656-11.309,11.31-13.98
	C385.756,228.427,384.42,233.495,380.729,238.246z"/>
</svg>
