<?xml version="1.0" encoding="utf-8"?>
<!-- Generator: Adobe Illustrator 17.0.0, SVG Export Plug-In . SVG Version: 6.00 Build 0)  -->
<!DOCTYPE svg PUBLIC "-//W3C//DTD SVG 1.1//EN" "http://www.w3.org/Graphics/SVG/1.1/DTD/svg11.dtd">
<svg version="1.1" id="Layer_1" xmlns="http://www.w3.org/2000/svg" xmlns:xlink="http://www.w3.org/1999/xlink" x="0px" y="0px"
	 width="800px" height="600px" viewBox="0 0 800 600" enable-background="new 0 0 800 600" xml:space="preserve">
<g>
	<g>
		<path fill-rule="evenodd" clip-rule="evenodd" d="M177.639,212.414c-2.609,5.655-5.964,14.708-8.537,24.738
			c-1.886,7.351-3.296,13.859-3.628,21.772c-0.257,6.153,1.681,17.83,5.397,27.771c6.901,0.63,17.607,1.882,32.826,0.359
			c12.972-1.297,34.597-6.45,48.399-10.033c5.309-21.233,21.233-37.181,35.833-44.707c3.143-1.618,9.512-3.958,13.803-4.391
			c4.53-0.459,9.274,0.663,12.74,0.717c5.949,0.096,10.665-3.359,16.635-3.583c8.442-0.315,12.682,2.348,17.254,5.913
			c1.763,1.374,7.609,6.359,7.609,6.359s2.411-0.223,3.99-0.166c3.645,0.133,7.248,2.017,9.778,3.712
			c6.373,4.275,11.787,10.242,18.945,17.121c6.36,6.113,17.161,14.792,21.349,20.996c7.078,10.481,6.433,17.69,0.264,26.788
			c-2.885,4.258-9.291,7.654-16.52,8.735c-4.645,7.895-10.275,16.648-21.187,18.562c-4.616,0.815-8.67-0.133-13.521,0.743
			c-2.901,0.523-7.04,1.746-9.497,1.939c-4.423,0.35-7.846-0.595-10.677-1.939c-2.355,5.206-4.338,9.969-6.23,15.758
			c-1.712,5.238-4.928,12.089-5.503,17.331c-0.756,6.892,0.723,14.14,1.224,21.244c0.722,10.22,0.138,18.803,5.109,23.917
			c1.313,1.351,4.662,4.7,5.586,6.309c3.7,6.447-2.508,11.094-8.456,9.792c-2.071,3.333-8.229,3.114-12.221,1.442
			c-2.955,3.124-9.435,2.517-13.051,0.515c-5.729-3.175-6.175-14.275-6.658-23.129c-0.638-11.66,3.509-23.131,1.172-34.728
			c-4.111,2.535-9.345,5.023-10.769,8.915c-1.761,4.809-0.143,34.586,0.931,38.285c1.075,3.697,5.214,8.372,4.761,11.24
			c-0.618,3.918-8.986,8.043-15.074,4.853c-2.148,5.366-10.669,3.045-13.667,1.474c-3.804,2.297-11.467,3.529-11.467-4.229
			c0-3.052,7.232-32.555,7.375-52.205c-10.343,6.032-30.048,7.339-47.303,3.037c-0.62,1.254-2.123,3.406-3.716,4.569
			c8.7,6.098,15.494,22.393,17.794,25.528c1.604,2.188,7.59,2.539,13.031,7.541c5.442,5.004-1.359,10.513-5.865,10.602
			c-2.443,3.32-7.383,3.176-11.409,1.237c-5.711,3.172-11.96,3.515-14.376-7.56c-2.865-13.124-6.46-19.722-13.535-27.913
			c-2.565,1.218-8.806,3.477-15.108,4.202c3.329,5.645,5.577,12.434,7.166,18.69c0.449,1.775,9.383,0.823,15.753,7.899
			c4.347,4.826,4.792,8.471,4.413,10.046c-0.421,1.768-5.651,5.005-10.96,3.752c-1.592,1.614-5.576,2.509-9.646,1.614
			c-2.122,2.326-8.267,3.556-10.615,1.7c-3.628-2.866-6.194-7.704-16.282-12.453c-1.616-0.762-2.918-9.753-4.252-17.723
			c-1.4-8.348-4.415-11.704-4.858-15.914c-0.474-4.495,4.54-7.683,5.43-10.995c1.581-5.897-18.324-20.007-15.438-53.982
			c1.817-21.391,8.178-32.891,15.946-42.68C140.82,266.176,154.502,228.823,177.639,212.414z"/>
		<path fill-rule="evenodd" clip-rule="evenodd" fill="#E4C89A" d="M165.211,279.656c0.971,2.96,1.923,8.191,4.156,10.803
			c4.513,0.448,13.646,0.581,17.79,0.786c-0.228,14.719,1.431,27.513,12.265,33.118c10.221,5.29,20.715,5.159,29.755-2.3
			c12.266-10.12,12.459-26.191,11.888-38.926c4.159-1.343,6.518-2.084,10.058-2.532c-2.099,10.219-2.891,21.887-0.585,31.51
			c1.45,6.06,5.802,13.574,10.483,16.145c6.598,3.62,18.982,6.863,28.912,6.096c15.334-1.181,21.433-11.285,23.718-29.514
			c2.285-18.229-6.858-49.77-6.858-49.77l-5.144-1.736c0,0,10.574,34.143,8.859,50.638c-0.785,7.54-4.027,20.521-13.431,24.596
			c-11.166,4.839-29.107-0.188-35.103-3.943c-8.34-5.229-9.612-18.396-9.701-25.206c-0.088-6.81,1.154-14.242,1.96-17.7
			c5.555-23.787,19.789-39.826,39.114-48.68c2.932-1.344,6.768-2.343,9.982-2.682c4.811-0.503,7.768,1.144,11.816,0.827
			c5.432-0.428,10.06-2.933,15.888-3.302c9.713-0.618,15.649,4.969,21.135,9.718c5.487,4.748,8.233,9.697,12.479,13.797
			c0.616-3.94-3.898-8.511-6.375-11.557c9.023-0.923,14.642,5.843,20.635,10.936c6.008,5.111,11.229,11.711,16.907,16.502
			c6.636,5.602,15.49,13.432,15.685,24.96c0.176,10.255-6.259,19.66-16.296,19.389c0.674-3.249,1.204-6.432,0.815-10.932
			c-1.22-14.107-11.397-21.54-19.142-30.311c-1.904-2.152-6.217-7.967-8.358-10.324c-0.247,2.179,2.408,5.682,3.871,7.633
			c8.089,10.791,23.777,18.657,20.777,38.572c-1.182,7.845-7.021,15.64-10.472,18.599c-3.451,2.956-9.055,5.648-14.788,6.153
			c-2.563,0.225-4.233-0.277-6.315-0.206c-3.494,0.119-6.26,1.145-9.166,1.443c-4.214,0.434-11.405-1.399-14.059-2.823
			c-8.85-4.749-13.61-13.578-14.777-17.291c-1.239-3.942-1.587-5.768-1.947-8.602c-2.655,6.094-0.263,12.007,6.193,21.683
			c2.916,4.367,8.585,7.524,8.585,7.524s-7.085,19.129-8.868,23.641c-3.723,9.427-3.592,15.016-3.15,18.055
			c1.708,11.702,0.674,25.987,4.583,35.166c1.576,3.699,5.537,6.281,7.347,8.457c2.184,2.624,1.622,9.111-3.259,7.632
			c-0.58-3.328-2.44-7.822-8.027-8.258c2.364,1.884,5.66,5.182,5.174,8.258c-1.737,2.836-7.179,2.763-10.187,1.442
			c-0.214-4.189-3.205-8.29-5.729-7.816c1.146,1.522,3.94,4.642,3.284,8.025c-3.284,2.852-9.085,3.141-12.521-0.483
			c-3.436-3.625-4.726-18.056-4.385-23.653c0.674-11.185,3.048-22.443,1.591-32.175c2.149-1.597,4.279-3.099,7.017-5.51
			c2.135-1.878,8.893-7.354,3.409-8.52c-1.01,3.608-4.38,6.628-7.13,8.665c-3.59,2.657-6.527,4.592-10.798,7.011
			c-2.831,1.607-7.064,4.766-7.75,6.766c-2.305,6.695-0.787,29.219,0.001,35.671c0.788,6.453,5.267,12.187,5.196,15.303
			c-0.073,3.119-8.799,5.331-11.643,2.97c0.143-2.102,0.286-6.6-2.148-8.483c0.143,2.464,0.573,7.469-1.003,9.933
			s-7.596,1.958-9.339-0.276c-0.24-2.297,0.319-6.613-0.255-8.934c-1.611,1.055-2.001,6.895-2.434,8.63
			c-1.6,1.205-8.235,3.479-8.45-1.307c-0.149-3.331,5.797-26.012,7.161-38.355c0.657-5.939,3.133-25.219-0.286-26.03
			c-0.358,1.741-0.703,6.801-1.361,8.338c-3.51,2.321-9.836,4.746-14.746,5.475c-11.416,1.689-23.998,2.073-32.157-1.628
			c3.676-9.698,0.717-26.103-9.196-36.329c3.325,9.308,10.328,19.938,7.55,32.411c-2.444,10.958-11.575,14.793-21.606,18.746
			c-3.027,1.191-10.958,3.571-14.192,4.367c2.122,3.135,6.725,14.335,8.494,22.399c0.261,1.19,7.901,1.552,13.538,5.195
			c3.707,2.395,6.174,7.567,6.419,10.53c-1.769,1.723-5.093,2.818-8.012,2.371c0.442-4.479-3.003-11.142-7.874-10.931
			c2.831,2.509,6.097,5.538,5.091,10.826c-1.21,1.404-4.399,1.854-6.52,1.652c-0.871-2.98-2.522-10.552-6.624-10.597
			c1.531,2.655,4.116,7.246,3.773,10.597c-1.163,1.04-5.897,3.11-7.931,1.139c-2.035-1.972-6.655-7.479-10.201-9.596
			c-1.94-1.158-4.956-2.08-5.703-3.713c-2.48-5.426-1.505-13.06-3.463-19.804c-1.179-4.058-3.367-7.977-3.26-11.549
			c0.144-4.801,3.938-5.927,4.074-11.553c0.21-8.507-13.869-22.305-13.644-45.534c0.265-26.911,12.255-46.194,16.581-48.758
			c-9.767-12.419-11.898-28.12-7.04-44.389c2.952-11.961,11.167-23.357,15.502-26.584
			C165.562,236.974,159.033,260.822,165.211,279.656z M340.404,247.068c-10.354-1.41-19.466,4.959-20.574,14.643
			c-2.152,18.799,27.648,21.892,32.999,8.458C357.123,259.395,350.026,248.373,340.404,247.068z M190.471,328.131
			c7.857,2.564,11.145,9.755,15.483,15.883c-0.68-5.041-4.134-10.041-7.944-13.407C196.186,328.995,192.735,326.046,190.471,328.131
			z"/>
		<path fill-rule="evenodd" clip-rule="evenodd" d="M352.83,270.169c-5.351,13.434-35.152,10.341-32.999-8.458
			c1.108-9.684,10.219-16.053,20.574-14.643C350.026,248.373,357.123,259.395,352.83,270.169z"/>
		<path fill-rule="evenodd" clip-rule="evenodd" fill="#FAF0D1" d="M350.752,255.789c3.475,6.977,2.579,16.946-4.602,19.979
			c-11.325,4.787-24.147-1.221-24.951-11.109c-0.846-10.38,8.545-17.626,18.592-16.354
			C344.367,248.884,349.05,252.374,350.752,255.789z"/>
		<path fill-rule="evenodd" clip-rule="evenodd" d="M345.974,265.353c-4.24-0.065-5.64-9.814,0.253-8.827
			C350.799,257.288,350.934,265.422,345.974,265.353z"/>
		<path fill-rule="evenodd" clip-rule="evenodd" fill="#FFFFFF" d="M347.724,259.992c-0.529-1.282-2.475-1.929-3.093-0.579
			c-0.62,1.351,0.33,2.989,1.618,3.184C347.534,262.787,348.168,261.061,347.724,259.992z"/>
		<path fill-rule="evenodd" clip-rule="evenodd" d="M383.865,303.265c-4.442,10.832-30.462,4.34-24.853-9.28
			C363.073,283.251,389.192,290.277,383.865,303.265z"/>
		<path fill-rule="evenodd" clip-rule="evenodd" fill="#FAF0D1" d="M190.564,291.245c-1.145,13.665,1.392,26.213,10.78,30.38
			c6.274,2.785,17.238,2.84,23.148-0.58c7.224-4.181,10.874-14.147,12.287-24.016c0.454-3.159,0.493-10.575-0.256-12.751
			C231.126,285.444,207.817,291.155,190.564,291.245z"/>
		<path fill-rule="evenodd" clip-rule="evenodd" fill="#FAF0D1" d="M368.095,290.998c-5.586-0.371-10.089,5.596-6.229,11.031
			c3.826,5.395,18.557,7.265,20.778,0.206C385.336,293.675,374.772,291.445,368.095,290.998z"/>
		<path fill-rule="evenodd" clip-rule="evenodd" d="M187.561,326.882c7.858,2.563,14.055,11.004,18.394,17.132
			c-0.68-5.041-4.486-10.866-8.296-14.232C195.835,328.171,189.824,324.796,187.561,326.882z"/>
		<path fill-rule="evenodd" clip-rule="evenodd" fill="#C9A679" d="M199.437,396.638c5.72,8.076,8.96,13.985,11.251,20.802
			c1.145,3.406,1.873,11.643,4.44,13.705c2.565,2.06,6.632,1.344,7.735-0.086c-1.129-2.619-2.276-4.799-2.365-6.949
			c1.947,1.701,3.24,6.267,6.159,7.251c2.919,0.985,6.946,0.725,7.233-1.524c0.284-2.246-2.884-4.027-4.656-6.088
			c1.855-1.188,4.87,2.467,7.225,4.581c1.117,1.001,2.63,0.662,3.805-1.173c1.861-2.909-0.528-5.211-3.867-6.96
			c-2.985-1.565-6.744-2.629-8.666-4.278c-4.068-3.495-10.249-21.737-18.312-26.112
			C207.843,391.439,202.324,395.217,199.437,396.638z"/>
		<path fill-rule="evenodd" clip-rule="evenodd" d="M332.451,297.112c0,0-0.228,8.293,5.007,12.215
			c5.235,3.918,11.154,3.226,11.154,3.226s-8.877,4.61-14.341-0.461C328.809,307.022,332.451,297.112,332.451,297.112z"/>
		<g>
			<path fill-rule="evenodd" clip-rule="evenodd" d="M363.843,259.838c-0.19-1.678-1.534-3.441-2.947-3.791
				c-2.672-0.659-3.762,1.405-3.38,3.462c0.311,1.676,1.723,3.347,3.033,3.545C362.947,263.413,364.054,261.676,363.843,259.838z"/>
			<path fill-rule="evenodd" clip-rule="evenodd" fill="#FFFFFF" d="M359.426,258.797c-0.394,1.23,2.029,3,2.48,1.246
				C362.402,258.121,359.823,257.563,359.426,258.797z"/>
		</g>
		<path fill-rule="evenodd" clip-rule="evenodd" fill="#F5E3BE" d="M320.754,233.275c3.267-1.891,11.085-3.691,15.715-2.698
			c3.633,0.781,7.526,3.372,6.455,5.257c-2.106,3.695-14.033,7.103-19.926,7.674C317.105,244.075,312.897,237.824,320.754,233.275z"
			/>
		<path fill-rule="evenodd" clip-rule="evenodd" fill="#F5E3BE" d="M276.693,247.91c4.209-4.547,11.039-9.85,14.734-8.95
			c3.508,0.851,2.806,9.52-0.422,15.771c-3.228,6.251-14.593,27.564-22.03,32.537c-7.438,4.972-11.365-4.973-7.999-15.346
			C263.127,265.303,271.192,253.853,276.693,247.91z"/>
		<path fill-rule="evenodd" clip-rule="evenodd" fill="#F5E3BE" d="M161.81,309.832c1.584-4.941,6.416-11.369,9.982-10.827
			c3.565,0.54,9.804,14.439,5.17,29.96c-4.635,15.522-14.082,18.228-15.865,14.078C159.315,338.891,157.533,323.189,161.81,309.832z
			"/>
		<path fill-rule="evenodd" clip-rule="evenodd" fill="#F5E3BE" d="M158.601,397.37c0.439-1.967,5.348-2.706,6.418,0.36
			c1.069,3.067,0.892,8.123-1.426,9.386C161.276,408.381,157.355,402.966,158.601,397.37z"/>
		<path fill-rule="evenodd" clip-rule="evenodd" fill="#F5E3BE" d="M194.786,369.936c0.872-3.334,6.416-14.712,10.338-11.731
			c4.278,3.25,6.417,11.731,3.921,18.41c-2.496,6.679-7.486,10.468-10.872,9.747C194.786,385.639,193.181,376.072,194.786,369.936z"
			/>
		<path fill-rule="evenodd" clip-rule="evenodd" fill="#D7B482" d="M217.78,378.42c0,0,1.07-2.527,1.07-5.957
			c0-2.533-1.07-10.288-1.07-10.288s24.599,5.416,29.411,7.941c4.813,2.527,14.617,6.499,1.604,9.748
			C235.783,383.112,217.78,378.42,217.78,378.42z"/>
		<path fill-rule="evenodd" clip-rule="evenodd" fill="#D7B482" d="M323.303,320.482c0,0,3.387,6.681,5.348,8.483
			c1.96,1.804,5.704,4.151,5.704,4.151s-2.139,5.777-3.564,9.927c-1.428,4.149-5.17,13.175-5.17,13.175s-3.031-8.844-3.21-14.8
			C322.234,335.463,323.303,320.482,323.303,320.482z"/>
		<path fill-rule="evenodd" clip-rule="evenodd" fill="#D7B482" d="M250.579,317.776c0,0,3.207,13.174,15.508,16.783
			c12.298,3.612,25.49,3.249,29.945,1.987c4.457-1.265,7.487-4.15,8.376-4.332c0.893-0.181-15.684,24.547-38.857,16.785
			C242.378,341.238,249.509,315.246,250.579,317.776z"/>
		<path fill-rule="evenodd" clip-rule="evenodd" fill="#D7B482" d="M304.23,371.379c0,0,4.635-3.61,6.061-4.693
			c1.425-1.083,3.921-2.345,3.921-0.902c0,1.444-2.496,13.717-4.634,18.229c-2.139,4.513-4.813,4.872-5.171,2.527
			C304.053,384.192,304.23,371.379,304.23,371.379z"/>
		<path fill-rule="evenodd" clip-rule="evenodd" fill="#BD9166" d="M201.738,397.008l8.021-5.414c0,0,2.673,2.165,3.743,3.248
			c1.07,1.084,1.249,5.054-2.316,7.039c-3.566,1.985-5.883,1.265-6.417,0.183C204.233,400.98,201.738,397.008,201.738,397.008z"/>
		<path fill-rule="evenodd" clip-rule="evenodd" fill="#D7B482" d="M389.857,280.465c0,0,5.661,8.959,6.723,14.333
			c1.061,5.376,0.708,11.469,0.708,12.901c0,1.432,10.617-0.717,10.972-11.107C408.614,286.199,388.087,278.315,389.857,280.465z"/>
	</g>
	<g>
		<path fill-rule="evenodd" clip-rule="evenodd" d="M675.348,293.674c5.663,8.604,7.345,25.064,7.432,38.883
			c0.088,13.889-1.864,28.847-5.345,43.441c-0.962,4.031-3.415,9.988-1.835,15.883c0.89,3.314,4.658,4.816,4.184,9.311
			c-0.44,4.212-2.756,8.047-4.156,16.395c-1.335,7.97-1.837,16.622-3.451,17.384c-10.088,4.747-12.652,9.586-16.28,12.451
			c-2.35,1.857-8.493,0.629-10.617-1.7c-4.071,0.895-8.053,0-9.645-1.614c-5.308,1.255-10.54-1.98-10.963-3.751
			c-0.375-1.574,0.068-5.218,4.416-10.046c6.369-7.077,15.302-6.125,15.753-7.9c1.588-6.255,3.837-13.045,7.165-18.687
			c-6.301-0.728-12.541-2.986-15.11-4.207c-7.072,8.194-10.667,14.791-13.532,27.916c-2.415,11.074-8.663,10.731-14.376,7.559
			c-4.026,1.939-8.968,2.083-11.408-1.237c-4.505-0.089-11.308-5.597-5.865-10.602c5.442-5.002,11.427-5.353,13.03-7.539
			c2.303-3.138,9.093-19.432,17.795-25.528c-1.591-1.164-3.098-3.314-3.716-4.569c-17.253,4.301-36.959,2.994-47.302-3.037
			c0.141,19.649,7.374,49.151,7.374,52.204c0,7.759-7.662,6.527-11.466,4.228c-2.999,1.573-11.518,3.893-13.665-1.473
			c-6.089,3.188-12.609-0.591-13.225-4.508c-0.451-2.868,1.837-7.89,2.912-11.588c1.073-3.699,2.693-33.476,0.931-38.283
			c-1.424-3.893-6.661-6.382-10.768-8.917c-2.337,11.599,1.808,23.07,1.173,34.729c-0.485,8.855-0.931,19.953-6.661,23.13
			c-3.613,2.002-10.097,2.611-13.05-0.513c-3.992,1.669-10.149,1.888-12.223-1.444c-5.947,1.302-12.153-3.346-8.453-9.791
			c0.923-1.61,4.272-4.957,5.587-6.309c4.97-5.116,4.387-13.698,5.107-23.918c0.503-7.104,1.981-14.352,1.223-21.244
			c-0.574-5.242-3.79-12.094-5.502-17.329c-1.892-5.792-3.874-10.553-6.229-15.761c-2.833,1.345-6.253,2.289-10.678,1.941
			c-2.456-0.192-6.596-1.417-9.498-1.941c-4.85-0.876-8.903,0.071-13.52-0.741c-10.912-1.917-16.542-10.669-21.189-18.564
			c-7.229-1.08-13.633-4.477-16.521-8.735c-6.168-9.098-6.813-16.307,0.267-26.788c4.188-6.203,14.987-14.882,21.35-20.994
			c7.157-6.878,12.572-12.848,18.944-17.122c2.53-1.694,6.132-3.581,9.777-3.712c1.58-0.057,3.991,0.167,3.991,0.167
			s5.845-4.986,7.607-6.359c4.573-3.567,8.815-6.23,17.255-5.912c5.971,0.221,10.686,3.677,16.635,3.581
			c3.467-0.054,8.21-1.175,12.741-0.718c4.291,0.434,10.66,2.773,13.802,4.393c14.602,7.524,30.526,23.472,35.834,44.703
			c13.802,3.585,35.427,8.737,48.4,10.035c15.219,1.523,25.924,0.27,32.825-0.359c3.717-9.942,5.655-21.618,5.396-27.773
			c-0.332-7.911-1.743-14.42-3.628-21.77c-2.572-10.03-5.928-19.083-8.536-24.739C678.975,230.693,685.934,265.286,675.348,293.674z
			"/>
		<path fill-rule="evenodd" clip-rule="evenodd" fill="#FAF0D1" d="M662.166,223.523c4.335,3.226,9.393,12.669,11.851,20.902
			c4.857,16.27,5.128,36.391-2.284,50.715c4.324,2.564,8.585,26.934,7.941,41.666c-0.362,8.34-0.366,17.093-1.223,25.58
			c-0.88,8.715-5.097,17.895-4.886,26.401c0.137,5.627,3.927,6.752,4.071,11.552c0.107,3.574-2.081,7.492-3.258,11.55
			c-1.961,6.744-0.985,14.38-3.464,19.804c-0.746,1.633-3.764,2.554-5.704,3.714c-3.545,2.115-8.164,7.625-10.199,9.595
			c-2.036,1.972-6.768-0.1-7.932-1.138c-0.344-3.352,2.241-7.941,3.772-10.599c-4.101,0.046-5.752,7.615-6.623,10.599
			c-2.118,0.199-5.31-0.248-6.518-1.653c-1.007-5.29,2.26-8.317,5.09-10.825c-4.871-0.212-8.316,6.449-7.873,10.931
			c-2.921,0.445-6.245-0.649-8.014-2.372c0.248-2.964,2.715-8.136,6.419-10.532c5.638-3.643,13.277-4.004,13.539-5.194
			c1.768-8.064,6.37-19.263,8.493-22.397c-3.234-0.797-11.163-3.176-14.191-4.369c-10.032-3.95-19.161-7.787-21.604-18.744
			c-2.78-12.472,4.225-23.103,7.548-32.412c-9.912,10.226-12.872,26.633-9.194,36.329c-8.159,3.7-20.742,3.316-32.158,1.627
			c-4.911-0.727-11.236-3.153-14.744-5.474c-0.659-1.537-1.003-6.598-1.362-8.338c-3.419,0.813-0.941,20.09-0.286,26.03
			c1.363,12.343,7.309,35.023,7.16,38.354c-0.215,4.787-6.85,2.515-8.448,1.309c-0.433-1.736-0.823-7.575-2.435-8.631
			c-0.572,2.321-0.016,6.635-0.256,8.934c-1.744,2.235-7.765,2.74-9.34,0.277c-1.575-2.466-1.146-7.47-1.002-9.935
			c-2.435,1.885-2.291,6.381-2.149,8.483c-2.843,2.361-10.17-0.29-10.238-3.409c-0.073-3.116,3.005-8.409,3.794-14.861
			c0.787-6.453,2.304-28.977,0-35.673c-0.688-2-4.919-5.156-7.751-6.763c-4.269-2.419-7.207-4.355-10.799-7.013
			c-2.749-2.037-6.118-5.058-7.127-8.664c-5.485,1.167,1.276,6.641,3.408,8.518c2.74,2.411,4.868,3.914,7.017,5.511
			c-1.457,9.73,0.919,20.99,1.594,32.175c0.336,5.598-0.951,20.027-4.386,23.653c-3.438,3.625-9.238,3.334-12.523,0.483
			c-0.654-3.385,2.139-6.502,3.284-8.024c-2.522-0.475-5.513,3.625-5.728,7.815c-3.006,1.32-8.45,1.396-10.186-1.441
			c-0.486-3.077,2.81-6.374,5.174-8.259c-5.585,0.435-7.447,4.93-8.026,8.259c-4.882,1.479-5.443-5.01-3.257-7.633
			c1.809-2.175,5.771-4.757,7.346-8.457c3.909-9.179,2.875-23.463,4.584-35.166c0.443-3.04,0.573-8.629-3.151-18.053
			c-1.783-4.516-8.866-23.645-8.866-23.645s5.668-3.156,8.582-7.522c6.459-9.676,8.849-15.59,6.194-21.684
			c-0.361,2.834-0.709,4.659-1.947,8.603c-1.167,3.713-5.929,12.542-14.777,17.291c-2.655,1.424-9.846,3.256-14.058,2.824
			c-2.907-0.299-5.674-1.326-9.168-1.444c-2.082-0.072-3.75,0.433-6.316,0.206c-5.732-0.505-11.335-3.197-14.787-6.156
			c-3.451-2.955-9.291-10.751-10.472-18.597c-3.003-19.915,12.688-27.78,20.776-38.572c1.464-1.95,4.118-5.454,3.874-7.632
			c-2.145,2.357-6.458,8.171-8.359,10.324c-7.748,8.771-17.923,16.205-19.144,30.311c-0.389,4.503,0.142,7.685,0.816,10.934
			c-10.038,0.27-16.471-9.135-16.298-19.39c0.195-11.527,9.049-19.359,15.686-24.96c5.678-4.79,10.897-11.389,16.907-16.502
			c5.992-5.096,11.612-11.86,20.634-10.937c-2.476,3.046-6.99,7.615-6.374,11.556c4.246-4.099,6.993-9.047,12.479-13.797
			c5.486-4.747,11.424-10.334,21.135-9.718c5.829,0.37,10.456,2.874,15.888,3.302c4.048,0.316,7.005-1.33,11.817-0.826
			c3.215,0.339,7.048,1.337,9.981,2.681c19.326,8.854,33.56,24.895,39.115,48.682c0.806,3.457,2.048,10.889,1.96,17.699
			c-0.088,6.809-1.36,19.977-9.702,25.205c-11.043,6.922-32.242,7.616-40.105-1.342c-3.202-3.646-5.234-9.726-6.595-16.798
			c-1.981-10.302-3.232-51.978-3.232-51.978l-3.452-1.228c0,0,1.911,44.25,3.669,53.638c2.682,14.326,8.691,25.354,24.024,26.535
			c9.929,0.767,20.047-1.574,26.644-5.194c4.681-2.569,9.031-10.085,10.484-16.143c2.306-9.625,1.51-21.291-0.588-31.511
			c3.541,0.448,7.346,1.523,11.503,2.867c0.379,13.563,4.285,31.022,13.704,37.232c5.902,3.891,16.217,5.123,23.222,2.476
			c11.401-4.306,15.023-17.731,16.501-31.972c4.145-0.204,12.314-0.301,16.825-0.748c2.231-2.611,3.188-7.844,4.159-10.804
			C674.446,262.692,667.916,238.843,662.166,223.523z M480.647,272.039c5.353,13.435,35.156,10.341,33.001-8.456
			c-1.107-9.686-10.219-16.055-20.575-14.646C483.453,250.243,476.355,261.264,480.647,272.039z M635.469,332.477
			c-3.81,3.366-7.265,8.366-7.945,13.406c4.338-6.128,7.626-13.317,15.484-15.881C640.743,327.916,637.292,330.865,635.469,332.477z
			"/>
		<path fill-rule="evenodd" clip-rule="evenodd" d="M493.073,248.937c10.356-1.409,19.467,4.96,20.575,14.646
			c2.154,18.797-27.648,21.891-33.001,8.456C476.355,261.264,483.453,250.243,493.073,248.937z"/>
		<path fill-rule="evenodd" clip-rule="evenodd" fill="#E4C89A" d="M493.685,250.173c10.048-1.269,19.441,5.976,18.594,16.356
			c-0.804,9.888-13.627,15.895-24.952,11.109c-7.179-3.033-8.075-13.003-4.601-19.98
			C484.428,254.243,489.111,250.753,493.685,250.173z"/>
		<path fill-rule="evenodd" clip-rule="evenodd" d="M472.498,258.219c4.555-1.198,3.479,5.22,0.409,5.983
			C468.673,265.252,469.719,258.947,472.498,258.219z"/>
		<path fill-rule="evenodd" clip-rule="evenodd" d="M486.462,258.219c5.083-0.821,3.447,7.167-0.212,7.221
			C481.971,265.497,482.516,258.855,486.462,258.219z"/>
		<path fill-rule="evenodd" clip-rule="evenodd" fill="#FFFFFF" d="M485.102,261.107c0.442-1.068,2.063-1.607,2.579-0.482
			c0.517,1.125-0.275,2.492-1.349,2.652C485.262,263.438,484.733,262,485.102,261.107z"/>
		<path fill-rule="evenodd" clip-rule="evenodd" fill="#FFFFFF" d="M473.633,260.585c0.28,0.923-1.426,2.249-1.745,0.935
			C471.54,260.08,473.356,259.66,473.633,260.585z"/>
		<path fill-rule="evenodd" clip-rule="evenodd" d="M474.465,295.853c5.612,13.62-20.41,20.113-24.851,9.281
			C444.286,292.148,470.405,285.121,474.465,295.853z"/>
		<path fill-rule="evenodd" clip-rule="evenodd" fill="#E4C89A" d="M643.671,293.228c1.146,13.664-3.295,25.798-12.685,29.967
			c-6.273,2.786-16.294,1.767-22.203-1.651c-7.225-4.18-10.504-15.134-11.918-25.002c-0.453-3.16-0.659-8.216,0.09-10.395
			C602.352,287.314,626.42,293.137,643.671,293.228z"/>
		<path fill-rule="evenodd" clip-rule="evenodd" fill="#E4C89A" d="M465.385,292.871c5.585-0.375,10.087,5.593,6.228,11.028
			c-3.825,5.393-18.556,7.265-20.778,0.205C448.143,295.545,458.707,293.314,465.385,292.871z"/>
		<path fill-rule="evenodd" clip-rule="evenodd" d="M504.23,297.705c2.83-0.983,3.627,3.853,3.107,8.574
			c-0.355,3.2-2.748,7.988-5.298,9.902c-2.403,1.801-9.947,2.9-11.703-1.095c5.258,1.854,10.783-0.383,13.529-4.541
			C505.186,308.543,506.618,302.274,504.23,297.705z"/>
		<path fill-rule="evenodd" clip-rule="evenodd" d="M496.335,299.678c8.025-1.558,5.201,10.727-1.22,9.943
			C490.547,309.064,492.24,300.474,496.335,299.678z"/>
		<path fill-rule="evenodd" clip-rule="evenodd" d="M645.916,328.754c-7.856,2.563-14.055,11.001-18.393,17.129
			c0.681-5.04,4.487-10.863,8.297-14.23C637.645,330.041,643.653,326.665,645.916,328.754z"/>
		<path fill-rule="evenodd" clip-rule="evenodd" fill="#E8D7B2" d="M634.041,398.506c-5.718,8.078-8.959,13.987-11.25,20.804
			c-1.146,3.407-1.875,11.643-4.439,13.704c-2.566,2.06-6.633,1.344-7.736-0.084c1.128-2.618,2.276-4.8,2.363-6.949
			c-1.945,1.703-3.24,6.266-6.158,7.251c-2.917,0.985-6.944,0.725-7.231-1.523c-0.287-2.247,2.884-4.028,4.652-6.091
			c-1.851-1.185-4.866,2.467-7.223,4.583c-1.117,1-2.629,0.661-3.804-1.174c-1.862-2.909,0.528-5.21,3.869-6.961
			c2.984-1.564,6.742-2.629,8.663-4.277c4.069-3.494,10.25-21.737,18.313-26.111C625.635,393.309,631.155,397.087,634.041,398.506z"
			/>
		<path fill-rule="evenodd" clip-rule="evenodd" fill="#FFFCE7" d="M431.013,277.676c1.46-1.477,12.033-11.824,12.386-5.731
			c0.355,6.091-6.723,21.141-10.97,24.366c-4.246,3.227-8.139,1.434-8.139-2.868C424.29,289.145,426.767,281.977,431.013,277.676z"
			/>
		<path fill-rule="evenodd" clip-rule="evenodd" fill="#FFFCE7" d="M483.461,241.249c1.55-3.663,9.719-8.261,14.579-8.965
			c4.862-0.701,9.375,1.056,10.938,2.813c1.562,1.757-7.987,5.976-13.54,7.207C489.884,243.534,481.899,244.941,483.461,241.249z"/>
		<path fill-rule="evenodd" clip-rule="evenodd" fill="#FFFCE7" d="M525.467,237.732c1.539-2.999,9.201-2.635,15.623,0.528
			c6.421,3.163,11.282,9.315,12.671,14.062c1.389,4.745-8.159,13.006-15.102,10.194C531.715,259.701,520.78,246.873,525.467,237.732
			z"/>
		<path fill-rule="evenodd" clip-rule="evenodd" fill="#FFFCE7" d="M637.078,341.434c5.912-5.79,18.054-14.238,22.912-10.37
			c4.861,3.865,2.776,16.873-11.456,32.866c-14.233,15.993-23.087,7.908-22.044-1.056
			C627.531,353.91,631.872,346.53,637.078,341.434z"/>
		<path fill-rule="evenodd" clip-rule="evenodd" fill="#FFFCE7" d="M651.66,424.216c1.928-1.061,7.289-1.408,9.719,0.35
			c2.431,1.759,0,7.909-5.206,7.206C650.965,431.069,645.583,427.556,651.66,424.216z"/>
		<path fill-rule="evenodd" clip-rule="evenodd" fill="#FFFCE7" d="M528.767,309.972c-0.649-4.606-2.604-13.885-0.694-19.686
			c1.909-5.799,10.587,3.341,14.58,14.062c3.993,10.721,4.69,22.497-0.693,21.443C536.577,324.737,530.156,319.815,528.767,309.972z
			"/>
		<path fill-rule="evenodd" clip-rule="evenodd" fill="#ECDCBA" d="M500.3,335.28c0,0,5.035-3.688,6.944-6.149
			c1.909-2.46,4.166-6.152,5.208-8.613c1.042-2.461,9.894,7.911,7.81,14.94c-2.083,7.029-14.06,15.466-14.927,13.885
			C504.467,347.761,500.3,335.28,500.3,335.28z"/>
		<path fill-rule="evenodd" clip-rule="evenodd" fill="#ECDCBA" d="M539.357,335.983c1.577,0.477,13.191,2.637,23.606-0.527
			c10.415-3.162,15.275-5.976,17.881-10.544c2.602-4.57,5.891,6.869-0.87,15.994c-7.29,9.842-24.129,14.938-36.452,7.029
			C531.199,340.026,529.462,332.997,539.357,335.983z"/>
		<path fill-rule="evenodd" clip-rule="evenodd" fill="#ECDCBA" d="M519.223,364.633l10.066,8.787c0,0-0.173,5.801,0,8.787
			c0.173,2.988,1.216,7.032,0.696,7.735c-0.523,0.703-5.73-7.91-7.291-11.952C521.131,373.948,519.223,364.633,519.223,364.633z"/>
		<path fill-rule="evenodd" clip-rule="evenodd" fill="#ECDCBA" d="M616.079,381.33c0,0-1.908-7.732-0.521-14.413
			c1.388-6.68,3.646-11.425,4.514-12.831c0.867-1.405-16.838,13.183-17.357,20.213c-0.521,7.031,0.521,9.49,2.95,9.49
			C608.097,383.789,616.079,382.911,616.079,381.33z"/>
		<path fill-rule="evenodd" clip-rule="evenodd" fill="#ECDCBA" d="M657.738,402.597c0,0,3.298,1.406,5.378,1.406
			c2.086,0,2.433,2.107-0.344,4.217c-2.776,2.11-7.463,4.043-8.158,2.285C653.92,408.746,656.176,402.597,657.738,402.597z"/>
		<path fill-rule="evenodd" clip-rule="evenodd" fill="#DBC199" d="M623.891,393.28c0,0,1.908,1.756,3.992,2.987
			c2.083,1.231,4.34,2.285,4.34,2.285s-3.126,5.271-4.167,6.502c-1.041,1.231-5.208,1.057-7.636-1.229
			c-2.431-2.284-2.605-4.218-1.563-5.624C619.898,396.795,623.891,393.28,623.891,393.28z"/>
	</g>
	<g>
		<path fill-rule="evenodd" clip-rule="evenodd" fill="#B10021" d="M416.127,263.491c0,0-15.489-24.97-36.922-38.397
			c-13.761-8.62-25.363-25.325-23.405-44.294c1.657-16.046,16.164-28.683,37.531-27.198c26.922,1.868,29.004,32.921,29.004,32.921
			s6.301-29.881,30.973-31.482c25.146-1.633,36.375,14.088,34.966,33.768c-1.749,24.407-24.874,34.691-40.494,45.864
			C433.937,244.578,416.127,263.491,416.127,263.491z"/>
		<path fill-rule="evenodd" clip-rule="evenodd" fill="#FF0017" d="M417.638,252.659c0,0-11.993-19.701-30.65-29.956
			c-13.345-7.334-24.788-22.398-23.989-38.321c0.719-14.293,11.462-25.369,28.786-24.829c25.58,0.796,29.851,44.799,29.851,44.799
			s9.072-41.986,32.782-42.91c20.79-0.809,29.318,12.955,27.718,27.258c-2.218,19.837-19.902,29.207-34.914,39.132
			C433.917,236.627,417.638,252.659,417.638,252.659z"/>
	</g>
</g>
</svg>
