<?xml version="1.0" encoding="utf-8"?>
<!-- Generator: Adobe Illustrator 17.0.0, SVG Export Plug-In . SVG Version: 6.00 Build 0)  -->
<!DOCTYPE svg PUBLIC "-//W3C//DTD SVG 1.1//EN" "http://www.w3.org/Graphics/SVG/1.1/DTD/svg11.dtd">
<svg version="1.1" id="Layer_1" xmlns="http://www.w3.org/2000/svg" xmlns:xlink="http://www.w3.org/1999/xlink" x="0px" y="0px"
	 width="800px" height="600px" viewBox="0 0 800 600" enable-background="new 0 0 800 600" xml:space="preserve">
<g>
	<path fill="#141111" d="M208.186,389.142l-21.68-12.584l-22.701,13.219l5.707-25.565l-19.947-17.115l26.438-2.863l10.503-21.28
		l10.502,21.28l26.002,3.401l-19.512,16.577L208.186,389.142z"/>
	<polygon fill="#F1CC00" points="186.625,329.307 194.98,347.903 216.003,349.655 199.831,363.402 204.009,383.211 187.029,372.97 
		169.779,382.269 174.092,361.918 156.784,349.032 178.674,347.365 	"/>
	<path fill="#F9E156" d="M180.579,348.096l6.043-15.445c0,0,1.511,9.401,1.007,10.576
		C187.126,344.402,180.579,348.096,180.579,348.096z"/>
	<path fill="#F9E156" d="M189.812,349.272l22.496,1.006c0,0-9.737,4.7-11.416,4.7C199.213,354.978,189.812,349.272,189.812,349.272z
		"/>
	<path fill="#F9E156" d="M161.82,351.269l15.086,10.321c0,0-3.343-7.667-4.764-8.733C170.554,351.665,161.82,351.269,161.82,351.269
		z"/>
</g>
<g>
	<g>
		<path fill="#141111" d="M414.276,178.366l-13.371-16.976l-23.232,9.747l10.06-23.281l-17.335-14.208l22.18-3.217l3.487-22.905
			l14.027,18.389l20.97-7.908l-8.304,20.817l19.57,14.808l-24.414,2.616L414.276,178.366L414.276,178.366z"/>
		<polygon fill="#F1CC00" points="397.916,114.704 408.551,129.497 426.377,122.536 419.343,139.518 434.629,151.304 
			415.489,153.177 412.552,171.469 402.217,157.294 384.263,164.846 391.977,147.271 377.312,135.187 395.209,133.354 		"/>
	</g>
	<path fill="#F9E156" d="M398.648,117.513l-2.845,17.203c0,0,4.927-5.777,5.24-7.245
		C401.358,126.003,398.648,117.513,398.648,117.513z"/>
	<path fill="#F9E156" d="M405.793,131.1l18.717-7.426c0,0-5.661,5.621-7.805,7.386C414.56,132.826,405.793,131.1,405.793,131.1z"/>
	<path fill="#F9E156" d="M381.53,136.701l11.531,9.735c0,0-0.916-6.733-1.983-7.689C390.012,137.793,381.53,136.701,381.53,136.701z
		"/>
</g>
<g>
	<g>
		<path fill="#141111" d="M643.745,402.025l-21.004-11.045l-22.511,13.825l5.517-26.171l-16.993-16.565l23.485-3.412l10.502-21.28
			l10.502,21.28l26.416,2.617l-19.924,17.359L643.745,402.025L643.745,402.025z"/>
		<polygon fill="#F1CC00" points="622.735,344.295 631.089,361.949 653.325,363.431 636.345,377.176 639.984,396.312 622.6,386.475 
			604.811,397.932 609.258,377.446 595.513,364.241 614.38,361.814 		"/>
	</g>
	<path fill="#F9E156" d="M615.749,362.182l6.716-15.445c0,0,1.006,8.897,0.169,10.238
		C621.793,358.319,615.749,362.182,615.749,362.182z"/>
	<path fill="#F9E156" d="M628.173,363.02l22.328,1.344c0,0-11.752,3.525-14.102,3.356
		C634.048,367.554,628.173,363.02,628.173,363.02z"/>
	<path fill="#F9E156" d="M599.168,366.128l12.307,10.321c0,0-0.397-6.351-1.589-7.94
		C608.695,366.919,599.168,366.128,599.168,366.128z"/>
</g>
<g>
	<path fill="#141111" d="M681.534,423.719c0.607-2.062,0.166-3.329-1.061-4.166c0.815-0.836,2.165-3.077,0.495-5.314
		c-2.095-2.81-7.101-1.605-7.101-1.605c0.216-1.784-0.766-5.627-3.267-6.274c-3.995-1.031-7.351,2.51-8.579,7.112
		c-2.041-4.602-6.612-7.563-11.439-6.557c-4.825,1.005-5.898,4.943-5.989,7.506c-0.087,2.566,0.897,4.179,1.789,4.212
		c2.415,0.094,6.524,1.098,7.878,7.396c-1.711,4.323-0.408,9.625,0.816,13.81c0,2.927-3.6,14.5-6.279,14.687
		c-2.685,0.184-12.339-8.265-21.497-15.945c-9.158-7.68-22.049-16.666-27.299-17.106c-0.984-4.306-2.413-7.104-5.245-8.087
		c-2.831-0.985-6.668,0.084-8.302,1.342c0-6.28-0.742-9.234-3.266-10.883c0.818-2.092,4.426-3.947,3.682-13.092
		c-0.992-12.199-34.23-42.015-49.278-52.857c-15.047-10.843-29.972-21.515-34.06-23.609c3.727-12.662-1.324-33.214-6.944-39.756
		c0.798-2.037,4.146-19.644-7.354-36.827c-11.497-17.186-17.15-24.273-20.422-28.042c1.224-1.674,2.043-3.765,2.043-6.277
		c2.043-0.836,3.304-4.565,1.229-12.134c2.038,3.347,5.048,4.947,7.169,4.947c2.125,0,4.284-0.9,4.691-2.993
		c1.23,0,26.116,0,45.317-0.462c0.534,21.592,3.467,30.887,12.806,44.279c9.339,13.394,31.295,27.937,57.894,27.88
		c26.596-0.055,55.489-18.858,65.094-48.924c9.602-30.067-3.036-58.628-6.714-64.068c-14.7-22.179-46.531-34.697-80.792-25.858
		c-36.015,9.292-46.671,47.916-47.49,57.125c-9.288,0.143-42.042,0.686-48.994,0.959c-2.862-5.44-8.351-9.384-10.896-8.181
		c-2.548,1.2-1.71,4.944-1.71,4.944c-2.447-5.024-4.551-6.388-6.999-6.388c-2.453,0-4.084,1.672-4.084,5.44
		c-1.638-3.347-3.628-4.855-5.704-4.409c-2.078,0.445-3.283,1.479-4.102,5.246c-0.406-0.838-3.003-2.258-5.309-0.42
		c-0.509-4.002-2.386-6.268-5.769-5.855c-3.385,0.413-3.864,3.278-3.626,5.021c0.241,1.743,0.876,3.424,3.268,4.602
		c-0.408,0-56.568-0.109-60.654,0.31c1.558-1.123,3.058-2.602,3.985-4.259c0.922-1.655-1.391-4.318-4.795-4.436
		c-3.407-0.12-5.934,1.691-6.341,5.038c-1.624-4.624-5.609-2.494-5.609-2.494c-0.412-2.094-4.506-4.493-8.279-0.436
		c-0.41-1.675-0.768-2.504-2.452-2.51c-3.125-0.012-7.732,0.962-8.555,3.894c-0.813-0.838-3.981-1.539-5.827-0.71
		c-2.296,1.028-2.599,3.192-2.948,4.671c-2.135,0.12-45.394,0.249-57.239,0.249c0-3.344-2.075-28.656-16.113-45.353
		c-14.037-16.693-42.476-27.889-74.221-18.097c-26.702,8.236-48.564,28.346-50.266,64.978c-1.822,39.195,24.124,68.58,60.406,70.766
		c47.817,2.884,77.16-21.363,79.926-63.548c24.007,0.275,53.034,0.296,55.892-0.121c-0.751,2.721-1.81,4.855-1.907,6.507
		c-0.286,4.97,5.126,3.62,6.35,2.365c1.214,2.958,3.065,4.53,3.88,4.949c-1.567,3.212-12.767,20.305-19.522,29.179
		c-6.756,8.871-10.086,12.022-16.74,21.53c-7.913,11.298-5.398,18.343-5.398,18.343c-1.636,2.092-9.909,16.055-11.848,18.832
		c-1.938,2.777-6.953,12.283-6.401,19.211c0.551,6.928,3.134,13.013,4.359,13.849c-11.029,7.535-18.649,11.386-26.55,17.997
		c-7.904,6.613-19.311,17.289-26.587,29.316c-7.279,12.027-16.704,28.8-8.952,40.573c-2.451-1.675-4.503-2.24-5.718-2.096
		c-2.303,0.279-3.12,1.614-2.859,7.115c0,0-0.41,0-1.227,0c-2.04,0-3.675,1.258-5.718,4.188
		c-2.859,0.834-31.684,13.062-40.666,15.574c-8.982,2.51-12.9,1.338-16.521-0.509c0,0,0.132-9.898-1.226-16.74
		c-1.357-6.842-5.766-13.53-9.805-15.064c-0.018-2.588,2.702-3.175,4.763-5.879c2.06-2.706,2.956-4.811,2.59-7.515
		c-0.363-2.705-2.367-5.75-6.125-5.021c-7.591,1.473-9.397,9.206-9.803,11.297c-1.636-2.091-3.682-3.478-6.13-3.344
		c-3.357,0.183-4.839,4.206-4.143,6.529c-4.361,1.433-3.207,6.026-2.797,6.443c-2.744,5.452,2.754,7.554,5.152,6.213
		c-1.174,11.444,6.863,16.428,7.508,18.896c0.641,2.467-2.661,5.473-5.348,8.353c-2.687,2.876-5.132,7.135-3.785,12.016
		c1.342,4.883,4.763,7.385,9.895,7.136c5.133-0.25,12.098-6.762,17.473-6.01c5.375,0.752,7.169,5.676,12.81,9.474
		c5.638,3.795,12.897,6.969,21.242,6.696c8.343-0.271,14.294-2.93,18.381-9.207c5.113,0.796,10.243,5.306,17.209,6.555
		c6.964,1.253,12.606-0.278,14.649-1.531c2.044,2.508,3.443,4.288,5.593,4.797c2.146,0.508,23.644-2.201,33.565-3.22
		c9.922,6.27,21.166,10.672,41.339,14.741c20.174,4.067,38.695,6.027,74.081,4.914c48.449-1.525,92.931-5.42,136.253-19.82
		c4.084,2.094,20.672,9.655,22.986,10.165c2.313,0.509,6.833-4.045,10.104-6.977c3.947,1.218,14.865,3.59,34.722-6.276
		c5.504,9.052,15.421,11.525,23.556,10.976c8.131-0.549,10.346-1.769,14.021-3.442c3.676-2.092,9.214-3.329,10.464-2.967
		c1.251,0.367,1.609,4.854,5.362,7.327c3.755,2.471,7.814,3.133,12.691,1.464c4.019-1.375,7.862-4.394,7.418-10.254
		c-0.446-5.86-1.251-9.8-0.536-11.903c0.713-2.106,12.369-11.498,13.046-17.856c0.677-6.359-1.393-12.251-1.92-13.714
		C677.118,424.742,680.562,427.023,681.534,423.719z M437.77,192.504c-0.206,1.853-0.409,3.771-0.409,5.443
		c0,5.44,2.04,7.953,4.901,7.953c1.224,0,2.451-0.419,3.266-1.255c1.152,2.488,2.927,4.41,4.905,5.44
		c-1.375,9.27-2.472,29.46-2.862,35.572c-0.392,6.112-1.867,12.601-3.674,18.832c-1.81,6.233-3.149,9.526-6.942,14.228
		c-0.411-3.765-0.82-7.95-1.637-11.719c4.493,0,6.588-2.769,6.915-7.103c0.334-4.335-1.879-8.594-5.278-9.216
		c-3.4-0.623-6.129,1.255-6.947,2.51c-6.263-16.513-22.314-24.737-31.86-25.109c-0.818-1.255-1.637-3.346-1.637-5.858
		c0-4.183,2.036-6.365,4.486-6.365c2.041,0,2.944,1.359,2.77,3.37c-0.172,2.011-2.192,3.786-3.576,2.158c0,0,1.093-1.623-0.289-1.98
		c-1.387-0.356-1.705,1.428-1.387,2.365c0.522,1.539,4.62,3.017,6.697-1.063c1.016-2,0.174-6.329-3.752-6.744
		c-3.528-0.371-6.115,2.635-6.641,5.796c-0.519,3.136,0.171,5.974,0.983,8.222c-10.211,1.255-24.885,8.101-31.968,23.953
		c-5.674-3.548-9.602,3.429-9.659,7.629c-0.055,4.203,1.965,6.331,4.564,5.325c-0.29,0.946-1.438,6.296-1.848,9.646
		c-1.849-2.843-3.869-11.894-4.966-19.878c-1.1-7.983-1.677-17.977-1.618-23.184c0.06-5.205,0.456-13.016,1.682-17.622
		c0.815-3.764,1.634-5.858,2.042-7.112c2.395,0.187,7.187-2.474,9.727-4.841c1.213,0.473,6.466,1.835,7.021-8.551
		C370.779,193.344,420.148,192.745,437.77,192.504z"/>
	<path fill="#EDCBAA" d="M676.717,414.26c1.944,0.358,3.489,1.715,2.959,3.255c-0.529,1.537-2.273,1.691-3.766,1.819
		c-1.491,0.127-2.951,0.445-4.273,1.806c-0.751-0.637-1.634-1.135-2.262-1.391c0.815-1.672,1.687-2.967,2.856-4.185
		C673.404,414.348,674.775,413.898,676.717,414.26z"/>
	<path fill="#EDCBAA" d="M668.187,409.112c1.154-0.423,2.821,0.595,2.821,2.27c0,1.252-1.226,3.765-4.084,7.532h-2.862
		C663.657,418.494,664.19,410.583,668.187,409.112z"/>
	<path fill="#EDCBAA" d="M470.907,177.947c1.778-0.824,4.559,1.784,7.106,5.253c2.545,3.468,5.26,8.034,3.182,9.888
		c-2.079,1.855-6.099-1.442-7.506-3.33c-1.408-1.888-2.615-4.703-3.283-6.351C469.735,181.758,469.133,178.771,470.907,177.947z"/>
	<path fill="#EDCBAA" d="M461.462,176.605c2.476-0.546,4.491,4.602,6.94,10.462c1.634,5.023,4.614,13.392,0.41,13.81
		c-4.203,0.417-7.724-11.769-8.458-14.758C459.615,183.131,458.98,177.148,461.462,176.605z"/>
	<path fill="#EDCBAA" d="M452.174,178.36c3.318-0.687,5.565,13.905,5.865,17.648c0.301,3.742-0.775,5.848-3.082,5.802
		c-3.319-0.069-5.75-6.373-5.75-18.09C449.207,183.72,448.857,179.044,452.174,178.36z"/>
	<path fill="#EDCBAA" d="M448.39,196.689c0.817,5.026,3.597,7.778,6.567,7.663c2.647-0.106,3.884-1.24,4.757-3.435
		c1.039-2.611-0.402-9.45-0.402-11.123c0,0.419,1.724,7.328,3.374,9.829c1.651,2.498,2.961,4.111,6.044,4.077
		c0.569,5.693-5.161,6.28-8.011,5.836c0.536,2.678,4.01,1.804,5.233,1.804c1.638,3.349,6.167,9.691,13.778,19.381
		c7.61,9.695,12.805,23.466,13.016,31.919c0.214,8.454-2.791,14.836-4.835,19.021c2.132,2.258,6.229-0.431,7.452-3.363
		c3.501,6.788,6.345,23.855,1.712,38.764c4.126,2.649,9.738,6.526,15.037,10.203c-4.118,13.343-11.306,20.869-25.736,21.342
		c-14.429,0.473-31.295-11.556-39.398-29.681c-5.607-12.542-8.386-27.509-8.931-33.714c2.073-1.773,6.24-7.198,8.328-13.256
		c2.089-6.058,3.755-14.386,4.224-20.394c0.469-6.01,0.435-12.636,0.971-21.425c0.539-8.79,1.72-18.798,1.72-18.798
		c3.173,1.115,3.745-1.083,3.745-1.083c-5.7-1.888-8.614-4.018-9.871-8.542C447.571,200.459,448.121,198.787,448.39,196.689z"/>
	<path fill="#EDCBAA" d="M444.499,181.655c1.571-0.018,1.929,2.062,1.812,8.138c-0.168,8.755-1.878,13.32-3.686,13.664
		c-1.81,0.344-3.017-1.098-3.32-4.016c-0.299-2.918,0.136-7.451,1.006-11.674C441.182,183.542,442.927,181.673,444.499,181.655z"/>
	<path fill="#EDCBAA" d="M434.093,178.697c0.085-1.747,1.121-3.085,3.267-2.93c2.145,0.153,3.036,1.888,3.856,5.234
		c-0.82,0.838-1.769,2.003-2.179,3.676c-0.435-0.755-0.87-1.166-2.245-1.75C435.418,182.342,434.007,180.445,434.093,178.697z"/>
	<path fill="#EDCBAA" d="M434.093,263.65c-0.821-2.929-1.715-5.529-2.86-7.95c0.817-1.255,6.366-4.777,7.986,1.028
		C440.837,262.532,436.717,264.075,434.093,263.65z"/>
	<path fill="#EDCBAA" d="M364.218,257.802c2.425-5.325,5.771-12.466,11.365-17.546c5.597-5.081,12.361-8.658,20.797-8.848
		c10.563-0.235,24.033,8.759,29.011,22.007c3.676,9.784,6.509,19.725,6.015,25.643c-0.489,5.921-3.216,9.477-10.027,13.497
		c-6.812,4.022-16.417,8.037-34.43,8.1c-18.014,0.058-27.401-8.152-27.076-19.571C360.133,271.92,361.794,263.125,364.218,257.802z"
		/>
	<path fill="#EDCBAA" d="M359.141,262.877c-1.671,0.827-3.06-0.354-2.943-3.488c0.114-3.137,4.039-8.401,6.464-5.148
		C361.027,257.17,359.547,261.573,359.141,262.877z"/>
	<path fill="#EDCBAA" d="M388.771,305.372c16.748,0,34.558-6.604,40.679-12.197c1.325,4.403,2.975,16.434,1.657,26.938
		c-2.591,20.579-11.313,32.261-32.145,32.261c-20.012,0-31.325-17.866-35.818-53.439C368.268,303,376.109,305.372,388.771,305.372z"
		/>
	<path fill="#EDCBAA" d="M373.169,177.467c2.769-0.649,5.252,1.241,4.327,2.545c-0.923,1.302-2.663,2.505-7.155,6.271
		c-0.404-1.361-0.869-2.487-1.097-3.49C369.244,181.953,370.4,178.117,373.169,177.467z"/>
	<path fill="#EDCBAA" d="M361.969,192.077c0.404-4.553,1.04-9.287,0.924-10.766c-0.116-1.479,1.359-2.307,2.657-1.773
		c1.298,0.531,2.715,4.909,3.059,9.404c0.347,4.496,0.287,10.114-2.599,10.41C363.123,199.649,361.565,196.63,361.969,192.077z"/>
	<path fill="#EDCBAA" d="M353.216,189.156c0.815-2.927,1.074-6.366,1.247-8.79c0.817-1.675,2.708-3.246,4.471-2.924
		c1.763,0.322,2.286,1.801,1.822,6.533c-0.462,4.73-1.733,15.143-5.37,14.55C351.752,197.934,353.216,190.414,353.216,189.156z"/>
	<path fill="#EDCBAA" d="M343.897,187.581c0.348-1.953,0.868-4.791,0.868-6.682c0-1.895,3.692-3.846,5.77-3.904
		c2.08-0.058,2.025,1.657,1.907,3.964c-0.054,1.083-0.401,5.974-1.847,9.876c-1.446,3.904-3.41,6.695-5.145,6.695
		c-1.632,0-2.017-1.841-2.185-3.381C343.09,192.61,343.554,189.534,343.897,187.581z"/>
	<path fill="#EDCBAA" d="M336.682,199.531c-2.136,1.124-3.752,0.828-3.638-1.717c0.117-2.54,1.566-4.4,2.196-7.817
		c0.633-3.419,1.229-8.382,3.27-9.628c2.04-1.246,4.258,0.328,4.061,3.547C342.372,187.131,338.82,198.407,336.682,199.531z"/>
	<path fill="#EDCBAA" d="M284.999,314.708c-0.565-7.135,2.735-15.25,6.127-20.088c3.393-4.835,6.702-12.288,9.394-15.904
		c0,1.675,1.523,6.167,3.025,5.573c-0.982-5.44-1.265-12.499,1.878-19.381c3.144-6.88,8.052-13.484,13.478-20.09
		c5.428-6.606,20.61-27.484,24.104-37.664c4.703,0.184,5.716-2.092,5.716-2.092c-7.825,0.621-9.787-5.056-9.787-5.056
		c1.227-1.255,1.904-3.195,2.844-5.823c0.042,2.806,1.11,5.527,3.967,5.527c1.792,0,3.792-1.763,5.429-5.527
		c0,3.989,1.427,6.044,3.693,6.354c2.271,0.313,4.068-1.335,5.703-5.099c0.187,2.498,0.763,4.272,1.629,5.44
		c-1.629,1.674-6.002,3.976-11.025,4.604c0,0-0.637,1.089,0.806,1.443c-1.225,1.672-3.575,9.404-4.153,13.484
		c-0.578,4.081-1.503,12.006-1.099,18.63c0.403,6.629,3.177,31.348,8.835,41.522c-0.06,3.255,0.98,7.515,2.963,10.712
		c-5.964,9.864-9.439,15.621-13.405,21.385c-3.968,5.759-7.939,11.689-15.379,17.448c-7.442,5.76-15.874,9.596-25.135,9.712
		c-9.26,0.115-15.708-2.425-17.973-7.951c0.542-0.344,4.03-3.61,4.58-3.961C288.731,325.87,285.565,321.843,284.999,314.708z"/>
	<path fill="#DB921A" d="M255.993,354.674c13.066-12.536,21.246-16.529,29.006-21.553c4.228,6.133,8.527,9.063,19.607,9.207
		c11.08,0.144,27.368-7.115,37.988-22.181c7.762-10.043,13.606-19.012,17.157-25.111c0.408,0.841,0.818,1.258,1.224,2.51
		c0,0,2.771,20.682,7.762,33.482c4.99,12.8,15.117,24.069,30.225,23.858c15.112-0.215,25.153-4.4,31.153-19.357
		c5.24-13.07,4.792-33.206,1.118-43.837c1.634-1.677,3.503-3.719,4.084-5.862c1.742,11.238,6.537,27.622,9.806,34.736
		c10.213,20.924,24.914,31.807,44.522,31.807c8.58,0,15.113-4.186,20.833-12.556c2.451-3.766,4.086-7.115,4.903-10.044
		c12.456,7.446,43.214,32.519,51.482,42.515c8.269,9.996,13.391,14.739,11.573,23.718c-1.816,8.98-28.606,25.247-45.471,30.502
		c-16.866,5.253-32.742,9.146-59.201,11.689c-26.454,2.54-82.837,5.078-105.825,4.911c-22.985-0.167-72.096-3.892-84.498-5.25
		c-12.4-1.355-31.582-5.931-45.634-16.262c-8.467-6.225-12.403-13.555-9.922-23.551
		C230.362,388.051,242.931,367.211,255.993,354.674z"/>
	<path fill="#EDCBAA" d="M125.112,398.573c1.921-0.718,4.901,1.494,6.123,3.59c-0.165,2.025,0.585,5.921,1.402,7.176
		c-0.407,0-3.291-0.707-4.491-2.562c1.226-0.417,1.812-2.841,0.548-3.017c0,0-1.44,1.249-2.925,1.161
		c-1.486-0.089-2.141-0.894-2.488-2.326C122.932,401.164,123.192,399.288,125.112,398.573z"/>
	<path fill="#EDCBAA" d="M122.06,414.892c-1.484,0-2.447-0.537-2.795-1.922c-0.347-1.388,0.743-1.878,0.743-1.878
		c0.815,0.836,2.638,1.878,4.275,1.878C124.282,412.97,123.541,414.892,122.06,414.892z"/>
	<path fill="#EDCBAA" d="M121.608,404.688c0.93,2.022,3.069,3.05,4.902,2.51c0,0.417,1.635,2.093,2.043,2.093
		c-1.226,0.417-1.796,1.279-2.613,2.114C121.713,411.606,117.522,407.067,121.608,404.688z"/>
	<path fill="#EDCBAA" d="M207.518,461.319c-5.864-2.881-11.24-4.007-12.793-2.231c0.411,0.838,1.635,1.256,3.677,2.511
		c-4.08,5.228-8.357,7.106-17.642,6.73c-9.286-0.374-14.462-3.7-19.939-7.985c-5.473-4.283-7.184-7.666-10.849-7.914
		c-3.664-0.249-6.53,1.114-11.208,3.31c-4.676,2.197-10.05,5.702-13.229,0.067c-3.178-5.63,1.588-9.759,4.033-12.639
		c2.443-2.879,4.155-5.51,3.544-8.514c-0.612-3.004-5.747-6.779-6.602-14.906c-0.854-8.126,8.579-9.204,8.579-9.204
		s-1.511-4.015-1.339-8.264c0.176-4.315,1.616-9.568,7.874-10.571c2.421-0.387,3.269,0.841,3.269,2.93
		c0,2.51-0.821,5.023-2.863,6.699c-2.451,1.674-3.268,3.766-3.268,5.859c-0.816,0-1.226,0.417-1.226,1.252
		c0,0,2.523,1.714,4.549,4.743c2.664,3.976,3.96,6.833,5.254,11.999c1.293,5.168,1.227,7.95,2.043,13.81
		c-0.407,0-1.223,0.417-1.223,1.675c0,0.417,2.888,3.35,12.845,2.849c9.961-0.503,42.705-15.403,45.564-16.658
		c-1.225,2.51-1.491,4.711-0.497,5.449c4.57-9.869,10.302-10.054,10.302-10.054c1.224,4.185,13.889,41.852,15.111,43.107
		C221.813,469.204,213.384,464.2,207.518,461.319z"/>
	<path fill="#0069AE" d="M548.175,473.945c-1.656-0.509-11.577-5.081-16.047-7.741c17.533-7,15.113-10.464,15.113-10.464
		c-28.185,9.628-45.531,13.966-77.279,19.05c-31.749,5.084-79.702,8.473-99.546,8.473c-19.845,0-51.924-3.05-67.965-6.607
		c-16.04-3.559-23.974-8.301-23.974-8.301c7.765-0.42,27.615-1.187,43.285-0.896c-1.286-2.83-14.183-3.847-36.341-2.83
		c-22.159,1.012-45.472,2.52-46.961,1.862c-4.96-2.203-18.687-42.864-19.843-46.083c-1.157-3.218-1.488-5.59,0.992-5.082
		c1.786,0.37,26.068,16.134,35.057,19.484c8.986,3.764,14.33,4.923,31.968,7.118c17.639,2.198,58.152,5.418,84.611,5.756
		c26.457,0.341,66.804,0.169,118.892-7.453c52.089-7.626,73.754-17.939,87.969-31.519c2.813,0.175,3.64,3.223,3.31,7.63
		c-0.33,4.406-3.131,15.963-8.85,27.26l-8.986,14.647C556.636,468.299,549.827,474.456,548.175,473.945z"/>
	<path fill="#EDCBAA" d="M661.575,456.723c-1.609,2.928,0.091,7.256,0.358,12.541c0.265,5.291-5.81,7.877-9.652,7.236
		c-3.844-0.643-5.993-2.746-6.882-5.128c-0.894-2.382-0.713-4.762-4.29-4.668c-3.573,0.092-8.256,0.926-11.617,2.654
		c-3.363,1.728-8.224,3.203-15.107,3.022c-6.878-0.183-14.564-1.375-18.943-8.265c3.264-2.514,4.898-4.605,4.898-6.28
		c0-1.255-1.073-2.863-1.073-2.863c-13.889,13.044-28.276,15.249-38.549,14.581c18.209-21.863,24.51-41.43,25.734-51.892
		c12.256-5.86,10.279,11.384,10.279,11.384c1.636,0,3.202-0.922,3.202-3.852c2.389,0.129,7.847,3.122,14.857,8.124
		c7.015,5.003,16.584,13.598,21.494,17.402c4.912,3.807,9.2,7.653,13.132,7.56c3.937-0.089,8.924-14.254,8.924-16.767
		c-2.04-5.019-3.203-11.502-1.504-15.279c-0.09-1.534-0.854-4.918-2.17-6.897c-1.313-1.982-3.36-3.068-7.036-3.903
		c0-3.768,1.181-5.345,4.38-5.768c4.109-0.552,7.863,2.835,9.739,9.701c-2.768,1.467-1.876,3.846-1.876,3.846
		c7.953-5.127,16.267,6.136,15.104,15.107C673.969,446.11,663.182,453.794,661.575,456.723z"/>
	<path fill="#EDCBAA" d="M675.091,424.771c-0.815-1.252-1.165-2.263-2.392-2.683c2.056-1.881,4.752-0.707,6.273-1.766
		c1.223,0.835,1.766,1.718,1.412,2.715c-0.354,0.996-0.795,1.316-2.429,1.316C676.727,424.354,675.91,424.354,675.091,424.771z"/>
	<path fill="#141111" d="M469.629,300.63c2.646,3.05,11.739,9.318,17.369,10.49c-0.507-1.319-19.645-16.129-20.318-16.54
		C466.486,295.884,466.983,297.58,469.629,300.63z"/>
	<path fill="#141111" d="M321.798,312.657c5.953-4.914,9.589-7.285,15.532-10.204c-3.129-0.979-12.61,4.285-17.849,8.509
		c-5.457,4.404-11.427,7.469-14.783,9.635C307.742,321.465,315.846,317.569,321.798,312.657z"/>
	<path fill="#141111" d="M307.058,274.112c0,2.932,4.539,5.136,8.322,4.087c3.786-1.052,7.16-5.147,5.775-6.566
		C321.155,271.633,311.396,275.241,307.058,274.112z"/>
	<path fill="#141111" d="M338.174,367.717c-12.072,3.554-21.001,8.47-21.314,11.021c15.689-8.821,58.803-15.888,85.778-15.064
		c26.978,0.822,48.474,6.072,65.009,11.493c16.539,5.426,25.962,10.507,40.382,19.473c0.958-2.022-11.85-14-35.423-21.504
		c-21.827-6.946-33.238-10.671-65.479-12.535C374.882,358.735,350.244,364.16,338.174,367.717z"/>
	<path fill="#141111" d="M395.204,254.651c0,1.27,1.173,2.402,2.379,2.438c1.205,0.034,2.412-1.029,2.514-2.404
		c0.098-1.371-1.14-2.645-2.312-2.747C396.61,251.835,395.204,253.004,395.204,254.651z"/>
	<path fill="#141111" d="M398.553,250.678v-0.417c-7.036-1.617-16.72,0.374-17.559,2.927l0.407,0.42
		c0.409-0.838,1.248-1.491,2.478-1.911c-0.413,0.42-1.006,1.617-1.006,2.439c0,1.442,0.937,2.884,2.549,2.645
		c1.605-0.242,2.68-1.546,2.376-3.16c-0.391-2.096-2.713-2.197-2.713-2.197C390.409,249.362,398.553,250.678,398.553,250.678z"/>
	<path fill="#141111" d="M386.659,265.844c0,0,0.469-3.056,4.545-2.61c3.123,0.342,2.86,3.763,2.86,3.763
		c1.223,0,1.865-1.175,1.677-2.252c-0.303-1.716-1.709-3.16-5.127-3.192c-3.419-0.035-4.714,1.885-4.72,2.935
		C385.885,265.534,386.659,265.844,386.659,265.844z"/>
	<path fill="#141111" d="M386.089,277.895c0.267,4.018,2.181,5.691,4.053,5.768c2.581,0.104,4.895-2.092,4.86-5.253
		c-0.035-3.159-1.542-6.147-4.088-6.25C388.366,272.058,385.82,273.879,386.089,277.895z"/>
	<path fill="#D78B7C" d="M390.137,274.76c1.74-0.245,2.374,2.553,2.137,3.771c-0.236,1.217-1.467,2.134-2.652,1.217
		C388.155,278.61,388.398,275.002,390.137,274.76z"/>
	<path fill="#141111" d="M469.63,267.835c-1.494,3.624,1.921,7.851,7.399,7.704c5.478-0.144,8.108-4.739,4.855-6.446
		C481.792,272.842,472.193,275.465,469.63,267.835z"/>
	<ellipse fill="#FDFDFF" cx="233.462" cy="158.106" rx="12.782" ry="12.904"/>
	<ellipse fill="#FDFDFF" cx="626.045" cy="164.558" rx="12.325" ry="12.44"/>
	<path fill="#E6B790" d="M364.971,302.127c0,0,9.308,5.636,29.783,4.136c20.472-1.503,33.13-9.77,33.13-9.77
		s-11.17,21.418-33.504,22.169C372.044,319.414,364.971,302.127,364.971,302.127z"/>
	<path fill="#F4DFC8" d="M476.65,269.061c2.199,1.462,8.19-2.631,9.679-6.012C487.819,259.668,460.27,258.163,476.65,269.061z"/>
	<path fill="#F4DFC8" d="M313.597,271.691c6.358-1.375,12.657-9.395,13.773-16.534c1.117-7.139-2.233-14.656-11.911,0
		C305.78,269.812,308.386,272.817,313.597,271.691z"/>
	<path fill="#F4DFC8" d="M404.429,235.241c4.787,2.014,11.541,7.139,13.403,12.025c1.862,4.884-9.306,0.374-13.028-3.007
		C401.08,240.877,395.497,231.484,404.429,235.241z"/>
	<path fill="#F4DFC8" d="M471.067,223.591c3.907,5.696,10.052,11.65,11.541,18.789c1.487,7.138-14.518-1.505-16.752-6.012
		C463.622,231.858,461.016,208.937,471.067,223.591z"/>
	<path fill="#F4DFC8" d="M169.902,443.797c5.824-1.962,20.849-8.269,26.432-10.522c5.583-2.253,0.743,8.643-8.562,11.648
		C178.465,447.931,157.617,447.933,169.902,443.797z"/>
	<path fill="#F4DFC8" d="M609.181,431.773c3.716,2.639,20.848,17.286,26.43,21.041c5.586,3.76-10.05,2.631-18.239-2.254
		C609.181,445.676,599.129,424.633,609.181,431.773z"/>
	<path fill="#F4DFC8" d="M663.159,424.633c2.517-0.782,8.562,1.878,10.052,8.641c1.49,6.765-1.488,10.145-5.583,7.893
		C663.534,438.911,658.319,426.135,663.159,424.633z"/>
	<path fill="#F4DFC8" d="M128.581,418.246c0.081-2.862,4.466-6.765,9.306-4.886C142.727,415.237,128.208,431.399,128.581,418.246z"
		/>
	<path fill="#F4DFC8" d="M322.161,303.634c4.941-3.62,14.146-7.514,20.848-8.643c6.699-1.126-1.862-10.898-12.285-9.395
		C320.299,287.1,303.174,317.535,322.161,303.634z"/>
	<path fill="#E6B24E" d="M321.042,390.436c15.074-11.798,64.403-22.546,115.776-13.153c49.576,9.066,89.346,39.457,16.752,43.592
		C380.978,425.008,284.561,418.997,321.042,390.436z"/>
	<path fill="#E6B24E" d="M477.024,367.513c13.602,2.933,42.439,14.281,55.096,24.049c12.657,9.772,13.306-15.581-7.073-23.296
		C495.264,356.992,438.679,359.246,477.024,367.513z"/>
	<path fill="#005590" d="M316.949,446.803c0,0,41.693,5.259,99.022,2.255c57.33-3.007,113.916-14.656,113.916-14.656
		s-41.322,32.316-120.244,32.691C330.722,467.47,316.949,446.803,316.949,446.803z"/>
	<path fill="#B7B8BA" d="M212.627,147.538c8.638-8.842,14.438-5.231,14.438-5.231s-13.402,5.351-9.748,20.427
		c3.459,14.27,19.496,12.581,19.496,12.581s-4.536,5.325-11.653,4.88c-4.269-0.268-10.277-1.224-15.041-8.434
		C205.08,164.133,207.849,152.43,212.627,147.538z"/>
	<path fill="#B7B8BA" d="M604.885,152.626c7.524-7.693,17.112-2.597,17.112-2.597s-14.515,4.486-10.598,20.121
		c2.748,10.972,14.636,10.952,19.933,9.167c-2.773,3.312-7.623,8.167-15.387,7.814c-6.008-0.27-11.853-2.813-15.141-11.889
		C597.424,165.916,600.103,157.515,604.885,152.626z"/>
	<path fill="#7F8080" d="M201.378,177.025c-2.27-10.695,2.524-14.773,2.524-14.773s0,16.556,16.401,20.63
		c9.626,2.393,16.148-1.273,19.68-4.075c3.533-2.801,6.813-9.422,6.813-9.422s1.766,24.45-24.475,24.704
		C208.184,194.228,202.896,184.172,201.378,177.025z"/>
	<path fill="#7F8080" d="M596.261,165.564c0,0-1.783,10.426,6.307,18.591c6.057,6.115,14.828,7.339,20.692,4.587
		c10.848-5.094,15.391-14.773,15.391-14.773s4.81,18.179-12.364,25.979c-15.139,6.877-32.044-1.275-35.072-12.989
		C587.28,171.725,596.261,165.564,596.261,165.564z"/>
</g>
</svg>
