<?xml version="1.0" encoding="utf-8"?>
<!-- Generator: Adobe Illustrator 17.0.0, SVG Export Plug-In . SVG Version: 6.00 Build 0)  -->
<!DOCTYPE svg PUBLIC "-//W3C//DTD SVG 1.1//EN" "http://www.w3.org/Graphics/SVG/1.1/DTD/svg11.dtd">
<svg version="1.1" id="Layer_1" xmlns="http://www.w3.org/2000/svg" xmlns:xlink="http://www.w3.org/1999/xlink" x="0px" y="0px"
	 width="800px" height="600px" viewBox="0 0 800 600" enable-background="new 0 0 800 600" xml:space="preserve">
<g>
	<g>
		<path d="M179.14,310.44c8.998-89.232,43.796-190.093,95.046-246.002c72.859-79.48,152.251-45.739,226.435,36.343
			c87.591,96.91,150.957,281.41,72.683,403.482c-71.148,110.953-238.458,115.834-335.459,5.59
			C188.257,453.517,171.223,389.023,179.14,310.44z"/>
		<path fill="#FFE6D4" d="M542.865,516.042c14.283-14.776,38.137-56.949,43.342-81.759c7.597-36.247,8.067-82.993,2.215-116.424
			c-6.579-37.647-23.367-90.194-42.092-125.225C496.606,99.71,377.761-42.233,278.981,73.209
			c-33.423,39.058-60.327,100.181-72.695,155.913c-26.553,119.677-25.23,182.564,41.928,268.251c2.266,2.693,4.47,5.452,6.947,7.97
			C349.848,603.858,484.826,576.029,542.865,516.042z"/>
		<path fill="#DCC0A4" d="M345.124,456.08c74.021-10.308,137.611,19.05,181.589,74.075c-64.204,49.531-184.73,65.506-271.55-24.813
			c-2.416-2.466-4.596-5.159-6.792-7.833C276.487,476.146,309.034,461.09,345.124,456.08z"/>
		<path fill="#B98D7A" d="M296.573,370.274c8.707-0.589,11.145,12.859,2.369,13.438
			C290.245,384.318,287.837,370.882,296.573,370.274z"/>
		<path fill="#B98D7A" d="M298.777,306.24c13.202-0.897,13.539,19.664,0.321,20.549C285.909,327.658,285.567,307.135,298.777,306.24
			z"/>
		<path fill="#B98D7A" d="M267.252,332.293c10.675-0.724,10.503,15.891-0.132,16.621
			C256.425,349.587,256.585,333.036,267.252,332.293z"/>
		<path fill="#B98D7A" d="M269.917,397.929c9.981-0.688,10.409,14.793,0.464,15.467C260.411,414.092,259.93,398.573,269.917,397.929
			z"/>
		<path fill="#B98D7A" d="M328.521,410.753c8.883-0.602,10.002,13.201,1.106,13.784C320.731,425.15,319.576,411.369,328.521,410.753
			z"/>
		<path fill="#B98D7A" d="M332.246,382.795c8.888-0.598,10.005,13.202,1.107,13.785
			C324.459,397.196,323.305,383.415,332.246,382.795z"/>
		<path fill="#B98D7A" d="M361.13,409.82c8.887-0.603,10.005,13.202,1.106,13.786C353.344,424.22,352.19,410.437,361.13,409.82z"/>
		<path fill="#A27963" d="M361.153,461.974c11.175-0.766,10.515,16.586-0.589,17.372
			C349.438,480.033,350.065,462.694,361.153,461.974z"/>
		<path fill="#B98D7A" d="M333.915,448.033c5.642-0.391,5.531,8.401-0.07,8.818C328.197,457.229,328.332,448.426,333.915,448.033z"
			/>
		<path fill="#B98D7A" d="M235.551,242.415c5.638-0.377,5.531,8.405-0.073,8.82C229.832,251.613,229.952,242.794,235.551,242.415z"
			/>
		<path fill="#B98D7A" d="M216.218,325.18c5.65-0.38,5.538,8.402-0.052,8.788C210.515,334.341,210.629,325.552,216.218,325.18z"/>
		<path fill="#B98D7A" d="M221.416,283.49c5.65-0.379,5.544,8.404-0.067,8.813C215.696,292.684,215.824,283.87,221.416,283.49z"/>
		<path fill="#B98D7A" d="M256.046,451.863c5.647-0.379,5.538,8.397-0.067,8.81C250.326,461.037,250.454,452.242,256.046,451.863z"
			/>
		<path fill="#A27963" d="M420.066,463.268c8.011-0.568,9.645,11.863,1.587,12.376C413.67,476.179,411.994,463.808,420.066,463.268z
			"/>
		<path fill="#B98D7A" d="M402.533,416.853c5.347-0.341,9.525,5.53,9.252,10.374c-0.323,5.824-5.004,8.862-10.359,9.236
			c-5.323,0.357-9.517-5.474-9.215-10.338C392.511,420.325,397.185,417.271,402.533,416.853z"/>
		<path fill="#B98D7A" d="M369.968,377.139c-0.08-0.027-0.104-0.045-0.173-0.061c7.974-4.941,8.892,12.065,0.903,8.59
			c-0.266-0.067-0.498-0.139-0.754-0.262C365.4,384.293,366.173,378.566,369.968,377.139z"/>
		<path fill="#B98D7A" d="M406.102,387.964c5.552-0.373,5.504,8.201,0,8.575C400.57,396.896,400.61,388.348,406.102,387.964z"/>
		<path fill="#B98D7A" d="M346.534,346.671c12.204-0.807,12.002,18.174-0.164,18.988
			C334.233,366.45,334.419,347.494,346.534,346.671z"/>
		<path fill="#B98D7A" d="M344.419,304.867c6.12-0.392,5.76,9.103-0.309,9.5C338.012,314.792,338.327,305.291,344.419,304.867z"/>
		<path fill="#B98D7A" d="M229.199,373.546c8.728-0.609,10.042,12.943,1.217,13.608
			C221.706,387.695,220.412,374.167,229.199,373.546z"/>
		<path fill="#B98D7A" d="M287.024,442.702c10.446-0.684,10.471,15.557,0.065,16.264
			C276.647,459.65,276.588,443.416,287.024,442.702z"/>
		<path fill="#A27963" d="M302.793,481.402c6.321-0.404,12.252,3.06,13.286,9.758c0.903,5.886-3.402,12.844-9.72,13.245
			c-6.352,0.449-12.241-3.008-13.315-9.691C292.159,488.819,296.458,481.821,302.793,481.402z"/>
		<path fill="#A27963" d="M356.079,506.131c7.512-0.517,9.364,11.11,1.803,11.582C350.367,518.174,348.491,506.613,356.079,506.131z
			"/>
		<path fill="#A27963" d="M333.331,530.193c0.18,0.155,0.324,0.288,0.498,0.444c4.538,4.669-2.564,12.121-7.719,8.34
			c-0.195-0.112-0.392-0.243-0.563-0.385C318.839,533.654,327.456,524.017,333.331,530.193z"/>
		<path fill="#A27963" d="M266.806,509.749c-0.336-9.685,6.036-11.861,10.94-10.272l0.018-0.03c0.101,0.04,0.135,0.117,0.22,0.148
			c1.348,0.484,2.654,1.175,3.579,2.147c0.99,1.069,1.611,2.376,1.977,3.755c0.034,0.241,0.064,0.443,0.107,0.691
			c0.111,0.614,0.343,1.236,0.322,1.852c-0.025,0.575-0.226,0.959-0.34,1.421c-0.077,0.407-0.128,0.7-0.245,1.064
			c-0.357,1.109-0.95,2.041-1.683,2.863c-0.208,0.241-0.173,0.45-0.406,0.672c-0.7,0.678-1.645,1.139-2.613,1.492
			c-0.326,0.151-0.584,0.222-0.911,0.331c-0.275,0.105-0.547,0.126-0.855,0.158c-0.636,0.137-1.264,0.399-1.919,0.435
			c0.025-0.068,0.049-0.172,0.049-0.213C271.032,516.264,266.96,514.146,266.806,509.749z"/>
		<path fill="#A27963" d="M397.927,506.131c9.967-0.667,10.393,14.855,0.432,15.519
			C388.378,522.342,387.925,506.843,397.927,506.131z"/>
		<path fill="#A27963" d="M434.592,512.031c0.119-0.064,0.263-0.2,0.385-0.26c3.841-3.22,9.767-0.327,10.282,4.343
			c0.691,6.103-5.765,8.511-10.326,5.862l-0.216-0.15C431.108,519.778,431.795,514.361,434.592,512.031z"/>
		<path fill="#A27963" d="M380.677,535.707c12.26-0.812,15.591,18.235,3.173,19.042C371.582,555.606,368.23,536.577,380.677,535.707
			z"/>
		<path fill="#B98D7A" d="M356.685,264.998c9.699-0.679,10.361,14.409,0.62,15.094C347.614,280.731,346.948,265.694,356.685,264.998
			z"/>
		<path fill="#B98D7A" d="M264.2,251.475c9.679-0.651,10.352,14.397,0.617,15.091C255.132,267.208,254.457,252.16,264.2,251.475z"/>
		<path fill="#B98D7A" d="M245.198,295.43c9.681-0.655,10.342,14.429,0.633,15.095C236.125,311.199,235.471,296.121,245.198,295.43z
			"/>
		<path fill="#B98D7A" d="M306.25,257.033c12.005-0.82,15.514,17.745,3.382,18.579C297.639,276.4,294.13,257.843,306.25,257.033z"/>
		<path fill="#B98D7A" d="M288.05,226.263c4.193-0.309,4.637,6.221,0.441,6.482C284.304,233.025,283.868,226.537,288.05,226.263z"/>
		<path fill="#B98D7A" d="M320.087,229.495c7.019-0.475,9.076,10.354,1.962,10.827C315.063,240.779,313.012,230.001,320.087,229.495
			z"/>
		<path fill="#B98D7A" d="M386.3,329.309c1.076-0.438,2.304-0.445,3.511-0.172c0.186-0.483,0.913-0.317,2.649,0.965
			c0.262,0.223,0.443,0.501,0.657,0.778c2.032,1.621,3.071,4.152,1.378,6.611c-0.021,0.024-0.083-0.072-0.097-0.092
			c-0.826,2.104-2.61,3.767-4.905,3.924l-3.172-0.398C380.805,339.329,381.605,331.236,386.3,329.309z"/>
		<path fill="#B98D7A" d="M310.927,188.648c-0.006,0.125-0.006,0.21-0.018,0.361c-0.162,8.319-13.03,8.181-14.293,0.301
			l-0.051-0.347C294.946,178.776,311.112,177.878,310.927,188.648z"/>
		<path fill="#B98D7A" d="M255.54,164.582c5.515-0.361,9.87,5.493,9.681,10.49c-0.293,5.936-5.036,9.26-10.479,9.65
			c-5.507,0.37-9.859-5.475-9.645-10.496C245.314,168.307,250.101,164.971,255.54,164.582z"/>
		<path fill="#B98D7A" d="M282.47,146.379c8.643-0.611,9.081,12.783,0.429,13.388C274.251,160.367,273.863,146.932,282.47,146.379z"
			/>
		<path fill="#B98D7A" d="M304.214,122.036c6.732-0.46,8.84,9.979,1.983,10.464C299.474,132.926,297.372,122.494,304.214,122.036z"
			/>
		<path fill="#B98D7A" d="M285.542,97.946c7.527-0.504,9.385,11.087,1.806,11.582C279.819,110.075,277.966,98.447,285.542,97.946z"
			/>
		<path fill="#B98D7A" d="M335.144,174.085c4.721-0.333,5.006,6.912,0.318,7.222C330.786,181.628,330.482,174.368,335.144,174.085z"
			/>
		<path fill="#B98D7A" d="M360.491,219.034c5.987-0.378,5.717,8.899-0.228,9.282C354.233,228.742,354.56,219.42,360.491,219.034z"/>
		<path fill="#B98D7A" d="M254.166,203.138c9.175-0.592,9.126,13.623-0.024,14.266C244.992,218.004,245.02,203.774,254.166,203.138z
			"/>
		<path fill="#A27963" d="M455.324,537.041c0.11-0.072,0.223-0.109,0.323-0.145c3.871-0.534,4.214,5.347,0.3,5.335
			C450.639,542.304,453.472,535.92,455.324,537.041z"/>
		<path fill="#A27963" d="M427.057,542.401c0.128,0.032,0.256,0.104,0.409,0.092c3.927,1.14,3.767,6.122,0.185,7.556
			c-0.194,0.072-0.341,0.125-0.509,0.244C421.159,552.679,420.144,540.444,427.057,542.401z"/>
		<path fill="#B98D7A" d="M238.806,409.921c5.268-0.362,5.246,7.896-0.041,8.288C233.472,418.553,233.536,410.29,238.806,409.921z"
			/>
		<path fill="#FFFAED" d="M426.766,144.264c55.411,48.067,119.106,73.108,95.547,31.915
			C497.189,132.214,431.995,54.077,368.768,46.85C340.354,43.623,381.544,105.029,426.766,144.264z"/>
	</g>
	<path d="M580.369,257.516l-24.744,54.106l-45.2-53.776c0,0-8.389,42.877-9.538,61.814c-15.536-6.058-38.299-17.274-38.299-17.274
		s-12.026,33.33-19.688,47.479c-13.766-7.59-34.823-30.777-34.823-30.777l-2.896,3.753c0,0,32.006,31.009,37.613,35.3
		c3.957-5.608,6.411-11.192,8.248-15.507c5.031,3.372,11.209,7.708,16.166,11.22c-2.169,6.662-5.344,19.399-5.344,19.399
		l3.648,0.772l5.654-21.821c0,0-12.587-10.699-18.306-14.251c2.815-7.101,11.709-28.31,11.709-28.31l40.578,18.477l8.249-57.407
		l44.21,51.138l26.72-51.467L580.369,257.516z"/>
</g>
</svg>
