<?xml version="1.0" encoding="utf-8"?>
<!-- Generator: Adobe Illustrator 17.0.0, SVG Export Plug-In . SVG Version: 6.00 Build 0)  -->
<!DOCTYPE svg PUBLIC "-//W3C//DTD SVG 1.1//EN" "http://www.w3.org/Graphics/SVG/1.1/DTD/svg11.dtd">
<svg version="1.1" id="Layer_1" xmlns="http://www.w3.org/2000/svg" xmlns:xlink="http://www.w3.org/1999/xlink" x="0px" y="0px"
	 width="800px" height="600px" viewBox="0 0 800 600" enable-background="new 0 0 800 600" xml:space="preserve">
<g>
	<path d="M227.288,371.227c4.994-63.358,2.467-179.197-3.077-249.814c0.686-0.268,1.374-0.539,2.059-0.805
		c41.306-15.745,79.479-34.095,119.989-49.81c-0.919,8.357-3.639,26.271-4.556,34.627c-19.386-13.86-87.719,13.995-107.08,24.742
		c0.433,73.79,2.978,201.133-6.255,241.037C228.01,371.213,227.648,371.213,227.288,371.227L227.288,371.227z"/>
	<path fill-rule="evenodd" clip-rule="evenodd" fill="#8C8C8C" d="M352.463,70.392l66.761,66.359l-80.126,28.557
		C343.338,133.7,348.339,102.224,352.463,70.392L352.463,70.392z M374.401,369.127c-8.605-2.412-17.35-4.599-26.225-6.557l0,0
		C357.051,364.523,365.796,366.715,374.401,369.127L374.401,369.127z"/>
	<path d="M328.682,358.68c1.334-59.703-2.639-133.67-7.14-191.001c0.686-0.266,1.373-0.536,2.059-0.805
		c41.306-15.742,79.481-34.092,119.989-49.807c-0.919,8.355-3.639,26.269-4.556,34.622c-19.386-13.856-87.72,14-107.08,24.744
		c0.33,56.399,3.192,132.407,0.401,182.921C331.133,359.13,329.911,358.901,328.682,358.68L328.682,358.68z"/>
	<path fill-rule="evenodd" clip-rule="evenodd" fill="#8C8C8C" d="M449.794,116.659l72.644,72.211l-87.107,31.04
		C439.786,185.495,445.307,151.291,449.794,116.659L449.794,116.659z M498.866,425.687v0.014
		c-20.78-13.94-43.619-26.303-68.12-36.773v-0.014C455.247,399.383,478.086,411.755,498.866,425.687L498.866,425.687z"/>
	<path d="M424.635,386.364c-0.103-53.951-3.563-114.974-7.401-163.89c0.686-0.266,1.371-0.532,2.059-0.803
		c41.305-15.747,79.479-34.095,119.989-49.81c-0.919,8.355-3.639,26.271-4.556,34.626c-19.388-13.858-87.719,13.995-107.083,24.744
		c0.28,47.388,2.346,108.623,1.341,156.947C427.54,387.57,426.093,386.96,424.635,386.364L424.635,386.364z"/>
	<path fill-rule="evenodd" clip-rule="evenodd" fill="#8C8C8C" d="M545.486,171.456c24.978,24.829,49.956,49.656,74.935,74.483
		c-18.024,75.627-36.413,149.115-23.907,253.383l-40.714-26.271c-8.951-9.3-18.657-18.228-29.05-26.721
		C514.854,350.032,533.726,262.2,545.486,171.456L545.486,171.456z"/>
	<path d="M557.865,456.153c33.661,25.973,64.346,7.878,37.584-14.023c-144.646-118.39-283.475-117.5-401.341-51.945
		C266.862,367.49,397.453,332.386,557.865,456.153L557.865,456.153z"/>
	<path fill="#8C8C8C" d="M561.873,494.434c32.797,29.958,65.291,14.569,39.297-10.533
		c-140.508-135.662-282.487-148.804-407.062-93.716C269.898,374.345,405.584,351.678,561.873,494.434L561.873,494.434z"/>
</g>
</svg>
