<?xml version="1.0" encoding="utf-8"?>
<!-- Generator: Adobe Illustrator 17.0.0, SVG Export Plug-In . SVG Version: 6.00 Build 0)  -->
<!DOCTYPE svg PUBLIC "-//W3C//DTD SVG 1.1//EN" "http://www.w3.org/Graphics/SVG/1.1/DTD/svg11.dtd">
<svg version="1.1" id="Layer_1" xmlns="http://www.w3.org/2000/svg" xmlns:xlink="http://www.w3.org/1999/xlink" x="0px" y="0px"
	 width="800px" height="600px" viewBox="0 0 800 600" enable-background="new 0 0 800 600" xml:space="preserve">
<path fill-rule="evenodd" clip-rule="evenodd" fill="#D2D2D2" d="M585.86,512.873c0,29.737-82.915,53.851-185.198,53.851
	c-102.284,0-185.201-24.113-185.201-53.851c0-29.732,82.917-53.844,185.201-53.844C502.945,459.029,585.86,483.141,585.86,512.873z"
	/>
<g>
	<g>
		<path fill-rule="evenodd" clip-rule="evenodd" d="M566.436,140.277c27.643,31.668,36.62,77.149,37.364,107.921
			c0.941,38.998-12.852,49.238-41.457,56.817c-28.599,7.578-69.244,6.122-103.966-1.419c-3.019,29.012,12.411,73.496,29.041,122.667
			c13.506,39.943,3.992,90.998-24.947,111.206c-46.76,32.672-123.498-3.298-153.919-24.612c-30.412-21.31-44.032-55.389-29.046-98
			c14.987-42.618,51.759-93.728,53.569-129.239c-17.07,2.833-79.833-10.587-110.966-50.106
			c-27.757-35.236,7.443-80.571,39.231-108.501c31.779-27.929,96.241-62.482,171.164-49.697
			C507.412,90.095,544.289,114.904,566.436,140.277z"/>
		<path fill-rule="evenodd" clip-rule="evenodd" fill="#FF6800" d="M554.217,140.532c34.525,35.012,52.092,107.013,32.326,141.703
			c-3.238,5.656-11.608,12.431-30.13,16.683c-18.517,4.26-62.668,6.608-69.359,2.291c9.726-2.944,81.916-4.255,59.314-24.541
			c-26.622-23.91-104.196-47.451-155.349-55.633c-51.155-8.181-97.608-13.745-113.924-11.125
			c-16.323,2.617-26.866,7.159-23.541,18.655c5.963,20.61,60.573,42.209,76.894,46.133c-2.513,10.147-73.129-5.228-102.943-49.738
			c-15.058-22.467-0.787-47.593,20.716-72.976c30.755-36.326,84.361-64.121,137.779-68.394
			C439.408,79.317,519.696,105.516,554.217,140.532z"/>
		<path fill-rule="evenodd" clip-rule="evenodd" fill="#D45600" d="M257.278,253.911c3.967,2.683,8.033,5.142,12.125,7.361
			c4.848-1.1,9.421-3.09,13.508-6.168c-3.793-2.103-7.44-4.31-10.814-6.586C267.634,251.212,262.581,252.924,257.278,253.911z"/>
		<path fill-rule="evenodd" clip-rule="evenodd" fill="#D45600" d="M509.914,298.268c-10.537,1.248-19.797,2.014-22.861,2.941
			c2.811,1.814,12.23,2.443,23.573,2.26C510.351,301.757,510.122,300.02,509.914,298.268z"/>
		<path fill-rule="evenodd" clip-rule="evenodd" fill="#D45600" d="M549.427,287.177c2.502-0.972,4.185-2.77,3.992-5.988
			c-0.433-7.042-3.742-12.85-8.705-17.516c-9.586-9.013-21.796-14.851-33.773-19.536c-24.293-9.506-49.978-16.044-75.185-22.329
			c-40.014-9.976-81.796-19.208-122.998-21.241c-9.66-0.472-19.377-0.669-29.031,0.108c-8.714,0.7-19.484,0.863-27.429,5.125
			c-6.093,3.275-13.287,9.432-12.922,17.465c0.399,8.671,7.453,12.103,14.743,13.253c-2.192-2.64-3.8-5.301-4.566-7.953
			c-3.326-11.496,7.218-16.038,23.541-18.655c16.316-2.62,62.768,2.944,113.924,11.125c51.153,8.182,128.727,31.723,155.349,55.633
			C551.151,280.959,551.639,284.387,549.427,287.177z"/>
		<path fill-rule="evenodd" clip-rule="evenodd" fill="#D45600" d="M586.709,197.107c-13.708,23.553-10.832,55.835,1.623,81.657
			C598.031,258.107,596.307,226.591,586.709,197.107z"/>
		<path fill-rule="evenodd" clip-rule="evenodd" fill="#D45600" d="M581.823,273.56c-10.691-26.726-11.654-58.43,3.246-81.257
			c-0.397-1.113-0.849-2.206-1.27-3.311C565.832,214.004,569.102,245.708,581.823,273.56z"/>
		<path fill-rule="evenodd" clip-rule="evenodd" fill="#D45600" d="M440.295,113.354c-11.66-7.058-40.846-5.051-44.208,17.999
			c-0.845-2.193-4.732-11.628-14.119-15.482c-10.939-4.493-19.655-0.662-26.309,2.969c-14.522,7.944-18.927,27.399-8.868,42.895
			c0.073,0.109,0.081,0.213,0.128,0.318c10.112,1.974,19.829,6.384,28.196,12.672c7.713,1.097,14.306-7.166,19.186-12.299
			c3.257,7.783,11.89,17.222,20.451,16.705c4.428-5.211,20.968-12.404,23.258-13.346c0.066-0.031,10.824-4.505,16.542-4.89
			C465.701,145.795,455.173,122.364,440.295,113.354z"/>
		<path fill-rule="evenodd" clip-rule="evenodd" fill="#D45600" d="M522.678,296.527c-3.032,0.487-6.117,0.914-9.149,1.298
			c0.225,1.876,0.489,3.732,0.81,5.56c3.364-0.101,6.842-0.279,10.324-0.501C523.847,300.806,523.18,298.684,522.678,296.527z"/>
		<path fill-rule="evenodd" clip-rule="evenodd" fill="#D45600" d="M274.532,263.931c27.499,13.629,54.383,16.959,55.916,10.767
			c-8.403-2.019-26.935-8.725-43.766-17.564C282.987,260.217,278.897,262.455,274.532,263.931z"/>
		<path fill-rule="evenodd" clip-rule="evenodd" fill="#FFFBDC" d="M376.845,245.824c-7.226,16.587-13.026,70.713-15.899,73.542
			c-12.788,12.574-22.263,36.699-19.377,45.74c4.177-12.712,14.525-37.918,25.164-40.617c15.772-4.001-5.976,66.134-24.982,95.284
			c1.464,0.381,3.474,0.945,11.516-12.387c8.039-13.343,34.905-74.89,19.975-88.181c-1.154-22.512,2.166-50.261,7.957-72.872
			c0,0,11.797-1.432,18.614,2.829c-2.715,12.79-7.43,35.934-9.072,57.638c-1.606,21.102-4.571,149.218,6.392,149.026
			c-2.92-17.722-4.203-62.52-4.203-85.197c0-22.683-0.36-82.492,10.963-120.414c0,0,5.311-0.953,10.228,3.047
			c-2.925,20.771-8.212,107.843,2.2,160.638c1.374,6.973,5.483,10.086,5.483,10.086c-11.152-47.057-9.623-121.137-4.561-169.401
			c4.37,0.395,10.219,3.249,12.415,5.157c5.309,37.152-3.094,61.93-3.285,90.141c-0.189,28.2,17.721,59.045,11.939,97.497
			c2.172,1.499,6.257-5.871,5.427-19.962c-1.466-24.968-13.343-60.588-13.159-78.111c0.18-17.533,2.635-28.974,3.692-46.121
			c1.057-17.15-0.817-38.771-1.316-41.163c3.293-0.575,12.981,4.962,16.808,8.586c-1.274,14.672-0.821,38.566,2.376,63.794
			c2.933,23.065,7.865,46.123,15.537,66.317c7.676,20.199,22.852,60.394,6.585,98.692c-13.414,31.579-55.013,43.072-92.484,33.537
			c-37.463-9.527-72.184-30.683-90.465-63.646c-19.419-35.005,20.422-92.322,33.133-123.561
			c12.721-31.248,21.95-66.473,25.162-97.432C365.494,243.099,376.845,245.824,376.845,245.824z"/>
		<path fill-rule="evenodd" clip-rule="evenodd" fill="#EEE6AF" d="M411.372,286.65c0.811-15.203,1.887-27.228,2.749-33.388
			c-4.917-4-10.228-3.047-10.228-3.047c-2.815,9.444-4.912,20.247-6.469,31.494C402.127,282.974,406.773,284.62,411.372,286.65z"/>
		<path fill-rule="evenodd" clip-rule="evenodd" fill="#EEE6AF" d="M430.957,297.757c0.749-11.458,0.729-23.83-1.299-38.016
			c-2.196-1.907-8.045-4.761-12.415-5.157c-1.072,10.182-1.962,21.553-2.631,33.536
			C420.449,290.941,425.863,294.175,430.957,297.757z"/>
		<path fill-rule="evenodd" clip-rule="evenodd" fill="#EEE6AF" d="M434.416,300.296c5.588,4.231,10.802,8.887,15.708,13.976
			c-1.291-17.406-1.284-32.985-0.36-43.663c-3.827-3.625-13.515-9.161-16.808-8.586
			C433.427,264.283,435.121,283.696,434.416,300.296z"/>
		<path fill-rule="evenodd" clip-rule="evenodd" fill="#EEE6AF" d="M354.267,279.063c4.921-0.586,9.816-0.894,14.672-0.926
			c2.342-12.986,5.009-25.666,7.906-32.313c0,0-11.351-2.724-27.239,2.486c-1.072,10.357-2.878,21.215-5.208,32.221
			C347.751,279.916,351.068,279.438,354.267,279.063z"/>
		<path fill-rule="evenodd" clip-rule="evenodd" fill="#EEE6AF" d="M419.966,299.596c3.559,1.968,6.988,4.114,10.309,6.389
			c0.116-1.267,0.247-2.532,0.352-3.822c-5.041-3.735-10.446-7.009-16.246-9.791c-0.071,1.408-0.131,2.853-0.191,4.28
			C416.141,297.575,418.073,298.552,419.966,299.596z"/>
		<path fill-rule="evenodd" clip-rule="evenodd" fill="#EEE6AF" d="M410.963,295.214c0.062-1.455,0.124-2.93,0.195-4.339
			c-0.641-0.277-1.239-0.611-1.887-0.876c-4.102-1.672-8.234-3.047-12.389-4.189c-0.176,1.415-0.334,2.836-0.5,4.258
			C401.351,291.439,406.227,293.16,410.963,295.214z"/>
		<path fill-rule="evenodd" clip-rule="evenodd" fill="#EEE6AF" d="M450.958,323.496c-0.094-0.957-0.227-1.952-0.315-2.902
			c-5.148-5.709-10.622-10.965-16.502-15.688c-0.084,1.26-0.189,2.447-0.283,3.654C439.965,313.067,445.666,318.062,450.958,323.496
			z"/>
		<path fill-rule="evenodd" clip-rule="evenodd" fill="#EEE6AF" d="M392.693,289.104c0.193-1.398,0.352-2.822,0.555-4.199
			c-6.126-1.454-12.301-2.377-18.555-2.7c-0.152,1.336-0.253,2.671-0.382,4.009C380.466,286.668,386.629,287.646,392.693,289.104z"
			/>
		<path fill-rule="evenodd" clip-rule="evenodd" fill="#EEE6AF" d="M367.597,285.781c0.216-1.239,0.429-2.484,0.647-3.733
			c-4.618,0.042-9.28,0.378-13.978,1.017c-3.491,0.472-7.112,1.044-10.757,1.766c-0.296,1.312-0.669,2.635-0.975,3.949
			C350.172,285.585,359.259,285.369,367.597,285.781z"/>
		<path fill-rule="evenodd" clip-rule="evenodd" fill="#EEE6AF" d="M393.865,280.823c1.977-12.582,4.321-23.989,5.948-31.661
			c-6.816-4.261-18.614-2.829-18.614-2.829c-2.549,9.949-4.578,20.902-5.999,31.956C381.496,278.583,387.722,279.41,393.865,280.823
			z"/>
		<path fill-rule="evenodd" clip-rule="evenodd" fill="#FFF387" d="M496.153,255.72c-20.378-8.058-52.097-15.052-81.598-23.231
			c-29.499-8.182-60.088-10.46-88.189-13.418c-28.099-2.953-60.437-5.311-62.318,7.389c-2.049,13.946,53.842,38.756,73.028,41.476
			c2.155-7.636,3.924-21.064,4.348-25.956c25.985-8.461,78.153-2.621,115.498,23.237c-0.778,5.864,0.948,22.251,2.206,27.156
			c21.693,9.053,72.589,1.545,81.909-7.199C547.315,279.286,516.531,263.783,496.153,255.72z"/>
		<path fill-rule="evenodd" clip-rule="evenodd" fill="#EECA64" d="M457.298,279.558c5.035,0.556,10.391,0.789,14.617-0.787
			c10.024-3.735-5.706-14.857-8.124-16.149c-3.478-1.86-7.031-3.511-10.667-5.028c-16.566-6.903-32.711-14.635-50.111-19.124
			c-15.438-3.988-31.708-6.722-47.676-6.189c-7.702,0.26-17.267,0.504-23.987,5.059c-8.954,6.072,1.139,14.534,8.772,15.069
			c0.648-4.324,1.113-8.237,1.302-10.43c25.985-8.461,78.153-2.621,115.498,23.237C456.522,268.22,456.782,273.986,457.298,279.558z
			"/>
		<path fill-rule="evenodd" clip-rule="evenodd" fill="#EECA64" d="M496.153,255.72c-20.378-8.058-52.097-15.052-81.598-23.231
			c-29.499-8.182-60.088-10.46-88.189-13.418c-28.099-2.953-60.437-5.311-62.318,7.389c-1.747,11.894,38.62,31.672,62.449,38.928
			c-5.663-3.248-11.015-7.289-15.419-10.141c-7.291-4.728-23.111-10.227-20.442-21.81c2.227-9.667,20.777-8.684,27.533-8.674
			c22.411,0.046,44.569,0.823,66.784,4.202c25.338,3.847,50.323,9.606,74.621,18.068c17.096,5.951,38.923,11.282,52.097,25.159
			c5.296,5.575,10.862,13.757,8.227,20.867c9.996-2.086,17.974-4.913,21.139-7.885C547.315,279.286,516.531,263.783,496.153,255.72z
			"/>
		<path fill-rule="evenodd" clip-rule="evenodd" fill="#FFFBDC" d="M365.515,317.651c0.553-5.142,2.925-29.729,5.298-31.626
			c-0.191,9.904-1.469,28.019-0.549,32.011C368.251,317.083,366.791,317.651,365.515,317.651z"/>
		<path fill-rule="evenodd" clip-rule="evenodd" d="M462.378,446.479c-0.551,11.625-2.009,13.344-4.936,12.959
			c8.047-26.489-8.778-60.046-13.703-90.909c-3.621-22.658-3.087-26.905-0.343-27.452c0.66,17.115,4.859,37.085,10.764,56.426
			C460.375,417.886,462.927,434.851,462.378,446.479z"/>
		<path fill-rule="evenodd" clip-rule="evenodd" d="M339.378,373.275c-1.645,6.102-6.949,20.966-8.795,30.378
			C326.955,401.48,332.429,374.988,339.378,373.275z"/>
	</g>
	<path fill-rule="evenodd" clip-rule="evenodd" d="M288.213,235.599c1.071-1.003,4.178-0.434,3.551,1.318
		C291.13,238.694,286.233,237.438,288.213,235.599z"/>
	<path fill-rule="evenodd" clip-rule="evenodd" d="M298.645,239.138c1.073-1,4.162-0.444,3.543,1.318
		C301.553,242.221,296.668,240.977,298.645,239.138z"/>
	<path fill-rule="evenodd" clip-rule="evenodd" d="M309.966,220.934c1.175-1.977,5.217-1.578,5.103,0.726
		C314.924,223.949,308.164,223.969,309.966,220.934z"/>
	<path fill-rule="evenodd" clip-rule="evenodd" d="M293.901,230.25c1.596-0.92,4.323,1.06,3.354,2.64
		C296.278,234.482,291.448,231.658,293.901,230.25z"/>
	<path fill-rule="evenodd" clip-rule="evenodd" d="M352.901,232.542c1.604-0.925,4.325,1.06,3.36,2.632
		C355.277,236.775,350.452,233.951,352.901,232.542z"/>
	<path fill-rule="evenodd" clip-rule="evenodd" d="M433.247,246.615c1.595-0.927,4.325,1.058,3.354,2.633
		C435.619,250.847,430.796,248.021,433.247,246.615z"/>
	<path fill-rule="evenodd" clip-rule="evenodd" d="M300.849,226.059c1.587-0.914,4.315,1.066,3.328,2.637
		C303.209,230.292,298.393,227.467,300.849,226.059z"/>
	<path fill-rule="evenodd" clip-rule="evenodd" d="M291.529,243.818c1.845-1.866,5.471,0.03,4.176,2.47
		C294.422,248.735,289.029,246.366,291.529,243.818z"/>
	<path fill-rule="evenodd" clip-rule="evenodd" d="M326.412,255.844c1.848-1.881,5.466,0.026,4.179,2.465
		C329.305,260.75,323.912,258.393,326.412,255.844z"/>
	<path fill-rule="evenodd" clip-rule="evenodd" d="M310.415,238.975c0.98-1.763,4.08-1.134,4.02,0.759
		C314.375,241.591,308.824,241.817,310.415,238.975z"/>
	<path fill-rule="evenodd" clip-rule="evenodd" d="M305.942,232.387c0.797-1.416,3.28-0.916,3.223,0.591
		C309.123,234.472,304.669,234.661,305.942,232.387z"/>
	<path fill-rule="evenodd" clip-rule="evenodd" d="M413.223,240.405c0.781-1.414,3.268-0.91,3.216,0.595
		C416.388,242.487,411.943,242.672,413.223,240.405z"/>
	<path fill-rule="evenodd" clip-rule="evenodd" d="M432.681,240.731c0.785-1.411,3.261-0.909,3.216,0.592
		C435.844,242.821,431.401,242.998,432.681,240.731z"/>
	<path fill-rule="evenodd" clip-rule="evenodd" d="M392.877,235.659c0.791-1.412,3.276-0.908,3.221,0.59
		C396.059,237.744,391.603,237.929,392.877,235.659z"/>
	<path fill-rule="evenodd" clip-rule="evenodd" d="M399.241,232.714c1.316-0.898,3.313,0.729,2.622,2.043
		C401.177,236.063,397.127,234.147,399.241,232.714z"/>
	<path fill-rule="evenodd" clip-rule="evenodd" d="M421.529,237.628c1.316-0.891,3.304,0.723,2.614,2.036
		C423.457,240.977,419.413,239.056,421.529,237.628z"/>
	<path fill-rule="evenodd" clip-rule="evenodd" d="M377.128,228.951c0.787-1.41,3.27-0.907,3.214,0.597
		C380.297,231.043,375.854,231.222,377.128,228.951z"/>
	<path fill-rule="evenodd" clip-rule="evenodd" d="M358.358,227.476c0.795-1.411,3.272-0.911,3.216,0.597
		C361.538,229.567,357.082,229.75,358.358,227.476z"/>
	<path fill-rule="evenodd" clip-rule="evenodd" d="M363.693,232.714c0.798-1.416,3.279-0.911,3.216,0.591
		C366.872,234.794,362.415,234.98,363.693,232.714z"/>
	<path fill-rule="evenodd" clip-rule="evenodd" d="M367.145,228.129c0.793-1.414,3.276-0.906,3.218,0.599
		C370.325,230.218,365.873,230.401,367.145,228.129z"/>
	<path fill-rule="evenodd" clip-rule="evenodd" d="M315.477,228.565c1.559-1.202,4.108,0.652,3.358,2.32
		C318.08,232.549,312.966,230.482,315.477,228.565z"/>
	<path fill-rule="evenodd" clip-rule="evenodd" d="M309.949,245.42c1.546-1.189,4.108,0.65,3.349,2.314
		C312.533,249.401,307.435,247.325,309.949,245.42z"/>
	<path fill-rule="evenodd" clip-rule="evenodd" d="M278.56,222.835c1.549-1.186,4.109,0.656,3.358,2.318
		C281.151,226.82,276.053,224.744,278.56,222.835z"/>
	<path fill-rule="evenodd" clip-rule="evenodd" d="M300.647,248.957c1.051-1.879,4.337-1.223,4.258,0.777
		C304.849,251.714,298.971,251.959,300.647,248.957z"/>
	<path fill-rule="evenodd" clip-rule="evenodd" d="M329.21,224.411c1.046-1.875,4.335-1.219,4.256,0.786
		C333.404,227.17,327.529,227.415,329.21,224.411z"/>
	<path fill-rule="evenodd" clip-rule="evenodd" d="M313.931,253.954c1.156-1.085,3.409-0.071,3.296,1.646
		C317.098,257.321,311.379,256.319,313.931,253.954z"/>
	<path fill-rule="evenodd" clip-rule="evenodd" d="M409.336,234.321c1.162-1.086,3.415-0.074,3.298,1.645
		C412.507,237.68,406.786,236.685,409.336,234.321z"/>
	<path fill-rule="evenodd" clip-rule="evenodd" d="M425.661,243.154c1.156-1.085,3.405-0.07,3.291,1.655
		C428.826,246.52,423.107,245.519,425.661,243.154z"/>
	<path fill-rule="evenodd" clip-rule="evenodd" d="M328.994,236.938c1.158-1.086,3.414-0.072,3.293,1.645
		C332.161,240.3,326.442,239.303,328.994,236.938z"/>
	<path fill-rule="evenodd" clip-rule="evenodd" d="M317.679,246.079c1.156-1.075,3.409-0.073,3.291,1.655
		C320.842,249.467,315.115,248.442,317.679,246.079z"/>
	<path fill-rule="evenodd" clip-rule="evenodd" d="M338.389,225.138c1.156-1.076,3.414-0.073,3.296,1.65
		C341.552,228.519,335.829,227.503,338.389,225.138z"/>
	<path fill-rule="evenodd" clip-rule="evenodd" d="M325.361,245.785c0.819-1.697,4.857-1.515,4.237,0.988
		C328.994,249.277,324.09,248.503,325.361,245.785z"/>
	<path fill-rule="evenodd" clip-rule="evenodd" d="M290.214,223.857c0.809-1.697,4.851-1.511,4.239,0.991
		C293.842,227.355,288.938,226.577,290.214,223.857z"/>
	<path fill-rule="evenodd" clip-rule="evenodd" d="M390.019,231.059c0.811-1.7,4.852-1.511,4.237,0.991
		C393.642,234.552,388.739,233.78,390.019,231.059z"/>
	<path fill-rule="evenodd" clip-rule="evenodd" d="M332.345,231.503c0.65-1.357,3.904-1.21,3.426,0.803
		C335.274,234.34,331.286,233.716,332.345,231.503z"/>
	<path fill-rule="evenodd" clip-rule="evenodd" d="M299.079,220.38c0.646-1.362,3.907-1.214,3.42,0.801
		C302.003,223.215,298.022,222.592,299.079,220.38z"/>
	<path fill-rule="evenodd" clip-rule="evenodd" d="M319.484,222.856c0.646-1.36,3.917-1.219,3.427,0.797
		C322.422,225.687,318.438,225.065,319.484,222.856z"/>
	<path fill-rule="evenodd" clip-rule="evenodd" d="M323.245,230.053c0.65-1.357,3.926-1.217,3.433,0.804
		C326.187,232.89,322.207,232.267,323.245,230.053z"/>
	<path fill-rule="evenodd" clip-rule="evenodd" d="M372.503,233.145c0.647-1.364,3.909-1.218,3.431,0.797
		C375.432,235.974,371.448,235.35,372.503,233.145z"/>
	<path fill-rule="evenodd" clip-rule="evenodd" d="M334.526,242.603c0.646-1.371,3.92-1.24,3.428,0.799
		C337.459,245.44,333.486,244.809,334.526,242.603z"/>
	<path fill-rule="evenodd" clip-rule="evenodd" d="M403.257,238.35c0.646-1.376,3.922-1.238,3.437,0.795
		C406.192,241.183,402.217,240.544,403.257,238.35z"/>
	<path fill-rule="evenodd" clip-rule="evenodd" d="M320.649,237.427c0.796-1.69,4.835-1.514,4.224,0.988
		C324.268,240.931,319.362,240.151,320.649,237.427z"/>
	<path fill-rule="evenodd" clip-rule="evenodd" d="M466.75,265.07c1.338-0.558,4.063,1.077,2.92,2.497
		C468.491,269.016,464.293,266.114,466.75,265.07z"/>
	<path fill-rule="evenodd" clip-rule="evenodd" d="M475.421,272.089c1.338-0.575,4.063,1.051,2.91,2.482
		C477.166,276.015,472.961,273.117,475.421,272.089z"/>
	<path fill-rule="evenodd" clip-rule="evenodd" d="M439.013,243.941c1.338-0.572,4.065,1.055,2.905,2.493
		C440.763,247.866,436.554,244.976,439.013,243.941z"/>
	<path fill-rule="evenodd" clip-rule="evenodd" d="M466.257,283.341c1.34-0.575,4.067,1.06,2.905,2.491
		C467.996,287.271,463.787,284.374,466.257,283.341z"/>
	<path fill-rule="evenodd" clip-rule="evenodd" d="M507.375,287.271c1.329-0.572,4.059,1.056,2.903,2.485
		C509.11,291.199,504.903,288.306,507.375,287.271z"/>
	<path fill-rule="evenodd" clip-rule="evenodd" d="M480.067,287.606c1.336-0.578,4.059,1.049,2.903,2.479
		C481.804,291.524,477.601,288.635,480.067,287.606z"/>
	<path fill-rule="evenodd" clip-rule="evenodd" d="M464.376,256.836c1.332-0.572,4.063,1.055,2.905,2.488
		C466.113,260.764,461.906,257.875,464.376,256.836z"/>
	<path fill-rule="evenodd" clip-rule="evenodd" d="M491.982,258.934c1.739-1.436,5.433,0.355,4.554,2.487
		C495.675,263.525,489.3,261.163,491.982,258.934z"/>
	<path fill-rule="evenodd" clip-rule="evenodd" d="M473.843,262.038c1.794-0.292,3.718,2.531,2.296,3.675
		C474.698,266.872,471.075,262.517,473.843,262.038z"/>
	<path fill-rule="evenodd" clip-rule="evenodd" d="M481.74,260.552c1.784-0.301,3.701,2.524,2.275,3.658
		C482.58,265.369,478.957,261.011,481.74,260.552z"/>
	<path fill-rule="evenodd" clip-rule="evenodd" d="M467.204,273.972c2.337-1.106,5.138,1.973,3.141,3.802
		C468.341,279.635,464.025,275.492,467.204,273.972z"/>
	<path fill-rule="evenodd" clip-rule="evenodd" d="M486.551,276.074c1.507-1.308,4.209,0.376,3.542,2.121
		C489.439,279.942,484.126,278.188,486.551,276.074z"/>
	<path fill-rule="evenodd" clip-rule="evenodd" d="M484.484,268.298c1.194-1.045,3.366,0.301,2.833,1.701
		C486.793,271.38,482.542,269.99,484.484,268.298z"/>
	<path fill-rule="evenodd" clip-rule="evenodd" d="M449.955,255.942c0.577-1.52,3.107-1.382,3.263,0.114
		C453.37,257.535,448.998,258.393,449.955,255.942z"/>
	<path fill-rule="evenodd" clip-rule="evenodd" d="M525.273,276.241c0.577-1.528,3.113-1.394,3.266,0.092
		C528.701,277.821,524.323,278.685,525.273,276.241z"/>
	<path fill-rule="evenodd" clip-rule="evenodd" d="M519.938,282.455c0.579-1.522,3.113-1.387,3.27,0.103
		C523.364,284.041,518.988,284.904,519.938,282.455z"/>
	<path fill-rule="evenodd" clip-rule="evenodd" d="M516.801,288.999c0.577-1.524,3.105-1.386,3.266,0.105
		C520.223,290.578,515.851,291.439,516.801,288.999z"/>
	<path fill-rule="evenodd" clip-rule="evenodd" d="M453.716,249.077c0.585-1.525,3.109-1.395,3.268,0.098
		C457.135,250.665,452.766,251.521,453.716,249.077z"/>
	<path fill-rule="evenodd" clip-rule="evenodd" d="M461.574,287.279c1.194-1.051,3.369,0.296,2.832,1.7
		C463.877,290.358,459.633,288.974,461.574,287.279z"/>
	<path fill-rule="evenodd" clip-rule="evenodd" d="M458.12,252.924c1.197-1.06,3.377,0.29,2.837,1.69
		C460.424,256.002,456.177,254.604,458.12,252.924z"/>
	<path fill-rule="evenodd" clip-rule="evenodd" d="M517.438,277.135c1.197-1.05,3.371,0.302,2.835,1.701
		C519.739,280.215,515.5,278.824,517.438,277.135z"/>
	<path fill-rule="evenodd" clip-rule="evenodd" d="M525.967,284.845c1.199-1.043,3.375,0.295,2.837,1.697
		C528.272,287.922,524.025,286.536,525.967,284.845z"/>
	<path fill-rule="evenodd" clip-rule="evenodd" d="M442.739,250.628c1.199-1.054,3.375,0.299,2.839,1.698
		C445.049,253.708,440.801,252.314,442.739,250.628z"/>
	<path fill-rule="evenodd" clip-rule="evenodd" d="M464.395,249.649c1.201-1.061,3.377,0.3,2.839,1.696
		C466.703,252.729,462.455,251.332,464.395,249.649z"/>
	<path fill-rule="evenodd" clip-rule="evenodd" d="M460.63,268.627c1.196-1.055,3.379,0.3,2.832,1.697
		C462.938,271.711,458.69,270.315,460.63,268.627z"/>
	<path fill-rule="evenodd" clip-rule="evenodd" d="M471.934,289.571c1.19-1.051,3.371,0.29,2.837,1.702
		C474.235,292.653,469.99,291.261,471.934,289.571z"/>
	<path fill-rule="evenodd" clip-rule="evenodd" d="M487.359,291.661c1.209-1.052,3.36,0.298,2.839,1.697
		C489.664,294.736,485.426,293.348,487.359,291.661z"/>
	<path fill-rule="evenodd" clip-rule="evenodd" d="M513.72,284.135c1.207-1.054,3.362,0.294,2.835,1.696
		C516.031,287.208,511.788,285.818,513.72,284.135z"/>
	<path fill-rule="evenodd" clip-rule="evenodd" d="M494.69,268.065c1.857-0.584,3.658,2.053,2.412,3.367
		C495.837,272.73,491.708,268.983,494.69,268.065z"/>
	<path fill-rule="evenodd" clip-rule="evenodd" d="M484.021,281.976c1.861-0.576,3.666,2.065,2.397,3.362
		C485.172,286.637,481.053,282.894,484.021,281.976z"/>
	<path fill-rule="evenodd" clip-rule="evenodd" d="M474.132,282.027c1.587-1.396,4.469,0.377,3.744,2.236
		C477.185,286.108,471.576,284.263,474.132,282.027z"/>
	<path fill-rule="evenodd" clip-rule="evenodd" d="M508.96,268.983c1.591-1.381,4.479,0.396,3.746,2.257
		C512.028,273.071,506.419,271.227,508.96,268.983z"/>
	<path fill-rule="evenodd" clip-rule="evenodd" d="M504.706,280.707c1.43-0.615,3.233,1.133,2.571,2.709
		C506.593,284.991,501.535,282.027,504.706,280.707z"/>
	<path fill-rule="evenodd" clip-rule="evenodd" d="M491.078,285.32c1.449-0.595,3.246,1.148,2.566,2.716
		C492.964,289.62,487.913,286.65,491.078,285.32z"/>
	<path fill-rule="evenodd" clip-rule="evenodd" d="M498.415,287.752c1.312-1.304,5.062,0.284,3.66,2.425
		C500.694,292.324,496.339,289.854,498.415,287.752z"/>
	<path fill-rule="evenodd" clip-rule="evenodd" d="M472.443,254.731c1.308-1.315,5.058,0.286,3.66,2.431
		C474.718,259.294,470.363,256.836,472.443,254.731z"/>
	<path fill-rule="evenodd" clip-rule="evenodd" d="M509.61,276.781c1.051-1.052,4.083,0.223,2.965,1.955
		C511.451,280.471,507.903,278.492,509.61,276.781z"/>
	<path fill-rule="evenodd" clip-rule="evenodd" d="M481.905,254.575c1.051-1.045,4.085,0.238,2.972,1.965
		C483.747,258.281,480.213,256.282,481.905,254.575z"/>
	<path fill-rule="evenodd" clip-rule="evenodd" d="M500.317,264.103c1.044-1.049,4.074,0.232,2.957,1.964
		C502.156,267.799,498.601,265.815,500.317,264.103z"/>
	<path fill-rule="evenodd" clip-rule="evenodd" d="M501.535,272.214c1.033-1.062,4.065,0.229,2.952,1.948
		C503.361,275.903,499.821,273.924,501.535,272.214z"/>
	<path fill-rule="evenodd" clip-rule="evenodd" d="M447.06,244.612c1.036-1.06,4.068,0.233,2.963,1.945
		C448.891,248.3,445.353,246.318,447.06,244.612z"/>
	<path fill-rule="evenodd" clip-rule="evenodd" d="M517.676,270.785c1.038-1.052,4.059,0.239,2.961,1.954
		C519.507,274.478,515.963,272.493,517.676,270.785z"/>
	<path fill-rule="evenodd" clip-rule="evenodd" d="M533.363,281.262c1.042-1.056,4.07,0.229,2.959,1.951
		C535.198,284.951,531.66,282.967,533.363,281.262z"/>
	<path fill-rule="evenodd" clip-rule="evenodd" d="M460.555,277.004c1.04-1.051,4.072,0.236,2.957,1.952
		C462.384,280.698,458.851,278.71,460.555,277.004z"/>
	<path fill-rule="evenodd" clip-rule="evenodd" d="M457.869,259.652c1.042-1.052,4.076,0.236,2.961,1.954
		C459.71,263.341,456.162,261.36,457.869,259.652z"/>
	<path fill-rule="evenodd" clip-rule="evenodd" d="M496.682,278.232c1.299-1.307,5.045,0.273,3.649,2.408
		C498.962,282.793,494.585,280.338,496.682,278.232z"/>
	<path fill-rule="evenodd" clip-rule="evenodd" d="M382.156,233.496c0.802-1.688,4.844-1.508,4.235,0.995
		C385.784,236.992,380.874,236.22,382.156,233.496z"/>
	<path fill-rule="evenodd" clip-rule="evenodd" d="M346.068,228.263c0.795-1.686,4.835-1.512,4.23,0.997
		C349.687,231.761,344.783,230.98,346.068,228.263z"/>
	<path fill-rule="evenodd" clip-rule="evenodd" d="M341.49,236.436c0.626-2.693,5.489-2.067,4.998,0.511
		C345.999,239.543,340.641,239.97,341.49,236.436z"/>
	<path fill-rule="evenodd" clip-rule="evenodd" d="M272.697,231.177c-1.886-2.943,2.825-4.578,4.081-1.96
		C278.032,231.831,273.953,233.145,272.697,231.177z"/>
	<path fill-rule="evenodd" clip-rule="evenodd" d="M279.29,237.071c0.813-1.184,5.647-0.985,5.335,1.633
		C284.31,241.323,277.72,239.358,279.29,237.071z"/>
	<path fill-rule="evenodd" clip-rule="evenodd" d="M281.484,230.527c1.373-1.668,5.336-1.962,5.336,0.33
		C286.82,233.145,279.6,232.813,281.484,230.527z"/>
</g>
<g>
	<path fill-rule="evenodd" clip-rule="evenodd" d="M438.329,179.761c-5.241,14.638-14.823,23.199-28.541,29.23
		c-13.013,5.719-26.684,1.529-37.283-7.331c-0.913-0.76-1.936,0.506-1.188,1.395c21.326,25.249,62.517,19.253,71.688-14.511
		C444.581,182.76,439.845,175.519,438.329,179.761z"/>
	<path fill-rule="evenodd" clip-rule="evenodd" d="M380.473,122.422c-12.882-7.209-28.854-1.858-32.992,13.116
		c-2.054,7.436-0.478,18.056,5.476,24.64c-2.802-1.136-11.514,1.099-7.993,2.474c11.184,4.371,21.808,9.623,30.13,13.939
		c3.09,1.606,4.893-3.867,2.354-5.836c6.6-2.319,12.07-7.657,14.917-15.362C396.835,143.302,391.601,128.648,380.473,122.422z"/>
	<path fill-rule="evenodd" clip-rule="evenodd" fill="#FFFFFF" d="M385.151,152.983c-2.2,7.113-7.044,10.749-13.268,10.938
		c-6.229,0.189-11.819-2.726-15.623-8.934c-3.403-5.551-5.034-12.664-2.907-18.863c3.666-10.72,19.261-12.336,27.023-5.593
		C386.556,135.895,387.484,145.453,385.151,152.983z"/>
	<path fill-rule="evenodd" clip-rule="evenodd" d="M446.488,156.454c5.703-8.18,7.985-17.874,3.435-26.531
		c1.192,0.91,6.754,5.057,8,5.909c3.673,2.512,4.47-3.792,0.995-9.742c-8.849-15.182-25.458-23.152-41.815-22.618
		c-8.952,0.293-8.755,4.717-5.678,5.415c6.913,1.566,16.006,3.807,20.775,7.119c-11.922-2.555-26.959,2.275-33.554,17.199
		c-8.107,18.372-0.279,38.773,15.94,39.65c-2.238,2.92-3.075,9.062-0.463,7.201c10.523-7.491,27.861-15.071,41.236-16.643
		C460.285,162.837,455.124,155.363,446.488,156.454z"/>
	<path fill-rule="evenodd" clip-rule="evenodd" fill="#FFFFFF" d="M438.904,157.115c-4.747,5.536-15.376,10.202-22.921,9.326
		c-10.185-1.182-19.853-16.911-10.822-32.928c7.916-14.032,30.391-14.88,37.939-2.051
		C448.012,139.804,443.657,151.578,438.904,157.115z"/>
	<path fill-rule="evenodd" clip-rule="evenodd" d="M385.919,97.285c-6.906-3.87-15.397-4.113-22.754-1.462
		c-8.375,3.023-13.017,9.666-15.923,18.105c-0.547,1.598,1.733,2.829,2.588,1.34c7.43-12.886,20.891-13.359,33.23-9.955
		C387.675,106.582,390.01,99.574,385.919,97.285z"/>
	<ellipse fill-rule="evenodd" clip-rule="evenodd" cx="365.154" cy="150.731" rx="8.899" ry="9.28"/>
	<path fill-rule="evenodd" clip-rule="evenodd" d="M427.462,152.182c0,6.249-4.854,11.315-10.845,11.315
		s-10.852-5.066-10.852-11.315c0-6.248,4.861-11.307,10.852-11.307S427.462,145.933,427.462,152.182z"/>
	<path fill-rule="evenodd" clip-rule="evenodd" fill="#FFFFFF" d="M371.274,148.412c0,1.606-1.241,2.901-2.781,2.901
		c-1.537,0-2.781-1.295-2.781-2.901c0-1.601,1.244-2.899,2.781-2.899C370.033,145.513,371.274,146.811,371.274,148.412z"/>
	<path fill-rule="evenodd" clip-rule="evenodd" fill="#FFFFFF" d="M422.456,149.573c0,1.926-1.492,3.481-3.341,3.481
		c-1.836,0-3.332-1.556-3.332-3.481c0-1.923,1.497-3.483,3.332-3.483C420.963,146.09,422.456,147.65,422.456,149.573z"/>
</g>
<path fill-rule="evenodd" clip-rule="evenodd" fill="#FF8836" d="M472.488,224.914c28.419,6.283,73.011,22.745,81.47,42.242
	c8.461,19.497,4.454-22.282-32.943-39.458C483.616,210.523,457.794,221.663,472.488,224.914z"/>
<path fill-rule="evenodd" clip-rule="evenodd" fill="#FF8836" d="M502.759,118.146c20.132,0.267,52.534,24.602,61.883,54.775
	C573.99,203.094,468.034,117.682,502.759,118.146z"/>
<path fill-rule="evenodd" clip-rule="evenodd" fill="#FF8836" d="M257.458,150.64c5.147-11.93,37.841-36.21,52.533-38.994
	C324.682,108.862,249.444,169.208,257.458,150.64z"/>
</svg>
