<?xml version="1.0" encoding="utf-8"?>
<!-- Generator: Adobe Illustrator 17.0.0, SVG Export Plug-In . SVG Version: 6.00 Build 0)  -->
<!DOCTYPE svg PUBLIC "-//W3C//DTD SVG 1.1//EN" "http://www.w3.org/Graphics/SVG/1.1/DTD/svg11.dtd">
<svg version="1.1" id="Layer_1" xmlns="http://www.w3.org/2000/svg" xmlns:xlink="http://www.w3.org/1999/xlink" x="0px" y="0px"
	 width="800px" height="600px" viewBox="0 0 800 600" enable-background="new 0 0 800 600" xml:space="preserve">
<g>
	<path fill-rule="evenodd" clip-rule="evenodd" fill="#9C9D9F" d="M234.084,497.14c124.045,20.684,447.102-12.118,310.109-92.097
		C837.806,454.216,459.709,552.817,234.084,497.14L234.084,497.14z"/>
	<path fill-rule="evenodd" clip-rule="evenodd" fill="#1A171B" d="M227.77,475.672c16.786,1.793,35.428,2.742,55.122,2.967V303.09
		l45.307-21.042V161.542l11.898-6.301c0.236-2.806,0.575-5.563,1.011-8.268l-0.105,0.069c-7.975-1.307-3.105-9.843,3.352-14.122
		c0.417-1.366,0.862-2.717,1.335-4.044c-7.41-1.497-0.97-11.98,5.333-14.933c0.738-0.344,1.47-0.674,2.206-0.993
		c0.954-1.55,1.944-3.045,2.979-4.473c-4.31-1.149-0.282-7.617,3.659-9.463c2.907-1.36,5.766-2.391,8.582-3.109
		c5.352-3.93,11.23-6.5,17.435-7.413l2.394-28.404l2.504-29.633l2.501,29.633l2.396,28.358c23.543,3.24,42.486,30.382,45.949,65.101
		l10.075,4.677v103.87l24.033-12.728l62.466,29.009v105.257C831.194,432.824,453.307,531.326,227.77,475.672L227.77,475.672z"/>
	<polygon fill-rule="evenodd" clip-rule="evenodd" fill="#FFFFFF" points="384.38,153.67 340.674,177.099 384.46,161.899 
		384.563,172.235 340.674,195.762 384.643,180.494 384.749,191.156 339.896,215.196 384.829,199.6 384.955,212.037 339.896,236.192 
		385.038,220.518 385.125,229.467 340.674,253.297 385.207,237.833 385.778,295.485 345.358,274.076 332.408,280.088 
		334.829,164.855 384.258,141.646 384.38,153.67 	"/>
	<path fill-rule="evenodd" clip-rule="evenodd" fill="#FFFFFF" d="M538.199,446.672c47.946-15.85,61.363-35.454,0-53.689V446.672
		L538.199,446.672z"/>
	<path fill-rule="evenodd" clip-rule="evenodd" fill="#9C9D9F" d="M474.674,462.133c24.217-4.464,45.861-9.65,63.106-15.318
		l-7.039-162.638l-49.207-23.208l-0.413,12.129l45.802,24.517l-46.095-16.004l-0.307,9.043l46.403,24.845l-46.696-16.21
		l-0.342,10.047l47.813,25.602l-48.115-16.71l-0.47,13.716l46.256,24.765l-46.549-16.167l-0.367,10.845l47.691,25.533
		l-47.996-16.662l-0.387,11.391l47.608,25.489l-47.911-16.637l-0.427,12.526l48.338,25.882l-48.645-16.892l-0.463,13.565
		l48.329,25.872l-48.636-16.884L474.674,462.133L474.674,462.133z"/>
	<path fill-rule="evenodd" clip-rule="evenodd" fill="#FFFFFF" d="M414.81,471.082c20.597-2.446,40.535-5.409,59.002-8.795
		l-0.569-37.435l-47.82,16.602l47.68-25.561l-0.2-13.202l-46.705,16.217l46.572-24.969l-0.197-12.906l-46.375,16.105l46.244-24.79
		l-0.17-11.155l-45.3,15.727l45.169-24.21l-0.179-11.895l-45.765,15.894l45.632-24.465l-0.188-12.276l-43.11,14.97l42.991-23.05
		l-0.177-11.526l-43.594,15.137l43.47-23.304l-0.149-9.618l-43.321,15.039l43.199-23.162l-0.195-12.659l-49.429,23.213
		L414.81,471.082L414.81,471.082z"/>
	<path fill-rule="evenodd" clip-rule="evenodd" fill="#9C9D9F" d="M406.393,472.05c2.779-0.307,5.549-0.628,8.305-0.956V281.689
		l31.971-16.93l-2.428-100.731l-49.207-23.208l-0.266,12.152l45.073,24.128l-45.261-15.713l-0.22,10.027l45.481,24.35l-45.674-15.86
		l-0.243,11.127l45.137,24.167l-45.325-15.736l-0.271,12.319l45.595,24.412l-45.786-15.899l-0.177,7.979l46.742,25.024
		l-46.935-16.298l-1.362,61.544l14.848,7.86V472.05L406.393,472.05z"/>
	<path fill-rule="evenodd" clip-rule="evenodd" fill="#9C9D9F" d="M345.301,477.14c20.218-1.126,40.654-2.832,60.588-5.037
		l-6.129-162.381l-49.431-23.213l-0.335,12.808l44.749,23.96l-44.97-15.617l-0.268,10.057l45.238,24.217l-45.46-15.784
		l-0.303,11.499l45.763,24.499l-45.988-15.967l-0.28,10.637l46.267,24.772l-46.494-16.146l-0.342,12.842l46.836,25.075
		l-47.065-16.343l-0.305,11.556l48.152,25.781l-48.388-16.804l-0.339,12.902l47.946,25.671l-48.182-16.729l-0.282,10.595
		l0.403-0.216l49.617,26.563l-49.585-17.212l-0.681,0.234L345.301,477.14L345.301,477.14z"/>
	<path fill-rule="evenodd" clip-rule="evenodd" fill="#FFFFFF" d="M283.004,478.642c19.763,0.216,40.586-0.305,61.648-1.463
		l-0.72-27.094l-46.798,16.249l46.564-24.96l-0.314-11.854l-47.806,16.6l47.567-25.501l-0.33-12.4l-46.46,16.132l46.233-24.786
		l-0.332-12.416l-46.678,16.208l46.446-24.902l-0.344-12.879l-46.102,16.011l45.873-24.595l-0.28-10.673l-45.593,15.827
		l45.364-24.318l-0.307-11.54l-45.057,15.644l44.837-24.034l-0.27-10.102l-44.566,15.479l44.346-23.775l-0.367-13.819
		l-49.205,23.208L283.004,478.642L283.004,478.642z"/>
	<path fill-rule="evenodd" clip-rule="evenodd" fill="#3BBCE6" d="M507.732,525.138c-153.221,11.026-448.808-23.703-254.442-92.097
		C-15.987,465.96,243.033,563.591,507.732,525.138L507.732,525.138z"/>
	<path fill-rule="evenodd" clip-rule="evenodd" fill="#FFFFFF" d="M390.939,91.323c23.571,0,42.826,27.457,43.991,61.964
		l-45.703-18.283l-42.305,19.324c0.092-4.003,0.431-7.91,0.986-11.7c18.966-11.164,37.94-14.679,56.908-15.873
		c-17.646-4.288-35.365-3.653-54.111,3.258c0.647-2.149,1.371-4.23,2.162-6.248c15.126-9.862,30.245-13.035,45.373-14.138
		c-12.592-3.533-25.235-3.54-38.435,0.807c2.121-3.139,4.455-5.966,6.968-8.415c7.736-3.781,15.472-5.2,23.203-5.762
		c-4.292-1.204-8.596-1.765-12.959-1.605C381.394,92.493,386.074,91.323,390.939,91.323L390.939,91.323z"/>
	<path fill-rule="evenodd" clip-rule="evenodd" fill="#9C9D9F" d="M390.939,91.323c23.571,0,42.826,27.457,43.991,61.964
		l-45.703-18.283C423.823,146.283,423.945,103.264,390.939,91.323L390.939,91.323z"/>
</g>
</svg>
