<?xml version="1.0" encoding="utf-8"?>
<!-- Generator: Adobe Illustrator 17.0.0, SVG Export Plug-In . SVG Version: 6.00 Build 0)  -->
<!DOCTYPE svg PUBLIC "-//W3C//DTD SVG 1.1//EN" "http://www.w3.org/Graphics/SVG/1.1/DTD/svg11.dtd">
<svg version="1.1" id="Layer_1" xmlns="http://www.w3.org/2000/svg" xmlns:xlink="http://www.w3.org/1999/xlink" x="0px" y="0px"
	 width="800px" height="600px" viewBox="0 0 800 600" enable-background="new 0 0 800 600" xml:space="preserve">
<g>
	<g>
		<path fill="#FFFFFF" d="M413.183,237.743c6.445-14.425,16.762-25.015,32.456-27.805c19.826-3.522,45.686,10.934,57.155,28.05
			c30.189,45.084,8.193,142.609-58.312,133.203c-13.586-1.926-34.417-11.911-30.884-30.409c3.23-16.941,14.549-3.326,23.053,1.757
			c32.884,19.665,58.914-30.199,55.955-61.712c-1.592-17.055-11.509-34.118-27.331-38.978c-20.323-6.236-36.332,9.577-48.124,25.376
			L413.183,237.743z"/>
		<g>
			<path fill="none" d="M413.183,237.743c6.445-14.425,16.762-25.015,32.456-27.805c19.826-3.522,45.686,10.934,57.155,28.05
				c30.189,45.084,8.193,142.609-58.312,133.203c-13.586-1.926-34.417-11.911-30.884-30.409c3.23-16.941,14.549-3.326,23.053,1.757
				c32.884,19.665,58.914-30.199,55.955-61.712c-1.592-17.055-11.509-34.118-27.331-38.978
				c-20.323-6.236-36.332,9.577-48.124,25.376L413.183,237.743z"/>
			<path d="M517.161,256.075c-14.475-50.36-82.879-73.713-109.193-20.263c-0.815,1.67-0.715,3.159-0.058,4.339
				c1.258,9.348,2.508,18.692,3.77,28.038c0.679,5.051,7.206,5.861,10.022,2.223c16.18-20.909,42.482-36.837,60.13-6.89
				c8.721,14.796,5.692,33.175,0.217,48.386c-5.125,14.26-16.557,30.385-33.369,29.323c-11.229-0.711-25.056-18.762-30.531-14.126
				c-5.463,4.63-5.436,34.984,4.679,41.997c17.259,11.967,42.094,10.193,59.741,0.505
				C520.039,349.034,527.882,293.385,517.161,256.075z M508.375,309.6c-3.914,21.909-16.083,43.486-36.771,53.096
				c-11.284,5.246-24.807,4.3-36.25,0.316c-3.456-1.312-6.64-3.1-9.54-5.366c-7.385-4.7-10.888-13.11-4.438-19.769
				c3.541,2.258,9.599,7.929,13.342,9.876c38.716,20.107,63.224-30.917,63.639-62.535c0.28-21-11.602-40.83-31.148-48.58
				c-17.861-7.08-34.153,4.494-46.221,17.469c-0.687-5.137-1.378-10.274-2.066-15.409c19.026-36.885,64.373-28.117,82.231,3.837
				C511.71,261.428,512.063,288.868,508.375,309.6z"/>
		</g>
	</g>
	<g>
		<path fill="#FFFFFF" d="M206.745,226.389c1.852,43.263,3.708,131.632,5.525,164.246c1.833,32.61,67.425,51.803,116.768,45.955
			c29.195-3.462,83.469-13.343,85.756-44.472c2.275-31.131,5.929-175.413,5.929-175.413L206.745,226.389z"/>
		<path fill="#E6E2DE" d="M391.206,218.041c7.89,61.543,9.525,151.59-4.869,175.892c-14.394,24.303-72.772,41.729-122.593,37.495
			c20.637,5.613,44.412,7.638,65.294,5.162c29.195-3.462,83.469-13.343,85.756-44.472c2.275-31.131,5.929-175.413,5.929-175.413
			L391.206,218.041z"/>
		<g>
			<path fill="none" d="M206.745,226.389c1.852,43.263,3.708,131.632,5.525,164.246c1.833,32.61,67.425,51.803,116.768,45.955
				c29.195-3.462,83.469-13.343,85.756-44.472c2.275-31.131,5.929-175.413,5.929-175.413L206.745,226.389z"/>
			<path d="M201.274,227.356c1.386,33.402,2.175,66.829,3.169,100.243c0.683,22.8-3.301,53.173,5.187,74.789
				c8.74,22.251,41.209,32.453,61.993,36.64c31.797,6.407,63.193,4.271,94.52-3.483c21.022-5.205,46.959-14.996,53.37-37.999
				c4.9-17.554,2.512-39.642,3.145-57.681c1.437-40.869,2.566-81.753,3.599-122.633c0.101-3.947-2.757-6.168-6.5-5.997
				c-71.324,3.227-142.648,6.455-213.979,9.684c-7.144,0.32-5.125,11.264,1.934,10.946c71.324-3.229,142.655-6.457,213.979-9.686
				c-2.171-1.998-4.337-3.999-6.508-5.997c-0.831,32.865-1.763,65.723-2.796,98.579c-0.652,20.472-1.336,40.946-2.268,61.405
				c-0.392,8.639,0.117,17.978-4.341,25.678c-7.106,12.264-24.617,17.789-37.275,21.588c-25.867,7.764-53.602,10.212-80.37,7.18
				c-24.505-2.778-68.893-12.973-70.539-43.785c-2.866-53.748-3.137-107.624-5.37-161.401
				C211.924,218.28,200.979,220.303,201.274,227.356z"/>
		</g>
	</g>
	<g>
		<path fill="#FFFFFF" d="M377.849,250.801c49.157-11.58,56.569-44.35,19.348-60.174c-37.228-15.825-138.547-15.821-177.651,15.316
			c-39.108,31.133,16.028,47.98,51.362,49.514C303.59,258.43,353.702,256.487,377.849,250.801z"/>
		<g>
			<path fill="none" d="M377.849,250.801c49.157-11.58,56.569-44.35,19.348-60.174c-37.228-15.825-138.547-15.821-177.651,15.316
				c-39.108,31.133,16.028,47.98,51.362,49.514C303.59,258.43,353.702,256.487,377.849,250.801z"/>
			<path d="M399.123,185.414c-18.929-8.838-42.618-9.884-63.076-10.622c-27.359-0.994-55.241,1.625-81.675,8.812
				c-19.181,5.217-40.754,14.563-51.153,32.503c-8.026,13.831,3.266,26.844,15.396,32.752
				c22.361,10.901,47.584,12.404,72.046,13.303c29.079,1.068,59.629,0.308,88.152-5.888c17.228-4.518,42.389-13.171,46.633-33.445
				C429.347,204.255,414.216,192.461,399.123,185.414z M376.883,245.328c-36.938,8.028-76.445,7.282-113.911,3.968
				c-16.083-1.423-37.334-5.133-48.978-17.426c-15.267-16.121,28.807-34.745,38.463-37.642
				c33.668-10.101,71.584-13.903,106.257-9.82c15.404,1.815,37.345,7.797,50.357,16.605
				C437.451,220.235,393.159,241.059,376.883,245.328z"/>
		</g>
	</g>
	<g>
		<path fill="#E6E2DE" d="M366.061,233.582c39.337-6.383,45.367-22.418,15.59-31.131c-29.781-8.719-110.835-8.719-142.123,8.436
			c-31.288,17.153,12.821,26.434,41.088,27.281C306.766,239.81,346.751,236.712,366.061,233.582z"/>
		<g>
			<path fill="none" d="M366.061,233.582c39.337-6.383,45.367-22.418,15.59-31.131c-29.781-8.719-110.835-8.719-142.123,8.436
				c-31.288,17.153,12.821,26.434,41.088,27.281C306.766,239.81,346.751,236.712,366.061,233.582z"/>
			<path d="M383.103,198.541c-34.852-11.423-79.858-7.595-115.262-1.13c-15.306,2.796-64.991,20.956-31.548,37.142
				c17.349,8.397,40.114,7.997,58.871,8.218c23.841,0.287,48.07-1.495,71.623-5.085c11.959-2.202,32.996-5.292,37.473-19.323
				C407.468,208.334,390.601,200.997,383.103,198.541z M393.998,219.575c-6.745,6.943-19.702,8.251-28.659,9.901
				c-29.327,4.469-59.081,5.644-88.68,4.353c-12.658-0.555-25.63-2.539-37.473-7.094c-18.335-7.049,18.677-20.097,23.631-21.256
				c27.114-6.343,57.718-7.457,85.364-5.714c10.569,0.664,20.657,2.051,30.892,4.821
				C383.429,205.765,401.224,212.137,393.998,219.575z"/>
		</g>
	</g>
</g>
</svg>
