<?xml version="1.0" encoding="utf-8"?>
<!-- Generator: Adobe Illustrator 17.0.0, SVG Export Plug-In . SVG Version: 6.00 Build 0)  -->
<!DOCTYPE svg PUBLIC "-//W3C//DTD SVG 1.1//EN" "http://www.w3.org/Graphics/SVG/1.1/DTD/svg11.dtd">
<svg version="1.1" id="Layer_1" xmlns="http://www.w3.org/2000/svg" xmlns:xlink="http://www.w3.org/1999/xlink" x="0px" y="0px"
	 width="800px" height="600px" viewBox="0 0 800 600" enable-background="new 0 0 800 600" xml:space="preserve">
<ellipse fill-rule="evenodd" clip-rule="evenodd" fill="#D2D2D2" cx="426.449" cy="514.53" rx="71.902" ry="20.116"/>
<path fill-rule="evenodd" clip-rule="evenodd" d="M483.785,149.288c0.613-2.008,2.813-3.582,1.934-6.203
	c-0.971-2.894-4.309-1.747-5.418-1.759c-1.109-0.009-5.091-1.189-9.542-2.364c-7.664-2.028-18.981-4.002-23.199-2.866
	c3.083-9.923,10.199-22.71,15.708-27.628c-3.111-4.918-20.704-4.148-28.148-3.97c0,0,0.087-1.636,0.169-3.508
	c0.349-0.28,0.644-0.56,0.898-0.837c0.068,0.72,0.059,1.333-0.305,2.053c-0.026,0.053,0.038,0.106,0.084,0.065
	c0.627-0.6,1.476-1.684,1.604-2.681c0.069-0.077,0.14-0.156,0.209-0.239c-0.078,0.785-0.32,1.572-0.532,2.316
	c-0.078,0.274,0.339,0.384,0.426,0.118c0.2-0.642,0.358-1.299,0.477-1.956c-0.018,0.395-0.037,0.79-0.053,1.187
	c-0.003,0.088,0.124,0.097,0.15,0.021c0.286-0.891,0.605-1.726,0.723-2.659c0.072-0.583-0.012-1.075-0.128-1.561
	c0.128,0.131,0.252,0.27,0.351,0.439c0.499,0.844,0.579,1.792,0.48,2.746c-0.003,0.034,0.052,0.043,0.06,0.009
	c0.2-0.853,0.255-1.729,0.116-2.594c0.504,0.735,0.753,1.566,0.281,2.435c-0.077,0.141,0.175,0.208,0.18,0.049
	c0.028-1.096,0.624-1.84,0.187-2.937c-0.159-0.402-0.408-0.772-0.697-1.109c7.251-0.656,14.349-2.43,16.55-6.317
	c2.335-4.127-11.146-9.643-20.312-11.619c0.112-1.256-0.084-4.191-0.265-5.765c1.762-4.016,4.313-11.092-0.701-14.236
	c-5.378-3.374-14.112,5.48-17.569,4.182c-2.301-0.865-2.918-3.92-3.27-6.194c-0.352-2.27-3.718-4.074-6.541-2.645
	c-4.537,2.298-7.349,10.511-7.702,15.314c-1.053,1.833-1.846,4.978-2.109,6.463c-9.671,2.709-28.223,9.785-26.553,13.89
	c1.508,3.697,11.684,5.123,19.605,5.943c-0.27,0.205-0.514,0.448-0.691,0.686c-0.639,0.851-0.965,1.753-0.87,2.824
	c0.01,0.134,0.222,0.134,0.214,0c-0.059-0.84,0.141-1.595,0.579-2.311c0.348-0.564,0.812-0.72,1.311-0.859
	c-1.292,1.046-1.558,3.341-0.882,4.755c0.066,0.135,0.27,0.037,0.239-0.099c-0.227-0.924-0.164-1.909,0.143-2.806
	c0.298-0.869,0.922-1.368,1.647-1.806c-0.499,0.443-0.694,1.171-0.904,1.804c-0.002,0.007,0.01,0.013,0.013,0.006
	c0.177-0.333,0.387-0.608,0.607-0.869c-0.364,0.89-0.485,1.989-0.421,2.691c0.001,0.021,0.028,0.021,0.028,0
	c-0.006-0.895,0.28-1.608,0.676-2.282c-0.046,0.357-0.057,0.697-0.062,0.957c-0.018,1.29,0.29,2.585,0.972,3.675
	c0.024,0.037,0.081,0.013,0.068-0.028c-0.256-0.965-0.317-2.037-0.281-3.03c0.002-0.068,0.016-0.133,0.021-0.197
	c0.04,1.488,0.605,3.087,1.332,4.076c0.192,0.264,0.635,0.016,0.443-0.259c-0.691-1.002-1.016-2.293-1.033-3.567
	c0.529,1.803,1.404,3.594,2.66,4.41c-8.895,0.901-23.83,4.367-27.432,7.6c1.934,0.698,4.042,1.744,7.151,4.904
	c3.106,3.155,10.168,15.451,13.95,18.246c-10.462,2.008-32.616,12.753-33.501,12.753c-0.966,0-3.687-1.654-6.508,0.348
	c-2.461,1.748-2.019,8.038-1.557,13.89c0.464,5.851,15.936,99.81,17.562,116.152c1.623,16.343,3.691,31.709,3.341,47.696
	c-0.354,15.985-4.958,67.753-4.836,71.892c2.99,0.524,11.606,0.698,15.826,0.524c-0.362,24.535,4.004,81.235,2.734,105.053
	c9.664,1.308,33.404,1.829,37.592,1.081c1.636-18.581-2.866-74.339-1.99-94.429c1.233,0,4.577,0.031,6.596-0.785
	c-1.273,20.211-2.715,56.769-3.08,77.877c0,0,26.64,0.04,33.588,0.787c0.881-19.477,5.001-63.438,5.189-83.647
	c4.307-0.524,11.077,0,13.539,0.442c0.794-19.26-3.475-48.049-4.453-57.11c-0.974-9.063-1.931-26.749-1.918-33.473
	c0.027-17.898-0.471-75.917,0.15-82.779C469.304,222.798,483.169,151.297,483.785,149.288z"/>
<path fill-rule="evenodd" clip-rule="evenodd" fill="#7B8EC1" d="M413.884,61.585c1.23,2.01,4.118,2.774,5.541,2.532
	c3.604-0.612,11.165-6.287,14.417-4.104c3.255,2.181,1.38,10.625-0.614,11.53c-8.265,0.787-22.949-1.172-31.125-2.797
	c0.187-5.407,3.469-13.802,7.474-13.802C413.359,54.944,412.654,59.576,413.884,61.585z"/>
<path fill-rule="evenodd" clip-rule="evenodd" fill="#766EA8" d="M431.206,82.812c-5.275,0.348-25.226-0.361-31.215-5.419
	c-0.085-1.834,0.617-5.239,1.497-6.898c9.233,2.182,27.871,3.493,32.091,2.969C433.617,76.233,433.315,81.325,431.206,82.812z"/>
<path fill-rule="evenodd" clip-rule="evenodd" fill="#574C94" d="M402.628,70.749c-0.392-0.084-0.776-0.168-1.14-0.253
	c-0.879,1.659-1.582,5.064-1.497,6.898c0.513,0.435,1.139,0.834,1.84,1.206C401.814,75.937,402,73.211,402.628,70.749z"/>
<path fill-rule="evenodd" clip-rule="evenodd" fill="#574C94" d="M406.037,71.387c-0.759-0.127-1.492-0.257-2.192-0.392
	c-0.654,2.54-0.816,5.418-0.769,8.199c0.569,0.244,1.184,0.47,1.824,0.684C404.912,76.989,405.243,74.098,406.037,71.387z"/>
<path fill-rule="evenodd" clip-rule="evenodd" fill="#574C94" d="M428.015,76.839c-2.511,0.594-8.889,2.325-10.446,5.472
	c5.784,0.593,11.233,0.661,13.637,0.502c1.524-1.075,2.103-4.03,2.293-6.633C431.645,76.233,429.804,76.416,428.015,76.839z"/>
<path fill-rule="evenodd" clip-rule="evenodd" fill="#7B8EC1" d="M432.963,84.385c1.32-1.224,2.156-3.625,2.464-4.544
	c3.822,0.395,17.773,6.374,17.668,8.78c-0.174,3.976-28.008,5.564-37.627,5.373c-9.621-0.19-38.091-1.29-40.976-4.63
	c-2.883-3.339,16.616-10.725,23.299-11.74C399.288,83.509,426.02,85.17,432.963,84.385z"/>
<path fill-rule="evenodd" clip-rule="evenodd" fill="#546CAF" d="M412.742,58.098c0.218,1.701,0.283,3.675,1.318,5.137
	c1.601,2.261,4.752,3.643,7.547,2.829c3.089-0.899,4.494-3.237,6.15-5.471c-3.05,1.249-6.313,3.18-8.333,3.523
	c-1.423,0.242-4.311-0.522-5.541-2.532c-0.638-1.04-0.757-2.779-1.248-4.218C412.675,57.609,412.71,57.852,412.742,58.098z"/>
<path fill-rule="evenodd" clip-rule="evenodd" fill="#546CAF" d="M402.23,67.242c-0.062,0.518-0.11,1.026-0.127,1.504
	c3.516,0.699,8.241,1.46,13.139,2.036C410.808,69.968,406.448,68.845,402.23,67.242z"/>
<path fill-rule="evenodd" clip-rule="evenodd" fill="#546CAF" d="M419.01,85.718c4.815,0.233,9.813,0.181,14.573-0.647
	c1.762-0.306,4.753-0.518,6.088-1.895c0.541-0.556,0.786-1.2,0.857-1.876c-2.145-0.794-4.024-1.348-5.101-1.459
	c-0.308,0.919-1.145,3.32-2.464,4.544c-6.944,0.785-33.675-0.876-35.171-6.761c-0.19,0.03-0.395,0.064-0.604,0.103
	C402.894,83.27,411.103,85.336,419.01,85.718z"/>
<path fill-rule="evenodd" clip-rule="evenodd" fill="#546CAF" d="M398.456,93.289c6.774,0.421,13.299,0.63,17.013,0.704
	c5.141,0.102,15.482-0.305,24.026-1.312C426.061,90.42,412.177,91.8,398.456,93.289z"/>
<path fill-rule="evenodd" clip-rule="evenodd" fill="#F5D6B7" d="M395.597,95.389c0.704,0.088,2.021,0.351,2.813,0.437
	c-0.177,0.96,0.174,3.581,0.352,5.416C397.002,101.069,394.981,96.7,395.597,95.389z"/>
<path fill-rule="evenodd" clip-rule="evenodd" fill="#4F5658" d="M402.367,96.438c-0.264,4.105,0.174,9.347,2.635,13.364
	c-4.482-1.572-4.921-12.666-4.658-13.626C400.785,96.263,401.748,96.351,402.367,96.438z"/>
<path fill-rule="evenodd" clip-rule="evenodd" fill="#3B4244" d="M402.396,100.83c-0.116-1.53-0.118-3.027-0.03-4.392
	c-0.619-0.087-1.582-0.175-2.022-0.262c-0.094,0.339-0.094,1.946,0.133,3.943C401.104,100.391,401.744,100.631,402.396,100.83z"/>
<path fill-rule="evenodd" clip-rule="evenodd" fill="#6D7274" d="M415.027,96.875c0.175,3.781,0.175,7.251-0.792,9.697
	c-0.966,2.445-4.848,4.254-6.768,3.23c-3.606-1.921-3.956-9.219-3.956-13.189C406.058,96.613,413.971,96.702,415.027,96.875z"/>
<path fill-rule="evenodd" clip-rule="evenodd" fill="#525D5B" d="M407.412,96.643c-1.595-0.019-3.049-0.029-3.902-0.029
	c0,1.53,0.069,3.554,0.34,5.575C404.931,100.275,406.157,98.451,407.412,96.643z"/>
<path fill-rule="evenodd" clip-rule="evenodd" fill="#525D5B" d="M414.757,104.164c-0.087,0.18-0.174,0.359-0.261,0.541
	c-0.037,0.075-0.084,0.13-0.135,0.177c-0.756,1.355-1.505,2.715-2.235,4.086c0.947-0.626,1.74-1.463,2.108-2.395
	c0.308-0.778,0.511-1.669,0.648-2.632C414.84,104.013,414.802,104.09,414.757,104.164z"/>
<path fill-rule="evenodd" clip-rule="evenodd" fill="#60656F" d="M430.063,104.474c-2.286,4.718-6.683,4.367-8.53,4.105
	c-1.847-0.262-3.516-2.881-3.868-4.89c-0.354-2.011-0.352-5.242-0.174-6.902c2.373,0,12.044-0.524,13.274-0.436
	C431.203,98.098,430.558,103.452,430.063,104.474z"/>
<path fill-rule="evenodd" clip-rule="evenodd" fill="#4D535E" d="M421.281,96.672c-1.645,0.066-3.064,0.115-3.79,0.115
	c-0.133,1.233-0.167,3.329-0.03,5.151C418.647,100.117,419.929,98.37,421.281,96.672z"/>
<path fill-rule="evenodd" clip-rule="evenodd" fill="#AAA9A2" d="M406.3,108.884c1.977-4.168,4.154-8.243,6.63-12.13
	c-1.161-0.038-2.637-0.069-4.114-0.093c-1.474,2.532-3.073,4.989-4.643,7.465C404.582,106.011,405.242,107.741,406.3,108.884z"/>
<path fill-rule="evenodd" clip-rule="evenodd" fill="#AAA9A2" d="M409.092,110.072c1.231-2.289,2.293-4.684,3.525-6.96
	c0.8-1.48,1.637-2.939,2.475-4.395c-0.013-0.605-0.037-1.217-0.065-1.841c-0.125-0.021-0.368-0.04-0.669-0.059
	c-2.66,4.11-4.983,8.437-7.072,12.868c0.062,0.037,0.116,0.084,0.18,0.118C407.92,110.044,408.484,110.116,409.092,110.072z"/>
<path fill-rule="evenodd" clip-rule="evenodd" fill="#94979E" d="M420.019,107.825c2.072-3.121,4.029-6.323,6.267-9.339
	c0.52-0.703,1.064-1.387,1.591-2.083c-1.308,0.046-2.887,0.113-4.439,0.178c-1.355,1.659-2.693,3.329-3.996,5.027
	c-0.583,0.76-1.152,1.544-1.715,2.332C418.033,105.321,418.915,106.905,420.019,107.825z"/>
<path fill-rule="evenodd" clip-rule="evenodd" fill="#94979E" d="M430.724,101.047c0.078-0.72,0.14-1.47,0.168-2.173
	c-2.065,3.236-4.123,6.478-6.178,9.72c0.536-0.087,1.092-0.24,1.644-0.468C427.814,105.768,429.269,103.408,430.724,101.047z"/>
<path fill-rule="evenodd" clip-rule="evenodd" fill="#766EA8" d="M397.441,104.214c-0.264,6.288,2.728,25.77,7.826,34.679
	c1.318,16.16,6.845,36.883,10.374,50.838c-4.173,54.491-2.861,126.675-5.398,181.345c1.174,2.667,1.707,8.01,1.707,9.845
	c0,1.834-1.581,9.084-3.691,13.277c-13.261-1.442-27.281-0.286-39.627-1.186c1.41-23.688,7.048-73.984,2.634-104.853
	c7.443,6.854,20.133,13.777,23.106,15.11c2.969,1.33,9.191,3.464,8.888,0.42c-0.308-3.043-4.601-6.449-8.033-7.789
	c0-2.131-0.841-12.875-2.165-20.445c-1.323-7.57-20.283-103.761-20.322-106.428c-0.044-2.665-0.354-7.512,0.965-9.52
	c-4.749-0.439-4.662,6.727-3.519,17.559c1.145,10.831,17.631,86.199,18.978,95.389c1.348,9.193,2.756,21.739,2.634,25.086
	c-6.902-1.44-15.366-8.462-20.994-12.974c-1.994-16.96-8.44-54.478-9.408-64.785c-0.968-10.309-7.963-40.162-8.95-49.434
	c-0.987-9.269-2.298-20.032-0.37-21.763c1.925-1.728,4.161,0.661,4.982-0.018c0.82-0.679,28.428-13.694,36.516-13.258
	c2.136,0.115,3.08-0.932,3.08-1.835c-9.848-1.745-12.336-17.727-22.51-23.497C378.743,106.725,396.036,104.214,397.441,104.214z"/>
<path fill-rule="evenodd" clip-rule="evenodd" fill="#60538B" d="M399.796,122.71c-0.211-0.957-0.408-1.912-0.592-2.86
	c-1.227-1.03-2.564-1.956-4.032-2.746c-4.117-2.212-8.711-3.451-13.391-3.644c-1.077-0.043-2.192-0.071-3.322-0.062
	c0.05,0.052,0.097,0.111,0.149,0.164C386.613,112.767,393.955,117.033,399.796,122.71z"/>
<path fill-rule="evenodd" clip-rule="evenodd" fill="#60538B" d="M370.801,284.569c5.628,4.512,14.092,11.533,20.994,12.974
	c0.012-0.355,0.006-0.835-0.015-1.383c-6.51-6.039-14.736-10.026-21.507-15.794C370.471,281.866,370.651,283.285,370.801,284.569z"
	/>
<path fill-rule="evenodd" clip-rule="evenodd" fill="#60538B" d="M377.845,249.664c1.494,2.195,4.911,3.438,7.285,2.336
	c-0.214-1.031-0.43-2.081-0.652-3.161C382.588,250.488,380.009,250.925,377.845,249.664z"/>
<path fill-rule="evenodd" clip-rule="evenodd" fill="#60538B" d="M395.149,382.29c1.676,0.156,3.694-0.697,1.273-1.824
	c-4.702-2.192-10.654-2.512-14.317-2.192c-4.348,0.379-8.53,1.436-12.629,2.797c-0.081,1.062-0.161,2.109-0.237,3.121
	C378.553,382.876,386.783,381.509,395.149,382.29z"/>
<path fill-rule="evenodd" clip-rule="evenodd" fill="#60538B" d="M386.471,376.993c1.031,0.071,4.743,0.364,7.917,1.19
	c-6.525-5.456-16.341-4.149-24.538-1.944c-0.091,1.173-0.181,2.342-0.27,3.466C375.052,377.881,380.733,376.594,386.471,376.993z"/>
<path fill-rule="evenodd" clip-rule="evenodd" fill="#60538B" d="M394.492,376.682c-3.173-3.811-8.732-6.192-13.47-6.357
	c-3.687-0.13-7.268,0.493-10.816,1.33c-0.088,1.108-0.172,2.212-0.256,3.286C378.142,372.804,387.786,371.664,394.492,376.682z"/>
<path fill-rule="evenodd" clip-rule="evenodd" fill="#60538B" d="M392.33,359.016c1.719,0.707,2.073-3.149-7.664-5.802
	c-4.276-1.164-8.649-1.502-13.064-1.022c-0.134,2.086-0.271,4.148-0.414,6.182C374.199,357.901,385.501,357.562,392.33,359.016z"/>
<path fill-rule="evenodd" clip-rule="evenodd" fill="#60538B" d="M382.476,137.788c-8.758,2.958-19.343,7.749-23.563,9.81
	c5.581,0.245,11.268-2.174,16.195-4.581C377.966,141.623,380.431,139.927,382.476,137.788z"/>
<path fill-rule="evenodd" clip-rule="evenodd" fill="#60538B" d="M377.542,247.909c2.087,2.002,4.862,1.504,6.637-0.499
	c-0.417-2.015-0.847-4.087-1.29-6.217C382.253,243.917,379.96,246.3,377.542,247.909z"/>
<path fill-rule="evenodd" clip-rule="evenodd" fill="#60538B" d="M385.303,313.902c5.061,1.809,11.339,1.53,14.401-3.373
	c-8.331-1.999-16.275-5.282-24.018-8.973C376.139,307.133,379.948,311.985,385.303,313.902z"/>
<path fill-rule="evenodd" clip-rule="evenodd" fill="#60538B" d="M414.181,183.982c-0.075,1.043-0.132,2.089-0.199,3.129
	c-0.249,4.049-0.804,8.042-1.234,12.071c-1.034,9.667-1.617,19.378-1.904,29.094c-0.567,19.256-0.192,38.527-0.457,57.789
	c-0.262,19.175-1.305,38.262-2.435,57.397c-0.961,16.257-1.516,32.717,1.158,48.817c1.667-4.201,2.84-9.779,2.84-11.357
	c0-1.835-0.533-7.178-1.707-9.845c2.538-54.671,1.225-126.854,5.398-181.345C415.185,187.922,414.693,185.994,414.181,183.982z"/>
<path fill-rule="evenodd" clip-rule="evenodd" fill="#60538B" d="M380.149,112.178c4.933,0.102,9.941,0.962,14.375,3.199
	c1.578,0.794,3.021,1.72,4.359,2.743c-1.043-5.839-1.556-11.144-1.441-13.906c-1.405,0-18.698,2.511-23.299,5.765
	c1.108,0.629,2.121,1.383,3.067,2.223C378.2,112.163,379.185,112.159,380.149,112.178z"/>
<path fill-rule="evenodd" clip-rule="evenodd" fill="#F5D6B7" d="M404.037,111.375c1.757,1.136,5.276,1.834,8.527,0.175
	c-1.583,3.232-2.99,8.212-2.111,11.793c0.881,3.581,4.485,6.114,8.091,3.145c3.405-2.806,3.489-10.733,1.494-16.686
	c2.722,1.083,7.877,0.583,10.552-2.27c1.204-1.284,1.143,5.767-0.44,13.977c-1.582,8.21-4.933,18.275-6.77,20.965
	c-3.342,4.892-8.417,4.295-11.332,2.802c-2.914-1.489-5.98-9.579-7.576-13.728c-3.162-8.204-4.833-21.552-4.833-26.636
	C400.344,107.358,402.278,110.237,404.037,111.375z"/>
<path fill-rule="evenodd" clip-rule="evenodd" fill="#8A85A9" d="M444.924,142.206c1.638-3.243,8.168-4.825,13.802-3.663
	c6.332,1.312,18.369,4.811,19.872,4.803c1.501-0.006,3.604-0.957,4.924,0.44c1.317,1.395-2.055,4.114-2.214,5.988
	c-0.16,1.874-14.258,73.396-14.771,80.119c-0.511,6.721-0.127,15.395-0.364,27.696c-0.237,12.298-3.07,32.538-3.691,34.034
	c-4.516,0.878-13.747,2.771-20.283,4.575c0.365-35.005,16.07-116.052,16.704-120.703c0.893-6.55,1.866-10.246,3.078-12.93
	c1.192-2.648-3.249,1.454-4.666,8.581c-1.418,7.126-11.04,52.093-12.634,67.753c-1.594,15.665-4.606,42.164-5.048,55.188
	c-5.226,1.583-11.249,5.808-8.149,6.424c3.413,0.675,6.296-0.427,11.955-2.115c6.2-1.846,16.113-4.108,20.196-4.311
	c1.239-2.022,1.77-5.104,2.538-9.25l0,0c0,0-1.832,39.785,0.915,60.112c2.749,20.325,5.636,31.411,5.094,54.146
	c-8.082-0.109-21.29,1.022-29.564,2.439c-7.112,1.218-16.072,2.713-21.61,2.189c-0.439-9.084-4.662-29.437-7.653-33.631
	c0.707-18.78,1.585-44.9,1.76-53.723c0.137-6.661,1.935-101.3,2.903-114.664c0.966-13.367,2.697-28.997,3.319-33.223
	c1.279-8.73,4.347-22.791,5.085-24.877c0.739-2.09,3.379-8.642,5.049-16.154c1.67-7.512,2.548-14.324,2.989-19.829
	c4.926-0.701,21.192-0.698,24.093,1.663C453.188,115.308,439.91,141.601,444.924,142.206z"/>
<path fill-rule="evenodd" clip-rule="evenodd" fill="#6D6894" d="M445.762,111.973c4.092-1.778,7.764-2.192,11.502-1.067
	c0.464-0.633,0.898-1.189,1.287-1.625c-2.902-2.361-19.168-2.364-24.093-1.663c-0.334,4.192-0.927,9.147-1.927,14.588
	C436.193,118.007,440.593,114.219,445.762,111.973z"/>
<path fill-rule="evenodd" clip-rule="evenodd" fill="#6D6894" d="M445.772,141.057c5.435-0.483,10.895,0.959,16.375,0.788
	c2.523-0.081,5.027-0.298,7.512-0.617c-3.788-0.987-7.979-2.074-10.934-2.685C453.804,137.526,448.201,138.606,445.772,141.057z"/>
<path fill-rule="evenodd" clip-rule="evenodd" fill="#6D6894" d="M427.756,174.397c-0.401,0.38-0.935,0.077-1.038-0.33
	c-2.544,2.049-1.497,5.967,1.915,6.827c1.692,0.429,3.553,0.212,3.977-1.751C433.203,176.386,430.876,171.432,427.756,174.397z"/>
<path fill-rule="evenodd" clip-rule="evenodd" fill="#6D6894" d="M425.03,203.888c-0.091-0.009-0.168-0.032-0.239-0.068
	c-0.077,0.04-0.165,0.065-0.271,0.068c-1.04,0.035-2.678,0.47-3.174,1.498c-0.271,0.563-0.804,1.85,0.01,2.223
	c0.711,0.326,1.6,0.265,2.363,0.286c0.944,0.028,1.891,0.158,2.834,0.083c0.944-0.074,3.419-0.527,2.837-2.025
	C428.789,204.408,426.442,204.014,425.03,203.888z"/>
<path fill-rule="evenodd" clip-rule="evenodd" fill="#6D6894" d="M428.902,232.085c-1.856-0.399-4.285-0.1-5.851,1.028
	c-0.298,0.217-0.585,0.1-0.748-0.128c-1.2,1.63-2.318,4.058-0.541,4.836c1.883,0.821,4.519-1.15,6.157-2.009
	c0.818-0.429,1.967-0.781,2.26-1.722C430.525,232.982,430.02,232.325,428.902,232.085z"/>
<path fill-rule="evenodd" clip-rule="evenodd" fill="#6D6894" d="M429.553,258.748c-1.71-1.368-4.775-1.98-6.756-0.872
	c-0.368,0.206-0.71,0.003-0.854-0.29c-0.519,0.281-0.991,0.641-1.367,1.097c-0.633,0.775-1.212,2.084-0.249,2.868
	c1.582,1.283,4.463,0.663,6.315,0.496c0.797-0.071,2.176,0.019,2.802-0.564C430.377,260.613,430.646,259.62,429.553,258.748z"/>
<path fill-rule="evenodd" clip-rule="evenodd" fill="#6D6894" d="M421.813,284.216c-0.355-0.093-0.47-0.392-0.424-0.669
	c-0.894-0.208-1.807-0.149-2.659,0.355c-0.467,0.274-1.689,0.862-1.672,1.554c0.026,0.98,1.214,1.924,1.741,2.687
	c0.688,0.999,3.121,4.088,4.724,3.109c1.103-0.674,1.14-2.507,0.929-3.618C424.167,286.142,423.398,284.627,421.813,284.216z"/>
<path fill-rule="evenodd" clip-rule="evenodd" fill="#6D6894" d="M422.576,345.364c-0.336-0.074-0.457-0.336-0.433-0.598
	c-3.911-0.284-9.162,3.46-4.232,6.617c2.143,1.373,4.818,3.058,7.338,3.587c3.405,0.716,4.095-2.211,2.833-4.734
	C426.959,347.989,425.129,345.927,422.576,345.364z"/>
<path fill-rule="evenodd" clip-rule="evenodd" fill="#6D6894" d="M440.019,287.027c-4.846,2.129-8.447,5.485-8.184,11.117
	c1.682-1.448,4.865-3.167,7.798-4.057C439.702,292.036,439.837,289.651,440.019,287.027z"/>
<path fill-rule="evenodd" clip-rule="evenodd" fill="#6D6894" d="M457.314,171.147c0.264-1.326,0.63-2.545,1.047-3.638
	c-3.062,4.846-4.649,10.711-5.746,16.219c-1.523,7.652-2.121,15.419-3.292,23.124c-0.856,5.628-2.788,10.999-4.232,16.49
	c-1.567,5.967-2.379,12.072-2.737,18.223c-0.362,6.257-0.309,12.51,0.094,18.745c0.801-7.813,1.62-15.407,2.231-21.41
	C446.274,223.239,455.896,178.273,457.314,171.147z"/>
<path fill-rule="evenodd" clip-rule="evenodd" fill="#6D6894" d="M434.573,313.495c10.395,4.092,21.196-3.149,31.052-8.387
	c0.009-0.735,0.019-1.464,0.029-2.176c-5.261,1.355-10.331,3.335-15.522,4.995C444.813,309.627,439.571,311.113,434.573,313.495z"/>
<path fill-rule="evenodd" clip-rule="evenodd" fill="#6D6894" d="M425.196,366.899c4.18,1.106,8.951-0.826,12.971-1.815
	c5.728-1.41,11.729-2.015,17.569-2.8c4.546-0.61,9.1-1.165,13.653-1.713c-0.29-1.927-0.594-3.9-0.903-5.948
	c-8.113,0.957-16.201,1.876-24.207,3.632C438.333,359.562,428.7,361.184,425.196,366.899z"/>
<path fill-rule="evenodd" clip-rule="evenodd" fill="#6D6894" d="M434.654,370.393c7.702,2.077,15.588,0.164,23.371-1.327
	c4.105-0.787,8.198-1.485,12.32-1.937c-0.103-0.756-0.211-1.516-0.32-2.277c-6.378,0.605-12.726,1.529-19.034,2.709
	C445.553,368.577,440.076,370.246,434.654,370.393z"/>
<path fill-rule="evenodd" clip-rule="evenodd" fill="#6D6894" d="M451.129,239.582c0.521,4.962,8.358,9.046,10.651,3.687
	C457.931,244.634,453.029,243.06,451.129,239.582z"/>
<path fill-rule="evenodd" clip-rule="evenodd" fill="#6D6894" d="M451.503,225.858c3.098-2.682,8.48-3.961,11.955-2.361
	C460.416,218.703,453.485,220.678,451.503,225.858z"/>
<path fill-rule="evenodd" clip-rule="evenodd" fill="#6D6894" d="M470.933,185.019c-1.181,5.17-2.333,10.592-2.332,15.915
	c0,3.808,0.384,7.574,0.902,11.329c2.909-15.861,7.257-38.369,9.785-51.61C475.685,168.464,472.844,176.661,470.933,185.019z"/>
<path fill-rule="evenodd" clip-rule="evenodd" fill="#6D6894" d="M422.041,403.794c5.574,0.273,13.891-1.118,20.576-2.262
	c1.555-0.267,3.286-0.521,5.123-0.762C438.983,399.32,429.808,399.995,422.041,403.794z"/>
<path fill-rule="evenodd" clip-rule="evenodd" fill="#6D6894" d="M460.998,240.249c-1.206-0.327-2.423-0.601-3.637-0.89
	c-1.81-0.427-3.976-0.761-5.667-1.703c0.513,2.597,2.695,4.155,5.31,4.58c1.545,0.25,4.478,0.51,5.683-0.795
	C463.403,240.667,461.502,240.385,460.998,240.249z"/>
<path fill-rule="evenodd" clip-rule="evenodd" fill="#6D6894" d="M465.006,227.15c0.066-0.016,0.131-0.037,0.197-0.054
	c-2.223-6.268-15.306-1.983-14.828,3.675C454.916,227.601,459.345,225.347,465.006,227.15z"/>
<path fill-rule="evenodd" clip-rule="evenodd" fill="#6D6894" d="M457.217,387.297c-7.461,0.057-15.437,0.069-22.666,2.117
	c-1.516,0.429-5.447,1.421-5.169,3.654c0.14,1.134,19.652,0.376,21.554,0.432c7.162,0.209,14.277,0.823,21.301,1.959
	c0.024-2.748-0.007-5.329-0.082-7.777C467.27,387.018,462.035,387.261,457.217,387.297z"/>
<path fill-rule="evenodd" clip-rule="evenodd" fill="#6D6894" d="M435.393,367.083c-2.296,0.583-4.827,1.267-7.301,1.337
	c4.429,1.315,8.746,0.747,13.438-0.234c4.54-0.949,9.09-1.857,13.665-2.615c4.87-0.806,9.753-1.46,14.653-1.933
	c-0.09-0.619-0.183-1.237-0.275-1.863c-5.712,0.686-11.421,1.384-17.119,2.19C446.698,364.779,441.023,365.651,435.393,367.083z"/>
<path fill-rule="evenodd" clip-rule="evenodd" fill="#6D6894" d="M420.615,316.558c-0.261,0.11-0.464,0.025-0.594-0.137
	c-2.329,1.597-5.049,4.746-2.012,6.345c1.535,0.81,4.388,0.239,6.061,0.131c0.996-0.065,2.159-0.032,3.114-0.359
	c1.41-0.486,1.404-2.676,0.728-3.662C426.373,316.636,423.167,315.498,420.615,316.558z"/>
<path fill-rule="evenodd" clip-rule="evenodd" fill="#F5D6B7" d="M419.247,118.889c-0.351,3.669-1.318,6.637-4.045,6.637
	c-2.725,0-3.694-4.367-3.076-8.035c0.616-3.669,2.46-8.474,3.955-9.959C417.577,106.048,419.6,115.22,419.247,118.889z"/>
<path fill-rule="evenodd" clip-rule="evenodd" fill="#566388" d="M422.853,146.841c-0.352,1.748-4.572,24.722-5.715,35.64
	c-2.725-11.362-6.861-26.977-9.408-38.347C410.633,149.462,417.138,152.17,422.853,146.841z"/>
<path fill-rule="evenodd" clip-rule="evenodd" fill="#414F72" d="M415.068,151.267c0.136,0.021-3.404,3.545-4.463,5.079
	c0.228,0.921,0.424,1.597,0.656,2.529c3.056-1.741,6.424-1.744,9.514-0.471c0.189-1.087,0.371-2.133,0.546-3.123
	c-0.297-0.664-1.903-3.397-2.609-4.238c1.17-0.063,2.5-0.944,3.612-1.37c0.274-1.504,0.465-2.517,0.529-2.832
	c-5.715,5.329-12.22,2.62-15.123-2.707c0.25,1.124,0.523,2.295,0.8,3.491C409.916,149.204,412.94,150.927,415.068,151.267z"/>
<path fill-rule="evenodd" clip-rule="evenodd" fill="#414F72" d="M417.197,181.939c0.3-2.744,0.776-6.156,1.327-9.776
	c-0.11-1.31-0.239-2.618-0.409-3.921c-0.237-1.819-0.816-3.868-1.156-5.874C416.945,168.893,416.934,175.42,417.197,181.939z"/>
<path fill-rule="evenodd" clip-rule="evenodd" fill="#414F72" d="M414.286,168.75c-0.289-2.217-0.647-6.066-2.513-7.817
	c0.938,3.755,1.893,7.534,2.806,11.181C414.514,170.989,414.432,169.867,414.286,168.75z"/>
<path fill-rule="evenodd" clip-rule="evenodd" d="M425.404,284.743c-0.354-2.095-2.352-3.102-3.958-2.88
	c-2.145,0.292-3.252,2.532-2.99,4.192c0.093,0.592,0.271,1.174,0.558,1.679c-0.683-0.334-1.373-0.616-2.022-0.809
	c-0.175-0.052-0.303,0.178-0.178,0.306c0.894,0.875,1.863,1.625,2.812,2.438c0.981,0.838,1.787,1.835,2.754,2.678
	c0.516,0.445,1.17-0.106,0.907-0.695c-0.39-0.882-1.058-1.673-1.862-2.357c0.144,0.018,0.277,0.044,0.433,0.046
	C424.523,289.374,425.756,286.84,425.404,284.743z"/>
<path fill-rule="evenodd" clip-rule="evenodd" fill="#B6AE81" d="M422.334,287.889c-1.056,0.197-2.342-0.295-2.703-1.77
	c-0.365-1.479,0.461-2.782,1.847-3.145c1.383-0.359,2.71,0.495,2.866,2.165C424.479,286.546,423.639,287.646,422.334,287.889z"/>
<path fill-rule="evenodd" clip-rule="evenodd" d="M426.641,202.297c-1.317-1.161-3.121-0.778-4.033,0.186
	c-1.221,1.293-0.767,3.295,0.264,4.223c0.371,0.331,0.785,0.611,1.233,0.79c-0.614,0.135-1.199,0.311-1.717,0.521
	c-0.14,0.054-0.1,0.271,0.046,0.286c1.028,0.1,2.039,0.083,3.071,0.118c1.062,0.032,2.097,0.258,3.157,0.298
	c0.561,0.025,0.694-0.667,0.219-0.91c-0.71-0.362-1.548-0.527-2.419-0.551c0.102-0.065,0.197-0.115,0.301-0.193
	C428.487,205.717,427.957,203.459,426.641,202.297z"/>
<path fill-rule="evenodd" clip-rule="evenodd" fill="#B6AE81" d="M426.31,205.887c-0.572,0.669-1.651,1.016-2.653,0.256
	c-1.002-0.759-1.152-2.019-0.451-2.962c0.698-0.941,1.994-1.078,2.962-0.088C426.987,203.926,427.021,205.063,426.31,205.887z"/>
<path fill-rule="evenodd" clip-rule="evenodd" d="M395.903,311.06c-1.9-0.3-18.757-6.347-19.613-6.941
	c-1.407-0.972-1.041-2.252-0.427-2.619c6.531,3.791,22.735,8.464,24.207,8.829C399.826,311.549,397.803,311.365,395.903,311.06z"/>
<path fill-rule="evenodd" clip-rule="evenodd" d="M459.823,304.316c0.354,1.81-1.122,2.177-2.729,2.529
	c-1.607,0.352-14.529,3.787-21.614,5.957C438.208,308.829,459.823,303.239,459.823,304.316L459.823,304.316L459.823,304.316z"/>
<path fill-rule="evenodd" clip-rule="evenodd" d="M426.436,322.903c-0.764-0.312-1.542-0.498-2.326-0.602
	c1.963-1.315,3.129-4.501,1.996-6.544c-1.304-2.346-5.54-3.584-7.474,0.262c-1.398,2.779-0.172,5.279,1.678,6.348
	c-0.775,0.112-1.547,0.264-2.313,0.443c-0.703,0.164-0.508,1.165,0.162,1.199c2.618,0.134,5.21,0.156,7.798,0.61
	C427.114,324.822,427.497,323.336,426.436,322.903z"/>
<path fill-rule="evenodd" clip-rule="evenodd" fill="#B6AE81" d="M424.785,318.811c-0.614,2.097-3.052,2.442-4.305,1.05
	c-1.497-1.66-0.616-4.456,1.494-4.805C423.716,314.768,425.401,316.718,424.785,318.811z"/>
<path fill-rule="evenodd" clip-rule="evenodd" d="M428.391,234.802c-0.633,0.038-1.24,0.167-1.822,0.352
	c0.928-1.566,0.669-4.173-0.807-5.219c-1.697-1.206-5.064-0.663-5.119,2.66c-0.04,2.401,1.653,3.735,3.301,3.865
	c-0.504,0.336-0.991,0.698-1.464,1.078c-0.433,0.346,0.038,0.981,0.517,0.779c1.869-0.773,3.682-1.616,5.64-2.158
	C429.512,235.917,429.276,234.754,428.391,234.802z"/>
<path fill-rule="evenodd" clip-rule="evenodd" fill="#B6AE81" d="M425.869,232.501c0.277,1.664-1.307,2.713-2.65,2.158
	c-1.6-0.658-1.927-2.902-0.574-3.842C423.766,230.037,425.592,230.836,425.869,232.501z"/>
<path fill-rule="evenodd" clip-rule="evenodd" d="M424.078,353.144c0,0,0.003,0,0.006,0c2.813-1.05,4.142-4.202,2.725-7.34
	c-1.141-2.532-7.12-4.018-8.792,1.311c-0.563,1.796-0.252,3.233,0.507,4.28c-0.651-0.071-1.305-0.108-1.947-0.082
	c-0.141,0.007-0.218,0.209-0.075,0.283c3.193,1.598,6.397,2.822,9.427,4.767c0.748,0.48,1.567-0.605,0.94-1.209
	C426.055,354.374,425.1,353.707,424.078,353.144z"/>
<path fill-rule="evenodd" clip-rule="evenodd" fill="#B6AE81" d="M424.875,346.503c1.231,1.573,0.529,4.457-2.111,4.631
	c-2.637,0.175-4.076-2.528-2.548-4.631C421.358,344.931,423.645,344.931,424.875,346.503z"/>
<path fill-rule="evenodd" clip-rule="evenodd" d="M429.83,178.725c1.619-0.632,2.746-3.504,1.282-5.696
	c-1.18-1.765-5.873-2.145-6.465,2.08c-0.197,1.424,0.253,2.32,1.174,3.133C426.741,179.055,428.214,179.358,429.83,178.725z"/>
<path fill-rule="evenodd" clip-rule="evenodd" fill="#B6AE81" d="M429.742,173.798c1.127,1.031,0.959,3.294-1.009,3.753
	c-1.965,0.458-3.392-1.402-2.504-3.176C426.893,173.048,428.615,172.765,429.742,173.798z"/>
<path fill-rule="evenodd" clip-rule="evenodd" d="M426.263,261.485c0.003,0,0.004-0.003,0.006-0.003
	c1.588-1.548,1.533-4.082-0.374-5.78c-1.539-1.373-6.036-0.595-5.556,3.51c0.162,1.385,0.81,2.265,1.636,2.75
	c-0.461,0.144-0.913,0.314-1.34,0.521c-0.094,0.047-0.084,0.209,0.034,0.215c2.645,0.13,5.185,0.001,7.824,0.412
	c0.647,0.103,0.876-0.876,0.27-1.099C427.974,261.726,427.127,261.562,426.263,261.485z"/>
<path fill-rule="evenodd" clip-rule="evenodd" fill="#B6AE81" d="M424.796,256.751c1.308,0.698,1.704,2.861-0.027,3.766
	c-1.732,0.907-3.525-0.495-3.127-2.376C421.939,256.738,423.489,256.054,424.796,256.751z"/>
<path fill-rule="evenodd" clip-rule="evenodd" fill="#A79566" d="M420.355,283.59c-0.66,0.601-0.972,1.52-0.723,2.529
	c0.361,1.476,1.647,1.968,2.703,1.77c0.673-0.125,1.218-0.482,1.575-0.988C422.202,286.648,420.771,285.338,420.355,283.59z"/>
<path fill-rule="evenodd" clip-rule="evenodd" fill="#A79566" d="M424.865,205.026c-0.732-0.541-1.083-1.383-1.233-2.257
	c-0.156,0.112-0.302,0.245-0.426,0.411c-0.701,0.943-0.551,2.203,0.451,2.962c1.002,0.76,2.081,0.412,2.653-0.256
	c0.112-0.131,0.199-0.27,0.272-0.41C425.993,205.533,425.401,205.421,424.865,205.026z"/>
<path fill-rule="evenodd" clip-rule="evenodd" fill="#A79566" d="M420.443,315.964c-0.875,1.049-1.006,2.74,0.037,3.897
	c1.065,1.183,2.974,1.099,3.905-0.234C422.564,319.318,420.873,317.805,420.443,315.964z"/>
<path fill-rule="evenodd" clip-rule="evenodd" fill="#A79566" d="M423.84,233.147c-0.692-0.449-1.329-1.059-1.697-1.79
	c-0.7,1.078-0.27,2.748,1.077,3.302c1.075,0.445,2.288-0.147,2.594-1.251C425.149,233.574,424.466,233.55,423.84,233.147z"/>
<path fill-rule="evenodd" clip-rule="evenodd" fill="#A79566" d="M420.321,346.397c-0.032,0.04-0.075,0.063-0.105,0.106
	c-1.527,2.103-0.088,4.806,2.548,4.631c0.832-0.054,1.454-0.386,1.897-0.856C422.788,349.832,421.081,348.132,420.321,346.397z"/>
<path fill-rule="evenodd" clip-rule="evenodd" fill="#A79566" d="M426.7,174.075c-0.043-0.078-0.063-0.155-0.072-0.231
	c-0.156,0.147-0.293,0.32-0.399,0.532c-0.888,1.773,0.539,3.634,2.504,3.176c0.601-0.141,1.005-0.458,1.27-0.85
	C428.63,176.383,427.4,175.358,426.7,174.075z"/>
<path fill-rule="evenodd" clip-rule="evenodd" fill="#A79566" d="M421.984,257.378c-0.156,0.223-0.28,0.474-0.342,0.763
	c-0.398,1.881,1.395,3.283,3.127,2.376c0.85-0.445,1.183-1.193,1.15-1.922C424.441,259.071,422.867,258.741,421.984,257.378z"/>
<path fill-rule="evenodd" clip-rule="evenodd" fill="#7B8EC1" d="M418.631,499.774c-11.077,0.903-22.86,0-32.619-0.778
	c0.913-23.102-4.007-78.715-2.55-102.35c8.615-0.524,16.967-0.672,26.045,0.773c1.821-3.068,3.915-8.972,4.64-12.218
	c3.694,13.103,1.41,29.09,2.024,42.893C416.786,441.895,419.424,487.021,418.631,499.774z"/>
<path fill-rule="evenodd" clip-rule="evenodd" fill="#7B8EC1" d="M458.367,402.833c0.18,21.647-3.565,59.829-5.018,80.941
	c-8.352-0.728-19.154-0.513-27.681-0.775c-0.178-18.399,2.41-56.818,3.74-76.27C438.668,405.464,448.554,403.013,458.367,402.833
	L458.367,402.833L458.367,402.833z"/>
<path fill-rule="evenodd" clip-rule="evenodd" fill="#566FAF" d="M397.228,399.462c6.503,0.083,13.042,0.856,19.056,3.121
	c-0.109-6.048-0.61-11.962-2.136-17.383c-0.725,3.246-2.819,9.15-4.64,12.218c-9.078-1.445-17.43-1.298-26.045-0.773
	c-0.069,1.119-0.119,2.329-0.161,3.582C387.991,399.423,392.944,399.406,397.228,399.462z"/>
<path fill-rule="evenodd" clip-rule="evenodd" fill="#566FAF" d="M401.025,401.562c5.261,0.183,10.551,0.788,15.282,2.88
	c0-0.174,0.001-0.348,0-0.523c-6.307-2.491-13.248-3.294-20.074-3.226c-4.056,0.037-8.633,0.071-12.974,0.823
	c-0.005,0.193-0.006,0.399-0.01,0.595C388.983,400.835,395.392,401.369,401.025,401.562z"/>
<path fill-rule="evenodd" clip-rule="evenodd" fill="#566FAF" d="M416.297,407.264c0.004-0.498,0.01-0.997,0.01-1.495
	c-4.577-2.165-9.791-2.802-14.902-2.968C406.599,403.72,411.702,405.368,416.297,407.264z"/>
<path fill-rule="evenodd" clip-rule="evenodd" fill="#566FAF" d="M406.685,432.816c0.234-1.964,0.138-4.005-0.311-6.016
	c-0.012-0.054-0.003-0.1-0.003-0.15c-5.335,7.409-15.03,6.483-22.665,2.472c0.112,2.913,0.237,5.889,0.37,8.894
	C391.82,441.393,403.636,439.624,406.685,432.816z"/>
<path fill-rule="evenodd" clip-rule="evenodd" fill="#566FAF" d="M404.538,437.326c-5.108,3.877-13.887,4.653-20.399,2.071
	c0.034,0.76,0.071,1.527,0.105,2.29C391.196,444.613,400.24,443.492,404.538,437.326z"/>
<path fill-rule="evenodd" clip-rule="evenodd" fill="#566FAF" d="M384.304,443.017c0.009,0.212,0.019,0.424,0.028,0.639
	c3.986,1.672,8.309,2.628,12.364,1.435c3.204-0.946,5.641-2.831,7.331-5.231C399.137,444.76,390.972,445.592,384.304,443.017z"/>
<path fill-rule="evenodd" clip-rule="evenodd" fill="#566FAF" d="M414.008,458.108c0.681,9.01,2.564,17.812,4.649,26.577
	c-0.434-18.011-1.912-44.251-2.429-55.353C414.84,438.865,413.271,448.367,414.008,458.108z"/>
<path fill-rule="evenodd" clip-rule="evenodd" fill="#566FAF" d="M411.773,497.613c-6.593-7.41-16.833-7.032-25.656-3.771
	c-0.013,1.664-0.038,3.236-0.091,4.68C394.532,496.804,403.061,496.197,411.773,497.613z"/>
<path fill-rule="evenodd" clip-rule="evenodd" fill="#566FAF" d="M458.328,408.792c0.04-2.093,0.054-4.092,0.04-5.958
	c-9.813,0.18-19.699,2.631-28.96,3.896c-0.08,1.172-0.165,2.416-0.255,3.716C438.133,407.357,448.793,406.629,458.328,408.792z"/>
<path fill-rule="evenodd" clip-rule="evenodd" fill="#566FAF" d="M458.249,412.029c0.019-0.666,0.037-1.326,0.052-1.975
	c-9.551-2.226-20.308-1.466-29.237,1.728c-0.013,0.18-0.025,0.368-0.037,0.548C438.426,409.432,449.092,408.522,458.249,412.029z"/>
<path fill-rule="evenodd" clip-rule="evenodd" fill="#566FAF" d="M458.138,415.339c0.025-0.666,0.047-1.329,0.071-1.981
	c-8.006-3.201-17.217-2.852-25.699-0.723C440.985,411.095,450.104,412.226,458.138,415.339z"/>
<path fill-rule="evenodd" clip-rule="evenodd" fill="#566FAF" d="M443.706,424.826c0.295,2.741,2.832,5.569,4.967,6.734
	c1.804,0.984,3.786,1.564,5.859,1.564c0.904,0,1.793-0.071,2.67-0.193c0.169-2.608,0.327-5.188,0.467-7.712
	C452.786,427.327,447.127,428.014,443.706,424.826z"/>
<path fill-rule="evenodd" clip-rule="evenodd" fill="#566FAF" d="M450.815,433.808c-2.242-0.722-4.816-2.429-6.522-4.588
	c2.286,4.716,7.201,7.41,12.609,8.182c0.071-1.041,0.141-2.081,0.211-3.115C454.981,434.561,452.836,434.462,450.815,433.808z"/>
<path fill-rule="evenodd" clip-rule="evenodd" fill="#566FAF" d="M435.902,478.828c5.425-2.626,12.461-1.725,17.689,1.557
	c0.137-1.859,0.287-3.828,0.446-5.87C447.154,472.375,439.827,472.624,435.902,478.828z"/>
<path fill-rule="evenodd" clip-rule="evenodd" fill="#F5D6B7" d="M436.304,96.351c0,0-1.497,0.172-2.109,0.087
	c0.088,1.572,0.085,2.886,0,3.582C435.338,99.407,436.214,97.749,436.304,96.351z"/>
<path fill-rule="evenodd" clip-rule="evenodd" fill="#DAB386" d="M398.566,99.374c-0.15-1.438-0.277-2.884-0.156-3.547
	c-0.792-0.087-2.109-0.349-2.813-0.437c-0.199,0.424-0.111,1.175,0.147,1.996C396.809,97.575,397.802,98.404,398.566,99.374z"/>
<path fill-rule="evenodd" clip-rule="evenodd" fill="#DAB386" d="M411.557,113.956c0.314-0.863,0.654-1.682,1.008-2.405
	c-3.251,1.659-6.77,0.96-8.527-0.175c-1.759-1.139-3.693-4.017-4.397-6.463c0,1.193,0.094,2.852,0.275,4.781
	C402.228,113.847,407.507,117.308,411.557,113.956z"/>
<path fill-rule="evenodd" clip-rule="evenodd" fill="#DAB386" d="M431.422,110.219c-0.007-2.145-0.29-3.264-0.832-2.687
	c-2.675,2.853-7.83,3.353-10.552,2.27c0.286,0.848,0.523,1.74,0.719,2.648C423.962,114.985,428.404,113.219,431.422,110.219z"/>
<path fill-rule="evenodd" clip-rule="evenodd" fill="#DAB386" d="M414.822,129.577c4.303,0.795,5.597-2.339,5.644-5.974
	c-0.454,1.2-1.087,2.198-1.922,2.886c-3.142,2.587-6.278,0.997-7.62-1.822C411.299,127.089,412.376,129.124,414.822,129.577z"/>
<path fill-rule="evenodd" clip-rule="evenodd" fill="#DAB386" d="M421.774,125.533c1.944,2.903,2.397,6.39,2.288,9.831
	C425.186,131.771,425.002,127.915,421.774,125.533z"/>
<path fill-rule="evenodd" clip-rule="evenodd" fill="#DAB386" d="M421.201,139.226c-0.944-0.753-2.14-1.214-3.828-0.77
	c-1.69,0.446-2.109,1.121-2.429,1.548c0.192-0.049,0.66-0.34,1.583-0.42c0.924-0.079,2.784-0.411,4.277,1.293
	c0.77,0.876,1.189,2.04,1.205,3.193c0.317-0.301,0.622-0.647,0.919-1.016C422.903,141.603,422.374,140.16,421.201,139.226z"/>
<path fill-rule="evenodd" clip-rule="evenodd" fill="#DAB386" d="M418.72,144.934c0.492-0.845,0.131-2.886-1.477-2.361
	c-1.611,0.526-2.087,2.177-1.505,2.676C416.317,145.747,418.229,145.779,418.72,144.934z"/>
<path fill-rule="evenodd" clip-rule="evenodd" fill="#DAB386" d="M405.724,134.748c0.508,1.259,1.077,2.606,1.685,3.905
	c0.423-2.373,0.625-4.784,0.551-7.2c-0.076-2.457-0.141-4.948-1.024-7.125c0.249,1.862,0.138,3.843,0.001,5.292
	C406.774,131.375,406.32,133.082,405.724,134.748z"/>
<path fill-rule="evenodd" clip-rule="evenodd" fill="#DAB386" d="M401.069,118.188c0.804,4.669,1.938,9.561,3.404,13.36
	c0.059,0.159,0.127,0.331,0.193,0.504C405.815,127.111,404.949,121.584,401.069,118.188z"/>
<path fill-rule="evenodd" clip-rule="evenodd" fill="#DAB386" d="M413.096,137.245c0.068,0.969,1.264,0.965,2.202,0.669
	c0.94-0.297,1.626-0.532,2.417-0.794c0.792-0.262,1.066-0.772,1.027-1.433c-0.128-2.149-3.827-2.407-5.192-1.006
	c0.115,0.13,0.172,0.308,0.09,0.53C413.414,135.825,413.05,136.573,413.096,137.245z"/>
<path fill-rule="evenodd" clip-rule="evenodd" fill="#DAB386" d="M417.615,111.705c0.436,1.019,0.84,2.149,1.149,3.302
	c0.128,0.122,0.246,0.255,0.354,0.402c-0.486-4.068-1.909-8.995-3.036-7.877c-0.379,0.377-0.779,0.978-1.177,1.712
	C415.992,109.147,416.996,110.262,417.615,111.705z"/>
<path fill-rule="evenodd" clip-rule="evenodd" fill="#DAB386" d="M416.569,124.673c-1.775,0.3-3.329-0.725-4.255-2.177
	c0.474,1.747,1.418,3.03,2.888,3.03c1.177,0,2.018-0.564,2.631-1.491C417.426,124.368,416.992,124.602,416.569,124.673z"/>
<path fill-rule="evenodd" clip-rule="evenodd" fill="#DAB386" d="M436.304,96.351c0,0-1.497,0.172-2.109,0.087
	c0.088,1.572,0.085,2.886,0,3.582C435.338,99.407,436.214,97.749,436.304,96.351z"/>
<path fill-rule="evenodd" clip-rule="evenodd" d="M417.093,502.85c-1.139-0.832-27.948-1.743-28.71-1.209
	c-0.762,0.527-5.278,5.68-6.72,8.103c-1.966,3.305-2.728,8.007,0.323,11.038c3.046,3.025,9.592,8.841,13.098,12.787
	c6.001,6.754,16.343-8.266,18.898-10.535C420.447,517.303,426.316,509.561,417.093,502.85z"/>
<path fill-rule="evenodd" clip-rule="evenodd" fill="#786560" d="M383.318,510.707c0.821-1.513,3.087-5.283,4.382-5.964
	c1.293-0.682,11.613-0.81,12.419-0.795c-0.141,0.215-1.445,2.469-1.881,3.439c-0.051,0.112,0.099,0.259,0.19,0.144
	c0.536-0.67,3.049-2.971,3.651-3.556c3.162,0.038,10.218,0.086,12.656,0.994c2.439,0.904,4.264,1.966,4.951,4.008
	c0.686,2.045,0.085,4.855-2.083,7.17c-6.749-7.774-29.981-6.338-35.769-1.797C382.105,513.083,382.57,512.083,383.318,510.707z"/>
<path fill-rule="evenodd" clip-rule="evenodd" fill="#C7B79F" d="M381.604,515.25c6.018-4.378,28.866-5.817,34.196,2.507
	c-2.588,3.33-6.634,6.446-9.309,8.727c-1.367,1.17-4.856,3.831-6.379,4.739c-1.523,0.91-3.548,0.147-6.014-1.966
	c-2.685-2.302-7.03-6.052-9.794-8.26C381.99,519.146,381.342,517.253,381.604,515.25z"/>
<path fill-rule="evenodd" clip-rule="evenodd" fill="#7B7C77" d="M401.789,533.192c-3.151,2.271-5.127,0.997-7.586-1.685
	c4.462,3.319,8.346,0.097,14.258-4.451C406.663,529.711,403.33,532.079,401.789,533.192z"/>
<path fill-rule="evenodd" clip-rule="evenodd" d="M453.546,485.004c-8.004-0.489-26.337-0.66-28.82-0.32
	c0.171,0.597-0.342,8.596,0,11.15c2.913,3.828,9.433,9.062,12.687,10.678c0.744-0.277,2.277-1.117,3.159-1.324
	c3.624,2.771,7.315,5.452,11.108,7.978c5.526,3.678,11.267,6.764,17.46,9.134c7.17,2.744,13.031,2.547,12.955,1.572
	C481.153,512.105,466.769,495.153,453.546,485.004z"/>
<path fill-rule="evenodd" clip-rule="evenodd" fill="#7B7C77" d="M426.012,494.898c-0.398-1.971-0.205-3.736,0.256-5.615
	c1.695,4.151,5.91,9.104,11.01,13.383c-0.047,0.655-0.418,1.351-0.474,1.592C434.367,502.391,428.667,498.387,426.012,494.898z"/>
<path fill-rule="evenodd" clip-rule="evenodd" fill="#61625C" d="M437.868,505.095c0.33-0.683,0.486-1.087,0.607-1.57
	c0.404,0.315,0.627,0.532,1.034,0.844C438.962,504.611,438.537,504.854,437.868,505.095z"/>
<path fill-rule="evenodd" clip-rule="evenodd" fill="#786560" d="M437.448,500.392c-4.498-3.793-8.611-8.984-10.922-14.603
	c4.347-0.035,17.869-0.255,20.728,0.172c3.803,4.132,7.795,8.895,10.965,13.579c0.184,0.275,0.701,0.106,0.569-0.24
	c-1.784-4.643-5.755-9.188-9.134-12.913c0.915,0.119,2.248,0.175,3.168,0.253c6.519,5.45,13.38,12.252,18.732,19.247
	c-5.818-3.107-15.761,0.149-17.954,6.237C448.484,508.9,441.947,504.185,437.448,500.392z"/>
<path fill-rule="evenodd" clip-rule="evenodd" fill="#C7B79F" d="M471.41,521.196c-5.264-2.092-10.42-4.635-15.292-7.499
	c1.736-4.292,6.862-6.915,11.798-5.397c0.854,0.265-2.732-1.715-6.357-0.545c-3.626,1.168-4.977,3.165-5.98,5.454
	c-0.138-0.084-0.922-0.418-1.342-0.679c2.05-3.288,5.225-5.954,9.464-6.228c4.074-0.265,7.025-0.429,10.632,3.504
	c2.872,4.341,4.92,8.417,5.606,12.899C478.304,523.079,474.35,522.364,471.41,521.196z"/>
<path fill-rule="evenodd" clip-rule="evenodd" d="M415.862,519.376c-2.323-4.674-10.037-6.566-14.815-5.839
	c-0.076,0.012-0.057,0.14,0.019,0.133c5.288-0.551,10.663,2.089,13.681,6.356C415.226,520.698,416.233,520.122,415.862,519.376z"/>
<path fill-rule="evenodd" clip-rule="evenodd" d="M420.546,512.672c0.062-0.221,0.141-0.442,0.199-0.661
	c0.133-0.906,0.28-1.816,0.404-2.725c-2.989-5.001-14.607-4.808-18.978-4.593c-0.012,0-0.012,0.015,0,0.015
	c5.914,0.321,17.421,0.377,18.358,7.92C420.53,512.644,420.54,512.655,420.546,512.672z"/>
<path fill-rule="evenodd" clip-rule="evenodd" d="M453.499,485.274c-4.743,1.642-10.24,1.208-15.485,1.249
	c-0.01,0-0.01,0.012,0,0.015c2.087,0.396,10.402,1.327,15.637,0.034C454.271,486.417,454.097,485.067,453.499,485.274z"/>
<path fill-rule="evenodd" clip-rule="evenodd" d="M455.685,489.874c-0.305,0-0.638,0.228-0.76,0.501
	c-2.698-1.595-6.191-0.907-7.96,1.025c-1.396-0.875-1.927,1.423-0.711,1.689c0.834,0.183,1.466-0.813,1.016-1.357
	c2.24-1.804,4.915-2.153,7.536-0.965c0,0.421,0.211,0.935,0.879,1.024C456.917,491.957,456.93,489.874,455.685,489.874z"/>
<path fill-rule="evenodd" clip-rule="evenodd" d="M458.581,493.527c-0.247,0-0.435,0.088-0.582,0.212
	c-3.383-1.083-5.739,1.759-6.201,3.087c-0.059-0.013-0.108-0.037-0.175-0.037c-1.245,0-1.245,1.916,0,1.916
	c0.756,0,1.025-0.941,0.863-1.495c0.272-1.519,3.005-3.849,5.166-2.75c-0.01,0.488,0.297,0.979,0.929,0.979
	C459.824,495.44,459.824,493.527,458.581,493.527z"/>
<path fill-rule="evenodd" clip-rule="evenodd" d="M459.412,403.153c-8.415,0.081-17.68,2.458-25.787,4.562
	c-0.116,0.029-0.063,0.189,0.05,0.171c8.408-1.171,17.253-3.746,25.737-3.812C460.01,404.071,460.01,403.149,459.412,403.153z"/>
<path fill-rule="evenodd" clip-rule="evenodd" d="M459.25,405.18c-6.375,0.301-13.019,0.009-18.992,2.563
	c-0.074,0.029-0.021,0.141,0.053,0.124c6.211-1.6,12.556-1.924,18.939-1.631C459.936,406.268,459.936,405.147,459.25,405.18z"/>
<path fill-rule="evenodd" clip-rule="evenodd" d="M395.248,398.213c-4.479-0.498-8.822,0.695-13.289,0.738
	c-0.411,0.003-0.41,0.647,0,0.635c4.459-0.149,8.813-1.39,13.289-1.193C395.367,398.398,395.361,398.224,395.248,398.213z"/>
<path fill-rule="evenodd" clip-rule="evenodd" d="M396.381,397.071c-4.711-0.053-9.947-0.467-14.507,0.926
	c-0.33,0.103-0.284,0.657,0.086,0.622c4.845-0.47,9.53-1.259,14.422-1.339C396.518,397.28,396.518,397.073,396.381,397.071z"/>
<path fill-rule="evenodd" clip-rule="evenodd" d="M418.34,394.443c0.133,0.062,0.321-0.084,0.241-0.259
	c-1.541-3.414-3.948-5.867-7.076-7.883c-0.102-0.066-0.221,0.087-0.131,0.165c2.19,1.844,4.221,3.743,5.78,6.079
	c-1.536-2.106-3.643-3.755-6.316-4.192c-0.168-0.028-0.239,0.203-0.071,0.259c3.607,1.212,5.967,4.389,7.705,7.595
	c0.165,0.303,0.701,0.09,0.568-0.24C418.836,395.451,418.597,394.944,418.34,394.443z"/>
<path fill-rule="evenodd" clip-rule="evenodd" d="M418.516,396.699c-1.759-2.975-4.294-5.179-7.449-6.621
	c-0.237-0.105-0.445,0.23-0.205,0.354c2.964,1.535,5.279,3.828,7.131,6.575C418.21,397.326,418.72,397.042,418.516,396.699z"/>
<path fill-rule="evenodd" clip-rule="evenodd" d="M418.316,398.011c-2.111-2.793-5.057-4.46-8.082-6.123
	c-0.181-0.1-0.337,0.167-0.161,0.274c2.919,1.751,5.603,3.567,7.839,6.16C418.101,398.543,418.493,398.247,418.316,398.011z"/>
<path fill-rule="evenodd" clip-rule="evenodd" d="M459.064,418.622c-0.084-0.572-0.89-0.362-0.941,0.127
	c-0.788,7.539-9.409,8.26-14.842,4.914c-0.454-0.28-0.929,0.355-0.564,0.725c3.059,3.071,7.357,4.728,11.666,3.61
	c0.099-0.027,0.174-0.08,0.27-0.111c-0.572,0.803-1.314,1.477-2.594,1.947c-2.573,0.95-5.061,0.645-7.481-0.586
	c-0.167-0.082-0.305,0.15-0.144,0.249c2.482,1.524,5.687,2.56,8.595,1.815c2.616-0.673,5.091-3.404,4.887-6.167
	C459.032,423.194,459.362,420.667,459.064,418.622z"/>
<path fill-rule="evenodd" clip-rule="evenodd" d="M405.998,424.966c-3.84,5.367-11.324,5.901-17.082,3.762
	c-1.338-0.496-1.915,1.42-0.907,2.136c6.122,4.354,16.51,2.015,18.213-5.807C406.251,424.92,406.077,424.854,405.998,424.966z"/>
<path fill-rule="evenodd" clip-rule="evenodd" d="M402.7,434.805c-7.332,0.42-13.151-1.997-18.827-6.527
	c-0.18-0.141-0.433,0.093-0.259,0.258c4.858,4.525,12.273,8.925,19.184,6.98C403.184,435.408,403.12,434.78,402.7,434.805z"/>
<path fill-rule="evenodd" clip-rule="evenodd" d="M414.084,408.874c-0.147-3.572-0.289-7.138-0.44-10.725
	c-0.007-0.108-0.168-0.108-0.168,0c-0.044,3.596-0.043,7.193-0.015,10.789C413.669,408.918,413.876,408.89,414.084,408.874z"/>
<path fill-rule="evenodd" clip-rule="evenodd" d="M414.466,418.585c-0.109-2.726-0.205-5.462-0.317-8.19
	c-0.224,0.019-0.446,0.052-0.672,0.077c0.027,2.722,0.094,5.443,0.149,8.165C413.906,418.618,414.186,418.609,414.466,418.585z"/>
<path fill-rule="evenodd" clip-rule="evenodd" d="M414.788,426.934c-0.088-2.273-0.172-4.55-0.264-6.82
	c-0.292,0.022-0.58,0.031-0.871,0.052c0.052,2.265,0.112,4.528,0.178,6.792C414.152,426.952,414.472,426.943,414.788,426.934z"/>
<path fill-rule="evenodd" clip-rule="evenodd" d="M415.109,435.209c-0.083-2.255-0.172-4.497-0.261-6.748
	c-0.324,0.01-0.645,0.021-0.968,0.028c0.068,2.242,0.149,4.484,0.237,6.727C414.45,435.212,414.779,435.212,415.109,435.209z"/>
<path fill-rule="evenodd" clip-rule="evenodd" d="M415.31,442.661c-0.047-1.974-0.09-3.946-0.158-5.921
	c-0.325,0.004-0.654,0.004-0.983,0.009c0.075,1.971,0.127,3.939,0.181,5.907C414.673,442.655,414.992,442.658,415.31,442.661z"/>
<path fill-rule="evenodd" clip-rule="evenodd" d="M415.432,449.761c-0.029-1.854-0.037-3.71-0.079-5.566
	c-0.318-0.001-0.635-0.006-0.951-0.006c0.046,1.809,0.059,3.621,0.094,5.426C414.806,449.671,415.121,449.716,415.432,449.761z"/>
<path fill-rule="evenodd" clip-rule="evenodd" d="M415.503,457.753c-0.021-2.149-0.018-4.3-0.047-6.449
	c-0.312-0.04-0.623-0.096-0.935-0.144c0.04,2.288,0.062,4.577,0.09,6.867C414.908,457.937,415.202,457.826,415.503,457.753z"/>
<path fill-rule="evenodd" clip-rule="evenodd" d="M414.667,466.373c0.01,1.809,0.032,3.618,0.032,5.428c0,0.579,0.903,0.579,0.903,0
	c0-1.793-0.023-3.582-0.04-5.373C415.264,466.418,414.967,466.398,414.667,466.373z"/>
<path fill-rule="evenodd" clip-rule="evenodd" d="M415.553,464.904c-0.015-1.857-0.025-3.719-0.041-5.577
	c-0.293,0.083-0.589,0.174-0.879,0.27c0.016,1.745,0.016,3.495,0.029,5.236C414.956,464.864,415.255,464.897,415.553,464.904z"/>
<path fill-rule="evenodd" clip-rule="evenodd" d="M415.732,478.438c-0.028-1.648-0.038-3.302-0.081-4.951
	c-0.318-0.004-0.634-0.009-0.952-0.009c0.047,1.61,0.06,3.221,0.094,4.83C415.106,478.358,415.42,478.399,415.732,478.438z"/>
<path fill-rule="evenodd" clip-rule="evenodd" d="M415.741,485.608c-0.021-1.912-0.018-3.825-0.047-5.734
	c-0.311-0.04-0.625-0.087-0.934-0.13c0.04,2.034,0.06,4.071,0.09,6.11C415.148,485.773,415.439,485.676,415.741,485.608z"/>
<path fill-rule="evenodd" clip-rule="evenodd" d="M414.788,493.281c0.01,1.608,0.031,3.215,0.031,4.827c0,0.516,0.902,0.516,0.902,0
	c0-1.595-0.024-3.188-0.037-4.78C415.386,493.321,415.086,493.3,414.788,493.281z"/>
<path fill-rule="evenodd" clip-rule="evenodd" d="M415.732,491.912c-0.018-1.653-0.025-3.31-0.043-4.964
	c-0.293,0.074-0.588,0.158-0.881,0.242c0.018,1.554,0.018,3.107,0.031,4.66C415.136,491.877,415.435,491.905,415.732,491.912z"/>
<path fill-rule="evenodd" clip-rule="evenodd" d="M412.141,496.875c-7.679-0.906-19.473-3.279-26.407,1.327
	c3.121-4.139,9.097-4.715,14.042-4.562c0.031,0,0.028-0.043,0-0.046c-4.298-0.552-14.37-1.393-15.6,4.571
	c-0.116,0.567,0.43,0.913,0.868,0.732c-0.273,0.765,0.467,1.726,1.339,1.177c7.567-4.752,17.379-2.174,25.759-2.975
	C412.29,497.088,412.286,496.891,412.141,496.875z"/>
<path fill-rule="evenodd" clip-rule="evenodd" d="M448.366,477.488c-3.572-0.747-7.427-0.146-10.972,0.487
	c-0.041,0.007-0.032,0.077,0.009,0.072c2.859-0.299,5.709-0.418,8.574-0.121c2.021,0.211,4.186,0.652,5.793,1.959
	c1.084,0.881,1.469,2.258,2.361,3.28c0.374,0.426,1.055,0.069,1.065-0.437C455.257,479.452,450.994,478.038,448.366,477.488z"/>
<path fill-rule="evenodd" clip-rule="evenodd" d="M452.465,476.193c-2.117-0.838-4.534-0.872-6.783-0.745
	c-0.028,0.001-0.029,0.046,0,0.046c1.801,0.003,3.578,0.435,5.222,1.158c0.838,0.365,1.629,0.767,2.335,1.352
	c0.789,0.652,0.951,1.526,1.43,2.358c0.234,0.409,1.003,0.384,1.083-0.138C456.047,478.292,454.08,476.834,452.465,476.193z"/>
<path fill-rule="evenodd" clip-rule="evenodd" d="M383.863,240.355c-0.106-1.069-0.669-1.964-1.444-2.594
	c0-0.009,0.003-0.013,0.003-0.021c0.012-1.202-0.563-2.385-1.376-3.248c-0.9-0.957-2.064-1.109-3.31-1.078
	c-0.099,0.002-0.131,0.159-0.026,0.177c0.935,0.165,1.871,0.703,2.563,1.345c0.651,0.608,0.797,1.329,0.816,2.114
	c-1.159-0.399-2.475-0.337-3.556,0.432c-0.128,0.091-0.088,0.292,0.079,0.298c2.741,0.094,4.376,1.754,3.535,4.442
	c-0.517,1.653-1.84,3.123-2.828,4.516c-0.519,0.734,0.476,1.614,1.194,1.189C382.018,246.441,384.165,243.348,383.863,240.355z"/>
<path fill-rule="evenodd" clip-rule="evenodd" d="M456.815,238.576c-2.408-0.818-4.32-2.377-5.78-4.386
	c-2.199-3.026,1.239-5.921,3.618-7.088c0.997-0.488-1.603-0.604-3.834,0.857c0.019-1.846,2.139-3.544,3.473-4.08
	c0.111-0.046-1.367-0.633-3.918,1.81c-0.769,0.739-1.47,2.713-1.248,3.947c-0.888,0.873-0.926,2.877-0.487,4.11
	c-1.905,0.022-1.472,3.385-0.872,4.401c1.868,3.157,5.173,4.16,4.739,3.712c-0.619-0.633-2.255-2.151-3.059-3.485
	c-0.859-1.426-0.742-2.737-0.181-3.288c1.492,2.307,3.836,3.357,6.192,3.905C456.619,239.262,457.4,238.773,456.815,238.576z"/>
<path fill-rule="evenodd" clip-rule="evenodd" d="M434.365,80.35c-0.103-0.411-0.426-0.741-0.996-0.696
	c-4.833,0.391-9.433,0.278-14.249-0.196c-4.649-0.458-9.081-0.329-13.498-2.138c-0.072-0.028-0.121,0.091-0.053,0.124
	c3.339,1.661,6.83,2.083,10.487,2.562c3.542,0.465,7.092,1.249,10.657,1.654c-0.164,0.024-0.334,0.049-0.493,0.06
	c-3.649,0.305-7.537-0.17-11.115-0.814c-0.037-0.008-0.053,0.049-0.015,0.056c2.94,0.627,5.899,1.055,8.888,1.349
	c2.762,0.272,6.232-0.717,8.832,0.183c0.505,0.175,0.772-0.315,0.648-0.71c0.077-0.018,0.156-0.04,0.227-0.068
	c4.145,0.944,8.518,1.933,12.332,3.8c0.027,0.014,0.05-0.024,0.024-0.038C442.197,83.459,438.446,81.762,434.365,80.35z"/>
<path fill-rule="evenodd" clip-rule="evenodd" d="M434.578,77.122c-3.899-0.644-7.901-0.403-11.824-0.108
	c-0.088,0.005-0.088,0.13,0,0.136c3.862,0.263,7.704,0.183,11.451,1.31C435.086,78.726,435.452,77.267,434.578,77.122z"/>
<path fill-rule="evenodd" clip-rule="evenodd" d="M427.628,58.435c-2.021,1.309-3.924,2.784-6.033,3.951
	c-3.824,2.115-7.677,0.465-10.764-1.958c-0.03-0.024-0.068,0.014-0.041,0.042c2.239,2.492,4.88,3.901,8.265,4.02
	c3.526,0.123,6.858-3.069,9.128-5.344C428.537,58.785,428.07,58.147,427.628,58.435z"/>
<path fill-rule="evenodd" clip-rule="evenodd" d="M434.901,70.753c-3.785-0.487-7.833-0.314-11.638-0.105
	c-0.06,0.004-0.06,0.087,0,0.09c3.806,0.284,7.823,1.324,11.638,0.906C435.482,71.579,435.473,70.827,434.901,70.753z"/>
<path fill-rule="evenodd" clip-rule="evenodd" d="M404.33,70.706c-1.066,2.402-0.77,5.337-0.8,7.895c0,0.039,0.059,0.038,0.062,0
	c0.175-2.644,0.514-5.172,1.058-7.763C404.685,70.657,404.414,70.515,404.33,70.706z"/>
<path fill-rule="evenodd" clip-rule="evenodd" d="M405.068,70.629c-0.828,2.583-0.928,5.182-0.815,7.872
	c0.001,0.028,0.044,0.028,0.046,0c0.14-2.595,0.399-5.269,1.224-7.748C405.619,70.467,405.161,70.343,405.068,70.629z"/>
<path fill-rule="evenodd" clip-rule="evenodd" d="M400.636,78.963c-5.805,1.857-12.473,4.337-16.03,9.537
	c-0.053,0.077,0.074,0.176,0.131,0.1c4.011-5.132,10.224-6.867,16.036-9.142C401.075,79.339,400.959,78.859,400.636,78.963z"/>
<path fill-rule="evenodd" clip-rule="evenodd" d="M421.069,118.862c-0.271-3.182-4.553-4.709-7.005-2.972
	c-0.04,0.025-0.006,0.088,0.037,0.063c1.298-0.75,2.631-0.686,3.917,0.043c0.535,0.302,0.885,0.716,1.165,1.18
	c-0.458-0.33-0.977-0.586-1.517-0.732c-1.688-0.454-3.211,0.286-4.108,1.703c-0.01,0.015,0.015,0.031,0.025,0.018
	c0.938-1.192,2.489-1.517,3.909-1.093c1.505,0.449,2.037,1.725,2.259,3.133c0.088,0.552,0.887,0.367,0.927-0.125
	c0.018-0.242,0.003-0.476-0.034-0.701C420.885,119.345,421.094,119.179,421.069,118.862z"/>
<path fill-rule="evenodd" clip-rule="evenodd" d="M420.443,122.988c-0.61-0.675-1.566,0.549-0.756,0.972
	c3.908,2.033,3.385,8.059,3.332,11.738c0,0.057,0.09,0.057,0.093,0C423.327,131.131,423.704,126.595,420.443,122.988z"/>
<path fill-rule="evenodd" clip-rule="evenodd" d="M421.895,141.649c-0.564-1.308-1.398-2.033-2.757-2.47
	c-1.952-0.63-3.902,0.275-5.472,1.374c-0.015,0.012-0.001,0.037,0.015,0.027c2.167-1.181,5.824-1.277,7.334,0.991
	c1.04,1.566,0.589,3.709-1.203,4.391c-0.717,0.272-0.675,1.439,0.191,1.407C423.253,147.249,422.797,143.738,421.895,141.649z"/>
<path fill-rule="evenodd" clip-rule="evenodd" d="M416.964,142.147c-0.486,0.231-0.763,0.529-1.025,0.991
	c-0.144,0.25,0.09,0.568,0.377,0.487c0.33-0.094,0.692-0.05,1.031-0.074C418.58,143.471,418.095,141.608,416.964,142.147z"/>
<path fill-rule="evenodd" clip-rule="evenodd" d="M417.494,125.816c-0.177-0.275-0.601-0.097-0.527,0.221
	c0.218,0.946,0.94,2.55-0.236,3.165c-0.007,0.005-0.003,0.016,0.006,0.013C418.203,128.82,418.192,126.903,417.494,125.816z"/>
<path fill-rule="evenodd" clip-rule="evenodd" d="M427.255,111.542c0.206-0.13,0.071-0.44-0.164-0.387
	c-3.121,0.711-5.88,1.105-7.409-2.301c-0.159-0.356-0.726-0.1-0.625,0.262c0.208,0.72,0.564,1.289,0.986,1.775
	c-0.115,0.028-0.218,0.116-0.227,0.264c-0.239,3.892,4.183,3.176,6.544,2.239c0.133-0.053,0.084-0.262-0.059-0.218
	c-1.142,0.353-2.293,0.598-3.491,0.432c-1.377-0.19-1.93-1.075-2.324-2.24C422.259,112.878,425.089,112.869,427.255,111.542z"/>
<path fill-rule="evenodd" clip-rule="evenodd" d="M413.494,110.536c0.013-0.038-0.006-0.063-0.006-0.099
	c0.009-0.032,0.025-0.063,0.034-0.097c0.105-0.414-0.454-0.638-0.678-0.286c-0.949,1.472-1.824,2.668-3.389,3.547
	c-1.62,0.91-4.27,1.116-5.84,0.006c-0.108-0.078-0.212,0.119-0.074,0.175c2.198,0.921,3.831,1.28,6.155,0.387
	c0.178-0.068,0.356-0.149,0.533-0.234c-1.083,0.826-2.458,1.186-3.803,1.332c-0.057,0.006-0.059,0.088,0,0.091
	c3.037,0.212,5.594-1.547,6.812-4.254c0.03-0.065,0.062-0.13,0.088-0.197C413.379,110.783,413.446,110.665,413.494,110.536z"/>
<path fill-rule="evenodd" clip-rule="evenodd" d="M398.438,97.141c-0.732-0.494-1.426-0.526-2.224-0.155
	c-0.209,0.099-0.059,0.452,0.159,0.373c1.544-0.564,1.723,1.259,2.508,2.024c0.271,0.262,0.695,0.063,0.714-0.293
	C399.637,98.338,399.047,97.552,398.438,97.141z"/>
<path fill-rule="evenodd" clip-rule="evenodd" d="M435.498,96.777c-1.959,0.334-2.317,3.158-2.037,4.734
	c0.06,0.337,0.558,0.295,0.645,0c0.212-0.726,0.146-1.501,0.25-2.245c0.143-0.983,0.538-1.644,1.221-2.351
	C435.641,96.852,435.576,96.762,435.498,96.777z"/>
<path fill-rule="evenodd" clip-rule="evenodd" d="M402.573,97.783c-1.086-0.343-2.155-0.591-3.21-1.035
	c-0.081-0.034-0.15,0.08-0.069,0.118c1.013,0.471,2.125,1.009,3.254,1.08C402.644,97.951,402.657,97.809,402.573,97.783z"/>
<path fill-rule="evenodd" clip-rule="evenodd" d="M402.834,98.463c-1.109-0.306-2.221-0.561-3.26-1.083
	c-0.077-0.038-0.141,0.071-0.068,0.118c0.988,0.639,2.087,1.049,3.243,1.271C402.95,98.808,403.034,98.519,402.834,98.463z"/>
<path fill-rule="evenodd" clip-rule="evenodd" d="M402.997,99.979c-0.999-0.28-1.925-0.602-2.88-1.022
	c-0.069-0.031-0.134,0.069-0.06,0.105c0.904,0.446,1.887,1.04,2.916,1.094C403.077,100.162,403.094,100.005,402.997,99.979z"/>
<path fill-rule="evenodd" clip-rule="evenodd" d="M403.243,101.839c-1.074-0.541-2.252-0.823-3.304-1.41
	c-0.075-0.043-0.141,0.069-0.069,0.116c1.022,0.638,2.171,0.981,3.258,1.489C403.261,102.096,403.376,101.906,403.243,101.839z"/>
<path fill-rule="evenodd" clip-rule="evenodd" d="M402.944,97.413c-1.058-0.39-2.084-0.831-3.092-1.338
	c-0.087-0.044-0.165,0.084-0.076,0.133c1.003,0.544,2.022,1.069,3.105,1.439C403.031,97.697,403.09,97.469,402.944,97.413z"/>
<path fill-rule="evenodd" clip-rule="evenodd" d="M403.18,96.753c-1.03-0.536-2.31-0.829-3.457-0.981
	c-0.079-0.012-0.088,0.109-0.019,0.134c1.105,0.367,2.232,1.03,3.391,1.156C403.262,97.08,403.321,96.827,403.18,96.753z"/>
<path fill-rule="evenodd" clip-rule="evenodd" d="M405.791,121.104c-0.046-0.062-0.146-0.009-0.105,0.06
	c3.061,5.014,0.451,13.162,0.607,18.683c0.012,0.38,0.591,0.382,0.592,0C406.92,134.345,409.244,125.987,405.791,121.104z"/>
<path fill-rule="evenodd" clip-rule="evenodd" d="M398.902,111.827c-3.043-3.554-9.89-3.084-14.024-2.554
	c-0.085,0.01-0.09,0.141,0,0.136c2.53-0.153,4.955-0.031,7.45,0.457c2.298,0.452,4.093,1.779,6.226,2.554
	C398.92,112.554,399.113,112.073,398.902,111.827z"/>
<path fill-rule="evenodd" clip-rule="evenodd" d="M398.288,109.541c-1.856-1.723-5.033-1.871-7.416-1.657
	c-0.009,0-0.009,0.016,0,0.016c2.659-0.027,4.659,1.096,6.927,2.27C398.194,110.374,398.633,109.864,398.288,109.541z"/>
<path fill-rule="evenodd" clip-rule="evenodd" d="M447.099,110.731c-4.161-0.403-11.171-2.178-14.494,1.273
	c-0.227,0.234-0.004,0.652,0.326,0.557c2.57-0.757,4.599-1.67,7.36-1.778c2.264-0.088,4.552,0.237,6.808,0.386
	C447.385,111.188,447.376,110.758,447.099,110.731z"/>
<path fill-rule="evenodd" clip-rule="evenodd" d="M442.595,113.249c-1.869-0.776-3.899-0.829-5.886-0.591
	c-1.2,0.141-3.297,0.501-3.811,1.763c-0.085,0.211,0.158,0.368,0.337,0.334c0.648-0.124,1.168-0.577,1.779-0.831
	c0.723-0.3,1.508-0.468,2.273-0.616c1.678-0.321,3.604-0.32,5.244,0.172C442.683,113.529,442.736,113.306,442.595,113.249z"/>
<path fill-rule="evenodd" clip-rule="evenodd" d="M403.932,132.266c-1.15-1.196-2.897-1.956-4.273-2.896
	c-1.937-1.323-3.607-2.889-5.2-4.596c-0.028-0.029-0.069,0.013-0.043,0.041c1.401,1.589,2.886,3.115,4.392,4.603
	c1.292,1.274,2.971,2.989,4.768,3.453C403.935,132.965,404.184,132.528,403.932,132.266z"/>
<path fill-rule="evenodd" clip-rule="evenodd" d="M404.989,135.707c-1.986-2.561-5.31-3.541-7.461-5.933
	c-0.012-0.012-0.034,0.006-0.025,0.019c1.822,2.592,4.733,4.09,6.864,6.387C404.667,136.504,405.264,136.062,404.989,135.707z"/>
<path fill-rule="evenodd" clip-rule="evenodd" d="M421.065,153.931c-0.825-1.554-1.884-2.986-3.1-4.263
	c0.231-0.362-0.146-0.922-0.594-0.647c-0.012,0.006-0.021,0.016-0.029,0.021c-0.066-0.06-0.137-0.121-0.203-0.183
	c0-0.08-0.002-0.159-0.002-0.24c0-0.2-0.262-0.211-0.326-0.055c-0.187-0.175-0.371-0.356-0.57-0.518
	c-0.133-0.106-0.284,0.052-0.183,0.181c0.253,0.323,0.482,0.66,0.722,0.993c0,0.075-0.003,0.15-0.003,0.222
	c-3.211,2.195-5.687,5.494-7.54,8.844c-0.193,0.351,0.325,0.648,0.541,0.312c1.5-2.36,3.274-4.755,5.403-6.689
	c-0.321,0.482-0.632,0.965-0.947,1.407c-0.029,0.04,0.035,0.091,0.071,0.055c0.698-0.792,1.648-1.388,2.455-2.093
	c-0.087,12.691-0.511,25.389-0.405,38.072c0.004,0.781,1.208,0.781,1.214,0c0.106-12.56-0.306-25.136-0.401-37.702
	c0.24,0.268,0.489,0.53,0.715,0.801c0.716,0.856,1.096,2.025,1.439,3.067c0.037,0.112,0.191,0.063,0.175-0.05
	c-0.156-1.078-0.38-2.142-0.713-3.181c-0.029-0.097-0.063-0.2-0.097-0.302c0.401,0.622,0.791,1.253,1.15,1.899
	c0.999,1.788,1.192,3.74,2.016,5.537c0.131,0.292,0.535,0.165,0.624-0.081C423.096,157.601,421.863,155.437,421.065,153.931z"/>
<path fill-rule="evenodd" clip-rule="evenodd" d="M418.565,161.692c-1.058,0-1.058,1.629,0,1.629S419.623,161.692,418.565,161.692z"
	/>
<path fill-rule="evenodd" clip-rule="evenodd" d="M418.606,167.451c-1.243,0-1.243,1.918,0,1.918
	C419.851,169.369,419.851,167.451,418.606,167.451z"/>
<path fill-rule="evenodd" clip-rule="evenodd" fill="#A3B5DB" d="M416.899,66.442c2.095,1.214,5.326,1.641,8.081-0.821
	c2.754-2.464,1.379,4.106-4.04,4.106C417.612,69.726,415.797,65.803,416.899,66.442z"/>
<path fill-rule="evenodd" clip-rule="evenodd" fill="#A3B5DB" d="M404.778,63.614c0-2.373,1.745-7.391,4.498-7.299
	C412.032,56.406,404.778,67.081,404.778,63.614z"/>
<path fill-rule="evenodd" clip-rule="evenodd" fill="#A3B5DB" d="M420.939,89.889c4.419-0.334,16.714,0.82,19.561,1.186
	c2.846,0.365,1.871-3.408-7.349-3.558C422.041,87.334,407.625,90.892,420.939,89.889z"/>
<path fill-rule="evenodd" clip-rule="evenodd" fill="#A3B5DB" d="M377.964,86.878c0.546-1.632,7.988-5.292,10.56-5.748
	C391.096,80.674,376.954,89.888,377.964,86.878z"/>
<path fill-rule="evenodd" clip-rule="evenodd" fill="#9E8EC1" d="M411.39,73.011c3.017,0.533,9.09,0.912,11.293,1.003
	c2.205,0.091-2.385,1.187-6.242,1.095C412.583,75.018,407.257,72.281,411.39,73.011z"/>
<path fill-rule="evenodd" clip-rule="evenodd" fill="#9E8EC1" d="M411.299,74.927c2.087,0.628,5.967,1.185,9.274,0.82
	c1.554-0.171-2.389,1.278-5.786,0.821C411.39,76.113,408.267,74.015,411.299,74.927z"/>
<path fill-rule="evenodd" clip-rule="evenodd" d="M421.973,131.291c-0.34-0.896-8.53-2.27-9.372-1.894
	c-0.507,0.225-1.971,1.177-2.866,2.243c-0.598,0.706-0.95,1.924-0.586,2.086c0.155,0.069,1.922-1.648,3.239-2.173
	c0.641-0.255,1.368-0.379,2.173-0.398c0,0.337,0.06,0.682,0.125,1.03c0.005,0.016,0.032,0.013,0.032-0.005
	c-0.04-0.343-0.079-0.691-0.053-1.03c0.13-0.001,0.277,0.019,0.414,0.024c0.028,0.203,0.072,0.411,0.11,0.622
	c0.004,0.038,0.056,0.022,0.059-0.007c0.028-0.239,0.122-0.414,0.219-0.594c0.09,0.007,0.184,0.022,0.275,0.03
	c0.004,0.135,0.013,0.283,0.022,0.473c0,0.034,0.052,0.043,0.057,0.007c0.038-0.155,0.109-0.305,0.178-0.454
	c0.135,0.015,0.286,0.047,0.426,0.066c-0.029,0.253-0.037,0.511-0.046,0.773c0,0.025,0.037,0.029,0.044,0.004
	c0.066-0.264,0.167-0.502,0.278-0.735c0.127,0.019,0.255,0.041,0.38,0.059c-0.112,0.473-0.208,0.949-0.3,1.423
	c-0.006,0.018,0.025,0.025,0.029,0.007c0.125-0.482,0.287-0.94,0.448-1.405c0.046,0.01,0.09,0.013,0.141,0.024
	c0.1,0.024,0.219,0.054,0.33,0.085c-0.093,0.309-0.155,0.627-0.197,0.96c-0.004,0.027,0.035,0.028,0.044,0.005
	c0.122-0.305,0.258-0.604,0.39-0.902c1.34,0.396,3.221,1.211,3.855,1.539C422.548,133.536,422.314,132.188,421.973,131.291z"/>
<path fill-rule="evenodd" clip-rule="evenodd" d="M418.808,134.172c-0.527-0.7-2.972-1.62-4.045-1.22
	c-0.168,0.063-0.326,0.156-0.474,0.27c-0.297-0.273-0.536-0.586-0.675-1.012c-0.003-0.01-0.016-0.006-0.015,0.003
	c0.103,0.429,0.284,0.813,0.57,1.115c-0.088,0.075-0.181,0.149-0.264,0.236c-0.166-0.009-0.34-0.046-0.552-0.155
	c-0.302-0.155-0.723-0.595-0.916-0.862c-0.034-0.047-0.113-0.021-0.096,0.038c0.175,0.636,0.627,1.218,1.184,1.451
	c-0.577,0.851-0.784,1.815-0.348,1.623c0.679-0.295,1.687-0.51,2.903-0.7C417.753,134.698,419.128,134.596,418.808,134.172z"/>
<path fill-rule="evenodd" clip-rule="evenodd" fill="#DAB386" d="M424.974,130.537c0.125,0.902,0.184,2.937-0.158,4.328
	c-0.343,1.391,0.738-0.342,0.738-1.888C425.554,131.428,424.79,129.2,424.974,130.537z"/>
<path fill-rule="evenodd" clip-rule="evenodd" fill="#DAB386" d="M416.791,117.793c-1.206-0.2-2.64,0.209-2.242-0.08
	c1.068-0.778,3.245-0.68,4.037,0.499C418.983,118.802,417.999,117.992,416.791,117.793z"/>
<path fill-rule="evenodd" clip-rule="evenodd" fill="#DAB386" d="M425.292,114.252c1.326-0.265,3.352-1.337,4.276-2.018
	c0.924-0.682,0.027,0.971-1.847,1.888C425.846,115.04,423.075,114.698,425.292,114.252z"/>
<path fill-rule="evenodd" clip-rule="evenodd" fill="#DAB386" d="M406.021,115.722c1.127,0.155,2.273-0.026,3.301-0.289
	c1.03-0.262-0.131,0.918-1.794,0.918C406.442,116.351,405.073,115.591,406.021,115.722z"/>
<path fill-rule="evenodd" clip-rule="evenodd" fill="#DAB386" d="M412.172,141.577c-0.362,0.688-0.629,1.625-0.713,1.364
	c-0.286-0.893-0.025-2.517,1.056-2.728C413.109,140.098,412.613,140.742,412.172,141.577z"/>
<path fill-rule="evenodd" clip-rule="evenodd" fill="#FFF0DC" d="M424.377,116.688c1.283-0.579,3.741-0.848,4.332-0.262
	c0.592,0.588-1.446,2.675-2.495,2.74C425.165,119.231,423.654,117.014,424.377,116.688z"/>
<path fill-rule="evenodd" clip-rule="evenodd" fill="#FFF0DC" d="M417.026,123.079c-1.149,1.05-2.542,0.29-1.314-2.152
	c0.604-1.2,2.427-2.414,2.494-0.784C418.229,120.684,417.594,122.558,417.026,123.079z"/>
<path fill-rule="evenodd" clip-rule="evenodd" fill="#FFF0DC" d="M405.603,117.862c0.741-0.474,2.626-0.521,2.955,0
	C408.885,118.384,403.765,119.035,405.603,117.862z"/>
<path fill-rule="evenodd" clip-rule="evenodd" fill="#FFF0DC" d="M418.011,140.556c1.237-0.153,2.164,0.327,2.426,1.76
	C420.702,143.752,416.958,140.687,418.011,140.556z"/>
<path fill-rule="evenodd" clip-rule="evenodd" fill="#97A9D2" d="M388.406,426.383c3.448,0.806,12.208-0.252,14.242-2.526
	c2.034-2.276-5.848-8.592-11.698-7.58C387.78,416.825,384.083,425.373,388.406,426.383z"/>
<path fill-rule="evenodd" clip-rule="evenodd" fill="#97A9D2" d="M450.207,417.791c-3.778,0.409-7.192,3.94-4.578,5.307
	c2.719,1.421,8.36,0.306,10.427-2.021C457.005,420.01,453.411,417.444,450.207,417.791z"/>
<path fill-rule="evenodd" clip-rule="evenodd" fill="#97A9D2" d="M454.022,446.091c-0.359,4.282-1.018,15.666-1.526,19.458
	c-0.508,3.789-4.068-7.076-3.815-10.867C448.936,450.895,454.532,440.027,454.022,446.091z"/>
<path fill-rule="evenodd" clip-rule="evenodd" fill="#97A9D2" d="M406.208,442.807c-3.243,5.194-5.086,11.371-2.542,17.434
	C406.208,466.305,410.786,435.48,406.208,442.807z"/>
<path fill-rule="evenodd" clip-rule="evenodd" fill="#97A9D2" d="M386.625,458.221c0.373,5.345,1.271,20.214,1.016,23.752
	c-0.253,3.535,4.58-8.338,3.562-13.897C390.187,462.515,386.117,450.895,386.625,458.221z"/>
<path fill-rule="evenodd" clip-rule="evenodd" fill="#97A9D2" d="M392.474,490.815c5.391-1.339,12.208-0.252,15.005,1.768
	c2.8,2.022-1.33-4.246-6.612-4.8C396.036,487.278,388.406,491.825,392.474,490.815z"/>
<path fill-rule="evenodd" clip-rule="evenodd" fill="#A09DB9" d="M458.036,143.556c4.392-1.253,12.728-0.969,16.578,0
	C484.244,145.978,446.578,146.827,458.036,143.556z"/>
<path fill-rule="evenodd" clip-rule="evenodd" fill="#A09DB9" d="M463.521,164.75c-2.202,6.466-5.365,19.137-5.73,27.01
	c-0.365,7.873,7.07-11.747,7.436-15.503C465.594,172.503,466.202,156.878,463.521,164.75z"/>
<path fill-rule="evenodd" clip-rule="evenodd" fill="#A09DB9" d="M423.049,209.442c1.803-0.751,4.632,0.121,6.095,1.09
	C430.606,211.501,420.593,210.466,423.049,209.442z"/>
<path fill-rule="evenodd" clip-rule="evenodd" fill="#A09DB9" d="M423.536,239.357c1.778-1.516,4.389-2.301,5.973-2.18
	C431.094,237.297,420.976,241.538,423.536,239.357z"/>
<path fill-rule="evenodd" clip-rule="evenodd" fill="#A09DB9" d="M463.034,252.68c2.447,5.672,1.934,14.568-0.487,22.164
	C458.644,287.076,459.376,244.201,463.034,252.68z"/>
<path fill-rule="evenodd" clip-rule="evenodd" fill="#A09DB9" d="M424.511,265.759c-2.447-0.055-5.266-1.505-3.414-2.058
	c2.115-0.632,5.609-0.124,7.07,0.483C428.89,264.484,426.893,265.812,424.511,265.759z"/>
<path fill-rule="evenodd" clip-rule="evenodd" fill="#A09DB9" d="M440.724,301.002c6.06-1.846,15.848-4.359,19.14-4.721
	c3.292-0.365-6.948,5.207-9.753,5.692C447.307,302.455,431.58,303.788,440.724,301.002z"/>
<path fill-rule="evenodd" clip-rule="evenodd" fill="#A09DB9" d="M438.285,358.048c5.086-0.946,18.652-3.632,23.65-3.996
	c4.998-0.364-3.048-2.784-11.825-1.454C441.332,353.931,430.484,359.503,438.285,358.048z"/>
<path fill-rule="evenodd" clip-rule="evenodd" fill="#A09DB9" d="M434.751,387.6c5.899-1.34,19.626-2.301,25.599-1.937
	c5.974,0.364-4.753-4.238-13.288-2.785C438.529,384.332,430.484,388.571,434.751,387.6z"/>
<path fill-rule="evenodd" clip-rule="evenodd" fill="#A09DB9" d="M419.51,325.591c2.691-0.134,5.731,0.243,7.072,0.605
	c1.34,0.362-2.439,1.333-4.267,1.09C420.487,327.045,417.073,325.713,419.51,325.591z"/>
<path fill-rule="evenodd" clip-rule="evenodd" fill="#9283BD" d="M404.763,150.094c0.661,5.356,3.78,19.138,5.121,24.587
	c1.339,5.45-5.853-6.54-7.194-11.991C401.349,157.24,403.91,143.191,404.763,150.094z"/>
<path fill-rule="evenodd" clip-rule="evenodd" fill="#9283BD" d="M371.726,157.482c-2.476,2.338-4.632,7.631-4.266,11.748
	c0.365,4.118-3.049-2.785-2.56-7.266C365.387,157.482,374.164,155.181,371.726,157.482z"/>
<path fill-rule="evenodd" clip-rule="evenodd" fill="#9283BD" d="M378.309,239.717c2.014-0.688,1.586,3.998-3.292,8.113
	C370.143,251.949,374.775,240.931,378.309,239.717z"/>
<path fill-rule="evenodd" clip-rule="evenodd" fill="#9283BD" d="M386.233,300.881c5.423,2.79,11.46,5.329,14.873,5.329
	c3.414,0-0.733,2.785-7.802,0.847C386.233,305.12,375.873,295.55,386.233,300.881z"/>
<path fill-rule="evenodd" clip-rule="evenodd" fill="#9283BD" d="M378.919,359.38c5.886-0.89,15.481,0.604,19.261,2.903
	C401.959,364.585,369.288,360.832,378.919,359.38z"/>
<path fill-rule="evenodd" clip-rule="evenodd" fill="#9283BD" d="M384.771,383.722c2.916-0.334,10.24-0.848,14.75,0.605
	C404.031,385.781,373.189,385.055,384.771,383.722z"/>
<path fill-rule="evenodd" clip-rule="evenodd" fill="#9283BD" d="M380.371,179.628c0.23,8.411,3.434,21.594,5.263,28.642
	c1.832,7.047,13.731-12.729,12.358-19.777C396.618,181.447,380.181,172.571,380.371,179.628z"/>
<path fill-rule="evenodd" clip-rule="evenodd" fill="#A09DB9" d="M449.176,185.682c-1.832,7.894-4.958,25.864-5.578,30.791
	c-0.62,4.927-9.297-6.774-9.297-13.548C434.301,196.152,451.036,177.676,449.176,185.682z"/>
<ellipse fill-rule="evenodd" clip-rule="evenodd" fill="#FFF5AC" cx="315.55" cy="52.696" rx="2.196" ry="2.183"/>
<ellipse fill-rule="evenodd" clip-rule="evenodd" fill="#FFF5AC" cx="476.231" cy="93.542" rx="1.647" ry="1.636"/>
<ellipse fill-rule="evenodd" clip-rule="evenodd" fill="#FFF5AC" cx="523.304" cy="46.772" rx="1.647" ry="1.637"/>
<ellipse fill-rule="evenodd" clip-rule="evenodd" fill="#FFF5AC" cx="458.027" cy="51.137" rx="1.647" ry="1.638"/>
<ellipse fill-rule="evenodd" clip-rule="evenodd" fill="#FFFFB3" cx="501.964" cy="107.571" rx="1.234" ry="1.229"/>
<ellipse fill-rule="evenodd" clip-rule="evenodd" fill="#FFFF86" cx="517.656" cy="74.813" rx="1.236" ry="1.228"/>
<ellipse fill-rule="evenodd" clip-rule="evenodd" fill="#FFFF86" cx="420.683" cy="39.932" rx="1.234" ry="1.228"/>
<ellipse fill-rule="evenodd" clip-rule="evenodd" fill="#FFFF86" cx="340.971" cy="58.309" rx="1.235" ry="1.227"/>
<ellipse fill-rule="evenodd" clip-rule="evenodd" fill="#FFFF86" cx="323.083" cy="103.81" rx="1.236" ry="1.227"/>
<ellipse fill-rule="evenodd" clip-rule="evenodd" fill="#FFFF86" cx="302.192" cy="90.267" rx="1.003" ry="0.998"/>
<circle fill-rule="evenodd" clip-rule="evenodd" fill="#FFFF86" cx="303.311" cy="144.673" r="1.002"/>
<ellipse fill-rule="evenodd" clip-rule="evenodd" fill="#FFFF86" cx="323.71" cy="145.922" rx="1.002" ry="0.997"/>
<ellipse fill-rule="evenodd" clip-rule="evenodd" fill="#FFFF86" cx="298.917" cy="180.219" rx="1.004" ry="0.997"/>
<circle fill-rule="evenodd" clip-rule="evenodd" fill="#FFFF86" cx="479.622" cy="125.031" r="1.003"/>
<ellipse fill-rule="evenodd" clip-rule="evenodd" fill="#FFFF86" cx="534.603" cy="94.726" rx="1.003" ry="0.997"/>
<ellipse fill-rule="evenodd" clip-rule="evenodd" fill="#FFC26A" cx="490.354" cy="76.704" rx="1.003" ry="0.998"/>
<ellipse fill-rule="evenodd" clip-rule="evenodd" fill="#FFC26A" cx="514.77" cy="153.249" rx="1.003" ry="0.997"/>
<ellipse fill-rule="evenodd" clip-rule="evenodd" fill="#FFC26A" cx="506.67" cy="37.108" rx="1.003" ry="0.997"/>
<ellipse fill-rule="evenodd" clip-rule="evenodd" fill="#FFC26A" cx="358.858" cy="43.654" rx="1.004" ry="0.997"/>
<circle fill-rule="evenodd" clip-rule="evenodd" fill="#FFC26A" cx="361.841" cy="91.887" r="0.815"/>
<ellipse fill-rule="evenodd" clip-rule="evenodd" fill="#FFC26A" cx="324.023" cy="74.21" rx="0.815" ry="0.809"/>
<circle fill-rule="evenodd" clip-rule="evenodd" fill="#FFC26A" cx="320.572" cy="37.856" r="0.815"/>
<circle fill-rule="evenodd" clip-rule="evenodd" fill="#FFC26A" cx="527.384" cy="124.72" r="0.815"/>
<circle fill-rule="evenodd" clip-rule="evenodd" fill="#FFC26A" cx="523.969" cy="188.983" r="0.815"/>
<ellipse fill-rule="evenodd" clip-rule="evenodd" fill="#FFC26A" cx="336.162" cy="205.359" rx="0.815" ry="0.81"/>
<circle fill-rule="evenodd" clip-rule="evenodd" fill="#FFC26A" cx="455.519" cy="129.895" r="0.814"/>
<ellipse fill-rule="evenodd" clip-rule="evenodd" fill="#FFC26A" cx="317.12" cy="181.03" rx="0.815" ry="0.809"/>
<ellipse fill-rule="evenodd" clip-rule="evenodd" fill="#FFF5AC" cx="317.746" cy="163.07" rx="1.647" ry="1.638"/>
<path fill-rule="evenodd" clip-rule="evenodd" fill="#FFF5AC" d="M340.323,101.335c0,0.678-0.552,1.227-1.234,1.227
	c-0.685,0-1.236-0.549-1.236-1.227c0-0.678,0.551-1.227,1.236-1.227C339.77,100.109,340.323,100.658,340.323,101.335z"/>
<ellipse fill-rule="evenodd" clip-rule="evenodd" fill="#FFF5AC" cx="357.29" cy="126.591" rx="1.236" ry="1.227"/>
<ellipse fill-rule="evenodd" clip-rule="evenodd" fill="#FFF5AC" cx="308.332" cy="135.302" rx="1.237" ry="1.227"/>
<ellipse fill-rule="evenodd" clip-rule="evenodd" fill="#FFF5AC" cx="375.178" cy="39.601" rx="1.235" ry="1.228"/>
<ellipse fill-rule="evenodd" clip-rule="evenodd" fill="#FFF5AC" cx="308.646" cy="48.352" rx="1.235" ry="1.227"/>
<ellipse fill-rule="evenodd" clip-rule="evenodd" fill="#FFF5AC" cx="366.704" cy="65.5" rx="0.927" ry="0.921"/>
<ellipse fill-rule="evenodd" clip-rule="evenodd" fill="#FFF5AC" cx="326.849" cy="97.905" rx="0.927" ry="0.922"/>
<path fill-rule="evenodd" clip-rule="evenodd" fill="#FFF5AC" d="M329.655,128.165c0,0.507-0.412,0.921-0.924,0.921
	c-0.514,0-0.928-0.414-0.928-0.921c0-0.51,0.414-0.922,0.928-0.922C329.243,127.243,329.655,127.656,329.655,128.165z"/>
<ellipse fill-rule="evenodd" clip-rule="evenodd" fill="#FFF5AC" cx="320.117" cy="217.035" rx="0.753" ry="0.745"/>
<ellipse fill-rule="evenodd" clip-rule="evenodd" fill="#FFF5AC" cx="304.62" cy="206.471" rx="0.811" ry="0.804"/>
<ellipse fill-rule="evenodd" clip-rule="evenodd" fill="#FFF5AC" cx="479.369" cy="101.35" rx="0.927" ry="0.921"/>
<ellipse fill-rule="evenodd" clip-rule="evenodd" fill="#FFF5AC" cx="534.185" cy="175" rx="0.926" ry="0.919"/>
<ellipse fill-rule="evenodd" clip-rule="evenodd" fill="#FFF5AC" cx="539.325" cy="65.791" rx="0.927" ry="0.921"/>
<ellipse fill-rule="evenodd" clip-rule="evenodd" fill="#FFF5AC" cx="487.858" cy="52.073" rx="0.926" ry="0.92"/>
<circle fill-rule="evenodd" clip-rule="evenodd" fill="#FFF5AC" cx="506.182" cy="180.827" r="0.637"/>
</svg>
