<?xml version="1.0" encoding="utf-8"?>
<!-- Generator: Adobe Illustrator 17.0.0, SVG Export Plug-In . SVG Version: 6.00 Build 0)  -->
<!DOCTYPE svg PUBLIC "-//W3C//DTD SVG 1.1//EN" "http://www.w3.org/Graphics/SVG/1.1/DTD/svg11.dtd">
<svg version="1.1" id="Layer_1" xmlns="http://www.w3.org/2000/svg" xmlns:xlink="http://www.w3.org/1999/xlink" x="0px" y="0px"
	 width="800px" height="600px" viewBox="0 0 800 600" enable-background="new 0 0 800 600" xml:space="preserve">
<g>
	<ellipse fill="#D2D2D2" cx="417.054" cy="488.255" rx="107.422" ry="18.542"/>
	<path d="M509.482,222.869c-0.522-21.296-1.55-56.757-4.358-77.943c-6.429-48.494-21.948-86.498-79.395-83.915
		c-52.845,2.375-61.552,58.581-67.1,94.285c-28.529,11.434-56.815,30.164-45.729,58.986c5.058,13.156,25.42,20.026,40.962,19.49
		c0.26,22.883,0.616,36.254,0.467,58.365c-8.867,7.202-15.574,23.663-18.669,34.014c-4.305,14.392-3.073,27.926-0.612,31.824
		c2.462,3.9,15.611-3.267,22.356-7.588c0.428,17.45,2.255,49.634,3.343,59.626c13.886,11.543,28.367,15.78,46.16,17.197
		c-3.506,5.662-3.575,14.271-2.191,20.302c-24.938-3.339-71.04,7.501-92.383,27.718c-5.499,5.207-6.236,10.275,0.951,13.145
		c10.165,4.057,21.826,1.744,32.392-3.786c3.293,0.029,6.389,0.859,9.292,2.688c8.273,10.702,28.855,2.63,37.389-2.32
		c14.493,0.126,35.57,1.196,53.682,3.81c12.78,1.845,25.741,5.909,34.021-0.115c12.192-8.87,5.292-30.597-9.328-36.002
		c-3.943-10.752-2.78-18.581,0.912-28.223c13.539-2.464,29.316-7.617,38.974-15.179c-0.205-16.202-2.377-69.367-2.337-84.053
		c8.713-3.39,18.714-7.862,22.338-15.989C536.083,296.959,525.295,254.981,509.482,222.869z M455.756,454.285
		c-6.399-1.519-19.297-1.395-31.279-0.365c-1.101-3.211-4.033-5.87-6.329-6.971c-0.113-5.821,1.357-15.936,2.339-19.099
		c7.107,0.386,20.223,0.386,31.895-0.765C448.213,434.951,451.35,449.151,455.756,454.285z"/>
	<path fill="#FF8F1E" d="M338.215,353.604c-4.398-9.783,2.575-41.982,16.056-53.815c0.058,5.062,0.671,14.293,1.287,19.216
		c-14.356,13.333-13.99,20.59-13.177,19.805c11.536-11.19,28.665-24.309,34.852-28.774c0.808-0.584-0.464-1.849-4.211,0.168
		c-2.03-8.255-2.262-22.818,1.205-27.21c3.468-4.39,7.473-1.965,9.691-0.938c-1.601,2.787-2.656,12.665-1.372,10.415
		c1.849-3.235,6.012-12.018,11.097-14.794c2.392-8.655,5.556-21.913,13.528-24.146c9.349-2.619-3.067,18.72-6.585,28.702
		c2.959,3.08,5.613,7.284,4.13,11.658c-1.904,0.145-3.465,1.78-1.904,2.08c11.778,2.258,6.05,11.435,7.213,11.53
		c9.085,0.735,3.76,15.421,0.37,21.715c-3.387,6.294-9.358,10.328-10.643,5.567c3.824-4.175,6.641-9.477,7.85-14.113
		c0.255-0.978-1.138-1.402-1.702-0.728c-4.82,5.774-9.692,12.44-16.725,15.635c-8.72,3.956-11.263-5.289-13.265-9.724
		C366.429,337.875,339.521,356.51,338.215,353.604z"/>
	<path fill="#FFFFFF" d="M454.288,260.306c-0.162,6.44-0.76,14.428-1.127,17.753c-7.872-1.135-13.949-2.126-21.874-2.768
		c0.087-8.851,0.531-18.495,1.218-21.599C439.862,255.258,447.281,257.613,454.288,260.306z"/>
	<path fill="#FFFFFF" d="M433.12,250.624c0.754-4.49,1.322-9.197,1.967-14.04c6.614,1.295,14.982,5.856,20.819,10.491
		c-0.306,2.794-0.64,6.896-1.13,10.004C447.945,254.353,440.316,252.127,433.12,250.624z"/>
	<path fill="#FFFFFF" d="M429.686,249.954c-5.226-0.969-14.6-1.654-19.127-2.074c0.513-3.785,1.372-8.759,2.903-13.071
		c6.221-1.142,12.756-0.625,19.043,0.969C431.375,240.458,430.734,245.782,429.686,249.954z"/>
	<path fill="#FFFFFF" d="M428.311,274.348c-8.554-0.971-16.622-1.777-19.69-2.26c2.449-5.232,7.424-17.59,3.611-20.801
		c5.264,0.306,13.366,1.834,17.207,2.567C428.83,260.744,428.475,272.894,428.311,274.348z"/>
	<path fill="#FFFFFF" d="M407.332,248.042c-5.207,0.114-11.419,0.506-16.24,1.726c3.168-4.953,7.526-10.601,18.822-13.828
		C409.247,239.239,408.139,244.815,407.332,248.042z"/>
	<path fill="#FFFFFF" d="M403.649,251.736c-6.204,3.675-9.115,10.362-11.561,17.091c-3.622-0.204-7.179-0.092-10.577,0.587
		c1.796-5.789,3.971-11.116,6.976-15.908C393.528,252.841,398.531,252.052,403.649,251.736z"/>
	<path fill="#FF8F1E" d="M353.751,481.002c-1.342-0.411-2.866-0.61-4.412-0.644c1.282-1.197,3.586-6.707,2.117-5.683
		c-4.899,3.415-11.065,8.19-20.276,9.788c-12.775,2.211-19.686-0.911-18.091-3.881c7.156-13.319,59.449-32.983,96.713-29.504
		c1.052,0.12,0.367-2.112-2.018-3.029c-1.302-6.845-0.587-14.453,2.801-20.58c1.938,0.116,3.853,0.197,5.739,0.268
		c-1.751,4.993-2.395,13.799-1.662,18.385c-1.925-0.274-3.188,0.644-2.567,1.009c2.018,1.193,6.631,4.312,7.062,7.522
		c-29.382,2.414-53.631,12.262-62.651,21.112C354.917,477.327,354.042,479.146,353.751,481.002z"/>
	<path fill="#FF8F1E" d="M471.718,485.081c-5.923,2.045-19.902-1.229-30.77-2.546c-14.805-1.792-30.622-3.295-45.445-0.851
		c3.475-2.333,7.13-8.566,5.822-7.908c-7.725,3.895-17.077,10.69-28.748,12.531c-11.671,1.843-15.234-1.597-13.881-5.652
		c1.35-4.053,14.25-11.302,39.801-18.18c16.683-4.491,49.03-4.251,65.605-2.592c1.835,0.184-0.668-1.544-2.396-2.56
		c-6.961-10.373-7.052-24.224-3.1-30.823c2.125-0.261,5.546-0.806,7.668-1.122c-4.148,10.6-2.548,22.99,0.106,27.534
		c-1.337,0.141-2.73,3.685-1.418,3.792C480.13,457.93,488.427,479.304,471.718,485.081z"/>
	<path fill="#8231AF" d="M473.8,341.787c-4.628,4.331-8.776,15.586-9.503,25.995c1.458,0.111,7.396,1.24,8.477,1.625
		c0.76-1.091,8.1-15.74,13.114-11.098c3.876,3.59-2.291,21.875-7.244,24.03c-2.821,1.225-7.341,0.89-11.865,1.039
		c-2.301,5.858-9.308,6.377-16.534,5.113c-0.836,2.751-4.152,4.154-14.831,1.262c-1.061,2.647-6.004,2.447-13.271-3.485
		c-1.361-1.111-3.113-5.282-1.732-10.861c1.382-5.579,7.381-23.228,17.585-38.208c8.539-12.54,18.669-16.929,24.311-15.845
		c6.057-5.437,13.589-10.63,23.756-16.252c-21.829,6.99-43.727,9.823-67.434,7.004c0.917,5.094-1.495,10.303-2.583,13.237
		c-3.711,10.005-14.038,21.624-20.171,13.231c-2.475,1.752-5.637,3.043-8.521,3.402c-4.128,0.516-10.521-0.98-12.885-7.179
		c-1.735,2.543-8.957,8.996-10.706,10.871c0.192,20.009,1.661,40.561,2.666,60.096c27.483,21.532,104.04,17.624,138.241-0.825
		c-0.562-24.008-1.193-53.573-2.423-77.162C493.656,331.898,479.833,339.199,473.8,341.787z"/>
	<path fill="#A673C6" d="M422.308,387.277c-0.373-0.618-0.704-1.268-0.944-1.975c-1.125-1.787-2.076-5.361-0.953-9.895
		c1.382-5.579,7.381-23.228,17.585-38.208c1.348-1.982,2.74-3.737,4.146-5.323v-13.897c-5.181,0.489-10.367,0.611-15.565,0.428
		c-1.864,6.998-4.097,13.893-6.669,20.69v81.112c7.283,0.302,14.776,0.191,22.235-0.278v-21.342
		C433.934,397.659,425.607,394.188,422.308,387.277z"/>
	<path fill="#5C0394" d="M372.466,342.181c0.388-0.792,1.535-1.037,2.257-0.592c5.579,3.455,12.833,6.826,19.264,3.348
		c0.621-0.335,1.505-0.308,1.999,0.259c7.469,8.557,15.364-2.894,18.715-9.255c3.976-7.549,6.302-15.503,4.265-23.799
		c-0.114-0.013-0.224-0.022-0.336-0.036c0.917,5.094-1.495,10.303-2.583,13.237c-3.711,10.005-14.038,21.624-20.171,13.231
		c-2.475,1.752-5.637,3.043-8.521,3.402c-4.128,0.516-10.521-0.98-12.885-7.179c-1.735,2.543-8.957,8.996-10.706,10.871
		c0.027,2.839,0.084,5.691,0.159,8.548C367.237,350.562,370.262,346.687,372.466,342.181z"/>
	<path fill="#5C0394" d="M464.297,367.781c0.592,0.045,1.92,0.258,3.362,0.52c-3.038-19.529,18.089-27.67,34.928-33.526
		c-0.109-2.377-0.222-4.722-0.34-6.998c-8.591,4.12-22.414,11.422-28.446,14.009C469.173,346.118,465.024,357.372,464.297,367.781z"
		/>
	<path fill="#5C0394" d="M478.644,382.338c-2.821,1.225-7.341,0.89-11.865,1.039c-2.301,5.858-9.308,6.377-16.534,5.113
		c-0.836,2.751-4.152,4.154-14.831,1.262c-0.255,0.637-0.739,1.102-1.421,1.37c3.058,2.839,7.672,3.516,12.985,2.844
		c7.707-0.975,16.079-1.93,23.42-4.269c7.839-2.499,13.235-4.457,17.026-12.017c1.14-2.274,7.229-19.704-0.322-15.382
		C487.192,368.949,482.543,380.642,478.644,382.338z"/>
	<path fill="#FF8F1E" d="M364.244,223.743c24.601-0.754,84.449-17.201,73.504-51.403c-1.555-4.86,5.675,1.206,6.191,8.966
		c1.765,26.558-32.093,47.315-83.254,52.581c0.109,16.854,0.333,34.451,0.643,49.504c2.201,1.763,4.469,3.44,6.83,4.991
		c0.531-3.662,1.57-6.835,3.339-8.616c4.464-4.498,10.624-4.515,14.921-0.064c0.908-1.426,2.528-2.659,4.152-3.503
		c0.324-1.362,0.921-2.717,1.166-3.373c-3.248-0.436-10.641,0.254-13.772,0.231c0.967-6.294,5.223-18.396,12.909-28.08
		c8.714-10.971,25.285-19.152,45.507-12.424c12.835,4.266,27.395,11.951,34.535,26.626c5.808,11.942,4.518,24.853,2.816,27.697
		c-16.534-4.137-53.974-9.783-66.721-11.237c-0.538,1.749-1.454,4.358-2.096,5.812c2.741,2.096,4.377,5.298,5.161,8.389
		c10.196-2.796,22.594-2.976,31.188,3.542c1.443,1.093,0.666,3.525-0.967,3.503c-8.113-0.104-25.774-2.773-29.253-3.172
		c0.061,0.685,0.468,2.23,0.468,2.923c3.881,1.754,3.823,6.204,3.245,8.526c29.131,4.215,60.582-0.433,85.526-11.374
		c-0.38-35.466,1.094-80.108-1.613-114.811c-3.244-41.457-5.165-115.383-75.42-109.979c-36.827,2.836-52.782,45.013-56.225,83.726
		c6.315-1.707,13.159-3.029,19.989-3.62c-5.042-2.244-9.852-13.224-3.407-22.129c-2.55,0.621-9.117-1.709-6.692-2.669
		c3.671-1.454,17.402-11.634,25.77-18.958c1.264-1.105,3.207,0.697,2.427,2.201c-2.172,4.157-4.875,8.292-8.316,11.574
		c17.572,0.422,18.572,25.105,9.358,30.603c7.938,1.413,15.015,4.485,20.095,9.959c0.879,0.949-0.069,2.927-1.425,2.337
		c-19.431-8.422-46.699-3.529-66.85,3.181c-22.814,7.595-39.848,23.311-37.991,39.973
		C321.93,222.673,346.463,224.291,364.244,223.743z"/>
	<path fill="#D47400" d="M415.022,227.857c18.467-7.697,36.474-27.234,28.921-46.449c1.671,26.508-32.163,47.219-83.258,52.478
		c0.016,2.458,0.035,4.933,0.056,7.411c8.214-0.239,16.373-1.788,24.43-4.123C395.025,234.318,405.545,231.808,415.022,227.857z"/>
	<path fill="#D47400" d="M439.229,296.85c-8.492-0.293-24.849-2.758-28.185-3.139c0.061,0.685,0.468,2.23,0.468,2.923
		c1.964,0.887,2.915,2.465,3.305,4.106C423.502,302.55,435.051,303.194,439.229,296.85z"/>
	<path fill="#D47400" d="M409.755,275.968c-1.007-0.127-1.928-0.237-2.744-0.331c-0.538,1.749-1.454,4.358-2.096,5.812
		c2.741,2.096,4.377,5.298,5.161,8.389c1.102-0.302,2.234-0.569,3.382-0.804C411.971,284.694,410.222,280.475,409.755,275.968z"/>
	<path fill="#D47400" d="M499.24,187.622c-0.169-2.934-0.352-5.833-0.57-8.647c-0.093-1.171-0.185-2.372-0.274-3.593
		c-3.52-0.135-7.054-1.458-10.425-3.656C487.521,178.295,492.833,185.377,499.24,187.622z"/>
	<path fill="#D47400" d="M400.401,119.636c2.377-3.039,4.033-6.53,3.591-10.082c-1.969,3.46-4.311,6.817-7.197,9.568
		C398.098,119.152,399.279,119.358,400.401,119.636z"/>
	<path fill="#D47400" d="M453.024,130.404c-1.241-1.14-2.443-2.324-3.603-3.55c-2.373-2.603-4.735-5.285-6.672-8.24
		c-3.28-5.003-5.771-10.139-7.371-15.725c-7.371,14.121-1.081,36.886,18.097,35.473C462.582,137.693,453.85,131.189,453.024,130.404
		z"/>
	<path fill="#D47400" d="M408.567,147.579c-0.702,0.872-1.507,1.604-2.414,2.146c3.898,0.694,7.585,1.793,10.933,3.377
		C414.597,150.822,411.849,148.869,408.567,147.579z"/>
	<path fill="#D47400" d="M367.025,152.722c6.315-1.707,13.159-3.029,19.989-3.62c-1.638-0.728-3.243-2.389-4.454-4.59
		c-5.272,0.668-10.385,2.026-15.134,4.225C367.278,150.069,367.142,151.397,367.025,152.722z"/>
	<path fill="#8231AF" d="M367.734,295.211c-2.142-1.326-4.291-2.829-6.315-4.316c0.247,10.614,0.583,18.306,0.907,24.212
		c2.195-1.374,5.199-3.222,7.74-4.609C368.746,308.173,367.576,302.269,367.734,295.211z"/>
	<path fill="#5C0394" d="M383.961,341.947c-3.657-0.488-7.715-2.488-9.492-7.15c-1.735,2.543-8.957,8.996-10.706,10.871
		c0.192,20.009,1.661,40.561,2.666,60.096c4.603,3.608,10.605,6.483,17.533,8.715V341.947z"/>
	<path fill="#5C0394" d="M469.718,347.592v21.104c1.398,0.281,2.621,0.557,3.056,0.711c0.76-1.091,8.1-15.74,13.114-11.098
		c3.876,3.59-2.291,21.875-7.244,24.03c-2.206,0.958-5.456,0.963-8.926,0.99v33.108c13.521-2.645,25.767-6.541,34.951-11.496
		c-0.562-24.008-1.193-53.573-2.423-77.162c-8.591,4.12-22.414,11.422-28.446,14.009
		C472.362,343.131,470.972,345.146,469.718,347.592z"/>
	<path fill="#5C0394" d="M466.419,368.085v-12.013c-1.088,3.747-1.848,7.787-2.122,11.709
		C464.712,367.814,465.494,367.928,466.419,368.085z"/>
	<path fill="#5C0394" d="M469.718,315.371c4.598-3.365,9.949-6.733,16.345-10.27c-5.436,1.74-10.875,3.222-16.345,4.424V315.371z"/>
	<path fill="#5C0394" d="M391.077,341.028c-1.243,0.449-2.506,0.796-3.723,0.948c-0.031,0.003-0.064,0.005-0.095,0.008v73.493
		c1.244,0.35,2.524,0.673,3.818,0.983V341.028z"/>
	<path fill="#5C0394" d="M367.734,295.211c-2.142-1.326-4.291-2.829-6.315-4.316c0.247,10.614,0.583,18.306,0.907,24.212
		c2.195-1.374,5.199-3.222,7.74-4.609C368.746,308.173,367.576,302.269,367.734,295.211z"/>
	<path fill="#FFFFFF" d="M471.235,268.054c1.13,4.196,1.801,10.747,0.806,14.2c-4.515-1.291-9.523-1.773-15.492-3.711
		c-0.002-1.596,0.866-13.583,1.13-16.944C462.036,263.052,466.879,265.149,471.235,268.054z"/>
	<path fill="#FFFFFF" d="M457.944,258.298c-0.103-2.67,0.573-6.663,0.704-9.287c2.334,2.133,8.903,8.918,11.134,14.524
		C466.221,261.524,461.491,259.897,457.944,258.298z"/>
	<path fill="#FFFFFF" d="M384.329,138.238c-0.997-6.264,3.671-14.829,12.253-15.155c9.53-0.364,11.343,8.345,11.343,13.703
		c0,5.352-2.095,10.215-10.213,11.551C389.593,149.672,385.328,144.5,384.329,138.238z"/>
	<path fill="#FF8F1E" d="M508.066,318.081c-10.384,4.538-24.88,12.148-35.558,18.103c-11.813-1.773-15.744,33.928-12.977,34.614
		c3.461,0.861,13.509,1.649,16.064,1.848c0.676,0.053-0.221-1.209-0.532-1.663c0.849-0.805,4.717-9.005,7.771-8.758
		c3.054,0.244-2.707,17.073-6.786,17.296c-7.497,0.407-24.986-1.113-25.729-1.929c-0.74-0.815-1.719-4.347-2.053-5.949
		c-0.215-1.05-1.431-0.576-1.21,2.613c0.221,3.189,1.182,5.913,1.557,6.153c2.919,1.863,10.439,2.568,14.534,2.819
		c-0.74,3.707-9.088,3.147-11.936,2.52c-8.082-1.781-11.648-5.318-14.35-10.194c-0.517-0.922-2.557,4.262,9.753,11.899
		c-3.266,3.782-12.903-0.887-18.586-6.869c-0.674-0.71-1.064,2.198,5.385,7.39c-1.438,1.725-4.968-0.743-8.237-3.365
		c-2.099-1.683-2.691-5.343-1.664-8.683c1.026-3.339,8.84-23.749,14.917-32.429c6.077-8.683,14.329-18.454,25.401-18.454
		c14.109-10.853,31.039-21.487,55.571-26.266c0.876-0.169-2.172-4.991-10.217-3.803c-0.509-15.947-0.552-41.191-0.509-59.034
		c4.238,14.793,12.726,34.804,15.332,49.657C527.854,307.556,526.621,309.958,508.066,318.081z"/>
	<path fill="#D47400" d="M350.733,323.832c1.389-1.507,2.982-3.115,4.825-4.827c-0.616-4.923-1.229-14.154-1.287-19.216
		c-1.853,1.625-3.575,3.644-5.17,5.928C348.65,311.832,348.864,317.986,350.733,323.832z"/>
	<path fill="#D47400" d="M379.983,280.561c-0.547,3.444,0.043,6.784,2.081,9.416c0.244-2.63,0.964-6.37,1.854-7.922
		C382.906,281.587,381.519,280.832,379.983,280.561z"/>
	<path fill="#D47400" d="M407.486,333.409c1.534-3.606,1.82-7.504-0.465-10.821c-1.413,4.135-3.96,8.585-7.266,12.194
		C400.719,338.352,404.318,336.977,407.486,333.409z"/>
	<path fill="#D47400" d="M414.97,433.605c0.326-2.177,0.779-4.228,1.354-5.867c-1.886-0.071-3.801-0.151-5.739-0.268
		c-1.011,1.829-1.756,3.796-2.308,5.828C410.516,433.168,412.749,433.291,414.97,433.605z"/>
	<path fill="#D47400" d="M385.811,458.679c-11.08,3.081-26.256,7.417-34.08,17.152c-0.456,1.478-1.611,3.8-2.391,4.528
		c1.546,0.034,3.07,0.233,4.412,0.644c0.291-1.856,1.165-3.675,2.754-5.237c9.02-8.849,33.269-18.698,62.651-21.112
		c-0.026-0.189-0.067-0.377-0.12-0.566C407.825,454.316,396.619,455.672,385.811,458.679z"/>
	<path fill="#D47400" d="M401.341,474.655c-0.789,1.713-3.356,5.362-5.839,7.029c14.823-2.443,30.64-0.94,45.445,0.851
		c0.927,0.112,1.882,0.243,2.849,0.379C430.314,475.887,416.284,470.903,401.341,474.655z"/>
	<path fill="#D47400" d="M464.486,431.632c0.407-2.106,0.988-4.214,1.788-6.255c-2.122,0.316-5.543,0.861-7.668,1.122
		c-1.185,1.977-1.995,4.61-2.378,7.6C458.913,433.02,461.688,432.15,464.486,431.632z"/>
	<path fill="#D47400" d="M449.041,383.752c4.047,1.179,8.179,1.42,12.334,1.519c0.929-0.459,1.587-1.118,1.772-2.044
		c-4.095-0.251-11.615-0.956-14.534-2.819c-0.291-0.188-0.934-1.887-1.311-4.132c-0.764,2.668-0.309,5.417,1.241,7.434
		C448.702,383.709,448.861,383.699,449.041,383.752z"/>
	<path fill="#D47400" d="M437.132,378.687c-0.574,3.455,0.709,6.211,4.259,8.248c1.068,0.613,2.172,1.152,3.286,1.668
		c0.767-0.207,1.435-0.568,1.937-1.15C440.814,383.855,438.221,380.814,437.132,378.687z"/>
	<path fill="#D47400" d="M509.182,294.974c2.667-0.395,4.776-0.121,6.384,0.419c0.983-17.858-2.696-35.34-6.903-52.64
		C508.646,259.79,508.735,280.966,509.182,294.974z"/>
	<path fill="#D47400" d="M433.411,387.974c-2.704-2.177-4.195-3.946-4.978-5.221c-0.483,1.459-0.35,2.944,0.193,4.391
		C430.674,388.447,432.482,389.09,433.411,387.974z"/>
	<path d="M457.776,133.133c-11.48-14.302-16.787-24.667-20.844-30.175c-1.428-1.945-4.038-0.152-3.834,1.841
		c0.425,4.246,2.12,9.43,4.723,14.327c-8.065-2.744-17.91,1.055-21.997,9.129c-4.111,8.114-2.111,18.335,5.899,24.594
		c8.711,6.804,19.882,2.03,24.139-4.721c2.636-4.166,4.535-10.525,2.459-16.205c2.347,1.713,4.861,2.942,7.497,3.389
		C457.091,135.53,458.592,134.146,457.776,133.133z"/>
	<path fill="#FFFFFF" d="M439.421,148.672c-6.082,4.358-11.8,3.724-16.517,0.092c-4.719-3.632-7.988-11.524-3.721-19.33
		c4.562-8.344,17.762-9.806,22.96-1.451C446.77,135.423,445.499,144.315,439.421,148.672z"/>
	<path d="M433.411,137.237c0,2.939-2.378,5.321-5.318,5.321c-2.938,0-5.325-2.382-5.325-5.321c0-2.943,2.387-5.322,5.325-5.322
		C431.033,131.915,433.411,134.294,433.411,137.237z"/>
	<path d="M398.524,136.04c0,2.477-2.006,4.484-4.483,4.484c-2.473,0-4.478-2.006-4.478-4.484c0-2.471,2.005-4.483,4.478-4.483
		C396.518,131.557,398.524,133.569,398.524,136.04z"/>
	<circle fill="#FFFFFF" cx="396.344" cy="134.627" r="1.125"/>
	<path fill="#FFFFFF" d="M394.534,132.961c0,0.3-0.242,0.542-0.537,0.542c-0.298,0-0.54-0.242-0.54-0.542
		c0-0.294,0.241-0.535,0.54-0.535C394.292,132.426,394.534,132.667,394.534,132.961z"/>
	<path fill="#FFFFFF" d="M432.406,135.949c0,0.81-0.656,1.468-1.468,1.468c-0.806,0-1.468-0.658-1.468-1.468
		c0-0.811,0.661-1.468,1.468-1.468C431.75,134.482,432.406,135.138,432.406,135.949z"/>
	<circle fill="#FFFFFF" cx="428.544" cy="133.745" r="0.636"/>
	<path d="M512.54,163.449c0,8.354-6.284,15.222-13.316,15.222c-5.59,0-13.442-1.754-12.05-10.227
		c-0.443-1.535-0.683-3.182-0.683-4.895c0-2.977,0.726-5.752,1.977-8.091c-1.823-3.23,2.864-8.879,10.433-8.236
		C507.016,147.911,512.54,155.097,512.54,163.449z"/>
	<ellipse fill="#FF8F1E" cx="495.489" cy="162.803" rx="10.708" ry="10.458"/>
	<path d="M493.064,156.476c-0.238,0.174-0.101,0.629,0.218,0.508c3.626-1.36,6.627,1.37,6.608,5.072
		c-0.01,1.774-1.17,3.704-3.041,3.907c-1.408,0.155-3.454-0.871-4.505-1.707c-0.486-0.388-1.114,0.218-1,0.733
		c0.355,1.606,0.869,2.976,2.471,3.667c1.168,0.504,2.481,0.445,3.616-0.121c1.98-0.986,3.287-3.031,3.735-5.155
		C502.098,158.98,497.502,153.202,493.064,156.476z"/>
	<path fill="#FFA950" d="M399.601,82.515c3.532-3.296,15.194-3.145,7.335,4.191C399.076,94.043,391.742,89.852,399.601,82.515z"/>
	<path fill="#FFA950" d="M427.898,74.653c6.684-4.36,24.103-1.572,29.345,6.812C462.482,89.85,415.845,82.513,427.898,74.653z"/>
	<path fill="#FFA950" d="M329.381,194.656c4.007-10.019,25.676-25.677,41.922-22.008
		C387.549,176.316,320.996,215.617,329.381,194.656z"/>
	<path fill="#FFA950" d="M381.785,301.555c1.032-7.224,7.312-16.588,12.053-16.77C407.462,284.262,380.738,308.892,381.785,301.555z
		"/>
	<path fill="#FFA950" d="M434.186,360.246c2.555-9.794,11.007-23.058,18.866-26.726
		C460.912,329.851,431.043,372.298,434.186,360.246z"/>
	<path fill="#FFA950" d="M477.681,317.798c7.963-5.473,23.055-12.577,29.345-13.624c6.29-1.048-1.57,5.238-11.004,9.956
		C486.589,318.848,469.297,323.562,477.681,317.798z"/>
	<path fill="#FFA950" d="M341.958,472.913c-8.75,3.852-19.961,3.494-15.72,0c6.732-5.545,21.484-10.479,28.821-12.052
		C358.902,460.035,351.582,468.675,341.958,472.913z"/>
	<path fill="#FFA950" d="M366.064,477.104c4.781-3.043,19.388-8.909,26.724-9.956c7.337-1.048-4.193,5.765-12.052,8.909
		C372.877,479.2,360.301,480.772,366.064,477.104z"/>
	<path fill="#FFA950" d="M415.846,461.907c10.554-0.959,35.11-1.047,41.922,0.525c6.812,1.572-14.673,5.763-23.582,5.763
		C425.277,468.195,404.318,462.955,415.846,461.907z"/>
</g>
</svg>
