<?xml version="1.0" encoding="utf-8"?>
<!-- Generator: Adobe Illustrator 17.0.0, SVG Export Plug-In . SVG Version: 6.00 Build 0)  -->
<!DOCTYPE svg PUBLIC "-//W3C//DTD SVG 1.1//EN" "http://www.w3.org/Graphics/SVG/1.1/DTD/svg11.dtd">
<svg version="1.1" id="Layer_1" xmlns="http://www.w3.org/2000/svg" xmlns:xlink="http://www.w3.org/1999/xlink" x="0px" y="0px"
	 width="800px" height="600px" viewBox="0 0 800 600" enable-background="new 0 0 800 600" xml:space="preserve">
<g>
	<path fill="#53A323" d="M606.258,301.23c-2.229-14.926-4.954-29.82-9.291-44.29c-3.933-13.123-9.018-25.964-15.511-38.035
		c-7.264-13.505-16.078-25.751-28.26-35.181c-13.237-10.246-27.656-18.899-43.078-25.449c-15.725-6.678-32.356-10.081-49.259-11.655
		c-7.799-0.8-15.46-2.518-23.184-3.821c-11.736-1.981-23.385-2.625-35.201-1.142c-5.863,0.736-11.483,2.499-16.872,4.826
		c-5.904-2.112-12.879-2.28-18.269-1.443c-11.447,1.779-22.69,4.506-33.787,7.824c-10.859,3.246-21.289,7.891-30.185,14.97
		c-8.381,6.67-16.506,14.008-25.897,19.223c-5.755,3.195-11.262,6.535-15.821,11.408c-5.419,5.792-6.236,13.22-7.519,20.606
		c-0.324,1.261-0.718,2.502-1.252,3.686c-1.822,2.243-3.957,4.189-6.115,6.142c-3.877,3.506-6.662,7.123-9.406,11.627
		c-5.287,8.676-3.602,19.275-4.903,28.937c-1.888,6.546-5.58,12.261-8.288,18.497c-3.511,8.087-4.958,17.574-5.259,26.337
		c-0.578,16.771,4.67,33.626,10.733,49.07c2.859,7.282,6.02,14.442,9.019,21.666c2.744,6.611,5.361,13.174,8.792,19.473
		c7.531,13.824,17.137,26.586,28.379,37.598c12.585,12.326,26.656,22.164,42.331,30.083c16.004,8.086,33.323,13.764,50.878,17.32
		c36.163,7.325,73.616,3.006,108.229-9.1c7.849-2.746,15.516-5.997,23.028-9.555c8.948-4.237,18.009-8.706,26.428-13.947
		c7.493-4.665,14.251-10.541,20.897-16.307c5.875-5.097,11.198-10.801,17.057-15.895c10.06-8.745,16.6-19.908,24.376-30.541
		c5.202-7.113,9.922-14.415,13.168-22.637c3.089-7.824,4.814-16.285,5.889-24.6C610.065,331.749,608.505,316.282,606.258,301.23z"/>
	<g>
		<path fill="#0F160D" d="M420.921,458.472c-0.133-0.144-0.274-0.278-0.418-0.409c-0.382-1.014-0.777-2.022-1.153-3.03
			c-1.216-3.255-2.454-6.502-3.655-9.763c-2.35-6.382-4.507-12.84-5.973-19.488c-0.358-1.623-2.112-2.586-3.882-3.073
			c0.148-0.875,0.314-1.747,0.49-2.616c2.266-0.473,4.322-1.731,5.431-3.817c1.005-1.89,0.901-4.531,0.864-6.612
			c-0.077-4.416-0.661-8.835-1.217-13.208c-0.187-1.471-0.999-2.603-2.139-3.4c1.648-0.523,3.266-1.334,3.956-3.048
			c0.707-1.757-0.252-3.655-1.781-4.608c-0.019-0.013-0.032-0.02-0.049-0.032c-0.274-0.298-0.535-0.612-0.793-0.921
			c-0.698-0.839-1.359-1.711-2.044-2.561c-0.8-0.993-1.652-1.925-2.586-2.753c0.672-0.433,1.077-0.994,1.05-1.68
			c-0.114-2.829-1.244-5.384-2.778-7.696c0.865-0.942,1.209-2.115,0.449-3.472c-1.591-2.838-3.22-5.762-4.763-8.754
			c2.678-5.798,3.888-12.413,2.068-17.976c-0.599-1.832-1.687-3.418-3.067-4.736c0.018-3.714-1.571-7.888-2.632-10.876
			c-1.656-4.661-3.867-10.182-7.794-13.437c-0.204-2.633-0.293-5.275-0.276-7.912c0.027-4.311,0.388-8.672,1.398-12.224
			c0.493-1.732-0.089-3.088-1.202-4.098c0.166-0.284,0.276-0.593,0.302-0.936c0.324-4.158,0.025-8.315,0-12.478
			c-0.005-0.776-0.431-1.405-1.119-1.887c0.077-1.169,0.035-2.341-0.21-3.511c-0.017-0.104-0.04-0.248-0.074-0.459
			c-0.126-0.778-0.227-1.561-0.328-2.343c-1.012-7.843-2.196-16.421-1.169-24.31c0.037-0.077,0.085-0.188,0.15-0.348
			c0.624-1.538,0.925-3.184,1.021-4.837c0.182-3.144-0.936-6.492-1.895-9.442c-1.747-5.379-3.442-10.27-3.821-15.935
			c-0.735-10.988,0.336-22.348,3.287-33.02c0.531-1.724,1.061-3.448,1.592-5.171c0.747-2.425-0.55-4.168-2.595-5.139
			c0.496-1.054,0.964-2.118,1.385-3.202c1.353-3.482-2.013-5.585-5.741-5.894c2.122-0.995,3.939-2.921,2.998-5.442
			c-1.134-3.04-5.294-4.088-8.161-3.416c-13.878,3.255-26.867,8.523-39.205,15.628c-5.963,3.433-11.751,7.219-17.614,10.824
			c-5.267,3.238-10.37,6.334-15.099,10.317c-7.014,5.908-17.104,6.299-24.1,12.389c-1.791,1.559-3.388,3.034-4.436,5.187
			c-0.77,1.58-0.483,3.574-0.297,5.242c0.017,0.152,0.032,0.305,0.049,0.458c-0.801,0.236-1.51,0.58-2.047,1.034
			c-3.341,2.826-6.09,4.859-7.358,9.277c-1.184,4.121,1.264,8.006,1.409,12.065c0.028,0.77-1.064,3.12-1.589,4.307
			c-0.966,2.182-2.124,4.28-3.288,6.361c-2.165,3.871-4.574,7.608-6.589,11.564c-0.406,0.797-0.428,1.56-0.207,2.263
			c-3.355,7.701-6.43,16.64-2.748,24.149c0.488,0.996,1.111,1.851,1.829,2.578c0.035,0.559,0.07,1.117,0.109,1.671
			c0.42,5.939,0.709,11.943,1.311,17.863c0.306,3.008,0.593,5.774,0.061,8.78c-0.309,1.745-0.938,3.463-1.645,5.147
			c-1.038,1.562-1.797,3.262-1.966,4.962c-0.106,1.067,0.6,1.87,1.556,2.455c-0.047,0.058-0.096,0.114-0.141,0.172
			c-2.898,3.749-1.582,8.535-0.067,12.519c0.772,2.03,1.74,3.985,2.636,5.961c0.329,0.726,0.635,1.459,0.919,2.204
			c0.113,0.306,0.214,0.617,0.302,0.931c0.055,0.182,0.086,0.276,0.104,0.32c0.005,0.026,0.009,0.046,0.016,0.076
			c1.257,6.011,0.035,12.344,1.034,18.418c0.099,0.6,0.218,1.196,0.361,1.782c-1.832,4.025-3.32,8.769,1.204,11.525
			c0.364,0.222,0.751,0.411,1.147,0.582c0.249,5.177,1.413,10.232,4.026,14.718c0.646,1.108,2.123,1.946,3.878,2.431
			c0.375,0.735,0.769,1.467,1.176,2.211c2.477,4.526,4.184,9.548,5.914,14.392c1.706,4.776,2.754,9.834,4.585,14.538
			c2.446,6.284,7.807,10.922,12.209,15.816c4.732,5.261,9.614,10.213,13.078,16.435c3.51,6.307,6.281,12.842,11.246,18.215
			c2.162,2.339,6.853,2.249,9.597,1.372c2.408-0.769,4.688-2.885,2.516-5.234c-4.361-4.719-6.8-10.804-9.832-16.387
			c-3.372-6.208-8.147-11.164-12.815-16.39c-4.134-4.627-9.062-8.868-11.863-14.487c-1.276-2.56-1.74-5.32-2.559-8.028
			c-0.67-2.214-1.419-4.406-2.178-6.591c-1.685-4.848-3.471-9.7-5.685-14.336c-1.055-2.21-2.397-4.197-3.256-6.51
			c-1.182-3.185-1.653-6.613-2.385-9.918c-0.438-1.978-0.757-3.922-2.255-5.324c1.826-0.449,4.018-1.528,4.058-3.485
			c0.11-5.41-0.982-10.793-2.118-16.172c0.811-3.312,1.4-6.544,1.38-10.166c-0.012-2.257-0.159-4.747-0.628-7.154
			c1.186-0.608,2.141-1.483,1.917-2.657c-1.131-5.905-2.111-12.291-4.79-17.741c-1.479-3.008-3.896-5.041-6.704-6.728
			c0.338-1.856,0.487-3.756,0.354-5.727c-0.157-2.325-0.327-4.655-0.504-6.986c0.485-0.505,0.842-1.13,1.003-1.902
			c0.14-0.67,0.286-1.345,0.435-2.023c0.962-2.25,3.332-4.103,4.981-5.675c2.599-2.476,5.845-5.382,5.995-9.235
			c0.133-3.397-2.579-7.284-4.258-10.026c-0.71-1.159-1.458-2.305-2.227-3.437c-0.105-3.856-0.705-7.663-2.059-11.356
			c-0.337-0.919-1.152-1.61-2.222-2.088c0.002-0.006,0.005-0.013,0.007-0.02c0.249-0.657,0.272-1.249,0.126-1.776
			c2.962-5.028,6.099-9.979,8.013-15.508c0.055-0.16,0.099-0.318,0.146-0.477c1.613-0.015,3.196-0.499,4.398-1.613
			c4.802-4.453,6.33-9.891,6.955-16.254c0.245-2.491,0.32-4.995,0.554-7.487c-0.005,0.217,0.116-0.543,0.19-0.755
			c0.017-0.051,0.028-0.087,0.041-0.127c0.057-0.079,0.146-0.181,0.238-0.277c0.093-0.07,0.184-0.142,0.28-0.208
			c-0.729,0.508,0.911-0.473,1.308-0.647c0.917-0.403,1.862-0.745,2.801-1.094c2.228-0.829,4.438-1.676,6.578-2.716
			c6.009-2.921,11.087-7.25,14.992-12.665c0.706-0.979,1.01-1.898,1.014-2.739c2.471-1.666,5.158-3.096,7.678-4.661
			c5.567-3.455,11.189-6.821,16.721-10.332c4.698-2.982,9.688-5.559,14.848-7.763c-3.341,2.562-6.386,5.549-9.096,8.471
			c-3.619,3.902-7.988,7.284-11.949,10.834c-4.007,3.591-7.561,6.752-7.272,12.52c0.07,1.386,0.313,2.752,0.46,4.129
			c-3.008,0.21-5.859,1.75-5.705,4.934c-6.077,0.367-12.065,6.106-15.89,10.087c-2.508,2.611-4.864,5.362-6.644,8.527
			c-2.447,4.351-1.819,8.807,1.095,12.669c5.828,7.724,17.1,11.593,20.191,21.35c1.377,4.348,0.272,8.873-1.886,12.719
			c-1.356,2.417-3.521,4.281-4.831,6.723c-0.803,1.497,0.384,3,1.699,3.813c-0.796,0.492-1.463,1.141-1.904,1.945
			c-0.391,0.713-0.359,1.962-0.398,2.775c-0.09,1.871-0.139,3.742-0.252,5.612c-0.385,6.396-0.799,12.936-0.76,19.348
			c0.024,3.918,0.092,7.338-1.231,11.088c-1.258,3.567-3.509,6.501-5.469,9.683c-1.246,2.023-1.956,4.094-1.198,6.432
			c0.919,2.835,4.544,4.341,6.868,5.705c1.619,0.95,1.502,0.959,1.488,2.718c-0.018,2.312-0.337,4.597-0.194,6.913
			c0.078,1.265,0.176,2.709,0.371,4.181c-0.396,2.359-0.787,4.718-1.113,7.088c-0.323,2.345-1.04,5.357-0.102,7.65
			c0.376,0.919,1.202,1.522,2.198,1.907c-0.334,0.527-0.411,1.171-0.074,1.953c1.565,3.625,3.565,6.497,6.465,8.215
			c-0.312,0.511-0.359,1.104,0.058,1.77c0.326,0.523,0.704,0.942,1.118,1.297c-0.551,0.516-0.889,1.146-0.907,1.899
			c-0.126,5.302-1.992,10.367-2.937,15.552c-0.834,4.581-2.318,8.659-4.572,12.739c-1.355,2.452,2.093,3.997,5.83,4.204
			c-0.087,2.787,0.065,5.564,0.53,8.199c2.055,11.644,17.187,13.734,22.709,23.038c0.11,0.255,0.284,0.527,0.493,0.805
			c0.026,0.036,0.054,0.072,0.082,0.106c0.558,0.717,1.309,1.458,1.732,2.001c1.121,1.438,2.238,2.878,3.36,4.316
			c3.062,3.924,6.189,7.784,9.167,11.768c-1.646,0.571-3.237,1.696-2.547,3.559c1.031,2.781,1.582,5.791,2.852,8.475
			c1.48,3.126,4.712,4.673,7.759,5.855c0.233,0.09,0.484,0.166,0.743,0.233c1.184,0.986,2.474,1.854,3.918,2.543
			c2.541,1.212,11.249,1.731,9.995-3.133c-1.324-5.135-4.582-9.807-7.52-14.136c-3.408-5.021-7.139-9.828-10.959-14.54
			c-1.488-1.835-2.937-3.698-4.388-5.562c-0.431-0.554-0.864-1.107-1.296-1.662c0.345-0.567,0.385-1.227-0.02-1.974
			c-0.49-0.905-1.067-1.758-1.706-2.572c0.062-1.107-0.34-2.106-0.907-3.042c0.934-0.141,1.869-0.276,2.801-0.424
			c1.472-0.233,3.431-0.79,4.177-2.249c0.656-1.284-0.387-2.615-1.538-3.133c-4.271-1.919-8.703-3.228-13.196-4.504
			c-3.615-1.027-7.788-1.922-10.688-4.464c-0.628-0.551-1.139-1.169-1.548-1.836c-0.002-0.01-0.005-0.019-0.007-0.029
			c-0.561-3.181-0.598-6.565-0.316-9.924c0.392-0.981,0.94-1.891,1.502-2.78c0.024-0.038,0.042-0.062,0.063-0.09
			c1.987-0.388,3.968-0.528,5.945-1.036c3.68-0.945,4.953-3.364,3.542-6.698c-1.194-2.82-3.024-5.336-4.425-8.05
			c-1.448-2.805-2.288-7.604-2.929-11.013c-0.234-1.245-0.283-2.466-0.6-3.552c1.565-0.623,3.065-1.381,4.443-2.299
			c1.516-1.01,2.228-2.665,1.072-3.844c-0.036-0.209-0.099-0.424-0.222-0.652c-1.364-2.523-3.101-4.85-4.499-7.363
			c-0.978-1.757-1.826-3.578-2.552-5.452c-0.634-1.636-0.684-3.353-1.24-4.981c-0.29-0.849-0.985-1.415-1.868-1.784
			c0.619-2.999,0.75-6.177,0.885-9.154c0.106-2.328,0.139-4.663,0.108-6.999c1.878-3.768,2.071-8.857,2.687-12.685
			c0.417-2.589,0.821-5.192,1.683-7.678c0.102-0.294,0.226-0.578,0.355-0.861c0.657-0.145,1.306-0.302,1.967-0.491
			c3.022-0.865,5.445-3.295,4.467-6.587c-0.418-1.407-1.106-2.585-1.978-3.544c-0.11-1.546-0.209-3.093-0.213-4.645
			c-0.005-1.921,0.015-2.548,0.742-4.146c0.051-0.111,0.082-0.187,0.104-0.244c0.028-0.037,0.059-0.077,0.096-0.128
			c0.235-0.32,0.52-0.601,0.8-0.88c-0.728,0.725,1.746-1.039,1.018-0.683c2.376-1.16,4.98-1.711,7.554-2.222
			c1.807-0.359,4.337-1.449,4.337-3.667c0-2.228-2.532-3.294-4.337-3.667c-4.064-0.84-8.188-1.429-12.219-2.42
			c0.429,0.093-1.184-0.39-1.352-0.451c-0.316-0.116-0.629-0.242-0.939-0.376c-0.055-0.023-0.096-0.04-0.141-0.058
			c-0.057-0.043-0.168-0.115-0.374-0.238c-0.731-0.433-1.496-1.1-2.073-2.069c-1.644-2.761-2.829-7.222-1.46-10.248
			c0.924-2.043,4.527-4.057,6.061-6.339c2.193-3.262,3.226-7.469,4.138-11.25c1.017-4.217,1.656-8.327-0.931-12.113
			c-0.756-1.106-1.728-1.953-2.822-2.571c-6.07-5.741-10.734-15.764-7.436-23.732c0.782-1.322,1.563-2.645,2.342-3.967
			c0.467-0.792,0.324-1.573-0.104-2.256c1.194-0.803,1.964-2.113,2.091-3.54c0.054-0.61-0.155-1.213-0.458-1.781
			c1.81-0.774,3.318-2.129,3.788-4.138c0.676-2.892-0.153-5.747-0.298-8.654c-0.168-3.349,2.69-5.257,4.975-7.307
			c5.029-4.513,10.069-8.981,14.864-13.741c2.09-2.075,4.318-3.986,6.688-5.733c0.481-0.355,0.974-0.692,1.472-1.022
			c-6.638,12.644-17.012,31.347-0.806,36.003c0.009,1.691,0.056,3.378,0.14,5.058c0.304,6.066,1.768,11.652,3.759,17.376
			c1.074,3.09,2.145,6.117,1.954,9.428c-0.096,1.665-1.027,3.438-1.215,5.168c-0.861,7.948,0.21,16.573,1.374,24.51
			c-0.858,0.275-1.591,0.704-2.074,1.311c-5.032,6.318-3.772,12.683-1.978,19.986c1.391,5.66,4.425,10.896,5.079,16.666
			c0.017,5.173,0.578,10.36,1.424,15.33c0.404,2.372,0.894,4.924,1.543,7.498c-1.047,0.342-1.965,0.913-2.601,1.753
			c-1.824,2.406-2.653,4.853-2.937,7.841c-0.179,1.88,0.299,4.208-0.261,6.117c-2.971,2.927-3.323,7.385-0.973,11.387
			c0.849,1.444,1.823,2.801,2.888,4.087c1.051,1.452,2.304,2.665,3.613,3.957c0.914,0.902,1.815,1.817,2.681,2.765
			c0.377,0.413,0.726,0.847,1.07,1.288c0.022,0.029,0.038,0.047,0.057,0.072c0.013,0.053,0.038,0.127,0.085,0.243
			c0.32,0.783,0.802,1.419,1.393,1.928c0.992,7.507,0.676,15.13,2.315,22.563c0.026,0.116,0.053,0.232,0.079,0.348
			c-1.981,2.062-0.934,5.457,0.564,8.006c2.856,4.86,5.533,9.907,8.707,14.582c-0.34,1.4-0.663,2.794-0.948,4.171
			c-1.205,5.82-3.825,15.158,0.772,20.203c1.414,1.551,3.651,2.358,5.892,2.388c1.064,3.246,2.22,6.464,3.409,9.669
			c2.412,6.505,6.504,13.514,5.44,20.62c-0.917,6.12-4.498,11.613-2.298,17.911c2.323,6.649,10.308,9.371,16.659,9.557
			c2.504,0.074,5.609-1.019,6.68-3.477c2-4.593,3.748-9.343,3.253-14.444C431.981,471.56,426.435,464.403,420.921,458.472z
			 M334.859,205.451C334.864,205.431,334.866,205.429,334.859,205.451L334.859,205.451z M335.321,417.021
			C335.498,416.785,335.511,416.921,335.321,417.021L335.321,417.021z M387.37,267.305c-0.008-0.033-0.01-0.066-0.018-0.098
			C387.354,267.218,387.361,267.256,387.37,267.305z"/>
		<path fill="#0F160D" d="M489.096,373.457c2.278-0.239,4.752-2.306,4.752-4.709c0-2.536-2.482-4.289-4.752-4.709
			c-0.963-0.178-1.924-0.366-2.882-0.569c-0.467-0.102-0.931-0.21-1.395-0.324c0.129,0.031-1.625-0.453-1.324-0.34
			c-0.398-0.131-0.766-0.261-1.11-0.394c0.455-3.549,0.792-7.665-0.514-11.096c0.326-2.987-0.759-6.13-1.725-8.884
			c-0.268-0.766-0.554-1.525-0.847-2.281c-0.109-1.967-0.173-3.938-0.245-5.903c-0.167-4.551,0.087-9.974-1.438-14.514
			c0.819-11.851,3.528-24.62-2.932-35.14c-6.873-11.189-19.58-17.053-25.392-29.079c-0.091-2.421-0.249-4.839-0.511-7.255
			c-0.986-9.08-4.367-17.329-7.836-25.682c-4.693-11.3-10.309-23.786-19.792-31.93c1.368-1.934,1.715-4.566,1.769-6.894
			c0.206-8.925-6.47-19.521-15.361-21.738c-2.127-0.53-11.645-0.971-10.163,3.368c1.048,3.067,2.891,5.827,4.599,8.634
			c-1.183,0.627-1.792,1.539-1.296,2.743c2.462,5.978-2.572,13.436,2.57,18.717c0.387,0.398,0.815,0.723,1.271,0.995
			c0.014,0.514,0.03,1.027,0.046,1.536c0.114,3.462,0.237,6.887,1.294,10.212c1.179,3.709,3.17,7.02,5.096,10.377
			c3.739,6.518,8.439,12.445,11.387,19.405c2.96,6.987,1.019,13.667-0.626,20.687c-1.551,6.62-1.267,14.862,4.302,19.695
			c2.326,2.019,5.247,2.826,8.126,3.725c2.24,0.7,4.318,3.681,5.712,5.988c2.622,4.34,4.06,9.235,6.519,13.65
			c0.131,0.236,0.277,0.459,0.418,0.685c-0.209,0.746-0.178,1.596,0.19,2.547c2.011,5.202,3.139,10.804,2.836,16.388
			c-0.069,0.558-0.114,1.121-0.131,1.687c-0.014,0.485,0.047,0.928,0.16,1.34c-1.348,1.705-2.295,3.605-2.385,5.974
			c-0.115,3.035,1.541,5.938,3.02,8.448c2.827,4.798,6.981,8.701,10.73,12.76c0.166,0.18,0.341,0.346,0.521,0.506
			c0.013,1.748,0.675,3.67,1.396,5.667c1.001,2.775,2.408,5.071,4.125,6.983c-0.499,3.823-0.761,7.657-0.021,11.581
			c0.025,0.134,0.059,0.264,0.092,0.395c-0.226,4.232,0.77,8.486,2.3,12.618c-0.008,5.531,1.312,11.148,1.788,16.655
			c-2.358,2.774-3.502,6.538-4.242,10.158c-1.18,2.772-1.767,5.734-1.241,8.641c-0.201,1.124-0.248,2.323-0.213,3.543
			c-0.476,0.941-0.603,2.06-0.384,3.271c0.281,1.554,0.622,3.077,0.997,4.587c0,0.003,0.001,0.008,0.001,0.011
			c0.043,0.305,0.12,0.592,0.214,0.869c1.503,5.744,3.681,11.201,6.492,16.553c0.419,0.798,1.009,1.464,1.705,1.999
			c-0.315,2.938-1.179,5.666-2.179,8.547c-1.287,3.705-2.563,7.472-4.251,11.017c-0.272,0.57-1.731,1.268-3.044,1.833
			c-2.403,1.035-4.753,1.976-6.897,3.52c-2.487,1.79-2.394,5.101,0,6.907c2.603,1.963,6.542,1.88,9.154,0
			c1.251-0.901,3.73-1.723,5.587-2.575c3.074-1.411,5.734-3.485,7.363-6.475c2.072-3.805,3.361-8.146,4.778-12.224
			c3.138-9.034,3.501-18.91-0.322-27.649c0.369-0.59,0.563-1.253,0.456-1.978c-0.307-2.084-1.003-3.98-2-5.605
			c-0.232-2.082-0.375-4.14-0.87-6.187c-0.11-0.455-0.274-0.88-0.461-1.29c1.66-2.997,2.302-6.657,2.473-10.25
			c2.106-1.484,4.373-2.737,6.302-4.488c3.438-3.12,1.43-6.493-2.13-7.907c-0.022-0.049-0.034-0.098-0.059-0.147
			c-1.447-2.89-3.085-5.925-4.524-9.06c-0.555-1.555-1.096-3.129-1.757-4.687c-0.123-0.291-0.277-0.562-0.453-0.818
			c-0.499-1.496-0.908-3.008-1.188-4.531c0.544-0.302,1.052-0.663,1.507-1.092c1.826-1.725,2.669-3.839,3.664-6.068
			c0.077-0.076,0.149-0.149,0.239-0.238c-0.418,0.413-0.123,0.164,0.171-0.092c-0.139,0.168,0.434-0.186,0.266-0.233
			c0.018-0.016,0.035-0.031,0.048-0.042C487.442,373.617,488.282,373.542,489.096,373.457z M485.672,374.645
			C485.201,375.207,484.619,375.705,485.672,374.645L485.672,374.645z M486.582,373.841c-0.029-0.005-0.082-0.001-0.152,0.011
			c0.066-0.017,0.133-0.034,0.199-0.049C486.613,373.816,486.597,373.828,486.582,373.841z"/>
		<path fill="#0F160D" d="M547.242,368.316c0.663-7.134,4.48-13.499,5.005-20.656c0.503-6.85-3.802-11.637-7.851-16.593
			c-0.535-0.655-1.202-1.322-1.592-2.078c-0.081-0.156-0.272-0.778-0.305-0.849c-0.34-1.38-0.559-2.796-0.779-4.198
			c-0.495-3.15-0.907-6.312-1.292-9.478c1.127-0.63,1.929-1.54,1.743-2.798c-0.747-5.046-0.808-10.15-1.902-15.144
			c-0.922-4.208-2.492-8.252-4.343-12.176c1.887-1.534,1.811-3.631,1.789-6.025c-0.052-5.545-0.331-11.291-2.048-16.609
			c-1.555-4.816-5.292-8.812-8.35-12.703c-1.454-1.85-2.662-3.748-3.625-5.897c-0.689-1.537-0.41-3.367-0.372-4.998
			c0.103-4.504-2.849-7.55-6.012-10.337c-7.153-6.303-15.684-10.825-23.895-15.56c-3.351-1.933-7.054-3.789-9.931-6.4
			c-2.73-2.478-4.535-5.643-6.259-8.853c-4.221-7.858-8.71-14.629-16.485-19.405c-1.242-0.763-2.777-1.16-4.326-1.197
			c-2.78-3.686-6.018-6.966-9.846-9.83c-6.962-5.208-14.981-8.724-22.963-12.034c-2.995-1.242-6.726-1.466-9.705,0
			c-2.363,1.163-2.645,3.682,0,4.778c6.656,2.76,13.404,5.584,19.389,9.649c6.506,4.419,11.021,10.013,14.74,16.883
			c3.616,6.68,6.747,13.292,11.855,19.005c4.322,4.835,9.38,8.952,12.673,14.627c4.097,7.062,2.359,15.052,3.709,22.723
			c1.072,6.094,4.39,9.943,8.902,13.979c5.098,4.56,10.486,8.778,15.08,13.873c2.085,2.312,3.809,4.982,5.174,7.773
			c1.769,3.616,2.175,7.7,2.533,11.658c0.696,7.692,0.38,15.44,1.922,23.046c0.338,1.668,2.106,2.681,4.266,3.135
			c-1.743,1.241-2.892,2.994-1.151,5.025c0.632,0.739,1.607,1.2,2.465,1.646c0.041,0.022,0.162,0.097,0.295,0.179
			c0.039,0.116,0.198,0.404,0.237,0.741c0.342,3.005-2.105,6.359-3.252,8.985c-1.56,3.573-2.275,7.133-1.035,10.895
			c1.163,3.527,5.101,5.455,7.939,7.369c3.259,2.198,4.683,5.042,6.501,8.418c0.073,0.135,0.166,0.251,0.252,0.374
			c1.714,8.856,2.465,17.738,2.783,26.891c0.409,11.761,3.797,23.926-0.034,35.417c-1.195,3.583-2.727,7.149-4.222,10.745
			c-2.739,3.22-5.646,6.152-7.326,10.21c-1.083,2.616-1.466,5.722-2.279,8.596c-2.713,1.782-4.279,4.375-3.224,7.82
			c0.127,0.414,0.429,0.759,0.824,1.048c-0.658,0.817-0.783,1.813,0.394,2.824c2.279,1.958,6.329,2.041,9.052,1.195
			c4.509-1.401,19.901-9.68,10.523-14.633c0.698-5.212,2.615-10.254,4.678-15.216c0.081-0.092,0.165-0.183,0.245-0.275
			c2.271-2.626,3.989-5.608,6.081-8.368c3.508-4.629,7.704-8.801,9.176-14.593c1.677-6.596-1.338-13.492-2.979-19.829
			C548.161,383.68,546.527,376.007,547.242,368.316z"/>
		<path fill="#0F160D" d="M590.787,293.354c0.372-3.238,0.556-6.509,0.463-9.768c-0.061-2.139-0.148-5.063-1.446-6.87
			c-0.458-0.638-1.243-1.177-2.199-1.588c-0.515-1.321-1.091-2.619-1.684-3.907c-1.826-3.959-3.812-7.883-5.934-11.692
			c-6.492-11.657-14.297-22.506-20.319-34.441c-1.496-2.964-2.82-5.54-5.188-7.913c-1.893-1.898-4.245-3.274-6.03-5.294
			c-2.207-2.498-4.169-4.886-6.81-6.973c-2.556-2.02-5.218-3.849-7.566-6.123c-0.754-0.73-1.862-1.131-3.065-1.315
			c-2.028-3.559-3.773-7.25-4.878-11.154c0.385-0.483,0.37-1.451-0.03-1.923c-0.273-0.323-0.602-0.607-0.968-0.857
			c-0.665-0.704-1.722-1.097-2.806-1.309c-1.21-4.461-4.685-7.725-8.281-10.452c-5.129-3.89-11.015-6.858-16.839-9.548
			c-9.727-4.491-19.869-7.913-29.977-11.417c-2.197-0.762-5.242-0.53-7.34,0.435c-0.034,0.016-0.069,0.035-0.103,0.052
			c-4.313-1.589-8.741-2.819-13.443-3.431c-10.478-1.365-21.433-2.552-32.001-2.209c-1.57,0.051-6.057,0.343-6.057,2.786
			c0,2.375,4.491,2.837,6.057,2.786c9.566-0.311,19.286,0.939,28.781,2.01c7.907,0.891,15.194,4.745,22.2,8.276
			c14.386,7.25,27.404,17.375,42.883,22.123c1.862,1.771,3.894,3.114,6.181,3.984c2.019,6.562,5.563,12.951,9.303,18.565
			c2.026,3.041,4.059,6.077,6.084,9.117c2.21,3.319,5.176,6.089,7.83,9.041c2.6,2.892,4.724,6.18,6.993,9.329
			c2.546,3.534,5.075,7.081,7.367,10.787c4.312,6.971,7.079,14.779,10.487,22.2c1.842,4.013,3.711,8.518,7.036,11.566
			c0.245,0.923,0.497,1.889,0.796,2.843c0.17,4.102,0.42,8.517,2.016,12.211c0.337,0.779,0.854,1.41,1.492,1.911
			c0.225,4.086,0.228,8.21,0.763,12.258c0.146,1.104,0.774,1.872,1.672,2.378c0.12,0.839,0.24,1.675,0.359,2.506
			c-0.137,0.273-0.177,0.569-0.095,0.887c0.321,1.246,0.566,2.507,0.732,3.77c0.022,0.172,0.044,0.344,0.066,0.516
			c0.67,5.926-0.557,11.837-5.075,16.274c-1.235,1.213-0.853,2.21,0.326,2.925c-1.539,4.079-2.279,8.397-2.658,12.818
			c-0.599,6.993-0.533,13.708-2.39,20.543c-1.466,5.398-2.822,10.63-3.241,16.219c-0.399,5.332-0.281,10.75,0.538,16.036
			c0.688,4.437,1.963,9.56,5.644,12.499c2.252,1.797,5.812,1.913,8.47,1.124c1.731-0.513,4.489-2.478,2.221-4.288
			c-2.812-2.244-3.636-7.021-4.145-10.629c-0.715-5.069-0.682-10.267-0.301-15.362c0.404-5.401,1.841-10.468,3.223-15.686
			c1.801-6.802,1.824-13.495,2.361-20.456c0.463-6.002,1.784-11.379,4.859-16.582c2.134-3.613,2.85-7.108,2.839-10.899
			c0.204-2.855-0.085-5.815-0.861-8.822c-0.002-0.008-0.006-0.015-0.008-0.023c-0.331-2.297-0.694-4.64-1.025-7.006
			c0.355-0.876,0.614-1.796,0.848-2.647C589.831,300.208,590.392,296.793,590.787,293.354z"/>
	</g>
	<g>
		<path fill="#BBDA0F" d="M317.69,469.472c-9.873-6.947-19.073-14.784-27.858-23.052c-8.781-8.265-17.324-17.013-24.889-26.418
			c-5.249-6.524-8.887-14.655-12.62-22.088c-5.119-10.192-9.908-20.55-14.645-30.924c-1.115-2.443-7.675-1.673-6.408,1.102
			c4.737,10.375,9.543,20.722,14.645,30.924c3.928,7.855,7.864,16.117,13.29,23.079c7.4,9.494,16.166,18.155,24.889,26.418
			c9.072,8.592,18.673,16.698,28.897,23.891C315.163,473.933,320.963,471.775,317.69,469.472z"/>
		<path fill="#BBDA0F" d="M361.375,487c-3.021-2.389-7.756-3.144-11.336-4.293c-5.737-1.84-11.6-3.732-16.787-6.857
			c-1.901-1.146-7.557,0.592-4.428,2.477c4.96,2.988,10.531,4.922,16.003,6.738c2.496,0.828,5.01,1.601,7.511,2.413
			c0.919,0.298,1.833,0.609,2.739,0.943c0.295,0.109,1.223,0.609,0.891,0.346c1.181,0.934,2.871,1.091,4.284,0.628
			C361.152,489.1,362.556,487.933,361.375,487z"/>
		<path fill="#BBDA0F" d="M371.293,153.467c0.812,0.125,1.674,0.077,2.458-0.18c0.558-0.182,1.191-0.507,1.466-1.064
			c0.248-0.505,0.049-1-0.322-1.372c-0.122-0.123-0.244-0.245-0.367-0.368c-0.486-0.487-1.249-0.717-1.906-0.818
			c-0.812-0.125-1.674-0.077-2.458,0.18c-0.558,0.182-1.191,0.507-1.466,1.064c-0.248,0.505-0.049,1,0.322,1.372
			c0.122,0.123,0.244,0.245,0.367,0.368C369.872,153.136,370.635,153.366,371.293,153.467z"/>
		<path fill="#BBDA0F" d="M526.232,163.775c-17.438-7.433-36.084-12.434-54.637-16.438c-0.881-0.244-1.763-0.486-2.648-0.712
			c-3.115-0.796-6.284-1.355-9.48-1.766c-13.026-2.47-26.404-4.21-39.61-3.271c-0.017-0.184-0.032-0.37-0.042-0.56
			c-0.242-4.883-14.194-4.675-13.962,0c0.081,1.636,0.596,2.908,0.725,4.393c-1.896-0.648-4.896-0.524-5.68-0.461
			c-3.136,0.252-6.404,1.501-8.932,3.468c-3.162-8.844-8.969-15.829-16.81-21.295c-3.057-2.132-6.306-3.971-9.622-5.663
			c-0.359-0.184-0.764-0.309-1.187-0.39c-2.136-1.093-4.343-2.015-6.296-2.9c-6.978-3.159-13.554-5.993-21.183-7.158
			c-3.631-0.554-7.293-0.904-10.936-1.363c-4.25-0.536-8.448-1.401-12.715-1.816c-3.191-0.31-6.342-0.115-9.53-0.249
			c-1.853-0.078-3.685-0.354-5.542-0.331c-5.734,0.07-10.777,3.055-15.309,6.291c-2.98,2.128-5.932,3.416-9.518,4.151
			c-2.803,0.575-5.624,0.86-8.415,1.521c-7.321,1.734-13.309,4.811-18.434,10.363c-4.964,5.378-8.225,12.062-12.849,17.711
			c-2.717,3.318-6.484,5.402-9.41,8.477c-3.464,3.639-5.295,8.498-6.709,13.234c-1.131,3.791-0.999,7.376-0.513,11.278
			c0.25,2.003,0.508,4.46,1.174,6.681c-0.691,0.64-1.287,1.46-1.817,2.338c-2.246-0.146-4.572,1.08-3.497,3.157
			c0.535,1.033,1.057,1.953,1.815,2.842c1.695,1.989,5.108,1.713,6.295-0.64c0.446-0.884,0.927-1.74,1.444-2.583
			c2.142,0.385,4.579-0.696,4.061-3.247c-0.219-1.078-0.706-1.889-1.349-2.462c-0.406-1.148-0.6-2.438-0.822-3.506
			c-0.56-2.694-0.799-5.491-0.833-8.239c-0.032-2.531,0.845-4.868,1.656-7.243c1.088-3.186,2.549-6.52,5.04-8.868
			c2.107-1.987,4.579-3.57,6.683-5.578c2.014-1.923,3.767-4.118,5.394-6.372c4.511-6.247,8.032-13.44,14.397-18.09
			c5.097-3.723,11.77-4.446,17.805-5.472c3.258-0.554,6.453-1.576,9.381-3.107c3.352-1.753,6.128-4.366,9.559-6.015
			c3.586-1.724,6.95-1.073,10.77-0.911c3.405,0.144,6.735-0.059,10.141,0.371c4.267,0.538,8.498,1.313,12.767,1.84
			c7.345,0.907,14.495,1.719,21.33,4.749c3.746,1.661,7.692,3.286,11.235,5.343c2.63,1.527,5.81,2.475,6.999,5.532
			c0.693,1.781,3.106,2.223,4.867,1.657c2.163,3.016,4.105,6.515,5.863,9.366c2.798,4.538,6.452,9.653,7.784,14.896
			c0.331,1.305,1.864,1.778,3.251,1.569c0.244,0.83,0.606,1.568,1.234,1.876c0.663,0.325,1.4,0.512,2.137,0.612
			c-0.177,0.274-0.345,0.557-0.498,0.853c-0.375,0.721-0.647,1.482-0.928,2.238c-1.35-1.282-2.613-2.651-4.146-3.737
			c-1.999-1.417-4.257-2.276-6.619-2.691c0.762-0.239,1.522-0.476,2.279-0.714c1.018-0.32,2.174-1.392,1.122-2.397
			c-1.066-1.019-2.961-1.043-4.28-0.628c-4.943,1.554-9.915,3.134-14.595,5.382c-2.764,1.327-5.407,2.827-8.253,3.99
			c-2.367,0.968-4.536,2.631-6.817,3.798c-2.858,1.463-5.845,2.656-8.74,4.04c-2.419,1.156-4.768,2.58-6.496,4.66
			c-1.876,2.258-2.897,5.474-5.415,7.136c-3.061,2.019,2.558,3.709,4.424,2.477c2.246-1.482,3.628-3.495,5.023-5.755
			c1.113-1.803,2.316-3.118,3.824-4.227c-1.875,2.025-3.525,4.253-4.846,6.722c-1.622,3.032,5.371,4.039,6.84,1.293
			c3.2-5.983,8.881-10.226,14.648-13.545c4.6-2.647,10.132-5.098,15.511-5.845c0.308,0.042,0.602,0.072,0.881,0.094
			c0.02,0.041,0.111,0.137,0.391,0.355c1.12,0.872,2.101,1.931,3.112,2.921c2.739,2.68,5.841,4.397,9.619,5.124
			c3.763,0.724,8.366,0.434,11.782-1.424c2.391-1.301,3.534-3.306,4.439-5.762c0.32-0.867,0.68-1.7,1.15-2.498
			c0.141-0.24,0.181-0.332,0.188-0.363c0.02-0.001,0.098-0.045,0.348-0.279c0.083-0.077,0.135-0.134,0.174-0.18
			c0.089-0.004,0.236-0.029,0.476-0.092c0.883-0.233,1.777-0.496,2.662-0.797c-0.05,0.124-0.106,0.245-0.145,0.375
			c-0.744,2.456,1.243,4.39,3.03,5.716c2.595,1.927,8.34-0.998,4.89-3.56c-1.584-1.177-1.247-1.322,0.141-2.607
			c1.906-1.765,3.623-3.452,4.762-5.826c0.983-2.049,1.18-4.052,0.804-5.903c6.022,0.132,12.044,0.342,18.06,0.627
			c5.696,0.269,9.285,0.464,14.87,1.052c0.329,0.035,0.658,0.072,0.986,0.11c3.005,0.554,5.975,1.151,8.936,1.792
			c18.192,5.047,35.686,12.595,53.401,19.05c2.67,0.973,5.349,1.966,8.087,2.736c2.962,0.834,9.452,1.931,11.106-1.617
			C539.805,168.88,528.593,164.781,526.232,163.775z M526.037,172.81C526.046,172.834,526.046,172.838,526.037,172.81
			L526.037,172.81z"/>
		<path fill="#BBDA0F" d="M580.967,211.881c-1.328-1.929-7.165-1.086-5.756,0.96c20.949,30.422,27.087,68.968,27.141,105.209
			c0.004,2.476,5.974,2.475,5.97,0C608.267,281.559,602.062,242.513,580.967,211.881z"/>
		<path fill="#BBDA0F" d="M521.574,352.942c-2.731-1.45-5.298-3.231-6.889-5.946c-2.201-3.754-1.536-8.124-0.814-12.18
			c0.836-4.702,0.642-9.122,0.474-13.855c-0.203-5.714-1.292-11.352-2.303-16.968c-1.116-6.204-1.444-12.406-2.135-18.659
			c-0.785-7.112-2.85-13.039-8.189-18.013c-5.089-4.742-11.304-8.058-16.496-12.664c-3.887-3.448-5.807-7.443-5.379-12.682
			c0.269-3.291,0.745-6.162,0.198-9.479c-0.564-3.422-1.844-6.688-3.166-9.876c-0.945-2.278-6.867-1.596-5.783,1.017
			c1.571,3.787,2.965,7.579,3.303,11.696c0.315,3.819-1.02,7.456-0.402,11.291c0.938,5.816,5.543,9.806,9.987,13.183
			c5.667,4.307,12.648,7.941,16.596,14.07c3.805,5.906,3.504,13.607,4.076,20.348c0.552,6.509,2.056,12.888,3.003,19.343
			c0.63,4.292,0.735,8.551,0.888,12.878c0.221,6.225-2.19,12.241-0.861,18.425c1.383,6.433,7.603,9.821,12.992,12.472
			c2.491,1.225,4.378,2.255,5.215,5.047c0.743,2.479-0.153,5.482-0.736,7.884c-1.16,4.778-1.731,10.267-0.688,15.127
			c0.502,2.338,6.395,1.83,5.783-1.017c-1.383-6.441,1.302-12.775,1.809-19.092c0.215-2.68-0.552-5.181-2.17-7.3
			C527.959,355.466,524.281,354.379,521.574,352.942z"/>
		<path fill="#BBDA0F" d="M465.554,355.467c-1.749-4.78-6.177-7.765-9.595-11.281c-1.87-1.923-3.499-4.047-4.992-6.272
			c-1.771-2.636-3.771-5.468-3.623-8.758c0.109-2.423,1.538-4.872,2.465-7.06c1.095-2.584,1.822-5.268,1.878-8.086
			c0.264-13.132-9.977-23.852-18.985-32.026c-4.178-3.79-8.013-7.973-8.906-13.766c-0.881-5.717,0.519-11.745,1.368-17.382
			c0.523-3.475-6.425-3.555-6.961,0c-0.832,5.523-1.987,11.153-1.445,16.761c0.526,5.443,3.147,10.134,6.749,14.15
			c4.356,4.857,9.61,8.714,13.736,13.839c4.255,5.284,7.231,11.566,7.483,18.424c0.187,5.083-3.455,9.601-4.278,14.542
			c-0.942,5.66,3.967,11.756,7.273,15.857c3.134,3.888,7.596,6.751,10.351,10.909c3.06,4.619,2.115,11.935,2.622,17.178
			c0.347,3.587,7.302,3.536,6.961,0C467.113,366.883,467.52,360.837,465.554,355.467z"/>
		<path fill="#BBDA0F" d="M498.753,362.263c-3.065-0.224-6.273-0.429-9.229-1.331c-2.541-0.775-3.642-1.782-2.371-4.358
			c1.585-3.213-5.466-4.24-6.895-1.343c-3.104,6.292,2.098,9.231,8.04,10.67c-4.727,3.295-7.997,8.526-8.994,14.523
			c-1.399,8.408,1.849,16.427,8.456,21.244c-5.328,3.473-10.057,8.237-11.154,14.712c-1.162,6.861,2.114,13.726,4.512,19.998
			c2.323,6.074,4.299,12.173,4.638,18.714c0.474,9.151-2.424,18.001-6.231,26.201c-1.518,3.27,5.533,4.277,6.895,1.343
			c3.634-7.827,6.276-16.132,6.519-24.815c0.182-6.494-1.373-12.891-3.513-18.976c-2.047-5.82-5.168-11.727-5.879-17.911
			c-0.956-8.315,5.671-13.849,12.23-17.478c1.974-1.092,0.792-3.253-0.724-3.967c-13.788-6.494-11.006-30.583,4.651-32.266
			c1.191-0.128,2.625-1.128,2.625-2.436C502.328,362.96,500.188,362.367,498.753,362.263z"/>
		<path fill="#BBDA0F" d="M369.054,276.527c0.414-2.8-5.483-2.891-5.911,0c-1.75,11.825,1.844,24.103,4.441,35.546
			c1.307,5.758,2.595,11.546,3.072,17.442c0.343,4.246,0.318,9.14-2.167,12.802c-1.915,2.821,3.571,4.449,5.104,2.19
			c5.905-8.698,2.405-21.259,0.349-30.649C371.299,301.79,367.208,288.999,369.054,276.527z"/>
		<path fill="#BBDA0F" d="M371.843,254.452c1.045-7.558,1.18-15.25,1.102-22.868c-0.078-7.62-0.401-15.361-1.788-22.869
			c-0.607-3.283-7.636-3.112-7.061,0c1.389,7.516,1.683,15.243,1.788,22.869c0.105,7.613-0.058,15.317-1.102,22.868
			C364.343,257.631,371.386,257.762,371.843,254.452z"/>
		<path fill="#BBDA0F" d="M406.561,364.81c-0.672-6.064-0.224-12.203-0.804-18.281c-1.342-14.055-10.473-25.267-14.764-38.358
			c-0.707-2.157-7.749-1.729-6.876,0.934c4.41,13.451,13.453,24.642,14.663,39.133c0.48,5.748,0.093,11.536,0.729,17.274
			c0.712,6.43,3.342,12.2,7.178,17.359c1.445,1.942,8.292,0.97,6.876-0.934C409.716,376.765,407.272,371.236,406.561,364.81z"/>
		<path fill="#BBDA0F" d="M333.209,444.224c0.793-0.225,2.228-1.16,1.087-2.006c-7.305-5.417-13.439-13.446-15.405-22.448
			c-1.003-4.592-0.61-9.662,0.084-14.265c0.761-5.046,2.848-9.565,1.314-14.683c-0.539-1.799-6.522-1.486-5.842,0.78
			c1.543,5.15-1.154,10.784-1.81,15.908c-0.598,4.672-0.61,9.719,0.687,14.275c2.492,8.757,8.478,16.526,15.742,21.913
			C330.195,444.537,331.896,444.596,333.209,444.224z"/>
		<path fill="#BBDA0F" d="M268.967,308.785c0.997,3.593,2.734,6.954,4.466,10.236c1.412,2.676,3.272,5.519,3.888,8.525
			c0.572,2.793,6.903,2.576,6.375,0c-1.265-6.17-5.466-11.459-7.724-17.292c-3.459-8.933-1.222-17.149,5.337-23.974
			c2.337-2.432-3.737-3.914-5.504-2.074C269.141,291.139,266.37,299.421,268.967,308.785z"/>
		<path fill="#BBDA0F" d="M276.08,235.419c-3.596,0-3.596,3.861,0,3.861C279.676,239.28,279.676,235.419,276.08,235.419z"/>
		<path fill="#BBDA0F" d="M309.109,175.335c0.988,0,2.208-0.37,2.866-1.161c0.434-0.385,0.748-0.908,0.748-1.506
			c0-0.701-0.429-1.299-0.978-1.692c-0.629-0.451-1.581-0.774-2.361-0.701c-0.319,0.03-0.638,0.06-0.956,0.092
			c-0.286,0.083-0.57,0.169-0.854,0.259c-0.543,0.17-0.88,0.547-1.278,0.917c-0.336,0.312-0.513,0.964-0.527,1.4
			c-0.022,0.692,0.445,1.31,0.978,1.691C307.427,175.121,308.283,175.335,309.109,175.335z"/>
	</g>
	<path d="M611.406,279.326c-5.314-27.783-19.191-54.182-36.984-75.952c-24.946-30.52-59.473-51.438-97.768-60.411
		c-25.245-5.915-51.507-6.444-77.215-3.767c-1.878,0.196,0.283,3.365,0.685,3.839c1.15,1.356,3.01,2.975,4.924,2.776
		c45.207-4.707,92.627,1.647,130.984,27.45c26.614,17.903,46.915,43.587,59.478,73.362c4.546,10.774,8.029,21.949,9.749,33.591
		c1.483,10.037,1.021,20.217,0.43,30.645c-1.711,30.24-8.813,60.482-23.58,87.098c-1.16,2.092-2.369,4.144-3.617,6.166
		c-4.178-4.847-7.12-9.498-5.085-16.37c0.569-1.128,1.417-2.05,1.999-3.208c0.796-1.584,1.615-3.156,2.424-4.732
		c1.508-2.937,2.952-5.901,4.053-9.017c0.969-2.747,1.471-5.608,1.739-8.5c0.359-3.873-0.309-7.746,0.246-11.606
		c0.788-5.483,3.96-10.056,6.371-14.906c2.799-5.631,3.447-11.118,1.33-17.064c-1.233-3.462-2.834-6.786-3.186-10.492
		c-0.366-3.842,2.012-8.418,3.075-12.045c1.982-6.769,1.015-14.216-1.119-20.831c-2.154-6.673-5.958-12.713-10.061-18.34
		c-4.786-6.565-9.248-13.327-13.381-20.33c-1.868-3.165-3.62-6.397-5.29-9.671c-1.674-3.283-2.99-6.799-5.051-9.867
		c-3.207-4.773-7.696-8.181-12.488-11.243c-4.798-3.066-9.771-5.982-12.868-10.934c-2.22-3.55-2.211-7.99-4.769-11.375
		c-1.469-1.944-3.53-3.447-5.455-4.898c-2.932-2.211-5.901-4.313-9.027-6.245c-6.678-4.129-13.802-7.553-21.093-10.445
		c-7.819-3.101-15.834-5.676-23.57-8.987c-2.045-0.875-4.207-2.397-6.393-2.812c-1.346-0.255-2.698-0.48-4.051-0.697
		c-13.92-2.241-28.191-3.412-42.288-2.917c-1.222,0.043-6.369-0.152-7.58,1.571c-0.774-0.207-1.555-0.334-2.318-0.357
		c-2.269-0.069-4.386,1.006-6.663,0.748c-1.131-0.128-2.123-1.06-2.915-1.797c-2.536-2.363-4.446-5.473-6.275-8.381
		c-3.566-5.669-8.058-10.539-13.459-14.502c-9.659-7.089-21.54-9.85-33.072-12.161c-13.291-2.663-26.459-7.314-40.107-7.576
		c-7.178-0.138-14.23,1.432-20.728,4.45c-6.209,2.885-12.447,5.591-18.756,8.252c-11.969,5.047-22.117,12.584-30.474,22.525
		c-4.263,5.071-8.04,10.584-11.215,16.398c-2.45,4.487-4.747,9.367-5.348,14.5c-0.28,2.388,0.188,4.633,0.621,6.978
		c0.335,1.809,1.045,3.941,0.579,5.78c-0.434,1.71-2.119,3.251-3.189,4.572c-1.482,1.828-1.79,3.977-0.927,6.151
		c2.34,5.895,14.263,13.155,17.77,4.375c1.528-3.826-0.065-8.844-0.953-12.631c-1.195-5.094-1.383-9.981-0.668-15.204
		c0.385-2.813,1.512-5.473,3.568-7.471c1.547-1.504,3.842-2.254,5.533-3.634c5.457-4.452,8.76-11.404,12.532-17.202
		c1.797-2.761,3.774-5.391,6.134-7.698c2.858-2.791,6.794-4.116,10.622-4.891c3.264-0.661,6.624-0.831,9.92-1.303
		c3.552-0.508,6.889-1.676,10.103-3.253c3.983-1.954,6.446-5.677,10.206-7.788c2.162-1.214,4.703-1.302,7.117-1.244
		c4.423,0.106,8.902,0.735,13.287,1.293c14.538,1.851,29.564,4.886,42.672,11.691c9.62,4.994,17.203,12.552,21.284,22.25
		c-0.502-0.08-1.005-0.153-1.509-0.215c0.835-0.745-0.862-3.222-1.214-3.636c-1.151-1.357-3.009-2.973-4.924-2.776
		c-17.58,1.809-35.266,7.82-51.316,14.914c-35.335,15.619-65.389,41.611-83.664,75.881c-20.813,39.027-25.728,84.712-14.061,127.307
		c11.36,41.479,37.527,78.397,72.627,103.187c39.529,27.917,88.238,37.822,135.906,31.833c47.033-5.909,95.126-24.393,128.86-58.581
		c6.807-6.898,12.888-14.382,18.268-22.321c1.185-1.008,1.84-2.079,2.096-3.18c12.448-19.318,20.862-41.163,25.477-63.784
		c2.704-13.25,4.122-26.747,4.573-40.257C613.314,299.312,613.307,289.273,611.406,279.326z M415.652,150.218
		c4.421-0.254,8.876-0.147,13.298-0.007c11.079,0.35,22.242,1.446,33.141,3.513c0.842,0.159,1.755,0.852,2.535,1.218
		c1.84,0.862,3.714,1.651,5.593,2.423c4.039,1.661,8.156,3.131,12.259,4.623c7.983,2.904,15.627,6.16,23.198,10.005
		c6.076,3.087,12.235,7.013,17.27,11.632c1.177,1.08,1.728,2.269,2.174,3.772c0.714,2.404,1.516,4.726,2.535,7.022
		c4.705,10.599,18.147,13.366,25.055,21.948c2.158,2.681,3.373,5.969,4.872,9.031c1.762,3.599,3.678,7.119,5.683,10.588
		c3.912,6.771,8.062,13.715,12.844,19.908c4.574,5.923,8.622,12.289,10.933,19.451c1.128,3.498,1.645,7.126,1.736,10.791
		c0.105,4.186-1.011,7.926-2.27,11.863c-1.37,4.283-2.258,7.963-1.173,12.39c1.049,4.279,3.51,8.162,3.982,12.588
		c0.713,6.687-4.45,13.034-7.078,18.753c-3.44,7.484-1.322,15.316-2.982,23.112c-0.773,3.631-2.324,7.047-3.954,10.359
		c-0.868,1.764-1.784,3.505-2.682,5.253c-0.81,1.577-1.829,2.98-2.645,4.507c-0.08,0.092-0.149,0.202-0.193,0.349
		c-0.053,0.105-0.079,0.218-0.091,0.334c-2.314,8.34,1.803,14.573,7.197,20.592c0.051,0.057,0.105,0.116,0.158,0.174
		c-2.27,3.539-4.668,6.973-7.192,10.292c-1.023-0.509-1.495-2.141-1.924-3.69c-0.917-3.316-1.017-6.875-1.046-10.293
		c-0.065-7.499,0.773-15.019,1.857-22.429c0.294-2.008,0.615-4.012,0.972-6.009c0.141-0.786,0.121-1.532,0.108-2.341
		c-0.057-3.456,0.242-6.921,0.656-10.347c1.697-14.044,5.545-27.731,7.119-41.798c0.702-6.274,1.021-12.91-0.298-19.128
		c-1.642-7.737-4.175-15.189-7.244-22.47c-2.898-6.879-6.231-13.562-9.443-20.296c-3.346-7.014-6.032-14.243-9.113-21.36
		c-1.986-4.589-4.568-8.575-8.17-12.049c-4.063-3.917-8.563-7.437-11.885-12.059c-3.591-4.997-3.991-11.849-6.543-17.37
		c-2.673-5.781-8.013-9.144-13.694-11.515c-6.256-2.61-12.979-3.947-19.018-7.096c-3.26-1.7-6.032-4.411-9.02-6.534
		c-3.288-2.336-6.747-4.412-10.278-6.355c-11.509-6.334-24.306-10.182-37.294-11.931c-7.595-1.023-15.171-0.881-22.788-1.349
		C413.917,150.205,415.078,150.25,415.652,150.218z M447.667,170.276c5.071,4.996,11.197,8.746,16.918,12.927
		c2.665,1.948,5.72,4.109,7.503,6.941c1.676,2.662,2.375,5.746,3.513,8.642c2.361,6.005,7.586,10.018,12.749,13.569
		c5.802,3.99,12.095,7.221,18.102,10.881c5.329,3.246,12.788,7.567,15.283,13.629c0.661,1.607,0.343,3.319,0.355,5.001
		c0.019,2.522,1.163,4.852,2.564,6.881c1.884,2.729,4.161,5.106,6.385,7.553c2.247,2.473,4.692,5.289,4.878,8.77
		c0.338,6.324-2.478,12.605-0.852,18.904c0.821,3.18,1.969,6.268,2.92,9.41c1.145,3.787,1.191,7.457,1.719,11.316
		c0.947,6.924-2.177,13.609,0.456,20.437c2.17,5.63,8.04,9.008,9.882,14.708c2.031,6.285-0.555,14.071-1.856,20.256
		c-0.688,3.277-1.289,6.564-1.666,9.894c-0.437,3.866,0.069,7.481,0.458,11.318c0.375,3.702,0.542,7.421,1.063,11.108
		c0.37,2.627,1.493,4.938,2.523,7.362c0.991,2.333,2.242,4.864,2.576,7.402c0.156,1.181-0.804,2.926-1.231,3.995
		c-0.67,1.672-1.545,3.265-2.473,4.803c-3.403,5.644-7.853,10.61-11.678,15.961c-2.353,3.293-4.45,6.767-6.148,10.443
		c-1.016,2.198-2.003,4.754-0.874,7.105c0.572,1.191,1.369,2.006,2.299,2.587c-5.321,3.781-10.855,7.286-16.566,10.515
		c-0.284-1.706-0.576-3.41-0.773-5.106c-0.284-2.451,0.841-4.823,1.757-7.062c1.34-3.273,3.079-6.38,4.799-9.464
		c3.453-6.188,7.015-12.334,8.897-19.219c2.157-7.892,1.875-16.473,1.699-24.571c-0.091-4.189-0.188-8.375-0.074-12.564
		c0.113-4.195,0.906-8.227,1.513-12.362c0.918-6.265,0.512-12.583-4.214-17.304c-1.823-1.82-3.997-2.927-6.427-3.719
		c-3.417-1.115-5.527-2.019-7.286-5.356c-1.291-2.45-0.667-4.832,0.242-7.262c1.064-2.849,1.802-5.588,1.872-8.648
		c0.14-6.138-1.401-11.93-2.759-17.86c-1.629-7.112-0.873-14.839-1.313-22.083c-0.405-6.661-1.523-13.956-5.261-19.645
		c-3.523-5.361-9.044-8.397-14.593-11.279c-2.777-1.443-5.33-2.929-7.629-5.068c-1.583-1.475-3.696-3.05-4.766-4.98
		c-0.121-0.218,0.229-1.13,0.472-1.761c0.629-1.631,0.913-3.316,1.035-5.056c0.839-12.037-6.277-21.876-14.301-29.901
		c-4.717-4.717-9.205-9.09-12.556-14.876c-3.368-5.816-6.341-11.845-9.912-17.545c-6.814-10.878-16.066-20.371-28.54-22.952
		c3.269-0.039,7.075,1.419,9.985,1.981c3.039,0.586,6.007,1.19,8.792,2.589C441.168,163.554,444.518,167.122,447.667,170.276z
		 M370.487,131.278c-9.741-7.825-21.984-12.286-34.016-15.118c-8.436-1.986-16.996-3.432-25.607-4.392
		c-5.615-0.626-12.78-2.162-17.921,1.033c-1.526,0.949-2.771,2.224-4.067,3.455c-2.019,1.917-4.244,3.391-6.779,4.546
		c-6.494,2.958-13.442,2.686-20.269,4.249c-15.004,3.437-18.029,20.709-28.376,29.9c-1.558,1.383-3.518,2.1-5.177,3.332
		c-2.123,1.577-3.453,4.57-4.064,7.057c-1.201,4.892-1.203,10.697-0.135,15.621c0.889,4.098,2.563,8.651,1.722,12.878
		c-0.369,1.857-1.597,2.938-3.368,3.436c-0.405,0.113-1.996-0.026-0.644,0.515c-0.128-0.051-0.254-0.107-0.381-0.162
		c-0.623-0.271-1.256-0.569-1.839-0.918c-1.317-0.788-2.594-1.567-2.249-3.269c0.425-2.098,2.856-3.815,3.899-5.685
		c2.022-3.623-0.279-8.472-0.643-12.242c-0.456-4.707,2.122-9.88,4.141-13.956c2.96-5.975,6.839-11.529,11.002-16.72
		c8.304-10.356,18.564-18.107,30.763-23.309c6.297-2.686,12.599-5.247,18.756-8.252c6.713-3.277,14.033-4.532,21.459-4.276
		c7.796,0.269,15.466,2.215,22.984,4.149c5.621,1.446,11.29,2.574,16.974,3.736c11.733,2.399,23.56,5.646,32.372,14.225
		c4.996,4.863,7.788,11.431,12.512,16.534c2.614,2.824,5.856,5.499,9.85,5.779c2.265,0.159,4.396-0.933,6.657-0.771
		c0.436,0.031,0.855,0.181,1.249,0.362c0.125,0.057,0.344,0.223,0.542,0.375c-0.004,0.059-0.013,0.124-0.029,0.198
		c-0.135,0.622-0.54,1.113-0.943,1.586c-2.281,2.67-6.095,4.078-9.345,5.086c-2.943,0.911-7.21,1.982-10.221,0.773
		c-0.031-0.012-0.055-0.023-0.081-0.033c-0.005-0.008-0.009-0.016-0.014-0.024C386.637,148.922,380.048,138.959,370.487,131.278z
		 M425.742,204.859c1.795,1.736,3.702,3.347,5.471,5.111c2.755,2.748,4.8,5.969,6.666,9.364c4.859,8.841,6.402,18.212,8.263,27.933
		c2.027,10.588,7.267,19.753,15.76,26.484c3.008,2.384,6.277,4.238,9.04,6.949c2.463,2.416,4.272,5.407,5.388,8.658
		c1.791,5.216,1.253,10.934,0.453,16.279c-1.663,11.097-1.303,22.197,0.826,33.234c0.688,3.565,1.441,7.789,3.781,10.703
		c2.049,2.551-3.064,7.028-3.025,10.101c0.061,4.798,7.747,6.704,11.254,7.606c1.155,0.298,2.326,0.555,3.507,0.784
		c-3.464,1.293-6.659,3.312-8.806,6.195c-3.294,4.422-2.276,10.222-1.474,15.279c0.694,4.371,1.969,9.087,5.418,12.111
		c1.285,1.127,2.844,1.854,4.508,2.207c0.106,0.023,0.213,0.037,0.32,0.054c-2.061,2.618-4.641,4.838-6.665,7.505
		c-2.613,3.441-4.537,7.468-4.341,11.87c0.094,2.124,1.021,3.98,1.647,5.967c0.723,2.293,0.94,4.737,1.071,7.125
		c0.72,13.076-2.667,26.051-4.573,38.892c-0.175,1.183-0.376,2.409-0.42,3.623c-6.723,2.32-13.558,4.379-20.474,6.149
		c-0.782,0.168-1.565,0.33-2.349,0.491c3.045-2.139,6.011-4.387,8.806-6.846c5.802-5.102,12.382-12.452,11.029-20.815
		c-0.34-2.104-1.272-3.949-2.313-5.781c-2.149-3.778-3.841-7.788-5.089-11.947c-1.83-6.102-2.212-12.577-1.209-18.858
		c0.711-4.453,2.732-8.423,3.702-12.76c0.986-4.407,0.429-9.222-0.045-13.654c-1.175-10.981-3.989-21.846-4.409-32.901
		c-0.15-3.957,0.078-6.892-2.259-10.345c-2.426-3.584-5.795-6.428-8.901-9.399c-2.891-2.765-6.254-5.999-6.437-10.252
		c-0.097-2.266,1.099-4.286,2.326-6.082c1.358-1.987,2.082-4.312,2.398-6.678c1.413-10.592-5.437-21.565-11.802-29.397
		c-3.173-3.906-6.829-7.543-10.999-10.38c-2.452-1.667-4.565-2.961-5.736-5.844c-1.195-2.941-1.051-6.359-0.698-9.449
		c0.748-6.571,2.95-12.922,4.361-19.364c0.761-3.476-0.211-6.845-1.935-9.87c-2.048-3.596-5.004-6.642-7.702-9.744
		c-3.315-3.81-6.377-7.777-8.576-12.347c-3.01-6.255-2.827-12.853-3.604-19.582c-0.704-6.1-2.194-12.138-4.488-17.834
		c-1.302-3.233-2.892-6.543-4.944-9.456c1.526-0.182,3.016-0.488,4.376-0.866c1.061-0.295,2.372-0.729,3.73-1.291
		c1.762,0.966,3.449,2.076,5.074,3.246c3.768,2.714,7.324,6.188,9.107,10.55c2.27,5.555-0.806,10.473-0.849,16.064
		C419.87,198.21,422.619,201.839,425.742,204.859z M413.694,492.218c-1.091-6.934-0.327-14.489,0.474-21.166
		c0.703-5.853,0.847-10.77-1.438-16.323c-1.906-4.635-4.998-8.725-8.097-12.616c-2.58-3.241-5.684-6.409-7.334-10.262
		c-0.594-1.388-0.689-2.835-0.26-4.277c0.609-2.047,0.87-3.844,0.7-5.993c-0.682-8.651-6.068-17.29-10.782-24.341
		c-0.146-0.219-0.298-0.434-0.447-0.652c0-3.512,0-7.022,0-10.533c0-2.821,0-5.644,0-8.466c0-2.119,0.201-4.266-0.457-6.308
		c-1.389-4.31-4.498-8.026-7.102-11.654c-1.974-2.748-5.958-7.176-4.758-10.878c0.465-1.436,2.43-2.191,3.311-3.392
		c1.229-1.676,1.695-3.875,1.98-5.885c0.796-5.616-0.115-11.545-0.994-17.091c-0.983-6.205-2.372-12.338-3.611-18.495
		c-1.546-7.687-3.602-15.384-3.791-23.264c-0.189-7.872,2.528-15.222,3.5-22.946c0.964-7.658,0.764-15.448,0.396-23.14
		c-0.182-3.799-0.449-7.593-0.709-11.387c-0.241-3.52-0.267-7.076-1.247-10.488c-1.285-4.472-4.207-8.231-7.776-11.136
		c-1.297-1.057-2.677-1.988-4.061-2.927c-0.234-0.158-0.606-0.42-0.887-0.626c0.039-0.121,0.115-0.423,0.397-0.995
		c3.289-6.682,7.193-13.067,11.663-19.023c4.074-5.427,8.783-10.751,14.256-14.877c0.059,0.059,0.12,0.114,0.18,0.17
		c-2.659,2.492-4.124,6.11-5.197,9.558c-1.886,6.055-2.546,12.5-3.224,18.778c-0.749,6.929-1.399,13.855-2.356,20.758
		c-0.62,4.467-0.281,9.286,2.427,13.044c1.879,2.606,4.489,4.228,7.253,5.744c0.117,0.064,0.315,0.187,0.481,0.287
		c-0.001,0.025-0.001,0.044-0.002,0.075c-0.057,1.732-1.181,3.663-1.561,5.373c-1.128,5.078-1.401,10.381-1.601,15.565
		c-0.078,2.03-0.358,4.113,0.279,6.054c3.059,9.331,5.494,19.867,4.286,29.705c-0.377,3.074-1.514,5.959-1.83,9.055
		c-0.373,3.644,0.194,7.347,1.098,10.869c2.016,7.855,6.152,15.085,9.762,22.282c6.965,13.887-0.583,29.714,5.14,43.833
		c1.777,4.383,5.114,7.981,8.703,10.961c0.803,0.667,1.903,1.454,2.621,2.147c-0.043,0.063-0.116,0.161-0.251,0.29
		c-0.56,0.535-1.428,0.696-2.096,1.055c-3.074,1.654-2.787,6.169-2.616,9.106c0.275,4.74,1.382,9.412,1.404,14.171
		c0.008,1.758-0.157,3.686-1.038,5.244c-0.678,1.198-1.883,1.771-2.492,3.057c-1.386,2.931-0.224,7.138,0.543,10.063
		c2.319,8.85,6.539,17.543,11.423,25.253c2.489,3.929,6.008,6.657,8.915,10.252c3.653,4.516,5.773,10.257,5.464,16.081
		c-0.109,2.058-0.571,4.102-1.285,6.031c-0.184,0.497-0.394,0.986-0.638,1.457c-0.08,0.155-0.095,0.226-0.091,0.261
		c-0.018,0.002-0.038,0.006-0.07,0.017c-1.832,0.63-3.7,1.169-5.586,1.655C421.012,491.716,417.354,492.011,413.694,492.218z
		 M333.83,237.368c3.493,4.385,8.628,7.076,9.653,12.972c-0.898,0.926-1.561,4.56-1.816,5.357c-0.971,3.034-1.931,6.082-2.747,9.163
		c-0.539,2.035-2.054,3.863-3.137,5.692c-0.896,1.514-1.794,3.026-2.729,4.515c-0.224,0.355-1.296,1.891-1.517,2.314
		c-0.328-0.123-0.57-0.098-0.601,0.192c-0.643,5.955,2.212,10.404,7.906,12.325c5.871,1.982,12.578,1.864,17.374,6.025
		c-8.036,1.552-21.802,5.029-15.771,15.594c1.25,2.19,2.379,4.829,1.63,7.369c-0.487,1.653-2.302,2.7-3.667,3.534
		c-1.372,0.839-2.73,1.648-3.739,2.929c-1.523,1.933-1.457,5.26-1.866,7.581c-0.572,3.254-1.119,6.512-1.526,9.791
		c-0.395,3.18-0.074,6.018,0.09,9.198c0.316,6.125-0.483,13.079,2.923,18.481c1.453,2.305,3.395,4.269,4.974,6.484
		c0.948,1.329,1.58,2.769,1.998,4.339c0.784,2.938-0.672,2.58-2.86,3.284c-4.298,1.382-3.738,5.715-2.504,9.142
		c1.185,3.292,3.08,6.332,3.934,9.739c0.902,3.599,5.326,5.464,5.003,9.346c-0.266,3.202-6.213,2.671-8.57,3.374
		c-3.352,0.998-3.866,5.759-4.027,8.758c-0.315,5.832,4.558,9.564,9.53,11.36c5.743,2.075,12.046,2.742,17.457,5.586
		c-1.657,0.381-3.277,0.786-4.344,2.314c-2.653,3.796,0.785,10.98,2.766,14.248c3.316,5.469,7.626,10.216,11.672,15.14
		c4.499,5.475,8.319,11.328,10.84,17.926c-3.202-0.342-6.395-0.762-9.576-1.267c-1.761-0.498-3.519-1.009-5.264-1.56
		c-0.889-0.281-1.772-0.579-2.647-0.897c-0.34-0.124-0.674-0.258-1.007-0.395c-0.161-0.066-0.264-0.101-0.329-0.118
		c0.003-0.03-0.02-0.088-0.1-0.197c-1.811-2.471-4.517-8.856-2.905-11.891c0.575-1.083,6.083,1.83,5.008-0.799
		c-1.171-2.863-5.012-5.218-7.217-7.192c-4.43-3.966-8.621-8.142-11.744-13.238c-3.123-5.097-8.451-7.777-13.36-10.841
		c-3.541-2.211-5.468-5.017-7.174-8.782c-1.665-3.675-2.549-7.699-2.914-11.703c-0.663-7.264,0.652-14.617,1.947-21.737
		c0.944-5.191,1.883-10.669-0.399-15.649c-1.314-2.869-3.796-4.69-5.863-6.951c-1.197-1.309-1.61-2.941-1.592-4.684
		c0.044-4.275,0.712-8.526,1.079-12.778c0.454-5.257,0.779-12.753-2.574-17.244c-1.712-2.293-4.165-3.363-6.7-4.47
		c-0.101-0.044-0.196-0.1-0.281-0.156c0.009-0.266,0.031-0.709,0.074-0.935c0.423-2.242,2.272-4.358,3.614-6.102
		c1.932-2.51,4.41-4.598,5.372-7.692c1.007-3.235,0.231-7.017-0.043-10.308c-0.303-3.626-0.119-7.315-0.215-10.953
		c-0.115-4.29-0.202-8.577,0.109-12.861c0.268-3.699,0.976-7.105,2.729-10.39c1.663-3.118,3.785-5.962,5.386-9.119
		c2.512-4.956,1.659-9.068-1.261-13.53c-2.863-4.375-6.917-7.965-10.714-11.503c-3.695-3.443-7.942-6.958-10.113-11.626
		c-1.744-3.749-0.275-7.109,2.126-10.06c6.292-7.734,14.904-13.668,22.551-19.963c1.961-1.614,3.888-2.933,4.705-5.421
		c0.633-1.923,0.622-4.063,1.005-6.045c0.283-1.464,0.616-2.431,2.037-2.976c1.105-0.424,2.427-0.37,3.588-0.382
		c0.563-0.006,1.225,0.027,1.891,0.009c-1.094,6.794-1.167,13.624-3.224,20.281c-0.915,2.962-1.872,5.915-2.798,8.873
		c-0.695,2.219-2.181,4.013-2.977,6.166C328.786,228.696,331.124,233.971,333.83,237.368z M279.769,281.666
		c-10.052,0.458-14.151,13.942-13.945,22.414c0.143,5.877,3.282,10.816,6.172,15.703c2.956,4.999,4.002,10.102,4.364,15.826
		c0.383,6.057,0.348,12.221-0.229,18.264c-0.336,3.522-0.344,7.082-0.686,10.615c-0.337,3.473-0.553,6.931-0.309,10.417
		c0.551,7.88,3.839,15.806,6.095,23.326c2.385,7.952,4.896,15.868,7.792,23.651c4.027,10.825,9.391,20.581,18.34,28.108
		c1.865,1.569,3.719,3.126,5.704,4.544c1.072,0.766,2.158,1.512,3.23,2.278c0.404,0.291,0.805,0.587,1.202,0.889
		c0.001,0,0.973,0.977,0.931,0.787c1.001,1.672,1.027,4.296,1.521,6.142c0.72,2.691,2.401,4.977,4.435,6.825
		c0.399,0.362,0.971,0.804,1.565,1.006c0.51,0.746,0.971,1.525,1.431,2.301c0.503,0.849,0.989,1.708,1.475,2.568
		c-0.378-0.177-0.755-0.359-1.129-0.538c-2.01-0.961-3.962-2.037-5.893-3.146c-1.287-0.739-3.061-1.47-4.123-2.492
		c-4.419-4.259-8.781-11.032-12.314-16.691c-3.418-5.346-8.033-9.936-12.635-14.261c-2.132-2.004-4.53-3.775-6.456-5.984
		c-1.678-1.924-2.433-4.275-3.043-6.707c-1.669-6.653-4.051-12.902-7.23-18.987c-3.573-6.84-7.892-13.262-11.611-20.021
		c-3.762-6.839-6.427-13.921-6.015-21.832c0.306-5.879,1.643-11.546,0.881-17.459c-0.749-5.809-4.21-10.799-4.739-16.667
		c-0.72-7.98,1.594-15.984,2.66-23.825c0.922-6.78,0.142-13.038-1.319-19.667c-1.419-6.436-3.173-12.911-3.189-19.547
		c-0.006-2.562,0.485-5.523,1.714-7.803c1.496-2.775,3.998-5.076,6.038-7.443c1.992-2.312,3.315-4.683,4.631-7.411
		c1.782-3.693,3.786-7.245,5.072-11.156c1.128-3.433,1.025-7.167,1.506-10.722c0.412-3.047,1.08-6.059,2.062-8.974
		c1.314-3.901,3.5-7.365,6.673-10.005c5.271-4.385,12.4-5.769,17.881-9.923c4.845-3.672,7.497-9.341,12.031-13.391
		c6.196-5.537,13.425-9.963,20.718-13.884c8.613-4.632,17.715-8.442,27.13-11.102c1.397-0.395,2.809-0.759,4.232-1.093
		c-4.963,1.757-9.826,3.834-14.414,6.423c-4.759,2.686-8.399,5.987-11.955,10.09c-2.339,2.698-5.203,6.462-8.97,7.115
		c-3.752,0.651-6.609,1.623-9.92,3.783c-4.941,3.224-7.807,8.498-11.724,12.746c-1.921,2.083-4.245,4.277-7.005,5.079
		c-2.641,0.768-5.479,0.516-8.079,1.465c-3.111,1.136-3.385,5.314-3.477,8.092c-0.134,4.052,0.16,7.801-1.954,11.447
		c-3.9,6.727-11.049,10.862-14.713,17.821C262.461,255.323,276.704,268.024,279.769,281.666z M325.585,471.947
		C325.44,471.797,325.417,471.729,325.585,471.947L325.585,471.947z M334.018,480.07
		C334.293,480.327,334.257,480.391,334.018,480.07L334.018,480.07z M383.976,157.509c-1.578-0.499-3.195-0.779-4.828-0.884
		c1.441-0.359,2.886-0.685,4.332-0.993C383.658,156.25,383.826,156.876,383.976,157.509z M364.71,163.325
		c5.316-2.477,11.699-4.531,17.672-3.8c-10.843,3.314-20.816,8.588-28.656,16.998c-2.764,2.966-6.039,8.818-10.373,10.387
		c0.574-0.817,1.05-1.738,1.524-2.547c2.122-3.624,4.05-7.334,6.522-10.743C354.868,168.836,359.452,165.774,364.71,163.325z
		 M386.501,259.279C386.425,258.949,386.479,258.837,386.501,259.279L386.501,259.279z M430.441,467.11
		c-2.93-4.217-6.766-6.825-9.401-10.843c-2.453-3.741-4.488-7.765-6.361-11.82c-2.028-4.392-3.834-8.941-4.95-13.657
		c-0.615-2.605-1.599-6.853,0.669-8.961c2.787-2.592,2.835-6.037,2.638-9.668c-0.256-4.722-1.372-9.377-1.41-14.114
		c-0.013-1.653,0.124-3.493,1.007-4.934c0.809-1.319,2.396-1.466,3.545-2.359c2.191-1.701-1.795-4.909-2.954-5.86
		c-3.542-2.905-6.64-5.756-8.405-10.109c-2.868-7.077-1.662-15.568-1.359-22.985c0.305-7.476-0.626-14.435-4.008-21.179
		c-3.742-7.459-7.93-14.918-9.637-23.167c-0.766-3.699-0.695-7.446,0.085-11.131c0.638-3.013,1.414-5.752,1.544-8.863
		c0.24-5.712-0.692-11.473-1.897-17.036c-0.801-3.695-1.813-7.348-2.991-10.94c-0.019-0.058-0.033-0.112-0.045-0.163
		c0.001-0.215,0.003-0.431,0.006-0.646c0.024-1.94,0.094-3.88,0.189-5.818c0.254-5.194,0.636-10.529,2.053-15.553
		c0.859-3.046,1.625-4.766-0.994-7.219c-1.84-1.723-4.395-2.39-6.221-4.121c-3.532-3.348-2.035-10.13-1.475-14.241
		c1.263-9.272,1.751-18.636,3.248-27.878c0.997-6.157,2.419-14.266,7.779-18.27c1.56,0.428,3.257,0.584,4.965,0.547
		c0.574,0.817,1.102,1.665,1.609,2.526c2.527,4.285,4.262,8.986,5.553,13.776c1.906,7.075,1.647,14.26,2.911,21.396
		c0.92,5.194,3.114,10.038,6.012,14.415c2.588,3.91,5.741,7.372,8.803,10.907c2.461,2.842,5.241,5.984,5.992,9.786
		c0.421,2.136-0.093,4.166-0.581,6.242c-0.801,3.411-1.744,6.789-2.552,10.198c-1.303,5.496-2.374,11.407-0.716,16.94
		c1.552,5.18,5.841,7.36,9.838,10.382c4.449,3.364,8.133,7.824,11.299,12.378c3.413,4.911,6.226,10.549,7.29,16.469
		c0.444,2.47,0.459,4.999-0.046,7.456c-0.531,2.59-2.072,4.423-3.241,6.704c-4.201,8.189,3.702,15.089,9.119,20.192
		c2.836,2.673,6.564,5.784,7.235,9.853c0.285,1.732-0.056,3.628,0.011,5.386c0.096,2.527,0.408,5.047,0.736,7.552
		c1.45,11.068,4.214,22.163,4.171,33.374c-0.016,4.382-1.699,7.915-2.915,12.038c-1.498,5.084-2.047,10.405-1.698,15.688
		c0.452,6.851,2.714,13.442,5.718,19.564c1.24,2.528,2.948,4.808,3.405,7.639c0.334,2.064-0.036,4.132-0.689,6.092
		c-2.667,8.003-10.577,14.037-17.128,18.805c-2.112,1.536-4.331,2.932-6.412,4.509c-0.392,0.297-0.589,0.662-0.637,1.04
		c-4.739,1.005-9.507,1.873-14.295,2.593C437.618,482.271,435.004,473.678,430.441,467.11z M449.897,486.869
		C449.758,486.878,449.769,486.854,449.897,486.869L449.897,486.869z M245.828,401.036c-19.349-36.95-25.201-80.486-14.888-121.009
		c5.82-22.869,16.079-44.471,30.655-63.058c11.962-15.254,26.753-28.142,43.139-38.447c2.771-1.742,5.598-3.412,8.47-5.016
		c-2.526,1.788-4.969,3.692-7.274,5.752c-2.775,2.48-4.668,5.261-6.864,8.211c-4.611,6.195-11.441,8.376-18.006,11.769
		c-7.833,4.047-11.547,11.108-13.249,19.555c-0.682,3.383-0.908,6.809-1.231,10.237c-0.38,4.032-2.398,7.869-4.19,11.424
		c-1.539,3.051-2.837,6.176-4.963,8.872c-2.039,2.588-4.412,4.889-6.343,7.565c-3.192,4.422-3.061,10.458-2.454,15.62
		c0.784,6.655,2.75,13.118,3.951,19.699c2.621,14.361-5.231,28.613-1.594,42.847c1.246,4.878,3.743,9.098,4.128,14.23
		c0.389,5.178-0.956,10.298-1.133,15.458c-0.446,13.004,6.903,24.032,13.342,34.747c3.407,5.67,6.68,11.411,9.025,17.613
		c1.711,4.525,2.28,9.564,4.393,13.913c2.161,4.45,6.03,7.399,9.594,10.665c4.129,3.784,8.391,7.875,11.425,12.618
		c3.487,5.586,7.176,11.376,11.649,16.322C284.785,454.609,261.162,430.317,245.828,401.036z M334.883,480.692
		c-0.331-0.538-0.811-1.013-1.34-1.372c-0.363-0.611-0.712-1.23-1.062-1.849c-0.87-1.535-1.739-3.071-2.695-4.554
		c-0.785-1.219-2.629-3.956-4.515-4.595c-1.408-2.048-1.5-4.634-2.172-7.064c-0.807-2.917-2.535-4.663-4.868-6.481
		c-5.207-4.058-10.593-7.522-14.918-12.616c-4.949-5.826-7.834-12.875-10.469-19.96c-2.897-7.788-5.352-15.736-7.738-23.693
		c-2.342-7.806-5.48-15.765-5.681-23.983c-0.084-3.455,0.405-6.912,0.709-10.346c0.302-3.406,0.388-6.831,0.604-10.242
		c0.714-11.287,0.947-23.297-4.761-33.403c-1.782-3.155-3.822-6.095-4.971-9.564c-1.215-3.667-0.833-7.521,0.023-11.207
		c1.414-6.09,5.005-14.234,12.417-13.853c0.592,0.031,1.055-0.392,0.942-1.01c-2.169-11.905-13.046-21.931-11.881-34.444
		c1.258-13.509,18.417-18.337,18.744-32.064c0.077-3.221-0.499-6.836,1.138-9.773c1.225-2.199,5.286-1.952,7.432-2.25
		c5.776-0.804,9.766-5.737,13.123-10.113c3.701-4.824,7.642-9.142,13.57-11.197c2.143-0.742,4.388-0.45,6.415-1.599
		c5.013-2.843,7.909-8.309,12.199-12.002c2.432-2.094,5.17-3.823,8.036-5.327c-1.668,1.445-3.177,3.072-4.548,4.892
		c-3.304,4.385-5.367,9.545-8.591,13.97c-1.525,2.093-5.619,1.112-7.86,1.462c-3.249,0.508-3.36,4.079-3.695,6.751
		c-0.319,2.537-0.84,4.387-2.751,6.069c-1.56,1.375-3.187,2.675-4.802,3.986c-4.118,3.342-8.25,6.665-12.235,10.167
		c-3.389,2.979-6.939,6.122-9.434,9.922c-4.941,7.527,3.469,15.639,8.475,20.454c3.979,3.827,8.337,7.384,11.67,11.82
		c1.493,1.986,2.869,4.344,2.909,6.883c0.055,3.484-2.162,6.797-3.92,9.636c-1.595,2.576-3.229,5.095-4.4,7.9
		c-1.485,3.557-1.548,7.848-1.662,11.642c-0.23,7.685-0.086,15.595,0.596,23.251c0.287,3.22,0.44,6.597-1.378,9.42
		c-1.86,2.888-4.544,5.232-6.403,8.168c-1.583,2.501-2.253,4.978,0.065,7.216c1.74,1.681,4.118,1.989,6.017,3.358
		c1.411,1.017,1.544,4.484,1.794,5.949c0.745,4.394,0.239,8.943-0.225,13.336c-0.53,5.012-1.9,10.615,1.236,15.01
		c1.729,2.425,4.442,3.984,5.803,6.678c2.744,5.43,0.412,12.645-0.543,18.21c-1.18,6.876-1.911,13.82-0.995,20.772
		c0.803,6.099,3.303,13.668,7.845,18.019c4.509,4.321,11.377,6.248,15.213,11.186c1.374,1.769,2.391,3.801,3.793,5.572
		c1.441,1.819,2.988,3.543,4.616,5.197c3.012,3.062,6.259,5.859,9.446,8.734c0.365,0.329,0.732,0.661,1.082,1.009
		c-0.913,0.059-2.229-0.657-2.996-0.86c-2.82-0.747-2.211,3.837-1.983,5.256c0.526,3.288,1.84,6.66,3.691,9.425
		c0.448,0.67,0.953,1.225,1.501,1.7c-7.19-1.553-14.304-3.544-21.303-6.007C337.745,481.774,336.311,481.24,334.883,480.692z
		 M382.467,491.671c-2.027-4.964-4.708-9.579-7.914-13.929c-3.632-4.929-7.843-9.395-11.522-14.286
		c-3.07-4.083-7.395-10.64-5.712-16.044c0.809-2.599,3.957-2.605,6.086-3.265c0.978-0.303-0.834-2.023-1.118-2.236
		c-6.367-4.757-14.009-5.694-21.354-8.1c-3.087-1.012-5.469-2.213-5.745-5.733c-0.15-1.921,0.331-3.875,0.863-5.702
		c0.744-2.556,1.584-3.319,4.15-3.871c1.741-0.375,3.525-0.488,5.262-0.895c1.844-0.433,2.212-1.439,2.366-3.283
		c0.345-4.152-4.346-6.188-5.259-9.832c-0.929-3.707-3.173-6.991-4.286-10.646c-1.45-4.759,1.534-6.792,5.991-7.227
		c0.152-0.03,0.238-0.122,0.257-0.276c-0.127-4.576-2.145-8.063-4.943-11.556c-1.641-2.049-3.529-4.013-4.21-6.613
		c-0.827-3.159-0.84-6.531-0.935-9.773c-0.157-5.373-0.664-10.449,0.084-15.796c0.387-2.763,0.875-5.512,1.358-8.259
		c0.387-2.201,0.384-4.903,1.808-6.712c1.723-2.187,4.734-2.858,6.519-5.008c2.243-2.7,0.6-7.258-1-9.835
		c-6.186-9.96,9.895-13.063,16.411-14.278c0.732-0.137-0.2-1.341-0.377-1.545c-4.102-4.732-9.475-6.946-15.473-8.232
		c-2.516-0.54-5.098-0.915-7.496-1.885c-2.68-1.084-2.69-4.078-2.445-6.611c0.758-0.256,1.455-1.73,1.76-2.197
		c1.972-3.03,3.618-6.268,5.634-9.268c1.286-1.915,1.586-5.058,2.261-7.267c0.558-1.826,1.134-3.647,1.726-5.462
		c0.148-0.452,0.945-3.122,0.991-3.136c-0.019-0.016-0.038-0.032-0.056-0.047c0.215,0.001,0.341-0.123,0.296-0.443
		c-0.002-0.013-0.005-0.027-0.007-0.04c0-0.001-0.001-0.002-0.001-0.003c-0.77-5.336-4.527-9.041-8.28-12.581
		c-4.013-3.784-7.032-9.396-4.051-14.72c1.269-2.264,2.194-4.469,2.859-6.988c0.888-3.367,2.248-6.586,3.101-9.97
		c0.918-3.64,1.264-7.396,1.603-11.125c0.169-1.85,0.359-3.694,0.621-5.533c0.22-1.539-0.044-1.373,1.364-1.347
		c4.901,0.093,8.367-5.865,11.135-9.073c6.306-7.31,14.04-12.639,22.926-16.283c-1.517,1.531-2.957,3.124-4.335,4.686
		c-4.293,4.871-8.012,10.227-11.349,15.788c-1.881,3.136-3.862,6.42-5.268,9.801c-0.46,1.108,0.236,2.319,0.939,3.16
		c2.014,2.411,5.06,3.735,7.398,5.789c4.584,4.028,5.085,9.613,5.47,15.346c0.548,8.149,1.152,16.295,1.095,24.468
		c-0.055,7.96-1.342,15.378-3.055,23.11c-3.164,14.275,1.417,28.802,4.284,42.745c1.293,6.29,2.513,12.617,3.053,19.023
		c0.377,4.465,0.76,10.527-2.321,14.219c-1.024,1.228-2.351,1.67-3.028,3.222c-0.655,1.5-0.046,3.389,0.473,4.824
		c1.567,4.332,4.867,8.096,7.498,11.805c1.285,1.813,2.554,3.661,3.512,5.672c1.007,2.113,0.833,4.251,0.833,6.537
		c0,5.5,0,10.999,0,16.498c0,2.275-0.078,3.579,1.184,5.453c2.281,3.387,4.343,6.926,6.138,10.593
		c2.141,4.371,4.253,9.385,3.949,14.35c-0.103,1.681-0.956,3.157-1.035,4.831c-0.078,1.645,0.476,3.258,1.158,4.729
		c1.78,3.831,4.769,7.098,7.401,10.352c3.225,3.986,6.291,8.1,8.152,12.919c2.47,6.396,0.652,12.909,0.145,19.483
		c-0.414,5.365-0.401,10.814,0.28,16.157c0.087,0.68,0.183,1.367,0.302,2.051C401.199,492.77,391.8,492.554,382.467,491.671z
		 M482.83,477.832c0.242-1.664,0.654-3.336,0.91-4.838c0.868-5.088,1.789-10.166,2.534-15.274c1.352-9.27,3.262-20.554-0.419-29.522
		c-3.691-8.994,4.744-15.991,9.942-22.082c1.565-1.833,1.229-4.032-1.37-4.735c-1.553-0.42-3.058-0.047-4.529-0.945
		c-1.919-1.17-2.719-3.728-3.325-5.745c-1.26-4.19-2.226-9.653-1.431-13.996c0.581-3.169,2.744-5.643,5.291-7.461
		c3.163-2.257,7.432-3.623,11.289-4.045c1.84-0.201-0.501-2.705-1.55-2.783c-3.847-0.284-7.687-0.912-11.433-1.822
		c-1.976-0.48-6.155-1.219-7.365-3.079c-0.988-1.519,1.556-4.625,2.256-5.837c0.763-1.319,1.55-2.922,1.102-4.487
		c-0.439-1.532-1.7-2.56-2.314-4.024c-1.973-4.704-2.583-10.093-3.16-15.116c-0.672-5.848-0.947-11.787-0.57-17.666
		c0.329-5.111,1.622-10.081,1.709-15.228c0.09-5.32-1.285-10.488-4.147-14.978c-3.89-6.101-10.04-9.159-15.348-13.749
		c-7.881-6.814-10.959-16.229-12.618-26.141c-1.85-11.056-5.11-21.665-11.637-30.941c-3.134-4.454-7.604-7.509-11.177-11.533
		c-4.328-4.876-1.915-10.014-1.021-15.639c1.46-9.184-6.16-16.873-13.004-21.696c-0.85-0.6-1.729-1.17-2.621-1.721
		c1.522-0.791,2.966-1.74,4.05-2.839c0.359,0.163,0.734,0.267,1.091,0.27c21.429,0.209,30.25,21.521,39.356,37.399
		c4.781,8.335,11.991,14.125,18.308,21.234c3.952,4.448,6.314,9.469,7.472,15.297c0.537,2.702,0.775,5.564,0.247,8.286
		c-0.24,1.239-0.806,2.355-1.143,3.559c-0.879,3.142,2.507,6.03,4.443,7.947c2.201,2.178,4.436,4.272,7.06,5.931
		c2.649,1.676,5.517,2.999,8.269,4.491c2.808,1.522,5.437,3.355,7.434,5.873c2.345,2.957,3.349,7.071,4.079,10.698
		c1.461,7.262,1.018,14.842,1.38,22.202c0.321,6.521,2.443,12.562,3.248,18.986c0.394,3.141,0.548,6.509-0.083,9.617
		c-0.52,2.562-1.837,4.876-2.345,7.439c-1.049,5.288,2.923,11.228,7.379,13.722c2.186,1.224,4.642,1.713,6.936,2.674
		c3.357,1.407,4.504,5.352,4.679,8.663c0.246,4.65-1.078,9.321-1.686,13.901c-0.752,5.66-0.336,11.575-0.207,17.265
		c0.248,10.927,0.052,21.594-4.516,31.708c-3.736,8.273-9.313,15.669-12.113,24.367c-1.357,4.218,0.047,8.733,0.756,13.118
		c-7.341,3.956-14.952,7.472-22.771,10.534C487.726,476.038,485.286,476.951,482.83,477.832z M536.312,449.698
		c-0.144-0.012-0.289-0.023-0.431-0.04c-0.523-0.061-1.094-0.131-1.592-0.308c-0.011-0.004-0.019-0.005-0.029-0.008
		c0.011-0.075,0.016-0.176,0.011-0.316c-0.092-2.558,2.026-5.632,3.201-7.772c1.8-3.278,4.037-6.321,6.282-9.304
		c3.808-5.059,7.889-9.921,10.887-15.529c1.106-2.07,2.679-5.016,2.556-7.424c-0.13-2.569-1.431-5.195-2.394-7.528
		c-0.969-2.348-2.297-4.711-2.705-7.235c-0.644-3.986-0.754-8.058-1.161-12.072c-0.358-3.536-0.703-6.792-0.36-10.354
		c0.378-3.922,1.29-7.799,2.106-11.647c1.324-6.247,2.562-12.41,1.422-18.773c-1.061-5.919-6.807-9.629-9.639-14.588
		c-3.612-6.326,0.118-14.262-0.811-21.056c-0.462-3.376-0.492-6.624-1.348-9.969c-0.872-3.403-2.142-6.696-3.113-10.072
		c-1.832-6.368,1.092-12.995,0.746-19.459c-0.33-6.17-6.153-10.995-9.902-15.301c-1.824-2.094-3.753-4.382-3.891-7.265
		c-0.09-1.883,0.161-3.588-0.349-5.449c-1-3.659-4.033-6.762-6.695-9.296c-3.306-3.145-7.144-5.737-11-8.151
		c-7.804-4.886-16.31-8.841-23.42-14.765c-3.471-2.893-5.094-5.897-6.501-10.095c-1.365-4.073-3.333-7.531-6.426-10.528
		c-6.736-6.529-15.451-10.616-22.142-17.208c-3.935-3.94-8.047-7.853-13.067-10.375c-3.667-1.842-7.849-2.393-11.826-3.187
		c-0.569-0.113-1.562-0.335-2.763-0.561c2.796,0.077,5.59,0.195,8.381,0.406c12.488,0.945,24.773,3.909,36.206,9.041
		c7.535,3.382,14.595,7.815,21.029,12.984c5.036,4.045,11.187,5.953,17.243,7.916c6.464,2.095,13.653,4.262,16.907,10.745
		c2.766,5.513,3.191,11.839,6.427,17.195c2.952,4.885,7.696,8.842,11.897,12.632c3.807,3.434,6.419,7.206,8.4,11.958
		c2.943,7.064,5.699,14.131,8.987,21.053c3.322,6.994,6.794,13.92,9.765,21.074c2.973,7.163,5.72,14.809,6.801,22.518
		c0.942,6.723,0.319,13.647-0.599,20.334c-1.911,13.925-5.748,27.541-7.014,41.561c-0.279,3.085,0.07,6.215-0.455,9.244
		c-0.423,2.437-0.793,4.883-1.13,7.334c-1.04,7.546-1.806,15.195-1.603,22.821c0.129,4.851,0.498,10.918,3.852,14.771
		c0.384,0.441,0.778,0.818,1.181,1.141C559.007,430.516,548.231,440.823,536.312,449.698z"/>
	<path fill="#1B140B" d="M380.478,132.079c0,0-2.583,2.607-8.338-1.511c-5.755-4.118-4.035,1.809,1.469,6.501
		c5.503,4.692,8.623,17.537,8.623,17.537s-20.635,5.872-6.831,8.991s-2.847,9.498-2.847,9.498s-8.485,9.315,1.055,8.074
		c9.54-1.241,12.844-12.111,12.844-12.111s-4.758,10.584,9.287,14.894c14.046,4.31,8.511-2.947,7.043-7.431
		c-1.468-4.483,1.754-3.073,10.929,0.458c9.175,3.531-2.275-13.4,12.546-8.702c14.821,4.697-6.184-9.298,1.664-6.283
		c7.848,3.015,4.407-9.981-7.706-10.244c-12.112-0.263,1.099-9.071,7.522-10.172s-27.156-1.98-35.414,2.772L380.478,132.079z"/>
	<g>
		<path fill="#489322" d="M390.857,169.145c-2.655,0-6.065,1.61-6.065,4.685c0,3.075,3.411,4.685,6.065,4.685
			c2.655,0,6.065-1.61,6.065-4.685C396.922,170.755,393.512,169.145,390.857,169.145z"/>
		<path fill="#489322" d="M438.55,172.974c-2.654-5.417-8.379-9.259-14.099-10.949c1.304-0.785,2.27-1.979,2.27-3.609
			c0-3.233-3.798-4.757-6.504-4.757c-2.706,0-6.504,1.524-6.504,4.757c0,1.838,1.228,3.122,2.785,3.889
			c-0.32,0.188-0.622,0.406-0.898,0.663c-1.974,1.829,0.203,3.898,2.128,4.404c3.825,1.006,7.539,3.546,9.385,7.313
			C428.985,178.509,440.664,177.29,438.55,172.974z"/>
		<path fill="#489322" d="M404.435,142.322c-2.066,0-5.965,0.875-5.965,3.617c0,2.741,3.899,3.617,5.965,3.617
			c2.066,0,5.965-0.875,5.965-3.617C410.4,143.197,406.501,142.322,404.435,142.322z"/>
		<path fill="#489322" d="M369.938,166.689c-2.573,0-5.895,1.555-5.895,4.541c0,0.447,0.082,0.857,0.217,1.239
			c-1.478,0.196-2.795,0.741-3.522,1.702c-3.771,4.985-6.873,10.43-10.642,15.414c-1.522,2.012-3.145,3.862-4.327,6.12
			c-3.89,7.43-3.67,17.212-3.83,25.328c-0.099,5.021,11.858,5.067,11.958,0c0.149-7.522-0.075-16.073,3.241-23.043
			c0.203-0.427,0.434-0.839,0.668-1.249c0.115-0.197,0.233-0.391,0.355-0.583c0.033-0.052,0.058-0.094,0.081-0.132
			c0.021-0.029,0.04-0.056,0.067-0.093c0.652-0.914,1.383-1.772,2.112-2.625c4.039-4.725,6.893-10.457,10.642-15.414
			c0.666-0.88,0.862-1.676,0.73-2.374c2.077-0.548,4.04-1.994,4.04-4.289C375.834,168.244,372.512,166.689,369.938,166.689z"/>
	</g>
	<g>
		<path fill="#649D1C" d="M385.703,172.135c2.197,0,7.067-0.772,7.067-3.859c0-3.087-4.87-3.859-7.067-3.859
			s-7.067,0.772-7.067,3.859C378.635,171.364,383.506,172.135,385.703,172.135L385.703,172.135z"/>
		<path fill="#649D1C" d="M391.819,161.828c1.565,0,5.809-0.412,5.809-2.772s-4.244-2.772-5.809-2.772s-5.809,0.412-5.809,2.772
			S390.254,161.828,391.819,161.828L391.819,161.828z"/>
	</g>
</g>
</svg>
