<?xml version="1.0" encoding="utf-8"?>
<!-- Generator: Adobe Illustrator 17.0.0, SVG Export Plug-In . SVG Version: 6.00 Build 0)  -->
<!DOCTYPE svg PUBLIC "-//W3C//DTD SVG 1.1//EN" "http://www.w3.org/Graphics/SVG/1.1/DTD/svg11.dtd">
<svg version="1.1" id="Layer_1" xmlns="http://www.w3.org/2000/svg" xmlns:xlink="http://www.w3.org/1999/xlink" x="0px" y="0px"
	 width="800px" height="600px" viewBox="0 0 800 600" enable-background="new 0 0 800 600" xml:space="preserve">
<g>
	<path d="M337.297,444.15c-0.293-2.05-2.609-4.403-6.197-6.291c-3.865-2.04-8.552-3.155-13.188-3.155c-1.36,0-2.735,0.093-4.09,0.28
		c-3.264,0.45-7.726,1.248-12.519,2.146c1.046-0.841,1.929-2.405,2.84-4.403c1.096-2.41,2.354-5.832,3.634-9.904
		c2.495-7.95,4.82-17.533,5.922-24.421c0.668-4.168,1.793-6.953,2.697-9.192l0.091-0.228c0.421-1.038,0.264-2.195-0.443-3.238
		c-1.786-2.646-7.019-4.496-12.727-4.496c-1.422,0-2.868,0.114-4.294,0.334c-2.269,0.355-4.514,0.818-6.685,1.266
		c-2.367,0.487-4.649,0.955-6.68,1.222c1.233-1.644,2.999-3.329,4.726-4.978c1.135-1.085,2.309-2.205,3.322-3.311
		c3.097-3.375,5.584-7.877,4.151-10.339c-1.534-2.638-9.771-6.096-13.439-6.096h-0.001c-1.271,0-2.231,0.37-2.853,1.111
		c-0.533,0.637-0.743,1.47-0.589,2.358c0.418,2.41-0.922,6.901-1.998,10.51c-0.225,0.751-0.443,1.481-0.642,2.169
		c-1.178,4.131-2.447,7.709-3.089,9.446c-11.158,1.206-12.31,2.102-12.699,2.405c-1.242,0.966-1.359,1.711-0.265,17.952
		c0.603,8.931,1.287,19.055,0.884,23.378c-0.334,3.59-1.334,8.895-2.218,13.577c-1.937,10.282-2.226,12.41-1.161,13.696
		c0.416,0.502,1.025,0.784,1.671,0.784c0.144,0,0.291-0.01,0.435-0.039c0.528-0.109,1.271-0.375,2.903-0.984
		c4.067-1.499,11.633-4.3,21.339-6.089c1.127-0.212,2.821-0.53,4.841-0.916c7.099-1.341,21.564-4.08,24.438-4.3
		c1.305,1.398,3.495,9.384,2.555,16.948c-1.266,10.176-6.504,23.044-11.16,23.992c-0.338-0.031-1.259-0.217-2.013-0.365
		c-2.157-0.422-5.415-1.069-8.329-1.069c-2.178,0-3.871,0.344-5.175,1.064c-1.233,0.683-1.451,1.675-1.473,2.208
		c-0.072,1.804,1.454,2.806,4.794,5.006c3.25,2.133,8.163,5.361,13.359,10.474c0.721,0.709,1.628,1.09,2.627,1.09
		c6.126,0,14.201-15.993,15.134-18.27c1.623-3.958,4.014-11.636,5.409-20.259c0.67-4.132,2.423-8.732,3.831-12.431
		C336.675,448.328,337.55,445.923,337.297,444.15z M286.907,429.392c2.335,2.806,6.803,7.424,11.458,8.289
		c-1.505,0.287-3.022,0.58-4.529,0.867c-7.941,1.517-16.126,3.091-19.328,3.352c-1.034-6.816-1.044-39.88,0.017-45.467
		c3.592-0.885,18.378-2.78,23.594-3.396c0.348,2.208,0.707,7.235,0.349,13.176c-0.471,7.857-1.992,13.479-4.186,15.47
		c-0.034,0.005-0.084,0.01-0.155,0.01c-1.23,0-3.602-1.043-5.333-1.809c-2.09-0.916-3.321-1.434-4.368-1.434
		c-1.305,0-2.309,0.857-2.446,2.091C281.702,423.061,286.374,428.748,286.907,429.392z"/>
	<path d="M583.703,396.983c7.44-12.733,18.557-23.259,27.018-35.381c15.704-22.495,28.163-49.091,28.414-76.929
		c0.428-47.118-64.893-81.93-104.278-58.469c-4.986-6.166,3.913-10.932,11.984-11.758c8.453-0.865,18.083-3.106,24.09-8.897
		c19.116-18.418,3.99-60.395-23.724-56.712c-5.32,0.709-10.542,3.295-15.432,5.325c-13.734,5.716-8.827-10.046-6.848-18.239
		c3.346-13.844,2.697-25.798-7.631-36.122c-11.58-11.574-25.902-14.108-39.46-6.873c-5.254,2.811-10.112,11.465-13.44,16.076
		c-13.535,18.755-17.388-7.453-18.431-15.778c-1.174-9.405-3.409-22.027-12.401-27.344c-14.028-8.297-29.464-4.621-41.386,5.384
		c-10.212,8.563-14.144,22.298-13.768,35.138c0.453,15.325-0.727,23.373-19.171,21.095c-5.511-0.678-13.981-2.974-19.336-0.235
		c-10.052,5.128-13.928,21.431-6.469,30.572c12.498,15.322,30.371,11.447,46.158,14.843c-4.016,3.593-7.118,7.756-8.523,12.278
		c-0.553,1.784,1.232,3.772,3.076,2.827c5.655-2.925,10.422-7.673,15.559-11.517c1.17,0.647,2.321,1.372,3.438,2.198
		c-12.617,8.631-13.642,19.536-12.988,24.768c-15.764-2.754-35.46-3.15-55.839-0.808c-15.824,1.82-33.149,8.752-47.385,15.783
		c-23.006,11.356-51.774,38.995-49.642,56.73c11.033-0.784,25.198-2.682,32.702-3.153c10.242,4.336,21.245,9.187,37.032,11.423
		c17.089,2.431,37.271,1.289,54.447,2.791c18.827,1.644,52.151,9.436,70.841-1.178c-8.88,12.643-19.183,17.018-34.87,18.768
		c-9.073,1.015-17.725,1.918-25.094,7.639c-10.225,7.934-6.425,19.883,0.358,29.026c-5.87,24.641-48.863,56.354-16.839,97.711
		c11.971,15.454,34.982,22.772,47.918,23.419c-0.518,8.043,0.363,21.509,2.393,25.392c-8.158-1.535-36.553-2.948-41.076,1.09
		c-0.874,0.776-0.828,2.081,0.257,2.591c3.381,1.597,8.853,2.749,12.573,3.036c-3.528,1.297-8.971,4.282-9.045,8.475
		c-0.061,3.243,5.572,2.687,7.391,2.482c2.736-0.313,5.603-0.777,8.443-1.444c-2.529,1.711-7.494,6.363-4.749,8.633
		c4.993,4.129,19.723-4.538,26.302-9.692c3.552-2.791,7.686-6.436,8.831-10.279c0.826-2.77-1.189-4.362-4.415-4.408
		c-0.61-8.232-1.847-21.178-1.631-25.757c5.522-0.062,11.056-0.704,16.495-1.768c2.757,8.659,4.415,15.695,4.851,23.419
		c-5.471,2.879-5.699,8.773,0.672,12.827c7.929,5.048,17.653,10.083,26.658,12.679c9.313,2.687,17.468-1.631,6.048-9.216
		c9.469,1.732,17.754,0,17.084-5.664c-0.344-2.902-4.841-4.393-8.891-5.498c1.978-0.067,6.779-4.292,2.169-6.886
		c-9.931-5.576-28.009-4.318-39.518,0.339c0.832-4.142-0.726-15.83-4.133-23.065c15.41-3.526,24.935-10.15,32.802-15.993
		c14.678-3.958,24.205-9.679,31.038-24.17c3.309-2.324,6.582-5.617,8.374-8.995c8.544,6.076,22.038,2.721,29.717-2.796
		c13.245-9.521,19.459-26.414,22.968-40.773c4.014-16.399,10.73-44.007,32.209-46.303c15.606-1.667,6.7,27.258,0.491,34.092
		c-7.322,8.053-17.024,17.328-24.804,24.869c-19.403,18.809-25.448,46.849-13.264,71.363c11.703,23.546,48.625,24.849,57.219,3.218
		c-13.542-1.522-19.332-8.074-21.22-17.906c10.558,11.799,33.118,5.718,34.773-11.172
		C587.82,426.252,583.266,408.373,583.703,396.983z M492.596,370.861c-8.776-22.992-33.967-38.853-58.042-42.573
		c3.888-10.5,5.22-22.547,2.239-31.879c2.629,0,10.515-2.544,12.978-3.313c18.769,0.611,11.8,38.506,43.114,29.329
		c0.638,9.347,3.513,17.755,6.805,26.544c5.059,13.5,3.981,22.821-3.831,34.406C495.178,378.961,494.052,374.679,492.596,370.861z"
		/>
	<path fill="#C9001F" d="M384.649,168.751c-13.129-3.236-29.733-1.361-42.34-10.422c-12.609-9.06-3.798-27.279,4.997-25.459
		c8.791,1.825,23.514,5.017,33.219-2.91c6.865-5.607,4.152-20.176,4.181-27.452c0.124-33.94,47.998-51.579,54.98-12.428
		c1.349,7.577,0.247,23.399,7.792,28.586c8.7,5.98,18.145,0.663,28.081-15.125c8.165-12.977,26.704-11.794,37.927,0.663
		c9.66,10.714,7.831,23.065,4.493,34.488c-2.019,6.922-5.901,19.899,2.767,23.971c7.081,3.324,20.869-5.931,27.516-7.468
		c23.781-5.493,26.611,29.202,19.919,42.133c-7.01,13.546-21.312,10.512-32.83,15.017c-8.246,3.215-8.275,13.608-3.435,19.264
		c3.636,4.251,9.865,6.358,14.631,9.032c15.17,8.509,10.222,27.395,3.016,39.417c-7.785,12.987-21.632,16.163-32.226,4.846
		c-3.87-4.137-7.19-8.418-12.159-11.24c-6.229-3.531-10.668,2.128-9.249,9.503c1.012,5.263,2.601,11.569,4.358,16.609
		c5.856,16.806-15.534,22.296-24.841,11.74c-6.126-6.943-9.571-17.725-17.961-22.516c11.659-7.225,21.408-19.676,27.575-30.023
		c11.827-19.837,16.695-46.223,9.322-68.34c-8.668-26-23.245-40.183-45.306-40.183c-10.102,0-25.536,5.154-36.462,11.465
		c0.329-1.064-0.61-2.462-1.87-2.415C402.88,159.779,392.793,163.252,384.649,168.751z"/>
	<path fill="#FFFFFF" d="M421.125,243.42c-3.523-4.559-17.169-17.171-22.063-22.459c4.332,1.577,10.173,0,13.218-3.14
		c3.327,25.203,21.277,35.599,37.343,32.751c20.331-3.603,28.268-29.976,23.089-46.145c-4.759-14.867-16.94-29.549-35.009-25.288
		c-6.143,1.447-11.312,4.383-15.259,9.034c-2.592-9.883-11.299-13.254-20.274-12.2c10.34-11.39,26.219-17.414,41.083-20.111
		c23.135-4.188,38.795,16.692,45.327,36.171c-14.293-21.493-34.447-30.533-46.154-31.252c-1.32-0.078-2.235,1.957-1.11,2.601
		c21.549,12.281,41.37,32.648,50.534,42.839c4.754,36.262-32.118,81.713-57.585,84.508c-0.537-2.003-4.463-8.201-5.263-9.096
		C435.342,272.666,431.239,256.503,421.125,243.42z"/>
	<path fill="#FFFFFF" d="M437.403,234.779c1.497,3.373,5.559,7.598,9.971,9.643c-4.164,0.782-8.337,0.746-13.164-1.017
		c-7.62-2.79-12.147-10.727-14.194-18.071c-4.032-14.481,6.188-39.37,23.318-39.839c13.278-0.36,23.822,13.598,23.924,25.76
		c-9.006-6.368-19.771-3.104-25.158,1.289C435.264,218.119,433.95,227.016,437.403,234.779z"/>
	<path fill="#C9001F" d="M398.176,175.509c-1.18-0.981-2.383-1.871-3.61-2.638c4.274-2.829,8.713-5.384,13.203-7.831
		C403.739,168.005,400.405,171.489,398.176,175.509z"/>
	<path fill="#FFFFFF" d="M389.975,188.43c8.233-8.926,27.301-12.309,27.795,6.865c-2.337-3.396-5.793-5.931-10.186-4.934
		c-4.19,0.947-7.89,4.849-9.557,8.527c-1.648,3.645-1.218,8.403,0.915,11.939c1.197,1.978,4.672,4.83,9.753,4.662
		C393.268,222.276,377.689,201.756,389.975,188.43z"/>
	<path fill="#FFBF00" d="M388.709,283.531c-11.711-0.324-28.108-1.928-42.103-3.073c-15.454-1.271-30.882-0.647-46.354-2.361
		c-10.888-1.206-23.717-4.737-31.15-8.442c14.098-0.74,28.207-1.131,42.139-0.29c14.901,0.906,29.763,1.939,44.695,2.027
		c15.437,0.085,57.954,0.205,47.032-25.244c-0.554-1.294-2.824-0.813-2.71,0.621c1.982,25.048-48.281,19.063-63.552,18.371
		c-35.31-1.602-69.168-1.781-104.037,4.631c5.651-22.016,29.781-37.597,51.352-48.811c30.745-15.982,69.321-16.93,95.528-10.926
		c19.907,19.987,57.729,40.476,43.866,69.215C413.246,282.816,400.418,283.849,388.709,283.531z"/>
	<path fill="#C9001F" d="M401.545,307.791c9.698-2.172,20.177-9.415,24.096-18.804c12.125,10.732,7.363,42.195-10.87,56.228
		c-16.536,12.726-44.302,3.989-50.478-15.565C357.923,309.495,390.234,310.331,401.545,307.791z"/>
	<path fill="#9E001F" d="M449.076,150.452c22.062,0,36.638,14.183,45.306,40.183c7.374,22.117,2.506,48.503-9.322,68.34
		c-6.168,10.347-15.916,22.798-27.575,30.023c2.974,1.696,5.322,4.157,7.394,6.922c7.215-10.929,14.511-23.572,24.148-28.829
		c2.704-1.481,5.674-3.264,7.304-6.024c4.524-7.642-1.139-10.365,2.629-23.572c2.186-7.667,6.443-14.02,15.093-22.27
		c4.533-4.326,3.106-14.913-2.361-17.976c-7.017-3.927-19.419-8.058-19.659-29.943c-0.088-7.8,3.646-22.858-11.831-25.074
		c-12.511-1.799-23.909,3.13-36.021,4.851c-5.089,0.725-13.421,3.443-17.068-6.28c-2.712-7.23-8.997-9.969-13.491-2.066
		c-6.926,12.179-23.711,26.137-39.117,28.322c3.517,0.417,6.934,0.904,10.143,1.69c8.144-5.498,18.231-8.972,26.095-9.249
		c1.26-0.047,2.199,1.351,1.87,2.415C423.541,155.606,438.974,150.452,449.076,150.452z"/>
	<path fill="#9E001F" d="M515.687,116.085c-0.111,3.87-0.067,9.05-1.512,12.71c-1.597,4.043-3.731,7.95-4.903,12.143
		c-1.733,6.207-1.032,14.476,5.214,18.151c1.118,0.658,2.271,1.147,3.438,1.491c-4.826-5.361-1.694-15.892,0.056-21.889
		c3.206-10.971,4.988-22.793-3.43-33.204C515.375,108.834,515.794,112.36,515.687,116.085z"/>
	<path fill="#9E001F" d="M428.682,73.639c1.778,9.71,2.034,19.71,4.416,29.301c0.964,3.893,2.22,8.216,5.028,11.222
		c2.376,2.539,5.16,3.484,8.02,3.394c-6.082-6.05-5.195-20.378-6.46-27.476c-1.754-9.832-6.092-16.081-11.6-19.389
		C428.307,71.687,428.508,72.679,428.682,73.639z"/>
	<path fill="#9E001F" d="M358.732,138.805c7.151,1.273,16.684-0.484,20.23-7.714c-9.666,6.446-23.321,3.505-31.655,1.778
		c-0.877-0.181-1.75-0.114-2.607,0.078C349.095,135.805,353.854,137.935,358.732,138.805z"/>
	<path fill="#9E001F" d="M539.637,287.509c-6.345-1.235-11.135-4.22-15.524-8.82c-4.486-4.704-13.3-8.24-18.954-5.032
		c0.007,0,0.012,0.005,0.019,0.005c4.969,2.821,8.289,7.103,12.159,11.24c7.959,8.501,17.753,8.825,25.433,2.951
		C541.738,287.812,540.697,287.719,539.637,287.509z"/>
	<path fill="#9E001F" d="M549.41,201.015c-6.75,0.699-12.693,3.469-15.793,9.904c-0.505,1.048-0.902,2.102-1.215,3.156
		c0.836-0.689,1.805-1.287,2.95-1.732c11.518-4.504,25.82-1.47,32.83-15.017c0.538-1.043,1.008-2.236,1.419-3.531
		C563.753,198.621,557.136,200.218,549.41,201.015z"/>
	<path fill="#9E001F" d="M398.176,175.509c-1.18-0.981-2.383-1.871-3.61-2.638c4.274-2.829,8.713-5.384,13.203-7.831
		C403.739,168.005,400.405,171.489,398.176,175.509z"/>
	<path fill="#9E001F" d="M425.641,288.987c-2.264,5.428-6.725,10.124-11.956,13.557c0.536,0.316,1.074,0.629,1.587,1.015
		c5.377,4.048,5.766,11.444,5.093,17.554c-1.157,10.515-8.252,18.511-18.195,21.744c-8.284,2.687-17.2,3.003-25.925,2.164
		c11.294,7.574,27.428,8.737,38.527,0.194C433.005,331.182,437.766,299.72,425.641,288.987z"/>
	<path fill="#FFBF00" d="M401.263,489.555c3.519,0.89-2.665,6.655-5.834,9.148c-3.183,2.508-6.605,4.76-10.124,6.759
		c-6.984,3.968-13.671,5.752-13.009,3.171c1.128-4.39,11.497-9.091,19.961-13.137c0.405-0.189,0.04-0.779-0.361-0.59
		c-0.87,0.412-12.942,4.507-18.759,5.884c-1.588,0.38-13.214,2.785-11.3-0.344c4.129-6.757,17.397-9.342,24.746-8.874
		c0.39,0.026,0.445-0.624,0.061-0.683c-4.81-0.683-9.595-0.057-14.241,1.201c-4.161-0.323-15.444-1.752-13.348-3.262
		C364.688,484.761,397.741,488.677,401.263,489.555z"/>
	<path fill="#FFBF00" d="M423.156,484.566c8.443-4.126,26.491-4.559,33.307-3.171c8.968,1.835,5.199,5.123,1.232,5.822
		c-7.181-0.73-17.215-2.524-26.57-1.31c-2.977,0.386-3.012,1.237-2.412,1.242c13.399,0.073,35.238,2.884,38.503,5.861
		c3.265,2.979-6.142,6.145-19.776,3.36c-4.045-1.183-11.9-3.932-19.003-6.526c-1.97-0.715-3.675,0.057-3.061,0.329
		c6.708,2.933,14.456,5.956,21.284,9.086c2.942,1.341,6.149,2.78,8.407,5.159c3.183,3.36-6.118,1.628-7.013,1.382
		c-6.296-1.696-12.337-4.698-18.124-7.647c-2.611-1.33-5.113-2.992-7.554-4.616C418.508,490.963,419.216,486.493,423.156,484.566z"
		/>
	<path fill="#DEA300" d="M379.041,219.594c-2.394-3.756-8.18-5.413-11.686-3.337c-0.223,0.228-0.43,0.458-0.645,0.683
		c-2.156,5.273-0.194,12.182,6.72,11.913C378.085,228.675,381.827,223.966,379.041,219.594z"/>
	<path fill="#DEA300" d="M397.947,226.255c2.482,2.964,4.977,5.915,7.56,8.773c5.017,5.55,9.32,11.908,12.032,18.912
		c3.642,9.41,4.104,19.014,0.137,26.963c1.976-0.481,3.913-1.012,5.739-1.654C433.587,258.162,415.933,241.522,397.947,226.255z"/>
	<path fill="#DEA300" d="M305.654,271.983c5.963,0.251,11.941,0.443,17.897,0.844c8.963,0.611,17.915,1.362,26.9,1.602
		c10.752,0.298,21.928,0.417,32.483-1.946c5.128-1.147,11.47-3.106,14.476-7.417c-11.041,6.438-31.689,6.381-41.472,6.327
		c-14.933-0.088-29.794-1.121-44.695-2.027c-13.932-0.841-28.042-0.451-42.139,0.29c2.533,1.263,5.721,2.496,9.217,3.632
		c4.469-0.303,8.851-1.253,13.34-1.393C296.327,271.747,300.99,271.786,305.654,271.983z"/>
	<path fill="#DEA300" d="M385.114,490.774c-2.301-2.868-13.492-1.204-17.758,0.761c1.952,0.262,3.813,0.458,5.047,0.554
		C376.554,490.958,380.822,490.404,385.114,490.774z"/>
	<path fill="#DEA300" d="M379.98,508.097c1.67-0.704,3.486-1.592,5.325-2.635c3.519-1.999,6.941-4.251,10.124-6.759
		c1.101-0.867,2.563-2.133,3.857-3.443C392.029,497.665,385.8,502.907,379.98,508.097z"/>
	<path fill="#DEA300" d="M375.915,500.065c5.199-1.447,12.344-3.834,14.983-4.779C386.719,493.955,380.73,497.049,375.915,500.065z"
		/>
	<path fill="#DEA300" d="M431.125,485.908c9.355-1.214,19.389,0.58,26.57,1.31c0.981-0.168,1.945-0.502,2.713-0.929
		c-9.212-3.197-21.092-4.219-29.356-0.365C431.079,485.918,431.097,485.913,431.125,485.908z"/>
	<path fill="#DEA300" d="M422.013,493.231c0.131,0.098,0.221,0.21,0.362,0.308c2.441,1.623,4.943,3.285,7.554,4.616
		c3.817,1.947,7.758,3.875,11.795,5.478C436.001,498.592,429.519,494.429,422.013,493.231z"/>
	<path fill="#DEA300" d="M447.44,496.371c2.743,0.559,5.303,0.867,7.635,1.002c-8.056-4.476-17.428-7.831-25.91-7.261
		C436.073,492.625,443.533,495.229,447.44,496.371z"/>
	<path fill="#FFFFFF" d="M486.21,412.051c1.016-3.062,1.593-7.976,0.604-9.27c-5.575-7.303-10.77-11.589-11.387-17.797
		c-0.617-6.21-1.443-30.955-2.481-31.048c-8.431-0.759-14.577,6.008-15.83,13.507c-1.35-1.918-3.828-2.581-5.066-1.763
		c-10.773,7.093-5.391,31.097,5.692,41.884c-8.326,0.515-30.745,7.844-46.612,2.426c-11.364-3.87-4.733-16.759-2.351-24.318
		c0.351-1.121-2.529,0.492-3.1,1.582c-6.831,13.039-6.773,24.931,10.049,29.073c13.634,3.355,32.788,0.22,46.243-5.242
		c3.728,3.078,10.753,0.787,6.627-0.437c-14.257-4.23-20.702-30.217-15.938-39.324c1.728-3.305,4.552,0.821,5.795,5.379
		c1.241,4.553,5.58,21.9,9.656,26.433c0.66,0.735,2.213,0.142,1.671-0.896c-4.539-8.685-4.37-20.155-8.708-29.042
		c-0.756-8.084,2.349-14.714,8.352-14.913c3.203,16.044,1.234,21.858,1.856,27.352c0.517,4.61,2.855,8.998,11.596,19.008
		c2.047,2.351-5.676,18.887-14.632,24.717c-8.938,5.822-19.254,7.704-29.578,9.487c-7.894,1.367-16.319,2.469-24.294,1.988
		c-10.929-0.663-12.889-14.328-14.507-22.053c-3.122-14.913-1.068-29.689,2.295-44.157c0.314-1.341-1.958,0.37-3.31,3.311
		c-5.799,12.627-5.695,26.909-3.473,41.69c2.287,15.216,6.991,25.376,19.614,26.409c7.196,0.59,19.187,0.179,28.7-1.325
		c-27.755,19.409-73.09,13.937-94.375-12.565c-27.324-34.028,9.617-57.348,16.561-88.06c2.357,2.589,4.841,4.815,7.12,6.412
		c15.497,10.89,34.355,9.091,48.705-2.578c4.54-3.696,8.544-9.539,11.492-16.277c16.669,12.094,37.743,12.319,50.404,31.566
		C492.528,376.776,496.548,398.709,486.21,412.051z"/>
	<path fill="#DEE3E3" d="M434.727,264.289c-2.434-5.827-5.714-10.525-9.502-14.823c6.987,11.714,9.168,24.54,3.777,32.166
		c0.8,0.896,4.726,7.093,5.263,9.096c1.531-0.168,3.106-0.497,4.709-0.965C440.236,281.258,437.951,271.998,434.727,264.289z"/>
	<path fill="#DEE3E3" d="M489.684,203.847c-9.688-10.515-27.643-28.317-47.171-39.751c0.892,5.592,3.984,10.719,8.086,15.263
		c7.035,2.05,12.66,7.22,16.727,13.562c0.98,0.626,1.945,1.24,2.874,1.799C475.885,198.189,482.675,201.919,489.684,203.847z"/>
	<path fill="#DEE3E3" d="M408.095,170.472c-2.119,1.682-4.112,3.5-5.924,5.501c6.096-0.719,12.064,0.616,16.081,4.639
		C416.655,175.629,413.304,171.464,408.095,170.472z"/>
	<path fill="#DEE3E3" d="M414.593,362.171c12.541-4.307,23.405-12.783,30.363-23.841c-4.045-1.872-8.016-3.974-11.759-6.687
		c-2.948,6.738-6.952,12.581-11.492,16.277c-14.35,11.67-33.208,13.469-48.705,2.578c-2.279-1.597-4.763-3.823-7.12-6.412
		c-0.302,1.336-0.677,2.646-1.083,3.95C377.832,361.811,395.582,368.702,414.593,362.171z"/>
	<path fill="#DEE3E3" d="M393.511,421.743c0.708,9.324,1.548,23.841,11.355,28.426c5.507,2.576,11.369,3.717,17.371,4.02
		c7.744-1.877,15.069-5.012,21.457-9.477c-9.513,1.504-21.504,1.915-28.7,1.325c-12.623-1.033-17.327-11.193-19.614-26.409
		c-0.835-5.553-1.369-11.025-1.406-16.371C393.198,409.385,393.043,415.587,393.511,421.743z"/>
	<path fill="#DEE3E3" d="M340.352,415.059c1.341,5.431,4.153,11.09,8.967,17.087c7.203,8.967,17.165,15.504,28.26,19.503
		C370.907,434.593,357.691,418.968,340.352,415.059z"/>
	<path fill="#DEE3E3" d="M348.486,415.479c14.854,6.544,26.032,21.289,31.788,37.074c0.931,0.295,1.874,0.551,2.818,0.813
		C376.408,436.555,365.696,420.557,348.486,415.479z"/>
	<path fill="#DEE3E3" d="M466.793,381.611c-1.474-6.583-2.882-13.228-3.368-19.966c-1.936,2.746-2.787,6.904-2.35,11.553
		c4.081,8.356,4.222,18.975,7.998,27.439C471.75,395.595,467.863,386.393,466.793,381.611z"/>
	<path fill="#DEE3E3" d="M489.962,405.313c-1.846-5.338-3.545-10.73-4.868-16.218c-1.224-5.084-2.194-10.191-2.893-15.366
		c-0.419-3.104-0.359-17.582-8.192-11.76c0.557,7.828,1.029,19.099,1.417,23.016c0.617,6.208,5.813,10.494,11.387,17.797
		c0.989,1.294,0.412,6.208-0.604,9.27C487.804,409.996,489.018,407.72,489.962,405.313z"/>
	<path fill="#45BDA3" d="M582.752,452.677c-29.112-0.808-26.763-38.247-18.941-56.311c6.866-15.866,26.596-35.146,36.375-49.233
		c13.819-19.909,19.047-33.386,18.433-48.741c-0.294-7.354-4.087-9.728-3.889-8.778c4.301,20.611-4.7,39.645-18.231,57.724
		c-13.899,18.579-32.486,36.202-39.311,57.041c-8.491,25.928,2.428,45.79,20.073,52.842c-35.186-7.453-34.425-32.418-29.277-47.173
		c0.327-0.924-1.979,0.854-3.007,4.737c-3.728,14.077-2.072,25.327,10.351,36.27c4.85,4.269,14.147,8.993,22.684,9.839
		c-6.544,4.6-21.843,1.693-30.551-9.881c-10.744-14.282-9.569-36.243-2.9-51.542c10.558-24.217,49.822-38.239,46.331-72.575
		c-2.253-22.187-24.203-13.018-33.922-2.273c-8.396,9.283-12.473,18.343-15.437,30.409c-2.384,9.72-4.212,19.345-7.912,28.708
		c-4.512,11.434-24.965,31.68-39.238,21.939c0.734-2.035,1.292-4.157,1.648-6.35c41.115-0.973,24.557-59.929,44.776-81.71
		c0.65-0.699-1.206-1.768-5.343,4.447c-18.386,27.587-1.447,69.127-38.998,73.279c0.148-2.206,0.136-4.445-0.004-6.676
		c7.542-0.58,15.811-5.749,19.337-15.685c6.235-17.587,4-36.262,12.212-50.918c2.899-5.177-1.672-0.171-3.932,3.72
		c-5.933,10.217-5.432,18.631-7.244,30.22c-1.424,9.104-6.008,25.252-13.461,24.219c10.969-23.181-10.342-47.194-5.573-59.614
		c6.483-2.977,10.354-7.647,9.822-16.327c-0.371-6.091-3.752-12.12-5.317-17.921c-3.535-13.122,6.079-1.589,7.585,0.241
		c3.065,3.73,5.979,7.354,9.648,10.515c21.339,18.353,43.245-16.019,43.822-37.988c0.111-4.188-0.545-7.838-1.874-11.04
		c0.655-1.535,1.319-3.016,3.263-3.95c3.218-1.548,7.441-0.306,10.666,0.652c6.027,1.789,14.399,6.156,17.963,11.584
		c0.272,0.414,0.868,0.015,0.638-0.412c-4.238-7.932-13.28-12.997-21.826-14.986c-3.387-0.787-9.719,0.292-12.801,3.21
		c-0.967-1.426-2.094-2.754-3.387-3.966c14.463-13.722,37.219,0.179,46.502,14.903c0.221,0.349,0.732,0.031,0.553-0.334
		c-7.406-14.75-36.083-34.149-49.162-16.337c-1.463-1.121-3.031-2.174-4.81-3.104c-3.484-1.83-6.818-3.531-10.114-5.711
		c30.961-14.683,76.323,8.305,89.191,38.05c13.306,30.753-8.887,69.083-25.138,94.032c-13.475,20.691-32.566,36.72-34.25,62.847
		C568.069,435.429,573.771,447.106,582.752,452.677z"/>
	<path fill="#A7DFC9" d="M544.676,344.749c-10.46,12.242-12.018,30.378-16.052,47.32c2.271-2.928,4.015-5.837,4.997-8.33
		c3.7-9.363,5.528-18.988,7.912-28.708C542.438,351.348,543.471,347.967,544.676,344.749z"/>
	<path fill="#A7DFC9" d="M587.538,257.181c17.261,14.191,23.045,38.185,19.597,61.835
		C619.514,303.367,613.674,264.367,587.538,257.181z"/>
	<path fill="#A7DFC9" d="M622.871,282.708c3.203,19.324-0.561,36.176-8.371,53.89c-3.168,7.181-6.591,14.432-9.315,21.775
		c15.962-24.942,35.7-61.271,22.977-90.683c-7.15-16.528-24.338-30.957-43.508-38.009
		C604.065,241.033,619.706,263.611,622.871,282.708z"/>
	<path fill="#45BDA3" d="M603.964,431.59c-3.032,2.894-7.686,4.318-11.751,4.76c-7.833,0.852-13.54-2.904-17.379-8.975
		c-0.057-6.917,1.594-14.261,4.144-20.812c0.937,6.228,4.205,11.954,8.999,16.337c5.428,4.97,13.937,7.494,20.059,3.422
		C606.745,428.126,605.603,430.029,603.964,431.59z"/>
	<path fill="#009183" d="M559.388,244.189c1.957-1.853,5.225-2.959,8.22-3.318c-0.707-1.962-1.536-3.865-2.494-5.685
		c-3.241,0.787-6.331,2.395-9.113,5.038C557.294,241.434,558.421,242.762,559.388,244.189z"/>
	<path fill="#009183" d="M553.894,238.455c2.588-3.526,5.796-5.576,9.322-6.513c-1.617-2.475-3.513-4.753-5.693-6.782
		c-6.482,0.313-12.768,1.737-18.553,4.481c3.295,2.18,6.63,3.88,10.114,5.711C550.862,236.28,552.431,237.334,553.894,238.455z"/>
	<path fill="#009183" d="M503.373,380.224c3.044,0.427,5.601-2.04,7.666-5.698c-0.991-3.16-2.473-5.962-4.511-8.296
		C506.461,370.861,505.581,375.559,503.373,380.224z"/>
	<path fill="#009183" d="M496.461,388.668c0.14,2.231,0.151,4.471,0.004,6.676c7.182-0.797,12.363-2.967,16.187-6.135
		c0.137-3.306,0.018-6.508-0.434-9.513C508.054,385.261,502.06,388.236,496.461,388.668z"/>
	<path fill="#009183" d="M509.815,406.876c1.094-4.121,1.937-8.34,2.427-12.492c-4.093,2.964-9.331,4.779-16.211,4.944
		c-0.356,2.192-0.914,4.315-1.648,6.35C499.115,408.906,504.527,408.828,509.815,406.876z"/>
	<path fill="#009183" d="M541.212,427.438c0.544-14.934,5.227-28.219,15.299-39.443c10.892-12.133,23.29-22.881,33.026-36.057
		c9.072-12.278,23.695-35.061,8.304-48.441c-12.037-10.463-26.723,2.858-34.741,12.123c-4.516,5.216-8.743,10.807-12.199,16.811
		c1.741-2.63,3.722-5.216,6.069-7.807c9.719-10.745,31.668-19.914,33.922,2.273c3.491,34.336-35.774,48.358-46.331,72.575
		c-5.228,11.996-7.05,28.076-2.426,41.346C541.396,436.415,541.049,431.94,541.212,427.438z"/>
	<path fill="#009183" d="M546.449,440.179c0.764,4.81,2.045,9.526,3.841,14.046c8.884,8.848,21.835,10.807,27.722,6.668
		c-8.537-0.847-17.834-5.571-22.684-9.839C551.283,447.492,548.397,443.894,546.449,440.179z"/>
	<path fill="#009183" d="M569.766,447.3c-6.644-9.881-6.353-22.366-3.646-33.559c4.921-20.354,15.167-39.194,26.614-56.906
		c-10.211,12.503-23.531,27.069-28.923,39.531c-6.696,15.459-9.359,45.097,8.26,53.828
		C571.249,449.291,570.468,448.344,569.766,447.3z"/>
	<path fill="#009183" d="M515.237,306.132c0.037-1.545,1.71-2.552,3.078-1.763c36.475,21.02,60.108-27.525,50.137-60.949
		c-1.3-0.016-2.567,0.168-3.703,0.72c-1.944,0.934-2.608,2.415-3.263,3.95c1.329,3.202,1.986,6.852,1.874,11.04
		c-0.577,21.97-22.482,56.342-43.822,37.988c-3.669-3.161-6.583-6.785-9.648-10.515c-1.505-1.83-11.119-13.362-7.585-0.241
		c1.565,5.801,4.946,11.83,5.317,17.921c0.532,8.68-3.339,13.35-9.822,16.327c-0.704,1.835-0.831,3.932-0.585,6.228
		C506.082,322.834,514.996,316.046,515.237,306.132z"/>
	<path fill="#009183" d="M584.837,419.556c-3.067-3.792-5.143-8.245-5.858-12.992c-2.55,6.552-4.201,13.896-4.144,20.812
		c3.096,4.892,7.428,8.24,13.087,8.923C584.774,431.256,583.538,425.199,584.837,419.556z"/>
	<path d="M370.338,214.795c-3.549,0.106-5.428,3.225-5.621,6.433c-0.247,4.137,2.581,8.294,6.754,8.768
		c0.632,0.073,1.033-0.862,0.553-1.279c-2.579-2.226-6.578-6.593-3.743-10.171c1.483-1.872,4.674-1.028,6.228,0.251
		c1.869,1.548,0.737,4.724-1.839,3.326c-0.802-0.437-1.672,0.575-1.166,1.315c2.129,3.109,5.814,1.289,6.553-1.851
		C379.089,217.205,373.932,214.691,370.338,214.795z"/>
	<circle fill="#FFFFFF" cx="463.413" cy="221.577" r="4.869"/>
	<path fill="#FFFFFF" d="M460.144,213.329c0,1.263-1.026,2.291-2.292,2.291c-1.267,0-2.292-1.028-2.292-2.291
		c0-1.271,1.025-2.293,2.292-2.293C459.118,211.036,460.144,212.058,460.144,213.329z"/>
	<path fill="#FFFFFF" d="M417.02,199.669c0,1.501-1.22,2.723-2.722,2.723c-1.499,0-2.722-1.222-2.722-2.723
		c0-1.501,1.223-2.718,2.722-2.718C415.799,196.951,417.02,198.168,417.02,199.669z"/>
	<path fill="#FFFFFF" d="M412.636,194.652c0,0.865-0.707,1.574-1.576,1.574c-0.867,0-1.573-0.709-1.573-1.574
		c0-0.867,0.706-1.576,1.573-1.576C411.929,193.076,412.636,193.785,412.636,194.652z"/>
	<path d="M242.454,450.117c4.401,4.528,5.755,5.799,6.891,6.117c0.26,0.078,0.524,0.111,0.789,0.111c0.594,0,2.068-0.21,2.879-2.187
		c1.527-3.728,0.088-14.745-9.886-25.229c4.977-8.512,10.238-23.003,10.238-26.371c0-2.661-3.686-7.178-5.272-8.998
		c-2.463-2.827-5.906-6.197-8.317-6.197c-0.409,0-0.793,0.078-1.148,0.241c-2.124,0.966-12.903,4.825-21.438,7.606
		c-1.733,0.567-3.466,0.839-5.298,0.839c-1.984,0-3.666-0.329-4.893-0.575c-0.822-0.166-1.472-0.29-2.041-0.29
		c-1.298,0-1.927,0.694-2.185,1.105c-0.738,1.183-0.109,2.472,0.098,2.889c1.786,3.655,8.572,5.838,14.1,5.838
		c1.833,0,3.583-0.215,5.202-0.642c2.616-0.689,5.224-1.54,7.525-2.296c2.462-0.808,4.994-1.636,6.433-1.856
		c-0.083,3.479-2.7,12.7-4.626,18.46c-1.513-0.981-3.845-2.666-5.695-4.002c-6.816-4.929-10-7.093-11.867-7.093
		c-0.712,0-1.349,0.272-1.795,0.766c-0.452,0.502-0.657,1.175-0.584,1.905c0.68,6.544,6.394,13.23,10.566,18.118
		c1.606,1.874,3.583,4.194,3.964,5.133c-2.508,7.062-11.843,18.219-18.686,26.394c-8.162,9.749-9.542,11.641-8.635,13.583
		c0.387,0.833,1.204,1.333,2.178,1.333h0.028h0.058c4.834-0.145,12.143-5.309,17.422-9.612c9.2-7.512,16.244-16.723,18.78-20.238
		C238.61,446.172,240.844,448.463,242.454,450.117z"/>
	<path fill="#C80000" d="M236.615,442.408c-1.187,1.778-9.007,12.772-19.407,21.263c-4.968,4.049-12.008,9.04-16.227,9.161
		c-0.009,0-0.019,0-0.028,0c-4.06,0,22.727-25.804,27.122-38.99c0.936-2.801-13.51-13.885-14.538-23.79
		c-0.035-0.334,0.111-0.484,0.405-0.484c2.607,0,16.776,11.817,18.583,11.817c0.093,0,0.153-0.031,0.176-0.098
		c0.635-1.768,6.257-18.522,5.287-22.469c-0.109-0.443-0.546-0.632-1.244-0.632c-2.6,0-8.817,2.625-15.076,4.271
		c-1.515,0.396-3.111,0.575-4.696,0.575c-5.623,0-11.101-2.237-12.319-4.722c-0.425-0.87-0.289-1.147,0.305-1.147
		c1.051,0,3.544,0.867,6.933,0.867c1.755,0,3.751-0.23,5.911-0.934c8.699-2.832,19.42-6.676,21.646-7.688
		c0.096-0.047,0.204-0.067,0.327-0.067c2.717,0,11.607,10.316,11.607,13.217c0,3.034-5.665,18.61-10.752,26.658
		c12.206,12.027,12.179,25.146,9.503,25.146c-0.084,0-0.164-0.01-0.251-0.031c-1.684-0.476-11.5-12.003-13.096-12.003
		C236.71,442.328,236.653,442.354,236.615,442.408z"/>
	<path d="M291.638,417.49c1.398,0,2.574-0.88,3.145-2.351c1.113-2.855,0.118-8.69-2.586-11.172c-2-1.838-6.408-2.933-9.513-2.933
		c-2.136,0-3.567,0.492-4.372,1.509c-0.558,0.704-0.748,1.584-0.538,2.482c0.562,2.425,4.244,6.045,5.799,7.489
		C286.015,414.78,289.4,417.49,291.638,417.49z"/>
	<path fill="#C80000" d="M279.703,404.58c-0.256-1.105,1.101-1.569,2.981-1.569c2.753,0,6.626,0.992,8.174,2.41
		c2.603,2.394,3.41,10.083,0.78,10.083C289.008,415.504,280.336,407.304,279.703,404.58z"/>
	<path fill="#C80000" d="M329.185,464.903c-1.337,8.253-3.628,15.778-5.285,19.826c-1.875,4.569-9.263,17.038-13.302,17.038
		c-0.461,0-0.879-0.166-1.239-0.52c-10.455-10.295-19.731-13.096-17.115-14.538c1.098-0.603,2.595-0.818,4.221-0.818
		c4.179,0,9.201,1.434,10.408,1.434c0.056,0,0.101,0,0.14-0.005c6.27-1.017,11.636-15.392,12.919-25.723
		c1.044-8.387-1.591-19.19-4.219-19.19c-2.63,0-24.033,4.168-29.939,5.263c-13.15,2.425-22.672,6.754-24.275,7.077
		c-0.015,0.005-0.028,0.005-0.043,0.005c-1.483,0,2.88-17.279,3.682-25.897c0.81-8.7-2.551-39.036-1.376-39.953
		c1.174-0.909,12.907-2.123,12.907-2.123s1.865-4.763,3.571-10.745c1.239-4.331,3.279-10.155,2.687-13.562
		c-0.142-0.823,0.462-1.152,1.488-1.152c3.247,0,10.692,3.337,11.728,5.115c0.652,1.121-0.722,4.548-3.899,8.007
		c-3.445,3.751-8.787,7.668-9.98,11.82c0.15,0.005,0.303,0.005,0.456,0.005c4.461,0,10.538-1.783,16.605-2.728
		c1.382-0.212,2.722-0.303,3.992-0.303c7.105,0,12.143,2.99,11.332,5.009c-0.96,2.376-2.182,5.315-2.908,9.842
		c-2.248,14.046-9.283,37.742-12.253,37.742c-0.013,0-0.026-0.005-0.039-0.005c-6.998-0.497-15.699-13.238-15.497-15.058
		c0.026-0.236,0.196-0.339,0.476-0.339c1.596,0,6.825,3.243,9.701,3.243c0.553,0,1.019-0.119,1.354-0.401
		c6.806-5.817,5.309-32.381,3.976-32.381c-0.004,0-0.006,0-0.01,0c-1.337,0.137-24.627,2.938-26.434,3.966
		c-1.808,1.022-1.619,48.037,0.014,48.972c0.113,0.062,0.352,0.093,0.702,0.093c4.696,0,29.444-5.467,40.363-6.974
		c1.306-0.179,2.583-0.261,3.818-0.261c9.837,0,17.062,5.232,17.421,7.75C335.738,447.264,330.525,456.651,329.185,464.903z"/>
	<path d="M293.681,470.259c4.573-0.699,9.301-1.419,12.591-1.419c0.357,0,0.688,0.01,0.996,0.026c0.076,0,0.154,0.005,0.229,0.005
		c1.691,0,2.896-1.152,2.93-2.795c0.063-3.275-5.424-9.72-9.203-9.873c-0.208-0.005-0.424-0.01-0.651-0.01l0,0
		c-4.671,0-12.349,1.82-22.072,4.116c-1.655,0.396-3.365,0.797-5.116,1.209c-12.59,2.938-26.254,5.889-31.104,6.715
		c-1.826,0.316-3.704,0.469-5.361,0.603c-3.434,0.272-5.159,0.411-5.762,2.045c-0.311,0.846-0.08,1.768,0.616,2.467
		c2.103,2.097,9.129,5.017,16.846,5.017c1.162,0,2.306-0.067,3.408-0.207c2.794-0.339,7.806-1.382,14.156-2.708
		c7.961-1.659,17.872-3.725,26.875-5.1L293.681,470.259z"/>
	<path fill="#C80000" d="M251.787,476.19c-1.059,0.127-2.119,0.189-3.167,0.189c-7.159,0-13.746-2.739-15.444-4.434
		c-1.213-1.214,4.311-0.88,9.438-1.752c5.127-0.88,19.086-3.911,31.223-6.749c11.695-2.723,21.513-5.268,26.737-5.268
		c0.198,0,0.387,0.005,0.573,0.01c3.403,0.14,9.687,8.7,6.35,8.7c-0.039,0-0.079,0-0.121,0c-0.349-0.021-0.718-0.031-1.105-0.031
		c-3.592,0-8.679,0.802-13.509,1.538C276.705,470.839,258.008,475.434,251.787,476.19z"/>
	<path fill="#A00000" d="M228.019,423.472c-3.946-2.068-7.894-4.108-11.799-6.2c4.417,7.536,12.566,14.442,11.856,16.57
		c-4.395,13.186-31.183,38.99-27.122,38.99h0.028c4.218-0.122,11.259-5.113,16.227-9.161c10.4-8.491,18.22-19.485,19.407-21.263
		c0.038-0.054,0.095-0.08,0.172-0.08c1.596,0,11.412,11.527,13.096,12.003c0.087,0.021,0.167,0.031,0.251,0.031
		c2.523,0,2.682-11.646-7.514-23.049C237.774,428.662,232.913,426.03,228.019,423.472z"/>
	<path fill="#A00000" d="M317.388,472.659c-2.432,7.385-6.2,13.984-10.375,14.662c-0.039,0.005-0.084,0.005-0.14,0.005
		c-1.206,0-6.228-1.434-10.408-1.434c-1.625,0-3.123,0.215-4.221,0.818c-2.616,1.442,6.66,4.243,17.115,14.538
		c0.36,0.355,0.778,0.52,1.239,0.52c4.038,0,11.426-12.469,13.302-17.038c0.715-1.742,1.545-4.152,2.366-6.969
		C323.305,476.065,320.346,474.365,317.388,472.659z"/>
	<path fill="#A00000" d="M262.915,442.512c-1.227,6.505-2.312,12.242-1.459,12.242c0.014,0,0.027,0,0.043-0.005
		c1.19-0.241,6.746-2.687,14.904-4.924C271.891,447.414,267.394,444.979,262.915,442.512z"/>
	<path fill="#A00000" d="M293.449,459.03c-5.264,0.971-12.029,2.645-19.611,4.414c-12.137,2.837-26.096,5.869-31.223,6.749
		c-5.127,0.872-10.651,0.538-9.438,1.752c1.698,1.696,8.285,4.434,15.444,4.434c1.048,0,2.108-0.062,3.167-0.189
		c6.22-0.756,24.918-5.351,40.975-7.797c4.83-0.735,9.917-1.538,13.509-1.538c0.376,0,0.736,0.01,1.078,0.031
		C302.736,464.241,298.104,461.613,293.449,459.03z"/>
	<path fill="#FFD975" d="M295.753,228.753c-25.226,10.272-48.998,25.532-46.117,21.568c6.389-8.783,18.967-17.854,37.934-26.779
		c18.967-8.923,35.702-13.013,53.925-12.273C350.896,211.655,322.63,217.805,295.753,228.753z"/>
	<path fill="#FFD975" d="M383.149,222.056c0.558,5.299-5.951,12.273-13.018,10.787c-7.065-1.491,5.207,8.183,13.018,2.231
		C390.957,229.123,382.403,214.994,383.149,222.056z"/>
	<path fill="#FFD975" d="M449.603,489.915c5.612,1.004,17.832,2.407,15.83,4.807C463.43,497.127,441.01,488.38,449.603,489.915z"/>
	<path fill="#FFD975" d="M441.789,497.929c4.508,2.04,14.028,6.813,11.622,7.616C451.005,506.345,433.374,494.119,441.789,497.929z"
		/>
	<path fill="#FFD975" d="M366.046,498.729c1.943-2.651,10.22-5.812,15.428-6.013C386.682,492.516,363.841,501.737,366.046,498.729z"
		/>
	<path fill="#FF6661" d="M368.214,322.254c4.112-6.013,19.529-10.838,28.467-1.895C413.763,337.437,359.159,335.487,368.214,322.254
		z"/>
	<path fill="#FF6661" d="M391.304,115.704c-2.163-13.839,1.897-39.223,22.459-41.752
		C434.322,71.421,392.886,125.829,391.304,115.704z"/>
	<path fill="#FF6661" d="M349.552,141.643c4.868,3.406,20.876,6.327,27.201-0.632c6.327-6.958,3.097,14.986-16.448,15.498
		C348.285,156.822,346.389,139.426,349.552,141.643z"/>
	<path fill="#FF6661" d="M469.749,118.552c2.977-6.161,13.917-23.722,30.683-17.077C517.197,108.114,465.32,127.726,469.749,118.552
		z"/>
	<path fill="#FF6661" d="M532.064,168.212c10.744-6.029,27.832-14.551,30.68,2.534C565.593,187.824,519.094,175.489,532.064,168.212
		z"/>
</g>
</svg>
