<?xml version="1.0" encoding="utf-8"?>
<!-- Generator: Adobe Illustrator 17.0.0, SVG Export Plug-In . SVG Version: 6.00 Build 0)  -->
<!DOCTYPE svg PUBLIC "-//W3C//DTD SVG 1.1//EN" "http://www.w3.org/Graphics/SVG/1.1/DTD/svg11.dtd">
<svg version="1.1" id="Layer_1" xmlns="http://www.w3.org/2000/svg" xmlns:xlink="http://www.w3.org/1999/xlink" x="0px" y="0px"
	 width="800px" height="600px" viewBox="0 0 800 600" enable-background="new 0 0 800 600" xml:space="preserve">
<path fill="#BA574F" d="M185.7,310.045c0,0,3.571,167.726,161.236,203.745c192.193,43.907,284.493-101.106,256.895-229.408
	c-18.837-87.609-75.932-128.773-75.932-128.773L413.226,336.956L185.7,310.045z"/>
<path fill="#737F85" d="M182.108,296.603l212.069,32.767L226.351,195.746C226.351,195.746,193.976,235.392,182.108,296.603z"/>
<path fill="#558799" d="M282.341,144.104L405.616,329.37l96.391-188.85C502.007,140.519,405.616,68.921,282.341,144.104z"/>
<path fill="#2F4F66" d="M405.616,329.37l-79.052-206.713c0,0-38.418,10.762-68.509,40.645L405.616,329.37z"/>
</svg>
