<?xml version="1.0" encoding="utf-8"?>
<!-- Generator: Adobe Illustrator 17.0.0, SVG Export Plug-In . SVG Version: 6.00 Build 0)  -->
<!DOCTYPE svg PUBLIC "-//W3C//DTD SVG 1.1//EN" "http://www.w3.org/Graphics/SVG/1.1/DTD/svg11.dtd">
<svg version="1.1" id="Layer_1" xmlns="http://www.w3.org/2000/svg" xmlns:xlink="http://www.w3.org/1999/xlink" x="0px" y="0px"
	 width="800px" height="600px" viewBox="0 0 800 600" enable-background="new 0 0 800 600" xml:space="preserve">
<path fill="#83B7B8" d="M282.153,119.781c71.795-72.793,220.625-60.119,280.279,32.67c59.651,92.79-30.859,232.271-171.138,229.322
	C242.647,378.643,172.957,230.49,282.153,119.781z"/>
<path fill="#826654" d="M476.883,383.743c-207.464,44.957-276.726-79.502-258.751-180.798
	C236.101,101.647,344.838,71.164,344.775,68.708c-0.06-2.462-9.225-17.466-9.225-17.466S234.958,92.126,208.771,191.456
	C174.98,319.634,279.469,441.703,476.989,399.58L476.883,383.743z"/>
<path fill="#826654" d="M400.633,401.158l-12.201,83.63c-45.422,2.43-93.509,22.048-93.509,22.048s88.358,39.337,220.919-1.775
	c0,0-34.006-12.975-93.102-21.08l-15.725-82.824H400.633z"/>
<path fill="#788763" d="M440.017,75.852c0,0-6.054,18.08-8.084,18.08c-2.028,0-31.116,6.522-33.824,7.826
	c-2.707,1.307-6.089,13.05-6.089,13.05s18.235,1.302,24,2.61c5.765,1.302,24.704,17.612,35.529,22.829
	c10.823,5.22,35.176,15.003,39.235,7.829c4.06-7.176,13.53-12.396,23.676-14.352c10.147-1.959,26.738-7.506,26.738-7.506
	S504.925,87.775,440.017,75.852z"/>
<path fill="#788763" d="M373.757,121.983c-4.497,2.974-16.235,22.179-16.235,22.179s27.058-6.524,29.088-7.174
	c2.032-0.657,26.382-3.264,25.705-7.829C411.641,124.59,377.342,119.609,373.757,121.983z"/>
<path fill="#788763" d="M365.638,150.613c-1.746,4.516-14.205,30.08-18.939,31.385c-4.736,1.303-7.15,13.7-6.958,14.351
	c0.192,0.653,44.176,43.057,45.184,43.707c1.007,0.652,24.036,0.652,27.405,0c3.369-0.65,16.899,4.404,18.927,5.219
	c1.139,0.456,11.5,8.005,19.618,17.616c6.362,7.53,14.92,12.085,15.734,16.958c1.851,11.093,11.323,8.481,22.822,11.745
	c11.501,3.262,26.384,10.436,26.384,10.436s16.234-41.749,14.879-52.189c-1.352-10.435-8.79-35.226-10.822-35.879
	c-2.03-0.653-18.854-28.776-21.645-40.444c-4.06-16.96-14.656-20.296-17.814-22.904c-3.156-2.61-30.214-5.146-22.775-6.451
	c3.801-0.669-19.616,14.35-19.616,14.35c-8.793-1.303-38.556-5.217-46.001-5.217C384.58,153.295,366.721,147.822,365.638,150.613z"
	/>
<path fill="#788763" d="M238.072,286.372c0,0,36.926,20.877,44.363,20.877c7.441,0,31.118,9.133,32.471,13.698
	c1.351,4.569,9.468,27.4,9.468,27.4l18.944,15.003l8.459,13.892c0,0-47.775-9.267-79.531-40.61
	C240.495,305.294,238.072,286.372,238.072,286.372z"/>
<path fill="#788763" d="M578.061,189.547c0,0-11.513,14.631-8.806,19.2c2.704,4.562,5.689,18.323,4.2,20.903
	c-1.496,2.581-4.613,21.499-4.613,21.499v21.863c0,0,15.924-30.548,12.24-58.395C577.396,186.768,578.061,189.547,578.061,189.547z"
	/>
<path fill="#C4B8BB" d="M562.432,152.451c-6.997-10.884-15.257-20.621-24.439-29.292c42.766,86.259-40.125,206.118-165.849,203.475
	c-71.722-1.511-123.755-39.175-143.237-89.491c-0.169,76.535,63.69,142.552,162.387,144.629
	C531.573,384.722,622.083,245.241,562.432,152.451z"/>
</svg>
