<?xml version="1.0" encoding="utf-8"?>
<!-- Generator: Adobe Illustrator 17.0.0, SVG Export Plug-In . SVG Version: 6.00 Build 0)  -->
<!DOCTYPE svg PUBLIC "-//W3C//DTD SVG 1.1//EN" "http://www.w3.org/Graphics/SVG/1.1/DTD/svg11.dtd">
<svg version="1.1" id="Layer_1" xmlns="http://www.w3.org/2000/svg" xmlns:xlink="http://www.w3.org/1999/xlink" x="0px" y="0px"
	 width="800px" height="600px" viewBox="0 0 800 600" enable-background="new 0 0 800 600" xml:space="preserve">
<g>
	<path d="M552.251,334.438c-1.195-0.169-2.336-0.085-3.42,0.19c1.512-4.125,1.846-8.535-0.089-12.648
		c-2.016-4.287-6.455-5.214-10.356-3.183c-3.567,1.859-4.177,6.981-4.221,10.476c-0.035,2.805,0.656,7.689,0.64,8.411
		c-8.582,2.433-20.074-13.437-26.139-23.319c2.171-10.537,4.098-32.458,0.287-49.328c3.556,1.09,6.013-0.575,6.221-4.479
		c0.246-4.646-0.95-8.908-0.727-13.56c0.373-7.723,2.542-19.371,5.197-21.597c0.27,12.399,3.398,26.562,9.352,36.105
		c-2.525,1.63-4.495,4.558-5.419,7.078c-1.947,5.305,1.889,9.766,6.868,11.016c4.296,1.077,7.008-1.486,8.701-4.514
		c4.743,1.459,8.098-3.552,9.229-8.087c4.531-0.918,5.319-5.622,3.485-9.105c-2.421-4.601-5.812-10.049-7.628-14.165
		c-2.619-5.937-7.16-18.469-9.324-24.578c-2.145-6.057-3.753-14.892-10.169-15.499c-3.955-0.373-5.59,2.187-6.373,5.548
		c-4.73,4.858-13.606,19.879-16.268,32.591c-7.507-16.829-23.506-39.102-33.415-51.551c-7.893-9.913-18.221-21.881-30.273-26.921
		c-1.111-1.906-2.058-3.603-3.537-6.339c10.042-19.231,32.295-42.639,41.449-43.455c-6.699,10.866-10.087,23.196-13.228,35.685
		c-2.438,9.685,1.452,15.149,11.204,15.198c23.096,0.112,21.798-17.767,21.433-38.875c-0.16-9.236-1.131-38.934-15.457-34.539
		c-7.964,2.443-22.848,20.32-28.084,26.467c-8.658,10.163-20.409,24.907-23.282,33.797c-1.311-0.392-2.72-0.193-4.208,0.958
		c-2.501-3.461-6.499-4.481-10.39-3.994c2.397-1.56,5.812-7.963,4.961-7.397c-5.365,3.572-11.665,6.52-16.997,8.052
		c-1.351,0.388,0.713,3.043,4.303,2.497c-1.05,0.818-1.941,1.741-2.575,2.745c-14.082-4.781-14.258-24.705-9.246-35.687
		c3.479-7.62,11.566-12.634,19.931-8.329c3.273,1.686,7.218,4.806,11.111,3.419c5.482-1.954,2.474-11.946,1.249-15.764
		c-2.531-7.882-7.241-16.367-16.554-16.227c-20.958,0.316-37.418,16.582-39.968,36.926c-2.149,17.119,10.908,44.157,31.149,42.976
		c-0.237,2.46-0.104,5.118,0.574,7.439c-3.385-1.814-7.208-2.228-10.917-0.07c-1.209,0.704-2.2,1.579-3.001,2.568
		c0.267-2.334,0.407-4.65,0.47-6.821c0.023-0.865-1.29-1.069-1.625-0.323c-2.885,6.419-5.929,14.187-4.916,21.34
		c0.092,0.652,0.937,0.634,1.255,0.202c1.033-1.402,1.855-2.962,2.524-4.616c0.264,1.534,0.769,3.053,1.518,4.48
		c0.811,1.55,1.902,2.85,3.165,3.877c-5.629,7.056-35.646,32.013-44.053,38.532c-3.168-12.191-14.357-17.39-29.621-9.541
		c-12.266,6.307-19.629,20.244-13.194,32.807c5.799,11.324,21.785,13.129,34.983,0.889c4.076,13.129,15.043,24.745,28.397,28.056
		c12.537,3.107,26.619-2.57,35.697-11.103c6.685-6.283,11.873-13.597,16.118-21.502c6.088,5.885,13.676,9.864,21.178,13.708
		c3.923,2.01,8.026,4.3,12.262,6.087c0.739,16.043-13.116,31.213-16.624,33.535c-0.102-10.067-1.451-20.706-8.149-26.467
		c-5.308-4.564-9.915-0.164-11.74,5.028c-0.858-1.561-2.194-2.631-4.276-3.35c-3.012-1.039-6.382,0.475-8.444,2.637
		c-2.459,2.576-3.168,7.731-3.415,11.305c-3.437-2.785-8.543,1.501-7.558,8.526c0.686,4.885,5.438,15.609,9.472,19.818
		c-0.702,0.789-2.458,2.192-3.345,2.462c-4.995-8.775-13.515-17.158-21.296-22.893c-10.828-7.979-21.663-10.735-30.031,2.089
		c-6.669,10.218-8.55,26.157-7.08,37.967c1.272,10.218,6.525,20.566,13.268,29.634c-5.35-4.734-11.504-9.906-16.516-14.251
		c-7.982-6.921-16.326-11.306-27.179-9.957c-8.414,1.044-14.416,7.414-19.571,13.516c-6.928,8.205-9.67,16.542-7.956,18.711
		c1.713,2.171,6.116,1.685,8.607,1.146c-0.344,1.314,0.671,2.245,2.471,2.624c2.481,0.523,5.741,0.052,8.109-0.571
		c0.03,1.423,1.138,2.778,1.943,2.856c5.939,0.571,13.675-0.734,15.988-2.626c1.256-1.029,1.826-7.423,1.856-11.572
		c12.647,5.29,26.89,13.464,39.031,23.108c6.211,4.932,12.558,10.441,17.504,16.675c2.196,2.768,3.624,5.365,5.337,6.052
		c-4.454,5.94-8.363,16.653-20.389,19.022c-13.862,2.734-25.814-3.923-34.658-14.341c-2.627,1.941,0.054,9.689,1.597,12.905
		c-9.022-6.852-13.248-15.417-16.902-25.353c-3.883,2.397-4.614,11.17-3.998,16.218c-5.944,10.743,4.242,26.68,11.258,34.286
		c7.243,7.856,15.323,14.328,25.402,17.334c-5.337,0.489-10.849,7.767-10.278,12.105c7.081-6.281,17.63-1.189,30.498-1.002
		c11.215,0.163,22.541-4.852,30.67-12.06c10.927-9.69,17.177-18.949,18.948-29.324c1.771-10.377,1.314-27.166,4.567-33.831
		c8.853,21.855,28.243,9.313,39.39-1.628c9.236-9.066,15.861-20.098,22.521-31.095c9.066-14.976,17.187-31.003,22.612-47.703
		c3.466,6.16,6.602,12.527,9.842,19.114c4.02,8.169,9.93,15.556,18.304,19.095c6.671,2.818,13.418-2.47,14.466-9.098
		c7.233-1.524,11.687-7.69,11.421-15.805C558.049,338.787,556.081,334.981,552.251,334.438z M397.313,394.613
		c-4.068,2.427-6.744,5.954-7.489,7.49c-2.98-7.519-7.811-16.338-12.454-23.259C381.01,380.431,392.368,389.235,397.313,394.613z"/>
	<path fill="#F2F0DB" d="M548.715,265.069c-0.124-3.057-1.576-5.358-2.545-5.963c-1.395-0.874-2.36-0.24-2.107,0.049
		c1.12,1.279,2.142,3.496,2.107,5.28c-0.115,5.827-4.056,8.677-6.659,9.006c1.741-4.791,1.743-7.359,1.453-10.702
		c-0.242-2.785-1.421-3.834-1.41-3.394c0.12,5.269-0.915,12.816-5.027,16.536c-3.25,2.94-8.423-0.235-8.825-4.101
		c-0.551-5.301,4.754-8.757,8.977-10.334c2.047-0.765-2.473-1.259-3.615-0.916c-0.942-2.278-1.802-4.601-2.595-6.933
		c0.974-1.483,2.328-3.082,4.129-1.821c0.566,0.396,1.03,0.833,1.657,1.13c0.951,0.449,2.521-0.148,3.008-1.051
		c0.678-1.252,0.431-7.194,2.844-6.392c1.169,0.388,2.402,1.576,3.656,2.198C547.173,253.308,553.825,263.195,548.715,265.069z"/>
	<path fill="#E5BC7D" d="M517.773,213.149c-0.055,1.645,0.846,3.277,0.913,2.855c0.297-1.909,1.198-9.217,4.236-10.048
		c4.615-1.264,6.477,3.316,7.749,7.747c3.027,10.534,9.471,25.659,11.441,30.9c0.087,0.233,0.214,0.507,0.369,0.815
		c-0.99-0.541-1.974-0.951-2.602-0.94c-2.018,0.035-2.614,1.853-2.791,3.543c-0.163,1.58-0.404,5.836-3.539,3.398
		c-0.528-0.411-1.225-1.013-1.955-0.978c-1.721,0.08-2.638,1.167-3.353,2.463c-4.971-14.895-7.045-30.02-7.616-35.943
		c-0.042-0.44-1.091,0.618-1.212,4.128c-3.506,4.511-6.188,14.088-7.265,22.156c-0.436,3.267-0.133,8.118,0.121,11.38
		c0.281,3.64,1.282,9.214-3.976,7.52c-1.274-5.432-2.965-10.734-4.981-15.923C506.216,233.681,513.116,219.878,517.773,213.149z"/>
	<path fill="#B98869" d="M482.266,159.621c-3.175,0.98-6.488,1.324-9.794,1.314c-10.455-0.035-6.069-13.618-4.579-19.26
		c0.378-1.426,0.795-2.85,1.241-4.272c2.483-2.377,5.497-4.118,8.799-5.238c5.669-1.924,10.516-0.569,14.65,3.191
		C492.712,145.807,491.203,156.866,482.266,159.621z"/>
	<path fill="#E5BC7D" d="M468.751,103.688c3.369-3.298,6.826-6.332,10.945-8.679c5.418-3.087,7.999,1.458,9.52,5.759
		c2.202,6.231,2.412,13.322,2.639,19.864c0.121,3.51,0.565,8.232,0.698,13.191c-5.74-6.362-16.858-3.353-23.003,2.322
		c3.319-10.139,8.239-20.093,13.585-29.159c0.4-0.682-3.149,0.845-5.385,4.317c-14.984,0.724-39.226,32.515-44.264,43.857
		c-0.781-1.082-1.633-2.077-2.561-2.808C435.201,139.377,460.862,111.41,468.751,103.688z"/>
	<path fill="#B98869" d="M431.472,155.871c1.983,3.053,4.842,7.669,7.858,12.631c-1.056,5.215-6.892,6.286-11.43,8.34
		c-3.126,1.415-5.39,3.667-8.928,4.326c-4.445,0.828-7.944-1.221-10.995-6.224c3.396,2.545,9.686,3.046,14.283,0.463
		c-1.63,3.151-0.59,3.972-0.311,3.608c3.433-4.493,7.861-9.117,12.005-10.901c0.818-0.352-1.54-1.601-5.372-0.204
		c1.328-4.307,0.358-9.263-2.053-13.222C427.482,153.609,429.489,152.822,431.472,155.871z"/>
	<path fill="#FFFFFF" d="M405.459,157.789c2.731-7.101,11.786-9.376,16.638-4.227c-4.982-0.396-8.433,3.12-9.104,7.503
		c-0.587,3.852,1.668,7.777,5.545,8.722c2.976,0.724,5.282-0.212,7.692-2.752c-3.386,8.856-14.456,8.465-18.946,4.25
		C403.98,168.186,403.831,162.021,405.459,157.789z"/>
	<path fill="#E5BC7D" d="M402.127,158.621c-14.148,1.269-24.194-14.97-27.34-25.82c-3.211-11.06-0.647-23.161,5.734-32.526
		c6.156-9.035,17.209-14.578,27.814-15.969c8.94-1.173,12.761,5.382,15.622,12.431c2.084,5.143,3.996,16.806-6.015,11.296
		c-13.365-7.357-23.84,2.142-27.67,15.388c-2.977,10.29,0.165,30.274,12.555,32.998
		C402.556,157.086,402.315,157.815,402.127,158.621z"/>
	<path fill="#FFFFFF" d="M389.672,183.012c-1.97-4.282-0.607-10.155,3.806-12.2c3.048-1.413,5.611-1.413,8.283,0.403
		c-5.926,1.106-5.682,7.219-4.898,9.363c0.978,2.669,2.911,4.075,5.142,4.46c2.012,0.349,3.653-0.625,4.777-2.092
		c-0.543,3.622-3.472,5.575-6.927,6.096C395.231,189.74,391.456,186.89,389.672,183.012z"/>
	<path fill="#EA8C62" d="M336.255,249.242c-7.461,7.907-20.01,11.528-27.402,2.255c-7.38-9.258-1.62-23.124,6.066-28.915
		c9.162-6.9,21.388-6.693,25.681,1.214C344.895,231.701,344.24,240.78,336.255,249.242z"/>
	<path fill="#C77552" d="M341.225,225.045c-0.182,4.383-2.249,8.718-5.148,12.55c-5.317,7.032-14.303,13.276-23.598,11.248
		c-2.357-0.514-4.473-1.358-6.308-2.499c0.547,1.81,1.407,3.553,2.682,5.153c7.392,9.273,19.941,5.652,27.402-2.255
		C343.823,241.223,344.798,232.65,341.225,225.045z"/>
	<path fill="#B98869" d="M405.196,261.501c-9.191,10.326-23.233,16.658-37.042,14.859c-15.326-1.998-24.926-21.627-27.15-26.683
		c4.4-5.533,7.376-12.825,5.956-19.127c4.553-2.777,12.85-8.747,21.619-15.798c2.286-0.115,4.294-0.235,6.453,1.993
		c2.823,2.91,1.768,6.874,1.755,10.411c-0.007,1.955,0.945,4.636,2.631,5.797c2.653,1.83,5.912,2.008,8.883,3.12
		c6.461,2.42,1.042,7.73-0.197,11.349c-1.401,4.098,1.332,6.738,5.418,6.177c2.277-0.313,4.451-1.582,6.327-2.846
		c2.697-1.82,5.522-3.153,8.665-1.377c1.581,0.893,2.412,2.274,3.015,3.8C409.523,256.215,407.404,259.02,405.196,261.501z"/>
	<path fill="#E5BC7D" d="M419.85,246.092c0.304-0.586,0.614-1.169,0.908-1.761c9.025,5.811,18.236,13.298,29.383,13.298
		c6.007-0.002,11.708-4.431,11.751-10.715c0.089-13.551-6.712-26.145-12.491-38c-4.549-9.332-9.483-20.132-18.388-26.091
		c2.939-1.558,6.14-2.732,9.346-3.787c0.624-0.207,0.845-1.28,0.122-1.539c-7.395-2.653-19.58,4.425-19.123,12.911
		c0.021,0.356,0.567,0.564,0.775,0.236c1.904-3.013,4.461-5.206,7.34-6.947c0.028,0.028,0.059,0.056,0.088,0.082
		c4.702,14.417-3.554,46.731-17.269,68.208c-1.518-3.465-6.233-5.685-9.764-3.99c-1.426,0.683-2.695,1.487-3.987,2.391
		c-1.334,0.938-2.694,1.581-4.188,2.159c-2.314,0.898-6.699,1.054-5.715-4.123c0.579-3.047,3.337-5.084,3.503-8.33
		c0.088-1.679-1.262-3.375-2.587-4.233c-4.481-2.901-9.887-1.129-11.9-7.48c-1.163-3.668,1.159-7.882-1.133-11.336
		c-1.905-2.873-4.103-3.455-6.772-3.238c8.798-7.136,17.921-15.259,24.118-22.289c13.207,2.826,17.208-7.063,15.176-14.043
		c1.892,2.292,4.215,4.333,7.253,4.527c5.271,0.336,8.073-2.494,12.562-4.603c2.731-1.284,10.308-3.445,11.443-7.291
		c5.472,9.037,11.204,18.779,13.031,22.169c8.163,15.134,16.666,30.431,20.035,47.498c1.358,6.878,1.753,14.005,0.243,20.881
		c-2.304,10.499-12.735,7.867-20.099,4.922C441.728,260.866,429.582,254.316,419.85,246.092z"/>
	<path fill="#FFFFFF" d="M432.199,186.641c7.262,11.706,10.871,23.379,8.951,37.332c-1.672,12.157-6.727,20.447-12.953,22.764
		c-2.283-1.506-4.462-3.012-6.484-4.314C428.964,225.614,435.031,202.159,432.199,186.641z"/>
	<path fill="#FFFFFF" d="M450.839,217.047c1.603,3.853,3.08,7.709,4.497,11.462c3.304,8.753,8.48,24.881-5.445,26.369
		c-5.06,0.541-10.319-1.463-15.331-4.236c4.474-0.474,9.445-5.549,11.611-8.457C451.016,235.681,452.608,225.051,450.839,217.047z"
		/>
	<path fill="#F2F0DB" d="M396.402,304.882c-3.245-7.629-1.842-14.555,3.333-12.451c0.109,1.01,0.537,2.562,0.888,3.459
		c-1.561,0.747-2.714,2.344-2.762,4.408c-0.078,3.54,3.45,9.584,6.257,11.251c2.805,1.666,5.616-1.935,5.66-5.173
		c0.048-3.538-1.198-7.847-4.212-9.99c-0.856-0.608-1.771-0.906-2.663-0.953c-0.715-4.142-0.363-10.718,2.127-13.964
		c2.928-3.82,7.43-2.665,10.227,0.002c-0.154,1.126,1.659,5.543,1.753,4.383c0.175-2.193,0.788-4.47,1.841-6.575
		c1.054-2.105,4.386-5.176,7.454-1.93c3.069,3.245,4.561,7.718,4.954,12.09c-2.81-2.58-6.563-2.072-8.332,1.781
		c-1.383,3.015-0.831,8.751-0.163,11.686c-0.826-0.054-3.122,0.411-4.351,0.836c2.647-4.596,2.826-13.222-2.404-15.291
		c-4.442-1.758-8.641,1.557-8.184,5.959c0.678,6.526,4.274,11.698,6.444,12.105c-4.187,3.016-7.183,7.707-6.097,10.952
		c1.048,3.129,5.437,4.741,8.338,5.294c6.361,1.214,9.754-7.064,10.953-11.902c0.514-2.076,0.328-3.902-0.4-5.286
		c2.311-0.954,4.504-3.322,5.295-5.444c0.631,4.851,0.956,23.374-0.441,36.398c-1.052,4.292-2.641,8.405-4.663,12.414
		c-0.856,1.698-1.757,3.373-2.72,5.014c-1.097,1.872-4.538,7.366-5.015,2.095c-0.028-0.322-0.438-0.499-0.633-0.188
		c-1.242,1.964-1.908,4.061-2.54,6.288c-0.523,1.84-1.055,3.599-1.87,5.341c-0.311,0.62-0.685,1.199-1.123,1.734
		c-2.449,0.83-4.085,0.745-4.953-0.204c1.549-15.71,0.015-31.63-0.422-47.48C407.941,320.299,402.147,318.382,396.402,304.882z"/>
	<path fill="#ED9678" d="M404.82,298.57c3.618,4.896,3.595,12.276,0.053,10.85c-2.074-0.834-3.761-5.181-4.527-7.832
		C399.294,297.957,402.883,295.951,404.82,298.57z"/>
	<path fill="#ED9678" d="M415.43,308.478c4.119-2.981,11.84-5.716,10.258,1.403c-0.716,3.224-3.231,8.893-6.534,10.061
		c-3.287,1.163-6.443-0.679-8.109-2.432C409.378,315.757,411.306,311.461,415.43,308.478z"/>
	<path fill="#ED9678" d="M414.747,304.097c-1.431,0.044-3.654-4.242-4.282-6.767c-0.821-3.323-0.738-8.122,4.4-6.792
		C419.925,291.845,417.796,304.005,414.747,304.097z"/>
	<path fill="#ED9678" d="M425.499,303.165c-2.302-3.526-1.174-16.847,4.334-11.837C433.378,294.552,428.929,303.392,425.499,303.165
		z"/>
	<path fill="#D48057" d="M404.82,298.57c-0.057-0.077-0.124-0.119-0.184-0.188c0.26,3.492,0.068,7.001-0.699,10.384
		c0.301,0.285,0.612,0.524,0.936,0.654C408.415,310.846,408.438,303.466,404.82,298.57z"/>
	<path fill="#D48057" d="M416.264,316.777c-1.999,0.482-4.208,0.511-5.709-0.247c0.092,0.373,0.236,0.713,0.49,0.98
		c1.666,1.753,4.822,3.595,8.109,2.432c3.304-1.168,5.818-6.837,6.534-10.061c0.032-0.145,0.037-0.26,0.061-0.397
		C424.105,313.053,419.945,315.889,416.264,316.777z"/>
	<path fill="#D48057" d="M415.934,295.859c-0.999,1.419-2.344,3.317-4.245,3.47c-0.193,0.015-0.372,0-0.547-0.023
		c0.951,2.311,2.508,4.824,3.606,4.79c2.239-0.067,3.972-6.639,2.731-10.645C416.98,294.288,416.465,295.103,415.934,295.859z"/>
	<path fill="#D48057" d="M424.399,298.495c0.084,1.913,0.453,3.679,1.1,4.671c2.094,0.139,4.545-3.095,5.347-6.37
		C428.722,298.359,426.444,299.188,424.399,298.495z"/>
	<path fill="#E5BC7D" d="M345.759,310.292c1.773-5.453,4.547-10.75,9.438-13.979c8.819-5.822,20.669,3.827,26.736,9.448
		c5.963,5.523,11.475,12.032,14.156,16.845c2.681,4.813,5.133,10.483,6.52,15.785c0.456,1.741,1.005-1.244,0.719-3.344
		c-0.525-3.86-1.534-7.502-3.943-12.248c1.397-0.218,3.076-1.113,4.031-2.133c0.915,0.6,1.666,1.404,2.714,1.683
		c0.044,18.536,1.42,36.669-2.053,55.061c-1.046,5.527-3.051,10.78-4.747,16.092c-0.763-2.092-7.512-8.186-13.989-12.753
		c-0.933-4.16-3.897-7.069-5.382-11.179c-1.44-3.982-1.048-8.544-3.56-12.128c-3.315-4.728-10.696-1.078-13.984-5.36
		c-2.932-3.815,4.214-16.255-3.466-17.103c-4.806-0.532-9.187,3.718-13.389-0.352c-2.356-2.281-2.746-5.775-3.145-9.046
		C342.95,320.391,344.153,315.235,345.759,310.292z"/>
	<path fill="#B98869" d="M382.088,408.382c-2.17-3.06-5.59-6.15-7.309-7.871c-14.313-14.314-33.345-29.784-53.789-34.924
		c-0.342-2.397-1.826-4.454-1.826-3.425c0,3.461-1.342,13.543-2.17,14.96c-0.831,1.417-12.729,2.778-13.021,1.028
		c-0.685-4.112,2.854-12.448,4.568-15.417c0.301-0.521-1.484,0.229-3.196,2.627c-2.384,3.337-4.341,7.994-4.315,11.72
		c-3.337,0.386-7.921,0.139-7.792-0.984c0.342-2.97,3.819-11.837,6.021-15.204c0.338-0.517-2.136,0.244-3.736,2.87
		c-1.665,2.733-3.998,7.195-4.885,11.456c-1.512,0.192-6.276,0.697-6.576-1.269c-0.304-1.965,3.352-9.959,9.056-16.641
		c8.225-9.637,19.049-14.366,31.061-8.891c7.449,3.397,13.525,9.623,19.905,14.611c6.487,5.073,11.428,9.545,11.512,9.527
		c2.621,2.742,12.563,11.992,17.247,16.902c1.002,1.051,0.685-2.055-3.769-7.08c-9.705-10.951-18.059-20.847-23.771-34.437
		c-2.38-5.665-3.282-11.626-3.175-17.613c0.915,3.46,2.756,6.569,6.081,7.184c3.891,0.719,13.013-4.924,13.611,2.129
		c0.315,3.733-1.655,7.039-0.906,10.903c0.922,4.74,6.397,4.356,10.066,4.842c6.016,0.796,6.682,6.296,7.578,11.329
		c0.468,2.624,1.286,4.822,2.627,7.1c1.143,1.943,1.954,3.935,2.753,5.961c-3.066-2.063-5.966-3.686-8.013-4.25
		c-8.236-13.189-12.386-14.294-11.994-13.702c6.555,9.933,13.116,19.711,18.334,30.433c2.357,4.841,5.215,12.115,5.546,15.129
		C388.26,411.501,384.948,412.414,382.088,408.382z"/>
	<path fill="#A06C4F" d="M488.681,154.817c-0.614-1.102-1.373-2.154-2.32-3.125c-4.429-4.539-9.692-5.387-14.946-1.468
		c-2.174,1.621-3.978,3.559-5.442,5.735c0.611,2.868,2.414,4.962,6.499,4.976c3.307,0.011,6.619-0.334,9.794-1.314
		C485.083,158.753,487.159,157.057,488.681,154.817z"/>
	<path fill="#A06C4F" d="M414.211,179.539c2.573,0.506,5.028,0.188,7.177-1.079c-0.071-0.565,0.087-1.531,0.874-3.051
		c-4.291,2.41-10.025,2.11-13.534-0.005C410.074,177.399,411.637,179.031,414.211,179.539z"/>
	<path fill="#A06C4F" d="M433.192,167.407c1.123-5.023-0.78-11.238-5.376-13.56c-0.517,0.162-0.964,0.478-1.284,0.843
		c2.411,3.959,3.381,8.915,2.053,13.222C430.639,167.162,432.246,167.181,433.192,167.407z"/>
	<path fill="#A06C4F" d="M350.603,228.184c-1.379,0.934-2.614,1.74-3.641,2.366c1.42,6.302-1.556,13.595-5.956,19.127
		c0.641,1.459,1.922,4.145,3.76,7.26C350.441,252.49,355.109,235.61,350.603,228.184z"/>
	<path fill="#A06C4F" d="M378.367,276.261c9.385-1.359,18.283-6.091,25.029-12.85C393.084,263.263,381.502,267.078,378.367,276.261z
		"/>
	<path fill="#A06C4F" d="M307.201,363.329c-5.974,1.114-9.258,7.412-10.652,13.88c1.414,0.084,3.06,0.035,4.48-0.129
		c-0.025-3.726,1.932-8.383,4.315-11.72C305.993,364.454,306.649,363.786,307.201,363.329z"/>
	<path fill="#A06C4F" d="M297.431,361.618c-5.557,0.105-8.235,7.246-9.393,13.799c1.051-0.017,2.044-0.129,2.6-0.2
		c0.887-4.261,3.219-8.723,4.885-11.456C296.104,362.809,296.796,362.109,297.431,361.618z"/>
	<path fill="#A06C4F" d="M355.864,382.059c-5.465-4.955-11.348-9.348-17.745-13.029c-5.304-3.049-11.451-6.555-17.705-5.485
		c0.25,0.598,0.469,1.297,0.576,2.043c15.802,3.973,30.749,14.121,43.335,25.131C361.664,387.684,358.858,384.774,355.864,382.059z"
		/>
	<path fill="#A06C4F" d="M366.508,363.348c2.011,1.796,5.163,5.37,9.415,12.177c1.96,0.541,4.703,2.055,7.623,3.995
		C379.708,372.201,374.571,365.776,366.508,363.348z"/>
	<path fill="#A06C4F" d="M351.687,338.645c1.565-0.035,3.414-0.575,4.955-0.194c3.694,0.919,3.589,5.422,3.022,8.469
		c-1.7,9.156,7.122,9.507,13.388,11.215c1.352,0.37,2.569,0.852,3.686,1.44c-1.027-2.16-2.699-3.784-5.759-4.19
		c-3.669-0.486-9.145-0.102-10.066-4.842c-0.75-3.864,1.221-7.17,0.906-10.903c-0.598-7.053-9.72-1.41-13.611-2.129
		c-0.011-0.002-0.022-0.008-0.035-0.01C349.146,338.23,350.297,338.675,351.687,338.645z"/>
	<path fill="#A06C4F" d="M387.809,407.386c-0.139-1.261-0.721-3.267-1.521-5.526c-0.819,1.723-2.063,3.183-4.015,3.535
		c-0.896,0.16-1.772,0.15-2.627,0.016c0.878,0.964,1.73,1.967,2.442,2.971C384.948,412.414,388.26,411.501,387.809,407.386z"/>
	<path fill="#F2F0DB" d="M365.234,481.94c-4.764,0.412-9.409-0.544-14.32-1.459c-3.519-0.655-8.681-0.797-12.908,1.486
		c2.416-4.216,7.739-6.971,10.394-7.31c5.94,1.258,8.417-0.128,7.731-0.27c-22.805-4.755-51.701-31.822-46.333-48.953
		c1.647,6.411,5.139,13.477,8.878,17.976c2.354,2.834,3.988,2.877,3.571,2.354c-7.35-9.191-14.407-24.829-9.936-35.975
		c3.01,14.383,15.55,25.801,29.211,31.134c4.791,1.869,5.884,1.093,5.54,0.9c-4.478-2.516-8.96-4.893-13.207-7.657
		c-3.246-3.553-5.44-10.217-5.169-12.283c5.782,8.806,16.176,14.516,28.153,14.171c2.666-0.077,5.043-0.408,7.183-0.93
		c2.206,0.905,4.724,0.619,7.11,0.59c1.894-0.023,7.677,0.569,5.35,3.79c-0.366,0.506-1.026,1.416-0.844,2.137
		c1.173,4.653,6.754,0.211,12.257-0.289c2.642-0.24,6.643-0.854,5.84,1.811c-0.411,1.36-2.451,3.475-3.774,4.771
		c-2.085,2.045-4.783,4.32-7.016,6.2c-3.823,3.216-8.684,6.16-12.363,9.857c-1.525,1.532-3.469,3.135-2.823,4.895
		c0.647,1.761,4.836,1.039,7.308,1.078c1.672,0.027,3.177,0.549,4.238,2.713c0.896,1.831,2.325,3.367,4.094,4.247
		C377.703,479.665,371.54,481.398,365.234,481.94z"/>
	<path fill="#E5BC7D" d="M413.346,438.266c-1.332,14.921-11.524,26.992-23.53,35.014c-1.631,1.088-3.328,2.069-5.065,2.969
		c-3.028-0.896-3.636-2.983-5.569-5.3c-0.805-0.964-1.993-1.753-3.296-1.846c-1.532-0.108-8.98,1.314-6.801-2.125
		c1.523-2.398,3.977-4.293,6.16-6.057c3.738-3.026,7.646-5.743,11.192-9c2.507-2.302,6.318-5.011,7.751-8.214
		c1.174-2.619-1.288-3.524-4.564-3.267c-3.662,0.283-8.3,1.918-9.251,2.233c-1.803,0.6-4.059,0.408-3.819-1.512
		c0.126-1.012,1.093-1.883,1.267-2.48c0.173-0.598,0.078-1.51-0.813-2.325c-2.588-2.37-9.153-1.204-11.339-1.69
		c12.945-3.996,16.185-15.462,19.621-19.852c4.338,0.913,6.011-4.599,5.286-9.201c1.791-4.451,6.441-7.959,7.839-9.063
		c-1.706,6.614-1.706,11.525,1.135,14.265c5.272,5.081,11.638,3.118,17.498-0.394C414.074,419.038,414.119,429.585,413.346,438.266z
		"/>
	<path fill="#E5BC7D" d="M465.731,394.629c-9.323,12.452-32.183,37.033-43.693,14.427c9.849-3.951,10.338-8.139,9.849-7.72
		c-3.998,3.425-8.108,5.711-9.914,5.803c11.397-7.744,16.56-18.434,23.504-30.243c2.283-3.883,2.313-7.248,1.953-6.661
		c-5.692,9.313-11.369,18.87-18.852,26.878c-4.015,4.296-8.709,7.777-13.594,10.96c-3.936,2.564-12.149,5.878-14.733-1.314
		c-1.159-3.222,0.928-9.161,2.112-12.089c3.235-7.999,4.985-16.097,5.887-24.254c1.456,1.784,4.155,1.528,6.366-1.599
		c2.376-3.362,2.462-8.045,4.284-11.701c0.15-0.298,0.177,1.879,1.159,2.12c2.838,0.698,5.674-5.782,6.657-7.54
		c1.383-2.477,2.972-5.341,4.261-8.335c-2.298,15.654-5.181,37.641-18.1,47.463c-0.593,0.451,2.462,0.6,5.355-2.469
		c8.223-8.717,9.108-13.884,11.792-25.068c1.817-7.575,3.153-15.19,4.063-22.853c5.405-13.419,18.225-37.7,31.934-24.948
		c14.094,13.111,10.169,39.848,2.694,54.678c-0.214,0.423,1.43,0.79,3.257-2.864c8.208-16.406,10.742-43.412-5.948-56.454
		c-6.363-4.973-13.782-0.57-18.903,3.809c-5.506,4.707-9.562,11.076-12.257,17.934c0.444-5.499,0.688-11.022,0.722-16.577
		c0.022-3.546,0.239-7.825,0.279-12.318c5.785-2.235,21.74-18.544,18.847-35.291c21.9,10.188,24.067-8.425,22.905-20.911
		c-2.025-21.763-23.073-59.748-37.57-81.195c10.428,5.916,18.536,15.646,22.779,20.707c9.001,10.739,18.48,25.013,26.047,36.784
		c8.196,12.746,14.431,26.978,17.433,41.806c3.389,16.75,2.073,32.708,0.234,45.51c-5.613-9.47-11.488-15.784-20.169-23.148
		c-2.194-1.861-4.754-1.29-4.435-1.026c5.387,4.44,10.039,9.321,14.306,14.509c-0.886,0.499-1.644,1.638-2.023,2.441
		c-0.509,1.08-0.863,2.322-0.954,3.565c-3.877-4.657-8.115-9.075-13.072-12.534c-2.132-1.487-3.119-2.132-6.099-2.132
		c-0.264-5.612-1.892-9.025-2.439-10.32c-0.187-0.448-1.858-2.569-1.508-0.553c0.659,3.799,0.932,8.363,0.893,12.211
		c-0.017,1.467,0.864,1.993,1.562,1.642c5.679-2.842,16.215,11.006,19.339,14.899c4.151,5.174,7.324,9.913,10.525,15.411
		C493.424,350.094,481.134,374.056,465.731,394.629z"/>
	<path fill="#CF9957" d="M504.783,240.819c-0.557,1.812-1.057,3.62-1.47,5.404c2.016,5.188,3.707,10.49,4.981,15.923
		c3.727,1.201,4.307-1.252,4.228-4.078C509.611,252.446,506.676,246.697,504.783,240.819z"/>
	<path fill="#CF9957" d="M522.565,230.368c1.214,6.635,3.033,14.61,5.677,22.536c0.715-1.297,1.633-2.383,3.353-2.463
		c0.042-0.002,0.084,0.016,0.126,0.019C529.624,243.39,526.277,236.774,522.565,230.368z"/>
	<path fill="#CF9957" d="M482.249,107.113c-5.479-2.813-12.771,2.484-16.857,5.907c-4.48,3.751-8.647,7.828-12.231,12.456
		c-2.873,3.71-5.458,7.603-7.868,11.603c9.694-12.325,22.938-25.316,32.456-25.776C479.173,109.092,481.118,107.679,482.249,107.113
		z"/>
	<path fill="#CF9957" d="M417.738,107.928c-6.523-4.057-15.791-4.06-21.985,0.529c-5.781,4.283-8.562,11.428-9.301,18.406
		c-0.964,9.125,0.287,20.829,5.335,29.489c3.125,1.701,6.585,2.605,10.34,2.269c0.188-0.807,0.428-1.535,0.699-2.202
		c-12.39-2.724-15.532-22.708-12.555-32.998C394.083,110.242,404.472,100.779,417.738,107.928z"/>
	<path fill="#CF9957" d="M408.792,189.302c2.026-3.414,2.688-7.342,1.334-10.618c-0.374-0.39-0.737-0.793-1.082-1.21
		c2.032,6.98-1.968,16.869-15.176,14.043c-0.484,0.55-1.018,1.116-1.536,1.679C398.282,195.428,405.05,195.611,408.792,189.302z"/>
	<path fill="#CF9957" d="M420.758,244.33c-0.294,0.593-0.604,1.175-0.908,1.761c2.499,2.112,5.161,4.109,7.93,5.998
		c0.348-0.807,0.677-1.629,0.974-2.473C426.045,247.864,423.393,246.026,420.758,244.33z"/>
	<path fill="#CF9957" d="M405.982,246.608c-3.039,0.076-5.281,1.627-8.01,2.725c-2.868,1.154-6.534,0.569-6.039-3.291
		c0.31-2.43,2.111-4.456,2.485-6.88c0.685-4.445-3.125-6.198-6.817-6.583c-2.733-0.285-5.551-0.35-8.155-1.06
		c2.571,2.641,6.617,2.08,10.11,4.341c1.325,0.858,2.675,2.555,2.587,4.233c-0.167,3.246-2.925,5.283-3.503,8.33
		c-0.984,5.177,3.401,5.021,5.715,4.123c1.494-0.578,2.854-1.221,4.188-2.159c1.292-0.905,2.561-1.708,3.987-2.391
		c3.531-1.695,8.246,0.525,9.764,3.99c0.481-0.754,0.943-1.541,1.41-2.32C411.547,247.824,409.013,246.53,405.982,246.608z"/>
	<path fill="#CF9957" d="M439.011,179.493c-2.75,0.942-5.471,1.99-7.997,3.328c1.56,1.043,2.988,2.241,4.324,3.548
		C437.824,184.716,439.399,182.401,439.011,179.493z"/>
	<path fill="#CF9957" d="M423.135,189.273c2.333,0.187,4.977-0.084,7.436-0.783c-0.218-1.721-0.551-3.304-1.01-4.712
		c-0.03-0.026-0.06-0.054-0.088-0.082C427.061,185.154,424.899,186.963,423.135,189.273z"/>
	<path fill="#CF9957" d="M398.585,379.809c-3.068,2.754-6.465,3.642-9.911,3.405c5.288,4.081,10.025,8.557,10.657,10.288
		c1.696-5.312,3.702-10.565,4.747-16.092c0.808-4.282,1.347-8.548,1.707-12.81C404.496,370.113,402.691,376.124,398.585,379.809z"/>
	<path fill="#CF9957" d="M403.415,320.668c-0.954,1.019-2.632,1.913-4.029,2.132c1.896,3.737,2.918,6.789,3.527,9.803
		C403.923,328.634,403.989,324.726,403.415,320.668z"/>
	<path fill="#CF9957" d="M393.917,415.333c2.405-0.599,4.918-0.881,7.375-0.404c5.057,0.978,9.362,4.028,12.477,8.081
		c0.226,0.293,0.432,0.602,0.65,0.903c0.459-4.663,1.185-9.307,2.631-13.495c-5.859,3.512-12.226,5.475-17.498,0.394
		c-2.841-2.74-2.841-7.651-1.135-14.265c-1.398,1.104-6.048,4.613-7.839,9.063c0.724,4.602-0.948,10.114-5.286,9.201
		c-0.862,1.101-1.713,2.649-2.706,4.411C386.726,419.385,389.796,416.36,393.917,415.333z"/>
	<path fill="#CF9957" d="M407.93,436.241c-2.95,12.863-12.381,24.729-23.922,30.878C399.154,468.574,407.811,451.451,407.93,436.241
		z"/>
	<path fill="#CF9957" d="M409.395,431.441c1.911,16.783-7.418,38.344-24.54,37.475c3.267,0.997,6.587,1.277,9.765,0.838
		c9.406-7.528,16.894-17.715,18.521-29.877C412.457,436.91,411.2,434.059,409.395,431.441z"/>
	<path fill="#CF9957" d="M376.476,435.95c0.192,0.122,0.37,0.255,0.533,0.405c0.891,0.816,0.986,1.727,0.813,2.325
		c-0.174,0.597-1.141,1.468-1.267,2.48c-0.24,1.92,2.017,2.112,3.819,1.512c0.232-0.076,0.691-0.234,1.295-0.429
		c-0.309-0.187-0.614-0.379-0.888-0.637c-1.073-1.004-1.188-3.071-1.05-4.405C379.806,436.466,378.364,436.109,376.476,435.95z"/>
	<path fill="#CF9957" d="M473.113,219.424c-2.136-4.65-4.342-9.266-6.681-13.817c-6.018-11.715-14.25-22.526-19.473-34.621
		c-2.167-1.697-4.467-3.3-6.911-4.686c14.496,21.446,35.545,59.431,37.57,81.195c1.162,12.486-1.005,31.099-22.905,20.911
		c0.543,3.143,0.422,6.272-0.172,9.293c10.407,3.554,21.118-1.262,25.209-12.508c4.4-12.092,0.197-25.997-3.76-37.689
		C475.076,224.798,474.096,222.11,473.113,219.424z"/>
	<path fill="#CF9957" d="M470.888,298.893c6.345,2.708,11.989,6.827,16.682,11.878c5.333,5.74,9.668,12.221,13.424,19.045
		c0.488-1.249,1.004-2.493,1.475-3.744c-3.201-5.499-6.374-10.238-10.525-15.411c-3.124-3.892-13.66-17.741-19.339-14.899
		c-0.698,0.351-1.58-0.175-1.562-1.642c0.032-3.125-0.156-6.704-0.576-9.981c-1.796,3.316-3.147,7.13-3.944,10.706
		C465.817,297.989,468.531,297.887,470.888,298.893z"/>
	<path fill="#CF9957" d="M447.123,314.658c5.121-4.379,12.54-8.782,18.903-3.809c14.929,11.665,14.471,34.498,8.337,50.929
		c7.932-9.151,9.474-25.299,7.389-35.876c-1.382-7.008-4.535-14.826-11.326-18.208c-12.373-6.164-25.078,2.765-31.282,13.309
		c-0.517,0.881-1.808,0.202-1.545-0.661c-0.017-0.063-0.044-0.122-0.046-0.197c-0.221-6.014,0.493-11.979,0.946-17.962
		c-0.996,0.704-1.899,1.232-2.631,1.514c-0.04,4.494-0.257,8.772-0.279,12.318c-0.033,5.554-0.277,11.077-0.722,16.577
		C437.561,325.733,441.618,319.365,447.123,314.658z"/>
	<path fill="#CF9957" d="M441.193,400.268c4.336-7.385,8.572-17.356,5.474-25.828c-0.305,0.771-0.684,1.596-1.19,2.456
		c-6.944,11.809-12.107,22.499-23.504,30.243c1.805-0.092,5.915-2.377,9.914-5.803c0.489-0.419,0,3.769-9.849,7.72
		c1.747,3.43,3.758,5.76,5.94,7.224C433.46,411.918,438.003,405.703,441.193,400.268z"/>
	<path fill="#CF9957" d="M418.234,388.357c-0.167,0.177-0.332,0.308-0.499,0.463c16.7-1.642,21.072-29.647,15.836-44.494
		c-0.876,6.352-2.036,12.672-3.545,18.964C427.342,374.473,426.457,379.64,418.234,388.357z"/>
	<path fill="#CF9957" d="M472.266,380.436c-5.212,5.531-9.822,11.626-13.556,18.252c-1.663,2.949-3.117,5.974-4.568,9.023
		c4.649-4.368,8.747-9.288,11.588-13.082c5.075-6.778,9.791-13.935,14.179-21.331C477.236,375.527,474.667,377.889,472.266,380.436z
		"/>
	<path fill="#CF9957" d="M490.169,291.297c6.667,6.041,11.622,11.797,16.372,19.809c0.225-1.566,0.441-3.179,0.642-4.834
		C502.439,300.308,496.695,295.069,490.169,291.297z"/>
	<path fill="#F2F0DB" d="M552.23,350.322c-3.801,5.756-12.271,5.633-18.056,3.283c-0.366-0.148-0.757,0.342-0.407,0.61
		c2.964,2.259,6.516,3.755,10.066,3.99c-11.959,18.29-26.996-9.809-31.25-19.331c-4.501-10.074-9.649-19.204-16.487-27.923
		c-0.688-0.876-1.388-1.748-2.096-2.614c0.129-2.449,1.091-5.345,2.957-6.034c4.898,6.059,9.285,12.538,13.602,19.305
		c3.963,6.206,14.711,22.222,23.98,18.279c-0.599,2.742-2.175,5.217-3.95,7.359c-0.297,0.359,0.745,0.627,2.598-1.073
		c2.741-2.513,3.755-5.438,3.547-11.256c-0.067-1.853-0.689-7.662,1.022-11.472c1.711-3.81,7.497-2.876,8.929,1.02
		c1.826,3.598-0.023,7.404-0.253,11.138c-3.496,1.921-6.222,5.723-7.956,8.952c-0.315,0.587,0.407,1.362,0.941,0.823
		c3.228-3.256,13.498-13.077,15.251-3.717C555.232,344.661,553.838,347.89,552.23,350.322z"/>
	<path fill="#DDD9C2" d="M543.427,271.325c0.43-1.347,0.65-2.753,0.565-4.17c-0.204-3.354-1.152-5.419-3.691-7.048
		c0.281,0.576,0.559,1.434,0.663,2.631c0.29,3.343,0.287,5.911-1.453,10.702C540.703,273.29,542.169,272.58,543.427,271.325z"/>
	<path fill="#DDD9C2" d="M531.397,252.693c1.386,0.631,4.768,3.265,6.032,0.655c0.656-1.355,1.06-2.78,1.747-4.121
		c0.909-1.771,2.574-2.089,4.342-1.713c-1.168-0.645-2.319-1.692-3.411-2.054c-2.414-0.802-2.167,5.14-2.844,6.392
		c-0.487,0.903-2.057,1.5-3.008,1.051c-0.627-0.297-1.091-0.734-1.657-1.13c-1.374-0.962-2.488-0.257-3.371,0.789
		C529.886,252.343,530.604,252.331,531.397,252.693z"/>
	<path fill="#DDD9C2" d="M545.311,258.737c0.26,0.063,0.546,0.172,0.859,0.369c0.968,0.606,2.421,2.906,2.545,5.963
		c1.466-0.538,1.943-1.748,1.828-3.315C549.319,259.59,547.496,258.063,545.311,258.737z"/>
	<path fill="#DDD9C2" d="M412.488,279.63c0.414,2.414,1.492,4.957,3.708,5.258c-0.499-1.136-1.025-2.79-0.94-3.418
		C414.45,280.7,413.5,280.064,412.488,279.63z"/>
	<path fill="#DDD9C2" d="M398.787,297.45c0.48-0.676,1.109-1.214,1.836-1.561c-0.351-0.896-0.778-2.449-0.888-3.459
		c-2.114-0.858-3.586-0.195-4.381,1.389C396.13,295.294,397.369,296.497,398.787,297.45z"/>
	<path fill="#DDD9C2" d="M422.112,295.202c-0.761-1.854-1.847-3.453-3.395-4.496c2.305,3.471,1.753,9.463-0.305,13.036
		c1.229-0.425,3.525-0.891,4.351-0.836C422.331,301.009,421.957,297.947,422.112,295.202z"/>
	<path fill="#DDD9C2" d="M432.637,303.592c-0.081-1.46-0.177-2.662-0.28-3.463c-0.791,2.122-2.984,4.489-5.295,5.444
		c0.307,0.586,0.494,1.265,0.597,1.993C429.869,306.972,431.582,305.536,432.637,303.592z"/>
	<path fill="#DDD9C2" d="M423.224,353.66c-1.027,0.569-2.542-0.103-3.494-0.452c-1.671-0.611-2.933,4.616-3.332,5.892
		c-1.013,3.241-3.911,11.447-7.934,9.054c-0.027,0.289-0.036,0.578-0.066,0.866c0.868,0.949,2.504,1.033,4.953,0.204
		c0.438-0.535,0.812-1.115,1.123-1.734c0.815-1.743,1.348-3.501,1.87-5.341c0.632-2.228,1.298-4.324,2.54-6.288
		c0.195-0.311,0.605-0.134,0.633,0.188c0.477,5.272,3.918-0.222,5.015-2.095c0.425-0.725,0.799-1.477,1.202-2.214
		C424.961,352.478,424.143,353.153,423.224,353.66z"/>
	<path fill="#DDD9C2" d="M419.354,325.541c5.449-1.669,7.451-7.619,7.634-12.997c-1.501,4.843-4.808,11.299-10.479,10.217
		c-2.306-0.44-5.528-1.564-7.288-3.574C410.046,323.734,414.458,327.04,419.354,325.541z"/>
	<path fill="#DDD9C2" d="M406.755,314.455c0.576-0.017,1.059-0.1,1.496-0.214c0.415-1.445,1.276-2.951,2.453-4.377
		c-0.151-1.004-0.498-2.077-0.95-3.13c-0.235,3.137-2.934,6.417-5.636,4.813c-1.307-0.775-2.765-2.503-3.947-4.481
		C401.03,310.851,403.092,314.565,406.755,314.455z"/>
	<path fill="#DDD9C2" d="M333.855,434.166c3.027,1.97,6.176,3.743,9.355,5.51c-2.015-1.861-3.968-3.788-5.824-5.818
		c-2.888-3.162-6.014-6.346-8.506-9.9C329.488,426.863,331.356,431.432,333.855,434.166z"/>
	<path fill="#DDD9C2" d="M314.981,441.544c1.146,0.717,2.311,1.228,3.493,1.603c-3.661-4.507-7.06-11.42-8.676-17.714
		c-1.054,3.369-0.771,7.123,0.517,11.015C311.541,438.506,313.055,440.335,314.981,441.544z"/>
	<path fill="#DDD9C2" d="M366.104,479.93c-6.112-0.942-12.99-3.369-19.108-1.339c-1.374,0.455-2.634,1.047-3.834,1.715
		c2.807-0.431,5.589-0.228,7.753,0.176c4.911,0.915,9.555,1.871,14.32,1.459c3.597-0.308,7.144-1.018,10.588-2.069
		C372.595,480.337,369.335,480.431,366.104,479.93z"/>
	<path fill="#DDD9C2" d="M379.281,472.634c-1.058-2.125-2.554-2.644-4.214-2.671c-0.775-0.013-1.72,0.048-2.67,0.085
		C374.109,471.231,376.799,471.986,379.281,472.634z"/>
	<path fill="#DDD9C2" d="M329.779,447.945c6.355,13.184,22.814,20.808,36.591,15.576
		C353.649,462.083,339.826,455.839,329.779,447.945z"/>
	<path fill="#DDD9C2" d="M335.85,449.33c9.717,6.452,21.928,11.227,32.944,11.953c-6.671-3.857-14.029-6.653-21.311-9.047
		C343.671,450.982,339.7,450.347,335.85,449.33z"/>
	<path fill="#DDD9C2" d="M340.648,448.264c3.873,0.944,7.809,1.752,11.456,3.091c4.892,1.799,9.716,3.633,14.335,5.924
		C359.559,450.773,350.134,447.457,340.648,448.264z"/>
	<path fill="#DDD9C2" d="M387.895,441.351c-5.503,0.5-11.084,4.942-12.257,0.289c-0.182-0.721,0.478-1.631,0.844-2.137
		c2.327-3.222-3.456-3.814-5.35-3.79c-0.473,0.007-0.95,0.021-1.429,0.036c3.138,0.887,5.607,2.488,5.123,6.816
		c-0.658,5.888,9.784-0.818,13.162,1.162c4.146,2.427-3.372,8.564-4.9,9.824c-1.824,1.504-3.692,3.053-5.492,4.674
		c1.858-1.367,3.7-2.704,5.349-4.092c2.233-1.881,4.932-4.156,7.016-6.2c1.323-1.297,3.363-3.411,3.774-4.771
		C394.538,440.497,390.537,441.111,387.895,441.351z"/>
	<path fill="#DDD9C2" d="M527.384,340.414c0.828,2.759,1.885,4.497,3.688,6.208c1.569-1.998,2.927-4.25,3.47-6.736
		c-2.437,1.037-4.977,0.684-7.47-0.498C527.175,339.732,527.283,340.074,527.384,340.414z"/>
	<path fill="#DDD9C2" d="M546.434,335.604c0.098-1.597,0.486-3.208,0.763-4.811c-1.724,0.883-3.308,2.046-4.592,3.401
		c-2.685,2.837-3.806,5.701-3.368,9.029C540.965,340.334,543.409,337.266,546.434,335.604z"/>
	<path fill="#DDD9C2" d="M543.833,358.205c-3.36-0.221-6.714-1.583-9.576-3.641c-1.064,3.49,0.657,6.73,3.462,9.177
		C539.799,362.958,541.859,361.224,543.833,358.205z"/>
	<path fill="#DDD9C2" d="M515.284,339.004c-4.226-12.153-9.368-21.463-19.559-28.516c0.123,0.153,0.25,0.308,0.372,0.462
		c6.837,8.719,11.986,17.849,16.487,27.923c1.202,2.691,3.266,6.865,5.879,11.054C517.385,346.193,516.471,342.417,515.284,339.004z
		"/>
	<circle fill="#FFFFFF" cx="422.947" cy="157.894" r="2.151"/>
	<circle fill="#FFFFFF" cx="420.294" cy="155.633" r="0.838"/>
	<circle fill="#FFFFFF" cx="403.312" cy="174.57" r="1.788"/>
	<circle fill="#FFFFFF" cx="400.798" cy="173.676" r="0.643"/>
	<path fill="#F1B591" d="M310.696,233.396c1.503-5.514,9.828-12.207,15.376-11.731C331.622,222.141,308.795,240.371,310.696,233.396
		z"/>
	<path fill="#C9A385" d="M472.182,148.238c4.014-1.666,8.894-2.695,12.13-0.944c3.236,1.752,1.402-6.516-4.11-5.459
		C473.528,143.116,469.418,149.384,472.182,148.238z"/>
	<path fill="#C9A385" d="M358.78,224.989c2.628-2.277,6.268-4.843,8.547-6.837c2.278-1.995,2.847,1.994-1.141,5.983
		C362.198,228.122,354.507,228.693,358.78,224.989z"/>
	<path fill="#C9A385" d="M370.174,260.316c2.177-7.862,11.112-15.099,13.391-8.262C385.845,258.892,365.046,278.836,370.174,260.316
		z"/>
	<path fill="#C9A385" d="M306.074,351.768c4.909-3.726,10.256-5.698,16.239,0.286C328.296,358.036,297.813,358.036,306.074,351.768z
		"/>
	<path fill="#EBCE9C" d="M377.297,211.03c4.116-2.906,12.534-11.966,15.385-14.53c2.118-1.906,1.422,5.983-3.135,10.825
		C384.989,212.168,372.455,214.448,377.297,211.03z"/>
	<path fill="#EBCE9C" d="M463.05,257.466c1.631-5.437,6.172-14.499,6.837-6.837C471.028,263.735,460.486,266.011,463.05,257.466z"/>
	<path fill="#EBCE9C" d="M496.668,245.501c5.128,7.122,9.687,26.494,8.261,36.182c-1.897,12.882-5.983-8.547-7.406-17.094
		C496.1,256.043,493.437,241.013,496.668,245.501z"/>
	<path fill="#EBCE9C" d="M528.861,213.308c1.542,7.098,6.838,19.374,8.546,22.507c1.988,3.641-6.551,0.569-8.26-5.983
		C527.437,223.279,527.437,206.755,528.861,213.308z"/>
	<path fill="#EBCE9C" d="M351.371,306.755c2.988-7.638,11.114-11.397,17.38-5.413C375.017,307.324,348.807,313.308,351.371,306.755z
		"/>
	<path fill="#EBCE9C" d="M455.929,324.703c-5.725,1.349-11.85,4.552-8.547-0.854c5.355-8.766,13.39-11.398,16.808-3.135
		C465.806,324.621,461.062,323.493,455.929,324.703z"/>
	<path fill="#EBCE9C" d="M382.995,311.882c4.984,3.322,14.531,15.1,15.669,25.355C399.803,347.494,377.866,308.464,382.995,311.882z
		"/>
</g>
</svg>
