<?xml version="1.0" encoding="utf-8"?>
<!-- Generator: Adobe Illustrator 17.0.0, SVG Export Plug-In . SVG Version: 6.00 Build 0)  -->
<!DOCTYPE svg PUBLIC "-//W3C//DTD SVG 1.1//EN" "http://www.w3.org/Graphics/SVG/1.1/DTD/svg11.dtd">
<svg version="1.1" id="Layer_1" xmlns="http://www.w3.org/2000/svg" xmlns:xlink="http://www.w3.org/1999/xlink" x="0px" y="0px"
	 width="800px" height="600px" viewBox="0 0 800 600" enable-background="new 0 0 800 600" xml:space="preserve">
<g>
	<path d="M591.218,400.756c-4.732-3.45-11.918,0.377-16.374-3.122c-5.482-4.307-4.438-16.032-5.108-22.366
		c-0.846-7.986-1.213-16.017-1.993-24.006c-1.559-15.958-5.103-33.237-17.099-44.73c6.388-20.746,13.467-41.101,16.835-62.638
		c4.138-26.46,4.029-53.903-5.928-79.128c-7.311-18.514-17.982-26.114-33.885-25.39c-14.212,0.645-20.071,12.825-20.257,17.098
		c8.548-1.856,18.77-1.856,25.458,2.228c10.383,6.345,16.355,19.701,19.514,41.63c4.934,34.234-12.599,67.383-17.465,100.725
		c-12.059,1.242-30.217,5.546-36.435,6.82c-13.809,2.822-27.665,5.485-41.715,6.78c-13.801,1.271-27.929,1.003-41.228-3.242
		c-6.2-1.981-22.022-11.241-22.517-21.363c-0.347-7.109,11.098-35.894,18.382-49.767c7.282-13.871,13.37-28.916,16.819-43.696
		c3.209-13.749,3.41-29.486,1.041-43.349c-1.93-11.292-10.579-22.719-17.688-27.053c3.159-4.229,4.85-11.337,6.416-16.473
		c3.121-10.23,6.088-19.319,11.099-23.929c11.085,18.626,33.216,31.402,53.445,37.91c7.56,2.432,17.253,3.154,22.286-4.215
		c5.436-7.968,2.306-17.473-2.408-24.392c-11.542-16.942-35.266-25.816-54.282-30.031c-7.748-1.717-16.673-3.481-23.941,0.519
		c-7.775,4.279-11.817,13.436-14.686,21.289c-3.778,10.334-6.164,22.178-11.669,31.82c-8.217-3.474-14.499-4.92-23.193-4.116
		c2.654-5.562,7.686-11.437,11.27-15.778c5.859-7.096,10.753-13.352,16.647-20.984c3.324-4.303,5.623-10.055,3.641-15.606
		c-2.253-6.308-11.867-7.69-17.414-8.009c-20.775-1.196-45.288,0.283-64.933,8.737c-9.134,3.932-16.682,10.188-20.968,19.246
		c-2.734,5.783-2.16,11.924,4.218,14.085c8.881,3.01,20.672,0.368,29.542-1.367c15.006-2.939,30.43-7.305,44.402-13.94
		c-11.121,10.354-20.378,23.806-24.464,38.13c-3.01,1.287-5.959,2.852-8.806,4.717c-5.099,3.339-9.74,7.539-13.765,12.324
		c-2.007-0.034-3.932-0.034-5.679-0.063c-0.946-0.016-1.198,1.543-0.305,1.841c1.221,0.408,2.46,0.756,3.707,1.08
		c-7.369,9.772-12.775,20.419-13.883,32.374c-29.721,15.497-52.649,39.321-64.833,67.031c-4.12,9.372-5.919,19.534-4.901,29.205
		c-4.416,8.276-5.401,17.584-1.298,26.801c11.42,25.648,45.609,27.92,60.749,12.085c19.11-3.241,39.459-14.522,52.687-37.42
		c8.175-0.681,14.403-6.398,19.361-13.16c-11.854,21.201-9.993,42.141-12.51,50.143c-4.087,13.001-7.685,23.794-8.829,38.101
		c-7.765-0.984-26.083-0.114-38.108,4.321c-7.213,2.661-10.961,5.157-12.518,12.696c-2.421,11.729-2.252,25.173,2.478,38.451
		c0.085,11.266,3.636,21.019,11.542,29.233c4.169,4.337,10.752,5.414,14.001,5.61c3.25,0.198,9.546-2.417,11.017-9.04
		c3.681,2.042,7.932-6.539,7.524-16.106c-0.081-1.908-3.314-4.905-6.078-6.822c2.416-4.908,3.021-10.679,0.763-15.907
		c-1.07-2.475-18.07-0.411-19.132-1.637c-1.062-1.225-2.147-10.552-1.411-12.921c0.736-2.374,14.799-5.072,30.834-5.512
		c0.426,1.941,0.961,3.867,1.603,5.769c2.649,7.838,8.324,17.635,15.908,21.618c-1.067,12.088-1.422,24.379-0.704,36.236
		c0.598,9.862,2.081,19.653,3.679,29.43c-2.25-0.396-21.379-1.966-26.314-0.785c-4.947,1.186-1.544,11.788,1.226,13.411
		c-1.83,0.555-3.53,1.197-5.006,1.896c-3.698,1.751-6.266,5.016-6.144,9.183c0.12,4.176,3.554,9.473,7.814,10.806
		c-2.835,5.825,2.461,17.629,6.678,17.772c17.909,0.604,44.178-9.913,51.92-13.844c1.706-0.867,3.112-27.082-11.526-36.667
		c-0.629-8.038-0.878-16.112-0.973-24.172c-0.105-9.042,0.012-18.091,0.106-27.133c0.02-1.9,0.064-3.81,0.107-5.732
		c3.719,2.624,7.62,4.896,11.262,6.794c10.611,5.534,22.497,8.087,34.377,8.631c12.148,0.559,22.78-0.279,36.59-4.634
		c-2.152,4.034-2.599,9.154-2.205,14.193c-2.365,1.353-11.684,7.976-14.013,13.639c-8.452-3.512-29.045-3.91-35.667-1.053
		c-4.024,1.738,0.517,10.754,3.16,12.191c-2.652,1.632-6.922,4.515-7.825,6.921c-0.903,2.408,3.16,9.783,7.266,12.123
		c-3.654,7.14,7.782,15.717,14.404,16.17c6.622,0.453,24.806-9.862,33.883-16.809c7.339-5.615,8.808-15.769,5.246-23.523
		c5.897-2.965,14.447-7.074,17.993-15.175c1.105-2.531-1.588-5.594-4.9-6.345c0.616-2.49,6.019-13.846,13.513-23.398
		c2.305-0.668,4.633-1.252,6.998-1.706c10.306,13.634,31.277,14.945,47.858,13.165c-6.294,7.594-9.339,21.676-10.933,31.199
		c-9.611,0.316-20.378,5.331-25.838,9.612c-5.16,4.043-10.049,7.677-11.502,14.127c-1.089,4.852,1.527,10.863,5.182,14.157
		c-1.504,2.122-1.401,4.274,0.176,5.589c5.585,4.656,12.289,8.035,19.853,6.228c-0.528,2.018-0.316,3.801,1.73,4.536
		c9.674,3.474,20.902,3.573,26.52-1.732c3.931-3.711,7.512-14.629,8.716-21.812c0.769-4.619,5.78-29.181-3.464-30.072
		c0.999-5.986,5.008-14.522,8.39-20.916c2.711-5.125,5.899-9.727,8.469-14.952C594.81,407.366,595.053,403.552,591.218,400.756z"/>
	<path fill="#F0F0D4" d="M325.2,371.429c-0.76,5.64,0.974,14.494,2.035,16.212c1.063,1.717,12.113,1.783,18.642,0.899
		c1.03,3.262,0.327,9.321-2.098,11.639c-7.387-2.565-12.794-1.547-11.493-0.905c3.501,1.729,15.306,4.801,18.004,10.197
		c0.704,1.406-2.091,10.088-3.351,9.971c-3.598-0.326-10.234-5.562-12.999-7.928c-0.851-0.73,0.818,5.069,8.939,11.623
		c-2.018,3.717-5.996,6.038-8.449,6.528c-2.453,0.491-8.884-2.745-12.018-6.459c-3.344-3.963-5.315-8.011-6.378-14.228
		c-1.063-6.213-1.301-10.424-3.022-15.062c-1.719-4.641-3.059-17.396-1.854-27.356c0.889-7.352,1.525-9.618,8.423-13.167
		c6.9-3.551,24.741-6.607,38.46-4.701c-0.438,5.591-0.516,9.432,0.567,14.907C349.371,363.352,326.085,364.866,325.2,371.429z"/>
	<path fill="#DBA85C" d="M564.324,373.423c-1.928-1.273-3.719-2.648-5.069-4.62c-2.966-4.337-0.12-8.911,4.035-10.557
		C563.636,363.305,563.907,368.368,564.324,373.423z"/>
	<path fill="#DBA85C" d="M562.164,346.251c-6.241-3.042-10.525-8.107-11.888-15.404c-0.788-4.191,0.368-9.01,3.509-11.782
		C558.284,327.539,560.846,336.686,562.164,346.251z"/>
	<path fill="#DBA85C" d="M553.869,185.466c-5.204-18.215-13.009-38.099-40.885-32.895c4.209-8.562,13.908-10.782,21.742-8.735
		c16.355,4.276,23.63,21.266,27.509,36.998c7.637,30.974,2.016,63.097-6.388,93.823c-0.313-0.531-0.62-1.066-0.901-1.632
		c-0.528-1.071-1.409-1.722-2.523-2.066c-2.225-0.68-4.528,0.848-6.78,1.814C553.424,244.085,562.124,214.357,553.869,185.466z"/>
	<path fill="#DBA85C" d="M494.689,313.693c4.758-0.937,15.464-3.384,27.314-5.419c1.023,2.422,1.596,4.412,0.64,7.562
		c-1.239,4.083-4.818,7.568-8.177,9.921c-5.368,3.759-10.904,1.214-15.872-2.17c-3.432-2.335-9.59-3.939-10.232-8.664
		C490.474,314.519,492.583,314.11,494.689,313.693z"/>
	<path fill="#DBA85C" d="M449.736,319.919c6.196-0.234,12.375-0.831,18.53-1.66c0.022,0.48,0.068,0.974,0.039,1.499
		c-0.096,1.64-0.757,3.12-1.798,4.367c-1.819,2.177-5.001,2.828-7.685,2.931c-2.774,0.104-5.862-0.626-8.054-2.384
		C448.979,323.238,449.11,321.603,449.736,319.919z"/>
	<path fill="#DBA85C" d="M423.225,69.526c7.013-6.144,17.492-3.448,25.637-1.578c10.791,2.475,21.337,6.567,31.017,11.922
		c8.216,4.547,16.202,10.517,21.081,18.688c5.374,9.003,4.518,23.501-8.531,23.305c-10.37-0.157-21.353-6.448-30.139-11.35
		c-14.482-8.075-28.135-19.745-35.641-34.789c-0.364-0.73-1.127,1.652,1.013,6.36c-4.807,4.426-7.612,10.641-9.882,16.715
		c-3.552-1.704-6.317-5.297-6.476-9.312C413.859,81.94,417.142,74.858,423.225,69.526z"/>
	<path fill="#F0F0D4" d="M410.713,91.278c0.083,1.905,0.604,3.66,1.81,5.472c1.111,1.669,2.734,3.064,4.576,3.903
		c-0.434,1.209-0.858,2.408-1.277,3.572c-1.554,4.343-3.813,14.062-7.86,19.938c-2.635-1.767-5.361-3.307-8.166-4.581
		C405.378,111.338,407.579,101.013,410.713,91.278z"/>
	<path fill="#F0F0D4" d="M384.06,80.948c1.859-1.778,3.42-2.959,5.895-4.781c2.474-1.823,2.735-4.484,1.621-3.815
		c-14.877,8.958-35.061,15.22-51.836,19.007c-7.965,1.795-16.215,3.396-24.4,3.402c-3.6,0.005-8.177-0.283-10.779-3.1
		c-3.697-4.002,1.582-11.77,3.96-15.002c7.355-9.987,20.728-14.377,32.289-17.009c12.012-2.73,24.47-3.463,36.754-3.362
		c6.838,0.056,21.979-0.559,25.23,6.652c2.894,6.414-5.367,15.741-8.886,20.338c-5.677,7.416-12.034,14.279-17.718,21.692
		c-2.469,3.218-4.89,6.559-6.276,10.326c-4.107,0.607-6.876,1.064-10.842,2.65C364,103.906,373.475,91.08,384.06,80.948z"/>
	<path fill="#DBA85C" d="M262.304,251.793c-4.243,3.109-7.92,6.676-10.832,10.558c0.288-6.303,1.701-12.642,3.666-18.586
		c7.101-21.464,22.048-40.367,40.285-54.468c0.873,6.072,1.48,12.337,3.886,17.99c3.161,7.416,6.137,14.941,0.999,22.194
		c-5.055,7.141-14.656,8.886-21.019,14.544C274.156,244.653,268.652,247.143,262.304,251.793z"/>
	<path fill="#F0F0D4" d="M359.164,264.388c-11.514,16.558-28.357,31.215-47.852,37.133c0.277-0.478,0.557-0.949,0.805-1.446
		c7.244-14.541,2.901-37.135-13.693-49.666c-5.774-4.363-11.23-6.682-17.101-6.526c7.557-4.798,17.539-7.477,21.589-15.663
		c2.679-5.417,2.111-11.363,0.108-16.883c-1.809-4.989-5.11-13.008-5.443-23.693c6.486-4.854,12.912-8.751,19.979-12.3
		c-0.238,9.766,2.38,14.289,2.287,12.525c-0.912-17.09,4.66-34.6,15.366-48.056c2.081,0.461,7.21,1.53,7.689,1.64
		c-3.493,1.92-6.976,5.91-8.535,7.809c-6.685,8.146-11.904,19.579-11.865,28.048c0.038,8.467,2.917,10.834,4.737,11.332
		c4.682,1.284,9.034-3.013,11.455-5.738c1.359-1.53,3.41-4.048,4.745-5.97c-0.851,4.413-1.079,8.701,1.093,13.016
		c1.256,2.499,3.72,3.669,6.336,3.936c-4.616,3.366-4.456,5.042-4.08,4.854c2.311-1.17,7.357-3.706,12.472-6.313
		c2.522,1.613,5.815,1.7,9.197,1.058c-1.312,1.756-2.457,3.57-3.413,5.321c-1.002,1.835-0.5,2.302-0.185,2.03
		c4.067-3.509,8.195-7.207,12.988-9.703C383.196,216.775,373.779,243.372,359.164,264.388z"/>
	<path fill="#DBA85C" d="M381.715,155.906c1.98-6.165,4.1-13.6,3.386-20.433c0.655,0.116,1.313,0.25,1.974,0.419
		c15.596,4.021,23.433,18.414,15.754,33c-3.009,5.714-8.388,10.148-13.939,13.759c-7.835-1.149-14.446,3.51-19.204,9.268
		c-3.217,0.764-6.365,0.888-8.888-0.279c4.438-2.268,8.725-4.491,11.106-5.817c0.687-0.382-0.595-2.085-7.488,0.573
		c4.498-6.697,6.945-16.913,7.785-23.314c1.072-8.156,1.116-25.054-11.126-16.862c-4.157,2.783-6.143,5.931-8.286,9.637
		c4.533-11.435,14.91-20.419,27.003-20.788c0.127,0.775,0.217,1.563,0.302,2.315c0.662,5.908,0.404,12.294-0.211,18.192
		C379.756,156.797,381.353,157.031,381.715,155.906z"/>
	<path fill="#FFFFFF" d="M357.053,153.615c3.011-4.404,11.234-11.493,12.662-2.201c1.117,7.263-0.49,17.024-2.031,21.281
		c-0.781-5.504-3.994-7.827-8.584-6.353c-6.457,2.069-9.95,13.115-9.009,19.005c0.539,3.382,3.559,5.027,6.532,4.855
		c-3.351,1.573-7.594,1.896-9.976-1.615c-1.388-2.047-2.124-6.098-1.054-11.396C346.664,171.893,351.448,161.813,357.053,153.615z"
		/>
	<path fill="#FFFFFF" d="M349.944,155.168c-0.836,5.9-4.051,13.51-6.574,17.584c0.487-2.266,0.081-5.087-1.176-6.504
		c-4.501-5.082-10.23,0.875-12.219,4.868c-1.665,3.347-4.104,11.587,1.173,13.139c1.086,0.32,2.198,0.138,3.243-0.302
		c-5.762,6.154-9.87,0.618-9.929-5.573c-0.06-6.191,2.916-15.001,6.069-20.359c3.302-5.607,12.563-16.668,15.956-15.538
		C349.881,143.617,350.594,150.58,349.944,155.168z"/>
	<path fill="#F0F0D4" d="M492.171,430.578c10.235-0.302,4.364,8.428-11.081,14.743c-0.834-1.069-6.707-1.106-5.624,0.308
		c3.462,4.51,8.599,12.807,2.12,20.469c-5.206,6.154-27.252,16.849-31.466,17.754c-4.213,0.902-11.437-6.021-11.437-9.03
		c0-3.01,7.524-9.482,19.96-13.014c0.485-0.136-7.168-5.194-22.067,6.544c-2.727-1.61-6.171-4.515-4.815-7.074
		c1.356-2.56,12.19-6.17,22.855-7.143c1.057-0.096-0.884-3.995-16.269-1.57c-1.25-1.971-4.479-5.132-3.124-6.786
		c1.354-1.658,20.467-2.56,36.57,2.859c0.86,0.289-0.602-2.109-1.807-3.008c8.292-9.642,14.619-13.692,20.919-15.956
		c0.89-0.318-0.903-2.106-4.481-2.233c-0.077-4.79,0.844-9.521,2.958-14.226c6.349-2.271,12.588-4.92,18.949-7.154
		C497.289,415.528,490.49,430.628,492.171,430.578z"/>
	<path fill="#DBA85C" d="M529.781,405.143c-2.729-1.409-5.138-3.136-7.079-5.276c-4.773-5.261-6.944-12.152-7.713-19.086
		c6.384-0.361,11.489,2.957,14.402,8.984c1.31,2.714,1.733,5.804,1.78,8.783C531.214,400.899,530.334,402.992,529.781,405.143z"/>
	<path fill="#DBA85C" d="M535.959,407.665c1.733-2.762,4.149-4.483,7.854-3.693c3.645,0.777,4.425,3.515,5.146,6.459
		C544.44,409.833,540.012,408.97,535.959,407.665z"/>
	<path fill="#DBA85C" d="M575.949,459.807c-0.461,5.193-0.883,11.597-1.889,16.751c-1.189,6.08-3.986,14.987-6.303,17.963
		c-5.356,6.878-20.677,3.456-20.586,1.576c0.092-1.881,2.141-8.563,3.933-13.152c3.106-7.96,6.045-13.159,11.091-20.132
		c0.584-0.809-1.881-0.544-4.258,1.984c-7.456,7.929-12.08,16.57-14.706,28.411c-4.384,1.907-17.351-3.955-16.382-6.619
		c2.467-6.772,12.026-17.958,25.313-28.093c0.751-0.575-2.465-0.454-4.884,0.945c-9.979,5.775-15.111,11.009-22.161,20.9
		c-2.153-1.889-3.885-7.297-3.466-10.082c0.421-2.785,6.534-8.888,10.555-11.555c6.251-4.149,14.336-8.558,29.883-7.457
		c1.324,0.095-0.001-2.836-3.152-4.151c0.732-4.302,1.819-8.756,3.104-13.051c1.862,1.87,4.255,3.175,6.846,3.931
		c1.344,0.39,3.099,0.526,4.724,0.252c-2.17,6.719-3.189,11.924-3.385,13.231C576.788,450.725,576.318,455.659,575.949,459.807z"/>
	<path fill="#F0F0D4" d="M587.292,412.178c-2.992,4.297-5.25,7.982-7.825,12.552c-1.955,3.472-3.676,7.255-5.018,11.04
		c-0.091,0.038-0.17,0.075-0.268,0.117c-1.849,0.769-3.957,0.475-5.825-0.002c-2.207-0.567-4.101-1.912-5.83-3.414
		c2.071-6.597,4.576-12.701,6.95-17.123c3.53-0.185,6.008-1.496,6.132-2.973c-6.706-0.552-15.425-0.679-24.061-1.632
		c0.231-4.172-3.518-7.875-7.428-8.751c-4.008-0.896-8.135,1.554-9.34,5.284c-0.994-0.35-1.974-0.718-2.914-1.13
		c2.996-5.344,0.512-14.65-2.088-19.18c-3.248-5.671-8.921-8.005-14.879-7.034c-0.221-2.345-0.286-4.68-0.243-6.955
		c0.236-12.189,3.882-24.411,12.033-33.554c0.516-0.575-3.841,0.228-7.572,5.49c-1.502,2.119-2.789,4.289-3.902,6.477
		c-2.291-2.644-6.132-4.716-9.494-3.796c-3.427,0.941-4.889,4.628-5.469,7.793c-1.086,5.933,1.107,17.811,9.366,16.444
		c-0.814,11.681,2.176,21.896,5.689,26.777c-6.126,0.817-18.046,4.202-25.211,7.013c-11.892,4.668-23.428,7.905-36.2,9.027
		c-20.397,1.793-40.081-3.276-56.243-14.648c0.228-14.226-3.285-19.173-3.413-18.388c-1.441,8.735-1.907,65.2,0.693,81.845
		c0.132,0.847,5.201,2.777,8.843,11.445c3.64,8.673,2.981,17.928,2.016,19.485c-1.751,2.82-32.372,11.555-45.26,12.414
		c-3.092,0.205-6.905-8.862-3.71-12.472c2.807-3.167,11.388-5.721,19.284-7.859c1.024-0.278-1.198-1.724-5.27-1.311
		c-3.386,0.34-13.369,2.762-16.538,5.615c-2.526-1.494-4.635-3.705-5.795-7.165c-1.208-3.599,3.602-5.573,6.128-6.491
		c7.482-2.706,16.412-3.502,23.02-3.573c0.571-0.005-1.3-3.896-18.51-2.403c-1.797-0.77-5.721-5.82-3.3-7.934
		c2.32-2.022,25.945,1.159,28.688,1.294c-1.81-10.639-3.469-24.061-3.988-34.855c-0.868-18.033,1.309-34.987-0.962-52.362
		c-0.072-0.546-2.16,1.034-2.333,12.132c-3.469-2.082-6.01-5.523-8.439-9.347c-2.433-3.835-4.055-8.075-5.289-12.42
		c-2.498-8.801-1.794-18.226-0.267-27.117c1.56-9.088,3.954-18.245,6.642-27.048c2.551-8.358,3.141-16.772,3.597-25.671
		c0.455-8.9,7.948-30.74,10.724-37.897c5.822-9.827,9.535-20.865,12.233-33.377c0.746-3.475-0.352-5.138-0.535-4.486
		c-3.311,11.961-7.427,23.277-12.878,33.687c-2.668,5.096-6.258,9.865-10.353,13.899c-3.686,3.631-7.531,5.607-9.934,5.82
		c7.589-10.788,12.817-21.868,16.481-34.265c3.97-13.432,5.002-27.823,1.964-41.533c5.697-1.966,13.436-1.16,22.316,3.063
		c0.651,0.311,0.787-0.647-0.655-2.088c-4.162-4.162-8.134-6.509-11.86-7.533c6.725-4.483,12.476-10.132,15.427-17.976
		c5.079-13.501-4.668-25.987-17.4-29.867c-1.353-0.411-2.706-0.705-4.059-0.91c-0.386-2.522-1.178-4.945-2.553-7.175
		c-4.155-6.729-13.7,0.194-16.723,4.241c-0.57,0.762,0.188,1.998,1.146,1.563c2.329-1.056,4.635-2.023,7.094-2.708
		c3.729-1.04,5.058,1.096,5.668,3.778c-12.135,0.506-23.108,8.827-27.183,20.724c0.501-4.079-0.018-7.538-1.84-11.311
		c1.487,0.371,2.975,0.705,4.466,0.929c1.399,0.214,2.27-1.472,1.221-2.456c-4.394-4.132-11.348-5.303-18.026-5.666
		c6.276-6.369,14.668-15.894,38.094-18.266c12.922-1.31,28.741,5.35,40.411,18.123c8.332,9.122,9.686,21.164,10.248,33.03
		c0.636,13.485-2.047,26.915-6.469,39.595c-5.546,15.9-14.832,33.616-20.554,46.101c-5.742,12.531-12.485,30.173-12.138,37.629
		c0.347,7.459,14.106,17.78,20.018,20.683c12.314,6.056,26.505,7.183,40.029,6.83c-0.567,1.595-0.374,3.403,0.68,4.926
		c1.947,2.809,5.928,3.814,9.127,4.045c3.526,0.254,7.274-0.613,9.937-3.03c1.617-1.465,3.488-5.331,2.947-7.986
		c5.562-0.799,11.103-1.771,16.619-2.811c0.055,2.788,2.25,4.912,5.177,6.47c5.79,3.088,12.393,10.125,19.638,7.796
		c5.587-1.798,9.953-5.889,12.672-11.026c1.644-3.107,2.256-7.497,0.62-10.655c5.126-0.828,10.38-1.552,15.392-2.021
		c2.249-0.21-0.581-2.838-1.965-4.016c1.652-9.042,4.051-18.263,6.575-27.597c1.482-0.17,2.883-0.727,4.416-1.18
		c4.536-1.347,3.595,2.984,5.14,5.385c-2.796,9.942-5.841,19.727-8.779,29.265c2.538,3.035,4.716,6.196,6.597,9.46
		c-3.788,2.05-4.908,9.262-4.764,13.003c0.326,8.432,6.78,16.314,14.631,19.141c0.093,0.827,0.18,1.658,0.259,2.493
		c0.146,1.624,0.268,3.254,0.385,4.883c-4.093,0.395-6.668,4.289-6.929,8.335c-0.321,4.997,4.377,8.398,8.244,10.68
		c0.457,6.321,0.38,13.672,2.515,19.534c1.742,4.791,4.485,7.412,9.53,8.367c2.557,0.483,6.018,0.271,8.611,0.421
		C590.465,404.185,589.812,408.554,587.292,412.178z"/>
	<path fill="#E2DEB5" d="M337.429,428.478c2.008-1.119,4.139-2.931,5.449-5.342c-5.327-4.299-7.868-8.26-8.751-10.281
		C332.817,417.897,334.444,423.7,337.429,428.478z"/>
	<path fill="#E2DEB5" d="M343.779,400.178c0.99-0.947,1.689-2.523,2.104-4.273c-3.775-0.549-7.572,0.384-10.973,2.619
		C337.023,398.527,340.16,398.923,343.779,400.178z"/>
	<path fill="#E2DEB5" d="M358.041,348.691c-3.343-0.465-6.934-0.631-10.55-0.568c1.513,5.05,2.242,10.377,2.229,15.666
		c3.456-0.205,6.602-0.249,8.888-0.191C357.525,358.123,357.603,354.282,358.041,348.691z"/>
	<path fill="#E2DEB5" d="M403.012,113.897c-0.942,1.974-1.994,3.883-3.216,5.685c2.805,1.274,5.531,2.814,8.166,4.581
		c1.289-1.87,2.393-4.13,3.355-6.482C408.797,116.025,406.053,114.722,403.012,113.897z"/>
	<path fill="#E2DEB5" d="M365.558,104.123c-2.59,4.435-4.811,9.052-6.485,13.822c3.966-1.586,6.734-2.043,10.842-2.65
		c1.386-3.766,3.807-7.107,6.276-10.326c0.567-0.742,1.165-1.458,1.746-2.187C373.835,102.61,369.656,103.211,365.558,104.123z"/>
	<path fill="#E2DEB5" d="M382.296,94.983c0.614,0.061,1.226,0.137,1.834,0.245c0.641-0.761,1.282-1.522,1.923-2.282
		C384.837,93.695,383.591,94.383,382.296,94.983z"/>
	<path fill="#E2DEB5" d="M389.955,76.167c-2.475,1.822-4.036,3.003-5.895,4.781c-3.183,3.046-6.245,6.356-9.131,9.852
		c9.084-0.262,15.551-7.949,16.734-16.481C391.297,74.931,390.738,75.59,389.955,76.167z"/>
	<path fill="#E2DEB5" d="M312.117,300.075c-0.248,0.498-0.528,0.968-0.805,1.446c2.02-0.615,4.004-1.342,5.965-2.136
		c3.193-8.554,4.171-17.807,1.847-27.522c-2.434-10.188-7.388-20.855-16.545-26.737c-6.908-4.437-13.774-3.745-20.664-1.605
		c-0.197,0.12-0.399,0.236-0.593,0.361c5.871-0.156,11.327,2.164,17.101,6.526C315.019,262.94,319.361,285.534,312.117,300.075z"/>
	<path fill="#E2DEB5" d="M379.049,199.304c-0.248-2.73-0.641-5.456-1.207-8.17c-4.518,2.355-8.445,5.772-12.286,9.096
		C369.854,201.182,374.672,200.464,379.049,199.304z"/>
	<path fill="#E2DEB5" d="M335.554,139.889c0.318,2.087,0.884,4.226,1.56,6.284c1.663-1.724,3.717-3.581,5.784-4.719
		C342.444,141.346,337.806,140.38,335.554,139.889z"/>
	<path fill="#E2DEB5" d="M327.235,188.643c-1.323-0.363-3.205-1.727-4.148-5.698c0.129,1.474,0.409,2.908,0.938,4.218
		c3.243,8.018,11.214,3.913,15.685-0.263c0.875-0.819,2.2-0.22,2.27,0.939c0.248,4.151,1.988,7.538,4.834,10.059
		c0.4-0.798,1.487-2.144,4.05-4.011c-2.616-0.266-5.08-1.437-6.336-3.936c-2.172-4.315-1.945-8.604-1.093-13.016
		c-1.335,1.921-3.386,4.44-4.745,5.97C336.27,185.63,331.917,189.927,327.235,188.643z"/>
	<path fill="#E2DEB5" d="M429.639,466.208c0.904,0.83,1.965,1.57,2.937,2.143c7.451-5.872,13.092-7.543,16.807-7.725
		C442.808,458.582,435.518,461.558,429.639,466.208z"/>
	<path fill="#E2DEB5" d="M497.996,416.053c1.915-3.459,4.112-7.006,6.335-9.994c-6.361,2.234-12.6,4.883-18.949,7.154
		c-0.661,1.47-1.192,2.942-1.624,4.417C488.43,416.376,493.254,415.812,497.996,416.053z"/>
	<path fill="#E2DEB5" d="M452.801,481.235c6.728-3.063,16.412-8.197,21.826-12.425c-3.607,0.279-7.166,1.358-10.595,3.533
		C459.982,474.905,456.345,478.019,452.801,481.235z"/>
	<path fill="#E2DEB5" d="M449.623,452.77c-3.526-5.233-11.945-5.414-18.28-4.528c0.746,1.474,2.239,3.119,3.003,4.323
		C443.333,451.151,447.727,451.889,449.623,452.77z"/>
	<path fill="#E2DEB5" d="M404.331,404.22c-0.697-7.901-2.973-15.445-8.553-19.968c0.964,2.779,2,7.817,1.872,15.748
		C399.815,401.523,402.047,402.925,404.331,404.22z"/>
	<path fill="#E2DEB5" d="M352.577,152.245c-0.013,0.822-0.063,1.656-0.169,2.528c0.45-1.313,0.998-2.575,1.607-3.795
		C353.56,151.429,353.08,151.855,352.577,152.245z"/>
	<path fill="#E2DEB5" d="M350.568,143.462c0.891,1.844,1.467,3.615,1.767,5.421c1.241-1.299,2.231-2.848,2.892-4.491
		c-0.066-0.003-0.125,0.011-0.193,0C353.543,144.166,352.055,143.832,350.568,143.462z"/>
	<path fill="#E2DEB5" d="M374.754,471.691c-5.463-3.751-12.405-5.228-19.001-4.318c0.885,1.743,2.43,3.356,3.384,3.767
		C367.415,470.425,372.137,470.953,374.754,471.691z"/>
	<path fill="#E2DEB5" d="M349.794,486.388c1.177,1.929,2.732,3.34,4.501,4.385c3.079-2.771,12.574-5.129,16.218-5.576
		C364.153,482.296,356.736,483.511,349.794,486.388z"/>
	<path fill="#E2DEB5" d="M362.236,506.648c11.373-1.186,32.74-6.997,40.613-10.482C388.552,493.357,373.616,496.603,362.236,506.648
		z"/>
	<path fill="#E2DEB5" d="M510.831,399.426c1.673-0.363,3.201-0.647,4.473-0.817c-3.512-4.881-6.502-15.096-5.689-26.777
		c-3.673,0.608-6.144-1.408-7.662-4.35c-0.364,2.65-0.472,5.079-0.305,7.042C502.426,383.689,505.962,391.922,510.831,399.426z"/>
	<path fill="#E2DEB5" d="M515.213,351.391c1.113-2.188,2.4-4.358,3.902-6.477c2.354-3.32,4.953-4.86,6.426-5.406
		c-6.97-1.953-12.512,1.974-16.505,8.048C511.386,348.068,513.657,349.596,515.213,351.391z"/>
	<path fill="#E2DEB5" d="M470.323,403.307c-6.215,0.193-12.453,0.658-18.56,1.883c-8.164,1.634-15.959,4.22-23.131,8.082
		c8.152,1.653,16.639,2.135,25.261,1.377c12.34-1.085,23.532-4.157,35-8.573C483.501,402.806,476.513,403.116,470.323,403.307z"/>
	<path fill="#E2DEB5" d="M533.127,398.031c0.268,2.971-0.014,5.889-1.263,8.116c0.94,0.412,1.92,0.78,2.914,1.13
		c0.644-1.992,2.125-3.604,3.973-4.551C536.822,401.238,534.951,399.663,533.127,398.031z"/>
	<path fill="#E2DEB5" d="M569.477,415.348c-1.665,3.098-3.388,7.037-4.987,11.375c4.364-2.839,7.446-7.082,9.507-12.483
		C572.91,414.831,571.35,415.252,569.477,415.348z"/>
	<path fill="#E2DEB5" d="M373.922,130.271c-1.896,0.528-3.699,1.226-5.494,2c1.637,0.841,3.162,1.788,4.558,2.851
		c2.137-0.607,4.35-0.979,6.605-1.072C378.98,131.367,377.652,129.231,373.922,130.271z"/>
	<path fill="#E2DEB5" d="M384.211,249.915c-2.077,5.352-6.785,18.905-9.221,29.125c5.344-6.944,10.017-14.391,13.787-22.22
		c4.071-8.454,7.57-17.627,8.554-27.034c0.465-4.453,1.922-11.934-0.678-16.338c0.089,0.766,0.067,1.799-0.209,3.09
		C393.746,229.05,390.033,240.088,384.211,249.915z"/>
	<path fill="#E2DEB5" d="M399.096,190.875c-7.031-2.562-13.174-2.849-17.907-1.215c0.631,2.846,1.076,5.719,1.366,8.607
		c0.32-0.104,0.641-0.204,0.953-0.31C388.828,196.174,394.283,193.951,399.096,190.875z"/>
	<path fill="#DBA85C" d="M514.604,352.606c-2.71,5.701-4.193,11.525-4.796,17.085c-0.115-0.018-0.228-0.031-0.36-0.006
		c-6.342,1.197-7.567-8.39-7.233-12.705c0.194-2.526,0.99-5.814,3.396-7.138C508.616,348.187,511.954,350.933,514.604,352.606z"/>
	<path fill="#CF7369" d="M307.872,290.134c-4.255,22.897-33.332,22.571-47.846,12.583c-13.996-9.634-11.87-28.223-2.652-39.52
		c6.901-8.462,18.772-15.225,27.358-13.947C293.317,250.525,311.653,269.785,307.872,290.134z"/>
	<path fill="#BF594C" d="M307.043,275.289c-0.053,0.801-0.138,1.599-0.286,2.398c-2.026,11.009-11.364,18.562-22.174,20.462
		c-10.137,1.782-19.394-0.406-27.273-7.173c-2.68-2.3-5.242-4.95-7.307-7.881c-0.065,7.432,2.868,14.697,10.022,19.623
		c14.514,9.989,43.591,10.315,47.846-12.583C308.821,285.029,308.376,279.992,307.043,275.289z"/>
	<path d="M301.473,283.833c-2.476-4.393-6.568-7.437-11.523-5.741c-3.93,1.348-4.643,5.669-0.725,7.794
		c0.619,0.339,1.966-0.254,1.373-0.632c-4.183-2.663-0.519-6.332,2.423-5.274c5.706,2.045,6.985,8.99,7.453,12.032
		c1.534,9.987-5.344,17.149-15.254,17.65c-0.86,0.043-1.157,1.191-0.294,1.518c7.591,2.897,14.158-1.843,17.555-8.603
		C305.306,296.95,304.409,289.043,301.473,283.833z"/>
	<path d="M284.648,312.794c-4.871-2.302-10.04-3.247-14.302-6.796c-5.154-4.295-6.912-10.608-7.764-16.977
		c-0.037-0.268-0.428-0.27-0.426,0.01c0.141,12.014,7.945,27.321,22.309,25.054C285.137,313.98,285.26,313.081,284.648,312.794z"/>
	<path d="M265.574,308.532c-3.53-2.96-6.729-6.387-8.967-10.427c-1.595-2.881-3.17-8.952-3.043-12.358
		c0.055-1.462,1.065-1.915,1.588,0.52c0.151,0.703,0.551,0.321,0.551-0.038c0.016-5.798-3.891-4.647-3.623,0.374
		c0.507,9.465,4.842,17.756,13.032,22.573C265.554,309.438,265.968,308.86,265.574,308.532z"/>
	<path d="M328.405,276.269c-0.486,0-0.88,0.393-0.88,0.879c0,0.482,0.393,0.875,0.88,0.875c0.485,0,0.878-0.393,0.878-0.875
		C329.283,276.663,328.89,276.269,328.405,276.269z"/>
	<circle cx="335.253" cy="277.14" r="1.161"/>
	<circle cx="340.852" cy="269.218" r="1.16"/>
	<circle cx="337.803" cy="261.386" r="0.943"/>
	<path d="M330.184,261.403c-0.642,0-1.161,0.522-1.161,1.16c0,0.644,0.519,1.164,1.161,1.164c0.643,0,1.162-0.52,1.162-1.164
		C331.346,261.924,330.827,261.403,330.184,261.403z"/>
	<circle cx="333.671" cy="269.535" r="1.161"/>
	<circle cx="327.165" cy="269.913" r="0.973"/>
	<path d="M480.826,333.182c-6.68,0.695-11.502,5.926-10.989,11.697c0.435,4.904,5.043,10.544,12.215,10.647
		C494.891,355.712,494.341,331.778,480.826,333.182z"/>
	<path fill="#DBA85C" d="M482.59,353.668c-7.613,1.262-12.408-5.656-11.391-11.512c0.674-3.879,4.157-7.066,10.124-7.913
		c4.803-0.682,7.537,3.367,7.968,8.966C489.628,347.591,487.314,352.888,482.59,353.668z"/>
	<path fill="#C98739" d="M558.409,363.013c-0.642,1.778-0.51,3.807,0.846,5.79c1.35,1.971,3.141,3.347,5.069,4.62
		c-0.186-2.268-0.342-4.539-0.493-6.809C561.947,365.513,560.119,364.333,558.409,363.013z"/>
	<path fill="#C98739" d="M551.116,334.052c1.897,5.595,5.769,9.626,11.048,12.199c-0.29-2.096-0.652-4.17-1.067-6.225
		C557.621,338.299,554.225,336.349,551.116,334.052z"/>
	<path fill="#C98739" d="M553.739,240.65c4.673-16.721,7.4-33.714,5.311-51.64c-1.393-11.936-4.186-26.833-15.639-33.303
		c-6.642-3.754-14.153-4.931-21.472-3.963c20.693,0.254,27.332,17.632,31.929,33.722
		C559.076,203.686,557.535,222.236,553.739,240.65z"/>
	<path fill="#C98739" d="M522.003,308.274c-1.597,0.276-3.171,0.557-4.716,0.841c1.663,7.506-2.147,15.815-10.25,18.109
		c-0.193,0.055-0.389,0.091-0.582,0.14c2.652,0.568,5.351,0.255,8.01-1.607c3.359-2.353,6.938-5.838,8.177-9.921
		C523.599,312.686,523.025,310.696,522.003,308.274z"/>
	<path fill="#C98739" d="M468.267,318.259c-1.176,0.159-2.354,0.3-3.532,0.44c-0.355,3.372-1.684,6.079-3.664,8.128
		c2.056-0.343,4.11-1.112,5.437-2.701c1.042-1.247,1.702-2.727,1.798-4.367C468.335,319.234,468.288,318.739,468.267,318.259z"/>
	<path fill="#C98739" d="M471.261,107.386c-8.408-2.481-16.642-4.592-24.68-7.502c4.93,4.043,10.262,7.592,15.709,10.629
		c8.786,4.902,19.77,11.193,30.139,11.35c3.144,0.047,5.574-0.764,7.387-2.141C490.703,114.722,481.267,110.338,471.261,107.386z"/>
	<path fill="#C98739" d="M426.65,75.724c0.219,0.437,0.458,0.864,0.686,1.295c-0.26-0.663-0.514-1.333-0.762-2.011
		c-7.762,2.908-9.758,13.517-9.072,23.638c0.095,0.047,0.184,0.11,0.279,0.154c2.27-6.074,5.075-12.289,9.882-16.715
		C425.523,77.376,426.286,74.994,426.65,75.724z"/>
	<path fill="#C98739" d="M260.992,250.027c-3.925,3.448-6.87,7.486-9.225,11.945c2.866-3.735,6.433-7.173,10.537-10.18
		c6.348-4.65,11.852-7.14,16.985-7.767c0.848-0.751,1.755-1.435,2.699-2.071C274.659,241.136,266.247,245.409,260.992,250.027z"/>
	<path fill="#C98739" d="M261.814,233.241c4.665-7.759,10.367-14.809,15.445-22.287c3.584-5.278,7.141-10.607,10.982-15.684
		c-14.939,13.282-26.961,29.929-33.104,48.496c-1.143,3.461-2.074,7.056-2.729,10.698
		C254.89,247.14,257.827,239.873,261.814,233.241z"/>
	<path fill="#C98739" d="M367.313,144.08c-3.411-0.642-6.477,0.425-9.023,2.388c-2.278,2.804-4.151,5.984-5.501,9.388
		c2.143-3.706,4.129-6.854,8.286-9.637C363.674,144.481,365.713,143.882,367.313,144.08z"/>
	<path fill="#C98739" d="M375.523,157.328c-0.852-4.282-2.218-10.828-6.732-12.788c4.416,2.387,4.177,12.703,3.41,18.541
		c-0.84,6.401-3.286,16.618-7.785,23.314c2.557-0.986,4.339-1.368,5.538-1.446C374.468,176.604,377.398,166.773,375.523,157.328z"/>
	<path fill="#C98739" d="M380.479,144.264c-0.016-2.326-0.134-4.639-0.385-6.881c-0.085-0.751-0.175-1.539-0.302-2.315
		c-1.746,0.053-3.451,0.308-5.112,0.7C377.251,137.864,379.214,140.914,380.479,144.264z"/>
	<path fill="#C98739" d="M521.015,394.084c-1.12-0.401-2.137-1-3.066-1.722c1.181,2.71,2.719,5.26,4.754,7.506
		c1.941,2.14,4.35,3.867,7.079,5.276c0.553-2.151,1.432-4.244,1.391-6.595c-0.035-2.202-0.278-4.464-0.929-6.591
		C527.816,394.233,524.747,395.429,521.015,394.084z"/>
	<path fill="#C98739" d="M539.414,404.358c-1.408,0.658-2.53,1.831-3.456,3.307c4.029,1.297,8.43,2.157,12.92,2.753
		C545.354,408.986,542.042,407.031,539.414,404.358z"/>
	<path fill="#C98739" d="M545.673,460.393c-8.786,1.535-18.053,6.823-23.59,14.114c0.618,2.327,1.747,4.708,3.032,5.835
		C531.773,470.995,536.732,465.809,545.673,460.393z"/>
	<path fill="#C98739" d="M543.301,480.995c-1.788,3.708-3.578,7.976-4.663,12.348c1.836,0.331,3.49,0.344,4.592-0.135
		c2.6-11.711,7.154-20.29,14.467-28.147C551.073,467.659,546.257,474.865,543.301,480.995z"/>
	<path fill="#C98739" d="M559.483,498.471c3.255-0.384,6.385-1.525,8.273-3.95c0.738-0.95,1.528-2.506,2.295-4.379
		C565.787,491.585,562.198,494.298,559.483,498.471z"/>
	<path fill="#C98739" d="M509.461,349.675c-2.632,4.74-4.872,9.632-6.458,14.753c0.974,3.247,2.916,5.923,6.445,5.257
		c0.132-0.024,0.246-0.011,0.36,0.006c0.604-5.56,2.086-11.384,4.796-17.085C513.056,351.628,511.274,350.29,509.461,349.675z"/>
	<path fill="#C98739" d="M489.291,343.209c-0.431-5.599-3.165-9.648-7.968-8.966c-0.895,0.128-1.715,0.321-2.498,0.549
		c5.301,3.133,8.651,9.786,4.906,15.659c-0.82,1.284-1.823,2.396-2.962,3.35c0.59,0.002,1.191-0.027,1.821-0.133
		C487.314,352.888,489.628,347.591,489.291,343.209z"/>
	<circle fill="#FFFFFF" cx="363.728" cy="174.542" r="2.752"/>
	<circle fill="#FFFFFF" cx="361.297" cy="170.094" r="1.148"/>
	<circle fill="#FFFFFF" cx="339.989" cy="170.821" r="2.093"/>
	<path fill="#FFFFFF" d="M338.141,166.567c-0.482,0-0.872,0.39-0.872,0.87c0,0.485,0.39,0.873,0.872,0.873
		c0.481,0,0.872-0.389,0.872-0.873C339.013,166.957,338.622,166.567,338.141,166.567z"/>
	<path fill="#E3998D" d="M261.027,264.847c3.003-6.006,15.464-13.422,21.969-10.985c5.021,1.884-10.044,19.146-14.751,21.658
		C263.537,278.029,259.143,268.615,261.027,264.847z"/>
	<path fill="#E3998D" d="M284.566,278.971c4.08-5.335,9.405-6.578,13.494-3.451c5.335,4.079-2.197-9.103-8.787-6.278
		C282.682,272.067,281.869,282.496,284.566,278.971z"/>
	<path fill="#EEC77D" d="M451.237,71.852c11.936,1.989,30.499,9.231,41.335,21.272c5.509,6.118-10.032,6.018-23.275-2.009
		C461.622,86.464,441.606,70.249,451.237,71.852z"/>
	<path fill="#EEC77D" d="M268.239,233.581c2.581-9.034,13.625-24.093,18.862-30.9c4.012-5.215,4.414,8.027-0.401,17.258
		C281.883,229.167,265.832,242.01,268.239,233.581z"/>
	<path fill="#EEC77D" d="M528.399,149.643c10.636,0.576,16.631,3.867,22.724,10.828c5.14,5.875-0.096-7.252-9.188-12.281
		C534.594,144.128,523.824,149.391,528.399,149.643z"/>
	<path fill="#EEC77D" d="M552.345,490.06c0.782-5.461,4.793-14.375,7.918-18.128c3.125-3.75,2.499,7.085,1.459,9.793
		C560.679,484.434,551.514,495.892,552.345,490.06z"/>
	<path fill="#EEC77D" d="M531.303,482.141c2.294-3.058,10.625-12.918,13.126-14.584c2.501-1.665-1.875,7.918-4.169,10.835
		C537.97,481.309,528.802,485.474,531.303,482.141z"/>
	<path fill="#EEC77D" d="M494.426,315.048c5.618-0.75,12.916-2.501,16.459-2.71c3.541-0.209-5.626,5.002-7.291,5.626
		C501.926,318.588,488.177,315.879,494.426,315.048z"/>
</g>
</svg>
