<?xml version="1.0" encoding="utf-8"?>
<!-- Generator: Adobe Illustrator 17.0.0, SVG Export Plug-In . SVG Version: 6.00 Build 0)  -->
<!DOCTYPE svg PUBLIC "-//W3C//DTD SVG 1.1//EN" "http://www.w3.org/Graphics/SVG/1.1/DTD/svg11.dtd">
<svg version="1.1" id="Layer_1" xmlns="http://www.w3.org/2000/svg" xmlns:xlink="http://www.w3.org/1999/xlink" x="0px" y="0px"
	 width="800px" height="600px" viewBox="0 0 800 600" enable-background="new 0 0 800 600" xml:space="preserve">
<g>
	<g>
		<g>
			<polygon fill="#231F20" points="257.297,124.668 261.323,113.47 183.423,134.068 168.765,148.277 			"/>
		</g>
	</g>
	<g>
		<g>
			<polygon fill="#231F20" points="255.729,123.1 261.323,113.47 602.701,126.903 614.005,137.535 			"/>
		</g>
	</g>
	<g>
		<g>
			<polygon fill="#FFFFFF" points="693.251,239.611 613.672,137.204 255.729,123.1 210.73,225.842 			"/>
		</g>
		<g>
			<path fill="#231F20" d="M697.304,241.666l-4.108-0.116l-485.395-13.853l46.683-106.587l1.322,0.053l358.844,14.139
				L697.304,241.666z M213.661,223.986l475.537,13.569l-76.504-98.451l-355.72-14.014L213.661,223.986z"/>
		</g>
	</g>
	<g>
		<g>
			<g>
				<polygon fill="#231F20" points="278.91,173.41 280.819,174.032 283.924,164.373 287.032,154.719 285.117,154.106 
					282.012,163.759 				"/>
			</g>
		</g>
		<g>
			<g>
				<polygon fill="#231F20" points="324.897,156.041 323.341,155.711 321.671,163.689 321.32,165.378 319.658,173.378 
					319.364,174.753 320.917,175.084 322.591,167.105 322.937,165.416 324.598,157.408 				"/>
			</g>
		</g>
		<g>
			<g>
				<polygon fill="#231F20" points="362.761,157.366 361.563,157.313 360.777,165.304 360.621,167.001 359.87,175.03 
					359.815,176.084 361.01,176.135 361.795,168.152 361.956,166.455 362.704,158.423 				"/>
			</g>
		</g>
		<g>
			<g>
				<polygon fill="#231F20" points="400.627,158.684 399.786,158.919 399.896,166.917 399.924,168.614 400.076,176.673 
					400.271,177.421 401.108,177.194 401.002,169.193 400.969,167.493 400.814,159.434 				"/>
			</g>
		</g>
		<g>
			<g>
				<polygon fill="#231F20" points="438.491,160.01 438.008,160.529 439.004,168.531 439.223,170.239 440.286,178.324 
					440.721,178.76 441.208,178.241 440.206,170.239 439.981,168.531 438.926,160.449 				"/>
			</g>
		</g>
		<g>
			<g>
				<polygon fill="#231F20" points="476.353,161.328 476.229,162.127 478.121,170.144 478.532,171.852 480.492,179.976 
					481.175,180.098 481.3,179.303 479.407,171.286 479,169.57 477.034,161.454 				"/>
			</g>
		</g>
		<g>
			<g>
				<polygon fill="#231F20" points="514.22,162.651 514.453,163.732 517.231,171.754 517.839,173.475 520.702,181.623 
					521.628,181.43 521.395,180.356 518.615,172.329 518.009,170.612 515.146,162.46 				"/>
			</g>
		</g>
		<g>
			<g>
				<polygon fill="#231F20" points="552.076,163.979 552.671,165.34 556.342,173.367 557.143,175.094 560.91,183.274 
					562.076,182.774 561.497,181.411 557.821,173.378 557.026,171.649 553.256,163.475 				"/>
			</g>
		</g>
		<g>
			<g>
				<polygon fill="#231F20" points="589.946,165.298 590.889,166.936 595.454,174.98 596.446,176.711 601.123,184.921 
					602.536,184.107 601.591,182.465 597.026,174.424 596.035,172.693 591.362,164.486 				"/>
			</g>
		</g>
		<g>
			<g>
				<polygon fill="#231F20" points="641.33,186.573 642.99,185.438 636.23,175.469 629.934,166.192 627.811,166.622 
					634.571,176.594 				"/>
			</g>
		</g>
	</g>
	<g>
		<g>
			<g>
				<path fill="#231F20" d="M635.109,167.156l1.848,0.064l-1.577-2.034l-394.538-13.672l-0.598,1.362l394.396,13.662
					L635.109,167.156z M619.86,147.531l1.848,0.061l-1.577-2.03l-371.047-12.859l-0.604,1.365l370.903,12.85L619.86,147.531z
					 M681.123,224.056l-464.992-16.114l-0.598,1.365l464.852,16.11l0.468,0.606l1.852,0.066L681.123,224.056z M665.605,206.398
					l1.846,0.064l-1.577-2.03L224.37,189.129l-0.6,1.371l441.362,15.292L665.605,206.398z M650.356,186.773l1.852,0.068
					l-1.579-2.034l-418.018-14.486l-0.598,1.367l417.873,14.48L650.356,186.773z"/>
			</g>
		</g>
		<g>
			<g>
				<path fill="#231F20" d="M681.896,225.042l-464.992-16.114l-0.852,1.95l467.422,16.203L681.896,225.042z M651.4,185.794
					l-418.022-14.484l-0.85,1.949l420.448,14.571L651.4,185.794z M666.647,205.421l-441.501-15.296l-0.858,1.947l443.936,15.383
					L666.647,205.421z M620.9,146.546l-371.05-12.857l-0.85,1.95l373.482,12.943L620.9,146.546z M636.147,166.175l-394.532-13.668
					l-0.852,1.939l396.966,13.763L636.147,166.175z"/>
			</g>
		</g>
	</g>
	<g>
		<g>
			<polygon fill="#231F20" points="320.125,193.511 318.573,193.181 316.899,201.165 316.549,202.854 314.888,210.856 
				314.592,212.225 316.145,212.552 317.821,204.573 318.166,202.886 319.828,194.882 			"/>
		</g>
	</g>
	<g>
		<g>
			<polygon fill="#231F20" points="357.989,194.84 356.793,194.791 356.016,202.778 355.851,204.474 355.098,212.497 
				355.047,213.564 356.24,213.609 357.025,205.622 357.184,203.927 357.942,195.897 			"/>
		</g>
	</g>
	<g>
		<g>
			<polygon fill="#231F20" points="418.727,178.288 418.243,178.805 419.242,186.809 419.462,188.519 420.521,196.612 
				420.96,197.04 421.441,196.529 420.441,188.521 420.216,186.809 419.157,178.722 			"/>
		</g>
	</g>
	<g>
		<g>
			<polygon fill="#FFFFFF" points="254.275,121.646 167.311,146.823 99.144,235.135 213.307,214.988 			"/>
		</g>
		<g>
			<path fill="#231F20" d="M94.549,237.915l71.615-92.779l91.552-26.504l-43.049,98.085L94.549,237.915z M168.458,148.51
				l-64.718,83.845l108.209-19.097l38.885-88.598L168.458,148.51z"/>
		</g>
	</g>
	<g>
		<g>
			<polygon fill="#231F20" points="215.436,237.938 217.002,501.183 686.419,488.593 686.419,270.613 			"/>
		</g>
	</g>
	<g>
		<g>
			<polygon fill="#231F20" points="217.002,500.964 100.598,439.398 99.926,255.393 215.436,237.938 			"/>
		</g>
	</g>
	<g>
		<g>
			<polygon fill="#231F20" points="376.857,253.601 703.664,275.843 685.751,285.833 376.819,266.58 215.097,261.104 
				206.203,250.799 			"/>
		</g>
	</g>
	<g>
		<g>
			<polygon fill="#FFFFFF" points="703.664,275.843 544.494,268.822 550.542,233.904 702.649,238.937 			"/>
			<path fill="#231F20" d="M705.66,277.871l-163.452-7.209l6.712-38.752l155.617,5.149L705.66,277.871z M546.781,266.981
				l154.887,6.834l-0.907-32.999l-148.596-4.918L546.781,266.981z"/>
		</g>
	</g>
	<g>
		<g>
			<polygon fill="#FFFFFF" points="406.156,262.103 381.057,256.203 206.258,251.03 217.644,213.355 380.973,211.965 405.15,219.46 
							"/>
			<path fill="#231F20" d="M408.154,264.565l-27.35-6.431l-177.135-5.242l12.532-41.465l165.059-1.403l25.797,7.997L408.154,264.565
				z M208.846,249.167l172.463,5.105l0.191,0.043l22.657,5.327l-0.914-38.742l-22.557-6.993l-161.601,1.376L208.846,249.167z"/>
		</g>
	</g>
	<g>
		<g>
			<polygon fill="#231F20" points="198.536,195.965 185.682,218.227 187.657,218.485 200.193,196.135 			"/>
		</g>
	</g>
	<g>
		<g>
			<polygon fill="#231F20" points="163.948,202.384 151.094,224.648 153.067,224.91 165.603,202.558 			"/>
		</g>
	</g>
	<g>
		<g>
			<polygon fill="#231F20" points="134.304,208.563 121.45,230.823 123.424,231.09 135.959,208.739 			"/>
		</g>
	</g>
	<g>
		<g>
			<polygon fill="#231F20" points="215.705,215.294 93.208,237.264 94.554,264.122 206.426,250.799 			"/>
		</g>
	</g>
	<g>
		<g>
			<polygon fill="#231F20" points="94.554,263.451 100.824,268.151 215.097,261.104 207.123,251.033 			"/>
		</g>
	</g>
	<g>
		<g>
			<path fill="#231F20" d="M382.651,211.742c0,0,83.781-91.327,162.686,7.718c0,0-60.607-47.337-139.855,4.37L382.651,211.742z"/>
		</g>
	</g>
	<g>
		<g>
			<path fill="#231F20" d="M550.707,492.17l2.969-258.713h-0.682c-4.859-20.47-35.964-36.266-73.639-36.266
				c-37.673,0-68.78,15.796-73.639,36.266h-0.678v5.578c0,0.006,0,0.015,0,0.015c0,0.008,0,0.013,0,0.017l1.988,256.938
				L550.707,492.17z"/>
		</g>
	</g>
	<g>
		<g>
			<path fill="#FFFFFF" d="M529.06,311.969c-3.147-20.467-23.287-36.258-47.688-36.258c-24.397,0-44.542,15.791-47.686,36.258
				h-0.445v5.586v0.011c0,0.006,0,0.011,0,0.015l0.913,177.802l94.059-2.16l1.282-181.254H529.06z M521.478,490.155l-80.655,1.299
				l-0.863-173.9v-2.204l0.364-2.359c2.676-17.425,20.322-30.57,41.049-30.57c20.723,0,38.366,13.145,41.051,30.57l0.337,2.204
				L521.478,490.155z"/>
		</g>
	</g>
	<g>
		<g>
			<polygon fill="#231F20" points="380.973,211.965 405.15,219.46 404.817,261.774 381.142,256.229 			"/>
		</g>
	</g>
	<g>
		<g>
			<polygon fill="#231F20" points="405.039,496.169 387.353,496.665 381.142,256.229 406.156,262.103 			"/>
		</g>
	</g>
	<g>
		<g>
			<path fill="#FFFFFF" d="M543.845,238.775l0.464,5.87c0,0,2.036,246.844,2.147,247.652l9.457-0.242l-2.011-248.076l-0.225-10.074
				c-5.48-21.939-36.646-45.665-74.321-45.665c-37.673,0-65.474,13.425-74.768,32.234l0.451,12.984v5.578c0,0.006,0,0.015,0,0.015
				c0,0.008,0,0.013,0,0.017v257.101l9.672-0.328c-0.015-0.649-0.267-258.423-0.267-258.423l0.42-1.791
				c3.391-14.266,20.168-35.3,64.491-35.3C526.81,200.328,540.459,224.499,543.845,238.775z"/>
		</g>
	</g>
	<g>
		<g>
			<polygon fill="#231F20" points="381.31,266.305 404.817,271.007 404.817,261.774 381.142,256.229 			"/>
		</g>
	</g>
	<g>
		<g>
			<path fill="#231F20" d="M482.044,281.986c-0.229,0-0.449-0.008-0.672-0.008c-20.727,0-38.373,13.138-41.049,30.566l-0.364,2.357
				v2.198l0.863,171.614l0.131,6.669l41.09,1.53V281.986z"/>
		</g>
		<g>
			<path fill="#FFFFFF" d="M483.014,497.919l-43.011-1.6l-0.149-7.586l-0.863-173.831l0.375-2.505
				c2.747-17.894,20.806-31.388,42.007-31.388l1.642,0.008V497.919z M441.906,494.448l39.169,1.46v-212.96
				c-20.124,0.125-37.203,12.871-39.793,29.744l-0.364,2.357L441.906,494.448z"/>
		</g>
	</g>
	<g>
		<g>
			<path fill="#231F20" d="M522.423,312.544c-2.651-17.235-19.945-30.271-40.378-30.558v214.928l39.434-3.318l1.282-178.849
				L522.423,312.544z"/>
		</g>
		<g>
			<path fill="#FFFFFF" d="M481.075,497.968V281.003l0.983,0.013c20.852,0.294,38.618,13.785,41.323,31.38l0.337,2.204
				l-1.277,179.887L481.075,497.968z M483.014,282.98v212.879l37.501-3.155l1.275-177.965l-0.326-2.049
				C518.943,296.294,502.504,283.658,483.014,282.98z"/>
		</g>
	</g>
	<g>
		<g>
			<polygon fill="#231F20" points="482.044,414.384 473.817,415.668 473.817,396.418 482.044,398.101 			"/>
		</g>
	</g>
	<g>
		<g>
			<g>
				<path fill="#FFFFFF" d="M473.311,395.88l9.233,1.89v16.701v0.426l-9.233,1.445V395.88L473.311,395.88z M474.323,415.164
					l7.216-1.127v-15.446l-7.216-1.47V415.164L474.323,415.164z"/>
			</g>
		</g>
	</g>
	<g>
		<g>
			<polygon fill="#231F20" points="482.544,414.384 490.772,415.668 490.772,396.418 482.544,398.101 			"/>
		</g>
	</g>
	<g>
		<g>
			<g>
				<path fill="#FFFFFF" d="M491.277,395.88v20.462l-9.237-1.445v-0.426V397.77L491.277,395.88L491.277,395.88z M490.266,415.164
					v-18.042l-7.216,1.47v15.446L490.266,415.164L490.266,415.164z"/>
			</g>
		</g>
	</g>
	<g>
		<g>
			<g>
				<path fill="#FFFFFF" d="M240.954,427.942V304.319l127.596,6.008v117.882v2.049L240.954,427.942L240.954,427.942z
					 M366.535,428.209l0.038-2.02L366.535,428.209L366.535,428.209z M244.987,423.988l119.531,2.166V314.173l-119.531-5.628V423.988
					L244.987,423.988z"/>
			</g>
		</g>
	</g>
	<g>
		<g>
			<path fill="#FFFFFF" d="M178.409,218.286c-44.012-25.635-56.318,12.482-56.318,12.482v219.923l56.432,30.365
				C178.523,481.057,178.765,218.498,178.409,218.286z"/>
		</g>
	</g>
	<g>
		<g>
			<path fill="#231F20" d="M171.787,477.18l-42.984-22.84V235.915l0.074-5.588c-0.134-5.118,8.027-12.802,19.954-14.389
				c1.664-0.223,3.335-0.333,4.967-0.333c10.525,0,17.951,7.599,17.951,7.72l0.038,246.052V477.18z"/>
		</g>
	</g>
	<g>
		<g>
			<path fill="#FFFFFF" d="M166.074,474.206l-32.567-17.301V291.38l0.057-4.244c-0.108-3.863,6.08-9.691,15.122-10.897
				c1.257-0.168,2.52-0.257,3.761-0.257c7.974,0,13.607,5.768,13.607,5.86l0.021,186.456V474.206z"/>
		</g>
	</g>
	<g>
		<g>
			<path fill="#231F20" d="M149.401,280.215c-0.066,0.013-0.131,0.013-0.188,0.025c-7.69,1.019-11.52,5.579-11.627,6.794l0.004,0.08
				l-0.004,0.079l-0.057,4.187v167.605l11.871,6.338V280.215z"/>
		</g>
	</g>
	<g>
		<g>
			<path fill="#231F20" d="M161.855,283.626c-1.649-1.295-5.209-3.613-9.581-3.613c-0.983,0-2.003,0.066-3.041,0.202v185.108
				l12.647,6.758v-4.573L161.855,283.626z"/>
		</g>
	</g>
	<g>
		<g>
			<polygon fill="#FFFFFF" points="149.284,385.314 144.476,383.212 144.33,372.298 149.354,371.506 			"/>
		</g>
	</g>
	<g>
		<g>
			<polygon fill="#231F20" points="148.688,384.17 145.005,382.989 145.005,373.138 148.627,372.354 			"/>
		</g>
	</g>
	<g>
		<g>
			<polygon fill="#FFFFFF" points="149.345,385.477 154.152,383.377 154.294,372.47 149.354,371.567 			"/>
		</g>
	</g>
	<g>
		<g>
			<polygon fill="#231F20" points="149.899,384.352 153.62,383.155 153.62,373.307 150.142,372.536 			"/>
		</g>
	</g>
	<g>
		<g>
			<path fill="#FFFFFF" d="M534.977,242.959c-0.085-0.083-0.216-0.131-0.411-0.131c-0.367,0-0.968,0.324-1.816,0.968
				c-0.85,0.648-1.61,1.053-2.282,1.227l-0.458,0.458l-0.725,0.525l-0.229,0.43l-0.235,0.117c-0.191,0.057-0.354,0.106-0.487,0.129
				c-0.14,0.03-0.252,0.044-0.345,0.044c-0.407,0-0.754-0.305-1.043-0.922c-0.286-0.617-0.547-1.004-0.782-1.159l0.178-0.636
				c-0.159-0.343-0.388-0.843-0.697-1.492c-0.305-0.659-0.528-1.142-0.664-1.451l-0.545-0.606c-0.114-0.348-0.343-0.604-0.68-0.792
				c-0.343-0.182-0.771-0.277-1.314-0.277c-0.767,0-1.566,0.231-2.393,0.682c-0.829,0.445-1.763,1.189-2.797,2.204l-0.439,0.67
				l-0.862,0.517c-0.14,0.095-0.261,0.21-0.379,0.346c-0.119,0.136-0.229,0.318-0.343,0.545l-0.066,0.352l-0.167,0.314l-0.43,0.178
				c-0.432,0.379-0.795,0.754-1.106,1.102c-0.307,0.362-0.575,0.722-0.803,1.087l-1.217,1.095v-0.229
				c0-0.191,0.085-0.403,0.263-0.638c0.172-0.227,0.261-0.428,0.261-0.602c0-0.093-0.019-0.214-0.055-0.35
				c-0.025-0.032-0.043-0.074-0.062-0.112l0.286-0.231c0.365-1.079,0.665-1.909,0.884-2.488c0.22-0.572,0.443-1.114,0.678-1.613
				v-0.523l0.402-0.6c0.095-0.271,0.193-0.566,0.276-0.884c0.089-0.318,0.178-0.672,0.276-1.083l0.112-0.979
				c0.08-0.271,0.137-0.517,0.178-0.767c0.034-0.239,0.057-0.475,0.057-0.701c0-0.39-0.123-0.746-0.346-1.072
				c-0.235-0.327-0.627-0.706-1.189-1.123l-0.43-0.059l-0.403-0.119l-0.663,0.229l-0.636,0.407l-0.608,0.197
				c-0.598,0.18-2.441,2.043-5.542,5.603c-1.079,1.235-1.922,2.2-2.539,2.891l-0.375,0.434l-0.576,0.525l-0.407,0.343
				c-0.027,0.121-0.055,0.182-0.083,0.265c-0.028,0.019-0.06,0.028-0.089,0.045l-0.182,0.277c-0.01,0-0.01,0.019-0.019,0.019h-0.06
				c-0.057,0-0.1,0.006-0.118,0.011c-0.019,0.008-0.036,0.038-0.057,0.102c0.029,0.061,0.038,0.098,0.047,0.136l-0.449,0.21
				c-0.328,0.29-0.697,0.612-1.113,0.975c-0.411,0.371-0.646,0.583-0.703,0.636l-0.176,0.47l-0.782-0.061l-1.009,0.663l-0.398,0.117
				c-0.505,0.267-0.913,0.453-1.216,0.547c-0.311,0.098-0.6,0.146-0.871,0.146c-0.445,0-0.88-0.089-1.327-0.258
				c-0.441-0.178-0.898-0.451-1.384-0.814l-0.168-0.576l-0.292-0.345c-0.159-0.328-0.271-0.604-0.337-0.826
				c-0.064-0.223-0.097-0.424-0.097-0.621c0-0.055,0.013-0.112,0.055-0.174c0.042-0.053,0.098-0.113,0.174-0.17l0.435-0.515
				l1.005-0.668l0.176-0.346l0.521-0.178c0.981-0.763,1.791-1.447,2.426-2.049c0.636-0.595,1.18-1.17,1.644-1.735l0.201-0.369
				c0.347-0.362,0.631-0.684,0.85-0.949c0.225-0.278,0.413-0.545,0.57-0.812l0.114-0.668l0.401-0.574l0.235-0.778l0.055-0.636
				l-0.176-0.436c0.019-0.03,0.036-0.097,0.045-0.17c0.009-0.079,0.015-0.174,0.015-0.292c0-0.093-0.034-0.261-0.089-0.49
				c-0.057-0.229-0.14-0.496-0.261-0.805l-0.169-0.061l-0.404-0.519l-1.187-0.375l-0.257-0.114
				c-0.098-0.023-0.201-0.036-0.318-0.045c-0.117-0.009-0.276-0.015-0.491-0.015c-0.558,0-1.075,0.095-1.545,0.278
				c-0.475,0.182-0.968,0.485-1.486,0.907l-0.172,0.405l-0.286,0.057l-0.235,0.258h-0.318c-1.254,1.117-2.174,2.03-2.769,2.727
				c-0.598,0.708-1.089,1.428-1.473,2.185l0.112,0.341l-0.403,0.235c-0.25,0.364-0.462,0.776-0.621,1.229
				c-0.159,0.449-0.313,1.024-0.449,1.712l-0.172,0.498l0.115,0.339l-0.29,0.547v0.238c-0.017,0.136-0.045,0.238-0.083,0.333
				c-0.038,0.083-0.089,0.144-0.146,0.191l-0.669,0.54l-0.776,0.458l-0.169,0.396c-0.009,0.015-0.023,0.019-0.038,0.032
				c-0.326,0.151-0.583,0.299-0.757,0.458c-0.083,0.072-0.131,0.193-0.201,0.286c-0.305,0.235-0.509,0.36-0.566,0.36
				c-0.58,0-1.034-0.112-1.369-0.341c-0.333-0.233-0.587-0.589-0.737-1.07l-0.434-0.75l-0.29-0.61l-0.403-0.774l-0.608-0.865
				l-0.576-1.132c-0.252-0.786-0.566-1.371-0.939-1.75c-0.379-0.367-0.827-0.561-1.371-0.561c-0.426,0-0.833,0.117-1.227,0.337
				c-0.396,0.224-0.793,0.566-1.195,1.024v0.517l-0.407,0.377l-0.318,1.009l-0.174,0.29c-0.093,0.098-0.248,0.416-0.462,0.949
				c-0.212,0.545-0.394,0.981-0.547,1.307l-1.038,2.481l-0.782,2.416l-0.172,0.701l-0.776,2.659l-0.061,0.434l-0.174,0.343
				l-0.233,1.015l-0.487,1.407v0.636l-0.235,0.67l-0.112,0.405l-0.346,0.778l-0.055,0.774l-0.375,0.464l-0.235,0.898l-0.178,0.401
				l-0.055,0.604l-0.112,0.691l-0.118,0.469l-0.117,0.201v0.579l-0.235,0.776l-0.11-0.061v-0.258c0-0.557,0.083-1.441,0.261-2.642
				c0.172-1.202,0.411-2.551,0.72-4.028l-0.057-0.292l0.114-0.434l0.205-0.168l0.114-0.693l0.347-1.734l0.72-2.772l0.346-1.825
				l0.468-2.011l0.888-3.204l0.121-0.869l0.229-0.258l0.174-0.756v-0.549l0.43-0.521l0.401-1.121l0.178-0.581l0.547-1.613
				l0.865-2.717l0.843-2.535l0.345-1.182c0.267-0.466,0.479-0.988,0.617-1.572c0.146-0.591,0.216-1.212,0.216-1.867
				c0-0.458-0.127-0.852-0.388-1.174c-0.256-0.314-0.56-0.477-0.907-0.477c-0.098,0-0.182,0.029-0.248,0.08
				c-0.066,0.041-0.131,0.125-0.188,0.242l-0.401,0.519l-0.581,0.519l-0.233,0.464l0.06,0.373l-0.257,0.178l-0.233,0.407
				l-0.954,1.842l-0.458,1.185l-0.235,0.167l-1.731,3.242l-1.356,2.191l-0.871,1.184l-0.831,1.248l-0.233,0.716l0.116,0.284
				l-0.492,0.352c-0.364,0.248-0.962,1.009-1.786,2.282c-0.134,0.206-0.242,0.388-0.318,0.519l-0.233,0.515
				c-0.292,0.201-0.547,0.413-0.778,0.655c-0.157,0.159-0.299,0.354-0.447,0.545c0.526-0.723,1.388-2.244,2.6-4.579
				c0.326-0.629,0.579-1.121,0.752-1.468l-0.055-0.837l0.172-0.233c0.248-0.633,0.439-1.278,0.572-1.931
				c0.14-0.659,0.204-1.352,0.204-2.083v-1.062l0.178-0.411v-0.371c0-4.026-1.113-7.599-3.321-10.723
				c-2.217-3.134-4.545-4.698-6.987-4.698h-1.413l-1.07,0.352c-0.1-0.023-0.197-0.038-0.305-0.042
				c-0.102-0.019-0.195-0.023-0.271-0.023c-0.407,0-0.937,0.275-1.591,0.807c-0.172,0.136-0.318,0.25-0.43,0.32l-2.428,1.591
				c-0.155,0.115-0.309,0.327-0.464,0.623c-0.153,0.299-0.373,0.443-0.663,0.443l-0.748,0.668l-0.375,0.515l-1.045,0.233
				l1.363-2.594l0.29-0.954c0.036-0.057,0.093-0.165,0.168-0.318c0.191-0.39,0.29-0.648,0.29-0.776c0-0.254-0.127-0.458-0.375-0.61
				c-0.252-0.155-0.581-0.235-0.983-0.235l-1.072,0.636l-0.809,0.553l-0.373,0.833l-1.184,1.583l-1.297,2.833l-0.121,0.954
				l-0.345,0.691l-0.951,3.153l-0.057,0.723l-0.345,0.746l-0.67,1.731l-3.545,6.499l0.085,1.068l-0.375,0.458l0.029,1.39
				c0.136,0.11,0.309,0.21,0.534,0.288c0.223,0.078,0.447,0.114,0.682,0.114l1.409-1.958l-0.403,1.585l0.117,0.718l-0.235,0.782
				c-0.093,1.195-0.169,2.233-0.214,3.121c-0.047,0.888-0.076,1.693-0.076,2.422c0,1.659,0.197,3.132,0.58,4.416
				c0.384,1.291,0.918,2.28,1.591,2.946c0.132,0.371,0.29,0.64,0.464,0.826c0.172,0.176,0.388,0.312,0.659,0.386
				c0.178,0.538,0.636,0.941,1.384,1.199c0.753,0.261,1.835,0.388,3.238,0.388c0.863,0,1.562-0.049,2.094-0.152
				c0.525-0.112,0.992-0.284,1.394-0.542l0.18-0.426l0.29,0.112c0.943-0.269,1.871-0.663,2.768-1.187
				c0.907-0.519,1.842-1.183,2.797-1.988l0.617-0.786c0.318-0.112,0.589-0.239,0.799-0.373c0.21-0.131,0.388-0.305,0.521-0.509
				l3.437-3.725c0.023,0.206,0.051,0.415,0.153,0.551c0.136,0.189,0.318,0.277,0.547,0.277c0.025,0,0.381-0.242,1.074-0.735
				c0.691-0.49,1.477-0.939,2.365-1.337l0.72-0.523l0.458-0.837c0.254-0.21,0.47-0.477,0.636-0.81
				c0.18-0.326,0.32-0.493,0.436-0.493c0.023,0,0.042,0.03,0.07,0.091c0.032,0.061,0.048,0.133,0.048,0.235v0.284l-0.055,0.462
				l-0.413,2.367l0.066,0.721l-0.208,0.403c-0.326,1.27-0.672,3.495-1.055,6.688c-0.375,3.179-0.646,6.641-0.814,10.377l0.112,0.928
				l0.057,0.803l0.663,1.125l0.346,0.055c0.235,0.203,0.397,0.324,0.505,0.379c0.108,0.061,0.216,0.099,0.328,0.118
				c0.195,0,0.392-0.057,0.579-0.172c0.197-0.114,0.366-0.267,0.525-0.466c0.036-0.153,0.079-0.292,0.131-0.428
				c0.047-0.136,0.108-0.286,0.187-0.436l1.123-2.484c0-0.148,0.013-0.307,0.045-0.477c0.028-0.163,0.089-0.354,0.188-0.557
				l0.576-1.623v-0.46l0.436-0.405l0.576-2.193l0.116-1.072l0.292-0.485l1.009-3.352l0.608-1.678l0.112-1.117l0.403-0.296
				c0.14-0.481,0.415-1.253,0.837-2.306c0.426-1.057,0.744-1.89,0.954-2.488l0.229-0.633l0.347-0.288l0.345-0.67l0.553-0.051
				l0.515-0.233l0.668,0.519l0.631,0.954c0.254,0.307,0.483,0.579,0.697,0.818c0.21,0.242,0.417,0.462,0.604,0.655l0.551,0.78
				l0.576,0.576l0.837,0.318l0.636,0.118l0.095-0.015c0.055,0.034,0.14,0.057,0.28,0.072c0.405,0,0.697-0.057,0.879-0.159
				c0.066-0.038,0.095-0.117,0.146-0.165c0.697-0.415,1.369-0.884,1.998-1.407c0.116-0.07,0.252-0.146,0.411-0.231l0.58-0.466
				l0.43-0.286l0.759-0.547l0.051,0.547l0.318,1.18c0.098,0.313,0.21,0.583,0.331,0.822c0.13,0.242,0.286,0.485,0.477,0.742
				l0.318,0.314l0.346,0.665l0.693,0.636l0.428-0.057c0.235,0.305,0.587,0.53,1.059,0.676c0.471,0.144,1.066,0.218,1.778,0.218
				h0.833l0.29-0.178l0.663,0.121h0.29c0.557,0,1.225-0.176,2.007-0.54c0.78-0.352,1.488-0.811,2.119-1.373l0.729-0.453l0.343-0.439
				c0.271-0.273,0.487-0.479,0.65-0.636c0.163-0.151,0.309-0.286,0.449-0.398l0.318-0.146l0.49-0.403
				c0.155-0.144,0.362-0.312,0.636-0.523c0.741-0.576,1.212-1.087,1.492-1.556c0.07-0.038,0.114-0.076,0.206-0.117l0.074-0.114
				c0.254-0.038,0.441-0.095,0.534-0.163c0.117-0.085,0.172-0.248,0.172-0.477v-0.102l0.235-0.066l0.631-0.608l0.754-0.951
				c0.098-0.064,0.36-0.369,0.792-0.932c0.435-0.557,0.971-0.829,1.608-0.829c0.15,0,0.273,0.023,0.373,0.072
				c0.095,0.044,0.142,0.121,0.142,0.212c0,0.367-0.102,0.833-0.318,1.397c-0.207,0.576-0.318,0.935-0.318,1.087
				c0,0.057,0.015,0.121,0.032,0.186c0.019,0.072,0.047,0.136,0.089,0.216l-0.29,0.492c-0.079,0.212-0.155,0.396-0.235,0.564
				c-0.074,0.159-0.112,0.254-0.112,0.277c0,0.167-0.131,0.735-0.392,1.685c-0.261,0.951-0.674,2.356-1.227,4.204l-0.115,0.545
				l0.172,0.292l-0.057,0.837c0.076,0.341,0.189,0.579,0.33,0.687c0.144,0.121,0.411,0.178,0.793,0.178
				c0.754,0,1.358-0.112,1.824-0.333c0.46-0.223,0.913-0.631,1.358-1.225c0.384-0.35,0.88-0.841,1.488-1.477
				c0.608-0.636,1.477-1.587,2.61-2.863l0.831-1.235c0.29-0.093,0.558-0.229,0.795-0.402c0.244-0.18,0.474-0.398,0.684-0.67
				l0.46-0.659l0.551-0.178c0.79-0.663,1.327-1.095,1.619-1.261c0.284-0.174,0.532-0.263,0.748-0.263
				c0.093,0,0.197,0.013,0.297,0.042c0.11,0.029,0.221,0.07,0.339,0.127c0.309,0.426,0.621,0.814,0.933,1.159
				c0.318,0.341,0.661,0.67,1.03,0.977l0.057,0.581c0.439,1.1,0.994,1.964,1.655,2.6c0.663,0.636,1.339,0.951,2.011,0.951
				c0.131,0,0.29-0.029,0.477-0.083c0.178-0.06,0.398-0.151,0.646-0.257l1.187-0.492l0.375-0.379
				c0.057-0.042,0.13-0.087,0.229-0.144c0.538-0.292,0.865-0.629,0.987-1.008l0.458-0.288l0.318-0.292
				c0.712-0.716,1.375-1.394,1.992-2.039c0.614-0.64,1.17-1.272,1.674-1.888l0.375-0.432c0.057-0.235,0.159-0.581,0.318-1.038
				C535.089,243.198,535.047,243.05,534.977,242.959z M456.699,245.949l-1.591,2.479c-1.619,2.038-3.2,3.55-4.753,4.518
				c-1.549,0.979-3.143,1.454-4.77,1.454c-0.104,0-0.244,0-0.422-0.023c-0.186-0.019-0.322-0.032-0.42-0.032l-0.464,0.121
				l-0.545-0.468c-0.767-0.417-1.414-1.299-1.937-2.64c-0.519-1.337-0.894-3.104-1.123-5.298l-0.174-0.227l0.174-0.75l0.112-4.624
				l-0.112-0.549l0.292-0.803l1.522-8.635c0.619-0.769,1.259-1.498,1.924-2.195c0.663-0.691,1.388-1.409,2.183-2.134l0.632-0.172
				l0.491-0.464l1.53-0.545l0.407-0.352c0.655-0.116,1.111-0.191,1.369-0.227c0.258-0.045,0.454-0.061,0.591-0.061
				c0.716,0,1.362,0.083,1.941,0.242c0.57,0.167,1.146,0.443,1.725,0.822l0.697,0.235l0.375,0.523
				c0.748,0.706,1.397,1.704,1.945,2.977c0.553,1.267,0.941,2.071,1.17,2.416l-0.057,0.983c0.114,0.792,0.193,1.388,0.229,1.791
				c0.042,0.407,0.061,0.741,0.061,1.013c0,0.636-0.074,1.397-0.22,2.295c-0.146,0.894-0.36,1.922-0.65,3.073l0.061,0.663
				l-0.346,0.434c-0.197,0.772-0.439,1.498-0.739,2.181C457.512,244.654,457.138,245.313,456.699,245.949z M458.863,248.621
				c-0.165,0.22-0.312,0.42-0.407,0.564l0.057-0.265L458.863,248.621z M460.018,247.315v-0.125l0.557-0.451
				c-0.06,0.079-0.115,0.136-0.178,0.22C460.272,247.061,460.145,247.197,460.018,247.315z M490.266,242.247
				c-0.028-0.011-0.04-0.045-0.04-0.081c0-0.155,0.036-0.343,0.112-0.562c0.074-0.224,0.178-0.439,0.29-0.653l0.954-1.384
				l1.066-1.068l1.127-1.009l0.464-0.29h0.112c0.117,0.017,0.186,0.045,0.206,0.091c0.017,0.034,0.036,0.189,0.055,0.458
				c0,0.324-0.083,0.648-0.244,0.951c-0.167,0.314-0.246,0.542-0.246,0.693l-0.464,0.352l-1.178,1.004l-0.496,0.492l-0.292,0.523
				c-0.11,0.136-0.195,0.216-0.259,0.242c-0.057,0.034-0.104,0.042-0.14,0.042c-0.095,0-0.184,0.008-0.258,0.015
				c-0.079,0.015-0.165,0.028-0.263,0.042c-0.117,0.079-0.201,0.132-0.256,0.144c-0.062,0.021-0.117,0.03-0.178,0.03
				C490.323,242.278,490.298,242.268,490.266,242.247z"/>
		</g>
	</g>
	<g>
		<g>
			<rect x="293.112" y="308.666" fill="#FFFFFF" width="4.026" height="119.992"/>
		</g>
	</g>
	<g>
		<g>
			<polygon fill="#FFFFFF" points="359.701,421.807 361.015,313.928 364.518,314.173 364.598,426.338 			"/>
		</g>
	</g>
	<g>
		<g>
			<g>
				<polygon fill="#231F20" points="258.494,153.892 260.402,154.507 263.508,144.859 266.615,135.2 264.701,134.588 
					261.599,144.242 				"/>
			</g>
		</g>
		<g>
			<g>
				<polygon fill="#231F20" points="304.481,136.518 302.924,136.192 301.254,144.176 300.896,145.861 299.241,153.863 
					298.948,155.234 300.5,155.566 302.176,147.586 302.527,145.893 304.182,137.895 				"/>
			</g>
		</g>
		<g>
			<g>
				<polygon fill="#231F20" points="342.345,137.847 341.146,137.791 340.366,145.785 340.207,147.478 339.448,155.511 
					339.402,156.571 340.599,156.622 341.375,148.629 341.534,146.937 342.292,138.9 				"/>
			</g>
		</g>
		<g>
			<g>
				<polygon fill="#231F20" points="380.207,139.167 379.37,139.406 379.476,147.402 379.51,149.097 379.663,157.162 
					379.851,157.904 380.693,157.675 380.585,149.673 380.553,147.974 380.402,139.915 				"/>
			</g>
		</g>
		<g>
			<g>
				<polygon fill="#231F20" points="418.074,140.491 417.591,141.006 418.589,149.012 418.813,150.72 419.869,158.802 
					420.308,159.241 420.786,158.73 419.79,150.72 419.57,149.012 418.513,140.921 				"/>
			</g>
		</g>
		<g>
			<g>
				<polygon fill="#231F20" points="455.936,141.814 455.809,142.61 457.705,150.625 458.119,152.333 460.075,160.458 
					460.759,160.58 460.888,159.779 458.996,151.767 458.578,150.055 456.623,141.93 				"/>
			</g>
		</g>
		<g>
			<g>
				<polygon fill="#231F20" points="493.804,143.138 494.033,144.214 496.814,152.24 497.418,153.958 500.287,162.104 
					501.217,161.913 500.984,160.837 498.199,152.81 497.593,151.095 494.73,142.945 				"/>
			</g>
		</g>
		<g>
			<g>
				<polygon fill="#231F20" points="531.665,144.462 532.254,145.823 535.93,153.852 536.727,155.575 540.497,163.755 
					541.665,163.25 541.076,161.894 537.401,153.859 536.61,152.136 532.836,143.956 				"/>
			</g>
		</g>
		<g>
			<g>
				<polygon fill="#231F20" points="569.533,145.781 570.478,147.421 575.043,155.469 576.03,157.2 580.701,165.403 
					582.114,164.588 581.169,162.947 576.606,154.901 575.623,153.176 570.946,144.971 				"/>
			</g>
		</g>
		<g>
			<g>
				<polygon fill="#231F20" points="620.907,167.054 622.574,165.925 615.819,155.954 609.056,145.977 607.389,147.109 
					614.155,157.075 				"/>
			</g>
		</g>
	</g>
	<g>
		<g>
			<polygon fill="#231F20" points="259.145,191.693 261.057,192.31 264.163,182.647 267.268,173.002 265.35,172.386 
				262.249,182.043 			"/>
		</g>
	</g>
	<g>
		<g>
			<polygon fill="#231F20" points="178.326,460.799 184.976,459.046 216.432,477.143 212.961,479.587 			"/>
		</g>
	</g>
	<g>
		<g>
			<polygon fill="#231F20" points="305.13,174.321 303.574,173.99 301.909,181.975 301.553,183.662 299.896,191.659 299.599,193.03 
				301.15,193.367 302.824,185.383 303.176,183.694 304.837,175.696 			"/>
		</g>
	</g>
	<g>
		<g>
			<polygon fill="#231F20" points="342.994,175.651 341.797,175.594 341.015,183.581 340.856,185.281 340.103,193.306 
				340.048,194.367 341.254,194.42 342.03,186.427 342.189,184.736 342.943,176.703 			"/>
		</g>
	</g>
	<g>
		<g>
			<polygon fill="#231F20" points="380.86,176.963 380.019,177.199 380.131,185.196 380.159,186.898 380.309,194.961 
				380.506,195.707 381.346,195.472 381.235,187.474 381.203,185.776 381.047,177.718 			"/>
		</g>
	</g>
	<g>
		<g>
			<polygon fill="#231F20" points="532.315,182.259 532.909,183.615 536.577,191.647 537.371,193.378 541.141,201.551 
				542.317,201.047 541.732,199.691 538.054,191.659 537.261,189.936 533.491,181.759 			"/>
		</g>
	</g>
	<g>
		<g>
			<polygon fill="#231F20" points="586.98,184.569 587.929,186.209 592.489,194.251 593.481,195.976 598.158,204.19 
				599.571,203.376 598.626,201.729 594.06,193.694 593.07,191.958 588.397,183.751 			"/>
		</g>
	</g>
	<g>
		<g>
			<polygon fill="#231F20" points="640.309,205.467 642.329,204.713 635.567,194.738 629.561,185.954 627.152,185.897 
				633.911,195.864 			"/>
		</g>
	</g>
	<g>
		<g>
			<polygon fill="#231F20" points="274.14,210.884 276.053,211.5 278.99,202.373 281.926,193.23 280.018,192.615 277.083,201.753 
							"/>
		</g>
	</g>
	<g>
		<g>
			<polygon fill="#231F20" points="547.316,201.969 547.901,203.395 551.573,211.833 552.366,213.643 556.138,222.225 
				557.316,221.702 556.727,220.274 553.049,211.837 552.256,210.034 548.486,201.439 			"/>
		</g>
	</g>
	<g>
		<g>
			<polygon fill="#231F20" points="585.174,203.85 586.123,205.495 590.684,213.567 591.676,215.307 596.353,223.545 
				597.766,222.729 596.819,221.085 592.256,213.007 591.267,211.267 586.596,203.032 			"/>
		</g>
	</g>
	<g>
		<g>
			<polygon fill="#231F20" points="637.512,225.444 639.175,224.323 632.293,214.168 625.418,204.028 623.757,205.152 
				630.637,215.298 			"/>
		</g>
	</g>
	<g>
		<g>
			<polygon fill="#231F20" points="251.656,132.754 164.444,154.083 161.895,157.296 250.094,135.723 			"/>
		</g>
	</g>
	<g>
		<g>
			<polygon fill="#231F20" points="226.619,189.411 121.486,210.738 118.409,213.954 225.135,192.375 			"/>
		</g>
	</g>
	<g>
		<g>
			<path fill="#231F20" d="M133.306,194.473l99.21-20.129l1.886-2.965l-98.725,20.03L133.306,194.473z M151.979,170.288
				l-2.367,3.066l91.306-18.528l1.88-2.965L151.979,170.288z"/>
		</g>
	</g>
	<g>
		<g>
			<polygon fill="#231F20" points="179.178,151.776 170.392,168.008 172.372,168.082 180.833,151.805 			"/>
		</g>
	</g>
	<g>
		<g>
			<polygon fill="#231F20" points="213.938,479.981 178.326,460.799 178.502,481.759 211.019,503.238 			"/>
		</g>
	</g>
	<g>
		<g>
			<polygon fill="#231F20" points="122.113,429.249 97.999,417.065 97.898,438.002 122.066,450.582 			"/>
		</g>
	</g>
	<g>
		<g>
			<polygon fill="#231F20" points="162.198,169.176 149.672,190.227 151.645,190.515 163.853,169.368 			"/>
		</g>
	</g>
	<g>
		<g>
			<polygon fill="#231F20" points="187.653,164.959 175.565,184.378 177.536,184.671 189.299,165.162 			"/>
		</g>
	</g>
	<g>
		<g>
			<polygon fill="#231F20" points="215.07,158.302 202.616,179.093 204.584,179.373 216.727,158.487 			"/>
		</g>
	</g>
	<g>
		<g>
			<polygon fill="#231F20" points="218.962,175.991 206.814,195.65 208.784,195.94 220.607,176.196 			"/>
		</g>
	</g>
	<g>
		<g>
			<polygon fill="#231F20" points="190.842,181.013 178.653,200.835 180.617,201.123 192.491,181.216 			"/>
		</g>
	</g>
	<g>
		<g>
			<polygon fill="#231F20" points="161.979,186.552 149.746,206.52 151.712,206.806 163.63,186.749 			"/>
		</g>
	</g>
	<g>
		<g>
			<polygon fill="#231F20" points="207.212,145.361 198.345,162.267 200.327,162.343 208.873,145.384 			"/>
		</g>
	</g>
	<g>
		<g>
			<polygon fill="#231F20" points="232.783,139.192 223.802,156.934 225.786,156.999 234.44,139.203 			"/>
		</g>
	</g>
	<g>
		<g>
			<polygon fill="#FFFFFF" points="555.699,471.469 689.252,471.034 689.102,488.568 555.913,492.054 			"/>
		</g>
		<g>
			<path fill="#231F20" d="M553.994,494.045l-0.255-24.509l137.468-0.447l-0.183,21.369L553.994,494.045z M557.658,473.403
				l0.173,16.662l129.349-3.386l0.116-13.7L557.658,473.403z"/>
		</g>
	</g>
	<g>
		<g>
			<g>
				<rect x="575.108" y="470.439" fill="#231F20" width="1.543" height="20.992"/>
			</g>
		</g>
		<g>
			<g>
				<rect x="598.813" y="470.214" fill="#231F20" width="1.543" height="20.591"/>
			</g>
		</g>
		<g>
			<g>
				<rect x="622.517" y="470" fill="#231F20" width="1.534" height="20.184"/>
			</g>
		</g>
		<g>
			<g>
				<rect x="646.217" y="469.786" fill="#231F20" width="1.539" height="19.769"/>
			</g>
		</g>
		<g>
			<g>
				<rect x="669.917" y="469.561" fill="#231F20" width="1.543" height="19.373"/>
			</g>
		</g>
	</g>
	<g>
		<g>
			<polygon fill="#FFFFFF" points="212.764,501.31 212.665,479.201 386.529,473.134 387.353,496.665 			"/>
		</g>
		<g>
			<path fill="#231F20" d="M210.833,503.3l-0.116-25.972l1.88-0.064l175.801-6.135l0.96,27.423L210.833,503.3z M214.613,481.074
				l0.081,18.246l170.652-4.541l-0.687-19.64L214.613,481.074z"/>
		</g>
	</g>
	<g>
		<g>
			<polygon fill="#231F20" points="97.999,417.065 100.636,416.774 122.263,426.851 122.113,429.249 			"/>
		</g>
	</g>
	<g>
		<g>
			<rect x="363.971" y="472.064" fill="#231F20" width="1.96" height="25.046"/>
		</g>
	</g>
	<g>
		<g>
			<rect x="332.939" y="473.162" fill="#231F20" width="1.952" height="24.603"/>
		</g>
	</g>
	<g>
		<g>
			<rect x="301.748" y="474.546" fill="#231F20" width="1.956" height="24.168"/>
		</g>
	</g>
	<g>
		<g>
			<rect x="270.561" y="475.944" fill="#231F20" width="1.954" height="23.725"/>
		</g>
	</g>
	<g>
		<g>
			<rect x="239.378" y="477.338" fill="#231F20" width="1.954" height="23.289"/>
		</g>
	</g>
	<g>
		<g>
			<path fill="#FFFFFF" d="M204.372,474.832l-1.968-1.062l0.273,21.422l1.841,1.015h0.127L204.372,474.832z M185.669,464.757
				l0.271,21.142l1.969,1.089l-0.267-21.168L185.669,464.757z"/>
		</g>
	</g>
	<g>
		<g>
			<path fill="#FFFFFF" d="M119.644,427.658l-1.973-1.087l0.271,22.015l1.842,1.055h0.132L119.644,427.658z M100.935,417.306
				l0.271,21.725l1.969,1.125l-0.267-21.761L100.935,417.306z"/>
		</g>
	</g>
	<g>
		<g>
			<polygon fill="#FFFFFF" points="583.749,438.811 583.749,313.834 647.255,318.435 647.458,438.605 			"/>
		</g>
	</g>
	<g>
		<g>
			<polygon fill="#FFFFFF" points="653.732,313.158 653.443,440.65 657.709,444.537 657.747,313.747 			"/>
		</g>
	</g>
	<g>
		<g>
			<path fill="#FFFFFF" d="M572.798,303.114v145.557l89.611,0.591V309.397L572.798,303.114z M657.709,444.537l-80.215-0.534V308.157
				l80.215,5.622V444.537z"/>
		</g>
	</g>
	<g>
		<g>
			<polygon fill="#FFFFFF" points="301.668,317.414 354.667,319.032 355.637,417.921 301.991,418.567 			"/>
		</g>
	</g>
	<g>
		<g>
			<polygon fill="#FFFFFF" points="251.254,316.445 288.384,318.062 289.063,416.952 251.479,417.597 			"/>
		</g>
	</g>
</g>
</svg>
