<?xml version="1.0" encoding="utf-8"?>
<!-- Generator: Adobe Illustrator 17.0.0, SVG Export Plug-In . SVG Version: 6.00 Build 0)  -->
<!DOCTYPE svg PUBLIC "-//W3C//DTD SVG 1.1//EN" "http://www.w3.org/Graphics/SVG/1.1/DTD/svg11.dtd">
<svg version="1.1" id="Layer_1" xmlns="http://www.w3.org/2000/svg" xmlns:xlink="http://www.w3.org/1999/xlink" x="0px" y="0px"
	 width="800px" height="600px" viewBox="0 0 800 600" enable-background="new 0 0 800 600" xml:space="preserve">
<g>
	<path fill-rule="evenodd" clip-rule="evenodd" fill="#FFFFFF" d="M496.865,121.295l-0.788,55.98c0,0,10.444-4.461,1.424,13.578
		l-0.952,33.23l-3.164,170.273l-0.317,24.37l10.285,5.381l3.799,6.171l0.475,20.886l2.642,39.142l-43.942,43.937L353.34,535.19
		l-46.998-45.099l2.849-51.744l13.291-20.888l3.324-234.518c0,0-18.041-18.039,0.95-19.464l0.948-51.269L496.865,121.295z"/>
	<path fill-rule="evenodd" clip-rule="evenodd" fill="#FEFDFD" d="M471.636,111.041
		C472.424,110.252,470.848,111.041,471.636,111.041L471.636,111.041z M358.094,107.097l0.784,0.788h-0.784V107.097z
		 M354.151,104.733C354.939,103.943,353.363,104.733,354.151,104.733L354.151,104.733z M341.533,90.543
		c0.788-3.943,7.098-13.406,10.253-13.406v0.79v-0.79L341.533,90.543z M387.266,58.214c2.365,1.575,3.941,2.365,3.941,5.518
		c0.79,0,2.367,0,2.367,0.79c0,0.788-1.576,1.576-2.367,1.576c0,2.365,3.155,4.731,3.155,5.52v0.788l-3.943-4.731
		c-1.576,0.788-3.943,1.578-6.304,1.578h-1.582v-0.79c3.155,0,6.31-0.788,7.886-3.153L387.266,58.214z M386.476,55.849h-0.788
		l-3.155-0.79h-1.573c-4.731,0-6.308,3.155-7.886,3.943v0.786h0.79v0.79l-4.735,1.576c-0.788,0.788-3.153,1.576-3.153,2.366
		c-1.578,1.576,0,0.788-3.155,2.365c-1.573,0.788-1.573,1.576-3.151,1.576c-2.365,0.79-2.365,0.79-4.731,1.578
		c-2.365,1.576-3.943,2.365-7.096,3.943c-2.367,1.576-4.731,2.365-7.096,3.943c0.786,1.576,0,7.094-1.576,7.882l0.786,0.79
		l-0.786,5.52l-3.155,0.788c1.576,0.788,1.576,0,2.363,0.788c0.792,0.788,0.792,1.578,1.578,2.367
		c0.79,0.788,3.943,1.577,4.731,0.788c0.788,1.576,3.155,4.728,4.731,5.516c3.155,1.576,0.788-0.788,2.367,2.367
		c0.788,0,2.365,1.576,3.153,1.576c0-0.788-1.576-3.155,1.578-1.576v-0.79h-1.578v-1.576l1.578,0.788
		c0.788-0.788,0.788-0.788,1.576-0.788l0,0c0.784,0,3.155,3.943,3.155,4.731l-3.155-2.365l0,0c-0.788,0-1.576,0-1.576,0.788
		c0,0.788,0,0,0,1.576l-0.79,1.578l1.578-0.79l0.788,1.578l0.784-1.578v-0.788l2.37,2.367l0,0h-0.788v0.788h-1.582v0.788h2.37
		l4.728,3.157c1.576,2.365,2.365,2.365,3.153,3.943c4.735,0,0.792,4.728,7.888,4.728v0.788c4.731,0.788,3.155,3.943,12.614,3.943
		l1.576,0.788l0.79-0.788l8.674,1.576c1.575,0,1.575-0.788,3.151-0.788l0.794,1.576l0.784-1.576l1.577,1.576
		c3.943-2.365,7.098-0.788,11.829-0.788h6.308h0.786h7.098h0.788h3.943c0.788-1.576,14.98-9.459,17.347-9.459h0.788l-6.308,4.728
		c0.788,1.578,3.153-0.788,4.731-1.576c1.576-1.573,3.943-1.573,5.52-3.151c2.366-1.576,8.671-4.731,10.247-7.098h-0.786l0.786-0.79
		l1.58,0.79v-1.578l3.943-0.788l0,0l0.788-2.367l6.308-3.153c0-1.578-0.788-0.79-0.788-1.578v-0.788
		c0-0.788,0.788-0.788,0.788-1.576l-0.788-2.363c1.578-2.365,0.788-5.52,0.788-8.674c0-3.153-1.576-3.153-2.365-4.731h0.788v0.788
		c0.788-0.788,1.576-0.788,1.576-1.576c0-3.943-7.096-2.365-10.251-7.096c-2.368,0-4.731-1.576-6.308-2.365
		c-1.58-1.576-3.153-1.576-5.52-3.155c-3.943-1.576-8.674-3.943-12.617-5.52c-2.363-0.788-3.151-1.576-5.518-2.367
		c-3.155-0.788-4.731-1.576-6.308-3.153c-3.155-0.79-7.886-5.52-11.829-6.308c0,0-0.786,0.788-1.575,0.788
		c-1.578,0-1.578-1.576-5.522-0.788c-1.576,0-3.153,0-5.519,0c-3.943-1.576-7.886-0.788-13.404-0.788
		C391.998,53.482,390.419,55.059,386.476,55.849L386.476,55.849z"/>
	<path fill-rule="evenodd" clip-rule="evenodd" d="M391.208,63.731c0-3.153-1.576-3.943-3.941-5.518l3.153,7.096
		c-1.576,2.365-4.731,3.153-7.886,3.153v0.79h1.582c2.361,0,4.727-0.79,6.304-1.578l3.943,4.731v-0.788
		c0-0.788-3.155-3.155-3.155-5.52c0.79,0,2.367-0.788,2.367-1.576C393.574,63.731,391.998,63.731,391.208,63.731L391.208,63.731z"/>
	<path fill-rule="evenodd" clip-rule="evenodd" fill="#FEFDFD" d="M336.016,78.712c0,1.578,4.731-3.151,4.731-3.939
		c0,0-0.79-0.788-1.576-0.788C337.592,73.984,336.016,77.137,336.016,78.712L336.016,78.712z"/>
	<path fill-rule="evenodd" clip-rule="evenodd" d="M351.786,77.137v0.79V77.137c-3.155,0-9.465,9.463-10.253,13.406L351.786,77.137z
		"/>
	<path fill-rule="evenodd" clip-rule="evenodd" fill="#FEFDFD" d="M333.649,87.388c0,1.576-0.788,0.788,0,1.576l2.367-1.576
		c0,0,0,0-0.788,0h-0.788C333.649,87.388,333.649,87.388,333.649,87.388L333.649,87.388z"/>
	<path fill-rule="evenodd" clip-rule="evenodd" fill="#FEFDFD" d="M494.501,127.599l2.365,1.576v-1.576v-6.304l0,0
		C494.501,122.083,495.289,125.233,494.501,127.599L494.501,127.599z"/>
	<path fill-rule="evenodd" clip-rule="evenodd" fill="#FEFDFD" d="M436.942,131.542c0,1.576,4.731-0.788,5.519-2.367
		C441.674,129.176,436.942,130.754,436.942,131.542L436.942,131.542z"/>
	<path fill-rule="evenodd" clip-rule="evenodd" fill="#FEFDFD" d="M334.439,139.429l0.788,0.788
		c0.788-0.788,0.788-0.788,0.788-1.578c0-0.788-0.788,0-1.577,0V139.429z"/>
	<path fill-rule="evenodd" clip-rule="evenodd" fill="#FEFDFD" d="M366.765,132.331
		C366.765,131.542,365.976,133.119,366.765,132.331L366.765,132.331z M335.228,97.639c0,3.939-0.788,3.151-0.788,5.516l6.308,4.731
		l0.786-0.788c0,1.578,0.788,1.578,1.578,3.943l3.153,2.367h1.578l-0.79,0.79l3.155,2.365l0,0c0,0.79,0,1.578,1.578,1.578h0.788
		l2.365,3.155h-0.788c2.367,0.788,5.519,4.728,7.098,6.304c2.361,2.365,3.939,3.155,5.516,6.308c2.365,0,6.31,3.943,7.1,4.731h2.365
		c0.788,2.367,3.155,6.308,6.304,6.308v-0.788h1.582c0.788,0,1.573,0,1.573,0.788h3.155h1.576h1.578l0.788-0.788l0.788,0.788
		l14.98-0.788c1.578,0,1.578,0.788,2.366,1.576c1.576,0,1.576-0.788,2.365-0.788c1.578,0,1.578,0,2.366,0
		c4.731-2.367,13.404,0,18.135-2.367c5.519,3.155,16.559-4.729,18.923-8.673c1.578,0,15.769-9.463,18.925-11.039
		c1.576-0.784,3.155-2.363,4.731-2.363c3.155-1.576,3.155-2.365,4.731-3.153c1.576-0.79,3.155-1.578,4.731-2.367
		c3.155-3.157,2.361-3.157,3.939-4.733c-1.578-2.367,0-3.943-3.155-3.943l-0.784,0.788c-3.155,0-18.923,10.255-22.078,12.619
		c-3.943,2.367-7.098,3.939-11.041,6.306c-1.576,0.788-3.939,2.365-5.518,3.153c-2.365,1.578-3.153,2.367-4.731,3.943l-0.788-1.576
		c-2.367,0.788-0.788,1.576-1.576,3.155c-0.79,0.788-2.367,0-3.943,0c-1.578,0.788-4.731,0-7.098,0c-3.941,0-11.037,0-14.98,0
		c-3.943-0.79-30.749-2.367-31.543-2.367l-1.573-2.367c-2.365,0-7.886-3.941-10.253-5.52c-1.578-0.788-1.578-1.576-3.943-3.149
		c-0.788-0.79-3.943-3.155-4.731-3.155c-2.363-2.367-5.516-5.521-8.671-7.888c-2.367-2.367-1.576-1.576-3.943-2.367
		c-1.576-1.576-3.155-2.365-3.943-4.731h0.788c-4.731,0-3.153-4.728-7.094-5.516v-1.577
		C337.592,96.062,335.228,96.85,335.228,97.639L335.228,97.639z"/>
	<path fill-rule="evenodd" clip-rule="evenodd" fill="#FEFDFD" d="M487.406,123.656
		C488.191,122.868,486.614,124.444,487.406,123.656L487.406,123.656z M334.439,115.774l-0.79,0.788c1.578,0,3.943,2.367,5.522,3.155
		c2.363,1.578,1.576,3.151,4.729,3.151c0,3.155,6.308,3.943,8.674,7.886l2.365,0.788l-0.788,1.576l0.788,0.788
		c0,0,1.578-0.788,2.367,1.578c0.788,0.788,2.365,0.788,3.155,1.576c1.573,0,5.516,3.943,6.304,4.731
		c1.576,1.578,3.943,3.941,5.521,4.73c1.578,1.578,0,1.578,3.155,2.367c2.367,0.788,1.576,1.576,3.155,2.365l2.365,1.578v-2.367
		h1.573c0,0.788,0,1.576,0.794,1.576h3.939h9.463c2.365,0,4.731-0.788,6.308-0.788c0.786,0,2.365,0,3.153,0.788
		c3.155,0,2.365-0.788,3.155-0.788h2.365l21.29,0.788c0.788,0,0.788,0.79,1.576,0.79l3.943-0.79l4.731,0.79l0.79-1.578
		c2.363,0,2.363,0.788,1.576-1.576c1.576-0.788,1.576-1.576,2.363-2.367c1.578-0.788,1.578,0,3.155-1.576l-0.788-0.788
		c0.788-2.367,1.576-0.788,2.365-3.153c0.79-1.576,3.155-2.365,3.943-3.155c0,3.941-3.153,3.155-3.943,5.52
		c-1.576,0-1.576-0.786-1.576,1.576c2.367-0.788,9.463-4.729,9.463-7.096h2.367c0-3.153,2.365-2.365,4.729-3.941
		c2.363-2.367,3.155-2.367,5.52-3.943c0.788-0.79,4.731-3.155,6.31-3.155c1.576-0.788,4.731-3.943,4.731-3.943l0.788,0.788
		l-2.367,2.367l0,0h1.578v-0.788h1.576c0.784,0,11.035-7.094,11.035-9.461h-0.788l2.366-2.365h-0.788
		c-6.31,0-11.041,3.943-14.98,7.098c-2.365,1.573-3.943,3.149-7.096,4.728c-2.367,0.788-5.523,3.941-7.1,3.941
		c-1.573-3.941-18.133,11.041-18.921,11.829l-1.578-0.788c-1.576,1.575-4.729,2.367-5.518,3.941l-3.943,1.576v1.578l-26.021-0.79
		h-3.943h-7.882l-11.829-0.788h-0.788c-3.151,0-9.459,0.788-10.247-2.365c-0.79,0-0.79,0.788-0.79,0.788
		c-1.576,0-10.253-9.461-12.619-11.039c-1.576-1.576-4.728-3.943-6.304-5.519c-2.367-1.577-4.731-3.155-6.308-4.731
		c-2.367-2.361-25.233-21.29-26.021-21.29l0,0c-3.943,0,1.576,7.098,2.365,7.098C329.706,111.829,333.649,114.986,334.439,115.774
		L334.439,115.774z"/>
	<polygon fill-rule="evenodd" clip-rule="evenodd" points="475.579,163.869 474.001,163.869 474.791,171.756 476.367,172.544 
		475.579,171.756 477.944,162.295 477.944,162.295 	"/>
	<path fill-rule="evenodd" clip-rule="evenodd" fill="#FEFDFD" d="M344.688,165.448c0.788,1.576,0.788,1.576,2.365,1.576
		c0-1.576-2.365-3.155-3.153-3.155C343.9,165.448,343.9,165.448,344.688,165.448L344.688,165.448z"/>
	<path fill-rule="evenodd" clip-rule="evenodd" fill="#FEFDFD" d="M350.208,170.179l1.578-0.79l-0.79-0.788l-1.576-0.788
		C349.42,170.179,349.42,168.601,350.208,170.179L350.208,170.179z"/>
	<path fill-rule="evenodd" clip-rule="evenodd" d="M406.19,170.967l3.155-0.788v0.788h4.731v-0.788h-3.943l0.788-1.578
		c0,0-0.788-0.788-1.576-0.788C406.978,167.813,406.19,169.389,406.19,170.967L406.19,170.967z"/>
	<path fill-rule="evenodd" clip-rule="evenodd" fill="#FEFDFD" d="M334.439,148.889c0,0.788,0,0,0,1.576h-0.79
		c0,0.788,1.578,3.155,1.578,3.943c3.151,2.367,1.576-1.576,1.576-2.367c1.575,0,5.518,3.943,1.575,3.943v0.79h3.155l-0.786-2.367
		l0.786-0.788l0.788-3.155h0.79c0,0.788,0,0.788,0,1.576v0.79c0.788,0,1.576,0,1.576,0.788c0,1.576-0.788,0.788-0.788,2.365v2.367
		h0.788c0.788,0,0.788,0,0.788,0.788H343.9v0.788l2.365,0.788v-0.788l4.731,3.155l0.79-3.155c0-0.788-0.79-0.788-0.79-1.577
		c0-0.788,0-0.788,0.79-1.576v-1.578c1.576,0,0.788,0,0.788,1.578l0.788,1.576v3.943c0,0,0,0.788-1.576,0.788h-0.79
		c0,0.786,0.79,0.786,0.79,1.575c0,0.79-0.79,0.79-1.578,0.79h-0.788c0,0.788,0,2.365,1.576,2.365c0.79,0,0-0.788,1.578-0.788
		l-0.788,1.577l2.365,0.788c-0.788,1.578,1.576,2.367,3.155,2.367c1.573,0,0.788-0.788,2.365-0.788c0.79,0,0,0,0.79,0.788h-1.582
		v1.576l0.792,0.79h0.79c1.573,0,1.573,0.788,1.573,0.788c2.365-0.788,1.577,0,2.365,0c1.578,0,1.578-0.788,1.578-2.367
		l-2.366,0.788c0-2.365,2.366-4.731,2.366-6.308c0-2.367-3.155-4.729-4.728-5.517c-0.788,0.788-0.788,1.576-0.788,3.151l0,0
		c0,0.79,0.788,4.731-0.79,4.731c-1.576,0-0.792-3.941-1.576-6.306c0.784-0.788,1.576-2.367,1.576-2.367
		c0-2.365-6.308-5.52-7.096-7.096c-0.788-1.578-6.31-6.31-8.674-6.31v2.367h-0.788l0.788-2.367
		c-1.578-3.153-3.153-5.518-6.308-7.094c-0.788,0.788-0.788,2.363-1.576,3.941C336.016,144.946,334.439,148.889,334.439,148.889
		L334.439,148.889z"/>
	<path fill-rule="evenodd" clip-rule="evenodd" fill="#FEFDFD" d="M477.944,162.295L477.944,162.295l-2.365,9.461l0.788,0.788
		l-1.576-0.788l-0.79-7.886h1.578L477.944,162.295z M477.156,159.928l-1.577,0.788l-14.192,7.884l-1.578-1.577h-0.788l2.367,4.731
		l-3.155,1.576v-1.576c0-0.788,0-0.788-0.788-1.577l-1.578,0.788v3.155c0,0.788,0,0.788,0.788,1.576l-0.788,0.788l-0.788,3.155
		h1.576c1.578,0,0,0.788,0.79,0v0.788h1.576l-1.576-3.155h0.788v-2.365h0.788l1.576,0.788v1.576c0,0.788,0,0.788,0,1.578v0.788
		c0,0.788,0.79,1.576,0.79,3.943l-1.578-1.578c-0.788,0.786-0.788,0.786-1.576,0.786c-1.578,0-0.788-0.786-0.788-2.363l-1.578,2.363
		l0.788,0.792l0.79,3.151c0.788,0,0.788,0,1.576,0h0.788l1.578-3.151h2.365c0.785-1.578,3.155-1.578,5.517-3.943
		c-1.576-2.367-1.576-2.367-1.576-4.731c0-3.155,0-2.367,0-4.731c0-1.578,0-2.367,1.576-2.367c-0.79,2.367-0.79,7.886,0.786,10.251
		c0-0.788,1.58-1.576,1.58-1.576c1.576,0,0.788,0,1.576,0.788c1.578-1.576,2.367-0.788,3.943-3.153
		c0.788-0.79,3.155-2.367,3.943-3.155l1.576,0.788v-1.577c0-1.578,0-4.731,0-5.521c0.79-1.575,1.578-3.151,1.578-5.518v-1.576
		h-1.578L477.156,159.928z"/>
	<path fill-rule="evenodd" clip-rule="evenodd" fill="#FEFDFD" d="M453.501,172.544c1.576,0,1.576,0,1.576-1.576h-1.576V172.544z"/>
	<path fill-rule="evenodd" clip-rule="evenodd" fill="#FEFDFD" d="M430.633,174.122c1.578,0,2.367,0,2.367-1.578h-2.367V174.122z"/>
	<path fill-rule="evenodd" clip-rule="evenodd" d="M435.366,171.756c0,0.788,0,0.788,0,1.576v1.578c0,1.576,0,0-0.79,0.788
		c1.578,0,0.79-0.788,3.155-0.788v-1.578h-1.576l0.788-0.788v-0.788H435.366z"/>
	<path fill-rule="evenodd" clip-rule="evenodd" d="M351.786,169.389l-1.578,0.79c-0.788-1.578-0.788,0-0.788-2.367l1.576,0.788
		L351.786,169.389z M347.053,167.024c-1.576,0-1.576,0-2.365-1.576c-0.788,0-0.788,0-0.788-1.578
		C344.688,163.869,347.053,165.448,347.053,167.024L347.053,167.024z M342.322,141.793c0.79,0,0.79,0,1.578,0
		c0.788,0,2.365,1.578,2.365,3.153L342.322,141.793z M334.439,150.466c0-1.576,0-0.788,0-1.576c0,0,1.577-3.943,1.577-4.731
		c0.788-1.578,0.788-3.153,1.576-3.941c3.155,1.576,4.729,3.941,6.308,7.094l-0.788,2.367h0.788v-2.367
		c2.365,0,7.886,4.731,8.674,6.31c0.788,1.576,7.096,4.731,7.096,7.096c0,0-0.792,1.578-1.576,2.367
		c0.784,2.365,0,6.306,1.576,6.306c1.578,0,0.79-3.941,0.79-4.731l0,0c0-1.575,0-2.363,0.788-3.151
		c1.573,0.788,4.728,3.151,4.728,5.517c0,1.577-2.366,3.943-2.366,6.308l2.366-0.788c0,1.578,0,2.367-1.578,2.367
		c-0.788,0,0-0.788-2.365,0c0,0,0-0.788-1.573-0.788h-0.79l-0.792-0.79v-1.576h1.582c-0.79-0.788,0-0.788-0.79-0.788
		c-1.576,0-0.792,0.788-2.365,0.788c-1.578,0-3.943-0.788-3.155-2.367l-2.365-0.788l0.788-1.577c-1.578,0-0.788,0.788-1.578,0.788
		c-1.576,0-1.576-1.576-1.576-2.365h0.788c0.788,0,1.578,0,1.578-0.79c0-0.788-0.79-0.788-0.79-1.575h0.79
		c1.576,0,1.576-0.788,1.576-0.788v-3.943l-0.788-1.576c0-1.578,0.788-1.578-0.788-1.578v1.578c-0.79,0.788-0.79,0.788-0.79,1.576
		c0,0.788,0.79,0.788,0.79,1.577l-0.79,3.155l-4.731-3.155v0.788l-2.365-0.788v-0.788h1.576c0-0.788,0-0.788-0.788-0.788H343.9
		v-2.367c0-1.576,0.788-0.788,0.788-2.365c0-0.788-0.788-0.788-1.576-0.788v-0.79c0-0.788,0-0.788,0-1.576h-0.79l-0.788,3.155
		l-0.786,0.788l0.786,2.367h-3.155v-0.79c3.943,0,0-3.943-1.575-3.943c0,0.79,1.575,4.733-1.576,2.367
		c0-0.788-1.578-3.155-1.578-3.943H334.439z M336.016,138.638c0,0.79,0,0.79-0.788,1.578l-0.788-0.788v-0.79
		C335.228,138.638,336.016,137.85,336.016,138.638L336.016,138.638z M331.284,138.638v3.155v3.153c0,1.576,0.788,0.788,0.788,2.365
		v3.155h-0.788l2.365,5.52l-1.576,0.79c0,0.788,14.192,12.614,14.98,12.614c1.578,0.79,6.31,4.733,7.886,6.31
		c3.155,1.576,6.31,3.155,9.459,4.731h1.578l0.788,1.576c0.788,0,0.788,0,0.788-0.788c0-1.576,0-0.788,0-2.365h0.788v-10.253
		l-0.788-0.788l1.576-0.788c0-2.367-6.308-9.461-8.669-10.249c0-3.155-6.31-6.31-7.886-8.674c-1.578-2.367-3.155-3.155-4.731-3.943
		c-1.578-1.578-3.155-4.729-3.943-4.729h-0.788v2.365c-2.365-0.788-2.365,0-2.365-2.365l-1.576,0.788l-4.731-3.943l0.788-0.788
		h-1.578C332.073,135.485,332.073,137.062,331.284,138.638L331.284,138.638z"/>
	<path fill-rule="evenodd" clip-rule="evenodd" d="M411.709,179.642h-0.788c0,1.576,0.788,2.365,2.365,3.943v-1.578
		c0-1.576-0.788-0.788-0.788-2.365c0-0.788,0-0.788-0.788-0.788V179.642z"/>
	<path fill-rule="evenodd" clip-rule="evenodd" d="M402.247,181.218c-0.786,0.788-0.786,0.788-0.786,1.575v2.368l0.786-1.576
		c0-2.367,0.79-2.367,0.79-3.943c0-0.788-0.79,0-1.576,0v-0.788h-0.788L402.247,181.218z"/>
	<path fill-rule="evenodd" clip-rule="evenodd" fill="#FEFDFD" d="M412.497,179.642c0,1.576,0.788,0.788,0.788,2.365v1.578
		c-1.576-1.578-2.365-2.367-2.365-3.943h0.788v-0.788C412.497,178.853,412.497,178.853,412.497,179.642L412.497,179.642z
		 M401.46,182.793c0-0.786,0-0.786,0.786-1.575l-1.575-2.365h0.788v0.788c0.786,0,1.576-0.788,1.576,0
		c0,1.576-0.79,1.576-0.79,3.943l-0.786,1.576V182.793z M418.019,175.699l-1.578,1.576l-0.788-1.576l-1.576,1.576l-0.79-1.576
		l-1.576,1.576l-0.788-0.788h-13.404h-7.886l0.788,8.674h-0.788v1.575l2.367-0.788c3.943,0,6.308-0.786,8.674,0.788l0.788-0.788l0,0
		l3.941-0.786c0.788,0,0.788,0.786,1.577,0.786l3.943-0.786v-0.788h0.788c0,1.575-0.788,1.575,1.576,1.575v-1.575
		c1.578,0.788,0.79,0.788,1.578,0.788h3.943v0.786h0.788h3.155l-0.79-2.363c3.155,0,0.79,1.576,2.365,2.363h3.155l1.576-0.786
		c0.788,0.786,2.367,0.786,3.943,0.786c0,0,3.155-1.575,3.155-2.363l-1.578-0.792l1.578-1.575c-2.366-1.576-2.366-3.943-5.521-3.943
		h-3.153l-0.786-1.576h-3.155l0.786,1.576C421.96,177.275,423.538,175.699,418.019,175.699L418.019,175.699z"/>
	<path fill-rule="evenodd" clip-rule="evenodd" d="M453.501,170.967h1.576c0,1.576,0,1.576-1.576,1.576V170.967z M482.675,157.564
		h1.578v1.576c0,2.367-0.788,3.943-1.578,5.518c0,0.79,0,3.943,0,5.521v1.577l-1.576-0.788c-0.788,0.788-3.155,2.365-3.943,3.155
		c-1.577,2.365-2.365,1.576-3.943,3.153c-0.788-0.788,0-0.788-1.576-0.788c0,0-1.58,0.788-1.58,1.576
		c-1.576-2.365-1.576-7.884-0.786-10.251c-1.576,0-1.576,0.788-1.576,2.367c0,2.365,0,1.577,0,4.731c0,2.365,0,2.365,1.576,4.731
		c-2.363,2.365-4.733,2.365-5.517,3.943h-2.365l-1.578,3.151h-0.788c-0.788,0-0.788,0-1.576,0l-0.79-3.151l-0.788-0.792l1.578-2.363
		c0,1.576-0.79,2.363,0.788,2.363c0.788,0,0.788,0,1.576-0.786l1.578,1.578c0-2.367-0.79-3.155-0.79-3.943v-0.788
		c0-0.79,0-0.79,0-1.578v-1.576l-1.576-0.788h-0.788v2.365h-0.788l1.576,3.155h-1.576v-0.788c-0.79,0.788,0.788,0-0.79,0h-1.576
		l0.788-3.155l0.788-0.788c-0.788-0.788-0.788-0.788-0.788-1.576v-3.155l1.578-0.788c0.788,0.788,0.788,0.788,0.788,1.577v1.576
		l3.155-1.576l-2.367-4.731h0.788l1.578,1.577l14.192-7.884l1.577-0.788L482.675,157.564z M457.444,166.236l0.788,1.576
		l-1.578-0.788c-0.788,0-5.52,3.155-5.52,3.943c0,0.788,0,1.576,0.788,1.576c-0.788,2.367,0.788,7.098,0.788,10.249
		c0,3.943,2.367,5.523,3.155,9.464l2.367-1.578h2.365l7.096-4.731l0,0c1.576,0,1.576-0.786,1.576-1.575h1.578
		c0.788-0.788,1.576-0.788,2.365-1.58c0.788-0.786,1.578-1.575,2.367-2.363c0.788-0.788,5.52-2.367,6.308-2.367v-1.576h-0.788
		v-0.788c1.576,0,3.943-0.788,4.731-2.367h-1.576c0-1.576,0-1.576,1.576-1.576c0.784,0,0.784-0.788,0.784-1.577l0.792-3.943v-10.251
		l-1.576-2.365l0.784-3.155c0,0,0,0-0.784,0c-1.576,0-5.519,2.367-7.098,3.155c-1.576,0.788-2.365,1.576-3.941,2.365
		c-0.79,0.79-1.578,1.578-3.155,1.578c-3.157,1.576-3.943,3.153-7.1,3.943C461.387,163.083,460.597,164.658,457.444,166.236
		L457.444,166.236z"/>
	<path fill-rule="evenodd" clip-rule="evenodd" fill="#FEFDFD" d="M391.208,189.891h2.367h2.367h6.306
		c3.155-0.788,8.674,0.788,11.039-1.575c-0.788,0-2.365,0-3.153,0h-5.516h-0.794c-1.577,0-0.786,0-2.363,0c-1.578,0-2.367,0-3.943,0
		C394.362,189.102,391.208,187.526,391.208,189.891L391.208,189.891z"/>
	<path fill-rule="evenodd" clip-rule="evenodd" fill="#FEFDFD" d="M425.115,189.102l1.578,0.788c0.786,0,0.786-0.788,1.575-0.788
		c1.576,0,0.788,0.788,1.576,0.788h1.578c1.576,0,0.788-1.575-1.578-1.575l0,0c-1.576,0-0.788,0-2.365,0c-0.786,0-0.786,0-1.578,0
		C425.115,188.316,425.115,189.102,425.115,189.102L425.115,189.102z"/>
	<path fill-rule="evenodd" clip-rule="evenodd" fill="#FEFDFD" d="M384.904,175.699c0,0.788,0.784,0.788,0.784,1.576l-0.784,3.943
		c1.573,0,0.784,1.575,0.784,3.155l0.788,7.094l0,0l3.155-2.365c0-2.367-0.788-0.786-0.788-4.729v-1.58l-0.788-7.094
		c-0.788,0-0.788-1.576-1.578-1.576C385.688,174.122,384.904,174.911,384.904,175.699L384.904,175.699z"/>
	<path fill-rule="evenodd" clip-rule="evenodd" d="M428.268,189.102c-0.788,0-0.788,0.788-1.575,0.788l-1.578-0.788
		c0,0,0-0.786,0.786-0.786c0.792,0,0.792,0,1.578,0c1.576,0,0.788,0,2.365,0l0,0c2.367,0,3.155,1.575,1.578,1.575h-1.578
		C429.056,189.891,429.844,189.102,428.268,189.102L428.268,189.102z M391.208,189.891c0-2.365,3.155-0.788,6.31-1.575
		c1.576,0,2.365,0,3.943,0c1.576,0,0.786,0,2.363,0h0.794h5.516c0.788,0,2.365,0,3.153,0c-2.365,2.363-7.884,0.786-11.039,1.575
		h-6.306h-2.367H391.208z M418.019,175.699c5.519,0,3.941,1.576,6.306,1.576l-0.786-1.576h3.155l0.786,1.576h3.153
		c3.155,0,3.155,2.367,5.521,3.943l-1.578,1.575l1.578,0.792c0,0.788-3.155,2.363-3.155,2.363c-1.576,0-3.155,0-3.943-0.786
		l-1.576,0.786h-3.155c-1.575-0.786,0.79-2.363-2.365-2.363l0.79,2.363h-3.155h-0.788v-0.786h-3.943c-0.788,0,0,0-1.578-0.788v1.575
		c-2.365,0-1.576,0-1.576-1.575h-0.788v0.788l-3.943,0.786c-0.788,0-0.788-0.786-1.577-0.786l-3.941,0.786l0,0l-0.788,0.788
		c-2.366-1.575-4.731-0.788-8.674-0.788l-2.367,0.788v-1.575h0.788l-0.788-8.674h7.886h13.404l0.788,0.788l1.576-1.576l0.79,1.576
		l1.576-1.576l0.788,1.576L418.019,175.699z M385.688,184.373c0-1.58,0.788-3.155-0.784-3.155l0.784-3.943
		c0-0.788-0.784-0.788-0.784-1.576c0-0.788,0.784-1.576,1.573-1.576c0.79,0,0.79,1.576,1.578,1.576l0.788,7.094v1.58
		c0,3.943,0.788,2.363,0.788,4.729l-3.155,2.365l0,0L385.688,184.373z M388.843,172.544l0.788,2.367
		C388.055,174.122,387.266,174.122,388.843,172.544L388.843,172.544z M430.633,174.122v-1.578h2.367
		C432.999,174.122,432.211,174.122,430.633,174.122L430.633,174.122z M414.864,168.601l1.576,0.788v1.578h2.367l11.826,1.576
		l-1.577,1.578h-3.155l0,0c-1.576,0-1.576-0.79-2.363-0.79l-6.31-0.788l-1.576,2.367v-2.367h-0.788v1.578h-3.155l1.576-0.79
		l-1.576-0.788l-0.788,0.788l-2.366,0.79l-1.576,0.788l0,0l0.788-1.578c0,0-0.788-0.788-1.576-0.788s-0.788,0.788-0.788,0.788h0.788
		l-0.788,1.578l-1.578-2.367h-0.786l0.786,1.578c-0.786,0.788-0.786,0.788-1.577,0.788c-2.365,0-0.786-2.367-3.153-2.367
		l-0.788,1.578h-1.576l-0.788-1.578l-1.578,0.788l-0.788-0.788h-4.731c0-1.576,1.576-0.788,2.365-1.576l-1.576-0.788l-2.365-0.79
		c0.788,0.79,1.576,2.367,1.576,2.367c0,1.576,0,0-0.788,1.576l-1.578-3.153c-1.573,0.788,0,0-1.573,1.577
		c0,0.788-1.576,0.788-2.37,1.576v6.31l-0.785,14.98l3.155-2.365l2.363,0.788h7.096l0.788-1.578h0.79v0.79
		c0.788,0,7.096,0,7.882-0.79c2.367,0,6.31,0,9.463,0c3.943,0,6.31,0.79,8.674,0.79c3.155,0,6.308-0.79,9.463-0.79
		c1.576,0,4.731,0,4.731,1.578v1.576h0.788l0.788-2.365l1.577-0.79l-1.577-11.825v-0.788v-1.578v-2.365l0,0l-1.576,3.153h-0.788
		c-1.578,0-1.578-0.788-1.578-1.576v-0.788c0-1.576,0-1.576,0.788-2.367l-0.788-0.788c0-0.788,0-0.788,0.788-2.365l0.79,0.788
		l-0.79-0.788c-1.576,0-1.576,0.788-3.153,0.788l-1.578-0.788l0.788-1.578c0,0,0,0-0.788,0h-1.576l0.788,2.367l-1.576-0.788h-6.308
		l0,0h1.578l1.575-0.79c0-0.788,0-0.788-1.575-0.788h-0.79h-2.365c0,0.788,0,1.578-0.788,1.578c-1.578,0-0.788-0.79-0.788-1.578
		H414.864z"/>
	<path fill-rule="evenodd" clip-rule="evenodd" d="M376.229,217.488h-2.365c0,0.79,0.788,1.578,1.576,1.578c1.576,0,0.788,0,2.367,0
		v1.576v0.788l1.577-0.788l1.576,2.363l0.788-0.784c0.785,0.784,1.578,2.365,2.367,0c-2.367-0.79-9.463-8.674-11.829-10.253
		C372.286,215.124,375.441,215.124,376.229,217.488L376.229,217.488z"/>
	<path fill-rule="evenodd" clip-rule="evenodd" d="M380.961,241.143l0.788,5.518c0,0.792-0.788,2.37,0.785,2.37
		c1.582,0,0.794-7.1,0-8.676L380.961,241.143z"/>
	<path fill-rule="evenodd" clip-rule="evenodd" d="M381.749,252.969v12.618l0,0l1.578-0.788V252.18v-1.576
		c0-0.788-0.794-0.788-1.578-0.788V252.969z"/>
	<path fill-rule="evenodd" clip-rule="evenodd" d="M424.325,342.858c0.79,0.79,1.576,1.578,1.576,2.367v1.578
		c0,3.155-1.576,7.098,3.155,7.098c0.788,0,1.577-0.79,1.577-1.578h-1.577l2.367-3.155h0.788v-0.788c0-1.576,0,0,0.788-2.365h-0.788
		l-0.788,1.576v-2.367l1.576-0.788l-1.576-1.578c0.788-0.788,1.576-1.576,1.576-3.155c0-2.365-0.788-5.52-3.155-5.52h-0.788
		C425.115,334.183,425.115,339.703,424.325,342.858L424.325,342.858z"/>
	<path fill-rule="evenodd" clip-rule="evenodd" d="M381.749,268.739c-0.788,0.79-2.365,1.578-0.788,3.155
		c-0.788,0.788-1.576,1.576-1.576,3.153v5.522c0,1.576,0.788,0.788,0.788,2.365v7.096v3.155v0.788c0,5.52-2.365,6.308-2.365,7.886
		v7.884c0,1.578,0.788,3.155,2.365,3.155c0,3.941,0.788,17.347-0.788,18.135l0.788,2.367h-1.576l0.788,2.361h0.788v1.578h-0.788
		l0.788,1.576v3.155l-0.788,1.578h0.788v3.155c-3.155,0.788-1.576,2.365-2.365,5.52c0,0.788-0.79,7.094-0.79,7.094v3.943
		c0,3.941,2.367,2.365,2.367,4.731h-1.577c0.788,1.576,0,0.788,2.365,0.788l-0.788,1.576h0.788v3.941c-1.576,0.79,0,0,0,2.367v0.788
		h-1.576v0.788l0.788,0.788h0.788v3.155c0,1.576,0,1.576,1.576,2.365c-0.788,0.79-4.731,1.578-4.731,4.733
		c0,0,1.578,1.576,2.367,2.365c0.788,1.576,0,2.367,2.365,2.367v-3.943l-1.576,1.577l-0.788-1.577h12.614l-1.578,0.788l-0.788,2.365
		l2.367-0.788l1.576-2.365h-0.788v-0.788c1.576,0.788,2.365,2.365,4.731,2.365h14.98v2.367l0.788-1.578h1.578
		c0.788,0,0-0.788,1.576-0.788h5.52v0.788h-1.577v1.578h2.367c0.788,0,0,0,1.575-0.79v0.79h0.79l-0.79-2.367h3.155v1.576l0,0
		l-0.786-0.788l-0.792,0.788c3.155,1.578,1.578,0.79,4.731,1.578h0.79l0.788-2.367l2.365,1.578v-2.367h2.367
		c1.576,0,1.576,3.155,3.155,3.155v-0.788l1.576,0.788c-0.788-3.155,0,0.788-2.367-3.155c4.733,0.788,6.31,0,8.672-3.155
		l-1.576-0.788v1.578l-1.575-2.367c-10.253,0-21.29,0-31.543,0c-3.941,0-13.404,0.788-15.769,0c-2.367-0.788-2.367-2.366-5.52-2.366
		c-3.155,0-5.521,0-8.671,0c0.788-0.788,1.576-0.788,1.576-2.365v-14.982c3.151-0.788,2.363-3.153,2.363-6.308v-8.671h0.788v-5.52
		c0.788-2.367-3.151-3.945-3.151-4.733v-27.598c1.573-0.788,2.363-1.575,2.363-3.151v-8.674c0-1.578-0.79-2.367-2.363-2.367v-3.153
		v-19.713h-0.788c0-3.153,0-3.943,1.573-3.943h57.562c0,3.155,0,0.79,0.79,3.943c0,1.576-0.79,0.788-0.79,2.366
		c0,2.365,0.79,6.308,0.79,8.674c0.788,1.575,0,7.094,0,8.673c0,3.941,0.788,5.52,0.788,8.674v3.153h0.788v0.788h-0.788v1.578h0.788
		c0,2.363-0.788,0.786-0.788,2.363v7.098h1.575l-1.575,1.576l0.788,2.367v-0.788v2.365h-0.788l0.788,1.578h0.786l-1.575,0.788v3.153
		h0.788v1.578v-0.794v3.943v-0.788v2.367h-0.788l0.788,0.788v-0.788v2.365l-0.788-0.788l0.788,3.945v-0.79v1.578h-0.788v0.788h0.788
		v1.578h-0.788v0.788h1.575l-1.575,0.788l0.788,2.367v-1.578v7.094v2.365h-0.788l0.788,2.366h-0.788v0.788h0.788v0.788h-0.788v0.79
		h1.575l-0.786,0.788v3.153h-0.788v1.578h0.788c0,2.365,0.786,3.155-0.788,2.365v3.153v9.463c0,1.578,0.788,2.367,2.365,2.367
		c3.153,0,2.365-3.155,2.365-6.31c0-1.576,0-3.943,0-5.52c0.788-0.786,1.576-1.576,1.576-3.153v-59.137
		c0-7.096-1.576-10.249-1.576-16.559c0-3.155,0-7.094-0.786-8.673c-0.792-2.365,0-2.365,0-4.731c0-2.365-1.578-1.576-1.578-3.155
		h0.786v-3.943v-0.786c0-1.578-0.786-2.367-1.576-2.367v-1.576l0,0l1.576-0.788v-0.79c-3.939-0.786-41.001,0-46.519,0h-11.829
		c-1.576,0,0-0.786-2.365-0.786v0.786h-3.939v-1.575c0-1.578,0,0-0.794-0.788l0,0L381.749,268.739z"/>
	<path fill-rule="evenodd" clip-rule="evenodd" d="M444.04,394.112c0,0,0,0-0.79-0.79c0,1.578,0,2.366,0.79,2.366
		c0.788,0,0-0.788,2.363-0.788l0.79-1.578l-2.365-0.788C444.829,393.322,444.829,394.112,444.04,394.112L444.04,394.112z"/>
	<path fill-rule="evenodd" clip-rule="evenodd" fill="#FEFDFD" d="M499.232,424.073v-0.788c0-1.576-1.576-2.363-2.367-2.363
		C496.865,422.496,497.656,423.284,499.232,424.073L499.232,424.073z"/>
	<path fill-rule="evenodd" clip-rule="evenodd" d="M498.444,439.057c2.365,0,3.943-2.366,4.733-3.943
		C500.809,435.114,499.232,437.48,498.444,439.057L498.444,439.057z"/>
	<path fill-rule="evenodd" clip-rule="evenodd" d="M313.938,441.418l0.788,1.58l-0.788,0.788c2.365,0,1.576,0,2.365-1.576
		c1.578,1.576-0.788,0.788,1.578,0.788c0-0.788-0.788-2.368-2.366-2.368C314.726,442.21,315.514,441.418,313.938,441.418
		L313.938,441.418z"/>
	<path fill-rule="evenodd" clip-rule="evenodd" d="M380.961,432.747c0,0.79,0,0.79,0.788,1.578c-0.788,0.788-0.788,0-0.788,0.788
		v0.788v5.516l0,0c0,1.58,0,3.945,1.573,3.945v-1.576v-3.157h0.794l-0.794-8.671h-0.785
		C380.961,432.747,380.961,432.747,380.961,432.747L380.961,432.747z"/>
	<path fill-rule="evenodd" clip-rule="evenodd" d="M338.379,466.651c0,0.788,2.369,1.576,2.369,1.576v-1.576
		c0-1.576-0.79-0.788-0.79-0.788c-1.578,0,0,0.788-1.578,0V466.651L338.379,466.651z"/>
	<path fill-rule="evenodd" clip-rule="evenodd" d="M341.533,469.806l3.943,2.365v-1.576H343.9c0-1.576,0-1.576-1.578-2.367
		L341.533,469.806z"/>
	<path fill-rule="evenodd" clip-rule="evenodd" d="M377.807,537.617c0-0.788,0-2.365,0.788-2.365c0.788,0,1.576,1.576,1.576,2.365
		l-0.788-0.788L377.807,537.617z M367.553,535.252c0-0.788,0.788-1.578,1.576-1.578c0.792,0,1.578,1.578,1.578,2.367l0,0
		c0,1.576,0,1.576-0.786,1.576l-0.792-0.788h-1.576V535.252z M362.033,538.405l-0.785-0.788l-0.788-2.365
		c0.788-0.788,1.573-1.578,2.361-1.578l0,0c0.788,0,3.155,0.79,3.943,1.578C363.61,536.04,364.398,538.405,362.033,538.405
		L362.033,538.405z M467.693,533.674c0-0.788,0.786-0.788,1.576-0.788c0.786,0,0.786,0.788,1.578,1.578l-1.578,0.788v1.576
		c-2.363,0-0.79,0.788-1.576,0.788c-1.576,0-0.786-1.576,0.786-2.365C467.693,534.464,467.693,534.464,467.693,533.674
		L467.693,533.674z M482.675,524.999l2.367-0.788l0,0v1.578c-0.788,0.788-1.576,0.788-1.576,0.788
		C482.675,526.577,482.675,525.789,482.675,524.999L482.675,524.999z M482.675,519.482l0.79,1.576h0.788l-0.788-2.365
		c1.576,0,3.149,1.576,3.149,2.365v1.576c0,0.79,0,0.79-0.784,1.576c-0.788-0.786-0.788-0.786-1.576-0.786
		c-1.578,0-0.788,0-3.155,0.786v-1.576l2.367-0.786v-0.79h-1.578L482.675,519.482z M488.191,516.327v0.79c0,1.576,0,0.788,0,1.576
		l-1.576,0.788c-0.784-2.365-1.573-0.788-1.573-2.365c0-0.79,3.149-0.79,3.943-3.155l0.784,1.576L488.191,516.327z M347.843,472.17
		h1.576v0.79l-1.576,0.788l-0.79-1.578h-0.788h-0.788l2.367,2.366l1.576-0.788v0.788l-0.788,0.79l2.365,1.576v-1.576
		c0-0.79,0,0,0-0.79c2.367,0,1.578,0,0.79,1.578l1.576,0.788l-1.576,1.578l3.941-0.788v1.576h-1.576v0.788
		c3.155,0.784,13.402,11.825,14.978,11.825c0.792,0,3.945-5.52,7.1-1.578l-4.731,0.79c0,1.576,0.788,1.576,2.367,0.788v0.788
		c3.153,0,2.365-0.788,4.731-0.788c0.788,0,4.731,0,5.52,0c4.727-0.788,5.516,0.788,10.247,0.788h2.367
		c0.788,0,0.788-0.788,1.576-0.788l0.788,0.788l5.523,0.788c3.149,1.578,3.938,0,5.516,0c0.788,0,0.788,0.788,0.788,1.578
		l0.788-0.79h2.367l0.788,0.79l0.788-0.79l2.367,0.79v-0.79l1.576-0.788v1.578c0,0.788,0.788,0.788,1.576,0.788h0.788v-1.578
		l2.365,1.578h0.79l0.786-1.578v2.367c0,0.788,1.578,0,1.578,0h3.153l-0.788-1.576l1.578,0.788l-0.79,0.788l2.367,0.788v-1.576
		c1.576,0.788,0.788,0.788,1.576,0.788h5.522l1.576-1.576l1.576,1.576l1.578-1.576c1.575,0,0.788,1.576,2.365,1.576h0.786h3.155
		l2.367-1.576c0.788,0,1.576,0.788,1.576,0.788c1.576,0,3.155-1.578,3.943-2.367v-2.365c1.576-0.79,2.367,0,2.367-2.367
		c3.149,0,3.149-3.155,6.306-3.943c0.786-0.788,3.943-3.149,5.52-4.727c1.578-1.576,2.367-2.365,5.52-3.943
		c1.578-0.788,4.733-2.367,4.733-3.945l-3.943,1.578l-0.79-0.788l2.366-3.155l5.516-3.943l0,0c0-1.578-0.784-0.788-0.784-2.367
		c0,0,1.576-2.361,1.576-3.153l1.578,0.792c0.784-3.155,1.573-3.155,3.939-3.943l-0.79,1.573l1.578-1.573h-0.788l2.365-2.367
		l-0.788-0.788c1.576-0.788,7.1-5.519,7.1-7.886l3.943-2.365c0,1.576-0.79,0.788-0.79,1.576v2.366c0,0.788,0.79,0.788,1.578,0.788
		l1.576-1.576c0-0.79-0.788-0.79-0.788-2.367v0.788l2.365-0.788l0.784-4.733l-1.573-0.784v-2.366l1.573,0.79l0.794-3.155
		l0.784,0.788h1.576l3.155,0.788v-1.576c0-0.788-6.31-5.521-6.31-10.253c-1.573,0-0.784,0-1.573,0c-1.576,0-2.365,0.79-3.153,0.79
		l-4.735-3.941h-0.786l-3.157-3.155v-16.561c-0.788,0-1.576,3.155-1.576,4.731l0.788,7.886h-0.788l-0.788-12.617l0.788-0.788v-3.153
		c0-0.79,0-0.79-0.788-0.79l1.576-1.575l-1.576-0.788c0.788-1.578,0.788,0,0.788-1.578c0,0-0.788,0-0.788-2.365l0,0v-1.578
		l0.788-3.153l0.788-1.578c-2.365-3.155-0.788-4.731-0.788-9.463l-1.576-0.786l2.365-0.79l0,0l-0.788-0.786l-0.788-1.578l0,0
		c0-2.365,1.576-6.308-0.788-5.519v-0.788l0.788-1.578v-3.153h0.788l0.788,1.576v-2.366l-1.576,0.79c0-1.578,0-0.79,0-1.578
		c0,0,0-0.788,0-1.576v-1.576l-1.577-0.784l1.577-2.367c0-0.788,0-1.576,0-2.367c0-0.788,0.788-0.788,0.788-0.788v-0.788h-0.788
		v-0.788l0.788-0.788c-1.576-2.367,2.367-6.312-1.576-6.312v-0.788h0.788v-1.576c0-0.79,0-0.79,0-1.578l-1.577-2.361h0.788h0.788
		c0-0.794,0.788-2.367,0.788-3.943c0-1.577,0-2.367-0.788-3.155l0.788-0.788h-0.788l0.788-7.886l-2.365-2.365l1.577,0.788
		l0.788-4.73h-0.788c0.788-0.794,0.788-0.794,0.788-1.578c0-0.788-2.365-0.788-2.365-3.153v-0.788c0-0.79,0,0,0.788-0.79
		l-0.788-0.788h1.577l1.576-1.576h-1.576v-0.788c0.788,0,0.788,0,0.788-1.578v-1.576c0-0.788,0-0.788,0-1.576h0.788v-3.943
		l-0.788,1.576h-1.576v-3.155l2.365,1.578c0-4.729-1.576-1.578-1.576-3.941l2.365,0.786l-0.788-1.575h-2.365v-0.79l1.576-0.788
		l-0.788-2.365h-0.788v-0.79h0.788c-0.788-2.365,0.788-3.941,0.788-1.576c1.576-0.788,1.576-1.576,0.788-3.155
		c0-2.365,0.788-0.788,0.788-3.153v-1.577h-1.576c-0.788,0-0.788,0-0.788-0.79c0-1.576-1.577-3.153,0-3.153
		c0.788,0,2.365,0.79,2.365-0.788l0,0v-5.519c-3.153,0.788,0,0.788-2.365,2.367l0.788-3.155l-0.788-0.788l1.576-1.578v1.578l0,0
		v-1.578l0.788-3.943h-1.576c0.788-2.365,1.576,0,1.576-2.365v-2.367c-0.788,0-1.576,0-1.576-1.576l0,0
		c0-1.573,0.788-0.788,0.788-1.573l0.788,2.361h0.79l-0.79-1.576l0.79-0.784l0.788-5.523c0-0.788,0-0.788,0-1.576h-2.366v-0.788
		c1.578,0,3.155-0.788,3.155-2.367c0-0.788-0.788-0.788-1.576-0.788c0-1.576,1.576-0.788,1.576-1.576
		c0-3.155-2.367-2.367-2.367-3.943v-0.788c0-0.79,0.79-0.79,2.367-0.79l0.79-1.576v-3.939l-0.79,0.785l-1.576-0.785l0,0l1.576-0.788
		h0.79l-2.366-3.155h1.576l0.79-16.557v-2.367v-0.788l-0.79-5.52c0.79-0.79,1.576-1.578,1.576-2.367
		c0-0.788-0.786-0.788-1.576-0.788c2.368-7.884,5.521-6.31,7.1-14.982l-0.788,0.79l-0.79-1.578h0.79c0-2.365-0.79-2.365-2.367-2.365
		v-2.367l-5.521,3.155c-0.79-0.788-0.79,0.788-0.79-0.788v-2.367c0-2.365,1.578-0.788,2.367-0.788c1.576,0-0.788-2.367-0.788-2.367
		l0.788-3.941l-1.576-1.578c1.576-0.786,2.366-0.786,2.366-2.363v-2.367l-2.366,0.788v-8.674c0-5.52,2.366-27.598,0-29.959
		l3.153-5.521c0-2.367-0.786-3.945-3.153-4.733h-4.731c-0.79,0-0.79,0-1.578-0.788c0.788-2.367-0.788-2.367-0.788-5.519
		c0-2.367,0.788-3.155,0-3.155c-0.788,0-1.573-0.788-1.573-0.788l-1.578,0.788l2.363-7.882l0.788-0.788l0.788,0.788v-1.576
		l-0.788-0.788h-1.573l-1.578-2.367h-1.576v-0.788h1.576l0.784-4.731l-3.937-3.155h-1.578v-1.578l0.79,0.792
		c-3.155-4.731-14.196-10.251-20.502-11.829c-2.367-0.788-8.674-3.943-11.041-4.731c-3.151-1.576-7.882-4.729-10.249-4.729
		l-1.576-1.576l-0.79,0.788c-1.577,0-6.308-2.367-7.096-3.943h1.577l-3.155-2.365v1.576h-0.788c-0.788,0-7.094-3.155-7.884-3.943
		c-7.096,0-13.406,1.576-20.5,1.576c-7.886,0-14.984,0-22.865,0c-0.788,1.578-0.788,1.578-2.367,1.578
		c-2.365,1.576-0.788,0.788-2.365,2.365c-2.367,2.367-2.367,3.155-4.735,4.731l-0.788-0.788l-2.365,0.788l-1.578-0.788
		c-3.149,2.365-7.881,3.153-11.035,5.518c-3.943,2.367-6.31,1.578-10.251,5.521l-1.578-0.79l-3.941,1.578
		c0,2.365-1.576,5.52-2.365,7.096c-1.578,3.153-3.155,2.367-3.155,6.308l-1.576,0.788l0.788,1.576l-0.788,9.464l2.365,0.788v0.788
		c0,1.576,0.788,1.576,1.578,2.367v2.361h-3.943c-0.79,0-0.79,0-0.79,0c-1.577-0.788-3.153-2.361-4.731-3.151l0,0l-3.943,3.151h0.79
		v3.943c-0.79,0.788,4.731,6.308,5.52,6.308l-1.576,2.369l0.788,3.155v9.459l-2.367,29.964v0.788v3.153v0.79
		c0,2.363,1.578,1.576,1.578,3.941c-0.79,0-0.79,0-1.578,0c-0.788,0-1.576-0.79-3.941-0.79c0,0-1.578,3.943-2.365,4.731
		c1.576,3.155,2.365,7.098,6.306,9.464l0.788-1.578c-1.576-1.576-3.153-4.731-3.153-7.886c0-1.576,0-1.576,0-2.365l-1.576,1.577
		h-0.788l1.575-2.365c3.155,0.788,3.155,0.788,4.733,3.153c1.576,1.578,0,0.79,2.365,1.578c1.577,0.788,0.788,0.788,2.367,2.365
		c2.365,2.367,4.731,4.731,7.096,7.886c2.365,2.367,5.519,5.518,7.884,7.884c0.788,0.788,1.576,1.576,2.367,2.365
		c0.788,0.79,2.365,0.79,2.365,0.79c0.788,0.788,0,3.153,3.943,3.943c0,2.365,6.31,8.674,7.882,9.463v-1.578l2.365,0.79v-1.578
		l-0.788-0.788v1.576h-0.788v-2.365h-2.361c0.788-2.367-0.79-3.943-1.582-5.52h-1.573l-0.788-0.79l-2.367,0.79l-0.788-2.367
		l-1.576-1.576l0.788-0.79l0.788,0.79v-0.79l-3.155-0.788l0.788-2.363l-3.153,0.786v-2.367c0-0.788,0-0.788,0-1.575l-1.578,1.575
		l-0.788-0.788l0.788-1.575c-2.365-1.58-0.788-2.367-3.943-2.367l-0.788-1.576h-0.786l0,0v-0.788l-4.731-3.943
		c0-0.788-5.52-4.731-7.098-4.731v-1.578c0-1.576,0-1.576-1.576-2.365l1.576-1.576v-1.578l-2.365-0.786v-0.788h1.576v-3.155v-4.731
		l-0.788-2.367h0.788v-2.365v-2.367v-3.153l-0.788-2.365l0.788-6.308c1.577-3.155,1.577-5.521,0.788-9.463
		c0-0.79,0.788-8.671,0.788-11.037l2.367-0.788c0,3.943-1.576,2.365,0.788,3.155c0.788,0.788,2.367,2.365,3.155,3.153
		c2.363,1.578,4.731,3.939,5.518,5.518c1.578,0.788,5.52,3.153,6.31,4.731c1.576,1.576,3.943,3.153,5.519,4.731
		c3.155,2.365,9.459,7.886,11.825,10.249c1.577,1.576,3.941,3.155,5.52,5.52c0.79,0.788,2.367,0.788,3.157,2.367
		c1.576,1.576,1.576,1.576,3.943,1.576c0-2.365-1.578-0.788-3.155-3.155h3.155v0.79l2.365,1.576v0.788v3.155h0.788l0.788-3.155
		c-2.365-2.365-0.788-0.788,0.785-0.788l1.582-0.788l2.361,1.576h15.77c0.79-0.788,0.79-0.788,2.37-0.788
		c1.573,0,1.573,0,2.361,0.788c0,0,17.347-0.788,20.502-0.788c1.576,0.788,1.576,0,3.943,0l0,0h1.576c3.155,0,4.731,0,7.886,0.788
		c1.576,0,2.365-1.576,3.155-0.788c0.788,0.788-1.578,1.576,0.788,2.367c0.788-2.367,3.151-3.943,4.729-3.943v-0.79l-1.578,0.79
		l-0.786-2.367c2.365,0,4.73-1.576,6.308-2.365c0.788-1.578,3.153-2.367,5.519-3.155c3.155-2.367,6.308-3.941,10.249-6.308
		c2.367-0.788,3.943-1.576,5.522-3.153c2.365-0.788,3.153-1.578,6.308-2.367c3.155-0.788,6.308-5.52,10.247-5.52v3.943l3.155,22.866
		c0,2.367-0.788,1.576-0.788,3.943v3.943h0.788v5.518c0,1.576,0.788,1.576,0.788,2.367l-2.365,3.153c1.577,0,2.365-0.788,2.365,0
		c0,0.79,0,1.578-0.788,2.367c0.788,0,1.576,0,1.576,1.576c0,1.578-22.076,17.347-24.441,20.502
		c-3.157,3.155-8.673,6.308-12.616,9.463c-2.367,2.363-11.041,8.673-12.617,10.249h-1.575l-1.578,0.79l-0.788-2.367l0,0
		l-0.788,1.576c-0.788-0.788-0.788-0.788-1.576-0.788c-0.79,0,0,1.578-1.578,1.578h-2.365c-1.578,0-1.578-0.79-3.155-1.578
		l0.788,1.578h-5.52c-0.788,0-0.788-0.79-1.575-0.79h-3.155l-5.519,0.79l-19.713,0.788h-11.829h-0.788h-3.155l-0.785,0.788l0,0
		l3.155,1.576l0.784,1.575l1.578-1.575c3.941,1.575,37.849-0.788,44.156-0.788c2.365,0,2.365,0.788,3.943,0.788l2.365-0.788
		c0.788,0.788,1.577,0,2.367,0c0,0,0.788,0,1.576,0.788c0-0.788,3.943-2.365,3.943-2.365c0.786,0,0.786,0.788,1.576,0.788
		c0.786-0.788,0.786,0,1.578-0.788c0.786-0.788,1.575-1.578,1.575-1.578c0.788-0.788,2.365-1.576,3.155-2.365
		c1.576-0.788,5.519-5.522,6.308-5.522c2.366-1.578,4.728-3.155,7.098-4.727c2.363-2.367,3.941-3.943,6.306-5.522
		c3.155-2.365,24.443-20.5,26.019-20.5c0,0,0.79,0.788,0.79,1.576v1.576c0,0.786-6.31,7.884-7.098,7.884
		c-1.578,1.576-3.155,2.367-4.733,3.943c-1.576,0.788-2.361,1.577-3.937,3.155c-3.155,2.365-5.521,4.731-8.674,7.096
		c-2.367,2.363-6.31,3.939-7.1,7.884c-2.363,0-11.825,7.886-14.19,9.463c-2.366,2.367-11.039,7.882-14.982,7.882l-9.463-1.577
		l-7.884,0.792h-3.153c0,0,0,0-0.788,0.784l-0.79-0.784l-13.406-0.792l-0.786,0.792l-3.943-0.792l-1.576,0.792l-18.133-2.37
		c0,0.788,0.788,0.788,0.788,1.578v1.577l-1.576-0.784c0-2.37,0.788-2.37-1.578-2.37l0,0l3.943,6.31
		c-4.731-1.578-6.308-7.882-11.039-9.463l0.786-1.575c2.367,0.79,2.367,4.728,6.31,4.728v-0.785l-8.676-9.463h-0.788l-0.788,1.576
		l0.788-0.788v-0.788l3.155,3.943v0.788l-1.578-1.576h-0.788l-3.153-2.367l0,0h1.577v-0.788h-0.788v-1.576h1.576l-2.365-2.367
		h-2.366l0.788,2.367l0.788,3.153v0.79c-0.788-0.79-1.576-1.578-1.576-2.367v-0.788h-2.361v-1.576h0.788l-1.578-1.578v1.578
		l-1.576-0.79h1.576v-1.578h-0.792l-1.573-1.576h-1.578l0,0h1.578c0-0.784,0-1.578,1.573-1.578c0,0,0,0.794,1.582,0.794
		c-0.79-0.794-1.582-0.794-3.155-1.578c-0.788-1.576-0.788-1.576-2.367-2.365c-1.576-1.578-2.365-3.155-4.731-3.943l3.943,3.943l0,0
		v0.788c-2.365,0-1.576,0.784-1.576-0.788c-1.578-0.79-3.943-3.155-3.943-4.733h1.576h0.788l-3.153-2.365l0,0l-0.79,1.576
		c-0.788-0.788-3.153-1.576-3.153-2.365c0-0.788,0.788-0.788,0.788-0.788l1.577,0.788c0-0.788-1.577-3.943-2.365-2.367h-0.788
		c-0.79,0-3.155-1.576-3.941-2.365l1.576-1.578l-1.576-0.788c0-1.575-7.098-7.884-8.674-9.461l-1.578,0.788l-4.731-2.365v18.135
		v7.886v0.788l-0.788,0.784c0.788,0.792,0.788,0.792,0.788,1.576v2.367v3.945v3.153l-0.788,4.733l0,0v0.784v3.941l-0.788,5.522
		h0.788v1.576c0,1.576,0,0.788-0.788,1.576h0.788v1.578l-0.788-0.788c0,1.576-0.788,3.943-0.788,4.731v4.733l-0.79,7.882v0.788h0.79
		v0.788h-0.79v1.576v8.674v6.308h0.79l-0.79,1.576v5.52c0,0.79,0,0,0,0.79c0,0.788-1.575,8.674,1.578,7.096v1.578
		c-1.578,0-1.578,0-1.578,0.788v1.577h1.578l-2.365,1.575v6.31c0,0.788,0,0.788,0,1.576c0,1.578,0.786,0.788,1.576,0.788v0.79
		l-1.576,0.788l0,0l1.576,0.788v1.576c-2.365-1.576-1.576,0-1.576,3.155c0,1.576,0,4.731,0,6.306l-0.788,3.943h0.788l-0.788,3.943
		l0.788,4.731h1.576l-2.365,0.79c0.788,0.788,0.788,1.577,0.788,2.365c0,0,0,0,0,0.788l0.786,1.573v4.733h-0.786v1.576h0.786
		c0,1.576-0.786,0.788-0.786,1.576c0,0.79,0.786,0.79,0.786,1.578l0,0c-0.786,1.578-0.786-0.788-0.786,0.788c0,0.79,0,0.79,0,1.578
		l0.786,0.788l0,0l-1.575,1.578l1.575,0.788c0,0.788-1.575,3.943-1.575,4.731l0,0c0,1.578,0.788,1.578,0.788,2.363l0.786-0.784
		c0,0.784-0.786,0.784-0.786,1.576l0.786,3.149c-0.786-0.788-1.575-0.788-1.575,0.79c0,0.788,0.788,0.788,1.575,0.788l-0.786,0.788
		l0.786,1.576h-0.786v2.367h-0.788l1.575,7.098l-0.786,0.786h-0.788l0.788,2.367l-0.788,1.576l0,0l1.575,1.576
		c-1.575,0.788-1.575,0.788-1.575,2.365v1.578h0.788v3.155c0,0.788-0.788,0-0.788,1.576v1.577h0.788l-1.578,1.578l1.578,0.788
		l-0.788,0.788l0.788,1.576l-1.578,1.578l0.79,1.575v-0.786c0,0.786-0.79,3.155-0.79,3.155c0,0.786,0.79,0.786,1.578,0.786
		l-1.578,1.576l0.79,3.155l-0.79,0.788c0,1.576,0,1.576,0,2.367v1.576h0.79v2.367c0,0.788,0,0-0.79,1.576h0.79v1.576
		c0,1.578-0.79,1.578-0.79,1.578l0.79,5.518v3.155l1.575-1.578c0.79-0.788,2.367-0.788,0.79-1.576l1.576-0.786l1.576,0.786
		c0,2.365,0,0.788-1.576,0.788c-0.788,0-1.576,1.577-1.576,2.367c0.788-0.79,1.576-0.79,2.365-0.79c1.578,0,0.788,2.367,1.578,3.943
		c0-0.788,0.788,0,0.788-1.576l-0.788-3.155c2.365,0,3.941,1.578,3.941,3.155l-0.788-0.788c0,0.788,1.578,3.153,2.367,3.943
		c0.788,0,1.577,0.788,1.577,0.788c0.788,0.788,1.578,0.788,1.578,0.788l0,0c0.788,0,0.788-0.788,0.788,0h0.788l-0.788,0.788
		c1.576,2.367,0.788,2.367,3.943,3.943c1.576,1.578,0,3.155,3.941,3.939l-0.79,0.788l6.31,4.733v-0.788v1.576
		c0.788,0.79,2.365,1.578,3.155,2.367c1.576,1.576,1.576,2.367,3.153,3.155c1.578,1.576,2.367,1.576,3.155,2.365
		c1.576,1.578,2.367,2.367,3.939,2.367l0.788,2.361h2.366c0,3.155,5.52,5.52,7.886,7.886c0.79,1.576,7.098,6.31,7.098,7.098
		c1.576,0,0.788,0,1.576,0c0.785,0,3.155,3.945,3.939,0l1.578-1.578l0.788,0.79h1.576c1.576,1.576,5.52,0.788,8.674,0.788
		l0.788,0.788h7.884l24.445,0.79l17.349,0.788c1.575-0.788,2.363,0.788,3.151-1.578l-4.73-1.576c-2.365,0-3.943-0.79-6.308,0
		l-7.886,0.788l-22.078-1.578c-1.576,0-26.018-2.365-29.172-0.788c-3.941-2.365-5.519-5.519-8.674-7.886
		c-1.577-1.576-3.945-2.361-5.522-3.937c0,0-1.576-2.367-3.155-3.943c-2.365-1.578-5.52-6.31-8.671-7.886
		c-1.576-0.788-2.365-3.155-3.941-3.943c-0.79-0.788-2.367-2.369-2.367-2.369c-1.576-0.788-1.576,0.792-1.576-1.576
		c-2.367-1.573-21.29-19.712-22.078-21.288l0.788-20.502v-5.518v-11.039v-0.79c0-3.941,0-14.192,0-17.345
		c-0.788-2.367-1.578-12.614-0.788-16.557c0.788-4.733,0.788-13.404,0.788-18.923c0-6.31,0-11.829,0-18.925
		c0-24.443,1.576-51.253,1.576-74.909l0.788-0.788c0-0.788-0.788-0.788-0.788-1.576v-2.367l0.788-11.035v-2.367l-0.788-2.365h0.788
		v-3.157v-3.151v-4.731v-3.155l0.788-10.251l-0.788-3.155c0-0.786,0.788-0.786,0.788-1.575c1.578,0.788,9.464,9.461,10.251,11.037
		h1.576c0.788,1.578,0,1.578,1.578,3.155c0.788,0.788,2.365,2.367,3.153,3.155c2.366,1.576,4.731,4.727,6.31,6.304
		c2.365,1.578,3.943,3.945,5.519,5.523c1.576,1.576,5.516,4.731,6.304,6.308l1.578-0.788l1.576,1.576l0,0h-1.576l11.831,11.037
		h-0.79c-1.576,0-1.576,0.788-1.576,2.365h1.576h3.943v0.788c1.573-1.576-0.788-0.788,3.155-2.365c0.788,0,2.361-0.788,3.939,0
		l0.788-0.788c4.731,2.365,9.463-1.578,13.404,0l9.463-0.79c1.576,0,0.788,1.578,0.788,1.578l2.367,0.788l3.155-0.788l0.788-0.788
		l6.308,0.788h3.153l5.52-0.788l0.788-0.79c1.578,0.79,1.578,0.79,2.367,0.79h3.155c0.788-0.79,3.153,0,3.943,0
		c0,0,1.576-1.578,2.363-1.578c1.576-0.788,1.576-0.788,3.155-1.573c1.576-0.792,2.365-3.155,5.52-3.155c0.788,0,0.788,0,0.788,0
		c1.578-0.788,2.367-0.788,3.155-2.368c0.788-1.575,0.788-0.784,2.367-2.363c0.788-0.788,1.576-0.788,2.365-2.365
		c1.576-0.79,1.576,0,3.155-1.578c3.149-3.153,6.306-5.522,9.461-8.676c3.155-2.361,7.886-6.304,10.247-8.671
		c1.576-1.576,3.155-3.153,5.52-4.731c1.578-0.788,3.155-3.943,4.731-3.943v1.578h1.578l-0.788,0.788l-0.79-0.788l-1.576,1.576
		c0,3.943,0.788,11.041,0,14.984c-0.788,3.151,0,4.73-0.788,7.094c-0.788,3.943,0,2.367,0,6.31c-1.577,0-0.788-0.79-0.788,0.784
		h0.788l-0.788,3.153h0.788l-0.788,3.155c0,0,1.576,2.367-0.788,3.155v3.943v0.788l-1.578,20.502l-0.788,10.251v3.941
		c0,0.788,0,0.788-0.788,1.576c0.788,3.155,0,18.135,0,20.502l0.788,0.788c-1.573,4.731,0,4.731,0,9.463v3.943v1.576
		c0,0.784,0,1.578-0.788,2.365l1.576,0.79l-0.788,8.673l0.788,1.576l-0.788,10.253v7.092v3.945c0,0.788,0,0.788,0,1.578v2.365
		c0,0.788,0.788,0.788,0.788,1.578h-0.788l0.788,14.19l-0.788,3.943v3.943l0,0c0,1.576,0.788,0.786,0.788,1.576
		c0,0.786-0.788,0.786-0.788,1.577l0.788,0.786l-0.788,18.927v3.151h1.576l-0.788,5.522v2.365v4.731l0.788,7.884l-0.788,0.79
		c1.578,3.941,0.788,3.941-2.361,4.73v0.79h0.784l0,0l-2.363,3.153h-0.792l2.37-3.153c-3.943,2.365-7.098,6.308-9.463,9.463
		c-3.155,3.155-6.31,7.092-8.674,11.037c-1.578,1.578-0.792,0-2.368,2.366c0,2.365-0.786,1.576-1.573,3.155
		c-1.578,2.365-2.37,3.153-3.943,5.52c-1.576,1.576-2.367,3.939-3.943,5.516c-0.788,1.576-2.367,0.788-2.367,3.155
		c0,1.576,0,0.788,0,3.153l-2.365-0.788v2.367c0,0.788-1.578,1.576-1.578,3.155c0,1.576,0,1.576,1.578,1.576
		c0.788-2.366,7.886-11.041,9.463-11.829c0-0.788-0.788-0.788-0.788-1.573c0-0.792,1.573-1.576,2.365-1.576
		c-0.792-0.794,0-1.578,0.788-0.794v-1.573h0.79v0.788l1.573-1.576h-0.786l1.576-0.788c0-2.366,1.578-1.578,3.155-3.943
		c0.788-1.578,1.577-2.367,3.155-3.943c0.788-0.788,2.365-2.366,3.153-3.943c1.578-3.157,2.366-1.576,3.155-3.945l-1.576,0.788
		l2.365-2.361l0,0c1.578-0.788,2.367-1.578,2.367-3.155c2.365,0,3.149-3.943,4.727-5.52c0.788-1.578,3.155-0.79,3.943-5.521
		l7.888,2.367c-2.368,3.943-7.1,7.098-10.255,10.251c-3.155,3.151-6.304,7.096-9.459,11.039c-1.576,0.788-3.943,3.155-4.731,4.731
		c-0.788,1.576-1.577,2.365-2.365,3.155c-3.155,2.365-1.578,1.576-2.367,2.365c-0.788,1.578-0.788,0-1.576,1.578
		c0,0-0.792,0.784-0.792,1.576c-1.576,0.784-1.576,1.573-3.149,2.361c-2.37,2.367-0.79,3.155-4.731,4.731l0.788,2.367h-1.576
		l-6.31,6.31v0.79c0,1.576-3.155,4.728-6.306,3.943c-1.578,0-8.674,0.784-9.464,0.784c-1.577,0-1.577-0.784-3.153-0.784l0,0h-9.461
		h-0.792l-19.712-1.578l-15.771-0.788l-13.402-0.788c-0.788-5.522-10.253-9.465-14.196-13.408
		c-4.728-3.939-10.247-7.094-14.978-11.825c-0.79-0.788-6.31-6.308-7.096-6.308c-3.943-3.155-3.943-3.155-7.098-7.1
		c-1.576-1.573-4.731-3.939-6.308-6.304c-2.367-2.367-5.52-3.155-6.31-7.886l-1.575,1.577l1.575,1.576l-0.786,0.79l-2.365-2.367
		v0.788l0.786-2.365h-3.153l-0.788,1.577h1.576l-0.788,1.576l2.366-0.788c0.786,0.788,2.365,2.367,0.786,3.943
		c-1.575-1.576,0-1.576-2.365-2.365c-2.365-0.79-1.576,0-3.153-0.79l-2.367,2.366l2.367-0.788l-2.367,3.155v-0.79v-0.788
		l-3.155,2.367l1.578-0.788h1.576l-0.788,1.576l2.367-0.788l-0.79,1.576l-2.365,0.788l-2.367-1.576v4.727l-0.788,12.619v1.576
		c0,0.788,0,0.788,0,2.367l0.788,0.788h-0.788v1.573c0,3.943-1.577,4.731-1.577,7.886c0,3.943-1.578,7.098-1.578,7.886v15.769
		l0.79,4.733h-0.79l1.578,1.576l0.788,3.943v-0.788c1.576-0.79,0.788-0.79,2.365-0.79h0.79v-2.365l0,0l1.576,1.576h-1.576v0.788
		l3.943,2.366l1.576-0.788l3.943,1.576h-2.366v-0.788l-1.576,0.788c0,0.786,6.308,6.308,7.884,7.096
		c2.365,2.365,5.52,5.519,7.096,7.096c-0.788,1.578,2.367,2.367,3.943,3.155c3.155,1.576,1.578,2.367,3.943,3.153
		c0,1.576,5.518,7.096,7.884,7.096v0.79c0,0.788,7.098,5.52,7.886,7.884l3.153,1.578l0.79-1.578h-1.578l3.155-2.365l1.576,0.788
		c4.728-2.365-3.153,3.943,3.151,3.155l3.155-0.788l2.365,1.576l1.58-0.788l5.52-3.943h1.576v1.576l-1.576-0.788l-0.788,1.576
		l1.577,1.578c2.367,0,0.788-1.578,2.367-1.578h1.576l0,0h3.943v1.578l5.516-2.366l0.788,0.788c3.155-0.788,11.827-2.365,13.404,0
		l-5.518,0.79c0.788,2.365,1.576,0,3.941,1.576l0.79-1.576h0.786v0.788h3.943c1.578,0,0.788-0.788,0.788-2.366h1.578l-0.788,1.578
		c0.788,1.576,5.52,0.788,6.308,0.788l0.788-2.366l0.788,0.788l1.578,0.79h3.153v-0.79l0.79-0.788l1.575,1.578
		c0,0,1.576-0.79,2.368-0.79h0.786h5.52h0.788l7.098,0.79l1.576-0.79l0.788,0.79l4.729-0.79l1.578-0.788v1.578l6.308-0.79
		l2.367,0.79c0.788,0,0.788-0.79,1.576-1.578l3.155,2.366v-0.788l1.573-1.578v2.366l3.157-0.788h3.155v-1.578
		c0-1.576,2.365-3.153,3.153-3.943c2.367-2.365,1.578-3.153,2.367-4.731c0,0.788,0,0.788,1.576,0.788c0,0,0.788-0.788,0.788-1.576
		h-3.153v-0.788c0-0.788,1.577-3.155,2.365-3.941h1.578l-2.366,3.153c1.576,0,1.576-0.788,2.366-0.788h2.365v1.576
		c0,0.788-9.463,9.463-9.463,11.829c2.367,0,3.155-3.155,4.731-4.731c1.576-0.79,3.943-3.155,4.731-4.733
		c1.578-1.576,7.882-7.882,8.671-9.461h-1.573l-0.794-1.576l2.367-1.576v2.365c1.576,0,3.943-3.155,3.943-3.943l-3.943,1.578l0,0
		l2.366-3.943l0,0h-2.366l1.576-0.79v-1.576h-1.576l3.155-0.788v0.788l-0.788,1.576h0.788l1.576-1.576l0,0v-1.576
		c0-0.788,0-0.788-0.788-1.578c1.576,0,1.576-0.788,1.576-0.788c1.578,0,2.366,2.367,2.366-0.788
		c2.365-1.576,3.943-3.941,5.522-5.518l-0.788-1.578c2.367,0,3.155-3.153,4.731-3.941c2.361-1.578,1.576-3.155,2.361-4.733
		l0.794,0.79h1.573l0.788,1.576h0.788l-1.576-10.251c-0.788,0,0-0.784,0-0.784l-1.573,0.784v-7.884l-0.794-0.788
		c0-0.788,0.794-1.578,0.794-2.367l-0.794-14.978v-3.155l-1.573,0.788l1.573-3.153l-0.784-3.155l-1.576,0.788l0.788,0.788
		l-3.943-0.788v3.943c0,0-0.788,2.365-0.788,3.155l0,0l0.788,5.52c-0.788,0.784,0,1.573,0,3.149v0.79c0,0.788,0,0.788-0.788,0.788
		v9.464c0.788,0.788,0.788,0.788,0.788,1.576v3.155v3.939v0.788c0,0.788,0,0.788-0.788,1.578v3.153l0.788,0.788l0.79,1.578
		c-2.367,4.731-7.1,6.308-10.255,10.251c-1.576,1.578-3.943,3.155-5.52,4.729c-1.578,1.578-3.155,3.943-4.727,5.52
		c-2.367,1.578-7.886,7.886-10.251,10.251c-2.367,3.155-7.098,8.674-9.463,10.251l-12.618-0.788h-2.365v0.788l-29.174-1.576
		c-0.788,0-1.576,0.788-3.153,0.788c-0.79-0.788-1.578-1.576-2.367-0.788h-5.519c-2.367,0-2.367,0.788-5.516,0.788
		c-3.945,0-3.945-1.576-6.311-1.576c-3.155,0-8.674,0-12.618,0c-1.573,0-1.573,0.788-3.939,0.788h-1.576
		c-2.365,0-11.831,0.788-13.407,0l-1.577,0.788c0,0-0.79-0.788-1.578-0.788l-10.247,0.788v-0.788
		c-0.788-2.367-3.943-3.155-4.731-5.52c-1.578-3.155-2.366-3.155-5.52-4.731c-0.79,0-8.673-8.674-9.463-10.251
		c-0.788-1.576-3.153-3.155-4.731-5.518c-0.788-0.79-3.153-4.731-3.943-5.52c-1.576-0.79-2.365-0.79-3.153-1.578
		c-1.576-1.576-0.79-1.576-2.365-3.153c-1.576-0.79-3.943-3.943-6.308-3.943h0.788l-1.576-1.578l-0.79,0.788v-7.092l0.79-6.31
		c-0.79-1.576,1.576-1.576,1.576-4.733c0-2.365,0-3.943,0-6.308c0-4.728,0-8.671,0-12.614l0.788-0.788
		c0-0.788-0.788-0.788-0.788-1.576v-0.79c0-0.788,0.788-1.576,1.576-2.365l-1.576-1.578h0.788v-1.576l-0.788-0.788l-2.367,4.731
		h1.578v1.576c-0.788-0.788-1.578-1.576-1.578-2.365v-4.731c0-1.58,0.79-0.788,1.578-2.368l-0.788-1.573l0,0l2.365,0.784l0,0
		c1.576,0,0-0.784,0-2.361c0-0.79,0.788,0,0.788-1.578l-1.576-0.788v-2.367l1.576-0.788l-0.788-0.788l0.788-0.788
		c0.788,0.788,2.366,1.576,3.153,2.365c2.365,1.578,1.578,0,3.943,0.79c-0.788,1.576,3.155,4.731,4.731,4.731
		c0.788,0.788,3.155,3.941,3.943,3.941h1.577c0,3.153,8.672,7.884,10.251,10.251c0.788,1.576,9.463,8.674,11.039,9.459v0.788
		c0.788,0,3.943,3.155,4.727,3.943c1.582,1.576,3.943,3.155,5.52,3.943c0.79,1.576,9.466,7.1,9.466,8.676v1.573l3.943,0.794
		c0,0,0,0,0.788,0c3.153,0,7.881,0.784,9.459,0.784c3.153,0,4.731,0.792,7.886,0.792c6.306,0.784,13.404,0.784,18.135,1.573
		c1.576,0,19.712,0,20.5,0c3.943,0,13.404,0,18.925,0h0.788l-0.788-1.573c0-1.576,2.365-1.576,3.943-1.576l2.365-2.367v-1.576
		l1.578-0.79v-0.788h-0.79l5.52-2.367l-1.58-3.155l3.157-3.943l1.576,0.788l0,0l2.367-3.943v-1.576l0.788,0.788
		c1.577-2.365,1.577-2.365,3.155-4.728c2.365-1.576,2.365-3.155,3.943-3.943c0.788-1.576,7.092-7.096,7.092-7.886v-1.576
		c2.37-0.788,10.251-9.461,11.041-11.827c3.945,0,0.788-0.788,3.945-1.576c0-2.366,0-4.731,1.576-3.943l-0.79,0.788
		c0,2.367,3.945,3.943,5.521,5.522l-0.788,0.788v3.943l-3.943,0.788c-0.79,1.573-3.155,3.153-2.368,4.73l-3.153,1.576l0.788-2.365
		c-2.366,1.576-1.578,1.576-1.578,3.943l-1.576,0.788v-0.788c-0.788,0.788-5.52,7.096-5.52,8.674c-2.363,0-7.882,7.092-9.459,8.669
		c-0.788,2.366-2.367,3.155-3.943,4.733c-0.788,0.788-2.367,4.731-3.155,4.731c-1.576,1.578-3.943,2.367-4.733,4.733
		c-2.363,2.361-3.151,2.361-4.727,3.939c-1.577,1.576-3.155,2.365-4.731,3.943c-0.788,1.576-3.155,3.941-4.731,3.941h-4.731h-3.941
		l-28.388-0.788l-0.788,0.788c-2.365-0.788-10.251-0.788-14.194-0.788c-4.729,0-10.249-0.788-14.192-1.577h-9.459l-0.788,0.788
		c-1.578,0-1.578-0.788-2.367-0.788c-7.888,0-3.943-3.155-8.676-3.155l-1.577-1.573l0.788-0.792
		c-3.155-1.578-3.155-0.784-5.516-3.151c-0.79-0.788-2.367-2.367-4.733-2.367c0.79-2.367-1.576-2.367-3.153-3.943
		c-0.788-0.79-3.943-3.943-4.731-3.943v-1.578c-2.367,0-5.522-3.943-6.31-4.731c-2.363-1.573-4.729-4.728-6.306-6.304
		c-4.731-3.155-6.31-7.098-11.829-11.041l-1.576,0.788l-3.155-3.153c0,1.576,0.79,2.365,1.578,5.52l0,0l-1.578-1.576l-1.575-0.79
		v0.79l6.306,6.308c0.788-0.788,1.576-1.576,2.367-1.576h0.788c0.788,0,1.576,0.788,1.576,2.365v-0.788l3.155,2.366l-2.367,2.365
		l1.578,0.784l1.576-2.361l0.788,1.576l-2.365,1.578l2.365,1.576l-0.788-2.37h0.788v-0.784c2.367,1.578,0.788-0.788,3.155,2.363
		c0.788,1.576,2.363,1.576,1.576,3.153l-1.576-1.576l-0.788,0.788l3.943,1.576l-0.792-0.788l3.943,1.578v1.576l3.155,1.576
		l-0.788,0.79l3.155,2.365l0,0V472.17z M496.865,420.922c0.79,0,2.367,0.786,2.367,2.363v0.788
		C497.656,423.284,496.865,422.496,496.865,420.922L496.865,420.922z M334.439,115.774c-0.79-0.788-4.733-3.945-6.31-6.31
		c-0.788,0-6.308-7.098-2.365-7.098l0,0c0.788,0,23.655,18.929,26.021,21.29c1.576,1.577,3.941,3.155,6.308,4.731
		c1.576,1.576,4.728,3.943,6.304,5.519c2.367,1.578,11.043,11.039,12.619,11.039c0,0,0-0.788,0.79-0.788
		c0.788,3.153,7.096,2.365,10.247,2.365h0.788l11.829,0.788h7.882h3.943l26.021,0.79v-1.578l3.943-1.576
		c0.788-1.575,3.941-2.367,5.518-3.941l1.578,0.788c0.788-0.788,17.349-15.77,18.921-11.829c1.576,0,4.733-3.153,7.1-3.941
		c3.153-1.578,4.731-3.155,7.096-4.728c3.939-3.155,8.671-7.098,14.98-7.098h0.788l-2.366,2.365h0.788
		c0,2.367-10.251,9.461-11.035,9.461h-1.576v0.788h-1.578l0,0l2.367-2.367l-0.788-0.788c0,0-3.155,3.155-4.731,3.943
		c-1.578,0-5.521,2.365-6.31,3.155c-2.365,1.576-3.157,1.576-5.52,3.943c-2.365,1.576-4.729,0.788-4.729,3.941h-2.367
		c0,2.367-7.096,6.308-9.463,7.096c0-2.363,0-1.576,1.576-1.576c0.79-2.365,3.943-1.578,3.943-5.52
		c-0.788,0.79-3.153,1.578-3.943,3.155c-0.788,2.365-1.576,0.786-2.365,3.153l0.788,0.788c-1.576,1.576-1.576,0.788-3.155,1.576
		c-0.786,0.79-0.786,1.578-2.363,2.367c0.786,2.365,0.786,1.576-1.576,1.576l-0.79,1.578l-4.731-0.79l-3.943,0.79
		c-0.788,0-0.788-0.79-1.576-0.79l-21.29-0.788h-2.365c-0.79,0,0,0.788-3.155,0.788c-0.788-0.788-2.367-0.788-3.153-0.788
		c-1.576,0-3.943,0.788-6.308,0.788h-9.463h-3.939c-0.794,0-0.794-0.788-0.794-1.576h-1.573v2.367l-2.365-1.578
		c-1.578-0.788-0.788-1.576-3.155-2.365c-3.155-0.788-1.576-0.788-3.155-2.367c-1.578-0.788-3.945-3.151-5.521-4.73
		c-0.788-0.788-4.731-4.731-6.304-4.731c-0.79-0.788-2.367-0.788-3.155-1.576c-0.788-2.367-2.367-1.578-2.367-1.578l-0.788-0.788
		l0.788-1.576l-2.365-0.788c-2.367-3.943-8.674-4.731-8.674-7.886c-3.153,0-2.367-1.573-4.729-3.151
		c-1.578-0.788-3.943-3.155-5.522-3.155L334.439,115.774z M487.406,123.656C486.614,124.444,488.191,122.868,487.406,123.656
		L487.406,123.656z M436.942,131.542c0-0.788,4.731-2.367,5.519-2.367C441.674,130.754,436.942,133.119,436.942,131.542
		L436.942,131.542z M494.501,127.599c0.788-2.367,0-5.516,2.365-6.304l0,0v6.304v1.576L494.501,127.599z M335.228,97.639
		c0-0.788,2.365-1.577,3.943-1.577v1.577c3.941,0.788,2.363,5.516,7.094,5.516h-0.788c0.788,2.366,2.367,3.155,3.943,4.731
		c2.367,0.79,1.576,0,3.943,2.367c3.155,2.367,6.308,5.522,8.671,7.888c0.788,0,3.943,2.365,4.731,3.155
		c2.365,1.573,2.365,2.361,3.943,3.149c2.367,1.578,7.888,5.52,10.253,5.52l1.573,2.367c0.794,0,27.6,1.576,31.543,2.367
		c3.943,0,11.039,0,14.98,0c2.367,0,5.52,0.788,7.098,0c1.576,0,3.153,0.788,3.943,0c0.788-1.578-0.79-2.367,1.576-3.155
		l0.788,1.576c1.578-1.576,2.367-2.365,4.731-3.943c1.578-0.788,3.941-2.365,5.518-3.153c3.943-2.367,7.098-3.939,11.041-6.306
		c3.155-2.365,18.923-12.619,22.078-12.619l0.784-0.788c3.155,0,1.576,1.576,3.155,3.943c-1.578,1.576-0.784,1.576-3.939,4.733
		c-1.576,0.788-3.155,1.576-4.731,2.367c-1.576,0.788-1.576,1.576-4.731,3.153c-1.576,0-3.155,1.578-4.731,2.363
		c-3.157,1.576-17.347,11.039-18.925,11.039c-2.365,3.943-13.404,11.827-18.923,8.673c-4.731,2.367-13.404,0-18.135,2.367
		c-0.788,0-0.788,0-2.366,0c-0.788,0-0.788,0.788-2.365,0.788c-0.788-0.788-0.788-1.576-2.366-1.576l-14.98,0.788l-0.788-0.788
		l-0.788,0.788h-1.578h-1.576h-3.155c0-0.788-0.784-0.788-1.573-0.788h-1.582v0.788c-3.149,0-5.516-3.941-6.304-6.308h-2.365
		c-0.79-0.788-4.735-4.731-7.1-4.731c-1.577-3.153-3.155-3.943-5.516-6.308c-1.578-1.576-4.731-5.516-7.098-6.304h0.788
		l-2.365-3.155h-0.788c-1.578,0-1.578-0.788-1.578-1.578l0,0l-3.155-2.365l0.79-0.79h-1.578l-3.153-2.367
		c-0.79-2.365-1.578-2.365-1.578-3.943l-0.786,0.788l-6.308-4.731C334.439,100.79,335.228,101.578,335.228,97.639L335.228,97.639z
		 M366.765,132.331C365.976,133.119,366.765,131.542,366.765,132.331L366.765,132.331z M333.649,87.388c0,0,0,0,0.79,0h0.788
		c0.788,0,0.788,0,0.788,0l-2.367,1.576C332.861,88.176,333.649,88.964,333.649,87.388L333.649,87.388z M336.016,78.712
		c0-1.575,1.576-4.727,3.155-4.727c0.786,0,1.576,0.788,1.576,0.788C340.747,75.561,336.016,80.29,336.016,78.712L336.016,78.712z
		 M403.823,128.388c-1.577,0-1.577,0.788-3.151,0.788l-8.674-1.576l-0.79,0.788l-1.576-0.788c-9.459,0-7.882-3.155-12.614-3.943
		v-0.788c-7.096,0-3.153-4.728-7.888-4.728c-0.788-1.578-1.576-1.578-3.153-3.943l-4.728-3.157h-2.37v-0.788h1.582v-0.788h0.788l0,0
		l-2.37-2.367v0.788l-0.784,1.578l-0.788-1.578l-1.578,0.79l0.79-1.578c0-1.576,0-0.788,0-1.576c0-0.788,0.788-0.788,1.576-0.788
		l0,0l3.155,2.365c0-0.788-2.37-4.731-3.155-4.731l0,0c-0.788,0-0.788,0-1.576,0.788l-1.578-0.788v1.576h1.578v0.79
		c-3.155-1.578-1.578,0.788-1.578,1.576c-0.788,0-2.365-1.576-3.153-1.576c-1.578-3.155,0.788-0.79-2.367-2.367
		c-1.576-0.788-3.943-3.939-4.731-5.516c-0.788,0.788-3.941,0-4.731-0.788c-0.786-0.788-0.786-1.578-1.578-2.367
		c-0.786-0.788-0.786,0-2.363-0.788l3.155-0.788l0.786-5.52l-0.786-0.79c1.576-0.788,2.363-6.306,1.576-7.882
		c2.365-1.578,4.729-2.367,7.096-3.943c3.153-1.578,4.731-2.367,7.096-3.943c2.367-0.788,2.367-0.788,4.731-1.578
		c1.578,0,1.578-0.788,3.151-1.576c3.155-1.576,1.576-0.788,3.155-2.365c0-0.79,2.365-1.578,3.153-2.366l4.735-1.576v-0.79h-0.79
		v-0.786c1.578-0.788,3.155-3.943,7.886-3.943h1.573l3.155,0.79h0.788c3.943-0.79,5.521-2.367,11.829-2.367
		c5.518,0,9.461-0.788,13.404,0.788c2.367,0,3.943,0,5.519,0c3.943-0.788,3.943,0.788,5.522,0.788c0.788,0,1.575-0.788,1.575-0.788
		c3.943,0.788,8.674,5.518,11.829,6.308c1.576,1.576,3.153,2.365,6.308,3.153c2.367,0.79,3.155,1.578,5.518,2.367
		c3.943,1.577,8.674,3.943,12.617,5.52c2.367,1.578,3.94,1.578,5.52,3.155c1.576,0.788,3.939,2.365,6.308,2.365
		c3.155,4.731,10.251,3.153,10.251,7.096c0,0.788-0.788,0.788-1.576,1.576v-0.788h-0.788c0.788,1.578,2.365,1.578,2.365,4.731
		c0,3.155,0.79,6.31-0.788,8.674l0.788,2.363c0,0.788-0.788,0.788-0.788,1.576v0.788c0,0.788,0.788,0,0.788,1.578l-6.308,3.153
		l-0.788,2.367l0,0l-3.943,0.788v1.578l-1.58-0.79l-0.786,0.79h0.786c-1.576,2.367-7.881,5.521-10.247,7.098
		c-1.576,1.578-3.943,1.578-5.52,3.151c-1.578,0.788-3.943,3.155-4.731,1.576l6.308-4.728h-0.788
		c-2.367,0-16.559,7.882-17.347,9.459h-3.943h-0.788h-7.098h-0.786h-6.308c-4.731,0-7.886-1.576-11.829,0.788l-1.577-1.576
		l-0.784,1.576L403.823,128.388z M354.151,104.733C353.363,104.733,354.939,103.943,354.151,104.733L354.151,104.733z
		 M358.094,107.886h0.784l-0.784-0.788V107.886z M471.636,111.041C470.848,111.041,472.424,110.252,471.636,111.041L471.636,111.041
		z"/>
	<path fill-rule="evenodd" clip-rule="evenodd" d="M506.332,502.135c0.788-1.576,2.365-0.788,3.937-3.155
		c0.794-2.365,2.367-2.365,2.367-4.731l-2.367,1.578l-4.726,6.308H506.332z"/>
	<path fill-rule="evenodd" clip-rule="evenodd" fill="#FEFDFD" d="M489.769,515.538l-0.784-1.576
		c-0.794,2.365-3.943,2.365-3.943,3.155c0,1.576,0.788,0,1.573,2.365l1.576-0.788c0-0.788,0,0,0-1.576v-0.79L489.769,515.538z"/>
	<path fill-rule="evenodd" clip-rule="evenodd" fill="#FEFDFD" d="M483.465,521.058v0.79l-2.367,0.786v1.576
		c2.367-0.786,1.576-0.786,3.155-0.786c0.788,0,0.788,0,1.576,0.786c0.784-0.786,0.784-0.786,0.784-1.576v-1.576
		c0-0.788-1.573-2.365-3.149-2.365l0.788,2.365H483.465l-0.79-1.576l-0.788,1.576H483.465z"/>
	<path fill-rule="evenodd" clip-rule="evenodd" fill="#FEFDFD" d="M482.675,524.999c0,0.79,0,1.578,0.79,1.578
		c0,0,0.788,0,1.576-0.788v-1.578l0,0L482.675,524.999z"/>
	<path fill-rule="evenodd" clip-rule="evenodd" fill="#FEFDFD" d="M379.384,536.828l0.788,0.788c0-0.788-0.788-2.365-1.576-2.365
		c-0.788,0-0.788,1.576-0.788,2.365L379.384,536.828z"/>
	<path fill-rule="evenodd" clip-rule="evenodd" fill="#FEFDFD" d="M469.269,532.885c-0.79,0-1.576,0-1.576,0.788
		c0,0.79,0,0.79,0.786,1.578c-1.573,0.788-2.363,2.365-0.786,2.365c0.786,0-0.786-0.788,1.576-0.788v-1.576l1.578-0.788
		C470.056,533.674,470.056,532.885,469.269,532.885L469.269,532.885z"/>
	<path fill-rule="evenodd" clip-rule="evenodd" fill="#FEFDFD" d="M370.708,536.04c0-0.788-0.786-2.367-1.578-2.367
		c-0.788,0-1.576,0.79-1.576,1.578v1.576h1.576l0.792,0.788C370.708,537.617,370.708,537.617,370.708,536.04L370.708,536.04z"/>
	<path fill-rule="evenodd" clip-rule="evenodd" fill="#FEFDFD" d="M362.033,538.405c2.365,0,1.577-2.365,4.731-3.153
		c-0.788-0.788-3.155-1.578-3.943-1.578l0,0c-0.788,0-1.573,0.79-2.361,1.578l0.788,2.365L362.033,538.405L362.033,538.405z"/>
	<g>
		<polygon points="445.326,463.984 445.536,463.809 444.95,463.753 		"/>
		<path d="M447.439,463.158l-0.246-0.297c-1.695,0.171-1.201-0.056-2.419,0.406c0.264,0.165,0.854,0.523,1.518,0.475
			c-0.071-0.118-0.721-0.287-0.512-0.462c0.494,0.075,0.428,0.263,1.07,0.345c0.522-0.278-0.417-0.173-0.18-0.482L447.439,463.158z"
			/>
		<path d="M445.75,462.809l0.822,0.051C446.279,462.832,445.919,462.687,445.75,462.809z"/>
		<path d="M445.574,462.627c0.066-0.186,0.627,0.004,0.719-0.015l-1.096-0.214L445.574,462.627z"/>
		<path d="M445.645,461.848l-0.101-0.088C445.371,461.79,445.513,461.814,445.645,461.848z"/>
		<path d="M445.513,461.463c-0.373,0.079-0.15,0.176,0.03,0.297l0.072-0.013c0.315-0.107,1.098-0.006,0.889,0.167
			c0.176,0.182-0.593,0.165-0.086,0.325l0.632-0.216C446.953,461.739,445.825,461.574,445.513,461.463z"/>
		<path d="M445.645,461.848l0.051,0.101C445.825,461.904,445.75,461.874,445.645,461.848z"/>
		<polygon points="445.553,462.24 445.716,462.336 446.047,462.312 		"/>
		<path d="M445.457,460.827c1.059,0.041-0.118,0.456,0.71,0.507c-0.045-0.253,0.736-0.456,1.317-0.402l-0.332-0.278
			C446.754,460.561,445.958,460.679,445.457,460.827z"/>
		<path d="M448.147,460.279l-0.189-0.068L448.147,460.279z"/>
		<path d="M446.319,458.864l1.07,0.653c-0.345-0.058-0.677-0.034-0.801-0.184c-0.141,0.287,0.539,0.327,0.432,0.565
			c-0.989,0.069-0.071-0.422-0.953-0.283c0.026,0.165,0.068,0.417,0.905,0.554l-0.668,0.266l1.087-0.092
			c0.31-0.107-0.854-0.218-0.101-0.285c0.465-0.032,0.557,0.075,0.668,0.152c-0.22-0.171,0.847-0.471,0.702-0.818
			C448.548,459.022,446.835,459.108,446.319,458.864z"/>
		<polygon points="447.508,458.838 447.935,458.8 447.364,458.826 		"/>
		<path d="M446.095,458.128l0.679,0.34c-0.092,0.037-0.321,0.056-0.518,0.081c0.248-0.013,0.674,0.079,0.88,0.062
			c0.98-0.154-0.312-0.413-0.484-0.593c0.441-0.486,0.529,0.019,1.452-0.167c-0.024,0.131-0.261,0.139-0.327,0.327
			c1.107-0.297,0.092-0.664-0.184-0.856c-0.096,0.055-0.402,0.07-0.313,0.173l-0.323-0.195
			C446.182,457.502,445.971,457.674,446.095,458.128z"/>
		<path d="M446.103,458.735c-0.073-0.126,0-0.174,0.137-0.184C445.977,458.585,445.784,458.628,446.103,458.735z"/>
		<path d="M447.569,457.218c-0.06,0.022-0.036,0.056,0.026,0.103C447.638,457.297,447.647,457.267,447.569,457.218z"/>
		<path d="M446.405,457.413l0.099-0.238l-0.462,0.092C446.095,457.299,446.167,457.419,446.405,457.413z"/>
		<path d="M447.908,448.309c-0.407,0.021-0.599,0.107-0.52,0.291c-0.533-0.021-0.43-0.259-0.736-0.37
			c-0.347,0.24-0.623-0.002-1.139,0.056c-0.051,0.27,0.64,0.39,0.503,0.681c-0.154-0.013-0.39-0.011-0.574,0.03
			c0.338,0.347,0.831,0.938,0.377,1.282c-0.203,0.327,0.051,0.569,0.287,0.929c-0.276,1.186,0.272,2.423-0.227,3.701l1.036,0.182
			c-0.512,0.06,0,0.302-0.67,0.265c0.13-0.068,0.022-0.135,0.009-0.22c-0.91,0.276,0.075,0.725-0.252,1.051
			c0.186-0.036,1.085-0.09,1.244,0.009c-1.152-0.024,0.021,0.386-1.305,0.484c-0.327,0.327,1.01,0.011,0.824,0.353
			c0.679,0.036,0.328-0.327,0.844-0.39c0.548,0.111-0.229,0.312,0.482,0.295c0.336-0.548-1.081-1.563-1.462-2.4l0.636,0.088
			c-0.458-0.426-0.48-1.118,0.565-1.462c-0.612,0.081,0.321-0.632-1.058-0.567c0.317-0.107,0.265-0.141,0.383-0.295l-0.437-0.043
			c0.009-0.221,0.683-0.184,0.644-0.433c-0.597,0.161-0.769-0.019-1.263-0.092c0.661-0.289,1.244-0.627,1.783-0.882
			c-0.188,0.021-0.409,0.043-0.666,0.133c0.21-0.175-0.358-0.145-0.559-0.192c-0.026-0.169,0.738-0.15,1.12-0.144
			c0.24-0.308-1.222-0.447-0.734-0.676l-0.61,0.081c-0.148-0.317,0.524-0.582,0.321-0.933c0.833-0.171,0.719,0.285,1.083,0.432
			c0.174-0.069,0.218-0.221,0.497-0.27c-0.426-0.15-1.014-0.402-1.413-0.586C447.897,448.872,447.844,448.427,447.908,448.309z"/>
		<path d="M448.336,449.283l0.334,0.1c-0.056-0.032-0.111-0.064-0.068-0.113L448.336,449.283z"/>
		<path d="M447.908,448.309l0.092-0.011C447.946,448.266,447.921,448.279,447.908,448.309z"/>
		<polygon points="445.765,450.323 445.819,450.28 445.844,450.22 		"/>
		<path d="M448.537,450.588l-0.653,0.265C448.16,450.822,448.376,450.798,448.537,450.588z"/>
		<path d="M447.852,452.725c0.105,0.068,0.295,0.026,0.488,0.073C448.366,452.663,448.171,452.616,447.852,452.725z"/>
		<polygon points="448.494,448.897 448.3,448.63 448.141,448.536 		"/>
		<path d="M445.315,443.499c-0.728,0.235-0.283,0.584-0.426,0.869c0.377,0.533,1.591,0.068,1.682,0.572l-1.503-0.086
			c0.092,0.503-0.221,1.218,1.098,1.646c-0.186,0.041-0.413,0.128-0.629-0.002c0.066,0.334,2.141,0.173,1.644,0.623
			c-0.931-0.42-0.886,0.139-1.817,0.021l-0.109-0.064c0.097,0.283,0.595,0.662,0.529,0.85c0.383,0.006,0.978-0.16,1.023,0.092
			c0.079-0.1,0.514-0.06,0.903-0.051c-0.428-0.259-0.167-0.402-0.672-0.559c0.501-0.143,0.163,0.098,0.661-0.049l-0.467-0.208
			c0.122-0.154,0.51,0.158,0.614-0.081c-0.297-0.026-0.614-0.221-0.552-0.411l0.173,0.054c-0.197-0.143,0.055-0.345-0.784-0.274
			l0.832-0.173l-0.571,0.03c0.225-0.392,1.588-0.541,0.875-1.049c-0.169,0.122-0.477,0.011-0.586-0.053
			c-0.391,0.21,0.432,0.259,0.51,0.462c-0.569,0.03-1.248-0.312-1.588-0.071c0.672-0.265-0.088-0.505,1.331-0.616
			c0.085-0.323-0.61-0.445-0.274-0.773l0.207,0.013c-0.937-0.062,0.428-0.266-0.537-0.51l-0.208,0.173
			c-0.385-0.008-0.398-0.092-0.469-0.21c0.148,0.015,0.148,0.015,0.336-0.024c-0.681-0.032-0.788-0.402-0.991-0.45
			c-0.116,0.156,0.445,0.345,0.619,0.529C445.769,443.627,445.196,443.653,445.315,443.499z"/>
		<path d="M447.796,446.821l-0.33-0.105C447.525,446.757,447.619,446.798,447.796,446.821z"/>
		<path d="M446.504,442.039c0.152-0.205,0.58,0.056,0.884-0.137c-0.473-0.208-0.966,0.242-1.672,0.037
			c0.411-0.128-0.297-0.332-0.31-0.413c0.4,0.088,1.3,0.036,1.484,0c-0.253-0.081,0.193-0.259,0.221-0.394
			c-0.565,0.332-0.338-0.278-0.953,0.021c-0.531-0.021-0.923-0.334-0.514-0.464c0.388,0.011,0.308,0.113,0.323,0.197
			c0.728,0.069,0.394-0.21,1.06-0.259c-1.012-0.319-0.946-1.331-2.575-1.042c-0.317,0.107,0.082,0.203,0.148,0.319
			c0.327-0.33,0.865-0.004,1.154,0.024c-0.259,0.143,0.261,0.379-0.325,0.327l-0.612-0.225c-0.308,0.719-0.195,1.693,0.045,2.515
			l0.032-0.353c0.443,0.037,0.469,0.208,0.681,0.338l1.075-0.173c-0.081,0.1,0.079,0.199-0.304,0.191
			c0.452,0.128,0.732,0.069,1.098-0.006c0.191,0.265-0.229,0.308,0.473,0.512c0.882-0.439-0.732-0.374,0.043-0.878L446.504,442.039z
			"/>
		<polygon points="447.094,443.005 446.551,442.9 446.818,443.062 		"/>
		<path d="M444.725,442.837c0.236-0.004,0.342,0.06,0.578,0.053C445.463,442.685,445.134,442.709,444.725,442.837z"/>
		<path d="M447.075,440.355l-0.19-0.265l-0.208,0.174C446.915,440.258,447.019,440.322,447.075,440.355z"/>
		<path d="M444.269,438.496c0.107,0.368,0.614,0.524,0.064,0.942c0.704,0.204,1.323-0.098,1.961-0.009
			c0.154-0.206-1.04-0.182-1.265-0.396c0.604-0.079-0.135-0.31,0.007-0.518C444.783,438.539,444.5,438.539,444.269,438.496z"/>
		<path d="M446.594,437.225c0.006-0.169-0.467-0.338-0.176-0.471c0.381,0.019,0.518,0.116,0.422,0.221
			c0.862-0.067-0.135-0.188,0.441-0.37c-0.094,0.017-0.242,0.081-0.426,0.03c0.201-0.452-0.711-0.254-0.222-0.843
			c-0.231-0.083-0.229-0.169-0.803-0.154c0.726-0.336,0.721-0.167,1.357-0.569c-0.334,0.015-1.105,0.148-1.824,0.146
			c1.012-0.569-0.143-0.582,0.616-0.942c0.039,0.04,0.221,0.088,0.124,0.186c1.006-0.049-0.18-0.306,0.017-0.505l0.858,0.019
			c-0.137-0.184-0.698-0.505-0.069-0.74l0.432,0.054c-0.659-0.479-0.355-1.032-0.681-1.436l0.535-0.22
			c-0.653-0.557-0.304,0.554-1.578,0.146c1.576-0.06-0.518-0.287,0.111-0.604c0.625-0.152,0.327,0.321,1.047,0.154
			c-0.807-0.067-0.233-0.169-0.467-0.338c0.764,0.036,0.103-0.353,0.963-0.248l-1.417-0.595c0.435-0.098,0.36-0.27,0.252-0.396
			c-0.008,0.321-1.139-0.086-1.49,0.272c0.368,0.525,0.627,1.402,0.225,2.057c1.049,0.07-0.011,0.42,0.841,0.524l-0.953,0.081
			c0.225,0.424,0.574-0.1,0.953,0.004c0.141,0.188-0.488,0.334-0.869,0.317c-0.056,0.306,0.287,0.032,0.856,0.19l-1.154,0.197
			c0.353,0.944,1.13,2.194,0.475,3.269l0.723-0.083c-0.4,0.486,1.601,0.816,0.056,1.248l0.619,0.144
			c-0.355-0.077-1.085,0.085-1.575-0.043c0.242,0.135-0.03,0.276,0.195,0.413l0.343-0.242c0.61,0.169,0.231,0.356-0.306,0.413
			c0.734,0.364,1.252-0.216,1.86-0.295c-1.336-0.514,1.3-0.518,0.745-1.01C447.223,436.908,446.974,437.244,446.594,437.225z"/>
		<path d="M444.616,437.856l0.193,0.075L444.616,437.856z"/>
		<path d="M446.103,429.754l-0.038-0.143C445.881,429.562,446.009,429.637,446.103,429.754z"/>
		<polygon points="445.037,438.514 445.042,438.514 445.037,438.512 		"/>
		<polygon points="446.801,438.76 446.829,438.625 446.497,438.649 		"/>
		<path d="M447.009,428.318l-0.377-0.004L447.009,428.318z"/>
		<path d="M447.24,424.425l-0.023,0.086C447.281,424.484,447.268,424.454,447.24,424.425z"/>
		<path d="M446.454,415.092c-0.233-0.253-0.46-0.591-1.077-0.777l0.383,0.015c-0.188-0.135-0.796-0.574-1.473-0.289l0.332,0.07
			c0.565,0.321-0.627,0.233-0.871,0.484c0.178,0.302,1.605,0.477,1.265,0.745c0.045,0.118-0.338,0.1-0.625,0.066
			c-0.103,0.267,0.995,0.371,1.132,0.561c-2.866,0.073,0.786,0.828-1.041,1.226c0.231,0.251-0.019,0.591,0.548,0.91
			c-0.717-0.171-0.062,0.302-0.869,0.231c1.668,0.092-0.747,0.925,1.357,0.983c-0.587,0.434,0.143,0.019-0.353,0.52
			c-0.234,0-0.234-0.086-0.282-0.118c-0.433,0.199,0.901,0.306-0.06,0.471c-0.16,0.404,0.569,0.071,1.133,0.31
			c-0.25,0.42-0.533,0.302-1.398,0.531c0.998,0.04,0.518,0.285,1.036,0.494c0.049-0.054,0.248-0.338,0.625-0.148
			c-0.158,0.486,0.659,0.389,0.929,0.845c-1.103,0.229-0.032-0.456-0.908-0.054c-0.51-0.285-0.46-0.507-1.269-0.661
			c-0.06,0.387,0.118,0.858,0.582,1.28c-0.15,0.237-0.52-0.116-0.623,0.068c-0.488,0.42,1.128,0.644,0.64,0.978l-0.572-0.07
			c0.758,0.207-0.165,0.74,0.253,1.132c0.289-0.052,0.48-0.084,0.672-0.03c-1.438-0.007,0.745,0.54-0.268,0.923
			c0.908-0.03,1.424,0.342,1.516,0.576c-0.252,0.082-0.627,0.067-0.865,0.064c0.533-0.383-0.993-0.372-1.413-0.68
			c0.469,0.257-0.022,0.676,0.64,0.897l-0.713-0.086c-0.107,0.353,1.614,0.308,0.935,0.676l-0.522-0.036
			c0.071,0.743-0.865,1.614,0.308,2.207c0.435,0.052,1.449-0.248,1.781-0.261c-0.37-0.357-1.128-0.559-1.505-0.831l0.82,0.002
			c-0.565-0.058-0.893-0.385-1.336-0.205c-0.42-0.221,0.721-0.169,0.248-0.424c0.862,0.023,0.953,0.173,1.669,0.176l-0.424-0.221
			c0.332,0.069,0.293-0.133,0.627-0.062c-1.04-0.411,0.396-0.572-0.068-0.995l-0.146,0.236c-0.48-0.004-0.433-0.137-0.569-0.238
			c0.666-0.116,0.578-0.186,0.869-0.402c-0.373-0.189-1.227-0.293-1.222-0.546c0.903,0.054,0.488-0.419,1.254-0.464
			c-0.901-0.054-0.321-0.492-0.845-0.527c-0.184-0.135-0.082-0.321,0.394-0.321l0.158,0.103l0.032-0.131
			c0.103,0.011,0.182,0.006,0.199,0.022c0.022-0.12-0.636-0.124-0.19-0.278c0.238,0,0.238,0.084,0.33,0.154
			c0.154-0.321-1.372-0.561-0.55-0.828c-0.428-0.054-0.462-0.422-1.421-0.343c0.336-0.1,1.096-0.062,0.967-0.332
			c-0.813-0.154,0.295-0.298-0.224-0.507c0.847,0.272,0.237,0.002,1.044,0.24c0.338-0.184-0.751-0.456-0.597-0.777l0.619-0.066
			c-0.283-0.118-0.946-0.254-0.274-0.372l-0.571,0.015c0.289-0.218,0.107-0.52,0.739-0.754l-1.09-0.274
			c1.154-0.364,0.12-0.858-0.878-1.147c0.054-0.137,0.25-0.336,0.494-0.336c0.082,0.032,0.249,0.083,0.398,0.145
			c0.037-0.197,0.662-0.437-0.25-0.55c-0.274-0.203,0.627-0.146,0.775-0.298c-1.28-0.411,0.948-1.211-1.01-1.334
			c-0.004,0.167-0.396,0.486-0.311,0.807c-0.236-0.086-0.616-0.019-0.662-0.139c-0.086-0.319,0.632-0.486,0.308-0.805l1.244,0.039
			C447.619,416.023,444.675,415.524,446.454,415.092z"/>
		<path d="M446.424,419.203l0.633-0.233l-0.541,0.024C446.608,419.066,446.608,419.139,446.424,419.203z"/>
		<path d="M446.516,418.994l-0.248-0.137c-0.013,0.052,0.011,0.099,0.116,0.143L446.516,418.994z"/>
		<path d="M446.24,414.165c0.053-0.051,0.154-0.15,0.015-0.253C446.103,413.981,446.052,414.115,446.24,414.165z"/>
		<polygon points="445.87,413.897 445.673,414.009 445.819,414.028 		"/>
		<path d="M444.785,407.086l-0.754-0.374c0.383-0.066-0.079-0.486,0.582-0.351c-0.899-0.225-0.024-0.707-1.323-0.527
			c0.449,1.094-0.315,2.609,0.841,3.879l-0.516-0.203c1.029,0.659-1.13,0.901,0.91,1.43l-1.051-0.069
			c-0.297,0.302,1.513,0.578,0.405,0.893l0.426-0.032c0,0.084-0.191,0.118-0.193,0.203l0.191-0.034
			c0.426,0.218,0.372,0.355,0.079,0.573c-0.332,0.013-0.139-0.1-0.231-0.171c-0.342,0.103,0.374,0.274,0.366,0.441
			c-0.293,0.135-0.48,0-0.625-0.019c0.467,0.509-0.636,0.739,0.927,1.098c0.287,0.032,0.531-0.133,0.672,0.055
			c0.486-0.338-0.133-0.608-0.554-0.912v0.081c-1.522-0.24,0.342-0.18-0.313-0.57c0.616,0.103,0.61,0.272,0.942,0.338
			c1.16-0.45-0.886-0.642,0.601-0.938l0.049,0.032c0.146-0.066-0.137-0.186-0.274-0.285c-0.197,0.032-0.297,0.131-0.443,0.199
			c-0.141-0.103-0.807-0.154-1.09-0.19c0.672-0.113-0.327-0.154,0.013-0.336c0.617-0.064,0.565,0.154,0.899,0.223l-0.424-0.221
			c-0.039-0.203,0.676-0.199,1.015-0.3c-0.475-0.169-0.34,0.101-1.004-0.037c0.771-0.216,0.559-1.141-0.045-1.584
			c0.088,0.154,0.663,0.054,0.563,0.24c0.143-0.068-0.184-0.306-0.661-0.306c-0.422-0.304-0.122-0.692,0.315-0.976l-0.479,0.081
			c-0.807-0.238,0.591-0.604,0.128-1.027l-0.013,0.009c-0.103-0.135-1.265-0.252-1.027-0.503
			C444.262,406.966,444.211,407.101,444.785,407.086z"/>
		<path d="M443.682,405.6l0.666,0.135c0.148-0.15-0.704-0.338-1.135-0.304c0.137,0.099-0.154,0.236,0.229,0.253
			C443.539,405.667,443.774,405.669,443.682,405.6z"/>
		<path d="M443.575,402.768c-0.152-0.052-0.403-0.039-0.589-0.064c0.084,0.602,0.351,1.338-0.171,1.578
			c-0.199,0.203,0.805,0.238,1.038,0.492l-0.676,0.116c0.428,0.135-0.3,0.556,0.801,0.407c0.098-0.015-0.524-0.122-0.328-0.235
			l0.381,0.017l-0.13-0.268l0.475,0.084c0.676-0.37-1.43-0.257-0.985-0.713l0.957,0.002c0.054-0.302-0.272-0.452,0.312-0.717
			c0,0-0.484-0.006-0.289,0.047c-0.056,0.047-0.441,0.115-0.725,0.079c-0.745-0.458,0.573,0.071,0.965-0.248
			c-0.657-0.39-1.207-1.133-0.437-1.349c-0.578,0.186-1.192-0.088-1.137-0.308c0.338-0.1,0.569,0.071,0.856,0.109
			c0.099-0.105,0.343-0.186,0.203-0.289c-0.529,0.133-1.246,0.045-1.571-0.189C441.931,401.837,443.687,402.248,443.575,402.768z"/>
		<path d="M442.768,402.614c0.034,0.055,0.118,0.079,0.218,0.09l-0.021-0.204L442.768,402.614z"/>
	</g>
	<g>
		<polygon points="445.326,270.922 445.536,270.86 444.95,270.841 		"/>
		<path d="M447.439,270.625l-0.246-0.107c-1.695,0.062-1.201-0.022-2.419,0.145c0.264,0.06,0.854,0.191,1.518,0.176
			c-0.071-0.047-0.721-0.105-0.512-0.171c0.494,0.028,0.428,0.094,1.07,0.128c0.522-0.103-0.417-0.066-0.18-0.178L447.439,270.625z"
			/>
		<path d="M445.75,270.496l0.822,0.019C446.279,270.507,445.919,270.452,445.75,270.496z"/>
		<path d="M445.574,270.432c0.066-0.068,0.627,0.002,0.719-0.004l-1.096-0.079L445.574,270.432z"/>
		<path d="M445.645,270.15l-0.101-0.034C445.371,270.126,445.513,270.137,445.645,270.15z"/>
		<path d="M445.513,270.008c-0.373,0.03-0.15,0.064,0.03,0.109l0.072-0.006c0.315-0.039,1.098,0,0.889,0.064
			c0.176,0.066-0.593,0.056-0.086,0.113l0.632-0.077C446.953,270.107,445.825,270.051,445.513,270.008z"/>
		<path d="M445.645,270.15l0.051,0.036C445.825,270.169,445.75,270.158,445.645,270.15z"/>
		<polygon points="445.553,270.291 445.716,270.325 446.047,270.315 		"/>
		<path d="M445.457,269.775c1.059,0.019-0.118,0.167,0.71,0.188c-0.045-0.094,0.736-0.165,1.317-0.15l-0.332-0.098
			C446.754,269.681,445.958,269.724,445.457,269.775z"/>
		<path d="M448.147,269.578l-0.189-0.024L448.147,269.578z"/>
		<path d="M446.319,269.066l1.07,0.235c-0.345-0.021-0.677-0.011-0.801-0.066c-0.141,0.105,0.539,0.116,0.432,0.206
			c-0.989,0.024-0.071-0.154-0.953-0.103c0.026,0.06,0.068,0.152,0.905,0.197l-0.668,0.103l1.087-0.038
			c0.31-0.036-0.854-0.079-0.101-0.103c0.465-0.011,0.557,0.026,0.668,0.056c-0.22-0.062,0.847-0.173,0.702-0.298
			C448.548,269.12,446.835,269.152,446.319,269.066z"/>
		<polygon points="447.508,269.052 447.935,269.041 447.364,269.049 		"/>
		<path d="M446.095,268.795l0.679,0.124c-0.092,0.013-0.321,0.019-0.518,0.028c0.248-0.004,0.674,0.03,0.88,0.024
			c0.98-0.058-0.312-0.152-0.484-0.218c0.441-0.174,0.529,0.009,1.452-0.06c-0.024,0.047-0.261,0.051-0.327,0.12
			c1.107-0.109,0.092-0.242-0.184-0.31c-0.096,0.017-0.402,0.024-0.313,0.058l-0.323-0.069
			C446.182,268.568,445.971,268.63,446.095,268.795z"/>
		<path d="M446.103,269.017c-0.073-0.045,0-0.064,0.137-0.067C445.977,268.962,445.784,268.977,446.103,269.017z"/>
		<path d="M447.569,268.463c-0.06,0.009-0.036,0.023,0.026,0.041C447.638,268.493,447.647,268.482,447.569,268.463z"/>
		<path d="M446.405,268.536l0.099-0.086l-0.462,0.032C446.095,268.493,446.167,268.54,446.405,268.536z"/>
		<path d="M447.908,265.224c-0.407,0.009-0.599,0.041-0.52,0.107c-0.533-0.006-0.43-0.096-0.736-0.133
			c-0.347,0.086-0.623-0.002-1.139,0.021c-0.051,0.098,0.64,0.143,0.503,0.244c-0.154-0.002-0.39-0.002-0.574,0.013
			c0.338,0.128,0.831,0.342,0.377,0.465c-0.203,0.12,0.051,0.21,0.287,0.34c-0.276,0.432,0.272,0.882-0.227,1.346l1.036,0.066
			c-0.512,0.024,0,0.111-0.67,0.094c0.13-0.024,0.022-0.047,0.009-0.077c-0.91,0.099,0.075,0.263-0.252,0.379
			c0.186-0.011,1.085-0.028,1.244,0.004c-1.152-0.009,0.021,0.143-1.305,0.178c-0.327,0.118,1.01,0.004,0.824,0.126
			c0.679,0.013,0.328-0.116,0.844-0.137c0.548,0.036-0.229,0.109,0.482,0.105c0.336-0.199-1.081-0.567-1.462-0.873l0.636,0.03
			c-0.458-0.154-0.48-0.407,0.565-0.531c-0.612,0.03,0.321-0.227-1.058-0.204c0.317-0.041,0.265-0.052,0.383-0.109l-0.437-0.013
			c0.009-0.081,0.683-0.067,0.644-0.16c-0.597,0.06-0.769-0.007-1.263-0.034c0.661-0.107,1.244-0.227,1.783-0.319
			c-0.188,0.008-0.409,0.013-0.666,0.045c0.21-0.062-0.358-0.053-0.559-0.068c-0.026-0.062,0.738-0.054,1.12-0.051
			c0.24-0.113-1.222-0.165-0.734-0.248l-0.61,0.028c-0.148-0.113,0.524-0.21,0.321-0.336c0.833-0.066,0.719,0.105,1.083,0.156
			c0.174-0.026,0.218-0.081,0.497-0.099c-0.426-0.054-1.014-0.146-1.413-0.212C447.897,265.43,447.844,265.267,447.908,265.224z"/>
		<path d="M448.336,265.579l0.334,0.039c-0.056-0.015-0.111-0.024-0.068-0.045L448.336,265.579z"/>
		<path d="M447.908,265.224l0.092-0.002C447.946,265.209,447.921,265.212,447.908,265.224z"/>
		<polygon points="445.765,265.956 445.819,265.941 445.844,265.92 		"/>
		<path d="M448.537,266.053l-0.653,0.098C448.16,266.14,448.376,266.132,448.537,266.053z"/>
		<path d="M447.852,266.832c0.105,0.024,0.295,0.009,0.488,0.024C448.366,266.808,448.171,266.793,447.852,266.832z"/>
		<polygon points="448.494,265.44 448.3,265.344 448.141,265.306 		"/>
		<path d="M445.315,263.475c-0.728,0.088-0.283,0.212-0.426,0.317c0.377,0.193,1.591,0.024,1.682,0.21l-1.503-0.036
			c0.092,0.186-0.221,0.447,1.098,0.601c-0.186,0.015-0.413,0.047-0.629,0c0.066,0.124,2.141,0.064,1.644,0.225
			c-0.931-0.15-0.886,0.052-1.817,0.006l-0.109-0.021c0.097,0.103,0.595,0.24,0.529,0.31c0.383,0.002,0.978-0.058,1.023,0.036
			c0.079-0.041,0.514-0.024,0.903-0.019c-0.428-0.098-0.167-0.148-0.672-0.206c0.501-0.053,0.163,0.037,0.661-0.017l-0.467-0.077
			c0.122-0.056,0.51,0.06,0.614-0.03c-0.297-0.008-0.614-0.077-0.552-0.148l0.173,0.022c-0.197-0.054,0.055-0.128-0.784-0.103
			l0.832-0.06l-0.571,0.009c0.225-0.141,1.588-0.197,0.875-0.381c-0.169,0.045-0.477,0.002-0.586-0.019
			c-0.391,0.075,0.432,0.094,0.51,0.167c-0.569,0.011-1.248-0.116-1.588-0.024c0.672-0.098-0.088-0.184,1.331-0.223
			c0.085-0.118-0.61-0.163-0.274-0.282l0.207,0.004c-0.937-0.022,0.428-0.098-0.537-0.184l-0.208,0.06
			c-0.385-0.004-0.398-0.034-0.469-0.077c0.148,0.006,0.148,0.006,0.336-0.008c-0.681-0.013-0.788-0.146-0.991-0.165
			c-0.116,0.06,0.445,0.128,0.619,0.195C445.769,263.522,445.196,263.533,445.315,263.475z"/>
		<path d="M447.796,264.685l-0.33-0.037C447.525,264.661,447.619,264.674,447.796,264.685z"/>
		<path d="M446.504,262.947c0.152-0.077,0.58,0.019,0.884-0.052c-0.473-0.075-0.966,0.088-1.672,0.011
			c0.411-0.043-0.297-0.116-0.31-0.15c0.4,0.038,1.3,0.015,1.484,0.004c-0.253-0.032,0.193-0.096,0.221-0.143
			c-0.565,0.118-0.338-0.101-0.953,0.006c-0.531-0.007-0.923-0.124-0.514-0.167c0.388,0.002,0.308,0.041,0.323,0.069
			c0.728,0.024,0.394-0.077,1.06-0.092c-1.012-0.115-0.946-0.482-2.575-0.381c-0.317,0.039,0.082,0.071,0.148,0.118
			c0.327-0.122,0.865,0,1.154,0.009c-0.259,0.051,0.261,0.139-0.325,0.116l-0.612-0.081c-0.308,0.259-0.195,0.616,0.045,0.916
			l0.032-0.131c0.443,0.017,0.469,0.077,0.681,0.126l1.075-0.066c-0.081,0.038,0.079,0.073-0.304,0.071
			c0.452,0.045,0.732,0.023,1.098-0.004c0.191,0.098-0.229,0.113,0.473,0.186c0.882-0.16-0.732-0.135,0.043-0.319L446.504,262.947z"
			/>
		<polygon points="447.094,263.298 446.551,263.257 446.818,263.319 		"/>
		<path d="M444.725,263.233c0.236,0,0.342,0.024,0.578,0.022C445.463,263.178,445.134,263.189,444.725,263.233z"/>
		<path d="M447.075,262.334l-0.19-0.098l-0.208,0.064C446.915,262.3,447.019,262.321,447.075,262.334z"/>
		<path d="M444.269,261.656c0.107,0.133,0.614,0.189,0.064,0.341c0.704,0.075,1.323-0.034,1.961,0
			c0.154-0.079-1.04-0.069-1.265-0.145c0.604-0.032-0.135-0.116,0.007-0.188C444.783,261.673,444.5,261.673,444.269,261.656z"/>
		<path d="M446.594,261.194c0.006-0.062-0.467-0.124-0.176-0.173c0.381,0.009,0.518,0.047,0.422,0.081
			c0.862-0.022-0.135-0.066,0.441-0.135c-0.094,0.006-0.242,0.03-0.426,0.011c0.201-0.161-0.711-0.094-0.222-0.304
			c-0.231-0.034-0.229-0.062-0.803-0.056c0.726-0.122,0.721-0.062,1.357-0.206c-0.334,0.006-1.105,0.054-1.824,0.051
			c1.012-0.205-0.143-0.207,0.616-0.342c0.039,0.017,0.221,0.03,0.124,0.068c1.006-0.017-0.18-0.109,0.017-0.182l0.858,0.006
			c-0.137-0.066-0.698-0.184-0.069-0.268l0.432,0.019c-0.659-0.173-0.355-0.375-0.681-0.524l0.535-0.079
			c-0.653-0.203-0.304,0.203-1.578,0.054c1.576-0.021-0.518-0.105,0.111-0.219c0.625-0.056,0.327,0.116,1.047,0.056
			c-0.807-0.026-0.233-0.064-0.467-0.124c0.764,0.017,0.103-0.129,0.963-0.09l-1.417-0.214c0.435-0.036,0.36-0.099,0.252-0.146
			c-0.008,0.118-1.139-0.032-1.49,0.099c0.368,0.191,0.627,0.509,0.225,0.749c1.049,0.026-0.011,0.154,0.841,0.188l-0.953,0.03
			c0.225,0.154,0.574-0.036,0.953,0c0.141,0.071-0.488,0.124-0.869,0.118c-0.056,0.109,0.287,0.013,0.856,0.067l-1.154,0.073
			c0.353,0.343,1.13,0.798,0.475,1.19l0.723-0.032c-0.4,0.176,1.601,0.296,0.056,0.454l0.619,0.056
			c-0.355-0.032-1.085,0.026-1.575-0.019c0.242,0.049-0.03,0.1,0.195,0.15l0.343-0.09c0.61,0.064,0.231,0.129-0.306,0.15
			c0.734,0.133,1.252-0.079,1.86-0.107c-1.336-0.184,1.3-0.189,0.745-0.362C447.223,261.08,446.974,261.2,446.594,261.194z"/>
		<path d="M444.616,261.423l0.193,0.028L444.616,261.423z"/>
		<path d="M446.103,258.477l-0.038-0.055C445.881,258.409,446.009,258.436,446.103,258.477z"/>
		<polygon points="445.037,261.665 445.042,261.662 445.037,261.662 		"/>
		<polygon points="446.801,261.754 446.829,261.705 446.497,261.711 		"/>
		<path d="M447.009,257.955h-0.377H447.009z"/>
		<path d="M447.24,256.542l-0.023,0.03C447.281,256.561,447.268,256.549,447.24,256.542z"/>
		<path d="M446.454,253.147c-0.233-0.092-0.46-0.214-1.077-0.283l0.383,0.006c-0.188-0.047-0.796-0.208-1.473-0.105l0.332,0.024
			c0.565,0.118-0.627,0.088-0.871,0.178c0.178,0.109,1.605,0.173,1.265,0.268c0.045,0.043-0.338,0.036-0.625,0.024
			c-0.103,0.098,0.995,0.135,1.132,0.206c-2.866,0.023,0.786,0.298-1.041,0.445c0.231,0.092-0.019,0.212,0.548,0.332
			c-0.717-0.066-0.062,0.107-0.869,0.083c1.668,0.03-0.747,0.336,1.357,0.356c-0.587,0.158,0.143,0.006-0.353,0.19
			c-0.234,0-0.234-0.032-0.282-0.043c-0.433,0.073,0.901,0.111-0.06,0.173c-0.16,0.143,0.569,0.024,1.133,0.111
			c-0.25,0.154-0.533,0.109-1.398,0.193c0.998,0.015,0.518,0.105,1.036,0.182c0.049-0.019,0.248-0.124,0.625-0.054
			c-0.158,0.174,0.659,0.137,0.929,0.304c-1.103,0.084-0.032-0.167-0.908-0.019c-0.51-0.105-0.46-0.182-1.269-0.24
			c-0.06,0.141,0.118,0.313,0.582,0.465c-0.15,0.086-0.52-0.043-0.623,0.024c-0.488,0.154,1.128,0.235,0.64,0.357l-0.572-0.024
			c0.758,0.071-0.165,0.268,0.253,0.409c0.289-0.017,0.48-0.03,0.672-0.011c-1.438-0.002,0.745,0.197-0.268,0.336
			c0.908-0.011,1.424,0.126,1.516,0.21c-0.252,0.032-0.627,0.024-0.865,0.022c0.533-0.139-0.993-0.133-1.413-0.244
			c0.469,0.092-0.022,0.244,0.64,0.327l-0.713-0.036c-0.107,0.13,1.614,0.115,0.935,0.25l-0.522-0.017
			c0.071,0.272-0.865,0.591,0.308,0.805c0.435,0.019,1.449-0.09,1.781-0.096c-0.37-0.13-1.128-0.204-1.505-0.3h0.82
			c-0.565-0.021-0.893-0.143-1.336-0.075c-0.42-0.081,0.721-0.062,0.248-0.156c0.862,0.011,0.953,0.064,1.669,0.064l-0.424-0.077
			c0.332,0.024,0.293-0.049,0.627-0.024c-1.04-0.148,0.396-0.208-0.068-0.362l-0.146,0.086c-0.48,0-0.433-0.051-0.569-0.086
			c0.666-0.043,0.578-0.067,0.869-0.146c-0.373-0.07-1.227-0.105-1.222-0.199c0.903,0.021,0.488-0.152,1.254-0.169
			c-0.901-0.017-0.321-0.178-0.845-0.19c-0.184-0.049-0.082-0.116,0.394-0.116l0.158,0.037l0.032-0.049
			c0.103,0.002,0.182,0.002,0.199,0.006c0.022-0.043-0.636-0.043-0.19-0.1c0.238,0,0.238,0.032,0.33,0.056
			c0.154-0.116-1.372-0.204-0.55-0.302c-0.428-0.017-0.462-0.154-1.421-0.124c0.336-0.036,1.096-0.022,0.967-0.12
			c-0.813-0.058,0.295-0.113-0.224-0.186c0.847,0.101,0.237,0,1.044,0.09c0.338-0.067-0.751-0.167-0.597-0.283l0.619-0.024
			c-0.283-0.043-0.946-0.092-0.274-0.135l-0.571,0.006c0.289-0.081,0.107-0.19,0.739-0.274l-1.09-0.101
			c1.154-0.13,0.12-0.313-0.878-0.419c0.054-0.049,0.25-0.122,0.494-0.122c0.082,0.013,0.249,0.032,0.398,0.056
			c0.037-0.073,0.662-0.161-0.25-0.203c-0.274-0.071,0.627-0.051,0.775-0.109c-1.28-0.148,0.948-0.437-1.01-0.484
			c-0.004,0.062-0.396,0.176-0.311,0.295c-0.236-0.03-0.616-0.011-0.662-0.053c-0.086-0.114,0.632-0.174,0.308-0.293l1.244,0.015
			C447.619,253.483,444.675,253.303,446.454,253.147z"/>
		<path d="M446.424,254.639l0.633-0.083l-0.541,0.009C446.608,254.594,446.608,254.616,446.424,254.639z"/>
		<path d="M446.516,254.566l-0.248-0.049c-0.013,0.017,0.011,0.036,0.116,0.053L446.516,254.566z"/>
		<path d="M446.24,252.809c0.053-0.019,0.154-0.054,0.015-0.094C446.103,252.742,446.052,252.79,446.24,252.809z"/>
		<polygon points="445.87,252.712 445.673,252.755 445.819,252.758 		"/>
		<path d="M444.785,250.234l-0.754-0.135c0.383-0.024-0.079-0.178,0.582-0.126c-0.899-0.083-0.024-0.257-1.323-0.195
			c0.449,0.4-0.315,0.95,0.841,1.411l-0.516-0.073c1.029,0.24-1.13,0.327,0.91,0.522l-1.051-0.024
			c-0.297,0.109,1.513,0.208,0.405,0.323l0.426-0.013c0,0.03-0.191,0.043-0.193,0.073l0.191-0.007
			c0.426,0.077,0.372,0.126,0.079,0.204c-0.332,0.006-0.139-0.037-0.231-0.062c-0.342,0.037,0.374,0.1,0.366,0.161
			c-0.293,0.049-0.48,0-0.625-0.008c0.467,0.186-0.636,0.267,0.927,0.4c0.287,0.013,0.531-0.049,0.672,0.019
			c0.486-0.122-0.133-0.222-0.554-0.332v0.032c-1.522-0.088,0.342-0.066-0.313-0.206c0.616,0.034,0.61,0.096,0.942,0.12
			c1.16-0.163-0.886-0.235,0.601-0.342l0.049,0.013c0.146-0.024-0.137-0.068-0.274-0.103c-0.197,0.011-0.297,0.047-0.443,0.071
			c-0.141-0.039-0.807-0.056-1.09-0.068c0.672-0.043-0.327-0.054,0.013-0.126c0.617-0.024,0.565,0.058,0.899,0.083l-0.424-0.079
			c-0.039-0.073,0.676-0.073,1.015-0.109c-0.475-0.064-0.34,0.036-1.004-0.015c0.771-0.079,0.559-0.419-0.045-0.574
			c0.088,0.052,0.663,0.019,0.563,0.084c0.143-0.024-0.184-0.109-0.661-0.113c-0.422-0.107-0.122-0.251,0.315-0.353l-0.479,0.03
			c-0.807-0.086,0.591-0.219,0.128-0.373l-0.013,0.006c-0.103-0.051-1.265-0.094-1.027-0.184
			C444.262,250.191,444.211,250.238,444.785,250.234z"/>
		<path d="M443.682,249.694l0.666,0.053c0.148-0.058-0.704-0.128-1.135-0.111c0.137,0.036-0.154,0.082,0.229,0.088
			C443.539,249.718,443.774,249.718,443.682,249.694z"/>
		<path d="M443.575,248.663c-0.152-0.019-0.403-0.013-0.589-0.021c0.084,0.218,0.351,0.488-0.171,0.574
			c-0.199,0.073,0.805,0.084,1.038,0.178l-0.676,0.043c0.428,0.049-0.3,0.199,0.801,0.148c0.098-0.008-0.524-0.047-0.328-0.088
			l0.381,0.006l-0.13-0.096l0.475,0.03c0.676-0.135-1.43-0.094-0.985-0.257h0.957c0.054-0.111-0.272-0.167,0.312-0.265
			c0,0-0.484,0-0.289,0.019c-0.056,0.019-0.441,0.043-0.725,0.03c-0.745-0.169,0.573,0.024,0.965-0.088
			c-0.657-0.145-1.207-0.417-0.437-0.492c-0.578,0.067-1.192-0.032-1.137-0.115c0.338-0.034,0.569,0.028,0.856,0.039
			c0.099-0.036,0.343-0.066,0.203-0.103c-0.529,0.049-1.246,0.017-1.571-0.069C441.931,248.325,443.687,248.477,443.575,248.663z"/>
		<path d="M442.768,248.609c0.034,0.019,0.118,0.028,0.218,0.034l-0.021-0.075L442.768,248.609z"/>
	</g>
</g>
</svg>
