<?xml version="1.0" encoding="utf-8"?>
<!-- Generator: Adobe Illustrator 17.0.0, SVG Export Plug-In . SVG Version: 6.00 Build 0)  -->
<!DOCTYPE svg PUBLIC "-//W3C//DTD SVG 1.1//EN" "http://www.w3.org/Graphics/SVG/1.1/DTD/svg11.dtd">
<svg version="1.1" id="Layer_1" xmlns="http://www.w3.org/2000/svg" xmlns:xlink="http://www.w3.org/1999/xlink" x="0px" y="0px"
	 width="800px" height="600px" viewBox="0 0 800 600" enable-background="new 0 0 800 600" xml:space="preserve">
<g>
	<g>
		<path fill="#CBAA45" d="M558.591,449.466c-14.864,5.132-13.229,24.257-13.142,25.945c4.814,1.353,30.637,5.972,51.077-2.974
			C592.498,468.406,579.034,456.674,558.591,449.466z"/>
		<path fill="#B6923F" d="M541.5,470.998c-1.291-0.357-5.026-0.698-5.87-0.658c0,0-0.05,7.15,0.392,7.546c0,0,4.337,0.63,5.63,0.991
			C541.161,477.628,541.52,471.423,541.5,470.998z"/>
		<path fill="#CBAA45" d="M553.475,448.512c-0.868-0.375-7.386-3.016-8.234-2.971c-3.819,2.015-7.375,8.772-8.313,15.18
			c-0.674,3.426-1.107,7.643-1.398,10.203c0,0,3.51,0.845,5.037,0.636C540.352,459.271,546.861,451.827,553.475,448.512z"/>
		<path fill="#B6923F" d="M560.011,450.867c-1.314-0.774-5.136-2.62-6.433-2.872c-11.468,3.866-13.539,19.883-11.251,31.553
			c0,0,22.267,1.666,31.992,1.163c10.576-0.55,20.667-2.035,23.308-5.508c-0.85-1.56-2.951-3.551-4.263-4.331
			c-12.213,4.419-38.294,4.617-46.364,2.345C545.07,459.463,557.495,451.421,560.011,450.867z"/>
		<path fill="#83755C" d="M482.84,440.381c-5.996,1.851-13.988,2.262-21.258,0.59c-1.202,1.337-6.028,7.424-9.195,11.827
			c4.673,3.541,13.811,5.437,23.148,4.955c-1.358-1.47-3.616-4.173-2.764-5.051c2.529,3.009,6.816,5.287,9.933,7.308
			c3.121,2.017,6.027,3.661,13.114,6.82c7.088,3.156,10.781,5.08,19.49,7.385c8.713,2.308,14.778,3.025,20.343,4.013
			c-0.154-2.966-0.087-12.758,1.233-18.214c1.321-5.454,4.306-12.145,8.028-14.522c-6.68-2.731-12.209-4.238-17.069-5.205
			c-4.857-0.962-8.577-1.893-19.135-3.046c-11.155-1.215-25.136-1.774-25.393-0.028C483.129,438.508,482.93,439.671,482.84,440.381z
			"/>
		<path fill="#686155" d="M463.041,440.639c-0.563,0.385-2.682,3.139-3.062,4.007c1.064,0.715,4.905,1.864,11.028,1.224
			c6.122-0.641,12.661-1.879,12.618-5.207C481.531,441.088,463.605,440.256,463.041,440.639z"/>
		<path fill="#796A56" d="M464.228,457.312c4.376,0.746,9.643,0.398,11.874,0.281c-3.045-1.541-5.652-7.316-4.802-7.362
			c0,0-1.074-0.86-4.451-0.488c-3.382,0.366-13.053,4.262-13.053,4.262C454.045,454.233,458.653,456.364,464.228,457.312z"/>
		<path fill="#796A56" d="M493.036,465.115c10.211,5.242,28.459,12.005,42.97,13.799c-0.067-1.271-0.857-7.126-0.477-7.99
			c-5.566-0.99-33.341-6.161-36.282-8.441c-2.941-2.28-6.305-6.596-12.586-9.026c-6.282-2.429-13.632-1.961-13.609-1.536
			C477.899,456.348,482.828,459.876,493.036,465.115z"/>
		<path fill="#B6923F" d="M239.564,459.455c0.452,0.747,11.531,8.315,29.081,12.129c17.554,3.811,27.185,4.016,36.614,2.582
			c-1.054-15.763-6.971-26.808-15.445-34.851c0,0-3.828,0.141-6.319,1.093c2.245,2.43,10.138,12.224,13.443,23.565
			c-19.477,0.587-39.004-3.167-49.003-9.26C247.11,455.183,241.621,458.169,239.564,459.455z"/>
		<path fill="#CBAA45" d="M251.939,452.263c-4.142,1.907-6.013,3.559-6.68,4.362c11.091,5.562,36.043,9.911,55.518,9.326
			c-1.603-7.759-6.813-18.294-14.786-26.32C279.835,440.423,261.025,447.549,251.939,452.263z"/>
		<path fill="#CBAA45" d="M299.847,438.146c-0.848,0.042-8.563,0.916-8.982,0.94c4.022,4.03,13.476,19.66,14.448,28.17
			c2.515-0.556,6.238-1.271,6.66-1.288C311.331,461.76,304.01,443.303,299.847,438.146z"/>
		<path fill="#B6923F" d="M295.198,438.447c-0.423,0.02-4.119,1.156-4.542,1.181c2.267,2.844,8.906,8.918,14.155,22.293
			C305.288,456.571,299.223,442.476,295.198,438.447z"/>
		<path fill="#B6923F" d="M311.361,465.466c-0.423,0.019-3.239,0.168-6.185,0.264c0.53,2.088,0.675,8.464,0.675,8.464
			s5.026,0.151,6.8-0.885C312.601,471.245,312.014,467.853,311.361,465.466z"/>
		<path fill="#83755C" d="M366.421,442.421c-8.591-2.098-18.592-4.47-27.39-5.662c-8.797-1.198-13.422-1.607-23.032-1.345
			c-9.61,0.264-14.801,1.363-17.337,1.493c1.8,2.026,4.464,6.5,7.777,12.169c6.027,10.31,5.427,19.257,5.427,19.257
			c2.009,1.194,5.451,1.543,11.819,0.272c6.369-1.275,33.31-17.848,34.692-18.507c1.385-0.667,8.002,5.191,14.085,7.473
			c6.079,2.282,16.169,4.706,16.591,4.686c-1.398-2.47-3.165-7.771-3.655-9.019C381.883,450.876,367.332,443.642,366.421,442.421z"
			/>
		<path fill="#686155" d="M369.155,445.109c0,0,13.511,9.445,17.025,11.807c-0.975-2.497-3.971-8.485-4.486-10.157
			C379.582,446.871,372.628,446.625,369.155,445.109z"/>
		<path fill="#796A56" d="M388.568,460.863c0,0-7.738-1.857-14.511-4.655c-6.772-2.796-11.77-8.264-14.837-8.133
			c-3.069,0.13-29.373,17.551-34.521,18.47c-5.148,0.912-11.754-0.161-13.338-1.079l0.393,9.834
			c20.169-2.639,33.481-6.576,48.584-16.981c-0.276,1.488-1.016,3.168-0.992,3.593C373.514,464.245,378.647,464.214,388.568,460.863
			z"/>
		<path d="M555.885,446.341c-25.314-9.144-53.272-11.665-70.948-10.733c-0.404,0.448-0.314,2.134-0.314,2.134
			c3.652-0.144,17.833,0.068,24.692,1.309c-4.687,4.082-5.407,10.92-5.407,12.301c-2.029,0.179-1.993,4.096,0.709,3.826
			c2.971-0.301,1.861-3.811,0.462-3.741c0.203-4.248,1.855-8.948,6.519-11.919c1.153,0.003,3.974,0.252,6.301,0.581
			c-3.771,1.481-7.479,6.184-7.977,12.034c-1.668,0.161-2.013,3.5,0.784,3.893c2.274,0.32,2.917-2.773,0.753-3.755
			c0.483-4.685,3.395-10.296,8.829-11.844c1.157,0.068,3.864,0.588,4.731,0.97c-5.919,2.319-8.755,9.545-8.645,11.659
			c-1.929,0.665-1.739,3.666,0.618,3.786c2.359,0.119,2.709-2.957,0.921-3.74c0.868-5.725,4.946-9.944,9.754-11.233
			c4,0.4,10.89,2.159,15.408,3.976c-7.686,7.519-9.58,20.438-8.488,31.287c-14.512-1.793-30.442-7.899-37.53-11.772
			c-7.085-3.866-22.532-13.126-25.758-15.13c-1.397,0.979-1.911,4.416,1.136,5.957c-5.074,0.264-11,0.165-17.79-3.417
			c1.738-3.71,3.66-6.348,5.179-8.076c1.611-1.839,2.768-2.654,2.768-2.654c-1.308-0.361-2.446-0.917-2.9-1.234
			c-2.051,1.382-10.255,12.059-12.047,19.049c4.588,3.317,17.466,6.525,29.917,5.556c0.859-2.091,0.77-3.812,0.653-6.068
			c5.673,3.099,16.826,10.129,29.809,15.041c13.568,5.132,75.922,14.02,92.807,2.874
			C600.504,470.913,581.202,455.487,555.885,446.341z M553.346,449.74c10.6,2.846,33.699,14.278,42.249,25.826
			c-12.268,5.765-38.85,3.747-51.886,2.18C539.55,464.305,546.839,451.553,553.346,449.74z M545.382,447.01
			c0.847-0.045,4.213,1.157,5.081,1.532c-6.611,3.312-12.621,16.171-9.489,29.105c-0.422,0.026-0.422,0.026,0,0
			c-1.691,0.09-2.984-0.269-3.83-0.229l0,0c-0.448-1.362-1.224-7.668,0.505-16.347C538.535,456.622,541.933,448.81,545.382,447.01z"
			/>
		<path fill="#CBAA45" d="M595.173,476.109L595.173,476.109L595.173,476.109z"/>
		<path fill="#CBAA45" d="M451.467,458.794c0.923,1.137,11.446,4.578,23.818,4.257c0.085-0.434,0.487-3.04-0.439-4.282
			c-3.748,0.408-15.093-0.19-21.543-4.056C452.382,455.623,451.819,457.269,451.467,458.794z"/>
		<path d="M386.96,460.598c-9.025,2.413-19.982,1.688-25.926-0.253c0.833-2.165,1.004-3.417,0.766-4.581
			c-4.12,2.336-7.023,4.557-15.855,8.435c-8.831,3.885-23.971,7.858-32.089,8.395c-2.043-17.778-10.566-31.794-12.365-33.821
			c4.19-0.871,10.592-1.499,16.166-1.024c2.625,1.564,6.332,7.169,6.081,13.697c-2.392,0.255-2.07,3.588,0.198,3.801
			c2.269,0.218,3.038-3.128,1.072-3.866c0.646-6.457-2.051-11.418-4.294-13.85c2.114-0.111,5.906,0.026,8.278,0.28
			c2.305,2.338,3.448,8.438,1.834,13.716c-2.004,0.049-3.02,3.229-0.516,3.687c2.502,0.46,2.697-2.617,1.592-3.448
			c1.621-4.038,1.289-10.397-0.487-13.906c2.014,0.131,4.03,0.323,6.112,0.738c2.221,4.027,1.27,11.068-0.35,12.423
			c-2.041-0.053-3.036,2.841-0.654,3.395c2.386,0.556,3.199-2.114,1.61-3.153c1.983-2.64,3.315-7.785,1.95-12.375
			c8.969,1.232,17.539,2.908,26.129,5.004c-0.469-0.824-1.38-2.044-1.465-3.736c-13.646-3.964-32.589-7.141-55.017-6.048
			c-22.434,1.088-56.82,11.787-73.432,24.986c2.937,4.217,16.021,10.623,26.729,13.37c10.709,2.748,25.75,5.926,44.154,4.552
			c18.407-1.368,37.298-6.951,50.266-15.24c-1.134,2.602-2.722,7.814-2.722,7.814c6.514,3.395,28.884,2.63,38.817-2.784
			c-2.422-5.812-9.633-19.767-10.124-21.019c-0.379,0.869-2.62,1.624-3.067,1.223C380.862,448.681,385.559,458.128,386.96,460.598z
			 M241.932,459.677c0,0,18.667-12.292,47.357-19c5.44,4.635,13.703,17.137,14.823,32.308c-3.138,0.516-23.749-0.039-33.206-2.515
			C263.606,468.728,250.604,465.2,241.932,459.677z M298.54,439.157c7.322,10.243,12.138,23.454,12.762,33.455
			c-1.152,0.295-2.742,0.318-3.989,0.21c-0.127-4.719-1.524-10.615-5.011-18.402c-3.49-7.78-7.058-11.594-9.325-14.441
			C294.368,439.489,296.831,439.186,298.54,439.157z"/>
		<path fill="#CBAA45" d="M387.456,462.223c-8.944,2.824-19.292,2.477-26.484,0.371c-0.803,0.888-1.746,3.653-2.104,4.95
			c13.003,2.63,24.397,0.385,29.996-2.091C388.579,464.524,387.984,463.317,387.456,462.223z"/>
		<path fill="#566595" d="M374.383,365.461c-2.403-1.002-12.454-6.913-17.992-12.65c0.643,4.207,0.998,15.564,0.37,19.839
			c1.359,1.624,12.48,11.039,14.24,12.227C370.955,384.03,373.303,367.277,374.383,365.461z"/>
		<path fill="#6979A4" d="M370.812,395.059c0.604-4.692,1.485-12.919,2.028-16.688c-1.297,0.071-12.326-3.334-16.684-7.478
			c0.086,1.691-0.273,18.811-0.249,22.498c0.019,3.69,1.151,9.646,1.772,13.425c1.78,1.603,14.208,8.914,14.208,8.914
			c-0.313-0.548-0.306-1.459-0.161-3.057c0.144-1.598-0.375-2.88-1.151-4.712c-0.777-1.831,1.05-2.721-0.486-4.97
			C368.551,400.741,370.65,400.156,370.812,395.059z"/>
		<path fill="#566595" d="M371.101,413.401c-3.676-1.876-9.807-4.529-13.778-10.214c0.598,3.363,4.385,23.788,4.919,25.883
			c0,0,14.366,6.817,18.373,10.428C378.592,433.243,370.915,414.718,371.101,413.401z"/>
		<path fill="#6979A4" d="M383.019,447.03c-0.534-2.094-3.726-8.543-4.658-10.185c-4.005-3.61-12.222-7.422-15.964-8.691
			c0.564,3.147,2.246,9.948,4.155,14.086C370.397,446.426,376.449,447.573,383.019,447.03z"/>
		<path fill="#566595" d="M386.653,322.505c-0.046,0.723-0.191,2.498-0.171,2.977c-0.42,0.022-11.507-1.627-30.354-5.321
			c0.065,1.266-1.698,7.518-1.608,9.209c14.981,7.405,49.183,11.292,73.917,10.138c-0.042-0.851-0.113-11.471-0.113-11.471
			C407.071,327.025,391.436,324.805,386.653,322.505z"/>
		<path fill="#6979A4" d="M365.785,361.584c3.14,1.686,9.77,3.777,19.779,8.772c11.707,4.905,24.38,7.269,36.289,7.919
			c4.951-10.856,6.51-29.63,6.194-41.91c-6.274-0.253-20.165-0.736-36.737-3.196c-16.572-2.464-32.203-7.359-36.518-8.83
			c-0.183,4.672-2.688,19.463,0.992,31.573C358.895,358.715,362.645,359.899,365.785,361.584z"/>
		<path fill="#566595" d="M467.301,326.341c-8.152,2.106-30.756,1.729-39.236,1.743c0.088,1.692,0.727,7.646,0.859,10.186
			c22.007,2.58,66.228-2.307,77.917-5.881l-3.947-3.406c-3.049-0.003-35.839,1.862-35.839,1.862S467.346,327.184,467.301,326.341z"
			/>
		<path fill="#6979A4" d="M512.396,337.347c-2.67-2.407-5.481-4.209-7.706-6.212c-23.804,5.429-75.46,4.482-75.46,4.482
			c0.001,19.146-2.264,34.973-7.765,43.318c7.178,0.505,18.231-0.283,24.696-1.084c19.392-2.409,41.393-8.208,54.097-17.868
			C506.776,355.031,510.456,340.841,512.396,337.347z"/>
		<path fill="#9C9C9C" d="M501.953,304.649c1.135-2.609,2.795-9.535,7.258-11.608c-9.52-5.681-28.969-2.006-36.447,0.931
			c0.021,0.419-0.662,8.915-0.641,9.337C474.639,302.752,496.39,303.657,501.953,304.649z"/>
		<path fill="#9C9C9C" d="M474.712,224.886c0.6,3.357,1.11,12.107,1.441,18.453c0.262,5.075-0.858,23.198-2.836,50.439
			c6.659-2.463,14.855-5.904,20.774-6.21c4.227-0.219,17.3-0.499,17.3-0.499c0.423-0.022,7.329-5.418,9.002-7.365
			c-2.128-8.372-7.852-62.678-7.471-63.542c-2.646-1.981-14.902-6.263-15.348-6.661
			C488.504,218.634,478.824,222.988,474.712,224.886z"/>
		<path fill="#9C9C9C" d="M472.288,306.429c-0.585,5.114-1.949,18.067-2.023,19.755c11.525-3.564,24.962-3.019,29.234-2.398
			c0,0,0.538-10.56,2.369-16.166C496.099,304.712,481.964,303.398,472.288,306.429z"/>
		<path fill="#AEBED8" d="M425.959,228.38c1.356,1.623,14.793,20.729,17.994,31.391c4.756-2.653,8.349-9.096,10.594-15.39
			c2.24-6.292,3.638-12.38,4.334-15.385C444.615,230.78,426.429,229.206,425.959,228.38z"/>
		<path fill="#AEBED8" d="M472.441,227.57c-2.094,0.537-13.253,2.294-13.675,2.314c-4.472,23.573-11.946,29.507-14.837,30.93
			c-3.56-12.888-9.686-24.28-18.094-28.661c-0.073,6.788-8.119,88.817-8.39,91.8c2.138,0.315,30.756,2.176,46.688-1.462
			c1.831-5.606,4.838-17.84,6.246-23.422c1.097-11.511,1.969-19.197,2.758-30.306C473.925,257.655,474.571,235.943,472.441,227.57z"
			/>
		<path fill="#AEBED8" d="M424.043,225.433c-1.695,0.088-24.404-6.077-27.049-8.063c0,0-1.291,7.607-0.796,17.127
			c0.494,9.521,2.529,16.231,4.189,18.873C407.885,240.226,419.146,229.081,424.043,225.433z"/>
		<path fill="#AEBED8" d="M391.379,235.951c-2.606,8.478-3.434,17.266-4.344,30.623c-0.909,13.365-0.171,22.954,0.12,28.633
			c0.296,5.679,0.898,19.202,1.783,28.065c2.557,0.287,22.441,3.619,26.268,3.848c0.028-7.632,8.848-96.796,8.848-96.796
			c-8.896,6.317-19.548,20.508-23.888,29.638C396.804,257.007,392.53,248.805,391.379,235.951z"/>
		<path fill="#9C9C9C" d="M371.762,323.114c0.424-0.017,8.271,1.073,9.138,1.457c-7.978-11.542-25.232-24.093-25.256-24.519
			c0.024,0.426,0.439,6.931,0.464,7.354C358.796,310.229,369.985,321.517,371.762,323.114z"/>
		<path fill="#787878" d="M373.691,323.177c-2.571-4.675-14.922-15.03-17.614-17.854c-0.117,5.938-2.034,14.465-2.454,14.485
			C360.081,320.594,371.438,323.055,373.691,323.177z"/>
		<path fill="#9C9C9C" d="M333.525,257.243c-0.754,1.736-1.442,13.929-1.419,14.352c6.455,1.783,50.53,34.562,52.755,36.565
			c-0.515-1.671-1.885-24.961-1.657-28.79c-4.874-3.988-19.83-13.353-25.04-15.624C353.363,261.021,335.619,256.712,333.525,257.243
			z"/>
		<path fill="#787878" d="M384.727,304.074c-2.222-2.004-20.022-18.251-29.083-24.078c-9.061-5.823-16.49-9.056-22.944-10.836
			c-0.711,2.579-1.336,6.237-1.669,7.944c4.74,1.451,10.502,4.82,15.397,9.229c6.272,6.457,8.07,10.169,9.427,16.273
			c6.586,4.794,17.397,15.218,22.271,21.064c0.424-0.021,8.319,1.495,8.741,1.472C386.867,325.141,385.012,309.573,384.727,304.074z
			"/>
		<path fill="#9C9C9C" d="M355.48,181.103c-4.168,0.054-12.687,1.302-15.025,4.15c-2.342,2.847-4.461,6.809-4.105,12.085
			c0.825-0.466,14.472-1.85,17.171-1.453c0.809,0.119,0.448,8.639-9.707,21.6c-1.939,3.497-7.459,30.947-9.783,40.213
			c14.019,0.542,31.595,3.463,47.587,17.471c0.407-8.501,0.433-16.137,1.017-21.251c1.123-11.082,6.258-23.845,10.361-34.656
			c-3.07-1.964-10.548-5.469-16.765-10.842C370.014,203.05,360.654,191.101,355.48,181.103z"/>
		<path fill="#7B99C6" d="M501.879,195.75l-0.757,1.734c-0.379,0.869-0.78,1.314-1.182,1.759c-0.379,0.869-0.758,1.734-1.138,2.602
			c0.445,0.405,0.468,0.822,0.914,1.225l2.778,4.521c0,0,0,0,0.444,0.4c0.444,0.404,0.444,0.404,0.444,0.404
			c2.605,1.135,5.653,2.671,7.879,4.678c2.004-2.225,3.921-6.141,5.792-10.903c-4.026-4.033-7.117-6.415-9.787-8.818
			c-0.486-1.252-1.353-1.631-2.224-2.009c-0.022-0.425-0.043-0.846-0.467-0.824C503.798,191.833,503.06,193.99,501.879,195.75z"/>
		<path fill="#787878" d="M361.265,181.285c-7.119-1.156-10.29-0.429-12.02,0.222c12.163,16.455,33.202,35.817,42.625,39.257
			c0.782-1.315,2.048-3.386,2.382-5.098c-6.56-3.899-14.011-7.848-18.969-13.524C369.01,195.677,364.153,187.917,361.265,181.285z"
			/>
		<path d="M342.37,185.073c4.065-3.576,12.235-3.843,19.195-2.149c-0.446-0.4-0.808-2.341-1.254-2.745
			c-2.193-0.815-13.7-1.502-19.478,3.048c-5.782,4.553-5.701,13.367-5.701,13.367c0.846-0.043,1.671-0.513,2.516-0.557
			C337.745,193.335,338.305,188.655,342.37,185.073z"/>
		<path fill="#787878" d="M343.141,193.696c3.738-0.594,9.384,0.899,10.363,3.392c0,0-3.009,14.675-9.118,19.083
			c-1.662,5.061-4.24,17.227-4.723,18.695c-0.486,1.468,16.72-13.222,18.521-29.518c1.327-12.011-4.445-14.529-8.471-14.801
			C345.689,190.275,343.417,191.277,343.141,193.696z"/>
		<path fill="#787878" d="M333.616,262.053c2.091-0.534,8.582-0.046,19.314,4.289c10.733,4.336,18.575,10.186,30.524,20.956
			c0,0-0.494-11.102-0.518-11.526c-15.992-14.011-33.762-22.162-47.782-22.704C334.464,256.794,333.594,261.628,333.616,262.053z"/>
		<path d="M354.647,195.228c-0.607-3.846-6.548-3.263-10.232-2.415c-3.683,0.849-4.99,1.984-4.853,4.519L354.647,195.228z"/>
		<path d="M345.834,215.546c-0.821,0.465-2.682,1.231-3.083,1.677c-1.516,3.471-11.431,42.795-13.725,57.709
			c0.865,0.378,2.578,0.718,3.449,1.09c0.332-1.708,1.358-8.202,2.656-14.127C336.428,255.971,345.857,215.963,345.834,215.546z"/>
		<path fill="#7B99C6" d="M396.815,217.058c-0.666-0.448-2.158-1.411-2.158-1.411c-1.159,2.182-2.264,3.612-4.119,8.796
			c-1.891,4.337-2.844,8.489-3.936,13.762c-1.089,5.27-2.408,12.315-3.054,16.841c-0.649,4.527-0.491,9.088-0.666,11.906
			c-0.175,2.818-0.209,17.528,0.603,33.175c0.174,3.38,2.98,21.904,2.98,21.904s10.796,4.015,28.732,4.929
			c-0.487-1.246,7.307-77.064,7.853-89.766c-2.473,1.399-4.521,10.262-5.823,20.757c-1.298,10.493-5.886,54.522-5.917,62.151
			c-6.188-0.241-15.99-2.134-20.721-3.653c-0.889-8.863-1.193-15.243-1.172-21.749c0.025-6.51-0.401-30.151,2.821-45.315
			c2.466,6.655,5.814,13.171,8.776,13.019c2.485-4.621,19.447-25.605,22.295-27.87c-0.019-0.429,1.21-9.209,1.21-9.209
			c-0.401,0.446-11.661,10.93-15.29,14.513c-1.605,1.782-7.059,9.27-9.243,13.552c-3.134-3.673-3.865-12.632-4.284-22.237
			C395.492,226.322,395.602,219.928,396.815,217.058z"/>
		<path d="M395.795,213.372l-0.42,0.02L395.795,213.372L395.795,213.372z"/>
		<path fill="#7B99C6" d="M428.695,231.609c7.677,0.871,19.941,0.967,28.962,0.097c0.314-2.132,0.393-3.877,1.172-5.194
			c-1.688,0.089-26.826,0.605-34.526-0.692C424.303,225.82,428.225,230.78,428.695,231.609z"/>
		<path fill="#7B99C6" d="M424.739,226.52c0,0-1.075,5.509-2.186,15.033c-1.111,9.521-0.99,16.296-2.108,27.379
			c-1.775,22.991-5.505,57.721-5.505,57.721s12.021,1.297,19.809,1.459c7.789,0.154,32.173-1.43,32.173-1.43
			c-0.043-0.845,3.167-30.374,4.171-35.515c-1.408,5.586-5.682,21.255-7.51,26.862c-7.832,2.784-33.086,3.877-44.029,2.905
			c0.267-2.982,2.054-23.426,2.917-34.621c0.865-11.196,3.847-38.257,3.918-45.041c7.024,7.302,13.547,21.436,15.752,26.857
			c2.116-0.114,7.23-5.991,5.791-11.217c-0.471,0.804-2.207,2.926-3.868,3.417c-1.265-4.265-6.141-14.912-10.049-20.493
			C431.725,236.561,425.184,226.923,424.739,226.52z"/>
		<path fill="#7B99C6" d="M396.669,217.308l1.172,5.556c2.646,1.981,19.75,7.418,20.573,6.95c1.31-1.031,2.677-2.912,3.903-3.825
			C414.616,224.693,403.188,220.362,396.669,217.308z"/>
		<path fill="#787878" d="M498.412,202.479c-0.823,0.466-25.337,19.821-25.739,20.267c0,0,1.21,12.505,1.541,18.848
			c0.506,9.726-4.58,61.18-4.827,64.581c-0.564,5.546-2.501,24.438-2.501,24.438s33.492-1.82,36.872-1.996
			c-1.333-1.203-4.173-6.256-4.196-6.68c-4.273-0.621-17.859-0.996-27.94,2.571c0.418-4.271,0.558-12.062,1.143-17.179
			c3.359-0.601,23.806-1.11,28.546,0.341c-0.019-0.426,2.789-7.158,3.571-8.469c-6.057-2.036-23.013-2.73-31.266,0.029
			c0.827-6.905,23.236-7.972,32.859-4.312c1.202-1.339,6.883-8.59,6.883-8.59c-13.765-2.492-31.899,0.622-38.556,3.085
			c1.979-27.242,2.879-42.552,2.617-47.628c-0.33-6.346-0.131-10.997-0.729-14.355c4.14-1.909,14.59-7.898,22.093-14.783
			c2.89,2.649,8.027,6.32,11.247,8.078c-0.158,4.66,3.361,54.074,5.488,62.44c0.426-0.021,5.187-3.635,5.187-3.635
			c-1.509-4.584-7.841-64.489-7.841-64.489C511.126,214.283,498.923,204.146,498.412,202.479z"/>
		<path fill="#7B99C6" d="M472.05,223.1c-1.251,0.486-11.563,2.846-13.247,2.853c0.078,3.043-0.128,5.274-0.107,5.699
			c0.424-0.023,8.038-0.55,10.133-1.085c1.574,8.739,3.646,40.923,3.603,40.08c0,0,1.987-6.522,1.773-26.084
			C474.13,237.753,472.138,224.792,472.05,223.1z"/>
		<path d="M498.65,358.75c-9.822,5.792-40.158,16.742-65.531,18.059c-1.267,0.069-2.115,0.113-2.964,0.153
			c5.928-8.359,9.864-39.047,6.883-38.941c-1.101,12.32-4.228,32.871-8.996,39.052c-1.689,0.088-2.714,0.168-4.633,0.065
			c5.501-8.339,6.86-29.914,6.014-48.355c-0.87-0.378-1.814-0.346-2.657-0.303c0,0,2.46,28.262-5.088,48.5
			c-11.906-0.652-23.9-2.999-35.608-7.901c-10.009-5-21.938-10.489-23.676-11.528c-0.811-0.48,0.096,3.071,2.217,4.556
			c2.122,1.485,2.267,1.578,7.496,4.271c-0.143,0.429-0.275,1.022-0.418,1.476c-0.846,0.043-8.253-3.602-8.781-3.933
			c-0.53-0.332-0.028,1.617,0.889,2.109c1.84,0.99,5.987,2.65,7.628,3.012c-0.565,2.259-2.569,18.635-3.1,22.945
			c-0.533,4.308-1.15,7.816-0.982,9.215c0.166,1.401,2.303,1.648,2.883,3.125c0.579,1.479-2.554,2.248-0.828,3.468
			c1.728,1.218,1.686,2.383,0.946,3.625c-0.742,1.248-0.787,2.308-0.283,4.297c0.507,1.989,9.697,27.09,10.231,29.184
			c-4.092,0.764-9.246-0.528-12.23-3.696c-1.912-4.141-7.472-27.462-8.499-32.749c-1.031-5.285-1.982-9.061-2.183-12.928
			c-0.201-3.869,1.19-30.68,1.08-32.791c-0.98-2.492-1.424-5.721-2.067-9.928c-0.534-2.092-0.665-4.635-0.839-8.015
			c0.85-8.1,1.76-23.426,1.693-24.694c-0.422,0.022-3.276-0.21-3.72-0.61c-0.539,1.953-0.929,3.74-1.554,5.614
			c0.067,1.269-0.466,15.237-0.224,19.89c0.154,2.962,1.564,12.768,2.903,17.73c0.381,4.158-0.906,24.541-0.337,32.792
			c0.564,8.251,7.55,39.359,10.969,48.324c4.708,6.457,18.788,7.487,20.202,3.717c-1.347-2.593-12.064-30.2-12.761-32.935
			c-0.645-2.541,0.535-3.043,0.885-4.326c0.35-1.283-0.016-2.125-1.252-3.188c-1.235-1.065,1.696-1.18,1.539-3.053
			c-0.155-1.874-2.598-2.404-2.77-3.754c-0.172-1.351,4.731-31.968,4.731-31.968c3.894,1.496,10.51,5.489,20.577,8.239
			c10.679,2.924,26.334,5.014,36.905,4.467c12.687-0.659,24.78-2.806,37.757-6.025c0.491,5.563,1.431,23.905,1.712,31.113
			c0.279,7.212-5.336,19.785-15.139,35.135c3.309,2.727,16.312,3.862,26.73,0.306c0.825-0.463,10.651-43.978,11.594-52.635
			c0.956-8.764,2.381-22.035,4.244-26.213c8.017-8.895,12.259-18.024,13.2-24.438c-0.468-0.82-2.539-1.976-2.985-2.373
			C509.731,340.509,505.392,350.806,498.65,358.75z"/>
		<path d="M430.14,276.451c3.282,0.265,5.746-2.143,5.756-5.032c0.011-2.889-2.106-5.024-5.23-4.943
			c-3.125,0.083-4.709,2.733-4.678,5.699C426.009,274.098,427.724,276.254,430.14,276.451z"/>
		<path fill="#AEBED8" d="M428.555,269.074c-1.513,1.61-0.794,4.776,1.553,5.213c2.349,0.442,4.782-2.174,3.783-4.367
			C432.975,267.902,430.455,267.049,428.555,269.074z"/>
		<path d="M395.169,217.644L395.169,217.644c-2.412,17.029-0.274,33.443,5.076,39.183c4.658-8.296,6.304-11.478,10.685-16.677
			c4.384-5.202,8.221-8.531,12.343-12.092c0,0-8.222,86.796-9.409,97.924c-9.238-0.973-22.525-2.756-27.123-4.845
			c-0.424,0.022,0.063,2.722,0.086,3.145c4.635,1.382,21.754,4.72,40.026,5.359c18.274,0.638,31.98-0.295,39.468-2.126
			c0.379-0.872,0.377-2.029,0.46-3.477c-6.98,3.009-30.442,3.831-50.721,1.924l0,0c0,0,3.764-33.693,5.538-56.684
			c1.119-11.086,3.533-39.895,3.533-39.895c0.446,0.405,15.902,22.038,17.731,32.854c4.158,2.509,15.572-15.572,18.072-35.709
			c-1.437,0.431-2.937,0.573-3.782,0.616c-2.549,16.753-7.996,27.785-11.997,30.307c-2.93-9.382-18.563-30.838-18.563-30.838
			c-0.422,0.021-5.543-0.557-5.987-0.959c-1.224,0.908-6.084,5.378-10.088,9.85c-4.005,4.473-9.814,14.642-9.814,14.642
			c-2.748-5.112-4.119-22.166-1.214-31.029C398.646,218.327,395.169,217.644,395.169,217.644z"/>
		<path d="M473.476,222.783c-0.821,0.466-2.079,1.079-2.924,1.124c0.09,1.692,1.753,8.721,2.166,18.248
			c0.415,9.522-0.105,18.055-0.675,27.147c-0.57,9.091-6.728,57.3-6.907,62.59c3.919,0.372,36.093-2.545,39.099-1.856
			c-1.168-0.821-2.244-1.902-2.732-3.145c-3.383,0.175-32.849,2.264-32.849,2.264s7.012-76.187,6.604-88.107
			C474.848,229.129,473.476,222.783,473.476,222.783z"/>
		<path d="M395.147,217.22c-0.444-0.397-1.312-0.777-2.18-1.158c-5.132,10.368-8.207,22.159-9.951,34.923
			c-1.743,12.763-1.415,22.129-1.148,33.506c0.269,11.378,2.1,32.7,3.638,39.199c-3.831-0.025-30.966-5.132-31.387-5.109
			c-0.509,0.988-0.713,1.695-0.69,2.122c0.444,0.397,34.242,6.482,34.665,6.46c0.848-0.043-2.467-19.335-3.13-28.418
			c-0.662-9.082-0.852-29.771-0.645-34.996c0.211-5.223,0.916-11.758,2.226-18.964c1.309-7.207,2.474-12.564,4.15-17.38
			C392.369,222.585,393.99,219.403,395.147,217.22z"/>
		<path d="M422.863,298.485c0.046,2.486,1.532,4.814,4.66,4.811c3.13,0,5.553-2.772,5.33-5.489
			c-0.219-2.714-2.404-4.621-4.969-4.556C424.76,293.334,422.812,296.002,422.863,298.485z"/>
		<path fill="#AEBED8" d="M424.709,298.55c0.045,2.656,3.619,3.261,5.527,1.397c1.91-1.862,0.38-5.072-1.953-5.191
			C425.953,294.635,424.67,296.224,424.709,298.55z"/>
		<path d="M511.575,214.949c1.577,22.62,6.542,60.851,8.051,65.44c0.425-0.026,1.682-1.87,1.657-2.296
			c-2.396-13.444-6.648-54.088-7.446-61.257C512.949,216.036,512.39,215.149,511.575,214.949z"/>
		<path fill="#F1D4A4" d="M555.755,321.266c0.147-3.016-2.738-3.306-4.799-2.798c-2.056,0.506-4.581,1.357-7.088,5.582
			c-2.51,4.22-5.302,10.702-5.302,10.702c-4.227,0.219-10.791-10.107-13.635-35.55c-0.022-0.417-12.247-10.194-13.061-10.547
			c-7.863,6.181-9.585,13.172-11.596,19.208c-2.014,6.042-2.055,11.42-1.485,14.679c0.57,3.258,8.695,9.896,12.973,13.523
			c4.282,3.627,8.41,5.9,11.314,7.754c2.902,1.853,6.133,5.273,11.71,4.604c9.486-1.135,10.596-10.657,12.318-13.07
			C548.822,332.936,555.443,327.616,555.755,321.266z"/>
		<path fill="#E6B179" d="M522.086,336.425c-6.608-6.323-14.167-10.669-22.804-12.615c1.926,3.5,8.701,9.05,12.48,12.254
			c4.282,3.627,8.41,5.9,11.314,7.754c2.081,1.328,4.335,3.456,7.497,4.308C528.309,343.81,525.596,339.78,522.086,336.425z"/>
		<path fill="#E6B179" d="M525.189,301.392c-0.09-0.716-0.176-1.445-0.258-2.191c-0.022-0.417-12.247-10.194-13.061-10.547
			c-1.74,1.365-3.166,2.776-4.374,4.201C512.151,297.483,518.746,299.657,525.189,301.392z"/>
		<path fill="#566595" d="M475.365,373.768l0.944,18.19c2.752,0.675,9.794-2.409,16.317-6.729
			c0.672-7.489,1.948-15.002,2.762-19.583C491.175,367.931,480.928,372.34,475.365,373.768z"/>
		<path d="M552.571,317.18c-0.415-3.426-2.277-6.423-7.096-5.994c-4.823,0.437-9.829,4.385-14.052,11.099
			c-2.581-6.442-4.994-15.758-5.115-22.832c0,0-2.26-1.598-3.574-2.381c1.144,11.25,4.808,33.923,13.646,41.885
			c1.356,1.22,2.733,0.23,2.868-0.73c0.808-5.718,5.312-13.171,8.509-16.466c3.198-3.293,6.903-3.006,6.927,0.522
			c0.007,1.53-1.002,3.221-2.377,4.989c-0.464-1.493-2.111-2.822-3.458-3.201c-0.11-0.032-0.183,0.119-0.071,0.168
			c0.943,0.408,1.706,1.095,2.284,1.941c0.46,0.679,0.574,1.348,0.482,2.04c-0.791,0.96-1.655,1.933-2.491,2.915
			c-0.215-0.465-0.516-0.896-0.818-1.215c-0.767-0.817-1.854-1.566-3.029-1.413c-0.178,0.023-0.221,0.307-0.021,0.33
			c0.951,0.114,1.732,0.706,2.34,1.417c0.473,0.556,0.7,1.098,0.824,1.717c-0.224,0.27-0.444,0.537-0.658,0.809
			c-0.164-0.456-0.388-0.892-0.608-1.243c-0.632-1.002-1.669-1.749-2.884-1.42c-0.135,0.039-0.106,0.221,0.032,0.215
			c1.183-0.077,1.944,0.902,2.372,1.885c0.211,0.491,0.292,0.988,0.389,1.485c-0.175,0.241-0.344,0.476-0.503,0.718
			c-2.826,4.237-2.581,10.56-9.871,12.221c-5.24,1.198-9.782-1.671-16.173-5.575c-9.195-5.62-19.769-16.138-20.422-19.474
			c-0.655-3.335,0.828-10.314,3.181-17.492c2.354-7.178,7.408-13.379,9.854-14.148c-1.759-1.18-2.262-1.887-2.262-1.887
			c-0.845,0.766-3.503,3.63-5.234,5.807c-2.366,2.974-4.491,7.995-6.092,13.342c-1.6,5.344-2.587,12.616-2.277,15.487
			c0.308,2.872,10.323,13.421,16.651,17.906c6.328,4.482,15.021,10.029,20.52,9.743c4.651-0.241,8.437-2.532,10.308-5.622
			c1.871-3.093,2.789-7.456,3.659-8.883c0.869-1.417,4.89-6.185,7.585-9.936C558.608,322.158,556.378,316.986,552.571,317.18z"/>
		<path fill="#F1D4A4" d="M550.035,317.713c-0.335-1.83-0.947-4.365-4.611-3.852c-3.662,0.508-9.307,5.171-11.776,11.119
			c0.157,2.032,1.793,5.809,3.539,7.919C539.88,326.628,545.989,318.565,550.035,317.713z"/>
		<path fill="#E6B179" d="M541.415,321.358c-2.282,1.655-4.388,3.683-6.341,5.844c-0.208,0.267-0.415,0.531-0.625,0.795
			c0.672,1.745,1.685,3.624,2.738,4.901c2-4.658,5.884-10.302,9.41-13.243C544.806,319.698,543.055,320.172,541.415,321.358z"/>
		<path d="M496.82,204.495c4.657,2.876,9.245,7.421,15.996,12.715c7.191,5.645,26.301,24.325,37.006,44.32
			c-12.314,6.071-23.405,14.786-24.585,16.542c-1.311-0.78-2.202-1.58-3.049-1.538c-2.206,1.428-13.601,9.077-14.787,10.984
			c2.189,2.211,18.189,13.493,18.189,13.493s10.397-5.271,14.458-7.169c-0.027-2.244-3.69-5.749-4.157-6.572
			c9.265-4.924,33.991-12.711,35.374-12.859c3.969,1.72,6.962,0.686,6.785-2.753c-0.181-3.442-3.312-7.862-7.142-9.027
			c-9.504-14.668-34.72-46.394-43.115-55.104c-8.393-8.71-16.364-15.515-22.101-20.035C505.736,188.34,497.178,203.2,496.82,204.495
			z"/>
		<path fill="#AEBED8" d="M501.303,204.505c0,0,7.166,5.985,10.455,8.772c3.291,2.789,22.913,19.243,30.245,28.664
			c7.332,9.422,12.846,19.491,13.436,21.953c0.593,2.467,0.26,5.37-1.662,5.361c-0.8-1.163-1.948-3.235-3.324-5.284
			c-0.872,0.371-1.753,0.78-2.629,1.207c-3.756,1.853-7.46,4.177-10.296,6.169c-2.346,1.647-4.101,3.068-4.804,3.809
			c2.805,2.35,5.43,5.143,6.363,6.788c0.48-0.273,3.072-1.062,5.476-1.857c6.776-2.569,25.866-8.369,26.974-8.656
			c0.437,1.039,3.924,2.336,3.894-0.066c-0.033-2.401-1.578-5.463-5.977-6.439c-7.397-12.467-19.819-27.354-29.989-39.772
			c-10.167-12.416-23.998-25.837-31.521-31.826C506.072,198.092,503.307,202.278,501.303,204.505z"/>
		<path fill="#6979A4" d="M492.626,385.229c-6.633,2.894-13.4,5.727-16.317,6.729c0,0,0.049,9.731,0.309,13.796
			c0.262,4.069-0.274,5.356-1.682,8.749c2.24,2.957,12.494,1.963,12.874,1.098C490.406,403.577,492.192,393.312,492.626,385.229z"/>
		<path fill="#566595" d="M487.809,415.601c-3.545-0.371-9.892-0.831-12.874-1.098c-1.778,4.123-8.003,17.377-8.003,17.377
			c2.823,2.685,10.07,2.563,16.03-0.016C484.73,427.141,486.71,420.641,487.809,415.601z"/>
		<path fill="#6979A4" d="M481.273,438.147c0,0,1.027-3.476,1.689-6.283c-5.716,1.509-13.104,0.831-16.03,0.016
			c-1.559,2.623-2.076,4.325-4.059,6.971C462.874,438.851,472.42,441.23,481.273,438.147z"/>
		<path fill="#7B99C6" d="M530.628,231.251c4.526,5.222,9.948,11.69,13.927,17.122c3.981,5.435,9.61,14.123,9.968,16.549
			c0.357,2.424-0.051,4.137-0.692,3.002c-0.642-1.135-1.384-2.946-3.031-4.339c-0.547,0.119-2.354,0.953-2.976,1.593
			c1.377,2.051,4.174,5.115,6.749,5.145c1.48,0.016,2.454-2.626,1.844-5.458c-0.611-2.835-3.344-9.167-11.121-20.042
			c-7.776-10.881-19.76-24.402-27.162-29.842c-2.542-1.868-6.375-1.705-6.375-1.705C516.229,217.482,526.106,226.03,530.628,231.251
			z"/>
		<path d="M332.475,276.022c-0.87-0.372-2.584-0.712-3.449-1.09c-1.293-0.352-3.623-0.885-5.315-0.797
			c-2.312,4.603-5.074,11.157-7.552,15.217c2.02,6.257,10.32,19.088,18.59,31.377c-5.911-3.624-9.636-5.052-13.868-5.483
			c-4.233-0.432-8.701,2.379-7.781,5.504c-4.195-1.326-10.841,2.174-9.396,5.535c1.446,3.36,9.836,5.614,16.287,10.311
			c6.451,4.7,16.856,10.73,22.049,8.925c6.975-2.429,12.133-23.937,12.938-27.016c0.808-3.074,2.975-10.994,1.715-17.025
			c-1.258-6.026-3.93-10.395-10.202-16.852C341.595,280.217,337.213,277.475,332.475,276.022z"/>
		<path fill="#F1D4A4" d="M314.975,320.901c5.543,0.562,12.016,4.109,18.691,10.123c0.769-2.413,1.321-4.773,1.408-6.726
			c-2.31-1.618-10.934-7.143-15.252-6.86C315.506,317.716,314.558,320.393,314.975,320.901z"/>
		<path fill="#E6B179" d="M326.069,323.213c-2.88-1.166-6.004-1.891-9.096-2.179c-0.455-0.042-0.909-0.051-1.361-0.046
			c5.401,0.757,11.634,4.254,18.054,10.036c0.318-1.002,0.597-1.99,0.824-2.946C331.894,326.134,329.121,324.446,326.069,323.213z"
			/>
		<path fill="#F1D4A4" d="M317.91,288.574c-0.271,1.394,5.474,9.854,10.005,17.414c4.53,7.555,9.419,15.125,9.893,17.082
			c0.475,1.961-1.969,9.607-1.969,9.607c0.866,0.429,2.685,2.27,2.303,4.221c-1.838-0.871-6.406-3.877-10.852-7.16
			c-4.448-3.287-9.513-6.544-14.899-6.673c-3.458-0.088-6.743,0.927-5.307,3.045c1.438,2.12,10.542,5.341,16.177,9.337
			c5.636,3.999,13.103,7.374,17.336,7.154c1.687-0.085,4.563-3.386,6.844-8.531c2.284-5.151,3.886-11.511,5.407-16.761
			c1.519-5.254,2.101-9.972,0.913-15.563c-1.184-5.594-3.856-9.252-10.256-15.604c-6.399-6.357-18.541-10.487-20.316-8.807
			C321.414,279.011,318.183,287.181,317.91,288.574z"/>
		<path fill="#E6B179" d="M328.08,277.53c-2.426-0.658-4.278-0.775-4.891-0.196c-1.776,1.677-5.007,9.846-5.279,11.239
			c-0.108,0.557,0.75,2.247,2.099,4.552C322.075,287.487,324.476,282.02,328.08,277.53z"/>
		<path fill="#E6B179" d="M345.358,327.845c-0.901,4.229-1.475,8.5-1.908,12.789c1.314-1.485,2.741-3.741,3.992-6.565
			c2.284-5.151,3.886-11.511,5.407-16.761c1.141-3.945,1.753-7.589,1.484-11.528C350.159,312.647,346.942,320.406,345.358,327.845z"
			/>
		<path d="M345.567,140.677c1.798,8.347,9.917,6.933,13.195,5.52c-2.231,6.05-6.5,16.463,0.527,34.383
			c7.023,17.922,18.467,30.389,40.551,39.863c25.149,10.79,60.863,12.096,78.453,1.674c29.801-16.35,38-49.508,32.216-69.831
			c5.247,0.161,10.24-1.082,13.422-4.981c3.387-4.149,3.452-14.831-6.662-15.918c-5.078-0.545-11.796,2.352-12.879,5.386
			c-5.667-11.125-13.664-22.464-17.245-26.099c-12.514-1.899-62.477-5.39-84.032-6.879c-17.32,9.382-30.187,18.703-39.333,31.943
			C355.599,123.518,344.235,134.494,345.567,140.677z"/>
		<path fill="#F1D4A4" d="M505.941,140.292c1.399,2.47,3.048,6.173,3.635,7.881c4.13,0.655,9.068,0.148,11.373-3.321
			c2.302-3.471,2.265-8.934-3.12-9.893C512.441,133.997,507.982,136.588,505.941,140.292z"/>
		<path fill="#F1D4A4" d="M360.166,142.153c0.797-1.407,1.65-3.348,2.051-3.791c-5.253-10.072-14.076-3.034-13.321,1.891
			C349.646,145.181,358.159,144.12,360.166,142.153z"/>
		<path fill="#E6B179" d="M513.586,146.464c-1.032-3.527-2.133-6.953-3.673-10.206c-1.706,0.988-3.076,2.406-3.973,4.035
			c1.399,2.47,3.048,6.173,3.635,7.881c1.463,0.232,3.025,0.314,4.536,0.173C513.945,147.715,513.765,147.085,513.586,146.464z"/>
		<path fill="#E6B179" d="M354.989,143.788c2.175-0.088,4.299-0.777,5.176-1.635c0.797-1.407,1.65-3.348,2.051-3.791
			c-0.634-1.218-1.319-2.179-2.036-2.931C358.392,138.18,356.666,140.969,354.989,143.788z"/>
		<path fill="#F1D4A4" d="M484.829,115.035c-14.131-2.659-23.122-4.312-27.799-4.495c-25.485-0.798-42.398-3.082-51.387-4.739
			c-0.745,0.479-1.607,1.01-2.609,1.609c-2.857,1.717-6.823,4.01-12.261,7.331c-7.34,4.478-15.171,11.9-20.806,17.707
			c-7.198,8.427-10.878,19.219-10.219,31.909c0.635,12.261,6.889,23.573,19.257,37.14c12.366,13.567,44.158,25.395,71.198,22.945
			c27.039-2.447,40.121-11.741,49.724-30.895c5.777-11.329,8.609-22.077,8.083-32.223c-0.418-8.037-3.698-16.481-7.444-24.106
			C496.815,129.594,490.524,120.732,484.829,115.035z"/>
		<path fill="#E6B179" d="M463.548,125.587c-0.043-0.842-3.58,0.125-4.002,0.147c0.036,8.909-4.294,15.856-13.557,17.182
			c0.425-0.023,0.425-0.023,0.425-0.023c1.269-0.065,2.559,0.293,4.252,0.208C459.891,142.008,463.922,132.777,463.548,125.587z"/>
		<path fill="#E6B179" d="M467.636,156.017c0.616,2.225,0.235,5.417-0.127,7.215c-1.194,5.954-6.712,12-30.395,13.233
			c-11.839,0.616-21.458-3.193-25.353-6.766c-7.435-6.822-6.543-11.38-6.543-11.38c-6.693,2.605-6.917,10.385-0.78,15.144
			c4.931,3.823,15.455,7.654,22.204,8.81c27.501,4.714,45.759-5.636,45.357-19.463C471.916,159.991,470.083,156.079,467.636,156.017
			z"/>
		<path fill="#E6B179" d="M409.715,148.434c0.807-0.891,4.292-2.943,5.942-3.879c-5.543-0.562-10.09-4.598-10.864-11.341
			c-1.715-0.335-5.248-0.292-6.096-0.249C399.206,141.569,403.26,147.205,409.715,148.434z"/>
		<path fill="#E6B179" d="M427.628,133.721c-0.583,3.289-3.622,7.459-7.875,10.058c1.186-0.062,18.743-1.286,20.857-1.396
			C438.897,142.045,427.65,134.147,427.628,133.721z"/>
		<path d="M443.842,126.065c-6.308,1.158-32.535,4.74-49.282,6.378c0.33,1.97,5.15,1.912,8.569,1.672
			c-0.421,4.725,3.42,10.279,8.859,10.947c-0.761,0.083-1.545,0.076-2.403-0.091c-3.256-0.621-5.627-3.15-7.394-5.724
			c-0.074-0.108-0.247,0.008-0.19,0.122c1.681,3.182,4.717,5.935,8.078,6.701c-5.378,2.901-7.475,7.75-7.347,13.089
			c0.144,5.986,2.766,8.673,6.114,11.556c4.747,4.09,14.38,7.889,25.95,8.188c22.251,0.571,35.193-6.528,35.041-17.72
			c-0.123-9.048-7.201-15.493-18.631-17.622c3.709-0.922,6.976-3.389,8.456-7.188c0.047-0.114-0.13-0.21-0.195-0.099
			c-1.796,2.957-3.946,5.097-7.315,6.11c-1.695,0.509-3.333,0.527-4.953,0.318c8.463-1.612,12.859-6.851,12.822-15.36
			c5.517-0.857,24.086-1.671,24.997-0.446c1.187-1.861,1.025-4.719,1.004-5.14C474.787,121.183,455.877,123.856,443.842,126.065z
			 M423.489,142.392c1.226-0.917,3.645-3.695,4.344-6.169c1.569,2.73,4.096,4.353,7.921,5.531L423.489,142.392z"/>
		<path fill="#E6B179" d="M484.829,115.035c-2.693-2.83-4.171-4.962-4.171-4.962c-16.269-2.508-73.189-6.13-73.189-6.13
			c-0.824,0.468-3.168,2.406-4.376,3.456C412.081,109.05,470.698,112.376,484.829,115.035z"/>
		<path fill="#FFFADB" d="M456.591,127.955c-3.382,0.176-17.306,3.403-27.602,4.254c0.861,3.273,6.991,7.169,13.42,7.079
			C448.84,139.199,458.12,136.9,456.591,127.955z"/>
		<path fill="#4195C1" d="M453.33,135.005c-0.072-2.067-1.567-3.414-3.682-3.303c-0.95,0.341-2.719,0.812-2.409,3.761
			c0.309,2.946,2.139,2.955,3.185,2.979C452.113,138.356,453.404,137.078,453.33,135.005z"/>
		<path fill="#5879A4" d="M449.648,131.703L449.648,131.703c-2.535,0.13-4.01,1.714-3.581,4.03c0.625,3.369,4.357,2.71,4.357,2.71
			C447.773,137.388,447.328,133.177,449.648,131.703z"/>
		<path fill="#FFFADB" d="M412.45,142.116c3.247,0.807,7.18,0.54,9.938-1.859c1.875-1.627,3.724-3.845,3.672-7.708
			c-5.375,0.278-13.369,0.755-19.53,1.58C406.445,138.517,409.199,141.305,412.45,142.116z"/>
		<path fill="#4195C1" d="M418.747,134.842c-3.696,1.637-0.846,5.914,1.138,6.142c0.956,0.113,2.596-0.437,2.596-0.437
			s1.251-1.536,0.433-3.658C421.825,134.068,418.747,134.842,418.747,134.842z"/>
		<path fill="#5879A4" d="M418.747,134.842c0,0-2.992,0.815-2.676,3.849c0.212,2.047,1.983,2.947,3.088,3.08
			c1.104,0.134,2.253-0.202,3.321-1.224c0,0-2.612,0.194-3.89-1.49C417.309,137.371,418.079,135.447,418.747,134.842z"/>
		<path fill="#F1D4A4" d="M406.496,158.819c0.327,3.573,2.237,6.839,6.232,10.202c3.998,3.364,13.824,6.519,22.391,6.42
			c8.57-0.097,19.243-2.003,24.207-4.379c14.74-20.329-24.865-28.861-49.82-20.315C407.45,152.378,406.132,154.868,406.496,158.819z
			"/>
		<path d="M406.198,173.559c-14.346-4.944-29.939-9.431-34.167-9.212c-2.536,0.131-4.444,1.819-4.05,4.555
			c0.393,2.736,2.627,4.237,3.664,4.195c-0.838-2.84-0.824-4.967,1.321-5.43c2.366-0.509,43.299,12.765,56.21,17.61
			c12.908,4.845,30.023,10.489,32.287,10.895c2.264,0.406,3.547-0.253,3.502-1.101C452.839,190.188,420.541,178.506,406.198,173.559
			z"/>
		<path d="M430.298,122.111c-8.586,1.853-26.456,1.533-33.272,0.914c-1.038,0.865-0.8,3.425,0.78,3.486
			c2.163,0.082,10.751,0.202,16.917-0.228C420.231,125.9,432.22,124.668,430.298,122.111z"/>
		<path fill="#E6B179" d="M399.771,182.684c-0.225,2.969,0.838,5.199,3.233,7.995c2.391,2.793,5.761,3.991,8.63,3.477
			c2.864-0.509,3.98-2.944,4.13-3.52c0.059-0.227-0.381-3.13-2.015-4.959c-2.528-2.829-5.082-4.337-7.788-5.228
			C404.338,179.913,399.987,179.855,399.771,182.684z"/>
		<path d="M399.656,182.92c0.071,1.391,0.975,2.353,2.399,2.407c1.424,0.057,2.271-1.045,1.924-2.219
			c2.536-0.133,7.366,2.563,11.061,8.908c1.083,0.049,1.482-1.708,0.536-4.033c-1.218-2.983-6.67-7.997-11.765-8.103
			C400.841,179.82,399.584,181.531,399.656,182.92z"/>
		<path fill="#FFFADB" d="M409.506,150.747c23.135-4.944,61.349-0.349,49.82,20.315c2.493-0.979,6.973-3.531,7.175-9.158
			c0.204-5.711-2.213-12.42-16.668-15.677c-14.455-3.26-27.029-1.257-30.174-0.625C414.203,146.699,410.345,149.654,409.506,150.747
			z"/>
		<path d="M451.559,135.019c0.059,1.101-0.787,2.043-1.889,2.1c-1.103,0.059-2.042-0.789-2.1-1.891
			c-0.057-1.102,0.789-2.041,1.894-2.098C450.563,133.071,451.503,133.918,451.559,135.019z"/>
		<path d="M421.7,138.197c0.056,1.115-0.797,2.06-1.911,2.12c-1.112,0.057-2.061-0.797-2.119-1.912
			c-0.058-1.109,0.798-2.057,1.909-2.117C420.694,136.231,421.64,137.084,421.7,138.197z"/>
		<path d="M248.668,254.512c1.256,3.599,4.917,4.834,13.902,6.49c12.021,2.767,16.541,3.576,22.39,6.528
			c6.942,3.502,12.099,5.921,19.754,12.907c-2.548,4.453-3.605,7.776-3.765,9.098c-0.365,2.954,10.614,3.168,13.262,2.282
			c2.647-0.885,4.025-1.78,4.814-3.519c0.787-1.745,5.325-11.583,5.955-13.208c0.628-1.624,0.584-2.535,0.486-3.361
			c-0.1-0.831-4.059-9.459-7.272-9.376c-1.782,0.045-3.318,1.445-4.899,3.644c-2.226-2.006-7.498-5.546-15.798-10.206
			c-7.433-4.275-13.506-6.93-18.245-8.38c10.577-9.65,20.462-14.435,33.285-19.792c12.826-5.353,22.966-7.95,30.103-8.942
			c5.439-2.489,13.717-13.056,12.006-23.449c-5.219-0.9-12.33-0.352-19.514,1.365c-14.715,3.519-32.527,10.595-50.963,23.003
			c-20.087,13.334-28.811,21.72-29.728,28.554C251.481,248.305,247.41,250.917,248.668,254.512z"/>
		<path fill="#AEBED8" d="M268.349,249.674c0,0,0.518-2.619,7.055-2.909c0.249-0.405,0.755-1.262,1.181-1.763l0,0
			c-0.108-2.112,2.209-5.909,8.195-10.151c5.985-4.238,15.382-9.21,23.856-11.994c5.267-1.734,7.872-1.129,7.872-1.129
			c5.433-1.553,18.833-4.793,20.522-4.879c4.458-4.049,13.229-13.117,12.536-19.769c-5.166,0.059-26.565,5.881-37.589,10.89
			c-11.025,5.011-18.437,9.306-25.539,13.694c-7.099,4.391-29.964,20.52-29.512,28.603c-2.868-0.165-5.959,0.791-4.896,3.65
			c1.064,2.853,24.615,6.181,31.258,9.284c6.643,3.104,12.356,5.832,15.447,8.216c1.556-2.625,3.119-5.251,5.123-7.478
			c-4.829-4.314-10.185-7.225-16.23-10.066C281.587,251.035,276.404,249.682,268.349,249.674z"/>
		<path fill="#7B99C6" d="M352.662,196.919c-0.422,0.022-2.135,0.043-3.096,0.162c-0.29,2.557-8.079,15.72-12.536,19.769
			c0.426-0.023,4.231-0.221,4.654-0.241C347.852,212.893,351.37,204.619,352.662,196.919z"/>
		<path fill="#7B99C6" d="M276.585,245.002c6.729-6.486,20.373-15.956,39.924-23.273c0,0-0.91-1.577-9.161,0.228
			C299.097,223.767,273.752,234.946,276.585,245.002z"/>
		<path fill="#7B99C6" d="M311.31,268.643c-2.463-1.941-4.812-3.334-7.451-4.702c-2.004,2.227-3.568,4.853-5.123,7.478
			c1.311,0.778,5.417,4.606,7.083,6.06C306.923,274.87,310.129,270.403,311.31,268.643z"/>
		<path fill="#AEBED8" d="M304.297,287.851c-0.15,1.326,8.915,1.566,10.704,0.102c1.791-1.461,7.702-14.392,7.681-15.925
			c-0.026-1.538-3.56-7.425-5.158-6.249C311.448,270.249,304.447,286.526,304.297,287.851z"/>
		<path fill="#AEBED8" d="M536.875,292.554c-0.445-2.049-9.072-10.584-14.426-13.356c-1.403,0.874-9.846,6.609-10.741,7.861
			c3.567,2.297,8.767,5.819,14.13,11.052C527.06,297.203,534.783,293.082,536.875,292.554z"/>
		<path fill="#7B99C6" d="M537.528,271.347c-4.851,2.886-10.334,7.703-10.334,7.703c0.422-0.025,5.539,4.573,6.895,6.193
			c2.05-1.377,5.57-2.957,10.474-5.157C543.629,278.441,538.44,272.566,537.528,271.347z"/>
		<path d="M540.626,323.46c-0.906-0.749-1.972-1.325-3.164-1.15c-0.111,0.017-0.113,0.199,0.005,0.202
			c0.951,0.034,1.986,0.843,2.656,1.45c0.42,0.38,0.79,0.821,1.07,1.317c0.197,0.346,0.201,0.764,0.423,1.087
			c0.148,0.219,0.486,0.236,0.621-0.009C542.783,325.371,541.281,323.994,540.626,323.46z"/>
		<path d="M538.463,320.91c-0.218,0.034-0.227,0.389,0.008,0.397c1.062,0.049,1.971,0.412,2.805,1.067
			c0.664,0.526,0.94,1.2,1.461,1.816c0.239,0.284,0.777,0.137,0.713-0.279C543.149,321.922,540.249,320.619,538.463,320.91z"/>
		<path d="M545.629,319.41c-0.695-0.845-1.742-1.271-2.762-1.573c-0.175-0.051-0.24,0.202-0.076,0.264
			c0.859,0.329,1.671,0.76,2.256,1.488c0.637,0.789,0.585,1.715,0.948,2.596c0.131,0.321,0.588,0.176,0.621-0.124
			C546.716,321.144,546.198,320.104,545.629,319.41z"/>
		<path d="M320.359,324.148c-2.006,0.165-3.041,2.629-2.937,4.368c0.008,0.119,0.205,0.113,0.208-0.003
			c0.006-0.888,0.25-1.717,0.737-2.458c0.531-0.814,1.265-1.124,2.11-1.516C320.696,324.442,320.591,324.128,320.359,324.148z"/>
		<path d="M322.644,324.71c-2.01-0.34-3.046,1.678-3.578,3.252c-0.043,0.13,0.137,0.19,0.195,0.073
			c0.317-0.633,0.668-1.22,1.155-1.737c0.629-0.676,1.442-0.769,2.267-1.044C322.949,325.164,322.916,324.761,322.644,324.71z"/>
		<path d="M328.587,328.759c-1.104-0.409-2.373,0.221-3.165,0.996c-0.788,0.773-1.067,1.831-0.896,2.904
			c0.025,0.147,0.263,0.125,0.259-0.025c-0.021-1.033,0.427-1.876,1.208-2.528c0.746-0.615,1.604-0.628,2.499-0.807
			C328.739,329.251,328.879,328.867,328.587,328.759z"/>
		<path d="M330.533,329.668c-0.991-0.233-1.906,0.698-2.459,1.413c-0.611,0.783-0.958,1.854-0.798,2.843
			c0.022,0.148,0.231,0.103,0.222-0.042c-0.071-0.984,0.5-1.859,1.175-2.526c0.579-0.568,1.255-0.686,1.923-1.059
			C330.843,330.161,330.83,329.738,330.533,329.668z"/>
		<path d="M326.78,318.607c-1.641-1.424-3.449,1.294-4.231,2.401c-0.07,0.099,0.065,0.232,0.157,0.147
			c0.52-0.479,0.977-1.017,1.487-1.507c0.747-0.724,1.368-0.909,2.343-0.625C326.762,319.089,326.97,318.775,326.78,318.607z"/>
		<path d="M328.748,319.47c-1.533-1.157-3.217,0.653-4.013,1.847c-0.074,0.108,0.086,0.225,0.168,0.119
			c0.864-1.13,2.095-1.995,3.536-1.502C328.713,320.026,329.024,319.674,328.748,319.47z"/>
		<path d="M332.423,321.229c-1.794-0.693-3.311,1.343-3.757,2.818c-0.046,0.141,0.175,0.247,0.241,0.108
			c0.31-0.679,0.739-1.277,1.312-1.762c0.652-0.554,1.3-0.574,2.104-0.474C332.746,321.97,332.767,321.361,332.423,321.229z"/>
		<path d="M334.984,322.691c-1.518-1.611-3.931,0.536-4.391,2.089c-0.049,0.167,0.222,0.276,0.294,0.111
			c0.581-1.32,2.293-2.44,3.668-1.64C334.91,323.46,335.259,322.983,334.984,322.691z"/>
		<path fill="#FFFADB" d="M449.648,134.598c0.019,0.354-0.253,0.653-0.605,0.672c-0.352,0.017-0.652-0.253-0.672-0.607
			c-0.018-0.351,0.255-0.652,0.608-0.67C449.328,133.974,449.631,134.244,449.648,134.598z"/>
		<circle fill="#FFFADB" cx="419.118" cy="137.772" r="0.636"/>
	</g>
	<path d="M509.715,112.768c-7.711-0.528-18.189-11.865-21.023-13.379c-2.835-1.515-4.944-1.779-6.987-1.844
		c1.845-2.044,6.207-0.513,8.502,0.922c5.799,3.624,12.396,9.203,17.663,11.929c0.539,0.279-1.25-1.712-3.69-3.561
		c-8.243-6.238-15.752-17.993-26.011-13.845c-0.022-3.764-1.256-7.408-4.143-10.418c-4.729-4.929-13.029-5.335-19.237-3.897
		c-0.428,0.099-0.3,0.763,0.124,0.746c6.159-0.289,12.825-0.32,17.321,4.638c1.47,1.621,2.009,3.514,2.057,5.515
		c-1.71-2.341-4.198-4.35-6.967-5.741c-13.723-6.891-29.4,5.39-43.521,4.836c-0.49-0.018-0.531,0.774-0.056,0.849
		c9.973,1.586,37.539-8.221,45.734,0.377c-6.099-2.109-14.79-1.661-19.035-1.186c-6.567,0.738-13.06,2.237-19.484,3.758
		c-6.819,1.612-13.155,2.339-20.078,1.515c-7.184-0.855-13.15-4.296-20.347-2.069c-0.54,0.168-0.303,0.888,0.191,0.902
		c3.52,0.099,6.617,0.98,9.655,2.177c-6.751-1.353-13.346-1.536-19.081,1.457c-0.414,0.216-0.088,0.866,0.339,0.727
		c5.212-1.697,10.434-0.798,15.535,0.937c-5.507-0.726-10.938-0.425-16.206,2.739c-0.375,0.227-0.165,0.905,0.286,0.828
		c4.567-0.781,9.895-2.095,16.552,0.278c-2.039,0.11-5.538,0.198-9.162,1.319c-4.959,1.533-6.069,4.187-5.471,4.019
		c19.97-5.599,39.086,3.398,56.417,6.525c13.51,2.44,23.462,3.033,29.513-4.66c1.084,1.644,2.578,2.89,4.78,3.977
		c2.47,1.22,5.704,0.778,8.316,0.571c6.104-0.48,15.717,3.999,20.002,8.877c1.076,1.226,1.251-3.097-2.157-6.483
		c6.44,2.267,8.498-0.664,7.561-0.635c-4.153,0.131-5.298-1.64-7.233-3.017C507.672,115.47,510.536,112.824,509.715,112.768z"/>
	<path fill="#9C9C9C" d="M456.585,94.474c-16.416-2.254-23.574,5.259-39.87,4.078c-0.883-0.065,1.463,1.609,4.501,1.686
		c16.366,0.42,29.094-7.824,44.018-0.934C466.245,99.772,462.816,95.33,456.585,94.474z"/>
	<path fill="#9C9C9C" d="M461.493,98.916c-6.469-1.491-11.999,0.005-17.991,1.854c-8.457,2.609-16.257,2.838-24.943,1.011
		c-0.293-0.062,0.396,1.107,2.656,1.729c6.961,1.918,10.984,1.457,18.126,0.267c7.462-1.243,17.584-4.694,25.268-3.15
		C465.826,100.874,464.532,99.616,461.493,98.916z"/>
	<path fill="#9C9C9C" d="M459.157,102.032c-4.652,0.179-11.72,3.431-15.984,4.294c-6.842,1.383-13.84,0.553-20.609-0.848
		c-0.289-0.059,2.612,1.677,5.508,2.551c3.35,1.013,8.749,1.729,14.179,0.936c6.388-0.936,17.085-5.979,23.06-6.155
		C466.252,102.784,463.208,101.875,459.157,102.032z"/>
	<path fill="#9C9C9C" d="M488.683,106.005c-4.136-5.518-8.818-7.95-16.673-6.233c-2.494,0.545-3.303,1.442-2.891,1.362
		c7.675-1.496,15.63,3.732,21.321,8.401C491.07,110.051,490.318,108.185,488.683,106.005z"/>
	<path fill="#9C9C9C" d="M486.578,107.796c-4.991-1.311-12.715-4.062-17.821-4.882c-0.368-0.059,0.215,0.754,2.786,1.765
		c4.823,1.901,6.571,3.309,11.753,3.805C485.878,108.732,487.774,108.111,486.578,107.796z"/>
</g>
</svg>
