<?xml version="1.0" encoding="utf-8"?>
<!-- Generator: Adobe Illustrator 17.0.0, SVG Export Plug-In . SVG Version: 6.00 Build 0)  -->
<!DOCTYPE svg PUBLIC "-//W3C//DTD SVG 1.1//EN" "http://www.w3.org/Graphics/SVG/1.1/DTD/svg11.dtd">
<svg version="1.1" id="Layer_1" xmlns="http://www.w3.org/2000/svg" xmlns:xlink="http://www.w3.org/1999/xlink" x="0px" y="0px"
	 width="800px" height="600px" viewBox="0 0 800 600" enable-background="new 0 0 800 600" xml:space="preserve">
<g>
	<path fill="#040404" d="M350.708,505.606h88.196c1.257,0,2.278-1.02,2.278-2.278V354.864c0-1.259-1.021-2.278-2.278-2.278h-88.196
		c-1.258,0-2.278,1.019-2.278,2.278v148.463C348.43,504.586,349.45,505.606,350.708,505.606z M352.986,357.142h83.639v143.907
		h-83.639V357.142z"/>
	<path fill="#040404" d="M423.953,445.575v-73.49c0-1.259-1.021-2.278-2.278-2.278h-53.738c-1.258,0-2.278,1.019-2.278,2.278v73.49
		c0,1.257,1.02,2.278,2.278,2.278h53.738C422.932,447.853,423.953,446.832,423.953,445.575z M419.397,443.297h-49.182v-68.933
		h49.182V443.297z"/>
	<path fill="#040404" d="M426.206,451.6c-3.888,0-7.052,3.164-7.052,7.052c0,3.889,3.164,7.054,7.052,7.054
		c3.891,0,7.055-3.165,7.055-7.054C433.261,454.763,430.097,451.6,426.206,451.6z M426.206,461.149
		c-1.375,0-2.495-1.121-2.495-2.497s1.12-2.495,2.495-2.495c1.377,0,2.499,1.119,2.499,2.495S427.583,461.149,426.206,461.149z"/>
	<path fill="#040404" d="M186.021,417.3v-4.556v-20.286v-4.556v-20.285v-4.556v-24.397h-76.031v24.397v4.556v20.285v4.556v20.286
		v4.556v24.402h76.031V417.3z M145.731,437.145h-31.184V417.3h31.184V437.145z M145.731,412.744h-31.184v-20.286h31.184V412.744z
		 M145.731,387.901h-31.184v-20.285h31.184V387.901z M145.731,363.06h-31.184v-19.841h31.184V363.06z M181.465,437.145h-31.177
		V417.3h31.177V437.145z M181.465,412.744h-31.177v-20.286h31.177V412.744z M181.465,387.901h-31.177v-20.285h31.177V387.901z
		 M181.465,363.06h-31.177v-19.841h31.177V363.06z"/>
	<path fill="#040404" d="M318.475,417.3v-4.556v-20.286v-4.556v-20.285v-4.556v-24.397h-76.033v24.397v4.556v20.285v4.556v20.286
		v4.556v24.402h76.033V417.3z M278.183,437.145h-31.184V417.3h31.184V437.145z M278.183,412.744h-31.184v-20.286h31.184V412.744z
		 M278.183,387.901h-31.184v-20.285h31.184V387.901z M278.183,363.06h-31.184v-19.841h31.184V363.06z M313.919,437.145h-31.179
		V417.3h31.179V437.145z M313.919,412.744h-31.179v-20.286h31.179V412.744z M313.919,387.901h-31.179v-20.285h31.179V387.901z
		 M313.919,363.06h-31.179v-19.841h31.179V363.06z"/>
	<path fill="#040404" d="M547.168,417.3v-4.556v-20.286v-4.556v-20.285v-4.556v-24.397h-76.032v24.397v4.556v20.285v4.556v20.286
		v4.556v24.402h76.032V417.3z M506.877,437.145h-31.184V417.3h31.184V437.145z M506.877,412.744h-31.184v-20.286h31.184V412.744z
		 M506.877,387.901h-31.184v-20.285h31.184V387.901z M506.877,363.06h-31.184v-19.841h31.184V363.06z M542.612,437.145h-31.178
		V417.3h31.178V437.145z M542.612,412.744h-31.178v-20.286h31.178V412.744z M542.612,387.901h-31.178v-20.285h31.178V387.901z
		 M542.612,363.06h-31.178v-19.841h31.178V363.06z"/>
	<path fill="#040404" d="M679.621,417.3v-4.556v-20.286v-4.556v-20.285v-4.556v-24.397h-76.033v24.397v4.556v20.285v4.556v20.286
		v4.556v24.402h76.033V417.3z M639.329,437.145h-31.184V417.3h31.184V437.145z M639.329,412.744h-31.184v-20.286h31.184V412.744z
		 M639.329,387.901h-31.184v-20.285h31.184V387.901z M639.329,363.06h-31.184v-19.841h31.184V363.06z M675.065,437.145h-31.18V417.3
		h31.18V437.145z M675.065,412.744h-31.18v-20.286h31.18V412.744z M675.065,387.901h-31.18v-20.285h31.18V387.901z M675.065,363.06
		h-31.18v-19.841h31.18V363.06z"/>
	<path fill="#040404" d="M223.427,220.905h-18.388c-1.258,0-2.278,1.021-2.278,2.278v32.702c0,1.258,1.02,2.278,2.278,2.278h18.388
		c1.258,0,2.278-1.02,2.278-2.278v-32.702C225.705,221.926,224.685,220.905,223.427,220.905z M221.149,253.608h-13.832v-28.146
		h13.832V253.608z"/>
	<path fill="#040404" d="M251.99,220.905h-18.392c-1.256,0-2.278,1.021-2.278,2.278v32.702c0,1.258,1.022,2.278,2.278,2.278h18.392
		c1.258,0,2.278-1.02,2.278-2.278v-32.702C254.268,221.926,253.248,220.905,251.99,220.905z M249.712,253.608h-13.836v-28.146
		h13.836V253.608z"/>
	<path fill="#040404" d="M204.647,212.805h47.733c1.259,0,2.278-1.019,2.278-2.278c0-14.415-11.728-26.141-26.143-26.141
		c-14.417,0-26.147,11.727-26.147,26.141C202.369,211.786,203.39,212.805,204.647,212.805z M228.516,188.941
		c11.134,0,20.325,8.471,21.467,19.307h-42.936C208.187,197.412,217.382,188.941,228.516,188.941z"/>
	<path fill="#040404" d="M556.012,220.905h-18.391c-1.259,0-2.278,1.021-2.278,2.278v32.702c0,1.258,1.019,2.278,2.278,2.278h18.391
		c1.257,0,2.278-1.02,2.278-2.278v-32.702C558.29,221.926,557.269,220.905,556.012,220.905z M553.734,253.608h-13.835v-28.146
		h13.835V253.608z"/>
	<path fill="#040404" d="M584.573,220.905h-18.386c-1.259,0-2.278,1.021-2.278,2.278v32.702c0,1.258,1.019,2.278,2.278,2.278h18.386
		c1.258,0,2.278-1.02,2.278-2.278v-32.702C586.851,221.926,585.831,220.905,584.573,220.905z M582.295,253.608h-13.83v-28.146h13.83
		V253.608z"/>
	<path fill="#040404" d="M537.232,212.805h47.731c1.256,0,2.278-1.019,2.278-2.278c0-14.415-11.728-26.141-26.145-26.141
		c-14.417,0-26.143,11.727-26.143,26.141C534.954,211.786,535.973,212.805,537.232,212.805z M561.097,188.941
		c11.134,0,20.327,8.471,21.469,19.307h-42.939C540.77,197.412,549.963,188.941,561.097,188.941z"/>
	<path fill="#040404" d="M780.717,279.62l-36.325-52.828l-0.348-1.297c-0.155,0.04-0.289,0.102-0.441,0.148l-72.748-105.795
		c-0.427-0.617-1.128-0.988-1.878-0.988h-3.955V91.13c0-1.259-1.02-2.278-2.278-2.278h-14.598V73.087
		c0-1.258-1.021-2.278-2.278-2.278h-17.759c-1.256,0-2.278,1.02-2.278,2.278v15.765h-14.596c-1.257,0-2.278,1.019-2.278,2.278v27.73
		H183.629v-17.348h7.396c1.257,0,2.278-1.018,2.278-2.278V73.087c0-1.258-1.021-2.278-2.278-2.278h-70.858
		c-1.257,0-2.278,1.02-2.278,2.278v26.147c0,1.26,1.021,2.278,2.278,2.278h7.396v17.348h-6.926c-0.75,0-1.453,0.37-1.878,0.988
		L8.893,279.62c-0.478,0.695-0.534,1.602-0.14,2.351c0.394,0.749,1.171,1.218,2.018,1.218h8.446v17.29
		c0,1.258,1.021,2.278,2.278,2.278h21.2v17.469v188.756H30.726c-1.258,0-2.278,1.018-2.278,2.278v25.206
		c0,1.257,1.02,2.278,2.278,2.278h728.16c1.258,0,2.278-1.021,2.278-2.278V511.26c0-1.26-1.02-2.278-2.278-2.278h-11.968V320.226
		v-17.469h21.198c1.258,0,2.278-1.02,2.278-2.278v-17.29h8.444c0.849,0,1.625-0.469,2.019-1.218
		C781.251,281.222,781.197,280.315,780.717,279.62z M759.908,257.399c-0.602,0.405-1.148,0.81-1.61,1.176
		c-3.003-3-6.375-4.573-10.048-4.682c-5.18-0.186-9.531,2.658-11.881,4.6c-2.544-2.672-5.472-4.155-8.738-4.368
		c-5.096-0.337-9.604,2.541-12.003,4.451c-3.006-3.002-6.38-4.573-10.054-4.682c-5.162-0.186-9.519,2.66-11.874,4.602
		c-2.544-2.674-5.471-4.157-8.739-4.371c-5.102-0.337-9.604,2.541-12.003,4.451c-3.006-3.002-6.379-4.573-10.052-4.682
		c-5.175-0.166-9.523,2.667-11.876,4.602c-2.545-2.674-5.473-4.156-8.739-4.371c-5.089-0.319-9.607,2.541-12.007,4.448
		c-3.004-3-6.375-4.571-10.049-4.68c-5.168-0.18-9.523,2.661-11.876,4.602c-2.546-2.674-5.473-4.157-8.741-4.371
		c-1.491-0.099-2.916,0.102-4.266,0.454v-24.151c1.248-0.461,2.586-0.76,3.968-0.663c2.624,0.174,4.917,1.63,7.009,4.454l1.83-1.354
		l1.676,1.544c0.046-0.051,4.825-4.998,10.264-4.87c2.956,0.089,5.728,1.693,8.241,4.768c0.411,0.502,1.018,0.804,1.664,0.831
		c0.034,0.002,0.066,0.002,0.101,0.002c0.613,0,1.201-0.248,1.633-0.687c0.048-0.052,4.995-5.046,10.271-4.686
		c2.617,0.178,4.905,1.633,6.989,4.452l1.83-1.354l1.676,1.544c0.044-0.051,4.784-5.027,10.265-4.87
		c2.956,0.089,5.73,1.693,8.245,4.768c0.411,0.502,1.017,0.804,1.667,0.831c0.032,0.002,0.064,0.002,0.098,0.002
		c0.612,0,1.203-0.248,1.633-0.687c0.049-0.051,4.987-5.033,10.269-4.686c2.616,0.178,4.903,1.633,6.989,4.452l1.828-1.351
		l1.673,1.544c0.048-0.049,4.747-5.07,10.291-4.871c2.947,0.095,5.716,1.699,8.223,4.766c0.411,0.502,1.017,0.804,1.664,0.831
		c0.034,0.002,0.066,0.002,0.1,0.002c0.613,0,1.204-0.248,1.633-0.687c0.048-0.051,4.985-5.033,10.269-4.686
		c2.618,0.178,4.905,1.633,6.989,4.452l1.829-1.351l1.673,1.544c0.023-0.026,1.659-1.739,4.108-3.129L759.908,257.399z
		 M529.359,196.695h-6.565l38.418-40.168l38.214,40.168h-6.352c-1.258,0-2.278,1.02-2.278,2.278v61.943h-59.159v-61.943
		C531.637,197.715,530.618,196.695,529.359,196.695z M196.778,196.695h-6.571l38.423-40.168l38.212,40.168h-6.352
		c-1.258,0-2.278,1.02-2.278,2.278v61.943h-59.156v-61.943C199.056,197.715,198.035,196.695,196.778,196.695z M251.389,173.842
		c1.833-1.09,4.16-2.052,6.568-1.896c2.623,0.174,4.916,1.631,7.007,4.456l1.831-1.356l1.673,1.544
		c0.049-0.048,4.796-4.979,10.269-4.867c2.957,0.086,5.73,1.69,8.243,4.764c0.413,0.505,1.021,0.808,1.67,0.834
		c0.031,0.002,0.066,0.002,0.095,0.002c0.616,0,1.21-0.249,1.638-0.694c0.048-0.051,5.036-5.041,10.246-4.684
		c2.623,0.174,4.916,1.631,7.005,4.456l1.83-1.354l1.673,1.547c0.049-0.051,4.746-5.036,10.292-4.872
		c2.947,0.093,5.713,1.699,8.222,4.764c0.411,0.505,1.019,0.808,1.669,0.834c0.031,0.002,0.064,0.002,0.093,0.002
		c0.617,0,1.21-0.249,1.638-0.694c0.048-0.051,5.013-5.041,10.248-4.684c2.623,0.174,4.916,1.631,7.007,4.456l1.828-1.354
		l1.673,1.547c0.049-0.051,4.805-5.027,10.294-4.872c2.947,0.095,5.711,1.699,8.217,4.764c0.413,0.505,1.021,0.808,1.67,0.834
		c0.031,0.002,0.064,0.002,0.095,0.002c0.616,0,1.209-0.249,1.638-0.694c0.048-0.051,5.018-5.041,10.249-4.684
		c2.623,0.174,4.916,1.631,7.006,4.456l1.828-1.354l1.673,1.547c0.048-0.051,4.799-5.027,10.294-4.872
		c2.947,0.095,5.712,1.699,8.219,4.764c0.41,0.503,1.018,0.804,1.665,0.833c0.031,0.001,0.067,0.001,0.1,0.001
		c0.613,0,1.202-0.247,1.633-0.689c0.049-0.051,5.043-5.016,10.272-4.685c2.615,0.178,4.901,1.636,6.984,4.454l1.832-1.356
		l1.675,1.544c0.047-0.048,4.717-5.029,10.269-4.867c2.956,0.086,5.728,1.69,8.241,4.764c0.413,0.505,1.021,0.808,1.67,0.834
		c0.031,0.002,0.064,0.002,0.095,0.002c0.616,0,1.207-0.249,1.638-0.694c0.048-0.05,5.005-5.024,10.248-4.684
		c2.624,0.174,4.917,1.631,7.008,4.456l1.828-1.354l1.673,1.547c0.049-0.051,4.725-5.036,10.292-4.872
		c2.947,0.093,5.713,1.699,8.222,4.764c0.412,0.505,1.019,0.808,1.667,0.834c0.031,0.002,0.064,0.002,0.095,0.002
		c0.616,0,1.208-0.249,1.639-0.694c0.048-0.051,5.033-5.041,10.246-4.684c2.624,0.174,4.918,1.631,7.008,4.456l1.828-1.354
		l1.673,1.547c0.048-0.051,4.77-5.036,10.292-4.872c1.49,0.048,2.932,0.514,4.319,1.33l-22.597,23.626
		c-0.722-0.188-1.462-0.322-2.224-0.37c-5.09-0.343-9.604,2.537-12.004,4.451c-3.004-3.004-6.379-4.576-10.053-4.686
		c-5.156-0.174-9.513,2.669-11.873,4.605c-2.544-2.672-5.471-4.155-8.739-4.37c-5.123-0.343-9.604,2.537-12.006,4.451
		c-3.006-3.001-6.378-4.576-10.052-4.686c-5.187-0.162-9.529,2.669-11.878,4.605c-2.544-2.672-5.467-4.155-8.733-4.37
		c-5.098-0.322-9.607,2.541-12.007,4.451c-3.005-3.001-6.376-4.576-10.05-4.686c-5.204-0.174-9.541,2.661-11.883,4.599
		c-2.546-2.669-5.47-4.15-8.736-4.364c-5.09-0.343-9.603,2.537-12.004,4.451c-3.004-3.001-6.373-4.576-10.047-4.686
		c-5.189-0.174-9.534,2.663-11.882,4.602c-2.544-2.672-5.471-4.154-8.737-4.367c-5.098-0.343-9.604,2.537-12.004,4.451
		c-3.005-3.004-6.377-4.576-10.053-4.686c-5.169-0.174-9.521,2.665-11.873,4.605c-2.547-2.675-5.473-4.157-8.739-4.37
		c-5.083-0.324-9.605,2.537-12.003,4.451c-3.006-3.001-6.377-4.576-10.052-4.686c-1.976-0.062-3.802,0.329-5.456,0.918
		L251.389,173.842z M262.769,231.858c0.76,0.629,1.489,1.408,2.195,2.359l1.831-1.354l1.673,1.544
		c0.049-0.051,4.796-4.992,10.269-4.87c2.957,0.089,5.73,1.693,8.243,4.768c0.413,0.502,1.019,0.804,1.666,0.831
		c0.035,0.002,0.067,0.002,0.1,0.002c0.613,0,1.204-0.248,1.633-0.687c0.049-0.051,4.938-5.039,10.266-4.686
		c2.618,0.178,4.905,1.633,6.988,4.452l1.83-1.351l1.673,1.544c0.049-0.049,4.746-5.07,10.292-4.871
		c2.947,0.095,5.713,1.699,8.222,4.766c0.409,0.502,1.017,0.804,1.665,0.831c0.033,0.002,0.066,0.002,0.099,0.002
		c0.612,0,1.204-0.248,1.634-0.687c0.05-0.051,5.01-5.033,10.266-4.686c2.617,0.178,4.905,1.633,6.99,4.452l1.828-1.351l1.673,1.544
		c0.049-0.049,4.805-5.03,10.294-4.871c2.947,0.095,5.711,1.699,8.217,4.766c0.413,0.502,1.019,0.804,1.666,0.831
		c0.032,0.002,0.067,0.002,0.1,0.002c0.612,0,1.205-0.248,1.633-0.687c0.049-0.051,5.008-5.033,10.269-4.686
		c2.616,0.178,4.902,1.633,6.989,4.452l1.828-1.351l1.673,1.544c0.048-0.049,4.799-5.03,10.294-4.871
		c2.947,0.095,5.712,1.699,8.219,4.766c0.411,0.503,1.019,0.808,1.669,0.833c0.031,0.001,0.063,0.003,0.093,0.003
		c0.617,0,1.209-0.248,1.64-0.694c0.048-0.051,5.038-5.047,10.251-4.684c2.624,0.174,4.914,1.631,7.002,4.454l1.832-1.354
		l1.675,1.544c0.047-0.051,4.717-5.027,10.269-4.87c2.956,0.089,5.728,1.693,8.241,4.768c0.41,0.502,1.019,0.804,1.666,0.831
		c0.032,0.002,0.067,0.002,0.1,0.002c0.611,0,1.203-0.248,1.633-0.687c0.049-0.052,4.968-5.046,10.27-4.686
		c2.617,0.178,4.905,1.633,6.99,4.452l1.828-1.351l1.673,1.544c0.049-0.049,4.725-5.07,10.292-4.871
		c2.947,0.095,5.713,1.699,8.222,4.766c0.408,0.502,1.017,0.804,1.665,0.831c0.033,0.002,0.066,0.002,0.099,0.002
		c0.612,0,1.202-0.248,1.633-0.687c0.049-0.051,4.999-5.033,10.269-4.686c2.617,0.178,4.902,1.633,6.989,4.452l1.828-1.351
		l1.673,1.544c0.025-0.023,1.018-1.056,2.592-2.164v23.578c-1.65,0.853-3.048,1.841-4.059,2.67
		c-2.545-2.676-5.473-4.157-8.742-4.372c-5.09-0.337-9.604,2.541-12.004,4.451c-3.004-3.002-6.379-4.573-10.053-4.682
		c-5.158-0.186-9.518,2.66-11.873,4.602c-2.544-2.674-5.471-4.156-8.739-4.371c-5.096-0.319-9.607,2.541-12.006,4.451
		c-3.006-3.002-6.378-4.573-10.052-4.682c-5.187-0.166-9.53,2.664-11.878,4.6c-2.544-2.672-5.467-4.154-8.733-4.368
		c-5.098-0.326-9.608,2.541-12.008,4.451c-3.004-3.002-6.375-4.573-10.048-4.682c-5.205-0.186-9.542,2.655-11.885,4.594
		c-2.544-2.67-5.467-4.149-8.733-4.363c-5.09-0.337-9.603,2.539-12.004,4.448c-3.004-2.998-6.373-4.571-10.047-4.68
		c-5.19-0.186-9.535,2.658-11.883,4.596c-2.546-2.669-5.47-4.151-8.736-4.365c-5.098-0.337-9.604,2.541-12.004,4.451
		c-3.005-3.002-6.377-4.573-10.053-4.682c-5.17-0.186-9.521,2.658-11.876,4.6c-2.544-2.672-5.47-4.155-8.736-4.368
		c-5.083-0.331-9.605,2.539-12.003,4.448c-3.006-3-6.377-4.571-10.052-4.68c-5.216-0.166-9.547,2.662-11.883,4.596
		c-1.306-1.37-2.721-2.389-4.222-3.12V231.858z M523.027,229.594c-2.547-2.678-5.476-4.161-8.748-4.376
		c-5.09-0.363-9.604,2.539-12.004,4.449c-3.004-3.001-6.379-4.574-10.053-4.683c-5.156-0.157-9.512,2.675-11.868,4.609
		c-2.546-2.675-5.475-4.16-8.743-4.374c-5.096-0.356-9.607,2.539-12.006,4.449c-3.006-3-6.378-4.571-10.052-4.683
		c-5.145-0.168-9.51,2.671-11.873,4.609c-2.544-2.675-5.471-4.159-8.739-4.374c-5.098-0.334-9.607,2.539-12.007,4.449
		c-3.005-3-6.376-4.571-10.05-4.683c-5.202-0.157-9.538,2.668-11.882,4.603c-2.544-2.672-5.469-4.155-8.737-4.368
		c-5.09-0.363-9.603,2.539-12.004,4.449c-3.004-3-6.373-4.571-10.047-4.683c-5.187-0.157-9.53,2.671-11.877,4.605
		c-2.546-2.674-5.472-4.157-8.741-4.371c-5.098-0.363-9.604,2.539-12.004,4.449c-3.005-3.001-6.377-4.574-10.053-4.683
		c-5.167-0.157-9.517,2.673-11.87,4.605c-2.546-2.674-5.473-4.157-8.741-4.371c-5.083-0.348-9.605,2.539-12.003,4.449
		c-3.006-3-6.377-4.574-10.052-4.683c-5.218-0.185-9.55,2.653-11.887,4.594c-1.305-1.367-2.718-2.387-4.217-3.115V202.95
		c0.76,0.631,1.491,1.408,2.195,2.36l1.831-1.355l1.675,1.544c0.047-0.049,4.731-5.041,10.266-4.87
		c2.957,0.091,5.73,1.692,8.243,4.768c0.413,0.504,1.019,0.808,1.67,0.835c0.031,0,0.066,0.001,0.095,0.001
		c0.616,0,1.21-0.249,1.638-0.694c0.048-0.051,5.036-5.036,10.246-4.684c2.623,0.173,4.916,1.632,7.005,4.455l1.83-1.353
		l1.673,1.547c0.049-0.053,4.808-5.021,10.29-4.874c2.949,0.092,5.716,1.699,8.222,4.766c0.414,0.504,1.019,0.808,1.671,0.835
		c0.031,0,0.064,0.001,0.093,0.001c0.617,0,1.21-0.249,1.638-0.694c0.048-0.051,5.013-5.036,10.248-4.684
		c2.623,0.173,4.916,1.632,7.007,4.455l1.831-1.355l1.675,1.544c0.046-0.049,4.811-5.063,10.266-4.87
		c2.957,0.091,5.727,1.693,8.24,4.768c0.413,0.504,1.021,0.808,1.67,0.835c0.031,0,0.064,0.001,0.095,0.001
		c0.616,0,1.209-0.249,1.638-0.694c0.048-0.051,5.018-5.036,10.249-4.684c2.623,0.173,4.916,1.632,7.006,4.455l1.831-1.355
		l1.675,1.544c0.046-0.049,4.796-5.063,10.266-4.87c2.956,0.091,5.727,1.693,8.241,4.768c0.41,0.502,1.018,0.804,1.665,0.833
		c0.031,0.002,0.067,0.002,0.1,0.002c0.613,0,1.202-0.248,1.633-0.69c0.049-0.05,5.043-5.031,10.272-4.685
		c2.615,0.18,4.901,1.635,6.984,4.453l1.83-1.353l1.673,1.547c0.048-0.051,4.83-5.038,10.294-4.874
		c2.946,0.095,5.712,1.699,8.22,4.766c0.413,0.504,1.021,0.808,1.67,0.835c0.031,0,0.064,0.001,0.095,0.001
		c0.616,0,1.207-0.249,1.638-0.694c0.048-0.051,5.005-5.027,10.248-4.684c2.624,0.173,4.917,1.632,7.008,4.455l1.828-1.353
		l1.673,1.547c0.049-0.053,4.788-5.021,10.29-4.874c2.949,0.092,5.716,1.699,8.222,4.766c0.414,0.504,1.02,0.808,1.67,0.835
		c0.031,0,0.064,0.001,0.095,0.001c0.616,0,1.208-0.249,1.639-0.694c0.048-0.051,5.033-5.036,10.246-4.684
		c2.624,0.173,4.918,1.632,7.008,4.455l1.828-1.353l1.673,1.547c0.025-0.023,1.018-1.048,2.592-2.15v23.583
		C525.433,227.788,524.039,228.77,523.027,229.594z M739.365,227.522c-1.186,0.702-2.198,1.434-2.984,2.075
		c-2.549-2.68-5.479-4.164-8.75-4.378c-5.096-0.363-9.604,2.539-12.003,4.449c-3.006-3.001-6.38-4.574-10.054-4.683
		c-5.159-0.157-9.513,2.675-11.872,4.609c-2.544-2.677-5.472-4.16-8.741-4.374c-5.102-0.363-9.604,2.539-12.003,4.449
		c-3.006-3.001-6.379-4.574-10.052-4.683c-5.176-0.185-9.529,2.661-11.879,4.603c-2.545-2.672-5.47-4.155-8.736-4.368
		c-5.089-0.356-9.607,2.539-12.007,4.449c-3.004-3-6.375-4.571-10.049-4.683c-5.166-0.162-9.519,2.671-11.873,4.607
		c-2.547-2.675-5.476-4.158-8.742-4.372c-1.495-0.106-2.92,0.091-4.268,0.439v-24.127c0.261-0.097,0.516-0.199,0.785-0.279h5.145
		c1.829,0.624,3.494,1.961,5.047,4.059l1.83-1.355l1.676,1.544c0.046-0.049,4.825-5.027,10.264-4.87
		c2.956,0.091,5.728,1.692,8.241,4.768c0.411,0.504,1.019,0.808,1.667,0.835c0.034,0,0.066,0.001,0.097,0.001
		c0.616,0,1.205-0.249,1.636-0.694c0.049-0.051,4.992-5.027,10.248-4.684c2.626,0.173,4.919,1.632,7.009,4.455l1.83-1.355
		l1.676,1.544c0.044-0.049,4.784-5.063,10.265-4.87c2.956,0.088,5.73,1.692,8.242,4.768c0.415,0.504,1.02,0.808,1.673,0.835
		c0.029,0,0.061,0.001,0.093,0.001c0.616,0,1.209-0.249,1.638-0.694c0.048-0.051,5.024-5.036,10.246-4.684
		c2.625,0.173,4.918,1.632,7.008,4.455l1.828-1.353l1.673,1.547c0.048-0.053,4.812-5.021,10.291-4.874
		c2.947,0.092,5.716,1.699,8.222,4.766c0.414,0.504,1.018,0.808,1.67,0.835c0.03,0,0.064,0.001,0.096,0.001
		c0.614,0,1.207-0.249,1.636-0.694c0.022-0.023,2.02-2.033,4.816-3.415L739.365,227.522z M719.306,198.351
		c-1.474,0.788-2.744,1.666-3.678,2.409c-3.006-3.001-6.38-4.576-10.054-4.686c-5.162-0.174-9.517,2.669-11.872,4.605
		c-2.546-2.672-5.472-4.155-8.741-4.37c-5.102-0.343-9.604,2.537-12.003,4.451c-3.006-3.001-6.379-4.576-10.052-4.686
		c-5.175-0.162-9.523,2.672-11.876,4.605c-2.545-2.672-5.473-4.155-8.739-4.37c-5.112-0.343-9.607,2.537-12.007,4.451
		c-3.004-3.001-6.375-4.576-10.049-4.686c-5.169-0.186-9.524,2.661-11.879,4.605c-0.45-0.477-0.919-0.902-1.398-1.294
		c0.134-0.707-0.06-1.448-0.57-1.983l-19.122-20.102c0.026,0.003,0.046,0.018,0.071,0.02c0.035,0.001,0.067,0.001,0.1,0.001
		c0.613,0,1.204-0.247,1.633-0.689c0.05-0.051,5.02-5.048,10.269-4.685c2.617,0.178,4.904,1.634,6.992,4.454l1.83-1.356l1.676,1.544
		c0.046-0.048,4.825-4.987,10.264-4.867c2.956,0.086,5.728,1.69,8.241,4.764c0.411,0.505,1.019,0.808,1.667,0.834
		c0.034,0.002,0.066,0.002,0.097,0.002c0.616,0,1.205-0.249,1.636-0.694c0.049-0.05,4.992-5.024,10.248-4.684
		c2.626,0.174,4.919,1.631,7.009,4.456l1.83-1.356l1.676,1.544c0.044-0.048,4.784-5.029,10.265-4.867
		c2.956,0.086,5.73,1.69,8.245,4.764c0.412,0.505,1.019,0.808,1.67,0.834c0.029,0.002,0.061,0.002,0.093,0.002
		c0.616,0,1.209-0.249,1.638-0.694c0.048-0.051,5.024-5.041,10.246-4.684c2.625,0.174,4.918,1.631,7.008,4.456l1.83-1.356
		l1.677,1.544c0.028-0.031,2.683-2.818,6.305-4.159L719.306,198.351z M665.023,123.417h2.755l11.068,16.095
		c-2.455,0.945-4.52,2.341-5.888,3.431c-2.421-2.412-5.078-3.886-7.936-4.433V123.417z M630.387,75.365h13.203v13.487h-13.203
		V75.365z M613.513,93.408h46.953v57.54h-46.953V93.408z M608.957,123.417v19.002c-0.195,0.15-0.418,0.308-0.592,0.45
		c-2.547-2.678-5.476-4.163-8.747-4.377c-5.096-0.325-9.605,2.54-12.003,4.451c-3.004-2.999-6.375-4.571-10.048-4.681
		c-5.188-0.126-9.524,2.689-11.874,4.607c-2.544-2.678-5.473-4.163-8.744-4.377c-5.102-0.325-9.605,2.54-12.003,4.451
		c-3.003-2.999-6.377-4.571-10.05-4.681c-5.139-0.123-9.499,2.695-11.863,4.615c-2.55-2.683-5.481-4.169-8.754-4.385
		c-5.09-0.325-9.604,2.54-12.004,4.451c-3.004-2.999-6.379-4.573-10.053-4.681c-5.153-0.126-9.504,2.69-11.863,4.613
		c-2.548-2.681-5.477-4.166-8.749-4.383c-5.099-0.325-9.607,2.54-12.006,4.451c-3.006-2.999-6.378-4.571-10.052-4.681
		c-5.18-0.118-9.521,2.69-11.869,4.61c-2.546-2.678-5.474-4.164-8.742-4.379c-5.077-0.314-9.607,2.541-12.008,4.451
		c-3.004-2.999-6.375-4.571-10.048-4.681c-5.199-0.126-9.532,2.686-11.876,4.605c-2.545-2.676-5.473-4.16-8.743-4.375
		c-5.09-0.325-9.603,2.54-12.004,4.451c-3.004-2.999-6.373-4.571-10.047-4.681c-5.184-0.126-9.523,2.689-11.874,4.607
		c-2.546-2.678-5.473-4.161-8.744-4.377c-5.098-0.325-9.604,2.54-12.004,4.451c-3.005-2.999-6.377-4.573-10.053-4.681
		c-5.164-0.126-9.51,2.69-11.865,4.611c-2.548-2.679-5.479-4.165-8.747-4.381c-5.083-0.334-9.605,2.541-12.003,4.451
		c-3.006-2.999-6.377-4.571-10.052-4.681c-5.21-0.118-9.536,2.689-11.876,4.605c-2.546-2.676-5.473-4.159-8.741-4.375
		c-5.093-0.325-9.607,2.54-12.006,4.451c-3.004-2.999-6.375-4.571-10.048-4.681c-5.179-0.151-9.523,2.674-11.874,4.604
		c-2.546-2.675-5.472-4.158-8.741-4.374c-5.102-0.325-9.607,2.54-12.005,4.451c-3.004-2.999-6.375-4.571-10.05-4.681
		c-3.953-0.095-7.427,1.544-9.903,3.179v-18.024H608.957z M122.446,96.956V75.365h66.301v21.591H122.446z M179.073,101.512v49.436
		h-46.952v-49.436H179.073z M121.837,123.417h5.728v15.227c-3.962,0.559-7.356,2.734-9.324,4.299
		c-2.138-2.138-4.456-3.534-6.937-4.207L121.837,123.417z M108.477,142.846c2.812,0.22,5.427,1.811,7.822,4.737
		c0.412,0.503,1.017,0.803,1.664,0.831c0.035,0.002,0.066,0.002,0.1,0.002c0.611,0,1.202-0.248,1.633-0.688
		c0.042-0.042,3.589-3.565,7.868-4.462v9.961c0,1.259,1.02,2.278,2.278,2.278h51.509c1.258,0,2.278-1.019,2.278-2.278v-6.024
		c1.293-1.202,5.122-4.392,9.501-4.392c0.089,0,0.177,0.001,0.265,0.007c2.957,0.086,5.726,1.69,8.242,4.763
		c0.411,0.504,1.017,0.804,1.665,0.832c0.033,0.002,0.066,0.002,0.099,0.002c0.614,0,1.205-0.248,1.634-0.688
		c0.051-0.05,5.033-5.036,10.271-4.687c2.618,0.179,4.902,1.635,6.987,4.454l1.83-1.351l1.673,1.545
		c0.048-0.049,4.822-5.025,10.291-4.87c2.947,0.093,5.712,1.699,8.217,4.763c0.411,0.504,1.019,0.804,1.667,0.832
		c0.033,0.002,0.066,0.002,0.099,0.002c0.612,0,1.202-0.248,1.633-0.688c0.049-0.051,4.973-5.053,10.27-4.687
		c2.617,0.179,4.905,1.635,6.99,4.454l1.83-1.354l1.671,1.547c0.048-0.049,4.819-5.045,10.295-4.87
		c2.948,0.093,5.712,1.699,8.222,4.763c0.41,0.504,1.017,0.804,1.664,0.832c0.035,0.002,0.067,0.002,0.1,0.002
		c0.613,0,1.204-0.248,1.633-0.688c0.049-0.051,4.938-5.055,10.266-4.687c2.618,0.179,4.905,1.635,6.988,4.454l1.83-1.351
		l1.673,1.545c0.049-0.049,4.746-5.05,10.292-4.87c2.947,0.093,5.713,1.699,8.222,4.763c0.409,0.504,1.017,0.804,1.665,0.832
		c0.033,0.002,0.066,0.002,0.099,0.002c0.612,0,1.204-0.248,1.634-0.688c0.05-0.05,5.01-5.02,10.266-4.687
		c2.617,0.179,4.905,1.635,6.99,4.454l1.828-1.354l1.673,1.547c0.048-0.049,4.805-5.025,10.294-4.87
		c2.947,0.093,5.711,1.699,8.217,4.763c0.413,0.504,1.019,0.804,1.667,0.832c0.034,0.002,0.066,0.002,0.099,0.002
		c0.612,0,1.205-0.248,1.633-0.688c0.049-0.05,5.008-5.02,10.269-4.687c2.616,0.179,4.902,1.635,6.989,4.454l1.828-1.354
		l1.673,1.547c0.048-0.049,4.799-5.025,10.294-4.87c2.947,0.093,5.712,1.699,8.219,4.763c0.411,0.504,1.019,0.806,1.669,0.834
		c0.031,0.001,0.066,0.003,0.093,0.003c0.617,0,1.209-0.249,1.64-0.696c0.048-0.049,5.038-5.021,10.251-4.684
		c2.624,0.173,4.914,1.632,7.002,4.456l1.83-1.354l1.673,1.547c0.048-0.049,4.83-5.045,10.294-4.87
		c2.949,0.093,5.714,1.699,8.22,4.763c0.41,0.504,1.019,0.804,1.666,0.832c0.034,0.002,0.067,0.002,0.1,0.002
		c0.611,0,1.205-0.248,1.633-0.688c0.049-0.051,4.968-5.053,10.27-4.687c2.617,0.179,4.905,1.635,6.99,4.454l1.828-1.351
		l1.673,1.545c0.049-0.049,4.725-5.05,10.292-4.87c2.947,0.093,5.713,1.699,8.222,4.763c0.408,0.504,1.017,0.804,1.665,0.832
		c0.033,0.002,0.066,0.002,0.099,0.002c0.612,0,1.202-0.248,1.633-0.688c0.049-0.05,4.999-5.02,10.269-4.687
		c2.617,0.179,4.902,1.635,6.989,4.454l1.831-1.354l1.675,1.544c0.046-0.051,4.742-5.061,10.266-4.867
		c2.955,0.086,5.727,1.69,8.238,4.763c0.414,0.504,1.02,0.804,1.668,0.832c0.034,0.002,0.068,0.002,0.1,0.002
		c0.613,0,1.202-0.248,1.633-0.688c0.049-0.05,4.998-5.02,10.269-4.687c2.617,0.179,4.902,1.635,6.989,4.454l1.828-1.354
		l1.673,1.547c0.048-0.049,4.838-5.025,10.294-4.87c2.945,0.093,5.712,1.699,8.218,4.763c0.412,0.504,1.019,0.806,1.667,0.834
		c0.032,0.001,0.066,0.003,0.097,0.003c0.614,0,1.208-0.252,1.638-0.696c0.049-0.049,5.008-4.991,10.246-4.684
		c2.624,0.173,4.917,1.632,7.009,4.456l1.828-1.351l0.8,0.737v6.346c0,1.259,1.021,2.278,2.278,2.278h51.51
		c1.258,0,2.278-1.019,2.278-2.278V143.19c2.118,0.644,4.126,2.111,5.993,4.392c0.412,0.504,1.019,0.806,1.67,0.834
		c0.031,0.001,0.061,0.003,0.093,0.003c0.616,0,1.209-0.252,1.638-0.696c0.033-0.034,3.192-3.18,7.123-4.294l17.312,25.175
		c-2.138,0.948-3.917,2.173-5.142,3.177c-2.547-2.681-5.476-4.165-8.748-4.38c-5.102-0.345-9.604,2.537-12.003,4.448
		c-3.006-2.998-6.379-4.573-10.052-4.682c-5.175-0.182-9.527,2.661-11.879,4.602c-2.544-2.673-5.47-4.154-8.736-4.368
		c-5.089-0.32-9.607,2.539-12.007,4.448c-3.004-2.998-6.375-4.572-10.049-4.682c-5.167-0.167-9.521,2.67-11.874,4.604
		c-2.546-2.674-5.475-4.156-8.743-4.371c-5.096-0.345-9.605,2.537-12.003,4.448c-2.989-2.981-6.337-4.551-9.986-4.676
		l-14.763-15.517c-0.428-0.451-1.025-0.708-1.645-0.708h-0.005c-0.623,0-1.217,0.254-1.647,0.705l-17.258,18.042
		c-2.304-1.578-4.779-2.45-7.416-2.528c-5.136-0.149-9.502,2.686-11.866,4.613c-2.549-2.678-5.477-4.165-8.75-4.38
		c-5.09-0.345-9.604,2.537-12.004,4.448c-3.004-3-6.379-4.573-10.053-4.682c-5.154-0.149-9.51,2.68-11.867,4.61
		c-2.545-2.678-5.474-4.162-8.745-4.376c-5.096-0.32-9.607,2.539-12.006,4.451c-3.006-3-6.378-4.574-10.052-4.684
		c-5.147-0.178-9.512,2.666-11.873,4.607c-2.545-2.675-5.471-4.159-8.739-4.374c-5.098-0.328-9.607,2.539-12.007,4.448
		c-3.005-2.998-6.376-4.572-10.05-4.682c-5.202-0.149-9.535,2.674-11.879,4.604c-2.544-2.676-5.471-4.157-8.739-4.371
		c-5.09-0.345-9.603,2.537-12.004,4.448c-3.004-2.998-6.373-4.572-10.047-4.682c-5.187-0.149-9.528,2.676-11.876,4.605
		c-2.546-2.676-5.473-4.157-8.742-4.372c-5.098-0.345-9.604,2.537-12.004,4.448c-3.005-3-6.377-4.573-10.053-4.682
		c-5.167-0.149-9.514,2.678-11.868,4.607c-2.548-2.675-5.475-4.159-8.743-4.374c-5.083-0.339-9.605,2.539-12.003,4.448
		c-3.006-2.998-6.377-4.573-10.052-4.682c-5.218-0.182-9.549,2.655-11.887,4.596c-2.544-2.67-5.466-4.148-8.73-4.363
		c-3.947-0.248-7.535,1.416-10.073,3.067l-17.898-18.812c-0.43-0.451-1.025-0.708-1.647-0.708c-0.002,0-0.002,0-0.005,0
		c-0.62,0-1.214,0.254-1.644,0.705l-15.43,16.13c-3.388,0.796-6.233,2.678-7.977,4.066c-3.004-2.998-6.375-4.572-10.05-4.682
		c-5.155-0.178-9.518,2.666-11.876,4.605c-2.546-2.676-5.472-4.157-8.741-4.372c-5.096-0.339-9.603,2.539-12.003,4.448
		c-3.005-2.998-6.377-4.573-10.052-4.682c-5.144-0.149-9.507,2.683-11.867,4.611c-2.547-2.679-5.476-4.163-8.748-4.377
		c-5.094-0.339-9.603,2.539-12.005,4.448c-3.002-2.998-6.375-4.573-10.049-4.682c-5.166-0.149-9.517,2.68-11.873,4.61
		c-1.604-1.686-3.361-2.89-5.259-3.603L108.477,142.846z M88.353,172.106c2.18,0.46,4.133,1.869,5.929,4.296l1.833-1.356
		l1.672,1.544c0.047-0.048,4.825-5.029,10.267-4.867c2.955,0.086,5.729,1.69,8.242,4.764c0.414,0.503,1.019,0.804,1.666,0.833
		c0.035,0.001,0.066,0.001,0.1,0.001c0.611,0,1.202-0.247,1.633-0.689c0.051-0.051,4.992-5.022,10.269-4.685
		c2.615,0.178,4.902,1.636,6.987,4.454l1.832-1.356l1.675,1.544c0.046-0.048,4.809-5.029,10.264-4.867
		c2.957,0.086,5.73,1.69,8.244,4.764c0.411,0.503,1.017,0.804,1.665,0.833c0.034,0.001,0.066,0.001,0.1,0.001
		c0.613,0,1.201-0.247,1.633-0.689c0.05-0.051,4.99-5.022,10.269-4.685c2.615,0.178,4.902,1.636,6.988,4.454l1.829-1.354
		l1.672,1.547c0.049-0.051,4.813-5.041,10.295-4.872c2.948,0.095,5.712,1.699,8.218,4.764c0.255,0.314,0.6,0.514,0.969,0.654
		l-19.377,20.256c-0.623,0.653-0.799,1.61-0.456,2.441c-0.403,0.294-0.786,0.58-1.114,0.848c-2.546-2.678-5.473-4.16-8.745-4.376
		c-5.096-0.324-9.603,2.537-12.003,4.451c-3.005-3.001-6.377-4.576-10.052-4.686c-5.147-0.174-9.511,2.67-11.873,4.608
		c-2.545-2.674-5.471-4.157-8.742-4.373c-5.094-0.324-9.603,2.537-12.005,4.451c-3.002-3.001-6.375-4.576-10.049-4.686
		c-5.169-0.174-9.523,2.666-11.876,4.605c-2.544-2.672-5.472-4.155-8.738-4.37c-5.105-0.331-9.608,2.541-12.008,4.451
		c-1.456-1.453-3.012-2.53-4.642-3.312L88.353,172.106z M68.305,201.262c1.864,0.731,3.654,2.096,5.322,4.137
		c0.411,0.502,1.019,0.805,1.667,0.833c0.032,0,0.064,0.001,0.093,0.001c0.617,0,1.208-0.249,1.64-0.694
		c0.048-0.051,5.05-5.028,10.248-4.684c2.623,0.173,4.916,1.632,7.006,4.455l1.83-1.353l1.673,1.547
		c0.048-0.053,4.784-5.021,10.292-4.874c2.945,0.095,5.712,1.699,8.22,4.766c0.411,0.504,1.019,0.804,1.666,0.833
		c0.035,0.002,0.066,0.002,0.1,0.002c0.611,0,1.202-0.248,1.633-0.69c0.051-0.05,4.992-5.028,10.269-4.685
		c2.615,0.18,4.902,1.635,6.987,4.453l1.83-1.353l1.673,1.547c0.048-0.053,4.764-5.021,10.292-4.874
		c2.948,0.095,5.712,1.699,8.221,4.766c0.411,0.504,1.017,0.804,1.665,0.833c0.034,0.002,0.066,0.002,0.1,0.002
		c0.613,0,1.201-0.248,1.633-0.69c0.05-0.05,4.99-5.028,10.269-4.685c2.615,0.18,4.902,1.635,6.988,4.453l1.831-1.355l1.675,1.544
		c0.035-0.038,2.809-2.947,6.544-4.248h4.827v23.827c-0.321-0.036-0.642-0.086-0.968-0.095c-5.154-0.168-9.514,2.671-11.876,4.607
		c-2.544-2.675-5.471-4.158-8.741-4.372c-5.096-0.348-9.603,2.539-12.003,4.449c-3.005-3-6.377-4.574-10.052-4.683
		c-5.144-0.157-9.51,2.679-11.871,4.609c-2.546-2.675-5.473-4.159-8.745-4.374c-5.094-0.348-9.603,2.539-12.005,4.449
		c-3.002-3-6.375-4.574-10.049-4.683c-5.167-0.157-9.52,2.675-11.873,4.607c-2.546-2.675-5.472-4.158-8.741-4.372
		c-5.105-0.363-9.608,2.539-12.006,4.449c-3.002-3-6.377-4.574-10.052-4.683c-5.187-0.185-9.524,2.648-11.873,4.589
		c-0.971-1.017-2.011-1.823-3.095-2.491L68.305,201.262z M47.981,230.82c1.284,0.745,2.499,1.876,3.626,3.397l1.833-1.354
		l1.673,1.544c0.048-0.051,4.81-4.992,10.269-4.87c2.956,0.089,5.73,1.693,8.242,4.768c0.412,0.502,1.02,0.804,1.667,0.831
		c0.033,0.002,0.066,0.002,0.1,0.002c0.613,0,1.202-0.248,1.633-0.687c0.049-0.052,5.025-5.014,10.269-4.686
		c2.619,0.178,4.905,1.633,6.989,4.452l1.833-1.354l1.672,1.544c0.047-0.051,4.825-5.027,10.267-4.87
		c2.955,0.089,5.729,1.693,8.242,4.768c0.414,0.503,1.019,0.808,1.67,0.833c0.031,0.001,0.062,0.003,0.095,0.003
		c0.616,0,1.207-0.248,1.638-0.694c0.049-0.051,5.038-5.05,10.246-4.684c2.625,0.174,4.916,1.63,7.006,4.454l1.832-1.354
		l1.675,1.544c0.046-0.051,4.809-5.027,10.264-4.87c2.957,0.089,5.73,1.693,8.244,4.768c0.413,0.503,1.017,0.808,1.669,0.833
		c0.031,0.001,0.064,0.003,0.096,0.003c0.615,0,1.206-0.248,1.637-0.694c0.048-0.051,5.018-5.05,10.248-4.684
		c2.624,0.174,4.915,1.63,7.006,4.454l1.829-1.351l1.672,1.544c0.049-0.049,4.813-5.033,10.295-4.871
		c0.365,0.011,0.722,0.087,1.081,0.146v24.299c-0.321-0.036-0.642-0.083-0.968-0.092c-5.155-0.186-9.518,2.662-11.878,4.602
		c-2.544-2.674-5.47-4.156-8.739-4.371c-5.096-0.331-9.603,2.539-12.003,4.451c-3.005-3.002-6.377-4.573-10.052-4.682
		c-5.148-0.186-9.513,2.662-11.874,4.603c-2.546-2.676-5.472-4.157-8.741-4.372c-5.094-0.331-9.603,2.539-12.005,4.451
		c-3.002-3.002-6.375-4.573-10.049-4.682c-5.171-0.186-9.526,2.658-11.878,4.6c-2.544-2.672-5.47-4.154-8.736-4.368
		c-5.105-0.337-9.608,2.541-12.006,4.451c-3.002-3.002-6.377-4.573-10.052-4.682c-5.193-0.166-9.534,2.664-11.879,4.6
		c-2.544-2.672-5.467-4.154-8.732-4.368c-5.091-0.316-9.61,2.541-12.008,4.451c-0.819-0.813-1.666-1.522-2.541-2.127L47.981,230.82z
		 M756.608,513.539v20.649H33.005v-20.649H756.608z M742.362,322.504v186.478H47.251V322.504H742.362z M47.251,317.948v-15.191
		h695.111v15.191H47.251z M765.838,298.201H23.773v-15.012h742.065V298.201z M15.101,278.632l12.662-18.414
		c1.101,0.765,2.172,1.748,3.194,2.995c0.412,0.503,1.019,0.805,1.667,0.832c0.033,0.002,0.064,0.002,0.095,0.002
		c0.616,0,1.208-0.248,1.639-0.694c0.048-0.051,5.036-5.018,10.248-4.684c2.623,0.174,4.913,1.631,7,4.456l1.833-1.356l1.673,1.545
		c0.048-0.05,4.81-4.999,10.269-4.869c2.956,0.089,5.73,1.693,8.245,4.766c0.411,0.505,1.019,0.808,1.667,0.834
		c0.032,0.002,0.064,0.002,0.093,0.002c0.617,0,1.208-0.248,1.64-0.694c0.048-0.051,5.05-5.033,10.248-4.684
		c2.623,0.174,4.916,1.631,7.006,4.456l1.833-1.356l1.672,1.544c0.047-0.049,4.825-5.058,10.267-4.868
		c2.955,0.089,5.729,1.693,8.244,4.766c0.412,0.503,1.017,0.804,1.664,0.833c0.035,0.001,0.066,0.001,0.1,0.001
		c0.611,0,1.202-0.246,1.633-0.689c0.051-0.049,4.992-5.033,10.269-4.685c2.615,0.178,4.902,1.635,6.987,4.454l1.832-1.356
		l1.673,1.544c0.048-0.049,4.811-5.058,10.266-4.868c2.957,0.089,5.73,1.693,8.245,4.766c0.411,0.503,1.016,0.804,1.664,0.833
		c0.034,0.001,0.066,0.001,0.1,0.001c0.613,0,1.201-0.246,1.633-0.689c0.05-0.049,4.99-5.033,10.269-4.685
		c2.615,0.178,4.902,1.635,6.988,4.454l1.831-1.356l1.673,1.545c0.048-0.05,4.75-5.017,10.269-4.869
		c0.374,0.011,0.736,0.089,1.104,0.148v4.601c0,1.258,1.02,2.278,2.278,2.278h63.713c1.259,0,2.278-1.02,2.278-2.278v-2.431
		c0.76,0.631,1.491,1.408,2.195,2.362l1.831-1.356l1.673,1.545c0.048-0.05,4.796-4.999,10.269-4.869
		c2.957,0.089,5.73,1.693,8.245,4.766c0.41,0.505,1.019,0.808,1.667,0.834c0.031,0.002,0.066,0.002,0.095,0.002
		c0.616,0,1.21-0.248,1.638-0.694c0.048-0.051,5.036-5.018,10.246-4.684c2.623,0.174,4.916,1.631,7.005,4.456l1.83-1.354
		l1.673,1.547c0.049-0.05,4.746-5.056,10.292-4.872c2.947,0.095,5.713,1.697,8.222,4.764c0.411,0.505,1.019,0.808,1.669,0.834
		c0.031,0.002,0.064,0.002,0.093,0.002c0.617,0,1.21-0.248,1.638-0.694c0.048-0.051,5.013-5.018,10.248-4.684
		c2.623,0.174,4.916,1.631,7.007,4.456l1.831-1.356l1.673,1.545c0.048-0.05,4.799-5.017,10.269-4.869
		c2.957,0.089,5.729,1.693,8.24,4.766c0.413,0.505,1.021,0.808,1.67,0.834c0.031,0.002,0.064,0.002,0.095,0.002
		c0.616,0,1.209-0.248,1.638-0.694c0.048-0.051,5.018-5.018,10.249-4.684c2.623,0.174,4.916,1.631,7.006,4.456l1.831-1.356
		l1.674,1.545c0.047-0.05,4.794-5.017,10.268-4.869c2.956,0.089,5.729,1.693,8.241,4.766c0.41,0.503,1.018,0.804,1.665,0.833
		c0.031,0.001,0.067,0.001,0.1,0.001c0.613,0,1.202-0.246,1.633-0.689c0.049-0.049,5.043-5.025,10.272-4.685
		c2.615,0.178,4.901,1.635,6.984,4.454l1.83-1.354l1.673,1.547c0.048-0.051,4.83-5.029,10.294-4.872
		c2.949,0.097,5.714,1.699,8.22,4.764c0.414,0.505,1.021,0.808,1.67,0.834c0.031,0.002,0.064,0.002,0.095,0.002
		c0.616,0,1.207-0.248,1.638-0.694c0.048-0.051,5.005-5.027,10.248-4.684c2.624,0.174,4.917,1.631,7.008,4.456l1.828-1.354
		l1.673,1.547c0.049-0.05,4.725-5.056,10.292-4.872c2.947,0.095,5.713,1.697,8.222,4.764c0.412,0.505,1.019,0.808,1.667,0.834
		c0.031,0.002,0.064,0.002,0.095,0.002c0.616,0,1.208-0.248,1.639-0.694c0.048-0.051,5.033-5.018,10.246-4.684
		c2.624,0.174,4.918,1.631,7.008,4.456l1.828-1.354l1.673,1.547c0.025-0.023,1.018-1.053,2.592-2.16v2.036
		c0,1.258,1.021,2.278,2.278,2.278h63.715c1.257,0,2.278-1.02,2.278-2.278v-3.846c1.255-0.466,2.599-0.772,3.986-0.678
		c2.617,0.178,4.904,1.633,6.992,4.454l1.828-1.354l1.673,1.547c0.05-0.051,4.83-5.032,10.292-4.872
		c2.948,0.097,5.712,1.699,8.218,4.764c0.411,0.505,1.019,0.808,1.67,0.834c0.031,0.002,0.063,0.002,0.095,0.002
		c0.616,0,1.205-0.248,1.636-0.694c0.049-0.051,4.992-5.027,10.248-4.684c2.626,0.174,4.919,1.631,7.009,4.456l1.826-1.354
		l1.675,1.547c0.047-0.051,4.838-5.029,10.293-4.872c2.947,0.095,5.712,1.699,8.222,4.764c0.412,0.505,1.019,0.808,1.67,0.834
		c0.029,0.002,0.061,0.002,0.093,0.002c0.616,0,1.209-0.248,1.638-0.694c0.048-0.051,5.024-5.018,10.246-4.684
		c2.625,0.174,4.918,1.631,7.008,4.456l1.828-1.354l1.673,1.547c0.048-0.05,4.747-5.056,10.291-4.872
		c2.947,0.095,5.716,1.697,8.223,4.764c0.413,0.505,1.019,0.808,1.669,0.834c0.03,0.002,0.064,0.002,0.096,0.002
		c0.614,0,1.207-0.248,1.636-0.694c0.048-0.051,5.03-5.018,10.247-4.684c2.624,0.174,4.917,1.631,7.007,4.456l1.83-1.356
		l1.675,1.545c0.047-0.05,4.825-5.017,10.266-4.869c2.955,0.089,5.73,1.693,8.242,4.766c0.412,0.505,1.019,0.808,1.671,0.834
		c0.029,0.002,0.062,0.002,0.093,0.002c0.617,0,1.208-0.248,1.636-0.694c0.014-0.015,1.077-1.088,2.735-2.204l12.018,17.482H15.101z
		"/>
</g>
</svg>
