<?xml version="1.0" encoding="UTF-8" ?>
<!DOCTYPE svg PUBLIC "-//W3C//DTD SVG 1.1//EN" "http://www.w3.org/Graphics/SVG/1.1/DTD/svg11.dtd">
<svg width="211pt" height="445pt" viewBox="0 0 211 445" version="1.1" xmlns="http://www.w3.org/2000/svg">
<g id="#020202ff">
<path fill="#020202" opacity="1.00" d=" M 121.68 0.00 L 131.54 0.00 C 135.31 1.07 138.94 2.67 142.87 3.15 C 147.20 3.62 150.12 7.19 152.69 10.34 C 154.92 13.27 157.32 16.39 157.92 20.12 C 157.98 24.11 157.04 28.04 157.05 32.03 C 157.09 38.93 152.25 44.51 151.30 51.17 C 151.07 54.75 151.90 58.28 152.10 61.83 C 150.41 61.80 148.73 61.75 147.05 61.68 C 146.00 63.60 144.87 65.48 143.68 67.31 C 149.98 71.89 157.43 74.34 164.46 77.53 C 168.68 79.37 171.58 83.15 174.18 86.80 C 177.85 92.24 181.23 98.06 182.55 104.57 C 183.98 110.66 189.92 113.83 193.55 118.48 C 197.18 122.96 198.44 128.73 199.75 134.22 C 200.79 138.88 202.88 143.20 204.31 147.75 C 205.89 152.59 208.92 156.75 211.00 161.36 L 211.00 164.41 C 208.11 175.34 207.97 186.73 205.65 197.76 C 204.85 201.77 200.35 203.11 198.34 206.34 C 198.03 212.96 200.25 219.41 202.53 225.55 C 203.43 227.57 202.31 229.63 201.51 231.48 C 199.27 236.20 197.49 241.28 193.88 245.19 C 187.42 244.16 180.84 243.53 174.62 241.39 C 172.55 240.64 170.50 239.44 169.38 237.49 C 168.40 234.74 169.20 231.34 171.42 229.42 C 173.27 229.03 175.16 229.44 177.02 229.59 C 177.81 227.69 179.77 225.62 178.58 223.50 C 177.04 219.97 172.44 223.00 169.80 221.29 C 166.34 218.90 163.97 214.87 164.64 210.58 C 167.64 210.54 170.97 211.41 173.72 209.81 C 175.71 207.03 177.15 203.82 178.26 200.60 C 178.73 196.22 178.83 191.80 178.96 187.39 C 175.82 184.75 171.79 182.64 170.08 178.73 C 169.60 174.76 172.88 171.63 174.40 168.20 C 170.62 163.90 172.67 157.37 168.80 153.18 C 165.33 148.98 162.04 144.63 159.18 139.99 C 158.04 147.32 155.71 154.41 154.76 161.77 C 154.16 165.92 150.96 168.86 148.96 172.33 C 148.49 176.58 150.34 180.70 150.31 184.95 C 149.91 187.27 148.63 189.35 148.34 191.69 C 148.39 201.40 154.83 209.58 155.97 219.05 C 155.70 229.74 149.13 238.79 145.71 248.62 C 144.57 251.63 144.17 254.90 142.74 257.80 C 140.28 261.44 134.51 261.46 132.99 265.91 C 128.75 275.60 123.52 284.83 117.50 293.51 C 114.88 297.12 113.59 301.54 113.32 305.95 C 113.68 308.37 115.23 310.50 116.76 312.36 C 120.92 314.11 125.81 313.69 129.72 316.20 C 143.10 323.72 150.49 337.71 159.58 349.45 C 162.21 353.52 168.23 353.07 170.70 357.37 C 175.38 363.59 172.71 371.64 171.30 378.51 C 168.32 389.72 175.68 401.01 172.06 412.18 C 170.70 416.67 166.12 420.48 161.25 419.18 C 156.88 416.81 154.05 412.34 152.21 407.85 C 148.80 399.30 149.53 389.91 149.83 380.92 C 145.27 379.98 140.09 379.22 137.50 374.82 C 140.26 374.06 143.10 373.66 145.94 373.36 C 143.70 370.81 141.32 368.17 138.06 366.96 C 132.32 364.70 126.05 363.66 120.86 360.15 C 115.41 357.00 110.96 352.51 106.19 348.48 C 102.86 363.02 98.24 377.49 90.13 390.14 C 86.37 395.85 83.12 401.88 80.12 408.02 C 77.74 412.92 75.97 418.21 72.46 422.48 C 70.22 425.14 70.01 428.74 68.75 431.85 C 66.62 437.38 62.14 441.57 57.46 445.00 L 54.33 445.00 C 52.40 443.54 50.22 442.16 49.10 439.94 C 47.70 436.70 47.65 433.04 46.18 429.84 C 44.70 427.36 42.21 425.74 40.23 423.70 C 35.46 419.17 32.63 412.62 32.82 406.02 C 32.94 403.41 33.88 400.45 36.34 399.15 C 41.95 397.54 47.06 401.14 52.08 403.06 C 53.91 398.07 54.77 392.79 56.89 387.89 C 59.38 373.74 62.07 359.61 64.64 345.46 C 66.13 334.73 67.78 323.72 73.15 314.13 C 74.85 311.43 74.80 308.19 74.19 305.17 C 73.43 301.00 73.39 296.55 71.20 292.80 C 68.61 288.09 66.28 283.24 63.91 278.42 C 59.15 279.08 54.26 280.95 49.46 279.62 C 47.35 277.30 47.22 273.98 47.34 271.02 C 47.44 265.59 49.49 260.43 49.54 255.00 C 49.85 248.08 48.17 241.17 45.08 234.99 C 42.32 229.74 44.06 223.57 46.48 218.55 C 51.68 208.01 57.02 197.50 61.42 186.60 C 61.70 183.08 58.92 180.05 58.41 176.58 C 57.08 172.22 59.89 168.29 61.28 164.36 C 65.08 153.66 66.06 142.22 66.55 130.94 C 66.68 125.84 68.84 121.15 70.17 116.31 C 66.53 115.14 63.04 113.07 59.16 112.94 C 55.04 115.07 52.57 119.21 49.50 122.54 C 45.66 126.97 39.89 129.60 34.04 129.75 C 30.07 129.84 26.10 129.22 22.14 129.68 C 19.93 130.54 18.54 132.65 16.83 134.21 C 13.60 133.54 10.30 133.61 7.02 133.75 C 5.13 134.05 3.98 132.27 3.06 130.92 C 1.55 128.30 0.87 125.32 0.00 122.46 L 0.00 119.48 C 1.86 118.50 3.84 117.71 5.55 116.49 C 7.66 112.78 8.90 108.65 10.96 104.91 C 12.83 101.62 13.19 97.58 15.54 94.56 C 19.52 91.80 24.30 90.58 28.68 88.62 C 31.43 87.39 34.30 86.43 37.32 86.21 C 39.68 86.18 41.04 84.03 42.62 82.62 C 50.22 74.80 60.63 70.77 69.19 64.19 C 73.58 60.36 79.80 62.88 84.84 60.89 C 89.89 58.95 95.10 57.45 100.46 56.71 C 100.78 52.60 101.47 48.40 100.56 44.31 C 98.28 35.68 99.94 26.62 102.17 18.16 C 103.52 13.12 107.52 9.56 110.44 5.44 C 112.98 1.76 117.76 1.28 121.68 0.00 M 112.91 5.91 C 111.49 9.56 110.80 13.54 108.65 16.94 C 109.99 18.10 111.94 19.04 111.90 21.08 C 111.75 23.37 114.16 23.93 115.73 24.89 C 119.74 22.87 122.72 19.02 127.06 17.77 C 126.40 20.37 124.65 22.46 123.50 24.84 C 126.95 23.83 130.36 22.61 133.96 22.16 C 133.83 23.86 133.61 25.56 133.41 27.26 C 136.67 28.37 140.05 27.20 143.11 26.02 C 142.36 23.98 141.34 22.05 140.70 19.98 C 141.04 17.47 143.94 17.17 145.80 16.24 C 145.45 12.44 143.93 8.55 141.20 5.85 C 137.09 4.66 133.43 1.91 129.02 1.87 C 123.44 1.80 117.79 3.21 112.91 5.91 M 142.98 5.26 C 144.91 8.87 147.82 12.42 147.27 16.80 C 146.15 18.41 143.85 18.61 142.31 19.76 C 143.40 22.14 145.99 25.13 143.84 27.67 C 140.41 29.70 135.38 28.43 133.03 32.25 C 135.83 32.31 138.64 32.14 141.43 32.41 C 140.99 35.10 141.93 37.47 144.20 39.01 C 145.79 38.61 147.36 38.18 148.96 37.80 C 150.55 39.37 151.08 41.65 149.95 43.66 C 147.85 48.37 147.93 55.12 142.41 57.37 C 140.47 59.31 139.14 62.87 140.97 65.37 C 142.91 63.66 144.17 61.44 145.24 59.13 C 146.84 59.28 148.44 59.47 150.03 59.71 C 149.34 57.17 148.40 54.61 148.68 51.94 C 149.40 43.96 155.72 37.23 154.62 28.96 C 153.88 25.45 157.24 22.15 155.36 18.66 C 152.65 13.26 149.03 7.25 142.98 5.26 M 103.15 24.17 C 103.62 26.13 105.18 27.69 105.78 29.65 C 107.09 26.61 110.30 26.28 113.22 25.92 C 112.18 25.18 111.12 24.47 110.07 23.76 C 109.99 22.61 109.92 21.46 109.86 20.31 C 108.82 19.47 107.78 18.63 106.75 17.77 C 107.17 16.01 107.59 14.25 107.84 12.45 C 105.00 15.71 103.96 20.03 103.15 24.17 M 109.50 29.15 C 108.65 30.42 107.97 31.87 106.73 32.81 C 103.89 33.25 103.25 29.68 102.04 27.86 C 101.51 32.20 101.77 36.58 101.86 40.94 C 102.39 42.13 103.20 43.17 103.77 44.35 C 103.62 48.88 102.12 53.56 103.95 57.96 C 104.99 63.37 108.41 68.12 113.17 70.88 C 114.56 70.60 115.59 69.46 116.59 68.53 C 116.55 66.10 114.91 63.92 115.01 61.41 C 116.52 61.01 118.04 60.61 119.55 60.22 C 117.48 59.40 115.34 58.74 113.29 57.86 C 114.57 55.91 117.08 57.17 118.92 57.18 C 118.04 55.55 115.94 53.16 118.03 51.58 C 119.66 51.54 121.28 51.80 122.90 51.94 C 123.72 48.20 124.59 44.45 125.10 40.65 C 122.86 41.01 121.44 42.81 119.89 44.27 C 114.98 43.49 112.23 38.99 109.61 35.25 C 112.39 33.55 115.70 33.07 118.88 33.75 C 120.93 34.87 121.81 37.19 123.06 39.04 C 126.08 38.92 129.02 38.06 131.41 36.16 C 130.76 32.45 131.72 28.67 130.71 25.01 C 128.14 25.73 125.59 26.51 123.05 27.31 C 122.22 26.48 121.39 25.64 120.57 24.79 C 117.24 27.06 113.54 28.73 109.50 29.15 M 112.42 36.02 C 114.75 37.78 117.71 38.06 120.46 38.72 C 119.33 35.30 115.42 34.16 112.42 36.02 M 132.85 36.90 C 131.87 39.54 128.28 39.73 127.39 42.40 C 126.16 46.09 126.69 50.28 124.60 53.69 C 123.30 54.74 121.51 53.96 120.00 54.02 C 122.61 56.19 121.89 59.56 121.64 62.52 C 120.33 62.77 119.01 63.01 117.69 63.24 C 118.24 64.79 119.27 66.26 119.24 67.95 C 118.64 69.54 117.69 70.95 116.88 72.43 C 123.42 73.28 130.95 71.53 135.10 66.04 C 137.28 62.94 138.06 59.14 139.85 55.84 C 140.90 54.14 143.68 54.27 144.20 52.13 C 145.68 48.48 146.71 44.67 148.11 40.99 C 146.85 41.15 145.59 42.08 144.32 41.67 C 141.63 39.84 138.81 37.86 137.80 34.59 C 136.04 35.08 133.49 34.71 132.85 36.90 M 117.21 40.55 C 116.61 41.78 118.59 43.00 119.49 42.02 C 120.19 40.80 118.06 39.71 117.21 40.55 M 86.89 63.01 C 87.97 68.38 90.85 73.09 93.14 77.99 C 90.91 78.97 88.70 80.00 86.53 81.11 C 87.03 83.75 87.70 86.36 88.39 88.96 C 85.91 90.02 83.45 91.15 81.05 92.39 C 81.38 94.96 81.94 97.49 82.42 100.03 C 79.70 101.91 76.97 103.83 74.01 105.29 C 71.42 105.17 71.95 101.71 70.87 100.02 C 66.93 91.11 57.84 83.78 59.43 73.08 C 56.89 74.60 54.33 76.11 51.92 77.84 C 46.09 81.76 42.43 88.33 35.92 91.33 C 35.24 90.47 34.57 89.60 33.90 88.74 C 30.22 90.52 26.48 92.14 22.62 93.49 C 19.36 94.77 15.42 96.94 15.52 100.99 C 15.62 105.09 11.80 107.56 9.75 110.69 C 13.20 109.20 17.04 108.87 20.09 106.51 C 24.69 104.99 26.15 110.13 29.21 112.22 C 28.32 109.65 26.43 107.66 24.80 105.56 C 28.16 104.12 31.88 105.14 35.40 104.70 C 36.35 100.62 39.28 97.39 39.84 93.17 C 44.23 94.10 47.50 97.28 49.89 100.90 C 50.19 99.39 50.54 97.88 50.92 96.38 C 52.67 97.28 54.29 98.48 56.17 99.10 C 59.15 99.88 62.12 98.70 64.95 97.90 C 67.71 100.85 67.59 104.98 68.26 108.70 C 69.33 111.00 71.21 112.81 72.39 115.05 C 73.02 120.06 68.97 124.08 68.83 128.98 C 68.16 143.45 67.06 158.42 60.67 171.66 C 59.09 176.01 61.55 180.49 63.94 184.03 C 66.64 185.12 69.71 184.55 72.57 184.68 C 72.85 183.99 73.43 182.60 73.72 181.90 C 72.84 179.30 68.66 175.98 71.62 173.56 C 79.64 171.03 87.89 174.43 95.85 175.61 C 93.37 173.06 90.88 170.32 90.48 166.60 C 97.35 167.91 103.09 172.21 107.97 177.01 C 116.31 175.20 122.72 169.33 128.92 163.87 C 131.87 160.84 126.44 158.36 125.71 155.44 C 132.83 151.18 140.11 147.05 146.25 141.39 C 143.72 141.01 141.10 140.34 140.01 137.75 C 143.60 135.68 147.56 134.34 151.04 132.09 C 153.32 130.32 154.97 127.89 157.16 126.01 C 163.04 129.47 169.84 130.45 176.18 132.68 C 170.52 134.20 164.56 131.76 159.08 130.29 C 161.19 135.60 168.42 134.35 170.85 139.17 C 167.53 138.69 164.37 137.57 161.19 136.54 C 163.16 144.67 170.38 149.98 173.28 157.67 C 173.83 159.74 173.69 161.92 173.99 164.03 C 175.53 163.79 176.69 162.78 177.79 161.76 C 182.54 157.30 189.72 156.08 195.90 157.85 C 197.49 158.11 198.37 159.51 198.88 160.91 C 198.34 161.44 197.26 162.50 196.72 163.03 C 195.55 162.99 194.37 162.95 193.20 162.90 C 193.31 161.89 193.44 160.87 193.59 159.86 C 189.36 159.38 185.09 160.22 181.34 162.22 C 185.53 164.79 190.43 164.93 195.18 164.62 C 194.82 165.25 194.09 166.51 193.73 167.14 C 189.01 168.28 184.53 166.18 179.95 165.42 C 176.43 168.82 173.85 173.34 171.79 177.82 C 173.73 180.75 177.07 182.06 179.64 184.29 C 182.37 188.11 180.08 193.07 180.24 197.37 C 183.73 196.04 187.19 197.41 190.53 198.48 C 190.09 195.89 188.99 193.28 189.88 190.66 C 191.50 190.91 193.11 191.22 194.72 191.52 C 194.73 188.57 194.25 185.37 195.66 182.66 C 197.58 180.25 200.50 178.84 202.27 176.29 C 204.07 168.68 200.36 161.41 198.75 154.13 C 195.25 148.13 196.24 140.92 194.63 134.39 C 192.72 128.45 188.44 123.69 186.01 117.99 C 184.84 115.37 183.46 112.80 181.53 110.66 C 180.46 113.14 179.95 116.01 178.04 118.03 C 172.85 118.93 167.53 118.99 162.37 120.19 C 153.56 121.62 144.97 124.32 136.11 125.41 C 134.90 121.45 133.90 117.44 132.94 113.41 C 133.84 112.83 134.74 112.25 135.64 111.66 C 134.72 109.22 133.87 106.75 133.12 104.25 C 136.37 102.89 139.77 101.98 143.15 101.04 C 142.68 98.12 140.34 95.05 141.16 92.23 C 148.08 90.39 155.28 89.77 162.24 88.08 C 164.81 87.04 165.44 83.90 166.77 81.74 C 160.06 77.47 152.32 75.32 145.30 71.67 C 144.09 76.94 142.24 82.39 138.07 86.07 C 127.66 96.10 113.61 101.27 103.18 111.30 C 99.71 106.13 99.41 99.77 97.97 93.89 C 96.85 89.26 94.15 84.89 94.64 79.98 C 95.23 73.57 99.26 68.27 102.65 63.04 C 102.11 61.85 101.57 60.67 101.02 59.49 C 96.04 59.25 91.33 60.93 86.89 63.01 M 70.00 66.21 C 69.43 75.33 75.67 82.70 80.05 90.08 C 81.95 89.19 83.81 88.25 85.64 87.24 C 84.09 78.60 77.00 72.42 74.82 63.98 C 73.14 64.55 71.55 65.34 70.00 66.21 M 77.99 64.53 C 79.67 69.67 81.47 74.94 85.36 78.89 C 86.90 78.13 88.43 77.35 89.97 76.60 C 88.30 72.40 85.71 68.56 84.83 64.05 C 82.58 64.51 80.29 64.76 77.99 64.53 M 134.35 77.29 C 129.34 83.52 121.85 87.03 114.46 89.60 C 111.90 90.39 109.73 91.96 107.63 93.56 C 105.58 86.63 103.19 79.79 101.12 72.85 C 102.85 80.90 104.58 88.99 107.54 96.71 C 106.55 98.02 105.60 99.35 104.73 100.74 C 105.43 100.67 106.84 100.53 107.55 100.47 C 108.08 97.51 108.68 94.18 111.42 92.43 C 116.27 89.21 122.40 88.58 127.18 85.19 C 133.13 81.16 138.84 75.27 139.04 67.64 C 137.56 70.89 136.72 74.51 134.35 77.29 M 62.53 71.56 C 60.94 75.36 61.79 79.79 63.49 83.43 C 66.70 89.91 72.11 95.15 74.30 102.18 C 76.06 101.17 77.80 100.14 79.55 99.11 C 79.37 87.60 68.65 79.98 67.19 68.83 C 65.61 69.69 64.00 70.52 62.53 71.56 M 105.12 68.78 C 102.89 74.41 105.94 79.99 107.67 85.28 C 108.30 86.70 108.03 88.98 109.99 89.29 C 111.95 87.59 111.95 84.79 111.50 82.44 C 110.28 77.51 107.39 73.25 105.12 68.78 M 141.77 68.75 C 140.70 72.65 139.60 76.71 136.83 79.81 C 130.30 87.70 120.11 90.77 111.44 95.60 C 110.98 97.68 110.02 99.72 110.14 101.88 C 110.40 101.82 110.94 101.70 111.20 101.64 C 120.21 95.60 130.32 90.81 137.76 82.73 C 140.40 78.69 143.37 73.74 141.77 68.75 M 109.05 71.26 C 111.20 76.33 115.24 81.07 114.22 86.96 C 122.26 84.10 132.03 80.44 134.29 71.16 C 126.74 76.08 116.58 76.41 109.05 71.26 M 102.44 99.62 C 103.21 98.36 103.98 97.10 104.76 95.84 C 102.50 88.25 99.93 80.69 99.35 72.73 C 94.88 81.54 99.25 91.18 102.44 99.62 M 168.42 84.18 C 167.37 85.98 166.50 87.87 165.58 89.72 C 158.17 91.24 150.75 92.69 143.32 94.10 C 144.00 96.29 144.78 98.44 145.66 100.56 C 152.90 99.04 160.13 97.45 167.24 95.35 C 170.25 94.89 170.31 91.14 171.33 88.89 C 172.24 86.94 170.75 83.81 168.42 84.18 M 170.28 97.26 C 158.89 100.15 147.38 102.62 135.96 105.40 C 136.59 107.47 137.34 109.50 138.10 111.53 C 149.36 109.69 160.47 106.97 171.57 104.34 C 174.97 103.69 176.16 99.97 177.00 97.08 C 176.92 94.43 175.23 92.26 173.87 90.12 C 172.68 92.48 172.12 95.31 170.28 97.26 M 43.40 97.13 C 45.10 102.16 46.39 108.01 51.25 111.00 C 51.80 109.74 52.35 108.47 52.89 107.20 C 58.53 107.68 62.52 112.40 68.03 113.30 C 65.82 109.49 65.63 105.03 64.78 100.80 C 60.40 101.35 55.68 101.68 51.87 99.03 C 52.00 101.76 52.24 104.56 51.31 107.20 C 48.31 104.10 47.00 99.68 43.40 97.13 M 36.97 105.09 C 34.88 107.34 31.45 106.22 28.75 106.49 C 29.98 108.55 31.84 110.46 31.88 113.00 C 31.80 116.51 34.28 119.40 34.35 122.87 C 33.02 126.01 28.96 124.65 26.33 125.17 C 26.49 125.66 26.81 126.64 26.97 127.14 C 32.94 129.16 39.78 127.67 44.45 123.45 C 48.81 119.50 52.72 115.08 57.04 111.08 C 56.71 110.85 56.04 110.38 55.71 110.15 C 55.16 111.17 54.59 112.18 54.02 113.20 C 51.13 112.97 48.00 112.29 46.24 109.76 C 43.81 106.32 42.75 102.14 40.78 98.45 C 38.64 100.12 37.63 102.54 36.97 105.09 M 175.71 105.66 C 162.49 108.91 149.24 111.99 135.90 114.71 C 136.33 117.41 137.15 120.02 138.07 122.59 C 150.88 120.09 163.69 117.59 176.62 115.77 C 178.67 110.71 181.19 105.45 179.83 99.84 C 177.54 100.92 177.12 103.75 175.71 105.66 M 102.94 102.51 C 103.16 104.07 103.36 105.64 103.58 107.20 C 105.53 105.90 107.42 104.53 109.35 103.20 C 107.21 102.99 105.06 102.84 102.94 102.51 M 19.04 111.10 C 19.26 116.66 19.50 122.25 20.27 127.77 C 21.46 127.82 22.64 127.86 23.82 127.89 C 24.06 124.54 23.97 121.17 24.16 117.82 C 26.82 117.65 26.46 120.91 27.34 122.62 C 28.83 122.57 30.32 122.44 31.81 122.26 C 31.33 119.76 30.20 117.48 28.72 115.43 C 27.59 115.45 26.47 115.49 25.34 115.49 C 24.73 113.06 24.26 110.60 23.62 108.18 C 21.82 108.47 18.87 108.55 19.04 111.10 M 13.43 112.48 C 12.33 116.28 16.81 119.34 15.35 123.11 C 12.10 121.01 12.46 115.98 8.93 114.48 C 7.06 118.15 10.68 121.48 10.06 125.25 C 8.00 123.83 6.88 121.57 5.75 119.41 C 4.68 119.84 3.62 120.28 2.55 120.73 C 3.23 124.56 3.50 128.84 6.33 131.80 C 7.78 132.33 9.14 131.39 10.48 130.97 C 8.77 128.82 6.39 127.05 5.79 124.22 C 9.71 125.93 12.49 129.30 15.18 132.49 C 16.37 131.62 18.22 130.70 17.95 128.92 C 17.59 123.01 17.15 117.08 16.36 111.20 C 15.39 111.61 14.12 111.58 13.43 112.48 M 186.17 114.06 C 189.82 124.47 198.69 133.32 197.95 145.02 C 197.45 149.09 201.06 151.96 201.35 155.88 C 202.35 162.61 206.04 169.26 204.12 176.17 C 203.48 180.03 199.17 181.31 197.29 184.39 C 196.21 187.35 196.82 190.54 196.92 193.61 C 195.26 193.48 193.61 193.30 191.96 193.12 C 192.55 195.62 192.84 198.17 193.19 200.71 C 194.30 202.02 195.68 203.07 196.98 204.19 C 198.41 201.76 201.06 200.72 203.13 199.00 C 205.74 189.12 205.67 178.74 208.06 168.81 C 208.43 166.75 209.36 164.62 208.66 162.53 C 207.66 158.03 204.19 154.64 202.92 150.26 C 201.75 145.27 198.77 140.93 197.86 135.86 C 195.98 127.82 193.91 118.52 186.17 114.06 M 143.45 138.63 C 145.65 138.96 147.90 139.17 149.98 140.03 C 143.40 146.40 135.91 151.88 127.74 156.06 C 129.02 157.51 130.52 158.81 131.51 160.49 C 132.19 163.44 129.75 165.93 127.70 167.68 C 121.36 172.17 115.12 177.37 107.34 179.06 C 103.46 174.70 98.93 170.36 93.01 169.14 C 94.27 172.34 98.31 173.68 98.68 177.29 C 94.39 177.12 90.21 176.11 86.02 175.25 C 87.79 178.31 90.28 180.92 93.49 182.48 C 97.79 184.45 102.55 186.47 107.35 185.22 C 122.88 182.98 133.88 170.86 145.29 161.28 C 148.52 158.14 152.76 155.79 154.82 151.65 C 156.06 146.43 156.53 141.05 157.46 135.77 C 157.90 133.84 157.12 131.95 156.76 130.08 C 153.10 134.02 148.47 136.79 143.45 138.63 M 134.14 174.18 C 126.49 179.91 118.56 185.92 109.03 188.00 C 100.94 189.55 92.69 185.63 87.27 179.75 C 86.08 178.50 86.07 176.69 85.83 175.09 C 81.38 174.25 76.80 173.68 72.33 174.76 C 72.81 177.14 74.57 178.91 75.56 181.06 C 75.67 182.77 75.19 184.46 74.96 186.15 C 78.56 187.93 82.19 189.85 86.20 190.57 C 94.22 191.90 102.59 190.80 110.38 193.49 C 121.03 195.36 130.39 186.67 141.07 188.41 C 143.49 188.99 145.68 187.55 147.78 186.58 C 149.32 182.53 146.75 178.25 146.28 174.16 C 142.11 176.32 138.39 180.85 133.31 180.12 C 139.22 175.81 146.47 172.85 150.56 166.48 C 152.45 164.06 153.30 161.04 153.08 157.99 C 146.70 163.31 140.49 168.83 134.14 174.18 M 64.15 186.69 C 58.50 199.77 51.15 212.08 46.28 225.49 C 44.14 231.31 47.08 237.00 50.21 241.76 C 55.07 252.74 48.63 264.47 50.00 275.82 C 53.54 270.71 59.76 269.05 65.67 268.94 C 66.81 264.35 68.57 259.77 68.15 254.96 C 67.67 251.73 70.53 249.23 70.54 246.07 C 68.59 242.62 64.25 242.30 61.05 240.59 C 61.15 239.36 61.04 238.01 61.83 236.96 C 63.33 234.32 66.82 234.79 69.36 234.18 C 66.82 230.59 63.28 227.85 60.72 224.30 C 58.28 220.98 58.66 216.36 60.81 213.01 C 67.62 217.63 69.51 227.62 77.99 230.06 C 83.95 226.56 90.19 223.46 97.03 222.12 C 97.16 222.61 97.42 223.58 97.55 224.06 C 95.80 227.77 91.70 229.67 89.45 233.09 C 89.93 234.08 90.41 235.07 90.89 236.06 C 85.58 239.26 85.80 245.99 84.31 251.28 C 95.83 245.24 108.83 242.47 121.80 242.71 C 122.60 238.35 122.35 233.91 122.61 229.52 C 124.00 227.10 125.94 225.06 127.49 222.75 C 122.75 215.72 111.43 217.83 107.47 210.07 C 109.40 207.85 112.05 206.57 114.70 205.42 C 106.43 202.40 97.45 201.54 89.57 197.49 C 86.03 195.83 83.62 192.52 80.04 190.97 C 75.06 188.65 69.84 185.81 64.15 186.69 M 129.22 192.37 C 124.78 193.38 120.70 195.80 116.08 195.96 C 106.30 196.38 96.87 192.00 87.06 193.28 C 96.27 201.40 109.94 199.59 119.91 206.16 C 116.73 207.64 113.31 208.58 110.29 210.40 C 115.50 215.26 123.48 215.41 128.59 220.42 C 129.79 221.48 130.38 223.74 128.96 224.88 C 127.45 226.44 125.60 227.97 125.35 230.29 C 124.83 234.41 125.44 238.58 125.03 242.72 C 131.87 242.97 137.96 246.66 142.45 251.63 C 144.97 241.97 150.96 233.62 153.29 223.90 C 153.76 221.21 154.48 218.31 153.37 215.69 C 150.44 207.71 147.14 199.81 145.58 191.41 C 140.13 190.54 134.53 190.87 129.22 192.37 M 182.52 199.15 C 180.51 203.04 177.13 206.38 176.86 210.98 C 173.65 213.06 169.82 213.30 166.10 213.19 C 167.40 216.02 169.37 219.80 172.85 219.99 C 175.33 218.69 177.26 216.52 179.83 215.34 C 179.32 216.79 178.71 218.21 178.08 219.62 C 180.17 221.63 181.54 224.16 181.64 227.10 C 184.63 226.66 186.36 223.92 188.53 222.12 C 188.21 219.89 187.49 217.54 188.37 215.34 C 190.44 210.73 188.63 205.61 189.37 200.75 C 187.24 199.66 184.94 198.90 182.52 199.15 M 191.48 202.68 C 191.07 207.26 192.44 212.04 190.59 216.43 C 189.71 218.47 190.88 220.62 190.78 222.73 C 188.18 225.99 184.88 229.07 180.43 229.02 C 178.56 231.79 176.34 234.34 173.72 236.43 C 173.70 234.46 173.82 232.50 173.81 230.55 C 171.57 231.90 171.03 234.34 170.93 236.77 C 172.66 238.24 174.74 239.12 176.94 239.64 C 179.99 236.11 183.13 232.50 187.32 230.27 C 186.01 234.61 181.65 236.96 179.84 241.05 C 184.74 242.44 186.39 236.84 189.31 234.21 C 190.00 234.23 191.39 234.26 192.08 234.28 C 191.06 237.37 187.85 239.16 186.53 242.17 C 188.27 241.39 189.92 240.45 191.61 239.57 C 191.89 240.49 192.44 242.33 192.72 243.25 C 194.43 241.05 195.86 238.58 196.58 235.87 C 196.60 234.57 195.50 232.86 196.87 231.91 C 198.29 230.24 201.60 228.97 200.72 226.31 C 197.94 220.02 195.75 213.21 196.29 206.25 C 194.71 205.03 193.14 203.79 191.48 202.68 M 61.90 217.59 C 60.15 226.14 71.23 228.69 72.55 236.03 C 69.55 236.60 66.45 236.80 63.61 238.00 C 65.06 241.40 70.10 240.69 71.99 243.96 C 75.38 247.42 70.79 251.22 70.93 254.99 C 70.86 260.13 69.77 265.14 68.53 270.10 C 73.66 272.31 79.25 272.93 84.78 273.11 C 84.91 272.38 85.16 270.93 85.29 270.20 C 80.97 269.61 75.82 267.73 74.99 262.83 C 75.38 257.78 81.03 255.46 81.65 250.56 C 83.49 245.61 82.69 239.26 87.48 235.84 C 86.32 230.81 91.42 227.90 94.09 224.50 C 87.66 225.69 82.82 231.21 76.28 231.75 C 69.81 228.97 66.85 222.15 61.90 217.59 M 94.75 249.16 C 98.24 249.22 102.48 249.01 104.75 252.23 C 107.85 256.36 105.65 261.82 104.07 266.12 C 101.52 273.07 94.90 277.84 93.42 285.26 C 93.25 288.51 94.39 291.71 94.10 294.99 C 94.05 301.57 91.96 307.86 89.88 314.02 C 95.84 315.23 101.64 317.05 107.21 319.53 C 111.58 311.75 109.51 301.97 114.34 294.38 C 123.74 280.47 132.71 265.68 136.17 249.05 C 134.98 248.21 133.89 247.17 132.51 246.65 C 120.03 243.57 106.80 244.97 94.75 249.16 M 81.51 256.53 C 79.36 258.59 77.35 261.57 78.07 264.69 C 79.60 267.24 82.93 267.04 85.43 267.85 C 86.99 261.78 89.27 255.96 91.52 250.13 C 87.98 251.90 84.48 253.88 81.51 256.53 M 85.68 279.78 C 83.83 284.76 78.67 287.67 76.88 292.70 C 75.96 295.34 74.70 298.13 75.44 300.99 C 76.26 305.26 77.77 309.66 76.07 313.93 C 79.77 313.81 83.46 313.84 87.16 313.85 C 88.45 310.24 89.65 306.60 90.99 303.02 C 93.84 295.73 89.39 287.67 92.27 280.42 C 97.34 272.41 105.22 264.62 103.78 254.27 C 101.19 251.63 97.40 251.61 93.96 251.41 C 89.24 260.21 87.91 270.19 85.68 279.78 M 135.94 259.76 C 137.81 258.70 140.07 257.83 141.17 255.87 C 141.59 253.85 139.51 252.58 138.57 251.10 C 137.50 253.92 136.62 256.81 135.94 259.76 M 51.83 278.04 C 55.56 277.62 59.23 276.84 62.90 276.08 C 62.39 274.51 61.87 272.95 61.32 271.41 C 57.42 272.29 53.67 274.33 51.83 278.04 M 63.96 271.62 C 66.12 279.25 70.14 286.10 73.50 293.23 C 74.87 290.76 76.27 288.29 78.22 286.21 C 80.80 283.09 84.37 280.08 84.22 275.64 C 77.26 275.49 70.67 273.14 63.96 271.62 M 112.16 311.86 C 111.71 315.11 110.31 318.09 109.15 321.13 C 109.42 322.68 109.86 324.19 110.18 325.74 C 115.08 326.37 118.12 330.39 121.11 333.88 C 123.66 328.99 125.79 323.00 123.38 317.65 C 120.46 314.30 114.48 316.27 112.16 311.86 M 74.14 317.09 C 73.18 318.38 72.95 320.03 72.41 321.52 C 77.82 319.98 83.41 320.84 88.91 321.12 C 86.64 319.00 84.58 315.51 81.01 315.94 C 78.73 316.12 76.06 315.59 74.14 317.09 M 87.16 316.14 C 88.97 317.91 90.37 320.07 92.21 321.80 C 97.55 323.25 103.04 324.48 107.64 327.76 C 107.58 325.29 107.59 322.16 105.00 320.92 C 99.35 318.41 93.36 316.55 87.16 316.14 M 126.38 317.09 C 128.16 323.58 125.88 330.03 123.03 335.81 C 124.59 336.27 126.15 336.74 127.72 337.20 C 129.82 331.72 130.84 325.92 131.62 320.13 C 129.86 319.14 128.13 318.10 126.38 317.09 M 133.78 322.69 C 132.80 328.43 131.57 334.12 129.34 339.54 C 130.25 338.99 130.87 338.23 131.23 337.26 C 133.32 332.36 134.42 327.10 134.96 321.82 C 134.67 322.04 134.08 322.47 133.78 322.69 M 71.02 325.35 C 77.57 324.74 84.11 324.64 90.68 324.91 C 89.25 322.68 86.28 323.44 84.04 323.00 C 79.70 322.83 74.30 321.71 71.02 325.35 M 92.18 324.35 C 92.80 326.42 95.22 326.52 96.91 327.20 C 100.53 328.15 103.67 330.31 107.25 331.40 C 103.81 326.62 97.66 325.21 92.18 324.35 M 137.33 324.73 C 136.15 330.60 134.25 336.26 132.58 341.98 C 133.05 341.87 133.98 341.64 134.45 341.53 C 136.46 337.22 137.90 332.64 138.76 327.97 C 139.29 326.61 138.01 325.69 137.33 324.73 M 72.44 327.65 C 70.95 327.74 70.03 328.94 69.25 330.06 C 75.67 328.82 82.19 329.05 88.69 329.01 C 88.82 328.53 89.08 327.57 89.20 327.09 C 83.62 326.54 77.96 326.65 72.44 327.65 M 91.33 327.92 C 91.38 328.34 91.49 329.19 91.54 329.61 C 96.61 331.26 101.39 333.57 106.19 335.88 C 106.06 335.28 105.80 334.07 105.67 333.47 C 101.35 330.62 96.43 328.79 91.33 327.92 M 110.12 328.19 C 109.08 333.43 108.07 338.67 107.21 343.95 C 112.41 344.09 116.64 340.69 119.67 336.80 C 117.19 333.27 114.70 329.11 110.12 328.19 M 139.68 334.76 C 139.08 338.29 136.13 341.27 136.86 345.01 C 137.23 344.83 137.96 344.46 138.33 344.28 C 140.85 339.74 142.00 334.54 142.40 329.40 C 140.18 329.96 140.52 333.01 139.68 334.76 M 68.11 334.42 C 74.60 333.55 81.03 331.82 87.63 332.99 C 87.64 332.58 87.66 331.77 87.67 331.36 C 81.20 331.58 73.45 329.91 68.11 334.42 M 89.87 331.90 C 90.05 332.28 90.42 333.05 90.61 333.44 C 95.74 335.03 100.79 336.82 105.59 339.28 C 105.29 338.89 104.70 338.11 104.40 337.72 C 99.93 335.01 95.13 332.53 89.87 331.90 M 144.51 333.68 C 143.42 338.26 141.82 342.67 139.85 346.93 C 147.06 354.36 156.62 361.26 157.77 372.41 C 163.14 367.74 164.33 358.15 158.93 353.07 C 153.73 346.90 150.34 339.32 144.51 333.68 M 68.06 338.31 C 65.34 355.37 61.15 372.21 59.32 389.42 C 62.17 389.45 65.21 389.62 67.62 391.35 C 70.54 393.00 70.93 396.63 71.69 399.55 C 72.96 397.80 74.11 395.93 74.74 393.85 C 76.04 389.69 78.14 385.86 79.61 381.78 C 84.90 366.82 86.69 350.87 86.65 335.06 C 80.49 335.04 73.09 334.30 68.06 338.31 M 89.32 335.72 C 88.81 345.39 88.13 355.05 86.70 364.63 C 85.01 373.30 81.54 381.47 78.60 389.76 C 77.31 393.29 76.64 397.19 74.20 400.19 C 73.07 401.75 71.16 402.41 69.78 403.70 C 68.43 405.83 67.09 407.98 65.91 410.22 C 65.82 414.45 68.88 417.83 70.58 421.50 C 73.20 418.48 74.49 414.65 76.13 411.07 C 80.07 402.34 84.89 394.06 90.06 386.02 C 97.47 372.39 102.64 357.39 104.38 341.96 C 100.07 338.42 94.61 337.01 89.32 335.72 M 120.40 339.34 C 117.53 343.43 112.97 345.65 108.16 346.51 C 109.52 348.05 110.92 349.57 112.35 351.05 C 118.15 349.34 123.94 345.33 125.94 339.42 C 124.17 338.91 121.61 336.90 120.40 339.34 M 121.01 349.01 C 119.05 350.74 116.16 351.41 114.80 353.76 C 121.23 352.07 126.87 346.86 129.11 340.58 C 126.19 343.17 124.30 346.78 121.01 349.01 M 131.20 342.95 C 128.14 348.78 122.83 352.71 117.45 356.23 C 124.68 356.21 130.21 350.12 133.38 344.17 C 132.83 343.86 131.75 343.25 131.20 342.95 M 135.03 345.86 C 132.17 351.80 126.83 355.70 121.40 359.10 C 128.12 358.15 133.79 352.94 137.03 347.14 C 136.53 346.82 135.53 346.18 135.03 345.86 M 126.46 360.87 C 131.55 362.69 136.68 364.39 141.74 366.27 C 146.31 368.96 149.45 374.66 155.40 374.44 C 155.31 363.47 146.20 356.07 138.95 349.13 C 135.62 353.84 131.36 357.82 126.46 360.87 M 164.40 355.00 C 165.92 362.03 164.49 370.06 159.32 375.29 C 154.03 379.13 147.36 375.63 141.48 376.03 C 146.16 379.89 152.82 376.93 157.86 379.97 C 158.19 385.93 158.63 391.92 158.05 397.89 C 158.07 400.65 154.71 400.13 152.85 400.54 C 153.72 406.71 156.45 412.80 161.43 416.74 C 163.66 417.52 166.67 417.15 167.95 414.90 C 171.44 409.78 171.26 403.16 169.85 397.37 C 166.78 397.42 163.64 397.80 160.63 397.00 C 160.58 391.57 160.12 386.15 160.08 380.72 C 162.90 380.53 165.73 380.54 168.56 380.56 C 168.99 375.03 171.08 369.73 170.98 364.15 C 170.84 360.07 167.65 357.01 164.40 355.00 M 153.13 380.90 C 150.69 385.17 152.39 390.33 152.10 395.00 C 151.66 397.27 153.87 397.89 155.62 398.14 C 156.15 392.48 156.44 386.76 155.39 381.14 C 154.83 381.08 153.70 380.96 153.13 380.90 M 162.63 382.97 C 162.71 383.75 162.88 385.30 162.96 386.08 C 164.87 385.88 166.78 385.68 168.68 385.45 C 169.26 381.62 164.92 383.36 162.63 382.97 M 163.17 388.49 C 163.11 389.11 163.01 390.34 162.95 390.96 C 165.26 390.52 169.12 391.05 169.07 387.63 C 167.09 387.85 165.13 388.18 163.17 388.49 M 57.23 393.23 C 56.28 396.12 55.93 399.15 55.68 402.17 C 58.86 403.72 61.81 405.85 63.67 408.93 C 65.69 404.78 70.04 400.68 68.34 395.67 C 66.56 391.50 60.77 391.42 57.23 393.23 M 162.91 394.91 C 165.08 395.02 167.25 395.03 169.42 395.00 C 169.34 394.32 169.18 392.94 169.10 392.25 C 167.05 393.04 163.62 392.26 162.91 394.91 M 36.61 401.57 C 34.40 404.14 34.82 407.77 35.03 410.91 C 35.88 409.27 36.75 407.65 37.86 406.18 C 40.41 407.29 43.70 410.87 40.99 413.46 C 38.85 413.77 37.05 412.06 35.18 411.29 C 35.34 411.92 35.66 413.17 35.82 413.79 C 37.28 421.75 46.86 424.25 49.34 431.70 C 52.00 432.86 54.59 434.19 57.46 434.76 C 57.58 436.23 57.47 437.70 57.11 439.13 C 54.72 438.51 52.36 437.80 49.94 437.31 C 50.93 440.19 53.19 442.28 56.14 443.04 C 57.15 441.77 58.67 440.70 58.81 438.96 C 60.18 431.78 56.40 425.22 54.47 418.55 C 52.55 412.07 49.17 405.26 42.67 402.37 C 40.84 401.63 38.47 400.19 36.61 401.57 M 53.47 404.89 C 55.09 406.91 57.67 407.34 60.05 407.83 C 58.18 406.23 55.99 404.99 53.47 404.89 M 38.23 409.46 C 37.91 410.89 38.42 411.41 39.75 411.03 C 40.08 409.60 39.57 409.07 38.23 409.46 M 57.83 409.53 C 58.03 413.40 55.91 417.64 58.23 421.17 C 58.77 417.45 60.78 412.63 57.83 409.53 M 59.45 424.92 C 59.75 425.22 60.34 425.82 60.64 426.13 C 62.88 422.03 64.11 417.27 62.61 412.69 C 61.19 416.67 61.22 421.04 59.45 424.92 M 61.09 429.28 C 61.52 432.29 61.85 435.31 62.24 438.33 C 67.42 432.96 68.86 425.06 66.58 418.05 C 65.36 422.06 64.04 426.16 61.09 429.28 Z" />
<path fill="#020202" opacity="1.00" d=" M 130.14 43.62 C 133.05 42.60 135.89 41.34 138.92 40.69 C 139.85 42.46 139.87 44.48 139.97 46.43 C 136.53 46.15 133.26 45.04 130.14 43.62 M 137.12 43.10 C 137.79 43.77 137.79 43.77 137.12 43.10 Z" />
<path fill="#020202" opacity="1.00" d=" M 105.85 49.84 C 108.58 47.44 112.61 48.05 115.99 47.90 C 113.97 50.70 112.16 54.16 108.83 55.56 C 105.72 56.35 103.60 51.94 105.85 49.84 M 106.72 53.46 C 109.24 53.85 110.58 51.69 111.73 49.86 C 109.43 49.97 107.03 50.86 106.72 53.46 Z" />
<path fill="#020202" opacity="1.00" d=" M 128.65 53.16 C 131.22 53.31 134.00 54.61 134.78 57.26 C 135.17 60.23 131.23 64.30 128.87 60.85 C 128.34 58.32 128.64 55.72 128.65 53.16 M 130.55 56.02 C 130.56 57.36 130.59 58.71 130.64 60.06 C 132.98 59.86 133.10 55.78 130.55 56.02 Z" />
<path fill="#020202" opacity="1.00" d=" M 119.48 111.47 C 123.39 109.53 128.50 111.61 131.23 114.74 C 135.06 119.69 133.82 128.03 128.21 131.15 C 123.89 133.73 118.54 130.76 115.76 127.21 C 112.89 122.04 114.33 114.69 119.48 111.47 M 121.31 113.14 C 116.72 115.39 115.26 122.00 117.71 126.28 C 119.68 128.59 123.25 131.15 126.31 129.31 C 130.30 127.47 131.69 122.40 130.63 118.40 C 129.68 114.57 125.08 111.69 121.31 113.14 Z" />
<path fill="#020202" opacity="1.00" d=" M 121.41 115.34 C 123.51 114.54 126.08 114.74 127.86 116.19 C 131.80 119.67 129.18 127.55 123.92 128.03 C 117.12 129.14 115.47 117.57 121.41 115.34 M 120.62 118.46 C 122.28 118.32 123.93 118.07 125.58 117.87 C 126.16 119.09 126.60 120.47 127.88 121.15 C 127.44 119.96 126.97 118.79 126.48 117.63 C 124.52 117.56 121.77 116.09 120.62 118.46 M 119.70 120.78 C 119.90 122.63 120.16 125.21 122.27 125.84 C 124.54 126.78 125.99 124.20 127.34 122.84 C 125.79 123.56 124.33 124.46 122.86 125.31 C 121.82 123.79 120.83 122.23 119.70 120.78 Z" />
<path fill="#020202" opacity="1.00" d=" M 44.97 407.71 C 47.93 407.66 50.40 411.20 48.91 413.85 C 45.23 415.78 42.95 410.44 44.97 407.71 Z" />
<path fill="#020202" opacity="1.00" d=" M 40.73 415.68 C 42.78 415.53 44.45 416.63 45.90 417.95 C 45.47 419.41 44.96 420.86 44.38 422.28 C 41.12 421.60 39.66 418.77 40.73 415.68 Z" />
<path fill="#020202" opacity="1.00" d=" M 48.63 417.48 C 52.39 416.55 52.80 420.65 53.14 423.28 C 51.32 423.38 48.78 423.26 48.43 420.97 C 48.48 420.10 48.58 418.35 48.63 417.48 Z" />
</g>
<g id="#ffffffff">
<path fill="#ffffff" opacity="1.00" d=" M 112.91 5.91 C 117.79 3.21 123.44 1.80 129.02 1.87 C 133.43 1.91 137.09 4.66 141.20 5.85 C 143.93 8.55 145.45 12.44 145.80 16.24 C 143.94 17.17 141.04 17.47 140.70 19.98 C 141.34 22.05 142.36 23.98 143.11 26.02 C 140.05 27.20 136.67 28.37 133.41 27.26 C 133.61 25.56 133.83 23.86 133.96 22.16 C 130.36 22.61 126.95 23.83 123.50 24.84 C 124.65 22.46 126.40 20.37 127.06 17.77 C 122.72 19.02 119.74 22.87 115.73 24.89 C 114.16 23.93 111.75 23.37 111.90 21.08 C 111.94 19.04 109.99 18.10 108.65 16.94 C 110.80 13.54 111.49 9.56 112.91 5.91 Z" />
<path fill="#ffffff" opacity="1.00" d=" M 142.98 5.26 C 149.03 7.25 152.65 13.26 155.36 18.66 C 157.24 22.15 153.88 25.45 154.62 28.96 C 155.72 37.23 149.40 43.96 148.68 51.94 C 148.40 54.61 149.34 57.17 150.03 59.71 C 148.44 59.47 146.84 59.28 145.24 59.13 C 144.17 61.44 142.91 63.66 140.97 65.37 C 139.14 62.87 140.47 59.31 142.41 57.37 C 147.93 55.12 147.85 48.37 149.95 43.66 C 151.08 41.65 150.55 39.37 148.96 37.80 C 147.36 38.18 145.79 38.61 144.20 39.01 C 141.93 37.47 140.99 35.10 141.43 32.41 C 138.64 32.14 135.83 32.31 133.03 32.25 C 135.38 28.43 140.41 29.70 143.84 27.67 C 145.99 25.13 143.40 22.14 142.31 19.76 C 143.85 18.61 146.15 18.41 147.27 16.80 C 147.82 12.42 144.91 8.87 142.98 5.26 Z" />
<path fill="#ffffff" opacity="1.00" d=" M 103.15 24.17 C 103.96 20.03 105.00 15.71 107.84 12.45 C 107.59 14.25 107.17 16.01 106.75 17.77 C 107.78 18.63 108.82 19.47 109.86 20.31 C 109.92 21.46 109.99 22.61 110.07 23.76 C 111.12 24.47 112.18 25.18 113.22 25.92 C 110.30 26.28 107.09 26.61 105.78 29.65 C 105.18 27.69 103.62 26.13 103.15 24.17 Z" />
<path fill="#ffffff" opacity="1.00" d=" M 109.50 29.15 C 113.54 28.73 117.24 27.06 120.57 24.79 C 121.39 25.64 122.22 26.48 123.05 27.31 C 125.59 26.51 128.14 25.73 130.71 25.01 C 131.72 28.67 130.76 32.45 131.41 36.16 C 129.02 38.06 126.08 38.92 123.06 39.04 C 121.81 37.19 120.93 34.87 118.88 33.75 C 115.70 33.07 112.39 33.55 109.61 35.25 C 112.23 38.99 114.98 43.49 119.89 44.27 C 121.44 42.81 122.86 41.01 125.10 40.65 C 124.59 44.45 123.72 48.20 122.90 51.94 C 121.28 51.80 119.66 51.54 118.03 51.58 C 115.94 53.16 118.04 55.55 118.92 57.18 C 117.08 57.17 114.57 55.91 113.29 57.86 C 115.34 58.74 117.48 59.40 119.55 60.22 C 118.04 60.61 116.52 61.01 115.01 61.41 C 114.91 63.92 116.55 66.10 116.59 68.53 C 115.59 69.46 114.56 70.60 113.17 70.88 C 108.41 68.12 104.99 63.37 103.95 57.96 C 102.12 53.56 103.62 48.88 103.77 44.35 C 103.20 43.17 102.39 42.13 101.86 40.94 C 101.77 36.58 101.51 32.20 102.04 27.86 C 103.25 29.68 103.89 33.25 106.73 32.81 C 107.97 31.87 108.65 30.42 109.50 29.15 M 105.85 49.84 C 103.60 51.94 105.72 56.35 108.83 55.56 C 112.16 54.16 113.97 50.70 115.99 47.90 C 112.61 48.05 108.58 47.44 105.85 49.84 Z" />
<path fill="#ffffff" opacity="1.00" d=" M 112.42 36.02 C 115.42 34.16 119.33 35.30 120.46 38.72 C 117.71 38.06 114.75 37.78 112.42 36.02 Z" />
<path fill="#ffffff" opacity="1.00" d=" M 132.85 36.90 C 133.49 34.71 136.04 35.08 137.80 34.59 C 138.81 37.86 141.63 39.84 144.32 41.67 C 145.59 42.08 146.85 41.15 148.11 40.99 C 146.71 44.67 145.68 48.48 144.20 52.13 C 143.68 54.27 140.90 54.14 139.85 55.84 C 138.06 59.14 137.28 62.94 135.10 66.04 C 130.95 71.53 123.42 73.28 116.88 72.43 C 117.69 70.95 118.64 69.54 119.24 67.95 C 119.27 66.26 118.24 64.79 117.69 63.24 C 119.01 63.01 120.33 62.77 121.64 62.52 C 121.89 59.56 122.61 56.19 120.00 54.02 C 121.51 53.96 123.30 54.74 124.60 53.69 C 126.69 50.28 126.16 46.09 127.39 42.40 C 128.28 39.73 131.87 39.54 132.85 36.90 M 130.14 43.62 C 133.26 45.04 136.53 46.15 139.97 46.43 C 139.87 44.48 139.85 42.46 138.92 40.69 C 135.89 41.34 133.05 42.60 130.14 43.62 M 128.65 53.16 C 128.64 55.72 128.34 58.32 128.87 60.85 C 131.23 64.30 135.17 60.23 134.78 57.26 C 134.00 54.61 131.22 53.31 128.65 53.16 Z" />
<path fill="#ffffff" opacity="1.00" d=" M 117.21 40.55 C 118.06 39.71 120.19 40.80 119.49 42.02 C 118.59 43.00 116.61 41.78 117.21 40.55 Z" />
<path fill="#ffffff" opacity="1.00" d=" M 137.12 43.10 C 137.79 43.77 137.79 43.77 137.12 43.10 Z" />
<path fill="#ffffff" opacity="1.00" d=" M 106.72 53.46 C 107.03 50.86 109.43 49.97 111.73 49.86 C 110.58 51.69 109.24 53.85 106.72 53.46 Z" />
<path fill="#ffffff" opacity="1.00" d=" M 130.55 56.02 C 133.10 55.78 132.98 59.86 130.64 60.06 C 130.59 58.71 130.56 57.36 130.55 56.02 Z" />
<path fill="#ffffff" opacity="1.00" d=" M 86.89 63.01 C 91.33 60.93 96.04 59.25 101.02 59.49 C 101.57 60.67 102.11 61.85 102.65 63.04 C 99.26 68.27 95.23 73.57 94.64 79.98 C 94.15 84.89 96.85 89.26 97.97 93.89 C 99.41 99.77 99.71 106.13 103.18 111.30 C 113.61 101.27 127.66 96.10 138.07 86.07 C 142.24 82.39 144.09 76.94 145.30 71.67 C 152.32 75.32 160.06 77.47 166.77 81.74 C 165.44 83.90 164.81 87.04 162.24 88.08 C 155.28 89.77 148.08 90.39 141.16 92.23 C 140.34 95.05 142.68 98.12 143.15 101.04 C 139.77 101.98 136.37 102.89 133.12 104.25 C 133.87 106.75 134.72 109.22 135.64 111.66 C 134.74 112.25 133.84 112.83 132.94 113.41 C 133.90 117.44 134.90 121.45 136.11 125.41 C 144.97 124.32 153.56 121.62 162.37 120.19 C 167.53 118.99 172.85 118.93 178.04 118.03 C 179.95 116.01 180.46 113.14 181.53 110.66 C 183.46 112.80 184.84 115.37 186.01 117.99 C 188.44 123.69 192.72 128.45 194.63 134.39 C 196.24 140.92 195.25 148.13 198.75 154.13 C 200.36 161.41 204.07 168.68 202.27 176.29 C 200.50 178.84 197.58 180.25 195.66 182.66 C 194.25 185.37 194.73 188.57 194.72 191.52 C 193.11 191.22 191.50 190.91 189.88 190.66 C 188.99 193.28 190.09 195.89 190.53 198.48 C 187.19 197.41 183.73 196.04 180.24 197.37 C 180.08 193.07 182.37 188.11 179.64 184.29 C 177.07 182.06 173.73 180.75 171.79 177.82 C 173.85 173.34 176.43 168.82 179.95 165.42 C 184.53 166.18 189.01 168.28 193.73 167.14 C 194.09 166.51 194.82 165.25 195.18 164.62 C 190.43 164.93 185.53 164.79 181.34 162.22 C 185.09 160.22 189.36 159.38 193.59 159.86 C 193.44 160.87 193.31 161.89 193.20 162.90 C 194.37 162.95 195.55 162.99 196.72 163.03 C 197.26 162.50 198.34 161.44 198.88 160.91 C 198.37 159.51 197.49 158.11 195.90 157.85 C 189.72 156.08 182.54 157.30 177.79 161.76 C 176.69 162.78 175.53 163.79 173.99 164.03 C 173.69 161.92 173.83 159.74 173.28 157.67 C 170.38 149.98 163.16 144.67 161.19 136.54 C 164.37 137.57 167.53 138.69 170.85 139.17 C 168.42 134.35 161.19 135.60 159.08 130.29 C 164.56 131.76 170.52 134.20 176.18 132.68 C 169.84 130.45 163.04 129.47 157.16 126.01 C 154.97 127.89 153.32 130.32 151.04 132.09 C 147.56 134.34 143.60 135.68 140.01 137.75 C 141.10 140.34 143.72 141.01 146.25 141.39 C 140.11 147.05 132.83 151.18 125.71 155.44 C 126.44 158.36 131.87 160.84 128.92 163.87 C 122.72 169.33 116.31 175.20 107.97 177.01 C 103.09 172.21 97.35 167.91 90.48 166.60 C 90.88 170.32 93.37 173.06 95.85 175.61 C 87.89 174.43 79.64 171.03 71.62 173.56 C 68.66 175.98 72.84 179.30 73.72 181.90 C 73.43 182.60 72.85 183.99 72.57 184.68 C 69.71 184.55 66.64 185.12 63.94 184.03 C 61.55 180.49 59.09 176.01 60.67 171.66 C 67.06 158.42 68.16 143.45 68.83 128.98 C 68.97 124.08 73.02 120.06 72.39 115.05 C 71.21 112.81 69.33 111.00 68.26 108.70 C 67.59 104.98 67.71 100.85 64.95 97.90 C 62.12 98.70 59.15 99.88 56.17 99.10 C 54.29 98.48 52.67 97.28 50.92 96.38 C 50.54 97.88 50.19 99.39 49.89 100.90 C 47.50 97.28 44.23 94.10 39.84 93.17 C 39.28 97.39 36.35 100.62 35.40 104.70 C 31.88 105.14 28.16 104.12 24.80 105.56 C 26.43 107.66 28.32 109.65 29.21 112.22 C 26.15 110.13 24.69 104.99 20.09 106.51 C 17.04 108.87 13.20 109.20 9.75 110.69 C 11.80 107.56 15.62 105.09 15.52 100.99 C 15.42 96.94 19.36 94.77 22.62 93.49 C 26.48 92.14 30.22 90.52 33.90 88.74 C 34.57 89.60 35.24 90.47 35.92 91.33 C 42.43 88.33 46.09 81.76 51.92 77.84 C 54.33 76.11 56.89 74.60 59.43 73.08 C 57.84 83.78 66.93 91.11 70.87 100.02 C 71.95 101.71 71.42 105.17 74.01 105.29 C 76.97 103.83 79.70 101.91 82.42 100.03 C 81.94 97.49 81.38 94.96 81.05 92.39 C 83.45 91.15 85.91 90.02 88.39 88.96 C 87.70 86.36 87.03 83.75 86.53 81.11 C 88.70 80.00 90.91 78.97 93.14 77.99 C 90.85 73.09 87.97 68.38 86.89 63.01 M 119.48 111.47 C 114.33 114.69 112.89 122.04 115.76 127.21 C 118.54 130.76 123.89 133.73 128.21 131.15 C 133.82 128.03 135.06 119.69 131.23 114.74 C 128.50 111.61 123.39 109.53 119.48 111.47 Z" />
<path fill="#ffffff" opacity="1.00" d=" M 70.00 66.21 C 71.55 65.34 73.14 64.55 74.82 63.98 C 77.00 72.42 84.09 78.60 85.64 87.24 C 83.81 88.25 81.95 89.19 80.05 90.08 C 75.67 82.70 69.43 75.33 70.00 66.21 Z" />
<path fill="#ffffff" opacity="1.00" d=" M 77.99 64.53 C 80.29 64.76 82.58 64.51 84.83 64.05 C 85.71 68.56 88.30 72.40 89.97 76.60 C 88.43 77.35 86.90 78.13 85.36 78.89 C 81.47 74.94 79.67 69.67 77.99 64.53 Z" />
<path fill="#ffffff" opacity="1.00" d=" M 134.35 77.29 C 136.72 74.51 137.56 70.89 139.04 67.64 C 138.84 75.27 133.13 81.16 127.18 85.19 C 122.40 88.58 116.27 89.21 111.42 92.43 C 108.68 94.18 108.08 97.51 107.55 100.47 C 106.84 100.53 105.43 100.67 104.73 100.74 C 105.60 99.35 106.55 98.02 107.54 96.71 C 104.58 88.99 102.85 80.90 101.12 72.85 C 103.19 79.79 105.58 86.63 107.63 93.56 C 109.73 91.96 111.90 90.39 114.46 89.60 C 121.85 87.03 129.34 83.52 134.35 77.29 Z" />
<path fill="#ffffff" opacity="1.00" d=" M 62.53 71.56 C 64.00 70.52 65.61 69.69 67.19 68.83 C 68.65 79.98 79.37 87.60 79.55 99.11 C 77.80 100.14 76.06 101.17 74.30 102.18 C 72.11 95.15 66.70 89.91 63.49 83.43 C 61.79 79.79 60.94 75.36 62.53 71.56 Z" />
<path fill="#ffffff" opacity="1.00" d=" M 105.12 68.78 C 107.39 73.25 110.28 77.51 111.50 82.44 C 111.95 84.79 111.95 87.59 109.99 89.29 C 108.03 88.98 108.30 86.70 107.67 85.28 C 105.94 79.99 102.89 74.41 105.12 68.78 Z" />
<path fill="#ffffff" opacity="1.00" d=" M 141.77 68.75 C 143.37 73.74 140.40 78.69 137.76 82.73 C 130.32 90.81 120.21 95.60 111.20 101.64 C 110.94 101.70 110.40 101.82 110.14 101.88 C 110.02 99.72 110.98 97.68 111.44 95.60 C 120.11 90.77 130.30 87.70 136.83 79.81 C 139.60 76.71 140.70 72.65 141.77 68.75 Z" />
<path fill="#ffffff" opacity="1.00" d=" M 109.05 71.26 C 116.58 76.41 126.74 76.08 134.29 71.16 C 132.03 80.44 122.26 84.10 114.22 86.96 C 115.24 81.07 111.20 76.33 109.05 71.26 Z" />
<path fill="#ffffff" opacity="1.00" d=" M 102.44 99.62 C 99.25 91.18 94.88 81.54 99.35 72.73 C 99.93 80.69 102.50 88.25 104.76 95.84 C 103.98 97.10 103.21 98.36 102.44 99.62 Z" />
<path fill="#ffffff" opacity="1.00" d=" M 168.42 84.18 C 170.75 83.81 172.24 86.94 171.33 88.89 C 170.31 91.14 170.25 94.89 167.24 95.35 C 160.13 97.45 152.90 99.04 145.66 100.56 C 144.78 98.44 144.00 96.29 143.32 94.10 C 150.75 92.69 158.17 91.24 165.58 89.72 C 166.50 87.87 167.37 85.98 168.42 84.18 Z" />
<path fill="#ffffff" opacity="1.00" d=" M 170.28 97.26 C 172.12 95.31 172.68 92.48 173.87 90.12 C 175.23 92.26 176.92 94.43 177.00 97.08 C 176.16 99.97 174.97 103.69 171.57 104.34 C 160.47 106.97 149.36 109.69 138.10 111.53 C 137.34 109.50 136.59 107.47 135.96 105.40 C 147.38 102.62 158.89 100.15 170.28 97.26 Z" />
<path fill="#ffffff" opacity="1.00" d=" M 43.40 97.13 C 47.00 99.68 48.31 104.10 51.31 107.20 C 52.24 104.56 52.00 101.76 51.87 99.03 C 55.68 101.68 60.40 101.35 64.78 100.80 C 65.63 105.03 65.82 109.49 68.03 113.30 C 62.52 112.40 58.53 107.68 52.89 107.20 C 52.35 108.47 51.80 109.74 51.25 111.00 C 46.39 108.01 45.10 102.16 43.40 97.13 Z" />
<path fill="#ffffff" opacity="1.00" d=" M 36.97 105.09 C 37.63 102.54 38.64 100.12 40.78 98.45 C 42.75 102.14 43.81 106.32 46.24 109.76 C 48.00 112.29 51.13 112.97 54.02 113.20 C 54.59 112.18 55.16 111.17 55.71 110.15 C 56.04 110.38 56.71 110.85 57.04 111.08 C 52.72 115.08 48.81 119.50 44.45 123.45 C 39.78 127.67 32.94 129.16 26.97 127.14 C 26.81 126.64 26.49 125.66 26.33 125.17 C 28.96 124.65 33.02 126.01 34.35 122.87 C 34.28 119.40 31.80 116.51 31.88 113.00 C 31.84 110.46 29.98 108.55 28.75 106.49 C 31.45 106.22 34.88 107.34 36.97 105.09 Z" />
<path fill="#ffffff" opacity="1.00" d=" M 175.71 105.66 C 177.12 103.75 177.54 100.92 179.83 99.84 C 181.19 105.45 178.67 110.71 176.62 115.77 C 163.69 117.59 150.88 120.09 138.07 122.59 C 137.15 120.02 136.33 117.41 135.90 114.71 C 149.24 111.99 162.49 108.91 175.71 105.66 Z" />
<path fill="#ffffff" opacity="1.00" d=" M 102.94 102.51 C 105.06 102.84 107.21 102.99 109.35 103.20 C 107.42 104.53 105.53 105.90 103.58 107.20 C 103.36 105.64 103.16 104.07 102.94 102.51 Z" />
<path fill="#ffffff" opacity="1.00" d=" M 19.04 111.10 C 18.87 108.55 21.82 108.47 23.62 108.18 C 24.26 110.60 24.73 113.06 25.34 115.49 C 26.47 115.49 27.59 115.45 28.72 115.43 C 30.20 117.48 31.33 119.76 31.81 122.26 C 30.32 122.44 28.83 122.57 27.34 122.62 C 26.46 120.91 26.82 117.65 24.16 117.82 C 23.97 121.17 24.06 124.54 23.82 127.89 C 22.64 127.86 21.46 127.82 20.27 127.77 C 19.50 122.25 19.26 116.66 19.04 111.10 Z" />
<path fill="#ffffff" opacity="1.00" d=" M 13.43 112.48 C 14.12 111.58 15.39 111.61 16.36 111.20 C 17.15 117.08 17.59 123.01 17.95 128.92 C 18.22 130.70 16.37 131.62 15.18 132.49 C 12.49 129.30 9.71 125.93 5.79 124.22 C 6.39 127.05 8.77 128.82 10.48 130.97 C 9.14 131.39 7.78 132.33 6.33 131.80 C 3.50 128.84 3.23 124.56 2.55 120.73 C 3.62 120.28 4.68 119.84 5.75 119.41 C 6.88 121.57 8.00 123.83 10.06 125.25 C 10.68 121.48 7.06 118.15 8.93 114.48 C 12.46 115.98 12.10 121.01 15.35 123.11 C 16.81 119.34 12.33 116.28 13.43 112.48 Z" />
<path fill="#ffffff" opacity="1.00" d=" M 121.31 113.14 C 125.08 111.69 129.68 114.57 130.63 118.40 C 131.69 122.40 130.30 127.47 126.31 129.31 C 123.25 131.15 119.68 128.59 117.71 126.28 C 115.26 122.00 116.72 115.39 121.31 113.14 M 121.41 115.34 C 115.47 117.57 117.12 129.14 123.92 128.03 C 129.18 127.55 131.80 119.67 127.86 116.19 C 126.08 114.74 123.51 114.54 121.41 115.34 Z" />
<path fill="#ffffff" opacity="1.00" d=" M 186.17 114.06 C 193.91 118.52 195.98 127.82 197.86 135.86 C 198.77 140.93 201.75 145.27 202.92 150.26 C 204.19 154.64 207.66 158.03 208.66 162.53 C 209.36 164.62 208.43 166.75 208.06 168.81 C 205.67 178.74 205.74 189.12 203.13 199.00 C 201.06 200.72 198.41 201.76 196.98 204.19 C 195.68 203.07 194.30 202.02 193.19 200.71 C 192.84 198.17 192.55 195.62 191.96 193.12 C 193.61 193.30 195.26 193.48 196.92 193.61 C 196.82 190.54 196.21 187.35 197.29 184.39 C 199.17 181.31 203.48 180.03 204.12 176.17 C 206.04 169.26 202.35 162.61 201.35 155.88 C 201.06 151.96 197.45 149.09 197.95 145.02 C 198.69 133.32 189.82 124.47 186.17 114.06 Z" />
<path fill="#ffffff" opacity="1.00" d=" M 120.62 118.46 C 121.77 116.09 124.52 117.56 126.48 117.63 C 126.97 118.79 127.44 119.96 127.88 121.15 C 126.60 120.47 126.16 119.09 125.58 117.87 C 123.93 118.07 122.28 118.32 120.62 118.46 Z" />
<path fill="#ffffff" opacity="1.00" d=" M 119.70 120.78 C 120.83 122.23 121.82 123.79 122.86 125.31 C 124.33 124.46 125.79 123.56 127.34 122.84 C 125.99 124.20 124.54 126.78 122.27 125.84 C 120.16 125.21 119.90 122.63 119.70 120.78 Z" />
<path fill="#ffffff" opacity="1.00" d=" M 143.45 138.63 C 148.47 136.79 153.10 134.02 156.76 130.08 C 157.12 131.95 157.90 133.84 157.46 135.77 C 156.53 141.05 156.06 146.43 154.82 151.65 C 152.76 155.79 148.52 158.14 145.29 161.28 C 133.88 170.86 122.88 182.98 107.35 185.22 C 102.55 186.47 97.79 184.45 93.49 182.48 C 90.28 180.92 87.79 178.31 86.02 175.25 C 90.21 176.11 94.39 177.12 98.68 177.29 C 98.31 173.68 94.27 172.34 93.01 169.14 C 98.93 170.36 103.46 174.70 107.34 179.06 C 115.12 177.37 121.36 172.17 127.70 167.68 C 129.75 165.93 132.19 163.44 131.51 160.49 C 130.52 158.81 129.02 157.51 127.74 156.06 C 135.91 151.88 143.40 146.40 149.98 140.03 C 147.90 139.17 145.65 138.96 143.45 138.63 Z" />
<path fill="#ffffff" opacity="1.00" d=" M 134.14 174.18 C 140.49 168.83 146.70 163.31 153.08 157.99 C 153.30 161.04 152.45 164.06 150.56 166.48 C 146.47 172.85 139.22 175.81 133.31 180.12 C 138.39 180.85 142.11 176.32 146.28 174.16 C 146.75 178.25 149.32 182.53 147.78 186.58 C 145.68 187.55 143.49 188.99 141.07 188.41 C 130.39 186.67 121.03 195.36 110.38 193.49 C 102.59 190.80 94.22 191.90 86.20 190.57 C 82.19 189.85 78.56 187.93 74.96 186.15 C 75.19 184.46 75.67 182.77 75.56 181.06 C 74.57 178.91 72.81 177.14 72.33 174.76 C 76.80 173.68 81.38 174.25 85.83 175.09 C 86.07 176.69 86.08 178.50 87.27 179.75 C 92.69 185.63 100.94 189.55 109.03 188.00 C 118.56 185.92 126.49 179.91 134.14 174.18 Z" />
<path fill="#ffffff" opacity="1.00" d=" M 64.15 186.69 C 69.84 185.81 75.06 188.65 80.04 190.97 C 83.62 192.52 86.03 195.83 89.57 197.49 C 97.45 201.54 106.43 202.40 114.70 205.42 C 112.05 206.57 109.40 207.85 107.47 210.07 C 111.43 217.83 122.75 215.72 127.49 222.75 C 125.94 225.06 124.00 227.10 122.61 229.52 C 122.35 233.91 122.60 238.35 121.80 242.71 C 108.83 242.47 95.83 245.24 84.31 251.28 C 85.80 245.99 85.58 239.26 90.89 236.06 C 90.41 235.07 89.93 234.08 89.45 233.09 C 91.70 229.67 95.80 227.77 97.55 224.06 C 97.42 223.58 97.16 222.61 97.03 222.12 C 90.19 223.46 83.95 226.56 77.99 230.06 C 69.51 227.62 67.62 217.63 60.81 213.01 C 58.66 216.36 58.28 220.98 60.72 224.30 C 63.28 227.85 66.82 230.59 69.36 234.18 C 66.82 234.79 63.33 234.32 61.83 236.96 C 61.04 238.01 61.15 239.36 61.05 240.59 C 64.25 242.30 68.59 242.62 70.54 246.07 C 70.53 249.23 67.67 251.73 68.15 254.96 C 68.57 259.77 66.81 264.35 65.67 268.94 C 59.76 269.05 53.54 270.71 50.00 275.82 C 48.63 264.47 55.07 252.74 50.21 241.76 C 47.08 237.00 44.14 231.31 46.28 225.49 C 51.15 212.08 58.50 199.77 64.15 186.69 Z" />
<path fill="#ffffff" opacity="1.00" d=" M 129.22 192.37 C 134.53 190.87 140.13 190.54 145.58 191.41 C 147.14 199.81 150.44 207.71 153.37 215.69 C 154.48 218.31 153.76 221.21 153.29 223.90 C 150.96 233.62 144.97 241.97 142.45 251.63 C 137.96 246.66 131.87 242.97 125.03 242.72 C 125.44 238.58 124.83 234.41 125.35 230.29 C 125.60 227.97 127.45 226.44 128.96 224.88 C 130.38 223.74 129.79 221.48 128.59 220.42 C 123.48 215.41 115.50 215.26 110.29 210.40 C 113.31 208.58 116.73 207.64 119.91 206.16 C 109.94 199.59 96.27 201.40 87.06 193.28 C 96.87 192.00 106.30 196.38 116.08 195.96 C 120.70 195.80 124.78 193.38 129.22 192.37 Z" />
<path fill="#ffffff" opacity="1.00" d=" M 182.52 199.15 C 184.94 198.90 187.24 199.66 189.37 200.75 C 188.63 205.61 190.44 210.73 188.37 215.34 C 187.49 217.54 188.21 219.89 188.53 222.12 C 186.36 223.92 184.63 226.66 181.64 227.10 C 181.54 224.16 180.17 221.63 178.08 219.62 C 178.71 218.21 179.32 216.79 179.83 215.34 C 177.26 216.52 175.33 218.69 172.85 219.99 C 169.37 219.80 167.40 216.02 166.10 213.19 C 169.82 213.30 173.65 213.06 176.86 210.98 C 177.13 206.38 180.51 203.04 182.52 199.15 Z" />
<path fill="#ffffff" opacity="1.00" d=" M 191.48 202.68 C 193.14 203.79 194.71 205.03 196.29 206.25 C 195.75 213.21 197.94 220.02 200.72 226.31 C 201.60 228.97 198.29 230.24 196.87 231.91 C 195.50 232.86 196.60 234.57 196.58 235.87 C 195.86 238.58 194.43 241.05 192.72 243.25 C 192.44 242.33 191.89 240.49 191.61 239.57 C 189.92 240.45 188.27 241.39 186.53 242.17 C 187.85 239.16 191.06 237.37 192.08 234.28 C 191.39 234.26 190.00 234.23 189.31 234.21 C 186.39 236.84 184.74 242.44 179.84 241.05 C 181.65 236.96 186.01 234.61 187.32 230.27 C 183.13 232.50 179.99 236.11 176.94 239.64 C 174.74 239.12 172.66 238.24 170.93 236.77 C 171.03 234.34 171.57 231.90 173.81 230.55 C 173.82 232.50 173.70 234.46 173.72 236.43 C 176.34 234.34 178.56 231.79 180.43 229.02 C 184.88 229.07 188.18 225.99 190.78 222.73 C 190.88 220.62 189.71 218.47 190.59 216.43 C 192.44 212.04 191.07 207.26 191.48 202.68 Z" />
<path fill="#ffffff" opacity="1.00" d=" M 61.90 217.59 C 66.85 222.15 69.81 228.97 76.28 231.75 C 82.82 231.21 87.66 225.69 94.09 224.50 C 91.42 227.90 86.32 230.81 87.48 235.84 C 82.69 239.26 83.49 245.61 81.65 250.56 C 81.03 255.46 75.38 257.78 74.99 262.83 C 75.82 267.73 80.97 269.61 85.29 270.20 C 85.16 270.93 84.91 272.38 84.78 273.11 C 79.25 272.93 73.66 272.31 68.53 270.10 C 69.77 265.14 70.86 260.13 70.93 254.99 C 70.79 251.22 75.38 247.42 71.99 243.96 C 70.10 240.69 65.06 241.40 63.61 238.00 C 66.45 236.80 69.55 236.60 72.55 236.03 C 71.23 228.69 60.15 226.14 61.90 217.59 Z" />
<path fill="#ffffff" opacity="1.00" d=" M 94.75 249.16 C 106.80 244.97 120.03 243.57 132.51 246.65 C 133.89 247.17 134.98 248.21 136.17 249.05 C 132.71 265.68 123.74 280.47 114.34 294.38 C 109.51 301.97 111.58 311.75 107.21 319.53 C 101.64 317.05 95.84 315.23 89.88 314.02 C 91.96 307.86 94.05 301.57 94.10 294.99 C 94.39 291.71 93.25 288.51 93.42 285.26 C 94.90 277.84 101.52 273.07 104.07 266.12 C 105.65 261.82 107.85 256.36 104.75 252.23 C 102.48 249.01 98.24 249.22 94.75 249.16 Z" />
<path fill="#ffffff" opacity="1.00" d=" M 81.51 256.53 C 84.48 253.88 87.98 251.90 91.52 250.13 C 89.27 255.96 86.99 261.78 85.43 267.85 C 82.93 267.04 79.60 267.24 78.07 264.69 C 77.35 261.57 79.36 258.59 81.51 256.53 Z" />
<path fill="#ffffff" opacity="1.00" d=" M 85.68 279.78 C 87.91 270.19 89.24 260.21 93.96 251.41 C 97.40 251.61 101.19 251.63 103.78 254.27 C 105.22 264.62 97.34 272.41 92.27 280.42 C 89.39 287.67 93.84 295.73 90.99 303.02 C 89.65 306.60 88.45 310.24 87.16 313.85 C 83.46 313.84 79.77 313.81 76.07 313.93 C 77.77 309.66 76.26 305.26 75.44 300.99 C 74.70 298.13 75.96 295.34 76.88 292.70 C 78.67 287.67 83.83 284.76 85.68 279.78 Z" />
<path fill="#ffffff" opacity="1.00" d=" M 135.94 259.76 C 136.62 256.81 137.50 253.92 138.57 251.10 C 139.51 252.58 141.59 253.85 141.17 255.87 C 140.07 257.83 137.81 258.70 135.94 259.76 Z" />
<path fill="#ffffff" opacity="1.00" d=" M 51.83 278.04 C 53.67 274.33 57.42 272.29 61.32 271.41 C 61.87 272.95 62.39 274.51 62.90 276.08 C 59.23 276.84 55.56 277.62 51.83 278.04 Z" />
<path fill="#ffffff" opacity="1.00" d=" M 63.96 271.62 C 70.67 273.14 77.26 275.49 84.22 275.64 C 84.37 280.08 80.80 283.09 78.22 286.21 C 76.27 288.29 74.87 290.76 73.50 293.23 C 70.14 286.10 66.12 279.25 63.96 271.62 Z" />
<path fill="#ffffff" opacity="1.00" d=" M 112.16 311.86 C 114.48 316.27 120.46 314.30 123.38 317.65 C 125.79 323.00 123.66 328.99 121.11 333.88 C 118.12 330.39 115.08 326.37 110.18 325.74 C 109.86 324.19 109.42 322.68 109.15 321.13 C 110.31 318.09 111.71 315.11 112.16 311.86 Z" />
<path fill="#ffffff" opacity="1.00" d=" M 74.14 317.09 C 76.06 315.59 78.73 316.12 81.01 315.94 C 84.58 315.51 86.64 319.00 88.91 321.12 C 83.41 320.84 77.82 319.98 72.41 321.52 C 72.95 320.03 73.18 318.38 74.14 317.09 Z" />
<path fill="#ffffff" opacity="1.00" d=" M 87.16 316.14 C 93.36 316.55 99.35 318.41 105.00 320.92 C 107.59 322.16 107.58 325.29 107.64 327.76 C 103.04 324.48 97.55 323.25 92.21 321.80 C 90.37 320.07 88.97 317.91 87.16 316.14 Z" />
<path fill="#ffffff" opacity="1.00" d=" M 126.38 317.09 C 128.13 318.10 129.86 319.14 131.62 320.13 C 130.84 325.92 129.82 331.72 127.72 337.20 C 126.15 336.74 124.59 336.27 123.03 335.81 C 125.88 330.03 128.16 323.58 126.38 317.09 Z" />
<path fill="#ffffff" opacity="1.00" d=" M 133.78 322.69 C 134.08 322.47 134.67 322.04 134.96 321.82 C 134.42 327.10 133.32 332.36 131.23 337.26 C 130.87 338.23 130.25 338.99 129.34 339.54 C 131.57 334.12 132.80 328.43 133.78 322.69 Z" />
<path fill="#ffffff" opacity="1.00" d=" M 71.02 325.35 C 74.30 321.71 79.70 322.83 84.04 323.00 C 86.28 323.44 89.25 322.68 90.68 324.91 C 84.11 324.64 77.57 324.74 71.02 325.35 Z" />
<path fill="#ffffff" opacity="1.00" d=" M 92.18 324.35 C 97.66 325.21 103.81 326.62 107.25 331.40 C 103.67 330.31 100.53 328.15 96.91 327.20 C 95.22 326.52 92.80 326.42 92.18 324.35 Z" />
<path fill="#ffffff" opacity="1.00" d=" M 137.33 324.73 C 138.01 325.69 139.29 326.61 138.76 327.97 C 137.90 332.64 136.46 337.22 134.45 341.53 C 133.98 341.64 133.05 341.87 132.58 341.98 C 134.25 336.26 136.15 330.60 137.33 324.73 Z" />
<path fill="#ffffff" opacity="1.00" d=" M 72.44 327.65 C 77.96 326.65 83.62 326.54 89.20 327.09 C 89.08 327.57 88.82 328.53 88.69 329.01 C 82.19 329.05 75.67 328.82 69.25 330.06 C 70.03 328.94 70.95 327.74 72.44 327.65 Z" />
<path fill="#ffffff" opacity="1.00" d=" M 91.33 327.92 C 96.43 328.79 101.35 330.62 105.67 333.47 C 105.80 334.07 106.06 335.28 106.19 335.88 C 101.39 333.57 96.61 331.26 91.54 329.61 C 91.49 329.19 91.38 328.34 91.33 327.92 Z" />
<path fill="#ffffff" opacity="1.00" d=" M 110.12 328.19 C 114.70 329.11 117.19 333.27 119.67 336.80 C 116.64 340.69 112.41 344.09 107.21 343.95 C 108.07 338.67 109.08 333.43 110.12 328.19 Z" />
<path fill="#ffffff" opacity="1.00" d=" M 139.68 334.76 C 140.52 333.01 140.18 329.96 142.40 329.40 C 142.00 334.54 140.85 339.74 138.33 344.28 C 137.96 344.46 137.23 344.83 136.86 345.01 C 136.13 341.27 139.08 338.29 139.68 334.76 Z" />
<path fill="#ffffff" opacity="1.00" d=" M 68.11 334.42 C 73.45 329.91 81.20 331.58 87.67 331.36 C 87.66 331.77 87.64 332.58 87.63 332.99 C 81.03 331.82 74.60 333.55 68.11 334.42 Z" />
<path fill="#ffffff" opacity="1.00" d=" M 89.87 331.90 C 95.13 332.53 99.93 335.01 104.40 337.72 C 104.70 338.11 105.29 338.89 105.59 339.28 C 100.79 336.82 95.74 335.03 90.61 333.44 C 90.42 333.05 90.05 332.28 89.87 331.90 Z" />
<path fill="#ffffff" opacity="1.00" d=" M 144.51 333.68 C 150.34 339.32 153.73 346.90 158.93 353.07 C 164.33 358.15 163.14 367.74 157.77 372.41 C 156.62 361.26 147.06 354.36 139.85 346.93 C 141.82 342.67 143.42 338.26 144.51 333.68 Z" />
<path fill="#ffffff" opacity="1.00" d=" M 68.06 338.31 C 73.09 334.30 80.49 335.04 86.65 335.06 C 86.69 350.87 84.90 366.82 79.61 381.78 C 78.14 385.86 76.04 389.69 74.74 393.85 C 74.11 395.93 72.96 397.80 71.69 399.55 C 70.93 396.63 70.54 393.00 67.62 391.35 C 65.21 389.62 62.17 389.45 59.32 389.42 C 61.15 372.21 65.34 355.37 68.06 338.31 Z" />
<path fill="#ffffff" opacity="1.00" d=" M 89.32 335.72 C 94.61 337.01 100.07 338.42 104.38 341.96 C 102.64 357.39 97.47 372.39 90.06 386.02 C 84.89 394.06 80.07 402.34 76.13 411.07 C 74.49 414.65 73.20 418.48 70.58 421.50 C 68.88 417.83 65.82 414.45 65.91 410.22 C 67.09 407.98 68.43 405.83 69.78 403.70 C 71.16 402.41 73.07 401.75 74.20 400.19 C 76.64 397.19 77.31 393.29 78.60 389.76 C 81.54 381.47 85.01 373.30 86.70 364.63 C 88.13 355.05 88.81 345.39 89.32 335.72 Z" />
<path fill="#ffffff" opacity="1.00" d=" M 120.40 339.34 C 121.61 336.90 124.17 338.91 125.94 339.42 C 123.94 345.33 118.15 349.34 112.35 351.05 C 110.92 349.57 109.52 348.05 108.16 346.51 C 112.97 345.65 117.53 343.43 120.40 339.34 Z" />
<path fill="#ffffff" opacity="1.00" d=" M 121.01 349.01 C 124.30 346.78 126.19 343.17 129.11 340.58 C 126.87 346.86 121.23 352.07 114.80 353.76 C 116.16 351.41 119.05 350.74 121.01 349.01 Z" />
<path fill="#ffffff" opacity="1.00" d=" M 131.20 342.95 C 131.75 343.25 132.83 343.86 133.38 344.17 C 130.21 350.12 124.68 356.21 117.45 356.23 C 122.83 352.71 128.14 348.78 131.20 342.95 Z" />
<path fill="#ffffff" opacity="1.00" d=" M 135.03 345.86 C 135.53 346.18 136.53 346.82 137.03 347.14 C 133.79 352.94 128.12 358.15 121.40 359.10 C 126.83 355.70 132.17 351.80 135.03 345.86 Z" />
<path fill="#ffffff" opacity="1.00" d=" M 126.46 360.87 C 131.36 357.82 135.62 353.84 138.95 349.13 C 146.20 356.07 155.31 363.47 155.40 374.44 C 149.45 374.66 146.31 368.96 141.74 366.27 C 136.68 364.39 131.55 362.69 126.46 360.87 Z" />
<path fill="#ffffff" opacity="1.00" d=" M 164.40 355.00 C 167.65 357.01 170.84 360.07 170.98 364.15 C 171.08 369.73 168.99 375.03 168.56 380.56 C 165.73 380.54 162.90 380.53 160.08 380.72 C 160.12 386.15 160.58 391.57 160.63 397.00 C 163.64 397.80 166.78 397.42 169.85 397.37 C 171.26 403.16 171.44 409.78 167.95 414.90 C 166.67 417.15 163.66 417.52 161.43 416.74 C 156.45 412.80 153.72 406.71 152.85 400.54 C 154.71 400.13 158.07 400.65 158.05 397.89 C 158.63 391.92 158.19 385.93 157.86 379.97 C 152.82 376.93 146.16 379.89 141.48 376.03 C 147.36 375.63 154.03 379.13 159.32 375.29 C 164.49 370.06 165.92 362.03 164.40 355.00 Z" />
<path fill="#ffffff" opacity="1.00" d=" M 153.13 380.90 C 153.70 380.96 154.83 381.08 155.39 381.14 C 156.44 386.76 156.15 392.48 155.62 398.14 C 153.87 397.89 151.66 397.27 152.10 395.00 C 152.39 390.33 150.69 385.17 153.13 380.90 Z" />
<path fill="#ffffff" opacity="1.00" d=" M 162.63 382.97 C 164.92 383.36 169.26 381.62 168.68 385.45 C 166.78 385.68 164.87 385.88 162.96 386.08 C 162.88 385.30 162.71 383.75 162.63 382.97 Z" />
<path fill="#ffffff" opacity="1.00" d=" M 163.17 388.49 C 165.13 388.18 167.09 387.85 169.07 387.63 C 169.12 391.05 165.26 390.52 162.95 390.96 C 163.01 390.34 163.11 389.11 163.17 388.49 Z" />
<path fill="#ffffff" opacity="1.00" d=" M 57.23 393.23 C 60.77 391.42 66.56 391.50 68.34 395.67 C 70.04 400.68 65.69 404.78 63.67 408.93 C 61.81 405.85 58.86 403.72 55.68 402.17 C 55.93 399.15 56.28 396.12 57.23 393.23 Z" />
<path fill="#ffffff" opacity="1.00" d=" M 162.91 394.91 C 163.62 392.26 167.05 393.04 169.10 392.25 C 169.18 392.94 169.34 394.32 169.42 395.00 C 167.25 395.03 165.08 395.02 162.91 394.91 Z" />
<path fill="#ffffff" opacity="1.00" d=" M 36.61 401.57 C 38.47 400.19 40.84 401.63 42.67 402.37 C 49.17 405.26 52.55 412.07 54.47 418.55 C 56.40 425.22 60.18 431.78 58.81 438.96 C 58.67 440.70 57.15 441.77 56.14 443.04 C 53.19 442.28 50.93 440.19 49.94 437.31 C 52.36 437.80 54.72 438.51 57.11 439.13 C 57.47 437.70 57.58 436.23 57.46 434.76 C 54.59 434.19 52.00 432.86 49.34 431.70 C 46.86 424.25 37.28 421.75 35.82 413.79 C 35.66 413.17 35.34 411.92 35.18 411.29 C 37.05 412.06 38.85 413.77 40.99 413.46 C 43.70 410.87 40.41 407.29 37.86 406.18 C 36.75 407.65 35.88 409.27 35.03 410.91 C 34.82 407.77 34.40 404.14 36.61 401.57 M 44.97 407.71 C 42.95 410.44 45.23 415.78 48.91 413.85 C 50.40 411.20 47.93 407.66 44.97 407.71 M 40.73 415.68 C 39.66 418.77 41.12 421.60 44.38 422.28 C 44.96 420.86 45.47 419.41 45.90 417.95 C 44.45 416.63 42.78 415.53 40.73 415.68 M 48.63 417.48 C 48.58 418.35 48.48 420.10 48.43 420.97 C 48.78 423.26 51.32 423.38 53.14 423.28 C 52.80 420.65 52.39 416.55 48.63 417.48 Z" />
<path fill="#ffffff" opacity="1.00" d=" M 53.47 404.89 C 55.99 404.99 58.18 406.23 60.05 407.83 C 57.67 407.34 55.09 406.91 53.47 404.89 Z" />
<path fill="#ffffff" opacity="1.00" d=" M 38.23 409.46 C 39.57 409.07 40.08 409.60 39.75 411.03 C 38.42 411.41 37.91 410.89 38.23 409.46 Z" />
<path fill="#ffffff" opacity="1.00" d=" M 57.83 409.53 C 60.78 412.63 58.77 417.45 58.23 421.17 C 55.91 417.64 58.03 413.40 57.83 409.53 Z" />
<path fill="#ffffff" opacity="1.00" d=" M 59.45 424.92 C 61.22 421.04 61.19 416.67 62.61 412.69 C 64.11 417.27 62.88 422.03 60.64 426.13 C 60.34 425.82 59.75 425.22 59.45 424.92 Z" />
<path fill="#ffffff" opacity="1.00" d=" M 61.09 429.28 C 64.04 426.16 65.36 422.06 66.58 418.05 C 68.86 425.06 67.42 432.96 62.24 438.33 C 61.85 435.31 61.52 432.29 61.09 429.28 Z" />
</g>
</svg>
