<?xml version="1.0" encoding="utf-8"?>
<!-- Generator: Adobe Illustrator 16.0.0, SVG Export Plug-In . SVG Version: 6.00 Build 0)  -->
<!DOCTYPE svg PUBLIC "-//W3C//DTD SVG 1.1//EN" "http://www.w3.org/Graphics/SVG/1.1/DTD/svg11.dtd">
<svg version="1.1" xmlns="http://www.w3.org/2000/svg" xmlns:xlink="http://www.w3.org/1999/xlink" x="0px" y="0px" width="414px"
	 height="439px" viewBox="0 0 414 439" enable-background="new 0 0 414 439" xml:space="preserve">
<g id="Layer_3">
	
		<path fill="#D89F00" stroke="#000000" stroke-width="4" stroke-linecap="round" stroke-linejoin="round" stroke-miterlimit="10" d="
		M292.501,91.348c-1.44-2.519,0.079-7.077-0.39-10.104c-0.385-2.471-1.18-2.98-2.756-4.778c-3.188-3.631-6.283-7.141-3.543-11.689
		c4.141-0.819,9.439,8.505,12.428,2.932c0.873-1.632-1.354-12.778-3.752-13.327h-1.192c-4.495-1.125-7.385-0.105-11.717,0.755
		c-4.712,0.938-8.976-1.215-13.653-1.288c-5.641-0.087-10.902,3.21-16.56,2.51c-5.527-0.684-8.521-5.201-12.675-8.311
		c-3.512-2.63-11.101-6.948-15.668-4.866c-4.604,2.1-2.771,9.529-5.449,13.223c-3.682,5.073-9.709,2.16-13.527-1.091
		c-4.518-3.848-7.773-6.868-13.779-8.231c-9.883-2.243-21.704-1.083-22.231-14.219c-0.164-4.094,1.608-9.431-1.216-12.967
		c-2.997-3.755-8.693-2.765-12.781-2.008c-4.482,0.831-8.81,1.876-13.405,1.708c-4.296-0.156-8.48-1.082-12.801-0.661
		c-11.793,1.15-18.887,12.218-31.011,11.554c-10.852-0.593-20.599-4.478-26.766,6.924c-2.424,4.479-5.248,8.479-7.952,12.773
		c-2.935,4.66-4.006,9.952-6.286,14.896c-1.044,2.264-2.373,4.356-3.805,6.393v0.397c-9.295,2.92-14.017,10.376-20.468,17.332
		c-6.824,7.358-9.724,18.649-11.087,28.483c-0.747,5.386,1.09,10.582,0.838,15.944c-0.256,5.444-3.851,9.389-4.816,14.531
		c-0.979,5.217,2.604,8.749,5.624,12.502c2.991,3.716,4.612,7.877,7.056,11.905c2.935,4.834,7.407,8.105,11.309,12.077
		c4.335,4.413,6.905,9.872,10.563,14.777c8.852,11.872,20.244,4.977,32.624,6.161c5.469,0.521,10.676,1.987,16.048,0.139
		c6.256-2.152,11.699-5.758,18.346-6.919c5.514-0.965,9.43-0.247,13.586,3.369c4.678,4.068,9.523,5.333,15.696,5.897
		c4.143,0.377,13.933-0.926,15.984,3.92c1.797,4.244-2.313,11.579-3.577,15.573c-3.927,12.429,2.968,20.455,12.735,27.949
		l0.38,1.194c6.226,11.116,6.91,24.604,11.066,36.589c5.475,15.786-16.118,23.576-13.867,39.09
		c1.229,8.482,9.645,14.119,13.877,21.073c5.14,8.444,4.596,17.924,5.295,27.412c0.656,8.927,6.564,13.104,11.449,20.536
		c3.155,4.8,1.453,12.395,3.506,17.63c5.213,13.295,28.979,8.377,39.038,4.629c7.456-2.777,14.46-7.106,21.168-11.328
		c7.551-4.752,16.577-10.418,20.586-18.753c2.36-4.91,1.154-10.636,3.776-15.369c3.161-5.703,9.713-8.851,12.366-14.951
		c2.88-6.627-1.711-11.537-2.608-17.884c-1.213-8.575,8.507-13.036,14.813-16.317c5.222-2.719,17.204-6.469,17.701-13.684
		c0.375-5.406-4.343-11.39-5.17-16.839c-1.097-7.203-0.465-14.524-1.679-21.743c-1.219-7.247-3.026-14.021-0.366-21.201
		c1.374-3.711,3.552-7.095,5.664-10.416v0.396c2.386-6.45,8.312-14.492,13.054-19.385c4.596-4.739,10.017-8.84,15.772-12.048
		c12.183-6.79,25.691-15.527,28.385-30.058c1.104-5.959,3.128-11.785,2.741-17.959c-2.737,1.508-5.301,3.753-8.309,4.691
		c-3.482,1.085-6.854-0.123-10.375-0.044c-8.562,0.194-16.794,5.687-24.909,0.563c-3.201-2.021-5.64-4.893-8.257-7.565
		c-3.269-3.334-7.884-6.147-10.431-10.079c-2.39-3.688-1.73-8.487-3.878-12.504c-4.046-7.575-11.793-13.238-15.213-21.054
		c-0.991-2.265-0.715-4.178-0.833-6.566c-0.183-3.648-1.266-7.067-2.733-10.396c-1.734-3.935-5.356-12.751-10.791-12.621"/>
	
		<path fill="#D89F00" stroke="#000000" stroke-width="4" stroke-linecap="round" stroke-linejoin="round" stroke-miterlimit="10" d="
		M375.977,298.445c1.255,6.974-3.438,8.961-7.539,13.628c-2.192,2.499-4.041,4.969-7.14,6.376c-2.733,1.242-5.925,0.758-8.574,1.938
		c-7.264,3.231-1.208,15.453-2.662,21.434c-0.918,3.766-4.215,3.697-6.584,6.3c-2.974,3.261-0.924,3.966,0.623,6.907
		c1.679,3.195-0.083,6.817,1.384,10.011c1.345,2.927,4.985,4.171,7.106,6.479c5.63,1.651,10.223-2.602,11.688-7.653
		c1.831-6.313,3.086-11.575,6.513-17.198c3.279-5.381,4.757-9.943,4.774-16.201c0.008-2.594-0.526-5.601,0.775-7.881
		c1.405-2.462,4.084-2.139,5.687-4.193c2.468-3.168,1.895-13.557-1.611-16.037c-0.368-2.057-0.468-3.679-2.88-4.353
		c-0.625,0.172-0.199,0.366-0.368,0.843"/>
</g>
<g id="Layer_2">
	
		<path opacity="0" fill="none" stroke="#000000" stroke-width="50" stroke-linecap="round" stroke-linejoin="round" stroke-miterlimit="10" d="
		M70.5,38c-12.211,33.013-33.016,63.01-45.494,96.329c5.939-19.703,23.582-40.291,34.271-57.928
		C66.424,64.607,72.22,47.7,82.655,38.292c-0.54,28.353-24.953,56.737-21.987,84.522c11.024-16.092,19.358-36.135,27.367-53.892
		c6.615-14.667,18.044-30.945,21.274-46.699c1.723,15.094-4.339,32.182-7.868,46.758c-4.265,17.615-8.955,36.73-16.743,53.192
		c7.898-18.602,20.573-35.165,29.804-53.174c6.315-12.32,11.617-29.254,21.159-39.44c-1.255,24.628-20.122,45.238-22.301,68.515
		c2.698-15.952,15.807-30.15,23.11-44.172c6.822-13.098,9.874-30.036,19.008-41.745c1.28,18.633-8.626,40.472-13.551,58.319
		c-4.384,15.887-7.933,33.101-13.459,48.524c20.307-28.672,43.501-64.608,52.938-98.063c-0.158,33.67-15.891,67.68-18.761,101.321
		c21.175-20.864,26.109-55.585,45.714-78.096c2.188,23.778-6.555,55.386-16.792,76.608c11.276-14.222,19.832-33.663,28.619-49.557
		c6.395-11.564,13.98-23.459,19.122-35.413c2.141,26.904-9.71,54.771-13.539,81.27c11.974-26.845,24.197-57.012,38.607-82.179
		c2.663,34.298-17.311,66.498-20.144,99.886c12.837-20.535,27.711-42.694,35.354-65.832c-0.709,21.638-6.081,42.571-7.07,63.974
		c10.679-19.642,16.584-40.965,24.848-61.377c0.978,12.953-4.623,25.501-3.865,38.458"/>
	
		<path opacity="0" fill="none" stroke="#000000" stroke-width="50" stroke-linecap="round" stroke-linejoin="round" stroke-miterlimit="10" d="
		M57.5,107c-4.423,38.586-22.523,72.419-32.965,109.213c2.787-16.464,14.825-33.684,21.488-48.852
		c7.116-16.199,15.75-32.51,21.625-49.202c0.542,14.112-7.369,31.375-10.891,44.769c-3.802,14.459-8.573,28.682-12.258,43.143
		c16.335-26.722,31.979-53.952,43.901-83.015c1.726,15.225-9.022,31.561-14.6,45.063c-6.029,14.595-9.66,29.655-15.204,44.331
		c13.18-33.658,32.881-66.63,46.755-99.517c1.85,15.92-9.886,37.932-13.9,52.92c-4.736,17.683-8.393,38.408-16.761,54.665
		c12.051-15.377,20.637-35.235,30.044-52.238c6.422-11.607,13.965-23.208,18.617-35.633c3.102,27.077-20.109,57.785-27.173,83.027
		c8.262-16.024,18.241-31.19,26.508-47.251c7.096-13.785,12.454-36.711,22.939-47.834c-7.673,35.194-23.77,69.335-33.226,104.306
		c10.882-16.238,23.026-31.418,33.282-48.097c7.015-11.409,14.248-28.209,23.698-37.047c2.15,29.261-13.887,61.645-22.698,88.887
		c6.503-20.743,19.896-40.156,29.949-59.323c6.784-12.935,12.198-31.156,22.682-41.508c2.082,27.037-5.891,59.217-15.638,84.478
		c13.699-25.686,28.214-52.644,37.932-80.15c-0.563,32.005-15.564,60.052-25.099,89.735c4.116-15.884,19.503-31.94,27.815-46.059
		c7.78-13.218,12.896-29.769,22.309-41.697c0.805,13.956-6.68,30.07-10.264,43.391c-4.657,17.31-10.243,35.559-15.746,52.197
		c18.286-27.157,35.878-54.292,47.877-84.898c1.537,25.396-18.814,49.888-20.174,75.286c6.826-17.301,16.778-33.33,26.431-49.148
		c7.233-11.855,11.454-26.314,19.652-37.26c1.335,17.374-6.789,37.263-10.231,53.902c-4.024,19.455-7.748,38.974-11.907,58.4
		c8.611-19.965,15.939-40.612,24.322-60.726c7.919-19.004,12.957-42.36,24.867-59.35c1.398,18.651-5.122,38.07-7.911,56.3
		c-2.326,15.199-9.072,33.529-8.071,48.919c11.115-24.484,30.307-46.372,39.85-71.099c1.412,11.294-3.793,24.031-6.765,34.762
		c-3.704,13.379-5.624,28.798-11.847,41.178c6.775-17.872,18.269-34.093,24.638-51.807c1.472,11.388-6.088,27.089-9.86,37.822
		c4.606-14.885,15.545-40.584,25.928-51.799c0.514,10.086-1.809,19.686-1.984,29.649c1.607-5.193,12.449-35.015,15.064-31.833"/>
	
		<path opacity="0" fill="none" stroke="#000000" stroke-width="50" stroke-linecap="round" stroke-linejoin="round" stroke-miterlimit="10" d="
		M172.5,211c0.033,43.657-1.807,86.612-5.063,129.911c10.255-21.015,14.526-44.607,21.567-66.773
		c5.141-16.187,12.707-32.973,13.531-50.128c0.577,30.258-8.548,63.496-18.257,91.972c4.177-27.378,24.661-64.464,42.026-85.984
		c1.457,29.457-5.161,60.373-12.051,89.086c4.715-20.108,21.28-40.685,31.378-58.385c9.357-16.403,16.387-35.838,26.813-51.056
		c-1.363,16.416-9.592,33.424-14.516,49.031c-6.18,19.584-11.817,40.037-19.347,59.15c6.851-17.752,16.821-34.381,25.271-51.418
		c5.771-11.633,9.977-25.644,17.569-35.794c1.345,16.462-9.546,35.607-14.55,50.831c-5.546,16.871-9.004,38.015-18.25,53.503
		c19.736-27.883,32.24-61.751,51.103-90.472c5.183,12.545-4.513,38.063-7.394,50.663c-3.955,17.302-8.716,34.482-13.135,51.646
		c2.622-18.808,12.88-39.958,19.459-57.566c4.959-13.273,8.971-27.399,13.679-40.359c1.929,20.156-6.058,47.013-13.799,65.554
		c0.729-6.786,3.762-14.933,8.109-20.316c-0.167,3.964-0.167,7.933-0.146,11.904"/>
	
		<path opacity="0" fill="none" stroke="#000000" stroke-width="50" stroke-linecap="round" stroke-linejoin="round" stroke-miterlimit="10" d="
		M181.5,324c-6.277,28.348-3.181,59.848-4.184,88.799c7.494-31.825,30.261-62.083,34.199-94.473
		c-0.16,31.142,3.697,64.601-4.806,94.891c-2.704-20.357,6.728-38.983,14.692-57.116c4.3-9.79,8.792-29.849,19.037-35.58
		c0.62,32.704-4.637,65.835-13.134,97.367c2.7-16.365,16.271-38.601,24.401-53.063c7.746-13.775,17.999-26.674,24.9-40.737
		c-0.998,26.677-1.964,52.595-14.035,77.271c7.965-17.624,23.09-29.698,33.302-45.521c3.604,14.729-4.101,29.132-8.484,42.931
		c0.271-5.672,1.963-11.212,3.11-16.768"/>
	
		<path opacity="0" fill="none" stroke="#000000" stroke-width="50" stroke-linecap="round" stroke-linejoin="round" stroke-miterlimit="10" d="
		M374.5,303c0.932,13.303-10.149,30.866-14.936,42.737c-7.239,17.953-12.861,37.438-22.266,54.389
		c0.65-24.945,16.822-49.393,15.201-75.126"/>
</g>
</svg>
