<?xml version="1.0" encoding="UTF-8" ?>
<!DOCTYPE svg PUBLIC "-//W3C//DTD SVG 1.1//EN" "http://www.w3.org/Graphics/SVG/1.1/DTD/svg11.dtd">
<svg width="385pt" height="556pt" viewBox="0 0 385 556" version="1.1" xmlns="http://www.w3.org/2000/svg">
<g id="#010101ff">
<path fill="#010101" opacity="1.00" d=" M 97.38 0.00 L 101.40 0.00 C 108.32 1.33 115.29 3.39 122.41 2.50 C 132.46 1.60 143.03 3.87 152.64 0.00 L 157.28 0.00 C 162.29 1.50 167.75 1.80 172.72 0.00 L 176.29 0.00 C 180.16 1.63 184.89 1.84 187.87 5.11 C 194.13 11.33 197.09 20.04 198.21 28.62 C 199.65 37.98 203.17 47.72 200.07 57.12 C 198.59 61.56 198.84 66.31 197.85 70.84 C 196.65 76.61 197.44 82.73 195.34 88.32 C 194.32 91.11 191.83 93.31 188.81 93.60 C 182.64 94.40 176.41 94.80 170.24 95.69 C 165.84 96.28 162.39 99.60 157.97 100.16 C 150.34 101.42 142.50 100.80 134.92 99.50 C 124.93 99.34 114.95 100.72 104.95 100.43 C 100.41 100.07 96.41 102.57 92.01 103.15 C 85.27 104.22 78.46 103.09 71.88 101.60 C 59.91 100.41 47.86 100.04 35.86 99.15 C 29.33 99.47 25.13 93.85 22.18 88.82 C 19.79 85.18 20.11 80.58 18.16 76.74 C 15.99 72.12 15.72 66.94 14.92 61.97 C 14.33 58.23 15.28 54.52 15.93 50.86 C 14.09 51.26 11.56 50.56 10.26 52.26 C 9.88 63.93 11.56 75.56 12.37 87.18 C 12.74 89.63 12.35 92.76 14.86 94.18 C 22.31 99.82 30.88 103.72 39.23 107.81 C 58.25 116.14 77.32 124.35 96.36 132.65 C 99.42 134.10 102.65 135.47 105.10 137.89 C 106.90 139.72 106.83 142.48 107.17 144.85 C 107.95 154.55 107.51 164.29 107.77 174.01 C 111.78 175.67 116.96 176.51 119.13 180.74 C 120.33 184.05 119.93 187.67 120.12 191.13 C 126.13 189.89 133.00 188.98 138.44 192.50 C 145.31 197.36 149.16 205.67 149.89 213.91 C 150.61 222.58 148.79 231.64 144.00 238.97 C 141.78 242.48 138.10 244.60 134.43 246.32 C 134.24 252.21 132.74 258.23 128.77 262.75 C 126.30 266.25 121.75 268.10 120.50 272.42 C 125.77 271.42 130.68 268.85 136.09 268.51 C 138.97 268.22 141.91 268.54 144.77 268.02 C 147.31 266.59 149.38 264.48 151.60 262.62 C 164.45 251.47 179.58 243.48 194.74 235.99 C 192.03 235.29 189.29 234.74 186.60 233.98 C 187.89 232.61 188.73 229.89 191.06 230.33 C 194.84 230.54 198.13 232.79 201.84 233.31 C 204.32 232.96 206.64 231.92 209.00 231.13 C 208.30 227.54 207.31 223.83 208.11 220.17 C 208.83 217.13 212.70 215.44 212.25 212.09 C 211.67 205.51 212.60 198.87 214.61 192.60 C 215.66 189.52 217.26 186.36 220.19 184.68 C 224.18 184.19 227.59 187.52 229.08 190.94 C 232.10 198.59 232.09 207.01 231.61 215.10 C 233.35 216.45 235.42 217.55 236.63 219.46 C 237.37 222.50 236.56 225.65 236.22 228.69 C 242.55 232.65 243.43 241.76 239.51 247.68 C 237.56 248.75 235.18 247.68 233.08 247.56 C 230.58 253.11 227.79 258.52 224.95 263.89 C 226.97 265.18 229.30 266.20 230.80 268.14 C 232.00 270.77 231.57 273.79 231.79 276.60 C 234.70 277.21 238.28 277.15 240.31 279.72 C 243.89 284.43 244.67 290.55 245.34 296.27 C 246.24 311.50 246.87 326.82 245.29 342.03 C 255.66 340.65 265.53 334.12 276.22 336.86 C 285.57 339.37 295.04 341.52 304.14 344.85 C 325.30 352.37 346.47 359.86 367.64 367.35 C 373.68 369.55 380.35 371.11 385.00 375.87 L 385.00 389.41 C 384.38 396.77 383.96 404.35 381.14 411.27 C 378.89 415.49 373.88 416.90 369.86 418.87 C 339.40 432.86 306.90 441.51 275.80 453.86 C 295.56 452.50 315.77 450.89 335.21 455.77 C 341.63 457.32 348.82 459.70 352.16 465.89 C 353.71 468.54 351.62 471.36 351.38 474.08 C 350.85 483.33 350.84 492.68 352.35 501.84 C 353.49 505.89 356.88 509.42 356.07 513.91 C 355.68 518.96 351.51 522.36 347.60 524.97 C 347.61 531.67 349.95 540.91 343.05 545.12 C 330.84 551.62 317.10 554.72 303.40 556.00 L 292.64 556.00 C 281.32 554.76 269.67 552.48 260.13 545.87 C 254.93 542.46 251.79 536.67 251.33 530.51 C 247.53 530.06 242.92 529.97 240.51 526.49 C 238.27 523.64 238.75 519.19 235.69 516.97 C 232.64 516.25 229.45 516.31 226.40 515.55 C 208.79 510.87 192.01 503.06 177.25 492.36 C 175.25 493.14 173.30 494.32 171.11 494.36 C 166.10 491.64 163.65 486.02 162.24 480.77 C 160.47 474.11 162.03 467.09 165.01 461.03 C 163.78 457.94 160.97 453.91 163.99 450.97 C 168.19 448.25 173.53 449.46 178.11 448.01 C 178.74 446.17 179.07 444.25 179.47 442.37 C 161.66 449.36 141.81 450.52 123.23 446.02 C 121.38 448.02 119.56 450.06 117.75 452.11 C 121.18 455.14 124.31 458.63 128.29 460.96 C 133.08 461.43 138.19 457.64 142.69 460.33 C 148.51 465.41 149.69 473.59 151.27 480.74 C 152.16 486.72 155.00 492.64 153.62 498.77 C 152.07 505.51 146.74 510.55 141.10 514.12 C 134.29 518.40 127.72 523.24 120.14 526.11 C 103.98 532.45 87.94 541.42 70.03 540.61 C 65.09 540.89 59.71 537.22 59.63 531.98 C 59.71 526.87 62.60 522.41 65.30 518.28 C 73.91 506.51 86.31 498.37 98.55 490.81 C 98.77 488.70 98.73 486.51 99.49 484.50 C 100.82 482.20 103.03 480.61 104.62 478.51 C 104.69 475.48 102.95 472.60 103.51 469.57 C 104.75 468.17 106.39 467.24 107.91 466.18 C 105.25 462.81 101.83 460.19 98.84 457.15 C 97.01 455.37 95.92 452.64 96.91 450.16 C 98.40 446.01 100.94 442.36 102.87 438.43 C 89.76 432.34 78.35 422.22 71.54 409.39 C 68.19 403.12 66.59 396.08 66.21 389.03 C 65.99 384.51 63.34 380.53 63.18 376.01 C 62.95 371.60 64.43 367.37 65.44 363.14 C 61.00 363.16 56.52 363.79 52.10 363.11 C 49.67 362.79 46.78 360.82 47.47 358.04 C 48.52 352.79 52.87 349.12 56.47 345.48 C 65.68 337.39 75.87 330.15 83.01 320.00 C 82.62 318.60 82.23 317.20 81.82 315.81 C 76.20 315.33 70.58 316.10 64.96 315.95 C 60.85 315.87 56.52 313.75 54.90 309.79 C 53.77 305.42 56.09 301.08 58.76 297.76 C 61.84 294.06 64.99 290.42 67.66 286.42 C 63.46 282.30 59.44 277.19 59.53 270.99 C 59.30 265.67 62.70 261.22 65.89 257.31 C 62.87 254.54 59.73 251.58 58.40 247.58 C 55.00 237.16 60.55 224.42 71.04 220.61 C 69.48 215.89 68.19 210.70 69.88 205.83 C 71.45 201.27 74.21 196.37 79.20 195.04 C 75.46 198.90 71.55 203.36 70.96 208.92 C 71.18 217.05 76.66 224.74 84.12 227.90 C 91.79 231.28 100.51 231.15 108.69 230.33 C 113.32 229.09 118.31 227.08 121.09 222.96 C 122.99 218.32 121.66 212.89 119.48 208.56 C 118.16 206.40 116.79 203.48 113.90 203.32 C 106.73 202.16 99.56 200.88 92.31 200.29 C 88.34 199.82 84.12 200.00 80.53 197.96 C 82.60 197.21 84.61 196.15 84.81 193.69 C 83.90 193.84 82.07 194.15 81.16 194.30 C 86.01 192.21 83.98 185.99 86.04 182.03 C 87.74 176.83 93.71 175.83 98.14 174.02 C 98.36 164.67 98.41 155.26 96.99 145.99 C 96.70 143.71 94.79 142.16 93.04 140.92 C 70.17 127.25 44.05 120.62 20.33 108.73 C 15.41 106.11 10.29 103.59 6.23 99.71 C 2.71 96.28 3.31 90.98 2.70 86.52 C 1.54 76.14 1.15 65.70 0.00 55.33 L 0.00 50.03 C 1.56 48.24 2.97 46.16 5.14 45.07 C 7.97 43.96 11.06 43.96 14.04 43.64 C 13.64 31.51 15.75 18.84 22.66 8.63 C 25.12 5.02 30.07 5.87 33.77 4.73 C 40.63 2.52 47.90 3.35 54.97 3.45 C 63.32 4.37 71.66 2.76 80.02 3.39 C 86.03 3.82 91.79 1.92 97.38 0.00 M 94.01 5.01 C 91.75 6.62 88.80 5.79 86.24 6.45 C 82.21 7.57 78.09 6.44 74.00 6.58 C 67.64 6.51 61.26 7.78 54.93 6.69 C 51.04 6.03 47.10 6.96 43.20 6.44 C 42.04 6.36 40.77 5.93 39.71 6.65 C 36.21 8.92 31.88 7.80 28.04 8.98 C 30.94 11.09 32.83 14.39 32.99 18.00 C 33.04 20.68 34.60 22.95 35.42 25.42 C 36.42 32.31 39.15 38.91 38.97 45.97 C 38.65 51.32 40.12 56.62 39.24 61.94 C 38.58 65.61 39.25 69.30 39.14 72.98 C 38.38 80.39 38.73 88.31 34.80 94.95 C 47.20 96.00 59.60 97.00 72.02 97.84 C 74.46 97.87 76.52 99.58 78.97 99.52 C 83.64 99.44 88.50 100.69 93.02 98.97 C 95.39 98.21 97.44 96.34 100.06 96.55 C 111.40 96.55 122.74 96.26 134.06 95.55 C 136.21 95.20 138.23 95.93 140.22 96.67 C 145.96 96.31 151.72 97.95 157.39 96.25 C 159.82 96.27 160.79 93.86 162.56 92.75 C 169.07 91.64 175.67 91.25 182.19 90.21 C 185.69 90.60 189.43 89.29 191.41 86.28 C 191.99 82.12 193.80 77.98 192.41 73.80 C 194.52 68.51 194.35 62.76 195.18 57.22 C 197.25 53.89 197.15 49.90 197.15 46.12 C 195.69 42.13 197.02 37.73 195.08 33.85 C 193.59 24.01 192.10 12.89 184.15 5.95 C 179.84 4.60 175.06 2.95 170.57 4.52 C 168.08 4.83 165.54 4.40 163.03 4.68 C 160.58 5.03 158.47 3.21 156.02 3.53 C 152.81 3.33 150.08 5.45 146.93 5.55 C 138.64 5.67 130.34 5.43 122.05 5.61 C 118.94 6.19 115.81 6.35 112.75 5.44 C 106.59 5.03 99.78 1.31 94.01 5.01 M 23.87 13.93 C 18.42 22.87 15.88 33.48 16.59 43.92 C 18.52 43.96 20.45 43.99 22.38 43.98 C 22.85 40.19 23.24 36.23 25.30 32.91 C 26.76 31.56 28.78 33.15 29.64 34.45 C 31.99 40.31 31.98 46.71 32.50 52.91 C 32.81 57.22 33.28 61.73 31.90 65.92 C 31.25 68.78 26.48 69.46 25.50 66.48 C 23.36 61.81 23.35 56.56 22.86 51.55 C 21.48 51.50 20.10 51.45 18.72 51.42 C 17.53 55.51 18.87 59.72 19.19 63.85 C 21.29 68.94 19.87 74.93 23.37 79.50 C 23.08 85.62 27.25 90.27 31.07 94.51 C 35.93 89.63 36.21 82.48 35.98 76.03 C 37.34 71.41 35.74 66.62 36.99 62.00 C 37.50 57.69 36.01 53.38 36.70 49.06 C 37.68 41.45 34.54 34.27 33.34 26.89 C 33.05 24.15 31.13 21.94 30.85 19.20 C 30.21 16.47 30.04 13.14 27.63 11.29 C 25.61 9.92 24.73 12.61 23.87 13.93 M 2.06 50.17 C 2.41 62.45 3.83 74.71 4.79 86.96 C 5.25 91.05 5.59 95.47 8.06 98.92 C 17.77 105.83 28.67 110.87 39.71 115.29 C 58.19 123.40 77.79 129.23 94.98 140.03 C 96.97 141.37 99.05 142.87 100.04 145.14 C 100.88 154.62 100.73 164.16 100.96 173.67 C 102.29 173.67 103.62 173.68 104.95 173.68 C 104.74 162.36 105.42 150.88 103.28 139.69 C 100.85 136.57 96.99 135.15 93.57 133.43 C 73.19 124.45 52.72 115.67 32.36 106.65 C 24.92 102.58 16.65 99.21 10.86 92.84 C 9.43 80.27 8.68 67.63 8.22 54.99 C 8.31 53.52 7.78 51.85 8.61 50.52 C 13.89 48.50 19.69 49.46 25.21 49.25 C 24.84 48.64 24.10 47.41 23.73 46.80 C 20.15 45.70 16.44 47.02 12.92 45.83 C 8.89 45.13 4.38 46.71 2.06 50.17 M 25.89 51.53 C 25.66 56.67 25.32 62.42 28.78 66.68 C 31.89 61.66 30.51 55.08 25.89 51.53 M 98.67 176.99 C 98.44 181.20 98.62 185.42 99.17 189.60 C 104.82 189.35 110.41 190.14 115.86 191.59 C 115.89 187.53 117.42 182.31 113.60 179.44 C 109.09 176.93 103.75 176.02 98.67 176.99 M 89.03 181.04 C 86.29 184.19 86.32 188.62 86.38 192.56 C 89.74 191.28 93.17 190.17 96.73 189.55 C 96.58 185.46 96.45 181.36 96.20 177.28 C 93.75 178.35 90.76 178.79 89.03 181.04 M 86.08 196.46 C 89.76 197.59 93.64 197.54 97.42 197.96 C 97.33 195.81 97.20 193.66 97.04 191.51 C 93.08 192.26 88.47 192.73 86.08 196.46 M 99.38 191.20 C 99.54 193.52 99.71 195.84 99.90 198.16 C 105.19 198.97 110.49 199.74 115.78 200.59 C 115.78 198.51 115.77 196.44 115.71 194.37 C 110.85 191.25 104.93 191.43 99.38 191.20 M 120.21 194.36 C 120.52 197.72 118.55 202.60 121.85 204.78 C 123.85 203.21 125.41 200.62 128.06 200.15 C 129.39 199.90 130.05 200.46 130.05 201.84 C 127.60 203.35 124.85 204.49 123.14 206.92 C 124.29 209.78 125.33 212.68 126.05 215.68 C 128.01 215.27 130.37 214.30 132.07 215.90 C 137.28 220.14 137.73 228.25 134.94 233.97 C 133.54 236.91 130.10 236.86 127.43 235.94 C 126.91 231.59 126.35 227.25 125.51 222.95 C 123.89 225.50 122.10 227.96 119.73 229.87 C 121.25 232.59 122.76 235.37 123.43 238.45 C 123.94 239.85 123.94 241.81 125.61 242.39 C 129.94 244.28 135.28 242.82 138.55 239.52 C 144.73 233.82 145.66 224.85 146.42 216.96 C 147.15 208.13 142.71 199.49 135.75 194.26 C 130.91 191.69 125.19 192.86 120.21 194.36 M 126.50 219.88 C 128.69 224.56 128.93 229.75 129.43 234.81 C 129.97 234.75 131.07 234.63 131.62 234.57 C 135.45 229.35 135.44 219.95 129.06 216.75 C 128.10 217.70 127.30 218.79 126.50 219.88 M 68.89 224.90 C 63.38 229.47 60.08 236.87 61.14 244.05 C 61.57 249.03 65.14 253.12 69.05 255.92 C 78.70 262.01 90.58 264.14 101.81 262.48 C 107.84 261.52 113.90 258.57 117.28 253.30 C 120.61 246.44 120.61 237.81 116.40 231.31 C 104.94 236.22 91.73 234.31 80.63 229.37 C 77.54 228.15 75.58 225.30 72.88 223.50 C 71.41 223.02 70.02 224.09 68.89 224.90 M 193.85 239.21 C 196.02 240.79 198.19 242.51 199.09 245.15 C 201.22 244.03 203.40 242.57 205.95 242.98 C 209.62 243.08 212.28 245.80 214.08 248.74 C 213.89 245.50 213.40 242.29 213.06 239.07 C 214.42 239.01 215.77 238.96 217.13 238.93 C 217.82 242.50 217.97 246.16 217.83 249.79 C 216.46 249.63 215.09 249.44 213.74 249.21 C 215.77 259.31 208.45 269.32 199.62 273.60 C 195.25 275.84 190.16 272.74 188.08 268.80 C 187.12 266.15 187.87 263.28 187.90 260.55 C 182.81 264.03 176.67 267.34 174.87 273.72 C 177.77 276.36 182.06 277.08 184.47 280.22 C 180.27 279.54 176.49 277.37 173.42 274.49 C 171.72 270.57 175.84 267.48 178.07 264.80 C 175.92 263.26 173.49 261.10 174.07 258.15 C 174.75 252.61 179.08 248.62 182.80 244.87 C 164.06 254.97 146.11 267.59 133.30 284.86 C 142.93 297.51 150.63 311.45 159.01 324.93 C 173.69 319.48 188.39 313.92 203.79 310.83 C 205.77 303.06 207.66 295.25 210.52 287.75 C 213.37 289.21 216.65 292.70 219.84 289.80 C 224.51 283.50 228.89 275.99 227.62 267.82 C 225.55 267.33 223.45 267.69 221.37 267.69 C 219.23 266.51 216.96 265.43 215.24 263.66 C 214.55 261.22 215.06 258.56 216.29 256.38 C 219.57 249.88 225.90 245.46 228.90 238.79 C 230.07 236.04 227.95 233.66 226.49 231.56 C 214.93 230.04 204.60 236.26 193.85 239.21 M 177.87 253.87 C 175.76 256.61 174.97 261.93 179.15 263.17 C 183.52 262.62 186.07 258.15 190.45 257.44 C 190.60 261.22 189.63 265.01 190.19 268.78 C 191.93 272.16 196.61 272.67 199.61 270.67 C 206.08 267.45 210.33 260.73 211.91 253.83 C 212.03 251.02 211.99 247.45 209.27 245.80 C 205.06 243.81 200.33 245.78 196.91 248.44 C 196.89 246.32 196.82 244.15 195.85 242.22 C 187.81 241.31 182.04 247.97 177.87 253.87 M 124.19 245.78 C 123.60 251.76 120.93 257.64 116.15 261.42 C 117.58 263.12 118.82 264.95 120.05 266.80 C 126.53 262.46 131.44 255.19 131.01 247.15 C 128.70 246.86 126.42 246.43 124.19 245.78 M 69.05 260.01 C 66.12 263.00 63.54 266.69 63.30 271.01 C 62.63 277.25 67.20 282.69 72.30 285.66 C 80.96 290.47 91.34 289.62 100.83 288.61 C 106.63 287.10 112.73 284.43 116.02 279.16 C 118.77 273.82 116.11 267.87 113.70 262.97 C 112.45 263.38 111.21 263.81 109.97 264.24 C 113.55 268.68 112.38 274.57 112.93 279.83 C 111.00 280.43 109.13 281.66 107.05 281.45 C 103.60 280.13 101.42 276.53 101.11 272.94 C 101.01 270.52 102.15 268.31 102.91 266.08 C 91.33 266.93 79.49 265.27 69.05 260.01 M 105.52 266.31 C 102.35 270.09 102.78 277.15 107.32 279.66 C 112.28 279.00 110.76 272.90 110.51 269.40 C 110.64 266.95 107.57 264.08 105.52 266.31 M 122.31 275.34 C 120.39 276.80 121.72 278.91 122.96 280.28 C 126.17 279.17 129.58 279.61 132.00 282.11 C 134.99 277.91 138.48 274.13 141.92 270.31 C 135.20 270.53 127.90 271.28 122.31 275.34 M 230.03 282.04 C 227.06 285.23 226.20 289.92 222.81 292.77 C 220.64 294.63 217.59 294.29 214.94 294.23 C 217.43 302.90 219.83 312.16 217.70 321.16 C 213.85 319.84 210.56 317.40 207.06 315.41 C 204.83 323.58 203.06 331.87 201.46 340.19 C 206.82 342.14 209.85 347.19 212.13 352.09 C 214.61 351.54 217.08 350.93 219.55 350.32 C 219.15 345.12 221.85 340.66 224.85 336.70 C 225.50 331.72 222.46 327.08 222.33 322.15 C 222.88 322.42 223.97 322.94 224.52 323.21 C 226.09 326.87 226.78 330.81 227.43 334.71 C 232.23 332.90 237.49 333.57 241.90 336.07 C 242.38 320.06 242.80 303.87 239.69 288.08 C 239.33 285.48 238.75 282.77 236.74 280.92 C 234.52 280.11 231.71 280.18 230.03 282.04 M 100.92 292.82 C 100.95 295.15 100.99 297.48 101.00 299.82 C 103.54 299.31 106.37 298.79 108.69 300.30 C 114.56 303.24 114.58 312.02 110.38 316.37 C 108.17 318.70 104.41 317.28 101.98 319.10 C 101.03 321.25 102.07 323.45 102.72 325.50 C 109.11 325.25 116.83 323.12 119.39 316.56 C 121.22 305.64 119.64 294.56 118.90 283.61 C 114.36 288.99 107.52 291.20 100.92 292.82 M 124.58 305.00 C 127.24 299.74 130.05 294.55 132.58 289.23 C 130.85 287.12 129.08 285.06 127.15 283.14 C 121.15 289.07 125.41 297.74 124.58 305.00 M 68.49 291.59 C 65.07 297.40 58.40 302.23 58.43 309.45 C 64.62 315.13 73.52 311.21 80.95 311.96 C 80.68 305.52 80.38 299.07 80.19 292.62 C 77.01 291.65 74.02 290.23 71.02 288.83 C 69.56 288.69 69.37 290.76 68.49 291.59 M 134.19 291.73 C 130.98 297.64 127.96 303.66 124.76 309.58 C 124.05 314.11 124.01 318.88 121.44 322.91 C 139.63 327.96 157.28 334.81 175.64 339.29 C 179.45 340.85 182.95 337.53 186.87 338.00 C 188.04 331.59 189.42 325.22 190.55 318.80 C 183.56 320.95 176.50 322.96 169.70 325.69 C 165.84 327.10 162.09 328.99 157.96 329.48 C 149.97 316.94 142.25 304.23 134.19 291.73 M 84.07 293.03 C 84.44 300.88 83.96 308.85 85.54 316.59 C 87.40 322.62 94.43 324.45 99.97 325.23 C 99.48 322.40 99.21 319.46 100.57 316.81 C 98.81 314.72 95.98 313.08 95.95 310.03 C 95.22 306.59 97.43 303.69 98.90 300.83 C 98.93 298.23 98.62 295.63 98.62 293.03 C 93.77 293.01 88.92 293.01 84.07 293.03 M 212.62 295.31 C 210.73 300.55 209.54 305.99 208.18 311.38 C 210.79 313.35 213.51 315.18 216.30 316.88 C 216.39 309.58 215.84 301.97 212.62 295.31 M 98.48 312.22 C 102.06 310.79 101.27 305.73 100.67 302.67 C 97.87 304.96 97.98 308.97 98.48 312.22 M 104.34 307.27 C 102.89 309.64 102.64 312.58 101.47 315.11 C 103.56 315.42 106.06 316.45 107.93 314.95 C 110.44 313.29 110.62 310.08 110.81 307.38 C 108.66 307.13 106.48 306.84 104.34 307.27 M 193.28 318.10 C 191.01 329.51 188.63 340.90 186.33 352.31 C 189.35 352.94 192.39 353.51 195.44 354.00 C 198.72 341.05 201.84 328.05 204.26 314.91 C 200.58 315.90 196.91 316.96 193.28 318.10 M 84.25 321.88 C 76.03 333.72 63.16 341.07 53.80 351.85 C 51.77 354.37 49.04 357.12 49.74 360.66 C 55.39 361.70 61.15 359.63 66.73 361.08 C 70.53 362.96 68.75 367.51 67.44 370.44 C 64.74 376.32 68.35 382.33 71.65 387.09 C 74.87 386.41 76.41 383.22 77.53 380.45 C 82.98 367.72 86.30 354.24 89.89 340.91 C 89.00 338.59 87.25 336.51 87.26 333.92 C 87.10 331.04 88.84 328.57 90.02 326.09 C 88.10 324.68 86.18 323.26 84.25 321.88 M 121.85 325.44 C 123.36 328.42 124.74 331.60 124.65 335.01 C 124.90 340.89 120.57 346.62 114.84 347.94 C 107.16 349.80 98.96 347.74 92.54 343.30 C 88.25 356.41 85.11 369.94 79.65 382.65 C 78.54 385.46 76.52 387.76 74.04 389.45 C 72.57 389.08 71.11 388.69 69.66 388.28 C 69.35 408.17 83.72 425.63 101.07 433.83 C 103.11 435.16 106.57 436.00 106.56 438.95 C 104.80 443.54 101.55 447.46 100.05 452.16 C 99.17 454.18 101.36 455.24 102.56 456.42 C 106.46 459.51 109.29 463.72 113.20 466.81 C 117.31 470.44 124.06 468.62 127.26 464.64 C 123.34 461.23 119.12 458.12 115.52 454.37 C 114.89 453.30 113.56 451.87 114.72 450.70 C 116.84 447.71 119.23 444.91 121.39 441.95 C 143.72 447.31 168.40 445.14 188.25 433.08 C 189.85 431.80 190.86 434.01 191.84 434.91 C 189.47 437.04 186.66 438.55 183.85 440.00 C 183.61 443.99 182.09 447.79 182.03 451.81 C 185.57 454.01 190.48 453.48 193.17 450.19 C 199.34 442.52 203.03 433.28 207.50 424.60 C 211.07 417.10 214.81 409.52 216.64 401.38 C 210.85 393.79 204.14 386.85 199.25 378.62 C 198.37 375.78 198.17 372.79 197.71 369.87 C 192.45 370.53 187.46 368.75 182.64 366.90 C 185.28 376.91 193.28 384.11 197.84 393.15 C 198.65 395.02 199.59 397.51 198.44 399.39 C 195.93 401.06 192.82 401.56 190.39 403.37 C 187.15 407.58 192.54 413.64 188.57 417.59 C 183.61 421.31 176.64 422.74 170.94 419.88 C 168.24 421.83 165.99 424.64 162.91 425.94 C 146.83 423.50 130.61 420.72 115.41 414.71 C 109.27 410.56 109.43 401.89 104.19 396.88 C 106.60 382.98 110.31 369.20 116.50 356.47 C 117.15 354.94 119.07 355.39 120.32 355.74 C 126.81 357.51 133.37 359.06 139.98 360.33 C 144.37 355.73 150.12 350.74 156.96 351.79 C 160.15 352.21 161.28 355.60 163.48 357.41 C 167.28 358.28 171.17 358.70 174.97 359.57 C 171.81 353.96 172.71 347.07 176.50 342.01 C 158.32 336.37 140.11 330.79 121.85 325.44 M 111.00 336.44 C 106.26 335.54 101.51 334.69 96.79 333.71 C 97.13 332.07 97.59 330.47 98.06 328.88 C 96.35 328.34 94.65 327.81 92.95 327.29 C 90.96 329.83 89.46 333.56 91.43 336.54 C 94.60 342.41 101.60 345.05 108.01 344.81 C 112.59 345.06 117.41 342.77 119.49 338.56 C 121.09 334.29 120.28 329.17 117.11 325.80 C 114.32 328.86 112.53 332.64 111.00 336.44 M 100.34 329.44 C 100.08 330.10 99.54 331.41 99.28 332.07 C 102.70 332.76 106.13 333.45 109.59 333.95 C 110.46 332.01 111.37 330.09 112.24 328.15 C 108.42 329.70 104.37 329.51 100.34 329.44 M 223.26 348.78 C 224.73 348.84 226.81 347.49 227.74 349.24 C 229.73 351.86 230.53 356.09 234.40 356.56 C 238.89 358.21 243.50 354.39 243.98 349.94 C 244.28 345.95 242.81 341.84 240.04 338.94 C 237.95 336.18 233.99 337.03 231.00 337.19 C 225.96 338.51 223.88 344.12 223.26 348.78 M 247.57 346.18 C 248.63 351.10 246.55 355.81 242.88 359.05 C 253.12 356.27 263.40 353.62 273.66 350.91 C 272.34 347.37 272.04 343.58 271.84 339.85 C 263.45 340.71 255.57 343.74 247.57 346.18 M 273.98 340.06 C 274.29 343.39 274.62 346.72 274.98 350.06 C 280.92 350.13 286.01 353.53 291.45 355.48 C 296.80 358.09 302.58 360.11 307.48 363.50 C 310.08 367.35 314.92 366.79 318.95 366.98 C 332.76 372.00 346.31 377.80 360.15 382.72 C 363.87 381.79 367.31 379.99 371.00 378.97 C 373.81 377.98 377.02 377.62 379.19 375.38 C 352.38 365.47 325.33 356.17 298.42 346.49 C 290.37 344.02 282.12 342.22 273.98 340.06 M 177.42 348.39 C 175.91 351.89 177.22 355.86 179.05 358.97 C 182.89 364.54 190.11 366.16 196.50 365.86 C 196.25 363.28 195.01 360.17 197.12 358.05 C 199.80 354.62 204.49 354.32 208.35 353.04 C 206.57 349.43 204.95 345.01 200.71 343.71 C 199.83 348.02 199.05 352.40 197.21 356.44 C 192.52 355.78 187.54 355.62 183.41 353.01 C 184.23 348.85 185.28 344.73 186.02 340.56 C 182.41 342.10 178.87 344.57 177.42 348.39 M 142.19 361.61 C 143.03 361.94 143.88 362.24 144.74 362.50 C 147.30 360.02 149.22 356.31 153.06 355.68 C 155.29 355.03 157.67 357.58 156.88 359.80 C 155.01 369.85 153.20 379.91 151.17 389.93 C 149.99 395.94 147.71 402.05 148.97 408.23 C 153.66 408.76 158.80 406.90 163.03 409.70 C 162.72 399.81 161.80 389.91 162.09 380.03 C 162.85 381.22 163.31 382.52 163.47 383.92 C 164.87 393.14 164.03 402.53 165.25 411.76 C 166.96 415.31 170.98 416.79 173.99 419.03 C 178.80 420.95 183.92 418.52 187.82 415.72 C 185.45 399.46 184.14 382.97 180.08 367.02 C 177.70 360.29 169.36 360.65 163.57 359.61 C 164.33 364.10 165.29 368.67 164.67 373.26 C 162.48 369.25 163.20 364.44 161.80 360.18 C 160.89 357.51 159.89 353.83 156.56 353.44 C 150.50 352.45 146.07 357.81 142.19 361.61 M 201.20 359.23 C 202.35 363.27 205.82 365.82 208.86 368.41 C 218.32 366.02 227.50 362.56 237.08 360.64 C 232.42 359.73 228.08 357.19 225.82 352.90 C 217.57 354.84 209.39 357.04 201.20 359.23 M 266.23 355.39 C 247.56 359.98 228.97 364.90 210.45 370.10 C 211.83 371.14 212.89 373.60 214.97 372.84 C 233.95 367.64 252.86 362.18 271.74 356.64 C 275.01 355.64 278.44 355.00 281.44 353.27 C 276.23 352.03 271.24 354.32 266.23 355.39 M 253.48 364.42 C 254.38 365.22 255.29 366.01 256.21 366.80 C 265.14 363.40 274.36 360.89 283.57 358.41 C 285.35 357.98 287.04 357.27 288.54 356.21 C 287.90 356.11 286.62 355.92 285.98 355.82 C 274.96 357.91 264.15 360.97 253.48 364.42 M 118.39 357.17 C 112.86 369.81 108.68 383.16 106.78 396.84 C 109.88 401.42 112.03 406.52 114.70 411.34 C 127.72 418.26 142.58 420.51 156.96 422.96 C 158.60 423.08 160.28 423.83 161.92 423.36 C 164.25 421.84 166.37 420.04 168.52 418.29 C 165.60 415.58 163.31 412.07 159.85 410.02 C 156.07 409.13 152.06 411.50 148.36 409.78 C 145.45 408.18 145.90 404.28 146.41 401.53 C 148.76 390.45 150.87 379.32 153.00 368.20 C 142.19 362.49 130.14 360.09 118.39 357.17 M 259.23 368.34 C 258.59 370.77 262.25 370.41 263.81 370.92 C 271.00 369.50 277.85 366.83 284.80 364.58 C 288.88 363.15 293.07 362.02 297.02 360.24 C 295.37 359.72 293.75 358.80 291.99 358.98 C 280.80 361.07 269.90 364.43 259.23 368.34 M 146.97 363.73 C 148.26 364.14 149.54 364.56 150.83 364.97 C 150.47 363.49 150.11 362.00 149.75 360.52 C 148.80 361.57 147.88 362.65 146.97 363.73 M 299.42 362.50 C 288.17 364.76 277.66 369.52 266.75 372.90 C 268.41 373.62 270.08 375.04 272.02 374.38 C 277.24 373.55 282.47 372.50 287.36 370.43 C 289.78 368.92 291.66 365.68 294.97 366.66 C 298.63 367.52 302.05 365.73 305.34 364.40 C 303.60 363.26 301.62 361.74 299.42 362.50 M 200.12 362.89 C 201.42 367.35 202.03 371.95 202.69 376.54 C 208.04 385.77 215.28 393.74 221.82 402.13 C 234.51 418.89 246.01 436.63 260.14 452.24 C 259.86 441.33 259.52 430.43 259.53 419.51 C 238.34 402.12 220.25 381.42 200.12 362.89 M 246.33 366.99 C 250.30 373.79 258.63 375.29 264.76 379.43 C 266.03 383.59 271.21 384.83 271.98 389.25 C 269.79 390.28 267.80 391.62 266.50 393.69 C 264.10 394.79 261.14 394.40 258.99 392.93 C 254.09 389.53 251.97 383.22 246.83 380.16 C 243.03 381.57 239.58 379.44 235.84 378.96 C 236.42 381.36 236.73 384.51 239.60 385.24 C 242.12 385.94 243.66 388.11 245.35 389.94 C 242.10 393.04 237.72 392.48 233.63 392.92 C 240.66 400.38 248.29 407.24 255.87 414.15 C 257.59 415.64 259.43 417.41 261.77 417.72 C 267.20 417.23 272.37 415.35 277.42 413.40 C 303.88 403.59 330.40 393.90 356.75 383.78 C 347.06 379.63 337.04 376.32 327.14 372.74 C 323.69 371.65 320.84 368.56 317.02 368.89 C 314.32 369.13 311.69 368.45 309.04 368.15 C 306.44 367.81 305.36 371.12 302.95 371.29 C 299.53 370.93 296.53 368.65 293.03 368.78 C 289.55 370.06 293.20 373.79 293.57 376.12 C 290.82 378.10 287.01 378.82 283.98 377.00 C 280.76 375.24 276.92 375.12 273.51 376.44 C 269.22 378.08 266.03 373.71 262.16 372.73 C 258.05 371.61 255.72 367.54 251.83 366.02 C 249.93 365.25 248.07 366.32 246.33 366.99 M 215.92 375.14 C 217.00 376.23 218.04 377.35 219.13 378.45 C 228.44 376.12 237.92 374.18 246.82 370.49 C 245.85 369.40 244.88 368.32 243.91 367.25 C 234.59 369.94 225.10 371.99 215.92 375.14 M 301.18 368.04 C 301.21 371.36 304.17 366.50 301.18 368.04 M 234.72 376.69 C 237.44 377.27 240.11 378.11 242.85 378.57 C 246.20 377.91 249.42 376.68 252.60 375.47 C 251.42 374.49 250.33 373.38 249.00 372.61 C 244.20 373.82 239.37 374.97 234.72 376.69 M 283.11 374.82 C 285.57 375.52 288.55 376.71 290.80 374.79 C 290.38 370.63 285.17 373.52 283.11 374.82 M 220.77 380.33 C 221.93 381.65 222.91 383.69 224.99 383.51 C 227.70 383.14 230.18 381.88 232.80 381.15 C 233.27 379.54 233.90 377.99 234.58 376.47 C 229.98 377.76 225.35 378.94 220.77 380.33 M 248.58 379.06 C 249.74 380.40 250.80 382.63 252.96 382.14 C 255.71 381.57 258.25 380.26 260.86 379.22 C 257.12 376.39 252.53 377.33 248.58 379.06 M 184.90 377.38 C 185.78 385.38 187.32 393.30 188.39 401.28 C 190.95 399.87 193.68 398.85 196.39 397.82 C 194.83 389.96 189.67 383.55 184.90 377.38 M 347.77 389.93 C 325.01 398.44 302.24 406.94 279.47 415.45 C 273.49 417.59 267.55 420.46 261.03 420.17 C 261.27 431.40 261.32 442.65 262.42 453.84 C 268.73 452.52 274.39 449.33 280.47 447.33 C 293.84 442.73 307.20 438.11 320.57 433.50 C 338.23 428.00 354.96 420.06 372.02 413.01 C 374.22 412.09 376.31 410.62 377.55 408.55 C 380.60 398.62 381.15 388.12 380.84 377.79 C 369.95 382.20 358.71 385.65 347.77 389.93 M 254.06 384.25 C 255.87 386.92 257.58 389.88 260.47 391.54 C 261.62 392.03 263.48 392.80 264.42 391.58 C 265.77 389.83 267.69 388.80 269.65 387.90 C 267.64 385.50 265.19 383.54 262.94 381.38 C 259.94 382.21 256.98 383.17 254.06 384.25 M 226.09 385.83 C 227.19 387.07 227.97 389.29 230.01 388.92 C 232.71 388.25 235.23 387.00 237.90 386.19 C 235.39 381.07 229.90 384.61 226.09 385.83 M 231.60 390.64 C 235.14 389.98 239.73 392.35 242.16 388.76 C 238.56 387.45 235.05 389.83 231.60 390.64 M 219.05 404.63 C 213.77 419.07 206.98 432.87 200.10 446.59 C 203.34 447.04 206.33 449.16 207.64 452.17 C 207.92 455.06 203.16 456.70 204.83 459.84 C 206.57 463.52 209.83 466.47 210.21 470.74 C 221.82 475.57 232.01 483.10 241.24 491.54 C 241.30 484.33 240.62 477.12 240.96 469.91 C 240.95 467.11 242.27 464.24 244.73 462.81 C 246.93 462.05 249.48 462.89 251.50 461.54 C 254.34 459.89 257.32 458.53 260.35 457.28 C 257.76 455.36 255.22 453.31 253.27 450.71 C 241.82 435.38 230.59 419.89 219.05 404.63 M 197.30 450.02 C 195.12 452.53 192.69 455.47 189.03 455.45 C 185.14 456.27 181.85 454.15 178.89 452.01 C 174.65 452.26 169.78 452.07 166.32 454.92 C 166.54 457.48 168.80 459.05 170.02 461.14 C 169.42 463.77 167.17 465.73 166.50 468.39 C 164.39 475.99 166.04 484.63 171.05 490.79 C 173.42 489.31 175.48 487.42 177.50 485.50 C 185.55 478.10 194.41 470.58 205.62 468.88 C 204.64 464.82 201.50 461.82 200.10 458.00 C 200.84 455.46 203.39 453.87 204.10 451.26 C 201.86 450.70 199.57 450.38 197.30 450.02 M 256.31 461.32 C 253.45 462.36 251.31 465.45 247.99 464.87 C 245.83 464.33 243.64 466.02 243.38 468.17 C 242.17 477.11 243.16 486.13 243.44 495.10 C 236.60 498.18 234.06 506.47 235.70 513.35 C 236.76 516.76 241.60 517.91 240.85 521.96 C 240.75 527.03 246.69 528.88 250.82 527.65 C 250.35 511.57 249.23 495.51 248.21 479.46 C 248.11 478.37 248.17 477.30 248.39 476.25 C 249.41 474.85 250.95 476.43 252.08 476.79 C 256.17 479.11 261.08 478.31 265.37 479.95 C 263.27 487.72 262.00 496.59 266.01 503.99 C 270.23 511.82 280.78 516.35 288.98 511.99 C 292.01 510.73 292.09 507.16 292.19 504.38 C 294.27 504.11 296.74 504.04 297.97 502.02 C 299.71 500.20 298.73 497.60 298.50 495.43 C 297.93 491.58 297.03 487.00 299.70 483.72 C 301.42 481.71 304.66 479.76 307.07 481.84 C 310.68 484.43 313.45 490.35 318.76 488.67 C 321.62 488.37 322.05 485.28 322.73 483.07 C 325.48 483.78 329.09 486.18 331.39 483.41 C 334.84 480.04 339.09 477.72 343.18 475.25 C 344.39 476.24 346.10 477.20 346.00 479.03 C 346.79 493.13 347.19 507.25 347.97 521.35 C 351.49 519.53 354.01 516.01 354.30 512.02 C 354.30 508.78 351.87 506.35 350.65 503.55 C 349.92 498.41 349.61 493.21 349.05 488.05 C 348.36 482.83 350.84 477.32 348.18 472.40 C 349.36 470.76 351.85 468.78 350.53 466.58 C 349.08 463.34 345.71 461.74 342.75 460.18 C 336.69 457.16 329.85 456.59 323.28 455.47 C 317.90 454.51 312.42 454.91 306.99 454.69 C 289.95 454.64 272.33 454.79 256.31 461.32 M 128.03 468.05 C 126.51 469.92 123.88 470.15 121.70 470.78 C 117.63 471.81 113.74 469.73 109.75 469.23 C 108.41 468.73 107.14 469.42 106.20 470.36 C 105.78 473.98 109.59 476.93 108.54 480.51 C 106.53 483.37 102.71 484.71 101.70 488.33 C 111.75 487.28 121.14 491.71 131.02 492.42 C 137.19 491.96 145.74 490.86 147.74 483.84 C 146.92 477.74 145.25 471.75 142.95 466.05 C 142.20 464.18 140.45 462.07 138.22 463.18 C 134.76 464.62 130.29 464.64 128.03 468.05 M 191.77 479.94 C 193.74 480.68 196.04 481.13 197.94 479.93 C 201.56 477.78 204.88 475.16 208.46 472.95 C 202.35 473.45 196.49 476.05 191.77 479.94 M 203.07 484.08 C 204.54 484.39 206.08 484.27 207.30 483.29 C 210.87 480.88 215.03 479.63 219.28 479.13 C 217.33 477.99 215.36 476.53 213.01 476.52 C 208.60 476.66 203.85 479.43 203.07 484.08 M 251.91 479.42 C 253.91 497.50 253.63 515.73 255.49 533.82 C 256.30 539.98 262.24 543.25 267.25 545.77 C 288.11 555.33 312.62 553.00 333.40 544.44 C 336.32 543.04 339.33 541.79 342.07 540.05 C 344.56 536.57 343.66 531.94 343.93 527.92 C 338.99 529.69 332.97 532.07 328.13 528.83 C 326.76 521.70 326.76 514.34 325.88 507.12 C 325.79 503.93 324.76 500.65 325.51 497.51 C 331.18 496.21 337.06 495.77 342.66 494.06 C 342.48 489.12 342.19 484.19 341.86 479.27 C 338.04 480.70 335.32 483.77 332.41 486.48 C 330.26 488.42 327.25 486.96 324.82 486.53 C 323.60 489.77 320.45 491.67 316.99 491.10 C 311.55 491.58 309.92 484.62 305.00 483.78 C 302.61 484.11 300.70 486.57 300.53 488.95 C 300.37 492.68 301.64 496.30 301.61 500.03 C 301.30 503.80 297.89 506.26 294.56 507.35 C 294.68 512.54 289.47 515.32 284.99 515.96 C 276.64 516.97 268.09 512.14 264.30 504.70 C 260.30 497.74 260.14 489.19 262.45 481.64 C 258.91 481.01 255.39 480.30 251.91 479.42 M 181.30 486.70 C 180.71 487.82 180.13 488.95 179.56 490.09 C 195.62 501.26 213.74 509.57 233.09 512.92 C 232.41 506.04 234.18 498.94 239.12 493.93 C 232.50 493.02 226.36 498.12 225.37 504.60 C 212.73 500.13 200.18 495.36 187.86 490.06 C 185.74 488.80 183.85 487.01 181.30 486.70 M 139.81 495.65 C 136.09 497.09 138.34 501.72 137.77 504.63 C 131.88 508.24 125.90 511.69 119.68 514.71 C 116.75 516.01 114.63 518.66 111.48 519.53 C 107.37 520.86 103.52 523.13 99.23 523.76 C 95.59 521.98 93.89 517.51 89.84 516.20 C 83.71 514.13 76.93 515.18 70.88 517.01 C 66.33 521.42 62.78 527.43 62.76 533.92 C 63.80 537.35 68.09 537.43 71.04 537.64 C 88.14 536.53 103.58 528.32 119.29 522.26 C 126.54 518.36 133.68 514.14 140.39 509.37 C 146.54 505.03 150.76 497.76 149.87 490.08 C 147.01 492.75 143.52 494.49 139.81 495.65 M 105.80 492.28 C 108.56 494.54 111.40 497.21 115.22 497.16 C 115.83 491.75 109.37 492.34 105.80 492.28 M 95.11 496.10 C 99.67 497.25 103.43 500.58 108.21 500.95 C 108.14 494.60 99.40 492.19 95.11 496.10 M 327.56 499.01 C 328.34 508.67 329.32 518.31 330.21 527.95 C 334.91 529.17 339.42 527.21 343.59 525.22 C 343.30 515.52 343.01 505.82 342.72 496.13 C 337.73 497.41 332.67 498.39 327.56 499.01 Z" />
<path fill="#010101" opacity="1.00" d=" M 169.41 51.46 C 173.50 50.30 180.28 52.34 178.91 57.74 C 175.61 61.15 168.63 60.87 165.86 56.85 C 165.14 54.40 166.88 51.77 169.41 51.46 M 167.15 56.03 C 169.91 58.93 174.16 58.88 177.45 56.94 C 176.96 51.69 168.63 50.83 167.15 56.03 Z" />
<path fill="#010101" opacity="1.00" d=" M 152.53 65.44 C 151.08 63.96 153.45 61.79 155.10 62.94 C 154.88 63.57 154.46 64.84 154.25 65.48 C 155.43 65.44 156.62 65.34 157.80 65.18 C 157.60 64.63 157.20 63.52 157.00 62.97 C 158.68 62.53 160.84 64.02 160.14 65.87 C 157.88 67.38 154.28 68.05 152.53 65.44 Z" />
<path fill="#010101" opacity="1.00" d=" M 156.19 78.96 C 158.05 74.99 164.56 75.70 165.51 79.93 C 163.43 83.75 157.85 82.50 156.19 78.96 M 160.13 77.16 C 158.57 77.59 157.54 79.60 159.51 80.37 C 161.21 81.74 162.87 80.32 164.14 79.17 C 162.84 78.45 161.65 77.36 160.13 77.16 Z" />
<path fill="#010101" opacity="1.00" d=" M 199.83 89.69 C 205.36 90.68 211.80 94.53 211.72 100.83 C 211.91 103.40 209.45 104.67 207.32 105.13 C 205.47 102.46 204.67 99.31 203.93 96.20 C 203.44 93.56 201.37 91.73 199.83 89.69 M 205.58 93.66 C 206.43 96.91 205.71 101.22 208.83 103.35 C 210.71 99.64 208.94 95.70 205.58 93.66 Z" />
<path fill="#010101" opacity="1.00" d=" M 189.97 109.82 C 190.12 108.30 190.86 106.99 192.09 106.07 C 193.14 109.96 193.46 114.08 195.35 117.70 C 196.75 120.93 199.22 124.26 198.29 127.96 C 197.57 129.99 195.62 132.46 193.19 131.89 C 189.60 130.60 187.50 126.73 187.60 123.02 C 187.75 118.53 189.23 114.23 189.97 109.82 M 191.49 114.62 C 190.56 118.97 188.57 123.82 190.89 128.09 C 191.42 129.74 193.28 129.91 194.71 130.22 C 197.84 124.86 193.74 119.42 191.49 114.62 Z" />
<path fill="#010101" opacity="1.00" d=" M 190.96 244.81 C 191.68 244.97 193.12 245.29 193.84 245.45 C 193.20 247.92 191.71 250.04 188.84 249.13 C 189.42 247.63 190.15 246.20 190.96 244.81 Z" />
<path fill="#010101" opacity="1.00" d=" M 198.52 251.11 C 198.59 248.72 201.00 248.02 202.97 247.91 C 203.85 250.39 200.11 254.36 198.52 251.11 Z" />
<path fill="#010101" opacity="1.00" d=" M 154.34 268.84 C 156.30 264.57 162.54 265.00 165.52 267.94 C 164.01 268.23 161.59 267.02 160.75 268.87 C 157.33 274.42 157.97 282.02 161.73 287.25 C 165.92 292.84 172.21 296.74 179.03 298.18 C 181.62 297.64 183.39 295.26 183.77 292.74 C 184.74 288.22 183.64 282.82 187.16 279.21 C 190.70 274.67 198.40 276.21 200.75 281.19 C 203.09 284.61 202.59 288.82 202.18 292.71 C 203.54 291.55 204.93 290.42 206.43 289.45 C 205.12 294.59 200.10 297.53 195.56 299.49 C 184.67 302.64 172.20 299.89 163.88 292.13 C 158.77 287.46 155.49 280.10 157.31 273.19 C 157.95 271.22 158.97 269.40 159.76 267.50 C 157.96 267.94 156.17 268.46 154.34 268.84 M 187.21 284.31 C 186.03 289.23 186.20 294.50 183.62 299.02 C 188.06 299.52 191.45 295.51 192.57 291.60 C 193.22 289.97 192.96 287.74 194.73 286.79 C 195.25 290.96 192.98 294.56 191.17 298.09 C 193.16 297.52 195.21 297.06 197.04 296.05 C 200.48 294.62 200.55 290.14 200.30 286.97 C 199.77 283.82 198.79 279.70 195.29 278.70 C 191.64 277.36 188.00 280.93 187.21 284.31 Z" />
<path fill="#010101" opacity="1.00" d=" M 214.82 276.88 C 217.02 274.17 219.71 270.41 223.70 271.08 C 225.99 272.49 225.41 275.26 224.99 277.47 C 224.10 275.79 223.55 273.97 222.92 272.20 C 220.66 273.53 218.00 275.14 217.34 277.86 C 218.38 279.78 219.88 281.70 219.21 284.03 C 216.86 284.28 214.28 284.78 212.22 283.27 C 214.20 282.93 216.21 282.71 218.19 282.31 C 217.21 280.42 216.02 278.65 214.82 276.88 Z" />
<path fill="#010101" opacity="1.00" d=" M 231.86 350.38 C 230.80 346.70 233.86 342.05 237.95 343.18 C 239.86 343.21 242.31 345.15 241.27 347.20 C 238.05 348.02 235.01 349.36 231.86 350.38 M 233.51 347.93 C 235.70 347.32 237.87 346.65 240.03 345.95 C 237.76 343.18 234.43 345.14 233.51 347.93 Z" />
<path fill="#010101" opacity="1.00" d=" M 290.76 459.42 C 296.15 458.65 301.61 458.99 307.03 459.08 C 317.32 459.50 327.80 460.56 337.40 464.51 C 338.63 465.11 338.83 466.68 339.50 467.77 C 334.41 470.37 328.73 471.45 323.13 472.25 C 322.54 472.12 321.35 471.85 320.75 471.72 C 325.19 470.11 329.83 469.02 334.07 466.87 C 326.31 464.22 318.14 463.03 309.96 462.87 C 302.94 462.73 295.59 461.30 288.84 463.94 C 284.65 465.52 281.08 468.68 279.25 472.80 C 290.82 473.43 302.42 473.43 313.98 474.26 C 312.10 475.26 309.96 475.25 307.90 475.44 C 295.37 476.68 282.76 475.44 270.32 473.91 C 265.01 473.23 259.14 472.80 255.01 468.98 C 257.12 465.79 260.91 464.63 264.29 463.31 C 272.81 460.44 281.93 460.57 290.76 459.42 Z" />
<path fill="#010101" opacity="1.00" d=" M 264.43 517.41 C 269.70 516.16 274.18 523.01 271.43 527.42 C 269.01 531.68 261.49 530.31 260.47 525.60 C 258.72 522.38 260.87 518.06 264.43 517.41 M 264.45 519.44 C 261.48 521.15 261.00 526.21 264.36 527.78 C 267.30 529.02 270.60 526.22 269.94 523.12 C 269.98 520.33 266.84 518.95 264.45 519.44 Z" />
</g>
<g id="#ffffffff">
<path fill="#ffffff" opacity="1.00" d=" M 94.01 5.01 C 99.78 1.31 106.59 5.03 112.75 5.44 C 115.81 6.35 118.94 6.19 122.05 5.61 C 130.34 5.43 138.64 5.67 146.93 5.55 C 150.08 5.45 152.81 3.33 156.02 3.53 C 158.47 3.21 160.58 5.03 163.03 4.68 C 165.54 4.40 168.08 4.83 170.57 4.52 C 175.06 2.95 179.84 4.60 184.15 5.95 C 192.10 12.89 193.59 24.01 195.08 33.85 C 197.02 37.73 195.69 42.13 197.15 46.12 C 197.15 49.90 197.25 53.89 195.18 57.22 C 194.35 62.76 194.52 68.51 192.41 73.80 C 193.80 77.98 191.99 82.12 191.41 86.28 C 189.43 89.29 185.69 90.60 182.19 90.21 C 175.67 91.25 169.07 91.64 162.56 92.75 C 160.79 93.86 159.82 96.27 157.39 96.25 C 151.72 97.95 145.96 96.31 140.22 96.67 C 138.23 95.93 136.21 95.20 134.06 95.55 C 122.74 96.26 111.40 96.55 100.06 96.55 C 97.44 96.34 95.39 98.21 93.02 98.97 C 88.50 100.69 83.64 99.44 78.97 99.52 C 76.52 99.58 74.46 97.87 72.02 97.84 C 59.60 97.00 47.20 96.00 34.80 94.95 C 38.73 88.31 38.38 80.39 39.14 72.98 C 39.25 69.30 38.58 65.61 39.24 61.94 C 40.12 56.62 38.65 51.32 38.97 45.97 C 39.15 38.91 36.42 32.31 35.42 25.42 C 34.60 22.95 33.04 20.68 32.99 18.00 C 32.83 14.39 30.94 11.09 28.04 8.98 C 31.88 7.80 36.21 8.92 39.71 6.65 C 40.77 5.93 42.04 6.36 43.20 6.44 C 47.10 6.96 51.04 6.03 54.93 6.69 C 61.26 7.78 67.64 6.51 74.00 6.58 C 78.09 6.44 82.21 7.57 86.24 6.45 C 88.80 5.79 91.75 6.62 94.01 5.01 M 169.41 51.46 C 166.88 51.77 165.14 54.40 165.86 56.85 C 168.63 60.87 175.61 61.15 178.91 57.74 C 180.28 52.34 173.50 50.30 169.41 51.46 M 152.53 65.44 C 154.28 68.05 157.88 67.38 160.14 65.87 C 160.84 64.02 158.68 62.53 157.00 62.97 C 157.20 63.52 157.60 64.63 157.80 65.18 C 156.62 65.34 155.43 65.44 154.25 65.48 C 154.46 64.84 154.88 63.57 155.10 62.94 C 153.45 61.79 151.08 63.96 152.53 65.44 M 156.19 78.96 C 157.85 82.50 163.43 83.75 165.51 79.93 C 164.56 75.70 158.05 74.99 156.19 78.96 Z" />
<path fill="#ffffff" opacity="1.00" d=" M 23.87 13.93 C 24.73 12.61 25.61 9.92 27.63 11.29 C 30.04 13.14 30.21 16.47 30.85 19.20 C 31.13 21.94 33.05 24.15 33.34 26.89 C 34.54 34.27 37.68 41.45 36.70 49.06 C 36.01 53.38 37.50 57.69 36.99 62.00 C 35.74 66.62 37.34 71.41 35.98 76.03 C 36.21 82.48 35.93 89.63 31.07 94.51 C 27.25 90.27 23.08 85.62 23.37 79.50 C 19.87 74.93 21.29 68.94 19.19 63.85 C 18.87 59.72 17.53 55.51 18.72 51.42 C 20.10 51.45 21.48 51.50 22.86 51.55 C 23.35 56.56 23.36 61.81 25.50 66.48 C 26.48 69.46 31.25 68.78 31.90 65.92 C 33.28 61.73 32.81 57.22 32.50 52.91 C 31.98 46.71 31.99 40.31 29.64 34.45 C 28.78 33.15 26.76 31.56 25.30 32.91 C 23.24 36.23 22.85 40.19 22.38 43.98 C 20.45 43.99 18.52 43.96 16.59 43.92 C 15.88 33.48 18.42 22.87 23.87 13.93 Z" />
<path fill="#ffffff" opacity="1.00" d=" M 2.06 50.17 C 4.38 46.71 8.89 45.13 12.92 45.83 C 16.44 47.02 20.15 45.70 23.73 46.80 C 24.10 47.41 24.84 48.64 25.21 49.25 C 19.69 49.46 13.89 48.50 8.61 50.52 C 7.78 51.85 8.31 53.52 8.22 54.99 C 8.68 67.63 9.43 80.27 10.86 92.84 C 16.65 99.21 24.92 102.58 32.36 106.65 C 52.72 115.67 73.19 124.45 93.57 133.43 C 96.99 135.15 100.85 136.57 103.28 139.69 C 105.42 150.88 104.74 162.36 104.95 173.68 C 103.62 173.68 102.29 173.67 100.96 173.67 C 100.73 164.16 100.88 154.62 100.04 145.14 C 99.05 142.87 96.97 141.37 94.98 140.03 C 77.79 129.23 58.19 123.40 39.71 115.29 C 28.67 110.87 17.77 105.83 8.06 98.92 C 5.59 95.47 5.25 91.05 4.79 86.96 C 3.83 74.71 2.41 62.45 2.06 50.17 Z" />
<path fill="#ffffff" opacity="1.00" d=" M 25.89 51.53 C 30.51 55.08 31.89 61.66 28.78 66.68 C 25.32 62.42 25.66 56.67 25.89 51.53 Z" />
<path fill="#ffffff" opacity="1.00" d=" M 167.15 56.03 C 168.63 50.83 176.96 51.69 177.45 56.94 C 174.16 58.88 169.91 58.93 167.15 56.03 Z" />
<path fill="#ffffff" opacity="1.00" d=" M 160.13 77.16 C 161.65 77.36 162.84 78.45 164.14 79.17 C 162.87 80.32 161.21 81.74 159.51 80.37 C 157.54 79.60 158.57 77.59 160.13 77.16 Z" />
<path fill="#ffffff" opacity="1.00" d=" M 205.58 93.66 C 208.94 95.70 210.71 99.64 208.83 103.35 C 205.71 101.22 206.43 96.91 205.58 93.66 Z" />
<path fill="#ffffff" opacity="1.00" d=" M 191.49 114.62 C 193.74 119.42 197.84 124.86 194.71 130.22 C 193.28 129.91 191.42 129.74 190.89 128.09 C 188.57 123.82 190.56 118.97 191.49 114.62 Z" />
<path fill="#ffffff" opacity="1.00" d=" M 98.67 176.99 C 103.75 176.02 109.09 176.93 113.60 179.44 C 117.42 182.31 115.89 187.53 115.86 191.59 C 110.41 190.14 104.82 189.35 99.17 189.60 C 98.62 185.42 98.44 181.20 98.67 176.99 Z" />
<path fill="#ffffff" opacity="1.00" d=" M 89.03 181.04 C 90.76 178.79 93.75 178.35 96.20 177.28 C 96.45 181.36 96.58 185.46 96.73 189.55 C 93.17 190.17 89.74 191.28 86.38 192.56 C 86.32 188.62 86.29 184.19 89.03 181.04 Z" />
<path fill="#ffffff" opacity="1.00" d=" M 86.08 196.46 C 88.47 192.73 93.08 192.26 97.04 191.51 C 97.20 193.66 97.33 195.81 97.42 197.96 C 93.64 197.54 89.76 197.59 86.08 196.46 Z" />
<path fill="#ffffff" opacity="1.00" d=" M 99.38 191.20 C 104.93 191.43 110.85 191.25 115.71 194.37 C 115.77 196.44 115.78 198.51 115.78 200.59 C 110.49 199.74 105.19 198.97 99.90 198.16 C 99.71 195.84 99.54 193.52 99.38 191.20 Z" />
<path fill="#ffffff" opacity="1.00" d=" M 120.21 194.36 C 125.19 192.86 130.91 191.69 135.75 194.26 C 142.71 199.49 147.15 208.13 146.42 216.96 C 145.66 224.85 144.73 233.82 138.55 239.52 C 135.28 242.82 129.94 244.28 125.61 242.39 C 123.94 241.81 123.94 239.85 123.43 238.45 C 122.76 235.37 121.25 232.59 119.73 229.87 C 122.10 227.96 123.89 225.50 125.51 222.95 C 126.35 227.25 126.91 231.59 127.43 235.94 C 130.10 236.86 133.54 236.91 134.94 233.97 C 137.73 228.25 137.28 220.14 132.07 215.90 C 130.37 214.30 128.01 215.27 126.05 215.68 C 125.33 212.68 124.29 209.78 123.14 206.92 C 124.85 204.49 127.60 203.35 130.05 201.84 C 130.05 200.46 129.39 199.90 128.06 200.15 C 125.41 200.62 123.85 203.21 121.85 204.78 C 118.55 202.60 120.52 197.72 120.21 194.36 Z" />
<path fill="#ffffff" opacity="1.00" d=" M 81.16 194.30 C 82.07 194.15 83.90 193.84 84.81 193.69 C 84.61 196.15 82.60 197.21 80.53 197.96 C 84.12 200.00 88.34 199.82 92.31 200.29 C 99.56 200.88 106.73 202.16 113.90 203.32 C 116.79 203.48 118.16 206.40 119.48 208.56 C 121.66 212.89 122.99 218.32 121.09 222.96 C 118.31 227.08 113.32 229.09 108.69 230.33 C 100.51 231.15 91.79 231.28 84.12 227.90 C 76.66 224.74 71.18 217.05 70.96 208.92 C 71.55 203.36 75.46 198.90 79.20 195.04 C 79.69 194.85 80.67 194.48 81.16 194.30 Z" />
<path fill="#ffffff" opacity="1.00" d=" M 126.50 219.88 C 127.30 218.79 128.10 217.70 129.06 216.75 C 135.44 219.95 135.45 229.35 131.62 234.57 C 131.07 234.63 129.97 234.75 129.43 234.81 C 128.93 229.75 128.69 224.56 126.50 219.88 Z" />
<path fill="#ffffff" opacity="1.00" d=" M 68.89 224.90 C 70.02 224.09 71.41 223.02 72.88 223.50 C 75.58 225.30 77.54 228.15 80.63 229.37 C 91.73 234.31 104.94 236.22 116.40 231.31 C 120.61 237.81 120.61 246.44 117.28 253.30 C 113.90 258.57 107.84 261.52 101.81 262.48 C 90.58 264.14 78.70 262.01 69.05 255.92 C 65.14 253.12 61.57 249.03 61.14 244.05 C 60.08 236.87 63.38 229.47 68.89 224.90 Z" />
<path fill="#ffffff" opacity="1.00" d=" M 193.85 239.21 C 204.60 236.26 214.93 230.04 226.49 231.56 C 227.95 233.66 230.07 236.04 228.90 238.79 C 225.90 245.46 219.57 249.88 216.29 256.38 C 215.06 258.56 214.55 261.22 215.24 263.66 C 216.96 265.43 219.23 266.51 221.37 267.69 C 223.45 267.69 225.55 267.33 227.62 267.82 C 228.89 275.99 224.51 283.50 219.84 289.80 C 216.65 292.70 213.37 289.21 210.52 287.75 C 207.66 295.25 205.77 303.06 203.79 310.83 C 188.39 313.92 173.69 319.48 159.01 324.93 C 150.63 311.45 142.93 297.51 133.30 284.86 C 146.11 267.59 164.06 254.97 182.80 244.87 C 179.08 248.62 174.75 252.61 174.07 258.15 C 173.49 261.10 175.92 263.26 178.07 264.80 C 175.84 267.48 171.72 270.57 173.42 274.49 C 176.49 277.37 180.27 279.54 184.47 280.22 C 182.06 277.08 177.77 276.36 174.87 273.72 C 176.67 267.34 182.81 264.03 187.90 260.55 C 187.87 263.28 187.12 266.15 188.08 268.80 C 190.16 272.74 195.25 275.84 199.62 273.60 C 208.45 269.32 215.77 259.31 213.74 249.21 C 215.09 249.44 216.46 249.63 217.83 249.79 C 217.97 246.16 217.82 242.50 217.13 238.93 C 215.77 238.96 214.42 239.01 213.06 239.07 C 213.40 242.29 213.89 245.50 214.08 248.74 C 212.28 245.80 209.62 243.08 205.95 242.98 C 203.40 242.57 201.22 244.03 199.09 245.15 C 198.19 242.51 196.02 240.79 193.85 239.21 M 154.34 268.84 C 156.17 268.46 157.96 267.94 159.76 267.50 C 158.97 269.40 157.95 271.22 157.31 273.19 C 155.49 280.10 158.77 287.46 163.88 292.13 C 172.20 299.89 184.67 302.64 195.56 299.49 C 200.10 297.53 205.12 294.59 206.43 289.45 C 204.93 290.42 203.54 291.55 202.18 292.71 C 202.59 288.82 203.09 284.61 200.75 281.19 C 198.40 276.21 190.70 274.67 187.16 279.21 C 183.64 282.82 184.74 288.22 183.77 292.74 C 183.39 295.26 181.62 297.64 179.03 298.18 C 172.21 296.74 165.92 292.84 161.73 287.25 C 157.97 282.02 157.33 274.42 160.75 268.87 C 161.59 267.02 164.01 268.23 165.52 267.94 C 162.54 265.00 156.30 264.57 154.34 268.84 M 214.82 276.88 C 216.02 278.65 217.21 280.42 218.19 282.31 C 216.21 282.71 214.20 282.93 212.22 283.27 C 214.28 284.78 216.86 284.28 219.21 284.03 C 219.88 281.70 218.38 279.78 217.34 277.86 C 218.00 275.14 220.66 273.53 222.92 272.20 C 223.55 273.97 224.10 275.79 224.99 277.47 C 225.41 275.26 225.99 272.49 223.70 271.08 C 219.71 270.41 217.02 274.17 214.82 276.88 Z" />
<path fill="#ffffff" opacity="1.00" d=" M 177.87 253.87 C 182.04 247.97 187.81 241.31 195.85 242.22 C 196.82 244.15 196.89 246.32 196.91 248.44 C 200.33 245.78 205.06 243.81 209.27 245.80 C 211.99 247.45 212.03 251.02 211.91 253.83 C 210.33 260.73 206.08 267.45 199.61 270.67 C 196.61 272.67 191.93 272.16 190.19 268.78 C 189.63 265.01 190.60 261.22 190.45 257.44 C 186.07 258.15 183.52 262.62 179.15 263.17 C 174.97 261.93 175.76 256.61 177.87 253.87 M 190.96 244.81 C 190.15 246.20 189.42 247.63 188.84 249.13 C 191.71 250.04 193.20 247.92 193.84 245.45 C 193.12 245.29 191.68 244.97 190.96 244.81 M 198.52 251.11 C 200.11 254.36 203.85 250.39 202.97 247.91 C 201.00 248.02 198.59 248.72 198.52 251.11 Z" />
<path fill="#ffffff" opacity="1.00" d=" M 124.19 245.78 C 126.42 246.43 128.70 246.86 131.01 247.15 C 131.44 255.19 126.53 262.46 120.05 266.80 C 118.82 264.95 117.58 263.12 116.15 261.42 C 120.93 257.64 123.60 251.76 124.19 245.78 Z" />
<path fill="#ffffff" opacity="1.00" d=" M 69.05 260.01 C 79.49 265.27 91.33 266.93 102.91 266.08 C 102.15 268.31 101.01 270.52 101.11 272.94 C 101.42 276.53 103.60 280.13 107.05 281.45 C 109.13 281.66 111.00 280.43 112.93 279.83 C 112.38 274.57 113.55 268.68 109.97 264.24 C 111.21 263.81 112.45 263.38 113.70 262.97 C 116.11 267.87 118.77 273.82 116.02 279.16 C 112.73 284.43 106.63 287.10 100.83 288.61 C 91.34 289.62 80.96 290.47 72.30 285.66 C 67.20 282.69 62.63 277.25 63.30 271.01 C 63.54 266.69 66.12 263.00 69.05 260.01 Z" />
<path fill="#ffffff" opacity="1.00" d=" M 105.52 266.31 C 107.57 264.08 110.64 266.95 110.51 269.40 C 110.76 272.90 112.28 279.00 107.32 279.66 C 102.78 277.15 102.35 270.09 105.52 266.31 Z" />
<path fill="#ffffff" opacity="1.00" d=" M 122.31 275.34 C 127.90 271.28 135.20 270.53 141.92 270.31 C 138.48 274.13 134.99 277.91 132.00 282.11 C 129.58 279.61 126.17 279.17 122.96 280.28 C 121.72 278.91 120.39 276.80 122.31 275.34 Z" />
<path fill="#ffffff" opacity="1.00" d=" M 187.21 284.31 C 188.00 280.93 191.64 277.36 195.29 278.70 C 198.79 279.70 199.77 283.82 200.30 286.97 C 200.55 290.14 200.48 294.62 197.04 296.05 C 195.21 297.06 193.16 297.52 191.17 298.09 C 192.98 294.56 195.25 290.96 194.73 286.79 C 192.96 287.74 193.22 289.97 192.57 291.60 C 191.45 295.51 188.06 299.52 183.62 299.02 C 186.20 294.50 186.03 289.23 187.21 284.31 Z" />
<path fill="#ffffff" opacity="1.00" d=" M 230.03 282.04 C 231.71 280.18 234.52 280.11 236.74 280.92 C 238.75 282.77 239.33 285.48 239.69 288.08 C 242.80 303.87 242.38 320.06 241.90 336.07 C 237.49 333.57 232.23 332.90 227.43 334.71 C 226.78 330.81 226.09 326.87 224.52 323.21 C 223.97 322.94 222.88 322.42 222.33 322.15 C 222.46 327.08 225.50 331.72 224.85 336.70 C 221.85 340.66 219.15 345.12 219.55 350.32 C 217.08 350.93 214.61 351.54 212.13 352.09 C 209.85 347.19 206.82 342.14 201.46 340.19 C 203.06 331.87 204.83 323.58 207.06 315.41 C 210.56 317.40 213.85 319.84 217.70 321.16 C 219.83 312.16 217.43 302.90 214.94 294.23 C 217.59 294.29 220.64 294.63 222.81 292.77 C 226.20 289.92 227.06 285.23 230.03 282.04 Z" />
<path fill="#ffffff" opacity="1.00" d=" M 100.92 292.82 C 107.52 291.20 114.36 288.99 118.90 283.61 C 119.64 294.56 121.22 305.64 119.39 316.56 C 116.83 323.12 109.11 325.25 102.72 325.50 C 102.07 323.45 101.03 321.25 101.98 319.10 C 104.41 317.28 108.17 318.70 110.38 316.37 C 114.58 312.02 114.56 303.24 108.69 300.30 C 106.37 298.79 103.54 299.31 101.00 299.82 C 100.99 297.48 100.95 295.15 100.92 292.82 Z" />
<path fill="#ffffff" opacity="1.00" d=" M 124.58 305.00 C 125.41 297.74 121.15 289.07 127.15 283.14 C 129.08 285.06 130.85 287.12 132.58 289.23 C 130.05 294.55 127.24 299.74 124.58 305.00 Z" />
<path fill="#ffffff" opacity="1.00" d=" M 68.49 291.59 C 69.37 290.76 69.56 288.69 71.02 288.83 C 74.02 290.23 77.01 291.65 80.19 292.62 C 80.38 299.07 80.68 305.52 80.95 311.96 C 73.52 311.21 64.62 315.13 58.43 309.45 C 58.40 302.23 65.07 297.40 68.49 291.59 Z" />
<path fill="#ffffff" opacity="1.00" d=" M 134.19 291.73 C 142.25 304.23 149.97 316.94 157.96 329.48 C 162.09 328.99 165.84 327.10 169.70 325.69 C 176.50 322.96 183.56 320.95 190.55 318.80 C 189.42 325.22 188.04 331.59 186.87 338.00 C 182.95 337.53 179.45 340.85 175.64 339.29 C 157.28 334.81 139.63 327.96 121.44 322.91 C 124.01 318.88 124.05 314.11 124.76 309.58 C 127.96 303.66 130.98 297.64 134.19 291.73 Z" />
<path fill="#ffffff" opacity="1.00" d=" M 84.07 293.03 C 88.92 293.01 93.77 293.01 98.62 293.03 C 98.62 295.63 98.93 298.23 98.90 300.83 C 97.43 303.69 95.22 306.59 95.95 310.03 C 95.98 313.08 98.81 314.72 100.57 316.81 C 99.21 319.46 99.48 322.40 99.97 325.23 C 94.43 324.45 87.40 322.62 85.54 316.59 C 83.96 308.85 84.44 300.88 84.07 293.03 Z" />
<path fill="#ffffff" opacity="1.00" d=" M 212.62 295.31 C 215.84 301.97 216.39 309.58 216.30 316.88 C 213.51 315.18 210.79 313.35 208.18 311.38 C 209.54 305.99 210.73 300.55 212.62 295.31 Z" />
<path fill="#ffffff" opacity="1.00" d=" M 98.48 312.22 C 97.98 308.97 97.87 304.96 100.67 302.67 C 101.27 305.73 102.06 310.79 98.48 312.22 Z" />
<path fill="#ffffff" opacity="1.00" d=" M 104.34 307.27 C 106.48 306.84 108.66 307.13 110.81 307.38 C 110.62 310.08 110.44 313.29 107.93 314.95 C 106.06 316.45 103.56 315.42 101.47 315.11 C 102.64 312.58 102.89 309.64 104.34 307.27 Z" />
<path fill="#ffffff" opacity="1.00" d=" M 193.28 318.10 C 196.91 316.96 200.58 315.90 204.26 314.91 C 201.84 328.05 198.72 341.05 195.44 354.00 C 192.39 353.51 189.35 352.94 186.33 352.31 C 188.63 340.90 191.01 329.51 193.28 318.10 Z" />
<path fill="#ffffff" opacity="1.00" d=" M 84.25 321.88 C 86.18 323.26 88.10 324.68 90.02 326.09 C 88.84 328.57 87.10 331.04 87.26 333.92 C 87.25 336.51 89.00 338.59 89.89 340.91 C 86.30 354.24 82.98 367.72 77.53 380.45 C 76.41 383.22 74.87 386.41 71.65 387.09 C 68.35 382.33 64.74 376.32 67.44 370.44 C 68.75 367.51 70.53 362.96 66.73 361.08 C 61.15 359.63 55.39 361.70 49.74 360.66 C 49.04 357.12 51.77 354.37 53.80 351.85 C 63.16 341.07 76.03 333.72 84.25 321.88 Z" />
<path fill="#ffffff" opacity="1.00" d=" M 121.85 325.44 C 140.11 330.79 158.32 336.37 176.50 342.01 C 172.71 347.07 171.81 353.96 174.97 359.57 C 171.17 358.70 167.28 358.28 163.48 357.41 C 161.28 355.60 160.15 352.21 156.96 351.79 C 150.12 350.74 144.37 355.73 139.98 360.33 C 133.37 359.06 126.81 357.51 120.32 355.74 C 119.07 355.39 117.15 354.94 116.50 356.47 C 110.31 369.20 106.60 382.98 104.19 396.88 C 109.43 401.89 109.27 410.56 115.41 414.71 C 130.61 420.72 146.83 423.50 162.91 425.94 C 165.99 424.64 168.24 421.83 170.94 419.88 C 176.64 422.74 183.61 421.31 188.57 417.59 C 192.54 413.64 187.15 407.58 190.39 403.37 C 192.82 401.56 195.93 401.06 198.44 399.39 C 199.59 397.51 198.65 395.02 197.84 393.15 C 193.28 384.11 185.28 376.91 182.64 366.90 C 187.46 368.75 192.45 370.53 197.71 369.87 C 198.17 372.79 198.37 375.78 199.25 378.62 C 204.14 386.85 210.85 393.79 216.64 401.38 C 214.81 409.52 211.07 417.10 207.50 424.60 C 203.03 433.28 199.34 442.52 193.17 450.19 C 190.48 453.48 185.57 454.01 182.03 451.81 C 182.09 447.79 183.61 443.99 183.85 440.00 C 186.66 438.55 189.47 437.04 191.84 434.91 C 190.86 434.01 189.85 431.80 188.25 433.08 C 168.40 445.14 143.72 447.31 121.39 441.95 C 119.23 444.91 116.84 447.71 114.72 450.70 C 113.56 451.87 114.89 453.30 115.52 454.37 C 119.12 458.12 123.34 461.23 127.26 464.64 C 124.06 468.62 117.31 470.44 113.20 466.81 C 109.29 463.72 106.46 459.51 102.56 456.42 C 101.36 455.24 99.17 454.18 100.05 452.16 C 101.55 447.46 104.80 443.54 106.56 438.95 C 106.57 436.00 103.11 435.16 101.07 433.83 C 83.72 425.63 69.35 408.17 69.66 388.28 C 71.11 388.69 72.57 389.08 74.04 389.45 C 76.52 387.76 78.54 385.46 79.65 382.65 C 85.11 369.94 88.25 356.41 92.54 343.30 C 98.96 347.74 107.16 349.80 114.84 347.94 C 120.57 346.62 124.90 340.89 124.65 335.01 C 124.74 331.60 123.36 328.42 121.85 325.44 Z" />
<path fill="#ffffff" opacity="1.00" d=" M 111.00 336.44 C 112.53 332.64 114.32 328.86 117.11 325.80 C 120.28 329.17 121.09 334.29 119.49 338.56 C 117.41 342.77 112.59 345.06 108.01 344.81 C 101.60 345.05 94.60 342.41 91.43 336.54 C 89.46 333.56 90.96 329.83 92.95 327.29 C 94.65 327.81 96.35 328.34 98.06 328.88 C 97.59 330.47 97.13 332.07 96.79 333.71 C 101.51 334.69 106.26 335.54 111.00 336.44 Z" />
<path fill="#ffffff" opacity="1.00" d=" M 100.34 329.44 C 104.37 329.51 108.42 329.70 112.24 328.15 C 111.37 330.09 110.46 332.01 109.59 333.95 C 106.13 333.45 102.70 332.76 99.28 332.07 C 99.54 331.41 100.08 330.10 100.34 329.44 Z" />
<path fill="#ffffff" opacity="1.00" d=" M 223.26 348.78 C 223.88 344.12 225.96 338.51 231.00 337.19 C 233.99 337.03 237.95 336.18 240.04 338.94 C 242.81 341.84 244.28 345.95 243.98 349.94 C 243.50 354.39 238.89 358.21 234.40 356.56 C 230.53 356.09 229.73 351.86 227.74 349.24 C 226.81 347.49 224.73 348.84 223.26 348.78 M 231.86 350.38 C 235.01 349.36 238.05 348.02 241.27 347.20 C 242.31 345.15 239.86 343.21 237.95 343.18 C 233.86 342.05 230.80 346.70 231.86 350.38 Z" />
<path fill="#ffffff" opacity="1.00" d=" M 247.57 346.18 C 255.57 343.74 263.45 340.71 271.84 339.85 C 272.04 343.58 272.34 347.37 273.66 350.91 C 263.40 353.62 253.12 356.27 242.88 359.05 C 246.55 355.81 248.63 351.10 247.57 346.18 Z" />
<path fill="#ffffff" opacity="1.00" d=" M 273.98 340.06 C 282.12 342.22 290.37 344.02 298.42 346.49 C 325.33 356.17 352.38 365.47 379.19 375.38 C 377.02 377.62 373.81 377.98 371.00 378.97 C 367.31 379.99 363.87 381.79 360.15 382.72 C 346.31 377.80 332.76 372.00 318.95 366.98 C 314.92 366.79 310.08 367.35 307.48 363.50 C 302.58 360.11 296.80 358.09 291.45 355.48 C 286.01 353.53 280.92 350.13 274.98 350.06 C 274.62 346.72 274.29 343.39 273.98 340.06 Z" />
<path fill="#ffffff" opacity="1.00" d=" M 177.42 348.39 C 178.87 344.57 182.41 342.10 186.02 340.56 C 185.28 344.73 184.23 348.85 183.41 353.01 C 187.54 355.62 192.52 355.78 197.21 356.44 C 199.05 352.40 199.83 348.02 200.71 343.71 C 204.95 345.01 206.57 349.43 208.35 353.04 C 204.49 354.32 199.80 354.62 197.12 358.05 C 195.01 360.17 196.25 363.28 196.50 365.86 C 190.11 366.16 182.89 364.54 179.05 358.97 C 177.22 355.86 175.91 351.89 177.42 348.39 Z" />
<path fill="#ffffff" opacity="1.00" d=" M 233.51 347.93 C 234.43 345.14 237.76 343.18 240.03 345.95 C 237.87 346.65 235.70 347.32 233.51 347.93 Z" />
<path fill="#ffffff" opacity="1.00" d=" M 142.19 361.61 C 146.07 357.81 150.50 352.45 156.56 353.44 C 159.89 353.83 160.89 357.51 161.80 360.18 C 163.20 364.44 162.48 369.25 164.67 373.26 C 165.29 368.67 164.33 364.10 163.57 359.61 C 169.36 360.65 177.70 360.29 180.08 367.02 C 184.14 382.97 185.45 399.46 187.82 415.72 C 183.92 418.52 178.80 420.95 173.99 419.03 C 170.98 416.79 166.96 415.31 165.25 411.76 C 164.03 402.53 164.87 393.14 163.47 383.92 C 163.31 382.52 162.85 381.22 162.09 380.03 C 161.80 389.91 162.72 399.81 163.03 409.70 C 158.80 406.90 153.66 408.76 148.97 408.23 C 147.71 402.05 149.99 395.94 151.17 389.93 C 153.20 379.91 155.01 369.85 156.88 359.80 C 157.67 357.58 155.29 355.03 153.06 355.68 C 149.22 356.31 147.30 360.02 144.74 362.50 C 143.88 362.24 143.03 361.94 142.19 361.61 Z" />
<path fill="#ffffff" opacity="1.00" d=" M 201.20 359.23 C 209.39 357.04 217.57 354.84 225.82 352.90 C 228.08 357.19 232.42 359.73 237.08 360.64 C 227.50 362.56 218.32 366.02 208.86 368.41 C 205.82 365.82 202.35 363.27 201.20 359.23 Z" />
<path fill="#ffffff" opacity="1.00" d=" M 266.23 355.39 C 271.24 354.32 276.23 352.03 281.44 353.27 C 278.44 355.00 275.01 355.64 271.74 356.64 C 252.86 362.18 233.95 367.64 214.97 372.84 C 212.89 373.60 211.83 371.14 210.45 370.10 C 228.97 364.90 247.56 359.98 266.23 355.39 Z" />
<path fill="#ffffff" opacity="1.00" d=" M 253.48 364.42 C 264.15 360.97 274.96 357.91 285.98 355.82 C 286.62 355.92 287.90 356.11 288.54 356.21 C 287.04 357.27 285.35 357.98 283.57 358.41 C 274.36 360.89 265.14 363.40 256.21 366.80 C 255.29 366.01 254.38 365.22 253.48 364.42 Z" />
<path fill="#ffffff" opacity="1.00" d=" M 118.39 357.17 C 130.14 360.09 142.19 362.49 153.00 368.20 C 150.87 379.32 148.76 390.45 146.41 401.53 C 145.90 404.28 145.45 408.18 148.36 409.78 C 152.06 411.50 156.07 409.13 159.85 410.02 C 163.31 412.07 165.60 415.58 168.52 418.29 C 166.37 420.04 164.25 421.84 161.92 423.36 C 160.28 423.83 158.60 423.08 156.96 422.96 C 142.58 420.51 127.72 418.26 114.70 411.34 C 112.03 406.52 109.88 401.42 106.78 396.84 C 108.68 383.16 112.86 369.81 118.39 357.17 Z" />
<path fill="#ffffff" opacity="1.00" d=" M 259.23 368.34 C 269.90 364.43 280.80 361.07 291.99 358.98 C 293.75 358.80 295.37 359.72 297.02 360.24 C 293.07 362.02 288.88 363.15 284.80 364.58 C 277.85 366.83 271.00 369.50 263.81 370.92 C 262.25 370.41 258.59 370.77 259.23 368.34 Z" />
<path fill="#ffffff" opacity="1.00" d=" M 146.97 363.73 C 147.88 362.65 148.80 361.57 149.75 360.52 C 150.11 362.00 150.47 363.49 150.83 364.97 C 149.54 364.56 148.26 364.14 146.97 363.73 Z" />
<path fill="#ffffff" opacity="1.00" d=" M 299.42 362.50 C 301.62 361.74 303.60 363.26 305.34 364.40 C 302.05 365.73 298.63 367.52 294.97 366.66 C 291.66 365.68 289.78 368.92 287.36 370.43 C 282.47 372.50 277.24 373.55 272.02 374.38 C 270.08 375.04 268.41 373.62 266.75 372.90 C 277.66 369.52 288.17 364.76 299.42 362.50 Z" />
<path fill="#ffffff" opacity="1.00" d=" M 200.12 362.89 C 220.25 381.42 238.34 402.12 259.53 419.51 C 259.52 430.43 259.86 441.33 260.14 452.24 C 246.01 436.63 234.51 418.89 221.82 402.13 C 215.28 393.74 208.04 385.77 202.69 376.54 C 202.03 371.95 201.42 367.35 200.12 362.89 Z" />
<path fill="#ffffff" opacity="1.00" d=" M 246.33 366.99 C 248.07 366.32 249.93 365.25 251.83 366.02 C 255.72 367.54 258.05 371.61 262.16 372.73 C 266.03 373.71 269.22 378.08 273.51 376.44 C 276.92 375.12 280.76 375.24 283.98 377.00 C 287.01 378.82 290.82 378.10 293.57 376.12 C 293.20 373.79 289.55 370.06 293.03 368.78 C 296.53 368.65 299.53 370.93 302.95 371.29 C 305.36 371.12 306.44 367.81 309.04 368.15 C 311.69 368.45 314.32 369.13 317.02 368.89 C 320.84 368.56 323.69 371.65 327.14 372.74 C 337.04 376.32 347.06 379.63 356.75 383.78 C 330.40 393.90 303.88 403.59 277.42 413.40 C 272.37 415.35 267.20 417.23 261.77 417.72 C 259.43 417.41 257.59 415.64 255.87 414.15 C 248.29 407.24 240.66 400.38 233.63 392.92 C 237.72 392.48 242.10 393.04 245.35 389.94 C 243.66 388.11 242.12 385.94 239.60 385.24 C 236.73 384.51 236.42 381.36 235.84 378.96 C 239.58 379.44 243.03 381.57 246.83 380.16 C 251.97 383.22 254.09 389.53 258.99 392.93 C 261.14 394.40 264.10 394.79 266.50 393.69 C 267.80 391.62 269.79 390.28 271.98 389.25 C 271.21 384.83 266.03 383.59 264.76 379.43 C 258.63 375.29 250.30 373.79 246.33 366.99 Z" />
<path fill="#ffffff" opacity="1.00" d=" M 215.92 375.14 C 225.10 371.99 234.59 369.94 243.91 367.25 C 244.88 368.32 245.85 369.40 246.82 370.49 C 237.92 374.18 228.44 376.12 219.13 378.45 C 218.04 377.35 217.00 376.23 215.92 375.14 Z" />
<path fill="#ffffff" opacity="1.00" d=" M 301.18 368.04 C 304.17 366.50 301.21 371.36 301.18 368.04 Z" />
<path fill="#ffffff" opacity="1.00" d=" M 234.72 376.69 C 239.37 374.97 244.20 373.82 249.00 372.61 C 250.33 373.38 251.42 374.49 252.60 375.47 C 249.42 376.68 246.20 377.91 242.85 378.57 C 240.11 378.11 237.44 377.27 234.72 376.69 Z" />
<path fill="#ffffff" opacity="1.00" d=" M 283.11 374.82 C 285.17 373.52 290.38 370.63 290.80 374.79 C 288.55 376.71 285.57 375.52 283.11 374.82 Z" />
<path fill="#ffffff" opacity="1.00" d=" M 220.77 380.33 C 225.35 378.94 229.98 377.76 234.58 376.47 C 233.90 377.99 233.27 379.54 232.80 381.15 C 230.18 381.88 227.70 383.14 224.99 383.51 C 222.91 383.69 221.93 381.65 220.77 380.33 Z" />
<path fill="#ffffff" opacity="1.00" d=" M 248.58 379.06 C 252.53 377.33 257.12 376.39 260.86 379.22 C 258.25 380.26 255.71 381.57 252.96 382.14 C 250.80 382.63 249.74 380.40 248.58 379.06 Z" />
<path fill="#ffffff" opacity="1.00" d=" M 184.90 377.38 C 189.67 383.55 194.83 389.96 196.39 397.82 C 193.68 398.85 190.95 399.87 188.39 401.28 C 187.32 393.30 185.78 385.38 184.90 377.38 Z" />
<path fill="#ffffff" opacity="1.00" d=" M 347.77 389.93 C 358.71 385.65 369.95 382.20 380.84 377.79 C 381.15 388.12 380.60 398.62 377.55 408.55 C 376.31 410.62 374.22 412.09 372.02 413.01 C 354.96 420.06 338.23 428.00 320.57 433.50 C 307.20 438.11 293.84 442.73 280.47 447.33 C 274.39 449.33 268.73 452.52 262.42 453.84 C 261.32 442.65 261.27 431.40 261.03 420.17 C 267.55 420.46 273.49 417.59 279.47 415.45 C 302.24 406.94 325.01 398.44 347.77 389.93 Z" />
<path fill="#ffffff" opacity="1.00" d=" M 254.06 384.25 C 256.98 383.17 259.94 382.21 262.94 381.38 C 265.19 383.54 267.64 385.50 269.65 387.90 C 267.69 388.80 265.77 389.83 264.42 391.58 C 263.48 392.80 261.62 392.03 260.47 391.54 C 257.58 389.88 255.87 386.92 254.06 384.25 Z" />
<path fill="#ffffff" opacity="1.00" d=" M 226.09 385.83 C 229.90 384.61 235.39 381.07 237.90 386.19 C 235.23 387.00 232.71 388.25 230.01 388.92 C 227.97 389.29 227.19 387.07 226.09 385.83 Z" />
<path fill="#ffffff" opacity="1.00" d=" M 231.60 390.64 C 235.05 389.83 238.56 387.45 242.16 388.76 C 239.73 392.35 235.14 389.98 231.60 390.64 Z" />
<path fill="#ffffff" opacity="1.00" d=" M 219.05 404.63 C 230.59 419.89 241.82 435.38 253.27 450.71 C 255.22 453.31 257.76 455.36 260.35 457.28 C 257.32 458.53 254.34 459.89 251.50 461.54 C 249.48 462.89 246.93 462.05 244.73 462.81 C 242.27 464.24 240.95 467.11 240.96 469.91 C 240.62 477.12 241.30 484.33 241.24 491.54 C 232.01 483.10 221.82 475.57 210.21 470.74 C 209.83 466.47 206.57 463.52 204.83 459.84 C 203.16 456.70 207.92 455.06 207.64 452.17 C 206.33 449.16 203.34 447.04 200.10 446.59 C 206.98 432.87 213.77 419.07 219.05 404.63 Z" />
<path fill="#ffffff" opacity="1.00" d=" M 197.30 450.02 C 199.57 450.38 201.86 450.70 204.10 451.26 C 203.39 453.87 200.84 455.46 200.10 458.00 C 201.50 461.82 204.64 464.82 205.62 468.88 C 194.41 470.58 185.55 478.10 177.50 485.50 C 175.48 487.42 173.42 489.31 171.05 490.79 C 166.04 484.63 164.39 475.99 166.50 468.39 C 167.17 465.73 169.42 463.77 170.02 461.14 C 168.80 459.05 166.54 457.48 166.32 454.92 C 169.78 452.07 174.65 452.26 178.89 452.01 C 181.85 454.15 185.14 456.27 189.03 455.45 C 192.69 455.47 195.12 452.53 197.30 450.02 Z" />
<path fill="#ffffff" opacity="1.00" d=" M 256.31 461.32 C 272.33 454.79 289.95 454.64 306.99 454.69 C 312.42 454.91 317.90 454.51 323.28 455.47 C 329.85 456.59 336.69 457.16 342.75 460.18 C 345.71 461.74 349.08 463.34 350.53 466.58 C 351.85 468.78 349.36 470.76 348.18 472.40 C 350.84 477.32 348.36 482.83 349.05 488.05 C 349.61 493.21 349.92 498.41 350.65 503.55 C 351.87 506.35 354.30 508.78 354.30 512.02 C 354.01 516.01 351.49 519.53 347.97 521.35 C 347.19 507.25 346.79 493.13 346.00 479.03 C 346.10 477.20 344.39 476.24 343.18 475.25 C 339.09 477.72 334.84 480.04 331.39 483.41 C 329.09 486.18 325.48 483.78 322.73 483.07 C 322.05 485.28 321.62 488.37 318.76 488.67 C 313.45 490.35 310.68 484.43 307.07 481.84 C 304.66 479.76 301.42 481.71 299.70 483.72 C 297.03 487.00 297.93 491.58 298.50 495.43 C 298.73 497.60 299.71 500.20 297.97 502.02 C 296.74 504.04 294.27 504.11 292.19 504.38 C 292.09 507.16 292.01 510.73 288.98 511.99 C 280.78 516.35 270.23 511.82 266.01 503.99 C 262.00 496.59 263.27 487.72 265.37 479.95 C 261.08 478.31 256.17 479.11 252.08 476.79 C 250.95 476.43 249.41 474.85 248.39 476.25 C 248.17 477.30 248.11 478.37 248.21 479.46 C 249.23 495.51 250.35 511.57 250.82 527.65 C 246.69 528.88 240.75 527.03 240.85 521.96 C 241.60 517.91 236.76 516.76 235.70 513.35 C 234.06 506.47 236.60 498.18 243.44 495.10 C 243.16 486.13 242.17 477.11 243.38 468.17 C 243.64 466.02 245.83 464.33 247.99 464.87 C 251.31 465.45 253.45 462.36 256.31 461.32 M 290.76 459.42 C 281.93 460.57 272.81 460.44 264.29 463.31 C 260.91 464.63 257.12 465.79 255.01 468.98 C 259.14 472.80 265.01 473.23 270.32 473.91 C 282.76 475.44 295.37 476.68 307.90 475.44 C 309.96 475.25 312.10 475.26 313.98 474.26 C 302.42 473.43 290.82 473.43 279.25 472.80 C 281.08 468.68 284.65 465.52 288.84 463.94 C 295.59 461.30 302.94 462.73 309.96 462.87 C 318.14 463.03 326.31 464.22 334.07 466.87 C 329.83 469.02 325.19 470.11 320.75 471.72 C 321.35 471.85 322.54 472.12 323.13 472.25 C 328.73 471.45 334.41 470.37 339.50 467.77 C 338.83 466.68 338.63 465.11 337.40 464.51 C 327.80 460.56 317.32 459.50 307.03 459.08 C 301.61 458.99 296.15 458.65 290.76 459.42 Z" />
<path fill="#ffffff" opacity="1.00" d=" M 128.03 468.05 C 130.29 464.64 134.76 464.62 138.22 463.18 C 140.45 462.07 142.20 464.18 142.95 466.05 C 145.25 471.75 146.92 477.74 147.74 483.84 C 145.74 490.86 137.19 491.96 131.02 492.42 C 121.14 491.71 111.75 487.28 101.70 488.33 C 102.71 484.71 106.53 483.37 108.54 480.51 C 109.59 476.93 105.78 473.98 106.20 470.36 C 107.14 469.42 108.41 468.73 109.75 469.23 C 113.74 469.73 117.63 471.81 121.70 470.78 C 123.88 470.15 126.51 469.92 128.03 468.05 Z" />
<path fill="#ffffff" opacity="1.00" d=" M 191.77 479.94 C 196.49 476.05 202.35 473.45 208.46 472.95 C 204.88 475.16 201.56 477.78 197.94 479.93 C 196.04 481.13 193.74 480.68 191.77 479.94 Z" />
<path fill="#ffffff" opacity="1.00" d=" M 203.07 484.08 C 203.85 479.43 208.60 476.66 213.01 476.52 C 215.36 476.53 217.33 477.99 219.28 479.13 C 215.03 479.63 210.87 480.88 207.30 483.29 C 206.08 484.27 204.54 484.39 203.07 484.08 Z" />
<path fill="#ffffff" opacity="1.00" d=" M 251.91 479.42 C 255.39 480.30 258.91 481.01 262.45 481.64 C 260.14 489.19 260.30 497.74 264.30 504.70 C 268.09 512.14 276.64 516.97 284.99 515.96 C 289.47 515.32 294.68 512.54 294.56 507.35 C 297.89 506.26 301.30 503.80 301.61 500.03 C 301.64 496.30 300.37 492.68 300.53 488.95 C 300.70 486.57 302.61 484.11 305.00 483.78 C 309.92 484.62 311.55 491.58 316.99 491.10 C 320.45 491.67 323.60 489.77 324.82 486.53 C 327.25 486.96 330.26 488.42 332.41 486.48 C 335.32 483.77 338.04 480.70 341.86 479.27 C 342.19 484.19 342.48 489.12 342.66 494.06 C 337.06 495.77 331.18 496.21 325.51 497.51 C 324.76 500.65 325.79 503.93 325.88 507.12 C 326.76 514.34 326.76 521.70 328.13 528.83 C 332.97 532.07 338.99 529.69 343.93 527.92 C 343.66 531.94 344.56 536.57 342.07 540.05 C 339.33 541.79 336.32 543.04 333.40 544.44 C 312.62 553.00 288.11 555.33 267.25 545.77 C 262.24 543.25 256.30 539.98 255.49 533.82 C 253.63 515.73 253.91 497.50 251.91 479.42 M 264.43 517.41 C 260.87 518.06 258.72 522.38 260.47 525.60 C 261.49 530.31 269.01 531.68 271.43 527.42 C 274.18 523.01 269.70 516.16 264.43 517.41 Z" />
<path fill="#ffffff" opacity="1.00" d=" M 181.30 486.70 C 183.85 487.01 185.74 488.80 187.86 490.06 C 200.18 495.36 212.73 500.13 225.37 504.60 C 226.36 498.12 232.50 493.02 239.12 493.93 C 234.18 498.94 232.41 506.04 233.09 512.92 C 213.74 509.57 195.62 501.26 179.56 490.09 C 180.13 488.95 180.71 487.82 181.30 486.70 Z" />
<path fill="#ffffff" opacity="1.00" d=" M 139.81 495.65 C 143.52 494.49 147.01 492.75 149.87 490.08 C 150.76 497.76 146.54 505.03 140.39 509.37 C 133.68 514.14 126.54 518.36 119.29 522.26 C 103.58 528.32 88.14 536.53 71.04 537.64 C 68.09 537.43 63.80 537.35 62.76 533.92 C 62.78 527.43 66.33 521.42 70.88 517.01 C 76.93 515.18 83.71 514.13 89.84 516.20 C 93.89 517.51 95.59 521.98 99.23 523.76 C 103.52 523.13 107.37 520.86 111.48 519.53 C 114.63 518.66 116.75 516.01 119.68 514.71 C 125.90 511.69 131.88 508.24 137.77 504.63 C 138.34 501.72 136.09 497.09 139.81 495.65 Z" />
<path fill="#ffffff" opacity="1.00" d=" M 105.80 492.28 C 109.37 492.34 115.83 491.75 115.22 497.16 C 111.40 497.21 108.56 494.54 105.80 492.28 Z" />
<path fill="#ffffff" opacity="1.00" d=" M 95.11 496.10 C 99.40 492.19 108.14 494.60 108.21 500.95 C 103.43 500.58 99.67 497.25 95.11 496.10 Z" />
<path fill="#ffffff" opacity="1.00" d=" M 327.56 499.01 C 332.67 498.39 337.73 497.41 342.72 496.13 C 343.01 505.82 343.30 515.52 343.59 525.22 C 339.42 527.21 334.91 529.17 330.21 527.95 C 329.32 518.31 328.34 508.67 327.56 499.01 Z" />
<path fill="#ffffff" opacity="1.00" d=" M 264.45 519.44 C 266.84 518.95 269.98 520.33 269.94 523.12 C 270.60 526.22 267.30 529.02 264.36 527.78 C 261.00 526.21 261.48 521.15 264.45 519.44 Z" />
</g>
</svg>
