<?xml version="1.0" encoding="UTF-8" ?>
<!DOCTYPE svg PUBLIC "-//W3C//DTD SVG 1.1//EN" "http://www.w3.org/Graphics/SVG/1.1/DTD/svg11.dtd">
<svg width="589pt" height="352pt" viewBox="0 0 589 352" version="1.1" xmlns="http://www.w3.org/2000/svg">
<g id="#fefefefe">
<path fill="#fefefe" opacity="1.00" d=" M 401.86 103.86 C 403.69 102.62 405.38 101.02 407.59 100.45 C 406.58 103.24 403.26 104.27 401.72 106.75 C 394.78 115.29 395.56 127.62 399.95 137.13 C 401.38 140.36 403.46 143.22 405.05 146.37 C 402.85 146.77 401.90 144.66 400.89 143.15 C 399.69 141.23 398.66 139.21 397.76 137.13 C 393.64 127.80 393.47 116.59 398.83 107.71 C 381.74 119.58 363.51 130.00 343.83 136.92 C 330.98 141.07 317.47 143.59 303.92 142.93 C 294.17 142.65 284.62 140.35 275.39 137.31 C 263.78 133.83 252.53 129.30 241.33 124.68 C 239.16 123.65 236.06 122.25 236.36 119.38 C 238.49 118.61 240.75 118.39 243.01 118.30 C 242.03 120.12 239.30 119.00 238.42 120.79 C 244.94 125.07 252.36 127.65 259.60 130.41 C 266.57 132.92 273.42 135.79 280.60 137.65 C 299.00 142.87 318.86 142.28 337.23 137.16 C 360.81 130.68 382.22 118.19 401.86 103.86 Z" />
<path fill="#fefefe" opacity="1.00" d=" M 225.27 148.37 C 226.86 147.46 228.47 146.59 230.18 145.90 C 229.13 146.86 228.02 147.75 226.84 148.54 C 224.12 150.27 221.40 151.99 218.70 153.75 C 215.19 155.90 211.75 158.15 208.37 160.49 C 194.01 169.29 179.88 178.65 164.30 185.18 C 149.10 192.13 131.58 196.25 115.13 191.41 C 116.95 188.46 119.25 185.76 120.44 182.46 C 123.20 175.61 122.49 168.03 121.71 160.87 C 121.51 158.93 121.33 156.99 121.11 155.06 C 121.03 154.52 120.88 153.45 120.80 152.91 C 116.25 152.19 111.82 154.11 107.53 155.37 C 103.76 156.29 100.14 157.69 96.66 159.40 C 95.31 159.99 93.98 160.62 92.65 161.27 C 92.15 161.52 91.15 162.02 90.65 162.27 C 85.37 165.06 80.21 168.08 75.37 171.57 C 72.13 173.75 68.99 176.06 66.03 178.62 C 46.22 193.72 28.92 211.83 12.78 230.73 C 11.82 231.94 10.60 233.02 10.15 234.55 C 12.77 233.78 15.37 232.95 18.04 232.38 C 16.15 233.62 13.86 233.93 11.79 234.75 C 9.25 235.97 7.43 238.42 4.64 239.16 C 5.60 237.06 7.26 235.43 8.71 233.68 C 26.23 212.67 45.39 192.83 67.27 176.32 C 69.95 174.39 72.55 172.35 75.26 170.46 C 81.36 166.42 87.65 162.61 94.30 159.54 C 96.64 158.47 99.00 157.48 101.39 156.54 C 108.33 154.03 115.56 152.15 122.95 151.70 C 123.21 162.30 126.11 173.58 121.71 183.71 C 120.85 186.27 118.26 188.13 118.08 190.89 C 127.82 194.22 138.34 192.72 148.11 190.35 C 168.65 184.67 186.78 173.02 204.56 161.66 C 208.23 159.36 211.87 157.00 215.51 154.65 C 218.80 152.61 222.07 150.55 225.27 148.37 Z" />
<path fill="#fefefe" opacity="1.00" d=" M 576.19 168.17 C 579.05 166.42 581.67 164.20 584.88 163.09 C 584.54 165.36 583.28 167.30 582.34 169.34 C 579.11 176.38 578.27 184.23 575.58 191.44 C 575.21 191.53 574.45 191.71 574.08 191.80 C 575.76 183.31 578.13 174.92 581.28 166.86 C 571.68 172.62 562.45 179.00 553.00 185.01 C 545.27 189.79 538.05 195.32 530.69 200.63 C 525.83 204.06 521.28 207.90 516.82 211.83 C 515.01 213.43 513.32 215.16 511.61 216.86 C 510.53 217.45 509.42 217.94 508.27 218.34 C 509.11 217.14 510.05 216.01 511.03 214.92 C 513.14 213.07 515.16 211.12 517.27 209.27 C 521.80 205.50 526.35 201.75 531.18 198.36 C 545.63 187.48 561.11 178.11 576.19 168.17 Z" />
<path fill="#fefefe" opacity="1.00" d=" M 149.60 199.66 C 150.69 199.59 151.78 199.54 152.87 199.49 C 152.12 201.04 151.16 202.47 150.21 203.90 C 146.61 209.65 144.96 216.33 142.85 222.71 C 141.49 225.90 139.90 229.01 138.82 232.32 C 140.76 232.24 142.70 232.09 144.61 231.71 C 148.26 230.96 151.86 230.00 155.39 228.84 C 160.00 227.41 164.49 225.67 169.04 224.09 C 173.18 222.69 177.42 221.49 181.78 220.99 C 185.26 220.77 188.71 221.60 191.73 223.36 C 194.88 225.55 197.85 227.98 200.78 230.45 C 204.96 233.19 207.72 238.63 213.08 239.07 C 217.29 239.59 221.50 240.17 225.73 240.52 C 236.45 241.36 247.37 239.64 257.28 235.45 C 263.23 233.04 268.85 229.90 274.27 226.48 C 275.95 225.45 277.64 224.43 279.34 223.41 C 283.93 220.61 288.28 217.44 292.88 214.66 L 293.97 214.61 C 293.58 215.66 293.14 216.69 292.65 217.69 C 290.60 221.42 288.58 225.16 286.89 229.06 C 286.30 230.37 285.72 231.68 285.18 233.00 C 282.56 239.62 280.41 246.57 280.01 253.72 C 279.76 258.31 280.95 263.33 284.49 266.51 C 287.90 269.47 292.60 270.42 297.01 270.25 C 306.91 269.92 316.40 266.49 325.35 262.46 C 328.01 261.26 330.58 259.84 333.17 258.48 C 340.64 254.44 347.76 249.75 354.52 244.60 C 357.89 242.04 361.23 239.44 364.26 236.48 C 365.65 235.17 367.06 233.88 368.41 232.53 C 371.55 229.70 373.70 225.77 377.47 223.68 C 373.87 229.49 368.87 234.46 366.41 240.97 C 365.50 242.83 364.76 244.86 365.07 246.96 C 364.86 252.20 367.98 257.17 372.86 259.12 C 379.22 261.67 386.30 261.44 392.94 260.25 C 400.91 258.89 408.63 255.86 415.40 251.45 C 420.06 248.65 424.09 244.98 427.78 241.02 C 425.62 239.08 422.42 237.34 422.55 234.00 C 422.79 228.75 427.20 225.09 431.29 222.46 C 434.38 220.71 437.33 218.38 440.93 217.77 C 439.54 226.08 435.38 233.68 430.14 240.17 C 434.06 242.92 438.96 243.61 443.53 244.67 C 446.93 245.35 450.32 246.10 453.75 246.68 C 458.12 247.25 462.51 247.73 466.90 248.13 C 476.24 248.61 485.62 248.32 494.93 247.51 C 492.35 249.32 488.92 248.52 485.96 248.90 C 479.34 248.46 472.76 249.63 466.14 249.14 C 461.84 248.79 457.57 248.22 453.29 247.81 C 449.90 247.33 446.58 246.50 443.25 245.76 C 439.20 244.90 435.17 243.93 431.31 242.46 C 430.75 242.26 429.63 241.85 429.08 241.64 C 425.62 244.63 422.52 248.09 418.62 250.53 C 410.94 255.86 402.08 259.42 392.90 261.10 C 386.43 262.23 379.76 262.32 373.34 260.84 C 369.43 259.49 365.51 257.02 364.13 252.91 C 362.51 248.99 363.55 244.74 364.39 240.79 C 365.47 239.42 366.59 237.96 366.88 236.20 C 365.27 236.24 364.35 237.77 363.52 238.92 C 360.50 241.13 357.64 243.53 354.66 245.78 C 340.05 256.50 323.83 265.69 306.10 270.01 C 298.38 271.17 289.35 272.41 282.74 267.27 C 276.46 261.55 277.63 251.86 279.16 244.34 C 281.41 234.86 286.46 226.42 290.38 217.60 C 284.39 220.66 279.13 224.92 273.32 228.29 C 267.97 231.32 262.54 234.24 256.77 236.42 C 247.02 240.47 236.27 241.69 225.79 241.32 C 221.49 241.20 217.23 240.69 212.97 240.10 C 207.09 240.17 203.57 235.13 199.62 231.63 C 196.75 229.19 193.92 226.66 190.77 224.57 C 188.09 222.81 185.04 221.36 181.73 221.67 C 177.39 222.36 173.12 223.48 168.96 224.90 C 164.47 226.46 160.00 228.12 155.45 229.49 C 151.94 230.54 148.48 231.77 144.88 232.49 C 143.33 232.73 141.76 232.91 140.21 233.10 C 139.25 233.16 137.33 233.28 136.37 233.34 C 136.91 231.90 137.49 230.48 138.09 229.07 C 139.95 225.66 141.34 222.03 142.54 218.35 C 144.59 212.20 147.07 206.21 150.20 200.53 C 144.07 200.70 137.94 201.40 131.91 202.53 C 127.57 203.75 122.15 204.44 119.35 208.32 C 118.90 212.24 123.78 212.97 126.01 215.12 C 123.05 215.59 120.34 213.58 118.21 211.75 C 116.28 210.22 117.64 207.41 119.40 206.40 C 123.60 203.80 128.52 202.67 133.27 201.50 C 138.63 200.32 144.13 200.02 149.60 199.66 M 430.91 223.97 C 428.11 225.97 425.20 228.45 424.50 231.99 C 424.07 235.11 426.07 238.28 428.92 239.50 C 429.70 238.43 430.63 237.45 431.20 236.24 C 434.95 231.48 437.36 225.62 438.40 219.66 C 435.64 220.60 433.29 222.35 430.91 223.97 Z" />
<path fill="#fefefe" opacity="1.00" d=" M 529.23 236.26 C 529.59 236.02 530.32 235.54 530.68 235.30 C 535.25 242.67 538.04 250.93 541.33 258.90 C 545.02 258.79 548.31 256.80 551.98 256.60 C 547.43 272.98 537.14 286.81 527.64 300.61 C 525.29 303.80 523.04 307.06 520.84 310.35 C 513.34 321.47 506.75 333.52 503.96 346.76 C 503.48 347.03 502.52 347.58 502.04 347.85 C 504.49 333.26 512.31 320.26 520.52 308.21 C 523.45 303.97 526.38 299.73 529.33 295.51 C 537.44 283.93 545.58 271.92 549.59 258.22 C 547.12 258.70 544.71 259.35 542.28 259.97 C 542.42 261.15 542.56 262.33 542.69 263.52 C 538.73 262.92 534.91 261.54 530.89 261.44 C 526.20 261.51 521.52 261.78 516.86 262.25 C 514.98 262.47 513.11 262.70 511.24 262.88 C 509.38 263.05 507.53 263.23 505.68 263.36 C 504.39 263.44 503.11 263.48 501.84 263.48 C 503.08 262.71 504.45 262.18 505.93 262.03 C 507.87 261.81 509.83 261.65 511.78 261.44 C 513.55 261.25 515.34 261.09 517.13 260.99 C 521.73 260.64 526.33 260.46 530.94 260.17 C 534.09 259.62 537.33 259.81 540.02 261.71 C 537.65 254.52 534.87 247.42 531.39 240.69 C 530.64 239.22 529.88 237.77 529.23 236.26 Z" />
<path fill="#fefefe" opacity="1.00" d=" M 479.43 291.31 C 483.97 287.01 488.69 282.44 494.74 280.41 C 492.14 284.17 488.39 287.00 486.03 290.97 C 485.21 292.14 484.45 293.34 483.67 294.54 C 483.43 294.89 482.95 295.60 482.71 295.95 C 484.44 295.84 486.17 295.81 487.91 295.86 C 484.92 297.21 481.58 297.60 478.71 299.28 C 478.27 299.01 477.38 298.46 476.93 298.18 C 478.38 297.24 479.91 296.36 481.15 295.13 C 482.08 293.90 482.94 292.63 483.86 291.40 C 484.84 290.34 485.82 289.22 486.28 287.83 C 486.36 287.73 486.52 287.53 486.60 287.42 C 486.52 287.53 486.36 287.73 486.28 287.83 C 484.39 288.03 482.76 289.20 482.07 290.98 C 480.66 292.27 479.29 293.60 477.95 294.96 C 476.83 296.00 476.49 297.45 476.40 298.92 C 474.91 299.19 473.41 299.47 471.93 299.71 C 472.86 298.09 474.08 296.67 475.42 295.37 C 476.76 294.01 478.09 292.66 479.43 291.31 Z" />
<path fill="#fefefe" opacity="1.00" d=" M 501.39 291.45 C 503.03 290.67 504.72 289.99 506.46 289.46 C 506.04 289.99 505.20 291.06 504.78 291.60 C 503.09 292.26 501.43 293.00 499.86 293.90 C 499.50 294.11 498.77 294.53 498.41 294.73 C 495.94 296.14 493.64 297.80 491.42 299.56 C 489.14 301.41 486.99 303.41 485.12 305.67 C 487.32 306.20 489.51 306.84 491.73 307.39 C 491.82 308.96 490.36 310.02 489.62 311.26 C 488.40 312.83 487.13 314.37 485.83 315.88 C 481.72 320.03 477.49 324.44 472.12 326.89 C 472.57 323.43 473.77 320.10 475.29 316.97 C 476.22 315.08 477.26 313.25 478.44 311.50 C 479.67 309.73 480.96 308.00 482.14 306.20 C 469.67 304.13 456.79 305.46 444.79 309.30 C 436.81 311.69 429.23 315.20 421.60 318.48 C 404.72 325.80 388.28 334.63 370.22 338.78 C 370.30 338.47 370.46 337.85 370.54 337.54 C 386.47 333.37 401.38 326.21 416.25 319.29 C 424.15 315.79 432.04 312.28 440.23 309.49 C 453.00 304.89 466.89 302.50 480.41 304.72 C 481.62 304.75 483.21 305.40 484.14 304.27 C 487.52 300.95 491.15 297.90 494.94 295.04 C 492.42 295.38 489.81 296.73 487.33 295.63 C 492.01 294.23 497.00 293.74 501.39 291.45 M 480.63 311.20 C 479.49 312.73 478.51 314.36 477.84 316.15 C 476.42 318.35 475.39 320.80 474.88 323.38 C 478.18 321.80 480.96 319.30 483.39 316.59 C 484.82 315.22 486.18 313.75 487.05 311.96 C 488.62 311.55 488.79 309.57 488.85 308.22 C 487.32 307.67 485.80 307.00 484.16 306.96 C 482.55 307.95 481.71 309.73 480.63 311.20 Z" />
</g>
<g id="#000000fe">
<path fill="#000000" opacity="1.00" d=" M 69.24 137.21 C 70.03 136.53 70.97 136.22 72.04 136.27 C 71.91 136.78 71.64 137.79 71.50 138.29 C 70.49 140.60 69.18 142.76 68.01 144.99 C 66.13 148.36 64.63 152.07 61.85 154.83 C 60.86 155.97 59.33 156.18 57.91 156.07 C 57.74 153.32 59.49 151.05 60.75 148.77 C 63.33 144.76 65.46 140.28 69.24 137.21 Z" />
<path fill="#000000" opacity="1.00" d=" M 91.18 157.14 C 94.54 156.46 97.98 156.33 101.39 156.54 C 99.00 157.48 96.64 158.47 94.30 159.54 C 92.75 159.22 90.53 159.41 91.18 157.14 Z" />
</g>
<g id="#1d1d1bff">
<path fill="#1d1d1b" opacity="1.00" d=" M 280.60 137.65 C 299.45 136.90 318.36 137.58 337.23 137.16 C 318.86 142.28 299.00 142.87 280.60 137.65 Z" />
<path fill="#1d1d1b" opacity="1.00" d=" M 303.92 142.93 C 317.47 143.59 330.98 141.07 343.83 136.92 C 361.80 137.62 379.78 136.87 397.76 137.13 C 398.66 139.21 399.69 141.23 400.89 143.15 C 401.90 144.66 402.85 146.77 405.05 146.37 C 403.46 143.22 401.38 140.36 399.95 137.13 C 410.30 136.74 420.64 137.61 430.99 137.50 C 456.97 137.55 482.94 138.81 508.87 140.32 C 511.89 140.28 512.70 144.78 509.65 145.52 C 499.46 146.74 489.13 146.45 478.90 147.36 C 394.92 150.50 310.86 148.26 226.84 148.54 C 228.02 147.75 229.13 146.86 230.18 145.90 C 228.47 146.59 226.86 147.46 225.27 148.37 C 183.51 148.04 141.74 148.12 99.98 147.55 C 91.62 147.47 83.28 146.69 74.92 146.63 C 72.54 146.53 69.82 146.89 68.01 144.99 C 69.18 142.76 70.49 140.60 71.50 138.29 C 74.35 140.11 77.80 139.21 80.96 139.23 C 91.95 138.60 102.96 138.69 113.95 138.39 C 159.97 138.12 205.99 137.55 252.01 137.56 C 259.80 137.48 267.60 137.68 275.39 137.31 C 284.62 140.35 294.17 142.65 303.92 142.93 Z" />
<path fill="#1d1d1b" opacity="1.00" d=" M 519.47 142.19 C 519.65 137.39 528.34 137.40 528.53 142.19 C 529.20 151.79 529.59 161.41 530.20 171.02 C 530.79 180.12 530.45 189.26 531.18 198.36 C 526.35 201.75 521.80 205.50 517.27 209.27 C 516.58 186.90 518.15 164.51 519.47 142.19 Z" />
<path fill="#1d1d1b" opacity="1.00" d=" M 67.50 150.39 C 67.86 146.80 74.14 146.82 74.51 150.40 C 75.03 157.06 74.84 163.78 75.26 170.46 C 72.55 172.35 69.95 174.39 67.27 176.32 C 66.34 172.27 66.98 168.10 67.00 164.00 C 67.22 159.46 67.04 154.90 67.50 150.39 Z" />
<path fill="#1d1d1b" opacity="1.00" d=" M 66.03 178.62 C 68.99 176.06 72.13 173.75 75.37 171.57 C 76.13 207.37 76.02 243.19 76.27 279.00 C 76.21 285.32 76.49 291.66 75.96 297.97 C 75.21 298.04 73.71 298.19 72.96 298.27 C 73.12 300.06 74.82 300.90 76.17 301.75 C 75.97 304.50 75.88 307.26 75.87 310.02 C 84.68 309.46 93.47 308.52 102.30 308.52 C 97.62 310.30 92.08 308.92 87.78 311.53 C 91.75 311.73 95.76 311.96 99.71 311.49 C 103.81 309.55 108.21 308.43 112.64 307.48 C 130.86 307.98 149.08 306.59 167.31 306.53 C 171.99 308.35 175.71 312.69 176.26 317.77 C 176.29 318.60 176.35 320.27 176.38 321.11 C 148.73 321.28 121.09 320.56 93.48 319.39 C 87.08 318.85 80.68 318.04 74.26 318.06 C 73.51 319.42 72.67 320.72 71.86 322.04 C 69.01 322.58 68.80 319.02 67.56 317.30 C 64.59 316.17 61.29 316.55 58.23 315.82 C 56.66 315.38 56.71 312.65 58.22 312.14 C 60.71 311.68 63.25 311.62 65.78 311.50 C 66.84 307.41 65.56 303.15 65.72 298.99 C 65.72 264.32 65.96 229.66 66.22 194.99 C 66.18 189.53 66.77 184.05 66.03 178.62 Z" />
<path fill="#1d1d1b" opacity="1.00" d=" M 516.82 211.83 C 521.28 207.90 525.83 204.06 530.69 200.63 C 531.39 212.01 531.35 223.45 531.37 234.85 L 530.68 235.30 C 530.32 235.54 529.59 236.02 529.23 236.26 C 529.88 237.77 530.64 239.22 531.39 240.69 C 531.28 247.18 531.11 253.67 530.94 260.17 C 526.33 260.46 521.73 260.64 517.13 260.99 C 516.60 244.61 516.49 228.21 516.82 211.83 Z" />
<path fill="#1d1d1b" opacity="1.00" d=" M 516.86 262.25 C 521.52 261.78 526.20 261.51 530.89 261.44 C 530.59 267.63 530.65 273.83 530.16 280.00 C 529.80 285.17 529.03 290.32 529.33 295.51 C 526.38 299.73 523.45 303.97 520.52 308.21 C 520.42 303.52 519.89 298.83 518.95 294.24 C 512.60 293.95 506.14 295.26 499.86 293.90 C 501.43 293.00 503.09 292.26 504.78 291.60 C 509.46 291.62 514.14 291.89 518.83 291.76 C 517.84 281.94 517.63 272.08 516.86 262.25 Z" />
<path fill="#1d1d1b" opacity="1.00" d=" M 520.84 310.35 C 523.04 307.06 525.29 303.80 527.64 300.61 C 527.81 306.06 526.77 311.48 525.88 316.84 C 525.97 318.79 523.01 319.67 522.38 317.67 C 521.70 315.26 521.42 312.77 520.84 310.35 Z" />
<path fill="#1d1d1b" opacity="1.00" d=" M 170.95 306.21 C 173.96 306.48 176.98 306.42 180.00 306.40 C 210.00 306.05 240.00 305.98 270.00 306.14 C 308.08 306.22 346.17 306.04 384.23 307.25 C 358.11 312.99 332.02 319.12 305.51 322.77 C 291.16 321.35 276.69 322.44 262.30 321.80 C 234.26 321.29 206.21 321.73 178.17 321.10 C 178.25 315.31 176.03 309.38 170.95 306.21 Z" />
<path fill="#1d1d1b" opacity="1.00" d=" M 321.70 321.75 C 344.47 317.53 367.03 312.28 389.69 307.52 C 406.55 307.95 423.38 309.13 440.23 309.49 C 432.04 312.28 424.15 315.79 416.25 319.29 C 384.75 320.38 353.24 322.61 321.70 321.75 Z" />
<path fill="#1d1d1b" opacity="1.00" d=" M 421.60 318.48 C 429.23 315.20 436.81 311.69 444.79 309.30 C 455.84 311.53 467.24 310.47 478.44 311.50 C 477.26 313.25 476.22 315.08 475.29 316.97 C 467.84 316.55 460.41 317.33 452.97 317.37 C 442.50 317.41 432.07 319.19 421.60 318.48 Z" />
<path fill="#1d1d1b" opacity="1.00" d=" M 477.84 316.15 C 478.51 314.36 479.49 312.73 480.63 311.20 C 482.76 311.48 484.90 311.75 487.05 311.96 C 486.18 313.75 484.82 315.22 483.39 316.59 C 481.54 316.43 479.69 316.30 477.84 316.15 Z" />
<path fill="#1d1d1b" opacity="1.00" d=" M 485.83 315.88 C 487.13 314.37 488.40 312.83 489.62 311.26 C 495.27 312.60 501.12 311.90 506.86 312.44 C 507.28 313.48 507.28 314.52 506.86 315.57 C 499.86 315.71 492.82 316.47 485.83 315.88 Z" />
</g>
<g id="#000000ff">
<path fill="#000000" opacity="1.00" d=" M 123.65 155.03 C 148.75 154.09 173.88 154.45 199.00 154.43 C 204.50 154.50 210.01 154.27 215.51 154.65 C 211.87 157.00 208.23 159.36 204.56 161.66 C 202.04 161.46 199.51 161.37 196.99 161.35 C 172.59 161.35 148.19 161.14 123.79 160.91 C 123.47 158.96 123.38 156.99 123.65 155.03 Z" />
<path fill="#000000" opacity="1.00" d=" M 208.37 160.49 C 211.75 158.15 215.19 155.90 218.70 153.75 C 221.42 154.37 224.22 154.54 227.01 154.49 C 307.34 154.24 387.68 154.68 468.01 154.06 C 478.34 154.68 488.72 153.59 498.98 155.03 C 504.55 155.49 510.21 155.27 515.71 156.34 C 517.19 156.94 517.19 159.13 515.64 159.65 C 509.91 160.99 503.94 160.80 498.10 161.25 C 499.70 163.59 501.31 165.96 503.30 168.00 C 505.35 169.07 507.51 167.10 509.23 166.07 C 509.68 167.67 509.87 169.33 509.98 170.98 C 510.14 176.18 513.95 180.72 513.25 186.01 C 513.28 187.76 511.66 188.70 510.98 190.13 C 510.88 198.38 511.96 206.71 511.03 214.92 C 510.05 216.01 509.11 217.14 508.27 218.34 C 509.42 217.94 510.53 217.45 511.61 216.86 C 511.81 231.72 511.35 246.59 511.78 261.44 C 509.83 261.65 507.87 261.81 505.93 262.03 C 505.73 235.99 505.62 209.93 506.81 183.91 C 506.99 181.08 504.69 178.98 503.32 176.74 C 499.77 172.09 496.99 166.92 493.56 162.21 C 490.59 160.99 487.15 161.80 484.00 161.60 C 398.33 161.59 312.66 161.72 227.00 161.40 C 220.79 161.22 214.46 162.04 208.37 160.49 Z" />
<path fill="#000000" opacity="1.00" d=" M 107.53 155.37 C 112.05 155.80 116.60 155.53 121.11 155.06 C 121.33 156.99 121.51 158.93 121.71 160.87 C 118.54 160.77 115.32 160.27 112.16 160.80 C 109.26 163.09 106.07 165.01 103.33 167.50 C 105.33 169.34 107.66 171.17 108.06 174.06 C 105.37 173.15 102.83 171.89 100.24 170.73 C 98.16 172.42 95.88 173.87 93.31 174.68 C 93.13 204.79 94.78 234.91 93.65 265.01 C 93.64 268.26 93.19 271.57 93.92 274.77 C 97.12 278.77 103.54 279.85 105.13 285.09 C 100.49 284.85 97.01 281.57 93.32 279.16 C 92.69 281.09 94.28 285.37 91.13 284.94 C 91.19 279.57 88.90 274.33 90.13 268.99 C 90.55 265.68 90.30 262.34 90.18 259.02 C 89.49 233.35 90.53 207.68 90.72 182.01 C 90.79 175.43 91.36 168.84 90.65 162.27 C 91.15 162.02 92.15 161.52 92.65 161.27 C 92.90 164.96 92.95 168.67 93.21 172.37 C 94.02 171.40 94.91 170.48 95.56 169.39 C 96.82 166.99 93.06 164.21 95.11 162.15 C 96.99 162.74 98.62 163.87 100.23 164.97 C 102.30 163.77 103.94 162.02 105.30 160.08 C 102.43 159.73 99.55 159.46 96.66 159.40 C 100.14 157.69 103.76 156.29 107.53 155.37 Z" />
<path fill="#000000" opacity="1.00" d=" M 305.34 205.38 C 308.74 199.67 315.26 195.74 322.00 196.31 C 328.61 196.43 334.35 201.13 336.97 207.01 C 341.54 216.88 341.51 228.16 340.45 238.78 C 339.73 245.87 336.82 252.45 333.17 258.48 C 330.58 259.84 328.01 261.26 325.35 262.46 C 319.54 263.57 312.95 262.69 308.55 258.44 C 303.05 253.17 300.86 245.40 299.97 238.05 C 298.94 227.01 299.31 215.07 305.34 205.38 M 319.38 207.42 C 316.65 208.19 315.33 211.08 314.57 213.57 C 312.22 221.81 312.41 230.53 313.16 238.99 C 313.80 242.83 314.20 247.09 316.87 250.14 C 318.62 252.31 322.39 252.34 324.02 250.01 C 326.67 246.22 327.09 241.40 327.61 236.93 C 327.99 228.73 328.39 220.24 325.78 212.34 C 324.95 209.65 322.55 206.55 319.38 207.42 Z" />
<path fill="#000000" opacity="1.00" d=" M 133.36 197.26 C 138.58 196.86 143.87 196.77 149.08 197.26 C 149.21 197.86 149.47 199.06 149.60 199.66 C 144.13 200.02 138.63 200.32 133.27 201.50 C 133.29 200.08 133.32 198.67 133.36 197.26 Z" />
<path fill="#000000" opacity="1.00" d=" M 169.01 198.07 C 175.19 196.48 181.75 196.59 188.09 197.02 C 195.11 197.45 202.17 201.81 204.24 208.79 C 206.35 215.96 205.62 224.51 200.78 230.45 C 197.85 227.98 194.88 225.55 191.73 223.36 C 192.86 218.86 193.75 213.39 190.47 209.54 C 188.48 207.07 185.08 206.89 182.16 207.16 C 181.01 211.68 181.65 216.39 181.78 220.99 C 177.42 221.49 173.18 222.69 169.04 224.09 C 168.85 215.42 168.84 206.74 169.01 198.07 Z" />
<path fill="#000000" opacity="1.00" d=" M 213.07 198.06 C 217.26 196.83 221.68 196.93 226.01 196.73 C 232.52 196.67 239.80 197.51 244.60 202.40 C 249.38 207.23 250.06 214.60 249.11 221.02 C 248.23 227.45 243.92 233.36 237.88 235.87 C 234.22 237.74 230.05 237.68 226.08 238.25 C 226.00 238.82 225.82 239.95 225.73 240.52 C 221.50 240.17 217.29 239.59 213.08 239.07 C 212.97 225.40 212.98 211.73 213.07 198.06 M 226.04 207.18 C 225.44 214.00 225.42 220.96 226.06 227.78 C 228.66 227.53 231.58 227.49 233.63 225.63 C 237.57 222.35 237.48 216.40 236.09 211.91 C 234.71 207.74 229.97 206.45 226.04 207.18 Z" />
<path fill="#000000" opacity="1.00" d=" M 257.25 198.11 C 261.40 196.96 265.74 196.90 270.02 196.74 C 276.16 196.64 282.85 197.14 287.82 201.17 C 291.83 204.15 293.50 209.25 293.60 214.09 L 292.88 214.66 C 288.28 217.44 283.93 220.61 279.34 223.41 C 280.41 218.84 281.74 213.46 278.79 209.30 C 276.81 206.51 273.06 206.56 270.02 206.83 C 269.74 213.26 269.70 219.70 270.05 226.13 C 271.46 226.22 272.86 226.34 274.27 226.48 C 268.85 229.90 263.23 233.04 257.28 235.45 C 257.14 223.00 257.19 210.56 257.25 198.11 Z" />
<path fill="#000000" opacity="1.00" d=" M 343.84 197.09 C 348.48 196.93 353.13 196.86 357.77 197.16 C 359.94 210.27 361.80 223.43 364.26 236.48 C 361.23 239.44 357.89 242.04 354.52 244.60 C 352.52 238.22 351.50 231.60 349.92 225.11 C 347.95 215.76 345.56 206.49 343.84 197.09 Z" />
<path fill="#000000" opacity="1.00" d=" M 373.29 197.22 C 377.86 196.81 382.46 196.95 387.04 197.08 C 384.96 208.34 382.08 219.44 379.58 230.62 C 377.22 240.09 375.64 249.76 372.86 259.12 C 367.98 257.17 364.86 252.20 365.07 246.96 C 367.15 245.69 367.57 243.03 366.41 240.97 C 368.87 234.46 373.87 229.49 377.47 223.68 C 373.70 225.77 371.55 229.70 368.41 232.53 C 367.98 227.92 369.18 223.38 369.90 218.86 C 371.23 211.68 372.06 204.42 373.29 197.22 Z" />
<path fill="#000000" opacity="1.00" d=" M 392.92 197.06 C 402.27 196.95 411.63 196.95 420.98 197.06 C 421.17 200.68 421.17 204.32 420.98 207.94 C 415.77 208.20 410.54 207.70 405.34 208.23 C 405.43 213.07 405.43 217.92 405.34 222.76 C 410.25 223.25 415.19 222.79 420.12 223.06 C 420.36 226.58 420.59 230.16 419.83 233.64 C 415.05 233.97 409.98 232.75 405.38 234.19 C 405.41 239.73 405.44 245.26 405.35 250.79 C 408.68 251.24 412.06 251.11 415.40 251.45 C 408.63 255.86 400.91 258.89 392.94 260.25 C 392.67 239.19 392.71 218.12 392.92 197.06 Z" />
<path fill="#000000" opacity="1.00" d=" M 431.10 198.00 C 439.28 196.40 448.16 195.83 456.07 198.92 C 463.69 202.02 468.03 209.95 469.30 217.75 C 470.94 227.84 470.58 238.51 466.90 248.13 C 462.51 247.73 458.12 247.25 453.75 246.68 C 457.37 239.34 457.34 230.90 456.83 222.92 C 456.44 218.04 455.54 212.67 451.89 209.09 C 449.79 206.93 446.61 206.92 443.82 206.91 C 443.21 219.48 443.81 232.09 443.53 244.67 C 438.96 243.61 434.06 242.92 430.14 240.17 C 435.38 233.68 439.54 226.08 440.93 217.77 C 437.33 218.38 434.38 220.71 431.29 222.46 C 430.59 214.34 430.88 206.14 431.10 198.00 Z" />
<path fill="#000000" opacity="1.00" d=" M 131.91 202.53 C 137.94 201.40 144.07 200.70 150.20 200.53 C 147.07 206.21 144.59 212.20 142.54 218.35 C 142.22 215.18 141.79 212.02 141.32 208.87 C 139.41 215.43 138.89 222.31 138.09 229.07 C 137.49 230.48 136.91 231.90 136.37 233.34 C 137.33 233.28 139.25 233.16 140.21 233.10 C 139.06 233.36 137.93 233.64 136.79 233.94 C 136.74 234.76 136.63 236.40 136.58 237.22 C 139.44 237.44 142.31 237.44 145.17 237.22 C 145.07 235.64 144.97 234.07 144.88 232.49 C 148.48 231.77 151.94 230.54 155.45 229.49 C 157.56 240.30 159.41 251.16 161.69 261.94 C 157.58 262.15 153.44 262.29 149.35 261.81 C 148.46 256.98 147.60 252.14 146.65 247.33 C 142.69 247.30 138.66 246.91 134.74 247.62 C 133.77 252.40 133.39 257.32 131.92 261.99 C 127.94 262.17 123.95 262.19 119.98 261.94 C 123.56 244.05 127.57 226.24 131.45 208.42 C 131.82 206.48 131.88 204.50 131.91 202.53 Z" />
<path fill="#000000" opacity="1.00" d=" M 150.21 203.90 C 152.22 212.14 153.33 220.60 155.39 228.84 C 151.86 230.00 148.26 230.96 144.61 231.71 C 144.13 228.69 143.55 225.69 142.85 222.71 C 144.96 216.33 146.61 209.65 150.21 203.90 Z" />
<path fill="#000000" opacity="1.00" d=" M 273.32 228.29 C 279.13 224.92 284.39 220.66 290.38 217.60 C 286.46 226.42 281.41 234.86 279.16 244.34 C 278.16 242.17 277.58 239.76 276.10 237.86 C 274.58 236.16 272.16 236.19 270.08 235.98 C 269.54 244.62 270.06 253.28 269.84 261.93 C 265.64 262.20 261.41 262.21 257.21 261.90 C 256.99 253.41 257.68 244.88 256.77 236.42 C 262.54 234.24 267.97 231.32 273.32 228.29 Z" />
<path fill="#000000" opacity="1.00" d=" M 430.91 223.97 C 433.29 222.35 435.64 220.60 438.40 219.66 C 437.36 225.62 434.95 231.48 431.20 236.24 C 430.93 232.16 430.87 228.06 430.91 223.97 Z" />
<path fill="#000000" opacity="1.00" d=" M 168.96 224.90 C 173.12 223.48 177.39 222.36 181.73 221.67 C 181.68 223.60 181.67 225.52 181.68 227.45 C 185.04 227.95 188.31 226.90 190.77 224.57 C 193.92 226.66 196.75 229.19 199.62 231.63 C 195.23 236.77 188.17 237.79 181.81 238.12 C 181.28 245.99 181.69 253.90 181.66 261.78 C 177.46 262.27 173.23 262.17 169.02 261.98 C 168.82 249.62 168.91 237.26 168.96 224.90 Z" />
<path fill="#000000" opacity="1.00" d=" M 285.18 233.00 C 287.04 233.04 287.91 234.88 288.80 236.24 C 291.10 240.50 291.65 245.41 292.67 250.09 C 293.34 254.10 294.69 257.96 295.31 261.98 C 291.22 262.10 287.12 262.26 283.04 261.99 C 281.07 259.88 281.05 256.41 280.01 253.72 C 280.41 246.57 282.56 239.62 285.18 233.00 Z" />
<path fill="#000000" opacity="1.00" d=" M 354.66 245.78 C 357.64 243.53 360.50 241.13 363.52 238.92 C 363.73 239.39 364.17 240.32 364.39 240.79 C 363.55 244.74 362.51 248.99 364.13 252.91 C 365.51 257.02 369.43 259.49 373.34 260.84 C 372.40 261.64 371.31 262.03 370.08 262.01 C 366.11 262.19 362.12 262.20 358.16 261.89 C 356.88 256.54 355.59 251.20 354.66 245.78 Z" />
<path fill="#000000" opacity="1.00" d=" M 212.97 240.10 C 217.23 240.69 221.49 241.20 225.79 241.32 C 225.60 248.16 225.71 255.00 225.72 261.84 C 221.51 262.24 217.28 262.17 213.07 261.97 C 212.89 254.68 213.12 247.39 212.97 240.10 Z" />
<path fill="#000000" opacity="1.00" d=" M 431.31 242.46 C 435.17 243.93 439.20 244.90 443.25 245.76 C 443.33 247.80 443.41 249.85 443.47 251.90 C 447.37 253.10 451.04 250.90 453.29 247.81 C 457.57 248.22 461.84 248.79 466.14 249.14 C 463.88 254.83 458.74 259.21 452.92 260.98 C 445.84 263.24 438.31 262.42 431.04 261.88 C 430.93 255.41 430.57 248.90 431.31 242.46 Z" />
<path fill="#000000" opacity="1.00" d=" M 392.90 261.10 C 402.08 259.42 410.94 255.86 418.62 250.53 C 419.43 250.67 421.03 250.95 421.84 251.09 C 422.54 254.68 422.26 258.36 422.07 261.98 C 412.54 262.07 402.96 262.38 393.47 261.70 L 392.90 261.10 Z" />
<path fill="#000000" opacity="1.00" d=" M 505.68 263.36 C 507.53 263.23 509.38 263.05 511.24 262.88 C 511.53 270.57 511.68 278.29 511.16 285.97 C 509.74 286.78 508.14 286.84 506.58 286.49 C 505.15 278.87 506.53 271.05 505.68 263.36 Z" />
<path fill="#000000" opacity="1.00" d=" M 100.74 278.12 C 102.41 274.21 107.22 274.26 110.82 274.05 C 110.80 274.47 110.76 275.31 110.74 275.73 C 107.30 276.06 103.97 276.92 100.74 278.12 Z" />
<path fill="#000000" opacity="1.00" d=" M 496.84 290.98 C 496.81 287.41 496.14 283.83 496.78 280.28 C 499.86 283.20 500.62 287.47 501.39 291.45 C 497.00 293.74 492.01 294.23 487.33 295.63 C 486.11 295.25 484.89 294.88 483.67 294.54 C 484.45 293.34 485.21 292.14 486.03 290.97 C 489.62 291.17 493.24 291.38 496.84 290.98 Z" />
<path fill="#000000" opacity="1.00" d=" M 101.38 291.63 C 112.86 290.08 124.45 290.47 136.00 290.41 C 191.00 290.38 246.00 290.35 301.00 290.31 C 353.99 290.41 407.00 289.95 459.99 290.60 C 466.47 290.68 472.99 290.34 479.43 291.31 C 478.09 292.66 476.76 294.01 475.42 295.37 C 448.29 295.11 421.14 295.51 394.00 295.68 C 310.34 295.69 226.67 295.75 143.01 295.67 C 128.88 295.63 114.61 296.59 100.62 294.18 C 98.95 293.58 99.97 291.55 101.38 291.63 Z" />
<path fill="#000000" opacity="1.00" d=" M 477.95 294.96 C 479.29 293.60 480.66 292.27 482.07 290.98 C 482.52 291.09 483.41 291.30 483.86 291.40 C 482.94 292.63 482.08 293.90 481.15 295.13 C 480.35 295.08 478.75 295.00 477.95 294.96 Z" />
<path fill="#000000" opacity="1.00" d=" M 491.42 299.56 C 493.64 297.80 495.94 296.14 498.41 294.73 C 498.95 297.45 502.14 297.00 504.10 298.12 C 504.55 300.28 502.25 301.05 500.63 301.58 C 497.47 302.45 492.88 303.56 491.42 299.56 Z" />
<path fill="#000000" opacity="1.00" d=" M 72.96 298.27 C 73.71 298.19 75.21 298.04 75.96 297.97 C 81.27 300.86 88.16 300.92 92.48 305.40 C 86.90 304.87 81.68 302.64 76.17 301.75 C 74.82 300.90 73.12 300.06 72.96 298.27 Z" />
</g>
<g id="#090909d9">
<path fill="#090909" opacity="0.85" d=" M 286.89 229.06 C 288.58 225.16 290.60 221.42 292.65 217.69 C 293.13 222.05 290.41 226.63 286.89 229.06 Z" />
</g>
<g id="#20202087">
<path fill="#202020" opacity="0.53" d=" M 365.07 246.96 C 364.76 244.86 365.50 242.83 366.41 240.97 C 367.57 243.03 367.15 245.69 365.07 246.96 Z" />
</g>
<g id="#ffffffff">
<path fill="#ffffff" opacity="1.00" d=" M 102.30 308.52 C 114.26 306.38 125.80 302.03 137.98 301.18 C 149.10 300.72 160.70 301.54 170.95 306.21 C 176.03 309.38 178.25 315.31 178.17 321.10 C 178.53 326.21 178.30 332.00 182.01 336.04 C 188.07 343.26 199.74 343.66 206.95 337.96 C 214.53 332.07 221.21 323.86 231.17 322.14 C 241.30 320.68 250.97 325.34 261.01 325.67 C 275.88 325.42 290.74 324.55 305.51 322.77 C 332.02 319.12 358.11 312.99 384.23 307.25 C 389.13 306.36 393.95 305.02 398.88 304.23 C 398.76 304.55 398.51 305.18 398.39 305.49 C 395.55 306.41 392.59 306.83 389.69 307.52 C 367.03 312.28 344.47 317.53 321.70 321.75 C 303.32 325.21 284.61 325.73 266.01 327.03 C 254.03 327.89 242.56 321.17 230.58 323.66 C 217.88 326.67 211.37 340.90 198.32 343.13 C 191.82 343.88 184.73 341.60 180.27 336.73 C 175.71 331.47 177.50 324.07 176.26 317.77 C 175.71 312.69 171.99 308.35 167.31 306.53 C 161.59 303.85 155.22 303.29 149.02 302.80 C 136.72 302.00 124.44 304.15 112.64 307.48 C 108.21 308.43 103.81 309.55 99.71 311.49 C 95.76 311.96 91.75 311.73 87.78 311.53 C 92.08 308.92 97.62 310.30 102.30 308.52 Z" />
</g>
</svg>
