<?xml version="1.0" encoding="utf-8"?>
<!-- Generator: Adobe Illustrator 16.0.0, SVG Export Plug-In . SVG Version: 6.00 Build 0)  -->
<!DOCTYPE svg PUBLIC "-//W3C//DTD SVG 1.1//EN" "http://www.w3.org/Graphics/SVG/1.1/DTD/svg11.dtd">
<svg version="1.1" id="Layer_1" xmlns="http://www.w3.org/2000/svg" xmlns:xlink="http://www.w3.org/1999/xlink" x="0px" y="0px"
	 width="128.37px" height="233.184px" viewBox="0 0 128.37 233.184" enable-background="new 0 0 128.37 233.184"
	 xml:space="preserve">
<path fill="none" stroke="#34991F" stroke-width="8" stroke-linecap="round" stroke-linejoin="round" stroke-miterlimit="10" d="
	M21.936,229.184c18.056-8.078,29.375-10.646,40.4-15.035c20.338-8.092,42.435-14.484,62.034-24.15
	c-4.328-2.789-50.048-8.844-66.602-9.955c-14.15-0.952-28.429-2.771-42.521-3.478c17.9-13.443,29.66-19.681,35.329-22.818
	c15.087-8.35,36.736-20.777,50.186-30.935c-25.609-2.943-39.63-5.979-60.744-7.637c-10.816-0.85-21.188-2.429-36.018-5.178
	c5.019-8.439,12.847-16.863,21.475-29.458c17.66-25.784,26.244-35.666,46.711-67.358"/>
<path fill="none" stroke="#34991F" stroke-width="8" stroke-linecap="round" stroke-linejoin="round" stroke-miterlimit="10" d="
	M71.018,51.365c2.354-13.887,11.857-43.506,6.445-47.276c-1.973-1.375-29.878,13.626-39.52,21.088"/>
</svg>
