<?xml version="1.0" encoding="utf-8"?>
<!-- Generator: Adobe Illustrator 16.0.0, SVG Export Plug-In . SVG Version: 6.00 Build 0)  -->
<!DOCTYPE svg PUBLIC "-//W3C//DTD SVG 1.1//EN" "http://www.w3.org/Graphics/SVG/1.1/DTD/svg11.dtd">
<svg version="1.1" id="Layer_1" xmlns="http://www.w3.org/2000/svg" xmlns:xlink="http://www.w3.org/1999/xlink" x="0px" y="0px"
	 width="155.953px" height="451.402px" viewBox="0 0 155.953 451.402" enable-background="new 0 0 155.953 451.402"
	 xml:space="preserve">
<path fill="none" stroke="#C13F11" stroke-width="8" stroke-linecap="round" stroke-linejoin="round" stroke-miterlimit="10" d="
	M51.41,447.402c19.387-33.227,40.039-123.299,39.969-169.168c-0.055-34.92-3.789-57.273-14.724-87.838
	c-9.737-27.209-24.058-66.495-39.245-90.739"/>
<path fill="none" stroke="#C13F11" stroke-width="8" stroke-linecap="round" stroke-linejoin="round" stroke-miterlimit="10" d="
	M113.41,445.801c13-32.051,24.48-90.699,28.273-113.572c5.551-33.465,6.74-76.959,2.715-111.281
	c-6.859-58.506-29.09-121.29-59.988-156.545"/>
<path fill="none" stroke="#C13F11" stroke-width="8" stroke-linecap="round" stroke-linejoin="round" stroke-miterlimit="10" d="
	M4.371,154.699c-2.264-23.159,6.516-56.948,8.057-80.063C14.025,50.733,13.361,27.79,11.72,4"/>
<path fill="none" stroke="#C13F11" stroke-width="8" stroke-linecap="round" stroke-linejoin="round" stroke-miterlimit="10" d="
	M11.72,4c3.846,4.749,11.029,6.624,16.781,8.943c17.412,7.021,35.717,14.216,53.91,18.886c12.412,3.187,57.334,14.59,69.541,17.153"
	/>
</svg>
