<?xml version="1.0" encoding="UTF-8" ?>
<!DOCTYPE svg PUBLIC "-//W3C//DTD SVG 1.1//EN" "http://www.w3.org/Graphics/SVG/1.1/DTD/svg11.dtd">
<svg width="382pt" height="294pt" viewBox="0 0 382 294" version="1.1" xmlns="http://www.w3.org/2000/svg">
<g id="#e08110ff">
<path fill="#e08110" opacity="1.00" d=" M 0.00 0.00 L 89.53 0.00 C 65.16 9.33 40.50 17.91 16.01 26.95 C 10.67 28.97 5.17 30.61 0.00 33.06 L 0.00 0.00 Z" />
<path fill="#e08110" opacity="1.00" d=" M 128.60 0.00 L 147.38 0.00 C 98.11 40.98 49.18 82.39 0.00 123.49 L 0.00 74.46 C 35.25 54.26 70.37 33.82 105.58 13.56 C 113.25 9.03 121.10 4.81 128.60 0.00 Z" />
<path fill="#e08110" opacity="1.00" d=" M 161.39 0.00 L 169.49 0.00 C 114.91 95.14 59.81 189.99 5.08 285.04 C 3.48 287.85 1.70 290.55 0.00 293.30 L 0.00 191.69 C 5.43 185.84 10.39 179.59 15.54 173.51 C 62.23 117.87 108.92 62.23 155.59 6.57 C 157.45 4.32 159.33 2.07 161.39 0.00 Z" />
<path fill="#e08110" opacity="1.00" d=" M 178.31 0.00 L 184.14 0.00 C 167.79 92.71 151.45 185.43 135.11 278.14 C 134.15 283.44 133.49 288.79 132.13 294.00 L 70.97 294.00 C 74.99 284.72 77.95 275.01 81.57 265.57 C 113.84 177.06 145.92 88.47 178.31 0.00 Z" />
<path fill="#e08110" opacity="1.00" d=" M 191.01 0.00 L 196.83 0.00 C 201.89 26.55 206.25 53.24 211.07 79.84 C 223.30 149.28 235.57 218.71 247.75 288.15 C 248.13 290.11 248.56 292.06 249.07 294.00 L 191.00 294.00 C 191.01 196.00 190.99 98.00 191.01 0.00 Z" />
<path fill="#e08110" opacity="1.00" d=" M 204.61 0.00 L 211.57 0.00 C 268.04 98.05 324.72 195.99 381.25 294.00 L 311.55 294.00 C 276.07 195.94 240.32 97.97 204.61 0.00 Z" />
<path fill="#e08110" opacity="1.00" d=" M 221.67 0.00 L 233.54 0.00 C 283.04 41.46 332.43 83.08 382.00 124.48 L 382.00 190.55 C 368.40 174.91 355.31 158.84 341.92 143.03 C 314.57 110.39 287.16 77.81 259.83 45.16 C 247.00 30.20 234.72 14.76 221.67 0.00 Z" />
<path fill="#e08110" opacity="1.00" d=" M 254.50 0.00 L 290.37 0.00 C 293.85 1.41 297.29 2.93 300.85 4.16 C 327.94 13.84 354.87 23.98 382.00 33.56 L 382.00 73.44 C 339.40 49.14 297.10 24.30 254.50 0.00 Z" />
</g>
<g id="#b25006ff">
<path fill="#b25006" opacity="1.00" d=" M 89.53 0.00 L 128.60 0.00 C 121.10 4.81 113.25 9.03 105.58 13.56 C 70.37 33.82 35.25 54.26 0.00 74.46 L 0.00 33.06 C 5.17 30.61 10.67 28.97 16.01 26.95 C 40.50 17.91 65.16 9.33 89.53 0.00 Z" />
<path fill="#b25006" opacity="1.00" d=" M 147.38 0.00 L 161.39 0.00 C 159.33 2.07 157.45 4.32 155.59 6.57 C 108.92 62.23 62.23 117.87 15.54 173.51 C 10.39 179.59 5.43 185.84 0.00 191.69 L 0.00 123.49 C 49.18 82.39 98.11 40.98 147.38 0.00 Z" />
<path fill="#b25006" opacity="1.00" d=" M 169.49 0.00 L 178.31 0.00 C 145.92 88.47 113.84 177.06 81.57 265.57 C 77.95 275.01 74.99 284.72 70.97 294.00 L 0.00 294.00 L 0.00 293.30 C 1.70 290.55 3.48 287.85 5.08 285.04 C 59.81 189.99 114.91 95.14 169.49 0.00 Z" />
<path fill="#b25006" opacity="1.00" d=" M 184.14 0.00 L 191.01 0.00 C 190.99 98.00 191.01 196.00 191.00 294.00 L 132.13 294.00 C 133.49 288.79 134.15 283.44 135.11 278.14 C 151.45 185.43 167.79 92.71 184.14 0.00 Z" />
<path fill="#b25006" opacity="1.00" d=" M 196.83 0.00 L 204.61 0.00 C 240.32 97.97 276.07 195.94 311.55 294.00 L 249.07 294.00 C 248.56 292.06 248.13 290.11 247.75 288.15 C 235.57 218.71 223.30 149.28 211.07 79.84 C 206.25 53.24 201.89 26.55 196.83 0.00 Z" />
<path fill="#b25006" opacity="1.00" d=" M 211.57 0.00 L 221.67 0.00 C 234.72 14.76 247.00 30.20 259.83 45.16 C 287.16 77.81 314.57 110.39 341.92 143.03 C 355.31 158.84 368.40 174.91 382.00 190.55 L 382.00 294.00 L 381.25 294.00 C 324.72 195.99 268.04 98.05 211.57 0.00 Z" />
<path fill="#b25006" opacity="1.00" d=" M 233.54 0.00 L 254.50 0.00 C 297.10 24.30 339.40 49.14 382.00 73.44 L 382.00 124.48 C 332.43 83.08 283.04 41.46 233.54 0.00 Z" />
<path fill="#b25006" opacity="1.00" d=" M 290.37 0.00 L 382.00 0.00 L 382.00 33.56 C 354.87 23.98 327.94 13.84 300.85 4.16 C 297.29 2.93 293.85 1.41 290.37 0.00 Z" />
</g>
</svg>
