<?xml version="1.0" encoding="UTF-8" ?>
<!DOCTYPE svg PUBLIC "-//W3C//DTD SVG 1.1//EN" "http://www.w3.org/Graphics/SVG/1.1/DTD/svg11.dtd">
<svg width="147pt" height="159pt" viewBox="0 0 147 159" version="1.1" xmlns="http://www.w3.org/2000/svg">
<g id="#b70847ff">
<path fill="#b70847" opacity="1.00" d=" M 66.54 0.00 L 74.47 0.00 C 90.91 1.07 106.98 7.69 119.02 18.99 C 132.58 31.52 140.93 49.54 141.42 68.03 C 142.25 86.35 135.29 104.72 122.90 118.18 C 130.58 131.15 139.03 143.64 147.00 156.42 L 147.00 159.00 L 143.81 159.00 C 129.35 152.21 114.35 146.65 99.72 140.28 C 96.65 139.17 93.52 136.93 90.14 138.15 C 76.38 142.10 61.39 141.96 47.83 137.22 C 30.34 131.33 15.44 118.24 7.31 101.68 C 3.05 93.21 0.89 83.85 0.00 74.46 L 0.00 66.55 C 1.28 49.23 8.65 32.32 21.24 20.24 C 33.27 8.28 49.71 1.30 66.54 0.00 M 33.42 15.43 C 23.64 22.26 15.27 31.40 10.34 42.34 C 3.15 57.57 2.00 75.60 7.47 91.55 C 13.69 110.59 29.14 126.32 47.99 133.05 C 61.12 137.98 75.84 138.18 89.26 134.26 C 90.92 133.92 92.67 133.22 94.36 133.81 C 109.29 139.76 123.91 146.52 139.00 152.05 C 137.00 147.32 133.73 143.31 131.10 138.94 C 126.75 131.92 122.09 125.11 117.93 117.98 C 128.13 107.00 135.67 93.13 137.04 78.03 C 139.49 58.53 132.42 38.29 118.75 24.26 C 108.50 13.77 94.75 6.68 80.20 4.69 C 64.00 2.35 46.96 6.20 33.42 15.43 Z" />
</g>
<g id="#db4d72ff">
<path fill="#db4d72" opacity="1.00" d=" M 33.42 15.43 C 46.96 6.20 64.00 2.35 80.20 4.69 C 94.75 6.68 108.50 13.77 118.75 24.26 C 132.42 38.29 139.49 58.53 137.04 78.03 C 135.67 93.13 128.13 107.00 117.93 117.98 C 122.09 125.11 126.75 131.92 131.10 138.94 C 133.73 143.31 137.00 147.32 139.00 152.05 C 123.91 146.52 109.29 139.76 94.36 133.81 C 92.67 133.22 90.92 133.92 89.26 134.26 C 75.84 138.18 61.12 137.98 47.99 133.05 C 29.14 126.32 13.69 110.59 7.47 91.55 C 2.00 75.60 3.15 57.57 10.34 42.34 C 15.27 31.40 23.64 22.26 33.42 15.43 M 8.84 60.92 C 5.07 83.75 15.50 108.29 34.59 121.37 C 46.72 130.25 62.16 134.25 77.09 132.86 C 82.16 132.76 86.91 130.72 91.90 130.22 C 96.64 131.29 100.85 133.92 105.42 135.51 C 114.38 138.84 122.88 143.42 132.12 145.94 C 130.18 144.15 128.06 142.57 125.80 141.19 C 116.60 135.43 107.38 129.68 98.18 123.90 C 95.39 121.92 91.98 123.46 89.00 124.03 C 67.97 129.18 44.44 122.18 29.67 106.34 C 18.07 94.80 11.75 78.29 11.88 62.00 C 11.85 57.23 12.90 52.54 12.94 47.77 C 10.27 51.63 9.67 56.41 8.84 60.92 Z" />
</g>
<g id="#e86990ff">
<path fill="#e86990" opacity="1.00" d=" M 8.84 60.92 C 9.67 56.41 10.27 51.63 12.94 47.77 C 12.90 52.54 11.85 57.23 11.88 62.00 C 11.75 78.29 18.07 94.80 29.67 106.34 C 44.44 122.18 67.97 129.18 89.00 124.03 C 91.98 123.46 95.39 121.92 98.18 123.90 C 107.38 129.68 116.60 135.43 125.80 141.19 C 128.06 142.57 130.18 144.15 132.12 145.94 C 122.88 143.42 114.38 138.84 105.42 135.51 C 100.85 133.92 96.64 131.29 91.90 130.22 C 86.91 130.72 82.16 132.76 77.09 132.86 C 62.16 134.25 46.72 130.25 34.59 121.37 C 15.50 108.29 5.07 83.75 8.84 60.92 Z" />
</g>
</svg>
