<?xml version="1.0" encoding="UTF-8" ?>
<!DOCTYPE svg PUBLIC "-//W3C//DTD SVG 1.1//EN" "http://www.w3.org/Graphics/SVG/1.1/DTD/svg11.dtd">
<svg width="128pt" height="120pt" viewBox="0 0 128 120" version="1.1" xmlns="http://www.w3.org/2000/svg">
<g id="#969696ff">
<path fill="#969696" opacity="1.00" d=" M 33.56 0.00 L 78.44 0.00 C 88.16 0.79 96.47 8.28 98.60 17.74 C 104.36 17.81 110.50 17.37 115.74 20.21 C 122.70 23.61 127.31 30.84 128.00 38.49 L 128.00 49.50 C 127.24 59.90 118.58 69.23 108.06 70.00 C 99.49 70.50 90.89 70.07 82.31 70.22 C 79.83 73.45 76.92 76.48 73.18 78.23 C 67.57 81.06 61.09 80.57 55.00 80.60 C 43.66 80.48 32.32 80.79 20.98 80.47 C 10.23 80.17 1.18 71.01 0.00 60.49 L 0.00 47.51 C 1.17 42.81 3.10 38.07 6.73 34.71 C 8.62 32.80 11.06 31.58 13.11 29.85 C 13.58 24.55 12.74 18.99 14.94 13.97 C 17.88 6.25 25.45 0.95 33.56 0.00 M 19.94 12.98 C 16.35 18.95 17.33 26.17 17.01 32.81 C 10.45 35.68 4.64 41.50 4.10 48.96 C 3.76 55.57 3.31 62.92 7.34 68.61 C 10.44 73.31 15.79 76.26 21.41 76.48 C 32.26 77.05 43.14 76.59 54.00 76.77 C 60.33 76.75 67.15 77.14 72.85 73.87 C 76.01 72.10 77.77 68.78 80.41 66.42 C 89.57 65.49 98.85 66.67 108.05 65.95 C 115.60 65.21 122.20 59.12 123.54 51.65 C 124.32 46.60 124.32 41.40 123.54 36.35 C 122.26 29.18 116.15 23.27 108.97 22.17 C 104.45 21.63 99.88 21.93 95.34 21.78 C 94.48 18.00 93.56 14.06 91.06 10.97 C 87.33 6.09 81.08 3.68 75.03 3.97 C 62.00 4.10 48.96 3.86 35.93 4.04 C 29.48 3.95 23.11 7.28 19.94 12.98 Z" />
</g>
<g id="#b5b5b5ff">
<path fill="#b5b5b5" opacity="1.00" d=" M 19.94 12.98 C 23.11 7.28 29.48 3.95 35.93 4.04 C 48.96 3.86 62.00 4.10 75.03 3.97 C 81.08 3.68 87.33 6.09 91.06 10.97 C 93.56 14.06 94.48 18.00 95.34 21.78 C 99.88 21.93 104.45 21.63 108.97 22.17 C 116.15 23.27 122.26 29.18 123.54 36.35 C 124.32 41.40 124.32 46.60 123.54 51.65 C 122.20 59.12 115.60 65.21 108.05 65.95 C 98.85 66.67 89.57 65.49 80.41 66.42 C 77.77 68.78 76.01 72.10 72.85 73.87 C 67.15 77.14 60.33 76.75 54.00 76.77 C 43.14 76.59 32.26 77.05 21.41 76.48 C 15.79 76.26 10.44 73.31 7.34 68.61 C 3.31 62.92 3.76 55.57 4.10 48.96 C 4.64 41.50 10.45 35.68 17.01 32.81 C 17.33 26.17 16.35 18.95 19.94 12.98 M 21.83 16.82 C 19.87 21.55 20.73 26.76 19.76 31.67 C 17.09 34.70 13.09 36.41 11.02 40.00 C 7.80 45.39 7.84 51.94 8.16 58.01 C 8.58 67.56 17.18 76.36 26.95 75.90 C 23.42 73.20 19.35 70.91 16.96 67.02 C 13.14 60.96 13.40 53.34 14.47 46.53 C 15.48 40.23 20.05 35.11 25.76 32.53 C 26.28 26.78 25.63 20.64 28.35 15.33 C 30.50 10.96 35.01 8.60 38.12 5.01 C 31.13 5.70 24.17 9.96 21.83 16.82 Z" />
<path fill="#b5b5b5" opacity="1.00" d=" M 32.40 82.45 C 38.51 80.30 46.39 81.00 50.81 86.16 C 52.80 88.32 52.92 91.85 51.06 94.12 C 47.86 98.39 42.04 99.70 36.97 99.22 C 32.40 98.80 27.29 96.56 25.65 91.94 C 24.47 87.46 28.56 83.79 32.40 82.45 Z" />
<path fill="#b5b5b5" opacity="1.00" d=" M 46.36 99.34 C 51.31 97.32 59.89 98.60 60.47 105.03 C 58.61 112.22 47.74 112.60 43.07 107.98 C 40.03 104.98 42.79 100.28 46.36 99.34 Z" />
<path fill="#b5b5b5" opacity="1.00" d=" M 59.29 113.09 C 61.46 112.44 63.57 113.76 65.15 115.12 C 65.61 117.83 61.96 118.25 59.99 118.37 C 57.90 118.64 56.53 116.82 55.92 115.07 C 56.93 114.25 58.00 113.41 59.29 113.09 Z" />
</g>
<g id="#c8c8c8ff">
<path fill="#c8c8c8" opacity="1.00" d=" M 21.83 16.82 C 24.17 9.96 31.13 5.70 38.12 5.01 C 35.01 8.60 30.50 10.96 28.35 15.33 C 25.63 20.64 26.28 26.78 25.76 32.53 C 20.05 35.11 15.48 40.23 14.47 46.53 C 13.40 53.34 13.14 60.96 16.96 67.02 C 19.35 70.91 23.42 73.20 26.95 75.90 C 17.18 76.36 8.58 67.56 8.16 58.01 C 7.84 51.94 7.80 45.39 11.02 40.00 C 13.09 36.41 17.09 34.70 19.76 31.67 C 20.73 26.76 19.87 21.55 21.83 16.82 Z" />
</g>
<g id="#8b8b8bed">
<path fill="#8b8b8b" opacity="0.93" d=" M 54.17 115.15 C 56.01 110.18 64.29 110.04 66.93 114.33 C 68.12 116.86 65.38 118.47 63.88 120.00 L 58.32 120.00 C 56.49 118.93 53.82 117.71 54.17 115.15 M 59.29 113.09 C 58.00 113.41 56.93 114.25 55.92 115.07 C 56.53 116.82 57.90 118.64 59.99 118.37 C 61.96 118.25 65.61 117.83 65.15 115.12 C 63.57 113.76 61.46 112.44 59.29 113.09 Z" />
</g>
</svg>
