<?xml version="1.0" encoding="UTF-8" ?>
<!DOCTYPE svg PUBLIC "-//W3C//DTD SVG 1.1//EN" "http://www.w3.org/Graphics/SVG/1.1/DTD/svg11.dtd">
<svg width="155pt" height="159pt" viewBox="0 0 155 159" version="1.1" xmlns="http://www.w3.org/2000/svg">
<g id="#748cbeff">
<path fill="#748cbe" opacity="1.00" d=" M 26.42 15.46 C 36.61 1.06 57.51 -3.78 73.30 3.72 C 83.31 8.15 90.91 16.78 95.53 26.56 C 98.19 27.51 101.22 26.41 104.03 26.57 C 118.37 26.07 133.87 30.27 143.53 41.47 C 150.29 48.94 153.44 58.78 155.00 68.54 L 155.00 73.51 C 154.37 85.25 149.31 96.65 140.70 104.70 C 128.03 117.33 107.65 122.04 91.10 114.71 C 88.68 113.88 86.34 111.56 83.65 112.69 C 74.24 115.92 64.49 118.21 54.55 118.98 C 56.61 130.08 62.78 140.35 70.96 148.06 C 75.78 152.68 82.06 155.22 87.48 159.00 L 79.59 159.00 C 57.05 152.40 36.69 137.55 24.99 117.02 C 23.31 113.94 19.60 113.09 17.04 110.94 C 7.47 103.28 1.25 91.67 0.00 79.48 L 0.00 73.54 C 1.59 58.96 9.56 45.95 19.56 35.57 C 20.38 28.49 21.95 21.23 26.42 15.46 Z" />
</g>
</svg>
