<?xml version="1.0" encoding="UTF-8" ?>
<!DOCTYPE svg PUBLIC "-//W3C//DTD SVG 1.1//EN" "http://www.w3.org/Graphics/SVG/1.1/DTD/svg11.dtd">
<svg width="189pt" height="178pt" viewBox="0 0 189 178" version="1.1" xmlns="http://www.w3.org/2000/svg">
<g id="#e22a2aff">
<path fill="#e22a2a" opacity="1.00" d=" M 110.80 0.00 L 113.91 0.00 C 115.09 8.11 115.64 17.21 121.40 23.59 C 124.88 27.51 130.74 26.22 134.61 23.64 C 144.01 17.64 150.61 8.39 157.70 0.00 L 158.31 0.00 C 154.83 9.55 150.79 19.08 149.59 29.26 C 149.08 34.75 149.22 40.80 152.46 45.50 C 155.09 49.32 159.73 51.19 164.22 51.56 C 172.64 52.40 180.85 49.92 189.00 48.20 L 189.00 50.26 C 180.44 56.78 170.98 62.98 165.63 72.64 C 163.05 77.07 162.22 83.14 165.61 87.40 C 171.24 94.75 180.75 96.92 189.00 100.00 L 189.00 103.12 C 181.20 103.83 173.02 104.19 165.95 107.94 C 162.71 109.59 159.71 112.87 160.36 116.78 C 161.21 122.20 164.95 126.56 168.52 130.50 C 173.76 135.85 179.49 140.69 184.89 145.87 C 173.89 141.51 163.16 134.96 150.96 135.12 C 146.64 135.01 142.90 138.65 142.96 142.99 C 142.58 154.37 148.80 164.45 151.97 175.06 C 144.94 167.11 139.11 157.92 130.56 151.45 C 128.68 150.10 126.59 148.54 124.15 148.78 C 121.86 149.92 121.59 152.81 121.25 155.05 C 120.56 162.74 121.91 170.42 123.05 178.00 L 119.54 178.00 C 115.76 170.68 111.93 162.91 105.16 157.87 C 102.27 155.62 97.93 155.66 95.26 158.24 C 89.51 163.37 87.40 171.09 84.63 178.00 L 81.25 178.00 C 81.43 169.74 82.20 160.68 77.69 153.33 C 75.19 149.08 69.54 148.63 65.33 150.28 C 54.19 154.21 46.25 163.40 36.85 170.11 C 41.67 160.48 48.41 151.61 50.79 140.92 C 51.47 137.41 51.90 133.29 49.60 130.27 C 47.09 127.16 42.74 126.66 39.00 126.69 C 28.78 126.77 19.29 131.00 9.43 133.08 C 15.10 126.82 23.08 122.14 25.88 113.74 C 27.15 110.55 25.37 107.08 22.58 105.41 C 15.87 101.16 7.67 100.75 0.00 99.79 L 0.00 96.55 C 7.34 94.62 14.75 92.43 21.07 88.08 C 27.67 84.15 32.92 76.95 32.25 68.97 C 31.84 59.26 25.16 51.74 20.70 43.62 C 30.09 47.42 39.38 53.37 49.95 52.17 C 55.95 51.74 60.89 47.07 62.48 41.41 C 66.09 29.88 63.18 17.75 62.53 6.01 C 67.49 15.84 71.79 26.38 79.84 34.19 C 83.09 37.32 88.12 40.02 92.55 37.64 C 97.72 34.72 100.48 29.12 102.95 23.97 C 106.54 16.32 108.28 8.02 110.80 0.00 Z" />
</g>
</svg>
