<?xml version="1.0" encoding="UTF-8" ?>
<!DOCTYPE svg PUBLIC "-//W3C//DTD SVG 1.1//EN" "http://www.w3.org/Graphics/SVG/1.1/DTD/svg11.dtd">
<svg width="387pt" height="314pt" viewBox="0 0 387 314" version="1.1" xmlns="http://www.w3.org/2000/svg">
<g id="#1d1d1bff">
<path fill="#1d1d1b" opacity="1.00" d=" M 16.25 2.98 C 17.75 2.62 19.33 2.57 20.86 2.80 C 23.04 4.45 24.36 6.91 25.94 9.09 C 29.40 14.28 33.80 19.13 35.23 25.37 C 31.84 25.51 29.59 22.79 27.53 20.49 C 24.76 17.24 22.63 13.50 19.95 10.17 C 19.49 18.77 19.93 27.38 19.90 35.99 C 20.27 113.77 21.51 191.56 20.22 269.33 C 23.14 262.61 26.91 256.09 28.58 248.93 C 28.74 232.29 28.70 215.64 28.73 199.00 C 28.59 192.84 29.24 186.68 28.62 180.54 C 36.42 180.54 44.19 179.74 51.99 179.95 C 56.39 179.85 61.14 180.67 65.09 178.23 C 75.04 172.92 84.62 166.93 94.18 160.95 C 94.31 156.08 94.55 151.21 94.51 146.34 C 94.42 144.96 94.98 143.68 95.39 142.40 C 99.00 144.84 103.37 143.53 107.39 143.41 C 112.24 143.04 117.11 143.51 121.96 143.11 C 123.31 143.09 124.25 141.98 125.25 141.23 C 135.56 131.88 145.75 122.41 156.21 113.23 C 158.05 111.48 160.86 109.88 160.45 106.93 C 160.46 100.21 160.95 93.49 160.68 86.77 C 160.73 85.41 161.31 84.15 161.66 82.85 C 164.97 86.38 169.83 84.76 174.05 84.68 C 177.58 84.35 181.18 84.88 184.68 84.25 C 188.33 82.94 193.09 80.61 196.08 84.36 C 201.65 84.22 207.22 84.31 212.78 84.50 C 214.39 84.63 215.76 83.67 217.19 83.10 C 217.66 84.09 218.17 85.06 218.56 86.09 C 218.33 90.56 218.06 95.07 218.66 99.52 C 218.99 100.71 220.36 101.10 221.24 101.80 C 230.06 106.98 239.10 111.79 247.83 117.13 C 250.57 118.70 253.06 120.91 256.13 121.81 C 259.95 122.10 263.82 122.00 267.63 121.59 C 269.18 120.48 270.23 118.85 271.40 117.38 C 280.01 105.75 289.28 94.62 298.24 83.26 C 299.82 81.58 299.68 79.20 299.69 77.07 C 299.58 64.72 299.52 52.37 299.94 40.03 C 300.31 35.24 298.77 30.16 301.33 25.74 C 302.17 26.93 302.99 28.13 303.81 29.33 C 315.50 28.05 327.26 28.77 338.99 28.33 C 343.67 28.14 348.35 28.50 353.04 28.50 C 354.17 27.83 355.17 26.96 356.22 26.17 C 356.79 27.91 357.95 29.62 357.54 31.53 C 356.82 36.32 357.64 41.15 357.64 45.96 C 357.80 101.30 357.74 156.65 357.95 212.00 C 358.02 237.40 357.76 262.80 357.20 288.20 C 361.02 288.37 364.84 288.48 368.66 288.54 C 367.67 285.30 366.69 282.01 366.72 278.59 C 368.90 278.82 371.86 278.78 372.51 281.46 C 374.51 287.24 378.77 291.79 383.47 295.53 C 385.42 296.66 385.49 299.37 383.77 300.75 C 379.15 305.39 373.49 309.60 366.85 310.56 C 365.80 310.76 364.85 310.55 363.99 309.91 C 363.85 308.00 365.63 306.99 366.90 305.92 C 370.23 303.41 373.60 300.93 376.86 298.31 C 374.51 296.21 372.86 292.92 369.95 291.72 C 351.97 291.78 333.99 292.92 316.01 292.78 C 283.34 293.15 250.67 292.69 218.00 292.57 C 161.34 292.20 104.67 292.54 48.01 292.38 C 38.04 292.61 28.06 291.31 18.11 292.23 C 15.52 291.87 13.56 289.40 12.99 286.99 C 14.02 282.58 17.35 278.78 16.99 274.06 C 15.07 186.25 17.20 98.41 17.11 10.59 C 12.92 15.39 9.76 21.90 3.61 24.41 C 3.66 19.96 7.64 17.28 9.84 13.84 C 12.48 10.52 13.59 6.26 16.25 2.98 M 302.96 31.93 C 303.80 46.48 303.41 61.06 303.77 75.62 C 307.59 71.44 310.78 66.74 314.28 62.29 C 321.81 52.86 327.66 42.22 335.36 32.91 C 324.56 32.53 313.73 32.94 302.96 31.93 M 339.27 33.05 C 337.07 38.30 334.20 43.24 330.83 47.83 C 322.48 59.08 313.77 70.07 305.19 81.14 C 303.71 82.72 303.46 84.89 303.52 86.96 C 303.58 125.98 303.66 164.99 303.58 204.00 C 303.68 231.77 302.99 259.52 302.77 287.28 C 319.85 287.32 336.94 287.63 354.02 288.10 C 353.59 263.07 353.26 238.04 353.40 213.00 C 353.53 157.34 353.51 101.67 353.68 46.01 C 353.73 41.53 354.05 37.05 354.25 32.58 C 349.26 32.93 344.26 33.01 339.27 33.05 M 163.85 87.93 C 164.09 93.96 164.40 99.98 164.34 106.01 C 170.75 100.30 177.43 94.89 183.56 88.87 C 176.98 88.70 170.41 88.39 163.85 87.93 M 271.87 121.61 C 276.29 121.74 280.72 121.91 285.13 121.60 C 286.21 121.54 287.02 122.44 287.97 122.83 C 287.57 124.79 287.05 126.76 287.24 128.78 C 287.77 135.51 287.87 142.27 287.71 149.01 C 286.86 195.07 288.54 241.16 286.99 287.20 C 291.46 287.27 295.93 287.29 300.40 287.28 C 299.33 220.86 299.52 154.42 299.71 87.99 C 290.54 99.28 281.15 110.41 271.87 121.61 M 185.18 92.19 C 178.43 98.39 171.01 103.93 164.68 110.57 C 164.01 124.01 164.50 137.53 164.37 151.01 C 164.46 194.98 164.63 238.97 163.57 282.93 C 163.63 284.34 162.70 285.44 162.04 286.58 C 160.62 281.51 161.25 276.19 161.02 271.01 C 159.84 218.81 160.86 166.60 160.29 114.41 C 148.97 123.76 138.26 133.83 126.85 143.08 C 135.51 143.21 144.24 142.48 152.83 143.83 C 151.48 149.83 152.76 155.94 152.56 162.00 C 151.86 203.93 153.18 245.86 152.01 287.78 C 173.13 287.81 194.26 287.58 215.38 287.76 C 215.13 285.86 214.95 283.94 214.86 282.03 C 214.08 259.03 214.13 236.01 214.23 213.00 C 214.31 176.03 214.45 139.05 214.38 102.08 C 207.27 98.12 200.49 93.60 193.61 89.28 C 190.41 87.39 187.41 90.12 185.18 92.19 M 199.76 89.12 C 204.60 92.16 209.62 94.89 214.53 97.82 C 214.61 94.73 214.82 91.65 215.02 88.56 C 209.94 88.90 204.85 88.94 199.76 89.12 M 218.59 104.73 C 218.42 134.48 218.67 164.24 218.64 194.00 C 218.65 223.00 219.06 252.01 218.15 281.01 C 218.07 283.25 217.89 285.50 217.59 287.73 C 221.71 287.52 225.85 287.54 229.99 287.58 C 230.20 275.40 229.60 263.22 229.45 251.04 C 229.16 214.03 229.46 177.01 229.38 139.99 C 229.69 133.68 229.38 127.33 230.02 121.05 C 235.22 123.47 240.96 122.02 246.44 121.76 C 237.27 115.91 228.03 110.15 218.59 104.73 M 232.78 125.37 C 233.71 140.56 233.14 155.79 233.26 171.00 C 233.40 209.82 233.48 248.64 232.56 287.45 C 249.64 287.44 266.71 287.38 283.79 287.16 C 282.26 241.12 283.88 195.06 283.12 149.01 C 282.96 141.35 282.94 133.66 283.84 126.04 C 278.41 126.30 272.97 126.34 267.54 126.40 C 265.34 129.55 262.98 132.76 259.47 134.56 C 259.86 133.14 260.31 131.73 260.76 130.32 C 257.63 128.71 254.80 125.84 251.05 126.04 C 244.95 126.09 238.87 125.70 232.78 125.37 M 263.25 126.25 C 263.80 126.80 263.80 126.80 263.25 126.25 M 97.70 146.67 C 97.89 150.56 98.03 154.46 98.17 158.35 C 104.22 154.87 110.02 150.98 116.01 147.41 C 109.89 147.53 103.80 147.01 97.70 146.67 M 120.84 148.87 C 113.87 153.24 106.77 157.41 99.84 161.84 C 98.61 162.44 98.02 163.67 98.20 165.02 C 97.89 201.68 98.73 238.36 97.66 275.02 C 97.55 279.29 97.44 283.56 97.51 287.84 C 114.52 287.81 131.52 287.72 148.53 287.84 C 147.42 250.24 148.45 212.62 148.08 175.01 C 148.03 165.79 147.60 156.52 148.64 147.33 C 142.43 147.74 136.21 147.76 129.99 147.53 C 126.91 147.54 123.51 146.95 120.84 148.87 M 69.73 179.59 C 75.55 179.75 81.42 179.55 87.16 180.65 C 86.01 186.39 87.29 192.22 86.95 198.01 C 86.28 227.92 87.98 257.88 86.18 287.76 C 89.11 287.75 92.05 287.76 94.98 287.79 C 94.89 271.86 94.08 255.93 94.23 240.00 C 94.05 215.18 94.46 190.36 94.15 165.54 C 86.08 170.34 77.76 174.72 69.73 179.59 M 32.24 183.23 C 33.17 202.00 32.10 220.82 32.96 239.58 C 35.62 235.08 37.26 230.09 39.30 225.29 C 44.81 212.06 50.13 198.76 55.73 185.57 C 54.33 184.64 52.79 183.86 51.06 184.04 C 44.77 184.10 38.49 183.82 32.24 183.23 M 58.51 184.44 C 50.08 204.84 42.65 225.64 33.93 245.92 C 31.87 250.70 32.91 256.02 32.61 261.06 C 32.25 269.87 32.35 278.71 31.53 287.49 C 30.56 286.79 29.29 286.19 29.51 284.77 C 29.07 276.11 29.07 267.43 28.62 258.77 C 25.97 264.48 23.60 270.32 21.10 276.10 C 19.33 279.97 20.09 284.35 19.90 288.47 C 40.99 287.71 62.09 287.53 83.19 287.76 C 81.87 263.86 82.75 239.92 82.61 216.00 C 82.83 205.33 82.04 194.63 82.98 183.97 C 74.84 184.75 66.66 183.87 58.51 184.44 M 16.01 287.33 C 14.61 290.37 19.36 287.26 16.01 287.33 Z" />
</g>
</svg>
