<?xml version="1.0" encoding="utf-8"?>
<!-- Generator: Adobe Illustrator 16.0.0, SVG Export Plug-In . SVG Version: 6.00 Build 0)  -->
<!DOCTYPE svg PUBLIC "-//W3C//DTD SVG 1.1//EN" "http://www.w3.org/Graphics/SVG/1.1/DTD/svg11.dtd">
<svg version="1.1" xmlns="http://www.w3.org/2000/svg" xmlns:xlink="http://www.w3.org/1999/xlink" x="0px" y="0px" width="220px"
	 height="215px" viewBox="0 0 220 215" enable-background="new 0 0 220 215" xml:space="preserve">
<g id="Layer_1">
	
		<path fill="#3BB746" stroke="#000000" stroke-width="6" stroke-linecap="round" stroke-linejoin="round" stroke-miterlimit="10" d="
		M113.609,30.017c-29.244-0.186-58.784,21.096-69.637,45.621c-9.306,21.029-7.062,56.958,8.057,77.641
		C74,183.334,111.333,194,140.152,183.55c24.703-8.958,43.181-26.883,51.543-52.407c8.39-25.608,2.084-58.085-18.57-77.823
		C155,36,133.333,30.015,113.609,30.017"/>
</g>
<g id="Layer_2">
	
		<path opacity="0" fill="none" stroke="#000000" stroke-width="50" stroke-linecap="round" stroke-linejoin="round" stroke-miterlimit="10" d="
		M64.5,55c-3.052,33.237-22.232,63.929-29.984,95.856c12.197-7.51,21.91-40.095,27.268-53.13
		c7.277-17.703,15.141-35.202,24.872-51.709c-0.03,18.859-14.685,41.338-21.773,58.101c-6.93,16.387-13.299,32.895-18.405,49.902
		c22.16-32.406,38.193-70.836,53.858-106.728c2.678,17.983-10.296,41.612-15.817,57.91c-6.641,19.604-14.284,38.822-21.109,58.255
		c9.693-24.003,31.084-45.512,45.117-67.137c10.306-15.882,20.913-32.129,29.13-49.212c-13.652,44.603-30.612,88.278-51.492,130.077
		c10.63-25.644,27.632-49.583,40.163-74.445c9.643-19.131,17.788-38.711,25.277-58.761c-0.648,24.036-12.449,48.857-19.255,71.458
		c-6.79,22.548-13.671,45.325-18.856,68.259c10.059-20.69,19.922-41.681,30.018-62.442c8.184-16.832,13.584-38.017,23.779-53.21
		c-10.224,31.645-16.146,65.775-28.849,96.46c12.31-30.951,22.767-65.604,40.845-93.632c2.339,28.287-2.015,72.06-15.718,97.247
		c1.713-26.396,21.345-55.175,30.872-79.567c0.327,14.581,1.061,30.46-3.939,44.448"/>
</g>
</svg>
