<?xml version="1.0" encoding="utf-8"?>
<!-- Generator: Adobe Illustrator 16.0.0, SVG Export Plug-In . SVG Version: 6.00 Build 0)  -->
<!DOCTYPE svg PUBLIC "-//W3C//DTD SVG 1.1//EN" "http://www.w3.org/Graphics/SVG/1.1/DTD/svg11.dtd">
<svg version="1.1" xmlns="http://www.w3.org/2000/svg" xmlns:xlink="http://www.w3.org/1999/xlink" x="0px" y="0px" width="219px"
	 height="219.75px" viewBox="0 0 219 219.75" enable-background="new 0 0 219 219.75" xml:space="preserve">
<g id="Layer_2">
	
		<path fill="#3EA3ED" stroke="#000000" stroke-width="8" stroke-linecap="round" stroke-linejoin="round" stroke-miterlimit="10" d="
		M110.938,12.916C95,23.924,82.94,33.517,70.12,42.571c-7.238,5.112-31.265,23.131-38.436,28.338
		C30.416,71.83,16.419,81.996,11.5,85c0.193,1.689,11.652,38.59,12.145,40.284c2.195,7.548,5.422,16.687,7.867,24.212
		c5.082,15.643,15.614,48.055,17.988,53.754c2.416,0.498,39.042-0.102,41.5,0c11.391,0.468,36.589,0.749,47.986,0.749
		c11.117,0,22.063,0.024,33.853-0.567c4.463-10.748,8.402-26.596,12.411-38.932c2.303-7.085,10.016-29.083,12.211-36.844
		c2.755-9.738,5.777-17.781,9.286-28.577c0.771-2.37,4.312-10.892,4.353-13.393c-1.611-1.722-27.438-20.037-29.402-21.362
		c-7.473-5.038-28.239-21.109-34.521-25.563c-4.474-3.172-27.648-19.3-31.869-22.791c-1.342-1.11-1.342-1.11-4.307-2.971"/>
</g>
<g id="Layer_3">
	
		<path opacity="0" fill="none" stroke="#000000" stroke-width="50" stroke-linecap="round" stroke-linejoin="round" stroke-miterlimit="10" d="
		M27,76.375c-2.255,13.908-13.141,26.498-15.813,40.341C27.801,95.115,38.443,68.56,53.881,46.284
		c-2.283,13.83-10.886,28.6-17.826,40.618c-3.868,6.697-12.543,16.291-11.919,24.43C48.8,94.038,52.08,54.914,71.954,33.486
		c-5.932,19.198-20.025,38.772-30.486,55.56c-10.153,16.292-18.863,33.689-28.665,50.135c17.285-18.879,31.118-42.063,46.245-62.697
		C71.074,60.08,82.601,42.557,92.123,24.787C89.592,45.565,69.464,68.07,59.237,85.569c-8.452,14.462-20.035,29.338-26.599,44.705
		c21.963-41.21,54.314-76.671,81.477-114.409C111.463,37.33,89.09,56.248,79.016,74.272c-11.307,20.231-23.698,40.189-34.179,60.848
		c12.626-24.362,29.898-46.609,44.252-69.996c13.221-21.541,26.504-43.582,40.601-64.548c0.363,7.712-5.564,16.141-8.929,23.318
		c-10.096,21.542-21.527,42.408-31.86,63.828c-12.967,26.879-29.719,52.479-39.845,80.614c7.331-3.969,12.821-16.824,17.792-23.951
		c12.784-18.33,27.331-35.264,41.235-52.738c15.327-19.263,31.057-39.076,41.763-61.271
		c-16.602,38.593-37.012,76.377-58.121,112.605c-10.878,18.668-22.405,36.826-33.823,55.151c-3.596,5.771-7.722,11.548-9.305,18.248
		c25.621-51.026,66.567-93.065,88.642-146.638C127.66,116.181,92.698,157.97,68.94,197.72c9.234-25.637,35.271-50.581,52.091-71.389
		c15.842-19.597,32.371-48.277,54.779-61.183c-17.576,42.295-44.469,83.087-66.167,123.504
		c7.397-25.198,28.611-47.625,43.394-68.784c11.963-17.123,23.591-35.524,36.932-51.505c0.487,6.238-4.432,14.792-6.853,20.568
		c-7.872,18.784-16.256,37.395-26.355,55.106c-10.757,18.863-23.93,36.104-35.697,54.304c1.979-15.903,18.651-35.223,26.693-48.508
		c10.58-17.479,20.049-36.703,32.509-52.868c1.617,13.527-12.096,37.067-17.813,49.412c-6.801,14.688-13.563,29.45-20.651,43.97
		c4.95-16.623,16.223-32.163,26.258-45.913c10.771-14.758,19.931-31.986,30.983-46.07c-3.102,21.946-17.416,44.167-25.167,64.92
		c-1.798,4.812-6.107,20.438-9.876,20.09"/>
</g>
</svg>
