<?xml version="1.0" encoding="UTF-8" ?>
<!DOCTYPE svg PUBLIC "-//W3C//DTD SVG 1.1//EN" "http://www.w3.org/Graphics/SVG/1.1/DTD/svg11.dtd">
<svg width="422pt" height="522pt" viewBox="0 0 422 522" version="1.1" xmlns="http://www.w3.org/2000/svg">
<g id="#1d1d1bff">
<path fill="#1d1d1b" opacity="1.00" d=" M 116.40 4.63 C 133.08 1.90 149.75 8.38 163.38 17.63 C 182.40 30.64 199.43 47.46 209.67 68.33 C 211.17 71.51 212.76 74.72 213.25 78.23 C 210.62 78.36 209.44 75.74 207.97 74.03 C 200.82 64.01 192.36 55.01 183.53 46.45 C 171.88 34.67 158.41 24.30 142.99 18.00 C 134.37 14.79 124.62 12.50 115.63 15.59 C 111.61 16.77 107.50 18.64 103.22 17.92 C 101.73 17.39 101.14 15.51 102.01 14.19 C 104.25 8.33 110.63 5.63 116.40 4.63 Z" />
<path fill="#1d1d1b" opacity="1.00" d=" M 197.01 33.88 C 196.58 30.92 200.37 30.88 202.31 31.63 C 208.52 33.84 212.81 39.22 216.80 44.20 C 225.93 55.51 232.50 68.62 238.08 81.97 C 239.64 85.64 240.68 89.53 241.03 93.51 C 236.81 91.48 235.08 86.89 232.90 83.07 C 225.84 70.44 219.35 57.25 209.48 46.51 C 205.43 42.20 199.96 39.13 197.01 33.88 Z" />
<path fill="#1d1d1b" opacity="1.00" d=" M 247.62 38.09 C 247.84 35.83 250.85 35.11 252.38 36.53 C 254.85 38.78 256.97 41.48 258.44 44.49 C 258.99 46.65 258.29 48.96 258.91 51.15 C 262.27 65.11 263.29 80.58 256.80 93.82 C 256.13 93.82 254.79 93.82 254.12 93.82 C 253.96 88.19 254.62 82.58 254.78 76.96 C 255.20 66.29 253.69 55.43 249.45 45.59 C 248.55 43.19 247.50 40.71 247.62 38.09 Z" />
<path fill="#1d1d1b" opacity="1.00" d=" M 54.00 63.09 C 71.61 58.53 89.95 57.49 108.07 58.12 C 120.12 58.71 132.26 59.72 143.91 63.01 C 151.25 65.28 159.10 67.75 164.30 73.75 C 166.65 76.38 166.95 80.06 166.57 83.41 C 164.55 81.16 164.75 77.60 162.22 75.75 C 158.10 72.54 152.84 71.40 147.88 70.14 C 125.97 65.45 103.32 65.10 81.08 67.27 C 68.18 68.94 54.98 71.13 43.41 77.40 C 39.12 79.54 35.41 82.77 30.88 84.42 C 29.72 78.70 32.88 72.75 37.76 69.81 C 42.73 66.63 48.37 64.71 54.00 63.09 Z" />
<path fill="#1d1d1b" opacity="1.00" d=" M 264.49 97.00 C 270.38 99.32 276.82 97.83 282.89 99.30 C 291.98 101.13 301.80 103.60 308.34 110.62 C 311.44 113.39 310.49 119.32 306.33 120.42 C 304.14 121.33 301.83 120.28 299.98 119.10 C 297.12 117.26 294.36 115.25 291.36 113.63 C 284.39 109.54 276.23 107.93 269.49 103.42 C 267.17 101.88 265.32 99.68 264.49 97.00 Z" />
<path fill="#1d1d1b" opacity="1.00" d=" M 61.98 102.89 C 78.80 99.39 96.82 97.93 113.31 103.69 C 116.21 104.94 119.86 105.71 121.30 108.87 C 116.14 108.49 111.30 106.24 106.08 106.25 C 86.63 105.74 67.04 108.32 48.56 114.48 C 40.34 116.87 32.42 120.48 25.39 125.39 C 21.05 128.37 17.96 132.70 14.09 136.20 C 13.14 137.31 11.65 137.27 10.33 137.46 C 9.94 134.10 9.48 130.39 11.43 127.39 C 14.13 123.20 18.05 119.92 22.19 117.21 C 34.21 109.57 48.07 105.42 61.98 102.89 Z" />
<path fill="#1d1d1b" opacity="1.00" d=" M 210.96 126.92 C 216.69 124.42 223.13 120.61 229.52 122.91 C 220.88 128.90 210.58 131.83 201.03 136.06 C 197.29 137.30 193.69 140.10 189.57 139.25 C 195.50 133.39 203.69 130.72 210.96 126.92 Z" />
<path fill="#1d1d1b" opacity="1.00" d=" M 261.80 127.37 C 267.55 126.65 272.28 130.42 276.32 133.95 C 286.63 130.97 298.34 137.31 301.51 147.52 C 303.76 155.68 301.71 164.33 298.28 171.86 C 308.69 179.26 318.17 187.85 327.77 196.24 C 347.47 213.17 366.03 231.63 381.50 252.55 C 392.35 267.18 401.57 283.11 407.77 300.27 C 415.14 320.89 419.97 343.83 413.32 365.31 C 412.71 365.42 411.50 365.63 410.89 365.74 C 410.72 363.89 410.58 362.04 410.52 360.19 C 406.82 366.35 400.76 370.53 394.51 373.79 C 393.92 378.51 393.75 383.28 393.84 388.04 C 393.67 389.87 395.04 391.21 395.96 392.63 C 394.31 395.12 392.26 397.38 389.38 398.42 C 376.08 404.52 361.55 407.74 347.02 409.05 C 334.81 410.01 322.09 409.97 310.52 405.48 C 311.93 404.90 313.41 404.34 314.96 404.77 C 325.88 406.65 337.07 406.23 348.03 404.85 C 362.35 403.04 376.62 399.39 389.38 392.50 C 389.47 386.91 389.60 381.31 389.94 375.72 C 372.24 381.62 353.56 383.37 335.43 387.46 C 328.72 388.72 322.67 392.30 315.87 393.13 C 317.74 390.52 320.30 388.48 323.27 387.26 C 333.71 382.64 345.18 381.33 356.25 379.00 C 367.20 376.65 378.37 374.91 388.84 370.80 C 392.40 369.78 392.16 365.31 393.69 362.58 C 394.72 363.97 395.57 365.48 396.38 367.02 C 402.77 362.66 409.09 356.26 409.29 348.04 C 409.56 328.46 404.46 309.16 396.69 291.31 C 385.01 265.11 367.29 242.08 347.61 221.41 C 336.78 209.90 325.07 199.28 313.43 188.61 C 307.96 183.92 302.48 179.23 297.48 174.03 C 291.93 183.57 285.35 192.75 276.58 199.59 C 272.75 202.59 268.17 204.41 263.47 205.49 C 261.43 213.93 259.73 222.49 256.54 230.61 C 252.40 243.38 245.82 255.20 238.16 266.18 C 245.07 260.87 252.29 255.78 260.57 252.85 C 260.36 249.36 259.96 245.88 260.15 242.38 C 262.64 244.99 262.91 248.76 263.88 252.07 C 266.67 264.56 269.67 277.07 270.82 289.84 C 284.90 289.38 299.01 288.02 312.75 284.81 C 319.21 283.61 325.42 281.24 331.98 280.54 C 328.66 257.26 320.15 235.09 316.71 211.85 C 310.89 211.24 304.94 211.46 299.32 213.21 C 288.41 216.08 278.21 221.36 269.38 228.36 C 264.82 232.17 260.70 236.68 258.05 242.05 C 256.36 245.30 256.42 249.04 255.70 252.55 C 253.53 248.35 254.41 243.31 256.11 239.11 C 259.46 231.35 266.02 225.57 272.84 220.85 C 285.24 212.08 300.35 205.48 315.82 206.96 C 315.98 204.77 315.82 202.29 317.69 200.73 C 319.22 205.39 320.51 210.13 320.93 215.02 C 324.78 233.28 331.13 250.93 334.79 269.23 C 335.99 275.45 337.37 281.87 336.13 288.20 C 333.94 289.19 333.60 285.54 332.66 284.23 C 329.05 286.46 325.03 287.89 320.97 289.04 C 320.19 303.05 318.66 316.99 317.43 330.97 C 315.18 357.36 312.30 383.70 308.85 409.96 C 308.52 411.39 309.94 412.35 310.65 413.40 C 320.88 425.39 336.53 431.17 346.42 443.53 C 349.34 446.90 351.50 450.93 352.35 455.34 C 346.48 455.87 340.64 454.65 335.06 452.93 C 338.77 456.67 342.60 460.62 344.20 465.78 C 345.86 470.76 346.01 476.42 343.89 481.29 C 338.79 481.07 333.61 479.49 329.34 476.69 C 327.19 475.45 326.68 473.00 326.59 470.72 C 330.16 475.42 335.99 477.07 341.65 477.36 C 342.47 469.82 339.01 462.51 333.37 457.64 C 328.81 452.81 322.00 450.94 317.68 445.86 C 323.56 443.36 328.66 448.42 333.13 451.51 C 334.40 451.12 335.72 450.52 337.06 451.01 C 340.47 451.92 343.98 452.39 347.52 452.23 C 337.91 437.33 319.83 431.64 307.77 419.19 C 305.92 419.69 304.06 420.15 302.17 420.43 C 302.61 414.94 301.73 409.60 300.03 404.40 C 301.25 404.17 302.49 403.96 303.72 403.75 C 307.61 379.71 310.31 355.50 312.58 331.26 C 313.89 317.39 315.34 303.52 317.96 289.83 C 309.29 291.33 300.72 293.50 291.89 293.92 C 292.01 314.28 291.28 334.64 291.48 355.00 C 291.36 366.21 291.77 377.43 291.30 388.63 C 292.53 387.69 293.76 386.76 295.06 385.92 C 291.07 399.55 288.15 413.51 284.16 427.18 C 283.39 430.65 279.88 432.24 277.83 434.85 C 269.99 445.47 263.87 457.22 258.10 469.06 C 256.08 473.43 254.38 477.98 253.46 482.73 C 258.28 482.65 263.11 480.97 266.58 477.54 C 270.90 473.31 273.18 467.54 276.70 462.69 C 277.34 461.48 278.71 461.14 279.86 460.61 C 279.53 464.53 278.26 468.26 276.75 471.86 C 281.12 477.82 282.29 485.27 284.92 492.03 C 287.31 498.21 289.39 504.74 293.75 509.89 C 297.71 503.31 299.98 495.67 299.69 487.96 C 299.74 482.83 297.84 477.99 297.15 472.96 C 298.32 473.03 299.49 473.13 300.67 473.27 C 302.60 476.65 302.30 481.04 305.02 484.01 C 309.81 489.49 316.40 493.14 323.32 495.22 C 323.43 490.90 323.09 486.51 321.54 482.44 C 319.49 476.68 315.42 472.02 312.12 466.97 C 311.22 465.68 310.99 464.09 310.60 462.62 C 315.87 463.91 319.20 468.69 321.86 473.07 C 326.27 481.03 328.28 490.59 326.17 499.55 C 317.69 498.07 310.23 493.38 304.01 487.60 C 303.73 496.84 301.56 506.40 295.74 513.78 C 295.15 514.89 293.68 515.14 292.77 514.27 C 286.78 509.22 284.15 501.53 281.68 494.35 C 279.59 487.58 277.33 480.85 275.60 473.97 C 272.17 478.40 268.44 482.94 263.15 485.20 C 258.53 487.42 253.21 487.50 248.27 486.47 C 249.84 472.24 257.55 459.73 264.53 447.56 C 268.47 441.06 272.03 433.79 278.72 429.65 C 280.59 419.55 284.94 410.10 286.86 400.01 C 281.03 400.07 275.32 402.50 269.48 401.45 C 269.85 397.88 271.84 394.72 272.44 391.18 C 270.48 390.17 268.13 389.65 266.61 387.98 C 266.58 385.47 267.04 383.00 267.32 380.52 C 268.22 372.90 267.74 365.08 269.71 357.61 C 270.46 354.78 272.93 352.20 271.72 349.13 C 266.86 327.98 252.82 310.18 236.59 296.34 C 232.15 292.54 226.77 290.16 221.40 288.00 C 221.58 288.62 221.93 289.85 222.11 290.47 C 220.15 289.42 218.25 288.29 216.36 287.13 C 215.99 293.76 215.16 300.42 213.71 306.90 C 208.58 308.28 203.16 306.85 197.92 306.99 C 196.16 337.00 187.06 366.01 184.89 395.97 C 184.53 400.95 183.82 405.92 183.83 410.92 C 185.67 412.92 188.63 413.53 190.82 415.15 C 202.60 423.24 215.08 430.60 225.18 440.84 C 227.73 443.73 231.20 447.89 228.88 451.88 C 226.80 455.38 222.26 455.34 218.70 455.81 C 221.33 462.35 222.99 469.52 221.29 476.53 C 212.06 476.79 202.77 474.01 195.80 467.83 C 197.89 475.39 198.95 483.98 195.21 491.20 C 194.91 491.31 194.30 491.54 193.99 491.65 C 185.28 488.21 177.38 481.30 175.07 471.92 C 172.56 480.49 171.10 489.52 166.61 497.38 C 163.09 495.50 161.27 491.82 159.58 488.40 C 155.97 481.03 154.66 472.64 155.34 464.50 C 155.47 461.84 156.92 459.55 158.75 457.73 C 158.63 462.74 157.62 467.77 158.50 472.78 C 159.58 479.10 161.82 485.30 165.35 490.68 C 170.19 479.73 170.98 467.56 174.12 456.11 C 174.44 454.47 175.50 453.22 176.96 452.44 C 177.74 456.69 177.03 460.96 176.66 465.20 C 178.47 474.47 184.00 483.57 193.05 487.26 C 194.54 481.32 194.56 474.83 191.69 469.29 C 189.65 464.28 185.15 460.32 184.71 454.71 C 188.96 454.98 190.41 459.40 192.95 462.08 C 199.87 467.98 208.45 472.78 217.85 472.17 C 217.61 465.31 215.30 458.49 210.68 453.34 C 207.40 448.73 201.36 445.80 200.47 439.76 C 208.04 440.24 212.44 447.09 216.68 452.46 C 219.54 453.10 222.70 452.34 225.16 450.79 C 226.62 448.37 223.89 446.21 222.59 444.40 C 216.68 438.46 209.40 434.11 202.33 429.71 C 200.38 433.45 198.02 437.03 194.81 439.82 C 187.42 446.38 178.65 451.73 168.93 453.91 C 165.52 454.74 162.02 454.07 158.71 453.14 C 153.96 461.06 152.20 470.41 147.16 478.19 C 143.73 483.43 137.83 486.45 131.92 487.99 C 129.27 488.55 126.08 489.07 123.81 487.20 C 121.18 485.16 120.97 481.46 121.62 478.45 C 123.95 468.90 129.07 460.38 134.17 452.09 C 140.40 442.00 144.60 430.81 150.76 420.69 C 152.51 417.65 155.34 415.29 158.86 414.70 C 155.65 421.40 151.65 427.68 148.24 434.28 C 144.98 441.23 141.85 448.27 137.80 454.81 C 132.57 463.68 126.78 472.83 125.65 483.29 C 131.27 484.94 137.20 482.05 141.31 478.31 C 148.25 470.46 149.09 459.35 154.53 450.62 C 156.87 446.88 160.12 442.50 165.03 442.65 C 163.71 445.61 161.87 448.29 160.10 450.99 C 171.21 451.47 181.44 445.65 189.51 438.50 C 192.99 435.19 196.37 431.54 198.55 427.23 C 192.44 423.19 186.32 418.76 179.26 416.55 C 178.08 406.06 179.86 395.60 181.34 385.24 C 185.30 361.66 190.04 338.21 193.38 314.54 C 193.71 311.97 194.27 309.27 193.29 306.77 C 187.10 305.71 180.78 305.55 174.53 305.02 C 174.40 325.43 172.10 345.74 170.68 366.08 C 169.48 381.26 163.97 395.86 164.09 411.15 C 165.90 410.47 167.71 409.79 169.55 409.20 C 169.08 412.62 165.88 416.12 162.18 415.12 C 158.66 413.58 159.14 409.11 159.25 405.97 C 160.50 390.40 165.86 375.51 167.27 359.95 C 169.10 341.52 170.49 323.04 171.89 304.57 C 166.85 304.35 161.57 304.90 156.79 302.94 C 156.98 300.89 159.22 300.01 161.03 300.01 C 164.72 299.93 168.40 300.37 172.10 300.39 C 165.60 298.82 158.90 297.91 152.72 295.25 C 140.35 290.46 129.50 282.06 121.58 271.43 C 111.20 257.73 105.78 241.12 101.03 224.81 C 94.89 229.59 86.92 232.85 79.07 231.08 C 70.72 229.20 64.93 221.88 61.47 214.48 C 57.37 205.03 55.80 194.01 59.07 184.08 C 60.82 178.68 65.33 173.94 71.05 172.92 C 76.22 172.01 81.47 173.79 85.70 176.74 C 85.78 175.91 85.94 174.25 86.02 173.42 C 91.76 178.41 92.47 186.57 97.25 192.18 C 97.13 194.39 97.45 196.59 98.20 198.69 C 102.57 212.00 106.54 225.45 111.41 238.60 C 115.51 248.66 119.76 258.85 126.54 267.46 C 137.12 281.44 153.60 290.61 170.93 292.86 C 182.91 294.45 195.24 291.68 205.70 285.70 C 216.63 279.77 225.46 270.65 232.71 260.66 C 249.72 236.82 258.61 207.30 257.45 178.01 C 257.61 171.00 255.93 164.09 256.32 157.09 C 257.40 157.17 258.47 157.31 259.55 157.48 C 261.58 161.18 262.34 165.39 263.91 169.28 C 264.71 164.55 263.51 159.79 264.00 155.04 C 264.50 148.71 266.98 142.59 271.15 137.80 C 268.21 134.16 264.69 131.05 261.80 127.37 M 280.94 138.28 C 281.54 140.20 282.36 142.08 282.67 144.08 C 282.77 145.57 283.24 148.07 281.00 147.93 C 277.90 146.83 276.29 142.84 273.30 142.20 C 268.01 147.66 266.80 155.56 266.25 162.83 C 269.70 158.78 273.46 154.67 278.44 152.52 C 282.04 150.98 286.01 153.29 288.30 156.04 C 287.44 158.45 286.00 160.67 285.62 163.25 C 285.11 165.23 285.34 167.97 282.79 168.48 C 282.26 164.54 282.88 160.61 283.72 156.77 C 277.37 156.59 271.91 161.72 269.33 167.16 C 270.47 170.80 273.83 173.38 275.05 177.04 C 274.96 178.23 274.34 178.75 273.19 178.61 C 270.84 177.07 269.27 174.65 267.50 172.53 C 266.27 175.54 264.75 178.61 265.10 181.96 C 265.34 187.71 264.91 193.45 264.57 199.19 C 277.41 193.55 286.61 182.00 292.73 169.71 C 295.64 163.35 297.72 156.04 295.96 149.08 C 294.22 142.48 287.29 138.92 280.94 138.28 M 71.59 177.57 C 65.18 179.04 62.88 186.28 62.31 192.07 C 61.74 201.97 64.54 212.38 70.91 220.10 C 74.82 225.04 81.66 227.70 87.80 225.79 C 92.03 224.31 95.62 221.52 99.66 219.63 C 98.21 214.19 96.73 208.75 95.19 203.33 C 92.72 203.75 89.13 203.33 88.23 206.37 C 86.79 211.37 87.84 216.68 87.62 221.81 C 87.02 221.80 85.82 221.77 85.22 221.75 C 82.65 216.19 82.60 209.22 86.05 204.02 C 87.88 201.15 91.55 201.34 94.51 201.31 C 93.86 198.89 93.22 196.46 92.60 194.03 C 87.57 194.16 82.50 194.89 77.83 196.80 C 74.93 197.96 72.53 200.03 69.71 201.34 C 70.39 199.08 71.53 196.90 73.49 195.51 C 78.52 191.67 84.94 190.39 91.07 189.50 C 89.75 186.34 89.12 182.70 86.95 180.00 C 82.28 177.70 76.75 176.57 71.59 177.57 M 235.81 271.81 C 230.11 275.08 225.57 279.86 220.74 284.22 C 227.03 286.02 233.23 288.50 238.42 292.57 C 248.62 300.66 257.90 310.12 264.87 321.17 C 273.11 334.08 279.14 349.30 277.53 364.87 C 276.92 365.00 275.68 365.27 275.06 365.40 C 274.37 362.17 273.74 358.93 272.72 355.79 C 271.54 366.01 271.54 376.32 270.73 386.58 C 272.08 385.83 273.41 385.05 274.74 384.26 C 276.76 388.75 282.44 387.17 286.35 388.31 C 286.54 363.54 286.76 338.76 287.92 314.02 C 288.21 307.39 288.03 300.67 289.66 294.19 C 281.95 294.76 274.18 295.15 266.47 294.57 C 265.50 281.41 264.08 268.24 261.12 255.36 C 252.59 260.71 244.43 266.62 235.81 271.81 M 197.74 297.14 C 197.79 298.94 197.85 300.75 197.94 302.55 C 201.91 302.62 205.88 302.76 209.85 302.91 C 210.10 298.90 210.55 294.91 211.19 290.95 C 206.82 293.26 202.37 295.41 197.74 297.14 M 175.19 300.19 L 175.19 300.72 C 181.54 301.06 187.87 301.75 194.23 302.14 C 194.44 300.78 194.70 299.43 195.00 298.10 C 188.51 299.64 181.87 300.56 175.19 300.19 M 275.31 392.15 C 274.94 394.11 274.54 396.08 274.13 398.04 C 278.03 397.60 281.96 397.33 285.83 396.65 C 286.63 395.08 286.32 393.23 286.56 391.55 C 282.82 391.90 279.06 392.03 275.31 392.15 Z" />
<path fill="#1d1d1b" opacity="1.00" d=" M 133.69 146.73 C 136.95 145.01 139.99 142.13 143.89 142.20 C 145.42 146.70 139.90 149.63 136.69 151.68 C 126.86 156.58 116.37 160.35 105.67 162.85 C 106.43 159.89 109.62 159.24 111.98 157.98 C 119.32 154.43 126.53 150.62 133.69 146.73 Z" />
<path fill="#1d1d1b" opacity="1.00" d=" M 45.98 155.01 C 59.31 147.27 75.06 142.61 90.50 145.51 C 88.93 148.65 84.91 147.43 82.09 148.19 C 70.70 150.21 60.04 155.28 50.19 161.20 C 34.89 170.89 20.58 184.19 14.68 201.77 C 12.73 206.68 13.43 212.41 10.71 217.01 C 8.10 218.68 6.30 215.01 5.86 212.91 C 4.54 205.41 6.42 197.64 9.83 190.93 C 17.66 175.47 31.17 163.60 45.98 155.01 Z" />
<path fill="#1d1d1b" opacity="1.00" d=" M 213.03 164.02 C 213.83 162.97 215.11 163.50 216.20 163.46 C 212.83 167.62 211.54 172.85 211.91 178.14 C 216.87 175.47 221.39 171.65 226.99 170.40 C 230.35 170.13 228.73 174.01 227.47 175.54 C 223.71 180.06 217.97 182.11 212.69 184.25 C 214.00 191.74 216.92 199.07 216.00 206.81 C 214.62 206.37 212.94 206.26 212.15 204.85 C 208.46 199.39 207.82 192.55 207.35 186.15 C 202.55 187.70 197.50 188.95 192.42 188.25 C 193.36 185.95 195.94 185.70 198.00 184.99 C 201.22 184.05 204.19 182.47 207.15 180.92 C 207.56 174.96 208.12 168.14 213.03 164.02 Z" />
<path fill="#1d1d1b" opacity="1.00" d=" M 131.95 177.57 C 135.49 181.83 135.65 187.71 137.29 192.81 C 140.22 191.83 143.24 191.16 146.31 190.73 C 146.47 192.52 147.30 194.53 146.19 196.18 C 144.64 198.56 141.79 199.50 139.43 200.85 C 140.49 205.89 142.20 210.84 142.51 216.01 C 142.43 217.58 142.00 219.93 139.97 219.85 C 138.04 219.36 136.77 217.62 136.19 215.81 C 134.70 211.36 134.28 206.65 133.55 202.05 C 128.49 202.41 123.17 203.53 118.24 201.84 C 115.99 201.14 116.13 198.60 115.76 196.72 C 117.19 197.37 118.53 198.20 120.02 198.72 C 124.16 198.61 128.19 197.26 132.02 195.78 C 132.67 189.78 130.28 183.58 131.95 177.57 Z" />
<path fill="#1d1d1b" opacity="1.00" d=" M 171.63 245.70 C 182.77 243.00 194.01 240.67 205.21 238.23 C 208.82 237.62 213.83 236.30 216.09 240.21 C 217.11 243.28 213.74 244.93 211.55 246.14 C 213.75 249.46 216.01 253.50 214.49 257.59 C 211.78 265.20 205.04 270.53 198.04 274.07 C 191.61 277.22 184.42 279.90 177.15 278.76 C 172.39 278.01 168.48 273.72 168.30 268.88 C 167.92 262.02 171.22 255.73 174.98 250.23 C 171.46 250.88 167.97 251.71 164.46 252.39 C 164.20 253.14 163.67 254.65 163.40 255.40 C 162.59 254.60 161.72 253.85 161.08 252.91 C 162.57 248.52 167.62 246.95 171.63 245.70 M 192.29 248.21 C 190.41 250.38 188.70 253.02 188.59 255.97 C 188.85 258.45 189.65 260.84 190.03 263.31 C 187.92 262.41 185.88 261.03 185.09 258.77 C 183.59 255.33 185.58 251.80 186.89 248.66 C 183.73 249.05 180.59 249.53 177.44 250.01 C 176.85 256.45 173.01 262.39 173.78 268.96 C 173.86 272.09 177.21 273.60 179.96 273.51 C 187.49 273.41 194.34 269.57 200.45 265.50 C 204.40 262.62 208.91 258.48 208.34 253.13 C 206.85 250.51 204.12 248.87 201.62 247.34 C 198.52 246.96 195.28 247.35 192.29 248.21 Z" />
</g>
</svg>
