<?xml version="1.0" encoding="UTF-8" ?>
<!DOCTYPE svg PUBLIC "-//W3C//DTD SVG 1.1//EN" "http://www.w3.org/Graphics/SVG/1.1/DTD/svg11.dtd">
<svg width="382pt" height="295pt" viewBox="0 0 382 295" version="1.1" xmlns="http://www.w3.org/2000/svg">
<g id="#c5e7edff">
<path fill="#c5e7ed" opacity="1.00" d=" M 0.00 0.00 L 381.18 0.00 C 381.54 29.00 381.23 58.00 381.33 87.00 C 381.33 139.00 381.33 191.00 381.33 243.01 C 381.31 248.46 381.55 253.93 381.01 259.37 C 379.63 255.45 378.55 251.39 376.43 247.78 C 376.82 252.63 377.29 257.51 376.64 262.37 C 374.72 260.62 372.54 258.75 372.02 256.08 C 371.41 250.77 373.03 245.54 374.89 240.63 C 374.41 240.53 373.46 240.33 372.99 240.23 C 369.44 239.49 366.36 241.27 364.24 243.97 C 363.91 240.28 364.06 236.56 363.98 232.86 C 364.59 233.75 365.23 234.63 365.87 235.51 C 368.07 237.45 371.04 236.94 373.72 236.71 C 373.90 234.52 374.06 232.33 374.05 230.14 C 373.05 228.52 371.97 226.97 370.90 225.40 C 373.03 224.51 376.15 224.33 376.99 221.76 C 377.33 220.05 377.14 218.29 377.12 216.56 C 373.76 216.27 370.37 216.22 367.02 216.60 C 367.65 213.93 368.07 211.06 366.58 208.59 C 364.91 208.11 362.70 206.50 361.23 208.20 C 358.52 210.75 359.66 214.78 359.75 218.04 C 359.07 217.32 358.40 216.61 357.73 215.90 C 356.27 196.91 353.54 178.03 352.77 158.99 C 353.00 141.67 352.03 124.30 353.74 107.03 C 354.93 89.85 357.45 72.77 360.78 55.87 C 362.01 48.63 362.78 41.05 361.08 33.83 C 358.95 26.44 351.71 22.05 344.60 20.47 C 334.01 17.32 322.89 18.24 312.00 18.13 C 302.32 17.79 292.71 19.08 283.05 19.40 C 266.38 20.76 249.70 21.85 233.03 23.09 C 227.00 23.21 220.96 23.19 214.96 23.89 C 194.33 24.87 173.68 23.64 153.13 21.83 C 130.91 19.70 108.87 16.15 86.72 13.50 C 76.02 12.17 65.18 11.59 54.42 12.52 C 45.41 13.48 36.07 15.95 29.26 22.25 C 24.59 26.23 21.27 31.60 19.56 37.46 C 15.13 51.20 16.27 65.79 16.13 80.00 C 16.09 86.03 16.89 92.02 17.19 98.04 C 18.26 117.45 22.38 136.54 23.41 155.96 C 24.67 166.59 23.77 177.32 24.99 187.97 C 25.14 201.20 25.10 214.44 25.10 227.67 C 24.12 228.60 23.13 229.53 22.19 230.51 C 22.21 228.55 22.15 226.59 22.01 224.64 C 19.93 223.16 16.36 221.88 14.77 224.73 C 14.10 227.04 14.13 229.48 13.95 231.87 C 11.02 231.49 8.08 231.26 5.14 231.18 C 5.09 233.25 5.05 235.38 5.94 237.31 C 6.43 238.53 7.89 239.04 9.05 239.43 C 9.94 239.71 10.83 239.99 11.73 240.27 C 8.90 242.63 5.43 245.40 6.57 249.58 C 8.52 250.93 10.87 250.98 13.05 250.19 C 12.97 251.52 12.92 252.84 12.91 254.17 C 10.90 254.21 8.89 254.22 6.89 254.25 C 7.06 254.61 7.42 255.34 7.59 255.70 C 8.63 258.71 11.35 260.44 13.43 262.64 C 14.70 265.09 15.18 267.85 15.92 270.49 C 10.48 270.74 4.43 270.44 0.00 274.19 L 0.00 0.00 Z" />
<path fill="#c5e7ed" opacity="1.00" d=" M 357.07 236.16 C 359.33 234.46 361.23 232.34 362.87 230.05 C 362.43 234.66 362.52 239.31 362.68 243.95 C 360.57 241.19 357.68 238.92 354.02 239.10 C 353.82 238.60 353.44 237.59 353.24 237.09 C 354.52 236.79 355.80 236.50 357.07 236.16 Z" />
<path fill="#c5e7ed" opacity="1.00" d=" M 357.49 246.12 C 361.94 246.98 361.66 252.03 362.43 255.56 C 360.77 255.41 359.11 255.26 357.45 255.13 C 355.05 257.16 352.54 259.16 349.59 260.34 C 352.12 257.13 356.58 255.56 357.34 251.07 C 355.24 251.27 353.14 251.49 351.05 251.74 C 351.00 250.63 350.94 249.52 350.87 248.42 C 353.17 247.97 355.43 247.27 357.49 246.12 Z" />
<path fill="#c5e7ed" opacity="1.00" d=" M 34.93 262.45 C 37.34 261.68 39.74 260.87 42.12 260.03 C 43.75 259.94 45.38 259.95 47.01 259.95 C 47.26 262.69 46.81 265.78 44.75 267.79 C 42.64 268.96 40.15 269.04 37.83 269.55 C 36.21 267.48 35.36 265.02 34.93 262.45 Z" />
<path fill="#c5e7ed" opacity="1.00" d=" M 21.92 267.16 C 22.15 264.92 22.81 262.56 25.19 261.77 C 24.66 263.86 23.53 265.72 21.92 267.16 Z" />
</g>
<g id="#3e9137ff">
<path fill="#3e9137" opacity="1.00" d=" M 381.18 0.00 L 382.00 0.00 L 382.00 287.08 C 381.18 288.31 380.31 289.63 380.37 291.18 C 379.04 291.75 377.88 292.73 377.23 294.04 C 358.82 294.39 340.40 293.66 321.99 294.05 C 293.08 294.81 264.16 294.10 235.26 293.82 C 224.24 292.30 213.09 293.09 202.00 292.90 C 190.91 293.10 179.78 292.60 168.73 293.79 C 159.17 294.02 149.60 294.88 140.05 294.16 C 132.84 293.70 125.62 294.08 118.47 295.00 L 112.57 295.00 C 106.54 293.99 100.42 294.01 94.32 293.77 C 87.55 292.17 80.56 292.85 73.75 293.82 C 59.51 294.01 45.26 294.77 31.02 294.11 C 24.23 293.97 17.40 293.66 10.63 294.51 C 8.79 294.20 6.94 293.96 5.09 293.74 C 4.98 288.30 4.20 282.76 5.33 277.39 C 8.44 272.66 15.17 274.44 19.94 272.96 C 19.47 269.72 19.02 266.47 19.13 263.20 C 19.27 261.92 19.46 260.66 19.63 259.39 C 20.73 254.20 20.08 248.90 20.01 243.65 C 20.90 245.80 21.69 248.00 22.26 250.26 C 22.67 252.27 22.93 254.30 23.17 256.34 C 23.25 257.95 23.34 259.57 23.45 261.18 C 26.17 259.26 27.25 256.14 27.18 252.89 C 27.24 252.16 27.35 250.69 27.41 249.95 C 27.84 250.67 28.27 251.39 28.68 252.13 L 28.82 252.91 C 29.22 255.52 29.70 258.33 31.82 260.16 C 31.27 260.22 30.16 260.34 29.61 260.39 C 29.29 263.41 28.85 266.41 28.39 269.42 C 30.27 268.59 32.14 267.75 34.02 266.92 C 33.93 265.11 33.84 263.31 33.73 261.52 C 34.03 261.75 34.63 262.22 34.93 262.45 C 35.36 265.02 36.21 267.48 37.83 269.55 C 40.15 269.04 42.64 268.96 44.75 267.79 C 46.81 265.78 47.26 262.69 47.01 259.95 C 46.86 257.89 46.81 255.83 46.91 253.78 C 49.64 255.25 50.81 258.17 52.47 260.60 C 54.01 260.84 54.90 259.33 55.99 258.53 C 56.11 259.13 56.37 260.32 56.50 260.92 C 57.26 258.92 58.00 256.91 58.75 254.92 C 58.88 256.44 59.01 257.98 59.13 259.51 C 59.81 259.60 60.49 259.69 61.17 259.78 C 61.01 262.34 60.95 264.91 61.00 267.48 C 62.29 265.16 63.37 262.73 64.11 260.18 C 64.65 258.39 65.17 256.60 65.73 254.82 C 65.91 257.70 66.01 260.59 66.34 263.46 C 67.65 260.05 67.76 256.38 67.73 252.78 C 67.47 251.17 69.21 250.49 70.10 249.50 C 71.21 252.54 70.30 255.75 70.01 258.85 C 69.66 262.63 69.35 266.42 68.52 270.14 C 70.34 266.39 71.81 262.47 72.63 258.38 L 73.50 258.20 C 73.31 260.16 73.33 262.13 73.32 264.11 C 74.70 261.17 75.86 258.13 77.22 255.19 C 77.93 258.35 78.16 261.64 79.25 264.72 C 83.52 266.42 88.27 265.04 92.72 264.93 C 92.91 262.57 93.07 260.21 93.26 257.86 C 93.75 259.24 94.22 260.63 94.70 262.03 C 95.95 261.57 97.09 260.32 98.48 260.51 C 99.22 261.39 99.82 262.38 100.46 263.35 C 105.05 263.72 109.65 264.07 114.26 263.94 C 114.46 260.56 114.39 257.18 114.44 253.80 C 116.68 258.63 116.88 264.05 115.44 269.14 C 119.01 264.36 120.35 258.58 120.44 252.70 C 121.31 256.27 121.85 259.92 122.20 263.59 C 124.11 263.39 126.03 263.25 127.95 263.07 C 126.69 256.68 125.86 249.81 128.70 243.69 C 128.98 247.15 128.98 250.62 129.05 254.08 C 129.65 253.00 130.24 251.92 130.85 250.85 C 130.80 256.43 131.38 262.66 136.08 266.40 C 137.60 265.81 139.15 265.28 140.70 264.77 C 140.83 261.38 141.18 257.97 142.40 254.78 C 142.70 257.54 142.91 260.32 143.11 263.09 C 144.86 262.26 147.16 262.05 148.37 260.42 C 149.32 258.00 149.17 255.32 149.57 252.79 C 150.56 255.86 151.09 259.05 151.51 262.25 C 154.02 262.75 156.48 263.52 158.71 264.82 C 160.00 260.94 159.76 256.86 159.34 252.86 C 160.49 255.69 161.27 258.65 161.98 261.62 C 165.11 261.64 168.32 262.28 171.39 261.46 C 174.39 257.86 171.65 252.91 171.40 248.81 C 174.18 253.38 174.81 258.76 176.57 263.73 C 178.70 262.76 180.90 261.93 183.11 261.17 C 183.59 259.68 184.06 258.19 184.55 256.71 C 184.93 258.25 185.30 259.80 185.71 261.34 C 185.85 259.35 185.97 257.36 186.14 255.38 C 186.64 257.06 187.10 258.76 187.54 260.47 C 189.41 260.78 191.26 261.19 193.10 261.63 C 194.95 258.30 194.96 254.53 194.47 250.85 C 195.49 253.57 195.68 256.61 197.03 259.19 C 199.81 261.39 203.62 259.72 206.82 259.85 C 206.92 258.55 207.03 257.26 207.14 255.98 C 207.78 257.13 208.41 258.29 209.07 259.44 C 210.19 255.98 209.70 252.37 209.41 248.83 C 211.01 252.54 211.42 256.58 212.31 260.48 C 214.01 257.45 214.33 253.93 215.49 250.71 C 215.64 254.25 215.68 257.83 216.55 261.29 C 217.45 260.35 218.35 259.40 219.25 258.45 C 221.09 258.08 223.79 258.75 224.63 256.55 C 225.87 253.44 225.37 250.01 225.53 246.74 C 227.90 251.39 227.59 256.65 226.94 261.66 C 229.36 260.75 231.88 260.13 234.27 259.13 C 235.88 255.54 234.76 251.51 234.52 247.76 C 237.21 252.22 237.81 257.65 236.06 262.57 C 238.01 260.90 240.42 260.14 242.97 260.21 C 242.62 256.06 241.76 251.98 241.20 247.85 C 244.35 252.62 245.33 258.35 245.34 263.97 C 247.50 263.04 249.70 262.22 251.97 261.59 C 251.65 257.29 251.45 252.95 252.33 248.71 C 253.14 251.78 253.61 255.01 255.16 257.83 C 256.06 257.68 256.96 257.51 257.86 257.30 C 257.65 255.54 257.43 253.79 257.25 252.03 C 258.44 254.83 259.61 257.65 261.02 260.37 C 263.65 260.13 266.29 259.94 268.93 259.76 C 268.77 257.78 268.61 255.80 268.50 253.83 C 269.43 256.07 270.12 258.39 270.69 260.75 C 273.07 260.54 275.71 261.06 277.83 259.70 C 278.36 257.49 278.29 255.21 278.33 252.97 C 279.18 255.27 280.10 257.54 281.14 259.76 C 284.35 255.84 282.04 250.98 281.29 246.66 C 284.62 251.20 285.55 256.82 285.12 262.34 C 292.30 260.71 292.15 252.40 292.42 246.57 C 294.08 249.81 294.72 253.42 294.67 257.04 C 296.36 254.10 297.62 250.95 298.66 247.73 C 299.47 250.45 300.01 253.24 300.32 256.05 C 303.20 256.49 306.07 256.96 308.96 257.32 C 308.32 254.00 307.61 250.69 307.18 247.34 C 310.72 249.15 311.69 253.13 312.64 256.65 C 316.91 257.65 321.40 257.76 325.68 256.75 C 328.44 254.74 327.97 250.82 328.78 247.85 C 329.61 251.35 329.89 254.93 330.26 258.50 C 332.11 257.31 334.56 256.25 335.11 253.88 C 335.50 251.56 335.12 249.20 334.95 246.87 C 336.38 248.18 337.55 250.38 339.78 250.19 C 339.65 249.15 339.48 248.11 339.28 247.09 C 339.11 245.31 339.04 243.53 339.00 241.75 C 339.34 242.41 340.02 243.74 340.36 244.41 C 340.76 245.59 341.07 246.80 341.43 248.01 C 341.91 250.64 343.57 252.70 345.67 254.27 C 346.25 250.42 346.22 246.53 346.08 242.66 L 346.14 241.83 C 346.67 242.55 347.21 243.29 347.75 244.02 C 348.01 242.71 348.30 241.41 348.63 240.13 C 349.44 242.87 350.29 245.61 350.87 248.42 C 350.94 249.52 351.00 250.63 351.05 251.74 C 353.14 251.49 355.24 251.27 357.34 251.07 C 356.58 255.56 352.12 257.13 349.59 260.34 C 352.54 259.16 355.05 257.16 357.45 255.13 C 359.11 255.26 360.77 255.41 362.43 255.56 C 361.66 252.03 361.94 246.98 357.49 246.12 C 354.63 244.67 353.30 241.69 352.13 238.90 C 352.60 238.95 353.55 239.05 354.02 239.10 C 357.68 238.92 360.57 241.19 362.68 243.95 C 362.52 239.31 362.43 234.66 362.87 230.05 C 363.12 229.72 363.60 229.06 363.84 228.74 C 363.89 230.11 363.94 231.48 363.98 232.86 C 364.06 236.56 363.91 240.28 364.24 243.97 C 364.54 244.90 364.87 245.82 365.21 246.75 C 365.73 246.64 366.76 246.43 367.28 246.32 C 367.52 244.93 367.76 243.53 368.00 242.14 C 368.82 242.77 369.65 243.40 370.47 244.04 C 371.31 242.77 372.15 241.50 372.99 240.23 C 373.46 240.33 374.41 240.53 374.89 240.63 C 373.03 245.54 371.41 250.77 372.02 256.08 C 372.54 258.75 374.72 260.62 376.64 262.37 C 377.29 257.51 376.82 252.63 376.43 247.78 C 378.55 251.39 379.63 255.45 381.01 259.37 C 381.55 253.93 381.31 248.46 381.33 243.01 C 381.33 191.00 381.33 139.00 381.33 87.00 C 381.23 58.00 381.54 29.00 381.18 0.00 M 362.10 247.21 C 360.54 250.19 365.41 247.39 362.10 247.21 M 365.88 248.13 C 365.69 251.11 366.18 254.07 366.50 257.02 C 367.67 254.05 368.36 250.90 368.38 247.70 C 367.76 247.81 366.50 248.02 365.88 248.13 M 341.18 256.25 C 339.89 256.25 339.30 258.67 340.84 258.74 C 342.12 258.73 342.72 256.32 341.18 256.25 M 21.92 267.16 C 23.53 265.72 24.66 263.86 25.19 261.77 C 22.81 262.56 22.15 264.92 21.92 267.16 M 282.61 264.50 C 271.51 266.23 260.23 266.76 249.24 269.18 C 238.91 270.73 228.81 273.72 218.36 274.43 C 203.78 274.83 189.34 270.26 174.76 272.54 C 158.22 273.96 142.13 278.21 125.74 280.68 C 117.61 282.50 109.24 281.93 100.97 281.93 C 86.23 280.92 71.58 278.91 56.91 277.20 C 47.20 276.74 37.39 274.70 27.73 276.64 C 25.67 276.92 24.09 278.28 22.81 279.81 C 29.02 284.89 37.42 285.02 45.01 285.87 C 62.34 287.06 79.55 289.68 96.90 290.34 C 109.21 291.69 121.69 291.31 133.98 289.89 C 150.41 288.14 166.51 283.95 183.02 282.92 C 189.24 282.28 195.52 281.61 201.76 282.42 C 217.53 283.71 233.19 286.22 248.99 287.11 C 252.68 287.16 256.34 286.60 260.01 286.28 C 274.63 285.56 288.41 278.48 303.20 279.64 C 316.98 280.38 330.05 285.22 343.56 287.57 C 349.40 288.73 355.62 287.72 360.85 284.87 C 364.81 282.67 367.81 278.55 368.18 273.98 C 368.46 271.28 366.23 269.05 363.90 268.09 C 356.28 265.18 347.98 266.04 340.00 265.92 C 336.28 265.85 332.58 266.23 328.90 266.69 C 323.58 267.42 318.32 265.87 313.01 265.95 C 307.31 266.06 301.70 264.65 296.00 264.91 C 291.52 265.17 287.07 263.95 282.61 264.50 Z" />
</g>
<g id="#d7f0f4ff">
<path fill="#d7f0f4" opacity="1.00" d=" M 54.42 12.52 C 65.18 11.59 76.02 12.17 86.72 13.50 C 108.87 16.15 130.91 19.70 153.13 21.83 C 173.68 23.64 194.33 24.87 214.96 23.89 C 220.96 23.19 227.00 23.21 233.03 23.09 C 249.70 21.85 266.38 20.76 283.05 19.40 C 292.71 19.08 302.32 17.79 312.00 18.13 C 322.89 18.24 334.01 17.32 344.60 20.47 C 351.71 22.05 358.95 26.44 361.08 33.83 C 362.78 41.05 362.01 48.63 360.78 55.87 C 357.45 72.77 354.93 89.85 353.74 107.03 C 352.03 124.30 353.00 141.67 352.77 158.99 C 353.54 178.03 356.27 196.91 357.73 215.90 C 355.66 215.89 353.34 215.17 351.43 216.23 C 350.35 217.53 349.98 219.24 349.32 220.76 C 347.60 221.16 345.68 221.13 344.16 222.10 C 343.03 224.15 343.13 226.62 342.71 228.88 C 340.47 228.60 338.24 228.33 336.01 228.05 C 335.50 229.66 333.63 231.36 334.74 233.08 C 336.08 234.82 338.00 235.91 340.07 236.55 C 338.60 238.63 337.03 240.71 336.18 243.14 C 335.40 245.24 338.17 245.88 339.28 247.09 C 339.48 248.11 339.65 249.15 339.78 250.19 C 337.55 250.38 336.38 248.18 334.95 246.87 C 335.12 249.20 335.50 251.56 335.11 253.88 C 334.56 256.25 332.11 257.31 330.26 258.50 C 329.89 254.93 329.61 251.35 328.78 247.85 C 327.97 250.82 328.44 254.74 325.68 256.75 C 321.40 257.76 316.91 257.65 312.64 256.65 C 311.69 253.13 310.72 249.15 307.18 247.34 C 307.61 250.69 308.32 254.00 308.96 257.32 C 306.07 256.96 303.20 256.49 300.32 256.05 C 300.01 253.24 299.47 250.45 298.66 247.73 C 297.62 250.95 296.36 254.10 294.67 257.04 C 294.72 253.42 294.08 249.81 292.42 246.57 C 292.15 252.40 292.30 260.71 285.12 262.34 C 285.55 256.82 284.62 251.20 281.29 246.66 C 282.04 250.98 284.35 255.84 281.14 259.76 C 280.10 257.54 279.18 255.27 278.33 252.97 C 278.29 255.21 278.36 257.49 277.83 259.70 C 275.71 261.06 273.07 260.54 270.69 260.75 C 270.12 258.39 269.43 256.07 268.50 253.83 C 268.61 255.80 268.77 257.78 268.93 259.76 C 266.29 259.94 263.65 260.13 261.02 260.37 C 259.61 257.65 258.44 254.83 257.25 252.03 C 257.43 253.79 257.65 255.54 257.86 257.30 C 256.96 257.51 256.06 257.68 255.16 257.83 C 253.61 255.01 253.14 251.78 252.33 248.71 C 251.45 252.95 251.65 257.29 251.97 261.59 C 249.70 262.22 247.50 263.04 245.34 263.97 C 245.33 258.35 244.35 252.62 241.20 247.85 C 241.76 251.98 242.62 256.06 242.97 260.21 C 240.42 260.14 238.01 260.90 236.06 262.57 C 237.81 257.65 237.21 252.22 234.52 247.76 C 234.76 251.51 235.88 255.54 234.27 259.13 C 231.88 260.13 229.36 260.75 226.94 261.66 C 227.59 256.65 227.90 251.39 225.53 246.74 C 225.37 250.01 225.87 253.44 224.63 256.55 C 223.79 258.75 221.09 258.08 219.25 258.45 C 218.35 259.40 217.45 260.35 216.55 261.29 C 215.68 257.83 215.64 254.25 215.49 250.71 C 214.33 253.93 214.01 257.45 212.31 260.48 C 211.42 256.58 211.01 252.54 209.41 248.83 C 209.70 252.37 210.19 255.98 209.07 259.44 C 208.41 258.29 207.78 257.13 207.14 255.98 C 207.03 257.26 206.92 258.55 206.82 259.85 C 203.62 259.72 199.81 261.39 197.03 259.19 C 195.68 256.61 195.49 253.57 194.47 250.85 C 194.96 254.53 194.95 258.30 193.10 261.63 C 191.26 261.19 189.41 260.78 187.54 260.47 C 187.10 258.76 186.64 257.06 186.14 255.38 C 185.97 257.36 185.85 259.35 185.71 261.34 C 185.30 259.80 184.93 258.25 184.55 256.71 C 184.06 258.19 183.59 259.68 183.11 261.17 C 180.90 261.93 178.70 262.76 176.57 263.73 C 174.81 258.76 174.18 253.38 171.40 248.81 C 171.65 252.91 174.39 257.86 171.39 261.46 C 168.32 262.28 165.11 261.64 161.98 261.62 C 161.27 258.65 160.49 255.69 159.34 252.86 C 159.76 256.86 160.00 260.94 158.71 264.82 C 156.48 263.52 154.02 262.75 151.51 262.25 C 151.09 259.05 150.56 255.86 149.57 252.79 C 149.17 255.32 149.32 258.00 148.37 260.42 C 147.16 262.05 144.86 262.26 143.11 263.09 C 142.91 260.32 142.70 257.54 142.40 254.78 C 141.18 257.97 140.83 261.38 140.70 264.77 C 139.15 265.28 137.60 265.81 136.08 266.40 C 131.38 262.66 130.80 256.43 130.85 250.85 C 130.24 251.92 129.65 253.00 129.05 254.08 C 128.98 250.62 128.98 247.15 128.70 243.69 C 125.86 249.81 126.69 256.68 127.95 263.07 C 126.03 263.25 124.11 263.39 122.20 263.59 C 121.85 259.92 121.31 256.27 120.44 252.70 C 120.35 258.58 119.01 264.36 115.44 269.14 C 116.88 264.05 116.68 258.63 114.44 253.80 C 114.39 257.18 114.46 260.56 114.26 263.94 C 109.65 264.07 105.05 263.72 100.46 263.35 C 99.82 262.38 99.22 261.39 98.48 260.51 C 97.09 260.32 95.95 261.57 94.70 262.03 C 94.22 260.63 93.75 259.24 93.26 257.86 C 93.07 260.21 92.91 262.57 92.72 264.93 C 88.27 265.04 83.52 266.42 79.25 264.72 C 78.16 261.64 77.93 258.35 77.22 255.19 C 75.86 258.13 74.70 261.17 73.32 264.11 C 73.33 262.13 73.31 260.16 73.50 258.20 C 74.07 255.67 74.70 252.99 73.67 250.48 C 72.08 244.86 66.93 241.29 61.91 238.91 C 55.67 237.29 49.03 238.28 43.21 240.90 C 42.90 240.52 42.29 239.75 41.98 239.37 C 44.93 238.34 47.66 236.64 49.07 233.73 C 48.32 231.74 46.94 229.70 44.64 229.43 C 42.44 229.33 40.33 230.09 38.22 230.61 C 38.41 227.78 39.67 224.09 36.82 222.15 C 34.72 219.93 31.12 221.86 30.58 224.48 C 30.12 226.69 30.17 228.96 30.14 231.20 C 27.34 231.35 24.54 231.46 21.74 231.55 L 22.19 230.51 C 23.13 229.53 24.12 228.60 25.10 227.67 C 25.10 214.44 25.14 201.20 24.99 187.97 C 23.77 177.32 24.67 166.59 23.41 155.96 C 22.38 136.54 18.26 117.45 17.19 98.04 C 16.89 92.02 16.09 86.03 16.13 80.00 C 16.27 65.79 15.13 51.20 19.56 37.46 C 21.27 31.60 24.59 26.23 29.26 22.25 C 36.07 15.95 45.41 13.48 54.42 12.52 Z" />
<path fill="#d7f0f4" opacity="1.00" d=" M 70.01 258.85 C 70.67 258.73 71.98 258.50 72.63 258.38 C 71.81 262.47 70.34 266.39 68.52 270.14 C 69.35 266.42 69.66 262.63 70.01 258.85 Z" />
</g>
<g id="#dfb8cbff">
<path fill="#dfb8cb" opacity="1.00" d=" M 361.23 208.20 C 362.70 206.50 364.91 208.11 366.58 208.59 C 366.01 211.32 365.50 214.07 364.98 216.81 C 365.49 216.76 366.51 216.65 367.02 216.60 C 370.37 216.22 373.76 216.27 377.12 216.56 C 375.88 219.07 375.10 222.67 371.81 223.16 C 367.64 224.70 365.20 217.01 361.21 220.14 C 358.29 222.33 360.69 225.78 361.82 228.25 C 359.74 231.65 356.30 233.69 352.62 234.98 C 354.10 235.37 355.59 235.76 357.07 236.16 C 355.80 236.50 354.52 236.79 353.24 237.09 C 352.46 234.68 351.28 231.96 352.44 229.49 C 353.62 227.80 355.24 226.50 356.75 225.13 C 356.31 224.97 355.43 224.64 354.99 224.48 C 356.24 224.44 357.00 222.65 355.40 222.39 C 354.26 222.03 353.10 222.43 352.03 222.79 C 351.12 222.12 350.22 221.44 349.32 220.76 C 349.98 219.24 350.35 217.53 351.43 216.23 C 353.34 215.17 355.66 215.89 357.73 215.90 C 358.40 216.61 359.07 217.32 359.75 218.04 C 359.66 214.78 358.52 210.75 361.23 208.20 Z" />
</g>
<g id="#b48ca4ff">
<path fill="#b48ca4" opacity="1.00" d=" M 366.58 208.59 C 368.07 211.06 367.65 213.93 367.02 216.60 C 366.51 216.65 365.49 216.76 364.98 216.81 C 365.50 214.07 366.01 211.32 366.58 208.59 Z" />
</g>
<g id="#a06d8aff">
<path fill="#a06d8a" opacity="1.00" d=" M 377.12 216.56 C 377.14 218.29 377.33 220.05 376.99 221.76 C 376.15 224.33 373.03 224.51 370.90 225.40 C 369.95 224.94 369.02 224.48 368.08 224.02 C 366.63 225.56 365.15 227.08 363.84 228.74 C 363.60 229.06 363.12 229.72 362.87 230.05 C 361.23 232.34 359.33 234.46 357.07 236.16 C 355.59 235.76 354.10 235.37 352.62 234.98 C 356.30 233.69 359.74 231.65 361.82 228.25 C 360.69 225.78 358.29 222.33 361.21 220.14 C 365.20 217.01 367.64 224.70 371.81 223.16 C 375.10 222.67 375.88 219.07 377.12 216.56 Z" />
<path fill="#a06d8a" opacity="1.00" d=" M 14.36 237.44 C 15.46 234.71 18.98 234.15 21.27 235.74 C 23.12 238.32 21.23 241.27 20.01 243.65 C 19.73 244.13 19.19 245.09 18.91 245.57 C 18.41 245.85 17.41 246.42 16.91 246.71 C 15.78 247.97 14.98 249.46 14.43 251.06 C 14.33 250.52 14.12 249.44 14.02 248.90 C 13.78 249.22 13.29 249.87 13.05 250.19 C 10.87 250.98 8.52 250.93 6.57 249.58 C 9.60 249.08 13.04 248.59 14.86 245.79 C 17.11 243.34 14.37 240.23 14.36 237.44 Z" />
</g>
<g id="#f4f4d7ff">
<path fill="#f4f4d7" opacity="1.00" d=" M 30.58 224.48 C 31.12 221.86 34.72 219.93 36.82 222.15 C 39.67 224.09 38.41 227.78 38.22 230.61 C 40.33 230.09 42.44 229.33 44.64 229.43 C 46.94 229.70 48.32 231.74 49.07 233.73 C 46.03 234.67 43.15 236.00 40.27 237.34 C 40.84 238.01 41.41 238.69 41.98 239.37 C 42.29 239.75 42.90 240.52 43.21 240.90 C 44.35 242.88 45.46 245.60 43.58 247.53 C 41.60 249.68 38.59 248.19 36.22 247.71 C 35.86 248.90 35.49 250.09 35.16 251.29 C 35.06 248.24 34.99 245.20 35.09 242.16 C 36.50 240.11 39.30 238.06 38.02 235.26 C 37.24 232.62 34.17 233.44 32.15 233.61 L 31.80 233.12 C 31.25 232.47 30.70 231.83 30.14 231.20 C 30.17 228.96 30.12 226.69 30.58 224.48 Z" />
</g>
<g id="#f3f4d8ff">
<path fill="#f3f4d8" opacity="1.00" d=" M 344.16 222.10 C 345.68 221.13 347.60 221.16 349.32 220.76 C 350.22 221.44 351.12 222.12 352.03 222.79 C 352.92 223.53 353.90 224.09 354.99 224.48 C 355.43 224.64 356.31 224.97 356.75 225.13 C 355.24 226.50 353.62 227.80 352.44 229.49 C 351.28 231.96 352.46 234.68 353.24 237.09 C 353.44 237.59 353.82 238.60 354.02 239.10 C 353.55 239.05 352.60 238.95 352.13 238.90 C 353.30 241.69 354.63 244.67 357.49 246.12 C 355.43 247.27 353.17 247.97 350.87 248.42 C 350.29 245.61 349.44 242.87 348.63 240.13 C 349.36 238.44 350.29 236.84 350.86 235.09 C 350.71 231.90 345.62 230.54 344.16 233.42 C 342.80 235.79 345.07 238.16 345.91 240.32 C 344.42 242.13 342.56 243.58 340.36 244.41 C 340.02 243.74 339.34 242.41 339.00 241.75 C 339.04 243.53 339.11 245.31 339.28 247.09 C 338.17 245.88 335.40 245.24 336.18 243.14 C 337.03 240.71 338.60 238.63 340.07 236.55 C 340.35 236.19 340.90 235.47 341.17 235.11 C 339.03 234.43 336.87 233.79 334.74 233.08 C 333.63 231.36 335.50 229.66 336.01 228.05 C 338.24 228.33 340.47 228.60 342.71 228.88 C 343.13 226.62 343.03 224.15 344.16 222.10 Z" />
</g>
<g id="#af809bff">
<path fill="#af809b" opacity="1.00" d=" M 352.03 222.79 C 353.10 222.43 354.26 222.03 355.40 222.39 C 357.00 222.65 356.24 224.44 354.99 224.48 C 353.90 224.09 352.92 223.53 352.03 222.79 Z" />
</g>
<g id="#deb8cbff">
<path fill="#deb8cb" opacity="1.00" d=" M 14.77 224.73 C 16.36 221.88 19.93 223.16 22.01 224.64 C 21.23 226.96 20.50 229.29 19.79 231.63 C 20.28 231.61 21.25 231.57 21.74 231.55 C 24.54 231.46 27.34 231.35 30.14 231.20 C 30.70 231.83 31.25 232.47 31.80 233.12 C 30.04 236.73 26.37 238.44 22.88 239.97 C 24.59 240.04 26.30 240.13 28.01 240.15 C 27.12 240.45 26.24 240.77 25.35 241.09 C 26.72 242.80 28.08 244.52 29.42 246.26 C 27.43 248.23 25.19 250.10 22.26 250.26 C 21.69 248.00 20.90 245.80 20.01 243.65 C 21.23 241.27 23.12 238.32 21.27 235.74 C 18.98 234.15 15.46 234.71 14.36 237.44 C 14.37 240.23 17.11 243.34 14.86 245.79 C 13.04 248.59 9.60 249.08 6.57 249.58 C 5.43 245.40 8.90 242.63 11.73 240.27 C 10.83 239.99 9.94 239.71 9.05 239.43 C 10.04 239.41 10.83 239.06 11.40 238.37 C 9.83 237.28 7.76 237.44 5.94 237.31 C 5.05 235.38 5.09 233.25 5.14 231.18 C 8.08 231.26 11.02 231.49 13.95 231.87 C 14.13 229.48 14.10 227.04 14.77 224.73 Z" />
</g>
<g id="#ddb6c9ff">
<path fill="#ddb6c9" opacity="1.00" d=" M 368.08 224.02 C 369.02 224.48 369.95 224.94 370.90 225.40 C 371.97 226.97 373.05 228.52 374.05 230.14 C 373.18 231.57 372.38 233.06 371.28 234.33 C 369.54 234.97 367.68 235.17 365.87 235.51 C 365.23 234.63 364.59 233.75 363.98 232.86 C 363.94 231.48 363.89 230.11 363.84 228.74 C 365.15 227.08 366.63 225.56 368.08 224.02 Z" />
</g>
<g id="#a97893ff">
<path fill="#a97893" opacity="1.00" d=" M 19.79 231.63 C 20.50 229.29 21.23 226.96 22.01 224.64 C 22.15 226.59 22.21 228.55 22.19 230.51 L 21.74 231.55 C 21.25 231.57 20.28 231.61 19.79 231.63 Z" />
</g>
<g id="#ad819bff">
<path fill="#ad819b" opacity="1.00" d=" M 371.28 234.33 C 372.38 233.06 373.18 231.57 374.05 230.14 C 374.06 232.33 373.90 234.52 373.72 236.71 C 371.04 236.94 368.07 237.45 365.87 235.51 C 367.68 235.17 369.54 234.97 371.28 234.33 Z" />
</g>
<g id="#c6c291ff">
<path fill="#c6c291" opacity="1.00" d=" M 344.16 233.42 C 345.62 230.54 350.71 231.90 350.86 235.09 C 350.29 236.84 349.36 238.44 348.63 240.13 C 348.30 241.41 348.01 242.71 347.75 244.02 C 347.21 243.29 346.67 242.55 346.14 241.83 L 346.08 242.66 C 344.47 244.39 342.87 246.13 341.43 248.01 C 341.07 246.80 340.76 245.59 340.36 244.41 C 342.56 243.58 344.42 242.13 345.91 240.32 C 345.07 238.16 342.80 235.79 344.16 233.42 Z" />
<path fill="#c6c291" opacity="1.00" d=" M 32.15 233.61 C 34.17 233.44 37.24 232.62 38.02 235.26 C 39.30 238.06 36.50 240.11 35.09 242.16 C 34.75 242.60 34.09 243.49 33.76 243.94 C 32.38 245.56 30.77 246.95 29.11 248.28 C 29.19 247.77 29.34 246.76 29.42 246.26 C 30.57 244.77 31.86 243.39 33.13 242.01 C 32.51 241.02 31.89 240.04 31.27 239.05 C 31.59 237.24 31.91 235.43 32.15 233.61 Z" />
</g>
<g id="#ac7c96ff">
<path fill="#ac7c96" opacity="1.00" d=" M 22.88 239.97 C 26.37 238.44 30.04 236.73 31.80 233.12 L 32.15 233.61 C 31.91 235.43 31.59 237.24 31.27 239.05 C 30.19 239.42 29.10 239.79 28.01 240.15 C 26.30 240.13 24.59 240.04 22.88 239.97 Z" />
</g>
<g id="#d0cea3ff">
<path fill="#d0cea3" opacity="1.00" d=" M 40.27 237.34 C 43.15 236.00 46.03 234.67 49.07 233.73 C 47.66 236.64 44.93 238.34 41.98 239.37 C 41.41 238.69 40.84 238.01 40.27 237.34 Z" />
<path fill="#d0cea3" opacity="1.00" d=" M 334.74 233.08 C 336.87 233.79 339.03 234.43 341.17 235.11 C 340.90 235.47 340.35 236.19 340.07 236.55 C 338.00 235.91 336.08 234.82 334.74 233.08 Z" />
</g>
<g id="#b388a1ff">
<path fill="#b388a1" opacity="1.00" d=" M 5.94 237.31 C 7.76 237.44 9.83 237.28 11.40 238.37 C 10.83 239.06 10.04 239.41 9.05 239.43 C 7.89 239.04 6.43 238.53 5.94 237.31 Z" />
</g>
<g id="#ddc68eff">
<path fill="#ddc68e" opacity="1.00" d=" M 43.21 240.90 C 49.03 238.28 55.67 237.29 61.91 238.91 C 61.74 239.86 61.56 240.81 61.39 241.76 C 62.25 242.35 63.10 242.93 63.96 243.53 C 63.62 244.85 63.31 246.17 62.99 247.50 C 63.64 247.48 64.94 247.45 65.59 247.44 C 65.73 246.86 66.00 245.70 66.14 245.12 C 67.60 246.44 68.93 247.91 70.10 249.50 C 69.21 250.49 67.47 251.17 67.73 252.78 C 67.76 256.38 67.65 260.05 66.34 263.46 C 66.01 260.59 65.91 257.70 65.73 254.82 C 65.17 256.60 64.65 258.39 64.11 260.18 C 63.38 260.08 61.91 259.88 61.17 259.78 C 60.49 259.69 59.81 259.60 59.13 259.51 C 59.01 257.98 58.88 256.44 58.75 254.92 C 58.00 256.91 57.26 258.92 56.50 260.92 C 56.37 260.32 56.11 259.13 55.99 258.53 C 54.90 259.33 54.01 260.84 52.47 260.60 C 50.81 258.17 49.64 255.25 46.91 253.78 C 46.81 255.83 46.86 257.89 47.01 259.95 C 45.38 259.95 43.75 259.94 42.12 260.03 C 43.81 258.05 44.75 255.61 45.46 253.14 C 41.51 253.69 37.64 255.13 34.99 258.23 C 35.13 255.92 35.14 253.60 35.16 251.29 C 35.49 250.09 35.86 248.90 36.22 247.71 C 38.59 248.19 41.60 249.68 43.58 247.53 C 45.46 245.60 44.35 242.88 43.21 240.90 M 49.24 241.32 C 49.34 242.36 49.45 243.40 49.56 244.44 C 50.61 244.55 51.66 244.66 52.72 244.77 C 53.06 243.90 53.40 243.04 53.75 242.18 C 53.11 241.54 52.48 240.89 51.84 240.26 C 50.97 240.61 50.11 240.96 49.24 241.32 M 47.91 247.70 C 47.93 248.61 47.99 250.43 48.02 251.34 C 49.13 251.05 50.10 250.54 50.94 249.83 C 51.53 247.74 49.23 248.08 47.91 247.70 M 55.43 250.63 C 55.71 252.41 57.47 252.27 58.86 252.08 C 60.25 250.88 59.30 249.13 59.09 247.65 C 57.58 247.83 54.51 248.52 55.43 250.63 M 39.51 251.25 C 38.53 253.17 42.55 253.70 42.76 251.81 C 42.48 250.41 40.37 250.39 39.51 251.25 M 61.23 254.38 C 58.56 254.75 60.57 259.46 62.53 257.26 C 64.26 256.85 62.66 253.36 61.23 254.38 Z" />
</g>
<g id="#f4f4d8ff">
<path fill="#f4f4d8" opacity="1.00" d=" M 28.01 240.15 C 29.10 239.79 30.19 239.42 31.27 239.05 C 31.89 240.04 32.51 241.02 33.13 242.01 C 31.86 243.39 30.57 244.77 29.42 246.26 C 28.08 244.52 26.72 242.80 25.35 241.09 C 26.24 240.77 27.12 240.45 28.01 240.15 Z" />
</g>
<g id="#eadebeff">
<path fill="#eadebe" opacity="1.00" d=" M 61.91 238.91 C 66.93 241.29 72.08 244.86 73.67 250.48 C 74.70 252.99 74.07 255.67 73.50 258.20 L 72.63 258.38 C 71.98 258.50 70.67 258.73 70.01 258.85 C 70.30 255.75 71.21 252.54 70.10 249.50 C 68.93 247.91 67.60 246.44 66.14 245.12 C 65.59 244.72 64.50 243.93 63.96 243.53 C 63.10 242.93 62.25 242.35 61.39 241.76 C 61.56 240.81 61.74 239.86 61.91 238.91 Z" />
</g>
<g id="#7e6c44ff">
<path fill="#7e6c44" opacity="1.00" d=" M 49.24 241.32 C 50.11 240.96 50.97 240.61 51.84 240.26 C 52.48 240.89 53.11 241.54 53.75 242.18 C 53.40 243.04 53.06 243.90 52.72 244.77 C 51.66 244.66 50.61 244.55 49.56 244.44 C 49.45 243.40 49.34 242.36 49.24 241.32 Z" />
</g>
<g id="#69a358ff">
<path fill="#69a358" opacity="1.00" d=" M 364.24 243.97 C 366.36 241.27 369.44 239.49 372.99 240.23 C 372.15 241.50 371.31 242.77 370.47 244.04 C 369.65 243.40 368.82 242.77 368.00 242.14 C 367.76 243.53 367.52 244.93 367.28 246.32 C 366.76 246.43 365.73 246.64 365.21 246.75 C 364.87 245.82 364.54 244.90 364.24 243.97 Z" />
</g>
<g id="#367335ff">
<path fill="#367335" opacity="1.00" d=" M 33.76 243.94 C 34.09 243.49 34.75 242.60 35.09 242.16 C 34.99 245.20 35.06 248.24 35.16 251.29 C 35.14 253.60 35.13 255.92 34.99 258.23 C 34.91 258.74 34.77 259.76 34.70 260.26 C 34.46 259.70 34.00 258.58 33.76 258.02 C 33.36 253.34 33.51 248.63 33.76 243.94 Z" />
</g>
<g id="#d7f0f3ff">
<path fill="#d7f0f3" opacity="1.00" d=" M 341.43 248.01 C 342.87 246.13 344.47 244.39 346.08 242.66 C 346.22 246.53 346.25 250.42 345.67 254.27 C 343.57 252.70 341.91 250.64 341.43 248.01 Z" />
</g>
<g id="#cad7dfff">
<path fill="#cad7df" opacity="1.00" d=" M 18.91 245.57 C 19.19 245.09 19.73 244.13 20.01 243.65 C 20.08 248.90 20.73 254.20 19.63 259.39 C 18.84 254.83 18.94 250.18 18.91 245.57 Z" />
</g>
<g id="#c8e8edff">
<path fill="#c8e8ed" opacity="1.00" d=" M 29.11 248.28 C 30.77 246.95 32.38 245.56 33.76 243.94 C 33.51 248.63 33.36 253.34 33.76 258.02 C 32.43 256.04 30.68 254.39 28.82 252.91 L 28.68 252.13 C 28.79 250.84 28.94 249.55 29.11 248.28 Z" />
</g>
<g id="#8b784dff">
<path fill="#8b784d" opacity="1.00" d=" M 62.99 247.50 C 63.31 246.17 63.62 244.85 63.96 243.53 C 64.50 243.93 65.59 244.72 66.14 245.12 C 66.00 245.70 65.73 246.86 65.59 247.44 C 64.94 247.45 63.64 247.48 62.99 247.50 Z" />
</g>
<g id="#5d9461ff">
<path fill="#5d9461" opacity="1.00" d=" M 16.91 246.71 C 17.41 246.42 18.41 245.85 18.91 245.57 C 18.94 250.18 18.84 254.83 19.63 259.39 C 19.46 260.66 19.27 261.92 19.13 263.20 C 18.43 263.75 17.72 264.31 17.02 264.87 C 16.74 262.73 16.46 260.59 16.21 258.45 C 17.11 254.60 17.23 250.63 16.91 246.71 Z" />
</g>
<g id="#ab95a2ff">
<path fill="#ab95a2" opacity="1.00" d=" M 22.26 250.26 C 25.19 250.10 27.43 248.23 29.42 246.26 C 29.34 246.76 29.19 247.77 29.11 248.28 C 28.94 249.55 28.79 250.84 28.68 252.13 C 28.27 251.39 27.84 250.67 27.41 249.95 C 27.35 250.69 27.24 252.16 27.18 252.89 C 26.46 252.97 25.02 253.14 24.30 253.22 C 23.92 254.25 23.54 255.29 23.17 256.34 C 22.93 254.30 22.67 252.27 22.26 250.26 Z" />
</g>
<g id="#c3e4e9ff">
<path fill="#c3e4e9" opacity="1.00" d=" M 14.43 251.06 C 14.98 249.46 15.78 247.97 16.91 246.71 C 17.23 250.63 17.11 254.60 16.21 258.45 C 15.52 256.01 14.86 253.55 14.43 251.06 Z" />
</g>
<g id="#88bb9dff">
<path fill="#88bb9d" opacity="1.00" d=" M 362.10 247.21 C 365.41 247.39 360.54 250.19 362.10 247.21 Z" />
</g>
<g id="#857249ff">
<path fill="#857249" opacity="1.00" d=" M 47.91 247.70 C 49.23 248.08 51.53 247.74 50.94 249.83 C 50.10 250.54 49.13 251.05 48.02 251.34 C 47.99 250.43 47.93 248.61 47.91 247.70 Z" />
</g>
<g id="#89774cff">
<path fill="#89774c" opacity="1.00" d=" M 55.43 250.63 C 54.51 248.52 57.58 247.83 59.09 247.65 C 59.30 249.13 60.25 250.88 58.86 252.08 C 57.47 252.27 55.71 252.41 55.43 250.63 Z" />
</g>
<g id="#c4e7ecff">
<path fill="#c4e7ec" opacity="1.00" d=" M 365.88 248.13 C 366.50 248.02 367.76 247.81 368.38 247.70 C 368.36 250.90 367.67 254.05 366.50 257.02 C 366.18 254.07 365.69 251.11 365.88 248.13 Z" />
<path fill="#c4e7ec" opacity="1.00" d=" M 29.61 260.39 C 30.16 260.34 31.27 260.22 31.82 260.16 C 32.29 260.50 33.25 261.18 33.73 261.52 C 33.84 263.31 33.93 265.11 34.02 266.92 C 32.14 267.75 30.27 268.59 28.39 269.42 C 28.85 266.41 29.29 263.41 29.61 260.39 Z" />
</g>
<g id="#367e2eff">
<path fill="#367e2e" opacity="1.00" d=" M 13.05 250.19 C 13.29 249.87 13.78 249.22 14.02 248.90 C 14.12 249.44 14.33 250.52 14.43 251.06 C 14.86 253.55 15.52 256.01 16.21 258.45 C 16.46 260.59 16.74 262.73 17.02 264.87 C 17.72 264.31 18.43 263.75 19.13 263.20 C 19.02 266.47 19.47 269.72 19.94 272.96 C 15.17 274.44 8.44 272.66 5.33 277.39 C 4.20 282.76 4.98 288.30 5.09 293.74 C 6.94 293.96 8.79 294.20 10.63 294.51 L 11.76 295.00 L 3.91 295.00 C 3.36 294.65 2.25 293.94 1.70 293.58 C 2.35 292.53 1.16 290.96 0.00 291.59 L 0.00 274.19 C 4.43 270.44 10.48 270.74 15.92 270.49 C 15.18 267.85 14.70 265.09 13.43 262.64 C 11.35 260.44 8.63 258.71 7.59 255.70 C 9.55 256.87 11.26 258.37 12.88 259.97 C 12.87 258.03 12.88 256.10 12.91 254.17 C 12.92 252.84 12.97 251.52 13.05 250.19 Z" />
</g>
<g id="#826f47ff">
<path fill="#826f47" opacity="1.00" d=" M 39.51 251.25 C 40.37 250.39 42.48 250.41 42.76 251.81 C 42.55 253.70 38.53 253.17 39.51 251.25 Z" />
</g>
<g id="#5f9a4bff">
<path fill="#5f9a4b" opacity="1.00" d=" M 24.30 253.22 C 25.02 253.14 26.46 252.97 27.18 252.89 C 27.25 256.14 26.17 259.26 23.45 261.18 C 23.34 259.57 23.25 257.95 23.17 256.34 C 23.54 255.29 23.92 254.25 24.30 253.22 Z" />
</g>
<g id="#5d9948ff">
<path fill="#5d9948" opacity="1.00" d=" M 28.82 252.91 C 30.68 254.39 32.43 256.04 33.76 258.02 C 34.00 258.58 34.46 259.70 34.70 260.26 C 34.77 259.76 34.91 258.74 34.99 258.23 C 37.64 255.13 41.51 253.69 45.46 253.14 C 44.75 255.61 43.81 258.05 42.12 260.03 C 39.74 260.87 37.34 261.68 34.93 262.45 C 34.63 262.22 34.03 261.75 33.73 261.52 C 33.25 261.18 32.29 260.50 31.82 260.16 C 29.70 258.33 29.22 255.52 28.82 252.91 Z" />
</g>
<g id="#649f4fff">
<path fill="#649f4f" opacity="1.00" d=" M 6.89 254.25 C 8.89 254.22 10.90 254.21 12.91 254.17 C 12.88 256.10 12.87 258.03 12.88 259.97 C 11.26 258.37 9.55 256.87 7.59 255.70 C 7.42 255.34 7.06 254.61 6.89 254.25 Z" />
</g>
<g id="#86744aff">
<path fill="#86744a" opacity="1.00" d=" M 61.23 254.38 C 62.66 253.36 64.26 256.85 62.53 257.26 C 60.57 259.46 58.56 254.75 61.23 254.38 Z" />
</g>
<g id="#93c29eff">
<path fill="#93c29e" opacity="1.00" d=" M 341.18 256.25 C 342.72 256.32 342.12 258.73 340.84 258.74 C 339.30 258.67 339.89 256.25 341.18 256.25 Z" />
</g>
<g id="#cbe9e9ff">
<path fill="#cbe9e9" opacity="1.00" d=" M 61.17 259.78 C 61.91 259.88 63.38 260.08 64.11 260.18 C 63.37 262.73 62.29 265.16 61.00 267.48 C 60.95 264.91 61.01 262.34 61.17 259.78 Z" />
</g>
<g id="#499b40ff">
<path fill="#499b40" opacity="1.00" d=" M 282.61 264.50 C 287.07 263.95 291.52 265.17 296.00 264.91 C 301.70 264.65 307.31 266.06 313.01 265.95 C 318.32 265.87 323.58 267.42 328.90 266.69 C 332.58 266.23 336.28 265.85 340.00 265.92 C 347.98 266.04 356.28 265.18 363.90 268.09 C 366.23 269.05 368.46 271.28 368.18 273.98 C 367.81 278.55 364.81 282.67 360.85 284.87 C 355.62 287.72 349.40 288.73 343.56 287.57 C 330.05 285.22 316.98 280.38 303.20 279.64 C 288.41 278.48 274.63 285.56 260.01 286.28 C 256.34 286.60 252.68 287.16 248.99 287.11 C 233.19 286.22 217.53 283.71 201.76 282.42 C 195.52 281.61 189.24 282.28 183.02 282.92 C 166.51 283.95 150.41 288.14 133.98 289.89 C 121.69 291.31 109.21 291.69 96.90 290.34 C 79.55 289.68 62.34 287.06 45.01 285.87 C 37.42 285.02 29.02 284.89 22.81 279.81 C 24.09 278.28 25.67 276.92 27.73 276.64 C 37.39 274.70 47.20 276.74 56.91 277.20 C 71.58 278.91 86.23 280.92 100.97 281.93 C 109.24 281.93 117.61 282.50 125.74 280.68 C 142.13 278.21 158.22 273.96 174.76 272.54 C 189.34 270.26 203.78 274.83 218.36 274.43 C 228.81 273.72 238.91 270.73 249.24 269.18 C 260.23 266.76 271.51 266.23 282.61 264.50 Z" />
</g>
<g id="#678479a0">
<path fill="#678479" opacity="0.63" d=" M 380.37 291.18 C 380.31 289.63 381.18 288.31 382.00 287.08 L 382.00 293.38 L 381.38 293.61 C 381.13 293.00 380.63 291.79 380.37 291.18 Z" />
</g>
<g id="#bde1e2ff">
<path fill="#bde1e2" opacity="1.00" d=" M 0.00 291.59 C 1.16 290.96 2.35 292.53 1.70 293.58 C 1.28 293.74 0.43 294.05 0.00 294.20 L 0.00 291.59 Z" />
</g>
<g id="#b0dad1ff">
<path fill="#b0dad1" opacity="1.00" d=" M 377.23 294.04 C 377.88 292.73 379.04 291.75 380.37 291.18 C 380.63 291.79 381.13 293.00 381.38 293.61 C 380.04 294.08 378.66 294.22 377.23 294.04 Z" />
</g>
<g id="#63a969ff">
<path fill="#63a969" opacity="1.00" d=" M 73.75 293.82 C 80.56 292.85 87.55 292.17 94.32 293.77 C 87.47 294.11 80.61 294.00 73.75 293.82 Z" />
</g>
<g id="#6bae74ff">
<path fill="#6bae74" opacity="1.00" d=" M 168.73 293.79 C 179.78 292.60 190.91 293.10 202.00 292.90 C 213.09 293.09 224.24 292.30 235.26 293.82 C 213.09 294.08 190.90 294.15 168.73 293.79 Z" />
</g>
<g id="#37454153">
<path fill="#374541" opacity="0.33" d=" M 0.00 294.20 C 0.43 294.05 1.28 293.74 1.70 293.58 C 2.25 293.94 3.36 294.65 3.91 295.00 L 0.00 295.00 L 0.00 294.20 Z" />
</g>
<g id="#3851406e">
<path fill="#385140" opacity="0.43" d=" M 10.63 294.51 C 17.40 293.66 24.23 293.97 31.02 294.11 C 45.26 294.77 59.51 294.01 73.75 293.82 C 80.61 294.00 87.47 294.11 94.32 293.77 C 100.42 294.01 106.54 293.99 112.57 295.00 L 11.76 295.00 L 10.63 294.51 Z" />
</g>
<g id="#38534071">
<path fill="#385340" opacity="0.44" d=" M 118.47 295.00 C 125.62 294.08 132.84 293.70 140.05 294.16 C 149.60 294.88 159.17 294.02 168.73 293.79 C 190.90 294.15 213.09 294.08 235.26 293.82 C 264.16 294.10 293.08 294.81 321.99 294.05 C 340.40 293.66 358.82 294.39 377.23 294.04 C 378.66 294.22 380.04 294.08 381.38 293.61 L 382.00 293.38 L 382.00 295.00 L 118.47 295.00 Z" />
</g>
</svg>
