<?xml version="1.0" encoding="utf-8"?>
<!-- Generator: Adobe Illustrator 16.0.0, SVG Export Plug-In . SVG Version: 6.00 Build 0)  -->
<!DOCTYPE svg PUBLIC "-//W3C//DTD SVG 1.1//EN" "http://www.w3.org/Graphics/SVG/1.1/DTD/svg11.dtd">
<svg version="1.1" id="Layer_1" xmlns="http://www.w3.org/2000/svg" xmlns:xlink="http://www.w3.org/1999/xlink" x="0px" y="0px"
	 width="100px" height="100px" viewBox="0 0 100 100" enable-background="new 0 0 100 100" xml:space="preserve">
<path fill="#E7463E" stroke="#000000" stroke-width="4" stroke-linecap="round" stroke-linejoin="round" stroke-miterlimit="10" d="
	M93.68,90.083c0,2.061-1.285,3.731-2.869,3.731c0,0-2.955-0.074-12.913,0c-13.966,0.105-27.02,0-27.02,0s-23.185-0.197-31.443,0
	c-8.431,0.203-10.581,0-10.581,0c-1.585,0-2.87-1.671-2.87-3.731c0,0-0.314-18.428,0-23.56c0.166-2.703-0.126-13.813-0.14-24.667
	C5.832,32.108,6.11,22.59,5.984,19.172c-0.27-7.289,0-10.03,0-10.03c0-2.061,1.284-3.732,2.87-3.732c0,0,7.482-0.411,14.706,0
	c4.379,0.249,14.182-0.141,24.345-0.182c8.356-0.034,16.928,0.314,23.18,0.182c13.854-0.291,19.727,0,19.727,0
	c1.584,0,2.869,1.671,2.869,3.732c0,0,0.102,1.239,0,8.864c-0.104,7.78,0.133,29.786,0.133,31.103c0,1.318-0.24,10.962,0,20.294
	S93.68,90.083,93.68,90.083z"/>
<path fill="#FFFFFF" stroke="#000000" stroke-width="4" stroke-linecap="round" stroke-linejoin="round" stroke-miterlimit="10" d="
	M37.25,48.125c-3.924,0.086-7.522-0.073-10.339-3.151c-2.553-2.79-3.057-5.323-3.643-8.911c-0.792-4.847,0.184-9.814,3.531-13.752
	c3.607-4.244,6.229-5.607,11.787-5.475c6.253,0.149,14-0.829,20.163-2.585c3.208-0.858,4.329,2.888,2.606,4.17
	c-2.127,1.582-7.231,5.056-11.004,5.056c12.81,10.691,1.303,21.56,2.128,21.074c-3.04,1.789-6.229,2.99-6.053,5.765
	c0.198,3.119,5.811,5.058,7.857,6.856c3.607,3.167,5.786,6.053,4.887,10.968c-1.047,5.717-5.201,10.721-10.316,13.325
	c-8.214,4.183-24.604,3.67-28.513-6.514c-1.713-4.464-0.785-10.024,2.156-13.766c3.587-4.565,9.479-5.337,14.877-5.935l0.25-0.125
	c0.812-1.877,0.1-4.56,0.25-6.875"/>
<path fill="#E7463E" stroke="#000000" stroke-width="4" stroke-linecap="round" stroke-linejoin="round" stroke-miterlimit="10" d="
	M37.447,23.875c-4.103,1.515-4.559,5.33-4.389,8.677c0.176,3.455,1.308,8.086,5.71,9.52c3.759,1.224,6.855-1.004,7.602-4.001
	c0.738-2.962-0.492-6.014-1.708-8.773C43.313,26.232,42.593,23.875,37.447,23.875"/>
<path fill="#E7463E" stroke="#000000" stroke-width="4" stroke-linecap="round" stroke-linejoin="round" stroke-miterlimit="10" d="
	M42.125,61.25c-3.589,0.203-7.59,0.752-10.523,3.017c-2.994,2.312-2.642,5.95-0.103,8.497c5.176,5.191,22.247,2.973,18.356-6.732
	c-1.539-3.838-5.017-4.379-8.73-4.656"/>
<path fill="#FFFFFF" stroke="#000000" stroke-width="4" stroke-linecap="round" stroke-linejoin="round" stroke-miterlimit="10" d="
	M75.657,31.057c0.063,1.357,0.122,3.438,0.122,4.408c0,0.921,0.061,2.36,0.061,3.283c-2.03,0.009-4.068,0.071-6.101,0.064
	l-0.061-0.064c0-2.086-0.111-5.741-0.062-7.819l-0.135,0.071c-1.281,0.067-3.246,0.129-4.16,0.129c-0.872,0-2.229,0.064-3.101,0.064
	c-0.007-2.151-0.065-4.31-0.06-6.463l0.06-0.064c1.972,0,5.419-0.118,7.382-0.064l0.183-0.144c-0.063-1.356-0.122-3.437-0.122-4.407
	c0.002-0.921-0.061-2.361-0.061-3.282c2.031-0.009,4.069-0.071,6.102-0.064l0.061,0.064c0,2.086,0.111,5.74,0.061,7.819l0.137-0.072
	c1.281-0.067,3.245-0.129,4.16-0.129c0.87,0,2.229-0.064,3.1-0.064c0.008,2.151,0.066,4.31,0.061,6.463l-0.061,0.064
	c-1.971,0-5.42,0.118-7.383,0.064"/>
</svg>
