<?xml version="1.0" encoding="UTF-8" ?>
<!DOCTYPE svg PUBLIC "-//W3C//DTD SVG 1.1//EN" "http://www.w3.org/Graphics/SVG/1.1/DTD/svg11.dtd">
<svg width="382pt" height="294pt" viewBox="0 0 382 294" version="1.1" xmlns="http://www.w3.org/2000/svg">
<g id="#7dd4efff">
<path fill="#7dd4ef" opacity="1.00" d=" M 0.00 0.00 L 382.00 0.00 L 382.00 206.31 C 375.36 202.89 368.50 199.85 361.33 197.71 C 351.81 194.78 341.90 193.03 331.94 192.75 C 321.72 191.76 311.50 193.34 301.28 193.65 C 298.94 193.41 297.72 191.07 296.40 189.42 C 295.87 191.06 295.33 192.70 294.74 194.32 C 290.49 189.08 288.85 182.46 287.82 175.93 C 293.00 172.58 297.06 167.58 299.01 161.70 C 303.12 162.30 307.31 162.97 311.07 164.84 C 320.94 169.68 328.91 177.89 339.46 181.43 C 344.09 183.08 349.57 183.51 353.94 180.87 C 359.11 177.70 362.29 172.23 364.77 166.86 C 367.58 160.45 369.93 153.14 367.75 146.18 C 363.70 132.74 353.34 121.93 351.02 107.86 C 348.67 95.20 353.60 82.88 356.59 70.77 C 359.57 58.77 364.07 46.66 362.69 34.09 C 362.03 26.81 356.62 21.10 350.78 17.28 C 338.95 9.75 324.71 7.37 310.96 6.40 C 298.44 6.10 285.96 8.12 273.80 10.98 C 261.15 14.33 248.99 19.24 236.80 23.94 C 231.24 24.87 225.69 25.87 220.18 27.09 C 207.12 27.80 194.01 28.21 180.99 26.70 C 154.68 24.80 130.17 13.54 103.97 11.01 C 80.75 8.16 56.25 12.76 36.43 25.43 C 29.30 30.11 21.90 36.82 21.55 45.97 C 21.00 52.01 24.16 57.57 28.20 61.79 C 34.24 68.09 40.61 74.07 46.75 80.27 C 49.43 83.05 52.03 86.25 52.63 90.20 C 53.71 97.49 51.66 104.83 48.68 111.44 C 43.94 105.43 36.88 100.86 29.02 100.85 C 17.98 100.11 7.11 107.96 4.27 118.62 C 1.57 126.99 4.14 136.53 10.23 142.76 C 13.62 146.32 18.18 148.47 22.79 150.00 C 23.29 156.76 23.15 163.57 21.47 170.17 C 19.95 170.31 18.43 170.47 16.91 170.64 C 16.83 169.13 16.77 167.63 16.69 166.12 C 16.09 167.48 15.49 168.84 14.88 170.19 C 12.82 170.31 10.75 170.36 8.69 170.53 C 8.70 171.49 8.69 172.44 8.67 173.40 C 5.70 174.45 2.83 175.75 0.00 177.11 L 0.00 0.00 Z" />
<path fill="#7dd4ef" opacity="1.00" d=" M 35.14 149.38 C 39.59 147.80 43.63 145.16 46.91 141.78 C 54.03 144.44 61.26 146.83 68.30 149.70 C 74.13 152.06 79.03 156.05 84.19 159.54 C 83.70 165.48 85.57 171.46 89.29 176.11 C 87.18 181.19 83.54 185.29 79.61 189.05 C 70.57 183.56 60.97 179.04 51.69 173.97 C 49.35 172.59 46.65 172.10 44.03 171.54 C 43.91 170.55 43.79 169.57 43.68 168.59 C 43.09 168.88 42.51 169.18 41.92 169.47 C 41.54 168.44 41.17 167.43 40.79 166.41 C 39.61 167.67 38.38 168.88 37.19 170.12 C 34.70 163.49 34.36 156.36 35.14 149.38 Z" />
<path fill="#7dd4ef" opacity="1.00" d=" M 274.27 178.39 C 275.15 178.52 276.04 178.62 276.94 178.69 C 279.22 184.94 280.19 191.56 279.86 198.21 C 279.30 197.39 278.75 196.58 278.19 195.77 C 277.54 196.72 276.90 197.68 276.26 198.64 C 276.09 198.13 275.77 197.11 275.60 196.59 C 271.06 199.52 266.62 202.81 261.38 204.38 C 248.80 208.65 236.42 213.47 223.87 217.84 C 210.16 221.99 196.41 226.31 182.14 228.10 C 180.68 227.44 179.00 227.71 177.91 228.91 C 166.94 229.38 155.87 230.03 145.00 228.08 C 131.96 226.01 119.49 220.83 108.58 213.43 C 102.37 209.19 96.06 204.53 92.39 197.79 C 91.50 197.63 90.62 197.46 89.74 197.28 C 91.15 191.49 94.00 186.16 98.12 181.85 C 100.60 182.40 103.14 182.76 105.68 182.91 C 114.69 191.53 123.76 200.39 134.94 206.17 C 144.99 211.73 157.29 214.36 168.40 210.50 C 180.60 206.24 190.11 197.02 199.36 188.36 C 203.36 184.49 209.35 184.75 214.42 185.75 C 226.26 188.31 237.75 193.24 250.02 193.29 C 260.06 193.48 269.98 187.49 274.27 178.39 Z" />
</g>
<g id="#92e4f7ff">
<path fill="#92e4f7" opacity="1.00" d=" M 273.80 10.98 C 285.96 8.12 298.44 6.10 310.96 6.40 C 324.71 7.37 338.95 9.75 350.78 17.28 C 356.62 21.10 362.03 26.81 362.69 34.09 C 364.07 46.66 359.57 58.77 356.59 70.77 C 353.60 82.88 348.67 95.20 351.02 107.86 C 353.34 121.93 363.70 132.74 367.75 146.18 C 369.93 153.14 367.58 160.45 364.77 166.86 C 362.29 172.23 359.11 177.70 353.94 180.87 C 349.57 183.51 344.09 183.08 339.46 181.43 C 328.91 177.89 320.94 169.68 311.07 164.84 C 307.31 162.97 303.12 162.30 299.01 161.70 C 300.21 155.99 299.56 149.91 296.71 144.77 C 294.65 140.98 291.27 137.94 287.43 136.00 C 280.31 131.60 270.81 132.38 264.04 137.09 C 255.80 142.58 252.08 153.86 255.61 163.15 C 256.73 166.70 258.63 170.15 261.60 172.48 C 265.11 175.71 269.59 177.63 274.27 178.39 C 269.98 187.49 260.06 193.48 250.02 193.29 C 237.75 193.24 226.26 188.31 214.42 185.75 C 209.35 184.75 203.36 184.49 199.36 188.36 C 190.11 197.02 180.60 206.24 168.40 210.50 C 157.29 214.36 144.99 211.73 134.94 206.17 C 123.76 200.39 114.69 191.53 105.68 182.91 C 109.51 182.32 113.21 180.94 116.39 178.71 C 124.76 173.14 126.85 160.66 121.81 152.20 C 118.50 146.64 112.42 142.78 105.95 142.34 C 97.13 141.61 88.06 147.40 85.31 155.86 C 84.91 157.07 84.53 158.30 84.19 159.54 C 79.03 156.05 74.13 152.06 68.30 149.70 C 61.26 146.83 54.03 144.44 46.91 141.78 C 47.84 140.47 48.69 139.09 49.52 137.71 C 54.27 129.68 53.26 119.33 48.68 111.44 C 51.66 104.83 53.71 97.49 52.63 90.20 C 52.03 86.25 49.43 83.05 46.75 80.27 C 40.61 74.07 34.24 68.09 28.20 61.79 C 24.16 57.57 21.00 52.01 21.55 45.97 C 21.90 36.82 29.30 30.11 36.43 25.43 C 56.25 12.76 80.75 8.16 103.97 11.01 C 130.17 13.54 154.68 24.80 180.99 26.70 C 194.01 28.21 207.12 27.80 220.18 27.09 C 206.08 31.84 192.82 39.74 183.32 51.35 C 174.97 61.28 169.41 73.40 166.85 86.10 C 164.50 91.42 158.51 93.30 155.20 97.81 C 155.28 100.74 155.56 103.99 157.81 106.13 C 160.06 108.70 163.73 107.77 166.73 108.00 C 169.91 107.88 172.96 109.55 176.15 108.99 C 184.15 106.84 192.47 110.14 200.52 108.55 C 204.61 106.76 205.44 102.00 204.89 98.02 C 200.20 94.26 198.80 87.35 192.90 85.03 C 195.28 76.73 200.63 69.86 206.03 63.30 C 211.12 59.47 216.31 55.62 222.25 53.20 C 238.10 46.51 257.04 47.48 272.07 55.90 C 276.27 58.25 279.95 61.37 283.68 64.38 C 286.47 68.24 289.69 71.80 292.01 75.98 C 293.95 79.44 295.21 83.22 296.56 86.94 C 294.49 92.05 288.60 93.36 285.66 97.66 C 285.08 100.63 285.52 103.95 287.83 106.12 C 290.08 108.68 293.73 107.80 296.73 108.01 C 299.92 107.87 302.97 109.55 306.14 108.99 C 314.14 106.78 322.47 110.16 330.53 108.55 C 334.60 106.74 335.64 101.90 334.86 97.88 C 333.08 95.98 331.21 94.15 329.50 92.19 C 328.24 90.03 327.05 87.76 325.10 86.13 C 323.94 85.19 322.75 84.29 321.58 83.37 C 319.21 75.55 316.29 67.89 312.34 60.73 C 314.90 59.55 317.44 58.31 319.96 57.03 C 322.00 58.74 324.05 60.45 326.21 62.03 C 324.64 59.91 322.94 57.89 321.23 55.88 C 321.88 54.35 322.54 52.83 323.16 51.29 C 323.34 50.83 323.69 49.91 323.87 49.45 C 324.39 48.03 324.91 46.61 325.43 45.20 C 329.43 45.18 333.43 45.05 337.40 44.61 C 333.52 43.65 329.50 43.74 325.53 43.71 C 324.90 41.65 324.23 39.59 323.41 37.59 C 322.63 36.23 321.74 34.94 320.79 33.70 C 322.58 31.16 324.56 28.76 326.27 26.17 C 323.89 28.04 321.64 30.07 319.32 32.01 C 313.55 26.99 304.41 26.96 298.22 31.24 C 295.42 33.12 294.13 36.41 292.50 39.23 C 276.64 27.38 256.37 22.69 236.80 23.94 C 248.99 19.24 261.15 14.33 273.80 10.98 M 307.97 28.08 L 309.00 28.08 C 309.00 23.90 309.25 19.71 308.74 15.56 C 307.08 19.50 308.24 23.93 307.97 28.08 M 290.81 26.71 C 291.94 28.88 293.64 30.70 296.00 31.52 C 294.75 29.46 292.95 27.82 290.81 26.71 Z" />
</g>
<g id="#edac59ff">
<path fill="#edac59" opacity="1.00" d=" M 307.97 28.08 C 308.24 23.93 307.08 19.50 308.74 15.56 C 309.25 19.71 309.00 23.90 309.00 28.08 L 307.97 28.08 Z" />
</g>
<g id="#daf272ff">
<path fill="#daf272" opacity="1.00" d=" M 220.18 27.09 C 225.69 25.87 231.24 24.87 236.80 23.94 C 256.37 22.69 276.64 27.38 292.50 39.23 C 299.22 44.38 305.05 50.57 309.93 57.49 C 310.75 58.56 311.57 59.62 312.34 60.73 C 316.29 67.89 319.21 75.55 321.58 83.37 C 320.04 84.05 318.53 84.79 317.03 85.54 C 316.14 84.31 315.26 83.09 314.39 81.85 C 313.91 75.73 310.80 70.31 308.01 64.99 C 295.61 42.83 270.21 29.20 244.99 29.75 C 228.93 29.27 212.73 34.23 199.78 43.76 C 186.59 53.39 176.63 67.85 173.44 83.96 C 171.31 84.86 169.07 85.47 166.85 86.10 C 169.41 73.40 174.97 61.28 183.32 51.35 C 192.82 39.74 206.08 31.84 220.18 27.09 Z" />
</g>
<g id="#f4a788ff">
<path fill="#f4a788" opacity="1.00" d=" M 319.32 32.01 C 321.64 30.07 323.89 28.04 326.27 26.17 C 324.56 28.76 322.58 31.16 320.79 33.70 C 320.31 33.12 319.82 32.56 319.32 32.01 Z" />
<path fill="#f4a788" opacity="1.00" d=" M 200.69 60.69 C 219.21 41.50 250.65 37.45 273.90 50.12 C 284.03 55.29 291.91 63.80 297.92 73.32 C 299.20 77.25 299.99 81.74 303.60 84.31 C 301.29 85.29 298.90 86.04 296.56 86.94 C 295.21 83.22 293.95 79.44 292.01 75.98 C 289.69 71.80 286.47 68.24 283.68 64.38 C 282.81 62.65 282.05 60.76 280.43 59.56 C 260.93 43.43 230.39 42.84 210.32 58.29 C 208.61 59.70 207.35 61.55 206.03 63.30 C 200.63 69.86 195.28 76.73 192.90 85.03 C 190.48 85.46 187.81 85.59 185.93 83.71 C 186.69 82.25 187.44 80.80 188.14 79.32 C 191.66 72.70 195.19 65.92 200.69 60.69 Z" />
</g>
<g id="#f9bc73ff">
<path fill="#f9bc73" opacity="1.00" d=" M 290.81 26.71 C 292.95 27.82 294.75 29.46 296.00 31.52 C 293.64 30.70 291.94 28.88 290.81 26.71 Z" />
<path fill="#f9bc73" opacity="1.00" d=" M 223.63 38.70 C 230.71 38.11 237.69 36.51 244.82 36.60 C 251.73 36.58 258.48 38.21 265.35 38.75 C 280.64 42.89 294.15 53.16 302.27 66.75 C 304.95 71.44 308.11 76.34 307.78 81.97 C 306.37 82.72 305.00 83.54 303.60 84.31 C 299.99 81.74 299.20 77.25 297.92 73.32 C 296.82 68.37 293.81 64.22 290.36 60.64 C 277.66 46.35 257.84 39.34 238.95 40.98 C 224.67 42.23 210.62 48.23 200.57 58.57 C 194.98 64.41 189.38 71.06 188.14 79.32 C 187.44 80.80 186.69 82.25 185.93 83.71 C 185.40 83.29 184.32 82.46 183.78 82.05 C 182.67 81.11 181.31 80.37 179.82 80.35 C 182.24 75.84 183.94 70.98 186.62 66.61 C 194.76 53.03 208.38 42.84 223.63 38.70 Z" />
</g>
<g id="#f7da4bff">
<path fill="#f7da4b" opacity="1.00" d=" M 298.22 31.24 C 304.41 26.96 313.55 26.99 319.32 32.01 C 319.82 32.56 320.31 33.12 320.79 33.70 C 321.74 34.94 322.63 36.23 323.41 37.59 C 322.49 38.07 322.05 38.80 322.09 39.77 C 322.27 43.06 323.22 46.24 323.87 49.45 C 323.69 49.91 323.34 50.83 323.16 51.29 C 319.47 54.63 314.94 56.98 309.93 57.49 C 305.05 50.57 299.22 44.38 292.50 39.23 C 294.13 36.41 295.42 33.12 298.22 31.24 Z" />
</g>
<g id="#ffe96bff">
<path fill="#ffe96b" opacity="1.00" d=" M 199.78 43.76 C 212.73 34.23 228.93 29.27 244.99 29.75 C 270.21 29.20 295.61 42.83 308.01 64.99 C 310.80 70.31 313.91 75.73 314.39 81.85 C 312.18 81.82 309.98 81.77 307.78 81.97 C 308.11 76.34 304.95 71.44 302.27 66.75 C 294.15 53.16 280.64 42.89 265.35 38.75 C 252.02 34.07 236.99 34.14 223.63 38.70 C 208.38 42.84 194.76 53.03 186.62 66.61 C 183.94 70.98 182.24 75.84 179.82 80.35 C 178.95 80.89 178.09 81.44 177.23 81.99 C 175.97 82.66 174.72 83.33 173.44 83.96 C 176.63 67.85 186.59 53.39 199.78 43.76 Z" />
</g>
<g id="#f3b046ff">
<path fill="#f3b046" opacity="1.00" d=" M 223.63 38.70 C 236.99 34.14 252.02 34.07 265.35 38.75 C 258.48 38.21 251.73 36.58 244.82 36.60 C 237.69 36.51 230.71 38.11 223.63 38.70 Z" />
</g>
<g id="#ebd585ff">
<path fill="#ebd585" opacity="1.00" d=" M 322.09 39.77 C 322.05 38.80 322.49 38.07 323.41 37.59 C 324.23 39.59 324.90 41.65 325.53 43.71 C 329.50 43.74 333.52 43.65 337.40 44.61 C 333.43 45.05 329.43 45.18 325.43 45.20 C 324.91 46.61 324.39 48.03 323.87 49.45 C 323.22 46.24 322.27 43.06 322.09 39.77 Z" />
</g>
<g id="#f09d45ff">
<path fill="#f09d45" opacity="1.00" d=" M 200.57 58.57 C 210.62 48.23 224.67 42.23 238.95 40.98 C 257.84 39.34 277.66 46.35 290.36 60.64 C 293.81 64.22 296.82 68.37 297.92 73.32 C 291.91 63.80 284.03 55.29 273.90 50.12 C 250.65 37.45 219.21 41.50 200.69 60.69 C 195.19 65.92 191.66 72.70 188.14 79.32 C 189.38 71.06 194.98 64.41 200.57 58.57 Z" />
</g>
<g id="#e68c6bff">
<path fill="#e68c6b" opacity="1.00" d=" M 210.32 58.29 C 230.39 42.84 260.93 43.43 280.43 59.56 C 282.05 60.76 282.81 62.65 283.68 64.38 C 279.95 61.37 276.27 58.25 272.07 55.90 C 257.04 47.48 238.10 46.51 222.25 53.20 C 216.31 55.62 211.12 59.47 206.03 63.30 C 207.35 61.55 208.61 59.70 210.32 58.29 Z" />
</g>
<g id="#e8b362ff">
<path fill="#e8b362" opacity="1.00" d=" M 309.93 57.49 C 314.94 56.98 319.47 54.63 323.16 51.29 C 322.54 52.83 321.88 54.35 321.23 55.88 C 322.94 57.89 324.64 59.91 326.21 62.03 C 324.05 60.45 322.00 58.74 319.96 57.03 C 317.44 58.31 314.90 59.55 312.34 60.73 C 311.57 59.62 310.75 58.56 309.93 57.49 Z" />
</g>
<g id="#cbc3b3ff">
<path fill="#cbc3b3" opacity="1.00" d=" M 177.23 81.99 C 178.09 81.44 178.95 80.89 179.82 80.35 C 181.31 80.37 182.67 81.11 183.78 82.05 C 181.60 82.24 179.41 82.10 177.23 81.99 Z" />
</g>
<g id="#edededff">
<path fill="#ededed" opacity="1.00" d=" M 173.44 83.96 C 174.72 83.33 175.97 82.66 177.23 81.99 C 179.41 82.10 181.60 82.24 183.78 82.05 C 184.32 82.46 185.40 83.29 185.93 83.71 C 187.81 85.59 190.48 85.46 192.90 85.03 C 198.80 87.35 200.20 94.26 204.89 98.02 C 203.54 100.22 202.48 103.18 199.65 103.80 C 191.43 104.71 183.14 101.99 174.98 103.94 C 170.98 103.50 167.02 102.55 162.96 103.02 C 159.35 103.60 157.38 99.99 155.20 97.81 C 158.51 93.30 164.50 91.42 166.85 86.10 C 169.07 85.47 171.31 84.86 173.44 83.96 Z" />
<path fill="#ededed" opacity="1.00" d=" M 308.56 85.58 C 310.84 84.15 313.07 85.97 315.15 86.86 C 319.73 89.18 325.08 89.49 329.50 92.19 C 331.21 94.15 333.08 95.98 334.86 97.88 C 333.65 100.16 332.70 103.31 329.76 103.79 C 321.79 104.62 313.75 101.94 305.87 103.83 C 301.88 103.88 297.98 102.38 293.95 102.92 C 290.81 103.62 288.54 101.23 286.75 99.05 C 289.58 97.62 292.50 96.15 294.55 93.64 C 297.92 89.09 303.76 88.01 308.56 85.58 Z" />
</g>
<g id="#fdfdfdff">
<path fill="#fdfdfd" opacity="1.00" d=" M 307.78 81.97 C 309.98 81.77 312.18 81.82 314.39 81.85 C 315.26 83.09 316.14 84.31 317.03 85.54 C 319.72 85.75 322.41 85.91 325.10 86.13 C 327.05 87.76 328.24 90.03 329.50 92.19 C 325.08 89.49 319.73 89.18 315.15 86.86 C 313.07 85.97 310.84 84.15 308.56 85.58 C 303.76 88.01 297.92 89.09 294.55 93.64 C 292.50 96.15 289.58 97.62 286.75 99.05 C 286.48 98.70 285.93 98.00 285.66 97.66 C 288.60 93.36 294.49 92.05 296.56 86.94 C 298.90 86.04 301.29 85.29 303.60 84.31 C 305.00 83.54 306.37 82.72 307.78 81.97 Z" />
</g>
<g id="#c3cdc3ff">
<path fill="#c3cdc3" opacity="1.00" d=" M 321.58 83.37 C 322.75 84.29 323.94 85.19 325.10 86.13 C 322.41 85.91 319.72 85.75 317.03 85.54 C 318.53 84.79 320.04 84.05 321.58 83.37 Z" />
</g>
<g id="#bcbdbdff">
<path fill="#bcbdbd" opacity="1.00" d=" M 157.81 106.13 C 155.56 103.99 155.28 100.74 155.20 97.81 C 157.38 99.99 159.35 103.60 162.96 103.02 C 167.02 102.55 170.98 103.50 174.98 103.94 C 183.14 101.99 191.43 104.71 199.65 103.80 C 202.48 103.18 203.54 100.22 204.89 98.02 C 205.44 102.00 204.61 106.76 200.52 108.55 C 192.47 110.14 184.15 106.84 176.15 108.99 C 172.96 109.55 169.91 107.88 166.73 108.00 C 163.73 107.77 160.06 108.70 157.81 106.13 Z" />
<path fill="#bcbdbd" opacity="1.00" d=" M 287.83 106.12 C 285.52 103.95 285.08 100.63 285.66 97.66 C 285.93 98.00 286.48 98.70 286.75 99.05 C 288.54 101.23 290.81 103.62 293.95 102.92 C 297.98 102.38 301.88 103.88 305.87 103.83 C 313.75 101.94 321.79 104.62 329.76 103.79 C 332.70 103.31 333.65 100.16 334.86 97.88 C 335.64 101.90 334.60 106.74 330.53 108.55 C 322.47 110.16 314.14 106.78 306.14 108.99 C 302.97 109.55 299.92 107.87 296.73 108.01 C 293.73 107.80 290.08 108.68 287.83 106.12 Z" />
</g>
<g id="#519b42ff">
<path fill="#519b42" opacity="1.00" d=" M 4.27 118.62 C 7.11 107.96 17.98 100.11 29.02 100.85 C 36.88 100.86 43.94 105.43 48.68 111.44 C 53.26 119.33 54.27 129.68 49.52 137.71 C 45.75 139.45 42.37 141.90 38.64 143.70 C 28.62 147.72 16.02 143.99 9.99 134.98 C 6.64 130.13 6.15 124.08 4.27 118.62 Z" />
</g>
<g id="#3e852dff">
<path fill="#3e852d" opacity="1.00" d=" M 4.27 118.62 C 6.15 124.08 6.64 130.13 9.99 134.98 C 16.02 143.99 28.62 147.72 38.64 143.70 C 42.37 141.90 45.75 139.45 49.52 137.71 C 48.69 139.09 47.84 140.47 46.91 141.78 C 43.63 145.16 39.59 147.80 35.14 149.38 C 31.07 150.09 26.91 150.23 22.79 150.00 C 18.18 148.47 13.62 146.32 10.23 142.76 C 4.14 136.53 1.57 126.99 4.27 118.62 Z" />
<path fill="#3e852d" opacity="1.00" d=" M 295.29 162.31 C 297.94 156.86 297.40 150.60 296.71 144.77 C 299.56 149.91 300.21 155.99 299.01 161.70 C 297.06 167.58 293.00 172.58 287.82 175.93 C 284.34 177.33 280.66 178.21 276.94 178.69 C 276.04 178.62 275.15 178.52 274.27 178.39 C 269.59 177.63 265.11 175.71 261.60 172.48 C 266.73 173.41 271.74 175.52 277.03 175.07 C 284.86 174.57 292.01 169.37 295.29 162.31 Z" />
<path fill="#3e852d" opacity="1.00" d=" M 85.31 155.86 C 86.17 160.38 86.80 165.05 88.74 169.27 C 91.79 174.97 97.79 179.08 104.25 179.68 C 108.31 179.75 112.34 178.98 116.39 178.71 C 113.21 180.94 109.51 182.32 105.68 182.91 C 103.14 182.76 100.60 182.40 98.12 181.85 C 94.88 180.45 91.87 178.52 89.29 176.11 C 85.57 171.46 83.70 165.48 84.19 159.54 C 84.53 158.30 84.91 157.07 85.31 155.86 Z" />
</g>
<g id="#79bd65ff">
<path fill="#79bd65" opacity="1.00" d=" M 264.04 137.09 C 270.81 132.38 280.31 131.60 287.43 136.00 C 283.67 136.29 279.89 136.27 276.12 136.36 C 268.25 136.50 261.34 142.24 258.34 149.30 C 256.57 153.69 256.05 158.47 255.61 163.15 C 252.08 153.86 255.80 142.58 264.04 137.09 Z" />
</g>
<g id="#6bb257ff">
<path fill="#6bb257" opacity="1.00" d=" M 258.34 149.30 C 261.34 142.24 268.25 136.50 276.12 136.36 C 279.89 136.27 283.67 136.29 287.43 136.00 C 291.27 137.94 294.65 140.98 296.71 144.77 C 297.40 150.60 297.94 156.86 295.29 162.31 C 292.01 169.37 284.86 174.57 277.03 175.07 C 271.74 175.52 266.73 173.41 261.60 172.48 C 258.63 170.15 256.73 166.70 255.61 163.15 C 256.05 158.47 256.57 153.69 258.34 149.30 Z" />
</g>
<g id="#5da34bff">
<path fill="#5da34b" opacity="1.00" d=" M 85.31 155.86 C 88.06 147.40 97.13 141.61 105.95 142.34 C 112.42 142.78 118.50 146.64 121.81 152.20 C 126.85 160.66 124.76 173.14 116.39 178.71 C 112.34 178.98 108.31 179.75 104.25 179.68 C 97.79 179.08 91.79 174.97 88.74 169.27 C 86.80 165.05 86.17 160.38 85.31 155.86 Z" />
</g>
<g id="#6d5b31ff">
<path fill="#6d5b31" opacity="1.00" d=" M 22.79 150.00 C 26.91 150.23 31.07 150.09 35.14 149.38 C 34.36 156.36 34.70 163.49 37.19 170.12 C 38.38 168.88 39.61 167.67 40.79 166.41 C 41.17 167.43 41.54 168.44 41.92 169.47 C 35.52 172.74 28.13 171.94 21.20 172.70 C 21.27 172.07 21.41 170.81 21.47 170.17 C 23.15 163.57 23.29 156.76 22.79 150.00 Z" />
<path fill="#6d5b31" opacity="1.00" d=" M 89.29 176.11 C 91.87 178.52 94.88 180.45 98.12 181.85 C 94.00 186.16 91.15 191.49 89.74 197.28 C 85.45 195.91 81.79 193.21 77.96 190.94 C 78.37 190.46 79.20 189.52 79.61 189.05 C 83.54 185.29 87.18 181.19 89.29 176.11 Z" />
<path fill="#6d5b31" opacity="1.00" d=" M 276.94 178.69 C 280.66 178.21 284.34 177.33 287.82 175.93 C 288.85 182.46 290.49 189.08 294.74 194.32 C 294.64 194.61 294.43 195.17 294.33 195.46 C 289.70 196.69 285.04 197.82 280.53 199.47 C 280.37 199.16 280.03 198.52 279.86 198.21 C 280.19 191.56 279.22 184.94 276.94 178.69 Z" />
</g>
<g id="#317126ff">
<path fill="#317126" opacity="1.00" d=" M 14.88 170.19 C 15.49 168.84 16.09 167.48 16.69 166.12 C 16.77 167.63 16.83 169.13 16.91 170.64 C 18.43 170.47 19.95 170.31 21.47 170.17 C 21.41 170.81 21.27 172.07 21.20 172.70 C 28.13 171.94 35.52 172.74 41.92 169.47 C 42.51 169.18 43.09 168.88 43.68 168.59 C 43.79 169.57 43.91 170.55 44.03 171.54 C 46.65 172.10 49.35 172.59 51.69 173.97 C 43.71 175.79 35.48 174.73 27.39 175.31 C 21.14 175.11 14.52 176.09 8.67 173.40 C 8.69 172.44 8.70 171.49 8.69 170.53 C 10.75 170.36 12.82 170.31 14.88 170.19 Z" />
</g>
<g id="#3b8230ff">
<path fill="#3b8230" opacity="1.00" d=" M 0.00 177.11 C 2.83 175.75 5.70 174.45 8.67 173.40 C 14.52 176.09 21.14 175.11 27.39 175.31 C 35.48 174.73 43.71 175.79 51.69 173.97 C 60.97 179.04 70.57 183.56 79.61 189.05 C 79.20 189.52 78.37 190.46 77.96 190.94 C 81.79 193.21 85.45 195.91 89.74 197.28 C 90.62 197.46 91.50 197.63 92.39 197.79 C 96.06 204.53 102.37 209.19 108.58 213.43 C 119.49 220.83 131.96 226.01 145.00 228.08 C 155.87 230.03 166.94 229.38 177.91 228.91 C 179.37 229.58 181.03 229.27 182.14 228.10 C 196.41 226.31 210.16 221.99 223.87 217.84 C 236.42 213.47 248.80 208.65 261.38 204.38 C 266.62 202.81 271.06 199.52 275.60 196.59 C 275.77 197.11 276.09 198.13 276.26 198.64 C 276.90 197.68 277.54 196.72 278.19 195.77 C 278.75 196.58 279.30 197.39 279.86 198.21 C 280.03 198.52 280.37 199.16 280.53 199.47 C 285.04 197.82 289.70 196.69 294.33 195.46 C 294.43 195.17 294.64 194.61 294.74 194.32 C 295.33 192.70 295.87 191.06 296.40 189.42 C 297.72 191.07 298.94 193.41 301.28 193.65 C 311.50 193.34 321.72 191.76 331.94 192.75 C 341.90 193.03 351.81 194.78 361.33 197.71 C 362.34 199.43 363.61 201.09 363.99 203.09 C 364.19 205.78 363.24 208.37 362.49 210.91 C 360.60 208.64 358.48 206.45 355.70 205.30 C 344.16 199.79 330.96 200.44 318.56 201.51 C 300.63 204.14 283.10 208.91 265.64 213.65 C 258.48 215.54 251.36 218.72 246.36 224.35 C 242.68 228.31 240.15 233.82 234.80 235.83 C 228.86 238.11 222.65 235.48 216.81 234.16 C 210.41 232.44 203.60 232.48 197.18 234.15 C 182.89 237.64 168.53 242.56 153.60 241.50 C 146.36 240.81 138.80 240.97 132.02 237.97 C 119.24 232.17 107.32 224.71 94.98 218.05 C 83.51 211.98 75.29 201.63 64.88 194.12 C 54.68 186.22 42.14 180.17 28.96 180.81 C 23.43 180.90 17.54 182.48 13.73 186.73 C 10.08 190.88 8.83 196.45 7.95 201.76 C 5.31 198.68 2.35 195.88 0.00 192.57 L 0.00 177.11 Z" />
</g>
<g id="#468e39ff">
<path fill="#468e39" opacity="1.00" d=" M 13.73 186.73 C 17.54 182.48 23.43 180.90 28.96 180.81 C 42.14 180.17 54.68 186.22 64.88 194.12 C 75.29 201.63 83.51 211.98 94.98 218.05 C 107.32 224.71 119.24 232.17 132.02 237.97 C 138.80 240.97 146.36 240.81 153.60 241.50 C 168.53 242.56 182.89 237.64 197.18 234.15 C 203.60 232.48 210.41 232.44 216.81 234.16 C 222.65 235.48 228.86 238.11 234.80 235.83 C 240.15 233.82 242.68 228.31 246.36 224.35 C 251.36 218.72 258.48 215.54 265.64 213.65 C 283.10 208.91 300.63 204.14 318.56 201.51 C 330.96 200.44 344.16 199.79 355.70 205.30 C 358.48 206.45 360.60 208.64 362.49 210.91 C 362.05 212.85 360.69 215.09 362.02 216.96 C 365.47 222.42 371.81 225.58 374.42 231.65 C 376.66 237.15 376.81 243.49 375.15 249.17 C 373.45 254.65 367.13 256.69 364.73 261.64 C 363.92 267.75 366.63 274.21 364.02 280.09 C 362.08 284.02 357.09 284.50 353.24 283.81 C 344.89 282.49 338.82 275.98 331.28 272.76 C 329.72 272.10 327.37 271.42 326.42 273.34 C 323.83 275.98 322.34 280.97 318.02 280.94 C 312.34 279.70 308.38 274.68 302.78 273.21 C 301.70 272.89 300.75 273.11 299.92 273.87 C 295.29 277.20 292.35 282.51 287.29 285.29 C 283.72 287.21 279.89 284.92 276.64 283.43 C 269.83 280.01 261.60 277.04 254.13 280.17 C 247.42 282.88 240.58 286.53 233.12 285.89 C 225.34 284.48 220.20 277.44 212.74 275.24 C 210.36 274.35 208.50 276.54 206.72 277.73 C 201.56 282.28 194.40 283.09 187.84 283.77 C 181.85 284.51 176.93 279.82 171.01 280.08 C 165.47 280.22 159.98 281.24 154.64 282.69 C 147.46 284.65 140.78 288.28 133.40 289.53 C 126.91 290.80 122.16 284.43 115.82 284.43 C 107.50 284.53 99.42 288.01 91.03 286.89 C 87.09 286.11 84.33 282.78 80.58 281.53 C 72.21 279.76 64.16 285.25 55.88 284.09 C 51.36 279.76 49.31 273.29 43.94 269.67 C 36.73 271.86 29.26 272.81 21.74 272.45 C 19.89 274.55 17.96 276.57 15.94 278.51 C 14.37 276.12 13.02 273.60 11.84 271.00 C 12.31 270.84 13.26 270.52 13.73 270.36 C 14.94 271.93 16.17 273.49 17.40 275.05 C 17.80 273.87 18.19 272.70 18.59 271.53 C 15.92 269.11 12.65 266.78 11.81 263.05 C 10.42 258.08 12.39 253.08 13.66 248.32 C 10.73 246.09 6.64 244.51 5.21 240.92 C 5.75 237.58 9.72 235.46 9.95 231.97 C 9.25 226.77 5.49 222.34 5.54 217.01 C 6.27 213.08 9.08 209.90 9.92 206.00 C 9.91 204.38 8.73 203.08 7.95 201.76 C 8.83 196.45 10.08 190.88 13.73 186.73 Z" />
</g>
<g id="#307025ff">
<path fill="#307025" opacity="1.00" d=" M 0.00 192.57 C 2.35 195.88 5.31 198.68 7.95 201.76 C 8.73 203.08 9.91 204.38 9.92 206.00 C 9.08 209.90 6.27 213.08 5.54 217.01 C 5.49 222.34 9.25 226.77 9.95 231.97 C 9.72 235.46 5.75 237.58 5.21 240.92 C 6.64 244.51 10.73 246.09 13.66 248.32 C 12.39 253.08 10.42 258.08 11.81 263.05 C 12.65 266.78 15.92 269.11 18.59 271.53 C 18.19 272.70 17.80 273.87 17.40 275.05 C 16.17 273.49 14.94 271.93 13.73 270.36 C 13.26 270.52 12.31 270.84 11.84 271.00 C 13.02 273.60 14.37 276.12 15.94 278.51 C 17.96 276.57 19.89 274.55 21.74 272.45 C 29.26 272.81 36.73 271.86 43.94 269.67 C 49.31 273.29 51.36 279.76 55.88 284.09 C 64.16 285.25 72.21 279.76 80.58 281.53 C 84.33 282.78 87.09 286.11 91.03 286.89 C 99.42 288.01 107.50 284.53 115.82 284.43 C 122.16 284.43 126.91 290.80 133.40 289.53 C 140.78 288.28 147.46 284.65 154.64 282.69 C 159.98 281.24 165.47 280.22 171.01 280.08 C 176.93 279.82 181.85 284.51 187.84 283.77 C 194.40 283.09 201.56 282.28 206.72 277.73 C 208.50 276.54 210.36 274.35 212.74 275.24 C 220.20 277.44 225.34 284.48 233.12 285.89 C 240.58 286.53 247.42 282.88 254.13 280.17 C 261.60 277.04 269.83 280.01 276.64 283.43 C 279.89 284.92 283.72 287.21 287.29 285.29 C 292.35 282.51 295.29 277.20 299.92 273.87 C 300.75 273.11 301.70 272.89 302.78 273.21 C 308.38 274.68 312.34 279.70 318.02 280.94 C 322.34 280.97 323.83 275.98 326.42 273.34 C 327.37 271.42 329.72 272.10 331.28 272.76 C 338.82 275.98 344.89 282.49 353.24 283.81 C 357.09 284.50 362.08 284.02 364.02 280.09 C 366.63 274.21 363.92 267.75 364.73 261.64 C 367.13 256.69 373.45 254.65 375.15 249.17 C 376.81 243.49 376.66 237.15 374.42 231.65 C 371.81 225.58 365.47 222.42 362.02 216.96 C 360.69 215.09 362.05 212.85 362.49 210.91 C 363.24 208.37 364.19 205.78 363.99 203.09 C 363.61 201.09 362.34 199.43 361.33 197.71 C 368.50 199.85 375.36 202.89 382.00 206.31 L 382.00 294.00 L 0.00 294.00 L 0.00 192.57 Z" />
</g>
<g id="#4b8b7aca">
<path fill="#4b8b7a" opacity="0.79" d=" M 177.91 228.91 C 179.00 227.71 180.68 227.44 182.14 228.10 C 181.03 229.27 179.37 229.58 177.91 228.91 Z" />
</g>
</svg>
