<?xml version="1.0" encoding="UTF-8" ?>
<!DOCTYPE svg PUBLIC "-//W3C//DTD SVG 1.1//EN" "http://www.w3.org/Graphics/SVG/1.1/DTD/svg11.dtd">
<svg width="283pt" height="589pt" viewBox="0 0 283 589" version="1.1" xmlns="http://www.w3.org/2000/svg">
<g id="#1d1d1bff">
<path fill="#1d1d1b" opacity="1.00" d=" M 121.88 1.71 C 123.91 1.53 126.58 1.23 127.54 3.55 C 129.60 9.00 130.13 15.26 127.94 20.77 C 126.73 20.11 124.98 19.85 124.90 18.15 C 123.69 12.70 124.99 6.70 121.88 1.71 Z" />
<path fill="#1d1d1b" opacity="1.00" d=" M 79.74 10.87 C 83.93 12.57 87.21 15.89 91.44 17.50 C 94.29 18.86 98.52 19.33 98.69 23.28 C 93.69 24.28 89.21 21.48 85.45 18.56 C 82.97 16.52 80.15 14.29 79.74 10.87 Z" />
<path fill="#1d1d1b" opacity="1.00" d=" M 155.18 20.18 C 157.36 17.32 159.35 13.41 163.48 13.41 C 163.00 18.31 159.69 22.17 157.15 26.18 C 155.95 28.26 153.90 29.55 151.78 30.55 C 149.97 26.59 153.14 23.26 155.18 20.18 Z" />
<path fill="#1d1d1b" opacity="1.00" d=" M 104.68 40.65 C 107.96 33.92 114.46 28.64 122.02 27.76 C 132.22 26.37 144.12 30.38 149.01 39.99 C 151.98 46.07 151.24 53.23 149.48 59.56 C 146.86 67.94 143.35 76.10 138.49 83.44 C 137.62 84.78 137.01 86.27 136.44 87.75 C 138.28 88.83 140.14 89.89 141.95 91.03 C 140.43 94.39 142.09 97.49 143.67 100.44 C 142.34 101.87 140.89 103.29 140.29 105.21 C 139.04 109.28 134.18 110.62 132.76 114.63 C 130.65 119.53 124.92 123.02 119.61 121.44 C 116.93 120.68 115.72 117.95 114.34 115.80 C 111.93 115.30 108.24 115.30 108.08 112.03 C 108.75 110.50 110.35 109.69 111.58 108.65 C 109.31 108.24 107.10 107.58 104.93 106.79 C 105.35 105.14 105.89 103.51 106.23 101.84 C 106.12 99.72 104.65 97.29 106.32 95.43 C 107.85 93.87 109.92 93.03 111.79 91.97 C 112.11 83.82 105.32 78.26 103.02 70.94 C 99.69 61.16 100.08 49.96 104.68 40.65 M 117.12 33.03 C 110.72 35.96 106.64 42.47 105.24 49.19 C 103.15 59.85 105.15 71.51 111.66 80.34 C 113.96 83.46 114.75 87.33 115.25 91.10 C 120.45 90.04 125.69 89.27 130.98 88.92 C 129.89 83.13 130.46 77.19 129.65 71.37 C 128.84 70.09 127.34 69.47 126.21 68.52 C 126.85 65.82 127.59 62.88 130.38 61.64 C 130.86 64.12 131.10 66.65 131.91 69.05 C 133.47 73.44 133.01 78.19 134.02 82.70 C 135.99 79.99 137.53 77.00 139.11 74.05 C 143.07 66.57 147.22 58.68 147.29 49.99 C 147.44 45.17 146.10 39.95 142.26 36.74 C 135.47 31.01 125.26 29.32 117.12 33.03 M 121.10 93.33 C 116.80 93.93 112.67 95.33 108.49 96.46 C 108.37 96.91 108.12 97.80 108.00 98.25 C 109.46 98.60 110.91 98.96 112.37 99.33 C 111.23 101.36 109.93 103.29 108.72 105.27 C 111.57 105.18 114.40 104.87 117.24 104.64 C 115.72 107.04 114.42 109.56 113.16 112.10 C 116.46 112.21 119.76 112.37 123.06 112.35 C 127.40 112.61 130.67 109.29 134.25 107.36 C 132.36 107.09 130.44 106.92 128.59 106.45 C 127.91 104.50 130.49 103.69 131.61 102.58 C 134.32 101.80 137.04 100.98 139.43 99.42 C 138.21 97.93 136.98 96.47 135.77 94.98 C 136.35 94.07 136.93 93.17 137.53 92.27 C 132.07 92.84 126.54 92.48 121.10 93.33 M 117.75 116.39 C 118.91 117.15 120.00 118.07 121.32 118.53 C 123.58 118.73 125.60 117.39 127.59 116.51 C 124.31 116.78 121.02 116.76 117.75 116.39 Z" />
<path fill="#1d1d1b" opacity="1.00" d=" M 70.15 44.31 C 76.04 43.70 82.10 42.32 87.95 43.96 C 86.18 47.75 81.71 48.09 78.05 48.09 C 74.08 48.02 69.87 48.53 66.14 46.85 C 65.75 44.51 68.62 44.76 70.15 44.31 Z" />
<path fill="#1d1d1b" opacity="1.00" d=" M 166.23 44.11 C 171.68 43.59 177.25 42.53 182.65 43.96 C 181.69 45.60 180.32 47.03 178.38 47.36 C 173.33 48.52 168.08 48.00 162.97 47.67 C 161.35 47.71 160.04 46.74 158.72 45.94 C 161.10 44.90 163.65 44.36 166.23 44.11 Z" />
<path fill="#1d1d1b" opacity="1.00" d=" M 114.54 60.45 C 118.50 59.65 122.57 59.40 126.60 59.09 C 123.56 63.13 117.84 61.78 113.49 61.76 C 113.75 61.43 114.28 60.78 114.54 60.45 Z" />
<path fill="#1d1d1b" opacity="1.00" d=" M 74.12 67.51 C 79.50 67.75 84.01 64.47 89.08 63.38 C 90.66 63.30 94.14 63.37 92.89 65.78 C 91.27 67.85 88.51 68.35 86.18 69.22 C 82.34 70.29 78.37 72.42 74.35 70.90 C 74.26 69.77 74.18 68.64 74.12 67.51 Z" />
<path fill="#1d1d1b" opacity="1.00" d=" M 111.51 62.74 C 113.16 63.19 115.33 62.86 116.44 64.43 C 116.82 66.52 115.90 68.63 116.32 70.74 C 117.24 76.35 119.19 81.94 118.21 87.70 C 116.86 86.91 116.14 85.55 116.02 84.02 C 115.23 78.92 114.58 73.80 113.79 68.70 C 112.93 68.60 112.07 68.51 111.21 68.41 C 111.36 66.52 111.47 64.63 111.51 62.74 Z" />
<path fill="#1d1d1b" opacity="1.00" d=" M 153.69 66.96 C 158.99 67.02 163.70 69.71 168.56 71.49 C 170.47 72.12 172.79 73.85 171.18 76.02 C 167.75 76.60 164.53 74.86 161.50 73.51 C 158.42 71.99 155.16 70.25 153.69 66.96 Z" />
<path fill="#1d1d1b" opacity="1.00" d=" M 163.60 122.58 C 166.55 121.98 169.50 120.79 172.55 121.15 C 173.16 122.03 173.74 122.93 174.30 123.85 C 170.93 126.09 167.22 128.44 163.01 128.29 C 158.82 128.16 154.72 129.13 150.61 129.77 C 136.46 132.17 122.11 133.56 108.21 137.23 C 94.33 140.39 80.66 146.31 70.40 156.41 C 68.58 158.12 67.22 160.23 65.97 162.37 C 63.27 160.24 60.67 157.98 58.07 155.73 C 57.58 161.48 57.20 167.33 59.01 172.90 C 55.96 174.03 52.63 173.80 49.46 174.33 C 53.27 176.43 59.30 176.30 60.80 181.12 C 53.80 182.06 46.90 179.64 41.12 175.83 C 41.10 175.15 41.06 173.79 41.03 173.11 C 45.41 170.56 50.47 169.75 55.48 169.86 C 55.69 163.10 54.74 156.36 55.14 149.60 C 59.84 150.69 62.82 154.79 66.13 157.96 C 75.75 145.67 90.07 137.91 105.01 134.07 C 124.16 128.44 144.25 127.28 163.60 122.58 Z" />
<path fill="#1d1d1b" opacity="1.00" d=" M 166.56 129.54 C 168.94 127.53 172.16 125.40 175.41 126.29 C 175.45 126.63 175.53 127.32 175.57 127.67 C 172.02 129.90 168.12 131.85 165.93 135.63 C 170.93 136.20 175.95 136.83 180.81 138.22 C 193.13 141.64 205.72 144.58 217.17 150.44 C 216.55 151.66 216.33 153.47 214.63 153.59 C 207.07 155.09 199.38 156.63 192.58 160.45 C 187.67 162.66 183.49 166.45 178.18 167.74 C 179.28 163.50 183.15 160.94 186.49 158.52 C 192.40 154.34 199.53 152.69 206.31 150.51 C 195.17 145.78 183.39 142.70 171.76 139.48 C 168.72 137.99 164.84 141.14 162.39 138.55 C 161.53 134.99 164.18 131.85 166.56 129.54 Z" />
<path fill="#1d1d1b" opacity="1.00" d=" M 185.13 165.53 C 188.28 163.22 191.61 165.88 194.10 167.89 C 197.99 171.33 201.48 175.20 205.34 178.69 C 208.18 181.50 211.67 183.91 213.23 187.74 C 208.60 189.42 203.62 189.44 198.79 190.10 C 201.03 193.60 203.67 196.81 206.12 200.16 C 203.51 203.29 200.16 205.70 196.41 207.27 C 200.48 215.00 199.76 224.23 197.42 232.37 C 195.03 240.48 190.14 248.46 182.30 252.22 C 179.29 253.78 176.04 252.42 173.39 250.82 C 175.54 247.09 180.62 248.32 183.61 245.70 C 189.16 241.29 191.94 234.33 193.54 227.62 C 194.68 221.70 195.30 215.12 192.49 209.56 C 190.91 206.20 186.37 205.52 183.42 207.39 C 179.27 209.88 177.72 214.83 176.32 219.17 C 178.92 218.45 181.58 216.54 184.36 217.46 C 187.04 219.00 186.62 222.61 185.32 224.94 C 184.34 223.67 183.41 222.38 182.49 221.08 C 181.10 221.77 179.71 222.45 178.31 223.13 C 180.75 227.25 184.18 231.59 183.19 236.69 C 179.84 234.56 178.44 230.69 176.55 227.39 C 174.07 222.81 173.47 217.19 175.20 212.24 C 175.88 210.17 176.88 208.20 177.37 206.06 C 176.17 203.87 174.13 202.34 172.29 200.71 C 167.23 196.41 162.29 191.95 156.85 188.12 C 155.33 187.15 154.29 185.67 153.73 183.97 C 158.55 184.75 162.45 187.91 166.23 190.78 C 171.18 194.77 176.10 198.81 180.82 203.07 C 185.15 201.23 189.99 201.48 194.01 203.98 C 196.46 202.69 198.89 201.36 201.24 199.91 C 199.48 197.16 197.70 194.44 196.06 191.62 C 194.32 191.66 192.58 191.71 190.84 191.74 C 190.72 190.07 190.60 188.40 190.49 186.74 C 195.29 185.33 200.26 184.74 205.25 184.55 C 198.85 177.92 193.02 170.49 185.13 165.53 Z" />
<path fill="#1d1d1b" opacity="1.00" d=" M 88.94 185.51 C 96.70 177.18 106.53 170.30 117.61 167.40 C 116.35 172.26 114.38 177.70 109.76 180.33 C 109.90 177.68 110.66 175.14 111.58 172.67 C 104.36 175.94 97.49 180.21 92.06 186.04 C 89.84 188.48 88.28 191.53 85.56 193.50 C 85.15 190.44 85.05 187.37 84.84 184.30 C 79.21 190.94 75.39 198.90 72.61 207.10 C 74.80 208.73 77.32 210.27 78.40 212.91 C 76.66 214.43 74.97 212.21 73.32 211.62 C 69.63 209.23 65.16 211.71 62.38 214.39 C 57.95 218.72 54.28 224.63 54.45 231.01 C 54.48 235.00 57.36 238.51 61.03 239.83 C 64.84 241.18 68.94 241.19 72.93 241.35 C 72.98 236.69 72.74 232.01 73.15 227.37 C 73.62 226.92 74.55 226.01 75.02 225.56 C 75.66 230.56 75.33 235.64 76.13 240.61 C 77.33 241.74 78.76 242.57 80.08 243.55 C 78.88 244.39 77.66 245.22 76.44 246.05 C 78.02 256.96 80.36 268.59 88.04 276.99 C 94.86 284.69 104.99 288.75 115.11 289.57 C 124.69 290.53 134.60 288.75 143.04 284.04 C 157.05 276.26 167.02 261.19 167.75 245.07 C 168.12 240.28 167.04 235.50 167.62 230.72 C 168.29 230.97 169.63 231.46 170.30 231.71 C 173.32 239.81 173.63 248.79 171.00 257.04 C 166.49 272.03 154.72 284.30 140.41 290.38 C 140.31 293.74 139.66 297.17 140.52 300.49 C 141.23 303.73 142.92 306.62 144.38 309.57 C 147.04 309.31 149.72 309.19 152.38 309.45 C 156.40 321.51 153.93 334.30 151.66 346.44 C 150.09 353.94 149.79 361.64 147.99 369.10 C 146.02 367.27 143.85 365.69 141.44 364.50 C 134.97 361.21 132.51 353.88 129.70 347.71 C 126.34 349.83 123.91 352.97 121.44 356.01 C 119.73 353.33 117.76 350.83 115.57 348.53 C 110.74 353.08 108.87 360.42 102.84 363.63 C 103.63 355.72 109.98 350.06 114.32 343.88 C 116.96 345.59 119.16 347.84 121.17 350.24 C 123.57 347.70 126.17 345.36 128.62 342.86 C 112.70 342.34 98.70 329.62 94.64 314.54 C 92.67 315.86 90.88 317.42 89.18 319.08 C 90.15 329.29 95.41 338.24 99.67 347.34 C 101.53 351.27 104.45 355.17 103.44 359.78 C 99.64 358.11 98.00 354.15 96.42 350.63 C 92.68 341.95 88.19 333.53 86.01 324.28 C 78.59 326.61 70.92 327.95 63.28 329.34 C 59.57 329.88 55.31 330.66 52.13 328.09 C 63.57 327.64 74.30 323.46 85.33 320.81 C 85.83 317.97 86.23 314.66 88.85 312.92 C 91.91 310.35 96.12 310.13 99.73 311.56 C 102.19 305.10 102.89 298.20 102.62 291.33 C 95.21 288.43 88.09 284.19 83.25 277.73 C 76.31 268.73 74.43 257.16 73.15 246.17 C 67.89 246.09 62.35 245.97 57.69 243.20 C 52.58 240.59 49.74 234.67 50.31 229.05 C 50.65 222.79 54.28 217.42 58.29 212.86 C 55.90 202.82 57.09 192.33 58.38 182.23 C 58.85 182.02 59.78 181.60 60.25 181.39 C 60.68 190.99 59.14 200.65 60.92 210.18 C 63.98 208.75 67.14 207.51 70.39 206.55 C 72.22 198.37 75.92 190.69 80.95 184.00 C 83.17 181.19 85.26 177.96 88.71 176.55 C 88.98 179.52 88.96 182.52 88.94 185.51 M 105.43 292.27 C 106.46 300.46 106.95 310.98 99.65 316.57 C 99.21 315.60 98.32 313.68 97.88 312.72 C 98.42 315.13 98.08 319.15 101.43 319.34 C 106.54 320.34 111.72 320.96 116.83 322.02 C 124.97 323.64 133.58 323.39 141.41 320.50 C 143.10 318.98 143.74 316.43 143.30 314.25 C 141.22 311.43 138.49 308.99 137.40 305.57 C 135.62 301.17 136.24 296.36 137.01 291.82 C 126.78 295.08 115.76 295.01 105.43 292.27 M 146.74 311.52 C 147.50 312.80 148.32 314.05 149.16 315.29 C 143.00 324.44 139.31 335.04 132.78 343.99 C 135.19 351.09 138.76 358.19 145.40 362.21 C 146.86 350.78 149.62 339.55 150.77 328.08 C 151.06 323.57 151.33 318.96 150.35 314.52 C 150.10 312.70 148.10 312.26 146.74 311.52 M 102.13 322.58 C 105.36 327.68 110.12 331.67 115.31 334.67 C 120.07 337.44 125.56 338.30 130.89 339.28 C 133.75 334.81 136.60 330.32 139.09 325.63 C 126.75 329.26 114.19 325.31 102.13 322.58 Z" />
<path fill="#1d1d1b" opacity="1.00" d=" M 120.61 175.57 C 131.24 172.86 142.33 174.01 153.08 175.29 C 159.66 176.14 166.31 176.20 172.89 177.01 C 172.89 177.71 172.89 179.11 172.89 179.80 C 167.44 181.05 162.35 183.94 156.64 183.84 C 157.23 181.99 158.46 180.51 159.81 179.17 C 149.89 178.35 140.02 176.44 130.02 176.73 C 125.78 176.88 121.64 177.91 117.41 178.15 C 117.92 176.70 119.08 175.76 120.61 175.57 Z" />
<path fill="#1d1d1b" opacity="1.00" d=" M 143.15 193.66 C 153.24 193.02 160.62 202.69 161.34 211.99 C 161.64 216.41 161.34 222.01 157.14 224.61 C 156.76 217.94 158.00 211.08 155.64 204.65 C 154.44 211.18 152.73 219.09 146.36 222.50 C 140.36 215.36 140.78 204.89 145.00 196.99 C 144.38 195.88 143.76 194.78 143.15 193.66 M 145.09 209.47 C 147.24 208.19 149.40 206.76 150.82 204.65 C 151.23 202.84 151.34 200.97 151.53 199.13 C 150.82 198.66 149.39 197.72 148.67 197.25 C 146.01 200.76 144.99 205.12 145.09 209.47 Z" />
<path fill="#1d1d1b" opacity="1.00" d=" M 95.08 196.23 C 98.65 194.32 102.71 195.82 106.30 196.85 C 109.56 201.30 108.73 207.23 108.26 212.38 C 108.01 216.56 106.57 220.59 104.23 224.05 C 95.99 219.70 94.15 208.50 97.85 200.55 C 98.50 200.55 99.80 200.55 100.45 200.54 C 99.77 204.22 99.63 207.98 99.93 211.71 C 101.59 209.94 103.29 208.14 104.39 205.96 C 104.52 203.39 104.15 200.83 103.97 198.28 C 98.71 199.41 92.81 200.86 89.82 205.82 C 86.06 210.61 87.51 217.09 85.08 222.37 C 83.12 220.08 81.53 217.20 82.09 214.09 C 83.19 206.50 88.27 199.68 95.08 196.23 Z" />
<path fill="#1d1d1b" opacity="1.00" d=" M 132.84 217.65 C 136.18 219.07 138.09 222.21 139.08 225.57 C 135.56 224.91 130.65 221.76 132.84 217.65 Z" />
<path fill="#1d1d1b" opacity="1.00" d=" M 58.74 225.27 C 60.67 222.36 63.16 219.00 67.01 218.91 C 71.10 218.59 74.82 220.99 76.92 224.39 C 74.84 225.35 72.53 226.15 71.05 228.00 C 68.69 230.78 68.25 234.53 66.71 237.73 C 64.45 238.34 64.45 235.53 64.39 234.02 C 64.92 229.38 68.65 226.18 71.67 223.01 C 70.17 222.65 68.67 222.20 67.13 222.10 C 64.09 222.53 62.07 226.16 58.74 225.27 Z" />
<path fill="#1d1d1b" opacity="1.00" d=" M 128.43 230.42 C 132.37 229.41 135.94 227.37 139.70 225.87 C 139.76 227.53 139.82 229.20 139.91 230.87 C 135.33 234.70 129.09 236.07 123.25 235.85 C 120.52 234.62 118.38 232.38 116.17 230.41 C 120.25 230.37 124.41 231.61 128.43 230.42 Z" />
<path fill="#1d1d1b" opacity="1.00" d=" M 123.23 257.20 C 131.40 256.55 139.12 253.04 147.37 253.15 C 145.38 257.06 140.73 258.02 136.85 258.96 C 129.29 260.30 121.62 261.13 113.93 261.11 C 112.60 265.01 111.90 269.47 114.67 272.93 C 120.88 270.19 127.44 268.27 134.13 267.11 C 135.53 266.77 136.83 267.54 138.10 268.01 C 141.00 265.51 143.40 262.30 147.01 260.76 C 146.66 266.20 142.71 270.51 138.34 273.34 C 132.65 276.96 125.72 278.99 118.97 278.08 C 115.53 277.60 112.12 275.53 110.88 272.18 C 109.41 268.52 110.40 264.55 111.29 260.90 C 110.11 259.83 108.94 258.75 107.80 257.65 C 112.94 257.36 118.12 258.02 123.23 257.20 M 119.83 274.98 C 125.39 274.76 131.05 273.37 135.56 269.97 C 130.28 271.52 125.02 273.16 119.83 274.98 Z" />
<path fill="#1d1d1b" opacity="1.00" d=" M 27.90 285.88 C 30.87 281.74 37.85 280.50 41.32 284.67 C 44.69 288.73 45.72 294.14 46.67 299.19 C 47.79 308.92 48.63 318.72 48.47 328.52 C 49.44 328.03 50.41 327.54 51.39 327.06 C 52.29 328.96 53.66 330.59 55.78 331.10 C 61.86 333.19 66.46 338.22 69.18 343.92 C 72.72 351.11 74.53 359.39 73.23 367.37 C 72.49 372.18 69.09 375.89 67.31 380.30 C 65.52 384.49 62.78 388.23 59.45 391.34 C 60.99 395.57 61.43 400.07 62.50 404.42 C 64.73 413.97 67.93 423.26 70.17 432.81 C 72.64 442.03 74.89 451.49 74.37 461.12 C 73.58 461.04 71.98 460.87 71.18 460.79 C 70.47 437.75 58.92 416.64 58.27 393.62 C 57.17 393.10 56.07 392.60 54.98 392.10 C 57.22 388.98 59.73 386.08 62.18 383.14 C 64.98 380.02 65.20 375.62 67.20 372.07 C 70.74 365.57 70.21 357.72 68.14 350.85 C 65.58 342.50 59.65 334.55 50.87 332.23 C 46.11 338.02 40.38 343.25 37.13 350.11 C 36.56 351.92 35.00 354.53 37.00 355.96 C 40.36 358.72 45.26 360.36 49.41 358.40 C 52.80 356.78 55.52 353.99 59.15 352.83 C 58.62 355.16 57.60 357.35 56.32 359.36 C 58.94 364.62 58.12 370.77 56.11 376.09 C 52.53 383.48 44.36 386.62 37.15 389.35 C 38.32 395.21 36.98 401.13 36.90 407.03 C 35.18 424.94 31.83 442.64 29.61 460.49 C 28.83 464.85 30.60 469.05 31.75 473.17 C 34.59 482.68 41.79 489.87 48.36 496.94 C 54.77 495.80 59.39 490.08 63.01 485.01 C 67.91 478.24 69.78 470.04 72.04 462.15 C 72.57 462.42 73.62 462.95 74.15 463.21 C 76.25 474.72 68.21 484.53 61.62 493.02 C 63.99 491.62 66.26 489.84 69.11 489.57 C 67.61 492.23 65.44 494.40 63.22 496.48 C 68.37 501.55 75.11 504.70 82.23 505.79 C 86.88 506.40 91.88 508.77 96.43 506.59 C 104.33 503.12 111.95 499.05 119.89 495.66 C 119.79 462.74 120.93 429.83 121.53 396.91 C 121.44 394.95 122.01 393.07 122.96 391.37 C 124.65 395.37 123.87 399.79 124.04 404.00 C 124.37 424.67 123.56 445.33 123.38 465.99 C 123.04 475.30 123.98 484.63 123.27 493.93 C 126.92 492.34 130.70 490.80 134.77 490.92 C 132.34 495.94 125.95 496.01 121.70 498.75 C 120.83 500.69 120.45 502.80 119.89 504.85 C 129.07 505.86 137.99 510.14 147.38 508.27 C 159.93 505.16 170.21 494.75 183.66 495.03 C 182.23 497.71 179.21 498.60 176.69 499.94 C 177.11 504.37 176.02 509.45 172.04 512.03 C 164.74 517.12 155.37 515.82 146.98 516.08 C 138.37 516.63 129.72 516.61 121.11 515.96 C 119.88 515.89 119.04 515.25 118.59 514.05 C 133.56 512.47 148.67 514.49 163.61 512.27 C 163.17 510.35 162.77 508.40 162.70 506.43 C 164.31 507.97 165.61 509.79 166.88 511.62 C 169.44 510.09 171.64 508.09 173.39 505.68 C 172.76 505.70 171.49 505.74 170.86 505.76 C 171.90 504.30 172.94 502.83 173.89 501.31 C 163.46 504.75 154.30 512.22 142.97 512.64 C 137.44 513.39 132.04 509.75 126.60 511.77 C 122.79 513.10 118.83 514.01 114.83 514.55 C 98.98 513.51 83.17 516.75 67.32 516.12 C 67.26 512.42 67.52 508.70 68.62 505.15 C 64.71 502.60 61.04 499.57 58.57 495.55 C 54.96 497.87 50.90 500.28 46.43 499.78 C 42.15 495.29 37.22 491.26 34.24 485.71 C 30.83 480.67 29.95 474.23 25.51 469.88 C 25.20 456.71 28.62 443.85 30.81 430.95 C 32.62 419.04 35.02 407.15 35.25 395.07 C 32.77 393.90 28.65 394.09 28.14 390.71 C 30.65 390.88 33.14 391.21 35.62 391.61 C 35.61 391.25 35.59 390.54 35.58 390.18 C 31.75 390.34 27.91 390.46 24.08 390.19 C 19.18 402.50 10.46 412.73 5.02 424.75 C 11.99 427.63 19.17 429.97 26.13 432.85 C 27.83 433.40 29.08 434.66 29.75 436.31 C 19.37 435.67 9.87 430.97 0.56 426.76 C 1.32 424.02 2.48 421.40 3.92 418.96 C 9.55 409.16 16.86 400.35 21.41 389.94 C 17.75 382.33 18.05 373.47 20.10 365.44 C 16.91 363.41 13.85 361.12 11.35 358.26 C 14.43 353.80 17.87 349.56 22.02 346.05 C 20.20 344.96 18.39 343.84 16.61 342.69 C 18.91 336.96 22.58 331.93 25.95 326.80 C 27.47 327.13 28.99 327.49 30.51 327.83 C 27.51 318.51 25.28 308.84 25.00 299.02 C 25.08 294.55 25.05 289.60 27.90 285.88 M 28.11 294.02 C 27.23 304.68 30.02 315.19 32.50 325.47 C 33.32 331.03 38.78 333.63 41.57 338.06 C 43.03 335.90 45.82 333.97 45.21 331.06 C 43.32 317.91 45.41 304.28 41.49 291.41 C 40.54 288.59 38.52 285.05 35.03 285.46 C 30.68 285.62 28.41 290.19 28.11 294.02 M 27.48 330.86 C 25.53 334.26 23.53 337.64 21.62 341.06 C 25.48 343.81 29.31 346.59 33.19 349.30 C 35.32 346.08 37.48 342.87 39.81 339.78 C 35.90 336.55 32.03 333.15 27.48 330.86 M 24.30 347.80 C 21.51 351.29 18.49 354.59 15.69 358.07 C 22.26 363.41 30.40 367.30 39.01 367.30 C 43.60 367.40 47.92 365.66 52.42 365.05 C 51.98 366.84 51.26 368.73 49.36 369.41 C 40.86 373.21 31.23 370.59 23.07 367.17 C 22.60 370.36 22.26 373.57 22.05 376.80 C 28.89 377.74 35.91 379.05 42.77 377.51 C 46.26 376.70 50.19 375.41 51.94 372.00 C 53.49 368.80 53.27 365.13 53.66 361.68 C 46.29 365.13 37.36 362.69 32.17 356.61 C 31.22 355.00 31.92 352.99 31.80 351.22 C 29.24 350.21 26.76 349.03 24.30 347.80 M 22.30 381.38 C 21.47 382.17 21.29 384.38 22.74 384.59 C 24.48 384.27 24.36 380.09 22.30 381.38 M 26.04 381.66 C 25.76 383.43 25.47 385.20 25.18 386.98 C 31.61 387.05 37.88 385.21 43.51 382.18 C 37.68 382.24 31.85 382.26 26.04 381.66 M 100.14 508.12 C 98.27 508.77 96.55 509.77 95.12 511.15 C 101.26 511.53 107.36 510.41 113.45 509.86 C 113.51 507.92 113.58 505.99 113.67 504.06 C 114.75 504.19 115.83 504.33 116.91 504.49 C 117.33 503.03 117.77 501.57 118.19 500.12 C 112.14 502.71 106.32 505.82 100.14 508.12 M 69.83 513.39 C 72.25 513.26 74.66 513.06 77.07 512.77 C 76.63 511.32 76.34 509.81 75.58 508.49 C 74.04 507.54 72.35 506.88 70.71 506.16 C 70.21 508.54 69.98 510.96 69.83 513.39 M 115.41 508.21 C 117.63 511.65 122.99 511.02 126.29 509.38 C 122.71 508.62 119.06 508.28 115.41 508.21 M 78.96 509.40 C 79.28 510.62 79.61 511.84 79.96 513.06 C 84.56 512.73 89.23 512.63 93.71 511.39 C 88.81 510.59 83.83 510.41 78.96 509.40 Z" />
<path fill="#1d1d1b" opacity="1.00" d=" M 155.92 317.26 C 162.72 321.32 170.80 322.04 178.04 324.99 C 180.14 325.75 181.37 327.69 182.52 329.48 C 176.22 329.16 170.54 326.20 164.58 324.47 C 160.93 323.18 156.31 322.18 154.74 318.14 C 155.04 317.92 155.63 317.48 155.92 317.26 Z" />
<path fill="#1d1d1b" opacity="1.00" d=" M 183.43 328.62 C 186.82 328.83 190.16 329.96 192.73 332.24 C 197.66 336.41 201.02 342.03 204.80 347.20 C 213.84 361.29 220.74 376.60 228.52 391.39 C 231.09 396.70 234.34 401.69 236.28 407.28 C 230.69 408.03 225.59 410.62 220.20 412.13 C 222.90 416.71 225.41 421.65 225.64 427.08 C 225.56 429.81 227.68 431.77 229.07 433.90 C 237.27 445.20 241.80 458.68 244.82 472.19 C 246.85 481.11 249.28 489.93 251.32 498.85 C 252.44 503.08 251.52 507.96 254.34 511.64 C 258.82 518.04 265.41 522.80 269.21 529.73 C 275.40 540.92 278.35 553.62 279.90 566.22 C 280.35 570.20 282.21 573.94 282.02 578.00 C 282.03 581.63 280.66 585.04 279.08 588.25 C 272.75 586.17 266.27 584.64 259.82 583.03 C 251.05 579.31 251.57 567.67 244.23 562.58 C 243.64 567.06 242.97 571.55 241.48 575.83 C 238.74 575.54 235.80 575.23 233.62 573.38 C 228.67 569.53 228.14 562.55 223.57 558.40 C 221.39 556.59 222.15 553.55 222.31 551.10 C 223.51 542.87 225.70 534.83 227.80 526.79 C 228.43 522.84 229.94 517.66 226.14 514.81 C 220.50 509.60 216.05 503.21 212.84 496.25 C 204.92 480.34 201.53 462.74 197.49 445.57 C 197.13 442.99 194.65 441.71 193.13 439.86 C 189.40 435.54 188.15 429.80 187.01 424.37 C 186.11 424.07 184.33 423.49 183.43 423.19 C 189.95 418.47 197.85 416.16 205.28 413.25 C 213.83 410.32 222.32 407.16 230.97 404.51 C 221.91 386.81 213.66 368.65 203.43 351.57 C 198.47 344.18 194.16 335.63 186.03 331.21 C 182.00 342.61 176.71 353.55 173.12 365.12 C 172.20 367.53 171.91 370.71 169.06 371.66 C 169.46 356.09 179.81 343.35 183.43 328.62 M 188.95 422.81 C 190.20 427.76 192.27 432.46 195.09 436.73 C 196.06 436.51 197.03 436.30 198.00 436.10 C 199.66 439.65 200.92 443.37 201.74 447.21 C 203.56 455.54 205.84 463.77 207.96 472.02 C 211.40 484.67 216.75 496.85 224.57 507.41 C 226.82 511.14 230.95 514.20 230.85 518.93 C 231.63 531.45 224.45 543.24 226.09 555.80 C 228.32 559.95 230.47 564.15 232.72 568.30 C 233.99 570.81 236.64 571.95 239.13 572.92 C 240.56 567.67 240.55 562.22 240.99 556.85 C 242.49 558.42 243.76 560.32 245.81 561.25 C 252.99 564.66 253.12 574.20 259.13 578.87 C 264.35 583.16 271.46 582.64 277.71 584.12 C 279.87 576.55 276.36 569.16 275.31 561.73 C 272.99 550.11 271.22 537.73 264.11 527.89 C 259.47 521.60 252.52 516.80 249.97 509.13 C 245.38 493.81 243.16 477.89 238.52 462.57 C 235.49 452.72 231.05 443.29 225.23 434.77 C 222.99 431.64 220.54 428.65 218.60 425.32 C 219.49 425.12 221.28 424.73 222.18 424.53 C 221.17 420.52 219.61 416.67 217.89 412.92 C 208.21 416.12 198.39 418.94 188.95 422.81 Z" />
<path fill="#1d1d1b" opacity="1.00" d=" M 117.71 364.06 C 120.33 363.60 122.98 362.98 125.65 363.27 C 127.61 363.28 127.27 365.67 127.42 366.98 C 127.49 370.05 127.44 373.73 124.89 375.89 C 121.87 378.10 117.88 377.39 114.40 377.36 C 113.79 372.95 116.37 369.30 119.69 366.74 C 119.01 365.85 118.36 364.96 117.71 364.06 M 117.89 374.20 C 119.57 373.84 121.41 373.78 122.88 372.77 C 123.55 370.86 123.73 368.83 124.03 366.85 C 121.80 369.14 119.65 371.52 117.89 374.20 Z" />
<path fill="#1d1d1b" opacity="1.00" d=" M 174.23 395.15 C 174.84 395.15 176.06 395.17 176.67 395.18 C 178.14 402.77 180.57 410.23 180.87 418.00 C 181.12 421.43 179.85 424.69 179.17 428.00 C 180.27 431.08 183.04 433.56 183.09 437.04 C 183.49 441.66 178.23 444.35 178.68 448.94 C 178.45 462.60 183.45 475.52 186.26 488.71 C 187.01 492.18 187.62 495.74 187.17 499.30 C 186.06 498.22 184.79 497.20 184.33 495.66 C 182.11 489.76 180.48 483.64 179.29 477.45 C 177.46 467.76 175.13 458.06 175.29 448.13 C 172.12 449.19 168.70 450.41 165.40 449.10 C 168.22 446.74 171.88 445.91 174.96 444.01 C 176.69 441.98 178.20 439.76 179.80 437.63 C 180.20 435.14 178.66 432.93 177.76 430.74 C 174.74 433.22 171.71 436.23 167.49 436.20 C 169.77 431.41 175.77 429.31 176.90 423.82 C 178.94 414.18 174.24 404.79 174.23 395.15 Z" />
</g>
</svg>
