<?xml version="1.0" encoding="utf-8"?>
<!-- Generator: Adobe Illustrator 16.0.0, SVG Export Plug-In . SVG Version: 6.00 Build 0)  -->
<!DOCTYPE svg PUBLIC "-//W3C//DTD SVG 1.1//EN" "http://www.w3.org/Graphics/SVG/1.1/DTD/svg11.dtd">
<svg version="1.1" xmlns="http://www.w3.org/2000/svg" xmlns:xlink="http://www.w3.org/1999/xlink" x="0px" y="0px" width="52px"
	 height="68px" viewBox="0 0 52 68" enable-background="new 0 0 52 68" xml:space="preserve">
<g id="Layer_2">
	
		<path fill="#24B54A" stroke="#000000" stroke-width="4" stroke-linecap="round" stroke-linejoin="round" stroke-miterlimit="10" d="
		M26.996,57.348c0.307-3.832,0.893-8.486,4.199-12.391c5.453-6.441,13.347-11.723,12.492-21.224C42.841,14.295,35.333,8,26,8
		s-14.845,5.947-15.692,15.385c-0.854,9.5,7.039,14.781,12.493,21.225C26.343,48.792,26.458,51.225,27,58"/>
	
		<path fill="#FFFFFF" stroke="#000000" stroke-width="4" stroke-linecap="round" stroke-linejoin="round" stroke-miterlimit="10" d="
		M24.664,17.698c-3.973,0.72-5.466,3.478-5.092,7.638c0.307,3.397,2.05,5.751,5.461,6.346c2.723,0.475,6,0.263,7.469-2.423
		c1.35-2.471,1.982-6.529,0.273-8.8C30.438,17.35,28.01,17.051,24.664,17.698"/>
</g>
<g id="Layer_3">
	
		<path opacity="0" fill="none" stroke="#000000" stroke-width="20" stroke-linecap="round" stroke-linejoin="round" stroke-miterlimit="10" d="
		M16.5,8.5c-4.281,6.586-6.748,14.387-10.166,21.392c1.45-7.253,8.956-19.089,13.963-24.308c1.804,9.769-7.68,18.699-9.983,27.725
		c5.386-7.467,10.588-14.656,15.284-22.6c1.036,12.095-7.147,24.235-12.26,34.648c2.872-11.52,14.344-28.889,21.011-38.367
		c0.424,10.962-7.11,23.461-10.792,33.59c5.822-7.941,11.841-16.989,18.737-23.992c2.226,12.409-9.816,30.604-18.858,38.605
		c-0.325-1.925,0.437-3.056,1.064-4.692"/>
</g>
</svg>
