<?xml version="1.0" encoding="utf-8"?>
<!-- Generator: Adobe Illustrator 14.0.0, SVG Export Plug-In . SVG Version: 6.00 Build 43363)  -->
<!DOCTYPE svg PUBLIC "-//W3C//DTD SVG 1.1//EN" "http://www.w3.org/Graphics/SVG/1.1/DTD/svg11.dtd">
<svg version="1.1" id="Calque_1" xmlns="http://www.w3.org/2000/svg" xmlns:xlink="http://www.w3.org/1999/xlink" x="0px" y="0px"
	 width="500px" height="500px" viewBox="0 0 500 500" enable-background="new 0 0 500 500" xml:space="preserve">
<g>
	<polygon points="164.464,111.933 165.012,114.224 165.233,116.515 165.233,118.663 165.124,120.954 164.903,123.102 
		164.575,125.393 164.355,127.54 164.136,129.688 164.027,131.979 164.027,134.27 162.71,133.697 161.614,133.84 160.627,134.27 
		159.751,135.272 158.982,136.561 158.216,137.849 157.449,139.281 156.681,140.713 155.693,141.858 154.708,142.86 
		155.475,142.717 156.353,142.574 157.338,142.145 158.216,141.858 159.094,141.429 159.97,141.285 160.848,141.285 
		161.723,141.715 162.492,142.574 163.149,143.863 162.162,145.008 160.738,146.297 158.982,147.586 156.901,148.875 
		154.708,149.876 152.404,150.45 150.211,150.306 148.13,149.59 146.265,148.015 144.841,145.295 144.402,145.295 143.963,145.295 
		143.634,145.438 143.306,145.581 142.976,145.724 142.648,145.867 142.319,146.154 141.989,146.44 141.771,146.727 
		141.552,147.156 141.771,148.731 142.209,149.876 142.867,150.735 143.634,151.166 144.402,151.738 145.06,152.167 145.717,152.74 
		146.156,153.599 146.265,154.888 146.156,156.75 146.375,158.325 146.156,159.613 145.608,160.473 144.73,161.331 143.745,161.904 
		142.537,162.477 141.441,163.193 140.345,164.195 139.469,165.34 138.812,166.772 139.03,171.211 139.908,175.792 141.004,180.661 
		142.209,185.53 143.085,190.254 143.524,194.979 143.197,199.275 141.88,203.284 139.139,206.864 134.974,209.728 123.681,220.18 
		123.572,222.471 123.133,224.762 122.694,227.053 122.037,229.343 121.488,231.491 121.049,233.782 120.722,235.93 
		120.722,238.221 121.049,240.369 121.818,242.66 120.831,245.809 120.283,249.103 119.953,252.397 119.953,255.832 
		120.063,259.269 120.283,262.848 120.61,266.428 120.94,269.865 121.159,273.444 121.27,277.023 123.572,278.599 125.874,279.029 
		128.396,278.741 130.807,277.883 133.218,277.023 135.522,276.309 137.715,276.023 139.687,276.738 141.441,278.599 
		142.867,282.035 142.428,283.324 142.209,284.613 142.209,285.9 142.319,287.047 142.428,288.336 142.537,289.48 142.428,290.627 
		142.209,291.916 141.771,293.06 141.004,294.206 139.687,294.491 138.591,295.207 137.824,296.068 137.167,297.069 
		136.507,298.216 135.85,299.36 135.193,300.364 134.206,301.08 133.109,301.65 131.685,301.796 130.478,302.797 129.163,303.655 
		127.737,304.514 126.422,305.375 125.216,306.377 124.12,307.378 123.463,308.667 123.024,310.387 123.133,312.247 
		123.681,314.683 124.777,316.685 125.655,318.978 126.204,321.411 126.64,323.844 126.861,326.422 126.97,329.001 127.079,331.576 
		127.079,334.298 126.97,337.019 126.97,339.739 124.668,343.604 122.366,347.614 120.283,351.337 118.309,355.202 116.336,358.924 
		114.253,362.649 112.169,366.229 109.868,369.663 107.455,373.242 104.825,376.537 104.825,378.827 104.495,381.117 
		103.838,383.411 102.96,385.559 102.193,387.707 101.645,389.854 101.315,391.856 101.536,394.005 102.303,396.01 103.947,398.015 
		103.947,403.026 103.29,403.742 102.742,404.027 102.193,404.027 101.645,403.742 101.097,403.312 100.549,402.741 100,402.168 
		99.453,401.737 98.795,401.595 98.247,401.595 97.808,398.445 96.821,395.437 95.395,392.861 93.75,390.57 92.216,388.277 
		91.01,386.13 90.571,383.839 90.901,381.69 92.436,379.258 95.505,376.537 95.395,375.82 95.395,375.39 95.615,374.819 
		95.834,374.531 96.272,374.246 96.601,373.958 97.04,373.815 97.478,373.53 97.808,373.242 98.247,372.957 99.78,371.811 
		101.206,370.094 102.412,368.088 103.399,365.655 104.386,363.077 105.262,360.501 106.249,357.78 107.127,355.06 108.114,352.48 
		109.21,350.048 110.195,348.331 111.403,346.753 112.718,345.321 113.923,344.035 115.129,342.604 116.116,341.171 
		116.994,339.594 117.651,337.877 117.981,335.872 117.981,333.581 116.336,334.012 114.911,334.871 113.596,335.872 
		112.279,337.304 110.964,338.735 109.647,340.31 108.333,341.888 107.018,343.319 105.591,344.605 103.947,345.752 
		101.645,347.757 99.671,349.905 97.917,352.48 96.492,355.202 95.176,358.208 93.97,361.217 92.874,364.224 91.668,367.229 
		90.353,370.236 88.927,372.957 89.146,374.104 89.146,374.819 89.037,375.535 88.598,376.106 88.16,376.537 87.612,376.822 
		87.063,377.11 86.515,377.538 85.967,377.826 85.638,378.399 84.761,377.538 84.103,376.537 83.774,375.39 83.555,373.958 
		83.445,372.526 83.555,371.095 83.665,369.521 83.884,368.088 83.994,366.656 84.213,365.513 84.871,364.081 85.09,362.935 
		84.98,361.788 84.651,360.644 84.213,359.64 83.884,358.496 83.445,357.35 83.226,356.206 83.335,354.773 83.665,353.342 
		87.94,352.769 91.449,350.906 94.409,347.899 96.821,344.178 99.014,340.024 101.097,335.729 103.29,331.434 105.81,327.854 
		108.771,324.99 112.5,323.273 113.814,321.984 114.471,320.838 114.581,319.693 114.362,318.547 113.814,317.258 113.157,316.114 
		112.388,314.968 111.622,313.821 110.964,312.534 110.525,311.388 109.868,310.099 109.099,309.098 108.223,308.239 
		107.345,307.523 106.469,306.95 105.482,306.377 104.495,306.092 103.508,305.804 102.521,305.518 101.536,305.375 99.123,306.234 
		96.711,306.092 94.409,305.375 92.216,304.229 90.243,302.654 88.488,301.08 87.063,299.503 85.967,298.071 85.309,297.069 
		85.09,296.784 85.967,294.491 86.734,292.059 87.502,289.625 88.16,287.189 88.817,284.613 89.585,282.178 90.462,279.888 
		91.449,277.74 92.654,275.877 94.08,274.16 100.11,259.842 100,256.119 99.453,252.683 98.575,249.534 97.369,246.382 
		96.053,243.376 94.628,240.512 93.203,237.505 91.997,234.498 90.901,231.349 90.243,228.055 88.927,227.053 87.502,226.194 
		86.186,225.621 84.761,225.048 83.226,224.475 81.801,223.902 80.375,223.473 78.95,222.757 77.635,222.042 76.319,221.182 
		73.578,220.752 71.057,219.607 68.535,218.175 66.124,216.314 63.711,214.167 61.409,212.019 58.997,209.871 56.695,207.723 
		54.502,205.718 52.2,204 52.309,202.854 52.2,201.996 51.98,201.137 51.542,200.277 50.994,199.705 50.445,198.989 49.788,198.416 
		49.24,197.986 48.582,197.414 48.034,196.841 47.376,197.414 46.938,197.843 46.608,197.843 46.499,197.557 46.279,197.127 
		45.951,196.411 45.512,195.409 44.635,194.121 43.319,192.689 41.456,191.114 41.456,187.534 41.565,187.677 41.675,187.82 
		41.784,187.963 41.894,188.106 42.004,188.25 42.223,188.25 42.333,188.393 42.552,188.393 42.662,188.393 42.881,188.25 
		43.21,187.391 43.429,186.388 43.319,185.672 42.99,184.813 42.552,183.955 42.114,183.238 41.675,182.379 41.346,181.52 
		41.017,180.661 40.908,179.659 34.33,189.395 33.014,187.534 36.303,168.633 34.768,169.493 33.781,171.068 33.124,172.929 
		32.685,175.077 32.356,177.368 31.917,179.659 31.369,181.95 30.602,183.955 29.396,185.672 27.751,186.818 27.751,186.246 
		27.861,184.956 27.97,183.238 28.19,181.091 28.409,178.8 28.738,176.223 28.958,173.501 29.067,170.925 29.176,168.348 
		29.176,166.057 28.628,166.486 28.3,166.342 28.19,165.626 28.409,164.481 28.738,163.049 29.396,161.474 30.273,159.756 
		31.369,158.038 32.795,156.463 34.33,155.031 34.33,154.602 34.33,154.029 34.33,153.599 34.33,153.026 34.33,152.597 
		34.33,152.024 34.22,151.595 34.11,151.308 33.891,150.879 33.562,150.735 32.795,151.881 31.917,152.883 30.931,153.886 
		29.944,154.745 28.958,155.318 28.19,155.89 27.422,156.034 26.984,156.034 26.765,155.604 26.984,155.031 26.874,154.602 
		26.655,154.315 26.436,154.172 26.217,154.029 25.887,154.029 25.668,154.029 25.339,154.029 25.011,154.029 24.791,154.029 
		24.462,153.886 24.572,151.166 25.12,149.16 25.997,148.015 27.203,147.299 28.519,146.87 29.834,146.44 31.041,145.724 
		31.917,144.579 32.465,142.86 32.465,140.283 29.176,143.863 28.958,142.574 28.848,141.285 28.848,140.14 28.958,138.852 
		29.176,137.563 29.396,136.274 29.725,134.985 30.163,133.697 30.602,132.408 31.041,130.977 31.588,129.831 32.356,129.115 
		33.233,128.398 34.11,127.969 34.987,127.397 35.754,126.967 36.413,126.394 36.741,125.535 36.741,124.533 36.303,123.102 
		37.837,121.956 39.153,120.523 40.359,118.806 41.456,117.087 42.442,115.226 43.539,113.508 44.635,112.076 45.841,110.787 
		47.266,109.928 48.911,109.499 49.021,109.785 46.718,112.792 33.891,131.12 33.671,131.406 33.562,131.692 33.343,132.122 
		33.124,132.408 33.014,132.694 32.904,132.981 32.795,133.268 32.575,133.697 32.465,133.983 32.465,134.27 32.575,134.126 
		32.795,133.983 33.014,133.983 33.124,133.84 33.343,133.84 33.562,133.697 33.671,133.697 33.891,133.554 34.11,133.554 
		34.22,133.41 37.619,144.579 37.289,176.365 37.619,176.223 36.851,178.943 37.619,176.223 55.489,166.772 55.489,170.352 
		56.037,170.352 56.037,166.772 55.489,166.772 37.619,176.223 40.14,167.917 37.619,176.223 37.289,176.365 37.619,144.579 
		38.167,143.863 38.167,141 37.619,144.579 34.22,133.41 34.548,133.268 34.877,133.124 35.207,132.981 35.426,132.694 
		35.645,132.408 35.864,132.122 36.083,131.692 36.193,131.12 36.193,130.546 36.303,129.974 35.974,129.831 35.754,129.974 
		35.426,129.974 35.207,130.117 34.987,130.117 34.768,130.261 34.548,130.546 34.33,130.69 34.11,130.977 33.891,131.12 
		46.718,112.792 48.911,115.226 48.911,112.792 46.718,112.792 49.021,109.785 52.2,114.51 52.857,114.08 53.625,113.794 
		54.392,113.651 55.16,113.508 56.037,113.651 56.804,113.651 57.681,113.938 58.668,114.08 59.655,114.367 60.642,114.51 
		61.957,116.515 62.944,118.519 63.711,120.523 64.149,122.671 64.479,124.819 64.588,127.11 64.479,129.401 64.369,131.692 
		64.149,134.126 63.931,136.704 63.602,136.704 63.382,136.704 63.163,136.847 62.944,136.99 62.834,137.276 62.615,137.42 
		62.505,137.706 62.286,137.992 62.176,138.279 62.066,138.565 62.505,140.713 62.944,142.717 63.273,144.865 63.711,147.013 
		64.041,149.304 64.369,151.451 64.588,153.743 64.698,156.177 64.698,158.611 64.479,161.045 62.066,161.045 61.19,155.031 
		59.436,156.75 58.449,158.897 58.01,161.188 57.791,163.622 57.901,166.057 58.01,168.633 58.01,170.925 57.681,173.072 
		56.914,174.934 55.489,176.509 55.379,176.938 55.379,177.511 55.379,178.084 55.379,178.656 55.379,179.229 55.27,179.802 
		55.27,180.231 55.16,180.661 54.94,181.091 54.612,181.52 53.296,181.52 53.186,180.661 53.296,179.802 53.406,178.943 
		53.516,178.084 53.516,177.368 53.516,176.509 53.406,175.792 53.186,175.077 52.748,174.504 52.2,173.932 50.774,176.079 
		50.117,178.084 50.007,180.088 50.555,181.95 51.323,183.955 52.2,185.815 53.077,187.82 53.844,189.968 54.173,192.116 
		54.063,194.407 55.818,195.552 57.462,197.127 59.107,198.702 60.751,200.42 62.505,201.996 64.149,203.284 66.014,204.43 
		67.877,205.146 69.851,205.289 71.934,204.716 71.934,202.998 72.482,204 71.824,202.138 71.605,200.277 71.605,198.559 
		71.934,196.841 72.482,195.266 73.14,193.69 74.017,192.116 74.784,190.541 75.552,189.109 76.319,187.534 77.635,187.534 
		76.319,191.114 76.757,191.399 77.196,191.686 77.635,191.686 78.073,191.686 78.512,191.686 78.95,191.83 79.279,191.973 
		79.499,192.259 79.608,192.832 79.608,193.69 79.718,194.407 79.718,195.123 79.608,195.695 79.499,196.125 79.169,196.411 
		78.841,196.841 78.402,197.127 77.963,197.414 77.525,197.7 77.087,197.986 77.306,198.273 77.525,198.702 77.854,198.989 
		78.073,199.275 78.402,199.705 78.841,199.848 79.169,200.134 79.608,200.277 80.046,200.42 80.485,200.42 81.034,208.725 
		80.485,208.582 79.938,208.296 79.279,208.009 78.731,207.723 78.183,207.58 77.635,207.58 77.196,207.58 76.648,207.866 
		76.209,208.296 75.771,209.012 77.525,211.445 79.279,212.591 81.034,212.734 82.787,212.019 84.651,211.016 86.406,209.871 
		88.269,208.725 90.133,208.152 92.106,208.152 94.08,209.012 94.08,207.293 92.983,206.004 91.887,205.575 90.901,205.861 
		89.914,206.434 88.927,207.15 87.831,208.152 86.734,208.868 85.528,209.441 84.323,209.584 82.897,209.012 82.897,209.012 
		82.897,209.012 82.897,209.012 82.897,209.012 82.897,209.012 82.787,209.012 82.787,209.012 82.787,209.012 82.787,209.012 
		82.787,209.012 97.369,202.282 108.551,198.702 108.662,199.132 108.88,199.562 109.21,199.991 109.538,200.277 109.868,200.42 
		110.307,200.707 110.634,200.85 110.964,200.993 111.183,201.137 111.403,201.137 109.21,196.125 108.99,196.411 108.88,196.698 
		108.771,196.984 108.662,197.271 108.551,197.557 108.551,197.843 108.551,198.129 108.551,198.273 108.551,198.559 
		108.551,198.702 97.369,202.282 98.795,200.42 96.821,197.986 97.369,202.282 82.787,209.012 82.678,209.012 82.458,209.012 
		82.349,209.012 82.13,209.012 81.911,209.012 81.801,209.012 81.582,208.868 81.472,208.868 81.252,208.868 81.034,208.725 
		80.485,200.42 80.595,200.42 80.814,200.42 81.034,200.42 81.252,200.42 81.362,200.277 81.582,200.277 81.801,200.134 
		81.911,199.991 82.13,199.848 82.349,199.705 84.103,197.843 85.528,195.409 86.406,192.545 87.173,189.395 87.612,186.102 
		88.16,182.809 88.708,179.516 89.475,176.652 90.681,174.075 92.216,172.213 93.75,171.641 95.505,170.495 97.149,169.206 
		98.904,167.774 100.658,166.486 102.303,165.484 103.947,165.197 105.482,165.77 106.797,167.488 108.114,170.352 107.784,172.07 
		107.566,173.501 107.455,174.791 107.455,176.079 107.566,177.225 107.675,178.371 107.784,179.516 108.002,180.661 
		108.333,181.95 108.662,183.238 109.319,182.522 110.086,181.95 110.964,181.807 111.84,181.807 112.608,182.093 113.266,182.522 
		113.705,183.238 113.923,183.955 113.814,184.813 113.266,185.815 113.705,186.531 114.144,187.391 114.692,188.393 
		115.24,189.252 116.007,190.254 116.664,191.114 117.433,191.973 118.199,192.689 119.077,193.261 119.844,193.69 120.283,193.405 
		120.722,193.118 121.159,192.832 121.598,192.545 122.037,192.259 122.366,191.973 122.803,191.543 123.133,191.114 
		123.463,190.684 123.681,190.111 123.572,189.252 123.242,188.536 122.803,187.963 122.366,187.534 121.818,187.104 
		121.379,186.531 121.159,185.959 120.94,185.243 120.94,184.384 121.27,183.238 121.488,182.809 121.707,182.522 122.037,182.093 
		122.366,181.807 122.803,181.664 123.133,181.664 123.572,181.664 123.899,181.807 124.229,182.093 124.559,182.522 
		126.97,187.534 127.737,187.104 128.066,186.675 128.176,186.102 128.176,185.53 127.957,185.1 127.848,184.527 127.627,183.955 
		127.627,183.524 127.848,182.952 128.396,182.522 128.833,183.668 129.272,184.813 129.602,186.246 129.711,187.677 
		129.82,189.252 129.711,190.684 129.602,192.259 129.272,193.69 128.833,194.979 128.396,196.125 127.188,197.843 125.765,199.418 
		124.338,200.707 122.803,201.996 121.27,202.854 119.625,203.57 117.981,204 116.336,204 114.801,203.713 113.266,202.998 
		113.157,202.854 113.047,202.712 112.936,202.568 112.827,202.425 112.718,202.282 112.5,202.282 112.388,202.138 112.279,202.138 
		112.061,202.138 111.951,202.282 111.622,203.141 111.622,204 111.84,204.716 112.169,205.289 112.608,205.861 113.157,206.434 
		113.705,207.007 114.253,207.723 114.801,208.296 115.24,209.012 117.542,208.582 119.953,207.866 122.255,206.864 
		124.559,205.432 126.752,203.857 128.724,201.853 130.589,199.705 132.233,197.271 133.767,194.693 134.974,191.83 
		134.974,190.254 134.974,187.677 134.754,184.24 134.535,180.375 134.206,176.079 133.987,171.497 133.767,167.058 
		133.548,162.763 133.439,158.897 133.548,155.747 134.535,155.318 135.302,154.888 136.071,154.172 136.728,153.313 
		137.276,152.311 137.824,151.308 138.263,150.306 138.812,149.16 139.139,148.159 139.578,147.156 139.469,145.581 138.92,144.292 
		138.152,143.291 137.276,142.145 136.289,141.143 135.302,139.997 134.645,138.708 134.096,137.276 133.987,135.558 
		134.426,133.554 132.561,132.265 131.026,131.406 129.82,130.69 128.833,130.117 128.066,129.831 127.737,129.688 127.848,129.544 
		128.176,129.544 129.054,129.401 130.259,129.258 129.272,128.113 128.066,127.11 126.97,126.251 125.765,125.393 124.668,124.39 
		123.681,123.245 122.915,121.956 122.255,120.381 121.818,118.519 121.818,116.372 121.818,113.794 122.255,113.079 
		122.694,112.935 123.133,113.079 123.572,113.364 123.899,113.938 124.229,114.367 124.668,114.939 124.996,115.083 
		125.326,115.083 125.655,114.51 126.752,112.792 127.188,111.217 127.079,109.785 126.64,108.353 125.983,106.921 125.216,105.633 
		124.448,104.201 123.791,102.625 123.572,100.908 123.681,99.189 124.996,98.903 125.765,98.188 126.313,97.328 126.64,96.182 
		126.861,94.894 126.97,93.605 127.188,92.46 127.518,91.458 128.066,90.742 128.944,90.598 128.944,93.749 137.715,91.314 
		137.715,91.314 137.715,91.458 137.824,91.458 137.824,91.601 137.824,91.601 137.934,91.744 137.934,91.744 138.042,91.887 
		138.042,91.887 138.042,92.03 132.343,96.04 132.013,96.326 131.574,96.469 131.246,96.612 130.917,96.756 130.589,97.042 
		130.259,97.185 129.82,97.328 129.493,97.614 129.272,97.901 128.944,98.044 129.054,98.044 129.272,98.188 129.381,98.188 
		129.602,98.188 129.82,98.044 130.041,98.044 130.15,98.044 130.368,97.901 130.589,97.901 130.807,97.757 129.929,104.201 
		129.711,104.201 129.602,104.344 129.493,104.344 129.493,104.487 129.381,104.487 129.381,104.631 129.493,104.773 
		129.493,104.917 129.602,105.06 129.711,105.203 130.698,110.644 130.259,111.074 129.929,111.646 129.602,112.219 
		129.272,112.792 129.054,113.364 128.833,114.08 128.724,114.796 128.724,115.512 128.724,116.228 128.944,117.087 
		131.574,113.222 133.33,117.087 132.233,118.806 132.343,119.092 132.561,119.378 132.782,119.521 133,119.521 133.218,119.521 
		133.439,119.665 133.657,119.521 133.878,119.521 134.096,119.521 134.426,119.521 129.381,121.956 134.426,119.521 
		134.426,115.226 133.33,117.087 131.574,113.222 134.974,108.496 133,108.496 132.782,108.64 132.561,108.783 132.233,109.069 
		132.013,109.212 131.794,109.499 131.574,109.642 131.355,109.928 131.137,110.071 130.917,110.358 130.698,110.644 
		129.711,105.203 129.929,105.633 130.15,105.776 130.368,105.776 130.589,105.633 130.807,105.489 131.137,105.203 
		131.355,104.917 131.685,104.631 131.904,104.344 132.233,104.201 132.122,104.058 132.013,104.058 131.794,104.058 
		131.574,103.915 131.246,103.915 130.917,103.915 130.698,103.915 130.368,104.058 130.15,104.058 129.929,104.201 130.807,97.757 
		131.246,97.614 131.685,97.328 132.122,97.185 132.561,96.898 133,96.612 133.439,96.326 133.878,96.182 134.315,96.04 
		134.754,95.753 135.193,95.753 135.411,95.753 135.632,95.753 135.959,95.753 136.18,95.896 136.398,96.04 136.728,96.04 
		136.946,96.182 137.167,96.326 137.385,96.469 137.715,96.612 137.495,96.326 137.276,96.182 137.056,95.896 136.728,95.753 
		136.507,95.753 136.289,95.61 135.959,95.61 135.741,95.61 135.411,95.61 135.193,95.753 134.863,95.61 134.645,95.61 
		134.315,95.61 133.987,95.753 133.767,95.753 133.439,95.753 133.218,95.896 132.891,95.896 132.67,96.04 132.343,96.04 
		138.042,92.03 138.482,92.746 138.812,93.605 139.248,94.321 139.578,95.181 140.017,95.896 140.345,96.612 140.784,97.328 
		141.223,98.044 141.662,98.617 142.101,99.189 142.428,98.044 142.648,97.042 142.758,96.04 142.867,95.037 142.867,94.035 
		142.867,93.033 142.758,92.03 142.537,91.028 142.319,90.169 141.989,89.167 146.923,85.874 149.445,93.033 149.884,88.307 
		156.023,93.892 156.023,94.321 155.914,94.608 156.023,95.037 156.023,95.466 156.132,95.753 156.242,96.04 156.462,96.469 
		156.79,96.756 157.01,97.042 157.449,97.328 157.449,97.328 157.449,97.185 157.449,97.185 157.559,97.185 157.559,97.042 
		157.559,97.042 157.559,96.898 157.559,96.898 157.667,96.756 157.667,96.756 161.287,104.201 161.834,104.201 161.834,104.201 
		169.179,104.058 168.961,105.06 168.74,105.919 168.522,106.921 168.083,107.78 167.753,108.64 167.205,109.355 166.657,110.071 
		166.108,110.787 165.342,111.503 164.575,112.076 164.575,112.076 	"/>
	<polygon points="127.737,122.385 131.685,123.102 131.355,123.245 131.026,123.387 130.698,123.531 130.259,123.531 
		129.929,123.531 129.602,123.531 129.163,123.387 128.724,123.245 128.285,122.814 127.848,122.385 127.848,122.385 	"/>
	<polygon points="114.581,242.66 113.484,242.517 112.169,242.802 110.744,243.233 109.429,243.661 108.114,244.092 
		106.906,244.234 105.701,244.092 104.713,243.376 103.947,241.944 103.399,239.796 103.508,237.792 103.508,235.787 
		103.399,233.639 103.181,231.778 102.851,229.773 102.303,227.912 101.754,226.194 101.097,224.619 100.219,223.187 
		99.343,221.898 101.206,222.042 102.742,222.757 103.729,224.189 104.495,226.05 104.934,228.341 105.262,230.775 105.591,233.209 
		105.81,235.644 106.14,237.935 106.688,239.796 107.018,240.655 107.455,241.228 107.894,241.657 108.333,241.801 108.88,241.801 
		109.429,241.801 109.977,241.514 110.634,241.371 111.292,241.084 111.951,240.941 112.5,238.937 112.718,236.933 112.608,234.928 
		112.388,232.923 111.951,230.918 111.512,228.771 111.073,226.766 110.744,224.619 110.525,222.328 110.525,220.18 113.266,220.18 
		112.936,222.184 112.936,224.189 113.157,226.479 113.484,228.627 113.814,231.062 114.253,233.353 114.692,235.644 
		114.911,238.078 114.911,240.369 114.692,242.66 114.692,242.66 	"/>
	<polygon points="113.266,220.036 110.525,220.18 110.525,222.328 110.744,224.619 111.073,226.766 111.512,228.771 
		111.951,230.918 112.388,232.923 112.608,234.928 112.718,236.933 112.5,238.937 111.951,240.941 111.292,241.084 110.634,241.371 
		109.977,241.514 109.429,241.801 108.88,241.801 108.333,241.801 107.894,241.657 107.455,241.228 107.018,240.655 
		106.688,239.796 106.14,237.935 105.81,235.644 105.591,233.209 105.262,230.775 104.934,228.341 104.495,226.05 103.729,224.189 
		102.742,222.757 101.206,222.042 99.343,221.898 100.219,223.187 101.097,224.619 101.754,226.194 102.303,227.912 
		102.851,229.773 103.181,231.778 103.399,233.639 103.508,235.787 103.508,237.792 103.399,239.796 103.947,241.944 
		104.713,243.376 105.701,244.092 106.906,244.234 108.114,244.092 109.429,243.661 110.744,243.233 112.169,242.802 
		113.484,242.517 114.692,242.66 114.911,240.369 114.911,238.078 114.692,235.644 114.253,233.353 113.814,231.062 
		113.484,228.627 113.157,226.479 112.936,224.189 112.936,222.184 113.266,220.18 113.266,220.18 	"/>
</g>
<g>
	<polygon points="219.852,175.674 220.061,175.905 220.166,176.02 220.271,176.251 220.377,176.367 220.481,176.481 
		220.586,176.597 220.691,176.712 220.797,176.828 220.902,176.943 220.902,177.058 220.691,174.06 220.481,174.174 220.377,174.29 
		220.271,174.405 220.166,174.521 220.061,174.636 220.061,174.867 219.956,174.982 219.956,175.213 219.956,175.443 
		219.956,175.79 219.956,175.79 	"/>
	<polygon points="300.338,233.926 300.338,234.618 300.231,235.31 300.023,235.772 299.602,236.233 299.287,236.463 
		298.866,236.579 298.552,236.349 298.131,236.002 297.922,235.425 297.711,234.503 297.186,235.31 296.555,236.118 
		295.924,236.925 295.188,237.732 294.453,238.425 293.612,239.001 292.772,239.463 291.826,239.578 290.775,239.578 
		289.725,239.232 289.936,240.155 289.936,241.078 289.936,242 289.83,242.923 289.725,243.961 289.62,244.884 289.62,245.807 
		289.725,246.73 289.936,247.653 290.46,248.575 291.301,247.768 292.037,247.537 292.562,247.653 292.982,247.999 293.193,248.691 
		293.298,249.614 293.298,250.652 292.982,251.69 292.562,252.728 292.037,253.651 291.092,253.766 289.936,253.766 
		288.465,253.651 286.993,253.651 285.417,253.651 283.945,253.882 282.476,254.228 281.319,254.689 280.374,255.611 
		279.849,256.766 279.217,256.188 278.377,255.958 277.326,255.843 276.275,255.728 275.225,255.611 274.174,255.382 
		273.334,254.92 272.599,254.228 272.072,253.189 271.862,251.69 271.548,251.806 271.337,251.921 271.127,252.036 271.021,252.267 
		270.917,252.612 270.812,252.844 270.706,253.189 270.603,253.42 270.603,253.651 270.496,253.882 270.182,255.496 
		269.866,256.649 269.445,257.342 268.92,257.804 268.5,257.919 268.08,257.688 267.869,257.227 267.659,256.42 267.765,255.382 
		267.976,254.112 267.869,253.766 267.765,253.536 267.555,253.305 267.344,253.074 267.134,252.844 266.925,252.728 
		266.608,252.612 266.398,252.498 266.083,252.382 265.874,252.267 265.348,252.498 264.823,252.612 264.297,252.612 
		263.772,252.612 263.352,252.498 262.931,252.267 262.512,251.921 262.09,251.574 261.775,251.229 261.461,250.652 260.62,251.344 
		259.884,252.036 259.254,252.728 258.623,253.536 258.098,254.458 257.572,255.266 257.047,256.188 256.626,257.111 
		256.102,257.919 255.575,258.727 256.837,258.957 257.677,259.303 258.203,259.88 258.519,260.688 258.623,261.495 
		258.623,262.533 258.519,263.571 258.413,264.608 258.309,265.763 258.309,267.031 258.098,267.607 247.696,274.875 
		248.537,276.953 249.587,278.221 250.953,278.798 252.318,279.027 253.896,278.798 255.575,278.451 257.152,277.989 
		258.833,277.529 260.305,277.298 261.775,277.298 276.485,269.685 276.17,271.415 276.064,273.146 276.275,275.105 
		276.591,276.953 276.906,278.798 277.115,280.758 276.906,282.488 276.485,284.104 275.435,285.604 273.755,286.987 
		273.755,287.449 273.755,287.794 273.755,288.256 273.755,288.718 273.755,289.064 273.755,289.524 273.755,289.986 
		273.648,290.448 273.648,290.909 273.438,291.371 273.019,291.14 272.493,290.909 272.072,290.909 271.548,291.024 271.127,291.14 
		270.812,291.486 270.392,291.716 270.076,292.063 269.866,292.408 269.655,292.64 269.131,293.793 268.815,294.947 268.5,296.215 
		268.185,297.369 267.869,298.522 267.555,299.676 267.134,300.715 266.504,301.636 265.769,302.444 264.823,303.137 
		275.014,325.63 261.461,326.206 260.515,324.823 259.674,323.438 258.728,322.169 257.782,320.9 256.732,319.632 255.575,318.594 
		254.42,317.555 253.265,316.632 251.897,315.71 250.533,315.019 250.322,315.248 250.112,315.363 249.902,315.595 249.691,315.825 
		249.482,315.939 249.377,316.172 249.167,316.401 249.062,316.632 248.956,316.863 248.746,316.979 216.383,267.263 
		216.699,267.031 219.115,269.914 216.699,267.031 242.968,245.346 242.968,245.577 243.073,245.691 243.177,245.807 
		243.177,245.922 243.282,246.153 243.282,246.268 243.387,246.384 243.493,246.615 243.493,246.73 243.598,246.845 
		243.177,248.806 242.652,250.998 241.917,253.305 241.286,255.611 240.761,258.034 240.55,260.457 240.655,262.648 241.286,264.84 
		242.442,266.687 244.438,268.416 245.489,266.454 246.75,264.494 248.221,262.648 249.796,260.688 251.373,258.842 
		253.054,256.996 254.631,255.15 256.102,253.074 257.468,250.998 258.519,248.806 257.677,247.768 256.942,246.73 256.311,245.691 
		255.892,244.653 255.471,243.615 255.261,242.578 255.156,241.54 255.156,240.501 255.261,239.578 255.471,238.54 293.928,231.158 
		292.877,234.618 296.345,233.234 295.715,230.581 301.179,228.851 263.141,214.894 263.772,215.124 264.718,212.01 
		263.141,214.894 226.786,230.119 226.681,230.119 226.681,230.004 226.576,230.004 226.576,230.004 226.47,230.004 226.47,229.889 
		226.365,229.889 226.261,229.889 226.261,229.889 226.156,229.889 222.583,193.669 222.792,193.669 222.898,193.784 
		223.108,193.784 223.318,193.899 223.529,194.015 223.634,194.015 223.843,194.13 224.055,194.246 224.159,194.361 
		224.369,194.476 224.159,197.014 224.474,199.206 225.314,201.282 226.47,203.243 227.837,205.088 229.202,206.934 230.568,209.01 
		231.619,211.202 232.355,213.74 232.565,216.739 232.774,224.006 235.296,221.583 238.134,219.392 241.286,217.431 244.543,215.47 
		247.696,213.394 250.743,211.202 253.58,208.779 255.892,206.011 257.572,202.666 258.623,198.86 260.62,196.783 262.616,195.053 
		264.823,193.207 266.925,191.477 269.026,189.747 271.021,187.901 272.808,185.825 274.385,183.518 275.646,180.865 
		276.591,177.981 277.536,178.097 278.166,177.866 278.692,177.52 279.113,176.943 279.428,176.367 279.742,175.674 
		280.059,174.867 280.374,174.174 280.688,173.598 281.214,173.136 281.109,172.214 281.214,171.176 281.319,170.137 
		281.528,169.099 281.635,168.061 281.739,167.023 281.635,166.1 281.319,165.177 280.793,164.37 279.849,163.563 265.663,159.179 
		266.608,161.255 266.608,163.447 266.083,165.754 265.032,167.945 263.667,170.022 262.196,171.867 260.725,173.483 
		259.464,174.751 258.623,175.559 258.203,175.905 259.254,174.751 259.778,173.713 259.989,172.56 259.884,171.406 
		259.464,170.368 258.938,169.33 258.309,168.176 257.572,167.139 256.942,166.1 256.311,164.946 254.105,164.139 254.315,165.87 
		254.315,167.484 254.105,168.983 253.685,170.368 253.054,171.521 252.318,172.444 251.373,173.136 250.217,173.367 
		248.851,173.252 247.38,172.791 245.699,173.829 244.438,174.521 243.703,174.867 243.177,174.982 242.862,174.867 
		242.652,174.405 242.442,173.713 242.126,172.791 241.496,171.637 240.55,170.252 239.815,170.368 239.29,170.137 238.765,169.792 
		238.344,169.33 237.923,168.869 237.608,168.522 237.188,168.176 236.768,168.061 236.243,168.061 235.613,168.522 236.873,169.33 
		237.398,170.252 237.188,171.176 236.558,171.983 235.507,172.791 234.141,173.367 232.67,173.713 231.304,173.944 
		229.938,173.829 228.992,173.252 228.152,173.483 227.312,173.944 226.47,174.636 225.735,175.328 225,176.136 224.159,176.828 
		223.423,177.289 222.583,177.635 221.742,177.52 220.902,177.058 220.691,174.06 220.902,173.944 221.216,173.829 221.532,173.713 
		221.847,173.713 222.162,173.598 222.479,173.483 222.792,173.252 223.004,173.021 223.213,172.791 223.318,172.444 
		223.108,171.867 222.898,171.291 222.583,170.829 222.267,170.483 221.953,170.137 221.637,170.022 221.322,169.792 
		221.007,169.676 220.586,169.676 220.166,169.561 216.909,136.224 217.013,135.994 217.119,135.763 217.119,135.532 
		217.225,135.302 217.225,135.071 217.225,134.84 217.119,134.725 217.013,134.609 216.909,134.494 216.699,134.378 
		215.753,137.839 216.383,138.07 216.383,137.839 216.383,137.724 216.383,137.493 216.488,137.378 216.488,137.147 
		216.593,136.917 216.699,136.801 216.804,136.571 216.804,136.34 216.909,136.224 220.166,169.561 219.115,169.792 
		218.064,170.137 216.909,170.483 215.753,170.945 214.703,171.176 213.756,171.291 212.916,170.945 212.18,170.252 211.55,168.869 
		211.129,166.908 211.971,166.446 209.869,161.948 211.865,161.14 211.235,160.448 210.709,159.755 210.395,158.948 
		210.184,158.256 210.079,157.333 210.079,156.526 210.079,155.604 210.184,154.68 210.184,153.758 210.184,152.834 
		209.449,152.604 208.818,152.373 208.293,152.258 207.663,152.258 207.242,152.258 206.822,152.373 206.506,152.373 
		206.296,152.489 206.191,152.489 206.086,152.604 205.561,151.796 205.141,150.874 204.825,150.066 204.615,149.259 
		204.51,148.452 204.615,147.759 204.72,147.298 205.035,146.952 205.561,146.721 206.086,146.837 206.296,145.106 207.032,143.606 
		208.188,142.223 209.449,141.069 210.92,139.916 212.285,138.762 213.441,137.378 214.387,135.878 214.807,134.033 
		214.807,131.726 217.225,131.38 219.536,130.918 221.847,130.341 224.055,129.88 226.261,129.188 228.467,128.611 230.778,128.034 
		233.09,127.458 235.507,127.112 238.134,126.65 240.655,127.573 243.177,129.073 245.699,130.918 248.221,132.995 250.533,135.071 
		252.529,137.032 254.315,138.877 255.575,140.262 256.417,141.185 256.732,141.646 259.989,152.604 260.62,152.72 261.25,152.72 
		261.671,152.489 262.09,152.143 262.512,151.681 262.826,151.22 263.141,150.643 263.352,149.951 263.562,149.259 263.667,148.683 
		264.191,149.144 264.718,149.721 265.138,150.413 265.453,151.22 265.663,152.027 265.769,152.834 265.663,153.527 
		265.453,154.219 265.032,154.911 264.402,155.373 264.191,155.142 263.877,155.027 263.667,155.027 263.562,155.027 
		263.352,155.027 263.141,155.142 263.036,155.257 262.931,155.257 262.722,155.373 262.616,155.488 264.823,156.065 
		267.029,156.987 269.341,158.025 271.653,159.064 273.858,159.986 276.17,160.679 278.377,161.024 280.584,160.909 
		282.686,160.333 284.787,158.948 287.414,158.602 289.409,159.064 290.881,159.986 292.037,161.371 292.982,162.87 
		293.822,164.485 294.979,165.87 296.45,166.908 298.446,167.6 301.179,167.484 301.282,167.715 301.282,167.945 301.388,168.176 
		301.493,168.292 301.493,168.522 301.599,168.753 301.599,168.983 301.703,169.099 301.703,169.33 301.599,169.561 
		300.548,169.676 299.392,169.561 298.236,169.33 297.186,168.983 296.029,168.638 294.873,168.176 293.822,167.83 292.667,167.484 
		291.616,167.369 290.46,167.369 289.725,169.676 288.465,171.867 287.098,174.174 285.417,176.481 283.736,178.789 282.16,181.095 
		280.688,183.633 279.428,186.286 278.587,189.17 278.271,192.169 273.858,195.168 279.428,195.514 284.156,195.976 
		288.148,196.667 291.511,197.591 294.349,198.629 296.555,199.782 298.446,201.167 299.917,202.551 301.179,203.935 
		302.333,205.435 306.957,201.397 306.537,202.782 306.432,203.935 306.537,205.088 306.746,206.126 306.957,207.165 
		307.062,208.203 307.167,209.356 307.062,210.51 306.643,211.779 305.802,213.163 301.703,213.163 301.493,213.97 301.388,214.778 
		301.493,215.47 301.703,216.162 302.019,216.969 302.333,217.662 302.754,218.354 303.069,219.046 303.384,219.738 303.7,220.314 
		304.541,220.776 305.381,221.238 306.117,221.583 306.746,222.045 307.167,222.391 307.378,222.968 307.378,223.429 
		307.062,224.122 306.537,224.813 305.592,225.621 305.695,226.544 305.802,227.582 306.011,228.504 306.117,229.312 
		306.222,230.119 306.117,230.812 305.802,231.504 305.276,232.081 304.541,232.657 303.384,233.119 303.069,233.003 
		302.859,232.888 302.649,232.772 302.544,232.657 302.438,232.542 302.333,232.312 302.229,232.196 302.124,231.965 
		302.124,231.734 302.124,231.504 301.809,231.619 301.493,231.85 301.282,231.965 301.073,232.196 300.863,232.426 
		300.758,232.772 300.652,233.003 300.548,233.35 300.442,233.58 300.338,233.926 300.338,233.926 	"/>
	<polygon points="299.917,224.698 300.338,225.044 300.652,225.275 300.968,225.621 301.388,225.967 301.703,226.197 
		302.019,226.544 302.333,227.005 302.649,227.351 302.859,227.928 302.965,228.504 302.438,228.735 301.914,228.851 
		301.388,228.735 300.968,228.389 300.548,227.928 300.231,227.351 300.023,226.774 299.917,226.082 299.917,225.39 
		300.023,224.698 300.023,224.698 	"/>
	<polygon points="264.087,330.82 263.772,332.321 263.141,333.475 262.301,334.396 261.25,335.088 260.095,335.781 258.938,336.358 
		257.782,337.05 256.626,337.627 255.682,338.433 254.946,339.356 254.735,337.165 254.105,334.857 253.054,332.551 
		251.897,330.129 250.638,327.821 249.377,325.515 248.537,323.322 248.01,321.131 248.01,319.056 248.746,316.979 216.383,267.263 
		216.699,267.031 215.018,265.07 216.699,267.031 242.968,245.346 241.917,241.193 241.917,237.617 243.073,234.618 244.858,231.85 
		247.275,229.428 250.007,227.235 252.948,225.044 255.786,222.853 258.413,220.43 260.62,217.777 261.354,219.738 261.565,221.814 
		261.25,223.775 260.725,225.852 259.884,227.928 258.833,230.004 257.888,232.081 256.837,234.272 255.996,236.349 255.471,238.54 
		293.928,231.158 294.979,227.466 295.715,230.581 301.179,228.851 263.141,214.894 226.786,230.119 226.891,230.119 
		226.891,230.119 226.995,230.119 226.995,230.235 227.101,230.235 227.207,230.235 227.207,230.235 227.312,230.35 227.312,230.35 
		227.416,230.35 227.521,230.35 227.626,230.235 227.732,230.235 227.941,230.119 228.046,230.119 228.152,230.004 228.257,230.004 
		228.362,229.889 228.571,229.773 228.677,229.773 227.732,230.581 227.732,230.466 227.626,230.466 227.626,230.466 
		227.626,230.466 227.626,230.466 227.521,230.466 227.521,230.466 227.521,230.466 227.416,230.35 227.416,230.35 226.891,230.581 
		226.261,230.581 225.735,230.581 225.314,230.466 224.789,230.235 224.369,229.889 223.949,229.542 223.529,228.966 
		223.108,228.389 222.688,227.582 222.898,227.928 223.213,228.274 223.529,228.62 223.843,228.851 224.159,229.081 
		224.474,229.197 224.894,229.428 225.314,229.542 225.735,229.658 226.156,229.889 222.583,193.669 220.797,193.323 
		219.01,193.323 217.119,193.554 215.333,194.13 213.546,194.707 211.76,195.514 209.974,196.207 208.293,196.898 206.612,197.36 
		205.035,197.706 205.351,197.014 205.561,196.322 205.561,195.63 205.561,194.938 205.351,194.13 205.141,193.438 204.825,192.746 
		204.51,192.054 204.3,191.477 203.984,190.9 203.145,191.477 202.514,192.169 202.094,192.977 201.883,193.899 201.673,194.822 
		201.463,195.745 201.358,196.783 201.147,197.706 200.833,198.629 200.412,199.437 198.626,198.975 197.365,198.975 
		196.524,199.437 195.999,200.359 195.579,201.397 195.264,202.666 194.843,203.935 194.318,205.088 193.477,206.126 
		192.321,206.819 191.166,207.165 190.115,207.857 189.274,208.549 188.539,209.356 188.013,210.164 187.698,211.086 
		187.698,212.01 187.698,212.932 188.013,213.74 188.644,214.547 190.43,213.278 190.745,211.663 191.375,210.395 192.321,209.472 
		193.372,208.895 194.633,208.549 195.894,208.318 197.26,208.203 198.416,208.088 199.467,207.972 200.307,207.741 
		199.151,209.472 197.891,211.202 196.63,212.932 195.474,214.778 194.318,216.508 193.372,218.469 192.532,220.43 191.796,222.622 
		191.481,224.813 191.375,227.351 191.691,228.389 192.216,229.542 192.742,230.696 193.372,231.734 194.213,232.772 
		195.054,233.811 195.999,234.618 197.05,235.425 198.101,236.118 199.256,236.579 200.202,236.463 201.043,236.233 
		201.883,236.002 202.514,235.541 203.249,235.08 203.774,234.618 204.3,234.042 204.825,233.35 205.246,232.542 205.666,231.734 
		207.452,234.042 208.188,236.118 207.978,238.079 207.032,239.809 205.666,241.54 203.879,243.154 202.198,244.884 
		200.518,246.615 199.256,248.575 198.521,250.768 198.626,255.611 199.571,260.341 201.147,264.84 203.354,268.993 
		206.086,272.915 209.133,276.605 212.496,279.951 215.963,282.95 219.536,285.719 223.004,288.025 219.852,289.986 217.75,292.408 
		216.488,295.177 215.858,298.176 215.648,301.521 215.648,304.866 215.648,308.327 215.543,311.673 215.018,315.019 
		213.967,318.132 214.177,318.247 214.387,318.361 214.703,318.479 214.912,318.594 215.228,318.594 215.438,318.709 
		215.648,318.709 215.963,318.594 216.173,318.479 216.383,318.247 216.699,319.516 217.119,320.438 217.75,321.016 218.38,321.362 
		219.115,321.478 219.852,321.362 220.691,321.131 221.637,320.786 222.479,320.438 223.423,320.092 223.634,321.707 
		224.159,322.631 224.789,323.208 225.63,323.322 226.681,323.208 227.626,322.976 228.677,322.631 229.518,322.398 
		230.359,322.398 230.884,322.746 232.145,324.129 233.3,325.399 234.562,326.898 235.717,328.283 236.873,329.896 237.923,331.512 
		238.87,333.127 239.71,334.973 240.446,336.817 240.971,338.895 237.819,339.01 234.456,338.665 231.198,338.088 227.837,337.165 
		224.58,336.011 221.532,334.396 218.589,332.551 215.963,330.358 213.756,327.821 211.971,325.053 209.028,323.784 
		206.927,323.784 205.561,324.706 204.615,326.437 203.984,328.743 203.459,331.397 202.829,334.166 201.988,336.817 
		200.727,339.242 198.836,341.202 198.836,342.24 198.731,343.394 198.731,344.662 198.731,345.816 198.836,347.084 
		199.151,348.353 199.571,349.506 200.097,350.545 200.938,351.469 202.094,352.16 202.829,350.892 203.459,349.623 
		203.984,348.238 204.615,346.854 205.141,345.354 205.771,343.971 206.506,342.702 207.347,341.432 208.293,340.278 
		209.344,339.242 209.764,339.472 210.079,339.587 210.5,339.818 210.814,340.049 211.129,340.278 211.445,340.625 211.865,340.854 
		212.18,341.087 212.496,341.432 212.811,341.664 215.858,341.087 218.905,341.549 221.847,342.702 224.894,344.433 
		227.837,346.393 230.884,348.353 233.825,350.2 236.873,351.698 239.815,352.507 242.757,352.39 243.808,353.66 244.228,354.814 
		244.124,355.968 243.703,357.004 242.968,358.043 242.022,359.081 241.18,360.12 240.341,361.273 239.71,362.427 239.395,363.695 
		237.503,365.311 235.613,366.926 233.825,368.656 232.145,370.387 230.359,372.116 228.783,373.962 227.101,375.692 
		225.419,377.308 223.738,378.806 222.058,380.191 220.586,382.728 220.061,385.035 220.166,387.112 220.797,389.188 
		221.847,391.149 223.108,393.109 224.474,395.069 225.63,397.262 226.47,399.568 226.891,402.107 230.884,404.183 233.195,404.645 
		234.141,403.605 234.037,401.531 233.406,398.762 232.565,395.417 231.83,391.956 231.724,388.726 232.565,385.959 
		234.667,383.996 235.717,380.536 237.188,377.422 239.185,374.769 241.392,372.347 243.808,370.154 246.329,368.079 
		248.851,366.002 251.373,363.925 253.685,361.618 255.682,358.966 257.888,356.197 260.305,353.544 262.826,351.121 
		265.453,348.699 268.08,346.277 270.603,343.855 273.019,341.202 275.014,338.433 276.696,335.435 277.852,332.089 275.014,325.63 
		261.461,326.206 261.671,326.668 261.985,327.13 262.196,327.59 262.512,328.052 262.722,328.514 263.036,328.976 263.352,329.438 
		263.562,329.896 263.772,330.358 264.087,330.936 264.087,330.936 	"/>
</g>
<g>
	<polygon fill="#1B171B" points="449.243,252.15 449.336,254.351 455.115,265.051 455.115,264.65 455.115,264.251 455.022,263.851 
		454.929,263.451 454.836,263.051 454.742,262.65 454.557,262.351 454.463,262.051 454.276,261.751 453.997,261.451 
		455.674,260.051 456.606,258.551 456.979,256.951 456.979,255.351 456.7,253.65 456.234,251.951 455.674,250.251 455.302,248.551 
		455.115,246.751 455.208,244.951 454.463,244.951 453.624,245.15 452.785,245.451 451.946,245.851 451.107,246.451 
		450.269,246.951 449.43,247.65 448.591,248.251 447.659,248.951 446.819,249.65 448.777,253.251 449.336,252.15 449.336,252.15 	
		"/>
	<polygon fill="#1B171B" points="439.829,241.151 434.33,244.951 434.518,244.65 434.61,244.351 434.61,243.951 434.703,243.651 
		434.61,243.351 434.61,243.051 434.61,242.751 434.518,242.451 434.424,242.151 434.33,241.851 432.093,250.65 432.467,250.551 
		432.933,250.351 433.398,250.251 433.771,250.15 434.236,249.951 434.703,249.851 435.076,249.65 435.542,249.551 435.915,249.351 
		436.287,249.251 436.194,249.851 436.008,250.451 435.821,250.951 435.635,251.451 435.355,251.951 435.076,252.351 
		434.797,252.751 434.518,253.15 434.236,253.451 433.864,253.751 447.752,255.15 448.777,253.251 446.819,249.65 446.074,250.15 
		445.329,250.65 444.489,251.15 443.744,251.551 442.999,251.851 442.253,252.15 441.414,252.251 440.668,252.351 439.829,252.351 
		439.084,252.15 439.363,251.951 439.644,251.751 439.736,251.451 439.829,251.15 439.923,250.851 439.923,250.451 439.923,250.15 
		439.923,249.751 439.829,249.451 439.829,249.251 440.295,248.751 440.762,248.351 441.135,247.851 441.508,247.251 441.88,246.65 
		442.159,245.951 442.532,245.351 442.719,244.65 442.999,243.951 443.278,243.151 441.042,239.151 440.948,239.351 
		440.855,239.551 440.762,239.751 440.668,239.951 440.481,240.151 440.389,240.351 440.295,240.551 440.109,240.751 
		440.016,240.951 439.829,241.151 439.829,241.151 	"/>
	<polygon fill="#1B171B" points="409.91,293.551 410.376,293.351 410.282,293.351 410.282,293.351 410.282,293.351 410.189,293.351 
		410.189,293.351 410.189,293.351 410.189,293.351 410.097,293.451 410.097,293.451 410.097,293.451 409.91,293.551 409.91,293.551 
			"/>
	<polygon fill="#1B171B" points="410.655,152.851 409.91,153.751 410.189,154.151 410.47,154.451 410.655,154.651 410.937,154.751 
		411.215,154.851 411.495,154.851 411.774,154.851 412.054,154.751 412.333,154.551 412.613,154.351 409.072,151.351 
		409.165,151.551 409.258,151.651 409.444,151.851 409.538,152.051 409.724,152.151 409.91,152.351 410.097,152.451 
		410.282,152.651 410.47,152.751 410.749,152.851 410.749,152.851 	"/>
	<polygon fill="#1B171B" points="436.287,278.351 432.746,280.451 432.373,281.751 432.746,280.451 430.789,281.551 
		427.619,286.551 436.287,278.351 436.287,278.351 	"/>
	<polygon fill="#1B171B" points="422.959,101.651 416.248,108.151 417.46,105.151 412.706,105.151 416.248,108.151 402.081,103.051 
		401.242,102.251 400.869,102.251 393.786,97.151 387.074,95.851 392.667,97.451 365.45,104.351 365.077,104.551 364.892,104.751 
		364.705,104.951 364.519,105.151 364.426,105.351 364.426,105.551 364.426,105.751 364.519,105.951 364.611,106.251 
		364.705,106.451 361.815,114.451 360.697,114.451 360.697,117.451 367.407,120.351 361.909,128.251 361.723,127.351 
		361.723,126.351 361.63,125.451 361.63,124.451 361.63,123.551 361.63,122.651 361.63,121.851 361.537,120.951 361.537,120.251 
		361.537,119.551 360.977,119.151 361.909,117.251 364.053,114.251 367.222,110.551 371.136,106.351 375.518,102.251 
		380.178,98.451 384.65,95.351 388.938,93.351 392.573,93.051 394.997,94.151 397.421,95.451 399.844,96.651 402.36,97.851 
		404.878,98.851 407.394,99.651 409.91,100.351 412.427,100.851 414.943,101.051 417.46,100.951 417.46,100.851 417.646,100.751 
		417.926,100.451 418.299,100.251 418.765,99.951 419.324,99.651 419.884,99.451 420.629,99.251 421.374,99.151 422.12,99.251 
		421.748,98.251 421.374,98.251 421.095,99.151 420.815,100.651 420.722,102.751 420.908,105.251 421.188,107.951 421.841,110.851 
		422.772,113.551 424.078,116.151 416.248,119.551 419.511,119.651 422.866,120.251 426.222,121.151 429.67,122.051 
		433.025,122.851 436.287,123.351 439.457,123.251 442.439,122.551 445.236,120.951 447.752,118.251 448.498,118.151 
		449.149,118.251 449.803,118.551 450.269,119.051 450.828,119.551 451.294,120.251 451.667,120.851 452.227,121.451 
		452.692,122.051 453.251,122.451 453.344,122.351 453.53,122.151 453.624,121.951 453.811,121.751 453.904,121.551 
		453.997,121.351 454.091,121.151 454.184,120.851 454.091,120.651 453.997,120.351 455.208,120.551 455.861,120.851 
		456.048,121.351 455.955,121.851 455.581,122.451 455.208,123.051 455.022,123.651 454.929,124.351 455.208,124.851 
		456.048,125.451 457.445,125.351 459.217,125.551 461.081,125.851 463.131,126.451 465.182,127.051 467.232,127.751 
		469.097,128.451 470.681,128.951 471.985,129.451 472.917,129.651 472.917,132.651 472.451,132.651 471.24,132.551 
		469.376,132.451 467.046,132.251 464.529,131.951 461.919,131.551 459.31,130.951 457.072,130.251 455.208,129.451 
		453.997,128.351 453.064,130.851 451.946,133.351 450.734,135.851 449.523,138.451 448.312,141.051 447.192,143.751 
		446.354,146.451 445.795,149.251 445.516,152.151 445.795,155.051 445.143,155.751 444.396,156.451 443.651,157.151 
		442.812,157.851 442.066,158.551 441.414,159.251 440.762,160.051 440.295,160.951 440.016,161.951 439.829,163.051 
		442.625,163.951 444.77,163.551 446.54,162.151 448.032,159.951 449.43,157.351 450.921,154.751 452.506,152.451 454.463,150.851 
		456.887,150.151 459.962,150.751 461.267,152.951 462.572,154.951 463.97,156.951 465.368,158.851 466.859,160.751 
		468.351,162.451 469.842,164.051 471.52,165.551 473.198,166.851 474.875,168.051 475.248,167.851 475.248,167.751 
		474.968,167.851 474.596,168.151 474.036,168.551 473.57,169.151 473.291,169.951 473.198,170.851 473.384,171.951 474.13,173.151 
		474.223,173.251 474.502,173.551 474.968,174.051 475.435,174.551 475.808,175.151 476.18,175.651 476.273,176.051 476.18,176.351 
		475.714,176.351 474.875,176.151 474.223,177.751 473.757,179.851 473.291,182.251 472.824,184.751 472.451,187.251 
		471.985,189.351 471.52,191.051 470.961,192.151 470.215,192.251 469.376,191.351 468.724,191.951 468.164,192.651 
		467.605,193.451 467.14,194.451 466.859,195.451 466.58,196.551 466.393,197.751 466.393,198.951 466.486,200.251 466.674,201.451 
		468.164,203.551 468.443,203.351 468.63,203.451 468.537,203.851 468.443,204.351 468.164,204.951 467.791,205.451 
		467.325,206.051 466.767,206.451 466.113,206.651 465.461,206.551 465.461,207.951 465.089,209.851 464.343,212.151 
		463.411,214.551 462.386,217.051 461.36,219.451 460.335,221.451 459.496,223.151 458.937,224.251 458.751,224.751 
		458.564,224.851 458.005,225.251 457.072,225.751 455.955,226.351 454.649,226.951 453.344,227.551 451.946,227.951 
		450.642,228.151 449.523,228.051 448.498,227.651 448.404,229.051 448.684,230.051 449.243,230.651 449.989,231.151 
		450.921,231.451 451.761,231.751 452.506,232.051 453.064,232.651 453.344,233.551 453.251,234.851 451.294,233.951 
		449.616,233.651 448.312,233.851 447.192,234.451 446.261,235.451 445.516,236.651 444.862,238.151 444.304,239.751 
		443.744,241.451 443.278,243.151 441.042,239.151 441.974,237.151 442.625,235.151 442.905,233.051 442.905,231.051 
		442.532,229.151 441.974,227.251 441.135,225.451 440.016,223.751 438.711,222.251 437.127,220.951 437.406,221.951 
		437.872,222.951 438.431,223.951 438.897,225.051 439.457,226.051 439.829,227.151 440.016,228.251 440.016,229.451 
		439.736,230.651 439.084,231.851 434.33,225.951 430.416,236.151 431.627,234.851 432,234.651 432.467,234.651 432.839,234.751 
		433.212,234.951 433.491,235.251 433.864,235.651 434.144,235.951 434.424,236.351 434.797,236.651 435.169,236.951 
		434.424,237.351 433.864,237.851 433.585,238.251 433.398,238.751 433.398,239.251 433.398,239.751 433.585,240.251 
		433.864,240.751 434.051,241.351 434.33,241.851 432.093,250.65 431.906,250.65 431.721,250.751 431.627,250.751 431.44,250.851 
		431.255,250.851 431.068,250.951 430.882,250.951 430.789,251.051 430.603,251.051 430.416,251.15 424.73,236.151 426.129,234.551 
		427.433,232.751 428.738,230.751 429.949,228.751 430.789,226.751 431.44,224.651 431.627,222.651 431.255,220.851 
		430.416,219.051 428.831,217.551 429.11,214.551 429.018,212.251 428.645,210.651 427.992,209.551 427.153,209.051 
		426.035,209.051 424.823,209.351 423.425,209.951 421.935,210.751 420.442,211.751 421.095,206.451 422.12,205.751 
		423.146,204.951 424.171,204.151 425.103,203.251 426.035,202.351 426.967,201.451 427.806,200.451 428.738,199.451 
		429.576,198.351 430.416,197.251 428.831,195.151 428.272,193.251 428.459,191.351 429.11,189.551 430.229,187.751 431.44,185.951 
		432.56,184.151 433.491,182.251 433.864,180.351 433.585,178.251 432.746,180.951 431.627,183.451 430.229,185.851 
		428.645,188.051 426.78,190.151 424.916,192.251 422.959,194.251 421.002,196.251 419.138,198.351 417.273,200.451 
		390.337,205.551 397.699,192.651 397.887,193.351 397.98,193.951 398.073,194.651 398.26,195.251 398.354,195.951 398.354,196.651 
		398.446,197.251 398.446,197.951 398.539,198.651 398.539,199.351 404.038,192.151 409.444,189.551 413.731,186.051 
		417.087,181.851 419.79,177.151 422.214,172.151 424.45,167.151 426.967,162.151 429.856,157.551 433.585,153.351 438.245,149.951 
		438.338,147.351 438.991,145.051 439.923,143.051 441.135,141.151 442.346,139.351 443.465,137.451 444.396,135.551 
		444.77,133.451 444.676,131.151 443.838,128.351 426.874,126.251 426.501,127.051 425.568,127.851 424.265,128.751 
		422.586,129.451 420.815,130.151 418.951,130.651 417.087,131.051 415.316,131.151 413.825,130.951 412.706,130.551 
		413.452,133.151 413.639,135.951 413.452,138.751 412.986,141.451 412.24,144.051 411.401,146.451 410.563,148.451 
		409.816,149.951 409.258,150.951 409.072,151.351 408.792,150.351 408.699,149.251 408.885,148.151 409.165,146.951 
		409.444,145.851 409.538,144.851 409.444,143.751 409.072,142.851 408.232,142.151 406.835,141.451 406.368,142.351 
		406.088,143.251 405.902,144.051 405.81,144.851 405.81,145.651 405.81,146.351 405.995,147.051 406.088,147.851 406.368,148.451 
		406.555,149.151 400.776,144.151 400.869,143.951 400.869,143.851 400.869,143.651 400.962,143.551 400.962,143.451 
		401.056,143.251 401.056,143.151 401.149,142.951 401.242,142.851 401.242,142.751 401.056,142.451 400.776,142.151 
		400.59,141.851 400.311,141.551 400.03,141.251 399.844,141.051 399.563,140.751 399.285,140.551 399.005,140.351 398.726,140.151 
			"/>
	<polygon fill="#1B171B" points="431.534,213.651 434.33,217.551 431.627,213.751 431.627,213.751 	"/>
	<polygon fill="#1B171B" points="460.708,206.451 461.919,210.751 460.708,206.551 460.708,206.551 	"/>
	<polygon fill="#1B171B" points="441.042,215.751 441.042,218.751 439.829,214.551 441.042,215.851 441.042,215.851 	"/>
	<polygon fill="#1B171B" points="424.823,132.551 418.206,125.451 418.951,126.051 419.884,126.551 420.722,127.151 
		421.654,127.651 422.586,128.251 423.425,128.851 424.078,129.651 424.544,130.451 424.916,131.451 424.916,132.651 
		424.916,132.651 	"/>
	<polygon fill="#1B171B" points="420.908,115.251 418.206,115.251 418.206,114.851 418.299,114.351 418.578,113.951 
		418.857,113.651 419.324,113.451 419.697,113.351 420.163,113.351 420.442,113.551 420.815,113.951 421.002,114.451 
		421.002,115.251 421.002,115.251 	"/>
	<polygon fill="#1B171B" points="463.597,322.551 462.852,324.351 461.732,325.951 460.521,327.351 459.31,328.451 458.005,329.451 
		456.7,330.251 455.581,330.951 454.649,331.451 453.997,331.951 453.624,332.251 441.787,330.351 440.948,329.551 438.338,327.65 
		434.61,324.751 429.856,321.251 424.544,317.251 418.951,313.251 413.452,309.351 408.325,306.051 403.945,303.451 
		400.684,301.851 402.081,300.751 400.684,301.851 400.59,301.851 400.496,301.751 400.403,301.751 400.218,301.65 400.124,301.65 
		400.03,301.65 399.937,301.551 399.844,301.551 399.751,301.551 399.657,301.551 398.354,301.051 398.26,300.351 399.005,299.351 
		400.496,298.251 402.36,297.15 404.412,296.051 406.461,295.051 408.232,294.251 409.444,293.751 409.91,293.551 410.376,293.351 
		410.376,293.251 410.47,293.251 410.563,293.251 410.563,293.15 410.655,293.15 410.749,293.15 410.749,293.051 410.843,293.051 
		410.937,293.051 410.937,292.951 430.789,281.551 427.619,286.551 436.287,278.351 437.127,277.551 438.245,274.551 
		436.287,278.351 432.746,280.451 433.585,277.551 432.746,280.451 430.789,281.551 447.752,255.15 449.336,255.15 449.336,254.351 
		455.115,265.051 455.208,265.351 455.208,265.551 455.208,265.751 455.208,265.951 455.208,266.251 455.208,266.451 
		455.208,266.65 455.208,266.951 455.208,267.15 455.208,267.351 454.184,267.051 453.344,267.051 452.506,267.351 451.854,267.851 
		451.2,268.451 450.734,269.251 450.269,270.051 449.896,270.951 449.616,271.751 449.336,272.451 449.896,274.15 449.989,275.65 
		449.616,276.951 449.057,278.15 448.312,279.15 447.659,280.15 447.192,281.15 447.1,282.251 447.473,283.351 448.498,284.65 
		448.591,284.751 448.777,285.051 449.057,285.451 449.43,285.951 449.896,286.551 450.455,287.351 451.107,288.15 451.854,289.15 
		452.692,290.15 453.53,291.15 443.186,303.951 442.905,303.551 442.532,303.251 442.159,302.851 441.787,302.551 441.321,302.15 
		440.948,301.851 440.481,301.551 440.016,301.251 439.55,300.951 439.084,300.751 435.263,302.65 433.305,305.15 432.746,307.951 
		433.398,311.051 434.797,314.351 436.661,317.751 438.711,320.951 440.481,324.051 441.693,326.851 442.066,329.251 
		443.278,328.15 444.396,326.851 445.516,325.251 446.634,323.65 447.566,321.851 448.498,319.951 449.243,318.051 449.803,316.051 
		450.269,314.051 450.455,312.15 449.616,311.351 448.777,310.551 447.938,309.751 447.286,308.851 446.54,308.051 445.888,307.15 
		445.236,306.351 444.583,305.551 443.931,304.751 443.186,303.951 453.53,291.15 454.276,292.351 455.302,293.551 456.421,294.751 
		457.818,296.051 459.217,297.351 460.708,298.65 462.199,300.15 463.597,301.65 464.902,303.15 466.113,304.851 466.113,305.15 
		466.113,306.051 466.021,307.451 465.927,309.251 465.741,311.251 465.555,313.551 465.182,315.851 464.81,318.251 
		464.249,320.451 463.69,322.551 463.69,322.551 	"/>
	<polygon fill="#1B171B" points="424.078,288.451 430.416,285.551 430.043,286.251 429.576,286.851 429.11,287.351 428.552,287.751 
		427.992,288.15 427.34,288.451 426.78,288.751 426.129,289.051 425.476,289.351 424.916,289.751 424.078,288.451 424.078,288.451 	
		"/>
	<polygon fill="#1B171B" points="430.416,302.851 430.229,302.951 429.949,302.951 429.763,302.951 429.67,302.851 429.483,302.751 
		429.297,302.65 429.204,302.451 429.11,302.251 428.925,302.15 428.831,302.051 429.204,301.65 429.576,301.15 429.949,300.551 
		430.323,299.951 430.789,299.251 431.255,298.65 431.721,298.15 432.28,297.851 432.933,297.65 433.585,297.751 433.864,298.251 
		433.957,298.751 433.771,299.351 433.491,299.851 433.025,300.351 432.467,300.851 431.906,301.351 431.348,301.851 
		430.789,302.351 430.416,302.851 430.416,302.851 	"/>
	<polygon fill="#1B171B" points="441.787,330.251 458.657,329.251 455.861,333.65 452.412,337.951 448.498,342.15 444.489,346.351 
		440.295,350.551 436.381,354.951 432.746,359.351 429.576,363.951 427.153,368.751 425.662,373.851 424.171,374.251 
		423.052,375.051 422.307,376.15 421.935,377.351 421.841,378.851 421.841,380.351 422.027,381.951 422.307,383.451 422.68,384.851 
		422.959,386.051 423.332,387.351 423.892,388.65 424.637,389.951 425.476,391.251 426.129,392.65 426.688,393.951 426.874,395.251 
		426.78,396.551 426.129,397.851 424.916,399.15 422.493,398.251 420.536,396.751 418.951,394.951 417.646,392.751 416.527,390.351 
		415.41,387.951 414.197,385.551 412.706,383.351 410.937,381.351 408.792,379.751 408.792,377.951 409.444,376.451 410.376,375.15 
		411.588,374.051 412.986,373.051 414.197,372.051 415.316,370.851 416.155,369.551 416.527,367.851 416.248,365.751 
		418.765,364.051 421.002,362.051 422.866,359.851 424.544,357.551 426.035,355.15 427.433,352.65 428.738,350.051 429.949,347.551 
		431.161,345.051 432.373,342.551 431.068,340.951 429.576,340.051 427.898,339.451 426.035,339.251 424.171,339.251 
		422.307,339.251 420.442,339.251 418.672,339.051 416.993,338.451 415.41,337.451 413.266,336.451 411.122,335.251 
		408.979,333.951 406.742,332.751 404.505,331.65 402.174,330.751 399.844,330.351 397.514,330.351 395.091,331.051 
		392.573,332.451 392.295,332.051 391.922,331.65 391.642,331.251 391.269,330.851 390.989,330.551 390.616,330.351 390.337,330.15 
		389.965,330.051 389.499,330.15 389.032,330.351 387.82,331.551 386.98,332.951 386.422,334.351 385.956,335.951 385.677,337.551 
		385.397,339.251 385.117,340.851 384.65,342.551 384.092,344.051 383.16,345.551 382.042,344.451 381.11,343.15 380.456,341.65 
		379.99,340.051 379.712,338.251 379.618,336.351 379.712,334.451 379.805,332.551 380.084,330.751 380.363,329.051 
		381.948,327.551 382.787,326.051 383.16,324.451 383.253,322.751 383.253,321.051 383.16,319.351 383.253,317.65 383.719,315.951 
		384.65,314.451 386.329,312.951 389.685,315.65 393.133,318.051 396.768,320.351 400.496,322.451 404.318,324.15 408.232,325.451 
		412.24,326.451 416.342,326.851 420.536,326.751 424.916,326.051 424.637,323.951 423.892,321.951 422.772,319.951 
		421.374,318.051 419.697,316.251 417.926,314.451 416.062,312.751 414.197,311.051 412.333,309.451 410.749,307.951 
		409.072,310.251 407.674,311.15 406.555,310.951 405.437,310.051 404.505,308.851 403.479,307.551 402.454,306.751 401.335,306.65 
		400.03,307.551 398.539,310.051 394.625,307.051 393.786,307.951 393.879,304.451 393.6,300.751 393.039,296.851 392.388,292.851 
		391.922,288.951 391.642,285.051 391.922,281.351 392.854,277.951 394.625,274.951 397.327,272.451 393.412,269.951 
		389.218,267.351 384.744,264.451 380.363,261.351 376.262,257.951 372.441,254.15 369.365,250.051 366.941,245.451 
		365.637,240.351 365.45,234.851 365.824,232.651 366.663,230.451 367.968,228.351 369.365,226.251 370.857,224.151 
		372.162,221.951 373.094,219.751 373.56,217.451 373.28,215.051 372.162,212.451 370.577,212.951 369.179,213.751 367.874,214.851 
		366.663,216.051 365.543,217.251 364.239,218.151 362.935,218.851 361.443,219.051 359.858,218.651 357.994,217.551 
		356.503,216.051 355.291,214.351 354.358,212.451 353.707,210.451 353.334,208.351 353.148,206.151 353.148,203.951 
		353.334,201.651 353.614,199.451 353.986,197.251 354.639,196.151 355.385,195.051 356.13,194.051 356.782,193.051 
		357.528,192.051 358.181,191.051 358.74,189.951 359.112,188.851 359.485,187.551 359.579,186.251 358.367,186.851 
		356.876,187.451 355.291,188.151 353.707,188.751 352.028,189.551 350.444,190.551 349.047,191.651 347.834,192.951 
		346.996,194.551 346.53,196.451 345.318,193.851 345.318,192.051 346.157,190.651 347.556,189.651 349.326,188.751 
		351.004,187.951 352.494,186.951 353.334,185.551 353.241,183.751 352.028,181.151 353.8,180.951 355.291,180.351 356.41,179.551 
		357.343,178.551 358.087,177.251 358.553,175.851 358.833,174.351 358.926,172.651 358.926,170.851 358.74,168.951 
		360.324,168.551 361.443,168.751 362.003,169.351 362.375,170.251 362.469,171.351 362.469,172.651 362.469,173.951 
		362.562,175.151 362.841,176.151 363.493,176.951 364.892,175.551 366.383,174.251 367.968,172.951 369.645,171.751 
		371.509,170.651 373.373,169.651 375.33,168.751 377.382,167.951 379.432,167.251 381.576,166.851 383.067,167.451 
		383.906,168.351 384.278,169.551 384.465,170.851 384.465,172.251 384.465,173.551 384.65,174.751 385.211,175.651 
		386.236,176.151 387.913,176.151 396.582,156.651 396.302,156.251 395.93,155.951 395.463,155.851 394.997,155.751 
		394.531,155.751 393.972,155.851 393.412,155.851 392.854,155.951 392.295,155.951 391.829,155.851 391.642,155.051 
		391.549,154.351 391.735,153.851 392.015,153.451 392.48,153.151 392.946,152.851 393.412,152.551 393.879,152.251 
		394.252,151.951 394.625,151.651 393.506,149.851 392.015,148.251 390.337,146.951 388.566,145.951 386.702,145.351 
		384.744,145.251 382.881,145.551 381.203,146.451 379.712,147.851 378.406,149.951 378.22,149.951 378.033,149.851 
		377.848,149.751 377.66,149.651 377.475,149.451 377.382,149.251 377.194,149.151 377.102,148.951 377.009,148.851 
		376.822,148.651 380.363,143.651 378.78,141.051 377.009,140.151 375.33,140.451 373.653,141.451 372.068,142.751 370.484,144.051 
		368.993,144.951 367.688,144.851 366.476,143.651 365.45,140.651 365.824,140.751 366.197,140.751 366.663,140.651 
		367.129,140.651 367.501,140.551 367.874,140.551 368.247,140.651 368.62,140.751 368.806,141.051 368.993,141.451 
		369.365,141.151 369.737,140.751 370.111,140.451 370.392,140.051 370.67,139.751 370.95,139.351 371.136,139.051 371.136,138.651 
		371.136,138.151 370.95,137.651 370.298,137.551 369.552,137.351 368.899,137.251 368.247,137.051 367.501,136.851 
		366.756,136.751 366.01,136.651 365.265,136.551 364.426,136.451 363.493,136.451 366.197,134.751 365.45,134.351 364.799,133.851 
		364.146,133.351 363.587,132.751 363.213,132.051 362.841,131.351 362.469,130.651 362.281,129.851 362.003,129.051 
		361.909,128.251 367.407,120.351 368.247,124.551 368.247,121.251 367.407,120.351 360.697,117.451 363.493,114.451 
		361.815,114.451 364.705,106.451 364.799,106.651 364.984,106.851 365.171,107.051 365.265,107.151 365.45,107.351 
		365.637,107.551 365.824,107.651 366.01,107.851 366.104,107.951 366.197,108.151 366.197,104.351 365.45,104.351 392.667,97.451 
		394.625,97.951 393.786,97.151 400.869,102.251 398.539,102.251 402.081,103.051 416.248,108.151 423.052,101.651 422.12,104.351 
		398.726,140.151 397.699,139.451 396.582,138.851 395.463,138.451 394.345,138.051 393.133,137.751 391.922,137.451 
		390.709,137.151 389.499,136.951 388.286,136.651 387.074,136.451 388.193,137.151 389.405,137.751 390.803,138.251 
		392.295,138.851 393.693,139.451 395.091,140.251 396.302,141.251 397.327,142.351 398.073,143.851 398.539,145.751 
		399.005,145.951 399.378,146.051 399.657,146.051 399.937,145.951 400.124,145.751 400.311,145.451 400.496,145.251 
		400.59,144.851 400.684,144.551 400.776,144.151 406.555,149.151 406.742,149.651 406.928,150.051 407.208,150.551 
		407.394,150.951 407.58,151.351 407.859,151.851 408.046,152.351 408.325,152.751 408.512,153.251 408.792,153.751 
		408.512,154.051 408.232,154.451 407.859,154.651 407.486,154.951 407.114,155.151 406.742,155.251 406.368,155.451 
		405.995,155.551 405.622,155.751 405.25,155.851 404.878,155.451 404.505,155.151 404.131,154.751 403.758,154.451 
		403.479,154.051 403.292,153.651 403.106,153.251 403.014,152.751 403.106,152.251 403.199,151.651 402.081,154.551 
		400.869,157.451 399.563,160.251 398.166,163.151 396.861,165.951 395.649,168.851 394.625,171.651 393.693,174.551 
		393.039,177.451 392.573,180.351 393.227,181.551 393.879,182.751 394.438,183.951 394.997,185.151 395.557,186.351 
		396.116,187.651 396.582,188.851 396.955,190.151 397.421,191.351 397.699,192.651 390.337,205.551 417.273,200.451 
		416.435,201.451 415.689,202.551 414.943,203.651 414.197,204.851 413.546,205.951 412.986,207.151 412.52,208.451 
		412.054,209.751 411.774,211.051 411.495,212.451 412.52,211.851 413.546,211.251 414.57,210.751 415.503,210.151 416.527,209.551 
		417.46,208.951 418.392,208.351 419.324,207.751 420.256,207.151 421.095,206.451 420.442,211.751 419.604,212.351 
		418.765,212.951 417.926,213.551 417.087,214.151 416.248,214.751 415.503,215.251 414.663,215.751 414.012,216.151 
		413.359,216.451 412.706,216.651 413.918,218.751 414.57,220.951 414.57,223.251 414.291,225.551 413.731,227.951 413.08,230.351 
		412.52,232.851 412.147,235.251 412.147,237.551 412.706,239.951 412.799,240.951 413.08,241.951 413.546,242.851 414.104,243.751 
		414.85,244.65 415.689,245.351 416.527,245.951 417.46,246.551 418.392,246.851 419.418,247.051 419.511,246.951 419.697,246.851 
		419.79,246.65 419.977,246.551 420.07,246.351 420.163,246.15 420.256,245.951 420.256,245.65 420.256,245.351 420.163,244.951 
		419.418,244.051 419.138,243.151 419.23,242.351 419.697,241.551 420.35,240.851 421.188,240.051 422.027,239.351 422.866,238.551 
		423.611,237.851 424.078,236.951 424.171,236.851 424.265,236.851 424.265,236.751 424.357,236.651 424.45,236.551 
		424.544,236.451 424.544,236.451 424.637,236.351 424.73,236.251 424.73,236.151 430.416,251.15 430.043,251.251 429.576,251.451 
		429.11,251.551 428.738,251.751 428.272,251.851 427.898,252.051 427.433,252.251 427.061,252.451 426.595,252.65 426.222,252.851 
		385.024,247.351 384.838,247.251 384.65,247.251 384.465,247.15 384.278,247.15 384.185,247.15 383.999,247.051 383.813,247.051 
		383.533,247.051 383.347,247.051 383.16,247.051 389.312,252.65 389.405,252.851 389.592,253.051 389.777,253.251 389.871,253.351 
		390.058,253.551 390.243,253.65 390.431,253.851 390.616,254.051 390.803,254.15 391.082,254.251 389.312,252.65 388.845,252.051 
		388.379,251.451 388.007,250.751 387.635,250.15 387.262,249.551 386.888,248.951 386.515,248.451 386.049,248.051 385.583,247.65 
		385.024,247.351 426.222,252.851 426.035,252.951 425.756,253.15 425.568,253.251 425.382,253.351 425.103,253.551 424.916,253.65 
		424.73,253.751 424.544,253.951 424.357,254.15 424.078,254.251 425.662,256.351 426.688,256.251 427.619,256.051 428.459,255.951 
		429.391,255.751 430.229,255.551 431.068,255.251 431.813,254.951 432.56,254.65 433.212,254.251 433.864,253.751 447.752,255.15 
		430.789,281.551 410.937,292.951 411.029,292.851 411.122,292.851 411.215,292.751 411.309,292.65 411.401,292.451 
		411.401,292.351 411.495,292.251 411.495,292.15 411.495,292.051 411.495,291.851 410.097,293.451 410.004,293.451 
		410.004,293.451 409.91,293.451 409.91,293.451 409.816,293.451 409.816,293.551 409.724,293.551 409.724,293.551 409.631,293.551 
		409.631,293.551 408.979,293.551 408.512,293.551 408.325,293.65 408.232,293.65 408.232,293.65 408.325,293.65 408.605,293.65 
		408.885,293.65 409.165,293.65 409.631,293.551 409.631,293.551 409.631,293.551 409.724,293.551 409.724,293.551 409.724,293.551 
		409.816,293.551 409.816,293.551 409.816,293.551 409.91,293.551 409.91,293.551 409.444,293.751 408.232,294.251 406.461,295.051 
		404.412,296.051 402.36,297.15 400.496,298.251 399.005,299.351 398.26,300.351 398.354,301.051 399.657,301.551 399.751,301.551 
		399.844,301.551 399.937,301.551 400.03,301.65 400.124,301.65 400.218,301.65 400.403,301.751 400.496,301.751 400.59,301.851 
		400.684,301.851 398.539,303.65 400.684,301.851 403.945,303.451 408.325,306.051 413.452,309.351 418.951,313.251 
		424.544,317.251 429.856,321.251 434.61,324.751 438.338,327.65 440.948,329.551 441.787,330.351 442.346,330.451 442.719,330.751 
		442.812,330.951 442.812,331.251 442.719,331.351 442.532,331.451 442.346,331.451 442.159,331.251 441.974,330.951 
		441.787,330.351 441.787,330.351 	"/>
	<polygon fill="#1B171B" points="417.367,258.051 412.706,263.15 417.46,258.051 417.46,258.051 	"/>
	<polygon fill="#1B171B" points="395.743,205.651 395.649,206.751 395.091,207.651 394.159,208.451 392.946,208.951 
		391.642,209.151 390.243,209.151 388.938,208.851 387.82,208.151 386.888,207.151 386.329,205.651 387.354,205.551 
		388.379,205.651 389.312,206.051 390.243,206.651 391.175,207.151 392.107,207.551 393.039,207.651 393.879,207.551 
		394.811,206.851 395.743,205.651 395.743,205.651 	"/>
	<polygon fill="#1B171B" points="360.697,179.051 359.579,173.151 360.697,176.151 360.697,179.051 360.697,179.051 	"/>
	<polygon fill="#1B171B" points="361.443,212.451 362.654,211.651 365.45,212.451 361.537,212.451 361.537,212.451 	"/>
</g>
</svg>
