<?xml version="1.0" encoding="utf-8"?>
<!-- Generator: Adobe Illustrator 14.0.0, SVG Export Plug-In . SVG Version: 6.00 Build 43363)  -->
<!DOCTYPE svg PUBLIC "-//W3C//DTD SVG 1.1//EN" "http://www.w3.org/Graphics/SVG/1.1/DTD/svg11.dtd">
<svg version="1.1" id="Calque_1" xmlns="http://www.w3.org/2000/svg" xmlns:xlink="http://www.w3.org/1999/xlink" x="0px" y="0px"
	 width="500px" height="500px" viewBox="0 0 500 500" enable-background="new 0 0 500 500" xml:space="preserve">
<polygon fill-rule="evenodd" clip-rule="evenodd" points="268.514,102.318 271.488,103.234 274.275,104.149 277.249,104.882 
	280.219,105.798 283.192,106.531 286.167,107.264 289.142,107.996 292.115,108.729 295.09,109.645 298.059,110.377 300.846,111.293 
	303.82,112.393 306.607,113.309 309.396,114.59 312.184,115.689 314.971,117.155 316.458,117.704 317.944,118.437 319.245,119.353 
	320.732,120.086 322.22,120.818 323.707,121.551 325.188,122.283 326.862,122.649 326.494,120.452 326.862,118.253 327.795,116.238 
	329.276,114.407 330.95,112.576 332.997,111.11 334.852,109.645 336.712,108.363 338.94,107.264 341.36,106.531 343.961,105.981 
	346.562,105.615 349.35,105.431 352.138,105.615 354.738,106.164 357.34,106.897 359.94,108.545 362.354,110.56 364.402,112.759 
	366.444,115.14 368.117,117.888 369.417,120.634 370.531,123.382 371.278,126.313 373.879,127.046 376.667,127.046 379.64,126.863 
	382.61,126.496 385.396,126.679 387.63,127.412 389.117,129.245 389.858,132.358 385.771,135.838 389.858,140.417 388.932,142.432 
	387.63,143.715 385.957,144.081 384.098,144.081 382.056,143.896 380.008,143.896 378.154,144.081 376.479,144.997 376.853,146.095 
	377.78,147.378 378.895,148.844 380.008,150.308 381.309,151.774 382.428,152.873 382.982,153.605 383.355,153.971 295.83,153.788 
	291.929,150.675 287.841,147.927 283.565,145.362 279.291,143.164 274.644,141.333 270.001,139.868 265.167,138.585 260.523,137.67 
	255.503,136.937 250.674,136.57 245.842,136.57 241.01,136.937 236.179,137.486 231.348,138.402 226.702,139.501 222.242,140.966 
	201.057,151.774 117.622,152.141 117.622,151.041 117.807,148.659 117.622,145.912 117.436,144.081 120.595,141.516 
	118.922,140.601 116.506,140.051 114.09,139.868 111.675,139.501 109.63,138.952 108.144,137.852 107.586,135.838 108.144,132.907 
	111.303,131.259 110.002,129.426 108.702,127.412 108.33,125.214 109.63,123.2 111.488,122.1 113.347,121.551 115.391,121.367 
	117.622,121.551 119.666,121.917 121.895,122.1 124.125,122.283 126.169,122.1 126.541,119.536 127.471,116.972 128.771,114.407 
	130.443,112.026 132.487,109.645 134.717,107.63 136.948,105.798 139.176,104.333 141.779,103.783 144.752,103.234 147.725,103.234 
	150.884,103.417 153.857,103.783 156.831,104.516 159.804,105.615 162.405,106.897 163.707,108.179 165.008,109.462 
	166.308,110.927 167.423,112.576 168.352,114.407 169.096,116.056 169.467,118.07 169.653,120.086 173.184,118.62 176.715,117.155 
	180.245,115.689 183.961,114.223 187.492,112.759 191.209,111.477 194.925,110.194 198.642,108.912 202.544,107.813 
	206.446,106.714 210.35,105.798 214.252,104.882 218.154,103.967 222.242,103.417 226.33,102.685 230.418,102.318 231.534,99.571 
	233.021,97.007 234.693,94.808 236.922,92.977 239.153,91.328 241.754,90.045 244.542,89.13 247.33,88.581 250.86,88.948 
	254.202,89.679 257.363,90.778 260.15,92.244 262.938,94.075 265.167,96.457 267.026,99.204 268.514,102.318 "/>
<polygon fill-rule="evenodd" clip-rule="evenodd" points="240.267,107.447 239.896,107.996 239.153,108.179 238.223,108.363 
	237.109,108.363 235.809,108.545 234.507,108.363 233.206,108.363 232.09,108.363 233.021,108.179 234.135,107.996 235.065,107.996 
	236.179,108.179 237.294,108.179 238.223,107.996 239.338,107.813 240.267,107.447 "/>
<polygon fill-rule="evenodd" clip-rule="evenodd" points="244.356,108.363 243.984,107.447 246.771,107.447 244.356,108.363 "/>
<polygon fill-rule="evenodd" clip-rule="evenodd" points="249.933,107.996 250.487,107.447 257.177,107.996 249.933,107.996 "/>
<polygon fill-rule="evenodd" clip-rule="evenodd" points="267.954,108.912 267.399,108.912 260.338,108.363 261.265,108.363 
	266.467,108.912 267.954,108.912 "/>
<polygon fill-rule="evenodd" clip-rule="evenodd" points="280.405,111.477 269.628,110.011 271.115,110.011 272.603,110.194 
	273.902,110.377 275.202,110.56 276.504,110.744 277.804,110.927 279.104,111.293 280.405,111.477 "/>
<polygon fill-rule="evenodd" clip-rule="evenodd" points="284.493,112.941 292.855,115.14 284.493,112.941 "/>
<polygon fill-rule="evenodd" clip-rule="evenodd" points="297.317,116.604 299.546,117.521 297.317,116.604 "/>
<polygon fill-rule="evenodd" clip-rule="evenodd" points="301.592,118.07 303.634,119.17 301.592,118.07 "/>
<polygon fill-rule="evenodd" clip-rule="evenodd" points="329.463,123.749 334.11,125.763 329.463,123.749 "/>
<polygon fill-rule="evenodd" clip-rule="evenodd" points="330.95,132.358 330.022,132.724 329.096,132.541 327.976,131.992 
	326.862,130.892 325.562,129.793 324.262,128.693 322.961,127.779 321.66,127.229 330.95,132.358 "/>
<polygon fill-rule="evenodd" clip-rule="evenodd" points="161.291,134.922 159.804,132.358 161.104,131.808 162.405,131.259 
	163.893,131.075 165.193,130.709 166.68,130.526 168.167,130.159 169.467,129.61 170.583,128.877 161.291,134.922 "/>
<polygon fill-rule="evenodd" clip-rule="evenodd" points="340.24,135.471 339.313,137.486 340.614,138.769 342.102,140.233 
	343.774,141.516 345.448,142.799 347.304,143.715 349.163,144.629 351.205,144.997 353.251,144.997 350.65,144.997 348.049,144.448 
	345.634,143.531 343.028,142.066 340.614,140.233 338.012,138.402 335.598,136.388 332.997,134.373 333.924,134.556 
	335.039,134.556 335.972,134.373 337.085,134.373 338.012,134.373 338.94,134.556 339.687,134.922 340.24,135.471 "/>
<polygon fill-rule="evenodd" clip-rule="evenodd" points="364.028,135.471 373.318,135.838 364.028,135.471 "/>
<polygon fill-rule="evenodd" clip-rule="evenodd" points="357.34,135.838 359.381,135.838 357.34,135.838 "/>
<polygon fill-rule="evenodd" clip-rule="evenodd" points="258.109,138.952 258.478,172.655 258.291,206.725 257.55,241.525 
	256.622,278.159 233.578,278.159 235.622,140.417 238.41,140.417 241.01,140.233 243.613,139.868 246.214,139.501 248.814,139.135 
	251.602,138.952 254.762,138.769 258.109,138.952 "/>
<polygon fill-rule="evenodd" clip-rule="evenodd" points="357.713,144.997 370.163,145.545 357.713,144.997 "/>
<polygon fill-rule="evenodd" clip-rule="evenodd" points="372.766,144.997 373.879,144.997 372.766,144.997 "/>
<polygon fill-rule="evenodd" clip-rule="evenodd" points="167.608,153.238 168.352,155.62 167.98,157.818 166.865,159.833 
	165.936,161.848 165.008,162.031 164.079,162.214 163.149,162.581 162.22,162.947 161.291,163.314 160.547,163.863 159.804,164.596 
	159.247,165.511 186.192,303.619 187.864,304.717 189.908,305.269 192.137,305.637 194.368,305.82 196.226,306.366 197.713,307.286 
	198.27,309.114 197.899,311.862 195.483,312.598 193.439,313.88 191.766,315.524 190.094,317.357 188.792,319.375 187.492,321.571 
	186.192,323.583 185.077,325.601 182.476,327.98 179.873,330.183 177.085,332.194 174.112,334.212 171.139,336.04 168.167,337.689 
	165.008,339.155 161.848,340.438 158.504,341.535 154.972,342.271 151.628,343.001 148.097,343.369 144.566,343.553 
	140.851,343.369 137.132,343.001 133.416,342.271 130.628,341.352 128.027,340.254 125.24,339.155 122.639,337.874 120.037,336.592 
	117.622,335.126 115.019,333.477 112.604,331.826 110.374,329.998 108.144,327.98 106.099,325.785 104.055,323.583 102.198,321.203 
	100.339,318.823 98.852,316.075 97.366,313.328 96.438,313.328 95.322,313.144 94.394,312.776 93.65,312.414 92.906,311.862 
	92.348,311.132 92.163,310.396 92.163,309.298 92.163,307.465 92.534,306.366 93.65,305.637 94.95,305.085 96.438,304.9 
	98.109,304.717 99.595,304.538 100.897,304.171 102.755,302.337 104.055,299.589 104.799,296.479 105.542,293.547 135.088,162.947 
	133.416,162.581 131.93,162.031 130.443,161.298 129.143,160.382 127.842,159.467 126.727,158.367 125.983,157.085 125.24,155.804 
	125.611,152.689 128.214,152.873 130.815,153.055 133.231,153.238 135.832,153.238 138.434,153.238 141.221,153.422 
	143.823,153.422 146.424,153.422 149.026,153.422 151.628,153.422 154.415,153.422 157.017,153.238 159.618,153.238 162.22,153.238 
	165.008,153.238 167.608,153.238 "/>
<polygon fill-rule="evenodd" clip-rule="evenodd" points="369.604,156.353 370.531,157.452 370.718,159.1 370.531,160.933 
	370.163,162.397 361.986,168.441 389.304,306.734 390.419,308.568 392.272,309.666 394.506,310.028 396.734,310.212 398.78,310.396 
	400.268,311.315 400.636,312.96 399.709,315.892 396.921,316.806 394.875,318.271 393.205,320.289 391.904,322.485 390.604,324.687 
	389.304,327.066 387.816,328.895 385.771,330.545 382.982,333.292 380.008,335.856 376.853,338.058 373.506,339.886 369.978,341.72 
	366.444,343.186 362.729,344.283 359.014,345.197 355.112,345.933 351.205,346.301 347.304,346.479 343.4,346.301 339.499,345.933 
	335.598,345.381 331.696,344.467 327.795,343.369 325.007,342.449 322.22,341.168 319.618,339.702 317.198,338.058 314.598,336.224 
	312.369,334.391 310.137,332.194 307.908,329.998 305.867,327.797 303.82,325.601 301.96,323.221 299.919,320.836 298.059,318.455 
	296.39,316.26 294.53,314.059 292.855,311.862 293.229,310.028 294.157,308.747 295.457,308.2 296.944,308.017 298.618,308.017 
	300.291,308.017 301.778,307.832 303.079,307.286 336.712,166.977 334.852,166.427 332.811,165.695 330.764,164.962 
	328.908,164.045 327.049,162.947 325.562,161.666 324.448,159.833 323.707,157.818 324.262,156.353 369.604,156.353 "/>
<polygon fill-rule="evenodd" clip-rule="evenodd" fill="#F9F9F9" points="144.38,166.977 141.221,304.171 108.702,303.619 
	110.56,294.829 112.604,285.851 114.648,277.061 116.506,268.266 118.551,259.293 120.595,250.503 122.639,241.709 124.683,232.917 
	126.912,224.125 128.956,215.333 131,206.541 133.231,197.749 135.275,188.956 137.504,180.348 139.548,171.556 141.779,162.947 
	143.265,163.13 144.008,164.229 144.38,165.695 144.38,166.977 "/>
<polygon fill-rule="evenodd" clip-rule="evenodd" fill="#F2F2F2" points="154.601,165.877 157.945,183.278 161.291,200.68 
	164.449,218.081 167.795,235.481 170.953,252.883 174.112,270.468 177.085,287.684 179.873,305.085 178.015,305.269 
	175.971,305.452 174.112,305.452 172.255,305.637 170.396,305.637 168.538,305.637 166.68,305.452 164.821,305.452 162.963,305.452 
	161.104,305.452 159.247,305.269 157.388,305.269 155.531,305.269 153.672,305.085 151.813,305.085 149.955,305.085 
	147.911,300.509 148.469,266.438 149.211,231.451 150.141,196.833 151.442,162.947 154.601,165.877 "/>
<polygon fill-rule="evenodd" clip-rule="evenodd" fill="#F3F3F3" points="342.848,307.286 341.173,307.832 339.499,308.2 
	337.64,308.384 335.598,308.568 333.552,308.568 331.51,308.568 329.276,308.568 327.049,308.384 324.82,308.2 322.587,308.017 
	320.358,307.832 318.131,307.648 315.897,307.465 313.856,307.465 311.811,307.286 309.769,307.286 311.623,298.491 
	313.297,289.701 315.157,280.906 317.198,271.934 319.06,263.139 321.101,254.349 323.146,245.555 325.188,236.581 327.422,227.788 
	329.463,218.996 331.51,210.204 333.738,201.412 335.784,192.621 338.012,183.829 340.24,175.219 342.287,166.427 345.448,166.427 
	342.848,307.286 "/>
<polygon fill-rule="evenodd" clip-rule="evenodd" fill="#F3F3F3" points="355.665,166.427 359.381,183.829 363.102,201.412 
	366.63,219.18 370.163,236.947 373.692,254.896 377.039,272.848 380.382,290.8 383.543,308.747 351.022,308.747 350.276,272.663 
	350.276,236.763 351.205,201.412 352.692,166.427 355.665,166.427 "/>
<polygon fill-rule="evenodd" clip-rule="evenodd" points="264.425,278.711 264.612,285.304 265.167,291.897 266.099,298.308 
	267.586,304.717 269.255,310.948 271.488,316.989 273.902,323.037 276.689,328.717 280.037,334.212 283.565,339.702 
	287.467,344.835 291.742,349.595 296.39,354.176 301.405,358.568 306.795,362.598 312.369,366.265 312.369,367.179 179.316,364.615 
	179.316,363.149 184.891,359.487 190.28,355.274 195.112,351.061 199.757,346.479 203.845,341.72 207.748,336.775 211.278,331.464 
	214.437,326.152 217.225,320.474 219.641,314.794 221.871,308.931 223.542,302.889 225.03,296.842 226.145,290.615 226.889,284.39 
	227.445,278.159 228.375,277.612 264.425,278.711 "/>
<polygon fill-rule="evenodd" clip-rule="evenodd" points="108.144,318.455 107.215,317.357 106.286,315.892 105.542,314.426 
	105.542,312.776 106.099,313.695 107.03,314.978 107.958,316.627 108.144,318.455 "/>
<polygon fill-rule="evenodd" clip-rule="evenodd" points="146.796,313.328 147.167,315.708 147.911,318.271 149.211,320.657 
	150.699,322.854 152.556,325.049 154.415,326.883 156.459,328.717 158.317,330.183 155.531,328.895 153.115,327.251 151.07,325.417 
	149.211,323.405 147.725,321.203 146.239,318.823 144.938,316.075 143.823,313.328 146.796,313.328 "/>
<polygon fill-rule="evenodd" clip-rule="evenodd" points="183.961,315.346 183.961,315.892 181.545,314.794 182.104,314.794 
	182.847,314.609 183.404,314.794 183.961,315.346 "/>
<polygon fill-rule="evenodd" clip-rule="evenodd" points="228.375,316.443 227.817,316.989 226.702,317.174 225.773,316.989 
	225.773,315.892 228.375,316.443 "/>
<polygon fill-rule="evenodd" clip-rule="evenodd" points="306.795,319.375 308.281,319.737 309.209,320.657 309.955,321.571 
	310.509,322.854 310.882,323.951 311.256,325.049 311.996,325.969 312.924,326.515 311.996,325.785 310.696,324.865 
	309.396,323.768 308.281,322.485 307.167,321.02 306.234,319.554 306.048,317.909 306.234,316.443 308.281,316.443 306.795,319.375 
	"/>
<polygon fill-rule="evenodd" clip-rule="evenodd" points="351.022,317.357 350.837,317.357 350.09,317.726 349.35,318.088 
	348.417,318.64 347.862,319.375 347.49,320.105 347.862,321.02 348.977,321.939 350.65,324.687 352.692,327.066 354.738,328.895 
	356.966,330.545 359.381,332.011 361.8,333.477 364.215,334.942 366.63,336.775 365.702,337.138 364.774,337.322 363.656,337.138 
	362.541,337.138 363.47,336.775 363.102,335.494 362.169,334.574 361.054,334.212 359.568,334.028 358.268,333.844 357.152,333.292 
	356.411,332.194 356.226,330.545 354.365,329.263 352.692,327.98 351.022,326.515 349.536,324.687 348.049,323.037 346.562,321.203 
	345.262,319.191 343.961,317.357 344.701,316.989 345.634,316.627 346.375,316.627 347.304,316.627 348.236,316.806 
	349.163,316.989 350.09,317.174 351.022,317.357 "/>
<polygon fill-rule="evenodd" clip-rule="evenodd" points="386.144,319.375 376.853,317.909 378.154,318.088 379.453,317.909 
	380.94,317.909 382.428,317.726 383.543,317.726 384.656,317.909 385.583,318.455 386.144,319.375 "/>
<polygon fill-rule="evenodd" clip-rule="evenodd" points="112.79,321.939 112.79,322.485 110.188,321.388 110.746,321.388 
	111.488,321.388 112.231,321.388 112.79,321.939 "/>
<polygon fill-rule="evenodd" clip-rule="evenodd" points="244.356,325.601 241.94,325.601 242.683,325.233 243.426,324.687 
	244.17,324.687 244.356,325.601 "/>
<polygon fill-rule="evenodd" clip-rule="evenodd" points="116.878,326.515 116.878,327.613 114.276,325.601 115.019,325.785 
	115.948,325.785 116.506,325.969 116.878,326.515 "/>
<polygon fill-rule="evenodd" clip-rule="evenodd" points="318.131,331.643 314.971,328.532 318.499,328.532 318.131,331.643 "/>
<polygon fill-rule="evenodd" clip-rule="evenodd" points="123.567,331.097 122.639,331.643 121.338,331.28 120.408,330.36 
	120.595,329.631 121.523,329.263 122.267,329.814 123.01,330.545 123.567,331.097 "/>
<polygon fill-rule="evenodd" clip-rule="evenodd" points="161.291,334.212 160.361,331.097 163.893,332.563 161.291,334.212 "/>
<polygon fill-rule="evenodd" clip-rule="evenodd" points="243.984,334.212 241.94,334.212 242.125,333.844 242.498,333.477 
	243.241,333.292 243.984,333.108 243.984,334.212 "/>
<polygon fill-rule="evenodd" clip-rule="evenodd" points="135.46,334.758 135.46,335.672 129.328,334.758 129.7,334.212 
	130.443,333.844 131.187,333.66 132.302,333.477 133.231,333.66 134.159,333.844 134.903,334.212 135.46,334.758 "/>
<polygon fill-rule="evenodd" clip-rule="evenodd" points="324.82,334.212 324.82,334.758 321.101,333.66 322.033,333.66 
	322.961,333.477 323.888,333.66 324.82,334.212 "/>
<polygon fill-rule="evenodd" clip-rule="evenodd" points="159.247,334.758 157.945,335.31 156.645,335.856 155.344,336.224 
	154.043,336.224 154.787,335.31 156.087,334.574 157.575,334.391 159.247,334.758 "/>
<polygon fill-rule="evenodd" clip-rule="evenodd" points="337.085,339.34 336.339,339.702 335.411,339.886 334.297,339.702 
	333.365,339.34 332.438,338.972 331.51,338.42 330.583,337.689 330.022,337.138 330.95,337.322 331.883,337.138 332.997,337.138 
	333.924,337.138 334.852,337.138 335.784,337.506 336.526,338.241 337.085,339.34 "/>
<polygon fill-rule="evenodd" clip-rule="evenodd" points="360.313,338.788 359.568,338.972 358.826,339.155 358.268,339.34 
	357.526,339.523 356.78,339.523 356.226,339.702 355.479,339.702 354.738,339.702 354.925,338.788 355.479,338.241 356.039,337.874 
	356.966,337.689 357.898,337.874 358.826,338.058 359.568,338.42 360.313,338.788 "/>
<polygon fill-rule="evenodd" clip-rule="evenodd" points="317.012,369.196 317.198,373.042 317.386,376.888 317.012,380.183 
	315.53,382.93 311.069,382.93 306.795,382.93 302.333,382.93 297.872,382.93 293.603,382.93 289.142,382.93 284.68,382.93 
	280.405,382.746 275.949,382.746 271.674,382.567 267.213,382.567 262.938,382.384 258.478,382.384 254.202,382.2 249.747,382.016 
	245.47,382.016 241.01,381.832 236.551,381.648 232.277,381.648 227.817,381.464 223.542,381.286 219.083,381.286 214.809,381.102 
	210.35,380.918 206.075,380.918 201.616,380.734 197.156,380.734 192.881,380.734 188.421,380.55 183.961,380.55 179.688,380.55 
	175.228,380.55 174.112,376.888 174.112,373.042 174.856,369.375 175.785,366.265 317.012,369.196 "/>
<polygon fill-rule="evenodd" clip-rule="evenodd" points="242.869,385.132 248.259,384.764 253.647,384.58 259.224,384.396 
	264.612,384.396 270.373,384.396 275.949,384.396 281.52,384.396 287.281,384.396 292.855,384.58 298.432,384.764 304.007,384.947 
	309.396,385.315 314.784,385.494 320.173,385.861 325.375,386.229 330.396,386.598 331.51,388.426 331.883,390.443 331.696,392.455 
	330.95,394.289 325.562,394.289 320.173,394.473 314.784,394.473 309.396,394.473 304.007,394.473 298.618,394.473 293.229,394.473 
	287.841,394.473 282.452,394.289 276.877,394.289 271.488,394.289 266.099,394.104 260.71,394.104 255.135,393.921 249.747,393.737 
	244.356,393.737 238.781,393.553 233.392,393.375 228.002,393.375 222.428,393.19 217.039,393.007 211.65,392.823 206.075,392.823 
	200.686,392.639 195.297,392.455 189.722,392.455 184.333,392.271 178.944,392.093 173.556,392.093 167.98,391.909 162.591,391.725 
	157.203,391.725 156.273,390.075 155.531,388.063 155.344,385.861 156.087,383.481 158.317,382.016 163.707,382.2 168.909,382.2 
	174.299,382.384 179.688,382.384 184.891,382.567 190.28,382.567 195.668,382.567 200.872,382.746 206.261,382.93 211.65,382.93 
	216.854,383.298 222.057,383.481 227.26,383.85 232.462,384.212 237.666,384.58 242.869,385.132 "/>
<polygon fill-rule="evenodd" clip-rule="evenodd" points="240.825,395.203 241.94,396.669 243.055,396.484 244.356,395.755 
	246.028,395.203 340.8,397.767 342.474,399.784 343.588,401.796 343.961,403.998 343.961,406.378 337.64,409.493 147.354,405.826 
	145.68,405.279 144.566,404.182 143.637,402.716 142.151,401.25 142.151,399.049 142.708,396.669 143.823,394.841 145.867,393.737 
	152,393.553 158.132,393.375 164.079,393.375 170.024,393.375 175.785,393.375 181.732,393.553 187.307,393.737 193.068,394.104 
	198.829,394.289 204.589,394.473 210.536,394.841 216.296,395.019 222.242,395.203 228.375,395.203 234.507,395.203 
	240.825,395.203 "/>
</svg>
