<?xml version="1.0" encoding="utf-8"?>
<!-- Generator: Adobe Illustrator 14.0.0, SVG Export Plug-In . SVG Version: 6.00 Build 43363)  -->
<!DOCTYPE svg PUBLIC "-//W3C//DTD SVG 1.1//EN" "http://www.w3.org/Graphics/SVG/1.1/DTD/svg11.dtd">
<svg version="1.1" id="Calque_1" xmlns="http://www.w3.org/2000/svg" xmlns:xlink="http://www.w3.org/1999/xlink" x="0px" y="0px"
	 width="500px" height="500px" viewBox="0 0 500 500" enable-background="new 0 0 500 500" xml:space="preserve">
<g>
	<polygon fill="#F8CBCC" points="138.771,312.326 137.99,316.738 137.99,321.867 139.552,326.996 141.11,333.601 143.454,340.936 
		146.574,348.271 148.914,357.082 150.476,365.878 152.037,375.419 152.814,385.678 153.595,390.09 155.158,395.22 157.498,400.348 
		160.617,406.222 163.741,411.351 167.643,416.493 170.763,421.623 174.665,426.021 177.786,428.957 180.125,431.164 
		184.806,434.832 188.708,439.229 191.051,443.629 192.609,448.771 193.39,453.17 194.171,458.299 194.171,461.966 194.171,465.634 
		194.171,467.108 193.39,467.84 202.755,467.84 216.018,467.84 231.623,467.84 249.572,467.84 268.293,467.84 285.462,467.84 
		301.852,467.84 314.332,467.84 322.913,467.84 326.037,467.84 326.037,464.172 326.037,459.774 325.261,453.899 326.037,448.025 
		326.037,442.166 326.813,435.562 328.376,429.688 329.938,424.56 333.063,420.161 336.178,417.224 340.865,413.557 
		345.543,407.683 349.444,400.348 352.57,393.013 355.685,384.217 358.026,376.15 360.372,368.085 361.927,360.75 363.488,355.606 
		364.273,351.938 365.05,349.002 365.828,346.079 366.612,342.412 366.612,337.999 367.39,333.601 367.39,329.202 366.612,324.073 
		365.828,319.661 364.273,314.532 361.927,309.403 358.811,304.26 355.685,299.862 353.346,295.464 350.222,291.065 
		347.883,287.397 345.543,284.461 343.204,281.524 341.643,279.317 340.865,277.856 340.865,277.856 341.643,271.252 
		341.643,265.393 341.643,260.249 340.865,255.117 340.081,250.718 339.303,247.051 338.518,244.114 337.741,240.446 
		337.741,238.247 337.741,235.313 337.741,233.111 337.741,230.178 337.741,226.51 336.964,223.577 336.964,219.909 
		336.178,216.976 336.178,214.042 335.401,211.106 335.401,208.906 335.401,207.438 335.401,205.973 335.401,203.04 
		335.401,200.837 335.401,197.17 336.178,193.502 336.178,189.835 336.964,186.167 337.741,182.499 337.741,178.098 338.518,174.43 
		338.518,171.496 338.518,167.829 338.518,162.697 338.518,157.561 337.741,152.425 337.741,148.026 337.741,142.891 
		336.964,139.223 336.964,135.555 336.178,133.356 336.178,131.888 335.401,129.688 335.401,126.751 335.401,123.818 
		335.401,120.15 335.401,116.483 335.401,112.815 335.401,109.147 335.401,105.48 335.401,102.547 336.178,96.68 336.178,90.076 
		335.401,83.475 334.616,76.14 333.063,69.539 330.716,62.938 327.599,57.067 324.475,52.669 319.796,49.733 314.332,47.533 
		311.209,47.533 308.092,48.268 304.968,49.733 302.628,51.201 301.066,52.669 299.505,54.134 298.727,55.603 297.949,57.067 
		297.165,57.801 297.165,58.536 296.389,60.735 295.603,63.672 295.603,66.605 294.826,70.272 294.049,73.94 294.049,76.874 
		293.265,80.542 293.265,84.208 293.265,87.142 293.265,90.076 294.049,95.211 293.265,101.079 293.265,106.214 292.487,111.351 
		292.487,117.217 291.701,122.354 290.924,127.486 290.147,132.622 290.147,137.754 290.147,142.156 290.147,149.491 
		289.362,156.092 289.362,161.228 287.8,166.364 287.022,170.763 286.246,175.164 284.684,178.832 283.899,182.499 283.122,186.167 
		283.122,189.835 282.345,194.236 282.345,198.638 281.561,204.505 280.782,209.641 279.997,215.507 279.22,221.377 279.22,227.244 
		279.22,232.38 279.22,236.778 280.782,241.181 279.22,233.111 278.443,225.776 277.657,219.175 276.881,213.309 275.319,208.173 
		273.758,203.771 270.641,200.103 266.74,197.17 261.275,195.705 255.031,194.236 248.791,194.236 243.327,196.435 238.645,199.372 
		235.524,203.771 232.403,208.173 229.284,213.309 227.722,216.976 226.164,220.644 225.383,223.577 225.383,224.311 
		223.039,222.109 219.138,219.909 214.459,219.175 209.776,218.441 204.313,219.175 198.854,219.909 193.39,221.377 
		188.708,224.311 184.806,227.244 182.467,231.646 180.905,236.048 178.566,240.446 177.003,244.848 175.446,249.25 
		173.103,252.918 171.544,255.851 169.982,258.788 169.201,260.249 168.42,261.725 168.42,261.725 159.059,266.123 152.814,270.521 
		148.136,274.92 145.793,280.063 144.235,285.191 143.454,291.065 143.454,296.194 142.672,301.323 141.11,307.197 139.552,312.326 
		139.552,312.326 	"/>
	<polyline fill="none" stroke="#000000" stroke-width="0.2" stroke-linecap="square" stroke-miterlimit="10" points="
		138.771,312.326 137.99,316.738 137.99,321.867 139.552,326.996 141.11,333.601 143.454,340.936 146.574,348.271 148.914,357.082 
		150.476,365.878 152.037,375.419 152.814,385.678 153.595,390.09 155.158,395.22 157.498,400.348 160.617,406.222 163.741,411.351 
		167.643,416.493 170.763,421.623 174.665,426.021 177.786,428.957 180.125,431.164 184.806,434.832 188.708,439.229 
		191.051,443.629 192.609,448.771 193.39,453.17 194.171,458.299 194.171,461.966 194.171,465.634 194.171,467.108 193.39,467.84 
		202.755,467.84 216.018,467.84 231.623,467.84 249.572,467.84 268.293,467.84 285.462,467.84 301.852,467.84 314.332,467.84 
		322.913,467.84 326.037,467.84 326.037,464.172 326.037,459.774 325.261,453.899 326.037,448.025 326.037,442.166 326.813,435.562 
		328.376,429.688 329.938,424.56 333.063,420.161 336.178,417.224 340.865,413.557 345.543,407.683 349.444,400.348 352.57,393.013 
		355.685,384.217 358.026,376.15 360.372,368.085 361.927,360.75 363.488,355.606 364.273,351.938 365.05,349.002 365.828,346.079 
		366.612,342.412 366.612,337.999 367.39,333.601 367.39,329.202 366.612,324.073 365.828,319.661 364.273,314.532 361.927,309.403 
		358.811,304.26 355.685,299.862 353.346,295.464 350.222,291.065 347.883,287.397 345.543,284.461 343.204,281.524 
		341.643,279.317 340.865,277.856 340.865,277.856 341.643,271.252 341.643,265.393 341.643,260.249 340.865,255.117 
		340.081,250.718 339.303,247.051 338.518,244.114 337.741,240.446 337.741,238.247 337.741,235.313 337.741,233.111 
		337.741,230.178 337.741,226.51 336.964,223.577 336.964,219.909 336.178,216.976 336.178,214.042 335.401,211.106 
		335.401,208.906 335.401,207.438 335.401,205.973 335.401,203.04 335.401,200.837 335.401,197.17 336.178,193.502 336.178,189.835 
		336.964,186.167 337.741,182.499 337.741,178.098 338.518,174.43 338.518,171.496 338.518,167.829 338.518,162.697 
		338.518,157.561 337.741,152.425 337.741,148.026 337.741,142.891 336.964,139.223 336.964,135.555 336.178,133.356 
		336.178,131.888 335.401,129.688 335.401,126.751 335.401,123.818 335.401,120.15 335.401,116.483 335.401,112.815 
		335.401,109.147 335.401,105.48 335.401,102.547 336.178,96.68 336.178,90.076 335.401,83.475 334.616,76.14 333.063,69.539 
		330.716,62.938 327.599,57.067 324.475,52.669 319.796,49.733 314.332,47.533 311.209,47.533 308.092,48.268 304.968,49.733 
		302.628,51.201 301.066,52.669 299.505,54.134 298.727,55.603 297.949,57.067 297.165,57.801 297.165,58.536 296.389,60.735 
		295.603,63.672 295.603,66.605 294.826,70.272 294.049,73.94 294.049,76.874 293.265,80.542 293.265,84.208 293.265,87.142 
		293.265,90.076 294.049,95.211 293.265,101.079 293.265,106.214 292.487,111.351 292.487,117.217 291.701,122.354 290.924,127.486 
		290.147,132.622 290.147,137.754 290.147,142.156 290.147,149.491 289.362,156.092 289.362,161.228 287.8,166.364 287.022,170.763 
		286.246,175.164 284.684,178.832 283.899,182.499 283.122,186.167 283.122,189.835 282.345,194.236 282.345,198.638 
		281.561,204.505 280.782,209.641 279.997,215.507 279.22,221.377 279.22,227.244 279.22,232.38 279.22,236.778 280.782,241.181 
		279.22,233.111 278.443,225.776 277.657,219.175 276.881,213.309 275.319,208.173 273.758,203.771 270.641,200.103 266.74,197.17 
		261.275,195.705 255.031,194.236 248.791,194.236 243.327,196.435 238.645,199.372 235.524,203.771 232.403,208.173 
		229.284,213.309 227.722,216.976 226.164,220.644 225.383,223.577 225.383,224.311 223.039,222.109 219.138,219.909 
		214.459,219.175 209.776,218.441 204.313,219.175 198.854,219.909 193.39,221.377 188.708,224.311 184.806,227.244 
		182.467,231.646 180.905,236.048 178.566,240.446 177.003,244.848 175.446,249.25 173.103,252.918 171.544,255.851 
		169.982,258.788 169.201,260.249 168.42,261.725 168.42,261.725 159.059,266.123 152.814,270.521 148.136,274.92 145.793,280.063 
		144.235,285.191 143.454,291.065 143.454,296.194 142.672,301.323 141.11,307.197 139.552,312.326 139.552,312.326 	"/>
	<polyline fill="none" stroke="#000000" stroke-width="0.2" stroke-linecap="square" stroke-miterlimit="10" points="
		340.081,277.125 336.964,274.188 333.84,270.521 329.938,266.854 326.813,263.917 322.913,260.98 319.796,258.058 317.456,255.851 
		315.109,253.652 312.771,252.183 311.993,250.718 310.431,249.984 308.869,248.516 307.308,247.781 305.753,246.316 
		303.406,244.848 301.066,244.114 298.727,242.649 295.603,241.915 291.701,241.915 287.8,241.181 283.899,241.181 279.22,241.181 
		274.542,241.181 269.855,241.181 265.177,241.181 260.491,241.181 256.589,241.181 252.691,241.181 249.572,240.446 
		247.229,240.446 244.89,239.715 241.769,239.715 238.645,239.715 235.524,239.715 233.185,240.446 230.064,241.915 
		228.502,244.114 226.94,247.051 226.94,252.183 227.722,257.319 230.064,263.917 233.966,269.79 240.207,274.92 246.447,279.317 
		254.25,282.985 262.053,285.923 269.078,287.397 276.096,288.859 281.561,288.128 286.246,287.397 287.022,293.988 
		288.584,300.592 290.924,306.467 293.265,313.07 296.389,318.931 300.289,324.073 304.191,328.473 308.869,332.14 312.771,334.332 
		317.456,335.076 	"/>
	<polyline fill="none" stroke="#000000" stroke-width="0.2" stroke-linecap="square" stroke-miterlimit="10" points="
		292.487,310.134 295.603,317.47 294.826,324.073 291.701,329.933 287.022,335.076 280.782,337.999 274.542,339.475 
		267.517,338.744 261.275,335.076 255.813,329.202 251.91,319.661 249.572,310.865 248.01,303.53 245.671,296.925 244.108,291.065 
		242.546,286.652 241.769,282.255 240.988,279.317 240.207,277.125 239.426,275.649 239.426,274.92 	"/>
	<polyline fill="none" stroke="#000000" stroke-width="0.2" stroke-linecap="square" stroke-miterlimit="10" points="
		167.643,261.725 171.544,262.455 174.665,262.455 177.786,262.455 180.905,262.455 184.806,262.455 187.927,263.186 
		191.051,263.917 193.39,265.393 196.511,266.854 198.854,269.79 200.413,273.458 202.755,277.856 205.095,283.73 207.434,289.59 
		208.996,296.194 211.335,302.799 213.678,309.403 215.237,315.993 217.58,322.598 219.919,328.473 223.039,335.076 
		227.722,340.205 233.185,343.873 237.867,345.335 243.327,346.079 248.791,345.335 253.473,343.873 257.375,341.667 
		260.491,339.475 262.053,335.808 	"/>
	<polygon fill="#CC908F" points="175.446,320.406 173.103,321.137 169.982,321.867 167.643,322.598 164.518,322.598 
		162.179,322.598 159.059,322.598 156.716,321.867 154.377,321.867 152.814,321.137 150.476,321.137 148.136,321.137 
		145.793,321.137 144.235,321.137 143.454,321.867 143.454,321.867 144.235,322.598 145.012,323.329 146.574,324.073 
		148.914,324.805 152.037,324.805 155.158,324.805 158.278,325.534 161.398,325.534 163.741,325.534 166.862,325.534 
		169.201,325.534 171.544,324.805 173.884,324.805 175.446,324.805 177.003,324.073 175.446,320.406 175.446,320.406 	"/>
	<polyline fill="none" stroke="#000000" stroke-width="0.2" stroke-linecap="square" stroke-miterlimit="10" points="
		228.502,340.936 226.164,343.873 222.262,346.079 219.138,348.271 214.459,349.747 210.559,350.477 205.875,351.208 
		201.975,351.208 197.292,349.747 193.39,347.54 190.271,344.604 187.15,340.936 184.806,337.269 182.467,334.332 180.125,331.409 
		178.566,327.741 177.003,324.805 176.223,321.137 174.665,317.47 173.884,313.802 173.103,310.134 169.982,308.658 
		166.862,307.197 163.741,304.99 160.617,302.067 158.278,299.131 155.939,296.194 153.595,293.988 152.037,291.796 151.256,290.32 
		150.476,289.59 	"/>
	<polyline fill="none" stroke="#000000" stroke-width="0.2" stroke-linecap="square" stroke-miterlimit="10" points="
		225.383,223.577 226.94,225.776 227.722,227.244 229.284,228.713 230.064,230.178 230.842,231.646 231.623,233.111 232.403,234.58 
		233.185,236.048 233.185,237.513 233.185,239.715 	"/>
	<polyline fill="none" stroke="#000000" stroke-width="0.2" stroke-linecap="square" stroke-miterlimit="10" points="
		297.165,319.661 296.389,321.867 295.603,324.805 294.049,327.741 291.701,329.933 290.147,332.87 288.584,335.808 287.8,338.744 
		287.022,341.667 287.022,344.604 287.8,346.81 	"/>
	<polygon fill="#CC908F" points="195.729,437.023 201.975,438.498 207.434,439.229 212.116,439.961 216.799,440.691 220.7,440.691 
		224.602,440.691 227.722,440.691 231.623,439.961 235.524,439.961 238.645,439.229 242.546,438.498 246.447,438.498 
		250.349,438.498 254.25,438.498 258.151,438.498 261.275,439.229 264.392,439.229 268.293,439.961 270.641,439.961 
		273.758,440.691 276.096,441.436 278.443,442.166 279.997,442.897 280.782,444.358 281.561,445.104 281.561,445.834 
		280.782,446.565 279.22,447.297 277.657,447.297 275.319,446.565 272.195,445.834 269.078,445.104 265.177,445.104 
		261.275,444.358 257.375,444.358 253.473,443.629 248.791,443.629 244.89,443.629 240.988,443.629 237.086,443.629 
		233.185,443.629 229.284,443.629 224.602,443.629 219.138,443.629 214.459,442.897 209.776,442.166 205.095,442.166 
		201.975,441.436 198.854,440.691 197.292,439.229 195.729,438.498 194.952,437.77 194.171,437.77 193.39,437.023 193.39,437.023 
		193.39,436.293 193.39,436.293 194.171,436.293 194.952,437.023 196.511,437.023 196.511,437.023 	"/>
	<polygon fill="#CC908F" points="269.078,343.143 262.837,349.002 256.589,354.875 251.13,362.211 245.671,370.277 241.769,378.342 
		239.426,385.678 237.867,393.758 238.645,400.348 240.988,406.952 244.89,412.096 248.01,413.557 250.349,415.763 253.473,417.224 
		256.589,418.687 258.937,419.432 261.275,420.161 262.837,420.161 263.615,420.161 263.615,419.432 262.053,418.687 
		259.714,417.224 256.589,415.019 253.473,413.557 250.349,411.351 247.229,409.159 244.89,406.222 243.327,402.555 
		242.546,398.156 242.546,393.758 243.327,387.884 245.671,382.01 247.229,376.881 248.791,371.752 250.349,368.085 
		252.691,364.417 255.031,360.75 257.375,356.337 261.275,352.669 265.177,348.271 269.855,343.143 269.855,343.143 	"/>
	<polygon fill="#CC908F" points="239.426,349.747 238.645,353.415 236.306,357.813 233.966,363.672 231.623,370.277 
		229.284,376.881 227.722,384.217 226.164,390.82 226.164,397.425 226.94,402.555 228.502,406.952 230.842,410.62 233.185,413.557 
		234.743,416.493 236.306,418.687 236.306,420.161 236.306,420.892 236.306,420.161 234.743,419.432 233.185,417.224 
		230.064,414.287 227.722,409.889 226.164,404.761 224.602,399.617 224.602,394.488 224.602,389.345 225.383,384.217 
		226.164,379.087 227.722,373.944 228.502,370.277 230.064,366.609 230.842,363.672 232.403,360.75 233.185,358.543 
		234.743,356.337 235.524,354.875 236.306,353.415 237.867,352.669 238.645,351.208 239.426,350.477 240.207,349.747 
		240.207,349.747 	"/>
	<polygon fill="#CC908F" points="143.454,302.799 145.793,304.99 147.355,306.467 148.914,307.928 150.476,310.134 152.037,311.595 
		153.595,313.07 154.377,314.532 154.377,315.263 154.377,315.263 153.595,315.263 151.256,314.532 149.694,313.802 148.914,313.07 
		147.355,312.326 145.793,310.865 145.012,310.134 144.235,308.658 144.235,307.197 144.235,304.99 144.235,303.53 144.235,303.53 	
		"/>
	<polygon fill="#FAD8D9" points="238.645,241.181 237.867,241.915 236.306,243.383 235.524,244.848 234.743,247.051 233.966,249.25 
		234.743,250.718 234.743,252.918 236.306,254.386 237.867,255.117 240.207,255.851 244.89,255.851 249.572,255.117 254.25,254.386 
		259.714,253.652 263.615,252.183 267.517,250.718 270.641,249.25 272.195,247.051 272.195,245.583 271.418,243.383 	"/>
	<polyline fill="none" stroke="#9A7473" stroke-width="0.2" stroke-linecap="square" stroke-miterlimit="10" points="
		238.645,241.181 237.867,241.915 236.306,243.383 235.524,244.848 234.743,247.051 233.966,249.25 234.743,250.718 
		234.743,252.918 236.306,254.386 237.867,255.117 240.207,255.851 244.89,255.851 249.572,255.117 254.25,254.386 259.714,253.652 
		263.615,252.183 267.517,250.718 270.641,249.25 272.195,247.051 272.195,245.583 271.418,243.383 	"/>
</g>
</svg>
