<?xml version="1.0" encoding="UTF-8" standalone="no"?>
<svg
   xmlns:dc="http://purl.org/dc/elements/1.1/"
   xmlns:cc="http://web.resource.org/cc/"
   xmlns:rdf="http://www.w3.org/1999/02/22-rdf-syntax-ns#"
   xmlns:svg="http://www.w3.org/2000/svg"
   xmlns="http://www.w3.org/2000/svg"
   xmlns:sodipodi="http://sodipodi.sourceforge.net/DTD/sodipodi-0.dtd"
   xmlns:inkscape="http://www.inkscape.org/namespaces/inkscape"
   width="1.8299in"
   height="2.0750in"
   viewBox="0 0 881 999"
   id="svg2"
   sodipodi:version="0.32"
   inkscape:version="0.45.1"
   sodipodi:docname="tirelirecochon.svg"
   inkscape:output_extension="org.inkscape.output.svg.inkscape"
   sodipodi:docbase="D:\MICROSTOKS\STINFOTO\wmf">
  <metadata
     id="metadata147">
    <rdf:RDF>
      <cc:Work
         rdf:about="">
        <dc:format>image/svg+xml</dc:format>
        <dc:type
           rdf:resource="http://purl.org/dc/dcmitype/StillImage" />
      </cc:Work>
    </rdf:RDF>
  </metadata>
  <defs
     id="defs145" />
  <sodipodi:namedview
     inkscape:window-height="968"
     inkscape:window-width="1280"
     inkscape:pageshadow="2"
     inkscape:pageopacity="0.0"
     guidetolerance="10.0"
     gridtolerance="10.0"
     objecttolerance="10.0"
     borderopacity="1.0"
     bordercolor="#666666"
     pagecolor="#ffffff"
     id="base"
     inkscape:zoom="2.0187416"
     inkscape:cx="82.345505"
     inkscape:cy="93.375"
     inkscape:window-x="-4"
     inkscape:window-y="-4"
     inkscape:current-layer="svg2" />
  <path
     style="fill:#ff8791"
     d="M32,520 l2,2 5,6 8,8 8,10 9,11 8,12 6,10 4,9 2,14 1,9 0,5 0,1 22,-7 32,18 32,4 9,3 9,2 9,1 9,1 8,0 7,0 4,-1 2,0 -11,22 -28,65 -1,1 0,2 0,3 0,5 2,4 3,5 5,4 9,3 5,1 6,1 6,1 7,1 6,1 8,0 7,1 7,0 6,1 7,0 5,0 5,0 4,0 3,0 2,0 1,0 4,43 1,2 2,3 5,6 6,5 6,7 8,6 9,4 9,3 10,1 12,0 12,-2 13,-1 11,-2 8,-2 6,-1 2,0 35,-99 1,0 2,1 4,1 5,1 6,1 7,2 7,1 9,2 8,1 9,2 9,1 10,1 9,0 9,0 8,0 8,-1 8,-2 7,-2 8,-3 8,-3 8,-4 8,-5 8,-3 7,-5 8,-4 6,-4 6,-4 4,-4 4,-2 4,-2 2,-2 0,0 -1,1 -4,3 -5,4 -6,7 -6,6 -3,8 -2,7 2,7 4,6 6,7 5,6 5,7 5,4 3,5 3,2 1,1 35,-11 12,22 1,0 2,0 5,-1 5,0 7,-1 7,-1 9,-1 8,-1 9,-1 9,-2 9,-1 8,-1 8,-2 6,-2 5,-2 5,-2 6,-4 6,-4 5,-5 5,-5 4,-7 2,-8 0,-9 0,-11 -1,-12 -2,-12 -2,-12 -3,-12 -4,-11 -5,-11 -7,-12 -8,-11 -8,-9 -6,-7 -5,-5 -2,-4 -2,-2 -1,-1 -1,0 0,0 2,-2 6,-4 8,-6 9,-8 9,-9 9,-10 5,-12 2,-10 -1,-14 -2,-17 -3,-19 -2,-20 -4,-19 -3,-15 -2,-11 -1,-4 -7,-25 1,0 1,1 1,1 2,0 3,1 3,0 4,1 4,-1 5,-1 4,-2 4,-2 3,-2 2,-3 2,-3 2,-3 1,-2 1,-4 3,-2 4,-2 4,-3 3,-5 2,-7 1,-5 -1,-5 -3,-6 -4,-5 -4,-5 -1,-2 1,2 4,5 2,6 1,5 -2,3 -2,3 -3,1 -3,-2 -4,0 -1,2 0,3 0,1 -8,6 -6,-7 9,-1 8,-3 -16,-9 -2,0 -3,-1 -3,1 -3,4 -1,6 0,3 1,3 3,3 4,3 2,3 1,3 -1,3 -2,4 -1,2 -2,2 -4,0 -4,0 -2,0 -3,0 -1,-1 -2,-1 -2,-1 -1,-1 -2,-2 -3,-3 -2,-3 -2,-4 -2,-2 -3,-3 -3,-3 -3,-1 -2,0 -3,1 -4,1 -3,1 -2,1 -3,1 -2,1 -1,0 -1,0 -2,-1 -4,-2 -8,-4 -9,-4 -10,-6 -10,-6 -9,-7 -7,-6 -5,-4 -7,-4 -8,-4 -9,-4 -11,-4 -11,-4 -12,-4 -12,-4 -12,-4 -11,-3 -10,-3 -9,-3 -8,-3 -5,-1 -4,-1 -2,-1 -3,25 -85,9 4,-9 0,-9 -4,-6 -5,-5 -6,-4 -5,-2 -5,-2 -1,0 -1,0 -3,2 -5,1 -6,3 -8,3 -9,4 -9,4 -11,5 -11,5 -10,5 -11,5 -10,5 -10,5 -9,5 -8,4 -7,5 -11,7 -8,6 -7,4 -5,3 -4,2 -3,2 -1,1 0,0 -28,-32 46,-47 -54,25 0,1 -1,2 -2,3 -3,3 -5,2 -5,1 -7,0 -8,-1 -9,-3 -8,-3 -7,-3 -6,-2 -6,-2 -5,0 -7,0 -6,2 -5,2 -4,2 -3,2 -4,3 -5,4 -9,8 -12,11 -19,15 -19,16 -14,15 -11,13 -8,10 -4,9 -3,6 -1,4 0,2 1,0 4,-1 4,0 6,0 7,1 6,2 6,3 5,6 3,6 3,4 1,3 1,1 1,-1 2,-2 2,-4 2,-5 3,-6 3,-3 2,-2 4,-1 3,-1 4,1 6,1 6,2 8,2 8,4 8,6 7,7 5,8 3,9 0,10 -3,11 -5,10 -5,10 -4,8 -6,7 -5,5 -7,3 -8,0 -10,-4 -10,-6 -9,-4 -7,-5 -6,-4 -5,-4 -3,-3 -2,-2 -1,-1 -21,18 -2,0 -5,1 -7,1 -7,1 -7,1 -5,1 -2,1 3,1z"
     id="path4" />
  <path
     style="fill:#000"
     d="M847,359 l-1,0 -1,0 -2,0 0,0 -1,-1 -1,-1 -2,-1 -1,0 0,0 0,-1 0,-1 0,-2 4,-1 3,1 2,3 0,4 2,-1 1,-2 0,-2 -1,-1 -2,-2 -3,0 -2,-1 -3,0 -1,0 -2,4 1,4 2,3 4,3 -4,0 -4,-2 -3,-2 -2,-1 -4,-8 1,-5 3,-4 5,-1 6,0 6,2 5,4 4,5 0,0 1,0 1,-1 0,0 0,-1 0,0 0,-1 0,-1 -3,-3 -4,-2 -4,-2 -4,-2 -3,-1 -4,0 -5,1 -4,2 -3,5 0,5 1,6 4,4 4,4 5,4 5,3 6,2 -4,7 -4,6 -6,2 -5,1 -7,0 -6,-2 -8,-3 -6,-3 -3,-2 -2,-3 -3,-4 -5,-8 1,6 2,5 5,6 7,5 7,5 6,4 7,3 5,3 4,-1 5,-2 3,-2 3,-2 3,-3 2,-3 3,-4 3,-3 0,-4 1,-2 0,0 1,-1 8,-3 5,-3 3,-4 2,-4 1,-4 0,-6 0,-6 -1,-7 -2,-1 -1,-2 -2,-2 -3,-3 -1,0 0,0 0,0 -1,1 0,0 0,1 0,1 0,1 2,1 1,0 0,1 1,1 0,5 -1,4 -2,4 -2,3 -4,2 -4,2 -3,1 -5,0 -2,1z"
     id="path6" />
  <path
     style="fill:#ff6670"
     d="M267,370 l4,-57 -33,18 1,1 2,5 4,5 3,7 5,7 5,7 5,4 4,3z"
     id="path8" />
  <circle
     style="fill:#703f35"
     cx="524"
     cy="51"
     r="51"
     id="circle10" />
  <path
     style="fill:#a8a8a8"
     d="M 602,76 L 606,74 L 611,71 L 617,69 L 623,67 L 630,66 L 637,65 L 644,66 L 649,68 L 655,71 L 662,75 L 669,79 L 676,85 L 682,90 L 687,96 L 690,103 L 691,109 L 691,116 L 689,124 L 687,132 L 685,140 L 682,147 L 678,153 L 674,158 L 670,161 L 664,163 L 658,165 L 650,168 L 642,169 L 634,171 L 624,172 L 616,172 L 608,171 L 601,169 L 596,168 L 591,166 L 588,163 L 585,160 L 583,155 L 582,149 L 581,141 L 580,131 L 579,122 L 578,114 L 579,105 L 581,98 L 586,90 L 593,83 L 602,76 z "
     id="path12" />
  <path
     style="fill:#a8a8a8"
     d="M488,307 l-1,-1 -2,-2 -4,-4 -3,-3 -5,-5 -3,-6 -3,-5 -1,-5 -1,-11 0,-14 2,-15 8,-13 5,-6 5,-5 4,-5 4,-5 5,-3 7,-4 7,-1 9,-1 10,-1 8,0 7,0 6,1 5,1 4,1 4,2 4,3 4,4 6,6 5,9 5,9 5,9 2,10 2,9 0,7 -2,7 -2,7 -3,6 -3,6 -2,6 -2,3 -1,3 -1,1 -1,0 -2,0 -4,1 -5,0 -7,0 -7,0 -8,1 -7,0 -9,0 -8,1 -7,0 -8,0 -7,1 -6,0 -4,0 -4,1z"
     id="path14" />
  <path
     style="fill:#fff"
     d="M38,444 l-1,2 -4,4 -4,7 -1,11 0,11 -1,6 0,5 5,6 3,4 3,3 4,2 3,2 3,2 3,0 3,0 4,-1 4,-1 3,-2 4,-2 4,-2 3,-1 2,-2 2,-1 1,0 9,1 0,1 2,2 2,2 3,3 4,3 4,3 5,3 5,2 5,1 5,2 4,2 4,1 5,1 4,0 5,-1 5,-3 4,-4 6,-6 6,-6 5,-7 4,-6 3,-8 1,-7 -1,-7 -3,-6 -3,-8 -3,-7 -3,-7 -4,-5 -5,-5 -7,-3 -8,-1 -8,1 -7,2 -7,3 -6,4 -4,4 -4,3 -2,2 -1,1 0,-1 -2,-2 -2,-3 -2,-4 -4,-4 -4,-4 -3,-2 -4,-2 -4,0 -6,0 -7,1 -7,2 -7,2 -6,4 -6,5 -3,5z"
     id="path16" />
  <path
     style="fill:#ff6670"
     d="M645,712 l1,1 1,0 3,0 4,-1 4,-2 3,-1 2,-1 1,-1 19,3 7,-1 13,55 -37,2 2,-3 5,-7 2,-6 -1,-3 -2,0 -3,-1 -3,0 -2,-1 -3,0 -1,-1 -1,0 -1,0 11,-12 -15,-6 -2,-3 -2,-5 -3,-5 -2,-1z"
     id="path20" />
  <path
     style="fill:#ffc4d8"
     d="M24,518 l1,0 1,0 2,0 3,1 3,3 4,3 4,5 4,6 4,7 4,6 5,6 4,6 4,5 3,6 3,6 1,6 3,12 1,11 -1,5 -6,2 -5,-1 -5,-2 -6,-2 -6,-3 -6,-2 -5,-3 -4,-2 -2,-2 -3,-3 -3,-4 -3,-6 -4,-7 -4,-7 -3,-7 -1,-6 -1,-5 0,-5 2,-5 2,-6 3,-5 3,-6 2,-4 2,-3 0,0z"
     id="path22" />
  <path
     style="fill:#000"
     d="M367,861 l-1,0 0,0 -1,-1 -1,0 -2,0 -4,-1 -5,-1 -6,-1 -6,-2 -6,-2 -6,-3 -5,-2 -6,-3 -6,-3 -4,-3 -5,-4 -4,-5 -2,-4 -2,-4 -4,-7 2,-5 3,-3 2,-3 2,-3 2,-4 1,-4 1,-5 0,-6 -4,-2 -3,-1 -3,-1 -4,0 -1,-3 -1,-2 -1,-2 -1,-3 -2,0 -4,-1 -3,0 -3,0 -3,0 -3,1 -3,1 -3,1 -5,1 -6,0 -6,0 -6,0 -6,-1 -6,-1 -6,-1 -5,-1 -6,-2 -5,-1 -5,-3 -5,-3 -4,-4 -4,-3 -3,-5 -3,-5 0,-8 2,-7 3,-8 3,-6 4,-7 3,-6 5,-6 5,-6 2,-7 2,-5 3,-5 2,-4 3,-4 3,-4 4,-4 5,-5 -2,5 -3,5 -5,4 -2,5 -2,4 -1,3 -2,4 -1,4 -5,7 -4,7 -5,8 -3,8 -2,7 0,7 2,8 6,6 0,-1 0,-1 0,0 -1,-1 4,1 3,0 3,2 4,2 3,1 3,1 2,0 2,1 2,1 2,1 3,1 4,2 7,1 6,0 7,1 7,1 7,2 6,1 7,1 7,2 3,-8 3,-7 3,-6 4,-6 4,-5 4,-5 5,-6 6,-6 3,-5 5,-5 8,-6 8,-6 9,-4 8,-4 6,-1 3,2 -1,1 -3,2 -3,2 -3,2 -4,2 -3,1 -3,2 -2,1 -6,5 -8,7 -8,8 -8,9 -7,9 -6,9 -5,8 -1,7 5,4 4,4 2,6 0,5 0,5 0,6 -1,6 0,7 2,1 2,2 2,1 3,2 2,2 2,1 2,2 2,2 0,0 -1,0 -1,0 0,0 -2,-1 -2,-2 -2,-1 -2,-2 -2,-1 -2,-1 -2,-1 -2,0 2,5 4,5 7,5 9,4 8,5 9,3 7,3 6,2 9,1 10,0 11,0 11,-2 9,-3 9,-5 6,-6 4,-9 9,-10 6,-10 4,-9 2,-8 1,-10 -1,-10 0,-11 0,-14 1,-3 0,-2 0,-3 0,-3 0,0 0,-1 0,0 1,0 1,2 2,1 2,0 2,1 2,2 2,2 2,1 2,2 3,1 3,2 3,1 3,0 0,1 0,1 0,0 0,1 7,2 7,0 7,1 7,0 7,0 7,0 7,0 7,0 7,0 7,-1 7,-1 8,-1 6,-1 8,-1 6,-1 7,-1 3,-2 4,-1 5,-1 5,-2 6,0 6,-1 5,-2 5,-1 3,-2 3,-3 3,-2 3,-2 3,-3 3,-3 3,-2 3,-3 3,0 3,0 3,1 3,1 3,2 3,2 2,2 3,2 3,-1 3,-1 2,-2 1,-4 0,7 -2,5 -4,3 -6,2 -2,-2 -2,-3 -3,-1 -3,-2 -3,-1 -2,-1 -3,-1 -4,0 -2,3 -3,2 -2,3 -2,2 -3,3 -3,2 -2,2 -3,2 1,10 1,8 1,6 3,5 5,4 6,1 9,-1 12,-2 3,-2 3,-2 3,-2 3,-2 3,0 2,1 1,3 1,5 -3,5 -5,4 -5,3 -5,3 -6,1 -5,1 -6,0 -6,0 -6,-2 -4,-5 -3,-6 -2,-6 -1,-7 -1,-6 0,-7 -1,-5 -1,0 -1,-1 0,0 -1,0 -8,3 -8,2 -8,2 -8,2 -9,2 -8,2 -9,1 -9,2 -8,1 -9,1 -9,1 -8,0 -9,1 -8,0 -8,1 -9,0 -4,-1 -5,-1 -4,-1 -5,-1 -4,-2 -4,-2 -4,-2 -3,-3 -1,0 -1,0 -1,0 0,0 0,11 0,10 0,10 0,10 -3,14 -5,13 -7,12 -8,11 -10,10 -11,8 -12,6 -14,4 -2,0 -3,0 -2,1 -3,0 -3,0 -2,0 -3,0 -2,0z"
     id="path26" />
  <path
     style="fill:#000000"
     d="M 756.04909,804.58705 L 751.94112,804.23405 L 747.0044,805.027 L 742.06768,805.81994 L 736.97236,805.62554 L 730.88971,805.58972 L 726.78174,805.23673 L 721.68643,805.04233 L 717.57846,804.68934 L 717.77286,799.59403 L 718.12585,795.48606 L 718.32025,790.39075 L 718.67325,786.28278 L 714.60109,779.84713 L 710.68753,774.39883 L 708.59006,767.646 L 705.66384,762.03911 L 702.57903,755.44487 L 699.65281,749.83798 L 696.72659,744.23109 L 694.78772,738.46561 L 692.88465,726.61747 L 691.14018,715.75668 L 690.22446,703.74996 L 691.44203,692.4134 L 692.65959,681.07684 L 696.16901,671.39779 L 702.79906,662.23033 L 710.57505,653.89162 L 709.71048,661.12021 L 707.85856,668.50739 L 705.0193,676.05316 L 701.03411,682.77017 L 699.14638,696.24 L 699.07475,708.40532 L 700.14906,721.39939 L 701.22336,734.39346 L 704.14959,740.00035 L 706.24705,746.75317 L 709.33186,753.34741 L 712.57526,760.92899 L 716.64741,767.36464 L 720.56097,772.81294 L 725.3033,777.11531 L 731.86172,780.11316 L 733.83641,779.79598 L 734.82375,779.6374 L 736.95703,780.30756 L 739.09031,780.97773 L 739.09031,780.97773 L 740.23624,781.80649 L 740.39483,782.79383 L 740.55342,783.78118 L 748.45218,782.51247 L 755.36359,781.40235 L 762.275,780.29223 L 769.18642,779.18211 L 775.93924,777.08465 L 783.67941,774.8286 L 790.27365,771.74379 L 796.86788,768.65898 L 803.46212,765.57417 L 809.89777,761.50201 L 815.34607,757.58845 L 820.63579,752.68754 L 825.9255,747.78663 L 831.21522,742.88572 L 835.359,737.15605 L 839.34419,730.43904 L 841.58491,712.86124 L 841.53376,693.62592 L 838.52058,674.86637 L 834.67865,657.25276 L 831.91101,652.63321 L 829.14338,648.01366 L 826.37575,643.39411 L 822.62077,638.93316 L 819.85314,634.31361 L 817.08551,629.69406 L 814.47647,626.06186 L 811.70883,621.44231 L 808.27103,618.95604 L 803.84589,616.62836 L 801.39543,613.98351 L 799.77374,610.19272 L 806.49075,614.17791 L 813.20776,618.1631 L 818.26726,624.44016 L 823.16817,629.72988 L 828.38625,636.99428 L 832.617,644.41727 L 836.68915,650.85292 L 840.91989,658.27591 L 843.8103,669.96546 L 846.7007,681.65501 L 849.59111,693.34456 L 850.50683,705.35129 L 851.26396,716.37067 L 850.20498,728.69457 L 848.00008,740.18972 L 844.80783,751.84345 L 840.34687,755.59843 L 839.00653,759.86498 L 836.36168,762.31544 L 834.70416,764.6073 L 833.04665,766.89917 L 832.21789,768.0451 L 830.40179,769.34963 L 827.75694,771.80008 L 819.50519,777.17676 L 811.25344,782.55343 L 802.8431,786.94276 L 793.44542,791.49068 L 784.04774,796.0386 L 775.47881,799.44059 L 765.76395,802.01382 L 756.04909,804.58705 z "
     id="path30" />
  <path
     style="fill:#000"
     d="M806,612 l-2,-1 -4,-1 -4,-1 -5,-1 -4,-2 -3,-2 -3,-2 -1,-2 1,0 0,-1 0,0 1,0 -1,-3 -1,-3 0,-3 -1,-3 3,-4 1,-1 1,-1 1,0 0,0 0,0 0,1 0,0 -1,1 0,0 -1,1 1,2 8,-6 9,-8 7,-9 6,-10 6,-10 5,-10 4,-11 3,-10 1,-4 0,-3 -1,-2 -1,-3 2,-12 0,-12 -2,-12 -2,-11 -3,-11 -5,-11 -5,-11 -7,-10 -1,0 -1,0 -1,0 -1,0 1,-1 0,-1 0,0 0,-1 9,4 7,7 6,11 6,12 5,14 4,13 2,12 2,9 -1,20 -3,20 -4,19 -5,19 -3,6 -2,5 -3,5 -3,6 -3,5 -3,4 -4,5 -5,4 0,1 0,1 0,1 0,1 0,0 -1,0 0,0 -1,1z"
     id="path38" />
  <path
     style="fill:#000"
     d="M109,596 l-2,-3 -3,-3 -3,-3 -2,-3 -2,0 -1,0 -1,0 -1,0 -4,-5 -1,-6 -1,-6 2,-6 3,9 2,4 1,3 0,3 2,2 2,1 2,2 2,2 2,2 1,2 2,3 2,2 0,0 -1,0 0,0 -1,0z"
     id="path40" />
  <ellipse
     style="fill:#000"
     cx="53"
     cy="573"
     rx="6"
     ry="14"
     id="ellipse42" />
  <path
     style="fill:#000"
     d="M34,585 l-7,-3 -3,-5 0,-6 3,-6 1,2 0,2 1,2 1,2 3,2 4,2 2,3 2,3 -1,1 -2,1 -2,0 -2,0z"
     id="path44" />
  <path
     style="fill:#000"
     d="M130,523 l-7,-1 -6,-2 -5,-2 -5,-2 -4,-3 -4,-4 -4,-4 -4,-6 -1,0 -1,1 -1,1 -1,2 -10,5 -8,4 -8,1 -7,0 -7,-2 -7,-4 -5,-7 -6,-9 -2,-4 -2,-4 0,-4 0,-4 4,8 3,7 4,6 4,5 5,3 6,1 8,0 10,-2 6,-3 4,-3 4,-3 3,-2 2,-4 1,-5 1,-5 2,-7 3,-6 3,-6 1,-4 0,-4 0,-3 -2,-4 -4,-4 -4,-5 -4,-4 -5,-2 -5,-1 -6,0 -6,2 -6,2 -6,2 -3,1 -4,3 -3,3 -2,2 -2,2 -1,3 -2,3 -1,3 -2,5 -1,-1 -1,0 0,0 -1,0 0,-6 1,-6 3,-5 5,-5 4,-5 5,-4 5,-3 5,-4 8,-1 8,0 6,2 7,3 5,4 5,5 5,6 4,7 0,1 0,0 1,0 1,1 0,-3 1,-1 1,-1 1,-1 0,2 -1,1 -1,4 -2,5 -3,7 -4,8 -2,8 -2,7 0,8 2,6 5,7 7,4 8,2 9,0 7,-1 8,-2 8,-3 7,-3 7,-5 6,-5 4,-7 3,-7 2,-7 1,-7 -3,-5 -2,-5 -3,-3 -2,-5 -3,-3 -4,-3 -3,-4 -3,-3 -7,-1 -6,-1 -5,0 -5,0 -5,1 -5,1 -5,3 -5,4 2,-7 2,-4 6,-3 6,-1 6,-1 8,1 6,1 6,2 10,7 9,9 6,10 4,10 2,11 -1,11 -5,12 -8,11 -5,3 -5,3 -5,2 -4,1 -5,2 -5,1 -6,1 -6,1z"
     id="path46" />
  <ellipse
     style="fill:#000"
     cx="132"
     cy="494"
     rx="5"
     ry="8"
     id="ellipse48" />
  <path
     style="fill:#000"
     d="M56,498 l-3,-3 -2,-2 -1,-3 0,-3 1,-2 2,-2 3,-1 4,-1 -1,2 -2,2 -2,1 -2,2 0,0 1,1 0,1 0,1 4,0 3,0 2,0 2,1 0,1 0,0 0,1 0,1 -2,2 -2,0 -2,1 -3,0z"
     id="path50" />
  <path
     style="fill:#000"
     d="M69,409 l-1,0 -1,-1 -1,-1 -1,0 5,-11 5,-11 6,-11 7,-11 6,-10 8,-10 8,-9 8,-9 4,-2 3,-3 3,-2 3,-3 -1,-4 -2,-5 -4,-5 -4,-4 -4,-4 -4,-3 -4,-4 -4,-2 -6,-4 -4,-3 -4,-2 -2,-2 -1,-1 -1,0 -1,-1 0,-1 5,-1 6,-1 6,-1 5,0 7,0 6,1 6,1 6,1 6,2 5,1 6,3 6,3 5,3 5,3 4,4 4,5 1,1 0,1 0,2 1,1 6,-1 5,0 6,-1 6,-1 5,0 6,0 6,1 5,2 0,1 0,1 0,1 0,1 0,1 0,0 -1,0 -1,1 -7,0 -6,1 -7,0 -6,1 -6,1 -6,1 -6,1 -6,1 -6,2 -5,2 -6,2 -5,3 -6,3 -5,3 -6,4 -5,4 -3,3 -4,3 -2,3 -3,3 -3,3 -3,2 -3,4 -3,3 -3,5 -3,5 -3,6 -5,10 -3,4 -2,3 -1,4 -2,4 -1,4 -2,3 -3,2 -3,1z"
     id="path54" />
  <path
     style="fill:#000"
     d="M815,382 l-6,-2 -5,-3 -3,-3 -3,-5 -3,-4 -3,-4 -3,-3 -5,-1 -2,1 -2,1 -1,1 -1,1 0,-1 0,0 0,-1 0,0 7,-4 5,-1 4,2 3,3 3,4 4,4 3,5 6,3 2,1 2,0 4,0 3,0 4,0 3,0 2,-1 2,-1 0,0 0,1 0,1 1,0 -3,2 -2,1 -2,1 -3,1 -3,1 -2,0 -3,0 -3,0z"
     id="path56" />
  <path
     style="fill:#000"
     d="M780,376 l-1,-1 -1,-1 -1,0 -1,-1 -8,-10 -8,-8 -9,-8 -10,-8 -9,-7 -10,-7 -10,-5 -11,-6 -11,-5 -10,-5 -11,-4 -12,-3 -11,-4 -11,-3 -12,-3 -12,-3 -2,-1 -2,-1 -2,-2 -2,-1 10,1 10,1 11,1 10,3 10,2 10,3 10,4 10,4 10,5 10,5 9,5 10,5 8,6 9,6 9,6 8,6 3,4 4,4 4,3 4,4 3,5 3,4 2,5 2,5 0,0 -1,0 -1,0 0,0z"
     id="path58" />
  <path
     style="fill:#000"
     d="M277,369 l-3,-2 -1,-3 -1,-3 -1,-3 -5,-4 -4,-4 -2,-3 -1,-4 -1,-4 -1,-4 0,-5 -1,-6 -3,2 -3,4 -2,5 -1,5 -1,5 -1,5 -1,3 -3,2 0,-8 1,-8 1,-6 2,-5 2,-5 4,-4 6,-4 7,-4 2,-1 2,0 1,0 2,1 -1,0 0,1 0,2 0,1 -4,8 0,10 2,12 3,8 1,-3 2,-6 1,-6 0,-4 2,-3 1,-3 1,-4 1,-3 2,-2 3,-4 2,-6 3,-7 3,-7 3,-7 2,-5 1,-4 -8,2 -7,2 -6,2 -6,3 -6,3 -6,4 -5,5 -6,6 -3,2 -3,1 -3,0 -1,0 -2,-1 -2,-1 -2,0 -4,-1 -3,5 -3,4 -2,5 -1,5 -2,5 -2,6 -2,4 -2,6 -1,0 -1,0 -2,0 -1,1 1,-7 2,-6 3,-8 3,-8 4,-7 4,-6 5,-5 5,-3 2,3 2,2 2,2 1,1 2,0 2,-1 2,-3 2,-3 4,-2 4,-3 3,-3 4,-2 3,-3 4,-2 4,-2 4,-3 3,-1 6,-2 8,-3 9,-2 8,-2 8,0 4,1 0,4 -3,2 -3,1 -2,0 -3,1 -4,7 -4,6 -5,6 -3,6 -4,7 -3,7 -3,7 -2,8 3,0 3,1 4,2 3,1 4,2 3,2 4,2 2,2 5,-4 3,-2 3,-3 3,-3 3,-3 4,-3 5,-4 7,-6 5,-3 5,-4 6,-4 6,-4 6,-3 6,-3 6,-2 4,0 8,-3 7,-3 7,-2 6,-3 7,-2 7,-2 7,-1 7,0 2,2 2,1 1,2 1,3 -2,1 -1,0 -2,0 -5,0 -5,1 -5,2 -5,1 -5,2 -6,1 -5,2 -5,1 -5,2 -6,2 -6,3 -7,3 -5,3 -7,3 -6,3 -5,4 -6,3 -5,3 -5,4 -5,4 -6,4 -5,4 -5,4 -6,5 -5,4 -4,-1 -3,-2 -3,-2 -3,-4 -3,-3 -3,-2 -4,-2 -4,-1 -2,5 -1,6 0,6 1,7 1,1 0,0 1,1 2,0 -2,0 -1,0 0,1 -1,0 0,0 0,1 0,2 0,4 -1,0 -1,-1 -1,0 -1,0z"
     id="path60" />
  <path
     style="fill:#000"
     d="M455,321 l-1,-1 -1,0 -1,-1 -1,-1 0,0 0,0 1,-1 1,0 1,-1 3,0 3,-1 5,-2 -1,-2 -1,-1 -1,-2 -1,-2 3,0 3,-1 1,0 2,-1 1,0 2,0 2,0 2,0 1,1 1,1 0,2 1,2 7,-2 6,-1 5,-1 4,-1 4,-1 4,-1 5,-1 5,-1 8,0 6,0 8,0 7,0 7,0 7,0 7,0 7,0 6,1 5,0 4,0 3,1 2,0 2,0 2,0 2,0 -1,-4 -2,-3 -2,-3 -2,-3 6,1 4,4 3,5 0,6 2,2 2,2 1,1 0,3 -1,0 -2,0 -2,0 -3,0 -4,-1 -6,0 -7,-1 -10,-1 -9,0 -10,0 -9,0 -9,0 -9,0 -9,0 -9,1 -9,1 -15,3 -12,2 -9,1 -6,1 -4,1 -2,0 -2,0 -1,0z"
     id="path62" />
  <path
     style="fill:#000"
     d="M456,305 l-1,-1 0,-1 0,-1 0,-2 3,-1 3,-1 3,0 3,-1 3,-1 2,-1 2,0 1,-1 -4,-6 -3,-6 -2,-6 0,-6 2,2 1,3 2,4 1,4 2,3 2,4 3,2 4,2 0,1 0,1 -1,1 0,1 -2,0 -1,0 -1,1 -1,2 -3,0 -2,1 -3,0 -2,1 -3,1 -2,0 -3,1 -3,0z"
     id="path64" />
  <ellipse
     style="fill:#000"
     cx="591"
     cy="297"
     rx="8"
     ry="2"
     id="ellipse66" />
  <ellipse
     style="fill:#000"
     cx="465"
     cy="255"
     rx="5"
     ry="10"
     id="ellipse78" />
  <circle
     style="fill:#000"
     cx="467"
     cy="239"
     r="3"
     id="circle84" />
  <circle
     style="fill:#000"
     cx="471"
     cy="230"
     r="3"
     id="circle86" />
  <path
     style="fill:#000"
     d="M623,177 l-2,-1 -2,0 -3,0 -2,-1 -3,0 -2,0 -2,0 -2,-1 -3,-2 -5,-2 -4,-3 -5,-3 -4,-3 -3,-4 0,-4 2,-4 1,4 3,2 3,3 0,4 1,0 0,0 0,1 1,0 1,-1 1,-1 2,0 2,0 0,1 0,1 0,1 0,1 2,1 1,0 3,0 5,0 1,2 1,0 2,0 3,1 1,-1 1,-1 1,-1 3,-1 0,1 0,1 0,1 0,1 4,-1 2,-1 2,-1 3,-2 0,1 0,1 0,1 1,1 1,-1 2,0 1,0 2,0 0,-1 0,0 0,-1 1,-1 3,0 3,0 3,-1 3,-2 -1,-2 0,-2 1,-1 0,-1 1,1 0,1 0,1 1,1 4,-1 2,-1 1,-3 2,-5 1,1 1,1 1,2 1,1 3,-3 0,-4 0,-3 1,-2 1,0 1,1 1,0 1,1 1,-2 1,-3 -1,-3 1,-3 1,1 0,0 1,1 1,1 1,-2 1,-2 1,-1 0,-2 -1,-1 -1,0 0,-1 -1,-1 1,0 1,0 1,0 1,0 1,-8 -1,-9 0,-9 0,-6 3,6 2,8 0,8 0,9 -2,8 -3,8 -4,7 -4,7 -6,5 -6,5 -6,3 -7,3 -7,3 -7,1 -7,1 -8,1z"
     id="path92" />
  <path
     style="fill:#000"
     d="M578,142 l-2,-13 1,-12 2,-11 4,-11 7,-9 9,-8 10,-6 13,-3 1,0 2,0 3,0 2,0 -11,2 -10,4 -7,4 -7,5 -6,7 -4,8 -4,9 -3,11 0,6 1,6 1,6 0,5 0,0 -1,0 0,0 -1,0z"
     id="path100" />
  <path
     style="fill:#000"
     d="M534,103 l-1,-1 -1,-1 -1,-2 -1,-1 1,0 2,0 2,0 2,0 0,-1 0,-1 0,0 0,-1 -1,0 -1,-1 -1,0 -1,0 0,-1 0,0 0,-1 0,0 0,0 -1,0 0,0 -1,0 2,-3 3,-2 4,-2 4,-1 1,-2 2,-2 2,-1 2,-2 0,2 -2,2 -2,2 -3,3 -2,2 -3,1 -2,1 -2,2 7,1 7,-2 8,-5 6,-8 5,-8 4,-9 3,-9 0,-7 -2,5 -1,4 -2,4 -2,5 0,0 -1,0 0,0 -1,0 4,-12 1,-9 -1,-9 -6,-10 0,0 0,-1 1,0 0,-1 2,3 3,5 2,5 3,4 -1,-5 -2,-5 -2,-4 -3,-4 -3,-4 -2,-3 -2,-2 0,-3 6,7 5,6 5,6 4,7 2,7 1,8 -1,8 -3,9 -4,7 -3,5 -4,5 -4,5 -5,3 -6,3 -6,3 -7,1 0,1 0,1 -1,1 0,1 -1,1 -1,0 -1,0 -2,0z"
     id="path108" />
  <ellipse
     style="fill:#000"
     cx="527"
     cy="98"
     rx="2"
     ry="4"
     id="ellipse110" />
  <ellipse
     style="fill:#000"
     cx="519"
     cy="95"
     rx="1"
     ry="3"
     id="ellipse112" />
  <ellipse
     style="fill:#000"
     cx="507"
     cy="89"
     rx="2"
     ry="4"
     id="ellipse114" />
  <path
     style="fill:#000"
     d="M490,84 l-4,-4 -3,-4 -2,-4 -2,-5 -1,-5 -1,-5 -1,-5 0,-5 1,-3 1,-4 2,-5 2,-6 2,-5 3,-4 3,-3 3,0 -3,4 -3,5 -3,6 -2,6 -1,7 -1,6 0,6 0,7 2,3 4,6 4,6 2,4 0,1 -1,0 0,0 -1,0z"
     id="path118" />
  <circle
     style="fill:#000"
     cx="678"
     cy="81"
     r="1"
     id="circle122" />
  <ellipse
     style="fill:#000"
     cx="658"
     cy="71"
     rx="0"
     ry="3"
     id="ellipse124" />
  <circle
     style="fill:#000"
     cx="648"
     cy="69"
     r="1"
     id="circle126" />
  <circle
     style="fill:#000"
     cx="556"
     cy="63"
     r="3"
     id="circle128" />
  <path
     style="fill:#703f35"
     d="M517,43 l-1,-1 -1,-1 0,-1 0,-2 3,-2 2,-2 2,-2 3,-3 1,3 1,1 1,1 0,2 -2,2 -3,2 -3,2 -3,1z"
     id="path132" />
  <path
     style="fill:#000"
     d="M495,25 l2,-5 5,-5 7,-3 7,-3 8,-1 8,-1 7,1 5,2 -2,0 -2,0 -2,0 -2,-1 -2,1 -2,0 -2,0 -3,0 -1,1 -2,1 -2,0 -2,0 -2,1 -2,0 -2,1 -2,0 -2,1 -2,2 -2,1 -2,2 -3,2 -3,2 -2,1 -1,0z"
     id="path134" />
  <ellipse
     style="fill:#000"
     cx="554"
     cy="5"
     rx="1"
     ry="3"
     id="ellipse136" />
  <path
     style="fill:#000"
     d="M544,5 l0,-1 0,-1 0,-1 -1,-2 1,1 1,2 0,2 -1,0z"
     id="path138" />
  <text
     xml:space="preserve"
     style="font-size:48px;font-style:normal;font-weight:normal;fill:#000000;fill-opacity:1;stroke:none;stroke-width:1px;stroke-linecap:butt;stroke-linejoin:miter;stroke-opacity:1;font-family:Bitstream Vera Sans"
     x="617.42072"
     y="132.4924"
     id="text2299"><tspan
       sodipodi:role="line"
       id="tspan2301"
       x="617.42072"
       y="132.4924">$</tspan></text>
  <text
     xml:space="preserve"
     style="font-size:48px;font-style:normal;font-weight:normal;fill:#000000;fill-opacity:1;stroke:none;stroke-width:1px;stroke-linecap:butt;stroke-linejoin:miter;stroke-opacity:1;font-family:Bitstream Vera Sans"
     x="514.07562"
     y="262.33624"
     id="text2303"><tspan
       sodipodi:role="line"
       id="tspan2305"
       x="514.07562"
       y="262.33624">$</tspan></text>
  <text
     xml:space="preserve"
     style="font-size:43.27493286px;font-style:normal;font-weight:normal;fill:#000000;fill-opacity:1;stroke:none;stroke-width:1px;stroke-linecap:butt;stroke-linejoin:miter;stroke-opacity:1;font-family:Bitstream Vera Sans"
     x="463.47055"
     y="68.627068"
     id="text2307"
     transform="scale(1.1091872,0.9015611)"><tspan
       sodipodi:role="line"
       id="tspan2309"
       x="463.47055"
       y="68.627068">$</tspan></text>
</svg>
