<?xml version="1.0" encoding="utf-8"?>
<!-- Generator: Adobe Illustrator 14.0.0, SVG Export Plug-In . SVG Version: 6.00 Build 43363)  -->
<!DOCTYPE svg PUBLIC "-//W3C//DTD SVG 1.1//EN" "http://www.w3.org/Graphics/SVG/1.1/DTD/svg11.dtd">
<svg version="1.1" id="Calque_1" xmlns="http://www.w3.org/2000/svg" xmlns:xlink="http://www.w3.org/1999/xlink" x="0px" y="0px"
	 width="500px" height="500px" viewBox="0 0 500 500" enable-background="new 0 0 500 500" xml:space="preserve">
<g>
	<polygon fill="#344C98" points="467.345,296.663 453.572,298.377 454.031,297.351 454.796,296.663 455.714,295.977 
		456.786,295.462 457.856,294.95 458.929,294.605 459.999,294.093 461.224,293.577 462.141,292.892 463.059,292.034 
		463.059,291.522 463.059,291.007 463.059,290.495 463.059,290.15 462.906,289.638 462.754,289.294 462.601,288.781 
		462.448,288.437 462.141,288.096 461.683,287.75 454.185,291.864 446.687,294.435 439.035,295.636 431.23,295.636 423.426,295.121 
		415.621,294.093 407.511,292.892 399.4,292.034 391.138,291.522 382.722,292.034 380.121,291.693 377.826,290.836 375.988,289.638 
		374.458,288.266 373.081,286.381 372.009,284.497 371.092,282.268 370.326,279.868 369.562,277.468 368.948,274.897 
		367.879,270.613 365.736,267.186 363.134,264.444 360.228,262.044 357.014,259.989 353.953,257.76 351.352,255.363 
		349.362,252.793 348.291,249.365 348.291,245.422 347.68,244.05 346.914,242.852 346.148,241.481 345.23,240.281 344.313,239.254 
		343.396,238.396 342.17,237.71 340.946,237.369 339.416,237.54 337.886,237.881 336.049,237.024 334.673,235.997 333.754,234.798 
		333.142,233.254 332.836,231.712 332.836,229.999 333.142,228.285 333.754,226.572 334.519,225.029 335.438,223.487 
		334.519,220.916 333.449,218.346 332.071,215.947 330.541,213.719 328.704,211.833 326.715,210.291 324.571,209.263 
		322.276,208.749 319.829,208.749 317.227,209.434 318.146,215.947 315.852,215.947 315.086,214.918 314.166,213.89 
		313.249,212.861 312.178,212.004 311.412,210.977 310.647,209.777 310.034,208.406 309.729,206.864 309.729,205.149 
		310.034,203.094 308.659,203.094 307.587,203.607 306.821,204.464 306.363,205.664 306.057,207.035 305.75,208.406 
		305.444,209.777 304.985,211.148 304.373,212.348 303.455,213.205 302.689,212.348 301.772,211.833 300.854,211.833 
		300.088,212.176 299.323,212.348 298.558,212.69 297.946,212.519 297.641,212.176 297.488,211.148 297.641,209.434 
		295.192,209.434 293.968,210.462 292.897,211.663 292.132,212.861 291.52,214.233 291.213,215.604 290.906,217.146 
		290.754,218.688 290.754,220.231 290.906,221.773 290.906,223.487 291.366,225.201 291.826,227.086 292.438,228.8 293.202,230.685 
		294.121,232.227 295.192,233.769 296.416,235.14 297.793,236.34 299.323,237.197 301.007,237.881 301.007,239.083 301.007,240.281 
		301.159,241.654 301.159,242.852 301.159,244.05 301.159,245.422 301.159,246.621 301.007,247.822 300.701,248.85 300.395,250.048 
		299.629,249.536 298.863,249.191 298.099,248.85 297.335,248.68 296.568,248.334 295.804,248.164 294.886,247.993 294.121,247.822 
		293.202,247.651 292.438,247.478 290.142,243.879 287.693,240.452 284.939,237.54 282.031,234.798 278.818,232.398 275.759,230.17 
		272.392,228.114 269.024,226.399 265.657,224.857 262.292,223.487 281.573,221.773 275.3,221.945 269.331,221.602 263.517,220.916 
		257.702,219.888 252.04,218.517 246.53,216.804 241.328,214.747 236.125,212.348 231.228,209.777 226.331,206.864 224.801,206.692 
		223.73,206.35 222.658,205.835 221.894,205.321 221.281,204.636 220.67,203.951 220.057,203.264 219.292,202.751 218.526,202.237 
		217.303,202.065 217.149,202.237 216.996,202.408 216.844,202.579 216.691,202.751 216.538,202.922 216.384,203.094 
		216.231,203.264 216.231,203.607 216.231,203.779 216.384,204.121 216.844,204.293 217.303,204.293 217.761,204.293 
		218.221,204.293 218.68,204.293 219.139,204.464 219.598,204.636 220.057,204.808 220.363,205.149 220.67,205.835 218.526,206.006 
		216.538,206.692 214.701,207.892 212.865,209.263 211.182,210.977 209.651,212.69 208.274,214.575 206.897,216.46 205.826,218.174 
		204.907,219.717 197.103,216.46 191.748,212.004 188.381,206.521 186.545,200.352 185.474,193.668 184.556,186.642 
		183.484,179.616 181.342,173.104 177.975,167.105 172.313,161.792 199.093,160.764 195.726,160.421 192.36,160.421 188.84,160.592 
		185.474,160.764 181.954,160.936 178.588,160.936 175.374,160.592 172.313,159.908 169.406,158.708 166.651,156.994 
		161.907,153.052 158.082,148.425 155.021,143.455 152.727,138.143 151.044,132.487 149.972,126.833 149.207,121.005 
		149.054,115.179 149.054,109.523 149.36,104.04 146.758,102.841 144.616,101.469 142.78,99.927 141.25,98.213 139.719,96.499 
		138.036,94.786 136.353,93.243 134.363,91.872 131.916,90.844 128.855,90.158 126.865,82.961 123.958,76.448 120.286,70.622 
		116.154,65.309 111.41,60.511 106.36,56.398 101.004,52.971 95.495,50.057 89.833,47.83 84.325,46.116 89.681,48.858 95.19,51.771 
		100.545,55.027 105.901,58.625 110.951,62.738 115.542,67.194 119.521,71.993 122.886,77.477 125.182,83.475 126.406,90.158 
		118.755,90.158 87.691,49.885 90.14,57.94 88.763,56.912 87.385,55.712 85.855,54.341 84.478,52.799 82.948,51.257 81.57,49.714 
		80.193,48.172 79.122,46.63 78.051,44.916 77.133,43.545 78.662,42.345 74.837,41.488 72.848,47.83 104.983,84.675 103.453,86.388 
		97.791,81.589 91.67,76.791 85.396,72.507 78.969,68.395 72.389,64.795 65.655,61.881 59.076,59.825 52.343,58.454 45.763,58.112 
		39.488,58.969 47.599,64.452 49.895,66.852 52.19,69.593 54.638,72.335 57.086,75.078 59.535,77.82 61.983,80.562 64.585,83.303 
		67.339,85.703 70.093,88.102 72.848,90.158 74.378,91.187 75.449,92.558 76.367,93.928 77.133,95.471 77.744,97.013 78.509,98.385 
		79.428,99.413 80.653,100.098 82.183,100.44 84.325,100.27 86.467,102.841 88.916,104.725 91.67,106.268 94.73,107.467 
		97.638,108.496 100.698,109.695 103.606,111.237 106.36,112.951 108.655,115.351 110.645,118.435 119.826,128.717 120.438,129.574 
		120.897,130.431 121.204,130.945 121.509,131.459 121.662,131.802 121.816,132.144 121.969,132.487 122.121,132.831 
		122.274,133.344 122.274,133.858 122.428,134.03 122.428,134.202 122.734,134.544 123.04,135.058 123.346,135.915 123.805,137.115 
		124.264,138.486 124.876,140.371 125.641,142.599 126.406,145.169 126.56,145.341 126.56,145.341 126.712,145.684 126.865,146.197 
		127.019,147.055 127.325,148.254 127.63,149.968 127.937,152.024 128.396,154.766 128.855,158.022 128.855,162.992 
		129.313,167.791 130.538,172.76 131.916,177.73 133.751,182.7 135.588,187.67 137.423,192.811 139.107,197.953 140.637,203.094 
		141.708,208.406 143.852,210.634 145.535,213.205 147.065,215.947 148.135,218.859 149.207,221.945 150.125,225.201 
		151.044,228.285 151.961,231.541 153.032,234.798 154.256,237.881 147.218,238.054 148.135,238.226 149.054,238.396 
		149.972,238.567 150.89,238.738 151.961,238.911 152.879,239.254 153.797,239.425 154.716,239.767 155.634,240.11 156.552,240.625 
		155.787,241.481 155.175,242.511 154.869,243.538 154.563,244.736 154.563,245.938 154.716,246.965 155.175,248.164 
		155.634,249.191 156.552,250.048 157.47,250.734 153.186,251.937 148.748,252.618 144.31,253.135 139.873,253.476 135.435,253.476 
		130.998,253.305 126.56,253.135 122.121,252.793 117.684,252.277 113.093,251.762 117.531,252.448 122.121,252.964 
		126.865,253.476 131.456,253.82 136.2,254.162 140.943,254.333 145.535,254.506 150.125,254.677 154.563,254.677 159,254.506 
		158.695,255.705 158.695,256.732 158.847,257.589 159.154,258.275 159.765,258.962 160.377,259.474 160.99,259.818 
		161.755,260.331 162.52,260.675 163.286,260.846 168.793,268.559 174.762,275.754 181.188,282.438 187.922,288.606 
		194.961,294.435 202.154,299.921 209.499,305.062 216.844,309.858 224.036,314.486 231.228,318.772 233.063,318.942 
		235.053,318.942 237.196,318.942 239.338,318.942 241.48,319.113 243.623,319.454 245.459,320.312 247.142,321.683 
		248.366,323.568 249.285,326.309 250.203,327.853 250.662,329.396 250.662,330.768 250.356,332.137 249.744,333.509 
		248.979,334.707 247.907,335.908 246.989,337.107 245.918,338.135 245,339.162 243.47,339.162 241.787,339.337 240.256,339.337 
		238.573,339.162 237.042,338.821 235.512,338.479 234.288,337.964 233.063,337.278 231.993,336.421 231.228,335.393 
		231.228,339.162 232.605,338.991 233.982,339.162 235.512,339.337 236.737,339.508 238.114,339.849 239.338,340.192 
		240.563,340.705 241.634,341.05 242.705,341.392 243.623,341.733 241.175,344.479 239.491,350.131 237.196,353.388 234.288,354.76 
		230.922,354.76 227.25,353.902 223.423,352.872 219.444,352.189 215.466,352.359 211.641,353.902 208.274,357.33 206.744,356.3 
		205.979,355.102 205.826,354.073 205.979,352.872 206.591,351.844 207.203,350.646 207.968,349.445 208.733,348.246 
		209.04,346.875 209.192,345.505 207.509,345.16 206.438,344.304 205.979,343.105 205.826,341.733 205.826,340.02 205.826,338.479 
		205.672,337.107 205.214,336.079 204.296,335.393 202.459,335.393 203.072,337.278 203.684,339.337 204.449,341.563 
		205.061,343.792 205.52,346.018 205.826,348.246 205.672,350.476 205.214,352.701 204.142,355.102 202.459,357.33 201.082,356.3 
		200.47,354.586 200.164,352.701 200.317,350.476 200.624,348.246 200.929,345.847 201.235,343.792 201.235,341.733 
		200.929,340.192 200.164,339.162 198.787,340.192 198.175,341.05 198.021,341.907 198.175,342.764 198.48,343.446 198.939,344.304 
		199.552,344.989 200.011,346.018 200.164,347.048 200.164,348.246 199.858,349.789 199.246,351.333 198.48,352.701 197.41,353.902 
		196.338,355.102 194.961,355.959 193.737,356.474 192.36,356.814 190.982,356.644 189.605,356.3 188.84,354.244 188.075,352.015 
		187.31,349.96 186.698,347.905 186.239,345.847 185.933,343.792 186.086,341.563 186.545,339.508 187.31,337.449 188.687,335.393 
		186.545,334.537 184.861,332.994 183.637,331.279 182.719,329.225 181.954,327.166 181.342,324.94 180.73,322.711 180.118,320.827 
		179.2,319.113 178.128,317.74 179.505,314.828 179.965,312.599 179.659,310.886 178.588,309.688 177.058,308.66 175.221,307.974 
		173.232,307.288 171.243,306.602 169.406,305.744 168.029,304.888 167.876,305.918 168.029,306.775 168.334,307.632 
		168.793,308.314 169.253,309.001 170.019,309.688 170.63,310.202 171.243,310.886 171.854,311.572 172.313,312.258 
		170.324,314.999 169.712,317.569 170.171,319.799 171.548,321.854 173.232,323.912 174.915,325.798 176.445,328.023 
		177.516,330.253 177.516,332.652 176.139,335.393 173.538,335.393 171.548,334.366 170.171,332.823 169.1,330.938 168.182,328.709 
		167.417,326.653 166.346,324.596 164.816,323.227 162.826,322.369 159.919,322.54 159.154,318.772 157.624,316.027 
		155.481,314.143 152.879,312.599 149.972,311.401 146.912,310.544 143.698,309.518 140.791,308.489 138.188,306.946 
		136.046,304.888 135.588,305.573 135.281,306.26 134.976,306.946 134.67,307.803 134.363,308.489 133.905,309.172 133.598,309.858 
		133.14,310.373 132.681,310.886 132.221,311.23 136.965,314.999 140.178,313.972 142.627,313.972 144.77,314.828 146.605,316.543 
		148.289,318.598 149.972,320.998 151.809,323.227 153.797,325.282 156.093,326.995 159,327.853 159.612,329.566 160.377,330.938 
		161.449,331.966 162.52,333.165 163.438,334.021 164.356,335.053 164.968,336.25 165.427,337.449 165.274,338.991 164.662,340.705 
		163.438,342.249 162.214,343.105 160.837,343.275 159.459,343.105 158.082,342.589 156.858,341.733 155.634,340.876 
		154.563,340.192 153.797,339.508 153.186,339.162 148.442,349.789 145.075,348.246 145.075,350.817 146.758,350.988 
		148.442,350.988 150.431,351.158 152.267,351.333 154.256,351.504 156.093,352.015 158.082,352.359 159.919,353.047 
		161.602,353.729 163.286,354.586 163.286,354.244 163.286,353.902 163.286,353.388 163.438,353.047 163.438,352.53 
		163.591,352.189 163.744,351.673 164.051,351.333 164.356,351.158 164.662,350.817 165.427,350.817 166.193,350.817 
		166.958,350.817 167.723,350.988 168.488,350.988 169.1,351.333 169.712,351.504 170.324,352.015 170.937,352.701 171.396,353.559 
		170.477,354.586 172.467,355.102 174.303,355.959 175.986,357.156 177.67,358.7 179.2,360.413 180.73,362.298 182.26,364.186 
		183.637,366.069 184.861,367.613 186.239,369.152 182.873,372.925 187.616,372.925 187.463,369.839 186.698,367.098 
		185.626,364.527 184.096,362.298 182.414,360.072 180.423,358.014 178.281,356.129 175.986,354.073 173.691,352.015 
		171.396,349.789 169.559,349.104 167.723,348.933 165.733,349.104 163.897,349.618 161.907,350.302 160.072,350.817 
		158.082,351.333 155.94,351.333 153.951,350.817 151.809,349.789 151.809,347.219 153.032,346.533 154.104,346.018 
		155.328,345.505 156.552,345.16 157.93,344.818 159.154,344.647 160.531,344.479 161.907,344.304 163.286,344.304 164.662,344.479 
		167.417,341.907 168.488,339.849 168.334,337.964 167.264,336.25 165.733,334.707 163.897,332.994 162.061,331.45 160.837,329.566 
		160.225,327.511 160.837,325.111 163.132,325.798 164.968,326.995 166.346,328.709 167.569,330.423 168.641,332.481 
		169.712,334.366 171.089,335.908 172.619,337.278 174.609,337.964 177.21,337.964 178.281,334.537 178.281,331.45 177.516,328.538 
		176.292,325.969 174.762,323.397 173.384,320.998 172.161,318.427 171.702,315.686 172.161,312.944 173.844,309.688 
		174.149,309.518 174.609,309.688 174.915,309.858 175.374,310.028 175.68,310.373 175.986,310.715 176.292,311.23 176.598,311.572 
		176.904,311.917 177.21,312.258 177.363,312.944 177.363,313.456 177.21,313.972 177.058,314.486 176.904,314.999 176.598,315.515 
		176.445,316.027 176.139,316.543 176.139,317.058 176.139,317.74 177.516,319.628 178.435,321.513 179.2,323.739 179.812,325.798 
		180.423,328.023 181.188,330.253 181.954,332.481 183.025,334.366 184.402,336.25 186.239,337.964 185.474,338.821 
		184.708,339.508 184.25,340.363 183.637,341.221 183.178,342.249 182.719,343.105 182.26,343.792 181.801,344.479 181.188,345.16 
		180.423,345.505 181.954,345.676 183.178,346.362 184.25,347.219 185.015,348.246 185.626,349.618 186.086,350.988 
		186.239,352.359 186.239,353.902 186.086,355.442 185.474,356.814 187.463,357.156 189.146,357.33 190.982,357.33 192.666,357.33 
		194.349,357.33 196.186,357.156 197.869,357.33 199.705,357.501 201.542,357.843 203.377,358.358 202.307,359.215 201.694,360.243 
		201.389,361.785 201.389,363.328 201.542,365.043 201.389,366.756 201.235,368.124 200.624,369.327 199.552,370.01 
		197.716,370.183 198.634,372.581 200.011,374.98 201.694,377.039 203.53,378.753 205.672,380.121 207.814,381.148 210.11,381.665 
		212.253,381.835 214.396,381.323 216.384,380.292 216.691,381.148 216.996,382.006 217.303,382.691 217.609,383.549 
		217.761,384.234 217.915,384.75 217.761,385.433 217.609,385.949 217.149,386.464 216.384,386.805 218.221,386.805 
		218.526,386.464 218.986,386.119 219.292,385.949 219.598,385.607 220.057,385.263 220.363,384.921 220.516,384.576 
		220.67,384.064 220.67,383.549 220.67,383.036 219.904,380.979 218.833,379.436 217.761,378.407 216.538,377.721 215.161,377.55 
		213.784,377.55 212.406,377.896 210.875,378.407 209.499,379.265 208.274,380.292 207.356,379.779 206.285,379.094 
		205.367,378.236 204.449,377.379 203.53,376.353 202.918,375.324 202.307,374.294 202.154,373.266 202.154,372.239 
		202.459,371.211 206.591,372.581 210.875,373.095 215.007,372.925 219.139,372.239 223.423,371.382 227.708,370.354 
		231.993,369.498 236.277,368.981 240.563,369.152 245,370.183 245.154,370.695 245.154,371.211 245,371.724 244.694,372.068 
		244.389,372.41 244.082,372.754 243.623,373.095 243.317,373.266 243.01,373.611 242.705,373.952 245.459,378.753 248.672,382.862 
		252.345,386.634 256.323,390.063 260.302,393.489 264.434,396.746 268.413,400.345 272.085,404.284 275.3,408.913 278.054,414.055 
		277.747,416.455 277.747,418.681 277.899,420.91 278.359,422.965 278.971,425.023 279.736,426.736 280.655,428.621 
		281.573,430.335 282.645,431.878 283.716,433.417 283.716,432.905 283.868,432.391 283.868,431.878 283.868,431.533 
		284.021,431.021 284.175,430.677 284.327,430.165 284.48,429.819 284.786,429.479 285.246,429.133 285.398,430.847 
		285.704,432.735 286.011,434.619 286.47,436.333 287.081,438.046 287.846,439.761 288.766,441.129 289.989,442.16 291.213,443.017 
		292.897,443.529 296.723,439.761 295.192,438.217 295.345,436.162 295.345,433.933 295.345,431.533 295.345,429.133 
		295.651,427.078 296.11,425.194 297.027,423.82 298.253,423.136 300.088,423.136 302.384,424.337 300.088,418.339 296.723,411.996 
		292.591,405.656 288.152,399.317 283.716,393.489 279.277,388.004 275.452,383.549 272.085,379.95 269.943,377.55 268.872,376.694 
		267.188,376.182 265.964,375.15 265.047,373.611 264.588,371.897 264.127,369.668 263.975,367.613 263.668,365.384 
		263.362,363.328 262.903,361.44 262.292,360.072 261.373,358.7 260.608,358.7 260.302,358.7 260.302,358.7 260.456,358.529 
		260.762,358.358 261.067,358.188 261.221,357.843 261.067,357.501 260.762,356.814 259.843,356.3 260.149,355.442 260.302,354.586 
		260.608,353.902 261.067,353.047 261.527,352.359 261.985,351.504 262.444,350.817 262.903,349.96 263.517,349.274 
		264.127,348.588 229.391,356.3 230.156,356.474 230.922,356.644 231.84,356.644 232.605,356.814 233.37,357.156 234.135,357.33 
		234.9,357.501 235.512,357.843 236.277,358.014 236.89,358.358 237.655,360.928 237.502,362.984 236.431,364.527 234.747,365.555 
		232.605,366.411 230.156,367.269 227.556,367.784 224.954,368.47 222.658,369.152 220.67,370.183 218.526,370.866 216.538,371.211 
		214.548,371.382 212.559,371.382 210.875,371.04 209.04,370.524 207.509,369.839 205.979,368.981 204.602,367.784 203.377,366.411 
		205.061,364.186 207.05,362.298 209.345,360.584 211.947,359.044 214.701,358.014 217.456,357.156 220.516,356.474 
		223.423,356.129 226.484,356.129 229.391,356.3 264.127,348.588 265.199,347.389 266.271,346.191 267.342,344.989 268.413,343.962 
		269.637,342.764 270.709,341.563 271.778,340.534 272.85,339.337 273.77,338.135 274.687,336.937 278.664,339.508 282.338,340.363 
		286.011,339.849 289.376,338.305 292.743,335.908 296.11,333.165 299.323,330.082 302.689,327.166 305.904,324.596 309.117,322.54 
		309.729,324.083 310.495,325.452 311.26,326.995 312.025,328.367 312.79,329.911 313.708,331.279 314.625,332.652 315.544,334.021 
		316.616,335.224 317.534,336.592 335.896,332.481 335.132,332.137 334.519,331.624 333.754,331.279 332.988,330.938 
		332.377,330.594 331.611,330.253 330.847,329.911 330.233,329.566 329.469,329.225 328.704,328.88 323.961,319.799 326.867,322.54 
		330.081,324.596 333.294,326.139 336.509,327.166 340.028,327.853 343.396,327.853 346.914,327.682 350.435,326.824 
		353.953,325.627 357.472,324.083 357.472,325.111 357.319,325.969 357.167,326.824 357.014,327.682 356.555,328.367 
		356.249,329.054 355.789,329.736 355.177,330.253 354.718,330.768 354.106,331.279 366.194,334.366 366.654,333.165 
		367.113,332.137 367.725,331.108 368.338,329.911 368.796,328.88 369.104,328.023 369.104,327.166 368.796,326.309 
		367.879,325.627 366.502,325.111 369.868,322.54 369.562,322.711 369.409,322.711 369.104,322.54 368.948,322.54 368.644,322.369 
		368.49,322.199 368.185,322.024 368.031,321.854 367.725,321.683 367.419,321.513 369.104,320.998 370.479,320.141 
		371.856,319.113 372.929,317.915 374,316.372 374.918,314.828 375.683,313.285 376.601,311.743 377.213,310.028 377.979,308.66 
		380.426,312.258 383.181,310.886 386.242,310.202 389.607,309.858 393.128,309.688 396.647,309.858 400.166,310.028 
		403.379,309.858 406.439,309.518 409.196,308.489 411.491,306.946 412.562,307.974 413.786,308.831 415.011,309.518 
		416.386,310.028 417.764,310.544 419.294,310.886 420.672,310.886 422.203,310.715 423.578,310.373 424.803,309.688 
		427.863,312.088 430.924,313.456 433.983,314.143 436.893,314.143 439.801,313.631 442.555,312.944 445.31,312.258 447.91,311.572 
		450.358,311.23 452.654,311.23 443.472,305.918 445.768,304.717 448.217,303.86 450.972,303.519 453.572,303.174 456.326,302.833 
		458.929,302.317 461.529,301.634 463.823,300.604 465.814,299.063 467.345,296.834 467.345,296.834 	"/>
	<polygon fill="#344C98" points="345.536,334.195 342.935,334.537 341.1,334.707 340.028,334.878 339.416,334.878 339.108,334.707 
		338.956,334.537 338.65,334.021 337.886,333.509 336.661,332.481 334.673,331.45 316.31,335.563 317.992,337.278 319.676,339.162 
		321.512,340.705 323.502,342.249 325.491,343.446 327.633,344.647 329.775,345.505 331.919,346.362 334.214,346.875 
		336.509,347.219 340.181,348.417 343.7,348.763 347.066,348.588 350.435,347.73 353.646,346.362 356.707,344.479 359.463,342.42 
		362.063,339.849 364.358,337.107 366.194,334.366 366.194,334.195 366.194,334.021 366.194,334.021 366.194,333.851 
		366.349,333.851 366.349,333.68 366.349,333.509 366.349,333.509 366.349,333.338 366.502,333.165 355.331,330.768 
		354.718,331.279 353.801,331.624 352.729,331.966 351.657,332.308 350.587,332.652 349.362,332.994 348.291,333.338 
		347.221,333.509 346.301,333.851 345.69,334.366 345.69,334.366 	"/>
	<polygon fill="#3A57A0" points="74.99,44.23 75.296,44.402 76.214,44.744 77.744,45.43 79.888,46.287 82.335,47.315 85.243,48.687 
		88.456,50.229 91.976,51.942 95.648,53.999 99.474,56.227 103.453,58.797 107.279,61.881 111.104,65.309 114.776,69.08 
		118.144,72.85 121.051,76.62 123.499,80.219 125.334,83.475 126.56,86.388 127.019,88.788 127.019,90.673 127.019,92.215 
		127.171,93.415 127.325,94.442 127.325,95.128 127.478,95.814 127.63,96.156 127.63,96.328 127.784,96.499 127.784,96.499 
		113.246,95.643 75.755,51.085 74.99,44.23 74.99,44.23 	"/>
	<polygon fill="#344C98" points="283.104,376.182 282.186,376.182 281.114,376.182 280.042,376.182 278.971,376.182 
		278.054,376.182 276.982,376.182 275.911,376.182 274.993,376.182 273.922,376.182 273.004,376.182 274.074,376.523 
		275.146,376.694 276.217,376.864 277.288,377.039 278.206,377.039 279.277,377.039 280.194,376.864 281.267,376.694 
		282.186,376.523 283.104,376.182 283.104,376.182 	"/>
	<polygon fill="#344C98" points="184.25,359.557 184.402,359.557 184.402,359.557 184.402,359.386 184.402,359.386 184.402,359.386 
		184.556,359.215 184.556,359.215 184.556,359.215 184.556,359.044 184.556,359.044 184.402,359.044 184.25,359.044 184.096,358.87 
		183.943,358.87 183.791,358.87 183.637,358.7 183.484,358.7 183.178,358.7 183.025,358.529 182.873,358.529 184.402,359.557 
		184.402,359.557 	"/>
	<polygon fill="#344C98" points="330.081,372.41 328.397,373.611 326.715,374.469 325.032,374.98 323.349,375.15 321.512,375.15 
		319.829,375.15 318.146,374.98 316.462,374.98 314.625,374.98 312.942,375.15 309.729,371.897 306.669,369.839 303.762,368.812 
		300.854,368.812 297.946,369.498 295.038,370.524 292.285,372.068 289.224,373.611 286.316,374.98 283.104,376.182 
		283.868,376.182 284.634,376.182 285.398,376.182 286.163,376.182 286.776,376.182 287.541,376.182 288.152,376.182 
		288.766,376.182 289.376,376.182 289.989,376.182 293.662,373.266 297.641,372.068 301.618,372.068 305.75,373.095 
		309.882,374.294 314.166,375.666 318.299,376.523 322.431,376.523 326.409,375.324 330.233,372.41 330.233,372.41 	"/>
	<polygon fill="#344C98" points="181.954,374.98 178.894,375.15 179.2,375.324 179.505,375.324 179.659,375.495 179.965,375.495 
		180.271,375.666 180.577,375.666 180.883,375.495 181.188,375.495 181.648,375.324 181.954,375.15 181.954,375.15 	"/>
	<polygon fill="#344C98" points="172.772,374.98 178.894,375.15 178.435,374.81 177.975,374.294 177.516,373.782 177.058,373.266 
		176.598,372.925 176.139,372.41 175.527,371.897 175.068,371.724 174.456,371.382 173.844,371.382 172.926,375.15 172.926,375.15 	
		"/>
	<polygon fill="#344C98" points="280.501,224.001 280.96,224.001 281.573,224.001 282.031,223.83 282.49,223.83 282.951,223.83 
		283.409,223.83 283.868,223.659 284.327,223.659 284.786,223.659 285.246,223.487 280.501,224.001 280.501,224.001 	"/>
	<polygon fill="#344C98" points="298.099,252.448 297.027,252.106 297.182,252.106 297.335,252.106 297.488,252.277 
		297.488,252.277 297.641,252.277 297.793,252.277 297.946,252.448 297.946,252.448 298.099,252.448 298.253,252.618 
		298.253,252.618 	"/>
	<polygon fill="#F4B1B3" points="311.412,291.522 310.342,290.15 309.424,288.606 308.659,287.067 308.046,285.695 307.435,284.152 
		306.974,282.609 306.516,281.24 306.057,279.868 305.444,278.499 304.833,277.126 304.373,278.841 303.608,279.697 
		302.689,279.868 301.772,279.355 300.854,278.67 299.783,277.813 298.863,277.126 297.946,276.611 297.182,276.611 
		296.723,277.126 297.641,278.67 295.804,281.411 294.58,282.268 293.355,282.783 291.979,283.125 290.754,283.295 289.376,283.295 
		288.307,282.954 287.235,282.783 286.316,282.268 285.704,281.927 285.246,281.411 286.929,284.497 288.611,287.409 
		290.448,290.495 292.285,293.577 294.121,296.663 295.804,299.921 297.182,303.003 298.405,306.431 299.477,309.858 
		300.088,313.456 298.863,315.17 297.793,316.714 296.723,318.427 295.651,319.97 294.428,321.342 293.049,322.711 291.672,323.912 
		289.989,324.94 288.152,325.798 286.163,326.309 282.951,328.88 279.584,331.795 276.064,334.878 272.697,338.135 269.331,341.563 
		265.964,345.16 262.903,348.933 260.149,352.701 257.702,356.644 255.559,360.584 254.487,360.759 253.264,360.759 
		252.192,360.759 251.121,360.928 249.896,360.928 248.979,360.928 247.907,360.759 246.836,360.584 245.918,360.072 245,359.557 
		246.989,353.559 249.591,348.076 252.957,343.275 256.63,338.65 260.762,334.366 265.047,330.253 269.331,325.969 273.309,321.683 
		277.135,317.058 280.501,311.917 282.797,304.376 281.573,305.918 280.501,307.632 279.277,309.347 278.206,311.23 
		277.135,313.115 276.064,314.657 274.839,316.027 273.463,317.058 272.085,317.398 270.402,317.229 270.402,308.145 
		271.474,304.376 272.697,300.433 273.922,296.318 275.146,292.209 276.676,288.437 278.359,284.668 280.349,281.411 
		282.645,278.67 285.398,276.44 288.611,274.897 288.152,271.645 288.459,268.729 289.376,266.158 290.602,263.932 291.826,262.044 
		292.897,259.989 293.814,257.935 294.121,255.876 293.662,253.476 292.132,250.734 292.591,250.734 292.897,250.905 
		293.355,250.905 293.662,251.079 294.121,251.079 294.58,251.25 294.886,251.25 295.345,251.42 295.651,251.591 296.11,251.591 
		302.384,256.732 302.537,257.077 302.537,257.589 302.537,257.935 302.537,258.446 302.537,258.791 302.384,259.304 
		302.384,259.647 302.079,259.989 301.925,260.331 301.466,260.505 308.199,265.816 307.28,267.015 305.139,265.646 
		303.303,264.789 301.618,264.444 299.936,264.615 298.558,264.96 297.182,265.816 295.804,266.674 294.428,267.871 
		293.202,269.244 291.979,270.613 292.285,271.128 292.591,271.47 292.897,271.814 293.355,271.985 293.662,272.156 
		294.121,272.156 294.428,272.326 294.886,272.326 295.345,272.326 295.804,272.326 295.958,271.645 295.958,271.128 
		296.11,270.442 296.263,269.93 296.416,269.415 296.568,268.899 296.723,268.388 297.027,267.871 297.335,267.359 297.641,267.015 
		298.405,267.53 299.019,268.217 299.629,268.899 300.088,269.586 300.549,270.101 300.854,270.787 301.159,271.47 301.314,272.156 
		301.466,272.672 301.466,273.357 301.466,273.013 301.466,272.672 301.466,272.156 301.466,271.814 301.466,271.299 
		301.466,270.787 301.618,270.442 301.772,270.101 302.079,269.756 302.384,269.586 303.608,270.442 304.525,270.957 
		305.444,270.957 306.209,270.613 307.128,270.101 307.739,269.415 308.504,268.559 309.117,267.701 309.882,266.674 
		310.647,265.816 311.412,268.042 311.719,270.613 311.719,273.184 311.412,275.928 311.106,278.67 310.647,281.581 
		310.342,284.323 310.342,286.894 310.647,289.294 311.564,291.522 311.564,291.522 	"/>
	<polygon fill="#344C98" points="130.538,240.625 110.645,241.309 112.787,241.481 114.776,241.654 116.766,241.654 
		118.755,241.654 120.744,241.654 122.734,241.481 124.723,241.309 126.712,241.138 128.702,240.967 130.538,240.796 
		130.538,240.796 	"/>
	<polygon fill="#344C98" points="130.538,240.625 146.146,240.281 144.616,240.281 143.086,240.11 141.556,240.11 140.025,240.11 
		138.495,240.11 136.965,240.281 135.281,240.281 133.751,240.452 132.221,240.625 130.538,240.796 130.538,240.796 	"/>
	<polygon fill="#F4B1B3" points="331.153,305.402 331.153,305.062 331.153,304.717 330.999,304.376 330.999,304.03 330.847,303.519 
		330.847,303.174 330.693,302.833 330.693,302.491 330.541,301.976 330.541,301.634 330.081,301.118 329.623,300.777 
		329.316,300.263 328.858,299.921 328.397,299.405 327.939,299.063 327.48,298.719 327.021,298.548 326.409,298.206 
		325.949,298.033 324.879,300.433 323.807,301.634 322.736,301.634 321.666,300.947 320.594,299.576 319.37,298.033 
		318.299,296.493 317.074,295.121 316.004,294.264 314.932,294.264 320.594,311.917 323.502,312.599 326.257,313.802 
		328.858,315.17 331.458,317.058 333.754,318.772 335.896,320.485 338.039,322.024 340.028,323.227 341.865,323.739 
		343.548,323.739 342.324,322.024 340.946,320.485 339.264,318.942 337.426,317.569 335.743,316.027 334.214,314.313 
		332.836,312.599 331.764,310.544 331.153,308.145 331.153,305.573 331.153,305.573 	"/>
	<polygon fill="#B3491A" points="339.264,295.292 337.12,294.435 334.979,293.236 333.142,291.864 331.306,290.321 329.775,288.606 
		328.551,286.723 327.328,284.838 326.409,282.954 325.797,280.896 325.337,278.67 327.786,282.438 330.693,285.354 
		333.907,287.579 337.426,289.123 341.252,290.321 345.078,290.836 348.904,290.836 352.729,290.495 356.402,289.809 
		359.768,288.952 359.463,285.695 358.544,283.295 357.014,281.581 355.177,280.383 353.035,279.526 350.74,278.841 
		348.444,277.983 346.301,276.956 344.313,275.413 342.63,273.357 342.782,272.156 342.782,271.128 342.63,269.93 342.63,268.729 
		342.63,267.53 342.63,266.329 342.63,265.301 342.782,264.103 343.09,263.075 343.548,262.044 344.926,258.104 345.384,254.506 
		345.078,251.25 344.007,248.509 342.477,245.938 340.487,243.879 338.039,241.995 335.438,240.281 332.836,238.911 330.233,237.54 
		330.233,234.969 330.541,232.227 330.693,229.656 330.847,227.086 330.693,224.516 330.389,222.115 329.623,219.888 
		328.551,217.832 326.867,216.117 324.419,214.404 327.786,227.257 327.328,227.6 326.867,228.114 326.563,228.628 326.102,229.142 
		325.644,229.656 325.185,229.999 324.571,230.514 324.113,230.855 323.502,231.027 323.041,231.027 322.431,229.656 
		321.818,228.285 321.206,226.743 320.747,225.372 320.135,224.001 319.37,222.801 318.451,221.773 317.227,221.088 
		315.696,220.745 313.86,220.916 312.483,220.401 311.106,219.717 310.034,218.859 308.965,218.174 307.894,217.489 
		306.821,217.146 305.75,216.804 304.525,216.974 303.149,217.317 301.466,218.174 301.618,221.602 302.689,224.516 
		304.525,227.086 306.669,229.485 308.965,231.541 310.954,233.769 312.33,236.167 312.942,238.738 312.483,241.654 
		310.647,244.907 309.882,247.822 309.729,250.734 310.189,253.476 310.954,256.046 312.025,258.791 313.401,261.188 
		314.932,263.588 316.616,265.646 318.146,267.701 319.676,269.586 317.687,272.672 316.921,275.584 317.074,278.324 
		317.992,280.896 319.217,283.295 320.594,285.695 321.972,288.096 322.889,290.321 323.349,292.892 323.041,295.292 
		324.419,294.264 326.409,296.318 326.409,296.493 326.257,296.493 326.257,296.663 326.257,296.663 326.257,296.834 
		326.257,296.834 326.257,297.005 326.257,297.005 326.102,297.176 326.102,297.176 326.563,297.351 327.021,297.521 
		327.328,297.691 327.786,298.033 328.093,298.206 328.397,298.548 328.858,298.719 329.163,299.063 329.469,299.405 
		329.775,299.746 329.163,297.862 328.245,296.147 327.48,294.435 326.715,292.721 325.949,291.007 325.185,289.294 
		324.727,287.579 324.419,285.866 324.267,284.152 324.419,282.438 326.563,285.009 328.245,288.096 329.623,291.178 
		330.693,294.605 331.611,298.206 332.684,301.634 333.754,305.231 335.284,308.489 336.968,311.743 339.264,314.657 
		339.108,312.944 339.108,311.401 339.108,309.858 339.264,308.314 339.416,306.775 339.874,305.402 340.487,304.03 
		341.252,302.833 342.324,301.634 343.548,300.604 345.384,299.576 347.373,298.719 349.517,298.206 351.657,297.862 
		353.953,297.521 356.097,297.176 358.085,296.663 360.073,296.147 361.759,295.292 363.134,294.264 360.993,292.892 
		358.697,292.209 356.402,292.38 353.953,292.892 351.657,293.748 349.21,294.779 346.608,295.462 344.16,295.977 341.711,295.977 
		339.264,295.292 339.264,295.292 	"/>
	<polygon fill="#3A57A0" points="108.197,83.133 106.207,81.589 104.065,79.533 102.076,77.477 100.239,75.078 98.25,72.679 
		96.567,70.28 94.883,67.709 93.2,65.138 91.67,62.738 90.14,60.167 108.349,83.303 108.349,83.303 	"/>
	<polygon fill="#3A57A0" points="131.15,95.986 133.292,96.328 134.823,97.013 135.741,98.213 136.2,99.755 136.353,101.469 
		136.353,103.354 136.046,105.239 135.588,107.125 135.281,108.667 135.128,110.038 132.986,110.381 130.844,110.038 
		128.702,109.181 126.712,107.981 124.57,106.781 122.428,105.582 120.438,104.725 118.296,104.383 116.154,104.896 
		114.011,106.268 107.125,104.554 100.239,101.983 93.506,98.556 86.926,94.614 80.499,90.33 74.072,85.531 67.645,80.39 
		61.372,75.249 55.25,70.108 48.976,64.967 53.108,66.68 57.086,68.736 61.218,70.793 65.35,72.85 69.328,75.249 73.46,77.648 
		77.592,80.047 81.876,82.275 86.008,84.675 90.14,87.074 90.14,84.332 86.773,81.933 83.406,79.705 79.888,77.477 76.367,75.42 
		72.848,73.364 69.481,71.307 65.962,69.422 62.442,67.537 59.076,65.824 55.709,63.938 64.125,65.995 71.93,69.422 79.122,74.049 
		86.161,79.019 93.047,84.332 100.086,89.13 107.125,93.243 114.624,95.986 122.581,97.185 131.303,96.156 131.303,96.156 	"/>
	<polygon fill="#4CABDC" points="204.907,99.755 204.907,102.497 204.142,102.497 203.224,102.497 202.307,102.497 201.389,102.497 
		200.624,102.326 199.858,101.983 199.246,101.469 198.939,100.783 198.939,99.927 199.093,98.727 199.705,98.727 200.47,98.727 
		201.082,98.556 201.694,98.556 202.459,98.556 203.072,98.556 203.53,98.727 204.142,98.898 204.602,99.241 204.907,99.927 
		204.907,99.927 	"/>
	<polygon fill="#4CABDC" points="222.046,105.068 222.199,105.925 222.199,106.781 222.199,107.467 222.046,108.152 
		221.894,108.838 221.587,109.523 221.128,110.038 220.822,110.552 220.21,111.066 219.751,111.58 216.384,109.009 219.751,103.526 
		219.904,103.868 220.057,104.211 220.21,104.383 220.516,104.554 220.67,104.725 220.975,104.896 221.281,105.068 221.587,105.068 
		221.894,105.239 222.046,105.239 222.046,105.239 	"/>
	<polygon fill="#3A57A0" points="147.524,110.038 147.524,115.351 146.453,115.351 145.535,115.179 144.616,114.665 
		143.852,113.979 143.086,113.123 142.321,112.266 141.708,111.409 140.943,110.552 140.178,109.695 139.414,109.009 
		140.791,105.239 141.402,105.582 142.015,105.925 142.78,106.268 143.392,106.61 144.157,106.954 144.922,107.467 145.535,107.981 
		146.3,108.667 146.912,109.352 147.524,110.038 147.524,110.038 	"/>
	<polygon fill="#F4B1B3" points="144.157,159.222 143.545,159.222 142.933,159.222 142.321,159.05 141.556,159.05 140.943,159.05 
		140.332,159.05 139.719,159.222 139.26,159.394 138.801,159.736 138.495,160.421 141.402,160.25 144.157,161.107 146.758,162.821 
		149.054,165.22 151.196,168.133 153.186,171.218 155.021,174.474 156.705,177.73 158.389,180.815 159.919,183.386 160.684,192.64 
		163.286,201.037 167.111,208.577 172.007,215.604 177.67,222.115 183.791,228.457 189.912,234.626 195.879,240.796 
		201.235,247.307 205.826,254.162 201.694,254.162 197.256,254.162 192.512,254.162 187.922,253.82 183.178,253.476 
		178.588,252.618 174.303,251.25 170.324,249.536 166.805,247.136 163.744,243.879 165.733,243.538 168.334,243.367 
		171.243,243.367 174.303,243.538 177.67,243.709 181.188,243.879 184.556,243.709 187.77,243.367 190.83,242.511 193.431,241.309 
		190.523,240.625 187.463,240.281 184.556,240.11 181.342,239.94 178.281,239.94 175.068,239.94 171.854,239.94 168.641,240.11 
		165.581,240.11 162.367,240.11 161.296,235.826 160.225,231.541 159.154,227.086 158.082,222.801 156.858,218.517 155.328,214.404 
		153.645,210.291 151.655,206.35 149.36,202.579 146.605,198.98 142.78,190.241 139.873,181.329 137.423,172.075 135.281,162.478 
		133.14,153.052 130.844,143.798 128.243,134.544 124.876,125.804 120.744,117.578 115.542,110.038 117.225,109.009 
		118.755,108.667 120.438,108.838 121.969,109.181 123.499,110.038 125.029,110.895 126.56,111.923 128.089,112.78 129.62,113.636 
		131.303,114.322 132.527,118.778 133.446,123.405 134.516,128.032 135.435,132.659 136.506,137.286 137.577,141.742 
		138.801,146.197 140.332,150.653 142.015,155.109 144.157,159.222 144.157,159.222 	"/>
	<polygon fill="#4CABDC" points="239.338,111.58 239.185,112.094 238.879,112.437 238.573,112.608 238.267,112.78 237.808,112.78 
		237.502,112.78 237.042,112.78 236.584,112.78 236.277,112.78 235.972,112.78 236.89,109.009 239.338,111.58 239.338,111.58 	"/>
	<polygon fill="#4CABDC" points="256.476,112.608 256.323,113.123 256.172,113.465 255.865,113.808 255.406,113.979 255.1,114.15 
		254.641,114.15 254.181,114.322 253.875,114.322 253.569,114.322 253.264,114.322 250.814,111.58 251.58,111.237 252.345,110.723 
		252.957,110.381 253.723,110.038 254.335,110.038 254.946,110.038 255.559,110.209 256.018,110.723 256.323,111.58 256.476,112.78 
		256.476,112.78 	"/>
	<polygon fill="#F4B1B3" points="147.524,138.314 148.595,140.884 150.125,143.284 151.655,145.512 153.491,147.739 
		155.328,149.797 157.165,151.853 159,153.91 160.684,155.966 162.367,158.193 163.744,160.421 158.235,161.792 153.645,161.45 
		149.972,159.908 147.065,157.337 144.616,153.737 142.78,149.453 141.402,144.827 140.178,140.028 139.26,135.401 138.495,130.945 
		138.495,112.78 141.708,113.979 143.698,115.864 144.922,118.435 145.381,121.177 145.535,124.091 145.381,127.347 
		145.228,130.431 145.381,133.344 146.146,136.087 147.524,138.486 147.524,138.486 	"/>
	<polygon fill="#4CABDC" points="249.744,134.544 249.896,135.058 249.744,135.229 249.591,135.572 249.438,135.915 
		249.285,136.258 249.131,136.429 248.979,136.771 248.826,136.944 248.52,137.115 248.366,137.286 245,133.516 245.459,133.516 
		246.071,133.516 246.53,133.344 247.142,133.344 247.601,133.344 248.214,133.344 248.672,133.516 249.131,133.688 249.591,134.03 
		249.896,134.715 249.896,134.715 	"/>
	<polygon fill="#721E7B" points="304.833,172.075 304.833,184.928 299.019,184.414 293.049,183.729 287.081,182.7 281.267,181.5 
		275.452,179.787 269.637,177.73 264.281,175.16 259.078,172.075 254.181,168.476 249.896,164.192 252.04,164.877 254.181,165.905 
		256.476,167.105 258.619,168.305 260.915,169.333 263.21,170.19 265.657,170.703 267.953,170.533 270.402,169.676 272.85,167.791 
		272.239,165.905 271.474,164.705 270.402,163.849 269.331,163.335 267.953,162.992 266.577,162.992 264.893,162.821 
		263.362,162.65 261.68,162.135 259.843,161.45 267.953,152.881 269.483,153.91 270.861,154.938 271.933,156.137 273.156,157.165 
		274.229,158.022 275.452,158.879 276.676,159.394 278.206,159.736 279.891,159.736 281.879,159.222 283.409,158.365 
		284.327,157.165 284.939,155.623 285.246,154.081 285.246,152.539 284.939,150.825 284.634,149.111 284.021,147.568 
		283.409,146.026 282.797,144.827 278.512,138.486 283.104,139.514 286.47,141.742 289.071,144.827 291.061,148.597 
		292.743,152.881 294.273,157.337 296.11,161.621 298.253,165.734 301.159,169.333 304.833,172.075 304.833,172.075 	"/>
	<polygon fill="#DA418D" points="293.355,160.25 286.163,161.45 287.388,161.964 288.459,162.307 289.683,162.65 290.754,163.163 
		291.826,163.506 292.897,164.02 293.968,164.535 294.886,165.22 295.804,165.905 296.723,166.763 295.804,167.105 295.038,167.448 
		294.121,167.962 293.202,168.476 292.438,168.99 291.826,169.676 291.061,170.361 290.602,171.218 290.296,172.247 
		289.989,173.274 289.989,174.131 289.989,174.988 289.837,176.016 289.837,177.045 289.837,177.901 289.837,178.93 
		289.989,179.958 290.142,180.815 290.448,181.672 290.906,182.357 286.622,182.186 283.562,180.129 281.267,177.045 
		279.584,173.104 278.359,168.819 276.982,164.877 275.3,161.792 273.156,159.736 269.943,159.564 265.657,161.45 269.024,156.651 
		270.402,158.708 271.778,160.25 273.463,161.45 275.146,162.135 276.829,162.478 278.664,162.478 280.501,162.478 282.49,162.135 
		284.327,161.792 286.163,161.45 286.776,160.079 287.235,158.537 287.541,156.823 287.693,154.766 287.541,152.881 
		287.235,150.825 286.776,148.768 286.163,146.883 285.398,145.169 284.327,143.798 285.704,144.827 286.929,146.197 288,147.739 
		289.071,149.282 289.837,150.996 290.754,152.881 291.52,154.766 292.132,156.651 292.743,158.537 293.355,160.421 
		293.355,160.421 	"/>
	<polygon fill="#4CABDC" points="121.204,147.397 118.602,147.226 116,146.711 113.399,146.369 110.797,146.026 108.349,145.854 
		105.901,145.854 103.453,146.026 101.157,146.541 98.862,147.397 96.873,148.597 98.097,146.541 99.933,145.512 102.076,144.997 
		104.524,144.827 107.279,145.169 110.032,145.854 112.94,146.541 115.848,147.055 118.602,147.397 121.204,147.568 
		121.204,147.568 	"/>
	<polygon fill="#4CABDC" points="221.128,150.139 215.466,153.052 209.958,154.252 204.602,154.252 199.246,153.566 
		194.196,152.367 188.993,151.167 183.791,150.139 178.435,149.797 172.926,150.653 167.111,152.881 172.313,150.653 
		177.67,149.797 183.178,149.797 188.84,150.31 194.502,151.339 200.164,152.367 205.672,153.052 211.029,153.052 216.231,152.195 
		221.128,150.139 221.128,150.139 	"/>
	<polygon fill="#4CABDC" points="236.89,152.881 232.605,152.881 232.605,150.139 236.89,150.139 236.89,152.881 236.89,152.881 	
		"/>
	<polygon fill="#F4B1B3" points="167.111,164.02 169.253,166.763 171.243,169.504 173.384,172.247 175.374,174.988 177.21,177.901 
		178.894,180.815 180.271,183.729 181.188,186.813 181.801,190.069 181.954,193.497 180.271,195.382 179.505,197.095 
		179.505,198.98 180.118,200.866 181.036,202.751 182.414,204.464 183.637,206.35 185.015,208.235 186.086,209.948 186.698,211.833 
		188.687,212.861 190.677,213.89 192.666,215.261 194.502,216.632 196.338,218.174 198.175,219.717 199.858,221.43 201.694,223.315 
		203.224,225.201 204.907,227.257 204.907,228.628 204.907,229.827 204.754,231.027 204.449,232.227 204.296,233.598 
		203.989,234.798 203.837,235.997 203.684,237.369 203.684,238.738 203.989,240.11 196.797,238.567 192.512,233.769 188.075,228.8 
		183.484,223.659 179.046,218.517 174.915,213.033 171.089,207.378 167.723,201.209 165.121,194.867 163.286,188.013 
		162.367,180.644 152.267,162.992 153.797,163.506 155.328,163.849 156.705,164.02 157.93,164.192 159.307,164.192 160.684,164.192 
		162.214,164.192 163.744,164.192 165.274,164.192 167.111,164.192 167.111,164.192 	"/>
	<polygon fill="#EB81AE" points="302.384,176.873 302.384,180.644 301.618,180.986 300.854,180.986 300.088,180.815 
		299.477,180.472 298.711,180.129 298.099,179.787 297.488,179.616 296.875,179.616 296.263,179.958 295.804,180.644 
		295.804,182.357 294.273,182.357 294.273,181.158 294.121,179.787 293.814,178.416 293.509,177.045 293.355,175.674 
		293.355,174.303 293.509,173.104 294.121,172.075 295.192,171.218 296.723,170.533 297.946,170.19 299.019,170.19 300.088,170.361 
		300.854,170.875 301.618,171.561 302.079,172.417 302.384,173.445 302.689,174.474 302.689,175.674 302.384,177.045 
		302.384,177.045 	"/>
	<polygon fill="#DA418D" points="279.43,178.587 278.359,179.102 276.982,179.272 275.759,178.93 274.381,178.245 272.85,177.558 
		271.474,176.531 269.943,175.674 268.566,174.646 267.035,173.789 265.657,173.274 266.729,173.617 267.953,173.617 
		269.331,173.445 270.861,173.274 272.392,173.104 273.922,173.104 275.452,173.617 276.982,174.474 278.206,176.188 
		279.43,178.587 279.43,178.587 	"/>
	<polygon fill="#4CABDC" points="245.918,173.104 246.071,173.617 246.071,173.96 246.071,174.474 246.071,174.817 246.071,175.331 
		246.071,175.674 245.918,176.188 245.765,176.531 245.459,176.702 245,177.045 242.705,173.274 246.071,173.274 246.071,173.274 	
		"/>
	<polygon fill="#4CABDC" points="253.11,187.156 252.498,187.327 251.886,187.327 251.121,187.327 250.509,187.327 249.896,187.156 
		249.438,186.813 248.826,186.47 248.366,186.127 247.907,185.613 247.449,184.928 247.907,184.243 248.366,183.729 
		248.826,183.214 249.438,182.7 249.896,182.529 250.509,182.186 251.121,182.186 251.886,182.186 252.498,182.186 253.264,182.357 
		253.264,187.156 253.264,187.156 	"/>
	<polygon fill="#4CABDC" points="272.697,200.009 272.085,200.866 271.319,201.38 270.709,201.551 269.943,201.38 269.178,201.037 
		268.566,200.693 267.801,200.18 267.035,199.666 266.423,199.151 265.657,198.98 265.812,197.266 266.423,196.067 267.342,195.382 
		268.413,195.21 269.637,195.21 270.709,195.724 271.626,196.409 272.392,197.438 272.85,198.638 272.85,200.009 272.85,200.009 	
		"/>
	<polygon fill="#4CABDC" points="281.879,209.092 281.421,209.092 281.114,209.092 280.655,209.263 280.194,209.263 
		279.891,209.092 279.584,209.092 279.277,208.92 278.971,208.749 278.664,208.406 278.512,208.063 280.501,204.293 
		281.114,204.293 281.421,204.464 281.726,204.808 281.879,205.321 281.879,205.835 281.879,206.521 281.879,207.207 
		281.726,207.892 281.726,208.577 281.879,209.092 281.879,209.092 	"/>
	<polygon fill="#F4E500" points="241.634,220.745 239.338,220.231 236.737,219.888 233.982,219.545 231.228,219.374 
		228.473,219.203 225.719,219.374 223.117,219.545 220.67,219.888 218.374,220.231 216.384,220.916 216.384,221.945 220.21,222.63 
		224.342,222.972 228.933,223.315 233.677,223.487 238.42,223.83 243.317,224.172 248.214,225.029 252.805,226.058 257.241,227.771 
		261.373,229.999 250.814,251.42 248.979,252.106 247.142,252.106 245,251.762 243.01,251.25 240.868,250.734 238.726,250.393 
		236.737,250.393 234.747,250.905 232.911,252.106 231.228,254.162 228.933,253.82 226.637,253.135 224.647,251.937 
		222.658,250.563 220.67,249.021 218.833,247.478 216.844,245.938 215.007,244.565 212.865,243.538 210.569,242.852 
		212.865,242.338 215.161,242.166 217.456,241.995 219.904,241.995 222.199,241.995 224.495,241.825 226.637,241.309 
		228.78,240.452 230.769,239.254 232.605,237.54 230.616,237.197 228.626,237.197 226.484,237.369 224.342,237.71 222.353,238.054 
		220.21,238.396 218.068,238.911 215.926,239.425 213.784,239.767 211.641,240.11 211.029,237.71 210.723,235.14 210.875,232.741 
		211.182,230.342 211.793,228.114 212.559,225.714 213.477,223.487 214.548,221.43 215.466,219.203 216.384,217.146 
		218.986,214.404 221.587,213.033 224.188,212.519 226.637,213.033 229.086,214.061 231.533,215.432 233.982,216.974 
		236.431,218.517 239.032,219.888 241.787,220.916 241.787,220.916 	"/>
	<polygon fill="#344C98" points="314.779,229.999 313.86,231.027 307.28,219.203 308.199,219.888 309.117,220.745 310.189,221.602 
		311.106,222.63 312.178,223.659 313.095,224.686 313.708,225.886 314.32,227.257 314.779,228.628 314.932,229.999 314.932,229.999 
			"/>
	<polygon fill="#6293C8" points="276.064,236.34 273.922,237.71 272.239,240.11 270.709,243.023 269.331,246.279 267.953,249.365 
		266.423,252.106 264.588,254.162 262.292,255.189 259.385,255.019 255.559,252.964 256.172,249.877 257.241,246.109 
		258.619,242.166 260.302,238.567 262.292,235.311 264.588,232.741 267.188,231.37 269.943,231.199 273.004,232.913 276.217,236.34 
		276.217,236.34 	"/>
	<polygon fill="#344C98" points="328.704,247.651 329.775,247.478 330.693,247.307 331.611,246.795 332.529,246.45 333.449,246.109 
		334.366,245.764 335.284,245.764 336.049,245.938 336.968,246.621 337.886,247.651 338.956,248.85 340.028,250.222 
		340.794,251.937 341.252,253.82 341.559,255.705 341.711,257.76 341.404,259.647 340.946,261.361 340.335,262.901 339.264,264.273 
		338.65,265.301 338.039,266.329 337.733,267.359 337.273,268.388 337.12,269.415 336.814,270.442 336.661,271.645 336.355,272.672 
		336.203,273.87 335.896,274.897 337.12,276.785 338.498,277.813 340.028,278.499 341.865,278.841 343.7,279.011 345.536,279.011 
		347.221,279.355 348.904,279.868 350.435,280.896 351.657,282.438 350.282,281.24 348.597,280.554 346.761,280.212 
		344.926,280.039 342.935,280.039 340.946,280.039 339.108,279.697 337.273,279.011 335.743,277.983 334.519,276.099 
		333.602,277.126 332.224,275.754 330.389,274.215 328.245,272.672 325.949,271.128 323.502,269.244 321.053,267.186 
		318.911,264.789 317.074,262.219 315.696,259.133 314.932,255.705 317.227,243.879 317.687,246.279 317.992,248.68 
		318.451,251.079 318.911,253.476 319.522,255.705 320.287,257.935 321.358,259.818 322.583,261.703 324.267,263.075 
		326.409,264.273 333.602,265.816 333.449,266.158 333.449,266.503 333.449,266.674 333.602,267.015 333.602,267.186 
		333.754,267.53 334.06,267.701 334.214,268.042 334.366,268.217 334.519,268.559 335.59,267.186 336.661,265.646 337.733,264.103 
		338.65,262.219 339.569,260.505 340.181,258.446 340.487,256.562 340.639,254.506 340.181,252.448 339.264,250.393 337.886,248.85 
		336.509,248.164 334.979,247.993 333.449,248.164 331.919,248.509 330.233,248.85 328.704,249.021 327.174,248.85 325.797,248.164 
		324.419,246.621 323.961,248.164 323.961,249.707 324.267,251.25 324.879,252.793 325.644,254.162 326.715,255.534 
		327.786,256.903 329.011,257.935 330.081,258.791 331.153,259.474 329.775,259.647 328.551,259.474 327.48,258.962 
		326.563,258.275 325.644,257.248 324.879,256.046 324.113,254.848 323.502,253.649 322.736,252.448 322.124,251.42 
		323.041,249.877 323.502,248.334 323.349,246.965 322.736,245.593 322.124,244.395 321.206,242.852 320.594,241.481 
		320.135,239.94 320.135,238.226 320.594,236.34 320.9,237.54 321.358,238.911 321.818,240.281 322.431,241.654 323.041,243.023 
		323.961,244.395 324.879,245.422 325.949,246.45 327.328,247.136 328.704,247.651 328.704,247.651 	"/>
	<polygon fill="#344C98" points="270.402,240.11 267.035,242.852 269.024,237.54 269.024,237.881 269.024,238.054 269.178,238.396 
		269.331,238.738 269.483,239.083 269.637,239.254 269.943,239.595 270.096,239.767 270.249,239.94 270.402,240.11 270.402,240.11 	
		"/>
	<polygon fill="#F4E500" points="289.989,251.42 290.448,253.649 290.296,255.876 289.989,257.935 289.376,259.818 288.766,261.703 
		287.846,263.417 287.081,265.131 286.316,267.015 285.704,268.729 285.246,270.613 283.562,271.814 281.726,272.672 
		279.736,273.184 277.747,273.528 275.604,273.699 273.463,273.699 271.474,273.528 269.331,273.184 267.494,272.842 
		265.657,272.326 265.657,270.787 265.657,269.073 265.812,267.359 265.964,265.472 266.271,263.758 266.729,262.044 
		267.342,260.331 268.107,258.962 269.178,257.76 270.402,256.732 272.239,256.903 273.922,256.903 275.759,256.903 
		277.595,256.732 279.43,256.562 281.114,256.046 282.645,255.189 284.021,254.333 285.246,252.964 286.163,251.42 269.024,252.964 
		277.135,238.567 278.664,239.595 280.194,240.452 281.726,241.481 283.256,242.681 284.786,243.709 286.163,245.081 
		287.541,246.45 288.611,247.993 289.376,249.536 289.989,251.42 289.989,251.42 	"/>
	<polygon fill="#F4B1B3" points="205.826,249.191 201.542,242.852 204.907,242.852 205.826,249.191 205.826,249.191 	"/>
	<polygon fill="#344C98" points="262.292,251.42 263.21,246.621 263.21,250.393 262.292,251.42 262.292,251.42 	"/>
	<polygon fill="#E75021" points="210.569,253.991 210.569,251.42 215.466,254.162 210.569,254.162 210.569,254.162 	"/>
	<polygon fill="#4CABDC" points="96.72,252.964 107.279,254.162 96.873,252.964 96.873,252.964 	"/>
	<polygon fill="#F4B1B3" points="205.826,257.76 205.826,260.675 205.214,263.417 204.296,265.816 203.072,268.217 201.542,270.271 
		199.705,272.156 197.716,273.87 195.573,275.242 193.277,276.27 190.982,277.126 188.228,276.956 185.321,275.928 182.719,274.215 
		180.118,271.814 177.516,269.073 175.221,265.987 173.079,262.73 171.243,259.304 169.559,256.046 168.029,252.964 205.826,257.76 
		205.826,257.76 	"/>
	<polygon fill="#F4E500" points="248.366,263.075 234.594,256.732 235.666,256.903 237.042,256.732 238.267,256.221 
		239.645,255.705 241.175,255.019 242.552,254.506 244.082,254.162 245.459,254.333 246.989,254.677 248.366,255.705 
		248.366,263.246 248.366,263.246 	"/>
	<polygon fill="#6293C8" points="263.21,256.732 261.373,269.586 259.997,268.559 258.313,267.701 256.476,267.186 254.641,266.674 
		252.957,266.158 251.58,265.301 250.509,264.273 250.203,262.73 250.509,260.675 251.733,257.76 252.498,256.903 253.569,256.391 
		254.641,256.221 255.711,256.221 256.937,256.221 258.313,256.562 259.537,256.732 260.762,256.903 261.985,256.903 
		263.21,256.732 263.21,256.732 	"/>
	<polygon fill="#E75021" points="226.791,264.273 227.096,264.103 227.25,263.932 227.402,263.758 227.556,263.588 227.708,263.417 
		227.861,263.246 228.015,262.901 228.015,262.73 228.015,262.39 227.861,262.044 225.413,259.474 227.096,259.818 228.473,260.505 
		229.698,261.361 230.616,262.56 231.687,263.932 232.452,265.301 233.37,266.674 234.135,268.217 235.053,269.415 235.972,270.613 
		234.135,274.215 231.84,277.643 229.238,280.725 226.484,283.811 223.423,286.552 220.21,288.952 216.691,291.007 213.171,292.55 
		209.499,293.577 205.826,294.264 213.936,286.211 211.641,283.466 209.651,285.866 207.814,287.75 205.826,289.464 
		203.989,290.665 202,291.352 200.164,291.522 198.175,291.007 196.186,289.809 194.349,287.925 192.512,285.18 188.687,281.411 
		191.9,281.24 194.808,280.554 197.563,279.355 200.011,277.643 202.307,275.584 204.449,273.184 206.285,270.613 207.968,267.871 
		209.345,264.96 210.569,262.044 210.569,257.76 212.559,257.76 214.396,257.76 216.231,257.935 217.915,258.104 219.598,258.446 
		221.281,258.962 222.812,259.818 224.342,260.846 225.719,262.39 226.943,264.273 226.943,264.273 	"/>
	<polygon fill="#B3491A" points="334.366,273.357 333.449,271.814 332.071,270.613 330.541,269.756 328.704,269.073 
		326.867,268.388 325.032,267.701 323.349,266.674 321.818,265.646 320.594,264.103 319.676,262.044 320.9,263.758 322.431,264.96 
		324.267,265.646 325.949,266.158 327.786,266.674 329.623,267.359 331.153,268.217 332.529,269.244 333.754,270.957 
		334.519,273.357 334.519,273.357 	"/>
	<polygon fill="#344C98" points="224.495,279.697 228.78,268.559 226.943,277.126 224.495,279.868 224.495,279.868 	"/>
	<polygon fill="#B3491A" points="351.657,274.897 351.046,275.071 350.282,275.071 349.517,274.897 348.752,274.556 
		348.139,274.215 347.525,273.699 346.914,273.184 346.456,272.501 346.148,271.645 345.995,270.613 346.761,270.442 
		347.525,270.613 348.139,270.787 348.752,271.299 349.21,271.814 349.669,272.501 350.127,273.184 350.587,273.87 351.199,274.385 
		351.657,274.897 351.657,274.897 	"/>
	<polygon fill="#B3491A" points="358.85,274.897 359.768,270.613 362.217,270.613 358.85,274.897 358.85,274.897 	"/>
	<polygon fill="#F4B1B3" points="251.733,311.917 248.366,310.886 244.847,309.858 241.021,309.001 236.89,307.974 232.911,306.775 
		228.78,305.402 224.801,303.689 220.975,301.805 217.303,299.405 213.936,296.318 216.538,295.462 219.444,293.923 
		222.353,292.034 225.566,289.638 228.626,286.894 231.84,284.152 234.9,281.069 237.655,278.154 240.41,275.071 242.705,272.326 
		251.733,311.917 251.733,311.917 	"/>
	<polygon fill="#B7D8EF" points="249.744,273.357 250.509,278.67 251.427,283.981 252.651,289.123 254.181,294.093 256.018,299.063 
		258.16,303.86 260.456,308.314 263.058,312.428 265.964,316.372 269.024,319.97 267.035,322.024 262.139,319.283 258.313,315.686 
		255.559,311.401 253.569,306.775 252.192,301.634 251.274,296.147 250.509,290.495 249.744,284.668 248.826,279.011 
		247.449,273.357 249.896,273.357 249.896,273.357 	"/>
	<polygon fill="#F4B1B3" points="278.512,281.411 275.911,283.125 273.77,285.009 271.778,287.409 269.943,289.979 268.413,292.721 
		267.035,295.462 265.812,298.377 264.588,301.46 263.362,304.376 262.292,307.117 254.181,276.099 256.63,275.584 259.078,275.928 
		261.373,276.956 263.668,278.324 265.964,279.697 268.26,281.069 270.709,282.268 273.156,282.783 275.759,282.609 
		278.512,281.411 278.512,281.411 	"/>
	<polygon fill="#B7D8EF" points="297.641,286.211 296.875,285.354 296.568,284.668 296.568,284.152 297.027,283.811 
		297.641,283.466 298.253,283.125 299.019,282.783 299.629,282.438 299.936,281.927 300.088,281.411 297.641,286.211 
		297.641,286.211 	"/>
	<polygon fill="#B7D8EF" points="294.273,286.211 295.958,289.979 298.099,293.577 300.395,297.351 302.689,300.947 
		304.833,304.547 306.363,308.145 307.28,311.743 306.974,315.17 305.444,318.772 302.384,322.024 287.693,330.082 288.611,329.054 
		289.837,328.023 291.52,326.653 293.355,325.282 295.192,323.568 297.027,321.854 298.863,320.141 300.395,318.086 
		301.618,315.856 302.384,313.456 302.231,310.373 301.618,307.459 300.549,304.717 299.323,302.146 297.946,299.405 
		296.416,296.834 295.038,294.435 293.814,291.693 292.743,289.123 291.979,286.211 294.273,286.211 294.273,286.211 	"/>
	<polygon fill="#B7D8EF" points="308.199,288.781 307.894,289.294 307.587,289.638 307.28,289.979 306.974,290.495 306.669,290.836 
		306.363,291.178 306.057,291.522 305.598,291.693 305.291,291.693 304.833,291.522 307.28,287.75 308.199,288.952 308.199,288.952 
			"/>
	<polygon fill="#E75021" points="267.035,311.917 266.729,310.028 266.729,307.974 267.035,306.089 267.494,304.03 268.107,302.146 
		268.872,300.092 269.79,298.206 270.861,296.318 271.778,294.435 272.85,292.721 267.035,311.917 267.035,311.917 	"/>
	<polygon fill="#F4B1B3" points="389.455,295.292 395.882,297.176 402.155,298.377 408.124,298.89 413.938,299.063 419.602,299.063 
		425.264,299.063 430.924,299.234 436.586,299.576 442.4,300.263 448.369,301.805 447.451,302.317 446.38,302.662 445.155,303.174 
		443.932,303.519 442.707,303.86 441.483,304.376 440.565,305.231 439.801,306.26 439.34,307.459 439.188,309.172 441.177,311.917 
		439.493,312.599 437.963,312.773 436.586,312.258 435.056,311.572 433.525,310.544 432.148,309.347 430.618,308.145 
		429.241,306.775 427.711,305.573 426.333,304.376 420.977,303.348 415.928,302.833 411.031,303.003 406.439,303.519 
		401.849,304.376 397.259,305.231 392.668,305.918 387.772,306.26 382.569,306.26 377.061,305.573 376.448,304.547 375.835,303.519 
		375.224,302.317 374.611,301.289 374,300.092 373.694,298.89 373.539,297.691 373.694,296.493 374,295.462 374.611,294.264 
		376.141,295.292 377.519,295.977 378.896,296.493 380.273,296.663 381.65,296.834 383.181,296.663 384.711,296.493 
		386.242,296.147 387.772,295.807 389.455,295.292 389.455,295.292 	"/>
	<polygon fill="#E75021" points="373.694,308.145 373.539,309.001 373.539,309.858 373.694,310.715 373.694,311.572 
		373.694,312.258 373.694,313.115 373.539,313.802 373.234,314.486 372.929,315.17 372.316,315.686 373.081,314.486 
		373.539,313.456 373.539,312.258 373.387,311.06 373.081,309.858 372.622,308.66 372.009,307.632 371.398,306.431 370.786,305.402 
		370.326,304.376 368.338,303.174 366.194,302.317 363.899,301.976 361.604,301.805 359.31,302.146 357.014,302.662 
		354.872,303.348 352.576,304.03 350.435,304.888 348.291,305.573 347.066,306.089 345.995,307.117 345.078,308.145 
		344.465,309.518 344.007,310.886 343.854,312.428 343.854,313.972 344.007,315.515 344.465,317.058 345.078,318.427 
		344.313,319.113 343.854,318.942 343.396,318.256 342.935,317.058 342.782,315.515 342.63,313.802 342.477,311.917 
		342.477,310.028 342.477,308.489 342.63,307.117 345.536,304.888 348.904,303.174 352.423,301.634 356.097,300.604 
		359.768,300.092 363.289,300.092 366.654,300.947 369.562,302.491 371.856,304.888 373.694,308.145 373.694,308.145 	"/>
	<polygon fill="#B7D8EF" points="370.326,311.917 369.104,314.657 367.572,316.714 365.736,318.086 363.594,319.113 
		361.298,319.628 358.85,319.799 356.402,319.628 353.953,319.283 351.505,318.772 349.362,318.427 349.21,317.569 348.904,316.885 
		348.444,316.027 347.986,315.344 347.525,314.657 347.221,313.802 347.066,313.115 347.221,312.428 347.525,311.572 
		348.291,310.886 350.127,309.347 352.423,307.803 355.024,306.775 357.627,305.918 360.38,305.402 363.134,305.402 
		365.583,305.918 367.725,307.117 369.256,309.172 370.326,311.917 370.326,311.917 	"/>
	<polygon fill="#B7D8EF" points="313.86,309.172 312.942,307.117 316.31,307.117 313.86,309.172 313.86,309.172 	"/>
	<polygon fill="#6FB121" points="155.634,323.568 153.491,323.739 151.655,322.882 150.125,321.342 148.595,319.628 147.065,317.74 
		145.535,316.027 143.852,314.657 141.862,313.972 139.567,314.313 136.965,315.686 136.046,311.917 138.188,312.944 
		140.484,313.631 142.933,314.313 145.381,314.999 147.83,315.686 150.125,316.543 152.114,317.569 153.645,319.113 
		154.869,321.168 155.634,323.739 155.634,323.739 	"/>
	<polygon fill="#E75021" points="290.906,332.823 289.989,334.195 289.071,335.393 288,336.25 286.776,336.766 285.551,337.107 
		284.327,337.107 283.104,336.937 281.879,336.421 280.655,335.908 279.43,334.878 280.501,335.224 281.573,335.224 
		282.797,335.053 283.868,334.878 285.092,334.537 286.316,334.195 287.388,333.68 288.611,333.338 289.837,332.994 
		290.906,332.823 290.906,332.823 	"/>
	<polygon fill="#B7D8EF" points="359.768,341.392 358.85,342.935 356.555,334.878 356.861,335.734 357.319,336.421 357.779,336.937 
		358.392,337.449 358.85,337.964 359.31,338.479 359.768,339.162 359.921,339.678 360.073,340.534 359.768,341.392 359.768,341.392 
			"/>
	<polygon fill="#B7D8EF" points="328.704,341.392 331.153,337.622 331.153,341.392 328.704,341.392 328.704,341.392 	"/>
	<polygon fill="#B7D8EF" points="334.366,343.962 333.602,344.133 335.896,339.162 335.896,339.678 335.743,340.192 
		335.743,340.705 335.743,341.392 335.743,341.907 335.743,342.42 335.59,342.935 335.284,343.275 334.979,343.792 334.519,344.133 
		334.519,344.133 	"/>
	<polygon fill="#B7D8EF" points="355.024,345.676 354.106,339.162 355.024,341.392 355.024,345.676 355.024,345.676 	"/>
	<polygon fill="#B7D8EF" points="350.74,340.192 351.657,340.363 351.657,345.676 350.74,345.676 350.74,340.363 350.74,340.363 	
		"/>
	<polygon fill="#B7D8EF" points="340.181,341.392 340.487,342.078 340.487,342.764 340.335,343.446 340.181,343.962 
		339.874,344.479 339.569,344.989 339.108,345.334 338.804,345.847 338.344,346.191 337.886,346.704 337.733,346.018 
		337.886,345.334 338.039,344.647 338.191,343.962 338.498,343.446 338.804,342.935 339.264,342.589 339.569,342.078 
		339.874,341.733 340.181,341.392 340.181,341.392 	"/>
	<polygon fill="#B7D8EF" points="342.63,341.392 343.548,341.392 343.548,345.676 342.63,345.676 342.63,341.392 342.63,341.392 	
		"/>
	<polygon fill="#B7D8EF" points="347.373,346.704 345.995,341.392 347.373,342.935 347.373,346.704 347.373,346.704 	"/>
	<polygon fill="#F4B1B3" points="262.292,371.382 260.915,371.211 259.078,371.04 257.089,371.04 254.793,370.866 252.651,370.695 
		250.814,370.01 249.131,368.981 247.907,367.439 247.296,365.214 247.449,362.298 249.438,362.984 251.427,363.328 
		253.264,363.499 254.946,363.67 256.63,364.011 258.16,364.527 259.537,365.384 260.608,366.756 261.527,368.641 262.292,371.382 
		262.292,371.382 	"/>
	<polygon fill="#F4B1B3" points="291.826,411.996 290.906,411.996 291.979,435.646 292.132,434.274 292.285,432.735 
		292.132,431.362 291.979,429.99 291.672,428.791 291.213,427.594 290.754,426.392 290.142,425.364 289.376,424.508 288.611,423.82 
		287.846,424.337 287.235,425.023 286.776,425.706 286.47,426.392 286.316,427.249 286.163,428.106 286.163,428.791 
		286.163,429.648 286.163,430.506 286.163,431.362 286.011,431.704 286.011,431.021 286.163,429.648 286.47,427.765 
		286.622,425.706 286.47,423.651 286.163,421.937 285.398,420.739 284.021,420.394 281.879,421.251 283.562,414.396 
		283.104,408.742 280.808,403.771 277.288,399.317 272.85,395.374 267.801,391.604 262.751,387.491 257.854,383.207 
		253.723,378.236 250.814,372.41 256.323,373.437 261.221,375.666 265.657,379.094 269.637,383.207 273.309,388.004 
		276.982,393.146 280.501,398.46 284.021,403.427 287.846,408.056 291.979,411.996 291.979,411.996 	"/>
</g>
</svg>
