<?xml version="1.0" encoding="utf-8"?>
<!-- Generator: Adobe Illustrator 14.0.0, SVG Export Plug-In . SVG Version: 6.00 Build 43363)  -->
<!DOCTYPE svg PUBLIC "-//W3C//DTD SVG 1.1//EN" "http://www.w3.org/Graphics/SVG/1.1/DTD/svg11.dtd">
<svg version="1.1" id="Calque_1" xmlns="http://www.w3.org/2000/svg" xmlns:xlink="http://www.w3.org/1999/xlink" x="0px" y="0px"
	 width="500px" height="500px" viewBox="0 0 500 500" enable-background="new 0 0 500 500" xml:space="preserve">
<g>
	<polygon fill-rule="evenodd" clip-rule="evenodd" points="259.031,146 256.873,146.144 254.783,146.432 252.768,146.936 
		250.824,147.656 249.024,148.52 247.296,149.6 245.64,150.824 244.2,152.192 242.832,153.704 241.608,155.288 240.528,157.016 
		239.664,158.888 238.944,160.832 238.44,162.848 238.152,164.936 238.008,167.096 238.152,169.256 238.44,171.344 238.944,173.36 
		239.664,175.304 240.528,177.176 241.608,178.904 242.832,180.488 244.2,182 245.64,183.368 247.296,184.592 249.024,185.672 
		250.824,186.536 252.768,187.256 254.783,187.76 256.873,188.048 259.031,188.192 261.191,188.048 263.279,187.76 265.297,187.256 
		267.24,186.536 269.111,185.672 270.84,184.592 272.424,183.368 273.936,182 275.305,180.488 276.527,178.904 277.607,177.176 
		278.473,175.304 279.191,173.36 279.695,171.344 279.984,169.256 280.129,167.096 279.984,164.936 279.695,162.848 
		279.191,160.832 278.473,158.888 277.607,157.016 276.527,155.288 275.305,153.704 273.936,152.192 272.424,150.824 270.84,149.6 
		269.111,148.52 267.24,147.656 265.297,146.936 263.279,146.432 261.191,146.144 259.031,146 	"/>
	<polygon fill-rule="evenodd" clip-rule="evenodd" points="254.424,149.456 253.199,149.528 252.049,149.672 250.896,149.96 
		249.816,150.32 248.736,150.824 247.8,151.4 246.864,152.048 246,152.768 245.28,153.56 244.56,154.424 243.984,155.36 
		243.48,156.296 243.048,157.376 242.76,158.456 242.616,159.536 242.544,160.688 242.616,161.84 242.76,162.92 243.048,164 
		243.48,165.008 243.984,166.016 244.56,166.88 245.28,167.744 246,168.536 246.864,169.256 247.8,169.904 248.736,170.48 
		249.816,170.984 250.896,171.344 252.049,171.632 253.199,171.776 254.424,171.848 255.648,171.776 256.801,171.632 
		257.953,171.344 259.031,170.984 260.041,170.48 260.977,169.904 261.912,169.256 262.775,168.536 263.496,167.744 264.217,166.88 
		264.793,166.016 265.297,165.008 265.729,164 266.016,162.92 266.16,161.84 266.232,160.688 266.16,159.536 266.016,158.456 
		265.729,157.376 265.297,156.296 264.793,155.36 264.217,154.424 263.496,153.56 262.775,152.768 261.912,152.048 260.977,151.4 
		260.041,150.824 259.031,150.32 257.953,149.96 256.801,149.672 255.648,149.528 254.424,149.456 	"/>
	<polygon fill-rule="evenodd" clip-rule="evenodd" fill="#171716" points="254.352,149.888 252.049,150.104 249.96,150.752 
		248.016,151.688 246.36,153.056 244.992,154.64 243.912,156.44 243.264,158.384 243.048,160.544 243.264,162.704 243.912,164.72 
		244.992,166.52 246.36,168.104 248.016,169.4 249.96,170.336 252.049,170.984 254.352,171.2 256.584,170.984 258.744,170.336 
		260.615,169.4 262.271,168.104 263.641,166.52 264.721,164.72 265.367,162.704 265.584,160.544 265.367,158.384 264.721,156.44 
		263.641,154.64 262.271,153.056 260.615,151.688 258.744,150.752 256.584,150.104 254.352,149.888 	"/>
	<polygon fill-rule="evenodd" clip-rule="evenodd" fill="#2E2E2E" points="254.279,150.32 252.121,150.536 250.104,151.112 
		248.304,152.048 246.72,153.272 245.424,154.784 244.488,156.512 243.84,158.456 243.624,160.472 243.84,162.488 244.488,164.432 
		245.424,166.16 246.72,167.672 248.304,168.896 250.104,169.832 252.121,170.408 254.279,170.624 256.439,170.408 258.457,169.832 
		260.256,168.896 261.84,167.672 263.137,166.16 264.072,164.432 264.721,162.488 264.936,160.472 264.721,158.456 264.072,156.512 
		263.137,154.784 261.84,153.272 260.256,152.048 258.457,151.112 256.439,150.536 254.279,150.32 	"/>
	<polygon fill-rule="evenodd" clip-rule="evenodd" fill="#454545" points="254.209,150.824 252.191,151.04 250.32,151.544 
		248.592,152.48 247.08,153.632 245.856,155 244.92,156.656 244.344,158.456 244.128,160.4 244.344,162.344 244.92,164.144 
		245.856,165.728 247.08,167.168 248.592,168.32 250.32,169.184 252.191,169.76 254.209,169.976 256.225,169.76 258.096,169.184 
		259.824,168.32 261.336,167.168 262.561,165.728 263.496,164.144 264.072,162.344 264.289,160.4 264.072,158.456 263.496,156.656 
		262.561,155 261.336,153.632 259.824,152.48 258.096,151.544 256.225,151.04 254.209,150.824 	"/>
	<polygon fill-rule="evenodd" clip-rule="evenodd" fill="#5B5B5B" points="254.137,151.256 252.264,151.472 250.464,151.976 
		248.88,152.768 247.512,153.92 246.288,155.216 245.424,156.8 244.92,158.456 244.704,160.328 244.92,162.128 245.424,163.856 
		246.288,165.368 247.512,166.664 248.88,167.816 250.464,168.608 252.264,169.112 254.137,169.328 256.08,169.112 257.809,168.608 
		259.465,167.816 260.832,166.664 261.984,165.368 262.92,163.856 263.424,162.128 263.641,160.328 263.424,158.456 262.92,156.8 
		261.984,155.216 260.832,153.92 259.465,152.768 257.809,151.976 256.08,151.472 254.137,151.256 	"/>
	<polygon fill-rule="evenodd" clip-rule="evenodd" fill="#727271" points="254.064,151.688 252.264,151.832 250.608,152.336 
		249.096,153.128 247.8,154.208 246.72,155.432 245.928,156.872 245.352,158.456 245.208,160.184 245.352,161.912 245.928,163.496 
		246.72,164.936 247.8,166.16 249.096,167.24 250.608,168.032 252.264,168.536 254.064,168.68 255.863,168.536 257.52,168.032 
		259.031,167.24 260.4,166.16 261.48,164.936 262.271,163.496 262.775,161.912 262.992,160.184 262.775,158.456 262.271,156.872 
		261.48,155.432 260.4,154.208 259.031,153.128 257.52,152.336 255.863,151.832 254.064,151.688 	"/>
	<polygon fill-rule="evenodd" clip-rule="evenodd" fill="#8D8C8C" points="254.064,152.12 252.408,152.264 250.824,152.768 
		249.384,153.488 248.232,154.496 247.224,155.648 246.432,157.016 245.928,158.528 245.784,160.112 245.928,161.696 
		246.432,163.208 247.224,164.576 248.232,165.728 249.384,166.736 250.824,167.456 252.408,167.96 254.064,168.104 255.721,167.96 
		257.232,167.456 258.672,166.736 259.896,165.728 260.904,164.576 261.625,163.208 262.129,161.696 262.271,160.112 
		262.129,158.528 261.625,157.016 260.904,155.648 259.896,154.496 258.672,153.488 257.232,152.768 255.721,152.264 
		254.064,152.12 	"/>
	<polygon fill-rule="evenodd" clip-rule="evenodd" fill="#A4A3A4" points="253.992,152.624 252.408,152.768 250.968,153.2 
		249.672,153.92 248.52,154.784 247.584,155.864 246.864,157.16 246.432,158.528 246.288,160.04 246.432,161.552 246.864,162.92 
		247.584,164.216 248.52,165.296 249.672,166.16 250.968,166.88 252.408,167.312 253.992,167.456 255.504,167.312 256.943,166.88 
		258.24,166.16 259.393,165.296 260.328,164.216 261.049,162.92 261.48,161.552 261.625,160.04 261.48,158.528 261.049,157.16 
		260.328,155.864 259.393,154.784 258.24,153.92 256.943,153.2 255.504,152.768 253.992,152.624 	"/>
	<polygon fill-rule="evenodd" clip-rule="evenodd" fill="#BBBBBB" points="253.92,153.056 252.48,153.2 251.184,153.632 
		249.96,154.208 248.952,155.072 248.088,156.08 247.44,157.232 247.008,158.528 246.864,159.896 247.008,161.264 247.44,162.56 
		248.088,163.784 248.952,164.792 249.96,165.656 251.184,166.232 252.48,166.664 253.92,166.808 255.359,166.664 256.656,166.232 
		257.881,165.656 258.889,164.792 259.752,163.784 260.4,162.56 260.832,161.264 260.977,159.896 260.832,158.528 260.4,157.232 
		259.752,156.08 258.889,155.072 257.881,154.208 256.656,153.632 255.359,153.2 253.92,153.056 	"/>
	<polygon fill-rule="evenodd" clip-rule="evenodd" fill="#D1D1D1" points="253.848,153.488 252.553,153.632 251.328,153.992 
		250.248,154.568 249.24,155.36 248.448,156.296 247.872,157.376 247.512,158.528 247.368,159.824 247.512,161.12 247.872,162.272 
		248.448,163.352 249.24,164.288 250.248,165.08 251.328,165.656 252.553,166.016 253.848,166.16 255.145,166.016 256.367,165.656 
		257.447,165.08 258.457,164.288 259.248,163.352 259.824,162.272 260.184,161.12 260.328,159.824 260.184,158.528 259.824,157.376 
		259.248,156.296 258.457,155.36 257.447,154.568 256.367,153.992 255.145,153.632 253.848,153.488 	"/>
	<polygon fill-rule="evenodd" clip-rule="evenodd" fill="#E8E8E8" points="253.775,153.92 252.625,154.064 251.473,154.352 
		250.536,154.928 249.672,155.648 248.952,156.512 248.376,157.448 248.088,158.6 247.944,159.752 248.088,160.904 248.376,162.056 
		248.952,162.992 249.672,163.856 250.536,164.576 251.473,165.152 252.625,165.44 253.775,165.584 254.928,165.44 256.08,165.152 
		257.088,164.576 257.953,163.856 258.672,162.992 259.248,162.056 259.537,160.904 259.68,159.752 259.537,158.6 259.248,157.448 
		258.672,156.512 257.953,155.648 257.088,154.928 256.08,154.352 254.928,154.064 253.775,153.92 	"/>
	<polygon fill-rule="evenodd" clip-rule="evenodd" fill="#FFFFFF" points="253.705,154.352 252.625,154.424 251.688,154.784 
		250.752,155.288 250.032,155.936 249.384,156.728 248.88,157.592 248.52,158.6 248.448,159.68 248.52,160.76 248.88,161.696 
		249.384,162.632 250.032,163.352 250.752,164 251.688,164.504 252.625,164.864 253.705,164.936 254.783,164.864 255.793,164.504 
		256.656,164 257.447,163.352 258.096,162.632 258.6,161.696 258.961,160.76 259.031,159.68 258.961,158.6 258.6,157.592 
		258.096,156.728 257.447,155.936 256.656,155.288 255.793,154.784 254.783,154.424 253.705,154.352 	"/>
	<polygon fill-rule="evenodd" clip-rule="evenodd" points="217.344,193.736 299.064,193.736 300.072,193.16 301.08,192.8 
		302.088,192.584 303.023,192.44 303.816,192.368 304.465,192.368 304.896,192.44 305.041,192.44 305.256,192.584 305.832,192.872 
		306.695,193.448 307.775,194.24 308.928,195.176 310.152,196.256 311.305,197.552 312.385,198.92 313.031,199.928 314.041,201.44 
		315.264,203.528 316.775,206.048 318.504,208.928 320.447,212.312 322.537,215.984 324.695,220.016 326.928,224.336 
		329.232,228.944 331.607,233.768 333.912,238.808 336.145,243.992 338.305,249.32 340.32,254.792 342.191,260.264 158.16,260.264 
		157.296,257.384 156.36,254.072 155.496,250.4 154.704,246.44 154.056,242.336 153.696,238.16 153.552,233.984 153.84,230.024 
		167.664,230.888 169.104,231.608 170.4,232.328 171.696,233.12 172.92,233.984 174.072,234.848 175.152,235.712 176.16,236.576 
		177.168,237.368 176.736,234.2 176.664,231.392 176.88,228.944 177.168,227 177.96,226.136 179.184,224.768 180.84,223.112 
		182.784,221.096 184.944,218.792 187.392,216.272 189.912,213.68 192.504,210.944 195.168,208.208 197.76,205.544 200.208,202.88 
		202.584,200.432 204.672,198.2 206.544,196.256 208.056,194.6 209.136,193.304 209.64,192.728 210.288,192.08 211.08,191.504 
		211.944,191.072 213.024,191 214.248,191.288 215.688,192.152 217.344,193.736 	"/>
	<polygon fill-rule="evenodd" clip-rule="evenodd" fill="#FFFFFF" points="167.664,230.888 167.592,233.408 167.304,236.936 
		166.8,241.04 166.08,245.432 165.216,249.896 164.208,254 163.2,257.528 162.048,260.048 163.344,260.048 164.208,257.888 
		165.144,254.504 166.224,250.256 167.16,245.576 167.88,240.824 168.24,236.576 168.24,233.12 167.664,230.888 	"/>
	<polygon fill-rule="evenodd" clip-rule="evenodd" fill="#FFFFFF" points="298.561,195.248 298.199,200.792 297.336,205.688 
		296.041,210.008 294.385,213.824 292.439,217.064 290.137,219.872 287.545,222.248 284.736,224.264 281.783,225.848 
		278.688,227.144 275.447,228.152 272.137,228.872 268.824,229.448 265.512,229.736 262.199,229.88 259.031,229.952 256.08,229.88 
		253.199,229.736 250.392,229.448 247.728,229.016 245.208,228.512 242.76,227.864 240.384,227.144 238.152,226.28 236.064,225.344 
		234.048,224.264 232.176,223.04 230.376,221.744 228.648,220.304 227.136,218.792 225.696,217.136 224.328,215.408 222.528,212.6 
		221.088,209.72 220.008,206.912 219.144,204.176 218.568,201.584 218.208,199.136 217.92,196.976 217.848,195.176 216.912,195.248 
		216.984,197.12 217.272,199.28 217.632,201.728 218.208,204.392 219.072,207.272 220.224,210.152 221.664,213.104 223.536,215.984 
		224.904,217.784 226.416,219.44 228,221.024 229.728,222.464 231.6,223.832 233.544,225.056 235.56,226.136 237.72,227.144 
		240.024,228.008 242.4,228.8 244.92,229.448 247.512,229.952 250.248,230.384 253.057,230.672 256.008,230.816 259.031,230.888 
		262.271,230.816 265.656,230.672 269.041,230.384 272.496,229.88 275.881,229.088 279.191,228.08 282.359,226.712 285.457,225.056 
		288.264,223.04 290.928,220.592 293.232,217.712 295.32,214.328 296.977,210.44 298.271,205.976 299.137,200.936 299.496,195.248 
		298.561,195.248 	"/>
	<polygon fill-rule="evenodd" clip-rule="evenodd" fill="#FFFFFF" points="242.616,195.248 242.688,196.544 242.904,198.056 
		243.192,199.928 243.552,202.016 243.984,204.32 244.56,206.912 245.28,209.792 246.144,212.816 247.152,216.2 248.304,219.728 
		249.6,223.544 251.112,227.576 252.768,231.752 254.641,236.216 256.729,240.896 259.031,245.792 259.68,244.064 260.473,241.976 
		261.264,239.528 262.129,236.864 262.992,233.984 264,230.888 265.008,227.576 266.016,224.192 267.096,220.592 268.176,216.992 
		269.256,213.32 270.336,209.648 271.488,205.904 272.568,202.304 273.648,198.704 274.729,195.248 242.616,195.248 	"/>
	<polygon fill-rule="evenodd" clip-rule="evenodd" points="265.439,226.064 257.953,207.992 261.191,200.432 257.953,195.248 
		256.008,195.248 251.688,200.864 255.359,207.992 251.112,227.504 251.977,229.592 252.84,231.752 253.705,233.984 
		254.713,236.216 255.721,238.592 256.729,240.896 257.881,243.344 259.031,245.792 259.68,244.208 260.328,242.408 261.121,240.32 
		261.912,238.016 262.705,235.424 263.568,232.616 264.504,229.448 265.439,226.064 	"/>
	<polygon fill-rule="evenodd" clip-rule="evenodd" points="251.688,200.864 250.752,201.872 249.744,203.168 248.664,204.464 
		247.584,205.832 246.576,207.056 245.784,208.064 245.28,208.712 245.064,209 246,208.424 247.224,207.56 248.592,206.48 
		249.96,205.4 251.256,204.32 252.408,203.456 253.129,202.808 253.416,202.592 251.688,200.864 	"/>
	<polygon fill-rule="evenodd" clip-rule="evenodd" points="260.977,199.928 261.695,200.936 262.561,202.16 263.641,203.528 
		264.721,204.968 265.943,206.48 267.24,207.992 268.537,209.504 269.904,210.944 268.896,210.152 267.6,209.072 266.16,207.848 
		264.721,206.552 263.209,205.184 261.912,203.816 260.76,202.592 259.969,201.512 260.977,199.928 	"/>
	<polygon fill="#FFFFFF" points="258.672,245.648 259.393,245.648 257.088,240.752 255,236.072 253.129,231.608 251.473,227.432 
		249.96,223.4 248.664,219.656 247.512,216.128 246.504,212.744 245.64,209.72 244.92,206.84 244.344,204.248 243.912,201.944 
		243.552,199.928 243.264,198.056 243.048,196.544 242.976,195.248 242.256,195.248 242.328,196.544 242.544,198.056 
		242.832,199.928 243.192,202.088 243.624,204.392 244.2,206.984 244.92,209.864 245.784,212.888 246.792,216.272 247.944,219.8 
		249.24,223.688 250.752,227.72 252.408,231.896 254.279,236.36 256.367,241.04 258.672,245.936 259.393,245.936 258.672,245.936 
		259.031,246.8 259.393,245.936 	"/>
	<polygon fill="#FFFFFF" points="274.729,195.68 274.367,195.176 273.289,198.632 272.209,202.232 271.129,205.832 269.977,209.576 
		268.896,213.248 267.816,216.92 266.736,220.52 265.656,224.12 264.648,227.504 263.641,230.816 262.633,233.912 261.768,236.792 
		260.904,239.456 260.111,241.904 259.32,243.92 258.672,245.648 259.393,245.936 260.041,244.208 260.832,242.048 261.625,239.6 
		262.488,236.936 263.352,234.056 264.359,230.96 265.367,227.648 266.377,224.264 267.457,220.664 268.537,217.064 
		269.615,213.392 270.695,209.72 271.848,205.976 272.928,202.376 274.008,198.776 275.088,195.32 274.729,194.816 275.088,195.32 
		275.305,194.816 274.729,194.816 	"/>
	<polygon fill="#FFFFFF" points="242.976,195.248 242.616,195.68 274.729,195.68 274.729,194.816 242.616,194.816 242.256,195.248 
		242.616,194.816 242.184,194.816 242.256,195.248 	"/>
	<polygon fill-rule="evenodd" clip-rule="evenodd" points="152.544,219.296 138.936,202.952 134.832,206.408 148.44,222.752 
		152.544,219.296 	"/>
	<polygon fill-rule="evenodd" clip-rule="evenodd" points="155.352,215.984 153.984,216.056 152.616,216.272 151.32,216.56 
		150.096,217.064 148.944,217.568 147.864,218.288 146.784,219.008 145.848,219.872 144.984,220.88 144.192,221.888 
		143.544,222.968 142.968,224.12 142.464,225.416 142.176,226.64 141.96,228.008 141.888,229.376 141.96,230.744 142.176,232.112 
		142.464,233.408 142.968,234.632 143.544,235.784 144.192,236.936 144.984,237.944 145.848,238.88 146.784,239.816 
		147.864,240.536 148.944,241.256 150.096,241.76 151.32,242.264 152.616,242.552 153.984,242.768 155.352,242.84 156.72,242.768 
		158.088,242.552 159.384,242.264 160.608,241.76 161.76,241.256 162.84,240.536 163.92,239.816 164.856,238.88 165.72,237.944 
		166.512,236.936 167.16,235.784 167.736,234.632 168.24,233.408 168.528,232.112 168.744,230.744 168.816,229.376 168.744,228.008 
		168.528,226.64 168.24,225.416 167.736,224.12 167.16,222.968 166.512,221.888 165.72,220.88 164.856,219.872 163.92,219.008 
		162.84,218.288 161.76,217.568 160.608,217.064 159.384,216.56 158.088,216.272 156.72,216.056 155.352,215.984 	"/>
	<polygon fill-rule="evenodd" clip-rule="evenodd" points="152.688,219.152 151.032,219.296 149.52,219.8 148.152,220.52 
		147,221.528 145.992,222.68 145.272,224.048 144.768,225.56 144.624,227.216 144.768,228.872 145.272,230.384 145.992,231.752 
		147,232.904 148.152,233.912 149.52,234.632 151.032,235.136 152.688,235.28 154.344,235.136 155.856,234.632 157.224,233.912 
		158.376,232.904 159.384,231.752 160.104,230.384 160.608,228.872 160.752,227.216 160.608,225.56 160.104,224.048 159.384,222.68 
		158.376,221.528 157.224,220.52 155.856,219.8 154.344,219.296 152.688,219.152 	"/>
	<polygon fill-rule="evenodd" clip-rule="evenodd" fill="#2C2B2C" points="152.544,219.584 151.032,219.728 149.664,220.16 
		148.368,220.88 147.288,221.744 146.352,222.896 145.632,224.12 145.2,225.56 145.056,227.072 145.2,228.584 145.632,229.952 
		146.352,231.248 147.288,232.328 148.368,233.264 149.664,233.984 151.032,234.416 152.544,234.56 154.056,234.416 
		155.496,233.984 156.72,233.264 157.872,232.328 158.736,231.248 159.456,229.952 159.888,228.584 160.032,227.072 159.888,225.56 
		159.456,224.12 158.736,222.896 157.872,221.744 156.72,220.88 155.496,220.16 154.056,219.728 152.544,219.584 	"/>
	<polygon fill-rule="evenodd" clip-rule="evenodd" fill="#545454" points="152.4,220.016 151.032,220.16 149.736,220.592 
		148.512,221.168 147.504,222.032 146.64,223.04 146.064,224.264 145.632,225.56 145.488,226.928 145.632,228.296 146.064,229.664 
		146.64,230.816 147.504,231.824 148.512,232.688 149.736,233.336 151.032,233.768 152.4,233.912 153.768,233.768 155.064,233.336 
		156.288,232.688 157.296,231.824 158.16,230.816 158.736,229.664 159.168,228.296 159.312,226.928 159.168,225.56 158.736,224.264 
		158.16,223.04 157.296,222.032 156.288,221.168 155.064,220.592 153.768,220.16 152.4,220.016 	"/>
	<polygon fill-rule="evenodd" clip-rule="evenodd" fill="#808080" points="152.256,220.448 150.96,220.592 149.808,220.952 
		148.728,221.528 147.792,222.32 147,223.256 146.424,224.336 146.064,225.56 145.92,226.856 146.064,228.152 146.424,229.304 
		147,230.384 147.792,231.32 148.728,232.112 149.808,232.688 150.96,233.048 152.256,233.192 153.552,233.048 154.776,232.688 
		155.856,232.112 156.792,231.32 157.584,230.384 158.16,229.304 158.52,228.152 158.664,226.856 158.52,225.56 158.16,224.336 
		157.584,223.256 156.792,222.32 155.856,221.528 154.776,220.952 153.552,220.592 152.256,220.448 	"/>
	<polygon fill-rule="evenodd" clip-rule="evenodd" fill="#AAAAAA" points="152.112,220.952 150.96,221.096 149.88,221.384 
		148.872,221.96 148.08,222.608 147.36,223.472 146.784,224.48 146.496,225.56 146.352,226.712 146.496,227.864 146.784,228.944 
		147.36,229.952 148.08,230.744 148.872,231.464 149.88,232.04 150.96,232.328 152.112,232.472 153.264,232.328 154.416,232.04 
		155.352,231.464 156.216,230.744 156.936,229.952 157.512,228.944 157.8,227.864 157.944,226.712 157.8,225.56 157.512,224.48 
		156.936,223.472 156.216,222.608 155.352,221.96 154.416,221.384 153.264,221.096 152.112,220.952 	"/>
	<polygon fill-rule="evenodd" clip-rule="evenodd" fill="#D4D4D3" points="152.04,221.384 150.96,221.456 150.024,221.816 
		149.088,222.248 148.368,222.896 147.72,223.688 147.216,224.552 146.856,225.488 146.784,226.568 146.856,227.648 
		147.216,228.584 147.72,229.52 148.368,230.24 149.088,230.888 150.024,231.392 150.96,231.752 152.04,231.824 153.12,231.752 
		154.056,231.392 154.92,230.888 155.712,230.24 156.36,229.52 156.792,228.584 157.152,227.648 157.224,226.568 157.152,225.488 
		156.792,224.552 156.36,223.688 155.712,222.896 154.92,222.248 154.056,221.816 153.12,221.456 152.04,221.384 	"/>
	<polygon fill-rule="evenodd" clip-rule="evenodd" fill="#FFFFFF" points="151.896,221.816 150.96,221.888 150.096,222.176 
		149.304,222.608 148.584,223.184 148.008,223.904 147.576,224.696 147.288,225.56 147.216,226.496 147.288,227.432 
		147.576,228.296 148.008,229.088 148.584,229.736 149.304,230.312 150.096,230.744 150.96,231.032 151.896,231.104 
		152.832,231.032 153.696,230.744 154.488,230.312 155.136,229.736 155.712,229.088 156.144,228.296 156.432,227.432 
		156.504,226.496 156.432,225.56 156.144,224.696 155.712,223.904 155.136,223.184 154.488,222.608 153.696,222.176 
		152.832,221.888 151.896,221.816 	"/>
	<polygon fill-rule="evenodd" clip-rule="evenodd" fill="#FFFFFF" points="216.768,195.248 216.192,195.104 215.544,195.104 
		214.896,195.176 214.104,195.392 213.24,195.824 212.232,196.472 211.08,197.336 209.712,198.488 208.344,199.784 207.192,201.08 
		206.328,202.304 205.608,203.456 205.176,204.392 204.96,205.184 204.96,205.688 205.248,205.832 205.752,205.76 206.328,205.4 
		207.12,204.896 207.984,204.176 208.92,203.168 209.928,202.016 211.008,200.576 212.16,198.92 211.296,199.928 210.36,200.936 
		209.424,201.8 208.56,202.592 207.768,203.24 207.192,203.6 206.76,203.672 206.688,203.456 206.976,202.736 207.768,201.584 
		208.92,200.144 210.36,198.632 212.016,197.264 213.672,196.112 215.256,195.392 216.768,195.248 	"/>
	<polygon fill-rule="evenodd" clip-rule="evenodd" fill="#FFFFFF" points="217.992,201.08 216.912,201.512 215.76,202.16 
		214.536,202.952 213.312,203.888 212.16,205.04 211.152,206.408 210.288,207.992 209.712,209.792 210.432,208.856 211.224,207.776 
		212.16,206.552 213.24,205.328 214.32,204.104 215.472,202.952 216.768,201.944 217.992,201.08 	"/>
	<polygon fill-rule="evenodd" clip-rule="evenodd" fill="#FFFFFF" points="219.144,205.904 219.216,207.272 219.144,208.64 
		218.928,209.936 218.568,211.16 218.136,212.312 217.632,213.392 217.128,214.328 216.696,215.12 215.904,217.136 215.4,219.656 
		215.328,221.816 215.76,222.752 216.192,222.608 216.696,222.104 217.272,221.24 217.848,220.16 218.424,218.72 218.928,217.064 
		219.432,215.192 219.792,213.032 219.504,214.04 219.144,215.12 218.712,216.344 218.208,217.568 217.704,218.576 217.272,219.44 
		216.84,220.016 216.552,220.16 216.264,219.656 216.48,218.576 217.056,216.992 217.848,215.048 218.568,212.888 219.144,210.584 
		219.432,208.208 219.144,205.904 	"/>
	<polygon fill-rule="evenodd" clip-rule="evenodd" fill="#FFFFFF" points="226.272,218.72 225.84,219.44 225.336,220.592 
		224.904,222.032 224.544,223.832 224.256,225.92 224.04,228.224 224.04,230.744 224.184,233.48 224.4,236.216 224.616,238.808 
		224.76,241.112 224.76,243.128 224.688,244.856 224.4,246.08 223.896,246.8 223.176,246.944 222.456,246.44 221.88,245.288 
		221.52,243.488 221.376,241.184 221.448,238.304 221.736,234.992 222.24,231.176 223.032,227 222.528,231.464 222.168,237.152 
		222.168,242.048 223.176,243.992 223.464,242.984 223.464,240.464 223.32,236.864 223.248,232.616 223.32,228.296 223.752,224.192 
		224.688,220.808 226.272,218.72 	"/>
	<polygon fill-rule="evenodd" clip-rule="evenodd" fill="#FFFFFF" points="234.696,225.056 235.056,229.952 235.344,238.376 
		235.416,247.304 234.84,253.712 234.696,254.36 234.552,255.152 234.336,256.088 234.048,257.024 233.76,258.032 233.4,258.896 
		233.04,259.76 232.608,260.408 234.84,260.408 234.912,259.904 235.2,258.464 235.488,256.376 235.848,253.64 236.208,250.616 
		236.424,247.304 236.568,244.064 236.496,240.896 236.352,238.232 236.064,234.704 235.56,230.312 234.696,225.056 	"/>
	<polygon fill-rule="evenodd" clip-rule="evenodd" fill="#FFFFFF" points="244.128,228.44 244.128,230.168 244.2,232.904 
		244.416,236.36 244.848,240.32 245.496,244.568 246.36,248.888 247.584,252.992 249.096,256.664 248.736,254.36 248.304,251.553 
		247.872,248.312 247.512,244.64 247.152,240.896 247.008,237.008 246.936,233.12 247.152,229.448 246.864,233.192 246.576,237.368 
		246.432,241.4 246.504,244.784 246.216,243.344 245.784,241.4 245.424,239.096 245.064,236.648 244.704,234.128 244.416,231.824 
		244.272,229.88 244.128,228.44 	"/>
	<polygon fill-rule="evenodd" clip-rule="evenodd" fill="#FFFFFF" points="270.191,229.736 270.336,231.464 270.336,234.2 
		270.191,237.584 269.904,241.4 269.545,245.504 268.969,249.68 268.32,253.568 267.457,257.096 268.248,255.152 269.111,252.488 
		269.977,249.248 270.695,245.576 271.199,241.616 271.344,237.512 271.057,233.552 270.191,229.736 	"/>
	<polygon fill-rule="evenodd" clip-rule="evenodd" fill="#FFFFFF" points="275.736,228.44 276.168,229.88 276.816,232.544 
		277.537,236.216 278.256,240.464 278.904,244.928 279.48,249.32 279.912,253.28 280.057,256.448 280.344,252.848 280.633,248.888 
		280.848,244.568 280.92,240.32 280.775,236.288 280.488,232.616 279.912,229.664 279.121,227.504 279.625,230.456 279.912,234.92 
		279.912,239.744 279.625,243.488 279.336,241.112 279.049,238.88 278.688,236.792 278.256,234.776 277.68,232.976 277.104,231.32 
		276.457,229.808 275.736,228.44 	"/>
	<polygon fill-rule="evenodd" clip-rule="evenodd" fill="#FFFFFF" points="286.104,223.904 286.969,225.488 287.688,227.576 
		288.191,230.024 288.625,232.544 288.984,234.92 289.416,236.792 289.92,238.016 290.641,238.304 291.289,237.8 291.721,236.936 
		291.863,235.712 291.793,234.272 291.504,232.688 291.072,231.104 290.424,229.52 289.633,228.152 290.279,230.024 
		290.855,232.688 291.072,235.136 290.783,236.36 290.568,236.072 290.279,234.992 289.92,233.408 289.561,231.464 288.984,229.376 
		288.264,227.288 287.256,225.416 286.104,223.904 	"/>
	<polygon fill-rule="evenodd" clip-rule="evenodd" fill="#FFFFFF" points="292.801,216.632 293.377,217.568 294.24,219.008 
		295.176,220.808 296.184,222.896 297.121,225.272 297.84,227.864 298.271,230.528 298.344,233.192 298.416,231.176 
		298.344,229.088 298.199,226.856 297.768,224.696 297.049,222.464 296.041,220.376 294.672,218.432 292.801,216.632 	"/>
	<polygon fill-rule="evenodd" clip-rule="evenodd" fill="#FFFFFF" points="298.561,202.376 298.92,202.304 299.352,202.232 
		299.783,202.232 300.289,202.304 300.793,202.376 301.367,202.592 302.016,202.808 302.736,203.168 303.457,203.6 304.248,204.176 
		305.111,204.824 306.121,205.616 307.129,206.552 308.209,207.632 309.359,208.928 310.656,210.296 310.873,209.432 
		311.016,208.424 310.873,207.2 310.367,205.976 309.432,204.68 307.92,203.456 305.76,202.304 302.736,201.368 303.744,201.8 
		304.969,202.448 306.264,203.168 307.561,204.032 308.641,204.896 309.432,205.832 309.793,206.696 309.648,207.56 
		309.145,207.488 308.279,206.696 306.984,205.544 305.4,204.104 303.744,202.88 301.943,201.944 300.217,201.728 298.561,202.376 	
		"/>
	<polygon fill-rule="evenodd" clip-rule="evenodd" fill="#FFFFFF" points="298.705,198.488 299.209,197.84 300,197.192 
		300.863,196.472 301.801,195.824 302.664,195.32 303.385,195.032 303.889,194.96 304.031,195.248 303.816,195.68 303.313,196.184 
		302.664,196.616 301.873,197.048 301.008,197.48 300.145,197.912 299.352,198.2 298.705,198.488 	"/>
	<polygon fill-rule="evenodd" clip-rule="evenodd" fill="#FFFFFF" points="210.864,212.096 211.728,214.472 213.024,218.432 
		214.536,223.688 216.12,229.88 217.56,236.936 218.784,244.496 219.504,252.272 219.72,260.048 217.776,260.048 217.776,258.896 
		217.704,255.656 217.488,250.616 216.984,244.28 216.192,236.864 214.968,228.8 213.24,220.448 210.864,212.096 	"/>
	<polygon fill-rule="evenodd" clip-rule="evenodd" fill="#FFFFFF" points="302.088,215.12 301.729,217.712 301.297,221.168 
		300.936,225.56 300.504,230.888 300.217,236.936 299.928,243.92 299.855,251.624 299.928,260.048 303.096,260.048 302.736,257.168 
		302.377,252.776 302.016,247.232 301.729,240.824 301.512,234.056 301.512,227.216 301.656,220.808 302.088,215.12 	"/>
	<polygon fill-rule="evenodd" clip-rule="evenodd" fill="#FFFFFF" points="179.328,229.16 180.048,229.232 180.912,229.376 
		181.92,229.592 183,229.952 184.296,230.456 185.592,230.96 186.96,231.68 188.4,232.472 189.84,233.408 191.28,234.416 
		192.72,235.64 194.088,236.936 195.384,238.304 196.608,239.888 197.76,241.616 198.768,243.416 199.128,244.712 199.416,246.44 
		199.416,248.24 198.984,249.68 198.264,250.112 197.256,249.392 196.176,247.808 194.88,245.648 193.44,243.2 191.928,240.68 
		190.272,238.376 188.616,236.504 189.768,237.8 191.064,239.456 192.576,241.328 194.016,243.128 195.384,244.784 196.536,246.08 
		197.328,246.872 197.688,246.872 197.76,246.368 197.688,245.648 197.544,244.784 197.328,243.848 196.896,242.768 
		196.392,241.688 195.672,240.536 194.808,239.456 194.304,238.88 193.656,238.232 192.936,237.512 192.072,236.72 191.208,235.928 
		190.272,235.136 189.264,234.272 188.256,233.48 187.176,232.688 186.096,231.896 184.944,231.248 183.792,230.6 182.64,230.096 
		181.56,229.664 180.408,229.304 179.328,229.16 	"/>
	<polygon fill-rule="evenodd" clip-rule="evenodd" fill="#FFFFFF" points="179.112,239.312 179.832,239.816 180.696,240.464 
		181.488,241.256 182.352,242.192 183.216,243.2 184.152,244.28 185.016,245.504 185.88,246.872 186.744,248.24 187.536,249.752 
		188.328,251.336 189.048,252.92 189.696,254.648 190.272,256.376 190.776,258.176 191.208,260.048 193.152,260.048 
		192.648,258.536 192.144,256.952 191.568,255.44 190.92,253.856 190.2,252.416 189.48,250.904 188.688,249.464 187.824,248.024 
		186.96,246.728 185.952,245.432 184.944,244.208 183.864,243.056 182.784,241.976 181.632,240.968 180.408,240.104 
		179.112,239.312 	"/>
	<polygon fill-rule="evenodd" clip-rule="evenodd" points="147.576,200 148.656,198.776 149.304,197.264 149.664,195.608 
		149.592,193.736 149.232,191.72 148.512,189.704 147.432,187.688 145.992,185.744 145.2,184.808 144.336,184.016 143.4,183.224 
		142.536,182.576 141.6,182 140.664,181.496 139.728,181.064 138.792,180.776 137.856,180.56 136.992,180.416 136.056,180.344 
		135.192,180.416 134.4,180.56 133.608,180.848 132.888,181.208 132.24,181.712 129.144,184.664 145.2,202.376 147.576,200 	"/>
	<polygon fill="#FFFFFF" points="145.704,185.96 145.704,185.96 147.072,187.904 148.152,189.848 148.872,191.792 149.232,193.736 
		149.304,195.608 148.944,197.192 148.296,198.56 147.36,199.712 147.792,200.288 149.016,198.992 149.664,197.336 150.024,195.608 
		149.952,193.736 149.592,191.648 148.872,189.56 147.792,187.472 146.28,185.528 146.28,185.528 	"/>
	<polygon fill="#FFFFFF" points="132.528,182 132.456,182 133.104,181.568 133.752,181.208 134.472,180.92 135.192,180.776 
		136.056,180.776 136.992,180.776 137.784,180.92 138.72,181.136 139.584,181.424 140.52,181.856 141.384,182.36 142.32,182.864 
		143.184,183.512 144.12,184.304 144.912,185.096 145.704,185.96 146.28,185.528 145.488,184.52 144.552,183.728 143.616,182.936 
		142.752,182.288 141.816,181.64 140.808,181.136 139.872,180.704 138.864,180.416 137.928,180.2 136.992,180.056 136.056,179.912 
		135.192,180.056 134.328,180.2 133.464,180.488 132.672,180.848 132.024,181.424 131.952,181.424 	"/>
	<polygon fill="#FFFFFF" points="129.432,184.376 129.432,184.952 132.528,182 131.952,181.424 128.856,184.376 128.856,184.952 
		128.856,184.376 128.712,184.664 128.856,184.952 129.144,185.096 129.432,184.952 	"/>
	<polygon fill="#FFFFFF" points="144.912,202.088 145.488,202.088 129.432,184.376 128.856,184.952 144.912,202.664 
		145.488,202.664 144.912,202.664 145.2,202.808 145.488,202.664 145.632,202.376 145.488,202.088 	"/>
	<polygon fill="#FFFFFF" points="147.36,199.712 147.288,199.712 144.912,202.088 145.488,202.664 147.864,200.288 147.792,200.288 
		147.864,200.288 148.008,200 147.864,199.712 147.576,199.568 147.288,199.712 	"/>
	<polygon fill-rule="evenodd" clip-rule="evenodd" points="129.864,184.088 128.784,185.312 128.064,186.752 127.776,188.48 
		127.776,190.352 128.208,192.296 128.928,194.312 130.008,196.328 131.448,198.272 132.24,199.208 133.104,200 133.968,200.792 
		134.904,201.44 135.84,202.088 136.776,202.592 137.712,202.952 138.648,203.312 139.584,203.528 140.448,203.672 141.384,203.672 
		142.176,203.672 143.04,203.456 143.832,203.24 144.552,202.88 145.2,202.376 146.28,201.152 146.928,199.64 147.288,197.984 
		147.216,196.112 146.856,194.096 146.136,192.08 145.056,190.064 143.616,188.12 142.824,187.184 141.96,186.392 141.024,185.6 
		140.16,184.952 139.224,184.376 138.288,183.872 137.352,183.44 136.416,183.152 135.48,182.936 134.616,182.792 133.68,182.72 
		132.816,182.792 132.024,182.936 131.232,183.224 130.512,183.584 129.864,184.088 	"/>
	<polygon fill="#FFFFFF" points="131.736,198.056 131.736,198.056 130.368,196.112 129.288,194.168 128.568,192.224 
		128.136,190.352 128.136,188.48 128.424,186.824 129.072,185.528 130.08,184.376 129.648,183.8 128.496,185.096 127.704,186.68 
		127.416,188.48 127.416,190.352 127.848,192.368 128.568,194.456 129.648,196.544 131.16,198.488 131.16,198.488 	"/>
	<polygon fill="#FFFFFF" points="144.984,202.088 144.984,202.088 144.336,202.52 143.688,202.88 142.968,203.096 142.176,203.312 
		141.384,203.24 140.448,203.312 139.656,203.168 138.72,202.952 137.856,202.592 136.92,202.232 136.056,201.728 135.12,201.152 
		134.184,200.504 133.392,199.712 132.528,198.92 131.736,198.056 131.16,198.488 131.952,199.496 132.816,200.288 133.752,201.08 
		134.688,201.728 135.624,202.448 136.632,202.952 137.568,203.312 138.576,203.672 139.512,203.888 140.448,204.032 
		141.384,204.104 142.176,204.032 143.112,203.816 143.976,203.6 144.768,203.24 145.416,202.664 145.416,202.664 	"/>
	<polygon fill="#FFFFFF" points="143.328,188.336 143.328,188.336 144.696,190.28 145.776,192.224 146.496,194.168 146.856,196.112 
		146.928,197.984 146.568,199.568 145.92,200.936 144.984,202.088 145.416,202.664 146.64,201.368 147.288,199.712 147.648,197.984 
		147.576,196.112 147.216,194.024 146.496,191.936 145.416,189.848 143.904,187.904 143.904,187.904 	"/>
	<polygon fill="#FFFFFF" points="130.08,184.376 130.08,184.376 130.728,183.944 131.376,183.584 132.096,183.296 132.816,183.152 
		133.68,183.152 134.616,183.152 135.408,183.296 136.344,183.512 137.208,183.8 138.144,184.232 139.008,184.736 139.944,185.24 
		140.808,185.888 141.744,186.68 142.536,187.472 143.328,188.336 143.904,187.904 143.112,186.896 142.176,186.104 141.24,185.312 
		140.376,184.664 139.44,184.016 138.432,183.512 137.496,183.08 136.488,182.792 135.552,182.576 134.616,182.432 133.68,182.288 
		132.816,182.432 131.952,182.576 131.088,182.864 130.296,183.224 129.648,183.8 129.648,183.8 	"/>
	<polygon fill-rule="evenodd" clip-rule="evenodd" points="141.096,189.848 142.752,192.08 143.76,194.024 144.264,195.68 
		144.408,196.976 144.264,197.984 144.048,198.704 143.76,199.136 143.688,199.28 133.392,207.848 127.704,201.008 122.016,194.168 
		132.24,185.6 132.384,185.528 132.888,185.384 133.608,185.24 134.688,185.312 135.984,185.672 137.496,186.464 139.152,187.832 
		141.096,189.848 	"/>
	<polygon fill="#FFFFFF" points="143.904,199.568 143.976,199.568 144.12,199.352 144.408,198.848 144.624,198.056 144.84,196.976 
		144.624,195.608 144.12,193.88 143.112,191.864 141.384,189.632 140.808,190.064 142.392,192.296 143.4,194.168 143.904,195.752 
		143.976,196.976 143.904,197.912 143.688,198.56 143.4,198.92 143.4,198.992 143.472,198.992 143.4,198.992 143.256,199.28 
		143.4,199.568 143.688,199.712 143.976,199.568 	"/>
	<polygon fill="#FFFFFF" points="133.104,208.064 133.608,208.136 143.904,199.568 143.472,198.992 133.176,207.56 133.68,207.632 
		133.176,207.56 133.032,207.776 133.104,208.064 133.32,208.208 133.608,208.136 	"/>
	<polygon fill="#FFFFFF" points="127.416,201.224 127.416,201.224 133.104,208.064 133.68,207.632 127.992,200.792 127.992,200.792 
		127.992,200.792 127.776,200.648 127.488,200.72 127.344,200.936 127.416,201.224 	"/>
	<polygon fill="#FFFFFF" points="121.8,193.88 121.728,194.384 127.416,201.224 127.992,200.792 122.304,193.952 122.232,194.456 
		122.304,193.952 122.088,193.808 121.8,193.88 121.656,194.096 121.728,194.384 	"/>
	<polygon fill="#FFFFFF" points="132.024,185.24 132.024,185.312 121.8,193.88 122.232,194.456 132.456,185.888 132.456,185.96 
		132.456,185.888 132.6,185.6 132.528,185.384 132.312,185.24 132.024,185.312 	"/>
	<polygon fill="#FFFFFF" points="141.384,189.632 141.384,189.632 139.44,187.544 137.712,186.176 136.128,185.312 134.76,184.952 
		133.608,184.808 132.816,185.024 132.312,185.168 132.024,185.24 132.456,185.96 132.456,185.888 132.96,185.744 133.608,185.672 
		134.616,185.672 135.84,186.032 137.28,186.752 138.864,188.12 140.808,190.064 140.808,190.064 	"/>
	<polygon fill="#FFFFFF" points="125.76,190.136 125.688,190.208 126.192,189.848 126.624,189.632 127.272,189.416 127.776,189.272 
		128.424,189.344 129.144,189.272 129.792,189.416 130.512,189.56 131.232,189.848 131.952,190.136 132.672,190.568 133.464,191 
		134.184,191.576 134.832,192.152 135.552,192.8 136.2,193.52 137.496,192.512 136.704,191.648 135.984,191 135.192,190.28 
		134.328,189.704 133.536,189.128 132.672,188.696 131.808,188.264 130.944,187.976 130.08,187.832 129.288,187.688 
		128.424,187.616 127.632,187.688 126.84,187.832 126.048,188.048 125.328,188.408 124.68,188.912 124.608,188.984 124.68,188.912 
		124.32,189.488 124.536,190.064 125.04,190.352 125.688,190.208 	"/>
	<polygon fill="#FFFFFF" points="123.456,192.08 123.168,192.656 125.76,190.136 124.608,188.984 122.016,191.504 121.728,192.08 
		122.016,191.504 121.8,192.08 122.088,192.584 122.592,192.872 123.168,192.656 	"/>
	<polygon fill="#FFFFFF" points="123.24,192.656 123.456,192.152 123.456,192.08 121.728,192.08 121.728,192.152 121.944,191.648 
		121.728,192.152 122.016,192.8 122.592,193.016 123.168,192.8 123.456,192.152 	"/>
	<polygon fill="#FFFFFF" points="125.112,203.24 125.112,203.24 124.032,201.728 123.168,200.288 122.664,198.776 122.304,197.336 
		122.232,195.896 122.304,194.6 122.664,193.592 123.24,192.656 121.944,191.648 121.224,192.872 120.72,194.312 120.504,195.896 
		120.72,197.48 121.08,199.208 121.728,200.864 122.592,202.592 123.816,204.248 123.816,204.248 	"/>
	<polygon fill="#FFFFFF" points="135.696,206.48 135.624,206.48 135.12,206.84 134.688,207.056 134.112,207.272 133.536,207.416 
		132.888,207.416 132.24,207.488 131.52,207.344 130.8,207.128 130.08,206.912 129.36,206.624 128.64,206.192 127.848,205.76 
		127.128,205.184 126.48,204.608 125.76,203.96 125.112,203.24 123.816,204.248 124.608,205.112 125.328,205.76 126.12,206.48 
		126.984,207.056 127.776,207.632 128.64,208.064 129.504,208.496 130.368,208.712 131.232,208.928 132.096,209.072 
		132.888,209.144 133.68,209 134.544,208.856 135.264,208.64 135.984,208.28 136.632,207.776 136.56,207.776 	"/>
	<polygon fill="#FFFFFF" points="136.128,206.048 136.056,206.192 135.984,206.192 135.912,206.264 135.768,206.336 135.696,206.48 
		136.56,207.776 136.776,207.632 136.92,207.56 137.136,207.344 137.352,207.056 137.28,207.2 137.352,207.056 137.496,206.408 
		137.136,205.976 136.56,205.832 136.056,206.192 	"/>
	<polygon fill="#FFFFFF" points="137.712,204.464 137.64,204.536 136.128,206.048 137.28,207.2 138.792,205.688 138.72,205.76 
		138.792,205.688 139.008,205.112 138.792,204.536 138.216,204.32 137.64,204.536 	"/>
	<polygon fill="#FFFFFF" points="136.2,193.52 136.2,193.52 137.352,195.104 138.288,196.688 138.792,198.344 139.152,199.856 
		139.152,201.368 138.936,202.592 138.36,203.672 137.712,204.464 138.72,205.76 139.8,204.536 140.52,203.024 140.736,201.368 
		140.736,199.712 140.376,197.912 139.728,196.112 138.792,194.24 137.496,192.512 137.496,192.512 	"/>
	<polygon fill-rule="evenodd" clip-rule="evenodd" points="138.216,205.112 139.08,204.104 139.728,202.808 139.944,201.368 
		139.944,199.784 139.584,198.128 139.008,196.4 138.072,194.672 136.848,193.016 136.128,192.224 135.408,191.576 134.688,190.928 
		133.896,190.352 133.104,189.848 132.312,189.416 131.52,189.056 130.728,188.768 129.936,188.624 129.216,188.48 128.424,188.48 
		127.704,188.48 127.056,188.624 126.336,188.84 125.76,189.128 125.184,189.56 122.592,192.08 136.128,207.128 138.216,205.112 	
		"/>
	<polygon fill-rule="evenodd" clip-rule="evenodd" points="123.168,191.648 122.232,192.656 121.656,193.952 121.368,195.392 
		121.368,196.976 121.728,198.632 122.304,200.36 123.24,202.088 124.464,203.744 125.184,204.536 125.904,205.184 126.624,205.832 
		127.416,206.408 128.208,206.912 129,207.344 129.792,207.704 130.584,207.92 131.376,208.136 132.168,208.28 132.888,208.28 
		133.608,208.208 134.328,208.064 134.976,207.848 135.552,207.56 136.128,207.128 137.064,206.12 137.64,204.824 137.928,203.384 
		137.928,201.8 137.568,200.144 136.992,198.416 136.056,196.688 134.832,195.032 134.112,194.24 133.392,193.592 132.672,192.944 
		131.88,192.368 131.088,191.864 130.296,191.432 129.504,191.072 128.712,190.856 127.92,190.64 127.2,190.496 126.408,190.496 
		125.688,190.568 125.04,190.712 124.32,190.928 123.744,191.216 123.168,191.648 	"/>
	<polygon fill-rule="evenodd" clip-rule="evenodd" points="133.536,196.112 135.192,198.416 136.2,200.36 136.704,201.944 
		136.848,203.312 136.704,204.32 136.488,205.04 136.2,205.472 136.128,205.616 125.832,214.184 120.144,207.344 114.384,200.504 
		124.68,191.936 124.824,191.864 125.328,191.72 126.048,191.576 127.056,191.648 128.352,192.008 129.864,192.728 131.592,194.096 
		133.536,196.112 	"/>
	<polygon fill="#FFFFFF" points="136.344,205.904 136.416,205.904 136.56,205.688 136.848,205.184 137.064,204.392 137.28,203.312 
		137.064,201.872 136.56,200.216 135.552,198.2 133.824,195.896 133.248,196.328 134.832,198.632 135.84,200.504 136.344,202.016 
		136.416,203.312 136.344,204.248 136.128,204.896 135.84,205.256 135.84,205.328 135.912,205.328 135.84,205.328 135.696,205.616 
		135.84,205.904 136.128,206.048 136.416,205.904 	"/>
	<polygon fill="#FFFFFF" points="125.544,214.4 126.048,214.472 136.344,205.904 135.912,205.328 125.616,213.896 126.12,213.968 
		125.616,213.896 125.472,214.112 125.544,214.4 125.76,214.544 126.048,214.472 	"/>
	<polygon fill="#FFFFFF" points="119.856,207.56 119.856,207.56 125.544,214.4 126.12,213.968 120.432,207.128 120.432,207.128 
		120.432,207.128 120.216,206.984 119.928,207.056 119.784,207.272 119.856,207.56 	"/>
	<polygon fill="#FFFFFF" points="114.168,200.216 114.096,200.72 119.856,207.56 120.432,207.128 114.672,200.288 114.6,200.792 
		114.672,200.288 114.456,200.144 114.168,200.216 114.024,200.432 114.096,200.72 	"/>
	<polygon fill="#FFFFFF" points="124.464,191.576 124.464,191.648 114.168,200.216 114.6,200.792 124.896,192.224 124.896,192.296 
		124.896,192.224 125.04,191.936 124.968,191.72 124.752,191.576 124.464,191.648 	"/>
	<polygon fill="#FFFFFF" points="133.824,195.896 133.824,195.896 131.88,193.808 130.08,192.368 128.496,191.648 127.128,191.288 
		126.048,191.144 125.256,191.36 124.752,191.504 124.464,191.576 124.896,192.296 124.896,192.224 125.4,192.08 126.048,192.008 
		126.984,192.008 128.208,192.368 129.648,193.088 131.304,194.384 133.248,196.328 133.248,196.328 	"/>
	<polygon fill-rule="evenodd" clip-rule="evenodd" points="129.648,214.904 130.728,213.68 131.376,212.168 131.736,210.512 
		131.664,208.64 131.304,206.624 130.584,204.608 129.504,202.592 128.064,200.648 127.272,199.712 126.408,198.92 125.544,198.128 
		124.608,197.48 123.672,196.904 122.736,196.4 121.8,196.04 120.864,195.68 119.928,195.464 119.064,195.32 118.128,195.32 
		117.336,195.32 116.472,195.536 115.68,195.752 114.96,196.112 114.312,196.616 111.288,199.568 127.272,217.28 129.648,214.904 	
		"/>
	<polygon fill="#FFFFFF" points="127.776,200.864 127.776,200.864 129.144,202.808 130.224,204.752 130.944,206.696 131.304,208.64 
		131.376,210.512 131.016,212.096 130.368,213.464 129.432,214.616 129.864,215.192 131.088,213.896 131.736,212.24 
		132.096,210.512 132.024,208.64 131.664,206.552 130.944,204.464 129.864,202.376 128.352,200.432 128.352,200.432 	"/>
	<polygon fill="#FFFFFF" points="114.6,196.904 114.528,196.904 115.176,196.472 115.824,196.112 116.544,195.896 117.336,195.68 
		118.128,195.752 119.064,195.68 119.856,195.824 120.792,196.04 121.656,196.4 122.592,196.76 123.456,197.264 124.392,197.84 
		125.328,198.416 126.12,199.208 126.984,200 127.776,200.864 128.352,200.432 127.56,199.424 126.696,198.632 125.76,197.84 
		124.824,197.12 123.888,196.544 122.88,196.04 121.944,195.68 120.936,195.32 120,195.104 119.064,194.96 118.128,194.888 
		117.336,194.96 116.4,195.176 115.536,195.392 114.744,195.752 114.096,196.328 114.024,196.328 	"/>
	<polygon fill="#FFFFFF" points="111.576,199.28 111.576,199.856 114.6,196.904 114.024,196.328 111,199.28 111,199.856 111,199.28 
		110.856,199.568 111,199.856 111.288,200 111.576,199.856 	"/>
	<polygon fill="#FFFFFF" points="126.984,216.992 127.56,216.992 111.576,199.28 111,199.856 126.984,217.568 127.56,217.568 
		126.984,217.568 127.272,217.712 127.56,217.568 127.704,217.28 127.56,216.992 	"/>
	<polygon fill="#FFFFFF" points="129.432,214.616 129.36,214.616 126.984,216.992 127.56,217.568 129.936,215.192 129.864,215.192 
		129.936,215.192 130.08,214.904 129.936,214.616 129.648,214.472 129.36,214.616 	"/>
	<polygon fill-rule="evenodd" clip-rule="evenodd" points="111.936,198.992 110.856,200.216 110.208,201.656 109.848,203.384 
		109.92,205.256 110.28,207.2 111,209.216 112.08,211.232 113.52,213.176 114.312,214.112 115.176,214.904 116.04,215.696 
		116.976,216.344 117.912,216.992 118.848,217.496 119.784,217.856 120.72,218.216 121.656,218.432 122.52,218.576 123.456,218.576 
		124.248,218.576 125.112,218.36 125.904,218.144 126.624,217.784 127.272,217.28 128.352,216.056 129,214.544 129.36,212.888 
		129.288,211.016 128.928,209 128.208,206.984 127.128,204.968 125.688,203.024 124.896,202.088 124.032,201.296 123.168,200.504 
		122.232,199.856 121.296,199.28 120.36,198.776 119.424,198.416 118.488,198.056 117.552,197.84 116.688,197.696 115.752,197.696 
		114.96,197.696 114.096,197.912 113.304,198.128 112.584,198.488 111.936,198.992 	"/>
	<polygon fill="#FFFFFF" points="113.808,212.96 113.808,212.96 112.44,211.016 111.36,209.072 110.64,207.128 110.28,205.256 
		110.208,203.384 110.568,201.728 111.216,200.432 112.152,199.28 111.72,198.704 110.496,200 109.848,201.584 109.488,203.384 
		109.56,205.256 109.92,207.272 110.64,209.36 111.72,211.448 113.232,213.392 113.232,213.392 	"/>
	<polygon fill="#FFFFFF" points="127.056,216.992 127.056,216.992 126.408,217.424 125.76,217.784 125.04,218 124.248,218.216 
		123.456,218.144 122.52,218.216 121.728,218.072 120.792,217.856 119.928,217.496 118.992,217.136 118.128,216.632 
		117.192,216.056 116.256,215.408 115.464,214.616 114.6,213.824 113.808,212.96 113.232,213.392 114.024,214.4 114.888,215.192 
		115.824,215.984 116.76,216.632 117.696,217.352 118.704,217.856 119.64,218.216 120.648,218.576 121.584,218.792 122.52,218.936 
		123.456,219.008 124.248,218.936 125.184,218.72 126.048,218.504 126.84,218.144 127.488,217.568 127.488,217.568 	"/>
	<polygon fill="#FFFFFF" points="125.4,203.24 125.4,203.24 126.768,205.184 127.848,207.128 128.568,209.072 128.928,211.016 
		129,212.888 128.64,214.472 127.992,215.84 127.056,216.992 127.488,217.568 128.712,216.272 129.36,214.616 129.72,212.888 
		129.648,211.016 129.288,208.928 128.568,206.84 127.488,204.752 125.976,202.808 125.976,202.808 	"/>
	<polygon fill="#FFFFFF" points="112.152,199.28 112.152,199.28 112.8,198.848 113.448,198.488 114.168,198.272 114.96,198.056 
		115.752,198.128 116.688,198.056 117.48,198.2 118.416,198.416 119.28,198.776 120.216,199.136 121.08,199.64 122.016,200.216 
		122.952,200.792 123.744,201.584 124.608,202.376 125.4,203.24 125.976,202.808 125.184,201.8 124.32,201.008 123.384,200.216 
		122.448,199.496 121.512,198.92 120.504,198.416 119.568,198.056 118.56,197.696 117.624,197.48 116.688,197.336 115.752,197.264 
		114.96,197.336 114.024,197.552 113.16,197.768 112.368,198.128 111.72,198.704 111.72,198.704 	"/>
	<polygon fill-rule="evenodd" clip-rule="evenodd" fill="#FFFFFF" points="424.271,342.128 77.088,342.128 424.271,342.128 	"/>
	<polygon points="77.088,342.128 77.088,344.216 424.271,344.216 424.271,340.04 77.088,340.04 77.088,342.128 	"/>
	<polygon fill-rule="evenodd" clip-rule="evenodd" points="424.271,355.521 424.271,341.336 77.088,341.336 77.088,355.521 
		424.271,355.521 	"/>
	<polygon fill-rule="evenodd" clip-rule="evenodd" fill="#FFFFFF" points="424.271,350.048 424.271,335.864 77.088,335.864 
		77.088,350.048 424.271,350.048 	"/>
	<polygon points="424.271,337.952 422.184,335.864 422.184,350.048 426.359,350.048 426.359,335.864 424.271,333.776 
		426.359,335.864 426.359,333.776 424.271,333.776 	"/>
	<polygon points="79.176,335.864 77.088,337.952 424.271,337.952 424.271,333.776 77.088,333.776 75,335.864 77.088,333.776 
		75,333.776 75,335.864 	"/>
	<polygon points="77.088,347.96 79.176,350.048 79.176,335.864 75,335.864 75,350.048 77.088,352.136 75,350.048 75,352.136 
		77.088,352.136 	"/>
	<polygon points="422.184,350.048 424.271,347.96 77.088,347.96 77.088,352.136 424.271,352.136 426.359,350.048 424.271,352.136 
		426.359,352.136 426.359,350.048 	"/>
	<polygon fill-rule="evenodd" clip-rule="evenodd" fill="#FFFFFF" points="424.271,335.864 377.041,258.68 124.32,258.68 
		77.088,335.864 424.271,335.864 	"/>
	<polygon points="377.041,260.769 375.313,259.76 422.545,336.944 426,334.784 378.768,257.601 377.041,256.592 378.768,257.601 
		378.121,256.952 377.4,256.664 376.68,256.664 375.961,256.952 375.385,257.456 375.023,258.104 375.023,258.896 375.313,259.76 	
		"/>
	<polygon points="126.048,259.76 124.32,260.769 377.041,260.769 377.041,256.592 124.32,256.592 122.592,257.601 124.32,256.592 
		123.456,256.736 122.808,257.24 122.376,257.888 122.304,258.68 122.376,259.472 122.808,260.12 123.456,260.624 124.32,260.769 	
		"/>
	<polygon points="77.088,333.776 78.816,336.944 126.048,259.76 122.592,257.601 75.36,334.784 77.088,337.952 75.36,334.784 
		75.072,335.648 75.072,336.44 75.432,337.088 76.008,337.592 76.728,337.88 77.448,337.88 78.168,337.592 78.816,336.944 	"/>
	<polygon points="422.545,336.944 424.271,333.776 77.088,333.776 77.088,337.952 424.271,337.952 426,334.784 424.271,337.952 
		425.137,337.809 425.783,337.304 426.217,336.656 426.359,335.864 426.217,335.072 425.783,334.424 425.137,333.92 
		424.271,333.776 	"/>
	<polygon fill-rule="evenodd" clip-rule="evenodd" points="136.128,298.496 132.96,298.568 129.864,298.784 126.912,299.072 
		124.104,299.504 121.368,300.008 118.848,300.656 116.472,301.376 114.24,302.24 112.224,303.104 110.496,304.112 108.912,305.192 
		107.616,306.272 106.536,307.424 105.816,308.648 105.312,309.944 105.168,311.24 105.312,312.536 105.816,313.832 
		106.536,315.056 107.616,316.208 108.912,317.36 110.496,318.368 112.224,319.376 114.24,320.313 116.472,321.104 118.848,321.896 
		121.368,322.472 124.104,323.048 126.912,323.48 129.864,323.769 132.96,323.984 136.128,324.056 139.296,323.984 142.32,323.769 
		145.344,323.48 148.152,323.048 150.888,322.472 153.408,321.896 155.784,321.104 157.944,320.313 159.96,319.376 161.76,318.368 
		163.272,317.36 164.568,316.208 165.648,315.056 166.368,313.832 166.872,312.536 167.016,311.24 166.872,309.944 166.368,308.648 
		165.648,307.424 164.568,306.272 163.272,305.192 161.76,304.112 159.96,303.104 157.944,302.24 155.784,301.376 153.408,300.656 
		150.888,300.008 148.152,299.504 145.344,299.072 142.32,298.784 139.296,298.568 136.128,298.496 	"/>
	<polygon fill="#FFFFFF" points="105.888,311.24 105.888,311.24 105.96,310.088 106.392,308.937 107.04,307.856 108.048,306.776 
		109.272,305.696 110.856,304.688 112.512,303.68 114.456,302.888 116.688,302.024 118.992,301.304 121.512,300.656 
		124.176,300.152 126.984,299.72 129.864,299.433 132.96,299.216 136.128,299.216 136.128,297.776 132.96,297.92 129.864,298.136 
		126.84,298.424 124.032,298.856 121.224,299.36 118.704,300.008 116.256,300.729 114.024,301.592 111.936,302.528 110.136,303.536 
		108.552,304.688 107.184,305.769 106.032,306.992 105.24,308.36 104.664,309.8 104.448,311.24 104.448,311.24 	"/>
	<polygon fill="#FFFFFF" points="136.128,323.336 136.128,323.336 132.96,323.336 129.864,323.12 126.984,322.832 124.176,322.4 
		121.512,321.824 118.992,321.248 116.688,320.456 114.456,319.664 112.512,318.8 110.856,317.792 109.272,316.856 108.048,315.704 
		107.04,314.624 106.392,313.544 105.96,312.393 105.888,311.24 104.448,311.24 104.664,312.68 105.24,314.12 106.032,315.488 
		107.184,316.712 108.552,317.864 110.136,318.944 111.936,319.952 114.024,320.96 116.256,321.752 118.704,322.544 121.224,323.12 
		124.032,323.696 126.84,324.128 129.864,324.416 132.96,324.632 136.128,324.776 136.128,324.776 	"/>
	<polygon fill="#FFFFFF" points="166.296,311.24 166.296,311.24 166.224,312.393 165.792,313.544 165.144,314.624 164.136,315.704 
		162.84,316.856 161.4,317.792 159.672,318.8 157.728,319.664 155.568,320.456 153.264,321.248 150.744,321.824 148.08,322.4 
		145.272,322.832 142.32,323.12 139.296,323.336 136.128,323.336 136.128,324.776 139.296,324.632 142.32,324.416 145.416,324.128 
		148.224,323.696 151.032,323.12 153.552,322.544 156,321.752 158.16,320.96 160.248,319.952 162.12,318.944 163.704,317.864 
		165,316.712 166.152,315.488 166.944,314.12 167.52,312.68 167.736,311.24 167.736,311.24 	"/>
	<polygon fill="#FFFFFF" points="136.128,299.216 136.128,299.216 139.296,299.216 142.32,299.433 145.272,299.72 148.08,300.152 
		150.744,300.656 153.264,301.304 155.568,302.024 157.728,302.888 159.672,303.68 161.4,304.688 162.84,305.696 164.136,306.776 
		165.144,307.856 165.792,308.937 166.224,310.088 166.296,311.24 167.736,311.24 167.52,309.8 166.944,308.36 166.152,306.992 
		165,305.769 163.704,304.688 162.12,303.536 160.248,302.528 158.16,301.592 156,300.729 153.552,300.008 151.032,299.36 
		148.224,298.856 145.416,298.424 142.32,298.136 139.296,297.92 136.128,297.776 136.128,297.776 	"/>
	<polygon fill-rule="evenodd" clip-rule="evenodd" points="136.128,295.544 133.32,295.616 130.584,295.76 127.92,296.048 
		125.4,296.408 122.952,296.912 120.72,297.488 118.56,298.136 116.616,298.856 114.816,299.72 113.232,300.584 111.864,301.521 
		110.712,302.528 109.776,303.536 109.128,304.616 108.696,305.769 108.552,306.92 108.696,308.072 109.128,309.225 
		109.776,310.304 110.712,311.384 111.864,312.393 113.232,313.328 114.816,314.192 116.616,314.984 118.56,315.704 120.72,316.353 
		122.952,316.928 125.4,317.433 127.92,317.792 130.584,318.08 133.32,318.225 136.128,318.296 138.936,318.225 141.672,318.08 
		144.336,317.792 146.856,317.433 149.232,316.928 151.536,316.353 153.624,315.704 155.64,314.984 157.368,314.192 
		158.952,313.328 160.392,312.393 161.544,311.384 162.48,310.304 163.128,309.225 163.56,308.072 163.704,306.92 163.56,305.769 
		163.128,304.616 162.48,303.536 161.544,302.528 160.392,301.521 158.952,300.584 157.368,299.72 155.64,298.856 153.624,298.136 
		151.536,297.488 149.232,296.912 146.856,296.408 144.336,296.048 141.672,295.76 138.936,295.616 136.128,295.544 	"/>
	<polygon fill="#FFFFFF" points="109.272,306.92 109.272,306.92 109.344,305.912 109.704,304.904 110.28,303.968 111.144,303.032 
		112.296,302.024 113.592,301.16 115.104,300.296 116.832,299.504 118.776,298.784 120.864,298.136 123.096,297.561 
		125.472,297.056 127.992,296.696 130.584,296.408 133.32,296.264 136.128,296.264 136.128,294.824 133.32,294.968 130.584,295.112 
		127.848,295.4 125.328,295.76 122.808,296.264 120.576,296.84 118.344,297.488 116.4,298.208 114.528,299.145 112.872,300.008 
		111.432,301.017 110.28,302.024 109.272,303.104 108.552,304.328 108.048,305.624 107.832,306.92 107.832,306.92 	"/>
	<polygon fill="#FFFFFF" points="136.128,317.576 136.128,317.576 133.32,317.576 130.584,317.433 127.992,317.145 125.472,316.784 
		123.096,316.28 120.864,315.704 118.776,315.056 116.832,314.336 115.104,313.616 113.592,312.752 112.296,311.888 111.216,310.88 
		110.352,309.944 109.704,308.937 109.344,307.928 109.272,306.92 107.832,306.92 108.048,308.216 108.552,309.512 109.2,310.664 
		110.208,311.888 111.432,312.896 112.872,313.904 114.528,314.769 116.4,315.632 118.344,316.353 120.576,317 122.808,317.576 
		125.328,318.08 127.848,318.44 130.584,318.729 133.32,318.872 136.128,319.017 136.128,319.017 	"/>
	<polygon fill="#FFFFFF" points="162.984,306.92 162.984,306.92 162.912,307.928 162.552,308.937 161.904,309.944 161.04,310.88 
		160.032,311.888 158.592,312.752 157.08,313.616 155.424,314.336 153.408,315.056 151.392,315.704 149.088,316.28 146.784,316.784 
		144.264,317.145 141.672,317.433 138.936,317.576 136.128,317.576 136.128,319.017 138.936,318.872 141.672,318.729 
		144.408,318.44 146.928,318.08 149.376,317.576 151.68,317 153.84,316.353 155.856,315.632 157.656,314.769 159.312,313.904 
		160.752,312.896 162.048,311.888 163.056,310.664 163.704,309.512 164.208,308.216 164.424,306.92 164.424,306.92 	"/>
	<polygon fill="#FFFFFF" points="136.128,296.264 136.128,296.264 138.936,296.264 141.672,296.408 144.264,296.696 
		146.784,297.056 149.088,297.561 151.392,298.136 153.408,298.784 155.424,299.504 157.08,300.296 158.592,301.16 160.032,302.024 
		161.112,303.032 161.976,303.968 162.552,304.904 162.912,305.912 162.984,306.92 164.424,306.92 164.208,305.624 163.704,304.328 
		162.984,303.104 161.976,302.024 160.752,301.017 159.312,300.008 157.656,299.145 155.856,298.208 153.84,297.488 151.68,296.84 
		149.376,296.264 146.928,295.76 144.408,295.4 141.672,295.112 138.936,294.968 136.128,294.824 136.128,294.824 	"/>
	<polygon fill-rule="evenodd" clip-rule="evenodd" points="136.128,292.376 133.536,292.448 130.944,292.592 128.496,292.809 
		126.12,293.168 123.888,293.601 121.8,294.104 119.784,294.68 117.984,295.328 116.328,295.977 114.888,296.769 113.592,297.632 
		112.512,298.496 111.648,299.433 111,300.368 110.64,301.376 110.496,302.384 110.64,303.393 111,304.4 111.648,305.336 
		112.512,306.272 113.592,307.136 114.888,308 116.328,308.792 117.984,309.44 119.784,310.088 121.8,310.664 123.888,311.168 
		126.12,311.601 128.496,311.96 130.944,312.176 133.536,312.32 136.128,312.393 138.72,312.32 141.312,312.176 143.76,311.96 
		146.064,311.601 148.296,311.168 150.456,310.664 152.4,310.088 154.272,309.44 155.928,308.792 157.368,308 158.664,307.136 
		159.744,306.272 160.608,305.336 161.256,304.4 161.616,303.393 161.76,302.384 161.616,301.376 161.256,300.368 160.608,299.433 
		159.744,298.496 158.664,297.632 157.368,296.769 155.928,295.977 154.272,295.328 152.4,294.68 150.456,294.104 148.296,293.601 
		146.064,293.168 143.76,292.809 141.312,292.592 138.72,292.448 136.128,292.376 	"/>
	<polygon fill="#FFFFFF" points="111.216,302.384 111.216,302.384 111.288,301.521 111.576,300.656 112.152,299.864 112.944,299 
		113.952,298.208 115.248,297.344 116.616,296.624 118.2,295.977 120,295.328 121.944,294.752 124.032,294.248 126.192,293.816 
		128.568,293.456 130.944,293.24 133.536,293.096 136.128,293.096 136.128,291.656 133.536,291.8 130.944,291.944 128.424,292.16 
		126.048,292.521 123.744,292.952 121.656,293.456 119.568,294.032 117.768,294.68 116.04,295.328 114.528,296.192 113.232,297.056 
		112.08,297.992 111.144,299 110.424,300.08 109.992,301.232 109.776,302.384 109.776,302.384 	"/>
	<polygon fill="#FFFFFF" points="136.128,311.672 136.128,311.672 133.536,311.672 130.944,311.528 128.568,311.313 
		126.192,310.952 124.032,310.521 121.944,310.017 120,309.44 118.2,308.792 116.616,308.145 115.248,307.424 113.952,306.561 
		112.944,305.769 112.152,304.904 111.576,304.112 111.288,303.248 111.216,302.384 109.776,302.384 109.992,303.536 
		110.424,304.688 111.144,305.769 112.08,306.776 113.232,307.712 114.528,308.576 116.04,309.44 117.768,310.088 119.568,310.736 
		121.656,311.313 123.744,311.816 126.048,312.248 128.424,312.608 130.944,312.824 133.536,312.968 136.128,313.112 
		136.128,313.112 	"/>
	<polygon fill="#FFFFFF" points="161.04,302.384 161.04,302.384 160.968,303.248 160.68,304.112 160.104,304.904 159.312,305.769 
		158.304,306.561 157.008,307.424 155.64,308.145 154.056,308.792 152.184,309.44 150.312,310.017 148.152,310.521 145.992,310.952 
		143.688,311.313 141.312,311.528 138.72,311.672 136.128,311.672 136.128,313.112 138.72,312.968 141.312,312.824 143.832,312.608 
		146.136,312.248 148.44,311.816 150.6,311.313 152.616,310.736 154.488,310.088 156.216,309.44 157.728,308.576 159.024,307.712 
		160.176,306.776 161.112,305.769 161.832,304.688 162.264,303.536 162.48,302.384 162.48,302.384 	"/>
	<polygon fill="#FFFFFF" points="136.128,293.096 136.128,293.096 138.72,293.096 141.312,293.24 143.688,293.456 145.992,293.816 
		148.152,294.248 150.312,294.752 152.184,295.328 154.056,295.977 155.64,296.624 157.008,297.344 158.304,298.208 159.312,299 
		160.104,299.864 160.68,300.656 160.968,301.521 161.04,302.384 162.48,302.384 162.264,301.232 161.832,300.08 161.112,299 
		160.176,297.992 159.024,297.056 157.728,296.192 156.216,295.328 154.488,294.68 152.616,294.032 150.6,293.456 148.44,292.952 
		146.136,292.521 143.832,292.16 141.312,291.944 138.72,291.8 136.128,291.656 136.128,291.656 	"/>
	<polygon fill-rule="evenodd" clip-rule="evenodd" points="209.352,300.44 214.896,319.304 327,319.304 321.527,300.44 
		209.352,300.44 	"/>
	<polygon fill="#FFFFFF" points="214.896,318.584 215.544,319.16 210,300.296 208.704,300.584 214.248,319.448 214.896,320.024 
		214.248,319.448 214.536,319.88 215.04,319.952 215.4,319.664 215.544,319.16 	"/>
	<polygon fill="#FFFFFF" points="326.352,319.448 327,318.584 214.896,318.584 214.896,320.024 327,320.024 327.648,319.16 
		327,320.024 327.504,319.809 327.721,319.304 327.504,318.8 327,318.584 	"/>
	<polygon fill="#FFFFFF" points="321.527,301.16 320.881,300.584 326.352,319.448 327.648,319.16 322.176,300.296 321.527,299.72 
		322.176,300.296 321.889,299.864 321.457,299.792 321.023,300.08 320.881,300.584 	"/>
	<polygon fill="#FFFFFF" points="210,300.296 209.352,301.16 321.527,301.16 321.527,299.72 209.352,299.72 208.704,300.584 
		209.352,299.72 208.848,299.937 208.632,300.44 208.848,300.944 209.352,301.16 	"/>
	<polygon fill-rule="evenodd" clip-rule="evenodd" points="209.352,300.44 204.6,310.664 214.896,319.304 209.352,300.44 	"/>
	<polygon fill="#FFFFFF" points="205.032,310.16 205.248,310.952 210,300.729 208.704,300.152 203.952,310.376 204.168,311.168 
		203.952,310.376 203.952,310.952 204.312,311.313 204.816,311.313 205.248,310.952 	"/>
	<polygon fill="#FFFFFF" points="214.248,319.448 215.328,318.8 205.032,310.16 204.168,311.168 214.464,319.809 215.544,319.16 
		214.464,319.809 214.968,319.952 215.4,319.736 215.544,319.304 215.328,318.8 	"/>
	<polygon fill="#FFFFFF" points="210,300.729 208.704,300.584 214.248,319.448 215.544,319.16 210,300.296 208.704,300.152 
		210,300.296 209.712,299.864 209.28,299.792 208.848,300.08 208.704,300.584 	"/>
	<polygon fill-rule="evenodd" clip-rule="evenodd" points="308.641,273.08 319.367,294.393 260.904,293.096 263.279,295.4 
		248.232,295.4 250.536,293.096 192,294.393 202.8,273.08 308.641,273.08 	"/>
	<polygon points="319.367,296.408 321.168,293.456 310.439,272.145 306.84,274.017 317.568,295.328 319.367,292.376 
		319.367,296.408 322.752,296.48 321.168,293.456 	"/>
	<polygon points="262.344,291.656 260.904,295.112 319.367,296.408 319.367,292.376 260.904,291.08 259.465,294.536 260.904,291.08 
		255.793,291.008 259.465,294.536 	"/>
	<polygon points="263.279,297.488 264.721,293.96 262.344,291.656 259.465,294.536 261.84,296.84 263.279,293.313 263.279,297.488 
		268.32,297.416 264.721,293.96 	"/>
	<polygon points="246.792,293.96 248.232,297.488 263.279,297.488 263.279,293.313 248.232,293.313 249.672,296.84 246.792,293.96 
		243.264,297.488 248.232,297.488 	"/>
	<polygon points="250.536,295.112 249.096,291.656 246.792,293.96 249.672,296.84 251.977,294.536 250.536,291.08 251.977,294.536 
		255.576,291.008 250.536,291.08 	"/>
	<polygon points="190.2,293.456 192,296.408 250.536,295.112 250.536,291.08 192,292.376 193.8,295.328 190.2,293.456 
		188.616,296.48 192,296.408 	"/>
	<polygon points="202.8,270.992 201,272.145 190.2,293.456 193.8,295.328 204.6,274.017 202.8,275.168 202.8,270.992 
		201.576,271.064 201,272.145 	"/>
	<polygon points="310.439,272.145 308.641,270.992 202.8,270.992 202.8,275.168 308.641,275.168 306.84,274.017 310.439,272.145 
		309.863,271.064 308.641,270.992 	"/>
	<polygon fill-rule="evenodd" clip-rule="evenodd" fill="#FFFFFF" points="199.128,288.344 199.488,288.272 200.424,287.984 
		201.936,287.552 203.88,287.048 206.256,286.4 208.92,285.68 211.872,284.96 214.968,284.168 218.208,283.448 221.376,282.656 
		224.544,282.008 227.568,281.36 230.448,280.856 232.968,280.496 235.128,280.28 236.928,280.208 240.024,280.424 242.76,280.856 
		245.208,281.504 247.296,282.225 249.096,283.16 250.608,284.168 251.832,285.176 252.912,286.256 253.775,287.336 
		254.424,288.344 254.928,289.353 255.289,290.216 255.504,290.937 255.648,291.44 255.721,291.8 255.721,291.944 197.184,292.16 
		199.128,288.344 	"/>
	<polygon points="236.928,279.2 236.928,279.2 235.056,279.272 232.896,279.488 230.304,279.848 227.424,280.353 224.4,281 
		221.16,281.648 217.992,282.44 214.752,283.16 211.656,283.952 208.704,284.672 206.04,285.464 203.664,286.112 201.72,286.616 
		200.136,287.048 199.272,287.336 198.912,287.408 199.344,289.28 199.704,289.208 200.712,288.92 202.152,288.488 204.096,287.984 
		206.472,287.336 209.136,286.688 212.088,285.968 215.184,285.176 218.424,284.456 221.592,283.664 224.688,283.017 
		227.712,282.368 230.592,281.864 233.04,281.504 235.2,281.288 236.928,281.216 236.928,281.216 	"/>
	<polygon points="255.721,292.952 256.729,291.872 256.729,291.656 256.656,291.225 256.439,290.648 256.225,289.928 
		255.863,288.92 255.289,287.84 254.568,286.76 253.633,285.608 252.48,284.456 251.184,283.376 249.6,282.296 247.656,281.288 
		245.496,280.568 242.904,279.848 240.096,279.416 236.928,279.2 236.928,281.216 239.952,281.433 242.616,281.864 244.92,282.44 
		246.936,283.16 248.592,284.024 250.032,284.96 251.184,285.896 252.191,286.904 252.984,287.912 253.561,288.848 253.992,289.784 
		254.352,290.504 254.568,291.225 254.641,291.656 254.713,291.944 254.713,292.017 255.721,290.937 254.713,292.017 
		255.072,292.736 255.793,292.88 256.439,292.592 256.729,291.872 	"/>
	<polygon points="196.32,291.729 197.184,293.168 255.721,292.952 255.721,290.937 197.184,291.152 198.048,292.592 
		197.184,291.152 196.464,291.44 196.248,292.16 196.464,292.88 197.184,293.168 	"/>
	<polygon points="198.912,287.408 198.264,287.912 196.32,291.729 198.048,292.592 199.992,288.776 199.344,289.28 199.992,288.776 
		200.136,288.344 200.064,287.984 199.848,287.696 199.56,287.48 199.2,287.408 198.84,287.408 198.552,287.552 198.264,287.912 	
		"/>
	<polygon fill-rule="evenodd" clip-rule="evenodd" fill="#FFFFFF" points="255.721,291.944 255.145,290.792 254.496,289.784 
		253.848,288.848 253.129,287.984 252.336,287.192 251.473,286.544 250.536,285.896 249.456,285.393 248.304,284.96 247.08,284.528 
		245.712,284.168 244.2,283.952 242.616,283.736 240.888,283.521 238.944,283.448 236.928,283.376 234.12,283.376 231.528,283.448 
		229.152,283.664 226.992,283.952 225.048,284.313 223.176,284.744 221.448,285.176 219.72,285.608 218.136,286.112 
		216.552,286.544 214.968,286.977 213.312,287.408 211.656,287.769 209.856,288.056 207.984,288.272 205.968,288.344 
		204.672,288.344 203.448,288.344 202.296,288.344 201.288,288.344 200.424,288.344 199.704,288.344 199.272,288.344 
		199.128,288.344 206.76,269.408 206.976,269.408 207.48,269.408 208.2,269.48 209.208,269.48 210.288,269.48 211.512,269.48 
		212.664,269.48 213.816,269.408 214.968,269.336 216.12,269.12 217.128,268.904 218.136,268.616 219.144,268.256 220.152,267.824 
		221.16,267.393 222.24,266.96 223.464,266.528 224.688,266.168 226.128,265.736 227.712,265.448 229.368,265.16 231.312,264.944 
		233.472,264.8 235.848,264.729 238.224,264.8 240.456,264.944 242.4,265.16 244.2,265.521 245.856,265.88 247.296,266.384 
		248.592,266.888 249.744,267.464 250.824,268.112 251.76,268.76 252.553,269.48 253.344,270.2 254.064,270.92 254.641,271.64 
		255.217,272.36 255.793,273.08 255.721,291.944 	"/>
	<polygon points="236.928,284.384 236.928,284.384 238.944,284.456 240.816,284.528 242.544,284.744 244.128,284.96 
		245.568,285.176 246.792,285.464 248.016,285.896 249.096,286.328 250.032,286.76 250.896,287.336 251.688,287.912 
		252.408,288.632 253.057,289.424 253.633,290.36 254.279,291.296 254.783,292.376 256.656,291.512 256.008,290.288 
		255.359,289.208 254.641,288.272 253.848,287.336 252.984,286.472 252.049,285.752 251.04,285.032 249.816,284.456 
		248.592,284.024 247.368,283.592 245.856,283.16 244.272,282.944 242.688,282.729 240.96,282.512 238.944,282.44 236.928,282.368 
		236.928,282.368 	"/>
	<polygon points="205.968,289.353 205.968,289.353 208.056,289.28 209.928,289.064 211.8,288.776 213.528,288.416 215.184,287.912 
		216.768,287.48 218.424,287.048 219.936,286.544 221.664,286.185 223.392,285.752 225.192,285.32 227.136,284.96 229.224,284.672 
		231.528,284.456 234.12,284.384 236.928,284.384 236.928,282.368 234.12,282.368 231.528,282.44 229.08,282.656 226.848,282.944 
		224.904,283.304 222.96,283.736 221.232,284.168 219.504,284.672 217.848,285.176 216.336,285.608 214.752,286.04 213.096,286.4 
		211.512,286.76 209.784,287.048 207.912,287.264 205.968,287.336 205.968,287.336 	"/>
	<polygon points="198.192,287.984 199.128,289.353 199.272,289.353 199.704,289.353 200.424,289.353 201.288,289.353 
		202.296,289.353 203.448,289.353 204.672,289.353 205.968,289.353 205.968,287.336 204.672,287.336 203.448,287.336 
		202.296,287.336 201.288,287.336 200.424,287.336 199.704,287.336 199.272,287.336 199.128,287.336 200.064,288.704 
		199.128,287.336 198.408,287.624 198.192,288.344 198.408,289.064 199.128,289.353 	"/>
	<polygon points="206.76,268.4 205.824,269.048 198.192,287.984 200.064,288.704 207.696,269.769 206.76,270.416 207.696,269.769 
		207.768,269.336 207.624,268.977 207.408,268.688 207.12,268.472 206.688,268.4 206.328,268.472 206.04,268.688 205.824,269.048 	
		"/>
	<polygon points="213.816,268.4 213.816,268.4 212.664,268.472 211.512,268.472 210.288,268.472 209.208,268.472 208.2,268.472 
		207.48,268.4 206.976,268.4 206.76,268.4 206.76,270.416 206.976,270.416 207.48,270.416 208.2,270.488 209.208,270.488 
		210.288,270.488 211.512,270.488 212.664,270.488 213.816,270.416 213.816,270.416 	"/>
	<polygon points="235.848,263.72 235.848,263.72 233.472,263.792 231.24,263.937 229.296,264.152 227.568,264.44 225.912,264.729 
		224.4,265.232 223.176,265.592 221.88,266.024 220.8,266.456 219.792,266.888 218.784,267.32 217.848,267.68 216.912,267.896 
		215.976,268.112 214.896,268.328 213.816,268.4 213.816,270.416 215.04,270.344 216.264,270.128 217.344,269.912 218.424,269.552 
		219.504,269.192 220.512,268.76 221.52,268.328 222.6,267.896 223.752,267.464 224.976,267.104 226.344,266.744 227.856,266.456 
		229.44,266.168 231.384,265.952 233.472,265.809 235.848,265.736 235.848,265.736 	"/>
	<polygon points="256.801,273.08 256.584,272.504 256.008,271.712 255.432,270.992 254.783,270.272 253.992,269.48 253.199,268.76 
		252.336,267.968 251.328,267.248 250.176,266.601 248.952,265.952 247.584,265.448 246.072,264.944 244.344,264.512 
		242.544,264.152 240.528,263.937 238.224,263.792 235.848,263.72 235.848,265.736 238.224,265.809 240.384,265.952 
		242.256,266.168 244.056,266.528 245.64,266.816 247.008,267.32 248.232,267.824 249.312,268.328 250.32,268.977 251.184,269.552 
		251.904,270.2 252.695,270.92 253.344,271.568 253.848,272.288 254.424,273.008 255,273.656 254.783,273.08 255,273.656 
		255.289,273.944 255.648,274.017 256.008,274.017 256.367,273.8 256.584,273.584 256.729,273.225 256.729,272.864 256.584,272.504 
			"/>
	<polygon points="254.783,292.376 256.729,291.944 256.801,273.08 254.783,273.08 254.713,291.944 256.656,291.512 254.713,291.944 
		255,292.664 255.721,292.88 256.439,292.664 256.729,291.944 	"/>
	<polygon fill-rule="evenodd" clip-rule="evenodd" fill="#FFFFFF" points="312.313,288.344 311.953,288.272 311.016,287.984 
		309.504,287.552 307.561,287.048 305.184,286.4 302.52,285.68 299.568,284.96 296.473,284.168 293.305,283.448 290.064,282.656 
		286.969,282.008 283.943,281.36 281.064,280.856 278.545,280.496 276.385,280.28 274.584,280.208 271.488,280.424 268.752,280.856 
		266.305,281.504 264.217,282.225 262.416,283.16 260.904,284.168 259.68,285.176 258.6,286.256 257.736,287.336 257.088,288.344 
		256.584,289.353 256.225,290.216 256.008,290.937 255.863,291.44 255.793,291.8 255.793,291.944 314.184,292.16 312.313,288.344 	
		"/>
	<polygon points="274.584,281.216 274.584,281.216 276.313,281.288 278.473,281.504 280.92,281.864 283.801,282.368 
		286.752,283.017 289.848,283.664 293.088,284.456 296.256,285.176 299.352,285.968 302.305,286.688 304.969,287.336 
		307.344,287.984 309.289,288.488 310.729,288.92 311.736,289.208 312.096,289.28 312.527,287.408 312.168,287.336 311.305,287.048 
		309.721,286.616 307.775,286.112 305.4,285.464 302.736,284.672 299.783,283.952 296.688,283.16 293.52,282.44 290.279,281.648 
		287.184,281 284.088,280.353 281.209,279.848 278.615,279.488 276.457,279.272 274.584,279.2 274.584,279.2 	"/>
	<polygon points="255.793,290.937 256.801,292.017 256.801,291.944 256.873,291.656 256.943,291.225 257.16,290.504 257.52,289.784 
		257.953,288.848 258.527,287.912 259.32,286.904 260.328,285.896 261.48,284.96 262.92,284.024 264.576,283.16 266.592,282.44 
		268.896,281.864 271.561,281.433 274.584,281.216 274.584,279.2 271.416,279.416 268.607,279.848 266.016,280.568 263.855,281.288 
		261.912,282.296 260.328,283.376 259.031,284.456 257.881,285.608 256.943,286.76 256.225,287.84 255.648,288.92 255.289,289.928 
		255.072,290.648 254.855,291.225 254.783,291.656 254.783,291.872 255.793,292.952 254.783,291.872 255.072,292.592 
		255.721,292.88 256.439,292.736 256.801,292.017 	"/>
	<polygon points="313.32,292.592 314.184,291.152 255.793,290.937 255.793,292.952 314.184,293.168 315.049,291.729 
		314.184,293.168 314.904,292.88 315.191,292.16 314.904,291.44 314.184,291.152 	"/>
	<polygon points="312.096,289.28 311.447,288.776 313.32,292.592 315.049,291.729 313.176,287.912 312.527,287.408 313.176,287.912 
		312.889,287.552 312.6,287.408 312.24,287.408 311.881,287.48 311.592,287.696 311.377,287.984 311.305,288.344 311.447,288.776 	
		"/>
	<polygon fill-rule="evenodd" clip-rule="evenodd" fill="#FFFFFF" points="255.793,291.944 256.367,290.792 257.016,289.784 
		257.664,288.848 258.385,287.984 259.176,287.192 260.041,286.544 260.977,285.896 262.057,285.393 263.209,284.96 
		264.432,284.528 265.801,284.168 267.313,283.952 268.896,283.736 270.625,283.521 272.568,283.448 274.584,283.376 
		277.393,283.376 279.984,283.448 282.359,283.664 284.447,283.952 286.465,284.313 288.336,284.744 290.064,285.176 
		291.721,285.608 293.305,286.112 294.889,286.544 296.473,286.977 298.129,287.408 299.783,287.769 301.584,288.056 
		303.457,288.272 305.473,288.344 306.768,288.344 307.992,288.344 309.145,288.344 310.152,288.344 311.016,288.344 
		311.736,288.344 312.168,288.344 312.313,288.344 304.68,269.408 304.465,269.408 303.961,269.408 303.24,269.48 302.305,269.48 
		301.152,269.48 300,269.48 298.848,269.48 297.695,269.408 296.545,269.336 295.393,269.12 294.385,268.904 293.377,268.616 
		292.367,268.256 291.359,267.824 290.352,267.393 289.271,266.96 288.049,266.528 286.824,266.168 285.385,265.736 
		283.801,265.448 282.145,265.16 280.199,264.944 278.041,264.8 275.664,264.729 273.289,264.8 271.057,264.944 269.111,265.16 
		267.313,265.521 265.656,265.88 264.217,266.384 262.92,266.888 261.768,267.464 260.688,268.112 259.752,268.76 258.961,269.48 
		258.168,270.2 257.447,270.92 256.873,271.64 256.297,272.36 255.721,273.08 255.793,291.944 	"/>
	<polygon points="274.584,282.368 274.584,282.368 272.568,282.44 270.553,282.512 268.824,282.729 267.24,282.944 265.656,283.16 
		264.145,283.592 262.92,284.024 261.695,284.456 260.473,285.032 259.465,285.752 258.527,286.472 257.664,287.336 
		256.873,288.272 256.152,289.208 255.504,290.288 254.855,291.512 256.729,292.376 257.232,291.296 257.881,290.36 
		258.457,289.424 259.104,288.632 259.824,287.912 260.615,287.336 261.48,286.76 262.416,286.328 263.496,285.896 264.721,285.464 
		265.943,285.176 267.385,284.96 268.969,284.744 270.695,284.528 272.568,284.456 274.584,284.384 274.584,284.384 	"/>
	<polygon points="305.473,287.336 305.473,287.336 303.527,287.264 301.656,287.048 299.928,286.76 298.344,286.4 296.688,286.04 
		295.104,285.608 293.592,285.176 292.008,284.672 290.279,284.168 288.553,283.736 286.607,283.304 284.592,282.944 
		282.432,282.656 279.984,282.44 277.393,282.368 274.584,282.368 274.584,284.384 277.393,284.384 279.984,284.456 
		282.289,284.672 284.305,284.96 286.32,285.32 288.121,285.752 289.848,286.185 291.432,286.544 293.016,287.048 294.672,287.48 
		296.256,287.912 297.912,288.416 299.641,288.776 301.512,289.064 303.385,289.28 305.473,289.353 305.473,289.353 	"/>
	<polygon points="311.377,288.704 312.313,287.336 312.168,287.336 311.736,287.336 311.016,287.336 310.152,287.336 
		309.145,287.336 307.992,287.336 306.768,287.336 305.473,287.336 305.473,289.353 306.768,289.353 307.992,289.353 
		309.145,289.353 310.152,289.353 311.016,289.353 311.736,289.353 312.168,289.353 312.313,289.353 313.248,287.984 
		312.313,289.353 313.031,289.064 313.32,288.344 313.031,287.624 312.313,287.336 	"/>
	<polygon points="304.68,270.416 303.744,269.769 311.377,288.704 313.248,287.984 305.615,269.048 304.68,268.4 305.615,269.048 
		305.4,268.688 305.111,268.472 304.752,268.4 304.393,268.472 304.031,268.688 303.816,268.977 303.672,269.336 303.744,269.769 	
		"/>
	<polygon points="297.695,270.416 297.695,270.416 298.848,270.488 300,270.488 301.152,270.488 302.305,270.488 303.24,270.488 
		303.961,270.416 304.465,270.416 304.68,270.416 304.68,268.4 304.465,268.4 303.961,268.4 303.24,268.472 302.305,268.472 
		301.152,268.472 300,268.472 298.848,268.472 297.695,268.4 297.695,268.4 	"/>
	<polygon points="275.664,265.736 275.664,265.736 278.041,265.809 280.129,265.952 282.072,266.168 283.656,266.456 
		285.168,266.744 286.537,267.104 287.76,267.464 288.912,267.896 289.992,268.328 291,268.76 292.008,269.192 293.088,269.552 
		294.168,269.912 295.248,270.128 296.473,270.344 297.695,270.416 297.695,268.4 296.615,268.328 295.537,268.112 294.6,267.896 
		293.664,267.68 292.729,267.32 291.721,266.888 290.713,266.456 289.633,266.024 288.336,265.592 287.111,265.232 285.6,264.729 
		283.943,264.44 282.217,264.152 280.271,263.937 278.041,263.792 275.664,263.72 275.664,263.72 	"/>
	<polygon points="256.729,273.08 256.512,273.656 257.088,273.008 257.664,272.288 258.168,271.568 258.816,270.92 259.607,270.2 
		260.328,269.552 261.191,268.977 262.199,268.328 263.279,267.824 264.504,267.32 265.873,266.816 267.457,266.528 
		269.256,266.168 271.129,265.952 273.289,265.809 275.664,265.736 275.664,263.72 273.289,263.792 270.984,263.937 
		268.969,264.152 267.168,264.512 265.439,264.944 263.928,265.448 262.561,265.952 261.336,266.601 260.184,267.248 
		259.176,267.968 258.313,268.76 257.52,269.48 256.729,270.272 256.08,270.992 255.504,271.712 254.928,272.504 254.713,273.08 
		254.928,272.504 254.783,272.864 254.783,273.225 254.928,273.584 255.217,273.8 255.504,274.017 255.863,274.017 256.225,273.944 
		256.512,273.656 	"/>
	<polygon points="254.855,291.512 256.801,291.944 256.729,273.08 254.713,273.08 254.783,291.944 256.729,292.376 254.783,291.944 
		255.072,292.664 255.793,292.88 256.512,292.664 256.801,291.944 	"/>
</g>
</svg>
