<?xml version="1.0" encoding="UTF-8" ?>
<!DOCTYPE svg PUBLIC "-//W3C//DTD SVG 1.1//EN" "http://www.w3.org/Graphics/SVG/1.1/DTD/svg11.dtd">
<svg width="382pt" height="294pt" viewBox="0 0 382 294" version="1.1" xmlns="http://www.w3.org/2000/svg">
<g id="#ffd0a6ff">
<path fill="#ffd0a6" opacity="1.00" d=" M 0.00 0.00 L 9.21 0.00 C 9.87 7.00 9.93 14.04 10.22 21.07 C 10.92 33.39 11.95 45.70 12.66 58.02 C 13.29 76.33 12.70 94.66 13.73 112.96 C 14.64 129.62 13.60 146.31 11.73 162.87 C 10.58 172.90 8.54 182.91 9.24 193.05 C 10.34 212.36 11.88 231.64 11.95 250.99 C 7.96 250.99 3.98 251.00 0.00 251.00 L 0.00 0.00 Z" />
<path fill="#ffd0a6" opacity="1.00" d=" M 13.11 0.00 L 26.00 0.00 C 26.54 15.95 27.74 31.91 30.47 47.65 C 31.13 51.47 30.92 55.36 30.25 59.16 C 28.83 67.02 29.19 75.05 28.91 83.00 C 28.58 91.82 30.95 100.38 32.00 109.07 C 34.06 124.64 32.28 140.42 34.10 156.01 C 34.94 163.43 35.94 171.16 33.55 178.41 C 29.08 192.26 21.39 205.24 20.11 219.98 C 19.41 230.31 20.44 240.66 21.01 250.98 C 19.30 250.98 17.59 250.98 15.88 250.99 C 15.65 231.65 14.33 212.36 13.16 193.06 C 12.39 181.94 14.91 171.01 16.01 160.00 C 17.50 145.37 18.50 130.64 17.78 115.93 C 16.85 101.30 17.11 86.64 16.87 71.99 C 16.92 54.98 15.05 38.04 14.14 21.07 C 13.89 14.04 13.78 7.00 13.11 0.00 Z" />
<path fill="#ffd0a6" opacity="1.00" d=" M 26.99 0.00 L 54.09 0.00 C 54.44 14.33 52.49 28.65 53.76 42.96 C 54.10 49.16 54.12 55.37 54.53 61.57 C 55.74 78.64 52.47 95.58 49.28 112.25 C 47.75 120.60 44.86 129.05 46.55 137.61 C 48.66 148.07 52.17 158.30 52.80 169.02 C 53.61 185.34 52.45 201.66 52.37 217.98 C 52.43 229.10 48.88 239.86 48.91 251.00 C 39.94 251.00 30.97 251.02 22.01 250.98 C 21.82 240.68 20.43 230.39 21.14 220.08 C 22.36 205.37 30.01 192.38 34.57 178.60 C 36.49 172.95 36.31 166.89 35.72 161.03 C 34.78 151.72 33.89 142.37 34.03 133.00 C 34.15 125.28 34.20 117.53 33.18 109.86 C 32.29 101.90 30.17 94.09 30.01 86.06 C 29.83 77.45 29.88 68.79 31.24 60.26 C 32.01 55.45 32.14 50.52 31.24 45.72 C 28.54 30.63 27.88 15.28 26.99 0.00 Z" />
<path fill="#ffd0a6" opacity="1.00" d=" M 56.99 0.00 L 77.29 0.00 C 77.93 16.91 75.93 33.92 78.37 50.74 C 80.28 65.46 78.31 80.26 78.06 95.01 C 77.73 106.80 81.70 118.21 81.33 130.00 C 81.38 138.39 78.64 146.64 79.76 155.04 C 80.32 160.03 81.50 164.94 81.82 169.96 C 82.58 183.24 83.25 196.54 83.06 209.85 C 77.45 212.39 71.81 214.85 66.17 217.31 C 66.42 211.62 67.52 205.88 66.57 200.20 C 65.38 195.04 62.08 190.73 60.06 185.90 C 57.23 179.93 55.72 173.43 55.23 166.86 C 54.47 156.62 51.02 146.86 49.26 136.79 C 47.93 129.01 50.24 121.32 51.75 113.75 C 54.93 97.85 58.07 81.75 57.48 65.45 C 56.99 56.32 56.87 47.17 56.23 38.04 C 55.61 25.35 57.13 12.69 56.99 0.00 Z" />
<path fill="#ffd0a6" opacity="1.00" d=" M 81.22 0.00 L 101.53 0.00 C 101.41 6.53 102.49 13.05 104.82 19.15 C 106.72 24.82 110.10 30.04 110.78 36.08 C 111.41 42.27 110.35 48.45 109.58 54.58 C 108.71 61.03 108.38 67.54 107.96 74.03 C 106.53 95.35 103.56 116.64 104.04 138.04 C 103.87 147.23 111.08 154.75 110.26 164.00 C 109.93 170.50 107.90 176.74 105.89 182.88 C 105.02 185.82 103.85 189.02 105.06 192.05 C 106.76 196.60 108.47 201.19 109.13 206.04 C 102.30 206.52 95.08 204.79 88.56 207.43 C 85.77 202.76 87.25 197.11 86.80 191.97 C 86.17 180.59 86.40 169.11 84.07 157.90 C 82.02 147.92 85.57 138.01 85.25 128.00 C 85.35 118.90 82.67 110.09 82.17 101.04 C 81.45 84.28 84.62 67.46 82.31 50.73 C 79.76 33.91 82.03 16.91 81.22 0.00 Z" />
<path fill="#ffd0a6" opacity="1.00" d=" M 104.94 0.00 L 132.84 0.00 C 131.73 3.27 131.04 6.78 131.75 10.22 C 134.32 23.47 140.73 36.18 139.81 49.96 C 139.03 59.64 136.62 69.13 133.30 78.24 C 131.19 83.91 130.65 90.02 130.97 96.03 C 131.67 111.95 136.04 127.57 135.01 143.60 C 128.38 143.70 121.75 143.48 115.13 143.65 C 113.29 143.54 111.87 144.78 110.48 145.79 C 110.12 145.94 109.39 146.23 109.02 146.38 C 106.85 134.34 108.31 122.11 108.94 110.01 C 109.44 100.39 110.60 90.82 111.36 81.22 C 112.16 72.34 112.33 63.40 113.51 54.55 C 114.28 48.44 115.36 42.27 114.70 36.09 C 114.02 30.33 110.92 25.29 109.04 19.90 C 106.57 13.54 105.53 6.76 104.94 0.00 Z" />
<path fill="#ffd0a6" opacity="1.00" d=" M 134.78 0.00 L 148.71 0.00 C 150.14 9.95 153.57 19.42 157.43 28.64 C 160.11 35.56 163.73 42.38 164.03 49.94 C 164.34 58.65 162.47 67.25 162.38 75.95 C 162.18 90.85 162.56 105.90 159.67 120.59 C 158.10 128.16 157.65 135.89 157.99 143.60 C 151.32 143.63 144.64 143.63 137.97 143.60 C 137.85 136.11 137.85 128.59 136.74 121.17 C 135.17 110.19 133.08 99.13 133.94 87.98 C 134.55 80.32 138.29 73.42 139.97 66.00 C 141.86 57.79 143.45 49.27 142.25 40.83 C 140.95 31.23 137.34 22.16 135.11 12.77 C 134.05 8.59 134.41 4.25 134.78 0.00 Z" />
<path fill="#ffd0a6" opacity="1.00" d=" M 149.68 0.00 L 183.17 0.00 C 184.14 4.13 184.55 8.46 183.63 12.64 C 181.02 24.40 175.81 35.76 175.95 48.00 C 176.08 57.44 178.32 66.73 181.38 75.62 C 183.05 80.59 184.72 85.67 184.91 90.96 C 185.36 106.11 180.69 120.87 180.92 136.01 C 181.02 150.71 179.30 165.42 180.77 180.10 C 181.63 188.74 181.07 197.43 180.01 206.02 C 177.89 206.02 175.78 206.02 173.66 206.02 C 173.72 203.61 173.77 201.20 173.89 198.79 C 174.93 182.73 175.77 166.66 176.83 150.60 C 176.93 148.23 177.34 144.52 174.27 143.90 C 169.23 143.23 164.10 143.76 159.03 143.60 C 157.81 128.20 163.34 113.34 163.04 97.98 C 162.81 88.98 163.48 80.00 163.79 71.01 C 164.00 63.98 165.48 57.00 165.07 49.95 C 164.54 41.05 160.02 33.13 156.97 24.94 C 153.53 16.94 151.16 8.56 149.68 0.00 Z" />
<path fill="#ffd0a6" opacity="1.00" d=" M 186.01 0.00 L 213.16 0.00 C 213.29 6.28 212.86 12.67 210.60 18.60 C 208.51 25.43 204.21 31.64 203.88 38.94 C 203.20 48.39 205.80 57.64 206.14 67.04 C 207.00 85.09 209.49 103.01 210.16 121.07 C 210.53 128.70 211.52 136.44 210.09 144.03 C 208.93 150.43 204.99 156.03 204.53 162.59 C 203.97 169.81 206.21 176.84 208.46 183.60 C 209.43 186.77 210.67 190.21 209.48 193.51 C 208.10 197.61 206.50 201.67 205.78 205.96 C 198.16 206.09 190.54 206.02 182.92 206.02 C 183.71 197.79 184.52 189.50 183.64 181.24 C 182.18 165.53 183.58 149.75 183.79 134.01 C 183.82 119.28 188.36 104.89 187.67 90.12 C 187.19 81.91 183.28 74.49 181.42 66.57 C 179.18 57.18 177.77 47.31 179.71 37.72 C 181.35 29.74 184.07 22.04 186.11 14.15 C 187.35 9.52 187.08 4.64 186.01 0.00 Z" />
<path fill="#ffd0a6" opacity="1.00" d=" M 217.16 0.00 L 237.06 0.00 C 236.61 16.76 238.42 33.57 236.36 50.26 C 233.31 70.19 238.56 90.39 235.31 110.32 C 233.97 118.32 232.43 126.44 233.46 134.59 C 234.46 142.50 236.00 150.53 234.40 158.48 C 231.41 174.18 232.37 190.24 231.40 206.11 C 230.94 213.75 231.17 221.40 231.02 229.04 C 230.90 236.46 228.84 243.65 227.86 250.97 C 220.50 251.04 213.13 250.91 205.76 251.10 C 205.88 249.83 206.01 248.57 206.16 247.31 C 210.13 238.73 210.46 228.88 208.89 219.69 C 211.39 218.43 213.92 217.22 216.44 216.02 C 216.38 212.74 216.37 209.46 216.36 206.17 C 214.15 206.09 211.93 206.00 209.72 205.96 C 210.43 201.65 212.03 197.59 213.43 193.48 C 214.65 190.19 213.36 186.76 212.38 183.61 C 210.17 177.05 208.11 170.24 208.39 163.25 C 208.66 156.42 212.82 150.63 214.03 144.01 C 215.47 136.43 214.43 128.69 214.10 121.05 C 213.38 103.00 210.95 85.07 210.08 67.02 C 209.72 57.63 207.16 48.39 207.83 38.95 C 208.17 31.63 212.48 25.40 214.55 18.54 C 216.80 12.63 217.21 6.27 217.16 0.00 Z" />
<path fill="#ffd0a6" opacity="1.00" d=" M 241.04 0.00 L 254.78 0.00 C 254.80 15.01 255.66 30.04 254.77 45.04 C 254.08 56.29 253.53 67.60 254.35 78.86 C 255.87 94.04 259.22 108.95 262.17 123.90 C 264.02 132.93 260.38 141.72 258.47 150.41 C 254.60 165.29 255.72 180.79 255.98 195.99 C 256.27 206.26 255.47 216.62 257.20 226.82 C 258.53 234.82 259.51 242.88 260.03 250.97 C 250.61 251.01 241.20 251.02 231.79 250.98 C 232.88 243.33 234.97 235.80 234.99 228.04 C 235.05 218.94 234.97 209.83 235.55 200.74 C 236.21 186.35 235.71 171.83 238.46 157.61 C 240.55 147.02 236.40 136.57 237.14 125.97 C 237.58 117.23 240.12 108.74 240.25 99.97 C 240.43 89.32 239.88 78.67 239.27 68.04 C 238.66 57.95 241.16 48.04 241.20 37.98 C 241.36 25.32 240.87 12.66 241.04 0.00 Z" />
<path fill="#ffd0a6" opacity="1.00" d=" M 257.07 0.00 L 286.11 0.00 C 285.87 13.00 284.88 25.97 284.23 38.95 C 284.07 42.00 283.60 45.02 283.09 48.03 C 278.84 48.06 274.60 48.17 270.35 48.28 C 270.30 77.03 270.31 105.79 270.35 134.54 C 274.14 134.63 277.93 134.78 281.72 134.99 C 282.18 147.36 283.25 159.70 285.10 171.94 C 287.59 187.54 285.52 203.34 284.71 218.99 C 283.78 229.63 283.93 240.32 283.99 250.99 C 276.96 251.00 269.93 251.01 262.91 250.98 C 262.22 243.24 261.54 235.49 260.15 227.83 C 258.10 216.30 259.32 204.56 258.74 192.93 C 257.91 178.45 257.84 163.69 261.53 149.57 C 263.51 140.94 266.77 132.12 264.85 123.17 C 262.01 108.80 258.79 94.47 257.26 79.88 C 256.09 65.26 257.33 50.61 257.95 36.00 C 258.02 24.00 258.07 11.97 257.07 0.00 Z" />
<path fill="#ffd0a6" opacity="1.00" d=" M 290.06 0.00 L 329.43 0.00 C 327.47 9.42 320.78 17.25 320.14 27.00 C 319.41 34.11 321.34 41.06 322.80 47.94 C 311.18 48.26 299.54 48.30 287.93 47.93 C 287.68 41.93 288.17 35.95 288.69 29.99 C 289.27 20.00 289.88 10.01 290.06 0.00 Z" />
<path fill="#ffd0a6" opacity="1.00" d=" M 333.69 0.00 L 351.15 0.00 C 350.35 7.32 349.71 14.66 349.33 22.02 C 348.84 30.65 349.59 39.30 348.95 47.93 C 341.80 48.27 334.63 48.53 327.52 47.65 C 325.26 41.01 324.22 33.97 324.75 26.97 C 325.13 17.20 332.19 9.52 333.69 0.00 Z" />
<path fill="#ffd0a6" opacity="1.00" d=" M 354.87 0.00 L 382.00 0.00 L 382.00 251.02 C 379.38 251.00 376.77 251.00 374.16 250.97 C 371.42 239.72 366.16 229.36 362.39 218.46 C 360.59 213.48 359.86 208.13 360.45 202.86 C 361.29 194.60 362.24 186.32 362.09 178.00 C 361.92 168.05 362.25 158.09 363.27 148.20 C 364.20 139.15 367.00 130.27 366.54 121.10 C 366.26 115.72 366.14 110.34 365.99 104.95 C 365.89 98.89 363.64 92.93 364.69 86.85 C 365.71 80.71 366.87 74.58 367.33 68.36 C 368.20 56.94 369.85 45.46 368.80 33.99 C 368.55 30.63 367.00 27.60 365.41 24.70 C 370.01 37.84 367.52 51.80 366.51 65.29 C 365.99 72.44 364.96 79.54 363.70 86.59 C 362.47 93.43 365.11 100.13 365.00 106.96 C 364.99 115.19 365.90 123.46 364.75 131.64 C 364.00 137.13 362.89 142.57 362.24 148.08 C 360.73 160.02 361.13 172.07 360.91 184.07 C 360.78 192.09 359.02 200.01 359.18 208.04 C 359.33 215.65 362.96 222.53 365.59 229.50 C 368.57 236.49 370.98 243.70 373.24 250.95 C 365.14 251.01 357.05 251.01 348.95 251.00 C 348.78 241.50 348.77 231.87 346.45 222.60 C 344.35 214.00 341.54 205.15 343.21 196.22 C 344.66 188.89 347.05 181.77 348.37 174.41 C 349.62 167.19 352.14 159.61 349.59 152.37 C 347.65 146.67 345.51 140.99 344.80 134.97 C 348.77 134.76 352.75 134.63 356.73 134.56 C 357.03 107.35 356.69 80.13 356.90 52.91 C 357.38 49.99 355.21 48.10 353.14 46.49 C 352.45 31.01 352.34 15.34 354.87 0.00 M 362.56 22.29 C 361.63 16.41 362.41 10.54 363.83 4.81 C 360.92 10.03 359.50 16.82 362.56 22.29 Z" />
<path fill="#ffd0a6" opacity="1.00" d=" M 285.95 134.89 C 290.40 134.49 294.89 134.47 299.34 134.97 C 296.95 141.16 293.74 146.98 291.02 153.01 C 289.24 156.81 289.07 161.06 288.52 165.15 C 286.69 155.19 285.69 145.02 285.95 134.89 Z" />
<path fill="#ffd0a6" opacity="1.00" d=" M 302.77 137.87 C 304.78 133.03 310.70 134.82 314.76 134.85 C 315.02 148.18 318.05 161.33 317.56 174.70 C 316.64 189.69 314.44 204.70 315.44 219.75 C 315.89 230.16 315.18 240.58 315.04 251.00 C 306.00 251.00 296.96 251.01 287.92 250.99 C 287.93 240.58 287.69 230.14 288.55 219.75 C 289.18 209.50 290.20 199.26 290.17 188.98 C 290.10 180.27 292.35 171.79 293.15 163.16 C 293.82 153.95 298.95 146.02 302.77 137.87 Z" />
<path fill="#ffd0a6" opacity="1.00" d=" M 318.16 135.02 C 325.70 134.38 333.28 134.41 340.82 134.95 C 342.40 140.69 344.12 146.39 345.93 152.06 C 347.29 156.15 347.39 160.54 346.71 164.76 C 345.12 174.67 342.75 184.43 340.10 194.10 C 337.42 204.05 341.05 214.09 343.25 223.76 C 345.44 232.66 345.28 241.90 345.11 251.00 C 336.35 251.00 327.59 251.00 318.83 251.00 C 318.82 238.66 319.21 226.32 318.83 213.98 C 318.34 199.94 320.64 186.01 321.03 172.00 C 321.39 159.58 318.30 147.41 318.16 135.02 Z" />
<path fill="#ffd0a6" opacity="1.00" d=" M 108.60 190.73 C 107.84 186.06 110.55 181.79 112.15 177.59 C 112.71 185.62 113.19 193.66 113.63 201.70 C 113.37 202.47 113.09 203.25 112.81 204.02 C 111.81 199.46 109.93 195.18 108.60 190.73 Z" />
<path fill="#ffd0a6" opacity="1.00" d=" M 56.16 182.84 C 58.90 188.18 62.18 193.32 64.02 199.07 C 65.57 205.37 64.03 211.88 64.00 218.27 C 61.00 219.62 57.96 220.90 55.03 222.40 C 55.19 209.21 55.45 196.02 56.16 182.84 Z" />
<path fill="#ffd0a6" opacity="1.00" d=" M 184.69 230.90 C 188.12 229.24 191.65 227.78 194.85 225.70 C 195.24 234.13 195.05 242.57 195.01 251.01 C 191.71 251.00 188.40 250.98 185.10 250.97 C 185.48 244.28 185.14 237.58 184.69 230.90 Z" />
<path fill="#ffd0a6" opacity="1.00" d=" M 53.18 233.08 C 57.78 232.96 62.38 232.98 66.98 233.00 C 66.99 239.01 67.03 245.01 66.96 251.01 C 61.91 251.00 56.86 251.00 51.81 251.00 C 51.74 244.98 52.99 239.07 53.18 233.08 Z" />
<path fill="#ffd0a6" opacity="1.00" d=" M 77.65 233.01 C 79.73 233.01 81.81 233.00 83.89 233.00 C 84.55 239.06 85.69 245.05 87.08 250.98 C 83.95 250.99 80.82 251.00 77.68 251.01 C 77.57 245.01 77.56 239.01 77.65 233.01 Z" />
<path fill="#ffd0a6" opacity="1.00" d=" M 87.83 232.99 C 91.76 232.97 95.70 233.00 99.63 233.06 C 99.58 239.04 99.58 245.01 99.64 250.98 C 96.75 250.99 93.85 250.99 90.96 250.99 C 89.65 245.04 88.53 239.04 87.83 232.99 Z" />
<path fill="#ffd0a6" opacity="1.00" d=" M 120.67 232.96 C 122.63 232.99 124.58 233.03 126.54 233.08 C 126.55 239.11 126.43 245.15 126.46 251.18 C 124.52 251.09 122.59 251.02 120.65 250.95 C 120.53 244.95 120.55 238.95 120.67 232.96 Z" />
<path fill="#ffd0a6" opacity="1.00" d=" M 132.05 233.13 C 132.53 233.11 133.50 233.05 133.98 233.02 C 132.87 238.95 133.08 245.02 133.04 251.02 L 131.95 251.03 C 132.16 245.07 131.77 239.10 132.05 233.13 Z" />
<path fill="#ffd0a6" opacity="1.00" d=" M 135.99 232.95 C 141.99 232.96 147.99 232.99 153.98 233.01 C 154.03 239.01 153.93 245.02 154.01 251.03 C 147.99 251.00 141.97 250.97 135.95 251.00 C 135.95 244.98 136.09 238.97 135.99 232.95 Z" />
<path fill="#ffd0a6" opacity="1.00" d=" M 159.39 233.13 C 160.16 233.08 161.71 232.98 162.49 232.94 C 162.49 238.93 162.49 244.93 162.42 250.93 C 161.63 250.95 160.04 250.98 159.25 250.99 C 159.49 245.04 159.26 239.08 159.39 233.13 Z" />
<path fill="#ffd0a6" opacity="1.00" d=" M 173.95 233.14 C 176.04 233.04 178.14 232.98 180.23 232.76 L 181.11 232.45 C 182.74 238.49 182.81 244.76 183.00 250.97 C 179.98 250.98 176.96 251.00 173.94 251.02 C 173.91 245.06 173.91 239.10 173.95 233.14 Z" />
<path fill="#ffd0a6" opacity="1.00" d=" M 110.08 242.82 C 111.04 243.92 112.00 245.02 112.96 246.13 C 112.95 247.75 112.96 249.37 112.95 250.99 C 112.23 251.00 110.80 251.01 110.09 251.02 C 110.12 248.28 110.10 245.55 110.08 242.82 Z" />
</g>
<g id="#e0a777ff">
<path fill="#e0a777" opacity="1.00" d=" M 9.21 0.00 L 13.11 0.00 C 13.78 7.00 13.89 14.04 14.14 21.07 C 15.05 38.04 16.92 54.98 16.87 71.99 C 17.11 86.64 16.85 101.30 17.78 115.93 C 18.50 130.64 17.50 145.37 16.01 160.00 C 14.91 171.01 12.39 181.94 13.16 193.06 C 14.33 212.36 15.65 231.65 15.88 250.99 C 14.57 250.99 13.26 250.99 11.95 250.99 C 11.88 231.64 10.34 212.36 9.24 193.05 C 8.54 182.91 10.58 172.90 11.73 162.87 C 13.60 146.31 14.64 129.62 13.73 112.96 C 12.70 94.66 13.29 76.33 12.66 58.02 C 11.95 45.70 10.92 33.39 10.22 21.07 C 9.93 14.04 9.87 7.00 9.21 0.00 Z" />
<path fill="#e0a777" opacity="1.00" d=" M 26.00 0.00 L 26.99 0.00 C 27.88 15.28 28.54 30.63 31.24 45.72 C 32.14 50.52 32.01 55.45 31.24 60.26 C 29.88 68.79 29.83 77.45 30.01 86.06 C 30.17 94.09 32.29 101.90 33.18 109.86 C 34.20 117.53 34.15 125.28 34.03 133.00 C 33.89 142.37 34.78 151.72 35.72 161.03 C 36.31 166.89 36.49 172.95 34.57 178.60 C 30.01 192.38 22.36 205.37 21.14 220.08 C 20.43 230.39 21.82 240.68 22.01 250.98 L 21.01 250.98 C 20.44 240.66 19.41 230.31 20.11 219.98 C 21.39 205.24 29.08 192.26 33.55 178.41 C 35.94 171.16 34.94 163.43 34.10 156.01 C 32.28 140.42 34.06 124.64 32.00 109.07 C 30.95 100.38 28.58 91.82 28.91 83.00 C 29.19 75.05 28.83 67.02 30.25 59.16 C 30.92 55.36 31.13 51.47 30.47 47.65 C 27.74 31.91 26.54 15.95 26.00 0.00 Z" />
<path fill="#e0a777" opacity="1.00" d=" M 54.09 0.00 L 56.99 0.00 C 57.13 12.69 55.61 25.35 56.23 38.04 C 56.87 47.17 56.99 56.32 57.48 65.45 C 58.07 81.75 54.93 97.85 51.75 113.75 C 50.24 121.32 47.93 129.01 49.26 136.79 C 51.02 146.86 54.47 156.62 55.23 166.86 C 55.72 173.43 57.23 179.93 60.06 185.90 C 62.08 190.73 65.38 195.04 66.57 200.20 C 67.52 205.88 66.42 211.62 66.17 217.31 C 65.63 217.55 64.54 218.03 64.00 218.27 C 64.03 211.88 65.57 205.37 64.02 199.07 C 62.18 193.32 58.90 188.18 56.16 182.84 C 55.45 196.02 55.19 209.21 55.03 222.40 L 54.23 222.85 C 53.92 223.03 53.29 223.41 52.98 223.59 C 52.93 226.76 53.12 229.92 53.18 233.08 C 52.99 239.07 51.74 244.98 51.81 251.00 C 51.08 251.00 49.63 251.00 48.91 251.00 C 48.88 239.86 52.43 229.10 52.37 217.98 C 52.45 201.66 53.61 185.34 52.80 169.02 C 52.17 158.30 48.66 148.07 46.55 137.61 C 44.86 129.05 47.75 120.60 49.28 112.25 C 52.47 95.58 55.74 78.64 54.53 61.57 C 54.12 55.37 54.10 49.16 53.76 42.96 C 52.49 28.65 54.44 14.33 54.09 0.00 Z" />
<path fill="#e0a777" opacity="1.00" d=" M 77.29 0.00 L 81.22 0.00 C 82.03 16.91 79.76 33.91 82.31 50.73 C 84.62 67.46 81.45 84.28 82.17 101.04 C 82.67 110.09 85.35 118.90 85.25 128.00 C 85.57 138.01 82.02 147.92 84.07 157.90 C 86.40 169.11 86.17 180.59 86.80 191.97 C 87.25 197.11 85.77 202.76 88.56 207.43 C 86.71 208.20 84.89 209.03 83.06 209.85 C 83.25 196.54 82.58 183.24 81.82 169.96 C 81.50 164.94 80.32 160.03 79.76 155.04 C 78.64 146.64 81.38 138.39 81.33 130.00 C 81.70 118.21 77.73 106.80 78.06 95.01 C 78.31 80.26 80.28 65.46 78.37 50.74 C 75.93 33.92 77.93 16.91 77.29 0.00 Z" />
<path fill="#e0a777" opacity="1.00" d=" M 101.53 0.00 L 104.94 0.00 C 105.53 6.76 106.57 13.54 109.04 19.90 C 110.92 25.29 114.02 30.33 114.70 36.09 C 115.36 42.27 114.28 48.44 113.51 54.55 C 112.33 63.40 112.16 72.34 111.36 81.22 C 110.60 90.82 109.44 100.39 108.94 110.01 C 108.31 122.11 106.85 134.34 109.02 146.38 C 109.39 146.23 110.12 145.94 110.48 145.79 C 110.79 156.40 111.74 166.98 112.15 177.59 C 110.55 181.79 107.84 186.06 108.60 190.73 C 109.93 195.18 111.81 199.46 112.81 204.02 C 113.09 203.25 113.37 202.47 113.63 201.70 C 113.76 203.14 113.90 204.58 114.05 206.03 C 112.41 206.04 110.77 206.04 109.13 206.04 C 108.47 201.19 106.76 196.60 105.06 192.05 C 103.85 189.02 105.02 185.82 105.89 182.88 C 107.90 176.74 109.93 170.50 110.26 164.00 C 111.08 154.75 103.87 147.23 104.04 138.04 C 103.56 116.64 106.53 95.35 107.96 74.03 C 108.38 67.54 108.71 61.03 109.58 54.58 C 110.35 48.45 111.41 42.27 110.78 36.08 C 110.10 30.04 106.72 24.82 104.82 19.15 C 102.49 13.05 101.41 6.53 101.53 0.00 Z" />
<path fill="#e0a777" opacity="1.00" d=" M 132.84 0.00 L 134.78 0.00 C 134.41 4.25 134.05 8.59 135.11 12.77 C 137.34 22.16 140.95 31.23 142.25 40.83 C 143.45 49.27 141.86 57.79 139.97 66.00 C 138.29 73.42 134.55 80.32 133.94 87.98 C 133.08 99.13 135.17 110.19 136.74 121.17 C 137.85 128.59 137.85 136.11 137.97 143.60 C 137.23 143.60 135.75 143.60 135.01 143.60 C 136.04 127.57 131.67 111.95 130.97 96.03 C 130.65 90.02 131.19 83.91 133.30 78.24 C 136.62 69.13 139.03 59.64 139.81 49.96 C 140.73 36.18 134.32 23.47 131.75 10.22 C 131.04 6.78 131.73 3.27 132.84 0.00 Z" />
<path fill="#e0a777" opacity="1.00" d=" M 148.71 0.00 L 149.68 0.00 C 151.16 8.56 153.53 16.94 156.97 24.94 C 160.02 33.13 164.54 41.05 165.07 49.95 C 165.48 57.00 164.00 63.98 163.79 71.01 C 163.48 80.00 162.81 88.98 163.04 97.98 C 163.34 113.34 157.81 128.20 159.03 143.60 L 157.99 143.60 C 157.65 135.89 158.10 128.16 159.67 120.59 C 162.56 105.90 162.18 90.85 162.38 75.95 C 162.47 67.25 164.34 58.65 164.03 49.94 C 163.73 42.38 160.11 35.56 157.43 28.64 C 153.57 19.42 150.14 9.95 148.71 0.00 Z" />
<path fill="#e0a777" opacity="1.00" d=" M 183.17 0.00 L 186.01 0.00 C 187.08 4.64 187.35 9.52 186.11 14.15 C 184.07 22.04 181.35 29.74 179.71 37.72 C 177.77 47.31 179.18 57.18 181.42 66.57 C 183.28 74.49 187.19 81.91 187.67 90.12 C 188.36 104.89 183.82 119.28 183.79 134.01 C 183.58 149.75 182.18 165.53 183.64 181.24 C 184.52 189.50 183.71 197.79 182.92 206.02 C 182.19 206.02 180.74 206.02 180.01 206.02 C 181.07 197.43 181.63 188.74 180.77 180.10 C 179.30 165.42 181.02 150.71 180.92 136.01 C 180.69 120.87 185.36 106.11 184.91 90.96 C 184.72 85.67 183.05 80.59 181.38 75.62 C 178.32 66.73 176.08 57.44 175.95 48.00 C 175.81 35.76 181.02 24.40 183.63 12.64 C 184.55 8.46 184.14 4.13 183.17 0.00 Z" />
<path fill="#e0a777" opacity="1.00" d=" M 213.16 0.00 L 217.16 0.00 C 217.21 6.27 216.80 12.63 214.55 18.54 C 212.48 25.40 208.17 31.63 207.83 38.95 C 207.16 48.39 209.72 57.63 210.08 67.02 C 210.95 85.07 213.38 103.00 214.10 121.05 C 214.43 128.69 215.47 136.43 214.03 144.01 C 212.82 150.63 208.66 156.42 208.39 163.25 C 208.11 170.24 210.17 177.05 212.38 183.61 C 213.36 186.76 214.65 190.19 213.43 193.48 C 212.03 197.59 210.43 201.65 209.72 205.96 C 208.40 205.95 207.09 205.95 205.78 205.96 C 206.50 201.67 208.10 197.61 209.48 193.51 C 210.67 190.21 209.43 186.77 208.46 183.60 C 206.21 176.84 203.97 169.81 204.53 162.59 C 204.99 156.03 208.93 150.43 210.09 144.03 C 211.52 136.44 210.53 128.70 210.16 121.07 C 209.49 103.01 207.00 85.09 206.14 67.04 C 205.80 57.64 203.20 48.39 203.88 38.94 C 204.21 31.64 208.51 25.43 210.60 18.60 C 212.86 12.67 213.29 6.28 213.16 0.00 Z" />
<path fill="#e0a777" opacity="1.00" d=" M 237.06 0.00 L 241.04 0.00 C 240.87 12.66 241.36 25.32 241.20 37.98 C 241.16 48.04 238.66 57.95 239.27 68.04 C 239.88 78.67 240.43 89.32 240.25 99.97 C 240.12 108.74 237.58 117.23 237.14 125.97 C 236.40 136.57 240.55 147.02 238.46 157.61 C 235.71 171.83 236.21 186.35 235.55 200.74 C 234.97 209.83 235.05 218.94 234.99 228.04 C 234.97 235.80 232.88 243.33 231.79 250.98 C 230.48 250.97 229.17 250.97 227.86 250.97 C 228.84 243.65 230.90 236.46 231.02 229.04 C 231.17 221.40 230.94 213.75 231.40 206.11 C 232.37 190.24 231.41 174.18 234.40 158.48 C 236.00 150.53 234.46 142.50 233.46 134.59 C 232.43 126.44 233.97 118.32 235.31 110.32 C 238.56 90.39 233.31 70.19 236.36 50.26 C 238.42 33.57 236.61 16.76 237.06 0.00 Z" />
<path fill="#e0a777" opacity="1.00" d=" M 254.78 0.00 L 257.07 0.00 C 258.07 11.97 258.02 24.00 257.95 36.00 C 257.33 50.61 256.09 65.26 257.26 79.88 C 258.79 94.47 262.01 108.80 264.85 123.17 C 266.77 132.12 263.51 140.94 261.53 149.57 C 257.84 163.69 257.91 178.45 258.74 192.93 C 259.32 204.56 258.10 216.30 260.15 227.83 C 261.54 235.49 262.22 243.24 262.91 250.98 C 262.19 250.98 260.75 250.98 260.03 250.97 C 259.51 242.88 258.53 234.82 257.20 226.82 C 255.47 216.62 256.27 206.26 255.98 195.99 C 255.72 180.79 254.60 165.29 258.47 150.41 C 260.38 141.72 264.02 132.93 262.17 123.90 C 259.22 108.95 255.87 94.04 254.35 78.86 C 253.53 67.60 254.08 56.29 254.77 45.04 C 255.66 30.04 254.80 15.01 254.78 0.00 Z" />
<path fill="#e0a777" opacity="1.00" d=" M 286.11 0.00 L 290.06 0.00 C 289.88 10.01 289.27 20.00 288.69 29.99 C 288.17 35.95 287.68 41.93 287.93 47.93 C 299.54 48.30 311.18 48.26 322.80 47.94 C 321.34 41.06 319.41 34.11 320.14 27.00 C 320.78 17.25 327.47 9.42 329.43 0.00 L 333.69 0.00 C 332.19 9.52 325.13 17.20 324.75 26.97 C 324.22 33.97 325.26 41.01 327.52 47.65 C 334.63 48.53 341.80 48.27 348.95 47.93 C 349.59 39.30 348.84 30.65 349.33 22.02 C 349.71 14.66 350.35 7.32 351.15 0.00 L 354.87 0.00 C 352.34 15.34 352.45 31.01 353.14 46.49 C 355.21 48.10 357.38 49.99 356.90 52.91 C 356.69 80.13 357.03 107.35 356.73 134.56 C 352.75 134.63 348.77 134.76 344.80 134.97 C 345.51 140.99 347.65 146.67 349.59 152.37 C 352.14 159.61 349.62 167.19 348.37 174.41 C 347.05 181.77 344.66 188.89 343.21 196.22 C 341.54 205.15 344.35 214.00 346.45 222.60 C 348.77 231.87 348.78 241.50 348.95 251.00 C 347.67 251.00 346.39 251.00 345.11 251.00 C 345.28 241.90 345.44 232.66 343.25 223.76 C 341.05 214.09 337.42 204.05 340.10 194.10 C 342.75 184.43 345.12 174.67 346.71 164.76 C 347.39 160.54 347.29 156.15 345.93 152.06 C 344.12 146.39 342.40 140.69 340.82 134.95 C 333.28 134.41 325.70 134.38 318.16 135.02 C 318.30 147.41 321.39 159.58 321.03 172.00 C 320.64 186.01 318.34 199.94 318.83 213.98 C 319.21 226.32 318.82 238.66 318.83 251.00 C 317.57 251.00 316.30 251.00 315.04 251.00 C 315.18 240.58 315.89 230.16 315.44 219.75 C 314.44 204.70 316.64 189.69 317.56 174.70 C 318.05 161.33 315.02 148.18 314.76 134.85 C 310.70 134.82 304.78 133.03 302.77 137.87 C 298.95 146.02 293.82 153.95 293.15 163.16 C 292.35 171.79 290.10 180.27 290.17 188.98 C 290.20 199.26 289.18 209.50 288.55 219.75 C 287.69 230.14 287.93 240.58 287.92 250.99 C 286.60 250.99 285.29 250.99 283.99 250.99 C 283.93 240.32 283.78 229.63 284.71 218.99 C 285.52 203.34 287.59 187.54 285.10 171.94 C 283.25 159.70 282.18 147.36 281.72 134.99 C 277.93 134.78 274.14 134.63 270.35 134.54 C 270.31 105.79 270.30 77.03 270.35 48.28 C 274.60 48.17 278.84 48.06 283.09 48.03 C 283.60 45.02 284.07 42.00 284.23 38.95 C 284.88 25.97 285.87 13.00 286.11 0.00 M 271.93 49.16 C 271.63 77.13 271.74 105.11 271.88 133.07 C 299.86 133.13 327.85 133.35 355.82 132.98 C 355.80 105.06 355.89 77.14 355.77 49.22 C 327.83 49.07 299.88 49.18 271.93 49.16 M 285.95 134.89 C 285.69 145.02 286.69 155.19 288.52 165.15 C 289.07 161.06 289.24 156.81 291.02 153.01 C 293.74 146.98 296.95 141.16 299.34 134.97 C 294.89 134.47 290.40 134.49 285.95 134.89 Z" />
<path fill="#e0a777" opacity="1.00" d=" M 362.56 22.29 C 359.50 16.82 360.92 10.03 363.83 4.81 C 362.41 10.54 361.63 16.41 362.56 22.29 Z" />
<path fill="#e0a777" opacity="1.00" d=" M 365.41 24.70 C 367.00 27.60 368.55 30.63 368.80 33.99 C 369.85 45.46 368.20 56.94 367.33 68.36 C 366.87 74.58 365.71 80.71 364.69 86.85 C 363.64 92.93 365.89 98.89 365.99 104.95 C 366.14 110.34 366.26 115.72 366.54 121.10 C 367.00 130.27 364.20 139.15 363.27 148.20 C 362.25 158.09 361.92 168.05 362.09 178.00 C 362.24 186.32 361.29 194.60 360.45 202.86 C 359.86 208.13 360.59 213.48 362.39 218.46 C 366.16 229.36 371.42 239.72 374.16 250.97 L 373.24 250.95 C 370.98 243.70 368.57 236.49 365.59 229.50 C 362.96 222.53 359.33 215.65 359.18 208.04 C 359.02 200.01 360.78 192.09 360.91 184.07 C 361.13 172.07 360.73 160.02 362.24 148.08 C 362.89 142.57 364.00 137.13 364.75 131.64 C 365.90 123.46 364.99 115.19 365.00 106.96 C 365.11 100.13 362.47 93.43 363.70 86.59 C 364.96 79.54 365.99 72.44 366.51 65.29 C 367.52 51.80 370.01 37.84 365.41 24.70 Z" />
<path fill="#e0a777" opacity="1.00" d=" M 205.96 221.17 C 206.94 220.67 207.91 220.18 208.89 219.69 C 210.46 228.88 210.13 238.73 206.16 247.31 C 205.86 238.60 205.75 229.88 205.96 221.17 Z" />
<path fill="#e0a777" opacity="1.00" d=" M 181.11 232.45 C 182.32 231.96 183.51 231.43 184.69 230.90 C 185.14 237.58 185.48 244.28 185.10 250.97 C 184.58 250.97 183.53 250.97 183.00 250.97 C 182.81 244.76 182.74 238.49 181.11 232.45 Z" />
<path fill="#e0a777" opacity="1.00" d=" M 83.89 233.00 C 85.20 232.99 86.51 232.99 87.83 232.99 C 88.53 239.04 89.65 245.04 90.96 250.99 C 89.66 250.98 88.37 250.98 87.08 250.98 C 85.69 245.05 84.55 239.06 83.89 233.00 Z" />
<path fill="#e0a777" opacity="1.00" d=" M 110.14 233.03 C 110.86 233.02 112.31 233.00 113.04 232.99 C 113.08 237.37 113.04 241.75 112.96 246.13 C 112.00 245.02 111.04 243.92 110.08 242.82 C 110.07 239.55 110.12 236.29 110.14 233.03 Z" />
<path fill="#e0a777" opacity="1.00" d=" M 133.98 233.02 C 134.48 233.00 135.49 232.97 135.99 232.95 C 136.09 238.97 135.95 244.98 135.95 251.00 C 135.22 251.01 133.77 251.02 133.04 251.02 C 133.08 245.02 132.87 238.95 133.98 233.02 Z" />
</g>
<g id="#63412aff">
<path fill="#63412a" opacity="1.00" d=" M 271.93 49.16 C 299.88 49.18 327.83 49.07 355.77 49.22 C 355.89 77.14 355.80 105.06 355.82 132.98 C 327.85 133.35 299.86 133.13 271.88 133.07 C 271.74 105.11 271.63 77.13 271.93 49.16 M 281.80 59.16 C 281.59 80.50 281.63 101.85 281.78 123.19 C 303.12 123.30 324.48 123.37 345.82 123.15 C 345.60 112.62 345.91 102.09 345.64 91.56 C 335.85 91.50 326.05 91.73 316.26 91.50 C 326.13 91.31 336.00 91.51 345.87 91.39 C 345.64 80.67 345.83 69.95 345.75 59.23 C 335.03 59.13 324.32 59.31 313.60 59.12 C 313.47 68.98 313.76 78.86 313.50 88.72 C 313.32 78.93 313.45 69.13 313.43 59.34 C 302.89 59.05 292.34 59.35 281.80 59.16 Z" />
<path fill="#63412a" opacity="1.00" d=" M 0.00 251.00 C 3.98 251.00 7.96 250.99 11.95 250.99 C 13.26 250.99 14.57 250.99 15.88 250.99 C 17.59 250.98 19.30 250.98 21.01 250.98 L 22.01 250.98 C 30.97 251.02 39.94 251.00 48.91 251.00 C 49.63 251.00 51.08 251.00 51.81 251.00 C 56.86 251.00 61.91 251.00 66.96 251.01 C 66.89 261.66 66.61 272.32 67.05 282.96 C 70.53 282.95 74.02 282.81 77.49 282.53 C 78.00 272.03 77.57 261.51 77.68 251.01 C 80.82 251.00 83.95 250.99 87.08 250.98 C 88.37 250.98 89.66 250.98 90.96 250.99 C 93.85 250.99 96.75 250.99 99.64 250.98 C 99.67 257.06 99.57 263.13 99.88 269.20 C 103.21 269.21 106.53 269.15 109.86 269.01 C 110.03 263.02 110.02 257.02 110.09 251.02 C 110.80 251.01 112.23 251.00 112.95 250.99 C 112.81 256.98 112.68 262.98 113.43 268.94 C 115.78 268.56 118.14 268.17 120.50 267.81 C 120.78 262.19 120.87 256.57 120.65 250.95 C 122.59 251.02 124.52 251.09 126.46 251.18 C 126.60 252.76 126.84 254.34 127.08 255.93 C 128.55 255.80 130.02 255.68 131.50 255.56 C 131.66 254.05 131.83 252.54 131.95 251.03 L 133.04 251.02 C 133.77 251.02 135.22 251.01 135.95 251.00 C 141.97 250.97 147.99 251.00 154.01 251.03 C 154.05 252.64 154.13 254.25 154.21 255.86 C 155.71 255.82 157.21 255.78 158.71 255.75 C 158.91 254.16 159.11 252.58 159.25 250.99 C 160.04 250.98 161.63 250.95 162.42 250.93 C 162.52 261.36 161.81 271.82 162.83 282.22 C 166.16 282.22 169.48 282.16 172.80 282.02 C 172.90 271.67 174.24 261.37 173.94 251.02 C 176.96 251.00 179.98 250.98 183.00 250.97 C 183.53 250.97 184.58 250.97 185.10 250.97 C 188.40 250.98 191.71 251.00 195.01 251.01 C 194.82 257.00 194.80 262.99 195.07 268.98 C 198.62 269.02 202.18 268.97 205.74 268.81 C 205.94 263.26 205.88 257.71 205.70 252.16 L 205.76 251.10 C 213.13 250.91 220.50 251.04 227.86 250.97 C 229.17 250.97 230.48 250.97 231.79 250.98 C 241.20 251.02 250.61 251.01 260.03 250.97 C 260.75 250.98 262.19 250.98 262.91 250.98 C 269.93 251.01 276.96 251.00 283.99 250.99 C 285.29 250.99 286.60 250.99 287.92 250.99 C 296.96 251.01 306.00 251.00 315.04 251.00 C 316.30 251.00 317.57 251.00 318.83 251.00 C 327.59 251.00 336.35 251.00 345.11 251.00 C 346.39 251.00 347.67 251.00 348.95 251.00 C 357.05 251.01 365.14 251.01 373.24 250.95 L 374.16 250.97 C 376.77 251.00 379.38 251.00 382.00 251.02 L 382.00 294.00 L 0.00 294.00 L 0.00 251.00 Z" />
</g>
<g id="#77dbf2ff">
<path fill="#77dbf2" opacity="1.00" d=" M 281.80 59.16 C 292.34 59.35 302.89 59.05 313.43 59.34 C 313.45 69.13 313.32 78.93 313.50 88.72 C 313.76 78.86 313.47 68.98 313.60 59.12 C 324.32 59.31 335.03 59.13 345.75 59.23 C 345.83 69.95 345.64 80.67 345.87 91.39 C 336.00 91.51 326.13 91.31 316.26 91.50 C 326.05 91.73 335.85 91.50 345.64 91.56 C 345.91 102.09 345.60 112.62 345.82 123.15 C 324.48 123.37 303.12 123.30 281.78 123.19 C 281.63 101.85 281.59 80.50 281.80 59.16 Z" />
</g>
<g id="#351d0dff">
<path fill="#351d0d" opacity="1.00" d=" M 110.48 145.79 C 111.87 144.78 113.29 143.54 115.13 143.65 C 121.75 143.48 128.38 143.70 135.01 143.60 C 135.75 143.60 137.23 143.60 137.97 143.60 C 144.64 143.63 151.32 143.63 157.99 143.60 L 159.03 143.60 C 164.10 143.76 169.23 143.23 174.27 143.90 C 177.34 144.52 176.93 148.23 176.83 150.60 C 175.77 166.66 174.93 182.73 173.89 198.79 C 173.55 201.12 173.10 203.42 172.69 205.73 C 169.95 205.83 167.21 205.94 164.48 206.07 C 165.04 188.43 166.40 170.82 167.51 153.20 C 151.74 152.92 135.96 152.97 120.19 153.16 C 120.64 170.74 122.31 188.27 123.05 205.84 C 120.05 205.92 117.05 206.00 114.05 206.03 C 113.90 204.58 113.76 203.14 113.63 201.70 C 113.19 193.66 112.71 185.62 112.15 177.59 C 111.74 166.98 110.79 156.40 110.48 145.79 Z" />
<path fill="#351d0d" opacity="1.00" d=" M 194.85 225.70 C 197.83 223.35 201.16 221.46 204.90 220.65 C 206.00 231.13 204.69 241.67 205.70 252.16 C 205.88 257.71 205.94 263.26 205.74 268.81 C 202.18 268.97 198.62 269.02 195.07 268.98 C 194.80 262.99 194.82 257.00 195.01 251.01 C 195.05 242.57 195.24 234.13 194.85 225.70 Z" />
<path fill="#351d0d" opacity="1.00" d=" M 52.98 223.59 C 53.29 223.41 53.92 223.03 54.23 222.85 C 57.93 224.16 61.89 224.41 65.75 223.78 C 73.16 222.62 80.58 224.26 88.00 224.19 C 94.37 224.23 100.73 223.51 107.10 223.64 C 131.25 224.13 155.41 223.53 179.54 224.26 C 179.75 227.09 179.98 229.93 180.23 232.76 C 178.14 232.98 176.04 233.04 173.95 233.14 C 173.91 239.10 173.91 245.06 173.94 251.02 C 174.24 261.37 172.90 271.67 172.80 282.02 C 169.48 282.16 166.16 282.22 162.83 282.22 C 161.81 271.82 162.52 261.36 162.42 250.93 C 162.49 244.93 162.49 238.93 162.49 232.94 C 161.71 232.98 160.16 233.08 159.39 233.13 C 159.26 239.08 159.49 245.04 159.25 250.99 C 159.11 252.58 158.91 254.16 158.71 255.75 C 157.21 255.78 155.71 255.82 154.21 255.86 C 154.13 254.25 154.05 252.64 154.01 251.03 C 153.93 245.02 154.03 239.01 153.98 233.01 C 147.99 232.99 141.99 232.96 135.99 232.95 C 135.49 232.97 134.48 233.00 133.98 233.02 C 133.50 233.05 132.53 233.11 132.05 233.13 C 131.77 239.10 132.16 245.07 131.95 251.03 C 131.83 252.54 131.66 254.05 131.50 255.56 C 130.02 255.68 128.55 255.80 127.08 255.93 C 126.84 254.34 126.60 252.76 126.46 251.18 C 126.43 245.15 126.55 239.11 126.54 233.08 C 124.58 233.03 122.63 232.99 120.67 232.96 C 120.55 238.95 120.53 244.95 120.65 250.95 C 120.87 256.57 120.78 262.19 120.50 267.81 C 118.14 268.17 115.78 268.56 113.43 268.94 C 112.68 262.98 112.81 256.98 112.95 250.99 C 112.96 249.37 112.95 247.75 112.96 246.13 C 113.04 241.75 113.08 237.37 113.04 232.99 C 112.31 233.00 110.86 233.02 110.14 233.03 C 110.12 236.29 110.07 239.55 110.08 242.82 C 110.10 245.55 110.12 248.28 110.09 251.02 C 110.02 257.02 110.03 263.02 109.86 269.01 C 106.53 269.15 103.21 269.21 99.88 269.20 C 99.57 263.13 99.67 257.06 99.64 250.98 C 99.58 245.01 99.58 239.04 99.63 233.06 C 95.70 233.00 91.76 232.97 87.83 232.99 C 86.51 232.99 85.20 232.99 83.89 233.00 C 81.81 233.00 79.73 233.01 77.65 233.01 C 77.56 239.01 77.57 245.01 77.68 251.01 C 77.57 261.51 78.00 272.03 77.49 282.53 C 74.02 282.81 70.53 282.95 67.05 282.96 C 66.61 272.32 66.89 261.66 66.96 251.01 C 67.03 245.01 66.99 239.01 66.98 233.00 C 62.38 232.98 57.78 232.96 53.18 233.08 C 53.12 229.92 52.93 226.76 52.98 223.59 Z" />
</g>
<g id="#542e1bff">
<path fill="#542e1b" opacity="1.00" d=" M 120.19 153.16 C 135.96 152.97 151.74 152.92 167.51 153.20 C 166.40 170.82 165.04 188.43 164.48 206.07 C 167.21 205.94 169.95 205.83 172.69 205.73 C 173.10 203.42 173.55 201.12 173.89 198.79 C 173.77 201.20 173.72 203.61 173.66 206.02 C 175.78 206.02 177.89 206.02 180.01 206.02 C 180.74 206.02 182.19 206.02 182.92 206.02 C 190.54 206.02 198.16 206.09 205.78 205.96 C 207.09 205.95 208.40 205.95 209.72 205.96 C 211.93 206.00 214.15 206.09 216.36 206.17 C 216.37 209.46 216.38 212.74 216.44 216.02 C 213.92 217.22 211.39 218.43 208.89 219.69 C 207.91 220.18 206.94 220.67 205.96 221.17 C 205.75 229.88 205.86 238.60 206.16 247.31 C 206.01 248.57 205.88 249.83 205.76 251.10 L 205.70 252.16 C 204.69 241.67 206.00 231.13 204.90 220.65 C 201.16 221.46 197.83 223.35 194.85 225.70 C 191.65 227.78 188.12 229.24 184.69 230.90 C 183.51 231.43 182.32 231.96 181.11 232.45 L 180.23 232.76 C 179.98 229.93 179.75 227.09 179.54 224.26 C 155.41 223.53 131.25 224.13 107.10 223.64 C 100.73 223.51 94.37 224.23 88.00 224.19 C 80.58 224.26 73.16 222.62 65.75 223.78 C 61.89 224.41 57.93 224.16 54.23 222.85 L 55.03 222.40 C 57.96 220.90 61.00 219.62 64.00 218.27 C 64.54 218.03 65.63 217.55 66.17 217.31 C 71.81 214.85 77.45 212.39 83.06 209.85 C 84.89 209.03 86.71 208.20 88.56 207.43 C 95.08 204.79 102.30 206.52 109.13 206.04 C 110.77 206.04 112.41 206.04 114.05 206.03 C 117.05 206.00 120.05 205.92 123.05 205.84 C 122.31 188.27 120.64 170.74 120.19 153.16 Z" />
</g>
</svg>
