<?xml version="1.0" encoding="UTF-8" ?>
<!DOCTYPE svg PUBLIC "-//W3C//DTD SVG 1.1//EN" "http://www.w3.org/Graphics/SVG/1.1/DTD/svg11.dtd">
<svg width="84pt" height="67pt" viewBox="0 0 84 67" version="1.1" xmlns="http://www.w3.org/2000/svg">
<g id="#1d1d1bfc">
<path fill="#1d1d1b" opacity="1.00" d=" M 9.94 2.02 C 31.44 1.21 52.97 0.40 74.47 1.58 C 77.26 6.59 79.72 12.06 79.64 17.92 C 79.75 24.29 80.55 30.65 80.30 37.03 C 80.32 39.88 77.69 41.53 76.06 43.51 C 78.21 43.60 80.50 43.39 82.41 44.59 C 71.19 46.03 59.71 44.92 48.53 45.57 C 45.15 51.54 43.38 58.20 41.65 64.78 C 41.28 64.89 40.52 65.11 40.15 65.21 C 36.78 59.18 33.99 52.39 34.51 45.34 C 26.31 45.74 18.11 45.15 9.92 44.81 C 6.63 44.95 4.25 42.19 2.66 39.65 C 3.06 34.30 3.55 28.86 2.49 23.55 C 1.05 17.35 1.92 10.61 4.97 5.02 C 5.89 3.15 7.86 1.97 9.94 2.02 M 8.01 2.97 C 5.41 5.82 3.69 9.72 4.28 13.63 C 5.24 22.38 6.00 31.27 4.65 40.03 C 5.84 41.28 6.94 42.67 8.40 43.64 C 17.38 44.04 26.39 42.43 35.36 43.58 C 35.35 49.76 37.54 55.69 40.43 61.07 C 41.99 54.96 43.82 48.68 47.55 43.52 C 55.96 42.57 64.52 43.53 72.99 43.29 C 76.01 43.31 77.33 39.62 77.18 37.05 C 76.99 30.71 77.87 24.39 77.86 18.05 C 77.20 13.10 76.27 8.08 74.07 3.55 C 67.04 3.37 60.03 4.19 53.00 4.02 C 37.99 4.16 23.01 3.25 8.01 2.97 Z" />
<path fill="#1d1d1b" opacity="1.00" d=" M 58.36 24.01 C 60.31 26.07 60.46 28.97 60.82 31.63 C 58.90 31.65 56.99 31.64 55.07 31.62 C 54.47 28.53 56.23 26.03 58.36 24.01 Z" />
<path fill="#1d1d1b" opacity="1.00" d=" M 19.45 27.49 C 20.99 27.46 22.53 27.41 24.07 27.32 C 23.74 29.55 23.29 31.77 22.79 33.97 C 21.38 34.12 19.97 34.25 18.56 34.36 C 18.50 32.03 18.86 29.73 19.45 27.49 M 20.27 30.48 C 19.36 31.65 19.60 32.32 20.99 32.49 C 21.92 31.32 21.68 30.65 20.27 30.48 Z" />
<path fill="#1d1d1b" opacity="1.00" d=" M 37.11 33.04 C 37.18 30.84 37.26 27.49 40.23 27.39 C 41.99 27.33 45.48 26.10 45.24 28.98 C 43.32 31.52 40.21 32.78 37.11 33.04 Z" />
</g>
</svg>
