<?xml version="1.0" encoding="UTF-8" ?>
<!DOCTYPE svg PUBLIC "-//W3C//DTD SVG 1.1//EN" "http://www.w3.org/Graphics/SVG/1.1/DTD/svg11.dtd">
<svg width="359pt" height="573pt" viewBox="0 0 359 573" version="1.1" xmlns="http://www.w3.org/2000/svg">
<g id="#010101fe">
<path fill="#010101" opacity="1.00" d=" M 59.38 0.00 L 59.80 0.00 C 59.70 8.77 59.23 17.54 58.37 26.26 C 57.80 17.50 58.80 8.74 59.38 0.00 Z" />
<path fill="#010101" opacity="1.00" d=" M 41.08 64.01 C 47.91 58.42 54.37 52.15 62.15 47.88 C 55.72 53.93 48.57 59.33 41.08 64.01 Z" />
<path fill="#010101" opacity="1.00" d=" M 190.04 48.35 C 192.72 48.49 195.59 47.95 198.15 48.95 C 202.75 52.18 206.10 57.39 206.56 63.05 C 206.82 66.04 206.52 69.04 206.72 72.03 C 209.15 69.44 208.56 65.87 208.57 62.66 C 209.60 65.49 210.36 68.65 209.58 71.63 C 206.87 76.09 203.49 80.12 201.04 84.74 C 203.07 83.92 205.03 82.94 207.06 82.10 C 201.88 86.31 195.55 91.72 188.38 89.51 C 185.09 88.62 181.68 88.28 178.28 88.58 C 177.46 87.70 176.65 86.81 175.87 85.91 C 177.63 86.41 179.44 86.75 181.25 87.05 C 180.47 86.16 179.68 85.27 178.84 84.44 C 180.50 84.01 182.14 83.48 183.70 82.75 C 185.63 83.38 187.55 84.04 189.41 84.85 C 190.30 83.13 191.36 81.51 192.24 79.79 C 193.01 72.78 188.27 67.08 185.97 60.86 C 190.86 66.15 192.60 73.79 192.76 80.82 C 193.91 81.26 195.06 81.71 196.21 82.18 C 198.04 80.35 199.76 78.41 201.40 76.41 C 201.72 76.95 202.36 78.04 202.68 78.58 C 203.55 77.28 204.43 75.98 205.32 74.69 C 203.08 73.29 200.79 71.93 198.80 70.18 C 196.85 68.43 195.70 65.98 193.80 64.19 C 192.37 64.14 190.95 64.29 189.53 64.37 C 190.64 63.16 192.16 62.28 192.92 60.80 C 193.10 56.49 194.29 51.09 190.04 48.35 M 196.17 51.48 C 194.93 54.42 193.79 57.51 194.49 60.75 C 197.83 59.91 201.06 58.66 204.24 57.34 C 201.83 55.03 199.14 53.01 196.17 51.48 M 195.70 63.13 C 196.72 67.42 200.41 70.59 204.68 71.40 C 205.65 67.56 207.20 62.45 204.08 59.24 C 201.19 60.32 198.44 61.73 195.70 63.13 M 182.23 86.97 C 182.41 90.28 185.28 85.50 182.23 86.97 Z" />
<path fill="#010101" opacity="1.00" d=" M 167.27 54.23 C 171.03 48.10 178.83 52.92 182.18 57.00 C 179.41 55.72 176.82 53.87 173.76 53.36 C 171.57 53.35 169.44 53.98 167.27 54.23 Z" />
<path fill="#010101" opacity="1.00" d=" M 164.27 66.51 C 167.29 64.87 170.45 62.97 174.02 63.23 C 177.93 63.29 181.12 65.79 184.47 67.46 C 184.49 69.99 184.66 72.53 184.82 75.06 C 183.99 72.47 183.85 69.27 181.48 67.53 C 177.73 64.45 172.04 64.43 167.98 66.88 C 165.68 68.10 165.69 70.89 165.21 73.11 C 164.82 70.92 164.53 68.72 164.27 66.51 Z" />
<path fill="#010101" opacity="1.00" d=" M 166.03 74.76 C 169.93 74.79 173.57 73.29 177.22 72.14 C 175.57 73.58 173.82 74.91 172.06 76.22 C 172.26 77.23 172.45 78.25 172.64 79.27 C 171.89 78.58 171.14 77.90 170.40 77.22 C 169.90 77.49 168.92 78.02 168.43 78.29 C 167.39 78.65 166.35 78.96 165.29 79.23 C 165.52 77.74 165.78 76.25 166.03 74.76 Z" />
<path fill="#010101" opacity="1.00" d=" M 49.85 79.41 C 55.26 77.04 61.28 78.25 66.99 78.03 C 75.02 78.31 83.33 77.64 91.03 80.35 C 77.36 78.57 63.58 78.80 49.85 79.41 Z" />
<path fill="#010101" opacity="1.00" d=" M 33.96 80.07 C 38.88 78.80 44.05 78.85 49.07 79.47 C 45.30 80.10 41.49 80.57 37.82 81.70 C 44.57 81.57 51.26 80.39 58.02 80.42 C 68.29 79.82 78.56 80.67 88.83 80.83 C 88.89 81.29 89.01 82.20 89.07 82.66 C 83.13 82.47 77.17 82.49 71.24 83.02 C 69.87 85.20 68.37 87.30 66.83 89.36 C 67.47 90.11 68.13 90.85 68.78 91.59 C 67.90 94.25 66.45 96.99 67.10 99.87 C 68.15 105.09 70.68 109.94 74.47 113.69 C 71.38 113.66 69.10 111.57 66.75 109.87 C 66.79 115.10 71.89 117.59 74.85 121.15 C 75.35 117.54 77.38 114.04 76.52 110.34 C 76.00 106.31 74.22 102.30 74.97 98.21 C 77.02 91.87 82.30 86.34 88.68 84.42 C 84.50 88.42 79.45 92.24 77.77 98.04 C 77.64 103.08 78.73 108.01 79.66 112.94 C 82.54 109.41 85.91 106.24 88.40 102.40 C 89.84 97.96 90.69 92.75 94.74 89.81 C 97.28 88.43 99.87 87.14 102.26 85.50 C 98.31 83.98 94.11 83.38 89.99 82.53 C 91.43 81.34 93.37 81.57 95.11 81.32 C 94.01 81.04 92.90 80.76 91.80 80.48 C 97.76 79.90 103.58 82.38 107.59 86.75 C 102.13 90.29 95.39 93.44 93.02 99.98 C 91.31 104.13 92.73 108.62 92.59 112.93 C 92.62 116.12 91.26 119.07 89.91 121.89 C 89.43 121.50 88.48 120.72 88.00 120.33 C 86.20 122.39 84.39 124.45 82.65 126.57 C 83.79 126.20 84.93 125.82 86.07 125.45 C 84.66 130.32 82.72 135.06 81.80 140.05 C 80.92 144.09 83.34 147.67 84.86 151.21 C 83.15 149.40 80.96 147.62 80.68 144.97 C 80.08 139.40 82.36 134.08 82.89 128.59 C 81.18 129.89 79.10 131.12 78.54 133.36 C 77.43 137.32 76.51 141.33 75.47 145.31 C 74.25 145.34 73.04 145.37 71.83 145.42 C 69.81 148.34 66.78 150.26 64.05 152.45 C 68.83 154.83 74.21 155.87 79.50 154.84 C 77.98 156.89 76.61 159.16 74.47 160.63 C 71.54 162.09 68.97 159.34 66.75 157.82 C 64.88 159.40 63.01 160.98 61.11 162.52 C 59.82 161.88 58.53 161.23 57.24 160.58 C 55.49 161.96 53.67 163.27 51.78 164.46 C 51.68 159.14 52.83 153.72 51.42 148.48 C 50.57 145.21 49.70 141.87 48.07 138.89 C 46.44 137.01 44.38 135.57 42.59 133.84 C 44.56 133.63 46.53 133.48 48.48 133.22 C 49.37 135.05 50.45 136.77 51.62 138.43 C 53.08 136.86 54.79 135.52 56.18 133.88 C 56.36 132.34 55.50 130.93 55.10 129.49 C 53.45 130.45 51.85 131.48 50.17 132.40 C 50.25 131.54 50.39 129.81 50.46 128.94 C 51.16 128.77 52.56 128.42 53.26 128.25 C 52.12 124.36 51.03 120.43 50.74 116.37 C 50.63 111.50 47.71 107.36 45.01 103.54 C 44.90 104.30 44.68 105.84 44.57 106.61 C 44.04 105.88 43.52 105.15 43.02 104.40 C 42.11 109.67 43.97 114.74 45.44 119.70 C 46.65 122.73 49.16 125.06 50.18 128.19 C 47.92 126.36 45.36 124.80 43.57 122.47 C 42.33 120.09 42.16 117.32 41.06 114.88 C 39.93 113.14 38.17 111.95 36.51 110.76 C 35.83 108.45 35.19 106.13 34.52 103.81 C 34.40 106.54 34.29 109.27 33.96 111.98 C 31.63 104.65 32.68 94.51 24.79 90.36 C 23.17 89.25 21.74 87.72 19.79 87.22 C 17.58 86.76 15.70 88.31 13.78 89.13 C 17.10 89.59 20.42 90.04 23.74 90.41 C 18.41 91.22 13.00 90.80 7.63 91.24 C 9.80 91.83 11.99 92.30 14.18 92.77 C 9.45 92.99 4.73 93.31 0.00 93.39 L 0.00 89.99 C 2.45 89.34 4.94 88.93 7.43 88.45 C 7.78 86.66 8.10 84.88 8.43 83.09 C 14.01 83.13 19.46 84.38 24.99 84.81 C 28.92 85.49 30.53 80.88 33.96 80.07 M 36.24 85.35 C 34.26 85.75 33.28 87.69 31.95 89.00 C 33.28 88.66 34.60 88.29 35.92 87.92 C 40.07 91.18 45.53 90.74 50.47 90.50 C 49.57 88.60 48.50 86.78 47.69 84.83 C 52.60 83.81 52.71 90.99 57.04 91.23 C 59.24 91.42 61.49 91.49 63.66 91.06 C 65.59 88.41 67.39 85.66 69.37 83.04 C 58.32 83.44 46.98 81.97 36.24 85.35 M 28.51 89.33 C 30.67 91.52 33.91 92.16 36.88 92.00 C 34.39 90.36 31.37 89.91 28.51 89.33 M 41.91 92.28 C 43.43 93.33 45.28 93.36 47.04 93.53 C 45.40 93.68 43.76 93.79 42.12 94.01 C 42.39 94.99 42.70 95.94 43.07 96.89 C 44.33 97.56 46.61 97.33 46.71 99.25 C 47.00 101.99 47.87 104.61 49.88 106.59 C 50.22 104.08 50.59 101.56 50.69 99.03 C 50.85 96.51 49.46 94.26 49.24 91.78 C 46.79 91.68 44.32 91.80 41.91 92.28 M 55.85 91.85 C 53.59 99.31 55.14 107.36 59.36 113.81 C 59.70 113.76 60.37 113.65 60.71 113.59 C 63.74 106.71 61.73 98.99 63.18 91.79 C 60.74 91.86 58.30 91.86 55.85 91.85 M 32.23 92.68 C 35.97 98.57 35.85 106.37 40.92 111.45 C 40.83 105.67 41.13 99.74 39.92 94.07 C 37.69 92.41 34.83 92.75 32.23 92.68 M 52.37 104.47 C 51.84 106.22 51.29 109.60 52.83 110.69 C 53.46 108.95 53.81 105.63 52.37 104.47 M 80.27 115.09 C 80.87 117.89 81.87 120.58 82.70 123.32 C 88.18 119.39 89.69 112.22 88.81 105.87 C 85.79 108.75 82.55 111.56 80.27 115.09 M 54.29 109.74 C 53.66 118.53 61.03 124.43 63.93 132.05 C 63.07 133.17 62.24 134.33 61.56 135.58 C 64.39 135.34 66.56 133.18 67.66 130.69 C 68.49 128.24 71.03 127.28 72.94 125.83 C 72.20 122.93 71.12 120.06 68.83 118.02 C 67.44 121.41 66.43 124.93 65.22 128.39 C 65.25 122.54 64.67 116.74 63.48 111.01 C 61.70 112.89 61.27 116.83 58.42 117.08 C 57.44 114.43 56.23 111.84 54.29 109.74 M 75.42 129.22 C 77.32 128.22 79.12 127.01 80.64 125.49 C 81.28 122.74 79.30 120.34 78.11 118.06 C 75.78 121.33 75.73 125.39 75.42 129.22 M 52.71 119.87 C 53.12 122.32 54.76 124.27 57.36 124.42 C 55.90 122.81 54.27 121.37 52.71 119.87 M 57.88 126.48 C 58.22 128.37 58.54 130.60 60.82 130.91 C 60.77 128.87 59.84 127.22 57.88 126.48 M 64.76 136.90 C 65.52 137.89 66.32 138.85 67.15 139.77 C 69.69 137.73 72.01 135.44 74.36 133.20 C 74.23 131.55 74.11 129.91 74.01 128.27 C 73.24 128.31 71.70 128.40 70.93 128.44 C 69.37 131.62 66.76 134.04 64.76 136.90 M 78.06 130.01 C 78.59 129.40 78.59 129.40 78.06 130.01 M 75.59 132.02 C 76.71 132.97 78.77 131.29 78.06 130.01 C 76.95 129.09 74.92 130.76 75.59 132.02 M 61.31 132.13 C 61.98 132.79 61.98 132.79 61.31 132.13 M 69.08 140.29 C 69.98 141.23 70.97 142.06 72.05 142.79 C 75.24 141.09 75.22 137.01 76.00 133.93 C 73.61 135.95 71.33 138.11 69.08 140.29 M 57.24 135.22 C 56.20 138.48 59.25 140.73 60.91 143.12 C 62.60 145.47 64.58 142.20 65.92 141.13 C 64.52 140.07 63.02 139.14 61.32 138.64 C 60.92 136.56 59.09 135.72 57.24 135.22 M 53.43 140.06 C 53.11 141.40 53.66 141.94 55.08 141.66 C 55.40 140.32 54.85 139.79 53.43 140.06 M 66.16 142.20 C 64.93 143.28 62.84 145.84 65.59 146.47 C 68.09 148.29 70.07 145.21 71.40 143.48 C 69.66 143.04 67.91 142.61 66.16 142.20 M 55.78 142.95 C 56.17 144.37 56.00 146.62 57.88 146.98 C 60.35 147.34 61.83 149.42 63.05 151.40 C 64.15 150.53 65.23 149.65 66.30 148.75 C 64.42 147.90 62.47 147.26 60.56 146.48 C 59.15 145.06 57.57 143.84 55.78 142.95 M 58.23 151.41 C 57.32 152.81 59.76 154.00 60.69 152.90 C 61.63 151.50 59.15 150.36 58.23 151.41 M 55.39 155.00 C 54.42 157.04 53.77 159.22 53.67 161.49 C 56.07 160.39 57.58 158.22 58.97 156.07 C 57.78 155.70 56.59 155.34 55.39 155.00 M 71.07 156.08 C 71.19 156.80 71.45 158.25 71.58 158.98 C 73.59 158.99 75.67 158.54 76.52 156.48 C 74.70 156.32 72.88 156.20 71.07 156.08 M 60.73 156.48 C 60.76 157.42 60.82 159.28 60.85 160.22 C 62.80 161.15 63.89 158.43 65.25 157.56 C 63.75 157.17 62.24 156.81 60.73 156.48 Z" />
<path fill="#010101" opacity="1.00" d=" M 170.28 80.86 C 171.16 81.41 171.79 82.17 172.18 83.14 C 170.37 83.35 169.74 82.59 170.28 80.86 Z" />
<path fill="#010101" opacity="1.00" d=" M 175.80 82.38 C 177.46 81.69 178.27 82.23 178.25 83.98 C 177.22 83.77 176.40 83.23 175.80 82.38 Z" />
<path fill="#010101" opacity="1.00" d=" M 173.35 84.26 C 173.43 84.33 173.61 84.47 173.70 84.53 C 173.61 84.47 173.43 84.33 173.35 84.26 Z" />
<path fill="#010101" opacity="1.00" d=" M 252.35 111.04 C 255.75 111.17 251.89 114.44 250.18 113.18 C 248.33 112.19 251.42 111.03 252.35 111.04 Z" />
<path fill="#010101" opacity="1.00" d=" M 33.83 112.22 C 35.53 117.32 35.77 122.76 36.70 128.04 C 34.38 123.13 33.38 117.62 33.83 112.22 Z" />
<path fill="#010101" opacity="1.00" d=" M 229.99 117.96 C 233.41 117.03 236.89 115.98 239.10 112.99 C 238.85 114.18 238.59 115.36 238.35 116.55 C 235.60 117.24 232.81 117.76 229.99 117.96 Z" />
<path fill="#010101" opacity="1.00" d=" M 242.72 114.66 C 244.03 114.30 245.30 113.46 246.70 113.57 C 249.21 114.58 251.46 116.60 254.34 116.30 C 256.66 116.00 259.49 117.71 259.37 120.25 C 259.44 133.70 262.69 146.83 264.57 160.08 C 265.12 163.93 264.85 167.95 266.22 171.65 C 269.26 179.36 268.21 188.02 271.07 195.77 C 272.90 198.91 273.85 202.41 274.34 206.00 C 277.01 203.99 280.38 201.72 279.88 197.90 C 282.67 195.45 284.44 192.10 287.06 189.50 C 291.24 189.96 294.73 192.63 298.84 193.43 C 298.69 192.13 298.55 190.82 298.41 189.52 C 299.89 191.49 301.38 193.46 302.86 195.43 C 300.55 195.28 298.35 194.52 296.17 193.81 C 296.23 196.04 296.25 198.29 295.96 200.51 C 294.70 199.14 293.88 197.46 293.67 195.61 C 293.50 193.21 291.11 192.04 289.42 190.74 C 289.26 191.53 288.94 193.09 288.78 193.87 C 291.14 195.21 292.48 197.37 292.30 200.13 C 290.57 199.44 288.93 198.53 287.11 198.10 C 285.63 198.17 284.53 199.36 283.32 200.06 C 285.30 200.22 287.28 200.32 289.27 200.49 C 285.82 202.11 282.18 203.27 278.53 204.34 C 278.37 205.08 278.05 206.56 277.88 207.30 C 281.72 205.83 285.28 203.69 289.24 202.53 C 288.32 203.69 287.35 204.81 286.38 205.94 C 287.23 209.48 284.24 212.10 282.80 215.01 C 284.52 215.12 286.26 215.20 287.99 215.27 C 287.95 216.00 287.86 217.46 287.82 218.19 C 285.67 218.03 283.53 217.86 281.39 217.71 C 281.13 215.70 280.87 213.69 280.55 211.69 C 277.84 213.66 276.63 217.51 278.43 220.50 C 279.90 223.10 280.37 226.06 281.20 228.89 C 283.77 231.64 287.99 231.04 291.40 231.59 C 289.35 237.45 287.52 244.44 291.39 249.98 C 295.22 243.58 298.18 236.68 302.56 230.61 C 304.19 228.77 303.48 226.29 303.74 224.08 C 305.00 221.08 307.48 218.85 309.72 216.59 C 310.62 215.03 310.77 213.19 311.18 211.48 C 310.32 211.42 309.46 211.36 308.60 211.31 C 307.37 207.14 305.88 202.82 302.43 199.95 C 301.45 200.69 300.48 201.45 299.49 202.18 C 299.46 201.52 299.41 200.20 299.39 199.54 C 302.05 198.37 304.61 197.00 307.19 195.66 C 303.76 187.30 302.27 178.33 299.21 169.86 C 297.12 163.81 292.34 159.39 288.25 154.68 C 285.65 152.71 282.16 152.38 279.50 150.48 C 276.52 147.18 276.76 142.42 275.81 138.33 C 273.67 135.57 270.71 133.54 268.79 130.58 C 269.62 130.38 271.29 129.99 272.13 129.79 C 272.19 128.19 272.25 126.59 272.32 124.99 C 274.09 125.29 275.85 125.77 277.66 125.79 C 278.44 124.61 279.05 123.34 279.68 122.09 C 279.61 125.43 281.47 128.09 283.98 130.10 C 283.99 130.64 284.01 131.71 284.02 132.25 C 282.56 130.55 281.21 128.76 279.75 127.06 C 279.45 127.80 278.86 129.28 278.56 130.02 C 279.45 132.37 282.07 133.49 283.52 135.47 C 283.69 136.81 283.61 138.16 283.78 139.50 C 284.47 140.53 285.75 140.90 286.74 141.59 C 287.46 139.63 288.11 137.64 288.86 135.69 C 288.93 137.70 288.93 139.70 288.97 141.71 C 290.10 143.10 291.07 144.61 291.82 146.24 C 290.74 146.56 289.68 146.88 288.62 147.22 C 286.61 144.59 283.28 144.01 280.23 143.43 C 280.53 148.86 286.04 150.48 289.84 152.93 C 291.53 156.77 294.64 159.64 296.93 163.08 C 303.77 175.42 304.26 190.83 313.80 201.73 C 314.60 200.81 315.42 199.89 316.24 198.98 C 316.00 202.61 314.96 206.11 313.40 209.38 C 311.55 213.32 311.19 217.73 309.70 221.78 C 307.07 225.60 305.07 229.79 303.19 234.02 C 304.26 237.50 308.04 239.33 308.96 242.91 C 310.90 249.03 311.73 255.44 313.31 261.66 C 313.77 263.60 315.03 265.19 316.13 266.81 C 317.49 264.80 318.05 262.46 317.87 260.05 C 317.57 256.79 319.62 254.06 320.57 251.08 C 319.03 250.03 317.51 248.98 316.06 247.84 C 318.04 248.09 319.73 249.11 321.29 250.32 C 326.36 238.97 328.51 226.49 328.67 214.11 C 328.66 210.32 330.45 206.82 330.50 203.05 C 330.03 197.06 326.03 192.25 323.92 186.81 C 327.15 190.36 330.12 194.36 331.49 199.02 C 330.98 202.95 330.13 206.88 330.58 210.88 C 331.33 209.98 332.07 209.07 332.80 208.16 C 332.40 219.86 331.76 231.64 328.93 243.05 C 328.19 245.73 326.58 248.07 325.82 250.75 C 323.79 257.64 320.35 264.32 320.90 271.71 C 321.55 271.66 322.87 271.55 323.52 271.50 C 323.20 276.02 320.30 279.61 318.70 283.69 C 314.73 295.62 314.37 308.59 309.16 320.13 C 312.38 306.74 313.30 292.82 317.85 279.76 C 309.72 291.91 311.99 307.53 306.70 320.73 C 306.02 322.40 305.07 323.94 303.97 325.36 C 307.86 314.68 309.62 303.43 311.49 292.26 C 312.49 285.61 315.82 279.45 315.82 272.63 C 316.05 270.81 314.94 269.27 314.24 267.69 C 310.34 260.05 310.52 251.21 307.97 243.15 C 307.31 240.93 304.92 240.10 303.21 238.87 C 300.06 242.95 297.35 247.33 294.82 251.82 C 294.03 253.59 292.11 254.56 290.21 254.15 C 286.89 251.22 286.87 246.52 285.16 242.74 C 283.74 239.66 282.68 236.45 281.56 233.26 C 279.97 233.01 279.42 234.65 278.69 235.69 C 275.82 241.01 272.40 246.16 267.83 250.16 C 269.15 247.63 271.09 245.48 272.36 242.92 C 273.49 236.81 270.60 230.83 271.64 224.76 C 272.67 215.83 269.79 207.09 269.54 198.22 C 270.00 191.52 268.18 184.91 266.39 178.53 C 263.21 172.38 264.63 165.29 263.41 158.71 C 261.99 150.53 260.31 142.40 258.85 134.23 C 257.99 129.95 259.07 125.59 258.47 121.29 C 255.24 123.02 252.01 124.91 248.37 125.62 C 247.88 127.80 247.27 129.94 246.57 132.06 C 248.33 134.44 250.33 136.64 252.61 138.53 C 252.06 139.66 250.98 140.66 251.09 142.01 C 251.55 153.08 249.22 164.01 249.54 175.08 C 248.92 168.02 249.32 160.94 249.88 153.90 C 250.15 148.41 250.49 142.41 247.40 137.57 C 244.91 133.50 244.01 128.73 242.79 124.18 C 238.25 124.09 233.77 123.35 229.32 122.57 C 226.92 122.19 226.06 119.62 224.92 117.83 C 226.34 118.84 227.51 120.28 229.16 120.92 C 232.13 120.71 234.94 119.63 237.81 118.96 C 236.87 119.99 235.93 121.01 235.00 122.05 C 239.38 123.31 244.13 121.71 246.10 117.45 C 244.97 116.52 243.84 115.60 242.72 114.66 M 247.05 120.20 C 246.74 121.56 247.27 122.12 248.67 121.87 C 248.97 120.49 248.43 119.94 247.05 120.20 M 272.86 125.64 C 272.72 128.27 274.14 130.25 276.60 131.04 C 275.90 128.93 276.04 125.15 272.86 125.64 M 270.46 130.72 C 272.35 132.98 274.73 134.79 277.34 136.16 C 275.61 133.84 273.84 130.37 270.46 130.72 M 279.08 145.22 C 277.46 148.09 282.41 145.45 279.08 145.22 M 272.18 202.83 C 272.48 207.85 273.06 212.86 273.53 217.88 C 274.01 216.95 274.46 216.02 275.01 215.14 C 277.20 213.96 277.15 211.44 277.33 209.27 C 275.21 209.91 275.32 212.10 274.72 213.83 L 274.30 213.95 C 273.62 210.24 273.46 206.41 272.18 202.83 M 312.18 204.41 C 311.30 205.63 311.53 206.34 312.86 206.53 C 313.73 205.29 313.51 204.58 312.18 204.41 M 329.74 218.08 C 329.52 224.85 328.16 231.54 328.03 238.32 C 331.40 229.64 331.42 219.99 331.37 210.80 C 329.57 212.77 330.06 215.63 329.74 218.08 M 273.24 221.70 C 272.83 228.09 272.23 234.99 274.59 241.03 C 276.89 234.91 277.74 227.06 273.24 221.70 M 278.08 231.31 C 276.54 234.22 281.42 231.43 278.08 231.31 M 283.67 235.31 C 284.72 237.35 286.03 239.24 287.48 241.03 C 287.90 239.00 288.30 236.97 288.71 234.94 C 287.02 235.04 285.34 235.17 283.67 235.31 M 320.08 261.13 C 318.82 261.49 317.92 264.22 319.53 264.55 C 320.44 264.01 321.58 261.44 320.08 261.13 Z" />
<path fill="#010101" opacity="1.00" d=" M 196.95 113.90 C 202.00 117.50 201.49 124.40 202.90 129.80 C 204.27 132.71 205.99 135.44 207.35 138.36 C 209.50 136.45 211.24 134.14 213.39 132.24 C 215.03 131.65 216.73 132.78 218.35 133.06 C 218.42 135.88 216.74 137.98 214.73 139.74 C 211.19 142.83 210.40 147.82 207.10 151.08 C 205.29 153.25 201.98 154.67 202.21 157.94 C 201.87 162.63 200.22 167.05 198.25 171.27 C 195.72 176.15 195.96 181.84 193.98 186.92 C 192.81 190.99 190.04 194.59 189.96 198.95 C 189.93 201.48 188.85 203.79 187.75 206.02 C 187.35 205.43 186.54 204.25 186.14 203.67 C 184.74 207.20 183.59 210.83 182.81 214.56 C 182.36 214.47 181.46 214.29 181.02 214.20 C 178.03 220.38 173.74 226.09 172.42 232.94 C 171.24 237.03 168.55 240.62 165.18 243.19 C 160.44 246.58 157.58 251.80 153.90 256.19 C 153.12 265.08 153.40 274.14 154.97 282.98 C 155.24 287.29 158.25 290.74 158.85 294.96 C 160.15 300.82 159.11 306.93 156.67 312.34 C 156.42 311.64 155.93 310.24 155.69 309.54 C 154.28 312.23 152.43 314.85 152.22 317.98 C 151.79 322.87 151.19 327.81 149.41 332.43 C 148.18 336.05 145.83 339.19 144.89 342.92 C 144.34 345.22 142.56 346.92 141.70 349.09 C 140.56 352.93 146.53 355.04 145.07 358.89 C 144.20 362.21 142.66 365.46 143.11 368.99 C 143.68 371.82 141.68 374.00 140.70 376.45 C 139.87 384.35 136.03 391.85 136.89 399.96 C 137.35 402.13 139.18 403.62 140.49 405.30 C 138.49 406.33 136.50 407.38 134.54 408.49 C 132.78 421.99 128.94 435.36 122.16 447.24 C 119.17 451.94 120.35 457.98 117.70 462.77 C 114.25 467.78 114.55 474.29 111.40 479.45 C 109.94 482.03 108.03 484.44 107.43 487.42 C 104.88 498.47 102.07 509.46 99.27 520.45 C 97.10 525.58 95.35 530.89 93.14 536.02 C 94.03 531.33 95.76 526.84 96.72 522.17 C 90.51 520.07 84.58 517.30 78.55 514.77 C 76.54 519.23 73.90 523.39 72.20 528.02 C 74.53 513.53 75.91 498.54 82.02 485.02 C 83.72 480.90 86.66 477.45 88.38 473.36 C 89.58 467.78 88.74 462.01 89.31 456.37 C 90.11 448.13 90.05 439.84 90.35 431.57 C 89.79 431.89 88.67 432.53 88.10 432.84 C 88.11 432.22 88.13 430.97 88.14 430.35 C 83.82 435.11 81.02 440.99 76.94 445.93 C 74.57 448.89 71.93 451.64 69.78 454.78 C 67.73 457.72 66.60 461.35 63.60 463.55 C 65.83 458.17 68.63 452.91 72.60 448.60 C 79.40 440.48 84.08 430.87 90.37 422.39 C 95.18 416.12 98.68 408.77 100.29 401.03 C 98.88 394.56 92.84 390.43 87.03 388.10 C 85.47 388.54 83.62 390.34 82.13 388.88 C 77.07 385.97 78.66 379.25 77.73 374.43 C 72.83 378.11 72.68 384.52 70.61 389.78 C 68.59 395.24 66.98 400.92 64.11 406.02 C 65.93 398.24 69.71 391.07 71.49 383.30 C 68.38 386.42 67.24 390.79 65.61 394.74 C 63.35 400.39 61.63 406.23 59.79 412.03 C 60.41 412.64 61.04 413.27 61.66 413.89 C 57.05 426.78 51.25 439.25 45.59 451.72 C 46.56 452.81 47.60 453.86 48.44 455.07 C 47.67 457.12 46.34 459.05 44.21 459.87 C 41.24 461.02 39.02 463.33 36.61 465.32 C 38.88 460.48 43.11 456.81 44.80 451.68 C 47.28 445.04 50.78 438.83 53.34 432.23 C 55.50 427.08 55.01 421.29 57.22 416.16 C 61.91 403.81 65.65 391.12 68.03 378.12 C 68.62 373.69 71.76 370.18 72.86 365.95 C 73.51 358.99 73.72 351.57 77.37 345.38 C 79.16 342.31 82.08 340.20 84.93 338.19 C 84.72 336.63 84.15 335.04 84.47 333.47 C 86.69 328.90 91.20 325.84 93.11 321.08 C 94.00 319.13 93.51 316.98 93.33 314.94 C 92.96 311.99 93.27 308.83 91.71 306.18 C 89.59 302.82 91.33 298.63 89.53 295.14 C 87.66 296.60 85.84 298.12 83.83 299.40 C 85.28 297.37 86.95 295.51 88.37 293.46 C 85.66 294.96 83.40 297.09 81.11 299.14 C 76.60 303.23 71.23 306.21 66.46 309.98 C 67.11 316.60 62.02 322.88 56.34 325.68 C 59.22 321.28 63.74 317.89 65.25 312.66 C 61.34 317.25 58.07 322.54 52.96 325.97 C 49.90 328.56 45.99 329.64 42.46 331.39 C 37.09 334.61 32.52 339.02 27.04 342.08 C 30.42 338.75 34.17 335.83 37.79 332.77 C 40.65 330.29 44.52 329.63 47.70 327.70 C 52.25 325.02 56.29 321.41 59.40 317.14 C 57.52 318.21 55.74 319.42 53.89 320.55 C 54.98 318.73 56.98 317.10 56.37 314.76 C 56.02 313.18 57.15 311.92 57.87 310.65 C 58.06 312.23 58.23 313.83 58.37 315.43 C 61.95 312.32 65.24 308.81 69.37 306.40 C 77.09 301.68 83.57 295.27 89.44 288.45 C 92.94 284.25 97.40 281.01 100.93 276.86 C 92.22 276.74 84.47 281.55 75.97 282.81 C 84.91 279.91 93.77 275.91 103.36 276.09 C 101.95 279.84 98.38 282.15 95.90 285.17 C 101.21 285.03 105.07 280.96 108.11 277.05 C 112.70 270.79 115.18 262.93 115.04 255.18 C 115.05 252.65 112.36 251.97 110.56 251.03 C 111.54 258.04 110.11 265.32 106.01 271.15 C 107.23 265.66 110.24 260.05 108.59 254.35 C 108.09 252.35 106.00 252.41 104.36 252.48 C 102.24 252.23 100.26 253.04 98.75 254.51 C 100.05 254.43 101.36 254.32 102.63 254.05 C 103.93 255.67 105.29 257.25 106.41 259.00 C 101.30 260.00 96.16 257.75 91.08 259.03 C 87.73 259.93 84.02 260.97 81.89 263.94 C 79.25 267.42 77.30 271.38 75.32 275.26 C 74.01 277.73 73.93 280.82 71.79 282.81 C 67.86 286.78 64.44 291.39 59.67 294.41 C 63.50 288.42 69.48 284.09 72.80 277.75 C 75.99 272.30 78.58 266.45 82.47 261.44 C 85.22 257.87 89.24 255.52 93.60 254.53 C 97.47 253.63 99.92 250.31 102.90 247.98 C 106.85 246.73 110.79 245.38 114.44 243.39 C 116.23 241.80 116.81 239.26 117.38 237.04 C 115.74 233.41 112.58 230.61 111.29 226.77 C 108.49 220.14 110.65 211.76 116.39 207.38 C 121.02 203.28 128.21 202.12 130.62 195.81 C 130.83 196.69 131.24 198.45 131.45 199.34 C 132.66 197.92 133.83 196.46 134.99 195.01 C 135.04 195.77 135.14 197.30 135.19 198.06 C 138.25 198.06 141.27 198.62 143.98 200.10 C 143.84 201.37 143.69 202.64 143.54 203.91 C 145.09 204.37 146.63 204.84 148.17 205.34 C 147.21 205.49 145.30 205.77 144.34 205.91 C 144.69 207.70 145.10 209.47 145.51 211.25 C 144.00 209.81 142.56 208.29 140.92 207.02 C 138.08 208.64 135.10 210.95 133.84 214.05 C 133.93 218.21 137.80 220.83 138.44 224.80 C 136.85 224.87 135.27 224.94 133.68 225.02 C 134.29 227.11 134.94 229.20 135.63 231.27 C 137.19 230.91 138.74 230.56 140.32 230.29 C 138.88 232.03 137.12 233.46 135.55 235.08 C 135.24 240.75 135.89 246.43 135.60 252.10 C 134.80 246.06 134.35 239.97 133.68 233.92 C 133.56 231.64 132.24 229.73 131.20 227.79 C 131.96 228.38 132.72 228.97 133.48 229.56 C 133.13 227.91 132.78 226.26 132.54 224.59 C 131.64 224.61 130.74 224.62 129.84 224.62 C 130.96 223.00 132.33 221.54 133.31 219.81 C 133.60 216.01 132.22 212.32 132.42 208.54 C 132.41 206.32 133.89 204.56 134.87 202.70 C 132.70 204.17 130.55 205.85 127.86 206.17 C 129.18 204.81 130.22 203.22 131.12 201.57 C 128.35 202.65 125.58 203.72 122.84 204.86 C 119.20 206.39 117.40 210.19 114.91 213.02 C 116.79 212.65 118.53 211.86 120.07 210.74 C 118.09 213.88 115.26 216.58 114.05 220.16 C 113.60 223.55 114.97 226.83 115.80 230.07 C 116.32 232.85 118.72 234.53 120.40 236.59 C 121.72 237.99 122.70 240.07 124.85 240.29 C 126.15 238.39 126.29 236.03 126.86 233.86 C 126.81 236.07 126.93 238.33 126.39 240.49 C 125.30 242.64 122.10 243.34 121.99 246.08 C 120.88 248.95 123.48 250.97 125.10 252.93 C 128.25 256.33 130.79 261.17 135.91 261.70 C 137.59 257.83 138.15 253.60 139.71 249.70 C 143.32 243.79 148.84 239.09 155.43 236.84 C 154.34 234.48 152.61 232.50 150.19 231.46 C 150.39 228.45 150.74 225.02 148.20 222.83 C 145.85 219.69 141.64 220.89 138.31 220.83 C 141.03 217.42 143.91 213.26 148.51 212.47 C 148.61 216.02 151.08 218.39 153.87 220.16 C 157.80 213.74 161.24 206.97 166.28 201.30 C 169.86 197.52 170.51 192.21 172.70 187.69 C 175.91 180.21 182.77 174.80 185.23 166.96 C 185.90 158.77 192.97 152.91 194.45 145.00 C 193.63 140.54 190.82 136.87 188.88 132.88 C 190.38 134.19 191.75 135.62 193.19 136.99 C 192.79 131.92 188.34 127.93 188.71 122.84 C 190.95 122.18 191.65 125.78 193.10 127.06 C 193.09 123.50 191.94 120.13 190.87 116.78 C 195.41 115.63 196.25 121.21 196.36 124.49 C 195.56 123.33 194.81 122.14 194.07 120.95 C 194.59 126.63 192.96 132.32 194.11 137.97 C 194.39 140.07 195.32 142.02 195.70 144.10 C 195.37 147.15 194.30 150.07 193.88 153.11 C 198.03 152.36 201.92 150.59 205.63 148.65 C 208.96 146.82 210.35 143.16 211.97 139.96 C 212.83 138.25 215.55 137.42 214.80 135.16 C 210.87 134.01 209.16 138.66 206.82 140.89 C 206.29 140.30 205.76 139.72 205.23 139.14 C 204.99 139.60 204.51 140.51 204.28 140.96 C 204.24 139.05 204.58 137.08 204.07 135.22 C 203.06 133.19 201.76 131.24 201.59 128.91 C 200.98 123.65 198.71 118.83 196.95 113.90 M 192.69 155.58 C 190.77 157.60 188.89 159.85 188.28 162.64 C 189.06 164.01 190.66 163.69 191.98 163.87 C 194.25 163.92 196.17 165.27 198.19 166.15 C 200.27 162.19 200.54 157.68 200.99 153.32 C 198.21 153.98 195.34 154.47 192.69 155.58 M 181.75 176.77 C 178.83 181.63 173.71 186.12 174.88 192.34 C 176.06 191.65 177.23 190.95 178.41 190.28 C 177.37 192.20 176.09 194.00 174.53 195.55 C 172.15 197.99 171.32 201.50 168.91 203.93 C 162.94 210.11 159.63 218.18 155.60 225.63 C 153.71 228.97 155.52 232.78 156.68 236.04 C 156.51 240.01 152.30 241.47 149.79 243.80 C 147.03 246.48 143.30 247.88 140.77 250.80 C 144.68 252.80 148.03 255.60 151.09 258.71 C 150.89 254.08 150.67 249.41 151.51 244.82 C 151.82 247.42 151.99 250.03 152.21 252.63 C 153.17 250.85 154.08 249.04 155.05 247.27 C 155.41 247.78 156.11 248.78 156.47 249.28 C 167.40 237.06 175.31 222.57 182.53 207.95 C 183.26 202.10 181.82 196.23 182.44 190.37 L 181.88 190.02 C 181.40 190.12 180.43 190.30 179.94 190.40 C 180.86 188.10 181.66 185.73 182.96 183.61 C 182.82 185.36 182.18 187.05 182.11 188.81 C 182.44 188.83 183.10 188.87 183.43 188.89 C 183.02 193.76 183.67 198.62 184.14 203.46 C 184.96 198.97 189.08 196.56 190.50 192.37 C 193.58 184.94 194.44 176.85 196.38 169.10 C 194.39 167.62 191.77 165.67 189.23 167.06 C 185.17 168.81 184.23 173.54 181.75 176.77 M 148.73 218.76 C 149.04 221.29 150.55 223.36 151.96 225.39 C 152.50 224.00 153.00 222.60 153.47 221.18 C 151.91 220.33 150.35 219.48 148.73 218.76 M 118.47 242.34 C 117.48 243.08 116.71 244.69 117.20 245.89 C 118.59 246.19 120.19 242.64 118.47 242.34 M 108.01 249.14 C 110.48 249.72 113.79 248.15 115.62 250.45 C 116.75 251.67 117.95 253.16 117.90 254.92 C 116.72 265.79 111.71 276.14 103.76 283.67 C 105.99 283.39 108.21 283.05 110.45 282.93 C 106.75 285.68 102.52 287.58 98.75 290.22 C 102.98 294.79 109.53 294.35 115.20 294.80 C 108.73 297.65 101.56 296.47 95.22 293.92 C 96.06 296.83 95.35 299.42 93.74 301.89 C 94.74 304.04 96.27 305.89 97.19 308.08 C 96.81 310.81 96.68 313.60 97.91 316.17 C 100.35 315.37 102.78 314.51 105.30 313.99 C 101.99 316.48 99.00 319.40 95.39 321.44 C 92.61 324.72 90.95 329.11 86.86 331.09 C 86.80 331.76 86.67 333.10 86.61 333.76 C 88.20 333.31 89.70 333.55 91.09 334.42 C 95.75 334.53 100.36 333.14 105.02 333.81 C 108.69 333.87 112.02 335.97 115.74 335.40 C 119.38 337.92 123.25 340.02 127.25 341.91 C 128.88 342.19 130.45 341.37 132.04 341.08 C 135.10 344.35 140.11 344.37 143.41 341.44 C 148.02 334.93 149.79 326.85 150.07 318.99 C 149.94 315.73 152.48 313.34 153.50 310.43 C 155.65 305.58 155.81 300.14 154.96 294.97 C 154.47 295.15 153.48 295.49 152.98 295.66 C 154.37 288.24 153.70 280.64 152.76 273.21 C 151.27 270.25 150.41 267.08 150.06 263.79 C 149.62 258.47 144.64 255.04 140.06 253.32 C 140.97 256.25 142.63 259.75 140.61 262.63 C 137.53 263.91 133.80 263.91 130.95 262.05 C 125.65 258.71 123.29 252.30 118.05 248.92 C 114.83 247.50 110.69 245.79 108.01 249.14 M 96.36 337.93 C 97.73 340.45 96.17 342.55 93.78 343.63 C 93.16 341.43 93.27 339.15 93.32 336.90 C 92.09 337.85 90.91 338.86 89.76 339.91 C 89.25 339.88 88.24 339.83 87.73 339.80 C 89.50 340.98 91.30 342.12 93.10 343.27 C 91.39 343.89 89.49 344.08 87.91 345.01 C 86.48 347.58 86.29 350.59 85.50 353.39 C 82.33 354.65 79.72 357.03 77.58 359.64 C 78.56 358.86 79.52 358.05 80.47 357.24 C 78.64 365.60 79.91 374.22 80.38 382.66 C 81.95 378.59 82.99 374.25 85.75 370.76 C 88.46 367.49 87.85 363.05 89.06 359.23 C 89.94 355.77 93.35 353.75 94.17 350.25 C 95.74 345.16 98.24 340.47 100.79 335.82 C 99.30 336.50 97.88 337.32 96.36 337.93 M 101.98 341.52 C 105.28 344.49 109.85 343.87 113.95 344.14 C 115.21 343.04 115.77 341.42 116.53 340.00 C 112.57 337.07 109.70 342.25 106.14 342.83 C 104.32 340.90 106.79 338.59 107.16 336.52 C 104.77 337.41 102.80 339.07 101.98 341.52 M 119.48 343.37 C 118.25 345.36 122.58 346.36 122.69 344.21 C 122.53 342.74 120.35 342.19 119.48 343.37 M 100.02 343.89 C 98.97 346.99 98.06 350.14 97.05 353.26 C 96.45 355.69 93.69 356.66 92.90 358.99 C 91.23 362.32 91.68 366.15 90.85 369.69 C 89.90 371.54 88.52 373.11 87.36 374.82 C 97.25 374.55 104.83 381.88 112.97 386.43 C 118.19 383.96 123.32 381.06 129.08 380.05 C 125.99 382.39 122.30 383.64 118.87 385.38 C 123.35 386.02 128.41 384.09 132.34 387.02 C 131.74 387.25 130.56 387.71 129.96 387.94 C 123.68 388.51 117.83 390.99 112.04 393.31 C 110.14 393.16 108.25 392.85 106.35 392.68 C 106.76 390.45 107.81 388.51 109.59 387.10 C 105.00 383.30 99.98 379.78 94.32 377.77 C 91.60 376.70 88.66 377.18 86.04 378.27 C 85.76 379.86 85.54 381.46 85.38 383.08 C 91.89 386.12 99.49 388.37 103.50 394.85 C 108.63 394.05 113.83 395.29 119.01 394.54 C 123.66 397.47 129.22 398.22 134.26 400.31 C 134.67 397.42 136.02 394.53 135.33 391.59 C 134.01 387.00 139.47 383.61 138.26 378.98 C 137.60 376.20 139.75 373.99 141.10 371.83 C 139.35 367.61 142.40 363.95 143.34 360.01 C 143.09 357.05 140.41 354.86 137.64 354.26 C 137.29 353.19 136.94 352.13 136.59 351.08 C 134.86 351.27 133.14 351.99 131.40 351.72 C 129.27 350.81 127.37 349.17 124.94 349.15 C 121.83 349.01 119.23 346.87 116.08 346.94 C 110.60 346.81 104.86 346.87 100.02 343.89 M 128.06 345.30 C 127.00 346.75 129.69 348.21 130.72 347.06 C 131.70 345.53 129.14 344.09 128.06 345.30 M 78.95 352.90 C 81.76 351.49 83.22 348.85 83.07 345.70 C 80.82 347.52 79.73 350.20 78.95 352.90 M 134.78 346.99 C 134.80 348.85 136.64 348.79 138.00 349.14 C 138.06 348.30 138.18 346.62 138.24 345.78 C 137.07 346.12 135.91 346.53 134.78 346.99 M 133.23 347.23 C 133.82 347.82 133.82 347.82 133.23 347.23 M 140.16 347.40 C 139.27 348.59 139.50 349.28 140.85 349.45 C 141.75 348.23 141.51 347.55 140.16 347.40 M 70.98 374.29 C 72.48 374.34 74.00 374.78 75.50 374.54 C 76.93 372.44 78.09 370.07 78.10 367.48 C 75.22 369.19 73.60 372.26 70.98 374.29 M 83.90 380.31 C 85.35 377.84 86.46 375.19 87.31 372.47 C 85.18 374.50 83.88 377.34 83.90 380.31 M 107.30 399.25 C 113.29 401.22 119.53 403.19 125.85 403.33 C 125.81 403.70 125.71 404.42 125.66 404.79 C 119.77 404.50 113.87 404.04 108.03 403.15 C 106.77 403.15 104.40 402.08 104.18 404.13 C 102.57 410.83 99.15 416.90 95.46 422.67 L 94.06 423.47 C 96.35 417.17 100.76 411.74 101.97 404.98 C 99.68 411.22 96.21 416.88 92.86 422.59 C 93.90 423.86 95.01 425.18 94.67 426.96 C 94.88 434.50 94.80 442.16 93.09 449.55 C 92.17 444.40 93.12 439.12 92.57 433.93 C 92.00 441.68 90.84 449.39 90.41 457.14 C 91.03 461.09 90.35 465.02 90.06 468.97 C 89.82 471.15 90.87 473.56 89.61 475.56 C 85.14 483.76 79.45 491.69 77.83 501.08 C 80.18 500.94 80.35 498.68 81.04 496.94 C 80.58 501.90 77.05 506.20 78.28 511.36 C 84.81 513.65 90.61 517.89 97.59 518.94 C 98.72 514.97 99.81 510.99 101.50 507.22 C 103.61 498.99 105.43 490.61 105.99 482.13 C 107.46 479.65 110.55 478.48 111.74 475.73 C 115.10 468.83 113.50 460.61 116.61 453.64 C 119.27 450.66 120.87 446.98 122.59 443.43 C 128.17 430.88 132.53 417.27 131.78 403.39 C 124.47 398.98 115.58 398.77 107.30 399.25 Z" />
<path fill="#010101" opacity="1.00" d=" M 283.72 122.94 C 285.73 123.90 287.66 125.24 288.28 127.50 C 289.79 132.81 295.95 133.92 299.08 137.91 C 300.35 139.59 300.03 141.96 298.54 143.40 C 298.32 141.74 297.91 140.11 297.39 138.53 C 297.19 140.83 296.66 143.46 298.45 145.31 C 300.54 148.45 302.53 151.69 304.04 155.15 C 301.21 152.51 298.97 149.34 296.89 146.09 C 296.24 146.68 295.59 147.27 294.95 147.86 C 295.21 145.07 295.88 142.28 295.61 139.46 C 293.97 135.95 289.59 134.42 288.63 130.47 C 287.80 127.48 285.40 125.42 283.72 122.94 Z" />
<path fill="#010101" opacity="1.00" d=" M 283.17 125.82 C 284.51 127.76 285.86 129.70 287.25 131.60 C 286.17 131.07 285.09 130.56 283.98 130.10 C 283.75 128.67 283.45 127.25 283.17 125.82 Z" />
<path fill="#010101" opacity="1.00" d=" M 71.67 150.17 C 72.26 149.81 73.44 149.11 74.03 148.76 C 74.81 150.49 75.60 152.23 76.35 153.98 C 75.50 154.05 73.79 154.19 72.94 154.27 C 72.51 152.90 72.08 151.53 71.67 150.17 Z" />
<path fill="#010101" opacity="1.00" d=" M 303.75 156.21 C 308.66 159.42 313.67 162.88 316.53 168.20 C 315.21 167.51 313.92 166.78 312.62 166.08 C 315.01 169.57 317.54 173.02 319.05 177.02 C 316.83 174.50 314.95 171.72 312.83 169.14 C 309.55 165.02 305.77 161.15 303.75 156.21 Z" />
<path fill="#010101" opacity="1.00" d=" M 252.77 184.88 C 253.48 186.24 254.17 187.62 254.86 189.00 C 257.24 189.97 258.99 191.86 259.28 194.49 C 258.36 194.61 256.52 194.84 255.60 194.95 C 255.55 199.68 255.79 204.41 255.65 209.14 C 254.88 204.96 255.16 200.57 253.61 196.55 C 252.61 205.58 252.75 214.70 252.77 223.78 L 252.24 223.72 C 252.35 213.77 252.13 203.81 251.40 193.89 C 251.13 190.81 252.20 187.86 252.77 184.88 Z" />
<path fill="#010101" opacity="1.00" d=" M 121.04 209.65 C 122.14 208.18 123.81 207.26 125.58 206.84 C 126.19 208.74 122.57 210.66 121.04 209.65 Z" />
<path fill="#010101" opacity="1.00" d=" M 290.93 209.10 C 293.14 206.44 297.20 208.67 300.14 208.94 C 299.67 209.29 298.72 209.98 298.25 210.32 C 298.31 211.91 298.34 213.50 298.28 215.09 C 295.20 214.01 291.91 212.53 290.93 209.10 Z" />
<path fill="#010101" opacity="1.00" d=" M 281.38 221.48 C 284.92 219.86 289.26 219.10 292.43 221.93 C 289.48 222.95 286.42 223.52 283.36 224.06 C 282.86 223.41 281.87 222.12 281.38 221.48 Z" />
<path fill="#010101" opacity="1.00" d=" M 252.93 237.89 C 255.01 239.88 257.71 241.18 259.56 243.38 C 261.03 246.99 260.66 250.99 260.85 254.80 L 260.26 254.72 C 260.24 251.38 261.03 247.72 259.08 244.75 C 257.88 247.90 257.16 251.20 256.16 254.41 C 255.96 252.45 255.84 250.50 255.63 248.55 C 253.60 253.86 253.50 259.93 251.13 264.98 C 250.61 258.18 253.94 251.62 254.43 244.83 C 254.18 242.47 253.40 240.20 252.93 237.89 Z" />
<path fill="#010101" opacity="1.00" d=" M 284.80 260.91 C 285.35 259.23 287.50 259.06 289.00 259.09 C 291.86 259.25 295.01 258.95 297.60 260.41 C 300.24 262.93 301.20 267.01 300.32 270.52 C 298.89 275.59 298.94 281.00 296.80 285.88 C 292.06 287.14 286.73 286.41 282.97 283.10 C 280.72 281.55 282.19 278.46 282.30 276.24 C 283.77 271.23 283.22 265.88 284.80 260.91 M 289.11 268.76 C 290.83 268.95 292.55 269.08 294.29 269.19 C 294.18 267.33 294.94 264.31 292.56 263.63 C 289.57 262.65 289.72 266.92 289.11 268.76 M 288.21 274.79 C 288.03 276.48 287.70 278.19 287.83 279.91 C 288.39 281.56 290.27 281.68 291.67 282.23 C 292.73 279.75 293.23 277.11 293.27 274.42 C 291.57 274.47 289.89 274.60 288.21 274.79 Z" />
<path fill="#010101" opacity="1.00" d=" M 250.23 266.90 C 250.38 266.69 250.68 266.28 250.83 266.07 C 251.38 270.83 250.25 275.75 251.44 280.50 C 254.20 280.28 257.19 279.71 259.66 281.36 C 263.95 284.01 269.21 285.44 272.44 289.56 C 280.11 298.89 279.83 314.24 270.58 322.44 C 275.40 326.62 281.12 331.10 287.86 330.75 C 292.82 329.84 298.09 330.53 302.79 328.40 C 305.33 329.68 308.18 331.00 309.12 333.94 C 312.00 339.95 310.68 346.74 310.63 353.13 C 309.49 348.19 309.67 342.77 306.86 338.36 C 306.42 342.92 307.45 347.42 307.73 351.96 C 306.79 347.34 305.84 342.72 304.29 338.26 C 300.76 338.94 297.25 339.70 293.74 340.49 C 295.43 343.63 297.98 346.16 300.07 349.02 C 301.75 351.25 301.66 354.16 302.33 356.76 C 303.26 361.41 306.75 364.86 309.05 368.85 C 305.83 368.11 307.94 371.90 309.84 372.04 C 309.98 372.45 310.25 373.28 310.39 373.70 C 308.89 372.76 307.42 371.78 305.94 370.84 C 306.50 372.71 307.19 374.57 307.53 376.51 C 308.64 380.90 309.72 385.30 310.90 389.68 C 311.76 392.35 314.11 394.06 315.97 396.02 C 318.42 398.49 319.90 401.69 321.34 404.80 C 320.66 404.71 319.30 404.52 318.62 404.42 C 318.85 407.26 320.43 409.62 322.56 411.43 C 328.45 416.90 331.80 424.41 334.08 431.98 C 336.06 438.82 335.35 446.01 334.92 453.01 C 334.87 455.15 334.19 457.19 333.30 459.12 C 334.36 450.59 335.48 441.45 331.95 433.33 C 331.73 435.94 331.78 438.56 331.71 441.18 C 329.99 430.90 324.47 421.86 318.63 413.42 C 316.09 413.12 313.57 412.61 311.02 412.59 C 307.59 413.72 304.63 415.86 301.37 417.35 C 297.87 418.79 293.96 417.50 290.39 418.50 C 287.46 419.82 284.88 421.94 281.73 422.79 C 279.88 423.35 277.88 423.41 276.12 424.23 C 272.84 427.16 271.31 431.67 271.12 435.99 C 270.80 440.99 273.96 445.26 274.92 450.01 C 274.21 453.65 270.33 455.77 269.32 459.35 C 268.28 463.13 268.30 467.10 268.59 470.98 C 272.72 473.09 276.77 475.53 281.30 476.71 C 285.41 477.73 289.58 476.43 293.52 475.31 C 295.71 474.75 296.95 472.70 298.45 471.20 C 304.00 471.09 309.41 473.27 314.96 472.30 C 318.69 471.67 322.54 470.98 325.81 468.95 C 325.59 470.93 325.93 473.07 324.91 474.88 C 322.21 480.52 322.92 486.97 322.05 493.01 C 321.47 502.73 319.39 512.29 318.63 521.98 C 319.84 524.95 322.34 527.24 323.51 530.28 C 319.59 528.58 313.61 526.44 314.27 521.12 C 316.54 505.17 319.46 489.13 318.96 472.98 C 312.18 471.58 305.94 475.11 299.43 476.22 C 298.36 478.29 296.95 480.34 294.40 480.49 C 291.84 483.29 287.21 485.78 287.84 490.16 C 288.48 500.44 288.36 510.74 288.60 521.03 C 288.71 522.44 288.43 524.20 289.80 525.14 C 292.21 527.35 294.79 529.39 297.02 531.79 C 296.50 531.88 295.46 532.05 294.93 532.14 C 291.71 530.11 287.06 530.63 284.71 527.27 C 284.31 525.56 284.39 523.78 284.37 522.05 C 284.67 512.16 283.45 502.32 283.20 492.45 C 271.80 501.04 263.23 512.86 251.47 520.99 C 252.57 518.13 254.94 516.13 256.85 513.84 C 253.00 516.59 249.19 519.60 246.52 523.56 C 245.29 525.48 243.11 526.35 241.24 527.49 C 241.07 528.10 240.72 529.34 240.55 529.95 C 241.04 529.85 242.01 529.66 242.50 529.56 C 242.17 532.87 242.51 536.19 243.01 539.47 C 242.66 538.89 241.95 537.74 241.60 537.17 C 241.11 537.87 240.61 538.57 240.11 539.27 C 238.61 534.96 237.86 530.26 239.69 525.92 C 239.18 524.94 237.71 523.95 238.82 522.87 C 241.53 521.88 244.68 521.88 246.98 519.97 C 251.96 515.53 256.34 510.16 262.31 507.00 C 260.58 509.11 258.80 511.18 257.17 513.38 C 264.54 507.42 271.71 501.11 278.20 494.19 C 281.41 489.94 285.67 486.43 287.97 481.54 C 284.39 484.58 281.91 488.69 278.11 491.51 C 279.08 487.22 283.14 484.66 285.22 480.92 C 278.21 479.40 271.81 476.07 265.13 473.59 C 265.19 469.08 264.80 464.59 264.27 460.13 C 265.23 456.68 267.33 453.51 267.20 449.79 C 265.40 453.16 263.70 456.60 262.36 460.18 C 262.11 463.52 262.94 466.84 262.95 470.19 C 262.25 467.88 261.78 465.45 260.31 463.47 C 259.99 468.75 261.12 473.95 261.58 479.19 C 259.05 473.14 260.09 466.18 257.17 460.21 C 249.36 464.49 243.36 471.48 239.24 479.29 C 234.02 487.31 231.99 496.86 226.91 504.95 C 224.49 509.99 220.68 514.12 216.67 517.93 C 218.17 513.99 221.42 511.16 223.51 507.58 C 228.50 499.18 231.38 489.77 236.02 481.20 C 238.33 476.50 241.61 472.37 244.03 467.73 C 240.34 471.03 237.98 475.45 235.35 479.57 C 235.52 474.64 239.36 470.90 242.05 467.08 C 245.08 463.81 246.20 459.21 249.45 456.14 C 249.37 456.67 249.20 457.73 249.11 458.26 C 252.10 454.90 254.58 451.09 256.13 446.86 C 254.04 449.30 252.14 451.90 250.31 454.53 C 251.05 449.60 254.99 446.07 257.64 442.09 C 256.71 439.49 255.20 436.99 255.09 434.18 C 255.62 432.05 256.79 430.17 257.51 428.12 C 256.91 425.67 255.72 423.42 254.84 421.08 C 256.28 422.99 257.67 424.98 259.51 426.55 C 258.65 421.70 255.89 417.52 253.92 413.09 C 252.13 409.51 250.92 405.50 247.94 402.68 C 248.53 405.18 249.42 407.61 250.07 410.11 C 247.09 406.28 245.49 401.18 241.25 398.49 C 239.80 396.91 236.51 401.48 239.57 400.83 C 239.43 402.07 239.31 403.33 239.27 404.58 C 235.05 407.98 232.32 413.10 227.58 415.78 C 230.38 412.35 233.36 409.05 235.71 405.29 C 234.47 405.56 233.23 405.84 232.00 406.13 C 232.84 404.73 233.67 403.34 234.48 401.93 C 230.30 398.81 226.48 395.05 221.80 392.70 C 217.81 391.31 217.07 396.69 215.55 399.20 C 215.30 398.56 214.80 397.29 214.55 396.65 C 212.54 399.67 210.46 402.65 208.21 405.50 C 211.26 395.20 221.44 388.85 224.87 378.73 C 226.89 373.26 224.87 367.52 225.43 361.91 C 225.53 355.45 226.84 349.08 226.91 342.63 C 228.79 335.87 234.53 331.10 240.25 327.49 C 239.40 323.97 235.58 322.75 233.82 319.87 C 233.21 314.62 235.25 308.98 232.42 304.13 C 235.15 300.98 237.89 297.81 240.14 294.29 C 240.76 292.04 241.12 289.67 242.52 287.72 C 243.32 293.65 241.54 299.28 240.95 305.12 C 240.87 302.70 240.76 300.28 240.41 297.89 C 238.95 299.61 237.23 301.23 236.33 303.35 C 235.45 306.52 235.79 309.82 236.13 313.05 C 236.46 315.01 234.93 316.93 235.65 318.84 C 236.76 319.55 237.91 320.22 239.09 320.83 C 239.18 319.11 239.26 317.40 239.33 315.68 C 240.53 319.23 241.98 322.67 243.25 326.19 C 246.24 325.31 249.19 324.30 252.08 323.11 C 248.61 319.77 244.60 315.81 246.02 310.48 C 247.78 315.69 251.16 321.03 256.82 322.47 C 256.65 320.94 256.46 319.42 256.29 317.90 C 259.13 319.04 262.02 320.07 265.00 320.81 C 272.28 315.14 273.75 304.77 271.67 296.28 C 268.94 288.77 260.54 286.32 254.29 282.55 C 252.83 284.18 251.33 285.77 249.89 287.41 C 248.16 287.19 246.42 286.93 244.67 286.95 C 242.97 285.21 240.85 284.02 238.62 283.11 C 241.46 281.52 244.62 279.94 247.87 281.34 C 250.97 277.10 249.85 271.78 250.23 266.90 M 249.14 326.09 C 248.03 329.13 244.66 328.66 242.51 330.37 C 240.37 329.67 238.29 330.47 236.44 331.56 C 240.96 331.86 245.98 332.23 249.35 335.67 C 253.63 339.89 254.57 346.46 252.85 352.06 C 253.04 360.85 253.13 370.74 247.60 378.11 C 247.97 375.82 248.79 373.64 249.07 371.35 C 247.62 373.74 246.57 376.37 245.76 379.04 C 245.52 382.58 245.99 386.11 246.24 389.64 C 246.79 389.45 247.89 389.07 248.43 388.89 C 247.87 390.89 246.47 392.79 246.63 394.92 C 249.64 400.72 252.89 406.41 255.41 412.46 C 257.38 416.75 258.57 421.54 261.76 425.15 C 266.10 421.64 270.93 418.79 275.25 415.28 C 278.58 411.24 284.03 410.30 288.82 408.97 C 294.35 407.84 299.67 405.33 305.43 405.58 C 309.45 405.75 314.07 403.19 317.31 406.62 C 316.23 401.10 311.31 398.05 307.52 394.47 C 306.11 391.09 308.22 387.39 308.50 383.92 C 307.13 381.92 305.72 379.96 304.32 378.00 C 302.42 378.56 300.77 379.67 299.22 380.88 C 300.81 382.27 303.11 383.21 303.26 385.62 C 299.73 387.15 295.83 387.39 292.05 387.02 C 289.42 384.92 292.87 383.51 294.81 383.18 C 294.31 381.50 293.79 379.85 293.21 378.21 C 290.44 378.40 287.65 378.42 284.89 378.66 C 284.86 377.47 284.86 376.28 284.87 375.10 C 283.96 375.46 283.06 375.82 282.15 376.18 C 283.02 370.08 282.70 363.97 282.68 357.85 C 285.03 357.49 287.55 356.84 289.66 358.38 C 292.94 363.01 293.88 368.76 296.15 373.87 C 297.85 375.21 300.30 374.69 302.33 375.04 C 300.33 370.47 297.41 366.23 296.52 361.24 C 296.23 358.35 294.09 356.23 292.85 353.73 C 293.87 353.61 295.91 353.36 296.93 353.24 C 293.33 346.68 287.47 341.92 282.14 336.84 C 278.82 333.79 276.81 329.48 273.04 326.93 C 269.31 325.15 265.03 324.06 261.04 325.60 C 257.04 324.27 253.19 327.21 249.14 326.09 M 285.40 333.51 C 286.91 334.85 288.46 336.14 289.99 337.45 C 294.20 337.09 298.42 336.66 302.49 335.49 C 302.62 334.22 302.75 332.95 302.88 331.69 C 296.95 330.52 291.16 332.31 285.40 333.51 M 234.20 338.18 C 230.17 339.89 230.33 344.96 228.11 348.22 C 229.20 352.61 226.51 357.17 228.84 361.35 C 230.58 368.21 230.73 375.88 227.49 382.34 C 226.11 383.73 223.98 384.14 222.72 385.71 C 221.46 387.21 220.57 388.96 219.61 390.65 C 225.96 392.22 230.51 397.12 235.65 400.81 C 237.43 398.49 239.19 396.14 240.53 393.53 C 241.56 391.48 243.62 389.48 242.78 386.99 C 241.81 383.69 243.51 380.50 244.57 377.45 C 247.74 369.08 248.17 360.02 248.15 351.18 C 249.88 346.83 248.79 341.79 245.66 338.36 C 242.32 336.15 237.61 336.06 234.20 338.18 M 288.12 367.62 C 288.15 369.73 288.37 371.85 288.68 373.95 C 289.25 373.86 290.37 373.67 290.94 373.58 C 290.74 371.30 289.56 369.33 288.12 367.62 M 290.87 367.62 C 291.04 370.14 291.76 372.80 293.95 374.33 C 293.29 371.94 292.40 369.58 290.87 367.62 M 304.85 374.29 C 304.50 375.64 305.03 376.16 306.44 375.84 C 306.78 374.48 306.25 373.96 304.85 374.29 M 316.50 400.10 C 315.83 401.25 317.25 403.33 318.59 402.78 C 319.29 401.64 317.82 399.45 316.50 400.10 M 295.30 408.11 C 294.55 408.10 292.14 409.51 293.81 410.04 C 295.05 409.96 296.21 409.60 297.30 408.96 C 298.71 407.75 295.91 407.65 295.30 408.11 M 296.41 414.48 C 298.89 414.50 301.67 414.46 303.59 412.63 C 305.10 410.60 301.76 409.44 300.18 410.06 C 297.95 410.40 297.16 412.68 296.41 414.48 M 291.45 413.07 C 292.51 413.34 293.58 413.53 294.68 413.66 C 296.42 413.19 295.48 411.35 295.54 410.10 C 294.01 410.86 292.36 411.54 291.45 413.07 M 264.24 426.09 C 264.45 426.90 264.64 427.73 264.82 428.56 C 263.03 430.22 261.16 431.80 259.45 433.54 C 258.57 436.46 260.67 439.21 262.26 441.48 C 262.79 438.09 263.06 434.62 264.30 431.39 C 265.61 428.82 267.84 426.90 269.90 424.94 C 268.17 425.74 266.46 426.58 264.69 427.29 C 266.81 423.94 270.46 421.93 273.66 419.72 C 273.19 422.27 272.55 424.81 271.17 427.04 C 273.01 424.98 274.77 422.76 277.06 421.19 C 280.53 419.81 286.12 419.67 286.43 414.87 C 282.51 415.29 278.98 417.03 275.64 419.00 C 276.85 417.57 278.23 416.29 279.37 414.80 C 273.86 417.82 268.43 421.35 264.24 426.09 M 268.12 438.35 C 269.31 436.00 269.72 433.36 269.86 430.76 C 268.49 433.04 267.70 435.67 268.12 438.35 M 254.05 454.05 C 252.78 455.96 253.52 458.13 254.47 459.99 C 256.70 458.42 259.11 456.93 261.84 458.34 C 264.41 454.27 266.10 448.90 263.45 444.43 C 259.68 446.95 256.02 449.84 254.05 454.05 M 269.22 447.49 C 268.32 448.15 268.39 450.59 269.82 450.40 C 270.73 449.74 270.63 447.28 269.22 447.49 M 266.14 470.80 C 268.41 466.61 266.73 461.47 267.53 456.90 C 265.37 461.21 265.61 466.14 266.14 470.80 M 315.08 521.81 C 315.46 522.21 316.23 523.00 316.61 523.40 C 318.58 507.95 321.56 492.56 321.64 476.93 C 319.06 491.83 317.85 506.94 315.08 521.81 M 285.07 522.08 C 284.78 523.51 285.67 524.61 286.62 525.57 C 286.51 515.31 286.42 505.00 285.51 494.77 C 284.70 503.84 285.17 512.98 285.07 522.08 Z" />
<path fill="#010101" opacity="1.00" d=" M 135.25 274.01 C 139.42 273.05 143.70 273.60 147.88 274.22 C 148.78 277.52 148.87 281.00 148.18 284.35 C 146.99 289.51 149.21 295.02 147.02 300.00 C 142.52 301.10 137.53 302.10 133.22 299.78 C 133.50 297.25 133.63 294.68 134.32 292.22 C 135.55 291.26 137.22 291.97 138.64 291.82 C 138.83 293.51 139.03 295.20 139.27 296.89 C 140.32 296.68 141.38 296.48 142.43 296.27 C 142.57 293.92 142.60 291.57 142.66 289.23 C 140.93 288.02 138.94 287.10 137.56 285.47 C 136.97 283.73 136.42 281.97 135.25 280.52 C 133.77 278.59 135.02 276.13 135.25 274.01 M 139.62 278.13 C 139.23 279.63 138.79 281.12 138.37 282.61 C 139.75 282.62 141.13 282.68 142.51 282.58 C 143.40 281.28 142.97 279.61 143.11 278.14 C 141.95 278.13 140.78 278.13 139.62 278.13 Z" />
<path fill="#010101" opacity="1.00" d=" M 55.14 300.24 C 59.18 298.41 63.10 296.31 66.84 293.93 C 65.02 296.03 63.37 298.30 61.33 300.21 C 56.58 303.85 51.04 306.23 45.57 308.56 C 42.34 309.84 40.39 312.89 37.46 314.64 C 31.83 319.37 27.44 325.44 21.72 330.08 C 26.80 323.14 33.11 317.22 38.73 310.73 C 41.12 308.10 43.38 304.99 47.03 304.10 C 50.70 303.13 53.12 300.09 55.73 297.56 C 55.58 298.23 55.28 299.57 55.14 300.24 Z" />
<path fill="#010101" opacity="1.00" d=" M 57.29 295.26 C 58.71 294.71 59.14 295.15 58.59 296.58 C 57.16 297.11 56.73 296.68 57.29 295.26 Z" />
<path fill="#010101" opacity="1.00" d=" M 96.34 300.99 C 96.81 299.91 98.09 298.79 99.21 299.79 C 102.75 302.21 106.54 304.38 109.54 307.50 C 104.50 307.01 100.09 304.19 96.34 300.99 Z" />
<path fill="#010101" opacity="1.00" d=" M 244.78 300.69 C 245.70 301.50 246.62 302.31 247.54 303.12 C 247.35 304.79 247.14 306.45 246.94 308.12 C 246.60 307.47 245.91 306.19 245.57 305.55 C 244.52 307.77 243.79 310.37 241.50 311.68 C 242.97 308.13 244.34 304.55 244.78 300.69 Z" />
<path fill="#010101" opacity="1.00" d=" M 153.21 318.54 C 154.73 318.55 154.69 322.27 153.21 322.36 C 152.32 321.36 152.37 319.55 153.21 318.54 Z" />
<path fill="#010101" opacity="1.00" d=" M 271.60 361.04 C 273.40 362.32 275.05 363.80 276.67 365.31 C 275.91 368.21 277.74 370.66 278.81 373.21 C 275.72 369.62 273.16 365.52 271.60 361.04 Z" />
<path fill="#010101" opacity="1.00" d=" M 310.08 370.69 C 311.48 369.43 313.53 372.65 312.67 373.89 C 311.73 373.25 310.78 372.64 309.84 372.04 C 309.90 371.70 310.02 371.02 310.08 370.69 Z" />
<path fill="#010101" opacity="1.00" d=" M 311.18 374.72 C 312.16 374.96 312.84 375.60 313.23 376.62 C 311.53 377.07 310.85 376.44 311.18 374.72 Z" />
<path fill="#010101" opacity="1.00" d=" M 313.89 374.89 C 315.06 375.84 316.21 376.83 317.35 377.84 C 318.41 377.51 319.47 377.18 320.54 376.86 C 320.30 378.34 318.95 380.17 320.45 381.42 C 324.01 385.21 329.14 387.52 331.57 392.37 C 333.73 395.64 332.62 399.62 331.61 403.08 C 331.39 400.06 331.60 396.89 330.20 394.12 C 329.68 397.75 329.68 401.42 329.35 405.08 C 328.36 400.63 329.67 395.36 326.30 391.75 C 323.55 388.75 321.17 385.17 317.33 383.45 C 315.44 382.97 315.81 380.87 315.64 379.38 C 315.86 377.62 314.95 376.18 313.89 374.89 M 320.00 383.00 C 320.57 383.57 320.57 383.57 320.00 383.00 C 319.40 382.40 319.40 382.40 320.00 383.00 Z" />
<path fill="#010101" opacity="1.00" d=" M 308.41 378.00 C 312.06 379.94 312.78 384.94 311.07 388.43 C 311.29 384.74 310.16 381.19 308.41 378.00 Z" />
<path fill="#010101" opacity="1.00" d=" M 206.17 407.24 L 207.10 407.20 C 206.81 407.66 206.25 408.56 205.97 409.02 L 205.59 408.18 L 206.17 407.24 Z" />
<path fill="#010101" opacity="1.00" d=" M 204.42 411.68 C 204.48 411.58 204.59 411.38 204.64 411.28 C 204.59 411.38 204.48 411.58 204.42 411.68 Z" />
<path fill="#010101" opacity="1.00" d=" M 201.97 415.34 L 202.43 415.44 C 205.50 416.18 208.94 416.42 211.44 418.59 C 214.18 420.58 215.59 423.77 217.88 426.19 C 220.93 423.06 223.74 419.70 226.84 416.61 C 226.33 419.39 224.11 421.29 222.45 423.41 C 220.71 425.38 219.19 427.69 216.80 428.94 C 210.13 432.49 206.55 439.46 202.31 445.37 C 200.77 447.49 200.18 450.09 199.57 452.60 C 200.43 451.83 201.27 451.05 202.11 450.26 C 201.55 451.77 201.02 453.31 200.51 454.85 C 200.36 454.27 200.08 453.11 199.94 452.53 C 197.60 455.37 194.86 457.84 191.63 459.61 C 188.59 461.06 188.01 464.67 186.19 467.19 C 184.85 469.42 182.05 469.83 180.08 471.28 C 179.81 472.46 179.61 473.64 179.47 474.85 C 178.08 475.27 176.70 475.69 175.31 476.11 C 175.45 473.69 175.68 471.28 175.71 468.87 C 174.58 470.96 174.07 473.60 171.91 474.95 C 170.02 476.52 167.48 476.71 165.17 477.12 C 164.59 473.36 165.69 469.70 167.38 466.38 C 169.32 461.65 173.56 458.57 176.77 454.77 C 177.91 453.33 179.50 452.40 181.32 452.10 C 177.93 455.45 174.60 458.89 171.59 462.59 C 169.21 466.04 167.44 469.89 165.81 473.75 C 167.06 472.95 168.33 472.17 169.61 471.42 C 170.28 468.55 170.76 465.44 173.05 463.35 C 172.86 466.17 172.17 468.92 171.86 471.73 C 174.61 468.59 174.95 463.98 178.24 461.22 C 177.88 463.41 177.30 465.55 176.76 467.71 C 179.85 465.44 182.17 462.39 184.71 459.58 C 187.02 458.64 189.68 458.39 191.62 456.68 C 193.92 454.61 195.96 452.26 198.02 449.96 C 199.20 447.74 199.41 445.04 201.09 443.09 C 205.60 437.67 210.29 432.42 214.81 427.01 C 213.75 423.16 211.24 419.05 206.99 418.32 C 202.97 423.14 200.60 429.08 196.98 434.19 C 198.81 428.89 202.25 424.37 204.43 419.24 C 198.99 424.60 196.33 432.03 192.09 438.29 C 192.51 434.10 195.08 430.65 197.01 427.05 C 199.16 423.38 200.68 419.39 201.97 415.34 M 182.32 465.89 C 182.58 466.50 183.09 467.72 183.34 468.33 C 185.89 466.72 187.01 463.89 186.86 460.95 C 184.85 462.09 183.48 463.94 182.32 465.89 M 179.36 468.09 C 178.29 468.41 176.74 469.57 177.24 470.84 C 178.51 471.57 181.15 468.66 179.36 468.09 Z" />
<path fill="#010101" opacity="1.00" d=" M 274.16 419.20 C 274.79 419.84 274.79 419.84 274.16 419.20 Z" />
<path fill="#010101" opacity="1.00" d=" M 215.20 420.34 C 215.85 420.98 215.85 420.98 215.20 420.34 Z" />
<path fill="#010101" opacity="1.00" d=" M 321.10 428.91 C 324.50 433.90 324.99 440.24 324.68 446.11 C 324.47 440.18 322.88 434.51 321.10 428.91 Z" />
<path fill="#010101" opacity="1.00" d=" M 55.84 452.04 C 55.78 447.17 57.01 442.41 58.88 437.94 C 58.46 440.63 57.84 443.28 57.32 445.95 C 59.41 447.71 62.01 449.14 63.31 451.65 C 64.28 454.35 62.38 457.03 60.30 458.60 C 60.98 457.03 61.80 455.54 62.41 453.95 C 61.71 452.03 59.60 451.20 58.13 449.95 C 57.37 450.65 56.61 451.34 55.84 452.04 Z" />
<path fill="#010101" opacity="1.00" d=" M 182.29 451.35 C 185.39 447.70 188.04 443.69 191.13 440.04 C 189.18 444.47 186.69 448.93 182.29 451.35 Z" />
<path fill="#010101" opacity="1.00" d=" M 191.95 446.88 C 193.19 444.37 195.50 442.64 198.02 441.54 C 196.62 443.93 194.73 446.14 191.95 446.88 Z" />
<path fill="#010101" opacity="1.00" d=" M 197.19 445.18 C 197.84 445.82 197.84 445.82 197.19 445.18 Z" />
<path fill="#010101" opacity="1.00" d=" M 51.18 454.18 C 52.84 454.16 52.54 456.92 51.02 456.92 C 49.29 456.92 49.65 454.22 51.18 454.18 Z" />
<path fill="#010101" opacity="1.00" d=" M 54.76 470.68 C 56.56 467.36 60.35 466.08 63.23 463.92 C 61.46 466.89 59.73 469.88 58.22 472.98 C 58.04 472.21 57.68 470.67 57.50 469.90 C 51.82 478.18 49.89 488.30 45.04 497.00 C 46.46 492.51 48.41 488.21 49.78 483.71 C 51.32 479.32 52.34 474.69 54.76 470.68 Z" />
<path fill="#010101" opacity="1.00" d=" M 153.26 470.35 C 154.06 468.91 156.52 470.20 155.35 471.60 C 154.55 473.11 152.04 471.76 153.26 470.35 Z" />
<path fill="#010101" opacity="1.00" d=" M 156.22 473.39 C 157.95 473.61 156.62 477.14 155.11 476.54 C 154.33 475.50 155.16 473.87 156.22 473.39 Z" />
<path fill="#010101" opacity="1.00" d=" M 52.39 485.37 C 53.71 481.66 54.65 477.69 57.17 474.56 C 54.50 482.49 51.92 490.57 48.04 498.01 C 49.29 493.73 51.00 489.61 52.39 485.37 Z" />
<path fill="#010101" opacity="1.00" d=" M 26.28 483.18 C 27.40 480.39 29.75 478.47 32.22 476.90 C 30.74 482.05 26.77 485.99 25.12 491.03 C 26.41 495.26 30.40 497.93 33.23 501.14 C 29.44 500.19 26.14 498.04 23.02 495.77 C 22.42 496.78 21.83 497.80 21.25 498.83 C 21.72 496.15 21.70 493.43 21.09 490.77 C 24.49 489.81 24.73 485.81 26.28 483.18 Z" />
<path fill="#010101" opacity="1.00" d=" M 230.32 490.45 C 230.26 486.94 231.92 483.47 234.54 481.17 C 233.23 484.30 231.87 487.42 230.32 490.45 Z" />
<path fill="#010101" opacity="1.00" d=" M 223.13 503.12 C 225.48 499.58 226.06 494.81 229.56 492.13 C 226.01 501.38 221.48 510.31 214.96 517.84 C 215.12 518.47 215.44 519.72 215.60 520.34 C 216.33 523.89 215.71 527.62 216.91 531.10 C 218.19 534.62 218.14 538.39 218.07 542.09 C 217.37 540.94 216.68 539.79 215.97 538.66 C 215.76 540.12 215.57 541.59 215.39 543.07 C 214.16 535.93 211.94 528.75 212.72 521.45 C 213.57 514.08 220.09 509.48 223.13 503.12 Z" />
<path fill="#010101" opacity="1.00" d=" M 275.22 494.27 C 274.83 492.47 275.52 491.84 277.29 492.37 C 276.83 493.25 276.14 493.88 275.22 494.27 Z" />
<path fill="#010101" opacity="1.00" d=" M 272.22 497.23 C 271.83 495.46 272.52 494.79 274.27 495.22 C 273.85 496.15 273.16 496.82 272.22 497.23 Z" />
<path fill="#010101" opacity="1.00" d=" M 269.20 500.21 C 268.81 498.45 269.49 497.77 271.25 498.19 C 270.82 499.12 270.14 499.80 269.20 500.21 Z" />
<path fill="#010101" opacity="1.00" d=" M 266.16 503.21 C 265.77 501.45 266.46 500.77 268.21 501.19 C 267.79 502.12 267.11 502.80 266.16 503.21 Z" />
<path fill="#010101" opacity="1.00" d=" M 263.21 506.18 C 262.76 504.41 263.42 503.73 265.19 504.14 C 264.79 505.06 264.13 505.74 263.21 506.18 Z" />
<path fill="#010101" opacity="1.00" d=" M 342.48 506.36 C 344.36 507.29 346.29 508.16 348.06 509.30 C 349.89 510.50 350.23 512.85 351.46 514.53 C 353.33 517.17 355.34 519.71 357.26 522.32 C 356.93 520.42 356.58 518.53 356.26 516.64 C 357.21 518.25 358.14 519.88 359.00 521.55 L 359.00 526.63 C 358.50 525.19 357.97 523.78 357.43 522.38 C 356.99 525.35 356.57 528.33 355.88 531.25 C 355.59 527.50 355.77 523.51 353.96 520.09 C 351.18 514.65 344.93 512.06 342.48 506.36 Z" />
<path fill="#010101" opacity="1.00" d=" M 85.18 571.17 C 85.31 562.14 86.26 552.67 90.71 544.65 C 90.90 553.86 92.14 562.98 93.61 572.06 C 89.30 571.00 89.05 565.94 87.48 562.57 C 86.45 565.36 85.90 568.29 85.18 571.17 Z" />
<path fill="#010101" opacity="1.00" d=" M 64.35 562.35 C 67.60 557.69 69.99 552.52 73.19 547.84 C 73.03 553.60 68.28 557.43 65.69 562.13 C 66.60 565.52 69.42 568.92 67.00 572.37 C 64.35 570.04 61.77 565.55 64.35 562.35 Z" />
<path fill="#010101" opacity="1.00" d=" M 337.41 550.77 C 339.23 553.95 338.82 557.67 338.58 561.17 C 337.44 557.83 337.06 554.28 337.41 550.77 Z" />
<path fill="#010101" opacity="1.00" d=" M 217.28 567.68 C 218.80 567.71 218.85 571.43 217.27 571.40 C 216.40 570.42 216.40 568.63 217.28 567.68 Z" />
</g>
<g id="#ffffffff">
<path fill="#ffffff" opacity="1.00" d=" M 196.17 51.48 C 199.14 53.01 201.83 55.03 204.24 57.34 C 201.06 58.66 197.83 59.91 194.49 60.75 C 193.79 57.51 194.93 54.42 196.17 51.48 Z" />
<path fill="#ffffff" opacity="1.00" d=" M 195.70 63.13 C 198.44 61.73 201.19 60.32 204.08 59.24 C 207.20 62.45 205.65 67.56 204.68 71.40 C 200.41 70.59 196.72 67.42 195.70 63.13 Z" />
<path fill="#ffffff" opacity="1.00" d=" M 168.43 78.29 C 168.92 78.02 169.90 77.49 170.40 77.22 C 171.14 77.90 171.89 78.58 172.64 79.27 C 173.73 80.27 174.81 81.28 175.80 82.38 C 176.40 83.23 177.22 83.77 178.25 83.98 L 178.84 84.44 C 179.68 85.27 180.47 86.16 181.25 87.05 C 179.44 86.75 177.63 86.41 175.87 85.91 C 175.32 85.56 174.24 84.88 173.70 84.53 C 173.61 84.47 173.43 84.33 173.35 84.26 C 173.05 83.98 172.47 83.42 172.18 83.14 C 171.79 82.17 171.16 81.41 170.28 80.86 C 169.82 80.22 168.89 78.93 168.43 78.29 Z" />
<path fill="#ffffff" opacity="1.00" d=" M 49.07 79.47 L 49.85 79.41 C 63.58 78.80 77.36 78.57 91.03 80.35 L 91.80 80.48 C 92.90 80.76 94.01 81.04 95.11 81.32 C 93.37 81.57 91.43 81.34 89.99 82.53 C 94.11 83.38 98.31 83.98 102.26 85.50 C 99.87 87.14 97.28 88.43 94.74 89.81 C 90.69 92.75 89.84 97.96 88.40 102.40 C 85.91 106.24 82.54 109.41 79.66 112.94 C 78.73 108.01 77.64 103.08 77.77 98.04 C 79.45 92.24 84.50 88.42 88.68 84.42 C 82.30 86.34 77.02 91.87 74.97 98.21 C 74.22 102.30 76.00 106.31 76.52 110.34 C 77.38 114.04 75.35 117.54 74.85 121.15 C 71.89 117.59 66.79 115.10 66.75 109.87 C 69.10 111.57 71.38 113.66 74.47 113.69 C 70.68 109.94 68.15 105.09 67.10 99.87 C 66.45 96.99 67.90 94.25 68.78 91.59 C 68.13 90.85 67.47 90.11 66.83 89.36 C 68.37 87.30 69.87 85.20 71.24 83.02 C 77.17 82.49 83.13 82.47 89.07 82.66 C 89.01 82.20 88.89 81.29 88.83 80.83 C 78.56 80.67 68.29 79.82 58.02 80.42 C 51.26 80.39 44.57 81.57 37.82 81.70 C 41.49 80.57 45.30 80.10 49.07 79.47 Z" />
<path fill="#ffffff" opacity="1.00" d=" M 36.24 85.35 C 46.98 81.97 58.32 83.44 69.37 83.04 C 67.39 85.66 65.59 88.41 63.66 91.06 C 61.49 91.49 59.24 91.42 57.04 91.23 C 52.71 90.99 52.60 83.81 47.69 84.83 C 48.50 86.78 49.57 88.60 50.47 90.50 C 45.53 90.74 40.07 91.18 35.92 87.92 C 34.60 88.29 33.28 88.66 31.95 89.00 C 33.28 87.69 34.26 85.75 36.24 85.35 Z" />
<path fill="#ffffff" opacity="1.00" d=" M 13.78 89.13 C 15.70 88.31 17.58 86.76 19.79 87.22 C 21.74 87.72 23.17 89.25 24.79 90.36 L 23.74 90.41 C 20.42 90.04 17.10 89.59 13.78 89.13 Z" />
<path fill="#ffffff" opacity="1.00" d=" M 182.23 86.97 C 185.28 85.50 182.41 90.28 182.23 86.97 Z" />
<path fill="#ffffff" opacity="1.00" d=" M 28.51 89.33 C 31.37 89.91 34.39 90.36 36.88 92.00 C 33.91 92.16 30.67 91.52 28.51 89.33 Z" />
<path fill="#ffffff" opacity="1.00" d=" M 41.91 92.28 C 44.32 91.80 46.79 91.68 49.24 91.78 C 49.46 94.26 50.85 96.51 50.69 99.03 C 50.59 101.56 50.22 104.08 49.88 106.59 C 47.87 104.61 47.00 101.99 46.71 99.25 C 46.61 97.33 44.33 97.56 43.07 96.89 C 42.70 95.94 42.39 94.99 42.12 94.01 C 43.76 93.79 45.40 93.68 47.04 93.53 C 45.28 93.36 43.43 93.33 41.91 92.28 Z" />
<path fill="#ffffff" opacity="1.00" d=" M 55.85 91.85 C 58.30 91.86 60.74 91.86 63.18 91.79 C 61.73 98.99 63.74 106.71 60.71 113.59 C 60.37 113.65 59.70 113.76 59.36 113.81 C 55.14 107.36 53.59 99.31 55.85 91.85 Z" />
<path fill="#ffffff" opacity="1.00" d=" M 32.23 92.68 C 34.83 92.75 37.69 92.41 39.92 94.07 C 41.13 99.74 40.83 105.67 40.92 111.45 C 35.85 106.37 35.97 98.57 32.23 92.68 Z" />
<path fill="#ffffff" opacity="1.00" d=" M 45.01 103.54 C 47.71 107.36 50.63 111.50 50.74 116.37 C 51.03 120.43 52.12 124.36 53.26 128.25 C 52.56 128.42 51.16 128.77 50.46 128.94 L 50.18 128.19 C 49.16 125.06 46.65 122.73 45.44 119.70 C 43.97 114.74 42.11 109.67 43.02 104.40 C 43.52 105.15 44.04 105.88 44.57 106.61 C 44.68 105.84 44.90 104.30 45.01 103.54 Z" />
<path fill="#ffffff" opacity="1.00" d=" M 52.37 104.47 C 53.81 105.63 53.46 108.95 52.83 110.69 C 51.29 109.60 51.84 106.22 52.37 104.47 Z" />
<path fill="#ffffff" opacity="1.00" d=" M 80.27 115.09 C 82.55 111.56 85.79 108.75 88.81 105.87 C 89.69 112.22 88.18 119.39 82.70 123.32 C 81.87 120.58 80.87 117.89 80.27 115.09 Z" />
<path fill="#ffffff" opacity="1.00" d=" M 54.29 109.74 C 56.23 111.84 57.44 114.43 58.42 117.08 C 61.27 116.83 61.70 112.89 63.48 111.01 C 64.67 116.74 65.25 122.54 65.22 128.39 C 66.43 124.93 67.44 121.41 68.83 118.02 C 71.12 120.06 72.20 122.93 72.94 125.83 C 71.03 127.28 68.49 128.24 67.66 130.69 C 66.56 133.18 64.39 135.34 61.56 135.58 C 62.24 134.33 63.07 133.17 63.93 132.05 C 61.03 124.43 53.66 118.53 54.29 109.74 Z" />
<path fill="#ffffff" opacity="1.00" d=" M 75.42 129.22 C 75.73 125.39 75.78 121.33 78.11 118.06 C 79.30 120.34 81.28 122.74 80.64 125.49 C 79.12 127.01 77.32 128.22 75.42 129.22 Z" />
<path fill="#ffffff" opacity="1.00" d=" M 52.71 119.87 C 54.27 121.37 55.90 122.81 57.36 124.42 C 54.76 124.27 53.12 122.32 52.71 119.87 Z" />
<path fill="#ffffff" opacity="1.00" d=" M 247.05 120.20 C 248.43 119.94 248.97 120.49 248.67 121.87 C 247.27 122.12 246.74 121.56 247.05 120.20 Z" />
<path fill="#ffffff" opacity="1.00" d=" M 272.86 125.64 C 276.04 125.15 275.90 128.93 276.60 131.04 C 274.14 130.25 272.72 128.27 272.86 125.64 Z" />
<path fill="#ffffff" opacity="1.00" d=" M 57.88 126.48 C 59.84 127.22 60.77 128.87 60.82 130.91 C 58.54 130.60 58.22 128.37 57.88 126.48 Z" />
<path fill="#ffffff" opacity="1.00" d=" M 64.76 136.90 C 66.76 134.04 69.37 131.62 70.93 128.44 C 71.70 128.40 73.24 128.31 74.01 128.27 C 74.11 129.91 74.23 131.55 74.36 133.20 C 72.01 135.44 69.69 137.73 67.15 139.77 C 66.32 138.85 65.52 137.89 64.76 136.90 Z" />
<path fill="#ffffff" opacity="1.00" d=" M 78.06 130.01 C 78.59 129.40 78.59 129.40 78.06 130.01 Z" />
<path fill="#ffffff" opacity="1.00" d=" M 50.17 132.40 C 51.85 131.48 53.45 130.45 55.10 129.49 C 55.50 130.93 56.36 132.34 56.18 133.88 C 54.79 135.52 53.08 136.86 51.62 138.43 C 50.45 136.77 49.37 135.05 48.48 133.22 C 48.90 133.02 49.75 132.60 50.17 132.40 Z" />
<path fill="#ffffff" opacity="1.00" d=" M 75.59 132.02 C 74.92 130.76 76.95 129.09 78.06 130.01 C 78.77 131.29 76.71 132.97 75.59 132.02 Z" />
<path fill="#ffffff" opacity="1.00" d=" M 270.46 130.72 C 273.84 130.37 275.61 133.84 277.34 136.16 C 274.73 134.79 272.35 132.98 270.46 130.72 Z" />
<path fill="#ffffff" opacity="1.00" d=" M 61.31 132.13 C 61.98 132.79 61.98 132.79 61.31 132.13 Z" />
<path fill="#ffffff" opacity="1.00" d=" M 69.08 140.29 C 71.33 138.11 73.61 135.95 76.00 133.93 C 75.22 137.01 75.24 141.09 72.05 142.79 C 70.97 142.06 69.98 141.23 69.08 140.29 Z" />
<path fill="#ffffff" opacity="1.00" d=" M 57.24 135.22 C 59.09 135.72 60.92 136.56 61.32 138.64 C 63.02 139.14 64.52 140.07 65.92 141.13 C 64.58 142.20 62.60 145.47 60.91 143.12 C 59.25 140.73 56.20 138.48 57.24 135.22 Z" />
<path fill="#ffffff" opacity="1.00" d=" M 297.39 138.53 C 297.91 140.11 298.32 141.74 298.54 143.40 C 298.52 143.88 298.47 144.83 298.45 145.31 C 296.66 143.46 297.19 140.83 297.39 138.53 Z" />
<path fill="#ffffff" opacity="1.00" d=" M 53.43 140.06 C 54.85 139.79 55.40 140.32 55.08 141.66 C 53.66 141.94 53.11 141.40 53.43 140.06 Z" />
<path fill="#ffffff" opacity="1.00" d=" M 66.16 142.20 C 67.91 142.61 69.66 143.04 71.40 143.48 C 70.07 145.21 68.09 148.29 65.59 146.47 C 62.84 145.84 64.93 143.28 66.16 142.20 Z" />
<path fill="#ffffff" opacity="1.00" d=" M 55.78 142.95 C 57.57 143.84 59.15 145.06 60.56 146.48 C 62.47 147.26 64.42 147.90 66.30 148.75 C 65.23 149.65 64.15 150.53 63.05 151.40 C 61.83 149.42 60.35 147.34 57.88 146.98 C 56.00 146.62 56.17 144.37 55.78 142.95 Z" />
<path fill="#ffffff" opacity="1.00" d=" M 279.08 145.22 C 282.41 145.45 277.46 148.09 279.08 145.22 Z" />
<path fill="#ffffff" opacity="1.00" d=" M 58.23 151.41 C 59.15 150.36 61.63 151.50 60.69 152.90 C 59.76 154.00 57.32 152.81 58.23 151.41 Z" />
<path fill="#ffffff" opacity="1.00" d=" M 192.69 155.58 C 195.34 154.47 198.21 153.98 200.99 153.32 C 200.54 157.68 200.27 162.19 198.19 166.15 C 196.17 165.27 194.25 163.92 191.98 163.87 C 190.66 163.69 189.06 164.01 188.28 162.64 C 188.89 159.85 190.77 157.60 192.69 155.58 Z" />
<path fill="#ffffff" opacity="1.00" d=" M 55.39 155.00 C 56.59 155.34 57.78 155.70 58.97 156.07 C 57.58 158.22 56.07 160.39 53.67 161.49 C 53.77 159.22 54.42 157.04 55.39 155.00 Z" />
<path fill="#ffffff" opacity="1.00" d=" M 71.07 156.08 C 72.88 156.20 74.70 156.32 76.52 156.48 C 75.67 158.54 73.59 158.99 71.58 158.98 C 71.45 158.25 71.19 156.80 71.07 156.08 Z" />
<path fill="#ffffff" opacity="1.00" d=" M 60.73 156.48 C 62.24 156.81 63.75 157.17 65.25 157.56 C 63.89 158.43 62.80 161.15 60.85 160.22 C 60.82 159.28 60.76 157.42 60.73 156.48 Z" />
<path fill="#ffffff" opacity="1.00" d=" M 181.75 176.77 C 184.23 173.54 185.17 168.81 189.23 167.06 C 191.77 165.67 194.39 167.62 196.38 169.10 C 194.44 176.85 193.58 184.94 190.50 192.37 C 189.08 196.56 184.96 198.97 184.14 203.46 C 183.67 198.62 183.02 193.76 183.43 188.89 C 183.10 188.87 182.44 188.83 182.11 188.81 C 182.18 187.05 182.82 185.36 182.96 183.61 C 181.66 185.73 180.86 188.10 179.94 190.40 C 180.43 190.30 181.40 190.12 181.88 190.02 L 182.44 190.37 C 181.82 196.23 183.26 202.10 182.53 207.95 C 175.31 222.57 167.40 237.06 156.47 249.28 C 156.11 248.78 155.41 247.78 155.05 247.27 C 154.08 249.04 153.17 250.85 152.21 252.63 C 151.99 250.03 151.82 247.42 151.51 244.82 C 150.67 249.41 150.89 254.08 151.09 258.71 C 148.03 255.60 144.68 252.80 140.77 250.80 C 143.30 247.88 147.03 246.48 149.79 243.80 C 152.30 241.47 156.51 240.01 156.68 236.04 C 155.52 232.78 153.71 228.97 155.60 225.63 C 159.63 218.18 162.94 210.11 168.91 203.93 C 171.32 201.50 172.15 197.99 174.53 195.55 C 176.09 194.00 177.37 192.20 178.41 190.28 C 177.23 190.95 176.06 191.65 174.88 192.34 C 173.71 186.12 178.83 181.63 181.75 176.77 Z" />
<path fill="#ffffff" opacity="1.00" d=" M 122.84 204.86 C 125.58 203.72 128.35 202.65 131.12 201.57 C 130.22 203.22 129.18 204.81 127.86 206.17 C 127.29 206.34 126.15 206.67 125.58 206.84 C 123.81 207.26 122.14 208.18 121.04 209.65 C 120.80 209.92 120.31 210.46 120.07 210.74 C 118.53 211.86 116.79 212.65 114.91 213.02 C 117.40 210.19 119.20 206.39 122.84 204.86 Z" />
<path fill="#ffffff" opacity="1.00" d=" M 272.18 202.83 C 273.46 206.41 273.62 210.24 274.30 213.95 L 274.72 213.83 C 275.32 212.10 275.21 209.91 277.33 209.27 C 277.15 211.44 277.20 213.96 275.01 215.14 C 274.46 216.02 274.01 216.95 273.53 217.88 C 273.06 212.86 272.48 207.85 272.18 202.83 Z" />
<path fill="#ffffff" opacity="1.00" d=" M 312.18 204.41 C 313.51 204.58 313.73 205.29 312.86 206.53 C 311.53 206.34 311.30 205.63 312.18 204.41 Z" />
<path fill="#ffffff" opacity="1.00" d=" M 148.73 218.76 C 150.35 219.48 151.91 220.33 153.47 221.18 C 153.00 222.60 152.50 224.00 151.96 225.39 C 150.55 223.36 149.04 221.29 148.73 218.76 Z" />
<path fill="#ffffff" opacity="1.00" d=" M 273.24 221.70 C 277.74 227.06 276.89 234.91 274.59 241.03 C 272.23 234.99 272.83 228.09 273.24 221.70 Z" />
<path fill="#ffffff" opacity="1.00" d=" M 129.84 224.62 C 130.74 224.62 131.64 224.61 132.54 224.59 C 132.78 226.26 133.13 227.91 133.48 229.56 C 132.72 228.97 131.96 228.38 131.20 227.79 C 130.73 226.74 130.29 225.68 129.84 224.62 Z" />
<path fill="#ffffff" opacity="1.00" d=" M 278.08 231.31 C 281.42 231.43 276.54 234.22 278.08 231.31 Z" />
<path fill="#ffffff" opacity="1.00" d=" M 283.67 235.31 C 285.34 235.17 287.02 235.04 288.71 234.94 C 288.30 236.97 287.90 239.00 287.48 241.03 C 286.03 239.24 284.72 237.35 283.67 235.31 Z" />
<path fill="#ffffff" opacity="1.00" d=" M 118.47 242.34 C 120.19 242.64 118.59 246.19 117.20 245.89 C 116.71 244.69 117.48 243.08 118.47 242.34 Z" />
<path fill="#ffffff" opacity="1.00" d=" M 108.01 249.14 C 110.69 245.79 114.83 247.50 118.05 248.92 C 123.29 252.30 125.65 258.71 130.95 262.05 C 133.80 263.91 137.53 263.91 140.61 262.63 C 142.63 259.75 140.97 256.25 140.06 253.32 C 144.64 255.04 149.62 258.47 150.06 263.79 C 150.41 267.08 151.27 270.25 152.76 273.21 C 153.70 280.64 154.37 288.24 152.98 295.66 C 153.48 295.49 154.47 295.15 154.96 294.97 C 155.81 300.14 155.65 305.58 153.50 310.43 C 152.48 313.34 149.94 315.73 150.07 318.99 C 149.79 326.85 148.02 334.93 143.41 341.44 C 140.11 344.37 135.10 344.35 132.04 341.08 C 130.45 341.37 128.88 342.19 127.25 341.91 C 123.25 340.02 119.38 337.92 115.74 335.40 C 112.02 335.97 108.69 333.87 105.02 333.81 C 100.36 333.14 95.75 334.53 91.09 334.42 C 89.70 333.55 88.20 333.31 86.61 333.76 C 86.67 333.10 86.80 331.76 86.86 331.09 C 90.95 329.11 92.61 324.72 95.39 321.44 C 99.00 319.40 101.99 316.48 105.30 313.99 C 102.78 314.51 100.35 315.37 97.91 316.17 C 96.68 313.60 96.81 310.81 97.19 308.08 C 96.27 305.89 94.74 304.04 93.74 301.89 C 95.35 299.42 96.06 296.83 95.22 293.92 C 101.56 296.47 108.73 297.65 115.20 294.80 C 109.53 294.35 102.98 294.79 98.75 290.22 C 102.52 287.58 106.75 285.68 110.45 282.93 C 108.21 283.05 105.99 283.39 103.76 283.67 C 111.71 276.14 116.72 265.79 117.90 254.92 C 117.95 253.16 116.75 251.67 115.62 250.45 C 113.79 248.15 110.48 249.72 108.01 249.14 M 135.25 274.01 C 135.02 276.13 133.77 278.59 135.25 280.52 C 136.42 281.97 136.97 283.73 137.56 285.47 C 138.94 287.10 140.93 288.02 142.66 289.23 C 142.60 291.57 142.57 293.92 142.43 296.27 C 141.38 296.48 140.32 296.68 139.27 296.89 C 139.03 295.20 138.83 293.51 138.64 291.82 C 137.22 291.97 135.55 291.26 134.32 292.22 C 133.63 294.68 133.50 297.25 133.22 299.78 C 137.53 302.10 142.52 301.10 147.02 300.00 C 149.21 295.02 146.99 289.51 148.18 284.35 C 148.87 281.00 148.78 277.52 147.88 274.22 C 143.70 273.60 139.42 273.05 135.25 274.01 M 96.34 300.99 C 100.09 304.19 104.50 307.01 109.54 307.50 C 106.54 304.38 102.75 302.21 99.21 299.79 C 98.09 298.79 96.81 299.91 96.34 300.99 Z" />
<path fill="#ffffff" opacity="1.00" d=" M 98.75 254.51 C 100.26 253.04 102.24 252.23 104.36 252.48 C 103.93 252.87 103.07 253.66 102.63 254.05 C 101.36 254.32 100.05 254.43 98.75 254.51 Z" />
<path fill="#ffffff" opacity="1.00" d=" M 110.56 251.03 C 112.36 251.97 115.05 252.65 115.04 255.18 C 115.18 262.93 112.70 270.79 108.11 277.05 C 105.07 280.96 101.21 285.03 95.90 285.17 C 98.38 282.15 101.95 279.84 103.36 276.09 C 104.00 274.32 105.01 272.73 106.01 271.15 C 110.11 265.32 111.54 258.04 110.56 251.03 Z" />
<path fill="#ffffff" opacity="1.00" d=" M 320.08 261.13 C 321.58 261.44 320.44 264.01 319.53 264.55 C 317.92 264.22 318.82 261.49 320.08 261.13 Z" />
<path fill="#ffffff" opacity="1.00" d=" M 289.11 268.76 C 289.72 266.92 289.57 262.65 292.56 263.63 C 294.94 264.31 294.18 267.33 294.29 269.19 C 292.55 269.08 290.83 268.95 289.11 268.76 Z" />
<path fill="#ffffff" opacity="1.00" d=" M 288.21 274.79 C 289.89 274.60 291.57 274.47 293.27 274.42 C 293.23 277.11 292.73 279.75 291.67 282.23 C 290.27 281.68 288.39 281.56 287.83 279.91 C 287.70 278.19 288.03 276.48 288.21 274.79 Z" />
<path fill="#ffffff" opacity="1.00" d=" M 139.62 278.13 C 140.78 278.13 141.95 278.13 143.11 278.14 C 142.97 279.61 143.40 281.28 142.51 282.58 C 141.13 282.68 139.75 282.62 138.37 282.61 C 138.79 281.12 139.23 279.63 139.62 278.13 Z" />
<path fill="#ffffff" opacity="1.00" d=" M 249.89 287.41 C 251.33 285.77 252.83 284.18 254.29 282.55 C 260.54 286.32 268.94 288.77 271.67 296.28 C 273.75 304.77 272.28 315.14 265.00 320.81 C 262.02 320.07 259.13 319.04 256.29 317.90 C 256.46 319.42 256.65 320.94 256.82 322.47 C 251.16 321.03 247.78 315.69 246.02 310.48 C 244.60 315.81 248.61 319.77 252.08 323.11 C 249.19 324.30 246.24 325.31 243.25 326.19 C 241.98 322.67 240.53 319.23 239.33 315.68 C 239.26 317.40 239.18 319.11 239.09 320.83 C 237.91 320.22 236.76 319.55 235.65 318.84 C 234.93 316.93 236.46 315.01 236.13 313.05 C 235.79 309.82 235.45 306.52 236.33 303.35 C 237.23 301.23 238.95 299.61 240.41 297.89 C 240.76 300.28 240.87 302.70 240.95 305.12 C 241.54 299.28 243.32 293.65 242.52 287.72 C 243.06 287.53 244.13 287.15 244.67 286.95 C 246.42 286.93 248.16 287.19 249.89 287.41 M 244.78 300.69 C 244.34 304.55 242.97 308.13 241.50 311.68 C 243.79 310.37 244.52 307.77 245.57 305.55 C 245.91 306.19 246.60 307.47 246.94 308.12 C 247.14 306.45 247.35 304.79 247.54 303.12 C 246.62 302.31 245.70 301.50 244.78 300.69 Z" />
<path fill="#ffffff" opacity="1.00" d=" M 249.14 326.09 C 253.19 327.21 257.04 324.27 261.04 325.60 C 265.03 324.06 269.31 325.15 273.04 326.93 C 276.81 329.48 278.82 333.79 282.14 336.84 C 287.47 341.92 293.33 346.68 296.93 353.24 C 295.91 353.36 293.87 353.61 292.85 353.73 C 294.09 356.23 296.23 358.35 296.52 361.24 C 297.41 366.23 300.33 370.47 302.33 375.04 C 300.30 374.69 297.85 375.21 296.15 373.87 C 293.88 368.76 292.94 363.01 289.66 358.38 C 287.55 356.84 285.03 357.49 282.68 357.85 C 282.70 363.97 283.02 370.08 282.15 376.18 C 283.06 375.82 283.96 375.46 284.87 375.10 C 284.86 376.28 284.86 377.47 284.89 378.66 C 287.65 378.42 290.44 378.40 293.21 378.21 C 293.79 379.85 294.31 381.50 294.81 383.18 C 292.87 383.51 289.42 384.92 292.05 387.02 C 295.83 387.39 299.73 387.15 303.26 385.62 C 303.11 383.21 300.81 382.27 299.22 380.88 C 300.77 379.67 302.42 378.56 304.32 378.00 C 305.72 379.96 307.13 381.92 308.50 383.92 C 308.22 387.39 306.11 391.09 307.52 394.47 C 311.31 398.05 316.23 401.10 317.31 406.62 C 314.07 403.19 309.45 405.75 305.43 405.58 C 299.67 405.33 294.35 407.84 288.82 408.97 C 284.03 410.30 278.58 411.24 275.25 415.28 C 270.93 418.79 266.10 421.64 261.76 425.15 C 258.57 421.54 257.38 416.75 255.41 412.46 C 252.89 406.41 249.64 400.72 246.63 394.92 C 246.47 392.79 247.87 390.89 248.43 388.89 C 247.89 389.07 246.79 389.45 246.24 389.64 C 245.99 386.11 245.52 382.58 245.76 379.04 C 246.57 376.37 247.62 373.74 249.07 371.35 C 248.79 373.64 247.97 375.82 247.60 378.11 C 253.13 370.74 253.04 360.85 252.85 352.06 C 254.57 346.46 253.63 339.89 249.35 335.67 C 245.98 332.23 240.96 331.86 236.44 331.56 C 238.29 330.47 240.37 329.67 242.51 330.37 C 244.66 328.66 248.03 329.13 249.14 326.09 M 271.60 361.04 C 273.16 365.52 275.72 369.62 278.81 373.21 C 277.74 370.66 275.91 368.21 276.67 365.31 C 275.05 363.80 273.40 362.32 271.60 361.04 Z" />
<path fill="#ffffff" opacity="1.00" d=" M 285.40 333.51 C 291.16 332.31 296.95 330.52 302.88 331.69 C 302.75 332.95 302.62 334.22 302.49 335.49 C 298.42 336.66 294.20 337.09 289.99 337.45 C 288.46 336.14 286.91 334.85 285.40 333.51 Z" />
<path fill="#ffffff" opacity="1.00" d=" M 96.36 337.93 C 97.88 337.32 99.30 336.50 100.79 335.82 C 98.24 340.47 95.74 345.16 94.17 350.25 C 93.35 353.75 89.94 355.77 89.06 359.23 C 87.85 363.05 88.46 367.49 85.75 370.76 C 82.99 374.25 81.95 378.59 80.38 382.66 C 79.91 374.22 78.64 365.60 80.47 357.24 C 79.52 358.05 78.56 358.86 77.58 359.64 C 79.72 357.03 82.33 354.65 85.50 353.39 C 86.29 350.59 86.48 347.58 87.91 345.01 C 89.49 344.08 91.39 343.89 93.10 343.27 C 91.30 342.12 89.50 340.98 87.73 339.80 C 88.24 339.83 89.25 339.88 89.76 339.91 C 90.91 338.86 92.09 337.85 93.32 336.90 C 93.27 339.15 93.16 341.43 93.78 343.63 C 96.17 342.55 97.73 340.45 96.36 337.93 Z" />
<path fill="#ffffff" opacity="1.00" d=" M 101.98 341.52 C 102.80 339.07 104.77 337.41 107.16 336.52 C 106.79 338.59 104.32 340.90 106.14 342.83 C 109.70 342.25 112.57 337.07 116.53 340.00 C 115.77 341.42 115.21 343.04 113.95 344.14 C 109.85 343.87 105.28 344.49 101.98 341.52 Z" />
<path fill="#ffffff" opacity="1.00" d=" M 234.20 338.18 C 237.61 336.06 242.32 336.15 245.66 338.36 C 248.79 341.79 249.88 346.83 248.15 351.18 C 248.17 360.02 247.74 369.08 244.57 377.45 C 243.51 380.50 241.81 383.69 242.78 386.99 C 243.62 389.48 241.56 391.48 240.53 393.53 C 239.19 396.14 237.43 398.49 235.65 400.81 C 230.51 397.12 225.96 392.22 219.61 390.65 C 220.57 388.96 221.46 387.21 222.72 385.71 C 223.98 384.14 226.11 383.73 227.49 382.34 C 230.73 375.88 230.58 368.21 228.84 361.35 C 226.51 357.17 229.20 352.61 228.11 348.22 C 230.33 344.96 230.17 339.89 234.20 338.18 Z" />
<path fill="#ffffff" opacity="1.00" d=" M 119.48 343.37 C 120.35 342.19 122.53 342.74 122.69 344.21 C 122.58 346.36 118.25 345.36 119.48 343.37 Z" />
<path fill="#ffffff" opacity="1.00" d=" M 100.02 343.89 C 104.86 346.87 110.60 346.81 116.08 346.94 C 119.23 346.87 121.83 349.01 124.94 349.15 C 127.37 349.17 129.27 350.81 131.40 351.72 C 133.14 351.99 134.86 351.27 136.59 351.08 C 136.94 352.13 137.29 353.19 137.64 354.26 C 140.41 354.86 143.09 357.05 143.34 360.01 C 142.40 363.95 139.35 367.61 141.10 371.83 C 139.75 373.99 137.60 376.20 138.26 378.98 C 139.47 383.61 134.01 387.00 135.33 391.59 C 136.02 394.53 134.67 397.42 134.26 400.31 C 129.22 398.22 123.66 397.47 119.01 394.54 C 113.83 395.29 108.63 394.05 103.50 394.85 C 99.49 388.37 91.89 386.12 85.38 383.08 C 85.54 381.46 85.76 379.86 86.04 378.27 C 88.66 377.18 91.60 376.70 94.32 377.77 C 99.98 379.78 105.00 383.30 109.59 387.10 C 107.81 388.51 106.76 390.45 106.35 392.68 C 108.25 392.85 110.14 393.16 112.04 393.31 C 117.83 390.99 123.68 388.51 129.96 387.94 C 130.56 387.71 131.74 387.25 132.34 387.02 C 128.41 384.09 123.35 386.02 118.87 385.38 C 122.30 383.64 125.99 382.39 129.08 380.05 C 123.32 381.06 118.19 383.96 112.97 386.43 C 104.83 381.88 97.25 374.55 87.36 374.82 C 88.52 373.11 89.90 371.54 90.85 369.69 C 91.68 366.15 91.23 362.32 92.90 358.99 C 93.69 356.66 96.45 355.69 97.05 353.26 C 98.06 350.14 98.97 346.99 100.02 343.89 Z" />
<path fill="#ffffff" opacity="1.00" d=" M 128.06 345.30 C 129.14 344.09 131.70 345.53 130.72 347.06 C 129.69 348.21 127.00 346.75 128.06 345.30 Z" />
<path fill="#ffffff" opacity="1.00" d=" M 78.95 352.90 C 79.73 350.20 80.82 347.52 83.07 345.70 C 83.22 348.85 81.76 351.49 78.95 352.90 Z" />
<path fill="#ffffff" opacity="1.00" d=" M 134.78 346.99 C 135.91 346.53 137.07 346.12 138.24 345.78 C 138.18 346.62 138.06 348.30 138.00 349.14 C 136.64 348.79 134.80 348.85 134.78 346.99 Z" />
<path fill="#ffffff" opacity="1.00" d=" M 133.23 347.23 C 133.82 347.82 133.82 347.82 133.23 347.23 Z" />
<path fill="#ffffff" opacity="1.00" d=" M 140.16 347.40 C 141.51 347.55 141.75 348.23 140.85 349.45 C 139.50 349.28 139.27 348.59 140.16 347.40 Z" />
<path fill="#ffffff" opacity="1.00" d=" M 70.98 374.29 C 73.60 372.26 75.22 369.19 78.10 367.48 C 78.09 370.07 76.93 372.44 75.50 374.54 C 74.00 374.78 72.48 374.34 70.98 374.29 Z" />
<path fill="#ffffff" opacity="1.00" d=" M 288.12 367.62 C 289.56 369.33 290.74 371.30 290.94 373.58 C 290.37 373.67 289.25 373.86 288.68 373.95 C 288.37 371.85 288.15 369.73 288.12 367.62 Z" />
<path fill="#ffffff" opacity="1.00" d=" M 290.87 367.62 C 292.40 369.58 293.29 371.94 293.95 374.33 C 291.76 372.80 291.04 370.14 290.87 367.62 Z" />
<path fill="#ffffff" opacity="1.00" d=" M 309.84 372.04 C 307.94 371.90 305.83 368.11 309.05 368.85 C 309.31 369.31 309.82 370.23 310.08 370.69 C 310.02 371.02 309.90 371.70 309.84 372.04 Z" />
<path fill="#ffffff" opacity="1.00" d=" M 309.84 372.04 C 310.78 372.64 311.73 373.25 312.67 373.89 C 312.97 374.14 313.58 374.64 313.89 374.89 C 314.95 376.18 315.86 377.62 315.64 379.38 C 314.79 378.49 313.98 377.57 313.23 376.62 C 312.84 375.60 312.16 374.96 311.18 374.72 L 310.68 374.61 L 310.39 373.70 C 310.25 373.28 309.98 372.45 309.84 372.04 Z" />
<path fill="#ffffff" opacity="1.00" d=" M 83.90 380.31 C 83.88 377.34 85.18 374.50 87.31 372.47 C 86.46 375.19 85.35 377.84 83.90 380.31 Z" />
<path fill="#ffffff" opacity="1.00" d=" M 304.85 374.29 C 306.25 373.96 306.78 374.48 306.44 375.84 C 305.03 376.16 304.50 375.64 304.85 374.29 Z" />
<path fill="#ffffff" opacity="1.00" d=" M 310.90 389.68 C 309.72 385.30 308.64 380.90 307.53 376.51 C 307.75 376.88 308.19 377.63 308.41 378.00 C 310.16 381.19 311.29 384.74 311.07 388.43 L 310.90 389.68 Z" />
<path fill="#ffffff" opacity="1.00" d=" M 320.00 383.00 C 319.40 382.40 319.40 382.40 320.00 383.00 Z" />
<path fill="#ffffff" opacity="1.00" d=" M 320.00 383.00 C 320.57 383.57 320.57 383.57 320.00 383.00 Z" />
<path fill="#ffffff" opacity="1.00" d=" M 215.55 399.20 C 217.07 396.69 217.81 391.31 221.80 392.70 C 226.48 395.05 230.30 398.81 234.48 401.93 C 233.67 403.34 232.84 404.73 232.00 406.13 C 233.23 405.84 234.47 405.56 235.71 405.29 C 233.36 409.05 230.38 412.35 227.58 415.78 C 227.40 415.98 227.03 416.40 226.84 416.61 C 223.74 419.70 220.93 423.06 217.88 426.19 C 215.59 423.77 214.18 420.58 211.44 418.59 C 208.94 416.42 205.50 416.18 202.43 415.44 C 203.07 414.17 203.74 412.92 204.42 411.68 C 204.48 411.58 204.59 411.38 204.64 411.28 C 204.97 410.72 205.64 409.58 205.97 409.02 C 206.25 408.56 206.81 407.66 207.10 407.20 C 207.38 406.78 207.93 405.93 208.21 405.50 C 210.46 402.65 212.54 399.67 214.55 396.65 C 214.80 397.29 215.30 398.56 215.55 399.20 M 215.20 420.34 C 215.85 420.98 215.85 420.98 215.20 420.34 Z" />
<path fill="#ffffff" opacity="1.00" d=" M 239.57 400.83 C 236.51 401.48 239.80 396.91 241.25 398.49 C 240.83 399.07 239.99 400.24 239.57 400.83 Z" />
<path fill="#ffffff" opacity="1.00" d=" M 107.30 399.25 C 115.58 398.77 124.47 398.98 131.78 403.39 C 132.53 417.27 128.17 430.88 122.59 443.43 C 120.87 446.98 119.27 450.66 116.61 453.64 C 113.50 460.61 115.10 468.83 111.74 475.73 C 110.55 478.48 107.46 479.65 105.99 482.13 C 105.43 490.61 103.61 498.99 101.50 507.22 C 99.81 510.99 98.72 514.97 97.59 518.94 C 90.61 517.89 84.81 513.65 78.28 511.36 C 77.05 506.20 80.58 501.90 81.04 496.94 C 80.35 498.68 80.18 500.94 77.83 501.08 C 79.45 491.69 85.14 483.76 89.61 475.56 C 90.87 473.56 89.82 471.15 90.06 468.97 C 90.35 465.02 91.03 461.09 90.41 457.14 C 90.84 449.39 92.00 441.68 92.57 433.93 C 93.12 439.12 92.17 444.40 93.09 449.55 C 94.80 442.16 94.88 434.50 94.67 426.96 C 95.01 425.18 93.90 423.86 92.86 422.59 C 96.21 416.88 99.68 411.22 101.97 404.98 C 100.76 411.74 96.35 417.17 94.06 423.47 L 95.46 422.67 C 99.15 416.90 102.57 410.83 104.18 404.13 C 104.40 402.08 106.77 403.15 108.03 403.15 C 113.87 404.04 119.77 404.50 125.66 404.79 C 125.71 404.42 125.81 403.70 125.85 403.33 C 119.53 403.19 113.29 401.22 107.30 399.25 Z" />
<path fill="#ffffff" opacity="1.00" d=" M 316.50 400.10 C 317.82 399.45 319.29 401.64 318.59 402.78 C 317.25 403.33 315.83 401.25 316.50 400.10 Z" />
<path fill="#ffffff" opacity="1.00" d=" M 295.30 408.11 C 295.91 407.65 298.71 407.75 297.30 408.96 C 296.21 409.60 295.05 409.96 293.81 410.04 C 292.14 409.51 294.55 408.10 295.30 408.11 Z" />
<path fill="#ffffff" opacity="1.00" d=" M 296.41 414.48 C 297.16 412.68 297.95 410.40 300.18 410.06 C 301.76 409.44 305.10 410.60 303.59 412.63 C 301.67 414.46 298.89 414.50 296.41 414.48 Z" />
<path fill="#ffffff" opacity="1.00" d=" M 291.45 413.07 C 292.36 411.54 294.01 410.86 295.54 410.10 C 295.48 411.35 296.42 413.19 294.68 413.66 C 293.58 413.53 292.51 413.34 291.45 413.07 Z" />
<path fill="#ffffff" opacity="1.00" d=" M 264.24 426.09 C 268.43 421.35 273.86 417.82 279.37 414.80 C 278.23 416.29 276.85 417.57 275.64 419.00 C 278.98 417.03 282.51 415.29 286.43 414.87 C 286.12 419.67 280.53 419.81 277.06 421.19 C 274.77 422.76 273.01 424.98 271.17 427.04 C 272.55 424.81 273.19 422.27 273.66 419.72 C 270.46 421.93 266.81 423.94 264.69 427.29 C 266.46 426.58 268.17 425.74 269.90 424.94 C 267.84 426.90 265.61 428.82 264.30 431.39 C 263.06 434.62 262.79 438.09 262.26 441.48 C 260.67 439.21 258.57 436.46 259.45 433.54 C 261.16 431.80 263.03 430.22 264.82 428.56 C 264.64 427.73 264.45 426.90 264.24 426.09 M 274.16 419.20 C 274.79 419.84 274.79 419.84 274.16 419.20 Z" />
<path fill="#ffffff" opacity="1.00" d=" M 196.98 434.19 C 200.60 429.08 202.97 423.14 206.99 418.32 C 211.24 419.05 213.75 423.16 214.81 427.01 C 210.29 432.42 205.60 437.67 201.09 443.09 C 199.41 445.04 199.20 447.74 198.02 449.96 C 195.96 452.26 193.92 454.61 191.62 456.68 C 189.68 458.39 187.02 458.64 184.71 459.58 C 182.17 462.39 179.85 465.44 176.76 467.71 C 177.30 465.55 177.88 463.41 178.24 461.22 C 174.95 463.98 174.61 468.59 171.86 471.73 C 172.17 468.92 172.86 466.17 173.05 463.35 C 170.76 465.44 170.28 468.55 169.61 471.42 C 168.33 472.17 167.06 472.95 165.81 473.75 C 167.44 469.89 169.21 466.04 171.59 462.59 C 174.60 458.89 177.93 455.45 181.32 452.10 C 181.56 451.91 182.05 451.54 182.29 451.35 C 186.69 448.93 189.18 444.47 191.13 440.04 C 191.37 439.60 191.85 438.73 192.09 438.29 C 196.33 432.03 198.99 424.60 204.43 419.24 C 202.25 424.37 198.81 428.89 196.98 434.19 M 191.95 446.88 C 194.73 446.14 196.62 443.93 198.02 441.54 C 195.50 442.64 193.19 444.37 191.95 446.88 M 197.19 445.18 C 197.84 445.82 197.84 445.82 197.19 445.18 Z" />
<path fill="#ffffff" opacity="1.00" d=" M 268.12 438.35 C 267.70 435.67 268.49 433.04 269.86 430.76 C 269.72 433.36 269.31 436.00 268.12 438.35 Z" />
<path fill="#ffffff" opacity="1.00" d=" M 254.05 454.05 C 256.02 449.84 259.68 446.95 263.45 444.43 C 266.10 448.90 264.41 454.27 261.84 458.34 C 259.11 456.93 256.70 458.42 254.47 459.99 C 253.52 458.13 252.78 455.96 254.05 454.05 Z" />
<path fill="#ffffff" opacity="1.00" d=" M 250.31 454.53 C 252.14 451.90 254.04 449.30 256.13 446.86 C 254.58 451.09 252.10 454.90 249.11 458.26 C 249.20 457.73 249.37 456.67 249.45 456.14 C 249.67 455.74 250.09 454.93 250.31 454.53 Z" />
<path fill="#ffffff" opacity="1.00" d=" M 269.22 447.49 C 270.63 447.28 270.73 449.74 269.82 450.40 C 268.39 450.59 268.32 448.15 269.22 447.49 Z" />
<path fill="#ffffff" opacity="1.00" d=" M 266.14 470.80 C 265.61 466.14 265.37 461.21 267.53 456.90 C 266.73 461.47 268.41 466.61 266.14 470.80 Z" />
<path fill="#ffffff" opacity="1.00" d=" M 182.32 465.89 C 183.48 463.94 184.85 462.09 186.86 460.95 C 187.01 463.89 185.89 466.72 183.34 468.33 C 183.09 467.72 182.58 466.50 182.32 465.89 Z" />
<path fill="#ffffff" opacity="1.00" d=" M 179.36 468.09 C 181.15 468.66 178.51 471.57 177.24 470.84 C 176.74 469.57 178.29 468.41 179.36 468.09 Z" />
<path fill="#ffffff" opacity="1.00" d=" M 235.35 479.57 C 237.98 475.45 240.34 471.03 244.03 467.73 C 241.61 472.37 238.33 476.50 236.02 481.20 C 231.38 489.77 228.50 499.18 223.51 507.58 C 221.42 511.16 218.17 513.99 216.67 517.93 C 216.40 518.53 215.87 519.74 215.60 520.34 C 215.44 519.72 215.12 518.47 214.96 517.84 C 221.48 510.31 226.01 501.38 229.56 492.13 C 229.75 491.71 230.13 490.87 230.32 490.45 C 231.87 487.42 233.23 484.30 234.54 481.17 C 234.74 480.77 235.15 479.97 235.35 479.57 Z" />
<path fill="#ffffff" opacity="1.00" d=" M 315.08 521.81 C 317.85 506.94 319.06 491.83 321.64 476.93 C 321.56 492.56 318.58 507.95 316.61 523.40 C 316.23 523.00 315.46 522.21 315.08 521.81 Z" />
<path fill="#ffffff" opacity="1.00" d=" M 278.11 491.51 C 281.91 488.69 284.39 484.58 287.97 481.54 C 285.67 486.43 281.41 489.94 278.20 494.19 C 271.71 501.11 264.54 507.42 257.17 513.38 C 258.80 511.18 260.58 509.11 262.31 507.00 C 262.53 506.79 262.98 506.38 263.21 506.18 C 264.13 505.74 264.79 505.06 265.19 504.14 C 265.43 503.91 265.92 503.44 266.16 503.21 C 267.11 502.80 267.79 502.12 268.21 501.19 C 268.46 500.95 268.95 500.46 269.20 500.21 C 270.14 499.80 270.82 499.12 271.25 498.19 C 271.49 497.95 271.98 497.47 272.22 497.23 C 273.16 496.82 273.85 496.15 274.27 495.22 C 274.51 494.99 274.98 494.51 275.22 494.27 C 276.14 493.88 276.83 493.25 277.29 492.37 C 277.50 492.16 277.90 491.73 278.11 491.51 Z" />
<path fill="#ffffff" opacity="1.00" d=" M 285.07 522.08 C 285.17 512.98 284.70 503.84 285.51 494.77 C 286.42 505.00 286.51 515.31 286.62 525.57 C 285.67 524.61 284.78 523.51 285.07 522.08 Z" />
</g>
</svg>
