<?xml version="1.0" encoding="utf-8"?>
<!-- Generator: Adobe Illustrator 17.0.0, SVG Export Plug-In . SVG Version: 6.00 Build 0)  -->
<!DOCTYPE svg PUBLIC "-//W3C//DTD SVG 1.1//EN" "http://www.w3.org/Graphics/SVG/1.1/DTD/svg11.dtd">
<svg version="1.1" id="Layer_1" xmlns="http://www.w3.org/2000/svg" xmlns:xlink="http://www.w3.org/1999/xlink" x="0px" y="0px"
	 width="800px" height="600px" viewBox="0 0 800 600" enable-background="new 0 0 800 600" xml:space="preserve">
<g>
	<path fill-rule="evenodd" clip-rule="evenodd" d="M166.259,183.992c-1.598-1.749,14.655-35.855,43.22-61.035
		c21.737-19.161,41.355-35.796,72.057-38.279c11.968-0.967,20.732,1.733,21.351,11.876c0.677,11.151-10.073,21.66-13.344,19.803
		c-4.49-2.549-6.804-8.652-16.062-10.179c-22.254-3.667-47.554,19.487-57.998,27.996
		C198.008,148.402,184.772,165.684,166.259,183.992z"/>
	<path fill-rule="evenodd" clip-rule="evenodd" fill="#FFFFFF" d="M231.704,113.495c11.224-14.489,35.261-24.336,61.178-22.211
		c7.919,3.426,2.999,15.155-2.67,15.83c-3.733,0.452-4.96-4.006-8.676-5.271C264.378,95.976,245.253,104.902,231.704,113.495z"/>
	<path fill-rule="evenodd" clip-rule="evenodd" d="M502.575,181.704c-32.397-31.28-70.05-52.713-87.594-62.713
		c-2.575-3.784-4.309-12.714,4.684-15.826C451.774,110.779,489.91,156.099,502.575,181.704z"/>
	<path fill-rule="evenodd" clip-rule="evenodd" d="M506.393,270.112c4.097,12.675,38.074,11.102,48.852,7.321
		c1.039,10.663-15.645,8.941-22.819,9.174c-0.141,4.105,12.735,5.949,18.296,5.949c-8.685,8.596-33.95,2.511-50.461-13.969
		c-86.01,57.034-156.588-9.917-128.821-85.44c-4.513-3.783-11.634-4.877-19.281-7.629c1.348-3.156,16.114-3.284,26.191-1.571
		C432.912,109.026,533.001,200.793,506.393,270.112z"/>
	<path fill-rule="evenodd" clip-rule="evenodd" d="M335.961,201.539c-8.339-0.345-18.387-0.274-23.912,0.761
		c6.568,51.895-28.337,95.114-73.28,102.987c-41.271,7.224-69.759-3.61-80.224-35.091c-11.567,14.493-20.824,28.227-41.527,14.462
		c7.992,1.376,17.731-0.455,19.054-6.631c-13.147-0.932-19.253-6.015-19.054-11.927c5.562,2.399,13.553,6.182,23.637,2.748
		c10.072-3.439,17.514-15.803,21.196-27.156c5.91-18.213,11.955-35.958,31.971-57.054c26.412-27.837,88.964-46.395,109.819,6.19
		C311.398,191.494,334.294,194.013,335.961,201.539z"/>
	<path fill-rule="evenodd" clip-rule="evenodd" fill="#FFFFFF" d="M500.262,258.753c-30.084-30.514-58.415-59.68-105.676-76.288
		c19.282-39.67,83.872-6.566,101.141,27.596C503.678,225.803,507.976,245.786,500.262,258.753z"/>
	<path fill-rule="evenodd" clip-rule="evenodd" fill="#FFFFFF" d="M291.992,184.754c-54.145,0.079-87.933,23.649-121.101,51.875
		c6.776-36.621,40.994-67.777,85.834-70.548C278.966,164.704,288.136,174.074,291.992,184.754z"/>
	<path fill-rule="evenodd" clip-rule="evenodd" fill="#FFFFFF" d="M188.128,240.415c5.345,45.27,101.266,46.646,88.408-40.652
		c5.77-1.765,21.736-1.872,25.368,1.72c8.344,63.236-47.613,100.011-93.832,93.827c-22.158-2.964-38.576-20.62-41.969-37.074
		C172.968,250.286,178.878,245.476,188.128,240.415z"/>
	<path fill-rule="evenodd" clip-rule="evenodd" fill="#FFFFFF" d="M466.622,248.565c8.396,4.707,17.683,12.371,23.759,21.548
		c-16.851,11.709-30.284,17.916-49.127,19.701c-45.558,4.322-77.498-44.338-62.903-96.927c3.824,1.376,7.301,2.752,11.813,5.501
		c-9.38,31.62,3.824,60.832,31.491,66.447C440.455,268.65,455.764,258.61,466.622,248.565z"/>
	<path fill-rule="evenodd" clip-rule="evenodd" fill="#FFFFFF" d="M209.463,225.878c8.255,31.806,56.989,17.318,46.22-20.961
		c6.603-3.434,15.637-4.124,15.637-4.124s4.867,20.276-8.69,45.71c-13.552,25.439-62.204,22.686-69.505-8.249
		C198.34,232.76,204.242,229.662,209.463,225.878z"/>
	<path fill-rule="evenodd" clip-rule="evenodd" fill="#FFFFFF" d="M409.629,205.948c-7.602,11.718-4.92,28.588,4.411,36.221
		c7.75,6.332,26.166,8.458,34.975-8.352c4.056,2.377,8.568,6.503,11.006,9.597c-6.603,17.872-40.008,21.537-54.261,9.849
		c-14.247-11.681-18.352-32.889-8.793-53.758C401.983,201.135,406.502,203.2,409.629,205.948z"/>
	<path fill-rule="evenodd" clip-rule="evenodd" fill="#FFFFFF" d="M226.488,219.007c2.782-4.124,12.164-7.903,16.685-7.903
		c1.578,3.945,1.042,10.999-6.604,14.093C230.654,227.592,226.094,222.012,226.488,219.007z"/>
	<path fill-rule="evenodd" clip-rule="evenodd" fill="#FFFFFF" d="M435.342,226.918c-0.345,4.123-8.295,5.253-12.51,2.744
		c-3.635-2.166-2.782-10.996-1.387-13.403C422.833,213.855,435.696,222.789,435.342,226.918z"/>
	<path fill-rule="evenodd" clip-rule="evenodd" fill="#FF0000" d="M254.254,452.166c-2.329-5.934,41.082,11.788,74.654,11.353
		c33.573-0.433,55.649-3.931,68.463-9.172c12.815-5.239,17.23-9.612,19.885-8.737c2.637,0.873-2.205,27.523-44.62,47.618
		C330.236,513.324,270.601,493.667,254.254,452.166z"/>
	<path fill-rule="evenodd" clip-rule="evenodd" d="M429.678,400.461c7.096,17.522,3.753,32.044-6.677,42.238
		c-30.396,29.742-115.05,27.275-162.801,15.176c14.939,26.31,48.97,41.211,89.406,38.274c27.317-1.987,48.058-18.63,62.177-34.139
		c-16.427,68.321-131.784,63.858-163.756-1.097c-18.624-15.291-26.732-23.008-33.864-47.91c-4.981,0.89-10.201,3.194-12.977,0.202
		c-0.589-8.4,18.305-15.409,25.723-13.745c-9.33,20.088,6.183,42.39,29.956,41.255c12.31-0.587,19.606-10.023,32.813-9.555
		c6.1,0.218,16.913,5.413,22.568,6.262c13.147,1.959,25.436-1.088,40.697-1.983c16.398-0.965,43.202-0.926,55.368,1.134
		c12.157,2.064,20.501-4.12,19.803-17.184c-0.69-13.057-9.034-14.433-17.113-20.24C415.605,396.018,422.906,396.708,429.678,400.461
		z"/>
	<path fill-rule="evenodd" clip-rule="evenodd" fill="#FF0000" d="M410.396,442.422c-31.929,26.275-119.819,19.633-158.204,3.577
		c12.223,0.194,24.411-6.325,36.572-7.361c12.166-1.027,21.203,6.877,32.323,6.877c11.118,0,37.882-5.16,51.077-3.438
		C385.371,443.798,399.318,442.49,410.396,442.422z"/>
	<path fill-rule="evenodd" clip-rule="evenodd" fill="#FFFFFF" d="M364.686,472.693c5.709-1.466,10.172,0.433,10.609,2.618
		c0.444,2.188-4.871,5.25-10.609,5.685C358.948,481.43,352.769,475.756,364.686,472.693z"/>
	<path fill-rule="evenodd" clip-rule="evenodd" d="M331.71,301.162c3.309,20.29-28.98,30.522-32.389,42.414
		c-3.4,11.887,7.157,21.079,17.325,24.078c13.942,4.1,32.393-0.512,40.059-10.878c-7.634,43.109-67.029,29.377-70.886-0.376
		C281.291,321.441,326.475,325.304,331.71,301.162z"/>
</g>
</svg>
