<?xml version="1.0" encoding="utf-8"?>
<!-- Generator: Adobe Illustrator 17.0.0, SVG Export Plug-In . SVG Version: 6.00 Build 0)  -->
<!DOCTYPE svg PUBLIC "-//W3C//DTD SVG 1.1//EN" "http://www.w3.org/Graphics/SVG/1.1/DTD/svg11.dtd">
<svg version="1.1" id="Layer_1" xmlns="http://www.w3.org/2000/svg" xmlns:xlink="http://www.w3.org/1999/xlink" x="0px" y="0px"
	 width="800px" height="600px" viewBox="0 0 800 600" enable-background="new 0 0 800 600" xml:space="preserve">
<g>
	<path fill="#120E0F" d="M443.363,361.083c-1.829,1.125-5.295,2.444-6.543,4.279c-0.046,0.068-0.07,0.143-0.096,0.217
		c-0.015,0.03-0.038,0.049-0.05,0.083c-2.29,6.007,3.095,10.503,8.777,9.172c7.308-1.712,13.897-7.286,19.377-12.124
		c4.81-4.248,9.729-8.966,13.344-14.309c3.519-5.202-1.824-10.058-6.904-10.931c-0.261-0.047-0.49,0.016-0.686,0.187
		c-4.939,5.944-10.38,11.804-16.559,16.469C450.643,356.68,446.967,358.865,443.363,361.083z M473.044,343.205
		c0.411-0.472,0.819-0.946,1.224-1.424c0.031-0.038,0.055-0.07,0.077-0.101c0.227,0.063,0.547,0.172,0.793,0.277
		c0.061,0.503-0.163,1.06-0.313,1.512c-0.971,2.929-4.264,5.783-6.288,7.967c-3.264,3.519-6.773,6.816-10.458,9.89
		c-3.761,3.135-7.805,6.043-12.268,8.092c-1.746,0.803-3.589,1.387-5.491,1.666c0.001-0.016,0.001-0.028,0.003-0.045
		c0.048-0.689,0.314-1.366,0.562-2.009c0.532-0.708,1.645-1.203,2.357-1.656c1.965-1.25,3.963-2.449,5.944-3.673
		c4.333-2.68,8.585-5.419,12.427-8.78C465.716,351.331,469.46,347.306,473.044,343.205z"/>
	<path fill="#120E0F" d="M493.542,372.119c-4.249-4.3-9.857-6.006-15.66-6.306c4.437-4.895,8.176-10.511,11.045-16.808
		c8.086-17.749,8.552-38.42,5.298-57.371c-3.769-21.953-13.724-42.745-27.74-60c-11.88-14.625-27.783-26.152-46.296-30.448
		c-7.123-1.654-15.369-2.491-22.606-0.847h-0.001c-8.604,0.394-17.209,3.983-24.428,8.419
		c-18.622,11.444-28.59,32.511-32.382,53.387c-1.623,8.939-1.937,18.098-1.225,27.206c-0.823-0.699-1.697-1.269-2.276-1.114
		c-12.431,3.319-24.688,10.694-33.293,20.192c-6.889,7.605-11.366,17.576-11.681,27.899c-0.096,3.156,0.329,6.234,1.144,9.21
		c0.454,7.843,2.031,15.917,5.537,22.885c2.686,5.341,7.495,10.207,11.765,14.28c15.705,14.978,36.744,22.552,57.971,25.261
		c19.676,2.511,39.526,0.325,58.253-6.182c8.093-2.812,15.869-6.526,23.081-11.155c1.996-1.281,3.972-2.665,5.855-4.169
		c0.379,0.494,0.811,0.965,1.276,1.428c0.828,0.822,4.494,2.57,4.085,3.837c-0.823,2.553-4.755,5.068-6.675,6.694
		c-6.939,5.876-14.321,11.262-21.714,16.55c-2.675,1.914-5.789,4.503-3.867,8.119c1.838,3.458,5.891,4.421,9.234,2.766
		c7.745-3.832,14.644-10.06,21.302-15.473c3.044-2.474,6.056-4.99,9.03-7.548c1.586-1.366,3.307-3.596,5.318-4.09
		c2.149-0.529,2.601-2.421,3.03-4.274c0.115-0.493,1.736,0.042,1.997,0.091c5.09,0.962,10.68,0.402,15.525-1.379
		C505.192,389.23,499.066,377.708,493.542,372.119z M425.082,206.996c19.903,5.159,35.061,19.731,45.862,36.699
		c11.176,17.558,17.759,37.231,19.168,57.993c1.323,19.502-2.458,40.107-14.547,55.893c-8.934,11.664-22.306,19.736-36.686,23.587
		c-0.176-0.073-0.339-0.108-0.477-0.082c-10.048,1.922-21.525-1.434-30.825-4.995c-6.326-2.424-12.495-5.649-17.771-9.926
		c-4.191-3.397-7.688-8.061-10.92-12.34c-17.392-23.027-23.957-51.645-21.615-80.155c1.733-21.09,9.071-42.559,25.692-56.504
		c7.021-5.892,15.925-10.654,25.071-12.117c0.12-0.019,0.24-0.037,0.36-0.053c0.003,0-0.009-0.017-0.029-0.043
		C413.958,204.723,419.804,205.628,425.082,206.996z M359.618,232.113c2.262-3.397,4.849-6.562,7.708-9.448
		c-7.742,10.539-12.317,23.383-14.491,36.37c-4.699,28.083,0.038,57.674,15.062,81.997c6.19,10.024,13.999,19.502,22.941,27.192
		c8.495,7.306,18.586,12.411,29.3,15.517c-1.427,0.012-2.849-0.017-4.264-0.091c-20.195-1.059-37.261-12.667-48.841-28.757
		c-12.248-17.019-19.125-37.812-21.366-58.545C343.285,274.319,347.192,250.777,359.618,232.113z M330.07,301.304
		c0.402,0.141,0.8,0.306,1.194,0.482c0.369,0.164,1.042,0.76,1.123,0.727c0.329,0.622,0.514,1.33,0.6,2.015
		c0.464,3.708-3.944,6.439-6.697,7.804c-3.597,1.782-8.149,1.778-12.083,0.394C318.819,308.186,324.267,304.36,330.07,301.304z
		 M344.438,316.035c0.591,2.078,1.223,4.139,1.897,6.175c5.961,18.038,15.941,35.079,30.032,47.92
		c-11.772,1.062-23.72-0.227-34.825-4.389c-4.508-1.69-9.113-3.977-12.803-7.11c-0.097-0.082-0.5-0.498-0.805-0.838
		c-0.711-0.79-1.313-1.676-1.895-2.561c-1.27-1.929-2.219-4.021-2.958-6.205C318.114,334.346,332.662,321.998,344.438,316.035z
		 M340.353,296.801c0.861,6.217,2.17,12.373,3.842,18.38c-0.86-1.235-3.02-3.397-3.174-3.541c-0.527-0.493-2.792-2.895-4.084-3.179
		c-0.155-2.205-1.826-4.3-3.534-6.001c-0.613-0.611-1.281-1.241-1.994-1.843C334.332,299.149,337.333,297.875,340.353,296.801z
		 M307.815,320.302c1.572-2.287,3.351-4.443,5.294-6.466c3.163,2.231,6.927,3.458,10.643,3.485c-1.135,1.05-2.226,2.139-3.25,3.268
		c-3.252,3.586-5.795,7.893-6.502,12.733c-0.736,5.029,1.144,10.07,3.519,14.409c2.987,5.46,7.631,10.018,12.263,14.081
		c4.909,4.306,10.503,7.798,16.489,10.388c12.4,5.364,26.1,6.747,39.453,5.328c8.243,5.504,17.371,9.058,26.883,10.623
		c-19.108,2.688-38.529,2.984-57.555-0.43c-10.626-1.906-21.141-5.083-30.789-9.969c-3.78-1.914-7.584-4.181-10.872-6.706
		c-0.819-0.627-1.449-1.155-1.771-1.43c-0.045-0.038-0.454-0.405-0.644-0.573c-0.244-0.229-0.592-0.56-0.484-0.449
		c-1.021-1.004-1.523-1.574-2.792-3.173C296.986,351.922,298.281,334.16,307.815,320.302z M383.873,403.631
		c-23.204,0.558-48.934-5.168-67.159-20.271c-4.69-3.887-8.016-7.502-11.66-12.362c-2.335-3.116-3.551-7.08-4.356-11.008
		c4.281,5.785,9.753,10.824,15.303,15.217c7.624,6.034,16.253,10.612,25.34,14.016c24.234,9.079,51.18,9.573,76.574,6.339
		c3.977-0.506,7.936-1.131,11.879-1.847C415.337,399.91,399.575,403.253,383.873,403.631z M470.977,395.386
		c-1.265,0.493-1.56,0.602-2.57,1.52c-2.654,2.413-5.412,4.715-8.166,7.012c-7.243,6.04-14.606,12.186-22.593,17.232
		c-1.607,1.016-3.201,1.985-5.112,2.206c-0.233-0.065-0.414-0.102-0.567-0.125c0.007-0.123,0.009-0.246,0.033-0.369
		c0.087-0.838,0.564-1.556,1.044-2.214c0.623-0.852,1.581-1.419,2.431-2.022c4.765-3.383,9.465-6.858,14.103-10.411
		c4.773-3.655,9.841-7.335,13.89-11.813c1.057-1.171,1.871-2.367,1.062-3.954c-0.717-1.408-1.784-2.559-3.027-3.528
		c-1.162-0.906-3.426-1.801-3.454-3.452c-0.002-0.078-0.018-0.16-0.04-0.244c3.126-1.444,6.323-2.943,9.576-4.266
		c-0.88,1.974-1.62,4.013-2.066,6.098c-0.28,1.311-0.597,3.418,0.578,4.419c0.901,0.767,6.928,0.32,6.955,1.404
		c0.001,0.044,0.009,0.074,0.012,0.115C472.742,394.085,472.268,394.883,470.977,395.386z M484.498,391.423
		c-2.501,0.335-5.017,0.273-7.502-0.144c-0.323-0.055-0.722-0.163-1.137-0.253c-0.119-4.604-8.004-0.715-7.735-4.507
		c0.157-2.213,1.209-4.553,2.304-6.661c1.367-0.499,2.743-0.956,4.128-1.353c0.128,1.499,0.7,2.955,1.739,4.085
		c0.039,0.042,0.082,0.066,0.125,0.099c0.028,0.036,0.048,0.076,0.081,0.108c2.759,2.633,8.31,6.265,11.734,2.722
		c3.227-3.34,1.523-7.968-1.243-10.933c-2.668-2.86-7.938-5.019-10.907-1.323c-0.302,0.376-0.555,0.787-0.771,1.217
		c-0.326-0.169-0.634-0.25-0.89-0.195c-3.401,0.744-6.759,1.918-10.06,3.269c0.013-0.019,0.028-0.038,0.04-0.056
		c0.091-0.135,0.153-0.279,0.194-0.431c3.507-2.273,6.793-4.85,9.818-7.718c3.639-0.343,7.362-0.205,10.948,0.453
		c5.798,1.064,10.585,6.061,11.54,11.905C498.058,388.769,489.707,390.725,484.498,391.423z M477.336,375.97
		c-0.027-0.198-0.03-0.395-0.018-0.593c2.154-1.33,5.475,0.964,6.964,2.311c0.941,0.851,1.672,1.953,2.265,3.064
		c0.309,0.579,0.493,1.189,0.627,1.827c0.033,0.153,0.049,0.306,0.054,0.459c-0.04,0.018-0.08,0.037-0.128,0.062
		c-2.697,0.907-6.454-2.091-8.312-3.835c-0.467-0.524-0.791-1.122-1.068-1.765c0.042-0.213-0.065-0.528-0.267-0.881
		C477.408,376.404,477.37,376.185,477.336,375.97z"/>
	<path fill="#120E0F" d="M414.507,268.594c5.177-11.319,21.53-14.759,30.212-5.072c7.789,8.688,11.042,22.008,9.462,33.415
		c-1.322,9.542-7.343,16.451-16.468,19.236c-5.293,1.616-11.276,1.046-16.127-1.61c-6.339-3.471-9.835-11.269-11.514-17.971
		c-2.053-8.202-1.612-17.924,1.515-25.848c0.8-2.028-6.398-6.434-6.533-6.093c-2.849,7.219-3.371,15.722-2.234,23.314
		c2.099,14.027,12.782,27.878,25.81,33.509c8.598,3.716,18.994,1.387,25.754-4.923c7.642-7.132,7.745-19.922,5.717-29.348
		c-2.658-12.337-10.396-23.424-20.751-30.559c-5.412-3.729-11.811-5.828-18.379-4.57c-5.843,1.119-10.548,5.072-12.998,10.428
		C407.109,264.393,414.294,269.062,414.507,268.594z"/>
	<path fill="#120E0F" d="M422.018,275.758c-4.126,5.171-1.129,14.031,1.933,18.847c3.06,4.812,10.302,9.929,16.269,7.425
		c3.155-1.325,4.645-5.518,5.036-8.622c0.562-4.463-1.198-8.953-3.525-12.655c-3.179-5.058-13.264-12.498-18.385-5.64
		c-0.117,0.157-0.163,0.346-0.156,0.553C422.683,275.474,422.25,275.468,422.018,275.758z M427.706,279.176
		c1.367-1.83,3.34-2.473,5.574-2.227c3.5,0.384,5.42,3.485,6.524,6.518c1.565,4.303,1.352,12.588-3.98,14.427
		c-4.938,1.703-8.519-2.041-10.001-6.314c-1.175-3.387-1.917-8.658,0.555-11.757c0.125-0.155,0.172-0.344,0.164-0.555
		C427.055,279.464,427.488,279.471,427.706,279.176z"/>
</g>
</svg>
