<?xml version="1.0" encoding="utf-8"?>
<!-- Generator: Adobe Illustrator 17.0.0, SVG Export Plug-In . SVG Version: 6.00 Build 0)  -->
<!DOCTYPE svg PUBLIC "-//W3C//DTD SVG 1.1//EN" "http://www.w3.org/Graphics/SVG/1.1/DTD/svg11.dtd">
<svg version="1.1" id="Layer_1" xmlns="http://www.w3.org/2000/svg" xmlns:xlink="http://www.w3.org/1999/xlink" x="0px" y="0px"
	 width="800px" height="600px" viewBox="0 0 800 600" enable-background="new 0 0 800 600" xml:space="preserve">
<g>
	<g>
		<path fill="#1D1D1B" d="M581.639,484.496c0-0.015,0.018-0.03,0.015-0.048c-6.876-48.212-13.161-96.48-19.902-144.715
			c-3.167-22.642-6.081-45.288-9.458-67.9c-3.437-23.038-10.258-46.742-11.8-70.002c0.675-1.185,0.579-2.615-1.25-2.723
			c-23.236-1.379-46.352-12.007-69.286-16.447c-10.399-2.015-20.894-3.622-31.425-4.954c2.399-28.78,16.75-52.013,5.934-81.1
			c-6.792-18.279-23.872-32.013-43.669-30.034c-15.803,1.58-28.756,13.674-33.485,28.253c-0.651,2.009-1.1,4.042-1.472,6.09
			c-3.976-1.892-8.264-3.098-12.912-3.223c-22.969-0.624-42.511,11.149-42.76,35.38c-0.126,11.979,2.438,23.674,5.802,35.288
			c-18.282-0.927-36.574-1.694-54.895-2.045c-0.006,0-0.015,0.003-0.018,0.003c-0.378-0.081-0.875,0.102-1.097,0.39
			c-0.006,0.012-0.012,0.024-0.018,0.033c-0.695,0.471-1.277,1.259-1.208,1.946c-1.457,2.642-2.222,5.629-2.861,8.573
			c-0.825,3.76-1.856,8.315-1.389,12.21c-1.061,0.378-2.159,0.696-3.215,1.107c-1.145,0.447-2.357,0.962-3.556,1.541
			c-0.132-0.069-0.288-0.09-0.498-0.027c-4.219,1.248-8.642,3.062-9.823,7.727c-0.102,0.402,0.048,0.987,0.552,1.032
			c0.054,0.006,0.195,0.048,0.318,0.081c-0.009,0.237-0.018,0.48-0.033,0.717c0.087,0.018,0.162,0.042,0.246,0.054
			c1.083,54.58-6.522,109.497-9.682,163.864c-1.673,28.781-4.066,57.513-5.931,86.279c-0.132,2.123-0.288,4.261-0.444,6.387
			c-0.204-0.066-0.402-0.129-0.617-0.195v0.501c0.18,0.147,0.411,0.237,0.549,0.438c1.058,1.559,2.684,2.594,4.501,3.403
			c0.012-0.153,0.012-0.309,0.024-0.462c19.329,6.165,39.36,10.846,58.733,15.758c32.502,8.231,65.427,14.954,98.321,21.368
			c33.686,6.573,67.115,14.423,100.945,20.283c12.804,2.219,25.698,4.093,38.562,6.039c0.033,0.186,0.093,0.375,0.132,0.567
			c1.272-3.206,2.87-6.282,4.723-9.137c0.627-5.853,3.373-12.399,5.041-17.272c1.595-4.651,3.334-9.236,5.529-13.638
			c0.612-1.236,1.805-2.615,2.519-4.033c3.301,1.661,10.903,2.012,12.42,2.327c7.73,1.58,19.875,7.673,27.275,2.702
			C581.843,486.367,582.158,485.111,581.639,484.496z M472.617,187.986c12.216,2.375,24.283,6.582,36.439,10.033
			c-6.585-0.234-13.176-0.402-19.797-0.384c-0.444,0.006-0.84,0.18-1.206,0.414c-0.06,0.036-0.153,0.054-0.186,0.102
			c-0.018,0.027-0.027,0.06-0.042,0.084c-0.576,0.477-0.939,1.182-0.906,1.922c-1.427,3.457-1.523,7.766-2.252,11.254
			c-1.116,5.361-2.006,11.008-1.853,16.528c-26.253-2.279-52.377-5.655-78.494-9.083c1.229-6.804,2.411-13.605,3.46-20.424
			c0.971-6.354,1.814-12.768,2.243-19.182C431.02,181.155,451.923,183.968,472.617,187.986z M496.132,229.037
			c-3.862-0.276-7.718-0.633-11.587-0.96c0.612-5.595,0.924-11.182,1.943-16.744c0.483-2.654,0.645-5.511,0.984-8.285
			C489.235,211.912,493.025,220.566,496.132,229.037z M401.538,214.152c-0.222,1.421-0.492,2.828-0.732,4.24
			c-19.383-2.552-38.772-5.106-58.215-7.244c-1.385-0.15-5.392-0.597-11.14-1.248c-2.024-12.588-5.508-25.149-8.387-37.278
			c27.671,1.703,55.312,3.868,82.893,6.24C405.613,190.829,403.235,203.246,401.538,214.152z M403.319,71.095
			c23.737-2.045,37.788,26.364,40.355,45.585c2.765,20.702-7.182,40.223-8.021,60.689c-8.453-1.031-16.918-1.916-25.395-2.645
			c0.24-7.982-0.357-15.938-2.459-23.749c-3.796-14.15-14.243-25.905-24.115-36.19c-3.904-4.069-8.198-8.006-12.96-11.095
			C371.324,86.637,378.467,73.233,403.319,71.095z M353.89,104.355c4.006,0.498,7.676,1.967,11.137,3.943
			c-0.828,20.843,9.176,43.114,11.146,62.883c0.075,0.786,1.097,0.204,1.167-0.327c2.159-15.584-5.035-38.541-6.417-58.548
			c5.895,4.705,11.083,10.639,15.806,15.794c8.72,9.521,14.948,20.495,17.814,33.095c0.957,4.21,1.397,8.63,1.484,13.152
			c-0.855-0.066-1.7-0.162-2.555-0.228c-27.101-2.117-54.203-4.006-81.328-5.458c-0.261-1.148-0.525-2.3-0.771-3.445
			c-2.378-11.137-4.78-22.445-5.011-33.866C315.946,110.565,335.35,102.046,353.89,104.355z M317.163,172.27
			c3.784,12.42,8.246,24.768,11.155,37.276c-12.534-1.428-31.353-3.628-49.797-5.961c1.253-3.262,1.496-7.406,1.925-10.864
			c0.387-3.14,1.272-7.272,0.48-10.384c-0.048-0.171-0.162-0.24-0.297-0.273c0.264-0.462,0.351-0.966-0.048-1.389
			c-3.982-4.21-8.378-7.595-13.104-10.69C284.044,170.462,300.599,171.302,317.163,172.27z M258.565,179.299
			c0.264-2.414,0.567-6.309,1.52-9.293c3.805,2.249,7.476,4.579,11.092,7.143c7.613,5.404,7.095,4.216,0.036,6.735
			c-4.513,1.607-9.077,3.022-13.62,4.519C258.271,185.47,258.232,182.277,258.565,179.299z M279.507,183.236
			c0-0.003,0.006-0.012,0.018-0.012c0.012,0.81-0.378,3.64-0.366,3.535c-0.165,2.681-0.78,5.331-1.272,7.961
			c-0.462,2.525-1.661,5.97-1.109,8.642c-12.45-1.58-24.637-3.215-34.481-4.714C248.361,189.236,270.889,188.598,279.507,183.236z
			 M476.818,512.746c-32.103-5.616-63.873-12.96-95.925-18.885c-31.302-5.781-62.5-12.24-93.517-19.41
			c-19.971-4.621-40.439-9.167-60.376-14.9c0.063-1.182,0.114-2.36,0.189-3.538c1.868-30.592,4.624-61.129,6.225-91.727
			c2.846-54.331,7.878-107.937,6.309-162.302c0.036,0.015,0.072,0,0.12,0.006c26.705,5.631,69.777,10.687,74.431,11.137
			c5.05,0.489,10.081,1.038,15.11,1.586c1.931,9.991,2.702,20.106,1.065,30.463c-0.132,0.825,1.043,0.552,1.169-0.054
			c2.03-9.877,1.859-19.988,0.582-30.112c22.609,2.501,45.177,5.502,67.744,8.42c-2.252,12.45-4.93,24.84-6.702,37.38
			c-0.249,1.751,2.741,0.789,2.998-0.489c2.456-12.123,4.891-24.274,7.158-36.448c25.836,3.322,51.684,6.477,77.64,8.528
			c8.666,0.684,14.783-0.48,16.072,9.809c0.864,6.873,1.655,13.752,2.441,20.633c1.589,13.799,2.966,27.629,4.264,41.459
			c2.621,28.085,3.748,56.281,6.279,84.356c2.543,28.169,7.077,56.113,9.32,84.321c1.26,15.742,0.834,31.692,3.173,47.216
			C507.214,518.335,491.868,515.373,476.818,512.746z M557.423,480.805c-1.634-0.381-13.251-2.099-15.934-1.733
			c-0.177-0.114-0.378-0.207-0.621-0.204c-6.063,0.18-9.341,14.822-10.747,19.083c-0.777,2.366-2.882,7.934-4.027,13.266
			c-1.595-14.795-1.646-29.782-2.831-44.769c-2.081-26.412-6.252-52.625-8.828-78.995c-5.116-52.268-7.85-104.579-14.222-156.779
			c-0.075-0.585-0.333-0.917-0.708-1.139c-1.214-7.095-3.865-13.953-6.396-20.775c-0.768-2.483-1.487-4.972-1.991-7.493
			c9.217,0.105,18.369,0.474,27.584,0.987c5.859,0.324,12.297,2.582,18.12,1.065c0.408,0.027,0.804,0.093,1.209,0.114
			c0.243,0.009,0.48-0.051,0.711-0.12c-0.42,18.243,4.402,36.955,7.23,54.859c4.339,27.503,7.925,55.105,11.74,82.684
			c3.364,24.241,7.178,48.409,9.931,72.725c2.663,23.455,4.51,47.723,10.789,70.554C571.189,484.244,564.56,482.475,557.423,480.805
			z"/>
	</g>
	<g>
		<path d="M357.069,410.989c0.027-0.054,0.084-0.093,0.102-0.141c0.12-0.198,0.009-0.354-0.162-0.384
			c-0.021-0.225-0.042-0.435-0.066-0.654c-0.21-1.709-0.504-3.418-0.825-5.116c0.093-0.186,0.081-0.39-0.09-0.45
			c-0.621-3.215-1.364-6.417-2.204-9.607c0.066-0.156,0.024-0.3-0.093-0.369c-1.376-5.212-2.924-10.39-4.207-15.53
			c-1.955-7.748-3.17-19.758-10.213-24.765c-4.54-3.229-10.339-1.916-14.984,0.732c-7.697,2.243-11.161,11.32-13.767,18.177
			c-0.282,0.759-0.564,1.475-0.834,2.168c-2.591,6.6-5.811,14.813-8.222,22.873c-2.243,4.81-3.67,9.877-4.951,14.666
			c-0.357,1.337-0.819,3.118-1.124,4.828c-1.691,4.402-3.445,10.639,0.929,13.833c0.606,0.45,1.338,0.684,2.162,0.684
			c1.182,0,2.384-0.495,3.379-1.143c3.104-0.627,5.865-2.342,7.659-5.1c1.619-2.504,2.633-5.101,3.412-7.982
			c0.882-3.176,0.773-8.402,2.729-11.452c0.695-0.06,1.409-0.117,2.087-0.183c0.696-0.072,1.377-0.138,2.015-0.195l2.453-0.189
			c1.277-0.096,2.591-0.198,3.808-0.312l1.727,0.042c1.112,0.03,2.255,0.054,3.394,0.054c1.676,0.015,3.083-0.045,4.324-0.168
			l0.48,2.687c1.199,6.984,2.459,14.195,4.438,21.143c0.6,2.063,2.162,3.239,4.294,3.254c0.177,0,0.348-0.015,0.354-0.021
			c0.15,0.006,0.288,0.021,0.438,0.021c1.263,0,2.687-0.501,3.982-1.272c1.292-0.345,2.405-1.193,3.398-2.141
			c1.397-1.35,2.798-3.49,3.175-5.439C357.551,419.693,357.561,415.457,357.069,410.989z M355.971,408.344
			c-0.999,0.273-1.913,1.377-2.651,2.036c-0.54,0.486-1.313,1.326-2.069,1.745c-0.204-1.214-0.408-2.429-0.618-3.631
			c1.082-0.789,2.219-1.538,3.281-2.354c0.534-0.264,1.025-0.588,1.517-0.918C355.638,406.26,355.821,407.303,355.971,408.344z
			 M355.272,404.449c-0.921,0.384-1.793,0.992-2.623,1.505c-0.75,0.45-1.517,0.987-2.174,1.589c-0.123-0.672-0.237-1.346-0.36-2.021
			c0.051-0.012,0.099-0.012,0.141-0.048c1.301-0.918,2.795-1.565,4.054-2.546c0.288-0.231,0.246-0.726-0.198-0.612
			c-1.532,0.381-3.064,1.316-4.12,2.501c-0.09-0.483-0.168-0.977-0.252-1.457c1.631-0.663,3.427-1.664,4.57-2.923
			C354.67,401.774,354.988,403.105,355.272,404.449z M354.112,399.702c-0.804,0.219-1.433,0.723-2.105,1.202
			c-0.804,0.549-1.601,1.106-2.417,1.634c-0.147-0.765-0.276-1.55-0.42-2.3c0.45-0.39,1.745-0.953,2.258-1.256
			c0.711-0.435,1.43-0.843,2.114-1.316C353.731,398.344,353.926,399.018,354.112,399.702z M353.35,397.021
			c-0.915,0.291-1.787,0.891-2.534,1.4c-0.42,0.288-1.221,0.708-1.76,1.199c-0.12-0.639-0.231-1.295-0.354-1.937
			c1.373-0.768,2.855-1.421,4.162-2.279C353.03,395.933,353.188,396.472,353.35,397.021z M350.994,389.396
			c0.534,1.715,1.089,3.472,1.643,5.262c-1.415,0.687-2.803,1.55-4.036,2.531c-0.339-1.7-0.672-3.415-1.026-5.104
			c1.182-0.816,2.45-1.646,3.418-2.672C350.994,389.408,350.994,389.396,350.994,389.396z M350.85,388.91
			c-0.042,0-0.072-0.009-0.114,0.006c-1.259,0.48-2.33,1.454-3.317,2.408c-0.165-0.771-0.324-1.571-0.486-2.33
			c0.024-0.012,0.054-0.012,0.078-0.03c1.026-0.756,2.141-1.361,3.262-1.955C350.46,387.633,350.649,388.268,350.85,388.91z
			 M349.386,383.878c0.204,0.773,0.426,1.574,0.66,2.381c-1.223,0.543-2.318,1.298-3.203,2.339c-0.324-1.511-0.648-3.04-0.984-4.54
			c0.984-0.804,1.949-1.631,2.957-2.423C349.015,382.385,349.188,383.141,349.386,383.878z M348.622,380.832
			c-1.1,0.516-2.108,1.337-2.99,2.246c-0.162-0.738-0.324-1.49-0.498-2.225c0.597-0.483,1.16-0.95,1.835-1.328
			c0.384-0.213,0.774-0.387,1.176-0.579C348.301,379.57,348.457,380.208,348.622,380.832z M347.896,377.983
			c-1.121,0.402-2.348,1.268-2.906,2.21c-0.168-0.669-0.306-1.35-0.468-2.024l-0.51-2.141c-0.054-0.222-0.12-0.465-0.18-0.684
			c0.96-0.795,1.907-1.61,2.771-2.489C347.05,374.568,347.473,376.274,347.896,377.983z M346.424,372.172
			c-0.078,0-0.174,0.009-0.261,0.069c-0.921,0.567-1.826,1.29-2.564,2.135c-0.156-0.624-0.294-1.22-0.468-1.862
			c1.049-0.555,2.021-1.337,2.801-2.228C346.124,370.912,346.256,371.542,346.424,372.172z M345.722,369.548
			c-1.049,0.579-1.841,1.523-2.786,2.267c-0.171-0.666-0.345-1.316-0.54-1.988c1.041-0.393,2.024-0.972,2.93-1.607
			C345.47,368.655,345.593,369.107,345.722,369.548z M343.914,364.178c0.444,1.079,0.801,2.21,1.167,3.331
			c-1.026,0.45-1.913,1.146-2.879,1.73c-0.51-1.649-1.067-3.298-1.757-4.879c0.906-0.666,1.769-1.364,2.684-2.006
			C343.38,362.963,343.659,363.554,343.914,364.178z M342.765,361.524c0,0,0,0-0.006,0c-1.014,0.525-1.847,1.274-2.675,2.051
			c-0.198-0.435-0.375-0.897-0.594-1.322c0.924-0.654,1.877-1.28,2.717-2.027C342.412,360.651,342.58,361.101,342.765,361.524z
			 M341.932,359.677c-1.007,0.477-1.937,1.221-2.753,2.03c-0.27-0.498-0.552-0.993-0.858-1.457c1.002-0.555,2-1.214,2.921-1.946
			C341.497,358.732,341.704,359.224,341.932,359.677z M340.828,357.671c-0.995,0.609-1.865,1.502-2.717,2.261
			c-0.651-0.933-1.331-1.811-2.123-2.555c0.984-0.504,1.862-1.325,2.51-2.159C339.431,355.889,340.181,356.726,340.828,357.671z
			 M338.058,354.948c-0.822,0.669-1.589,1.526-2.528,2.027c-0.321-0.279-0.609-0.585-0.951-0.816
			c0.875-0.552,1.715-1.128,2.522-1.745C337.446,354.564,337.758,354.759,338.058,354.948z M334.312,353.644
			c0.057,0,0.114,0,0.174,0.006c0.717,0.093,1.365,0.252,1.967,0.465c-0.819,0.507-1.577,1.139-2.318,1.775
			c-0.627-0.396-1.304-0.705-2.015-0.974C332.69,354.342,333.554,353.964,334.312,353.644z M332.882,353.523
			c-0.525,0.333-0.99,0.729-1.326,1.197c-1.226-0.384-2.57-0.597-4.087-0.534C329.17,353.691,330.954,353.443,332.882,353.523z
			 M304.12,428.578c0.276-0.393,0.528-0.771,0.717-1.112c0.291-0.366,0.489-0.744,0.621-1.073c0.54-0.462,1.121-0.861,1.646-1.236
			c0.729-0.537,1.478-1.055,2.219-1.568C308.084,425.679,306.425,427.418,304.12,428.578z M310.081,422.149
			c-0.078,0.009-0.147,0-0.24,0.06c-1.319,0.78-2.564,1.682-3.76,2.66c-0.036,0.033-0.075,0.069-0.12,0.099
			c0.09-0.348,0.174-0.693,0.24-1.058c0.063-0.033,0.117-0.045,0.177-0.096c1.478-1.469,3.296-2.759,4.762-4.291
			C310.833,420.44,310.473,421.313,310.081,422.149z M311.502,418.374c-1.913,1.181-3.7,2.939-5.179,4.666
			c0.018-0.12,0.051-0.216,0.054-0.33c0.381-0.75,0.711-1.523,1.029-2.303c1.778-1.167,3.235-2.918,4.738-4.438
			C311.952,416.794,311.73,417.592,311.502,418.374z M312.522,414.29c-0.063,0.261-0.126,0.528-0.186,0.804
			c-0.03,0-0.06,0-0.09,0.012c-1.826,0.882-2.969,2.795-4.408,4.237c0.318-0.855,0.63-1.718,0.906-2.603
			c1.338-1.085,2.531-2.291,3.778-3.475c0.354-0.339,0.036-0.792-0.369-0.462c-1.124,0.894-2.114,1.937-3.11,2.954
			c0.318-1.043,0.605-2.102,0.882-3.164c1.253-0.707,2.504-1.649,3.532-2.711C313.115,411.346,312.803,412.818,312.522,414.29z
			 M314.237,407.013c-0.171,0.501-0.285,1.028-0.426,1.556c-1.331,0.963-2.417,2.261-3.718,3.305
			c0.252-0.984,0.486-1.973,0.717-2.963c0.054-0.228,0.114-0.483,0.177-0.707c0.905-0.564,1.763-1.203,2.639-1.829
			c0.348-0.021,0.684,0,1.028-0.021C314.396,406.779,314.204,407.093,314.237,407.013z M351.389,425.295
			c-0.018,0.111-0.03,0.219-0.015,0.333c0.081,0.723-0.276,1.583-1.014,2.414c-1.232,1.385-3.319,2.426-4.849,2.426l-0.432-0.012
			c-1.442,0.12-2.411-0.489-2.807-1.85c-1.958-6.846-3.202-14.009-4.399-20.948l-0.633-3.574c-0.072-0.465-0.483-0.792-0.942-0.792
			c-0.036,0-0.081,0-0.126,0.006c-1.385,0.192-2.974,0.267-4.99,0.267c-1.121-0.009-2.249-0.03-3.349-0.06l-1.838-0.036
			c-1.314,0.12-2.621,0.213-3.886,0.309l-2.459,0.186c-0.657,0.054-1.343,0.138-2.054,0.201c-2.252,0.228-4.615,0.471-6.858,0.291
			c-0.45-0.057-0.948,0.495-1.061,0.954c-0.252,0.995-0.495,2.033-0.738,3.071c-1.085,4.612-2.213,9.407-4.357,13.524
			c-0.066,0.12-0.093,0.261-0.105,0.387c-0.069,1.115-0.282,2.084-0.696,3.061c-0.078,0.267-0.228,0.546-0.519,0.93
			c-0.363,0.606-0.753,1.206-1.238,1.832c-0.897,1.16-3.43,2.303-4.54,1.496c-2.513-1.85-2.603-5.536-0.216-11.764
			c0.336-1.823,0.786-3.553,1.133-4.873c1.253-4.69,2.663-9.667,4.894-14.456c2.429-8.126,5.637-16.291,8.216-22.858
			c0.27-0.707,0.555-1.433,0.846-2.201c2.891-7.61,6.477-17.083,15.143-17.458l0.522-0.012c5.334,0.012,8.561,3.988,10.693,8.906
			c-0.012,0.12,0.024,0.21,0.102,0.264c1.556,3.655,2.531,7.8,3.326,11.209l0.512,2.159c3.326,13.617,5.985,27.623,8.144,42.949
			l0.228,0.804c0.102,0.393,0.216,0.792,0.33,1.181C351.527,424.102,351.533,424.665,351.389,425.295z M351.329,412.56
			c0.528-0.162,1.082-0.618,1.472-0.897c1.022-0.729,2.417-1.607,3.259-2.627c0.078,0.624,0.141,1.236,0.195,1.853
			c-0.711,0.528-1.334,1.187-1.985,1.781c-0.822,0.768-1.706,1.475-2.588,2.183C351.557,414.101,351.455,413.319,351.329,412.56z
			 M353.296,425.577c0.09-0.432,0.12-0.849,0.114-1.256c0.663-0.795,1.277-1.631,1.898-2.465c-0.483,1.604-1.134,3.176-2.054,4.663
			C353.305,426.201,353.32,425.889,353.296,425.577z M355.593,420.881c-0.12-0.075-0.291-0.075-0.456,0.069
			c-0.768,0.651-1.346,1.439-1.895,2.273c-0.018-0.069-0.018-0.144-0.042-0.213c-0.117-0.381-0.216-0.765-0.324-1.136l-0.039-0.135
			c0.621-0.264,1.142-0.732,1.634-1.26c0.546-0.582,1.068-1.217,1.583-1.841C355.935,419.385,355.776,420.14,355.593,420.881z
			 M356.253,417.031c-1.583,0.755-2.057,3.223-3.598,4.057c-0.126-0.878-0.258-1.718-0.396-2.579c0.81-0.423,1.493-0.999,2.129-1.67
			c0.672-0.717,1.439-1.433,2.015-2.225C356.394,415.43,356.331,416.233,356.253,417.031z M356.223,414.074
			c-1.766,0.597-2.627,2.72-4.054,3.892c-0.132-0.839-0.261-1.715-0.399-2.552c0.924-0.558,1.784-1.17,2.633-1.847
			c0.615-0.507,1.334-1.055,1.94-1.664c0.042,0.741,0.066,1.487,0.066,2.219C356.349,414.086,356.301,414.05,356.223,414.074z"/>
		<path d="M334.249,389.234c-0.756-3.457-1.526-7.026-2.441-10.528c-1.007-3.85-3.808-7.952-7.017-7.952
			c-1.457-0.009-3.508,0.867-4.99,5.034c-0.96,2.717-1.979,5.433-2.993,8.168c-1.331,3.583-2.717,7.293-3.976,10.99
			c-0.117,0.333-0.033,0.702,0.213,0.962c0.177,0.198,0.435,0.3,0.693,0.3c0.09,0,0.18-0.012,0.267-0.033
			c1.61-0.465,3.325-0.738,4.957-1.008c4.914-0.816,10-1.28,15.107-1.364c0.294,0,0.564-0.144,0.738-0.366
			c0.18-0.222,0.252-0.519,0.186-0.804L334.249,389.234z M329.949,379.2c0.846,3.206,1.553,6.492,2.261,9.701
			c-0.036,0.009-0.066-0.012-0.108,0.015c-0.144,0.066-0.264,0.156-0.39,0.225c-3.532,0-7.209,0.237-10.669,0.723
			c1.301-3.047,2.138-6.222,3.035-9.416c0.309-1.061,1.169-5.691,2.453-7.032C327.934,374.505,329.302,376.709,329.949,379.2z
			 M321.607,376.43c0.863-2.423,1.988-3.769,3.184-3.769c0.342,0,0.708,0.129,1.08,0.333c-0.714,0.804-1.248,2.087-1.455,2.615
			c-0.117,0.276-0.183,0.552-0.291,0.834c-0.968,0.132-1.949,0.513-2.891,0.999C321.361,377.104,321.487,376.763,321.607,376.43z
			 M320.924,378.307c0.969-0.324,1.955-0.63,2.906-1.001c-0.312,0.917-0.591,1.835-0.861,2.762
			c-0.312,0.081-0.624,0.207-0.929,0.381c-0.768,0.417-1.535,0.963-2.366,1.272C320.084,380.58,320.51,379.441,320.924,378.307z
			 M318.609,384.616c0.288-0.78,0.57-1.55,0.852-2.327c0.486-0.081,0.965-0.222,1.427-0.426c0.57-0.264,1.211-0.546,1.805-0.873
			c-0.321,1.161-0.648,2.33-0.983,3.484c-1.17-0.003-2.387,0.633-3.508,1.257C318.339,385.36,318.471,384.988,318.609,384.616z
			 M317.877,386.607c1.253-0.444,2.537-0.914,3.67-1.538c-0.225,0.765-0.468,1.526-0.714,2.276
			c-0.006-0.141-0.117-0.255-0.354-0.198c-1.128,0.297-2.279,0.822-3.322,1.478C317.391,387.95,317.631,387.276,317.877,386.607z
			 M316.737,389.72c1.28-0.663,2.561-1.283,3.829-1.931c0.081-0.042,0.138-0.108,0.183-0.171c-0.294,0.846-0.612,1.689-0.96,2.516
			c-1.571,0.483-2.984,1.574-4.216,2.806C315.958,391.855,316.348,390.79,316.737,389.72z M318.528,393.294
			c-0.819,0.141-1.721,0.3-2.621,0.477c1.302-0.846,2.426-1.808,3.865-2.396c0.222,0.048,0.486-0.051,0.66-0.264
			c0.531-0.153,1.103-0.273,1.763-0.3c0.399-0.006,0.804-0.048,1.199-0.066c-1.433,0.678-2.747,1.616-4.102,2.453
			C319.023,393.24,318.773,393.258,318.528,393.294z M320.986,392.973c1.017-0.549,1.982-1.155,2.843-1.862
			c0.153-0.126,0.177-0.291,0.111-0.399c0.762-0.036,1.523-0.09,2.273-0.135c-0.963,0.696-1.913,1.526-2.945,2.135
			C322.507,392.805,321.739,392.859,320.986,392.973z M327.37,390.502c0.822-0.063,1.646-0.102,2.456-0.156
			c-0.984,0.696-1.967,1.388-3.013,1.985c-0.741,0.075-1.478,0.138-2.219,0.222C325.598,391.912,326.537,391.156,327.37,390.502z
			 M328.234,392.19c1.038-0.585,2.042-1.238,3.011-1.925c0.414-0.033,0.831-0.066,1.247-0.084l0.384,1.73
			C331.323,391.956,329.773,392.058,328.234,392.19z"/>
	</g>
	<g>
		<path d="M480.839,342.651c-5.314-0.975-11.107,0.06-16.444,0.327c-8.261,0.405-13.385,1.541-19.359,6.006
			c-0.048,0.006-0.096,0.015-0.138,0.024c-1.026,0.264-1.97,1.341-2.405,2.09c-0.144,0.186-0.258,0.372-0.357,0.546
			c-0.165,0.147-0.279,0.342-0.312,0.564c-3.061,19.497-2.998,39.978-2.935,59.78c0.012,2.935,0.012,5.853,0.012,8.768
			c0,2.087,1.244,3.395,3.244,3.401h0.012c1.131,0.492,2.474,0.558,3.413,0.558c0.605,0,1.223-0.027,1.808-0.06
			c0.732-0.033,1.419-0.063,1.982-0.021c4.9,0.327,9.997-0.282,14.903-0.86c3.064-0.366,6.231-0.744,9.26-0.87
			c1.145-0.051,2.306-0.543,3.205-1.317c1.022-0.551,2.204-1.538,2.756-2.708c3.604-4.135,4.993-9.458-1.637-11.593
			c-3.742-1.199-8.132-1.199-12.018-1.199c-2.507,0-5.883-0.054-8.804,0.51c-0.099-0.039-0.24,0-0.327,0.084
			c-0.705,0.156-1.424,0.303-2.048,0.543c0.024-0.255,0.042-0.522,0.066-0.78c0.06,0.045,0.114,0.099,0.168,0.153
			c0.036,0.042,0.129-0.024,0.102-0.063c-0.09-0.252-0.171-0.48-0.228-0.747c-0.006-0.036-0.042-0.063-0.075-0.084
			c0.093-0.528,0.153-1.1,0.153-1.751c0.024-4.267,0.597-8.666,0.336-12.93c0.909,0.066,1.838,0.108,2.855,0.114c0,0,0,0,0.012,0
			c3.206,0,6.459-0.291,9.332-0.546c0.938-0.087,1.853-0.168,2.711-0.243c5.847-0.45,9.775-2.612,11.275-6.114
			c3.208-3.829,4.807-8.924-1.319-11.092c-3.059-1.085-6.741-0.837-9.923-0.705c-2.528,0.111-10.744-0.21-13.448,1.556
			c0.198-5.077,0.734-10.195,0.477-15.272c0.861-0.042,1.745-0.084,2.564-0.084l0.336,0.018c1.697,0.012,3.388,0.093,5.085,0.174
			c0.917,0.048,1.841,0.093,2.771,0.132c0.617,0.015,1.31,0.039,2.039,0.039c1.709,0.009,5.811-0.03,8.726-1.883
			c4.096-1.206,7.958-3.32,9.005-7.766C488.683,345.035,484.179,343.253,480.839,342.651z M485.738,349.299
			c-1.26,1.034-2.696,1.829-3.994,2.806c0.033-0.618-0.012-1.202-0.195-1.721c1.592-0.945,3.074-2.024,4.285-3.437
			C486.14,347.673,486.056,348.474,485.738,349.299z M485.652,346.588c-0.039,0.012-0.075,0.024-0.111,0.06
			c-1.241,1.295-2.759,2.225-4.24,3.215c-0.087-0.153-0.156-0.318-0.264-0.459c-0.054-0.072-0.132-0.132-0.192-0.195
			c0.06-0.018,0.12-0.027,0.18-0.078c1.302-1.139,2.693-2.177,3.979-3.344C485.301,346.036,485.484,346.306,485.652,346.588z
			 M480.656,344.102c0.555,0.117,1.112,0.213,1.655,0.369c0.084,0.027,0.159,0.057,0.243,0.078
			c-1.373,0.855-2.714,1.865-3.742,3.071c-0.063,0.09-0.078,0.162-0.084,0.225c-0.543-0.195-1.133-0.366-1.808-0.48
			c0.432-0.441,0.876-0.9,1.35-1.311c0.777-0.666,1.64-1.217,2.387-1.925C480.656,344.117,480.656,344.111,480.656,344.102z
			 M476.788,343.571c1.046,0.063,2.09,0.189,3.115,0.369c-0.917,0.444-1.751,1.035-2.531,1.673
			c-0.576,0.471-1.182,0.987-1.625,1.607c-0.57-0.051-1.148-0.099-1.799-0.099c-0.585,0-1.134,0.015-1.631,0.039
			C473.834,346,475.357,344.831,476.788,343.571z M471.993,343.58c0.462-0.03,0.927-0.03,1.397-0.045
			c-1.421,0.878-2.78,1.859-4.018,2.978c-0.342,0.309-0.042,0.729,0.336,0.426c1.493-1.178,3.017-2.33,4.576-3.434
			c0.564-0.009,1.122,0.012,1.673,0.03c-1.643,1.163-3.395,2.252-4.768,3.706c-1.283,0.09-2.564,0.174-3.844,0.3
			c-0.711,0.066-1.428,0.108-2.141,0.168c1.727-1.358,3.257-2.945,5.17-4.03C470.913,343.643,471.456,343.619,471.993,343.58z
			 M469.036,343.757c-1.631,1.055-3.011,2.567-4.33,3.943c-0.024,0.015-0.024,0.033-0.024,0.048c-0.792,0.066-1.577,0.15-2.369,0.18
			c-0.198,0.012-0.42,0.012-0.621,0.012c1.784-1.2,3.733-2.39,5.104-4.066C467.543,343.835,468.29,343.793,469.036,343.757z
			 M466.092,343.916c-1.523,1.52-3.544,2.42-5.056,3.961c-0.024,0.03-0.021,0.051-0.03,0.078c-0.846,0.006-1.679,0.03-2.531,0.03
			c1.67-1.136,3.286-2.498,4.708-3.907C464.155,344.021,465.126,343.97,466.092,343.916z M459.807,344.297
			c0.941-0.078,1.901-0.12,2.855-0.186c-1.649,1.331-3.484,2.477-5.044,3.892c-0.15,0-0.294,0.006-0.444,0.006
			c-0.759,0-1.523,0.042-2.291,0.048c0.486-0.516,0.948-1.044,1.439-1.544c0.792-0.795,1.673-1.487,2.603-2.126
			C459.216,344.366,459.507,344.33,459.807,344.297z M457.954,344.489c-0.51,0.336-0.983,0.714-1.455,1.115
			c-0.839,0.738-1.709,1.58-2.444,2.471c-0.875,0.024-1.757,0.009-2.63,0.063c0.489-0.531,0.992-1.04,1.538-1.538
			c0.666-0.585,1.361-1.149,2.048-1.712C455.98,344.717,456.964,344.591,457.954,344.489z M447.453,347.928
			c2.033-1.553,4.3-2.372,6.675-2.861c-1.295,0.897-2.579,1.934-3.547,3.137c-1.418,0.111-2.816,0.252-4.189,0.51
			C446.742,348.456,447.098,348.198,447.453,347.928z M480.149,410.608c-0.051,0.024-0.105,0.048-0.144,0.099
			c-0.465,0.672-0.887,1.313-1.169,2.081c-0.15,0.465,0.558,0.375,0.699,0.069c0.261-0.588,0.597-1.136,0.939-1.685
			c0.612,1.421,0.243,3.188-0.588,4.933c-0.054-1.295-0.408-2.366-1.104-3.184c-0.261-0.303-0.582-0.522-0.894-0.741
			c0.12-0.018,0.258-0.069,0.324-0.192c0.429-0.744,0.858-1.455,1.155-2.243C479.693,410.005,479.939,410.302,480.149,410.608z
			 M478.89,409.411c-0.3,0.861-0.84,1.628-1.235,2.447c-0.027,0.057-0.006,0.084-0.012,0.123c-0.45-0.27-0.948-0.474-1.472-0.633
			c0.414-0.864,0.824-1.73,1.178-2.63C477.966,408.911,478.452,409.15,478.89,409.411z M476.911,408.593
			c-0.432,0.873-0.9,1.724-1.28,2.621c-0.603-0.144-1.245-0.252-1.922-0.318c0.48-0.876,0.945-1.757,1.206-2.723
			C475.585,408.287,476.257,408.428,476.911,408.593z M474.278,408.041c-0.384,0.981-0.968,1.841-1.358,2.795
			c-0.786-0.039-1.592-0.048-2.396-0.054c-0.042,0-0.078,0-0.12,0c0.627-0.954,1.133-1.955,1.355-3.077
			C472.599,407.801,473.444,407.912,474.278,408.041z M470.08,407.513c0.378,0.03,0.75,0.096,1.121,0.129
			c-0.369,1.119-1.019,2.084-1.568,3.125c-0.369-0.015-0.756-0.015-1.119-0.027c-0.132-0.006-0.258,0-0.39-0.006
			c0.582-1.085,1.211-2.132,1.754-3.239C469.945,407.501,470.008,407.501,470.08,407.513z M469.264,407.462
			c-0.654,1.077-1.367,2.099-1.844,3.26c-0.654-0.006-1.319-0.021-1.967-0.033c0.789-1.028,1.562-2.15,2.021-3.317
			C468.062,407.381,468.665,407.429,469.264,407.462z M466.721,407.381c-0.738,1.097-1.634,2.15-2.285,3.292
			c-0.357,0-0.738-0.018-1.092-0.018c0.618-1.071,1.233-2.153,1.781-3.266C465.66,407.372,466.188,407.381,466.721,407.381z
			 M464.416,407.417c-0.747,1.026-1.439,2.099-1.946,3.25c-0.564,0.006-1.128,0.006-1.67,0.018c0.627-1.037,1.197-2.117,1.709-3.202
			C463.141,407.453,463.777,407.435,464.416,407.417z M461.828,407.519c-0.696,0.992-1.415,2.075-1.826,3.188
			c-0.897,0.033-1.823,0.033-2.672,0.09c0.156-0.375,0.312-0.753,0.522-1.1c0.411-0.675,0.87-1.343,1.343-1.991
			C460.077,407.642,460.946,407.576,461.828,407.519z M457.024,407.852c0.504-0.03,1.032-0.063,1.535-0.105
			c-0.483,0.582-0.953,1.163-1.373,1.799c-0.24,0.354-0.579,0.824-0.864,1.322c-0.426,0.042-0.882,0.063-1.295,0.105
			c-0.114,0.009-0.222,0.045-0.342,0.063c0.249-0.537,0.51-1.055,0.861-1.583c0.345-0.513,0.672-1.038,0.98-1.568
			C456.688,407.879,456.868,407.861,457.024,407.852z M455.89,407.927c-0.474,0.666-0.966,1.316-1.412,1.991
			c-0.237,0.354-0.549,0.804-0.758,1.268c-0.3,0.057-0.609,0.09-0.912,0.159c0.498-0.861,1.055-1.679,1.463-2.579
			c0.129-0.288,0.213-0.582,0.27-0.887C454.973,407.951,455.441,407.951,455.89,407.927z M454.085,392.52
			c-0.114,1.073-0.18,2.168-0.255,3.26c-0.902,1.424-1.82,2.857-2.6,4.372c0.042-0.975,0.096-1.949,0.138-2.918
			C452.346,395.723,453.249,394.128,454.085,392.52z M451.441,395.426c0.024-0.543,0.039-1.089,0.06-1.622
			c0.618-0.99,1.199-1.982,1.757-2.99c0.33,0.045,0.633,0.105,0.972,0.138C453.333,392.418,452.328,393.903,451.441,395.426z
			 M453.72,397.102c-0.096,1.514-0.186,3.026-0.3,4.528c-0.009,0.015,0,0.036-0.009,0.048c-0.675,1.559-1.703,3.005-2.45,4.534
			c0.048-1.463,0.138-2.915,0.192-4.378C452.01,400.251,452.853,398.668,453.72,397.102z M453.387,403.099
			c0.054,2.351,0.495,4.081-1.448,6.711c-0.513,0.69-0.929,1.295-1.236,1.97c0.06-1.262,0.114-2.516,0.168-3.787
			C451.687,406.374,452.616,404.767,453.387,403.099z M482.416,376.496c-0.609,0.42-1.044,0.848-1.277,1.583
			c-0.114,0.339,0.402,0.255,0.51,0.042c0.24-0.504,0.585-0.852,0.989-1.185c0.558,1.307,0.162,2.924-0.641,4.51
			c0.054-1.295-0.282-2.405-1.014-3.301c-0.387-0.477-0.87-0.858-1.404-1.17c0.534-0.531,0.963-1.118,1.385-1.73
			C481.636,375.584,482.104,376.01,482.416,376.496z M480.563,375.063c-0.456,0.582-0.906,1.16-1.392,1.718
			c-0.438-0.207-0.882-0.384-1.343-0.516c0.51-0.507,0.867-1.08,0.876-1.862C479.351,374.571,479.957,374.802,480.563,375.063z
			 M477.123,374.043c0.381,0.057,0.753,0.162,1.125,0.252c-0.048,0.051-0.087,0.096-0.096,0.159
			c-0.144,0.651-0.516,1.143-0.929,1.628c-0.486-0.102-0.978-0.18-1.457-0.234c0.45-0.576,0.902-1.16,1.334-1.748
			C477.123,374.073,477.114,374.055,477.123,374.043z M471.411,373.821c-0.354,0.783-1.083,1.397-1.634,2.015
			c-0.147,0.165,0.069,0.324,0.216,0.18c0.758-0.642,1.517-1.301,1.868-2.201c0.456-0.018,0.924-0.048,1.394-0.048
			c1.16,0,2.312,0.069,3.451,0.225c-0.498,0.588-1.077,1.161-1.496,1.814c-0.405-0.021-0.795-0.036-1.16-0.036
			c-0.252-0.012-0.486,0-0.714,0.006c0.423-0.549,0.768-1.155,1.134-1.751c0.06-0.108-0.096-0.147-0.156-0.066
			c-0.432,0.63-0.87,1.238-1.346,1.829c-0.885,0.051-1.649,0.141-2.189,0.213c-1.274,0.201-2.585,0.315-3.901,0.399
			c0.696-0.819,1.457-1.604,2.051-2.498C469.75,373.851,470.584,373.848,471.411,373.821z M468.239,373.95
			c-0.654,0.812-1.343,1.586-1.907,2.48c-0.918,0.051-1.841,0.105-2.747,0.138c0.678-0.78,1.28-1.631,1.946-2.435
			C466.439,374.07,467.336,374.01,468.239,373.95z M464.607,374.205c-0.657,0.765-1.229,1.601-1.832,2.414
			c-0.72,0.033-1.445,0.081-2.171,0.12c0.539-0.852,1.148-1.658,1.874-2.363C463.183,374.319,463.897,374.265,464.607,374.205z
			 M461.687,374.454c-0.705,0.684-1.299,1.475-1.778,2.327c-0.573,0.036-1.151,0.051-1.727,0.102
			c0.552-0.681,1.007-1.412,1.316-2.231C460.226,374.589,460.946,374.523,461.687,374.454z M459.009,374.706
			c-0.426,0.816-0.989,1.544-1.565,2.255c-1.073,0.111-2.141,0.246-3.173,0.459c-0.684,0.081-1.358,0.168-2.021,0.273v-0.03
			c1.193-0.696,2.264-1.592,3.4-2.39c0.234,0.15,0.69-0.045,0.887-0.348C457.36,374.859,458.181,374.778,459.009,374.706z
			 M454.883,372.616c-0.819,0.9-1.649,1.793-2.474,2.705c0.051-0.882,0.099-1.778,0.147-2.66c1.05-1.424,2.207-2.771,3.112-4.282
			c-0.102,2.018-0.183,4.039-0.162,6.06c-1.16,0.729-2.12,1.736-3.211,2.57l0.063-0.84c0.939-1.121,1.823-2.306,2.762-3.421
			C455.27,372.574,455.021,372.472,454.883,372.616z M452.883,364.9c0.099-0.015,0.198-0.06,0.261-0.159
			c0.899-1.29,2.117-2.531,3.005-3.913c-0.069,0.786-0.114,1.562-0.168,2.348c-0.915,1.571-2.237,2.962-3.172,4.528
			C452.832,366.768,452.883,365.833,452.883,364.9z M452.853,361.905c0.831-1.091,1.572-2.159,2.564-3.134
			c0.219-0.012,0.438-0.012,0.654-0.018c0.006,0.09,0.063,0.159,0.228,0.123c-0.006,0.159-0.024,0.318-0.036,0.48
			c-0.909,1.709-2.399,3.02-3.383,4.669C452.877,363.314,452.88,362.6,452.853,361.905z M455.884,364.711
			c-0.063,0.851-0.102,1.697-0.156,2.54c-0.777,1.628-2.009,2.942-3.113,4.339c0.048-0.824,0.114-1.637,0.144-2.468
			C453.791,367.686,454.943,366.25,455.884,364.711z M479.687,352.945c-0.822,2.795-4.012,4.15-9.751,4.141
			c-0.707-0.003-1.373-0.021-1.973-0.051c-0.917-0.03-1.829-0.081-2.752-0.117c-1.715-0.081-3.425-0.168-5.146-0.192h-0.354
			c-1.121-0.009-2.303,0.051-3.493,0.111c-1.502,0.063-3.029,0.132-4.543,0.084c-0.279,0.012-0.546,0.111-0.738,0.315
			c-0.183,0.195-0.276,0.471-0.24,0.75c0.63,5.856,0.186,11.949-0.24,17.83l-0.126,1.832c-0.072,0.078-0.156,0.159-0.216,0.24
			c-0.174,0.198-0.018,0.381,0.168,0.357l-0.036,0.564c-0.027,0.303,0.096,0.594,0.333,0.783c0.225,0.204,0.528,0.288,0.825,0.21
			c1.013-0.216,2.045-0.351,3.166-0.495c2.852-0.567,5.88-0.69,8.816-0.81c2.531-0.093,5.134-0.201,7.683-0.597
			c0.684-0.096,1.757-0.222,2.969-0.222c2.657,0.006,4.588,0.597,5.457,1.673c0.582,0.719,0.735,1.685,0.468,2.962
			c-1.001,4.723-6.714,5.865-10.039,6.123c-0.863,0.066-1.778,0.15-2.723,0.243c-2.843,0.255-6.045,0.546-9.164,0.539l0,0
			c-2.767-0.009-5.092-0.237-7.101-0.723c-0.276-0.06-0.576,0-0.801,0.168c-0.228,0.171-0.369,0.447-0.381,0.732l-0.054,1.325
			c-0.27,7.286-0.555,14.822-0.99,22.211c-0.015,0.306,0.102,0.597,0.33,0.785c0.228,0.195,0.522,0.282,0.822,0.219
			c0.516-0.108,1.029-0.219,1.562-0.345c1.343-0.303,2.606-0.582,3.799-0.714c0.252-0.021,0.516-0.03,0.768-0.057
			c0.063,0.027,0.138,0.018,0.216-0.015c3.688-0.324,7.892-0.333,12.234-0.156c0.672,0.03,1.361,0.045,2.069,0.045
			c2.759,0.03,5.613,0.06,6.804,1.46c0.642,0.765,0.831,1.934,0.573,3.605c-0.087,0.543-0.84,1.475-2.225,2.246
			c-0.507,0.426-1.314,0.929-2.219,0.978c-3.107,0.135-6.312,0.522-9.401,0.884c-4.828,0.573-9.814,1.161-14.564,0.849
			c-0.618-0.036-1.379-0.018-2.183,0.027c-0.558,0.027-1.146,0.051-1.727,0.051c-0.801,0-1.97-0.051-2.771-0.456
			c-0.138-0.072-0.498-0.105-0.642-0.105c-0.935,0-1.331-0.447-1.331-1.478c0-2.915-0.009-5.835-0.024-8.774
			c-0.063-19.599-0.12-39.851,2.855-59.078c0.042-0.06,0.075-0.132,0.096-0.204c0.054-0.123,0.138-0.27,0.33-0.54
			c0.441-0.726,1.038-1.223,1.289-1.292c3.676-0.939,7.802-0.948,11.803-0.948c1.772,0,3.529,0,5.229-0.081
			c1.721-0.069,3.415-0.222,5.119-0.39c1.586-0.138,3.176-0.288,4.765-0.372c0.504-0.027,1.056-0.048,1.655-0.048
			c3.661,0.009,5.05,0.834,5.56,1.523C479.924,351.122,479.993,351.904,479.687,352.945z M480.479,348.843
			c-0.33-0.294-0.695-0.549-1.145-0.759c1.337-1.07,2.726-2.135,4.024-3.247c0.432,0.171,0.78,0.36,1.092,0.567
			c-1.367,1.011-2.747,2.042-3.916,3.298C480.494,348.753,480.503,348.795,480.479,348.843z M480.977,354.642
			c0.204-0.372,0.42-0.717,0.54-1.16c0.033-0.099,0.03-0.183,0.054-0.294c1.151-0.849,2.351-1.634,3.457-2.519
			C484.083,352.087,482.566,353.491,480.977,354.642z"/>
	</g>
	<g>
		<path d="M414.684,380.844c-7.683-1.874-15.728,0.204-23.479-0.546c-0.045-0.177-0.198-0.291-0.45-0.147
			c-0.039,0.03-0.078,0.051-0.126,0.075c-0.615-0.075-1.241-0.123-1.865-0.237c0.18-8.03,0.192-16.079,0.288-24.124
			c0.054-3.997,0.066-8.003,0.024-12.012c-0.048-3.685,0.426-8.33-0.48-11.91c-1.451-5.736-9.434-9.634-12.576-4.759
			c-0.102,0.063-0.198,0.099-0.294,0.174c-0.63,0.468-1.256,1.509-1.092,2.504c-2.351,4.216-2.177,9.808-2.033,14.765
			c0.03,0.792,0.054,1.571,0.063,2.357c-0.867,10.531-1.148,21.305-1.427,31.722c-0.084,2.924-0.165,5.823-0.252,8.738
			c-0.027,0.87,0,1.739,0.081,2.666c-0.525,3.184-0.066,5.751,1.382,7.61c1.568,2.033,4.273,3.208,8.054,3.526
			c4.675,0.384,9.233,0.726,13.749,0.738c4.468,0,8.351-0.318,11.895-0.996c2.312-0.444,6.225-2.039,8.789-4.423
			c0.054,0,0.108-0.018,0.153-0.051C421.083,391.513,424.243,383.162,414.684,380.844z M419.229,386.229
			c-0.06,0.015-0.129,0.015-0.198,0.072c-0.999,0.708-1.685,1.763-2.579,2.6c-0.264-0.381-0.558-0.768-0.942-1.155
			c1.08-0.929,2.147-1.871,3.232-2.789C418.99,385.36,419.134,385.794,419.229,386.229z M417.305,383.453
			c0.444,0.288,0.804,0.606,1.092,0.96c-1.341,0.627-2.414,1.721-3.445,2.819c-0.375-0.33-0.8-0.606-1.25-0.843
			c1.151-1.022,2.333-1.958,3.562-2.873C417.293,383.498,417.293,383.471,417.305,383.453z M413.928,382.091
			c0.822,0.204,1.625,0.459,2.417,0.789c0.138,0.069,0.222,0.153,0.345,0.207c-1.316,0.86-2.468,1.925-3.562,3.047
			c-1.052-0.438-2.252-0.699-3.691-0.768c1.295-1.224,2.846-2.099,4.348-3.101C413.862,382.217,413.883,382.151,413.928,382.091z
			 M411.697,381.662c0.393,0.057,0.768,0.141,1.158,0.219c-1.643,0.9-3.191,2.039-4.402,3.463c-0.771,0-1.532,0.054-2.282,0.123
			c1.694-1.323,3.529-2.387,5.346-3.571C411.616,381.815,411.667,381.743,411.697,381.662z M408.806,381.365
			c0.66,0.03,1.316,0.081,1.967,0.15c-2.114,0.993-4.036,2.435-5.724,4.054c-0.138,0.021-0.267,0.03-0.387,0.039
			c-0.678,0.072-1.319,0.138-1.931,0.186c-0.42,0.03-0.839,0.03-1.265,0.039c2.243-1.616,4.576-2.969,7.077-4.159
			C408.681,381.608,408.752,381.498,408.806,381.365z M404.489,381.255c0.972-0.009,1.961-0.009,2.951,0.03
			c-2.423,0.948-4.663,2.516-6.543,4.264c-0.12,0.105-0.144,0.213-0.144,0.309c-1.124,0.03-2.261,0.03-3.388-0.012
			c2.24-1.508,4.507-3.017,6.711-4.561C404.204,381.276,404.363,381.264,404.489,381.255z M400.896,381.479
			c0.639-0.057,1.263-0.108,1.859-0.147c-2.177,1.334-4.222,2.906-6.234,4.492c-0.756-0.03-1.526-0.048-2.294-0.09
			c2.012-1.676,4.342-2.663,6.537-4.072C400.833,381.608,400.869,381.545,400.896,381.479z M394.263,381.866
			c0.015-0.015,0.015-0.03,0.024-0.051c1.601,0.036,3.25-0.072,4.843-0.201c-2.156,0.855-4.201,2.531-5.727,4.072
			c-0.303-0.021-0.612-0.033-0.914-0.051c-1.236-0.069-2.525-0.129-3.799-0.168C390.521,384.232,392.434,383.117,394.263,381.866z
			 M392.986,381.764c-1.826,0.953-3.664,2.171-5.002,3.673c-1.272-0.039-2.537-0.063-3.742-0.039h0.006
			c1.94-1.397,4.024-2.63,5.937-4.057C391.055,381.579,392.005,381.689,392.986,381.764z M388.749,380.937v-0.081
			c0.168,0.072,0.381,0.114,0.549,0.18c-1.904,1.187-3.85,2.501-5.331,4.117c-0.102,0.111-0.078,0.207-0.012,0.255
			c-0.456,0.015-0.918,0.015-1.346,0.036c0.009-0.069,0.015-0.15,0.027-0.222c0.797-0.45,1.544-1.044,2.285-1.571
			c0.939-0.678,2.204-1.2,3.065-2.015C388.329,381.581,388.734,381.299,388.749,380.937z M387.732,361.383
			c-0.012,1.367-0.012,2.741-0.024,4.102c-1.406,1.029-2.705,2.318-3.85,3.667c0.072-1.73,0.123-3.472,0.171-5.197
			C385.286,363.176,386.56,362.291,387.732,361.383z M384.05,363.191c0.024-1.124,0.054-2.258,0.084-3.367
			c0.666-0.636,1.319-1.265,1.991-1.892c0.528-0.513,1.085-1.011,1.616-1.517c0,1.406-0.009,2.816-0.009,4.213
			C386.389,361.101,385.12,362.163,384.05,363.191z M387.708,366.493c-0.006,1.544-0.042,3.071-0.057,4.612
			c-0.879,0.228-1.76,1.065-2.3,1.595c-0.684,0.672-1.268,1.424-1.811,2.204c0.099-1.58,0.207-3.166,0.27-4.756
			C385.082,368.897,386.413,367.71,387.708,366.493z M385.492,373.641c0.639-0.678,1.412-1.08,2.144-1.559
			c-0.012,1.187-0.036,2.381-0.036,3.58c-0.834,0.396-1.559,1.085-2.207,1.712c-0.756,0.726-1.475,1.49-2.189,2.243
			c0.099-1.178,0.186-2.366,0.273-3.553C384.083,375.197,384.758,374.391,385.492,373.641z M385.369,378.418
			c0.702-0.651,1.472-1.212,2.219-1.802c-0.021,1.389-0.021,2.78-0.051,4.165c-0.921,0.267-1.796,1.034-2.51,1.571
			c-0.762,0.558-1.55,1.178-2.288,1.823c0.153-1.236,0.273-2.474,0.39-3.727C383.888,379.776,384.638,379.105,385.369,378.418z
			 M387.741,355.404c-1.299,0.957-2.486,2.183-3.595,3.43c0.018-0.39,0.027-0.785,0.033-1.169c1.031-1.251,2.276-2.297,3.445-3.418
			c0.078-0.084,0.084-0.15,0.126-0.228L387.741,355.404z M387.741,353.637c-0.105-0.147-0.336-0.192-0.585,0.015
			c-1.038,0.834-2.099,1.829-2.954,2.945c0.054-2.369,0.135-4.783,0.222-7.185c1.065-1.068,2.102-2.144,3.212-3.161
			C387.684,348.702,387.741,351.167,387.741,353.637z M387.612,345.46c-1.265,0.768-2.228,1.904-3.161,3.064
			c0.033-0.885,0.042-1.739,0.072-2.618c0.995-1.011,1.946-2.051,3.017-2.975C387.567,343.775,387.591,344.615,387.612,345.46z
			 M387.433,339.283c0.027,0.93,0.057,1.85,0.081,2.78c-1.136,0.735-2.096,1.739-2.951,2.834c0.021-0.612,0.021-1.2,0.057-1.808
			c0.773-0.89,1.718-1.571,2.675-2.312c0.267-0.21,0.246-0.75-0.192-0.606c-0.948,0.318-1.763,1.014-2.435,1.829
			c0.066-1.298,0.099-2.618,0.186-3.904c0.036-0.561,0.045-1.232,0.036-1.952c0.882-0.672,1.718-1.394,2.504-2.18
			C387.528,335.805,387.385,337.799,387.433,339.283z M387.331,333.148c-0.822,0.753-1.637,1.55-2.465,2.318
			c-0.036-0.681-0.09-1.404-0.183-2.114c0.819-0.591,1.565-1.265,2.213-2.021C387.109,331.865,387.253,332.482,387.331,333.148z
			 M386.659,330.821c-0.777,0.468-1.403,1.206-2.039,1.883c-0.114-0.636-0.234-1.275-0.408-1.883
			c0.522-0.471,1.097-0.837,1.733-1.167C386.218,330.03,386.446,330.422,386.659,330.821z M385.609,329.205
			c-0.605,0.222-1.145,0.549-1.583,1.011c-0.387-1.196-0.897-2.276-1.622-3.059c-0.453-0.483-0.951-0.819-1.496-1.031
			C382.653,326.419,384.368,327.655,385.609,329.205z M415.421,392.589c-0.81,3.02-6.252,5.88-9.638,6.525
			c-3.406,0.639-7.185,0.953-11.532,0.941c-4.435-0.009-8.954-0.348-13.587-0.723c-3.227-0.267-5.479-1.199-6.705-2.786
			c-1.119-1.446-1.448-3.547-0.981-6.246c0.012-0.078,0.018-0.168,0.012-0.258c-0.09-0.878-0.12-1.715-0.09-2.543
			c0.09-2.909,0.162-5.826,0.249-8.75c0.282-10.381,0.561-21.134,1.433-31.827c-0.015-0.768-0.036-1.556-0.06-2.357
			c-0.159-5.07-0.321-10.312,1.964-14.096c0.096-0.153,0.135-0.327,0.135-0.504c0.555-0.549,1.157-1.038,1.907-1.292
			c1.196-0.408,2.102,0.159,3.064,0.66c1.124,2.051,1.541,5.751,1.358,8.633c-0.441,6.243-0.558,12.702-0.678,18.954
			c-0.174,9.697-0.369,19.737-1.709,29.308c-0.024,0.192,0.084,0.522,0.174,0.69c0.174,0.345,0.522,0.54,0.933,0.513
			c3.14-0.249,7.062-0.087,10.699,0.126c3.433,0.189,6.99,0.39,10.492,0.144c0.629-0.048,1.295-0.111,1.991-0.189
			c1.28-0.132,2.597-0.264,3.88-0.264c2.294,0,3.898,0.468,5.038,1.463C415.241,390.013,415.781,391.279,415.421,392.589z
			 M417.284,393.084c0.237-0.917,0.261-2.132-0.417-3.493c0.942-0.675,1.727-1.586,2.492-2.471
			C419.427,389.045,418.516,391.195,417.284,393.084z"/>
	</g>
	<g>
		<path d="M285.609,350.171c-3.076-2.438-6.492-4.285-9.85-6.318c-1.859-1.143-3.667-2.345-5.481-3.559
			c-1.487-0.923-2.765-2.072-3.808-3.457c-1.997-3.272-1.931-6.45,0.162-9.542c3.538,0.45,6.819,2.9,7.313,5.68
			c0.135,0.792,0.753,1.307,1.562,1.307c0.156,0,0.318-0.027,0.48-0.066c2.699,0.933,6.105-4.264,7.142-5.73
			c0.123-0.159,0.222-0.324,0.327-0.495c-1.178,1.182-2.762,2.174-4.231,3.05c0.324-0.609,0.528-1.163,0.687-1.706
			c0.741-0.696,1.493-1.382,2.288-2.012c0.753-0.591,1.601-1.106,2.357-1.685c-0.231,0.761-0.588,1.55-1.1,2.354
			c0.783-0.792,1.319-1.685,1.535-2.684c0.051-0.033,0.105-0.069,0.168-0.114c0.129-0.123,0.297-0.483,0-0.528
			c-0.021-0.009-0.039,0-0.063,0c0.024-0.48-0.024-0.98-0.198-1.523c0.03,0.513-0.024,1.029-0.123,1.556
			c-0.879,0.096-1.685,0.876-2.336,1.409c-0.792,0.666-1.547,1.367-2.297,2.087c0.081-0.66,0.087-1.256,0.018-1.787
			c1.52-1.212,3.014-2.405,4.642-3.484c0.027,0.075,0.072,0.15,0.096,0.219c0-0.093-0.036-0.189-0.048-0.285
			c0.132-0.129,0.108-0.342-0.054-0.375c-0.444-2.786-2.63-5.164-5.658-6.96c-11.194-6.651-23.101,0.351-28.373,10.555
			c-4.675,6.849-4.525,15.179,0.624,22.364c2.969,4.135,7.904,7.146,12.258,9.799c1.388,0.843,2.744,1.664,3.865,2.405l4.894,4.48
			c1.368,1.781,2.075,3.367,2.204,4.828c-2.552,4.078-8.483,5.368-11.886,1.967c-1.014-1.007-1.652-1.709-2.996-2.312
			c-1.649-0.75-4.432-0.654-5.982,0.267c-1.319,0.786-4.873,3.622-4.591,5.721c-1.241,2.699-1.241,5.625,0.072,8.285
			c1.667,3.382,5.272,6.009,9.416,6.855c1.571,0.315,3.173,0.483,4.732,0.489c3.401,0.012,6.705-0.768,9.806-2.195
			c10.843-1.871,20.702-11.209,20.414-22.621C293.451,360.768,290.041,353.691,285.609,350.171z M292.374,367.938
			c-2.114,1.352-4.087,3.166-5.76,5.133c0.09-0.588,0.198-1.166,0.24-1.769c0.387-0.381,0.738-0.816,0.983-1.059
			c0.516-0.531,1.02-1.079,1.538-1.61c0.885-0.923,2.015-1.715,2.792-2.726C292.281,366.571,292.335,367.254,292.374,367.938z
			 M292.095,365.482c-0.024,0.003-0.033-0.027-0.066-0.006c-1.373,0.687-2.54,2.132-3.554,3.281
			c-0.429,0.483-0.848,0.965-1.286,1.436c-0.072,0.081-0.174,0.216-0.291,0.366c0.015-0.651,0.015-1.311-0.033-1.967
			c0.795-0.72,1.577-1.445,2.369-2.156c0.84-0.747,1.79-1.406,2.657-2.108C291.969,364.702,292.023,365.095,292.095,365.482z
			 M291.717,363.638c-1.883,0.944-3.508,2.789-4.888,4.405c-0.063-0.621-0.138-1.232-0.246-1.844
			c1.655-1.361,2.993-3.041,4.666-4.39C291.444,362.405,291.561,363.026,291.717,363.638z M291.016,361.155
			c-1.823,1.136-3.023,3.101-4.522,4.615c-0.093-0.471-0.18-0.953-0.306-1.433c1.517-1.355,2.96-2.798,4.471-4.165
			C290.788,360.492,290.892,360.828,291.016,361.155z M290.458,359.755c-1.661,1.182-3.01,2.816-4.33,4.36
			c-0.237-0.849-0.519-1.697-0.849-2.546c1.334-1.382,2.678-2.693,4.225-3.835C289.858,358.387,290.17,359.065,290.458,359.755z
			 M289.204,357.206c-1.637,0.992-2.891,2.471-4.108,3.943c-0.258-0.588-0.471-1.181-0.771-1.76c1.245-1.28,2.894-2.162,4.237-3.337
			C288.803,356.42,288.986,356.819,289.204,357.206z M287.04,353.919c0.444,0.546,0.851,1.112,1.241,1.688
			c-1.061,0.732-2.108,1.463-3.113,2.273c-0.363,0.285-0.765,0.612-1.124,0.98c-0.297-0.543-0.543-1.092-0.879-1.622
			c1.26-1.139,2.543-2.243,3.874-3.313V353.919z M286.638,353.443c-1.373,0.923-2.615,2.102-3.754,3.334
			c-0.258-0.39-0.552-0.771-0.87-1.128c1.409-0.879,2.696-1.943,4.006-2.933C286.236,352.957,286.431,353.203,286.638,353.443z
			 M285.624,352.318c-1.367,0.878-2.603,1.97-3.85,3.013c-0.414-0.48-0.87-0.933-1.337-1.376c1.295-0.999,2.54-2.006,3.916-2.906
			C284.797,351.458,285.204,351.88,285.624,352.318z M283.243,350.057c0.222,0.177,0.42,0.387,0.633,0.576
			c-1.412,0.738-2.6,1.889-3.766,3.005c-0.267-0.249-0.519-0.522-0.8-0.758c1.067-1.143,2.378-1.922,3.784-2.651
			C283.165,350.189,283.213,350.126,283.243,350.057z M282.884,349.79c-1.478,0.51-2.972,1.499-3.874,2.819
			c-0.456-0.369-0.911-0.729-1.379-1.077c1.236-0.944,2.45-1.937,3.592-2.984C281.804,348.933,282.344,349.364,282.884,349.79z
			 M279.693,347.553c0.192,0.114,0.393,0.234,0.57,0.345c0.174,0.105,0.333,0.237,0.51,0.345c-1.283,0.852-2.411,1.946-3.547,2.996
			c-0.267-0.201-0.534-0.402-0.807-0.591c1.181-0.759,2.204-1.892,3.223-2.726C279.774,347.814,279.774,347.64,279.693,347.553z
			 M277.276,346.114c0.834,0.498,1.598,0.957,2.333,1.392c-0.051-0.012-0.102,0-0.168,0.036c-1.283,0.777-2.261,1.967-3.476,2.813
			c-0.705-0.471-1.418-0.951-2.138-1.4c1.163-0.897,2.225-1.94,3.418-2.798C277.255,346.147,277.255,346.129,277.276,346.114z
			 M273.105,343.487c1.274,0.863,2.57,1.661,3.784,2.399c-1.364,0.681-2.387,1.799-3.514,2.792c-0.411-0.258-0.819-0.507-1.221-0.75
			c0.96-0.759,1.865-1.592,2.951-2.201c0.234-0.129,0.297-0.594-0.066-0.471c-1.338,0.456-2.27,1.493-3.274,2.435
			c-0.681-0.417-1.326-0.816-1.961-1.217c1.031-0.923,2.135-1.751,3.166-2.681C273.09,343.688,273.114,343.58,273.105,343.487z
			 M269.483,340.825c1.046,0.882,2.192,1.7,3.355,2.495c-0.069,0.006-0.129,0.018-0.198,0.057c-1.223,0.801-2.324,1.73-3.286,2.822
			c-0.402-0.264-0.777-0.564-1.167-0.834c0.903-0.738,1.808-1.469,2.693-2.225c0.312-0.276,0.015-0.663-0.303-0.39
			c-0.917,0.771-1.811,1.58-2.701,2.384c-0.513-0.369-1.035-0.72-1.55-1.1c1.052-0.929,1.967-1.991,2.993-2.935
			C269.423,341.013,269.468,340.92,269.483,340.825z M269.162,340.548c-0.072,0.006-0.132,0.018-0.21,0.072
			c-1.205,0.875-2.027,2.078-3.022,3.125c-0.282-0.21-0.582-0.402-0.864-0.624c1.068-1.016,2.099-2.084,3.143-3.103
			c0.096-0.096,0.09-0.198,0.036-0.267C268.538,340.018,268.85,340.282,269.162,340.548z M268.223,339.715
			c-0.063-0.06-0.168-0.078-0.279-0.024c-1.313,0.716-2.249,1.985-3.227,3.154c-0.3-0.249-0.636-0.468-0.926-0.729
			c1.055-0.915,2.054-1.904,3.091-2.834c0.303-0.27,0.042-0.576-0.282-0.363c-1.163,0.78-2.174,1.868-3.083,2.962
			c-0.588-0.543-1.151-1.094-1.643-1.679c1.169-1.319,2.231-2.582,3.688-3.625C266.235,337.679,267.177,338.719,268.223,339.715z
			 M265.279,336.099c-1.631,0.624-2.675,2.339-3.71,3.742c-0.408-0.516-0.809-1.041-1.139-1.583c1.265-1.47,2.561-2.831,4.042-4.087
			C264.64,334.839,264.928,335.472,265.279,336.099z M264.436,330.521c-0.06,0-0.141,0.027-0.216,0.09
			c-1.517,1.236-2.945,2.567-4.264,4.024c-0.336,0.366,0.204,0.597,0.486,0.288c1.223-1.334,2.564-2.531,3.874-3.778
			c-0.174,0.897-0.15,1.763,0.033,2.609c-0.021,0.012-0.036,0-0.06,0.021c-1.664,1.038-2.87,2.624-4.036,4.177
			c-0.693-1.283-1.121-2.648-1.091-4.144c0.033-0.021,0.069-0.024,0.087-0.054c1.691-1.793,3.475-3.215,5.416-4.711
			c0.174-0.138,0.162-0.519-0.138-0.405c-2.159,0.798-3.934,2.75-5.331,4.564l-0.009,0.009c0.033-0.375,0.093-0.759,0.183-1.151
			c0.168-0.651,0.381-1.194,0.63-1.688c0.456-0.366,0.942-0.672,1.265-0.917c0.861-0.633,1.781-1.17,2.609-1.838
			c0.105-0.081,0.132-0.177,0.12-0.261c0.552-0.114,1.082-0.156,1.523-0.156c0.24,0.009,0.483,0.042,0.717,0.06
			C265.324,328.371,264.745,329.463,264.436,330.521z M281.378,318.656c0.27,0.222,0.54,0.426,0.783,0.675
			c1.245,1.151,2.015,2.207,2.465,3.166c-1.772,0.645-3.175,2.039-4.549,3.335c-0.108-0.465-0.27-0.924-0.468-1.37
			c1.17-1.112,2.549-1.847,3.814-2.846c0.132-0.105,0.201-0.432-0.072-0.408c-1.496,0.153-2.96,1.577-3.964,2.795
			c-0.438-0.828-1.02-1.625-1.745-2.381c1.163-0.855,2.273-1.766,3.508-2.54C281.324,318.974,281.384,318.806,281.378,318.656z
			 M279.321,317.142c0.636,0.399,1.245,0.843,1.829,1.313c-0.06,0.006-0.108-0.006-0.189,0.036
			c-1.377,0.719-2.471,1.793-3.649,2.779c-0.477-0.456-1.002-0.885-1.583-1.298C276.874,318.962,278.02,317.984,279.321,317.142z
			 M278.302,316.503c0.174,0.099,0.327,0.213,0.504,0.309c-1.367,0.684-2.474,1.763-3.556,2.843
			c-0.624-0.405-1.274-0.795-1.991-1.143c1.235-0.963,2.555-1.748,3.883-2.549C277.531,316.146,277.921,316.296,278.302,316.503z
			 M276.517,315.666c-1.343,0.708-2.594,1.562-3.64,2.651c-0.093-0.048-0.171-0.096-0.267-0.135
			c-0.882-0.393-1.754-0.687-2.615-0.915c1.211-0.861,2.423-1.739,3.634-2.609C274.601,314.908,275.564,315.258,276.517,315.666z
			 M271.543,314.275c0.336,0.033,0.666,0.114,1.014,0.168c-1.236,0.666-2.312,1.691-3.281,2.699
			c-0.555-0.12-1.116-0.249-1.661-0.303c0.189-0.141,0.384-0.264,0.57-0.402C269.252,315.606,270.403,314.961,271.543,314.275z
			 M270.019,314.206c-1.178,0.666-2.249,1.637-3.286,2.552c-0.552-0.027-1.104-0.027-1.643,0.006
			c1.236-0.855,2.486-1.691,3.721-2.57C269.222,314.164,269.621,314.206,270.019,314.206z M264.997,314.995
			c0.414-0.123,0.782-0.288,1.214-0.399c0.402-0.096,0.792-0.159,1.181-0.222c-1.211,0.666-2.339,1.538-3.388,2.465
			c-0.851,0.117-1.697,0.306-2.531,0.585c0.372-0.354,0.711-0.666,0.771-0.714C263.093,316.026,264.046,315.507,264.997,314.995z
			 M261.905,316.158c-0.12,0.108-0.264,0.204-0.393,0.309c-0.252,0.219-1.07,0.914-1.418,1.511c-1.925,0.87-3.826,2.132-5.667,3.877
			C256.394,319.456,258.898,317.544,261.905,316.158z M267.812,374.91c-0.486,0.489-0.905,1.04-1.247,1.634
			c-0.156,0.288,0.234,0.327,0.378,0.144c0.642-0.705,1.361-1.304,2.051-1.946c0.474-0.078,0.939-0.207,1.403-0.351
			c-0.519,0.558-0.95,1.163-1.307,1.811c-0.492,0.252-0.996,0.456-1.49,0.579c-0.894,0.21-1.94,0.324-3.037,0.324
			c-0.522,0-1.026-0.057-1.523-0.105c0.629-0.762,1.295-1.469,2.045-2.111C266.004,375.009,266.943,374.973,267.812,374.91z
			 M262.997,374.223c0.348,0.219,0.734,0.378,1.139,0.492c-0.726,0.621-1.295,1.403-1.823,2.207
			c-0.582-0.09-1.145-0.204-1.679-0.354C261.222,375.575,262.184,374.973,262.997,374.223z M262.382,373.734
			c0.024,0.033,0.054,0.048,0.087,0.069c-0.948,0.696-1.799,1.649-2.246,2.663c-0.561-0.183-1.107-0.387-1.577-0.642
			c-0.009-0.018-0.039-0.048-0.045-0.066c0.762-1.178,1.721-2.132,2.804-3.001C261.731,373.081,262.046,373.398,262.382,373.734z
			 M260.841,372.214c-1.1,0.774-1.967,1.841-2.609,3.041c-0.279-0.381-0.561-0.768-0.86-1.182l-0.396-0.552
			c-0.063-0.093-0.153-0.138-0.222-0.222c0.894-0.738,1.769-1.484,2.684-2.198C259.938,371.407,260.397,371.782,260.841,372.214z
			 M257.485,370.424c0.534,0.048,1.007,0.183,1.433,0.366c-0.978,0.525-1.835,1.265-2.627,2.066
			c-0.372-0.282-0.78-0.498-1.241-0.594C255.701,371.752,256.754,370.973,257.485,370.424z M256.25,370.469
			c-0.396,0.306-0.773,0.636-1.136,0.977c-0.219,0.189-0.495,0.459-0.717,0.738c-0.015,0-0.03-0.003-0.048-0.003
			c-0.9,0-1.823,0.324-2.651,0.801C253.413,371.59,255.671,370.595,256.25,370.469z M268.862,388.532c-0.012,0-0.021,0-0.027,0
			c-0.015,0-0.024,0.018-0.033,0.018c-3.154,0.846-6.453,0.989-9.775,0.306c-3.574-0.726-6.669-2.954-8.078-5.818
			c-0.762-1.541-1.373-3.979,0.012-6.816c0.462-0.951,2.123-2.123,3.388-2.123c0.474,0,0.81,0.165,1.07,0.534l0.387,0.543
			c0.498,0.708,0.972,1.367,1.457,1.991c0.075,0.096,0.174,0.189,0.282,0.24c1.835,1.025,4.39,1.613,7.011,1.622
			c1.245,0,2.456-0.132,3.493-0.387c0.846-0.21,1.7-0.594,2.54-1.077c1.556-1.28,3.395-2.576,4.432-4.297
			c1.097-1.841,1.253-3.895,0.89-5.919c-0.456-1.116-1.148-2.297-2.105-3.508l-5.107-4.705c-1.277-0.84-2.639-1.682-4.048-2.54
			c-4.405-2.678-8.966-5.448-11.707-9.275c-5.188-7.233-4.813-15.764,0.995-22.268c5.667-6.369,11.43-8.018,17.884-5.118
			c3.55,1.586,5.88,3.898,6.387,6.339c0.402,1.901-0.294,3.856-2.063,5.799c-0.069,0.066-0.237,0.168-0.39,0.222
			c-0.974-4.198-6.003-7.005-10.234-7.011c-4.075-0.006-7.074,2.357-8.018,6.336c-1.919,8.048,6.378,13.353,10.84,16.207
			c0.785,0.51,1.634,1.014,2.501,1.544c3.85,2.348,8.216,5.007,10.519,8.57c3.73,5.763,6.003,15.005,0.174,22.109
			C277.987,384.394,273.588,387.273,268.862,388.532z M277.102,386.769c1.397-0.981,2.705-2.153,3.967-3.43
			c0.771-0.519,1.634-0.96,2.39-1.487c1.82-1.253,3.844-2.201,5.628-3.532C286.206,382.181,281.774,385.069,277.102,386.769z
			 M289.345,377.953c0-0.192-0.141-0.351-0.39-0.21c-2.012,1.11-3.979,2.345-5.856,3.658c-0.162,0.108-0.342,0.228-0.519,0.342
			c0.147-0.174,0.303-0.3,0.441-0.48c0.3-0.36,0.552-0.75,0.816-1.143c0.666-0.501,1.323-1.05,1.967-1.499
			c1.778-1.214,3.592-2.438,5.319-3.733C290.656,375.98,290.038,376.985,289.345,377.953z M291.549,373.926
			c-1.661,0.549-3.074,1.91-4.462,2.944c-0.786,0.597-1.571,1.19-2.363,1.784c0.204-0.372,0.417-0.738,0.594-1.121
			c0.9-0.87,1.793-1.718,2.705-2.576c1.373-1.289,3.118-2.372,4.234-3.916c0.012-0.021,0.012-0.045,0.024-0.069
			C292.137,372.001,291.891,372.981,291.549,373.926z M292.296,370.837c-0.036-0.105-0.18-0.144-0.333-0.048
			c-2.351,1.568-4.273,3.613-6.21,5.655c0.297-0.804,0.555-1.634,0.732-2.489c1.901-1.922,4.051-3.532,5.946-5.448v0.003
			C292.455,369.311,292.398,370.082,292.296,370.837z"/>
	</g>
</g>
</svg>
