<?xml version="1.0" encoding="utf-8"?>
<!-- Generator: Adobe Illustrator 17.0.0, SVG Export Plug-In . SVG Version: 6.00 Build 0)  -->
<!DOCTYPE svg PUBLIC "-//W3C//DTD SVG 1.1//EN" "http://www.w3.org/Graphics/SVG/1.1/DTD/svg11.dtd">
<svg version="1.1" id="Layer_1" xmlns="http://www.w3.org/2000/svg" xmlns:xlink="http://www.w3.org/1999/xlink" x="0px" y="0px"
	 width="800px" height="600px" viewBox="0 0 800 600" enable-background="new 0 0 800 600" xml:space="preserve">
<g>
	<g>
		<g>
			<path fill="#231F20" d="M297.395,397.328c0,6.413,9.654,11.613,21.568,11.613c11.91,0,21.566-5.2,21.566-11.613
				c0-6.413-9.656-11.612-21.566-11.612C307.049,385.715,297.395,390.915,297.395,397.328z"/>
		</g>
		<g>
			<path fill="#231F20" d="M370.949,354.196c0,0-39.903,103.216-106.818,3.673C264.13,357.869,316.753,394.013,370.949,354.196z"/>
		</g>
		<g>
			<path fill="#FFFFFF" d="M374.543,273.036v79.637c0,0-24.885,27.79-55.165,26.131c0,0,6.223-57.653-8.711-110.746l48.528-9.539
				C359.195,258.518,377.86,267.644,374.543,273.036z"/>
			<path fill="#231F20" d="M321.999,380.934c-0.908,0-1.815-0.024-2.733-0.077l-2.166-0.116l0.233-2.158
				c0.062-0.571,6.001-57.887-8.647-109.967l-0.603-2.146l51.393-10.106l0.623,0.305c2.483,1.213,14.96,7.57,16.676,13.489
				c0.344,1.185,0.283,2.339-0.175,3.375v79.927l-0.525,0.587C375.092,355.145,351.655,380.934,321.999,380.934z M321.627,376.815
				c0.125,0.004,0.247,0.004,0.372,0.004c25.506,0,46.907-21.208,50.487-24.958v-79.408l0.305-0.494
				c0.056-0.093,0.151-0.249,0.032-0.655c-0.86-2.97-8.448-7.875-13.917-10.632l-45.667,8.977
				C325.776,316.076,322.549,365.857,321.627,376.815z"/>
		</g>
		<g>
			<polygon fill="#231F20" points="311.497,273.45 362.513,262.251 337.628,250.639 299.471,263.911 			"/>
		</g>
		<g>
			<path fill="#231F20" d="M320.964,379.728c0,0,7.954-130.335-24.399-115.404l-33.181,92.91
				C263.385,357.234,296.907,387.19,320.964,379.728z"/>
		</g>
		<g>
			<path fill="#FFFFFF" d="M350.488,264.743c0,0,8.707,17.419,2.901,26.958l-12.029,3.733v-4.975l9.539-1.664
				C350.9,288.796,357.122,283.821,350.488,264.743z"/>
		</g>
		<g>
			<path fill="#231F20" d="M350.488,264.743c0,0,7.464,16.587,0,25.508l-8.505,1.45c0,0,4.354-12.649-4.149-23.643L350.488,264.743z
				"/>
		</g>
	</g>
	<g>
		<g>
			<path fill="#231F20" d="M514.785,239.994c0,0,12.451,11.496-5.614,21.228L482.961,281.7l-3.134,0.342l4.928-45.137
				C484.755,236.904,503.561,234.847,514.785,239.994z"/>
		</g>
		<g>
			<path fill="#231F20" d="M416.61,315.151c-0.432,2.716,1.447,4.922,4.191,4.93l50.519,0.093c2.742,0.004,5.316-2.194,5.75-4.915
				l11.464-72.187c0.434-2.72-1.445-4.926-4.183-4.934l-50.521-0.093c-2.747-0.004-5.322,2.198-5.754,4.914L416.61,315.151z"/>
		</g>
		<g>
			<path fill="#FFFFFF" d="M433.452,300.79c-0.289,1.813,0.799,3.255,2.435,3.227l30.024-0.51c1.633-0.028,3.186-1.519,3.474-3.327
				l7.635-48.066c0.287-1.808-0.804-3.251-2.431-3.227l-30.03,0.514c-1.631,0.024-3.186,1.515-3.474,3.327L433.452,300.79z"/>
		</g>
		<g>
			<path fill="#231F20" d="M425.321,276.183c0,0-8.691,34.882-5.127,42.858l-155.22-109.485c0,0-2.827-21.867,7.476-39.13
				L425.321,276.183z"/>
		</g>
		<g>
			<path fill="#231F20" d="M514.785,239.994l-32.919-0.751L287.231,135.54c0,0,0.926-9.374,39.013,1.153L514.785,239.994z"/>
		</g>
		<g>
			<path fill="#FFFFFF" d="M289.218,133.611c0,0-17.742,16.503-21.451,39.849l157.38,103.815c0,0,8.563-9.841,21.399-7.803
				c0,0,21.341,3.11,28.288-19.444c0,0,3.848-13.666,11.633-12.432L289.218,133.611z"/>
			<path fill="#231F20" d="M425.512,279.975l-1.499-0.984L265.527,174.449l0.209-1.31c3.775-23.776,21.335-40.339,22.082-41.034
				l1.069-0.992l1.292,0.679l208.245,109.782l-12.278-1.945c-4.973-0.796-8.489,7.964-9.33,10.958
				c-7.543,24.479-30.565,20.919-30.567,20.923c-1.079-0.173-2.147-0.257-3.198-0.257c-9.758,0-16.29,7.305-16.354,7.378
				L425.512,279.975z M270.021,172.484l154.853,102.147c2.632-2.451,9.148-7.494,18.177-7.494c1.266,0,2.552,0.1,3.819,0.302
				c0.181,0.044,19.663,2.547,25.998-18.018c0.307-1.093,2.732-9.162,7.89-12.509L289.598,136.139
				C285.923,139.937,273.428,153.98,270.021,172.484z"/>
		</g>
		<g>
			<path fill="#FFFFFF" d="M348.559,251.808l-22.821-14.964l-5.276,14.703l40.813,31.262l0.615-3.894
				C361.89,278.915,344.629,268.616,348.559,251.808z"/>
		</g>
	</g>
</g>
</svg>
