<?xml version="1.0" encoding="utf-8"?>
<!-- Generator: Adobe Illustrator 17.0.0, SVG Export Plug-In . SVG Version: 6.00 Build 0)  -->
<!DOCTYPE svg PUBLIC "-//W3C//DTD SVG 1.1//EN" "http://www.w3.org/Graphics/SVG/1.1/DTD/svg11.dtd">
<svg version="1.1" id="Layer_1" xmlns="http://www.w3.org/2000/svg" xmlns:xlink="http://www.w3.org/1999/xlink" x="0px" y="0px"
	 width="800px" height="600px" viewBox="0 0 800 600" enable-background="new 0 0 800 600" xml:space="preserve">
<g>
	<path fill-rule="evenodd" clip-rule="evenodd" d="M348.334,430.051c51.77-22.148,96.704-6.045,139.716,20.763
		c-36.874-8.165-73.936-14.778-112.234-10.58c20.6-5.377,44.586-7.199,73.538-3.816C416.849,424.126,382.791,425.35,348.334,430.051
		L348.334,430.051z"/>
	<path fill-rule="evenodd" clip-rule="evenodd" d="M536.814,337.13c13.331,38.302,3.939,77.525-32.867,117.857
		c4.18-8.742,7.563-16.934,3.992-19.425c-78.373-54.577-146.839-52.055-205.866-4.985c-1.771,1.409-1.014,4.138-0.155,6.413
		c3.308,8.77,11.189,13.848,18.853,19.13c-29.642-12.274-42.738-36.395-49.85-64.805c6.506,12.322,11.266,26.048,21.671,35.243
		c1.274,1.124,3.663,1.11,5.973-1.064c44.847-42.187,110.097-72.713,227.664-72.623c2.737,0.005,6.063,1.468,8.214-0.222
		C537.029,350.614,536.227,343.268,536.814,337.13L536.814,337.13z"/>
	<path fill-rule="evenodd" clip-rule="evenodd" fill="#FFFFFF" d="M361.669,389.241c18.728-9.138,38.415-16.171,59.504-20.114
		c1.285,5.933,1.542,12.245,0.773,18.928C403.365,385.205,382.865,386.475,361.669,389.241L361.669,389.241z"/>
	<path fill-rule="evenodd" clip-rule="evenodd" fill="#ECECED" d="M361.669,389.241c18.728-9.138,38.415-16.171,59.504-20.114
		c0.484,2.221,0.817,4.505,1.016,6.832C416.054,374.525,380.586,382.198,361.669,389.241L361.669,389.241z"/>
	<path fill-rule="evenodd" clip-rule="evenodd" fill="#FFFFFF" d="M429.07,367.817c0.506,5.783-0.65,13.017-0.193,17.706
		c0.16,1.637,2.078,3.247,6.133,4.407c14.088,4.017,25.906,9.037,36.375,14.157c2.857,1.397,7.106-0.439,8.638-4.543
		c4.066-10.877,4.371-26.217,4.576-39.742C465.895,360.144,447.362,362.503,429.07,367.817L429.07,367.817z"/>
	<path fill-rule="evenodd" clip-rule="evenodd" fill="#FFFFFF" d="M491.602,359.867c-0.578,13.607-1.555,27.795-4.585,43.069
		c-0.486,2.446-0.193,5.83,3.53,7.795c10.581,5.592,17.399,10.173,23.053,14.477c1.868,1.419,6.026,2.274,8.262-1.269
		c11.885-18.825,16.361-40.603,13.258-63.86C521.32,358.119,506.816,358.055,491.602,359.867L491.602,359.867z"/>
	<path fill-rule="evenodd" clip-rule="evenodd" d="M257.334,285.981c-11.021,33.451-10.521,76.882,24.06,95.497
		C251.921,354.16,253.32,320.345,257.334,285.981L257.334,285.981z"/>
	<path fill-rule="evenodd" clip-rule="evenodd" d="M501.061,236.088c23.195,25.698,25.299,57.272,18.003,90.37
		c13.188-37.766,11.042-70.154-9.604-96.047c3.801,9.057,8.386,18.199,9.078,26.903
		C514.896,250.485,508.581,243.356,501.061,236.088L501.061,236.088z"/>
	<path fill-rule="evenodd" clip-rule="evenodd" d="M329.225,184.572c20.084-1.721,40.39-5.439,59.003,5.623
		c8.036-12.936,26.907-13.946,46.123-14.572C396.741,170.412,362.269,175.22,329.225,184.572L329.225,184.572z"/>
	<path fill-rule="evenodd" clip-rule="evenodd" d="M326.961,173.782c33.158-21.325,73.947-30.937,109.742-8.419
		C397.586,152.086,361.566,158.468,326.961,173.782L326.961,173.782z"/>
	<path fill-rule="evenodd" clip-rule="evenodd" d="M389.743,212.592c7.221,1.609,10.832,7.484,10.834,17.625
		c2.971-31.941,21.113-33.026,36.219-40.279C420.219,195.037,403.939,200.957,389.743,212.592L389.743,212.592z"/>
	<path fill-rule="evenodd" clip-rule="evenodd" d="M239.267,269.43c32.637-3,63.012,10.831,98.045,14.533
		c38.494,4.068,51.913-20.104,46.239-42.509c-6.153-24.3-27.248-30.733-49.489-34.885c25.967-0.031,48.164,4.121,56.874,34.111
		c10.138,34.906,44.969,40.502,64.716,8.264c30.064-49.084,51.056-39.738,74.519-41.684c-16.939,1.544-35.35,2.887-44.982,17.52
		c-3.849,5.844-0.305,12.864,2.774,18.153c56.018,96.263-57.137,144.071-76.984,34.914c-6.841-1.598-13.438-5.329-19.788-11.194
		c-3.733,6.595-8.411,12.003-14.029,16.218c-7.506,122.548-116.952,130.062-97.885,12.244
		C284.582,274.866,258.816,274.094,239.267,269.43L239.267,269.43z"/>
	<path fill-rule="evenodd" clip-rule="evenodd" fill="#FFFFFF" d="M290.047,280.332c-32.676,120.711,66.877,121.766,80.28,10.101
		C342.201,293.349,315.743,288.585,290.047,280.332L290.047,280.332z"/>
	<path fill-rule="evenodd" clip-rule="evenodd" fill="#FFFFFF" d="M417.591,278.277c23.87,107.822,123.81,43.885,57.415-44.465
		C462.212,257.956,447.233,276.696,417.591,278.277L417.591,278.277z"/>
	<path fill-rule="evenodd" clip-rule="evenodd" d="M304.528,281.139c19.289,6.517,38.525,7.586,57.728,4.93
		C345.387,373.504,289.596,369.361,304.528,281.139L304.528,281.139z"/>
	<path fill-rule="evenodd" clip-rule="evenodd" d="M427.859,274.739c18.466-7.098,32.302-21.815,44.043-39.995
		C513.019,310.132,452.297,364.047,427.859,274.739L427.859,274.739z"/>
	<path fill-rule="evenodd" clip-rule="evenodd" fill="#FFFFFF" d="M307.05,285.294c5.373,0.619,9.227,5.476,8.608,10.848
		c-0.618,5.375-5.476,9.232-10.848,8.613c-5.378-0.62-9.229-5.478-8.61-10.851C296.818,288.531,301.675,284.674,307.05,285.294z"/>
	<path fill-rule="evenodd" clip-rule="evenodd" fill="#FFFFFF" d="M345.258,325.746c3.738,0.43,6.418,3.808,5.989,7.548
		c-0.431,3.737-3.808,6.42-7.548,5.99c-3.738-0.43-6.42-3.814-5.989-7.547C338.139,327.996,341.52,325.316,345.258,325.746z"/>
	<circle fill-rule="evenodd" clip-rule="evenodd" fill="#FFFFFF" cx="436.177" cy="288.129" r="10.221"/>
	<path fill-rule="evenodd" clip-rule="evenodd" fill="#FFFFFF" d="M484.048,289.359c3.736,0.43,6.416,3.809,5.986,7.551
		c-0.431,3.733-3.808,6.42-7.546,5.989c-3.74-0.43-6.42-3.813-5.991-7.549C476.929,291.609,480.305,288.929,484.048,289.359z"/>
	<path fill-rule="evenodd" clip-rule="evenodd" d="M363.325,264.719c5.987-0.4,10.815,9.27,0.729,11.151
		c-24.857,4.628-50.787-4.636-77.747-14.987c-15.757-6.048-35.107-0.984-53.423,0.892c17.727-4.153,34.354-13.222,56.207-7.613
		C315.332,260.893,339.821,266.278,363.325,264.719L363.325,264.719z"/>
	<path fill-rule="evenodd" clip-rule="evenodd" d="M435.842,258.6c7.132-4.528,13.681-11.662,18.965-21.003
		c14.016-24.8,37.082-36.316,62.309-41.688c-23.46-0.395-48.93,5.302-71.236,34.269c-3.786,4.922-7.572,11.522-13.042,15.624
		C414.975,259.195,409.463,275.356,435.842,258.6L435.842,258.6z"/>
</g>
</svg>
