<?xml version="1.0" encoding="utf-8"?>
<!-- Generator: Adobe Illustrator 17.0.0, SVG Export Plug-In . SVG Version: 6.00 Build 0)  -->
<!DOCTYPE svg PUBLIC "-//W3C//DTD SVG 1.1//EN" "http://www.w3.org/Graphics/SVG/1.1/DTD/svg11.dtd">
<svg version="1.1" id="Layer_1" xmlns="http://www.w3.org/2000/svg" xmlns:xlink="http://www.w3.org/1999/xlink" x="0px" y="0px"
	 width="355px" height="402px" viewBox="0 0 355 402" enable-background="new 0 0 355 402" xml:space="preserve">
<g>
	<g>
		<path fill="#C1955A" d="M160.31,248.444c0.604,4.311,0.754,7.257,0.529,10.128c-0.226,2.871-1.586,12.769,1.283,24.482
			c2.875,11.716,6.877,25.77,6.801,29.397c-0.073,3.627-0.073,5.821,0.075,6.724c0.155,0.909,0.155,1.287-0.752,3.176
			c-0.909,1.889-1.59,3.402-1.741,4.534c-0.15,1.132-3.249,6.348-2.493,9.9c0.756,3.554,8.385,3.326,10.429,0.907
			c2.039-2.417,2.57-3.322,2.72-4.835c0.151-1.513,0.681-3.402,1.586-5.288c0.909-1.891,2.267-5.063,1.36-8.768
			c-0.902-3.705-1.586-4.309-1.435-13.299c0.15-8.993,0.228-18.44,0.606-24.111c0.378-5.664,0.451-10.729-0.228-14.204
			c-0.681-3.475-1.208-5.97-0.303-10.581c0.909-4.609-0.226-13.6-0.226-13.6L160.31,248.444z"/>
		<path fill="#C1955A" d="M188.121,246.405c-0.759,4.835-0.832,8.312-0.984,12.092c-0.148,3.778-0.455,6.952-1.283,9.898
			c-0.834,2.946-1.741,6.5-1.438,14.056c0.303,7.556,0,25.467-0.604,28.039c-0.608,2.568-1.588,7.027-1.966,8.765
			c-0.376,1.738,0.075,4.457,1.283,6.726c1.212,2.267,1.36,3.327,1.511,4.685c0.155,1.36,0.836,7.633,4.839,7.936
			c4.003,0.301,7.255-0.378,7.633-2.875c0.376-2.493,0.984-3.625-0.754-7.025c-1.738-3.402-1.891-5.366-2.344-6.653
			c-0.451-1.283-0.832-2.946-0.451-4.684c0.376-1.739,0.075-2.871,0-3.851c-0.08-0.982-0.228-1.966,4.154-16.175
			c4.382-14.206,6.35-19.347,6.576-29.625c0.226-10.276,1.663-17.378,1.663-17.378L188.121,246.405z"/>
		<path fill="#0E0B0C" d="M164.271,332.647c0,0,1.298,2.895,5.114,3.021c3.817,0.122,7.255-0.544,7.593-1.592
			c0,0,0.334,0.208,0.208,2.307c-0.126,2.09,0.462,5.908-1.887,7.253c-2.351,1.342-6.33,3.019-10.316,2.265
			c-3.984-0.756-3.521-3.858-3.481-5.578C161.544,338.604,162.383,333.908,164.271,332.647z"/>
		<path fill="#0E0B0C" d="M168.631,316.629c0,0-0.21,0.294-0.168,0.925c0.042,0.628,0.168,0.88,2.055,0.962
			c1.887,0.086,5.034,0.257,6.75,0.502c1.721,0.252,2.225,0.084,2.347,0.591c0.13,0.502,0.717,2.977,0.13,5.2
			c-0.588,2.22-0.423,1.632-0.423,1.632s1.889-2.473,1.847-5.032c-0.042-2.555-0.964-2.139-1.466-4.946c0,0,0.082,1.13-0.754,1.13
			c-0.843,0-2.393-0.126-4.406-0.292c-2.013-0.168-3.437-0.21-4.233-0.252C169.514,317.008,168.591,317.05,168.631,316.629z"/>
		<path fill="#0E0B0C" d="M182.72,314.827c0,0-0.752,1.969-1.09,3.187c-0.334,1.216-1.216,3.607,0.798,6.75
			c0,0-0.798-3.857-0.42-4.866c0.38-1.006,0.628-1.84,2.391-1.968c1.76-0.126,4.32,0.128,6.54,0.252
			c2.225,0.124,2.561,0.252,2.935-0.714c0.378-0.964,0-1.551,0-1.551s0.086,0.754-1.298,0.712c-1.382-0.042-3.817-0.042-4.906-0.166
			c-1.091-0.128-2.393-0.168-3.397-0.084C183.267,316.464,182.302,316.963,182.72,314.827z"/>
		<path fill="#0E0B0C" d="M184.903,333.152c0,0,2.851,0.964,5.41,1.387c2.557,0.416,4.149,0.586,5.452,0.04
			c1.298-0.548,1.8-2.307,1.8-2.307s0.334-0.042,1.177,1.674c0.836,1.723,2.136,3.526,1.719,5.536
			c-0.42,2.013-0.715,6.001-4.656,6.169c-3.944,0.166-6.083,0.084-8.681-2.351c-2.599-2.433-2.811-4.443-2.559-6.414
			C184.819,334.912,184.735,333.404,184.903,333.152z"/>
		<path fill="#191415" d="M163.862,150.431c-3.141,7.175-10.128,15.569-9.75,31.741c0.38,16.171,0.606,22.746,0.756,27.203
			c0.15,4.459-0.456,12.771,0,16.929c0.451,4.156,0.376,9.823,0,13.224c-0.376,3.4-0.606,6.726-0.756,7.708
			c-0.15,0.982-0.15,1.36,0.38,2.117c0.526,0.752,1.508,4.985,9.294,5.063c7.783,0.073,15.418,0,21.083,0.529
			c5.667,0.529,13.678,2.796,19.271,1.586c5.591-1.208,6.949-2.809,6.724-3.853c-0.226-1.044,0.832-4.612,0.984-6.649
			c0.15-2.042,0.228-7.71,0.301-10.732c0.075-3.024,2.267-16.929,2.568-27.583c0.305-10.654,0.984-21.689,1.513-28.262
			c0.529-6.576,0.604-8.617-2.039-17.157c-2.648-8.538-11.035-14.284-25.319-15.717
			C174.592,145.142,169.153,138.341,163.862,150.431z"/>
		<path fill="#C1955A" d="M151.242,127.826c-0.336,4.775-1.075,8.577-1.951,12.284c-0.878,3.705-3.508,13.552-2.924,23.399
			c0.584,9.847,0.681,18.718,0.681,20.86c0,2.148,0,2.829,0.097,4.78c0.1,1.949-0.584,5.95-0.778,8.383
			c-0.197,2.439-0.684,3.121-0.779,3.899c-0.099,0.781-0.491,1.367,0.29,2.636c0.781,1.265,1.055,1.834,1.661,3.194
			c0.602,1.36,1.057,2.267,1.283,2.796c0.228,0.531,0.453,0.83,1.059,1.36c0.604,0.531,1.814,1.814,2.793,2.342
			c0.984,0.529,2.115,1.21,2.115,1.21l2.044,1.36c0,0,0.226-0.533,0.075-0.984c-0.148-0.451,0.681-0.226,0.907-0.451
			c0.226-0.228,0-1.06-0.303-1.588c-0.299-0.529-0.679-0.907-1.283-1.135c-0.604-0.223-1.135-0.451-1.135-0.451
			s-1.057-1.438-2.345-2.119c0,0,0.08-2.039-0.905-3.7c0,0,0.378-1.057-0.228-2.572c0,0,0.982-1.208,1.36-0.98
			c0.378,0.228,0.529,0.756,0.681,1.814c0.148,1.055-0.153,1.132-0.153,2.267c0,1.132-0.075,4.158,2.345,4.231
			c0,0,0.832,0.15,0.909-1.889c0.073-2.042,0.376-2.418,0.226-3.928c-0.152-1.515-0.303-2.345-0.077-3.327
			c0.228-0.982,0.305-2.265,0.305-3.855c0-1.584-0.305-4.306-1.134-5.74c-0.834-1.438-1.666-2.347-1.21-8.619
			c0.451-6.27,0.602-10.727,2.19-16.774c1.588-6.045,2.645-7.633,3.479-13.527c0.827-5.894,2.568-14.812,2.796-19.95
			C163.557,127.91,151.846,119.203,151.242,127.826z"/>
		<path fill="#C1955A" d="M213.663,127.081c0.301,5.065,0.602,9.825,1.21,14.282c0.602,4.457,1.433,8.69,1.509,9.9
			c0.077,1.21-0.151,5.14-0.303,7.027c-0.148,1.891-0.376,12.32-0.829,16.929c-0.453,4.609-1.132,8.617-1.586,10.579
			c-0.456,1.966-0.456,1.891-0.681,3.249c-0.226,1.362-0.533,1.964-1.586,3.552c-1.057,1.586-1.515,2.422-1.816,4.612
			c-0.301,2.192-0.604,3.247-0.829,3.853c-0.23,0.604-0.23,1.21-0.15,1.889c0.075,0.681-0.305,1.511-0.378,2.418
			c-0.077,0.907-0.226,1.511,0.226,2.568c0.453,1.062,0.529,1.816,0.529,2.873c0,1.059,0.303,1.661,1.588,1.137
			c0,0-2.044,0.829-1.889,1.811c0.15,0.982,1.511,1.062,2.19,1.062c0,0,1.435,0.223,2.873,0c1.433-0.232,2.039-0.608,2.72-1.062
			c0.679-0.453,0.98,0.075,1.588-1.739c0,0,0.679,0.15,1.36,0c0.679-0.15,0.982,0.228,1.663-2.342c0,0,0.827-0.15,1.281-0.453
			c0.456-0.303,0.909-0.604,1.057-1.511c0.155-0.909,0.228-3.101,0.531-3.853c0.305-0.756,0.305-1.438,0.075-2.647
			c-0.226-1.21-0.832-2.718-0.754-4.003c0.075-1.285-0.077-2.042-0.376-3.327c-0.305-1.285-0.38-1.889-0.077-3.247
			c0.303-1.362,0.376-2.344,0.756-4.912c0.376-2.574,1.96-9.524,2.946-14.436c0.984-4.91,1.736-10.201,2.114-14.282
			s-0.075-5.897-0.301-8.161c-0.226-2.267,0.148-4.006-0.15-9.144c-0.303-5.14-1.21-13.452-1.21-13.452L213.663,127.081z"/>
		<path fill="#D3CCD3" d="M230.643,110.612c-0.265-1.555-0.621-3.094-1.19-4.612c-0.438-1.172-1.026-2.302-1.44-3.455
			c-0.809-2.263-1.542-4.45-2.287-6.702c-0.367-1.104-0.725-1.783-1.873-2.254c-0.987-0.402-1.699-1.3-2.738-1.422
			c-0.268-0.033-0.542-0.038-0.825-0.024c-0.522-0.42-1.221-0.65-1.825-0.929c-0.531-0.25-1.066-0.522-1.608-0.77
			c0.874-0.175,1.754-0.361,2.599-0.655c0.365-0.126,1.243-0.429,0.657-0.863c-0.391-0.287-1.373-0.029-1.807-0.002
			c-2.305,0.144-4.928-0.617-6.972-1.674c-1.798-0.927-3.061-2.705-4.755-3.888c-1.827-1.279-3.296-2.971-4.862-4.574
			c-1.579-1.614-3.267-3.455-5.24-4.612c-2.74-1.615-5.892-2.225-9.007-1.747c-2.258,0.347-4.267,1.798-6.193,2.953
			c-1.948,1.161-2.703,3.218-4.054,4.884c-1.281,1.575-2.701,2.78-4.317,3.959c-0.841,0.613-1.725,1.334-2.44,2.108
			c-0.234,0.257-0.453,0.537-0.653,0.827c-0.633,0.215-1.263,0.447-1.864,0.701c-0.962,0.414-1.756,1.115-2.668,1.626
			c-0.887,0.495-1.88,0.982-2.824,1.367c-0.887,0.358-1.831,0.683-2.674,1.126c-0.453-0.301-0.933-0.476-1.471-0.228
			c-0.971,0.451-1.75,1.566-2.451,2.307c-0.717,0.763-1.475,1.52-1.82,2.504c-0.462,1.329-0.783,2.69-1.208,4.039
			c-0.349,1.115-0.486,2.241-0.787,3.384c-0.338,1.261-0.725,2.528-0.885,3.818c-0.157,1.281-0.221,2.612-0.363,3.891
			c-0.135,1.161-0.571,2.283-0.646,3.457c-0.135,2.09-0.146,4.098,0.392,6.009c-0.035,0.089-0.064,0.186-0.089,0.272
			c-0.409,1.63-0.61,3.331-0.949,4.956c-0.25,1.208-0.482,2.473-0.728,3.676c-0.239,1.161-0.577,2.252-0.573,3.457
			c0.004,0.674-0.175,1.183,0.416,1.455c0.458,0.212,1.075,0.301,1.601,0.431c1.093,0.272,2.092,0.657,3.229,0.869
			c2.179,0.4,4.477,0.933,6.715,1.205c0.679,0.082,2.82,0.429,3.223-0.089c0.287-0.371,0.179-1.19,0.232-1.641
			c0.071-0.537,0.111-1.113,0.144-1.654c0.15-2.329,0.279-4.72,0.407-7.025c0.17,0.909,0.365,1.809,0.606,2.696
			c0.285,1.057,0.746,2.252,0.934,3.322c0.097,0.542-0.179,0.933-0.217,1.511c-0.038,0.593,0.183,1.09,0.217,1.657
			c0.053,0.856-0.086,1.73-0.283,2.594c-0.168,0.168-0.334,0.341-0.491,0.52c-0.661,0.768-0.803,1.838-1.033,2.789
			c-0.265,1.139-0.641,2.254-1.272,3.267c-0.613,0.991-1.36,1.853-1.745,2.935c-0.812,2.274-0.96,4.574-1.52,6.914
			c-0.108,0.46-0.308,0.995-0.341,1.458c-0.042,0.602,0.124,1.179-0.015,1.785c-0.235,1.024-0.774,2.108-1.226,3.081
			c-1.017,2.201-1.097,4.634-1.672,6.93c-0.128,0.509-0.462,1.19-0.345,1.736c0.089,0.416,0.544,0.703,0.863,0.951
			c0.765,0.59,1.612,1.192,2.451,1.69c4.125,2.455,8.779,3.767,13.33,4.687c1.358,0.277,2.723,0.425,4.092,0.754
			c0.586,0.142,1.19,0.347,1.741,0.562c0.478,0.181,1.247,0.619,1.719,0.416c0.876-3.758,1.767-7.496,2.581-11.291
			c0.226,1.526,0.438,3.052,0.458,4.603c0.011,1.144,0.086,2.314,0.217,3.457c0.135,1.203,0.48,2.331,0.515,3.521
			c1.796,0.115,3.468-0.456,5.233-0.551c1.739-0.088,3.596-0.177,5.344-0.593c2.369-0.564,4.786-0.758,7.138-1.365
			c2.148-0.551,4.244-1.345,6.339-2.09c1-0.358,2.061-0.717,3.023-1.154c0.958-0.429,1.803-1.217,2.665-1.816
			c0.874-0.606,1.929-1,2.756-1.621c0.856-0.637,0.161-2.081,0.058-2.973c-0.146-1.172-0.283-2.305-0.361-3.532
			c-0.073-1.168-0.091-2.439-0.29-3.603c-0.356-2.066-1.124-4.026-1.75-6.034c-0.606-1.951-1.555-3.789-2.289-5.706
			c-0.829-2.179-1.015-4.333-0.719-6.702c0.155-1.228-0.378-1.962-0.56-3.099c-0.099-0.617,0.089-1.039,0.288-1.579
			c0.228-0.602,0.17-0.973,0.053-1.586c-0.175-0.916,0.011-1.891,0.193-2.802c0.091-0.243,0.19-0.484,0.299-0.734
			c0.387-0.874,0.898-1.694,1.261-2.59c0.155-0.376,0.29-0.756,0.416-1.137c0.319,2.616,0.721,5.178,0.717,7.854
			c0,0.458-0.062,1.3,0.305,1.626c0.334,0.288,1.279,0.188,1.712,0.159c1.121-0.066,2.176-0.361,3.315-0.506
			c2.327-0.301,4.567-0.453,6.843-0.88c1.091-0.203,2.205-0.365,3.225-0.867c1.051-0.513,0.531-2.218,0.434-3.209
			c-0.235-2.409-0.852-4.643-0.993-7.071c-0.069-1.236-0.135-2.459-0.188-3.691c0.175-0.431,0.292-0.883,0.407-1.427
			c0.234-1.159,0.679-2.289,0.991-3.402c0.281-1.002,0.84-1.946,1.099-2.933C230.986,112.93,230.824,111.696,230.643,110.612z"/>
		<path fill="#C1955A" d="M200.673,81.921c-0.854-0.763-1.453-1.009-1.601-2.216c-0.144-1.163-0.08-2.442-0.148-3.601
			c-0.068-1.199-0.15-2.457-0.071-3.674c0.104-1.606,0.219-3.201,0.219-4.85c0-1.502-0.027-3.156-0.635-4.519
			c-0.058-0.13-0.122-0.261-0.19-0.391c0.091-1.148,0.046-2.137-0.325-3.276c-0.553-1.697-1.781-3.26-2.816-4.682
			c-1.312-1.809-3.183-3.395-5.26-4.256c-2.767-1.152-6.582-0.179-9.086,1.289c-4.171,2.442-6.098,7.191-6.043,11.88
			c0.033,2.617,0.969,5.127,1.949,7.527c0.095,0.243,0.201,0.484,0.307,0.721c0.46,2.042,1.042,4.041,1.506,6.034
			c0.473,2.006,0.732,4.386-0.175,6.321c-0.223,0.478-0.617,0.964-0.774,1.453c-0.077,0.239-0.172,0.721-0.004,0.927
			c0.223,0.268,0.409,0.066,0.646,0.082c0.628,0.04,0.874,0.234,1.431,0.453c0.478,0.188,1.046,0.106,1.533,0.268
			c0.816,0.274,1.48,1.332,1.96,2.002c0.621,0.876,1.037,1.838,1.422,2.822c0.778,1.999,1.572,3.948,2.232,5.917
			c0.319,0.958,0.577,2.002,0.721,3.028c0.08,0.557,0.148,1.15,0.217,1.723c0.055,0.438,0.232,1.042,0.102,1.475
			c0.533-1.581,1.394-3.077,2.488-4.353c1.451-1.688,2.926-3.309,4.523-4.848c1.626-1.564,3.3-3.061,4.647-4.864
			c0.588-0.79,1.411-1.398,1.708-2.324c0.314-0.993,0.301-2.181,0.438-3.24C201.737,83.582,201.58,82.734,200.673,81.921z"/>
		<path fill="#3E2B25" d="M201.445,56.146c-1.212-2.922-3.07-5.903-5.164-8.334c-0.235-0.354-0.482-0.71-0.748-1.059
			c-0.546-0.725-1.186-1.48-1.895-2.19l1.542,0.92c-0.555-0.518-1.221-0.929-1.92-1.281c-1.046-0.984-2.216-1.849-3.426-2.373
			c-2.389-1.04-5.297-0.967-7.752-0.168c-1.984,0.65-4.2,1.312-5.686,2.866c-1.847,1.935-3.298,4.623-3.911,7.224
			c-0.095,0.398-0.175,0.805-0.243,1.219c-0.557,0.938-1.037,1.907-1.413,2.886c-0.975,2.566-1.498,4.957-1.31,7.715
			c0.173,2.561,0.58,5.262,1.261,7.761c0.341,1.27,0.768,2.517,1.009,3.815c0.223,1.221,0.201,2.453,0.197,3.696
			c-0.007,1.402,0.133,2.652-0.046,4.023c0.491-0.071,0.92-0.571,1.181-0.975c0.226,0.425,0.089,1.152,0.011,1.606
			c0.391-0.279,0.615-0.882,0.851-1.265c-0.009,0.403,0.086,0.803,0.104,1.212c0.325-0.254,0.551-0.911,0.688-1.309
			c0.146-0.412,0.022-1.128,0.292-1.416c0.097,0.208,0.226,0.396,0.358,0.564c0.208-0.641,0.038-1.486,0.307-2.055
			c0.144,0.31,0.243,0.67,0.427,0.973c0.761-0.243,1.022-2.183,1.17-2.873c0.323-1.48,0.522-2.968,0.633-4.468
			c0.181-2.389,0.252-4.773,0.506-7.131c0.259-2.367,0.175-4.713,0.646-7.06c0.4-1.966,1.002-3.815,1.668-5.7
			c2.121-0.871,4.426-1.228,6.817-0.946c0.436,0.051,0.878,0.102,1.316,0.159c0.641,1.106,1.312,2.199,2.017,3.245
			c1.247,1.856,2.203,3.844,3.225,5.835c1.402,2.727,2.911,5.786,3.112,8.887c0.089,1.363,0.252,2.774-0.069,4.083
			c-0.206,0.845-0.533,1.595-0.783,2.365c1.172-0.535,2.243-1.701,3.099-2.623c0.986-1.062,1.663-2.205,2.148-3.49
			C203.352,65.989,203.341,60.698,201.445,56.146z"/>
		<path fill="#DCAD6E" d="M199.072,54.185c0-0.009,0-0.016,0-0.02c0-0.007,0-0.011,0-0.016c0-3.214-0.434-6.268-2.289-8.953
			c-1.042-1.5-2.309-3.085-3.981-3.911c-0.714-0.352-1.325-0.365-2.103-0.407c-0.763-0.042-1.497-0.111-2.232-0.075
			c-2.942-0.04-5.917,1.174-8.323,2.807c-3.408,2.311-6.432,6.441-7.062,10.577c-0.23,1.513-0.451,2.942-0.451,4.483
			c0,1.172,0.141,2.225,0.214,3.384c0.069,1.119-0.062,2.285,0.007,3.384c0.073,1.185,0.416,2.05,0.772,3.172
			c0.657,2.066,0.701,4.185,1.871,6.144c1.007,1.685,2.212,3.218,3.857,4.357c1.542,1.075,3.539,2.393,5.384,2.617
			c2.101,0.252,4.59-0.354,6.324-1.462c1.805-1.155,3.247-2.807,4.552-4.523c0.643-0.843,1.216-1.774,1.679-2.718
			c0.539-1.108,0.69-1.966,0.843-3.189c0.314-2.488,0.498-5.087,0.65-7.635C198.942,59.557,199.24,56.834,199.072,54.185z"/>
		<path fill="#463420" d="M207.141,64.649c0-2.791-0.385-5.266-1.533-7.781c-1.057-2.32-1.92-4.744-3.207-6.989
			c-2.355-4.11-4.428-8.832-8.894-11.004c-1.588-0.772-4.156-1.287-5.667-0.093c-1.478-1.29-4.163-1.179-5.848-0.573
			c-1.199,0.431-2.241,0.947-3.236,1.796c-1.373,1.161-2.878,2.081-4.094,3.464c-2.389,2.721-4.043,6.251-5.147,9.745
			c-0.933,2.924-1.02,6.001-1.712,8.914c-0.555,2.349-1.033,5.401-0.292,7.783c1.055,3.375,4.036,6.554,2.895,10.362
			c0.381-0.239,0.535-0.854,0.637-1.265c-0.036,0.431,0.082,0.84,0.013,1.267c0.036-0.031,0.106-0.086,0.15-0.128
			c0.325,0.274,0.177,0.931,0.215,1.351c0.909-0.228,1.734-1.389,2.199-2.167c0.577-0.969,1.042-1.995,1.101-3.081
			c0.139-2.437-0.117-4.541-0.852-6.79c-0.67-2.066-1.462-4.24-1.601-6.463c-0.097-1.564,0.013-3.147,0.287-4.709
			c0.089,0.721,0.239,1.447,0.507,1.904c0.254-0.469,0.142-1.455,0.219-2.028c0.091-0.644,0.168-1.495,0.504-2.064
			c-0.108,1.124,0.646,2.305,1.004,3.154c0-0.305,0-0.615,0-0.925c0.04,0.261,0.124,0.504,0.352,0.622
			c-0.009-0.104,0.033-0.243,0.022-0.345c0.161,0.051,0.321,0.199,0.418,0.358c0.272-0.177,0.546,0.135,0.854,0.179
			c0.069-1.075,0.06-2.221,0.031-3.324c0.137,1.011,0.684,2.212,1.19,2.9c-0.009-0.139,0.031-0.307,0.011-0.456
			c0.148,0.142,0.697,0.049,0.942,0.046c0.411-0.002,0.832,0.115,1.214,0.062c-0.301-1.776-0.633-4.211,0.577-5.87
			c-0.723,1.429,0.228,4.627,1.132,5.801c-0.17-0.982-0.226-1.937-0.095-2.944c0.115-0.92,0.462-1.891,0.484-2.791
			c0.007,1.929,1.221,4.333,2.873,5.439c-0.06-0.106-0.033-0.197-0.066-0.321c0.557,0.267,1.23,0.044,1.803-0.029
			c0.763-0.1,1.546-0.044,2.305-0.228c-0.418-0.305-0.867-1.329-0.92-1.836c0.411,0.489,0.663,1.438,1.274,1.652
			c0.04-0.792-0.219-1.597-0.137-2.369c0.294,0.929,1.4,1.506,2.079,2.185c0.035-1.522,0.013-3.006-0.095-4.486
			c0.064,0.102,0.13,0.208,0.197,0.312c0.584,0.942,0.927,2.068,1.511,3.028c0.272,0.438,0.606,1.152,1.053,1.429
			c-0.082-1.214-0.486-2.449-0.65-3.685l0.958,0.544c0.221,0.739,0.495,1.464,0.876,2.161c0.595,1.093,1.212,2.181,1.838,3.258
			c0.005,0.135,0.011,0.274,0.018,0.416c0.117,2.431-0.25,4.705,0.593,6.972c0.699,1.876,1.823,3.475,1.566,5.563
			c-0.292,2.398-2.185,4.315-3.718,6.054c0.455,0.064,0.854-0.476,1.232-0.666c-0.23,0.562-0.274,1.223-0.456,1.809
			c0.365-0.256,0.644-0.661,0.971-0.982c-0.23,0.814-0.48,1.595-0.843,2.402c1.325-0.719,2.563-1.557,3.74-2.484
			c-0.042,0.21-0.055,0.496-0.122,0.688c0.15-0.195,0.325-0.38,0.493-0.553c1.745-1.871,3.119-3.862,4.123-6.268
			c0.571-1.363,1.183-2.76,1.659-4.178c0.215-0.628,0.427-1.307,0.542-1.946c0.095-0.526,0.095-1.354,0.288-1.796
			c0.022,0.281,0.128,0.517,0.237,0.763C207.136,65.16,207.141,64.903,207.141,64.649z"/>
	</g>
</g>
</svg>
