<?xml version="1.0" encoding="utf-8"?>
<!-- Generator: Adobe Illustrator 17.0.0, SVG Export Plug-In . SVG Version: 6.00 Build 0)  -->
<!DOCTYPE svg PUBLIC "-//W3C//DTD SVG 1.1//EN" "http://www.w3.org/Graphics/SVG/1.1/DTD/svg11.dtd">
<svg version="1.1" id="Layer_1" xmlns="http://www.w3.org/2000/svg" xmlns:xlink="http://www.w3.org/1999/xlink" x="0px" y="0px"
	 width="800px" height="600px" viewBox="0 0 800 600" enable-background="new 0 0 800 600" xml:space="preserve">
<g>
	<path d="M215.501,134.849c13.733,17.78,48.14,7.122,62.952-4.727c14.531-11.629,24.285-27.687,38.39-39.891
		c27.399-23.703,65.369-31.77,101.812-23.115c33.136,7.875,60.472,29.852,80.927,53.675c20.558,23.943,35.318,56.488,21.982,86.161
		c-0.544,1.211-1.572,1.918-2.71,2.225c0.011,0.054,0.024,0.101,0.035,0.152c1.05,5.619,1.405,11.311,1.3,16.993
		c14.531,3.858,24.069,15.852,23.139,27.074c-0.93,11.222-10.243,19.928-22.808,17.217c25.361,40.83,79.798,81.657,90.968,90.949
		c-25.374,21.445-71.452,16.285-96.078,0.386c-1.293,10.383-2.328,18.319-0.056,28.639c2.211,10.05,8.919,17.579,14.684,26.336
		c4.46,6.779,10.495,16.918-1.621,20.457c-9.254,2.708-19.96-1.162-28.259-4.459c0.271,10.25-4.999,16.873-18.489,15.712
		c-13.494-1.16-24.242-9.13-31.177-15.288c0.208,27.879,24.064,53.183,36.963,77.807c2.445,4.666,7.226,10.817,3.612,15.799
		c-3.89,5.366-10.449,10.308-17.314,12.882c-13.56,5.083-29.781,3.232-43.271-6.446c-13.494-9.674-40.383-36.014-54.204-54.954
		c-21.935-30.055-55.829-82.037-60.353-108.659c-4.534-26.615-6.418-46.519-5.043-71.043c-12.54-3.151-21.38-15.918-21.244-32.414
		c0.059-7.303,6.642-28.008,25.823-27.291c-4.279-9.94-5.123-27.16-1.75-43.107c-29.358-0.937-75.689-14.773-96.584-50.609
		C214.567,140.92,214.012,132.923,215.501,134.849z"/>
	<path fill="#AF5917" d="M483.444,112.864c-25.547-26.336-60.805-43.776-100.702-42.055c-44.027,1.9-67.349,32.564-93.375,59.601
		c-12.43,12.915-38.764,23.443-59.317,20.204c1.302,1.656,4.029,3.933,5.881,5.631c6.76,0.688,14.358-0.583,20.358-1.571
		c7.819-1.291,15.255-3.951,22.169-7.432c14.731-7.427,24.415-19.408,34.756-30.983c10.085-11.283,21.453-21.809,35.4-29.222
		c13.088-6.954,28.626-9.214,43.631-9.453c15.313-0.249,30.718,2.499,44.699,8.095c14.255,5.706,26.003,15.918,36.251,26.195
		c23.608,23.666,39.642,47.587,40.605,76.254c1.099,3.357,1.958,6.79,2.495,10.303C529.883,172.64,505.32,135.416,483.444,112.864z"
		/>
	<path fill="#FFFFFF" d="M535.177,249.134c-0.339-7.582-7.073-14.297-15.351-17.794c-0.119,1.625-0.255,5.588-0.415,7.209
		c6.568-0.695,5.626,8.397-0.742,6.703c-0.7,6.019-2.096,12.014-3.954,15.695C519.362,265.976,535.863,264.611,535.177,249.134z"/>
	<path fill="#E1B997" d="M304.001,271.146c1.319,6.142,4.856,17.262,18.305,21.535c-2.563,23.603-0.946,52.483,3.281,75.083
		c2.79,14.929,19.112,43.329,20.912,46.625c7.619,13.927,29.543,47.016,56.996,78.167c13.208,14.986,32.922,33.78,49.554,37.734
		c7.695,1.824,17.672-1.719,22.916-6.366c3.921-3.487-5.492-15.409-7.912-19.513c-7.303-12.353-15.196-24.525-20.926-37.468
		c-5.727-12.938-7.408-26.168-5.705-39.985c1.182-9.619,6.982-6.577,13.259-1.353c6.282,5.223,21.173,18.187,30.474,11.995
		c9.311-6.191-0.7-15.887-7.997-20.616c-17.604-11.409-56.323-39.281-70.304-52.456c-3.701,9.727-13.428,23.619-28.163,17.229
		c-12.929-5.608-15.438-21.94-12.177-33.742c-2.333,2.628-13.725,14.121-17.913,20.312c-2.68,3.956,0.236-9.353,10.003-20.701
		c9.053-10.512,15.068-16.93,34.665-24.38c18.843-7.158,41.874-5.226,34.658-3.48c-4.561,1.103-23.232,2.291-37.726,12.084
		c-0.304,14.315,54.045,53.74,75.853,68.032c4.647,3.045,44.695,30.554,53.818,26.381c6.409-2.937-7.963-10.723-13.547-26.395
		c-5.577-15.674-6.512-30.959-3.722-44.119c-24.237-15.864-68.321-46.249-70.134-63.828c-1.911-18.544,31.414-18.115,43.987-12.985
		c9.355,3.82,15.962,10.987,18.623,19.178c2.881,8.879-2.323,17.365-2.935,14.489c-1.769-8.298-8.048-21.726-17.08-26.474
		c-7.214-3.802-21.312-5.854-28.83-1.653c-6.685,4.98,7.373,17.305,11.001,20.757c9.99,9.524,42.572,35.913,70.967,49.166
		c23.87,11.135,46.166,13.287,59.209,2.965c-32.529-27.697-64.945-56.794-85.075-92.136c2.37-11.638,5.554-24.896,3.731-47.582
		c-1.824-22.685-12.311-40.551-25.566-57.137c-12.688-15.875-31.039-30.079-54.152-33.876c-24.661-4.05-47.667,7.451-64.782,21.106
		c-16.768,13.381-33.471,29.533-36.745,48.835c-5.073,29.924,1.675,46.756,3.766,53.721
		C307.652,246.622,302.804,260.683,304.001,271.146z"/>
	<path fill="#D1A17D" d="M474.014,364.605c-12.486-8.895-34.85-32.412-42.266-54.789c-1.86-5.614-0.688-10.961,1.155-15.726
		c4.877,17.813,46.427,46.432,69.7,61.662c-1.656,7.814-1.963,16.388-0.799,25.339C492.152,376.23,482.793,370.864,474.014,364.605z
		"/>
	<path fill="#D1A17D" d="M336.106,263.077c2.303,2.471,4.429,6.174,3.387,9.653c-1.122,3.748-3.075,6.821-9.573,5.977
		c-6.493-0.838-9.048-9.17-8.776-14.142C321.574,256.734,332.351,259.046,336.106,263.077z"/>
	<path fill="#D1A17D" d="M441.827,139.489c-26.94-7.741-53.605-3.267-78.427,6.847c16.911-13.023,39.148-23.608,62.947-19.7
		c23.113,3.797,41.464,18.002,54.152,33.876c0.576,0.714,1.134,1.438,1.698,2.157C470.915,151.949,456.977,143.848,441.827,139.489z
		"/>
	<path fill="#D1A17D" d="M438.995,194.871c11.681,2.42,24.209,9.526,29.317,20.511c2.462,5.3,2.998,11.472,0.27,16.806
		c-4.982,9.741-14.278,12.065-24.404,14.461c-0.412,0.1-0.658,0.335-0.785,0.623c-5.649-0.124-10.533,0.145-16.1-1.19
		c-5.446-1.309-22.534-5.978-17.805-30.63C412.073,201.991,425.464,192.067,438.995,194.871z"/>
	<path fill="#D1A17D" d="M324.82,196.578c2.939-17.323,16.691-32.087,31.597-44.61c1.393-0.646,2.794-1.274,4.2-1.886
		c0.342,6.007,0.597,12.015,0.691,18.024c0.094,5.998,0.12,12.002-0.026,18c-0.129,5.139,0.258,10.807-0.944,15.838
		c-4.155,17.363-19.12,31.868-33.655,42.196C324.08,235.192,320.872,219.862,324.82,196.578z"/>
	<path fill="#D1A17D" d="M351.04,385.636c10.585,11.599,12.025,28.597,15.43,43.259c2.225,9.591,5.26,19.043,8.561,28.402
		c-13.602-18.307-23.813-34.284-28.531-42.907c-1.801-3.296-18.122-31.697-20.912-46.625c-0.628-3.371-1.197-6.895-1.705-10.5
		C333.59,366.048,342.285,376.05,351.04,385.636z"/>
	<path fill="#D1A17D" d="M423.628,437.693c-3.483-6.136-6.378-12.337-8.195-19.131c-0.733-2.74-1.363-5.659-1.129-8.507
		c0.56-6.842,6.834-10.343,12.927-6.396c6.638,4.303,13.582,10.461,19.227,17.114c-2.539-0.38-4.42,1.171-5.036,6.186
		c-1.703,13.817-0.023,27.048,5.705,39.985c4.111,9.285,9.338,18.171,14.655,27.013C447.6,476.208,434.798,457.388,423.628,437.693z
		"/>
	<path fill="#C52E37" d="M385.67,342.902c-1.508-2.258-3.323-5.521-4.225-8.033c-7.849,4.521-15.702,23.352-6.094,37.525
		c3.822,5.636,10.702,6.584,16.981,2.905c2.775-1.626,7.345-7.027,10.706-14.899c-3.878-3.368-9.214-8.709-13.746-14.737
		c-2.792,4.452-7.891,15.124-10.053,20.441C375.584,361.364,384.353,346.018,385.67,342.902z"/>
	<path fill="#673416" d="M315.578,187.973c5.816-23.214,41.759-70.386,98.905-72.295c18.431-0.613,35.454,5.238,50.089,14.519
		c-16.796-13.315-36.473-22.891-59.938-21.193c-26.779,1.937-54.188,16.719-73.239,33.164
		c-14.735,12.727-21.612,31.065-37.576,42.575C301.433,186.647,308.865,187.823,315.578,187.973z"/>
	<path fill="#753B18" d="M290.647,183.907c9.514-6.287,16.028-15.102,22.439-23.991c6.943-9.627,14.11-18.22,24.144-25.428
		c21.092-15.149,46.42-27.73,74.024-28.207c26.427-0.452,48.386,15.334,65.866,31.395c2.469,2.267,4.914,4.605,7.32,7.006
		c-11.096-13.416-25.045-25.165-40.097-34.36c-24.624-15.047-54.059-11.392-80.338-1.33c-22.584,8.647-38.656,24.142-55.3,43.582
		c-10.269,11.992-24.296,23.608-36.939,24.83C277.939,179.948,284.328,182.174,290.647,183.907z"/>
	<path fill="#834118" d="M266.995,175.357c19.124,0.855,35.441-20.579,48.126-34.771c16.251-18.187,39.919-33.845,65.053-39.778
		c25.428-5.998,49.295-3.263,70.579,10.619c8.109,5.289,15.864,11.386,22.979,18.089c-6.898-7.631-14.037-15.161-21.939-21.879
		c-24.84-21.131-61.153-22.376-91.008-9.585c-14.444,6.179-26.696,16.162-38.097,26.081c-11.489,10.004-18.791,21.471-30.28,31.442
		c-9.353,8.121-23.223,12.681-38.328,13.304C258.137,171.147,262.477,173.331,266.995,175.357z"/>
	<path fill="#954A19" d="M271.495,163.18c16.075-4.549,25.132-14.126,34.642-25.706c9.149-11.137,23.434-23.265,35.672-31.63
		c11.756-8.031,24.954-13.756,39.345-16.777c27.76-5.828,55.338,0.998,75.49,18.769c10.503,9.264,20.401,19.998,29.254,30.557
		c8.931,10.657,17.066,24.786,24.338,40.842c-4.494-26.43-24.184-50.616-43.799-69.592c-11.435-11.069-23.502-19.987-39.586-24.954
		c-15.759-4.862-33.108-5.734-49.529-3.67c-17.33,2.186-31.773,9.219-44.62,19.726c-11.84,9.685-20.574,21.637-31.103,32.356
		c-9.24,9.399-20.624,16.777-33.702,21.195c-6.751,2.282-13.918,3.377-21.076,3.923c-2.727,0.206-5.43,0.431-8.081,0.443
		c2.86,2.33,6.146,4.654,9.772,6.921C256.692,167.31,263.464,165.452,271.495,163.18z"/>
	<path d="M402.215,247.81c12.341-4.363,18.981-5.106,30.465-3.069c-4.879-4.384-7.997-10.365-9.866-16.698
		c-3.714-12.541,0.464-28.249,18.609-30.374c8.573-1.003,28.849,3.865,33.265,24.572c4.279,20.028-10.578,28.974-20.834,29.545
		c2.094,1.724,4.078,3.521,5.162,5.321c1.661,2.775-0.08,3.073-3.211,1.347c-17.532-9.654-35.914-13.466-55.883-6.404
		C396.517,253.253,398.779,249.028,402.215,247.81z"/>
	<path fill="#FFFFFF" d="M463.525,229.014c0.393-9.294-4.698-21.696-17.122-24.104c-12.423-2.406-19.148,6.441-17.543,17.907
		c1.628,11.613,6.746,18.965,16.519,20.707C458.265,245.826,463.211,236.466,463.525,229.014z"/>
	<path d="M409.424,201.371c-1.625,1.433-1.963-7.575,13.374-19.304c11.229-8.584,34.794-15.313,50.264-14.78
		c3.514,0.119,2.745,12.821-3.722,11.029c-3.49-0.968-11.842-1.368-16.513-0.565C435.243,180.762,418.855,189.345,409.424,201.371z"
		/>
	<path d="M441.534,215.501c6.586,0,6.586,8.491,0,8.491C434.955,223.992,434.955,215.501,441.534,215.501z"/>
	<path fill="#F0D0A7" d="M413.05,251.86c-11.269,1.234-32.051,5.78-40.952,17.337c-8.903,11.563,24.924,4.047,33.238,0.581
		C413.643,266.312,455.187,247.239,413.05,251.86z"/>
	<path fill="#F0D0A7" d="M502.669,273.244c2.326,4.075,16.026,23.118,36.801,43.922c20.775,20.809,36.201,33.518,39.767,36.412
		c3.56,2.891-36.206-6.357-54.012-27.741C507.419,304.454,496.734,262.84,502.669,273.244z"/>
	<path fill="#F0D0A7" d="M485.461,171.53c4.038,4.235,17.044,21.272,17.803,46.816c0.763,25.542-0.595,35.831-2.375,36.986
		C499.113,256.486,477.745,163.443,485.461,171.53z"/>
	<path fill="#F0D0A7" d="M463.5,411.945c-5.022-3.726-28.488-15.025-15.433,0.578c13.054,15.606,29.678,24.273,35.019,20.806
		C488.426,429.86,475.961,421.192,463.5,411.945z"/>
	<path fill="#F0D0A7" d="M447.472,494.011c-11.079-9.092-56.384-24.847-42.137-5.78c14.241,19.072,36.204,33.52,45.105,33.52
		C459.344,521.751,458.75,503.257,447.472,494.011z"/>
</g>
</svg>
