<?xml version="1.0" encoding="utf-8"?>
<!-- Generator: Adobe Illustrator 17.0.0, SVG Export Plug-In . SVG Version: 6.00 Build 0)  -->
<!DOCTYPE svg PUBLIC "-//W3C//DTD SVG 1.1//EN" "http://www.w3.org/Graphics/SVG/1.1/DTD/svg11.dtd">
<svg version="1.1" id="Layer_1" xmlns="http://www.w3.org/2000/svg" xmlns:xlink="http://www.w3.org/1999/xlink" x="0px" y="0px"
	 width="800px" height="600px" viewBox="0 0 800 600" enable-background="new 0 0 800 600" xml:space="preserve">
<path d="M280.336,175.149l-0.555-2.856c0,0-24.989,6.029-31.018,7.378c-6.029,1.348-12.772-0.397-20.229-1.428
	c-7.457-1.031-8.329,0.634-12.534,4.363c-4.205,3.728-2.856,4.125-0.635,7.139c2.222,3.015,2.142,6.108-3.014,4.205l-1.032-0.318
	l-5.077,5.791c0,0,1.745,4.839,4.522,9.916c2.776,5.077,4.76,6.584,4.76,6.584s-21.895,2.221-19.277,18.167
	c2.617,15.945,24.037,10.868,24.037,10.868s0.317,5.315,5.077,10.63c4.76,5.315,6.029,4.998,6.029,4.998
	s-6.744,13.089-22.054,18.483c-15.311,5.395-18.643,4.918-18.245,11.503c0.397,6.584,16.342,14.676,29.193,9.916
	c12.851-4.76,21.577-5.633,30.78,0.476c9.202,6.108,9.44,9.044,9.599,21.974c0.159,12.931,1.824,32.128,3.173,34.746
	c1.349,2.618,8.726,1.19,8.726,1.19s1.825,15.072,5.394,42.282c3.57,27.21,9.52,63.305,11.344,73.697
	c1.825,10.392,3.332,18.484,6.902,20.07c3.57,1.587,11.582,2.301,33.794-2.776c22.212-5.077,57.91-19.356,71.475-21.816
	c13.565-2.459,11.106-3.887,15.311-5.553c4.204-1.666,5.87-1.587,5.156-8.726c-0.714-7.139-4.046-4.759-4.522-5.236
	c-0.476-0.476-6.901-32.366-6.901-32.604c0-0.238-10.313-64.257-10.313-64.257s-4.125-22.292-1.983-27.131
	c2.142-4.839,20.546-12.851,39.744-20.07c19.198-7.219,43.234-12.217,48.549-25.623c5.315-13.407-5.236-36.73-5.791-43.472
	c-0.555-6.743,4.443-9.995,27.289-17.056c22.847-7.06,53.23-16.024,54.896-17.77c1.665-1.745,3.411-5.87,3.411-5.87l46.566-12.296
	c0,0,12.613-10.392,7.854-25.068c-4.76-14.676-12.851-28.479-13.089-29.827c-0.238-1.349,5.156-7.457,4.363-11.9
	c-0.793-4.442-9.44-23.64-13.248-28.082c-3.808-4.443-14.041-0.635-14.041-0.635s-1.666-6.504-3.57-6.981
	c-1.904-0.476-28.4,8.171-30.304,9.678c-1.904,1.507-1.904,6.426-1.904,6.426l-118.597,33.318l-3.57,3.728l-44.9,13.01l-5.871-0.793
	L280.336,175.149L280.336,175.149z"/>
<path fill="#FFFFFF" d="M278.511,174.197c0,0-29.432,5.791-29.432,6.346c0,0.555,1.032,0.714,0.873,1.349
	c-0.159,0.635-3.094,2.697-2.3,2.697c0.793,0,7.932-4.601,8.092-3.808c0.159,0.794-3.65,3.094-2.539,2.856
	c1.111-0.238,4.284-1.11,4.284-1.11s4.76-3.888,4.76-3.094c0,0.793-2.777,2.856-1.587,2.38c1.189-0.476,3.728-1.031,3.728-1.031
	s3.649-3.887,3.649-3.252c0,0.635-1.983,2.777-1.19,2.539c0.794-0.238,2.142-0.317,2.142-0.317s3.808-3.49,3.887-3.015
	c0.079,0.476-1.507,2.38-0.714,2.38c0.793,0,6.981-0.714,7.06-0.952C279.304,177.925,279.384,174.038,278.511,174.197
	L278.511,174.197z"/>
<path fill="#FFFFFF" d="M247.573,182.685c0,0-11.503-2.38-19.674-3.094c-8.171-0.714-0.238,1.269,0,1.666
	c0.238,0.397-6.346-1.507-9.916,1.507c-3.57,3.015,2.063-0.238,2.38,0.634c0.317,0.872,0.793,3.49,1.666,4.125
	c0.872,0.634,3.252-0.635,3.49-0.397c0.238,0.238-1.984,1.666-1.666,2.46c0.317,0.793,3.173,5.156,3.649,5.315
	c0.476,0.159,1.983-2.777,5.156-4.125c3.173-1.349-1.666-0.556-3.808,1.031c-2.142,1.587-1.904-0.714,5.236-2.935
	c7.14-2.221,13.089-3.808,13.089-4.839C247.176,183.002,247.573,182.685,247.573,182.685L247.573,182.685z"/>
<path d="M230.676,188c-0.714-0.158-4.205,2.38-3.49,2.38C227.899,190.38,231.39,188.159,230.676,188L230.676,188z"/>
<path d="M229.168,187.127c-0.714-0.158-4.204,2.38-3.49,2.38C226.392,189.508,229.882,187.286,229.168,187.127L229.168,187.127z"/>
<path fill="#E8E8E8" d="M216.317,188.476c0,0,1.19,3.49,3.49,3.57c2.301,0.079,2.777-1.666,2.777-1.666s-2.697-2.142-3.49-3.808
	c-0.793-1.666-1.507,1.666,0.873,2.777c2.38,1.11-0.397,2.062-1.825-0.635C216.714,186.017,216.317,187.842,216.317,188.476
	L216.317,188.476z"/>
<path fill="#E8E8E8" d="M211.716,196.965l-1.269,0.634c0,0,1.111,3.808,0.239,3.57c-0.873-0.238-0.873-3.015-0.873-3.015
	l-1.507,1.269c0,0,4.046,10.471,5.077,10.71c1.031,0.238,11.423-15.866,11.265-16.739c-0.159-0.872-0.714-1.269-0.714-1.269
	s-2.222,4.998-2.539,4.126c-0.317-0.873,1.269-3.728,0.556-3.728c-0.714,0-1.507,0.555-1.507,0.555s-5.236,9.52-5.553,8.726
	c-0.317-0.793,2.459-4.363,1.824-4.521c-0.634-0.159-2.855,3.014-3.887,2.3C211.795,198.868,211.716,196.965,211.716,196.965
	L211.716,196.965z"/>
<path fill="#E8E8E8" d="M213.62,195.378c0,0-0.952,1.269,0.08,1.269c1.031,0,2.221,0,2.221,0l0.952-1.507L213.62,195.378
	L213.62,195.378z"/>
<path fill="#E8E8E8" d="M222.426,198.789c0,0-7.933,13.248-7.854,13.882c0.079,0.635,0.555,1.111,1.031,1.111
	c0.476,0,1.031-1.666,1.824-1.587c0.793,0.079-1.111,3.808-0.238,3.808c0.872,0,2.697-4.046,2.697-4.046s-2.142-0.873-0.079-6.505
	c2.063-5.633,6.584-8.568,6.267-9.519c-0.317-0.952-0.317-0.952-0.317-0.952L222.426,198.789L222.426,198.789z"/>
<path fill="#E8E8E8" d="M224.25,202.517c0,0-4.283,8.012-4.204,13.565c0.079,5.553,4.283,19.356,6.425,23.72
	c2.142,4.363,4.046,8.171,4.522,8.092c0.476-0.079,6.029-2.062,6.029-2.062s-4.839-18.405-8.171-29.193
	C225.52,205.849,224.567,202.359,224.25,202.517L224.25,202.517z"/>
<path fill="#E8E8E8" d="M218.221,217.035c0,0-18.801,0.476-20.229,9.995c-1.428,9.52,2.221,16.818,11.503,16.897
	c9.282,0.079,11.82-0.556,11.82-0.556s0.159,5.871,4.205,10.551c4.045,4.68,6.346,5.791,6.346,5.791s5.394-10.63,5.394-11.582
	c0-0.951-6.426,0.714-6.426,0.714s0,0.794-2.38-3.252c-2.38-4.046-3.173-5.871-3.173-5.871s-16.342,2.38-21.34-0.158
	c-4.998-2.539-4.68-7.616-4.442-7.616c0.238,0,1.031,4.998,8.171,5.712c7.139,0.714,16.421,0.317,16.421,0.317l-1.983-3.649
	c0,0-18.881,2.221-18.801-5.871c0.079-8.092,15.39-7.616,15.39-7.616S218.856,217.035,218.221,217.035L218.221,217.035z"/>
<path fill="#FFFFFF" d="M218.142,217.669c0,0-18.483-0.238-18.483,9.202c0,9.44,7.06,10.313,13.882,10.63
	c6.823,0.318,9.837,0.08,9.837,0.08l-1.269-2.618c0,0-19.356,1.19-19.277-5.712c0.079-6.901,6.664-8.726,15.39-8.647
	L218.142,217.669L218.142,217.669z"/>
<path fill="#ABABAB" d="M218.062,222.905c0,0-12.058-1.349-13.327,4.68c-1.269,6.029,1.19-0.952,6.426-1.824
	c5.236-0.872,6.981-0.555,6.981-0.555L218.062,222.905L218.062,222.905z"/>
<path fill="#ABABAB" d="M217.587,226.633c0,0-1.269,6.426-0.634,6.109c0.634-0.318,4.125-0.397,4.125-0.397
	s-1.349-2.935-1.349-5.553C219.728,224.174,217.587,226.633,217.587,226.633L217.587,226.633z"/>
<path fill="#FFFFFF" d="M215.286,227.426c0,0-8.012-0.951-8.488,2.222c-0.476,3.173,8.964,2.855,8.964,2.855
	S214.968,230.758,215.286,227.426L215.286,227.426z"/>
<path d="M223.616,243.134c0,0,1.983,5.315,5.474,8.805c3.49,3.491,4.046,3.173,3.967,2.856c-0.08-0.317-3.412-2.3-6.188-6.981
	C224.091,243.134,224.091,242.42,223.616,243.134L223.616,243.134z"/>
<path fill="#FFFFFF" d="M240.037,243.61c0,0,36.888-12.058,36.967-11.265c0.079,0.794,0.079,1.428,0.079,1.428
	s-15.469,4.046-15.549,4.522c-0.079,0.476-0.079,0.476-0.079,0.476l29.193-7.536c0,0-0.634-13.804-2.855-28.717
	c-2.222-14.914-4.125-17.928-4.125-17.928s-52.516,17.214-52.675,16.659c-0.159-0.555,52.992-17.215,52.992-17.453
	c0-0.238-1.824-4.045-2.538-4.442c-0.714-0.397-17.77,2.538-33.239,6.505c-15.469,3.966-22.688,11.582-22.688,13.248
	c0,1.666,8.726,31.811,8.726,31.811S238.133,243.768,240.037,243.61L240.037,243.61z"/>
<path fill="#FFFFFF" d="M281.605,177.529c0,0,3.015,3.57,3.808,4.522c0.793,0.952,0.793,0.952,0.793,0.952s0.318-0.952,1.269-0.873
	c0.952,0.079,4.76,46.804,5.633,46.804c0.872,0,7.774-1.666,7.774-1.666s-4.839-40.775-6.584-44.107
	c-1.746-3.332-2.301-3.728-1.904-3.808c0.397-0.08,1.904,1.348,2.063,0.793c0.159-0.555-0.556-2.063,0.238-2.142
	c0.793-0.08,1.349,1.904,2.38,8.409c1.031,6.505,5.157,39.823,5.553,39.744c0.396-0.079,8.409-1.745,8.409-2.3
	c0-0.555-5.156-38.713-6.584-42.362c-1.428-3.65-2.539-3.65-1.983-4.205c0.555-0.555,2.855,0,3.332,1.983
	c0.476,1.984,6.187,43.076,6.901,43.076c0.714,0,8.805-0.635,8.805-1.428c0-0.793-5.711-41.171-6.664-43.155
	c-0.952-1.983-3.252-1.666-3.015-2.776c0.238-1.111,2.618,0.793,3.332,0.317c0.714-0.476,0.476-0.952,1.19-0.952
	c0.714,0,5.95,46.09,6.664,46.09c0.714,0,7.377-1.031,7.377-1.269c0-0.238-5.553-43.393-6.346-44.663
	c-0.794-1.269-2.856-3.173-2.539-3.49c0.318-0.317,1.745,1.428,2.697,1.428s0.873-0.872,1.349,0
	c0.476,0.873,5.871,43.631,6.108,43.71c0.238,0.079,6.901,1.19,7.457,0.238c0.556-0.952-4.759-41.568-6.584-43.949
	c-1.824-2.379-2.538-3.57-2.062-3.966c0.476-0.396,3.57,2.062,3.808,1.666c0.238-0.397,4.046,24.671,4.046,24.671
	s2.3,20.309,3.252,20.309c0.952,0,7.299-1.031,7.299-1.031s-4.919-38.713-6.506-42.52c-1.587-3.808-3.411-4.68-2.617-4.839
	c0.793-0.159,1.189,0.872,2.38,0.872c1.19,0,1.587-0.793,2.222,0c0.634,0.793,4.759,43.869,5.87,43.949
	c1.111,0.079,7.298,0,7.298-0.556c0-0.555-4.046-39.189-6.743-42.997c-2.697-3.808-3.729-3.887-2.777-4.363
	c0.952-0.477,4.68,1.507,4.918,1.666c0.238,0.159,5.632,42.52,5.95,43.948c0.317,1.428,7.615-0.476,7.615-0.872
	c0-0.397-5.077-39.823-6.664-42.838c-1.587-3.015-2.697-4.998-1.983-5.077c0.714-0.079,3.332,1.031,3.57,2.221
	c0.238,1.19,6.743,45.297,6.981,45.218c0.238-0.079,98.209-28.003,98.209-28.003s86.945-24.513,87.025-25.068
	c0.079-0.555,21.736-24.671,23.164-25.386c1.428-0.714,29.352-9.837,29.352-10.312c0-0.476-7.377-24.592-7.616-24.671
	c-0.238-0.079-7.932,3.094-7.932,3.094s2.142,24.909,1.507,24.75c-0.634-0.159-0.634-0.159-0.634-0.159s-2.855-23.878-1.825-24.83
	c1.031-0.952,8.726-3.491,9.361-3.412c0.634,0.08,8.567,25.068,9.282,25.068c0.714,0,2.697-0.634,2.697-0.634
	s-9.995-24.751-12.931-27.21c-2.935-2.459-5.711-2.935-15.548-0.635c-9.837,2.301-70.206,19.118-70.206,19.118l-74.252,21.657
	c0,0,4.443,2.538,4.76,7.774c0.317,5.236-4.522,7.537-4.522,7.537v6.822l-0.714,0.714v-5.95c0,0-3.41,2.142-8.329,4.522
	c-4.918,2.38-5.553,2.618-5.553,2.618v10.234l-0.674,0.674v-10.59c0,0-16.302,6.346-28.519,8.409
	c-12.217,2.063-23.085-2.539-23.085-2.539l-8.33,2.46l-0.238-0.873l7.378-1.904c0,0-0.397-3.411,0.793-6.822
	c1.19-3.411,1.587-4.284,1.587-4.284s-91.625,26.1-91.625,26.496S281.605,177.529,281.605,177.529L281.605,177.529z"/>
<path fill="#E8E8E8" d="M375.293,148.732c0,0-5.712,7.219-3.094,11.581c2.618,4.363,21.577,3.094,25.148,1.825
	c3.57-1.269-11.82,0.872-12.058,0.317c-0.238-0.555-0.238-1.904-0.238-1.904s-2.697-0.555-3.728-4.522
	c-1.031-3.967,0.079-5.236,0.079-5.236S378.07,147.701,375.293,148.732L375.293,148.732z"/>
<path fill="#FFFFFF" d="M429.316,136.119c0,0-33.794,10.154-41.489,12.295c-7.695,2.142-7.061,9.044-1.507,10.948
	c5.553,1.904,12.613-0.476,28.797-5.791c16.183-5.315,15.231-6.426,16.897-10.313c1.666-3.887-0.238,3.094,0.476,3.094
	c0.714,0,3.412-3.887,1.19-6.981C431.458,136.278,429.316,136.119,429.316,136.119L429.316,136.119z"/>
<path d="M388.779,156.427c0,0,0.635-2.618,14.359-6.109c13.724-3.49,7.14-2.618-4.125,0.397
	C387.748,153.73,388.779,156.427,388.779,156.427L388.779,156.427z"/>
<path d="M392.507,155.793c0.653,0.436,20.388-5.791,20.071-6.108C412.26,149.367,392.031,155.475,392.507,155.793L392.507,155.793z"
	/>
<path fill="#E8E8E8" d="M401.313,160.949c0.403,0.471,26.655-8.488,26.576-9.282C427.809,150.874,400.837,160.394,401.313,160.949
	L401.313,160.949z"/>
<path fill="#FFFFFF" d="M430.03,135.643c0.317-0.079,1.428,0.079,1.428,0.079s2.221-2.935,2.3-1.824
	c0.079,1.111,1.587-0.714,1.904-0.397c0.318,0.317-2.062,3.332-1.587,3.411c0.476,0.079,3.49-3.887,3.57-3.015
	c0.08,0.873-2.935,4.442-2.379,4.522c0.555,0.079,4.125-3.649,4.205-2.935c0.079,0.714-4.443,5.077-3.808,5.156
	c0.635,0.079,3.491-2.776,3.491-1.904c0,0.873-5.395,8.012-4.839,8.012c0.555,0,4.998-6.267,5.394-5.87
	c0.397,0.397-3.649,5.633-3.015,5.633c0.635,0,5.236-3.57,4.76-8.806c-0.476-5.236-4.839-6.267-8.647-5.077
	C428.999,133.818,430.03,135.643,430.03,135.643L430.03,135.643z"/>
<polygon points="446.372,148.335 445.34,148.335 445.34,135.643 446.372,135.643 446.372,148.335 "/>
<polygon points="456.372,169.596 455.728,169.596 455.728,137.864 456.372,137.864 456.372,169.596 "/>
<polygon points="373.112,198.052 372.473,198.137 368.272,166.684 368.911,166.599 373.112,198.052 "/>
<polygon points="378.114,176.462 377.475,176.548 375.967,165.256 376.606,165.171 378.114,176.462 "/>
<polygon points="470.731,163.805 470.086,163.805 470.086,132.073 470.731,132.073 470.731,163.805 "/>
<polygon points="476.839,157.855 476.195,157.855 476.195,126.123 476.839,126.123 476.839,157.855 "/>
<polygon points="462.56,164.756 461.915,164.756 461.915,133.025 462.56,133.025 462.56,164.756 "/>
<polygon points="486.359,159.918 485.714,159.918 485.714,128.186 486.359,128.186 486.359,159.918 "/>
<polygon points="494.053,153.73 493.409,153.73 493.409,121.998 494.053,121.998 494.053,153.73 "/>
<polygon points="501.035,152.699 500.39,152.699 500.39,120.967 501.035,120.967 501.035,152.699 "/>
<polygon points="507.619,150.478 506.974,150.478 506.974,118.746 507.619,118.746 507.619,150.478 "/>
<polygon points="519.915,133.342 519.271,133.342 519.271,117.794 519.915,117.794 519.915,133.342 "/>
<polygon points="531.894,130.804 531.249,130.804 531.249,115.255 531.894,115.255 531.894,130.804 "/>
<polygon points="537.367,130.169 536.723,130.169 536.723,114.62 537.367,114.62 537.367,130.169 "/>
<polygon points="545.855,126.52 545.211,126.52 545.211,110.972 545.855,110.972 545.855,126.52 "/>
<polygon points="552.043,123.902 551.399,123.902 551.399,108.353 552.043,108.353 552.043,123.902 "/>
<polygon points="559.579,121.523 558.935,121.523 558.935,105.974 559.579,105.974 559.579,121.523 "/>
<polygon points="572.034,118.269 571.39,118.269 571.39,102.721 572.034,102.721 572.034,118.269 "/>
<polygon points="583.378,114.7 582.734,114.7 582.734,99.152 583.378,99.152 583.378,114.7 "/>
<path fill="#FFFFFF" d="M550.452,97.882c0.238-0.079,4.442-1.111,4.442-1.111s-0.714-2.856,0.159-3.094
	c0.873-0.238,20.071-5.791,21.181-5.315c1.111,0.476-7.854,2.856-6.981,3.411c0.873,0.555,12.851-2.3,12.851-2.776
	c0-0.476-0.159-5.711-1.666-5.553c-1.507,0.159-26.734,7.378-28.4,9.44C550.373,94.947,550.452,97.882,550.452,97.882
	L550.452,97.882z"/>
<path fill="#ABABAB" d="M609.234,120.253c0,0-29.51,8.567-31.732,10.233c-2.221,1.666-20.07,21.895-19.198,21.895
	c0.873,0,6.585-1.904,6.585-1.904s14.676-14.517,19.674-16.897c4.998-2.38,21.656-5.712,21.656-5.712
	S612.487,119.539,609.234,120.253L609.234,120.253z"/>
<polygon points="450.259,180.147 450.418,181.416 551.563,150.795 551.404,150.16 450.259,180.147 "/>
<polygon points="509.835,118.904 509.676,119.936 581.469,98.993 581.628,97.882 509.835,118.904 "/>
<polygon points="385.323,184.27 375.04,186.633 374.862,185.86 385.145,183.496 385.323,184.27 "/>
<polygon points="385.759,187.046 375.476,189.409 375.299,188.637 385.581,186.273 385.759,187.046 "/>
<polygon points="385.68,192.837 375.397,195.201 375.219,194.428 385.502,192.064 385.68,192.837 "/>
<path fill="#FFFFFF" d="M606.115,129.058c0,0-20.308,4.549-22.107,5.817c-1.797,1.269-17.875,15.02-16.606,15.232
	c1.269,0.211,26.972-9.943,27.078-9.414c0.107,0.529,0,0.952,0,0.952l-21.577,7.193c0,0,7.51-0.001,7.722,0.74
	c0.211,0.74-2.538,2.116-2.538,2.116s-15.019,3.596-14.914,3.913c0.106,0.317,4.019,11.741,4.548,11.741
	c0.529,0,38.606-14.068,38.713-13.327c0.105,0.74,0.105,1.269,0.105,1.269l-38.078,12.904l1.269,2.433c0,0,34.8-13.327,40.934-14.49
	c6.136-1.164,7.405-0.741,7.405-0.741L606.115,129.058L606.115,129.058z"/>
<path fill="#ABABAB" d="M569.834,172.742l0.424,3.385c0,0,15.865-7.193,32.577-11.106c16.713-3.914,13.856-1.693,13.961-3.068
	c0.107-1.375-0.316-3.596,0.529-3.596c0.847,0,1.904,7.192,1.904,9.942c0,2.75,1.799,1.27,1.799,1.27s-0.317-8.039-1.481-10.683
	c-1.164-2.645-3.385-2.327-4.865-2.327c-1.481,0-18.299,4.654-30.675,9.413C571.633,170.733,569.834,172.742,569.834,172.742
	L569.834,172.742z"/>
<path fill="#ABABAB" d="M570.046,177.291v1.48c0,0,38.29-10.366,38.29-9.837c0,0.53-38.395,10.684-38.395,11.318
	c0,0.635,0.211,1.904,0.211,1.904s41.04-12.27,41.04-11.317c0,0.952-40.934,11.847-40.829,12.587
	c0.105,0.741-0.107,2.856,0.423,2.856S608.97,177.82,615,173.694c6.029-4.125,4.548-10.154-0.847-9.202
	C608.759,165.444,570.893,176.55,570.046,177.291L570.046,177.291z"/>
<path fill="#FFFFFF" d="M569.623,188.185c0,0-2.963,7.193-2.645,7.193c0.317,0,40.088-9.625,44.319-11.741
	c4.23-2.115,8.674-9.625,7.615-9.837c-1.057-0.212-4.549,2.644-21.79,7.51C579.883,186.176,569.623,188.185,569.623,188.185
	L569.623,188.185z"/>
<polygon points="570.893,190.618 570.998,192.099 608.546,182.791 608.759,181.839 570.893,190.618 "/>
<path fill="#FFFFFF" d="M566.767,171.579c0,0-2.115-2.01-3.808-7.722c-1.693-5.711-1.904-7.193-1.904-7.193l-95.937,26.655
	l-225.717,63.463c0,0-1.692,7.192-7.299,15.02c-5.606,7.827-7.509,11.106-6.346,14.702c1.164,3.596,2.856,3.49,2.856,3.49
	s25.28-3.596,38.713,5.394c13.433,8.991,19.356,31.203,23.481,54.156c4.125,22.952,3.596,17.875,3.596,17.875l6.559-2.221
	l-7.509-45.905l-9.731-53.415c0,0,12.058-17.135,32.895-21.577c20.837-4.442,33.741,0.741,38.713,4.654
	c4.971,3.913,6.029,8.039,7.826,17.241c1.799,9.202,16.183,89.377,16.183,89.377s19.779,102.705,19.145,103.022
	c-0.635,0.317-64.097,17.135-64.097,17.135s-10.259,7.51-9.202,7.51c1.058,0,78.694-23.587,80.28-23.587
	c1.587,0,3.28,4.019,4.337,3.913c1.057-0.105,5.289-1.692,5.289-1.692l-8.885-51.194c0,0-8.251-13.01-7.828-12.904
	c0.424,0.106,7.087,9.097,7.087,9.097l-1.798-11.741c0,0-8.885-10.895-7.933-11.106c0.952-0.211,6.346,8.251,6.452,6.346
	c0.105-1.904-1.692-9.308-1.692-8.991c0,0.317-8.039-10.153-7.193-10.259c0.847-0.106,7.193,9.519,7.193,7.721
	c0-1.798-0.952-10.048-0.952-10.048s-8.99-12.269-8.145-12.269c0.847,0,7.933,11.212,7.933,10.048c0-1.164-1.375-7.827-1.375-7.827
	s-8.567-16.501-6.981-16.395c1.587,0.106,7.086,14.808,7.086,13.644c0-1.163-3.49-12.058-1.692-18.721
	c1.799-6.664,5.182-6.452,4.548-7.299c-0.634-0.846-8.25-2.221-8.25-2.221s-2.644,2.539-2.539,9.625
	c0.107,7.087,0.952,11.106,0.212,10.789c-0.74-0.317-3.913-13.01,0.74-20.52c4.654-7.51,13.75-8.567,15.443-12.058
	c1.692-3.49,0.528-7.827,1.587-7.721c1.057,0.106-5.924-0.634-5.924-0.634s2.221,8.356-2.222,9.942
	c-4.443,1.587-6.346-1.481-6.346-1.481s-8.143,7.299-12.586,2.856s-2.222-10.471,3.279-10.894c5.5-0.423,7.298,0.529,7.298,0.529
	s-0.634-4.125,2.962-5.183c3.597-1.057,4.654-0.105,4.654-0.105s-14.491-13.857-16.818-26.444
	c-2.327-12.587,0.845-27.606,21.26-34.904c20.413-7.299,67.376-17.03,67.376-17.03s-1.374-14.914,27.819-24.327
	C528.055,180.781,566.767,171.579,566.767,171.579L566.767,171.579z"/>
<path d="M433.177,207.594c0,2.891-2.297,5.235-5.13,5.235c-2.834,0-5.131-2.344-5.131-5.235c0-2.891,2.297-5.236,5.131-5.236
	C430.88,202.359,433.177,204.703,433.177,207.594L433.177,207.594z"/>
<path d="M252.834,254.452c0,2.249-1.61,4.072-3.596,4.072c-1.986,0-3.595-1.823-3.595-4.072c0-2.249,1.609-4.072,3.595-4.072
	C251.224,250.379,252.834,252.203,252.834,254.452L252.834,254.452z"/>
<path fill="#FFFFFF" d="M252.042,254.452c0,1.782-1.256,3.226-2.804,3.226c-1.548,0-2.802-1.444-2.802-3.226
	c0-1.782,1.255-3.226,2.802-3.226C250.787,251.226,252.042,252.67,252.042,254.452L252.042,254.452z"/>
<path d="M243.315,270.793c0,2.249-1.61,4.072-3.595,4.072c-1.986,0-3.596-1.823-3.596-4.072c0-2.25,1.609-4.072,3.596-4.072
	C241.705,266.721,243.315,268.544,243.315,270.793L243.315,270.793z"/>
<path fill="#FFFFFF" d="M242.523,270.793c0,1.782-1.256,3.226-2.803,3.226c-1.548,0-2.803-1.444-2.803-3.226
	c0-1.782,1.255-3.226,2.803-3.226C241.267,267.567,242.523,269.012,242.523,270.793L242.523,270.793z"/>
<path fill="#FFFFFF" d="M425.137,209.869l1.164-0.106l-0.846-2.433l3.808-0.106l0.847,1.798l1.586-0.106c0,0,0.847-5.711-4.23-5.289
	C422.388,204.051,424.397,209.869,425.137,209.869L425.137,209.869z"/>
<polygon fill="#FFFFFF" points="427.148,209.128 429.369,209.128 428.84,208.07 426.513,208.07 427.148,209.128 "/>
<path fill="#FFFFFF" d="M391.926,299.669c0,0-11.423-2.432-11.423,3.279c0,5.712,3.49,6.558,7.51,4.231
	c4.019-2.327,4.971-2.75,4.971-2.75s2.963,3.279,6.453,1.692c3.49-1.587,2.644-12.587-2.963-11.53
	C390.868,295.65,391.926,299.669,391.926,299.669L391.926,299.669z"/>
<path d="M399.754,300.093c0,1.285-1.136,2.327-2.539,2.327c-1.402,0-2.538-1.042-2.538-2.327c0-1.285,1.136-2.327,2.538-2.327
	C398.617,297.766,399.754,298.807,399.754,300.093L399.754,300.093z"/>
<path fill="#FFFFFF" d="M398.484,300.198c0,0.642-0.616,1.163-1.375,1.163c-0.76,0-1.375-0.521-1.375-1.163
	c0-0.643,0.615-1.164,1.375-1.164C397.868,299.034,398.484,299.555,398.484,300.198L398.484,300.198z"/>
<polygon points="253.612,275.473 252.793,274.989 269.087,247.392 269.907,247.875 253.612,275.473 "/>
<polygon points="246.365,273.41 245.546,272.927 261.841,245.329 262.661,245.813 246.365,273.41 "/>
<polygon points="271.434,263.891 270.614,263.407 286.909,235.81 287.729,236.293 271.434,263.891 "/>
<polygon points="277.463,262.516 276.643,262.032 292.938,234.435 293.758,234.919 277.463,262.516 "/>
<polygon points="301.245,239.765 300.426,239.281 307.534,227.242 308.354,227.726 301.245,239.765 "/>
<polygon points="330.288,232.419 329.469,231.935 336.577,219.896 337.398,220.379 330.288,232.419 "/>
<polygon points="343.087,230.198 342.268,229.714 349.376,217.675 350.196,218.159 343.087,230.198 "/>
<polygon points="356.731,225.65 355.912,225.166 363.02,213.126 363.841,213.61 356.731,225.65 "/>
<polygon points="356.626,236.016 355.807,235.533 370.591,210.491 371.411,210.975 356.626,236.016 "/>
<polygon points="369.393,245.9 368.574,245.418 383.359,220.376 384.179,220.86 369.393,245.9 "/>
<polygon points="385.366,237.121 384.547,236.639 399.331,211.597 400.151,212.081 385.366,237.121 "/>
<polygon points="366.115,264.411 365.296,263.928 380.081,238.886 380.901,239.37 366.115,264.411 "/>
<polygon points="408.424,222.842 407.604,222.359 422.39,197.317 423.21,197.802 408.424,222.842 "/>
<polygon points="439.557,216.318 438.844,215.688 458.104,193.899 458.817,194.53 439.557,216.318 "/>
<polygon points="452.356,213.673 451.643,213.044 470.903,191.256 471.616,191.886 452.356,213.673 "/>
<polygon points="464.097,208.702 463.384,208.073 482.644,186.284 483.357,186.914 464.097,208.702 "/>
<polygon points="496.083,189.096 495.371,188.466 509.827,172.111 510.541,172.741 496.083,189.096 "/>
<polygon points="508.066,185.994 507.353,185.364 521.81,169.01 522.524,169.64 508.066,185.994 "/>
<polygon points="518.643,181.976 517.93,181.346 532.388,164.99 533.101,165.621 518.643,181.976 "/>
<polygon points="532.816,178.485 532.104,177.855 546.561,161.5 547.274,162.13 532.816,178.485 "/>
<path fill="#ABABAB" d="M566.027,172.954c0,0-52.993,13.538-67.166,19.145c-14.174,5.606-16.5,12.693-16.5,12.693l7.933,7.087
	c0,0,20.202-8.78,43.79-16.606c23.587-7.827,30.568-8.039,30.568-8.039S567.614,172.954,566.027,172.954L566.027,172.954z"/>
<path fill="#FFFFFF" d="M480.669,205.532c0,0-4.971,4.865-4.654,9.731c0.317,4.866,6.981,9.731,7.827,9.52
	c0.846-0.211,0.74-1.692,0.74-1.692s-8.145-7.721-6.876-7.615c1.269,0.105,7.193,6.874,7.405,6.134
	c0.211-0.74,3.173-9.095,2.856-9.625C487.651,211.455,481.304,204.791,480.669,205.532L480.669,205.532z"/>
<path fill="#FFFFFF" d="M475.698,208.494c0,0-5.078,5.711-3.385,5.817c1.693,0.106,2.75,0.106,2.75,0.106
	S475.381,209.657,475.698,208.494L475.698,208.494z"/>
<path fill="#E8E8E8" d="M489.025,214.31c0,0-2.751,5.289-2.751,7.511c0,2.221-1.163,4.654-0.528,4.654
	c0.635,0,38.394-12.269,44.847-14.491c6.451-2.221,31.52-9.837,31.52-9.837s2.539-3.068,2.961-7.193
	c0.424-4.125-0.317-6.558-0.317-6.558S509.756,203.416,489.025,214.31L489.025,214.31z"/>
<polygon points="547.918,202.216 510.222,213.12 510.516,214.137 548.212,203.232 547.918,202.216 "/>
<polygon points="546.014,198.62 508.318,209.524 508.612,210.541 546.308,199.636 546.014,198.62 "/>
<polygon points="545.803,195.975 508.107,206.88 508.401,207.896 546.097,196.991 545.803,195.975 "/>
<path d="M559.997,184.695c0,0-27.501,7.932-46.646,14.068c-19.144,6.135-23.164,9.626-22.212,9.731
	c0.952,0.105,0.952,0.105,0.952,0.105s6.664-4.76,29.617-11.317c22.952-6.558,38.606-11.635,38.606-11.635L559.997,184.695
	L559.997,184.695z"/>
<path d="M558.305,182.896c0,0-27.501,7.933-46.645,14.068c-19.145,6.135-23.164,9.625-22.212,9.731
	c0.952,0.106,0.952,0.106,0.952,0.106s6.664-4.759,29.617-11.317c22.952-6.558,38.607-11.635,38.607-11.635L558.305,182.896
	L558.305,182.896z"/>
<path d="M558.305,180.358c0,0-27.501,7.932-46.645,14.068c-19.145,6.135-23.164,9.625-22.212,9.731
	c0.952,0.105,0.952,0.105,0.952,0.105s6.664-4.76,29.617-11.317c22.952-6.558,38.607-11.636,38.607-11.636L558.305,180.358
	L558.305,180.358z"/>
<path d="M557.141,178.772c0,0-27.501,7.932-46.645,14.068c-19.145,6.135-23.164,9.626-22.212,9.731
	c0.952,0.106,0.952,0.106,0.952,0.106s6.664-4.759,29.617-11.318c22.952-6.557,38.606-11.634,38.606-11.634L557.141,178.772
	L557.141,178.772z"/>
<path d="M556.189,176.551c0,0-27.501,7.932-46.646,14.067c-19.145,6.135-23.164,9.626-22.212,9.731
	c0.952,0.106,0.952,0.106,0.952,0.106s6.664-4.759,29.617-11.317c22.952-6.558,38.606-11.635,38.606-11.635L556.189,176.551
	L556.189,176.551z"/>
<path fill="#ABABAB" d="M469.986,216.849c0,0-43.896,7.087-68.858,18.827c-24.963,11.741-18.934,31.626-11.635,42.626
	c7.298,11.001,13.434,16.818,13.434,16.818l6.769,1.163c0,0-12.058-14.702-15.76-26.972c-3.701-12.269,1.905-24.01,22.001-30.462
	c20.096-6.452,61.453-15.654,61.453-15.654L469.986,216.849L469.986,216.849z"/>
<path d="M467.024,218.436c0,0-37.338,6.557-57.752,14.914c-20.414,8.356-24.115,19.674-23.587,19.674
	c0.529,0,4.76-11.529,24.963-19.356c20.202-7.827,56.693-14.385,56.693-14.385L467.024,218.436L467.024,218.436z"/>
<path d="M469.774,219.494c0,0-37.339,6.558-57.752,14.914c-20.414,8.356-24.116,19.674-23.587,19.674
	c0.528,0,4.76-11.529,24.962-19.356c20.203-7.827,56.695-14.385,56.695-14.385L469.774,219.494L469.774,219.494z"/>
<path d="M471.043,221.398c0,0-37.338,6.557-57.752,14.914c-20.413,8.356-24.116,19.674-23.587,19.674
	c0.528,0,4.76-11.529,24.962-19.356c20.203-7.827,56.695-14.385,56.695-14.385L471.043,221.398L471.043,221.398z"/>
<path fill="#ABABAB" d="M474.428,226.052c0,0-45.588,11.106-56.589,15.337c-10.999,4.231-13.221,6.98-11.952,7.193
	c1.269,0.212,9.942-5.924,36.279-12.693c26.338-6.769,34.693-9.519,34.693-9.519L474.428,226.052L474.428,226.052z"/>
<path fill="#FFFFFF" d="M453.697,234.408c0,0,20.942,3.384,25.491,21.789c4.547,18.404,2.433,25.703-18.616,34.27
	c-21.048,8.567-39.558,6.664-47.915,2.433c-8.356-4.231,0.423,2.538,0.529,8.461c0.105,5.923-8.462,8.356-7.193,8.356
	c1.269,0,38.183-9.942,58.809-17.77c20.626-7.827,23.588-10.894,20.944-27.607c-2.645-16.712-7.405-22.212-6.453-29.298
	c0.952-7.087,6.664-8.567,4.125-8.25C480.88,227.109,453.697,234.408,453.697,234.408L453.697,234.408z"/>
<path fill="#ABABAB" d="M419.32,254.292c0,0,8.78-10.894,27.289-12.587c18.511-1.693,27.29,9.519,28.665,21.261
	c1.374,11.741-3.703,19.674-2.433,19.674c1.269,0,8.25-5.606,6.134-21.049c-2.114-15.443-11.739-21.155-21.471-24.116
	c-9.732-2.962-14.174,0.106-26.549,4.231c-12.375,4.125-12.27,5.289-12.693,6.24C417.84,248.898,417.734,254.081,419.32,254.292
	L419.32,254.292z"/>
<path fill="#FFFFFF" d="M419.533,260.533c0,0,4.758,16.817,11.317,22.635c6.559,5.818,8.567,6.135,8.991,8.145
	c0.423,2.01,0.105,2.327,0.635,2.221c0.528-0.105,22.952-3.384,28.029-8.99c5.077-5.607,7.933-22.107,1.164-32.261
	c-6.77-10.154-19.463-11.318-32.156-7.087S419.32,253.975,419.533,260.533L419.533,260.533z"/>
<path fill="#FFFFFF" d="M416.994,245.408c0,0-20.731,3.808-18.827,23.27c1.904,19.462,16.289,25.068,26.972,25.914
	c10.682,0.847,14.068-1.058,14.068-1.058l-1.481-2.115c0,0-11.634-6.029-17.135-23.587
	C415.09,250.274,416.994,245.408,416.994,245.408L416.994,245.408z"/>
<path d="M412.34,263.019c0,3.066-2.534,5.553-5.658,5.553c-3.126,0-5.658-2.486-5.658-5.553c0-3.067,2.533-5.553,5.658-5.553
	C409.806,257.466,412.34,259.952,412.34,263.019L412.34,263.019z"/>
<path fill="#FFFFFF" d="M410.965,263.495c0,2.22-1.919,4.019-4.283,4.019c-2.366,0-4.284-1.799-4.284-4.019
	c0-2.22,1.918-4.019,4.284-4.019C409.046,259.476,410.965,261.275,410.965,263.495L410.965,263.495z"/>
<path d="M418.527,277.88c0,3.066-2.534,5.553-5.659,5.553c-3.126,0-5.659-2.486-5.659-5.553c0-3.067,2.534-5.553,5.659-5.553
	C415.993,272.327,418.527,274.813,418.527,277.88L418.527,277.88z"/>
<path fill="#FFFFFF" d="M417.151,278.356c0,2.22-1.918,4.019-4.284,4.019c-2.365,0-4.283-1.799-4.283-4.019
	c0-2.22,1.918-4.019,4.283-4.019C415.233,274.337,417.151,276.136,417.151,278.356L417.151,278.356z"/>
<path d="M426.884,288.245c0,2.483-2.061,4.496-4.601,4.496c-2.542,0-4.601-2.013-4.601-4.496c0-2.483,2.06-4.495,4.601-4.495
	C424.824,283.75,426.884,285.762,426.884,288.245L426.884,288.245z"/>
<path fill="#FFFFFF" d="M425.765,288.631c0,1.797-1.56,3.254-3.484,3.254c-1.923,0-3.483-1.457-3.483-3.254
	c0-1.797,1.56-3.253,3.483-3.253C424.206,285.377,425.765,286.834,425.765,288.631L425.765,288.631z"/>
<path fill="#FFFFFF" d="M222.584,273.226c0,0-7.299,5.818-15.866,8.674c-8.567,2.855-11.317,2.432-11.741,4.759
	c-0.423,2.327,11.001,1.27,19.568-1.374c8.568-2.644,10.894-4.76,10.894-4.76S222.796,277.14,222.584,273.226L222.584,273.226z"/>
<path d="M204.815,284.755c0.108,0.762,17.557-4.654,17.347-5.606C221.95,278.197,204.709,284.014,204.815,284.755L204.815,284.755z"
	/>
<path fill="#FFFFFF" d="M214.122,286.871c0,0-4.548,1.798-11.423,1.798c-6.874,0-9.942-0.74-9.942,0.106
	c0,0.846,3.913,8.885,14.492,10.472c10.577,1.586,16.5-1.587,23.799-3.808c7.298-2.221,9.52,0,9.625-1.058
	c0.106-1.058-3.174-1.798-11.635,0.952c-8.461,2.75-9.625,3.173-9.731,2.75c-0.106-0.423,4.759-2.221,11.952-4.125
	c7.193-1.904,7.722-1.27,7.722-1.904c0-0.635-0.212-0.952-0.212-0.952s-8.04,1.058-13.539,3.068c-5.5,2.009-5.393,2.538-5.5,2.009
	c-0.105-0.528,2.963-2.114,9.52-4.23c6.558-2.116,8.04-1.374,8.25-2.221c0.212-0.847-0.317-0.952-0.317-0.952
	s-6.664,1.48-12.163,3.596c-5.501,2.115-5.184,2.962-5.501,2.115c-0.317-0.846,3.28-2.433,9.626-4.336
	c6.346-1.904,6.769-1.375,6.769-1.904c0-0.528-0.317-0.952-0.317-0.952s-5.183,1.375-10.577,3.279
	c-5.394,1.904-5.184,2.644-5.394,1.904c-0.212-0.741,4.23-2.645,9.413-4.232c5.184-1.587,5.711-1.374,5.711-1.692
	c0-0.318-0.528-1.058-0.528-1.058s-5.925,1.163-11.848,3.49c-5.922,2.327-1.692-0.634,3.491-2.432
	c5.184-1.799,6.029-1.163,5.818-1.904c-0.212-0.741-9.731,0-14.808,3.278c-5.078,3.279-5.713,3.807-5.924,3.279
	C210.738,290.679,215.074,287.083,214.122,286.871L214.122,286.871z"/>
<path fill="#FFFFFF" d="M254.475,283.592c0,0,11.899,10.472,13.01,25.544c1.111,15.072,2.062,31.097,3.649,32.049
	c1.587,0.952-1.269-5.394,4.76-8.726c6.029-3.332,5.712-1.111,5.712,0.793c0,1.904-1.904,6.822-0.476,6.822
	c1.428,0,3.491-7.615,2.38-10.471c-1.111-2.856-5.077-21.102-13.486-34.271C261.614,282.164,254.475,283.592,254.475,283.592
	L254.475,283.592z"/>
<path fill="#ABABAB" d="M250.826,286.289c0,0,10.313,7.616,13.169,19.515c2.855,11.899,1.587,20.943,2.38,30.463
	c0.794,9.52,2.222,10.154,2.222,10.154l1.269-1.11c0,0-2.221-9.361-2.38-23.164c-0.159-13.803-3.015-23.64-6.981-29.669
	c-3.966-6.029-7.774-8.092-7.774-8.092L250.826,286.289L250.826,286.289z"/>
<path fill="#ABABAB" d="M231.469,281.053c0,0,2.38,1.269,3.173,1.269c0.793,0,9.678-0.476,9.678-0.476l0.159,1.587h-8.568
	c0,0,2.856,5.553,5.236,5.712c2.38,0.159,11.265-8.409,11.265-8.409S236.546,279.149,231.469,281.053L231.469,281.053z"/>
<path fill="#FFFFFF" d="M249.715,287.241l-8.409,6.188c0,0,17.611,5.712,19.991,16.024c2.38,10.313,1.111,24.751,2.062,34.429
	c0.952,9.678,1.587,9.202,1.587,9.202l2.697-5.236c0,0-2.539-5.394-2.539-16.976c0-11.583-0.476-22.847-4.601-30.622
	C256.378,292.477,249.715,287.241,249.715,287.241L249.715,287.241z"/>
<path fill="#FFFFFF" d="M275.417,343.882c0,0-6.188,3.49-7.774,6.822c-1.587,3.332-1.269,5.236-1.269,5.236h0.952l0.634-4.125h1.111
	l-0.317,4.76l1.428,0.159l0.317-6.188h0.793v5.871h1.745l0.318-9.361h0.793l0.159,8.25l1.745-4.284L275.417,343.882L275.417,343.882
	z"/>
<path fill="#FFFFFF" d="M273.514,342.454h3.332c0,0,3.173-9.361,2.38-9.52C278.432,332.776,273.514,334.68,273.514,342.454
	L273.514,342.454z"/>
<path fill="#E8E8E8" d="M274.783,358.32c0,0,4.919,37.919,9.202,73.3c4.284,35.381,10.472,59.814,13.328,60.925
	c2.855,1.111,0.317-2.221,1.11-3.808c0.794-1.586-3.015-9.519-7.139-36.967c-4.125-27.448-15.231-90.436-14.438-90.436
	c0.793,0,15.072,87.421,15.072,87.421s6.822,38.395,7.774,38.395c0.952,0,2.856-6.505,9.995-9.837
	c7.14-3.331,9.044-2.697,9.044-2.697s8.092-8.409,8.567-7.457c0.476,0.952-6.981,7.14-6.346,7.14c0.634,0,11.899-8.092,11.899-9.678
	c0-1.587-3.808-5.077-6.822-5.712c-3.014-0.634-6.346-0.634-6.346-0.634L301.12,357.051l-7.299,1.745
	c0,0,20.626,108.998,20.15,109.316c-0.476,0.317-1.745,0.952-1.745,0.952s-22.529-134.066-24.592-133.749
	c-2.062,0.318-0.952,3.491-0.952,3.491s21.419,125.657,20.467,125.657c-0.952,0-1.269,0.476-1.269,0.476
	s-21.578-125.34-21.578-124.706c0,0.635-2.855,3.65-2.855,3.65s23.798,123.277,22.53,123.277c-1.269,0-1.269,0.635-1.269,0.635
	l-22.054-119.946l-2.062,4.443c0,0,23.005,120.422,21.736,120.104c-1.269-0.317-1.269-0.317-1.269-0.317l-22.054-118.835
	C277.004,353.243,274.783,357.368,274.783,358.32L274.783,358.32z"/>
<polygon points="288.746,345.267 275.392,363.43 274.371,362.678 287.725,344.515 288.746,345.267 "/>
<polygon points="291.331,350.566 277.977,368.728 276.956,367.978 290.31,349.815 291.331,350.566 "/>
<polygon points="292.283,356.754 278.93,374.916 277.908,374.165 291.262,356.003 292.283,356.754 "/>
<polygon points="294.028,362.465 280.675,380.628 279.654,379.877 293.007,361.714 294.028,362.465 "/>
<polygon points="294.98,368.97 281.627,387.133 280.605,386.382 293.959,368.22 294.98,368.97 "/>
<polygon points="295.456,375.475 282.103,393.638 281.082,392.887 294.435,374.724 295.456,375.475 "/>
<polygon points="296.408,381.98 283.055,400.143 282.033,399.392 295.387,381.229 296.408,381.98 "/>
<polygon points="297.677,387.057 284.324,405.22 283.302,404.469 296.656,386.306 297.677,387.057 "/>
<polygon points="297.836,393.879 284.483,412.042 283.461,411.291 296.815,393.129 297.836,393.879 "/>
<polygon points="299.594,397.688 284.959,417.596 283.937,416.844 298.573,396.937 299.594,397.688 "/>
<polygon points="300.381,403.638 285.746,423.545 284.724,422.794 299.36,402.886 300.381,403.638 "/>
<polygon points="301.174,409.825 286.539,429.733 285.518,428.981 300.153,409.074 301.174,409.825 "/>
<polygon points="301.809,416.648 287.173,436.555 286.152,435.804 300.788,415.896 301.809,416.648 "/>
<polygon points="303.555,422.836 288.919,442.743 287.897,441.992 302.533,422.084 303.555,422.836 "/>
<polygon points="304.03,429.341 289.395,449.248 288.373,448.497 303.009,428.589 304.03,429.341 "/>
<polygon points="305.458,434.259 290.823,454.166 289.801,453.415 304.437,433.507 305.458,434.259 "/>
<polygon points="307.203,439.653 292.568,459.561 291.546,458.809 306.182,438.901 307.203,439.653 "/>
<polygon points="308.949,444.413 294.313,464.32 293.292,463.569 307.928,443.661 308.949,444.413 "/>
<polygon points="310.218,449.173 295.582,469.08 294.561,468.329 309.197,448.421 310.218,449.173 "/>
<polygon points="311.963,454.25 297.328,474.157 296.306,473.406 310.942,453.498 311.963,454.25 "/>
<polygon points="313.708,458.692 299.073,478.6 298.051,477.848 312.687,457.94 313.708,458.692 "/>
<path fill="#ABABAB" d="M327.934,456.53c0,0,3.173,1.745,6.187,3.808c3.015,2.062,3.173,2.697,3.173,2.697l54.896-14.914
	c0,0-10.471-11.741-33.477-5.712c-23.006,6.029-21.419,13.01-23.164,13.01C333.804,455.419,327.616,455.26,327.934,456.53
	L327.934,456.53z"/>
<path fill="#ABABAB" d="M402.503,452.88c0,0-76.632,22.529-88.214,25.544c-11.582,3.015-13.169,9.837-11.582,13.645
	c1.587,3.808,12.375,1.745,46.17-8.092c33.794-9.837,48.391-15.232,52.516-16.183c4.125-0.952,18.087-5.87,18.246-8.25
	c0.159-2.38,0.634-5.712-1.746-5.712c-2.38,0-7.298,1.269-8.885,1.269C407.421,455.102,402.503,452.88,402.503,452.88
	L402.503,452.88z"/>
<path d="M322.539,479.059c-1.963,0-13.803,13.01-12.216,12.851C311.909,491.751,323.174,479.059,322.539,479.059L322.539,479.059z"
	/>
<path d="M332.534,476.203c-1.962,0-13.803,13.01-12.216,12.851C321.904,488.896,333.169,476.203,332.534,476.203L332.534,476.203z"
	/>
<path d="M342.212,473.823c-1.963,0-13.803,13.01-12.216,12.851C331.583,486.516,342.847,473.823,342.212,473.823L342.212,473.823z"
	/>
<path d="M349.511,471.285c-1.963,0-13.804,13.01-12.217,12.851C338.881,483.977,350.145,471.285,349.511,471.285L349.511,471.285z"
	/>
<path d="M359.348,468.112c-1.963,0-13.804,13.01-12.217,12.851C348.718,480.804,359.982,468.112,359.348,468.112L359.348,468.112z"
	/>
<path d="M369.343,464.621c-1.963,0-13.803,13.01-12.216,12.851C358.713,477.313,369.978,464.621,369.343,464.621L369.343,464.621z"
	/>
<path d="M376.959,463.51c-1.963,0-13.804,13.01-12.217,12.851C366.328,476.203,377.593,463.51,376.959,463.51L376.959,463.51z"/>
<path d="M387.748,459.226c-1.963,0-13.804,13.01-12.217,12.851C377.117,471.919,388.382,459.226,387.748,459.226L387.748,459.226z"
	/>
<path d="M394.57,457.798c-1.963,0-13.804,13.01-12.217,12.851C383.94,470.491,395.204,457.798,394.57,457.798L394.57,457.798z"/>
<path d="M401.392,454.943c-1.962,0-13.803,13.01-12.217,12.851C390.762,467.636,402.027,454.943,401.392,454.943L401.392,454.943z"
	/>
<path d="M408.532,454.308c-1.963,0-13.804,13.01-12.217,12.851C397.902,467.001,409.167,454.308,408.532,454.308L408.532,454.308z"
	/>
<path d="M314.294,479.376c-1.612,0-11.329,12.046-10.027,11.899C305.569,491.129,314.814,479.376,314.294,479.376L314.294,479.376z"
	/>
<path d="M308.26,492.069c0.099,0.492,97.416-26.814,97.258-27.289C405.359,464.303,308.101,491.275,308.26,492.069L308.26,492.069z"
	/>
<path d="M308.101,489.054c0.099,0.492,97.417-26.814,97.258-27.289C405.2,461.289,307.942,488.261,308.101,489.054L308.101,489.054z
	"/>
<path d="M307.467,486.674c0.099,0.492,97.416-26.813,97.257-27.289C404.565,458.909,307.308,485.881,307.467,486.674
	L307.467,486.674z"/>
<path d="M307.308,483.66c0.098,0.492,97.416-26.813,97.257-27.289C404.407,455.895,307.149,482.867,307.308,483.66L307.308,483.66z"
	/>
<path fill="#FFFFFF" d="M322.222,453.515l7.616-3.808l1.587,2.38c0,0,10.154-9.52,33.794-12.534
	c23.64-3.015,29.51,4.443,29.51,4.443s-33.16-191.025-37.126-198.64c-3.967-7.616-20.784-14.279-42.997-8.251
	c-22.212,6.029-29.193,19.198-29.193,19.198L322.222,453.515L322.222,453.515z"/>
<path d="M291.759,276.77c0,0,10.313-13.169,23.64-18.722c13.327-5.553,31.255-3.49,31.255-4.125c0-0.635-14.755-3.332-32.525,3.966
	C296.36,265.188,290.966,276.452,291.759,276.77L291.759,276.77z"/>
<path d="M289.538,270.423c0,0,10.313-13.169,23.64-18.722c13.327-5.553,31.256-3.49,31.256-4.125c0-0.635-14.756-3.332-32.526,3.966
	C294.139,258.841,288.745,270.106,289.538,270.423L289.538,270.423z"/>
<path d="M288.745,261.062c0,0,10.313-13.169,23.64-18.721c13.327-5.553,31.255-3.491,31.255-4.125
	c0-0.634-14.755-3.332-32.525,3.967C293.346,249.48,287.952,260.745,288.745,261.062L288.745,261.062z"/>
<path d="M296.36,298.823c0,0,10.313-13.168,23.64-18.722c13.327-5.553,31.255-3.49,31.255-4.125c0-0.634-14.755-3.332-32.525,3.967
	C300.962,287.241,295.567,298.505,296.36,298.823L296.36,298.823z"/>
<path d="M294.139,292.477c0,0,10.313-13.168,23.64-18.722c13.328-5.553,31.255-3.49,31.255-4.126c0-0.634-14.755-3.332-32.525,3.967
	C298.74,280.894,293.346,292.159,294.139,292.477L294.139,292.477z"/>
<path d="M293.346,283.116c0,0,10.313-13.169,23.64-18.722c13.327-5.553,31.255-3.49,31.255-4.125c0-0.635-14.755-3.332-32.525,3.966
	C297.947,271.534,292.552,282.799,293.346,283.116L293.346,283.116z"/>
<path d="M300.327,318.814c0,0,10.313-13.169,23.64-18.721c13.327-5.554,31.255-3.491,31.255-4.125
	c0-0.635-14.755-3.332-32.525,3.966C304.928,307.232,299.534,318.497,300.327,318.814L300.327,318.814z"/>
<path d="M298.106,312.467c0,0,10.313-13.168,23.64-18.721c13.327-5.553,31.255-3.491,31.255-4.125
	c0-0.635-14.755-3.332-32.525,3.966C302.707,300.886,297.313,312.15,298.106,312.467L298.106,312.467z"/>
<path d="M297.313,303.106c0,0,10.313-13.168,23.64-18.721c13.328-5.553,31.255-3.491,31.255-4.125
	c0-0.634-14.755-3.332-32.525,3.967C301.913,291.525,296.519,302.789,297.313,303.106L297.313,303.106z"/>
<path d="M306.039,343.247c0,0,10.313-13.169,23.64-18.721c13.328-5.553,31.256-3.491,31.256-4.125
	c0-0.634-14.755-3.332-32.525,3.967C310.64,331.665,305.245,342.93,306.039,343.247L306.039,343.247z"/>
<path d="M303.817,336.901c0,0,10.313-13.169,23.64-18.721c13.327-5.553,31.256-3.491,31.256-4.125
	c0-0.634-14.756-3.332-32.525,3.967C308.418,325.319,303.024,336.584,303.817,336.901L303.817,336.901z"/>
<path d="M303.024,327.54c0,0,10.313-13.169,23.64-18.722c13.327-5.553,31.255-3.49,31.255-4.126c0-0.634-14.755-3.332-32.525,3.967
	C307.625,315.958,302.231,327.223,303.024,327.54L303.024,327.54z"/>
<path d="M311.591,365.618c0,0,10.313-13.168,23.64-18.722c13.327-5.553,31.256-3.49,31.256-4.125c0-0.634-14.755-3.332-32.525,3.966
	C316.192,354.036,310.798,365.301,311.591,365.618L311.591,365.618z"/>
<path d="M309.37,359.272c0,0,10.313-13.169,23.64-18.722c13.327-5.553,31.255-3.49,31.255-4.125c0-0.634-14.755-3.332-32.525,3.966
	C313.972,347.69,308.577,358.954,309.37,359.272L309.37,359.272z"/>
<path d="M308.577,349.911c0,0,10.313-13.169,23.64-18.721c13.327-5.553,31.255-3.49,31.255-4.125c0-0.634-14.755-3.332-32.525,3.967
	C313.178,338.329,307.784,349.593,308.577,349.911L308.577,349.911z"/>
<path d="M314.923,387.513c0,0,10.313-13.168,23.64-18.722c13.327-5.553,31.255-3.49,31.255-4.125c0-0.635-14.755-3.332-32.525,3.966
	C319.524,375.931,314.13,387.196,314.923,387.513L314.923,387.513z"/>
<path d="M312.702,381.167c0,0,10.313-13.168,23.64-18.722c13.327-5.553,31.255-3.49,31.255-4.125c0-0.635-14.755-3.332-32.525,3.966
	C317.303,369.585,311.909,380.85,312.702,381.167L312.702,381.167z"/>
<path d="M311.909,371.806c0,0,10.313-13.169,23.64-18.722c13.328-5.553,31.256-3.49,31.256-4.125c0-0.634-14.756-3.332-32.525,3.966
	C316.51,360.224,311.116,371.489,311.909,371.806L311.909,371.806z"/>
<path d="M319.207,409.884c0,0,10.313-13.168,23.64-18.722c13.327-5.553,31.255-3.49,31.255-4.125c0-0.634-14.755-3.332-32.525,3.967
	C323.808,398.302,318.414,409.566,319.207,409.884L319.207,409.884z"/>
<path d="M316.986,403.538c0,0,10.313-13.168,23.64-18.722c13.328-5.553,31.256-3.49,31.256-4.125c0-0.634-14.755-3.332-32.525,3.967
	C321.587,391.955,316.192,403.22,316.986,403.538L316.986,403.538z"/>
<path d="M316.192,394.177c0,0,10.313-13.169,23.64-18.722c13.327-5.553,31.255-3.49,31.255-4.125c0-0.635-14.755-3.332-32.525,3.966
	C320.794,382.595,315.399,393.86,316.192,394.177L316.192,394.177z"/>
<path d="M322.856,431.778c0,0,10.313-13.168,23.64-18.721c13.327-5.553,31.255-3.491,31.255-4.125
	c0-0.634-14.755-3.332-32.525,3.967C327.457,420.197,322.063,431.461,322.856,431.778L322.856,431.778z"/>
<path d="M320.635,425.432c0,0,10.313-13.169,23.64-18.721c13.327-5.553,31.255-3.491,31.255-4.125
	c0-0.634-14.755-3.332-32.525,3.967C325.236,413.85,319.842,425.115,320.635,425.432L320.635,425.432z"/>
<path d="M319.842,416.072c0,0,10.313-13.169,23.64-18.722c13.327-5.553,31.255-3.49,31.255-4.125c0-0.634-14.755-3.332-32.525,3.967
	C324.443,404.489,319.049,415.754,319.842,416.072L319.842,416.072z"/>
<path d="M328.885,449.707c0,0,10.313-13.168,23.64-18.721c13.327-5.553,31.255-3.49,31.255-4.125c0-0.634-14.755-3.332-32.525,3.967
	C333.486,438.125,328.092,449.39,328.885,449.707L328.885,449.707z"/>
<path d="M332.846,447.096c0,0,12.877-10.675,27.081-13.267c14.203-2.592,31.283,3.236,31.418,2.616
	c0.135-0.62-13.709-6.394-32.625-3.041C339.805,436.757,332.139,446.617,332.846,447.096L332.846,447.096z"/>
<path d="M326.664,443.36c0,0,10.313-13.168,23.64-18.721c13.328-5.553,31.256-3.49,31.256-4.125c0-0.634-14.755-3.332-32.525,3.967
	C331.265,431.778,325.871,443.043,326.664,443.36L326.664,443.36z"/>
<path d="M325.871,434c0,0,10.313-13.169,23.64-18.722c13.327-5.553,31.255-3.49,31.255-4.125c0-0.635-14.755-3.332-32.525,3.966
	C330.472,422.418,325.078,433.683,325.871,434L325.871,434z"/>
<path d="M288.745,257.73c0,0,27.924,140.73,28.4,140.73s0.476,0,0.476,0l-27.924-143.11L288.745,257.73L288.745,257.73z"/>
<path d="M292.552,258.841c0,0,27.924,140.73,28.4,140.73c0.476,0,0.476,0,0.476,0l-27.924-143.11L292.552,258.841L292.552,258.841z"
	/>
<path d="M295.408,250.115c0,0,27.924,140.73,28.4,140.73c0.476,0,0.476,0,0.476,0l-27.924-143.11L295.408,250.115L295.408,250.115z"
	/>
<path d="M350.939,251.701c0,0,27.924,140.73,28.4,140.73c0.476,0,0.476,0,0.476,0l-27.924-143.11L350.939,251.701L350.939,251.701z"
	/>
<path d="M354.271,253.288c0,0,27.924,140.73,28.4,140.73c0.476,0,0.476,0,0.476,0l-27.924-143.11L354.271,253.288L354.271,253.288z"
	/>
<path d="M349.67,261.062c0,0,27.924,140.73,28.4,140.73c0.476,0,0.476,0,0.476,0l-27.924-143.11L349.67,261.062L349.67,261.062z"/>
<path d="M344.593,273.913c0,0-12.534,16.66-21.577,40.617c-9.044,23.957-13.328,47.598-12.693,47.439
	c0.634-0.159,2.855-19.198,14.597-48.708C336.66,283.75,345.703,273.755,344.593,273.913L344.593,273.913z"/>
<path d="M342.054,263.76c0,0-12.534,16.659-21.577,40.616c-9.044,23.958-13.327,47.598-12.693,47.438
	c0.634-0.159,2.856-19.197,14.597-48.708C334.121,273.596,343.165,263.601,342.054,263.76L342.054,263.76z"/>
<path d="M337.929,249.639c0,0-12.534,16.659-21.578,40.616c-9.043,23.957-13.327,47.598-12.693,47.439
	c0.635-0.159,2.856-19.198,14.597-48.708C329.996,259.476,339.039,249.48,337.929,249.639L337.929,249.639z"/>
<path d="M334.121,238.374c0,0-12.534,16.659-21.577,40.616c-9.044,23.958-13.327,47.598-12.693,47.439
	c0.634-0.159,2.856-19.198,14.597-48.709C326.188,248.211,335.232,238.215,334.121,238.374L334.121,238.374z"/>
<path d="M350.622,284.385c0,0-12.534,16.659-21.578,40.616c-9.043,23.958-13.327,47.597-12.693,47.439
	c0.635-0.159,2.856-19.197,14.597-48.708C342.689,294.222,351.732,284.227,350.622,284.385L350.622,284.385z"/>
<path d="M352.684,297.395c0,0-12.534,16.659-21.577,40.616c-9.044,23.957-13.328,47.598-12.693,47.439
	c0.635-0.159,2.856-19.198,14.597-48.708C344.751,307.232,353.795,297.237,352.684,297.395L352.684,297.395z"/>
<path d="M356.174,314.213c0,0-12.534,16.66-21.577,40.616c-9.044,23.957-13.328,47.598-12.693,47.439
	c0.634-0.159,2.855-19.198,14.597-48.708C348.242,324.049,357.285,314.054,356.174,314.213L356.174,314.213z"/>
<path d="M359.824,325.319c0,0-12.534,16.66-21.577,40.616c-9.044,23.957-13.327,47.598-12.693,47.439
	c0.634-0.159,2.856-19.198,14.597-48.708C351.891,335.156,360.934,325.16,359.824,325.319L359.824,325.319z"/>
<path d="M363.473,338.329c0,0-12.534,16.659-21.577,40.616c-9.044,23.957-13.327,47.598-12.693,47.439
	c0.635-0.159,2.856-19.198,14.597-48.708C355.54,348.166,364.583,338.17,363.473,338.329L363.473,338.329z"/>
<path d="M368.55,345.152c0,0-12.534,16.659-21.578,40.616c-9.043,23.958-13.327,47.597-12.692,47.439
	c0.634-0.159,2.855-19.198,14.597-48.708C360.617,354.988,369.66,344.992,368.55,345.152L368.55,345.152z"/>
<path d="M372.358,352.608c0,0-12.534,16.659-21.577,40.616c-9.044,23.957-13.327,47.598-12.693,47.439
	c0.634-0.159,2.855-19.198,14.597-48.709C364.425,362.445,373.468,352.45,372.358,352.608L372.358,352.608z"/>
<path d="M376.495,358.479c0,0-10.8,15.278-18.594,37.25c-7.793,21.972-11.484,43.653-10.937,43.507
	c0.547-0.146,2.461-17.607,12.579-44.671C369.659,367.5,377.452,358.333,376.495,358.479L376.495,358.479z"/>
<path d="M330.472,262.411c0,4.425-3.764,8.012-8.409,8.012c-4.645,0-8.409-3.587-8.409-8.012c0-4.425,3.764-8.012,8.409-8.012
	C326.708,254.399,330.472,257.986,330.472,262.411L330.472,262.411z"/>
<path fill="#FFFFFF" d="M329.361,262.411c0,3.373-2.841,6.109-6.346,6.109c-3.506,0-6.346-2.735-6.346-6.109
	c0-3.373,2.841-6.108,6.346-6.108C326.521,256.302,329.361,259.037,329.361,262.411L329.361,262.411z"/>
<path d="M326.029,262.411c0,1.534-1.278,2.777-2.855,2.777c-1.577,0-2.856-1.243-2.856-2.777c0-1.533,1.278-2.777,2.856-2.777
	C324.751,259.634,326.029,260.877,326.029,262.411L326.029,262.411z"/>
<path d="M360.776,426.146c0,3.987-3.197,7.219-7.14,7.219c-3.943,0-7.139-3.232-7.139-7.219c0-3.987,3.197-7.219,7.139-7.219
	C357.579,418.927,360.776,422.159,360.776,426.146L360.776,426.146z"/>
<path fill="#FFFFFF" d="M359.031,426.384c0,3.066-2.38,5.553-5.315,5.553c-2.935,0-5.315-2.486-5.315-5.553
	c0-3.067,2.38-5.553,5.315-5.553C356.65,420.831,359.031,423.317,359.031,426.384L359.031,426.384z"/>
<path d="M356.174,425.671c0,1.708-1.35,3.093-3.015,3.093c-1.665,0-3.015-1.385-3.015-3.093c0-1.709,1.35-3.094,3.015-3.094
	C354.825,422.577,356.174,423.961,356.174,425.671L356.174,425.671z"/>
</svg>
