<?xml version="1.0" encoding="utf-8"?>
<!-- Generator: Adobe Illustrator 17.0.0, SVG Export Plug-In . SVG Version: 6.00 Build 0)  -->
<!DOCTYPE svg PUBLIC "-//W3C//DTD SVG 1.1//EN" "http://www.w3.org/Graphics/SVG/1.1/DTD/svg11.dtd">
<svg version="1.1" id="Layer_1" xmlns="http://www.w3.org/2000/svg" xmlns:xlink="http://www.w3.org/1999/xlink" x="0px" y="0px"
	 width="800px" height="600px" viewBox="0 0 800 600" enable-background="new 0 0 800 600" xml:space="preserve">
<g>
	<path fill-rule="evenodd" clip-rule="evenodd" fill="#CFBC83" d="M330.299,488.803c23.562,16.327,51.059,25.793,79.941,25.331
		c9.85-0.161,19.504-1.22,29.005-2.924c-14.327-15.643-29.909-28.753-29.909-28.753l3.819-15.267l-18.536-1.082l9.847-36.902
		l-63.829-21.99c0,0-3.272,2.723-8.726,9.269c-5.211,6.25-24.403,26.096-35.548,41.956
		C307.054,469.373,317.897,480.22,330.299,488.803z"/>
	<path fill-rule="evenodd" clip-rule="evenodd" fill="#AB005E" d="M442.395,446.306c5.222,11.193,10.264,24.722,14.653,35.297
		c2.056,4.966,5.033,13.303,8.116,23.215c5.486-1.716,10.925-3.613,16.297-5.704c-3.171-8.721-6.771-16.254-10.208-23.504
		c-10.215-21.531-24.643-33.747-24.643-33.747s2.665-8.217-0.67-23.31c-3.328-15.1-12.209-19.978-12.209-19.978
		s-2.881,1.994-5.771,2.879c-2.887,0.89-7.994,1.336-7.994,1.336s7.107,13.106,12.217,24.201
		C434.322,431.643,438.624,438.234,442.395,446.306z"/>
	<path fill-rule="evenodd" clip-rule="evenodd" fill="#EFCCA0" d="M375.739,373.12c-3.03,4.052-8.884,14.541-8.884,14.541
		s12.12,11.309,31.228,14.265c19.114,2.965,34.454-2.153,34.454-2.153s9.691-19.921,26.654-37.685
		c16.961-17.764,23.148-23.69,26.648-26.112c3.502-2.424,5.922-0.274,9.152,1.075c3.235,1.347,5.113,1.347,5.923-2.691
		c0.809-4.038,3.231-7.807,6.731-8.346c3.498-0.537,6.463-0.808,9.421-4.31c2.965-3.497,8.081-11.306,5.652-15.609
		c-2.423-4.307-14.931-8.327-13.255-13.588c1.681-5.258,9.754-6.605,13.255-12.526c3.499-5.926-0.536-7.805-5.652-7.537
		c-5.117,0.265-21.536,6.464-21.536,6.464s1.886-3.232,5.385-7.27c3.5-4.038,8.078-6.999,6.731-8.348
		c-1.346-1.347-13.996-5.113-13.996-5.113s32.301-14.267,40.914-17.497c8.615-3.228,11.844-5.116,9.963-9.69
		c-1.887-4.579-9.421-19.111-20.999-30.689c-11.578-11.576-22.341-18.307-27.726-20.729c-5.382-2.422-8.075-4.844-8.075-4.844
		s-1.077-4.307-4.843-7.807c-3.775-3.502-7.827-5.226-8.493-9.074c-0.664-3.846,1.489-20.268-1.204-33.729
		c-2.693-13.461-7.805-20.46-11.571-24.226c-3.774-3.773-14.537-12.651-23.422-10.503c-8.882,2.16-13.192,2.427-13.192,2.427
		l-3.978-2.642c0,0-2.61-7.485-11.491-5.066c-8.888,2.422-17.556,6.014-28.047,11.105c-10.493,5.086-36.729,20.118-43.711,26.187
		c-14.667,12.73-32.115,29.201-37.948,33.944c-8.61,7.001,5.466,35.071,10.498,44.419c7.538,13.995,18.036,39.84,18.036,39.84
		s-9.693-5.385-21.806,5.113c-12.11,10.5-12.918,22.884-6.728,29.883c6.193,6.996,15.612,7.805,24.768,6.996
		c9.155-0.806,16.688-5.647,16.688-5.647s31.383,57.138,36.879,70.526C382.474,356.974,378.975,368.814,375.739,373.12z"/>
	<path fill-rule="evenodd" clip-rule="evenodd" fill="#E6B17B" d="M352.111,201.396c3.306-3.305-8.418,4.378-7.071,0
		c1.345-4.38,17.171-21.886,17.171-23.907c0-2.015-6.735,0.34-5.721-3.029c1.011-3.368,13.131-16.161,27.274-26.938
		c14.136-10.772,45.457-29.971,57.576-35.352c12.118-5.385,18.184-8.757,21.549-6.062c3.367,2.696,7.404,6.399,7.071,9.09
		c-11.451-5.05-48.151,21.211-71.717,43.437c-22.564,21.277-35.357,41.078-41.078,45.116
		C351.438,207.795,344.365,209.144,352.111,201.396z"/>
	<path fill-rule="evenodd" clip-rule="evenodd" fill="#E6B17B" d="M427.194,185.237c0.676-5.727,4.044-15.491,11.785-25.256
		c7.746-9.767,19.529-17.843,22.899-14.813c3.366,3.031,0.673,7.069-7.07,16.162C449.555,167.493,426.522,190.957,427.194,185.237z"
		/>
	<path fill-rule="evenodd" clip-rule="evenodd" fill="#E6B17B" d="M452.446,230.353c0,0,37.064-38.505,38.397-34.405
		c1.339,4.097-9.101,16.891-18.863,25.648C462.215,230.353,451.775,233.047,452.446,230.353z"/>
	<path fill-rule="evenodd" clip-rule="evenodd" fill="#E6B17B" d="M469.619,251.227c0.792-4.753,0.341-9.763,6.736-14.136
		c6.394-4.382,10.099-7.413,15.826-8.42c5.721-1.012,10.1-1.684,11.444-0.337c1.348,1.345-8.617-18.85-28.615-2.696
		C457.504,239.783,468.611,257.289,469.619,251.227z"/>
	<path fill-rule="evenodd" clip-rule="evenodd" fill="#E6B17B" d="M474.671,266.719c4.786,1.062,8.078-0.677,11.445-3.37
		c3.373-2.694,8.085-6.392,8.085-6.392s1.684,2.017,4.379,3.029c2.694,1.007-2.021,7.406-11.791,11.784
		C477.026,276.148,468.611,265.367,474.671,266.719z"/>
	<path fill-rule="evenodd" clip-rule="evenodd" fill="#E6B17B" d="M394.535,340.122c12.456,12.791,29.631,18.18,47.138,19.525
		c11.161,0.856,20.543-3.366,20.543-3.366s-11.786,11.111-18.86,20.876c-7.069,9.758-8.75,12.796-9.09,14.48
		c-0.338,1.677-17.173-8.42-26.935-20.204C397.567,359.647,394.535,340.122,394.535,340.122z"/>
	<path fill-rule="evenodd" clip-rule="evenodd" fill="#E6B17B" d="M345.376,275.805c0,0,4.379,0.342,8.755,0.677
		c4.373,0.339,7.069,2.694,11.783,1.344c4.715-1.344,11.448-7.404,11.448-7.404s4.715,6.734-1.007,13.805
		c-5.726,7.064-8.081,3.701-13.804,5.385c-5.727,1.68-8.755,3.366-8.755,3.366L345.376,275.805z"/>
	<path fill-rule="evenodd" clip-rule="evenodd" fill="#EFEDD4" d="M294.828,155.232c0,0-0.951-3.778-0.32-5.985
		c0.631-2.205,14.806-16.693,28.038-26.777c13.226-10.073,34.016-24.254,39.052-25.51c5.045-1.259,11.029-2.519,13.859-2.519
		c2.837,0,6.028,0.772,6.028,0.772s5-2.035,10.667-4.867c5.671-2.834,13.648-4.912,17.381-6.238
		c3.723-1.324,6.229-0.082,6.229-0.082s0.388,0.134,0.994,0.389c0.608,0.26,1.257,1.082,1.257,1.082s1.296,0.908,1.555,1.252
		c0.256,0.349,0.644,0.647,0.948,1.17c0.299,0.516,3.111,0.951,4.452,1.858c1.34,0.91,7.001,6.134,7.001,6.134
		s14.179-6.566,21.267-0.688c7.089,5.876-28.354,23.685-38.381,30.775c-10.027,7.085-46.34,31.123-50.314,35.444
		c-3.979,4.323-19.02,39.942-21.27,48.586c-2.246,8.647-6.911,21.092-15.902,24.376c-8.991,3.282-10.028,3.112-9.166,1.383
		c0.867-1.727,1.729-4.498,4.15-7.259c2.421-2.766,2.94-5.881,3.456-7.264c0.519-1.383-4.495,2.938-6.914,3.803
		c-2.421,0.869-2.592,0.695-5.361,1.383c-2.766,0.693-3.281,0.693-4.839,0c-1.559-0.688-1.901-3.456-1.901-3.456
		s4.32-6.055,6.051-9.163c1.729-3.112,1.212-6.575-0.175-6.575c-1.382,0-7.086,1.041-8.985,1.213
		c-1.902,0.174-3.811,0.865-5.363,0.865c-1.555,0-3.283-0.69-2.249-3.284c1.039-2.594,9.337-11.064,9.337-11.064l-9.858,6.741
		c0,0-1.033-0.342-1.551-1.209c-0.518-0.867-0.696-3.459-0.179-4.672c0.523-1.209,8.301-9.853,8.301-9.853s-1.802,0.96-4.013-0.147
		c-2.213-1.104-2.551-2.383-2.465-4.083s0.424-4.079,1.446-5.267c1.019-1.191-1.961-3.321-3.321-4.339
		c-1.357-1.025-2.381-1.702-2.548-3.149c-0.175-1.446-0.175-2.553,0.594-4.932C292.584,161.694,294.828,155.232,294.828,155.232z"/>
	<path fill-rule="evenodd" clip-rule="evenodd" d="M299.146,175.438c28.586-20.568,55.831-44.817,89.079-59.161
		c-26.42,15.727-50.523,35.872-73.492,55.184c-4.261,3.588-20.333,14.206-20.469,18.425c16.7-13.613,33.061-27.551,51.959-38.969
		c-17.794,20.455-41.624,37.18-57.156,58.453c14.523-2.657,20.722-17.375,32.478-24.242c-7.14,9.16-16.072,20.288-24.867,24.38
		c0.093,2.008,1.299,5.915,5.029,6.243c3.719,0.324,10.958-6.087,10.958-6.087s-2.118,7.202-10.354,12.044
		c6.158,7.046,11.775,0.887,16.288-3.309c4.519-4.185,8.427-7.959,11.266-11.222c-5.252,8.176-10.287,14.672-18.2,19.93
		c4.029,2.85,8.376-0.514,11.176-3.013c-2.076,3.975-7.437,7.35-6.062,12.121c-11.54,2.209-23.192,16.836-23.811,28.149
		c-1.117,20.403,32.948,24.143,47.22,13.724c6.307,15.095,38.704,68.007,38.359,78.035c-0.345,10.027-6.639,20.865-11.107,25.58
		c-3.073-5.872-11.372-6.904-16.903-1.374c-6.729,6.729-18.077,21.605-21.786,28.357c-0.069,1.367,2.766,2.764,4.915,3.33
		c-11.768,13.823-26.355,29.152-38.558,45.146c1.303,1.331,2.612,2.653,3.919,3.984c12.208-17.022,26.849-31.341,40.096-47.968
		c14.938,4.353,46.201,12.468,58.903,20.431c-4.576,9.314-10.223,26.073-9.824,36.587c4.854-0.351,15.074-0.34,20.372,0.702
		c-0.623,5.156-2.508,9.045-3.463,13.859c9.823,7.098,19.783,16.791,29.104,27.289c11.388-1.727,22.524-4.488,33.438-8.033
		c-6.114-19.964-13.607-40.829-21.756-58.951c4.028,0.416,13.328,14.022,22.628,30.404c3.795,6.68,7.465,14.966,10.753,24.462
		c1.285-0.489,2.584-0.951,3.86-1.455c-7.172-22.008-17.187-38.76-33.863-58.308c4.26-17.031-3.792-33.688-13.098-40.764
		c11.457-26.078,31.127-42.138,49.587-61.198c2.515,1.227,3.897,0.555,5.943-1.096c-0.182,4.532,1.514,10.306,4.049,10.79
		c0.291-1.152-0.171-6.598-0.171-6.598s4.483,3.398,5.927,2.54c-6.091-5.081-4.797-20.903-3.482-27.282
		c-1.443,0.102-2.989,2.886-3.709,4.74c-0.475-1.338,0.452-5.926,0.452-7.626c-3.047,2.001-5.092,6.288-6.018,14.638
		c-0.824-4.018,0.207-11.958,1.236-16.082c-2.372,1.342-4.328,8.662-5.208,15.786c-2.45-5.951-0.547-17.038,0.466-22.794
		c-3.504,1.032-5.77,9.07-6.699,12.058c-0.618-2.162-1.132-7.006-0.102-11.75c-3.299,1.236-4.315,14.729-3.505,19.484
		c-4.701-3.115-4.227-16.286-3.196-20.408c-5.977,2.78-4.444,21.451,3.007,28.903c2.615-1.575,4.311-7.879,5.697-13.287
		c0.059,6.648,0.985,11.286,3.033,14.292c-21.765,18.246-42.445,40.32-53.946,63c-18.065,6.609-47.201-1.032-58.637-8.878
		c5.652-8.529,14.905-18.674,13.178-34.238c-1.729-15.557-37.333-72.86-37.856-77.041c11.263,0.288,24.086,5.89,29.878-4.332
		c0.904,0.251,3.334,1.453,4.695,1.241c5.096-5.263,16.784-16.275,22.583-23.756c-5.821,0.564-10.012,4.738-15.584,9.525
		c1.986-3.742,15.159-16.877,17.752-21.646c-8.442-3.361-27.472,19.577-31.605,32.042c-2.894,0.421-1.807,4.004-7.411,5.027
		c-5.605,1.016-10.685-3.128-17.276-3.293c-10.756-0.281-12.699,6.883-27.223,7.451c-14.523,0.573-25.581-6.976-24.3-16.118
		c2.061-14.697,16.457-29.057,34.638-19.914c1.157-2.651,3.392-6.347,6.496-5.63c-0.273,2.024-3.289,3.171-2.169,5.195
		c4.234,1.338,7.458-2.415,11.261,0.435c-0.47,1.808-2.341,4.461-0.433,6.064c3.256,0.079,3.522-2.827,6.062-3.466
		c0.684,2.361,3.11,3.753,1.73,6.926c1.409,1.621,5.186,0.874,4.762,4.33c2.246,0.208,1.366-4.475,3.465-3.029
		c0.772,2.212-3.076,4.959-1.299,8.223c2.604,1.661,4.232-2.719,5.628-2.162c0.343,2.503-1.641,2.689-1.296,5.195
		c2.411-0.073,2.234,2.313,4.323,3.461c7.716-11.626,15.409-23.278,23.821-34.202c-2.445-0.281-2.998-1.718-4.768-3.472
		c-2.138,0.045-3.716,2.904-4.76,2.608c1.38-3.448,4.962-5.075,4.332-8.232c-3.272-1.268-4.822,4.276-6.928,4.765
		c1.594-4.203,6.874-6.942,6.062-12.121c-6.31,3.658-9.834,13.828-16.889,18.183c3.624-8.509,14.684-14.17,14.723-23.38
		c-3.83,2.804-10.392,10.387-10.392,10.387s7.089-12.085,8.603-18.694c-2.97,0.405-13.743,12.153-13.743,12.153
		s10.581-14.885,9.159-17.083c-2.546-1.283-7.235,4.448-8.779,4.145c1.947-2.379,6.431-10.315,7.759-13.316
		c-3.058-1.134-6.434,2.741-9.667,4.081c1.238-1.596,6.992-8.585,5.923-11.082c-4.671,0.378-8.137,7.246-12.243,8.192
		c0.756-2.633,9.79-9.631,8.23-13.16c-5.893,0.473-18.925,20.58-24.085,21.782c16.436-19.684,31.266-36.522,30.582-39.17
		c-4.655-2.397-15.61,11.596-19.925,12.363c9.975-15.79,41.399-35.492,57.703-45.513c16.305-10.027,32.599-18.873,42.751-19.874
		c8.361-0.815,10.933,6.496,12.555,14.29c2.056,9.851,0.566,27.42,0.103,34.747c2.877,8.131,17.423,12.06,12.259,18.706
		c-1.356-0.865-3.076-2.341-4.429-2.832c-13.832,11.281-26.741,20.974-40.349,32.477c-1.016,2.372-1.357,4.67-1.786,7.402
		c4.834,6.58,9.674,13.712,15.584,19.484c12.894-12.221,25.181-25.05,38.535-36.807c0.811-2.626,0.811-5.084,0.688-7.3
		c-1.106-2.463-4.259-7.393-5.787-9.595c3.82-3.694,18.681,6.589,29.656,16.451c14.55,13.065,22.392,24.869,26.751,39.315
		c-8.554,5.052-19.114,9.167-28.655,12.884c-10.584,4.124-18.151,4.244-23.606,7.836c-3.913,2.574-8.688,8.798-13.335,8.388
		c-2.869-0.249-5.84-7.823-4.6-13.884c1.532-7.463,7.154-13.565,16.074-17.8c5.916-2.809,12.635-3.827,17.288,1.569
		c3.911-12.757-13.314-8.366-19.886-5.419c-10.482,4.701-18.071,14.099-18.802,24.582c-0.722,10.487,5.761,16.997,10.796,16.582
		c4.357-0.358,12.774-6.286,16.072-10c3.918,3.914,12.265,2.782,12.474,5.668c0.204,2.884-15.854,10.521-15.557,19.054
		c5.971-3.388,19.74-13.477,29.574-9.982c5.251,1.863,2.682,6.186-3.297,10.41c-5.981,4.228-11.235,5.156-10.82,10.514
		c0.407,5.358,14.713,4.342,15.718,13.309c0.77,6.895-4.925,11.582-7.027,14.133c-1.865-2.2-1.006-5.863-0.679-8.635
		c-2.883,1.012-4.405,5.079-6.268,8.635c-1.02-1.693-0.507-6.096,0.171-8.977c-1.863,0-4.24,3.896-5.589,8.133
		c-0.489-2.474-1.016-5.423-1.358-8.642c-3.616,7.472-4.912,28.627,5.084,29.985c-2.015-3.004-3.052-7.288-1.656-11.252
		c1.823,5.152,5.925,11.793,10.63,10.743c-4.497-3.216-7.968-12.107-4.565-15.073c0.723,7.039,8.522,15.055,15.737,11.236
		c-1.867-2.537-4.991-7.478-5.412-10.055c1.949,2.234,6.887,4.683,9.484,2.542c-4.065-1.526-11.168-7.325-8.987-13.251
		c2.043,7.153,7.523,11.096,12.712,8.843c-2.196-1.526-5.757-3.219-7.084-6.247c2.345,1.17,8.916,3.282,11.964,0.238
		c-3.048-0.677-8.347-1.756-10.614-5.672c2.472,1.016,8.452,3.71,11.751,1.34c-2.475-0.412-4.49-1.682-6.174-3.699
		c3.375-0.355,7.923-2.177,8.748-4.443c-2.197,0-8.252,1.039-12.208,0.118c3.239-1.564,9.22-2.696,12.315-3.624
		c-1.693-0.844-8-1.252-9.794-1.44c2.174-3.703,7.216-6.29,11.956-8.142c-2.25-1.403-10.406-0.21-15.668,4.12
		c1.548-4.846,7.73-8.454,10.284-9.966c-7.073-1.08-14.095,4.916-18.117,12.544c-3.504-3.404-11.65-4.846-11.857-8.142
		c-0.203-3.3,4.811-2.906,9.588-6.804c5.435-4.423,9.914-10.528,5.876-14.016c-7.534-6.524-20.614,0.928-27.725,4.636
		c3.658-5.116,13.217-10.761,12.79-13.769c-0.429-3.008-9.243-2.54-12.126-6.059c17.372-5.322,33.66-12.228,49.477-19.554
		c-5.419-31.508-38.786-54.714-57.928-64.026c-1.527-8.305-14.567-12.873-14.931-16.442c-0.359-3.572,6.464-35.051-9.524-55.422
		c1.626-1.066,8.026-4.864,16.663-3.511c-4.233-7.114-17.104-9.993-24.891-9.914c1.173-2.531,9.307-3.296,12.696-2.449
		c0.513-12.707-37.206-0.618-42.141,3.748c-6.735-6.349-18.247,2.008-25.546,5.629c-37.762,18.76-74.688,41.866-102.122,69.798
		c-1.795,1.829-21.56,19.215-19.183,23.215C286.535,184.286,292.881,179.949,299.146,175.438z M433.405,401.477
		c11.938,11.94,14.855,33.038,10.241,39.113c-7.124-11.336-13.295-24.675-18.986-36.472
		C428.547,403.973,432.116,402.133,433.405,401.477z M319.379,235.785c2.525-1.951,10.177-11.985,14.312-15.611
		C328.637,229.217,322.224,235.276,319.379,235.785z M522.152,337.376c-2.877,0.629-9.068-5.358-5.76-10.229
		C517.926,331.401,518.855,334.079,522.152,337.376z M388.271,122.067c-2.095,2.522-17.042,12.429-20.397,13.694
		C369.807,133.074,384.587,123.004,388.271,122.067z M374.171,143.81c-0.999,2.175-12.35,9.946-14.775,10.702
		C358.776,152.33,371.458,144.068,374.171,143.81z M370.096,154.005c-3.456,2.452-11.945,7.504-13.244,6.791
		c12.53-9.982,30.41-22.098,44.365-30.661C391.95,139.344,373.557,151.547,370.096,154.005z M376.102,142.262
		c0.961-3.035,17.987-12.671,19.815-12.719C395.425,130.926,377.842,142.122,376.102,142.262z M444.949,96.362h1.298
		c-14.757,8.486-30.286,16.605-45.142,25.408c-5.721,3.386-23.854,15.718-27.518,17.975c-2.793,1.72-5.678,3.128-8.741,3.812
		c0.503-4.577,15.408-12.768,18.691-15C401.825,116.139,422.644,104.699,444.949,96.362z M424.819,91.942
		c-4.237,3.024-20.248,10.797-26.207,14.335C403.368,100.507,419.233,87.752,424.819,91.942z M406.509,96.514
		c-4.354,3.617-74.987,49.693-99.253,65.665C333.146,138.276,370.194,112.379,406.509,96.514z"/>
	<path fill-rule="evenodd" clip-rule="evenodd" d="M463.562,147.024c-20.042,2.248-30.847,21.048-36.368,40.698
		c-2.835-2.637-0.738-8.794,0.433-12.121c2.246-6.381,7.125-13.909,11.004-18.816c3.878-4.896,14.63-15.657,22.335-14.96
		C463.227,142.031,465.511,144.514,463.562,147.024z"/>
	<path fill-rule="evenodd" clip-rule="evenodd" d="M457.081,174.13c4.43,2.587,2.392,12.128-3.906,9.264
		C446.873,180.529,452.656,171.547,457.081,174.13z"/>
	<path fill-rule="evenodd" clip-rule="evenodd" fill="#CFD8DD" d="M441.954,206.362c11.81-11.195,35.309-29.156,37.15-29.77
		c4.183,2.707,8.858,9.715,9.718,12.18c-4.426,3.443-24.645,22.522-33.088,31.981C449.952,218.173,443.677,209.314,441.954,206.362z
		"/>
	<path fill-rule="evenodd" clip-rule="evenodd" fill="#E2E1D7" d="M489.804,190.493c0.498,0.985-0.363,4.674-0.363,4.674
		s-17.594,14.883-34.446,33.217c1.102-2.585,2.087-5.91,2.087-5.91S476.399,201.935,489.804,190.493z"/>
	<path fill-rule="evenodd" clip-rule="evenodd" fill="#AFB9BA" d="M439.616,213.254c-0.122-1.478,0.248-3.574,0.74-4.925
		c2.951,5.663,10.392,13.163,14.146,14.64c-0.483,1.974-1.318,4.081-2.091,6.27C448.975,226.618,442.155,217.827,439.616,213.254z"
		/>
	<path fill-rule="evenodd" clip-rule="evenodd" d="M334.186,252.886c-5.899-0.813-10.585,2.186-13.507,6.714
		c8.207,9.473,26.922-13.678,27.89,3.44c-2.225,1.062-4.106-1.716-6.238-2.141c-4.261,4.722-26.411,9.799-26.415-0.869
		C315.913,253.731,332.016,242.459,334.186,252.886z"/>
	<path fill-rule="evenodd" clip-rule="evenodd" d="M395.067,265.261c-0.033,1.985-4.081,8.488-6.454,11.039
		c-2.381,2.547-4.782,3.139-6.445,1.917C383.395,275.268,391.822,266.198,395.067,265.261z"/>
	<path fill-rule="evenodd" clip-rule="evenodd" d="M464.639,306.966c0,7.01,1.851,15.256,3.812,20.827
		C464.531,327.582,459.794,312.946,464.639,306.966z"/>
	<path fill-rule="evenodd" clip-rule="evenodd" fill="#B7A271" d="M393.62,464.436c5.929-0.514,17.946-0.502,21.681,3.551
		c-1.354,5.249-2.799,10.021-4.063,15.245c10.719,8.366,19.956,17.836,28.526,27.893c8.051-1.464,15.984-3.409,23.795-5.788
		c-11.339-36.802-26.124-70.162-44.593-99.837c-26.669-0.321-36.293-4.733-53.56-14.45c1.385-8.651-7.607-12.105-12.448-7.956
		c-4.839,4.151-13.881,15.854-17.292,23.86c15.066,4.07,57.11,15.983,68.801,22.25C400.904,439.533,394.855,455.982,393.62,464.436z
		"/>
	<path fill-rule="evenodd" clip-rule="evenodd" d="M415.938,84.237c-11.521,5.795-85.63,48.405-107.285,66.701
		c-4.086,3.45-22.211,19.457-26.301,22.567c-0.387-0.973-0.975-3.504-0.642-5.697c30.036-35.922,102.63-84.673,115.629-85.819
		c-6.881,4.973-11.726,8.284-14.338,11.471C391.601,88.87,414.47,78.99,415.938,84.237z M361.518,110.84
		c6.204-3.463,30.998-17.273,37.795-22.205C391.352,90.081,373.434,99.667,361.518,110.84z"/>
	<path fill-rule="evenodd" clip-rule="evenodd" d="M292.02,194.105c0,0,6.996-7.537,13.999-12.381
		c7.001-4.844,17.766-11.845,17.766-11.845s-4.574,6.729-15.073,15.883c-10.501,9.154-16.424,15.344-16.424,15.344
		S288.521,197.064,292.02,194.105z"/>
	<path fill-rule="evenodd" clip-rule="evenodd" d="M291.217,188.992c0,0,8.342-8.617,15.339-13.461
		c6.999-4.844,17.229-13.726,17.229-13.726s-12.386,6.994-22.61,13.997C290.942,182.806,290.406,186.036,291.217,188.992z"/>
	<path fill-rule="evenodd" clip-rule="evenodd" d="M292.832,170.415c0,0,6.995-6.999,12.65-12.114
		c5.65-5.111,20.456-17.497,20.456-17.497s-8.884,4.853-20.456,14.539C293.905,165.035,290.406,167.455,292.832,170.415z"/>
	<path fill-rule="evenodd" clip-rule="evenodd" d="M292.282,145.852c-0.39,4.28,2.145,7.008,2.145,7.008
		s12.268-12.657,31.939-27.848c19.672-15.193,42.46-29.994,42.46-29.994s-8.511-4.719-47.913,25.317
		C305.335,132.212,296.765,140.788,292.282,145.852z"/>
	<path fill-rule="evenodd" clip-rule="evenodd" d="M385.439,102.881c0,0,29.521-17.97,31.79-18.153
		c2.567-0.208,2.653,2.513,2.653,2.513s-2.271-0.627-6.063,1.152C409.738,90.31,385.439,102.881,385.439,102.881z"/>
	<polygon fill-rule="evenodd" clip-rule="evenodd" fill="#EFF7FC" points="455.855,195.536 464.714,188.523 470.863,203.78 
		461.882,212.881 	"/>
	<path fill-rule="evenodd" clip-rule="evenodd" fill="#DECC98" d="M326.301,485.829c2.364-5.193,5.168-17.185,10.165-27.511
		c8.368-17.307,21.763-28.903,20.255-30.114c-2.725-2.18-9.001-4.095-11.726-4.636c-2.726-0.548-12.961,9.081-26.047,24.887
		c-4.822,5.829-9.835,12.492-14.024,18.586C311.72,473.758,318.753,480.166,326.301,485.829z"/>
	<path fill-rule="evenodd" clip-rule="evenodd" fill="#F7E4BF" d="M445.551,144.021c5.52-5.007,13.011-8.04,17.414-8.613
		c4.399-0.573,4.206-19.33-5.169-15.695c-9.377,3.64-17.416,7.279-26.412,21.63C422.391,155.696,433.302,155.121,445.551,144.021z"
		/>
	<path fill-rule="evenodd" clip-rule="evenodd" fill="#F7E4BF" d="M507.553,194.927c5.706,3.635,12.824,8.803,18.377,17.411
		c5.542,8.615,8.428,17.438,7.077,18.181c-3.827,2.112-12.825-1.915-19.904-13.393C506.022,205.645,492.242,185.162,507.553,194.927
		z"/>
	<path fill-rule="evenodd" clip-rule="evenodd" fill="#F7E4BF" d="M485.74,237.406c3.622-2.603,8.419-4.203,13.394-1.336
		c4.975,2.87-3.635,9.953-10.906,13.778C480.953,253.679,474.831,245.258,485.74,237.406z"/>
	<path fill-rule="evenodd" clip-rule="evenodd" fill="#F7E4BF" d="M509.849,277.217c3.479-1.304,8.037-0.575,7.273,2.295
		c-0.765,2.872-7.079,6.7-12.819,6.89C498.556,286.592,500.66,280.662,509.849,277.217z"/>
	<path fill-rule="evenodd" clip-rule="evenodd" fill="#F7E4BF" d="M516.545,304.58c2.199,2.017,1.724,6.125-0.763,7.083
		c-2.488,0.958-6.504-0.575-8.994-4.212C504.303,303.818,511.96,300.373,516.545,304.58z"/>
	<path fill-rule="evenodd" clip-rule="evenodd" fill="#F7E4BF" d="M407.331,206.111c4.983-2.492,15.487-4.378,20.202-3.031
		c4.714,1.342-2.355,2.694-8.079,4.715c-5.727,2.021-11.791,4.373-15.826,7.408C399.584,218.232,395.884,211.835,407.331,206.111z"
		/>
	<path fill-rule="evenodd" clip-rule="evenodd" fill="#F7E4BF" d="M404.635,222.27c2.093-2.596,7.745-8.751,15.826-10.437
		c8.083-1.689,14.145,0.677,13.133,6.064C432.582,223.282,394.871,234.394,404.635,222.27z"/>
	<path fill-rule="evenodd" clip-rule="evenodd" fill="#D0878F" d="M436.11,407.158c1.378,1.908,6.669,9.527,7.382,16.2
		c0.714,6.666-0.238,10.24-1.19,8.81c-0.953-1.428-4.762-9.529-6.67-16.678C433.73,408.342,433.01,402.867,436.11,407.158z"/>
	<path fill-rule="evenodd" clip-rule="evenodd" fill="#D0878F" d="M477.676,500.521c-1.767-5.129-3.54-9.529-5.119-12.603
		c-4.541-8.837-2.69,0.616,0.658,14.26C474.709,501.653,476.185,501.078,477.676,500.521z"/>
	<path fill-rule="evenodd" clip-rule="evenodd" fill="#CCB47B" d="M397.377,463.103c0,0,3.512-1.053,8.424-0.351
		c4.923,0.706,9.836,2.46,11.771,4.034c1.931,1.584,0.877-9.129-9.485-10.702C401.776,455.118,394.742,463.459,397.377,463.103z"/>
	<path fill-rule="evenodd" clip-rule="evenodd" fill="#CCB47B" d="M442.483,510.653c3.081-0.609,6.143-1.288,9.183-2.035
		c-1.217-1.616-2.504-3.266-3.892-4.953c-20.721-25.107-32.31-20.016-29.675-17.556
		C420.417,488.274,432.995,500.008,442.483,510.653z"/>
</g>
</svg>
