<?xml version="1.0" encoding="utf-8"?>
<!-- Generator: Adobe Illustrator 17.0.0, SVG Export Plug-In . SVG Version: 6.00 Build 0)  -->
<!DOCTYPE svg PUBLIC "-//W3C//DTD SVG 1.1//EN" "http://www.w3.org/Graphics/SVG/1.1/DTD/svg11.dtd">
<svg version="1.1" id="Layer_1" xmlns="http://www.w3.org/2000/svg" xmlns:xlink="http://www.w3.org/1999/xlink" x="0px" y="0px"
	 width="800px" height="600px" viewBox="0 0 800 600" enable-background="new 0 0 800 600" xml:space="preserve">
<g>
	<path d="M405.181,427.903c0.004,0.002,0.004,0.002,0.008,0.002c0.004,0.004,0.011,0.011,0.015,0.017
		C405.197,427.915,405.191,427.909,405.181,427.903z"/>
	<path d="M570.923,395.776c-7.889-19.135-5.074-43.096-3.147-57.729c-0.006,0.04-0.013,0.08-0.019,0.12
		c0.011-0.08,0.023-0.164,0.031-0.242c0.023-0.156,0.042-0.311,0.063-0.462c-0.011,0.082-0.023,0.166-0.031,0.248
		c2.988-21.824,7.546-43.69,6.836-65.821c-0.618-19.324-3.731-64.511-49.186-104.024c-15.265-13.268-51.4-42.659-112.505-21.937
		c-35.404-8.135-69.655,9.278-92.047,28.796c-25.379,22.129-42.501,52.612-57.014,82.53c-8.381,17.278-15.509,34.965-22.955,52.638
		c0.038-0.086,0.071-0.174,0.109-0.261c-6.582,15.524-13.835,31.095-24.085,44.575c-3.427,4.374-7.194,8.464-11.555,11.918
		c-2.462,1.842-5.059,3.435-7.87,4.687c-2.128,0.853-4.311,1.473-6.578,1.838c-2.214,0.254-4.41,0.246-6.628-0.011
		c-2.534-0.412-4.967-1.128-7.349-2.095c-1.876-0.847-6.555-3.456-8.313-4.538c-10.799,20.16,7.637,32.992,23.28,37.919
		c22.896,7.217,46.773,9.511,71.519,9.841c17.551,0.233,35.787-1.364,53.592-5.002c0.649,2.126,1.332,4.29,2.055,6.504
		c6.742,20.69,22.793,53.582,42.923,66.607c15.723,10.173,35.982,5.225,55.063-7.399c24.419-16.156,40.495-37.238,51.087-60.63
		c22.129,27.278,65.223,29.747,93.85,30.976c17.007,0.725,59.153,1.231,65.315-25.139
		C621.613,417.764,580.782,419.684,570.923,395.776z"/>
	<path fill="#FFD4B8" d="M457.077,420.005c-9.475,17.763-42.402,61.441-79.733,58.653c-19.282-1.439-38.65-36.604-42.346-45.211
		c-8.952-21.427-16.828-43.793-19.925-66.735c-3.137-23.822-6.278-54.8-4.027-79.141c15.66-17.975,34.686-32.896,44.497-55.164
		c6.733-1.391,15.076-2.974,21.688-3.876c12.694-1.644,25.536-2.267,38.264-0.662c7.721,1.094,15.248,3.028,22.469,5.995
		c6.464,2.801,12.502,6.376,18.12,10.633c7.141,5.616,13.383,12.194,18.965,19.351c1.502,2.004,3.851,5.643,6.511,9.941
		c-0.37,28.431-0.571,56.876-4.292,85.12C474.619,378.151,466.237,402.828,457.077,420.005z"/>
	<path fill="#F0C5A6" d="M378.186,323.813c-8.32-3.198-17.677-3.139-26.457-2.769c-4.009,0.168-8.07,0.29-12.051,0.803
		c-5.13,0.662-10.656,1.592-15.482-0.641c1.775,7.261,4.299,14.826,9.713,20.173c5.248,5.179,12.442,7.601,19.605,8.679
		c5.66,0.851,11.492,1.017,17.19,0.466c4.832-0.464,10.4-1.758,13.975-5.292c3.723-3.681,4.282-9.271,2.057-13.971
		C385.037,327.666,381.856,325.225,378.186,323.813z"/>
	<path fill="#F0C5A6" d="M457.596,323.597c-9.847-5.349-21.541-6.813-32.562-7.532c-3.66-0.238-7.376-0.521-11.047-0.517
		c-2.565,0.004-8.775-0.216-8.744,3.569c0.006,1.002-0.853,1.445-1.622,1.334c0.01,5.261,3.456,10.763,6.32,14.757
		c3.532,4.925,7.672,9.33,13.307,11.788c9.778,4.265,22.331,5.385,32.436,1.597c4.853-1.819,11.776-5.824,12.065-11.757
		C468.046,330.774,462.451,326.236,457.596,323.597z"/>
	<path fill="#F0C5A6" d="M398.277,377.044c-1.765,0.613-3.259,1.891-4.925,2.725c-1.372,0.689-2.84,1.2-4.364,1.569
		c-2.359,0.96-4.931,1.294-7.469,1.074c-3.557,0.431-7.145,0.349-10.425-0.809c-4.147-1.466-6.786-4.319-8.353-7.87
		c0.842,6.824,3.967,13.448,10.034,17.003c8.046,4.717,23.755,2.901,26.282-7.748C399.25,382.175,400.061,376.426,398.277,377.044z"
		/>
	<path fill="#F0C5A6" d="M368.098,268.999c5.925-1.492,12.61-2.725,17.612-6.479c1.935-1.454,2.053-2.689-0.168-3.819
		c-1.941-0.989-4.12-1.553-6.271-1.866c-5.456-0.796-11.164,0.603-15.996,3.172c-4.908,2.607-9.212,6.128-13.145,10.036
		c-2.548,2.53-6.969,6.383-7.462,10.318c2.33-2.084,4.75-4.58,7.584-5.965C355.797,271.69,362.154,270.491,368.098,268.999z"/>
	<path fill="#F0C5A6" d="M439.696,257.062c-3.443,1.91-6.431,4.288-8.807,7.45c2.792,5.004,10.513,6.116,15.334,8.057
		c7.744,3.12,14.813,8.16,22.799,10.635c0.101-1.055,0.004-2.086-0.185-3.174c-0.344-0.361-0.689-0.725-1.038-1.086
		c-8.273-8.513-17.566-16.099-27.736-22.177C439.967,256.872,439.85,256.975,439.696,257.062z"/>
	<path fill="#F0C5A6" d="M400.493,431.426c-2.191-1.038-4.862-1.33-7.244-1.559c-7.219-0.695-14.839-0.504-21.904,1.24
		c-4.452,1.101-11.91,3.508-9.668,9.486c0.296,0.79-0.141,1.365-0.75,1.586c-0.122,10.824,11.666,16.557,21.57,16.263
		c3.904-0.116,7.962-0.983,11.211-3.261c3.792-2.656,6.914-7.093,8.759-11.29C404.155,440.048,405.283,433.695,400.493,431.426z"/>
	<path fill="#F0C5A6" d="M319.176,298.567c4.969-8.057,8.889-16.465,12.805-25.062c2.24-4.92,4.784-9.74,6.885-14.721
		c0.286-0.683,0.578-1.363,0.87-2.044c-9.009,10.641-19.431,20.204-28.69,30.831c-0.695,7.536-0.874,15.709-0.697,24.108
		C313.438,307.414,316.405,303.059,319.176,298.567z"/>
	<path fill="#F0C5A6" d="M475.048,263.847c-5.582-7.158-11.824-13.736-18.965-19.351c-5.618-4.256-11.656-7.832-18.12-10.633
		c-7.221-2.966-14.748-4.901-22.469-5.995c-12.727-1.605-25.57-0.982-38.264,0.662c-6.612,0.902-14.954,2.485-21.688,3.876
		c-1.645,3.731-3.552,7.253-5.656,10.621c4.363-1.2,8.838-2.13,13.29-2.866c9.46-1.565,19.078-2.197,28.652-1.506
		c15.229,1.103,30.119,5.246,43.661,12.324c13.389,6.998,25.181,16.301,35.484,27.133c0.116,0.08,0.22,0.183,0.302,0.313
		c3.528,3.729,6.88,7.635,10.061,11.694c0.084-5.444,0.147-10.889,0.221-16.33C478.899,269.491,476.55,265.852,475.048,263.847z"/>
	<path fill="#6D4235" d="M533.535,436.012c-10.851-1.334-22.896-3.861-35.23-9.24c-12.33-5.376-22.034-12.685-27.188-17.595
		c-0.242-0.233-0.479-0.37-0.708-0.431c13.315-32.182,16.906-68.273,17.874-101.763c0.21-7.131,0.315-14.265,0.397-21.4
		c4.07,6.864,14.047,26.936,15.755,29.951c1.685,2.977-0.603-14.442-11.95-34.684c-13.223-23.58-31.512-44.51-57.573-53.813
		c-24.394-8.708-52.113-5.348-77.055-0.353c0.681-4.934,2.248-10.166,4.496-15.759c23.568-2.058,47.8-1.799,70.836,3.881
		c24.139,5.955,47.415,18.912,63.353,38.283c9.82,11.935,17.322,26.007,19.658,41.402c0.051,0.34,0.582,0.311,0.54-0.038
		c-1.54-12.757-7.486-24.728-14.679-35.22c-7.565-11.032-16.765-20.772-27.768-28.397c-19.753-13.69-43.688-20.129-67.403-22.126
		c-8.04-0.677-16.122-0.802-24.186-0.559c-6.738,0.205-13.336,0.932-19.967,1.832c0.905-2.201,1.912-4.455,3.008-6.77
		c0.328-0.687,0.662-1.368,0.996-2.049c22.639-6.348,47.692-3.7,70.355,1.008c11.797,2.451,22.954,6.199,33.577,11.939
		c10.914,5.898,20.807,13.614,29.366,22.585c13.618,14.28,22.137,32.476,26.158,51.68c4.506,21.509,3.294,43.344,0.855,65.019
		c-0.034,0.317,0.454,0.429,0.496,0.103c3.452-27.396,5.002-56.332-4.584-82.71c-8.479-23.333-25.184-42.561-46.247-55.474
		c-8.168-5.006-16.982-8.955-26.11-11.842c-8.847-2.796-18.251-4.371-27.413-5.679c-9.851-1.405-19.807-2.175-29.761-1.981
		c-8.744,0.17-17.652,1.015-25.959,3.856c4.378-8.797,9.345-17.143,15.024-24.564c23.434-12.283,51.205-16.36,77.149-10.964
		c22.284,4.635,42.392,16.648,57.409,33.687c16.061,18.225,26.02,41.26,31.129,64.838c3.051,14.08,3.611,28.492,1.836,42.778
		c-1.597,12.86-5.607,25.173-8.658,37.718c-2.225,9.156-3.851,18.633-2.874,28.072c1.069,10.311,5.777,18.858,13.124,26.022
		c0.485,0.475,1.298-0.361,0.834-0.851c-9.063-9.593-12.914-21.757-12.173-34.785c0.695-12.181,4.605-24.013,7.637-35.749
		c3.389-13.112,5.359-26.478,5.006-40.048c-0.378-14.498-3.582-28.732-8.172-42.438c-6.977-20.84-18.494-40.1-34.684-55.072
		c-16.671-15.414-38.192-24.995-60.745-27.354c-22.276-2.33-45.901,1.577-65.58,12.55c3.546-4.464,7.362-8.568,11.485-12.189
		c1.939-1.7-6.2,1.038-9.349,4.132c-8.985,8.832-27.604,33.398-33.741,61.721c-1.346,6.201-8.154,16.107-12.784,22.172
		c-14.933,18.979-34.93,33.637-46.674,55.161c-7.513,13.767-8.626,23.267-7.097,20.204c5.399-10.801,16.446-25.688,19.249-29.501
		c-1.521,17.36-0.529,35.116,0.937,52.409c1.748,20.57,4.328,36.648,9.496,54.974c-18.326,5.475-53.285,6.288-81.542,3.973
		c-18.041-1.481-35.371-6.494-45.075-10.494c-3.414-1.479-8.685-4.145-12.524-7.746c-3.84-3.601-6.719-9.599-4.206-14.368
		c45.379,23.786,71.034-55.813,83.622-85.801c12.763-30.039,27.461-60.228,47.371-86.234c8.223-10.571,17.429-20.336,27.995-28.596
		c7.672-5.843,18.721-12.967,27.774-16.303c13.288-4.895,38.115-12.937,53.499-4.195c23.341-8.194,43.707-10.491,66.088-4.197
		c22.379,6.295,42.661,21.331,59.441,40.562c16.786,19.232,28.325,48.953,30.812,72.788c1.525,14.639,0.559,29.28-1.361,43.81
		c-3.948,28.908-13.923,61.357-3.395,89.538c7.433,19.893,27.726,27.614,50.216,29.074c-1.605,0.532-3.233,0.994-4.872,1.414
		c-4.103,1.044-8.317,1.616-12.542,1.807c-8.985,0.407-17.973-1.49-26.228-4.981c-15.708-6.647-28.587-19.427-37.407-33.825
		c-0.166-0.271-0.576-0.015-0.418,0.263c8.908,15.685,21.856,29.043,38.715,36.03c7.691,3.187,15.933,4.721,24.246,4.7
		c4.746-0.011,9.475-0.664,14.093-1.737c2.441-0.567,4.841-1.313,7.206-2.143c0.279-0.099,0.555-0.206,0.834-0.309
		C605.659,442.897,547.876,437.777,533.535,436.012z"/>
	<path fill="#5D3227" d="M305.766,347.621c-1.466-17.293-2.458-35.049-0.937-52.409c-1.876,2.553-7.446,10.068-12.545,17.998
		c0.788,0.256,1.357,1.084,0.746,1.941c-0.7,0.979-1.347,1.985-1.962,3.008c-0.924,4.54-1.403,9.21-1.746,13.942
		c-0.641,8.847-1.626,17.589-3.519,26.266c-3.815,17.511-10.45,34.698-20.782,49.415c19.499-0.051,38.362-1.639,50.241-5.187
		C310.094,384.269,307.514,368.191,305.766,347.621z"/>
	<path fill="#5D3227" d="M280.454,345.667c-3.256,9.885-7.515,19.551-11.597,29.125c-3.74,8.769-7.794,17.53-13.223,25.404
		c-1.75,2.542-3.643,5.002-5.693,7.324c3.847,0.143,7.727,0.229,11.599,0.256c7.992-10.95,13.923-23.408,17.948-36.383
		c3.313-10.666,5.639-21.753,6.559-32.892c0.345-4.198,0.634-8.385,1.091-12.523C284.461,332.349,282.616,339.106,280.454,345.667z"
		/>
	<path fill="#5D3227" d="M268.092,361.325c-6.565,10.355-11.87,21.532-19.112,31.465c-3.824,5.242-8.273,9.948-13.339,13.927
		c3.464,0.262,7.017,0.479,10.622,0.647c8.139-8.49,13.851-19.549,18.551-30.224c4.126-9.37,8.328-18.929,11.712-28.589
		c0.267-0.756,0.523-1.517,0.777-2.28C274.429,351.394,271.244,356.357,268.092,361.325z"/>
	<path fill="#5D3227" d="M500.055,385.826c-3.658-28.373,2.221-57.521-3.553-85.645c-2.939-5.704-5.983-11.496-7.822-14.597
		c-0.082,7.135-0.187,14.269-0.397,21.4c-0.969,33.491-4.559,69.582-17.874,101.763c0.229,0.061,0.466,0.198,0.708,0.431
		c5.154,4.91,14.857,12.219,27.188,17.595c6.824,2.977,13.559,5.078,20.051,6.586C508.992,418.957,502.221,402.627,500.055,385.826z
		"/>
	<path fill="#5D3227" d="M559.973,434.718c-16.746-9.9-30.488-24.482-38.346-42.379c-2.069-4.717-3.822-9.568-5.139-14.547
		c-1.557-5.872-2.263-11.891-3.712-17.778c-1.01-4.118-2.254-8.171-3.559-12.206c0.059,0.622,0.118,1.242,0.183,1.859
		c1.521,14.931,1.7,30.343,5.864,44.856c3.383,11.788,8.996,22.883,16.03,32.909c2.179,3.107,4.502,6.149,6.96,9.103
		c6.696,0.679,16.923,1.467,27.892,1.559C564.057,437.037,561.994,435.915,559.973,434.718z"/>
	<path fill="#5D3227" d="M367.476,199.669c4.04-1.382,8.223-2.289,12.463-2.879c0.809-4.745,1.782-9.462,2.975-14.122
		c0.691-2.71,1.355-5.878,2.328-8.947c-0.918,0.451-1.834,0.909-2.742,1.385C376.82,182.526,371.854,190.873,367.476,199.669z"/>
	<path fill="#5D3227" d="M383.739,173.511c0.634-0.355,1.275-0.702,1.918-1.041c0.29-0.826,0.607-1.637,0.956-2.425
		C385.636,171.174,384.678,172.328,383.739,173.511z"/>
	<path fill="#5D3227" d="M357.858,226.684c6.261-1.253,12.696-2.405,19.209-3.287c0.13-2.594,0.294-5.186,0.51-7.773
		c0.16-1.899,0.347-3.795,0.551-5.692c-5.277,0.194-10.54,0.537-15.774,0.994C360.106,216.517,358.538,221.749,357.858,226.684z"/>
	<path fill="#5D3227" d="M346.901,200.195c-7.126,9.055-13.736,18.907-18.71,29.322c-6.381,13.363-10.54,28.056-16.942,41.502
		c3.62-4.21,7.311-8.364,11.034-12.486c7.862-8.706,16.318-16.971,21.711-27.52c8.036-15.72,11.549-33.468,19.982-48.915
		C357.74,187.579,352.04,193.667,346.901,200.195z"/>
	<path fill="#5D3227" d="M241.087,348.012c-5.838,8.475-12.496,16.332-19.589,23.776c5.277-2.265,10.324-5.065,14.967-8.454
		c9.208-6.714,16.833-15.469,22.324-25.454c5.994-10.904,9.318-22.877,11.818-35.003c3.269-15.837,5.418-32.369,10.568-47.747
		c-10.696,19.364-19.641,39.459-26.268,60.642C251.441,326.853,247.737,338.358,241.087,348.012z"/>
	<path fill="#5D3227" d="M502.061,259.234c3.107,4.532,5.977,9.336,8.362,14.36c-2.637-13.444-8.715-26.057-18.839-35.745
		c-10.585-10.125-24.037-16.033-38.23-18.366c7.334,3.053,14.37,6.8,20.939,11.354C485.296,238.462,494.496,248.202,502.061,259.234
		z"/>
	<path fill="#5D3227" d="M502.881,182.267c2.479,1.903,4.878,3.917,7.183,6.047c16.19,14.972,27.707,34.232,34.684,55.072
		c3.941,11.769,6.857,23.929,7.841,36.31c0.947-5.229,1.414-10.547,1.37-15.877C553.668,229.422,533.596,196.67,502.881,182.267z"/>
	<path fill="#5D3227" d="M476.718,215.314c16.48,10.103,30.293,24.074,39.585,40.852c-3.899-17.32-11.719-33.506-27.114-43.848
		c-10.925-7.339-23.74-11.735-36.663-13.943c-6.727-1.151-13.198-1.563-19.99-0.75c-1.927,0.23-3.851,0.481-5.778,0.692
		c8.023,1.211,16.145,2.719,23.85,5.155C459.737,206.359,468.55,210.308,476.718,215.314z"/>
	<path fill="#5D3227" d="M340.981,192.749c-7.214,6.932-12.795,15.329-17.244,24.252c-5.097,10.21-9.089,20.941-11.643,32.067
		c-2.034,8.864-3.639,17.851-6.267,26.543c8.633-15.58,12.883-33.638,20.919-49.466c8.798-17.332,20.988-33.562,35.749-46.425
		C354.49,182.464,347.143,186.827,340.981,192.749z"/>
	<path fill="#5D3227" d="M365.747,203.214c-1.097,2.315-2.103,4.569-3.008,6.77c5.181-0.704,10.338-1.297,15.561-1.622
		c0.376-3.295,0.819-6.584,1.349-9.858c-4.366,0.604-8.679,1.475-12.906,2.661C366.408,201.847,366.074,202.527,365.747,203.214z"/>
	<path fill="#5D3227" d="M506.326,346.884c-0.391-3.962-0.744-7.95-1.294-11.904c-1.294-4.137-2.473-8.301-3.378-12.54
		c0.311,9.794-0.038,19.639-0.116,29.427c-0.116,14.57-0.38,29.57,3.149,43.81c2.908,11.738,8.072,23.064,14.366,33.367
		c1.059,1.737,2.166,3.464,3.313,5.181c3.83,0.767,7.567,1.345,11.168,1.788c0.214,0.025,0.439,0.055,0.672,0.08
		c-10.641-13.133-18.94-28.385-22.614-44.651C508.293,376.853,507.793,361.729,506.326,346.884z"/>
	<path d="M419.515,416.541c-2.943,0.63-7.843,1.364-12.339,2c-0.884-7.422-3.727-14.818-11.206-17.7
		c-1.435-0.552-2.866-0.891-4.269-0.798c-4.664,0.301-7.941,1.782-10.206,3.731c-1.027-1.26-3.027-2.653-5.626-2.788
		c-7.822-0.401-14.057,5.878-14.845,14.099c-0.742-0.372-1.479-0.754-2.21-1.158c-0.492-0.269-0.977-0.387-1.433-0.387
		c-2.622,0-1.632,4.609,1.206,6.708c0.645,0.477,1.29,0.92,1.941,1.349c-5.559,6.515-6.828,14.538,0.284,20.744
		c6.822,5.954,16.975,9.061,25.795,8.71c9.733-0.389,15.276-3.958,20.7-11.276c3.584-4.838,5.072-10.889,2.796-14.799
		c1.305-0.279,2.618-0.561,3.937-0.842C417.733,423.344,423.198,415.755,419.515,416.541z"/>
	<path fill="#A2002B" d="M367.77,410.36c1.885-3.424,6.366-6.954,10.622-2.632c-2.511,4.868-1.393,9.901-0.412,8.011
		c2.151-4.141,4.582-7.254,9.217-9.042c4.637-1.79,8.555,0.477,9.047,0.801c0.634,0.542,1.2,1.115,1.744,1.75
		c0.737,1.065,1.336,2.16,1.868,3.338c0.72,1.998,1.189,4.006,1.51,6.103c0.023,0.219,0.038,0.437,0.055,0.655
		c-0.676,0.097-1.302,0.183-1.855,0.263c-7.597,0.966-15.177,1.284-22.784,0.336c-3.916-0.628-7.689-1.586-11.398-2.933
		C365.736,415.436,366.48,412.707,367.77,410.36z"/>
	<path fill="#CA002D" d="M404.941,427.449c0.487,5.008-2.069,8.017-3.267,9.576c-1.674,1.975-3.466,4.456-7.204,5.893
		c-3.74,1.439-9.488,1.786-12.419,1.38c-3.855-0.651-7.599-1.666-11.212-3.156c-1.985-0.92-3.861-1.975-5.607-3.292
		c-0.76-0.672-1.447-1.372-2.08-2.149c-0.294-0.458-0.557-0.914-0.8-1.401c-0.166-0.5-0.294-0.996-0.389-1.517
		c-0.013-0.458,0.002-0.897,0.042-1.349c0.13-0.569,0.292-1.111,0.485-1.664c0.565-1.141,1.231-2.175,2-3.189
		c0.231-0.273,0.943-1.124,1.595-1.887c11.984,5.5,24.673,4.151,38.146,1.494C404.611,426.468,404.882,426.869,404.941,427.449z"/>
	<path d="M385.281,348.684c6.334-6.95,6.576-15.889,5.103-25.131c-0.08-0.506-0.258-0.912-0.493-1.242
		c-3.479-15.131-12.637-37.968-30.249-37.97c-0.561,0-1.13,0.021-1.71,0.061c-12.08,0.857-22.757,12.294-30.73,23.001
		c-1.107-0.149-2.145-0.614-3.141-1.265c-1.372-0.891-2.29-2.349-0.139-2.712c0.739-0.126,0.586-1.282-0.16-1.155
		c-3.086,0.525-2.937,2.807-0.847,4.622c1.111,0.962,2.267,1.458,3.446,1.649c-0.364,0.496-0.725,0.994-1.076,1.485
		c-2.025,0.7-4.496,1.072-6.114-0.458c-1.656-1.565-1.048-2.992,0.37-4.336c0.315-0.294,0.059-0.721-0.269-0.836
		c-2.221-0.771-3.664,1.025-3.605,3.158c0.074,2.616,2.334,4.736,4.723,5.32c0.918,0.223,1.866,0.237,2.813,0.118
		c-0.597,0.859-1.17,1.702-1.718,2.513c-1.357-0.09-2.614,0.79-3.618,1.988c-1.958,2.326-3.063,5.511-2.63,8.542
		c0.061,0.435,0.769,0.433,0.853,0.01c0.399-2.006,1.454-5.334,3.216-7.473c0.063,0.397,0.256,0.794,0.618,1.155
		c0.79,0.786,1.584,1.569,2.38,2.347c-2.477,1.717-3.326,6.588-2.639,9.185c0.113,0.426,0.712,0.397,0.769-0.048
		c0.219-1.826,0.46-3.775,1.114-5.502c0.443-1.17,1.147-1.895,2.031-2.399c1.475,1.414,2.966,2.803,4.496,4.147
		c-3.013,1.655-4.381,6.448-3.492,9.677c0.109,0.399,0.771,0.469,0.853,0.011c0.359-1.952,0.508-3.935,1.313-5.78
		c0.586-1.342,1.563-2.132,2.712-2.714c1.277,1.084,2.582,2.136,3.924,3.143c-2.784,1.878-4.317,6.862-2.939,9.563
		c0.233,0.452,0.855,0.189,0.876-0.248c0.147-2.813,0.777-6.889,3.286-8.416c1.933,1.387,3.937,2.681,6.038,3.842
		c-2.666,1.75-3.969,5.5-1.977,8.561c0.244,0.376,0.847,0.214,0.76-0.267c-0.492-2.685,0-6.2,2.065-7.845
		c1.616,0.838,3.267,1.553,4.952,2.145c-1.336,1.538-1.872,3.887-1.051,5.666c0.156,0.338,0.771,0.256,0.748-0.151
		c-0.08-1.454,0.166-2.868,0.95-4.107c0.223-0.355,0.5-0.655,0.802-0.924c4.66,1.454,9.542,2.107,14.479,2.334
		c8.397,0.384,17.606-1.197,22.799-7c-0.004,0.025-0.01,0.057-0.017,0.08c-0.729,3.359-2.042,6.158-4.668,9.656
		c-1.502,2.002-3.116,3.259-4.46,4.16c-2.244,0.399-4.454,1.099-6.586,2.189c-6.721,3.441-10.338,10.58-10.58,17.681
		c-0.235,7.004,3.048,14.284,9.443,17.736c6.952,3.746,19.433,0.58,23.892-2.097c4.382-2.628,8.584-11.643,5.261-9.055
		c-2.628,2.044-8.473,5.84-14.607,6.427c-6.135,0.584-13.324-1.2-16.156-6.443c-2.832-5.242-2.775-10.433,0.674-14.883
		c3.447-4.448,9.347-7.595,16.649-6.719c7.303,0.876,10.379,3.221,11.103,3.798C396.581,358.644,395.124,350.463,385.281,348.684z"
		/>
	<path fill="#FFA774" d="M345.725,293.76c2.105-1.553,4.284-2.897,6.653-3.987c1.618-0.645,3.238-1.124,4.952-1.435
		c1.395-0.151,2.752-0.172,4.155-0.059c1.441,0.233,2.798,0.599,4.17,1.103c1.842,0.832,3.504,1.857,5.122,3.07
		c1.88,1.578,3.559,3.284,5.109,5.185c1.943,2.643,3.508,5.435,4.845,8.425c0.653,1.603,1.227,3.227,1.75,4.863
		c-5.782-7.937-13.82-13.656-24.476-13.765c-0.105,0-0.206,0-0.309,0c-8.744-0.002-17.043,3.725-24.394,8.738
		C335.857,302.827,341.116,297.386,345.725,293.76z"/>
	<path fill="#9DB86A" d="M361.15,321.692c8.857,0,12.231-8.507,10.116-14.986c0.185,0.124,0.368,0.246,0.548,0.374
		c2.139,1.723,4.004,3.666,5.715,5.815c0.256,0.349,0.531,0.742,0.819,1.16c0.128,1.55,0.093,3.055-0.038,4.609
		c-0.244,1.582-0.601,3.059-1.139,4.574c-0.679,1.502-1.468,2.841-2.439,4.172c-0.981,1.158-2.004,2.187-3.174,3.149
		c-1.154,0.807-2.309,1.468-3.58,2.042c-1.305,0.466-2.578,0.786-3.939,1c-1.447,0.114-2.83,0.095-4.277-0.05
		c-1.832-0.311-3.551-0.801-5.284-1.471c-2.111-0.958-4.067-2.067-5.927-3.443c-1.208-1.01-2.275-2.074-3.252-3.298
		c-0.647-0.943-1.187-1.893-1.66-2.933c-0.37-1.008-0.637-2-0.83-3.057c-0.139-1.349-0.128-2.645,0.017-3.996
		c0.296-1.695,0.773-3.29,1.416-4.882c0.981-2.109,2.176-4.038,3.565-5.902c0.057-0.074,0.118-0.141,0.174-0.212
		c1.681-0.571,3.378-1.036,5.12-1.385C347.738,309.212,350.421,321.692,361.15,321.692z"/>
	<path fill="#FFFFFF" d="M365.7,305.399c2.801,0,2.801,4.342,0,4.342C362.9,309.742,362.9,305.399,365.7,305.399z"/>
	<path fill="#FFFFFF" d="M384.89,325.335c-0.025,0.233-0.048,0.466-0.076,0.7c-0.21,1.225-0.517,2.376-0.966,3.527
		c-0.406,0.807-0.853,1.55-1.38,2.28c-0.599,0.685-1.227,1.296-1.922,1.88c-0.987,0.697-2.006,1.282-3.101,1.803
		c-2.174,0.87-4.408,1.416-6.727,1.773c-5.042,0.59-10.105,0.357-15.129-0.288c-3.258-0.519-6.355-1.38-9.414-2.603
		c-4.017-1.809-7.687-4.114-11.189-6.778c-3.349-2.672-6.483-5.572-9.545-8.557c0.027-0.025,0.057-0.044,0.082-0.069
		c2.132-1.981,4.328-3.88,6.614-5.683c3.704-2.803,7.591-5.298,11.769-7.299c-2.511,4.044-4.038,8.603-3.49,13.498
		c0.899,8.061,8.408,13.265,15.505,15.641c8.797,2.943,17.509-1.004,22.303-8.605c1.502-2.38,2.431-5.513,2.666-8.572
		c1.498,2.426,2.998,5.046,4.042,7.13C384.919,325.188,384.896,325.255,384.89,325.335z"/>
	<path d="M476.954,326.183c-0.301-0.242-0.805-0.111-0.794,0.332c0.051,2.011-1.141,3.321-3.03,1.826
		c-0.834-0.66-1.33-1.811-1.754-2.742c-0.811-1.763-1.353-3.643-2.004-5.469c0-0.261-0.004-0.525-0.004-0.788
		c1.5,1.559,3.233,2.876,5.191,2.618c1.553-0.202,2.498-2.672,2.45-3.99c-0.061-1.718-2.588-3.475-3.738-1.622
		c-0.111,0.181-0.055,0.441,0.097,0.584c0.315,0.298,0.496,0.443,0.933,0.431c1.7-0.048,1.668,1.74,1.065,2.922
		c-0.773,1.517-2.481,0.66-3.523,0.011c-0.895-0.559-1.708-1.246-2.49-1.975c-0.233-13.805-3.036-26.892-20.114-30.339
		c-1.708-0.345-3.414-0.592-5.095-0.509c-18.15,0.943-32.406,17.12-38.398,25.139c-1.487,1.326-2.861,2.742-4.097,4.252
		c-0.626,0.767-0.748,1.635-0.555,2.408c0.023,0.311,0.126,0.634,0.328,0.964c7.746,12.523,21.274,20.267,35.663,22.461
		c0.452,0.069,0.914,0.134,1.382,0.202c1.452,2.063,1.454,5.013,1.799,7.672c0.05,0.397,0.626,0.424,0.805,0.118
		c1.17-1.966,0.748-5.183-0.666-7.534c1.647,0.202,3.368,0.368,5.116,0.466c1.368,2.258,1.588,5.017,2.334,7.538
		c0.126,0.42,0.748,0.45,0.868,0.006c0.662-2.548-0.05-5.364-1.622-7.477c1.815,0.055,3.649,0.025,5.452-0.13
		c2.462,3.273,3.191,7.341,2.33,11.458c-0.101,0.471,0.525,0.784,0.79,0.345c2.464-4.072,1.286-8.675-1.637-11.963
		c1.845-0.237,3.645-0.622,5.345-1.193c1.04,1.237,1.798,2.54,2.128,4.416c0.393,2.218,0.055,4.553,0.011,6.788
		c-0.011,0.534,0.706,0.599,0.943,0.206c1.87-3.069,1.788-9.191-0.893-12.288c1.49-0.7,2.866-1.582,4.095-2.676
		c2.662,3.546,2.54,7.622,2.822,12.158c0.034,0.544,0.832,0.67,1.042,0.172c1.664-3.912,1.162-10.801-2.534-13.66
		c0.548-0.626,1.059-1.305,1.521-2.046c0.103-0.166,0.179-0.326,0.231-0.485c0.918,0.847,1.706,1.79,2.244,2.973
		c0.784,1.729,0.975,3.599,1.305,5.446c0.109,0.615,0.888,0.632,1.061,0.044c1.069-3.668-0.555-8.62-4.197-10.078
		c0.015-2.332,0.084-4.744,0.139-7.185c0.315,0.735,0.655,1.452,1.034,2.135c1.025,1.84,3.496,3.782,5.74,2.885
		C478.239,330.139,478.907,327.728,476.954,326.183z"/>
	<path fill="#FFFFFF" d="M425.727,335.106c-3.975-1.733-7.666-3.859-11.126-6.473c-2.53-2.067-4.807-4.318-6.878-6.845
		c-0.519-0.695-1.017-1.401-1.498-2.12c1.603-1.832,3.357-3.496,5.271-5.015c3.048-2.256,6.313-4.103,9.784-5.62
		c2.279-0.918,4.601-1.674,6.967-2.275c-5.055,4.282-7.973,11.185-7.219,17.841c0.782,6.88,6.946,11.303,13.355,13.168
		C431.44,337.108,428.561,336.23,425.727,335.106z"/>
	<path fill="#9DB86A" d="M437.78,336.129c-1.695-0.313-3.288-0.784-4.897-1.401c-1.548-0.687-2.99-1.471-4.395-2.437
		c-0.96-0.759-1.817-1.563-2.637-2.485c-0.672-0.899-1.225-1.811-1.71-2.83c-0.315-0.857-0.544-1.687-0.725-2.584
		c-0.134-1.307-0.118-2.54,0.021-3.849c0.319-1.765,0.784-3.433,1.427-5.107c0.731-1.618,1.584-3.097,2.62-4.534
		c0.907-1.084,1.853-2.04,2.935-2.948c1.128-0.798,2.258-1.441,3.523-1.996c0.462-0.172,0.935-0.313,1.414-0.441
		c0.118-0.01,0.233-0.019,0.351-0.027c-5.271,6.267-2.567,18.635,8.114,18.635c8.95,0,12.303-8.677,10.055-15.179
		c0.756,0.445,1.496,0.927,2.214,1.454c0.166,0.139,0.324,0.281,0.485,0.422c0.04,0.09,0.086,0.179,0.13,0.269
		c0.506,1.357,0.874,2.708,1.128,4.132c0.191,1.664,0.197,3.286,0.029,4.954c-0.259,1.624-0.664,3.164-1.24,4.708
		c-0.75,1.723-1.664,3.296-2.79,4.796c-0.901,1.074-1.859,2.04-2.931,2.948c-1.275,0.958-2.593,1.75-4.044,2.414
		c-1.3,0.502-2.594,0.861-3.964,1.113C441.167,336.352,439.505,336.337,437.78,336.129z"/>
	<path fill="#7A884C" d="M371.142,314.853c2.448,1.674,4.733,3.611,6.794,5.748c0.145-0.635,0.271-1.275,0.374-1.937
		c0.13-1.555,0.166-3.059,0.038-4.609c-0.288-0.418-0.563-0.811-0.819-1.16c-1.71-2.149-3.576-4.092-5.715-5.815
		c-0.181-0.128-0.363-0.25-0.548-0.374C372.121,309.321,372.079,312.269,371.142,314.853z"/>
	<path fill="#7A884C" d="M350.645,308.235c0.363-1.939,1.178-3.777,2.456-5.263c-1.742,0.349-3.439,0.813-5.12,1.385
		c-0.057,0.071-0.118,0.139-0.174,0.212c-1.042,1.399-1.975,2.834-2.79,4.353C346.878,308.496,348.761,308.273,350.645,308.235z"/>
	<path fill="#7A884C" d="M350.452,311.404c-0.031-0.492-0.036-0.983-0.012-1.477c-2.135,0.063-4.267,0.383-6.362,0.981
		c-0.445,1.155-0.802,2.322-1.067,3.528C345.322,313.193,347.822,312.238,350.452,311.404z"/>
	<path fill="#7A884C" d="M346.267,326.458c1.509-3.452,3.456-6.717,5.773-9.755c-0.168-0.286-0.328-0.58-0.473-0.882
		c-2.614,1.052-5.198,3.992-6.868,5.874c-0.307,0.344-0.605,0.695-0.897,1.048c0.433,0.907,0.92,1.756,1.496,2.595
		C345.611,325.73,345.935,326.099,346.267,326.458z"/>
	<path fill="#7A884C" d="M343.16,320.91c0.296-0.33,0.594-0.657,0.901-0.975c1.765-1.826,4.273-4.601,6.91-5.67
		c-0.118-0.389-0.223-0.784-0.305-1.183c-2.815,0.901-5.498,1.95-7.929,3.393c-0.051,0.958-0.029,1.901,0.071,2.874
		C342.906,319.883,343.021,320.4,343.16,320.91z"/>
	<path fill="#7A884C" d="M453.085,318.899c0.103,0.08,0.206,0.156,0.307,0.24c1.395,1.149,2.687,2.401,3.878,3.733
		c0.246-0.882,0.445-1.775,0.592-2.695c0.168-1.668,0.162-3.29-0.029-4.954c-0.254-1.424-0.622-2.775-1.128-4.132
		c-0.044-0.09-0.09-0.179-0.13-0.269c-0.162-0.141-0.319-0.284-0.485-0.422c-0.718-0.527-1.458-1.009-2.214-1.454
		C454.989,312.168,454.724,315.927,453.085,318.899z"/>
	<path fill="#7A884C" d="M431.181,313.633c0.618-0.13,1.235-0.233,1.855-0.315c-2.523-0.12-5.027,0.065-7.416,0.595
		c-0.265,0.498-0.519,1-0.756,1.523c-0.254,0.664-0.475,1.332-0.674,2.002C426.185,315.672,428.364,314.233,431.181,313.633z"/>
	<path fill="#7A884C" d="M423.479,324.675c2.542-3.653,5.918-7.141,9.843-9.286c-0.031-0.16-0.065-0.319-0.09-0.481
		c-0.79,0.118-1.571,0.286-2.334,0.517c-3.114,0.946-5.278,2.838-7.435,4.994c-0.006,0.042-0.019,0.084-0.025,0.124
		c-0.139,1.309-0.156,2.542-0.021,3.849C423.435,324.488,423.46,324.578,423.479,324.675z"/>
	<path fill="#7A884C" d="M425.851,329.805c0.368,0.418,0.748,0.805,1.139,1.178c1.647-4.655,3.931-9.032,7.298-12.633
		c-0.202-0.418-0.38-0.849-0.529-1.292c-3.954,2.269-7.292,5.992-9.683,9.727c0.021,0.063,0.042,0.126,0.065,0.189
		C424.626,327.994,425.179,328.906,425.851,329.805z"/>
	<path fill="#7A884C" d="M433.15,311.819c0.221-2.319,1.074-4.565,2.557-6.33c-0.118,0.009-0.233,0.017-0.351,0.027
		c-0.479,0.128-0.952,0.269-1.414,0.441c-1.265,0.555-2.395,1.198-3.523,1.996c-1.082,0.907-2.027,1.863-2.935,2.948
		c-0.267,0.376-0.525,0.752-0.771,1.134C428.837,311.717,430.994,311.666,433.15,311.819z"/>
	<path fill="#FFFFFF" d="M449.371,307.239c2.798,0,2.798,4.338,0,4.338C446.572,311.578,446.572,307.239,449.371,307.239z"/>
	<path fill="#FFFFFF" d="M464.006,334.226c-0.504,0.569-1.021,1.082-1.595,1.582c-0.859,0.603-1.737,1.114-2.687,1.574
		c-1.897,0.754-3.828,1.231-5.845,1.561c-4.605,0.544-9.215,0.347-13.805-0.193c13.437,0.658,21.572-12.559,19.746-24.419
		c0.771,1.139,1.443,2.319,2.027,3.572c0.805,2.029,1.347,4.103,1.695,6.261C463.709,325.616,464.55,330.698,464.006,334.226z"/>
	<path fill="#FFA774" d="M464.745,312.574c-5.446-8.42-15.349-12.164-26.024-12.164c-6.82-0.002-13.948,1.521-20.429,4.326
		c1.746-1.63,3.551-3.2,5.439-4.679c3.387-2.53,6.937-4.727,10.816-6.42c2.403-0.939,4.824-1.63,7.366-2.03
		c1.876-0.189,3.706-0.198,5.58-0.012c1.83,0.3,3.559,0.777,5.286,1.454c1.567,0.727,3.023,1.565,4.437,2.559
		c1.21,0.983,2.294,2.034,3.309,3.229c1.048,1.422,1.912,2.901,2.653,4.511c1.025,2.603,1.658,5.267,2.057,8.032
		c0.069,0.639,0.126,1.275,0.174,1.91C465.195,313.044,464.97,312.811,464.745,312.574z"/>
	<path d="M336.964,289.752c4.786-9.061,10.513-14.942,17.713-20.461c7.2-5.519,16.667-7.574,19.488-7.971
		c4.752-0.67,7.631,0.052,11.95,0.532c8.345,0.926,10.322-17.04-7.198-16.559c-26.167,0.714-40.8,21.839-44.64,30.238
		C330.437,283.93,335.477,292.571,336.964,289.752z"/>
	<path d="M464.836,259.931c-8.511-7.351-18.135-9.641-29.287-9.643c-1.979,0-3.95,0.109-5.904,0.319
		c-8.258,0.901-7.975,15.799,0.389,15.082c12.391-1.059,26.881,1.681,32.642,10.561c5.758,8.879,5.693,16.293,5.28,19.44
		c-0.466,3.529,4.592,1.323,6.719-6.002C476.836,282.249,474.804,268.541,464.836,259.931z"/>
	<path fill="#86584C" d="M415.321,166.567c0,0,37.186-10.833,76.324,13.78c35.72,22.465,46.111,54.593,48.232,71.555
		c-10.072-18.552-34.982-51.413-66.254-67.314C444.881,169.973,415.321,166.567,415.321,166.567z"/>
	<path fill="#86584C" d="M433.383,173.081c0,0,24.612,3.854,50.854,20.608c26.242,16.754,41.367,41.366,41.367,41.366
		s-25.207-23.574-43.589-35.436C463.63,187.759,433.383,173.081,433.383,173.081z"/>
	<path fill="#86584C" d="M272.59,268.18c0,0-11.051,17.175-16.835,36.222c-5.78,19.045-11.053,32.48-16.156,40.642
		c-5.099,8.162-8.5,11.393-8.5,11.393s7.651-14.795,11.563-26.188c3.912-11.393,7.311-27.209,13.603-40.812
		C262.559,275.833,272.59,268.18,272.59,268.18z"/>
	<path fill="#86584C" d="M340.786,189.104c0,0-12.246,7.483-20.238,26.188c-7.992,18.706-10.372,25.849-12.244,36.392
		c-1.872,10.544-4.252,20.068-6.292,26.19c-2.042,6.12-7.651,12.244-7.651,12.244s5.439-14.454,6.971-27.379
		c1.529-12.925,3.231-30.101,11.053-47.616C320.207,197.607,340.786,189.104,340.786,189.104z"/>
	<path fill="#FFE3CB" d="M451.041,392.761c4.265-8.244,20.755-25.106,18.076-12.721c-2.676,12.387-17.07,41.51-25.438,52.556
		C435.31,443.643,441.001,412.175,451.041,392.761z"/>
	<path fill="#FFE3CB" d="M321.499,378.368c1.933,9.658,10.377,34.478,13.055,41.508c2.676,7.029,2.676-25.44,1.004-30.461
		C333.884,384.393,319.489,368.325,321.499,378.368z"/>
	<path fill="#FF9A8E" d="M395.789,433.254c1.828-2.111,5.87-4.179,5.782-1.422c-0.09,2.756-2.046,5.158-4.8,6.311
		C394.012,439.3,392.945,436.544,395.789,433.254z"/>
	<path fill="#FF645B" d="M397.569,411.469c1.265,0.559,2.374,3.54,1.689,4.803C397.569,419.384,393.747,409.782,397.569,411.469z"/>
</g>
</svg>
