<?xml version="1.0" encoding="utf-8"?>
<!-- Generator: Adobe Illustrator 17.0.0, SVG Export Plug-In . SVG Version: 6.00 Build 0)  -->
<!DOCTYPE svg PUBLIC "-//W3C//DTD SVG 1.1//EN" "http://www.w3.org/Graphics/SVG/1.1/DTD/svg11.dtd">
<svg version="1.1" id="Layer_1" xmlns="http://www.w3.org/2000/svg" xmlns:xlink="http://www.w3.org/1999/xlink" x="0px" y="0px"
	 width="355px" height="402px" viewBox="0 0 355 402" enable-background="new 0 0 355 402" xml:space="preserve">
<g>
	<path fill="#0F0F0E" d="M232.311,336.311c-0.568,1.441-4.353,4.42-6.564,5.492c-1.607,0.78-3.499,1.613-5.015,1.581
		c-0.571-0.008-1.085-0.139-1.513-0.442c-1.575-1.104-3.215-2.51-4.053-3.649c-0.836-1.139-6.362-8.774-6.863-10.046
		c-0.3-0.756-1.211-1.313-1.953-1.085c-0.003,0.003-0.003,0.003-0.005,0.003c-0.504,0.158-0.927,0.68-1.023,1.752
		c-0.233,2.644-0.367,13.596-0.335,14.097c0.035,0.504-1.907,0.838-1.942,0c-0.032-0.836,0.201-14.499-0.938-16.61
		c-1.138-2.108-4.152-7.568-1.773-11.15c2.376-3.585,5.591-4.723,8.002-3.183c2.411,1.54,13.899,15.605,13.899,15.605
		c1.339,0.771,3.884,0.804,4.956,0.67c1.072-0.134,4.118-0.099,4.755,1.107C232.579,331.658,232.882,334.873,232.311,336.311z"/>
	<path fill="#0F0F0E" d="M181.344,359.519c-1.273,1.54-5.39,2.88-8.707,4.085c-3.314,1.206-8.27,2.813-9.61,0.536
		c-1.339-2.277-6.062-10.952-7.937-13.832c-1.393-2.138-2.505-3.518-3.11-4.075c-0.006-0.003-0.008-0.008-0.011-0.011
		c-0.206-0.185-0.351-0.276-0.429-0.268c-0.3,0.035-0.233,3.384-0.233,5.661c0,2.277,0.166,10.984,0.166,10.984
		s-0.236,0.228-0.555,0.455c-0.605,0.439-1.511,0.887-1.688-0.187c-0.268-1.642-0.268-16.243-1.072-17.783
		c-0.804-1.54-2.88-4.353-3.683-6.127c-0.804-1.776,0.938-8.506,3.147-10.381c2.21-1.875,4.386-1.977,6.899,0.469
		c2.51,2.443,15.57,18.852,15.57,18.852c1.072,0.906,4.353,2.111,5.492,2.312c1.139,0.201,5.125,0.3,6.296,2.947
		C183.053,355.801,182.616,357.979,181.344,359.519z"/>
	<path fill="#ED9366" d="M222.768,326.902c0.189,1.684,1.574,3.282,1.909,3.717c0.335,0.435,0.435,1.808-1.272,2.311
		c-1.708,0.502-4.688-2.88-6.597-5.793c-1.909-2.913-3.717-7.568-6.63-9.912c-2.913-2.344-6.664-4.956-7.602-7.233
		c-0.938-2.277-8.595-17.347-11.721-21.276c-3.125-3.929-6.34-14.556-7.322-18.842c-0.983-4.286,0.268-11.162-2.054-13.216
		c-2.322-2.054-6.161-1.161-8.126,2.322c-1.965,3.483-4.465,8.573-5.358,12.413c-0.893,3.84-1.072,16.967-2.144,25.004
		c-1.072,8.037-2.857,18.753-1.696,24.468c1.161,5.715,3.126,15.549,3.494,16.621c0.368,1.072,2.177,6.597,2.645,8.606
		c0.469,2.009,2.88,3.717,2.88,4.119c0,0.402-1.741,3.583-4.789,3.65c-3.048,0.067-6.061-2.21-8.74-6.664
		c-2.679-4.454-4.923-9.376-7.066-12.859c-2.143-3.483-3.617-3.952-3.114-6.932c0.502-2.98,1.678-7.166-0.099-16.275
		c-1.777-9.108-4.456-26.053-2.982-34.425c1.473-8.372,3.885-16.275,4.018-19.958c0.134-3.684,47.82-15.27,47.82-15.27
		s4.018,8.573,3.55,11.721c-0.469,3.148-1.875,5.09-1.139,8.439c0.737,3.349,5.693,22.035,6.965,27.058
		c1.272,5.023,4.621,12.993,6.429,16.342c1.808,3.349,3.817,6.363,5.358,11.52C220.926,321.712,222.531,324.799,222.768,326.902z"/>
	<path fill="#169133" d="M151.969,346.223c-0.206-0.185-0.351-0.276-0.429-0.268c-0.3,0.035-0.233,3.384-0.233,5.661
		c0,2.277,0.166,10.984,0.166,10.984s-0.236,0.228-0.555,0.455c-0.276-0.394-0.549-0.758-0.549-0.758l-0.236-16.744
		C150.134,345.554,151.01,345.171,151.969,346.223z"/>
	<path fill="#169133" d="M220.732,343.384c-0.571-0.008-1.085-0.139-1.513-0.442c-1.575-1.104-3.215-2.51-4.053-3.649
		c-0.836-1.139-6.362-8.774-6.863-10.046c-0.3-0.756-1.211-1.313-1.953-1.085c1.88-0.994,3.697,1.221,4.297,2.357
		c0.603,1.139,5.358,7.868,6.496,9.845C217.871,341.632,219.607,342.746,220.732,343.384z"/>
	<path fill="#0F0F0E" d="M201.705,249.112c0,0-2.143,2.099-5.09,3.394c-2.947,1.295-14.377,5.001-17.636,5.894
		c-3.26,0.893-10.895,2.545-13.663,2.545c-2.769,0-11.386-0.268-12.502-0.491c-1.116-0.223-3.885-1.339-3.885-1.339
		s1.117-20.941,1.742-23.173c0.625-2.232,0.982-26.968,0.268-30.987c-0.715-4.018-7.054-17.949-3.751-26.7
		c3.304-8.751,44.114-8.93,44.382-1.518c0.268,7.412-2.233,9.109-4.554,13.752c-2.322,4.643-0.982,10.895,1.25,16.074
		c2.233,5.179,6.965,21.967,9.109,28.308C199.517,241.209,201.705,249.112,201.705,249.112z"/>
	<path fill="#1F2934" d="M199.494,177.248c-1.013,3.686-4.956,10.716-8.104,10.046c-3.148-0.67-5.626-3.215-13.395-3.617
		c-7.769-0.402-10.649-3.148-15.471-3.751c-4.822-0.603-6.764-3.416-6.094-0.67c0.67,2.746-0.603,2.478-3.952,2.277
		c-3.349-0.201-5.09-0.156-5.826,0.759c-0.737,0.915-1.741-2.099-2.143-2.434c-0.402-0.335,1.138-7.836,2.679-10.046
		c1.54-2.21,3.951-10.18,4.018-10.381c0.067-0.201,2.813-5.291,4.554-7.97c1.741-2.679,1.674-4.755,0.469-7.702
		c-1.206-2.947-5.894-18.887-6.228-22.704c-0.335-3.817-2.88-14.801,0-19.355c2.88-4.554,8.238-16.409,9.845-18.619
		c1.607-2.21,4.956-6.697,4.956-6.697s2.813-0.268,6.497,1.875c3.683,2.143,8.506,4.554,10.18,5.693
		c1.674,1.139,3.951,3.684,4.822,5.961c0.871,2.277,3.684,4.42,4.889,5.157c1.206,0.737,1.005,2.478,2.076,3.081
		c1.072,0.603,3.081,0.804,3.55,0.737c0.469-0.067,2.21,0.871,1.674-0.201c-0.536-1.072-2.746-7.3-2.813-9.042
		c-0.067-1.741-0.849-4.822-0.402-10.113c0.447-5.291,8.975-4.688,13.328-4.286c4.353,0.402,3.951,7.568,3.951,10.113
		c0,2.545,2.21,11.654,2.478,14.868c0.268,3.215,1.875,9.376,0.603,11.988c-1.272,2.612-5.291,6.295-9.108,5.559
		c-3.818-0.737-6.363-0.804-6.363-0.804s1.741,4.889,2.679,11.72c0.938,6.831,1.54,20.494,0,26.79
		C201.303,161.777,200.968,171.89,199.494,177.248z"/>
	<path fill="#FFFFFF" d="M195.521,82.279l-1.139-0.581c0,0,0.536-4.13,1.965-5.648c1.428-1.518,4.911-2.768,5.983-2.947
		c1.072-0.179,2.836-0.513,3.014-0.558c0.179-0.045,2.344,3.55,2.344,3.55L195.521,82.279z"/>
	<path fill="#ED9366" d="M195.542,67.042c-0.032,0.268-5.749,12.053-7.367,12.524c-1.616,0.472-3.984-0.437-5.827,4.085
		c-1.84,4.519-15.905-8.474-15.905-8.474c0.043-0.247,0.088-0.472,0.128-0.678c0.278-1.358,0.431-1.977-0.498-3.809
		c-1.072-2.108-5.524-10.18-4.386-15.168c0.303-1.332,0.75-2.797,1.318-4.254c0.579-1.495,1.289-2.984,2.1-4.313
		c1.358-2.229,3.003-4.01,4.82-4.627c3.121-1.058,9.044-2.596,14.333-0.059c0.452,0.215,0.9,0.464,1.342,0.742
		c0.929,0.589,1.827,1.323,2.676,2.229c0.048,0.051,0.094,0.102,0.139,0.15c5.811,6.253,5.09,8.677,5.621,10.901
		c0.536,2.245-1.139,4.048-0.638,5.256C193.903,62.756,195.577,66.774,195.542,67.042z"/>
	<path fill="#492E1B" d="M188.416,45.391c-1.744-0.281-3.459-0.196-3.689,0.823c-0.437,1.907-1.374,4.085-1.005,4.889
		c0.367,0.804-1.072,3.483-1.942,4.051c-0.871,0.571-2.156,4.187-2.58,5.326c-0.421,1.136-5.492,0.367-5.457-0.469
		c0.033-0.838-0.235-2.647-1.54-2.915c-1.307-0.268-3.282,1.206-3.517,2.947c-0.233,1.741,0.453,4.728,1.398,5.797
		c0.946,1.069,2.084,2.341,0.276,4.45c-1.808,2.111-2.553,4.452-3.215,4.554c-0.212,0.035-0.397-0.102-0.573-0.343
		c-0.367-0.509-0.681-1.484-1.066-2.301c-0.571-1.206-1.473-4.554-1.741-4.79c-0.268-0.233-2.143-0.702-2.58,2.009
		c-0.434,2.714-0.836,12.524-0.97,14.568c-0.134,2.041-2.111,8.471-2.379,9.409c-0.268,0.938-0.536-2.009-0.536-2.009
		s-2.076,6.095-2.277,7.903c-0.201,1.808-2.344,1.339-2.277,5.492c0.067,4.153-0.938-7.367-1.206-0.536
		c-0.268,6.831-1.674,6.229-1.607,11.52c0.067,5.291-1.942,1.875-1.875,2.545c0.067,0.67-1.139-1.273-1.206-2.344
		c-0.067-1.072-0.335-3.148-0.335-1.808c0,1.34-0.134,2.344-0.402,1.54c-0.268-0.804-0.871-2.21-0.804-2.411
		c0.067-0.201-0.134-2.88,1.005-5.425c1.139-2.545-1.741-0.603-2.411-0.268c-0.67,0.335,2.277-1.675,3.617-4.286
		c1.339-2.612,3.081-8.104,3.349-10.716c0.268-2.612-0.804-10.381,0.938-16.409c1.741-6.028,6.228-10.381,7.501-11.252
		c1.272-0.871,1.473-2.015,1.473-3.384c0-1.203-0.155-9.28,4.324-14.592c0.627-0.747,1.348-1.439,2.173-2.049
		c4.471-3.308,11.812-3.284,16.979-2.636c0.452,0.215,0.9,0.464,1.342,0.742c0.929,0.589,1.827,1.323,2.676,2.229
		C188.325,45.292,188.371,45.343,188.416,45.391z"/>
	<path fill="#FFFFFF" d="M164.902,76.854c0,0,0.602-2.779,1.641-2.846c1.038-0.067,5.411,1.685,8.248,3.404
		c2.837,1.719,4.428,2.914,5.826,4.108c1.398,1.194,4.345,3.806,4.78,4.242c0.435,0.435,0.837,5.391,1.54,7.133
		c0.704,1.741-22.034-13.998-22.034-13.998V76.854z"/>
	<path fill="#C6320C" d="M160.36,66.674c-1.05-1.741-2.59-2.389-1.652-2.802c0.938-0.413,2.054-0.234,2.411,0.212
		c0.357,0.447,2.26,2.366,2.246,3.17c-0.014,0.804,2.022,1.818,0,1.652C161.342,68.741,160.36,66.674,160.36,66.674z"/>
	<path fill="#D8D8D8" d="M187.239,77.032l-2.635-0.625l-15.069-8.394c0,0-0.469-0.112,0.313-1.697
		c0.781-1.585,3.795-7.434,4.063-8.014c0.268-0.581,0.804-1.005,1.607-0.714c0.804,0.29,14.109,7.077,14.265,7.121
		c0.156,0.045,2.054,11.587,2.054,11.587s-2.657,1.675-2.991,1.697C188.511,78.014,187.239,77.032,187.239,77.032z"/>
	<path fill="#ED9366" d="M195.678,81.52c0,0-1.987-0.201-2.724-0.514c-0.737-0.313-1.675-0.893-3.259-0.938
		c-1.585-0.045-4.219,0.357-4.845-0.916c-0.625-1.272-0.491-3.215-0.491-3.215s1.004,0.781,2.098,0.781
		c1.094,0,2.456-0.179,2.456-0.179s-2.434-3.393-3.081-4.242c-0.648-0.849-1.473-1.875-2.099-2.277
		c-0.625-0.402-2.411-2.612-3.17-3.393c-0.759-0.781-1.407-1.741-1.764-2.545c-0.357-0.804-0.893-1.964-0.468-2.255
		c0.423-0.29,1.25-0.558,2.277,0.29c1.027,0.849,2.723,2.992,3.705,3.617c0.983,0.625,2.166,2.299,3.148,2.5
		c0.983,0.201,1.251,0.223,1.251-0.379s-0.379-2.947-0.558-3.46c-0.179-0.514-0.245-2.032,0.714-2.434
		c0.96-0.402,1.586-0.513,2.054,0.089s1.273,1.697,1.273,1.697s0.557-1.183,1.853-0.781c1.295,0.402,1.451,1.697,1.451,1.697
		s1.563-0.58,2.366,0.335c0.804,0.915,5.402,6.926,5.693,8.461C203.848,74.995,195.678,81.52,195.678,81.52z"/>
	<path fill="#1F2934" d="M176.277,63.928c-0.911,1.597-1.206,2.099-2.322,1.853c-1.116-0.246-0.96-1.54-0.468-2.478
		c0.491-0.938,1.518-1.607,2.187-1.339C176.344,62.231,176.721,63.149,176.277,63.928z"/>
	<path fill="#492E1B" d="M185.601,43.012c-1.683,0.806-4.101,5.944-4.983,8.733c0,0-15.656,5.894-17.129,5.023
		c-1.034-0.611-0.847-2.706-0.482-5.5c1.557-4.008,4.024-7.957,6.92-8.94C173.315,41.179,180.004,39.465,185.601,43.012z"/>
	<path fill="#F3B294" d="M166.368,350.183c-3.296-1.318-7.769-10.448-9.51-15.136c-1.741-4.688-5.559-9.845-4.42-15.672
		c1.139-5.827-0.402-19.69-2.813-26.254c-2.411-6.563-2.277-17.078-0.804-22.771c1.473-5.693,4.018-7.702,6.028-7.903
		c2.009-0.201,5.827-1.339,6.363,3.081c0.536,4.42-1.808,24.58-1.875,35.228c-0.067,10.649-3.148,12.39-0.871,21.03
		c2.277,8.64,2.478,14.466,5.492,18.753C166.971,344.825,170.052,351.656,166.368,350.183z"/>
	<path fill="#F3B294" d="M221.756,330.559c-2.573-0.919-4.107-8.439-8.215-12.591c-4.108-4.152-9.399-7.635-11.81-14.399
		c-2.411-6.764-9.711-15.739-12.725-24.981c-3.014-9.243-1.875-15.739-0.402-18.418c1.473-2.679,5.894-6.296,6.831-3.081
		c0.938,3.215,1.205,19.021,4.688,26.79c3.483,7.769,7.702,15.471,9.443,18.82c1.741,3.349,5.09,6.898,6.898,11.118
		c1.808,4.219,3.177,10.582,4.268,12.524S223.631,331.229,221.756,330.559z"/>
	<path fill="#262626" d="M170.588,257.424c-4.049,0.715-15.538,2.612-17.681,0c-2.143-2.612,1.406-21.834,1.674-28.933
		c0.268-7.099-1.168-21.834-2.359-24.981c-1.191-3.148-5.477-16.074-4.874-18.485c0.603-2.411,3.951-2.88,5.961-2.612
		c2.009,0.268,5.76-1.339,7.099-0.536c1.339,0.804,9.51,12.792,9.309,20.762c-0.201,7.97,1.139,26.522,2.143,30.339
		c1.005,3.818,7.97,21.566,9.109,21.633C182.107,254.677,174.759,256.687,170.588,257.424z"/>
	<path fill="#516272" d="M175.723,179.599c-4.116-0.101-14.734,0.447-15.628-3.304c-0.893-3.75-3.036-2.143-1.161-10.359
		c1.875-8.216,0.446-13.931-1.697-3.483c-2.143,10.448-3.304,17.235-5.536,17.145c-2.233-0.089-7.082-1.518-5.461-4.643
		c1.621-3.125,5.283-9.644,7.515-13.663c2.233-4.019,7.859-8.305,5.983-15.717c-1.875-7.412-7.947-19.646-8.573-25.45
		c-0.625-5.804,0.178-13.752,1.072-12.323c0.893,1.429,4.375-5.983,4.554-6.876c0.178-0.893,4.912-13.663,6.072-15.181
		c1.161-1.518,8.483,1.607,12.413,3.483c3.929,1.875,6.786,4.108,9.108,5.983c2.322,1.875,1.965,0,5.715,3.483
		c3.75,3.483,6.965,3.393,7.68,3.036c0.714-0.357,4.458-2.054,3.256-3.751c-1.202-1.697-3.97-10.091-3.613-11.073
		c0.357-0.982,3.215-2.768,5.179-3.75c1.964-0.982-1.518-3.215,2.232,2.679c3.751,5.894-2.679,9.377-0.804,12.413
		c1.875,3.036,7.494,0.536,3.658,5.983c-3.836,5.447-1.432,6.787-6.653,6.965c-5.22,0.179-12.901-4.108-16.294-5.626
		c-3.393-1.518-3.75-3.483-7.68-4.733c-3.929-1.25-5.536-4.465-8.215-2.679c-2.679,1.786-8.305,4.197-8.662,9.108
		c-0.357,4.912-5.09,0.982-3.483,11.877c1.607,10.894,4.643,16.431,8.751,22.86c4.108,6.429,4.554,11.966,2.322,17.503
		c-2.233,5.536-2.144,4.287,0.625,10.895C171.168,177.01,180.986,179.729,175.723,179.599z"/>
	<path fill="#F3B294" d="M185.601,77.162c0.723-1.3,5.381,0.167,3.472-2.344c-1.909-2.512-3.884-4.07-6.128-7.075
		c-2.244-3.005-4.99-5.885-3.684-5.617c1.306,0.268,4.475,2.713,6.34,4.923c1.865,2.21,5.164,2.393,4.787,0.694
		c-0.377-1.699-2.16-6.302-0.176-5.148c1.984,1.154,1.942,3.181,2.579,2.21c0.636-0.971-0.201-2.579,0.837-1.54
		c1.038,1.038,1.607,3.918,2.076,2.913c0.469-1.005,1.239-1.749,1.942-0.339c0.703,1.41,2.612,5.562,2.712,7.136
		c0.101,1.574-0.971,5.19-4.32,6.262c-3.349,1.072-9.544-0.603-10.18-0.636C185.221,78.569,185.042,78.167,185.601,77.162z"/>
	<path fill="#F3B294" d="M183.011,59.95c-0.236-3.12,0.368-5.258,1.306-7.836c0.938-2.579,0.77-5.559,2.21-5.86
		c1.44-0.301,3.684,1.607,4.521,4.052c0.837,2.445,1.942,6.095,1.273,7.434c-0.67,1.339-1.119,4.676-1.137,4.654
		c-0.017-0.022-3.451-2.33-4.489-0.846C185.657,63.031,183.059,60.585,183.011,59.95z"/>
	<path fill="#262626" d="M171.559,356.311c2.271,0.108,6.831,0.569,7.535-1.206c0.703-1.775,1.072-4.454-2.578-3.65
		c-3.65,0.804-3.315-0.335-4.052,1.373S170.152,356.244,171.559,356.311z"/>
	<path fill="#262626" d="M225.797,334.265c1.956-0.722,5.849-1.764,5.47-3.036c-0.38-1.272-1.25-1.92-3.103-1.585
		c-1.853,0.335-3.963-0.201-3.288,0.446c0.676,0.648,1.11,1.005,0,2.434C223.765,333.953,224.345,334.801,225.797,334.265z"/>
</g>
</svg>
