<?xml version="1.0" encoding="utf-8"?>
<!-- Generator: Adobe Illustrator 17.0.0, SVG Export Plug-In . SVG Version: 6.00 Build 0)  -->
<!DOCTYPE svg PUBLIC "-//W3C//DTD SVG 1.1//EN" "http://www.w3.org/Graphics/SVG/1.1/DTD/svg11.dtd">
<svg version="1.1" id="Layer_1" xmlns="http://www.w3.org/2000/svg" xmlns:xlink="http://www.w3.org/1999/xlink" x="0px" y="0px"
	 width="800px" height="600px" viewBox="0 0 800 600" enable-background="new 0 0 800 600" xml:space="preserve">
<g>
	<path fill-rule="evenodd" clip-rule="evenodd" fill="#050401" d="M295.998,232.263c0.283,3.184-3.303,3.633-3.874,6.136
		c-1.022,4.452,2.479,6.113,2.904,9.364C286.473,246.928,289.578,232.099,295.998,232.263z"/>
	<path fill-rule="evenodd" clip-rule="evenodd" fill="#050401" d="M230.121,234.524c0.344-1.3,1.694-0.338,1.94,0.321
		C231.864,235.999,230.514,235.038,230.121,234.524z"/>
	<path fill-rule="evenodd" clip-rule="evenodd" fill="#050401" d="M321.831,245.824c-1.241,4.209-0.84,7.989,2.585,10.982
		C317.494,258.927,315.852,247.195,321.831,245.824z"/>
	<path fill-rule="evenodd" clip-rule="evenodd" fill="#050401" d="M228.187,246.148c1.089,1.855,3.546,3.932,2.904,6.458
		c-2.761-0.144-2.843-2.97-4.2-4.521C227.226,247.343,227.561,246.599,228.187,246.148z"/>
	<path fill-rule="evenodd" clip-rule="evenodd" fill="#050401" d="M236.903,257.449c-1.436,4.764,1.694,6.333,1.615,9.364
		C232.956,267.939,232.652,257.077,236.903,257.449z"/>
	<path fill-rule="evenodd" clip-rule="evenodd" fill="#050401" d="M264.998,278.116c-3.233,0.307-5.407-3.893-5.167-5.488
		C260.494,268.214,265.926,273.866,264.998,278.116z"/>
	<path fill-rule="evenodd" clip-rule="evenodd" fill="#050401" d="M273.073,296.52c0.453,2.576-1.536,3.901-1.615,5.815
		c-0.146,3.393,3.056,4.956,3.549,8.397C268.009,311.936,267.039,297.142,273.073,296.52z"/>
	<path fill-rule="evenodd" clip-rule="evenodd" fill="#050401" d="M296.643,309.114c0.52-0.088,0.557,0.306,0.97,0.324
		c-1.715,5.045,2.609,8.459,0.645,12.594C294.614,319.721,293.255,312.39,296.643,309.114z"/>
	<path fill-rule="evenodd" clip-rule="evenodd" fill="#050401" d="M382.215,323.324c-1.691,4.027-8.68,6.25-4.519,12.269
		c-2.941,2.617-4.425-1.51-4.522-3.228C372.897,327.442,378.45,322.672,382.215,323.324z"/>
	<path fill-rule="evenodd" clip-rule="evenodd" fill="#050401" d="M326.031,325.586c0.435,4.404,3.078,6.609,5.164,9.364
		c-0.429,0.321-1.201,0.302-1.29,0.967C325.955,335.71,321.533,328.083,326.031,325.586z"/>
	<path fill-rule="evenodd" clip-rule="evenodd" fill="#050401" d="M353.798,346.575c-6.7,2.415-11.326-11.428-5.164-12.918
		C347.226,339.559,351.018,343.036,353.798,346.575z"/>
	<path fill-rule="evenodd" clip-rule="evenodd" fill="#050401" d="M380.603,354.971c0.499,4.598,4.967,6.812,5.164,10.654
		C381.063,365.287,375.506,357.185,380.603,354.971z"/>
	<path fill-rule="evenodd" clip-rule="evenodd" fill="#050401" d="M249.497,239.688c2.768-0.782,5.991-1.113,8.075-2.582
		c-1.314-2.936-3.373-6.061-3.23-9.687c0.447-11.24,16.149-16.383,24.865-8.397c6.454,4.787,7.403,19.074-0.645,23.251
		c1.7,1.847,5.119,1.98,7.424,3.228c-4.586-7.324,0.563-18.413,8.397-18.728c13.527-0.546,23.466,16.947,10.012,25.51
		c2.68,1.839,5.538,3.504,9.039,4.523c-2.783-9.566,1.694-17.27,12.916-17.118c7.792,0.107,13.342,6.662,12.594,14.853
		c-0.468,5.161-3.698,9.276-7.749,11.625c3.13,1.283,5.845,2.982,9.042,4.2c-1.767-8.841,5.036-18.897,15.824-16.792
		c10.742,2.095,13.996,21.856,3.227,26.156c2.251,1.192,4.69,2.2,7.43,2.904c0.922-2.129,0.003-3.271,0.32-4.843
		c2.515-12.356,21.155-13.435,25.513-1.615c2.092,5.675-0.292,12.824-4.197,17.761c2.217,1.227,4.866,2.024,7.105,3.228
		c-1.335-11.791,8.023-18.066,16.788-16.146c8.64,1.895,14.133,17.811,7.107,24.543c-0.505,0.479-2.552,1.451-2.585,1.939
		c-0.097,1.372,4.191,3.348,5.49,4.197c2.503,1.633,3.884,3.348,5.49,3.875c4.042,7.104,9.848,12.641,17.113,17.115
		c3.495,2.15,6.755,4.922,10.337,7.104c5.121,3.125,11.529,4.618,17.435,6.782c3.814,1.396,7.418,3.584,11.301,5.164
		c3.908,1.592,8.108,2.884,11.949,4.521c7.752,3.306,15.8,7.235,23.892,9.045c3.044,0.678,4.9,1.384,7.43,2.257
		c8.975,3.108,19.713,6.472,28.74,10.657c5.191,2.409,12.305,6.59,14.528,9.687c4.79,6.66-0.417,19.354-7.104,22.931
		c-5.292,2.826-10.858,2.457-17.436,1.612c-34.397-19.206-71.598-35.61-107.53-53.28c-9.112-3.856-22.411-5.912-33.262-4.197
		c-1.186-2.689-3.868-3.881-6.782-4.845c-0.666,4.227,2.184,8.604,0.648,12.916c-1.314,3.698-7.366,10.316-12.268,10.012
		c-7.5-0.471-15.2-9.291-14.212-17.113c0.693-5.488,4.784-8.076,8.397-11.304c-5.246-2.29-10.444-4.623-14.854-7.751
		c4.039,10.868-2.907,21.482-15.824,18.407c-4.763-3.314-11.326-11.158-9.042-19.376c0.897-3.219,4.151-4.647,6.46-7.103
		c-4.519-1.292-6.32-5.307-10.654-6.782c6.034,7.661,2.26,21.62-7.105,21.31c-10.59-0.347-17.487-20.551-7.104-27.122
		c-5.553-0.479-8.507-3.549-11.305-6.782c4.732,8.473,1.855,20.915-9.686,20.343c-8.972-0.444-17.615-14.163-10.657-22.603
		c-1.642-0.296-2.71-1.163-4.197-1.615c1.174,5.672-1.828,12.474-9.042,11.625c-6.892-0.81-13.686-6.189-15.179-11.625
		c-0.189-6.674,1.466-12.221,5.167-15.822c-2.491-1.922-5.475-3.348-8.394-4.842c0.554,7.056,3.279,13.393-0.322,17.435
		c-2.883,0.808-5.851,2.327-8.397,2.582c-3.926,0.394-10.176-1.492-11.946-5.164c-3.236-6.704,0.566-16.812,4.519-21.961
		c2.187-0.223,4.349-1.68,6.46-0.969c0.167-1.781-0.189-3.043-0.325-4.521c-10.088,5.984-26.763-0.693-19.376-13.561
		c-2.463-3.542-7.037-4.004-7.424-9.044c-0.264-3.446,1.551-7.869,3.227-10.01c2.026-2.579,7.101-5.512,10.334-5.49
		C241.109,234.237,245.516,237.056,249.497,239.688z M262.736,224.835c2.168-2.156,6.073-4.235,9.689-3.876
		c0.392,1.577-0.727,1.641-0.967,2.587c-3.841-1.168-7.378,5.537-9.69,5.164c-2.013-0.321-1.697-3.043-1.937-5.164
		c-1.518,1.173-1.302,4.08-2.26,5.81c1.216,4.338,4.784,10.777,10.979,11.625c7.53,1.034,14.51-2.333,12.913-10.332
		c-1.697,5.947-8.527,4.528-12.913,5.49c-1.986-1.031-4.054-1.974-4.845-4.2c-0.033-5.511,7.749-5.357,8.075-0.321
		c2.375,1.536,4.391-0.625,6.456-1.29c1.743-7.836-6.301-14.019-14.531-10.015C265.756,221.504,261.52,223.428,262.736,224.835z
		 M290.509,230.97c-5.781,3.499-2.463,16.483,2.582,19.053c4.696,2.386,11.368,1.243,12.916-3.233
		c-3.181-2.582-10.425,0.772-10.009-5.164c0.268-3.85,7.515-4.949,7.101,1.29c1.286,0.22,2.199,0.817,3.878,0.646
		C309.133,233.884,298.589,228.873,290.509,230.97z M230.769,254.221c0.59-1.886,1.846-3.107,3.875-3.554
		c-2.588-2.987-3.869-8.03,0.645-9.04c1.226,0.499,1.843,1.604,3.23,1.936c0.897-1.362,1.119-3.399,2.26-4.521
		C229.966,233.527,219.598,249.951,230.769,254.221z M411.922,308.792c-6.888,1.04-12.168-2.436-14.531-7.749
		c-4.568-1.133-8.2-3.207-11.624-5.49c-7.922,1.451-15.255-2.664-17.758-8.718c-5.03-0.934-8.531-4.767-13.245-6.136
		c-3.85-1.119-9.86-0.537-11.946-5.49c-0.696-0.728-1.101,0.268-2.26,0c-4.285-3.096-10.1-7.044-15.176-9.043
		c-3.677-1.448-7.472-1.4-8.716-4.843c-0.681-0.791-1.658,1.043-2.588,0c-3.887-2.999-9.839-3.935-13.239-7.425
		c-2.987,0.135-6.231,0.564-9.039-0.646c-1.676-0.726-2.275-2.867-3.878-3.875c-0.575-0.363-2.4-0.486-3.552-0.969
		c-2.85-1.198-7.557-4.477-9.686-4.846c-4.668-0.804-6.964,1.277-10.657-0.321c-1.375-0.596-2.357-2.728-4.197-2.907
		c-1.557,1.349-3.269,2.547-5.167,3.554c4.921,1.696,8.503,3.54,12.594,5.81c3.12,1.735,6.478,3.078,9.687,4.523
		c6.472,2.912,12.484,6.645,19.053,9.364c12.834,5.316,24.744,13.097,37.456,19.374c21.52,10.626,44.558,22.261,67.492,31.647
		c3.582,1.466,8.117,3.813,10.331,3.875c3.148,0.085,7.835-1.91,11.624-1.939C419.313,313.89,415.529,311.432,411.922,308.792z
		 M237.229,249.378c0.52-0.363,3.102-0.531,2.582-2.907c1.6-0.987,3.583-1.583,3.875-3.874c-0.508-0.029-0.253-0.824-0.967-0.646
		C241.769,245.095,237.581,246.716,237.229,249.378z M329.257,243.563c-1.481-0.505-7.834-1.192-9.364-0.646
		c-2.558,0.917-4.136,5.111-4.2,7.751c-0.186,7.837,10.912,18.108,17.761,9.689c-2.488-1.148-7.533-1.498-8.397-4.522
		c-0.496-1.751,0.11-4.559,2.907-5.167c2.935,0.97,4.772,3.73,3.874,6.782c1.576-0.217,2.141,0.57,3.23,0
		C336.45,250.935,334.413,245.319,329.257,243.563z M277.267,289.095c-0.943-1.657,0.623-5.099,0-6.46
		c3.166-4.185,7.329-8.441,12.919-10.333c5.851-1.98,14.27,1.595,16.791,7.428c2.412,5.581,3.735,16.798-0.648,22.604
		c0.797,1.148,3.069,2.518,4.2,2.26c-1.223-4.883,0.201-10.985,2.582-13.885c-0.018-1.06-0.919-1.236-0.645-2.582
		c2.892-3.157,6.265-2.954,11.301-2.261c13.944,1.917,20.075,20.892,8.719,29.707c1.737,0.956,3.607,1.776,5.49,2.582
		c-2.132-11.13,5.985-17.542,14.531-18.082c0.858-0.053,3.811,0.149,4.523,0.322c7.515,1.857,12.852,13.788,9.361,21.636
		c-1.536,3.452-5.14,5.099-8.397,6.782c3.011,1.836,6.374,3.314,9.689,4.843c-1.764-5.424-0.146-12.641,5.167-14.853
		c-1.591-5.695,6.301-5.651,10.979-4.523c4.276,1.034,8.123,4.165,10.654,4.846c4.334,6.685,2.299,21.623-6.779,23.247
		c4.142,3.07,10.474,3.948,16.146,5.49c0.721-1.571,0.121-3.231,0.322-4.843c0.784-6.3,2.844-12.155,2.582-17.761
		c-0.079-1.677-1.433-3.242-0.319-4.843c-6.761-2.623-12.384-5.467-18.731-8.072c-4.541-1.863-9.084-3.812-13.564-5.813
		c-18.001-8.044-35.336-16.611-52.31-25.512c-6.442-3.377-12.229-7.059-19.051-10.007c-2.232-0.969-4.06-2.793-6.137-3.875
		c-2.357-1.23-5.365-1.4-7.749-2.586c-2.664-1.324-4.708-3.049-7.43-4.196c-8.336-3.519-16.131-7.13-23.57-11.625
		c-1.974-0.178-3.61-0.695-5.164-1.294c-0.14,1.048-1.731,0.645-2.263,1.294c4.252,2.1,8.047,4.653,7.427,11.625
		c10.693-6.502,24.02-0.31,21.636,12.592c-1.159,6.271-5.891,10.909-11.302,12.592C271.473,286.283,275.214,288.24,277.267,289.095z
		 M249.823,258.416c0.216-0.403,2.25-4.234,2.26-4.196c-0.198-1.072-4.599-3.107-6.134-3.23c-3.355-0.271-6.426,1.277-8.397,1.939
		c1.104-0.135,1.84,0.096,1.615,1.291c-3.853,1.157-9.34,7.652-7.752,12.27c0.821,2.375,5.529,4.523,8.397,4.843
		c8.017,0.899,17.393-6.01,13.886-14.853c-1.63,5.26-5.705,8.075-9.045,11.625c-7.67-1.954-2.031-11.893,1.94-6.457
		C248.29,261.526,248.959,260.031,249.823,258.416z M352.183,256.806c-10.599-0.887-11.384,17.335-2.902,18.725
		c-5.073-2.903-4.985-15.967,1.934-15.822c-5.347,4.693-1.18,13.37,0.967,17.44c2.877,1.145,6.298,0.12,8.074-1.618
		c-3.406-0.082-4.519-3.66-7.749-2.903c-1.107-1.133-2.363-1.864-2.585-3.23c-1.171-7.293,10.48-5.543,6.137,1.936
		c1.484,0.085,3.178,1.718,6.134,1.294C364.108,264.234,359.314,257.399,352.183,256.806z M257.572,265.198
		c0.325,0.646,1.429,0.511,1.289,1.615c-6.292,7.034,1.922,16.175,9.69,15.179c5.869-0.754,9.495-8.829,6.782-14.854
		c-2.515,2.254-2.378,9.241-5.815,9.685c-2.412,0.313-5.228-2.821-5.167-5.164c0.073-2.752,4.599-4.937,6.782-2.261
		c1.542-1.292,1.712-4.448,1.615-6.46C268.657,259.571,260.786,261.109,257.572,265.198z M253.697,275.531
		c-0.295-2.982,0.505-4.877,0.967-7.103C251.234,268.408,252.429,273.957,253.697,275.531z M387.705,289.418
		c-2.865-0.54-3.196-3.595-6.782-2.582c-1.299-1.391-1.831-3.551-2.582-5.489c-0.414,0.902-1.539-0.149-1.615-0.647
		c-0.082-4.279,3.057-7.063,6.779-6.458c-0.268,3.072-5.304,3.084-4.197,6.458c2.239-2.056,7.223,0.075,5.815,3.552
		c1.256,0.678,1.825,2.047,3.872,1.937c2.701-8.365-3.65-17.282-12.591-14.855c1.11,0.073,1.405,0.963,1.612,1.936
		c-0.277,1.662-1.953,1.924-3.549,2.261c-3.367,3.368,2.01,8.047,0.322,10.658c-2.567-0.237-3.154-4.162-4.522-4.522
		C370.315,290.102,384.828,297.398,387.705,289.418z M290.831,275.531c-3.78,0.798-7.238,4.174-8.719,6.782
		c2.436-1.475,3.467-3.551,6.782-3.551c9.248,0,9.543,17.049,0,13.24c0.703-1.451,3.135-1.169,3.874-2.585
		c1.764-6.949-6.551-8.776-9.364-3.876c-6.864,13.745,8.944,22.249,19.695,15.502c2.251-2.153,3.5-8.057,2.263-11.625
		c-0.879,3.856-3.361,6.113-4.523,9.689c-7.323,3.628-7.64-10.641,0-7.105c3.44-4.01,0.24-7.75,1.293-12.271
		C298.671,278.195,295.046,274.641,290.831,275.531z M252.082,280.377c-0.462-0.079-0.544-0.532-0.97-0.646
		c-0.003,0.426-0.566,0.293-0.645,0.646c-11.617-2.491-13.245,22.311-1.618,20.019c-3.549-2.208-6.688-13.155-1.609-16.144
		c-0.681,6.044,1.572,12.714,5.49,16.791c2.275-0.569,2.859-0.625,4.842-0.969c2.183-4.899-3.102-12.287,0-16.146
		c-0.946,0.085-0.995-0.732-1.941-0.647c-0.477,5.146,0.961,11.546-3.227,11.949c-2.594,0.249-5.158-4.985-1.615-7.428
		c0.745,0.331,1.04,1.113,2.26,0.969C253.822,284.489,250.583,283.653,252.082,280.377z M408.048,283.928
		c-5.283-0.19-9.872,6.019-9.042,11.625c1.259,8.48,13.199,14.695,19.376,6.136c-3.397,0.059-4.611-2.062-6.779-3.228
		c-1.381,2.67-4.516,0.488-5.167-1.294c0.538,1.157,1.003,2.842-0.325,3.554c-6.162-2.206-3.489-13.223,2.585-12.592
		c-1.016,2.696-4.933,5.24-2.259,8.718c-0.341-2.529,1.7-4.793,5.486-4.197c0.639,3.405,3.476,6.127,6.782,5.812
		C419.562,291.523,414.374,284.154,408.048,283.928z M270.485,290.71c-9.817,8.75-1.794,25.53,11.952,22.925
		c2.807-2.015,0.128-7.031,1.612-10.007c-1.904-0.681-2.655-2.514-3.878-3.874c2.275,8.304-6.034,9.048-6.779,2.582
		c0.794-1.65,2.016-3.601,3.874-3.228c-0.608-1.753-0.262-3.724,0.648-4.846C275.339,292.725,272.961,291.641,270.485,290.71z
		 M325.383,292.649c-3.102,0.312-4.37-0.271-7.105-0.325c-2.88,3.257-5.158,8.447-3.227,13.562c1.071,2.85,8.881,7.015,11.621,7.103
		c2.053,0.07,3.09-1.013,5.167-1.29c3.212-3.187,3.799-9.875,0-13.238c-1.986,2.817-2.244,10.773-6.782,11.3
		c-1.724,0.202-3.561-0.972-4.519-2.904c-5.024,0.17-2.777-5.423-3.23-9.367c0.955-0.334,0.949-1.633,2.585-1.289
		c1.073,2.389-0.332,5.643,0.645,8.395c0.055-3.291,3.504-5.338,6.134-3.231C329.464,299.425,328.275,293.529,325.383,292.649z
		 M356.705,315.574c2.844-1.005,3.838-3.789,3.552-7.103c-7.123-10.345-24.519-0.874-17.761,12.269
		c1.916,0.027,3.081,2.506,4.519,1.939c-2.311-4.749-0.912-13.07,4.522-13.887c1.043,2.208-1.229,3.659-2.257,4.843
		c-1.274,3.986,0.569,8.195,0,10.979c7.685,4.03,17.195-1.936,14.206-10.654c-2.156,0.964-2.694,3.546-5.167,4.196
		c-0.289,8.406-10.788,5.657-8.719-1.293C351.918,314.487,354.415,314.868,356.705,315.574z M294.061,306.856
		c-6.39,6.996,0.858,19.284,9.039,19.697c8.546,0.432,9.209-9.761,4.523-15.175c-1.052,3.399,0.645,7.891-2.582,9.361
		c-3.239-0.528-5.115-2.419-4.845-6.458c1.061-1.387,2.64-1.301,4.519-0.646c0.703-2.808-1.031-6.142-1.293-9.04
		C299.35,304.394,298.228,307.146,294.061,306.856z M325.383,316.863c-9.215,5.207-3.133,22.757,5.167,23.251
		c6.855,0.414,8.37-11.029,3.871-13.882c0.906,3.14-0.581,5.584-3.549,5.811c-3.419-1.319-2.938-6.873,0.967-7.428
		c-0.538-2.156-2.488-3.718-1.289-5.81C328.625,318.361,327.333,317.283,325.383,316.863z M413.537,320.096
		c-0.937,1.405-2.454,2.156-3.552,2.582c-0.186,10.48-2.074,19.577-2.904,28.74c9.805,0.132,18.944-0.537,28.415,2.582
		c9.528,3.136,18.938,8.701,28.418,13.561c9.416,4.83,19.483,9.015,28.74,13.564c9.188,4.516,18.756,9.315,28.092,13.887
		c4.364,2.132,9.544,4.246,14.209,6.779c4.747,2.579,9.185,6.332,13.561,7.752c6.645,2.156,11.39-0.505,16.469-3.23
		c2.035-4.535,4.684-8.482,3.23-13.564c-1.22-4.258-8.366-8.464-12.916-10.656c-14.325-6.892-34.661-13.014-47.791-16.788
		c-7.877-4.252-16.983-6.925-25.833-10.334c-4.975-1.916-10.173-4.868-15.498-7.106c-2.874-1.204-5.788-1.68-8.397-2.907
		c-2.552-1.192-5.186-2.579-7.43-4.197c-9.09-6.548-19.178-11.615-24.54-21.31c-0.216,0-0.432,0-0.645,0
		C420.377,320.206,418.172,319.759,413.537,320.096z M371.884,324.939c0-0.181-0.262-0.37-0.325,0
		c-2.415,4.665,0.59,10.401,4.197,12.915c11.079,7.725,21.59-4.399,15.501-15.822c-0.036,1.542,1.08,3.122,0.97,4.843
		c-0.228,3.452-6.524,9.91-7.749,10.334c-5.018,1.729-8.777-9.861,0-9.042c0.991,0.62,1.442,1.784,2.901,1.939
		C392.72,318.51,375.099,316.851,371.884,324.939z M356.06,332.365c-2.366-0.757-3.622-2.625-6.137-3.23
		c-1.247,2.958-4.182,3.166-5.164,5.815c-2.342,6.292,2.409,14.904,7.424,17.115c9.559,4.207,16.021-7.29,9.045-15.179
		c-0.307,3.081,0.213,10.219-5.167,9.69c-3.759-0.373-4.699-5.925-0.648-7.105c1.32,0.184,1.286,1.724,2.907,1.615
		C358.767,337.229,356.76,335.779,356.06,332.365z M379.955,366.272c2.117,1.983,6.277,3.814,9.687,3.227
		c1.347-2.393,4.598-3.717,5.49-6.782c1.384-4.75-1.086-8.99-1.937-12.267c-0.24-0.996,0.888-0.62,0.648-1.618
		c-1.068-0.271-3.546-0.646-5.167-1.29c3.786,3.441,0.119,8.547,0.645,12.915c-0.627,0.882-1.177,1.84-2.582,1.94
		c-2.506-1.055-4.909-4.881-2.26-7.427c1.286-0.28,2.381,0.481,2.901,0c1.11-4.38-3.105-5.829-4.842-8.395
		C375.041,350.453,373.694,360.396,379.955,366.272z"/>
</g>
</svg>
