<?xml version="1.0" encoding="utf-8"?>
<!-- Generator: Adobe Illustrator 17.0.0, SVG Export Plug-In . SVG Version: 6.00 Build 0)  -->
<!DOCTYPE svg PUBLIC "-//W3C//DTD SVG 1.1//EN" "http://www.w3.org/Graphics/SVG/1.1/DTD/svg11.dtd">
<svg version="1.1" id="Layer_1" xmlns="http://www.w3.org/2000/svg" xmlns:xlink="http://www.w3.org/1999/xlink" x="0px" y="0px"
	 width="800px" height="600px" viewBox="0 0 800 600" enable-background="new 0 0 800 600" xml:space="preserve">
<g>
	<path fill="#1A1A1A" d="M687.715,516H87.423c-41.265,0-55.138-12.578-55.708-13.113l-1.527-1.434l352.819,0.256l361.944-0.256
		l-1.527,1.434C742.853,503.422,728.98,516,687.715,516z M34.792,503.112c5.042,3.316,20.453,11.231,52.631,11.231h600.292
		c32.176,0,47.586-7.913,52.631-11.231l-357.34,0.252L34.792,503.112z"/>
</g>
<g>
	<path fill="#1A1A1A" d="M619.801,441.46H143.574c-7.307,0-13.252-5.945-13.252-13.252V124.252c0-7.307,5.945-13.252,13.252-13.252
		h476.227c7.307,0,13.252,5.945,13.252,13.252v303.957C633.052,435.515,627.108,441.46,619.801,441.46z M143.574,112.656
		c-6.394,0-11.595,5.201-11.595,11.595v303.957c0,6.394,5.201,11.595,11.595,11.595h476.227c6.394,0,11.595-5.201,11.595-11.595
		V124.252c0-6.394-5.202-11.595-11.595-11.595H143.574z"/>
</g>
<g>
	<path fill="#1A1A1A" d="M611.829,416.891H151.442V131.154h460.388V416.891z M153.098,415.234h457.075V132.81H153.098V415.234z"/>
</g>
<g>
	<path fill="#FFFFFF" d="M632.224,436.491H131.151l-99.387,57.975c0,0-8.282,4.141,0,4.141s696.264,0,708.129,0
		c12.423,0,4.141-4.141,4.141-4.141L632.224,436.491z"/>
	<path fill="#1A1A1A" d="M739.893,499.436H31.764c-2.027,0-4.143-0.188-4.472-1.58c-0.382-1.618,2.406-3.283,4.101-4.131
		l99.533-58.063h501.5l0.179,0.093l111.81,57.975c1.058,0.529,3.5,1.949,3.111,3.6C747.178,498.806,744.895,499.436,739.893,499.436
		z M28.964,497.442c0.235,0.116,0.931,0.337,2.8,0.337h708.129c5.438,0,6.009-0.82,6.031-0.855c-0.057-0.293-1.17-1.173-2.26-1.717
		l-111.641-57.888H131.375l-99.193,57.863C30.688,495.931,29.27,496.94,28.964,497.442z"/>
</g>
<g>
	<path fill="#1A1A1A" d="M629.388,466.537l-487.663-0.461l38.845-30.607h0.288l406.096,0.383L629.388,466.537z M146.498,464.425
		l477.766,0.451l-37.847-27.367l-405.273-0.383L146.498,464.425z"/>
</g>
<g>
	<g>
		<g>
			<path fill="#1A1A1A" d="M215.793,443.531h-34.14c-1.373,0-1.499-0.374-1.547-0.516c-0.054-0.159-0.034-0.388,0.185-0.556
				l4.792-3.607c0.106-0.079,0.386-0.29,2.054-0.29h33.172c1.101,0,1.437,0.087,1.562,0.402l0.104,0.261l-0.232,0.26l-3.879,3.607
				C217.528,443.413,216.441,443.531,215.793,443.531z M181.357,442.694c0.089,0.006,0.188,0.009,0.297,0.009h34.14
				c0.764,0,1.398-0.15,1.524-0.23l3.309-3.079c-0.092-0.002-0.197-0.003-0.316-0.003h-33.172c-0.961,0-1.467,0.081-1.573,0.134
				L181.357,442.694z"/>
		</g>
		<g>
			<path fill="#1A1A1A" d="M224.788,449.328h-50.971c-1.023,0-1.453-0.037-1.581-0.414c-0.052-0.154-0.029-0.379,0.192-0.548
				l5.191-3.804c0.221-0.175,0.611-0.208,1.297-0.208l0.834,0.005l50.2-0.005c0.404,0,0.752,0,0.889,0.315l0.108,0.249l-0.21,0.26
				l-3.807,3.808C226.764,449.158,226.458,449.328,224.788,449.328z M173.646,448.499c0.053,0.001,0.11,0.001,0.171,0.001h50.971
				c1.31,0,1.567-0.114,1.593-0.127l3.181-3.188l-0.343,0.002l-50.303-0.005c-0.573,0-0.765,0.031-0.825,0.057L173.646,448.499z"/>
		</g>
		<g>
			<path fill="#1A1A1A" d="M234.544,455.954h-69.226c-1.109,0-1.503-0.111-1.619-0.456c-0.053-0.158-0.029-0.389,0.199-0.562
				l5.62-4.341c0.37-0.285,1.429-0.438,2.238-0.438h67.097c0.962,0,1.527,0.17,1.68,0.506c0.081,0.176,0.05,0.38-0.081,0.531
				l-3.69,4.34C236.673,455.638,236.402,455.954,234.544,455.954z M165.011,455.122c0.09,0.002,0.192,0.004,0.307,0.004h69.226
				c0.926,0,1.51-0.098,1.63-0.167l3.334-3.932c-0.165-0.024-0.383-0.042-0.655-0.042h-67.097c-0.865,0-1.6,0.177-1.735,0.268
				L165.011,455.122z"/>
		</g>
		<g>
			<path fill="#1A1A1A" d="M245.481,443.531h-19.294c-1.392,0-1.548-0.378-1.6-0.501c-0.076-0.184-0.033-0.388,0.113-0.534
				l3.698-3.609c0.114-0.113,0.33-0.325,2.011-0.325h18.747c1.118,0,1.463,0.083,1.601,0.389l0.11,0.243l-0.191,0.262l-3.147,3.606
				C247.21,443.432,246.05,443.531,245.481,443.531z M225.697,442.678c0.135,0.015,0.298,0.024,0.49,0.024h19.294
				c0.733,0,1.339-0.142,1.458-0.218l2.688-3.086c-0.126-0.005-0.281-0.008-0.472-0.008h-18.747c-0.971,0-1.39,0.08-1.476,0.122
				L225.697,442.678z"/>
		</g>
		<g>
			<path fill="#1A1A1A" d="M275.174,443.531h-19.295c-0.93,0-1.481-0.164-1.638-0.487l-0.113-0.234l0.171-0.278l2.971-3.612
				c0.107-0.133,0.29-0.358,1.986-0.358h18.748c1.225,0,1.493,0.114,1.631,0.37l0.117,0.218l-0.142,0.262l-2.417,3.608
				C276.861,443.516,275.345,443.531,275.174,443.531z M255.263,442.664c0.158,0.023,0.364,0.039,0.616,0.039h19.295
				c0.708,0,1.221-0.127,1.364-0.193l2.08-3.105c-0.149-0.008-0.349-0.015-0.613-0.015h-18.748c-0.849,0-1.258,0.062-1.386,0.104
				L255.263,442.664z"/>
		</g>
		<g>
			<path fill="#1A1A1A" d="M304.863,443.531h-19.294c-0.642,0-1.453-0.082-1.673-0.47l-0.119-0.21l0.126-0.276l2.238-3.611
				c0.131-0.212,0.38-0.403,1.963-0.403h18.747c1.226,0,1.513,0.112,1.664,0.346l0.122,0.191l-0.091,0.256l-1.688,3.609
				C306.627,443.489,305.272,443.531,304.863,443.531z M284.833,442.646c0.175,0.031,0.423,0.057,0.736,0.057h19.294
				c0.613,0,1.112-0.101,1.283-0.172l1.457-3.116c-0.164-0.014-0.404-0.024-0.753-0.024h-18.747c-0.775,0-1.168,0.053-1.309,0.091
				L284.833,442.646z"/>
		</g>
		<g>
			<path fill="#1A1A1A" d="M334.555,443.531h-19.298c-0.524,0-1.441-0.058-1.701-0.449l-0.123-0.184l0.077-0.269l1.503-3.606
				c0.127-0.306,0.462-0.462,1.939-0.462h18.747c1.338,0,1.552,0.139,1.692,0.321l0.124,0.16l-0.04,0.244l-0.956,3.607
				C336.37,443.468,335.096,443.531,334.555,443.531z M314.407,442.626c0.184,0.039,0.472,0.076,0.849,0.076h19.298
				c0.579,0,1.018-0.088,1.196-0.152l0.829-3.125c-0.169-0.019-0.444-0.036-0.882-0.036h-18.747c-0.767,0-1.098,0.049-1.228,0.079
				L314.407,442.626z"/>
		</g>
		<g>
			<path fill="#1A1A1A" d="M364.245,443.531h-19.297c-0.325,0-1.41-0.03-1.726-0.421l-0.124-0.153l0.022-0.255l0.774-3.606
				c0.087-0.409,0.532-0.535,1.905-0.535h18.747c1.324,0,1.564,0.137,1.709,0.289l0.122,0.129l0.011,0.223l-0.226,3.612
				C366.125,443.438,364.945,443.531,364.245,443.531z M343.988,442.604c0.194,0.049,0.53,0.099,0.96,0.099h19.297
				c0.522,0,0.915-0.07,1.103-0.129l0.197-3.136c-0.164-0.023-0.465-0.048-0.999-0.048h-18.747c-0.665,0-0.988,0.038-1.135,0.066
				L343.988,442.604z"/>
		</g>
		<g>
			<path fill="#1A1A1A" d="M393.934,443.531h-19.296c-0.227,0-1.376-0.019-1.745-0.389l-0.122-0.122l-0.029-0.234l0.042-3.608
				c0.003-0.523,0.602-0.616,1.86-0.616h18.747c1.392,0,1.834,0.132,1.893,0.565l0.531,3.789l-0.144,0.203
				C395.344,443.501,394.259,443.531,393.934,443.531z M373.573,442.582c0.19,0.056,0.568,0.121,1.065,0.121h19.296
				c0.455,0,0.807-0.055,1.001-0.107l-0.441-3.146c-0.152-0.027-0.471-0.061-1.102-0.061h-18.747c-0.567,0-0.875,0.027-1.035,0.052
				L373.573,442.582z"/>
		</g>
		<g>
			<path fill="#1A1A1A" d="M423.625,443.531h-19.292c-0.68,0-1.838-0.086-1.951-0.663l-0.724-3.801l0.14-0.197
				c0.141-0.169,0.366-0.308,1.695-0.308h18.746c1.504,0,1.821,0.159,1.931,0.491l1.304,3.804l-0.137,0.237
				C425.052,443.488,424.045,443.531,423.625,443.531z M403.165,442.559c0.183,0.062,0.609,0.144,1.167,0.144h19.292
				c0.403,0,0.705-0.041,0.891-0.084l-1.081-3.155c-0.136-0.029-0.465-0.074-1.196-0.074h-18.746c-0.473,0-0.757,0.019-0.924,0.039
				L403.165,442.559z"/>
		</g>
		<g>
			<path fill="#1A1A1A" d="M453.314,443.531h-19.29c-0.412,0-1.771-0.043-1.989-0.59l-1.497-3.812l0.13-0.231
				c0.157-0.228,0.447-0.337,1.672-0.337h18.746c1.6,0,1.833,0.192,1.957,0.426l2.079,3.81l-0.125,0.271
				C454.757,443.471,453.84,443.531,453.314,443.531z M432.766,442.537c0.17,0.067,0.637,0.166,1.258,0.166h19.29
				c0.337,0,0.599-0.029,0.778-0.063l-1.725-3.162c-0.147-0.037-0.534-0.087-1.281-0.087H432.34c-0.38,0-0.633,0.012-0.799,0.027
				L432.766,442.537z"/>
		</g>
		<g>
			<path fill="#1A1A1A" d="M483.008,443.531h-19.296c-0.285,0-1.723-0.026-2.016-0.536l-2.269-3.807l0.116-0.262
				c0.142-0.252,0.413-0.364,1.644-0.364h18.748c1.702,0,1.868,0.226,1.978,0.375l2.853,3.81l-0.112,0.304
				C484.451,443.447,483.647,443.531,483.008,443.531z M462.375,442.517c0.149,0.065,0.649,0.185,1.337,0.185h19.296
				c0.271,0,0.492-0.019,0.657-0.045l-2.372-3.168c-0.133-0.04-0.536-0.099-1.357-0.099h-18.748c-0.294,0-0.509,0.008-0.665,0.018
				L462.375,442.517z"/>
		</g>
		<g>
			<path fill="#1A1A1A" d="M512.698,443.531h-19.299c-0.068,0-1.664-0.006-2.041-0.488l-3.037-3.805l0.1-0.293
				c0.127-0.265,0.39-0.383,1.611-0.383h18.749c1.69,0,1.895,0.221,2.005,0.34l3.615,3.801l-0.091,0.332
				C514.166,443.363,513.624,443.531,512.698,443.531z M489.511,439.4l2.498,3.13c0.074,0.033,0.67,0.172,1.39,0.172h19.299
				c0.212,0,0.391-0.012,0.534-0.029l-3.049-3.205c-0.033-0.001-0.447-0.078-1.401-0.078h-18.749
				C489.818,439.39,489.646,439.394,489.511,439.4z"/>
		</g>
		<g>
			<path fill="#1A1A1A" d="M542.385,443.531H523.09c-0.561,0-1.715-0.095-2.067-0.452l-3.804-3.799l0.085-0.32
				c0.13-0.312,0.469-0.398,1.576-0.398h18.749c1.677,0,1.924,0.218,2.03,0.311l4.154,3.603c0.165,0.146,0.221,0.354,0.148,0.548
				C543.914,443.148,543.769,443.531,542.385,443.531z M518.506,439.394l3.104,3.101c0.1,0.06,0.725,0.207,1.479,0.207h19.295
				c0.155,0,0.29-0.006,0.407-0.016l-3.679-3.191c-0.072-0.03-0.56-0.106-1.484-0.106H518.88
				C518.735,439.39,518.612,439.391,518.506,439.394z"/>
		</g>
		<g>
			<path fill="#1A1A1A" d="M586.923,443.531H552.78c-0.617,0-1.732-0.116-2.098-0.427l-4.56-3.788l0.065-0.345
				c0.119-0.325,0.435-0.409,1.54-0.409h33.171c1.676,0,1.978,0.213,2.077,0.282l5.252,3.603c0.239,0.167,0.267,0.402,0.215,0.566
				C588.396,443.155,588.278,443.531,586.923,443.531z M547.509,439.391l3.705,3.078c0.119,0.075,0.789,0.233,1.565,0.233h34.143
				c0.074,0,0.143-0.002,0.206-0.004l-4.627-3.175c-0.101-0.051-0.62-0.134-1.605-0.134h-33.171
				C547.648,439.39,547.576,439.39,547.509,439.391z"/>
		</g>
		<g>
			<path fill="#1A1A1A" d="M255.68,449.328h-20.075c-1.195,0-1.521-0.077-1.662-0.394l-0.109-0.246l0.203-0.273l3.61-3.805
				c0.195-0.219,0.547-0.257,1.259-0.257l0.811,0.005l20.224-0.005c0.412,0,0.768,0,0.919,0.299l0.114,0.229l-0.166,0.261
				l-3.017,3.808C257.606,449.193,257.212,449.328,255.68,449.328z M235.105,448.493c0.133,0.004,0.297,0.007,0.499,0.007h20.075
				c1.073,0,1.408-0.078,1.497-0.108l2.542-3.209l-0.518,0.003l-20.296-0.005c-0.436,0-0.62,0.019-0.696,0.038L235.105,448.493z"/>
		</g>
		<g>
			<path fill="#1A1A1A" d="M286.578,449.328h-20.08c-1.197,0-1.546-0.078-1.701-0.378l-0.116-0.224l0.156-0.272l2.816-3.805
				c0.193-0.274,0.618-0.295,1.243-0.295l0.802,0.005l20.234-0.005c0.418,0,0.78,0,0.944,0.28l0.12,0.205l-0.119,0.259l-2.221,3.805
				C288.495,449.184,288.128,449.328,286.578,449.328z M265.844,448.486c0.158,0.008,0.37,0.014,0.654,0.014h20.08
				c0.958,0,1.298-0.061,1.41-0.094l1.882-3.224l-0.684,0.005l-20.289-0.005c-0.372,0-0.548,0.015-0.629,0.03L265.844,448.486z"/>
		</g>
		<g>
			<path fill="#1A1A1A" d="M317.473,449.328h-20.079c-1.195,0-1.569-0.077-1.741-0.357l-0.121-0.198l0.106-0.268l2.025-3.804
				c0.161-0.323,0.57-0.347,1.225-0.347l0.792,0.005l20.241-0.005c0.49,0,0.798,0.012,0.971,0.254l0.124,0.174l-0.064,0.25
				l-1.431,3.808C319.38,449.218,318.921,449.328,317.473,449.328z M296.591,448.477c0.173,0.013,0.428,0.023,0.803,0.023h20.079
				c0.845,0,1.187-0.049,1.32-0.079l1.217-3.239c-0.027,0-0.057,0-0.089,0l-0.757,0.005l-20.276-0.005
				c-0.312,0-0.472,0.011-0.554,0.022L296.591,448.477z"/>
		</g>
		<g>
			<path fill="#1A1A1A" d="M348.368,449.328h-20.079c-1.311,0-1.607-0.104-1.774-0.336l-0.124-0.172l0.059-0.258l1.227-3.794
				c0.125-0.414,0.648-0.414,1.202-0.414l0.786,0.005l20.248-0.005c0.497,0,0.811,0.015,0.992,0.231l0.124,0.146l-0.02,0.235
				l-0.636,3.797C350.296,449.246,349.692,449.328,348.368,449.328z M327.351,448.467c0.177,0.018,0.467,0.033,0.937,0.033h20.079
				c0.73,0,1.068-0.036,1.22-0.065l0.545-3.251c-0.059-0.002-0.132-0.003-0.22-0.003l-0.766,0.005l-20.268-0.005
				c-0.242,0-0.385,0.007-0.471,0.015L327.351,448.467z"/>
		</g>
		<g>
			<path fill="#1A1A1A" d="M379.26,449.328h-20.077c-1.295,0-1.622-0.103-1.802-0.306l-0.123-0.14l0.004-0.239l0.438-3.796
				c0.058-0.494,0.648-0.494,1.169-0.494l0.776,0.005l20.259-0.005c0.529,0,1.128,0,1.153,0.522l0.16,3.979l-0.146,0.18
				C380.888,449.225,380.545,449.328,379.26,449.328z M358.117,448.454c0.172,0.023,0.489,0.046,1.066,0.046h20.077
				c0.619,0,0.944-0.027,1.112-0.051l-0.131-3.26c-0.078-0.004-0.186-0.007-0.337-0.007l-0.774,0.005l-20.261-0.005
				c-0.175,0-0.294,0.003-0.375,0.009L358.117,448.454z"/>
		</g>
		<g>
			<path fill="#1A1A1A" d="M410.154,449.328h-20.076c-1.339,0-1.944-0.087-1.986-0.599l-0.366-3.978l0.14-0.18
				c0.173-0.188,0.435-0.218,0.995-0.218l0.766,0.005l20.27-0.005c0.56,0,1.089,0,1.192,0.45l0.991,3.989l-0.142,0.215
				C411.764,449.225,411.452,449.328,410.154,449.328z M388.896,448.44c0.159,0.027,0.493,0.06,1.182,0.06h20.076
				c0.511,0,0.814-0.019,0.989-0.038l-0.811-3.268c-0.084-0.006-0.22-0.012-0.436-0.012l-0.781,0.005l-20.254-0.005
				c-0.11,0-0.197,0.002-0.264,0.004L388.896,448.44z"/>
		</g>
		<g>
			<path fill="#1A1A1A" d="M441.049,449.328h-20.077c-1.461,0-1.918-0.116-2.035-0.519l-1.199-3.995l0.133-0.214
				c0.173-0.23,0.486-0.247,0.98-0.247l0.758,0.005l20.277-0.005c0.566,0,1.055,0,1.219,0.377l1.825,4l-0.131,0.25
				C442.642,449.221,442.351,449.328,441.049,449.328z M419.687,448.426c0.14,0.031,0.482,0.074,1.285,0.074h20.077
				c0.41,0,0.679-0.011,0.854-0.026l-1.493-3.272c-0.084-0.011-0.239-0.019-0.523-0.019l-0.789,0.005l-20.246-0.005
				c-0.052,0-0.098,0-0.138,0.001L419.687,448.426z"/>
		</g>
		<g>
			<path fill="#1A1A1A" d="M471.944,449.328h-20.078c-1.572,0-1.92-0.146-2.071-0.45l-2.037-4.006l0.13-0.25
				c0.161-0.25,0.468-0.268,0.955-0.268l0.749,0.005l20.284-0.005c0.647,0,1.054,0.022,1.242,0.323l2.658,3.999l-0.117,0.285
				C473.497,449.249,473.129,449.328,471.944,449.328z M450.487,448.411c0.12,0.032,0.461,0.089,1.379,0.089h20.078
				c0.317,0,0.546-0.007,0.71-0.017l-2.177-3.274c-0.083-0.014-0.254-0.027-0.601-0.027l-0.798,0.005l-20.233-0.005L450.487,448.411
				z"/>
		</g>
		<g>
			<path fill="#1A1A1A" d="M502.839,449.328h-20.079c-1.544,0-1.931-0.143-2.105-0.406l-2.864-3.994l0.112-0.281
				c0.155-0.293,0.515-0.293,0.931-0.293l0.743,0.005l20.291-0.005c0.713,0,1.065,0.04,1.261,0.279l3.484,3.992l-0.099,0.315
				C504.37,449.248,504.025,449.328,502.839,449.328z M481.299,448.398c0.097,0.031,0.436,0.102,1.461,0.102h20.079
				c0.231,0,0.413-0.004,0.557-0.01l-2.857-3.273c-0.078-0.018-0.26-0.035-0.671-0.035l-0.808,0.005l-20.067-0.004L481.299,448.398z
				"/>
		</g>
		<g>
			<path fill="#1A1A1A" d="M533.732,449.328h-20.078c-1.68,0-1.969-0.171-2.135-0.362l-3.688-3.991l0.091-0.31
				c0.141-0.312,0.493-0.312,0.903-0.312l0.734,0.005l20.301-0.005c0.698,0,1.068,0.036,1.283,0.246l4.305,3.984l-0.077,0.342
				C535.231,449.27,534.839,449.328,533.732,449.328z M512.138,448.409c0.036,0,0.355,0.091,1.517,0.091h20.078
				c0.155,0,0.287-0.002,0.4-0.005l-3.56-3.295c-0.006,0.006-0.19-0.018-0.712-0.018l-0.816,0.005l-19.892-0.002l2.984,3.228
				C512.134,448.411,512.134,448.409,512.138,448.409z"/>
		</g>
		<g>
			<path fill="#1A1A1A" d="M595.524,449.328h-50.974c-1.675,0-1.998-0.171-2.168-0.332l-4.509-3.981l0.072-0.336
				c0.128-0.325,0.489-0.325,0.87-0.325l0.726,0.005l50.301-0.005c0.675,0,1.088,0.032,1.332,0.202l5.677,3.793
				c0.307,0.217,0.251,0.484,0.226,0.56C596.956,449.29,596.533,449.328,595.524,449.328z M542.939,448.384
				c0.008,0,0.277,0.116,1.61,0.116h50.974c0.021,0,0.041,0,0.061,0l-4.878-3.259c-0.054-0.024-0.256-0.058-0.865-0.058
				l-0.833,0.005l-49.692-0.002L542.939,448.384L542.939,448.384z"/>
		</g>
		<g>
			<path fill="#1A1A1A" d="M266.747,455.954h-20.929c-1.282,0-1.597-0.152-1.729-0.432c-0.08-0.17-0.052-0.37,0.074-0.521
				l3.475-4.279c0.332-0.415,1.612-0.46,2.147-0.46l20.282,0.01c1.483,0,1.642,0.295,1.718,0.438l0.117,0.218l-0.144,0.281
				l-2.833,4.285C268.83,455.634,268.613,455.954,266.747,455.954z M245.146,455.103c0.168,0.013,0.389,0.023,0.672,0.023h20.929
				c0.865,0,1.371-0.083,1.524-0.144l2.541-3.844c-0.174-0.021-0.418-0.038-0.745-0.038l-20.282-0.01
				c-0.859,0-1.439,0.129-1.546,0.194L245.146,455.103z"/>
		</g>
		<g>
			<path fill="#1A1A1A" d="M298.943,455.954h-20.925c-1.42,0-1.653-0.204-1.77-0.412l-0.119-0.211l0.13-0.281l2.621-4.343
				c0.329-0.535,1.933-0.551,2.115-0.551h20.283c0.543,0,1.493,0.061,1.755,0.466l0.123,0.19l-0.087,0.281l-1.979,4.343
				C301.005,455.619,300.85,455.954,298.943,455.954z M277.202,455.091c0.185,0.019,0.451,0.035,0.816,0.035h20.925
				c0.789,0,1.267-0.07,1.436-0.126l1.793-3.934c-0.19-0.041-0.492-0.081-0.893-0.081h-20.283c-0.711,0-1.275,0.124-1.438,0.204
				L277.202,455.091z"/>
		</g>
		<g>
			<path fill="#1A1A1A" d="M331.145,455.954h-20.926c-1.431,0-1.685-0.202-1.811-0.392l-0.123-0.185l0.08-0.273l1.761-4.338
				c0.234-0.565,1.652-0.609,2.081-0.609h20.282c0.436,0,1.482,0.043,1.789,0.442l0.124,0.162l-0.034,0.268l-1.119,4.341
				C333.171,455.654,332.94,455.954,331.145,455.954z M309.27,455.076c0.194,0.027,0.5,0.049,0.949,0.049h20.926
				c0.709,0,1.155-0.058,1.339-0.108l1.013-3.93c-0.193-0.049-0.535-0.103-1.009-0.103h-20.282c-0.68,0-1.18,0.11-1.349,0.183
				L309.27,455.076z"/>
		</g>
		<g>
			<path fill="#1A1A1A" d="M363.347,455.954h-20.928c-1.548,0-1.741-0.236-1.844-0.363l-0.124-0.152l0.021-0.257l0.909-4.345
				c0.121-0.591,1.329-0.68,2.038-0.68H363.7c0.334,0,1.454,0.03,1.813,0.412l0.122,0.131l0.019,0.248l-0.265,4.342
				C365.369,455.698,365.02,455.954,363.347,455.954z M341.343,455.059c0.191,0.032,0.531,0.066,1.076,0.066h20.928
				c0.672,0,1.051-0.05,1.23-0.091l0.239-3.924c-0.197-0.059-0.59-0.127-1.115-0.127h-20.282c-0.614,0-1.072,0.092-1.256,0.159
				L341.343,455.059z"/>
		</g>
		<g>
			<path fill="#1A1A1A" d="M395.544,455.954h-20.926c-1.541,0-1.773-0.235-1.872-0.336l-0.122-0.123l-0.026-0.235l0.05-4.342
				c0.006-0.662,1.242-0.76,1.978-0.76h20.284c0.718,0,1.936,0.092,2.018,0.711l0.619,4.527l-0.144,0.205
				C397.302,455.715,397.095,455.954,395.544,455.954z M373.429,455.042c0.183,0.039,0.552,0.084,1.19,0.084h20.926
				c0.579,0,0.931-0.038,1.119-0.073l-0.535-3.917c-0.188-0.066-0.63-0.151-1.218-0.151h-20.284c-0.55,0-0.959,0.074-1.152,0.135
				L373.429,455.042z"/>
		</g>
		<g>
			<path fill="#1A1A1A" d="M427.745,455.954H406.82c-1.814,0-2.024-0.302-2.083-0.611l-0.844-4.536l0.146-0.219
				c0.332-0.4,1.462-0.431,1.8-0.431h20.281c0.558,0,1.875,0.062,2.062,0.637l1.519,4.541l-0.135,0.239
				C429.464,455.715,429.293,455.954,427.745,455.954z M405.521,455.024c0.17,0.043,0.565,0.102,1.3,0.102h20.925
				c0.48,0,0.801-0.026,0.996-0.055l-1.309-3.913c-0.175-0.07-0.658-0.173-1.311-0.173H405.84c-0.483,0-0.851,0.058-1.051,0.112
				L405.521,455.024z"/>
		</g>
		<g>
			<path fill="#1A1A1A" d="M459.945,455.954h-20.924c-1.926,0-2.054-0.34-2.131-0.543l-1.745-4.545l0.135-0.252
				c0.273-0.398,1.225-0.458,1.769-0.458h20.283c0.3,0,1.811,0.027,2.1,0.571l2.413,4.547l-0.115,0.272
				C461.608,455.753,461.371,455.954,459.945,455.954z M437.622,455.007c0.175,0.053,0.641,0.119,1.399,0.119h20.924
				c0.393,0,0.673-0.018,0.861-0.04l-2.072-3.906c-0.167-0.078-0.713-0.195-1.402-0.195h-20.283c-0.428,0-0.745,0.044-0.937,0.088
				L437.622,455.007z"/>
		</g>
		<g>
			<path fill="#1A1A1A" d="M492.146,455.954h-20.925c-1.887,0-2.078-0.323-2.17-0.478l-2.643-4.554l0.119-0.286
				c0.228-0.396,1.069-0.48,1.735-0.48h20.282c0.179,0,1.758,0.015,2.131,0.519l3.316,4.549l-0.101,0.304
				C493.777,455.753,493.559,455.954,492.146,455.954z M469.726,454.989c0.159,0.058,0.657,0.137,1.495,0.137h20.925
				c0.314,0,0.552-0.011,0.728-0.027l-2.867-3.933c-0.077-0.036-0.684-0.181-1.463-0.181h-20.282c-0.359,0-0.636,0.032-0.822,0.067
				L469.726,454.989z"/>
		</g>
		<g>
			<path fill="#1A1A1A" d="M514.133,463.408h-21.849c-0.712,0-1.96-0.174-2.281-0.639l-3.217-4.849
				c-0.105-0.151-0.117-0.351-0.026-0.527c0.22-0.422,1.043-0.611,1.761-0.611h21.151c0.904,0,1.95,0.301,2.239,0.645l3.918,4.847
				c0.129,0.155,0.157,0.368,0.07,0.552C515.645,463.366,514.483,463.408,514.133,463.408z M487.656,457.733l3.033,4.571
				c0.074,0.048,0.734,0.275,1.595,0.275h21.849c0.353,0,0.626-0.04,0.81-0.084l-3.671-4.542c-0.109-0.088-0.815-0.343-1.6-0.343
				h-21.151C488.129,457.61,487.835,457.673,487.656,457.733z"/>
		</g>
		<g>
			<path fill="#1A1A1A" d="M524.347,455.954h-20.926c-1.862,0-2.112-0.313-2.206-0.43l-3.382-4.348
				c-0.119-0.152-0.141-0.352-0.058-0.522c0.162-0.33,0.732-0.497,1.696-0.497h20.283c0.594,0,1.81,0.101,2.168,0.482l4.024,4.345
				c0.139,0.149,0.18,0.353,0.102,0.531C525.925,455.8,525.617,455.954,524.347,455.954z M498.771,451.032l3.094,3.979
				c0.059,0.014,0.592,0.115,1.556,0.115h20.926c0.239,0,0.433-0.006,0.586-0.017l-3.618-3.906
				c-0.099-0.061-0.755-0.218-1.561-0.218h-20.283C499.176,450.985,498.942,451.006,498.771,451.032z"/>
		</g>
		<g>
			<path fill="#1A1A1A" d="M547.755,463.408h-21.851c-0.887,0-1.999-0.226-2.324-0.603l-0.956-0.941
				c-0.158-0.179-0.193-0.378-0.113-0.554c0.161-0.354,0.582-0.386,1.745-0.386h21.612c1.496,0,2.062,0.085,2.333,0.349l1.121,0.946
				c0.184,0.177,0.233,0.399,0.151,0.598C549.256,463.351,548.199,463.408,547.755,463.408z M523.695,461.757l0.49,0.483
				c0.13,0.108,0.861,0.34,1.72,0.34h21.851c0.267,0,0.485-0.023,0.651-0.053l-0.76-0.641c-0.104-0.061-0.499-0.133-1.778-0.133
				h-21.612C524.141,461.752,523.917,461.752,523.695,461.757z"/>
		</g>
		<g>
			<path fill="#1A1A1A" d="M581.376,463.408h-21.849c-0.847,0-1.994-0.219-2.368-0.573l-1.174-0.944
				c-0.27-0.249-0.198-0.499-0.171-0.57c0.15-0.383,0.601-0.398,1.696-0.398h21.611c1.481,0,2.082,0.082,2.381,0.324l1.339,0.95
				c0.212,0.172,0.281,0.401,0.205,0.615C582.861,463.33,581.92,463.408,581.376,463.408z M557.133,461.754l0.569,0.458
				c0.152,0.123,0.924,0.368,1.824,0.368h21.849c0.209,0,0.385-0.014,0.528-0.034l-0.902-0.639
				c-0.123-0.076-0.536-0.155-1.881-0.155H557.51C557.428,461.752,557.287,461.752,557.133,461.754z"/>
		</g>
		<g>
			<path fill="#1A1A1A" d="M614.999,463.408h-21.852c-0.933,0-2.038-0.252-2.414-0.548l-1.392-0.949
				c-0.311-0.243-0.248-0.507-0.222-0.582c0.134-0.39,0.575-0.405,1.648-0.405h21.609c1.47,0,2.106,0.08,2.43,0.306l1.558,0.952
				c0.281,0.196,0.313,0.45,0.257,0.628C616.455,463.33,615.534,463.408,614.999,463.408z M590.577,461.752l0.646,0.44
				c0.161,0.125,0.996,0.387,1.924,0.387h21.852c0.151,0,0.284-0.007,0.398-0.019l-1.045-0.638
				c-0.134-0.085-0.566-0.171-1.977-0.171h-21.609C590.72,461.752,590.654,461.752,590.577,461.752z"/>
		</g>
		<g>
			<path fill="#1A1A1A" d="M576.919,459.267h-21.379c-1.377,0-2.011-0.029-2.313-0.309l-1.148-1.086
				c-0.161-0.147-0.217-0.363-0.141-0.56c0.051-0.131,0.205-0.53,1.672-0.53h21.149c0.848,0,1.951,0.163,2.324,0.467l1.308,1.086
				c0.27,0.219,0.207,0.476,0.18,0.55C578.435,459.267,578.053,459.267,576.919,459.267z M553.039,457.641l0.753,0.712
				c0.176,0.086,1.198,0.086,1.747,0.086h21.379c0.094,0,0.197,0,0.299-0.001l-0.661-0.548c-0.129-0.091-0.891-0.279-1.8-0.279
				h-21.149C553.381,457.61,553.19,457.623,553.039,457.641z"/>
		</g>
		<g>
			<path fill="#1A1A1A" d="M177.919,463.408h-21.851c-0.541,0-1.474-0.078-1.652-0.599c-0.058-0.171-0.035-0.421,0.204-0.604
				l6.116-4.839c0.361-0.277,1.409-0.584,2.343-0.584h21.152c0.686,0,1.48,0.167,1.654,0.633c0.078,0.211,0.017,0.437-0.16,0.59
				l-5.415,4.837C179.95,463.156,178.88,463.408,177.919,463.408z M155.528,462.543c0.144,0.021,0.324,0.036,0.541,0.036h21.851
				c0.904,0,1.712-0.255,1.843-0.359l5.09-4.547c-0.155-0.036-0.364-0.063-0.622-0.063h-21.152c-0.846,0-1.679,0.29-1.833,0.409
				L155.528,462.543z"/>
		</g>
		<g>
			<path fill="#1A1A1A" d="M211.541,463.408H189.69c-0.442,0-1.492-0.058-1.699-0.595c-0.08-0.205-0.022-0.43,0.151-0.586
				l5.182-4.838c0.324-0.29,1.343-0.607,2.298-0.607h21.151c0.661,0,1.503,0.164,1.699,0.626c0.083,0.196,0.042,0.415-0.108,0.57
				l-4.48,4.837C213.538,463.182,212.399,463.408,211.541,463.408z M189.036,462.526c0.158,0.03,0.374,0.054,0.655,0.054h21.851
				c0.876,0,1.622-0.238,1.748-0.34l4.209-4.545c-0.169-0.045-0.413-0.085-0.725-0.085h-21.151c-0.821,0-1.602,0.277-1.741,0.391
				L189.036,462.526z"/>
		</g>
		<g>
			<path fill="#1A1A1A" d="M245.16,463.408h-21.848c-0.448,0-1.514-0.057-1.749-0.586c-0.084-0.191-0.047-0.408,0.096-0.566
				l4.25-4.837c0.313-0.341,1.364-0.636,2.256-0.636h21.15c0.664,0,1.52,0.161,1.744,0.615c0.09,0.182,0.071,0.386-0.052,0.546
				l-3.551,4.836C247.134,463.214,245.92,463.408,245.16,463.408z M222.544,462.505c0.179,0.04,0.438,0.075,0.769,0.075h21.848
				c0.874,0,1.547-0.231,1.655-0.319l3.328-4.538c-0.177-0.057-0.457-0.112-0.827-0.112h-21.15c-0.797,0-1.517,0.26-1.65,0.37
				L222.544,462.505z"/>
		</g>
		<g>
			<path fill="#1A1A1A" d="M438.485,463.408H298.961c-0.25,0-1.511-0.027-1.849-0.548c-0.099-0.154-0.115-0.333-0.043-0.495
				l2.155-4.842c0.23-0.506,1.429-0.741,2.168-0.741h135.055c0.747,0,1.948,0.241,2.15,0.759l1.815,4.848
				c0.06,0.157,0.036,0.332-0.065,0.479C440.072,463.266,439.172,463.408,438.485,463.408z M297.94,462.444
				c0.192,0.064,0.538,0.136,1.021,0.136h139.524c0.509,0,0.868-0.079,1.059-0.146l-1.694-4.529
				c-0.158-0.099-0.704-0.295-1.402-0.295H301.392c-0.708,0-1.284,0.207-1.436,0.306L297.94,462.444z"/>
		</g>
		<g>
			<path fill="#1A1A1A" d="M287.189,463.408h-30.254c-0.351,0-1.519-0.041-1.796-0.573c-0.091-0.175-0.078-0.376,0.035-0.538
				l3.32-4.84c0.288-0.405,1.379-0.675,2.219-0.675h29.285c0.714,0,1.546,0.184,1.796,0.595c0.096,0.159,0.104,0.348,0.022,0.506
				l-2.383,4.833C289.143,463.285,287.715,463.408,287.189,463.408z M256.052,462.479c0.189,0.052,0.487,0.1,0.883,0.1h30.254
				c0.834,0,1.445-0.212,1.548-0.297l2.215-4.522c-0.184-0.069-0.513-0.15-0.955-0.15h-29.285c-0.763,0-1.443,0.245-1.565,0.349
				L256.052,462.479z"/>
		</g>
		<g>
			<path fill="#1A1A1A" d="M480.511,463.408h-30.255c-0.535,0-1.977-0.128-2.227-0.712l-2.049-4.844
				c-0.067-0.154-0.049-0.333,0.05-0.486c0.263-0.401,1.122-0.584,1.809-0.584h29.288c0.852,0,1.939,0.276,2.2,0.687l2.983,4.848
				c0.099,0.158,0.105,0.355,0.012,0.523C482.024,463.38,480.761,463.408,480.511,463.408z M448.765,462.31
				c0.156,0.091,0.728,0.27,1.491,0.27h30.255c0.421,0,0.731-0.056,0.92-0.111l-2.806-4.561c-0.075-0.05-0.713-0.298-1.498-0.298
				h-29.288c-0.465,0-0.808,0.089-0.993,0.162L448.765,462.31z"/>
		</g>
		<g>
			<path fill="#1A1A1A" d="M604.846,455.954H535.62c-1.229,0-1.983-0.134-2.243-0.4l-4.238-4.343
				c-0.147-0.15-0.19-0.358-0.112-0.543c0.053-0.126,0.214-0.511,1.655-0.511h67.1c0.803,0,1.868,0.15,2.26,0.427l6.168,4.343
				c0.308,0.214,0.252,0.489,0.227,0.569C606.327,455.846,605.955,455.954,604.846,455.954z M530.106,451.016l3.863,3.959
				c0.094,0.049,0.696,0.15,1.651,0.15h69.226c0.074,0,0.142-0.001,0.205-0.002l-5.488-3.864c-0.144-0.098-0.93-0.276-1.782-0.276
				h-67.1C530.45,450.985,530.258,450.998,530.106,451.016z"/>
		</g>
	</g>
</g>
<g>
	<path fill="#1A1A1A" d="M466.58,495.294H308.39c-1.816,0-3.317-0.696-4.228-1.96c-0.911-1.263-1.096-2.908-0.522-4.63l4.616-13.847
		c1.115-3.344,4.89-6.066,8.416-6.066h141.626c3.526,0,7.302,2.722,8.416,6.066l4.615,13.847c0.574,1.722,0.389,3.367-0.522,4.63
		C469.897,494.598,468.396,495.294,466.58,495.294z M316.672,470.448c-2.819,0-5.954,2.259-6.845,4.934l-4.616,13.847
		c-0.401,1.203-0.296,2.318,0.294,3.138c0.591,0.82,1.616,1.271,2.884,1.271h158.19c1.269,0,2.293-0.451,2.884-1.271
		c0.591-0.82,0.696-1.935,0.294-3.138l-4.615-13.847c-0.892-2.675-4.027-4.934-6.846-4.934H316.672z"/>
</g>
</svg>
