<?xml version="1.0" encoding="utf-8"?>
<!-- Generator: Adobe Illustrator 17.0.0, SVG Export Plug-In . SVG Version: 6.00 Build 0)  -->
<!DOCTYPE svg PUBLIC "-//W3C//DTD SVG 1.1//EN" "http://www.w3.org/Graphics/SVG/1.1/DTD/svg11.dtd">
<svg version="1.1" id="Layer_1" xmlns="http://www.w3.org/2000/svg" xmlns:xlink="http://www.w3.org/1999/xlink" x="0px" y="0px"
	 width="173.5px" height="214.5px" viewBox="0 0 173.5 214.5" enable-background="new 0 0 173.5 214.5" xml:space="preserve">
<g>
	<path d="M99.978,48.063l-3.176,3.908l-5.127,2.686l-3.419,5.128L79.708,96.91l-3.419,10.259c0,0,0.733,6.106,0.733,7.082
		c0,0.977,2.199,8.305,1.71,9.525c-0.486,1.222-1.956,7.082-2.199,7.816c-0.243,0.732-7.328,12.211-7.328,12.211l-0.73,1.71
		l5.124,0.732l8.306,2.687h3.421c0,0,13.92,1.465,21.493-7.571l7.57-3.175c0,0,5.863-1.954,6.106-3.664l-10.015-19.538l-0.486-3.664
		l-3.419-12.701l-0.246-2.442l9.77,6.595l5.13,3.418l4.15-2.442l0.977-3.908l-9.524-6.594l-5.374-7.328l-1.711-2.931l-0.243-3.175
		l1.466-3.176c0,0-0.491-10.989-0.491-11.721c0-0.735,0-3.665,0-3.665l1.954-5.13L99.978,48.063z"/>
	<path d="M88.663,59.175l3.012-4.518l5.127-2.686l3.176-3.908l0.833,0.539l1.141-0.427l0.369-2.224l-0.741-2.963v-2.963l2.037-0.741
		l0.927,0.556l7.41-7.594l-0.186-1.853c0,0-7.409-5.926-14.632,2.038l-2.962,4.632l-0.189,2.038c0,0-4.256,3.149-4.074,4.63
		l0.926,1.297l1.67-0.74l-2.411,3.704l-0.367,2.038l0.367,1.852c0,0-1.111,2.779-1.481,3.52c-0.37,0.742-1.111,2.224-1.111,2.224
		l1.111,1.481C88.614,59.102,88.629,59.133,88.663,59.175z"/>
	<path fill="#FDCC8A" d="M116.954,40.024l-2.592-1.667l-1.111-1.482v-1.667l-1.671-2.581l-7.036,7.211l-0.927-0.556l-2.037,0.741
		v2.963l0.741,2.963l-0.369,2.224l-1.141,0.427l8.967,5.803l2.915-5.489c0,0,1.111-0.371,1.668-0.556
		c0.554-0.184,1.668-1.666,1.668-1.666l-0.557-1.111l0.557-4.261L116.954,40.024z M99,49.268l0.979-1.205L99,49.268L99,49.268z"/>
	<path d="M51.199,181.166l0.554,5.188h0.741l0.186-3.704c0,0,1.481-1.853,2.964,0.183l4.815,5.929l2.408,0.738
		c0,0,10.186-0.924,10.93-2.963l-0.928-0.368l-6.483-0.556l-1.108-0.866c-1.586,2.341-5.001,1.975-5.001,1.975
		c-0.559-3.517-7.965-11.11-7.965-11.11l-1.282-1.164C50.197,175.29,48.377,177.751,51.199,181.166z"/>
	<path fill="#FDCC8A" d="M68.981,164.127l11.381-15.695l-6.763-2.187l-4.634-0.662l-2.949,4.097c0,0-6.298,11.114-7.779,15.003
		l-4.814,7.595l-2.04,1.852c0,0-0.146,0.111-0.354,0.32l1.282,1.164c0,0,7.406,7.594,7.965,11.11c0,0,3.415,0.366,5.001-1.975
		l-0.559-0.433c0,0-5.553-8.335-2.037-11.668L68.981,164.127z"/>
	<path fill="#FDCC8A" d="M131.773,184.132l2.962-0.926v-1.669c0,0-0.074-0.901-0.152-2.131c-0.977-0.614-6.432-4.197-7.441-8.241
		c0,0-5.558-13.707-6.669-26.672c0,0,0.351-5.181-1.291-8.502c-1.795,1.195-4.794,2.195-4.794,2.195l-5.596,2.348l0.939,1.366
		l0.556,5.558c0,0,0.368,10.743,5.371,16.485c0,0,3.889,7.592,3.889,8.149c0,0.494-0.88,1.429-1.071,1.628l8.112,7.448
		L131.773,184.132z"/>
	<path d="M119.732,180.611l1.853,3.336l0.556,1.294l0.927,0.188l-1.113-3.707c0,0,4.632-0.185,7.225,3.519
		c0,0,2.038,3.149,9.447-1.109l3.704-1.667l1.481-1.299l-1.111-0.741l-7.964-0.924c0,0-0.053-0.033-0.152-0.096
		c0.078,1.23,0.152,2.131,0.152,2.131v1.669l-2.962,0.926l-5.186-2.965l-8.112-7.448c-0.025,0.026-0.037,0.039-0.037,0.039
		S115.287,177.647,119.732,180.611z"/>
	<polygon fill="#FDCC8A" points="104.359,114.116 103.616,116.524 101.211,115.226 100.838,117.08 101.765,118.005 102.135,119.487 
		104.914,121.154 107.137,120.412 105.286,122.821 106.397,123.376 110.655,119.672 109.913,113.929 	"/>
	<path fill="#4A007D" d="M88.427,61.881l0.187-1.296l2.408-4.075l0.653-1.852l5.273-3.519c0,0,2.222-0.371,2.778-0.185
		c0.559,0.185,1.484,0.741,1.484,0.741l3.704,2.964l2.408,9.261l-0.37,7.409l-2.038,12.225l-0.184,5.001l-2.778-10.928l1.85-8.335
		l0.928-5.556c0,0,0.184-3.15,0.184-3.891c0-0.741-1.298-5.556-1.298-5.556s-3.517-2.778-7.036-1.482l-5.186,8.52
		c0,0,0,4.076,0,5.372c0,1.296,1.665,22.227,1.665,22.227l8.152,16.301l2.778,5.186l0.186,4.629l-0.559,1.483l-3.147-1.483
		l-7.596-0.741l-6.296-2.963l-21.3-10.188l-2.595-0.741c0,0-1.297,0-1.297-0.556c0-0.556,0.371-1.481,0.371-1.481l4.815-2.965
		l1.853-5.927l15.745-20.745L88.427,61.881z"/>
	<polygon fill="#FDCC8A" points="135.29,102.076 131.773,100.224 128.992,100.039 126.355,99.841 125.378,103.749 123.834,104.657 
		123.807,104.854 129.92,105.781 130.846,107.076 132.143,107.447 135.475,105.225 	"/>
</g>
</svg>
