<?xml version="1.0" encoding="utf-8"?>
<!-- Generator: Adobe Illustrator 17.0.0, SVG Export Plug-In . SVG Version: 6.00 Build 0)  -->
<!DOCTYPE svg PUBLIC "-//W3C//DTD SVG 1.1//EN" "http://www.w3.org/Graphics/SVG/1.1/DTD/svg11.dtd">
<svg version="1.1" id="Layer_1" xmlns="http://www.w3.org/2000/svg" xmlns:xlink="http://www.w3.org/1999/xlink" x="0px" y="0px"
	 width="800px" height="600px" viewBox="0 0 800 600" enable-background="new 0 0 800 600" xml:space="preserve">
<g>
	<path fill-rule="evenodd" clip-rule="evenodd" fill="#050401" d="M322.934,325.16c0.52,3.017-0.167,4.982-1.089,7.259
		c-10.182-2.901-24.318-4.927-34.464-9.072c0.997-1.904,0.927-4.869,1.816-6.895C299.881,319.926,311.921,322.022,322.934,325.16z
		 M290.282,321.894c8.917,3.585,21.116,5.918,30.109,7.266c-1.025-0.307-0.426-2.235-1.086-2.908
		c-9.337-3.309-19.09-4.194-28.661-6.895C290.857,320.534,290.401,321.045,290.282,321.894z"/>
	<path fill-rule="evenodd" clip-rule="evenodd" fill="#050401" d="M284.845,353.094c-0.961,1.828-2.317,3.251-4.355,3.996
		C279.9,355.187,283.084,351.507,284.845,353.094z"/>
	<path fill-rule="evenodd" clip-rule="evenodd" fill="#050401" d="M298.993,357.452c0.042,1.865-0.9,2.728-2.542,2.905
		C295.438,358.79,296.842,357.005,298.993,357.452z"/>
	<path fill-rule="evenodd" clip-rule="evenodd" fill="#050401" d="M314.953,363.255c-0.201,2.175-1.697,4.723-3.993,3.625
		c0-0.24,0-0.484,0-0.721C312.189,365.083,312.633,363.234,314.953,363.255z"/>
	<path fill-rule="evenodd" clip-rule="evenodd" fill="#050401" d="M525.726,68.316c-7.546,13.774-22.104,21.623-31.201,35.549
		c-3.841,5.888-8.82,11.131-3.266,18.144c3.291,4.151,9.3,7.561,15.24,7.977c2.905,0.213,5.578,0.867,8.707,1.454
		c2.193,0.42,4.486,0.289,6.527,0.727c3.415,0.733,7.424,2.685,11.974,3.628c6.38,1.314,13.704,1.615,19.589,4.349
		c1.046,0.49,2.08,1.56,3.266,2.175c9.647,5.061,19.689,11.465,23.217,22.861c1.241,4.011,1.019,11.037-0.362,16.691
		c-2.278,9.33-8.613,20.24-14.875,26.48c-4.09,4.072-8.214,7.56-11.97,11.243c-16.843,16.508-36.21,31.833-59.135,41.361
		c23.746-1.433,46.918-0.818,67.48,4.346c5.134,1.292,10.383,2.348,15.596,2.904c6.657,2.625,11.435,3.376,16.328,9.072
		c0.642,8.087,0.088,23.859,0,37.362c-0.055,8.053,2.087,18.421-1.451,23.944c-3.589,5.599-14.765,8.574-22.49,9.431
		c-5.097,9.917-4.236,24.074-6.171,38.454c-1.366,10.143-2.807,20.608-2.901,29.388c-0.052,4.583-0.122,9.948,0.724,14.145
		c0.821,4.048,5.571,9.723-0.362,13.427c3.996,12.475-12.162,16.931-15.599,7.253c0.401-1.898,0.331-4.258,1.816-5.079
		c-1.67-0.389-3.193-0.918-3.993-2.174c-0.146-3.665-0.371-7.269,1.089-10.882c0.511-1.253,1.776-2.345,2.177-3.628
		c1.438-4.638-0.253-11.086-0.727-16.329c-1.898-21.027-2.132-46.41-9.069-62.033c-14.784,1.657-24.051,8.844-34.467,14.872
		c-0.544,1.995-0.441,4.638-1.086,6.529c-5.982,2.488-9.729,7.205-18.141,7.257c-1.475,3.193,2.898,4.124,3.993,6.533
		c1.657,3.64,0.088,7.114-0.727,11.25c-6.402,5.261-16.535-0.648-23.941,1.444c-1.259,0.353-2.396,1.813-3.993,2.543
		c-1.84,0.836-3.829,1.034-5.438,1.816c-17.974,8.67-24.652,27.846-26.122,51.51c-0.505,8.096-0.678,16.109-1.086,24.668
		c-0.739,15.279-0.921,30.823-0.368,45.71c-0.955,0.976-1.877,1.995-3.266,2.54c4.075,6.803,2.649,18.777-3.625,22.858
		c5.474,15.863-24.172,18.12-19.951,0.721c-6.323-4.875-2.837-17.469-0.727-25.391c-0.541-1.514-2.259-1.846-2.539-3.625
		c1.892-12.886,3.498-28.238,3.266-43.174c-0.286-18.318-0.666-37.234-5.806-51.148c-3.193-8.653-11.286-14.312-18.865-19.227
		c-1.998,9.556-7.053,18.263-9.434,27.569c-1.612,6.323-3.935,13.071-4.711,19.589c-1.308,10.912,1.539,20.994-0.365,33.016
		c1.718,1.545,4.556,1.968,5.803,3.99c0.678,2.436-0.757,4.985-1.448,7.612c-0.654,2.479-0.733,5.824-2.181,7.256
		c-1.32,1.311-4.206,1.055-6.888,1.819c-1.448,0.405-3.476,1.779-4.72,1.816c-2.162,0.049-5.426-2.05-7.615-2.907
		c-2.907-1.137-5.31-1.876-6.892-2.904c-2.613,1.32-4.306,5.018-8.345,4.72c-4.674-0.35-8.193-5.696-5.809-10.158
		c-1.429-0.97-2.461,1.542-4.714,1.813c-3.543,0.426-6.642-1.898-8.345-3.987c0.563-3.187,2.819-4.687,4.72-6.533
		c2.871-0.392,4.425,0.602,6.527,1.089c3.294-2.308,1.597-6.821,3.267-9.066c1.797-2.415,5.362-1.545,7.98-3.996
		c0.864-13.017-0.122-26.532,1.089-41.352c0.827-10.109-0.903-21.198-1.813-31.924c-18.372-6.295-32.964-16.38-49.703-24.312
		c-4.732,9.081-5.119,22.052-5.8,34.466c-0.468,8.403-0.277,16.718,0,24.668c5.997,3.172,8.461,17.922-0.73,19.227
		c4.264,14.239-19.297,13.488-15.234,1.092c-0.733-1.086-2.701-0.931-3.993-1.454c-3.124-6.086-3.145-14.899,2.901-17.773
		c-0.338-6.171,0.134-11.456,0-16.322c-0.043-1.752-0.897-3.479-1.089-5.45c-1.563-16.526-1.542-35.464-5.803-52.602
		c-10.955-4.279-20.045-10.419-32.283-13.418c-3.823-4.343-8.266-3.774-13.427-6.53c-1.825-2.524-1.919-7.965,0.368-10.161
		c-2.907-3.726-4.62-8.665-3.27-13.059c1.825-5.916,9.024-7.698,13.789-10.517c7.116-0.83,15.711-0.894,18.862-6.532
		c4.994-8.951,2.725-26.377,2.537-37.003c20.845-2.98,38.913-5.474,60.223-6.895c6.274-10.291,11.511-21.62,16.69-33.013
		c4.69,0.143,6.87,2.798,9.431,5.082c10.806-14.051,21.018-28.603,31.559-43.174c10.556-14.586,18.421-30.866,29.023-45.345
		c21.173-28.904,38.664-60.239,63.124-85.615c8.896-4.748,21.952-3.939,31.562-4.717c4.203,1.892,9.148,0.694,14.148,1.089
		c7.986,0.639,16.331,3.175,23.217,5.082C519.117,63.593,523.153,65.667,525.726,68.316z M507.584,63.967
		c-1.7-0.468-3.02-1.7-4.714-2.181c-7.819-2.22-16.402-1.256-25.03-1.816c-11.204-0.715-19.683-1.162-29.026,2.907
		c2.031,4.41,7.037,0.827,11.25,0.727c0.486-0.012,1.63,0.699,2.177,0.724c5.307,0.213,10.797-0.553,16.681,0
		c15.276,1.423,31.261,2.904,42.45,6.165c0.596-0.052-0.383-1.512,0-2.537C516.818,65.363,512.401,65.278,507.584,63.967z
		 M446.278,65.049c-6.28,5.648-11.645,13.172-17.411,20.319c-8.497,10.529-14.51,21.833-22.493,31.924
		c-8.205,10.365-15.203,21.903-22.493,32.289c-10.182,14.501-18.351,30.014-28.661,43.895
		c-9.145,12.317-17.481,25.288-26.119,37.368c-1.32,1.843-3.391,3.549-2.901,5.073c2.95,0.623,5.708-0.699,7.98-1.813
		c0.864-6.064,3.908-8.841,6.892-13.418c6.089-9.337,13.491-18.086,19.227-27.21c8.221-13.074,16.158-26.045,24.306-37.73
		c4.252-6.098,8.147-12.439,12.335-18.5c2.065-2.996,4.729-5.459,6.892-8.342c6.761-9.005,12.311-18.831,18.503-27.934
		c4.273-6.286,8.251-12.81,12.697-18.506c4.416-5.654,11.453-9.802,12.332-17.414c-0.24,0-0.481,0-0.724,0
		C446.521,65.049,446.4,65.049,446.278,65.049z M505.772,70.128c-8.692-1.387-17.724-2.46-26.48-3.263
		c-4.352-0.395-8.318-0.447-11.973-0.724c-5.627,0.773-10.416,2.664-16.687,3.628c-3.373,3.783-6.727,7.512-10.158,11.243
		c-10.578,11.523-18.196,25.398-27.21,38.092c-5.973,8.424-12.482,16.675-18.135,25.397c-2.841,4.38-5.611,8.89-8.707,13.056
		c-7.013,9.434-12.494,19.452-18.865,29.382c-8.652,13.506-18.357,26.079-26.842,39.187c-1.803,2.777-4.498,5.17-4.355,7.615
		c7.655-0.809,15.404-2.041,23.217,0c8.576,2.248,14.954,7.947,23.217,9.066c6.101,0.83,12.442,0.216,17.776-0.721
		c1.46-0.255,2.57-1.211,3.993-1.092c3.488,0.301,5.006,4.136,4.714,7.262c-0.587,6.262-7.378,9.96-9.793,15.961
		c14.266-2.591,29.588-3.236,44.253-2.183c3.12-5.347,7.479-9.449,11.615-13.777c-12.229-38.32-26.249-72.644-38.822-110.648
		c-3.865-0.766-6.144-6.87-4.352-10.523c2.692-5.483,13.208-3.081,13.421,2.898c0.067,1.822-0.849,2.6-1.81,4.72
		c9.291,20.261,15.83,42.058,23.941,63.125c8.166,21.198,16.119,42.374,24.306,63.124c11.569,1.776,20.234-2.318,28.658-6.171
		c12.962-5.924,24.908-14.902,35.191-22.493c10.891-12.548,28.743-23.941,37.003-39.901c4.163-8.047,6.067-21.149,0.727-28.664
		c-6.657-9.361-19.981-13.196-31.2-17.408c-10.21-3.85-20.115-4.732-31.194-6.894c-6.478-1.262-12.475-3.203-18.506-3.628
		c-3.814-2.901-9.331-4.312-10.523-9.066c-1.715-6.852,3.43-13.178,6.894-18.868c2.774-4.553,5.508-9.13,8.707-12.7
		c7.247-8.072,16.451-14.291,20.681-22.125C514.838,70.724,510.115,70.825,505.772,70.128z M503.235,135.066
		c9.653,1.816,21.559,5.003,30.835,5.812c11.627,4.462,23.448,8.056,34.096,14.145c2.044,2.798,5.082,4.592,7.259,7.253
		c-2.977-8.82-11.584-12.78-19.227-17.052c-1.639-0.909-2.844-2.613-4.352-3.263c-6.512-2.804-14.522-2.652-21.77-4.349
		c-2.594-0.611-5.161-2.211-7.98-2.904c-2.877-0.703-5.988-0.909-9.069-1.454c-12.013-2.126-22.411-4.583-26.845-14.869
		C480.785,130.796,493.57,133.262,503.235,135.066z M415.078,131.075c1.265-2.971,6.517-1.898,7.98-1.089
		C422.575,124.908,412.469,125.957,415.078,131.075z M417.617,132.894c2.026,8.193,5.742,16.453,8.704,25.027
		c2.825,8.151,5.791,16.368,8.71,24.309c5.994,16.283,12.573,32.733,17.776,48.976c2.211,6.901,3.753,13.865,5.803,20.672
		c2.074,6.873,5.386,14.13,7.618,20.681c1.347,3.96,1.955,6.852,2.901,11.25c0.374,1.721,1.442,3.665,1.813,5.444
		c0.365,1.703-0.562,5.021,2.181,5.438c1.15-0.645-1.408-6.858,1.086-7.983c5.642-0.922,4.385,5.052,6.894,7.26
		c-2.798-11.779-8.014-22.816-11.973-34.464c-3.859-11.356-8.412-22.898-13.059-34.108c-9.407-22.682-17.472-46.188-25.03-69.286
		c-1.311-4.005-3.284-8.707-5.079-13.056c-1.661-4.027-2.549-10.061-7.253-11.25C417.912,131.735,417.554,132.097,417.617,132.894z
		 M379.888,244.992c-7.688-1.94-14.13-7.807-22.855-9.434c-6.435-1.204-11.387-0.414-18.5-0.362
		c-5.003,2.187-11.125,4.595-17.047,2.901c-1.025-2.965-3.519-4.471-6.533-5.447c-7.126,13.312-14.172,26.702-21.04,40.275
		c6.317,2.685,13.141,3.075,19.951,4.711c6.058,1.46,11.806,4.568,17.773,5.812c2.375,0.49,4.973-0.052,7.622,0.359
		c11.867,1.828,25.124,6.636,35.552,7.257c7.542-16.28,18.901-28.743,25.395-46.072C392.995,245.61,386.703,246.708,379.888,244.992
		z M400.206,258.41c2.317-3.54,9.51-10.69,3.99-13.056c-4.884,3.58-6.165,10.76-9.069,16.322
		c-4.82,6.91-10.061,13.403-13.059,22.132c-1.329,2.932-6.752,7.767-3.267,10.882C386.098,282.54,392.5,270.208,400.206,258.41z
		 M445.19,264.943c1.119,1.989,3.999,3.661,6.527,2.174c-0.307-3.081-2.333-2.956-2.174-5.082c0.338-4.419,9.768-6.216,6.168-10.158
		C452.446,256.479,447.099,258.991,445.19,264.943z M453.535,261.677c2.147-0.715,3.589,0.012,5.803-0.721
		c-0.277-1.788-0.554-3.567-1.816-4.358C456.619,258.48,453.24,259.806,453.535,261.677z M562.367,268.933
		c-11.888-4.404-24.914-3.181-38.816-4.352c-5.261-0.444-9.832-1.493-14.878-1.092c-11.855,0.967-23.722,0.936-35.55,0.365
		c1.238,3.476,2.096,7.336,4.352,9.796c7.996-1.49,21.264-0.712,31.197,0c7.39,0.532,12.624,4.839,18.506,5.8
		c10.739-1.335,20.954-2.859,31.559-2.533c9.537,0.289,20.249,2.26,29.02,0C581.366,271.734,572.275,269.526,562.367,268.933z
		 M453.535,264.219c0.225,1.22,1.043,1.855,0.724,3.628c-2.038,4.136-10.961,2.053-11.977-2.175
		c-1.338-0.234-2.886-0.255-3.26-1.454c-14.513,0.022-29.96,0.788-42.447,3.987c-4.036,6.244-7.849,14.641-10.882,20.681
		c1.837-1.67,4.145-2.874,7.622-2.904c0.547-0.897,0.642-2.253,1.813-2.533c21.055-9.266,45.415-6.904,69.289-8.345
		c-0.931-3.789-2.691-6.746-3.628-10.523C458.559,264.171,456.844,263.787,453.535,264.219z M243.486,271.114
		c1.852,2.244,4.638,1.274,7.98,1.083c6.627-0.365,15.562,0.152,22.49-0.359c6.761-0.505,13.227-2.743,18.868-1.816
		c0.864-1.311,2.129-2.223,2.174-4.349C277.336,265.892,261.509,269.313,243.486,271.114z M268.154,279.091
		c4.249,1.302,8.403,3.343,12.694,4.717c27.384,8.737,57.443,11.675,83.805,18.859c4.684,1.283,9.577,3.799,13.783,3.634
		c3.424-0.14,7.229-3.023,10.523-0.727c-2.682,0.459-5.931,0.359-7.259,2.172c5.207,2.147,9.045-0.678,13.062-1.445
		c6.858-1.317,14.37-1.594,21.043-2.904c5.49-1.083,10.404-2.339,15.963-3.266c1.11-0.182,4.112-1.636,4.714,0.73
		c-14.668,3.117-29.479,6.031-44.98,8.707c2.466,16.812,1.247,44.329-12.336,49.335c-6.079,2.238-14.251,1.368-20.681,4.711
		c-7.701,7.46-13.862,20.799-9.072,33.016c2.728,0.608,5.255,1.454,7.983,1.454c14.884,0.012,30.841-5.757,46.799-9.431
		c15.793-3.65,30.915-9.437,46.072-10.523c15.261-1.098,40.908,3.43,47.161-9.796c-0.845-1.998,0.773-3.187,1.089-5.441
		c0.551-3.984-0.237-8.579-0.368-12.694c-0.593-19.732-3.279-40.829-2.172-58.772c-2.494,1.457-2.22,4.069-4.72,5.079
		c-2.542,1.025-6.338-0.414-9.069,1.813c-11.545-2.205-22.691,1.806-34.461,0.724c-20.936-1.922-42.292-19.087-64.21-7.257
		c-0.824,1.898-1.168,3.409-1.819,4.72c-1.959,0.812-4.358,1.195-6.165,2.172c-14.19-6.049-30.525-5.021-45.71-8.704
		c-4.684-1.135-9.264-3.081-13.786-4.352c-7.193-2.016-15.209-2.187-20.677-5.079c-3.193,0.289-5.386-0.416-6.527-2.171
		c-0.468-2.768,1.128-4.976,0.362-5.812c-11.752,1.609-25.525,1.511-35.556,2.181C258.2,276.78,263.154,277.558,268.154,279.091z
		 M239.131,273.285c-0.441,2.278,0.368,3.552-0.362,5.444c1.347,0.916,1.983,1.579,3.993,1.092
		C242.939,277.461,242.185,272.409,239.131,273.285z M245.661,279.45c28.685,13.102,65.129,20.829,100.125,26.124
		c6.326,3.774,16.307,3.263,23.947,5.438c3.266,0.937,5.772,3.364,8.704,2.181c-0.195-1.375-0.876-2.266-0.724-3.993
		c-26.179-9.358-56.802-12.384-83.799-19.589c-12.183-3.251-23.335-7.576-34.105-10.882c-4.878-1.502-10.544-3.068-15.234-3.99
		C245.05,276.199,244.971,278.212,245.661,279.45z M291.736,276.552c2.123,1.746,5.596,2.141,7.98,3.631
		c14.501,1.91,27.086,7.056,39.543,9.069c11.018,1.776,21.882,2.965,32.648,5.079c-8.771-3.686-18.165-3.82-27.207-5.812
		c-17.511-3.853-36.197-11.228-53.329-13.415C291.347,275.733,291.453,276.229,291.736,276.552z M478.203,276.552
		c1.697,5.797,4.416,10.581,6.168,16.326c3.324,0.426,4.531-1.104,5.802-1.092c1.052-2.211,2.214-4.313,4.352-5.438
		c10.103-1.788,16.995-4.613,26.118-6.165C511.824,274.876,490.985,274.359,478.203,276.552z M465.143,277.637
		c-3.236,1.433-7.804,0.468-11.608,0.362c-16.748-0.447-33.077-0.085-48.253,4.717c-1.855,0.59-4.583,0.654-5.8,2.546
		c16.368-1.579,29.643,7.938,45.345,10.52c8.041,1.317,16.575-0.611,23.944-1.092C467.966,288.598,466.98,282.695,465.143,277.637z
		 M589.577,279.091c-7.448,2.889-18.901,0.134-28.302,0c-22.134-0.319-43.949,2.859-63.124,10.161
		c-1.56,23.971,3.312,49.731,2.907,73.28c6.374-2.147,9.966-6.207,16.322-9.066c9.686-4.367,22.08-5.596,34.826-6.171
		c7.153-0.322,14.975-0.38,21.407-1.816c4.331-0.964,12.138-4.081,14.51-6.895c2.266-2.691,1.286-6.113,1.816-10.158
		c2.123-16.195,0.52-32.228,0.721-49.335c-0.018-0.222-0.049-0.432-0.359-0.362C590.218,279.012,589.997,279.149,589.577,279.091z
		 M234.782,309.926c-2.485,1.171-4.583,3.802-7.983,4.714c-4.544,1.225-9.878,0.651-14.148,2.183
		c-2.558,0.912-3.887,2.831-6.168,3.257c-3.458,3.245-4.823,12.758,1.092,14.516c0.347-3.592-0.894-6.603,0.359-10.158
		c2.746-7.786,17.411-6.688,24.668-10.161c9.276-4.438,10.307-16.034,9.069-27.931c-0.119-1.137-0.018-3.345-1.813-3.631
		c-0.079-0.283-0.304-0.417-0.727-0.359C238.581,292.451,238.906,303.409,234.782,309.926z M329.825,305.574
		c-6.183-1.034-12.421-3.227-18.503-3.99c-1.566-0.198-3.163,0.274-4.711,0c-4.909-0.873-10.143-2.692-15.599-3.987
		c-15.541-3.692-31.958-9.899-47.164-13.065c-0.021,0.468-0.465,0.502-0.362,1.089c0.897,13.403,0.797,23.856,1.451,35.549
		c18.29,7.029,35.78,14.364,55.141,21.773c14.309,5.471,32.201,13.546,46.802,16.322c7.324-4.002,16.04-2.397,22.487-5.8
		c4.821-2.552,7.968-10.721,9.069-16.694c0.964-5.21,0.773-12.631,0.365-17.776C363.586,313.415,347.084,308.47,329.825,305.574z
		 M476.022,294.331c0.934-0.046,1.733-0.207,2.181-0.733c-0.934-1.119-1.177-2.932-2.539-3.625
		C475.52,291.688,475.782,293.005,476.022,294.331z M233.329,316.453c-4.769,2.248-12.138,2.409-17.052,4.358
		c-7.262,2.883-7.804,11.177-3.263,18.138c39.068,18.53,82.929,34.321,121.891,54.05c-0.809-1.727-0.8-4.279-0.724-6.892
		c-17.758-8.671-37.937-16.903-57.319-24.665c-13.664-5.477-28.192-12.101-41.358-17.056c-5.477-2.053-10.228-5.07-15.237-6.892
		c-2.646-0.958-4.79-0.234-5.803-2.536c-1.581-3.601,0.958-8.729,2.177-11.612c7.284-2.33,17.779-1.405,25.753-2.178
		c-0.559-5.465,0.487-8.123-1.086-12.332C239.283,311.666,237.334,314.577,233.329,316.453z M380.976,315.732
		c2.439-1.262,5.736,1.67,9.072,0.359c-0.438-5-5.368-5.511-9.793-6.523C380.511,311.602,380.721,313.692,380.976,315.732z
		 M380.255,338.949c-1.089,4.76-3.631,11.043-6.897,14.145c-3.993,3.798-10.243,3.793-16.684,5.441
		c-8.692,2.232-13.558,3.005-15.961,10.891c-2.287,7.481-3.896,16.909-2.181,25.027c2.46,0.243,5.307,0.809,6.532,0.362
		c1.35-8.85,0.615-17.816,3.987-23.576c0.699-1.189,2.576-2.707,3.993-4.358c1.286-1.5,2.716-3.294,3.987-4.349
		c7.229-5.994,20.176-1.822,26.486-9.437c5.888-7.104,6.213-20.805,6.892-33.375c-2.895-0.97-5.648-2.089-9.434-2.174
		C381.685,324.677,381.718,332.535,380.255,338.949z M278.312,348.745c0.84,2.293-3.309,4.662-5.079,4.349
		c-0.569-2.333,2.999-3.476,4.352-5.079c-1.892-5.937,4.084-4.897,5.806-8.339c-2.813-0.55-5.629-3.379-8.342-1.813
		c-0.38,2.062-3.686,3.945-5.079,6.165c-1.59-0.398-5.194-0.17-6.532-2.539c-2.135,0.319-4.173,4.756-5.803,2.177
		c1.077-1.46,2.637-2.445,3.628-3.99c-1.372-0.085-2.548-0.359-2.539-1.813c1.502-2.403,6.11-3.522,6.165-6.171
		c-4.76,1.387-9.465,7.092-13.783,3.625c-1.934,1.283-4.766,4.881-6.894,3.631c0.249-2.29,2.71-2.369,3.993-3.631
		c0.033-1.125-0.444-1.727-0.73-2.533c2.071-1.928,5.377-2.609,7.98-3.996c-1.94-1.56-2.755,0.417-4.349,1.092
		c-7.11-0.362-13.278,0.687-21.042,1.813c1.691-2.175,5.778-1.962,5.806-5.803c3.178-1.445,5.289,0.234,7.98-1.816
		c-8.5-0.995-16.578-0.216-23.217,0.365c-1.646,1.135-3.561,1.998-3.263,5.079c1.144,0.176,1.283-0.654,2.533-0.359
		c14.048,7.84,28.801,14.972,45.351,20.307c1.329-0.119,1.466-1.438,3.266-1.08c0.386,1.35-0.903,1.034-0.73,2.172
		c0.985,0.715,2.734,0.657,2.542,2.536c-15.127-3.975-27.183-11.021-41.355-15.961c-1.743-1.523-3.869-2.664-6.533-3.266
		c-0.325-0.639-1.338-0.596-1.451-1.448c-1.904,0.563-3.604-2.5-3.993-1.089c0,0.481,0,0.97,0,1.454
		c17.037,9.693,36.711,16.739,56.233,23.938c13.123,6.852,27.277,11.395,41.72,17.414c5.581,3.85,12.655,6.213,19.227,9.066
		c0.499-1.189,0.484-2.898,0.724-4.349c-5.447-3.415-13.272-4.024-19.227-6.533c-11.891-5-24.659-8.275-34.464-14.869
		c18.019,6.162,35.765,12.603,54.052,18.497c1.086-4.611,3.722-9.559,4.717-13.056c-2.868,1.028-6.177,4.69-9.431,6.533
		c-1.308-1.29-2.457-0.809-4.714-0.733c-0.267-0.818-0.325-1.846-0.727-2.533c2.944-2.503,6.837-4.048,9.069-7.256
		c-4.911-0.177-7.551,5.009-11.247,7.256c-2.898-0.645-5.338-1.268-5.076-3.628c0.307-2.835,7.925-3.656,7.98-6.895
		c-3.537-0.097-6.508-2.682-9.072-2.542c0.341,0.389,1.338,0.116,1.092,1.092c-2.768,3.352-8.318,9.997-12.338,4.717
		c-0.243-3.501,5.839-5.438,6.167-8.345c-2.7,0.085-4.312,4.066-7.256,5.079c-0.244,0.846-0.925,1.25-1.451,1.816
		c-1.916,0.608-3.771,0.423-4.717-0.73c-1.259-4.918,4.973-5.404,6.897-8.336c-0.936-0.882-2.561-1.073-3.99-1.454
		c-2.746,1.727-4.16,4.787-7.624,5.8c0.596-3.522,3.932-4.291,5.079-7.253c-6.049-0.992-7.384,5.596-12.332,6.895
		c-1.046-1.612-3.385-1.937-3.263-4.72C281.15,347.754,279.726,348.922,278.312,348.745z M205.395,339.308
		c-1.083,2.783-0.618,6.453,2.539,6.894c-1.125-2.77,0.791-5.708,0.727-7.253C207.466,338.961,206.854,339.564,205.395,339.308z
		 M211.197,340.397c-3.501,5.076,2.868,8.756,7.621,9.437c3.859,3.756,9.693,5.541,15.596,7.257
		c12.877,8.05,27.514,12.016,40.635,19.227c18.308,10.06,36.754,19.205,57.319,26.483c-0.578-3.729,1.837-4.45,2.536-6.895
		C296.298,374.773,251.077,360.256,211.197,340.397z M283.756,347.654c1.803-1.944,4.823-2.67,6.165-5.079
		C287.457,342.301,283.738,345.488,283.756,347.654z M554.386,349.107c-1.46,9.161-1.046,19.069-1.092,29.023
		c-0.082,17.676,1.283,36.635,0.365,52.964c2.564,0.262,3.85-0.742,5.079-1.813c-2.485-11.42-0.857-21.152,0.359-31.562
		c1.737-14.777,1.597-30.549,4.355-41.72c0.514-2.068,3.397-5.885,0.73-7.612C561.205,348.915,557.635,348.852,554.386,349.107z
		 M539.146,350.199c6.046,25.091,7.707,53.657,8.71,80.174c1.6-0.177,1.798,0.496,2.901,0c2.826-23.664-1.052-55.6,1.089-80.907
		C546.671,349.381,544.66,350.226,539.146,350.199z M261.263,443.067c0.119-21.012-3.823-48.609-1.454-71.467
		c-2.129-1.135-4.571-1.959-6.891-2.907c3.883,24.862,4.854,46.087,5.806,74.374C259.745,442.684,261.214,443.663,261.263,443.067z
		 M261.989,374.137c-2.548,15.513,0.894,31.754,1.086,47.161c0.088,7.244-1.399,15.146,0.362,22.49
		c3.224-0.131,4.568,0.021,7.259-0.721c0.012-21.876,0.231-46.699,5.438-63.121c-4.963-2.056-8.844-5.185-14.145-6.895
		C261.989,373.413,261.989,373.772,261.989,374.137z M419.795,386.84c-1.01,0.328-2.999-0.116-3.266,1.448
		c20.681-2.117,43.362-0.675,64.213-2.901c-0.76-1.791-1.393-4.364-1.451-5.803C458.653,378.79,436.476,381.284,419.795,386.84z
		 M480.015,387.923c-24.786,2.223-49.57-0.851-74.733,4.355c-0.864-0.228-0.596-1.579-2.175-1.092
		c-14.011,2.67-31.875,9.489-48.976,9.069c-3.51-0.085-5.812-0.815-7.98-1.813c-0.444,1.369-1.539,2.089-1.813,3.628
		c4.735,2.889,11.171,2.08,17.049,1.813c20.723-0.937,35.218-3.215,54.78-3.987c7.436-0.292,14.862-0.414,22.128-1.092
		c7.162-0.66,14.185-1.919,21.043-2.54c8.245-0.733,16.554,2.631,23.941-0.721c0.769-1.95,0.973-5.809,0.724-7.622
		C482.418,387.652,480.909,387.844,480.015,387.923z M334.904,402.071c0.158,0.693,0.785,0.912,0.73,1.813
		c2.722-0.298,5.106,1.661,6.892,1.092c-2.172-1.709,0.031-5.505,0.721-7.618C339.326,396.311,335.899,398.236,334.904,402.071z
		 M420.884,523.603c2.819-4.051,0.824-13.084,1.086-20.319c0.608-16.532,1.77-31.696,1.454-47.885
		c1.453-5.921,1.52-13.792,2.539-19.954c2.868-17.408,11.724-27.901,25.03-34.829c0.477-0.24,4.039-0.63,2.177-1.445
		c-26.562,2.634-53.946,3.479-80.174,6.162c3.026,1.214,5.538,2.935,7.618,5.079c20.431,8.29,27.085,34.801,27.934,60.947
		c0.627,19.251-2.546,39.159-0.362,56.595C412.158,527.934,418.414,527.152,420.884,523.603z M358.121,406.426
		c0.396,11.749,0.736,26.243,0.365,38.816c3.093-6.46,3.896-15.209,7.253-21.402c0.997-4.775,3.896-10.562,4.717-16.691
		c-2.466,0.651-2.57-1.049-3.628-1.816C364.207,405.982,360.283,405.322,358.121,406.426z M347.963,406.426
		c-1.758,3.847-0.961,9.47-0.724,14.872c1.022,23.223-1.953,44.579-0.359,64.21c-1.916,2.795-6.207-0.103-8.71,1.454
		c6.502,3.364,14.711,8.515,21.766,5.444c-2.609-2.086-9.911-1.916-11.608-6.171c-0.903-2.263,0.541-9.191,0.724-13.421
		c0.733-16.596,0.277-35.267,0.73-48.974c0.213-6.596,1.508-12.752,0.362-17.414c-0.018-0.219-0.058-0.432-0.362-0.359
		C349.84,406.852,348.495,406.231,347.963,406.426z M353.407,406.067c-2.481,21.42-1.146,52.714-2.181,70.013
		c1.746-4.519,1.794-10.082,3.267-15.237c0.602-2.108,1.949-3.659,2.181-5.803c0.815-7.71-1.399-17.116-0.727-26.121
		c0.541-7.269,2.068-16.575-1.086-22.852C354.374,406.067,353.891,406.067,353.407,406.067z M335.993,479.337
		c2.013,1.484,4.051,4.507,7.622,3.267c1.18-24.674,1.937-49.624,1.086-75.095c-2.454,0.791-5.07-0.164-7.253-0.721
		C336.732,429.014,338.292,457.957,335.993,479.337z M399.114,452.857c1.104,16.46,1.615,36.002,0.368,48.974
		c-0.596,6.143-3.866,14.835-2.181,19.592c0.769,2.174,6.35,6.034,7.618,5.447c-0.894-32.63,7.016-80.679-12.332-103.753
		C395.413,431.632,398.317,440.969,399.114,452.857z M558.738,433.63c-4.82,0.59-7.506-0.955-11.612-1.083
		c-1.98,1.74-2.579,6.475-2.174,9.428c6.396,2.737,16.395,2.296,15.599-6.53C560.302,434.488,558.541,435.041,558.738,433.63z
		 M256.184,444.88c-1.551,3.202-2.856,8.281-1.089,11.243c3.063,5.131,13.436,1.664,18.138,1.092
		c2.804-2.168,3.428-8.722,0.724-11.612C268.017,445.454,262.309,447.127,256.184,444.88z M556.561,445.242
		c-2.822,1.46-5.678,0.496-8.342,0.362C543.581,456.47,562.759,454.445,556.561,445.242z M259.809,462.294
		c-0.882,8.281,13.789,6.39,10.161-1.813C266.533,461.19,262.008,460.11,259.809,462.294z M350.868,483.337
		c0.42,2.959,2.177,4.589,5.441,4.711c-0.21-7.853,1.305-16.615,0.365-25.03C354.578,469.633,354.113,477.871,350.868,483.337z
		 M323.657,490.952c0.158-1.296,1.636-1.268,2.542-1.813c1.761,1.14,3.078,2.725,5.079,3.625c0.572-2.211-0.301-2.591,0.359-5.079
		c-2.342-1.162-4.045-2.968-7.25-3.257C324.293,486.594,321.848,489.152,323.657,490.952z M334.545,489.498
		c-0.934,1.971-1.688,4.124-1.816,6.895c4.045-2.999,7.524,1.46,9.796,4.358c0.036,1.974-1.968,1.898-3.993,1.813
		c2.868,1.87,5.541,4.541,9.069,4.711c1.463-3.251,2.311-7.12,2.543-11.605C345.187,493.373,341.163,490.137,334.545,489.498z
		 M327.285,493.133c-4.808,1.232-9.333,1.955-13.783,0.362c-1.302,0.751-2.819,1.29-2.905,3.257
		c1.682,1.636,3.458,2.488,5.809,1.816c2.421-4.002,7.472-3.656,12.329-3.99C328.098,494.252,327.614,493.771,327.285,493.133z
		 M322.934,498.567c1.396,0.192,3.254,0.32,6.167,0.368c0.623-0.645,1.524-3.443,0.365-3.628
		C328.888,499.367,324.451,495.572,322.934,498.567z M353.045,495.669c-1.14,3.82-1.876,8.041-2.901,11.973
		c8.284-1.448,11.18-3.762,11.243-12.335C359.456,495.593,354.38,494.927,353.045,495.669z M330.914,501.472
		c-2.731,0.745-5.149-0.468-7.615,0c-3.191,2.53,1.32,5.943,3.625,5.802c3.817-0.228,7.39-8.795,11.609-6.885
		C336.58,496.457,333.465,500.775,330.914,501.472z M406.736,531.218c-2.664-0.784-4.252-3.996-7.622-3.99
		c-2.4,5.222-2.22,9.829-2.175,18.138c4.471,4.866,14.522,5.1,20.678,1.454c2.813-4.614,4.416-12.716,1.092-17.773
		C413.855,529.102,410.863,532.444,406.736,531.218z M414.716,551.175c-5.173,0.195-10.444,2.339-14.51-0.368
		C397.101,563.714,418.28,563.249,414.716,551.175z"/>
</g>
</svg>
