<?xml version="1.0" encoding="utf-8"?>
<!-- Generator: Adobe Illustrator 17.0.0, SVG Export Plug-In . SVG Version: 6.00 Build 0)  -->
<!DOCTYPE svg PUBLIC "-//W3C//DTD SVG 1.1//EN" "http://www.w3.org/Graphics/SVG/1.1/DTD/svg11.dtd">
<svg version="1.1" id="Layer_1" xmlns="http://www.w3.org/2000/svg" xmlns:xlink="http://www.w3.org/1999/xlink" x="0px" y="0px"
	 width="800px" height="600px" viewBox="0 0 800 600" enable-background="new 0 0 800 600" xml:space="preserve">
<g>
	<path fill-rule="evenodd" clip-rule="evenodd" fill="#F9F8D6" d="M583.822,431.921c-22.958,36.789-65.724,51.527-95.539,32.931
		c-11.258-7.028-19.026-17.834-23.123-30.52c6.867-5.808,13.299-12.281,19.217-19.359c1.25,2.011,2.812,3.755,4.826,5.029
		c10.105,6.365,25.588-0.044,34.589-14.316c8.991-14.282,8.089-31.012-2.023-37.38c-2.724-1.716-5.858-2.396-9.131-2.355
		c4.679-12.788,7.665-25.786,9.044-38.72c17.108-5.74,34.997-4.799,49.735,4.401C601.225,350.222,606.79,395.128,583.822,431.921z"
		/>
	<path fill-rule="evenodd" clip-rule="evenodd" fill="#C4C4AC" d="M583.822,434.441c-22.958,36.791-65.724,51.529-95.539,32.932
		c-11.258-7.026-19.026-17.832-23.123-30.52c0,0,22.035,17.863,56.575,19.67C562.226,458.642,583.822,434.441,583.822,434.441z"/>
	<path fill-rule="evenodd" clip-rule="evenodd" fill="#F9F8D6" d="M500.085,373.912c-32.164,71.971-112.131,106.233-178.617,76.517
		c-66.492-29.718-94.327-112.136-62.17-184.107C291.46,194.345,371.432,160.1,437.92,189.807
		C504.408,219.516,532.234,301.95,500.085,373.912z"/>
	<path fill-rule="evenodd" clip-rule="evenodd" fill="#C4C4AC" d="M500.053,373.912c-32.158,71.971-112.128,106.233-178.613,76.517
		c-46.868-20.944-74.528-68.07-75.513-119.268c0,0,15.771,84.415,109.097,96.267C427.266,436.598,500.053,373.912,500.053,373.912z"
		/>
	<path fill-rule="evenodd" clip-rule="evenodd" d="M226.971,245.718c0,0-74.187,118.701,14.555,187.952
		c0,0-64.924-21.435-64.017-84.082C178.268,297.536,226.971,245.718,226.971,245.718z"/>
	<path fill-rule="evenodd" clip-rule="evenodd" d="M274.783,151.742c0,0,65.595-85.731,179.528-52.756
		c0,0-74.351-39.025-113.582-21.435C292.919,98.987,292.924,127.012,274.783,151.742z"/>
	<path fill-rule="evenodd" clip-rule="evenodd" d="M384.788,326.873c-13.104,20.805-36.469,29.637-52.184,19.73
		c-15.717-9.902-17.834-34.786-4.725-55.595c13.104-20.796,36.468-29.629,52.189-19.731
		C395.78,281.182,397.901,306.066,384.788,326.873z"/>
	<path fill-rule="evenodd" clip-rule="evenodd" d="M583.822,431.921c-22.958,36.789-65.724,51.527-95.539,32.931
		c-11.258-7.028-19.026-17.834-23.123-30.52c6.867-5.808,13.299-12.281,19.217-19.359c1.25,2.011,2.812,3.755,4.826,5.029
		c10.105,6.365,25.588-0.044,34.589-14.316c8.991-14.282,8.089-31.012-2.023-37.38c-2.724-1.716-5.858-2.396-9.131-2.355
		c4.679-12.788,7.665-25.786,9.044-38.72c17.108-5.74,34.997-4.799,49.735,4.401C601.225,350.222,606.79,395.128,583.822,431.921
		L583.822,431.921z M321.465,449.464c66.489,29.715,146.46-4.547,178.623-76.515c32.15-71.964,4.313-154.394-62.164-184.107
		c-66.49-29.711-146.464,4.54-178.622,76.522C227.146,337.332,254.976,419.753,321.465,449.464L321.465,449.464z M575.065,325.786
		c-15.664-9.772-34.599-10.922-52.821-5.14c3.879-59.701-26.228-116.557-80.336-140.73c-71.047-31.755-156.493,4.851-190.854,81.751
		c-34.361,76.902-4.622,164.968,66.418,196.717c47.591,21.266,101.625,11.822,142.455-19.813
		c4.547,13.323,12.792,24.688,24.719,32.136c32.428,20.22,78.943,4.197,103.911-35.832
		C613.534,394.854,607.492,346.015,575.065,325.786z"/>
	<path fill-rule="evenodd" clip-rule="evenodd" d="M546.808,294.094c0,0,57.143-55.511,67.628,20.731
		c0,0,16.575-47.637-15.754-58.002C566.358,246.455,546.808,294.094,546.808,294.094z"/>
	<path fill-rule="evenodd" clip-rule="evenodd" d="M493.743,497.795c0,0,25.623,7.939,59.166-12.807c0,0-23.18,21.962-39.036,20.742
		c0,0,28.69,0.05,49.466-13.201C563.339,492.528,516.312,529.511,493.743,497.795z"/>
	<path fill-rule="evenodd" clip-rule="evenodd" fill="#FFFFFF" d="M360.023,214.206c-6.146-11.331-25.83-12.54-43.961-2.698
		c-18.13,9.839-27.842,27.002-21.69,38.33c6.147,11.329,25.829,12.535,43.961,2.696
		C356.464,242.691,366.174,225.531,360.023,214.206z"/>
	<path fill-rule="evenodd" clip-rule="evenodd" fill="#FFFFFF" d="M546.808,343.364c0,4.04-2.4,7.315-5.365,7.315
		c-2.955,0-5.358-3.275-5.358-7.315c0-4.04,2.403-7.312,5.358-7.312C544.408,336.051,546.808,339.324,546.808,343.364z"/>
</g>
</svg>
