<?xml version="1.0" encoding="utf-8"?>
<!-- Generator: Adobe Illustrator 17.0.0, SVG Export Plug-In . SVG Version: 6.00 Build 0)  -->
<!DOCTYPE svg PUBLIC "-//W3C//DTD SVG 1.1//EN" "http://www.w3.org/Graphics/SVG/1.1/DTD/svg11.dtd">
<svg version="1.1" id="Layer_1" xmlns="http://www.w3.org/2000/svg" xmlns:xlink="http://www.w3.org/1999/xlink" x="0px" y="0px"
	 width="800px" height="600px" viewBox="0 0 800 600" enable-background="new 0 0 800 600" xml:space="preserve">
<g>
	<path d="M582.785,283.473c2.274,6.737,5.115,15.683,8.942,22.213c5.996,10.219,10.455,26.26,9.484,41.774
		c-0.968,15.511-6.44,28.473-13.698,37.67c-11.277,14.278-24.258,22.036-38.268,38.49c-14.006,16.453-33.482,56.489-30.408,77.6
		c2.793,19.164,1.471,43.464-17.339,54.428c-2.41-6.459-8.307-23.55-16.965-33.143c-9.341-10.345-24.276-19.844-49.76-37.125
		c-37.213-30.129-59.865-54.38-68.358-74.224c-15.778-33.439-27.105-58.797-33.575-74.972c-5.253-12.553-8.816-22.221-12.194-35.859
		c-3.377-13.629-4.9-21.892-5.202-37.27c-0.306-15.376,2.952-26.707,14.795-37.054c11.846-10.343,24.6-19.033,39.002-26.155
		c-4.633-2.454-8.816-11.432-3.644-23.71c-26.293-22.415-51.366-50.153-56.221-56.402c-3.824,3.262-16.308,14.218-21.298,25.027
		c-4.992,10.814-7.614,21.26-7.33,25.354c19.868,5.764,25.652,15.366,25.229,24.582c-0.425,9.221-5.361,17.285-13.956,25.355
		c-10.443,9.795-20.291,14.534-35.802,15.108c-20.719,0.769-30.018-9.601-30.863-22.15c-0.845-12.552,1.672-19.487,5.915-28.681
		c5.499-11.908,16.617-16.821,28.753-16.821c1.127-13.526,4.998-30.301,10.114-54.754c5.11-24.455,11.172-44.813,23.152-54.801
		c9.41-7.844,28.658-11.112,53.303-9.141c24.639,1.97,43.946,9.398,69.595,22.202c25.649,12.805,38.81,22.63,40.024,28.512
		c13.419-0.574,28.115,1.909,40.414,13.704c10.629,10.192,14.588,18.018,21.478,32.595c6.883,14.583,11.324,30.413,8.894,41.895
		c17.801,3.673,34.804,14.396,46.467,34.575c6.692,11.576,7.399,19.097,8.181,31.752
		C582.428,266.703,580.51,276.736,582.785,283.473z"/>
	<path fill="#FFFFFF" d="M295.218,193.23c-0.375-10.313-11.753-15.68-28.987-16.969c-27.339-2.053-34.81,18.948-34.81,30.854
		c0,11.912,7.186,17.928,17.758,19.593c10.566,1.666,23.254-3.713,30.021-8.452C285.964,213.519,295.598,203.545,295.218,193.23z"/>
	<path fill="#FBF8E6" d="M455.404,197.64c-8.909-1.019-36.605-4.069-52.988-0.367c-16.386,3.703-37.411,11.704-55.013,24.991
		c-17.609,13.284-23.869,22.047-23.869,40.791c0,20.947,5.259,44.467,15.37,69.453c6.071,15.069,16.994,38.592,32.769,70.926
		c11.328,26.094,30.743,49.617,58.25,70.196c23.054,16.167,39.329,29.889,50.968,38.529c11.648,8.632,18.915,23.292,22.655,32.026
		c7.777-2.926,10.509-28.072,8.457-46.068c-2.047-18.007,7.117-34.955,10.596-44.7c7.854-22.036,18.064-35.655,35.148-48.509
		c26.689-20.085,35.916-39.332,36.812-63.578c0.492-13.326-3.629-24.486-10.464-36.59c-6.83-12.105-8.954-25.884-8.954-49.037
		c0-15.065-3.542-26.392-11.729-37.48c-8.187-11.085-17.887-19.374-31.549-24.623c-10.626-4.083-18.933-4.267-24.273-4.044
		c9.521,17.823,11.498,43.103-4.855,44.1C486.384,234.651,469.159,221.528,455.404,197.64z"/>
	<path fill="#FFB89A" d="M476.441,167.875c-2.886-2.366,0.216-6.464,4.726-6.591c3.254-0.093,6.341,1.026,9.434,3.653
		c4.183,3.563,12.011,14.59,15.655,21.572c2.023-0.367,5.217-0.641,8.211-0.259c-2.463-8.151-18.016-41.542-35.196-45.935
		c-17.129-4.384-40.809,10.854-53.389,27.928c-7.057,9.571-9.967,18.647-10.533,21.465c4.45-0.366,32.337,0.691,36.785,1.792
		c-0.803-2.204-3.15-7.06-0.986-11.78c2.817-6.146,15.927-6.402,18.013-0.085c-5.61,0.214-8.693,0.742-8.9,6.248
		c-0.372,10.1,30.494,45.015,44.093,38.953c13.602-6.061-5.927-48.452-15.151-57.92
		C485.958,163.588,479.761,164.229,476.441,167.875z"/>
	<path fill="#FFFFFF" d="M488.089,139.301c13.836,10.863,27.504,38.797,29.038,46.87c1.217,0,6.368,0.931,7.18,0.931
		c2.307-8.887-1.127-18.436-6.2-31.722c-5.074-13.286-15.673-31.29-28.99-40.289c-13.326-9.001-23.308-11.585-38.954-9.933
		c-38.268,4.034-77.66,57.02-81.322,77.419c-1.175,6.536,3.662,11.354,8.496,14.332c8.9-2.941,19.011-5.147,30.336-6.25
		C417.025,142.406,468.973,124.291,488.089,139.301z"/>
	<path fill="#D2000D" d="M291.985,67.551c-8.559,11.399-13.935,29.856-17.801,47.771c-3.866,17.916-7.531,29.315-10.516,52.184
		c4.04,0,8.088,0.736,11.325,1.101c2.185-21.576,14.759-42.018,29.934-55.487c-6.47-10.661-9.709-19.114-9.709-24.991
		c0.809-9.555,4.504-14.748,8.9-14.332c-1.945,3.744-3.15,6.838-2.829,13.232c0.321,6.392,3.06,13.83,10.516,24.623
		c13.764,19.923,49.64,51.978,55.703,58.228c16.884-42.69,55.592-70.643,79.805-70.355c-1.519-4.697-15.226-14.846-35.999-24.625
		c-20.77-9.777-39.095-17.715-63.758-19.383C322.89,53.856,300.537,56.15,291.985,67.551z"/>
	<path fill="#FFA382" d="M455.569,151.026c-18.693,5.533-28.454,21.746-33.575,38.647c-3.129-0.059-5.574-0.053-6.647,0.034
		c0.566-2.819,3.476-11.894,10.533-21.465c12.58-17.074,36.26-32.312,53.389-27.928c12.679,3.241,24.459,22.263,30.758,35.291
		C498.251,157.864,479.707,143.877,455.569,151.026z"/>
	<path fill="#FFA382" d="M506.255,186.508c-2.637-5.048-7.45-12.198-11.498-17.125c4.878,4.876,8.993,10.805,12.28,17.009
		C506.777,186.43,506.486,186.465,506.255,186.508z"/>
	<path fill="#FFA382" d="M467.058,179.751c-2.733,9.609,10.501,26.591,15.886,31.611c5.391,5.022,10.95,9.871,16.854,14.114
		c-14.915-1.326-39.874-30.506-39.539-39.594C460.438,181.105,462.788,180.076,467.058,179.751z"/>
	<path fill="#F5EDD9" d="M510.136,230.674c-1.678,6.137-6.332,10.938-15.265,10.566c-10.594-0.44-19.527-5.369-26.404-12.531
		c-9.119-9.502-14.956-20.779-21.109-31.919c3.335,0.322,6.14,0.632,8.046,0.849c13.755,23.888,30.98,37.011,47.33,36.016
		C505.842,233.465,508.278,232.399,510.136,230.674z"/>
	<path fill="#F5EDD9" d="M398.215,234.277c5.754-6.047,12.352-11.719,21.025-14.001c6.899-1.813,13.884-1.993,20.965-1.65
		c-2.985,5.788-10.986,8.536-15.682,12.992c-4.87,4.616-8.762,9.792-12.679,15.081c-9.677,13.067-21.274,23.773-38.667,26.609
		c4.006-5.775,9.353-10.707,12.52-16.973C389.425,248.958,392.272,240.512,398.215,234.277z"/>
	<path fill="#F5EDD9" d="M391.403,367.546c10.033,15.835,21.558,31.693,35.64,44.826c23.785,22.186,55.235,40.938,63.509,72.57
		c-10.054-10.21-23.692-16.477-37.138-22.647c-8.22-3.773-16.608-7.54-24.061-12.507c-9.182-6.124-16.143-14.017-22.568-22.5
		c-22.769-30.066-33.428-64.511-35.274-100.378c0.402,0.73,0.836,1.44,1.25,2.159C377.232,342.502,383.714,355.4,391.403,367.546z"
		/>
	<path fill="#F5EDD9" d="M412.692,351.922c14.136,9.781,30.123,17.131,44.21,27.002c8.094,5.664,15.925,12.309,20.597,20.704
		c4.471,8.018,5.825,16.581,5.163,25.298C465.614,395.881,433.018,378.569,412.692,351.922z"/>
	<path fill="#F5EDD9" d="M434.208,415.381c-14.96-13.296-27.42-28.912-38.007-45.285c-6.158-9.514-11.657-19.381-16.104-29.61
		c32.595,45.923,91.399,77.2,108.055,130.441C476.722,448.515,453.684,432.701,434.208,415.381z"/>
	<path fill="#F5EDD9" d="M531.901,216.871c6.035-6.029,15.433-5.875,22.134,1.319c4.408,4.727,6.461,10.835,6.886,16.96
		c0.701,9.97-1.148,20.036-4.801,29.446c-7.006-6.142-12.413-13.548-17.672-20.969c-2.61-3.68-5.391-7.284-7.881-11.034
		c-3.932-5.93-4.211-9.386,0.995-14.817C531.835,217.488,531.922,217.172,531.901,216.871z"/>
	<path fill="#F5EDD9" d="M495.958,292.755c2.418,7.834-2.481,18.301-6.086,24.877c-4.609,8.407-11.4,19.06-23.171,19.444
		c-28.49,0.938-38.205-29.838-35.433-50.856C447.831,300.256,477.316,305.836,495.958,292.755z"/>
	<path fill="#B60017" d="M299.497,75.737c-2.181,2.285-3.779,6.503-4.279,12.393c0,5.877,3.24,14.33,9.709,24.991
		c-5.61,4.979-10.86,10.915-15.367,17.502c-0.974-2.498-1.873-5.022-2.589-7.585C283.738,111.504,280.822,79.039,299.497,75.737z"/>
	<path fill="#B60017" d="M377.526,133.979c14.444-19.273,42.427-38.584,69.41-35.288c0.159,0.291,0.297,0.571,0.377,0.833
		c-24.213-0.288-62.922,27.666-79.805,70.355c-0.941-0.972-2.601-2.565-4.786-4.638
		C365.847,154.142,370.438,143.435,377.526,133.979z"/>
	<g>
		<path d="M431.008,159.904c-0.381-7.02,5.568-12.994,13.293-13.349c7.363-0.33,13.614,4.581,14.531,11.103
			c1.759-0.338,3.62,0.832,2.973,1.026c-3.545,1.071-7.585,2.926-11.954,6.373c-4.369,3.445-8.082,7.102-8.951,10.859
			c-0.36,1.569-2.005-2.275-0.497-4.684C434.565,169.917,431.322,165.645,431.008,159.904z"/>
		<path fill="#FFFFFF" d="M433.189,159.304c0.261,4.619,3.779,8.388,8.43,9.556c3.305-3.332,9.314-8.124,14.696-10.509
			c-0.264-4.847-4.753-8.914-9.742-9.87C443.555,150.154,436.708,154.033,433.189,159.304z"/>
	</g>
	<g>
		<path d="M434.385,159.695c0.195,3.406,3.386,6.038,7.144,5.862c3.749-0.168,6.644-3.069,6.452-6.478
			c-0.192-3.409-3.383-6.038-7.132-5.864C437.094,153.389,434.199,156.281,434.385,159.695z"/>
		<path fill="#FFFFFF" d="M436.414,157.382c0.054,1.07,1.058,1.889,2.239,1.837c1.187-0.049,2.092-0.965,2.032-2.033
			c-0.057-1.077-1.061-1.901-2.242-1.846C437.265,155.392,436.351,156.303,436.414,157.382z"/>
	</g>
	<g>
		<path d="M468.314,153.738c-2.308-1.749-3.267-4.248-3.431-7.216c-0.311-5.734,3.794-10.404,10.92-10.577
			c6.311-0.153,11.672,4.126,11.993,9.859c0.15,2.727-0.809,4.928-2.658,6.831c1.876,1.08,3.221,3.377,1.579,2.796
			c-5.226-1.839-14.049-2.245-18.541,1.363C466.86,157.854,467.031,154.652,468.314,153.738z"/>
		<path fill="#FFFFFF" d="M469.71,139.679c-1.954,1.659-3.116,4.053-2.973,6.664c0.138,2.585,1.675,4.946,3.755,6.42
			c5.211-1.864,10.039-1.336,12.643-0.715c1.615-1.617,3.245-5.608,1.918-9.113C481.562,139.758,474.76,138.133,469.71,139.679z"/>
	</g>
	<g>
		<path d="M467.199,145.726c0.15,2.772,2.748,4.904,5.796,4.762c3.045-0.136,5.4-2.492,5.238-5.259
			c-0.15-2.771-2.739-4.901-5.787-4.765C469.399,140.603,467.046,142.959,467.199,145.726z"/>
		<path fill="#FFFFFF" d="M468.841,143.847c0.045,0.866,0.869,1.537,1.822,1.497c0.956-0.046,1.702-0.785,1.648-1.657
			c-0.048-0.871-0.86-1.542-1.816-1.495C469.53,142.234,468.796,142.971,468.841,143.847z"/>
	</g>
	<path d="M422.248,141.153c1.115-9.795,6.895-16.591,15.259-19.221c7.935-2.498,11.486,7.688,4.984,10.166
		c-6.308,2.402-9.353,4.847-11.394,10.994C428.856,149.842,421.52,147.544,422.248,141.153z"/>
	<path d="M472.908,118.515c7.129-0.175,13.428,3.785,16.479,7.761c2.826,3.686,1.831,8.407-0.312,8.873
		c-1.648,0.36-2.838-0.538-4.369-2.313c-2.544-2.958-7.345-4.759-11.798-4.18C464.87,129.694,465.377,118.698,472.908,118.515z"/>
	<path fill="#DEDED7" d="M442.794,127.845c0.563-1.461,0.105-4.712-3.255-4.341c-3.356,0.37-8.789,3.176-11.801,7.483
		c-2.64,3.793-4.069,9.522-3.251,11.552c0.998,2.501,2.946,2.496,4.678-1.665c1.729-4.158,3.578-6.633,6.407-8.59
		C439.845,129.324,441.979,129.973,442.794,127.845z"/>
	<path fill="#DEDED7" d="M489.075,132.284c0.426-1.182,0.516-4.068-2.535-6.656c-3.051-2.587-8.954-5.917-13.326-5.358
		c-4.378,0.551-4.273,4.621-2.541,5.634c1.723,1.02,3.254-1.016,9.254,1.295C485.704,129.425,488.065,135.149,489.075,132.284z"/>
	<path fill="#FFD2BD" d="M500.624,191.841c-2.164-6.175-6.278-14.79-10-17.116c-3.722-2.326-2.095,11.829,1.861,21.765
		c3.955,9.927,11.501,22.577,12.328,15.423C505.275,207.897,503.882,201.135,500.624,191.841z"/>
	<path fill="#FFD2BD" d="M449.695,167.544c-3.015,1.537-8.795,8.372-7.914,13.31C442.198,183.157,459.228,162.684,449.695,167.544z"
		/>
	<path fill="#FF725D" d="M414.448,82.091c-6.596-3.445-37.078-20.011-63.009-22.796c-25.927-2.787,14.498,13.172,29.556,18.237
		C396.045,82.599,436.752,93.742,414.448,82.091z"/>
	<path fill="#FF725D" d="M317.148,58.79c-7.573,0.171-17.843,4.808-21.465,10.129C292.056,74.241,339.728,58.287,317.148,58.79z"/>
	<path fill="#B60017" d="M309.506,91.612c2.221,14.13,28.331,39.36,37.774,48.445c9.446,9.086-0.093-18.746-10-31.792
		C326.174,93.628,307.04,75.925,309.506,91.612z"/>
	<path fill="#E6E6E1" d="M259.512,198.598c-10.177,2.738-27.219,13.62-16.665,19.681c10.557,6.056,28.328,2.014,38.882-10.094
		C292.287,196.077,274.511,194.56,259.512,198.598z"/>
	<path d="M429.323,285.806c-3.078,9.62,16.746,23.789,33.773,23.184c23.626-0.839,37.294-12.321,35.187-16.534
		c-6.434,3.592-18.397,8.557-31.72,7.941C453.24,299.772,440.253,295.425,429.323,285.806z"/>
	<path d="M385.428,259.378c-5.304,11.528-11.328,13.599-11.328,13.599c4.046-8.822,4.873-12.973,7.39-20.075
		c6.488-18.311,18.492-30.819,34.165-35.072c15.673-4.258,26.308-1.864,27.213,2.594c-11.738,1.475-21.849,4.411-29.94,8.822
		c26.985,22.417,73.794,30.799,100.728,20.213c12.964-5.098,23.629-14.868,29.931-21.32c-4.043-3.304-7.681-5.508-10.519-6.978
		c7.636-17.61,23.695,10.016,23.869,18.374c-4.043-4.044-7.687-6.982-10.92-9.925c-1.621,2.573-17.8,22.053-27.102,30.505
		c-18.613,16.167-37.216,24.257-55.82,24.257c-10.12,0-23.063-7.355-38.433-21.686c-8.496-8.084-15.523-18.052-21.307-26.543
		C396.522,240.488,388.775,252.099,385.428,259.378z"/>
	<path fill="#FFFFFF" d="M409.698,231.083c12.11,23.683,51.4,36.72,82.113,36.011c7.555-3.636,12.946-11.392,12.946-11.392
		c-14.615,4.961-45.026,2.17-66.209-7.456C426.279,242.673,413.336,235.124,409.698,231.083L409.698,231.083z"/>
	<path fill="#FFFFFF" d="M455.812,276.652c5.631-1.089,12.703-3.404,15.535-4.506c-11.729-1.101-34.927-10.061-45.442-15.21
		C434.79,266.251,445.38,273.394,455.812,276.652z"/>
</g>
</svg>
