<?xml version="1.0" encoding="utf-8"?>
<!-- Generator: Adobe Illustrator 17.0.0, SVG Export Plug-In . SVG Version: 6.00 Build 0)  -->
<!DOCTYPE svg PUBLIC "-//W3C//DTD SVG 1.1//EN" "http://www.w3.org/Graphics/SVG/1.1/DTD/svg11.dtd">
<svg version="1.1" id="Layer_1" xmlns="http://www.w3.org/2000/svg" xmlns:xlink="http://www.w3.org/1999/xlink" x="0px" y="0px"
	 width="800px" height="600px" viewBox="0 0 800 600" enable-background="new 0 0 800 600" xml:space="preserve">
<g>
	<g>
		<g>
			<path fill="#0F0F0F" d="M312.173,181.803c25.542,0.51,50.525,6.579,75.95,8.425c24.457,1.776,49.702,2.062,74.011-1.46
				c-0.273-0.421-0.547-0.843-0.82-1.264c-8.602,4.029-9.603,16.376-11.292,24.527c-1.306,6.306-2.349,12.29-2.397,18.774
				c-0.026,3.545,0.136,7.091,0.303,10.631c0.146,3.096,0.881,6.079,1.135,9.161c0.508,6.141-6.611,9.011-11.041,11.665
				c-5.525,3.31-10.328,7.912-14.817,12.486c-5.164,5.261-9.874,10.953-14.555,16.641c-4.433,5.386-8.535,10.775-11.826,16.949
				c-7.478,14.025-11.321,29.826-17.12,44.568c-3.449,8.767-7.153,17.503-10.152,26.437c-2.823,8.41-2.952,17.463-6.104,25.787
				c0.728-0.125,1.456-0.25,2.183-0.375c-6.797-3.718-14.578-5.669-22.232-6.574c-7.185-0.849-15.132-0.765-21.682,2.668
				c0.605,0.393,1.21,0.787,1.816,1.18c7.97-4.717,6.326-17.488,6.102-25.25c-0.422-14.644,3.175-28.992,7.548-42.849
				c4.315-13.673,9.682-27.004,16.644-39.553c7.188-12.957,16.064-24.131,27.221-33.877c4.259-3.72,9.865-6.934,12.836-11.871
				c1.966-3.266,1.716-7.545,1.76-11.209c0.028-2.345,0.661-6.098-1.87-7.337c-2.854-1.397-6.623-1.004-9.676-0.783
				c-8.645,0.626-17.086,2.842-25.738,3.308c-7.798,0.42-15.613,0.148-23.405,0.733c-6.575,0.493-13.642,1.298-19.574,4.359
				c-0.741,0.382-0.294,1.148,0.274,1.382c0.7,0.289,1.227,0.331,1.951,0.101c0.28-0.089,0.722-0.408,0.671-0.76
				c-0.006-0.042-0.012-0.085-0.019-0.127c-0.074-0.502-0.516-0.773-0.994-0.849c-0.672-0.106-1.124-0.019-1.743,0.26
				c-1.051,0.474-0.651,1.391,0.323,1.609c5.991,1.338,12.109,0.729,18.188,0.692c1.663-0.01,1.666-1.769,0-1.761
				c-6.79,0.029-13.623,0.683-20.377-0.287c0.332,0.283,0.664,0.567,0.996,0.85c-1.277-6.974-3.717-13.677-4.689-20.714
				c-0.725-5.248,0.171-9.562,1.85-14.462c1.606-4.687,3.397-9.316,4.704-14.1c0.7-2.561,2.157-7.027,0.023-9.291
				c0,0.297,0,0.595,0,0.892c0.715-0.771,1.568-1.586,1.856-2.633c0.253-0.92,0.216-1.865,0.507-2.799
				c0.361-1.161-1.962-1.339-2.373-0.425c-0.302,0.672-0.421,1.151-1.001,1.679c-0.207,0.189-0.205,0.562,0,0.752
				c0.786,0.726,0.716,1.079,0.693,1.961c-0.024,0.92,2.07,0.929,2.094,0c0.031-1.219,0.063-1.798-0.809-2.712
				c-0.06,0.301-0.119,0.602-0.179,0.902c0.795-0.639,1.097-1.268,1.575-2.157c-0.791-0.142-1.582-0.283-2.373-0.425
				c-0.793,2.013-0.778,3.283-2.337,4.965c-0.239,0.257-0.242,0.635,0,0.892c2.035,2.158-0.204,7.709-0.893,10.014
				c-1.364,4.562-3.104,9.003-4.614,13.517c-1.518,4.537-2.013,8.614-1.438,13.431c0.843,7.051,3.416,13.751,4.691,20.714
				c0.091,0.497,0.503,0.779,0.996,0.85c7.004,1.005,14.057,0.379,21.098,0.348c0-0.587,0-1.174,0-1.761
				c-5.835,0.036-11.717,0.656-17.468-0.628c0.108,0.536,0.216,1.072,0.323,1.609c-0.115-0.027-0.229-0.055-0.344-0.082
				c-0.331-0.283-0.663-0.566-0.994-0.849c0.006,0.042,0.012,0.085,0.019,0.127c0.224-0.253,0.447-0.507,0.671-0.76
				c0.261-0.034,0.521-0.068,0.782-0.101c0.091,0.461,0.183,0.921,0.274,1.382c6.926-3.575,15.878-3.882,23.502-4.167
				c7.453-0.279,14.953,0.022,22.382-0.757c8.485-0.89,16.819-3.261,25.409-3.116c1.146,0.019,2.979-0.018,3.919,0.787
				c0.802,0.687,0.432,3.712,0.441,4.65c0.038,4.315,0.27,9.022-2.246,12.735c-1.636,2.415-4.218,4.115-6.464,5.905
				c-2.772,2.21-5.455,4.543-8.089,6.915c-5.249,4.728-10.102,9.874-14.374,15.504c-14.531,19.151-23.418,42.354-29.924,65.286
				c-3.174,11.187-5.139,22.948-4.779,34.599c0.217,7.032,1.881,19.297-5.353,23.564c-1.365,0.805,0.936,1.64,1.816,1.18
				c6.18-3.229,13.904-2.911,20.614-2.041c6.733,0.873,13.654,2.692,19.637,5.968c0.591,0.323,1.876,0.436,2.183-0.375
				c2.708-7.137,3.305-14.79,5.086-22.166c1.886-7.813,5.413-15.375,8.336-22.845c2.734-6.986,5.54-13.939,7.989-21.033
				c2.245-6.505,4.347-13.058,6.845-19.473c2.583-6.632,5.681-13.071,9.667-18.98c4.048-6,9.01-11.52,13.706-17.018
				c4.773-5.588,9.818-10.944,15.369-15.769c4.536-3.942,9.891-6.471,14.598-10.142c1.571-1.225,3.258-2.813,3.588-4.877
				c0.516-3.226-0.505-6.406-0.889-9.591c-0.92-7.625-0.79-15.916,0.23-23.516c0.765-5.698,2.254-11.613,3.605-17.206
				c1.231-5.097,3.116-11.836,8.292-14.267c1.176-0.552,0.035-1.389-0.82-1.264c-24.143,3.523-49.149,3.111-73.445,1.504
				c-25.423-1.682-50.391-8.066-75.95-8.008C311.346,180.931,311.35,181.786,312.173,181.803L312.173,181.803z"/>
		</g>
	</g>
	<g>
		<g>
			<path fill="#0F0F0F" d="M317.192,179.486c-0.361,0.077-0.735,0.137-1.082,0.269c-0.133,0.05-0.225,0.226-0.062,0.312
				c0.853,0.449,2.594-0.131,3.512-0.147c-0.034-0.163-0.068-0.327-0.102-0.49c-6.205,0.798-11.319,5.974-15.171,10.485
				c-4.354,5.1-8.758,11.755-9.996,18.459c-0.904,4.899-0.493,10.196-0.226,15.14c0.265,4.9,0.746,9.786,1.064,14.683
				c0.446,6.877,0.394,15.516,4.303,21.494c0.408,0.623,1.632,0.449,2.079,0c3.258-3.267,6.411-6.634,9.515-10.046
				c1.462-1.607,2.906-3.23,4.341-4.861c1.285-1.461,2.803-2.845,3.548-4.665c0.287-0.702-1.023-0.778-1.384-0.524
				c-3.326,2.339-5.876,6.244-8.598,9.255c-3.092,3.42-6.249,6.783-9.501,10.051c0.693,0,1.386,0,2.079,0
				c-1.807-2.757-2.395-6.292-2.901-9.481c-0.589-3.712-0.848-7.476-1.099-11.223c-0.627-9.375-1.697-18.733-1.201-28.142
				c0.329-6.25,4.423-12.579,7.982-17.466c3.639-4.997,8.901-11.55,15.37-12.677c0.427-0.074,0.282-0.512-0.102-0.49
				c-0.538,0.03-1.073,0.095-1.608,0.16c-0.294,0.037-0.588,0.072-0.882,0.105c-1.277,0.148-0.09,0.25,0.276,0.163
				C317.718,179.76,317.495,179.421,317.192,179.486L317.192,179.486z"/>
		</g>
	</g>
	<g>
		<g>
			<path fill="#0F0F0F" d="M301.131,259.932c7.889,0.567,15.8-2.102,23.59-2.953c10.947-1.197,22.285-2.076,33.296-1.709
				c-0.371-0.317-0.743-0.634-1.114-0.951c-3.444,5.926-8.934,10.314-12.544,16.12c-3.894,6.264-5.696,13.433-8.255,20.281
				c-5.383,14.402-12.284,28.069-16.184,43.018c-7.692,29.482-16.994,59.604-14.804,90.425c0.041,0.581,0.734,0.791,1.221,0.794
				c5.44,0.032,10.51-1.782,15.559-3.617c2.879-1.047,5.767-2.027,8.776-2.633c3.16-0.636,6.381-0.422,9.581-0.377
				c4.285,0.061,8.327-0.947,12.009-3.196c1.898-1.159,3.613-2.645,5.324-4.057c0.849-0.701,1.694-1.406,2.556-2.09
				c0.322-0.255,0.653-0.498,0.988-0.735c0.771-0.546,0.477,0.051-0.479-0.433c0.801,0.406,2.764-0.427,1.58-1.027
				c-2.361-1.196-5.636,2.782-7.178,4.051c-4.031,3.315-8.254,5.888-13.624,5.986c-2.643,0.049-5.281-0.173-7.923-0.04
				c-2.846,0.143-5.627,0.847-8.345,1.662c-6.233,1.869-12.173,4.958-18.822,4.917c0.407,0.265,0.814,0.529,1.221,0.794
				c-2.191-30.997,7.243-61.267,14.989-90.911c3.811-14.585,10.503-28.093,15.861-42.119c2.676-7.006,4.347-14.434,8.523-20.775
				c3.648-5.541,8.856-9.869,12.201-15.639c0.362-0.625-0.731-0.938-1.114-0.951c-10.729-0.349-21.433,0.906-32.118,1.693
				c-8.275,0.609-16.454,3.827-24.768,3.629C300.322,259.07,300.35,259.876,301.131,259.932L301.131,259.932z"/>
		</g>
	</g>
	<g>
		<g>
			<path fill="#0F0F0F" d="M323.795,402.957c-3.159,3.383-5.606,7.603-7.863,11.615c-1.164,2.07-2.263,4.193-3.126,6.408
				c-0.431,1.105-0.972,2.425-0.106,3.437c0.136,0.159,0.729,0.186,0.699-0.123c-0.11-1.128,0.7-2.807,1.103-3.857
				c0.813-2.12,1.872-4.152,2.94-6.151c2.029-3.798,4.175-7.765,6.894-11.124C324.551,402.894,323.961,402.778,323.795,402.957
				L323.795,402.957z"/>
		</g>
	</g>
	<g>
		<g>
			<path fill="#0F0F0F" d="M335.619,399.443c-4.122,2.096-7.135,5.778-9.784,9.468c-1.229,1.712-2.343,3.506-3.417,5.317
				c-0.797,1.343-2.441,3.343-2.329,4.97c0.028,0.413,0.727,0.472,0.987,0.266c1.061-0.841,1.54-2.148,2.171-3.318
				c1.124-2.084,2.342-4.115,3.632-6.1c2.496-3.841,5.501-7.692,9.415-10.165C336.801,399.559,335.937,399.281,335.619,399.443
				L335.619,399.443z"/>
		</g>
	</g>
	<g>
		<g>
			<path fill="#0F0F0F" d="M340.573,400.329c-1.612,2.223-16.442,15.152-11.633,17.416c0.224,0.105,0.871-0.056,0.599-0.389
				c-1.597-1.954,3.921-7.262,5.009-8.505c2.358-2.693,5.112-5.206,7.039-8.244C341.846,400.198,340.803,400.013,340.573,400.329
				L340.573,400.329z"/>
		</g>
	</g>
	<g>
		<g>
			<path fill="#0F0F0F" d="M347.45,402.059c-3.86,5.344-11.063,8.606-12.415,15.545c-0.031,0.16,0.141,0.306,0.246,0.387
				c1.191,0.909,1.301-0.131,2.374-0.222c0.406-0.034,0.574-0.403,0.11-0.529c-0.475-0.129-0.588-0.148-1.05-0.029
				c-0.096,0.016-0.185,0.05-0.267,0.101c0.59-0.387,0.581-0.771,0.827-1.45c0.709-1.954,2.056-3.6,3.448-5.107
				c2.582-2.794,5.698-5.082,7.569-8.466C348.493,401.925,347.634,401.803,347.45,402.059L347.45,402.059z"/>
		</g>
	</g>
	<g>
		<g>
			<path fill="#0F0F0F" d="M355.822,403.711c-2.316,2.121-4.426,4.465-6.409,6.897c-1.447,1.775-3.872,4.521-4.03,6.89
				c-0.043,0.64,1.138,0.57,1.427,0.251c0.731-0.808,1.129-1.751,1.667-2.697c0.893-1.572,1.993-3.027,3.076-4.47
				c1.676-2.234,3.569-4.295,5.309-6.477C357.29,403.568,356.146,403.414,355.822,403.711L355.822,403.711z"/>
		</g>
	</g>
	<g>
		<g>
			<path fill="#0F0F0F" d="M309.977,188.922c-2.489,3.994-5.779,7.105-9.061,10.434c-2.489,2.525-6.307,6.229-6.434,10.04
				c-0.021,0.628,1.156,0.543,1.381,0.122c1.001-1.878,1.692-3.73,2.959-5.484c1.335-1.847,2.957-3.488,4.546-5.113
				c2.793-2.856,6.321-5.91,7.603-9.821C311.138,188.591,310.183,188.59,309.977,188.922L309.977,188.922z"/>
		</g>
	</g>
	<g>
		<g>
			<path fill="#0F0F0F" d="M306.587,202.513c-0.811,3.271-3.005,5.482-5.32,7.802c-1.834,1.839-5.044,4.721-4.938,7.575
				c0.016,0.425,0.83,0.477,1.034,0.182c0.97-1.401,1.551-2.982,2.61-4.358c1.049-1.363,2.274-2.599,3.442-3.858
				c1.887-2.033,3.936-4.367,4.169-7.255C307.617,202.191,306.677,202.149,306.587,202.513L306.587,202.513z"/>
		</g>
	</g>
	<g>
		<g>
			<path fill="#0F0F0F" d="M308.269,211.752c-2.851,3.644-6.353,6.643-9.413,10.1c-0.498,0.563-4.526,4.646-3.103,5.565
				c0.202,0.131,0.537,0.103,0.666-0.114c3.375-5.677,9.226-9.66,12.863-15.166C309.636,211.599,308.559,211.382,308.269,211.752
				L308.269,211.752z"/>
		</g>
	</g>
	<g>
		<g>
			<path fill="#0F0F0F" d="M309.183,223.549c-2.691,2.23-4.814,4.943-6.81,7.794c-1.768,2.525-4.051,5.344-5.195,8.194
				c-0.241,0.601,0.857,0.636,1.162,0.44c0.648-0.325,1.328-0.532,2.039-0.621c0.415-0.073,0.263-0.469-0.098-0.469
				c-1.006,0-1.823,0.093-2.784,0.38c0.317,0.206,0.634,0.412,0.951,0.618c2.07-2.014,3.411-5.063,4.931-7.497
				c1.916-3.068,4.104-5.91,6.785-8.347C310.624,223.623,309.518,223.271,309.183,223.549L309.183,223.549z"/>
		</g>
	</g>
	<g>
		<g>
			<path fill="#0F0F0F" d="M309.841,232.217c-1.555,3.339-3.661,6.312-5.867,9.246c-1.8,2.394-4.181,4.746-5.526,7.434
				c-0.398,0.795,1.236,0.774,1.601,0.439c0.38-0.349,0.638-1.27,0.731-1.773c-0.31,0-0.619,0-0.929,0
				c-0.003,0.019-0.005,0.038-0.008,0.057c-0.044,0.321,0.586,0.332,0.747,0.201c0.018-0.015,0.036-0.029,0.054-0.044
				c0.441-0.36-0.349-0.659-0.657-0.427c-0.542,0.408-0.944,0.961-1.451,1.411c0.534,0.146,1.068,0.293,1.601,0.439
				c1.474-2.81,3.898-5.338,5.761-7.904c2.015-2.775,3.845-5.7,5.208-8.852C311.357,231.865,310.071,231.724,309.841,232.217
				L309.841,232.217z"/>
		</g>
	</g>
	<g>
		<g>
			<path fill="#0F0F0F" d="M314.013,238.856c-2.215,1.914-4.124,4.11-5.76,6.535c-1.17,1.734-3.056,4.404-2.606,6.579
				c0.084,0.405,0.902,0.341,1.1,0.093c1.388-1.734,1.937-4.285,3.115-6.232c1.477-2.442,3.417-4.579,5.568-6.437
				C316.071,238.84,314.506,238.43,314.013,238.856L314.013,238.856z"/>
		</g>
	</g>
	<g>
		<g>
			<path fill="#0F0F0F" d="M334.634,235.548c-3.155,2.999-5.835,6.494-8.712,9.753c-1.487,1.684-3.015,3.333-4.597,4.927
				c-1.668,1.68-3.846,3.009-5.311,4.84c-0.431,0.538,0.486,0.804,0.871,0.737c0.731-0.128,1.457-0.201,2.195-0.277
				c0.385-0.04,0.386-0.491,0-0.529c-0.8-0.078-1.598-0.132-2.401-0.18c0.13,0.312,0.26,0.623,0.389,0.935
				c3.671-1.669,6.775-5.582,9.37-8.565c3.165-3.639,6.258-7.415,9.14-11.282C335.953,235.406,334.928,235.269,334.634,235.548
				L334.634,235.548z"/>
		</g>
	</g>
	<g>
		<g>
			<path fill="#0F0F0F" d="M349.376,236.176c-4.861,1.18-9.329,4.264-13.133,7.397c-1.981,1.631-3.809,3.437-5.429,5.426
				c-0.908,1.114-3.135,3.663-2.573,5.175c0.228,0.613,1.312,0.53,1.685,0.143c0.374-0.389,0.299-1.051,0.536-1.52
				c0.199-0.392-0.594-0.42-0.783-0.296c-0.363,0.237-1.535,0.963-0.549,0.915c0.307,0.2,0.615,0.4,0.922,0.599
				c0.17-1.885,2.159-3.979,3.304-5.35c1.581-1.891,3.434-3.563,5.34-5.115c3.363-2.739,7.093-5.111,11.174-6.612
				C350.586,236.673,349.893,236.05,349.376,236.176L349.376,236.176z"/>
		</g>
	</g>
	<g>
		<g>
			<path fill="#0F0F0F" d="M361.857,233.749c-4.685,3.339-9.174,6.988-13.653,10.597c-0.628,0.506-9.003,6.89-7.483,7.736
				c0.187,0.104,0.708,0.167,0.783-0.134c0.102-0.409,2.652-2.084,3.14-2.507c2.186-1.897,4.427-3.731,6.668-5.563
				c3.849-3.148,7.96-6.151,11.502-9.649C363.268,233.78,362.174,233.523,361.857,233.749L361.857,233.749z"/>
		</g>
	</g>
	<g>
		<g>
			<path fill="#0F0F0F" d="M369.495,235.444c-3.721,2.77-7.285,5.741-10.877,8.675c-1.87,1.528-3.752,3.044-5.675,4.505
				c-0.735,0.558-2.334,1.911-2.781,2.133c-0.153,0.076-0.326,0.239-0.165,0.41c1.557,1.661,7.178-4.008,8.129-4.792
				c4.119-3.396,8.021-7.099,12.241-10.364C370.965,235.55,369.907,235.138,369.495,235.444L369.495,235.444z"/>
		</g>
	</g>
	<g>
		<g>
			<path fill="#0F0F0F" d="M383.679,232.206c-0.832,2.785-3.289,4.887-5.477,6.637c-2.973,2.377-6.254,4.387-9.498,6.366
				c-3.361,2.051-6.774,4.015-10.115,6.099c-2.467,1.539-5.164,3.144-7.147,5.306c-0.659,0.719,0.848,0.964,1.272,0.827
				c2.026-0.657,3.921-1.569,5.648-2.818c0.424-0.307-0.256-0.596-0.549-0.463c-1.919,0.873-3.733,1.742-5.815,2.176
				c0.35,0.296,0.7,0.592,1.05,0.888c5.65-4.805,12.35-8.233,18.616-12.148c3.033-1.895,5.994-3.901,8.72-6.221
				c1.982-1.687,4.096-3.769,4.682-6.401C385.217,231.771,383.85,231.634,383.679,232.206L383.679,232.206z"/>
		</g>
	</g>
	<g>
		<g>
			<path fill="#0F0F0F" d="M389.951,236.169c-7.108,3.508-13.659,8.084-19.988,12.825c-6.775,5.074-13.542,10.224-20.192,15.458
				c-0.811,0.638,0.319,1.29,0.991,1.107c1.775-0.484,3.446-1.519,5.007-2.471c0.387-0.236-0.226-0.503-0.473-0.399
				c-1.485,0.626-3.17,1.508-4.804,1.569c0.24,0.377,0.48,0.754,0.72,1.131c6.809-4.478,13.036-9.941,19.479-14.921
				c6.426-4.967,13.008-9.654,20.141-13.557C391.543,236.522,390.43,235.933,389.951,236.169L389.951,236.169z"/>
		</g>
	</g>
	<g>
		<g>
			<path fill="#0F0F0F" d="M377.886,249.113c-5.192,4.983-11.469,8.63-17.364,12.692c-5.091,3.508-11.62,7.872-14.232,13.718
				c-0.282,0.631,1.044,0.752,1.342,0.368c1.971-2.542,3.814-4.995,6.184-7.199c2.796-2.6,5.946-4.816,9.08-6.983
				c5.523-3.818,11.277-7.438,16.069-12.186C379.438,249.055,378.243,248.77,377.886,249.113L377.886,249.113z"/>
		</g>
	</g>
	<g>
		<g>
			<path fill="#0F0F0F" d="M371.239,261.061c-6.124,7.002-13.925,11.926-21.233,17.562c-3.45,2.661-6.724,5.553-9.561,8.868
				c-0.51,0.596-2.768,2.564-1.753,3.537c0.818,0.785,1.297,0.162,2.213,0.258c0.433,0.045,1.055-0.368,0.427-0.659
				c-0.278-0.129-0.419-0.206-0.704-0.231c-0.77-0.067,0.612-1.297,0.938-1.708c1.253-1.582,2.647-3.047,4.086-4.459
				c3.012-2.954,6.399-5.509,9.773-8.03c5.918-4.421,12.2-8.796,16.597-14.842C372.317,260.952,371.474,260.793,371.239,261.061
				L371.239,261.061z"/>
		</g>
	</g>
	<g>
		<g>
			<path fill="#0F0F0F" d="M354.939,278.837c-5.039,6.21-11.154,11.666-16.681,17.435c-0.991,1.034-12.509,12.279-10.267,13.561
				c0.233,0.133,0.857,0.119,0.757-0.287c-0.043-0.176,1.003-1.345,1.128-1.524c0.819-1.172,1.769-2.258,2.704-3.337
				c2.674-3.084,5.47-6.063,8.273-9.03c5.082-5.38,10.635-10.552,15.192-16.399C356.474,278.707,355.264,278.436,354.939,278.837
				L354.939,278.837z"/>
		</g>
	</g>
	<g>
		<g>
			<path fill="#0F0F0F" d="M345.584,298.482c-2.034,5.376-7.471,9.385-11.453,13.298c-1.637,1.608-8.952,7.938-6.198,10.73
				c0.186,0.188,0.678,0.218,0.8-0.068c0.821-1.934,1.257-3.561,2.601-5.291c1.802-2.32,3.969-4.373,6.046-6.441
				c3.242-3.227,8.455-7.355,9.354-12.127C346.824,298.112,345.732,298.089,345.584,298.482L345.584,298.482z"/>
		</g>
	</g>
	<g>
		<g>
			<path fill="#0F0F0F" d="M341.587,313.668c-4.059,3.164-7.585,7.274-10.91,11.175c-1.714,2.011-3.324,4.124-4.829,6.296
				c-0.887,1.279-2.501,3.165-2.205,4.819c0.062,0.347,0.576,0.33,0.786,0.138c1.262-1.154,2-2.967,2.932-4.382
				c1.449-2.201,3.078-4.284,4.733-6.332c3.217-3.983,6.709-7.627,10.192-11.362C342.603,313.679,341.818,313.488,341.587,313.668
				L341.587,313.668z"/>
		</g>
	</g>
	<g>
		<g>
			<path fill="#0F0F0F" d="M336.38,329.734c-8.605,7.226-12.481,18.453-21.334,25.436c-0.177,0.14-0.276,0.281-0.208,0.512
				c0.175,0.599,0.16,0.632,0.581,0.975c0.27,0.219,0.746,0.164,1.023,0c0.433-0.256,0.731-0.717,1.11-1.057
				c0.22-0.198-0.231-0.349-0.371-0.313c-1.162,0.295-0.323,0.147,0.321-0.407c1.127-0.97,2.179-1.997,3.187-3.089
				c2.004-2.172,3.692-4.618,5.33-7.07c3.423-5.125,6.605-10.427,11.305-14.513C337.769,329.822,336.707,329.46,336.38,329.734
				L336.38,329.734z"/>
		</g>
	</g>
	<g>
		<g>
			<path fill="#0F0F0F" d="M327.785,351.046c-3.073,3.392-5.609,7.182-8.086,11.019c-2.609,4.042-5.65,7.904-8.129,12.007
				c-0.315,0.521,0.88,0.565,1.142,0.313c3.044-2.928,5.213-7.05,7.437-10.615c2.666-4.274,5.344-8.539,8.688-12.324
				C329.272,350.954,328.114,350.683,327.785,351.046L327.785,351.046z"/>
		</g>
	</g>
	<g>
		<g>
			<path fill="#0F0F0F" d="M325.221,364.739c-2.67,5.431-5.932,10.599-9.502,15.479c-3.528,4.824-7.512,8.843-11.826,12.928
				c-0.601,0.569,0.943,1.058,1.412,0.537c0.709-0.789,1.396-1.578,2.062-2.406c0.219-0.273-0.353-0.409-0.528-0.265
				c-0.837,0.693-1.647,1.492-2.653,1.943c0.33,0.278,0.661,0.557,0.991,0.835c4.842-3.115,8.692-8.405,11.977-13.027
				c3.535-4.974,6.651-10.262,9.152-15.83C326.527,364.441,325.425,364.323,325.221,364.739L325.221,364.739z"/>
		</g>
	</g>
	<g>
		<g>
			<path fill="#0F0F0F" d="M319.244,381.606c-1.983,3.02-4.103,5.948-5.971,9.043c-0.996,1.651-1.859,3.371-2.593,5.153
				c-0.518,1.257-0.669,4.029-1.686,4.936c0.307-0.081,0.614-0.162,0.921-0.244c-0.029-0.004-0.058-0.009-0.086-0.013
				c0.199,0.17,0.398,0.339,0.596,0.509c-0.087-0.667,0.121-1.246-0.575-1.58c-0.184-0.088-0.81-0.003-0.654,0.327
				c0.122,0.259-0.342,0.939-0.396,1.253c-0.05,0.296,0.387,0.468,0.596,0.509c0.744,0.147,1.146-0.313,1.605-0.828
				c0.333-0.374,0.429-2.055,0.501-2.359c0.302-1.284,0.815-2.516,1.337-3.722c1.957-4.517,5.005-8.511,7.619-12.653
				C320.762,381.457,319.508,381.204,319.244,381.606L319.244,381.606z"/>
		</g>
	</g>
	<g>
		<g>
			<path fill="#0F0F0F" d="M325.149,387.537c-3.122,3.427-6.198,6.89-9.015,10.575c-2.478,3.242-5.647,7.309-6.525,11.365
				c-0.167,0.772,1.24,0.853,1.526,0.273c0.499-1.01,1.412-1.563,2.184-2.332c0.266-0.265-0.368-0.375-0.54-0.271
				c-1.105,0.67-2.24,1.213-3.09,2.206c0.482,0.132,0.964,0.264,1.446,0.396c2.25-4.05,4.15-8.015,6.943-11.777
				c2.578-3.473,5.437-6.732,8.299-9.971C326.885,387.429,325.533,387.115,325.149,387.537L325.149,387.537z"/>
		</g>
	</g>
	<g>
		<g>
			<path fill="#0F0F0F" d="M324.233,395.156c-2.294,2.529-4.216,5.371-6.17,8.163c-0.88,1.258-1.766,2.512-2.687,3.74
				c-0.644,0.859-1.653,1.692-2.047,2.698c-0.167,0.426,0.575,0.527,0.826,0.413c2.125-0.967,3.59-3.925,4.875-5.754
				c2.093-2.979,4.115-6.038,6.565-8.743C326.162,395.048,324.661,394.683,324.233,395.156L324.233,395.156z"/>
		</g>
	</g>
</g>
</svg>
