<?xml version="1.0" encoding="utf-8"?>
<!-- Generator: Adobe Illustrator 17.0.0, SVG Export Plug-In . SVG Version: 6.00 Build 0)  -->
<!DOCTYPE svg PUBLIC "-//W3C//DTD SVG 1.1//EN" "http://www.w3.org/Graphics/SVG/1.1/DTD/svg11.dtd">
<svg version="1.1" id="Layer_1" xmlns="http://www.w3.org/2000/svg" xmlns:xlink="http://www.w3.org/1999/xlink" x="0px" y="0px"
	 width="800px" height="600px" viewBox="0 0 800 600" enable-background="new 0 0 800 600" xml:space="preserve">
<path fill="#020202" d="M463.65,147.008c13.689,1.28,26.214,7.695,37.546,15.1c15.449,9.979,29.763,23.435,35.786,41.285
	c-11.521-1.629-17.558-12.598-27.087-17.878c-9.019-5.281-19.362-7.55-29.429-9.95c-10.11-2.124-20.221,1.367-30.345,1.469
	C450.718,165.57,458.064,156.463,463.65,147.008 M272.181,172.931c10.299-10.008,21.966-18.955,35.451-24.192
	c4.16,7.361,7.594,15.42,7.274,24.047c-17.849,9.426-38.696,14.372-53.243,29.152c-8.772,9.252-14.096,22.606-26.694,27.538
	c5.237-13.485,11.711-26.607,20.293-38.317C260.136,184.423,266.289,178.764,272.181,172.931 M298.904,204.018
	c18.068-7.506,39.204-6.692,56.647,2.197c22.01,10.736,37.284,31.349,47.089,53.257c3.128-3.36,4.437-7.885,6.764-11.769
	c9.266-16.526,23.523-30.985,41.619-37.459c15.493-5.673,33.255-4.073,47.715,3.768c17.864,9.398,30.738,26.258,38.652,44.5
	c13.194,30.825,14.052,66.626,2.909,98.193c-7.201,20.133-19.944,39.103-38.594,50.202c-14.591,8.874-33.037,11.492-49.257,5.848
	c-20.657-6.764-35.873-24.032-45.925-42.667c-6.052,14.489-12.714,28.993-23.246,40.848c-13.282,15.667-31.945,27.771-52.821,29.313
	c-21.035,2.008-41.852-7.186-56.85-21.588c-21.268-20.22-32.906-48.82-36.79-77.522c-4.073-32.673,1.091-67.048,17.529-95.822
	C264.602,227.584,279.673,211.83,298.904,204.018 M301.479,213.546c-15.478,6.75-28.338,18.722-37.575,32.731
	c-15.129,23.261-21.413,51.482-20.57,79.02c5.601-2.575,11.245-5.077,16.976-7.346c32.498-12.176,67.382-19.799,102.223-16.744
	c14.882,1.207,29.414,4.684,44.063,7.405c-2.24-29.021-12.743-58.509-33.793-79.209c-8.801-8.19-19.26-15.624-31.233-17.966
	l0.8-0.102C328.973,207.582,314.353,208.178,301.479,213.546 M465.061,215.437c-8.568,0.844-16.7,4.19-23.916,8.787
	c-16.453,10.503-27.683,27.669-34.026,45.867c4.161,13.369,6.633,27.247,7.477,41.227c2.429-0.698,4.873-1.396,7.332-2.066
	c7.245-1.877,14.474-3.826,21.763-5.542c31.625-7.826,64.56-9.063,96.942-6.372c-2.444-23.334-11.172-46.769-27.843-63.673
	C500.498,221.14,482.794,213.139,465.061,215.437 M496.643,303.913c-0.975,0.247-2.924,0.757-3.899,1.004
	c-1.018,0.015-3.07,0.015-4.102,0.015l-0.087,0.204c-10.78,0.291-21.53,1.804-32.004,4.306c-1.193,0.247-3.608,0.771-4.801,1.033
	c-1.309,0.32-2.604,0.64-3.87,0.96l-0.378-0.786c-11.274,2.822-22.694,5.426-33.371,10.11c0.087,3.753-0.233,7.521-0.044,11.289
	c-1.12,6.59-1.833,13.252-3.099,19.828c-0.451,3.113-1.644,6.459,0.131,9.397c9.645,22.01,29.531,41.852,54.494,43.889
	c16.991,1.949,33.924-5.164,45.998-16.933c22.694-21.152,31.16-53.897,29.633-84.112
	C526.436,302.735,511.438,302.124,496.643,303.913 M319.561,310.954c-1.789,0.422-3.564,0.844-5.339,1.251l0.131,0.698
	c-1.251,0.058-3.739,0.175-4.99,0.233l-0.247-0.844c-16.802,3.026-33.444,7.797-48.791,15.347l-0.233,0.946l-0.829-0.291
	c-5.455,1.673-10.358,4.699-15.493,7.128c2.735,27.058,13.165,54.101,32.542,73.623c12.365,12.365,29.094,20.89,46.783,21.282
	c21.85,0.815,42.798-10.91,56.065-27.829c6.764-7.259,11.841-15.958,15.958-24.934c8.365-19.028,12.627-40.034,11.681-60.807
	c-13.34-4.815-27.61-5.993-41.605-7.535l-0.174,0.786c-1.149-0.073-3.433-0.218-4.582-0.291c-1.106,0-3.288,0.015-4.393,0.015
	C343.927,308.888,331.49,308.103,319.561,310.954L319.561,310.954z"/>
<path fill="#FBCEBC" d="M301.479,213.546c12.874-5.368,27.494-5.964,40.892-2.211l-0.8,0.102
	c-26.214,2.619-50.842,18.009-64.226,40.776c-5.324,9.398-12.176,18.111-15.144,28.658c-3.87,11.958-3.942,24.774-1.891,37.081
	c-5.731,2.269-11.376,4.771-16.976,7.346c-0.844-27.538,5.441-55.759,20.57-79.02C273.141,232.269,286.001,220.296,301.479,213.546"
	/>
<path fill="#FBCEBC" d="M441.146,224.224c7.215-4.597,15.347-7.943,23.916-8.787c-2.706,2.851-5.63,5.514-8.917,7.666
	c-15.827,10.227-26.665,26.898-32.266,44.645c-4.102,13.442-3.986,27.712-1.949,41.503c-2.458,0.669-4.902,1.367-7.332,2.066
	c-0.844-13.98-3.317-27.858-7.477-41.227C413.463,251.893,424.693,234.727,441.146,224.224"/>
<path fill="#DCF5FF" d="M243.77,335.422c5.135-2.429,10.038-5.455,15.493-7.128l0.829,0.291c-0.087,9.107-0.175,18.388,2.444,27.203
	c5.048,17.006,13.5,33.895,28.09,44.645c17.529,13.863,41.663,18.839,63.236,12.962c8.99-2.197,16.918-7.143,25.298-10.896
	c-13.267,16.918-34.215,28.643-56.065,27.829c-17.689-0.393-34.418-8.917-46.783-21.282
	C256.935,389.523,246.505,362.48,243.77,335.422"/>
<path fill="#DCF5FF" d="M414.088,332.047c3.782,8.874,6.081,18.475,11.579,26.534c12.147,18.94,33.56,31.611,56.079,32.804
	c10.081,0.887,19.973-1.6,29.865-3.157c-12.074,11.769-29.007,18.882-45.998,16.933c-24.963-2.037-44.849-21.879-54.494-43.889
	c-1.775-2.938-0.582-6.284-0.131-9.397C412.255,345.3,412.968,338.637,414.088,332.047"/>
<path fill="#FFFFFF" d="M496.643,303.913c14.794-1.789,29.793-1.178,44.602,0.204c1.527,30.214-6.939,62.96-29.633,84.112
	c-9.892,1.557-19.784,4.044-29.865,3.157c-22.519-1.193-43.932-13.863-56.079-32.804c-5.499-8.059-7.797-17.66-11.579-26.534
	c-0.189-3.768,0.131-7.535,0.044-11.289c10.678-4.684,22.097-7.288,33.371-10.11l0.378,0.786
	c3.099,6.939,7.172,14.038,14.198,17.631c6.575,3.84,15.26,2.967,21.21-1.688C490.999,321.952,494.374,312.685,496.643,303.913"/>
<path fill="#FFFFFF" d="M365.021,310.008l0.174-0.786c13.994,1.542,28.265,2.72,41.605,7.535
	c0.945,20.773-3.317,41.78-11.681,60.807c-4.117,8.976-9.194,17.675-15.958,24.934c-8.379,3.753-16.307,8.699-25.298,10.896
	c-21.573,5.877-45.707,0.902-63.236-12.962c-14.591-10.75-23.043-27.64-28.09-44.645c-2.619-8.816-2.531-18.097-2.444-27.203
	l0.233-0.946c15.347-7.55,31.989-12.321,48.791-15.347l0.247,0.844c2.691,10.998,8.743,22.374,19.682,26.985
	c8.365,3.739,18.344,0.538,24.483-5.848C360.191,327.887,363.261,318.853,365.021,310.008"/>
<path fill="#FFDFD2" d="M277.345,252.213c13.383-22.766,38.012-38.157,64.226-40.776c11.972,2.342,22.432,9.776,31.233,17.966
	c21.05,20.701,31.553,50.188,33.793,79.209c-14.649-2.72-29.182-6.197-44.063-7.405c-34.84-3.055-69.724,4.568-102.223,16.744
	c-2.051-12.307-1.978-25.123,1.891-37.081C265.169,270.324,272.021,261.61,277.345,252.213"/>
<path fill="#FFDFD2" d="M465.061,215.437c17.733-2.298,35.437,5.703,47.729,18.228c16.671,16.904,25.399,40.339,27.843,63.673
	c-32.382-2.691-65.317-1.455-96.942,6.372c-7.288,1.717-14.518,3.666-21.763,5.542c-2.037-13.791-2.153-28.061,1.949-41.503
	c5.601-17.748,16.438-34.419,32.266-44.645C459.432,220.951,462.356,218.289,465.061,215.437"/>
<path fill="#D7F8E0" d="M488.642,304.931c1.033,0,3.084,0,4.102-0.015c-1.28,6.066-3.201,12.336-7.885,16.671
	c-5.601,5.921-15.58,8.161-22.461,3.186c-5.222-3.273-8.292-8.801-10.648-14.3c1.193-0.262,3.608-0.786,4.801-1.033
	c1.513,2.022,3.04,4.073,4.568,6.124c2.051-1.309,4.451-5.339,6.852-2.313c1.207,2.313,1.091,5.033,1.586,7.55
	c9.354,0.145,16.322-7.303,18.999-15.667L488.642,304.931 M356.045,309.732c1.106,0,3.288-0.015,4.393-0.015
	c-0.756,10.387-5.775,21.399-15.667,25.937c-6.517,2.357-14.576,1.833-19.973-2.866c-6.022-4.873-9.397-12.336-10.445-19.886
	l-0.131-0.698c1.775-0.407,3.55-0.829,5.339-1.251c1.178,3.084,2.386,6.168,3.608,9.252c2.226-1.498,4.306-3.855,7.288-3.404
	c3.782,2.924,1.847,7.812,1.484,11.754c4.611-0.087,9.79,0.858,13.805-2.037C351.579,322.825,354.299,316.118,356.045,309.732
	L356.045,309.732z"/>
<path fill="#055419" d="M492.745,304.917c0.975-0.247,2.924-0.756,3.899-1.004c-2.269,8.772-5.644,18.039-13.354,23.465
	c-5.95,4.655-14.634,5.528-21.21,1.688c-7.026-3.593-11.099-10.692-14.198-17.631c1.266-0.32,2.56-0.64,3.87-0.96
	c2.357,5.499,5.426,11.027,10.648,14.3c6.881,4.975,16.86,2.735,22.461-3.186C489.544,317.253,491.465,310.983,492.745,304.917
	 M360.438,309.718c1.149,0.073,3.433,0.218,4.582,0.291c-1.76,8.845-4.83,17.878-11.492,24.265
	c-6.139,6.386-16.118,9.587-24.483,5.848c-10.939-4.611-16.991-15.987-19.682-26.985c1.251-0.058,3.739-0.175,4.99-0.233
	c1.047,7.55,4.422,15.013,10.445,19.886c5.397,4.699,13.456,5.222,19.973,2.866C354.663,331.116,359.682,320.104,360.438,309.718
	L360.438,309.718z"/>
<path fill="#238B3E" d="M456.551,309.441c10.474-2.502,21.224-4.015,32.004-4.306c-2.677,8.365-9.645,15.813-18.999,15.667
	c-0.495-2.517-0.378-5.237-1.586-7.55c-2.4-3.026-4.801,1.004-6.852,2.313C459.592,313.514,458.064,311.463,456.551,309.441
	 M319.561,310.954c11.929-2.851,24.366-2.066,36.484-1.222c-1.746,6.386-4.466,13.092-10.299,16.787
	c-4.015,2.895-9.194,1.949-13.805,2.037c0.364-3.942,2.298-8.83-1.484-11.754c-2.982-0.451-5.062,1.906-7.288,3.404
	C321.947,317.122,320.739,314.038,319.561,310.954L319.561,310.954z"/>
</svg>
