<?xml version="1.0" encoding="utf-8"?>
<!-- Generator: Adobe Illustrator 17.0.0, SVG Export Plug-In . SVG Version: 6.00 Build 0)  -->
<!DOCTYPE svg PUBLIC "-//W3C//DTD SVG 1.1//EN" "http://www.w3.org/Graphics/SVG/1.1/DTD/svg11.dtd">
<svg version="1.1" id="Layer_1" xmlns="http://www.w3.org/2000/svg" xmlns:xlink="http://www.w3.org/1999/xlink" x="0px" y="0px"
	 width="800px" height="600px" viewBox="0 0 800 600" enable-background="new 0 0 800 600" xml:space="preserve">
<path fill-rule="evenodd" clip-rule="evenodd" fill="#010101" d="M306.786,185.975c34.052-14.736,70.873,11.511,91.893,27.629
	c25.48,19.539,66.278,21.924,95.411,38.168c20.994,10.763,35.071,27.383,44.326,48.08c13.913,8.379,37.477,16.684,45.084,33.024
	c4.969,10.661,5.813,28.268-2.204,38.364c-6.179,7.784-18.08,9.34-29.76,11.687c-0.136,10.645-6.83,18.042-12.552,21.893
	c-11.91,8.023-34.453,11.861-51.328,12.824c-29.978,1.714-62.017,1.67-91.481-3.19c-26.303-4.341-50.966-18.265-74.308-22.763
	c-7.406-1.423-15.678-2.442-18.728-2.794c-10.211-1.061-29.874-0.572-38.355-8.274c-7.197-6.535-7.706-18.302-10.155-30.61
	c-3.593-18.1-10.325-42.219-15.086-59.324c-3.682-13.214-12.081-30.072-9.307-46.641c4.296-25.697,31.056-35.042,58.185-30.8
	C287.818,200.211,297.525,189.986,306.786,185.975z M579.063,345.191c-4.111,3.143,0.565,10.128-1.405,16.967
	C581.992,358.972,579.846,350.445,579.063,345.191z M574.744,350.206c-1.605,0.232-2.182,1.676-3.59,2.141
	c1.226,4.817-0.034,11.742,0.528,17.123C577.736,366.717,574.446,356.989,574.744,350.206z M545.69,312.172
	c5.18,13.357-6.177,24.634-17.477,22.459c-11.219-2.159-13.461-26.288-18.634-34.241c-5.699,3.023-13.236,3.882-20.88,4.617
	c3.59,8.379,11.448,20.941,15.929,31.574c7.749,2.141,13.97,4.169,20.882,7.099c6.645,2.816,11.072,8.374,16.686,10.656
	c11.126,4.523,34.186-3.322,35.332-14.151c0.49-4.625-4.663-12.441-7.517-15.26C563.765,318.748,553.187,316.346,545.69,312.172z
	 M568.567,354.08c-1.821,0.154-2.95,1.126-4.523,1.578c-0.639,6.253,0.901,10.652,0.049,17.085
	C572.046,372.821,567.97,359.858,568.567,354.08z M560.533,356.833c-0.938,0.312-1.843,0.663-2.988,0.728
	c-0.176,5.062-0.171,12.01-0.843,16.034C563.974,375.606,561.393,361.223,560.533,356.833z M554.2,374.364
	c-0.091-5.786,1.835-13.278-1.057-16.68c-0.127,0.563-0.921,0.332-1.494,0.365c-0.408,3.549,0.329,11.273-1.327,15.992
	C552.335,374.319,552.677,373.442,554.2,374.364z M547.936,367.5c1.458-2.451,0.312-6.564,0.28-9.249
	c-1.1-0.572-2.313-1.052-3.798-1.291C546.562,359.649,546.119,364.531,547.936,367.5z M544.309,381.838
	c-1.516,3.357-1.396,8.646-2.945,11.956C544.203,391.887,544.715,386.006,544.309,381.838z M541.76,377.237
	c-4.735,3.811-3.771,14.353-6.573,20.433C541.491,395.718,540.431,385.064,541.76,377.237z M508.305,345.182
	c-0.844,6.01,3.958,10.605,3.484,16.878c-0.646,8.511-12.021,12.116-20.193,8.087c-10.618-5.234-6.386-25.265-13.222-34.766
	c-14.709-9.182-30.951-2.696-47.86,0.421c-42.099,7.769-108.885,0.96-121.983-35.49c0.877-0.737,0.621-2.81,0.844-4.316
	c17.838-4.178,41.932,1.799,62.806,1.788c10.678-0.009,20.589-1.879,29.965-2.397c-3.66-4.897-9.957-3.232-15.27-4.194
	c-15.153-2.76-33.816-12.704-30.784-28.905c-9.132-6.226-18.187-15.549-28.405-22.363c-10.139-6.76-21.657-15.836-32.598-18.805
	c-6.889-1.872-14.12-1.759-20.802-2.213c-16.918-1.158-39.339,11.397-36.055,34.582c1.544,10.868,18.877,24.453,28.168,31.129
	c9.596,6.9,20.183,12.047,30.092,19.578c8.795,6.678,17.829,14.367,27.516,21.314c18.174,13.027,38.965,31.071,58.176,39.955
	c29.399,13.605,72.538,27.859,114.265,22.652c13.886-1.729,45.605-4.103,45.509-19.164
	C541.868,354.64,521.631,349.174,508.305,345.182z M536.028,381.642c-5.807,2.186-3.363,14.117-6.496,19.471
	C534.617,399.079,534.495,389.274,536.028,381.642z M526.376,286.167c-3.065,1.53-8.314,5.082-12.76,6.756
	c6.315,11.925,10.431,39.732,20.569,34.399C548.63,315.988,523.607,297.767,526.376,286.167z M530.455,384.105
	c-6.38,1.689-4.252,13.428-6.977,19.431C530.401,401.31,528.391,391.633,530.455,384.105z M524.478,385.563
	c-1.509,0.173-2.609,0.817-3.996,1.131c-1.656,6.738-1.986,15.042-6.416,18.499c-0.944-4.252,3.653-10.847,3.426-17.769
	c-1.736-0.276-2.409,0.702-3.958,0.648c-0.605,5.915-2.804,12.94-4.516,19.148c3.509-1.002,7.62-1.293,10.945-2.509
	C522.833,399.878,523.392,390.905,524.478,385.563z M522.982,285.885c-18.579-6.249-35.162,3.479-52.985,3.417
	C483.154,303.245,510.573,293.562,522.982,285.885z M510.547,388.803c-1.797-0.528-2.366,0.398-3.918,0.16
	c-1,6.799-2.119,13.461-4.922,18.138c1.084,1.58,2.992-0.341,4.848,0.399C507.834,401.212,510.32,396.334,510.547,388.803z
	 M519.469,281.201c-21.833-11.575-57.984-4.149-84.254-7.962c14.481,2.304,21.566,15.729,38.9,13.476
	C487.844,284.927,504.626,279.219,519.469,281.201z M513.81,272.927c-20.275-21.436-61.214-29.275-96.784-39.258
	C435.242,258.644,492.479,250.582,513.81,272.927z M503.64,389.69c-1.532,0.144-3.192,0.135-4.443,0.608
	c-0.915,6.369-2.825,11.566-3.909,17.735c0.966,0.08,1.939,0.16,2.907,0.242C501.61,403.967,503.016,397.289,503.64,389.69z
	 M511.671,275.188c-19.148-22.663-86.602-13.73-98.363-43.781C418.13,266.081,480.262,260.027,511.671,275.188z M494.57,328.426
	c-3.294-1.796-9.85-1.934-14.017-1.651c3.731,3.68,6.542,9.367,8.247,18.251c1.993,10.391,3.913,26.539,14.828,15.382
	C502.807,347.884,498.381,338.415,494.57,328.426z M496.249,390.542c-1.405,0.291-3.038,0.316-4.441,0.61
	c-1.158,5.906-2.551,11.531-3.426,17.768c1.551,0.242,2.122-0.686,3.918-0.163C493.754,402.848,495.693,397.512,496.249,390.542z
	 M488.859,391.395c-1.777-0.147-3.555-0.294-5.334-0.441c-0.993,4.833-1.65,13.77-3.544,19.222c2.046-0.065,3.826-0.45,5.452-1.011
	C487.325,404.132,487.902,397.536,488.859,391.395z M491.416,325.243c-10.002-13.062-39.539-5.707-55.295-4.1
	c-34.548,3.518-78.57,6.05-110.098-8.156c9.096,7.894,20.736,13.152,33.813,15.983c44.577,9.628,85.712-5.34,124.389-5.305
	C486.526,323.669,489.789,323.941,491.416,325.243z M488.948,319.669c-5.79-6.979-16.531-14.282-29.406-16.105
	c-36.672-5.198-80.904,5.449-120.031-0.194c-7.217-1.04-13.234-4.363-20.762-2.696c1.122,7.019,13.897,11.121,22.862,12.631
	C390.025,321.466,444.778,298.428,488.948,319.669z M480.093,391.156c-1.776-0.147-3.553-0.294-5.331-0.445
	c0.407,5.758-1.271,14.142-3.141,20.237c1.973-0.152,4.043-0.19,5.449-1.01C479.275,405.35,480.791,397.421,480.093,391.156z
	 M486.12,312.599c-19.215-33.549-79.524-35.908-124.414-47.402c8.112,11.473,25.332,10.721,39.949,12.581
	c22.884,2.912,50.351,10.767,67.617,20.25c3.27,1.796,7.531,4.613,10.139,7.186C481.882,307.64,482.621,310.968,486.12,312.599z
	 M471.814,390.959c-1.777-0.149-3.553-0.294-5.331-0.441c0.303,6.422-1.95,14.338-3.628,20.192c1.217,0.777,4.189-0.153,6.344,0.038
	C471.099,405.448,472.76,396.339,471.814,390.959z M475.454,305.857c-25.464-20.471-73.507-22.189-110.958-33.115
	c14.456,15.246,48.285,13.686,73.958,20.286C450.342,296.087,461.946,303.123,475.454,305.857z M464.018,390.798
	c-1.95-1.351-5.619-0.783-7.308-0.118c0.899,7.021-1.835,14.067-3.143,20.234c2.373,0.143,5.088,0.684,6.827,0.078
	C462.05,404.789,463.609,398.476,464.018,390.798z M465.846,315.794c-42.571-8.695-84.928,7.678-129.685-1.48
	C378.037,328.5,424.336,317.274,465.846,315.794z M469.016,271.655c-3.502-3.535-13.861-3.15-19.629-4.557
	c-21.642-5.273-41.269-17.712-44.04-39.764c-16.718-15.216-39.851-34.431-70.977-38.58c-12.176-1.623-27.067,2.631-34.123,11.32
	c-2.362,2.91-6.12,10.204-4.071,13.817c1.529,2.7,14.436,6.694,19.226,9.401c12.711,7.175,21.727,14.658,32.2,23.652
	c4.443,3.82,10.814,10.556,17.494,12.675C393.408,268.595,440.533,271.488,469.016,271.655z M453.801,390.436
	c-1.948-1.069-3.817-0.759-5.251-1.405c-0.398,8.395-2.584,14.683-3.788,22.129c2.4,0.528,3.789-0.138,5.857,0
	C452.32,405.192,455.39,396.967,453.801,390.436z M445.642,388.791c-1.95-0.007-2.618-1.091-4.806-0.891
	c-1.316,7.845-2.391,15.976-4.352,23.062c1.616,0.135,3.232,0.269,4.848,0.403C444.315,404.566,444.721,397.301,445.642,388.791z
	 M437.891,388.147c-1.003-1.863-4.657-1.471-7.153-2.059c0.564,6.44-3.141,15.827-3.946,24.071c2.42,0.2,4.846,0.401,7.266,0.603
	C436.306,403.538,437.482,395.575,437.891,388.147z M428.357,385.402c-2.858-0.134-5.1-0.788-6.667-2.015
	c-1.478,8.889-3.528,17.114-5.523,25.406c2.747,0.225,5.492,0.452,8.239,0.681C425.942,401.005,428.497,391.408,428.357,385.402z
	 M431.146,298.769c-4.406-1.983-10.798-1.465-16.319-3.308C418.179,300.062,424.203,297.932,431.146,298.769z M417.854,382.578
	c-1.316-0.84-3.106-1.278-4.726-1.855c-0.979,10.024-3.074,18.721-5.643,26.86c1.95,0,2.618,1.088,4.808,0.884
	C415.466,403.732,418.654,392.001,417.854,382.578z M410.301,379.514c-2.764-0.218-4.162-1.587-7.19-1.574
	c-1.26,10.576-4.637,18.646-6.734,28.231c2.221,0.83,5.278,0.944,8.199,1.173C407.913,398.768,409.48,390.146,410.301,379.514z
	 M400.282,376.729c-1.941-0.459-2.713-1.908-5.209-1.896c-3.246,9.647-5.61,20.339-9.721,28.963
	c3.755,0.597,6.315,1.816,8.644,1.689C395.739,395.486,399.872,388.303,400.282,376.729z M392.244,373.624
	c-1.431-0.988-3.39-2.765-6.546-3.471c-1.87,11.98-7.261,19.803-9.437,31.429c2.455-0.125,3.717,0.759,5.775,0.962
	C387.102,394.87,389.145,383.621,392.244,373.624z M382.912,368.457c-2.38-0.839-3.96-2.353-6.585-2.983
	c-2.527,11.556-6.099,21.884-9.515,32.391c1.547,0.946,4.677,2.438,6.178,1.977C376.499,389.62,381.309,380.928,382.912,368.457z
	 M367.118,358.85c-2.275,12.931-6.72,23.287-9.761,35.305c1.471,1.16,4.225,1.229,5.656,2.422
	c5.946-8.058,7.293-21.543,10.972-32.276C373.294,361.132,368.541,361.399,367.118,358.85z M363.403,356.591
	c-2.337-0.278-3.185-1.814-4.648-2.827c-3.089,13.21-7.578,24.756-10.486,38.174c2.411-0.056,4.819,1.669,6.26,1.006
	C357.715,381.38,363.653,370.468,363.403,356.591z M355.08,351.019c-1.7-0.817-2.54-2.351-4.648-2.825
	c-2.872,14.875-7.221,28.015-11.252,41.523c2.411-0.049,4.819,1.672,6.262,1.006C348.368,377.471,354.733,365.563,355.08,351.019z
	 M342.636,342.185c-3.72,16.333-10.358,29.696-13.512,45.238c2.832-0.151,4.083,1.042,6.745,1.049
	c5.592-12.377,8.802-27.57,12.299-42.411C346.36,344.733,344.853,343.156,342.636,342.185z M332.98,335.034
	c-3.688,17.822-9.712,32.876-14.804,49.038c-3.468-2.891-0.273-8.254,0.966-11.633c4.125-11.248,7.965-24.518,11.333-36.63
	c-0.187-1.287,0.341-1.73,1.576-1.338c-1.854-2.186-4.931-3.332-7.395-5c-4.123,18.892-9.877,35.87-16.052,52.345
	c4.176,1.556,11.931,3.208,17.652,4.879c4-16.206,10.055-29.987,14.077-46.168C338.453,338.214,335.744,336.599,332.98,335.034z
	 M315,322.323c-1.912,22.044-10.665,40.608-16.653,59.618c2.422,0.203,4.846,0.405,7.27,0.603
	c5.852-17.446,13.096-35.287,16.212-54.288C320.222,325.713,318.119,323.587,315,322.323z M313.668,320.747
	c-1.144-1.432-2.852-2.391-4.082-3.756c-7.092,19.229-11.762,44.668-20.408,63.703c1.055,1.211,4.336,0.532,6.258,1.01
	c6.099-19.302,15.386-37.44,16.738-60.59C312.584,320.889,313.001,320.671,313.668,320.747z M307.729,315.862
	c-1.692-2.172-3.895-3.911-6.908-4.964c-5.387,25.39-15.544,45.142-23.195,67.863c2.965,0.492,5.173,1.629,8.118,2.137
	c9.438-18.656,14.625-42.333,20.531-65.154C306.759,315.785,307.244,315.825,307.729,315.862z M291.607,304.281
	c-1.224,13.091-7.613,27.826-12.744,41.885c-3.895,10.672-13.463,25.382-4.51,30.856c9.541-17.63,17.672-45.857,24.042-66.329
	C299.306,307.776,294.304,305.499,291.607,304.281z M286.115,299.918c-8.395,18.109-14.652,38.753-21.907,58.207
	c1.896,2.751,1.52,7.428,4.085,9.614c4.256-18.962,16.526-38.239,19.845-56.918C288.628,308.074,290.177,301.03,286.115,299.918z
	 M278.195,295.359c-3.805,19.632-18.779,37.839-15.483,57.276c4.57-13.298,14.093-34.29,18.639-48.23
	C282.76,300.082,283.869,295.828,278.195,295.359z M271.247,290.88c-3.642,16.773-18.4,31.857-12.335,48.755
	c7.052-13.846,11.636-30.606,17.021-46.413C274.212,292.576,273.063,291.448,271.247,290.88z M269.308,290.718
	c0.261-1.43-3.871-3.025-5.492-4.357c-2.34,13.283-15.387,25.195-7.982,37.402c3.791-11.308,9.138-20.784,12.02-33.164
	C268.676,290.769,269.179,289.874,269.308,290.718z M257.917,280.988c-2.674,8.457-11.704,19.723-5.24,27.868
	C254.34,300.156,265.466,287.291,257.917,280.988z M256.058,279.857c-0.959-1.291-2.495-2.092-3.637-3.226
	c-2.511,6.084-7.339,12.646-4.071,19.669C252.366,292.523,251.633,283.146,256.058,279.857z M248.341,272.878
	c-1.908,3.501-4.699,7.66-2.983,12.443C246.972,282.163,250.999,276.085,248.341,272.878z M241.676,265.006
	c-0.786,3.074,1.629,7.324,1.494,11.344C247.35,272.426,244.12,267.996,241.676,265.006z"/>
</svg>
