<?xml version="1.0" encoding="utf-8"?>
<!-- Generator: Adobe Illustrator 17.0.0, SVG Export Plug-In . SVG Version: 6.00 Build 0)  -->
<!DOCTYPE svg PUBLIC "-//W3C//DTD SVG 1.1//EN" "http://www.w3.org/Graphics/SVG/1.1/DTD/svg11.dtd">
<svg version="1.1" id="Layer_1" xmlns="http://www.w3.org/2000/svg" xmlns:xlink="http://www.w3.org/1999/xlink" x="0px" y="0px"
	 width="355px" height="402px" viewBox="0 0 355 402" enable-background="new 0 0 355 402" xml:space="preserve">
<g>
	<path fill="#0F0F0E" d="M198.992,351.058c0,0-1.072-10.719-0.516-12.267c0.556-1.548,2.858-7.662,3.295-9.806
		c0.437-2.144,0.034-6.789-1.849-7.225c-1.883-0.437-10.538,9.29-10.895,10.68c-0.357,1.389-4.605,4.526-5.518,7.066
		c-0.914,2.541-2.481,4.823-2.998,5.856c-0.516,1.032-2.501,2.521-2.422,4.704c0.079,2.183,0.417,4.446,2.422,5.022
		c2.005,0.576,8.317,2.422,10.997,2.025c2.68-0.397,2.938-0.754,3.752-3.156c0.814-2.402,1.528-5.002,1.528-5.002l0.099,2.203
		C196.888,351.158,198.238,351.793,198.992,351.058z"/>
	<path fill="#169133" d="M196.65,350.284c0,0,1.648,0.199,1.707,0c0.059-0.198-0.516-7.622-0.516-7.622s-0.972,5.478-1.052,6.292
		C196.71,349.768,196.65,350.284,196.65,350.284z"/>
	<path fill="#0F0F0E" d="M182.556,316.201c2.629,1.125,6.312,3.494,6.63,6.154s-6.455,26.882-8.655,28.425
		c-2.199,1.543-0.516,2.331-1.271,2.263c-0.755-0.068-4.922,0.079-7.741-0.556c-2.819-0.635-4.129-1.231-3.97-4.685
		c0.158-3.454,2.461-6.093,3.216-8.346c0.754-2.254,2.739-7.216,3.216-8.844C174.458,328.985,182.556,316.201,182.556,316.201z"/>
	<path fill="#492E1B" d="M202.764,96.601c-2.084-5.479-3.632-10.481-5.24-13.816c-1.608-3.335-3.93-8.158-3.752-8.337
		c0.179-0.179-5.419,2.144-5.717,6.729c-0.298,4.585,0.953,9.885,4.228,11.672c3.275,1.786,7.92,4.228,8.218,4.645
		C200.798,97.911,202.764,96.601,202.764,96.601z"/>
	<path fill="#ED9366" d="M200.203,317.174c-0.102,1.378-0.353,6.61-0.281,7.771c0.072,1.161-1.273,2.858-2.417,6.372
		c-1.143,3.513-1.679,10.451-3.555,12.416c-1.876,1.965-4.05,2.144-6.818,1.638c-2.769-0.506-5.122-0.536-5.122-0.983
		s1.251-4.883,2.203-7.235c0.953-2.352,2.204-12,3.603-16.108c1.4-4.109,3.99-9.469,3.633-21.617
		c-0.357-12.148-1.012-16.972-0.953-26.857c0.06-9.885-0.417-12.863-1.25-15.185c-0.834-2.322-4.824-4.883-4.883-0.953
		c-0.059,3.93,0.059,8.992,1.191,12.446c1.132,3.454,0.119,8.218-0.774,19.354c-0.893,11.136-1.37,15.721-0.893,21.021
		c0.476,5.3,1.886,9.33,1.648,11.871c-0.238,2.541-1.549,10.56-1.906,12.942c-0.357,2.382-1.985,8.615-4.327,9.012
		c-2.342,0.397-6.59-1.191-7.742-1.111c-1.151,0.079-0.754-1.588,0.238-4.089c0.993-2.501,1.945-8.099,1.985-14.093
		c0.04-5.994-0.397-10.004-2.541-19.532c-2.143-9.528-4.367-25.17-4.526-32.633c-0.159-7.464-0.635-12.466-1.032-15.721
		c-0.397-3.255,17.706-5.558,27.79-5.558c10.084,0,14.292-3.732,14.848,4.605c0.556,8.337,1.667,14.133,0.556,24.773
		c-1.111,10.64-3.255,18.024-5.479,25.249C201.176,312.192,200.358,315.074,200.203,317.174z"/>
	<path fill="#0F0F0E" d="M212.689,257.406c0,0-9.653-0.238-12.766,0.873c-3.113,1.111-14.071,1.747-20.105,1.747
		c-6.034,0-24.852-5.638-24.852-5.638s1.747-38.112,0.635-45.973c-1.111-7.861-0.953-23.185,0.159-28.425
		c1.111-5.24,15.245-25.726,20.724-24.852c5.479,0.874,28.108,21.359,30.887,23.503c2.779,2.144,6.034-1.588,7.464,8.575
		c1.429,10.163-0.635,20.247-1.429,30.331c-0.794,10.084-1.668,13.339-1.271,18.739C212.53,241.685,212.689,257.406,212.689,257.406
		z"/>
	<path fill="#1F2934" d="M224.738,124.528c-1.487-6.726-2.382-22.627-4.882-25.902c-2.503-3.277-11.614-4.467-13.936-4.824
		c-2.322-0.357-5.837-1.49-7.087-3.812c-1.25-2.322-1.667-2.202-3.989-2.857c-2.322-0.655-16.018,6.432-17.628,6.906
		c-1.607,0.478-3.752,1.49-6.431,2.86c-2.68,1.37-5.834,1.667-8.754,3.037c-2.917,1.37-4.464,3.215-5.597,7.799
		c-1.132,4.587-4.765,22.392-6.134,27.274c-1.37,4.884-2.797,18.105-3.692,22.272c-0.892,4.169,1.411,20.804,2.243,23.819
		c0.835,3.018,5.321,2.898,8.419,2.303c3.094-0.595,10.478-5.755,10.478-5.755l23.503,6.707l3.255,3.971l3.059-3.214
		c0,0,1.269,0.158,4.366-1.072c3.097-1.231,14.291,0.316,14.291,0.316c0.24-4.426-2.977-15.701-2.977-15.701
		s9.589-10.181,12.566-13.543C228.787,151.751,226.228,131.257,224.738,124.528z M212.472,148.17
		c-0.24,2.442-3.277,3.217-3.277,3.217s-1.072-1.61-0.775-5.122c0.3-3.515,1.67-6.729,1.968-5.954
		C210.684,141.084,212.709,145.731,212.472,148.17z"/>
	<path fill="#516272" d="M155.541,169.49c-2.484,1.312-6.014,1.072-6.014-4.049c0-5.121,0.417-5.478-0.536-6.52
		c-0.953-1.043,0-0.209,0-2.353c0-2.144,1.489-2.68,0.953-4.466c-0.536-1.786-1.191-1.37-0.536-2.918s-1.251-1.072-0.119-2.978
		c1.132-1.905,1.191-1.31,1.132-2.977c-0.06-1.667,4.795-11.076,4.422-12.148c-0.373-1.072-1.981-1.608-0.849-5.359
		c1.132-3.752,1.026-4.325,1.132-8.489c0.106-4.164-0.119-4.672,1.191-5.863c1.31-1.191,2.62-1.31,0.536,2.739
		c-2.084,4.049-0.893,7.92-0.536,10.421c0.357,2.501,4.883-0.119,1.132,7.861c-3.752,7.98-4.288,8.159-4.407,12.327
		c-0.119,4.168-0.238,9.766-0.476,13.28c-0.238,3.513-2.858,2.084-0.417,4.704C154.588,165.321,158.697,167.823,155.541,169.49z"/>
	<path fill="#FFFFFF" d="M195.141,91.898c-0.38,0.625-1.007,1.815-1.765,3.272c-0.952,1.825-2.109,4.069-3.245,6.159
		c-1.233,2.268-2.442,4.35-3.334,5.515c-0.068,0.09-0.139,0.183-0.21,0.281c-2.39,3.244-6.121,10.375-6.988,14.25
		c-0.893,3.989-2.917,9.706-2.917,9.706s-2.467-3.157-4.142-7.021v-0.003c-1.021-2.344-1.747-4.95-1.454-7.267
		c0.57-4.521,2.014-9.368,2.734-12.269c0.257-1.037,0.42-1.825,0.42-2.262c0-0.527,0.085-1.473,0.224-2.598
		c0.3-2.42,0.857-5.662,1.384-7.289c0.775-2.382,0.418-3.215,2.562-4.287c2.142-1.072,11.434-4.11,13.398-4.05
		c1.964,0.06,3.523,0.543,3.812,1.965C195.908,87.423,196.511,89.633,195.141,91.898z"/>
	<path fill="#C7D5DB" d="M193.376,95.169c-0.952,1.825-2.109,4.069-3.245,6.159c-2.349,1.045-5.605,2.377-7.556,2.925
		c-3.275,0.922-6.737,1.307-8.757,0.267c0.257-1.037,0.42-1.825,0.42-2.262c0-0.527,0.085-1.473,0.224-2.598
		c0.352,1.113,0.958,2.066,1.711,2.358c1.222,0.477,1.967-3.976,2.92-4.265c0.952-0.289,4.132-0.982,4.705-0.854
		c0.57,0.125,3.037,1.845,3.155,2.409C187.053,99.792,191.935,96.231,193.376,95.169z"/>
	<path fill="#C6320C" d="M186.587,107.124c-2.39,3.244-6.121,10.375-6.988,14.25c-0.893,3.989-2.917,9.706-2.917,9.706
		s-2.467-3.157-4.142-7.021v-0.003c0-2.821-0.617-4.993,0.925-8.339c2.145-4.647,4.29-9.409,5.479-11.376
		c1.192-1.965,0.537-3.749,0-4.287c-0.535-0.535-0.535-2.262,1.132-3.097c1.667-0.832,2.322-1.785,3.097-0.952
		c0.772,0.835,2.797,1.965,2.977,3.157c0.178,1.19-1.31,2.322-1.37,3.395C184.742,103.252,185.708,104.955,186.587,107.124z"/>
	<path fill="#ED9366" d="M197.256,75.489c-1.4,1.52-2.65,1.848-2.65,1.848s-1.073,2.887-1.132,4.197
		c-0.06,1.31,0.041,3.971,0.041,3.971s-1.867,3.255-3.891,4.963c-2.025,1.706-7.188,4.565-8.418,4.407
		c-1.231-0.161-3.414-2.423-3.414-2.898c0-0.477,1.113-3.334-1.547-4.527c-2.661-1.19-1.987-3.454-3.135-5.995
		c-1.152-2.54-2.781-3.97-2.901-6.906c-0.117-2.939-0.038-3.534-0.674-6.868c-0.341-1.793-0.213-3.577,0.207-5.329
		c0.363-1.506,0.939-2.988,1.618-4.437c1.471-3.135,8.934-9.488,17.191-6.074c8.257,3.414,8.377,11.87,8.377,12.902v1.82
		c0,0.224,0,0.363,0,0.363s1.667,0.079,1.389,2.186c-0.278,2.104-0.095,2.985,0.03,3.64
		C198.476,73.405,198.656,73.972,197.256,75.489z"/>
	<path fill="#492E1B" d="M196.929,64.741v1.82c-0.783,0.18-1.097,1.001-1.542,1.755c-0.587,0.991-1.675,2.142-2.745,3.094
		c-1.072,0.955-1.629-4.088-2.265-6.511c-0.636-2.42-2.66-3.929-4.882-6.511c-2.224-2.579-4.923-1.149-6.71-1.389
		c-1.787-0.238-5.122,0.993-6.074,2.065c-0.658,0.74-1.809,1.965-2.969,3.285c0.363-1.506,0.939-2.988,1.618-4.437
		c1.471-3.135,8.934-9.488,17.191-6.074C196.808,55.253,196.929,63.709,196.929,64.741z"/>
	<path fill="#969696" d="M181.159,171.774l0.909,4.456c0,0-0.049,6.235-0.426,11.147c-0.882,0.538-1.465,0.906-1.506,0.95
		c-0.18,0.199-9.826,0.398-10.064,0.456c-0.24,0.06-0.3-3.572-1.116-3.572c-0.519,0-3.785-3.782-6.104-6.549
		c-0.508-2.115-0.603-3.73,0.161-4.112c2.456-1.228,1.228-1.449,1.408-2.341c0.183-0.889-4.352-4.028-5.496-5.299
		c-1.084-1.206-1.384-2.781-2.612-4.565v-29.061l33.891-4.227l3.61,35.357L181.159,171.774z"/>
	<path fill="#FFFFFF" d="M162.071,170.979c0,0-3.462-1.469-7.23,1.747c-3.767,3.216-4.363,4.923-4.005,7.027
		c0.357,2.104,3.136,3.99,3.136,3.99s1.945-5.499,3.97-7.642c2.025-2.144,5.796-4.486,5.796-4.486L162.071,170.979z"/>
	<path fill="#FFFFFF" d="M183.549,172.765c0,0,1.707,2.263,3.454,3.732c1.747,1.469,4.168,5.36,4.963,6.908
		c0.794,1.549-1.112,3.057-1.112,3.057s-1.787-0.238-2.62-2.342c-0.834-2.104-4.407-7.464-4.923-8.734
		c-0.516-1.27-0.913-3.176-0.913-3.176L183.549,172.765z"/>
	<path fill="#ED9366" d="M162.627,171.396c0.996,0.174,3.752,1.191,4.645,1.667c0.893,0.476,3.424,2.025,4.02,2.233
		c0.596,0.208,2.263,1.399,2.918,1.578c0.656,0.179,2.323,0.983,1.638,1.37c-0.685,0.387-5.806-0.179-7.325-0.715
		c-1.518-0.536-3.692-1.518-3.692-1.518s3.216,5.27,4.347,6.55c1.132,1.28,2.977,3.394,4.198,3.603
		c1.221,0.208,2.442,1.042,3.395,1.102c0.953,0.059,0.655,1.489-0.238,1.816c-0.893,0.327-3.245,0.208-3.335,0.149
		c-0.089-0.059,0.03,0.923-2.322,0.953c-2.353,0.03-2.174,0.476-3.335,0.595c-1.161,0.119-1.608-0.476-2.055-0.834
		c-0.446-0.357-1.578,0.536-2.144,0.209c-0.566-0.327-3.901-2.977-4.972-4.674c-1.072-1.697-4.049-5.151-4.466-5.717
		c-0.417-0.566-0.119-4.615,1.876-5.836C157.774,172.706,162.627,171.396,162.627,171.396z"/>
	<path fill="#ED9366" d="M183.082,172.914c0,0-0.625-0.536-1.816-0.208c-1.191,0.327-5.985,1.28-6.938,1.28
		c-0.953,0-2.859-0.744-2.888,0c-0.03,0.744,0.441,2.471,2.111,2.591c1.67,0.119,4.529,0.268,4.767,0.179
		c0.238-0.089-2.852,2.139-4.895,2.513c-2.043,0.375-3.204,0.941-3.859,1.089c-0.655,0.149-0.953,1.221,0,1.846
		c0.953,0.625,4.466,0.03,4.913,0c0.447-0.03,2.501,0.357,2.531,0.536c0.03,0.179-5.389,1.608-5.657,1.608
		c-0.268,0-1.936-0.675-2.144-0.605s3.841,3.196,4.436,3.166c0.595-0.03,3.097-0.982,3.96-1.221
		c0.864-0.238,1.936-0.863,1.429,0.328c-0.506,1.191-2.263,3.335-2.114,3.692c0.149,0.357,2.322,1.341,2.709,1.088
		c0.387-0.254,1.906-2.011,2.591-2.636c0.685-0.625-1.787,2.114-0.566,1.906c1.221-0.208,2.65-0.407,4.347-1.737
		c1.697-1.33,3.543-4.178,4.168-4.585C190.794,183.336,183.082,172.914,183.082,172.914z"/>
	<path fill="#516272" d="M187.806,175.445c-1.281-2.558-0.108-3.454,1.738-5.657c1.846-2.203,2.799-4.228,5.419-5.717
		c2.62-1.489,5.598-3.216,7.98-4.169c2.382-0.953,6.848-5.657,9.29-7.563c2.442-1.906,3.266-1.846,3.092-5.002
		c-0.174-3.156-2.556-8.754-2.556-12.029c0-3.275,1.667-7.206,1.31-10.54c-0.358-3.335-1.251-3.513,0.595-9.885
		c1.846-6.372,3.633-12.089,3.216-6.729c-0.417,5.36,0.063,10.6,0.061,14.768c-0.002,4.168,2.261,22.331,2.44,24.713
		c0.179,2.382,0.536,1.132-3.514,6.67c-4.049,5.538-8.177,4.905-12.505,11.493c-4.329,6.588-5.538,3.037-6.015,7.444
		c-0.476,4.407,1.549,6.014-2.858,5.836C191.092,178.899,188.606,177.043,187.806,175.445z"/>
	<path fill="#516272" d="M203.671,119.518c-2.277,4.04-6.913,11.006-13.416,9.096c-6.504-1.91-10.051-5.049-8.141-10.279
		c1.91-5.23,6.958-11.006,9.96-14.144c3.002-3.138,4.321-5.685,7.823-7.732s9.642-0.545,12.734,0.227
		c3.093,0.773,6.367,1.955,6.231,4.184c-0.136,2.229-3.638,5.412-6.14,8.096C210.22,111.65,204.896,117.345,203.671,119.518z"/>
	<path fill="#516272" d="M168.47,125.84c-3.171,0.634-8.947,0.955-9.544-3.229c-0.598-4.184,1.176-8.96,1.222-11.779
		c0.046-2.82-1.215-3.547-1.222-5.503c-0.006-1.956,2.586-4.548,5.997-5.685c3.411-1.137,7.031-2.137,7.495-2.228
		c0.464-0.091-0.491,2.774-1.583,7.277c-1.092,4.502-3.001,12.871-2.41,14.508C169.015,120.837,170.288,125.476,168.47,125.84z"/>
	<path fill="#1F2934" d="M181.692,345.29c0.375,0.04,3.889,0.648,6.344,1.057c2.456,0.409,6.003,0.239,4.468,1.501
		c-1.535,1.262-9.885,2.985-11.389,2.192c-1.504-0.793-1.743-2.399-0.754-3.523C181.351,345.393,181.04,345.22,181.692,345.29z"/>
	<path fill="#1F2934" d="M179.237,344.028c-0.312,0.742-5.355,2.933-7.231,3.104c-1.876,0.171-3.07-2.388-2.524-3.411
		c0.546-1.023,1.74-1.232,3.309-1.059c1.569,0.172,3.445,0.923,4.332,1.025C178.009,343.789,179.51,343.38,179.237,344.028z"/>
	<path fill="#F3B294" d="M177.838,342.186c-2.121-0.416-7.141,1.183-5.685-2.228c1.456-3.411,3.729-8.641,4.002-12.917
		c0.273-4.275-0.683-11.006-1.819-17.555c-1.137-6.549-4.73-23.831-5.912-31.836c-1.182-8.004-2.183-14.554,0-16.373
		c2.183-1.819,5.549-1.273,6.731-0.728c1.182,0.546-0.182,9.278-0.546,19.465c-0.364,10.188,0.273,23.74,1.728,31.29
		c1.455,7.549,1.41,10.596,1.091,15.326c-0.318,4.73-3.002,11.504-2.138,12.824C176.155,340.777,180.158,342.641,177.838,342.186z"
		/>
	<path fill="#F3B294" d="M189.799,344.874c-2.64-0.074-7.413-0.869-7.095-2.005c0.318-1.137,3.229-3.73,3.82-6.686
		c0.591-2.956,0.682-9.141,2.138-14.644c1.455-5.503,6.049-14.508,5.23-27.788c-0.819-13.28-1.455-18.92-1.455-22.831
		c0-3.912-0.06-8.606,2.092-10.279c2.152-1.673,7.186-1.594,8.823-0.615c1.637,0.979-1.182,21.536-3.275,29.45
		c-2.092,7.913-7.277,24.063-8.004,32.27c-0.728,8.207-0.523,6.388-1.615,11.027c-1.091,4.639-3.411,7.439-2.388,9.484
		C189.094,344.301,191.588,344.924,189.799,344.874z"/>
	<path fill="#1F2934" d="M160.784,248.271c-1.141-5.18-1.183-25.833-2.001-35.02c-0.819-9.187-2.001-21.284,0-21.83
		c2.001-0.546,6.003,1.364,10.551,1.819c4.548,0.455,9.823,1.182,14.008-0.273c4.184-1.455,15.1-2.527,18.192-2.173
		c3.093,0.354,7.095,5.266,5.73,8.449c-1.364,3.184-7.978,12.552-13.448,22.012c-5.471,9.46-10.253,23.376-16.458,27.742
		C171.153,253.365,161.966,253.638,160.784,248.271z"/>
	<path fill="#F3B294" d="M190.493,72.447c0.08,1.943,1.057,10.267-3.275,12.177c-4.332,1.91-10.233,3.036-11.358,1.672
		c-1.126-1.364-1.978-4.878-2.831-7.231c-0.853-2.354-2.081-2.933-2.388-7.368c-0.307-4.434-1.023-7.129-0.716-8.289
		c0.307-1.16,4.059-4.332,6.071-5.15c2.013-0.819,4.775-1.944,7.095,0c2.32,1.944,4.4,5.491,5.628,8.152
		C189.947,69.07,190.425,70.783,190.493,72.447z"/>
</g>
</svg>
