<?xml version="1.0" encoding="utf-8"?>
<!-- Generator: Adobe Illustrator 17.0.0, SVG Export Plug-In . SVG Version: 6.00 Build 0)  -->
<!DOCTYPE svg PUBLIC "-//W3C//DTD SVG 1.1//EN" "http://www.w3.org/Graphics/SVG/1.1/DTD/svg11.dtd">
<svg version="1.1" id="Layer_1" xmlns="http://www.w3.org/2000/svg" xmlns:xlink="http://www.w3.org/1999/xlink" x="0px" y="0px"
	 width="800px" height="600px" viewBox="0 0 800 600" enable-background="new 0 0 800 600" xml:space="preserve">
<g>
	<path fill="#141112" d="M577.387,110.906c-12.189-20.904-51.212-36.497-90.237-29.653c-40.179,7.046-57.751,17.745-84.821,43.24
		c-18.989,17.881-37.522,42.522-49.271,65.291c-11.392,22.079-19.943,49.156-6.227,71.952c-7.139,5.454-17.698,14.582-27.051,23.231
		c-9.351,8.649-15.286,13.728-28.16,29.059c-12.869,15.331-44.142,59.908-38.614,87.932c15.987,5.076,34.794,2.443,54.604-8.556
		c19.46-10.811,40.626-33.588,56.664-54.287c13.276,33.654,24.368,66.764,24.66,96.555c0.278,28.15,7.165,37.884,17.995,51.311
		c12.683,15.723,35.177,18.1,52.211,12.691c9.034-2.874,19.303-8.573,26.718-22.365c11.801-21.951,11.147-44.523,12.41-68.736
		c1.765-33.83-0.326-72.435-2.438-84.587c11.791-1.144,18.157-2.081,29.679-5.895c10.911-3.611,23.699-9.546,29.753-19.103
		c7.402-11.699,0.526-22.524-15.869-24.796c-13.071-1.81-27.348-0.359-40.036,2.224c20.781-29.532,53.196-40.167,73.643-69.709
		C591.769,179.589,594.947,141.011,577.387,110.906z"/>
	<path fill="#EFD0BF" d="M516.623,247.212c-6.53,5.737-12.614,11.898-18.043,18.571c-2.1,2.583-15.583,21.694-10.662,20.379
		c4.922-1.315,12.514-3.09,16.187-3.777c4.615-0.868,9.256-1.57,13.939-1.979c8.932-0.778,20.303-1.361,28.002,3.789
		c15.278,11.818-21.661,26.901-29.592,29.082c-9.294,2.562-17.465,3.637-25.374,3.307c-7.914-0.328-8.437-7.564-3.34-10.852
		c5.097-3.292,17.374-5.671,15.295-6.577c-5.271-2.305-17.034-0.635-22.855,3.946c-7.738,6.082-4.401,20.062,8.085,20.883
		c2.284,36.67,3.682,119.431-10.842,144.236c-11.551,19.734-30.017,27.983-48.961,20.969c-15.909-6.644-29.789-26.478-30.16-50.208
		c-0.816-51.863-28.792-102.806-29.501-106.6c6.094-8.081,16.691-23.752,20.766-28.438c3.532-4.275,7.4-8.758,11.368-12.862
		c5.999-6.201,12.029-10.799,13.114-19.703c7.812,6.139,16.444,11.58,24.634,17.248c-6.111,12.179-29.717,38.478-49.72,48.928
		c-4.674,2.443,7.695,3.528,16.171-0.897c3.485,16.489,5.302,33.273,11.394,49.32c2.814,7.4,6.784,13.701,14.42,16.118
		c7.281,2.298,14.415-0.806,18.109-6.744c6.727-10.811,6.734-30.526,6.332-46.045c-0.243-9.153-1.936-36.345-7.046-53.486
		c2.59,2.453,9.039,7.322,13.026,11.059c4.239,3.98,1.044-5.424-7.391-13.813c-5.569-5.542-15.849-13.414-22.505-17.762
		c-3.387-2.212-13.119-8.437-20.257-14.308c-12.22-13.25-29.51,0.007-36.185,10.526c-3.342,5.262-1.991,12.686-0.528,10.526
		c4.46-6.606,13.216-18.923,23.663-19.08c10.448-0.162,9.658,8.368,6.287,14.465c-1.782,3.233-5.521,5.661-8.199,8.33
		c-3.594,3.582-7.008,7.319-10.298,11.147c-11.796,13.728-21.941,28.595-33.214,42.689c-21.142,26.525-52.08,62.853-92.295,56.112
		c0.944-27.762,17.505-52.575,34.867-74.078c6.627-8.568,16.818-18.899,25.536-27.441c5.095-4.988,24.77-23.236,29.116-27.636
		c1.463,2.003,8.307,7.398,11.654,6.351c2.521-0.795-9.738-10.205-13.24-27.76c-3.599-18.043,3.195-37.075,11.596-53.122
		c16.863-32.189,41.69-58.952,71.845-80.772c28.407-20.493,64.464-24.874,102.15-14.946c34.637,9.125,44.132,42.027,40,73.446
		C568.365,207.701,544.059,223.091,516.623,247.212z"/>
	<path fill="#E7BAA5" d="M541.161,197.251c-15.062,13.409-29.958,27.912-39.47,45.772c-3.444,6.468-6.48,13.214-8.782,20.155
		c-1.606,4.841-3.68,10.652-3.345,16.023c3.083-5.328,7.836-11.97,9.015-13.418c5.428-6.672,11.513-12.833,18.043-18.571
		c27.436-24.12,51.742-39.511,57.351-77.458c0.602-4.555,0.901-9.139,0.894-13.682C567.244,172.001,554.29,185.562,541.161,197.251z
		"/>
	<path fill="#E7BAA5" d="M421.818,277.1c-2.643-1.86-5.255-3.749-7.767-5.723c-1.085,8.904-7.115,13.501-13.114,19.703
		c-3.968,4.103-7.836,8.587-11.368,12.862c-4.075,4.686-14.672,20.357-20.766,28.438c0.038,0.207,0.169,0.578,0.364,1.056
		C382.534,336.654,419.249,285.364,421.818,277.1z"/>
	<path fill="#E7BAA5" d="M446.008,416.917c-6.18,3.035-15.036,1.522-21.575-0.897c-1.358,14.553,19.149,35.793,32.191,21.33
		c8.242-9.137,7.284-25.11,0.958-35.274C454.326,407.597,452.183,413.887,446.008,416.917z"/>
	<path fill="#E7BAA5" d="M493.837,304.009c1.508,7.012,17.089,3.863,20.229-1.639c3.335-5.847-2.386-9.679-7.921-8.161
		c-2.633,0.721-5.604,2.039-7.866,3.961c1.846,0.112,3.492,0.431,4.76,0.985c1.315,0.573-3.126,1.739-7.855,3.354
		c-0.071,0.212-0.178,0.407-0.233,0.626C494.798,303.742,494.324,304.001,493.837,304.009z"/>
	<path fill="#E7BAA5" d="M451.852,261.42c4.948-9.903,6.491-27.627-7.136-31.337c-8.792-2.393-26.554-7.02-31.718,3.078
		c-0.155,0.304-0.38,0.464-0.626,0.55c-1.675,10.124-1.92,22.879,6.001,30.581C427.967,273.616,445.249,274.622,451.852,261.42z"/>
	<path fill="#E7BAA5" d="M384.541,292.327c-1.503,3.033-3.568,7.322-4.268,11.444c1.863-2.31,3.747-4.603,5.685-6.86
		c3.29-3.827,6.703-7.564,10.298-11.147c0.592-0.588,1.237-1.163,1.898-1.739c0.29-1.87,0.385-3.699,0.407-5.564
		C391.989,279.256,387.125,287.127,384.541,292.327z"/>
	<path fill="#E7BAA5" d="M389.703,226.71c-1.334-5.16-14.36-3.071-17.95-2.407c-6.963,1.282-13.977,3.385-13.475,11.965
		c0.542,9.303,8.946,18.292,19.082,14.812c9.917-3.411,16.477-13.652,13.057-23.576C390.093,227.387,389.817,227.142,389.703,226.71
		z"/>
	<path fill="#FFFFFF" d="M413.193,344.868c-0.666-3.787-1.392-8.012-2.638-12.826c7.383-5.095,24.789-20.393,31.471-35.522
		c1.596,4.61,2.769,19.96,2.462,22.365C437.456,334.178,423.427,343.507,413.193,344.868z"/>
	<path fill="#141112" d="M358.002,228.239c-1.503,10.685,5.052,16.166,10.459,17.327c7.236,1.551,15.505-0.647,20.667-5.828
		c6.779-6.81,7.514-22.31-5-26.58C371.306,208.783,359.512,217.549,358.002,228.239z"/>
	<path fill="#FFFFFF" d="M389.047,226.424c-0.174,7.046-2.961,12.529-12.671,14.144c-6.837,1.135-13.568-4.296-13.568-9.769
		c0-7.288,4.096-13.314,11.63-14.724C381.972,214.666,389.225,219.381,389.047,226.424z"/>
	<path fill="#141112" d="M412.51,224.595c-2.521,3.466-4.703,9.71-4.082,15.681c0.614,5.904,1.071,9.265,3.994,13.992
		c2.921,4.726,8.468,8.611,14.046,11.232c7.752,3.642,16.972,2.859,12.719,0.954c-2.288-1.025-8.425-2.819-11.877-5.224
		c-2.305-1.608-5.806-4.836-7.446-7.043c22.42,8.454,42.656-6.18,35.974-26.249C450.92,213.158,424.53,208.053,412.51,224.595z"/>
	<path fill="#FFFFFF" d="M421.728,248.216c-7.533-3.894-8.911-13.996-5.1-20.626c4.596-7.99,14.574-9.917,22.365-7.726
		c11.927,3.354,15.007,14.686,10.138,22.891C444.305,250.88,429.259,252.114,421.728,248.216z"/>
	<path fill="#141112" d="M377.767,223.931c-5.055,0-5.138,7.043-0.086,7.129C382.334,231.136,382.424,223.931,377.767,223.931z"/>
	<path fill="#141112" d="M433.693,236.284c5.05-0.169,5.312-7.543,0.086-7.379C428.548,229.069,429.036,236.436,433.693,236.284z"/>
	<path fill="#141112" d="M472.502,213.225c0.683-3.625,5.336-20.871,1.035-41.445c-1.917-9.182-5.802-13.652-11.078-16.446
		c-5.276-2.795-10.638-3.525-12.182,1.889c-1.706,6.006,4.8,3.701,10.776,8.637c6.059,4.998,6.506,12.657,7.562,20.883
		c1.054,8.221-0.04,27.315-0.214,30.441C468.223,220.308,471.815,216.847,472.502,213.225z"/>
	<path fill="#141112" d="M404.92,163.973c6.649-2.238,12.691-1.073,11.007-5.55c-1.684-4.481-9.938-2.693-13.114-1.687
		c-11.306,3.599-19.28,12.598-24.967,22.037c-3.863,6.413-8.036,17.638-5.978,18.418
		C374.767,198.288,381.014,172.032,404.92,163.973z"/>
	<path fill="#141112" d="M453.558,402.464c-3.606-0.007-3.744,5.58-5.426,7.805c-3.459,3.837-8.718,4.898-13.882,4.401
		c-2.966-0.428-8.801-4.272-11.468-2.609c-4.16,2.595-0.312,5.899,2.609,7.136c7.108,3.012,15.961,3.147,22.857-0.454
		C451.84,416.867,463.853,402.464,453.558,402.464z"/>
	<path fill="#F6E6DB" d="M420.298,124.826c6.758-5.709,40.907-27.186,66.083-27.7C511.556,96.612,370.471,166.884,420.298,124.826z"
		/>
	<path fill="#F6E6DB" d="M516.28,283.311c5.676-1.439,27.277-2.05,28.323,5.131C545.65,295.624,502.117,286.903,516.28,283.311z"/>
	<path fill="#F6E6DB" d="M468.551,243.817c2.012-1.641,20.457,0,20.978,6.156C490.055,256.13,465.404,246.382,468.551,243.817z"/>
	<path fill="#F6E6DB" d="M312.252,312.548c14.486-14.572,30.417-27.186,39.86-29.748c9.444-2.564-7.343,21.539-32.517,47.698
		c-25.176,26.161-41.437,32.831-40.386,28.212C280.258,354.093,293.891,331.012,312.252,312.548z"/>
	<path fill="#F6E6DB" d="M441.276,466.419c8.211,1.694,18.361,18.464,4.196,18.464C431.31,484.882,421.345,462.315,441.276,466.419z
		"/>
	<path fill="#141112" d="M489.089,236.193c-7.307-3.354-14.836-2.443-22.512,1.458c-1.453,0.735-3.03,3.356-1.582,2.621
		c6.805-3.454,14.7-4.955,21.801-2.05C488.294,238.836,490.568,236.874,489.089,236.193z"/>
	<path fill="#141112" d="M481.484,242.314c-5.621-1.56-9.489-1.401-15.057,0.585c-1.522,0.545-3.273,2.662-1.734,2.115
		c5.176-1.846,10.357-1.451,15.585,0C481.853,245.451,483.052,242.752,481.484,242.314z"/>
	<path fill="#141112" d="M468.07,460.153c-7.115-10.271-19.434-13.628-31.326-10.317c-1.572,0.438-0.901,2.828,0.673,2.391
		c9.834-2.74,19.187-0.733,26.356,6.556c5.281,5.361,11.608,19.032,5.98,25.738c-1.03,1.225,0.754,2.99,1.791,1.753
		C477.581,479.083,472.733,466.883,468.07,460.153z"/>
	<path fill="#141112" d="M469.971,454.261c-1.137-1.149-2.928,0.604-1.791,1.753c5.966,6.025,9.82,13.121,9.068,21.689
		c-0.141,1.594,2.398,1.582,2.536,0C480.59,468.517,476.365,460.722,469.971,454.261z"/>
	<path fill="#141112" d="M474.476,120.288c-26.92-7.163-55.788-6.772-76.055,14.432c-0.768,0.806-0.147,1.872,0.673,2.084
		c-4.981,2.605-9.834,5.483-14.577,8.492c-1.365,0.868-0.097,3.014,1.277,2.141c12.572-7.974,25.75-15.133,40.567-18.085
		c16.525-3.287,32.662,1.565,46.794,9.879c1.404,0.826,0.036-1.791-1.361-2.614c-13.583-7.993-26.352-12.491-42.344-10.238
		c-10.172,1.43-19.634,4.972-28.633,9.52c19.677-19.967,49.989-20.333,75.786-13.468
		C478.185,122.847,476.053,120.706,474.476,120.288z"/>
	<path fill="#141112" d="M508.918,241.879c-1.265-0.985-3.728-0.742-2.45,0.252c5.036,3.923,5.38,11.09,1.049,15.685
		c-1.106,1.175,0.683,2.931,1.791,1.753C514.489,254.074,515.057,246.66,508.918,241.879z"/>
	<path fill="#141112" d="M514.881,234.443c-1.349-0.909-3.199-0.714-1.863,0.188c5.897,3.98,2.545,11.516,1.513,17.068
		c-0.29,1.56,2.153,2.229,2.445,0.656C518.266,245.404,522.077,239.3,514.881,234.443z"/>
	<path fill="#141112" d="M520.842,228.903c-1.016-1.251-3.316-1.855-2.312-0.618c5.623,6.927,2.462,14.287,2.253,22.203
		c-0.045,1.599,2.491,1.594,2.533,0C523.554,241.591,527.053,236.555,520.842,228.903z"/>
</g>
</svg>
