<?xml version="1.0" encoding="utf-8"?>
<!-- Generator: Adobe Illustrator 17.0.0, SVG Export Plug-In . SVG Version: 6.00 Build 0)  -->
<!DOCTYPE svg PUBLIC "-//W3C//DTD SVG 1.1//EN" "http://www.w3.org/Graphics/SVG/1.1/DTD/svg11.dtd">
<svg version="1.1" id="Layer_1" xmlns="http://www.w3.org/2000/svg" xmlns:xlink="http://www.w3.org/1999/xlink" x="0px" y="0px"
	 width="800px" height="600px" viewBox="0 0 800 600" enable-background="new 0 0 800 600" xml:space="preserve">
<g>
	<g>
		<path d="M636.902,387.332c-9.578,40.098-17.006,47.971,1.019,54.302c14.168,4.978,27.491,14.156,40.01,25.297
			c-46.825-24.589-97.745-37.626-147.795-36.759c-47.175,0.815-93.613,14.008-135.147,41.545
			c10.923-11.651,23.55-19.206,35.641-26.812c14.369-9.042,11.596-14.589,1.379-56.327c-4.532-18.485-7.007-38.507-7.007-59.391
			c0-46.093,12.042-87.889,31.51-118.197c19.788-30.803,47.287-49.856,77.793-49.856c30.51,0,58.003,19.052,77.795,49.856
			c19.469,30.308,31.512,72.104,31.512,118.197C643.612,349.589,641.244,369.181,636.902,387.332L636.902,387.332z M455.453,190.314
			c31.312-64.233,119.587-69.332,165.978-4.669C567.401,138.135,505.161,135.12,455.453,190.314L455.453,190.314z"/>
		
			<linearGradient id="SVGID_1_" gradientUnits="userSpaceOnUse" x1="-368.459" y1="678.9717" x2="-368.459" y2="1031.1327" gradientTransform="matrix(-0.7536 0 0 0.7536 256.6489 -342.9901)">
			<stop  offset="0" style="stop-color:#FFFFFF"/>
			<stop  offset="0.2175" style="stop-color:#F9F9F9"/>
			<stop  offset="0.5058" style="stop-color:#E8E9EA"/>
			<stop  offset="0.8325" style="stop-color:#CDCED0"/>
			<stop  offset="1" style="stop-color:#BCBEC0"/>
		</linearGradient>
		<path fill="url(#SVGID_1_)" d="M457.319,434.036c-7.625-13.902-13.77-29.844-18.023-47.22
			c-4.369-17.865-6.773-37.293-6.773-57.626c0-44.642,11.585-84.994,30.316-114.144c18.409-28.659,43.687-46.386,71.467-46.386
			c27.784,0,53.062,17.727,71.471,46.386c18.725,29.15,30.316,69.501,30.316,114.144c0,19.889-2.294,38.894-6.478,56.412
			c-4.163,17.417-10.204,33.408-17.734,47.372c-27.01-7.219-54.552-10.775-81.861-10.299
			C505.403,423.1,480.987,426.803,457.319,434.036L457.319,434.036z"/>
		<path fill="#939598" d="M457.319,434.033c-1.569-2.853-3.068-5.797-4.513-8.818c6.695-2.189,13.571-4.192,20.618-5.991
			c56.184-14.359,109.402-12.37,144.031,2.439c-1.757,3.902-3.614,7.677-5.575,11.311c-27.01-7.219-54.552-10.77-81.861-10.299
			C505.403,423.1,480.987,426.803,457.319,434.033L457.319,434.033z"/>
		
			<linearGradient id="SVGID_2_" gradientUnits="userSpaceOnUse" x1="-272.3029" y1="1198.5488" x2="-272.3029" y2="979.6083" gradientTransform="matrix(-0.7536 0 0 0.7536 330.231 -478.6639)">
			<stop  offset="0" style="stop-color:#00355C"/>
			<stop  offset="1" style="stop-color:#006EA9"/>
		</linearGradient>
		<path fill="url(#SVGID_2_)" d="M567.595,424.522c-12.526-1.435-25.079-2.064-37.577-1.848c-8.974,0.156-17.926,0.747-26.816,1.786
			c-15.471-16.172-25.65-43.652-25.65-74.837c0-49.757,25.911-90.087,57.877-90.087c31.957,0,57.877,40.33,57.877,90.087
			C593.306,380.846,583.101,408.36,567.595,424.522L567.595,424.522z"/>
		<path fill="#002643" d="M567.595,424.522c-12.526-1.435-25.079-2.064-37.577-1.848c-8.974,0.156-17.926,0.747-26.816,1.786
			c-2.851-2.973-5.514-6.335-7.973-10.027c29.724-5.475,58.003-6.331,82.38-3.128C574.606,416.278,571.249,420.713,567.595,424.522
			L567.595,424.522z"/>
		<path fill="#005280" d="M559.7,423.724c17.302-13.761,29.154-41.777,29.154-74.101c0-1.256-0.023-2.505-0.057-3.748
			c-1.08,37.514-18.12,68.555-40.803,77.067C551.897,423.121,555.797,423.383,559.7,423.724L559.7,423.724z M522.745,422.897
			c-22.626-8.575-39.613-39.573-40.685-77.022c-0.032,1.243-0.055,2.492-0.055,3.748c0,32.273,11.809,60.25,29.062,74.035
			C514.954,423.321,518.842,423.067,522.745,422.897L522.745,422.897z"/>
		<path d="M535.429,297.327c-18.554,0-33.597,23.412-33.597,52.296c0,28.884,15.043,52.296,33.597,52.296
			c18.554,0,33.599-23.412,33.599-52.296C569.028,320.739,553.983,297.327,535.429,297.327L535.429,297.327z"/>
		<path fill-rule="evenodd" clip-rule="evenodd" fill="#2E9EFF" d="M535.429,261.944c-18.333,0-34.508,14.376-44.137,36.277
			c10.284-19.341,26.23-31.76,44.137-31.76c17.898,0,33.85,12.419,44.126,31.76C569.935,276.321,553.762,261.944,535.429,261.944
			L535.429,261.944z"/>
		<path fill="#FFFFFF" d="M542.537,296.666c-5.457,3.773-5.114,13.712,0.757,22.198c5.871,8.489,15.05,12.313,20.501,8.541
			c5.457-3.771,5.115-13.71-0.757-22.197C557.167,296.718,547.988,292.895,542.537,296.666L542.537,296.666z"/>
		<path fill="#FFFFFF" d="M511.734,386.599c-2.003,1.779-1.385,5.753,1.383,8.875c2.773,3.124,6.642,4.211,8.65,2.433
			c2.001-1.779,1.385-5.754-1.385-8.877C517.613,385.907,513.741,384.82,511.734,386.599L511.734,386.599z"/>
	</g>
	<g>
		<path d="M147.093,383.707c-4.346-18.151-6.714-37.743-6.714-58.145c0-46.092,12.043-87.889,31.514-118.197
			c19.792-30.803,47.285-49.856,77.791-49.856c30.51,0,58.008,19.052,77.795,49.856c19.469,30.308,31.512,72.105,31.512,118.197
			c0,20.883-2.476,40.906-7.005,59.391c-10.219,41.738-12.994,47.285,1.377,56.327c12.091,7.605,24.718,15.162,35.639,26.812
			c-41.532-27.538-87.97-40.73-135.147-41.545c-50.05-0.867-100.97,12.17-147.793,36.76c12.519-11.142,25.84-20.32,40.012-25.298
			C164.094,431.678,156.671,423.805,147.093,383.707L147.093,383.707z M328.539,186.689c-49.71-55.194-111.949-52.178-165.98-4.669
			C208.951,117.357,297.227,122.457,328.539,186.689L328.539,186.689z"/>
		
			<linearGradient id="SVGID_3_" gradientUnits="userSpaceOnUse" x1="-58.8699" y1="674.1611" x2="-58.8699" y2="1026.3221" gradientTransform="matrix(0.7536 0 0 0.7536 294.0478 -342.9901)">
			<stop  offset="0" style="stop-color:#FFFFFF"/>
			<stop  offset="0.2175" style="stop-color:#F9F9F9"/>
			<stop  offset="0.5058" style="stop-color:#E8E9EA"/>
			<stop  offset="0.8325" style="stop-color:#CDCED0"/>
			<stop  offset="1" style="stop-color:#BCBEC0"/>
		</linearGradient>
		<path fill="url(#SVGID_3_)" d="M326.674,430.411c7.625-13.902,13.77-29.844,18.021-47.221c4.373-17.865,6.773-37.293,6.773-57.625
			c0-44.643-11.583-84.995-30.314-114.144c-18.409-28.658-43.688-46.386-71.471-46.386c-27.782,0-53.057,17.728-71.465,46.386
			c-18.727,29.15-30.316,69.501-30.316,114.144c0,19.889,2.29,38.893,6.474,56.411c4.161,17.417,10.206,33.409,17.736,47.372
			c27.01-7.221,54.551-10.775,81.859-10.299C278.59,419.476,303.007,423.178,326.674,430.411L326.674,430.411z"/>
		<path fill="#939598" d="M326.674,430.407c1.567-2.853,3.07-5.797,4.515-8.818c-6.699-2.189-13.573-4.192-20.618-5.991
			c-56.184-14.359-109.404-12.37-144.033,2.439c1.754,3.902,3.612,7.677,5.575,11.312c27.01-7.221,54.551-10.771,81.859-10.299
			C278.59,419.476,303.007,423.178,326.674,430.407L326.674,430.407z"/>
		
			<linearGradient id="SVGID_4_" gradientUnits="userSpaceOnUse" x1="37.2864" y1="1193.7395" x2="37.2864" y2="974.7977" gradientTransform="matrix(0.7536 0 0 0.7536 220.4663 -478.6639)">
			<stop  offset="0" style="stop-color:#00355C"/>
			<stop  offset="1" style="stop-color:#006EA9"/>
		</linearGradient>
		<path fill="url(#SVGID_4_)" d="M216.397,420.898c12.527-1.436,25.078-2.066,37.576-1.848c8.975,0.155,17.926,0.747,26.82,1.785
			c15.469-16.172,25.648-43.652,25.648-74.838c0-49.755-25.909-90.086-57.877-90.086c-31.959,0-57.875,40.331-57.875,90.086
			C190.688,377.221,200.892,404.735,216.397,420.898L216.397,420.898z"/>
		<path fill="#002643" d="M216.397,420.898c12.527-1.436,25.078-2.066,37.576-1.848c8.975,0.155,17.926,0.747,26.82,1.785
			c2.849-2.973,5.512-6.335,7.967-10.027c-29.722-5.475-57.999-6.331-82.375-3.128C209.384,412.653,212.743,417.088,216.397,420.898
			L216.397,420.898z"/>
		<path fill="#005280" d="M224.29,420.099c3.905-0.341,7.804-0.602,11.708-0.782c-22.685-8.512-39.725-39.554-40.805-77.067
			c-0.034,1.243-0.055,2.492-0.055,3.747C195.139,378.323,206.99,406.338,224.29,420.099L224.29,420.099z M261.247,419.273
			c3.903,0.168,7.79,0.422,11.678,0.76c17.253-13.785,29.062-41.763,29.062-74.036c0-1.255-0.021-2.504-0.055-3.747
			C300.858,379.699,283.875,410.697,261.247,419.273L261.247,419.273z"/>
		<path d="M248.563,293.702c18.554,0,33.597,23.413,33.597,52.295c0,28.884-15.043,52.298-33.597,52.298
			c-18.554,0-33.597-23.413-33.597-52.298C214.967,317.115,230.009,293.702,248.563,293.702L248.563,293.702z"/>
		<path fill-rule="evenodd" clip-rule="evenodd" fill="#2E9EFF" d="M248.563,258.318c18.333,0,34.506,14.377,44.133,36.278
			c-10.28-19.341-26.228-31.76-44.133-31.76c-17.9,0-33.853,12.419-44.126,31.76C214.058,272.695,230.23,258.318,248.563,258.318
			L248.563,258.318z"/>
		<path fill="#FFFFFF" d="M241.454,293.042c5.457,3.772,5.114,13.711-0.757,22.197c-5.87,8.49-15.052,12.313-20.501,8.541
			c-5.455-3.771-5.113-13.709,0.757-22.197C226.824,293.093,236.002,289.27,241.454,293.042L241.454,293.042z"/>
		<path fill="#FFFFFF" d="M272.258,382.975c2.001,1.778,1.383,5.753-1.383,8.874c-2.775,3.124-6.642,4.211-8.65,2.433
			c-2.005-1.779-1.385-5.753,1.383-8.877C266.381,382.283,270.248,381.195,272.258,382.975L272.258,382.975z"/>
	</g>
</g>
</svg>
