<?xml version="1.0" encoding="utf-8"?>
<!-- Generator: Adobe Illustrator 17.0.0, SVG Export Plug-In . SVG Version: 6.00 Build 0)  -->
<!DOCTYPE svg PUBLIC "-//W3C//DTD SVG 1.1//EN" "http://www.w3.org/Graphics/SVG/1.1/DTD/svg11.dtd">
<svg version="1.1" id="Layer_1" xmlns="http://www.w3.org/2000/svg" xmlns:xlink="http://www.w3.org/1999/xlink" x="0px" y="0px"
	 width="800px" height="600px" viewBox="0 0 800 600" enable-background="new 0 0 800 600" xml:space="preserve">
<g>
	<g>
		<g>
			<defs>
				<path id="SVGID_1_" d="M354.889,510.557c1.434-4.794,2.153-7.879,2.153-9.254c0-2.722-0.302-12.095-1.814-14.865
					c-1.512-2.769-1.814-7.861-3.931-10.631c-2.116-2.769-1.512-3.676-1.512-4.583c0-0.908,1.512-3.931,3.931-4.536
					c2.419-0.605,9.119-0.302,10.933,1.209c1.814,1.512,4.233,3.676,4.233,6.398c0,2.721,0.35,9.724,1.56,11.841
					c1.209,2.116,3.931,7.608,1.512,11.236c-2.419,3.628-5.491,7.607-6.095,10.329c-0.115,0.515-0.197,1.518-0.254,2.856H354.889z"
					/>
			</defs>
			<clipPath id="SVGID_2_">
				<use xlink:href="#SVGID_1_"  overflow="visible"/>
			</clipPath>
			<g clip-path="url(#SVGID_2_)">
				<g>
					<defs>
						<path id="SVGID_3_" d="M354.889,510.557c1.434-4.794,2.153-7.879,2.153-9.254c0-2.722-0.302-12.095-1.814-14.865
							c-1.512-2.769-1.814-7.861-3.931-10.631c-2.116-2.769-1.512-3.676-1.512-4.583c0-0.908,1.512-3.931,3.931-4.536
							c2.419-0.605,9.119-0.302,10.933,1.209c1.814,1.512,4.233,3.676,4.233,6.398c0,2.721,0.35,9.724,1.56,11.841
							c1.209,2.116,3.931,7.608,1.512,11.236c-2.419,3.628-5.491,7.607-6.095,10.329c-0.115,0.515-0.197,1.518-0.254,2.856H354.889z
							"/>
					</defs>
					<clipPath id="SVGID_4_">
						<use xlink:href="#SVGID_3_"  overflow="visible"/>
					</clipPath>
					<g clip-path="url(#SVGID_4_)">
						<polygon fill="#FFFFFF" points="349.705,466.396 372.924,466.396 372.924,510.557 349.705,510.557 349.705,466.396 						"/>
						<path fill="#FFFFFF" d="M308.272,442.399c-50.805,22.62-65.955,49.921-33.839,60.979
							c32.116,11.059,99.336,1.686,150.141-20.934c50.805-22.62,65.955-49.921,33.839-60.979
							C426.296,410.406,359.077,419.779,308.272,442.399z"/>
						<path fill="#FFFFFF" d="M313.271,444.193c-46.381,20.651-60.212,45.574-30.893,55.67
							c29.32,10.095,90.686,1.539,137.067-19.111c46.381-20.651,60.212-45.574,30.893-55.67
							C421.018,414.987,359.652,423.543,313.271,444.193z"/>
						<path fill="#FFFFFF" d="M318.406,445.948c-41.931,18.669-54.434,41.2-27.928,50.328c26.506,9.126,81.983,1.391,123.914-17.278
							c41.931-18.669,54.434-41.201,27.928-50.328C415.814,419.544,360.337,427.279,318.406,445.948z"/>
						<path fill="#FCFCFC" d="M319.312,446.277c-41.137,18.315-53.404,40.421-27.399,49.375
							c26.004,8.954,80.432,1.365,121.568-16.95c41.137-18.315,53.403-40.421,27.399-49.375
							C414.876,420.373,360.449,427.961,319.312,446.277z"/>
						<path fill="#F8F8F8" d="M320.176,446.568c-40.343,17.962-52.373,39.641-26.871,48.422
							c25.503,8.781,78.879,1.339,119.222-16.622c40.343-17.962,52.373-39.641,26.871-48.422
							C413.896,421.164,360.519,428.606,320.176,446.568z"/>
						<path fill="#F5F5F5" d="M321.083,446.897c-39.549,17.608-51.343,38.861-26.342,47.469c25,8.608,77.327,1.312,116.876-16.296
							c39.549-17.609,51.342-38.861,26.342-47.469C412.958,421.993,360.632,429.288,321.083,446.897z"/>
						<path fill="#F2F2F2" d="M321.989,447.188c-38.755,17.255-50.312,38.081-25.814,46.516
							c24.499,8.435,75.775,1.286,114.531-15.969c38.755-17.255,50.312-38.081,25.813-46.516
							C412.021,422.784,360.744,429.933,321.989,447.188z"/>
						<path fill="#EEEFEF" d="M322.933,447.517c-37.961,16.902-49.281,37.301-25.284,45.564
							c23.997,8.262,74.222,1.26,112.184-15.642c37.961-16.902,49.281-37.301,25.284-45.564
							C411.12,423.612,360.894,430.616,322.933,447.517z"/>
						<path fill="#EBEBEB" d="M323.839,447.846c-37.167,16.549-48.251,36.522-24.756,44.611
							c23.495,8.09,72.671,1.233,109.838-15.315c37.167-16.548,48.251-36.521,24.755-44.611
							C410.182,424.441,361.007,431.298,323.839,447.846z"/>
						<path fill="#E7E8E8" d="M324.746,448.137c-36.374,16.194-47.22,35.74-24.227,43.657c22.993,7.917,71.118,1.207,107.492-14.987
							c36.373-16.194,47.22-35.74,24.227-43.657C409.245,425.232,361.12,431.942,324.746,448.137z"/>
						<path fill="#E4E5E5" d="M325.652,448.466c-35.58,15.841-46.19,34.961-23.698,42.705c22.492,7.744,69.567,1.181,105.146-14.66
							c35.58-15.842,46.19-34.961,23.698-42.705C408.307,426.061,361.232,432.625,325.652,448.466z"/>
						<path fill="#E1E1E1" d="M326.559,448.757c-34.786,15.488-45.159,34.18-23.169,41.752c21.99,7.572,68.014,1.154,102.8-14.333
							c34.786-15.488,45.159-34.181,23.17-41.752C407.369,426.852,361.345,433.27,326.559,448.757z"/>
						<path fill="#DDDEDE" d="M327.465,449.086c-33.992,15.135-44.129,33.401-22.641,40.8c21.488,7.398,66.462,1.128,100.454-14.007
							c33.992-15.134,44.129-33.401,22.641-40.8C406.432,427.681,361.457,433.952,327.465,449.086z"/>
						<path fill="#DADBDB" d="M328.372,449.372c-33.199,14.781-43.098,32.621-22.112,39.847c20.986,7.226,64.91,1.102,98.109-13.679
							c33.199-14.781,43.098-32.621,22.112-39.847C405.494,428.467,361.57,434.592,328.372,449.372z"/>
						<path fill="#D7D7D8" d="M329.278,449.663c-32.405,14.428-42.068,31.841-21.583,38.894
							c20.484,7.054,63.358,1.076,95.762-13.352c32.404-14.428,42.067-31.841,21.583-38.894
							C404.556,429.259,361.682,435.236,329.278,449.663z"/>
						<path fill="#D3D4D4" d="M330.184,449.993c-31.611,14.074-41.037,31.06-21.055,37.941c19.982,6.88,61.806,1.049,93.417-13.025
							c31.611-14.074,41.037-31.061,21.054-37.941C403.618,430.087,361.795,435.918,330.184,449.993z"/>
						<path fill="#D0D1D1" d="M331.091,450.284c-30.817,13.721-40.006,30.28-20.526,36.988s60.254,1.023,91.071-12.698
							c30.817-13.72,40.006-30.28,20.526-36.988C402.681,430.878,361.908,436.563,331.091,450.284z"/>
						<path fill="#CCCECE" d="M332.035,450.613c-30.023,13.367-38.976,29.501-19.997,36.036
							c18.979,6.535,58.702,0.996,88.725-12.371c30.023-13.367,38.976-29.501,19.997-36.036
							C401.781,431.707,362.058,437.246,332.035,450.613z"/>
						<path fill="#C9CACA" d="M332.941,450.942c-29.229,13.013-37.945,28.72-19.468,35.082c18.477,6.363,57.149,0.97,86.378-12.044
							c29.229-13.014,37.945-28.72,19.468-35.083C400.843,432.536,362.17,437.928,332.941,450.942z"/>
						<path fill="#C6C7C7" d="M333.848,451.233c-28.435,12.66-36.915,27.941-18.94,34.129c17.975,6.19,55.597,0.944,84.033-11.717
							c28.435-12.66,36.915-27.94,18.94-34.129C399.905,433.327,362.283,438.572,333.848,451.233z"/>
						<path fill="#C2C4C4" d="M334.754,451.562c-27.642,12.307-35.884,27.161-18.411,33.177
							c17.473,6.017,54.045,0.918,81.687-11.389c27.642-12.307,35.884-27.161,18.411-33.177
							C398.968,434.155,362.395,439.255,334.754,451.562z"/>
						<path fill="#BFC0C1" d="M335.661,451.853c-26.848,11.953-34.854,26.381-17.882,32.224
							c16.971,5.844,52.493,0.891,79.341-11.062c26.848-11.953,34.854-26.381,17.882-32.224
							C398.03,434.947,362.508,439.9,335.661,451.853z"/>
						<path fill="#BCBDBD" d="M336.567,452.182c-26.054,11.6-33.823,25.6-17.353,31.271c16.47,5.671,50.941,0.864,76.995-10.736
							c26.054-11.6,33.823-25.6,17.353-31.272C397.092,435.776,362.621,440.582,336.567,452.182z"/>
						<path fill="#B8BABA" d="M337.474,452.511c-25.26,11.247-32.793,24.821-16.825,30.319c15.968,5.498,49.389,0.839,74.649-10.408
							c25.26-11.247,32.792-24.821,16.824-30.319C396.154,436.604,362.734,441.264,337.474,452.511z"/>
						<path fill="#B5B7B7" d="M338.38,452.802c-24.466,10.893-31.762,24.041-16.296,29.366c15.466,5.325,47.837,0.812,72.303-10.081
							c24.466-10.893,31.762-24.04,16.296-29.366C395.217,437.395,362.846,441.909,338.38,452.802z"/>
						<path fill="#B2B3B3" d="M339.286,453.131c-23.672,10.54-30.731,23.26-15.767,28.413c14.964,5.152,46.285,0.785,69.957-9.754
							c23.672-10.54,30.731-23.26,15.767-28.413C394.279,438.224,362.958,442.591,339.286,453.131z"/>
						<path fill="#AEB0B0" d="M340.193,453.46c-22.879,10.186-29.701,22.48-15.239,27.461c14.463,4.979,44.733,0.759,67.611-9.427
							c22.879-10.187,29.701-22.481,15.239-27.461C393.341,439.053,363.071,443.274,340.193,453.46z"/>
						<path fill="#ABADAD" d="M341.099,453.751c-22.085,9.833-28.671,21.701-14.71,26.508c13.96,4.807,43.181,0.732,65.265-9.1
							c22.085-9.833,28.671-21.7,14.71-26.508C392.404,439.844,363.184,443.918,341.099,453.751z"/>
						<path fill="#A7A9AA" d="M342.043,454.08c-21.291,9.48-27.64,20.921-14.181,25.555c13.459,4.634,41.629,0.707,62.919-8.773
							c21.291-9.479,27.64-20.92,14.181-25.555C391.503,440.673,363.334,444.6,342.043,454.08z"/>
						<path fill="#A4A6A6" d="M342.949,454.371c-20.497,9.126-26.609,20.14-13.652,24.601c12.957,4.461,40.076,0.681,60.573-8.445
							c20.497-9.126,26.609-20.141,13.652-24.602C390.565,441.464,363.447,445.246,342.949,454.371z"/>
						<path fill="#A1A3A3" d="M343.856,454.7c-19.703,8.772-25.579,19.361-13.124,23.649c12.456,4.288,38.524,0.654,58.227-8.119
							c19.703-8.772,25.579-19.361,13.123-23.649C389.628,442.293,363.559,445.928,343.856,454.7z"/>
						<path fill="#9D9FA0" d="M344.762,455.029c-18.91,8.42-24.548,18.581-12.595,22.697c11.953,4.115,36.972,0.627,55.881-7.792
							c18.91-8.419,24.548-18.581,12.595-22.697C388.69,443.122,363.672,446.61,344.762,455.029z"/>
						<path fill="#9A9C9D" d="M345.669,455.32c-18.116,8.065-23.518,17.8-12.066,21.743c11.452,3.943,35.42,0.601,53.536-7.464
							c18.116-8.066,23.518-17.801,12.066-21.743C387.753,443.913,363.784,447.254,345.669,455.32z"/>
						<path fill="#979999" d="M346.575,455.649c-17.322,7.713-22.487,17.02-11.537,20.791c10.95,3.77,33.868,0.575,51.189-7.137
							c17.322-7.712,22.487-17.02,11.537-20.791C386.815,444.741,363.897,447.937,346.575,455.649z"/>
						<path fill="#939696" d="M347.481,455.94c-16.528,7.359-21.457,16.24-11.009,19.838c10.448,3.598,32.316,0.549,48.844-6.81
							c16.528-7.358,21.456-16.24,11.009-19.838C385.877,445.533,364.009,448.582,347.481,455.94z"/>
						<path fill="#909293" d="M348.388,456.27c-15.734,7.005-20.426,15.46-10.48,18.885c9.946,3.425,30.764,0.522,46.498-6.483
							c15.734-7.006,20.426-15.46,10.479-18.885C384.939,446.362,364.122,449.264,348.388,456.27z"/>
						<path fill="#8D8F8F" d="M349.251,456.598c-14.94,6.652-19.395,14.681-9.951,17.933c9.444,3.252,29.211,0.496,44.151-6.157
							c14.94-6.652,19.396-14.68,9.951-17.932C383.959,447.19,364.192,449.946,349.251,456.598z"/>
						<path fill="#898C8C" d="M350.158,456.889c-14.147,6.299-18.365,13.9-9.423,16.98c8.943,3.079,27.66,0.469,41.806-5.829
							c14.147-6.298,18.365-13.9,9.423-16.979C383.021,447.981,364.305,450.591,350.158,456.889z"/>
						<path fill="#868889" d="M351.065,457.218c-13.353,5.945-17.335,13.121-8.894,16.027c8.441,2.907,26.107,0.444,39.46-5.501
							c13.353-5.945,17.335-13.121,8.894-16.027C382.084,448.81,364.417,451.274,351.065,457.218z"/>
						<path fill="#828586" d="M352.009,457.51c-12.559,5.591-16.304,12.34-8.365,15.073c7.939,2.734,24.555,0.417,37.113-5.174
							c12.559-5.592,16.304-12.34,8.365-15.074C381.183,449.602,364.567,451.918,352.009,457.51z"/>
						<path fill="#828586" d="M359.197,459.984c-6.279,2.796-8.152,6.171-4.183,7.537s12.278,0.208,18.557-2.587
							c6.279-2.796,8.152-6.171,4.182-7.537C373.785,456.03,365.476,457.189,359.197,459.984z"/>
					</g>
				</g>
			</g>
			
				<use xlink:href="#SVGID_1_"  overflow="visible" fill-rule="evenodd" clip-rule="evenodd" fill="none" stroke="#FFFFFF" stroke-width="1.02" stroke-miterlimit="3.8637"/>
		</g>
	</g>
	<g>
		<g>
			<defs>
				<path id="SVGID_5_" d="M411.703,510.557c-0.178-0.535-0.527-0.994-0.873-1.34c-1.512-1.512-2.721-3.628-3.024-5.443
					c-0.302-1.814,1.209-5.793,2.721-8.514c1.512-2.722,3.374-5.793,3.374-8.213c0-2.419,0.935-9.842,0.935-9.842l2.089,0.723
					c0,0,0.605,4.886,1.209,3.071c0.605-1.814,8.817-5.793,10.329-5.793h7.305c1.814,0,2.116,2.467,2.116,3.677
					c0,1.209,0.049,2.419-1.814,3.931c-1.863,1.512-3.979,4.281-5.491,8.212c-1.512,3.931-2.419,10.934-3.931,13.957
					c-0.978,1.956-1.323,3.931-1.609,5.574H411.703z"/>
			</defs>
			<clipPath id="SVGID_6_">
				<use xlink:href="#SVGID_5_"  overflow="visible"/>
			</clipPath>
			<g clip-path="url(#SVGID_6_)">
				<g>
					<defs>
						<path id="SVGID_7_" d="M411.703,510.557c-0.178-0.535-0.527-0.994-0.873-1.34c-1.512-1.512-2.721-3.628-3.024-5.443
							c-0.302-1.814,1.209-5.793,2.721-8.514c1.512-2.722,3.374-5.793,3.374-8.213c0-2.419,0.935-9.842,0.935-9.842l2.089,0.723
							c0,0,0.605,4.886,1.209,3.071c0.605-1.814,8.817-5.793,10.329-5.793h7.305c1.814,0,2.116,2.467,2.116,3.677
							c0,1.209,0.049,2.419-1.814,3.931c-1.863,1.512-3.979,4.281-5.491,8.212c-1.512,3.931-2.419,10.934-3.931,13.957
							c-0.978,1.956-1.323,3.931-1.609,5.574H411.703z"/>
					</defs>
					<clipPath id="SVGID_8_">
						<use xlink:href="#SVGID_7_"  overflow="visible"/>
					</clipPath>
					<g clip-path="url(#SVGID_8_)">
						<polygon fill="#FFFFFF" points="407.767,475.206 437.886,475.206 437.886,510.557 407.767,510.557 407.767,475.206 						"/>
						<path fill="#FFFFFF" d="M354.024,446.053c-40.669,18.107-39.867,44.413,1.792,58.757
							c41.659,14.344,108.397,11.294,149.066-6.813c40.669-18.107,39.867-44.413-1.791-58.758
							C461.431,424.896,394.693,427.946,354.024,446.053z"/>
						<path fill="#FFFFFF" d="M360.527,448.366c-37.128,16.531-36.396,40.546,1.635,53.641c38.031,13.095,98.958,10.31,136.086-6.22
							c37.128-16.531,36.395-40.546-1.636-53.641C458.581,429.051,397.654,431.836,360.527,448.366z"/>
						<path fill="#FFFFFF" d="M367.139,450.607c-33.585,14.954-32.922,36.677,1.48,48.523c34.402,11.845,89.515,9.327,123.1-5.627
							c33.585-14.953,32.922-36.677-1.479-48.522C455.836,433.136,400.723,435.654,367.139,450.607z"/>
						<path fill="#FBFBFB" d="M368.601,451.127c-32.8,14.604-32.153,35.821,1.446,47.389c33.598,11.569,87.424,9.108,120.225-5.495
							c32.8-14.604,32.153-35.82-1.445-47.389C455.227,434.063,401.402,436.523,368.601,451.127z"/>
						<path fill="#F7F7F7" d="M370.064,451.609c-32.016,14.255-31.384,34.964,1.411,46.256c32.795,11.292,85.333,8.891,117.35-5.364
							c32.016-14.254,31.384-34.963-1.411-46.256C454.619,434.953,402.08,437.355,370.064,451.609z"/>
						<path fill="#F3F3F3" d="M371.483,452.129c-31.232,13.905-30.616,34.107,1.376,45.122
							c31.992,11.016,83.243,8.673,114.475-5.232c31.232-13.906,30.616-34.107-1.376-45.122
							C453.966,435.881,402.715,438.223,371.483,452.129z"/>
						<path fill="#EEEFEF" d="M372.946,452.611c-30.447,13.556-29.847,33.25,1.341,43.989c31.188,10.739,81.152,8.455,111.6-5.101
							c30.447-13.556,29.846-33.251-1.342-43.99C453.357,436.771,403.393,439.055,372.946,452.611z"/>
						<path fill="#EAEBEB" d="M374.409,453.093c-29.663,13.207-29.078,32.394,1.307,42.856c30.385,10.462,79.061,8.237,108.724-4.97
							c29.663-13.206,29.078-32.393-1.307-42.856C452.749,437.661,404.072,439.886,374.409,453.093z"/>
						<path fill="#E6E7E7" d="M375.872,453.612c-28.878,12.858-28.309,31.537,1.273,41.722c29.581,10.185,76.971,8.02,105.849-4.838
							c28.879-12.857,28.309-31.537-1.272-41.723C452.14,438.588,404.75,440.755,375.872,453.612z"/>
						<path fill="#E2E3E3" d="M377.297,454.095c-28.094,12.508-27.54,30.68,1.238,40.589c28.778,9.909,74.881,7.801,102.975-4.707
							c28.094-12.509,27.54-30.681-1.238-40.59C451.494,439.479,405.391,441.586,377.297,454.095z"/>
						<path fill="#DEDEDF" d="M378.76,454.614c-27.31,12.159-26.771,29.824,1.203,39.455c27.974,9.633,72.79,7.584,100.1-4.575
							c27.31-12.16,26.771-29.824-1.203-39.456C450.885,440.406,406.069,442.455,378.76,454.614z"/>
						<path fill="#DADADB" d="M380.179,455.139c-26.525,11.81-26.002,28.968,1.168,38.323c27.171,9.356,70.699,7.367,97.224-4.443
							c26.526-11.81,26.002-28.968-1.169-38.324C450.233,441.34,406.704,443.329,380.179,455.139z"/>
						<path fill="#D5D6D6" d="M381.642,455.659c-25.741,11.461-25.233,28.111,1.134,37.19c26.367,9.078,68.608,7.148,94.349-4.313
							c25.741-11.46,25.234-28.11-1.133-37.189C449.624,442.267,407.383,444.198,381.642,455.659z"/>
						<path fill="#D1D2D2" d="M383.104,456.141c-24.957,11.111-24.464,27.255,1.099,36.057c25.564,8.802,66.518,6.93,91.475-4.181
							c24.956-11.111,24.464-27.254-1.099-36.056C449.015,443.158,408.061,445.03,383.104,456.141z"/>
						<path fill="#CDCECE" d="M384.567,456.661c-24.172,10.762-23.695,26.398,1.065,34.924c24.76,8.525,64.427,6.712,88.599-4.05
							c24.172-10.762,23.695-26.398-1.065-34.923C448.406,444.085,408.74,445.898,384.567,456.661z"/>
						<path fill="#C9CACA" d="M386.03,457.143c-23.388,10.413-22.927,25.541,1.03,33.79c23.957,8.249,62.336,6.494,85.724-3.918
							c23.388-10.413,22.926-25.541-1.03-33.79S409.418,446.73,386.03,457.143z"/>
						<path fill="#C5C6C6" d="M387.493,457.625c-22.603,10.064-22.158,24.684,0.996,32.656c23.153,7.973,60.246,6.278,82.849-3.787
							c22.604-10.064,22.158-24.684-0.996-32.656C447.189,445.865,410.096,447.56,387.493,457.625z"/>
						<path fill="#C1C2C2" d="M388.955,458.145c-21.819,9.714-21.389,23.827,0.961,31.523c22.35,7.695,58.155,6.059,79.974-3.656
							c21.818-9.715,21.388-23.828-0.962-31.523C446.58,446.793,410.774,448.43,388.955,458.145z"/>
						<path fill="#BDBEBE" d="M390.375,458.626c-21.035,9.366-20.62,22.971,0.927,30.391c21.546,7.418,56.064,5.841,77.098-3.524
							c21.035-9.366,20.62-22.972-0.926-30.39C445.927,447.683,411.41,449.261,390.375,458.626z"/>
						<path fill="#B8BABA" d="M391.837,459.146c-20.25,9.017-19.851,22.115,0.892,29.257c20.743,7.142,53.974,5.623,74.224-3.393
							c20.25-9.017,19.85-22.115-0.892-29.257C445.318,448.61,412.088,450.13,391.837,459.146z"/>
						<path fill="#B4B6B6" d="M393.3,459.628c-19.466,8.667-19.082,21.258,0.857,28.124c19.939,6.866,51.883,5.405,71.349-3.262
							c19.466-8.667,19.082-21.257-0.857-28.123C444.71,449.501,412.766,450.961,393.3,459.628z"/>
						<path fill="#B0B2B2" d="M394.763,460.147c-18.682,8.318-18.313,20.402,0.823,26.991c19.136,6.589,49.792,5.188,68.474-3.13
							c18.681-8.317,18.313-20.402-0.823-26.991C444.101,450.428,413.445,451.829,394.763,460.147z"/>
						<path fill="#ACAEAE" d="M396.226,460.629c-17.897,7.968-17.544,19.544,0.789,25.857c18.332,6.312,47.702,4.97,65.599-2.999
							c17.897-7.968,17.544-19.545-0.789-25.857C443.492,451.319,414.123,452.661,396.226,460.629z"/>
						<path fill="#A8AAAA" d="M397.689,461.112c-17.113,7.619-16.775,18.688,0.754,24.723c17.529,6.036,45.611,4.752,62.724-2.866
							c17.113-7.619,16.775-18.688-0.754-24.724C442.883,452.208,414.801,453.492,397.689,461.112z"/>
						<path fill="#A4A6A6" d="M399.151,461.631c-16.328,7.27-16.006,17.831,0.719,23.59c16.725,5.759,43.521,4.534,59.848-2.736
							c16.328-7.27,16.006-17.832-0.719-23.591C442.274,453.137,415.48,454.361,399.151,461.631z"/>
						<path fill="#9FA2A2" d="M400.571,462.113c-15.544,6.921-15.237,16.975,0.684,22.458c15.922,5.482,41.429,4.316,56.973-2.605
							c15.544-6.921,15.237-16.975-0.684-22.457C441.622,454.026,416.114,455.193,400.571,462.113z"/>
						<path fill="#9B9D9E" d="M402.033,462.632c-14.759,6.572-14.469,16.118,0.65,21.324c15.119,5.206,39.339,4.098,54.098-2.473
							c14.759-6.572,14.468-16.119-0.65-21.325C441.013,454.954,416.793,456.061,402.033,462.632z"/>
						<path fill="#97999A" d="M403.496,463.114c-13.975,6.222-13.699,15.262,0.615,20.191c14.315,4.929,37.248,3.881,51.223-2.342
							c13.975-6.222,13.699-15.261-0.616-20.19C440.404,455.844,417.471,456.892,403.496,463.114z"/>
						<path fill="#939596" d="M404.959,463.634c-13.191,5.873-12.931,14.405,0.581,19.058c13.511,4.652,35.157,3.663,48.348-2.21
							c13.191-5.873,12.93-14.405-0.581-19.058C439.796,456.771,418.15,457.761,404.959,463.634z"/>
						<path fill="#8F9192" d="M406.422,464.16c-12.406,5.523-12.162,13.549,0.547,17.924c12.708,4.376,33.066,3.445,45.473-2.079
							c12.406-5.523,12.162-13.548-0.546-17.924C439.187,457.705,418.828,458.636,406.422,464.16z"/>
						<path fill="#8B8D8E" d="M407.885,464.679c-11.622,5.174-11.392,12.692,0.512,16.791c11.905,4.1,30.976,3.227,42.598-1.947
							c11.622-5.174,11.393-12.692-0.512-16.792C438.578,458.633,419.506,459.504,407.885,464.679z"/>
						<path fill="#87898A" d="M409.347,465.161c-10.837,4.825-10.624,11.835,0.477,15.658c11.101,3.823,28.885,3.01,39.723-1.815
							c10.837-4.825,10.623-11.835-0.478-15.658C437.969,459.523,420.185,460.336,409.347,465.161z"/>
						<path fill="#828586" d="M410.767,465.643c-10.053,4.476-9.855,10.979,0.443,14.525c10.297,3.546,26.795,2.792,36.848-1.684
							c10.053-4.476,9.855-10.979-0.443-14.525C437.317,460.413,420.82,461.167,410.767,465.643z"/>
						<path fill="#828586" d="M420.091,468.853c-5.026,2.238-4.928,5.489,0.221,7.263c5.149,1.773,13.398,1.396,18.424-0.842
							c5.027-2.238,4.928-5.489-0.221-7.263C433.366,466.238,425.117,466.615,420.091,468.853z"/>
					</g>
				</g>
			</g>
			
				<use xlink:href="#SVGID_5_"  overflow="visible" fill-rule="evenodd" clip-rule="evenodd" fill="none" stroke="#FFFFFF" stroke-width="1.02" stroke-miterlimit="3.8637"/>
		</g>
	</g>
	<g>
		<path fill-rule="evenodd" clip-rule="evenodd" fill="#1A171B" d="M375.638,94.701c-1.567,1.418-1.981,0.865-3.136,0.535
			c-1.155-0.33-9.904-0.66-13.079,0.33c-3.176,0.99-7.758,3.466-11.594,6.272c-3.836,2.806-5.189,4.088-4.694,9.04
			c0.495,4.952,0.384,7.123,0.549,8.608c0.165,1.486,1.835,2.383,1.67,3.869c-0.165,1.486-0.658,2.459-1.177,5.234
			c-0.456,2.439,0.848,2.975,2.381,2.691c1.236-0.228,1.832,0.347,1.832,1.832c0,1.485-0.067,3.508,0.594,3.508
			c0.66,0,0.991,1.691,0.991,2.681c0,0.99,0.165,1.485,0.165,2.806c0,1.321,1.259,1.968,3.196,2.213
			c1.764,0.223,3.532-0.562,4.727-0.892c1.195-0.33,3.341,1.154,3.341,2.64c0,1.485-0.33,2.846-1.485,4.331
			c-1.156,1.485-4.486,4.622-6.111,4.622c-1.624,0-3.481,1.16-4.641,2.088c-1.16,0.928-1.188,1.624-3.509,1.856
			c-2.321,0.232-3.713,0.492-5.105,2.58c-1.392,2.088-7.453,16.762-8.381,23.492c-0.928,6.729-3.453,10.237-5.801,13.718
			c-2.348,3.481-2.529,3.698-3.034,5.046c-0.505,1.347-1.261,5.721-1.261,12.785c0,7.064-1.513,29.269-2.019,33.053
			c-0.504,3.785-0.504,8.159-1.009,12.196c-0.505,4.036-0.505,7.315,3.027,5.045c3.532-2.27,3.532-1.599,3.28,1.766
			c-0.252,3.365-0.505,13.543-1.766,24.224c-1.262,10.682-2.675,29.833-3.28,33.461c-0.605,3.628-1.512,12.748-1.814,14.864
			c-0.302,2.117,0,2.722,3.628,2.722c3.628,0,6.398,0.907,8.515,0.907c2.117,0,2.419,0.35,2.117,2.467
			c-0.302,2.116-1.21,4.536,0.302,4.536c1.512,0,7.91,0,7.91,0.605c0,0.605,0.605,9.676,0.302,13.957
			c-0.302,4.282,2.77,27.612,7.607,43.735c4.838,16.122,8.164,25.544,8.164,28.265c0,2.721-0.302,12.095-1.814,14.864
			c-1.512,2.77-1.814,7.862-3.931,10.631c-2.116,2.769-1.512,3.677-1.512,4.584c0,0.907,1.512,3.931,3.931,4.536
			c2.419,0.605,9.119,0.302,10.933-1.21c1.814-1.512,4.233-3.676,4.233-6.398c0-2.721,0.35-9.724,1.56-11.841
			c1.209-2.116,3.931-7.607,1.512-11.235c-2.419-3.629-5.491-7.608-6.095-10.329c-0.605-2.722-0.303-19.098-0.303-26.101
			s-0.605-24.588-2.117-31.289c-1.512-6.7-0.907-13.909-0.907-16.074c0-2.165,0.302-2.769,2.419-2.769
			c2.117,0,6.7,1.209,10.329,0.605s5.189-0.557,5.793,1.257c0.605,1.814,3.629,6.302,5.14,8.769
			c1.512,2.467,3.326,7.608,3.629,10.027c0.302,2.419,4.536,19.098,11.236,34.313c6.701,15.215,10.631,24.939,10.934,27.661
			c0.302,2.721,0.605,6.398-0.907,7.91c-1.512,1.512-2.721,3.629-3.024,5.443c-0.302,1.814,1.209,5.793,2.721,8.514
			c1.512,2.722,3.374,5.793,3.374,8.213c0,2.419,0.605,8.466,0.605,8.466l2.419,0.653c0,0,0.605-4.886,1.21-3.071
			c0.605,1.814,8.817,5.793,10.329,5.793c1.512,0,5.491,0,7.305,0c1.814,0,2.117-2.467,2.117-3.677c0-1.209,0.048-2.419-1.814-3.93
			c-1.862-1.512-3.979-4.282-5.491-8.213c-1.512-3.93-2.419-10.934-3.931-13.957c-1.512-3.024-1.512-6.096-2.117-7.91
			c-0.605-1.815-3.072-6.605-3.072-8.467c0-1.862-1.814-20.96-3.931-31.591c-2.117-10.631-5.491-30.733-8.212-36.176
			c-2.721-5.443-3.931-7.91-4.234-10.328c-0.302-2.419-1.512-5.14-1.814-7.258c-0.302-2.116,1.21-24.637,0.302-29.777
			c-0.907-5.14-2.467-17.936-3.072-22.471c-0.605-4.536-3.628-35.873-4.535-40.711c-0.907-4.838-0.907-10.934-2.419-14.563
			c-1.512-3.629-0.302-7.861,1.512-11.841c1.814-3.979,4.79-16.376,6.652-22.17c1.863-5.793,6.701-27.31,5.491-34.01
			c-1.209-6.701-3.677-15.215-7.305-16.425c-3.628-1.21-7.608-3.024-9.119-3.326c-1.512-0.302-3.024,0.302-3.326-0.605
			c-0.302-0.907-4.233-4.584-5.14-6.096c-0.907-1.512-3.677-2.117-3.677-2.117s0-5.188,0-7.305c0-2.116,2.77-4.838,3.677-6.047
			c0.907-1.209,5.443-7.607,6.652-8.817c1.21-1.21,1.512-6.398,0.605-8.515c-0.907-2.116-3.326-4.233-3.629-5.443
			c-0.302-1.209,1.512-1.161,1.512-2.419c0-1.257-1.512-1.257-2.721-2.165c-1.21-0.908-2.419-1.512-2.419-3.326
			c0-1.814-1.56-3.024-2.165-3.931C379.816,95.817,377.206,93.282,375.638,94.701z"/>
	</g>
	<g>
		<path fill-rule="evenodd" clip-rule="evenodd" fill="#FFFFFF" d="M361.082,146.095c0,0-3.941,9.682-4.191,10.297
			c-0.249,0.615-0.071,1.754-0.038,3.062s0.784,1.65,1.277,0.421c0.493-1.229,1.59-1.951,2.279-0.872
			c0.688,1.079,1.474,3.885,2.252,5.537c0.778,1.651,2.34,3.926,2.283,4.662c-0.057,0.736-0.634,12.458-0.298,14.597
			c0.335,2.14,1.155,2.915,1.469,0.543c0.314-2.373,0.435-8.21,0.855-8.846c0.419-0.636,5.248-10.57,5.636-12.509
			c0.388-1.94,0.794-4.902,1.965-6.217c1.171-1.315,1.908-2.131,1.908-2.131s1.452,0.393,2.633,0.244
			c1.182-0.15,5.563-0.851,6.75-1.001c1.187-0.151,2.753-0.053,2.235-1.154c-0.519-1.1-4.503-5.542-5.761-6.986
			c-1.259-1.444-2.699-2.865-3.633-1.143c-0.934,1.722-3.367,7.123-4.013,8.517c-0.646,1.394-0.513,2.246-1.904,3.298
			c-1.392,1.051-2.395,2.34-3.121,4.327c-0.726,1.987-2.433,5.401-2.954,6.487c-0.521,1.087-0.28-0.688-0.188-2.304
			c0.093-1.615-1.466-6.733-2.007-7.972c-0.54-1.239-1.254-3.987-1.478-5.416C362.812,150.106,361.082,146.095,361.082,146.095z"/>
	</g>
</g>
</svg>
