<?xml version="1.0" encoding="utf-8"?>
<!-- Generator: Adobe Illustrator 17.0.0, SVG Export Plug-In . SVG Version: 6.00 Build 0)  -->
<!DOCTYPE svg PUBLIC "-//W3C//DTD SVG 1.1//EN" "http://www.w3.org/Graphics/SVG/1.1/DTD/svg11.dtd">
<svg version="1.1" id="Layer_1" xmlns="http://www.w3.org/2000/svg" xmlns:xlink="http://www.w3.org/1999/xlink" x="0px" y="0px"
	 width="800px" height="600px" viewBox="0 0 800 600" enable-background="new 0 0 800 600" xml:space="preserve">
<g>
	<path d="M310.956,153.285c-0.081,0.441,0.03,0.809,0.216,1.121c-7.573,6.909-11.951,15.587-6.548,26.789
		c2.559,5.3,5.58,9.987,6.245,15.992c0.414,3.714,0.141,8.304,2.098,11.672c3.527,6.101,11.091,9.621,18.022,7.83
		c1.594,8.812,0.312,18.316,2.35,27.224c-3.743,4.253-6.98,8.864-9.527,13.722c-20.048-16.757-42.877,15.22-57.076,12.853
		c-14.192-2.364-21.456-15.376-32.781-14.028c-11.325,1.355-17.069,9.296-17.237,15.211c7.546-1.858,18.837,8.412,19.748,9.152
		c5.082,4.112,8.924,8.816,13.045,13.878c6.518,8.019,17.324,16.818,22.472,19.859c5.151,3.045,10.818,3.47,15.67,4.009
		c10.303,0.354,19.389-3.218,26.065-6.002c8.112-3.38,17.204-5.799,22.55-4.061c9.173,11.22,15.559,26.806,22.742,39.23
		c8.444,14.609,18.741,30.734,27.866,44.918c16.353,25.442,26.425,46.542,20.183,77.33c-4.163,20.503-12.808,43.404-31.558,54.297
		c-11.127,6.467-23.383,6.623-34.684,1.711c-5.553-2.418-11.918-6.021-14.217-11.66c-4.279-10.515,1.262-18.391,8.658-20.878
		c-28.034-7.552-30.779,24.228-16.652,42.32c10.809,13.839,27.989,23.881,43.935,30.359c17.387,7.066,37.408,13.018,67.099,12.508
		c33.425-0.585,65.029-9.97,88.771-33.234c25.529-25.026,36.08-61.918,32.898-96.935c-2.391-26.254-14.255-46.161-30.069-66.593
		c-8.229-10.636-16.05-21.627-23.578-32.766c-7.267-10.746-15.178-23.18-15.271-36.566c-0.003-0.069,0.003,0.06,0,0
		c10.512-3.974,20.075-9.652,27.297-17.974c5.969-6.874,8.298-15.049,11.118-24.087c2.245-7.183,6.794-13.159,9.35-16.848
		c2.559-3.698,11.657-12.226,14.606-24.174c1.28-5.204,1.966-8.944,2.43-12.803c10.692,7.751,29.541,4.317,40.83-0.788
		c15.056-6.807,20.524-20.469,18.22-36.805c-2.328-16.527-11.903-30.869-27.261-37.923c-12.299-5.653-30.108-4.318-40.746,4.392
		c-2.11-7.902-6.323-21.599-17.911-39.777c-11.63-18.236-23.183-30.556-42.937-47.415c-19.76-16.86-34.51-28.978-49.185-33.166
		c-7.204-2.057-15.966,0.25-22.964,1.925c-16.545,3.962-33.335,11.449-44.648,24.426c-12.08,13.855-21.1,31.073-29.703,47.2
		C321.379,116.556,314.492,133.298,310.956,153.285z M445.646,90.594c27.92,14.227,56.629,30.241,83.075,60.624
		c-11.429,1.756-12.349,12.76-13.209,21.967c-1.325,14.227,7.318,26.455,17.896,34.267c0.039,0.03-10.258,9.215-15.625,14.177
		c-4.51,4.171-8.319,9.059-10.647,14.777c-3.914,9.608-6.401,20.15-15.745,26.008c-2.002,1.256-3.997,1.99-5.996,2.34
		c1.121-4.879-0.267-19.985-15.873-39.634c0.126-0.03,0.252-0.056,0.381-0.085c12.032-2.988,18.795-18.355,19.862-29.44
		c0.962-9.94-5.385-19.052-15.856-17.256c-9.068,1.555-18.639,10.443-22.649,19.018c-1.552-3.792-4.114-13.022-5.241-18.821
		c20.824,2.222,12.628-43.488,7.114-53.514c-1.756-3.192-4.678-6.923-8.235-7.859C446.956,114.357,446.374,98.471,445.646,90.594z"
		/>
	<path fill="#FFFFFF" d="M539.659,148.816c10.324-9.496,27.537-9.623,39.79-3.995c12.173,5.595,20.084,17.938,23.012,30.603
		c3.491,15.105-1.295,29.597-15.355,36.94c-10.21,5.334-29.871,7.764-39.826,0.476c0.204-1.311,0.543-3.728,1.978-7.205
		c1.435-3.47,5.439-7.307,5.274-15.587c-0.168-8.28-4.255-11.925-8.984-11.248c1.516,8.957-4.162,20.246-9.227,25.758
		c-8.759-5.079-16.434-17.044-17.279-26.507c-0.842-9.463,3.047-24.183,12.08-24.084c2.286,2.624,4.318,5.496,5.499,8.536
		C542.026,162.334,540.923,153.007,539.659,148.816z"/>
	<path fill="#C0001F" d="M353.983,65.948c4.192-6.347,8.639-12.427,14.103-17.752c6.704-6.536,16.182-10.46,24.747-13.839
		c8.361-3.294,17.099-6.437,26.071-6.572c5.164-0.078,13.174,1.845,22.916,7.114c9.751,5.268,41.097,31.611,56.11,48.471
		c15.016,16.859,26.401,32.962,31.333,45.864c2.14,5.601,10.857,26.304,7.393,28.16c-8.361-17.892-47.42-51.369-92.197-72.706
		c-0.914-8.651-1.055-33.193-9.44-47.162c-1.043-1.74-3.866-0.102-2.727,1.594c7.135,10.665,10.321,52.944,9.377,76.969
		c-16.967-7.958-69.128,8.112-83.617,13.382c-14.486,5.27-32.4,13.434-43.551,22.152C320.608,120.26,336.5,92.461,353.983,65.948z"
		/>
	<path fill="#FFFFFF" d="M315.106,205.593c-1.154-3.175-0.935-7.186-1.306-10.532c-0.534-4.783-3.162-9.282-5.388-13.44
		c-4.597-8.568-4.432-14.931,2.143-22.343c3.965-4.467,24.843-17.161,40.387-22.959c15.541-5.795,28.972-10.802,48.996-14.486
		c20.024-3.689,32.955-6.101,44.396-0.019c11.451,6.077,17.773,56.05,0.255,52.526c-0.492-2.018-0.977-4.428-1.07-6.463
		c0.8-0.303,1.417-1.005,1.403-2.12c-0.405-24.377-32.359-11.689-45.85-7.465c-27.291,8.536-56.155,22.769-75.085,44.75
		c-1.96,2.282,1.273,5.589,3.281,3.422c1.403,2.291,2.355,4.681,3.027,7.14C324.109,215.253,317.297,211.621,315.106,205.593z"/>
	<path fill="#EECEB1" d="M377.142,221.96c3.476,2.583,11.75,5.466,19.73,0.692c4.084-0.325,8.256-1.919,11.846-4.447
		c3.59-2.531,7.267-5.794,8.906-9.864c-0.018-0.619-0.65-0.96-1.187-0.685c-2.005,3.612-3.71,5.749-7.144,8.31
		c-3.431,2.561-6.467,3.998-10.12,4.766c1.321-1.269,2.55-2.712,3.596-4.279c4.447-6.656,5.622-16.873-0.297-22.977
		c-1.873-1.939-4.12-2.988-6.518-3.415c3.746-4.345-0.914-8.425-7.396-10.62c-7.935-2.685-17.983-1.157-20,0.572
		c-2.02,1.735-3.171,8.135-2.403,10.055c2.178-0.382,9.113-1.216,12.613-1.486c2.736-0.21,9.601-1.065,12.068,1.432
		c-4.96,0.71-9.943,3.34-13.306,6.239c-7.186,6.197-9.11,15.532-3.536,22.326c-1.627,0.412-3.255,0.895-4.879,1.437v-0.476
		c0-0.063-0.027-0.102-0.033-0.165c-0.18-4.579-1.214-9.447-5.703-11.62c-4.717-2.288-10.617-0.548-14.486,2.729
		c2.481-4.309,7.734-8.211,7.456-9.365c-1.657-6.876-10.111,0.25-13.521,5.19c-1.975,2.863-4.336,7.413-3.188,10.827
		c0.716,2.131,2.871,2.794,4.195,2.462c0.303,6.003,4.426,8.439,7.42,9.023c-5.517,3.535-10.701,7.729-15.262,12.437
		c-2.239-12.619,1.007-25.781-6.521-37.026c15.451-16.784,36.656-28.022,57.579-36.425c9.949-3.993,20.195-6.791,30.545-9.503
		c9.008-2.36,20.378-4.079,21.313,1.907c0.935,5.989,2.433,17.213,4.678,26.01c2.247,8.792,4.052,14.351,8.708,18.848
		c1.465,1.42,3.701-0.815,2.236-2.232c-0.519-0.502-1.238-1.981-1.175-2.149c3.884-11.091,26.94-30.117,32.778-11.058
		c2.475,8.09-1.948,17.7-6.422,24.206c-2.604,3.777-6.293,6.887-10.65,8.349c-6.281,2.111-14.052-1.509-9.541-9.004
		c1.052-1.752-1.684-3.338-2.733-1.597c-5.268,8.764-0.105,15.427,9.206,14.562c6.416,6.551,9.778,12.651,12.958,20.886
		c3.179,8.232,4.927,14.028,3.039,18.163c-7.8-0.213-15.505-5.343-22.787-8.055c-5.205-1.933-10.609-3.332-16.072-4.348
		c-0.551-5.562-1.996-10.833-4.234-15.915c0.449,0.129,0.89,0.261,1.292,0.387c10.659,3.279,19.979,10.147,28.289,17.363
		c1.531,1.331,3.776-0.896,2.236-2.235c-9.515-8.265-19.775-15.127-31.897-18.858c-7.315-2.252-19.829-4.635-28.07-1.437
		c-8.499,1.076-17.776,8.647-23.044,13.316c-2.293,2.038,1.073,5.379,3.35,3.356c4.753-4.213,21.121-17.694,26.8-9.628
		c4.447,6.326-6.365,17.303-10.294,20.872c-6.092,5.526-13.974,9.338-21.558,12.295c-9.329,3.632-20.066,4.576-29.961,4.963
		c-9.895,0.392-24.87,0.297-31.54-8.457c-0.033-0.042-0.072-0.075-0.105-0.114C332.895,237.342,366.194,223.431,377.142,221.96z"/>
	<path fill="#FFFFFF" d="M355.271,218.852c-1.657,2.736-1.319,5.832,1.121,6.88c-3.62,2.179-7.767,0.634-9.505-3.012
		c-1.741-3.644-0.563-6.849,2.421-9.916c2.981-3.067,8.816-4.615,12.76-2.899c5.717,2.486,5.169,10.785,5.22,10.937
		c-0.345,0.13-2.808,1.272-3.149,1.407c0.662-1.407,0.746-4.557-1.576-5.799C360.246,215.208,356.932,216.121,355.271,218.852z"/>
	<path fill="#FFFFFF" d="M359.796,223.464c-1.397,0.175-2.181-1.041-1.588-2.484c0.59-1.443,2.347-1.578,2.988-0.746
		C362.068,221.371,361.196,223.287,359.796,223.464z"/>
	<path fill="#FFFFFF" d="M376.41,201.395c5.421-7.55,17.033-12.386,24.486-5.006c4.213,4.171,3.404,12.481,0.56,16.837
		c-6.281,9.63-12.547,9.467-14.768,9.137c9.386-2.688,7.015-15.583-1.549-15.501c-6.794,0.061-9.628,5.626-8.813,10.528
		C372.269,212.59,372.799,206.425,376.41,201.395z"/>
	<path fill="#FAF0DF" d="M383.968,186.85c-5.532-0.033-15.993,1.272-16.038,1.286c-0.246-1.648,0.752-6.236,2.415-7.261
		c1.669-1.023,8.403-2.819,16.401-0.553c3.683,1.049,6.326,2.258,8.142,4.405c1.813,2.143,0.165,4.949-2.269,5.117
		C390.923,187.156,386.866,186.867,383.968,186.85z"/>
	<path fill="#FFFFFF" d="M385.385,217.632c-2.859,0.895-4.249-1.798-3.755-3.509c0.488-1.713,2.691-2.775,4.408-1.635
		C387.75,213.633,388.241,216.736,385.385,217.632z"/>
	<path fill="#FAF0DF" d="M343.755,217.942c-1.813,0.25-2.982-1.825-2.901-3.648c0.084-1.822,1.324-4.061,3.066-6.96
		c1.741-2.902,5.553-6.38,7.707-7.372c2.152-0.996,3.143,0,3.23,0.906c0.081,0.914-2.736,2.657-5.139,5.724
		C344.609,213.113,343.791,217.916,343.755,217.942z"/>
	<path fill="#EECEB1" d="M419.404,233.701c-0.129-0.09-0.264-0.162-0.399-0.24c5.31-0.149,11.295,0.972,16.066,2.173
		c0.018,0.193,0.057,0.396,0.156,0.599c2.445,5.029,4.052,10.267,4.687,15.799c-0.294-0.048-0.581-0.108-0.878-0.15
		c-5.934-0.899-12.961-1.25-19.041,0.419C424.421,245.502,426.206,238.19,419.404,233.701z"/>
	<path fill="#FFFCEA" d="M272.068,309.556c-14.384-7.872-21.99-24.064-34.753-34.081c-2.856-2.242-10.989-8.688-16.057-7.819
		c0.384-0.44,0.749-0.977,1.262-1.543c3.359-3.704,6.815-5.676,11.819-5.745c6.296-0.081,12.688,5.035,17.564,8.505
		c6.17,4.387,11.927,6.377,19.439,4.63c15.526-3.611,34.975-27,51.028-12.916c-1.282,2.799-3.221,9.344-2.061,10.746
		c6.425,7.773,21.801,12.847,48.331,9.634c22.074-2.673,40.054-11.831,47.917-24.049c10.318-6.113,28.082-1.273,37.989,1.78
		c8.592,2.649,16.149,7.848,25.1,9.326c7.572,1.244,14.945-2.901,19.862-8.313c5.095-5.601,7.243-13.683,9.91-20.582
		c3.23-8.362,9.203-14.273,15.919-19.952c11.04-9.336,21.573-21.962,23.203-36.905c1.435-0.121,4.621,2.087,3.593,10.183
		c-0.839,6.591-4.312,10.424-5.751,13.299c-1.438,2.877-2.038,5.754-2.517,11.742c-0.48,5.989-1.831,11.869-4.711,18.174
		c-2.829,6.194-7.267,11.16-12.334,17.579c-5.073,6.422-8.136,14.172-11.336,23.815c-3.201,9.643-10.713,18.724-19.742,24.921
		c-15.463,10.609-36.125,14.468-54.39,10.698c-10.653-2.206-20.246-8.427-30.315-12.364c-7.917-3.096-15.981-4.636-24.292-5.217
		c-0.003-0.009-0.012-0.021-0.015-0.03c1.441-1.285,4.219-4.136,5.232-6.332c1.01-2.193-0.362-4.924-2.364-2.703
		c-7.773,8.619-16.727,16.56-30.168,18.843c-7.399,1.256-14.615-3.803-31.178-1.774
		C308.799,305.487,291.774,320.339,272.068,309.556z"/>
	<path fill="#FFFCEA" d="M322.038,514.034c3.524,11.531,17.792,16.668,28.316,18.894c26.188,5.526,44.959-17.791,53.899-39.395
		c11.978-28.939,10.665-58.627-3.476-86.56c-9.203-18.169-21.723-34.786-32.338-52.152c-5.655-9.254-11.013-18.675-16.056-28.271
		c-3.341-6.362-6.641-12.727-10.893-18.472c0.926,0.09,1.843,0.162,2.793,0.297c4.897,0.695,9.907,1.411,14.816,1.196
		c3.476,2.775,12.247,11.783,18.331,17.699c6.086,5.915,13.86,13.015,26.416,14.052c16.566,1.366,29.904-11.993,35.187-26.17
		c0.006-0.018,0-0.03,0.006-0.048c5.166,1.367,10.473,2.152,16.08,2.203c7.522,0.069,15.217-1.07,22.595-3.332
		c0.716,16.734,11.783,31.888,21.052,45.064c11.271,16.008,24.187,31.082,34.51,47.711c21.082,33.968,17.39,81.241-2.307,114.879
		c-21.421,36.584-61.283,51.75-102.053,52.239c-20.021,0.243-40.099-3.239-58.957-9.91c-17.92-6.344-34.896-15.493-45.223-27.006
		c-8.181-9.128-10.926-20.06-10.524-27.606c0.396-7.552,5.622-12.119,11.267-12.892
		C320.743,500.195,319.773,506.605,322.038,514.034z"/>
	<path fill="#FFFFFF" d="M426.341,329.281c-3.09,2.981-6.647,5.352-10.555,6.868c-2.937-10.959-6.419-21.888-8.181-33.335
		c4.33,1.444,8.634,3.176,13.003,5.142c-0.009,0.099-0.003,0.207,0.036,0.324C422.862,315.193,424.085,322.379,426.341,329.281z"/>
	<path fill="#FFFFFF" d="M422.452,308.795c0.423,0.198,0.842,0.384,1.262,0.584c4.094,1.933,8.175,3.56,12.325,4.846
		c-0.018,0.03-0.039,0.051-0.057,0.087c-1.924,5.166-4.798,9.865-8.391,13.695C425.607,321.681,424.402,315.136,422.452,308.795z"/>
	<path fill="#FFFFFF" d="M414.292,336.677c-5.046,1.642-10.623,1.888-16.485,0.273c-0.126-0.033-0.24-0.081-0.365-0.117
		c-3.404-12.73-4.21-26.107-9.194-38.34c6.167,0.662,12.008,1.972,17.77,3.788C407.849,313.92,411.283,325.367,414.292,336.677z"/>
	<path fill="#FFFFFF" d="M395.655,336.248c-6.122-2.215-11.358-6.353-16.242-11.067c-1.178-7-2.799-13.902-4.699-20.746
		c3.021-1.891,5.838-4.046,8.556-6.344c1.091,0.051,2.158,0.165,3.231,0.255C391.625,310.386,392.428,323.632,395.655,336.248z"/>
	<path fill="#FFFFFF" d="M377.495,323.29c-4.768-4.804-9.275-9.976-14.06-14.189c2.313-0.408,4.591-1.085,6.808-2.155
		c1.058-0.509,2.065-1.073,3.066-1.651C374.948,311.238,376.386,317.228,377.495,323.29z"/>
	<path fill="#D27960" d="M337.06,105.785c5.43-10.473,21.307-39.691,29.245-49.72c7.938-10.03,22.985-17.547,31.34-20.055
		c8.355-2.508-1.672,20.055-13.788,33.843C371.735,83.639,325.361,128.347,337.06,105.785z"/>
	<path fill="#AF001E" d="M375.499,121.661c7.836-2.436,33.845-9.191,44.708-9.612c10.86-0.413,15.46,0,17.129,0.421
		c1.669,0.418,3.761-20.059-20.057-15.459C393.464,101.606,356.695,127.512,375.499,121.661z"/>
	<path fill="#AF001E" d="M456.476,65.758c-7.603-13.398-17.405-23.523-15.715-18.076c1.088,3.514,3.455,14.775,4.082,21.531
		c0.632,6.757,0.474,14.299,0.474,14.299s16.817,8.49,22.16,11.948C470.213,97.228,464.442,79.793,456.476,65.758z"/>
	<path fill="#EDEDEE" d="M575.985,194.098c8.445-5.234,24.336-11.87,24.941-5.234c0.602,6.641-7.441,21.124-23.935,25.147
		C560.492,218.031,553.252,208.176,575.985,194.098z"/>
	<path fill="#EDEDEE" d="M415.263,136.569c11.408-3.051,21.927,4.222,25.949,8.247c4.025,4.02-4.222,4.42-16.491,5.43
		c-12.275,1.005-31.582,6.035-52.703,15.888C350.896,175.993,374.633,147.428,415.263,136.569z"/>
	<path fill="#EDEDEE" d="M310.261,181.022c0.851,1.696,3.623,6.437,4.429,10.259c0.806,3.819,2.011,4.425,4.828,2.012
		c2.814-2.417,18.103-15.49,22.928-23.134C347.276,162.515,308.253,176.999,310.261,181.022z"/>
	<path fill="#EFEDDB" d="M433.222,295.172c12.445,2.901,25.993,6.97,38.912,5.778c7.959-0.737,13.345-4.225,19.784-8.592
		c5.778-3.923,11.543-7.89,15.91-13.428c3.803-4.831,6.919-10.075,9.766-15.478c0.357-1.567,0.518-2.511,0.518-2.511
		s-8.561,16.263-21.399,24.825c-6.299,4.195-16.263,8.981-28.673,8.556c-12.409-0.429-23.107-3.422-43.221-7.276
		c-15.517-2.97-26.206,3.452-29.628,5.927C408.223,292.122,420.144,292.119,433.222,295.172z"/>
	<path fill="#EFEDDB" d="M508.415,282.388c-4.456,4.891-9.665,8.61-15.139,12.29c-4.654,3.135-9.182,6.877-14.813,8.034
		c-12.769,2.628-26.329-0.336-38.801-3.267c-8.511-2.002-17.417-4.654-26.212-4.801c-4.063-0.066-8.106,0.159-12.146,0.464
		c4.357,0.857,9.781,2.161,13.674,3.923c17.974,8.127,29.404,13.237,43.219,12.406c21.4-1.285,37.234-11.127,47.075-21.822
		c3.782-4.114,6.554-9.305,8.532-14.136C512.164,277.902,510.387,280.222,508.415,282.388z"/>
	<path fill="#EFEDDB" d="M321.882,297.489c-10.231,0.47-19.952,3.563-30.087,4.63c-8.676,0.908-16.97,0.306-24.57-4.297
		c-5.106-3.099-9.709-6.907-14.525-10.42c3.368,3.74,8.28,9.122,11.639,12.481c5.568,5.565,14.552,13.269,29.529,10.701
		c14.978-2.568,18.828-7.276,28.247-8.99c7.156-1.298,19.985-0.375,25.736,0.144C339.655,298.43,330.729,297.087,321.882,297.489z"
		/>
	<path fill="#EFEDDB" d="M269.73,296.73c10.806,5.55,22.341,3.443,33.764,1.139c15.178-3.066,30.602-3.902,45.02,1.81
		c-3.108-2.472-9.958-6.086-23.833-6.644c-21.397-0.854-26.533,6.851-38.517,5.565c-11.978-1.283-18.4-6.847-22.682-9.841
		c-2.931-2.056-8.69-3.914-12.017-4.873C257.552,288.175,263.105,293.326,269.73,296.73z"/>
	<path fill="#EFEDDB" d="M398.718,358.082c7.893,1.897,15.832,3,25.673,0.431c5.523-1.444,11.556-4.279,13.695-7.704
		c2.14-3.422,7.276,20.542-8.133,24.393C413.929,379.209,388.016,355.517,398.718,358.082z"/>
	<path d="M447.145,342.907c-18.073,17.312-48.139,18.616-67.096,2.274c-1.534-1.324-0.821,2.188,0.728,3.521
		c20.27,17.474,45.694,16.976,65.062-1.582C447.312,345.712,448.613,341.495,447.145,342.907z"/>
	<path fill="#F7E8D6" d="M333.908,255.268c3.779-6.035,13.788-17.042,21.456-21.453c11.145-6.405,19.781-8.358,23.404-7.244
		c3.617,1.115-10.59,16.999-19.224,23.124C350.905,255.826,328.337,264.183,333.908,255.268z"/>
	<path fill="#F7E8D6" d="M395.484,247.746c4.432-3.614,14.492-10.866,18.388-7.8c3.899,3.062-3.896,13.65-12.814,17.273
		C392.14,260.842,387.962,253.878,395.484,247.746z"/>
	<path fill="#F7E8D6" d="M418.334,214.311c4.663-3.568,10.863-6.128,17.827-5.292c6.967,0.835,11.702,3.622,11.984,6.686
		c0.276,3.067-8.361,3.067-15.049,2.231C426.41,217.098,413.593,217.932,418.334,214.311z"/>
	<path fill="#F7E8D6" d="M464.858,190.072c1.681-2.662,10.03-8.356,15.325-5.572c5.292,2.788,5.574,10.309,3.066,16.438
		c-2.511,6.131-6.967,8.36-7.243,5.292c-0.279-3.063,4.178-10.863,0.833-13.647C473.495,189.794,461.517,195.367,464.858,190.072z"
		/>
	<path fill="#E8BD94" d="M375.985,174.192c0,0,16.155-7.522,30.09-11.702c13.928-4.182,25.352-5.851,28.694-4.457
		c3.347,1.393,2.784,5.571,3.066,7.8c0.282,2.228,0.282,4.461,0.282,4.461s-8.577-5.401-20.063-4.741
		C403.566,166.389,375.985,174.192,375.985,174.192z"/>
	<path fill="#E8BD94" d="M333.629,273.377c2.026,0.641,12.544,3.069,25.915,1.675c13.374-1.393,28.136-5.017,31.484-6.967
		c3.338-1.948-12.26-5.292-30.929-3.341C341.432,266.692,328.337,271.708,333.629,273.377z"/>
	<path fill="#EFEDDB" d="M355.691,535.326c0,0,13.635,3.206,28.076-9.092c14.438-12.302,23.264-31.286,27.006-45.187
		c3.743-13.902,3.479-25.4,3.479-25.4s19.94,49.988-1.073,69.248C384.303,551.361,355.691,535.326,355.691,535.326z"/>
	<path fill="#EFEDDB" d="M367.459,541.205c0,0,22.802,9.197,47.857-15.241c21.924-21.391,1.073-74.061,1.073-74.061
		s52.775,61.891,9.356,85.826C391.792,556.443,367.459,541.205,367.459,541.205z"/>
	<path fill="#EFEDDB" d="M487.609,347.722c0,0,13.257,22.535,23.2,33.803c9.943,11.274,24.942,30.839,28.502,45.073
		c18.562,74.238-28.502,113.347-28.502,113.347s32.958-65.553,11.936-113.347c-7.294-16.572-17.24-25.85-24.525-40.432
		C490.926,371.582,487.609,347.722,487.609,347.722z"/>
	<path fill="#EFEDDB" d="M501.763,399.041c0,0,21.196,23.398,25.172,50.776c2.949,20.333-3.692,45.724-8.834,62.263
		c-6.182,19.865-13.245,32.673-13.245,32.673s12.805-45.481,11.48-81.687C515.206,432.173,501.763,399.041,501.763,399.041z"/>
</g>
</svg>
