<?xml version="1.0" encoding="utf-8"?>
<!-- Generator: Adobe Illustrator 17.0.0, SVG Export Plug-In . SVG Version: 6.00 Build 0)  -->
<!DOCTYPE svg PUBLIC "-//W3C//DTD SVG 1.1//EN" "http://www.w3.org/Graphics/SVG/1.1/DTD/svg11.dtd">
<svg version="1.1" id="Layer_1" xmlns="http://www.w3.org/2000/svg" xmlns:xlink="http://www.w3.org/1999/xlink" x="0px" y="0px"
	 width="800px" height="600px" viewBox="0 0 800 600" enable-background="new 0 0 800 600" xml:space="preserve">
<g>
	<g>
		<polygon fill="#FFFFFF" points="390.907,431.148 535.445,466.136 615.752,377.565 480.223,336.618 		"/>
		<path fill="#231F20" d="M536.055,468.121l-1.031-0.248L387.493,432.16l92.189-97.571l139.29,42.082L536.055,468.121z
			 M394.321,430.137l140.513,34.014l77.698-85.693l-131.768-39.811L394.321,430.137z"/>
	</g>
	<g>
		<path fill="#FFFFFF" d="M442.738,207.272c-48.455-46.375-104.395-59.532-141.015-27.378c-1.122,0.986-6.537,5.977-7.475,7.118
			l-85.159,78.533c9.666,10.826,177.599,169.676,177.599,169.676l79.153-77.497c2.422-1.842,4.724-3.866,6.865-6.102
			C504.62,318.28,491.206,253.654,442.738,207.272z"/>
		<path fill="#231F20" d="M386.708,437.701l-1.249-1.183c-6.859-6.489-168.097-159.025-177.704-169.784l-1.17-1.312l86.451-79.725
			c0.911-1.134,6.607-6.355,7.507-7.145c13.71-12.037,30.159-18.141,48.891-18.141c30.26,0,63.836,16.184,94.539,45.569
			c23.701,22.68,39.909,50.379,45.641,77.992c5.783,27.858,0.235,52.321-15.618,68.883c-2.119,2.214-4.499,4.33-7.074,6.289
			L386.708,437.701z M211.627,265.633c16.904,17.436,160.081,152.953,175.04,167.106l77.924-76.293
			c2.594-1.99,4.832-3.981,6.823-6.06c15.018-15.688,20.239-39.015,14.702-65.685c-5.587-26.914-21.431-53.953-44.613-76.138
			c-30.035-28.747-62.733-44.578-92.069-44.578c-17.839,0-33.496,5.804-46.532,17.251c-1.284,1.129-6.483,5.947-7.275,6.912
			L211.627,265.633z"/>
	</g>
	<g>
		<path fill="#FFFFFF" d="M360.64,285.337c48.957,46.85,62.505,112.135,30.267,145.811c-32.233,33.686-98.061,23.031-147.018-23.816
			c-48.952-46.846-62.5-112.146-30.269-145.828C245.866,227.822,311.689,238.491,360.64,285.337z"/>
		<path fill="#231F20" d="M340.23,452.599c-32.322,0-68.799-16.44-97.576-43.975c-49.589-47.455-63.192-114.007-30.324-148.354
			c12.656-13.221,30.624-20.21,51.961-20.21c32.324,0,68.805,16.445,97.585,43.987c23.936,22.907,40.307,50.881,46.096,78.774
			c5.839,28.133,0.237,52.839-15.774,69.563C379.542,445.61,361.572,452.599,340.23,452.599z M264.291,243.632
			c-20.339,0-37.414,6.608-49.379,19.108c-31.506,32.924-17.952,97.21,30.213,143.302c28.128,26.917,63.682,42.984,95.106,42.984
			c20.344,0,37.421-6.608,49.387-19.113c15.173-15.851,20.451-39.42,14.856-66.367c-5.643-27.191-21.649-54.508-45.067-76.918
			C331.274,259.706,295.716,243.632,264.291,243.632z"/>
	</g>
	<g>
		<path fill="#231F20" d="M320.235,325.76c18.643,17.839,23.802,42.698,11.526,55.523c-12.274,12.829-37.342,8.771-55.984-9.071
			c-18.638-17.839-23.798-42.702-11.524-55.527C276.528,303.857,301.595,307.922,320.235,325.76z"/>
	</g>
	<g>
		<path fill="#FFFFFF" d="M275.668,337.982c12.274-12.829,37.343-8.764,55.981,9.075c1.797,1.716,0.684,3.834,2.228,5.666
			c-2.46-9.378-5.417-19.465-14.05-27.727c-18.64-17.836-43.706-21.9-55.982-9.075c-11.091,11.591-5.469,33.013,9,50.199
			C269.995,355.246,269.078,344.87,275.668,337.982z"/>
		<path fill="#231F20" d="M276.579,373.333l-5.101-6.062c-16.327-19.392-19.995-41.015-8.925-52.584
			c5.033-5.258,12.15-8.035,20.583-8.035c12.586,0,26.764,6.374,37.925,17.054c8.695,8.319,11.84,18.26,14.544,28.564l2.008,7.658
			l-5.103-6.053c-1.066-1.265-1.253-2.58-1.403-3.639c-0.134-0.956-0.222-1.435-0.692-1.887
			c-10.512-10.06-23.765-16.067-35.455-16.067c-7.435,0-13.661,2.399-18.001,6.936c-5.059,5.286-5.795,13.443-2.386,26.452
			L276.579,373.333z M283.137,310.224c-7.435,0-13.661,2.397-18.001,6.932c-9.431,9.855-5.284,27.143,4.281,41.437
			c-1.172-7.747-0.726-15.903,4.961-21.846c5.031-5.258,12.149-8.039,20.583-8.039c11.074,0,23.378,4.935,33.777,13.396
			c-2.193-5.718-5.214-11.098-10.146-15.817C308.079,316.229,294.824,310.224,283.137,310.224z"/>
	</g>
</g>
</svg>
