<?xml version="1.0" encoding="utf-8"?>
<!-- Generator: Adobe Illustrator 17.0.0, SVG Export Plug-In . SVG Version: 6.00 Build 0)  -->
<!DOCTYPE svg PUBLIC "-//W3C//DTD SVG 1.1//EN" "http://www.w3.org/Graphics/SVG/1.1/DTD/svg11.dtd">
<svg version="1.1" id="Layer_1" xmlns="http://www.w3.org/2000/svg" xmlns:xlink="http://www.w3.org/1999/xlink" x="0px" y="0px"
	 width="800px" height="600px" viewBox="0 0 800 600" enable-background="new 0 0 800 600" xml:space="preserve">
<g>
	<path fill="#000002" d="M452.056,272.021c-1.821-3.786,0.486-7.446-0.073-11.004c-4.558-0.963-9.082-1.854-13.575-2.886
		c-4.442-1.02-8.851-2.183-13.199-3.595c9.178-0.575,17.944,2.176,27.16,2.843c0.45-3.758,0.895-7.473,1.315-10.977
		c-2.89-1.133-5.762-2.309-8.67-3.385c-2.65-0.98-3.655-2.589-3.385-5.397c0.082-0.855-0.242-1.742-0.291-2.62
		c-0.09-1.594,0.933-2.359,2.215-3.04c4.689-2.493,9.384-1.637,14.041-0.039c1.72,0.59,3.321,1.542,4.944,2.391
		c0.237,0.124,0.395,0.58,0.422,0.896c0.112,1.314,0.294,2.645,0.194,3.949c-0.096,1.255-0.398,2.524-0.811,3.717
		c-0.443,1.276-0.083,2.364,0.892,2.932c0.729,0.425,1.839,0.334,2.758,0.246c0.644-0.062,1.243-0.529,1.878-0.775
		c1.671-0.648,2.233-1.879,1.853-3.564c-0.518-2.293-1.01-4.597-1.656-6.855c-0.353-1.235-0.204-1.967,1.098-2.415
		c4.305-1.479,8.59-3.017,12.864-4.525c-0.514-0.854-0.115-1.932,0.826-2.91c0.17-0.177,0.463-0.382,0.455-0.563
		c-0.14-3.134,2.223-3.299,4.28-3.313c4.097-0.028,9.42,1.606,10.768,6.266c0.273,0.942,0.097,2.011,0.148,3.021
		c0.046,0.908,0.015,1.836,0.201,2.717c0.801,3.806,1.711,7.589,2.481,11.4c0.166,0.822-0.082,1.729-0.161,2.924
		c-0.722-0.467-1.096-0.709-1.576-1.02c-0.292,0.508-0.555,0.965-0.978,1.701c2.095,0,3.98-0.188,5.81,0.046
		c2.483,0.317,2.43,0.631,2.242,3.059c-0.093,1.198,0.531,2.46,0.875,3.681c1.24,4.4,2.241,8.889,3.806,13.17
		c2.992,8.184,6.149,16.317,9.567,24.33c1.518,3.558,3.98,6.701,5.764,10.161c4.37,8.478,10.58,15.579,17.074,22.371
		c4.385,4.586,9.359,8.72,15.226,11.427c3.755,1.732,7.732,2.854,11.937,2.936c0.914,0.018,1.819,0.32,2.736,0.406
		c6.638,0.618,13.283,1.176,19.918,1.828c7.803,0.767,15.614,1.491,23.393,2.459c7.106,0.884,14.258,1.692,21.239,3.224
		c7.946,1.743,16.063,3.065,23.513,6.652c2.449,1.179,5.063,2.053,7.412,3.397c3.556,2.033,6.83,4.445,8.342,8.558
		c0.902,2.452-0.532,6.784-2.668,8.265c-2.685,1.861-5.254,3.89-7.875,5.843c-0.446,0.332-0.867,0.726-1.363,0.955
		c-6.212,2.87-12.356,5.914-18.689,8.491c-3.593,1.462-7.505,2.14-11.268,3.188c-11.14,3.101-22.526,4.614-34.049,5.133
		c-5.887,0.265-11.783,0.361-17.676,0.414c-3.802,0.034-7.615-0.019-11.405-0.284c-2.279-0.159-4.519-0.839-6.788-1.213
		c-3.068-0.505-6.149-0.933-9.221-1.418c-0.338-0.053-0.651-0.264-0.975-0.402c0.01-0.163,0.019-0.325,0.029-0.488
		c3.699-0.099,7.399-0.258,11.098-0.261c1.099-0.001,1.746-0.368,2.524-1.111c5.117-4.884,10.318-9.679,15.318-14.342
		c-1.576-0.407-6.613,0.725-8.617,2.41c-3.497,2.941-6.873,6.026-10.286,9.065c-0.358,0.319-0.629,0.737-0.757,1.427
		c0.546-0.248,1.092-0.497,1.638-0.745c0.092,0.112,0.184,0.224,0.276,0.336c-1.102,0.762-2.176,1.57-3.329,2.246
		c-0.232,0.136-1.05-0.172-1.09-0.375c-0.093-0.47-0.049-1.167,0.247-1.48c1.739-1.84,3.533-3.631,5.373-5.371
		c2.007-1.898,4.083-3.721,6.527-5.937c-4.337,0.796-8.073,1.47-10.904,4.526c-1.889,2.039-3.994,3.877-5.976,5.832
		c-0.576,0.568-1.526,0.818-1.167,2.158c0.114,0.425-1.532,1.321-2.373,2.002c-0.215-0.106-0.43-0.211-0.645-0.317
		c0.159-0.601,0.135-1.371,0.507-1.776c2.116-2.302,4.322-4.522,6.506-6.761c1.117-1.146,2.252-2.275,3.697-3.731
		c-2.178,0.107-4.111-0.086-5.594,1.29c-2.985,2.771-5.908,5.614-8.738,8.543c-0.739,0.765-1.04,1.954-1.635,3.133
		c-1.49-1.177-1.157-2-0.382-2.795c2.919-2.995,5.851-5.978,8.773-8.97c0.156-0.16,0.272-0.359,0.542-0.721
		c-1.856-0.378-3.486-0.509-4.822,0.772c-3.061,2.934-6.066,5.927-9.302,9.1c1.152,0.578,1.877,0.941,2.634,1.321
		c-1.739,2.134-5.211,2.304-8.867,0.252c0.651,3.885,1.245,7.429,1.889,11.267c-2.131-0.598-3.339-1.478-3.834-3.265
		c-1.033-3.723-2.1-7.439-3.227-11.135c-0.226-0.74-0.784-1.379-1.077-1.875c-0.283-1.72-0.417-3.343-0.832-4.89
		c-0.825-3.075-1.779-6.117-2.727-9.159c-1.332-4.276-2.712-8.538-4.061-12.809c-1.173-3.712-2.39-7.411-3.478-11.148
		c-0.631-2.167-1.093-4.388-1.546-6.602c-0.449-2.195-1.541-3.986-3.022-5.635c-3.843-4.279-6.214-9.501-9.07-14.41
		c-0.98-1.685-1.894-3.408-2.865-5.163c-2.812,2.945-5.659,5.687-8.166,8.71c-0.677,0.817-0.327,2.486-0.449,3.764
		c0.226,0.093,0.453,0.187,0.679,0.28c2.868-3.054,5.735-6.108,8.603-9.161c0.236,0.171,0.473,0.342,0.709,0.513
		c-0.381,0.641-0.668,1.368-1.159,1.909c-2.121,2.334-4.259,4.656-6.475,6.899c-1.315,1.331-1.648,2.694-0.576,4.484
		c0.362-0.25,0.769-0.46,1.09-0.762c2.423-2.273,4.805-4.591,7.266-6.822c0.417-0.378,1.153-0.405,1.742-0.595
		c0.095,0.159,0.189,0.319,0.284,0.479c-0.689,0.63-1.389,1.25-2.067,1.893c-2.236,2.123-4.427,4.294-6.709,6.366
		c-1.365,1.24-1.318,2.494-0.284,4.197c2.901-2.68,5.724-5.286,8.598-7.941c1.106,0.649,0.99,1.346,0.091,2.131
		c-2.141,1.87-4.236,3.794-6.418,5.615c-1.536,1.282-2.693,2.604-1.671,4.559c1.136-1.001,2.382-2.096,3.623-3.196
		c1.645-1.458,3.267-2.943,4.951-4.353c0.212-0.178,0.743,0.025,1.126,0.051c-0.151,0.406-0.191,0.927-0.472,1.199
		c-2.427,2.356-4.824,4.752-7.38,6.963c-1.72,1.488-1.597,2.969-0.585,4.74c3.959-2.459,6.411-6.751,10.458-9.038
		c0.171,0.178,0.342,0.356,0.513,0.534c-0.254,0.364-0.457,0.782-0.772,1.084c-2.721,2.61-5.473,5.187-8.192,7.798
		c-1.715,1.647-1.812,2.985-0.338,5.463c1.776-1.64,3.526-3.242,5.259-4.862c1.71-1.599,3.384-3.237,5.125-4.801
		c0.276-0.248,0.824-0.194,1.246-0.28c-0.13,0.407-0.136,0.944-0.408,1.199c-3.104,2.923-6.236,5.815-9.386,8.688
		c-2.102,1.918-2.13,1.953-0.868,4.572c3.853-3.247,7.725-6.509,11.597-9.772c0.227,0.214,0.455,0.428,0.682,0.642
		c-0.471,0.574-0.873,1.227-1.424,1.709c-2.924,2.558-5.839,5.132-8.855,7.58c-1.614,1.31-2.224,2.699-1.1,4.8
		c4.57-3.643,9.114-7.265,13.658-10.887c0.191,0.184,0.382,0.368,0.573,0.552c-0.323,0.472-0.56,1.046-0.983,1.398
		c-3.845,3.205-7.725,6.369-11.59,9.551c-1.771,1.458-1.847,2.043-0.534,4.345c2.064-1.735,4.076-3.507,6.175-5.169
		c2.065-1.636,3.782-3.817,6.387-4.653c0.15,0.183,0.299,0.366,0.449,0.549c-0.867,0.779-1.72,1.574-2.603,2.335
		c-2.857,2.464-5.768,4.868-8.573,7.39c-1.956,1.758-1.968,2.577-0.5,5.702c4.056-3.326,6.715-8.181,11.461-10.649
		c0.164,0.143,0.327,0.285,0.491,0.428c-0.472,0.636-0.877,1.339-1.428,1.898c-2.686,2.728-5.419,5.41-8.12,8.124
		c-2.129,2.139-2.201,2.484-1.289,5.722c4.089-4.144,8.04-8.326,12.928-11.354c0.177,0.195,0.354,0.39,0.531,0.585
		c-1.05,1.057-2.077,2.14-3.157,3.167c-2.68,2.548-5.405,5.05-8.072,7.611c-2.313,2.221-2.383,3.588-0.441,6.382
		c3.469-4.106,6.87-8.285,11.631-10.967c0.158,0.127,0.316,0.254,0.474,0.381c-0.251,0.394-0.441,0.847-0.762,1.172
		c-3.215,3.249-6.421,6.507-9.696,9.695c-1.433,1.395-1.498,2.796-0.924,4.658c0.849,2.754,1.294,5.632,1.914,8.456
		c0.086,0.394,0.193,0.783,0.317,1.284c5.267-4.115,8.228-10.362,13.815-13.882c0.171,0.153,0.343,0.305,0.514,0.458
		c-0.617,0.773-1.192,1.585-1.859,2.312c-3.679,4.004-7.44,7.934-11.014,12.028c-0.574,0.657-0.492,2.014-0.455,3.038
		c0.033,0.899,0.427,1.784,0.776,3.107c1.558-1.593,3.036-3.052,4.455-4.566c2.939-3.136,5.832-6.315,8.793-9.43
		c0.273-0.287,0.899-0.237,1.361-0.343c-0.133,0.471-0.123,1.074-0.419,1.394c-3.647,3.948-7.303,7.889-11.03,11.761
		c-3.808,3.957-3.641,2.237-2.112,9.504c5.272-5.477,10.295-10.696,15.318-15.914c0.267,0.209,0.534,0.418,0.801,0.627
		c-0.4,0.619-0.722,1.31-1.214,1.845c-3.468,3.763-6.971,7.493-10.573,11.352c2.953,0,5.797,0.061,8.633-0.058
		c0.492-0.021,1.195-0.717,1.389-1.25c1.53-4.227,4.63-7.202,7.731-10.245c1.685,2.158,1.721,3.585,0.337,5.568
		c-1.057,1.514-2.071,3.061-3.059,4.622c-0.288,0.456-0.696,1.09-0.577,1.509c0.732,2.578-1.304,2.833-2.79,3.113
		c-2.419,0.457-4.914,0.507-7.375,0.756c-2.01,0.203-4.014,0.464-6.024,0.664c-0.973,0.097-1.955,0.113-3.045,0.172
		c-2.385,7.637-2.361,16.086-7.461,23.071c-0.066-0.603-0.255-1.222-0.177-1.806c0.646-4.842,1.411-9.668,1.997-14.517
		c0.369-3.05,1.116-6.238,0.609-9.178c-1.623-9.42-3.746-18.754-5.685-28.119c-2.709-13.085-5.57-26.14-8.097-39.26
		c-2.231-11.585-5.318-23.016-6.304-34.836c-0.219-2.628-1.092-5.199-1.616-7.806c-1.267-6.298-2.409-12.623-3.842-18.882
		c-0.277-1.212-0.975-2.135-0.435-3.551c0.271-0.711,0.193-2.495-1.613-1.789c0.878-6.337-1.224-12.268-2.229-18.275
		c-0.425-2.539-1.363-4.985-1.697-7.659c-0.353-2.827-1.983-5.522-3.231-8.193c-0.358-0.766-1.326-1.247-2.425-2.223
		c3.809,0,6.995,0,10.181,0c0.041-0.196,0.081-0.392,0.122-0.588c-2.34-0.541-4.68-1.083-7.019-1.624
		c-0.001-0.085-0.002-0.171-0.003-0.256c1.84-0.302,3.672-0.666,5.522-0.885c1.358-0.161,2.471-0.894,2.345-2.114
		c-0.129-1.252-0.783-2.752-2.539-2.729c-1.607,0.021-3.237,0.079-4.812,0.367c-2.495,0.457-3.374,2.408-2.265,4.677
		c0.614,1.257-0.009,2.388-1.457,2.352c-2.332-0.059-4.661-0.277-6.989-0.461c-1.15-0.091-1.07,0.582-0.82,1.291
		c1.132,3.203,2.067,6.502,3.499,9.567c2.209,4.729,2.706,9.726,2.93,14.796c0.028,0.63-0.665,1.291-1.024,1.938
		c-0.261-0.036-0.522-0.072-0.784-0.108c-0.469-1.758-1.291-3.506-1.342-5.276c-0.165-5.665-2.255-10.722-4.368-15.824
		c-0.871-2.102-1.323-4.374-2.071-6.532c-0.212-0.613-0.689-1.387-1.228-1.583c-1.155-0.419-1.866,0.284-2.054,1.458
		c-0.431,2.684-0.982,5.357-1.23,8.059c-0.346,3.76-0.419,7.543-0.686,11.311C454.84,269.301,453.84,270.928,452.056,272.021z
		 M537.57,391.738c0.401-1.183,0.595-2.498,1.248-3.52c1.299-2.033,2.851-3.905,4.479-6.084c-1.044,0.106-2.255-0.126-2.625,0.327
		c-1.704,2.088-3.37,4.261-4.655,6.618c-0.8,1.468,0.339,2.953,1.589,2.609c2.831,1.286,3.346,1.137,5.296-1.159
		c1.199-1.413,2.506-2.735,3.784-4.079c1.113-1.171,2.254-2.315,3.383-3.471c-0.087-0.203-0.175-0.407-0.262-0.61
		c-1.401,0.159-3.18-0.17-4.133,0.568c-2.769,2.144-5.303,4.624-6.774,7.959C538.724,391.294,538.026,391.461,537.57,391.738z
		 M639.72,369.595c0.021-0.178,0.042-0.356,0.063-0.534c-2.528-0.719-5.058-1.432-7.583-2.158
		c-3.714-1.068-7.383-2.334-11.148-3.167c-4.025-0.891-8.137-1.388-12.215-2.035c-4.485-0.712-8.952-1.689-13.466-2.026
		c-6.277-0.467-12.591-0.446-18.889-0.634c-4.326-0.13-8.654-0.237-12.979-0.4c-2.582-0.097-5.178-0.535-7.736-0.36
		c-3.13,0.215-6.179-0.697-9.365-0.12c-2.36,0.427-5.069,0.397-7.321-0.345c-5.045-1.663-9.755-4.117-13.435-8.172
		c-0.858-0.945-1.942-1.684-2.922-2.518c-0.132,1.034,0.059,1.798,0.317,2.538c2.815,8.048,5.717,16.068,8.396,24.161
		c0.533,1.61,1.351,2.227,2.813,2.337c3.449,0.26,6.906,0.416,10.35,0.723c9.662,0.861,19.269,0.082,28.903-0.632
		c6.512-0.483,13.069-0.389,19.606-0.479c1.279-0.017,2.563,0.308,3.845,0.475c0.059,0.245,0.118,0.49,0.177,0.734
		c-6.159,5.453-12.318,10.905-18.612,16.477c3.705,0.354,5.61-0.032,7.861-1.717c3.353-2.509,6.665-5.073,9.981-7.632
		c2.27-1.752,4.516-3.536,6.94-5.437c-1.286-0.621-2.318-1.12-3.35-1.618c0.016-0.247,0.032-0.495,0.048-0.742
		C613.427,375.114,626.984,374.621,639.72,369.595z M490.44,267.263c-0.898,1.612-1.482,2.868-0.726,4.555
		c1.791,3.999,3.525,8.037,5.001,12.16c2.583,7.218,5.006,14.495,7.402,21.779c2.235,6.792,5.378,13.145,8.77,19.418
		c2.888,5.342,6.608,9.996,10.8,14.311c1.994,2.052,2.172,1.974,3.387-0.359c0.198-0.38,0.472-0.721,0.71-1.081
		c2.001-3.032,3.987-6.075,6.016-9.088c0.35-0.521,0.88-0.92,1.328-1.375c0.273,0.454,0.305,0.663,0.221,0.797
		c-2.461,3.915-4.831,7.894-7.455,11.698c-1.016,1.472-1.02,2.359,0.422,3.307c0.391,0.257,0.747,0.566,1.24,0.945
		c2.049-3.902,3.99-7.674,6.012-11.402c0.641-1.182,1.441-2.294,2.298-3.331c0.223-0.27,0.936-0.136,1.423-0.188
		c-0.38,0.946-0.912,1.327-1.204,1.844c-2.369,4.191-4.714,8.395-6.999,12.632c-0.265,0.491-0.38,1.524-0.102,1.759
		c0.864,0.731,1.942,1.215,2.963,1.743c0.101,0.052,0.473-0.206,0.571-0.396c0.474-0.923,0.858-1.892,1.344-2.807
		c2.096-3.945,4.065-7.969,6.384-11.78c1.446-2.377,1.57-2.802-0.352-4.914c-5.358-5.886-10.622-11.797-14.73-18.733
		c-4.173-7.046-8.157-14.124-10.887-21.864c-1.232-3.494-2.486-6.983-3.833-10.433c-2.221-5.691-4.555-11.339-5.025-17.532
		c-0.041-0.54-0.177-1.135-0.461-1.583c-1.266-2.003-1.639-4.083-0.482-6.66c-1.923-0.161-3.586-0.301-4.927-0.413
		c-0.432,1.69-0.508,3.13-1.142,4.256c-2.154,3.831-5.161,6.894-9.112,8.916c0.412,1.142,0.766,2.121,1.247,3.456
		c3.595-3.404,8.851-4.69,10.398-10.025c0.09-0.311,0.628-0.71,0.925-0.685c0.313,0.026,0.828,0.507,0.834,0.798
		c0.017,0.828,0.006,1.745-0.325,2.477c-1.767,3.909-4.927,6.372-8.698,8.207C492.496,268.246,491.48,268.497,490.44,267.263z
		 M653.117,370.682c0.168,0.104,0.336,0.208,0.505,0.311c-0.173,0.375-0.258,0.844-0.536,1.109
		c-0.919,0.876-1.499,1.773-1.482,3.173c0.018,1.458-0.612,2.64-2.252,3.243c-2.57,0.945-4.832,2.443-6.528,4.681
		c-0.195,0.258-0.571,0.378-0.864,0.562c-0.168-0.124-0.336-0.248-0.505-0.372c0.372-0.541,0.666-1.165,1.136-1.6
		c0.566-0.525,1.281-0.891,2.208-1.51c-3.146-1.166-4.461-0.905-6.234,0.709c-1.368,1.246-2.826,2.394-4.175,3.66
		c-1.006,0.943-1.901,2.005-3.069,3.254c0.907-0.099,1.636-0.079,2.307-0.267c4.523-1.272,9.053-2.529,13.539-3.924
		c1.526-0.475,3.031-0.403,3.953-2.789c1.115-2.885,3.796-5.293,6.938-6.653c0.331-0.143,0.742-0.098,1.616-0.197
		c-2.078,1.776-3.697,3.159-5.315,4.542c0.102,0.138,0.205,0.276,0.307,0.414c3.223-1.562,6.497-3.03,9.641-4.737
		c1.148-0.623,1.966-1.839,2.982-2.729c0.281-0.246,0.764-0.462,1.105-0.404c1.488,0.255,4.746-1.086,5.486-2.344
		c0.821-1.397,0.477-3.023-0.656-4.183c-3.307-3.384-7.692-4.955-11.861-6.678c-4.71-1.947-9.713-3.21-14.633-4.615
		c-2.964-0.846-5.99-1.528-9.029-2.05c-6.632-1.139-13.28-2.203-19.941-3.156c-5.561-0.796-11.151-1.391-16.729-2.07
		c-1.522-0.185-3.047-0.339-4.569-0.526c-3.042-0.375-6.08-0.796-9.128-1.114c-0.477-0.05-1.098,0.224-1.485,0.548
		c-2.042,1.708-4.031,3.481-6.148,5.327c0.308-3.034,3.185-4.164,5.099-6.138c-0.439-0.239-0.63-0.415-0.844-0.449
		c-2.686-0.437-5.37-0.899-8.069-1.235c-0.494-0.062-1.179,0.277-1.562,0.65c-1.416,1.379-2.766,2.828-4.097,4.29
		c-1.984,2.178-3.932,4.39-5.936,6.632c-0.647-0.656-0.351-1.56,0.353-2.348c2.217-2.481,4.512-4.892,6.706-7.392
		c0.529-0.603,0.784-1.446,1.253-2.347c-2.5-0.449-4.513-0.811-6.084-1.093c-0.849,1.346-1.348,2.395-2.078,3.245
		c-1.932,2.253-3.972,4.414-5.948,6.63c-0.228,0.256-0.324,0.629-0.647,1.284c1.093-0.598,1.803-0.986,2.513-1.374
		c0.123,0.159,0.245,0.319,0.368,0.478c-1.241,1.019-2.482,2.038-3.98,3.269c0.73,0.19,1.111,0.363,1.5,0.38
		c7.722,0.34,15.444,0.69,23.169,0.975c4.565,0.168,9.154,0.003,13.697,0.392c4.854,0.417,9.68,1.227,14.493,2.018
		c4.875,0.801,9.775,1.563,14.563,2.753c5.208,1.294,10.276,3.143,15.447,4.598c4.397,1.237,8.438,3.028,11.657,6.403
		C651.926,371.481,652.521,371.081,653.117,370.682z M570.732,392.749c0.087,0.129,0.173,0.258,0.26,0.387
		c0.353,0,0.832-0.15,1.039,0.024c1.608,1.352,3.022,0.774,4.66-0.082c1.828-0.956,3.286-2.199,4.755-3.635
		c3.296-3.223,6.876-6.155,10.326-9.221c0.698-0.621,1.335-1.311,2.311-2.276c-4.163-0.118-7.463,0.716-10.272,3.153
		c-2.332,2.023-4.709,3.995-7.016,6.046C574.738,388.971,572.75,390.877,570.732,392.749z M536.533,350.411
		c1.351-2.173,2.692-4.415,4.117-6.602c1.951-2.993,3.97-5.941,5.946-8.917c0.195-0.294,0.486-0.88,0.409-0.946
		c-1.113-0.938-2.224-1.914-3.486-2.609c-0.26-0.143-1.338,0.701-1.687,1.297c-2.556,4.364-4.957,8.818-7.539,13.166
		c-1.88,3.167-1.467,2.969,1.395,4.361C535.798,350.215,535.924,350.233,536.533,350.411z M456.446,240.327
		c0.438,0.546,0.8,1.094,1.261,1.537c0.269,0.258,0.695,0.451,1.057,0.463c0.139,0.004,0.443-0.589,0.42-0.891
		c-0.098-1.296-0.289-2.586-0.487-4.211c0.695,0.183,1.489,0.391,2.284,0.6c0.147-0.083,0.293-0.166,0.44-0.248
		c-0.383-0.562-0.644-1.414-1.17-1.636c-2.383-1.004-4.826-1.873-7.28-2.695c-0.845-0.283-1.784-0.289-2.679-0.422
		c0.464,0.428,1.052,0.438,1.482,0.704c0.627,0.388,1.141,0.959,1.702,1.453c-0.631,0.343-1.226,0.817-1.901,1.004
		c-2.07,0.572-4.177,1.007-6.251,1.563c-0.344,0.092-0.792,0.494-0.836,0.803c-0.039,0.276,0.36,0.817,0.662,0.903
		c2.175,0.621,3.767,2.381,6.163,2.731C454.092,242.391,454.776,242.474,456.446,240.327z M609.55,379.635
		c-1.911,0.23-3.847-1.136-5.893,0.454c-5.105,3.966-10.424,7.655-15.639,11.479c-0.348,0.256-0.543,0.72-0.809,1.088
		c0.078,0.189,0.157,0.377,0.236,0.566c2.62-0.478,5.39-0.581,7.813-1.551c2.021-0.809,3.707-2.551,5.412-4.029
		C603.682,385.033,606.596,382.311,609.55,379.635z M611.057,390.395c0.171,0.342,0.341,0.684,0.512,1.025
		c2.169-0.471,4.672-0.412,6.437-1.524c3.679-2.316,6.993-5.22,10.409-7.942c2.12-1.689,4.153-3.486,6.226-5.235
		c-0.117-0.199-0.234-0.398-0.352-0.598c-2.689,1.003-5.637,1.597-8.012,3.097c-4.433,2.8-8.536,6.122-12.768,9.239
		C612.672,389.076,611.873,389.748,611.057,390.395z M644.717,372.628c-0.068-0.154-0.135-0.308-0.203-0.463
		c-1.984,0.992-4.164,1.721-5.915,3.025c-4.746,3.537-9.309,7.318-13.947,11c-1.279,1.016-2.565,2.022-3.847,3.033
		c2.57,0.058,4.987-0.259,7.401-0.602c0.225-0.032,0.456-0.2,0.633-0.361c1.852-1.678,3.777-3.287,5.515-5.076
		c1.577-1.624,2.848-3.547,4.436-5.158C640.664,376.127,642.733,374.419,644.717,372.628z M551.843,337.117
		c-0.52-0.386-1.341-1.009-2.177-1.611c-0.96-0.69-1.718-0.403-2.332,0.517c-2.321,3.477-4.631,6.962-6.973,10.426
		c-0.984,1.456-2.035,2.866-3.28,4.613c1.765,0.595,3.234,1.09,4.224,1.424C544.905,347.234,548.293,342.293,551.843,337.117z
		 M617.31,379.818c-0.895,0-1.35,0.113-1.717-0.018c-2.322-0.828-4.107,0.05-5.896,1.506c-3.379,2.75-6.885,5.343-10.321,8.024
		c-0.898,0.701-1.729,1.488-2.592,2.235c0.109,0.179,0.218,0.358,0.328,0.537c2.131,0.047,4.411,0.623,6.295-0.772
		c2.949-2.183,5.726-4.599,8.554-6.942C613.641,382.997,615.281,381.556,617.31,379.818z M484.142,227.749
		c0.353,0.392,1.001,1.67,1.557,1.631c2.042-0.143,3.31,1.101,4.79,2.039c1.453,0.921,2.162-0.472,2.927-1.166
		c0.495-0.449,0.887-1.517,0.705-2.12c-0.727-2.408-4.684-4.929-7.148-4.598c-0.578,0.078-1.2,0.743-1.559,1.295
		C484.93,225.574,484.681,226.469,484.142,227.749z M624.439,378.97c-2.392-0.186-4.099-0.166-5.613,1.063
		c-3.493,2.838-7.02,5.634-10.521,8.461c-1.201,0.969-2.368,1.98-3.55,2.972c0.072,0.13,0.145,0.26,0.217,0.39
		c1.883-0.192,3.765-0.384,5.648-0.577c-0.117-0.161-0.234-0.322-0.351-0.483c0.44-0.652,0.76-1.45,1.342-1.928
		c1.655-1.357,3.436-2.559,5.133-3.867C619.187,383.121,621.6,381.199,624.439,378.97z M487.55,265.647
		c-1.159-1.033-1.917-1.971-2.896-2.503c-0.858-0.467-1.435-0.697-0.752-1.727c0.131-0.198,0.081-0.592-0.012-0.85
		c-0.877-2.445-1.755-4.89-2.684-7.315c-0.774-2.021-2.419-2.587-4.972-1.462c1.339,2.423,2.626,4.836,3.994,7.203
		c1.41,2.44,2.898,4.835,4.306,7.175C485.425,266.013,486.166,265.885,487.55,265.647z M548.657,352.374
		c0.201,0.208,0.401,0.417,0.602,0.625c4.685-3.89,9.37-7.781,14.254-11.836c-0.805-0.055-1.472,0.071-1.969-0.163
		c-2.947-1.387-4.52,0.26-6.077,2.443C553.294,346.488,550.936,349.403,548.657,352.374z M553.266,338.023
		c-2.763,3.749-5.438,7.377-8.113,11.005c0.132,0.108,0.264,0.217,0.396,0.325c4.626-2.009,7.357-6.252,11.229-9.501
		C555.629,339.253,554.663,338.75,553.266,338.023z M494.515,253.355c0.19-0.069,0.381-0.139,0.571-0.209
		c-0.186-3.383-0.868-6.635-2.388-9.719c-0.497-1.008-0.8-2.161-0.95-3.28c-0.324-2.421-0.864-2.813-3.811-2.023
		C490.146,243.24,492.331,248.298,494.515,253.355z M474.386,240.289c3.291-2.942,6.413-5.733,9.534-8.523
		c-0.175-0.214-0.35-0.428-0.526-0.642c-4.334,0.9-7.071,4.144-10.066,7.093C473.612,238.771,473.852,239.242,474.386,240.289z
		 M492.199,318.011c2.042-2.139,3.903-4.153,5.837-6.094c1.608-1.614,1.665-1.877,0.096-3.931c-1.707,1.788-3.319,3.632-5.1,5.296
		C491.628,314.594,491.264,315.966,492.199,318.011z M493.878,294.975c-1.708,2.051-3.335,4.009-4.967,5.964
		c-1.026,1.229-0.763,2.429,0.065,3.864c1.776-2.022,3.357-3.986,5.118-5.773C495.461,297.642,495.157,296.498,493.878,294.975z
		 M493.165,322.927c2.185-1.298,7.16-9.065,6.545-10.579c-1.968,2.066-3.783,4.132-5.776,6.009
		C492.487,319.719,492.213,321.108,493.165,322.927z M550.335,353.665c0.901,0.145,1.261,0.187,1.614,0.262
		c1.602,0.341,2.708,0.116,3.627-1.615c0.959-1.806,2.556-3.279,3.907-4.87c1.074-1.264,2.199-2.486,3.301-3.727
		c-0.146-0.148-0.292-0.295-0.438-0.443C558.475,346.621,554.606,349.97,550.335,353.665z M493.456,325.691
		c0.188,0.158,0.376,0.316,0.564,0.474c0.681-0.485,1.476-0.867,2.023-1.473c1.64-1.818,2.982-3.961,4.825-5.523
		c1.635-1.386,0.953-2.309-0.009-3.893C498.55,319.063,495.299,321.896,493.456,325.691z M496.17,300.026
		c-0.22-0.071-0.439-0.142-0.659-0.214c-1.758,1.952-3.499,3.921-5.283,5.849c-0.99,1.07-1.003,2.135-0.021,3.677
		c2.069-2.458,4.076-4.724,5.911-7.121C496.477,301.748,496.17,300.769,496.17,300.026z M489.426,282.094
		c-1.221,1.369-2.136,2.741-3.373,3.699c-1.786,1.384-1.214,2.793-0.472,4.786c1.321-1.42,2.285-2.849,3.601-3.78
		C491.176,285.39,490.673,284.033,489.426,282.094z M492.564,290.855c-1.525,1.638-2.968,3.182-4.405,4.731
		c-1.403,1.513-1.408,1.929,0.05,3.762c1.345-1.638,2.486-3.46,4.045-4.792C493.565,293.435,493.533,292.53,492.564,290.855z
		 M490.273,313.083c0.248,0.093,0.495,0.187,0.743,0.28c1.973-2.1,3.861-4.29,5.95-6.267c1.221-1.155,0.841-2.028,0.131-3.251
		c-1.936,2.142-3.826,4.079-5.513,6.178C490.915,310.856,490.697,312.052,490.273,313.083z M491.644,286.86
		c-1.832,1.686-3.333,2.959-4.7,4.362c-0.984,1.01-1.905,2.177-0.428,3.805c1.741-1.91,3.501-3.713,5.077-5.666
		C491.943,288.926,491.644,287.968,491.644,286.86z M484.537,285.293c1.553-1.743,3.011-3.38,4.572-5.133
		c-0.302-0.488-0.635-1.026-1.007-1.628c-1.157,0.958-2.137,1.786-3.135,2.592C483.501,282.307,483.159,283.625,484.537,285.293z
		 M485.066,254.54c0.999-1.272,1.791-2.531,2.829-3.535c1.185-1.147,0.902-2.043,0.015-3.096
		C483.49,251.321,483.117,252.513,485.066,254.54z M486.712,258.302c1.061-1.209,1.966-2.403,3.038-3.42
		c1.234-1.17,0.898-2.056-0.138-3.028C486.055,254.458,485.015,256.641,486.712,258.302z M486.606,231.978
		c0.211,2.72,1.594,4.4,3.647,4.311c0.996-0.043,1.961-0.83,2.939-1.28c-0.055-0.242-0.109-0.484-0.164-0.726
		C490.292,235.33,488.807,233.034,486.606,231.978z M538.804,382.062c-1.862-0.938-3.085-0.66-3.928,0.987
		c-0.713,1.392-0.423,2.539,0.726,3.719C536.694,385.162,537.709,383.671,538.804,382.062z M487.027,260.422
		c2.274-0.132,5.702-2.824,5.821-4.358c-0.398-0.27-0.834-0.566-1.298-0.882C490.052,256.917,488.63,258.565,487.027,260.422z
		 M543.866,352.458c0.04,0.186,0.08,0.372,0.12,0.558c0.878,0,2.172,0.368,2.557-0.068c1.209-1.368,2.076-3.038,3.076-4.591
		c-0.128-0.096-0.255-0.191-0.383-0.287C547.446,349.532,545.656,350.995,543.866,352.458z M485.536,269.748
		c-0.853-0.48-1.47-0.827-2.135-1.201c-0.957,1.559-3.103,2.686-1.116,4.99C483.361,272.282,484.388,271.085,485.536,269.748z
		 M479.232,238.174c2.575,1.099,3.532-0.765,4.727-2.021c0.217-0.228,0.066-0.806,0.084-1.222c-0.432,0.01-1.005-0.154-1.27,0.061
		C481.596,235.947,480.507,237.01,479.232,238.174z M486.267,271.731c-2.498,1.549-4.083,4.041-3.516,5.528
		C486.719,273.611,486.966,273.223,486.267,271.731z M483.106,280.521c4.601-3.268,5.053-3.924,3.771-5.468
		C485.839,277.095,483.493,278.114,483.106,280.521z M496.885,236.671c-2.169,1.525-2.879,3.268-2.062,5.058
		C497.444,238.035,497.444,238.035,496.885,236.671z M485.569,241.403c0.185-0.094,0.37-0.189,0.555-0.283
		c-0.25-1.235-0.5-2.47-0.823-4.065c-0.93,0.909-1.537,1.503-2.284,2.232C483.929,240.043,484.749,240.723,485.569,241.403z
		 M486.534,243.711c-0.642,1.434-1.188,2.654-1.734,3.874C487.569,246.285,487.709,245.933,486.534,243.711z M498.465,243.347
		c-0.696,1.495-2.073,2.28-1.341,4.152C498.147,246.258,499.386,245.472,498.465,243.347z M498.016,240.864
		c-0.201-0.105-0.402-0.21-0.602-0.315c-0.613,1.177-1.226,2.355-1.839,3.532c0.195,0.101,0.39,0.203,0.585,0.305
		C496.778,243.211,497.397,242.037,498.016,240.864z"/>
	<path fill="#000002" d="M347.654,374.789c1.191,3.325,2.075,6.351,3.347,9.203c1.604,3.594,3.49,7.065,5.347,10.539
		c0.296,0.555,1.08,0.849,1.769,1.36c-0.328,1.067-1.148,1.096-1.919,0.224c-0.936-1.058-1.915-2.186-2.462-3.461
		c-2.211-5.15-4.258-10.37-6.375-15.56c-0.697-1.709-1.332-3.423-3.532-3.834c-1.296-0.243-2.533-0.796-3.797-1.209
		c-0.171,0.105-0.343,0.21-0.514,0.316c2.516,6.163,5.031,12.326,7.547,18.489c-0.035,0.056-0.07,0.113-0.105,0.169
		c-0.698-0.954-1.615-1.817-2.058-2.878c-2.142-5.13-4.134-10.322-6.243-15.465c-0.276-0.674-0.806-1.478-1.421-1.735
		c-1.623-0.678-3.358-1.089-5.602-1.775c2.671,7.629,4.564,15.049,9.237,21.661c-0.405-0.057-0.884,0.012-1.005-0.164
		c-1.146-1.666-2.462-3.27-3.284-5.092c-1.513-3.353-2.728-6.841-4.063-10.275c-0.224-0.577-0.555-1.151-0.613-1.748
		c-0.52-5.361-4.617-6.325-9.199-7.312c2.976,8.226,5.437,16.401,9.924,23.77c-0.127,0.129-0.254,0.258-0.38,0.387
		c-0.486-0.482-1.125-0.883-1.429-1.46c-0.884-1.675-1.696-3.395-2.423-5.144c-1.904-4.581-3.756-9.184-5.61-13.785
		c-0.3-0.743-0.351-1.631-0.789-2.264c-0.666-0.962-1.425-2.015-2.406-2.565c-1.357-0.76-2.956-1.089-4.518-1.625
		c0.282,4.712,7.852,22.357,10.088,23.451c-0.926,1.274-1.7,0.695-2.129-0.253c-2.285-5.048-4.547-10.109-6.694-15.217
		c-0.956-2.274-1.511-4.717-2.473-6.988c-0.383-0.905-1.257-1.738-2.114-2.274c-1.18-0.738-2.555-1.163-3.892-1.742
		c-0.058,4.413,7.95,22.887,10.526,23.936c-0.347,0.438-0.709,1.17-0.94,1.131c-0.466-0.079-1.055-0.488-1.255-0.918
		c-2.208-4.755-4.456-9.497-6.476-14.333c-1.355-3.242-2.337-6.639-3.555-9.94c-0.17-0.46-0.669-0.954-1.129-1.123
		c-1.787-0.657-3.619-1.188-5.807-1.885c2.3,8.148,4.698,15.896,9.671,22.603c-0.192,0.156-0.385,0.312-0.577,0.468
		c-0.522-0.528-1.225-0.967-1.537-1.599c-1.878-3.806-3.812-7.596-5.441-11.51c-1.344-3.229-2.274-6.629-3.437-9.935
		c-0.149-0.424-0.523-0.905-0.917-1.083c-1.218-0.551-2.498-0.968-4.011-1.262c3.124,9.226,5.275,18.734,10.059,27.643
		c-0.455-0.154-1.015-0.175-1.119-0.403c-1.231-2.706-2.427-5.428-3.562-8.175c-0.866-2.096-1.684-4.216-2.425-6.358
		c-0.72-2.082-1.258-4.227-1.982-6.307c-0.809-2.324-1.686-4.628-2.652-6.889c-0.205-0.48-0.879-0.853-1.419-1.08
		c-1.415-0.592-2.876-1.076-4.809-1.32c1.884,5.221,3.769,10.441,5.654,15.662c-0.068,0.059-0.136,0.119-0.203,0.179
		c-0.338-0.487-0.791-0.931-0.996-1.469c-1.615-4.233-3.258-8.457-4.728-12.741c-0.618-1.803-1.472-3.145-3.354-3.76
		c-1.271-0.415-2.486-0.999-4.25-1.723c2.23,7.78,5.027,14.799,8.166,21.699c-0.154,0.099-0.307,0.197-0.461,0.296
		c-0.352-0.464-0.812-0.881-1.04-1.399c-1.406-3.198-2.828-6.392-4.109-9.64c-1.179-2.991-2.535-5.978-3.176-9.097
		c-0.666-3.24-2.9-3.709-5.838-4.011c2.199,5.113,4.397,10.227,6.648,15.462c-0.232-0.146-0.857-0.312-1.046-0.694
		c-1.749-3.523-3.456-7.069-5.102-10.642c-0.567-1.23-0.817-2.612-1.427-3.815c-0.387-0.763-1.057-1.544-1.801-1.935
		c-1.892-0.994-3.896-1.773-6.391-2.874c2.305,7.328,4.736,13.995,9.099,20.168c-0.446,1.045-1.187,0.306-1.635-0.41
		c-1.139-1.818-2.326-3.64-3.172-5.6c-1.708-3.96-3.511-7.923-4.691-12.052c-1.055-3.692-4.116-3.674-6.809-4.731
		c1.802,6.663,4.504,12.863,8.093,18.691c-0.13,0.11-0.259,0.22-0.389,0.329c-0.336-0.294-0.792-0.523-0.989-0.892
		c-1.915-3.578-3.856-7.146-5.64-10.79c-0.809-1.652-1.331-3.453-1.894-5.214c-0.583-1.825-1.273-3.455-3.411-3.974
		c-0.747-0.182-1.408-0.719-2.571-1.341c1.952,8.031,4.659,15.346,7.935,22.471c-0.163,0.125-0.326,0.25-0.489,0.376
		c-0.476-0.629-1.151-1.19-1.396-1.899c-2.269-6.569-4.5-13.153-6.657-19.76c-0.635-1.945-1.765-3.179-4.153-3.688
		c2.108,6.721,4.156,13.249,6.203,19.778c-0.194,0.085-0.389,0.17-0.583,0.256c-0.2-0.343-0.465-0.663-0.59-1.032
		c-1.357-4.025-2.7-8.055-4.029-12.09c-0.56-1.702-1.164-3.397-1.591-5.133c-0.422-1.719-1.245-2.875-3.078-3.235
		c-1.077-0.211-2.115-0.619-3.383-1.002c1.261,6.342,3.289,12.304,6.247,17.987c-0.347,0.145-0.693,0.289-1.04,0.434
		c-0.592-1.123-1.32-2.196-1.749-3.377c-1.37-3.775-2.631-7.591-3.93-11.392c-0.08-0.234-0.191-0.479-0.186-0.716
		c0.071-3.521-2.449-4.443-5.798-5.353c1.583,5.286,3.066,10.238,4.649,15.521c0.684-0.576,0.954-0.804,1.477-1.244
		c-0.276,1.983,1.437,3.772-0.685,5.862c-1.689-5.04-3.268-9.648-4.769-14.282c-0.608-1.878-0.733-3.986-1.669-5.659
		c-0.66-1.18-2.315-1.803-3.525-2.675c-0.252,0.195-0.503,0.39-0.755,0.584c1.928,6.676,3.856,13.352,5.784,20.028
		c-0.156,0.066-0.311,0.132-0.467,0.198c-1.198-1.432-1.473-3.315-2.004-5.062c-1.534-5.051-2.871-10.173-4.688-15.119
		c-0.422-1.15-2.446-1.712-3.733-2.544c-0.214,0.177-0.428,0.355-0.642,0.532c1.373,4.133,2.648,8.302,4.166,12.38
		c0.596,1.6,1.768,2.979,2.603,4.499c0.179,0.326,0.033,0.83,0.037,1.252c-0.453-0.094-1.177-0.044-1.316-0.306
		c-0.9-1.692-1.82-3.4-2.458-5.2c-1.47-4.148-2.866-8.327-4.128-12.542c-0.768-2.567-3.029-2.921-5.247-4.262
		c0.479,1.814,0.725,3.202,1.21,4.502c1.83,4.906,3.745,9.782,5.598,14.68c0.095,0.251-0.09,0.608-0.144,0.916
		c-0.295-0.128-0.759-0.179-0.857-0.396c-0.584-1.295-1.138-2.609-1.603-3.951c-1.777-5.129-3.342-10.341-5.383-15.361
		c-0.561-1.378-2.507-2.193-4.141-3.01c1.866,8.649,3.955,17.065,8.383,24.706c-0.179,0.117-0.359,0.233-0.538,0.35
		c-0.544-0.706-1.316-1.332-1.597-2.131c-2.555-7.261-5.094-14.529-7.476-21.848c-0.693-2.129-1.48-3.886-4.273-4.507
		c1.812,6.357,3.556,12.472,5.299,18.587c-0.137,0.052-0.273,0.105-0.41,0.157c-0.477-1.104-1.058-2.176-1.413-3.318
		c-1.531-4.922-3.037-9.853-4.462-14.807c-0.567-1.971-2.132-2.702-3.963-3.753c2.343,7.514,4.588,14.715,6.833,21.915
		c-0.129,0.076-0.258,0.151-0.388,0.227c-0.372-0.608-0.882-1.172-1.096-1.832c-2.083-6.418-4.111-12.853-6.174-19.277
		c-0.165-0.514-0.471-0.982-0.755-1.561c-0.224,0.287-0.389,0.498-0.554,0.708c-2.215-2.823-2.827-5.511-1.297-6.381
		c-0.847-4.033-1.967-8.08-2.484-12.203c-0.497-3.967-0.571-8.017-0.475-12.023c0.193-8.133-0.092-16.242-1.288-24.275
		c-1.302-8.752-2.96-17.451-4.441-26.177c-0.808-4.758-1.58-9.522-2.353-14.286c-0.891-5.49-2.013-10.958-2.574-16.482
		c-0.532-5.247-0.749-10.564-0.571-15.832c0.122-3.629,2.306-6.714,4.317-10.108c0.944,0.479,1.819,0.923,2.694,1.368
		c0.438,0.223,0.855,0.506,1.315,0.663c7.664,2.624,15.132,5.657,22.341,9.418c4.029,2.101,8.552,3.242,12.805,4.934
		c4.535,1.804,8.999,3.786,13.524,5.619c8.028,3.252,15.992,6.689,24.14,9.609c9.323,3.342,18.459,7.093,27.55,11.005
		c6.401,2.754,12.953,5.189,19.539,7.471c5.181,1.795,10.519,3.139,15.787,4.685c5.687,1.669,11.342,3.457,17.067,4.982
		c8.887,2.367,17.795,4.665,26.742,6.79c10.352,2.459,20.756,4.696,31.136,7.037c4.381,0.988,8.758,1.997,13.136,2.996
		c-0.03,0.154-0.061,0.309-0.091,0.463c-1.357-0.203-2.717-0.394-4.072-0.612c-6.014-0.967-12.027-1.936-18.039-2.915
		c-3.995-0.65-7.986-1.321-11.979-1.978c-4.625-0.761-9.227-1.755-13.881-2.222c-7.928-0.795-15.41-3.319-23.014-5.396
		c-0.523-0.143-1.046-0.281-1.713-0.114c1.882,0.972,3.711,2.068,5.654,2.894c5.626,2.391,11.242,4.826,16.97,6.952
		c5.332,1.979,10.828,3.512,16.208,5.369c5.764,1.989,11.36,4.58,17.24,6.09c8.052,2.069,16.258,3.664,24.484,4.887
		c5.22,0.776,10.594,0.565,15.902,0.687c2.835,0.065,5.676-0.107,8.514-0.152c0.21-0.003,0.422,0.151,0.966,0.36
		c-0.628,0.394-0.976,0.748-1.387,0.848c-1.981,0.482-3.957,1.093-5.972,1.299c-8.25,0.846-16.53,0.929-24.762-0.048
		c-3.791-0.45-7.476-1.721-11.25-2.39c-5.672-1.005-11.147-2.621-16.563-4.557c-3.068-1.096-6.308-1.699-9.421-2.683
		c-2.402-0.759-4.694-1.863-7.092-2.639c-4.521-1.462-9.211-2.48-13.596-4.261c-6.236-2.532-12.241-5.627-18.381-8.401
		c-3.382-1.528-6.878-2.807-10.25-4.356c-4.135-1.899-8.138-4.094-12.306-5.912c-3.203-1.396-6.589-2.369-9.868-3.598
		c-3.224-1.208-6.444-2.434-9.615-3.774c-7.579-3.202-15.082-6.587-22.701-9.691c-9.722-3.961-19.586-7.576-29.277-11.61
		c-7.757-3.229-15.326-6.907-23.019-10.293c-3.515-1.547-7.174-2.766-10.685-4.321c-4.386-1.942-8.715-4.018-13.015-6.146
		c-3.694-1.827-7.308-3.815-10.969-5.709c-0.27-0.14-0.634-0.098-0.954-0.14c-0.111,0.159-0.223,0.319-0.334,0.478
		c5.155,4.882,10.272,9.806,15.476,14.635c5.249,4.87,10.715,9.477,17.175,13.064c-1.997,1.558-3.789,0.89-5.583,0.289
		c-5.35-1.792-9.45-5.451-13.511-9.133c-4.27-3.872-8.448-7.844-12.859-11.952c0,0.988-0.049,1.875,0.007,2.755
		c0.853,13.419,2.521,26.719,5.163,39.92c1.853,9.259,3.224,18.617,4.687,27.95c1.42,9.058,2.053,18.193,2.06,27.359
		c0.003,3.828-0.317,7.656-0.382,11.486c-0.042,2.459,0.141,4.92,0.162,7.381c0.004,0.497-0.102,1.183-0.429,1.464
		c-1.591,1.367-0.966,2.917,0.064,3.891c1.507,1.425,3.428,2.411,5.294,3.423c-1.248-3.485-3.761-6.323-4.302-9.967
		c0.176-0.09,0.351-0.18,0.526-0.269c0.307,0.481,0.633,0.951,0.916,1.445c1.755,3.06,3.448,6.157,5.282,9.168
		c0.495,0.813,1.405,1.372,2.319,1.805c-2.449-4.706-4.898-9.411-7.346-14.117c0.158-0.137,0.315-0.273,0.473-0.41
		c2.052,0.975,4.103,1.951,6.404,3.045c0-1.078,0-1.861,0-2.643c0.138-0.044,0.275-0.089,0.413-0.133
		c0.669,1.345,1.092,2.919,2.076,3.968c0.955,1.018,2.485,1.498,4.018,2.358c0.061-1.099,0.103-1.865,0.145-2.631
		c1.232,3.174,3.73,4.532,6.913,4.886c0.104,0.011,0.273-0.561,0.286-0.588c1.657,1.066,3.346,2.153,5.222,3.359
		c0.354-0.91,0.54-1.389,0.905-2.327c1.322,3.046,3.757,4.108,6.468,5.012c0.159-0.411,0.317-0.819,0.422-1.089
		c1.343,1.119,2.572,2.448,4.073,3.296c1.259,0.712,2.679,2.029,4.736,1.023c3.113,4.834,9.236,5.184,14.293,7.392
		c7.875,3.436,15.973,6.357,23.961,9.537c5.393,2.146,10.766,4.343,16.135,6.549c9.134,3.752,18.173,7.756,27.412,11.226
		c7.905,2.969,15.974,5.545,24.08,7.92c10.006,2.932,20.108,5.542,30.203,8.159c5.319,1.379,10.735,2.377,16.061,3.731
		c4.798,1.22,9.534,2.685,14.293,4.059c0.445,0.128,0.857,0.373,1.663,0.733c-0.584,0.162-0.792,0.286-0.981,0.262
		c-3.16-0.412-6.31-0.903-9.477-1.254c-4.499-0.498-9.025-0.779-13.511-1.37c-4.516-0.595-9.034-1.282-13.482-2.247
		c-4.931-1.07-9.78-2.518-14.673-3.767c-2.821-0.72-5.659-1.374-8.65-1.806c2.444,1.723,4.888,3.447,7.332,5.17
		c-0.078,0.182-0.156,0.365-0.234,0.547c-0.964-0.34-2.036-0.513-2.872-1.051c-2.587-1.667-4.979-3.659-7.65-5.166
		c-2.168-1.223-4.623-1.941-6.962-2.853c-0.936-0.365-1.904-0.651-2.98-0.752c3.687,2.455,5.675,7.088,10.703,7.791
		c0.058-0.206,0.163-0.581,0.269-0.956c0.12-0.104,0.24-0.208,0.359-0.312c0.07,0.231,0.18,0.459,0.202,0.695
		c0.132,1.4,1.118,1.905,2.277,2.347c9.344,3.565,18.739,6.985,28.585,8.898c3.015,0.586,6.133,0.636,9.204,0.935
		c0.635,0.062,1.268,0.134,1.917,0.391c-1.927,1.455-3.675,3.006-6.238,3.095c-1.91,0.066-2.425,1.134-1.693,2.95
		c1.155,2.866,2.134,5.819,3.508,8.576c0.998,2.002,2.513,3.746,3.755,5.544c-1.152,0.384-1.872,0.222-2.841-1.608
		c-1.79-3.378-3.397-6.858-4.966-10.346c-0.441-0.98-0.439-2.152-0.73-3.211c-0.124-0.451-0.406-1.125-0.738-1.207
		c-1.757-0.436-3.553-0.717-5.72-1.123c0.363,1.519,0.508,2.617,0.888,3.628c1.56,4.159,3.118,8.323,4.843,12.415
		c0.502,1.19,0.973,2.787,2.967,2.637c-0.932,1.092-1.553,1.311-2.526-0.008c-2.776-3.76-4.017-8.165-5.553-12.453
		c-0.499-1.394-1-2.794-1.378-4.223c-0.444-1.678-1.225-2.782-3.175-2.685c-0.641,0.032-1.297-0.263-2.486-0.528
		c2.374,6.667,3.748,13.285,7.879,18.876c-0.58,0.502-1.316,0.472-1.923-0.662c-1.218-2.276-2.409-4.592-3.324-7
		c-1.336-3.518-2.408-7.137-3.629-10.7c-0.125-0.364-0.445-0.812-0.778-0.93c-2.083-0.736-4.195-1.388-6.326-2.077
		c-0.119,4.493,6.426,18.539,9.47,19.782c-1.503,0.586-2.397,0.227-2.969-0.85c-1.794-3.378-3.679-6.719-5.238-10.205
		c-1.126-2.518-1.775-5.249-2.664-7.876c-0.386-1.141-0.942-2.031-2.317-2.356C351.51,376.252,349.849,375.542,347.654,374.789z
		 M201.072,301.586c3.026,5.764,5.451,12.01,12.257,14.508c-0.397-0.553-1.043-0.92-1.368-1.475
		c-1.605-2.739-3.207-5.486-4.651-8.311C205.981,303.709,203.716,302.47,201.072,301.586z M267.015,338.862
		c0.113-0.134,0.225-0.268,0.338-0.402c-3.36-2.864-4.996-7.307-9.205-9.501c0.198,1.859,0.572,3.593,1.229,5.212
		c0.355,0.874,1.052,1.779,1.844,2.267c1.374,0.847,2.935,1.395,4.431,2.037C266.082,338.659,266.559,338.736,267.015,338.862z
		 M294.077,343.538c4.552,6.214,6.594,9.496,9.448,9.21C302.873,348.172,298.94,344.339,294.077,343.538z M311.436,350.679
		c4.672,7.116,5.182,7.648,7.401,7.77C318.861,353.956,316.8,351.748,311.436,350.679z M288.705,341.424
		c-0.097,3.857,3.096,7.906,6.682,8.473C295.246,347.336,291.288,342.318,288.705,341.424z M229.87,316.884
		c1.792,2.469,3.852,4.506,5.074,7.258c-0.06,0.106-0.248,0.439-0.486,0.861c1.46,0.471,2.759,0.889,4.32,1.392
		c-0.977-1.699-1.732-3.095-2.566-4.443C234.774,319.626,233.525,317.05,229.87,316.884z M273.702,335.046
		c0.416,3.787,5.014,8.826,8.207,9.04C278.951,341.46,278.181,336.902,273.702,335.046z M226.537,321.442
		c-1.709-2.609-3.479-4.703-4.543-7.109c-1.026-2.322-2.936-2.844-5.067-3.48c0.925,1.457,1.849,2.913,2.845,4.482
		c0.435-0.739,0.686-1.166,1.129-1.918c0.618,2.084,1.219,3.756,1.596,5.477C222.96,321.006,224.588,321.042,226.537,321.442z
		 M303.554,348.213c2.314,2.543,4.628,5.086,6.942,7.63C310.42,350.887,308.416,348.272,303.554,348.213z M239.56,321.354
		c0.338,1.286,0.487,2.595,1.031,3.713c0.54,1.109,1.355,2.16,2.274,2.987c0.817,0.735,1.398,0.068,1.368-0.835
		C244.142,324.535,242.576,321.481,239.56,321.354z M267.505,332.77c-0.193,2.629,0.925,4.588,2.8,6.118
		c0.435,0.355,1.144,0.375,1.728,0.549c0.051-0.111,0.102-0.223,0.153-0.334c0.401,0.578,0.802,1.157,1.203,1.735
		C272.363,337.448,270.44,334.734,267.505,332.77z M282.018,338.34c-0.159,3.932,3.21,8.087,6.877,8.707
		C286.367,344.327,285.156,340.774,282.018,338.34z M221.038,319.207c-1.992-2.68-3.985-5.36-5.978-8.04
		c0.015,1.384,0.28,2.639,0.572,3.887C216.435,318.484,216.951,318.937,221.038,319.207z M227.229,315.169
		c0.492,7.928,1.218,8.119,5.382,8.822C230.845,321.096,229.131,318.286,227.229,315.169z M335.982,364.131
		c-2.498-2.247-4.762-4.283-7.202-6.478C328.819,361.68,331.275,363.888,335.982,364.131z M213.571,314.445
		c0.11-0.052,0.22-0.104,0.33-0.156c-0.158-1.682-0.304-3.366-0.49-5.045c-0.023-0.206-0.216-0.451-0.399-0.573
		c-1.255-0.827-2.53-1.626-3.798-2.434c-0.129,0.082-0.258,0.164-0.387,0.246C210.408,309.137,211.99,311.791,213.571,314.445z
		 M245.757,324.839c1.47,2.04,2.94,4.08,4.41,6.121C250.225,325.603,250.225,325.603,245.757,324.839z M321.7,355.281
		c2.086,1.797,3.838,3.307,5.854,5.043C326.998,356.402,326.46,355.941,321.7,355.281z M325.678,360.741
		c-2.04-1.628-3.784-3.019-5.602-4.469C320.168,359.625,320.728,359.657,325.678,360.741z M251.901,328.361
		c0.052,4.146,0.352,4.981,3.572,4.891C254.328,331.685,253.22,330.168,251.901,328.361z M257.165,332.655
		c-0.608-4.463-0.925-4.908-3.419-4.959C254.949,329.441,256.057,331.048,257.165,332.655z M222.98,313.514
		c1.051,1.612,1.91,2.93,3.021,4.635C226.084,314.764,225.726,314.225,222.98,313.514z"/>
	<path fill="#000002" d="M431.147,465.551c-2.525-7.278-16.808-26.039-21.328-28.222c0.035-0.181,0.07-0.361,0.105-0.542
		c0.736,0.191,1.664,0.163,2.173,0.612c1.841,1.623,3.706,3.271,5.261,5.157c3.181,3.857,6.319,7.768,9.184,11.861
		c2.114,3.021,4.254,6.194,5.452,9.624c0.81,2.319,2.423,2.628,3.979,3.304c3.059,1.329,6.218,2.435,9.364,3.553
		c2.679,0.952,5.292,0.565,7.957-0.35c2.847-0.978,5.808-1.621,8.709-2.447c2.55-0.726,5.091-1.484,7.623-2.266
		c0.994-0.307,1.956-0.719,3.132-1.158c-0.183,0.604-0.293,0.968-0.467,1.545c1.092-0.34,1.992-0.62,2.891-0.9
		c0.036-0.24,0.073-0.48,0.109-0.72c-3.463-1.066-6.928-2.127-10.39-3.198c-3.354-1.037-6.705-2.083-10.057-3.125
		c0.066-0.324,0.132-0.649,0.198-0.974c3.1,0.201,6.202,0.373,9.298,0.615c1.354,0.106,2.71,0.287,4.04,0.555
		c2.764,0.557,5.59,0.959,8.246,1.854c4.456,1.5,8.997,2.399,13.643,1.997c2.2-0.191,4.346-1.295,6.458-2.131
		c2.239-0.886,4.432-1.899,6.6-2.949c1.145-0.555,1.665-0.245,2.057,0.896c0.751,2.191-0.222,4.122-3.194,5.733
		c-1.953,1.059-3.958,2.051-6.024,2.856c-1.051,0.409-2.29,0.464-3.443,0.459c-3.203-0.014-6.424-0.394-9.602-0.155
		c-3.177,0.239-6.313,1.038-9.463,1.619c-2.476,0.457-4.829,1.139-6.938,2.687c-0.927,0.681-2.322,0.722-3.502,1.06
		c-3.197,0.916-6.425,1.734-9.579,2.777c-3.935,1.301-7.661,0.944-11.481-0.566c-5.493-2.172-11.068-4.145-16.646-6.091
		c-2.707-0.944-5.535-1.54-8.247-2.472c-1.856-0.638-3.564-1.694-5.409-2.372c-9.274-3.408-18.561-6.779-27.863-10.112
		c-8.613-3.086-17.345-5.861-25.845-9.229c-7.692-3.047-15.147-6.694-22.693-10.106c-4.671-2.112-9.274-4.38-13.983-6.4
		c-7.482-3.209-15.033-6.255-22.543-9.398c-3.694-1.546-7.321-3.257-11.052-4.707c-3.444-1.338-6.989-2.415-10.483-3.626
		c-7.981-2.767-15.938-5.606-23.942-8.305c-8.783-2.962-16.902-7.414-25.371-11.077c-4.698-2.032-9.642-3.506-14.307-5.604
		c-4.827-2.172-9.466-4.766-14.16-7.227c-6.949-3.643-13.871-7.34-20.813-10.998c-3.931-2.071-7.955-3.98-11.799-6.2
		c-3.406-1.967-6.782-4.063-9.843-6.511c-1.269-1.015-1.686-3.097-2.491-4.692c-2.055-4.072-4.063-8.169-6.181-12.208
		c-1.521-2.899-3.44-5.615-4.702-8.614c-0.825-1.961-1.047-4.281-1.068-6.445c-0.018-1.839,0.614-3.691,1.003-5.527
		c1.099-5.192,2.135-10.399,3.353-15.563c1.575-6.679,3.348-13.31,4.911-19.991c0.226-0.966,0.09-2.31-0.438-3.112
		c-5.496-8.354-8.165-17.748-9.794-27.419c-0.558-3.317-0.039-6.931,0.571-10.304c1.19-6.576,2.519-13.153,4.313-19.585
		c1.286-4.611,3.27-9.051,5.217-13.446c2.052-4.633,4.334-9.173,6.696-13.659c2.071-3.934,4.283-7.804,6.654-11.563
		c0.982-1.557,0.993-3.069,1.036-4.746c0.124-4.814,0.193-9.643,0.655-14.431c0.315-3.259,3.878-5.648,7.291-5.466
		c0.571,0.031,1.151-0.16,1.731-0.2c0.787-0.054,1.779-0.384,2.331-0.036c2.752,1.734,5.699,0.285,8.531,0.874
		c0.454-1.723,0.959-3.303,1.24-4.922c0.078-0.451-0.397-1.147-0.811-1.511c-2.505-2.204-2.037-6.329,0.959-7.672
		c1.519-0.681,3.077-1.304,4.665-1.8c2.374-0.741,4.187,0.623,5.886,1.94c1.054,0.818,1.902,0.753,3.044,0.269
		c1.691-0.717,3.438-1.464,5.231-1.726c1.597-0.233,3.344-0.052,4.929,0.337c7.555,1.852,15.242,3.363,22.568,5.901
		c8.437,2.923,16.573,6.732,24.789,10.275c6.87,2.962,13.651,6.129,20.498,9.144c7.241,3.189,14.391,6.644,21.809,9.36
		c7.932,2.904,16.13,5.08,24.212,7.572c3.662,1.129,7.301,2.345,10.994,3.364c6.609,1.824,13.255,3.516,19.879,5.286
		c6.797,1.816,13.581,3.678,20.38,5.488c4.758,1.266,9.52,2.52,14.299,3.702c5.021,1.241,10.084,2.316,15.094,3.597
		c6.862,1.755,13.679,3.683,20.541,5.438c2.682,0.686,5.433,1.097,8.149,1.649c0.657,0.134,1.3,0.333,1.952,0.82
		c-0.355,0.055-0.708,0.147-1.065,0.16c-7.897,0.293-15.426-1.703-23.015-3.511c-4.583-1.092-9.363-1.352-13.955-2.417
		c-7.893-1.832-15.706-4.007-23.555-6.028c-6.99-1.799-13.936-3.816-20.99-5.315c-8.242-1.752-16.294-4.058-24.287-6.701
		c-5.509-1.821-11.272-2.88-16.776-4.714c-6.97-2.323-13.809-5.043-20.673-7.676c-4.716-1.809-9.414-3.677-14.056-5.668
		c-8.116-3.482-16.147-7.161-24.281-10.599c-5.796-2.45-11.713-4.611-17.554-6.956c-6.234-2.503-12.418-5.134-18.674-7.58
		c-2.666-1.043-5.419-1.948-8.212-2.54c-1.295-0.275-2.803,0.255-4.173,0.588c-1.37,0.333-2.689,0.875-3.8,1.248
		c-0.473,0.768-0.864,1.403-1.256,2.039c-0.668-0.476-1.405-0.88-1.991-1.441c-2.826-2.703-3.5-3.799-6.896-2.406
		c-0.91,0.373-1.938,0.472-2.823,0.885c-0.529,0.247-1.323,1.009-1.232,1.278c0.205,0.604,0.813,1.338,1.395,1.491
		c1.293,0.339,2.68,0.523,4.012,0.453c1.497-0.079,2.176,0.348,1.811,2.213c1.007-0.787,1.76-1.375,2.752-2.151
		c0.692,2.069,1.318,4.006,1.991,5.926c0.304,0.867,0.527,1.842,1.083,2.525c2.406,2.954,0.356,4.629-2.457,5.07
		c-1.942,0.304-4.083-0.471-6.105-0.907c-3.156-0.68-6.129-2.407-9.491-1.832c-1.07,0.183-2.064,0.847-3.072,1.333
		c-0.435,0.21-0.784,0.64-1.232,0.776c-4.074,1.237-3.959,3.815-4.049,6.613c-0.047,1.468-0.121,2.934-0.198,4.401
		c-0.099,1.875-0.22,3.75-0.32,5.625c-0.026,0.494,0.078,1.013-0.032,1.483c-1.817,7.755-1.401,15.727-2.269,23.576
		c-0.79,7.141-2.191,14.125-3.834,21.107c-1.498,6.368-2.406,12.874-3.624,19.31c-2.391,12.643-4.566,25.334-7.327,37.896
		c-1.514,6.891-4.17,13.523-6.067,20.34c-1.406,5.051-2.479,10.198-3.586,15.328c-0.808,3.745,0.464,6.591,3.963,8.415
		c1.36,0.709,2.571,1.706,4.056,2.712c-0.76-1.263-1.399-2.323-2.038-3.384c0.128-0.109,0.256-0.218,0.384-0.326
		c0.929,0.524,1.976,0.912,2.766,1.597c2.747,2.381,5.885,4.529,7.92,7.433c1.267,1.809,0.97,4.816,1.071,7.298
		c0.052,1.287-0.308,2.72-1.842,3.366c-0.267,0.112-0.393,0.606-0.542,0.942c-0.925,2.088-1.837,4.18-2.801,6.38
		c0.143,0.114,0.349,0.351,0.608,0.475c3.686,1.762,7.419,3.43,11.063,5.275c7.2,3.645,14.346,7.397,21.526,11.083
		c5.988,3.074,11.884,6.357,18.017,9.111c7.271,3.265,14.769,6.022,22.134,9.081c3.141,1.304,6.156,2.91,9.297,4.213
		c4.397,1.824,8.823,3.589,13.299,5.206c7.159,2.587,14.439,4.853,21.544,7.575c12.881,4.936,25.715,10.003,38.48,15.232
		c5.547,2.272,10.872,5.083,16.303,7.637c0.639,0.301,1.315,0.524,2.36,0.934c-5.788-9.177-13.225-16.643-18.285-25.734
		c0.194-0.137,0.388-0.273,0.581-0.41c1.279,1.791,2.515,3.614,3.847,5.364c1.617,2.125,3.342,4.167,4.968,6.286
		c1.121,1.461,2.136,3.002,3.226,4.487c1.856,2.529,3.731,5.044,5.603,7.561c0.256,0.344,0.674,0.621,0.798,1.001
		c0.992,3.031,3.692,3.948,6.222,5.007c5.596,2.342,11.182,4.718,16.854,6.864c9.252,3.501,18.577,6.808,27.856,10.239
		c9.212,3.406,18.411,6.847,27.603,10.307C419.657,461.111,425.24,463.285,431.147,465.551z M166.319,204.708
		c-0.64,0.431-1.102,0.682-1.495,1.016c-3.249,2.759-6.421,5.612-9.744,8.277c-2.446,1.961-4.311,4.18-4.735,7.536
		c0.319-0.201,0.584-0.326,0.8-0.51c4.226-3.595,8.37-7.295,12.705-10.752C165.665,208.827,166.161,207.095,166.319,204.708z
		 M147.225,256.603c1.203-1.729,2.287-3.285,3.369-4.843c1.439-2.073,2.745-4.257,4.359-6.183c1.159-1.384,1.416-2.603-0.071-4.54
		c-3.04,3.727-6.057,7.355-8.958,11.074c-0.348,0.445-0.231,1.424-0.042,2.073C146.097,254.925,146.633,255.574,147.225,256.603z
		 M158.973,243.5c1.528-8.173,3.057-16.346,4.585-24.518c-0.155-0.03-0.311-0.059-0.466-0.089
		C159.936,226.755,155.727,234.413,158.973,243.5z M157.676,226.784c-0.5,0.321-0.887,0.487-1.167,0.762
		c-2.992,2.943-5.877,6.004-8.981,8.823c-1.978,1.797-1.693,3.99-1.961,6.569c0.557-0.494,0.828-0.708,1.069-0.953
		c2.114-2.149,4.191-4.335,6.346-6.442c0.995-0.973,2.567-1.589,3.116-2.732C156.949,231.039,157.148,228.953,157.676,226.784z
		 M160.392,339.413c0.464-0.497,1.077-0.851,1.183-1.32c0.541-2.385-0.482-4.805-2.62-6.036c-2.125-1.224-4.342-2.287-6.528-3.402
		c-0.553-0.282-1.142-0.494-1.972-0.848C152.315,333.168,156.664,335.877,160.392,339.413z M165.521,211.929
		c-0.182-0.172-0.363-0.344-0.545-0.516c-0.516,0.38-1.053,0.734-1.545,1.143c-4.119,3.421-8.101,7.025-12.393,10.211
		c-2.355,1.748-2.736,3.96-3.119,6.781c0.488-0.384,0.736-0.544,0.943-0.747c4.753-4.661,9.515-9.313,14.239-14.003
		C163.986,213.92,164.719,212.889,165.521,211.929z M145.303,250.026c2.869-3.255,5.492-6.607,8.53-9.527
		c1.633-1.57,1.788-3.109,1.2-5.383c-0.668,0.357-0.891,1.114-1.367,1.645c-2.212,2.468-4.374,5.002-6.789,7.261
		C144.955,245.821,144.487,247.711,145.303,250.026z M148.579,261.898c2.882-4.09,5.703-8.095,8.651-12.279
		c-0.269-0.764-0.65-1.845-1.159-3.291c-0.678,0.914-1.175,1.522-1.604,2.175c-1.794,2.729-3.401,5.602-5.405,8.165
		C147.672,258.446,147.42,259.993,148.579,261.898z M155.521,207.16c3.881-3.086,7.327-5.968,10.933-8.632
		c1.679-1.24,1.778-3,2.353-4.689c-3.541,2.561-6.84,5.335-10.277,7.925C156.814,203.057,156.022,204.703,155.521,207.16z
		 M150.764,267.914c1.562-2.902,3.146-5.546,4.425-8.329c0.777-1.69,1.082-3.597,1.6-5.406c-0.306-0.125-0.612-0.249-0.918-0.374
		c-1.691,3.004-3.092,6.232-5.172,8.938C149.185,264.713,149.575,266.043,150.764,267.914z M161.63,219.387
		c-0.252-0.216-0.505-0.433-0.757-0.649c-1.884,2.003-3.733,4.04-5.661,6.001c-2.642,2.688-5.375,5.287-7.989,8.001
		c-0.475,0.493-0.571,1.353-0.841,2.043c0.194,0.105,0.387,0.21,0.581,0.315c3.125-3.222,6.244-6.449,9.378-9.661
		c0.689-0.706,1.503-1.299,2.139-2.046C159.58,222.098,160.585,220.726,161.63,219.387z M169.203,181.521
		c0.254,0.015,0.507,0.029,0.761,0.044c0.084-0.56,0.198-1.118,0.246-1.681c0.164-1.895,0.233-3.801,0.475-5.685
		c0.249-1.94,0.524-3.897,1.037-5.778c0.506-1.855-0.476-2.529-2.052-3.168C169.468,170.745,168.019,176.11,169.203,181.521z
		 M152.925,212.979c0.17,0.155,0.34,0.311,0.509,0.466c0.229-0.073,0.515-0.082,0.68-0.227c3.905-3.42,7.819-6.832,11.669-10.314
		c0.574-0.519,0.838-1.381,1.246-2.084c-0.147-0.096-0.294-0.193-0.441-0.29c-0.369,0.204-0.776,0.36-1.101,0.619
		c-3.183,2.527-6.44,4.971-9.483,7.657C154.738,209.925,153.938,211.572,152.925,212.979z M168.848,190.02
		c-0.157-0.079-0.315-0.159-0.472-0.238c-3.532,2.339-7.609,4.117-8.97,9.097c3.13-2.503,6.066-4.803,8.924-7.195
		C168.705,191.371,168.685,190.587,168.848,190.02z M153.773,335.24c0.924,3.802,4.535,5.215,6.714,8.284
		c0.484-0.91,0.786-1.478,1.002-1.884C158.812,339.42,156.292,337.33,153.773,335.24z M176.526,159.992
		c-0.09-0.192-0.181-0.383-0.271-0.575c-1.582,0.36-3.178,0.67-4.732,1.125c-0.275,0.08-0.591,0.818-0.503,1.151
		c0.124,0.471,0.541,0.96,0.968,1.208c0.172,0.1,0.753-0.362,1.055-0.662c0.293-0.291,0.468-0.701,0.728-1.113
		c0.371,0.302,0.664,0.54,0.998,0.812C175.41,161.227,175.968,160.609,176.526,159.992z M155.394,263.517
		c-0.254-0.104-0.509-0.208-0.763-0.312c-1.029,2.117-2.093,4.219-3.045,6.371c-0.124,0.281,0.33,0.818,0.516,1.236
		c0.204,0.028,0.408,0.057,0.613,0.085C153.608,268.437,154.501,265.977,155.394,263.517z M159.444,346.199
		c0.239-0.681,0.416-1.183,0.541-1.541c-1.417-1.287-2.71-2.463-4.071-3.7C156.034,343.359,157.264,344.924,159.444,346.199z
		 M164.291,189.865c1.522-1.603,4.74-1.28,4.94-4.382C167.619,186.983,165.044,187.391,164.291,189.865z M189.582,158.002
		c0.224,0.072,0.449,0.144,0.673,0.216c0.546-1.775,1.092-3.549,1.746-5.674C190.313,153.292,189.212,156.308,189.582,158.002z
		 M196.218,156.006c-0.087-0.168-0.175-0.337-0.262-0.505c-1.158,0.876-3.256,0.341-3.651,2.932
		C193.785,157.515,195.001,156.76,196.218,156.006z"/>
	<path fill="#000002" d="M290.401,198.587c-3.337,0.55-6.266,0.99-9.177,1.524c-3.041,0.557-4.677-1.312-3.719-4.346
		c0.275-0.87,0.602-1.724,0.999-2.851c-4.032-0.642-7.778-1.432-11.605,0.142c-1.412,0.581-2.984,0.863-4.511,1.048
		c-1.445,0.176-2.985-2.099-2.606-3.809c0.236-1.064,0.719-2.074,1.179-3.353c-3.742,0.153-7.629,0.43-8.312-5.006
		c-2.672,0.539-5.148,0.983-7.595,1.553c-1.599,0.373-2.896,0.097-4.062-1.29c0.37-0.309,0.649-0.74,0.991-0.799
		c3.879-0.667,7.749-1.518,11.661-1.817c2.633-0.202,3.327,1.082,2.581,3.993c1.461,0,2.841-0.047,4.217,0.015
		c1.159,0.052,2.419-0.025,3.445,0.405c2.336,0.978,2.832,2.53,1.832,5.035c0.764,0,1.49,0.104,2.178-0.017
		c4.516-0.79,8.871,0.342,13.235,1.138c2.465,0.449,2.974,2.472,1.337,5.405c2.97-0.376,5.77-0.621,8.523-1.123
		c1.518-0.277,2.761-0.355,3.84,0.967c1.05,1.286,1.063,2.558,0.315,3.953c-0.165,0.307-0.205,0.68-0.31,1.048
		c4.106,0,8.108-0.037,12.108,0.032c0.794,0.014,1.716,0.245,2.345,0.7c1.639,1.184,1.635,2.41,0.123,3.755
		c-0.35,0.312-0.838,0.468-1.068,0.94c2.984,0.383,5.556-0.374,8.009-1.532c1.361-0.642,2.559-0.948,3.648,0.403
		c1.001,1.242,0.621,2.361-0.184,3.537c-0.496,0.725-0.804,1.578-1.317,2.618c2.113,0,3.832-0.141,5.519,0.028
		c4.051,0.407,8.086,0.978,12.134,1.428c0.493,0.055,1.023-0.227,1.536-0.355c0.642-0.16,1.63-0.656,1.857-0.419
		c0.601,0.628,1.25,1.605,1.179,2.379c-0.086,0.936-0.892,1.806-1.421,2.766c2.109-0.471,4.109-1.041,6.149-1.344
		c2.948-0.438,4.192,0.704,4.332,3.891c1.987-0.546,3.921-1.145,5.889-1.599c1.741-0.401,3.51-0.723,5.284-0.932
		c2.457-0.29,3.706,1.391,2.783,3.618c-0.618,1.49-0.3,1.909,1.338,1.727c1.844-0.206,3.681-0.521,5.53-0.627
		c3.522-0.201,4.55,1.019,3.763,4.475c4.854,0.269,9.686,0.537,14.518,0.805c0.039,0.178,0.077,0.357,0.115,0.535
		c-0.427,0.239-0.833,0.632-1.284,0.693c-4.119,0.552-8.235,1.201-12.374,1.508c-3.12,0.231-4.021-0.66-4.813-3.674
		c-0.077-0.293-0.179-0.581-0.302-0.976c-1.194,0.17-2.372,0.22-3.483,0.52c-2.365,0.639-4.09,0.04-5.198-2.222
		c-0.482-0.984-1.099-1.901-1.77-3.047c-3.41,0.91-6.991,1.768-10.511,2.829c-4.083,1.231-5.783,0.007-5.464-4.401
		c-1.413,0.365-2.76,0.703-4.101,1.063c-0.53,0.142-1.05,0.478-1.57,0.47c-0.925-0.015-2.399,0.068-2.655-0.414
		c-0.506-0.953-0.368-2.263-0.425-3.429c-0.013-0.259,0.269-0.533,0.624-1.182c-1.752-0.209-3.297-0.601-4.823-0.535
		c-3.803,0.164-7.602,0.479-11.392,0.843c-3.175,0.305-5.1-1.707-4.525-4.883c0.073-0.401,0.107-0.809,0.2-1.53
		c-2.543,0.494-4.876,0.939-7.203,1.406c-0.541,0.108-1.072,0.437-1.596,0.415c-1.109-0.047-2.577,0.13-3.234-0.489
		c-1.136-1.071-1.365-2.731-0.654-4.314c0.2-0.444,0.412-0.883,0.766-1.638c-3.49,0.294-6.767,0.459-10.011,0.875
		c-2.898,0.372-4.526-1.389-3.659-4.241C289.739,200.243,290.008,199.631,290.401,198.587z"/>
	<path fill="#000002" d="M404.547,383.634c1.288-0.143,2.6-0.521,3.858-0.384c3.227,0.351,4.944-0.864,5.985-3.936
		c2.179-6.436,4.193-12.967,6.951-19.157c3.413-7.663,7.573-14.99,11.29-22.522c1.887-3.823,3.496-7.782,5.256-11.668
		c2.983-6.585,5.893-13.205,9.012-19.726c2.026-4.237,4.346-8.335,6.573-12.475c2.012-3.74,4.123-7.428,6.09-11.191
		c0.708-1.355,1.097-2.873,1.688-4.293c0.247-0.593,0.642-1.124,0.969-1.683c0.176,0.043,0.352,0.087,0.528,0.131
		c-0.116,1.105-0.184,2.218-0.362,3.313c-0.246,1.52-0.548,3.032-0.881,4.535c-0.146,0.657-0.287,1.39-0.674,1.905
		c-3.586,4.772-5.193,10.496-7.665,15.801c-1.487,3.192-3.297,6.324-4.182,9.688c-2.207,8.388-6.522,15.855-9.789,23.773
		c-1.574,3.816-3.209,7.618-5.038,11.316c-2.778,5.618-5.955,11.046-8.57,16.735c-1.869,4.066-3.066,8.439-4.615,12.655
		c-1.04,2.83-1.901,5.773-3.33,8.401c-1.777,3.268-4.692,3.431-8.002,1.935c-1.704-0.77-3.322-1.729-4.979-2.602
		C404.62,384.001,404.584,383.818,404.547,383.634z"/>
	<path fill="#000002" d="M480.626,439.251c-0.345-2.586-0.719-5.168-1.028-7.758c-0.592-4.958-1.193-9.916-1.705-14.882
		c-0.399-3.872-0.619-7.763-1.007-11.637c-0.572-5.714-1.256-11.418-1.828-17.132c-0.491-4.909-1.091-9.819-1.287-14.743
		c-0.396-9.926-0.486-19.863-0.828-29.792c-0.209-6.053-0.705-12.096-0.978-18.147c-0.269-5.975-0.402-11.957-0.633-17.934
		c-0.057-1.478-0.323-2.947-0.387-4.425c-0.1-2.341-0.172-4.687-0.144-7.03c0.038-3.191,0.185-6.38,0.278-9.57
		c0.019-0.644,0.003-1.289,0.003-1.933c0.153-0.031,0.305-0.062,0.458-0.094c0.124,0.33,0.35,0.659,0.355,0.991
		c0.046,3.209,0.013,6.419,0.086,9.627c0.062,2.7,0.198,5.401,0.366,8.097c0.359,5.735,0.731,11.469,1.165,17.198
		c0.11,1.454,0.46,2.891,0.72,4.331c0.087,0.483,0.295,0.949,0.352,1.433c0.956,8.155,2.09,16.296,2.777,24.475
		c0.517,6.146,0.242,12.358,0.711,18.51c0.569,7.457,1.565,14.881,2.348,22.322c0.803,7.632,1.593,15.265,2.347,22.902
		c0.383,3.879,0.505,7.792,1.05,11.646c0.572,4.043-1.138,7.581-2.001,11.312c-0.169,0.732-0.478,1.432-0.723,2.147
		C480.937,439.194,480.782,439.222,480.626,439.251z"/>
	<path fill="#000002" d="M217.254,169.218c3.713,0,7.274-0.103,10.821,0.069c0.943,0.046,2.298,0.718,2.657,1.482
		c0.508,1.082,0.959,1.256,2.035,1.26c0.969,0.004,2.067,0.308,2.872,0.838c1.024,0.673,0.643,1.68,0.076,2.615
		c-0.115,0.189,0.273,0.692,0.444,1.044c0.571,1.178,0.022,2.21-1.267,2.373c-2.635,0.332-3.453-0.365-4.054-3.457
		c-1.419,0.182-3.128,0.924-4.174,0.383c-0.991-0.512-1.285-2.371-2.058-4.003c-1.957-0.325-4.389-1.076-6.932,0.333
		c-1.244,0.689-2.808,0.89-4.257,1.068c-0.473,0.059-1.31-0.546-1.5-1.034c-0.262-0.673-0.346-1.696,0-2.254
		c0.415-0.669,1.376-0.989,2.078-1.493c0.509-0.366,0.979-0.785,1.466-1.18c-0.067-0.208-0.134-0.417-0.201-0.625
		c-3.329,0.368-6.658,0.728-9.985,1.113c-0.674,0.078-1.337,0.354-2.003,0.35c-0.464-0.002-1.21-0.223-1.323-0.532
		c-0.172-0.469-0.056-1.19,0.211-1.641c0.46-0.776,1.132-1.427,1.914-2.372c-0.867,0-1.414,0-2.644,0
		c0.715-0.793,1.041-1.366,1.532-1.657c1.221-0.725,2.477-1.437,3.805-1.915c0.575-0.207,1.672-0.065,1.988,0.341
		c0.665,0.856-0.178,1.248-0.878,1.777c-1.116,0.844-2.016,1.975-3.007,2.984c0.113,0.194,0.226,0.388,0.339,0.582
		c1.124-0.066,2.247-0.141,3.372-0.194c2.222-0.106,4.443-0.268,6.666-0.281c2.597-0.016,3.175,0.952,2.148,3.355
		C217.327,168.71,217.319,168.898,217.254,169.218z"/>
	<path fill="#000002" d="M396.508,230.251c0.989-0.439,1.834-0.965,2.752-1.194c3.237-0.809,6.483-1.603,9.763-2.203
		c0.81-0.148,2.009,0.202,2.583,0.772c0.854,0.849-0.099,1.637-0.699,2.337c-0.525,0.613-1.003,1.266-1.502,1.902
		c0.116,0.198,0.232,0.397,0.348,0.595c2.196-0.489,4.393-0.973,6.587-1.468c1.081-0.244,2.146-0.588,3.239-0.75
		c2.597-0.386,3.98,0.732,4.231,3.613c1.226,0,2.508,0.138,3.75-0.026c3.875-0.511,7.528,0.166,10.947,1.972
		c0.612,0.323,1.391,1.367,1.261,1.858c-0.327,1.236-1.355,0.783-2.286,0.459c-3.535-1.229-7.16-1.884-10.922-1.461
		c-0.308,0.034-0.617,0.058-0.927,0.075c-4.118,0.228-4.83-0.419-4.92-4.762c-1.421,0.313-2.817,0.568-4.184,0.932
		c-2.323,0.618-4.607,1.395-6.947,1.931c-1.681,0.385-2.688-0.57-3.086-2.175c-0.176-0.711-0.284-1.44-0.473-2.421
		c-1.522,0.427-3.042,0.819-4.541,1.283C399.672,232.078,397.989,232.215,396.508,230.251z"/>
	<path fill="#000002" d="M445.693,212.913c0.969-0.22,1.94-0.641,2.906-0.628c6.581,0.087,13.146-1.583,19.74-0.147
		c2.414,0.525,4.93,0.695,7.263,1.448c2.71,0.875,4.352,3.151,5.682,5.575c0.441,0.803,0.767,1.684,1.024,2.565
		c0.121,0.414,0.12,1.11-0.127,1.319c-0.259,0.218-1.015,0.177-1.318-0.056c-0.707-0.543-1.5-1.165-1.859-1.939
		c-2.467-5.32-5.398-6.082-10.071-6.154c-4.185-0.064-8.365-0.397-12.549-0.595c-2.637-0.125-5.276-0.192-7.911-0.343
		c-0.908-0.052-1.806-0.279-2.709-0.426C445.74,213.324,445.716,213.118,445.693,212.913z"/>
	<path fill="#000002" d="M218.252,367.434c-0.372-0.627-0.744-1.254-1.451-2.446c0.909,0.292,1.557,0.295,1.75,0.592
		c3.845,5.937,9.08,10.603,14.056,15.508c0.647,0.638,1.122,1.451,1.677,2.182c-0.161,0.138-0.321,0.275-0.482,0.413
		c-1.899-1.697-3.797-3.393-5.696-5.09c-0.107,0.07-0.214,0.14-0.321,0.21c0.711,1.448,1.422,2.895,2.134,4.342
		c-0.095,0.017-0.189,0.034-0.284,0.051c-3.012-3.617-5.89-7.358-9.075-10.815c-3.143-3.412-6.599-6.536-9.917-9.787
		c0.137-0.175,0.274-0.349,0.412-0.524c2.326,1.833,4.652,3.666,6.978,5.499C218.105,367.526,218.178,367.48,218.252,367.434z"/>
	<path fill="#000002" d="M325.88,423.468c-0.563-0.361-1.109-0.549-1.412-0.93c-6.775-8.524-13.523-17.07-20.391-25.758
		C306.816,397.454,325.667,420.516,325.88,423.468z"/>
	<path fill="#000002" d="M252.889,370.874c4.664,9.301,9.316,18.578,14.133,28.184C263.936,397.973,252.088,373.69,252.889,370.874z
		"/>
	<path fill="#000002" d="M258.658,394.908c-0.504-0.504-1.145-0.93-1.486-1.527c-1.192-2.086-2.248-4.25-3.415-6.351
		c-2.512-4.521-5.077-9.012-7.586-13.535c-1.021-1.84-1.951-3.731-2.611-5.762c5.755,8.586,11.59,17.107,15.484,26.758
		C258.915,394.63,258.787,394.769,258.658,394.908z"/>
	<path fill="#000002" d="M235.935,366.454c3.423,4.967,6.865,9.913,10.254,14.895c1.871,2.751,3.663,5.556,5.458,8.358
		c0.149,0.232,0.045,0.626,0.058,0.945c-0.314-0.063-0.764-0.015-0.921-0.206c-1.053-1.287-2.113-2.579-3.043-3.955
		c-3.943-5.839-7.838-11.71-11.758-17.565C234.922,367.341,234.906,367.266,235.935,366.454z"/>
	<path fill="#000002" d="M398.402,433.111c0.456,0.243,1.06,0.375,1.343,0.749c1.535,2.029,2.938,4.158,4.489,6.175
		c1.412,1.836,3.104,3.47,4.405,5.375c2.293,3.361,4.395,6.853,6.542,10.311c0.329,0.53,0.471,1.175,0.392,1.943
		c-3.509-3.526-5.53-8.072-8.438-11.984c-2.977-4.006-5.923-8.035-8.883-12.054C398.303,433.454,398.352,433.283,398.402,433.111z"
		/>
	<path fill="#000002" d="M377.342,444.751c-4.909-9.322-10.756-17.275-18.912-24.054c0.768,0.09,1.205,0.015,1.48,0.192
		c4.031,2.604,7.234,6.06,10.011,9.928c2.145,2.987,4.28,5.983,6.326,9.038C377.093,441.118,378.045,442.462,377.342,444.751z"/>
	<path fill="#000002" d="M300.683,394.15c0.416,0.483,0.499,0.544,0.489,0.572c-1.098,3.052,1.213,4.715,2.792,6.589
		c3.468,4.115,6.527,8.478,8.684,13.424c0.286,0.656,0.27,1.443,0.394,2.169c-0.17,0.047-0.339,0.094-0.509,0.141
		c-0.637-1.22-1.153-2.525-1.933-3.645c-2.776-3.989-5.615-7.936-8.493-11.853c-0.752-1.024-1.82-1.816-2.564-2.844
		c-0.329-0.455-0.419-1.297-0.25-1.85C299.567,395.958,300.146,395.155,300.683,394.15z"/>
	<path fill="#000002" d="M294.904,409.389c-0.18-0.383-0.32-0.792-0.547-1.145c-3.5-5.44-7.012-10.873-10.52-16.308
		c-0.736-1.14-1.523-2.251-2.179-3.435c-0.25-0.452-0.199-1.071-0.363-2.1c4.305,3.802,14.631,20.442,14.188,22.506
		C295.29,409.067,295.097,409.228,294.904,409.389z"/>
	<path fill="#000002" d="M227.954,365.778c5.73,7.964,11.46,15.927,17.189,23.891c-2.224-0.141-15.336-18.208-17.662-23.53
		C227.639,366.019,227.797,365.899,227.954,365.778z"/>
	<path fill="#000002" d="M338.804,413.167c1.835,1.811,3.712,3.583,5.497,5.442c3.518,3.663,7.031,7.333,10.454,11.085
		c1.616,1.772,3.037,3.724,4.493,5.635c0.242,0.318,0.211,0.843,0.306,1.273c-0.47-0.144-1.109-0.14-1.385-0.455
		c-4.827-5.516-9.608-11.071-14.402-16.616c-1.758-2.033-3.523-4.059-5.285-6.089C338.589,413.351,338.696,413.259,338.804,413.167z
		"/>
	<path fill="#000002" d="M495.306,445.055c1.555-5.017,3.167-10.017,4.647-15.056c1.25-4.255,2.316-8.564,3.539-12.828
		c0.195-0.681,0.784-1.249,1.551-1.685c-2.39,10.203-5.699,20.041-9.215,29.812C495.654,445.217,495.48,445.136,495.306,445.055z"/>
	<path fill="#000002" d="M261.47,374.781c5.092,9.288,10.185,18.577,15.565,28.391c-0.804-0.659-1.407-0.955-1.718-1.44
		c-1.828-2.85-3.751-5.658-5.336-8.642c-2.799-5.273-5.388-10.658-8.034-16.011c-0.341-0.69-0.498-1.47-0.741-2.208
		C261.295,374.841,261.383,374.811,261.47,374.781z"/>
	<path fill="#000002" d="M390.833,433.46c0.591,0.115,1.309,0.054,1.754,0.373c2.5,1.795,5.084,3.516,7.358,5.574
		c4.509,4.08,7.661,9.115,9.686,14.836c-0.128,0.104-0.256,0.208-0.383,0.312c-0.331-0.382-0.744-0.718-0.979-1.152
		c-1.995-3.69-4.035-7.345-6.905-10.457c-3.057-3.315-6.046-6.71-10.284-8.613c-0.167-0.075-0.34-0.135-0.511-0.201
		C390.657,433.908,390.745,433.684,390.833,433.46z"/>
	<path fill="#000002" d="M349.007,416.552c5.575,1.574,19.918,16.971,19.525,20.788c-3.037-3.596-5.945-7.337-9.174-10.777
		C356.127,423.119,352.575,419.977,349.007,416.552z"/>
	<path fill="#000002" d="M222.706,380.058c-6.433-7.314-13.749-13.886-18.864-22.306c0.194-0.164,0.389-0.328,0.583-0.492
		c6.296,7.422,12.593,14.844,18.889,22.265C223.111,379.702,222.908,379.88,222.706,380.058z"/>
	<path fill="#000002" d="M398.149,450.677c-6.211-7.819-12.066-15.984-20.391-22.071c0.811,0.295,1.763,0.409,2.412,0.914
		c5.762,4.479,11.039,9.43,15.027,15.633c1.103,1.716,2.439,3.282,3.669,4.917C398.627,450.273,398.388,450.475,398.149,450.677z"/>
	<path fill="#000002" d="M188.037,347.014c4.313,7.449,8.533,14.737,12.737,22.035c0.055,0.095-0.105,0.313-0.25,0.706
		c-1.477-2.124-2.934-4.053-4.215-6.093c-2.886-4.594-5.687-9.241-8.518-13.87C187.278,348.954,186.656,348.103,188.037,347.014z"/>
	<path fill="#000002" d="M444.013,463.218c-5.508-6.305-11.016-12.609-16.689-19.103
		C429.732,444.013,444.215,460.475,444.013,463.218z"/>
	<path fill="#000002" d="M491.494,415.898c2.146-7.737,4.618-15.36,7.783-22.742c0.287,0.051,0.574,0.101,0.861,0.152
		c-0.063,0.672,0.008,1.391-0.209,2.008c-2.253,6.4-4.544,12.787-6.856,19.166c-0.218,0.601-0.646,1.126-0.977,1.686
		C491.896,416.078,491.695,415.988,491.494,415.898z"/>
	<path fill="#000002" d="M493.076,425.692c2.153-8.202,3.834-16.572,7.847-24.567C501.612,402.696,495.217,422.384,493.076,425.692z
		"/>
	<path fill="#000002" d="M303.585,412.713c-1.623-2.47-3.04-4.75-4.58-6.944c-2.379-3.39-4.854-6.713-7.258-10.084
		c-0.499-0.699-0.916-1.468-1.267-2.251c-0.091-0.202,0.208-0.578,0.328-0.875c0.244,0.134,0.574,0.207,0.721,0.411
		c3.637,5.048,7.319,10.066,10.829,15.202C303.172,409.363,304.521,410.653,303.585,412.713z"/>
	<path fill="#000002" d="M465.495,274.74c-1.013,0.443-2.023,1.252-3.039,1.26c-3.137,0.025-6.28-0.219-9.411-0.466
		c-0.355-0.028-0.981-1.032-0.931-1.087c0.52-0.576,1.163-1.495,1.75-1.48c3.566,0.095,7.128,0.4,10.688,0.667
		c0.264,0.02,0.508,0.297,0.761,0.455C465.374,274.306,465.435,274.523,465.495,274.74z"/>
	<path fill="#000002" d="M210.909,373.961c-1.636-1.931-3.369-3.788-4.887-5.808c-2.996-3.988-5.91-8.039-8.764-12.13
		c-0.577-0.827-1.791-1.876-0.453-2.999c4.93,6.927,9.775,13.735,14.62,20.542C211.252,373.698,211.08,373.83,210.909,373.961z"/>
	<path fill="#000002" d="M436.711,461.555c-5.455-6.744-10.91-13.487-16.405-20.281c1.422-0.004,1.398,0.015,6.172,5.929
		c1.897,2.35,3.894,4.622,5.905,6.876c1.951,2.187,3.759,4.439,4.8,7.165C437.025,461.348,436.868,461.452,436.711,461.555z"/>
	<path fill="#000002" d="M274.338,383.737c5.217,7.18,9.681,14.797,13.384,22.857c-0.247,0.144-0.494,0.287-0.741,0.431
		c-4.38-7.666-8.76-15.332-13.14-22.999C274.007,383.929,274.173,383.833,274.338,383.737z"/>
	<path fill="#000002" d="M503.387,410.235c-3.013,8.124-6.025,16.248-9.113,24.574c-0.619-2.422,7.032-24.284,8.545-24.849
		C503.009,410.051,503.198,410.143,503.387,410.235z"/>
	<path fill="#000002" d="M451.379,467.181c-5.273-6.579-10.546-13.157-15.818-19.736c0.206-0.171,0.412-0.341,0.618-0.512
		c5.305,6.303,10.615,12.601,15.892,18.927c0.163,0.195-0.015,0.674-0.034,1.021C451.818,466.981,451.599,467.081,451.379,467.181z"
		/>
	<path fill="#000002" d="M406.741,439.952c0.564,0.316,1.248,0.517,1.673,0.965c4.116,4.326,8.24,8.648,12.234,13.087
		c0.843,0.936,1.164,2.343,1.353,3.636c-5.15-5.752-10.3-11.504-15.45-17.256C406.614,440.24,406.678,440.096,406.741,439.952z"/>
	<path fill="#000002" d="M368.145,426.41c5.433,0.866,16.772,12.81,16.248,17.445C380.585,436.304,374.408,431.495,368.145,426.41z"
		/>
	<path fill="#000002" d="M346.914,431.602c-6.981-6.579-13.417-13.63-18.51-21.841c6.305,7.164,12.61,14.328,18.915,21.492
		C347.184,431.369,347.049,431.485,346.914,431.602z"/>
	<path fill="#000002" d="M175.007,343.421c3.163,5.593,6.26,11.07,9.357,16.547c-0.177,0.125-0.354,0.25-0.531,0.376
		c-0.568-0.753-1.2-1.467-1.694-2.266c-2.539-4.109-5.093-8.211-7.529-12.381C173.801,344.312,174.009,344.03,175.007,343.421z"/>
	<path fill="#000002" d="M191.945,363.947c-3.383-6.286-7.834-11.988-10.796-18.505c0.334-0.183,0.668-0.366,1.002-0.549
		c3.557,6.183,7.115,12.366,10.672,18.549C192.531,363.61,192.238,363.778,191.945,363.947z"/>
	<path fill="#000002" d="M163.152,318.322c0.077-0.802,0.113-1.176,0.165-1.714c0.328,0.266,0.631,0.386,0.678,0.571
		c0.224,0.88,0.379,1.778,0.558,2.669c-0.819-0.23-1.878-0.21-2.419-0.73c-3.001-2.887-5.891-5.89-8.772-8.899
		c-0.291-0.304-0.262-0.915-0.381-1.384c0.468,0.136,1.089,0.127,1.38,0.432c2.131,2.232,4.178,4.543,6.291,6.792
		C161.344,316.796,162.152,317.424,163.152,318.322z"/>
	<path fill="#000002" d="M149.442,314.455c0.516-1.346,1.365-0.693,2.011-0.227c2.4,1.73,4.787,3.481,7.109,5.312
		c2.034,1.604,3.979,3.322,5.951,5.004c0.204,0.174,0.324,0.448,0.483,0.675c-0.146,0.176-0.292,0.352-0.438,0.527
		C159.571,322.021,154.584,318.296,149.442,314.455z"/>
	<path fill="#000002" d="M505.738,427.645c-2.598,7.637-2.994,15.882-6.468,23.277C501.116,443.078,501.72,434.889,505.738,427.645z
		"/>
	<path fill="#000002" d="M509.739,396.019c4.225-4.532,7.801-9.227,12.909-12.757C522.514,385.306,511.923,395.84,509.739,396.019z"
		/>
	<path fill="#000002" d="M492.107,394.707c-1.02-2.787,3.619-14.861,5.977-15.613C496.092,384.298,494.099,389.502,492.107,394.707z
		"/>
	<path fill="#000002" d="M491.828,405.375c-0.751-2.22,4.458-17.166,6.72-19.033c-0.082,0.76,0.002,1.587-0.273,2.27
		c-1.402,3.481-2.951,6.903-4.338,10.39C493.175,400.92,492.63,402.926,491.828,405.375z"/>
	<path fill="#000002" d="M444.34,451.768c4.678,4.876,9.042,9.425,13.406,13.975c-0.062,0.153-0.125,0.306-0.187,0.459
		c-0.491-0.102-1.17-0.031-1.445-0.331c-3.956-4.308-7.86-8.665-11.763-13.022C444.265,452.753,444.34,452.514,444.34,451.768z"/>
	<path fill="#000002" d="M384.273,383.66c2.702,5.248,3.424,11.476,7.791,15.901c-0.086,0.168-0.172,0.336-0.258,0.505
		c-0.598-0.331-1.451-0.512-1.75-1.02c-1.277-2.166-2.516-4.372-3.527-6.671c-1.016-2.311-1.76-4.744-2.588-7.136
		c-0.159-0.459-0.154-0.975-0.225-1.465C383.902,383.736,384.088,383.698,384.273,383.66z"/>
	<path fill="#000002" d="M163.853,312.112c-2.698-0.217-4.057-2.025-5.544-3.242c-2.14-1.751-4.799-3.291-5.033-6.645
		C156.652,305.38,160.028,308.536,163.853,312.112z"/>
	<path fill="#000002" d="M178.064,359.508c-2.179-3.739-4.386-7.462-6.506-11.234c-0.3-0.534-0.171-1.31,0.028-2.053
		c2.55,4.28,5.458,8.318,7.158,12.975C178.518,359.299,178.291,359.404,178.064,359.508z"/>
	<path fill="#000002" d="M154.65,296.228c2.619,2.994,5.25,6.001,7.851,8.974c-0.9,0.577-1.748,0.197-4.291-2.235
		C155.378,300.258,153.927,297.483,154.65,296.228z"/>
	<path fill="#000002" d="M391.156,385.264c2.339,4.24,2.511,9.633,6.674,13.165c-1.518,0.872-2.263-0.234-2.71-1.171
		c-1.269-2.656-2.389-5.385-3.508-8.11c-0.477-1.162-0.804-2.386-1.199-3.582C390.66,385.466,390.908,385.365,391.156,385.264z"/>
	<path fill="#000002" d="M161.965,298.734c-2.198,0.8-5.907-4.552-5.397-8.054C158.366,293.364,160.136,296.005,161.965,298.734z"/>
	<path fill="#000002" d="M403.198,395.981c-2.373-0.55-5.922-5.3-6.277-9.079C399.189,390.181,401.25,393.163,403.198,395.981z"/>
	<path fill="#000002" d="M162.746,292.772c-1.819,0.633-4.291-2.617-4.722-6.563C159.776,288.644,161.221,290.653,162.746,292.772z"
		/>
	<path fill="#000002" d="M295.841,392.782c0.472,0.142,1.203,0.144,1.368,0.451c0.542,1.006,2.267,1.57,1.227,3.468
		c-1.015-1.179-1.934-2.247-2.853-3.316C295.67,393.184,295.755,392.983,295.841,392.782z"/>
	<path fill="#000002" d="M162.577,282.239c-2.243,0.69-3.328-0.214-3.005-2.163C160.526,280.762,161.415,281.402,162.577,282.239z"
		/>
	<path fill="#000002" d="M493.49,379.748c0.187-1.176,0.375-2.352,0.562-3.528c0.237,0.026,0.475,0.051,0.712,0.077
		c-0.086,1.178-0.171,2.356-0.257,3.534C494.168,379.804,493.83,379.776,493.49,379.748z"/>
	<path fill="#000002" d="M530.811,327.392c-1.713,2.607-3.427,5.215-5.14,7.823c-0.145-0.093-0.289-0.187-0.434-0.28
		c0.997-3.077,3.007-5.51,5.155-7.855C530.532,327.184,530.672,327.288,530.811,327.392z"/>
</g>
</svg>
