<?xml version="1.0" encoding="utf-8"?>
<!-- Generator: Adobe Illustrator 17.0.0, SVG Export Plug-In . SVG Version: 6.00 Build 0)  -->
<!DOCTYPE svg PUBLIC "-//W3C//DTD SVG 1.1//EN" "http://www.w3.org/Graphics/SVG/1.1/DTD/svg11.dtd">
<svg version="1.1" id="Layer_1" xmlns="http://www.w3.org/2000/svg" xmlns:xlink="http://www.w3.org/1999/xlink" x="0px" y="0px"
	 width="800px" height="600px" viewBox="0 0 800 600" enable-background="new 0 0 800 600" xml:space="preserve">
<g>
	<path fill-rule="evenodd" clip-rule="evenodd" d="M343.8,295.02c33.824,34.762,57.12,65.499,83.72,101.1
		c-27.307,34.216-45.187,68.354-56.161,93.582c35.783,29.723,109.291,2.917,144.498-37.047c-9.917-9.258-20.66-17.722-32.769-25.345
		c5.267-8.688-2.155-14.732-2.155-14.732s12.374-16.292,17.944-26.538c5.568-10.246,13.564-26.001,14.017-34.593
		c8.431-1.446,21.237-8.212,23.501-16.608c2.273-8.399-0.203-15.787-9.683-17.821c-10.026-2.152-18.359-0.148-27.021,8.414
		c-27.222,4.872-60.835-4.871-78.362-18.473c34.642-12.263,71.968-30.229,88.052-47.025c-2.265-19.648-7.053-34.012-18.142-51.729
		c5.153-6.549,12.168-16.62,13.606-20.482c-10.726-12.26-25.771-5.039-35.256-2.186c-8.17,2.45-11.556-3.031-11.556-3.031
		s14.437-5.873,29.899-19.816c15.468-13.938,26.069-37.406,14.026-39.631c-27.217-5.039-77.937,23.675-102.815,37.652
		c-1.928-2.894-6.197-7.763-16.573-8.599c10.658-10.485,41.452-31.24,90.738-42.995c0,0-20.828-5.544-55.473,8.227
		c-19.983,7.94-32.375,13.77-51.159,30.013c9.764-16.627,23.289-29.102,42.505-42.101c19.216-13.004,46.187-24.523,46.187-24.523
		s-49.492-12.087-111.33,73.855c-3.107-21.326,41.222-62.431,41.222-62.431c-27.075,2.893-45.169,21.835-61.462,51.053
		c-16.294,29.228-35.503,74.316,0,108.649c-29.077,11.924-32.169,32.749-28.87,45.342c3.299,12.596,14.027,19.318,25.366,17.64
		C331.631,313.164,340.918,304.427,343.8,295.02z"/>
	<path fill-rule="evenodd" clip-rule="evenodd" fill="#F1D4A4" d="M449.584,179.652c0.408,6.05,4.121,10.922,15.467,11.089
		c11.338,0.166,21.134-11.128,31.341-1.011c-27.953,36.145-59.095,73.449-95.484,105.975c-8.877-5.058-17.533-12.668-24.127-21.164
		c-2.481-0.067-5.567,3.025-5.567,4.536c16.912,17.298,72.177,60.798,130.954,50.386c4.881-5.061,19.183-12.952,26.399-5.227
		c7.218,7.727-2.888,19.983-19.178,22.171c-16.288,2.185-29.285-1.847-34.872-7.489c-3.107,1.086-3.365,4.392-1.767,5.787
		c6.953,6.069,23.037,7.411,33.959,6.907c-5.32,16.992-19.827,42.64-30.926,57.102c-11.552-6.043-27.794-8.143-43.517-5.373
		c1.855-2.182,4.131-6.546,5.162-8.899c-28.464-39.296-55.474-72.887-90.327-105.973c1.33-1.447,4.331-7.719-2.061-11.417
		c-6.392-3.696-14.848,1.343-18.351,4.363c10.721-0.334,15.882,4.532,10.106,14.107c-5.779,9.575-17.955,14.781-28.051,8.904
		c-10.103-5.878-5.767-26.538,4.957-36.611c10.719-10.081,16.584-10.218,23.676-4.801c3.541-2.591,6.424-6.788,5.394-10.984
		c-12.429-7.59-12.044-29.131-8.94-40.336c5.327-16.268,15.954-34.23,26.265-42.623c10.311-8.402,20.303-11.774,24.334-9.912
		c9.071,4.197,9.315,10.246,9.315,10.246s83.47-47.356,106.153-41.14C508.78,130.696,482.375,171.426,449.584,179.652z"/>
	<path fill-rule="evenodd" clip-rule="evenodd" d="M377.769,171.211c-0.887,2.891,2.757,6.543,5.417,7.263
		c-2.214,14.82-13.406,26.713-22.281,39.363c-4.116-5.769-0.257-9.144,5.574-18.026c6.395-9.746,11.29-18.84,8.185-28.6l0,0H377.769
		L377.769,171.211z"/>
	<path fill-rule="evenodd" clip-rule="evenodd" fill="#FFFFFF" d="M503.61,258.591c-8.663,8.735-30.361,21.091-46.399,28.551
		c-21.656,10.073-41.044,16.79-41.044,16.79s-6.87-3.101-10.311-5.54c31.557-25.695,58.209-57.239,80.844-86.153
		C501.336,233.735,503.61,258.591,503.61,258.591z"/>
	<path fill-rule="evenodd" clip-rule="evenodd" fill="#009BDC" d="M510.226,458.624c-10.16-10.219-21.321-20.109-33.621-28.917
		c3.917-6.549,0.621-12.595-5.774-16.458c-6.392-3.862-27.821-7.824-42.467-2.76c0,0-28.993,35.161-47.825,85.267
		C416.484,514.038,476.376,492.139,510.226,458.624z"/>
	<g>
		<path fill-rule="evenodd" clip-rule="evenodd" fill="#D47E1C" d="M363.183,147.239c-10.312,12.264-31.135,29.394-31.135,29.394
			c1.77-0.724,11.589-3.491,19.177-10.246C360.09,158.494,361.944,151.438,363.183,147.239z"/>
		<path fill-rule="evenodd" clip-rule="evenodd" fill="#D47E1C" d="M361.33,161.678c11.852-9.225,44.954-33.252,68.255-43.492
			C398.447,125.907,373.907,142.199,361.33,161.678z"/>
		<path fill-rule="evenodd" clip-rule="evenodd" fill="#D47E1C" d="M362.775,137.336c-9.871,11.051-14.64,17.798-17.327,24.012
			c0,0,11.753-12.091,26.396-28.043c14.646-15.958,35.882-34.767,35.882-34.767S387.519,109.622,362.775,137.336z"/>
		<path fill-rule="evenodd" clip-rule="evenodd" fill="#D47E1C" d="M337.376,162.176c-0.457-1.544-1.769-12.684,6.66-27.833
			c8.425-15.145,26.158-31.276,32.138-37.321c0,0-15.259,5.213-25.156,15.79c-9.895,10.582-16.7,21.158-24.33,38.792
			c-7.632,17.634-23.51,51.059-11.056,76.718C315.631,228.322,312.669,184.357,337.376,162.176z"/>
		<path fill-rule="evenodd" clip-rule="evenodd" fill="#D47E1C" d="M324.007,194.938c-7.516,21.423-2.059,38.453,3.299,44.668
			c0,0-4.953-23.344,4.125-41.649c9.078-18.306,21.447-27.041,21.447-27.041C344.217,172.935,329.371,179.652,324.007,194.938z"/>
	</g>
	<path fill-rule="evenodd" clip-rule="evenodd" fill="#F8E8C3" d="M448.135,145.344c10.316-4.527,34.084-14.586,41.512-12.808
		c7.43,1.78-11.797,17.794-38.02,24.913C425.407,164.569,414.924,159.938,448.135,145.344z"/>
	<path fill-rule="evenodd" clip-rule="evenodd" fill="#E9BC7D" d="M343.253,249.981c0,0-14.859-13.168-7.43-37.729
		c6.483-21.432,19.228-35.232,19.228-35.232s-10.927,22.42-13.113,38.08C339.753,230.764,343.253,249.981,343.253,249.981z"/>
	<path fill-rule="evenodd" clip-rule="evenodd" fill="#E9BC7D" d="M385.203,180.219c0,0-1.752,9.968-5.684,16.377
		c-3.932,6.408-13.544,18.148-13.544,18.148s13.979-6.05,20.1-17.438C392.197,185.917,385.203,180.219,385.203,180.219z"/>
	<path fill-rule="evenodd" clip-rule="evenodd" fill="#E9BC7D" d="M474.787,348.21c0,0,7.432,3.207,15.294,4.272
		c7.865,1.06,14.859,0.71,14.859,0.71l-4.368,10.318c0,0-6.999-0.36-15.299-4.627C476.973,354.611,474.787,348.21,474.787,348.21z"
		/>
	<path fill-rule="evenodd" clip-rule="evenodd" fill="#E9BC7D" d="M448.129,183.074c0,0,1.303,6.049,9.612,8.186
		c8.306,2.134,12.676,0.354,17.919-1.425c5.243-1.782-3.495,13.526-21.849,9.61C435.455,195.527,448.129,183.074,448.129,183.074z"
		/>
	<path fill-rule="evenodd" clip-rule="evenodd" fill="#F8E8C3" d="M364.659,225.067c5.158-5.975,20.106-13.166,30.591-15.304
		c10.485-2.14,5.682,2.489,1.311,4.626c-4.371,2.139-19.226,8.54-24.911,15.659C365.97,237.167,353.292,238.236,364.659,225.067z"/>
	<path fill-rule="evenodd" clip-rule="evenodd" fill="#73BBE7" d="M420.941,426.868c3.938-4.771,17.622-8.294,15.662,0.317
		c-1.955,8.616-27.413,38.912-32.895,44.335C398.222,476.941,405.672,445.366,420.941,426.868z"/>
</g>
</svg>
