<?xml version="1.0" encoding="utf-8"?>
<!-- Generator: Adobe Illustrator 17.0.0, SVG Export Plug-In . SVG Version: 6.00 Build 0)  -->
<!DOCTYPE svg PUBLIC "-//W3C//DTD SVG 1.1//EN" "http://www.w3.org/Graphics/SVG/1.1/DTD/svg11.dtd">
<svg version="1.1" id="Layer_1" xmlns="http://www.w3.org/2000/svg" xmlns:xlink="http://www.w3.org/1999/xlink" x="0px" y="0px"
	 width="173.5px" height="214.5px" viewBox="0 0 173.5 214.5" enable-background="new 0 0 173.5 214.5" xml:space="preserve">
<g>
	<path d="M76.316,82.856l-1.851-8.781l-4.388-7.859l0.461-8.779l0.013-0.049l-2.326-1.104l-0.461,1.153l-3.696-1.62l-7.4,7.399
		c0.464-5.088-9.008-17.798-9.008-17.798l-3.288-2.94c-2.928,3.928-13.55,18.74-13.35,26.513l0.46,18.031l-1.156,11.088
		l-1.384,13.171l0.92,3.005l3.698,14.79c0,0-0.693,3.465,0.233,4.62c0.921,1.157,3.463,2.314,3.463,2.314l30.737-15.718l8.784-2.769
		l-0.461-14.79V82.856z"/>
	<polygon fill="#FFFFFF" points="72.387,91.174 77.701,100.19 67.765,107.584 61.296,94.642 	"/>
	<polygon fill="#FDCC8A" points="93.185,82.856 88.332,84.473 83.48,85.633 78.393,87.941 72.836,91.939 76.86,98.757 88.101,97.88 
		89.487,97.413 91.797,90.253 94.571,85.864 95.265,83.782 	"/>
	<path d="M76.743,116.39l0.034,1.132l-8.784,2.769l-30.737,15.718c0,0-2.542-1.157-3.463-2.314
		c-5.776,21.263,49.224,12.479,49.224,12.479l2.31-1.618l15.021-20.797l3.235-1.385v-5.546L76.743,116.39z"/>
	<path fill="#FDCC8A" d="M118.606,199.327c0,0,9.011,4.849,10.396,9.247l5.55,1.151l3.232-2.077l-0.305-1.043l-0.385-0.115
		c-3.466-1.62-8.556-17.559-8.556-17.559l2.545-52.232l-1.62-13.4c-1.157-4.625-25.882-6.472-25.882-6.472v5.546l-3.235,1.385
		l-6.371,8.827l21.166,7.117c-6.473,8.554-0.694,26.347-0.694,26.347c3.695,16.407,1.385,22.185,1.385,22.185
		c-0.144,0.044-0.277,0.094-0.419,0.144l2.038,5.17L118.606,199.327z"/>
	<path d="M112.598,200.48c2.772,2.311,3.005,10.863,3.005,10.863h1.85l-0.463-9.707c6.237,0.46,10.855,10.401,10.855,10.401
		c3.699,5.543,16.181,1.848,16.181,1.848c4.388-2.08,0.924-5.083,0.924-5.083l-7.471-2.198l0.305,1.043l-3.232,2.077l-5.55-1.151
		c-1.385-4.398-10.396-9.247-10.396-9.247l-1.153-5.777l-2.038-5.17C107.697,191.118,112.598,200.48,112.598,200.48z"/>
	<path fill="#FDCC8A" d="M149.109,206.723c0,0,8.951,1.139,7.313-6.777c-10.81-9.493-17.021-27.658-17.021-27.658l-9.244-37.899
		c0-4.391-5.08-9.012-5.08-9.012l-17.562-2.541l-4.613-0.169l-2.554,1.092L85.49,144.33c5.216,0.513,16.014-0.463,16.014-0.463
		c7.859-2.314,12.018,0,12.018,0c-3.466,6.7,3.695,19.639,3.695,19.639c0.925,4.161,16.638,23.342,16.638,23.342l-0.911,0.737
		l2.76,10.816C135.705,198.402,146.8,203.488,149.109,206.723z"/>
	<path d="M135.563,205.055l-0.551-4.806c3.005-0.921,9.244,6.242,9.244,6.242c3.469,8.781,17.562,2.313,17.562,2.313
		c2.314-1.154,0.231-5.546,0.231-5.546l-5.549-3.239c-0.022-0.019-0.052-0.049-0.078-0.071c1.637,7.916-7.313,6.777-7.313,6.777
		c-2.31-3.235-13.404-8.321-13.404-8.321l-2.76-10.816l-3.817,3.088C130.305,194.116,133.08,201.756,135.563,205.055z"/>
	<path fill="#FDCC8A" d="M77.242,18.411l-8.323,3.436h-2.311l-2.771,4.852l-1.158,1.388l-0.924-2.312l-3.466-2.544
		c-7.627-2.771-5.313,5.548-5.313,5.548l3.465,3.006v6.009l-1.387,1.156l-2.996-1.834l0.918,3.22l10.862,12.246
		c0,0,0.232-8.781,7.396-14.327l4.158,0.234l3.002-1.386l0.234-2.312l0.691-2.311l0.463-2.314v-2.31l1.385-1.156v-1.383
		l-3.699-4.161L77.242,18.411z"/>
	<path d="M56.44,37.794v-6.009l-3.465-3.006c0,0-2.314-8.319,5.313-5.548l3.466,2.544l0.924,2.312l1.158-1.388l2.771-4.852h2.311
		l8.323-3.436l-0.006-0.03l2.083-2.309c0,0-1.157-10.401-9.241-11.326L65.454,3.59c0,0-13.403-6.699-22.185,6.937l-3.929-0.463
		c0,0-8.317,0.691-8.55,6.469l-0.927,19.644l2.08,7.856l3.698,4.85l1.385-1.615l3.24-2.539l1.157-5.319l-0.467-5.314
		c0,0-5.314-18.713,0.467-19.407l-0.926,5.083c0,0-2.774,10.395,8.548,13.399l2.081,0.694l0.931,3.251l2.996,1.834L56.44,37.794z"/>
	<path fill="#FFFFFF" d="M63.837,52.581L52.975,40.335l-0.896-3.127c-1.064-0.316-2.031-0.392-2.803-0.105l-4.161,4.388
		c0,0-0.277,0.36-0.743,0.987l3.288,2.94c0,0,9.472,12.71,9.008,17.798l7.4-7.399l3.696,1.62l0.461-1.153l2.326,1.104l0.911-4.11
		l-6.236-6.839C63.908,49.832,63.837,52.581,63.837,52.581z"/>
	<polygon fill="#FDCC8A" points="94.802,76.155 93.879,74.075 91.334,74.305 89.714,75.46 88.101,75.692 87.177,77.77 
		82.782,78.931 79.552,85.398 76.316,86.205 76.316,89.434 78.393,87.941 83.48,85.633 88.332,84.473 92.551,83.068 92.951,81.701 
		95.265,79.851 96.88,77.541 	"/>
	<polygon fill="#4A007D" points="93.185,82.856 95.265,83.782 94.571,85.864 91.797,90.253 91.247,91.957 120.223,62.982 
		117.217,62.982 104.737,68.296 91.753,83.335 	"/>
	<polygon points="87.177,77.77 81.172,74.875 79.728,76.561 84.54,78.728 	"/>
</g>
</svg>
