<?xml version="1.0" encoding="utf-8"?>
<!-- Generator: Adobe Illustrator 17.0.0, SVG Export Plug-In . SVG Version: 6.00 Build 0)  -->
<!DOCTYPE svg PUBLIC "-//W3C//DTD SVG 1.1//EN" "http://www.w3.org/Graphics/SVG/1.1/DTD/svg11.dtd">
<svg version="1.1" id="Layer_1" xmlns="http://www.w3.org/2000/svg" xmlns:xlink="http://www.w3.org/1999/xlink" x="0px" y="0px"
	 width="800px" height="600px" viewBox="0 0 800 600" enable-background="new 0 0 800 600" xml:space="preserve">
<g>
	<path d="M233.544,251.306c-5.588-45.067-4.58-87.316,17.235-128.991c20.011-38.23,74.632-102.241,142.252-74.262
		c31.097-15.217,56.473-11.117,80.322-0.877c39.584,16.998,67.889,50.779,85.934,87.468
		c23.369,47.514,31.631,100.856,34.895,153.293c1.714,27.574,1.993,55.232,2.01,82.886c0.011,13.559,1.784,55.381-7.934,68.996
		c7.514,35.639-6.777,66.239-21.731,95.213c-3.901,7.568-11.248,20.849-20.754,33.738c-2.998,4.075-10.703,12.846-16.737,14.505
		c1.771-26.995-8.043-70.834-22.769-115.68c-3.425-10.423-23.114-52.296-39.11-77.792c-11.954,11.137-30.697,19.933-57.478,1.25
		c-14.674,39.411-17.352,113.635-8.674,163.582c-16.753-15.933-41.36-38.66-56.247-56.228
		c-30.277-35.71-56.138-75.007-74.995-117.568C251.714,340.098,239.024,295.516,233.544,251.306z"/>
	<path fill="#A64419" d="M538.402,558.777c4.7-13.414,5.74-27.819,5.666-41.806c-0.098-17.998-2.376-36.084-5.591-53.711
		c-7.057-38.66-24.085-75.432-47.051-107.475c-0.807,1.579-1.578,3.186-2.421,4.738c-2.433,4.498-5.079,9.275-8.101,13.826
		c0.197,0.107,0.376,0.246,0.514,0.469c18.616,29.783,35.389,60.831,46.814,94.005c9.888,28.724,15.325,59.922,9.99,90.259
		C538.282,558.98,538.342,558.88,538.402,558.777z"/>
	<path fill="#943F1A" d="M505.156,439.772c15.791,34.14,27.485,70.294,31.706,107.762c2.35-26.378-2.97-52.93-11.379-77.939
		c-11.017-32.78-27.89-63.483-46.215-92.841c-1.99,2.809-4.13,5.504-6.504,7.942C478.983,390.551,493.859,415.364,505.156,439.772z"
		/>
	<path fill="#EAC0A5" d="M412.146,383.146c9.71,6.793,21.866,11.3,34.344,8.22c12.158-3.008,20.789-11.197,27.541-20.911
		c15.179-21.816,31.649-68.676,33.931-108.774c-7.611-11.8-18.114-23.653-27.565-31.859c-9.458-8.203-20.754-17.161-28.372-27.989
		c-14.741-6.399-30.73-12.507-42.528-14.21c-4.617-0.564,1.913-4.62,9.228-3.951c7.317,0.668,17.208,2.488,24.915,5.85
		c-5.763-7.4-11.76-16.484-16.277-24.668c-7.141,4.785-5.004,12.954-4.54,15.448c0.309,1.654-3.984-1.882-4.351-5.975
		c-0.36-4.094,0.188-9.426,5.64-14.616c-3.417-8.343-6.586-20.494-9.918-28.869c-18.242,3.441-34.179,12.675-46.751,25.839
		c6.884,1.947,13.28,7.791,12.974,15.106c-0.226,5.358-5.463,9.548-5.994,7.654c-0.615-2.197,2.523-7.665-0.239-13.536
		c-1.234-2.62-5.882-4.474-10.623-4.845c-7.565,8.589-15.254,21.808-19.786,30.509c12.154-5.498,29.943-9.263,39.33-9.123
		c5.475,0.078,10.472,1.114,12.582,2.933c3.135,2.7-1.616,1.044-16.317,3.524c-11.575,1.95-30.719,6.621-41.944,14.87
		c-8.018,15.859-14.678,42.899-15.341,59.39c4.273,5.918,26.041,42.176,34.101,54.558
		C371.217,340.804,389.231,366.577,412.146,383.146z"/>
	<path fill="#943F1A" d="M386.283,462.845c0.188-2.393,0.5-6.224,1.002-10.992c-14.324-27.241-24.148-59.317-21.383-90.624
		c0.157-1.748,1.565-3.99,1.407-2.231c-2.608,29.514,6.582,61.362,20.534,87.933c2.076-17.26,6.476-42.669,15.803-59.095
		c-14.348-10.189-23.188-21.439-33.218-35.22c-4.739-6.503-9.253-12.933-13.696-19.42c1.75,22.557,2.805,45.167,7.705,67.303
		c5.152,23.287,12.834,46.121,21.379,68.441C385.964,466.93,386.119,464.932,386.283,462.845z"/>
	<path fill="#A64419" d="M386.194,526.325c-2.304-18.215-1.995-33.547-0.845-50.737c-9.752-25.025-18.413-50.63-24.216-76.839
		c-5.101-23.057-5.742-46.808-7.641-70.328c-4.488-6.668-8.905-13.429-13.34-20.492c-0.321,51.744,8.319,103.518,26.636,151.771
		c0.624,1.643-2.688-1.854-3.572-4.192c-18.819-49.899-26.708-98.57-25.839-152.035c-2.718-4.393-5.454-8.878-8.238-13.554
		c0.652,42.392,5.634,84.518,15.357,125.686c8.97,37.963,21.772,75.698,40.926,109.935
		C385.68,525.802,385.932,526.062,386.194,526.325z"/>
	<path fill="#B66215" d="M267.266,342.247c-10.023-39.068-12.217-80.504-10.412-120.542c2.242-50.1,14.111-105.969,59.96-132.629
		c1.587-0.92,5.547-1.379,3.968-0.457c-48.501,28.327-58.935,85.164-61.169,134.819c-3.053,67.977,12.864,140.414,45.383,199.023
		c18.477,33.3,45.164,66.301,73.217,95.661c-16.238-31.327-27.474-65.171-35.87-99.285c-10.753-43.676-15.805-88.756-16.111-133.852
		c-2.273-3.863-4.57-7.833-6.919-11.939c-1.027,14.598-0.284,37.057,0.734,51.595c0.279,4.012-5.428-6.639-7.774-17.541
		c-2.344-10.911-2.44-49.318,2.768-73.62c5.484-25.591,18.309-50.378,34.242-71.853c15.904-21.426,35.758-34.482,61.695-41.082
		c-1.194-2.751-2.664-5.304-4.288-7.679c-42.763,8.583-70.853,41.114-85.998,79.505c-7.743,19.626-12.183,40.369-14.626,61.066
		c-2.795,23.709-3.875,49.026,2.305,72.053c0.455,1.694-2.101-1.022-2.733-3.435c-6.291-24.017-5.109-44.521-2.415-68.57
		c2.417-21.564,7.319-43.002,15.373-63.406c15.111-38.318,44.017-70.717,86.338-79.616c-1.865-2.429-3.883-4.624-5.915-6.63
		c-53.826,12.237-84.255,65.229-93.34,114.116c-0.325,1.742-1.786-0.664-1.463-2.392c9.154-49.28,38.703-100.871,92.441-113.959
		c-2.528-2.29-4.995-4.246-7.17-5.893c-26.328,1.25-46.009,22.638-60.795,43.617c-1.03,1.461-0.904-2.009,1.019-4.817
		c13.55-19.748,30.694-38.359,56.429-41.283c-3.444-2.529-5.154-3.83-3.179-3.933c13.351-0.685,27.2,13.114,34.698,23.452
		c8.062,11.116,10.736,24.759,15.612,37.29c9.696,24.918,27.848,45.99,46.568,64.783c18.483,18.555,37.045,35.597,45.452,60.372
		c14.884,43.846,5.662,63.521,5.541,60.347c-0.75-19.174-8.231-48.369-15.49-58.99c-1.917,19.514-6.98,39.379-14.397,58.187
		c31.375,40.164,53.473,91.203,55.066,142.223c0.057,1.759-2.787,1.806-2.843,0.05c-1.557-49.909-23.023-99.727-53.476-139.277
		c-2.121,5.171-4.375,10.276-6.831,15.239c24.614,33.965,42.108,72.971,49.182,114.184c4.359,25.372,8.458,54.852,2.377,81.307
		c12.872-22.525,24.418-46.266,30.309-71.154c3.166-13.356,3.736-27.492,0.198-40.875c-10.049-38.006-32.444-70.206-27.662-67.754
		c14.154,7.251,33.114,49.028,34.781,52.816c4.696-30.223,10.644-193.432-33.25-281.854c-19.566-39.416-52.962-74.521-99.045-87.669
		c-8.303-2.369-20.793-2.097-32.326,0.455c4.973,0.97,14.283,2.847,18.88,4.524c13.17,4.811,20.754,9.176,32.966,15.847
		c29.75,16.248,49.835,45.383,64.706,74.262c15.234,29.567,20.398,49.523,29.018,81.505c8.766,32.514,14.237,79.587,12.228,111.666
		c-0.264,4.292-2.279,6.355-2.188,4.608c1.628-30.9-4.7-83.375-12.944-114.756c-7.972-30.336-11.861-46.941-25.445-75.305
		c-13.396-27.972-30.895-56.168-57.759-73.745c-11.516-7.54-24.111-14.38-36.799-19.842c-8.373-3.604-19.106-6.516-29.171-7.034
		c-6.291,1.957-11.949,4.627-15.985,7.968c-25.921-16.192-55.031-5.64-72.024,3.144c-38.615,19.96-62.608,59.252-73.616,98.578
		c-11.957,42.722-5.114,89.232,4.384,131.316C257.301,311.21,261.857,326.911,267.266,342.247z"/>
	<path fill="#CF860D" d="M535.474,142.608c-5.983-12.864-14.634-25.967-23.501-37.591c-8.486-12.272-21.584-24.31-34.089-31.995
		c-14.219-8.74-22.239-14.048-37.79-18.343c-6.592-1.82-13.185-2.501-19.809-2.814c10.702-1.997,21.848-2.071,29.469,0.103
		c46.083,13.148,79.479,48.252,99.045,87.669c23.493,47.324,32.702,116.057,35.477,174.365
		C580.517,298.864,582.965,244.714,535.474,142.608z"/>
	<path fill="#CF860D" d="M329.045,459.819c-7.457-10.257-14.374-20.671-20.501-31.135c-3.507-16.187-5.94-32.582-6.776-49.215
		c-0.646-12.817-0.705-25.728-0.274-38.661C305.158,381.756,315.013,421.444,329.045,459.819z"/>
	<path fill="#CF860D" d="M330.914,418.838c-5.378-21.211-8.535-42.56-10.346-64.007c4.114,27.242,10.667,54.296,18.609,80.567
		c6.769,22.4,14.667,44.435,23.671,66.017c-1.65-1.852-3.323-3.679-4.953-5.554C348.089,470.454,337.648,445.388,330.914,418.838z"
		/>
	<path fill="#CF860D" d="M305.175,320.133c0.159,0.642,0.293,1.276,0.463,1.923c0.631,2.413,3.187,5.129,2.733,3.435
		c-1.549-5.774-2.622-11.699-3.339-17.701c0.031-5.415,0.184-10.826,0.432-16.23c1.957-15.637,4.512-31.217,7.625-46.626
		c-3.176,23.508-2.817,52.853-0.816,62.167c0.29,1.353,0.635,2.704,1.013,4.026c0.472,38.179,3.565,76.109,13.843,113.294
		c5.637,20.394,13.154,40.012,20.754,59.629c-2.819-3.418-5.607-6.851-8.328-10.32C319.841,424.693,306.639,373.32,305.175,320.133z
		"/>
	<path fill="#CF860D" d="M369.007,125.284c7.646-6.818,16.299-12.829,26.137-17.792c1.898-0.958,3.131-2.235,3.832-3.646
		c0.015-0.005,0.03-0.009,0.043-0.013c2.032,2.005,4.05,4.201,5.915,6.63C391.627,113.26,379.649,118.386,369.007,125.284z"/>
	<path fill="#CF860D" d="M284.82,130.127c17.572-30.947,54.323-53.491,90.157-42.663c-6.495,1.156-13.319,0.861-19.755,2.558
		c-9.721,2.557-19.481,5.841-28.393,10.52c-15.522,8.155-28.909,19.512-36.864,34.938c-8.345,16.18-12.646,33.375-17.666,50.598
		c-3.108,10.673-5.869,21.436-8.292,32.261C265.986,188.049,269.349,157.375,284.82,130.127z"/>
	<path fill="#CF860D" d="M245.288,233.23c2.42-36.599,11.312-75.108,33.565-104.68c-15.294,27.457-20.581,61.456-21.999,93.155
		c-0.388,8.607-0.561,17.278-0.543,25.975c-1.389,13.762-2.899,27.542-3.985,41.316c-3.149-14.553-5.881-29.574-7.579-44.738
		C244.877,240.577,245.044,236.901,245.288,233.23z"/>
	<path fill="#CF860D" d="M559.922,493.889c-0.054-4.067-0.174-8.141-0.434-12.214c-2.012-31.567-9.175-61.989-20.228-91.086
		c13.589,30.494,20.973,63.608,22.815,97.373C561.347,489.937,560.627,491.911,559.922,493.889z"/>
	<path fill="#CF860D" d="M572.062,462.068c-6.232-45.489-22.652-89.035-50.756-126.169c0.012-0.041,0.019-0.079,0.031-0.119
		c28.818,35.481,44.513,79.441,51.231,125.024C572.398,461.224,572.231,461.649,572.062,462.068z"/>
	<path fill="#CF860D" d="M460.31,134.765c12.946,28.962,35.636,51.891,51.101,79.567c7.767,13.897,14.273,27.988,19.492,42.493
		c-15.778-24.276-46.711-65.567-60.175-91.923c-11.138-21.808-7.331-25.343-20.556-46.395c-8.7-13.851-19.841-25.51-33.693-34.671
		c-2.711-1.796-6.964-4.43-11.766-6.951C437.385,72.652,449.775,111.2,460.31,134.765z"/>
	<path fill="#CF860D" d="M475.751,126.993c5.12,9.33,9.834,18.909,15.255,28.075c6.55,11.073,15.343,20.692,22.223,31.591
		c19.508,30.906,30.153,65.23,37.601,100.677c5.424,25.82,9.432,52.184,9.624,78.677c-2.426-9.403-3.885-19.155-5.232-27.86
		c-2.731-17.639-4.353-35.531-7.992-53.011c-6.856-32.927-21.744-64.377-40.328-92.469c-9.881-14.936-22.822-28.407-31.469-44.02
		c-8.251-14.891-13.466-31.127-21.468-46.115c-3.966-7.429-8.841-14.361-14.648-19.942
		C456.62,88.278,468.544,113.846,475.751,126.993z"/>
	<path fill="#CF860D" d="M302.391,78.673c20.718-9.232,43.442-10.195,67.092,2.608c-16.16-2.844-33.347-0.154-48.452,6.888
		c-0.548-0.204-3.037,0.22-4.218,0.908c-3.476,2.022-6.738,4.234-9.834,6.575c-38.693,24.882-57.08,67.359-63.891,110.49
		c0.479-14.309,2.344-28.502,6.205-42.299C258.199,132.021,275.612,100.224,302.391,78.673z"/>
	<path fill="#CF860D" d="M394.933,62.119c0.818-0.675,1.745-1.306,2.687-1.926c10.885-5.141,29.194-0.659,43.4,4.334
		c16.942,5.958,32.076,15.904,44.013,28.829c13.169,14.263,24.351,30.633,33.802,47.909c-17.271-29.704-40.359-54.899-74.64-65.218
		c-0.774-0.234-1.461-0.212-2.068-0.032c-3.308-1.195-6.836-1.826-10.608-1.674c-0.874,0.034-4.167,2.127-4.727,2.538
		c-9.356-5.38-13.758-8.239-26.756-4.473c-0.563,0.165-2.506,2.005-2.882,2.307c-9.356-3.528-21.03-7.001-23.658,0.449
		c-17.412-9.602-34.372-12.282-50.5-9.943C340.004,56.445,369.056,45.953,394.933,62.119z"/>
	<path fill="#CF860D" d="M551.213,235.377c2.408,6.514,12.276,49.307,13.828,64.205c3.006,28.877,5.025,58.731,3.837,88.095
		c-0.539-0.921-1.052-1.862-1.545-2.821c2.417-35.865-2.917-72.122-10.941-106.829c-8.618-37.29-20.601-73.252-43.257-104.756
		c-7.401-10.29-14.727-19.793-20.712-30.94c-5.838-10.871-11.44-21.896-17.952-32.399c-3.555-5.738-7.824-12.625-12.936-18.815
		C511.984,118.809,533.035,186.184,551.213,235.377z"/>
	<path fill="#CF860D" d="M306.267,151.797c7.127-15.033,17.294-25.95,32.489-33.327c-15.304,11.88-27.885,26.516-36.081,45.6
		c-2.351,5.477-4.391,11.038-6.259,16.642C299.043,170.817,301.942,160.923,306.267,151.797z"/>
	<path fill="#CF860D" d="M274.639,312.099c0.457-11.402,1.365-22.782,2.799-34.108c2.381-18.817,6.801-36.967,11.48-55.395
		c4.19-16.491,7.984-33.226,14.194-49.197c7.467-19.221,17.949-36.49,34.53-49.902c0.189-0.153,0.385-0.29,0.574-0.441
		c-2.998,3.7-5.826,7.552-8.503,11.45c-1.923,2.808-2.049,6.278-1.019,4.817c5.934-8.416,12.666-16.874,20.291-24.087
		c1.273-0.842,2.559-1.656,3.853-2.461c1.973-0.639,3.961-1.212,5.966-1.696c-29.837,25.69-47.275,62.796-56.449,100.18
		c-12.653,51.596-21.432,107.128-18.978,159.889c0.075,1.623,0.208,3.23,0.307,4.843c-2.887-7.735-5.505-15.608-7.893-23.575
		C274.779,339.016,274.397,325.561,274.639,312.099z"/>
	<path fill="#CF860D" d="M351.985,143.816c1.122-1.481,2.272-2.939,3.45-4.375c10.773-10.063,23.433-18.031,38.059-23.011
		C378.169,122.398,364.083,132.154,351.985,143.816z"/>
	<path fill="#CF860D" d="M318.517,220.324c4.093-16.79,9.489-33.504,16.949-49.061c17.555-25.24,43.087-47.814,73.629-54.493
		c0.68,1.218,1.314,2.471,1.881,3.775c-25.937,6.6-45.791,19.656-61.695,41.082c-13.186,17.772-24.225,37.814-30.757,58.698
		C318.523,220.326,318.52,220.324,318.517,220.324z"/>
	<path d="M401.834,260.009c23.102,3.56,48.735,10.007,71.19-12.917c2.345-2.387,2.964,11.896-6.982,17.13
		c-1.765,20.33-7.419,53.602-19.796,64.278c13.309,4.174,16.814,24.273-0.797,27.921c-11.995,2.487-24.249-1.604-33.608-8.004
		c-5.499-3.762-11.119-11.756-5.159-7.697c3.251,2.221,7.966,6.158,18.302,9.662c8.004,2.713,30.751,2.679,25.74-10.833
		c-2.806-5.31-8.02-5.36-12.882-3.383c-6.722,2.739-13.911,1.278-20.281-1.421c-14.254-6.043-32.733-19.817-53.292-52.873
		c-7.415-11.924-15.399-28.853-19.235-39.502C345.034,242.37,379.758,256.608,401.834,260.009z"/>
	<path fill="#FFFFFF" d="M357.827,253.629c13.47,15.17,64.44,58.315,99.988,26.373c0.319-2.892,1.281-10.574,1.401-13.475
		c-20.183,8.044-42.609,4.687-64.122,0.312C371.642,262.072,357.827,253.629,357.827,253.629z"/>
	<path fill="#FFFFFF" d="M389.368,306.12c13.618,14.212,24.321,22.428,40.78,22.199c16.58-0.229,21.089-21.505,23.127-32.887
		c-30.154,27.101-70.871-9.945-93.791-33.058C361.761,271.615,375.751,291.914,389.368,306.12z"/>
	<path d="M384.309,72.331c4.54-1.062,8.957-0.75,12.877,0.955c9.049-6.361,21.153-3.913,28.948,1.431
		c10.359-3.061,19.754,5.785,25.858,13.321c8.523,10.528,14.501,22.718,20.211,34.845c15.841,33.669,42.556,56.145,56.171,91.013
		c0.803,2.06,0.733,5.471,0.11,3.844c-12.908-33.719-41.968-57.585-57.106-89.932c-4.982-10.644-10.04-21.263-16.523-31.128
		c-5.6-8.523-14.038-19.205-25.492-19.474c16.796,14.456,26.251,46.124,34.472,60.786c13.946,24.861,34.557,45.492,50.028,69.381
		c15.784,24.369,23.683,47.285,30.729,75.198c0.817,3.25,0.253,6.642-0.221,4.953c-7.33-25.984-15.946-51.372-30.264-74.523
		c-13.788-22.303-32.119-41.614-46.568-63.505c-11.031-16.723-16.947-35.63-26.875-52.864c-8.224-14.278-21.894-29.491-40.531-21.89
		c2.214,1.224,4.345,2.638,6.385,4.134c8.434,6.186,16.023,14.289,22.631,22.228c9,10.81,15.687,23.506,21.565,36.123
		c6.613,14.198,10.557,29.379,18.323,43.088c7.225,12.766,17.574,23.637,26.844,34.985c9.463,11.584,18.586,23.109,26.182,35.955
		c7.22,12.22,13.57,25.121,16.426,39.038c3.069,14.981,3.045,30.494,9.506,44.626c0.718,1.579-2.384-1.753-3.114-3.347
		c-5.157-11.284-5.909-18.62-7.569-30.798c-2.06-15.076-6.96-28.153-14.071-41.591c-13.197-24.926-33.297-44.715-49.972-67.297
		c-7.772-10.518-12.946-22.152-17.518-34.265c-5.353-14.187-11.297-27.856-19.12-40.928c-6.189-10.324-14.096-19.169-22.715-27.629
		c-7.095-6.963-19.667-18.273-33.287-13.704C378.901,75.942,380.71,73.177,384.309,72.331z"/>
	<path fill="#F2D8C2" d="M411.776,205.713c-6.343,0.882-9.409,12.037-3.546,9.54c7.643-3.265,12.816-2.856,16.641-1.706
		C428.696,214.704,424.883,203.891,411.776,205.713z"/>
	<path fill="#F2D8C2" d="M440.769,345.02c5.622-2.337,10.057-8.054,0.952-7.692c-4.124,0.163-13.316,5.223-13.721,7.936
		C427.811,346.519,435.941,347.03,440.769,345.02z"/>
	<path fill="#F2D8C2" d="M435.485,369.164c-11.862-0.013-18.852,4.914-7.323,11.334
		C439.693,386.919,459.221,369.179,435.485,369.164z"/>
	<path fill="#E2A786" d="M396.336,188.132c0,0-18.732,1.173-33.424,5.671c-14.691,4.491-25.36,10.833-25.36,10.833l-4.87,11.767
		c0,0,15.22-10.038,29.35-16.04C380.107,192.687,396.336,188.132,396.336,188.132z"/>
	<path fill="#E2A786" d="M408.437,188.143c-1.029-0.913,9.394,1.481,20.927,5.66c11.531,4.18,22.624,8.643,22.624,8.643l4.503,6.813
		c0,0-13.795-4.86-24.207-9.356C421.872,195.409,410.274,189.766,408.437,188.143z"/>
	<path fill="#E2A786" d="M421.205,233.004c2.103-0.494,6.789-9.648-1.111-10.726c-7.9-1.076-24.549,7.881-24.053,10.87
		C396.537,236.144,413.919,234.725,421.205,233.004z"/>
	<path d="M421.795,231.592c0.581-1.722,1.733-4.618-0.027-6.653c-1.755-2.044-7.745-0.984-12.808,1.059
		c-5.058,2.045-8.965,4.702-10.794,6.62c-2.464,2.577-3.661-1.702-0.359-6.214c3.153-4.302,8.264-8.084,14.874-9.711
		c7.903-1.943,17.715-0.939,17.83,7.52c0.042,2.925-2.178,7.43-5.99,8.95C421.879,234.22,421.216,233.312,421.795,231.592z"/>
	<path fill="#E2A786" d="M413.824,131.325c0,0-8.776,1.221-20.213,6.629c-14.948,7.076-25.206,18.333-25.206,18.333
		s10.782-1.352,24.189-6.311c13.409-4.962,24.524-9.157,24.524-9.157s-0.905-3.22-1.729-5.264
		C414.564,133.508,413.824,131.325,413.824,131.325z"/>
</g>
</svg>
