<?xml version="1.0" encoding="utf-8"?>
<!-- Generator: Adobe Illustrator 17.0.0, SVG Export Plug-In . SVG Version: 6.00 Build 0)  -->
<!DOCTYPE svg PUBLIC "-//W3C//DTD SVG 1.1//EN" "http://www.w3.org/Graphics/SVG/1.1/DTD/svg11.dtd">
<svg version="1.1" id="Layer_1" xmlns="http://www.w3.org/2000/svg" xmlns:xlink="http://www.w3.org/1999/xlink" x="0px" y="0px"
	 width="800px" height="600px" viewBox="0 0 800 600" enable-background="new 0 0 800 600" xml:space="preserve">
<g>
	<g>
		<path fill="#333333" d="M498.552,143.275c0,0.69,0,0.69,0,0.69c0,0.692,0,0.692,0,1.382c0.689,0,0.689,0,0.689,0.692
			c0,0,1.38,0,2.075,0c0-0.692,0.688-0.692,1.373-0.692c1.384,0,2.763,0,4.144,0.692c0,0.687,0,1.378,0,2.068
			c-1.38,0-2.069,0-2.76,0.69c0-0.69,0-0.69,0-1.38c-0.689,0.69-0.689,0.69-1.384,1.38c0,0.692,0,0.692,0,0.692
			c-1.373,0-2.068,0-2.753,0c0.685,0,1.38,0,2.068,0.687c-0.688,0.69-0.688,2.073-0.688,3.45
			c-2.763,12.424-2.763,25.532-2.763,38.643c-0.689,7.59-1.38,15.872-1.38,24.15c0.692,8.28,1.38,15.872,2.069,24.151
			c0,4.14,0,7.59,0,11.732c0.694,22.768,2.075,46.227,2.763,69.001c0.685,2.759,0.685,5.519,0.685,8.969
			c0,22.774,0,45.543,1.384,67.622c0.691,23.461,2.068,46.921,4.143,69.001c0,0,0,0,0,1.377c-0.694,0-0.694,0-1.383,0l0,0v0.691
			c0,0,0,0,0,0.691c0,1.378,0,2.07,0,2.76c0.689,1.382,1.383,2.758,1.383,2.758l0,0c0-1.376,0-1.376,0.689-1.376
			c0.685,0,0.685,0,1.38,0c0,1.376,0,2.758,0.689,4.828c0-2.07,0-3.452,0-4.828c8.28,1.376,17.943,1.376,26.912,1.376
			c-8.28,0-15.18,0-23.464,0c11.732,4.142,22.769,4.142,33.815,0c0,0,0,1.382,0.685,1.382v-1.382c1.384,0,2.069-1.376,2.763-1.376
			c0-0.692,0-0.692,0-1.382c0,0,0-0.69,0.689-1.382c-1.383,0.691-2.068,0.691-3.452,0.691c1.384-15.87,2.069-33.119,1.384-49.677
			c0-22.774,0-45.543,0-67.624c0.685-23.461,0-46.92-1.384-69.002h-0.685c0-10.35,0-20.7,0-31.051c0.685-0.69,1.38-2.068,2.069-2.76
			c-0.689,0.692-1.384,0.692-2.069,1.382c0-11.732,0-22.772,0-34.501c0-22.772-0.694-44.851-1.383-67.625
			c0.689,0,0.689-1.376,0.689-1.376c0-0.692,0-0.692,0-1.382c-0.689,0-0.689,0-1.377-0.69c-1.38,14.49-2.075,29.672-2.075,45.541
			c0.695,21.392,0.695,42.092,0,63.483c-4.137,3.45-8.274,7.587-11.726,12.419c-5.523,6.9-11.728,13.8-18.629,20.01
			c-2.072,2.759-4.146,4.142-5.52,6.9c0-1.378,0-2.069,0-2.759c0-3.452,0-6.21,0.689-9.66c0-4.832,0-9.661,0-14.492
			c10.348-11.04,17.937-22.769,24.149-35.191c-6.9,8.282-14.489,17.251-21.389,26.911c-0.692,1.38-2.075,2.761-2.76,4.141
			c0-3.451,0-6.9,0-10.351c0-6.21,0-11.729,0-17.25c10.348-9.661,18.632-20.01,24.837-31.742c0,0-0.689,0-1.377,0.692
			c-8.28,10.35-16.56,20.008-23.46,29.672c0-1.382,0-3.451,0-4.832c0-8.968,0-17.25-0.689-26.218c0-11.04,0-22.082,0-32.432l0,0
			c0.689-0.692,1.374-0.692,1.374-0.692c6.9-5.517,12.426-11.727,17.252-17.941c4.144,0.692,8.975,1.382,13.8,1.382l0,0
			c-2.757-2.068-6.9-3.45-11.037-4.142c1.38,0,3.449-0.69,5.517-1.376l0,0c-0.685-0.692-0.685-0.692-1.38-1.382
			c-1.377,0-2.068,0-3.452,0c0,0,0-0.69,0.695-0.69c-0.695,0-0.695,0-1.38,0c0,0,0,0.69-0.689,0.69c-6.211,0-13.112,0-19.326,0
			c-0.685,0-1.374,0-2.068,0c0-0.69,0-1.382,0-2.068c6.215,0.687,13.115,0.687,19.32,0c2.763,0.687,6.9,1.378,10.349,1.378
			c3.451,0.69,6.215,0,8.283-2.07c0.692-0.69,0.692-0.69,0.692-0.69c0-0.692,0-0.692-0.692-0.692c-0.688,0-1.383,0-2.068,0
			c-6.9-3.449-13.8-4.14-22.768-2.759c-2.763,0-5.52,0-8.283,0c-4.137,0-8.28,0-13.112,1.382
			C498.552,142.588,498.552,142.588,498.552,143.275z M504.072,150.175c0.691,0.69,1.38,0.69,2.068,0.69
			c0,4.832-0.689,10.352-0.689,15.184c-2.068,22.768-2.763,46.227-2.068,69.001c0.689,12.419,0.689,26.219,2.068,37.951
			c-0.689,9.659-0.689,19.318-0.689,28.979c-0.691-1.378-0.691-2.76-0.691-4.138c-1.384-19.322-1.384-38.641-2.069-58.651
			c0.685-2.763,0.685-6.901,0.685-9.663c0-4.137,0-8.278,0-12.419v-0.691c0-19.32,0-37.26,0-55.201c0,0,0,0,0,0.69
			C502.688,157.765,503.384,154.317,504.072,150.175z M508.215,169.498c-0.694-4.832-0.694-10.349-0.694-15.181
			c0-1.378,0-2.068,0-3.452c4.832,0.692,10.352,1.384,16.563,2.76C518.564,158.457,513.04,164.665,508.215,169.498z M544.089,259.2
			c0,1.378,0,2.068,0,2.759c-0.685,22.082,0,44.852,1.383,67.621c0.692-0.689,0.692-0.689,1.38-0.689c0,20.7,0,42.089,0,63.479
			c0,22.082-0.689,44.851-0.689,67.623c0,4.828,0,8.277,1.377,11.728c-4.826,0-9.657,0-13.8,0c-2.068,0-4.137,0-5.52,0
			c4.143-2.07,6.9-4.828,9.663-8.97l-0.694,0.692c-4.137,2.068-8.274,4.827-11.726,7.587c-0.692-0.687-0.692-0.687-1.38-0.687
			c5.52-3.45,10.352-8.281,13.8-13.8h-0.694c-0.685,0-0.685,0-0.685,0c-3.452,4.827-7.589,7.587-11.732,10.35
			c-1.383,1.377-2.068,2.068-3.452,2.759c-3.448,0-7.585-1.382-10.348-1.382c0-9.659,0-18.626-0.689-27.597
			c0.689,0,1.38,0,2.757-0.692c0-0.687,0-0.687,0.695-0.687c8.969-10.35,17.249-21.392,25.529-31.051
			c-10.349,8.277-19.324,17.937-26.224,28.977c-0.688,0.692-2.068,1.382-2.757,1.382c-0.694-0.69-0.694-1.382-0.694-1.382
			c0-5.518,0-10.348-0.685-15.177l-0.689-2.763v-1.378c0-8.972,0-18.632-0.694-26.911v-5.521c0-6.209,0-11.727,0-17.251
			c0.694-22.768,0.694-46.229,0.694-68.309v-0.692C521.32,286.801,533.741,273.001,544.089,259.2z M508.904,470.344h0.685
			c0,0.687,0,1.378,0,2.069c0,0,0,0-0.685,0C508.904,471.722,508.904,471.031,508.904,470.344z M510.972,472.413c0,0,0-0.69,0-1.382
			c1.38,0.691,3.449,0.691,5.517,1.382C514.421,472.413,512.352,472.413,510.972,472.413z"/>
		<path fill="#333333" d="M539.264,275.069c-4.829,4.832-9.66,10.35-15.181,17.25c-4.832,6.9-8.968,13.8-11.731,20.01
			c0,0,0,0,0.688-0.688C524.084,299.911,532.364,287.491,539.264,275.069z"/>
		<path fill="#333333" d="M539.953,299.911c-0.689-0.692-0.689-0.692-1.38-0.692h-0.689c0,0,0,0-0.694,0
			c-0.685,0-0.685,0-0.685,0.692c-8.969,9.658-17.252,20.008-25.532,30.359c2.068-0.69,4.144-2.068,5.517-2.759
			c0.695-0.691,0.695-0.691,1.384-0.691c7.592-8.969,15.18-17.25,21.392-26.219C539.264,299.911,539.264,299.911,539.953,299.911z"
			/>
		<path fill="#333333" d="M537.884,316.47c0-1.379,0-1.379,0.689-2.068h-0.689c-8.28,11.04-17.943,22.079-26.912,33.119
			c-0.689,0-1.383,0-1.383,0c-0.685,0-0.685,0-1.374,0.692c1.374,0.69,2.757,1.38,4.137,1.38
			c9.663-10.348,18.632-21.39,26.22-33.122C537.884,316.47,537.884,316.47,537.884,316.47z"/>
		<path fill="#333333" d="M536.504,343.381c-3.452,2.072-6.9,5.521-8.969,8.971c-2.763,4.828-6.215,8.969-9.663,12.419
			c-2.757,3.45-4.832,6.9-5.52,10.35c0,0,0,0,0.688-0.69C522.704,365.462,530.289,354.421,536.504,343.381z"/>
		<path fill="#333333" d="M536.504,333.03c-0.689-0.687-0.689-0.687-0.689-0.687c0-0.692,0-1.384,0.689-1.384
			c-6.9,6.21-12.421,13.11-18.632,20.701c-4.137,4.832-6.9,9.66-8.969,13.802C518.564,355.802,528.221,344.76,536.504,333.03z"/>
		<path fill="#333333" d="M536.504,354.421c-0.689,0-1.384,0-1.384,0.691c-6.9,9.659-14.485,20.009-20.7,28.981
			c0.695,0,0.695,0,1.383,0c0.685,0,0.685,0,0.685-0.691C524.084,374.431,530.984,364.771,536.504,354.421z"/>
		<path fill="#333333" d="M540.641,366.152L540.641,366.152c-11.037,12.419-22.077,24.151-31.737,36.569h0.685
			C522.015,392.371,532.364,379.953,540.641,366.152z"/>
		<path fill="#333333" d="M540.641,437.914L540.641,437.914c-7.588,7.59-15.177,15.18-22.077,22.081c-0.691,0-0.691,0-0.691,0
			c0-0.692,0-0.692-0.689-1.382c-0.695,0.69-0.695,1.382-0.695,2.758l0,0c0,0.692,0,1.382,0,1.382c1.384,0,2.075,0,2.763,0
			c6.212-5.521,13.112-11.73,18.632-18.631c0,0,0,0,0-0.69C539.264,441.364,539.953,439.296,540.641,437.914z"/>
		<path fill="#333333" d="M539.264,422.045c0,1.376,0,1.376,0,1.376c-8.28,8.282-15.875,17.252-24.149,26.911
			c1.373,0.69,2.068,0.69,2.757,0.69c0,0,0,0,0.691-0.69c8.277-8.969,15.177-17.937,22.077-26.911
			C540.641,423.422,539.953,423.422,539.264,422.045z"/>
		<path fill="#333333" d="M521.32,417.904c-1.38,2.07-3.448,4.142-4.832,6.21c-2.754,3.45-4.137,6.209-5.517,8.969
			c0.692,0,0.692,0,1.38,0c8.283-9.661,17.252-20.011,24.152-31.738C530.984,406.172,526.841,412.382,521.32,417.904z"/>
		<path fill="#333333" d="M540.641,386.163c0,0,0,0-0.688,0c-11.732,10.35-22.08,21.391-31.738,33.119
			c0.689,0.691,1.374,0.691,2.068,0.691c0.689-0.691,0.689-0.691,0.689-0.691C521.32,408.245,530.984,396.513,540.641,386.163z"/>
		<path fill="#333333" d="M538.573,213.658c-0.689,0-0.689,0-1.383,0.692c-10.349,12.419-19.317,26.219-28.286,40.019
			c0.685,0,0.685,0,1.38-0.69c0.689-0.689,0.689-0.689,0.689-1.378C522.704,240.569,531.673,228.15,538.573,213.658z"/>
		<path fill="#333333" d="M535.121,155.697L535.121,155.697c-0.685,0-0.685,0-1.38,0c0,0.691-0.689,0.691-1.377,0.691
			c-7.592,9.661-14.491,20.009-21.392,30.361h0.692C520.636,177.089,528.915,166.739,535.121,155.697z"/>
		<path fill="#333333" d="M536.504,166.739c0-1.382,0-2.073,0-3.45h-0.689c-0.695,1.376-1.38,2.76-2.075,4.136
			c-6.9,8.282-13.105,16.564-19.32,24.842c8.283-6.9,15.183-15.179,22.084-24.151C536.504,167.425,536.504,167.425,536.504,166.739z
			"/>
		<path fill="#333333" d="M538.573,179.849c-0.689,0-0.689,0-0.689,0.69c-6.9,11.037-13.8,22.079-22.081,31.737
			c0.685,0,0.685,0,1.38,0.692c0.689-0.692,0.689-0.692,1.38-1.378C528.221,202.618,534.435,192.268,538.573,179.849z"/>
		<path fill="#333333" d="M535.121,176.397c-0.685,0-1.38,0.692-2.068,1.378c-4.832,8.281-11.037,15.874-17.937,23.463
			c0.688,0,1.373,0,2.757,0c0,0,0,0,0.691-0.69C525.464,193.65,530.984,185.367,535.121,176.397z"/>
		<path fill="#333333" d="M446.803,217.108c-1.384,0-2.763,0-3.452,0c-2.068,0-4.137,0-5.52,0.69
			c-1.38,0.691-2.068,0.691-3.449,0.691c0.689,0,0.689,0,1.38,0c0.689,0,1.376,0,1.376,0.687c0,0,0,0,0.692,0
			c0.689,0,0.689,0,1.383,0c1.374,0.692,3.449,0.692,5.518,0.692c-0.692,0-1.38,0-1.38,0c-2.763,0-4.137,0.69-6.212,2.072
			c0,0.687,0,0.687,0.692,0.687c1.383,0.692,2.757,0.692,4.14,0c3.448-0.687,7.592-0.687,11.043-0.687
			c-0.694,1.378-2.075,2.068-3.451,2.758c-3.449,4.142-7.592,7.592-11.732,11.042c-0.692-5.522-1.38-11.732-2.068-17.251
			c-0.692,3.451-0.692,6.9-1.38,11.038c0-2.759,0-4.137,0-6.209c-0.694,0-0.694,0-0.694,0c0,10.35-0.689,19.322-0.689,28.982
			c0.689,1.378,0.689,2.068,1.383,2.758c-0.694,4.831-0.694,10.35-0.694,16.56c-1.374,22.082-1.374,44.851,0,67.624
			c0,1.377,0,2.068,0,2.759c0,22.768,0,45.542,0.694,68.311c0.689,21.391,2.069,42.781,2.757,63.482c0,0,0,0,0,1.376h0.692
			c0,0.692,0,1.382,0,2.76c0-0.687,0-1.378,0.689-2.068c0,0,0,0,0.694,0.69c0,0,0,0,0.685,0c1.384,0,2.072,0,3.452,0
			c0.689,0,0.689,1.378,0,2.07c0.689,1.38,2.068,2.072,3.452,2.758c8.969,0.69,17.248,0.69,25.528,0c0.689,0,0.689,0,1.384-0.687
			c-0.695-0.692-0.695-0.692-0.695-0.692v-0.69c1.384,0,3.452-0.69,4.832-0.69c0.689-1.378,2.069-2.07,2.069-3.452l0,0
			c-0.689-4.827-1.38-9.659-2.069-13.8c0.689-3.449,0.689-7.59,0.689-11.038c0-8.279,0-16.559-0.689-24.837
			c0.689-19.324,0.689-38.642,0.689-58.651c-0.689-8.283-1.376-16.564-1.376-24.842c0-4.832,0-9.659,0-15.182l0,0
			c0-0.69,0-0.69,0.688-1.378c0,0,0-1.382,0-2.072l0,0c0,0,0,0,0.689-1.378c-0.689,0-0.689,0-0.689,1.378
			c-0.688-2.758-0.688-4.14-0.688-5.518c0-7.592,0-14.492,0.688-21.392c0.689-0.69,2.069-2.068,2.763-2.759
			c-0.694-0.69-0.694-0.69-0.694-0.69c-0.689,0-1.38,0-2.069-0.692c0.689-22.079-0.688-44.16-3.448-64.861v-2.068
			c-0.689,0-0.689-1.382-0.689-1.382c0-0.69,0-1.382,0-2.759c-0.695-1.381-0.695-2.76-0.695-4.141
			c-0.689,1.381-1.38,2.068-1.38,3.45c-1.377-0.69-3.452-1.382-4.826-2.069c-0.694,0-0.694,0-0.694,0c0.694,0,1.383,0,2.068-0.691
			v-0.69c-2.068-0.691-4.825-0.691-7.585-0.691C456.463,216.418,450.939,217.108,446.803,217.108z M440.587,237.119
			c1.384-2.76,2.763-3.451,5.527-4.829c2.068-1.382,4.137-4.14,4.825-6.213c1.38,0,1.38-0.687,2.075-0.687
			c1.374-1.382,1.374-2.072,1.374-3.45c3.452-0.691,6.215-0.691,8.975-0.691c2.757,0,4.825,0,8.277,0
			c-0.689,2.069-0.689,3.449,0,5.519c1.38,10.35,2.763,20.7,2.075,30.359c-0.695,0-0.695,0-1.384,0.692
			c-12.417,12.422-23.46,24.151-33.812,36.573c0.694-4.14,0.694-8.28,0.694-11.732c0-0.69,0-0.69,0.685-0.69
			c0.689,0,2.072,0,3.452-0.69c0-0.688,0-0.688,0.689-0.688c9.66-8.972,17.943-19.322,24.844-31.051
			c-4.832,4.828-9.664,10.35-14.495,15.869c-3.449,4.142-6.205,7.592-10.348,11.042c5.523-6.21,9.66-11.731,13.8-17.25
			c4.143-4.832,6.9-9.66,8.28-14.492c-0.689,0-0.689,0-0.689,0c-8.969,11.042-17.943,22.082-26.218,33.811c0-2.068,0-3.45,0-5.518
			l0,0c11.725-11.042,20.701-23.46,27.601-36.574c-0.694,0-0.694,0-0.694,0.692c-8.28,11.04-17.249,22.082-26.906,33.122
			c0-4.141,0-7.59,0-11.04c4.137-2.76,7.589-6.21,10.349-9.66c1.376-2.072,2.757-3.451,4.136-4.832
			c7.589-5.518,12.421-12.419,15.184-19.318h-0.695c0,0.687,0,0.687-0.685,0.687c-2.072,3.451-4.832,6.213-7.588,8.973
			c-6.9,6.9-13.8,14.491-20.701,20.009c0,0,0-0.69,0-2.068c-0.694-5.522-0.694-11.04-1.383-16.564
			C438.519,237.119,439.214,237.119,440.587,237.119z M468.188,284.041c-0.685,0-0.685,0-0.685,0
			c-9.663,8.97-17.94,17.25-26.915,25.529c-0.689,0.69-0.689,0.69-0.689,1.381c-0.685,1.378-1.38,2.069-2.068,3.451
			c0-4.142,0-8.282,0-12.422c0-1.378,0-2.76,0.689-4.828l0,0c11.732-11.732,23.463-24.151,35.196-35.883
			c-0.695,11.04-0.695,22.772,0,34.501c-12.427,10.35-22.776,21.39-30.364,34.5c0,0,0.689,0,0.689-0.69
			c8.975-9.661,17.249-18.629,26.912-26.911c-0.689,3.45,0,7.59,0.689,12.422c-8.969,8.278-17.252,17.252-23.458,26.911
			c0,0.69,0,1.378,0,2.068c0,0,0,0.69,0.689,1.382c0.692,0,0.692,0,0.692,0c0.689-0.692,0.689-0.692,1.376-0.692
			c0-0.69,0-0.69,0-0.69c0-0.69,0-0.69,0-1.379c0-0.69,0-0.69,0-0.69c6.9-8.972,13.8-16.56,20.701-24.151
			c0.691,2.068,1.38,5.518,1.38,7.59c-12.417,10.35-22.768,22.079-31.737,35.879c0.689,0,0.689,0,0.689,0c0.691,0,1.38,0,2.068,0
			c4.143-5.519,8.28-10.35,13.112-15.177c6.212-5.523,11.037-11.042,16.564-16.563c0,1.38,0,2.763,0.689,4.832
			c-0.689,4.14-0.689,7.59-0.689,11.731c0,2.069,0,4.137,0,5.517c-0.695,0-0.695,0-0.695,0
			c-12.417,12.42-24.149,25.532-35.189,39.332c0,1.378,0,1.378,0,1.378s0,0.692,0.689,1.382l0.694-0.69
			c13.106-13.11,24.149-26.911,34.501-41.402c-0.695,6.9-0.695,14.491-0.695,21.392c0,2.76,0,5.518,0,8.968c0,0-0.689,0-0.689,0.692
			c0.689,5.519,0.689,9.659,1.384,15.18c0.689,5.52,0.689,11.039,0.689,16.56c0-0.69,0-1.382,0.685-2.758c0,1.376,0,3.45,0,4.827
			c0,6.9-0.685,13.8-0.685,20.7c-0.689-3.449-1.384-6.9-1.384-11.04l-0.689,0.692c0,0,0,0.69,0,2.072h-0.691
			c-8.277,8.277-15.177,17.25-20.701,26.907c0,0,0,0,1.38,0c7.595-8.279,13.8-17.249,20.012-26.907c0,6.9,0.689,13.108,1.384,20.009
			c-0.695,2.068-0.695,2.758-0.695,4.14c0.695,0,0.695,0,1.384-0.692c0,2.069,0.685,5.52,0.685,7.592c0,1.376,0,2.758-0.685,4.136
			c0,2.072,0,4.832-0.689,7.592c-0.695-0.691-0.695-0.691-0.695-1.378c-1.38,0-2.757,0-4.832,0c-0.685,0-1.374,0-2.068,0
			c0.694-1.382,1.383-2.073,2.068-3.45h-0.685c-1.383,1.377-2.763,1.377-4.14,2.759c-0.692,0-1.38,0-2.075,0v0.691
			c0,0,0,0,0.694,0.687c-0.694,0.691-1.38,1.382-1.38,1.382c-4.832,0-9.664-0.69-13.8-0.69l-0.689-0.691h-0.695
			c-0.688,0-0.688,0-1.38,0c0,0.691,0,0.691,0,0.691c-0.689,0.69-0.689,0.69-0.689,1.38l0.689,0.692
			c-1.377-0.692-2.068-0.692-3.452-0.692c0-0.69,0-0.69,0-0.69c0-0.69,0-0.69,0-0.69c0-6.9,0-13.11-0.689-20.01
			c-1.38-21.39-2.76-43.467-2.76-66.241c0,0,0-1.378,0-2.759c0-4.831,0-10.35-0.688-15.868v-3.452c0-3.449,0-5.521,0.688-8.971
			c9.664-15.177,20.012-28.979,31.049-42.091h-0.685c-13.115,11.04-23.463,24.841-30.364,40.714c0-12.423,0-24.842,0.692-36.574
			c0,0,0,0,0.689,0c0.694-1.379,0.694-1.379,0.694-1.379C450.251,306.12,459.914,295.079,468.188,284.041z M474.403,299.911
			c0,2.758,0,5.517,0,8.28c0,1.379,0,2.76,0,3.451c0,0.688,0,0.688-0.689,1.378c-0.695-3.45-1.384-7.592-2.075-11.729
			C472.331,301.291,473.02,299.911,474.403,299.911z M474.403,315.091L474.403,315.091c0,1.379,0,1.379,0,2.76
			C474.403,317.16,474.403,316.47,474.403,315.091z M439.214,473.103c0-0.69,0-0.69-0.694-0.69v0.69c0-2.072,0-4.14,0.694-6.209
			c0,1.377,0,3.45,0,5.519V473.103z M476.472,440.674c0,3.448,0,6.9,0,10.348c-0.689-1.377-0.689-2.759-1.383-4.14
			C475.783,444.814,475.783,442.745,476.472,440.674z M478.54,473.795c-0.689,1.376-0.689,1.376-1.376,1.376
			c-0.692,0-2.075,0-2.76,0c0.685-2.758,2.068-5.518,2.76-6.9C477.163,469.653,477.851,471.722,478.54,473.795z M473.02,473.795
			h-0.689c0.689-0.692,0.689-0.692,1.384-1.382C473.02,473.103,473.02,473.795,473.02,473.795L473.02,473.795z M464.739,471.722
			c0.692,0,1.38,0,1.38,0c0,0.69-1.38,0.69-1.38,0.69C464.739,471.722,464.739,471.722,464.739,471.722z M473.02,475.171
			c0,0-0.689,0-1.38,0.692l0,0c-3.452,0.69-6.9,1.382-10.352,1.382h-0.685c-1.384-0.692-3.452-0.692-5.52-0.692
			c0.689,0,0.689,0,1.38,0h0.689c0.689,0,2.068,0,2.068,0c4.144,0,8.283,0,11.044-1.382c0.689,0,1.377,0,2.068,0
			C473.02,475.171,473.02,475.171,473.02,475.171L473.02,475.171z"/>
		<path fill="#333333" d="M439.214,243.327c0,0.692,0,0.692,0,0.692c0,0.69,0,1.382,0,2.072c0.685,0,0.685,0,1.374-0.69
			c8.975-6.9,17.252-14.492,22.776-24.151v0.691C454.388,228.84,446.803,235.74,439.214,243.327z"/>
		<path fill="#333333" d="M473.02,268.859h-0.689c-0.691,0-0.691,0-0.691,0c-8.277,9.66-17.252,18.632-24.837,27.601
			c-2.763,2.76-4.832,4.832-6.215,6.21c0.695,0,1.384-0.69,2.075-1.378C455.083,292.319,464.739,281.279,473.02,268.859z"/>
		<path fill="#333333" d="M470.263,392.371c0,0,0,0-0.692,0.692c-10.352,11.04-18.632,22.082-24.84,35.19c0.688,0,0.688,0,1.383,0
			c-1.383,0.692-2.075,2.069-2.763,3.45h0.689c9.66-11.731,18.632-22.772,27.601-33.811c-0.689,0-0.689,0-1.377,0
			c-4.832,4.829-8.975,10.352-13.112,15.179C461.983,406.172,466.12,399.272,470.263,392.371z M448.871,423.422
			c0.692-1.376,2.068-2.758,3.449-4.14c0-0.687,1.38-1.378,1.38-2.069C452.32,419.973,450.251,421.353,448.871,423.422z"/>
		<path fill="#333333" d="M448.182,466.202c0.689,0.692,0.689,0.692,1.38,0.692c7.588-8.281,15.177-16.562,22.077-25.53
			c0-0.69,0-0.69-0.689-0.69c-0.689,0-0.689,0-0.689,0c-0.692,0-0.692,0-1.38,0l-0.695,0.69
			C460.603,448.954,454.388,457.922,448.182,466.202z"/>
		<path fill="#333333" d="M450.939,445.504L450.939,445.504c6.9-7.59,13.8-15.181,19.324-23.458c0,0,0,0-0.692,0
			C462.671,428.945,456.463,437.222,450.939,445.504z"/>
		<path fill="#333333" d="M446.803,441.364c0,0,0.685,0,0.685-0.69c0,0,0,0,0.694,0c6.205-10.352,13.106-20.701,22.08-28.979l0,0
			C459.219,419.973,450.939,428.945,446.803,441.364z"/>
		<path fill="#333333" d="M470.263,451.022c0,0,0,0-0.692,0c-8.283,5.521-13.8,12.422-17.252,20.7l0,0
			C459.219,464.823,465.431,457.922,470.263,451.022z"/>
		<path fill="#333333" d="M473.02,345.452c-0.689,0-0.689,0-1.38,0.691c-3.452,2.759-6.209,5.517-9.657,8.969
			c1.38-2.068,2.757-3.451,4.137-5.52c-0.689,0-0.689,0-1.38,0.689c-7.588,7.59-15.177,16.564-22.077,25.532
			c-0.691,0.69-0.691,0.69-0.691,1.38c0,0,0,1.378-0.689,2.07c-0.695,0.69-1.384,0.69-2.069,1.382c0.685,0,0.685,0,1.374,0l0,0
			c-1.374,1.376-2.068,3.449-3.449,4.827c0,0,0.692,0,1.38,0C450.939,373.053,461.983,359.252,473.02,345.452z"/>
		<path fill="#333333" d="M441.971,413.763c0.691-0.692,0.691-0.692,1.38-0.692c8.969-13.8,18.632-27.6,29.669-40.019
			c-13.105,9.66-23.457,22.768-31.737,37.26c0,0.69,0,0.69,0,0.69C441.283,412.382,441.971,413.071,441.971,413.763z"/>
		<path fill="#333333" d="M364.686,277.141c0-0.69,0-0.69-0.689-1.382c0,2.76,0,4.142,0,6.211h-0.685c0,0-1.383,0-2.078,0.69
			c0,0,0,0,0,0.692c-0.685,0-0.685,0-1.373,0h-0.695c1.384,0.69,2.763,2.068,4.832,2.76c-0.685,4.83-0.685,9.659,0,15.18
			c-0.685,0-0.685,0-0.685,0.689c-0.694,5.521,0,11.04,0,15.872c0,0.69-0.694,2.068-1.383,2.068
			c-0.695-3.45-0.695-6.209-0.695-8.969c0,3.451-0.685,6.9-0.685,11.04c-0.689,1.378-0.689,1.378-1.384,1.378
			c0.695,0,0.695,0,1.384,0c-0.689,2.76-0.689,6.211-0.689,8.974c0,22.768,0.689,46.227,1.373,69.001c0,4.827,0,9.659,0,14.487
			v6.214c0,1.376,0,1.376,0,2.758c0,0.692,0,0.692,0,0.692s0,0,0,0.687c0,4.14,0,8.972,0.695,14.492c-0.695,0-0.695,0-0.695,0
			s0,0.69,0.695,1.38c0,9.659,0,19.317,0.689,28.29c0,0.687,0,0.687,0.694,0.687c0,0.691,0,0.691,0.685,0.691
			c0.689-3.451,0.689-6.9,0.689-10.352c0.695,3.452,0.695,6.9,1.38,9.661c0-2.76,0-6.209,0-8.969c0.694,0.69,1.383,0.69,2.072,0.69
			c0,0,0,0,0,0.692c0,0,0,0,0,0.686c0,0.692,0,0.692,0,0.692c-0.689,0.69-0.689,0.69-1.377,1.38
			c0.689,0.692,0.689,0.692,1.377,0.692c-0.689,2.759-0.689,4.828,0,6.9c-0.689-0.692-0.689-0.692-0.689-0.692l-0.689,0.692
			c0.689,0,0.689,0,0.689,0c-1.383,1.376-3.452,1.376-4.832,1.376h0.694c1.374,0.692,3.449,0.692,4.826,1.382
			c0.691,0,1.38,1.378,2.075,2.07v0.69c0,0.69,0,0.69,0,0.69c-2.075,0-2.763,0-4.146,0.692c11.731,4.137,24.152,4.828,36.572,2.76
			c0-0.692,0-0.692-0.689-0.692c-7.588,1.382-15.869,0.692-23.463-0.691c10.352,0.691,19.327,0.691,28.295,0c0-0.69,0-0.69,0-1.377
			c-0.694-0.692-0.694-0.692-0.694-0.692c-0.689,0-0.689,0-1.374,0v-1.38c0.685,0,1.374,0,1.374,0c0.694-2.07,0-2.07-0.689-2.07
			c0-8.281,0.689-16.558,0-24.841c0.689,5.519,0.689,11.04,0.689,16.559l0,0c-0.689,0.691-0.689,1.382-0.689,1.382
			c0,2.07,0.689,2.07,2.763,2.07c0.689-2.07,0.689-3.451,0.689-5.52c0-12.421-0.689-24.839-1.38-37.257
			c0.692-4.142,0.692-7.592,1.38-11.042c0,1.378,0,2.07,0,3.45c0.689-1.38,0.689-2.072,0-3.45c0-1.382,0-2.072,0-3.451
			c2.068-22.082,2.763-44.16,1.38-66.241c-0.691-11.732-1.38-24.152-2.76-35.192c-0.689-10.35-1.383-19.319-1.383-28.979
			c0-0.69,1.383-0.69,2.075-0.69c-0.692,0-2.075,0-2.075-0.692c-0.689,0-0.689-0.69-0.689-2.068c-0.685,0.688-1.38,1.378-1.38,2.068
			h-1.38c-0.689-0.69-0.689-1.38-0.689-2.068h-0.688c0,0.688,0,1.378,0.688,2.068c-11.037-1.38-22.083-2.068-33.121-0.69
			c-1.38,0-2.068,0-2.763,0C365.381,279.901,365.381,278.519,364.686,277.141z M373.661,288.869c0.688,0,1.376,0,1.376,0
			c-0.689,1.382-2.072,3.45-3.451,5.522c-2.069,0-4.137,1.378-4.137,4.136c2.068,0.692,4.137-0.687,6.212-2.758
			c1.376-2.759,3.451-4.829,5.52-6.9c6.9,0,13.105,0,17.937-1.379v-0.69c0-0.69,0-0.69-0.689-1.382c-0.691,0-1.38,0-2.068,0
			c0.689,0,1.377,0,1.377,0c0.691,0,1.38,0,2.76,0c0.688,0,2.068,0,2.763,0c0-1.378,0-1.378,0.688-1.378
			c0.689,6.21,2.069,13.11,2.069,19.318c0,0.692,0,2.069,0.694,2.76c0,8.972,0,18.632,0,27.601
			c-0.694-13.8-2.075-27.601-3.451-42.092c-1.38,0.691-2.075,2.763-2.075,4.832c0,1.382,0,3.452,0.695,4.832
			c-2.763,2.068-6.215,5.52-9.663,8.969c-6.9,9.66-15.181,17.942-22.769,26.22c0.689-6.9,0.689-13.11,0.689-20.01
			c0-1.379,0-1.379,0.691-2.068c0.689-0.69,0.689-0.69,1.384-0.69c8.274-6.9,17.249-14.491,24.837-23.46c0,0,0,0,0-0.692
			c0-0.69,0-0.69,0-0.69c-0.689,0-0.689,0-0.689,0c-5.523,4.142-10.348,8.972-15.875,13.8c2.763-2.758,4.832-6.9,6.9-9.659
			c0-0.692,0-0.692,0-0.692c0-0.691,0-2.068,0-2.068h-0.689c-6.212,7.59-11.037,15.177-16.56,22.769
			c-0.689-8.969-1.377-17.25-2.072-25.529C368.138,287.491,370.898,288.179,373.661,288.869z M402.638,284.041
			c0.692,0,1.38,0,1.38,0s0,0,0,1.378c0,2.071,0,4.832,0.694,7.592C404.019,290.251,403.33,287.491,402.638,284.041z M407.47,333.03
			c0.692,4.14,0.692,8.972,1.38,13.113c0.689,11.727,0.689,22.769,0,34.501c-0.689,2.068-0.689,4.827-0.689,6.209
			c-0.692,2.759-0.692,5.518-0.692,7.592c0-0.692,0-1.382,0-2.073c0-1.378,0-3.45,0.692-5.518c-0.692,0.691-0.692,0.691-0.692,1.378
			c-0.689-13.11-1.383-26.219-0.689-39.329C407.47,344.07,407.47,337.861,407.47,333.03z M399.187,320.612c0,0-0.688,0-0.688,0.69
			c-11.037,12.419-21.386,24.842-31.738,36.569c0-2.069,0-3.45,0-6.21c5.52-4.14,10.352-9.659,14.489-15.869
			c2.068-3.448,4.137-5.521,7.588-8.971c5.523-4.829,9.661-10.35,12.424-15.869c0.688,12.419,1.376,24.151,2.068,36.569
			c-0.692,2.072-0.692,4.832-0.692,6.9c-11.725,13.8-24.152,27.6-35.877,41.4c13.8-12.419,25.526-25.528,35.877-40.019
			c0,2.759,0,5.519,0,8.279c-12.42,12.422-24.841,24.841-36.572,37.264c0-4.832,0-8.973,0-14.491
			c8.971-6.9,15.872-15.182,22.772-25.532c1.38-2.068,2.76-3.45,4.144-5.519c4.136-4.141,6.9-8.281,8.28-12.421
			c-0.695,0-1.38,0-2.075,0c-10.348,14.49-21.389,28.982-33.12,42.091c0,0,0-1.378,0-2.759c0-4.831,0-9.66,0-13.8
			c1.383,0,2.072,0,4.146,0c0-0.692,0-0.692,0.685-0.692c9.663-13.8,20.015-26.218,30.364-39.329c-0.695,0-0.695,0-0.695,0.689
			c-11.729,10.35-22.081,22.772-32.429,36.572c-0.689,0-1.377,0.692-2.072,1.378c0-2.76,0-6.21,0.694-8.97
			C379.867,347.52,390.913,335.102,399.187,320.612z M400.567,309.57L400.567,309.57c-6.205,5.521-11.729,12.421-17.249,20.01
			c-4.832,6.9-9.657,12.422-15.869,18.632c0-0.692,0-2.069,0-3.452c0-1.38,0-3.449,0-4.83c6.212-6.21,12.417-11.728,17.937-18.629
			c6.211-6.21,11.043-11.731,14.495-19.322c0.685,2.072,0.685,4.832,1.38,7.59H400.567z M361.929,321.301
			c0.689-0.69,1.383-0.69,1.383-0.69s0,1.38,0.685,2.758c-0.685,3.451-0.685,7.59-0.685,11.042c0,2.758,0,4.14,0,6.209
			c0,0,0,0,0,0.691C362.618,334.412,362.618,328.202,361.929,321.301z M363.312,345.452c0-1.382,0-2.76,0-3.45l0,0
			C363.312,343.381,363.312,344.07,363.312,345.452z M401.95,373.053c-0.688,0-0.688,0-0.688,0.691
			c-12.424,11.727-23.464,24.149-33.813,37.259c-0.689-0.69-0.689-1.382-0.689-2.758c0-2.073,0-4.142-0.694-5.523
			c14.495-10.35,26.22-23.459,36.572-37.259c0,2.758,0,5.518,0,8.969c0,2.761,0,5.521,0,7.59c-3.452,3.451-6.9,6.9-10.352,10.35
			c-3.449,4.142-7.588,8.281-10.348,12.422c-4.826,5.52-9.657,10.352-14.489,15.18c0-2.07,0-4.828,0-6.902
			C379.867,399.963,391.598,386.853,401.95,373.053z M395.739,394.445c2.76-3.452,5.523-5.523,6.9-8.973c0,11.042,0,22.774,0,34.502
			c-0.689,3.448-1.376,8.28-1.376,13.109h-0.695c-0.685,0.691-1.38,0.691-1.38,0.691c-11.037,8.972-20.7,18.629-28.974,28.979
			c0-0.69,0-0.69,0-1.382c0.685,0,0.685,0,0.685,0c10.352-12.417,20.015-24.149,28.288-35.876c0,0,0,0-0.688,0
			c-10.349,10.35-20.012,22.078-28.286,34.499c-0.695-0.692-0.695-1.382-0.695-2.072v-0.691c-0.689-6.209-0.689-13.109-1.38-20.009
			c10.348-11.04,20.012-22.077,28.98-33.119l0,0c-11.037,8.968-20.006,19.318-28.98,29.67c0-2.76,0-5.52-0.689-7.592
			c11.037-10.35,21.389-20.01,31.049-31.051c0-0.687-0.685-0.687-1.38,0c-10.352,8.972-20.006,19.322-29.669,29.672
			c0-1.382,0-1.382,0-3.45C377.113,413.071,386.081,404.103,395.739,394.445z M404.019,406.863c0-2.07,0-4.142,0-6.9
			c0-6.21,0-11.731,0-17.942c0-2.068,0-3.45,0-5.518c0.694,6.21,1.38,12.419,1.38,17.942
			C404.713,399.272,404.019,402.722,404.019,406.863z M403.33,433.773c-0.692-0.691-0.692-2.07,0-2.76
			c0.689-4.14,0.689-7.592,1.383-11.731c0,9.663,0.685,20.014,0.685,29.672c0-4.14-0.685-8.28-1.38-13.109l0,0
			c0,3.451,0,7.587,0,11.037c-0.689,1.382-0.689,3.451,0,4.83c-0.689,0-0.689,0-1.38,0c0-0.69,0-2.758,0-4.138
			c0.692-0.692,0.692-0.692,1.38-0.692c-0.689,0-0.689,0-1.38,0.692c0-1.378,0-3.452,0-4.828c0-2.763,0-5.523,0.692-8.282
			C403.33,434.463,403.33,434.463,403.33,433.773z M368.138,461.371c-0.689,0-1.377,0-2.072,0c0.694-4.827,0.694-9.659,0.694-14.489
			C367.449,451.712,367.449,455.853,368.138,461.371z M370.898,466.202v-0.69c9.663-10.35,19.32-20.699,29.669-31.049
			c-0.685,5.519-0.685,10.35-1.38,15.182c-8.274,6.899-15.869,13.799-24.149,21.386c0,1.382,2.075,1.382,3.449,0.691
			c0,0,0.695,0,1.38-0.691c6.9-6.209,13.115-13.109,19.32-19.319c0,0.69,0,1.382,0,2.759c-2.757,1.382-5.52,3.451-7.588,5.523
			c-4.137,4.828-7.585,8.968-9.66,13.8c-2.072-0.692-4.14,0-6.9,0c-1.376,0-3.451,0-4.825,0c0.685,0,0.685,0,1.374-0.692
			C370.898,471.031,370.898,468.271,370.898,466.202z M402.638,453.094c0.692,0,0.692,0,1.38,0c-0.689,8.277,0,15.177,0,23.459l0,0
			c-5.52,0-9.657,0.692-14.489,0.692c2.068,0,3.452,0,5.52-0.692c0,0,0,0,0-0.69c-0.689-0.692-0.689-0.692-0.689-0.692
			c-0.695,0-2.075,0-2.075,0c2.763-2.758,4.832-4.827,6.9-6.9c0,0,0,0-0.688,0c-1.38,1.382-3.449,2.073-6.212,2.073
			c0-0.691,0-0.691-0.689-0.691c0,0-0.685,0-1.38,0c0,0-0.689,1.378-1.38,2.07c-1.376,0.69-1.376,1.38-2.072,3.449
			c-1.38-1.376-2.753-1.376-4.828-1.376c6.211-5.523,11.728-11.042,17.248-15.872c-0.688,0.691-0.688,1.38-0.688,2.072
			c0.688,0,0.688,0,1.383-0.692c0.685-1.38,0.685-2.072,0.685-3.45c0.695,6.9,1.383,13.8,2.763,20.7
			C402.638,468.271,402.638,461.371,402.638,453.094z M403.33,480.003c-0.692,0-2.068,0-2.068,0c0.688-0.69,1.376-0.69,2.757-0.69
			C403.33,479.313,403.33,479.313,403.33,480.003z M370.898,476.553c0,0,0.689,0,2.068,0c2.072,2.07,5.52,2.76,8.972,3.45
			c-1.377,0-3.452,0-4.14,0c-0.685,0-0.685,0-1.38,0.692l0.694,0.687c-0.694-0.687-2.075-0.687-2.075-1.378c-1.376,0-2.757,0-4.14,0
			c0,0,0,0,0-0.69C370.898,478.623,370.898,477.245,370.898,476.553z"/>
		<path fill="#333333" d="M370.898,326.13c0,1.382,0.689,1.382,2.763,0.69c2.757-2.069,6.205-4.829,8.277-6.9
			c7.592-8.278,13.8-17.25,17.248-25.528c-3.448,4.828-8.274,9.66-12.42,15.179C381.938,315.091,376.418,320.612,370.898,326.13z"/>
		<path fill="#333333" d="M394.362,343.381c-0.695,0-1.38,0-1.38,0.69c-6.9,11.041-15.184,20.7-24.844,29.673l0,0
			C379.867,366.152,388.15,355.802,394.362,343.381z"/>
		<path fill="#333333" d="M401.95,411.003c-0.688,0-0.688,0-0.688,0c-11.044,10.35-20.012,21.392-27.601,33.811
			c-2.075,0-2.763,0.69-4.144,1.382c1.38,0,2.069,0,4.144,0.687c5.52-6.208,11.037-13.108,16.557-20.008
			c1.38-2.07,4.143-4.828,6.211-6.21C399.882,417.904,401.95,414.453,401.95,411.003z"/>
		<path fill="#333333" d="M368.829,275.069c-0.691,0-0.691,0.69,2.069,0.69c8.283,1.382,17.252,2.76,25.532,3.451
			c0.689-0.691,1.384-0.691,2.069-0.691c-0.685-1.378-1.38-1.378-1.38-1.378C388.15,275.759,378.486,275.069,368.829,275.069z"/>
		<path fill="#333333" d="M511.664,285.419c-0.692,0-2.075,0.692-2.075,1.382c0.694,0,1.383,0,2.763,0.69c0-0.69,0-0.69,0.688-1.38
			c11.044-12.421,20.012-25.532,28.296-40.021C529.604,257.819,519.941,271.619,511.664,285.419z"/>
		<path fill="#333333" d="M309.485,357.18c-0.688,0-0.688,0-0.688,0.69c-3.449,3.45-6.212,7.592-9.664,11.731
			c0.695-3.45,0.695-6.21,1.384-8.281c-1.384,3.45-2.757,7.592-4.137,11.732c-0.694,1.378-1.383,2.068-2.068,3.45
			c0-4.831,0-10.35,0-15.182c-0.695,0.692-0.695,2.76-0.695,4.832c-0.689-3.45-0.689-6.209-0.689-9.66
			c-1.38,9.66-1.38,19.32-1.38,28.979c-0.689,8.281-1.383,16.56-1.383,24.842c0.694,14.49,0.694,29.669,1.383,44.158
			c-0.689,0.691-1.383,1.382-2.763,2.76c0.695,0.691,1.38,0.691,1.38,0.691c0.694,0,1.383,0,1.383,0c0,6.9,0,13.8,0.685,20.701
			c0.694,0.69,0.694,0.69,0.694,1.38c0,0,0,1.378,0,2.069c0.689,0,0.689,0,1.384-0.69c0-0.687,0-0.687,0.685-1.378c0,0,0,0,0-0.69
			c0-0.69,1.383-0.69,1.383-1.382c0-2.76,0-4.136,0.685-6.209c0.695-1.378,2.068-2.07,3.452-3.451
			c0.694,3.451,1.38,6.9,2.068,10.352c0.695-2.07,0.695-3.452,0.695-6.21c0,0,0.685,0,1.38-0.69c0,0,0,0,0-0.691
			c10.352-9.661,19.32-20.009,26.22-32.428c0.685,3.45,0.685,7.592,1.38,10.35c-8.28,6.898-16.564,15.177-24.149,22.768
			c0.685,0.69,1.373,0.69,2.068,0.69c0.685,0,0.685,0,1.38,0c6.9-6.9,13.8-14.491,20.7-21.391c0.689,4.83,1.374,10.349,2.068,14.49
			c-0.694,4.832-0.694,9.659-0.694,14.49c-3.449-0.69-6.9-0.69-10.349-1.38c0.695-0.692,2.075-2.07,2.075-3.452c0,0-0.694,0-1.38,0
			c-0.695,1.382-1.383,2.073-2.763,1.382l0,0c0-0.69,0-1.382,0-1.382h-1.383c4.146-4.827,8.283-9.659,11.731-13.8h-0.685
			c-6.215,4.142-11.731,9.661-15.869,15.182c-2.078,0-2.763,0.692-3.451,2.07c-2.763,0-6.212,0-9.664,0.69c0,0,0,0-0.685,0.69
			c0,0,0,0,0.685,0c-0.685,0.692-0.685,0.692,0,0.692c0,0.687,0,1.377,0,1.377c0.689,0.691,1.384,0.691,1.384,1.383
			c11.731,0.69,23.454,1.377,35.186,2.068l0,0c0.694-0.691,0.694-1.379,1.383-1.379c0-1.382-0.689-2.073-2.763-2.073
			c-6.205,0.691-11.726,0.691-15.869,0c4.143,0,7.595,0,11.732,0c0.685,0,1.38,0,2.068-0.69h-0.689c0,0,0,0,0.689-0.687
			c0.695-0.692,2.068-0.692,2.068-0.692s0,0-0.689,0c-0.685,0-0.685,0-1.38,0c0-1.38,0-2.072,0.695-3.45c0,0.692,0,2.07,0,2.07
			c0,0.69,1.373,0.69,1.373,0.69c1.38-3.45,1.38-6.9,1.38-11.042c0-6.209,1.383-12.419,1.383-17.939c0-1.378,0-2.759,0.685-4.137
			c0,2.068,0,4.137,0,6.207c0.695-9.657,1.383-20.007,0.695-30.357c0-2.072,0-4.142,0-6.9c0-11.042-0.695-22.774-1.38-33.124
			c-0.689-5.518-1.383-10.35-2.068-15.869c0-2.072,0-4.832-0.695-7.592c0.695,0,1.38,0,1.38,0s0,0,0-0.69c-0.685,0-0.685,0-1.38,0
			c0-0.69,0-0.69,0-0.69c-0.689-1.378-0.689-2.068-0.689-2.759h-0.685c0,0.691,0,1.381,0,2.072c-2.078-1.38-4.832-2.072-7.595-2.072
			l0,0c-0.689-1.377-1.384-1.377-1.384,0c0,0,0,0-0.685,0c-1.383,0-2.763,0-4.136,0c-11.047,0-22.084,0-33.127,1.381
			c1.38,0,2.763,0,4.143,0.69C298.448,356.492,303.965,356.492,309.485,357.18c2.075,0,4.832,0,6.9,0.69
			c-4.825,9.66-10.352,17.942-17.937,24.842c0-3.45,0.685-6.9,0.685-10.35C303.28,368.22,306.728,362.702,309.485,357.18z
			 M294.311,377.193c0.685-0.69,1.374-1.38,2.068-1.38c-1.383,2.068-1.383,4.832-2.068,8.28
			C294.311,382.021,294.311,379.263,294.311,377.193z M297.76,396.513c0-3.45,0-6.21,0-8.969c11.037-8.281,20.7-17.942,27.6-29.673
			c3.452,0.69,7.589,0.69,10.352,0.69c0,3.452,0,7.592,0,11.042c0,0.69,0,0.69-0.695,0.69
			c-11.037,16.56-22.769,31.738-35.884,46.229c0,0,1.384,0,2.078,0h0.685c9.664-9.659,18.632-20.009,25.532-31.051
			c0,3.45,0,6.9,0.689,8.973c-9.657,14.487-19.32,27.601-29.67,40.019c-0.688-2.76-0.688-6.9-1.383-9.66c0-0.69,0-0.69,0-1.382
			c-0.685-4.14-0.685-8.969,0-13.108c8.969-6.21,16.564-13.8,23.463-22.082c6.205-8.279,10.352-16.56,13.8-24.839h-0.694
			c-0.685,0-0.685,0-0.685,0c-10.352,17.252-21.389,32.429-35.884,45.539c0-2.76,0-5.519,0.695-8.279
			c5.52-5.521,11.725-11.731,17.937-17.94c6.215-7.592,11.037-15.182,14.489-24.152h-0.689c0,0,0,0-0.685,0
			c-4.146,6.21-8.978,11.732-13.115,17.942c-4.136,6.21-9.663,11.042-15.18,15.869C299.133,393.753,298.448,395.131,297.76,396.513z
			 M298.448,382.713L298.448,382.713c8.969-6.9,15.181-15.182,19.317-24.842c2.069,0,3.452,0,5.52,0
			c-8.274,10.35-16.557,20.01-25.525,28.982C297.76,385.471,297.76,384.093,298.448,382.713z M337.086,358.561
			c0,0.692,0,0.692,0,1.383C337.086,359.252,337.086,359.252,337.086,358.561L337.086,358.561z M328.117,396.513
			c0,1.38,0,2.759,0,4.14c-9.657,13.11-19.32,26.911-28.984,40.021c-0.685-2.07-0.685-3.452-0.685-4.829
			C310.865,424.114,320.528,411.003,328.117,396.513z M330.88,399.272c0-5.519-1.383-11.04-1.383-16.559
			c2.068-2.76,4.137-6.9,6.215-10.35c-0.695,7.59-1.384,15.869-1.384,24.151c-0.694,6.209-0.694,13.108-0.694,20.009
			c-0.685-2.759-0.685-5.519-0.685-8.277l0,0C332.26,405.482,331.565,402.722,330.88,399.272c0.685,0,0.685,0,0.685,0H330.88z
			 M330.186,431.704c0.694,2.07,0.694,5.518,0.694,6.9c-9.663,10.35-19.32,20.009-27.6,30.359c-0.695-0.691-0.695-2.068-0.695-2.76
			C312.934,455.853,322.597,444.122,330.186,431.704c-1.374,0-2.068,0.691-2.757,1.379c-4.832,6.213-10.349,13.113-15.869,18.63
			c6.9-7.59,12.42-16.558,17.937-24.839C330.186,427.563,330.186,430.322,330.186,431.704z M328.812,411.003c0,0,0,0,0,0.692
			c-10.352,10.35-20.015,22.079-29.679,33.119c0-0.692,0-1.382,0-2.76c11.047-11.731,21.395-24.15,28.984-37.95
			C328.812,406.863,328.812,408.245,328.812,411.003z M328.812,413.071c0.685,3.451,0.685,6.902,0.685,10.35
			c-9.663,12.423-18.632,24.842-27.601,37.949c-0.685-4.14-1.38-8.277-2.068-12.417C310.18,437.222,319.834,425.495,328.812,413.071
			z M337.086,459.994c0-1.382,0-2.072,0-4.142c0.695-6.898,0.695-14.489,1.38-22.079c0-8.278,0-16.56,0-24.152
			c0.694,2.073,0.694,4.142,0.694,6.9C338.466,430.322,337.781,445.504,337.086,459.994z M297.065,451.712c0,0,0,0,0.695,0
			c0,4.14,1.373,8.282,2.068,12.419c-0.695,0.692-1.38,1.382-2.068,1.382c0.688,0.69,1.373,0.69,1.373,0.69
			c-0.685,0.692-1.373,2.069-2.068,2.76C297.065,462.752,297.065,457.922,297.065,451.712z M333.634,480.694l0.694,0.687
			c-1.38,0-1.38,0-2.068,0C332.949,480.694,332.949,480.694,333.634,480.694z M319.149,475.171c-0.689,1.382-1.384,2.76-2.069,3.452
			c0,0-0.694,0-1.383,0C317.08,477.931,317.765,476.553,319.149,475.171z"/>
		<path fill="#333333" d="M263.948,416.522l-0.689,0.691c0,0.691,0,1.382,0,2.069c-3.449-0.687-6.211-0.687-8.975-1.378
			c-0.689,0-0.689,0-0.689,0.691c-2.068-0.691-4.832-0.691-6.9-0.691c-0.685,0-0.685,0-1.38,0.691
			c-0.689,0.687-1.383,0.687-2.757,0.687c-2.763,0.691-5.527,0.691-7.595,0.691c-2.068,0-3.449,0.69-5.517,0.69
			c-0.689-1.382-0.689-3.451-0.689-4.832c0,0,0,0,0,0.69c0,1.382,0,3.451,0,4.142c-2.075,0.69-4.143,0.69-5.527,1.382
			c1.384,1.376,2.763,1.376,4.832,1.376c-0.685,4.142-0.685,8.282-0.685,12.423c0,0-0.694,0-1.383,0c0.689,0,1.383,0,1.383,1.377
			c0,15.872,0,31.049,0.685,46.922c0.695,0,0.695,0,1.384,0c0.685,0,0.685,0,0.685-0.69c0-0.692,0-0.692,0-0.692
			c0-0.691,0-0.691,0-0.691c1.383,0,2.763,0,3.451,0c1.38,0,2.075,0,3.449,0c0,0,0,0,0,0.691c0,0,0.695,0,1.384,0.692
			c-1.384,0.69-2.069,0.69-2.757,1.377c0,0.691,0,0.691-0.694,0.691c0.694,0,1.383,0,2.068,0c8.283-0.691,16.564-1.379,24.847-2.76
			h-0.695c0,0-1.374,0-2.068,0c3.449-0.691,7.595-0.691,10.348-0.691c1.384,0,2.068,0,2.763,0l0,0c0-0.69,0-0.69,0.689-1.377
			c0.694,0,0.694,0,0.694-0.692c0,0,0,0,0-0.69v-0.69c0-17.252-1.383-35.191-3.451-52.441c-0.695,0-1.38,0-2.075-0.687
			c0,0.687,0,0.687,0,1.378c0,0.69,0,1.38-0.689,2.072c-0.685-1.382-0.685-2.072-0.685-4.142c0,0,0.685,0,1.374,0
			c-0.689,0-1.374,0-1.374,0c-0.695-1.382-0.695-1.382-1.383-2.758c1.383,0,2.757,0,4.136,1.376
			c0.695-1.376,0.695-1.376,1.384-1.376c0,0,0,0,0-0.692c0-0.69,0-0.69,0-0.69c0-0.69,0-0.69-0.689-0.69
			c-2.075-0.691-3.449-0.691-5.527-0.691C263.948,417.904,263.948,417.213,263.948,416.522z M255.664,422.045h-0.685
			c-0.694,0-1.383,0-1.383,0S254.979,422.045,255.664,422.045z M257.048,422.045L257.048,422.045c2.068,0,4.136,0,6.211,0
			c0,1.376,0,1.376,0.689,1.376C261.184,423.422,259.116,423.422,257.048,422.045z M244.627,424.114h-0.694
			c-0.685,0.69-1.374,1.382-2.754,2.068c-2.763,6.213-6.9,12.422-10.352,18.632c-0.694-2.76-0.694-5.518-0.694-7.592
			c1.383-1.377,2.075-1.377,2.763-2.068c0.688,0,0.688,0,1.383-0.691c2.753-2.76,4.828-6.21,6.9-10.35
			c0.685-0.692,1.38-0.692,1.38-0.692c3.452,0,6.9,1.382,10.352,1.382c-7.595,11.042-15.183,22.77-22.084,33.809
			c0-4.142,0-7.59,0-11.039v-0.692C237.032,439.982,241.179,432.395,244.627,424.114z M248.079,437.222
			c1.38-1.377,2.754-3.449,4.136-5.518c1.38-2.759,2.763-4.14,3.449-6.9c0.695,0,1.384,0,2.763,0
			C254.284,428.945,250.833,433.773,248.079,437.222z M259.116,427.563c0.694-0.69,0.694-0.69,0.694-0.69c0-0.692,0-1.378,0-2.07
			c1.374,0,2.754,0,4.137,0c1.38,4.142,2.068,7.592,2.763,12.419c-0.695,6.9-1.383,13.8-0.695,21.391
			c-4.832,6.21-9.657,12.419-15.183,17.94c-2.754,0.692-4.822,0.692-6.9,1.378c6.9-8.278,13.8-17.937,19.326-26.909
			c-0.694,0-0.694,0-0.694,0c-8.28,8.972-15.869,17.94-22.769,27.601c-2.068,0.69-4.137,1.38-6.212,1.38
			c-0.688,0-2.068,0-3.451,0.692c0.694-4.832,0.694-8.972,0.694-13.8c0.689,0,0.689,0,0.689-0.692v-0.69c0,0,0,0,0.692-0.69
			C241.179,451.712,249.459,439.296,259.116,427.563z M239.796,423.422h-0.689c-0.691,0-0.691,0-0.691,0.692
			c-2.069,3.45-4.832,7.59-7.589,10.35h-0.694c0-3.45,0-6.9,0-10.35c0.694,0,1.383,0,2.763-0.692
			C234.964,423.422,237.032,423.422,239.796,423.422z M230.827,461.371c0,0,0-1.376,0-2.068c0.689-0.69,2.069-0.69,2.757-1.38
			C232.896,458.613,231.515,459.994,230.827,461.371z M262.565,476.553c-2.069,0-4.137,0-6.205,0
			c4.136-4.83,7.588-10.35,9.657-15.182c0.695,5.523,0.695,11.042,2.069,16.56c0,0.692,0,0.692,0.694,0.692
			c-0.694,0-1.383,0-2.068,0l0,0c-0.695-0.692-0.695-0.692-1.383-1.378C264.633,476.553,263.948,476.553,262.565,476.553z
			 M241.179,482.072c-0.694,0-1.383,0-1.383,0l0,0C240.484,482.072,240.484,482.072,241.179,482.072z"/>
		<path fill="#333333" d="M263.948,426.182c-4.137,2.763-6.9,7.592-9.663,12.422c-7.589,13.108-15.177,25.527-22.769,36.567
			c0,0.692,0.692,0.692,1.38,1.382c0-0.69,0.688-0.69,1.383-0.69c-0.695,0-0.695,0-0.695,0.69c0.695,0,0.695,0,1.38,0
			c0.694,0,1.383,0,2.068,0c9.663-11.04,17.947-22.772,24.152-35.879l0,0c-8.969,11.038-16.557,22.079-24.152,34.497
			c-0.685,0-1.374,0-1.374,0c0-1.376,1.374-2.068,1.374-2.758c6.215-9.66,12.426-20.011,20.016-30.359
			C259.81,437.222,262.565,431.704,263.948,426.182z"/>
	</g>
</g>
</svg>
