<?xml version="1.0" encoding="utf-8"?>
<!-- Generator: Adobe Illustrator 17.0.0, SVG Export Plug-In . SVG Version: 6.00 Build 0)  -->
<!DOCTYPE svg PUBLIC "-//W3C//DTD SVG 1.1//EN" "http://www.w3.org/Graphics/SVG/1.1/DTD/svg11.dtd">
<svg version="1.1" id="Layer_1" xmlns="http://www.w3.org/2000/svg" xmlns:xlink="http://www.w3.org/1999/xlink" x="0px" y="0px"
	 width="355px" height="402px" viewBox="0 0 355 402" enable-background="new 0 0 355 402" xml:space="preserve">
<g>
	<defs>
		<filter id="Adobe_OpacityMaskFilter" filterUnits="userSpaceOnUse" x="208.084" y="161.986" width="0.233" height="0.125">
			
				<feColorMatrix  type="matrix" values="-1 0 0 0 1  0 -1 0 0 1  0 0 -1 0 1  0 0 0 1 0" color-interpolation-filters="sRGB" result="source"/>
		</filter>
	</defs>
	<mask maskUnits="userSpaceOnUse" x="208.084" y="161.986" width="0.233" height="0.125" id="SVGID_1_">
		<g filter="url(#Adobe_OpacityMaskFilter)">
			<linearGradient id="SVGID_2_" gradientUnits="userSpaceOnUse" x1="191.8902" y1="227.2859" x2="191.8902" y2="-276.7574">
				<stop  offset="0" style="stop-color:#FFFFFF"/>
				<stop  offset="0.1001" style="stop-color:#F4F4F4"/>
				<stop  offset="0.2765" style="stop-color:#D6D6D6"/>
				<stop  offset="0.5083" style="stop-color:#A6A6A6"/>
				<stop  offset="0.7835" style="stop-color:#656565"/>
				<stop  offset="1" style="stop-color:#2C2C2C"/>
			</linearGradient>
			<rect x="126.079" y="-276.757" fill="url(#SVGID_2_)" width="131.623" height="504.043"/>
		</g>
	</mask>
	<path mask="url(#SVGID_1_)" fill="#81949B" d="M208.1,162.098c-0.005,0.006-0.01,0.006-0.017,0.013
		c0.08-0.033,0.158-0.072,0.233-0.125C208.238,162.016,208.168,162.058,208.1,162.098z"/>
</g>
<g>
	<g>
		<path d="M172.277,315.563c-1.624,0.339-5.982,0.934-5.982,7.605c0,6.668,0.426,10.002,0.768,12.054
			c0.342,2.052,0.513,3.249,0.513,4.784c0,1.539-0.427,6.07,2.481,6.843c2.905,0.766,6.581,1.624,10.428,1.453
			c3.847-0.174,4.871-2.739,4.704-4.192c-0.174-1.453-0.771-3.334-0.686-4.616c0.086-1.282-2.137-5.984-3.763-9.058
			C179.116,327.36,172.277,315.563,172.277,315.563z"/>
		<path d="M196.64,323.599c-0.666,4.837-1.708,8.375-2.308,9.91c-0.597,1.542-1.965,5.301-1.965,6.754
			c0,1.457,0.169,5.215,1.111,5.813c0.939,0.598,1.366,1.457,6.155,1.029c4.786-0.431,9.317-0.348,9.915-5.047
			c0.599-4.699,0-12.652-0.086-14.957c-0.085-2.308,1.028-3.847,0-8.207c-1.026-4.363-1.54-6.244-4.871-5.129
			C201.258,314.872,197.324,318.634,196.64,323.599z"/>
		<path d="M149.539,202.889c2.477,14.619,3.59,27.869,3.505,30.602c-0.087,2.736-0.342,5.899,0.171,8.378
			c0.514,2.482,0.169,6.241,0.086,13.51c-0.086,7.263-1.624,16.328,4.36,32.742c5.984,16.41,8.804,24.528,8.292,28.55
			c-0.514,4.018,0.171,3.676,0.598,4.356c0.426,0.687,0.853,0.431,0.853,4.958c0,4.531,0.344,9.749,1.711,11.114
			c1.366,1.371,2.307,1.88,3.931,1.111c1.626-0.769,4.958-0.94,6.754-0.427c1.795,0.516,2.992,0.257,2.394-3.16
			c-0.598-3.419-1.455-7.267-1.539-8.894c-0.086-1.621-0.855-4.271-1.368-5.639c-0.514-1.368-1.111-2.14-1.111-3.505
			c0-1.368,0.171-2.739-1.197-5.044c-1.368-2.311-2.821-5.304-2.992-16.585c-0.169-11.285,0.513-20.261-0.087-26.416
			c-0.595-6.155-2.563-10.429-2.308-14.875c0.26-4.445,1.713-6.155,1.713-10.344c0-4.185-0.173-13.593,0.768-18.63
			c0.94-5.047,1.111-20.866,1.111-20.866L149.539,202.889z"/>
		<path d="M179.033,208.617c1.879,11.541,2.906,26.758,2.819,29.408c-0.087,2.65-0.428,5.471,0.171,7.691
			c0.6,2.226,0.257,5.987,0.77,7.612c0.514,1.624,2.477,6.323,3.334,8.204c0.855,1.877,1.195,2.052,1.624,6.241
			c0.428,4.189,1.539,13.422,4.786,23.427c3.25,10.002,3.849,14.869,3.849,17.177c0,2.311-0.857,5.475-0.857,6.415
			c0,0.94-0.257,1.795,0.171,2.39c0.429,0.599,0.343,1.881,0.172,3.423c-0.172,1.539-0.769,4.446-0.513,6.579
			c0.256,2.141-0.344,5.988-0.257,7.01c0.084,1.029-0.427,3.077,1.366,3.166c1.795,0.082,5.386,0.51,7.01,0.852
			c1.624,0.342,5.215,0.769,5.473-4.353c0.257-5.13,0.084-10.259-0.345-12.656c-0.424-2.394-0.853-2.394-0.595-4.021
			c0.255-1.621,0.34-3.416-0.429-5.553c-0.768-2.14-1.197-1.114,0.171-15.131c1.368-14.024,2.65-20.606,0.599-28.037
			c-2.052-7.441-5.813-12.912-5.728-15.772c0.084-2.864-0.086-5.429-0.342-7.822c-0.258-2.397-0.258-8.039,0.426-14.276
			c0.686-6.241,1.711-22.309,1.711-22.309L179.033,208.617z"/>
		<path d="M150.686,96.472c-3.03-4.801-6.231-7.03-3.829-14.231c2.4-7.204,4.059-11.261,10.117-14.865
			c6.06-3.601,20.581-5.028,31.039-2.798c10.464,2.229,13.894,3.656,16.467,4.176c2.571,0.509,6.744,1.197,8.116,1.539
			c1.371,0.342,3.602,1.887,4.917,3.143c1.313,1.256,2.801,4.176,3.314,7.773c0.515,3.6,0.572,5.32,0.743,6.402
			c0.173,1.089,0.113,4.574-4.46,7.435c-4.572,2.857-2.855,7.776-3.201,14.178c-0.342,6.402-7.316,16.292-7.83,23.95
			c-0.513,7.661-0.115,8.917,0.401,11.949c0.513,3.032,4.345,12.636,4.458,27.438c0.115,14.806-3.03,21.04-4.745,34.241
			c-1.714,13.205-3.488,28.129-3.488,29.898c0,1.772-0.058,3.143-0.743,3.032c-0.686-0.115-11.603-2.404-16.69-3.203
			c-5.088-0.799-12.064-2.574-18.523-3.6c-6.459-1.032-12.348-2.058-14.234-2.058c-1.887,0-2.343-0.115-3.487-0.401
			c-1.144-0.283-1.371-0.97-2.228-1.256c-0.86-0.283-1.831-0.401-2.346-0.516c-0.513-0.115-0.914,0.059-0.743-1.43
			c0.171-1.486,1.722-37.822,0.206-44.944c-1.517-7.118,0.233-17.154,2.333-25.327c2.103-8.171,1.868-10.854,5.489-16.575
			c3.617-5.718,4.899-7.355,6.067-8.871c1.169-1.515,1.052-3.502,1.169-5.833c0.117-2.338,0.348-3.972-0.233-5.369
			c-0.584-1.404-3.151-6.421-3.033-15.529C155.824,95.713,150.686,96.472,150.686,96.472z"/>
		<path fill="#FFFFFF" stroke="#000000" stroke-width="0.173" d="M208.439,149.123c0,0-1.968,29.49-3.505,37.352
			c0,0,7.951,19.317,8.72,21.803c0,0,0.937,2.65,2.051-11.633c1.11-14.27,0.084-28.29,0.084-28.29s-2.99-7.526-4.018-10.43
			C210.747,155.022,208.439,149.123,208.439,149.123z"/>
		<path d="M145.904,109.164c-0.084-4.623-1.003-15.306-0.501-18.262c0.501-2.949,0.947-5.622,1.67-6.678
			c0.725-1.062,1.948-1.897,3.342-0.838c1.391,1.059,4.676,4.738,6.124,6.569c1.447,1.841,2.782,3.292,3.063,3.452
			c0.276,0.171,0.444,1.394-0.056,3.4c-0.503,2.002-1.504,5.511-1.338,6.622c0.168,1.114-0.667,3.288-1.169,6.017
			c-0.5,2.726-0.278,5.455,0.168,7.013c0,0-0.335,5.626-0.391,7.852c-0.054,2.223-0.276,8.631-3.005,14.533
			c-2.729,5.902-5.178,13.971-6.737,20.152c-1.56,6.181-1.836,7.908-1.725,9.075c0.11,1.174,0.11,2.453,0,3.679
			c-0.112,1.22-0.169,1.831,0.276,3.002c0.445,1.17,2.283,3.955,2.116,7.069c-0.166,3.12-0.388,5.35-0.334,6.852
			c0.056,1.503,0.222,3.173-0.166,4.508c-0.39,1.342-0.781,2.729-1.728,2.844c-0.947,0.109-1.391-0.782-1.391-0.782
			s-0.445,0.668-1.726,0.944c-1.281,0.279-2.505,0.674-3.342-0.944c0,0-1.67,0.22-2.058-2.114c0,0-0.669-0.5-1.057-2.506
			c-0.39-2.006-0.557-1.506-0.779-1.897c-0.225-0.388-1.113-1.111-1.113-2.114c0-0.999-0.225-1.502,0.112-2.446
			c0.332-0.95,0.666-5.014,1.501-6.852c0.835-1.835,0.947-3.673,0.725-4.899c-0.222-1.226-0.446-1.67,0-3.17
			c0.444-1.506,1.557-4.738,2.057-8.746c0.503-4.008,1.784-14.862,2.619-23.049c0.837-8.181,1.227-7.799,2.506-11.192
			C144.845,122.862,146.126,121.415,145.904,109.164z"/>
		<path d="M211.937,95.637c0,0,5.734-5.231,8.575-5.738c0,0-0.224,12.366-0.501,18.374c-0.28,6.017-0.669,13.754-0.39,15.871
			c0.278,2.114,2.226,9.131,2.336,12.416c0.113,3.285-0.221,9.298,0.559,18.041c0.779,8.74,1.447,11.913,1.836,14.03
			c0.391,2.114,0.727,5.678,0.447,7.293c-0.279,1.614-0.393,5.126-0.837,6.126c-0.444,0.999-1.725,6.399-1.67,7.852
			c0.056,1.447,0.112,2.729-0.22,2.838c-0.336,0.112-2.843,1.559-3.788,2.173c-0.949,0.608-1.894,1-2.617,1.114l-0.056-1.897
			c0,0-0.835,0.332-1.391,0.224c-0.556-0.112-0.835-0.835-0.779-2.509c0.054-1.667,0.334-2.446,0.611-3.226
			c0.278-0.779,0-3.284-0.112-4.343c-0.11-1.059,0.891-3.896,1.726-4.732c0.837-0.838,1.448-1.785,0.949-5.182
			c-0.503-3.393-2.23-11.633-3.344-14.862c-1.113-3.229-4.176-13.53-5.067-16.203c-0.888-2.676-2.336-8.684-1.67-14.645
			c0.669-5.958,0.893-3.732,1.282-5.064c0.39-1.341,2.837-5.797,3.395-8.408c0.557-2.62,1.226-4.232,0.725-8.295
			c-0.5-4.068-0.947-5.623-0.613-6.741C211.66,99.03,212.103,98.53,211.937,95.637z"/>
		<path d="M177.898,50.46c-1.207,0.378-2.686-0.691-2.63,1.713c0.058,2.4-0.342,15.49-0.457,17.091
			c-0.115,1.601-2.916,8.806-3.431,9.66c-0.511,0.858-2.627,5.889,0.687,7.148c3.314,1.256,9.088,3.827,11.033,4.86
			c1.945,1.029,3.602,1.772,4.115,2.285c0.516,0.516,0.113,0.516,1.429,0.401c1.317-0.115,4.345-0.115,8.577-1.545
			c4.23-1.43,8.231-2.805,8.975-3.314c0.745-0.513,1.429-0.461,0.857-1.486c-0.57-1.029-3.314-6.573-3.715-10.463
			c-0.399-3.886-1.258-8.976-1.828-10.975c-0.572-1.999-2.287-12.343-2.918-14.75c-0.626-2.4-1.484-9.374-1.484-9.374
			s-2.915,0.404-7.717,1.657C184.586,44.627,179.726,49.884,177.898,50.46z"/>
		<path d="M177.556,68.695c-0.204-0.108-0.419-0.506-0.628-1.052c0.766-1.046,0.939-2.223,0.11-3.752c0,0,2.116,1.486,1.09,3.771
			c0,0,1.884-1.887,0.285-4.514c0,0,0.912,0.227,1.258,1.141c0,0-0.401-2.167-1.486-2.683c-1.087-0.516-2.117-3.488-1.887-5.771
			c0.228-2.292,1.029-12.81,0.284-16.581c-0.743-3.771-1.657-20.293-1.657-20.293c-2.114,0.342-7.314,1.085-8.802,9.147
			c-1.488,8.059,0.401,6.004-1.488,8.059c-1.886,2.062-2.17,4.515-2.116,5.83c0,0,0.289-2.173,0.858-2.46
			c0,0-0.284,1.832-0.171,2.746c0.115,0.914-0.283,3.544-1.315,4.228c-1.027,0.687-1.656,4.061-1.373,6.007
			c0,0,0.229-2.976,1.488-4.403c0.896-1.02,1.182-1.601,1.273-1.855c-0.12,0.414-0.498,1.568-1.1,2.311
			c-0.745,0.917-1.202,3.896-0.86,4.745c0,0-1.542,1.94-1.371,3.597c0.049,0.48,0.105,0.927,0.135,1.338
			c-0.396,0.46-0.87,0.835-1.392,1.006c-1.199,0.401-1.143,2.634-1.143,2.634c0.344-0.914,1.259-1.26,1.259-1.26
			c-0.459,1.884-1.774,2.289-1.774,2.289c-3.543,1.141-2.744,3.831-2.744,3.831c0.972-3.317,3.086-2.347,3.086-2.347
			c-1.544,0.227-1.544,0.575-2.001,1.775c-0.457,1.197,0.514,1.71-1.371,2.801c-1.884,1.085-1.486-0.917-1.486-0.917
			c-1.144,2.571,1.885,2.292,1.885,2.292c-1.144,0.911-1.885,0.053-1.885,0.053c0.056,0.687,0.399,1.144,1.659,0.799
			c1.258-0.342,2.001,0.059,2.001,0.059c-3.145,0.625-2.745,3.715-2.745,3.715c0.858-3.028,4.116-2.114,4.116-2.114
			c-0.801,1.43-2.173,0.513-2.173,0.513c-0.058,1.259,2.287,0.917,2.287,0.917c-1.601,1.368-2.515,0.056-2.515,0.056
			c-0.171,1.144,2.458,1.772,3.318,0.684c0.857-1.082,2.629-0.115,2.629-0.115c-2.629,0.115-2.515,2.805-2.515,2.805
			c0.914-2.745,3.258-1.486,3.258-1.486c-2.173,0.112-1.772,2.913-1.772,2.913c-0.058-1.312,1.828-1.604,1.828-1.604
			c-1.769,0.98-0.056,3.436,0.858,3.663c0.916,0.23,0.229,1.256,0.229,1.256c1.715-0.286,0.518-2.055,0.518-2.055
			c1.542-0.23,1.255,1.657,1.255,1.657c1.142-1.029-0.401-2.518-0.401-2.518s2.231,0.575,1.947,2.344
			c-0.288,1.775-1.603,0.917-1.603,0.917c0.686,2.114,2.287,0.174,2.287,0.174c-0.515,2.512-2.8,0.911-2.8,0.911
			c1.028,2.404,3.829,0,3.829,0c0.115,0.572-1.085,1.946-3.488,1.371c-2.399-0.572-2.114,1.657-2.114,1.657s0.745-2.114,2.344-0.168
			c1.601,1.943,2.861,0.457,2.861,0.457c-0.917,2.739-3.262,0.687-3.262,0.687c1.374,3.028,3.947,1.252,4.574,0.569
			c0.63-0.687,1.888,0.168,1.888,0.168c-1.659-0.168-2.057,1.374-2.057,1.374c0.286-0.746,2.627-0.115,2.627-0.115
			c2.402,1.318,2.233-0.631,2.233-0.631c0.855,1.887-1.832,1.887-1.832,1.887c2.971,0.858,3.03-1.654,3.03-1.654
			c0.457,3.314-3.258,2.916-3.258,2.916c3.773,1.2,4.858-2.519,4.23-3.433c-0.63-0.914-0.058-2.456-0.058-2.456
			c0.858-0.457,1.314-2.46,0.113-3.66c-1.198-1.2-1.371-3.031-1.371-3.031c0.343,1.374,1.6,1.66,1.6,1.66
			c-1.315-0.513-1.486-4.574,0.804-5.257c2.283-0.687,2.168-3.374,2.168-3.374c0.572,1.943-0.797,3.485-0.797,3.485
			C181.842,73.614,178.413,69.149,177.556,68.695z"/>
		<path d="M207.829,54.602c-0.022,0.053-0.033,0.086-0.033,0.086C207.807,54.668,207.818,54.639,207.829,54.602z M208.996,68.695
			c-0.801-1.43-2.344-1.033-2.802-2.46c0,0,1.143,1.259,2.686,1.029c0,0-1.258-0.401-1.315-1.315
			c-0.056-0.917-0.113-2.92-1.427-3.601c0,0,1.598,0.401,1.825,1.828c0,0,0.29-1.999-2.114-3.314
			c-2.315-1.269-1.917-2.795-1.784-4.607c-0.025,0.661,0.061,2.815,2.129,3.633c0,0-1.259-1.131-0.858-3.429
			c0.399-2.298-0.342-2.742-0.342-2.742s1.373,0.398,1.085,3.716c0,0,1.029-1.204,0.172-4.521c-0.858-3.311-1.317-2.114-1.258-4.34
			c0,0,0.056,1.769,1.657,2.456c1.494,0.644,1.345,3.028,1.177,3.574c0.189-0.483,1.065-2.903,0.194-4.031
			c-0.972-1.256-1.828-2.226-1.884-2.857c0,0,0.801,1.312,2.114,1.312c0,0-1.144-0.398-1.144-2.055s-1.486-3.314-2.573-3.66
			c-1.085-0.342-0.97-1.828-1.028-2.801c0,0,0.285,2.574,2.341,2.63c0,0-1.313-0.457-1.313-1.943c0-1.486-0.342-2.805-1.6-3.318
			c0,0,1.772,0.171,2.343,1.318c0,0,0.343-0.97-2.4-2.861c0,0-1.258-1.141-1.258-2.173c0-0.562-0.554-0.993-1.215-1.243
			c-0.033-0.079-0.066-0.161-0.099-0.24c-3.888-8.973-7.375,0.059-7.375,0.059c2.228,3.199,3.201,14.171,3.487,17.206
			c0.285,3.028-0.343,8.46-0.687,10.344c-0.089,0.483-0.094,1.259-0.006,2.167c-0.197,0.441-0.335,0.895-0.335,1.378
			c0,1.483,0.115,6.172-3.086,7.204c0,0,2.573-0.003,3.771-3.206c0,0-1.087,5.491-3.487,7.145c0,0,2.686-1.2,4.002-4.685
			c0,0,0.344,1.661-0.398,2.229c-0.746,0.572-3.317,3.087-2.117,5.09c0,0-0.57-2.058,1.772-3.206c0,0-2.573,2.749-0.401,4.409
			c0,0-0.914-1.604,0.572-2.63c0,0-0.97,1.479,0.23,2.854c1.2,1.374-0.401,3.032-0.743,3.43c-0.343,0.401-1.716,2.916,2.399,3.259
			c0,0-2.686-0.799-0.626-2.913c1.634-1.68,1.465-2.568,1.325-2.861c0.213,0.381,0.759,1.67-0.586,3.199
			c0,0,1.718-0.684,1.889-2.397c0,0-0.058,2.745,2.571,2.233c0,0-2.17-0.404-1.256-2.634c0,0,0.171,2.173,2.229,1.486
			c0,0-1.144-0.286-0.572-1.427c0.572-1.147,2.229-1.657,1.601-2.864c0,0,1.256,0.687-0.401,2.344c0,0,1.83-0.112,2.001-2.798
			c0.172-2.69-1.429-1.716-0.857-3.886c0,0,0.171,2.742,2.573,2.229c0,0-2.06-0.516-1.544-2.002
			c0.513-1.483,1.258-2.854,0.513-4.455c0,0,1.488,1.144,0.745,3.259c0,0,1.43-0.802,0.513-2.745c0,0,1.2,0.97,0.917,1.943
			C208.94,71.437,209.795,70.125,208.996,68.695z"/>
		<path d="M178.47,19.99c-5.483,1.401-13.264,3.314-9.833,14.405c0,0,0.741,1.716,0.741,3.998c0,2.289,0.286,2.407,0.399,2.749
			c0.115,0.342,0.23,1.141,0.115,2.397c-0.115,1.263,0.058,3.775,1.202,5.889c1.143,2.114,0.743,3.775,3.145,6.004
			c2.4,2.229,5.887,6.234,8.575,6.116c2.686-0.115,5.771-2.571,8.059-4.797c2.287-2.233,4.858-4.406,4.858-8.355
			c0,0-0.286-2.568,0.344-2.515c0.628,0.063,2.629,0.865,2.859-0.97c0.229-1.825,0.686-2.795,0.972-3.028
			c0.286-0.23,1.256-2.282,1.142-4.514c-0.113-2.233-0.401-3.028-1.943-3.087c-1.544-0.056-2.228,0.46-2.631,0.342
			c-0.399-0.115-2.744-4.284-4.115-9.144C190.988,20.614,187.616,17.645,178.47,19.99z"/>
		<path d="M177.211,14.844c0,0-2.515-0.345-5.887,1.716c-3.373,2.055-4.745,8.858-4.745,10.344c0,1.49,0.743,3.771,1.314,3.715
			c0,0,1.144-1.256,1.603-1.94c0,0,0.342,0.339,2.228-0.631c1.889-0.973,3.775-1.256,4.115-1.256c0.345,0,0.401,0.569,2.116,0.171
			c1.716-0.398,4.746-1.831,6.632-1.368c1.887,0.454,2.001-0.865,2.001-0.865s-0.113,1.545-1.259,1.775c0,0,1.202,0.168,1.429-0.631
			c0,0-0.914,3.087,0.345,4.235c1.258,1.138,2.001,0.684,2.001,0.684s-1.486-0.401-1.315-1.147c0,0,0.459,0.404,1.258,0.631
			c0.801,0.23,1.429,1.256,1.715,2.226c0.286,0.973,1.256,1.608,1.601,1.66c0.342,0.059,1.202,1.946,1.542,2.404
			c0.345,0.454,1.373,2.515,1.315,3.485c-0.058,0.973,0,2.571,0.401,2.858c0,0-0.113-1.259,0.229-1.884
			c0.345-0.631,0.513-1.542,0.113-2.055c0,0,0.802,0.565,1.943,0.74c0,0-1.258-0.74-1.369-1.089c0,0,1.772,0.684,2.629-0.858
			c0,0-1.031,0.516-1.315,0.286c-0.286-0.227-0.342-1.029-0.801-1.082c0,0,1.26,0.628,2.688,0.053
			c1.427-0.569,2.629,3.031,3.028,4.176c0.399,1.141-0.457-2.4-0.914-3.374c-0.459-0.97-1.202-1.884-2.801-1.657
			c0,0-0.115-3.426,2.517-0.858c2.629,2.571,2.514,2.801,3.886,2.456c0,0-1.144,0.174-2.06-1.483
			c-0.914-1.66-1.484-5.034-1.371-6.056c0.115-1.029-0.113-2.463-0.63-3.035c0,0,0.687-0.802,0.63-1.828
			c0,0,0.286,1.026,0.115,1.657c0,0,1.2-3.084-0.171-4.574c-1.374-1.483-3.143-0.855-3.143-0.855s0.058-2.742-0.973-3.607
			c-1.027-0.852-2.343-1.71-2.287-2.394c0,0-0.115,0.97,0.171,1.315c0,0-1.142-1.315-1.884-1.374
			c-0.746-0.059-1.716-0.572-1.716-1.197c0,0-0.345,0.74,0.342,1.197c0.687,0.454-0.171,0-0.171,0s-1.087-0.457-3.601-0.914
			c-2.515-0.461-4.116-1.029-5.603-0.687c0,0,0.399-0.858-0.572-0.914c-0.97-0.056-0.97-0.056-0.97-0.056s1.083-1.204-0.059-1.204
			c-1.141,0-2.344,0.112-2.746,0.572c-0.398,0.457-1.484,0.457-1.828,0c0,0,0.286,0.914,1.087,0.858
			C178.011,13.187,175.381,14.443,177.211,14.844z"/>
	</g>
</g>
</svg>
