<?xml version="1.0" encoding="utf-8"?>
<!-- Generator: Adobe Illustrator 17.0.0, SVG Export Plug-In . SVG Version: 6.00 Build 0)  -->
<!DOCTYPE svg PUBLIC "-//W3C//DTD SVG 1.1//EN" "http://www.w3.org/Graphics/SVG/1.1/DTD/svg11.dtd">
<svg version="1.1" id="Layer_1" xmlns="http://www.w3.org/2000/svg" xmlns:xlink="http://www.w3.org/1999/xlink" x="0px" y="0px"
	 width="355px" height="402px" viewBox="0 0 355 402" enable-background="new 0 0 355 402" xml:space="preserve">
<g>
	<path fill="#0F0F0E" d="M149.17,351.976c-3.997,0.911-10.073,1.889-11.71,0.692c-1.637-1.196-3.652-8.373-3.652-8.373l-0.002,0.04
		v0.008l-0.224,3.125l-0.056,0.76c0,0-2.173,0.536-1.858-0.66c0.315-1.196,0.944-11.017,0.599-12.654
		c-0.347-1.637-3.747-8.091-3.18-11.68c0.567-3.588,2.392-6.107,4.88-6.296c2.486-0.189,13.536,19.516,13.536,19.516
		c1.29,2.896,2.8,4.596,3.463,5.162c0.66,0.566,2.14,2.74,2.14,5.351C153.106,349.584,153.169,351.062,149.17,351.976z"/>
	<path fill="#0F0F0E" d="M195.853,343.54c-1.732,0.66-7.492,1.73-10.073,1.511c-2.581-0.222-3.18-1.952-3.117-3.274
		c0.048-1.017-0.481-3.435-0.829-4.709c-0.103-0.38-0.191-0.66-0.242-0.768c-0.174-0.375-0.07,2.105-0.023,3.145
		c0.012,0.269,0.023,0.443,0.023,0.443s-1.856,0.504-1.73-0.474c0.126-0.974,0.786-10.828-0.252-12.495
		c-1.04-1.67-2.047-5.729-3.148-7.807c-1.103-2.078,0.786-9.917,4.847-10.01c4.06-0.096,9.852,16.809,9.852,16.809
		c0.536,1.952,2.518,4.5,3.117,5.792c0.597,1.289,2.078,3.777,2.455,5.444C197.112,338.818,197.583,342.878,195.853,343.54z"/>
	<path fill="#ED9366" d="M191.665,316.626c-0.024,1.732-0.189,8.877,0.567,10.765c0.756,1.889,2.518,5.635,1.196,6.201
		c-1.322,0.567-5.698,0.944-7.712,1.133c-2.015,0.189-3.745-1.7-3.777-4.281c-0.031-2.581-1.007-8.216-1.448-9.758
		c-0.441-1.542-1.479-9.286-0.378-12.088c1.102-2.802,1.7-16.904,0-25.906c-1.7-9.003-2.33-17.376-1.259-22.664
		c1.07-5.288,1.322-9.066,0.944-9.884c-0.378-0.818-6.232-1.511-8.121,1.196c-1.889,2.707-8.184,16.872-10.892,22.475
		c-2.707,5.603-8.876,19.202-10.451,23.609c-1.574,4.407-3.903,7.743-4.344,17.313c-0.441,9.569-0.776,11.311,0.441,16.264
		c1.217,4.953,3.945,8.94,2.896,9.443c-1.049,0.504-6.589,1.511-9.066,1.679c-2.476,0.168-3.316-0.756-5.54-8.982
		c-2.224-8.226-3.273-13.346-2.476-15.655c0.797-2.308,3.231-7.807,4.826-21.237c1.595-13.43,3.358-25.015,7.471-33.744
		c4.113-8.73,7.219-13.347,9.15-19.139c1.93-5.792,41.467-7.554,43.398-5.456c1.931,2.098,3.358,3.106,2.015,8.31
		c-1.343,5.204-1.595,9.401-1.931,19.558c-0.335,10.157-3.189,27.113-4.113,33.409C192.137,305.483,191.714,313.163,191.665,316.626
		z"/>
	<path fill="#169133" d="M133.806,344.336v0.008l-0.224,3.125c-0.368,0.189-1.098,0.463-1.378-0.121
		c0.146-2.412,0.693-10.176,0.693-10.176s0.838,4.49,0.902,6.945C133.801,344.19,133.804,344.265,133.806,344.336z"/>
	<path fill="#169133" d="M181.834,337.068c-0.103-0.38-0.191-0.66-0.242-0.768c-0.174-0.375-0.07,2.105-0.023,3.145
		c-0.3,0.076-0.68,0.113-0.806-0.134c-0.222-0.43-0.126-4.669-0.126-4.963c0-0.295-0.169-4.47-0.169-4.47s1.269,4.344,1.282,5.245
		C181.756,335.497,181.791,336.28,181.834,337.068z"/>
	<path fill="#492E1B" d="M171.929,77.488c-1.197,1.07-3.179,3.365-3.935,6.766c-0.756,3.401-0.346,7.714-1.259,8.595
		c-0.913,0.881,5.446,1.857,7.145,0.85c1.7-1.007,7.327-1.409,7.63-6.732c0.303-5.324-4.073-13.193-4.891-13.288
		C175.8,73.584,171.929,77.488,171.929,77.488z"/>
	<path fill="#0F0F0E" d="M203.721,249.074c0,0-10.577,1.595-13.514,2.266s-14.773,0.923-18.215,0.923
		c-3.441,0-19.432-1.82-20.88-2.756c-1.448-0.937,3.756-17.137,4.008-22.342c0.252-5.205,1.007-19.726,0.924-25.686
		c-0.084-5.96-0.504-16.788,2.098-21.489c2.602-4.701,32.402-26.945,33.744-28.288c1.343-1.343,7.807,3.417,9.569,10.229
		c1.763,6.812,9.653,14.282,9.653,21.585c0,7.303-4.617,25.266-5.288,31.562c-0.671,6.296-1.259,21.741-1.511,25.686
		C204.057,244.709,203.721,249.074,203.721,249.074z"/>
	<path fill="#1F2934" d="M212.871,178.773c0,0-1.889,3.484-5.54,1.427c-3.651-2.057-9.149-15.907-10.241-18.089
		c-1.091-2.182-3.861-8.1-3.861-8.1s0.798,11.71-0.504,14.858c-1.301,3.148-5.792,11.75-10.535,11.982
		c-4.743,0.232-9.779-1.825-13.724-1.153c-3.945,0.672-6.253,1.679-8.478,1.679c-2.225,0-6.506,1.343-6.506,1.343
		s0.755-14.606,1.952-18.509c1.196-3.903,4.533-13.473,1.699-18.761c-2.833-5.288-4.092-17.439-5.855-21.72
		c-1.763-4.281-2.581-7.429-2.204-15.991c0.378-8.562,2.644-14.732,6.233-15.11c3.588-0.378,9.905-0.882,10.703-1.238
		c0.797-0.356,3.609-4.05,4.931-4.617c1.322-0.567,15.655,6.138,17.166,8.625c1.511,2.487,5.729,5.288,7.996,6.359
		c2.266,1.07,6.327,3.525,6.752,6.233c0.425,2.707,1.338,6.815,1.369,7.744c0.032,0.928,0.158,9.38,0.221,10.356
		c0.063,0.976,0.63,7.492,0.63,7.492s9.412,12.654,11.678,12.528c2.266-0.126,11.584,3.777,11.112,7.271
		c-0.473,3.494-2.896,6.957-4.564,7.618c-1.668,0.661-8.436,0.504-10.482,0.189c-2.046-0.315-7.209,0.157-7.209,0.157
		s3.872,10.104,4.628,12.088C210.993,175.416,212.871,178.773,212.871,178.773z"/>
	<path fill="#FFFFFF" d="M196.135,124.894c-0.881,3.115-2.738,4.059-2.738,4.059s0.881-4.281-0.882-7.333
		c-0.793-1.375-2.08-4.107-3.374-6.792c-1.584-3.276-3.186-6.474-3.929-7.029c-0.385-0.287-1.241-1.496-2.311-3.125
		c-1.45-2.216-3.299-5.213-4.898-7.746c-1.353-2.138-2.531-3.948-3.148-4.679c-1.889-2.234-3.682-4.785-3.682-4.785
		s-0.693-2.707,1.448-3.178c2.14-0.474,13.188,4.218,15.077,5.981c1.889,1.763,2.959,3.274,3.4,5.696
		c0.433,2.387,2.057,5.81,2.108,5.915l-1.425-1.204l-1.397-1.178l-0.008-0.008c0,0,0.116,0.202,0.318,0.562
		c0.07,0.123,0.136,0.242,0.199,0.358c0.033,0.06,0.066,0.118,0.098,0.176c0.033,0.058,0.068,0.118,0.101,0.181
		c0.003,0.008,0.008,0.015,0.015,0.025c0.486,0.886,1.174,2.161,1.924,3.624c1.821,3.561,4.009,8.24,4.553,11.161
		C198.56,120.802,197.016,121.776,196.135,124.894z"/>
	<path fill="#C7D5DB" d="M193.03,104.416c-0.71,0.448-1.785,0.972-2.969,1.307c-1.73,0.491-4.387,0.262-7.159-1.047
		c-1.45-2.216-3.299-5.213-4.898-7.746c2.796,2.304,6.905,4.888,7.209,5.142c0.378,0.315,1.415-4.155,1.667-5.037
		c0.252-0.881,1.952,0.756,2.896,1.418c0.403,0.282,1.211,1.219,2.004,2.223l-1.405-1.186
		C190.376,99.49,191.59,101.603,193.03,104.416z"/>
	<path fill="#C6320C" d="M196.135,124.894c-0.881,3.115-2.738,4.059-2.738,4.059s0.881-4.281-0.882-7.333
		c-0.793-1.375-2.08-4.107-3.374-6.792c0.053-2.276-0.121-4.452-0.529-5.832c-0.599-2.015-0.662-4.155-1.7-5.004
		c-0.441-0.36-1.921-2.11-1.322-3.651c0.597-1.544,0.755-3.181,1.101-3.588c0.347-0.411,1.229-0.285,1.889,0.189
		c0.479,0.34,1.191,1.483,1.803,2.556c0.108,0.189,0.212,0.375,0.31,0.554c0.07,0.123,0.136,0.242,0.199,0.358
		c0.033,0.06,0.066,0.118,0.098,0.176c0.01,0.02,0.02,0.043,0.033,0.063c0.02,0.038,0.043,0.078,0.068,0.118
		c0.003,0.008,0.008,0.015,0.015,0.025c0.486,0.886,1.174,2.161,1.924,3.624c1.821,3.561,4.009,8.24,4.553,11.161
		C198.56,120.802,197.016,121.776,196.135,124.894z"/>
	<path fill="#FFFFFF" d="M228.463,151.828c0,0,0.09,0.779-0.462,2.078c-0.552,1.299-5.54,4.26-6.359,4.134
		c-0.818-0.126-2.644-1.595-2.728-2.35c-0.084-0.755-0.042-1.238,0.084-1.238c0.126,0,1.154,0.671,2.182,1.196
		c1.028,0.525,1.868,0.65,2.602,0.126c0.734-0.525,1.763-1.028,2.035-1.091c0.273-0.063,0.735-0.923,1.238-1.511
		C227.561,152.584,228.274,151.828,228.463,151.828z"/>
	<path fill="#FFFFFF" d="M201.864,140.727c-0.189-0.252-0.409-4.816,0.283-7.429c0.692-2.613,1.416-4.407,2.077-4.753
		c0.661-0.346,1.732,0.126,1.826,0c0.094-0.126-1.228,5.194-0.724,6.862c0.504,1.668,0.976,2.99,0.976,2.99L201.864,140.727z"/>
	<path fill="#C6320C" d="M217.163,121.321l-3.085-4.218c0,0,0.126-0.692,0.661-0.677c0.535,0.016,4.281,5.571,4.281,5.571
		l5.304,7.413l1.479,3.022h-0.504c0,0-1.967-2.251-2.125-2.282C223.018,130.119,217.163,121.321,217.163,121.321z"/>
	<path fill="#ED9366" d="M205.631,128.954c0.881-0.483,4.197-3.022,5.037-4.113c0.839-1.091,2.624-4.218,4.806-4.176
		c2.182,0.042,5.184,0.923,5.792,0.923c0.608,0,2.707-0.063,3.19,1.028c0.483,1.091,1.049,3.505,1.049,4.176
		s-0.293,2.203-0.713,2.707c-0.42,0.504-0.818,1.07-0.903,1.448c-0.084,0.378,0.126,0.651-1.175,1.385
		c-1.301,0.735-1.427-0.21-2.644,0.567c-1.217,0.776-3.61,0.168-5.435,1.322c-1.826,1.154-3.283,1.956-5.099,2.371
		c-1.816,0.416-4.176,1.658-4.89,0.671c-0.714-0.986-0.534-6.289-0.21-6.82C204.759,129.914,205.631,128.954,205.631,128.954z"/>
	<path fill="#969696" d="M182.82,150.107c0,0,23.21-9.737,29.044-12.885c5.834-3.148,8.613-6.537,12.89-5.409
		c4.276,1.128,11.454,1.033,15.021,0.619c3.567-0.414,6.338,1.432,6.338,1.432s-9.066,5.372-11.416,6.673
		c-2.35,1.301-9.251,6.925-11.026,7.681c-1.775,0.756-7.189,1.217-8.994,1.889c-1.805,0.672-11.752,2.77-12.801,3.064
		C200.825,153.465,182.778,152.038,182.82,150.107z"/>
	<path fill="#516272" d="M201.675,129.541c0,0-1.395-1.427-4.291,0.21c-2.896,1.637-4.155,1.708-6.715,1.84
		c-2.56,0.132-4.952,1.055-6.799,1.181c-1.847,0.126-4.197-0.923-6.883,0.252c-2.686,1.175-6.463,1.427-7.471,0.252
		c-1.007-1.175-3.735-8.772-5.036-11.5c-1.301-2.728,0.084-4.952-0.588-6.128c-0.671-1.175-6.001-12.717-6.17-13.431
		c-0.168-0.713,3.525-7.261,1.553-7.135c-1.972,0.126-8.562,1.175-8.184,4.911c0.378,3.735,0.546,7.135,2.476,11.542
		c1.93,4.407,2.56,10.031,5.456,13.724c2.896,3.694,1.889,5.283,1.805,6.943c-0.084,1.661,1.469-2.222,1.72,1.839
		c0.252,4.061,1.973-0.808,4.953,2.046c2.98,2.854,2.602,4.113,4.155,4.449c1.553,0.336,6.421-4.407,8.478-4.785
		c2.056-0.378,7.345-0.965,8.562,0.756c1.217,1.72,5.96-0.769,7.471-1.938C197.678,133.403,201.727,131.388,201.675,129.541z"/>
	<path fill="#ED9366" d="M212.43,149.268c0,0,4.848,2.896,5.519,3.756c0.672,0.86,1.952,2.204,2.707,2.602
		c0.756,0.399,2.057,0.986,2.728,0.735c0.672-0.252,1.826-1.175,2.266-1.322c0.441-0.147,1.259-0.441,1.469-0.881
		c0.21-0.441,0.724-1.238,1.348-1.721c0.624-0.483,0.435-1.7,0.351-2.266c-0.084-0.567,0.063-1.322,0.609-1.889
		c0.546-0.567,1.049-1.154,0.462-2.078c-0.588-0.923-0.797-2.665-1.679-3.232c-0.881-0.566-2.392-1.364-3.127-0.378
		c-0.734,0.986,0.126,1.679,0.504,2.182c0.378,0.504-0.063,1.49-0.126,1.784c-0.063,0.294-1.07,1.364-2.308,0.756
		c-1.238-0.609-3.694-1.448-4.449-1.49c-0.755-0.042-2.625-0.553-3.526-0.539c-0.901,0.014-1.615,0.581-1.09,1.315
		c0.524,0.734-0.546,0.462-1.448,0.336c-0.903-0.126-1.658,0.483-1.7,1.07C210.898,148.596,212.009,149.013,212.43,149.268z"/>
	<path fill="#ED9366" d="M197.741,70.278c-0.473,1.607-0.599,2.173-0.788,3.558c-0.189,1.385,0.063,3.903-0.975,6.17
		c-1.04,2.266-3.18,4.878-4.188,7.051c-1.007,2.171-3.085,4.218-3.556,4.407c-0.473,0.189-1.05,0.702-1.05,0.702
		s-0.398,2.538-0.441,3.168c-0.043,0.63-3.127-1.531-5.583-2.873c-2.455-1.345-3.065-1.718-4.787-3.191
		c-1.72-1.473-3.213-3.009-3.186-4.009c0.026-1-0.357-3.986-0.567-4.636c-0.211-0.652-0.441-1.848-0.441-1.848
		s-1.302-0.418-2.12-1.783c-0.819-1.365-1.554-2.015-0.965-3.506c0.587-1.488-0.315-4.742,0.315-4.742
		c0.406,0,0.736-0.192,0.914-0.328c0.101-0.076,0.156-0.133,0.156-0.133s-0.473-7.577,4.878-12.015
		c5.351-4.44,12.088-5.099,19.579,2.14c2.055,2.41,2.903,4.817,3.173,6.862C198.419,67.584,197.991,69.427,197.741,70.278z"/>
	<path fill="#492E1B" d="M198.112,65.275c-0.32-0.756-0.854-1.44-1.693-1.984c-3.211-2.078-2.803-1.478-5.099-2.266
		c-2.299-0.786-3.51,1.984-6.839,1.355c-3.329-0.63-4.714,3.777-5.533,5.507c-0.818,1.733-2.36,0.474-4.249,2.581
		c-1.889,2.11-1.291,4.062-1.889,2.11c-0.546-1.778-1.065-3.792-2.485-4.158c0.101-0.076,0.156-0.133,0.156-0.133
		s-0.473-7.577,4.878-12.015c5.351-4.44,12.088-5.099,19.579,2.14C196.994,60.822,197.842,63.23,198.112,65.275z"/>
	<path fill="#516272" d="M167.383,106.969c-1.554-1.819-5.078-8.268-5.12-9.863c-0.042-1.595,0.966-4.239,2.56-4.701
		c1.595-0.461,3.21-1.637,4.061-2.35c0.85-0.714,3.704,0.588,5.551,3.777c1.847,3.19,9.14,14.48,10.047,16.62
		c0.907,2.14,0.866,5.918,1.411,9.737c0.545,3.819-0.882,6.17-3.862,6.464c-2.98,0.294-9.737-7.597-10.577-9.611
		C170.615,115.027,169.356,109.277,167.383,106.969z"/>
	<path fill="#516272" d="M193.615,101.37c3.006,1.562,7.223,3.123,8.06,5.641c0.837,2.518,2.012,5.456,0.963,8.52
		c-1.049,3.064-0.672,9.863-1.637,9.947c-0.965,0.084-2.65-4.113-2.668-6.128c-0.018-2.015,0.737-5.75-0.983-8.814
		c-1.721-3.064-3.147-6.296-3.19-7.261C194.119,102.31,192.709,100.9,193.615,101.37z"/>
	<path fill="#516272" d="M163.145,152.171c1.973-0.299,7.219-0.435,10.661-0.343c3.441,0.091,12.339-0.58,13.766,6.639
		c1.427,7.219,5.372,14.606-4.197,17.712c-9.569,3.106-16.872-11.668-17.964-2.602c-1.091,9.066-7.387,4.4-8.226,3.039
		c-0.84-1.36-0.252-11.35,0.588-14.959C158.612,158.047,157.605,153.011,163.145,152.171z"/>
	<path fill="#262626" d="M173.574,247.739c-8.621,2.966-17.565,3.148-19.076-1.007c-1.511-4.155,4.092-20.335,3.84-31.289
		c-0.252-10.954-2.329-27.134,0.252-29.589s7.743-4.533,11.647-4.155c3.903,0.378,8.94,2.392,12.276,1.574
		c3.337-0.818,8.499-5.918,10.514-7.24c2.015-1.322,6.925-0.441,8.814,3.463c1.889,3.903-0.944,14.606-5.729,23.105
		c-4.785,8.499-15.172,6.233-20.88,22.853C169.524,242.073,179.429,245.724,173.574,247.739z"/>
	<path fill="#262626" d="M185.63,338.269c-1.653-1.277-0.661-3.242,1.165-3.337c1.826-0.094,5.886-0.567,6.547-0.818
		c0.661-0.252,2.078,0.22,2.109,1.542c0.031,1.322,1.196,2.676-0.661,3.148C192.933,339.276,188.117,340.189,185.63,338.269z"/>
	<path fill="#262626" d="M137.06,341.889c3.24,1.171,7.334,0.974,8.719,0.251c1.385-0.723,3.714-1.479,4.187-1.007
		c0.472,0.472,2.676,3.022,0.881,4.785c-1.794,1.763-6.012,1.165-7.995,0.22C140.869,345.194,134.447,340.945,137.06,341.889z"/>
	<path fill="#F3B294" d="M143.992,309.103c-1.296,5.817-1,15.631,0,19.849c1,4.218,6.12,10.63,3.141,11.647
		c-2.979,1.017-9.884,1.007-10.262-4.974s0.441-10.702-0.881-14.543c-1.322-3.84-0.818-10.954,1.007-15.928
		c1.826-4.973,3.274-16.683,5.414-28.267c2.14-11.584,4.596-13.724,7.366-18.698c2.77-4.974,5.603-5.162,7.114-5.351
		s7.429-1.574,6.988,4.092c-0.441,5.666-10.514,19.579-13.473,25.119C147.447,287.59,145.132,303.985,143.992,309.103z"/>
	<path fill="#F3B294" d="M191.013,333.359c-2.399-0.05-7.051,3.589-7.869-2.141c-0.818-5.729,0.592-10.113-1.31-14.28
		c-1.901-4.166-1.121-8.447,0-13.736c1.121-5.288,0.743-11.521,0.051-16.62c-0.692-5.099-3.589-19.831-2.455-24.49
		c1.133-4.659,4.525-6.107,5.662-7.681c1.138-1.574,9.007-3.339,9.7-1.858c0.692,1.481,1.826,15.898,0.818,21.249
		c-1.007,5.351-2.833,21.909-3.4,25.812c-0.567,3.903-1.963,8.94-1.895,13.85c0.069,4.911-0.447,8.814,0,12.214
		C190.761,329.078,194.035,333.422,191.013,333.359z"/>
	<path fill="#F3B294" d="M193.185,83.077c-1.636,2.548-4.344,6.61-5.792,6.957c-1.448,0.346-6.925-1.542-9.129-4.974
		c-2.203-3.431-3.494-9.853-2.581-12.623c0.913-2.77,4.242-2.713,4.753-5.572c0.511-2.859-0.252-3.305,2.802-3.525
		c3.053-0.22,5.509-1.605,6.39-1.826c0.881-0.22,8.121,1.007,8.121,4.155c0,3.148-1.165,6.129-1.165,8.526
		C196.585,76.593,195.105,80.087,193.185,83.077z"/>
	<path fill="#F3B294" d="M206.92,128.668c1.102-1.516,4.197-2.602,5.288-3.777c1.091-1.175,3.417-3.945,5.414-3.777
		c1.997,0.168,6.547,1.217,6.631,1.805c0.084,0.588,0.084,1.553-1.175,1.511c-1.259-0.042-5.96-1.985-3.61-0.252
		c2.35,1.733,4.93,0.21,4.816,1.049c-0.115,0.839-0.787,1.317-3.347,1.435c-2.56,0.118-2.183,1.167-0.126,1.251
		c2.056,0.084,2.854,1.049,1.511,1.637c-1.343,0.588-5.792,0.462-4.155,1.007c1.637,0.546,3.315,0.392,1.385,1.036
		c-1.931,0.643-4.491,0.685-6.925,2.112c-2.434,1.427-6.553,0.646-7.264-1.272C204.654,130.514,206.042,129.877,206.92,128.668z"/>
	<path fill="#F3B294" d="M226.174,144.365c-0.409-1.07-0.346-2.833,0.724-1.763c1.07,1.07,2.55,2.361,2.644,3.652
		c0.094,1.29-2.235,1.478-2.329,3.021s0.724,2.267-0.63,3.117c-1.354,0.85-1.983,2.235-2.676,2.864
		c-0.692,0.63-2.802-0.189-4.249-0.881c-1.448-0.692-5.351-4.879-6.044-5.257c-0.692-0.378-0.375-0.756,1.213-0.409
		c1.588,0.346,4.138,3.242,5.46,3.84c1.322,0.598,0-2.99-1.794-4.249c-1.794-1.259-5.603-2.455-3.4-2.392
		c2.204,0.063,6.831,1.605,7.901,2.235c1.07,0.63,3.274,1.07,3.4-0.567C226.52,145.939,226.174,144.365,226.174,144.365z"/>
</g>
</svg>
