<?xml version="1.0" encoding="utf-8"?>
<!-- Generator: Adobe Illustrator 17.0.0, SVG Export Plug-In . SVG Version: 6.00 Build 0)  -->
<!DOCTYPE svg PUBLIC "-//W3C//DTD SVG 1.1//EN" "http://www.w3.org/Graphics/SVG/1.1/DTD/svg11.dtd">
<svg version="1.1" id="Layer_1" xmlns="http://www.w3.org/2000/svg" xmlns:xlink="http://www.w3.org/1999/xlink" x="0px" y="0px"
	 width="800px" height="600px" viewBox="0 0 800 600" enable-background="new 0 0 800 600" xml:space="preserve">
<g>
	<path fill="#050002" d="M629.772,123.664c-0.749-0.249-1.176-0.821-2.097-0.899C627.516,123.744,629.361,124.246,629.772,123.664z"
		/>
	<path fill="#050002" d="M447.317,127.56c-0.277-0.723-0.777-1.222-1.499-1.501C444.655,127.052,446.741,127.315,447.317,127.56z"/>
	<path fill="#050002" d="M450.614,132.353c-0.355-0.954-1.397-2.784-2.399-2.096C449.31,130.655,449.611,131.857,450.614,132.353z"
		/>
	<path fill="#050002" d="M639.06,134.449c-0.241-0.773-1.036-2.541-1.797-1.798C637.996,133.118,638.233,134.081,639.06,134.449z"/>
	<path fill="#050002" d="M642.055,139.244c0.006,0.705-0.516,0.883-0.299,1.796C642.492,141.217,643.209,139.067,642.055,139.244z"
		/>
	<path fill="#050002" d="M419.154,170.402l0.11-0.243c0.06,0.028,0.106,0.072,0.169,0.092c0.815,0.253,1.672,0.369,2.549,0.369
		c4.699,0,10.018-3.366,13.374-7.288c3.934-4.602,5.16-9.641,3.276-13.484c-0.883-1.806-2.509-3.083-4.701-3.693
		c-3.786-1.058-9.061-0.026-13.177,2.569l-0.102-0.193c-4.376,4.093-9.046,11.401-5.991,18.575
		C415.625,166.397,416.428,170.893,419.154,170.402z M420.954,155.721c-0.054-0.349-0.476-0.325-0.899-0.301
		c1.881-1.411,2.629-2.114,2.694-4.193l-0.104-0.094c3.34-2.011,7.583-2.864,10.469-2.057c1.353,0.377,2.294,1.088,2.794,2.107
		c1.331,2.722,0.265,6.524-2.86,10.178c-3.621,4.231-8.689,6.728-12.129,6.09l0.034-0.044
		C416.821,165.422,418.254,158.19,420.954,155.721z"/>
	<path fill="#050002" d="M390.093,176.993c-0.138-0.877,0.424-3.998-0.6-2.995C390.206,174.53,388.781,176.55,390.093,176.993z"/>
	<path fill="#050002" d="M408.668,194.371c0.014-0.414-0.141-0.658-0.299-0.901c0.233-0.068,0.59-0.006,0.598-0.299
		c-0.62,0.177-1.967-0.369-2.095,0.299C407.949,193.292,407.753,194.387,408.668,194.371z"/>
	<path fill="#050002" d="M406.571,229.124c-0.57-0.562-0.751-0.034-1.499,0c0,0.199,0,0.399,0,0.596
		c0.301,0,0.357,0.245,0.598,0.301C405.206,228.959,406.691,229.842,406.571,229.124z"/>
	<path fill="#050002" d="M409.268,230.021c0-0.399,0-0.797,0-1.198c-0.449,0.052-1.106-0.108-1.198,0.301
		C408.469,229.421,408.66,229.933,409.268,230.021z"/>
	<path fill="#050002" d="M339.462,245.001c-0.293,1.088,1.672,0.642,1.497,0C340.389,244.441,340.205,244.969,339.462,245.001z"/>
	<path fill="#050002" d="M439.226,250.394c0.867,0.434,0.468,2.128,1.8,2.096c0.41-2.403,1.983-4.849,3.896-6.59
		C441.44,245.818,440.408,248.18,439.226,250.394z"/>
	<path fill="#050002" d="M423.646,254.89c-1.264-1.234-2.123,0.387-3.591,0.6c0.363,0.034,0.705,0.088,0.598,0.598
		c-0.572,0.562-0.542-0.177-1.499,0c-0.309,2.113-2.34,3.683-1.499,5.991C419.961,259.495,421.576,257.122,423.646,254.89z"/>
	<path fill="#050002" d="M425.745,270.169c-0.636-2.724,1.746-3.448,2.997-5.094C426.014,263.808,421.522,268.997,425.745,270.169z"
		/>
	<path fill="#050002" d="M304.709,271.068c0.4,1.313-0.199,1.78,0.598,2.694C305.631,272.875,306.546,270.934,304.709,271.068z"/>
	<path fill="#050002" d="M397.883,284.848c1.078-2.718,2.62-4.968,4.793-6.592C399.808,277.678,394.848,282.329,397.883,284.848z"/>
	<path fill="#050002" d="M413.461,284.547c0.658-2.537,1.676-4.715,3.296-6.291C413.726,277.158,410.24,283.059,413.461,284.547z"/>
	<path fill="#050002" d="M425.745,294.436c0.956,2.041,2.908,3.083,4.195,4.793C430.84,297.525,427.837,294.077,425.745,294.436z"/>
	<path fill="#050002" d="M660.33,298.93c0.701-0.02,3.208,0.243,2.096-0.6C662.225,299.059,660.426,297.571,660.33,298.93z"/>
	<path fill="#050002" d="M277.743,300.428c0.979,0.076,0.867-0.933,1.499-1.2c-0.913,0.116-1.525-0.787-1.798,0.301
		C278.441,299.322,277.926,300.15,277.743,300.428z"/>
	<path fill="#050002" d="M278.042,301.327c1.176,0.444,0.058,0.464-0.299,0.897c1.094,0.006,1.347,0.853,2.096,1.2
		C279.768,302.334,279.738,300.305,278.042,301.327z"/>
	<path fill="#050002" d="M390.692,307.318c0.787-0.09,0.235,1.162,1.2,0.899c1.024-1.971,2.134-3.854,3.593-5.393
		C392.825,302.102,390.832,304.528,390.692,307.318z"/>
	<path fill="#050002" d="M437.431,304.323c-0.823-0.417-1.909-1.692-2.997-0.899c0.438,1.758,2.306,2.088,3.296,3.296
		C437.941,305.608,437.217,305.435,437.431,304.323z"/>
	<path fill="#050002" d="M422.151,304.024c-0.153,2.639,3.173,4.149,4.793,5.991C426.221,307.14,425.057,304.709,422.151,304.024z"
		/>
	<path fill="#050002" d="M444.621,313.611c0.303-0.395,0.293-1.108,0.598-1.499c-1.301-0.693-2.252-1.742-4.193-1.797
		C441.387,312.25,443.854,312.081,444.621,313.611z"/>
	<path fill="#050002" d="M381.704,318.402c0.708,0.092,0.556,1.042,1.497,0.899c0.931-2.364,2.509-4.083,3.597-6.29
		C383.335,313.041,382.976,316.178,381.704,318.402z"/>
	<path fill="#050002" d="M429.94,316.007c0.606,1.993,3.005,2.186,4.494,3.294C433.967,317.326,432.194,315.213,429.94,316.007z"/>
	<path fill="#050002" d="M449.713,318.105c-0.339,0.361-0.855,0.54-0.6,1.497c1.672,0.225,3.224,0.572,4.496,1.198
		C453.802,318.41,450.889,319.124,449.713,318.105z"/>
	<path fill="#050002" d="M371.218,328.291c0.054-2.346,2.868-3.519,2.399-5.393C371.393,323.416,367.723,327.342,371.218,328.291z"
		/>
	<path fill="#050002" d="M457.503,324.994c2.156,0.287,5.018,1.313,6.289,1.499c-0.263-2.83-4.635-1.554-6.588-2.696
		C457.18,324.317,457.27,324.728,457.503,324.994z"/>
	<path fill="#050002" d="M440.725,326.493c0.943,2.354,3.541,3.051,5.393,4.492C445.954,327.856,443.391,327.121,440.725,326.493z"
		/>
	<path fill="#050002" d="M356.238,335.481c2.922,0.719,3.501-3.212,5.395-4.496C358.653,330.212,357.336,333.404,356.238,335.481z"
		/>
	<path fill="#050002" d="M308.302,331.886c-0.871,0.327-2.116,0.281-2.694,0.899C306.813,332.795,307.917,332.697,308.302,331.886z"
		/>
	<path fill="#050002" d="M479.074,336.681c-0.104-2.631-4.099-2.844-6.291-2.397c-0.116,0.424-0.359,0.504,0,0.899
		C475.578,334.983,477.095,336.063,479.074,336.681z"/>
	<path fill="#050002" d="M352.344,336.38c-2.238-0.771-4.962,1.684-4.193,3.894C350.385,339.813,350.554,337.287,352.344,336.38z"/>
	<path fill="#050002" d="M453.31,337.278c2.341,0.253,4.382,0.809,5.99,1.798C459.546,336.485,454.506,334.662,453.31,337.278z"/>
	<path fill="#050002" d="M490.758,342.372c-1.546,0.008-4.008-1.24-4.494,0.299c1.116,0.783,3.354,0.442,4.494,1.198
		C491.32,343.299,490.58,343.327,490.758,342.372z"/>
	<path fill="#050002" d="M464.693,342.972c1.937,1.257,4.556,1.833,6.59,2.995C470.837,343.602,466.423,341.147,464.693,342.972z"/>
	<path fill="#050002" d="M260.668,346.565c-0.016-0.412,0.14-0.658,0.299-0.899c-0.183-0.171-1.423-0.702-1.499,0
		C260.078,345.756,260.054,346.478,260.668,346.565z"/>
	<path fill="#050002" d="M334.968,347.763c-3.037,0.161-4.883,1.511-5.694,3.896C331.654,351.93,333.384,349.256,334.968,347.763z"
		/>
	<path fill="#050002" d="M487.464,354.654c-0.365-2.192-6.833-5.092-6.59-1.497C483.657,351.679,485.473,355.34,487.464,354.654z"/>
	<path fill="#050002" d="M299.316,356.454c3.527-0.07,5.307-1.885,7.788-2.997C304.509,352.496,300.896,353.939,299.316,356.454z"/>
	<path fill="#050002" d="M320.586,354.953c1.477,1.489,3.398-1.26,4.496-2.095C322.923,352.897,321.546,353.72,320.586,354.953z"/>
	<path fill="#050002" d="M304.109,363.343c2.774-0.62,4.241-2.549,6.59-3.595C307.716,360.033,303.834,360.77,304.109,363.343z"/>
	<path fill="#050002" d="M542.588,364.242c-0.022-0.52,0.068-0.933,0.301-1.198c-2.055-0.307-6.937-0.982-8.089,0.598
		C536.791,364.312,540.063,363.501,542.588,364.242z"/>
	<path fill="#050002" d="M506.336,365.441c3.145,0.052,5.181,1.212,7.491,2.097C513.682,364.872,508.048,362.719,506.336,365.441z"
		/>
	<path fill="#050002" d="M301.41,364.842c-3.161,0.032-5.889,0.5-6.889,2.696C296.237,368.229,299.545,365.934,301.41,364.842z"/>
	<path fill="#050002" d="M458.402,366.639c-0.343,0.877-0.177,1.112,0.6,1.497c0.004-0.596,0.817-0.381,0.6-1.196
		C459.195,366.844,459.027,366.512,458.402,366.639z"/>
	<path fill="#050002" d="M527.61,373.829c-0.124-3.41-6.606-5.47-6.291-1.798C523.608,370.902,525.326,372.725,527.61,373.829z"/>
	<path fill="#050002" d="M550.679,384.314c-0.124-3.826,2.844-5.941,1.795-8.388c-0.807,0.761-1.164,0.235-2.096,0.6
		c-0.175,2.698-1.853,4.892-1.798,6.889C550.005,382.474,548.975,384.758,550.679,384.314z"/>
	<path fill="#050002" d="M615.092,394.802c0.034,0.763,0.55,1.046,0.897,1.497c0.211-0.923,0.211-0.574,0-1.497
		C615.692,394.802,615.391,394.802,615.092,394.802z"/>
	<path fill="#050002" d="M163.598,398.396c-0.277-0.921-1.202-1.196-1.799-1.796C161.902,397.696,162.825,397.969,163.598,398.396z"
		/>
	<path fill="#050002" d="M669.619,402.59c-0.022-0.52,0.068-0.931,0.299-1.198c-0.412,0.012-0.657-0.141-0.899-0.299
		C668.543,401.544,669.029,402.355,669.619,402.59z"/>
	<path fill="#050002" d="M654.039,402.291c-1.05-0.311-5.136-0.369-5.092,0.899C650.493,402.096,652.891,403.712,654.039,402.291z"
		/>
	<path fill="#050002" d="M666.323,412.477c0.183-0.018,0.355-0.044,0.301-0.299c-1.582,0.43-1.935-1.248-2.696,0
		c1.166-0.07,1.55,0.642,2.395,0.899C666.323,412.879,666.323,412.678,666.323,412.477z"/>
	<path fill="#050002" d="M455.404,422.366c-0.496,0-0.999,0-1.497,0C453.449,423.284,455.865,423.284,455.404,422.366z"/>
	<path fill="#050002" d="M191.161,434.05c-0.981,0.13-4.081-0.303-3.595,0.299C188.806,433.958,191.249,435.048,191.161,434.05z"/>
	<path fill="#050002" d="M201.947,442.438C208.898,442.77,198.967,441.15,201.947,442.438L201.947,442.438z"/>
	<path fill="#050002" d="M534.501,453.823c0.915-0.881,3.326-0.269,4.193-1.198c-2.188,0.442-3.322-0.345-4.494,0.598
		C534.433,453.289,534.549,453.474,534.501,453.823z"/>
	<path fill="#050002" d="M692.987,453.823c0.11-0.911-0.976-0.622-1.497-0.899C691.11,454.1,692.196,453.815,692.987,453.823z"/>
	<path fill="#050002" d="M660.93,453.823c-0.044-1.491-2.477,0.072-2.694-0.6C658.367,454.803,660.3,452.737,660.93,453.823z"/>
	<path fill="#050002" d="M698.081,474.196c0.552-0.984,0.7-1.265,0.899-2.997c-0.301,0-0.6,0-0.899,0
		C697.999,472.271,697.461,473.098,698.081,474.196z"/>
	<path fill="#050002" d="M200.147,476.292c0.217,0.243,2.073,0.803,1.799-0.299C201.676,475.27,200.255,475.864,200.147,476.292z"/>
	<path fill="#050002" d="M475.479,499.36C479.618,500.418,476.999,498.584,475.479,499.36L475.479,499.36z"/>
	<path fill="#050002" d="M583.035,506.851c0.301-0.911,0.494-0.381,0.899,0c0-0.399,0-0.799,0-1.2
		C583.009,505.262,582.234,506.504,583.035,506.851z"/>
	<path fill="#050002" d="M640.258,496.364c0,0-0.018-0.106-0.004-0.108c6.445-1.202,12.906-3.031,19.161-4.801
		c1.307-0.371,2.611-0.737,3.912-1.082c2.872,0.409,5.526-1.487,8.049-2.381c0.09-0.006,0.179-0.01,0.271-0.03
		c0.365-0.086,0.741-0.156,1.118-0.229c1.453-0.271,3.101-0.576,4.5-1.678c0.064-0.05,0.096-0.12,0.151-0.177
		c0,0,0.399-0.141,0.401-0.141c3.637-1.285,7.334-2.591,10.558-4.753c1.692-1.134,3.284-2.473,4.5-4.121
		c0.981-1.325,3.037-3.218,3.547-4.695c1.004-2.918-0.745-4.729,1.925-7.284c0.022-0.018,1.714-5.492,1.602-6.102
		c-0.799-4.333,0.251-9.231-1.02-13.858c-1.453-5.285-0.223-9.317-0.99-14.57c-1.001-6.861-2.206-13.699-2.764-20.616
		c-0.239-2.964-0.622-5.891-0.931-8.846c-0.63-6.008-0.695-12.059-1.258-18.073c-0.365-3.904-0.546-6.995-0.899-10.185
		c-2.322-20.999-4.301-42.097-7.914-62.925c-1.395-8.039-3.468-15.927-5.536-23.813c-1.931-7.358-2.617-14.958-4.518-22.316
		c-3.503-13.555-8.517-26.73-12.408-40.174c-1.104-3.814-2.467-7.559-4.366-11.056c-1.413-2.595-4.245-4.466-5.347-7.218
		c-1.505-3.759,0.327-7.252,1.202-10.887c0.765-3.18,0.55-6.24-0.265-9.39c-1.307-5.054-3.926-9.683-5.006-14.801
		c-0.518-2.451-0.875-4.901-0.088-7.32c0.753-2.314,2.513-4.157,3.091-6.556c1.18-4.9-0.255-10.237-1.69-14.939
		c-1.345-4.404-3.836-8.234-7.025-11.531c-6.879-7.114-16.051-12.389-24.899-16.656c-4.388-2.116-8.922-3.922-13.502-5.576
		c-7.405-2.674-14.984-4.876-22.625-6.778c-28.113-6.993-56.633-5.078-84.764,0.837c-9.191,1.933-18.306,4.265-27.274,7.057
		c-7.417,2.31-16.18,4.263-22.069,9.62l-0.068-0.237c0.662,2.324-10.827,2.011-12.085,2.059
		c-16.351,0.63-31.621,8.119-38.847,23.408l0.141,0.062c-1.004,1.523-2.037,3.031-3.071,4.534
		c-2.379,3.46-4.309,10.801-8.934,11.953c0.333,2.732-2.585,5.395-3.994,7.521c-5.508,8.31-10.811,16.76-16.531,24.929
		c-3.161,4.512-5.676,10.492-10.437,13.601c-0.436,0.285-0.713,2.806-0.321,3.312c-1.503,0.321-2.264,0.761-2.096,1.796
		c-5.825,0.374-12.274,2.698-13.183,8.988l0.125,0.014c-0.677,1.515-0.707,3.075-0.7,4.472c0.006,0.861,0.008,1.682-0.141,2.431
		c-0.953,0.096-1.403,0.7-1.68,1.473l0.253,0.197c-2.499,2.076-4.436,4.647-6.298,7.14c-1.365,1.829-2.78,3.711-4.378,5.331
		l-0.064-0.086c-0.703-0.436-0.67-0.745-1.198,0c-4.504-4.755-12.234-1.152-13.484,4.195l0.343,0.155
		c-1.913,3.025-1.905,6.293-1.881,9.456c0.014,1.893-0.002,3.685-0.417,5.313c-2.29,1.748-4.277,4.004-6.198,6.192
		c-1.411,1.61-2.874,3.27-4.428,4.649c-1.758,0.241-1.919,2.077-3.298,2.694l-0.082,0.092c-2.336-2.095-5.55-2.384-8.82-0.789
		c-4.739,2.312-8.35,7.704-8.163,12.115l-0.311-0.032c-1.116,0.652,0.367,0.7-0.299,1.798c-3.254,3.087-6.192,8.609-12.284,8.089
		l0.014,0.157c-1.624-0.652-3.408-0.656-5.13,0.084c-2.401,1.032-4.394,3.296-5.231,5.861l-0.138-0.11
		c-0.52-0.52-22.645,14.952-25.14,15.973c-5.148,2.103-10.191,5.16-15.419,6.957c-6.072,2.089-12.615,2.401-18.864,3.755
		c-10.59,2.294-21.214,4.462-31.938,6.034c-11.206,1.642-22.619,2.041-33.703,4.454c-9.618,2.095-18.717,5.833-27.189,10.825
		c-4.817,2.838-10.183,6.784-12.228,12.222l0.235,0.103c-4.647,6.361-6.164,14.097-7.154,20.975
		c-2.075,5.881-0.717,15.979,0.927,22.364c0,0,0.209-0.02,0.207-0.008c2.045,19.695,15.505,35.453,25.568,45.656l-0.309,0.189
		c2.266,3.354,7.113,5.634,10.783,6.59l0.04-0.088c1.873,1.602,4.032,2.722,5.991,3.635l-0.038,0.048
		c4.98,2.758,10.162,5.317,15.805,7.411c-1.825,0.359-3.956,0.512-6.194,0.658c-2.069,0.131-4.207,0.269-6.263,0.59
		c-1.764,0.275-3.458,0.409-5.1,0.536c-1.493,0.12-2.908,0.235-4.301,0.444l0.06-0.65c-1.142,0.267-1.911-0.488-2.395,0
		l-0.072,0.789c-1.6-0.911-3.446-0.739-5.237-0.552c-1.102,0.111-2.238,0.219-3.256,0.054c-0.1-0.038-0.203-0.056-0.309-0.048
		c-0.699,0.03-1.397,0.078-2.094,0.125c-2.053,0.138-3.99,0.269-5.935,0.03c-0.431-0.046-0.845,0.257-0.899,0.698
		c-0.054,0.444,0.259,0.847,0.702,0.901c0.851,0.105,1.708,0.146,2.557,0.146c1.242,0,2.473-0.082,3.683-0.165
		c0.528-0.036,1.06-0.068,1.588-0.098c-0.05,0.271-0.11,0.542-0.171,0.821c-0.014,0.058-0.02,0.122-0.032,0.179
		c-0.305,0.008-0.594,0.082-0.837,0.249c-3.282,0.201-6.564,0.438-9.847,0.683c-6.991,0.518-14.221,1.056-21.352,1.144
		c-0.737,0.01-1.325,0.614-1.317,1.351c0.01,0.729,0.604,1.315,1.351,1.315c7.212-0.088,14.486-0.628,21.517-1.152
		c3.292-0.247,6.587-0.486,9.881-0.688c0.106,0.05,0.203,0.114,0.323,0.14c0.456,0.098,0.903,0.131,1.335,0.131
		c0.548,0,1.072-0.056,1.561-0.11l0.556-0.052c0.205-0.018,0.395-0.08,0.566-0.167c0.933,0.325,1.949,0.243,2.882,0.159
		c0.747-0.068,1.429-0.128,2.005,0.004c-0.911,0.427-1.971,0.612-3.081,0.805c-1.293,0.227-2.611,0.47-3.778,1.108
		c-0.363-0.167-0.781-0.215-1.196-0.084c-1.076,0.345-2.276,0.44-3.543,0.542c-0.454,0.038-0.907,0.076-1.355,0.123
		c-0.11,0.012-0.201,0.064-0.303,0.096c-0.554,0.134-1.16,0.183-1.805,0.231c-0.387,0.028-0.771,0.062-1.156,0.106l-0.006-0.13
		c-2.601,0.58-5.516,0.275-8.089,1.2l0.016,0.187c-2.318-0.217-4.584,0.062-6.776,0.347c-2.407,0.309-4.683,0.606-6.939,0.249
		c-0.811-0.122-1.566,0.422-1.694,1.23c-0.13,0.809,0.422,1.568,1.23,1.696c0.903,0.143,1.792,0.199,2.675,0.199
		c1.74,0,3.444-0.219,5.11-0.432c1.891-0.247,3.695-0.462,5.472-0.377c-0.725,4.5,7.766,2.774,9.297,2.892l-0.008-0.082
		c0.112,0.008,0.227,0.028,0.335,0.028c0.566,0,1.08-0.098,1.521-0.181c0.433-0.084,0.805-0.151,1.086-0.118
		c0.283,0.038,0.544-0.018,0.791-0.114c0.305-0.02,0.612-0.042,0.919-0.06c2.015-0.13,4.095-0.275,6.148-0.743l-0.006,0.072
		c1.483,0.556,2.234,0.084,2.696-0.299c1.393-0.307,2.692,0.652,2.995-0.299c5.227,2.629,14.03,0.156,21.272-0.301
		c3.553-0.223,6.979-0.032,10.486-0.899l-0.207-0.299c1.652-0.048,3.338-0.036,5.122-0.006c1.06,0.016,2.132,0.032,3.201,0.032
		c3.818,0,7.627-0.235,11.1-1.393l-0.044,0.466c1.698,0,3.767,0.369,3.898-1.198c1.03,1.118,2.852,0.833,4.03,0.626
		c1.501,0.941,3.139,1.237,4.604,1.473c0.749,0.118,1.459,0.229,2.096,0.42c0.064,0.02,0.13,0.018,0.195,0.03
		c6.345,2.381,10.672,1.339,16.338,3.145c0.586-0.128-0.49-0.855,0.901-0.6c4.743,0.349,9.085,1.098,14.38,0.899l-0.016-0.183
		c0.169,0.006,0.337,0.012,0.506,0.012c0.943,0,1.861-0.084,2.758-0.163c0.929-0.084,1.808-0.146,2.669-0.131
		c1.2,0.783,4.251,0.606,6.116,0.319c0.034,0.002,0.064,0.02,0.116,0.02c2.603-0.024,5.199-0.209,7.712-0.389
		c2.292-0.163,4.659-0.331,6.983-0.375c0.036,0,0.068-0.02,0.104-0.022c10.672-0.47,19.165-1.546,28.177-3.882l-0.034-0.07
		c38.361-7.34,78.232-2.844,116.794,1.508c0,0,5.496,0.62,5.476,0.66c0.05,0.349,0.472,0.325,0.901,0.301
		c0,1.096-0.118,2.314,1.198,2.097c0.903,0.801-1.142-1.164-0.301-1.2c17.94,0.558,32.958,4.526,49.435,5.694l-0.012-0.129
		c24.494,5.49,50.81,10.933,77.438,13.675c0.052,0.004,0.102,0.006,0.153,0.006c0.263,0,0.5-0.09,0.718-0.213
		c0.574,0.141,1.166,0.235,1.77,0.235c0.612,0,1.226-0.082,1.823-0.227c4.209,0.486,8.514,0.502,12.677,0.508l1.349,0.004
		c0.211,0.209,0.476,0.367,0.793,0.403c2.188,0.253,4.396,0.255,6.531,0.259c1.827,0,3.717,0.002,5.538,0.167l-0.026,0.293
		c23.183,0.04,46.256-1.371,67.111-3.296l-0.227-0.227c1.044,0.221,2.103,0.149,3.131,0.06c1.1-0.098,2.14-0.187,3.139,0.086
		c0.032,0.01,0.066,0.014,0.1,0.014c0.165,0,0.319-0.114,0.367-0.281c0.056-0.203-0.064-0.412-0.267-0.468
		c-1.122-0.305-2.284-0.205-3.404-0.11c-0.885,0.078-1.736,0.146-2.539,0.028C626.013,499.011,633.582,497.711,640.258,496.364z
		 M672.15,484.441c-0.429,0.08-0.851,0.159-1.264,0.255c-0.014,0.004-0.024,0.014-0.038,0.018l-0.098,0.012
		c0.725-1.07,2.017-1.8,3.308-2.487c0.143-0.076,0.275-0.151,0.414-0.225c0.052,0.01,0.106,0.016,0.158,0.02
		c0.187,0.452,0.355,0.923,0.512,1.417C674.387,484.017,673.303,484.226,672.15,484.441z M676.837,482.96l-0.359,0.128
		c-0.056-0.008-0.108-0.004-0.163-0.008c-0.166-0.524-0.355-1.052-0.576-1.576c0.086-0.122,0.154-0.257,0.193-0.409l0.113-0.447
		c0.03-0.106,0.022-0.211,0.024-0.317c1.042-0.815,2.085-1.644,3.137-2.499c4.336-3.517,8.814-7.122,13.796-9.051l-0.016,0.022
		c0,0.199,0,0.399,0,0.598c-1.351-0.775-1.802,2.469-3.294,1.497c-0.504,2.714-4.382,1.73-3.595,4.797
		c2.754-0.668,4.237-1.983,5.692-3.298c0.06,0.006,0.108,0.024,0.157,0.04C689.621,478.425,682.851,480.842,676.837,482.96z
		 M689.693,398.396c-0.496-0.225-0.496-2.467,0-2.696C689.515,397.092,690.101,397.509,689.693,398.396z M689.693,395.402
		c-1.387-0.028,0.363-1.79-0.901-1.499c0.339-1.507-0.108-2.415,0.301-2.997C689.938,391.415,689.392,393.21,689.693,395.402z
		 M647.217,174.974c0.269,1.377,0.572,2.758,0.875,4.143c1.238,5.642,2.495,11.471,1.335,17.206l-0.181-0.155
		c-1.024,2.126-2.509,4.358-4.486,6.28c-2.156,0.253-4.336,0.118-6.634-0.048c-0.974-0.07-1.987-0.126-2.995-0.165l0.036-0.074
		c-8.523-1.511-17.999-2.186-25.467-3.894c-4.432,1.218-8.785,0.688-14.081,0.897l0.016,0.195c-0.977-0.012-1.957,0-2.938,0.02
		c-2.557,0.044-4.97,0.074-7.324-0.389l0.06-0.128c-1.708-1.451-5.11,0.173-7.491,0l0.032,0.321l-4.135-0.04
		c-18.217-0.171-37.049-0.357-54.774-5.783l0.155-0.189c-1.427-0.576-4.169-2.437-5.428-1.913
		c-4.793-1.581-9.624-4.867-14.717-10.038l0.074-0.032c-5.024-8.26-13.201-13.364-17.677-22.171
		c2.264-0.291,2.798-0.476,5.393-0.299c1.142,0.046,0.779-1.417,1.797-1.498c8.456-0.893,22.063-4.093,26.065-2.098
		c0.618-0.082,0.072-1.327,0.899-1.198c7.848-0.1,19.723-3.328,28.163-1.198c0.482-1.038,1.831-0.827,2.696-0.899
		c2.393-0.207,5.197-0.195,7.79-0.299c8.065-0.329,15.793,0.542,24.267,0.299c1.325-0.429,0.783,1.014,1.797,0.899
		c5.632-0.161,12.286-0.203,17.376,0.598c8.133,1.281,18.876,3.43,25.467,5.395c3.693,1.1,7.372,1.989,10.484,3.296
		c1.55,0.648,2.985,1.744,4.496,1.796c2.89,3.703,6.832,6.349,8.388,11.385L647.217,174.974z M457.75,115.812
		c1.714-0.592,3.468-1.224,5.136-1.997l0.01,0.263c2.132-0.267,3.647-1.148,5.094-2.098l-0.038-0.417
		c0.082-0.008,0.163,0.002,0.245-0.022c31.868-9.404,73.439-18.855,112.365-8.4c11.347,2.82,24.779,6.634,38.354,13.561
		c11.361,5.797,32.007,20.909,29.082,36.698l-0.251-0.078c-0.993,3.569-2.623,6.365-2.997,9.289
		c-3.589-2.224-7.334-4.294-11.682-6.293c-7.659-3.518-17.079-4.596-26.662-6.589c-6.19-0.803-12.972-1.012-18.279-2.698
		c-17.109-1.066-37.882-3.422-58.122-1.497c-5.548,0.526-11.999,2.07-16.776,0.899c0.123,0.377,0.385,0.612,0.897,0.598
		c-13.183,2.001-25.092,2.529-35.951,7.491c-5.61-9.628-13.926-17.39-20.971-26.365c-0.871-0.06-0.779-0.464-2.098-0.598
		l-0.068,0.118c-0.923-0.989-2.059-1.624-3.085-2.17c-0.867-0.464-1.672-0.913-2.274-1.516l0.034-0.026
		c-0.301-0.596-0.518-1.282-1.198-1.497c-0.032-0.933,0.943-0.857,0.598-2.1l-0.251-0.11
		C451.231,118.078,454.398,116.968,457.75,115.812z M395.575,149.695c4.757-6.848,10.319-13.199,16.535-18.587
		c3.131-2.714,6.646-5.484,10.592-6.891c4.169-1.487,8.486-0.444,12.766-1.112c3.436-0.536,6.614,0.432,9.592,2.17
		c7.555,4.41,11.981,10.823,18.308,16.686c1.847,1.712,3.743,3.396,5.263,5.417c1.389,1.847,1.889,5.754,3.252,7.146
		c0.642,0.656,0.933,1.664,1.797,2.096c0.006,0.708-0.516,0.883-0.297,1.798c0.123,0.674,1.588,0.008,1.796,0.6
		c0.777,0.787-0.484,0.237-0.299,1.198c3.157,2.495,7.543,6.214,10.484,10.484c0.939,1.365,1.517,3.938,2.397,5.692
		c2.011,4.008,0.67,6.537,1.152,10.658c0.512,4.394-2.328,9.083-4.56,12.664c-3.191,5.12-7.075,9.805-11.461,13.946
		c-4.789,4.522-10.552,6.62-16.662,8.761c-4.813,1.688-9.815,2.794-14.908,3.123c-10.285,0.666-20.606-1.762-29.305-7.34
		c-4.821-3.093-9.608-7.049-13.474-11.286c-6.622-7.258-10.427-17.521-11.007-29.68
		C387.009,166.182,389.303,158.718,395.575,149.695z M346.052,214.142c0.695,1.696,1.618,0.721,3.296,0.6
		c0.267,0.63,0.464,1.331,0.897,1.799l0.484,0.044c-0.012,0.143-0.004,0.293,0.04,0.44c2.027,6.82,6.473,13.687,12.202,18.858
		l-0.442,0.429c1.172,2.324,2.655,4.336,5.393,5.094l0.142-0.181c0.082,0.064,0.149,0.141,0.247,0.189
		c2.629,1.279,3.81,2.969,3.513,5.018c-0.004,0.024,0.006,0.046,0.004,0.07l-0.01-0.002c-0.572,1.825-0.849,3.944-1.796,5.393
		l0.08,0.062c-0.395,0.44-0.775,0.903-1.158,1.377c-1.224,1.515-2.284,2.826-3.868,3.155c-0.179,0.038-0.333,0.12-0.482,0.205
		c-7.617,1.889-10.867-4.592-14.947-8.095l-0.259,0.343c-5.146-5.711-8.577-12.148-9.948-18.651l0.321,0.034
		c0.04-1.217,0.488-1.698,0.016-2.361c0.283-1.164,0.291-2.318,0.285-3.36c-0.006-1.124,0.006-2.114,0.321-2.985
		C342.057,220.495,344.54,215.401,346.052,214.142z M353.543,259.083c2.312,0.155,8.318,3.436,12.487,0.57
		c2.567-0.644,4.123-2.543,5.492-4.237c0.253-0.313,0.51-0.614,0.767-0.917c2.346-0.945,3.286-4.695,2.523-7.698
		c0.43-3.173-1.19-5.891-4.55-7.746l0.056-0.044c-1.684-1.391-2.975-3.172-4.757-4.464c0.783-0.849,1.77-1.387,2.955-1.588
		c2.766-0.478,6.146,0.941,8.053,2.579c4.051,3.48,5.668,12.942,3.464,20.241c-1.584,5.237-6.11,9.612-11.537,11.144
		c-4.462,1.26-8.737,0.375-12.075-2.469l0.415-0.277C355.68,262.538,354.777,260.645,353.543,259.083z M321.484,242.606
		c1.447,5.165,1.702,9.932,4.793,14.382l0.122-0.012c0.018,0.185,0.058,0.371,0.145,0.546l0.929,1.883
		c1.102,2.24,2.246,4.552,3.47,6.792l-0.171,0.076c1.499,6.194,9.157,9.96,9.289,17.677l0.492,0.153
		c-1.662,2.098-3.788,3.237-6.351,3.32c-4.323,0.151-8.753-2.569-11.568-5.534c0.042-0.522-0.17-1.052-0.636-1.369
		c-0.321-0.217-0.695-0.283-1.054-0.231c-2.949-3.199-4.894-7.284-6.768-11.26c-1.07-2.272-2.182-4.597-3.476-6.774
		c0.201-0.395,0.233-0.847,0.094-1.272c0.524-1.999,0.544-4.071,0.528-6.09c-0.02-2.908-0.034-5.658,1.483-8.019l0.293,0.225
		C314.589,244.298,317.259,242.674,321.484,242.606z M336.389,301.774c-4.755,0.333-10.453-2.959-13.522-7.908
		c-2.154-3.472-2.549-7.051-1.156-10.032c3.079,2.993,7.645,5.608,12.178,5.608c0.123,0,0.251-0.002,0.376-0.006
		c2.862-0.092,5.371-1.265,7.326-3.404c4.771-1.498,1.776-10.06-1.232-11.369c1.469-0.723,0.261-0.761-0.427-1.578
		c5.474,1.626,8.228,6.822,8.948,11.419c0.871,5.558-0.747,12.436-6.164,15.722l0.038-0.397
		C340.574,300.646,337.746,300.793,336.389,301.774z M286.324,275.129c1.606-0.779,3.88-1.331,5.879,0.138
		c0.151,0.771-0.128,1.281,0.819,1.794l0.297-0.074c-1.859,10.411,2.637,22.073,10.634,27.665c0.008,0.016,0.006,0.034,0.014,0.05
		c1.313,2.583,1.383,5.596,0.183,7.868c-0.68,1.284-2.073,2.876-4.835,3.292v-0.153c-3.82-0.873-5.267-4.121-8.089-5.992
		l-0.141,0.181c-3.27-3.599-5.801-7.655-8.041-11.555l0.094-0.012c-1.014-2.224-1.861-7.238-2.397-11.084
		c-0.163-1.152-0.618-3.589-1.2-2.698l-0.07,0.042C279.616,281.197,282.648,276.921,286.324,275.129z M293.323,317.204
		c1.784,0.881,4.735,2.523,6.889,1.198l-0.016-0.022c2.784-0.552,5.004-2.152,6.289-4.578c1.409-2.672,1.515-6.074,0.345-9.133
		c0.321-0.042,0.614-0.002,0.871,0.125l0.186,0.094l0.207,0.022c3.565,0.359,6.114,2.087,7.374,4.998
		c1.61,3.741,0.779,9.054-1.977,12.633c-2.599,3.372-5.961,4.093-8.352,4.093c-0.028,0-0.056,0-0.082-0.002
		c-4.243-0.032-8.573-2.266-11.381-5.857c-0.06-0.546-0.181-1.07-0.299-1.582c-0.139-0.602-0.259-1.178-0.271-1.71
		C293.249,317.459,293.369,317.416,293.323,317.204z M260.218,297.772c1.168-0.5,2.282-0.472,3.322,0.038l-0.177,0.223
		c-0.367,1.363,1.052,0.945,1.2,1.796l0.175-0.016c-0.189,6.266,0.161,15.313,4.727,23.113c0,0.016-0.006,0.028-0.004,0.044
		c0.257,2.164,1.732,3.743,2.92,5.008l-0.03,0.014c0.151,1.947,1.75,2.443,2.098,4.193l0.058-0.028
		c0.616,3.593-1.066,7.936-4.685,9.319c-5.875,0.546-9.382-3.418-11.851-7.192c-0.183-1.489,1.108-1.688,0.299-2.997l-0.381-0.016
		c0.002-0.034,0.016-0.066,0.014-0.102c-0.199-3.34-0.841-6.746-1.459-10.038c-0.809-4.297-1.614-8.733-1.507-13.151l0.335,0.237
		c0.626-1.572,0.972-3.422,1.2-5.393l-0.243-0.134c0.054-0.102,0.11-0.201,0.14-0.317
		C256.862,300.427,258.444,298.535,260.218,297.772z M256.77,342.372c2.459,1.919,0.562-0.636,0-2.098
		c2.475,2.093,7.864,6.824,13.783,4.494l-0.066-0.138c5.624-1.809,8.025-8.013,7.144-13.055l0.112,0.01
		c-0.223-2.698-1.03-4.821-2.961-5.815l-0.004-0.004c-0.737-0.785-1.485-1.594-1.853-2.435c4.304-1.076,8.29,4.199,9.677,6.303
		c0.221,1.526,0.574,2.838,0.889,4.004c0.526,1.965,0.945,3.519,0.572,5.301c-1.367,6.529-11.361,10.716-19.048,9.954
		c-2.957-0.293-7.808-1.551-8.344-6.587L256.77,342.372z M247.659,309.795c1.433-1.646,2.997-2.519,4.605-1.798
		c1.648,0.739,1.859,11.551,2.226,13.502c0.544,2.89,1.044,5.642,1.305,8.39c-0.181-0.004-0.267,0.217-0.821,0.199
		c1.285,0.773-0.963,1.887-1.499,2.696c-0.897,8.661,1.419,17.501,11.303,18.478c0.686,0.068,1.385,0.1,2.091,0.1
		c7.714,0,17.677-3.828,19.295-12.252c0.837-4.35-0.428-9.54-3.007-13.119c-2.093-2.906-7.453-6.136-11.278-4.857
		c-3.001-5.263-4.334-11.846-4.151-20.542c2.07-1.419,3.461-3.523,5.223-5.257c0.55,1.387,1.881-0.034,1.798,0.899
		c0.305-1.212,1.349-3.759,3.292-2.696c-0.044,0.745-1.012,0.086-1.198,0c-0.303,0.901,0.668,0.532,1.198,0.6
		c0.074,1.686-0.036,2.387,0.301,3.296c0.442-0.056,0.275-0.725,0.301-1.2c0.568,0.564,1.076,2.256-0.602,2.096
		c0.727,0.841,1.395,0.006,1.797,0.899c0.04,0.538-0.295,0.702-0.899,0.6c0.038,0.62,1.098,0.209,1.67,0.293
		c1.064,0.155,4.847,7.605,5.731,8.753c1.847,2.397,4.181,4.733,4.994,7.8c0.841,3.179,0.405,5.97,3.175,8.344
		c2.82,2.417,6.815,3.872,10.53,3.872c0.032,0,0.064,0,0.098,0c4.069,0,7.668-1.764,10.14-4.97
		c3.278-4.259,4.209-10.387,2.26-14.905c-1.076-2.493-3.127-4.536-5.678-5.514c-2.535-0.973-5.417-0.49-7.894-1.873
		c-2.443-1.363-3.916-3.974-5.235-6.345c-2.999-5.385-4.251-11.65-3.189-17.768l0.178,0.143c1.184-1.612,3.38-2.212,4.175-4.209
		c1.63-1.498,3.125-3.184,4.566-4.825c1.654-1.887,3.238-3.661,4.958-5.112c1.16,2.005,2.184,4.159,3.177,6.26
		c1.921,4.081,3.916,8.274,7.019,11.65c-2.525,4.139-2.308,9.211,0.686,14.038c2.824,4.55,7.87,8.274,13.181,9.283
		c10.608,2.015,18.715-11.124,17.244-20.526c-1.08-6.913-5.357-11.895-11.194-13.183l0.229-0.267
		c-2.975-1.317-4.159-4.43-6.315-6.559c-1.096-2.033-2.142-4.139-3.153-6.19l-0.793-1.612l0.076-0.02
		c-1.399-3.695-1.897-8.288-3.894-11.385c0.654-0.343,0.963-1.032,1.198-1.796l-0.105-0.08c1.736-1.756,3.214-3.723,4.637-5.628
		c1.778-2.383,3.482-4.621,5.606-6.451l0.048,0.173c0.102,0,0.199,0,0.301,0l0.12-0.13c1.515,6.796,5.116,13.492,10.488,19.404
		c0.046,0.052,0.108,0.076,0.161,0.118l-0.285,0.381c0.145,0.355,0.319,0.68,0.598,0.901c-2.449,2.047-1.313,5.098,0.092,7.395
		c8.203,13.414,28.673,13.386,33.589-2.876c2.469-8.171,0.576-18.492-4.133-22.537c-2.22-1.909-6.251-3.683-9.843-3.077
		c-1.792,0.303-3.29,1.188-4.432,2.543c-4.888-4.665-8.685-10.6-10.548-16.535c0.789,0.072,0.257-3.023,0.642-3.695
		c0.763-1.333,2.394-1.592,3.782-1.863c-4.193-3.721,7.324-12.674,8.966-14.598c4.229-4.95,6.068-11.365,9.157-16.993
		c2.334-4.253,5.032-8.386,8.322-11.969c0.201-0.219,1.032,5.05,1.028,5.546c-0.02,2.256-0.167,4.496-0.072,6.756
		c0.446,10.55,4.087,21.118,11.276,28.996c11.447,12.545,28.414,21.485,45.744,20.479c21.14-1.228,37.902-15.837,47.334-33.928
		c1.192-2.286,2.298-5.446,3.099-7.866c0.243-0.737,0.492-7.575-0.195-7.682c1.13,0.175,2.696,2.491,4.195,3.292l0.114-0.146
		c5.825,5.972,11.397,9.691,17.027,11.355l-0.064,0.177c0.55,1.315,3.665,1.431,4.795,1.198l-0.012-0.279
		c18.065,5.546,37.095,5.734,55.503,5.907c0,0,4.263,0.044,4.277,0.044c0.042,0,0.076-0.02,0.118-0.024l0.034,0.343
		c1.802,1.088,4.197,0.269,6.59,0.303l-0.012-0.147c1.897,0.369,3.799,0.464,5.674,0.464c0.755,0,1.51-0.014,2.256-0.028
		c0.761-0.014,1.523-0.016,2.268,0.01c11.254,2.087,25.857,1.425,39.546,2.995l-0.016-0.191c1.11,0.03,2.252,0.108,3.356,0.186
		c1.441,0.103,2.912,0.211,4.398,0.211c0.939,0,1.883-0.066,2.832-0.177c1.335,0.528,3.282,0.438,3.812,1.768
		c1.08,0.414,0.638-0.695,1.395-0.604c6.66,6.756,9.066,16.467,11.347,25.905c0.313,1.285,0.622,2.551,0.937,3.804l-0.496-0.044
		c0.877,4.217,2.752,7.433,4.193,11.086l0.133-0.064c1.224,4.976,2.571,10.291,4.133,15.65l-0.072-0.006
		c-0.062,1.983,0.293,2.935,1.198,3.294l0.07-0.056c2.081,7.067,3.248,14.269,4.125,21.029c0.002,0.301-0.243,0.355-0.299,0.6
		c-1.274,0.173-1.389-0.809-1.798-1.499c-0.622,0.078-0.082,1.317-0.6,1.499l0.102,0.126c-0.821,0.143-1.63-0.108-2.551-0.422
		c-1.242-0.427-2.652-0.911-4.293-0.335c-0.472,0.168-0.721,0.686-0.554,1.156c0.163,0.47,0.681,0.722,1.156,0.554
		c1.042-0.369,1.997-0.04,3.105,0.337c0.817,0.283,1.71,0.588,2.682,0.588c0.317,0,0.646-0.048,0.981-0.126l-0.028,0.219
		c0.403,0.594,0.572,1.425,0.897,2.096c0.944-0.012,1.465-0.45,2.567-0.305c0.57,1.227,0.783,2.637,0.984,4.129
		c0.086,0.638,0.185,1.265,0.297,1.891l-0.251-0.022c-0.305,1.977,0.514,3.671,0.71,5.582c0.237,2.306,0.215,4.275,0.761,6.564
		c0.406,1.712,1.498,4.574-0.074,6.016c0.217-0.207,0.556-0.401,0.739-0.606c-1.861,2.08,1.538,10.961,2.021,13.32
		c1.164,5.692,2.162,11.419,2.836,17.19c0.793,6.814,1.236,13.661,1.923,20.485c0.474,4.707,1.744,9.349,1.925,14.084
		c0.161,4.167-1.509,8.288-0.827,12.437c0.67,4.071,0.739,8.238,1.16,12.34c0.381,3.705,1.13,8.374-0.899,11.76
		c0.052,0.265-0.022,0.496-0.389,0.665c0.157-0.193,0.257-0.446,0.389-0.665c-0.114-0.578-0.891-1.329-0.986-2.031
		c0.867-2.278,0.598-3.876-0.303-5.991c-0.847,2.031-0.331,3.747-0.15,5.803c-1.969-0.309-3.085-2.364-4.837-3.075
		c0.102,0.199,0.265,0.598,0.391,0.843c-0.819-1.602-5.191-1.616-6.644-1.851c-3.167-0.512-6.331-0.976-9.392-1.965
		c-11.423-3.689-23.364-3.209-35.188-2.672c-23.773,1.078-47.568,4.03-71.33,6.035c-11.021,0.931-21.878,3.822-32.83,5.357
		c-13.47,1.887-26.989,2.712-40.587,2.607c-16.796-0.133-33.65-0.668-50.35-2.527c-9.468-1.056-18.898-2.531-28.219-4.494
		c-7.557-1.59-15.287-2.33-22.772-4.271c-6.212-1.61-12.23-4.179-18.663-4.827c-15.935-1.604-32.338,1.636-47.524,6.315
		c-1.371,0.422-15.68,3.842-16.022,6.22c1.277-8.848,1.224-18.703-2.379-27.019c-2.698-6.228-8.107-10.317-13.649-13.89
		c-11.345-7.314-22.625-15.732-34.769-21.64c-5.59-2.728-10.869-5.307-12.784-11.218c-0.02-0.06-0.062-0.1-0.088-0.156l0.189-0.086
		c-1.977-6.335-1.174-12.842,1.265-18.926C241.826,321.29,244.403,313.539,247.659,309.795z M445.647,421.247
		c1.018-0.191,2.146-0.062,3.336,0.092c0.273,0.036,0.54,0.068,0.809,0.1c-0.004,0.125,0.004,0.259-0.012,0.381l-0.018,0.002
		c-1.383,0.116-3.141,0.253-4.173-0.522C445.608,421.281,445.629,421.265,445.647,421.247z M92.894,362.743
		c0.845-0.046,0.695,0.901,1.495,0.899c0.658-0.201-0.566-0.994-0.897-1.198c7.463-7.099,15.766-12.982,24.542-18.081
		c4.627-1.929,9.729-2.919,14.667-3.876c1.789-0.345,3.631-0.709,5.437-1.11c1.491,0.721,2.1-0.225,2.991-0.6l0.014-0.462
		c0.012,0,0.022,0.006,0.034,0.006c0.022,0,0.044-0.002,0.068-0.002c14.261-0.779,29.11-2.692,45.389-5.841l0.032,0.307
		c5.7-0.313,13.077-1.218,17.976-3.296l-0.062-0.128c1.847-0.648,3.759-1.066,5.779-1.501c1.576-0.337,3.202-0.688,4.793-1.158
		c0.072-0.022,0.124-0.07,0.189-0.1l0.086,0.189c5.552-1.839,10.891-3.89,14.982-7.19l-0.072-0.056
		c1.694-0.869,3.334-1.837,4.916-2.794c2.278-1.377,4.454-2.669,6.768-3.657c-6.564,7.541-10.526,20.875-5.323,31.075l0.104-0.08
		c2.453,6.802,8.406,9.751,14.189,12.575c3.551,1.732,7.222,3.523,9.885,6.19c0.139,0.14,0.301,0.237,0.47,0.313l-0.08,0.175
		c0.992,1.204,1.945,2.447,3.894,2.696c-0.195,0.401-0.64,0.558-1.198,0.6c1.128,0.369,1.935,1.062,3.296,1.198
		c-0.237,1.036,0.333,1.265,0.598,1.797c5.147,0.745,7.615,4.173,12.284,5.393c1.646,3.603,6.481,4.014,9.793,5.945
		c11.491,7.194,11.953,22.806,10.208,34.939c-0.68,1.245-1.267,2.585-2.025,3.757c-0.943,0.149-1.172-0.652-1.798,0
		c-6.838,4.038-15.861,6.959-24.568,9.887c-1.694,0.572-3.91,0.905-5.993,1.501c-8.326,2.377-16.963,6.734-25.465,5.09
		c-8.533,2.987-21.752,1.732-32.057,2.098l0.022,0.261c-0.004,0-0.008-0.002-0.014-0.002c-1.495,0.146-2.997-0.03-4.595-0.215
		c-1.291-0.147-2.603-0.307-4.006-0.285c-0.01,0-0.016,0.006-0.026,0.006c-0.971-0.205-1.943-0.341-2.888-0.46l-0.883-0.116
		c-0.111-0.014-0.217,0.012-0.325,0.022c-0.534-0.022-1.088-0.116-1.676-0.225c-0.761-0.14-1.562-0.281-2.405-0.273l0.02-0.211
		c-4.283-0.994-7.549-1.73-11.985-2.097c0.128-0.67,1.477-0.12,2.096-0.299c-5.319-0.855-9.855-1.162-15.048-2.294
		c-0.012-0.004-0.022-0.014-0.036-0.016c-5.118-1.106-10.233-2.611-15.179-4.065c-5.138-1.513-10.447-3.065-15.793-4.195
		c-9.578-3.804-19.552-7.208-28.544-11.6l-0.066,0.149c-1.981-1.285-4.042-2.441-6.04-3.553c-1.469-0.817-2.977-1.666-4.43-2.549
		l0.05-0.04c-1.371-2.242-2.226-1.658-3.591-3.595c-0.478,0.022-0.361,0.431-0.122,0.692c0.141,0.072,0.287,0.149,0.419,0.207
		c-0.126,0.032-0.289-0.068-0.419-0.207c-1.608-0.825-3.729-2.481-4.374-3.689c-1.118-2.089-3.081-6.272-3.296-8.087
		c-0.235-1.989,0.319-4.139,1.2-5.992c-0.399-0.698-0.51-1.688-0.901-2.397l-0.138,0.004c0.931-6.58,2.328-14.02,6.606-19.934
		l0.123,0.157C92.419,363.271,92.497,362.851,92.894,362.743z M193.342,439.96c0.612,0.114,1.254,0.215,1.923,0.255
		c0.02,0.006,0.038,0.016,0.058,0.02c-0.004,0.128-0.03,0.247-0.048,0.369c-1.23-0.064-2.567-0.156-3.46-0.853
		C192.313,439.785,192.81,439.863,193.342,439.96z M195.897,440.716c0.018-0.123,0.052-0.245,0.058-0.369l0.412,0.054
		c0.801,0.102,1.563,0.213,2.31,0.355C197.867,440.945,196.855,440.931,195.897,440.716z M112.007,471.496
		c1.206-0.124,2.354-0.223,3.354,0.004c0,0.046,0,0.092,0,0.138c-0.428,0.114-0.913,0.163-1.437,0.213
		c-0.923,0.086-1.927,0.191-2.8,0.711c-0.171-0.048-0.353-0.078-0.542-0.064l-0.614,0.06c-0.598,0.064-1.154,0.103-1.658,0.046
		c0.004-0.022,0.008-0.044,0.012-0.066c0.072-0.321,0.141-0.648,0.201-0.979C109.683,471.717,110.861,471.611,112.007,471.496z
		 M103.88,482.036c-0.024-0.006-0.044-0.02-0.07-0.024v-0.632c0.387-0.04,0.775-0.072,1.164-0.106c1.377-0.11,2.8-0.229,4.215-0.67
		c0.361,0.209,0.728,0.375,1.084,0.528c0.01,0.072,0.022,0.138,0.032,0.209c-1.75,0.381-3.561,0.508-5.474,0.63
		C104.514,481.992,104.197,482.014,103.88,482.036z M100.981,482.237c0-0.185,0-0.367,0-0.548c0.168-0.014,0.335-0.034,0.5-0.046
		c0.568-0.042,1.16-0.108,1.764-0.211v0.55c-0.602-0.01-1.166,0.062-1.626,0.15C101.387,482.175,101.174,482.213,100.981,482.237z
		 M113.587,480.784c-0.006-0.048-0.016-0.092-0.022-0.141c0.704-0.239,1.563-0.281,2.412-0.251
		C115.419,480.76,114.554,480.822,113.587,480.784z M153.564,480.065c-1.977-0.03-4.025-0.062-5.959,0.024
		c-0.106,0.004-0.199,0.04-0.295,0.072l-0.191-0.572c-4.944-0.554-9.169,0.458-13.181-0.6c-1.273,2.087-6.72,2.154-7.792,1.796
		c-0.883-0.614,1.279-0.693,2.096-0.598c0.626-1.975-1.935-2.047-3.292-2.096c-2.766-0.102-6.471,0.245-8.091,0.598l0.016,0.102
		c-1.271-0.08-2.985-0.168-4.342,0.48c-0.259-0.11-0.54-0.179-0.839-0.143c-0.213,0.026-0.41,0.1-0.588,0.197
		c-0.251-0.106-0.492-0.213-0.712-0.327c0-0.044-0.012-0.088-0.016-0.129c0.913-0.456,1.993-0.662,3.129-0.859
		c1.574-0.277,3.204-0.56,4.572-1.582l0.215-0.16l0.08-0.263c0.044-0.151,0.1-0.339,0.116-0.552l0.032-0.406l-0.307-0.269
		c-1.22-1.076-2.73-0.939-4.062-0.817c-0.783,0.07-1.391,0.092-1.893-0.008c-0.002-0.014,0.006-0.026,0.004-0.04
		c0-0.012-0.008-0.02-0.01-0.032c0.478-0.201,1.062-0.289,1.827-0.361c0.925-0.088,1.941-0.199,2.826-0.739l-0.048,0.516
		c0.721,0.606,2.391-0.391,3.296-0.598l-0.287-0.538c1.301-0.189,2.647-0.305,4.069-0.414c1.674-0.131,3.408-0.267,5.241-0.554
		c1.973-0.309,4.069-0.444,6.098-0.574c3.21-0.207,6.234-0.426,8.605-1.275l-0.06,0.66c6.549,2.643,14.253,6.168,22.192,9.177
		C162.181,480.194,157.813,480.13,153.564,480.065z M268.757,477.946c-8.346,1.216-16.68,2.527-25.062,3.495
		c-31.487,3.641-61.545-0.717-91.046-12.155c-13.52-5.241-27.398-11.1-39.09-19.817c-11.678-8.705-18.944-20.465-23.789-34.038
		c-1.202-3.366-2.288-6.774-3.372-10.18c11.317,5.03,21.937,11.479,33.171,16.688c16.513,7.656,34.235,9.966,51.872,13.721
		c15.749,3.354,30.961,5.046,47.045,5.805c18.239,0.861,35.369,0.958,52.587-5.875c10.195-4.045,20.112-8.765,30.349-12.704
		c5.367-2.067,10.795-2.842,16.248-4.502c3.918-1.192,6.582-4.6,10.325-6.13c5.917-2.415,12.493-2.334,18.761-2.862
		c8.679-0.731,17.42-0.522,26.085,0.301c18.271,1.734,36.083,6.297,54.124,9.438c4.416,0.769,8.848,1.166,13.244,1.983
		c3.127,0.582,6.977,1.897,10.126,1.333c15.45-0.397,30.917-0.405,46.362-0.983c19.139-0.719,38.078-3.033,57.038-5.626
		c18.223-2.491,36.441-4.382,54.8-5.516c18.322-1.134,37.978-3.49,56.105,0.363c8.537,1.814,16.475,5.7,21.557,13.021
		c5.275,7.597,6.985,17.075,8.75,25.969c-25.907-2.212-51.46-3.274-77.265,0.714c-12.593,1.945-25.116,4.508-37.547,7.288
		c-11.903,2.662-24.201,5.55-34.881,11.66c-5.413,3.097-10.217,7.079-14.251,11.834c-2.533,2.989-5.112,5.967-7.256,9.255
		c-0.399,0.612-5.054,10.247-4.111,10.353c-16.234-1.819-32.318-4.123-48.309-7.499c-16.049-3.388-31.987-7.306-48.217-9.779
		c-13.269-2.021-26.645-2.931-39.999-4.171c-14.502-1.347-28.952-3.232-43.482-4.261c-17.047-1.208-34.15-1.214-51.171,0.401
		C281.864,476.097,275.308,476.992,268.757,477.946z M525.334,497.648c0.02-1.855,0.781-3.695,1.592-5.618
		c0.592-1.405,1.184-2.852,1.497-4.341c0.161-0.094,0.317-0.207,0.435-0.369c5.259-7.214,13.153-13.348,23.462-18.235
		c0.002,0,0.002-0.002,0.004-0.002l0.151,0.317c1.331,0.036,1.62,0.414,1.8-0.899c0.576,0.556,0.237,0.548,1.198,0.301l0.074-0.02
		c-1.891,1.825-4.127,3.818-6.499,5.929c-2.904,2.579-5.907,5.249-8.639,7.938c-1.995,1.957-3.966,4.037-5.871,6.048
		C531.227,492.185,528.08,495.503,525.334,497.648z M521.713,501.815c-0.072-0.148-0.157-0.281-0.271-0.397
		c0.64-4.695,1.841-9.889,4.93-12.806c-0.289,0.897-0.664,1.804-1.058,2.738c-0.989,2.342-1.989,4.763-1.664,7.378
		c-0.014,0.036-0.038,0.066-0.046,0.104c-0.156,0.737,0.006,1.401,0.147,1.985c0.112,0.46,0.138,0.761,0.1,1.028
		C523.138,501.966,522.398,501.962,521.713,501.815z M604.006,496.364l-0.829-0.646c5.993-3.374,13.173-10.289,18.962-15.865
		c1.652-1.594,3.213-3.097,4.622-4.402c1.162-1.076,2.3-2.15,3.418-3.208c6.287-5.947,12.236-11.575,19.626-14.279
		c0,0.044,0.002,0.086,0.004,0.123c-0.526,0.293-0.765,0.857-0.951,1.293c-0.086,0.205-0.169,0.399-0.257,0.522
		c-0.199,0.275-0.139,0.66,0.138,0.857c0.271,0.199,0.656,0.141,0.855-0.135c0.173-0.237,0.287-0.504,0.396-0.765
		c0.181-0.426,0.305-0.69,0.502-0.729l0.347-0.068l0.116-0.333c0.133-0.385,0.119-1.164-0.138-1.799l-0.217-0.54l-0.55,0.187
		c-7.942,2.688-14.145,8.561-20.716,14.773c-1.116,1.056-2.248,2.128-3.404,3.198c-1.417,1.313-2.983,2.82-4.643,4.42
		c-5.168,4.978-11.453,11.026-16.931,14.592c0.243-0.405,0.5-0.793,0.552-1.389c-1.807,0.181-5.779,2.658-4.494,5.094
		c-16.415,1.351-30.022,4.845-49.136,4.793l0.058,0.209c-1.771-0.132-3.547-0.148-5.267-0.15c-1.814-0.004-3.539-0.034-5.253-0.175
		c0.813-1.497,2.708-3.159,4.57-4.781c0.761-0.666,1.527-1.331,2.23-1.997l1.172-1.112c10.628-10.066,25.184-23.849,37.571-30.242
		l0.899-0.468c2.282-1.204,4.635-2.447,6.487-1.813c0.369,0.128,0.769-0.07,0.895-0.439c0.128-0.369-0.07-0.769-0.44-0.897
		c-2.422-0.829-5.056,0.558-7.599,1.897l-0.887,0.464c-12.567,6.483-27.206,20.347-37.896,30.473l-1.174,1.11
		c-0.688,0.654-1.439,1.307-2.186,1.961c-2.278,1.987-4.426,3.884-5.172,5.831c-0.213,0.066-0.393,0.191-0.548,0.345l-1.341-0.004
		c-3.808-0.01-7.732-0.034-11.551-0.414c0.024-0.556-0.084-1.074-0.185-1.501c-0.108-0.436-0.197-0.813-0.133-1.118
		c0.006-0.03-0.002-0.06,0-0.09c2.979-2.184,6.379-5.753,9.972-9.542c1.897-2.001,3.86-4.072,5.835-6.012
		c2.712-2.665,5.701-5.323,8.595-7.896c2.69-2.389,5.227-4.649,7.278-6.68l0.363,0.683c0.751-0.817,1.347-0.054,2.097-0.6
		c-0.016-0.183-0.044-0.357-0.299-0.299c0.713-0.528,1.078,0.895,0,1.198c1.14,0.592,0.552-1.594,1.798-1.498
		c-0.144-0.953-0.943-1.254-0.899-2.397l-0.156-0.084c43.604-14.855,90.305-19.568,135.228-13.653
		c0.11,2.694-0.014,5.767-0.355,8.533c-1.184,2.041-1.04,3.781-2.296,5.803l0.452,0.339c-5.5,1.947-10.291,5.811-14.922,9.568
		c-1.048,0.847-2.081,1.67-3.117,2.481c-0.275-0.062-0.548-0.024-0.789,0.09c-0.57-0.714-0.999-1.527-1.435-2.38
		c-0.169-0.335-0.371-0.673-0.558-1.014c0.096-0.132,0.163-0.275,0.183-0.431c0.839-0.67,1.682-1.349,2.545-2.051
		c4.797-3.908,9.745-7.942,15.128-9.51c-0.279,0.44-0.644,0.827-1.022,1.232c-0.502,0.534-1.02,1.088-1.401,1.812
		c-0.173,0.329-0.048,0.735,0.281,0.909c0.327,0.176,0.737,0.05,0.909-0.281c0.295-0.562,0.731-1.026,1.192-1.518
		c0.502-0.532,1.016-1.084,1.395-1.802c0.076-0.078,0.157-0.173,0.231-0.291l0.139-0.532c0.028-0.149,0.054-0.301,0.07-0.43
		l0.1-0.927l-0.913,0.195c-6.192,1.329-11.664,5.787-16.959,10.102c-0.859,0.7-1.698,1.377-2.535,2.041
		c-0.243-0.024-0.494,0.044-0.695,0.211c-3.641,3.017-7.696,6.194-12.4,9.705c-0.417,0.315-0.502,0.905-0.189,1.325
		c0.187,0.249,0.47,0.381,0.759,0.381c0.197,0,0.395-0.064,0.566-0.189c4.538-3.394,8.468-6.469,12.019-9.398
		c0.15,0.275,0.311,0.548,0.452,0.821c0.452,0.883,0.921,1.784,1.57,2.581c-0.04,0.076-0.094,0.141-0.118,0.227
		c-0.016,0.056-0.054,0.203-0.096,0.365c-0.128,0.068-0.247,0.138-0.375,0.205c-1.535,0.815-3.211,1.77-4.173,3.402l-0.263-0.458
		c-1.989,1.204-3.159,3.23-5.99,3.593l0.046,0.094c-1.407,0.393-2.82,0.791-4.233,1.192c-5.947,1.68-12.085,3.404-18.147,4.584
		c-1.688-1.658-5.797,0.664-8.523,0.424c-0.01-1.17,1.507-0.054,1.499-0.598c-1.034-0.988-2.272,0.646-3.214,0.04
		c-0.02-0.064-0.044-0.13-0.064-0.195c6.549-5.036,13.113-10.544,19.462-15.875c6.467-5.425,13.153-11.033,19.861-16.184
		c1.034-0.421,1.895-1.084,2.728-1.728c0.729-0.564,1.419-1.096,2.178-1.437c0.134-0.03,0.245-0.052,0.337-0.064
		c-0.01,0.118-0.02,0.235-0.032,0.359c-0.06,0.614-0.135,1.397,0.279,2.122c-10.728,9.831-21.963,19.376-33.4,28.378
		c-0.351,0.277-0.411,0.787-0.133,1.14c0.277,0.351,0.785,0.415,1.138,0.135c11.674-9.187,23.133-18.938,34.062-28.98l0.688-0.632
		l-0.719-0.592c-0.371-0.305-0.377-0.614-0.299-1.419c0.038-0.396,0.082-0.849,0.014-1.317l-0.048-0.351l-0.291-0.203
		c-0.456-0.321-1.13-0.363-2.047-0.138l-0.132,0.044c-0.971,0.42-1.792,1.056-2.585,1.668c-0.807,0.624-1.568,1.212-2.433,1.545
		l-0.203,0.113c-6.768,5.189-13.496,10.837-20.004,16.296c-6.483,5.443-13.189,11.068-19.855,16.176l-0.45,0.341l0.167,0.54
		c0.1,0.327,0.181,0.59,0.269,0.861l-0.068-0.046c-1.612,0.351-2.904,0.747-4.195,0.901c-0.586,0.068-0.903,0.787-1.497,0.897
		c-0.556,0.103-1.198-0.361-1.798-0.301c-5.305,0.552-12.365,2.085-17.079,2.098C604.008,496.964,604.006,496.41,604.006,496.364z"
		/>
	<path fill="#050002" d="M457.503,139.545c0.283,3.781,0.59-2.364-0.899-0.901C457.037,138.812,457.335,139.113,457.503,139.545z"/>
	<path fill="#050002" d="M462.597,174.896c-1.028-0.072-0.771-1.429-1.798-1.499c-0.05,0.847,0.899,0.7,0.899,1.499
		c-0.56,0.285-1-0.899-1.2,0C461.148,175.09,462.363,176.018,462.597,174.896z"/>
	<path fill="#050002" d="M465.293,178.492c-0.233,0.068-0.592,0.008-0.6,0.299c0.436-0.163,1.548,0.351,1.497-0.299
		c-0.562-0.432-1.327-0.67-1.196-1.798c-1.548,1.024-1.746-1.299-2.698-0.6C463.487,176.698,463.756,178.228,465.293,178.492z"/>
	<path fill="#050002" d="M413.762,191.074c-0.522,0.022-0.933-0.068-1.2-0.299c-0.066,0.231-0.006,0.59-0.297,0.598
		c-0.036-0.365-0.092-0.71-0.602-0.598C411.691,192.009,413.277,191.656,413.762,191.074z"/>
	<path fill="#050002" d="M405.372,193.47c-0.143-0.853-1.136-0.859-1.798-1.198C403.72,193.127,404.714,193.131,405.372,193.47z"/>
	<path fill="#050002" d="M428.142,184.781c-0.261,0.008-1.252,0.126-1.798,0.301c-1.497,0.484-7.623,4.532-8.689,5.694
		c-2.049,2.228-1.985,5.716-3.593,8.087c0.131,1.18,1.146,3.033,0.899,3.597c-0.496-0.006-0.169-0.831-0.6-0.901
		c-0.09,1.142,0.365,2.318,0.899,1.2c-0.217,1.132,0.438,2.936,1.198,2.096c-0.365,0.092-1.034-0.865-0.299-0.899
		c1.794,3.539,5.038,5.365,10.185,4.496l-0.07-0.147c4.099-0.277,7.726-2.652,9.568-6.258l0.09,0.113
		C441.674,194.713,436.578,184.61,428.142,184.781z M425.725,205.397l0.02-0.241c-11.423-1.728-0.309-19.259,5.395-14.98
		c1.987,1.493,3.245,5.445,2.097,9.887l0.261,0.118c-0.004,0.008-0.01,0.012-0.014,0.02
		C432.164,203.281,429.127,205.301,425.725,205.397z"/>
	<path fill="#050002" d="M409.868,196.467c0.413,0.012,0.656-0.141,0.899-0.299c-0.797,0.695,0.795,0.801,0,1.497
		c0.705-0.006,0.879,0.518,1.796,0.299c-0.422-1.02-1.148,0.114,0-1.196c-0.478-1.019-2.122-0.875-2.694-1.8
		c0.743-0.389,1.242,0.879,1.497,0c-0.56-0.066-1.983-0.771-2.397,0C409.561,195.178,409.766,195.768,409.868,196.467z"/>
	<path fill="#050002" d="M399.381,205.156c-1.548-1.548-2.218-3.972-3.896-5.395C396.402,201.744,397.876,204.759,399.381,205.156z"
		/>
	<path fill="#050002" d="M407.47,221.633c-0.757-0.44-1.337-1.058-2.397-1.198C404.365,219.903,407.068,222.314,407.47,221.633z"/>
	<path fill="#050002" d="M413.762,238.411c0.877-0.421,1.473,0.343,2.096-0.6c-0.412-0.012-0.658,0.143-0.897,0.299
		c-0.034-0.365-0.092-0.707-0.6-0.598C414.973,238.479,412.66,237.932,413.762,238.411z"/>
	<path fill="#050002" d="M396.384,263.878c0.299,0,0.6,0,0.899,0c-0.171-0.528,0.363-1.762-0.299-1.799
		c-0.133,0.566,0.409,1.807-0.6,1.499c-0.209-1.945,1.459-3.366,0.6-4.193c-1.664,1.722-1.714,6.995,0.299,8.388
		C396.97,266.486,396.474,265.386,396.384,263.878z"/>
	<path fill="#050002" d="M413.461,295.034c1.341-0.335,1.808,2.786,3.597,2.999c-0.747-3.049-2.373-5.215-3.896-7.491
		C411.492,291.712,413.481,294.43,413.461,295.034z"/>
	<path fill="#050002" d="M380.206,303.123c1.758-1.638,2.238-4.554,4.195-5.99c-1.453-0.488-3.852,0.199-3.595,1.198
		c0.074-0.327,0.494-0.719,0.6-0.297c-0.927,1.367-2.08,2.511-2.397,4.492C379.606,302.529,379.391,303.342,380.206,303.123z"/>
	<path fill="#050002" d="M358.934,322.898c-0.271-2.009,2.314-3.378,3.296-5.094c-0.449-0.05-1.106,0.108-1.2-0.301
		c0.167,0.002,0.341-0.241,0-0.299c-1.493,1.102-2.457,2.736-4.492,3.298c-0.349,1.551-0.829,2.266,0,3.593
		C357.946,324.351,357.868,322.049,358.934,322.898z"/>
	<path fill="#050002" d="M342.457,334.283c1.638-1.658,4.43-2.162,5.094-4.795c-3.097,0.504-5.658,3.129-6.891,4.494
		C341.439,333.175,341.564,334.349,342.457,334.283z"/>
	<path fill="#050002" d="M336.166,337.878c-0.391-0.743,0.668-1.455,0-1.499c-2.174,0.923-5.464,0.728-5.694,3.595
		C332.987,340.929,333.244,337.468,336.166,337.878z"/>
	<path fill="#050002" d="M325.681,343.57c-2.967-0.775-6.632,3.274-7.491,3.593C321.026,346.503,323.601,346.155,325.681,343.57z"/>
	<path fill="#050002" d="M316.691,349.261c0.369-0.53,0.217-1.58,0.899-1.797c-2.318-0.088-4.55,1.08-6.59,2.098
		c0.482,0.927,0.259,1.164,0.598,1.797C313.318,350.834,314.866,348.706,316.691,349.261z"/>
	<path fill="#050002" d="M245.989,356.755c0.789,0.703,0.957,2.035,1.796,2.694C247.942,358.092,245.959,356.019,245.989,356.755z"
		/>
	<path fill="#050002" d="M143.225,358.251c-1.132-0.217-2.348,1.024-1.797,1.497C141.99,359.212,143.157,359.282,143.225,358.251z"
		/>
	<path fill="#050002" d="M293.921,417.571c-0.693,0.803-1.953,1.042-2.397,2.097C292.695,419.53,294.172,418.135,293.921,417.571z"
		/>
	<path fill="#050002" d="M679.206,453.524c-0.684-0.642,1.09,0.389,1.198-0.6c-1.03-0.108-1.523-0.462-2.097,0.299
		c-0.064-0.337-0.333-0.466-0.6-0.598C677.747,453.843,678.923,453.904,679.206,453.524z"/>
	<path fill="#050002" d="M677.708,453.524c-0.813-0.632-2.987-0.604-4.193-0.301C674.376,454.012,676.831,453.434,677.708,453.524z"
		/>
	<path fill="#050002" d="M679.806,466.406c0.181,0.016,0.353,0.044,0.299,0.299c-0.558,0.042-1,0.195-1.198,0.6
		c0.725,0.636,1.323-0.668,1.798-1.2c-0.201,0-0.401,0-0.6,0C679.922,466.123,679.748,466.151,679.806,466.406z"/>
	<path fill="#050002" d="M448.814,493.668c1.467,0.675,5.795,1.536,6.291,1.198c-2.077-0.315-3.629-1.164-5.993-1.198
		C449.115,493.503,448.87,493.329,448.814,493.668z"/>
	<path fill="#050002" d="M435.107,239.168c0.179,0,0.357-0.07,0.49-0.205c0.385-0.399,0.767-0.801,1.15-1.206
		c1.339-1.415,2.724-2.882,4.245-4.047c0.297-0.229,0.355-0.656,0.123-0.957c-0.227-0.299-0.656-0.355-0.956-0.126
		c-1.604,1.232-3.027,2.736-4.406,4.191c-0.377,0.401-0.755,0.801-1.134,1.192c-0.263,0.271-0.257,0.703,0.014,0.966
		C434.766,239.102,434.938,239.168,435.107,239.168z"/>
	<path fill="#050002" d="M428.694,250.183c0.145,0,0.289-0.042,0.419-0.132c0.335-0.233,0.417-0.692,0.183-1.024
		c-0.277-0.399-0.341-0.833-0.195-1.331c0.337-1.142,1.698-2.322,2.768-2.76c0.374-0.156,0.554-0.586,0.4-0.963
		c-0.153-0.377-0.584-0.55-0.962-0.403c-1.393,0.574-3.135,2.071-3.617,3.709c-0.275,0.929-0.136,1.822,0.399,2.589
		C428.232,250.075,428.461,250.183,428.694,250.183z"/>
	<path fill="#050002" d="M419.154,249.417c0.072,0,0.143-0.02,0.207-0.066c0.763-0.516,1.274-1.325,1.764-2.106
		c0.63-1.008,1.228-1.961,2.298-2.18c0.199-0.044,0.329-0.237,0.289-0.438c-0.042-0.201-0.241-0.325-0.436-0.287
		c-1.381,0.285-2.093,1.419-2.778,2.513c-0.47,0.751-0.913,1.457-1.553,1.889c-0.167,0.114-0.211,0.341-0.098,0.512
		C418.919,249.359,419.037,249.417,419.154,249.417z"/>
	<path fill="#050002" d="M432.399,260.735c0.042,0.008,0.082,0.01,0.124,0.01c0.377,0,0.705-0.273,0.767-0.658
		c0.293-1.859,1.937-3.767,3.994-4.632c0.397-0.165,0.582-0.622,0.414-1.018c-0.167-0.397-0.626-0.582-1.02-0.419
		c-2.138,0.901-4.49,3.051-4.926,5.825C431.683,260.27,431.974,260.669,432.399,260.735z"/>
	<path fill="#050002" d="M407.028,273.621c0.125,0.07,0.259,0.102,0.393,0.102c0.283,0,0.558-0.149,0.705-0.417
		c1.245-2.236,2.764-4.745,5.026-6.202c0.375-0.243,0.482-0.745,0.239-1.12c-0.239-0.375-0.741-0.48-1.116-0.239
		c-2.451,1.582-4.121,4.191-5.56,6.778C406.498,272.913,406.639,273.403,407.028,273.621z"/>
	<path fill="#050002" d="M649.652,291.293c0.163,0,0.331-0.058,0.462-0.177c2.021-1.828,5.146-2.007,7.599-0.442
		c0.321,0.203,0.747,0.11,0.952-0.211c0.203-0.321,0.11-0.747-0.211-0.953c-2.977-1.897-6.788-1.658-9.265,0.584
		c-0.283,0.255-0.305,0.691-0.048,0.972C649.278,291.218,649.465,291.293,649.652,291.293z"/>
	<path fill="#050002" d="M636.394,291.261c0.181,0,0.359-0.07,0.496-0.209c1.367-1.409,4.072-1.626,5.465-0.434
		c0.291,0.247,0.727,0.211,0.974-0.078c0.249-0.289,0.213-0.725-0.076-0.974c-2.138-1.832-5.648-1.236-7.356,0.524
		c-0.265,0.273-0.259,0.713,0.014,0.976C636.047,291.196,636.222,291.261,636.394,291.261z"/>
	<path fill="#050002" d="M404.029,296.006c0.155,0.179,0.375,0.269,0.596,0.269c0.185,0,0.371-0.066,0.52-0.195
		c0.329-0.287,0.361-0.787,0.076-1.116c-0.106-0.122-0.229-0.241-0.351-0.363c-0.267-0.263-0.448-0.452-0.474-0.61
		c0.383-1.397,1.192-3.163,2.882-3.852c0.404-0.165,0.598-0.628,0.435-1.03c-0.166-0.407-0.63-0.596-1.032-0.437
		c-1.847,0.755-3.177,2.491-3.842,5.018l-0.024,0.151c-0.058,0.901,0.526,1.469,0.946,1.887
		C403.853,295.823,403.947,295.911,404.029,296.006z"/>
	<path fill="#050002" d="M620.421,297.15c0.181,0,0.365-0.068,0.504-0.203c1.63-1.59,4.442-3.159,6.983-2.368
		c0.385,0.118,0.789-0.096,0.909-0.476c0.12-0.385-0.094-0.789-0.478-0.911c-3.161-0.98-6.419,0.761-8.424,2.712
		c-0.287,0.281-0.293,0.739-0.014,1.026C620.044,297.078,620.232,297.15,620.421,297.15z"/>
	<path fill="#050002" d="M657.925,296.477c0.05,0.421,0.438,0.705,0.851,0.666l0.905-0.114c2.645-0.337,5.377-0.688,7.756,0.082
		c0.076,0.024,0.157,0.038,0.235,0.038c0.321,0,0.624-0.205,0.728-0.53c0.13-0.402-0.09-0.831-0.492-0.962
		c-2.706-0.873-5.612-0.502-8.42-0.144l-0.897,0.112C658.172,295.676,657.875,296.056,657.925,296.477z"/>
	<path fill="#050002" d="M632.92,302.533c0.124,0,0.251-0.03,0.375-0.09c3.358-1.644,7.236-3.314,10.762-2.244
		c0.46,0.138,0.929-0.12,1.066-0.572c0.135-0.452-0.12-0.931-0.572-1.066c-4.127-1.242-8.36,0.56-12.009,2.348
		c-0.424,0.207-0.6,0.719-0.393,1.144C632.3,302.356,632.601,302.533,632.92,302.533z"/>
	<path fill="#050002" d="M608.35,303.191c0.193,0,0.385-0.068,0.538-0.205l0.444-0.397c1.612-1.445,3.436-3.089,5.385-2.527
		c0.437,0.126,0.883-0.126,1.006-0.558c0.123-0.432-0.125-0.883-0.558-1.006c-2.818-0.813-5.185,1.323-6.919,2.88l-0.434,0.387
		c-0.335,0.299-0.369,0.813-0.072,1.15C607.902,303.095,608.125,303.191,608.35,303.191z"/>
	<path fill="#050002" d="M621.039,305.913c-2.561,0.698-5.068,2.098-7.673,4.281c-0.315,0.263-0.357,0.733-0.094,1.048
		c0.148,0.173,0.359,0.265,0.57,0.265c0.169,0,0.341-0.058,0.48-0.173c2.435-2.043,4.759-3.346,7.107-3.988
		c0.394-0.106,0.63-0.514,0.52-0.913C621.842,306.036,621.437,305.801,621.039,305.913z"/>
	<path fill="#050002" d="M592.838,312.625c0.08,0.028,0.156,0.042,0.233,0.042c0.293,0,0.562-0.183,0.664-0.472
		c0.596-1.704,2.015-3.591,4.039-3.33c0.375,0.054,0.737-0.221,0.787-0.606c0.052-0.384-0.219-0.737-0.604-0.787
		c-2.858-0.383-4.779,2.059-5.55,4.259C592.28,312.095,592.473,312.497,592.838,312.625z"/>
	<path fill="#050002" d="M595.179,320.16c-0.355,0.157-0.508,0.574-0.353,0.929c0.118,0.259,0.375,0.412,0.642,0.412
		c0.094,0,0.195-0.02,0.287-0.062c0.871-0.391,1.74-0.845,2.581-1.283c1.941-1.008,3.946-2.053,6.086-2.409
		c0.383-0.062,0.638-0.425,0.576-0.807c-0.064-0.383-0.434-0.64-0.807-0.576c-2.359,0.391-4.464,1.489-6.501,2.551
		C596.85,319.349,596.018,319.783,595.179,320.16z"/>
	<path fill="#050002" d="M576.094,326.75c0.235,0,0.464-0.118,0.598-0.333c0.295-0.472,0.576-0.992,0.865-1.523
		c1.124-2.075,2.186-4.04,4.398-4.04c0.01,0,0.02,0,0.032,0c0.387,0,0.703-0.313,0.703-0.7c0.006-0.387-0.309-0.705-0.7-0.709
		c-0.01,0-0.022,0-0.036,0c-3.053,0-4.486,2.648-5.64,4.779c-0.273,0.502-0.54,0.996-0.819,1.443
		c-0.207,0.331-0.106,0.767,0.223,0.973C575.837,326.714,575.966,326.75,576.094,326.75z"/>
	<path fill="#050002" d="M581.2,335.176c0.13,0.074,0.273,0.108,0.411,0.108c0.301,0,0.592-0.157,0.747-0.438
		c0.891-1.614,2.501-3.063,4.781-4.311c0.412-0.227,0.564-0.743,0.337-1.154c-0.221-0.414-0.741-0.566-1.154-0.339
		c-2.567,1.405-4.402,3.079-5.455,4.978C580.642,334.433,580.789,334.951,581.2,335.176z"/>
	<path fill="#050002" d="M562.291,340.834c0.074,0.024,0.145,0.034,0.221,0.034c0.317,0,0.61-0.203,0.709-0.524
		c0.556-1.784,1.598-3.669,3.015-5.448c0.257-0.319,0.205-0.785-0.116-1.044c-0.317-0.255-0.787-0.201-1.042,0.118
		c-1.535,1.923-2.666,3.978-3.276,5.937C561.68,340.296,561.899,340.712,562.291,340.834z"/>
	<path fill="#050002" d="M337.365,347.424c0.118,0,0.239-0.038,0.343-0.116c1.036-0.809,2.192-1.51,3.308-2.192
		c0.747-0.449,1.487-0.901,2.202-1.381c0.255-0.175,0.323-0.522,0.152-0.777c-0.173-0.259-0.524-0.323-0.775-0.151
		c-0.702,0.474-1.429,0.915-2.156,1.355c-1.146,0.698-2.334,1.417-3.418,2.264c-0.243,0.189-0.287,0.54-0.098,0.785
		C337.033,347.35,337.2,347.424,337.365,347.424z"/>
	<path fill="#050002" d="M501.412,349.473c1.453,0.08,2.822,0.156,3.754,1.212c0.112,0.126,0.267,0.187,0.423,0.187
		c0.133,0,0.267-0.046,0.373-0.138c0.233-0.207,0.253-0.564,0.05-0.797c-1.244-1.405-2.918-1.499-4.536-1.586
		c-1.034-0.058-2.007-0.112-2.84-0.498c-0.281-0.133-0.616-0.01-0.745,0.275c-0.133,0.281-0.01,0.614,0.271,0.743
		C499.189,349.351,500.321,349.413,501.412,349.473z"/>
	<path fill="#050002" d="M552.688,355.736c0.028,0.006,0.06,0.008,0.088,0.008c0.357,0,0.664-0.265,0.71-0.628
		c0.235-1.883,1.794-4.026,3.661-4.091c0.393-0.014,0.703-0.343,0.69-0.739c-0.016-0.395-0.337-0.68-0.741-0.69
		c-2.622,0.094-4.717,2.838-5.03,5.347C552.016,355.332,552.295,355.69,552.688,355.736z"/>
	<path fill="#050002" d="M513.146,354.417c2.15-0.285,5.054-0.189,6.718,1.907c0.102,0.129,0.251,0.197,0.404,0.197
		c0.114,0,0.227-0.038,0.323-0.116c0.223-0.175,0.261-0.502,0.084-0.725c-1.967-2.475-5.253-2.611-7.663-2.286
		c-0.287,0.038-0.484,0.297-0.444,0.578C512.605,354.258,512.868,354.459,513.146,354.417z"/>
	<path fill="#050002" d="M319.063,355.619c-1.449,0.468-2.758,1.222-4.023,1.947c-0.813,0.466-1.654,0.949-2.507,1.341
		c-0.283,0.13-0.409,0.464-0.277,0.747c0.094,0.207,0.299,0.327,0.512,0.327c0.08,0,0.159-0.016,0.233-0.052
		c0.903-0.413,1.766-0.905,2.599-1.385c1.273-0.729,2.475-1.419,3.812-1.855c0.297-0.098,0.458-0.415,0.363-0.71
		C319.679,355.685,319.36,355.523,319.063,355.619z"/>
	<path fill="#050002" d="M524.541,359.774c1.524-0.253,2.937,0.267,4.43,0.811c0.343,0.126,0.688,0.251,1.03,0.369
		c0.052,0.018,0.104,0.024,0.153,0.024c0.203,0,0.389-0.126,0.456-0.327c0.086-0.251-0.05-0.524-0.301-0.61
		c-0.337-0.111-0.674-0.233-1.008-0.359c-1.543-0.564-3.137-1.148-4.916-0.857c-0.261,0.044-0.439,0.291-0.396,0.552
		C524.032,359.638,524.272,359.82,524.541,359.774z"/>
	<path fill="#050002" d="M494.953,360.724c1.447-0.341,2.983,0.289,4.464,0.901c0.369,0.15,0.733,0.301,1.092,0.436
		c0.076,0.028,0.151,0.04,0.227,0.04c0.261,0,0.508-0.159,0.604-0.42c0.125-0.333-0.044-0.705-0.379-0.829
		c-0.345-0.131-0.695-0.275-1.05-0.421c-1.596-0.658-3.402-1.405-5.259-0.962c-0.345,0.082-0.558,0.432-0.476,0.779
		C494.257,360.593,494.596,360.81,494.953,360.724z"/>
	<path fill="#050002" d="M543.509,374.674c0.006,0,0.012,0,0.016,0c0.432-0.01,0.773-0.367,0.763-0.797
		c-0.046-2.162,0.317-5.076,2.322-6.696c0.335-0.271,0.387-0.761,0.116-1.096c-0.269-0.335-0.759-0.387-1.094-0.118
		c-2.499,2.019-2.957,5.433-2.9,7.944C542.738,374.336,543.086,374.674,543.509,374.674z"/>
	<path fill="#050002" d="M292.399,367.881c-1.417,0.444-2.792,1.018-4.119,1.574c-1.196,0.496-2.433,1.014-3.677,1.425
		c-0.305,0.1-0.472,0.428-0.371,0.735c0.082,0.245,0.309,0.399,0.554,0.399c0.06,0,0.12-0.008,0.181-0.028
		c1.283-0.424,2.543-0.949,3.761-1.457c1.305-0.544,2.655-1.108,4.02-1.538c0.309-0.096,0.478-0.422,0.381-0.729
		C293.034,367.955,292.705,367.785,292.399,367.881z"/>
	<path fill="#050002" d="M532.116,375.083c2.06-0.092,4.012,1.236,5.867,2.465c0.839,0.556,1.708,1.128,2.585,1.582
		c0.098,0.048,0.197,0.07,0.299,0.07c0.237,0,0.464-0.128,0.58-0.355c0.166-0.321,0.04-0.711-0.283-0.877
		c-0.813-0.417-1.614-0.949-2.461-1.509c-2.021-1.341-4.115-2.7-6.608-2.684c-0.361,0.008-0.648,0.303-0.642,0.666
		C531.458,374.8,531.807,375.081,532.116,375.083z"/>
	<path fill="#050002" d="M537.642,384.256c-2.146,0.988-2.318,3.432-2.441,5.217c-0.02,0.315-0.044,0.622-0.072,0.907
		c-0.044,0.399,0.243,0.755,0.642,0.799c0.028,0.002,0.054,0.002,0.08,0.002c0.365,0,0.68-0.275,0.719-0.646
		c0.032-0.303,0.054-0.628,0.078-0.961c0.115-1.658,0.235-3.372,1.602-4.002c0.363-0.168,0.522-0.598,0.355-0.963
		C538.437,384.246,538.004,384.091,537.642,384.256z"/>
	<path fill="#050002" d="M544.82,391.181c-1.315,1.772-1.026,4.169-0.773,6.285c0.036,0.291,0.072,0.578,0.1,0.851
		c0.038,0.357,0.337,0.62,0.688,0.62c0.024,0,0.048-0.002,0.074-0.002c0.379-0.038,0.658-0.381,0.616-0.759
		c-0.028-0.285-0.064-0.576-0.1-0.875c-0.223-1.859-0.476-3.966,0.506-5.291c0.229-0.309,0.166-0.743-0.141-0.971
		C545.482,390.811,545.047,390.876,544.82,391.181z"/>
	<path fill="#050002" d="M534.421,402.535c0.054-0.405-0.235-0.773-0.638-0.825c-0.395-0.05-0.773,0.233-0.825,0.64
		c-0.353,2.804-0.632,6.024,0.564,8.776c0.124,0.275,0.395,0.442,0.678,0.442c0.1,0,0.197-0.022,0.295-0.062
		c0.373-0.163,0.544-0.598,0.383-0.973C533.827,408.129,534.076,405.263,534.421,402.535z"/>
	<path fill="#050002" d="M544.027,403.888c-1.521,1.686-1.799,4.055-2.045,6.15c-0.062,0.534-0.121,1.06-0.203,1.563
		c-0.072,0.446,0.231,0.869,0.68,0.941c0.044,0.006,0.088,0.01,0.132,0.01c0.394,0,0.745-0.289,0.809-0.692
		c0.086-0.524,0.151-1.074,0.215-1.632c0.227-1.937,0.462-3.944,1.632-5.239c0.305-0.337,0.275-0.855-0.06-1.16
		C544.848,403.521,544.33,403.549,544.027,403.888z"/>
	<path fill="#050002" d="M593.918,468.012l0.598-0.492c3.81-3.139,9.028-7.441,12.324-7.441c0.006,0,0.01,0,0.014,0
		c0.393,0,0.711-0.317,0.713-0.713c0.002-0.393-0.319-0.713-0.711-0.713c-0.006,0-0.01,0-0.014,0c-3.812,0-9.034,4.305-13.234,7.766
		l-0.596,0.492c-8.41,6.915-16.188,13.996-23.051,20.245c-3.615,3.29-7.027,6.397-10.229,9.209
		c-0.299,0.259-0.327,0.711-0.068,1.006c0.141,0.161,0.339,0.245,0.538,0.245c0.167,0,0.337-0.06,0.47-0.178
		c3.214-2.82,6.63-5.935,10.251-9.229C577.772,481.974,585.536,474.907,593.918,468.012z"/>
	<path fill="#050002" d="M390.148,220.092c0.044,0.098,0.142,0.16,0.243,0.16c0.036,0,0.074-0.008,0.108-0.022
		c0.135-0.06,0.195-0.217,0.138-0.351c-0.309-0.709-0.644-1.419-0.976-2.128c-0.544-1.158-1.106-2.354-1.564-3.551
		c-0.054-0.139-0.203-0.207-0.345-0.155c-0.138,0.052-0.205,0.207-0.155,0.345c0.466,1.216,1.034,2.423,1.581,3.589
		C389.511,218.683,389.841,219.387,390.148,220.092z"/>
	<path fill="#050002" d="M449.123,239.242l0.08,0.169c0.102,0.229,0.325,0.365,0.562,0.365c0.084,0,0.167-0.018,0.249-0.054
		c0.313-0.14,0.45-0.502,0.313-0.813l-0.088-0.189c-0.076-0.165-0.151-0.323-0.191-0.47c0.251-1.518,1.927-2.469,3.18-3.053
		l0.281-0.131l0.06-0.307c0.06-0.299-0.002-0.546-0.07-0.757l-0.06-0.207l-0.179-0.122c-0.08-0.054-0.195-0.143-0.293-0.263
		c0.313-0.201,0.705-0.343,1.116-0.492c0.387-0.139,0.783-0.283,1.16-0.492l0.383-0.211l-0.076-0.432
		c-0.361-2.065,2.242-3.545,4.113-3.9c0.337-0.062,0.556-0.383,0.49-0.719c-0.06-0.333-0.387-0.55-0.715-0.49
		c-2.292,0.43-5.261,2.198-5.152,4.851c-0.195,0.084-0.403,0.16-0.618,0.235c-0.65,0.235-1.385,0.496-1.919,1.078l-0.231,0.253
		l0.09,0.329c0.11,0.395,0.321,0.702,0.548,0.933c-1.451,0.745-3.113,1.919-3.348,3.856l-0.012,0.098l0.02,0.096
		C448.878,238.716,449.007,238.997,449.123,239.242z"/>
	<path fill="#050002" d="M397.5,261.087c0.026,0.012,0.054,0.018,0.082,0.018c0.09,0,0.173-0.056,0.207-0.141l0.111-0.279
		c0.829-2.05,1.764-4.376,3.543-5.454c0.105-0.066,0.141-0.203,0.076-0.307c-0.066-0.108-0.203-0.14-0.309-0.078
		c-1.905,1.158-2.913,3.663-3.725,5.674l-0.112,0.277C397.329,260.91,397.384,261.042,397.5,261.087z"/>
	<path fill="#050002" d="M424.097,291.479c0.076,0,0.151-0.018,0.221-0.054c0.241-0.12,0.337-0.414,0.217-0.656
		c-0.669-1.323-1.57-2.515-2.441-3.671c-1.082-1.429-2.103-2.782-2.734-4.376c-0.1-0.251-0.381-0.375-0.636-0.275
		c-0.249,0.1-0.374,0.385-0.275,0.636c0.682,1.718,1.792,3.187,2.864,4.604c0.845,1.12,1.72,2.278,2.348,3.523
		C423.746,291.381,423.919,291.479,424.097,291.479z"/>
	<path fill="#050002" d="M388.183,294.39c0.086,0.032,0.173,0.05,0.263,0.05c0.305,0,0.59-0.187,0.704-0.49
		c0.652-1.74,1.636-3.466,3.005-5.277c0.249-0.333,0.183-0.803-0.148-1.054c-0.331-0.249-0.801-0.185-1.054,0.148
		c-1.457,1.929-2.507,3.776-3.21,5.658C387.595,293.81,387.795,294.245,388.183,294.39z"/>
	<path fill="#050002" d="M365.104,315.881c0.219,0,0.432-0.094,0.582-0.273c0.705-0.843,1.27-1.794,1.809-2.712
		c0.829-1.397,1.608-2.718,2.826-3.621c0.339-0.245,0.409-0.723,0.159-1.06c-0.251-0.337-0.725-0.409-1.06-0.158
		c-1.467,1.084-2.366,2.601-3.23,4.065c-0.536,0.907-1.042,1.762-1.67,2.513c-0.267,0.321-0.225,0.799,0.1,1.07
		C364.759,315.823,364.933,315.881,365.104,315.881z"/>
	<path fill="#050002" d="M280.677,364.967c0.068,0,0.141-0.018,0.207-0.054c0.664-0.353,1.656-0.604,2.71-0.871
		c1.987-0.498,4.041-1.016,4.855-2.399c0.349-0.586,0.432-1.273,0.249-2.045c0.05-0.137,0.191-0.313,0.311-0.448
		c1.65-0.604,3.464-0.946,5.534-1.054c0.247-0.012,0.432-0.223,0.421-0.466c-0.01-0.245-0.169-0.406-0.467-0.421
		c-2.206,0.114-4.137,0.49-5.903,1.146l-0.181,0.121c-0.233,0.267-0.558,0.632-0.612,1.072l-0.008,0.086l0.02,0.082
		c0.153,0.588,0.111,1.07-0.126,1.477c-0.63,1.062-2.585,1.556-4.311,1.989c-1.106,0.279-2.152,0.542-2.91,0.945
		c-0.217,0.118-0.299,0.387-0.183,0.604C280.364,364.879,280.517,364.967,280.677,364.967z"/>
	<path fill="#050002" d="M556.691,363.706c-0.283,0.381-0.209,0.919,0.171,1.202c0.154,0.114,0.335,0.171,0.512,0.171
		c0.261,0,0.52-0.12,0.688-0.347c0.413-0.55,0.761-1.164,1.098-1.758c0.857-1.505,1.596-2.804,3.173-3.027
		c0.47-0.068,0.795-0.502,0.727-0.97c-0.066-0.466-0.508-0.791-0.966-0.725c-2.411,0.343-3.48,2.22-4.422,3.876
		C557.347,362.697,557.04,363.239,556.691,363.706z"/>
	<path fill="#050002" d="M665.711,453.773c0.205,0.01,0.406,0.012,0.606,0.012c0.771,0,1.503-0.066,2.214-0.128
		c1.184-0.105,2.3-0.201,3.603-0.036c0.154,0.014,0.261-0.082,0.279-0.217s-0.08-0.263-0.217-0.279
		c-1.357-0.175-2.551-0.07-3.709,0.034c-0.879,0.08-1.792,0.161-2.75,0.114c-0.165,0.012-0.255,0.102-0.261,0.237
		C665.468,453.647,665.575,453.765,665.711,453.773z"/>
	<path fill="#050002" d="M682.588,452.982c1.786,0.542,3.436,0.996,5.116,0.996c0.421,0,0.843-0.03,1.269-0.092
		c0.12-0.018,0.201-0.128,0.184-0.245c-0.016-0.118-0.12-0.201-0.247-0.183c-2.037,0.301-4.014-0.227-6.196-0.891
		c-0.12-0.034-0.235,0.03-0.271,0.143C682.411,452.824,682.474,452.946,682.588,452.982z"/>
	<path fill="#050002" d="M685.43,459.843l-0.437-0.634l-0.685,0.343c-9.648,4.831-18.211,12.376-26.493,19.67
		c-3.581,3.153-7.284,6.415-10.991,9.378c-0.379,0.303-0.44,0.857-0.138,1.236c0.173,0.217,0.431,0.331,0.686,0.331
		c0.195,0,0.387-0.062,0.55-0.191c3.741-2.991,7.459-6.268,11.056-9.432c7.565-6.664,15.367-13.539,23.95-18.276
		c-0.365,0.482-0.777,0.949-1.216,1.447c-0.311,0.351-0.63,0.708-0.939,1.084c-0.311,0.375-0.255,0.929,0.12,1.238
		c0.375,0.307,0.927,0.257,1.238-0.12c0.295-0.359,0.6-0.703,0.897-1.038c1.01-1.142,2.053-2.322,2.635-3.968l0.094-0.265
		l-0.078-0.269C685.633,460.226,685.576,460.056,685.43,459.843z"/>
	<path fill="#050002" d="M592.417,480.888c7.963-7.465,16.939-15.885,24.51-18.821c0,0.165,0.06,0.333,0.179,0.466
		c0.263,0.295,0.711,0.319,1.004,0.06c0.46-0.41,0.46-1.198,0.319-1.75l-0.187-0.733l-0.723,0.235
		c-8.077,2.629-17.641,11.594-26.077,19.504l-1.02,0.957c-4.912,4.597-9.729,9.022-12.926,11.951
		c-2.039,1.863-4.661,4.143-6.903,5.213c-0.355,0.171-0.504,0.594-0.333,0.949c0.121,0.253,0.376,0.405,0.642,0.405
		c0.104,0,0.207-0.024,0.307-0.07c2.409-1.154,5.138-3.517,7.248-5.45c3.197-2.928,8.019-7.356,12.938-11.959L592.417,480.888z"/>
	<path fill="#050002" d="M633.789,460.088l-0.297-0.522l-0.572,0.175c-7.364,2.238-13.759,7.846-19.94,13.268
		c-1.548,1.357-3.089,2.708-4.632,3.994c-1.13,0.943-2.503,2.18-3.96,3.493c-4.745,4.275-11.246,10.134-16.003,11.758
		c-0.393,0.133-0.6,0.558-0.466,0.951c0.108,0.313,0.397,0.508,0.709,0.508c0.08,0,0.161-0.012,0.241-0.04
		c5.048-1.724,11.409-7.457,16.521-12.063c1.447-1.303,2.808-2.533,3.916-3.456c1.555-1.297,3.103-2.655,4.659-4.02
		c5.809-5.094,11.806-10.353,18.502-12.673c-0.002,0.002-0.004,0.006-0.004,0.006c-0.245,0.335-0.171,0.801,0.163,1.046
		c0.333,0.245,0.801,0.171,1.046-0.163c0.187-0.259,0.351-0.496,0.42-0.779l0.034-0.149l-0.052-0.325
		C634.038,460.82,633.986,460.437,633.789,460.088z"/>
	<path fill="#050002" d="M568.258,470.421l0.066-0.301c0.072-0.333-0.022-0.763-0.241-1.088c-0.197-0.293-0.478-0.484-0.791-0.538
		l-0.221-0.04l-0.195,0.108c-7.114,3.904-12.826,9.877-18.348,15.652c-4.548,4.757-9.251,9.677-14.683,13.362
		c-0.291,0.195-0.369,0.592-0.171,0.883c0.123,0.186,0.325,0.281,0.528,0.281c0.123,0,0.249-0.036,0.359-0.108
		c5.544-3.762,10.295-8.731,14.891-13.538c5.281-5.522,10.737-11.23,17.38-15.042c-0.018,0.042-0.03,0.088-0.044,0.135
		c-0.102,0.381-0.026,0.783,0.195,1.054l0.12,0.146l0.181,0.058c0.086,0.026,0.189,0.07,0.305,0.116l0.546,0.12
		c0.335,0.056,0.606-0.217,0.644-0.568C568.812,470.798,568.563,470.507,568.258,470.421z"/>
	<path fill="#050002" d="M730.508,500.561c-4.42-0.735-8.962-1.349-13.35-1.941c-9.456-1.281-19.223-2.612-28.456-5.223
		c0.078-0.108,0.143-0.231,0.221-0.337c0.269-0.367,0.526-0.761,0.753-1.184c0.004,0,0.006,0.002,0.01,0.002
		c0.012,0,0.024,0,0.038,0c0.211,0,0.412-0.01,0.582-0.022c0.046-0.004,0.084-0.026,0.128-0.036
		c0.861,0.128,1.724,0.297,2.637,0.488c1.672,0.355,3.382,0.715,5.09,0.715c0.574,0,1.148-0.062,1.722-0.158
		c0.14,0.12,0.301,0.217,0.496,0.253c5.518,1.006,11.578,1.905,19.066,2.828c0.044,0.006,0.088,0.008,0.133,0.008
		c0.542,0,1.012-0.405,1.078-0.957c0.076-0.594-0.351-1.138-0.947-1.212c-7.443-0.919-13.464-1.812-18.94-2.81
		c-0.142-0.024-0.279-0.016-0.411,0.01c-0.986-0.809-2.246-1.206-3.487-1.568c-1.297-0.381-2.527-0.759-3.362-1.584
		c0.155-0.08,0.307-0.169,0.466-0.245c0.245-0.116,0.488-0.233,0.725-0.361c0.129-0.07,0.225-0.171,0.325-0.269
		c4.303,0.949,8.761,1.192,13.093,1.391c2.437,0.114,4.958,0.229,7.402,0.478c0.03,0.002,0.058,0.002,0.088,0.002
		c0.434,0,0.805-0.329,0.851-0.769c0.048-0.468-0.297-0.889-0.765-0.937c-2.489-0.251-5.036-0.369-7.497-0.482
		c-4.265-0.195-8.651-0.432-12.816-1.355c-0.012-0.026-0.014-0.056-0.026-0.082c1.361-1.618,1.887-3.671,2.381-5.676
		c0.121-0.49,0.243-0.978,0.377-1.455c0.074-0.267-0.082-0.544-0.347-0.616c-0.273-0.074-0.54,0.082-0.616,0.347
		c-0.135,0.488-0.259,0.986-0.383,1.485c-0.48,1.941-0.951,3.784-2.124,5.213c-0.435-0.215-0.951-0.249-1.407-0.002
		c-0.191,0.104-0.391,0.199-0.588,0.293c-0.383,0.181-0.815,0.387-1.236,0.662c-0.361,0.231-0.59,0.59-0.672,0.98
		c-1.676,0.249-3.4,0.267-5.08,0.275c-1.606,0.006-3.264,0.012-4.885,0.229c-0.325,0.042-0.55,0.339-0.508,0.664
		c0.04,0.295,0.293,0.512,0.584,0.512c0.028,0,0.054-0.002,0.08-0.004c1.544-0.207,3.169-0.213,4.735-0.219
		c1.74-0.01,3.525-0.028,5.295-0.295c0.092,0.139,0.227,0.225,0.351,0.325c-0.494,0.769-0.857,1.598-1.192,2.423
		c-0.122,0.01-0.251,0.018-0.396,0.018c-0.012,0-0.028-0.004-0.032-0.002c-0.016,0-0.03,0.008-0.044,0.008
		c-1.594-0.542-3.093-0.807-4.508-0.767l-0.245,0.05c-1.321,0.528-1.293,1.762-1.088,2.722c-0.851-0.008-1.728-0.251-2.641-0.508
		c-1.389-0.393-2.822-0.797-4.362-0.421l-0.299,0.074l-0.167,0.255c-0.345,0.528-0.414,1.088-0.472,1.584
		c-0.026,0.197-0.05,0.395-0.098,0.586l-0.062,0.243l0.092,0.237c0.245,0.616,0.672,1.092,1.048,1.511
		c0.078,0.086,0.142,0.169,0.215,0.255c-1.588-0.03-3.35-0.339-5.201-0.674c-5.331-0.964-11.383-2.061-14.088,4.333
		c-0.143,0.337,0.018,0.727,0.353,0.869c0.084,0.036,0.171,0.052,0.259,0.052c0.259,0,0.502-0.151,0.612-0.404
		c2.29-5.417,7.312-4.504,12.629-3.545c2.21,0.401,4.297,0.759,6.21,0.674c0.09,0.072,0.193,0.129,0.313,0.161
		c7.977,2.156,16.164,3.372,24.082,4.544c5.711,0.849,11.616,1.724,17.354,2.948l0.309,0.064l0.277-0.148
		c0.235-0.125,0.424-0.321,0.626-0.53l0.203-0.203c0.345-0.331,0.359-0.881,0.03-1.224c-0.333-0.347-0.881-0.359-1.226-0.03
		c-0.084,0.082-0.167,0.167-0.249,0.251c-0.01,0.01-0.022,0.022-0.032,0.034c-5.656-1.188-11.439-2.045-17.039-2.876
		c-7.79-1.154-15.843-2.354-23.649-4.448c-0.245-0.43-0.536-0.815-0.827-1.14c-0.261-0.291-0.508-0.566-0.668-0.851
		c0.028-0.165,0.052-0.329,0.07-0.498c0.034-0.245,0.06-0.468,0.118-0.658c1.03-0.146,2.095,0.158,3.217,0.472
		c1.106,0.313,2.246,0.61,3.448,0.54c0.006,0.004,0.008,0.01,0.014,0.014c0.99,0.618,2.14,1.002,3.516,1.178
		c0.042,0.006,0.084,0.008,0.125,0.008c0.024,0,0.046-0.012,0.07-0.014c9.444,2.702,19.38,4.049,28.996,5.353
		c4.376,0.592,8.902,1.204,13.294,1.935c0.052,0.008,0.102,0.012,0.153,0.012c0.44,0,0.833-0.319,0.905-0.769
		C731.348,501.119,731.009,500.645,730.508,500.561z M696.522,490.605c0.939,0.277,1.827,0.56,2.559,0.994
		c-1.867,0.177-3.822-0.205-5.729-0.608c-0.799-0.169-1.618-0.333-2.433-0.464c0.309-0.747,0.63-1.467,1.048-2.124
		c0.112,0.034,0.227,0.064,0.349,0.064c0.028,0,0.056-0.004,0.084-0.006C693.471,489.692,695.069,490.178,696.522,490.605z
		 M685.32,491.006c1.176,0.002,2.417,0.235,3.745,0.67c-0.195,0.345-0.412,0.674-0.658,1.004c-0.114,0.155-0.215,0.339-0.327,0.5
		c-0.04-0.01-0.072-0.032-0.112-0.038c-1.088-0.14-1.977-0.431-2.722-0.897c-0.008-0.004-0.016-0.004-0.022-0.008
		C685.045,491.514,685.069,491.165,685.32,491.006z"/>
	<path fill="#050002" d="M569.531,349.471c0.343,0,0.684-0.161,0.899-0.46c0.536-0.745,1.186-1.415,1.873-2.118
		c0.554-0.57,1.13-1.16,1.656-1.811c0.384-0.472,0.311-1.17-0.163-1.556c-0.48-0.385-1.174-0.309-1.558,0.163
		c-0.462,0.57-0.977,1.1-1.521,1.66c-0.713,0.731-1.453,1.489-2.085,2.368c-0.359,0.498-0.243,1.19,0.251,1.546
		C569.081,349.403,569.306,349.471,569.531,349.471z"/>
	<path fill="#050002" d="M619.6,490.36c0.06,0,0.12-0.01,0.179-0.024c3.163-0.853,8.007-5.219,13.137-9.841
		c1.807-1.63,3.677-3.314,5.375-4.739c2.242-1.885,4.424-3.92,6.73-6.07c5.939-5.536,12.073-11.256,19.199-14.181
		c0.008,0.008,0.016,0.014,0.024,0.02c0.026,0.359-0.143,0.787-0.321,1.236c-0.048,0.121-0.094,0.239-0.138,0.359
		c-0.141,0.118-0.297,0.295-0.373,0.564c-0.1,0.369,0.114,0.745,0.478,0.847c0.339,0.094,0.677-0.076,0.815-0.381
		c0,0,0.008-0.004,0.014-0.008l0.219-0.133l0.078-0.241c0.052-0.163,0.119-0.331,0.187-0.5c0.253-0.646,0.57-1.447,0.335-2.284
		l-0.048-0.17l-0.124-0.128c-0.273-0.277-0.508-0.406-0.753-0.538l-0.287-0.163l-0.307,0.122
		c-7.499,2.977-13.821,8.872-19.937,14.572c-2.296,2.142-4.464,4.163-6.68,6.024c-1.716,1.443-3.593,3.135-5.409,4.771
		c-4.783,4.311-9.729,8.769-12.573,9.534c-0.367,0.098-0.584,0.478-0.486,0.843C619.02,490.159,619.297,490.36,619.6,490.36z"/>
</g>
</svg>
