<?xml version="1.0" encoding="utf-8"?>
<!-- Generator: Adobe Illustrator 17.0.0, SVG Export Plug-In . SVG Version: 6.00 Build 0)  -->
<!DOCTYPE svg PUBLIC "-//W3C//DTD SVG 1.1//EN" "http://www.w3.org/Graphics/SVG/1.1/DTD/svg11.dtd">
<svg version="1.1" id="Layer_1" xmlns="http://www.w3.org/2000/svg" xmlns:xlink="http://www.w3.org/1999/xlink" x="0px" y="0px"
	 width="800px" height="600px" viewBox="0 0 800 600" enable-background="new 0 0 800 600" xml:space="preserve">
<g>
	<path fill-rule="evenodd" clip-rule="evenodd" d="M211.595,397.274c-4.88,23.004,6.275,47.446,21.087,80.059
		c17.197,37.861,51.172,53.862,88.618,59.602c44.546,6.841,94.475,0.719,134.897-20.558c27.319-14.377,49.301-34.823,68.648-58.399
		c-4.031-18.257-8.257-29.511-8.257-29.511c10.143-14.82,46.434-9.562,56.388-47.861c14.071-54.168-15.258-207.895-132.663-270.133
		c-51.75-27.435-113.394-3.36-131.994,37.607c-27.054-2.61-56.7,4.69-69.647,43.768c-17.902,54.04-7.295,120.372,1.328,183.287
		C235.032,377.296,216.477,387.927,211.595,397.274z"/>
	<path fill-rule="evenodd" clip-rule="evenodd" fill="#B24A1E" d="M507.3,181.607c37.812,47.187,66.993,142.925,55.721,198.32
		c-5.064,24.87-41.947,28.502-55.721,43.765c-26.53,29.402-46.25,39.335-80.918,47.179c-5.689-20.678-9.974-45.659-0.662-81.37
		c16.587-63.608-18.576-179.858-74.381-216.424c-80.83,3.056-94.096,162.402-45.013,205.48
		c-15.222,19.173-33.158,58.129-42.45,86.161c-8.62-50.603-33.524-208.912-17.907-262.6c15.609-53.685,66.996-43.086,66.996-43.086
		s12.597-41.023,65.665-48.549C431.692,102.963,469.494,134.419,507.3,181.607z"/>
	<path fill-rule="evenodd" clip-rule="evenodd" fill="#F1D4A4" d="M418.016,369.548c-14.019,11.552-41.594,26.968-68.698,19.744
		c-27.108-7.222-52.344-22.647-61.226-73.234c-8.877-50.593,14.026-128.647,59.359-133.945
		C394.179,216.801,421.285,294.858,418.016,369.548z"/>
	<path fill-rule="evenodd" clip-rule="evenodd" d="M332.026,290.518c-8.413,0.485-14.955-5.78-19.163-9.155
		c-4.208-3.37-3.422-9.624,2.337-6.745c5.759,2.882,18.805,3.061,25.705,2.893C347.809,277.345,340.439,290.038,332.026,290.518z"/>
	<path fill-rule="evenodd" clip-rule="evenodd" d="M334.828,339.663c-4.205-23.121,38.631-10.644,32.714-1.922
		C367.542,337.741,346.981,334.849,334.828,339.663z"/>
	<path fill-rule="evenodd" clip-rule="evenodd" fill="#BCCD68" d="M209.504,405.18c-1.671,27.552,8.659,51.195,23.01,79.077
		c18.13,35.228,48.959,45.97,85.216,52.082c3.251-49.906,8.828-100.003,18.968-136.923c0,0-14.021-4.817-22.432-12.53
		c-20.87,21.121-53.042,110.647-53.042,110.647s-13.93-64.957-19.897-111.453C234.947,388.49,213.618,400.952,209.504,405.18z"/>
	<path fill-rule="evenodd" clip-rule="evenodd" fill="#C9D572" d="M431.931,529.55c39.047-12.942,66.939-37.384,84.005-61.177
		c-2.296-12.114-5.341-22.795-9.295-31.69c-17.905,21.887-55.05,43.075-87.556,43.075c-7.953-17.775-15.915-48.554-3.5-94.88
		c-19.534,12.127-40.567,18.867-68.134,16.459c-13.487,37.659-19.899,86.926-23.046,136.015
		C358.144,542.056,392.884,542.492,431.931,529.55z"/>
	<path fill-rule="evenodd" clip-rule="evenodd" d="M375.953,486.625c-8.716,1.663-18.224-4.335-19.625-13.972
		c-1.403-9.637,3.152-19.643,12.612-22.647c12.148-3.855,20.569,4.335,21.5,12.527C391.372,470.726,388.57,484.213,375.953,486.625z
		"/>
	<path fill-rule="evenodd" clip-rule="evenodd" fill="#7B9246" d="M378.293,477.471c-5.596,3.11-12.153,0-13.085-7.71
		c-0.934-7.713,5.922-16.047,13.549-10.602C384.837,463.501,384.365,474.096,378.293,477.471z"/>
	<path fill-rule="evenodd" clip-rule="evenodd" d="M322.677,228.319c-7.292,0-7.292,11.66,0,11.66
		C329.974,239.979,329.974,228.319,322.677,228.319z"/>
	<path fill-rule="evenodd" clip-rule="evenodd" d="M356.3,230.721c-8.504,0-8.504,13.593,0,13.593
		C364.798,244.314,364.798,230.721,356.3,230.721z"/>
	<path fill-rule="evenodd" clip-rule="evenodd" fill="#CF6C35" d="M505.088,409.528c0.96-13.238,1.406-26.486,0.734-39.747
		c-1.886-37.314-12.177-75.452-26.667-109.617c-12.532-29.544-27.742-58.004-52.31-78.734
		c-21.407-18.068-45.319-31.923-71.061-41.703c14.34,9.974,49.221,38.668,88.353,103.458c60.189,99.668,50.761,178.89,50.761,178.89
		S500.551,415.738,505.088,409.528z"/>
	<path fill-rule="evenodd" clip-rule="evenodd" fill="#CF6C35" d="M539.958,276.292c-7.251-45.924-61.636-128.689-108.25-149.514
		c-20.667-9.235-39.296-8.602-53.628-5.033c23.241,5.24,45.101,18.896,63.086,34.045c28.201,23.775,51.138,55.008,65.603,89.515
		c14.818,35.332,23.004,75.445,26.364,113.713c0.825,9.357,1.243,18.685,1.18,27.954c3.671-2.322,7.372-5.126,10.823-8.682
		C559.118,363.877,547.206,322.223,539.958,276.292z"/>
	<path fill-rule="evenodd" clip-rule="evenodd" fill="#CF6C35" d="M528.23,354.992c-4.14-37.142-11.347-76.913-26.916-110.922
		c-14.361-31.381-34.515-60.702-60.707-82.783c-20.522-17.292-45.421-33.174-72.21-36.512c-7.712,2.921-13.466,6.345-16.659,8.48
		c27.217,9.557,52.993,23.547,75.31,42.37c26.076,22.006,42.831,50.534,55.997,82.195c13.948,33.524,25.207,70.884,27.059,107.531
		c0.622,12.273,0.379,24.496-0.314,36.702c0.034-0.088,0.088-0.182,0.125-0.27c2.031-4.534,10.491-7.04,20.019-12.247
		C530.108,378.033,529.508,366.481,528.23,354.992z"/>
	<path fill-rule="evenodd" clip-rule="evenodd" fill="#CF6C35" d="M303.255,168.963c0,0-37.807-6.937-49.721,45.392
		c-11.907,52.331,2.592,141.512,2.592,141.512s2.374-98.999,14.498-135.641C285.646,174.841,303.255,168.963,303.255,168.963z"/>
	<path fill-rule="evenodd" clip-rule="evenodd" fill="#98331D" d="M277.877,258.146c0,0-7.767,41.651,3.626,78.493
		c11.398,36.844,22.276,41.117,22.276,41.117s-9.847,14.421-16.579,27.767c-6.732,13.349-12.431,28.836-12.431,28.836
		s-9.837-37.379-10.361-88.641C263.894,294.456,277.877,258.146,277.877,258.146z"/>
	<path fill-rule="evenodd" clip-rule="evenodd" fill="#A9C35C" d="M347.801,403.385c8.807,1.069,18.647,1.069,34.183-2.135
		c15.536-3.204,30.561-12.82,30.561-12.82s-3.11,14.955-4.146,21.894c-1.04,6.944-1.04,16.024-1.04,16.024
		s-17.087-8.545-30.553-8.545c-13.464,0-34.704,6.944-34.704,6.944S344.177,410.864,347.801,403.385z"/>
	<path fill-rule="evenodd" clip-rule="evenodd" fill="#A0BE56" d="M314.135,390.038c0,0,6.213,4.804,10.361,6.942
		c4.146,2.135,9.837,3.738,9.837,3.738s-1.549,6.408-2.584,11.214c-1.038,4.807-2.592,11.214-2.592,11.214
		s-8.807-5.344-14.501-6.945c-5.702-1.6-15.025-2.135-15.025-2.135s3.624-9.079,6.218-13.884
		C308.441,395.374,314.135,390.038,314.135,390.038z"/>
	<path fill-rule="evenodd" clip-rule="evenodd" fill="#A9C35C" d="M353.5,473.341c0,0,1.554,13.355,13.461,15.49
		c11.915,2.135,19.168-3.209,19.168-3.209s-7.253,22.429-26.413,16.556C340.548,496.301,353.5,473.341,353.5,473.341z"/>
	<path fill-rule="evenodd" clip-rule="evenodd" fill="#E8BD8D" d="M347.288,184.452c0,0,20.714,14.418,40.912,51.26
		c20.2,36.849,20.717,55.006,20.717,55.006s-28.486-39.519-41.955-61.411C353.5,207.413,347.288,184.452,347.288,184.452z"/>
	<path fill-rule="evenodd" clip-rule="evenodd" fill="#E8BD8D" d="M337.443,350.527l30.559-3.204c0,0,2.592,13.879-12.431,14.95
		C340.548,363.342,337.443,350.527,337.443,350.527z"/>
	<path fill-rule="evenodd" clip-rule="evenodd" fill="#E8BD8D" d="M381.984,372.419c7.585-2.241,32.631-6.407,31.077-3.209
		c-1.556,3.209-22.276,18.161-42.992,19.762C349.358,390.57,363.856,377.755,381.984,372.419z"/>
	<path fill-rule="evenodd" clip-rule="evenodd" fill="#F7E6C7" d="M315.172,272.024c2.555,2.112,11.915,2.667,15.539,2.667
		c3.621,0,1.027-20.556-2.07-20.82C322.426,253.336,312.581,269.884,315.172,272.024z"/>
	<path fill-rule="evenodd" clip-rule="evenodd" fill="#F7E6C7" d="M290.824,300.326c0,5.365,3.627,33.64,9.326,42.725
		c5.699,9.077,11.915-12.82,7.769-26.704C303.779,302.469,290.824,288.048,290.824,300.326z"/>
	<path fill-rule="evenodd" clip-rule="evenodd" fill="#FFFFFF" d="M354.598,233.735c-2.003,0-2.003,3.201,0,3.201
		C356.603,236.936,356.603,233.735,354.598,233.735z"/>
	<path fill-rule="evenodd" clip-rule="evenodd" fill="#FFFFFF" d="M321.02,230.269c-2.008,0-2.008,3.209,0,3.209
		C323.025,233.478,323.025,230.269,321.02,230.269z"/>
</g>
</svg>
