<?xml version="1.0" encoding="utf-8"?>
<!-- Generator: Adobe Illustrator 17.0.0, SVG Export Plug-In . SVG Version: 6.00 Build 0)  -->
<!DOCTYPE svg PUBLIC "-//W3C//DTD SVG 1.1//EN" "http://www.w3.org/Graphics/SVG/1.1/DTD/svg11.dtd">
<svg version="1.1" id="Layer_1" xmlns="http://www.w3.org/2000/svg" xmlns:xlink="http://www.w3.org/1999/xlink" x="0px" y="0px"
	 width="800px" height="600px" viewBox="0 0 800 600" enable-background="new 0 0 800 600" xml:space="preserve">
<g>
	<g>
		<path fill="#EBA279" d="M398.921,454.851c0,0,2.542,19.065,2.542,36.317c0,17.25-2.361,32.142-8.172,38.135
			c-5.811,5.992-9.442,10.714-15.435,13.983c-5.992,3.268-14.164,8.716-14.164,8.716s36.682,2.543,45.035-0.727
			c8.353-3.268,14.89-9.806,14.89-9.806s-2.724-14.345-2.542-25.423c0.181-11.077,5.266-27.783,5.266-27.783
			s12.893,10.896,19.975,25.423c7.082,14.527,9.261,16.888,9.987,32.322c0.727,15.436,1.635,21.429-1.271,25.605
			c-2.906,4.177-1.634,5.992-1.634,5.992s11.077,7.444,17.796-9.988c6.718-17.432,15.798-51.208,15.798-51.208
			s-11.44-7.265-18.16-15.799c-6.718-8.534-19.067-31.96-20.338-37.226c-1.271-5.266-1.089-7.99-1.089-7.99L398.921,454.851z"/>
		<radialGradient id="SVGID_1_" cx="388.1554" cy="552.4551" r="29.6242" gradientUnits="userSpaceOnUse">
			<stop  offset="0.5744" style="stop-color:#000000"/>
			<stop  offset="0.7977" style="stop-color:#000000"/>
			<stop  offset="1" style="stop-color:#000000"/>
		</radialGradient>
		<path fill="url(#SVGID_1_)" d="M424.707,537.474c0,0,3.45,5.812,2.36,11.622c-1.09,5.811-3.632,10.532-5.629,13.438
			c-1.998,2.906-4.722,4.903-4.722,4.903l-10.713-1.09l-4.722-5.992c0,0,1.272-1.998-3.995,0.181
			c-5.267,2.18-18.341,5.448-28.51,3.814c-10.169-1.635-23.608-7.264-18.704-10.533c4.903-3.268,14.891-3.45,14.891-3.45
			s7.99,2.725,17.795,0.727c9.806-1.997,17.433-5.266,26.331-8.353C417.988,539.653,424.707,537.474,424.707,537.474z"/>
		<radialGradient id="SVGID_2_" cx="469.2768" cy="550.368" r="33.8501" gradientUnits="userSpaceOnUse">
			<stop  offset="0.5744" style="stop-color:#000000"/>
			<stop  offset="0.7977" style="stop-color:#000000"/>
			<stop  offset="1" style="stop-color:#000000"/>
		</radialGradient>
		<path fill="url(#SVGID_2_)" d="M483.361,513.866c0,0,4.54,1.272,7.99,4.903c3.45,3.633,5.084,6.719,6.719,12.167
			c1.634,5.448,2.179,9.08,2.179,9.08s-2.361,5.447-4.176,9.079c-1.816,3.632-3.088,3.632-3.088,3.632l-8.171-0.546
			c0,0-1.634,0.909-1.453,1.816c0.182,0.908-2.542,13.802-7.082,19.976c-4.539,6.175-7.445,13.075-19.976,12.893
			c-12.529-0.182-20.882-2.36-17.069-6.9c3.813-4.54,8.898-3.995,11.44-5.448c2.543-1.451,4.721-3.813,4.721-3.813
			s2.906,4.177,5.266,2.179c2.361-1.997,6.356-3.994,11.259-19.43C476.824,538.019,483.361,513.866,483.361,513.866z"/>
		<radialGradient id="SVGID_3_" cx="431.181" cy="91.0261" r="8.6542" gradientUnits="userSpaceOnUse">
			<stop  offset="0.5744" style="stop-color:#000000"/>
			<stop  offset="0.7977" style="stop-color:#000000"/>
			<stop  offset="1" style="stop-color:#000000"/>
		</radialGradient>
		<path fill="url(#SVGID_3_)" d="M431.889,80.263c0,0,2.562,0.309,3.894,4.611c1.332,4.304,1.946,2.356-0.103,7.479
			c-2.049,5.123-1.946,7.89-1.537,8.3c0.41,0.409-3.586,2.664-5.328-0.615c-1.742-3.279-4.611-10.964-2.972-13.935
			C427.483,83.132,429.84,83.747,431.889,80.263z"/>
		<path fill="#EBA279" d="M377.115,63.437c0,0.307,1.23,3.278,2.562,9.221c1.332,5.944,2.356,6.968,2.869,8.095
			c0.512,1.127,0.717,1.127,0.307,4.816c-0.409,3.688,1.947,6.967,4.713,12.295c2.766,5.327,4.201,4.815,6.456,9.221
			c2.254,4.406,2.459,4.714,5.123,5.738c2.664,1.024,4.303,0.819,4.303,0.819s2.05,16.087,2.255,16.395
			c0.205,0.307,7.786-8.915,15.471-14.55c7.685-5.636,10.143-8.095,10.143-8.095s-2.049-2.562-2.458-10.041
			c-0.41-7.479-1.128-11.68-0.922-11.271c0.205,0.41,3.791-0.615,3.893-3.586c0.103-2.972,1.742-3.381,1.947-6.455
			c0.205-3.074,1.23-5.431-0.615-8.095c-1.844-2.664-3.278-5.225-5.021-1.229c-1.741,3.996-3.483,5.021-3.483,5.021l-12.397-19.469
			c0,0-20.595-2.766-26.025,1.742C380.804,58.518,377.115,63.437,377.115,63.437z"/>
		<radialGradient id="SVGID_4_" cx="398.7944" cy="80.9588" r="20.7487" gradientUnits="userSpaceOnUse">
			<stop  offset="0.5744" style="stop-color:#000000"/>
			<stop  offset="0.7977" style="stop-color:#000000"/>
			<stop  offset="1" style="stop-color:#000000"/>
		</radialGradient>
		<path fill="url(#SVGID_4_)" d="M410.785,80.771l12.497-14.955l-1.536-1.024L409.04,79.751c0,0-0.984-1.419-5.337-0.675
			c-4.601,0.787-5.633,1.439-7.506,2.118c-1.776,0.645-3.141,2.348-3.141,2.348l-3.279,1.127c0,0-2.458-1.332-5.635-0.819
			c-3.177,0.512-7.582,1.435-7.582,1.435l4.405-7.992l-0.614-1.742l-6.045,10.656c0,0,0.717,4.61,3.688,7.582
			c2.971,2.971,3.679,4.072,7.368,2.842c3.689-1.229,3.133-0.921,4.056-3.994c0.922-3.074,1.282-6.327,1.282-6.327l2.356-0.819
			c0,0,4.099,6.25,7.89,7.479c3.791,1.229,6.558-0.309,7.787-2.152c1.229-1.844,1.876-6.099,1.639-7.274
			C410.119,82.284,410.785,80.771,410.785,80.771z M388.329,91.364c-0.615,2.254,0.248,2.866-3.264,3.756
			c-3.334,0.844-3.585,0.409-6.045-2.255c-2.459-2.663-3.586-4.815-1.946-5.533c0,0,2.664-0.922,5.737-1.332
			c3.074-0.409,4.304-0.614,5.021,0.309C388.548,87.229,388.943,89.11,388.329,91.364z M408.323,88.05
			c-0.717,1.332-0.819,2.46-3.176,3.074c-2.357,0.615-3.894,0.718-5.943-0.717c-2.049-1.435-5.564-5.743-3.31-6.973
			c1.173-0.641,2.695-1.225,5.666-2.044c2.972-0.819,4.121-0.541,5.351-0.438c1.229,0.104,1.938,0.978,1.938,3.026
			C408.849,86.028,409.04,86.718,408.323,88.05z"/>
		<radialGradient id="SVGID_5_" cx="403.3084" cy="55.2794" r="26.9322" gradientUnits="userSpaceOnUse">
			<stop  offset="0.5744" style="stop-color:#000000"/>
			<stop  offset="0.7977" style="stop-color:#000000"/>
			<stop  offset="1" style="stop-color:#000000"/>
		</radialGradient>
		<path fill="url(#SVGID_5_)" d="M376.663,67.251c1.167,0.929-0.308,0,2.664-1.742c2.971-1.742,3.074,0,6.967-4.509
			c3.895-4.508,5.841-5.122,9.631-6.045c3.792-0.922,6.558,1.229,7.582,0.409c1.024-0.818,2.049,4.099,3.996,2.869
			c1.946-1.228,2.356,4.406,4.815,4.201c2.459-0.204,6.762,7.891,8.197,7.583c1.435-0.308,1.946,1.946,3.073,3.894
			c1.128,1.946,2.152,4.815,2.152,4.815s-0.001-6.353,1.025-8.096c1.024-1.741,1.639-4.814,2.767-5.02
			c1.127-0.205,1.331-0.41,1.946,0.513c0.615,0.922,1.844,2.254,1.844,2.254s-1.127-7.274-1.639-10.349
			c-0.512-3.074-0.717-9.529-4.508-14.55c-3.792-5.021-10.145-11.476-16.087-11.578c-5.942-0.103-11.988-0.409-13.832,2.05
			c-1.844,2.459-5.328,1.536-8.299,4.405c-2.971,2.869-5.533,3.586-6.353,5.943c-0.819,2.356-1.639,1.024-3.791,4.2
			c-2.151,3.177-4.815,4.2-4.508,7.173C374.614,58.644,370.617,62.434,376.663,67.251z"/>
		<path fill="#EBA279" d="M376.15,90.715c-0.717-1.025-1.64,0.307-2.459,2.356c-0.819,2.049-2.05,1.639-2.05,1.639
			s-0.883-1.27-2.081-2.916c0.133-0.178,0.25-0.365,0.34-0.567c0.516-1.161,1.477-2.928,2.12-4.081
			c1.912-0.83,3.82-0.871,4.54-1.861c0.82-1.128-0.41-1.947-4.304-1.64c-3.893,0.308-3.996,1.435-5.737,3.074
			c-1.742,1.639-3.177,2.971-4.508,2.459c-1.332-0.514-2.357-0.205-3.484,0.717c-1.127,0.922-1.434,1.536-2.151,3.074
			c-0.717,1.536-0.82,1.639-3.279,3.483c-2.459,1.843-4.098,5.941-3.791,10.656c0.307,4.713,1.332,11.168,0.718,14.753
			c-0.615,3.587-5.226,11.784-5.226,11.784c-3.381,7.172-1.64,15.369,3.176,15.369c4.816,0,10.759-11.271,10.759-11.271
			c-0.205-0.308,2.357-6.763,4.918-13.321c2.561-6.557,3.278-5.839,6.967-10.654c3.689-4.816,3.074-5.739,3.587-8.607
			c0.513-2.869,0.41-4.918,1.742-9.734C377.278,90.612,376.868,91.739,376.15,90.715z M370.822,101.473
			c-1.024,2.869-1.332,5.122-2.869,4.405c-1.536-0.717-2.663-1.127-1.639-3.688c1.024-2.563,2.254-5.124,3.483-4.509
			C369.798,97.682,371.847,98.604,370.822,101.473z"/>
		<radialGradient id="SVGID_6_" cx="401.9024" cy="279.3826" r="137.3793" gradientUnits="userSpaceOnUse">
			<stop  offset="0.5744" style="stop-color:#000000"/>
			<stop  offset="0.7977" style="stop-color:#000000"/>
			<stop  offset="1" style="stop-color:#000000"/>
		</radialGradient>
		<path fill="url(#SVGID_6_)" d="M343.475,133.131c0,0-0.968,7.385-4.842,16.584c-3.874,9.201-7.263,14.527-8.474,19.855
			c-1.21,5.326-4.116,14.891-5.205,18.401c-1.09,3.511-4.238,10.653,2.058,13.801c6.296,3.148,12.712,3.754,19.128,2.906
			c6.417-0.848,12.47-0.605,14.527-0.605c2.059,0,3.875,0.363,3.875,0.363s-0.606,14.648-1.09,26.027
			c-0.484,11.38-2.784,18.643-2.542,31.96c0.242,13.317,1.936,16.465,0.968,21.308c-0.968,4.842,0,11.137,0,11.137l3.39,0.727
			c0,0,2.664-3.148,2.179,15.254c-0.484,18.401-2.906,21.308-2.664,29.782c0.243,8.474,0.727,12.832,0.727,12.832l-7.022,1.936
			c0,0-4.842-0.969-5.568,9.442c-0.727,10.411-2.664,29.54-2.664,29.54l1.453,3.873c0,0-1.453,22.275-2.421,37.045
			c-0.969,14.769,2.905,20.822,10.411,21.065c7.506,0.242,88.859,0.969,101.45,0.484c12.59-0.484,19.611,2.663,19.37-6.296
			c-0.243-8.958,0.484-42.854-0.243-60.772c-0.727-17.917-2.179-33.654-2.179-33.654s0.001-5.81-8.232-5.81
			c-8.232,0-30.75-0.242-30.992,0.484c-0.243,0.727-3.632,0.241-3.632,0.241s2.906-11.379,5.327-25.665
			c2.421-14.285-0.242-16.948,1.21-29.78c1.454-12.832,5.327-26.149,7.021-36.56c1.695-10.412,1.696-13.075,4.842-21.308
			c3.148-8.231,5.569-29.054,7.991-51.329c2.421-22.276,7.263-42.613-0.485-54.478c-7.748-11.864-12.348-13.801-15.979-16.948
			c-3.632-3.149-5.327-6.78-5.327-9.202c0-2.42-0.727-4.6-0.727-3.873c0,0.727-13.317,4.358-18.886,10.169
			c-5.569,5.812-11.864,10.653-17.917,16.465c-6.053,5.811-11.621,10.653-16.706,14.044c-5.085,3.389-2.664,1.693-7.748,8.957
			c-5.084,7.264-3.39,11.138-7.99,10.169c-4.6-0.968-2.664-4.115-7.747,1.938c-5.085,6.053-11.864,13.316-8.717,6.295
			c3.147-7.021,6.296-5.084,5.811-15.012c-0.485-9.927,0.968-20.337,0.968-20.337S351.586,127.562,343.475,133.131z"/>
		<path fill="#EBA279" d="M409.109,314.333c0,0-0.771,7.848-1.815,10.434c-1.043,2.586-1.452,3.63-1.407,5.671
			c0.046,2.041-0.998,5.717,0.272,8.347c1.271,2.631,1.725,4.083,2.995,5.081c1.27,0.998,3.583,1.633,4.536,0.182
			c0,0,1.815,2.041,3.857,1.451c2.04-0.59,2.721-2.54,2.721-2.54s1.407,2.178,3.674,1.497c2.268-0.68,2.178-2.631,2.178-2.631
			s0.589,2.087,2.994,1.905c2.404-0.182,3.357-2.904,3.357-2.904s-2.45-1.858-2.314-2.993c0.136-1.135,1.36-2.087,1.36-2.087
			s-1.133-1.768-0.907-3.267c0.226-1.497,0.317-5.035-0.228-7.53c-0.544-2.495-0.362-3.356,0.091-5.58
			c0.454-2.223,0.726-3.583,0.726-3.583S409.473,308.254,409.109,314.333z"/>
	</g>
	<path fill="#4D4D4D" d="M422.53,394.023c0,1.482-1.201,2.684-2.683,2.684h-10.751c-1.482,0-2.683-1.201-2.683-2.684v-7.2
		c0-1.481,1.201-2.684,2.683-2.684h10.751c1.482,0,2.683,1.202,2.683,2.684V394.023z"/>
</g>
</svg>
