<?xml version="1.0" encoding="utf-8"?>
<!-- Generator: Adobe Illustrator 17.0.0, SVG Export Plug-In . SVG Version: 6.00 Build 0)  -->
<!DOCTYPE svg PUBLIC "-//W3C//DTD SVG 1.1//EN" "http://www.w3.org/Graphics/SVG/1.1/DTD/svg11.dtd">
<svg version="1.1" id="Layer_1" xmlns="http://www.w3.org/2000/svg" xmlns:xlink="http://www.w3.org/1999/xlink" x="0px" y="0px"
	 width="800px" height="600px" viewBox="0 0 800 600" enable-background="new 0 0 800 600" xml:space="preserve">
<g>
	<path fill="#110C1A" d="M383.744,307.641c12.907,64.514-13.959,124.278-60.011,133.493
		c-46.043,9.212-93.841-35.611-106.751-100.125c-12.904-64.511,13.962-124.278,60.011-133.49
		C323.042,198.305,370.834,243.13,383.744,307.641z"/>
	<path fill="#E6F5F9" d="M376.714,309.05c11.822,59.07-12.78,113.793-54.945,122.233c-42.168,8.434-85.93-32.61-97.755-91.679
		c-11.819-59.069,12.783-113.799,54.948-122.233C321.129,208.934,364.894,249.981,376.714,309.05z"/>
	<path fill="#CCCCCC" d="M373.262,343.401c1.268-33.152-18.582-60.835-44.338-61.824c-25.756-0.991-47.673,25.076-48.944,58.239
		c-1.276,33.153,18.576,60.827,44.332,61.824C350.066,402.631,371.983,376.554,373.262,343.401z"/>
	<g>
		<path fill="#2E58A6" d="M374.682,344.052c7.241-28.696-5.907-56.761-29.349-62.676c-23.451-5.921-48.327,12.55-55.568,41.249
			c-7.244,28.693,5.896,56.75,29.346,62.668C342.557,391.213,367.441,372.748,374.682,344.052z"/>
		<path fill="#FFFFFF" d="M350.335,344.273c-2.463,5.126-6.198,9.184-10.513,11.659c1.747,6.012,3.861,12.157,5.697,18.05
			c6.256-3.507,11.853-8.896,16.132-15.648C359.162,354.764,353.136,347.636,350.335,344.273z"/>
		<path fill="#FFFFFF" d="M334.369,358.124c-2.746,0.653-5.594,0.681-8.393-0.025c-7.236-1.83-12.387-8.088-14.203-15.98
			c-5.193,2.624-10.936,4.858-16.458,5.708c2.976,14.712,12.392,26.465,25.726,29.825c5.572,1.406,11.241,1.193,16.655-0.363
			C336.387,370.951,335.371,364.507,334.369,358.124z"/>
		<path fill="#686868" d="M340.464,335.416c1.412-5.572-1.143-11.02-5.702-12.171c-4.548-1.143-9.378,2.447-10.784,8.011
			c-1.406,5.572,1.14,11.017,5.696,12.165C334.225,344.575,339.061,340.982,340.464,335.416z"/>
	</g>
	<path fill="#110C1A" d="M523.609,336.935c-9.754,53.378-48.554,91.01-86.658,84.048c-38.105-6.964-61.085-55.883-51.336-109.265
		c9.754-53.378,48.556-91.01,86.655-84.048C510.379,234.632,533.361,283.548,523.609,336.935z"/>
	<path fill="#E6F5F9" d="M517.791,335.867c-8.932,48.883-44.46,83.34-79.348,76.965c-34.891-6.375-55.939-51.17-47.012-100.047
		c8.935-48.883,44.46-83.337,79.351-76.962C505.67,242.194,526.724,286.989,517.791,335.867z"/>
	<path fill="#CCCCCC" d="M472.675,335.712c-1.124-19.858-19.246-34.98-40.474-33.776c-21.231,1.196-37.523,18.263-36.405,38.124
		c1.124,19.852,19.249,34.974,40.474,33.77C457.498,372.629,473.799,355.564,472.675,335.712z"/>
	<g>
		<path fill="#2E58A6" d="M463.519,326.84c-1.342-23.622-18.075-41.894-37.379-40.798c-19.31,1.088-33.875,21.128-32.535,44.756
			c1.332,23.625,18.07,41.888,37.374,40.798C450.29,370.503,464.85,350.468,463.519,326.84z"/>
		<path fill="#FFFFFF" d="M444.99,332.83c-0.648,4.506-2.53,8.498-5.232,11.418c2.771,4.169,5.857,8.345,8.664,12.404
			c3.931-4.171,6.914-9.625,8.564-15.789C454.235,338.729,447.938,334.726,444.99,332.83z"/>
		<path fill="#FFFFFF" d="M436.126,347.227c-1.943,1.151-4.105,1.849-6.414,1.976c-5.957,0.338-11.385-3.203-14.657-8.791
			c-3.327,3.241-7.186,6.322-11.194,8.287c5.796,10.513,15.783,17.231,26.761,16.611c4.589-0.26,8.861-1.774,12.619-4.268
			C440.732,356.524,438.421,351.849,436.126,347.227z"/>
		<path fill="#686868" d="M435.343,328.44c-0.252-4.597-3.507-8.135-7.258-7.93c-3.745,0.221-6.574,4.105-6.311,8.697
			c0.257,4.59,3.504,8.13,7.252,7.917C432.777,336.91,435.606,333.024,435.343,328.44z"/>
	</g>
	<path fill="#110C1A" d="M348.472,355.896c-13.599,1.182-27.19,4.326-39.807,9.605c-19.655,8.224-39.383,21.651-55.809,36.062
		c-20.932,16.096,2.948,17.057,8.005,8.542c17.807,17.023,39.555,25.452,60.907,21.178c27.481-5.5,47.471-30.67,54.801-63.883
		c17.466,4.196,16.744-6.383,1.511-8.127C368.36,357.059,358.83,354.994,348.472,355.896z"/>
	<path fill="#FAB1D7" d="M322.749,368.79c-24.458,7.136-41.31,17.992-55.731,30.163c-4.091,3.454-8.371,8.03-12.974,12.168
		c19.902,19.102,44.236,28.593,68.124,23.816c29.82-5.968,51.69-32.721,60.387-68.268
		C377.926,365.687,358.802,358.263,322.749,368.79z"/>
	<path fill="#110C1A" d="M276.116,407.331c0,0,40.136-42.398,90.542-36.516C366.658,370.816,296.389,386.903,276.116,407.331z"/>
	<path fill="#110C1A" d="M312.786,409.56c0,0,20.924-31.337,53.628-33.075C366.414,376.485,323.463,394.361,312.786,409.56z"/>
	<path fill="#110C1A" d="M413.346,351.199c11.567-0.886,23.406-0.127,34.73,2.552c17.632,4.185,36.048,12.725,51.831,22.537
		c19.797,10.607-0.113,14.718-5.539,8.273c-12.583,16.744-29.676,26.825-48.18,26.194c-23.827-0.805-44.095-19.166-54.837-46.015
		c-14.075,5.943-14.936-3.034-2.397-6.61C396.81,354.925,404.524,351.88,413.346,351.199z"/>
	<path fill="#FAB1D7" d="M436.713,358.462c21.508,2.605,37.158,9.384,50.943,17.596c3.917,2.334,8.135,5.58,12.575,8.418
		c-14.059,18.781-33.164,30.108-53.874,29.402c-25.853-0.88-47.914-20.306-60.133-48.922
		C389.975,363.491,404.995,354.617,436.713,358.462z"/>
	<path fill="#110C1A" d="M481.187,384.348c0,0-39.56-30.022-81.044-18.114C400.142,366.235,461.34,370.013,481.187,384.348z"/>
	<path fill="#FAB1D7" d="M376.938,287.482c-7.377,1.218-14.836,3.286-20.182,3.541c-18.872,0.875-35.663-5.766-53.309-11.565
		c-18.335-6.037-36.906-12.154-54.09-21.076c-6.807-3.526-12.835-7.587-18.463-12.041c6.35-12.921,15.919-23.132,28.475-29.02
		c38.395-17.998,89.969,11.008,115.185,64.802C375.39,283.908,376.18,285.697,376.938,287.482z"/>
	<path fill="#110C1A" d="M380.309,292.597c9.259-6.829,6.569-11.493-6.114-8.29c-12.7,3.2-61.018-3.64-86.808-12.415
		c-25.79-8.766-54.339-23.442-65.137-29.668c-10.798-6.217-13.879,10.405,4.875,19.135c18.753,8.73,58.4,24.237,100.465,30.742
		C369.661,298.598,380.309,292.597,380.309,292.597z"/>
	<path fill="#FAB1D7" d="M495.849,293.156c-13.782,4.802-28.904,5.547-43.137,8.575c-7.283,1.544-14.914,3.551-22.418,3.432
		c-8.252-0.141-16.24-2.051-24.245-3.931c-3.505-0.822-7.44-2.065-11.526-3.255c1.138-3.731,2.469-7.465,4.044-11.169
		c17.754-42.171,56.606-66.056,86.755-53.345c17.845,7.51,28.641,26.158,30.802,48.872
		C509.133,285.165,502.412,290.864,495.849,293.156z"/>
	<path fill="#110C1A" d="M386.43,304.212c-7.678-6.546-5.04-10.441,5.851-6.851c10.895,3.582,53.536,0.634,76.605-5.406
		c23.083-6.037,48.916-17.057,58.729-21.807c9.832-4.755,11.487,9.94-5.428,16.389c-16.921,6.438-52.512,17.497-89.673,20.533
		C395.356,310.105,386.43,304.212,386.43,304.212z"/>
	<path fill="#110C1A" d="M529.655,156.605c-28.331,77.956-86.653,114.535-137.706,129.394l2.638-60.215
		C394.587,225.783,478.566,225.785,529.655,156.605z"/>
	<path fill="#110C1A" d="M254.046,165.235c24.347,62.508,72.168,91.004,113.721,102.071l-3.247-48.637
		C364.521,218.669,296.629,220.225,254.046,165.235z"/>
	<path fill="#110C1A" d="M455.372,402.936c0,0-20.921-31.34-53.627-33.078C401.745,369.858,444.696,387.734,455.372,402.936z"/>
	<path fill="#110C1A" d="M280.45,242.421c0,0,38.412,44.316,89.249,40.51C369.699,282.931,299.901,263.815,280.45,242.421z"/>
	<path fill="#110C1A" d="M482.64,252.447c0,0-34.644,42.342-81.573,40.294C401.067,292.741,465.08,272.914,482.64,252.447z"/>
</g>
</svg>
