<?xml version="1.0" encoding="utf-8"?>
<!-- Generator: Adobe Illustrator 17.0.0, SVG Export Plug-In . SVG Version: 6.00 Build 0)  -->
<!DOCTYPE svg PUBLIC "-//W3C//DTD SVG 1.1//EN" "http://www.w3.org/Graphics/SVG/1.1/DTD/svg11.dtd">
<svg version="1.1" id="Layer_1" xmlns="http://www.w3.org/2000/svg" xmlns:xlink="http://www.w3.org/1999/xlink" x="0px" y="0px"
	 width="800px" height="600px" viewBox="0 0 800 600" enable-background="new 0 0 800 600" xml:space="preserve">
<g>
	<g>
		<path fill="#333333" d="M314.484,147.167l-0.689,0.692c-6.9-4.832-14.491-6.9-22.772-6.209c-1.38-0.692-2.76-0.692-4.14-0.692
			c-2.76,0-6.208,0-8.968,0c-0.692,0-1.38,0-2.76,0.692c-6.9,1.376-13.8,2.068-20.012,3.449c-0.689,0-0.689,0-1.38,0
			c-2.069,1.38-2.069,1.38-3.452,1.38l0,0c-0.689,0-1.377,0-2.068,0c-3.449,0.689-6.209,1.38-9.661,1.38c0,0,0,0-0.689,0
			c0,0-0.691,0-2.072,0v0.691c-1.38,0-3.449,0-5.52,0c0,0-0.691,0-1.38,0.685c1.38,0.692,2.072,0.692,4.14,0.692c0,0,0.692,0,1.38,0
			c-1.38,0.692-2.069,1.383-2.76,2.071c-0.689,0-0.689,0-0.689,1.38c0.689,0,1.38,0,2.068,0.688c0,0.692,0.692,0.692,1.38,0.692
			c0,2.76,0,5.52,0,8.969c0,1.383,0,3.451,0,5.523c0,0,0,0.688,0,1.376c-0.689,0-1.38,0.692-1.38,1.384
			c-1.38,4.14,0,6.9,2.072,9.657c0,0.692,0,1.384,0,1.384c0,0.688,0,0.688,0,1.376c0.689,0,0.689,0.692,1.377,1.384
			c0.692,0,1.383,0,1.383,0c0.689-1.384,1.38-2.072,2.069-2.76c0,0.688,0.691,0.688,1.38,1.376c0,0.692,1.38,1.384,1.38,2.072
			c0.688,0.689,0.688,1.38,0.688,1.38c0,0.689,0,0.689,0,0.689c0.692,0.691,1.384,0.691,1.384,1.383
			c1.38-0.692,2.068-1.383,2.76-2.072c2.068,0,4.14-0.692,6.209,0c7.592,0.689,15.872,0,24.152-1.38
			c2.76-0.688,5.52-1.38,7.588-2.072c7.592,0,15.18-0.689,23.46-2.068c0-0.692,0-0.692,0-0.692s0-0.689,0.692-0.689
			c2.068,0,3.449,0,3.449-2.068c0.691,0,0.691-0.692,0.691-1.383c1.38,0,2.069-0.692,3.449-1.377
			c0.692-2.072,2.072-4.14,3.452-5.523c0-0.689,0-0.689-0.692-1.376c-0.689-5.523-2.068-11.732-4.14-17.252c2.072,0,4.14,0,5.52,0
			c-1.38-2.071-2.76-3.449-4.829-4.14c-0.691,0-1.38,0-2.072,0C314.484,147.859,314.484,147.859,314.484,147.167z M313.104,151.999
			c0,8.969,0,17.252,0.691,25.529c0,0,0,0-0.691-0.692c0-0.685,0-0.685-0.689-1.377c-2.072,0-3.452,0-4.832-0.691
			c-0.689,0-1.38,0-1.38,0c-0.688,0-0.688,0-0.688,0c0-7.589-0.692-14.489-3.452-21.389c1.38,0,3.452,0,4.832,0
			c-0.692-1.38-0.692-1.38-0.692-1.38c1.38,0,2.76,0,4.14,1.38c0.691,0,1.38,0,2.072,0
			C313.104,153.379,313.104,153.379,313.104,151.999z M284.123,151.31c0.692,0,1.38,0,2.072,0c-0.692,6.901-0.692,13.108,0,20.009
			c0,0.692,0,0.692,0,0.692c-0.692,0-1.38,0-2.072,0.688C284.815,165.799,284.815,158.211,284.123,151.31z M288.264,151.999
			c1.38,0,2.76,0,4.14,0c-0.688,8.28-0.688,15.18,0.692,20.7c-1.38,0-3.452,0-4.832,0c0-0.688,0-0.688,0-1.38
			C288.955,164.419,288.955,157.519,288.264,151.999z M299.304,151.999c0,0,0,0,0.692,0c-0.692,8.28,0.688,15.869,3.448,22.081
			c-2.76,0-6.208-0.692-9.66-1.38c1.38-6.9,1.38-13.8,0-20.7c1.38,0,2.072,0,3.452,0c-0.692,6.9-0.692,13.8,0,20.012
			c0.688,0,1.38-1.384,2.068-1.384c0-0.689,0-0.689,0-1.376C299.996,163.728,299.304,157.519,299.304,151.999z M259.974,151.31
			c0,0,0,0-1.38,0c0,0.689,0,0.689-0.692,0.689v1.38c-0.692,1.38-0.692,2.072-0.692,3.448c0,0,0,0.692,0.692,0.692
			c0.692,6.209,2.072,11.732,2.76,17.249c-2.068,0-2.068,0-3.452,0.691c0-8.28,0-16.56,0-24.84c2.763,0,6.9,0,10.352,0
			c-0.689,2.76-0.689,4.832-0.689,8.28c0,6.212,1.38,11.729,3.449,15.181c-0.689,0-0.689,0-0.689,0c-1.38,0-2.072,0-2.76,0.689
			c0.689-7.589,0-15.869-1.38-22.769c0-0.689,0-0.689-0.691-1.38c-0.692,0-1.38,0-2.069,0c0,0,0,0,0,0.691l-0.691,0.689
			c0.691,2.76,0.691,6.9,1.38,9.66C262.734,158.211,261.355,154.759,259.974,151.31z M279.295,151.31c0.689,0,0.689,0,1.38,0
			c-0.692,7.588,0,15.177,0,22.077c0-0.689-0.692-0.689-1.38-0.689C279.983,165.799,279.983,158.211,279.295,151.31z
			 M272.395,150.619c0.689,0,2.068,0,3.448,0c0.692,7.592,0.692,15.18,0,23.46c-0.688,0-2.068,0-2.068,0c-0.691,0-1.38,0-2.76,0l0,0
			C271.703,166.488,272.395,158.899,272.395,150.619z M244.794,153.379c-0.692,0-0.692,0-1.384,0c3.452-1.38,6.9-2.76,9.664-2.76
			c0,8.28-1.38,17.248-1.38,25.532c-1.383,0.685-3.451,0.685-4.832,1.377c-0.689-1.377-0.689-2.76-0.689-4.14
			c-1.38-0.689-1.38-1.376-1.38-2.76c0,0,0,0,0-0.689C244.794,164.419,244.794,158.899,244.794,153.379z M239.963,156.827
			L239.963,156.827c0-0.688,0-2.068,0-2.76l0,0C239.963,154.759,239.963,155.451,239.963,156.827z M251.694,181.668
			c1.38,0,2.069,0,2.76,0c0.689,0,2.069,0,2.757-0.689c4.144,0.689,8.972,2.072,13.112,2.072
			C264.112,183.739,257.903,183.052,251.694,181.668z"/>
		<path fill="#333333" d="M446.967,188.568c-2.76,0-4.137,0-6.209,0c-4.829-0.689-9.661-1.38-15.181-1.38
			c-27.601,0.692-55.892,0.692-84.182,0c-25.532-1.376-51.753,0-77.284,4.14c-4.137,0.691-8.969,1.383-13.108,2.072
			c-0.692,0.689-1.38,0.689-2.069,1.38c-0.691,0-0.691,0.692-1.38,0.692c-0.692,0-1.38,0-2.76,0
			c-8.283,0.689-15.872,3.449-24.152,7.588c-1.38,2.069-3.449,2.76-4.832,4.14c0.691-2.071,1.383-4.14,2.072-5.52
			c1.38,0,2.072,0,2.76-0.692l1.38-0.689l-1.38-0.689c-0.689,0-1.38,0-3.449-0.691c-0.692,0.691-1.383,1.38-2.072,2.76
			c-2.76,3.449-4.14,6.9-5.52,11.04c-0.692,0-0.692,0.691-1.38,1.38c0-4.14,0-8.28,0.689-12.42
			c-0.689,4.831-2.068,9.66-2.757,14.488c-2.76,3.452-4.832,7.592-6.9,11.732c0,0,0,1.38,0.688,2.068c0,0.692,0,1.384,0,2.76
			c0,0.692,0,1.384,0,3.452c0.689,0,0.689,0.692,0.689,1.38c-0.689,0-0.689,0.691-0.689,2.068c-0.688-3.449-0.688-6.209-0.688-8.969
			c-1.38,6.212-2.76,13.8-2.76,22.08c0,2.072,0,4.828,0,6.9c0,7.589,0,14.489,0,22.772c0,22.077,0.688,44.161,1.38,66.241
			c1.38,28.288,2.757,56.581,4.137,84.869c0-3.448-0.689-6.208-1.38-8.968c0,0,0,0,0,0.688c-0.689,2.072-1.376,3.449-1.376,4.832
			c1.376,6.208,2.757,11.731,4.14,17.248c4.14,15.184,13.108,24.152,26.909,25.532c7.592,5.52,17.252,8.28,28.292,8.28
			c0,0,0,0,1.38,0l0,0c12.421,1.38,24.149,1.38,36.569,2.072c66.241,1.377,131.794,0.685,198.035-2.763
			c11.732,0,24.152-0.689,35.881-2.068c1.38,4.14,4.832,5.517,11.044,4.14c7.588-2.76,13.105-6.208,16.557-11.04
			c7.595-3.451,13.112-8.968,17.248-17.94c-0.685-0.692-0.685-0.692-0.685-0.692c0-0.688,0-0.688,0-0.688
			c0.685-0.689,0.685-1.38,1.38-2.072c0.689-6.9,1.374-14.491,1.374-21.392c1.383-12.417,2.078-24.149,1.383-36.569
			c0-17.249-1.383-33.809-2.068-51.061c0.685-16.557,0.685-33.12,0.685-49.68c0.694-22.769-1.374-44.853-5.517-66.241
			c0.694,0.689,1.38,0.689,2.068,0.689c0-0.689,0-1.377,0-2.068c-0.689-5.52-2.068-11.04-4.826-15.181
			c-0.694,0-0.694-0.691-0.694-1.38c0,0.689,0,0.689,0,1.38c-3.449-4.828-7.586-8.969-13.106-12.42
			c-0.694-0.689-1.38-0.689-2.072-0.689c0.692,0,1.377,0,2.072,0c-1.38-0.692-2.763-1.383-5.519-2.072
			c-6.904-1.38-13.112-2.072-20.012-2.072C502.167,188.568,474.567,187.88,446.967,188.568z M360.716,193.4
			c0-0.689,0-0.689-0.691-0.689c11.731,0,23.46,0,35.88,0c-4.14,0-8.277,0-12.42,0.689c29.672-0.689,59.344,0,89.702,0.689
			c2.072,0,3.452,0,4.832,0.691c-2.76,0-6.209,0-9.66,0c0,0,0,0-0.692,0.692c24.844,0,48.993,1.38,74.524,2.757
			c-0.688,0-1.38,0-1.38,0.692c4.828-0.692,9.66-0.692,13.797,0.691c0.694,0.689,0.694,0.689,0.694,1.377
			c2.069,1.38,4.137,2.763,5.52,4.14c4.137,17.252,6.9,33.812,8.28,49.684c0,15.177,0,31.049,0,46.229
			c0,22.772,1.374,44.849,2.757,66.241c-2.757-5.52-4.832-11.04-8.283-16.56l0,0c0.694,3.452,1.383,6.9,2.078,9.66
			c1.373,6.209,2.753,12.424,3.448,18.632c-0.694,3.449-1.38,7.592-0.694,11.729c0.694,2.072,0.694,4.14,0.694,5.52
			c4.137,18.629,2.757,35.192-3.448,51.753c-0.695-2.072-1.384-3.449-2.078-5.523c0-0.685-0.685,0-0.685,0.692
			c-0.689,2.072-1.384,4.832-1.384,6.9c-0.685,1.384-1.376,2.76-2.068,4.141c-0.685,3.451-1.38,6.9-2.757,9.66
			c-0.692,1.384-1.38,2.76-2.76,4.14c-1.383,0-2.068,1.383-2.763,1.383c-1.376,0-2.068,0-2.757,0c-0.695,0-1.383-1.383-2.072-2.072
			c-0.692,0.689-0.692,2.072-1.38,2.072c0.689,0.685,1.38,2.068,2.069,2.068c-0.689,0-2.069,0-2.069,0.692
			c-2.072,0.689-4.14,0.689-5.52,0.689c0,0,0.689,0,1.38,0.689c-4.14,0.691-7.592,0.691-11.732,0.691
			c-0.689,0-0.689,0.689-0.689,1.38c0,0,0,0,0.689,0c-2.76,0-5.52,0-8.969,0.692c-4.143-0.692-8.28-0.692-13.112-0.692h-1.38
			c0,0-0.689,0-1.38,0c-10.352,0.692-22.08,1.38-32.429,2.068c-6.211-4.14-12.423-6.209-19.324-8.277l-1.376,0.685
			c7.588,2.075,13.8,4.143,20.009,7.592c-3.452,0-6.209,0-9.661,0c0.692,0,1.38,0,2.072,0.692c-2.763,0-4.143,0-6.9,0
			c-2.072,0-3.452,0-5.52,0c-1.38-0.692-2.76-1.38-4.143-1.38c-4.829-3.451-9.661-6.903-15.869-8.971h-0.691
			c3.451,3.451,8.28,6.211,12.423,8.283c0,0-1.38,0-2.072,0c-6.9,0-13.108,0-20.009-0.692c-7.592-4.14-14.492-8.28-22.772-10.348
			l0,0c1.38,1.376,3.452,2.757,6.209,2.757c0.692,0.691,0.692,0.691,0.692,1.383c3.452,2.068,6.9,4.137,11.04,6.209
			c-4.14,0-7.588,0-11.04,0c-11.729-6.209-23.46-11.732-35.192-16.56h-0.689c8.969,6.9,19.32,12.42,30.361,15.869
			c-4.14,0-7.592,0-11.04-0.689c-10.352-0.691-20.012-1.38-30.361-1.38l0,0c-0.691-0.689-1.38-0.689-2.76-1.38
			c-9.66-4.832-18.632-10.352-27.601-15.869c-8.971-9.663-19.32-16.564-31.052-22.084c0-2.757,0-4.832,0-7.588
			c8.972,9.657,18.632,16.557,30.361,21.389c-0.689,0-0.689-0.688-0.689-0.688c-10.352-7.592-20.012-15.181-29.672-22.772
			c0-2.072,0-4.828,0-7.588c7.592,6.9,15.18,12.417,23.46,18.632c2.072,1.376,4.144,1.376,6.212,0l0,0
			c-1.38-0.692-2.76-1.384-4.14-2.072c0-0.692,0-0.692-0.691-1.38c-0.689-0.689-1.38-1.38-1.38-2.072
			c-1.38-0.692-2.068-0.692-2.76-1.377c-6.9-4.143-13.8-8.283-20.7-13.115c0-3.448,0-6.9,0-10.348c8.972,6.9,17.94,13.8,26.912,20.7
			c0.692,0,1.38,0,2.068,0c0.692-0.688,2.072-0.688,2.76-0.688c-0.689,0-2.068-1.38-2.76-1.38l-0.689-0.691c0,0,0,0-0.688-0.692
			c-8.972-6.9-17.944-13.8-27.604-20.009c0-3.449,0-6.9,0-10.348c7.592,8.28,16.56,15.18,26.912,21.389
			c0-0.689,0.692-0.689,1.38-1.38v-0.689c-1.38,0-2.072-0.692-2.76-1.38c-10.352-6.9-18.632-13.8-25.532-22.768
			c-0.689-2.763-0.689-6.215-0.689-8.972c6.9,7.588,14.489,13.8,24.149,20.009c2.072,0.691,3.452-0.689,2.072-2.76
			c-0.691-0.692-0.691-0.692-1.38-0.692c-8.972-6.209-17.252-13.108-25.532-20.009c0-4.14,0-8.277,0-12.42
			c4.832,5.52,9.661,10.352,13.8,15.18c0.692,0.692,1.38,0.692,2.072,1.38c1.38,0,2.069,0,3.449,0v-0.689
			c-1.38-0.692-2.068-2.068-2.76-2.76c-0.689-0.692-0.689-0.692-1.38-0.692c-4.828-5.52-9.661-11.04-15.181-15.177
			c-0.688-4.832-0.688-9.664-1.38-14.492c7.592,6.9,15.872,13.108,24.841,17.941v-0.692c-8.28-7.588-16.56-14.489-24.841-21.389
			c0-0.692,0-0.692,0-1.384c0-2.068,0-4.828-0.689-6.9c3.449,2.763,6.9,4.832,10.348,6.9l0.692,0.692
			c0.689,1.38,2.068,2.76,3.449,3.448c0.691,0,1.38,0,2.072,0c0.689,0,1.38-0.689,2.068-1.377c-0.689,0-1.38,0-1.38-0.692
			c-6.209-4.828-11.729-8.971-17.249-13.108c-0.692-2.763-0.692-4.14-0.692-6.211c0.692,0.691,0.692,0.691,1.38,0.691
			c4.14,4.829,8.28,6.897,12.42,5.52c-1.38-0.691-2.76-1.38-3.448-2.072c-3.452-2.76-6.9-5.52-10.352-7.592
			c-0.688-13.8-1.38-27.601-2.068-41.401c5.52,4.832,10.348,8.972,14.489,14.492c2.76,1.38,5.52,3.449,7.592,5.52
			c0.689,0,1.38,0,2.068,0c0,0,1.38-0.689,1.38-1.38c0,0-0.689,0-1.38-0.691c-2.068-2.069-4.828-4.826-7.588-6.209
			c-0.692,0-0.692,0-0.692-0.692c-4.828-4.828-9.66-9.656-15.869-13.108c0-1.38,0-3.449,0-4.832c0,0,0-1.377,0-2.069
			c0.689-2.068,0.689-4.14,0.689-6.9c6.9,6.9,15.18,13.108,23.46,17.94c0.692-0.688,1.38-0.688,1.38-1.38
			c0.691,0,0.691-0.692,0.691-0.692c-0.691-0.685-0.691-0.685-0.691-1.376c0-0.692,0-1.384-0.689-2.072
			c-1.38-0.688-2.072-0.688-3.452-1.38c-5.52-0.689-8.28-3.449-10.348-8.28c-0.692,0-2.072-0.692-2.072-1.377
			c-2.76-1.383-5.52-3.451-7.588-4.835c0-2.757,0-5.517,0.688-7.588c0,0.692,1.38,1.38,2.072,2.072
			c6.208,6.209,11.728,8.969,18.629,8.277c0,0,0-0.689-0.689-0.689c-6.9-4.14-13.8-8.968-20.012-14.488c0-2.072,0-4.832,0-7.592
			c6.9,5.52,13.112,10.352,20.012,13.112c-0.692-0.692-0.692-1.384-0.692-2.069c-2.76-3.451-6.208-4.835-9.66-6.215
			c-0.689,0-0.689,0-1.38-0.689c-2.068-4.14-4.14-7.588-7.588-9.66c0-2.76,0-5.52,0-8.28c0.689,0.691,2.068,2.068,2.76,2.76
			c6.209,6.208,11.729,9.66,18.629,9.66c0,0,0,0-0.689-1.377c-6.211-5.523-13.112-11.043-20.7-15.875
			c-0.692-3.448-0.692-6.208-0.692-8.968c8.28,4.828,15.181,9.66,23.461,13.8c0,0,0-0.689,0.691-1.38c0.689,0,0.689-0.692,0-1.38
			c-0.691,0-0.691,0-0.691,0c-8.28-5.52-15.869-11.04-22.769-17.249c2.76,0.685,4.828,2.068,6.9,4.137
			c0.688,0.691,2.068,0.691,3.448,0.691c4.832,0.692,9.661,0.692,13.8,1.38c-0.689-0.689-1.38-1.38-1.38-1.38
			c-6.9-1.38-13.8-3.451-19.32-6.9c-1.38,0-2.068,0-2.76,0.689c-0.689,0-1.38,0-1.38,0c0-0.689,0-2.069,0-3.449
			C314.484,198.228,337.948,195.471,360.716,193.4z M287.575,202.369c-2.072,1.383-1.38,2.76,2.068,2.76c0,0.691,0,1.383,0,2.071
			c0.692,0,0.692,0,0.692,0.689c-0.692,2.763-0.692,5.523-0.692,8.28c-1.38-0.688-2.068-0.688-2.76-1.38c0-2.76,0-6.9-0.688-9.66
			c-0.692,2.76-0.692,5.523-0.692,8.971c-0.689-0.689-1.38-1.38-2.76-2.072c-1.38,0-2.068,0,0,1.383
			c0.692,0.689,1.38,2.069,2.76,2.069c-0.689,2.76-0.689,4.14-0.689,6.208c-0.692,0.692-0.692,1.384-0.692,2.763
			c0,1.377,0,2.069,0,3.449v1.38c-0.688,3.448-0.688,5.523-0.688,8.971h-0.692c0,0.689,0,1.377,0.692,1.377c0,4.14,0,8.975,0,13.112
			v16.56c-1.38,20.012-2.76,40.021-2.76,61.413c0-0.691-0.692-1.383-1.38-1.383l0,0c0,0,1.38,1.383,1.38,2.075
			c0,3.449,0,6.9,0,10.348c0,5.52,1.38,9.661,2.76,11.037c0.688,0,0.688-1.376,0.688-1.376c0.692,0,0.692,0,0.692,0
			c0.689,5.517,0.689,10.348,0.689,15.869c0,11.731,0,23.46-0.689,35.883c-0.692,20.697,2.068,40.71,6.209,59.342l0,0
			c0.692,3.448,0.692,6.9,1.38,10.348c1.38-4.832,2.072-8.972,2.76-13.112c2.76,2.072,5.52,4.831,8.28,7.592
			c4.14,4.14,8.28,6.209,12.421,6.9c-4.14,0-7.589,0-11.729,0c-18.632-0.691-37.952-2.068-56.581-3.451c0,0,0,0,0-0.692
			c-0.692,0-1.38,0-1.38,0c-11.04-9.657-22.08-18.625-33.812-27.601c-1.38-3.449-1.38-7.585-2.068-11.037
			c-1.384,4.137-1.384,8.969,0,14.489c2.76,8.28,6.9,15.18,11.728,20.7c-3.448-1.376-6.211-4.136-8.28-7.588
			c-1.38-1.38-2.068-3.449-2.76-4.832c-3.448-29.669-5.52-59.341-5.52-89.702h-0.688c0,1.383,0,2.068,0,2.76
			c0-22.769,0-46.229,0-69.693c0.688-23.461,2.068-46.23,3.448-68.31c1.38-4.829,2.76-8.969,4.14-13.112
			c2.072-2.068,4.14-4.14,6.9-6.208c1.38,0,2.76-0.689,4.832-1.38c0,0,0.689,0,1.38-0.691c-2.072,1.383-4.832,3.451-6.212,4.832
			c0.692,0.691,1.38,0.691,1.38,1.38c9.66-5.52,18.632-8.971,28.292-12.42c6.9-1.38,13.8-2.069,20.701-2.069
			c7.588,0,15.18,0,22.768-0.691c-0.688,0.691-0.688,2.068-1.38,3.449c-0.689-0.689-1.38-0.689-2.76-0.689
			C288.264,201.68,288.264,201.68,287.575,202.369z M286.883,217.552c0.692,0.689,1.38,1.376,2.072,2.068
			c-0.692,2.76-0.692,5.52-1.38,8.28C286.883,224.452,286.883,221.001,286.883,217.552z M201.322,229.281
			c0.689-1.38,2.072-2.76,2.76-3.452c-1.38,2.072-2.072,4.832-2.76,7.592l0,0c0-0.692,0-2.068,0-3.452
			C201.322,229.281,201.322,229.281,201.322,229.281z M272.395,195.471c0,0.689,0,0.689,0,1.38c-4.832,0-9.661,1.377-13.8,1.377
			c-0.692,0-1.384,0-2.76-1.377c-0.692,0-0.692,0-0.692,0s-0.689,0-0.689-0.691c-1.38-0.689-2.76-0.689-4.143-0.689c0,0,0,0,0.692,0
			c5.52,0,11.04-0.692,16.56-1.383c1.38-0.689,3.451-0.689,4.832-0.689c7.588-0.689,15.869-0.689,24.149-0.689
			C288.264,193.4,279.983,194.78,272.395,195.471z M241.343,199.611c-2.76,0.689-4.14,2.069-6.209,2.757c-1.38,0-2.76,0-4.14,0.691
			C234.443,201.68,237.203,200.3,241.343,199.611z M201.322,263.781c0-3.452,0-6.212,0.689-8.28
			c-0.689,4.14-0.689,8.972-0.689,13.112C201.322,266.541,201.322,264.473,201.322,263.781z M203.394,438.356
			c0-0.692,0-0.692,0-0.692c0-0.689,0-1.38,0-1.38S203.394,437.664,203.394,438.356z M204.082,440.424c0-0.689,0-1.38-0.689-1.38
			c0.689-1.38,0.689-3.451,0.689-4.828C204.082,436.284,204.082,437.664,204.082,440.424z M231.683,469.408
			c-2.072-2.072-4.14-4.14-7.589-5.523c-4.832-5.517-8.971-13.108-11.731-20.7c9.66,10.352,19.32,19.324,30.361,26.909
			C239.274,470.093,235.822,469.408,231.683,469.408z M241.343,473.545c1.38-0.689,2.76-0.689,3.452-0.689c1.38,0,1.38,0,2.068,0
			c0.692,0.689,1.38,1.38,3.449,2.068c-1.377,0-2.068,0-2.757,0C244.794,474.236,242.723,474.236,241.343,473.545z M244.103,477.685
			c0,0,0,0-0.692-0.689c4.144,1.38,8.283,1.38,12.424,1.38c2.76,0,4.14-1.38,2.76-2.76c-0.692,0-1.384,0-2.76,0
			c-1.38,0-2.76,0-4.14,0c0-0.692,0-0.692,0-0.692s0,0-0.691,0c-0.692-0.689-1.38-0.689-2.069-1.38c2.76,0,4.829,0,6.9,0.691
			c0.689,0,0.689,0,1.376,0c-2.068,0-2.757,0-4.136,0.689c15.18,1.384,31.049,2.071,46.921,2.76c13.108,0,26.22,0.692,38.64,0.692
			c0.689,0.692,1.38,0.692,1.38,1.38c-28.981,0-57.273,0-86.942,0C250.311,479.068,247.554,478.377,244.103,477.685z
			 M284.815,350.723c0-0.689,0-1.38,0-2.068C284.815,349.342,284.815,350.034,284.815,350.723z M289.643,383.843
			c0,0.689,0.692,1.38,1.38,1.38c0,4.144,0,8.969,0,13.112c-1.38,0-1.38,0-0.689,1.38c0.689,0,0.689,0,0.689,0
			c0,12.42,0,25.528,0,37.949c-0.689-13.108-1.38-26.909-1.38-40.709C289.643,392.124,289.643,387.983,289.643,383.843z
			 M289.643,368.663v-0.688c0-4.14,0-7.592,0-11.732C289.643,360.383,289.643,364.523,289.643,368.663z M290.335,370.732
			c0,4.143,0,7.592,0.689,11.731c-0.689,0-1.38,0-1.38,0c0-4.14,0-8.28,0-12.42C289.643,370.043,289.643,370.043,290.335,370.732z
			 M296.544,450.776c0-4.832,0-10.352,0-15.183c8.28,6.215,16.56,12.423,25.532,17.943l0,0v0.689c0,0,0,0-0.691,0.692
			c0.691,0.691,0.691,0.691,0.691,0.691c9.661,6.9,19.32,13.108,29.672,17.249c-4.832,0-9.663,0-14.491,0.689
			c-5.52-4.137-10.352-7.589-15.181-11.037c-2.072,0-2.072,0-2.072,0c4.144,4.136,7.592,7.585,11.732,11.037c-1.38,0-2.072,0-2.76,0
			c-4.14,0-7.592,0-11.04,0.691c0.689-0.691,0.689-0.691,0.689-0.691c0-0.689,0-0.689,0-0.689
			c-8.28-4.832-15.181-9.661-23.461-14.489c0-2.075,0-4.143,0.692-5.523c7.588,4.832,15.18,9.664,22.769,14.492
			c0-0.692,0-0.692-0.689-0.692C311.035,460.436,304.135,454.916,296.544,450.776z M343.465,479.756
			c0.691-0.688,0.691-0.688,0.691-0.688s0,0-0.691-0.692c4.832,0.692,10.352,0.692,15.183,1.38
			C353.816,479.756,348.296,479.756,343.465,479.756z M546.331,195.471c-1.38,0-2.071,0.689-2.76,1.38
			c-2.068-0.691-4.14-1.38-6.212-1.38C540.811,195.471,543.571,195.471,546.331,195.471z M570.477,218.928c0,0,0,0.692,0.695,0.692
			h-0.695c0,1.38,0,2.068,0.695,3.452C570.477,221.688,570.477,219.62,570.477,218.928z M568.409,215.48c0,0,0,0,0.694,0.688
			c0,0.692,0,0.692,0,0.692C568.409,216.86,568.409,215.48,568.409,215.48z M562.892,207.2c1.38,1.38,2.763,2.76,4.136,4.828
			c0.695,3.452,0.695,8.972,2.075,15.872c0,1.38,0,2.76,0,4.828C567.723,223.761,565.655,215.48,562.892,207.2z M532.531,478.377
			c0,0,0,0-0.692,0c1.38-0.692,3.452-0.692,4.832-0.692c0.689,0,1.38,0,2.76,0C537.359,478.377,535.291,478.377,532.531,478.377z
			 M573.24,420.415c-1.38-12.423-2.763-24.152-2.763-36.572c1.384,10.348,2.078,20.012,2.763,29.672
			C573.24,416.276,573.24,418.344,573.24,420.415z M570.477,448.708h1.384c0,0,0,0,0,0.689c-2.069,4.828-4.832,9.66-8.283,13.112
			c2.763-4.832,5.526-9.664,6.9-15.184c0.695-1.38,1.384-2.757,1.384-4.14c0,1.383,0,2.072,0,3.452
			C571.172,447.324,570.477,448.708,570.477,448.708z"/>
		<path fill="#333333" d="M429.718,234.803c-4.14,1.377-8.28,2.069-11.732,2.757c-26.22,7.592-48.301,21.392-66.929,42.092
			c-11.732,12.42-18.632,26.909-20.701,42.781c-1.38,8.972-1.38,17.249,0,26.221c0,0.688,0,1.38,0,2.76
			c0,8.968,0.692,17.248,2.069,26.22c0.691,2.757,0.691,5.52,2.072,8.28c0,0.692,0,2.068,0,3.452c1.38,6.897,4.14,13.108,6.9,17.94
			c4.14,7.585,10.352,14.486,17.252,19.317c1.377-0.689,2.068-0.689,2.757-0.689c1.38,1.38,3.452,2.757,5.52,4.14
			c12.423,9.66,26.912,13.8,44.161,13.108c15.872,4.832,33.121,6.212,50.372,4.14c10.352-1.38,17.941-5.517,24.152-12.417
			c8.277-4.14,15.869-8.972,24.149-13.8c0-0.692,0-0.692,0.692-0.692c1.38-2.072,2.76-4.14,2.76-5.523
			c4.14-2.757,8.28-6.9,11.729-11.037c0,0,0,0,0-0.689c0.691-1.383,0.691-2.075,0.691-3.451c6.9-10.348,11.729-21.392,15.181-33.809
			c1.38-6.215,2.76-13.115,3.449-19.324c0.691-3.451,0.691-7.592,0-11.04c0-5.52-0.689-11.037-0.689-16.56
			c-1.38-6.9-2.76-12.421-4.14-17.941c1.38,2.763,3.449,5.52,4.829,8.28c0.691,0,1.38,0,2.071,0c0-0.692,0-0.692,0-1.38
			c-1.38-4.137-4.14-8.28-6.212-12.421c0.692,0,0.692,0,0.692,0.692c0-1.383,0-3.452-1.38-5.523c-1.38-2.068-2.76-4.137-4.14-5.517
			c-4.14-3.452-7.592-6.9-11.732-9.66c-4.828-4.832-11.04-8.972-17.94-12.424c-0.689-1.377-1.38-2.068-2.76-2.76
			c2.072,0.692,3.452,1.384,5.52,2.075c-1.38-1.383-2.068-2.075-3.449-3.451c-0.692-0.692-0.692-0.692-0.692-1.384
			c-0.688,0-1.38,0-2.072-0.689c-6.209-3.451-13.108-6.9-20.008-8.968c-6.9-4.832-15.181-8.283-23.461-9.661
			C449.729,234.803,440.066,233.421,429.718,234.803z M409.017,249.981c6.9-2.76,13.112-5.52,17.941-7.592
			c8.971,0,17.249,0.692,24.152,2.763c5.52,1.376,9.657,2.76,14.489,4.136c2.068,0.692,4.14,1.384,6.211,2.072
			c3.449,2.069,6.209,4.14,8.969,6.9c0-0.692,0-0.692,0-1.38c-1.38-1.38-2.068-2.76-2.76-3.451c2.76,0,5.52,1.383,7.592,2.76
			c3.449,1.38,6.209,2.072,8.969,3.451c1.38,0.689,3.452,2.072,4.832,3.449c0.689,0.692,1.377,0.692,2.068,0.692
			c0,0.692,1.38,0.692,1.38,1.38c-1.38-0.688-3.449-1.38-5.52-2.072l-1.38-0.685c8.28,3.449,14.492,8.277,20.701,14.486
			c3.451,3.452,6.209,6.9,8.28,11.04c-10.352-11.725-24.152-20.7-40.021-27.601c-1.38,0-1.38,0,0.692,1.384
			c17.249,7.588,31.049,18.629,42.781,32.429c1.38,3.449,2.76,6.9,4.14,10.348c-1.38-0.685-2.072-2.068-2.76-3.449
			c-2.071,0.689-2.071,1.38,0,3.449c1.38,1.383,2.76,2.072,4.14,3.452c2.76,9.663,4.829,18.632,5.52,28.292c0,2.072,0,4.14,0,5.52
			c-0.691,5.52-1.38,11.729-2.072,17.252c-0.689,0.685-0.689,0.685-0.689,1.376c-2.068,6.209-4.14,12.424-4.832,17.941
			c-8.971,22.768-26.22,39.332-51.061,51.753c1.38,0,2.76,0,4.14-0.692c-0.688,0.692-0.688,0.692-1.38,0.692
			c-3.452,2.76-8.28,4.832-11.729,6.208c-0.691,0-1.38,0-2.072,0c-2.76,0-5.52,0-8.28,0c3.452-1.376,6.9-4.14,11.04-6.9
			c-1.38,0-3.449,0-4.832,0.692c-2.757,1.38-6.209,2.068-8.969,3.448c-6.212,1.384-12.42,2.76-18.632,4.14
			c-11.037,0-21.389,0-32.429-0.689c-8.28-2.068-17.252-5.52-25.532-9.66c0-0.692,0-1.38,0-1.38c0-0.692,0-0.692-0.688-1.38
			c-0.692,0.688-0.692,1.38-0.692,1.38c-0.689,0-1.377-0.692-2.068-1.38h-0.692c0.692,0.688,1.383,1.38,2.76,2.068
			c-0.689,0.692-0.689,2.068-1.377,2.76c2.757,1.383,5.517,3.452,8.28,4.832c-5.523-1.38-10.352-3.449-15.18-5.523
			c-2.763-2.068-6.212-4.828-8.972-6.9c0.689,0,2.072,0,3.449-0.685c-2.068-1.383-4.14-2.072-6.9-2.763
			c-8.278-8.28-14.489-18.629-18.629-30.361c0,0.692,0,1.384,0.689,2.072c-3.449-7.592-4.828-15.872-6.209-24.149
			c0-1.383,0-2.072-0.691-2.763c2.072,2.763,4.832,4.832,7.592,6.9c-0.692-0.689-1.38-1.38-1.38-2.76
			c-0.691,0-1.38-1.377-1.38-2.068c-1.38-1.38-2.068-2.072-2.76-3.452c0-0.689-0.692-1.38-1.38-2.072c0-4.137,0-8.969-0.691-13.109
			c1.38-22.077,9.663-41.4,24.841-57.961c0,0,0,0,0.691,0c0-0.692,0-0.692,0-0.692c2.068-2.068,4.832-4.828,6.9-7.588
			c-2.069,1.38-4.14,2.76-6.212,4.14c8.28-7.592,17.252-13.8,27.601-20.008c8.28-4.144,15.872-8.283,22.081-12.421
			c-2.757,0-5.52,0-8.28,1.377c-0.689,0-2.069,0.691-3.449,1.383C402.806,253.429,406.257,251.361,409.017,249.981z
			 M356.577,279.653c-1.38,0.689-2.76,2.068-4.14,2.76c3.449-4.14,7.589-7.592,11.729-11.04c4.14-4.143,8.972-7.592,13.8-11.044
			c-2.068,2.075-4.14,4.144-6.9,6.901C366.236,270.681,361.405,274.821,356.577,279.653z M400.737,440.424
			c2.76,0.692,4.14,1.383,6.9,2.068c-4.14-0.685-7.588-1.376-11.732-2.757c-5.52-2.072-11.728-4.143-17.248-6.9
			c6.208,2.072,11.728,4.14,17.94,6.208C397.977,439.044,399.357,439.736,400.737,440.424z M487.678,428.007
			c0-0.691,1.38-0.691,1.38-0.691S488.367,427.316,487.678,428.007L487.678,428.007c-0.691,0-0.691,0-1.38,0.685
			c-0.689,0-0.689,0-0.689,0S486.987,428.692,487.678,428.007z"/>
		<path fill="#333333" d="M443.518,274.13c-6.212,0.692-11.04,1.384-15.181,2.76c-2.76,0-4.832,0-6.9,0c-1.38,0-2.76,0-4.14,0.692
			c-6.9,2.072-12.42,4.14-18.632,7.592c-17.248,9.657-28.288,22.769-33.809,41.401c-2.072,5.517-1.38,9.66,2.068,12.417
			c0-0.685,0-1.376,0-2.757c-0.689-3.451-0.689-6.903,0.692-9.66c6.9-18.632,18.632-31.052,35.189-38.644
			c-13.108,8.284-23.458,20.012-30.357,35.884c0,0.691,0,0.691,0.689,1.376c0,0,0,1.384,0,2.072c1.38-4.829,4.14-8.972,7.588-13.8
			c4.14-4.14,8.28-8.28,12.423-11.732c-2.763,2.075-4.143,4.832-5.52,7.592c-0.691,0-1.38,0-1.38,0c0,1.38-0.692,2.76-1.384,3.452
			c-1.38,0.689-2.76,0.689-4.14,0.689c0,0.691,0,1.38,0,1.38c-4.14,5.52-6.9,11.04-8.969,17.249
			c-0.692,2.763-0.692,5.523-0.692,8.971c-2.76-4.14-2.76-9.657,0.692-15.872c0.692,0,0.692-0.685,0.692-1.376c0,0,0,0-0.692,0
			c-0.692,0-0.692,0.691-1.38,1.376c-4.829,13.8-4.829,28.984-2.072,43.472c1.38,3.452,2.76,6.904,4.832,9.661
			c4.828,5.52,10.348,11.044,15.869,16.56c8.28,6.208,15.872,9.66,24.844,8.971c3.448,1.38,7.588,2.76,12.417,4.137
			c-3.449,0-7.588,0-11.729,0c2.76,2.763,4.829,3.452,8.28,2.763c4.832,0,9.661-1.38,14.489-2.072c2.072,0,4.832,0,6.9,0
			c0-0.692,1.38-0.692,1.38-0.692c0.692,0,0.692,0,0.692-0.685c0.689-0.692,0.689-0.692,0.689-0.692v-0.691
			c12.42-4.14,23.463-10.349,33.12-17.941c-6.9,8.972-15.177,14.492-26.22,18.632c1.383,0,3.452,0.692,4.832,0.692
			c10.352-1.383,19.32-6.215,26.22-15.872c4.14-7.592,9.661-14.492,12.421-22.772c1.38-2.072,2.072-4.14,4.14-5.52
			c6.9-12.42,8.972-25.528,4.832-39.329c-1.38-7.592-4.144-13.8-7.592-19.324c0.692,0.692,1.38,0.692,2.76,0.692
			c0,0,0,0-0.691-0.692c-3.449-3.449-6.209-6.209-8.969-8.969C478.019,283.102,462.15,275.513,443.518,274.13z M442.138,290.69
			c0-0.685,0-0.685-0.689-0.685c-4.143,0-8.971-0.692-14.491-1.383c-2.76,1.383-6.209,2.76-9.661,4.832c0-0.692,0-0.692,0-0.692
			c6.9-4.14,14.489-6.9,22.769-8.28c5.52,1.38,9.663,2.76,14.492,4.832c-2.072,0.692-3.449,0.692-4.829,1.377
			c0.689,0.692,1.38,0.692,2.757,0.692c1.38-0.692,3.452-0.692,5.523-0.692c12.421,6.9,22.077,17.94,29.669,33.124
			c0,1.376,0,2.068,0,2.76c0,2.757,0,5.517,0,8.968c-0.691,2.072-1.38,4.832-2.76,6.9c2.069-0.689,4.14-2.068,5.52-4.828
			c-1.38,1.376-1.38,2.068-1.38,3.448c0,1.38-1.38,3.452-2.76,4.829c1.38-0.685,2.068-0.685,2.76-0.685
			c-5.52,20.009-16.56,35.878-34.5,48.301c-14.492,10.348-28.981,10.348-42.781-0.692c0,1.377-0.691,2.069-1.38,2.76
			c0-0.691-0.692-0.691-1.38-1.383c-4.14-2.757-7.588-5.517-11.04-8.969c-3.448-4.832-5.519-9.657-7.592-15.869
			c-2.757-10.348-3.448-20.7-1.38-31.049c1.38-7.592,4.143-14.491,8.28-22.083c6.211-9.661,13.112-15.869,22.081-20.009
			c0.691-0.692,0.691-0.692,1.383-0.692C426.958,292.761,433.858,291.382,442.138,290.69z M462.15,288.622
			c-2.072-1.38-4.14-2.76-6.9-4.14c6.209,0.692,12.417,2.76,18.629,4.832c6.208,3.449,11.731,8.969,17.94,15.177
			c0.692,0.692,0.692,2.072,0.692,2.763c0-0.692-0.692-1.38-1.38-2.072c-5.52-8.28-14.491-13.8-26.912-16.56
			C463.53,288.622,462.839,288.622,462.15,288.622z M414.537,288.622c-2.072,1.383-4.14,2.76-5.52,4.14
			c-2.76,0.692-4.832,1.38-6.9,2.76c4.14-2.76,8.969-5.517,13.8-7.592C415.918,288.622,415.229,288.622,414.537,288.622z
			 M384.865,329.331c1.384-8.277,4.832-15.177,9.664-20.009c-4.144,5.52-6.9,11.732-8.28,18.632
			c-3.452,12.421-4.144,24.837-0.692,36.569c-2.072-6.209-2.76-13.108-2.072-20.701
			C383.485,338.991,384.177,334.162,384.865,329.331z M440.758,405.235c-0.692-0.692-2.072-0.692-3.452-0.692
			c11.732-1.377,22.08-6.9,31.052-15.869c13.8-13.108,22.08-28.984,24.84-46.921c2.76-2.763,4.14-6.212,4.14-11.04
			c0-4.14,0-8.28-0.689-11.04c2.068,4.832,3.449,9.657,4.137,15.869c0,0.692,0,2.072,0.691,2.763
			c-2.068,7.586-4.14,15.177-7.592,23.458c-0.689,0.692-0.689,1.38-1.376,2.76c-1.38,1.383-3.452,3.452-6.212,4.831
			c1.38,0,2.76,0,4.14,0c-1.38,2.068-2.76,4.828-3.451,6.9C473.879,390.743,458.698,399.715,440.758,405.235z M501.479,317.605
			c0,0.685,0,1.377,0,2.068c-1.38-2.76-2.76-5.52-4.14-7.592c0-1.38,0-2.068,0-2.76C498.719,311.39,500.099,314.153,501.479,317.605
			z M491.819,332.091c0-4.137-0.689-7.586-2.76-11.037c-4.828-12.424-12.42-22.081-21.392-28.981
			c7.592,2.069,13.8,6.9,18.632,14.489c6.212,8.28,8.969,17.252,6.212,26.221h-0.692V332.091z"/>
		<path fill="#333333" d="M445.586,305.182v0.691c10.352,0.689,17.943,5.517,22.772,15.181c3.451,5.52,4.828,11.729,5.52,18.629
			c0.688,16.56-6.212,28.292-21.393,36.572c17.252-6.9,25.532-19.323,24.153-37.264C474.567,319.674,464.218,308.63,445.586,305.182
			z"/>
		<path fill="#333333" d="M406.949,364.523c-4.832-4.832-7.592-10.348-7.592-16.56c-0.692-7.588,0-15.872,2.76-22.772
			c4.832-8.968,11.04-15.869,17.94-22.077c-4.828,2.76-8.971,6.209-12.42,10.349c2.068-4.14,5.52-8.28,9.66-11.732
			c-6.9,4.832-12.42,11.732-15.869,19.324c-9.663,13.8-11.044,28.288-3.452,43.469c1.38,1.383,3.452,2.76,5.52,2.76
			c-1.38-1.377-3.448-2.76-4.832-4.14c-5.517-9.66-5.517-19.32-1.38-28.98C394.529,347.274,397.977,357.623,406.949,364.523z"/>
		<path fill="#333333" d="M420.057,360.383c-2.072,0.692-4.14,1.38-5.52,1.38c2.76,2.76,4.14,2.76,6.9,0
			c0.692-2.757,2.76-4.832,4.828-6.209c0-0.692,0-0.692,0.692-1.38c0-1.384,0.692-2.76,0.692-4.14
			c-1.384,0.689-2.072,2.757-2.763,4.828C422.817,356.243,420.749,358.314,420.057,360.383z"/>
		<path fill="#333333" d="M406.949,335.542c1.38,3.449,4.137,5.52,7.588,6.212c4.829,1.377,9.661,0.689,13.8-0.692
			c11.729-4.828,17.249-13.108,14.492-26.909c0-0.691,0-0.691-0.692-0.691c-2.072-4.832-6.209-6.9-11.731-5.52
			C417.297,313.462,409.017,322.434,406.949,335.542z M413.157,334.854c0,0,0,0,0-0.692c2.76-9.657,9.66-17.249,17.94-22.08h0.689
			c1.38,0,3.452,0.692,4.832,1.38c0,0,0,0,0,0.691c0,0.689,0,0.689,0,1.377c0,0.692,0,0.692,0,0.692
			c-0.689,1.383-0.689,2.068-1.38,2.76c-3.452,6.9-8.28,13.108-14.489,17.252C418.678,336.234,415.918,335.542,413.157,334.854z
			 M438.687,321.054c0.691-0.692,1.38,0,1.38,1.38c-0.689,6.897-4.137,12.421-10.348,16.557c-2.76,0-4.14,0-6.9,0
			c0.689,0,1.38,0,2.069-0.685C431.098,333.474,435.929,327.954,438.687,321.054z"/>
		<path fill="#333333" d="M438.687,348.654c0,0.688-1.38,1.38-1.38,1.38c0,0.689,1.38,0.689,1.38,1.38
			c4.143-0.692,8.971-0.692,13.8-1.38c0-0.692,0.692-1.38,1.38-2.072c0-0.689,0-0.689,0.692-1.38c0-0.691,0-0.691,0-0.691
			c0-1.377,0-2.76,0-4.137c0,0,0,0,0-0.692c0-0.688,0-0.688,0-1.38c-2.072-0.692-4.14-0.692-6.9-0.692c-0.691,0-2.072,0-3.451,0
			c-0.689,0.692-1.377,1.384-2.757,1.384c-1.383,1.38-2.072,2.757-2.763,4.14c-1.38,0-1.38,0.692-1.38,1.377c0,0,0,0,0,0.691
			c0,0.692,0,0.692,1.38,1.38C438.687,348.654,438.687,348.654,438.687,348.654z M440.758,347.963
			c0.691-0.689,0.691-0.689,0.691-0.689c1.38-2.76,2.757-4.143,6.209-4.143c2.072,0,2.76,0,3.452,0.691c1.376,0,1.376,0,1.376,0.692
			c-1.376,0.692-1.376,1.377-2.068,2.068c0,0.692,0,0.692-0.689,1.38C446.967,347.963,444.207,347.963,440.758,347.963z"/>
		<path fill="#333333" d="M451.11,355.554c-0.692,0-1.38,0-1.38,0.689c-8.971,8.972-18.632,17.249-29.672,24.841
			c0.692,0,1.38,0,1.38,0C433.858,374.183,443.518,365.906,451.11,355.554z"/>
		<path fill="#333333" d="M458.698,364.523c-0.689,0-0.689,0-0.689,0.692c-0.691,0.691-0.691,0.691-0.691,0.691
			c6.9-11.044,11.04-22.084,13.8-34.5h-0.689c-1.38,6.209-4.144,11.725-7.592,17.249c0,1.38-0.689,2.76-1.38,4.137
			c-0.692,4.832-3.449,9.664-5.52,13.8c-0.689,0.692-0.689,0.692-0.689,1.384c-8.283,7.592-17.943,11.731-28.292,14.488l0,0
			c9.66-0.689,18.629-4.14,25.528-10.348c-8.28,9.66-18.629,14.492-30.357,14.492c7.588,2.76,15.177,1.376,23.457-5.523
			c0-0.692,0-0.692,0.692-1.377c3.451-2.763,6.208-6.9,8.28-10.352C456.63,367.975,457.318,366.591,458.698,364.523z"/>
		<path fill="#333333" d="M424.198,389.367c4.14,2.757,8.28,2.757,13.108,1.376c22.08-5.52,36.573-17.937,41.404-37.952h-0.692
			C467.667,375.567,449.729,387.292,424.198,389.367z"/>
		<path fill="#333333" d="M292.403,290.69c-0.688-0.685-1.38-0.685-1.38,0c6.212,6.9,12.42,11.732,20.7,14.492
			c0-0.692,0-0.692-0.689-0.692C304.824,299.662,298.615,295.522,292.403,290.69z"/>
		<path fill="#333333" d="M305.516,325.19c0.688,0,0.688,0,1.38,0c0.689,0,0.689,0,0.689,0c0-0.685,0-1.376-0.689-1.376
			c-2.76-4.832-6.212-8.972-11.732-11.732l0,0C297.236,316.222,300.684,321.054,305.516,325.19z"/>
		<path fill="#333333" d="M337.948,452.156l-0.692,0.688c1.38,1.38,3.449,2.763,6.9,2.763c9.661,6.209,19.32,11.037,29.669,15.869
			c0.692,0,1.38,0,2.072-0.691c-0.692-0.692-1.38-1.377-2.072-1.377C362.785,462.508,351.056,456.293,337.948,452.156z"/>
		<path fill="#333333" d="M459.387,448.016c-2.068-0.692-2.757,0-1.377,0.692c9.657,8.277,20.009,15.177,30.357,20.008
			c-0.689-0.691-0.689-0.691-0.689-0.691C478.019,461.124,468.359,454.225,459.387,448.016z"/>
		<path fill="#333333" d="M432.478,448.016c-1.38-0.692-1.38,0-0.692,0.692c9.663,5.517,18.632,10.348,27.601,15.177
			c-0.689,0-0.689-0.689-1.377-1.376C451.11,456.985,442.83,451.468,432.478,448.016z"/>
		<path fill="#333333" d="M437.306,455.608c-2.757-2.072-6.209-3.451-8.969-4.14c-2.072,0-2.072,0.689,0,2.068
			c4.14,2.757,7.592,4.14,11.729,3.449C438.687,456.985,437.306,456.293,437.306,455.608z"/>
		<path fill="#333333" d="M495.267,207.2c-0.689,0-0.689,0-1.38,0c-3.449,2.76-6.209,5.52-8.277,8.28
			c-0.692,0.688-0.692,0.688-0.692,1.38s0,2.068,0,2.068c0,2.072,0,4.832,0,6.9c0,0.692,0,0.692,0,1.383
			c0.692,0.689,0.692,0.689,1.38,2.069c0,0,0,0,0.689,0c0,0.688,0,0.688,0,1.38c-0.689,2.76,0,5.52,0.691,8.28
			c0,0.689,0,0.689,0,0.689c0.689,0.692,1.38,2.072,2.76,2.76c1.38,1.38,2.072,1.38,3.449,2.072
			c13.112,4.143,26.224,4.828,40.024,0.692c2.76,0,5.52-1.384,8.28-2.763c15.869-7.586,20.012-20.009,14.492-36.569
			c-2.075,0-4.143-0.691-5.523-0.691c-13.108,0-27.601-0.692-40.709-0.692C505.619,205.82,500.788,206.512,495.267,207.2z
			 M492.511,215.48c0.688-0.692,2.068-0.692,2.068-1.38c4.832-1.38,10.352-2.76,15.872-4.14c13.108,0,26.22,0.691,38.641,1.38
			c1.38,0,2.068,0.689,3.449,0.689c0,3.452,0.691,6.212,0.691,8.972c0,2.76-0.691,4.828-0.691,6.211
			c-0.685,0.689-0.685,0.689-1.38,0.689c0,1.38,0,1.38-0.689,1.38c-0.688,0.688-0.688,1.38-1.38,2.76
			c0,0.688-1.384,0.688-1.384,0.688c-2.068,0.692-3.448,2.075-4.828,3.452c-6.9,1.38-13.8,3.449-20.012,3.449
			c0-0.689-1.377-2.068-2.757-2.068c0,0-0.691,0-1.38,0c0,0-0.692,1.38-1.38,2.068c0,0.692,0,0.692,0,0.692c0,0.691,0,1.38,0,2.068
			c-6.9,0-13.112,0-20.012-0.689c-0.689-0.689-0.689-0.689-0.689-1.38c-0.692,0-0.692,0-0.692-0.692
			c-1.38-0.689-2.072-2.068-2.76-2.068c0-0.689,0-1.38,0-1.38c-0.688-2.76-1.38-4.828-1.38-6.9c0-2.069,0-3.452-1.38-4.829
			c0-0.691,0-0.691,0-0.691c0-0.689,0-1.38,0-1.38c0-0.692,0-1.38,0-2.76c0,0,0.692-0.692,1.38-0.692c0-0.688,0-0.688,0-1.376
			C492.511,216.86,492.511,216.168,492.511,215.48z"/>
		<path fill="#333333" d="M482.159,452.844l-1.38-0.688c6.9,8.28,15.18,14.488,25.532,19.32v-1.383
			C498.031,464.576,489.059,458.368,482.159,452.844z"/>
		<path fill="#333333" d="M506.311,465.268c-0.692,0-0.692,0-0.692,0c4.14,3.448,7.592,5.517,11.732,6.208
			c-0.692-0.691-0.692-0.691-1.384-1.383C513.211,468.025,509.759,466.645,506.311,465.268z"/>
		<path fill="#333333" d="M531.839,456.293h-0.689c4.829,4.832,10.352,8.975,17.252,11.044c0-0.692,0-0.692-0.695-0.692
			C542.191,463.885,536.671,459.745,531.839,456.293z"/>
		<path fill="#333333" d="M535.98,452.844c-1.377-0.688-1.377,0-0.689,0.692c4.14,3.449,7.588,6.209,11.729,8.28
			c0.688,0.692,2.072,0.692,3.451,0.692c0.689,0,0.689,0,0.689,0l0,0C546.331,459.056,541.503,455.608,535.98,452.844z"/>
		<path fill="#333333" d="M519.419,455.608h-0.689c6.209,8.277,13.8,13.108,22.081,15.869c0-0.691,0-1.383,0-1.383
			C533.22,465.956,526.319,461.124,519.419,455.608z"/>
		<path fill="#333333" d="M531.839,474.236c0-0.691,0-0.691-0.689-1.38c-4.832-3.449-9.66-6.212-15.183-8.972
			c-1.38,0.692,0,2.072,2.763,4.14C524.94,472.168,529.079,474.236,531.839,474.236z"/>
		<path fill="#333333" d="M230.302,445.256v0.689c8.972,6.212,17.252,13.8,24.841,22.08c1.38,0.691,2.068,0.691,3.452,0.691h1.38
			c0-0.691,0-0.691-1.38-1.38c-6.9-8.969-16.56-16.56-26.221-22.769c-0.691,0-0.691,0-1.38,0c0,0,0,0-0.692,0
			C230.302,444.567,230.302,444.567,230.302,445.256z"/>
		<path fill="#333333" d="M248.934,446.636h-0.691c6.9,8.971,15.869,15.872,25.532,20.7c0-0.692,0-0.692,0-0.692
			C266.183,458.368,257.903,452.156,248.934,446.636z"/>
	</g>
</g>
</svg>
