<?xml version="1.0" encoding="utf-8"?>
<!-- Generator: Adobe Illustrator 17.0.0, SVG Export Plug-In . SVG Version: 6.00 Build 0)  -->
<!DOCTYPE svg PUBLIC "-//W3C//DTD SVG 1.1//EN" "http://www.w3.org/Graphics/SVG/1.1/DTD/svg11.dtd">
<svg version="1.1" id="Layer_1" xmlns="http://www.w3.org/2000/svg" xmlns:xlink="http://www.w3.org/1999/xlink" x="0px" y="0px"
	 width="800px" height="600px" viewBox="0 0 800 600" enable-background="new 0 0 800 600" xml:space="preserve">
<g>
	<path fill="#333333" d="M265.965,530.804c0.174-0.344,0.174-0.691,0.52-1.041c1.388-1.216,2.779-2.427,3.993-3.474
		c2.605-1.213,5.035-2.945,7.118-5.555c8.857-10.933,17.189-22.391,24.828-34.206c7.988-11.626,14.935-23.957,21.356-36.282
		c4.689-9.204,9.553-18.581,14.587-27.955c5.032-9.378,8.853-18.924,11.113-28.998c2.947,4.343,5.38,8.856,7.293,13.717
		c1.561,3.995,2.777,8.337,3.468,12.674c-0.17,0.521-0.692,0.865-1.04,1.39c0.172-0.175,0.696-0.175,0.869-0.175
		c0.17-0.349,0.17-0.349,0.52-0.518c0.175,1.91,0.518,3.818,0.698,5.73c-0.698,1.042-1.739,1.91-2.606,3.12
		c-0.348,1.217-0.348,1.913,0.52,1.913c0-0.35,0-0.521,0-0.696c0-0.35,0-0.692,0-1.04c0.696-0.521,1.564-1.566,2.257-2.255
		c0,0.172,0,0.172,0,0.172c-1.217,1.213-1.909,2.602-2.257,3.819c0.869-0.521,1.907-1.046,2.605-1.736c0,0.348,0,0.348,0,0.519
		c0.175,0.172,0.349,0.172,0.693,0.172c0.176,0,0.176,0,0.524-0.172c0.172-0.519,0.172-1.04,0.172-1.73c0.172,0,0.172,0,0.172-0.176
		c0.35,0.517,0.35,0.866,0.35,1.21c0.17-0.344,0.345-1.034,0.345-1.73c5.558-4.342,10.075-9.727,13.371-16.495
		c4.166-7.815,7.985-15.977,11.804-24.135l29.169-60.424c2.781-6.424,5.732-12.673,8.511-19.097c2.256,0,4.687-0.175,6.771-0.52
		c0.868,0,1.91,0,2.606,0c14.41-1.216,28.471-3.646,42.362-7.468c5.904-1.561,11.634-3.297,17.366-5.381
		c5.033-0.697,10.069-2.258,15.277-4.34c1.736-0.695,3.298-1.737,5.037-2.432c1.736-0.348,3.298-0.868,5.033-1.562
		c0.693-0.349,1.736-0.695,2.605-1.217c2.951-1.039,5.728-2.258,8.681-3.471c6.945-2.779,13.543-5.906,19.967-9.203
		c0.693-0.347,1.561-0.695,2.258-1.043c1.91-0.866,3.818-1.909,5.729-2.776c4.512-2.258,9.027-4.514,13.541-7.12
		c3.301-1.908,6.426-4.166,9.029-6.25c2.777-1.736,5.038-3.472,7.295-5.034c-0.696,0.173-1.739,0.692-2.606,0.868
		c5.901-5.731,10.766-12.329,14.24-20.313c-0.699,0.347-1.391,1.04-2.085,1.908c-1.739,3.647-3.822,6.946-6.772,9.55
		c-2.085,2.257-4.515,4.339-6.948,6.598c9.55-10.419,16.845-22.227,21.883-35.42c0-0.175,0-0.52,0-0.695c0-0.348,0-0.693,0-1.217
		c0.69-4.512,1.038-9.026,1.038-13.714c0.349-3.3,0.349-6.597,0-9.897c-0.348-5.556-1.389-10.765-2.951-15.801
		c-1.562-4.515-3.125-9.202-5.036-13.368c0.173,0.173,0.696,0.693,0.872,0.869c0-0.695-0.176-1.044-0.524-1.564
		c-1.042-1.911-2.084-3.822-3.299-5.556c-3.296-6.424-7.119-12.502-11.634-18.23h-0.348c-3.989-6.425-9.201-11.807-15.623-16.843
		c-1.216-1.041-2.778-1.908-4.167-3.125c2.084,1.217,4.342,2.606,6.424,3.821c-4.34-3.125-8.508-5.73-13.021-8.334
		c-8.158-5.384-16.842-9.897-26.044-13.369h-0.521c5.036,2.083,9.724,4.168,14.236,6.772c-3.297-1.563-6.596-2.952-9.895-4.515
		c-2.778-1.217-5.556-2.084-8.506-3.299c-4.865-2.083-10.248-3.818-15.628-5.557c-2.257-0.694-4.34-1.215-6.599-1.908
		c-2.951-1.217-6.424-2.084-9.723-3.125c-13.192-4.167-26.739-7.119-40.453-8.68c-0.868-0.348-1.91-0.348-2.78-0.348
		c-1.739-0.175-3.123-0.521-4.862-0.694c-6.424-0.695-13.018-1.39-19.444-1.739c-3.125-0.694-6.597-1.388-9.898-1.908
		c-0.692-0.176-1.733-0.176-2.429-0.176c2.255-0.172,4.166-0.172,6.248-0.52c0-0.173,0-0.173-0.173-0.173
		c-2.603-0.174-5.037-0.174-7.64-0.521c-1.91,0.347-3.816,0.347-6.079,0.347c-7.809-0.869-15.447-1.042-23.436-1.042
		c6.252,0.173,12.503,0.695,18.752,1.389c-3.125,0.348-6.249,0.52-9.55,0.695c-5.555,0-11.11,0.346-16.494,0.865
		c-1.737,0.175-3.473,0.349-5.383,0.349c-0.347,0.347-0.869,0.347-1.562,0c0.693-0.174,1.216-0.349,1.562-0.868
		c-5.382,0.174-11.113,0.868-16.666,1.562c-3.123,0.349-5.904,0.521-9.03,0.869c0.52,0.175,0.869,0.175,1.564,0.347
		c-2.085,0.347-3.995,0.695-6.081,1.216c-0.345,0-0.518,0-0.692,0c-0.348,0.348-0.521,0.348-0.868,0.348c-0.173,0-0.349,0-0.696,0
		c-1.214,0.173-2.6,0.694-3.993,0.868c-10.939,2.082-22.05,3.992-32.99,5.207c2.605,0.697,5.728,0.697,8.856,0
		c3.644-0.694,6.945-1.215,10.243-1.909c-0.695,0.347-1.736,0.52-2.43,0.694c-3.471,0.868-6.945,1.215-10.418,1.912
		c0.172,0,0.695,0,0.868,0c-3.299,0.866-6.597,1.735-10.068,2.951c-7.293,2.43-14.759,5.208-21.879,8.335
		c-2.257,1.214-4.515,2.256-6.771,3.125c-1.216,0.695-2.084,1.214-3.299,1.737c-0.869,0.347-1.91,0.867-3.125,1.389
		c-7.119,3.124-14.065,6.595-20.837,10.763c5.558-3.818,11.461-7.117,17.538-10.243c12.847-6.424,25.87-11.807,38.716-15.8
		c-4.512,0.522-8.852,1.39-12.846,3.125c-9.897,3.473-19.62,7.814-28.995,12.328c-10.938,5.555-20.835,12.5-29.17,21.007
		c-2.084,2.259-3.992,4.169-5.729,6.078c0.52-0.347,1.042-0.694,1.213-1.04c-0.694,0.694-1.213,1.736-1.908,2.43
		c-1.736,2.083-3.125,4.34-4.862,6.425c-1.388,2.256-2.778,4.166-3.993,6.25c0,0,0,0,0.173-0.173
		c-2.605,3.47-5.037,7.119-7.118,11.112c-3.126,5.901-5.732,11.806-7.813,17.709c-0.348,0.694-0.694,1.736-1.217,2.43
		c0.174,0,0.174,0,0.523,0c-0.869,2.78-1.565,5.729-1.911,8.508c-1.737,8.855-1.737,17.363,0,25.35
		c0.346,1.388,0.694,2.603,0.868,3.991c0.174,1.391,0.695,2.779,1.043,4.342c0,0.175,0,0.175,0.172,0.175
		c0.695,1.56,1.216,3.297,1.909,5.033c-0.173,0.173-0.173,0.173,0,0.345c0.175,0.698,0.695,1.391,0.869,1.913
		c1.735,3.647,3.471,6.946,5.557,10.243c3.645,6.598,8.334,11.284,13.89,14.934c0.695,0.693,1.388,1.389,2.082,2.081
		c4.34,5.037,9.377,8.857,14.933,11.807c0.693,0.695,1.562,1.391,2.603,2.084v0.173c-1.737-0.695-3.124-1.563-4.515-2.778
		c-1.217-0.695-2.256-1.388-3.125-2.43c-0.348,0.173-0.348,0.173-0.52,0.173c-0.173-0.173-0.696-0.347-1.042-0.692
		c0.346,1.562,1.562,3.124,4.166,4.86c15.279,9.721,31.775,17.188,49.136,22.745c3.128,0.867,6.598,1.908,9.55,2.603
		c-9.203-2.258-18.404-4.513-27.607-7.464v0.173c6.945,2.778,14.065,5.033,21.704,7.291c1.737,0.348,3.646,0.867,5.208,1.39
		c-13.367-3.126-26.216-7.639-38.369-13.716h-0.347c1.736,1.91,3.818,3.473,6.771,4.34c2.605,1.042,5.208,1.911,7.814,2.603
		c3.645,1.218,7.465,2.431,11.111,3.647l-0.52,0.176c2.603,1.736,5.209,2.777,8.334,3.472c3.126,1.214,6.425,2.256,10.071,3.299
		c1.564,0.693,3.471,1.388,5.73,1.908c6.424,1.39,13.198,2.606,19.792,3.821c1.216,0.175,2.085,0.175,3.125,0.521
		c-4.514-0.695-9.374-1.562-13.886-2.43h-0.175c1.389,0.868,3.821,1.91,6.945,2.603c5.207,1.215,10.418,2.432,15.799,3.125
		c-2.953-0.173-5.903-0.519-8.684-0.692h-0.173c-3.473-0.523-6.77-1.217-10.067-2.26c0,0.869,0.866,1.215,2.603,1.564
		c0.173,0,0.521,0,0.693,0.173c1.737,0.523,3.126,1.043,4.514,1.215c1.91,0.697,3.821,1.215,5.733,1.389
		c19.792,3.127,39.757,3.821,59.554,2.433c-0.698-0.174-1.216-0.174-1.913-0.174c1.216,0,2.433,0,3.65,0
		c0.866,0,1.907,0,2.602-0.348c-0.347,0.522-0.347,1.04-0.518,1.216c0,0.346,0,0.346-0.176,0.52c0-0.175,0-0.696,0-1.042h-0.348
		c0,0.346,0,0.521,0,0.867c-0.693,1.565-1.214,3.299-1.559,4.864c-0.868,2.428-1.217,4.861-1.912,6.945
		c-0.871,1.909-1.739,3.818-2.78,5.556c-1.39,3.125-2.778,5.903-3.991,9.027c-5.558,13.021-12.155,25.176-20.318,36.29
		c-3.296-5.902-7.114-11.46-11.632-16.668c-0.866-0.697-1.561-1.39-2.255-2.086c-1.564-1.735-3.125-3.127-4.688-4.86
		c-1.736-1.564-3.644-3.475-5.382-5.209c-0.178-0.173-0.696-0.694-0.868-1.213c0,0,0,0-0.178-0.176c-0.34,0-0.517,0-0.866,0.176
		c-0.172,0-0.172,0-0.344,0c-0.696-0.698-1.216-1.218-1.913-1.913c-0.349-0.174-0.52-0.695-0.693-1.217
		c-0.348-0.172-0.348-0.172-0.524-0.521c-0.344-0.349-0.691-0.866-1.21-1.039c-0.349,0-0.697-0.348-1.217-0.522c0,0,0,0-0.175,0
		c-0.345,0-0.345,0-0.345-0.348c0,0.348,0,0.87,0,1.042c0.345,0.173,0.345,0.518,0.345,0.518c0,0.177,0,0.349,0,0.698
		c-0.345,0-0.345,0-0.345-0.349c0,0.521,0,1.042,0,1.217v0.347c0,1.911,0,3.82,0,5.901c0.345,4.867,0,9.554-0.521,14.068
		c-0.173,2.256-0.348,4.513-0.348,6.771c0,0.172,0,0.172,0,0.523c-0.349,0.691-0.349,1.037-0.349,1.907
		c-0.345,1.912-0.866,3.821-1.389,5.904c-2.084,10.24-4.512,20.486-7.117,30.56c-1.909,7.461-4.166,14.578-6.249,21.525
		c-2.605,7.469-5.555,14.757-8.684,22.229c-5.903,14.063-12.327,27.781-18.749,41.323c0.174,0,0.694,0,0.869-0.175
		c2.603-5.382,5.553-10.592,8.159-15.977c-0.52,1.043-0.868,2.609-1.736,3.998c-0.348,1.211-0.869,2.429-1.562,3.644
		c-1.736,3.302-3.647,6.594-5.209,9.898c-7.292,13.195-14.932,25.35-22.745,37.155c3.471-3.125,6.425-6.424,8.854-10.596
		c1.39-2.426,2.777-4.683,4.166-7.116c2.432-3.816,4.861-7.638,6.945-11.807c-4.167,8.853-9.027,17.537-14.236,25.698
		c-1.216,1.565-2.605,3.122-4.167,4.512c-0.867,0.176-1.562,0.868-1.91,1.562c0,0.351,0,0.351,0,0.521c0,0.35,0,0.698,0,1.041
		H265.965z M201.722,214.461c-0.866-2.258-1.213-4.517-1.736-6.774c0.869,3.125,2.084,6.253,3.646,9.378
		C202.765,216.369,202.417,215.327,201.722,214.461z M198.771,198.139c-0.174-2.605-0.174-5.558-0.174-8.334
		c0.174,3.992,0.348,7.987,0.868,11.458C199.292,200.395,198.945,199.354,198.771,198.139z M200.682,188.59
		c0,2.432,0.174,4.515,0.52,6.595c0,0.349,0,0.869,0,1.044c0,3.125,0.173,6.25,0.52,9.028c-0.866-3.299-1.04-6.598-1.04-10.072
		C200.682,192.928,200.682,190.847,200.682,188.59z M202.59,173.311c-0.695,2.432-1.215,4.688-1.388,7.117
		c0.52-3.992,1.214-8.334,2.083-12.326c0.347-0.348,0.347-0.522,0.521-0.696c0.173-0.346,0.173-0.868,0.173-1.041
		c0.349-0.173,0.521-0.696,0.521-1.04C203.806,168.102,203.285,170.705,202.59,173.311z M272.91,98.477
		c0.174-0.173,0.695-0.521,0.868-0.695c0.695-0.173,1.215-0.52,1.736-0.693C274.819,97.609,273.777,97.956,272.91,98.477z
		 M363.368,370.724c-0.172,0.17-0.344,0.691-0.691,0.866c-2.085-3.647-4.342-7.462-6.427-10.936
		C358.854,363.954,361.289,367.253,363.368,370.724z M383.685,339.82c-0.697,1.733-1.22,3.644-1.909,5.552
		c-1.22,2.603-2.608,5.037-3.824,7.294c-3.471,6.595-7.64,12.329-12.673,17.016c5.382-5.906,9.55-12.852,13.193-20.315
		c3.647-7.641,6.945-15.279,10.245-22.92C387.16,330.962,385.418,335.304,383.685,339.82z M349.827,392.08
		c0.173,0.348,0.173,0.348,0.173,0.348C349.827,392.428,349.827,392.428,349.827,392.08z M397.57,304.919c0,0,0,0-0.17,0
		c0.17-0.173,0.17-0.173,0.347-0.521c0-0.174,0-0.174,0-0.174C397.746,304.398,397.746,304.746,397.57,304.919z M295.481,290.68
		c3.126,0.349,6.075,0.868,8.856,1.565c2.257,0.52,4.164,1.038,6.076,1.388C305.378,292.939,300.518,291.723,295.481,290.68z
		 M424.832,307.871c0.175,0,0.523,0,0.523-0.348c-0.348,0.695-0.696,1.564-1.043,2.255
		C424.658,309.087,424.658,308.566,424.832,307.871z M475.008,297.973c-1.734,0.522-3.123,1.043-4.859,1.216
		c-3.299,0.696-6.6,1.388-10.245,1.91c5.382-1.214,10.59-2.083,15.626-3.298c0.695-0.347,1.562-0.52,2.43-0.694
		C476.92,297.281,476.052,297.8,475.008,297.973z M531.091,278.353c-0.17,0-0.17,0-0.348,0.349
		c-2.257,0.693-4.511,1.562-6.942,2.257c3.125-1.042,6.249-2.257,9.026-3.473C532.31,277.66,531.96,278.18,531.091,278.353z
		 M559.915,265.334c0.172,0.171,0.172,0.171,0.172,0.171c-0.695,0.521-1.733,1.043-2.602,1.389c-0.348,0-0.348,0-0.523,0
		c0.523-0.173,1.043-0.346,1.392-0.695C558.874,266.027,559.392,265.505,559.915,265.334z M589.953,140.147
		c-0.524-1.216-1.217-2.431-1.913-3.647c1.389,2.258,2.781,4.515,4.342,6.599C591.689,142.232,590.645,141.363,589.953,140.147z
		 M606.272,212.202c-0.351,0-0.351,0-0.351,0.346c0.527-1.737,1.047-3.644,1.22-5.553c0,1.214,0,2.428,0.172,3.644
		c-0.172,1.041-0.691,2.605-1.392,3.822c-0.863,2.428-2.078,4.688-3.296,6.769C604.015,218.452,605.233,215.327,606.272,212.202z
		 M607.835,192.581c0,2.604,0,5.558-0.176,8.162c0-0.693,0-1.216,0-1.908c0-0.869,0-1.912-0.345-2.78
		c0.345-1.562,0.345-2.949,0.345-4.686C607.835,191.889,607.835,192.41,607.835,192.581z M603.319,166.192
		c0-0.524,0-1.042-0.172-1.215c-0.695-2.78-1.912-5.035-3.125-7.121c-0.523-1.04-1.044-2.083-1.389-2.951
		c0.695,0.694,1.04,1.216,1.561,1.91c2.43,5.035,4.34,10.244,5.556,15.8C605.058,170.358,604.36,168.274,603.319,166.192z
		 M421.706,72.259c-1.214,0-2.082,0-3.299,0c-3.644-0.521-7.116-0.696-10.932-1.041c1.385-0.174,2.774-0.174,3.987-0.52
		c0.176,0.346,0.176,0.346,0.526,0.346C415.283,71.563,418.582,71.912,421.706,72.259z M351.042,391.384
		c-0.348-0.172-0.696-0.694-1.042-1.213c0.347-0.178,0.347-0.698,0.347-1.042C350.521,389.993,350.694,390.69,351.042,391.384z
		 M363.888,424.72c0-0.172,0-0.172,0.175-0.52c1.043-1.04,1.91-1.908,2.778-3.125c-0.345,0.868-0.345,1.217-0.518,1.737
		c-0.699,0.691-1.74,1.736-2.435,2.258c0-0.178,0-0.35-0.17-0.521L363.888,424.72z M367.708,419.859
		c1.216-1.217,2.087-2.606,3.128-3.992c0.696-0.347,1.389-0.869,2.085-1.907c1.216-2.434,2.602-4.863,3.816-7.295
		c1.565-2.263,2.953-4.686,4.342-7.121c-1.217,2.435-2.084,4.858-3.299,7.121c-2.6,5.729-6.248,10.94-10.59,15.278
		C367.535,421.075,367.535,420.55,367.708,419.859z M368.404,417.079c0.52-1.731,1.042-3.473,1.391-5.382
		c2.948-3.125,5.555-6.598,7.638-10.244c-1.042,2.949-2.603,5.73-3.994,8.683C371.704,412.393,370.141,414.998,368.404,417.079z
		 M363.368,419.685c0,0.697,0,1.39,0,2.257c-0.172-1.043-0.344-2.084-0.691-2.946c0.348-0.354,0.348-0.354,0.348-0.526
		c0.172,0.172,0.172,0.172,0.172,0.526c0-0.354,0-0.354,0-0.526c0.172-0.349,0.172-0.349,0.172-0.349
		C363.368,418.643,363.368,419.162,363.368,419.685z M364.932,418.643c0.173-0.697,0.173-1.564,0.348-2.427
		c1.216-1.045,2.429-2.256,3.645-3.477c-0.52,2.26-1.041,3.995-1.734,5.904c-0.695,1.217-1.567,2.432-2.778,3.649
		C364.582,421.075,364.932,419.859,364.932,418.643z M348.091,356.14c0,0.691,0,1.562,0,2.257c-1.391-2.083-2.78-4.167-3.997-6.423
		c-1.386-2.433-2.95-4.689-4.342-7.121C342.881,348.501,345.659,351.973,348.091,356.14z M335.068,422.812v-0.52
		c0.173,0,0.173-0.349,0.173-0.349s0,0,0,0.349c-0.521,1.211-1.041,2.257-1.389,3.125c0.173-0.868,0.691-1.913,0.868-2.953
		L335.068,422.812z M433.514,302.489c0.173,0.344,0.173,0.344,0.173,0.344c-0.173,0-0.523,0-0.693,0
		C433.165,302.833,433.165,302.833,433.514,302.489z M433.859,304.746c-0.172,0-0.172,0-0.345,0
		c2.606-0.522,4.863-1.043,7.293-1.562c0,0,0,0-0.172,0.345C438.377,304.05,436.12,304.398,433.859,304.746z M441.323,303.183
		c0.181,0,0.181,0,0.181-0.173c2.602-0.521,5.032-0.869,7.465-1.737v0.348c0,0.173,0,0.173-0.175,0.173
		C446.362,302.313,443.931,302.833,441.323,303.183z M449.836,301.621c0.347-0.348,0.52-0.348,0.868-0.523
		c0.693-0.173,1.386-0.173,2.084-0.522c0.172,0,0.172,0,0.52-0.173c1.217-0.174,2.43-0.174,3.473-0.519
		C454.697,300.404,452.262,300.925,449.836,301.621z M482.13,291.723c-0.695,0.349-1.217,0.349-1.91,0.349
		c0.693-0.349,1.562-0.349,2.257-0.524C482.13,291.723,482.13,291.723,482.13,291.723z M483.347,291.548
		c0.346-0.172,0.346-0.172,0.518-0.518c3.123-0.695,6.251-1.563,9.375-2.258v0.174c0,0.174,0,0.174,0.173,0.521
		c0-0.347,0-0.347,0.176-0.347c0.347-0.174,0.347-0.348,0.518-0.697c1.739-0.173,3.125-0.692,4.515-1.214
		c-0.521,0.695-0.871,1.214-1.39,1.911c-0.169,0.347-0.695,0.347-1.211,0.347c-0.872,0.174-1.913,0.174-2.781,0.347
		c-0.344,0-0.868,0-1.216,0C489.072,290.68,486.297,291.03,483.347,291.548z M498.624,288.25c0.517-0.519,1.043-1.042,1.214-1.39
		c1.389-0.345,2.953-0.866,4.167-1.041c-0.865,0.696-1.214,1.389-1.909,2.084c-1.564,0.347-2.956,0.868-4.688,1.216
		C497.931,288.945,498.449,288.423,498.624,288.25z M503.141,287.556h0.345c0.695-0.695,1.391-1.215,2.084-1.909
		c1.912-0.521,3.818-1.043,5.556-1.564c-0.348,0.348-0.521,0.87-0.696,1.043c-0.695,0.173-1.737,0.521-2.603,0.694
		c0.695-0.173,1.044-0.173,1.909-0.521c-0.865,0.521-1.737,1.043-2.432,1.217C506.091,286.86,504.702,287.208,503.141,287.556z
		 M516.161,284.082c-0.348,0.348-0.696,0.348-1.214,0.348c0.172,0,0.518,0,0.696-0.348
		C515.813,284.082,515.813,284.082,516.161,284.082z M517.378,285.298c-1.217,0.349-2.781,0.521-3.822,0.697
		c1.909-0.348,3.822-0.869,5.38-1.565c-1.211,0.173-2.43,0.522-3.471,0.695c2.777-1.043,5.73-1.91,8.336-2.953
		c-1.389,0.348-2.954,0.87-4.342,1.043c1.213-0.173,2.085-0.521,3.125-0.695c0.521-0.348,0.869-0.348,1.391-0.52
		C521.889,283.215,519.459,284.082,517.378,285.298z M578.667,253.006c0-0.175,0-0.347,0.345-0.696
		c1.564-1.388,3.301-2.778,5.038-4.512C582.313,249.706,580.403,251.443,578.667,253.006z M578.489,253.349
		c-0.693,0.869-1.734,1.912-2.602,2.607c-2.43,2.084-5.034,3.818-7.64,5.035c0.868-0.695,1.912-1.389,2.777-2.082
		c0.698-0.521,1.74-1.042,2.608-1.562c-0.175,0-0.696,0-0.868,0c2.084-1.391,3.991-3.129,5.903-4.688
		C578.667,252.83,578.667,253.006,578.489,253.349z M375.523,303.01c-0.693,0-1.561,0-2.602-0.177
		C373.962,303.01,374.83,303.01,375.523,303.01z M375.872,303.01h0.172c1.214,0,2.603,0,3.818,0v0.173c0.348,0,0.526,0,0.695-0.173
		c2.781,0,5.562,0,8.508-0.177c0,0.177,0,0.35-0.346,0.695h-0.172c-3.647,0-7.119,0-10.766-0.345
		C377.082,303.183,376.564,303.183,375.872,303.01z M389.237,303.529c0.175-0.345,0.175-0.518,0.175-0.695c1.217,0,2.258,0,3.476,0
		c-0.348,0.35-0.523,0.695-0.523,0.695C391.321,303.702,390.453,303.702,389.237,303.529z M584.222,142.405
		c-0.172-0.695-0.695-1.389-1.216-2.084c1.044,1.388,1.907,2.778,2.95,4.34C585.438,143.967,584.914,143.099,584.222,142.405z
		 M222.385,135.112c0,0.175-0.173,0.175-0.347,0.348c0.174,0,0.174-0.173,0.174-0.348H222.385z M224.816,131.467
		c0.694-1.043,1.213-1.912,1.909-2.952c1.042-0.696,1.909-1.564,2.953-2.258c1.041-1.042,2.603-1.91,3.82-3.125
		c0.345-0.347,0.867-0.695,1.04-1.043c-0.173,0.348-0.695,0.696-0.866,1.043C230.545,125.736,227.766,128.515,224.816,131.467z
		 M229.849,123.306c0.175-0.173,0.175-0.173,0.522-0.521c0.173,0,0.173,0,0.347-0.175c-0.174,0.175-0.347,0.175-0.695,0.522
		C230.024,123.306,230.024,123.306,229.849,123.306z M229.329,125.216c0.349,0,0.349,0,0.349-0.173
		c3.82-3.128,7.812-6.252,11.806-9.204c0.869-0.173,1.215-0.693,1.909-1.04c-0.173,0.173-0.347,0.173-0.694,0.347
		c-2.258,1.736-4.688,3.646-7.12,5.382C233.497,122.089,231.586,123.826,229.329,125.216z M392.54,303.529
		c0.348-0.345,0.348-0.518,0.348-0.695c0.866,0,1.907,0,2.775-0.344v0.344l0.175-0.344c0.869,0,1.733,0,2.43-0.176
		c0,0.697-0.175,1.215-0.521,1.736c-0.176,0-0.347,0-0.696,0c-0.691-0.347-1.388-0.347-2.079-0.347
		C394.277,303.702,393.233,303.702,392.54,303.529z M396.88,305.613c0.17,0,0.52,0,0.52,0c-0.349,1.216-0.52,2.258-1.041,3.126
		C396.707,307.871,396.88,306.829,396.88,305.613z M395.49,311.168c-0.347,0.522-0.695,0.871-1.043,1.216
		c0.348-0.694,0.524-1.216,0.696-1.91c0.52-0.696,0.695-1.734,1.04-2.603C395.838,309.087,395.663,309.953,395.49,311.168z
		 M393.233,312.039c-0.173,0.345-0.173,0.866-0.345,1.214c0.172-0.869,0.345-1.91,0.693-2.605
		C393.581,311.168,393.581,311.69,393.233,312.039z M393.059,314.295c0-0.347,0-0.521,0.173-0.694
		c0.696-2.259,1.739-4.514,2.43-6.772h-0.52c0.347-0.176,0.347-0.176,0.347-0.521c0.173-0.173,0.173-0.346,0.173-0.695
		c0.175,0.348,0.175,0.348,0.52,0v0.348c-0.52,1.91-1.04,3.474-1.736,5.207C393.929,312.039,393.581,313.08,393.059,314.295z
		 M298.433,483.236c-0.172,0-0.172,0-0.52,0.173c-1.39,2.951-2.084,5.729-2.432,8.681c-5.904,8.854-12.154,17.187-18.752,25
		c6.078-10.767,11.98-21.877,17.362-33.163c2.258-3.647,4.169-7.464,6.252-10.938c6.945-12.502,12.155-25.696,16.319-39.24
		c-1.733,3.65-3.471,7.466-5.035,11.462c-0.52,1.214-1.042,2.081-1.559,3.12c1.734-4.34,3.123-8.682,4.687-13.193
		c2.082-5.038,4.166-10.068,5.903-15.278c-0.175,1.736-0.175,3.3,0,5.033c0.173-0.344,0.521-1.212,0.693-1.908
		c3.646-13.544,7.119-27.43,10.246-41.149c0.52-2.083,1.04-3.993,1.214-6.078c-1.214,10.418-3.299,20.662-6.599,30.908
		c-1.216,3.645-1.736,6.941-1.216,9.893c2.607-10.242,5.037-20.66,7.295-30.902c2.777-10.244,3.47-20.489,2.777-30.734
		c0.344-1.733,0.868-3.641,1.043-5.553c0.348,1.216,0.518,2.431,0.518,3.645c0.349,4.515,1.046,8.511,2.605,12.328
		c0-0.696,0-1.213,0-1.909c-0.866-5.036-1.907-9.723-3.123-14.586c0.348-0.695,0.518-1.562,0.868-2.604
		c-0.349,0.696-0.52,1.387-0.868,2.259c-0.175-1.043-0.35-1.913-0.699-2.953c-0.17-0.176-0.17,0-0.17,0.172
		c0.17,1.043,0.52,1.909,0.695,2.951c-0.175,1.217-0.695,2.085-1.216,3.302c0-0.175,0-0.694,0-0.871
		c-0.176-2.431-0.176-4.86-0.52-7.468c0-1.213,0-2.601-0.175-3.989c0.695,0.348,1.216,0.867,1.735,1.388
		c1.217,2.601,2.606,5.037,3.991,7.638c0.178,0.175,0.178,0.52,0.524,0.696c0,1.216,0,2.606,0.175,3.821
		c0.348,5.554,1.389,10.589,3.643,15.279c0.173-0.173,0.523-0.696,0.173-1.214c-0.173-0.349-0.173-0.869-0.173-1.393
		c-1.213-5.206-2.254-10.417-3.295-15.8c1.041,1.739,2.082,3.473,3.295,4.861c0.697,4.518,1.391,9.207,2.435,14.065
		c0.346,0.52,0.866,0.87,1.04,1.738c0.348,0,0.348,0,0.523,0v-0.345c-1.216-4.692-2.432-9.553-3.299-14.59
		c1.216,1.565,2.084,2.607,3.299,3.823c0,0.346,0,0.692,0,1.042c0.345,1.561,0.523,3.474,0.695,5.206
		c0.346,2.607,1.214,4.519,2.603,6.253v-0.347c-1.042-3.472-1.909-7.293-2.257-11.112c0.172,0.522,0.695,0.87,1.214,1.213
		c-0.347-0.343-0.347-0.52-0.52-0.691c-0.346-0.522-0.695-1.046-1.041-1.564c0-0.696,0-1.564-0.172-2.606
		c1.213,1.736,2.081,3.648,2.775,5.56c0.866,1.562,1.561,3.121,2.254,4.337c0.698,2.603,1.392,4.862,2.087,7.641v0.173
		c0,0.694,0.348,1.04,0.52,1.214v-0.174c-0.172-2.429-0.693-4.862-1.389-7.29c0.348,0.693,0.869,1.216,1.389,1.735
		c0-0.346,0-0.519-0.172-0.696c-1.217-3.122-2.435-6.249-3.822-9.376c2.605,3.647,4.691,7.468,6.947,11.285
		c-0.348-1.559-1.042-2.948-1.737-4.511c0.695,0.695,1.217,1.04,1.909,1.912v0.171c0.698,1.216,1.392,2.084,2.085,3.127
		c0.348,0.17,0.348,0.17,0.348,0.17v0.352c0.693-0.352,1.217-0.352,1.389,0.343c0.172,0.351,0.172,0.525,0.521,0.525
		c-0.35-0.174-0.521-0.695-0.693-1.219c0.344-0.17,0.693-0.692,0.863-1.213c0.175,0.345,0.175,0.345,0.524,0.345
		c0.17,0,0.17,0,0.17-0.345v-0.175c0.35-0.17,0.35-0.17,0.523-0.515c3.647-2.608,6.599-5.383,9.377-9.033
		c-2.257,3.299-4.687,6.425-7.467,9.033c0.175-0.177,0.175-0.523,0.175-0.696c-0.175,0.173-0.175,0.696-0.35,1.041
		c-0.345,0.346-0.868,0.866-1.217,1.389c0.176,0,0.699,0,0.872,0c-0.696,3.121-1.216,5.902-0.872,9.025h0.176
		c0.173-3.123,0.696-5.904,1.216-9.025c0.693-0.698,1.389-1.219,2.432-1.734c-0.348,1.211-0.523,2.255-0.695,3.297
		c-0.348,1.041-0.348,2.081-0.521,2.777c-0.348,1.389-0.348,2.604,0.521,3.299v-0.17c0.172-3.129,0.347-6.253,1.043-9.379h0.347
		c0.695-0.696,1.213-1.735,1.909-2.604c-0.696,3.126-1.041,6.423-1.214,9.721c0,0.523,0.173,0.523,0.518,0.351v-0.351
		c0.178-3.643,0.696-7.117,1.219-10.764c0.693-0.695,1.04-1.389,1.564-2.081c-0.698,3.125-1.394,6.251-2.087,9.203v0.344
		c0,0.524,0.175,0.697,0.523,0.697v-0.173c0.866-3.82,1.564-7.641,2.257-11.287c1.042-1.39,1.907-3.127,2.603-4.86
		c-0.175,2.258-0.175,4.169-0.351,6.077c0,1.387,0.176,2.43,0.698,3.125v-0.345c0.173-3.476,0.523-6.948,0.693-10.422
		c0.696-1.388,1.389-2.953,2.084-4.509c-0.346,2.775-0.866,5.903-1.388,9.024c-0.173,1.22,0,2.086,0.521,2.608v-0.177
		c0.52-4.165,0.866-7.988,1.214-11.804c0.175-0.524,0.523-0.871,0.695-1.39c0.696-1.391,1.219-2.954,1.739-4.341
		c0.173-0.173,0.173-0.522,0.348-0.694c1.733-4.34,3.474-8.508,5.032-12.85c0.695-1.216,1.388-2.429,2.258-3.644
		c0,0.347,0,0.347,0,0.52c0,3.821,0,7.639,0.175,11.287c0.17,0,0.17,0,0.52,0v-0.348c0.173-3.992,0.173-7.814,0-11.979
		c0.173-0.695,0.349-1.565,0.695-2.258c0.523-0.869,0.868-1.735,1.216-2.429c0.348,3.122,0.696,5.901,0.866,9.027
		c0.348,1.389,0.524,2.605,1.043,3.298v-0.172c-0.347-4.516-0.695-8.856-1.561-13.196c0.866-1.389,1.734-2.779,2.43-4.513
		c0.691-1.389,1.211-2.777,1.734-4.515c0.175,2.951,0.521,5.73,0.698,8.682c0,1.39,0.518,2.258,1.213,2.778v-0.174
		c-0.695-4.167-1.389-8.16-1.736-12.154c1.217-3.646,1.736-6.944,1.91-10.592c0.347-1.215,0.347-2.604,0.347-3.992
		c-0.521,0.174-1.04,0.695-1.216,1.388c-0.348,0.867-0.695,1.912-1.041,2.604c-0.698,0-1.388,0-2.43,0
		c2.255-3.298,3.647-6.945,4.862-10.765v0.175c-1.739,3.646-3.299,6.947-4.862,10.59c-0.866,0-1.909,0-2.605-0.173
		c1.739-3.471,3.474-6.945,4.514-10.593c-0.176,0-0.176,0-0.347,0.175c-1.737,3.646-3.123,6.947-4.34,10.418
		c-1.04,0-1.909,0-3.125,0c1.735-3.471,3.298-6.945,5.036-10.593c-0.176,0-0.176,0-0.176,0.175
		c-1.907,3.125-3.819,6.772-5.558,10.418c-1.214,0-2.602,0-3.991-0.346c2.603-3.473,4.514-7.294,5.904-11.114h-0.175
		c-1.739,2.779-3.473,5.731-5.038,8.508c-0.52,1.215-1.04,1.91-1.21,2.606c-1.217,0-2.263,0-3.301,0
		c2.605-3.994,4.86-8.161,6.769-12.675l-0.173,0.347c-2.605,3.993-5.205,7.986-7.467,12.328c-1.213-0.173-2.603-0.173-3.819-0.173
		c2.432-3.821,4.69-7.988,6.6-11.98c-1.561,1.215-2.781,2.952-3.476,4.859c-0.866,2.085-2.082,3.995-3.298,5.904
		c-0.173,0.173-0.52,0.695-0.692,1.217c-3.822-0.348-7.641-0.696-11.81-1.045c-2.603-0.173-5.208-0.347-7.813-0.692
		c1.043,0,1.91,0,2.953,0c-1.042-0.175-1.91-0.175-3.125-0.524c2.257,0,4.689,0,7.119-0.172c-2.086-0.173-3.994-0.519-5.904-0.694
		c-1.214,0-2.432,0-3.649-0.174c3.131-4.862,6.429-9.55,9.553-14.411h-0.172c-3.822,4.513-7.295,9.374-10.074,14.411
		c-1.734-0.348-3.47-0.348-5.033-0.521c-7.117-0.694-14.412-1.91-21.356-3.3c2.257,0.174,4.167,0.174,6.076,0.174c0,0,0,0,0,0.173
		c0.175,0,0.175,0,0.175-0.173c1.041,0,1.909,0,2.95,0c-0.693-0.174-1.735-0.174-2.777-0.52c2.257-2.606,3.644-5.382,4.342-8.507
		l-0.175,0.173c-1.74,2.603-3.126,5.556-4.34,8.335c-1.214-0.173-2.603-0.521-3.822-0.695c-2.084-0.521-4.34-0.866-6.423-1.388
		h0.175v-0.349c1.907-2.603,3.645-5.208,5.034-7.986l-0.172,0.173c-2.258,2.606-4.167,5.21-5.731,8.162
		c-1.909-0.524-3.818-1.042-6.076-1.391c-9.202-2.43-18.406-5.034-27.432-8.16c-0.869-0.348-1.911-0.692-2.78-1.214
		c-9.375-4.341-18.405-8.856-27.606-13.718c0.695,0.348,1.737,0.348,2.431,0.348c-1.217-0.348-2.604-0.521-3.992-1.042
		c-2.606-1.389-5.557-2.779-8.161-4.166c-3.128-1.737-6.252-3.472-9.028-5.381c-3.648-2.78-7.292-5.904-10.593-9.029
		c-2.604-2.607-5.208-5.21-7.812-8.334c-2.257-2.432-4.166-4.864-6.077-7.468c-0.868-1.214-1.91-2.604-2.777-3.993
		c1.389,1.389,2.777,2.78,3.994,3.993c-0.174-0.173-0.521-0.695-0.695-1.214c-0.695-0.695-1.39-1.215-2.084-1.91
		c0-0.175,0-0.694,0.174-0.869c0.174-0.347,0.174-0.347,0.174-0.347c-0.174-0.695-0.695-1.213-0.869-1.91
		c-1.736-1.562-3.125-3.124-4.862-4.688c-2.081-6.25-3.819-12.673-4.687-19.447c0.174,1.043,0.695,1.913,1.217,2.952
		c-2.606-10.242-2.953-20.66-0.521-30.73c1.217-5.21,2.778-10.419,5.209-15.452c0-0.175,0-0.175,0-0.522
		c1.215-1.389,2.257-2.779,3.299-4.167v-0.347c0.347-0.695,0.868-1.564,1.042-2.258c0-0.347,0-0.695,0-1.215
		c-0.174,0.521-0.521,0.869-1.042,1.215c0.868-1.215,1.562-2.778,2.258-4.166c0.173-0.175,0.52-0.522,0.695-0.695
		c0.695-1.042,1.736-2.084,2.429-3.127c0.869-1.214,1.91-2.603,2.779-3.819c0.696-1.737,1.91-3.299,3.472-5.034
		c2.257-2.605,4.687-5.036,7.12-7.293c2.604-2.951,5.381-5.557,8.334-8.16l0.519-0.52c0.695-0.521,1.216-0.868,1.91-1.389
		c0.173-0.347,0.522-0.52,0.695-0.695c2.777-1.736,5.73-3.471,8.508-5.034c3.126-1.737,6.25-3.647,9.376-5.556v0.172
		c2.606-1.041,5.036-2.604,7.638-3.818c1.217-0.695,2.606-1.563,3.821-2.604c3.818-1.91,7.64-3.82,11.458-5.731h-0.173
		c2.082-0.693,3.993-1.562,6.249-2.429c11.114-3.474,22.572-6.598,34.032-9.723c1.561-0.522,2.95-0.869,4.167-1.216
		c0.866-0.173,1.909-0.521,2.775-0.695c5.033-0.694,9.898-1.214,14.933-1.909c5.731-0.695,11.462-1.735,17.365-2.431
		c10.067-0.173,20.141-0.173,30.211,0c5.903,0.348,11.632,0.522,17.36,1.042c8.857,0.694,17.535,0.694,26.219,0.173
		c4.687,0.521,8.854,1.042,13.195,1.736c10.941,1.562,22.049,3.126,32.815,4.515c1.565,0.173,3.123,0.52,4.688,0.173
		c0.348,0.347,0.693,0.347,1.041,0.347c0.173,0,0.348,0,0.693,0c8.335,2.085,16.497,4.514,24.657,7.12
		c2.95,0.868,5.903,1.91,8.856,3.123c-0.349-0.173-0.349-0.519-0.523-0.693c0.695,0.174,1.391,0.693,2.085,0.867
		c0.523,0.347,1.039,0.347,1.214,0.521c-1.214-0.174-2.084-0.521-3.126-0.695l-0.173,0.174c1.564,0.347,3.125,0.695,4.69,1.217
		c0.346,0.347,0.346,0.347,0.52,0.347c0.695,0.174,1.388,0.695,2.085,0.868l0.347,0.173c0.172,0,0.172,0,0.172,0
		c7.467,3.648,14.758,6.773,21.705,9.898c-2.953-1.737-6.078-3.646-9.202-5.209c2.602,1.042,5.036,2.256,7.637,3.472
		c0.524,0.346,0.872,0.695,1.565,1.042c3.643,2.084,7.29,4.169,10.591,6.945c2.082,1.564,3.992,2.951,5.729,4.687
		c-8.682-6.945-18.231-12.154-28.648-15.8h-0.349c13.195,5.384,25.175,12.676,35.939,22.572c0.695,0.695,1.736,1.388,2.432,2.082
		c3.128,3.647,5.904,7.12,8.509,10.938c0.691,1.042,1.216,1.911,1.734,2.78l0.872,1.216c1.735,2.778,3.471,5.555,5.033,8.508
		c-0.348-0.521-1.216-1.042-1.909-1.388c-0.521-1.042-0.868-1.911-1.389-2.605c-7.467-12.328-17.189-22.572-29.344-30.383h-0.348
		c11.461,8.332,21.009,18.576,28.996,31.252c-0.348,0-0.348,0-0.521-0.175v0.175l-0.175,0.172c-1.561-2.257-2.95-4.686-4.511-6.771
		c-1.737-2.78-3.821-5.382-6.077-7.466c-0.521-0.693-0.871-1.736-1.567-2.431h-0.345c0.345,0.173,0.524,0.695,0.695,1.217
		c-2.085-2.432-4.512-4.516-7.119-6.771h-0.173c2.606,2.429,5.038,5.034,7.292,7.64c1.217,1.562,2.43,2.951,3.647,4.339
		c0.173,0.521,0.52,1.042,0.695,1.388c0.173,0.869,0.695,1.562,1.041,2.258c-0.868-0.696-1.735-1.39-2.778-2.258
		c1.216,1.216,2.432,2.78,3.646,4.342c0.696,1.736,1.739,3.299,2.432,4.861c3.123,6.426,5.383,13.195,7.12,20.14
		c1.388,5.905,2.945,12.154,4.512,18.058c0.347-0.52,0.347-1.041,0-1.389c-0.869-6.945-2.254-13.717-4.512-20.662
		c-1.737-5.208-3.649-10.416-5.731-15.451c2.602,4.688,5.036,9.549,6.772,14.758c1.904,5.555,3.296,11.287,4.512,17.189l0.173,0.348
		c0,0.173,0,0.695,0,1.043c0.349,0.52,0.523,1.042,0.695,1.213c-0.345-3.82-1.213-7.812-2.084-11.634
		c-1.213-4.686-2.602-9.549-4.514-14.062c2.435,5.035,4.339,10.068,5.903,15.105c0.523,1.562,1.044,2.953,1.216,4.688
		c1.041,5.036,1.909,10.07,2.953,15.106c-0.345-4.342-0.869-8.682-1.736-13.023c-1.217-6.945-3.301-13.714-6.251-20.313
		c-1.564-3.473-3.301-7.119-5.558-10.417c0.869,0.521,1.217,0.867,1.912,1.388c0.345,0.348,0.345,0.695,0.521,1.042
		c5.553,9.724,9.549,19.795,12.673,30.037c-2.084-9.723-5.731-19.272-10.417-28.473c0.695,1.042,1.561,1.91,2.254,2.603
		c1.043,2.258,1.913,4.343,2.954,6.598c1.216,2.605,2.084,5.037,2.777,7.641c1.041,3.297,1.91,6.597,2.777,9.895
		c0,1.216,0,2.606,0,3.649c-0.345,6.769-0.517,13.368-0.866,19.79c0,2.257,0.35,3.474,0.866,4.169
		c0.175-1.042,0.175-1.911,0.35-2.604c0.695-5.73,1.041-11.458,1.211-17.189c0.351,1.042,0.351,2.084,0.351,3.3
		c0.35,9.201-0.868,17.882-3.474,25.696c-0.69,2.257-1.562,4.167-2.775,6.252c-1.739,3.125-3.646,6.25-5.207,9.375
		c0,0.175,0,0.175-0.349,0.175c0.693-1.563,1.734-3.3,2.429-5.037c-0.175,0-0.175,0-0.175,0.348
		c-1.733,2.604-3.122,5.208-4.339,7.814c-1.561,2.255-3.125,4.166-4.862,6.251c1.216-4.34,2.606-8.682,4.343-12.849
		c-2.435,3.993-3.995,8.334-5.213,12.849c-0.348,0.519-0.348,0.868-0.518,1.388c0,0.348,0,0.348-0.176,0.521
		c-1.734,1.909-3.47,3.819-5.034,5.556c1.216-2.259,2.257-4.688,3.473-6.772h-0.173c-2.084,2.431-3.646,5.035-4.512,7.814
		c-2.433,2.43-4.862,4.688-7.467,6.771c1.907-3.297,4.163-6.771,6.246-9.724c-1.038,0.697-1.904,1.39-2.602,2.604
		c-1.04,1.217-1.737,2.085-2.43,3.3c-0.868,1.736-1.736,3.125-2.433,4.686c-1.214,1.217-2.602,2.261-3.989,3.127
		c-0.349,0.346-0.523,0.346-0.696,0.346c2.257-3.125,4.515-6.25,6.425-9.375c-0.175-0.175-0.175-0.175-0.521,0
		c-2.084,3.125-4.342,6.426-6.427,9.55c-1.388,0.692-2.95,1.736-4.511,2.43c2.081-3.645,4.511-7.466,6.596-10.94h-0.173
		c-2.953,3.474-5.213,7.123-6.947,11.113c-1.389,0.695-2.777,1.217-4.34,1.912c2.605-4.515,5.38-8.856,7.465-13.371h-0.173
		c-0.523,0.521-1.038,1.043-1.561,1.39l-0.173,0.344c-2.084,3.998-4.342,7.814-6.251,11.985c0.348,0,0.348,0,0.52,0
		c-2.605,1.214-5.038,2.255-7.465,3.47c3.647-5.381,6.945-10.938,9.552-16.843c-3.304,4.862-6.429,10.246-9.03,15.628
		c0,0.348,0,0.348-0.173,0.348c-0.348,0.521-0.348,0.867-0.52,1.216c-2.433,1.214-4.865,2.256-7.119,3.473
		c-4.17,1.736-7.988,3.125-11.982,4.861c0.172-0.347,0.69-0.347,0.866-0.521c0.346-0.521,0.346-0.869,0.524-1.214
		c3.125-4.342,5.903-8.511,9.028-12.676c-4.167,4.341-7.815,8.854-10.938,13.891c0,0.174,0,0.174-0.175,0.174
		c0,0.347,0,0.347,0,0.521c-2.603,1.043-5.383,1.91-7.99,3.126c-0.691,0.173-1.561,0.695-2.605,1.043
		c3.647-4.689,6.947-9.378,10.074-14.24c-3.997,4.688-7.989,9.55-10.938,14.584c-1.913,0.87-3.822,1.564-5.558,2.258
		c0.173-0.348,0.173-0.348,0.52-0.52c0.172-0.173,0.695-0.173,0.866-0.173c-0.172,0-0.518,0-0.695,0
		c2.606-2.951,5.038-6.077,7.122-9.549c-0.175-0.346-0.175-0.346-0.175,0c-2.605,3.299-5.208,6.599-8.16,9.723
		c-1.564,0.173-3.122,0.52-4.688,0.694c3.994-3.992,7.64-8.334,10.421-13.195c-2.085,1.908-4.344,4.169-5.906,6.771
		c-1.739,2.431-3.822,4.515-6.078,6.772c-1.042,0.173-2.603,0.173-3.821,0.346c2.258-2.083,4.342-4.339,6.076-6.596
		c-1.734,1.562-3.646,3.47-5.726,5.38c-0.521,0.521-1.044,1.043-1.389,1.564c-1.564,0.173-2.954,0.348-4.34,0.694
		c3.125-3.646,6.249-6.945,9.201-10.59c-0.868,0.345-1.907,1.04-2.603,1.736c-2.606,3.125-5.211,5.904-7.815,9.029
		c-1.04,0.345-2.257,0.518-3.298,0.693c3.471-3.299,6.599-7.117,9.029-11.113c-3.296,3.995-6.947,7.986-10.591,11.635
		c-1.216,0.173-2.605,0.519-3.822,0.692c1.217-1.214,2.258-2.428,2.951-3.471c-1.214,1.043-2.602,2.603-3.816,3.819
		c-1.736,0.348-3.301,0.869-5.038,1.043c2.605-2.258,5.038-4.862,7.468-7.641c-0.348,0-0.524,0-0.871,0.348
		c-2.6,2.605-5.38,5.21-7.986,7.815c-1.562,0.345-2.953,0.695-4.34,1.213c2.778-2.777,5.556-5.729,7.815-8.853h-0.173
		c-3.125,2.603-5.904,5.728-8.854,9.028c-1.044,0.349-1.91,0.523-2.953,0.87c2.953-2.433,5.553-5.037,7.985-7.99h-0.173
		c-2.953,2.952-5.903,5.732-8.854,8.335c-1.04,0.345-1.909,0.521-2.954,0.695c2.606-2.953,5.558-6.077,8.163-9.203
		c-1.213,0.868-2.43,1.91-3.298,3.125c-2.258,2.085-4.167,4.167-5.731,6.425c-2.257,0.694-4.684,1.388-6.769,1.91
		c3.992-2.952,7.635-6.077,10.765-9.55c-3.995,3.126-8.163,6.425-12.155,10.071c-0.695,0.174-1.214,0.174-1.91,0.347
		c3.473-3.475,7.121-7.292,10.766-11.112c-0.52,0.173-1.041,0.348-1.565,0.869c-3.991,3.644-7.813,7.465-11.629,10.938
		c-2.432,0.868-4.862,1.217-7.467,1.908c3.126-2.603,6.076-5.207,8.854-7.813c-3.471,2.606-7.12,5.211-10.245,8.337
		c-0.173,0-0.521,0-0.693,0.345c3.991-3.818,7.815-7.637,11.459-11.458c-0.696,0.174-1.389,0.695-2.085,1.388
		c-1.734,1.388-3.643,2.779-5.383,4.515c-2.082,1.911-4.167,3.821-5.906,5.902c-1.21,0.349-2.6,0.697-3.816,1.045
		c2.606-2.26,5.036-4.168,7.468-6.252c1.04-1.215,2.254-2.43,3.298-3.297h-0.521c-3.821,2.603-7.116,5.382-10.245,8.853
		c-0.52,0.348-1.04,0.696-1.386,0.869c-0.349,0.346-0.696,0.346-1.044,0.346c-0.521,0.173-0.868,0.173-1.389,0.173
		c3.994-3.818,7.816-7.813,11.634-11.978c0.348-0.176,0.348-0.176,0.52-0.176c0.521-0.346,0.695-0.693,0.695-1.214
		c-0.695,0.521-1.214,0.869-1.561,1.39c-4.688,3.818-8.508,7.986-11.98,11.978c-0.348,0.176-0.523,0.176-0.698,0.176
		c0.175,0,0.175,0,0.349,0c0,0.344,0,0.344-0.175,0.521c-1.385,0.173-2.603,0.518-3.818,0.692c0.172-0.519,0.518-0.869,0.695-1.562
		c3.816-4.168,7.464-8.16,10.938-12.327c-3.3,2.779-6.427,5.73-9.552,9.201c0.521-0.695,1.044-1.562,1.216-2.257h-0.172
		c-1.217,1.736-2.084,3.471-3.125,5.036c0,0.346,0,0.346-0.173,0.519c-0.697,0.697-1.214,1.389-1.737,2.084
		c-0.173,0.348-0.521,0.348-0.696,0.348c0.175-0.696,0.523-1.736,0.696-2.432c3.647-4.513,7.465-9.375,10.938-13.891l-0.175,0.349
		c-3.819,3.474-7.116,7.293-10.24,11.458c0.172-0.869,0.172-1.214,0.517-1.909c-0.866,0.349-1.04,1.04-1.04,2.083
		c-0.173,0.521-0.521,0.869-0.696,1.391c-0.693,0.695-1.216,1.734-1.736,2.429c0.347-0.174,0.347-0.174,0.52-0.174
		c-0.173,0.696-0.52,1.216-0.693,1.564c-0.346,0.348-0.696,0.348-1.041,0.522c0.518-0.87,1.041-1.912,1.734-3.125h0.175
		c0.348-0.521,0.348-0.869,0.348-1.216c-0.348,0.695-0.696,1.389-1.216,2.255c-0.346,0.174-0.523,0.348-0.696,0.696
		c-0.345,0.694-0.695,1.216-1.041,1.562c-0.172,0-0.521,0-0.696,0c0,0.346,0,0.521-0.172,0.867c0.172,0,0.347,0,0.696,0
		c-0.349,0.348-0.524,0.87-0.696,1.043c-0.346,0.522-0.346,1.042-0.521,1.218c-0.696,1.038-1.216,1.906-1.389,3.122
		c-0.349,0.347-0.349,0.694-0.518,1.043c-0.175,0.694-0.523,1.214-0.523,1.91l0.348,0.174c0-0.174,0-0.174,0.175-0.174
		c0-0.348,0-0.348,0-0.523c0.169-0.694,0.518-1.215,0.692-1.909c0.52-1.217,1.043-2.606,1.737-3.821
		c0.172-0.173,0.172-0.694,0.347-1.042c0.349-0.172,0.521-0.695,0.868-1.043c0.173,0,0.349,0,0.695-0.346c0,0.346,0,0.346,0,0.346
		c-0.345,0.175-0.521,0.175-0.695,0.175c0.173,0,0.173,0,0.349,0c0,0.173,0,0.173-0.176,0.521c-0.173,0.174-0.691,0.174-1.041,0.347
		c0.349,0,0.868,0,1.041-0.172c-0.52,1.214-1.041,2.081-1.388,3.297c-0.346,0.348-0.346,0.521-0.521,0.697
		c-0.173,0.519-0.521,1.041-0.696,1.735v0.175c-0.349,0.518-0.693,1.04-1.042,1.563h0.349c-2.255,4.686-4.512,9.548-6.771,14.062
		c0.345-0.173,0.345-0.695,0.523-1.215c-1.739,2.603-3.128,5.73-4.517,8.854c-0.344,0.695-0.523,1.217-0.695,1.737l-10.418,21.355
		c-0.176,0.35-0.176,0.872-0.347,1.22c-0.349,0.343-0.349,0.343-0.349,0.518l-0.691,1.214v0.176c0,0.345-0.176,0.522-0.521,0.696
		c0,0.345,0,0.517-0.175,0.868l-4.342,9.025c-0.17,0.869-0.691,1.91-1.386,2.78c-2.085,4.688-4.517,8.854-6.597,13.37
		c-3.647,6.593-7.988,12.674-12.676,18.401c-0.348-0.172-0.52,0-0.52,0.35c0,0.175,0,0.518-0.347,0.696
		c-1.043,1.388-2.26,2.776-3.473,3.989c1.213-3.47,2.43-7.119,3.991-10.761l0,0c0-0.866,0.348-1.562,0.523-2.258
		c-0.175,0-0.695,0.173-1.041,0.347c-2.087,4.686-3.473,9.376-4.69,14.065c-0.173,0.173-0.173,0.349-0.523,0.349
		c0-0.177,0-0.692,0-1.046c-0.17,0.869-0.52,1.217-0.695,1.913c-0.17,0.342-0.17,0.342-0.17,0.342
		c0.17-1.038,0.17-1.902,0.345-2.598c1.217-5.388,2.26-10.592,3.128-15.802c-0.35,1.387-0.868,3.126-1.391,4.688
		c-0.52,1.911-0.868,3.819-1.737,5.726c-1.038,3.125-1.386,6.084-1.038,8.682c-0.348,0.351-0.348,0.351-0.524,0.521
		c-0.344-0.696-0.518-1.559-0.693-2.255c0.869-5.902,2.081-11.631,3.473-17.712c-0.697,1.219-1.217,2.432-1.392,3.995
		c-0.692,3.989-1.731,7.991-2.599,12.157c-0.179-0.696-0.523-1.566-0.698-2.434c0.175-3.125,0.175-5.906,0-9.031
		c-0.693,1.566-1.041,3.474-1.041,5.734c0,0.172,0,0.172,0,0.344c-0.176-0.52-0.696-1.561-1.216-2.603
		c0.348-4.166,0.348-8.506,0-12.675c-0.175-0.17-0.349,0-0.349,0.349c-0.345,3.995-0.345,7.641,0,11.114
		c0-0.175,0-0.175-0.345-0.355v-0.513c-0.175-0.698-0.693-1.739-1.216-2.606c-0.175-4.342-0.868-8.682-1.564-12.676
		c-0.348-0.347-0.52-0.347-0.52,0c0.172,3.473,0.695,7.291,1.216,10.937c-0.348-0.695-0.521-1.214-1.044-1.907
		c-0.172-0.524-0.689-0.873-0.869-1.739c0.181-4.86,0-9.723-1.216-14.408c0,4.166,0,8.504,0.179,12.844
		c-0.179-0.343-0.351-0.691-0.696-1.209c-0.172-1.912-0.521-3.821-1.216-5.735c0.348-1.734,0.521-3.298,0.695-5.032
		c-0.173,1.214-0.695,2.08-0.868,3.298c-0.175,0.346-0.175,0.346-0.175,0.52c0-0.174,0-0.174-0.347-0.52
		c-0.173-0.171-0.52,0-0.52,0.346c0.346,0.351,0.346,0.87,0.346,1.217c-0.346,0.691-0.523,1.042-0.695,1.565
		c0,0,0-0.176-0.346-0.524c0-1.388,0-2.775,0-4.513c-0.35,2.606-0.695,5.037-0.695,7.638c-0.175,0.696-0.696,1.74-0.871,2.607
		c0.175-3.3,0.175-6.601,0.175-9.899h-0.175c-0.52,4.168-1.041,8.51-1.213,13.021c-1.046,3.127-1.913,6.078-2.953,8.856
		c-1.214,2.953-2.255,5.728-3.821,8.334c-0.172,0.696-0.349,1.046-0.69,1.565c1.733-4.517,3.296-9.38,4.856-14.065
		c0.695-1.562,1.217-2.953,1.562-4.34c0-0.349,0-0.349,0-0.521c0.349-1.218,0.349-2.084,0.523-3.125
		c0.175-1.215,0.695-2.083,1.044-3.126c-0.521,1.214-1.044,2.256-1.567,3.3c0,0.343,0,0.866-0.17,1.039
		c0.52-3.645,0.52-7.121,0.17-10.762c-0.17-0.175-0.17-0.175-0.17,0c-0.175,5.037-1.042,9.724-1.737,14.582
		c-0.695,1.738-1.214,3.13-1.91,4.518c0.346-1.388,0.696-2.78,1.042-4.518l-0.347-0.174c0-0.868,0-1.734,0-2.43l-0.173,0.174
		c-0.176,3.125-0.696,6.426-1.391,9.372c-0.524,1.22-1.043,2.438-1.733,3.649c1.04-4.683,1.386-9.375,1.208-14.41
		c-0.69,5.904-1.734,11.635-2.774,17.709c-0.349,0.525-0.349,0.868-0.349,1.221c-0.17,1.039-0.693,1.907-1.217,2.598
		c0.349-2.598,0.524-5.208,0.524-7.986c-0.524,3.474-0.868,6.776-1.392,10.071c-0.518,1.217-1.04,2.603-1.733,3.821
		c-0.175,0.52-0.52,1.039-0.695,1.565c0.175-3.128,0.52-6.082,0.52-9.03c-0.345-0.343-0.345-0.343-0.345,0
		c-0.349,3.644-0.869,7.465-1.389,11.286c-0.869,2.255-1.913,4.34-2.781,6.422c0.173-2.606,0.348-5.204,0.696-7.814
		c-0.696,2.609-1.214,5.207-1.912,8.337c-0.345,1.04-0.345,1.908-0.52,2.949c-1.389,3.299-3.125,6.601-4.86,9.726
		c0.868-5.21,1.91-10.418,3.123-15.455c-1.907,3.998-3.123,8.511-3.818,13.541c-0.173,1.39-0.173,2.61,0,3.65
		c-0.695,1.91-1.564,3.473-2.606,5.21c0.351-2.086,0.523-4.341,0.523-6.425c-0.172,2.084-0.693,4.517-1.041,7.115
		c0,0.349,0,0.697-0.176,1.042c-0.17,0.696-0.693,1.393-0.868,2.089c-0.518,1.039-1.04,1.907-1.561,2.949
		c0-0.865,0-1.214,0.347-1.738h-0.347c-0.172,1.217-0.693,2.604-1.216,3.818c-1.562,3.127-3.301,5.908-5.033,8.861
		c0.868-2.438,1.561-4.866,1.733-7.472c0-0.171,0-0.171,0.351-0.171c0.172-0.525,0.172-1.044,0.172-1.388
		c-0.172,0.344-0.695,0.863-1.04,1.559v0.349c-0.871,3.296-1.912,6.598-2.606,9.896c-1.909,3.474-3.994,6.77-6.249,10.073
		c0.52-2.604,1.04-5.385,1.213-8.163c-0.173,0-0.173,0-0.173,0.347c-0.172,0.52-0.172,0.87-0.172,1.566l-0.348,0.343v0.176
		c-0.696,2.428-0.869,4.862-1.214,6.945c-0.869,1.736-1.91,3.125-3.128,4.857c-0.172,0.352-0.692,0.874-0.868,1.049
		C297.044,487.92,297.738,485.663,298.433,483.236z M425.355,306.829h0.175C425.529,306.829,425.529,306.829,425.355,306.829z
		 M205.196,221.23c0,0,0,0,0.347,0c1.91,3.647,3.82,6.945,5.903,10.419l1.91,2.777c0.174,0.349,0.52,0.52,0.694,0.693
		c0.522,0.696,1.042,1.217,1.39,1.91c-0.173-0.175-0.173-0.175-0.347-0.347c-0.348,0-0.348,0-0.348-0.345
		c-3.298-3.995-6.423-8.335-9.549-12.327c-0.695-1.738-1.563-3.65-2.431-5.732C203.633,219.149,204.5,220.19,205.196,221.23z
		 M218.389,242.76c-1.909-1.907-3.645-3.993-5.208-6.077c-1.215-1.736-2.257-3.124-3.472-4.861
		C212.661,235.643,215.44,239.289,218.389,242.76z M243.915,263.597c0.346,0.173,0.519,0.173,0.695,0.519
		c0.692,0.522,1.562,0.871,2.257,1.39c-0.52-0.171-1.042-0.519-1.739-0.693c-0.173-0.175-0.173-0.175-0.518-0.521
		C244.434,264.115,244.261,263.77,243.915,263.597z M257.978,271.061c-0.695-0.348-1.39-0.694-2.258-1.214
		c-1.041-0.522-1.91-1.043-2.952-1.737C254.506,269.153,256.416,270.019,257.978,271.061z"/>
	<path fill="#333333" d="M328.989,293.459c0.175-0.176,0.175-0.176,0.523-0.176c2.605-2.603,4.514-5.728,5.73-9.374
		c-0.173,0-0.173,0-0.173,0.173C332.984,287.208,331.076,290.335,328.989,293.459z"/>
	<path fill="#333333" d="M382.818,357.006v-0.175h0.17c0.349-3.818,0.523-7.639,0.697-11.283c-0.697,3.819-1.22,7.984-1.391,11.98
		c0,0,0,0,0.17-0.174v-0.348H382.818z"/>
	<path fill="#333333" d="M385.418,352.492c0.176,0,0.52,0,0.701-0.169v-0.349c0.687-3.822,1.21-7.642,1.041-11.461h-0.354
		C386.118,344.678,385.594,348.672,385.418,352.492z"/>
	<path fill="#333333" d="M388.196,346.242c0.35,0.696,0.521,1.042,1.041,0.696v-0.175c-0.691-3.996-0.691-8.334,0-12.675h-0.173
		C388.196,338.083,388.023,342.248,388.196,346.242z"/>
	<path fill="#333333" d="M397.746,332.872v-0.174c0-4.859-0.176-9.548-0.866-14.583c-0.173,0-0.173,0-0.173,0.174
		C396.359,323.323,396.88,328.358,397.746,332.872z"/>
	<path fill="#333333" d="M401.915,321.24v-0.347c-1.044-3.473-1.737-7.291-1.912-10.939h-0.345c0,1.215,0,2.086,0,3.127
		c0.345,2.776,1.041,5.728,1.734,8.333C401.566,321.588,401.915,321.588,401.915,321.24z"/>
	<path fill="#333333" d="M403.132,299.885h-0.35c-0.173,4.165,0,8.333,1.043,12.499c0.173,0,0.173,0,0.517,0v-0.345
		C403.999,308.045,403.476,304.05,403.132,299.885z"/>
	<path fill="#333333" d="M287.668,501.639c1.216-2.956,2.084-5.734,3.299-8.333c0-0.353,0-0.353-0.175,0
		c-1.388,2.774-2.602,5.728-3.297,8.506C287.668,501.811,287.668,501.811,287.668,501.639z"/>
	<path fill="#333333" d="M313.191,462.571l0.347-0.177c0.871-3.638,1.564-6.94,2.258-10.414h-0.173
		C314.408,455.454,313.538,459.1,313.191,462.571z"/>
	<path fill="#333333" d="M522.583,279.395h0.175c3.646-3.644,6.772-7.467,9.375-11.806c-0.173,0-0.173,0-0.173,0.348
		C528.836,271.756,525.709,275.578,522.583,279.395z"/>
	<path fill="#333333" d="M536.474,272.625c3.474-3.301,6.426-6.947,8.509-10.939h-0.523c-0.172,0.173-0.172,0.173-0.347,0.521
		c-2.948,3.471-5.555,7.117-7.985,10.764C536.474,272.971,536.474,272.971,536.474,272.625z"/>
	<path fill="#333333" d="M542.377,271.409c0.173,0,0.173,0,0.173-0.173c3.647-4.515,6.774-9.029,9.375-13.889
		c-0.169,0-0.169,0-0.518,0.346C548.454,262.207,545.329,266.721,542.377,271.409z"/>
	<path fill="#333333" d="M347.568,297.107c1.217-1.216,2.778-2.606,3.821-4.34c3.471-3.995,6.596-8.163,9.721-12.675
		c-0.344,0-0.518,0-0.868,0.173C355.729,285.647,351.389,291.03,347.568,297.107z"/>
	<path fill="#333333" d="M359.55,298.321c0.348-0.348,0.348-0.521,0.348-0.868c3.126-4.86,5.901-9.722,9.026-14.758
		c-2.084,2.603-4.342,5.209-6.248,8.335c-0.695,1.216-1.388,2.254-2.085,3.124C359.202,295.544,358.854,297.107,359.55,298.321z"/>
	<path fill="#333333" d="M364.932,298.67v-0.175c2.084-4.514,4.515-8.854,6.772-13.197c-2.257,3.125-4.514,6.25-6.081,9.898
		C364.932,296.585,364.582,297.8,364.932,298.67z"/>
	<path fill="#333333" d="M369.62,296.759v-0.173c2.084-3.302,4.342-6.771,5.903-10.245c-2.084,3.3-4.169,6.598-6.424,10.071v0.174
		c-0.175,0.695-0.347,1.388-0.695,2.084c0.348,0,0.348,0,0.348-0.175C369.099,297.973,369.447,297.453,369.62,296.759z"/>
	<path fill="#333333" d="M372.225,299.885c0.348,0,0.348,0,0.348-0.175c2.606-4.166,4.686-7.986,6.771-11.978h-0.175
		c-2.778,3.992-5.556,8.16-7.637,12.154v0.345c-0.178,0.347,0,0.695,0.172,0.869l0.347-0.173
		C372.05,300.576,372.05,300.23,372.225,299.885z"/>
	<path fill="#333333" d="M337.327,295.369c2.603-3.993,5.555-8.16,8.333-12.154c-2.605,2.604-5.208,5.73-7.292,9.03
		c-0.693,1.214-1.216,2.429-1.216,3.298C337.327,295.544,337.327,295.544,337.327,295.369z"/>
	<path fill="#333333" d="M340.971,296.585h0.173c2.95-2.952,5.035-6.25,6.772-9.725c-1.216,1.39-2.432,2.78-3.649,4.515
		C342.881,293.284,341.667,294.848,340.971,296.585z"/>
	<path fill="#333333" d="M326.212,291.723h0.173c1.909-2.256,3.647-4.862,4.69-7.813c-1.391,1.91-2.781,3.821-4.17,5.731
		C326.386,290.335,326.212,291.03,326.212,291.723z"/>
	<path fill="#333333" d="M319.963,287.731l0.173-0.523c1.043-1.562,2.257-3.126,3.299-4.166c-0.348,0.173-0.869,0.694-1.39,0.867
		c1.216-1.737,2.258-3.124,3.299-4.862c-2.084,2.258-3.819,4.343-5.382,6.947c-1.042,1.561-1.388,2.777-1.216,3.819
		c0.173-0.347,0.696-0.869,0.868-1.564C319.963,287.904,319.963,287.904,319.963,287.731z"/>
	<path fill="#333333" d="M315.101,287.904v-0.173c0.521-0.697,0.695-1.39,1.043-2.084c0.173,0,0.173,0,0.173-0.349
		c1.213-1.562,2.258-3.125,2.95-4.512h-0.52c-0.172,0-0.172,0-0.172,0.173c-1.046,1.562-1.913,2.951-2.953,4.339l-0.175,0.349
		c0,0.173,0,0.173,0,0.348l-0.347,0.346c-0.172,0.175-0.346,0.693-0.346,1.215v0.175C314.93,287.904,314.93,287.904,315.101,287.904
		z"/>
	<path fill="#333333" d="M309.197,287.208c0.173,0,0.173,0,0.173-0.175c1.737-1.736,2.953-3.297,3.647-5.205
		c-0.175,0-0.175,0-0.52,0.173c-1.217,1.736-2.43,3.297-3.646,5.033c0,0.175,0,0.175-0.176,0.175c0,0.347,0,0.347,0,0.523h0.176
		C308.852,287.556,308.852,287.556,309.197,287.208z"/>
	<path fill="#333333" d="M310.068,287.731v0.173c0,0.347,0,0.347,0,0.519c0.345,0,0.345,0,0.517,0.349c0-0.349,0-0.349,0.351-0.349
		c2.082-2.776,4.166-5.728,5.901-8.854C314.408,282.001,312.323,284.603,310.068,287.731z"/>
	<path fill="#333333" d="M213.53,215.155v-0.348c-2.605-2.259-5.037-4.688-7.639-7.292
		C208.147,210.639,210.751,212.896,213.53,215.155z"/>
	<path fill="#333333" d="M205.718,200.743c0,0.175,0,0.175,0.173,0.175c2.603,3.125,5.034,6.077,7.639,9.201
		c0.346-0.175,0.695-0.175,1.042-0.52c-0.347,0-0.347,0-0.522-0.176c-2.603-3.124-5.556-6.249-8.507-9.027h-0.347
		C205.543,200.57,205.543,200.57,205.718,200.743z"/>
	<path fill="#333333" d="M205.891,195.185L205.891,195.185c2.431,4.169,5.382,7.469,8.853,10.072l-0.173-0.175
		C211.446,201.959,208.493,198.659,205.891,195.185z"/>
	<path fill="#333333" d="M214.572,201.438c-0.347-0.175-0.347-0.175-0.522-0.175c-3.647-4.166-6.945-8.158-10.071-12.154
		c3.126,4.514,6.252,8.682,9.551,12.676C213.876,201.438,214.225,201.438,214.572,201.438z"/>
	<path fill="#333333" d="M203.979,184.249v0.174c3.474,3.993,6.424,7.815,9.551,11.632v-0.346
		C210.925,191.714,207.626,187.895,203.979,184.249z"/>
	<path fill="#333333" d="M203.979,179.56c0.521,0.695,1.044,1.738,1.564,2.258c2.084,2.604,3.992,5.554,6.076,8.507
		c0.695,1.042,1.563,1.563,2.258,1.563l-0.346-0.174C210.751,187.372,207.626,183.38,203.979,179.56z"/>
	<path fill="#333333" d="M214.225,187.547v-0.175c-2.952-3.471-6.426-7.117-9.55-10.764
		C207.798,180.603,210.925,184.249,214.225,187.547z"/>
	<path fill="#333333" d="M215.266,182.341h-0.174c-2.778-3.302-5.382-6.426-8.508-9.552c1.909,2.606,3.818,5.21,6.076,8.161
		c0.869,1.391,2.084,2.082,3.648,2.082l-0.348-0.173c-0.174-0.347-0.174-0.347-0.521-0.347c0-0.171,0-0.171,0-0.347
		c0-0.52-0.173-0.693-0.347-0.693c0,0.173,0,0.347,0,0.693C215.266,182.164,215.266,182.164,215.266,182.341z"/>
	<path fill="#333333" d="M207.798,168.449c0.349,0.694,1.042,1.215,1.737,2.429c0.695,1.217,1.737,2.084,2.432,3.128
		c1.563,2.081,3.299,3.818,5.036,5.033v-0.346c-0.347,0-0.347,0-0.522-0.347v-0.347l-0.172-0.175c0-0.173,0-0.173-0.348-0.173
		C213.356,174.525,210.403,171.746,207.798,168.449z"/>
	<path fill="#333333" d="M218.217,176.609v-0.173c-2.777-3.82-5.556-7.638-8.507-11.458c0.347,0.691,0.693,1.561,1.562,2.777
		c0.695,1.389,1.562,2.257,2.258,3.3C214.744,173.311,216.481,175.22,218.217,176.609z"/>
	<path fill="#333333" d="M218.912,172.094v-0.173c-2.951-4.167-5.73-7.987-8.509-11.979c2.432,3.992,5.037,8.16,7.986,12.152
		C218.564,172.094,218.564,172.094,218.912,172.094z"/>
	<path fill="#333333" d="M220.475,169.143c-2.258-3.297-4.688-6.599-7.119-9.895c-0.521,0-0.521,0.171-0.174,0.345
		c0.868,1.216,1.562,2.605,2.258,3.647C217.003,165.669,218.564,167.58,220.475,169.143L220.475,169.143z"/>
	<path fill="#333333" d="M217.348,160.116c1.217,1.735,2.258,2.949,3.474,3.818c-2.257-2.605-4.166-5.555-6.077-8.508
		C215.44,156.989,216.481,158.378,217.348,160.116z"/>
	<path fill="#333333" d="M223.079,154.558c0-0.175,0-0.175-0.172-0.175c-0.695-1.214-1.39-2.082-2.432-2.777
		C221.171,152.649,222.038,153.865,223.079,154.558z"/>
	<path fill="#333333" d="M217.696,229.392v-0.175c-3.471-3.645-6.771-6.945-10.069-10.244
		C210.751,222.793,214.05,226.265,217.696,229.392z"/>
	<path fill="#333333" d="M208.493,215.327c0.347,0.694,1.042,1.562,1.91,2.606c1.216,1.215,2.258,2.256,3.127,3.296
		c1.736,2.26,3.473,4.169,5.034,5.557v-0.174C215.44,222.447,212.139,218.973,208.493,215.327z"/>
	<path fill="#333333" d="M292.009,279.048c0.695-0.695,0.869-1.388,0.869-2.083c-0.173,0-0.173,0-0.348,0.174
		c-0.868,1.214-1.214,2.256-1.909,2.952c0.346-0.174,0.867-0.522,1.041-0.696C292.009,279.395,292.009,279.395,292.009,279.048z"/>
	<path fill="#333333" d="M295.481,278.874h-0.173c-0.175,0.174-0.524,0.521-0.697,1.043c-0.693,0.174-1.214,0.868-1.214,1.563
		c0.174-0.695,0.694-1.216,1.388-1.389c0.348,0,0.348,0,0.348-0.174C295.309,279.569,295.481,279.048,295.481,278.874z"/>
	<path fill="#333333" d="M297.39,280.786c0.348-0.175,0.348-0.695,0-0.868c-0.172,0-0.172,0-0.172,0.174
		c-0.174,0.868-0.868,1.737-1.736,2.429c0.869-0.348,1.562-0.692,1.909-1.562V280.786z"/>
	<path fill="#333333" d="M298.261,283.391h0.172c0.695-0.696,1.216-1.218,1.91-1.91c-0.175-0.174-0.175-0.174-0.52,0
		C299.127,282.001,298.433,282.695,298.261,283.391z"/>
	<path fill="#333333" d="M300.343,285.647v-0.349c0.693-1.216,1.389-2.255,2.605-3.47c-0.696,0.344-1.392,1.214-2.085,1.908
		C300.168,284.43,299.823,285.125,300.343,285.647z"/>
	<path fill="#333333" d="M303.99,283.91c0,0.173,0,0.173,0,0.52c0,0.173,0,0.522-0.349,0.695c-0.173,0.521-0.693,0.869-1.216,1.215
		c0.695-0.346,1.565-0.521,1.737-1.043c0-0.173,0-0.173,0-0.346c0-0.349,0-0.522,0.175-0.87l0.347-0.173
		c0.347-0.519,0.695-0.867,0.347-1.389C304.858,283.215,304.337,283.736,303.99,283.91z"/>
	<path fill="#333333" d="M305.03,285.298c0.869-0.695,1.564-1.562,1.909-2.603h-0.172c-0.868,1.042-1.737,1.909-1.909,2.952
		C305.03,285.647,305.03,285.647,305.03,285.298z"/>
	<path fill="#333333" d="M305.553,287.034h0.346c1.389-1.214,2.257-2.603,2.953-4.339c-0.176-0.174-0.176-0.174-0.176,0
		C307.981,284.43,306.767,285.819,305.553,287.034z"/>
	<path fill="#333333" d="M594.293,183.38c0.173,1.388,0.523,2.256,1.21,2.78c-0.687-5.904-1.904-12.154-3.815-18.058
		c-2.26-6.773-4.862-13.196-8.509-19.448c-0.173-0.347-0.693-0.868-0.866-1.736c-1.216-2.083-2.433-3.819-3.646-6.076h-0.178
		c-0.172,0-0.172,0-0.172,0.173c-2.43-3.3-4.86-6.423-7.464-9.549c0.868,1.736,2.082,3.645,3.647,5.555
		c1.559,2.084,2.95,4.516,4.684,6.597c2.606,5.035,4.342,10.592,5.21,16.323c-2.082-5.731-5.035-10.768-8.508-15.281
		c2.78,3.993,5.21,8.508,6.947,13.37c2.254,6.251,4.511,12.326,6.075,18.923c0.348,0,0.348,0,0.52-0.346
		c-0.52-3.125-1.211-5.904-2.084-9.029c-2.257-6.251-3.818-12.327-5.553-18.926c1.388,2.432,2.603,5.037,3.819,7.641
		c2.606,6.249,4.863,12.848,6.252,19.1c0.172,0,0.172,0,0.518,0.348c0.176-0.348,0.176-0.348,0.521-0.522
		C593.599,177.823,593.945,180.603,594.293,183.38z M591.689,170.358c-0.868-2.778-1.736-5.555-2.953-8.507
		c0.521,1.214,1.043,2.604,1.391,3.818C590.645,167.406,591.166,168.797,591.689,170.358z"/>
	<path fill="#333333" d="M223.079,157.856c-0.172-0.346-0.346-0.346-0.694-0.52c-1.91-2.084-3.821-4.688-5.73-6.945
		c0,0.174,0,0.174-0.175,0.521c1.909,2.603,3.819,4.688,5.731,6.945C222.385,157.856,222.907,157.856,223.079,157.856z"/>
	<path fill="#333333" d="M219.085,146.571c0,0.175,0,0.175-0.173,0.347c1.91,2.779,3.995,5.382,6.077,7.987
		c0.347-0.348,0.869-0.348,1.04-0.348v-0.175c0.869,1.217,1.91,2.433,2.779,3.649c-0.869-1.564-1.91-2.779-2.95-4.34
		c0-0.176-0.349-0.522-0.523-0.695c-1.214-1.737-2.603-3.3-4.34-5.036l-0.174,0.346c1.563,2.084,3.3,3.994,4.688,5.904
		C223.426,151.606,221.171,149.175,219.085,146.571z"/>
	<path fill="#333333" d="M221.69,143.099c-0.173,0-0.173,0-0.52,0.346c2.255,2.432,4.339,4.515,6.596,6.425
		C225.858,147.441,223.946,145.009,221.69,143.099z"/>
	<path fill="#333333" d="M240.788,124.522c0.521,0.694,1.042,1.042,1.736,1.042c-0.173-0.348-0.173-0.348-0.522-0.348
		c-0.519-0.173-0.867-0.694-1.214-0.868V124.522z"/>
	<path fill="#333333" d="M246.346,122.611l-0.175-0.173c-0.522-0.348-1.044-0.695-1.217-1.217c0,0.175,0,0.175-0.346,0.175
		C245.127,121.915,245.649,122.437,246.346,122.611z"/>
	<path fill="#333333" d="M248.776,118.618v-0.348c-0.347,0.348-0.347,0.348-0.521,0.521c0.174,0,0.521,0,0.694,0h0.174
		C248.949,118.618,248.949,118.618,248.776,118.618z"/>
	<path fill="#333333" d="M235.06,131.642c-0.175,0.346-0.175,0.346-0.523,0.346c0.869,0.347,1.217,0.867,1.737,1.214l-0.175-0.347
		C235.753,132.681,235.406,132.161,235.06,131.642z"/>
	<path fill="#333333" d="M238.011,131.642c0-0.175,0-0.175-0.347-0.175c-0.175-0.174-0.696-0.695-0.87-1.217
		c0,0.173,0,0.173-0.347,0.173C236.969,130.945,237.49,131.467,238.011,131.642z"/>
	<path fill="#333333" d="M239.227,130.077c-0.347-0.348-0.868-0.522-1.216-0.696c0,0,0,0-0.347,0.174
		c0.521,0.174,1.042,0.522,1.736,0.695L239.227,130.077z"/>
	<path fill="#333333" d="M240.441,127.819c0-0.172,0-0.172-0.347-0.172l-0.173-0.175v0.175
		C240.093,127.819,240.093,127.819,240.441,127.819z"/>
	<path fill="#333333" d="M235.406,129.381v-0.346h-0.347c-0.523,0.52-0.869,1.042-1.389,1.388
		C234.364,130.077,234.885,129.555,235.406,129.381z"/>
	<path fill="#333333" d="M233.671,144.662c-2.084-2.429-3.993-4.862-5.904-6.945h-0.346c0.695,1.215,1.734,2.605,2.603,3.822
		C231.24,143.099,232.456,143.967,233.671,144.662z"/>
	<path fill="#333333" d="M230.371,146.571l-0.347-0.348c-1.563-2.082-3.299-4.166-5.035-6.423c-0.173,0-0.173,0-0.173,0.347
		c1.737,2.258,3.299,4.688,5.033,6.771c0.522,0.347,0.869,0.347,1.217,0l-0.348-0.172
		C230.545,146.746,230.545,146.746,230.371,146.571z"/>
	<path fill="#333333" d="M233.497,134.766c0.173,0.347,0.173,0.347,0.173,0.521c0.172,0.173,0.172,0.173,0.52,0.173l0.174,0.347
		v0.348h0.173l0,0c0-0.348,0-0.348,0-0.695v-0.173c-0.173-0.175-0.346-0.175-0.346-0.521c-0.348,0-0.348,0-0.348-0.173l-0.172-0.349
		v-0.174c-0.173,0-0.173,0-0.522-0.173c0,0,0,0-0.174-0.347c0,0,0,0-0.346,0c0.346,0.347,0.52,0.52,0.868,0.694
		C233.497,134.593,233.497,134.593,233.497,134.766z"/>
	<path fill="#333333" d="M230.371,135.807c-0.347,0.348-0.347,0.348-0.522,0.348c1.737,1.734,3.299,3.471,5.036,4.861l-0.348-0.173
		C233.497,139.105,231.935,137.368,230.371,135.807z"/>
	<path fill="#333333" d="M238.706,126.605c0.173,0,0.173,0,0.173-0.175c0,0,0,0-0.173-0.173c0,0.173,0,0.173-0.348,0.173
		C238.706,126.605,238.706,126.605,238.706,126.605z"/>
	<path fill="#333333" d="M245.824,117.924c0.347,0,0.347,0,0.347-0.349C246.172,117.924,246.172,117.924,245.824,117.924
		c-0.175,0.174-0.697,0.347-0.869,0.695C245.127,118.27,245.649,118.098,245.824,117.924z"/>
	<path fill="#333333" d="M250.166,117.575h-0.175c0.347,0.349,0.868,0.523,1.388,0.523c-0.346-0.174-0.695-0.523-1.04-0.695
		C250.339,117.575,250.339,117.575,250.166,117.575z"/>
	<path fill="#333333" d="M364.412,374.889c0,0.345,0,0.345-0.35,0.522c0.35,0.346,0.35,0.346,0.52,0.52c0-0.174,0-0.174,0-0.52
		C364.582,375.234,364.582,375.234,364.412,374.889z"/>
	<path fill="#333333" d="M363.196,374.197v-0.176h-0.172C363.196,374.021,363.196,374.021,363.196,374.197z"/>
	<path fill="#333333" d="M378.473,84.413c-5.033-2.604-9.721-5.036-14.755-7.64h-0.35c4.863,3.125,9.898,5.73,15.28,7.812
		L378.473,84.413z"/>
	<path fill="#333333" d="M382.295,84.936c0.523,0,1.043,0,1.216-0.35c-3.649-1.562-7.12-3.298-10.768-5.381
		C375.872,81.288,379.169,83.198,382.295,84.936z"/>
	<path fill="#333333" d="M377.258,79.205c-0.176-0.347-0.176-0.347-0.176,0c3.128,2.084,6.603,3.473,10.246,4.688
		C383.685,82.504,380.388,80.767,377.258,79.205z"/>
	<path fill="#333333" d="M390.105,83.718c0-0.347,0-0.347-0.17-0.347c-2.606-1.562-5.555-3.3-8.336-4.515
		c-0.172,0-0.52,0-0.172,0.347C384.38,80.767,387.328,82.157,390.105,83.718z"/>
	<path fill="#333333" d="M400.003,84.066c0-0.174,0-0.174-0.345-0.174c-3.995-1.91-8.337-3.993-12.33-6.251h-0.169
		c3.293,1.91,6.594,3.819,10.24,5.557C398.79,83.892,399.658,84.413,400.003,84.066z"/>
	<path fill="#333333" d="M410.768,84.413c-0.345-0.347-0.345-0.347-0.52-0.347c-5.037-2.084-9.723-4.515-14.41-7.119
		C400.525,80.072,405.561,82.504,410.768,84.413z"/>
	<path fill="#333333" d="M410.768,79.205h-0.345c4.339,2.084,8.851,3.994,13.716,5.381
		C419.623,82.677,415.283,80.767,410.768,79.205z"/>
	<path fill="#333333" d="M419.105,79.378h-0.175c2.257,1.91,5.208,3.299,8.336,3.994C424.658,82.157,421.706,80.767,419.105,79.378z
		"/>
	<path fill="#333333" d="M405.561,78.857v0.347c3.474,1.909,7.117,3.473,10.939,4.862C412.853,82.504,409.035,80.594,405.561,78.857
		z"/>
	<path fill="#333333" d="M430.04,83.372c1.564,1.042,2.954,1.564,4.342,1.214c-4.342-2.082-8.682-3.992-12.848-5.903
		c-0.346,0.695,0.172,1.216,1.214,1.388C425.355,80.767,427.783,81.983,430.04,83.372z"/>
	<path fill="#333333" d="M442.715,85.281c-2.777-1.389-5.728-2.777-8.856-3.993h-0.172c3.125,1.736,6.251,3.125,9.55,4.34
		C443.061,85.281,443.061,85.281,442.715,85.281z"/>
	<path fill="#333333" d="M448.969,85.629c0-0.347,0-0.347-0.175-0.347c-3.647-1.91-7.471-3.472-11.287-5.21
		C441.323,82.157,445.146,83.892,448.969,85.629z"/>
	<path fill="#333333" d="M435.076,83.198c0,0,0,0,0-0.175c-2.082-0.866-3.989-1.563-6.251-2.257
		C431.087,81.809,432.994,82.504,435.076,83.198z"/>
	<path fill="#333333" d="M456.086,85.629c-0.173-0.347-0.173-0.347-0.348-0.347c-4.34-1.91-8.682-3.821-13.195-5.382h-0.348
		C446.882,81.983,451.397,83.892,456.086,85.629z"/>
	<path fill="#333333" d="M460.947,86.323l-0.345-0.348c-2.953-1.389-6.078-2.777-9.205-4.514h-0.345
		C454.175,83.372,457.65,85.108,460.947,86.323z"/>
	<path fill="#333333" d="M466.332,86.844c-1.567-0.521-3.302-1.216-4.863-2.431h-0.35c1.739,1.39,3.646,2.431,5.731,2.603
		C466.678,86.844,466.678,86.844,466.332,86.844z"/>
	<path fill="#333333" d="M472.581,86.844c-2.087-1.216-4.344-2.258-6.429-2.952h-0.17c2.085,1.216,4.512,2.431,7.12,3.125
		C472.929,86.844,472.929,86.844,472.581,86.844z"/>
	<path fill="#333333" d="M480.22,88.406c0-0.174,0-0.174-0.175-0.174c-2.084-1.04-3.992-1.909-6.078-2.603
		C476.226,86.844,478.134,87.711,480.22,88.406z"/>
	<path fill="#333333" d="M478.309,84.936h-0.175c2.607,1.388,5.559,2.603,8.508,3.47c-1.39-0.868-2.777-1.562-4.512-1.908
		l-0.173-0.175C480.741,85.629,479.522,85.108,478.309,84.936z"/>
	<path fill="#333333" d="M485.948,86.844c-0.348,0-0.348,0,0,0.173c2.606,1.215,5.037,2.083,7.467,3.126
		C490.812,88.926,488.379,87.711,485.948,86.844z"/>
	<path fill="#333333" d="M498.103,89.448c-0.172-0.349-0.172-0.349-0.349-0.349c-2.255-1.215-4.512-2.083-7.29-2.777
		C492.898,87.538,495.498,88.753,498.103,89.448z"/>
	<path fill="#333333" d="M357.985,84.586v-0.173c-3.125-1.736-6.246-3.3-9.199-5.209h-0.172
		C351.216,81.461,354.34,83.372,357.985,84.586z"/>
	<path fill="#333333" d="M363.196,84.586c-0.172-0.173-0.172-0.173-0.52-0.173c-2.778-1.736-5.73-3.3-8.509-5.036h-0.344
		C356.773,81.461,359.898,83.372,363.196,84.586z"/>
	<path fill="#333333" d="M357.64,79.899c0.52,0.172,1.043,0.346,1.562,0.868c2.605,1.91,5.21,3.299,7.988,4.169
		c-2.778-1.737-5.731-3.647-8.336-5.384c-0.172,0-0.695,0-0.869,0C357.985,79.899,357.985,79.899,357.64,79.899z"/>
	<path fill="#333333" d="M372.743,85.281c-0.17-0.173-0.17-0.173-0.518-0.346c-3.301-2.432-6.945-4.341-10.766-6.078
		c-0.17,0.347-0.17,0.695,0.523,1.042C365.799,81.461,369.447,83.198,372.743,85.281z"/>
	<path fill="#333333" d="M343.4,85.281c-0.345-0.173-0.345-0.173-0.518-0.173c-2.082-0.695-3.997-1.736-5.73-3.299h-0.173
		C338.544,83.892,340.799,85.108,343.4,85.281z"/>
	<path fill="#333333" d="M348.614,84.586c-0.178-0.173-0.523-0.173-0.698-0.52c-1.909-1.042-3.822-2.084-5.73-2.778h-0.347
		C344.094,82.677,346.529,83.892,348.614,84.586z"/>
	<path fill="#333333" d="M351.216,83.892c0.173,0,0.173,0,0.523,0c-0.349,0-0.349,0-0.523-0.174
		c-1.912-1.214-3.821-2.605-5.556-3.819h-0.175C347.22,81.461,349.132,82.677,351.216,83.892z"/>
	<path fill="#333333" d="M334.2,86.844c0-0.347,0-0.347-0.175-0.347c-1.389-1.217-2.95-2.432-4.514-3.474c-0.348,0-0.348,0,0,0.175
		C330.902,84.936,332.637,85.975,334.2,86.844z"/>
	<path fill="#333333" d="M336.111,85.803c-1.043-0.868-2.258-1.911-3.474-2.78c0.868,1.39,2.084,2.257,3.822,2.951L336.111,85.803z"
		/>
</g>
</svg>
