<?xml version="1.0" encoding="utf-8"?>
<!-- Generator: Adobe Illustrator 17.0.0, SVG Export Plug-In . SVG Version: 6.00 Build 0)  -->
<!DOCTYPE svg PUBLIC "-//W3C//DTD SVG 1.1//EN" "http://www.w3.org/Graphics/SVG/1.1/DTD/svg11.dtd">
<svg version="1.1" id="Layer_1" xmlns="http://www.w3.org/2000/svg" xmlns:xlink="http://www.w3.org/1999/xlink" x="0px" y="0px"
	 width="800px" height="600px" viewBox="0 0 800 600" enable-background="new 0 0 800 600" xml:space="preserve">
<g>
	<path fill="none" d="M270.896,284.273c28.025-1.491,56.243-4.242,83.771-9.796c20.861-4.214,75.305-12.348,75.745-41.409
		c0.686-45.68-103.054-40.476-130.833-39.487c-28.047,1.005-56.243,3.376-83.817,8.74c-16.647,3.224-36.746,6.212-50.718,16.586
		c-0.587,0.44-1.145,0.567-1.7,0.567C117.352,268.62,237.948,286.024,270.896,284.273z M181.066,214.162
		c1.633-0.53,2.874,0.199,3.523,1.321c15.695-8.214,34.014-10.761,51.725-11.817c32.2-1.923,65.334-3.726,97.534-2.093
		c14.29,0.719,119.593,14.975,70.883,43.592c-48.658,28.583-128.769,44.955-183.539,28.942
		c-14.697-4.298-46.101-11.647-52.574-28.564C163.827,233.024,167.544,218.608,181.066,214.162z"/>
	<path fill="none" d="M191.302,256.054c4.607,2.192,9.309,4.152,14.096,5.899c8.583,3.116,17.239,6.269,26.305,7.713
		c26.803,4.275,54.055,2.728,80.721-2.012c20.114-3.579,39.635-8.55,58.994-15.07c6.827-2.291,13.797-4.584,20.232-7.845
		c5.217-2.641,35.145-17.177,3.115-26.827c-39.25-11.837-79.314-10.047-119.777-8.967c-30.103,0.795-67.748-2.064-93.666,16.051
		C176.146,240.974,179.414,251.376,191.302,256.054z"/>
	<path fill="none" d="M488.814,257.569c18.398-5.147,37.138-8.532,56.238-9.46c36.835-1.8,74.551-1.742,111.387-0.559
		c8.579,0.27,38.673,3.806,21.523-18.409c-5.672-7.358-13.219-16.529-23.095-18.191c-18.655-3.115-37.371-0.076-55.911,2.33
		c-40.993,5.317-82.213,4.962-122.784,13.919c-0.152,0.033-0.271,0-0.412,0.019c-0.658,6.969,2.201,15.87,3.906,22.494
		C481.797,257.99,479.596,260.15,488.814,257.569z"/>
	<path fill="none" d="M469.311,254.534c-0.109-7.367-1.008-14.625-2.154-21.889c-9.763,0.024-19.503,0.241-29.223,1.108
		c-0.138,0.847-0.246,1.69-0.478,2.567c0,7.641-0.01,15.288-0.019,22.944c9.986-1.487,22.106-0.938,31.949-4.423
		C469.369,254.733,469.311,254.643,469.311,254.534z"/>
	<path fill="none" d="M338.73,283.964c-29.691,4.451-60.958,9.228-91.042,6.246c-21.647-2.15-65.021-10.085-87.719-26.429
		c4.261,12.168,5.582,26.495,7.622,37.821c4.564,25.387,4.81,52.436,11.68,77.241c40.074,19.597,87.34,16.997,130.653,14.914
		c37.556-1.8,92.359,4.929,119.63-26.467c1.056-39.217,1.231-78.435,1.255-117.656C412.955,274.514,365.812,279.893,338.73,283.964z
		"/>
	<path fill="#0C0A0A" d="M221.193,274.107c54.77,16.013,134.88-0.36,183.539-28.942c48.71-28.617-56.593-42.872-70.883-43.592
		c-32.2-1.634-65.334,0.17-97.534,2.093c-17.712,1.056-36.031,3.603-51.725,11.817c-0.649-1.122-1.89-1.851-3.523-1.321
		c-13.523,4.446-17.24,18.863-12.448,31.381C175.091,262.46,206.496,269.808,221.193,274.107z M181.321,224.995
		c25.918-18.115,63.563-15.256,93.666-16.051c40.463-1.079,80.527-2.869,119.777,8.967c32.031,9.649,2.102,24.185-3.115,26.827
		c-6.435,3.262-13.405,5.554-20.232,7.845c-19.359,6.52-38.88,11.491-58.994,15.07c-26.666,4.74-53.918,6.287-80.721,2.012
		c-9.066-1.444-17.721-4.597-26.305-7.713c-4.787-1.747-9.489-3.707-14.096-5.899C179.414,251.376,176.146,240.974,181.321,224.995z
		"/>
	<path fill="#0C0A0A" d="M147.748,254.226c10.606,12.874,11.492,38.313,14.337,54.122c4.195,23.351,4.331,47.792,10.406,70.783
		c-0.857,1.434-0.767,3.375,1.146,4.361c0.071,0.028,0.137,0.061,0.208,0.099c0.706,1.208,1.951,1.662,3.178,1.501
		c42.607,20.416,92.538,17.24,138.398,15.037c37.366-1.79,89.807,3.594,117.737-26.992c1.511-0.171,2.926-1.184,2.969-3.124
		c0.975-34.772,1.24-69.538,1.311-104.31c0.568,0.1,1.075,0.062,1.534-0.085c0,0.019,0,0.048,0,0.076
		c9.91-1.515,25.549-1.263,36.41-6.273c0.668,1.851,1.355,3.636,2.022,5.279c0.639,1.605,2.211,2.945,4.081,2.329
		c54.136-18.199,110.351-11.121,166.357-13.162c17.291-0.629,49.818,5.663,39.184-22.243c-10.785-28.275-40.51-29.843-65.897-27.698
		c-48.625,4.119-99.02,6.34-146.723,16.884c-0.933,0.2-1.519,0.701-1.908,1.297c-1.406-0.151-2.788,0.488-3.068,2.349
		c-0.071,0.488-0.061,1.033-0.118,1.544c-10.454,0.01-20.87,0.18-31.277,1.112c-4.327-30.666-75.408-38.558-96.894-39.823
		c-36.286-2.14-72.995,0.497-108.935,5.592c-20.852,2.958-47.408,5.956-66.224,17.584c-1.107-0.526-2.472-0.506-3.636,0.578
		c-16.775,15.601-19.781,28.479-14.753,39.018C146.815,251.248,146.608,252.848,147.748,254.226z M476.173,227.201
		c40.57-8.958,81.791-8.603,122.784-13.919c18.541-2.406,37.256-5.445,55.911-2.33c9.876,1.662,17.423,10.833,23.095,18.191
		c17.149,22.215-12.945,18.678-21.523,18.409c-36.836-1.184-74.552-1.241-111.387,0.559c-19.1,0.928-37.84,4.313-56.238,9.46
		c-9.219,2.58-7.017,0.421-9.148-7.855c-1.705-6.624-4.564-15.525-3.906-22.494C475.902,227.201,476.021,227.234,476.173,227.201z
		 M437.457,236.32c0.232-0.877,0.34-1.719,0.478-2.567c9.72-0.867,19.459-1.084,29.223-1.108c1.145,7.264,2.045,14.522,2.154,21.889
		c0,0.109,0.057,0.199,0.076,0.307c-9.843,3.485-21.964,2.935-31.949,4.423C437.448,251.608,437.457,243.961,437.457,236.32z
		 M429.555,367.29c-27.272,31.396-82.075,24.667-119.63,26.467c-43.313,2.083-90.579,4.682-130.653-14.914
		c-6.87-24.805-7.116-51.854-11.68-77.241c-2.04-11.326-3.362-25.652-7.622-37.821c22.698,16.344,66.072,24.279,87.719,26.429
		c30.084,2.983,61.351-1.795,91.042-6.246c27.083-4.072,74.225-9.45,92.08-34.331C430.786,288.855,430.611,328.073,429.555,367.29z
		 M163.344,219.474c0.555,0,1.113-0.127,1.7-0.567c13.972-10.374,34.071-13.362,50.718-16.586c27.574-5.364,55.77-7.736,83.817-8.74
		c27.779-0.989,131.519-6.192,130.833,39.487c-0.44,29.062-54.884,37.195-75.745,41.409c-27.528,5.554-55.746,8.305-83.771,9.796
		C237.948,286.024,117.352,268.62,163.344,219.474z"/>
	<g>
		<path fill="#0C0A0A" d="M185.555,216.43c-2.775,13.849-7.055,30.358-1.307,43.989c0.805,1.913,3.968,1.074,3.148-0.867
			c-5.525-13.11-1.358-28.933,1.307-42.257C189.115,215.241,185.966,214.361,185.555,216.43L185.555,216.43z"/>
	</g>
	<g>
		<path fill="#0C0A0A" d="M189.418,218.167c-0.028,8.442-0.654,16.869-0.654,25.311c0,6.983,0.08,14.947,3.49,21.254
			c1.004,1.851,3.82,0.204,2.822-1.652c-3.276-6.046-3.045-13.886-3.045-20.563c0-8.12,0.625-16.23,0.654-24.35
			C192.69,216.06,189.423,216.065,189.418,218.167L189.418,218.167z"/>
	</g>
	<g>
		<path fill="#0C0A0A" d="M198.566,216.86c-0.019,8.172-0.322,16.335-0.327,24.507c-0.01,8.887-0.171,18.152,1.69,26.892
			c0.44,2.064,3.589,1.189,3.149-0.867c-1.795-8.447-1.562-17.437-1.572-26.026c-0.01-8.172,0.307-16.335,0.327-24.507
			C201.837,214.753,198.57,214.753,198.566,216.86L198.566,216.86z"/>
	</g>
	<g>
		<path fill="#0C0A0A" d="M206.406,215.554c-0.062,16.708-2.539,33.866,2.669,50.092c0.645,1.997,3.797,1.145,3.153-0.867
			c-5.118-15.936-2.618-32.821-2.556-49.226C209.678,213.447,206.41,213.452,206.406,215.554L206.406,215.554z"/>
	</g>
	<g>
		<path fill="#0C0A0A" d="M218.224,209.455c1.355,4.782,0.918,10.104,0.663,15c-0.341,6.596-1.008,13.167-1.487,19.748
			c-0.421,5.871-0.8,11.828-0.208,17.703c0.36,3.551,1.117,7.898,4.398,9.948c1.789,1.117,3.428-1.71,1.647-2.822
			c-2.869-1.795-2.851-7.149-2.997-10.056c-0.298-5.942,0.199-11.927,0.658-17.846c0.483-6.259,1.084-12.509,1.359-18.777
			c0.194-4.531,0.365-9.355-0.881-13.768C220.804,206.563,217.651,207.425,218.224,209.455L218.224,209.455z"/>
	</g>
	<g>
		<path fill="#0C0A0A" d="M229.927,206.406c0.786,12.485-0.014,25.056-0.17,37.551c-0.128,10.321-0.933,22.309,2.84,32.143
			c0.749,1.951,3.907,1.103,3.153-0.867c-3.783-9.853-2.84-21.869-2.713-32.214c0.152-12.183,0.924-24.435,0.156-36.613
			C233.062,204.314,229.796,204.304,229.927,206.406L229.927,206.406z"/>
	</g>
	<g>
		<path fill="#0C0A0A" d="M240.439,205.535c3.12,10.583,1.747,22.395,0.923,33.219c-0.899,11.771-2.457,23.825-0.979,35.61
			c0.26,2.06,3.527,2.088,3.267,0c-1.478-11.78,0.071-23.849,0.979-35.61c0.862-11.126,2.164-23.204-1.037-34.089
			C242.995,202.652,239.842,203.509,240.439,205.535L240.439,205.535z"/>
	</g>
	<g>
		<path fill="#0C0A0A" d="M249.591,204.229c3.569,10.393,3.096,21.75,2.39,32.565c-0.767,11.651-2.4,23.261-2.452,34.956
			c-0.01,2.106,3.258,2.106,3.267,0c0.052-11.69,1.644-23.313,2.453-34.956c0.767-11.07,1.145-22.798-2.509-33.437
			C252.058,201.378,248.9,202.23,249.591,204.229L249.591,204.229z"/>
	</g>
	<g>
		<path fill="#0C0A0A" d="M259.983,209.02c-0.042,11.548-1.354,23.067-1.477,34.62c-0.066,6.042,0.123,12.116,1.089,18.092
			c0.629,3.896,1.747,8.408,4.787,11.173c1.557,1.411,3.873-0.89,2.31-2.311c-2.925-2.661-3.594-7.305-4.147-11.012
			c-0.862-5.781-0.838-11.728-0.752-17.552c0.161-11.012,1.421-21.997,1.458-33.01C263.259,206.913,259.993,206.913,259.983,209.02
			L259.983,209.02z"/>
	</g>
	<g>
		<path fill="#0C0A0A" d="M271.744,209.02c0,18.295,0,36.59,0,54.889c0,2.107,3.267,2.107,3.267,0c0-18.299,0-36.595,0-54.889
			C275.011,206.913,271.744,206.913,271.744,209.02L271.744,209.02z"/>
	</g>
	<g>
		<path fill="#0C0A0A" d="M282.26,215.99c2.495,17.243-1.278,34.567-1.368,51.84c-0.01,2.106,3.257,2.106,3.267,0
			c0.095-17.604,3.797-35.127,1.25-52.707C285.111,213.045,281.961,213.93,282.26,215.99L282.26,215.99z"/>
	</g>
	<g>
		<path fill="#0C0A0A" d="M300.498,212.94c-0.052,10.038-1.259,20.023-1.307,30.055c-0.015,2.112,3.253,2.107,3.267,0
			c0.047-10.032,1.255-20.018,1.307-30.055C303.775,210.833,300.507,210.833,300.498,212.94L300.498,212.94z"/>
	</g>
	<g>
		<path fill="#0C0A0A" d="M335.78,211.634c-0.066,8.815-1.789,17.646-2.826,26.381c-0.521,4.394-0.979,8.806-1.037,13.233
			c-0.038,2.633-0.071,5.975,1.473,8.258c1.174,1.733,4.005,0.099,2.822-1.652c-1.43-2.102-1.066-5.479-1.004-7.878
			c0.104-4.271,0.606-8.537,1.112-12.774c1.004-8.471,2.661-17.017,2.728-25.567C339.061,209.527,335.795,209.532,335.78,211.634
			L335.78,211.634z"/>
	</g>
	<g>
		<path fill="#0C0A0A" d="M346.235,215.554c-1.34,10.595-2.936,21.154-3.764,31.812c-0.208,2.694-2.552,21.812,4.526,19.421
			c1.984-0.667,1.132-3.825-0.872-3.148c-0.388,0.133,0.336,0.308,0.11,0.076c-0.251-0.255-0.332-0.861-0.417-1.188
			c-0.393-1.519-0.422-3.139-0.464-4.702c-0.142-4.886,0.294-9.795,0.744-14.658c0.857-9.237,2.244-18.408,3.404-27.612
			C349.766,213.47,346.495,213.494,346.235,215.554L346.235,215.554z"/>
	</g>
	<g>
		<path fill="#0C0A0A" d="M355.439,213.817c-2.841,14.478-3.845,29.392-1.307,43.989c0.36,2.073,3.508,1.193,3.153-0.867
			c-2.439-13.991-1.416-28.389,1.307-42.257C358.995,212.628,355.846,211.747,355.439,213.817L355.439,213.817z"/>
	</g>
	<g>
		<path fill="#0C0A0A" d="M363.222,211.634c-0.033,15.259-1.273,30.481-1.306,45.741c-0.005,2.107,3.262,2.107,3.267,0
			c0.033-15.259,1.273-30.481,1.306-45.741C366.494,209.527,363.227,209.527,363.222,211.634L363.222,211.634z"/>
	</g>
	<g>
		<path fill="#0C0A0A" d="M372.37,215.554c-1.307,12.159-1.307,24.383-1.307,36.594c0,2.107,3.267,2.107,3.267,0
			c0-12.211,0-24.435,1.307-36.594C375.864,213.461,372.592,213.485,372.37,215.554L372.37,215.554z"/>
	</g>
	<g>
		<path fill="#0C0A0A" d="M382.881,217.736c-4.276,11.506-7.742,23.839-5.228,36.15c0.426,2.064,3.575,1.188,3.153-0.867
			c-2.386-11.685,1.174-23.522,5.227-34.416C386.767,216.624,383.61,215.776,382.881,217.736L382.881,217.736z"/>
	</g>
	<g>
		<path fill="#0C0A0A" d="M389.419,219.043c-1.549,9.834-6.477,19.526-3.925,29.615c0.521,2.041,3.669,1.174,3.153-0.866
			c-2.377-9.384,2.48-18.726,3.92-27.882C392.89,217.85,389.746,216.965,389.419,219.043L389.419,219.043z"/>
	</g>
	<g>
		<path fill="#0C0A0A" d="M397.26,221.656c-1.373,7.941-3.84,15.852-3.982,23.953c-0.038,2.111,3.229,2.106,3.267,0
			c0.138-7.798,2.542-15.435,3.864-23.087C400.764,220.464,397.615,219.583,397.26,221.656L397.26,221.656z"/>
	</g>
	<g>
		<path fill="#0C0A0A" d="M442.997,237.338c-1.411,7.069-2.609,14.109-2.67,21.344c-0.019,2.107,3.247,2.102,3.267,0
			c0.057-6.941,1.198-13.688,2.552-20.477C446.558,236.15,443.408,235.273,442.997,237.338L442.997,237.338z"/>
	</g>
	<g>
		<path fill="#0C0A0A" d="M446.86,239.075c-0.08,4.83-1.207,9.56-1.307,14.379c-0.047,2.107,3.22,2.102,3.268,0
			c0.099-4.819,1.226-9.549,1.306-14.379C450.16,236.968,446.893,236.973,446.86,239.075L446.86,239.075z"/>
	</g>
	<g>
		<path fill="#0C0A0A" d="M454.701,241.689c0,4.796,0,9.582,0,14.379c0,2.107,3.267,2.107,3.267,0c0-4.797,0-9.583,0-14.379
			C457.967,239.587,454.701,239.587,454.701,241.689L454.701,241.689z"/>
	</g>
	<g>
		<path fill="#0C0A0A" d="M488.677,232.542c-0.09,6.311-1.046,12.443,0.057,18.73c0.365,2.074,3.513,1.194,3.153-0.866
			c-1.051-5.965-0.029-11.874,0.056-17.864C491.971,230.435,488.705,230.439,488.677,232.542L488.677,232.542z"/>
	</g>
	<g>
		<path fill="#0C0A0A" d="M499.188,230.364c1.278,5.445,1.25,10.999,1.25,16.552c0,2.112,3.267,2.112,3.267,0
			c0-5.852-0.018-11.694-1.363-17.419C501.858,227.447,498.71,228.314,499.188,230.364L499.188,230.364z"/>
	</g>
	<g>
		<path fill="#0C0A0A" d="M512.255,229.497c-1.226,5.18-1.226,10.061,0,15.241c0.488,2.05,3.636,1.184,3.153-0.866
			c-1.094-4.621-1.094-8.887,0-13.508C515.891,228.319,512.742,227.447,512.255,229.497L512.255,229.497z"/>
	</g>
	<g>
		<path fill="#0C0A0A" d="M525.328,228.191c-1.373,4.384-1.363,8.948-1.368,13.499c0,2.111,3.267,2.111,3.267,0
			c0.005-4.266-0.038-8.518,1.25-12.633C529.106,227.04,525.952,226.187,525.328,228.191L525.328,228.191z"/>
	</g>
	<g>
		<path fill="#0C0A0A" d="M539.702,230.804c-1.235,3.978-1.363,8.059-1.368,12.191c0,2.112,3.267,2.112,3.267,0
			c0.005-3.849,0.1-7.613,1.25-11.325C543.476,229.654,540.322,228.797,539.702,230.804L539.702,230.804z"/>
	</g>
	<g>
		<path fill="#0C0A0A" d="M611.996,220.629c4.261,4.64,4.697,12.48,4.748,18.446c0.019,2.107,3.286,2.112,3.267,0
			c-0.061-6.921-0.79-15.406-5.705-20.756C612.876,216.766,610.57,219.081,611.996,220.629L611.996,220.629z"/>
	</g>
	<g>
		<path fill="#0C0A0A" d="M627.199,219.474c0,7.206,0.109,14.517,2.669,21.344c0.734,1.956,3.892,1.108,3.153-0.866
			c-2.471-6.572-2.551-13.546-2.556-20.478C630.466,217.367,627.199,217.367,627.199,219.474L627.199,219.474z"/>
	</g>
	<g>
		<path fill="#0C0A0A" d="M640.266,220.781c0,5.431,0.133,10.805,1.363,16.117c0.474,2.055,3.628,1.184,3.153-0.866
			c-1.165-5.033-1.25-10.109-1.25-15.251C643.533,218.674,640.266,218.674,640.266,220.781L640.266,220.781z"/>
	</g>
	<g>
		<path fill="#0C0A0A" d="M652.084,221.656c-1.231,3.978-1.364,8.059-1.364,12.192c0,2.111,3.267,2.107,3.267,0
			c0-3.85,0.095-7.614,1.251-11.326C655.862,220.506,652.709,219.649,652.084,221.656L652.084,221.656z"/>
	</g>
	<g>
		<path fill="#0C0A0A" d="M663.788,223.394c-0.085,2.529-1.278,4.802-2.386,7.017c-0.938,1.879,1.875,3.536,2.822,1.647
			c1.373-2.756,2.728-5.525,2.831-8.665C667.13,221.288,663.864,221.296,663.788,223.394L663.788,223.394z"/>
	</g>
	<g>
		<path fill="#0C0A0A" d="M607.597,229.928c0,1.742,0,3.484,0,5.226c0,2.112,3.267,2.112,3.267,0c0-1.742,0-3.484,0-5.226
			C610.864,227.821,607.597,227.821,607.597,229.928L607.597,229.928z"/>
	</g>
	<g>
		<path fill="#0C0A0A" d="M179.774,358.1c5.151,2.514,10.761,4.219,16.235,5.886c6.913,2.107,13.986,3.939,21.178,4.791
			c2.088,0.251,2.064-3.02,0-3.267c-6.894-0.815-13.679-2.689-20.312-4.678c-5.193-1.558-10.567-3.168-15.453-5.549
			C179.537,354.36,177.88,357.176,179.774,358.1L179.774,358.1z"/>
	</g>
	<g>
		<path fill="#0C0A0A" d="M184.082,351.732c8.253,2.807,16.15,6.486,24.829,7.841c2.06,0.322,2.945-2.827,0.871-3.148
			c-8.683-1.355-16.581-5.034-24.833-7.841C182.95,347.902,182.098,351.06,184.082,351.732L184.082,351.732z"/>
	</g>
	<g>
		<path fill="#0C0A0A" d="M185,335.885c6.586,3.859,13.835,6.458,21.297,8.006c2.055,0.426,2.931-2.723,0.872-3.148
			c-7.206-1.496-14.162-3.958-20.52-7.68C184.826,331.997,183.182,334.824,185,335.885L185,335.885z"/>
	</g>
	<g>
		<path fill="#0C0A0A" d="M179.291,324.347c7.527,0.232,14.596,3.759,22.215,3.92c2.107,0.048,2.102-3.224,0-3.267
			c-7.614-0.161-14.663-3.689-22.215-3.92C177.179,321.013,177.189,324.28,179.291,324.347L179.291,324.347z"/>
	</g>
	<g>
		<path fill="#0C0A0A" d="M173.239,300.602c14.29,8.438,31.269,13.172,47.868,13.291c2.107,0.014,2.107-3.253,0-3.268
			c-16.027-0.113-32.423-4.696-46.22-12.845C173.07,296.706,171.426,299.532,173.239,300.602L173.239,300.602z"/>
	</g>
	<g>
		<path fill="#0C0A0A" d="M175.853,286.228c13.745,8.144,29.113,13.162,44.818,15.847c2.06,0.35,2.946-2.798,0.872-3.153
			c-15.445-2.637-30.52-7.509-44.042-15.515C175.683,282.332,174.04,285.153,175.853,286.228L175.853,286.228z"/>
	</g>
	<g>
		<path fill="#0C0A0A" d="M374.003,298.212c13.759-0.237,25.453-7.945,36.112-15.904c1.666-1.245,0.038-4.086-1.653-2.822
			c-10.146,7.581-21.33,15.236-34.459,15.459C371.901,294.983,371.896,298.249,374.003,298.212L374.003,298.212z"/>
	</g>
	<g>
		<path fill="#0C0A0A" d="M381.844,312.586c10.852-0.332,19.753-8.849,28.271-14.597c1.733-1.169,0.099-4.006-1.653-2.822
			c-7.902,5.331-16.557,13.844-26.618,14.152C379.741,309.385,379.737,312.652,381.844,312.586L381.844,312.586z"/>
	</g>
	<g>
		<path fill="#0C0A0A" d="M373.52,333.272c11.345-8.357,24.857-13.243,35.615-22.471c1.605-1.373-0.719-3.674-2.311-2.311
			c-10.53,9.034-23.844,13.773-34.951,21.96C370.197,331.685,371.82,334.526,373.52,333.272L373.52,333.272z"/>
	</g>
	<g>
		<path fill="#0C0A0A" d="M363.066,352.873c13.461-6.633,28.418-10.393,40.509-19.602c1.652-1.26,0.029-4.096-1.647-2.822
			c-12.088,9.204-27.049,12.968-40.509,19.602C359.53,350.983,361.187,353.801,363.066,352.873L363.066,352.873z"/>
	</g>
	<g>
		<path fill="#0C0A0A" d="M370.519,362.186c13.422-2.902,23.455-12.878,35.671-18.46c1.917-0.876,0.255-3.689-1.648-2.822
			c-11.95,5.459-21.779,15.297-34.894,18.134C367.588,359.482,368.463,362.631,370.519,362.186L370.519,362.186z"/>
	</g>
	<g>
		<path fill="#0C0A0A" d="M374.003,376.617c12.641-1.619,22.987-9.299,33.493-15.903c1.78-1.118,0.143-3.945-1.647-2.818
			c-9.9,6.221-19.909,13.925-31.845,15.454C371.943,373.615,371.92,376.887,374.003,376.617L374.003,376.617z"/>
	</g>
	<g>
		<path fill="#0C0A0A" d="M397.042,379.008c5.975-3.021,11.841-6.681,16.013-12.017c1.283-1.638-1.013-3.968-2.311-2.306
			c-4.02,5.137-9.597,8.589-15.35,11.506C393.514,377.143,395.168,379.96,397.042,379.008L397.042,379.008z"/>
	</g>
	<g>
		<path fill="#0C0A0A" d="M412.728,334.579c3.915-2.036,7.637-5.014,10.781-8.097c1.511-1.478-0.805-3.783-2.306-2.311
			c-2.968,2.907-6.43,5.668-10.127,7.585C409.205,332.727,410.858,335.549,412.728,334.579L412.728,334.579z"/>
	</g>
	<g>
		<path fill="#0C0A0A" d="M416.648,318.897c2.67-1.368,4.758-3.381,6.86-5.483c1.491-1.491-0.819-3.802-2.306-2.31
			c-1.922,1.917-3.769,3.725-6.207,4.971C413.121,317.037,414.773,319.853,416.648,318.897L416.648,318.897z"/>
	</g>
	<g>
		<path fill="#0C0A0A" d="M415.924,303.936c2.324-3.433,5.128-6.241,8.565-8.56c1.733-1.174,0.099-4.006-1.652-2.822
			c-3.912,2.646-7.088,5.824-9.73,9.734C411.918,304.035,414.755,305.668,415.924,303.936L415.924,303.936z"/>
	</g>
	<g>
		<path fill="#0C0A0A" d="M418.434,284.49c-0.1,0-0.772-0.076-0.284,0.005c-0.18-0.052-0.133-0.023,0.142,0.085
			c0.668,0.563,0.829,1.184,0.483,1.87c0.081-0.18-0.298,0.322,0,0.01c0.1-0.105,0.218-0.2,0.327-0.294
			c0.591-0.512,1.236-0.957,1.795-1.501c0.639-0.625,0.624-1.685,0-2.311c-0.635-0.634-1.672-0.621-2.306,0
			c-0.824,0.805-1.889,1.378-2.562,2.325c-0.488,0.695-0.473,1.799,0.185,2.395c0.634,0.563,1.401,0.673,2.221,0.682
			c0.895,0.01,1.633-0.752,1.633-1.633C420.066,285.224,419.324,284.5,418.434,284.49L418.434,284.49z"/>
	</g>
	<g>
		<path fill="#0C0A0A" d="M422.202,272.905c1.307-1.307,2.614-2.613,3.92-3.92c1.491-1.491-0.818-3.802-2.306-2.311
			c-1.306,1.307-2.613,2.614-3.92,3.92C418.405,272.085,420.71,274.396,422.202,272.905L422.202,272.905z"/>
	</g>
	<g>
		<path fill="#0C0A0A" d="M420.72,347.542c0.048,1.178,0.795,2.291,2.107,2.211c0.431-0.028,0.795-0.146,1.188-0.294
			c0.18-0.071,0.356-0.133,0.53-0.189c0.095-0.028,0.185-0.057,0.279-0.076c0.445-0.118-0.312,0,0.143-0.019
			c0.89-0.028,1.634-0.719,1.634-1.633c0-0.867-0.739-1.662-1.634-1.634c-0.588,0.024-1.141,0.146-1.69,0.35
			c-0.199,0.072-0.394,0.152-0.593,0.218c-0.151,0.048-0.435,0.043,0.057,0.015c0.45-0.029,1.227,0.496,1.245,1.051
			c-0.033-0.89-0.715-1.634-1.633-1.634C421.492,345.908,420.687,346.652,420.72,347.542L420.72,347.542z"/>
	</g>
	<g>
		<path fill="#0C0A0A" d="M317.812,307.358c10.089-0.051,20.061-1.358,30.056-2.613c2.06-0.261,2.089-3.528,0-3.267
			c-9.994,1.255-19.966,2.561-30.056,2.613C315.705,304.101,315.705,307.368,317.812,307.358L317.812,307.358z"/>
	</g>
	<g>
		<path fill="#0C0A0A" d="M321.25,322.818c4.104-2.6,8.731-3.623,13.551-3.698c2.102-0.033,2.107-3.3,0-3.267
			c-5.365,0.085-10.629,1.25-15.198,4.142C317.827,321.118,319.465,323.949,321.25,322.818L321.25,322.818z"/>
	</g>
</g>
</svg>
