<?xml version="1.0" encoding="utf-8"?>
<!-- Generator: Adobe Illustrator 17.0.0, SVG Export Plug-In . SVG Version: 6.00 Build 0)  -->
<!DOCTYPE svg PUBLIC "-//W3C//DTD SVG 1.1//EN" "http://www.w3.org/Graphics/SVG/1.1/DTD/svg11.dtd">
<svg version="1.1" id="Layer_1" xmlns="http://www.w3.org/2000/svg" xmlns:xlink="http://www.w3.org/1999/xlink" x="0px" y="0px"
	 width="800px" height="600px" viewBox="0 0 800 600" enable-background="new 0 0 800 600" xml:space="preserve">
<g>
	<path fill="#120E0F" d="M647.906,163.457c-2.793-2.072-5.866-3.807-8.879-5.53c-5.695-3.255-11.495-6.336-17.331-9.334
		c-0.861-3.701-1.963-7.227-6.068-8.788c-4.966-1.887-10.109-3.407-15.305-4.508c-3.078-0.652-6.225-1.084-9.377-1.013
		c-3.453,0.077-6.564,1.041-10.071,0.682c-4.004-0.41-10.419-2.953-14.646-1.067c-17.568-3.986-35.137-7.972-52.706-11.958
		c-0.12-0.454-0.282-0.902-0.493-1.334c-2.289-4.695-6.982-7.002-11.826-8.22c-0.287-0.499-0.61-0.98-0.97-1.4
		c-1.699-1.978-3.833-3.442-6.476-3.689c-1.467-0.137-2.764,0.637-4.166,0.372c-1.147-0.217-1.491-0.303-2.199-0.454
		c-5.911-1.261-11.841-2.394-17.868-2.941c-13.372-1.213-30.092,0.421-35.683,14.744c-1.307,3.349-1.663,6.951-1.713,10.518
		c-3.625,6.093-7.25,12.185-10.875,18.277c-2.155,3.622-4.31,7.244-6.465,10.866c-0.422,0.709-0.844,1.417-1.265,2.126
		c-0.504,0.205-1.005,0.416-1.505,0.629c-1.586,0.675-3.145,1.408-4.671,2.21c-0.924-0.448-1.853-0.849-2.92-0.987
		c-2.038-0.264-3.568,1.516-4.625,2.978c-1.391,1.923-2.59,4.031-3.93,5.995c-4.442,6.509-8.975,12.957-13.5,19.409
		c-3.299,4.702-6.604,9.4-9.916,14.093c-0.841,1.192-0.331,2.713-0.316,4.108c0.029,2.555-0.995,5.9-4.147,4.447
		c-0.525-0.242-1.987-0.936-2.473-0.172c-3.203,5.032-6.655,9.901-9.95,14.869c-0.89,1.343-1.99,2.525-3.269,3.502
		c-0.686,0.524-1.65,0.934-2.518,0.993c-1.359,0.092-1.635,0.313-2.59,1.355c-2.441,2.664-4.504,5.784-6.309,8.91
		c-1.14,1.976,1.805,4.271,3.215,5.132c0.009,0.005,0.017,0.01,0.026,0.016c-9.014,12.534-18.028,25.068-27.041,37.602
		c-0.017-0.018-0.034-0.037-0.051-0.055c-3.148-3.355-7.028-6.372-11.273-8.192c-0.174-0.075-0.748-0.309-0.655,0.155
		c0.912,4.529-1.895,10.009-3.633,14.013c-3.171,7.306-7.037,14.317-10.984,21.227c-6.717,11.757-13.934,23.233-21.374,34.549
		c2.368-10.698,3.536-21.938,2.653-32.661c-0.031-0.379-0.397-0.836-0.839-1.267c2.438-1.473,4.436-3.396,5.133-5.966
		c1.797-6.63-5.642-12.478-10.659-15.203c-9.45-5.135-21.574-5.28-32.02-4.981c-1.862,0.053-3.721,0.158-5.579,0.279
		c-11.707,0.83-24.159,2.514-34.735,7.94c-4.504,2.311-10.509,6.806-7.242,12.413c0.271,0.466,0.57,0.911,0.883,1.344
		c-0.149,0.06-0.288,0.149-0.411,0.28c-1.051,1.127,0.852,3.296,1.612,3.974c4.138,3.691,8.38,8.97,11.071,14.762
		c2.118,4.56,3.029,9.523,1.771,14.451c-0.763,2.986-2.289,5.895-3.567,8.687c-7.578,16.543-16.283,32.578-24.466,48.825
		c-8.733,17.34-17.615,34.843-24.166,53.154c-2.124,5.939-4.108,12.122-4.309,18.474c-0.225,7.091,1.095,14.148,3.76,20.719
		c6.294,15.514,20.236,26.521,36.691,29.274c10.656,1.783,21.746-0.075,31.96-3.221c3.158-0.973,6.258-2.13,9.319-3.371
		c1.652-0.669,3.283-1.389,4.908-2.122c0.844-0.381,1.68-0.778,2.516-1.175c0.345-0.164-0.754-0.629-0.282-0.453
		c2.14,0.797,4.375,1.316,6.606,1.78c11.362,2.361,23.353-0.063,29.221-10.942c5.247-9.726,3.817-21.826-2.093-30.944
		c1.181-1.89,2.362-3.779,3.544-5.669c0.816-1.305,1.632-2.611,2.448-3.916c0.187-0.298,0.373-0.597,0.56-0.895
		c5.198-0.704,10.343-3.67,13.105-8.164c2.735-4.452,2.178-9.28,2.607-14.256c0.239-2.778,0.828-6.341,2.804-8.595
		c0.227,0.059,0.428,0.056,0.59-0.035c1.288-0.716,2.633-1.381,3.827-2.176c0.233-0.028,0.465-0.05,0.695-0.059
		c0.837-0.036,3.28-0.137,3.822,0.319c1.144,0.961,1.62,3.8,1.72,5.453c0.095,1.565,4.311,6.24,5.922,4.275
		c2.588-3.158,4.171-7.736,2.786-11.724c-0.773-2.225-1.098-3.468-0.489-5.844c0.605-2.36,1.775-4.566,3.034-6.635
		c0.756-1.242,1.584-2.505,2.586-3.565c0.043-0.046,0.064-0.073,0.077-0.093c0.057-0.037,0.12-0.078,0.195-0.127
		c0.085-0.056,0.126-0.126,0.182-0.211c0.339-0.524,0.552-1.151,0.75-1.739c1.245-3.693,1.612-8,0.876-11.824
		c-0.447-2.322-1.521-4.367-2.958-6.222c-0.472-0.609-1.04-1.164-1.64-1.677c0.284-1.414,2.06-3.669,2.847-4.913
		c2.256-3.564,4.444-7.172,6.643-10.77c16.075-26.305,31.966-52.724,47.879-79.126c2.829-4.694,5.658-9.389,8.485-14.084
		c0.178-0.035,0.355-0.075,0.53-0.118c1.683-0.416,3.233-1.233,4.665-2.192c4.669-3.127,6.17-8.662,6.239-14.014
		c2.46,1.32,4.92,2.64,7.38,3.96c0.33,0.177,1.704,1.011,2.073,0.396c5.523-9.2,11.046-18.399,16.569-27.599
		c3.438-5.726,6.875-11.452,10.312-17.178c2.252-3.752,4.563-6.483,2.514-10.807c5.635-9.716,11.228-19.457,16.838-29.187
		c1.78-3.088,3.561-6.177,5.341-9.266c1.162-2.015,1.951-4.271,2.055-6.604c0.14-3.126-1.497-5.85-3.7-7.981
		c1.515-2.739,3.102-5.45,5.019-7.84c3.627-4.522,8.527-7.923,13.845-10.154c10.417-4.37,21.758-3.527,32.494-0.903
		c19.339,4.727,38.699,9.399,58.148,13.655c1.703,0.373,3.406,0.741,5.113,1.096c1.51,1.334,3.363,2.346,5.048,2.934
		c2.541,0.887,5.27,1.197,7.983,1.309c0.686,0.821,1.488,1.555,2.322,2.175c1.151,0.857,2.492,1.498,3.946,1.426
		c-0.918,0.045,0.741,0.093,1.024,0.122c4.604,0.479,9.191,1.261,13.744,2.082c4.98,0.897,9.811,2.24,14.735,3.366
		c5.258,1.203,10.628,1.942,15.985,2.526c4.881,0.532,9.798,0.89,14.71,0.908c2.087,0.008,5.973,0.489,7.714-1.07
		C654.454,168.562,649.085,164.332,647.906,163.457z M646.059,164.556L646.059,164.556c0.007-0.01,0.012-0.022,0.019-0.032
		C646.067,164.539,646.066,164.545,646.059,164.556z M533.941,136.761c-18.459-4.312-37.028-8.467-55.712-11.655
		c-14.418-2.46-28.56,4.408-36.15,16.728c-0.853,1.386-1.707,2.771-2.561,4.157c-1.811-2.699-2.937-5.788-2.822-9.079
		c0.662-0.937,1.365-1.961,1.57-2.893c0.096-0.437,0.155-0.888,0.199-1.345c0.254,0.022,0.489-0.012,0.694-0.123
		c1.847-0.999,3.7-1.916,5.591-2.81c2.437-1.153,4.612-2.898,6.869-4.356c3.055-1.972,6.27-3.587,9.781-4.568
		c4.438-1.239,8.884-0.94,13.389-0.337c11.677,1.563,23.324,3.385,34.952,5.281c0.57,0.398,1.147,0.685,1.632,0.795
		c7.958,1.806,15.916,3.611,23.874,5.417C534.813,133.569,534.377,135.165,533.941,136.761z M404.939,208.888
		c-2.792,1.106-5.583,2.212-8.375,3.318C397.531,208.6,402.407,206.882,404.939,208.888z M397.259,216.373
		c3.054-1.21,6.108-2.42,9.162-3.629c-0.296,2.451-1.856,4.26-4.207,5.12C400.134,218.626,398.289,217.872,397.259,216.373z
		 M409.846,213.618c-0.004-0.05-0.004-0.099-0.016-0.15c-0.218-2.672-1.532-5.051-3.514-6.671c0.006-0.008,0.016-0.012,0.021-0.021
		c11.519-18.698,23.037-37.397,34.555-56.095c1.238,1.161,2.543,2.247,3.884,3.252c-4.288,7.325-8.574,14.651-12.862,21.976
		C424.559,188.479,417.202,201.049,409.846,213.618z M405.166,180.98c-1.115,3.813-4.567,7.48-6.879,10.591
		c-0.042,0.056-0.085,0.112-0.127,0.168c-1.771-3.262-0.512-7.188,2.036-9.735c2.746-2.745,10.235-4.066,11.503,0.752
		c1.695,6.437-4.91,11.934-10.869,11.215c1.046-1.43,2.084-2.866,3.102-4.315c1.336-1.901,3.108-4.037,3.773-6.309
		C407.948,182.517,405.156,181.014,405.166,180.98z M507.474,119.329c0.041,0.161,0.095,0.363,0.102,0.429
		c0.009,0.076-0.003,0.303-0.048,0.589c-2.603-0.426-5.206-0.848-7.81-1.266c0.222-0.623,0.574-1.201,1.046-1.707
		c1.671,0.721,3.742,0.798,5.469,1.393C506.681,118.922,507.059,119.113,507.474,119.329z M502.382,114.617
		C502.519,114.782,502.493,114.772,502.382,114.617L502.382,114.617z M494.807,113.701c0.634-0.186,1.255-0.335,1.9-0.448
		c0.004,0.008,0.007,0.016,0.011,0.023c0.025,0.052,0.056,0.102,0.082,0.154c-1.318,1.318-1.722,3.137-1.341,4.975
		c-1.496-0.236-2.992-0.469-4.488-0.701c-0.081-1.534,0.325-3.068,1.338-4.288C493.116,113.628,494.102,113.908,494.807,113.701z
		 M477.297,110.64c2.409,0.308,4.805,0.709,7.191,1.156c0.156,1.809,0.978,3.637,1.987,5.22c-5.753-0.869-11.512-1.699-17.279-2.464
		c-4.246-0.563-8.304-0.751-12.512,0.21c-3.621,0.827-7.022,2.517-10.175,4.441c-2.21,1.349-4.282,2.927-6.517,4.236
		c0.209-0.549,0.432-1.093,0.679-1.627C446.817,108.54,465.17,109.088,477.297,110.64z M404.422,172.646
		c0.671-1.069,2.018-3.985,3.607-4.065c-0.1,0.035,0.424,0.186,0.167,0.041c0.26,0.131,0.516,0.275,0.773,0.411
		c1.599,0.85,2.392,0.838,3.968,0.027c2.264-1.166,5.474-1.605,6.824-3.874c1.428-2.4,2.856-4.8,4.284-7.2
		c3.283-5.517,6.565-11.033,9.848-16.55c1.126,2.361,2.639,4.548,4.394,6.553c-7.997,12.981-15.993,25.963-23.99,38.945
		c0.07-2.031-0.575-4.051-2.016-5.711c-2.871-3.307-7.363-4.754-11.369-3.338C402.106,176.156,403.307,174.426,404.422,172.646z
		 M353.614,238.766c3.916-0.163,6.285-3.209,8.395-6.256c2.985-4.313,5.959-8.642,8.79-13.058c2.841,0.882,5.659,0.702,6.966-2.666
		c0.742-1.913,0.692-4.328,0.416-6.402c5.624-7.963,11.244-15.93,16.81-23.935c0.089,1.985,0.808,3.986,2.125,5.668
		c0.085,0.109,0.247,0.259,0.443,0.419c-4.405,5.885-8.991,11.636-13.602,17.36c-9.237,11.468-18.656,22.791-28.148,34.048
		c-0.971,1.151-1.943,2.302-2.917,3.45c-0.492,0.306-0.987,0.617-1.484,0.935c-0.408-0.323-0.831-0.609-1.236-0.856
		c-0.358-0.218-0.715-0.436-1.072-0.654c-0.326-0.309-0.678-0.6-1.025-0.846C349.705,243.411,351.535,240.958,353.614,238.766z
		 M348.801,261.677c-1.316,2.03-2.929,3.78-5.074,4.943c-0.818,0.443-1.727,0.722-2.652,0.784c-0.17,0.017-0.336,0.001-0.499-0.029
		c-0.008-0.026-0.016-0.053-0.023-0.088c-0.512-2.647,2.231-5.449,3.854-7.167c2.2-2.329,4.724-4.44,7.37-6.346
		C351.142,256.521,350.225,259.251,348.801,261.677z M340.629,267.502C340.64,267.516,340.639,267.518,340.629,267.502
		L340.629,267.502z M307.819,294.681c1.407-3.433,3.403-7.927,2.854-11.801c3.626,1.748,6.349,4.601,6.98,8.772
		c0.104,0.69,0.687,1.414,1.345,2.057c-3.084-0.245-6.369,0.331-9.297,0.454c-0.691,0.029-0.421,1.084-0.251,1.404
		c0.746,1.404,0.628,3.289,0.598,4.827c-0.052,2.714-0.398,5.426-0.781,8.11c-0.685,4.813-1.649,9.592-2.726,14.332
		c-1.493,6.569-3.822,15.483-11.832,16.232c-0.36,0.034-0.486,0.239-0.483,0.518c-0.751-0.217-1.513-0.391-2.282-0.514
		c-3.489-0.561-6.923,0.16-9.82,1.785c0.645-1.022,1.295-2.041,1.937-3.065C292.724,323.973,301.616,309.817,307.819,294.681z
		 M292.162,366.572c-6.691,1.39-12.376-2.579-12.882-9.351c-0.5-6.687,5.129-12.081,11.26-13.355
		c3.136-0.652,6.668-0.02,9.301,1.811c2.539,1.766,3.457,4.956,3.584,7.903C303.196,360.175,298.568,365.241,292.162,366.572z
		 M235.809,460.842c-0.006,0.001-0.008,0.001-0.014,0.001c-0.416,0.018-0.833,0.028-1.249,0.038
		c-1.141,0.029-2.283,0.027-3.425,0.008c-0.002-0.067-0.01-0.135-0.011-0.202c-0.011-1.031-1.055-2.187-2.057-3.093
		c-1.853-2.02-4.188-3.551-6.686-4.663c-0.401-0.178-0.812-0.337-1.225-0.489c0.339,0.014,0.665,0.037,0.942,0.047
		c2.677,0.097,5.349,0.624,7.987,1.052c2.252,0.366,4.574,0.841,6.866,0.755c1.998-0.075,3.528-1.847,4.7-3.263
		c2.494-3.016,4.423-6.642,6.067-10.182c0.82-1.764-3.703-4.99-4.9-5.635c-2.258-1.217-4.515-2.433-6.773-3.65
		c2.295-3.593,4.59-7.186,6.885-10.779c2.219,2.365,4.438,4.73,6.657,7.095c0.366,0.391,4.046,4.034,4.753,2.978
		c3.564-5.325,7.127-10.651,10.69-15.977c0.91-1.361-3.293-4.621-4.139-5.16c-2.237-1.429-4.474-2.859-6.711-4.288
		c2.328-3.67,4.655-7.34,6.983-11.01c2.752,2.437,5.504,4.875,8.256,7.312c0.34,0.3,3.327,3.06,3.934,2.16
		c3.218-4.771,6.436-9.543,9.654-14.315c0.932-1.382-3.32-4.579-4.139-5.16c-2.494-1.773-4.988-3.544-7.482-5.316
		c0.416-0.6,0.831-1.2,1.247-1.799c1.341,0.839,2.682,1.677,4.023,2.515c0.446,0.381,1.402,1.066,2.369,1.481
		c2.857,1.786,5.713,3.572,8.57,5.358c-13.827,19.811-27.654,39.623-41.482,59.434c-2.954,4.233-5.908,8.466-8.862,12.699
		C236.761,459.477,236.285,460.16,235.809,460.842z M221.486,471.334c-0.162-0.198-0.324-0.396-0.481-0.598
		c-0.075-0.097-0.218-0.295-0.332-0.455c0.734-1.127,1.385-2.309,2.024-3.406c1.725,2.448,3.848,4.671,5.98,6.617
		c6.719,6.134,15.144,9.762,24.011,11.278c-0.747,0.944-1.524,1.868-2.33,2.768c-0.48-0.349-0.986-0.625-1.498-0.754
		c-8.046-2.02-15.736-5.365-22.265-10.538c-1.876-1.486-3.205-2.775-4.63-4.358C221.906,471.821,221.606,471.47,221.486,471.334z
		 M167.196,455.901c-0.712-0.776-0.9-1.007-1.372-1.597c-0.972-1.215-1.453-1.906-2.229-3.138c-0.464-0.736-0.896-1.492-1.298-2.264
		c-0.086-0.165-0.17-0.337-0.215-0.429c-0.022-0.048-0.044-0.097-0.065-0.146c-0.479-1.13-1.41-2.135-2.377-3.022
		c0.386-0.93,0.777-1.858,1.171-2.785c2.964,4.099,6.676,7.764,10.349,11.034c8.434,7.51,18.195,12.225,29.189,13.176
		c-0.059,0.16-0.121,0.319-0.179,0.48c-0.211,0.585-0.498,1.3-0.722,2.045c-0.792-0.705-1.651-1.302-2.412-1.37
		c-6.406-0.579-12.711-1.968-18.612-4.564c-3.76-1.654-8.075-4.455-10.307-6.499C168.319,456.989,166.657,455.315,167.196,455.901z
		 M163.72,435.876c1.939,3.675,4.516,6.931,7.41,9.899c8.491,8.711,20.164,13.054,32.064,14.276
		c-0.375,0.797-0.742,1.597-1.098,2.402c-0.896-0.887-2.092-1.984-3.039-1.956c-10.051,0.286-21.031-2.726-28.384-9.036
		c-0.082-0.076-0.239-0.219-0.376-0.343c-0.064-0.066-0.258-0.257-0.409-0.405c-0.055-0.065-0.538-0.571-0.558-0.592
		c-0.327-0.356-0.2-0.212-0.662-0.757c-0.909-1.072-1.515-1.88-2.332-3.06c-0.841-1.216-1.369-2.045-1.827-2.956
		c-0.594-1.182-1.64-2.23-2.689-3.165C162.446,438.744,163.077,437.307,163.72,435.876z M204.463,470.369
		c0.433-1.171,0.907-2.328,1.404-3.475c0.017-0.001,0.033,0,0.05-0.001c0.004,0-0.007-0.019-0.029-0.049
		c0.998-2.299,2.097-4.557,3.204-6.798c1.456-2.948,2.971-5.868,4.522-8.769c1.846,2.308,4.363,4.04,7.05,5.224
		c0.4,0.176,0.809,0.335,1.22,0.487c-0.85,1.772-1.778,3.508-2.741,5.219c-1.742,3.097-3.575,6.759-6.779,8.549
		c-2.511,1.402-5.668,1.829-8.719,1.755C203.916,471.719,204.243,470.964,204.463,470.369z M220.666,470.292
		c0.05,0.075,0.11,0.162,0.189,0.278c-0.062-0.091-0.129-0.181-0.194-0.271C220.663,470.297,220.664,470.294,220.666,470.292z
		 M253.087,491.508c0.042-0.026,0.072-0.061,0.094-0.102c2.773-3.003,5.225-6.298,7.293-9.682c-0.152,4.744-2.083,9.77-4.685,13.026
		c-3.288,4.115-9.74,6.741-15.572,6.786C244.991,499.066,249.331,495.557,253.087,491.508z M255.4,481.072
		c-0.496-0.322-1.028-0.548-1.561-0.598c-8.395-0.787-16.868-3.303-23.273-9.008c-1.681-1.497-3.218-3.301-4.26-4.835
		c-0.218-0.32-0.425-0.649-0.628-0.978c-0.1-0.163-0.197-0.328-0.293-0.493c-0.109-0.202-0.216-0.406-0.309-0.615
		c-0.143-0.322-0.332-0.637-0.55-0.94c0.541-1.02,1.057-2.054,1.548-3.097c1.226,2.097,3.079,3.875,5.085,5.148
		c2.075,2.296,4.672,4.269,7.06,5.912c5.55,3.819,12.226,5.769,18.861,6.898C256.545,479.342,255.984,480.212,255.4,481.072z
		 M274.615,375.364c-1.945-1.216-3.89-2.432-5.835-3.649c-0.262-0.164-1.835-1.337-2.225-0.773
		c-0.859,1.239-1.717,2.478-2.576,3.718c-0.945,1.363,3.333,4.589,4.139,5.16c2.5,1.777,5,3.553,7.5,5.33
		c-2.695,3.995-5.389,7.99-8.084,11.985c-2.759-2.443-5.518-4.887-8.277-7.331c-0.322-0.285-3.36-3.066-3.934-2.16
		c-2.885,4.549-5.77,9.099-8.655,13.649c-0.885,1.395,3.266,4.603,4.139,5.16c2.222,1.42,4.445,2.84,6.667,4.259
		c-2.899,4.332-5.797,8.664-8.695,12.996c-2.226-2.373-4.453-4.746-6.679-7.119c-0.354-0.377-4.075-4.039-4.753-2.978
		c-3.034,4.749-6.067,9.499-9.101,14.248c-0.999,1.563,3.875,5.083,4.9,5.635c2.347,1.264,4.693,2.529,7.04,3.794
		c-1.474,2.894-3.176,5.711-5.231,8.196c-1.486,1.798-2.837,2.773-5.182,2.638c-2.759-0.158-5.506-0.753-8.232-1.18
		c-0.914-0.143-3.166-0.54-5.25-0.582c3.109-5.613,6.343-11.16,9.622-16.667c7.082-11.895,14.511-23.59,22.284-35.045
		c4.026-5.932,7.911-11.825,11.083-18.272c2.303-4.68,4.236-9.535,5.883-14.484c1.145,0.881,2.207,1.485,2.38,1.232
		c2.315-3.383,4.585-6.797,6.835-10.226c-0.011,0.178-0.024,0.355-0.029,0.535c-0.119,4.78,2.098,9.132,5.467,12.376
		c-1.665,3.017-3.329,6.034-4.994,9.052C274.73,375.027,274.666,375.196,274.615,375.364z M270.666,297.434
		C270.908,297.632,270.912,297.696,270.666,297.434L270.666,297.434z M189.595,307.348c1.559-5.106,8.474-7.897,12.915-9.611
		c9.44-3.644,19.763-5.037,29.796-5.749c11.565-0.753,24.454-0.925,35.316,3.764c0.874,0.377,1.709,0.836,2.525,1.323
		c0.16,0.096,0.293,0.187,0.399,0.265c0.703,0.996,1.062,2.262,1.211,3.446c0.329,2.609-0.869,4.85-2.721,6.579
		c-5.297,4.944-13.868,6.615-20.716,7.918c-9.948,1.892-20.189,2.488-30.299,2.139c-6.939-0.239-13.976-0.968-20.666-2.899
		c-1.786-0.515-3.685-1.132-5.426-1.982c-0.511-0.491-1.027-0.974-1.552-1.443c-0.185-0.165-0.458-0.396-0.779-0.634
		c-0.066-0.15-0.123-0.307-0.163-0.467C189.211,309.113,189.333,308.207,189.595,307.348z M204.266,353.976
		c1.557-3.485,3.058-6.912,3.259-10.783c0.276-5.321-1.512-10.503-3.939-15.162c-2.118-4.067-4.819-7.989-7.896-11.532
		c3.106,1.47,6.444,2.48,9.537,3.17c3.287,0.733,6.636,1.236,10.011,1.566c0.162,0.379,0.323,0.758,0.476,1.14
		c1.292,3.22,2.15,6.603,2.7,10.024c0.812,5.054,0.661,10.205-0.225,15.235c-1.081,6.131-3.782,11.673-6.44,17.242
		c-6.739,14.118-14.009,28.063-21.965,41.54c-0.441,0.747,3.867,3.808,3.944,3.678c8.119-13.753,15.499-27.995,22.377-42.403
		c2.664-5.581,5.091-11.064,6.172-17.194c0.854-4.844,0.78-9.832,0.066-14.687c-0.704-4.787-2.132-9.787-4.575-14.004
		c-0.073-0.127-0.156-0.251-0.245-0.374c5.257,0.392,10.557,0.385,15.766,0.169c9.515-0.395,19.13-1.504,28.287-4.207
		c1.855-0.547,4.138-1.244,6.348-2.203c0.519,13.764-2.162,28.093-6.209,41.048c-2.002,6.409-4.578,12.63-7.631,18.607
		c-3.252,6.366-7.353,12.157-11.341,18.069c-7.725,11.45-15.075,23.158-22.113,35.042c-5.406,9.128-10.655,18.377-15.384,27.878
		c-0.228-0.107-0.44-0.172-0.624-0.179c-11.366-0.414-23.152-3.245-31.487-11.429c-1.976-1.94-3.802-4.505-5.009-6.791
		c-0.471-0.892-0.891-1.814-1.248-2.758c0.177,0.467-0.037-1.204-0.163-0.379c0.1-0.657-0.457-1.522-1.232-2.296
		C177.65,405.647,192.428,380.473,204.266,353.976z M311.672,402.923c-0.149,0.541-0.332,1.073-0.55,1.59
		c-0.063,0.048-0.147,0.114-0.285,0.225c-1.126,0.913-1.946,2.472-2.7,3.675c-2.276,3.627-4.585,8.194-3.814,12.601
		c0.206,1.177,0.884,2.153,1.162,3.297c0.281,1.155,0.09,2.333-0.205,3.462c-1.46-1.865-3.318-3.387-5.457-4.407
		c0.038-0.163,0.078-0.325,0.106-0.497c0.901-5.628-2.838-10.734-1.246-16.359c1.761-6.223,7.676-11.353,13.316-14.708
		C313.404,395.153,312.602,399.564,311.672,402.923z M310.901,378.28c-1.278,2.015-2.952,4.136-3.091,6.582
		c-6.339,3.354-13.078,8.841-15.346,15.849c-1.806,5.58,1.866,10.755,1.246,16.359c-0.44,3.981-4.355,5.532-7.422,7.24
		c-0.025,0.014,0.049,0.155,0.194,0.378c-0.35,0.361-0.678,0.756-0.975,1.196c-3.042,4.509-2.444,10.219-2.801,15.349
		c-0.523,7.519-6.222,12.535-13.294,13.968c-1.897,0.384-2.181,1.43-3.233,3.113c-1.825,2.919-3.649,5.838-5.474,8.756
		c-0.062,0.1-0.125,0.2-0.187,0.299c-0.649,1.038,0.146,2.232,0.797,3.088c0.288,0.418,0.558,0.85,0.823,1.284
		c0.962,1.579,1.701,3.266,2.344,4.998c2.041,5.5,2.021,11.445,0.247,17.004c-1.718,5.382-5.332,10.174-10.476,12.631
		c-3.879,1.853-8.259,2.262-12.496,2.013c-3.11-0.182-6.182-0.78-9.161-1.676c-0.613-0.184-1.221-0.384-1.821-0.608
		c-0.895-0.334-1.377-0.12-2.205,0.279c-1.913,0.922-3.854,1.787-5.806,2.623c-11.004,4.716-22.961,8.106-35.021,7.8
		c-8.142-0.207-16.26-2.412-22.818-7.225c-4.988-3.661-8.934-9.251-11.472-15.675c-2.419-6.122-3.482-12.986-2.955-19.553
		c0.523-6.518,2.921-12.961,5.188-19.034c0.889-2.381,1.813-4.746,2.763-7.1c2.434,3.53,5.483,6.714,8.484,9.586
		c9.286,8.889,20.764,14.309,33.387,16.019c0.888,0.987,2.099,1.969,2.848,2.09c4.163,0.675,8.884,0.564,12.783-1.134
		c1.344-0.586,2.435-1.54,3.376-2.661c7.291,8.536,17.881,14.626,28.513,18.062c-4.242,4.168-9.135,7.621-14.492,9.724
		c-0.091,0.036,0.389,0.829,1.045,1.621c0.053,0.078,0.099,0.141,0.127,0.176c0.641,0.789,1.516,1.664,2.483,2.041
		c7.006,2.735,16.716-0.029,21.824-5.347c4.631-4.821,6.693-14.809,3.765-20.928c-0.196-0.411-3.017-3.492-3.389-2.775
		c-0.242,0.468-0.495,0.936-0.753,1.404c-0.562-0.557-1.186-1.078-1.695-1.144c-6.427-0.831-12.804-2.282-18.652-5.143
		c-1.493-0.73-3.092-1.602-4.372-2.669c0.245,0.185,0.032-0.1-0.239-0.455c1.964,0.527,4.038,0.385,6.178,0.36
		c0.498-0.006,2.138,0.252,2.505-0.274c1.828-2.62,3.657-5.24,5.485-7.86c8.558-12.263,17.117-24.525,25.675-36.788
		c7.286-10.439,14.572-20.878,21.858-31.318c0.927-1.327-3.31-4.643-4.139-5.16c-3.002-1.878-6.005-3.755-9.008-5.632
		c1.583-2.869,3.166-5.737,4.749-8.607c0.184-0.334,0.282-0.673,0.313-1.012c1.193,0.444,2.417,0.775,3.649,0.973
		c2.823,0.454,5.61,0.068,8.106-0.955c0.352,0.479,0.704,0.959,1.055,1.439c-0.627,0.385-1.186,0.967-1.629,1.795
		c-1.572,2.933,1.131,6.25,3.453,7.795c2.499,1.662,5.761,1.843,7.358-1.137c1.597-3.81-2.552-8.493-6.381-8.995
		c-0.454-0.618-0.907-1.237-1.361-1.855c-0.055-0.075-0.117-0.152-0.176-0.228c4.098-2.546,6.983-6.949,7.162-12.073
		c0.079,0.011,0.159,0.019,0.238,0.019c1.3,0,2.6,0,3.9,0c0.594,1.806,2.056,3.443,3.587,4.264c1.679,0.9,3.488,0.987,4.995,0.302
		c-1.304,2.138-2.602,4.279-3.908,6.416C315.088,371.536,313.027,374.929,310.901,378.28z M303.743,375.046
		c0.615,0.102,0.815-0.178,0.814-0.564c0.177-0.034,0.357-0.058,0.536-0.07c0.307-0.021,0.61,0.02,0.907,0.092
		c0.024,0.08,0.052,0.158,0.07,0.241c0.214,0.833,0.048,1.698-0.277,2.473c-0.739,1.38-1.918,2.208-3.495,2.319
		c-0.307,0.021-0.61-0.021-0.907-0.092c-0.024-0.08-0.052-0.159-0.07-0.242c-0.214-0.833-0.048-1.698,0.277-2.473
		c0.337-0.804,0.959-1.406,1.699-1.799C303.444,374.978,303.592,375.02,303.743,375.046z M320.202,357.087
		c-0.705,1.316-2.171,2.102-3.65,1.791c-1.327-0.279-0.88-2.231-0.523-3.084c0.57-1.359,2.274-2.081,3.649-1.791
		C321.007,354.283,320.56,356.234,320.202,357.087z M385.05,259.078c0.037,1.318-0.129,2.642-0.352,3.938
		c-0.366,2.129-1.18,4.12-2.448,5.864c-1.552,2.135-3.782,3.624-6.281,4.405c-0.711,0.222-1.551,0.178-1.966,0.867
		c-0.536,0.891-1.073,1.782-1.61,2.674c-2.464,4.091-4.929,8.182-7.394,12.272c-13.651,22.649-27.292,45.305-41.044,67.894
		c-0.269-5.227-8.227-9.13-11.257-3.477c-0.064,0.12-0.112,0.244-0.163,0.366c-0.473-0.358-0.998-0.612-1.508-0.612
		c-1.036,0-2.071,0-3.107,0c-0.984-4.119-3.568-7.711-6.954-10.282c6.579-2.207,8.831-10.405,10.264-16.672
		c1.125-4.916,2.092-9.876,2.803-14.869c0.537-3.772,1.575-8.975,0.28-12.895c3.138-0.228,6.692-0.928,9.696-0.081
		c0.102,0.029,0.18,0.047,0.246,0.059c0.448,0.87,0.59,1.885,0.741,2.838c0.312,1.963,0.33,3.992,0.286,5.974
		c-0.177,7.918-3.335,15.859-12.159,16.654c-1.243,0.112,0.253,2.249,0.504,2.541c0.768,0.897,2.016,2.01,3.293,1.895
		c10.985-0.989,13.547-12.205,12.985-21.496c-0.3-4.961-1.743-9.653-6.482-12.073c-0.218-0.111-0.44-0.208-0.664-0.302
		c-0.506-1.684-1.347-3.239-2.362-4.688c0.358,0.133,0.639,0.142,0.766-0.034c5.376-7.476,10.753-14.952,16.129-22.428
		c0.435,0.892,1.103,1.721,2.043,2.439c4.733,3.614,10.364-0.848,12.986-4.89c2.66-4.531,3.925-9.825,4.38-15.031
		c0.028-0.324-0.145-0.747-0.429-1.17c6.327-7.463,12.595-14.976,18.82-22.523c8.461-10.258,17.062-20.508,24.971-31.224
		c0.392,0.426,0.821,0.805,1.079,0.886c2.925,0.914,5.782,0.569,8.155-0.847c-1.594,2.587-3.187,5.173-4.78,7.76
		c-0.296,0.48-0.592,0.961-0.888,1.441c-0.176,0.285-0.084,0.665,0.144,1.049c-0.676-0.27-1.386-0.474-2.13-0.588
		c-4.715-0.72-8.412,3.035-8.64,7.538c-0.022,0.443,0.01,0.878,0.069,1.306c-2.096,0.715-4.545,1.332-5.926,2.987
		c-5.124,6.14-10.247,12.28-15.371,18.42c-3.59,1.777-7.084,4.093-9.785,7.025c-3.784,4.109-3.227,9.723,1.729,12.66
		c5.964,3.535,9.614-10.444,10.918-16.267c0.129,0.005,0.236-0.022,0.304-0.103c5.077-6.084,10.154-12.168,15.231-18.252
		c0.55-0.659,0.899-1.205,1.273-1.353c1.092-0.433,2.185-0.865,3.277-1.298c0.479,0.625,1.036,1.195,1.652,1.698
		c-5.144,2.412-8.605,6.672-8.712,12.616c-0.025,1.401,0.155,2.845,0.543,4.194c0.013,0.045,0.026,0.075,0.037,0.099
		c-0.045,0.003-0.118,0.039-0.239,0.171c-0.425,0.462-0.849,0.924-1.274,1.386c-6.113,6.652-12.434,13.164-18.343,19.998
		c-0.27,0.312,0.654,1.348,1.483,1.978c-0.49,0.37-0.904,0.691-1.202,0.909c-4.059,2.967-10.576,7.954-9.282,13.739
		c0.075,0.336,0.189,0.663,0.331,0.981c-12.42,21.069-24.841,42.138-37.261,63.206c-1.414,2.399-2.828,4.798-4.242,7.197
		c-0.354,0.6,2.646,2.757,2.756,2.57c12.596-21.367,25.192-42.735,37.789-64.102c1.178-1.998,2.356-3.997,3.534-5.995
		c0.813,0.501,1.719,0.825,2.621,0.892c2.543,0.191,4.983-2.311,6.555-3.97c2.337-2.467,4.265-5.383,5.886-8.36
		c1.297-2.382,2.577-4.947,2.82-7.686c0.001-0.002,0-0.004,0.001-0.006c0.01-0.115,0.03-0.229,0.037-0.345
		c0.013-0.235-0.059-0.491-0.19-0.75c-0.518-1.595-1.56-2.137-2.827-2.063c-0.122-0.006-0.236,0.005-0.34,0.035
		c-1.031,0.141-2.182,0.637-3.302,1.266c5.649-6.353,11.565-12.493,17.314-18.747c0.05-0.11,0.039-0.217-0.031-0.322
		c-0.45-1.399-0.619-4.416-0.324-6.396c0.778-5.223,4.868-8.665,9.528-10.539c0.391,0.115,0.785,0.213,1.178,0.273
		c1.707,0.261,3.277-0.071,4.601-0.807c-5.835,9.971-11.671,19.942-17.506,29.913c-1.05,1.795-2.1,3.589-3.151,5.383
		C384.637,256.692,385.022,258.071,385.05,259.078z M371.516,238.636c-0.405,1.483-0.851,2.956-1.336,4.412
		c-0.967,2.905-2.597,8.736-6.044,9.676c-2.033,0.554-2.361-2.951-2.156-4.211c0.389-2.396,2.379-4.397,4.099-5.949
		C367.716,241.085,369.573,239.772,371.516,238.636z M379.189,259.467C379.545,259.347,379.502,259.47,379.189,259.467
		L379.189,259.467z M363.126,275.114c-0.478-1.596,1.093-3.688,1.964-4.835c1.455-1.916,3.297-3.544,5.15-5.063
		c1.428-1.17,2.93-2.254,4.479-3.261c-1.253,2.561-3.032,5.002-4.501,6.98c-1.404,1.889-2.997,3.684-4.879,5.108
		c-0.639,0.484-1.364,0.831-2.134,1.045C363.175,275.095,363.153,275.104,363.126,275.114z M448.633,163.492
		c-0.121,1.265-0.531,2.534-1.047,3.69c-0.319,0.713-0.727,1.381-1.116,2.056c-2.176,3.775-4.352,7.55-6.529,11.325
		c-5.163,8.956-10.311,17.922-15.499,26.864c-0.261,0.451-0.103,0.966,0.145,1.394c0.719,1.241,0.88,2.274,0.634,3.671
		c-0.115,0.656-0.117,0.43-0.092,0.389c-0.192,0.319-0.383,0.637-0.574,0.956c-0.996,1.659-1.992,3.318-2.988,4.977
		c-3.469,5.779-6.939,11.559-10.409,17.338c-5.159,8.595-10.319,17.19-15.479,25.784c-1.35-0.724-2.699-1.448-4.049-2.172
		c11.231-19.19,22.463-38.38,33.693-57.571c7.319-12.506,14.639-25.012,21.958-37.518c0.48-0.821,0.949-1.663,1.417-2.51
		C448.708,162.608,448.675,163.055,448.633,163.492z M495.257,133.232c-10.312-2.215-21.266-2.209-31.108,1.92
		c-6.73,2.823-12.79,7.534-16.493,13.86c-0.634,1.083-1.267,2.165-1.901,3.248c-1.345-0.949-2.643-2.05-3.817-3.276
		c0.625-1.015,1.25-2.03,1.875-3.044c5.674-9.211,13.85-16.235,24.833-18.143c6.188-1.075,12.239,0.188,18.311,1.339
		c6.577,1.246,13.137,2.585,19.687,3.962c8.915,1.874,17.812,3.838,26.693,5.872c-0.275,1.005-0.549,2.011-0.824,3.016
		c-0.013,0.048-0.018,0.099-0.023,0.15C520.079,139.194,507.723,135.91,495.257,133.232z M556.464,147.624
		c-5.523-1.215-11.035-2.479-16.545-3.755c0.929-3.401,1.857-6.803,2.786-10.204c7.211,1.636,14.421,3.272,21.632,4.908
		c-0.886,3.393-1.773,6.787-2.66,10.18c-0.078-0.016-0.146-0.031-0.201-0.042C559.804,148.356,558.133,147.992,556.464,147.624z
		 M638.433,165.085c-10.322-0.216-20.916-1.416-30.933-3.945c-5.457-1.378-10.889-2.589-16.447-3.513
		c-2.616-0.435-5.239-0.826-7.869-1.168c-0.261-0.034-0.522-0.058-0.784-0.09c-1.031-1.883-3.383-3.796-4.975-3.799
		c-1.969-0.004-3.932-0.074-5.893-0.258c-1.091-0.103-2.172-0.276-3.246-0.497c-0.026-0.045-0.054-0.089-0.081-0.133
		c0.951-3.642,1.902-7.283,2.854-10.925c2.798-2.165,7.505-0.516,10.573,0.054c2.754,0.512,5.506,0.787,8.307,0.682
		c2.361-0.088,4.557-0.886,6.953-0.834c5.999,0.129,12.149,1.742,17.915,3.775c0.537,2.371,1.262,4.715,3.029,6.363
		c1.579,1.473,3.721,2.314,5.614,3.295c6.73,3.486,13.453,7.024,19.963,10.908C641.76,165.138,640.09,165.119,638.433,165.085z
		 M647.654,167.78c0.004,0.003,0.009,0.007,0.013,0.01C647.723,167.848,647.735,167.865,647.654,167.78z"/>
	<path fill="#120E0F" d="M200.808,311.449c3.95,2.298,8.913,3.116,13.386,3.64c13.851,1.621,28.738-0.501,42.165-4.096
		c1.307-0.35-1.916-4.205-3.34-3.823c-11.108,2.973-22.882,4.6-34.372,4.533c-4.11-0.024-8.226-0.41-12.252-1.24
		c-1.984-0.409-3.926-0.982-5.793-1.769c-0.237-0.1-0.466-0.218-0.69-0.343c0.004-0.497,0.277-0.926,0.558-1.315
		c1.776-2.462,5.552-3.554,8.285-4.415c4.024-1.268,8.276-1.953,12.489-2.081c1.036-0.031-0.355-1.935-0.521-2.124
		c-0.672-0.769-1.722-1.733-2.82-1.699c-4.661,0.141-9.282,1.004-13.704,2.474c-2.634,0.875-7.144,2.395-8.16,5.35
		C195.029,307.478,198.668,310.204,200.808,311.449z"/>
</g>
</svg>
