<?xml version="1.0" encoding="utf-8"?>
<!-- Generator: Adobe Illustrator 17.0.0, SVG Export Plug-In . SVG Version: 6.00 Build 0)  -->
<!DOCTYPE svg PUBLIC "-//W3C//DTD SVG 1.1//EN" "http://www.w3.org/Graphics/SVG/1.1/DTD/svg11.dtd">
<svg version="1.1" id="Layer_1" xmlns="http://www.w3.org/2000/svg" xmlns:xlink="http://www.w3.org/1999/xlink" x="0px" y="0px"
	 width="800px" height="600px" viewBox="0 0 800 600" enable-background="new 0 0 800 600" xml:space="preserve">
<g>
	
		<linearGradient id="SVGID_1_" gradientUnits="userSpaceOnUse" x1="394.1351" y1="480.1177" x2="394.1351" y2="378.9396" gradientTransform="matrix(1 0 0 1 -0.002 0)">
		<stop  offset="0" style="stop-color:#FFFFFF"/>
		<stop  offset="0.0905" style="stop-color:#F9FDFF"/>
		<stop  offset="0.2065" style="stop-color:#E9F7FD"/>
		<stop  offset="0.3366" style="stop-color:#CFEDFB"/>
		<stop  offset="0.4768" style="stop-color:#AADEF8"/>
		<stop  offset="0.6252" style="stop-color:#7BCCF5"/>
		<stop  offset="0.7783" style="stop-color:#42B6F0"/>
		<stop  offset="0.7813" style="stop-color:#41B6F0"/>
	</linearGradient>
	<path fill="url(#SVGID_1_)" d="M397.213,448.135c0.058-1.644,1.293-1.559,1.293-3.336v-13.802l13.668,15.123
		c1.076,1.156,3.698,2.842,4.599,2.711c2.218-0.418,6.161-2.791,8.215-4.433c0.456-0.589,1.807-1.199,1.807-4.111
		c0-0.71,1.588-2.66,1.699-3.811c0.192-2.019-1.083-3.26-2.409-3.506c-0.877-0.157-9.293,2.648-9.293,2.648l-13.495-19.119
		c0,0-1.069-1.293,1.157-1.261c25.258,0.372,51.134,0.231,53.291-0.745c1.716-0.773,4.722-5.567,5.494-5.935
		c1.149-0.548,1.947-0.962,2.284-1.713c1.209-2.188,0-3.035,0-3.035c0.387-2.008,0.547-5.123-2.082-7.208
		c-4.232-3.356-12.003-0.508-9.822,6.441c0,0-0.508,2.237-0.833,2.307c-4.734,0.964-35.879-0.467-52.258-2.793
		c-1.117-0.355,14.07-22.21,14.07-22.21l-8.595-1.407c0,0-19.354,20.16-21.561,21.032c-2.207,0.864-40.489-3.702-44.588-3.863
		c-0.317-0.01-0.481-1.17-0.481-1.17c2.184-6.951-5.587-10.227-9.824-6.87c-2.624,2.083-2.466,5.194-2.078,7.208
		c0,0-1.215,0.846,0,3.031c0.333,0.751,1.202,0.99,3.093,1.339c1.413,0.255,2.425,3.037,2.94,3.402
		c2.154,1.534,33.744,7.535,39.592,8.12c0.74,0.075,0.71,0.589,0.457,0.792c-7.873,6.222-26.62,12.557-35.364,15.674
		c0.156-2.702-1.013-5.066-4.007-5.004c-1.684,0.034-3.79,1.557-5.403,1.154c-1.152-0.289-3.755-2.883-5.043-1.802
		c-2.346,1.96-1.82,7.159,0.361,10.229c0.676,0.948,3.097,1.585,3.097,1.585s2.198,4.399,3.818,4.681
		c8.213,1.442,21.894-3.102,50.985-15.932c1.269-1.027,1.231,0.894,1.231,0.894v21.394c0,2.221,1.705,1.564,1.768,3.427v31.854
		h12.215V448.135z"/>
	<linearGradient id="SVGID_2_" gradientUnits="userSpaceOnUse" x1="382.1916" y1="480.1177" x2="382.1916" y2="455.6161">
		<stop  offset="0" style="stop-color:#FFFFFF"/>
		<stop  offset="0.1926" style="stop-color:#FCFEFF"/>
		<stop  offset="0.3529" style="stop-color:#F1FAFE"/>
		<stop  offset="0.5017" style="stop-color:#E0F4FC"/>
		<stop  offset="0.6435" style="stop-color:#C8ECFA"/>
		<stop  offset="0.7803" style="stop-color:#A8E1F8"/>
		<stop  offset="0.9116" style="stop-color:#82D4F5"/>
		<stop  offset="1" style="stop-color:#64CAF2"/>
	</linearGradient>
	<path fill="url(#SVGID_2_)" d="M392.498,467.486c0.023-1.017,0.19-3.859,0.125-5.489c-0.064-1.627,0.272-2.993-0.951-5.055
		l-19.508-1.326c-0.438,0.795-0.641,1.202-0.816,2.05c-0.762,3.71,0.303,7.18,0.477,8.798c0.32,2.946,1.354,6.289,2.264,13.654
		h19.22C393.253,478.065,392.475,468.502,392.498,467.486z"/>
	<linearGradient id="SVGID_3_" gradientUnits="userSpaceOnUse" x1="349.8024" y1="469.6006" x2="349.8024" y2="441.7688">
		<stop  offset="0" style="stop-color:#FFFFFF"/>
		<stop  offset="0.1281" style="stop-color:#F6FCFF"/>
		<stop  offset="0.3339" style="stop-color:#DFF5FF"/>
		<stop  offset="0.5916" style="stop-color:#B8EAFF"/>
		<stop  offset="0.8885" style="stop-color:#84DAFF"/>
		<stop  offset="1" style="stop-color:#6ED4FF"/>
	</linearGradient>
	<path fill="url(#SVGID_3_)" d="M360.01,463.549c-0.864-4.43-0.767-9.58-0.978-11.819c-0.099-1.054-0.103-5.521-0.663-7.479
		c-0.636-3.663-20.51-3.501-20.052,2.029c0.14,1.688,0.493,3.551,1.054,6.356c0.503,2.522,2.376,5.367,3.312,8.969
		c0.511,1.963,0.962,5.76,1.237,7.995h17.374C360.865,467.757,360.407,465.591,360.01,463.549z"/>
	<path d="M460.391,376.066l-1.93,0.268c-10.326-0.613-41.355-1.911-41.355-1.911c2.149-4.524-0.789-8.072-2.324-8.655
		c-1.608-0.606-1.435-1.735-1.435-2.475c0-0.085,0.491-1.594,0.433-1.956c-0.425-2.714-5.229-6.998-7.297-5.166l-8.08,5.21
		c0.125-4.303,0.196-9.339,0.146-14.952c9.853,0.499,19.552,0.619,28.276,0.206c7.807-0.37,13.416-5.687,15.703-8.86
		c4.314-5.984,5.493-4.831,6.905-5.682c0.823-0.426,2.273-0.611,2.615-0.192c1.935,2.372,9.758-3.286,9.928-7.155
		c0.329-7.445-0.794-43.83-0.521-46.677c0.163-2.265,0.057-4.267,0.458-7.253c0.321-2.327,2.809-7.24,2.162-9.076
		c-1.189-2.918-11.713-2.101-11.713-2.101c-0.759-7.321-5.515-61.234-5.854-64.4c-0.82-7.658-7.04-12.56-13.811-12.991
		l-45.531-0.048c-0.641-1.038-1.401-2.493-1.942-4.237c-0.978-3.156-2.305-11.021-2.305-14.156c0-3.133,0-13.398-0.541-16.64
		c-0.539-3.242-0.936-12.499-10.697-12.48c-2.973-3.62-7.789-3.569-15.561-1.243c-9.562,2.863-13.715,7.459-13.867,7.6
		c-4.236,3.098-5.513,6.749-5.461,10.028c0.053,3.307,0.529,3.957,0.529,3.957c-0.008-0.175-0.702-2.802,0.039-6.015
		c-0.091,0.697-0.181,1.489-0.147,2.208c0.148,3.307,0.439,3.966,1.01,5.565c0,0-0.79-2.48-0.738-5.443
		c0.079,0.317,0.247,3.409,0.799,4.378c0,0-0.5-1.863-0.425-3.768c0.303,3.207,0.621,3.627,0.79,4.039
		c-0.048-0.27-0.433-1.668-0.555-3.451c0,0,0.17,0.446,0.217,0.844c0.321,2.204,0.641,2.767,1.2,4.096c0,0-0.585-1.605-0.886-3.391
		c0.032,0.063,0.207,0.378,0.265,0.631c0.161,0.7,0.334,1.312,0.711,2.102c0,0-0.205-0.719-0.406-1.675
		c0.418,0.662,0.9,1.355,1.328,1.85c0.521,0.603,1.267,2.163,0.936,3.207c-0.719,2.269-1.115,3.782-2.844,6.482
		c-0.577,0.902-0.972,2.401-0.036,3.17c0.919,0.756,1.765,0.595,2.305,1.135c0.428,0.428,0.437,1.148,0,1.711
		c-0.559,0.721-0.747,1.859,0.254,2.396c-0.721,0.467-0.343,1.801,0.432,2.233c0.608,0.339,1.182,1.175,0.99,1.909
		c-0.775,2.971,1.468,3.809,3.007,4.052c0.514,0.081,5.779,0.029,9.398-0.566c0.022,0.345-0.157,1.483-0.616,2.819
		c-4.07,1.78-11.84,4.225-17.516,6.085c-3.528,1.157-7.222,4.628-7.474,8.626c-0.309,4.902-2.128,18.518-2.378,21.179
		c-0.864,9.221-1.098,18.152-1.171,19.955c-0.071,1.8-0.54,5.835-0.54,6.699c0,0.864-1.069,4.778-0.326,7.112
		c0.377,1.181,1.538,3.698,3.449,6.206c-1.752,1.116-3.441,2.207-5.401,3.602c-1.043,0.743-0.473,3.459-0.684,3.854
		c-0.863,1.62-2.179,7.452-2.774,9.976c-1.405,6.969-1.98,23.809-1.332,36.721c0.142,2.835-0.289,3.152,0.197,9.906
		c0.106,1.465,4.043,3.259,4.629,3.259c0.654,0.877,1.731,6.039,6.772,7.78c3.525,1.219,8.63,2.474,14.803,3.671
		c-0.195,4.883-0.537,15.076-0.198,20.053c0.151,2.229,0.325,4.531,0.507,6.857c-7.179-1.003-12.511-1.757-12.511-1.757
		c-3.085-0.496-7.906,7.312-7.726,8.644c0.156,1.659,0.749,3.389,0.81,4.248c0.065,0.864,0.688,1.008,1.305,1.187
		c-0.391,1.918,0.503,5.331,1.991,6.596c1.909,1.62,5.398,2.055,8.307,0.563c2.406-1.235,2.935-3.361,2.879-5.622
		c-0.06-2.258-2.724-4.052-1.829-4.99c0.358-0.026,3.506,0.572,7.62,1.479c0.416,5.012,0.801,9.753,1.037,13.668
		c-10.577,4.213-20.747,8.664-20.747,8.664c-1.894,0.793-6.231,7.338-6.354,12.707c-0.01,0.451,0.864,2.034,1.972,2.281
		c1.11,0.251-0.077,3.021,0.783,5.055c0.782,1.852,1.894,1.811,3.207,2.345c1.314,0.535,1.025,1.886,3.043,2.138
		c1.646,0.207,4.029,0.615,6.783-0.78c2.757-1.397,3.759-4.295,3.924-5.738c0.164-1.438,0.178-3.026-0.613-5.008
		c-0.863-2.16-1.543-2.738-2.076-2.946c1.806-1.502,5.195-3.243,9.376-5.027c-0.142,1.434-0.213,2.59-0.113,2.99
		c0.315,1.26-2.31,6.823-2.94,9.341c-0.629,2.52-1.715,7.733-1.785,8.712c-0.07,0.981-1.189,3.535-1.539,4.375
		c-0.35,0.839-1.245,5.942-1.4,7.628c-0.209,2.309,0.471,7.882,0.701,9.307c0.35,2.169,3.425,2.406,5.458,1.75
		c7.138-2.309,13.504-6.427,13.716-7.558c0.559-1.96,0.741-5.734,0.84-6.789c0.211-2.239,0.701-6.157,0.979-8.257
		c0.281-2.101,1.191-7.63,1.4-8.819c0.211-1.189,1.681-4.408,2.099-5.807c0.421-1.401,1.681-4.689,1.54-8.259
		c-0.051-1.29-1.201-3.174-1.852-4.88c5.051-1.639,9.932-3.076,13.793-4.097c0.746,5.875,1.308,11.066,1.235,12.808
		c-0.055,1.293-1.817,6.515-2.054,8.011c-0.238,1.497-1.699,11.766-1.731,13.258c-0.035,1.493-0.744,9.033-1.108,10.873
		c-0.367,1.838-1.822,6.346-1.852,7.973c-0.031,1.628-0.545,5.843,0.217,9.554c0.763,3.71,2.329,6.072,3.43,7.716
		c1.474,2.205,5.303,0.693,7.349-0.268c2.045-0.962,8.025-4.522,9.157-6.429c1.223-2.061,0.888-3.427,0.953-5.055
		c0.064-1.629-0.103-4.472-0.125-5.488c-0.025-1.016,0.555-6.826,0.525-8.147c-0.03-1.321,0.467-6.315,0.23-7.733
		c-0.235-1.419,0.237-7.429-0.01-9.355c-0.247-1.926,0.365-6.313,0.023-7.932c-0.342-1.618-1.005-4.707-0.555-7.259
		c0.212-1.196,1.165-6.501,2.179-12.447c9.111,7.02,23.334,22.51,23.809,23.941c0.212,0.631,0.036,3.379-1.15,3.496
		c-5.017,0.492-6.413,4.893-6.228,7.792c0.183,2.903,1.761,5.204,3.364,6.007c1.603,0.8,4.283,1.026,6.256,0.409
		c1.972-0.619,2.796-1.813,2.736-2.613c1.027-0.945,2.011-0.028,3.009-0.184c1.756-0.278,4.926-2.079,3.485-7.697
		c-0.07-2.997,0.655-2.009,1.297-2.666c2.121-2.177-1.01-11.613-2.241-12.765c0,0-14.31-15.629-20.679-21.775
		c-1.309-1.258,45.535-2.142,45.993-1.856c0.456,0.287,1.847,0.534,2.072,1.245c-0.744,0.601-2.236,1.873-2.375,4.499
		c-0.118,2.259,0.574,4.327,2.982,5.56c2.909,1.493,6.234,0.864,8.141-0.927c1.421-1.336,2.539-4.68,2.147-6.597
		c0.619-0.178,0.915-0.208,1.273-0.995c0.277-0.608,0.581-1.065,0.737-2.724C469.791,384.79,463.474,375.57,460.391,376.066z
		 M449.731,273.414c0.074-0.847,0.798,2.658,1.07,4.612c0.45,3.237,0.885,13.221,1.011,17.599c0.075,2.528,0.468,20.215-0.012,19.99
		c-0.478-0.222-1.018-4.716-1.14-5.732C450.535,308.843,449.477,276.348,449.731,273.414z M356.165,182.516l0.122-0.025
		c0.061,0.624,0.125,1.62,0.139,2.078l-0.269,0.159C356.192,184.163,356.175,183.137,356.165,182.516z M355.383,182.711l0.143-0.03
		c0.029,0.797,0.068,1.808,0.07,2.281l-0.398,0.193C355.249,184.534,355.369,183.481,355.383,182.711z M344.251,236.447
		c1.167,5.572,3.555,9.236,3.927,14.128l-2.388,1.317c-0.399,0.2-2.277-2.867-2.231-4.18
		C343.607,246.453,344.251,236.447,344.251,236.447z M329.441,308.987c-1.081,0.359-1.737-6.388-1.73-10.446
		c0.036-20.674,1.945-23.052,4.502-26.92c0.284-0.43,1.436-0.313,1.981-0.742c0.417-0.329,0.833-0.648,1.245-0.96
		c1.964,0.71,4.034,0.179,5.264-0.278c0.359,1.152,0.108,7.983,0.108,8.776c0,1.297,2.071,2.629,2.935,3.386
		c0.571,0.498,2.645,2.744,3.341,3.463c-0.144,1.98-0.238,3.915-0.968,5.638c-1.263,2.984-1.763,6.902-4.265,10.913
		C337.124,304.707,330.238,308.721,329.441,308.987z M364.425,384.629c0.114-0.694,0.231-1.38,0.348-2.059
		C366.375,383.226,366.264,383.862,364.425,384.629z M367.135,370.14c1.711-8.506,3.357-16.45,4.323-25.954
		c0.131,0.016,0.264,0.031,0.395,0.046c0.264,5.426,1.08,18.65,1.887,26.783C371.749,370.756,369.511,370.459,367.135,370.14z
		 M382.645,158.222c0.087,2.454,0.035,4.018-0.042,5.47c-0.078-1.265-0.122-3.2-0.153-5.405c-0.025-2.075-0.255-5.563-0.316-7.122
		C382.419,152.5,382.559,155.845,382.645,158.222z M381.63,156.107c-0.052,2.97,0.399,12.279,1.003,16.082
		C381.608,167.71,381.215,159.966,381.63,156.107z M380.989,166.039c0.222,2.469,1.282,9.911,2.124,13.023
		C381.98,176.16,380.857,168.655,380.989,166.039z M384.59,182.214c-0.486-1.308-1.859-5.823-1.95-8.426
		c0.266,1.63,1.496,6.666,2.318,8.439L384.59,182.214z M385.738,182.22c-0.289-0.558-1.534-4.74-1.947-6.61
		c-0.406-1.852-1.368-6.037-1.237-9.465c0.242,3.115,1.007,6.887,1.777,9.887c0.6,2.344,0.676,3.363,1.942,6.2L385.738,182.22z
		 M401.293,373.779c-0.725-0.276,1.488-2.962,2.734-3.978c-0.574,2.97,1.339,4.615,1.339,4.615S402.218,374.125,401.293,373.779z"/>
	<path fill="#FFFFFF" d="M354.628,196.031c0.948-0.649,3.286-4.383,3.134-5.419c-0.114-0.803,0.101-3.597-0.127-5.288
		c-0.095-0.705,0.471,0.208,0.584,0.478c0.329,0.79,2.801,9.131,6.415,18.266c0.077,0.195,0.398,0.218,0.503,0.076
		c6.039-8.109,9.04-18.045,11.385-20.484c1.354-1.408,1.917-1.211,2.389-1.394c0.478-0.186,1.367,0.249,1.274,0.279
		c-2.176,0.69-2.575,1.406-3.477,4.004c-0.446,1.286-0.636,2.813-0.283,3.258c0.523,0.661,1.844,2.034,2.862,2.576
		c1.338,0.71-5.692,3.129-6.267,3.617c-0.572,0.495,2.333,1.867,2.971,2.442c0.504,0.452-5.732,4.035-7.544,8.971
		c-1.825,4.967-3.528,8.821-3.837,14.047c-0.031,0.495-0.513,0.382-0.591-0.157c-0.556-3.829-1.861-12.173-2.465-13.944
		c-1.804-5.307-5.423-6.748-5.095-7.06c0.551-0.523,3.316-2.141,2.77-2.81C358.928,197.107,354.089,196.406,354.628,196.031z"/>
	<g>
		<linearGradient id="SVGID_4_" gradientUnits="userSpaceOnUse" x1="382.8816" y1="285.2755" x2="382.8816" y2="256.293">
			<stop  offset="0.0083" style="stop-color:#1B86EB"/>
			<stop  offset="0.1496" style="stop-color:#2793F1"/>
			<stop  offset="0.4152" style="stop-color:#38A5F9"/>
			<stop  offset="0.693" style="stop-color:#42B0FD"/>
			<stop  offset="1" style="stop-color:#45B4FF"/>
		</linearGradient>
		<path fill="url(#SVGID_4_)" d="M414.577,257.562c0.073-0.289,0.793-1.514-1.694-1.225l-60.299,7.286c0,0-0.781,0.117-1.323,0.418
			c-0.346,0.322-0.502,0.838-0.568,1.304c-0.09,2.257,0.157,8.36,0.377,13.015c0.047,0.025,0.096,0.047,0.151,0.055
			c0.504,0.073,1.243-0.342,2.251-0.521c1.009-0.181,2.232-0.263,2.809,0.089c0.738,0.451,0.649,1.604-0.523,2.341
			c0,0,2.563-0.63,3.224-0.818c1.107-0.298,2.026,0.027,2.692,0.701c0.589,0.597-0.099,1.756-0.477,1.864
			c-0.377,0.108-3.403,1.243-4.16,1.568c-0.416,0.178-1.582,0.6-2.809,1.035c3.356,0.452,9.64,0.952,18.747,0.262
			c3.43-0.261,7.227-0.45,10.985-0.603c-0.676-0.43-1.56-1.006-2.069-1.261c-0.756-0.378-2.405-1.297-2.999-1.837
			c-0.407-0.371,0.108-1.458,1.135-1.432c1.273,0.034,2.917,0.892,4.105,1.432c-0.89-1.297-1.945-2.349-3.214-3.296
			c-0.818-0.608-2.16-1.891-2.296-2.242c-0.135-0.351,0.135-1.206,0.749-1.315c0.719-0.127,1.304-0.117,1.817,0.235
			c-0.567-0.891-0.576-1.395,0.234-1.747c0.811-0.35,1.972-0.216,3.026,0.324c1.053,0.541,4.737,2.739,6.645,3.855
			c-0.594-0.783-2.882-3.538-3.339-4.078c-0.46-0.541-0.372-2.082,1.322-2.162c1.135-0.054,2.384,0.321,3.593,1.405
			c0.784,0.703,2.54,2.107,3.108,2.54c0.567,0.432,3.43,2.837,3.862,3.269c0.433,0.433,2.162,1.432,2.783,1.458
			c0.621,0.028,2.54-1.377,2.971-1.54c0.433-0.161,1.486-1.081,1.431-1.62c-0.055-0.54,0.136-1.567-0.541-2.108
			c-0.675-0.541-0.864-2.134-0.62-2.89c0.243-0.756,0.97-2.454,2.134-2.728c0.919-0.216,2.379,0.12,2.188,1.458
			c-0.096,0.666-0.044,1.646-0.012,2.257c2.275-5.654,4.669-11.572,4.963-12.478C415.447,258.269,414.505,257.85,414.577,257.562z"
			/>
	</g>
	<path fill="#FFFFFF" d="M347.721,260.704c-1.95-0.7-4.971,1.118-5.854,2.016c-0.949,0.871-2.47,3.044-2.253,5.179
		c0.35,0.647,0.792,1.437,0.792,1.437c-0.372,0.057-1.828-1.133-2.052-1.59c-0.486-0.919-2.025-1.901,2.207-6.259
		c1.789-1.843,6.024-2.185,6.66-1.933c0.638,0.252,1.639,1.52,1.813,2.185C348.545,261.26,347.91,260.823,347.721,260.704z"/>
	<path fill="#FFFFFF" d="M414.098,278.084c0.334,2.311,0.948,4.945-0.382,7.306c-0.858,1.525-2.867,3.111-5.676,3.867
		c-0.987,0.266,3.567,0.594,6.059-1.694c1.712-1.572,2.003-3.653,1.431-6.659C415.347,279.95,413.574,276.928,414.098,278.084z"/>
	<path fill="#FFFFFF" d="M351.986,263.729l0.405-2.621c34.525-2.214,62.483-5.915,62.483-5.915s-0.351,1.918-0.621,2.593
		C377.461,260.245,351.986,263.729,351.986,263.729z"/>
</g>
</svg>
