<?xml version="1.0" encoding="utf-8"?>
<!-- Generator: Adobe Illustrator 17.0.0, SVG Export Plug-In . SVG Version: 6.00 Build 0)  -->
<!DOCTYPE svg PUBLIC "-//W3C//DTD SVG 1.1//EN" "http://www.w3.org/Graphics/SVG/1.1/DTD/svg11.dtd">
<svg version="1.1" id="Layer_1" xmlns="http://www.w3.org/2000/svg" xmlns:xlink="http://www.w3.org/1999/xlink" x="0px" y="0px"
	 width="800px" height="600px" viewBox="0 0 800 600" enable-background="new 0 0 800 600" xml:space="preserve">
<g>
	<path fill="#110C1A" d="M392.149,313.062c11.723,58.596-12.678,112.878-54.504,121.248c-41.824,8.37-85.233-32.344-96.961-90.939
		c-11.724-58.593,12.678-112.88,54.503-121.248C337.013,213.753,380.422,254.469,392.149,313.062z"/>
	<path fill="#E6F5F9" d="M385.764,314.34c10.733,53.654-11.61,103.358-49.91,111.022c-38.3,7.664-78.051-29.616-88.785-83.27
		c-10.737-53.651,11.61-103.358,49.907-111.022C335.273,223.403,375.029,260.689,385.764,314.34z"/>
	<path fill="#CCCCCC" d="M364.121,341.817c-3.522-17.609-21.647-3.038-40.467,0.73c-18.83,3.768-31.235,21.096-27.712,38.705
		c3.527,17.609,35.135,37.192,50.02,25.059C357.235,397.12,367.645,359.428,364.121,341.817z"/>
	<g>
		<path fill="#FB1B2A" d="M341.099,406.215c0,0-76.124-11.921-66.504-52.648c9.537-40.379,46.494-12.381,46.494-12.381
			s7.217-34.836,31.88-20.871C378.091,334.538,341.099,406.215,341.099,406.215z"/>
		<path fill="#686868" d="M332.962,368.106c-0.973-4.854-4.974-8.14-8.938-7.349c-3.964,0.794-6.392,5.37-5.423,10.22
			c0.969,4.854,4.974,8.143,8.938,7.349C331.505,377.535,333.929,372.957,332.962,368.106z"/>
		<path fill="#FFFFFF" d="M344.311,388.226c3.32-6.634,7.028-14.769,9.878-23.011c-0.722-0.289-1.436-0.591-2.134-0.93
			c-0.403,0.7-0.794,1.356-1.151,1.92c-3.676,5.749-8.01,10.039-13.172,13.395C340.19,382.233,342.3,385.18,344.311,388.226z"/>
		<path fill="#FFFFFF" d="M335.561,380.936c-2.877,1.658-5.992,3.073-9.383,4.311c-5.239,1.915-12.483,4.426-18.173,2.88
			c-0.411,0.059-0.817,0.126-1.228,0.171c-0.513,1.236-1.032,2.5-1.65,3.696c15.121,7.798,30.934,11.418,30.934,11.418
			s2.164-3.567,5.158-9.191C339.046,389.86,337.227,385.301,335.561,380.936z"/>
	</g>
	<path fill="#110C1A" d="M519.185,339.666c-8.857,48.487-44.099,82.665-78.713,76.341c-34.606-6.324-55.477-50.755-46.626-99.242
		c8.861-48.485,44.102-82.665,78.707-76.341C507.169,246.749,528.046,291.179,519.185,339.666z"/>
	<g>
		<path fill="#E6F5F9" d="M513.902,338.698c-8.113,44.399-40.385,75.697-72.073,69.904c-31.691-5.789-50.806-46.473-42.698-90.872
			c8.116-44.399,40.382-75.694,72.076-69.902C502.895,253.618,522.017,294.303,513.902,338.698z"/>
	</g>
	<path fill="#CCCCCC" d="M473.624,342.434c-0.717,0.232-1.38,0.452-1.966,0.668c-4.696,1.73-13.512,6.175-19.631,5.731
		c-0.003,0.04,0,0.078,0,0.118c-0.479,8.37-10.797,11.124-15.443,4.182c-3.089-4.618-6.307-9.172-9.148-13.946
		c-0.062-0.102-0.09-0.2-0.144-0.302c-6.498,4.696-11.216,11.584-12.722,19.834c-3.245,17.769,12.294,35.6,20.557,39.069
		c17.808,7.474,44.995-8.731,48.24-26.5C485.342,360.455,481.339,349.86,473.624,342.434z"/>
	<g>
		<path fill="#FB1B2A" d="M436.301,395.47c0,0,56.721-15.895,45.757-45.95c-10.873-29.793-36.415-5.217-36.415-5.217
			s-8.611-25.795-26.077-12.978C401.77,344.387,436.301,395.47,436.301,395.47z"/>
		<path fill="#686868" d="M439.053,365.809c0.297-3.77,3.043-6.626,6.126-6.383c3.078,0.246,5.335,3.5,5.035,7.271
			c-0.299,3.771-3.046,6.627-6.126,6.386C441.005,372.836,438.75,369.579,439.053,365.809z"/>
		<path fill="#FFFFFF" d="M432.244,382.105c-3.116-4.739-6.664-10.582-9.571-16.58c0.524-0.283,1.035-0.58,1.538-0.898
			c0.366,0.492,0.723,0.957,1.048,1.353c3.308,4.035,6.981,6.899,11.202,8.985C434.835,377.185,433.496,379.613,432.244,382.105z"/>
		<path fill="#FFFFFF" d="M438.234,375.783c2.332,1,4.824,1.792,7.509,2.428c4.15,0.984,9.878,2.236,14.058,0.551
			c0.31,0.011,0.634,0.021,0.943,0.021c0.503,0.891,1.015,1.805,1.59,2.655c-10.779,7.282-22.46,11.453-22.46,11.453
			s-1.964-2.516-4.747-6.514C436.391,382.873,437.36,379.246,438.234,375.783z"/>
	</g>
	<path fill="#E6F5F9" d="M243.863,353.628c6.784-3.468,14.156-6.29,18.689-9.319c16.016-10.707,25.759-26.313,36.719-41.754
		c11.389-16.045,22.912-32.314,31.606-50.025c3.444-7.02,5.939-13.994,7.851-21.053c-13.024-6.76-27.054-9.338-40.917-6.562
		c-42.388,8.48-67.118,63.497-55.234,122.876C242.97,349.759,243.403,351.7,243.863,353.628z"/>
	
		<radialGradient id="SVGID_1_" cx="4086.1536" cy="1828.2123" r="25.3915" gradientTransform="matrix(-1.1437 1.5424 -0.5502 -0.4081 5952.4458 -5299.8779)" gradientUnits="userSpaceOnUse">
		<stop  offset="0" style="stop-color:#A1A1A1"/>
		<stop  offset="1" style="stop-color:#FFFFFF"/>
	</radialGradient>
	<path fill="url(#SVGID_1_)" d="M244.188,295.677c7.716,5.723,26.973-7.172,43.009-28.8c16.042-21.634,22.792-43.816,15.074-49.53
		c-7.72-5.725-26.979,7.172-43.013,28.806C243.214,267.781,236.465,289.96,244.188,295.677z"/>
	<path fill="#110C1A" d="M239.596,361.61c-11.734,0-12.345-5.445,0-10.504c12.346-5.06,47.831-39.925,63.672-62.73
		c15.841-22.802,30.367-52.116,35.459-63.757c5.095-11.641,17.681,0.126,7.584,18.639c-10.093,18.513-33.221,55.231-63.787,86.032
		C251.961,360.086,239.596,361.61,239.596,361.61z"/>
	<path fill="#E6F5F9" d="M430.326,291.84c8.764,11.405,20.825,20.187,30.917,30.368c5.166,5.212,10.365,10.988,16.612,14.935
		c6.878,4.337,14.483,7.076,22.094,9.846c3.332,1.214,7.244,2.31,11.254,3.535c1.074-3.69,1.983-7.493,2.7-11.405
		c8.116-44.398-11.007-85.082-42.695-90.872c-18.754-3.428-37.708,6.137-51.742,23.717
		C423.698,278.079,426.154,286.411,430.326,291.84z"/>
	
		<radialGradient id="SVGID_2_" cx="1811.4302" cy="2879.8984" r="25.3926" gradientTransform="matrix(0.9833 0.964 -0.4796 0.4891 86.2498 -2889.7932)" gradientUnits="userSpaceOnUse">
		<stop  offset="0" style="stop-color:#A1A1A1"/>
		<stop  offset="1" style="stop-color:#FFFFFF"/>
	</radialGradient>
	<path fill="url(#SVGID_2_)" d="M511.198,289.463c6.729-6.859,1.003-23.377-12.789-36.898c-13.79-13.52-30.423-18.922-37.149-12.058
		c-6.724,6.859-0.999,23.38,12.793,36.898C487.845,290.925,504.478,296.33,511.198,289.463z"/>
	<path fill="#110C1A" d="M514.506,359.624c9.851-1.262,9.778-5.899-1.128-8.819c-10.904-2.92-44.441-28.375-60.189-45.816
		c-15.749-17.441-31.095-40.492-36.622-49.712c-5.528-9.223-14.825,2.006-4.36,16.462c10.463,14.456,33.824,42.794,62.789,65.361
		C503.968,359.669,514.506,359.624,514.506,359.624z"/>
	<path fill="#110C1A" d="M527.037,294.452c-65.131-31.402-91.755-85.182-100.173-130.762l51.996,7.562
		C478.86,171.253,471.504,244.083,527.037,294.452z"/>
	<path fill="#110C1A" d="M216.552,299.041c65.134-31.402,91.757-85.182,100.177-130.762l-52,7.56
		C264.729,175.839,272.088,248.671,216.552,299.041z"/>
</g>
</svg>
