<?xml version="1.0" encoding="utf-8"?>
<!-- Generator: Adobe Illustrator 17.0.0, SVG Export Plug-In . SVG Version: 6.00 Build 0)  -->
<!DOCTYPE svg PUBLIC "-//W3C//DTD SVG 1.1//EN" "http://www.w3.org/Graphics/SVG/1.1/DTD/svg11.dtd">
<svg version="1.1" id="Layer_1" xmlns="http://www.w3.org/2000/svg" xmlns:xlink="http://www.w3.org/1999/xlink" x="0px" y="0px"
	 width="800px" height="600px" viewBox="0 0 800 600" enable-background="new 0 0 800 600" xml:space="preserve">
<path d="M257.195,116.183l-0.188-3.572l-34.316-4.325l-1.316,5.735l-2.444,0.188c0,0-16.171,21.905-16.735,23.316
	c-0.564,1.41,1.035,7.992,1.881,7.992c0.846,0,1.504,0,1.504,0s-8.18,10.341-8.273,11.376c-0.094,1.034,4.231,15.324,6.957,16.171
	c2.726,0.847,109.153,21.53,116.58,24.162c7.427,2.632,13.726,14.197,8.743,27.264c-4.983,13.069-10.906,17.393-11,20.12
	c-0.094,2.726,1.317,11.47,2.163,12.034c0.846,0.565,19.649,17.675,44.376,25.949c24.726,8.274,45.315,3.573,57.444,5.453
	c12.128,1.88,14.948,11,8.085,32.529c-6.864,21.529-9.778,48.794-14.103,65.811c-4.325,17.017-10.248,18.804-10.248,20.496
	c0,1.692,2.82,3.572,2.257,6.298c-0.564,2.727-7.427,6.206-5.265,14.197c2.162,7.991,12.128,19.743,52.649,23.41
	c40.521,3.666,50.299,5.641,50.299,5.641s1.974,11.658,15.23,12.034c13.256,0.376,13.068-12.881,13.068-12.881
	s6.393,0.094,11.658-10.247c5.266-10.342,12.316-28.393,13.727-53.119c1.41-24.727-4.231-66.094-3.291-82.171
	c0.94-16.077,8.273-35.256,19.273-39.957c11-4.701,30.838,4.7,34.598,1.598c3.76-3.102,9.12-12.88,8.555-17.487
	c-0.564-4.607-11.846-9.12-16.735-15.701c-4.889-6.581-4.324-9.965,5.547-18.709c9.871-8.744,10.247-11,10.154-19.367
	c-0.094-8.367-3.103-8.086-7.898-8.086s-10.06,0.47-10.06,0.47s-1.692-7.898-4.795-9.966c-3.103-2.068-4.137-1.786-4.137-1.786
	s-0.094-4.513-4.042-7.239c-3.949-2.726-6.769-2.726-6.769-2.726s-0.658-8.932-6.017-8.932c-5.358,0-7.145,8.18-9.025,8.18
	c-1.88,0-41.461-7.898-41.461-7.898l-71.735-12.316l-2.632,1.128l-80.196-13.914L257.195,116.183L257.195,116.183z"/>
<path fill="#FFFFFF" d="M246.007,120.319l-25.761-4.042c0,0-17.017,21.435-15.983,21.529c1.034,0.094,23.974,5.171,24.538,4.889
	C229.366,142.413,246.384,120.414,246.007,120.319L246.007,120.319z"/>
<path fill="#FFFFFF" d="M224.383,110.448c0,0-2.82,4.7-2.35,4.7c0.47,0,28.017,4.701,28.017,4.701s2.444-6.957,1.881-6.957
	C251.366,112.893,224.383,110.448,224.383,110.448L224.383,110.448z"/>
<path fill="#FFFFFF" d="M248.922,121.448c0,0-17.675,22-16.922,22s190.758,37.324,190.758,37.324s3.009-2.257,6.769-3.666
	c3.76-1.411,8.367-1.223,8.367-1.223l4.607-22.376l-188.126-35.82l-1.034,1.974l174.024,33l-0.188,0.752l-175.622-32.812
	L248.922,121.448L248.922,121.448z"/>
<path fill="#ABABAB" d="M204.17,139.405c0,0,0.846,4.513,1.316,4.701c0.47,0.188,22.188,5.641,22.188,4.983
	c0-0.659-0.376-5.171-0.376-5.171S204.264,139.029,204.17,139.405L204.17,139.405z"/>
<polygon fill="#ABABAB" points="230.777,145.422 231.529,150.593 356.382,173.721 359.578,170.148 230.777,145.422 "/>
<path fill="#FFFFFF" d="M227.016,151.345l-19.368-4.513c0,0-8.273,8.273-8.273,12.035c0,3.76,4.137,12.786,5.829,12.786
	s15.419,4.137,15.419,3.384c0-0.751-0.94-5.829-0.94-5.829s-16.735-2.633-16.735-3.573c0-0.94,0-0.94,0-0.94
	s15.418,3.197,15.606,2.445c0.188-0.752-16.17-3.009-14.854-3.761c1.315-0.752,15.418,2.445,16.17,1.88
	C220.623,164.695,227.016,151.345,227.016,151.345L227.016,151.345z"/>
<path fill="#FFFFFF" d="M228.896,152.097l-6.205,11.658c0,0,49.829,10.341,77.281,15.043c27.453,4.7,30.273,14.666,32.718,18.803
	c2.444,4.137,1.128,4.889,13.35,6.957c12.222,2.068,37.982,9.59,43.435,6.769c5.453-2.821,9.778-6.581,9.778-6.581
	s-3.76,1.691-4.513,1.504c-0.752-0.188,4.889-2.444,4.701-3.29c-0.188-0.846-5.547,1.692-5.359,0.846
	c0.188-0.846,6.205-2.256,5.923-3.29c-0.282-1.034-5.641,2.444-5.547,1.316c0.093-1.128,6.111-3.291,6.111-4.137
	c0-0.846-5.735,2.256-5.64,1.504c0.094-0.752,6.299-3.103,6.299-3.76c0-0.658-5.924,2.444-5.924,1.504
	c0-0.941,6.675-2.633,6.675-3.667c0-1.034-6.393,1.975-6.205,1.223c0.188-0.752,6.299-2.633,6.299-3.761
	c0-1.128-6.487,3.103-6.487,2.069s6.487-2.727,6.863-4.325c0.376-1.598,0.564-2.163,0.564-2.163s-5.17,2.633-9.778,2.633
	c-4.607,0-8.085-1.504-8.085-1.504s-4.607,4.607-8.649,6.487c-4.042,1.88-10.53-0.47-10.53-0.47s-3.573,4.795-7.897,4.795
	c-4.325,0-6.3-2.726-6.393-6.205c-0.094-3.479,2.35-4.889,2.35-4.889s-2.068-2.633-2.068-5.453s3.384-7.615,3.384-7.615
	l-125.981-23.222L228.896,152.097L228.896,152.097z"/>
<path fill="#ABABAB" d="M229.742,151.627l-1.692,3.479l122.409,27.077c0,0,0.283-0.94,2.163-4.231c1.881-3.29,1.881-3.29,1.881-3.29
	L229.742,151.627L229.742,151.627z"/>
<path fill="#ABABAB" d="M220.811,166.011l2.632,9.966l72.11,14.572c0,0,24.727,3.385,30.461,7.898
	c5.735,4.513,7.427,8.273,7.427,8.273s4.325-1.786,23.222,1.974c18.897,3.761,19.179,3.666,19.179,4.325
	c0,0.658-11.094-2.351-21.436-3.667c-10.341-1.316-15.043-1.505-14.573-0.282c0.47,1.223,23.598,5.641,23.598,5.641
	s11.94-0.658,15.795,0.376c3.855,1.034,4.043,3.29,4.043,3.29s8.085,1.599,8.367,2.257c0.282,0.658,6.581-5.265,14.572-5.359
	c7.991-0.094,15.607,1.504,15.607,1.504l0.282-6.017c0,0-11,0.094-14.666-0.94c-3.667-1.034,0.376-7.991,0.376-7.991l-4.795-1.974
	c0,0-5.924,10.247-13.821,12.316c-7.897,2.069-17.769-1.598-28.487-3.949c-10.718-2.35-25.854-4.606-26.7-5.922
	c-0.846-1.317-6.676-13.821-14.855-16.829c-8.18-3.009-41.837-10.342-66.376-14.573C228.238,166.67,220.623,165.729,220.811,166.011
	L220.811,166.011z"/>
<path fill="#ABABAB" d="M200.315,162.157c0,0,2.35,8.461,4.795,9.214c2.445,0.752,15.513,3.666,15.513,3.666l-0.94-5.829
	c0,0-16.923-2.727-17.017-3.103c-0.094-0.376,0.283-1.41,0.283-1.41s15.324,3.197,15.136,2.257
	c-0.188-0.941-14.76-3.103-14.384-3.573c0.375-0.47,0.846-1.034,5.735-0.188c4.889,0.847,10.154,2.257,10.53,1.787
	c0.376-0.47,0.658-1.034,0.658-1.034l-20.778-3.008L200.315,162.157L200.315,162.157z"/>
<polygon points="233.462,176.988 232.876,177.46 224.58,167.17 225.165,166.698 233.462,176.988 "/>
<polygon points="230.14,176.28 229.555,176.752 221.259,166.462 221.845,165.99 230.14,176.28 "/>
<polygon points="237.474,177.877 236.889,178.35 228.592,168.06 229.178,167.588 237.474,177.877 "/>
<polygon points="240.952,178.63 240.366,179.102 232.071,168.812 232.656,168.34 240.952,178.63 "/>
<polygon points="244.431,179.194 243.846,179.666 235.549,169.377 236.135,168.904 244.431,179.194 "/>
<polygon points="247.533,180.134 246.948,180.606 238.652,170.317 239.237,169.844 247.533,180.134 "/>
<polygon points="250.824,180.51 250.238,180.983 241.943,170.693 242.528,170.22 250.824,180.51 "/>
<polygon points="255.337,181.544 254.751,182.017 246.455,171.727 247.041,171.255 255.337,181.544 "/>
<polygon points="260.507,182.861 259.922,183.333 251.626,173.043 252.212,172.571 260.507,182.861 "/>
<polygon points="265.678,183.895 265.093,184.367 256.797,174.077 257.382,173.605 265.678,183.895 "/>
<polygon points="270.944,185.117 270.358,185.589 262.062,175.299 262.648,174.827 270.944,185.117 "/>
<polygon points="275.08,184.553 274.495,185.025 266.199,174.735 266.785,174.263 275.08,184.553 "/>
<polygon points="279.405,185.305 278.82,185.777 270.524,175.487 271.11,175.016 279.405,185.305 "/>
<polygon points="284.012,186.527 283.426,187 275.131,176.71 275.716,176.238 284.012,186.527 "/>
<polygon points="289.371,187.937 288.785,188.409 280.489,178.119 281.074,177.648 289.371,187.937 "/>
<polygon points="294.824,189.16 294.238,189.632 285.942,179.342 286.528,178.87 294.824,189.16 "/>
<polygon points="298.772,189.16 298.187,189.632 289.891,179.342 290.476,178.87 298.772,189.16 "/>
<polygon points="302.721,190.1 302.135,190.572 293.839,180.282 294.425,179.81 302.721,190.1 "/>
<polygon points="308.174,191.604 307.589,192.076 299.293,181.786 299.878,181.314 308.174,191.604 "/>
<polygon points="312.969,192.262 312.383,192.734 304.087,182.444 304.673,181.972 312.969,192.262 "/>
<polygon points="316.824,192.638 316.238,193.11 307.942,182.82 308.528,182.349 316.824,192.638 "/>
<polygon points="320.96,193.954 320.374,194.426 312.079,184.137 312.664,183.664 320.96,193.954 "/>
<polygon points="326.695,196.963 326.11,197.435 317.813,187.145 318.399,186.673 326.695,196.963 "/>
<polygon points="330.926,198.843 330.34,199.316 322.044,189.026 322.63,188.554 330.926,198.843 "/>
<polygon points="223.631,172.498 224.008,173.345 316.049,191.96 316.144,191.396 223.631,172.498 "/>
<polygon points="223.914,170.618 224.29,171.464 316.331,190.08 316.426,189.515 223.914,170.618 "/>
<polygon points="224.007,168.456 224.383,169.302 316.425,187.918 316.52,187.354 224.007,168.456 "/>
<polygon points="224.007,166.575 224.383,167.422 316.425,186.037 316.52,185.473 224.007,166.575 "/>
<path fill="#FFFFFF" d="M333.16,209.917c0,0,0,8.273-3.76,18.615c-3.761,10.341-9.12,13.632-9.025,16.359
	c0.094,2.726,24.444,22.188,40.897,28.581c16.453,6.393,58.572,5.453,60.546,4.419c1.974-1.034,1.222-10.436-1.035-10.342
	c-2.256,0.094-15.419,6.675-33.282,6.675c-17.862,0-31.777-1.786-47.29-16.453c-15.513-14.666-7.709-23.034-1.975-31.119
	c5.735-8.086,17.863-11.282,18.428-11.564c0.564-0.282-9.026-2.632-15.795-4.418C334.1,208.883,333.349,208.883,333.16,209.917
	L333.16,209.917z"/>
<path fill="#ABABAB" d="M396.339,223.455c0,0-13.068-4.607-21.153-7.051c-8.085-2.444-21.812-0.564-29.71,5.453
	c-7.897,6.018-13.726,14.855-12.128,22.846c1.599,7.992-0.282-14.666,17.393-22c17.675-7.333,26.701-4.137,36.384-0.752
	C396.809,225.336,395.775,225.336,396.339,223.455L396.339,223.455z"/>
<path fill="#FFFFFF" d="M395.117,226.276c0,0-15.043-7.333-23.974-7.333s-26.701,5.359-32.153,16.547
	c-5.453,11.188-5.171,16.922,5.641,23.88c10.812,6.958,19.273,13.444,35.82,13.444c16.546,0,37.231-1.41,49.358-15.23
	c12.128-13.821,2.444-29.521-5.735-29.521c-8.179,0-10.811,4.701-13.162,10.812c-2.35,6.111-0.658,0.188-10.53,7.145
	c-9.872,6.957-23.222,9.683-31.495,9.683c-8.274,0-8.085,1.035-8.743-3.008c-0.658-4.043-0.658-4.983-0.282-5.171
	c0.376-0.188,15.042-2.444,23.504-8.649C391.826,232.669,395.117,226.276,395.117,226.276L395.117,226.276z"/>
<path fill="#ABABAB" d="M320.374,247.241c0,0,1.504,8.367,2.256,8.932c0.752,0.564,15.701,13.914,34.974,22.188
	c19.273,8.274,42.777,8.461,54.154,8.461c11.376,0,21.06-0.564,23.41,10.718c2.35,11.282-5.265,26.982-7.71,37.888
	c-2.444,10.906-4.512,26.983-8.837,46.256c-4.325,19.273-10.53,25.479-10.436,25.761c0.094,0.282,0,3.29,6.205,4.418
	c6.205,1.128,34.41,8.18,34.41,7.239c0-0.94-29.615-6.393-29.803-11.752c-0.188-5.359,6.393-14.854,12.692-31.401
	c6.299-16.547,14.854-63.837,15.888-75.777c1.034-11.94-6.205-21.812-7.145-22c-0.94-0.189-4.419,1.316-22.752,1.41
	c-18.333,0.094-34.222,2.82-56.127-4.983C339.647,266.797,320.469,246.96,320.374,247.241L320.374,247.241z"/>
<path fill="#FFFFFF" d="M361.929,249.028c0,0,16.264,0.658,25.572-5.453c9.308-6.111,13.726-8.649,15.513-8.744
	c1.786-0.094,1.598-2.633,3.667-6.769c2.068-4.137,3.008-5.265,3.008-5.265s-3.76-1.034-5.735-3.102
	c-1.975-2.068-2.069-2.444-2.069-2.444s-9.213,17.675-19.649,23.598C371.801,246.771,361.647,247.524,361.929,249.028
	L361.929,249.028z"/>
<path fill="#ABABAB" d="M361.553,250.438l0.376,3.385c0,0,13.068,3.384,26.512-3.761c13.444-7.145,20.026-9.307,20.026-9.307
	s3.76-10.812,10.624-14.008c6.863-3.197,30.743-5.83,30.743-5.83l-2.069-3.102c0,0-19.085-0.564-28.957,6.393
	c-9.872,6.957-9.683,12.222-10.247,12.222c-0.564,0-1.317-0.282-1.317-0.282s1.692-10.342,9.872-14.573
	c8.18-4.231,23.41-4.983,23.692-5.641c0.282-0.657-16.922-6.204-17.017-5.546c-0.094,0.657-0.188,6.675-0.188,6.675
	s-12.598,4.701-15.042,10.06c-2.445,5.358-3.761,9.025-4.137,9.119c-0.376,0.094-7.239,1.786-14.854,7.615
	c-7.615,5.829-18.991,6.299-22.47,6.299C363.621,250.156,361.553,249.968,361.553,250.438L361.553,250.438z"/>
<path fill="#E8E8E8" d="M403.014,217.156c0,0,1.881,1.974,4.607,3.479c2.726,1.504,3.855,1.692,3.855,1.692s3.667-3.102,6.487-4.136
	c2.821-1.034-1.786-1.598-7.333-1.598C405.083,216.593,403.014,217.156,403.014,217.156L403.014,217.156z"/>
<path fill="#ABABAB" d="M424.356,226.746c0,0,11.47,0.658,12.222,14.478c0.752,13.821-7.427,19.556-6.769,19.649
	c0.658,0.094,19.649-5.922,23.598-22.94c3.949-17.017-3.479-16.453-15.23-14.948C426.424,224.49,424.356,226.746,424.356,226.746
	L424.356,226.746z"/>
<path fill="#FFFFFF" d="M413.638,206.11c0,1.843-1.537,3.337-3.431,3.337c-1.895,0-3.431-1.494-3.431-3.337
	c0-1.843,1.536-3.338,3.431-3.338C412.101,202.772,413.638,204.267,413.638,206.11L413.638,206.11z"/>
<path fill="#FFFFFF" d="M407.057,178.892l-45.504-8.931l-1.693,2.162l37.136,7.333l-0.188,0.94l-37.512-7.239
	c0,0-5.359,2.914-5.359,7.991c0,5.077,1.035,5.547,1.035,5.547l3.572-2.915l1.504,0.188c0,0-6.675,3.384-6.675,6.299
	c0,2.914,5.359,4.982,8.743,0c3.384-4.983,5.453-1.881,11.752-3.949c6.299-2.068,7.428-4.983,8.086-5.077
	c0.658-0.093,4.794,3.103,13.726,3.197C404.613,184.533,407.057,178.892,407.057,178.892L407.057,178.892z"/>
<path fill="#ABABAB" d="M407.15,181.806c0,0-6.393,3.384-11.752,3.855c-5.359,0.47-11.752-2.35-11.752-2.35
	s-5.265,4.137-10.154,5.453c-4.889,1.317-8.65,0.752-8.65,0.752s-2.256,3.667-5.641,4.607c-3.384,0.94-6.299-0.47-6.299-0.47
	s1.411,4.418,5.924,3.291c4.513-1.128,7.051-4.419,7.051-4.419s5.829,2.257,11.188,0c5.359-2.256,7.71-6.299,7.71-6.299
	s5.735,2.444,11.281,0.94c5.547-1.504,11.188-3.854,11.188-3.854L407.15,181.806L407.15,181.806z"/>
<path d="M356.476,179.926c0,0-1.41,0.846,0.094,1.034c1.504,0.188,18.427,3.291,18.427,3.291l0.564-0.752L356.476,179.926
	L356.476,179.926z"/>
<path fill="#FFFFFF" d="M414.202,180.584l-10.436,17.863l4.137,1.787c0,0,1.786-2.351,5.077-1.411
	c3.291,0.94,2.444,2.444,2.444,2.444s28.017,4.232,36.667,16.735c8.649,12.504,0.94,29.239-6.111,34.786
	c-7.051,5.547-17.111,9.214-19.556,15.795c-2.444,6.581,4.89,7.709,4.89,7.709s-0.094-6.769,1.504-9.871
	c1.599-3.103,4.137-2.069,4.137-2.069s0.846-2.444,3.384-4.042c2.539-1.599,4.7-0.47,4.7-0.47s5.735-7.897,12.034-2.162
	c6.299,5.735-1.504,14.385-0.376,14.478c1.128,0.094,7.897-4.513,6.393-10.341c-1.504-5.829-1.034-4.89-0.47-6.205
	c0.565-1.316,0.564-12.41,2.915-29.333c2.351-16.923,4.418-19.649,3.949-20.12c-0.47-0.47-47.478-7.991-50.581-13.82
	c-3.102-5.829,2.162-10.341,1.504-10.717C419.749,181.242,414.202,180.584,414.202,180.584L414.202,180.584z"/>
<path fill="#FFFFFF" d="M432.723,177.012c0,0-13.633,4.419-13.726,9.496c-0.094,5.077,3.008,4.982,3.76,4.513
	c0.752-0.47,7.709-3.949,7.709-3.949s2.256-9.871,3.573-8.931c1.316,0.94-2.068,7.145-1.223,7.615
	c0.846,0.47,38.923,9.025,38.923,9.025s2.726-0.282,5.359-0.188c2.632,0.093,4.606,1.88,4.606,1.88l1.035-1.504l-2.633-0.752
	c0,0,4.701-5.736,4.419-6.205C484.244,187.541,441.467,175.038,432.723,177.012L432.723,177.012z"/>
<path fill="#E8E8E8" d="M432.723,187.26c0,0-6.582,4.512-5.266,4.982c1.317,0.47,36.291,9.872,37.137,9.307
	c0.846-0.564,5.735-6.111,5.735-6.111S433.476,187.165,432.723,187.26L432.723,187.26z"/>
<path d="M424.074,182.746c-1.11-0.222-3.384,5.735-3.102,5.829C421.253,188.669,424.544,182.84,424.074,182.746L424.074,182.746z"/>
<path d="M427.458,180.961c-1.11-0.223-3.384,5.735-3.102,5.829C424.637,186.884,427.928,181.055,427.458,180.961L427.458,180.961z"
	/>
<path d="M430.278,179.738c-1.11-0.223-3.384,5.735-3.102,5.829C427.458,185.661,430.749,179.832,430.278,179.738L430.278,179.738z"
	/>
<path d="M437.33,188.952c-0.38-0.076-5.829,3.572-5.171,3.572C432.817,192.524,437.8,189.046,437.33,188.952L437.33,188.952z"/>
<path d="M441.561,189.798c-0.38-0.076-5.829,3.573-5.171,3.573S442.031,189.892,441.561,189.798L441.561,189.798z"/>
<path d="M445.133,190.644c-0.38-0.076-5.829,3.572-5.171,3.572C440.621,194.216,445.604,190.738,445.133,190.644L445.133,190.644z"
	/>
<path d="M448.423,191.302c-0.38-0.076-5.829,3.572-5.171,3.572C443.911,194.874,448.894,191.396,448.423,191.302L448.423,191.302z"
	/>
<path d="M450.869,192.149c-0.38-0.076-5.829,3.572-5.171,3.572C446.356,195.721,451.338,192.242,450.869,192.149L450.869,192.149z"
	/>
<path d="M453.971,193.276c-0.38-0.076-5.829,3.573-5.171,3.573C449.458,196.849,454.441,193.37,453.971,193.276L453.971,193.276z"/>
<path d="M457.449,194.028c-0.38-0.076-5.829,3.573-5.171,3.573C452.937,197.601,457.919,194.122,457.449,194.028L457.449,194.028z"
	/>
<path d="M460.27,194.405c-0.38-0.076-5.829,3.572-5.171,3.572C455.757,197.977,460.74,194.499,460.27,194.405L460.27,194.405z"/>
<path d="M463.843,195.439c-0.381-0.076-5.829,3.573-5.171,3.573C459.33,199.011,464.312,195.533,463.843,195.439L463.843,195.439z"
	/>
<path fill="#FFFFFF" d="M424.45,194.593c0,0,30.179,7.897,33.469,8.461c3.291,0.565,3.385,0.189,3.385,0.189l-36.478-9.684
	C424.826,193.558,423.416,193.277,424.45,194.593L424.45,194.593z"/>
<path fill="#FFFFFF" d="M487.816,193.465c0,0-7.709,2.162-2.82,5.547c4.889,3.384,12.692-2.163,11.752-2.633
	c-0.94-0.47-7.71,3.291-8.367,2.445c-0.658-0.846,3.948-3.103,3.008-3.384c-0.94-0.282-4.983,1.034-5.547,0.846
	C485.279,196.097,489.321,193.652,487.816,193.465L487.816,193.465z"/>
<path fill="#FFFFFF" d="M478.227,197.507c-4.554-1.375-11.752,1.975-11.094,4.419c0.658,2.444,7.333,0.094,7.333,2.726
	c0,2.632-3.573,2.162-3.573,2.162s-0.564,7.803-0.375,8.649c0.188,0.846,7.051-2.068,15.043-0.188
	c7.991,1.88,11.094,3.29,11.094,3.29s3.761-8.743,11.847-5.735c8.085,3.009,5.828,11.188,5.828,11.188s6.393-3.667,14.385,8.65
	c7.992,12.316,12.974,22.094,14.008,22.281c1.035,0.189,6.017-6.863,6.017-7.333c0-0.47-20.778-29.333-22.564-31.872
	C524.389,213.208,483.21,199.011,478.227,197.507L478.227,197.507z"/>
<path fill="#E8E8E8" d="M477.005,198.259c0,0-7.615,3.667-6.863,3.949c0.752,0.282,5.077-0.659,5.077,2.632
	c0,3.291-4.137,2.257-4.137,2.257v7.333c0,0,7.897-1.41,12.598-0.188c4.701,1.223,16.547-8.743,16.547-8.743
	S481.236,197.695,477.005,198.259L477.005,198.259z"/>
<path fill="#FFFFFF" d="M493.739,201.549l31.213,11.752c0,0,0.282-1.881,2.444-6.111c2.162-4.23,1.692-6.017,0.846-6.487
	c-0.846-0.47-17.299-5.547-17.487-5.171c-0.188,0.376-0.564,0.94-0.564,0.94s16.547,4.795,16.547,5.171c0,0.376,0,0.659,0,0.659
	l-17.675-4.983l-0.282,0.658l15.513,4.795l-0.188,0.564l-16.735-4.7l-1.128,0.658l17.769,5.641l-0.47,0.94l-19.649-6.205
	l-0.658,0.658l19.368,6.299l0.094,0.941l-22.282-7.24l-1.41,0.846l23.316,7.803l-0.657,0.846l-23.222-8.367L493.739,201.549
	L493.739,201.549z"/>
<path fill="#FFFFFF" d="M448.236,154.635l92.888,16.735c0,0,2.821-3.479,2.539-3.573c-0.282-0.094-87.999-15.982-89.973-16.265
	C451.714,151.251,448.236,154.635,448.236,154.635L448.236,154.635z"/>
<path fill="#FFFFFF" d="M443.817,157.08c0,0-4.795,18.991-4.325,18.991c0.47,0,3.667,0.658,3.667,0.658s3.479-17.862,3.291-19.273
	C446.262,156.046,444.851,155.952,443.817,157.08L443.817,157.08z"/>
<path fill="#FFFFFF" d="M448.33,157.738c0,0-4.795,18.991-4.325,18.991c0.47,0,3.667,0.658,3.667,0.658s3.479-17.863,3.291-19.273
	C450.774,156.704,449.364,156.61,448.33,157.738L448.33,157.738z"/>
<path fill="#FFFFFF" d="M453.181,157.585c0,0-5.375,19.866-4.848,19.866c0.527,0,4.11,0.688,4.11,0.688s3.899-18.686,3.688-20.16
	C455.921,156.504,454.341,156.406,453.181,157.585L453.181,157.585z"/>
<path fill="#FFFFFF" d="M457.648,158.536c0,0-5.117,20.128-4.615,20.128s3.913,0.697,3.913,0.697s3.713-18.932,3.512-20.427
	C460.257,157.44,458.751,157.341,457.648,158.536L457.648,158.536z"/>
<path fill="#FFFFFF" d="M462.715,159.036c0,0-5.624,20.858-5.072,20.858c0.552,0,4.3,0.722,4.3,0.722s4.08-19.618,3.86-21.167
	C465.583,157.9,463.929,157.797,462.715,159.036L462.715,159.036z"/>
<path fill="#FFFFFF" d="M467.389,160.034c0,0-5.354,21.134-4.829,21.134s4.094,0.732,4.094,0.732s3.885-19.878,3.675-21.447
	C470.119,158.883,468.544,158.779,467.389,160.034L467.389,160.034z"/>
<path fill="#FFFFFF" d="M472.72,160.749c0,0-5.873,21.355-5.297,21.355c0.576,0,4.491,0.739,4.491,0.739s4.26-20.086,4.03-21.671
	C475.714,159.586,473.986,159.48,472.72,160.749L472.72,160.749z"/>
<path fill="#FFFFFF" d="M477.601,161.771c0,0-5.592,21.636-5.044,21.636c0.548,0,4.276,0.75,4.276,0.75s4.057-20.351,3.837-21.957
	C480.451,160.592,478.806,160.486,477.601,161.771L477.601,161.771z"/>
<path fill="#FFFFFF" d="M483.326,162.938c0,0-6.164,22.016-5.56,22.016c0.605,0,4.714,0.763,4.714,0.763s4.471-20.708,4.23-22.342
	C486.468,161.74,484.655,161.631,483.326,162.938L483.326,162.938z"/>
<path fill="#FFFFFF" d="M488.449,163.992c0,0-5.869,22.306-5.293,22.306c0.575,0,4.488,0.773,4.488,0.773s4.258-20.981,4.027-22.638
	C491.44,162.777,489.714,162.667,488.449,163.992L488.449,163.992z"/>
<path fill="#FFFFFF" d="M493.95,165.664c0,0-6.164,22.016-5.56,22.016c0.605,0,4.714,0.763,4.714,0.763s4.471-20.708,4.23-22.343
	C497.092,164.466,495.279,164.357,493.95,165.664L493.95,165.664z"/>
<path fill="#FFFFFF" d="M499.072,166.718c0,0-5.868,22.306-5.293,22.306c0.576,0,4.488,0.773,4.488,0.773s4.257-20.981,4.027-22.638
	C502.064,165.504,500.337,165.394,499.072,166.718L499.072,166.718z"/>
<path fill="#FFFFFF" d="M504.291,167.125c0,0-6.164,23.256-5.559,23.256c0.604,0,4.713,0.806,4.713,0.806s4.472-21.875,4.23-23.601
	C507.434,165.859,505.621,165.743,504.291,167.125L504.291,167.125z"/>
<path fill="#FFFFFF" d="M509.414,168.239c0,0-5.869,23.563-5.293,23.563c0.576,0,4.488,0.817,4.488,0.817s4.258-22.164,4.028-23.913
	C512.406,166.955,510.679,166.838,509.414,168.239L509.414,168.239z"/>
<path fill="#FFFFFF" d="M515.104,168.965c0,0-6.164,24.58-5.56,24.58c0.605,0,4.713,0.852,4.713,0.852s4.472-23.12,4.231-24.944
	C518.246,167.627,516.433,167.505,515.104,168.965L515.104,168.965z"/>
<path fill="#FFFFFF" d="M520.226,170.142c0,0-5.868,24.904-5.293,24.904c0.576,0,4.488,0.862,4.488,0.862s4.257-23.424,4.027-25.274
	C523.217,168.786,521.492,168.662,520.226,170.142L520.226,170.142z"/>
<path fill="#FFFFFF" d="M525.728,171.168c0,0-6.164,25.572-5.56,25.572c0.605,0,4.713,0.886,4.713,0.886s4.472-24.053,4.23-25.951
	C528.869,169.776,527.057,169.649,525.728,171.168L525.728,171.168z"/>
<path fill="#FFFFFF" d="M530.85,172.393c0,0-5.868,25.909-5.293,25.909c0.576,0,4.488,0.898,4.488,0.898s4.257-24.37,4.027-26.294
	C533.841,170.981,532.115,170.853,530.85,172.393L530.85,172.393z"/>
<path fill="#FFFFFF" d="M485.748,188.293c0,0-1.504,2.069-1.034,2.069s18.521,4.795,19.086,4.513
	c0.564-0.282,0.658-1.599,0.658-1.599L485.748,188.293L485.748,188.293z"/>
<path fill="#FFFFFF" d="M509.628,214.806c0,0-7.803-3.573-10.436,2.632c-2.633,6.205,4.795,12.129,10.53,9.12
	c5.735-3.008,2.632-10.341,1.222-10.624c-1.41-0.282-4.325,4.325-6.769,7.051c-2.444,2.727-1.786-0.188,1.223-3.761
	C508.406,215.652,509.628,214.806,509.628,214.806L509.628,214.806z"/>
<path fill="#FFFFFF" d="M535.765,172.123c0,0-3.666,25.196-3.666,26.23c0,1.034,61.956,17.957,62.051,17.393
	c0.094-0.564-0.188-21.905-1.41-22.47c-1.223-0.564-10.718-3.76-17.77,0.941c-7.051,4.701-20.495,8.085-28.016,0.188
	c-7.522-7.897-5.266-21.53-6.018-21.53c-0.752,0-2.726,5.642-2.068,9.778c0.659,4.137-1.41,1.41-1.034-3.761
	c0.376-5.171,1.974-6.205,1.974-6.205L535.765,172.123L535.765,172.123z"/>
<path d="M571.773,198.541c-1.125-0.161-10.625,6.582-9.402,6.582C563.594,205.123,572.431,198.635,571.773,198.541L571.773,198.541z
	"/>
<path d="M576.756,199.106c-1.125-0.161-10.625,6.581-9.402,6.581C568.577,205.687,577.414,199.199,576.756,199.106L576.756,199.106z
	"/>
<path d="M587.38,202.396c-1.124-0.161-10.624,6.581-9.401,6.581C579.201,208.977,588.038,202.49,587.38,202.396L587.38,202.396z"/>
<path d="M590.765,203.148c-1.125-0.16-10.624,6.582-9.402,6.582C582.585,209.73,591.423,203.242,590.765,203.148L590.765,203.148z"
	/>
<path d="M592.551,204.747c-1.125-0.161-10.624,6.581-9.402,6.581C584.371,211.328,593.209,204.84,592.551,204.747L592.551,204.747z"
	/>
<path d="M559.944,200.515c-0.57-0.076-5.391,3.104-4.771,3.104C555.793,203.618,560.279,200.558,559.944,200.515L559.944,200.515z"
	/>
<path d="M555.244,200.232c-0.571-0.076-5.392,3.104-4.771,3.104S555.578,200.276,555.244,200.232L555.244,200.232z"/>
<path d="M548.287,196.566c-0.582-0.108-5.497,4.419-4.864,4.419C544.055,200.985,548.627,196.629,548.287,196.566L548.287,196.566z"
	/>
<path d="M544.714,195.72c-0.582-0.108-5.497,4.42-4.864,4.42C540.482,200.14,545.055,195.782,544.714,195.72L544.714,195.72z"/>
<path d="M541.706,194.31c-0.582-0.108-5.497,4.42-4.864,4.42C537.474,198.729,542.046,194.373,541.706,194.31L541.706,194.31z"/>
<path d="M539.731,192.994c-0.582-0.108-5.497,4.42-4.864,4.42C535.499,197.413,540.072,193.056,539.731,192.994L539.731,192.994z"/>
<path d="M538.791,189.985c-0.582-0.108-5.497,4.419-4.864,4.419C534.56,194.405,539.132,190.048,538.791,189.985L538.791,189.985z"
	/>
<path d="M538.697,186.883c-0.583-0.108-5.497,4.419-4.864,4.419C534.465,191.302,539.038,186.946,538.697,186.883L538.697,186.883z"
	/>
<path d="M538.697,184.626c-0.583-0.108-5.497,4.42-4.864,4.42C534.465,189.046,539.038,184.689,538.697,184.626L538.697,184.626z"/>
<path d="M546.107,168.926c0,0-3.479,2.632-1.504,3.197c1.974,0.564,11.658,2.068,11.658,2.068l0.752-2.726L546.107,168.926
	L546.107,168.926z"/>
<path fill="#E8E8E8" d="M543.286,175.225c0,0,1.504,9.683,3.197,10.53c1.692,0.846,26.324,7.427,27.452,7.239
	c1.128-0.188,12.505-3.949,12.316-4.513c-0.188-0.565-18.239-3.103-23.974-6.017c-5.735-2.914-6.017-7.051-6.017-7.051
	l-13.163-1.692L543.286,175.225L543.286,175.225z"/>
<path fill="#FFFFFF" d="M545.166,187.541c0,0,1.975,9.025,12.786,10.436c10.812,1.41,14.666-4.231,14.666-4.231
	S545.166,185.755,545.166,187.541L545.166,187.541z"/>
<path d="M564.158,194.452c0,1.272-1.157,2.304-2.586,2.304c-1.428,0-2.585-1.032-2.585-2.304c0-1.272,1.157-2.303,2.585-2.303
	C563,192.149,564.158,193.179,564.158,194.452L564.158,194.452z"/>
<path fill="#FFFFFF" d="M563.312,194.405c0,0.882-0.737,1.598-1.645,1.598c-0.909,0-1.646-0.715-1.646-1.598
	c0-0.883,0.737-1.598,1.646-1.598C562.575,192.807,563.312,193.522,563.312,194.405L563.312,194.405z"/>
<path fill="#FFFFFF" d="M559.739,172.781c0,0-4.607,4.982,5.077,9.496c9.684,4.513,19.838,4.794,21.624,3.948
	c1.786-0.846,2.82-2.35,2.162-3.29C587.944,181.995,559.739,172.781,559.739,172.781L559.739,172.781z"/>
<path fill="#FFFFFF" d="M561.243,172.405l28.581,9.59c0,0,0.188-4.701-3.949-7.333c-4.137-2.633-8.179-2.727-8.179-2.727
	s1.316-6.299-2.539-7.991c-3.855-1.692-6.864,4.607-7.145,6.017C567.73,171.371,561.243,170.995,561.243,172.405L561.243,172.405z"
	/>
<path d="M575.627,166.764c0,0.987-0.862,1.786-1.927,1.786c-1.064,0-1.927-0.8-1.927-1.786c0-0.987,0.863-1.786,1.927-1.786
	C574.765,164.978,575.627,165.777,575.627,166.764L575.627,166.764z"/>
<path fill="#FFFFFF" d="M574.594,166.576c0,0.467-0.4,0.846-0.893,0.846s-0.893-0.379-0.893-0.846c0-0.467,0.4-0.846,0.893-0.846
	S574.594,166.109,574.594,166.576L574.594,166.576z"/>
<path fill="#FFFFFF" d="M591.422,182.746l-3.479,6.863c0,0,7.522,0.847,7.522,1.786c0,0.94-6.205-1.034-6.205-0.47
	c0,0.564,4.231-0.658,5.735,5.171c1.504,5.829,0,8.367,1.222,8.18c1.223-0.188,0.659-7.239,1.505-7.239
	c0.846,0,0.564,20.589,1.222,22.469c0.658,1.881,4.324-7.709,10.154-11.564c5.829-3.854,8.462-9.119,6.957-12.316
	c-1.505-3.197-13.632,0.564-16.829-1.881C596.029,191.302,598.661,184.815,591.422,182.746L591.422,182.746z"/>
<path d="M612.764,199.482c0,2.181-1.62,3.948-3.619,3.948s-3.62-1.768-3.62-3.948c0-2.181,1.62-3.949,3.62-3.949
	S612.764,197.3,612.764,199.482L612.764,199.482z"/>
<path fill="#FFFFFF" d="M610.132,198.917c0,0.883-0.694,1.599-1.551,1.599c-0.857,0-1.552-0.716-1.552-1.599
	c0-0.883,0.694-1.598,1.552-1.598C609.437,197.319,610.132,198.035,610.132,198.917L610.132,198.917z"/>
<path fill="#ABABAB" d="M595.277,206.439c0,0,0.471,12.88,1.222,17.393c0.752,4.513,1.223,4.231,1.223,4.231
	s6.298-6.675,12.128-12.222c5.829-5.547,8.18-8.838,7.333-11.658c-0.846-2.821-2.35,0.941-7.991,5.923
	c-5.641,4.983-9.684,12.223-10.624,11.846c-0.94-0.376-0.752-15.324-1.034-16.359C597.251,204.558,595.277,206.439,595.277,206.439
	L595.277,206.439z"/>
<path fill="#FFFFFF" d="M589.26,217.345c0,0-55.187-15.419-56.974-15.325c-1.786,0.094-4.983,5.735-4.889,9.496
	c0.094,3.761,12.128,23.598,17.957,28.581c5.829,4.982,6.017,4.137,6.017,4.137s-18.615-22.094-21.06-29.051
	c-2.444-6.958,2.444-12.128,2.444-11.564c0,0.564-3.197,6.017-2.633,6.111c0.564,0.093,4.231-6.111,4.419-5.641
	c0.188,0.47-4.889,7.145-4.137,7.333c0.752,0.188,5.358-7.051,5.358-5.923c0,1.128-5.923,7.991-5.265,7.991
	c0.659,0,5.359-6.393,5.453-5.547c0.094,0.846-6.017,7.427-5.077,7.522c0.941,0.094,6.111-7.051,6.299-6.487
	c0.188,0.565-5.829,7.427-5.358,7.898c0.47,0.47,5.64-7.051,5.923-6.581c0.282,0.47-5.735,7.991-4.983,7.991
	c0.752,0,5.453-6.487,5.641-6.205c0.188,0.282-5.829,7.239-4.983,7.427c0.846,0.188,6.675-7.427,6.769-6.769
	c0.094,0.658-6.581,7.803-5.923,8.273c0.658,0.47,8.367-8.179,8.461-7.803c0.094,0.376-8.085,8.932-7.521,9.402
	c0.564,0.47,9.59-9.026,9.59-8.461c0,0.564-9.026,8.838-8.462,9.402c0.564,0.564,11.752-10.436,11.752-9.872
	c0,0.564-11.47,10.154-10.906,11c0.565,0.846,13.539-10.53,13.539-9.684c0,0.846-12.599,10.342-12.599,11.094
	c0,0.751,1.035,1.504,1.035,1.504s14.666-13.068,14.666-12.504c0,0.564-14.29,12.786-14.103,13.35
	c0.188,0.564,1.41,1.599,1.41,1.599s19.555-15.513,19.649-14.667c0.094,0.846-18.804,14.196-18.709,15.419s1.128,1.975,1.128,1.975
	s21.06-17.675,21.06-16.735c0,0.94-20.496,17.488-20.496,17.488l1.504,1.692c0,0,23.128-18.991,23.128-18.145
	c0,0.846-22.376,18.333-22.376,18.803c0,0.47,1.035,2.35,1.504,2.35c0.47,0,21.811-18.803,21.811-18.051
	c0,0.751-21.341,18.615-20.683,19.367c0.658,0.752,1.41,1.692,2.162,1.692c0.752,0,21.059-17.487,21.247-16.641
	c0.188,0.847-20.966,17.017-20.496,17.581c0.47,0.564-0.188,0.47,0.47,0.564c0.658,0.094,23.974-15.983,23.974-15.419
	c0,0.565-23.316,15.607-22.658,16.077c0.658,0.47,4.795-0.188,5.171-0.658c0.376-0.47,14.385-10.341,14.573-9.589
	c0.188,0.752-11.564,8.273-11,8.367c0.564,0.094,6.393-3.102,13.445-5.453c7.051-2.35,8.838-2.632,8.838-2.632
	s-0.001-4.795,1.88-9.308C588.132,219.601,589.26,217.345,589.26,217.345L589.26,217.345z"/>
<path fill="#ABABAB" d="M583.713,234.832c0,0-8.085,2.256-19.649,7.051c-11.564,4.795-13.915,4.419-13.633,4.795
	c0.283,0.376,3.573,4.7-2.162,12.316c-5.735,7.615-11.376,14.102-11.563,30.461c-0.188,16.359,0.376,72.674,0.376,72.674
	s-2.351,50.111-4.608,54.623c-2.256,4.513-2.444,9.214-7.239,9.496c-4.795,0.282-23.598-7.804-47.854-12.598
	c-24.256-4.795-37.513-0.941-37.513,1.128c0,2.068,30.649,7.333,56.692,12.316c26.043,4.982,29.992,7.897,37.889-4.137
	c7.897-12.034,8.085-39.205,7.897-52.837c-0.188-13.632-0.281-64.589,0.283-81.794c0.564-17.205,6.205-29.239,22-39.017
	c15.795-9.778,20.495-9.025,20.778-9.684C585.687,238.968,585.499,234.08,583.713,234.832L583.713,234.832z"/>
<path fill="#FFFFFF" d="M593.021,221.105c-3.962,0.188-2.257,16.265-6.299,19.367c-4.042,3.103-26.418,6.675-37.324,26.137
	c0,0-6.018,7.145-5.924,29.615c0.094,22.47,0.565,73.051,0.565,73.051s0,26.606-3.573,42.119
	c-3.573,15.513-11.94,20.214-11.846,20.778c0.094,0.565,3.949,1.128,4.137,1.692c0.188,0.565-9.214,0.846-17.205-0.564
	c-7.991-1.41-11.752-2.539-11.752-2.539v3.949c0,0,28.298,7.522,30.649,7.427c2.351-0.094,1.222-2.068,5.453-9.401
	c4.231-7.333,10.06-23.692,9.307-48.607c-0.752-24.914-2.444-62.52-2.444-62.52s-2.257-35.538,4.231-49.358
	c6.487-13.821,20.966-20.213,33.752-22.752c12.786-2.539,18.427-1.692,18.427-4.795c0-3.103-4.983-7.71-6.581-14.479
	C594.995,223.455,594.995,221.011,593.021,221.105L593.021,221.105z"/>
<path fill="#FFFFFF" d="M603.833,242.635c0,0,2.068,2.727-0.658,4.325c-2.726,1.598-5.077,1.41-5.077,2.068
	c0,0.658,13.821,5.453,15.701,8.743c1.88,3.291-5.735,11.94-4.513,12.034c1.222,0.093,8.65-8.932,8.18-14.008
	C616.995,250.72,605.055,242.635,603.833,242.635L603.833,242.635z"/>
<path d="M604.491,248.37c0,0,10.718,6.957,10.718,6.111C615.209,253.635,604.585,247.712,604.491,248.37L604.491,248.37z"/>
<path fill="#ABABAB" d="M607.687,268.301c0,0,5.641-6.769,5.641-8.743c0-1.974-15.795-11.657-32.906-3.855
	c-17.111,7.803-22.846,15.324-26.419,32.248c-3.573,16.923-1.88,41.273-2.35,41.273s-2.915-22.47,1.598-42.589
	c4.513-20.12,13.539-25.949,21.342-30.085c7.803-4.137,8.462-4.043,7.897-4.607c-0.564-0.565-23.88,4.042-30.837,22.94
	c-6.957,18.897-1.88,68.35-1.88,68.35s1.974,41.273,0.846,57.538c-1.128,16.265-10.436,37.324-13.445,40.897
	c-3.008,3.573-3.008,3.573-3.008,3.573s1.599-0.659,3.197,1.128c1.598,1.786-0.658,4.23,0.846,4.23
	c1.504,0,5.924-4.419,11.376-17.299c5.453-12.88,9.12-28.675,9.496-49.076c0.376-20.402-4.513-55.187-3.949-74.273
	c0.564-19.085,8.932-36.196,19.462-41.273C585.123,263.6,607.311,268.489,607.687,268.301L607.687,268.301z"/>
<polygon points="592.101,264.465 591.56,264.09 598.742,253.688 599.284,254.062 592.101,264.465 "/>
<polygon points="595.435,265.228 594.894,264.853 602.076,254.451 602.618,254.826 595.435,265.228 "/>
<polygon points="598.161,265.98 597.619,265.605 604.803,255.204 605.345,255.578 598.161,265.98 "/>
<polygon points="602.44,265.551 601.898,265.177 607.811,256.614 608.353,256.988 602.44,265.551 "/>
<polygon points="605.66,266.941 605.118,266.566 611.031,258.004 611.573,258.378 605.66,266.941 "/>
<polygon points="588.173,264.121 587.631,263.746 593.545,255.184 594.086,255.557 588.173,264.121 "/>
<polygon points="584.511,265.408 583.934,265.091 588.932,255.964 589.51,256.28 584.511,265.408 "/>
<polygon points="581.409,264.468 580.831,264.151 585.829,255.024 586.407,255.34 581.409,264.468 "/>
<polygon points="577.742,265.972 577.165,265.655 582.163,256.528 582.741,256.844 577.742,265.972 "/>
<polygon points="574.358,267.382 573.78,267.065 578.778,257.938 579.356,258.254 574.358,267.382 "/>
<polygon points="569.563,269.075 568.985,268.758 573.984,259.631 574.561,259.947 569.563,269.075 "/>
<polygon points="565.897,273.855 565.249,273.736 567.119,263.499 567.766,263.618 565.897,273.855 "/>
<polygon points="563.682,279.596 563.025,279.624 562.565,269.229 563.222,269.2 563.682,279.596 "/>
<polygon points="560.204,285.237 559.546,285.266 559.087,274.87 559.744,274.841 560.204,285.237 "/>
<polygon points="557.759,291.912 557.101,291.941 556.642,281.545 557.299,281.516 557.759,291.912 "/>
<polygon points="555.597,300.562 554.939,300.59 554.479,290.194 555.137,290.165 555.597,300.562 "/>
<polygon points="553.459,308.636 552.828,308.824 549.124,296.43 549.755,296.241 553.459,308.636 "/>
<polygon points="554.01,317.182 553.378,317.37 549.674,304.976 550.305,304.787 554.01,317.182 "/>
<polygon points="554.87,325.073 554.255,325.311 549.566,313.255 550.179,313.016 554.87,325.073 "/>
<polygon points="554.775,332.406 554.161,332.645 549.472,320.588 550.085,320.35 554.775,332.406 "/>
<polygon points="555.246,340.491 554.632,340.73 549.942,328.673 550.556,328.435 555.246,340.491 "/>
<polygon points="556.71,347.674 556.136,347.997 549.794,336.722 550.367,336.399 556.71,347.674 "/>
<polygon points="557.932,357.076 557.358,357.398 551.016,346.123 551.589,345.8 557.932,357.076 "/>
<polygon points="558.778,364.973 558.204,365.296 551.862,354.021 552.435,353.698 558.778,364.973 "/>
<polygon points="558.778,371.366 558.204,371.689 551.862,360.414 552.435,360.091 558.778,371.366 "/>
<polygon points="558.684,377.007 558.11,377.33 551.768,366.055 552.341,365.731 558.684,377.007 "/>
<polygon points="558.496,382.366 557.922,382.689 551.58,371.413 552.154,371.091 558.496,382.366 "/>
<polygon points="558.873,387.913 558.298,388.236 551.956,376.961 552.529,376.638 558.873,387.913 "/>
<polygon points="558.967,394.87 558.393,395.193 552.05,383.918 552.623,383.595 558.967,394.87 "/>
<polygon points="558.12,400.793 557.546,401.116 551.204,389.841 551.777,389.518 558.12,400.793 "/>
<polygon points="556.62,403.465 556.046,403.787 551.11,395.012 551.683,394.689 556.62,403.465 "/>
<polygon points="556.289,410.167 555.715,410.49 550.779,401.714 551.352,401.391 556.289,410.167 "/>
<polygon points="556.007,414.68 555.433,415.003 550.497,406.227 551.07,405.904 556.007,414.68 "/>
<polygon points="553.58,419.856 552.952,420.054 549.916,410.453 550.543,410.255 553.58,419.856 "/>
<polygon points="551.887,425.591 551.259,425.789 548.223,416.189 548.851,415.99 551.887,425.591 "/>
<polygon points="550.477,430.291 549.849,430.49 546.813,420.89 547.441,420.69 550.477,430.291 "/>
<polygon points="548.785,435.274 548.157,435.472 545.121,425.872 545.748,425.673 548.785,435.274 "/>
<polygon points="546.904,439.975 546.276,440.173 543.24,430.573 543.868,430.374 546.904,439.975 "/>
<polygon points="545.118,444.3 544.49,444.498 541.454,434.897 542.082,434.699 545.118,444.3 "/>
<polygon points="542.57,445.48 541.942,445.679 539.574,438.188 540.201,437.99 542.57,445.48 "/>
<polygon points="540.742,448.321 540.114,448.52 537.745,441.029 538.373,440.831 540.742,448.321 "/>
<path fill="#FFFFFF" d="M535.859,450.504l-7.333-0.094c0,0,2.821,8.649-3.384,8.931c-6.205,0.283-5.453-7.051-5.453-8.931
	c0-1.88-7.709,0.376-8.743,0.752c-1.034,0.376,1.786,2.915,2.444,7.427c0.658,4.513,5.547,5.265,12.786,4.889
	c7.239-0.376,6.393-2.915,7.239-6.957C534.261,452.479,538.774,451.257,535.859,450.504L535.859,450.504z"/>
<path fill="#FFFFFF" d="M525.988,455.581c0,1.195-1.053,2.162-2.351,2.162c-1.298,0-2.35-0.968-2.35-2.162
	c0-1.194,1.052-2.162,2.35-2.162C524.935,453.419,525.988,454.387,525.988,455.581L525.988,455.581z"/>
<path fill="#ABABAB" d="M532.944,443.547c0,0-89.691-10.906-108.212-15.231c-18.522-4.325-21.154-4.982-20.872-2.726
	c0.282,2.257,4.795,13.727,27.453,19.931c22.658,6.205,76.058,9.308,76.058,9.308s3.102-4.607,1.974-4.795
	c-1.128-0.188-10.153,3.479-10.059,2.726c0.094-0.752,10.53-3.572,8.743-4.324c-1.786-0.752-9.778,3.573-9.684,2.444
	s9.308-3.949,7.427-4.607c-1.881-0.658-19.273,6.863-18.897,5.358c0.376-1.504,12.41-5.64,11-6.298
	c-1.41-0.658-15.795,6.675-15.983,5.547c-0.188-1.128,15.325-6.582,13.539-7.239c-1.786-0.658-16.735,6.957-17.488,5.829
	c-0.752-1.128,13.257-6.393,11.47-6.863c-1.786-0.47-8.462,0.188-10.436,0.188c-1.975,0-18.522,7.239-18.24,6.205
	c0.283-1.034,15.514-6.581,13.445-7.333c-2.068-0.752-17.205,7.334-17.769,6.393c-0.564-0.94,14.761-6.769,13.35-7.333
	c-1.41-0.564-18.146,7.333-18.239,6.393c-0.094-0.94,16.641-7.615,14.008-7.897c-2.633-0.282-19.837,8.744-19.744,7.709
	c0.094-1.034,18.145-8.179,14.666-8.462c-3.479-0.282-20.777,8.743-21.153,7.334c-0.376-1.411,20.026-7.616,17.111-8.462
	c-2.915-0.846-27.828,5.453-28.205,4.136c-0.377-1.316,16.546-3.854,15.983-4.888c-0.564-1.034-18.897,2.444-18.897,1.128
	c0-1.316,11.281-0.846,11.281-2.068c0-1.222-13.726-2.539-13.068-3.102c0.658-0.564,23.128,2.915,46.726,5.923
	c23.598,3.008,60.076,8.556,60.828,8.556C531.816,447.026,532.944,443.547,532.944,443.547L532.944,443.547z"/>
<path fill="#ABABAB" d="M508.876,457.743c0,0,0.565,6.769,9.025,8.932c8.462,2.162,12.128-2.726,12.128-2.726
	s-7.897,1.504-13.914-0.565c-6.017-2.068-3.855-6.299-4.795-8.462C510.381,452.761,508.783,455.299,508.876,457.743L508.876,457.743
	z"/>
<path fill="#FFFFFF" d="M500.885,429.256c0,0-41.743-6.769-57.726-10.247c-15.983-3.479-23.41-5.547-24.068-4.983
	c-0.659,0.564-4.231,5.641-3.009,7.709c1.222,2.068,30.367,7.521,55.939,11.282C497.594,436.778,506.15,437.906,500.885,429.256
	L500.885,429.256z"/>
<path fill="#FFFFFF" d="M416.271,413.462c0,0-4.325-1.692-7.709,1.881c-3.385,3.572-3.855,7.051-3.573,7.145
	c0.282,0.094,8.273,1.504,8.273,1.504l1.975-6.769c0,0-1.975,0.376-4.137,2.821c-2.162,2.444-2.914,1.41,0.659-1.316
	C415.33,416,415.612,416,415.612,416l0.188-1.316c0,0-4.701,0.376-7.615,4.325c-2.915,3.949-1.41-1.128,2.256-3.666
	C414.108,412.804,416.458,414.026,416.271,413.462L416.271,413.462z"/>
<path fill="#FFFFFF" d="M425.86,394.095c0,0-6.769,9.683-5.735,13.162c1.035,3.479,15.513,6.863,15.889,6.769
	c0.376-0.094-3.29-6.675-1.88-17.863c1.41-11.188,11.846-53.871,14.384-67.316c2.538-13.444,7.333-47.948,7.333-47.948
	s-1.599-1.881-2.351-3.573c-0.752-1.692-1.034-2.632-1.034-2.632l-10.906-0.376c0,0,7.24,8.555,6.675,27.076
	c-0.564,18.522-10.906,58.854-10.906,58.854s-5.923,21.812-8.367,26.983C426.518,392.403,425.86,394.095,425.86,394.095
	L425.86,394.095z"/>
<path fill="#ABABAB" d="M436.014,265.669c0,0-3.666,1.034-3.29,6.111c0.375,5.077,8.273,5.077,8.273,5.077s-2.538-2.727-3.573-6.206
	C436.39,267.173,436.578,266.139,436.014,265.669L436.014,265.669z"/>
<path fill="#FFFFFF" d="M443.911,260.874c0,0-7.898,1.223-5.829,8.18c2.068,6.957,15.137,3.29,15.137,2.726
	c0-0.564-2.915-0.658-2.915-0.658s-4.795,1.88-5.923-1.034c-1.128-2.915,0.941-3.573,0.941-3.573S443.911,264.541,443.911,260.874
	L443.911,260.874z"/>
<path fill="#FFFFFF" d="M445.227,267.737c-1.647,0.659,0.658,3.761,1.504,3.29C447.578,270.558,446.638,267.173,445.227,267.737
	L445.227,267.737z"/>
<path fill="#FFFFFF" d="M458.86,263.412c0,3.738-2.968,6.769-6.628,6.769s-6.628-3.031-6.628-6.769c0-3.739,2.968-6.769,6.628-6.769
	S458.86,259.674,458.86,263.412L458.86,263.412z"/>
<path d="M450.492,268.583c0,0,1.692-1.598,4.042-2.914c2.351-1.317,3.384-1.128,3.384-1.41c0-0.282-2.068-0.188-4.795,1.41
	C450.398,267.267,449.834,268.489,450.492,268.583L450.492,268.583z"/>
<path d="M449.458,266.233c0,0,1.692-1.598,4.042-2.915c2.351-1.316,3.384-1.128,3.384-1.41c0-0.282-2.068-0.188-4.795,1.41
	C449.364,264.917,448.8,266.139,449.458,266.233L449.458,266.233z"/>
<path d="M448.612,263.883c0,0,1.692-1.599,4.042-2.915c2.351-1.317,3.385-1.128,3.385-1.41c0-0.282-2.069-0.188-4.795,1.41
	C448.518,262.566,447.954,263.788,448.612,263.883L448.612,263.883z"/>
<path d="M447.578,262.472c0,0,1.692-1.598,4.042-2.914c2.351-1.316,3.385-1.128,3.385-1.41c0-0.282-2.069-0.188-4.795,1.41
	C447.483,261.156,446.92,262.378,447.578,262.472L447.578,262.472z"/>
<path d="M447.592,260.404c0,0,1.154-1.159,2.755-2.114c1.602-0.955,2.307-0.818,2.307-1.023c0-0.204-1.41-0.136-3.268,1.023
	C447.528,259.449,447.144,260.336,447.592,260.404L447.592,260.404z"/>
<path d="M452.481,269.711c0,0,1.154-1.159,2.755-2.113c1.602-0.955,2.307-0.819,2.307-1.023c0-0.204-1.41-0.136-3.268,1.023
	C452.417,268.756,452.032,269.643,452.481,269.711L452.481,269.711z"/>
<path fill="#FFFFFF" d="M470.236,218.849c0,0.282-5.36,30.273-5.171,31.871c0.188,1.598,6.017,5.265,5.265,14.855
	c-0.752,9.59-9.872,10.341-9.872,10.341l-10.06,55.94c0,0-13.162,69.102-13.162,70.418c0,1.316,3.196-0.846,3.196-0.846
	l10.718-61.769l11.47-61.957c0,0,9.308-1.034,9.308-13.538c0-12.504-4.137-13.256-4.137-13.256l5.266-33.47
	C473.056,217.438,470.236,216.874,470.236,218.849L470.236,218.849z"/>
<path fill="#FFFFFF" d="M474.466,217.438l-5.171,31.59c0,0,5.171,6.957,2.915,18.991c-2.257,12.034-8.18,10.812-8.18,10.812
	l-22,121.657c0,0,21.06-4.513,46.632,2.162c25.572,6.675,39.768,14.479,39.768,14.479s2.633-8.931,3.009-36.29
	c0.376-27.359-0.941-94.205,2.068-105.11c3.008-10.906,7.897-16.453,7.897-16.453l-15.701-28.675l-14.103-2.915
	c0,0-4.795,2.162-9.496,0.658c-4.7-1.505-4.7-6.111-4.7-6.111L474.466,217.438L474.466,217.438z"/>
<path fill="#FFFFFF" d="M541.5,260.779c0,0-7.333,7.333-7.991,24.727c-0.658,17.393-0.941,65.247-0.941,65.247
	s-0.281,45.786-1.504,55.093c-1.222,9.308-2.068,11.376-2.068,11.376l2.068,1.128c0,0,3.103-10.249,3.479-26.795
	c0.376-16.547,1.41-53.213,1.41-53.213s-0.941-44.751,0.658-57.726c1.598-12.974,7.615-18.239,7.615-18.239L541.5,260.779
	L541.5,260.779z"/>
<path fill="#FFFFFF" d="M438.646,411.864c0,0,19.085-4.982,46.068,0.47c26.983,5.453,42.214,13.632,42.307,12.692
	c0.094-0.941-6.299-3.761-12.692-6.017c-6.393-2.257-9.025-2.257-8.461-2.539c0.564-0.282,6.957,0.752,14.008,3.855
	c7.051,3.102,6.675,3.29,7.333,3.102c0.658-0.188-2.82-2.726-9.684-5.547c-6.863-2.82-8.18-2.256-7.615-2.82
	c0.564-0.564,5.359,0.283,11.752,3.667c6.393,3.384,5.922,3.761,6.581,3.666c0.658-0.094-0.941-2.539-7.616-5.453
	c-6.675-2.915-9.684-2.726-8.837-3.291c0.846-0.564,2.35-0.47,10.341,3.479c7.991,3.949,7.333,4.042,7.521,3.479
	c0.188-0.564-8.367-6.205-20.308-10.623c-11.939-4.419-32.529-9.684-49.358-9.684c-16.829,0-24.162,4.513-24.162,5.265
	c0,0.752,5.735-2.633,12.786-3.29c7.051-0.659-3.008,0.752-7.803,2.35c-4.795,1.598-4.889,2.539-4.607,2.915
	c0.282,0.376,3.666-2.444,11.94-3.949c8.273-1.504-0.565,0.376-5.265,2.256c-4.701,1.881-6.582,2.632-6.111,3.291
	c0.47,0.658,3.479-2.444,13.632-3.761c10.154-1.317-0.658,0.47-6.017,2.35c-5.359,1.881-6.017,2.35-5.171,2.35
	c0.846,0,18.145-4.513,39.581-0.752c18.025,3.163,18.991,5.077,18.051,5.077c-0.94,0-12.504-4.607-28.205-5.453
	C452.937,408.103,438.458,411.393,438.646,411.864L438.646,411.864z"/>
<polygon points="482.422,259.94 481.45,260.294 472.34,235.295 473.311,234.941 482.422,259.94 "/>
<polygon points="481.294,268.495 480.322,268.85 471.211,243.851 472.183,243.497 481.294,268.495 "/>
<polygon points="483.832,255.428 482.861,255.782 473.75,230.783 474.722,230.429 483.832,255.428 "/>
<polygon points="484.397,250.35 483.425,250.704 474.314,225.706 475.286,225.351 484.397,250.35 "/>
<polygon points="488.909,245.085 487.938,245.439 478.827,220.441 479.799,220.086 488.909,245.085 "/>
<polygon points="493.61,245.556 492.638,245.91 483.528,220.911 484.499,220.557 493.61,245.556 "/>
<polygon points="496.901,246.025 495.929,246.379 486.818,221.381 487.79,221.027 496.901,246.025 "/>
<polygon points="503.011,247.905 502.04,248.259 492.929,223.261 493.901,222.907 503.011,247.905 "/>
<polygon points="510.815,253.359 509.843,253.713 500.733,228.714 501.704,228.36 510.815,253.359 "/>
<polygon points="515.986,256.179 515.014,256.533 505.903,231.534 506.875,231.181 515.986,256.179 "/>
<polygon points="519.183,254.581 518.211,254.934 509.1,229.936 510.072,229.582 519.183,254.581 "/>
<polygon points="523.319,254.581 522.347,254.935 513.237,229.936 514.208,229.582 523.319,254.581 "/>
<polygon points="529.995,257.119 529.022,257.473 519.912,232.474 520.883,232.121 529.995,257.119 "/>
<polygon points="534.037,257.307 533.065,257.662 523.954,232.663 524.926,232.309 534.037,257.307 "/>
<polygon points="533.003,273.573 532.031,273.927 522.92,248.928 523.892,248.574 533.003,273.573 "/>
<polygon points="530.934,284.76 529.962,285.115 520.852,260.116 521.823,259.762 530.934,284.76 "/>
<polygon points="531.78,297.452 530.809,297.806 521.698,272.807 522.67,272.454 531.78,297.452 "/>
<polygon points="531.122,305.256 530.151,305.61 521.04,280.611 522.012,280.257 531.122,305.256 "/>
<polygon points="530.088,313.529 529.117,313.883 520.006,288.884 520.978,288.531 530.088,313.529 "/>
<polygon points="528.114,329.888 527.142,330.242 518.032,305.243 519.003,304.89 528.114,329.888 "/>
<polygon points="524.541,331.956 523.57,332.31 514.458,307.312 515.431,306.957 524.541,331.956 "/>
<polygon points="531.266,357.973 530.312,358.372 509.354,308.164 510.309,307.766 531.266,357.973 "/>
<polygon points="530.174,365.41 529.219,365.808 508.262,315.601 509.216,315.203 530.174,365.41 "/>
<polygon points="530.174,375.281 529.22,375.68 508.262,325.472 509.216,325.075 530.174,375.281 "/>
<polygon points="526.789,384.683 525.835,385.082 504.877,334.874 505.832,334.476 526.789,384.683 "/>
<polygon points="525.192,391.358 524.237,391.757 503.28,341.55 504.234,341.151 525.192,391.358 "/>
<polygon points="528.736,409.216 527.781,409.615 499.904,342.83 500.858,342.433 528.736,409.216 "/>
<polygon points="526.019,413.749 525.064,414.147 497.187,347.363 498.141,346.965 526.019,413.749 "/>
<polygon points="522.258,412.527 521.303,412.925 493.426,346.141 494.381,345.743 522.258,412.527 "/>
<polygon points="515.677,409.8 514.722,410.199 486.845,343.414 487.8,343.016 515.677,409.8 "/>
<polygon points="507.685,407.732 506.731,408.131 478.854,341.346 479.808,340.947 507.685,407.732 "/>
<polygon points="500.069,405.663 499.115,406.063 471.238,339.278 472.193,338.88 500.069,405.663 "/>
<polygon points="494.885,402.136 493.93,402.535 467.29,338.713 468.244,338.316 494.885,402.136 "/>
<polygon points="468.684,374.169 467.73,374.568 453.618,340.759 454.572,340.361 468.684,374.169 "/>
<polygon points="467.709,382.03 466.755,382.429 452.643,348.62 453.597,348.223 467.709,382.03 "/>
<polygon points="466.957,388.141 466.003,388.54 451.89,354.731 452.845,354.333 466.957,388.141 "/>
<polygon points="466.393,393.03 465.439,393.429 451.327,359.62 452.281,359.222 466.393,393.03 "/>
<polygon points="465.359,397.355 464.405,397.754 450.292,363.945 451.247,363.547 465.359,397.355 "/>
<polygon points="460.982,394.329 460.028,394.728 448.788,367.799 449.742,367.401 460.982,394.329 "/>
<polygon points="455.457,390.297 454.503,390.696 447.874,374.812 448.828,374.414 455.457,390.297 "/>
<polygon points="454.003,395.726 453.048,396.124 446.418,380.241 447.373,379.843 454.003,395.726 "/>
<polygon points="450.213,395.237 449.259,395.635 445.384,386.352 446.338,385.954 450.213,395.237 "/>
<polygon points="449.052,398.255 448.098,398.653 444.223,389.37 445.177,388.972 449.052,398.255 "/>
<polygon points="473.587,371.635 472.789,371.968 456.4,332.708 457.199,332.374 473.587,371.635 "/>
<polygon points="478.453,339.191 477.654,339.524 461.266,300.264 462.065,299.931 478.453,339.191 "/>
<polygon points="480.521,333.457 479.723,333.79 463.334,294.53 464.133,294.196 480.521,333.457 "/>
<polygon points="487.384,333.55 486.586,333.884 470.198,294.623 470.997,294.29 487.384,333.55 "/>
<polygon points="486.632,317.944 485.834,318.277 469.446,279.017 470.244,278.683 486.632,317.944 "/>
<polygon points="492.433,270.85 493.02,271.487 461.765,300.349 461.178,299.714 492.433,270.85 "/>
<polygon points="490.929,282.885 491.516,283.521 460.261,312.384 459.674,311.747 490.929,282.885 "/>
<polygon points="489.424,289.748 490.011,290.384 458.756,319.247 458.169,318.611 489.424,289.748 "/>
<polygon points="489.425,294.731 490.011,295.366 458.757,324.23 458.169,323.594 489.425,294.731 "/>
<polygon points="489.236,300.936 489.823,301.572 458.568,330.434 457.981,329.799 489.236,300.936 "/>
<polygon points="489.237,306.389 489.823,307.025 458.569,335.888 457.982,335.252 489.237,306.389 "/>
<polygon points="503.671,314.483 504.231,315.143 451.106,360.163 450.547,359.502 503.671,314.483 "/>
<polygon points="531.782,295.303 532.342,295.964 511.284,313.809 510.724,313.149 531.782,295.303 "/>
<polygon points="531.5,283.363 532.06,284.024 511.002,301.869 510.443,301.209 531.5,283.363 "/>
<polygon points="531.782,277.816 532.342,278.477 511.284,296.323 510.724,295.662 531.782,277.816 "/>
<polygon points="532.44,273.585 533,274.246 511.942,292.092 511.382,291.431 532.44,273.585 "/>
<polygon points="535.167,265.594 535.726,266.255 514.668,284.1 514.109,283.44 535.167,265.594 "/>
<polygon points="538.27,258.449 538.829,259.11 517.771,276.955 517.212,276.295 538.27,258.449 "/>
<polygon points="520.971,230.338 521.53,230.998 509.312,241.353 508.753,240.692 520.971,230.338 "/>
<polygon points="515.8,228.74 516.36,229.4 504.142,239.755 503.582,239.094 515.8,228.74 "/>
<polygon points="510.629,228.74 511.189,229.4 498.971,239.755 498.412,239.094 510.629,228.74 "/>
<polygon points="504.706,228.458 505.265,229.118 493.048,239.472 492.489,238.812 504.706,228.458 "/>
<polygon points="496.432,227.235 496.992,227.896 484.775,238.25 484.215,237.59 496.432,227.235 "/>
<polygon points="495.963,223.945 496.522,224.606 484.304,234.959 483.745,234.299 495.963,223.945 "/>
<polygon points="492.672,222.723 493.232,223.383 481.014,233.738 480.454,233.077 492.672,222.723 "/>
<polygon points="488.817,221.125 489.376,221.785 477.159,232.139 476.6,231.479 488.817,221.125 "/>
<polygon points="484.775,220.466 485.334,221.127 473.117,231.481 472.557,230.82 484.775,220.466 "/>
<polygon points="481.296,219.526 481.855,220.187 476.443,224.773 475.884,224.113 481.296,219.526 "/>
<polygon points="478.946,218.774 479.505,219.434 474.093,224.021 473.533,223.361 478.946,218.774 "/>
<polygon points="529.996,302.825 530.555,303.485 509.497,321.33 508.938,320.67 529.996,302.825 "/>
<polygon points="530.09,306.679 530.649,307.34 509.592,325.185 509.032,324.524 530.09,306.679 "/>
<polygon points="530.372,312.978 530.931,313.638 509.874,331.484 509.314,330.823 530.372,312.978 "/>
<polygon points="530.372,318.713 530.931,319.374 509.874,337.219 509.314,336.559 530.372,318.713 "/>
<polygon points="530.748,324.354 531.307,325.015 510.25,342.86 509.69,342.2 530.748,324.354 "/>
<polygon points="530.278,329.713 530.837,330.374 509.779,348.219 509.22,347.559 530.278,329.713 "/>
<polygon points="531.876,335.354 532.436,336.015 511.378,353.86 510.819,353.2 531.876,335.354 "/>
<polygon points="532.065,341.277 532.623,341.938 511.566,359.783 511.006,359.123 532.065,341.277 "/>
<polygon points="530.936,345.884 531.496,346.545 510.438,364.39 509.879,363.729 530.936,345.884 "/>
<polygon points="531.031,352.277 531.59,352.937 510.532,370.783 509.973,370.122 531.031,352.277 "/>
<polygon points="502.355,321.722 502.915,322.382 449.79,367.402 449.23,366.742 502.355,321.722 "/>
<polygon points="502.355,327.363 502.915,328.024 449.79,373.044 449.23,372.383 502.355,327.363 "/>
<polygon points="502.637,332.721 503.196,333.382 450.072,378.402 449.512,377.742 502.637,332.721 "/>
<polygon points="497.929,345.494 498.488,346.154 445.364,391.174 444.804,390.514 497.929,345.494 "/>
<polygon points="499.072,349.128 499.631,349.788 446.506,394.808 445.947,394.148 499.072,349.128 "/>
<polygon points="507.142,346.716 507.701,347.377 454.577,392.397 454.017,391.736 507.142,346.716 "/>
<polygon points="509.211,353.486 509.77,354.146 456.646,399.166 456.086,398.506 509.211,353.486 "/>
<polygon points="516.638,351.511 517.197,352.171 464.072,397.191 463.513,396.531 516.638,351.511 "/>
<polygon points="527.168,352.263 527.727,352.924 474.602,397.944 474.043,397.283 527.168,352.263 "/>
<polygon points="522.105,363.382 522.664,364.042 480.995,399.354 480.436,398.693 522.105,363.382 "/>
<polygon points="527.739,363.886 528.299,364.547 486.629,399.859 486.07,399.198 527.739,363.886 "/>
<polygon points="528.879,369.884 529.438,370.544 491.518,402.68 490.958,402.019 528.879,369.884 "/>
<polygon points="523.278,379.168 523.837,379.828 496.307,403.159 495.748,402.499 523.278,379.168 "/>
<polygon points="528.661,380.595 529.22,381.256 501.689,404.586 501.13,403.926 528.661,380.595 "/>
<polygon points="525.963,389.057 526.522,389.718 507.425,405.902 506.865,405.242 525.963,389.057 "/>
<polygon points="528.111,390.467 528.671,391.127 509.572,407.312 509.013,406.652 528.111,390.467 "/>
<polygon points="530.838,392.159 531.398,392.819 512.299,409.004 511.739,408.344 530.838,392.159 "/>
<polygon points="526.364,399.846 526.924,400.506 516.342,409.475 515.782,408.814 526.364,399.846 "/>
<polygon points="529.213,401.596 529.772,402.257 519.189,411.225 518.63,410.565 529.213,401.596 "/>
<polygon points="528.175,407.557 528.735,408.218 522.856,413.2 522.296,412.54 528.175,407.557 "/>
<path d="M496.09,274.788c-11.918-0.733-20.026,4.137-18.991,16.923c1.034,12.787,11.094,16.359,24.444,16.923
	c13.35,0.564,19.273-10.06,16.923-19.555C516.115,279.583,508.312,275.54,496.09,274.788L496.09,274.788z"/>
<path fill="#FFFFFF" d="M513.389,281.746c0,0-11.47-7.051-22.845-5.735c-11.376,1.316-14.384,13.914-11,21.624
	c3.384,7.71,12.88,9.308,13.068,8.743c0.188-0.564-11.846-5.358-11.376-16.546c0.47-11.188,12.316-12.41,19.931-11.094
	C508.782,280.053,513.389,282.498,513.389,281.746L513.389,281.746z"/>
<path fill="#FFFFFF" d="M499.569,279.677c0,0-12.41-1.317-15.795,6.393c-3.384,7.709,0.376,11.376,0.376,11.376L499.569,279.677
	L499.569,279.677z"/>
<path fill="#FFFFFF" d="M500.979,279.959c0.094,0.282-15.701,18.239-15.607,18.897c0.094,0.658,3.009,3.949,3.479,3.761
	c0.47-0.188,22.094-19.273,22-19.555c-0.094-0.282-3.855-2.633-4.419-2.445c-0.564,0.188-14.479,13.538-14.855,13.068
	c-0.376-0.47,13.445-12.88,12.974-13.068C504.082,280.429,500.979,279.959,500.979,279.959L500.979,279.959z"/>
<polygon fill="#FFFFFF" points="511.697,283.626 489.791,303.463 492.423,304.874 514.141,285.036 511.697,283.626 "/>
<path fill="#FFFFFF" d="M514.705,286.446l-21.529,18.804c0,0,11.846,4.795,19.931-1.223c8.085-6.017,3.949-15.325,3.949-15.325
	s-16.735,15.983-17.017,15.983c-0.282,0-0.846-0.282-0.846-0.282l17.488-15.795C516.68,288.609,515.269,286.164,514.705,286.446
	L514.705,286.446z"/>
<polygon points="421.535,398.636 420.272,398.771 418.574,382.926 419.836,382.791 421.535,398.636 "/>
<polygon points="418.362,408.155 417.1,408.29 415.401,392.445 416.664,392.31 418.362,408.155 "/>
<polygon points="423.861,392.501 422.599,392.636 420.901,376.791 422.163,376.656 423.861,392.501 "/>
<polygon points="425.413,385.167 424.151,385.303 422.452,369.458 423.714,369.323 425.413,385.167 "/>
<polygon points="427.995,383.975 426.733,384.109 424.286,361.278 425.548,361.143 427.995,383.975 "/>
<polygon points="429.595,373.43 428.333,373.565 425.886,350.734 427.148,350.599 429.595,373.43 "/>
<polygon points="431.992,366.802 430.73,366.937 428.283,344.106 429.545,343.971 431.992,366.802 "/>
<polygon points="433.825,357.636 432.564,357.771 430.117,334.939 431.378,334.805 433.825,357.636 "/>
<polygon points="436.082,348.469 434.82,348.604 432.373,325.773 433.634,325.638 436.082,348.469 "/>
<polygon points="438.903,338.739 437.641,338.873 435.193,316.042 436.455,315.907 438.903,338.739 "/>
<polygon points="441.018,329.854 439.755,329.989 437.308,307.157 438.57,307.022 441.018,329.854 "/>
<polygon points="443.133,319.418 441.871,319.553 439.424,296.722 440.686,296.587 443.133,319.418 "/>
<polygon points="445.249,307.572 443.986,307.707 441.539,284.876 442.801,284.741 445.249,307.572 "/>
<polygon points="430.093,287.323 429.109,287.84 425.929,281.788 426.913,281.271 430.093,287.323 "/>
<polygon points="426.437,286.581 425.453,287.098 422.274,281.046 423.257,280.529 426.437,286.581 "/>
<polygon points="423.758,286.581 422.774,287.098 419.594,281.046 420.578,280.529 423.758,286.581 "/>
<polygon points="420.091,286.44 419.107,286.958 415.927,280.905 416.911,280.388 420.091,286.44 "/>
<polygon points="416.143,286.44 415.159,286.958 411.979,280.905 412.963,280.388 416.143,286.44 "/>
<polygon points="411.207,286.44 410.223,286.958 407.043,280.905 408.027,280.388 411.207,286.44 "/>
<polygon points="407.258,286.299 406.274,286.816 403.095,280.764 404.078,280.247 407.258,286.299 "/>
<polygon points="403.309,286.299 402.326,286.816 399.146,280.764 400.129,280.247 403.309,286.299 "/>
<polygon points="399.22,286.299 398.236,286.816 395.056,280.764 396.04,280.247 399.22,286.299 "/>
<polygon points="396.117,286.299 395.134,286.816 391.954,280.764 392.938,280.247 396.117,286.299 "/>
<polygon points="392.027,286.299 391.043,286.816 387.864,280.764 388.847,280.247 392.027,286.299 "/>
<polygon points="387.716,285.073 386.733,285.589 384.197,280.764 385.181,280.248 387.716,285.073 "/>
<polygon points="383.538,284.904 382.554,285.421 380.107,280.764 381.091,280.247 383.538,284.904 "/>
<polygon points="380.098,284.05 379.114,284.567 376.667,279.911 377.651,279.394 380.098,284.05 "/>
<polygon points="375.867,282.781 374.883,283.299 372.436,278.641 373.42,278.124 375.867,282.781 "/>
<polygon points="371.354,282.64 370.37,283.157 367.923,278.501 368.907,277.983 371.354,282.64 "/>
<polygon points="366.559,280.666 365.575,281.183 363.129,276.526 364.112,276.009 366.559,280.666 "/>
<polygon points="362.046,278.691 361.062,279.208 358.616,274.552 359.6,274.034 362.046,278.691 "/>
<polygon points="355.841,276.294 354.857,276.811 352.41,272.155 353.394,271.637 355.841,276.294 "/>
<polygon points="352.597,274.743 351.614,275.26 349.167,270.603 350.151,270.086 352.597,274.743 "/>
<polygon points="348.508,272.345 347.524,272.862 345.077,268.206 346.061,267.688 348.508,272.345 "/>
<polygon points="344.418,269.807 343.435,270.324 340.988,265.667 341.971,265.15 344.418,269.807 "/>
<polygon points="339.483,266.986 338.499,267.504 336.052,262.847 337.036,262.33 339.483,266.986 "/>
<polygon points="335.534,264.025 334.55,264.542 332.103,259.885 333.087,259.368 335.534,264.025 "/>
<polygon points="332.149,260.922 331.166,261.44 328.719,256.783 329.702,256.266 332.149,260.922 "/>
<polygon points="329.188,257.115 328.204,257.632 325.757,252.975 326.741,252.458 329.188,257.115 "/>
<polygon points="324.675,254.858 323.691,255.375 321.244,250.719 322.228,250.201 324.675,254.858 "/>
</svg>
