<?xml version="1.0" encoding="utf-8"?>
<!-- Generator: Adobe Illustrator 17.0.0, SVG Export Plug-In . SVG Version: 6.00 Build 0)  -->
<!DOCTYPE svg PUBLIC "-//W3C//DTD SVG 1.1//EN" "http://www.w3.org/Graphics/SVG/1.1/DTD/svg11.dtd">
<svg version="1.1" id="Layer_1" xmlns="http://www.w3.org/2000/svg" xmlns:xlink="http://www.w3.org/1999/xlink" x="0px" y="0px"
	 width="800px" height="600px" viewBox="0 0 800 600" enable-background="new 0 0 800 600" xml:space="preserve">
<g>
	<path d="M419.479,112.367c15.209,0,18.352,25.575-0.462,25.25C400.53,137.298,404.274,112.367,419.479,112.367z"/>
	<path d="M335.522,123.577c12.696,0,15.375,19.23,0,19.68C320.713,143.69,322.828,123.577,335.522,123.577z"/>
	<path d="M413.32,83.146c8.921,0.572,31.75,6.385,48.775,20.917c3.678,3.136-11.37,16.521-14.473,13.396
		c-17.086-17.136-35.756-23.364-39.499-24.193C404.387,92.436,409.729,82.912,413.32,83.146z"/>
	<path d="M341.655,98.018c-7.445,0.477-26.504,5.328-40.718,17.459c-3.067,2.621,9.494,13.794,12.084,11.187
		c14.264-14.308,29.851-19.506,32.975-20.199C349.116,105.772,344.655,97.821,341.655,98.018z"/>
	<path d="M552.954,242.84c-10.924-32.889-25.378-73.705-53.514-96.291c6.269-2.8,30.63-8.897,21.843-10.395
		c-14.208-2.426-51.995-2.082-79.375,11.435c-3.472,1.715,3.95,14.924,8.341,13.049c8.644-3.693,22.845-7.56,29.435-8.542
		c6.59,44.356-6.585,96.685-25.133,141.297c-9.298,22.367-17.437,35.948-29.521,51.637c-7.083,8.943-14.611,17.735-23.972,24.277
		c-19.448,13.591-40.932,18.789-55.125,18.443c-1.638-6.282-8.336-34.998-10.069-40.199c-1.732-5.198-7.97,1.384-7.622,5.541
		c0.347,4.164,3.118,32.925,6.931,47.829c26.377,2.62,55.056-6.983,74.392-22.132c3.596,6.446,41.228,57.698,55.315,74.929
		c13.69,16.75,29.7,35.612,49.953,44.52c51.549,22.665,61.471-57.907,62.164-91.514C578.135,351.816,570.487,295.571,552.954,242.84
		z"/>
	<path fill="#FFFFFF" d="M491.716,177.855c-0.089-6.868-0.619-13.718-1.543-20.52c0.012,0.009,0.031,0.02,0.044,0.029
		c5.719,4.577,10.723,9.916,15.251,15.646c9.697,12.759,17.143,27.104,23.437,41.8c7.49,17.89,13.432,36.432,18.233,55.284
		c-8.701,32.591-23.109,61.711-44.007,88.152c-8.164,10.346-18.201,23.62-30.84,28.618c-2.425,0.961-16.38-19.485-17.061-20.362
		c-5.26-6.823-9.993-13.932-14.163-21.447c4.619-6.483,8.853-13.196,12.633-19.988C478.113,281.138,492.341,228.211,491.716,177.855
		z"/>
	<path fill="#D1747F" d="M496.234,471.19c0,0,18.232,25.517,42.128,16.982c28.539-10.191,28.539-110.762,28.539-110.762
		s-23.102,2.038-36.011,17.669c-12.915,15.629-1.36,49.611-1.36,49.611l-6.111,3.39c0,0-4.764-13.588-4.764-21.063
		c0-7.474,1.362-17.669,1.362-17.669s-20.388-1.36-28.541,14.271C483.318,439.248,486.041,458.952,496.234,471.19z"/>
	<path d="M399.878,218.387c-5.19,11.678-10.449,20.544-19.137,30.167c-8.598,9.523-27.354,12.454-39.327,12.883
		c-24.078,0.855-50.873-9.444-58.387-34.167c-11.409-37.547,60.709-53.57,85.234-53.245c10.406,0.138,3.079-9.441-7.307-9.809
		c-36.655-1.297-112.502,19.682-91.314,73.536c11.343,28.832,43.092,39.579,71.774,39.812c13.87,0.11,28.572-2.432,39.858-10.468
		c13.741-9.784,18.932-23.733,23.148-38.005C407.372,219.099,404.1,208.886,399.878,218.387z"/>
</g>
</svg>
