<?xml version="1.0" encoding="utf-8"?>
<!-- Generator: Adobe Illustrator 17.0.0, SVG Export Plug-In . SVG Version: 6.00 Build 0)  -->
<!DOCTYPE svg PUBLIC "-//W3C//DTD SVG 1.1//EN" "http://www.w3.org/Graphics/SVG/1.1/DTD/svg11.dtd">
<svg version="1.1" id="Layer_1" xmlns="http://www.w3.org/2000/svg" xmlns:xlink="http://www.w3.org/1999/xlink" x="0px" y="0px"
	 width="800px" height="600px" viewBox="0 0 800 600" enable-background="new 0 0 800 600" xml:space="preserve">
<g>
	<path fill="#1A171B" d="M294.091,258.172c0,0-15.151,35.201,0,78.42c15.149,43.215,61.036,30.287,79.308-2.233
		c18.265-32.524,25.838-110.49-3.568-132.326C340.424,180.215,303.444,226.984,294.091,258.172z"/>
	<path fill="#1A171B" d="M414.837,203.369c0,0-23.623,24.054-26.735,61.483c-3.128,37.433,1.774,83.765,40.092,99.367
		c38.317,15.587,69.066-21.838,67.28-77.971C493.696,230.095,444.231,177.534,414.837,203.369z"/>
	<g>
		<g>
			<path fill="#FFFFFF" d="M354.913,211.411c-25.221-5.857-53.279,22.16-62.663,62.58c-9.386,40.411,3.461,77.923,28.689,83.783
				c25.221,5.844,53.273-22.166,62.663-62.585C392.981,254.771,380.14,217.253,354.913,211.411z M489.448,280.636
				c-4.283-41.465-30.275-71.911-58.063-67.987c-27.787,3.913-46.83,40.701-42.54,82.176c4.281,41.459,30.275,71.909,58.058,67.985
				C474.694,358.891,493.738,322.106,489.448,280.636z"/>
		</g>
		<g>
			<path fill="#A7D5E7" d="M350.79,208.555c-31.576,0-49.464,37.771-49.464,37.771s18.691-20.25,44.404-26.484
				c25.7-6.233,39.719,28.83,39.719,28.83S379.618,208.555,350.79,208.555z M433.365,210.099c-28.047,2.345-37.79,33.5-37.79,33.5
				s12.472-21.03,39.344-21.412c26.874-0.4,43.62,21.03,43.62,21.03S461.403,207.767,433.365,210.099z"/>
		</g>
		<g>
			<path d="M441.708,263.238c0.919-2.828,1.448-5.979,1.448-9.319c0-11.989-6.645-21.715-14.852-21.715
				c-8.208,0-14.852,9.726-14.852,21.715c0,12.003,6.643,21.736,14.852,21.736c2.835,0,5.471-1.181,7.724-3.195
				c-2.764-3.116-5.469-7.347-3.418-10.424C434.393,259.362,438.237,260.932,441.708,263.238z M428.644,242.505
				c-2.32,0-4.208-1.889-4.208-4.207c0-2.332,1.889-4.217,4.208-4.217c2.334,0,4.217,1.885,4.217,4.217
				C432.861,240.616,430.978,242.505,428.644,242.505z M354.627,232.889c-7.641,0-13.83,9.69-13.83,21.639
				c0,3.438,0.527,6.675,1.439,9.561c2.338-2.584,4.852-4.325,6.81-3.073c2.96,1.876,0.69,7.545-1.676,11.897
				c2.111,2.041,4.592,3.24,7.257,3.24c7.643,0,13.831-9.681,13.831-21.624C368.458,242.579,362.27,232.889,354.627,232.889z
				 M354.712,242.986c-2.143,0-3.887-1.736-3.887-3.887c0-2.14,1.744-3.876,3.887-3.876c2.147,0,3.889,1.736,3.889,3.876
				C358.6,241.249,356.859,242.986,354.712,242.986z"/>
		</g>
		<g>
			<path d="M389.356,362.798c-17.927-5.273-23.195,13.717-23.195,13.717c22.137-16.875,41.114,0,41.114,0
				S407.276,368.069,389.356,362.798z M360.625,158.886c0,0-42.771-66.344-66.375,25.067c0,0,11.802-32.436,32.448-36.872
				C347.347,142.665,360.625,158.886,360.625,158.886z M419.631,160.355c0,0,17.695-8.838,35.394-5.89
				c17.709,2.951,29.506,26.529,29.506,26.529S455.025,105.809,419.631,160.355z M361.796,459.854
				c-20.647-1.47-32.443,32.45-22.118,53.079c10.32,20.641,16.226,19.172,16.226,19.172s-23.607-33.921-2.958-53.079
				c0,0-2.948,17.688,16.231,17.688C388.353,496.714,382.454,461.337,361.796,459.854z"/>
		</g>
	</g>
</g>
</svg>
