<?xml version="1.0" encoding="utf-8"?>
<!-- Generator: Adobe Illustrator 17.0.0, SVG Export Plug-In . SVG Version: 6.00 Build 0)  -->
<!DOCTYPE svg PUBLIC "-//W3C//DTD SVG 1.1//EN" "http://www.w3.org/Graphics/SVG/1.1/DTD/svg11.dtd">
<svg version="1.1" id="Layer_1" xmlns="http://www.w3.org/2000/svg" xmlns:xlink="http://www.w3.org/1999/xlink" x="0px" y="0px"
	 width="800px" height="600px" viewBox="0 0 800 600" enable-background="new 0 0 800 600" xml:space="preserve">
<g>
	<path fill-rule="evenodd" clip-rule="evenodd" d="M552.093,209.164c5.256-12.687,12.001-26.069,13.156-41.012
		c1.634-21.331-8.257-36.877-18.57-49.519c-12.811-15.691-34.197-26.112-61.128-27.853c-27.09-1.754-51.16,6.533-76.597,7.734
		c-18.425,0.874-36.977,0.17-51.843,2.322c-13.228,1.91-28.09,3.739-39.172,7.881c-12.988,4.867-23.889,13.697-28.914,22.296
		c11.173-4.552,20.643-7.25,33.581-8.486c21.286-2.035,43.962-0.038,64.678,0.749c-20.453,17.504-43.256,25.095-54.926,48.745
		c-2.354,4.765-2.195,10.512-4.649,15.473c-3.35,6.788-14.075,12.626-20.892,18.57c-19.308,16.845-36.52,36.811-47.971,59.576
		c5.955,7.463,24.618,2.209,32.497,7.739c0.819,6.963-5.86,9.765-6.963,16.25c-1.958,11.515,4.475,19.052,8.511,27.076
		c-0.65,14.709-17.153,23.547-13.925,38.69c1.476,6.931,14.957,12.289,23.984,15.476c18.389,6.494,45.583,10.783,64.99,10.059
		c-5.401,14.706-20.435,31.302-31.151,47.443c-2.571,3.873-4.871,7.637-6.768,10.888c-2.589,17.019,3.391,37.875,18.226,47.475
		c20.2,13.06,46.692,4.459,65.284-8.4c23.74-16.41,37.76-41.259,48.919-67.477c-5.532-5.195-10.897-10.607-14.038-15.229
		c-3.047-4.477-4.993-10.799-8.506-17.796c-2.06-4.092-8.375-15.476-8.248-17.065c14.523-16.94,33.622-42.611,43.066-47.154
		c16.22-0.428,30.738-14.547,42.029-24.627c11.295-10.079,17.746-15.331,17.551-23.348c-0.204-8.017-3.839-10.127-9.294-13.149
		c15.016-13.359,39.616-27.205,42.962-52.226C561.844,195.826,557.467,212.854,552.093,209.164z"/>
	<path fill-rule="evenodd" clip-rule="evenodd" fill="#FFFFFF" d="M397.029,270.039c2.671,16.702,1.548,40.999-16.492,42.122
		c-0.729-6.155,0.498-17.028,0-25.532c-1.734,0.428-4.011,1.847-4.011,1.847s1.666,18.09-0.629,23.685
		c-7.211,1.761-16.859,0.328-23.4-1.077c0.204-4.645-0.204-11.105-0.584-15.168c-0.521,0-2.847,0.029-2.847,0.029
		s0.674,10.179-0.249,14.67c-7.211-1.304-20.344-6.397-20.344-6.397l0.403-7.062c0,0-2.992,3.359-2.621,6.05
		c-4.672-2.035-10.951-4.219-15.351-6.521C346.756,294.377,378.591,289.779,397.029,270.039z"/>
	<path fill-rule="evenodd" clip-rule="evenodd" fill="#EDF6FD" d="M420.701,373.147c-0.091,13.242-3.11,33.321-10.978,45.062
		c-8.298-6.145-17.166-18.425-21.77-27.214c-6.284,5.016-12.142,12.979-20.1,16.297c-0.72-8.513,2.508-16.721,7.732-24.76
		C395.232,382.323,406.577,378.891,420.701,373.147z"/>
	<path fill-rule="evenodd" clip-rule="evenodd" fill="#009CDD" d="M386.685,398.174c2.096,7.121,9.221,21.612,9.221,21.612
		s-13.554,16.877-18.122,20.978c-2.766-7.436-7.927-19.224-6.22-26.691C377.395,408.98,382.497,402.366,386.685,398.174z"/>
	<path fill-rule="evenodd" clip-rule="evenodd" fill="#F0C690" d="M495.632,264.371c0,0,10.897-6.53,20.313-6.838
		c5.885-0.186,11.942,3.719,12.101,8.065c0.398,11.293-18.561,20.969-26.221,26.619c-7.66,5.641-13.002,11.048-18.602,10.568
		c-5.595-0.489-5.5-10.645-7.202-14.6c-3.717,1.444-6.451,10.079-3.622,18.468c-15.211,16.252-30.784,32.147-44.881,49.519
		c-15.94,8.312-35.56,18.072-59.58,18.57c-30.883,0.638-64.216-8.454-82.783-21.669c2.777-13.982,8.414-25.109,15.475-34.815
		c3.024-2.316,11.069,4.43,11.603-2.325c-9.543-4.117-22.864-8.599-21.666-20.89c5.039-0.833,14.364,5.745,23.215,9.287
		c8.85,3.538,31.005,11.109,48.362,12.859c15.519,1.564,32.106-2.103,37.525-13.635c5.414-11.526,3.477-29.672,2.861-40.831
		c4.903-0.564,5.962,5.625,10.29,4.468c-3.241-9.14-12.087-12.664-20.892-16.247c-2.988,1.845-3.033,5.822-3.033,5.822
		s4.776,1.191,8.452,2.685c-15.003,28.541-61.246,35.757-102.908,30.179c-0.978-6.311,7.307-13.051,5.414-20.12
		c-2.888-10.795-23.364-1.532-32.495-7.734c2.39-8.126,11.381-18.097,16.297-24.405c14.192-18.23,29.073-30.618,48.702-44.455
		c5.338-38.244,38.176-49,63.446-67.317c0.512,0,1.027,0,1.544,0c4.332,3.975,8.574,7.318,13.151,10.831
		c5.102,3.914,9.502,4.801,15.478,7.737c3.617,1.784,6.741,5.145,10.828,6.967c10.091,4.488,17.506,6.994,25.537,14.702
		c7.823,7.513,17.212,17.805,20.114,25.53c2.087,5.557,1.575,11.184,3.096,16.25c1.358,4.511,4.83,8.504,6.188,13.158
		c0.552,1.881-0.041,4.744,0.774,6.956c1.141,3.081,4.219,5.179,5.419,8.518c1.58,4.398,3.219,8.219,2.282,13.629
		C499.218,255.67,495.632,264.371,495.632,264.371z"/>
	<path fill-rule="evenodd" clip-rule="evenodd" fill="#F7D800" d="M550.627,163.165c-0.57-12.171-2.449-22.445-2.417-27.828
		c11.263,6.58,13.4,42.572,3.884,52.158C549.956,185.384,551.093,173.03,550.627,163.165z"/>
	<path fill-rule="evenodd" clip-rule="evenodd" fill="#ABACAF" d="M413.53,478.337c13.667-9.452,24.097-21.705,32.635-35.397
		c1.39-4.896,1.571-10.084-0.072-17.135c-2.73-11.668-11.354-48.514-16.814-50.193c-0.638,5.722-3.169,19.824-4.314,25.053
		c-6.754,30.682-14.894,59.25-25.021,85.477C404.761,483.878,409.356,481.225,413.53,478.337z"/>
	<path fill-rule="evenodd" clip-rule="evenodd" fill="#ABACAF" d="M347.49,486.189c4.762-30.643,16.551-86.421,16.311-86.421
		c-7.148,13.253-24.849,29.473-32.101,51.171c-0.131,2.27-0.353,5.641-0.629,9.695C333.601,470.894,339.056,480.383,347.49,486.189z
		"/>
	<path fill-rule="evenodd" clip-rule="evenodd" fill="#9B9B97" d="M459.95,416.552c-4.79-3.753-9.068-6.517-12.237-7.567
		c3.391,7.965,5.034,15.224,5.011,22.463C455.292,426.586,457.691,421.611,459.95,416.552z"/>
	<path fill-rule="evenodd" clip-rule="evenodd" fill="#EDF6FD" d="M383.982,491.703c3.545-0.794,7.062-1.867,10.489-3.196
		c1.53-3.574,3.074-7.282,4.613-11.188c5.265-13.339,11.929-29.686,12.395-44.811c-3.812-3.183-6.99-7.309-9.217-10.813
		c-6.356,12.4-13.672,19.392-20.974,27.017C385.336,459.878,384.91,476.567,383.982,491.703z"/>
	<path fill-rule="evenodd" clip-rule="evenodd" fill="#EDF6FD" d="M353.597,489.584c7.673-23.771,18.891-44.03,18.891-44.03
		s-3.377-14.566-6.863-20.516c-6.27,16.625-12.825,42.416-13.26,64.008C352.768,489.247,353.189,489.394,353.597,489.584z"/>
	<path fill-rule="evenodd" clip-rule="evenodd" fill="#009CDD" d="M377.051,492.909c1.014-7.63,1.793-14.052,2.006-17.814
		c0.634-11.123-2.037-22.658-3.178-25.114c-5.206,9.81-11.417,24.62-17.194,41.477C364.62,493.183,370.827,493.584,377.051,492.909z
		"/>
	<path fill-rule="evenodd" clip-rule="evenodd" fill="#FFEC00" d="M308.662,118.803c7.193-4.495,14.971-8.244,26.216-10.484
		c31.314-6.241,76.235-5.118,108.119-9.027c6.17-0.758,12.155-3.235,17.796-3.871c20.657-2.309,36.601,0.801,47.086,4.83
		c10.489,4.031,19.362,8.472,25.41,17.341c6.044,8.871,13.4,33.05,12.617,53.659c-3.803,0.998-4.523,2.558-8.511,1.546
		c-5.342-18.645-5.247-42.726-22.441-49.519c13.495,18.914,12.083,32.393,10.055,40.232c-4.427-2.291-4.943-8.151-6.963-12.377
		c-8.176-17.173-26.225-41.008-50.091-38.378c4.844,3.226,10.919,4.131,15.27,5.878c6.021,2.422,14.174,10.607,18.579,16.25
		c5.378,6.899,12.096,17.028,10.055,24.763c-8.837-3.291-13.251-23.909-26.564-26.73c4.844,6.863,15.111,21.601,14.962,30.594
		c-10.788-8.558-15.79-22.895-29.408-28.627c-0.941,6.915,6.772,10.283,10.833,14.702c8.207,8.918,15.319,20.292,19.348,34.043
		c3.024,10.329,9.072,23.5,2.16,33.111c-5.12-3.891-3.893-11.635-5.256-16.859c-4.708-18.076-16.465-32.884-29.408-42.558
		c0.471,7.845,9.615,13.552,12.386,21.664c-9.086-12.594-21.395-23.511-37.914-30.177c-5.781-2.331-10.086-5.736-15.478-8.506
		c-4.595-2.374-10.141-3.028-14.699-6.195c-4.504-3.133-10.847-11.422-15.473-13.149c-6.247-2.347-15.428-2.528-22.436-3.096
		C356.979,116.408,328.825,117.191,308.662,118.803z"/>
	<path fill-rule="evenodd" clip-rule="evenodd" d="M349.296,217.644c-5.251-4.647-2.019-12.92-2.019-12.92s-3.839-2.624-6.392-5.718
		c12.142-15.734,30.616-12.051,45.963-6.598c13.993,4.968,18.959,10.308,19.38,15.607c0.24,2.974-5.455,6.804-5.455,6.804
		s2.019,14.937-10.792,17.182C385.558,232.777,354.543,222.286,349.296,217.644z"/>
	<path fill-rule="evenodd" clip-rule="evenodd" fill="#F0C690" d="M400.166,207.947c-1,0.971-2.82,3.843-2.82,3.843
		s-44.36-9.289-50.698-14.604c9.574-8.622,32.857-4.898,44.881,1.542C394.467,200.307,401.746,204.397,400.166,207.947z"/>
	<path fill-rule="evenodd" clip-rule="evenodd" fill="#FFFFFF" d="M389.673,228.95c-5.247,0.607-25.56-4.692-29.073-9.69
		c8.275,2.019,13.925-4.848,10.095-10.095c9.692,1.007,21.268,4.955,26.447,6.055C399.849,219.475,394.924,228.345,389.673,228.95z"
		/>
	<path fill-rule="evenodd" clip-rule="evenodd" fill="#EEEEEF" d="M355.553,207.143c1.87-0.86,3.631,0.81,3.631,2.427
		c0,1.614-2.019,2.22-3.631,1.815C353.941,210.984,352.931,208.35,355.553,207.143z"/>
	<path fill-rule="evenodd" clip-rule="evenodd" d="M408.383,201.111c-3.395-9.616-7.447-19.208-15.36-25.981
		c-8.289-7.098-19.851-7.931-30.254-7.461c-2.15,0.093-2.155,3.447,0,3.346c9.511-0.43,18.864,0.303,26.949,5.772
		c8.257,5.586,12.268,16.241,15.428,25.211C405.861,204.02,409.103,203.15,408.383,201.111z"/>
	<path fill-rule="evenodd" clip-rule="evenodd" fill="#FFF59D" d="M397.912,106.596c10.851-0.489,30.589,1.48,38.484-0.98
		c7.9-2.474,23.196-6.424,29.607-6.911c6.415-0.496,24.672-0.496,33.056,8.386c8.389,8.884,4.93,13.816,4.93,13.816
		s-11.345-11.347-26.144-13.321c-14.803-1.972-28.126,3.948-28.126,3.948s18.751,4.932,24.174,8.386
		c5.432,3.452,9.869,17.266,9.869,17.266s-14.803-12.825-27.14-16.279c-12.327-3.456-19.24-4.937-30.096-5.43
		C415.676,114.989,397.912,106.596,397.912,106.596z"/>
	<path fill-rule="evenodd" clip-rule="evenodd" fill="#FFF6B3" d="M389.03,108.078c0,0,10.856,2.961,19.733,5.919
		c8.882,2.961,27.14,3.952,35.035,7.406c7.891,3.456,20.72,12.336,23.192,19.24c2.463,6.908,1.48,10.36,1.48,10.36
		s-12.332-9.867-20.725-15.786c-8.388-5.921-24.174-10.358-37.004-13.814C397.912,117.95,389.03,108.078,389.03,108.078z"/>
	<path fill-rule="evenodd" clip-rule="evenodd" fill="#FAE8B9" d="M297.525,229.919c7.501-7.981,21.915-16.064,25.863-18.294
		c3.943-2.227-14.029,20.521-19.729,31.234c-5.695,10.702-19.724,11.598-19.724,8.472
		C283.935,248.214,287.882,240.179,297.525,229.919z"/>
	<path fill-rule="evenodd" clip-rule="evenodd" fill="#FAE8B9" d="M367.318,150.019c6.034-4.287,15.79-9.373,21.712-11.347
		c5.921-1.976,0.987,11.84-9.375,16.279C369.296,159.394,352.026,160.875,367.318,150.019z"/>
	<path fill-rule="evenodd" clip-rule="evenodd" fill="#FAE8B9" d="M406.794,236.365c-4.391,4.242,2.956,12.334,8.388,20.229
		c5.428,7.893,10.851,17.759,11.345,22.198c0.498,4.448,13.817,3.95,12.83-14.797C438.374,245.247,421.593,222.055,406.794,236.365z
		"/>
	<path fill-rule="evenodd" clip-rule="evenodd" fill="#FAE8B9" d="M303.179,332.576c3.622,1.65,17.266,12.836,6.41,17.271
		c-10.856,4.437-17.266-0.987-17.266-4.434C292.324,341.956,297.756,330.106,303.179,332.576z"/>
	<path fill-rule="evenodd" clip-rule="evenodd" fill="#E3A962" d="M306.634,264.978c0,0,6.904,0.498,10.358-2.463
		c3.454-2.961,6.415-10.36,6.415-10.36s9.371,9.371,0.493,16.277C315.022,275.343,306.634,264.978,306.634,264.978z"/>
	<path fill-rule="evenodd" clip-rule="evenodd" fill="#E3A962" d="M406.3,218.601c0,0,6.415-2.47,13.816-0.491
		c7.397,1.974,8.384,7.893,8.384,7.893L406.3,218.601z"/>
	<path fill-rule="evenodd" clip-rule="evenodd" fill="#E3A962" d="M496.592,270.904c4.391-2.56,11.843-6.908,13.328-2.472
		c1.476,4.446-17.275,13.325-19.742,13.325C487.71,281.757,490.675,274.354,496.592,270.904z"/>
	<path fill-rule="evenodd" clip-rule="evenodd" fill="#E3A962" d="M435.409,154.458c0,0,20.725,6.904,31.087,18.749
		c10.362,11.847,14.808,25.166,15.79,35.528s-14.808-12.336-24.672-21.218c-9.869-8.88-34.053-34.043-34.541-37.497
		S428.994,150.512,435.409,154.458z"/>
	<polygon fill-rule="evenodd" clip-rule="evenodd" fill="#5DB5EB" points="373.244,419.909 386.069,405.108 389.03,413.003 
		375.707,428.295 	"/>
</g>
</svg>
