<?xml version="1.0" encoding="utf-8"?>
<!-- Generator: Adobe Illustrator 17.0.0, SVG Export Plug-In . SVG Version: 6.00 Build 0)  -->
<!DOCTYPE svg PUBLIC "-//W3C//DTD SVG 1.1//EN" "http://www.w3.org/Graphics/SVG/1.1/DTD/svg11.dtd">
<svg version="1.1" id="Layer_1" xmlns="http://www.w3.org/2000/svg" xmlns:xlink="http://www.w3.org/1999/xlink" x="0px" y="0px"
	 width="800px" height="600px" viewBox="0 0 800 600" enable-background="new 0 0 800 600" xml:space="preserve">
<g>
	<linearGradient id="SVGID_1_" gradientUnits="userSpaceOnUse" x1="405.3668" y1="547.691" x2="405.3668" y2="482.6387">
		<stop  offset="0" style="stop-color:#FFFFFF"/>
		<stop  offset="0.124" style="stop-color:#FAFCFF"/>
		<stop  offset="0.2752" style="stop-color:#EBF4FD"/>
		<stop  offset="0.4405" style="stop-color:#D2E7FB"/>
		<stop  offset="0.6161" style="stop-color:#B0D5F8"/>
		<stop  offset="0.7983" style="stop-color:#84BDF4"/>
		<stop  offset="0.9805" style="stop-color:#50A2F0"/>
	</linearGradient>
	<path fill="url(#SVGID_1_)" d="M430.895,547.691c-2.51-11.59-6.846-26.951-7.831-31.35c-0.668-3.005-1.641-8.565-1.321-10.137
		c0.963-4.759,2.476-8.175,3.021-11.891c0.374-2.56,1.198-4.181,1.27-7.527l-42.307-4.147c0.127,4.77,0.795,7.379,1.633,10.972
		c0.434,1.863,2.428,6.381,3.722,13.157c0.318,1.651-0.163,5.338-0.912,8.486c-1.094,4.606-4.566,18.608-8.332,32.437h21.576
		c-1.028-17.481,0.707-34.488,1.936-36.065c1.232-1.572,2.44-4.957,2.581-6.899c0.211-2.822-0.84-8.096-0.914-10.463
		c-0.061-1.858,0.057-3.455,0.181-4.997c0.19,3.544,0.827,6.055,0.898,7.186c0.214,3.514,0.159,6.717,0.351,9.41
		c0.12,1.858,1.208,5.091,2.311,6.583c1.1,1.513,2.627,17.205,1.338,35.245H430.895z"/>
	<linearGradient id="SVGID_2_" gradientUnits="userSpaceOnUse" x1="394.235" y1="497.2656" x2="394.235" y2="63.9275">
		<stop  offset="0" style="stop-color:#003787"/>
		<stop  offset="0.0154" style="stop-color:#003582"/>
		<stop  offset="0.1364" style="stop-color:#002860"/>
		<stop  offset="0.266" style="stop-color:#001C45"/>
		<stop  offset="0.4053" style="stop-color:#00142F"/>
		<stop  offset="0.5587" style="stop-color:#000E20"/>
		<stop  offset="0.7371" style="stop-color:#000A17"/>
		<stop  offset="1" style="stop-color:#000914"/>
	</linearGradient>
	<path fill="url(#SVGID_2_)" d="M475.263,236.415c0-3.245-0.391-5.644-0.778-7.985c-0.392-2.335,0.582-5.254-0.326-8.629
		c-0.908-3.376-2.713-15.663-3.072-18.865c-1.213-10.822-6.838-50.193-7.877-55.385c-1.038-5.192-2.769-7.009-5.277-7.965
		c-2.51-0.951-12.287-3.027-20.25-7.438c-3.026-12.635-3.118-18.262-2.942-25.271c0.692-0.865,1.561-2.854,1.993-4.413
		c0.432-1.559,0.087-6.232,0.087-8.741s-0.432-2.943-1.301-2.422c-0.259-0.348,0.087-3.03-0.084-4.759
		c-0.402-3.971-2.431-10.7-5.797-14.281c-2.771-2.941-4.677-5.278-9.09-4.325c-2.162-2.511-8.739-2.511-13.584-0.865
		c-5.291,1.856-8.571,4.93-12.724,10.557c-4.154,5.625-3.95,19.468-3.892,24.317c0.089,7.097-1.708,21.396-5.69,29.467
		c-4.003,1.147-8.936,2.464-14.213,3.247c-5.279,0.778-7.183,4.846-8.483,6.487c-1.295,1.646-18.863,20.855-21.548,23.887
		c-1.263,1.285-11.595,11.595-14.277,14.622c-2.683,3.032-10.903,13.846-12.895,16.703c-1.993,2.854,1.297,10.389,1.816,11.511
		c0.52,1.124,2.23,5.125,3.984,8.046c1.427,2.38,8.958,11.469,17.002,20.034c5.951,6.336,16.27,16.186,18.953,17.135
		c1.064,0.334,5.623-4.11,5.623-4.11c0.78,0.474,3.528,0.235,4.569,0.408c1.035,0.178,4.389-1.186,5.255-1.448
		c0.865-0.259,3.807-1.124,4.931-0.346c-0.259,11.335-3.591,20.511-4.804,26.435c-1.664,8.17-0.907,16.357-0.214,22.112
		c0.692,5.758,5.018,27.173,7.487,53.267c0.612,6.506,1.945,25.248,2.138,28.619c0.074,1.228,4.882,2.35,4.882,2.35
		c0.173,1.211,0.308,4.354,0.226,7.122c-0.094,3.245-0.442,6.756-0.56,7.979c-0.476,4.945-0.005,9.623,0.259,14.563
		c0.344,6.494,2.716,16.325,4.803,25.083c2.46,10.325,3.145,11.696,1.297,18.542c-0.631,2.325-3.108,11.716-3.398,13.564
		c-0.832,5.281-1.564,8.499-2.349,12.089c-0.346,1.599-1.549,3.69-1.631,5.731c-0.084,2.046,1.071,6.055,2.591,9.138
		c1.357,2.753,3.468,4.241,4.885,4.097c7.123-0.697,12.985-6.608,13.995-10.088c0.362,1.542,1.525,4.32,2.937,6.247
		c1.762,2.402,4.53,4.641,7.075,4.819c2.548,0.168,5.915-2.689,7.976-5.239c1.801-2.234,3.296-4.058,3.227-6.109
		c-0.12-3.549-0.733-4.977-1.143-9.685c-0.139-1.599,0.267-8.214,0.084-11.625c-0.223-4.043-0.397-7.431-0.555-10.068
		c-0.158-2.669-1.141-8.056-0.697-10.236c1.336-6.549,4.977-14.311,8.733-27.71c2.826-10.07,3.304-18.922,3.635-21.287
		c0.641-4.584,1.038-15.576,1.297-19.211c0.908,0,21.782-2.98,21.591-5.452c-2.25-29.254-0.692-49.852-0.626-58.449
		c0.355-0.151,1.426-0.452,1.817-0.65c0.662-0.331,1.797-1.243,2.402-1.587c0.607-0.346,2.985-2.058,3.588-2.533
		c0.22-0.129,0.693,0,1.472-0.302c0.781-0.306,1.643-1.255,1.822-2.12c0.168-0.865,0.819-3.158,0.992-3.984
		c0.214-1.006,1.511-2.382,1.904-3.158c0.389-0.779,0.043-2.16-0.041-2.726c-0.09-0.564-0.266-2.422-0.434-4.802
		c-0.127-1.732-0.025-4.104,0.041-5.269c1.37-0.054,3.462-1.137,3.506-2.086c0.07-1.564,0.313-19.268,0.262-23.066
		C475.976,255.107,475.263,239.662,475.263,236.415z M378.662,226.809c-2.34,1.92-8.795,5.62-9.785,5.869
		c-0.038-0.623-0.267-1.408-0.965-1.908c-6.168-4.416-15.556-13.827-22.568-22.135c-3.237-3.838-2.514-5.11-4.066-7.616
		c-1.124-1.814,1.904-4.295,4.153-6.316c4.241-3.806,12.089-11.526,17.83-16.876c1.044-0.971,2.336-1.124,4.363-2.901
		c1.867,0.566,6.555,7.174,7.838,9.736c0.693,1.389,1.33,6.996,1.818,10.213C377.711,197.73,380.22,211.32,378.662,226.809z
		 M406.982,462.466c-0.06,1.735-0.274,5.941-0.341,7.831c-0.066,1.895-0.341,4.854-0.493,8.128
		c-0.062,1.243-0.525,2.325-0.917,4.362c0.113-1.408,0.087-2.55-0.346-5.926c-0.277-2.15,0.367-7.648,0.675-11.049
		c0.255-2.805,0.873-6.603,1.194-10.31C406.809,457.969,407.039,460.897,406.982,462.466z M411.233,441.043
		c-0.209,2.106-3.444,6.25-4.286,10.809c0.018-1.198-0.027-2.35-0.159-3.395c-0.489-3.922-1.247-5.11-1.037-8.325
		c1.94-29.338,4.558-34.98,6.093-56.05C411.192,407.316,413.058,422.551,411.233,441.043z M453.389,254.457
		c-0.089,1.418-2.573-9.623-2.791-11.098c-2.077-13.888-3.365-31.589-2.966-30.396c1.499,4.441,3.281,18.84,3.667,21.566
		C451.691,237.255,453.13,247.058,453.389,254.457z M463.949,299.979c-0.046,0.559-0.667,1.717-0.825,2.118
		c-0.778,1.99-1.079,2.251-2.376,2.597c0.346-1.903,0.387-3.895,0.432-5.022c0.041-1.122,0.26-3.027,0.473-3.504
		c0.219-0.472,1.084-0.302,1.084-0.302c0.516,0.042,1.385,0.993,1.339,1.339C464.035,297.552,463.99,299.416,463.949,299.979z
		 M387.025,128.994l-1.16,0.287c4.164-10.542,4.884-25.325,4.884-25.325S390.711,116.554,387.025,128.994z M388.931,128.601
		l-0.675,0.148c1.186-4.814,2.258-13.777,2.258-13.777S390.151,122.435,388.931,128.601z M393.105,127.595l-0.516,0.121
		c0.743-3.502,0.575-9.628,0.575-9.628S393.807,122.672,393.105,127.595z M390.919,122.035c0,0,0.455-6.532,0.547-9.003
		c0.091-2.081-0.052-5.924,0.121-10.226C391.828,107.459,392.008,115.558,390.919,122.035z M436.988,129.918l-0.896-0.497
		c-2.368-10.905-1.945-19.016-1.945-19.016S434.056,120.011,436.988,129.918z M432.91,128.027l-0.613-0.284
		c-0.537-5.802-0.227-11.528-0.227-11.528S432.259,123.023,432.91,128.027z M431.287,127.202l-0.331-0.151
		c-0.25-3.025,0.146-5.637,0.146-5.637S430.984,124.622,431.287,127.202z M433.532,108.626c-0.036,3.729,0.051,5.488,0.041,7.292
		c-0.026,2.143,0.382,7.868,0.382,7.868C433.068,118.634,433.124,112.646,433.532,108.626z"/>
	<path fill="#DCF3FF" d="M456.497,286.328c0.331-0.603,0.764-1.063,0.764-1.063c0.667-0.581,4.856-1.947,8.245-1.819
		c3.943,0.146,6.215,0.489,6.307,1.505c0.031,0.358,0.161,2.491,0.161,2.491c0.964-0.284,1.247-0.949,1.415-1.248
		c0.166-0.294,0.231-2.573,0.201-3.751c-1.418-0.677-3.583-2.09-8.18-2.029c-4.286,0.059-7.568,1.505-8.938,2.439
		C456.441,283.862,456.39,286.615,456.497,286.328z"/>
	<path fill="#DCF3FF" d="M369.501,232.466l-0.657,0.24c-0.855,0.299-4.486,3.833-5.675,6.961c-1.386,3.633-1.847,5.736-1.01,7.115
		c0.695,0.311,2.246,0.539,2.246,0.539c-0.977,0.709-2.152,1.337-2.891,1.248c-0.366-0.039-3.329-0.719-4.519-1.364
		c-0.937-1.458,0.447-4.55,2.825-8.185c2.301-3.512,6.057-6.484,7.551-7.231c0,0,0.526-0.225,1.321,0.18
		C369.404,232.332,369.694,232.431,369.501,232.466z"/>
	<path fill="#DCF3FF" d="M424.731,140.069c0.835-0.511,11.689-2.884,11.158-3.665c-0.617-0.9-8.681-3.176-9.203-4.562
		c-0.488-1.139,0.221-3.129,0.163-4.073c-0.081-1.302-0.613-2.993-0.613-2.993c-0.268-0.467-0.023,2.214-0.334,2.76
		c-4.952,8.731-3.869,14.892-11.513,27.351c-5.721-9.932-6.713-19.323-10.994-26.059c-0.372-1.408-0.625-2.659-0.488-4.722
		c-1.385,2.227-0.23,6.583-1.166,7.876c-1.521,2.657-6.733,2.765-10.154,4.992c-1.302,0.847,10.317,2.281,12.46,3.662
		c0.922,0.596-3.827,2.691-3.502,3.069c4.113,4.784,7.716,12.502,8.144,13.463c2.245,5.039,3.381,10.211,4.906,18.168
		c0.026,0.119,0.305,0.104,0.331-0.017c1.008-4.77,2.733-12.319,5.512-18.559c2.469-5.538,4.942-10.994,8.389-14.251
		C427.826,142.511,423.906,140.579,424.731,140.069z"/>
</g>
</svg>
