<?xml version="1.0" encoding="utf-8"?>
<!-- Generator: Adobe Illustrator 17.0.0, SVG Export Plug-In . SVG Version: 6.00 Build 0)  -->
<!DOCTYPE svg PUBLIC "-//W3C//DTD SVG 1.1//EN" "http://www.w3.org/Graphics/SVG/1.1/DTD/svg11.dtd">
<svg version="1.1" id="Layer_1" xmlns="http://www.w3.org/2000/svg" xmlns:xlink="http://www.w3.org/1999/xlink" x="0px" y="0px"
	 width="800px" height="600px" viewBox="0 0 800 600" enable-background="new 0 0 800 600" xml:space="preserve">
<g>
	<path fill-rule="evenodd" clip-rule="evenodd" fill="#010101" d="M446.066,407.71c-28.997,8.633-19.995-14.218-20.251-53.975
		c-0.12-18.712-1.607-28.357-2.736-42.804c-3.116-21.666-12.936-46.046-10.523-71.22c1.465-15.267,10.219-36.078,17.092-46.653
		c4.014-6.18,11.885-15.522,16.967-19.236c16.866-12.33,24.293-0.267,32.839,15.509c13.016,24.041,28.569,54.307,42.141,76.93
		c9.132,15.226,20.664,32.95,33.936,44.67c13.797,12.181,30.298,18.863,49.058,23.694c5.022,1.294,11.989,3.188,16.137,4.574
		c12.139,4.056,26.557,15.623,30.036,33.148c2.106,10.593-3.917,24.054-8.757,28.538c-6.141,5.69-21.559,12.316-30.648,15.509
		c-28.458,9.999-68.357,13.111-88.664-4.341c-8.661-7.437-14.968-27.669-18.612-41.567c-4.708-17.951-10.896-31.173-17.516-42.805
		c-3.35-5.886-12.421-21.306-18.06-21.715c-15.404-1.111-14.214,38.052-15.832,56.174
		C451.155,379.152,452.455,404.378,446.066,407.71z M638.176,388.479c2.767-1.826,4.085-5.296,5.471-8.686
		C639.861,380.464,640.167,385.777,638.176,388.479z M506.817,346.291c0.033-0.378,0.084-0.735,0.548-0.621
		c7.046,10.796,9.772,21.624,17.514,31.02c17.081,20.729,53.45,21.706,81.006,15.511c7.905-1.781,36.137-11.831,36.67-19.854
		c0.37-5.645-9.285-16.065-12.591-18.612c-6.502-5.006-24.172-13.973-33.932-11.785c-6.119,1.369-8.503,8.185-15.872,9.305
		c-25.03,3.8-46.994-29.259-59.112-44.67c-6.255-7.954-11.132-20.442-16.967-31.018c-16.684-30.25-32.002-68.941-44.051-99.026
		c-3.853-4.241-18.325,11.375-24.91,20.858c-6.387,9.2-13.724,22.799-8.755,34.125c18.861,42.994,63.407,74.177,81.001,116.008
		C506.939,347.395,506.73,347.013,506.817,346.291z M627.228,397.166c6.14-1.52,7.934-7.965,10.4-13.655
		C631.532,385.085,630.65,392.564,627.228,397.166z M615.734,403.369c8.788-0.381,9.772-9.61,13.683-15.513
		C621.672,389.416,619.264,397.025,615.734,403.369z M604.243,408.948c9.089-1.271,10.416-11.348,15.32-17.368
		C610.251,392.197,606.903,402.867,604.243,408.948z M590.557,413.293c10.006-1.276,13.648-9.763,17.516-17.991
		C596.745,395.078,594.544,405.193,590.557,413.293z M586.726,399.024c-3.034,5.452-6.084,10.886-9.303,16.132
		c3.671,0.028,6.607-0.782,9.85-1.243c2.435-5.719,5.355-10.887,8.211-16.127C592.395,398.005,589.588,398.546,586.726,399.024z
		 M571.949,343.19c4.428,0.699,9.238-0.278,12.043-3.103C579.832,337.198,574.691,340.709,571.949,343.19z M565.928,415.778
		c3.299,0.014,6.74,0.193,9.302-0.623c1.925-6.097,5.523-10.287,8.212-15.511C571.539,398.145,569.623,407.966,565.928,415.778z
		 M558.813,325.198c-2.536,1.676-6.738,1.458-8.755,3.72c3.421,5.578,11.028-1.185,14.78,1.865
		c-2.384,1.845-6.747,1.454-7.664,4.962c3.619,2.965,10.903-3.185,13.681-1.242c-2.012,2.68-6.124,2.985-8.759,4.964
		c4.296,4.067,11.306,0.632,14.778-3.101C569.4,334.291,565.58,328.077,558.813,325.198z M562.644,399.024
		c-2.053,5.775-7.257,11.159-8.21,16.132c2.92,0,5.839,0,8.757,0c1.899-5.706,4.991-10.062,7.664-14.89
		C568.795,399.08,565.89,398.859,562.644,399.024z M552.792,397.166c-3.41,4.612-6.244,9.877-9.303,14.887
		c2.081,1.362,4.701,2.121,8.209,1.859c2.153-5.623,5.512-9.883,7.66-15.506C556.781,398.434,555.213,397.314,552.792,397.166z
		 M552.792,318.995c-1.678,2.444-7.094,0.644-8.755,3.103c1.874,5.276,11.032,3.054,13.683,1.242
		C555.75,322.261,554.517,320.347,552.792,318.995z M545.675,312.171c-0.319,3.771-6.413,0.999-7.658,3.718
		c2.286,3.826,10.18,3.541,13.134,1.865C549.092,316.157,548.197,313.243,545.675,312.171z M547.318,394.681
		c-4.86,3.591-8.571,8.479-11.493,14.267c1.76,0.697,3.248,1.699,5.474,1.863c2.531-5.404,6.338-9.358,8.758-14.888
		C549.081,395.578,547.785,395.605,547.318,394.681z M539.658,305.347c-2.019,0.817-4.238,1.4-7.117,1.238
		c0.501,7.057,8.236,7.121,12.591,3.725C542.902,309.112,542.336,306.033,539.658,305.347z M539.658,390.957
		c-4.365,3.951-8.101,8.608-10.4,14.892c2.693,0.697,2.415,2.754,4.928,2.48c1.372-7.126,6.763-9.705,9.303-15.511
		C541.421,393.092,540.918,391.598,539.658,390.957z M527.613,301.626c1.382,4.603,9.334,3.052,10.95,0.619
		C537.096,298.866,530.93,300.27,527.613,301.626z M531.992,387.856c-2.97,3.459-5.999,6.847-8.207,11.168
		c0.732,2.48,1.805,4.571,4.376,4.964c1.046-7.088,6.231-9.485,8.757-14.888C534.305,389.79,534.61,387.166,531.992,387.856z
		 M522.143,293.56c0.759,2.035,2.429,3.038,3.284,4.964C540.789,299.166,530.627,289.18,522.143,293.56z M526.52,382.273
		c-2.29,3.195-4.85,6.082-7.114,9.307c0.419,2.215,1.409,3.776,2.736,4.96C523.8,391.787,535.183,385.694,526.52,382.273z
		 M517.217,286.115c0.601,6.484,5.908,4.02,11.497,4.341C528.336,283.88,523.081,286.571,517.217,286.115z M520.501,375.452
		c-2.992,0.586-2.458,3.893-3.831,4.962c-3.37-3.109,1.767-5.89,2.19-8.684c-0.639-0.933-1.581-1.52-1.643-3.103
		c-6.73,3.426-0.67,14.81,0.547,20.473C521.908,385.616,528.083,378.952,520.501,375.452z M524.332,282.391
		c-2.222-2.442-2.934-6.6-6.021-8.065c0.133,3.666-4.339,2.108-7.117,2.484c0.623,2.602,2.293,4.018,3.286,6.199
		C517.819,282.085,522.533,285.647,524.332,282.391z M515.574,268.124c-3.631-0.361-5.779,1.275-8.757,0
		c-1.676,5.164,7.058,6.731,10.947,5.583C519,272.064,515.793,270.18,515.574,268.124z M508.458,352.495
		c1.745,5.469,2.954,11.544,4.928,16.751c0.285-1.539,1.333-2.21,2.188-3.104C512.396,362.51,511.461,356.331,508.458,352.495z
		 M511.194,260.056c-2.706,2.037-6.872-1.265-9.303,0.623c1.082,1.462,1.896,3.228,2.738,4.964
		C511.193,266.2,515.316,265.905,511.194,260.056z M506.817,253.855c-3.223,0.737-6.946-1.197-8.756,0
		c1.196,4.018,6.004,3.949,10.398,4.341C509.037,255.475,506.608,256.16,506.817,253.855z M501.345,245.789
		c-3.33,1.066-5.838-2.039-7.664-0.621c0.743,4.748,7.183,6.329,10.948,5.585C503.231,249.44,502.209,247.709,501.345,245.789z
		 M499.157,338.226c0.643,2.388,2.645,6.493,3.831,6.204C501.702,342.369,500.954,339.702,499.157,338.226z M490.947,238.963
		c1.616,2.718,5.775,2.549,8.21,4.345C499.298,238.996,493.719,237.901,490.947,238.963z M487.66,230.9
		c1.178,0.523,0.884,2.723,1.643,3.722c1.472-0.231,4.468,3.054,4.926,0C493.325,232.324,490.24,229.241,487.66,230.9z
		 M485.474,224.698c0.436,2.605,3.4,2.346,4.926,3.72C489.752,226.051,488.553,224.308,485.474,224.698z M482.188,215.389
		c0.354,3.317,1.532,5.707,4.377,6.204C486.064,218.443,484.271,216.755,482.188,215.389z M481.643,222.835
		c1.471,2.475,2.547,8.677,4.376,8.688C484.203,229.433,483.866,222.396,481.643,222.835z M478.357,207.326
		c1.639,1.449,1.398,5.031,3.831,5.581C481.405,210.883,480.57,205.668,478.357,207.326z M473.433,201.124
		c2.124,6.689,5.066,15.756,8.21,19.229C478.368,214.551,477.037,206.549,473.433,201.124z M474.526,197.398
		c0.557,2.471,1.658,4.327,3.281,5.583C476.823,201.003,476.565,198.188,474.526,197.398z M470.697,189.332
		c0.635,3.005,2.139,5.022,3.283,7.448C474.782,194.021,472.404,191.136,470.697,189.332z M463.031,291.076
		c-12.646,7.586-21.183,19.828-31.743,29.78c0.183,3.101,0.256,6.327,1.093,8.686c10.029-10.14,18.632-21.897,26.819-34.121
		c2.09-0.94,5.2-0.726,6.569-2.48C463.727,293.598,464.903,290.615,463.031,291.076z M457.559,283.633
		c-4.628,2.309-8.742,7.771-14.231,13.026c-5.374,5.154-16.277,11.429-12.586,20.473c9.377-10.464,19.578-19.993,30.101-29.155
		C459.367,286.96,458.238,285.547,457.559,283.633z M454.823,281.772c-0.394-3.07-2.144-4.604-3.831-6.206
		c-9.028,6.52-14.071,17.553-23.536,23.574c0.1,2.988,2.171,4.928,1.095,7.444C438.382,299.535,445.129,288.98,454.823,281.772z
		 M449.897,345.053c-0.076-1.785,1.522-4.841,0-6.206C449.588,340.192,448.591,343.927,449.897,345.053z M444.971,267.501
		c-6.834,6.731-13.712,13.41-19.703,21.094c0.339,2.718,1.418,4.595,1.641,7.442c8.183-7.059,14.667-16.049,22.441-23.572
		C447.272,271.512,447.289,268.181,444.971,267.501z M431.835,333.262c-0.214,6.861,0.973,12.134,0.547,19.233
		c4.913-5.596,12.177-8.532,13.136-18.61c-5.193,1.808-7.887,9.608-12.588,9.928c4.055-10.505,15.509-12.615,15.872-27.3
		C443.046,319.218,436.748,329.569,431.835,333.262z M444.971,359.939c0.339,1.683-0.693,4.926,0.547,5.585
		C446.006,364.785,447.061,359.652,444.971,359.939z M432.382,366.141c4.809-3.675,12.019-9.928,12.041-21.089
		C439.036,351.211,431.116,353.942,432.382,366.141z M438.952,258.817c-5.138,6.792-11.284,12.441-15.874,19.852
		c0.423,2.417,0.627,5.078,2.19,6.202c5.056-8.328,12.776-13.641,18.608-21.089C441.572,262.879,441.748,259.164,438.952,258.817z
		 M443.328,382.894c-2.012,0.408-2.723,2.286-3.831,3.722c2.006,0.205,3.043-0.686,4.38-1.238
		C443.996,384.205,443.259,384.005,443.328,382.894z M431.835,389.1c-0.514,2.967,0.152,4.051-0.547,7.441
		c1.861,2.947,8.835,4.677,11.495,1.245c0.824-2.73,1.081-4.945,1.093-8.686C439.631,388.976,435.662,390.576,431.835,389.1z
		 M442.783,372.347c-4.35,3.546-8.581,7.23-10.948,13.031c1.044,0.884,2.377,1.442,3.833,1.861c1.921-3.615,4.628-6.331,7.66-8.69
		C443.711,375.842,442.398,375.057,442.783,372.347z M432.382,369.867c0.833,2.813-0.935,6.393,0.548,9.307
		c2.299-4.43,5.521-7.804,9.307-10.547c-0.167-3.086,0.083-5.694,0.546-8.065C438.569,362.815,436.908,367.964,432.382,369.867z
		 M438.402,256.334c-1.759-1.105-1.872-4.079-4.377-4.341c-3.759,7.975-14.581,10.444-12.59,22.955
		C427.356,269.043,431.85,261.521,438.402,256.334z M429.647,243.929c-3.057,7.003-11.429,9.427-9.853,19.854
		C423.601,258.324,437.356,250.861,429.647,243.929z M426.909,235.864c-4.338,4.176-8.107,8.708-7.662,16.748
		c4.116-3.194,6.353-8.519,9.85-12.405C427.777,239.434,427.331,237.662,426.909,235.864z M421.435,226.555
		c-0.523,4.378-2.342,10.567-1.641,14.273C423.074,236.836,426.904,230.936,421.435,226.555z"/>
	<path fill-rule="evenodd" clip-rule="evenodd" fill="#010101" d="M362.885,362.139c-1.619-18.122-0.428-57.285-15.832-56.174
		c-5.639,0.408-14.712,15.828-18.06,21.715c-6.622,11.633-12.809,24.854-17.517,42.805c-3.642,13.899-9.951,34.131-18.61,41.567
		c-20.31,17.452-60.206,14.34-88.665,4.341c-9.089-3.193-24.509-9.819-30.649-15.509c-4.839-4.484-10.861-17.945-8.757-28.538
		c3.48-17.524,17.897-29.092,30.04-33.148c4.145-1.385,11.11-3.279,16.134-4.574c18.761-4.831,35.261-11.513,49.058-23.694
		c13.274-11.72,24.803-29.444,33.938-44.67c13.572-22.622,29.124-52.889,42.141-76.93c8.546-15.776,15.974-27.839,32.839-15.509
		c5.08,3.715,12.951,13.056,16.967,19.236c6.874,10.574,15.625,31.385,17.091,46.653c2.417,25.174-7.41,49.554-10.522,71.22
		c-1.129,14.447-2.618,24.092-2.738,42.804c-0.256,39.757,8.748,62.608-20.252,53.975
		C363.101,404.378,364.402,379.152,362.885,362.139z M171.91,379.793c1.387,3.39,2.703,6.859,5.469,8.686
		C175.392,385.777,175.697,380.464,171.91,379.793z M308.191,347.531c17.594-41.83,62.142-73.014,81.003-116.008
		c4.97-11.326-2.367-24.925-8.755-34.125c-6.587-9.483-21.059-25.099-24.914-20.858c-12.045,30.085-27.363,68.776-44.049,99.026
		c-5.833,10.576-10.712,23.064-16.965,31.018c-12.117,15.411-34.085,48.47-59.113,44.67c-7.368-1.12-9.754-7.936-15.871-9.305
		c-9.761-2.188-27.43,6.78-33.934,11.785c-3.306,2.547-12.962,12.967-12.588,18.612c0.53,8.023,28.763,18.073,36.67,19.854
		c27.554,6.195,63.923,5.218,81.003-15.511c7.745-9.396,10.467-20.224,17.513-31.02c0.469-0.114,0.516,0.243,0.548,0.621
		C308.828,347.013,308.617,347.395,308.191,347.531z M177.928,383.511c2.466,5.69,4.259,12.135,10.4,13.655
		C184.908,392.564,184.024,385.085,177.928,383.511z M186.139,387.856c3.913,5.903,4.899,15.132,13.684,15.513
		C196.294,397.025,193.884,389.416,186.139,387.856z M195.992,391.58c4.904,6.02,6.233,16.097,15.324,17.368
		C208.653,402.867,205.304,392.197,195.992,391.58z M207.485,395.302c3.868,8.228,7.51,16.715,17.514,17.991
		C221.013,405.193,218.815,395.078,207.485,395.302z M220.073,397.785c2.856,5.24,5.777,10.407,8.21,16.127
		c3.243,0.461,6.178,1.271,9.852,1.243c-3.217-5.245-6.267-10.679-9.302-16.132C225.967,398.546,223.161,398.005,220.073,397.785z
		 M231.564,340.087c2.803,2.825,7.617,3.802,12.045,3.103C240.867,340.709,235.724,337.198,231.564,340.087z M232.116,399.645
		c2.685,5.224,6.287,9.414,8.208,15.511c2.565,0.815,6.006,0.637,9.305,0.623C245.935,407.966,244.021,398.145,232.116,399.645z
		 M238.681,336.367c3.475,3.733,10.483,7.168,14.777,3.101c-2.633-1.979-6.741-2.284-8.755-4.964
		c2.78-1.943,10.061,4.207,13.683,1.242c-0.921-3.508-5.28-3.117-7.664-4.962c3.746-3.05,11.357,3.713,14.777-1.865
		c-2.017-2.262-6.219-2.044-8.755-3.72C249.976,328.077,246.156,334.291,238.681,336.367z M244.704,400.266
		c2.673,4.828,5.765,9.184,7.66,14.89c2.923,0,5.839,0,8.758,0c-0.953-4.973-6.153-10.356-8.208-16.132
		C249.666,398.859,246.761,399.08,244.704,400.266z M256.198,398.406c2.15,5.623,5.507,9.882,7.66,15.506
		c3.509,0.261,6.128-0.498,8.21-1.859c-3.06-5.009-5.894-10.275-9.303-14.887C260.347,397.314,258.775,398.434,256.198,398.406z
		 M257.836,323.339c2.652,1.812,11.809,4.034,13.684-1.242c-1.663-2.459-7.079-0.659-8.755-3.103
		C261.041,320.347,259.806,322.261,257.836,323.339z M264.407,317.755c2.952,1.676,10.848,1.961,13.135-1.865
		c-1.248-2.72-7.341,0.053-7.662-3.718C267.359,313.243,266.464,316.157,264.407,317.755z M265.5,395.923
		c2.418,5.53,6.229,9.485,8.757,14.888c2.228-0.164,3.715-1.166,5.474-1.863c-2.921-5.788-6.634-10.676-11.493-14.267
		C267.771,395.605,266.477,395.578,265.5,395.923z M270.426,310.31c4.354,3.395,12.09,3.332,12.591-3.725
		c-2.881,0.161-5.1-0.421-7.119-1.238C273.22,306.033,272.653,309.112,270.426,310.31z M272.069,392.818
		c2.54,5.806,7.929,8.385,9.303,15.511c2.509,0.274,2.233-1.783,4.928-2.48c-2.3-6.284-6.037-10.941-10.401-14.892
		C274.636,391.598,274.137,393.092,272.069,392.818z M276.993,302.245c1.618,2.433,9.569,3.983,10.948-0.619
		C284.627,300.27,278.463,298.866,276.993,302.245z M278.638,389.1c2.526,5.403,7.715,7.8,8.755,14.888
		c2.575-0.392,3.647-2.484,4.379-4.964c-2.211-4.322-5.236-7.709-8.208-11.168C280.944,387.166,281.252,389.79,278.638,389.1z
		 M290.131,298.523c0.855-1.926,2.526-2.929,3.283-4.964C284.929,289.18,274.767,299.166,290.131,298.523z M293.413,396.54
		c1.327-1.184,2.317-2.745,2.738-4.96c-2.266-3.225-4.824-6.112-7.116-9.307C280.374,385.694,291.756,391.787,293.413,396.54z
		 M286.844,290.457c5.587-0.321,10.894,2.143,11.495-4.341C292.475,286.571,287.222,283.88,286.844,290.457z M297.793,389.1
		c1.218-5.663,7.279-17.047,0.546-20.473c-0.062,1.583-1.004,2.17-1.643,3.103c0.423,2.794,5.561,5.576,2.194,8.684
		c-1.376-1.069-0.843-4.376-3.835-4.962C287.475,378.952,293.649,385.616,297.793,389.1z M301.075,283.009
		c0.993-2.181,2.663-3.597,3.286-6.199c-2.776-0.376-7.248,1.182-7.116-2.484c-3.089,1.465-3.8,5.623-6.021,8.065
		C293.025,285.647,297.736,282.085,301.075,283.009z M297.793,273.707c3.891,1.148,12.624-0.419,10.946-5.583
		c-2.978,1.275-5.124-0.361-8.757,0C299.764,270.18,296.558,272.064,297.793,273.707z M299.982,366.141
		c0.857,0.895,1.905,1.565,2.188,3.104c1.976-5.207,3.183-11.282,4.928-16.751C304.097,356.331,303.161,362.51,299.982,366.141z
		 M310.929,265.642c0.84-1.736,1.654-3.502,2.736-4.964c-2.429-1.888-6.6,1.415-9.303-0.623
		C300.24,265.905,304.363,266.2,310.929,265.642z M307.098,258.196c4.396-0.392,9.202-0.323,10.398-4.341
		c-1.808-1.197-5.532,0.737-8.757,0C308.948,256.16,306.52,255.475,307.098,258.196z M310.929,250.753
		c3.766,0.744,10.206-0.837,10.946-5.585c-1.825-1.418-4.332,1.687-7.665,0.621C313.349,247.709,312.325,249.44,310.929,250.753z
		 M312.568,344.43c1.187,0.289,3.188-3.816,3.833-6.204C314.604,339.702,313.854,342.369,312.568,344.43z M316.401,243.308
		c2.433-1.796,6.594-1.627,8.21-4.345C321.84,237.901,316.258,238.996,316.401,243.308z M321.328,234.623
		c0.458,3.054,3.454-0.231,4.924,0c0.761-0.999,0.465-3.199,1.643-3.722C325.318,229.241,322.233,232.324,321.328,234.623z
		 M325.158,228.418c1.523-1.374,4.49-1.115,4.926-3.72C327.002,224.308,325.808,226.051,325.158,228.418z M328.992,221.594
		c2.843-0.498,4.021-2.887,4.377-6.204C331.286,216.755,329.492,218.443,328.992,221.594z M329.537,231.523
		c1.826-0.011,2.905-6.213,4.377-8.688C331.692,222.396,331.354,229.433,329.537,231.523z M333.37,212.907
		c2.433-0.55,2.19-4.132,3.829-5.581C334.988,205.668,334.152,210.883,333.37,212.907z M333.914,220.354
		c3.145-3.473,6.084-12.541,8.21-19.229C338.521,206.549,337.188,214.551,333.914,220.354z M337.747,202.981
		c1.627-1.256,2.725-3.112,3.283-5.583C338.993,198.188,338.733,201.003,337.747,202.981z M341.578,196.779
		c1.144-2.426,2.647-4.443,3.283-7.448C343.152,191.136,340.774,194.021,341.578,196.779z M349.789,292.941
		c1.369,1.754,4.479,1.539,6.569,2.48c8.185,12.225,16.787,23.981,26.819,34.121c0.837-2.359,0.91-5.585,1.091-8.686
		c-10.558-9.952-19.095-22.194-31.743-29.78C350.653,290.615,351.829,293.598,349.789,292.941z M354.713,287.976
		c10.525,9.162,20.725,18.692,30.101,29.155c3.693-9.044-7.212-15.318-12.584-20.473c-5.489-5.254-9.601-10.716-14.233-13.026
		C357.32,285.547,356.19,286.96,354.713,287.976z M387.005,306.585c-1.076-2.517,0.995-4.456,1.093-7.444
		c-9.461-6.02-14.505-17.054-23.532-23.574c-1.689,1.602-3.439,3.136-3.831,6.206C370.428,288.98,377.174,299.535,387.005,306.585z
		 M365.661,338.847c-1.522,1.365,0.076,4.421,0,6.206C366.966,343.927,365.968,340.192,365.661,338.847z M366.209,272.465
		c7.771,7.524,14.255,16.513,22.439,23.572c0.22-2.847,1.302-4.724,1.641-7.442c-5.991-7.684-12.869-14.364-19.705-21.094
		C368.266,268.181,368.286,271.512,366.209,272.465z M366.754,316.513c0.363,14.685,11.82,16.795,15.874,27.3
		c-4.702-0.319-7.395-8.12-12.589-9.928c0.96,10.078,8.225,13.014,13.138,18.61c-0.427-7.099,0.761-12.372,0.544-19.233
		C378.809,329.569,372.509,319.218,366.754,316.513z M370.038,365.524c1.24-0.659,0.207-3.902,0.546-5.585
		C368.495,359.652,369.55,364.785,370.038,365.524z M371.135,345.053c0.02,11.161,7.23,17.414,12.041,21.089
		C384.442,353.942,376.522,351.211,371.135,345.053z M371.682,263.783c5.832,7.448,13.552,12.76,18.608,21.089
		c1.562-1.124,1.767-3.785,2.19-6.202c-4.591-7.412-10.734-13.06-15.872-19.852C373.809,259.164,373.984,262.879,371.682,263.783z
		 M371.682,385.378c1.336,0.552,2.373,1.443,4.377,1.238c-1.108-1.436-1.819-3.313-3.829-3.722
		C372.299,384.005,371.56,384.205,371.682,385.378z M371.682,389.1c0.013,3.74,0.268,5.955,1.093,8.686
		c2.66,3.432,9.634,1.702,11.493-1.245c-0.699-3.39-0.033-4.474-0.547-7.441C379.895,390.576,375.927,388.976,371.682,389.1z
		 M372.23,378.549c3.03,2.359,5.739,5.074,7.662,8.69c1.454-0.419,2.787-0.977,3.829-1.861c-2.366-5.801-6.596-9.485-10.946-13.031
		C373.159,375.057,371.845,375.842,372.23,378.549z M372.774,360.562c0.463,2.371,0.712,4.979,0.547,8.065
		c3.782,2.743,7.008,6.117,9.307,10.547c1.481-2.914-0.287-6.495,0.548-9.307C378.646,367.964,376.988,362.815,372.774,360.562z
		 M394.121,274.948c1.992-12.512-8.831-14.981-12.588-22.955c-2.507,0.262-2.618,3.236-4.378,4.341
		C383.708,261.521,388.2,269.043,394.121,274.948z M395.764,263.783c1.573-10.427-6.796-12.851-9.853-19.854
		C378.2,250.861,391.957,258.324,395.764,263.783z M386.459,240.207c3.499,3.885,5.736,9.211,9.85,12.405
		c0.445-8.04-3.324-12.572-7.66-16.748C388.227,237.662,387.78,239.434,386.459,240.207z M395.764,240.828
		c0.701-3.706-1.118-9.895-1.643-14.273C388.654,230.936,392.485,236.836,395.764,240.828z"/>
</g>
</svg>
