<?xml version="1.0" encoding="utf-8"?>
<!-- Generator: Adobe Illustrator 17.0.0, SVG Export Plug-In . SVG Version: 6.00 Build 0)  -->
<!DOCTYPE svg PUBLIC "-//W3C//DTD SVG 1.1//EN" "http://www.w3.org/Graphics/SVG/1.1/DTD/svg11.dtd">
<svg version="1.1" id="Layer_1" xmlns="http://www.w3.org/2000/svg" xmlns:xlink="http://www.w3.org/1999/xlink" x="0px" y="0px"
	 width="800px" height="600px" viewBox="0 0 800 600" enable-background="new 0 0 800 600" xml:space="preserve">
<g>
	<path d="M332.743,437.57c-8.573-11.008-17.306-21.901-24.8-33.621c-0.18-0.448-0.377-0.889-0.553-1.33
		c-4.315-11.094-9.399-23.41-10.19-35.401c-0.495-7.519-0.193-14.89,0.566-22.266c9.992-1.198,24.106,0.273,35.172-0.75
		c0,0,9.251-24.738,16.283-34.59c-5.551-11.803-4.231-38.529-4.231-38.529s-11.562-1.681-22.129-21.774
		c-8.091-15.382-13.144-31.789-11.053-39.563c2.093-7.774,9.197-10.903,14.065-12.912c0.158-11.254-6.665-22.121-9.368-39.802
		c-2.706-17.681,8.383-30.65,14.371-34.021c-5.236-7.81,2.504-12.82,11.157-15.638c8.648-2.825,23.906-6,39.386-7.631
		c40.556-4.277,116.716,7.734,123.768,11.464c7.052,3.726,7.828,8.161,6.745,15.409c-12.109-4.281-22.107-0.853-22.107-0.853
		c23.288,31.467,13.885,61.327,13.885,61.327s23.371,51.422,24.164,89.709c-4.75,3.287-12.651,4.069-18.45,4.119
		c2.215,4.445,3.979,16.344,2.609,19.087c-1.372,2.743-4.722,4.663-7.779,5.849c9.389,10.55-4.379,18.273-7.732,19.585
		c0.962,6.235,4.742,19.978,4.742,19.978s4.958-0.437,7.476,2.263c2.512,2.701,4.877,8.354,7.285,12.673
		c2.406,4.315,8.07,15.602,9.949,17.779c3.201,3.716,0.967,15.251,0.814,19.854c-0.353,10.584-3.596,20.173-9.086,29.21
		c-8.866,14.596-19.418,28.87-33.698,38.636c-27.401,18.721-61.585,24.589-93.291,13.652
		C367.1,471.33,348.841,455.646,332.743,437.57z"/>
	<path fill="#FFFFFF" d="M341.85,114.845c8.267-0.281,26.185-3.947,34.213-6.706c-2.952-1.444-11.207-2.682-20.336-0.33
		C346.596,110.156,342.363,113.405,341.85,114.845z"/>
	<path fill="#DB9575" d="M355.466,205.476c-5.602-3.201-18.646-5.502-27.929-2.572c-9.282,2.932-14.055,11.472-8.468,27.739
		c5.591,16.26,18.575,36.715,29.179,34.601c10.599-2.12,7.371-19.057,4.867-22.926c-2.507-3.875-5.879-6.45-9.674-7.734
		c-3.788-1.274-0.889-6.494,2.936-5.349c9.107,2.736,14.384,14.221,14.556,22.683c0.175,8.459-2.023,15.756-9.372,18.007
		c-1.957,13.12-2.658,27.943,5.029,39.76c-4.963,9.953-13.79,22.922-16.097,36.29c20.651,12.933,45.289,18.025,70.058,19.349
		c14.321,0.759,82.928-2.776,86.038-9.713c3.108-6.939-4.239-19.997-6.902-30.748c-9.87,0.273-26.324-1.551-25.572-8.846
		c10.995,3.169,29.516,5.718,34.98-0.116c5.466-5.836-0.079-9.262-4.102-9.991c-7.035-1.28-27.125-0.746-40.996-3.623
		c-18.737-3.886-37.249-18.509-32.22-25.591c12.34,14.621,24.678,20.564,45.7,23.307c8.271,1.076,33.347,2.667,37.684-0.185
		c2.656-1.744,1.262-12.32-3.048-18.143c-8.434-0.656-20.697-2.927-23.438-4.525c-2.741-1.595-4.971-6.303-2.405-7.761
		c8.168,5.321,35.679,7.213,46.27,3.617c0,0-0.414-32.974-24.772-87.212c1.595-3.68,10.784-25.545-13.81-61.518
		c-18.156,9.627-48.493,11.67-52.783,7.33c8.811-1.154,25.853-2.31,39.982-7.393c-12.783,1.587-31.331,3.816-44.598,4.882
		c-13.269,1.068-51.244,2.392-76.917,4.951C356.487,149.643,360.018,181.024,355.466,205.476z"/>
	<path fill="#FFFFFF" d="M440.678,103.816c4.592,1.902,51.709,11.847,64.976,15.272C508.743,113.586,476.44,108.139,440.678,103.816
		z"/>
	<path d="M417.176,228.193c6.158,3.501,47.148,10.714,63.54,7.068c5.402-5.594,4.703-15.146,5.174-22.384
		c6.611-0.385,5.838-9.564,4.896-18.547c-0.94-8.978-2.055-17.746-5.759-18.452l-2.855,0.458c1.636,9.36,4.195,22.199,1.836,31.896
		c-50.665-10.388-57.135-5.275-60.125-3.058C420.893,207.382,416.961,221.461,417.176,228.193z"/>
	<path fill="#FFFFFF" d="M421.638,226.219c6.379,2.171,20.522,3.438,27.327,4.768c-5.184-7.608-5.613-19.654-4.09-24.748
		c-5.147-1.547-15.226-0.349-17.869,0.916C424.364,208.423,420.323,221.362,421.638,226.219z"/>
	<path fill="#63B5E5" d="M453.348,231.694c1.111,0.771,13.72,1.238,14.318,1.33c0,0-10.218-6.662-8.41-14.94
		c1.267-5.811,10.265-8.919,10.265-8.919l-20.376-2.858C445.675,213.58,447.584,227.478,453.348,231.694z"/>
	<path fill="#A59566" d="M307.301,404.886c-6.542-13.301-9.597-25.593-10.285-35.418c-0.684-9.827-0.459-15.312,0.28-19.12
		c8.535-1.595,23.681-0.427,36.473-0.674c8.434,5.199,39.714,18.429,73.312,19.671c33.6,1.238,85.768-3.917,91.854-7.757
		c6.085-3.842,3.193-8.644,3.264-11.674c2.611-0.939,5.094,1.116,8.611,8.507c2.892,6.084,8.984,15.457,16.873,26.493
		c1.948,21.113-4.495,35.357-9.935,44.421c-8.226,13.709-20.397,28.018-34.729,37.703c-25.366,17.136-62.048,24.54-93.461,12.797
		C363.284,470.01,324.75,440.359,307.301,404.886z"/>
	<path fill="#E8C0B0" d="M415.176,139.949c-11.668,1.439-25.986,7.791-22.754,13.023c3.235,5.229,12.518,6.618,24.08,2.507
		C428.069,151.366,428.562,138.297,415.176,139.949z"/>
	<path fill="#E8C0B0" d="M503.983,236.819c-1.173,4.968-1.829,14.688,0.901,18.383c2.731,3.691,9.462,5.069,7.887-3.924
		C511.198,242.275,505.977,228.356,503.983,236.819z"/>
	<path fill="#E8C0B0" d="M414.308,240.924c-10.675,1.145-16.493,7.757-14.079,13.593c2.41,5.834,20.57,8.915,25.814,3.129
		C431.287,251.861,431.373,239.1,414.308,240.924z"/>
	<path fill="#FFFFFF" d="M480.442,217.544c0.804,3.447,0.112,8.863-1.506,10.062c-1.618,1.196-5.262-2.997-4.903-7.11
		C474.305,217.392,479.23,212.384,480.442,217.544z"/>
</g>
</svg>
