<?xml version="1.0" encoding="utf-8"?>
<!-- Generator: Adobe Illustrator 17.0.0, SVG Export Plug-In . SVG Version: 6.00 Build 0)  -->
<!DOCTYPE svg PUBLIC "-//W3C//DTD SVG 1.1//EN" "http://www.w3.org/Graphics/SVG/1.1/DTD/svg11.dtd">
<svg version="1.1" id="Layer_1" xmlns="http://www.w3.org/2000/svg" xmlns:xlink="http://www.w3.org/1999/xlink" x="0px" y="0px"
	 width="800px" height="600px" viewBox="0 0 800 600" enable-background="new 0 0 800 600" xml:space="preserve">
<g>
	<g>
		<path fill="#333333" d="M488.786,154.759c-1.38-1.38-3.449-2.76-5.517-3.449c-0.695-0.691-2.078-0.691-2.763-0.691
			c-11.037-4.14-22.084-7.592-33.121-9.661c-13.8-6.209-28.98-7.592-46.232-6.209c-6.9,1.377-13.8,3.449-20.7,5.517
			c-13.112,0-25.532,2.76-38.638,6.212c-31.052,5.52-56.584,18.632-76.596,39.333c4.144-6.901,7.595-13.8,11.732-20.701
			c-17.252,17.249-30.364,37.258-39.333,60.718c-1.383,2.072-3.451,4.832-4.832,7.592c-8.274,8.969-14.489,20.009-18.625,33.121
			c-12.426,44.161-10.348,87.633,6.9,129.722c10.352,24.844,25.526,43.472,46.226,56.581c18.633,16.564,40.028,24.84,63.485,26.912
			c29.669,8.969,60.718,12.421,93.15,8.969c16.564-1.38,31.052-6.9,42.095-15.869c44.853-20.012,74.522-53.132,90.39-100.05
			c-0.689-0.692-0.689-0.692,0-1.384c0-0.691,0-1.38,0.685-2.068c1.383-1.38,2.763-4.14,4.146-6.212
			c3.449-6.211,5.517-12.42,7.585-19.32c2.763-12.417,4.147-24.149,4.147-36.569c0.685-28.292-4.147-53.824-15.184-77.973h0.689
			c-4.136-29.669-20.7-51.061-48.989-64.862c-8.969-8.279-19.317-15.868-31.049-22.768c-4.832-1.384-9.664-1.384-13.8,1.376
			c2.068,3.452,6.205,4.14,13.105,3.452c4.832,3.449,10.348,6.209,15.18,9.661C491.543,155.451,490.169,154.759,488.786,154.759z
			 M466.706,154.067c-2.068-2.068-4.14-3.448-6.215-5.517c3.452,1.377,6.9,2.069,11.047,3.449
			C469.469,151.999,468.086,153.379,466.706,154.067z M448.766,147.167c0.688,0,0.688,0,0.688,0c3.452,1.383,6.901,3.452,9.664,5.52
			c-5.527-2.068-11.732-2.76-18.632-4.137l0,0v1.377c-7.595-2.068-15.181-2.76-22.769-3.449l-0.695,0.689
			c7.595,0,15.184,1.383,22.084,3.452c0,0,0,0,0,0.691c2.763,0.689,4.832,0.689,6.9,0.689c11.731,3.452,23.464,8.28,35.186,15.18
			c1.383,1.38,3.451,2.072,4.832,3.449c8.283,8.972,16.564,19.324,24.847,28.984c1.373,0,1.373-0.691,2.068-1.383
			c0,0,0-0.689-0.695-1.377c0,0,0-1.38-0.689-1.38c-2.068-4.143-4.832-6.903-6.9-10.352c17.937,15.869,31.052,35.192,39.333,57.961
			c5.519,15.18,8.968,31.049,11.037,47.609c0,2.763,0,6.9,0,9.663c-0.685,4.829-2.069,8.969-2.754,13.109
			c-15.875-17.941-33.127-35.189-50.379-52.441c1.384-2.068,2.763-4.14,4.146-6.9c-2.068,2.76-3.451,4.14-4.832,6.209
			c-0.689,0-1.383-0.689-1.383-1.376c-1.38,0-2.068,0-2.753,0.688c-0.695,0-0.695,0-1.384,0.689
			c1.384,0.692,2.069,2.075,2.757,3.452c-2.068,2.76-4.136,5.52-6.205,8.28c-0.694-0.689-0.694-0.689-0.694-0.689
			c1.38-4.143,2.763-8.969,2.763-13.112c2.068-4.832,4.136-9.657,5.517-15.18c-1.38,0-2.753,0-2.753,0.688
			c0-2.068,1.373-4.14,2.068-6.208c-1.383,0-2.763,0-3.452,1.38c-17.248,26.912-33.121,54.513-48.301,82.802
			c-19.32,35.88-39.332,70.381-60.033,105.573c-5.52-8.972-11.037-17.252-17.252-25.532c-3.449-5.52-6.897-9.66-11.037-15.177
			c-6.9-11.732-14.492-22.772-22.776-33.124c-12.417-19.32-24.837-37.26-38.638-55.201c5.517-7.592,10.348-14.491,16.564-20.7
			c3.449,3.449,6.9,6.209,11.037,9.66c6.212,9.661,13.112,20.701,18.632,31.049c3.449,4.832,6.205,9.663,9.657,13.8
			c2.76,7.592,7.592,15.183,13.8,22.084c2.76,0,6.211,0,9.663,0c0.685-0.692,1.38-1.384,2.068-2.069c0-4.832,1.38-8.975,4.832-13.8
			c0.685-0.691,1.38-1.383,2.069-2.072c0,0.689,0,0.689,0,0.689c0,1.383,0,2.068,0,3.452c1.38-0.692,2.068-0.692,2.763-0.692v-1.377
			c0-0.691,0-1.383,0-2.072c4.136-6.211,8.28-11.729,12.417-18.629c3.452-4.832,6.9-9.663,10.352-15.183
			c11.037-15.869,21.386-32.432,31.049-48.992c0-0.689,0-1.377,0-2.069c0.689-1.38,0.689-4.14,0.689-6.208
			c7.595-12.424,13.8-25.532,20.012-38.641c0.689,0,1.384-0.692,2.069-1.383c0.694-0.692,0.694-1.377,0.694-1.377
			c0-0.692,0-1.383-0.694-1.383c0-0.689,0-0.689,0.694-0.689c6.9,4.831,13.105,11.04,20.006,17.248
			c2.068,2.76,4.146,5.523,6.9,7.592c1.384,2.068,2.763,4.14,4.147,6.208h0.685c4.136,3.452,8.968,7.592,13.115,11.732
			c0.685,0,0.685-0.692,0-1.38c-12.427-18.629-27.601-36.569-44.164-52.444h-0.689c-0.694,0-1.38,0-2.075,0.692
			c-0.689,0-0.689,0-1.377,0c0.689,0.691,0.689,1.383,0.689,1.383c-0.689,2.068-1.38,2.76-2.068,4.14
			c-12.42-17.252-27.601-31.052-44.849-43.472c-2.072,0-3.451,0-5.52-0.692l-0.694,0.692c16.564,13.8,32.432,28.98,47.615,48.301
			c-1.383,2.072-3.451,4.831-5.52,7.592c-14.495-19.32-32.432-35.192-53.132-47.613l-0.695,0.692
			c17.252,15.177,34.501,33.121,51.064,51.749c-2.068,4.828-4.832,8.28-7.585,12.421c-2.763,4.832-5.527,10.352-6.903,15.869
			c-2.76,4.831-5.523,8.971-8.28,14.491c2.068-6.9,4.137-13.8,5.52-20.7c0,0,0,0-0.689,0c-0.695,0.692-2.075,0.692-2.075,0.692
			c-0.689,0.689-0.689,1.38-1.377,2.068c-13.112,28.98-29.675,57.273-47.612,84.873c-14.489-13.112-29.669-24.152-46.921-33.809
			c-2.76-3.452-4.143-6.215-6.9-9.663c-0.692-0.689-1.38-1.38-2.76-2.068c-4.14-2.76-8.283-6.212-12.421-9.661
			c0-0.692-1.38-1.383-1.38-2.072c-19.32-17.937-39.333-33.121-60.721-47.613c1.38-1.376,2.068-3.448,2.763-4.828
			c8.969-10.348,20.006-19.32,32.426-27.601c0,1.38,0,2.069,1.38,3.452c33.812,31.737,66.933,63.478,100.053,95.222
			c1.38,0,1.38-0.692,2.068-1.383c0,0,0-0.689-0.689-1.377c-0.689-1.383-1.38-2.072-2.763-2.76
			c-29.669-33.812-62.79-65.553-97.29-95.225c2.763-2.068,5.52-3.449,8.972-5.517c5.517-3.452,11.044-6.212,17.248-8.972
			c28.296,21.389,56.582,44.161,84.185,67.622c7.586,6.208,14.486,8.968,20.701,8.968c-0.689-0.688-1.384-1.376-1.384-2.068
			c-31.737-28.292-65.55-53.824-101.433-75.901c8.283-3.449,15.875-6.9,24.152-9.661c0,0,0,0-0.689,0.689
			c3.449,6.212,8.969,12.424,15.869,17.941c9.664,6.9,18.632,13.108,26.912,20.012c15.872,12.421,31.741,22.772,46.921,31.741
			c-1.38-2.76-3.449-4.829-5.517-6.9c-26.22-22.08-53.821-44.161-80.736-64.861h-0.685c9.657-2.76,18.625-6.209,28.286-8.969
			c4.832,0,8.971,0,13.803,0c0-0.691,0-0.691-0.688-0.691c-2.075-0.692-4.144-0.692-6.212-0.692c1.38-0.689,2.068-0.689,3.449-0.689
			C402.536,144.411,425.305,144.411,448.766,147.167z M461.874,196.851c0.691-1.38,1.38-2.072,2.068-3.451
			c0.695,1.38,2.075,2.072,2.763,3.451h-0.689c-0.694,0.689-1.38,0.689-1.38,1.377c-0.695,0-0.695,0.692-0.695,1.383
			c0.695,0,0.695,0,0.695,0.689c0,0,0,0,0,0.689l-0.695-0.689c0-0.689,0-0.689-0.689-0.689c0.689-0.691,0.689-1.383,1.384-2.072
			C463.254,196.851,462.565,196.851,461.874,196.851z M478.438,158.899c-1.384-1.38-3.452-2.072-4.832-2.759h-1.383
			c0.695,0.688,0.695,0.688,1.383,1.38c-2.068-0.692-3.451-1.38-4.832-2.068c4.144,0,8.28,0.689,12.417,2.068
			c3.451,0.692,6.215,2.068,9.663,3.449c-1.38-0.689-2.068-0.689-3.449-0.689l-0.688,0.689c2.068,0.691,4.825,0.691,6.9,1.383
			c13.8,6.9,25.526,17.249,34.5,31.738c0,0.691,1.374,1.383,1.374,2.763C515.692,179.6,498.443,167.179,478.438,158.899z
			 M471.537,158.899c2.068,0.689,4.137,1.38,6.205,2.76c0.695,0,0.695,0,0.695,0.692
			C476.369,160.968,474.291,160.279,471.537,158.899z M501.206,177.528c-2.763-2.76-5.52-4.829-8.969-6.9
			c-0.694-1.376-2.068-2.068-2.763-2.76c17.248,10.352,31.049,23.461,42.095,39.333C523.287,196.16,513.624,185.812,501.206,177.528
			z M494.992,274.13c1.383-2.757,3.451-5.517,4.832-8.969c14.495,19.32,31.052,37.261,50.372,53.822l0,0
			c-1.376,4.832-2.757,9.66-4.825,13.8c-0.695,0.691-2.078,0.691-2.763,1.38c-0.689,0-0.689,0-1.383,0.692
			c2.068,0.688,4.146,1.38,6.215,2.068c0,0,0.685,0,1.38-0.689c-2.075,5.52-4.144,11.04-6.9,16.557c-0.694,0-1.38-0.685-1.38-1.376
			c-0.695,0-1.384-1.38-1.384-1.38c-18.632-20.012-35.88-40.712-53.132-60.721c2.763-3.451,4.146-6.9,6.215-11.04
			c12.417,13.8,24.837,26.909,37.255,40.709c6.903,7.592,12.427,10.348,17.947,8.28c0-0.689,0-1.38,0-1.38
			C530.187,307.942,512.938,290.69,494.992,274.13z M475.674,307.942c18.632,17.94,36.569,36.572,53.818,55.892
			c-2.068,3.449-4.137,6.897-5.517,11.04c-16.557-20.012-35.189-37.952-55.89-52.441
			C470.154,317.605,472.918,312.774,475.674,307.942z M477.054,306.562c2.068-4.14,4.832-8.971,6.901-13.108
			c8.283,11.729,17.937,24.152,28.288,35.878c4.144,4.832,8.975,10.352,13.112,16.56c4.832,6.215,9.664,9.663,14.489,11.04
			c-1.374,2.075-2.757,4.832-4.137,7.592c-0.689-2.068-1.384-3.449-2.069-4.832c0-1.377,0-2.069-0.694-3.449
			c-0.689-0.689-2.069-1.38-2.757-2.068c-16.564-17.252-33.812-33.121-51.749-48.301c0,0,0,0-0.695,0
			C477.054,305.873,477.054,305.873,477.054,306.562z M549.507,209.96c0.689,2.068,0.689,3.451,0.689,4.828
			c-2.757-6.209-6.903-12.42-11.04-17.937C542.607,200.988,546.056,205.129,549.507,209.96z M558.476,248.604
			c-1.383-2.763-2.068-6.215-2.757-8.975c4.137,11.731,7.588,24.844,8.969,37.952c4.136,35.881-2.763,69.693-18.632,100.053
			c0.689,0,1.383-0.692,2.763-1.38c-2.763,4.829-4.144,8.278-6.9,12.421c-4.832,10.348-10.348,20.009-16.564,28.98
			c-11.037,14.489-22.768,26.221-35.186,35.881c4.822-5.52,9.654-12.42,13.8-19.32c-5.527,4.14-11.047,8.277-16.564,13.8
			c-10.352,8.969-21.389,15.869-35.189,19.32c-2.075,0.689-4.143,1.38-6.211,2.072c0-0.692,0-1.383-0.689-1.383
			c-0.695-0.689-0.695-1.38-1.38-1.38c-11.046-11.037-23.463-20.7-37.264-28.288c-2.068-0.692-2.757,0-1.383,1.38
			c12.426,10.348,24.846,20.009,37.952,29.672c-4.826,1.377-9.657,2.76-14.489,3.449c-7.588-6.212-14.489-11.732-22.081-19.32
			c7.592,5.52,15.181,8.972,22.769,11.732c0,0,0-0.692-0.689-0.692c-8.969-4.831-17.249-10.352-26.218-15.18
			c-2.763-2.072-4.146-4.14-6.215-5.52c2.068-2.76,3.452-5.52,6.215-8.969c2.754-4.14,5.518-7.592,8.969-11.732
			c15.181,9.661,29.669,21.392,43.469,34.5c3.449,0,6.212,0.692,8.28,2.069c0.689,0,1.384,0,1.384-0.689s0-0.689,0-1.38
			c-15.872-14.491-32.432-27.6-50.373-37.952c2.072-4.14,4.826-8.28,7.589-12.417c15.183,14.486,31.052,28.286,47.616,42.089
			c0.685-0.689,1.374-0.689,2.068-1.38c0,0,0-0.692-0.694-1.38c-0.689,0-0.689-0.692-1.374-1.38
			c-14.495-14.489-29.679-28.98-45.547-42.089c2.763-4.143,5.52-8.283,7.595-12.423c14.489,11.732,29.669,24.841,44.852,37.949
			c1.374,0,2.069,0,3.449,0c0.689,0,0.689,0,1.374,0c0-0.685,0-0.685-0.685-1.376c-14.489-14.492-30.364-27.601-47.615-39.333
			c2.075-4.828,4.832-9.66,7.595-14.491c0,0,0.688,0,1.383,0.691c11.722,7.592,22.769,16.56,31.737,27.601
			c3.449,1.383,6.9,2.76,9.664,5.523c2.068,2.068,3.449,4.137,4.822,6.9c0.695,0,1.384,0,2.078-0.691c0-0.692,0-0.692,0-1.38
			c-1.383-1.38-2.078-3.451-3.451-4.828c-13.8-13.8-27.601-26.224-44.164-37.952c2.763-4.831,5.52-10.348,8.283-15.18
			c6.9,6.9,14.486,15.18,22.08,23.46c10.352,12.42,22.074,21.389,33.805,26.909c-6.9,13.112-15.18,24.149-23.454,35.881
			c1.373,0,2.754,0,3.449-0.689c0.688,0,0.688-1.38,1.373-1.38c12.426-15.181,22.779-31.049,31.052-47.613
			c2.763-1.376,5.526-3.451,7.595-4.828c1.38-0.692,2.753-0.692,3.449-1.383c0.688-0.689,0.688-0.689,0.688-0.689
			c0-0.689,0-0.689-0.688-1.38c7.588-6.896,13.8-15.872,18.632-26.22c4.137-10.352,6.9-21.389,8.274-31.738c0,0,0,0,0-0.691
			c0.694-0.692,1.383-0.692,1.383-0.692c0.695-0.689,1.38-1.38,2.069-1.38c0.694-0.689,1.38-1.38,2.075-1.38
			c0.688-0.689,0.688-1.38,0.688-1.38c0.689-8.28,1.38-16.56,1.38-24.841c0-12.421-1.38-24.841-4.832-36.573
			C559.856,254.121,558.476,251.361,558.476,248.604z M224.513,254.812c0,0.689,0,0.689,0,2.068c0,0,0,0,0,0.689
			c0,0.692,0,1.384,0,2.071h1.374c-1.374,2.763-2.069,6.212-3.452,8.972c-13.8,39.329-13.105,77.278,0.695,113.85
			c0.688,1.38,0.688,2.069,1.383,3.452c-4.146-9.661-6.9-19.324-8.978-29.672C207.949,320.362,210.713,286.553,224.513,254.812z
			 M254.182,252.052c0.685,0.689,0.685,0.689,1.38,1.377c11.037,7.592,20.005,16.56,28.288,26.224
			c3.449,2.76,7.589,4.137,10.349,4.828c-1.38,2.071-2.069,3.448-2.76,5.523c-1.377-0.692-2.072-2.075-2.757-2.763
			c0,0,0,0-0.694,0.689c-0.689,0-0.689,0-0.689,0c-13.8-16.557-30.361-31.049-48.301-43.469c2.763-6.9,5.52-13.8,8.283-21.389
			c19.317,15.869,38.638,31.049,58.649,47.609h-0.692c-3.451,4.14-6.208,8.28-8.968,12.421l-0.689-0.689
			c-1.383-2.76-4.143-5.523-8.283-6.9c0,0-0.685-0.692-1.38-1.384c-8.28-9.657-18.633-18.629-28.981-26.217
			c-3.451-0.692-5.52,0-7.588,2.068C250.73,249.981,252.799,251.361,254.182,252.052z M236.235,268.613
			c13.115,15.869,28.295,29.669,45.547,41.401c0,0.689,0,0.689-0.695,0.689c0.695,1.38,0.695,2.76,0,4.14
			c-0.688,2.072,0.695,3.449,2.763,2.763c0.689-0.692,0.689-1.383,0.689-2.763c0.692-0.689,0.692-1.38,1.38-1.38
			c11.731,10.352,22.768,22.08,33.12,33.812c9.66,13.108,20.012,26.218,30.364,38.641c-14.489-15.183-28.984-30.361-44.164-45.541
			c-2.757-0.692-4.825,0-7.588,1.38c2.069,1.377,4.137,2.068,5.517,2.76c0,0.692,1.384,1.377,1.384,2.068
			c24.837,26.909,50.369,55.201,75.213,82.802l0.689,0.692c1.38,1.38,2.068,2.068,2.763,3.448c-1.384,2.069-2.763,4.832-4.144,7.592
			c-11.731-13.109-23.457-26.224-35.189-39.333c-31.052-33.121-62.101-66.241-94.533-97.979c-0.689,0-1.383,0.685-2.763,1.377
			c0,0,0,0,0,0.691c14.495,17.249,29.675,33.809,44.853,51.058c30.36,33.812,62.101,66.244,94.533,98.676
			c1.38-0.691,2.068-1.383,2.763-2.072c0.685,0,0.685,0,0.685-0.692c-3.448-3.448-6.205-6.9-8.968-10.352
			c2.068-2.068,4.136-4.137,5.52-5.517c1.38,1.38,3.448,2.76,4.832,4.832c-0.689,0-0.689,0-0.689,0.685
			c9.657,11.044,20.7,21.392,32.426,31.052c-9.657,1.38-18.625,2.072-28.289,2.072c0.688,0,0.688,0,1.38-0.692
			c-19.317-18.632-37.949-39.332-56.581-60.718c-29.669-34.5-62.79-66.244-98.67-93.845h-0.694
			c7.595,9.66,17.251,20.012,28.295,30.361c11.037,10.352,22.08,21.392,33.117,33.121c28.289,30.363,57.965,61.413,89.016,91.773
			c-4.143,0-8.975,0-13.112-0.692c-17.252-18.632-35.884-36.569-55.204-54.509c-31.737-29.672-62.786-59.341-93.15-89.01
			c0-5.523,0.685-9.663,2.068-15.183h-0.689c0,0.691,0,1.383,0,1.383c-2.763-17.252-2.763-33.815,0.689-50.376
			c2.068-6.901,4.832-14.489,7.595-21.389c6.9,7.588,14.486,15.872,22.074,24.84c7.595,8.972,15.875,15.872,25.532,20.009
			c0.694,0.692,1.38,1.383,2.068,2.763c0.694,0,0.694,0,0.694,0.689c-1.383,2.76-2.763,5.52-4.143,8.28
			c-1.377-1.38-2.068-2.069-2.757-3.449c-1.383,0-2.068,0-2.068,1.38c0,2.069,0,2.76,0,4.137
			c-13.115-12.417-27.601-24.149-41.401-35.878C236.93,268.613,236.235,268.613,236.235,268.613z M308.688,273.441
			c0.695,0.689,1.384,1.38,2.075,2.072c-0.691-0.692-1.38-0.692-2.075-0.692c0,0.692,0,0.692-0.689,0.692
			C307.999,274.821,308.688,274.13,308.688,273.441z M293.514,305.182L293.514,305.182c0.685-0.692,0.685-1.377,1.373-2.069
			c4.144,5.517,8.28,11.729,12.427,17.249c-1.384-0.689-2.076-1.38-2.763-2.757C301.1,313.462,297.651,309.322,293.514,305.182z
			 M239.687,403.855c4.143,4.137,8.975,8.969,13.8,13.112c11.043,20.697,26.912,36.569,47.612,46.229
			c2.068,2.072,4.14,3.449,6.215,5.52c-15.184-6.208-28.984-15.18-40.716-26.909C254.867,430.076,245.898,417.655,239.687,403.855z
			 M259.699,416.276c-2.76-4.14-4.832-8.283-7.585-12.421c29.669,26.221,61.406,48.301,95.907,65.553
			c-2.757-2.763-4.832-4.832-6.9-6.9c4.144,3.448,8.283,6.208,13.112,9.66c-6.211-1.383-13.112-2.76-19.317-4.832
			c-5.526-1.38-11.043-2.068-15.183-2.76c-6.9-4.831-13.112-8.969-19.317-14.492C287.299,438.356,273.499,427.316,259.699,416.276z
			 M243.83,396.263c1.383,3.452,2.757,6.903,4.137,10.352c-4.137-3.449-7.586-6.208-11.037-8.971
			c-8.28-20.009-11.044-40.712-8.969-63.481c7.588,11.044,17.252,21.392,27.601,31.052c15.177,15.869,31.052,31.049,46.226,46.229
			c23.463,22.772,47.615,44.164,73.145,63.481c-4.832-0.689-8.969-1.38-13.8-1.38c-8.969-7.589-17.249-14.489-25.529-21.389
			c-35.883-28.981-69.004-60.721-100.053-95.225c-2.763,0.691-2.763,2.76-0.689,6.211c6.205,8.28,13.106,16.564,20.006,24.841
			c26.22,26.909,54.516,51.753,84.873,73.833c-34.501-22.081-66.241-46.233-95.222-74.524c-1.38-4.137-3.452-8.969-4.831-13.109
			c0,2.072,0,5.523,0.694,8.972c-2.068-2.072-4.832-5.52-7.595-7.588c-2.757,4.14-1.374,8.277,4.144,13.8
			C239.687,392.124,241.762,393.507,243.83,396.263z M221.75,324.505h-1.383c1.383,1.377,2.068,2.757,2.763,4.137
			c-0.695,2.072-1.38,4.14-2.763,6.212c0,0.688,0,2.068,0,3.451c-0.685,6.209-0.685,13.109,0,18.626
			c-4.832-20.698-3.449-42.778,3.451-66.241c-0.688,11.04,0.695,21.392,2.763,31.744c-0.694,1.38-2.068,3.449-2.068,4.829
			C223.13,326.574,222.435,325.882,221.75,324.505z M276.951,438.356c6.211,5.52,12.417,11.04,19.32,16.56
			c-4.832-2.76-7.589-4.832-11.04-7.592C281.782,444.567,279.019,441.807,276.951,438.356z M532.944,367.283
			c0.694,0,0.694,0,0.694,0.692c-2.763,2.757-4.832,6.208-6.9,9.66c-0.695-0.692-0.695-0.692-0.695-1.38
			c1.38-3.448,2.763-6.9,4.144-11.04c0.688,0,0.688,0,0.688,0.691C531.57,366.591,532.255,366.591,532.944,367.283z
			 M460.491,336.234c2.075-3.451,4.147-7.592,5.527-10.352c19.32,16.56,37.258,34.5,55.201,53.824
			c-2.075,3.449-3.449,6.9-5.527,9.661c-0.685,0-0.685,0-0.685-0.692C499.823,368.663,481.191,351.415,460.491,336.234z
			 M452.217,351.415c2.757-4.14,4.137-8.284,6.9-12.424c17.937,15.184,33.805,32.432,48.989,51.753
			c1.38,0.692,2.763,1.38,4.136,2.763c-1.373,1.377-2.068,2.068-3.451,2.757c1.383,0,2.763-1.38,4.146-1.38
			c-2.068,2.76-3.452,6.208-6.215,9.66c0-0.689,0-1.377-0.685-1.377C490.855,383.155,472.918,365.906,452.217,351.415z
			 M383.216,327.954c0,0,0,0,0.688,0v-0.691c0.685,0,0.685,0,1.38-0.689c3.452-4.832,6.205-9.661,10.348-13.8
			c1.384-1.384,2.072-2.072,2.757-3.452c-8.274,12.421-17.937,24.841-26.217,37.952c-3.452-2.068-6.209-4.143-8.283-6.9
			c-0.685-0.692-0.685-0.692-0.685-0.692c-7.588-15.177-16.564-28.98-25.532-43.469c8.969,8.969,18.629,17.249,30.361,25.529
			c4.14,2.763,6.9,4.14,10.352,5.52c-2.763,4.143-5.52,8.28-8.968,12.42c1.373,0,2.757,0,4.137,0.692
			C376.316,336.234,379.764,332.091,383.216,327.954z M418.405,397.644c0.685-1.38,1.38-2.069,2.76-2.76
			c-0.692,1.38-1.38,2.071-2.075,3.451h-0.685l0,0C418.405,397.644,418.405,397.644,418.405,397.644z M416.336,401.784
			c0,0,0,0,0.685,0c-2.757,5.523-5.517,9.661-8.28,14.492c-0.688-0.692-1.376-0.692-2.068-0.692
			C410.122,410.064,412.885,405.924,416.336,401.784z M404.605,419.036c0.685,0,1.38,0.689,2.068,1.38
			c-4.137,6.209-7.588,12.421-11.04,19.32c-2.068-2.76-4.143-4.828-5.517-6.9c0.689-1.38,1.374-2.069,2.757-2.76
			c1.38,0,2.76-1.384,4.832-2.76c2.069-2.072,3.449-4.14,4.832-6.209C403.221,420.415,403.916,419.036,404.605,419.036z
			 M401.842,481.825c3.449,0.691,6.9,1.383,11.043,2.068c-22.769,2.075-44.164,0.692-64.864-4.137c2.068,0,4.143,0,5.52-0.688
			v-0.692c-5.52-0.692-11.04-1.38-16.557-2.068c-1.38-1.384-2.763-2.072-4.832-2.763
			C354.92,479.068,378.384,481.825,401.842,481.825z"/>
		<path fill="#333333" d="M435.653,150.619c-0.688,0-1.38,0-2.068,0c0,0-0.694,0-1.38,0.691c0,0,0,0.689-0.689,0.689
			c15.869,13.8,31.737,27.601,46.921,42.781c1.38,0,1.38,0,2.068-0.691c0-0.689,0-0.689,0-1.377
			c19.317,22.077,38.638,43.469,57.964,65.55c0.685,0,2.069,0,2.754-0.692c0.694,0,0.694-0.689,1.383-0.689
			c-0.689,0-0.689-1.38-1.383-2.068c-17.937-24.152-37.949-46.924-60.033-66.933c-0.685,0-0.685,0-1.374,0c0,0-0.695,0-1.38,0.689
			c0,0,0,0-0.695,0.691C466.706,172.699,452.905,160.279,435.653,150.619z"/>
		<path fill="#333333" d="M372.173,153.379c-2.072-0.692-2.072-0.692-2.072,0c20.015,20.7,41.404,39.332,64.173,57.272
			c0.692,0,2.068,0,2.068,0c0.695,1.377,1.38,1.377,1.38,2.069c1.383,2.76,3.451,3.448,5.52,2.76c0-1.38,0-2.069,0-3.452
			c-0.689-1.377-1.374-2.068-1.374-3.449c-1.383,0-2.078-1.38-2.763-2.068C417.717,187.88,395.633,170.628,372.173,153.379z"/>
		<path fill="#333333" d="M402.536,249.981c-1.383,0-2.763-1.377-4.146-1.377c-33.805-20.015-65.55-42.784-95.222-67.624
			c-0.685,0-0.685,0-1.38,0c-1.374,0.689-2.757,1.38-4.137,2.072c31.738,27.6,65.553,51.752,102.122,71.069
			c0.691,0.692,1.38,1.38,1.38,1.38c1.383,1.38,2.763,2.76,3.452,4.14c0.685,0,1.38-0.688,2.068-1.38c0,0,0-0.692-0.689-1.38
			c-0.694-1.38-1.38-2.068-2.068-2.76C403.916,252.741,402.536,251.361,402.536,249.981z"/>
		<path fill="#333333" d="M385.284,306.562c-0.695-1.38-2.068-2.072-3.452-3.449c-2.76-3.451-5.517-6.9-8.28-9.66
			c-31.052-35.192-65.553-64.864-104.19-89.702h-0.695c2.072,5.52,6.215,11.037,12.42,15.177
			c35.196,28.292,68.316,59.345,100.054,91.085c0.691,0,2.075,0,2.763,0c0.685-0.692,0.685-1.384,1.38-2.072
			C385.973,307.942,385.973,306.562,385.284,306.562z"/>
		<path fill="#333333" d="M498.443,235.489v0.692c15.181,17.94,31.744,37.26,49.681,57.273c1.383-0.692,2.072-1.38,3.452-2.763
			c0,0,0.694-0.685,0.694-1.377c0,0-0.694-0.691-0.694-1.383C535.707,267.23,517.77,249.981,498.443,235.489z"/>
	</g>
</g>
</svg>
