<?xml version="1.0" encoding="utf-8"?>
<!-- Generator: Adobe Illustrator 17.0.0, SVG Export Plug-In . SVG Version: 6.00 Build 0)  -->
<!DOCTYPE svg PUBLIC "-//W3C//DTD SVG 1.1//EN" "http://www.w3.org/Graphics/SVG/1.1/DTD/svg11.dtd">
<svg version="1.1" id="Layer_1" xmlns="http://www.w3.org/2000/svg" xmlns:xlink="http://www.w3.org/1999/xlink" x="0px" y="0px"
	 width="800px" height="600px" viewBox="0 0 800 600" enable-background="new 0 0 800 600" xml:space="preserve">
<g>
	<path fill-rule="evenodd" clip-rule="evenodd" fill="#010704" d="M605.507,212.138c0,0,59.325,150.802,16.366,239.053
		c-42.958,88.552-82.112,120.99-149.619,140.27c-67.508,19.58-104.625-4.088-146.707-28.93
		c-42.372-25.133-131.499-139.103-154.294-264.177C148.749,173.279,213.915,64.86,267.397,35.632
		C320.873,6.412,381.365-4.982,424.323,11.38c42.958,16.66,87.671,39.741,124.208,92.926
		C585.054,157.5,605.507,212.138,605.507,212.138z"/>
	<path fill-rule="evenodd" clip-rule="evenodd" fill="#FFFFFF" d="M450.039,27.159c78.619,46.173,131.797,120.689,151.679,208.655
		c36.811,90.005,41.204,199.888-24.549,278.499c-12.858,7.02-29.521,6.139-43.843,7.889c-6.719,8.473,10.524,13.739,15.787,18.997
		c-31.268,38.284-108.133,43.542-123.614-11.107c16.945,0.298,35.653,6.722,51.729,3.802c0.579-2.337-2.921-2.337-4.103-3.802
		c-25.418-6.425-46.757-21.034-64.579-39.443c-1.464-2.349-4.668-1.468-5.834,0.583c5.247,22.498,17.815,45.582,26.585,65.159
		c-39.161-13.441-75.98-40.324-81.242-83.866c-10.525-1.468-4.675,14.322-3.805,21.33c-31.261-15.195-42.067-55.233-28.049-87.671
		c12.27,10.524,26.31,28.934,40.327,31.855c-19.287-21.037-28.629-50.848-32.427-80.068c-18.417,19.283-17.54,59.618-22.215,87.957
		c-12.568-14.314-19.577-32.141-29.232-47.931c3.218-14.894,0-31.851-2.624-47.046c-11.401-0.583-4.095,17.54-7.306,24.549
		c-26.593-35.943-25.136-85.334,3.805-120.106c5.247,14.322,8.176,34.772,14.612,45.006c-2.936-28.93,1.449-56.4,5.834-85.044
		c-0.579-2.636-1.464-5.842-4.668-7.009c-26.883,23.081-40.625,60.785-48.526,92.926c-11.096-40.911-18.981-84.167,3.516-120.693
		c-1.464-14.322-11.401,2.921-14.025,7.89c-2.928-39.455,27.47-70.425,56.396-93.807c1.754,11.69,4.095,28.637,7.306,35.359
		c8.472-21.628,9.06-47.344,23.969-68.091c18.112-27.756-20.751-0.583-30.101,9.353c-18.417,15.493-33.906,35.069-47.336,56.698
		C247.226,66.9,298.383,9.626,365.296,13.718c-3.509,4.969-16.656,12.56-10.227,18.696C380.198,5.241,418.771,16.052,450.039,27.159
		L450.039,27.159z M474.008,70.118c-19.584-8.186-41.502-14.322-63.122-15.779c-12.858,3.504-23.978,8.759-35.356,14.608
		c-19.005,15.779-35.66,36.24-46.475,59.321c-36.537,125.078,16.359,279.087,128.877,347.761c9.647,3.798,19.874,5.85,30.101,8.473
		c15.489-0.29,30.68,1.175,45.59-2.337c19.287-9.64,37.117-21.331,51.431-36.824C650.228,319.397,589.142,145.225,474.008,70.118z"
		/>
	<path fill-rule="evenodd" clip-rule="evenodd" fill="#FFFFFF" d="M468.746,136.741c24.549,14.325,43.836,37.406,49.388,62.836
		c16.358,2.048,21.041,22.212,26.295,35.943c-3.203-0.587-4.964,1.175-7.298,3.214c0,1.464,0.29,3.218-0.298,4.087
		c1.762,6.731,11.981,3.802,8.19-2.623c0.579-1.167,1.456,0,1.746,0.29c5.263,17.243,13.453,38.574,3.219,53.776
		c14.902,21.034,5.254,52.888-8.763,72.476c-8.473,7.89-16.671,13.144-28.347,10.223c-5.841,7.306-10.814,13.441-21.346,12.56
		c-25.716-3.798-48.213-18.112-63.702-39.157c0.595-3.214,2.036-7.008,0-10.52c-3.211-1.755-6.711-0.583-10.227-0.583
		c-18.699-33.312-35.653-71.31-35.065-110.753c2.333-4.385,7.893-4.972,8.472-10.524c-0.579-4.672-6.429-5.85-7.603-10.223
		c3.5-30.688,19.005-64.884,51.729-73.941c2.928,1.75,4.095,5.255,7.894,4.969C451.503,131.772,459.107,132.653,468.746,136.741
		L468.746,136.741z M481.024,149.896c-8.473,0.298-4.095,10.227,1.754,11.108C491.533,160.421,486.569,151.067,481.024,149.896
		L481.024,149.896z M476.35,162.46c-11.104-1.754-23.093-4.091-34.783-1.456c-6.132,3.504-11.699,7.889-18.12,11.104
		c-45.583,56.987-7.596,146.992,45.01,184.982c10.806,4.385,23.375,5.849,35.356,5.849c7.306-3.802,16.076-6.432,22.207-11.691
		c1.167-5.849,6.436-9.651,4.675-15.786C557.005,275.855,520.178,202.796,476.35,162.46L476.35,162.46z M414.104,164.218
		c-6.429-1.758-11.394,6.425-3.516,9.06C417.025,175.91,419.938,166.841,414.104,164.218L414.104,164.218z M440.102,193.736
		c-6.132-3.798-14.604-4.968-21.613-3.512c-6.139,11.691-11.112,24.548-9.944,37.7c6.429-5.849,14.902-8.472,23.961-7.889
		c40.336,17.533,52.316,83.869,16.068,110.466c4.682,7.306,11.402,13.441,19.005,18.699c2.921-1.464,5.842-4.087,8.473-6.722
		c2.044-7.89,6.139-14.608,8.77-22.795C487.163,274.093,480.727,219.158,440.102,193.736L440.102,193.736z M430.165,226.46
		c-6.422-0.286-12.85,1.171-17.243,5.85c-1.456,3.504-2.036,7.008-5.247,9.643c5.545,29.518,16.945,56.984,33.892,81.532
		c1.174,0,2.044,0,3.508,0.87c4.964-2.041,7.306-6.128,11.401-9.342C471.667,284.614,462.317,240.488,430.165,226.46L430.165,226.46
		z M437.181,244.873c-13.734-5.556-27.462,13.739-18.41,26.299c0.885,0,2.052,0.583,2.624,0.298c1.464-1.171,0-3.516,0.297-4.682
		c-0.572-4.087-1.167-8.763,1.755-12.56c2.341-1.468,6.147-4.091,9.06-1.468c4.095,3.218,7.313,7.306,7.894,13.445
		c0,7.016-3.501,12.568-8.473,17.243c14.909,16.37,31.855-20.747,14.314-29.22C444.487,250.136,440.689,247.208,437.181,244.873
		L437.181,244.873z M541.226,335.462c-5.27,0.591-8.198,7.306-4.095,11.104C542.98,348.911,545.893,338.39,541.226,335.462
		L541.226,335.462z M403.58,274.093c-7.008,1.174-6.139,11.104,0.869,12.568C409.131,284.614,407.081,276.725,403.58,274.093
		L403.58,274.093z M466.405,367.027c-6.131-3.802-10.226,5.255-4.675,9.056c4.087,3.516,12.858-1.167,6.139-5.255
		C467.869,369.364,467.282,368.194,466.405,367.027z"/>
	<path fill-rule="evenodd" clip-rule="evenodd" fill="#FFFFFF" d="M262.425,47.323c-18.112,25.715-36.819,55.229-42.959,86.211
		c-2.333-4.095-5.254-14.62-10.806-6.433c0.29,8.472,4.087,17.243,7.008,25.429c-1.754,14.311-4.964,28.922-4.087,43.542
		c-8.771-10.234-16.656-24.548-21.331-38.573c3.501-13.453,11.104-25.133,15.779-37.705c1.464,0,3.798,0,4.965-1.464
		c0.29-1.75-0.587-3.206-1.762-4.671C221.22,87.944,239.631,62.812,262.425,47.323z"/>
	<path fill-rule="evenodd" clip-rule="evenodd" fill="#FFFFFF" d="M186.453,175.91c7.596,11.68,12.568,27.47,25.129,35.061
		c-1.464,32.434,4.385,65.754,11.988,97.319c-8.198-4.968-15.779-32.148-25.723-19.874c7.016,17.243,17.822,33.605,33.311,44.709
		c7.024,19.878,14.612,40.625,24.839,59.035c-29.224-13.739-50.555-41.495-67.508-68.377
		C175.341,274.685,175.341,223.539,186.453,175.91z"/>
	<path fill-rule="evenodd" clip-rule="evenodd" fill="#FFFFFF" d="M200.18,360.892c16.953,17.529,38.574,31.268,61.666,41.788
		c8.183,16.362,18.997,31.557,28.347,47.344c-6.719-2.928-28.637-25.43-27.47-7.89c11.981,11.108,26.295,22.787,42.372,27.47
		c11.401,14.025,24.252,27.756,35.065,42.078c-37.979-8.176-71.596-33.308-99.072-58.44
		C222.685,424.308,211.284,392.457,200.18,360.892z"/>
	<path fill-rule="evenodd" clip-rule="evenodd" fill="#FFFFFF" d="M462.317,578.9c-7.009,5.552-21.628,4.96-31.557,8.763
		c-65.761-2.624-125.955-45.88-163.065-98.482c26.585,14.326,57.273,28.053,86.489,32.438
		c16.076,12.858,32.724,25.133,51.149,35.653c-9.357,0-27.47-11.687-31.275,0c15.779,9.06,33.899,13.147,52.019,9.937
		C437.478,571.883,450.336,576.269,462.317,578.9z"/>
</g>
</svg>
