<?xml version="1.0" encoding="utf-8"?>
<!-- Generator: Adobe Illustrator 17.0.0, SVG Export Plug-In . SVG Version: 6.00 Build 0)  -->
<!DOCTYPE svg PUBLIC "-//W3C//DTD SVG 1.1//EN" "http://www.w3.org/Graphics/SVG/1.1/DTD/svg11.dtd">
<svg version="1.1" id="Layer_1" xmlns="http://www.w3.org/2000/svg" xmlns:xlink="http://www.w3.org/1999/xlink" x="0px" y="0px"
	 width="800px" height="600px" viewBox="0 0 800 600" enable-background="new 0 0 800 600" xml:space="preserve">
<g>
	<path d="M553.442,281.357c-1.448-2.205-3.323-4.068-5.559-5.431c0.295-0.385,0.561-0.787,0.747-1.334
		c0.206-0.617,0.359-1.256,0.511-1.889c0.332-1.408,0.352-2.869,0.318-4.311c-0.07-3.147-0.711-6.258-1.851-9.193
		c-0.98-2.52-2.46-4.824-4.437-6.675c-0.867-0.813-1.835-1.394-2.885-1.893c1.643-6.076,1.795-12.728,0.986-18.357
		c-1.56-10.861-8.948-20.545-20-21.594c0.066-0.479,0.124-0.956,0.18-1.432c0.651-5.728,0.354-11.333-1.04-16.929
		c-2.744-11.018-9.778-20.781-20.096-25.817c-5.507-2.689-14.832-3.784-21.238-2.834c-0.707-6.742-7.442-13.241-12.436-17.071
		c-5.359-4.111-11.741-6.885-18.337-8.259c-6.875-1.433-14.309-1.259-21,0.941c-3.471,1.14-11.286,4.239-16.124,7.973
		c-4.08-3.18-8.004-5.153-12.417-7.257c-8.257-3.939-17.383-5.953-26.526-5.672c-9.617,0.295-18.45,4.135-25.599,10.493
		c-3.074,2.735-5.829,6.059-7.783,9.681c-0.094,0.173-0.184,0.348-0.273,0.522c-3.593-0.168-7.172,0.208-10.562,1.555
		c-4.287,1.706-7.596,4.771-10.202,8.514c-0.941,1.353-1.744,2.856-2.427,4.45c-5.4-5.185-14.975-6.378-21.835-5.988
		c-8.873,0.502-17.386,3.847-23.754,10.092c-5.625,5.517-8.566,13.419-9.144,21.166c-0.291,3.919-0.028,7.89,0.843,11.721
		c0.09,0.393,0.184,0.792,0.283,1.193c-11.157,2.105-17.617,13.996-20.163,24.429c-1.616,6.625-1.835,13.556-0.669,20.27
		c0.483,2.773,1.317,6.202,2.743,9.231c-5.86,3.95-9.784,9.878-12.632,16.322c-2.958,6.691-4.607,14.395-3.926,21.715
		c0.573,6.138,3.379,12.174,6.425,17.446c1.456,2.518,3.605,5.635,6.242,7.891c-2.245,7.344-1.385,15.427,1.755,22.41
		c1.733,3.852,4.432,7.174,7.722,9.796c2.586,2.059,7.14,4.465,10.743,4.115c-1.667,10.266-2.127,20.701-1.197,31.254
		c1.584,17.981,7.449,35.667,17.716,50.575c10.79,15.673,26.266,27.254,44.285,33.335c23.217,7.836,49.36,6.787,73.079,1.967
		c25.598-5.2,49.891-15.505,71.706-29.812c18.305-12.007,33.79-29.389,43.428-49.047c5.797-11.821,9.511-24.724,9.637-37.953
		c0.018-2.055-0.06-4.091-0.23-6.11c1.634,0.194,3.249,0.148,4.928-0.026c4.002-0.413,7.859-2.816,10.699-5.539
		c5.449-5.234,8.922-13.067,8.333-20.679c0.805-0.176,1.591-0.405,2.336-0.673c5.148-1.855,8.47-6.939,10.475-11.757
		C559.686,306.149,559.984,291.325,553.442,281.357z"/>
	<path fill="#FFD9C5" d="M503.915,387.299c-7.506,20.16-22.256,37.713-39.323,50.539c-9.591,7.21-20.349,13.027-31.22,18.053
		c-11.422,5.282-23.341,9.493-35.544,12.558c-8.58,2.155-17.543,3.76-26.607,4.594c2.375-2.264,3.639-8.414,1.357-12.286
		c-1.434-2.434-4.34-1.925-3.743,0.302c0.96,3.592,0.766,6.809-4.25,9.511c-3.921,2.115-9.51,2.035-13.854,1.565
		c-4-0.433-12.352-2.019-12.332-8.448c0.006-2.224,1.679-4.774,3.065-6.422c0.719-0.853-0.351-1.689-1.167-1.096
		c-4.259,3.117-7.25,7.766-4.42,12.941c0.674,1.232,1.595,2.292,2.665,3.211c-4.389-0.663-8.721-1.573-12.96-2.77
		c-17.372-4.892-32.54-15.465-43.35-29.88c-10.739-14.315-15.625-29.612-17.347-47.29c-1.469-15.076,0.993-37.909,6.399-54.571
		c4.089-0.533,7.184-5.339,4.214-4.802c-2.97,0.535-7.769,0.713-11.016-1.316c-2.036-1.272-3.023-3.257-3.544-5.819
		c-1.409-6.917,0.063-14.537,2.815-20.96c3.69,0.631,7.509-0.138,11.021-1.384c4.323-1.537,8.082-4.894,11.018-8.297
		c2.713-3.145,4.645-6.963,4.593-11.154c5.527-0.016,11.025-2.236,15.609-5.821c6.988-5.463,13.751-14.413,14.445-23.66
		c2.679,0.627,5.461,0.813,8.234,0.529c11.967-1.222,24.142-11.186,28.083-22.608c4.02,1.953,8.657,2.676,13.085,2.616
		c2.252-0.03,4.508-0.276,6.716-0.729c3.07,11.953,17.887,19.085,29.47,18.708c2.986-0.096,6.001-0.639,8.935-1.562
		c1.256,4.72,5.455,7.578,10.33,9.068c6.206,1.899,13.468,2.47,19.704,0.515c3.86-1.21,7.252-3.243,10.248-5.813
		c1.697,3.604,4.505,6.671,7.853,8.824c4.155,2.67,10.439,4.607,15.158,2.272c0.259,0.577,0.539,1.146,0.849,1.707
		c1.386,2.506,3.674,4.605,6.304,5.719c1.613,0.683,3.56,0.919,5.35,0.613c-0.136,0.459-0.26,0.919-0.369,1.384
		c-0.767,3.275-0.827,7.011-0.25,10.33c0.867,4.978,4.091,8.764,8.92,10.276c0.693,0.22,1.398,0.375,2.107,0.493
		c3.664,4.976,4.357,11.36,1.981,16.927c-2.696,6.316-8.544,9.948-15.04,6.268c-1.094-0.619-2.434,0.897-1.428,1.785
		c3.359,2.971,7.306,4.898,11.769,4.305c0.078,0.204,0.168,0.407,0.285,0.609c5.447,9.281,9.419,19.255,10.148,30.09
		C509.572,367.323,507.532,377.582,503.915,387.299z"/>
	<path fill="#F5C0AE" d="M306.896,461.638c5.129-8.083,8.453-17.536,9.951-27.178c2.61-16.801,0.647-34.942-6.897-50.301
		c-3.975-8.091-9.834-16.913-18.079-21.108c-5.914-3.009-12.617-3.207-18.676-0.417c-2.658,1.224-5.471,2.84-7.887,4.862
		c-0.938,9.044-1.112,17.818-0.424,24.886c1.722,17.678,6.608,32.975,17.347,47.29C288.944,448.623,297.338,456.091,306.896,461.638
		z"/>
	<path fill="#F6C7B5" d="M378.179,424.1c-2.861-1.084-5.897-1.711-8.915-2.17c-7.482-1.142-15.291-1.488-22.819-0.575
		c-3.106,0.375-13.066,1.482-11.412,6.685c0.241,0.753-0.94,1.074-1.178,0.326c-0.111-0.348-0.183-0.679-0.224-0.998
		c-5.253,4.115-6.722,11.523-3.555,17.498c2.919,5.509,8.892,8.602,14.745,10.038c10.05,2.468,19.699,1.198,28.665-4
		c6.587-3.82,15.694-11.59,11.395-20.198C383.413,427.766,381.277,425.276,378.179,424.1z"/>
	<path fill="#F6C7B5" d="M354.186,331.229c2.559,0.132,4.921,2.54,6.603,0.37c1.963-2.528,3.027-8.648,3.903-11.673
		c0.538-1.857,1.29-4.209,0.801-6.148c-0.741-2.933-22.684,13.335-26.027,18.586C343.284,329.31,349.555,330.987,354.186,331.229z"
		/>
	<path fill="#F5C0AE" d="M471.747,361.033c-9.453,5.551-17.063,13.768-22.171,23.452c-5.683,10.781-9.433,23.65-8.526,35.905
		c0.713,9.617,4.129,18.704,8.989,26.961c5.044-2.893,9.934-6.04,14.553-9.513c17.067-12.826,31.817-30.379,39.323-50.539
		c3.409-9.157,5.415-18.8,5.052-28.584C500.818,349.338,480.984,355.608,471.747,361.033z"/>
	<path fill="#F4AEA3" d="M295.303,411.912c1.912-10.28-0.206-23.141-7.91-30.751c-4.794-4.732-10.865-6.823-17.473-5.126
		c-1.817,0.467-3.591,1.066-5.347,1.711c-0.206,5.3-0.11,10.289,0.312,14.634c1.592,16.342,5.892,30.653,15.018,44.029
		C287.484,429.871,293.435,421.949,295.303,411.912z"/>
	<path fill="#F4AEA3" d="M502.841,365.32c-10.421-2.244-22.316,0.244-28.406,9.712c-4.535,7.049-4.862,15.851-2.925,23.82
		c1.973,8.119,5.929,15.91,11.474,22.198c8.952-9.936,16.314-21.35,20.932-33.752c2.422-6.504,4.129-13.253,4.788-20.124
		C506.813,366.385,504.852,365.754,502.841,365.32z"/>
	<path fill="#F6C7B5" d="M297.26,296.161c0.202-0.331,0.683-0.411,0.96-0.124c4.689,4.848,10.642,0.243,14.28-3.55
		c4.399-4.585,7.981-9.942,11.193-15.405c1.127-1.915,2.843-4.201,3.12-6.448c0.381-3.093,3.561-4.529,6.221-5.453
		c4.22-1.467,8.202-2.708,12.031-5.094c4.155-2.588,8.282-5.719,10.615-10.128c0.185-0.347,0.693-0.397,0.96-0.124
		c3.709,3.8,10.254,3.283,15.061,2.516c0.354-0.058,0.819,0.156,0.774,0.589c-0.692,6.767,6.157,10.443,11.668,12.244
		c5.537,1.811,11.663,2.901,17.504,2.418c0.254-0.022,0.541,0.2,0.59,0.447c3.997,20.533,33.961,14.061,47.741,9.503
		c0.317-0.106,0.667,0.118,0.751,0.425c1.386,4.958,6.767,7.111,11.41,7.879c4.639,0.771,9.771,0.729,14.185-1.05
		c0.31-0.124,0.673,0.134,0.753,0.427c1.25,4.573,4.277,6.683,8.437,8.42c2.985,1.246,6.074,2.604,7.865,5.453
		c2.482,3.95,3.434,8.516,8.177,10.531c0.861,0.365,1.735,0.665,2.62,0.916c0.962-4.676-0.058-9.604-3.013-13.616
		c-0.709-0.118-1.414-0.274-2.107-0.493c-4.828-1.512-8.053-5.298-8.92-10.276c-0.577-3.319-0.517-7.055,0.25-10.33
		c0.11-0.465,0.234-0.924,0.369-1.384c-1.789,0.306-3.736,0.07-5.35-0.613c-2.63-1.114-4.918-3.213-6.304-5.719
		c-0.309-0.561-0.589-1.13-0.849-1.707c-4.718,2.334-11.002,0.397-15.158-2.272c-3.349-2.153-6.156-5.22-7.853-8.824
		c-2.995,2.57-6.388,4.603-10.248,5.813c-6.236,1.955-13.498,1.384-19.704-0.515c-4.874-1.49-9.073-4.347-10.33-9.068
		c-2.933,0.923-5.949,1.466-8.935,1.562c-11.583,0.377-26.4-6.755-29.47-18.708c-2.208,0.453-4.464,0.699-6.716,0.729
		c-4.428,0.06-9.065-0.663-13.085-2.616c-3.941,11.422-16.116,21.386-28.083,22.608c-2.772,0.284-5.555,0.098-8.234-0.529
		c-0.694,9.247-7.457,18.197-14.445,23.66c-4.584,3.584-10.082,5.805-15.609,5.821c0.052,4.191-1.88,8.009-4.593,11.154
		c-2.936,3.403-6.695,6.759-11.018,8.297c-3.512,1.246-7.331,2.015-11.021,1.384c-0.822,1.919-1.527,3.946-2.077,6.026
		C274.345,318.327,290.353,307.549,297.26,296.161z"/>
	<path fill="#FF9200" d="M549.462,317.365c-2.003,3.784-5.016,6.757-8.946,7.205c-0.31-0.06-0.635-0.04-0.946,0.058
		c-0.1,0.002-0.196,0.008-0.296,0.006c-1.482-0.034-2.923-0.501-4.383-0.112c-0.895,0.24-1.583,0.936-1.583,1.905
		c-0.004,1.526,1.823,2.428,3.059,2.809c0.657,0.204,1.336,0.326,2.027,0.383c0.128,5.487-2.079,10.917-5.599,15.09
		c-3.982,4.72-9.513,6.715-15.084,5.142c-1.735-9.904-5.793-19.213-11.991-27.378c1.597-1.562,2.905-3.443,3.836-5.34
		c3.143-6.404,3.235-14.395-0.272-20.469c1.092-0.2,2.172-0.443,3.229-0.707c4.806-1.19,9.175-3.149,13.333-5.829
		c3.011-1.939,0.254-6.09-2.818-5.196c-7.089,2.065-14.457,5.881-21.861,5.06c-2.33-0.258-4.207-2.011-4.898-4.682
		c-0.567-2.197-0.591-4.599-0.409-6.845c0.116-1.416,0.333-2.847,0.553-4.251c0.136-0.877,0.272-1.755,0.425-2.628
		c0.268-1.513,0.176-3.339,0.553-4.764c0.26-0.98-0.968-1.729-1.621-0.855c-0.547,0.733-1.128,1.37-1.687,2.021
		c-2.334-0.613-3.367,0.243-5.29,0.192c-0.918-0.026-1.567-0.186-2.382-0.705c-1.711-1.096-2.887-2.921-3.89-4.641
		c-2.065-3.536-3.998-8.237-4.259-12.35c-0.064-0.994-1.494-0.879-1.659,0.01c-0.609,3.263-0.705,6.54-0.202,9.722
		c-1.691,0.288-3.299,0.655-5.076,0.497c-1.821-0.16-3.508-0.721-5.15-1.502c-3.185-1.512-5.887-4.145-7.434-7.316
		c7.188-7.232,6.619-19.878,5.587-17.897c-5.232,10.044-8.37,16.364-19.411,21.198c-5.246,2.296-10.93,2.185-16.484,1.31
		c-4.075-0.643-8.624-2.23-9.82-6.314c13.542-6.595,14.852-20.405,13.185-18.327c-3.736,4.656-5.655,6.292-10.607,9.7
		c-4.577,3.153-9.994,4.976-15.524,5.307c-9.371,0.559-20.744-4.794-24.21-13.858c4.877-1.783,9.307-4.681,12.681-8.686
		c2.479-2.945,4.88-8.125,2.111-6.152c-5.118,3.646-17.645,8.498-23.901,9.497c-2.887,0.461-5.878,0.489-8.778,0.16
		c-3.933-0.445-7.481-1.995-10.998-3.708c-1.516-0.737-3.211-1.442-4.349-2.732c-0.777-0.883-2.089,0.184-1.415,1.134
		c1.246,1.761,2.512,4.892,4.749,6.699c-5.259,12.059-13.436,15.968-22,18.149c-10.191,2.596-19.729-3.071-26.42-10.06
		c-0.653-0.683-2.001-0.052-1.512,0.906c2.594,5.09,5.675,9.345,10.414,12.648c0.62,0.431,1.259,0.831,1.911,1.202
		c-1.03,3.161-2.008,6.286-3.507,9.287c-1.56,3.129-3.719,5.97-6.041,8.57c-5.801,6.494-14.609,11.673-23.583,10.224
		c-0.791-0.128-1.057,0.908-0.405,1.284c1.331,0.763,2.694,1.348,4.076,1.773c-3.061,4.852-6.183,9.605-11.048,12.855
		c-6.398,4.273-14.127,4.241-19.858-1.476c-0.494-0.493-1.426,0.162-1.127,0.793c1.698,3.592,3.883,6.54,7.396,8.269
		c-3.773,7.152-4.959,16.699-2.989,24.453c0.848,3.345,2.461,7.197,5.728,8.794c1.102,0.539,2.253,0.793,3.424,0.847
		c-2.108,6.112-3.812,12.302-5.075,18.562c-1.521-0.513-3.194-0.623-4.728-1.156c-1.507-0.523-2.875-1.386-4.155-2.324
		c-2.634-1.933-4.544-4.751-6.01-7.622c-2.713-5.318-3.718-11.879-2.37-17.777c5.388,1.494,9.879-0.365,7.344-1.352
		c-3.2-1.244-8.533-5.509-12.651-12.328c-2.646-4.383-5.144-9.607-5.7-14.75c-0.694-6.424,0.873-13.025,3.236-18.962
		c2.162-5.433,5.581-10.815,10.32-14.377c0.935,1.082,2.016,1.979,3.267,2.584c1.806,0.875,3.664-0.96,2.694-2.764
		c-1.308-2.434-2.94-4.668-4.087-7.2c-1.075-2.372-1.703-4.954-2.166-7.508c-1.019-5.623-0.842-11.526,0.163-17.135
		c0.99-5.539,3.097-11,6.621-15.431c2.709-3.403,6.169-5.555,10.181-6.583c0.864,2.53,2.041,4.964,3.796,6.859
		c1.297,1.4,4.571,0.94,4.025-1.522c-0.836-3.764-2.459-7.298-3.23-11.087c-0.676-3.32-1.027-6.749-0.843-10.137
		c0.374-6.883,2.923-13.343,7.749-18.312c5.076-5.225,12.521-7.511,19.603-8.059c4.086-0.315,8.169,0.065,12.097,1.241
		c2.822,0.844,5.209,2.351,7.668,3.814c-1.231,4.936-1.437,10.253-0.64,14.811c0.447,2.562,4.619,2.606,5.138,0.062
		c0.764-3.761,0.822-7.625,1.388-11.42c0.503-3.368,1.504-6.671,2.952-9.754c2.781-5.922,8.589-8.842,14.676-10.235
		c-0.472,1.206-0.865,2.443-1.163,3.717c-0.278,1.181-0.363,2.419-0.45,3.625c-0.084,1.149,0.481,1.86,0.722,2.886
		c0.24,1.029,1.802,1.145,2.092,0.077c0.347-1.281,1.009-2.504,1.352-3.825c0.35-1.369,0.913-2.694,1.484-3.983
		c1.213-2.737,3.064-5.254,5.043-7.481c3.554-4.003,8.112-7.478,13.018-9.647c7.895-3.492,16.747-3.332,25.041-1.529
		c17.06,3.709,30.497,16.726,37.608,30.77c1.641,3.242,3.734-6.754-6.853-21.598c6.5-5.776,18.584-8.977,31.16-7.366
		c6.296,0.805,12.035,4.109,17.009,8.028c2.386,1.878,9.88,8.138,10.591,13.292c-1.665,0.556-3.794,1.466-5.363,2.255
		c-2.282,1.15-3.81,2.583-5.803,4.14c-0.986,0.77,0.1,2.467,1.222,2.065c2.51-0.902,5.274-1.443,7.853-2.197
		c2.558-0.746,5.136-1.198,7.781-1.459c4.593-0.453,9.057-0.024,13.449,1.427c7.875,2.605,14.113,8.69,17.63,16.125
		c4.165,8.801,4.305,18.726,3.221,28.223c-0.17,1.484-0.449,2.951,0.861,4.04c1.242,1.032,3.141,0.857,4.173-0.385
		c0.946-1.138,1.212-3.015,1.563-4.503c4.128,0.807,7.895,2.704,10.651,6.016c3.179,3.826,4.595,8.88,5.178,13.732
		c1.162,9.654-1.865,20.004-7.905,27.59c-1.37,1.721,0.561,4.565,2.578,3.145c3.756-2.652,6.372-6.49,8.079-10.831
		c0.226,0.2,0.433,0.385,0.613,0.545c1.072,0.941,1.843,2.115,2.558,3.337c1.412,2.418,2.097,5.217,2.416,7.977
		c0.29,2.526,0.092,5.184-0.525,7.652c-0.042,0.168-0.098,0.359-0.154,0.561c-0.559-0.13-1.122-0.236-1.685-0.295
		c-0.775-0.082-1.512-0.118-2.284-0.05c-0.569,0.05-1.07,0.13-1.613,0.277c0.024-0.008-2.043,0.853-1.418,0.607
		c-1.34,0.527-1.076,2.386,0.383,2.466c5.068,0.277,9.047,2.416,11.645,6.769c2.947,4.938,3.764,11.03,3.902,16.667
		C553.075,306.397,552.132,312.327,549.462,317.365z"/>
	<path fill="#D46D09" d="M306.131,245.342c-2.282,12.772-12.085,29.565-26.517,25.28c-0.06,11.246-7.883,27.438-20.563,27.562
		c4.678,1.769,9.866,0.904,14.389-2.117c4.865-3.251,7.987-8.003,11.048-12.855c-1.382-0.425-2.745-1.01-4.076-1.773
		c-0.652-0.375-0.385-1.412,0.405-1.284c8.974,1.45,17.783-3.73,23.583-10.224c2.322-2.6,4.482-5.441,6.041-8.57
		c1.5-3.001,2.477-6.126,3.507-9.287c-0.652-0.372-1.291-0.771-1.911-1.202C309.718,249.252,307.796,247.403,306.131,245.342z"/>
	<path fill="#D46D09" d="M533.648,315.364c-8.91-4.303-11.528-13.57-12.001-22.825c-2.893,1.472-5.915,2.622-9.133,3.419
		c-1.056,0.264-2.137,0.507-3.229,0.707c3.506,6.074,3.414,14.065,0.272,20.469c-0.931,1.897-2.239,3.778-3.836,5.34
		c6.198,8.165,10.255,17.474,11.991,27.378c5.571,1.573,11.102-0.421,15.084-5.142c3.52-4.173,5.727-9.603,5.599-15.09
		c-0.691-0.058-1.37-0.18-2.027-0.383c-1.236-0.381-3.063-1.284-3.059-2.809c0-0.969,0.689-1.665,1.583-1.905
		c1.46-0.389,2.901,0.078,4.383,0.112c0.1,0.002,0.196-0.004,0.296-0.006c0.311-0.098,0.637-0.118,0.946-0.058
		c3.93-0.447,6.943-3.421,8.946-7.205c0.118-0.222,0.23-0.449,0.339-0.675C544.289,317.802,538.646,317.778,533.648,315.364z"/>
	<path fill="#D46D09" d="M521.767,282.898c-3.215,0.947-20.908-5.663-12.402-24.135c-5.218-1.795-10.655-4.114-14.459-8.233
		c-3.806-4.121-5.405-9.273-5.717-14.774c-10.04,0.645-17.827-9.197-20.247-18.135c-10.098,5.405-24.796,3.942-31.969-5.807
		c-0.018-0.026-28.097,5.312-32.835-20.01c-7.328,10.252-19.695,16.938-31.67,20.106c-5.409,1.43-11.198,2.27-16.798,2.342
		c-4.576,0.058-9.751-0.421-13.134-3.782c-3.236,8.422-7.37,17.033-13.884,23.402c-5.796,5.667-12.915,8.496-20.665,7.824
		c6.106,4.716,13.641,7.702,21.571,5.681c8.563-2.18,16.741-6.09,22-18.149c-2.238-1.807-3.503-4.938-4.749-6.699
		c-0.674-0.951,0.638-2.017,1.415-1.134c1.138,1.29,2.834,1.995,4.349,2.732c3.517,1.713,7.066,3.263,10.998,3.708
		c2.9,0.329,5.891,0.301,8.778-0.16c6.256-0.998,18.783-5.851,23.901-9.497c2.77-1.973,0.368,3.207-2.111,6.152
		c-3.374,4.006-7.803,6.903-12.681,8.686c3.466,9.063,14.839,14.417,24.21,13.858c5.53-0.331,10.947-2.155,15.524-5.307
		c4.952-3.409,6.871-5.044,10.607-9.7c1.667-2.079,0.358,11.731-13.185,18.327c1.196,4.083,5.745,5.671,9.82,6.314
		c5.553,0.875,11.238,0.987,16.484-1.31c11.04-4.834,14.179-11.154,19.411-21.198c1.032-1.981,1.601,10.665-5.587,17.897
		c1.547,3.171,4.249,5.805,7.434,7.316c1.642,0.781,3.329,1.342,5.15,1.502c1.777,0.158,3.385-0.21,5.076-0.497
		c-0.503-3.183-0.407-6.46,0.202-9.722c0.166-0.889,1.595-1.004,1.659-0.01c0.262,4.114,2.194,8.814,4.259,12.35
		c1.002,1.719,2.178,3.544,3.89,4.641c0.815,0.519,1.464,0.679,2.382,0.705c1.923,0.052,2.955-0.805,5.29-0.192
		c0.559-0.651,1.14-1.288,1.687-2.021c0.653-0.875,1.881-0.126,1.621,0.855c-0.377,1.426-0.285,3.251-0.553,4.764
		c-0.154,0.873-0.29,1.751-0.425,2.628c-0.22,1.404-0.437,2.835-0.553,4.251c-0.182,2.246-0.158,4.648,0.409,6.845
		c0.691,2.672,2.568,4.425,4.898,4.682c6.921,0.767,13.812-2.516,20.471-4.635C521.675,284.526,521.717,283.703,521.767,282.898z"/>
	<path fill="#D46D09" d="M251.575,327.077c0.196,10.601,2.71,21.022,8.549,28.996c0.276,0.07,0.549,0.146,0.816,0.236
		c1.263-6.26,2.967-12.45,5.075-18.562c-1.171-0.054-2.322-0.308-3.424-0.847c-3.267-1.597-4.88-5.449-5.728-8.794
		c-1.97-7.753-0.784-17.3,2.989-24.453c-1.659-0.817-3.019-1.909-4.174-3.209c-2.617,7.81-4.195,16.921-4.113,25.942
		C251.809,326.61,251.795,326.85,251.575,327.077z"/>
	<path d="M388.862,400.518c-2.396,2.091-4.255,3.361-7.951,4.816c-0.676-1.961-2.757-6.128-3.359-12.206
		c-0.306-3.095-1.862-6.504-4.368-8.511c-2.809-2.25-5.977-1.853-9.069-0.112c-3.807,2.142-4.439,8.107-7.987,8.197
		c-3.548,0.09-4.567-4.089-5.564-5.509c-3.695-5.266-8.511-1.791-11.31,2.35c-4.659,6.895-5.153,14.671-8.063,18.59
		c-1.355-0.739-3.273-2.097-4.215-3.237c-0.721-0.869-1.918-0.024-1.606,0.962c1.163,3.696,2.848,5.933,6.045,7.65
		c-2.367,1.979-3.251,4.93-3.695,8.287c-0.505,3.808,1.728,7.276,4.042,10.12c5.611,6.905,14.76,11.895,23.568,12.997
		c10.009,1.254,21.988-1.182,29.26-8.564c6.347-6.446,7.397-18.722,0.32-24.71C391.774,407.686,391.858,397.908,388.862,400.518z"/>
	<path fill="#B63F68" d="M345.777,389.286c3.678,0.226,2.434,8.77,8.37,8.994c5.936,0.224,7.025-4.189,8.637-6.837
		c1.484-2.438,4.417-3.522,7.153-2.234c1.702,0.801,2.834,3.279,3.15,5.285c0.819,5.214,1.041,7.153,3.168,12.278
		c-5.8,2.029-12.022,3.191-18.075,3.868c-6.636,0.743-13.613,0.942-20.206-0.419c-1.706-0.353-2.219-0.381-3.984-1.08
		C335.609,407.007,340.821,388.984,345.777,389.286z"/>
	<path fill="#FF5688" d="M378.33,433.403c-6.348,5.006-15.702,6.204-23.503,5.252c-6.293-0.771-12.892-4.173-17.784-8.095
		c-2.564-2.057-4.9-4.72-5.418-8.059c-0.436-2.809,0.774-5.523,2.815-7.536c3.919,1.681,10.526,3.023,22.059,2.688
		c8.1-0.236,14.222-1.456,21.39-3.472C381.911,417.612,384.342,428.661,378.33,433.403z"/>
	<path d="M384.003,349.15c-3.355-5.569-8.8-9.63-14.145-13.149c-2.164-1.424-4.452-2.793-6.83-4.002
		c4.636-3.916,5.677-11.026,4.615-16.939c-0.56-3.133-5.075-2.229-4.795,0.857c0.45,4.96,0.155,10.625-3.126,14.545
		c-3.438-1.444-7.032-2.464-10.705-2.732c-7.362-0.539-13.147,3.474-15.11,10.581c-2.627,9.511,4.461,19.109,11.853,24.361
		c1.072,0.763,2.442-0.968,1.438-1.821c-3.076-2.612-5.456-6.5-7.096-10.154c-1.736-3.868-2.249-7.408-0.774-11.43
		c0.693-1.887,2.25-3.72,3.694-4.441c1.925-0.959,3.879-0.929,6.196-0.601c5.407,0.769,10.786,3.93,15.376,6.857
		c2.44,1.556,4.745,3.303,7.039,5.064c2.77,2.129,5.645,4.251,8.079,6.757C382.083,355.344,385.621,351.832,384.003,349.15z"/>
	<path d="M348.424,313.08c-1.264-0.353-2.54-0.683-3.825-0.994c0.174-7.025-0.53-14.415-4.599-20.359
		c-3.976-5.813-10.421-9.465-17.512-8.564c-6.49,0.827-11.924,5.887-16.023,10.593c-4.02,4.615-7.344,10.1-9.63,15.777
		c-0.197,0.487-0.219,0.94-0.128,1.35c-0.346,0.112-0.671,0.296-0.943,0.541c-1.268,0.291-2.531,0.599-3.78,0.942
		c-1.335,0.37-0.885,2.159,0.434,2.051c0.965-0.08,1.93-0.148,2.895-0.214c0.803,2.288,1.958,4.263,3.381,5.948
		c-2.862-0.551-5.8-0.651-8.789-0.1c-1.284,0.238-1.157,2.368,0.108,2.534c4.438,0.579,8.657,1.577,12.743,3.438
		c4.017,1.831,7.774,4.223,11.418,6.703c2.558,1.741,5.4-2.129,2.841-3.87c-0.486-0.331-0.976-0.661-1.474-0.988
		c10.577,0.825,22.302-3.219,28.239-10.517c1.232,0.224,2.462,0.449,3.693,0.675C350.311,318.547,351.147,313.843,348.424,313.08z"
		/>
	<path fill="#6FA77E" d="M320.172,314.104c-0.243-0.016-0.486-0.036-0.73-0.052c-2.084-0.122-4.173-0.202-6.265-0.251
		c-1.449,2.598-1.653,6.414-0.962,9.185c2.071,0.455,4.254,0.665,6.471,0.633C316.845,320.486,318.041,317.031,320.172,314.104z"/>
	<path fill="#FFFFFF" d="M310.94,322.139c-0.436-2.496-0.168-5.821,1.033-8.367c-3.987-0.066-7.98-0.008-11.962,0.168
		c2.132,4.639,6.21,7.44,11.042,8.76C311.014,322.515,310.972,322.329,310.94,322.139z"/>
	<path fill="#FFFFFF" d="M326.074,318.819c-3.243,0-3.243-5.03,0-5.03C329.319,313.789,329.319,318.819,326.074,318.819z"/>
	<path fill="#CC90A1" d="M301.488,310.29c1.95-4.281,4.509-8.255,7.459-11.919c3.336-4.143,7.61-8.167,12.805-9.745
		c5.446-1.653,10.362,1.318,13.692,5.523c3.679,4.647,4.017,11.112,4.236,16.861C327.202,308.585,314.024,308.224,301.488,310.29z"
		/>
	<path d="M456.753,322.381c-3.55-0.986-7.106-1.913-10.673-2.769c-0.188-12.738-2.696-30.689-17.097-34.573
		c-9.05-2.442-19.229-0.231-26.51,5.593c-3.837,3.071-6.586,7.057-8.763,11.41c-2.136,4.267-3.546,9.337-6.357,13.223
		c-1.713,0.09-3.421,0.102-5.11-0.042c-2.022-0.17-2.3,2.554-0.417,3.051c1.914,0.505,3.885,0.737,5.878,0.829
		c2.261,9.237,9.946,15.573,18.869,17.776c-1.544,0.287-3.084,0.635-4.617,1.048c-1.899,0.515-1.612,3.528,0.427,3.123
		c11.196-2.234,22.753-1.134,33.634,2.171c2.294,0.697,3.269-2.65,1.088-3.51c-4.305-1.697-8.724-2.818-13.193-3.381
		c7.796-2.127,15.12-6.43,21.27-11.376c0.02-0.018,0.038-0.036,0.058-0.052c3.287,0.713,6.567,1.448,9.838,2.168
		C458.131,327.74,459.898,323.254,456.753,322.381z"/>
	<path fill="#FFFFFF" d="M404.655,327.081c0.029-2.039,0.333-5.491,1.505-8.007c-2.191-0.11-4.383-0.174-6.574-0.176
		c-3.067-0.006-6.232,0.236-9.374,0.25c2.84,3.936,5.863,8.071,10.014,10.599c1.681,1.026,3.475,1.831,5.338,2.41
		C404.967,330.564,404.629,328.869,404.655,327.081z"/>
	<path fill="#6FA77E" d="M415.164,319.765c-2.558-0.262-5.122-0.473-7.689-0.623c-0.428,0.918-0.675,1.977-0.956,2.855
		c-0.646,2.019-0.94,4.267-0.7,6.382c0.168,1.488,0.556,2.868,1.115,4.159c2.146,0.531,4.366,0.765,6.602,0.679
		c0.357-0.016,0.713-0.044,1.07-0.07C411.591,329.486,412.282,323.657,415.164,319.765z"/>
	<path fill="#4B865E" d="M319.278,315.47c0.273-0.465,0.571-0.923,0.894-1.366c-0.243-0.016-0.486-0.036-0.73-0.052
		c-2.084-0.122-4.173-0.202-6.265-0.251c-0.239,0.427-0.439,0.89-0.612,1.372C314.838,315.027,317.068,315.156,319.278,315.47z"/>
	<path fill="#4B865E" d="M318.318,317.483c0.12-0.325,0.255-0.651,0.408-0.97c-2.14-0.282-4.296-0.381-6.496-0.214
		c-0.064,0.258-0.117,0.519-0.164,0.783C314.147,317.261,316.232,317.375,318.318,317.483z"/>
	<path fill="#4B865E" d="M412.869,325.047c0.138-0.721,0.336-1.434,0.593-2.125c-2.332-0.266-4.665-0.499-6.999-0.739
		c-0.188,0.609-0.338,1.238-0.457,1.879C408.291,324.42,410.579,324.745,412.869,325.047z"/>
	<path fill="#4B865E" d="M413.91,321.874c0.354-0.743,0.769-1.456,1.254-2.109c-2.558-0.262-5.122-0.473-7.689-0.623
		c-0.292,0.627-0.498,1.316-0.691,1.973C409.161,321.361,411.538,321.6,413.91,321.874z"/>
	<path fill="#FFFFFF" d="M422.075,325.242c-3.243,0-3.243-5.03,0-5.03C425.319,320.212,425.319,325.242,422.075,325.242z"/>
	<path fill="#CC90A1" d="M419.65,314.895c-6.428-0.701-12.843-0.906-19.304-0.721c-3.08,0.09-6.21,0.497-9.336,0.805
		c0.619-0.637,1.204-1.322,1.788-2.137c1.188-1.661,2.135-3.498,3.107-5.292c2.063-3.804,3.795-7.634,6.85-10.785
		c6.238-6.434,14.705-8.966,23.518-7.446c12.232,2.111,14.089,18.426,14.265,29.025C433.652,316.856,426.707,315.668,419.65,314.895
		z"/>
	<path fill="#BF758A" d="M322.905,288.345c-0.381,0.072-0.766,0.164-1.153,0.282c-5.196,1.578-9.47,5.601-12.805,9.745
		c-2.95,3.664-5.509,7.638-7.459,11.919c3.81-0.627,7.68-1.029,11.571-1.218C314.549,301.111,317.234,293.587,322.905,288.345z"/>
	<path fill="#BF758A" d="M411.082,302.443c1.765-4.189,3.878-9.786,7.392-13.393c-5.9,0.631-11.355,3.215-15.719,7.716
		c-3.055,3.151-4.787,6.981-6.85,10.785c-0.972,1.793-1.919,3.63-3.107,5.292c-0.584,0.815-1.169,1.5-1.788,2.137
		c3.126-0.308,6.256-0.715,9.336-0.805c2.388-0.068,4.77-0.084,7.149-0.04C408.297,310.135,409.493,306.213,411.082,302.443z"/>
	<path d="M356.74,266.445c1.257-2.4-5.47-6.733-7.197-7.626c-1.98-1.02-4.168-1.408-6.37-1.552c-4.451-0.293-8.96,1.3-12.908,3.187
		c-7.158,3.422-13.181,8.993-18.176,15.062c-0.617,0.751,0.459,1.791,1.205,1.19c5.778-4.669,12.383-9.177,19.459-11.586
		c3.598-1.228,7.311-1.807,11.018-0.757c3.696,1.048,5.753,4.263,8.945,6.096c0.917,0.529,2.283,0.212,3.07-0.397
		c0.422-0.329,0.739-0.741,0.949-1.234c0.072-0.256,0.143-0.509,0.214-0.765C357.024,267.505,356.954,266.966,356.74,266.445z"/>
	<g>
		<path d="M458.277,291.856c-0.18-0.929-0.521-1.841-0.873-2.716c-0.761-1.889-1.693-3.662-2.676-5.441
			c-1.737-3.145-3.922-6.036-6.364-8.664c-4.425-4.759-10.248-8.401-16.342-10.585c-6.3-2.258-12.877-3.107-19.557-2.875
			c-3.413,0.116-6.823,0.629-10.162,1.33c-3.537,0.745-6.726,2.244-10.049,3.594c-0.94,0.383-0.383,1.671,0.549,1.432
			c5.787-1.49,12.289-2.005,18.256-2.035c6.06-0.03,12.25,1.068,17.843,3.431c5.382,2.27,9.998,5.703,13.874,10.054
			c1.931,2.166,3.556,4.619,5.008,7.121c1.749,3.017,2.853,6.356,4.545,9.405c1.895,3.417,6.687,1.302,6.258-2.258
			C458.476,292.996,458.316,292.054,458.277,291.856z"/>
		<path d="M458.568,293.479c0.01,0.056,0.014,0.112,0.02,0.168C458.708,294.344,458.77,294.709,458.568,293.479z"/>
	</g>
	<path fill="#F6C7B5" d="M350.12,358.098c-0.918,0.982-3.656-0.417-5.505-3.351c-1.773-2.811,0.63-5.429,4.068-2.152
		C351.197,354.987,350.925,357.237,350.12,358.098z"/>
	<path fill="#F6C7B5" d="M362.806,358.2c-1.264,1.008-3.512,0.449-6.298-3.81c-1.806-2.763,0.957-7.778,5.864-2.871
		C364.421,353.567,364.313,356.997,362.806,358.2z"/>
	<path fill="#FFE8DB" d="M418.245,353.823c-12.289-1.723-22.674-10.186-12.1-11.168c6.553-0.611,24.203-0.467,32.114,5.118
		C441.991,350.408,429.217,355.362,418.245,353.823z"/>
	<path fill="#FFE8DB" d="M290.72,326.365c6.122,0,17.22,5.585,20.944,12.566C315.387,345.911,268.846,326.365,290.72,326.365z"/>
	<path fill="#FFE8DB" d="M354.018,461.802c5.495,0.998,7.447,6.516-1.397,6.05C343.778,467.387,343.778,459.939,354.018,461.802z"/>
	<path fill="#FFE8DB" d="M341.936,338.505c1.19-1.859,6.518-3.952,11.257-0.593C357.932,341.269,338.776,343.443,341.936,338.505z"
		/>
	<path fill="#FFA7BD" d="M371.363,425.206c1.779-2.847,7.11-4.938,7.11-1.777c0,3.159-2.766,7.702-5.332,7.702
		C370.312,431.131,369.388,428.365,371.363,425.206z"/>
	<path fill="#FF688A" d="M371.165,397.161c0.186,2.786,0.79,5.727,1.581,7.111c0.79,1.382-3.951,0.987-4.345-2.37
		C368.005,398.543,370.968,394.198,371.165,397.161z"/>
	<path fill="#FFB13C" d="M365.168,151.127c7.198-1.435,14.779-0.48,21.742,1.671c8.207,2.537,16.446,6.639,23.426,12.164
		c-7.08-10.925-22.525-20.598-36.471-20.373c-12.064,0.195-21.772,9.022-26.71,15.708
		C352.572,156.152,358.512,152.454,365.168,151.127z"/>
	<path fill="#FFB13C" d="M384.745,163.861c-7.072-0.844-14.235-0.852-21.342-0.487c-6.09,0.312-12.745,0.749-18.484,3.159
		c5.365,7.239,53.066,9.744,64.342,4.021C401.503,167.029,393.077,164.855,384.745,163.861z"/>
	<path fill="#FFB13C" d="M362.713,161.051c7.579-0.39,15.2-0.417,22.739,0.541c8.828,1.121,17.711,3.485,25.842,7.322
		c0.012-0.02,0.03-0.039,0.042-0.06c-7.04-6.259-15.769-10.911-24.409-13.581c-6.657-2.058-14.213-3.448-21.132-1.87
		c-6.969,1.59-12.99,5.468-18.561,9.827C352.229,161.745,357.639,161.311,362.713,161.051z"/>
	<path fill="#FFB13C" d="M439.866,153.087c6.142,1.13,12.314,2.68,18.313,4.414c3.333,0.962,6.667,2.065,9.904,3.379
		c-1.434-2.901-6.542-8.297-15.441-12.292c-11.523-5.174-23.56-1.967-28.454,0.94c-1.456,0.866-2.298,1.692-2.632,2.481
		C427.68,151.896,433.828,151.976,439.866,153.087z"/>
	<path fill="#FFB13C" d="M456.214,159.4c-5.841-1.598-11.853-3.259-17.844-4.184c-5.397-0.834-10.839-0.934-16.282-0.853
		c5.172,5.723,37.424,8.788,44.812,8.559C463.414,161.523,459.81,160.384,456.214,159.4z"/>
	<path fill="#FFB13C" d="M506.226,194.384c2.176,3.532,3.83,7.28,5.038,11.16c0.246-5.54-1.182-13.195-5.477-20.508
		c-8.7-14.814-25.21-12.758-33.157-11.521c-0.14,0.022-0.268,0.053-0.389,0.086C485.912,175.497,498.756,182.257,506.226,194.384z"
		/>
	<path fill="#FFB13C" d="M475.804,177.431c2.762,1.105,5.374,2.436,7.951,3.922c5.857,3.375,11.502,7.413,15.877,12.622
		c4.453,5.301,7.75,11.329,10.313,17.688c0.122-0.24,0.236-0.497,0.344-0.775c-1.148-5.409-3.107-10.61-6.102-15.313
		c-7.248-11.388-19.107-17.757-32.007-19.603C473.39,176.529,474.662,176.973,475.804,177.431z"/>
	<path fill="#FFB13C" d="M496.531,194.04c-4.816-5.054-10.603-8.919-16.743-12.181c-2.3-1.222-5.23-2.08-7.873-3.275
		c5.523,10.242,30.701,32.455,34.576,34.671c0.603,0.344,1.176,0.401,1.703,0.216C505.457,206.323,501.789,199.56,496.531,194.04z"
		/>
	<path fill="#FFB13C" d="M286.473,176.852c2.877-2.031,6.072-3.439,9.426-4.336c-5.414,0.015-11.66,1.256-17.037,5.231
		c-8.301,6.134-10.083,16.596-9.409,24.608C271.833,192.315,278.474,182.497,286.473,176.852z"/>
	<path fill="#FFB13C" d="M302.298,173.774c-5.194,0.524-10.394,1.954-14.635,5.116c-8.47,6.316-15.46,17.257-16.623,28.074
		c1.613-3.098,3.743-5.947,5.984-8.634c4.113-4.932,8.292-10.158,13.086-14.447c4.791-4.287,10.517-7.34,16.539-9.543
		c0.089-0.032,0.178-0.067,0.267-0.101c-0.602-0.218-1.319-0.437-2.127-0.645C303.946,173.631,303.111,173.692,302.298,173.774z"/>
	<path fill="#FFB13C" d="M307.275,176.616c-5.834,2.211-11.527,5.123-16.07,9.466c-4.305,4.115-8.218,8.767-12.03,13.338
		c-2.493,2.988-4.879,6.126-6.525,9.618c7.351-2.795,31.954-26.047,35.275-32.666C307.71,176.453,307.492,176.533,307.275,176.616z"
		/>
	<path fill="#FFB13C" d="M526.389,243.418c0.234-7.304,1.092-16.538-2.264-23.482c-4.908,3.882-1.492,37.013,0.192,41.11
		C525.76,255.282,526.206,249.178,526.389,243.418z"/>
	<path fill="#FFB13C" d="M526.689,220.035c2.851,6.955,2.312,15.459,2.081,22.702c-0.178,5.549-0.553,11.38-1.739,16.973
		c2.482-2.959,5.888-9.371,7.208-17.294C535.974,232.008,531.248,222.343,526.689,220.035z"/>
	<path fill="#D46D09" d="M343.871,208.901c0,0,8.958,4.371,24.892,0.387c18.572-4.643,29.664-14.831,29.664-14.831
		s-13.413-0.001-30.825,3.997C350.19,202.453,343.871,208.901,343.871,208.901z"/>
	<path fill="#D46D09" d="M350.19,202.453c0,0,7.095-4.127,16.896-6.191c9.802-2.064,20.25-2.837,20.25-2.837
		s-5.933-4.127-21.668-0.516C349.932,196.52,350.19,202.453,350.19,202.453z"/>
	<path fill="#D46D09" d="M407.713,196.649c0,0,4.256,9.156,11.091,11.607c6.837,2.451,15.09,1.806,15.09,1.806
		s-7.35-5.16-14.445-8.641C412.356,197.939,407.713,196.649,407.713,196.649z"/>
	<path fill="#D46D09" d="M452.08,213.158c-8.255-1.935-12.382-1.031-12.382-1.031s5.16,4.9,11.995,5.673
		c6.837,0.775,12.125-1.29,12.125-1.29S460.335,215.093,452.08,213.158z"/>
</g>
</svg>
