<?xml version="1.0" encoding="utf-8"?>
<!-- Generator: Adobe Illustrator 17.0.0, SVG Export Plug-In . SVG Version: 6.00 Build 0)  -->
<!DOCTYPE svg PUBLIC "-//W3C//DTD SVG 1.1//EN" "http://www.w3.org/Graphics/SVG/1.1/DTD/svg11.dtd">
<svg version="1.1" id="Layer_1" xmlns="http://www.w3.org/2000/svg" xmlns:xlink="http://www.w3.org/1999/xlink" x="0px" y="0px"
	 width="800px" height="600px" viewBox="0 0 800 600" enable-background="new 0 0 800 600" xml:space="preserve">
<g>
	<g>
		<g>
			<path fill="#0F0F0F" d="M421.648,353.595c-7.841,4.338-16.064,1.887-23.364-2.32c-3.03-1.747-6.589-3.782-8.816-6.511
				c-2.343-2.872-4.281-6.046-5.947-9.35c-6.121-12.136-7.294-26.083-8.569-39.399c-0.54-5.646-1.084-10.979-0.463-16.634
				c0.551-5.016,1.657-9.963,3.163-14.775c2.925-9.344,7.709-18.496,15.123-25.048c3.636-3.214,8.052-5.495,12.801-6.497
				c5.381-1.135,10.939-0.14,16.227,1.023c12.038,2.648,23.752,7.697,36.266,7.517c5.493-0.079,10.817-1.581,15.424-4.584
				c0.664-0.433,2.42-1.351,2.68-2.134c0.405-1.218,0.803-2.438,1.194-3.661c0.877-2.745,1.692-5.509,2.443-8.292
				c2.829-10.477,4.708-21.65,2.67-32.442c-1.663-8.806-6.501-16.277-13.692-21.577c-0.672-0.495-2.393,0.197-1.414,0.919
				c20.335,14.988,14.134,42.393,7.47,62.892c-0.973,2.994-4.261,4.479-7.013,5.651c-3.079,1.311-6.438,1.816-9.762,1.928
				c-6.372,0.214-12.742-1.323-18.858-2.939c-10.611-2.802-21.914-7.391-33.073-5.75c-19.09,2.807-29.163,24.06-32.555,40.916
				c-0.924,4.593-1.477,9.244-1.538,13.932c-0.041,3.142,0.608,6.424,0.908,9.556c0.337,3.525,0.681,7.049,1.093,10.567
				c1.496,12.773,4.311,25.464,11.721,36.207c4.089,5.928,10.885,9.883,17.486,12.558c6.562,2.66,13.57,2.621,19.81-0.832
				C424.11,353.935,422.359,353.202,421.648,353.595L421.648,353.595z"/>
		</g>
	</g>
	<g>
		<g>
			<path fill="#0F0F0F" d="M487.406,321.696c-12.076-1.812-24.014-4.382-35.953-6.924c-11.493-2.447-22.757-6.628-34.686-5.759
				c-1.208,0.088-1.236,1.39,0,1.3c11.725-0.854,22.863,3.262,34.154,5.713c11.925,2.588,23.882,5.112,35.953,6.924
				C487.918,323.107,488.72,321.894,487.406,321.696L487.406,321.696z"/>
		</g>
	</g>
	<g>
		<g>
			<path fill="#0F0F0F" d="M476.174,176.671c1.689-6.993,0.086-13.586-5.285-18.496c-5.551-5.074-13.235-7.508-20.412-9.169
				c-16.879-3.906-35.517-4.068-52.445-0.574c-50.813,10.489-89.973,54.004-103.903,102.665
				c-13.801,48.212-3.924,106.002,35.93,139.279c8.89,7.423,18.912,13.33,29.771,17.374c11.606,4.322,23.884,5.849,36.185,6.526
				c25.151,1.384,54.869-2.094,72.86-21.67c8.399-9.139,13.33-20.989,15.966-32.985c0.211-0.96-1.754-1.141-1.929-0.346
				c-2.632,11.979-7.518,23.466-15.764,32.675c-9.179,10.251-22.209,15.695-35.404,18.618c-14.031,3.108-28.657,3.167-42.913,1.892
				c-12.469-1.116-24.424-3.787-35.804-9.107c-21.854-10.217-39.1-28.768-49.678-50.247c-11.877-24.117-15.215-52.065-11.98-78.571
				c6.437-52.731,41.467-102.156,92.119-120.561c18.689-6.791,38.819-7.981,58.406-5.194c13.567,1.93,35.192,7.418,32.802,25.279
				c-0.102,0.764-0.27,1.518-0.451,2.267C474.015,177.28,475.982,177.467,476.174,176.671L476.174,176.671z"/>
		</g>
	</g>
	<g>
		<g>
			<path fill="#0F0F0F" d="M307.178,211.938c-5.232,4.762-9.388,10.482-13.63,16.105c-4.194,5.56-8.766,10.63-13.588,15.645
				c-8.209,8.538-16.556,17.731-18.964,29.725c-1.464,7.292-1.451,15.014-1.491,22.428c-0.041,7.548,0.33,15.096,1.037,22.61
				c1.385,14.73,4.333,29.28,8.255,43.535c3.134,11.39,6.456,22.809,11.54,33.507c4.918,10.349,11.776,19.56,20.338,27.177
				c20.729,18.443,48.802,27.586,75.99,30.569c9.654,1.059,19.337,0.402,28.632-2.475c10.013-3.099,18.576-8.914,27.106-14.813
				c8.35-5.774,18.92-10.641,24.904-19.163c1.415-2.016,2.132-4.451,3.057-6.707c1.06-2.584,2.78-4.557,4.923-6.298
				c3.566-2.898,7.093-5.207,8.88-9.645c0.496-1.231-2.232-1.549-2.667-0.478c-2.302,5.674-8.071,7.789-11.781,12.293
				c-1.898,2.304-2.67,5.323-3.847,8.009c-1.516,3.46-4.644,6.104-7.507,8.451c-5.207,4.269-11.09,7.649-16.685,11.368
				c-5.539,3.682-10.819,7.607-16.714,10.733c-11.674,6.191-24.459,8.251-37.547,6.947c-14.272-1.421-28.553-4.864-41.876-10.157
				c-13.121-5.213-25.627-12.707-35.8-22.552c-8.366-8.096-14.521-17.974-19.064-28.638c-4.877-11.448-8.222-23.651-11.285-35.689
				c-3.746-14.722-6.151-29.755-7.054-44.921c-0.621-10.442-0.538-20.988,0.256-31.418c0.674-8.857,4.774-16.716,10.194-23.581
				c5.492-6.956,12.185-12.843,17.802-19.685c6.046-7.364,10.82-15.758,17.638-22.483
				C308.698,211.877,307.525,211.622,307.178,211.938L307.178,211.938z"/>
		</g>
	</g>
	<g>
		<g>
			<path fill="#0F0F0F" d="M468.986,239.354c-4.295,6.379-9.505,12.081-14.694,17.736c-4.885,5.323-9.3,11.425-14.717,16.206
				c-9.421,8.315-22.513,6.052-34.013,5.604c0.428,0.278,0.856,0.556,1.284,0.834c0.199-11.93-20.029-26.726-27.956-13.179
				c-0.623,1.065,1.99,1.384,2.561,0.459c6.993-11.313,22.951,3.416,22.827,12.72c-0.008,0.62,0.814,0.817,1.284,0.834
				c11.637,0.427,24.299,2.369,34.246-5.12c2.637-1.986,4.753-4.49,6.843-7.02c2.633-3.186,5.387-6.271,8.119-9.371
				c5.415-6.141,10.58-12.516,14.815-19.541C469.734,239.273,469.116,239.161,468.986,239.354L468.986,239.354z"/>
		</g>
	</g>
	<g>
		<g>
			<path fill="#0F0F0F" d="M411.828,230.987c-8.056,7.9-18.131,15.697-23.012,26.141c-0.371,0.793,1.361,0.912,1.718,0.308
				c2.941-4.987,6.283-9.398,10.233-13.633c3.927-4.211,8.162-8.11,11.898-12.498C413.014,230.894,412.091,230.729,411.828,230.987
				L411.828,230.987z"/>
		</g>
	</g>
	<g>
		<g>
			<path fill="#0F0F0F" d="M422.486,234.538c-5.902,5.019-11.175,10.725-16.501,16.337c-2.547,2.685-5.104,5.362-7.727,7.974
				c-1.188,1.183-2.407,2.335-3.629,3.483c-1.058,0.994-2.381,1.849-3.016,3.187c-0.166,0.35,0.483,0.399,0.666,0.333
				c2.594-0.937,4.72-3.425,6.661-5.301c2.816-2.722,5.505-5.571,8.174-8.436c5.385-5.78,10.648-11.685,16.276-17.233
				C423.8,234.478,422.782,234.287,422.486,234.538L422.486,234.538z"/>
		</g>
	</g>
	<g>
		<g>
			<path fill="#0F0F0F" d="M430.876,240.506c-4.383,5.866-10.656,9.838-16.561,14.006c-2.87,2.026-5.672,4.145-8.301,6.477
				c-2.302,2.042-5.584,4.95-6.409,8.036c-0.197,0.736,1.082,0.791,1.442,0.395c2.321-2.552,4.096-5.396,6.665-7.786
				c2.967-2.759,6.294-5.13,9.554-7.524c5.158-3.788,11.174-7.686,14.409-13.384C431.871,240.381,431.054,240.268,430.876,240.506
				L430.876,240.506z"/>
		</g>
	</g>
	<g>
		<g>
			<path fill="#0F0F0F" d="M442.709,242.864c-5.738,7.211-14.661,11.968-22.075,17.231c-3.692,2.621-7.4,5.308-10.658,8.466
				c-1.974,1.913-4.777,4.722-4.232,7.728c0.076,0.418,0.991,0.545,1.105,0.097c0.77-3.018,2.942-5.436,5.139-7.527
				c3.517-3.346,7.521-6.175,11.466-8.985c3.962-2.822,7.946-5.616,11.788-8.601c3.003-2.332,6.185-4.898,8.316-8.086
				C443.86,242.736,442.954,242.556,442.709,242.864L442.709,242.864z"/>
		</g>
	</g>
	<g>
		<g>
			<path fill="#0F0F0F" d="M453.511,246.385c-13.303,10.663-28.882,19.312-40.363,32.086c-0.598,0.666,0.774,0.878,1.164,0.757
				c1.123-0.351,1.991-0.941,2.985-1.556c0.432-0.267-0.257-0.517-0.511-0.431c-1.054,0.355-2.019,0.799-3.129,0.976
				c0.32,0.271,0.64,0.542,0.961,0.812c6.372-6.05,13.074-11.594,20.076-16.899c6.609-5.006,13.319-9.873,19.517-15.394
				C454.541,246.441,453.751,246.192,453.511,246.385L453.511,246.385z"/>
		</g>
	</g>
	<g>
		<g>
			<path fill="#0F0F0F" d="M457.05,245.341c-2.357,7.468-9.67,12.219-15.599,16.709c-5.34,4.044-13.143,9.427-14.643,16.457
				c-0.19,0.89,1.435,0.989,1.763,0.316c1.708-3.512,3.447-6.498,6.194-9.331c2.964-3.057,6.394-5.646,9.723-8.285
				c5.293-4.196,11.505-8.86,13.241-15.745C457.812,245.13,457.138,245.063,457.05,245.341L457.05,245.341z"/>
		</g>
	</g>
	<g>
		<g>
			<path fill="#0F0F0F" d="M394.809,326.262c-2.236,3.03-4.488,6.047-6.827,8.999c-0.649,0.819,0.878,1.034,1.368,0.889
				c1.528-0.451,2.487-1.377,3.563-2.51c0.733-0.772-1.171-1.241-1.727-0.656c-0.864,0.91-1.603,1.677-2.846,2.044
				c0.456,0.296,0.912,0.593,1.368,0.889c2.339-2.952,4.591-5.969,6.827-8.999C397.182,326.043,395.291,325.609,394.809,326.262
				L394.809,326.262z"/>
		</g>
	</g>
	<g>
		<g>
			<path fill="#0F0F0F" d="M396.381,332.419c-2.674,3.081-4.968,6.419-6.482,10.225c-0.355,0.892,1.619,1.122,1.929,0.346
				c1.47-3.695,3.684-6.922,6.281-9.914C398.812,332.264,396.912,331.807,396.381,332.419L396.381,332.419z"/>
		</g>
	</g>
	<g>
		<g>
			<path fill="#0F0F0F" d="M402.969,338.289c-3.457,3.325-6.469,7.02-8.319,11.482c-0.366,0.884,1.608,1.119,1.929,0.346
				c1.805-4.355,4.747-7.93,8.118-11.172C405.454,338.216,403.547,337.733,402.969,338.289L402.969,338.289z"/>
		</g>
	</g>
	<g>
		<g>
			<path fill="#0F0F0F" d="M410.676,342.764c-2.613,2.926-5.578,5.467-8.641,7.908c-0.953,0.759,0.759,1.442,1.414,0.919
				c3.168-2.524,6.25-5.144,8.954-8.171C413.117,342.621,411.215,342.161,410.676,342.764L410.676,342.764z"/>
		</g>
	</g>
	<g>
		<g>
			<path fill="#0F0F0F" d="M417.204,345.6c-3.255,5.177-7.565,9.585-10.674,14.864c-0.464,0.788,1.504,1.066,1.929,0.346
				c3.106-5.274,7.419-9.687,10.674-14.864C419.614,345.18,417.648,344.894,417.204,345.6L417.204,345.6z"/>
		</g>
	</g>
	<g>
		<g>
			<path fill="#0F0F0F" d="M296.575,241.759c-3.795,6.045-9.65,10.526-14.956,15.168c-2.588,2.264-5.087,4.645-7.304,7.277
				c-1.665,1.977-3.812,4.668-4.024,7.333c-0.037,0.463,0.89,0.474,1.092,0.192c1.869-2.616,3.171-5.479,5.295-7.963
				c2.245-2.625,4.844-4.937,7.399-7.251c4.906-4.441,10.041-8.784,13.372-14.6C297.661,241.546,296.77,241.45,296.575,241.759
				L296.575,241.759z"/>
		</g>
	</g>
	<g>
		<g>
			<path fill="#0F0F0F" d="M295.46,255.955c-4.158,6.317-9.385,11.717-14.606,17.155c-2.606,2.714-5.198,5.441-7.662,8.286
				c-2.257,2.605-5.289,5.738-6.422,9.053c-0.178,0.522,0.782,0.548,1.028,0.282c2.482-2.679,4.391-6.005,6.776-8.809
				c2.61-3.068,5.42-5.965,8.206-8.872c4.954-5.172,10.075-10.495,13.451-16.882C296.407,255.832,295.621,255.709,295.46,255.955
				L295.46,255.955z"/>
		</g>
	</g>
	<g>
		<g>
			<path fill="#0F0F0F" d="M288.309,277.226c-5.637,4.015-10.166,9.127-14.284,14.649c-2.214,2.969-4.27,6.054-6.358,9.112
				c-1.897,2.777-4.218,5.464-5.769,8.448c-0.316,0.607,0.969,0.623,1.257,0.344c2.408-2.334,4.188-5.44,6.061-8.204
				c1.927-2.842,3.846-5.689,5.82-8.498c3.993-5.681,8.458-11.165,14.047-15.348C289.618,277.328,288.677,276.964,288.309,277.226
				L288.309,277.226z"/>
		</g>
	</g>
	<g>
		<g>
			<path fill="#0F0F0F" d="M284.68,293.937c-3.577,5.273-7.092,10.551-11.075,15.534c-2.043,2.557-4.188,5.042-6.501,7.359
				c-0.967,0.969-1.991,1.879-3.057,2.737c-0.566,0.455-1.72,1.041-1.901,1.791c-0.059,0.247,0.21,0.35,0.414,0.354
				c2.05,0.033,4.009-2.148,5.383-3.442c2.485-2.339,4.691-4.983,6.799-7.659c4.01-5.09,8.036-10.571,10.894-16.412
				C285.846,293.771,284.882,293.64,284.68,293.937L284.68,293.937z"/>
		</g>
	</g>
	<g>
		<g>
			<path fill="#0F0F0F" d="M285.939,308.117c-4.884,3.175-8.743,7.98-12.158,12.617c-1.868,2.537-3.615,5.17-5.199,7.893
				c-1.022,1.757-3.324,4.907-2.911,7.061c0.069,0.359,0.625,0.373,0.844,0.149c1.452-1.482,2.211-4.039,3.222-5.848
				c1.565-2.798,3.326-5.493,5.165-8.117c3.293-4.7,7.006-9.973,11.799-13.259C287.245,308.24,286.308,307.878,285.939,308.117
				L285.939,308.117z"/>
		</g>
	</g>
	<g>
		<g>
			<path fill="#0F0F0F" d="M292.027,322.362c-4.804,2.095-8.372,6.133-11.589,10.139c-1.963,2.444-3.759,5.022-5.604,7.555
				c-1.448,1.989-3.471,3.995-4.508,6.226c-0.221,0.476,0.714,0.53,0.953,0.361c1.742-1.234,2.972-3.212,4.224-4.91
				c1.694-2.298,3.301-4.659,4.988-6.962c3.269-4.462,6.89-9.43,12.001-11.891C293.04,322.616,292.416,322.193,292.027,322.362
				L292.027,322.362z"/>
		</g>
	</g>
	<g>
		<g>
			<path fill="#0F0F0F" d="M288.203,340.253c-3.56,3.187-6.502,6.888-9.341,10.715c-1.553,2.094-3.055,4.225-4.577,6.341
				c-1.301,1.808-3.03,3.577-3.951,5.606c-0.242,0.533,0.792,0.482,1.028,0.282c1.706-1.451,2.945-3.571,4.251-5.383
				c1.523-2.112,3.019-4.243,4.545-6.353c2.752-3.807,5.67-7.541,9.031-10.833C289.628,340.196,288.529,339.962,288.203,340.253
				L288.203,340.253z"/>
		</g>
	</g>
	<g>
		<g>
			<path fill="#0F0F0F" d="M291.813,353.218c-4.15,3.24-7.14,8.159-10.068,12.45c-1.701,2.493-3.384,5.001-5.183,7.424
				c-0.404,0.544-2.522,3.907-3.309,3.856c-0.268-0.017-0.747,0.333-0.348,0.546c2.968,1.59,7.073-6.283,8.198-7.931
				c2.04-2.988,4.022-6.017,6.097-8.981c1.646-2.351,3.286-4.925,5.509-6.783C293.301,353.303,292.228,352.893,291.813,353.218
				L291.813,353.218z"/>
		</g>
	</g>
	<g>
		<g>
			<path fill="#0F0F0F" d="M298.898,361.737c-2.613,4.094-5.791,7.933-8.891,11.664c-1.612,1.94-3.242,3.863-4.899,5.764
				c-1.422,1.632-3.017,3.209-4.014,5.146c-0.207,0.402,0.622,0.456,0.823,0.311c3.776-2.73,6.799-6.994,9.687-10.615
				c3.08-3.862,5.727-7.877,8.275-12.095C300.12,361.51,299.121,361.387,298.898,361.737L298.898,361.737z"/>
		</g>
	</g>
	<g>
		<g>
			<path fill="#0F0F0F" d="M305.976,369.935c-4.866,4.378-9.658,8.826-13.979,13.753c-2.094,2.387-4.009,4.93-5.707,7.613
				c-1.307,2.066-3.031,4.814-2.948,7.351c0.017,0.531,0.984,0.481,1.182,0.104c1.232-2.358,2.019-4.855,3.419-7.159
				c1.721-2.832,3.852-5.414,6.007-7.922c4.061-4.726,8.563-9.073,13.106-13.33C307.539,369.892,306.34,369.608,305.976,369.935
				L305.976,369.935z"/>
		</g>
	</g>
	<g>
		<g>
			<path fill="#0F0F0F" d="M310.71,378.356c-2.423,5.128-5.259,10.094-8.551,14.715c-1.682,2.361-3.567,4.566-5.624,6.606
				c-1.067,1.058-2.231,2.004-3.453,2.876c-0.867,0.619-1.888,1.02-2.61,1.811c-0.425,0.466,0.465,0.723,0.785,0.664
				c2.282-0.423,4.267-2.279,5.962-3.768c2.326-2.043,4.279-4.491,6.089-6.989c3.507-4.84,6.245-10.199,8.517-15.715
				C312.039,378.038,310.913,377.927,310.71,378.356L310.71,378.356z"/>
		</g>
	</g>
	<g>
		<g>
			<path fill="#0F0F0F" d="M317.883,384.304c-1.046,2.59-3.35,4.825-5.188,6.864c-2.629,2.916-5.367,5.732-8.004,8.641
				c-1.227,1.353-9.336,9.148-5.512,10.955c0.203,0.096,0.842-0.064,0.566-0.368c-0.999-1.104,1.511-4.147,2.094-4.945
				c1.937-2.648,4.194-5.071,6.398-7.495c2.339-2.571,4.69-5.133,6.919-7.801c1.412-1.689,3.039-3.543,3.751-5.668
				C319.073,383.996,318.047,383.898,317.883,384.304L317.883,384.304z"/>
		</g>
	</g>
	<g>
		<g>
			<path fill="#0F0F0F" d="M326.495,394.847c-1.485,0.492-2.967,0.966-4.496,1.305c-0.12,0.027-0.335,0.094-0.369,0.24
				c-0.978,4.225-2.899,8.215-5.258,11.834c-1.171,1.797-2.53,3.471-3.951,5.074c-1.255,1.416-3.225,2.602-4.117,4.255
				c-0.249,0.461,0.665,0.532,0.895,0.447c1.97-0.726,3.483-2.564,4.873-4.075c1.67-1.816,3.084-3.845,4.388-5.933
				c1.399-2.241,2.497-4.638,3.339-7.139c0.33-0.98,0.544-1.959,0.7-2.979c0.279-1.827,2.909-2.027,4.429-2.547
				C327.464,395.146,326.861,394.725,326.495,394.847L326.495,394.847z"/>
		</g>
	</g>
	<g>
		<g>
			<path fill="#0F0F0F" d="M335.878,399.621c-4.252,3.367-8.11,7.14-11.662,11.238c-1.731,1.997-3.361,4.102-4.791,6.326
				c-1.164,1.808-2.929,4.159-2.858,6.415c0.016,0.493,0.958,0.548,1.194,0.21c1.111-1.593,1.767-3.517,2.745-5.202
				c1.479-2.55,3.301-4.91,5.143-7.204c3.257-4.056,6.909-8,10.903-11.344C336.999,399.685,336.19,399.374,335.878,399.621
				L335.878,399.621z"/>
		</g>
	</g>
	<g>
		<g>
			<path fill="#0F0F0F" d="M338.161,404.592c0.252,2.764-1.49,5.306-3.039,7.435c-2.211,3.039-4.903,5.736-7.516,8.424
				c-2.742,2.82-5.481,5.658-7.996,8.684c-1.808,2.175-3.77,4.64-4.091,7.533c-0.05,0.456,0.819,0.359,0.982,0.086
				c3.841-6.41,8.887-11.62,13.891-17.116c3.366-3.697,9.537-9.415,8.628-15.046C338.961,404.22,338.127,404.215,338.161,404.592
				L338.161,404.592z"/>
		</g>
	</g>
	<g>
		<g>
			<path fill="#0F0F0F" d="M352.259,405.674c-3.507,5.987-7.765,11.062-12.492,16.125c-2.286,2.448-4.549,4.916-6.683,7.499
				c-1.688,2.043-4.154,4.698-4.685,7.368c-0.114,0.576,1.044,0.475,1.281,0.226c2.101-2.21,3.601-5.155,5.562-7.534
				c2.134-2.589,4.446-5.03,6.699-7.515c4.265-4.703,9.324-9.85,11.493-15.959C353.643,405.299,352.497,405.269,352.259,405.674
				L352.259,405.674z"/>
		</g>
	</g>
	<g>
		<g>
			<path fill="#0F0F0F" d="M359.476,413.906c-3.879,5.805-9.793,10.444-14.624,15.431c-2.588,2.671-5.135,5.426-7.269,8.48
				c-1.245,1.781-2.612,3.87-1.902,6.073c0.111,0.345,0.989,0.383,1.07,0c1.222-5.778,6.805-10.717,10.708-14.783
				c4.502-4.69,9.758-9.247,13.075-14.913C360.789,413.757,359.703,413.566,359.476,413.906L359.476,413.906z"/>
		</g>
	</g>
	<g>
		<g>
			<path fill="#0F0F0F" d="M365.329,419.655c-4.781,2.792-6.388,8.049-10.023,11.936c-4.325,4.624-10.578,7.244-14.138,12.627
				c-0.581,0.879,0.973,1.045,1.495,0.75c1.175-0.663,2.282-1.399,3.415-2.128c0.5-0.322-0.295-0.65-0.615-0.518
				c-1.326,0.544-2.601,1.202-3.954,1.674c0.434,0.282,0.868,0.565,1.303,0.847c3.805-4.545,8.717-7.55,13.078-11.48
				c4.248-3.829,5.584-9.915,10.611-12.947C367.36,419.897,365.908,419.317,365.329,419.655L365.329,419.655z"/>
		</g>
	</g>
	<g>
		<g>
			<path fill="#0F0F0F" d="M374.832,419.812c-3.878,4.681-8.865,8.446-13.359,12.504c-2.321,2.096-4.566,4.299-6.528,6.739
				c-1.323,1.645-2.859,3.726-2.715,5.928c0.037,0.559,0.989,0.476,1.212,0.107c1.318-2.182,2.429-4.331,4.078-6.308
				c1.893-2.269,4.091-4.277,6.261-6.274c4.238-3.899,8.837-7.545,12.225-12.25C376.443,419.651,375.177,419.396,374.832,419.812
				L374.832,419.812z"/>
		</g>
	</g>
	<g>
		<g>
			<path fill="#0F0F0F" d="M388.901,415.284c-0.242,6.824-7.485,12.67-12.116,16.845c-2.943,2.653-6.009,5.165-9.012,7.75
				c-2.027,1.745-4.843,3.702-6.017,6.186c-0.24,0.508,0.774,0.582,1.032,0.39c2.524-1.881,4.758-4.25,7.152-6.299
				c3.187-2.726,6.402-5.419,9.498-8.249c4.446-4.065,11.177-9.98,11.011-16.623C390.431,414.599,388.925,414.6,388.901,415.284
				L388.901,415.284z"/>
		</g>
	</g>
	<g>
		<g>
			<path fill="#0F0F0F" d="M399.928,418.681c-5.046,4.572-10.237,8.982-15.208,13.637c-2.576,2.412-5.074,4.904-7.474,7.491
				c-1.989,2.144-4.775,4.699-5.805,7.477c-0.156,0.419,0.597,0.375,0.785,0.215c2.366-2.003,4.194-4.899,6.28-7.213
				c2.356-2.613,4.865-5.086,7.408-7.516c4.886-4.668,9.967-9.13,14.891-13.757C401.196,418.646,400.223,418.413,399.928,418.681
				L399.928,418.681z"/>
		</g>
	</g>
	<g>
		<g>
			<path fill="#0F0F0F" d="M414.129,416.285c-4.428,4.081-8.617,8.414-13.08,12.458c-2.978,2.699-6.209,5.002-9.452,7.361
				c-0.856,0.622-11.617,8.215-7.98,9.154c0.231,0.06,0.72-0.12,0.494-0.418c-1.146-1.507,10.479-9.332,11.707-10.237
				c7.116-5.243,12.943-11.849,19.295-17.944C415.552,416.239,414.459,415.981,414.129,416.285L414.129,416.285z"/>
		</g>
	</g>
	<g>
		<g>
			<path fill="#0F0F0F" d="M427.209,413.783c-6.952,4.942-13.943,9.824-20.509,15.279c-3.167,2.632-6.206,5.413-9.064,8.378
				c-2.619,2.718-6.2,6.159-7.46,9.796c-0.23,0.664,0.987,0.683,1.299,0.356c2.622-2.74,4.625-6.145,7.211-8.969
				c3.054-3.334,6.429-6.374,9.888-9.279c6.29-5.283,13.003-10.044,19.595-14.937C428.838,413.913,427.667,413.458,427.209,413.783
				L427.209,413.783z"/>
		</g>
	</g>
	<g>
		<g>
			<path fill="#0F0F0F" d="M438.023,413.697c-8.369,3.19-15.476,8.889-22.093,14.792c-3.853,3.437-7.519,7.076-11.147,10.746
				c-3.24,3.278-6.988,6.554-9.674,10.308c-0.361,0.505,0.606,0.694,0.92,0.462c3.424-2.538,6.347-5.962,9.325-8.996
				c3.41-3.475,6.866-6.906,10.417-10.237c6.776-6.358,14.265-12.751,22.97-16.276C439.611,414.142,438.625,413.467,438.023,413.697
				L438.023,413.697z"/>
		</g>
	</g>
	<g>
		<g>
			<path fill="#0F0F0F" d="M414.827,309.919c-2.959-1.237-7.484,0.49-10.258,1.613c-4.459,1.804-7.838,5.182-9.026,9.894
				c-1.251,4.966,0.196,10.446,2.735,14.759c2.087,3.545,4.876,5.525,8.544,7.103c3.136,1.349,21.132,7.017,15.879,12.954
				c-2.228,2.518-8.545,0.592-11.198-0.042c-3.59-0.857-7.025-2.177-10.496-3.406c-0.781-0.277-2.86,0.577-1.543,1.3
				c2.982,1.637,6.418,2.599,9.687,3.473c3.951,1.056,8.194,1.989,12.293,1.346c2.901-0.455,5.352-2.544,4.757-5.693
				c-0.633-3.347-4.414-5.425-7.147-6.848c-3.754-1.955-7.767-3.331-11.649-4.999c-4.573-1.965-7.277-5.958-8.824-10.609
				c-1.934-5.816-0.956-12.485,4.16-16.273c2.076-1.537,4.607-2.483,7.093-3.109c1.66-0.418,3.383-0.458,4.991-1.007
				C415.094,310.284,415.065,310.018,414.827,309.919L414.827,309.919z"/>
		</g>
	</g>
	<g>
		<g>
			<path fill="#0F0F0F" d="M491.518,323.431c9.621,0.04,10.163,13.135,10.33,20.131c0.096,4.024-0.149,8.86-3.594,11.554
				c-3.329,2.602-8.549,2.392-12.527,2.467c-1.224,0.023-1.232,1.323,0,1.3c4.536-0.085,9.654-0.083,13.613-2.616
				c4.053-2.593,4.56-7.916,4.517-12.274c-0.084-8.434-1.219-21.816-12.339-21.861C490.289,322.126,490.29,323.426,491.518,323.431
				L491.518,323.431z"/>
		</g>
	</g>
</g>
</svg>
