<?xml version="1.0" encoding="utf-8"?>
<!-- Generator: Adobe Illustrator 17.0.0, SVG Export Plug-In . SVG Version: 6.00 Build 0)  -->
<!DOCTYPE svg PUBLIC "-//W3C//DTD SVG 1.1//EN" "http://www.w3.org/Graphics/SVG/1.1/DTD/svg11.dtd">
<svg version="1.1" id="Layer_1" xmlns="http://www.w3.org/2000/svg" xmlns:xlink="http://www.w3.org/1999/xlink" x="0px" y="0px"
	 width="800px" height="600px" viewBox="0 0 800 600" enable-background="new 0 0 800 600" xml:space="preserve">
<g>
	<g>
		<path fill="#FFFFFF" d="M580.075,368.377c-118.431,6.728-236.354,6.728-354.784,0c28.022-49.766,56.042-99.525,84.065-149.288
			c62.584,3.367,124.066,3.367,186.653,0C524.035,268.852,552.048,318.611,580.075,368.377z"/>
		<path fill="#231F20" d="M402.683,375.106c-58.8,0-118.517-1.699-177.487-5.055l-2.691-0.151l85.898-152.544l1.043,0.056
			c31.118,1.677,62.485,2.524,93.236,2.524c30.751,0,62.12-0.846,93.241-2.524l1.042-0.056l85.898,152.544l-2.691,0.151
			C521.199,373.406,461.482,375.106,402.683,375.106z M228.077,366.851c58.03,3.244,116.763,4.893,174.605,4.893
			s116.576-1.649,174.606-4.893l-82.231-146.026c-30.832,1.637-61.91,2.471-92.377,2.471c-30.466,0-61.541-0.834-92.374-2.471
			L228.077,366.851z"/>
	</g>
	<g>
		<path fill="#231F20" d="M277.361,287.369c7.06-13.179,14.119-26.364,21.175-39.543c33.837,1.748,67.428,2.744,101.46,3.003
			c-0.183,13.325-0.364,26.655-0.545,39.982c0,0.068,0,0.101-0.003,0.173C358.54,290.74,318.027,289.538,277.361,287.369
			L277.361,287.369z M399.016,290.811c0.003-0.068,0.003-0.105,0.003-0.176C399.018,290.705,399.018,290.742,399.016,290.811
			L399.016,290.811z M278.408,287.079c40.053,2.097,79.894,3.274,120.174,3.555c0.23-13.157,0.452-26.306,0.686-39.46
			c-33.601-0.265-66.775-1.248-100.193-2.966C292.184,261.166,285.29,274.123,278.408,287.079L278.408,287.079z"/>
	</g>
	<g>
		<path fill="#231F20" d="M405.541,290.983c-0.158-13.382-0.325-26.772-0.487-40.155c34.03-0.253,67.618-1.245,101.459-2.987
			c7.012,13.129,14.009,26.255,21.028,39.379c0.034,0.069,0.053,0.105,0.089,0.173C486.964,289.556,446.453,290.742,405.541,290.983
			L405.541,290.983z M527.109,287.245c-0.037-0.061-0.059-0.099-0.095-0.166C527.05,287.146,527.072,287.184,527.109,287.245
			L527.109,287.245z M406.406,290.635c40.279-0.275,80.122-1.449,120.175-3.535c-6.855-12.959-13.735-25.915-20.605-38.872
			c-33.414,1.71-66.589,2.688-100.188,2.947C405.995,264.329,406.195,277.478,406.406,290.635L406.406,290.635z"/>
	</g>
	<path fill="#231F20" d="M399.726,257.366c-34.979-0.056-69.946-1.095-104.67-3.102c1.334-2.49,1.997-3.738,3.337-6.232
		c33.827,1.75,67.405,2.747,101.427,3.01C399.783,253.572,399.763,254.833,399.726,257.366z"/>
	<path fill="#231F20" d="M509.354,254.317c-34.723,1.999-69.697,3.011-104.673,3.049c-0.027-2.534-0.036-3.794-0.062-6.324
		c34.022-0.248,67.602-1.228,101.433-2.958C507.377,250.578,508.033,251.824,509.354,254.317z"/>
	<g>
		<path fill="#231F20" d="M265.52,311.046c4.541-8.527,6.805-12.79,11.344-21.316c84.792,4.442,168.728,4.405,253.504-0.105
			c4.566,8.452,6.852,12.681,11.421,21.134c0.034,0.071,0.053,0.101,0.089,0.17C449.509,315.874,357.913,315.92,265.52,311.046
			L265.52,311.046z M541.329,310.786c-0.038-0.071-0.056-0.105-0.093-0.174C541.273,310.681,541.291,310.715,541.329,310.786
			L541.329,310.786z M266.623,310.758c91.65,4.798,182.521,4.761,274.156-0.117c-4.43-8.252-6.642-12.373-11.072-20.624
			c-84.325,4.458-167.834,4.491-252.18,0.104C273.164,298.373,270.984,302.507,266.623,310.758L266.623,310.758z"/>
	</g>
	<path fill="#231F20" d="M533.294,295.939c-86.763,4.597-172.654,4.631-259.439,0.099c1.325-2.489,1.988-3.738,3.314-6.234
		c84.547,4.421,168.237,4.387,252.773-0.093C531.279,292.201,531.956,293.445,533.294,295.939z"/>
	<g>
		<path fill="#FFFFFF" d="M300.883,251.972c1.023-0.751,1.539-1.127,2.549-1.876c0.23,0.01,0.339,0.019,0.569,0.034
			c0.263,0.819,0.397,1.226,0.671,2.052c-0.242-0.018-0.371-0.024-0.613-0.037c-0.073-0.248-0.103-0.372-0.175-0.621
			c-0.675-0.038-1.014-0.053-1.69-0.091c-0.295,0.229-0.446,0.34-0.745,0.569C301.223,251.99,301.109,251.984,300.883,251.972z
			 M302.458,251.231c0.548,0.031,0.817,0.046,1.368,0.077c-0.061-0.226-0.091-0.344-0.148-0.572
			c-0.045-0.166-0.082-0.417-0.082-0.417c-0.01,0-0.249,0.238-0.404,0.362C302.9,250.899,302.75,251.011,302.458,251.231z"/>
		<path fill="#FFFFFF" d="M308.314,251.662c0.202,0.038,0.303,0.056,0.506,0.093c-0.216,0.207-0.492,0.362-0.841,0.461
			c-0.344,0.095-0.724,0.132-1.147,0.108c-0.438-0.018-0.774-0.081-1.005-0.186c-0.23-0.098-0.377-0.235-0.44-0.405
			c-0.061-0.17-0.047-0.352,0.047-0.54c0.103-0.201,0.269-0.377,0.505-0.518c0.237-0.145,0.516-0.247,0.847-0.312
			c0.335-0.065,0.676-0.084,1.029-0.065c0.401,0.021,0.715,0.086,0.943,0.203c0.225,0.111,0.351,0.26,0.37,0.449
			c-0.219,0.015-0.328,0.021-0.551,0.034c-0.026-0.149-0.107-0.26-0.257-0.334c-0.143-0.075-0.353-0.117-0.622-0.133
			c-0.308-0.016-0.583,0.006-0.828,0.069c-0.242,0.065-0.433,0.15-0.576,0.268c-0.145,0.117-0.247,0.241-0.309,0.372
			c-0.082,0.166-0.105,0.314-0.066,0.444c0.04,0.129,0.152,0.232,0.329,0.303c0.183,0.074,0.4,0.117,0.643,0.129
			c0.302,0.016,0.575-0.018,0.819-0.089C307.961,251.941,308.16,251.824,308.314,251.662z"/>
		<path fill="#FFFFFF" d="M312.387,251.867c0.203,0.037,0.306,0.056,0.506,0.093c-0.207,0.207-0.483,0.362-0.828,0.46
			c-0.345,0.099-0.725,0.133-1.144,0.115c-0.438-0.019-0.775-0.087-1.008-0.186c-0.233-0.099-0.381-0.231-0.446-0.401
			c-0.066-0.174-0.056-0.356,0.036-0.538c0.095-0.207,0.259-0.383,0.493-0.522c0.23-0.145,0.509-0.251,0.84-0.316
			s0.675-0.089,1.027-0.071c0.401,0.022,0.715,0.087,0.944,0.198c0.227,0.117,0.352,0.265,0.379,0.453
			c-0.221,0.016-0.329,0.022-0.549,0.034c-0.029-0.144-0.114-0.259-0.262-0.334c-0.149-0.071-0.359-0.117-0.627-0.13
			c-0.308-0.012-0.584,0.01-0.826,0.069c-0.24,0.061-0.427,0.154-0.569,0.271c-0.14,0.117-0.24,0.241-0.302,0.37
			c-0.075,0.168-0.095,0.316-0.055,0.445c0.039,0.129,0.154,0.232,0.334,0.303c0.184,0.073,0.401,0.117,0.645,0.13
			c0.301,0.012,0.575-0.018,0.82-0.093C312.042,252.145,312.24,252.028,312.387,251.867z"/>
		<path fill="#FFFFFF" d="M313.539,251.65c0.145-0.328,0.44-0.574,0.879-0.741c0.44-0.167,0.945-0.235,1.511-0.21
			c0.367,0.018,0.688,0.081,0.948,0.18c0.258,0.098,0.429,0.229,0.521,0.391c0.084,0.164,0.093,0.344,0.007,0.542
			c-0.083,0.201-0.243,0.37-0.472,0.525c-0.237,0.145-0.528,0.257-0.867,0.322c-0.339,0.068-0.682,0.093-1.033,0.077
			c-0.385-0.015-0.707-0.083-0.966-0.182c-0.259-0.105-0.435-0.238-0.518-0.399C313.463,251.99,313.46,251.824,313.539,251.65z
			 M314.088,251.681c-0.105,0.236-0.056,0.43,0.143,0.578c0.201,0.152,0.499,0.231,0.896,0.257c0.405,0.015,0.768-0.038,1.085-0.167
			c0.318-0.124,0.536-0.308,0.641-0.565c0.071-0.162,0.079-0.303,0.018-0.427c-0.059-0.126-0.183-0.225-0.367-0.302
			c-0.185-0.071-0.407-0.117-0.672-0.133c-0.377-0.018-0.729,0.031-1.053,0.148C314.452,251.181,314.222,251.381,314.088,251.681z"
			/>
		<path fill="#FFFFFF" d="M321.145,250.977c0.213,0.007,0.322,0.016,0.531,0.026c-0.184,0.451-0.274,0.682-0.465,1.136
			c-0.078,0.198-0.189,0.352-0.331,0.464c-0.138,0.117-0.345,0.201-0.614,0.265c-0.271,0.061-0.604,0.083-0.995,0.061
			c-0.379-0.012-0.671-0.061-0.888-0.136c-0.215-0.073-0.35-0.173-0.401-0.296c-0.053-0.127-0.033-0.293,0.06-0.504
			c0.19-0.455,0.288-0.684,0.482-1.135c0.213,0.006,0.318,0.006,0.532,0.02c-0.193,0.457-0.29,0.685-0.483,1.142
			c-0.072,0.168-0.092,0.293-0.059,0.378c0.029,0.083,0.111,0.154,0.255,0.204c0.137,0.049,0.325,0.083,0.554,0.092
			c0.395,0.019,0.692-0.009,0.896-0.092c0.204-0.081,0.358-0.242,0.461-0.492C320.87,251.656,320.958,251.431,321.145,250.977z"/>
		<path fill="#FFFFFF" d="M321.755,253.01c0.323-0.791,0.487-1.186,0.808-1.967c0.216,0.006,0.32,0.012,0.54,0.021
			c0.594,0.655,0.896,0.985,1.5,1.637c0.242-0.617,0.367-0.927,0.606-1.548c0.207,0.01,0.306,0.014,0.51,0.022
			c-0.305,0.788-0.461,1.18-0.769,1.971c-0.216-0.006-0.331-0.012-0.55-0.025c-0.611-0.652-0.907-0.983-1.503-1.641
			c-0.251,0.625-0.382,0.93-0.631,1.548C322.064,253.022,321.959,253.022,321.755,253.01z"/>
		<path fill="#FFFFFF" d="M326.887,253.226c0.263-0.696,0.4-1.044,0.663-1.74c-0.528-0.018-0.794-0.033-1.322-0.055
			c0.036-0.089,0.049-0.139,0.082-0.232c1.273,0.053,1.912,0.078,3.186,0.129c-0.037,0.093-0.05,0.143-0.087,0.235
			c-0.531-0.018-0.797-0.033-1.328-0.055c-0.263,0.698-0.395,1.044-0.657,1.742C327.209,253.238,327.1,253.238,326.887,253.226z"/>
		<path fill="#FFFFFF" d="M330.881,253.386c0.286-0.791,0.423-1.182,0.705-1.973c0.216,0.006,0.322,0.012,0.538,0.021
			c-0.281,0.791-0.429,1.181-0.709,1.971C331.199,253.399,331.093,253.392,330.881,253.386z"/>
		<path fill="#FFFFFF" d="M332.354,253.449c0.282-0.797,0.421-1.19,0.698-1.977c0.221,0.006,0.327,0.009,0.545,0.018
			c0.627,0.655,0.945,0.979,1.588,1.627c0.207-0.614,0.312-0.929,0.522-1.547c0.204,0.006,0.309,0.009,0.511,0.015
			c-0.263,0.795-0.4,1.19-0.666,1.981c-0.219-0.012-0.324-0.012-0.548-0.022c-0.643-0.655-0.961-0.979-1.588-1.627
			c-0.217,0.614-0.328,0.927-0.543,1.544C332.666,253.455,332.564,253.449,332.354,253.449z"/>
		<path fill="#FFFFFF" d="M336.484,253.597c0.263-0.791,0.391-1.186,0.654-1.975c1.086,0.034,1.627,0.059,2.711,0.097
			c-0.029,0.093-0.04,0.136-0.07,0.231c-0.873-0.033-1.308-0.047-2.181-0.077c-0.083,0.245-0.125,0.371-0.204,0.609
			c0.754,0.034,1.136,0.043,1.894,0.071c-0.029,0.093-0.043,0.142-0.076,0.232c-0.758-0.028-1.135-0.038-1.89-0.065
			c-0.121,0.358-0.183,0.537-0.301,0.895C336.807,253.609,336.702,253.603,336.484,253.597z"/>
		<path fill="#FFFFFF" d="M340.059,252.747c0.101-0.328,0.367-0.577,0.785-0.751c0.414-0.172,0.901-0.249,1.468-0.235
			c0.37,0.012,0.697,0.071,0.968,0.168c0.271,0.099,0.456,0.225,0.567,0.385c0.109,0.158,0.142,0.344,0.083,0.538
			c-0.06,0.204-0.195,0.377-0.408,0.532c-0.209,0.154-0.482,0.265-0.813,0.336c-0.328,0.075-0.666,0.099-1.017,0.089
			c-0.384-0.012-0.715-0.067-0.988-0.166c-0.273-0.101-0.462-0.231-0.567-0.392C340.032,253.084,340.003,252.923,340.059,252.747z
			 M340.611,252.775c-0.076,0.235,0,0.429,0.219,0.575c0.22,0.142,0.528,0.225,0.922,0.238c0.407,0.015,0.762-0.047,1.064-0.176
			c0.302-0.133,0.493-0.322,0.567-0.575c0.05-0.162,0.033-0.307-0.043-0.433c-0.072-0.117-0.21-0.223-0.406-0.293
			c-0.191-0.071-0.42-0.111-0.686-0.121c-0.379-0.012-0.723,0.038-1.033,0.155C340.905,252.265,340.701,252.472,340.611,252.775z"/>
		<path fill="#FFFFFF" d="M344.337,253.862c0.233-0.79,0.351-1.186,0.581-1.983c0.713,0.024,1.066,0.038,1.781,0.062
			c0.358,0.009,0.624,0.037,0.802,0.079c0.176,0.038,0.312,0.105,0.396,0.196c0.088,0.095,0.115,0.197,0.085,0.306
			c-0.035,0.142-0.168,0.259-0.38,0.346c-0.213,0.093-0.907,0.16-0.907,0.16s0.233,0.071,0.297,0.105
			c0.137,0.075,0.258,0.166,0.371,0.279c0.222,0.225,0.334,0.336,0.557,0.561c-0.273-0.009-0.407-0.012-0.676-0.021
			c-0.17-0.17-0.252-0.257-0.421-0.43c-0.125-0.123-0.23-0.215-0.314-0.284c-0.08-0.065-0.162-0.115-0.237-0.139
			c-0.071-0.027-0.143-0.049-0.225-0.059c-0.056-0.012-0.155-0.018-0.292-0.018c-0.251-0.009-0.375-0.016-0.624-0.022
			c-0.103,0.35-0.155,0.529-0.257,0.882C344.659,253.874,344.554,253.868,344.337,253.862z M345.198,252.775
			c0.458,0.012,0.688,0.018,1.148,0.037c0.245,0.006,0.44,0,0.583-0.021c0.145-0.022,0.263-0.059,0.347-0.109
			c0.09-0.055,0.139-0.111,0.158-0.173c0.023-0.097-0.026-0.174-0.143-0.241c-0.126-0.062-0.335-0.103-0.631-0.111
			c-0.511-0.012-0.768-0.026-1.28-0.04C345.306,252.38,345.273,252.516,345.198,252.775z"/>
		<path fill="#FFFFFF" d="M348.412,253.986c0.213-0.79,0.323-1.186,0.539-1.977c0.322,0.012,0.479,0.012,0.797,0.02
			c0.234,0.575,0.351,0.861,0.587,1.433c0.055,0.129,0.119,0.296,0.119,0.296c0.006,0,0.161-0.169,0.294-0.308
			c0.532-0.54,0.795-0.809,1.319-1.35c0.29,0.006,0.427,0.009,0.715,0.019c-0.201,0.791-0.294,1.19-0.495,1.979
			c-0.208-0.006-0.312-0.012-0.515-0.012c0.168-0.664,0.248-1,0.421-1.662c-0.638,0.656-0.962,0.976-1.608,1.627
			c-0.192-0.009-0.29-0.009-0.484-0.015c-0.292-0.686-0.433-1.032-0.718-1.721c-0.181,0.677-0.275,1.011-0.453,1.687
			C348.722,253.999,348.619,253.992,348.412,253.986z"/>
		<path fill="#FFFFFF" d="M352.708,254.109c0.824-0.778,1.231-1.168,2.038-1.943c0.23,0.004,0.344,0.01,0.575,0.016
			c0.47,0.816,0.712,1.217,1.191,2.026c-0.243-0.006-0.364-0.012-0.61-0.018c-0.134-0.241-0.204-0.364-0.335-0.609
			c-0.679-0.021-1.014-0.027-1.693-0.045c-0.236,0.235-0.353,0.352-0.591,0.587C353.052,254.119,352.939,254.113,352.708,254.109z
			 M354.083,253.325c0.548,0.018,0.82,0.025,1.368,0.037c-0.114-0.222-0.17-0.34-0.289-0.562c-0.088-0.17-0.187-0.417-0.187-0.417
			c-0.006,0-0.187,0.251-0.309,0.374C354.43,252.985,354.317,253.099,354.083,253.325z"/>
		<path fill="#FFFFFF" d="M357.555,254.234c0.158-0.698,0.24-1.051,0.394-1.752c-0.528-0.01-0.794-0.016-1.327-0.034
			c0.02-0.093,0.034-0.136,0.053-0.231c1.277,0.033,1.914,0.049,3.19,0.077c-0.023,0.093-0.033,0.142-0.05,0.237
			c-0.534-0.012-0.8-0.021-1.334-0.033c-0.155,0.698-0.233,1.047-0.389,1.749C357.877,254.24,357.772,254.24,357.555,254.234z"/>
		<path fill="#FFFFFF" d="M360.074,254.295c0.172-0.797,0.257-1.19,0.427-1.983c0.21,0.003,0.323,0.003,0.532,0.01
			c-0.164,0.796-0.249,1.188-0.416,1.986C360.403,254.301,360.291,254.295,360.074,254.295z"/>
		<path fill="#FFFFFF" d="M361.604,253.356c0.066-0.328,0.295-0.581,0.692-0.763c0.397-0.174,0.88-0.257,1.448-0.244
			c0.37,0.006,0.697,0.056,0.978,0.155c0.282,0.089,0.486,0.216,0.61,0.377c0.131,0.16,0.177,0.336,0.138,0.537
			c-0.037,0.198-0.148,0.378-0.341,0.536c-0.198,0.154-0.46,0.269-0.781,0.342c-0.318,0.077-0.657,0.111-1.004,0.105
			c-0.389-0.012-0.719-0.061-1.005-0.154c-0.282-0.099-0.478-0.232-0.604-0.39C361.61,253.696,361.566,253.532,361.604,253.356z
			 M362.155,253.374c-0.049,0.241,0.043,0.429,0.275,0.575c0.236,0.142,0.551,0.216,0.945,0.226
			c0.408,0.009,0.756-0.056,1.044-0.189c0.288-0.13,0.452-0.327,0.503-0.581c0.029-0.16,0.003-0.305-0.082-0.425
			c-0.089-0.127-0.236-0.223-0.44-0.293c-0.197-0.071-0.433-0.105-0.698-0.111c-0.379-0.01-0.717,0.046-1.015,0.17
			C362.391,252.868,362.214,253.078,362.155,253.374z"/>
		<path fill="#FFFFFF" d="M365.975,254.422c0.144-0.801,0.22-1.193,0.366-1.987c0.219,0,0.327,0.006,0.547,0.012
			c0.732,0.637,1.103,0.957,1.85,1.601c0.105-0.627,0.158-0.937,0.263-1.564c0.204,0.006,0.306,0.006,0.51,0.013
			c-0.131,0.79-0.198,1.188-0.333,1.983c-0.219-0.006-0.327-0.006-0.551-0.012c-0.747-0.637-1.115-0.959-1.85-1.6
			c-0.115,0.623-0.175,0.939-0.286,1.56C366.283,254.425,366.177,254.422,365.975,254.422z"/>
	</g>
	<g>
		<path fill="#FFFFFF" d="M409.094,254.77c-0.022-0.791-0.036-1.19-0.061-1.985c0.6,0,0.905,0,1.509-0.004
			c0.31,0,0.554,0.016,0.741,0.056c0.187,0.037,0.339,0.098,0.45,0.185c0.11,0.081,0.165,0.168,0.171,0.257
			c0.004,0.087-0.04,0.17-0.131,0.237c-0.088,0.081-0.417,0.189-0.417,0.189c0.003,0.009,0.434,0.092,0.571,0.176
			c0.134,0.085,0.207,0.185,0.213,0.302c0.004,0.093-0.029,0.18-0.105,0.259c-0.078,0.081-0.174,0.139-0.291,0.186
			c-0.116,0.043-0.263,0.077-0.44,0.105c-0.181,0.022-0.401,0.037-0.66,0.037C410.025,254.77,409.715,254.77,409.094,254.77z
			 M409.593,253.615c0.352,0,0.528,0,0.878,0c0.235,0,0.41-0.012,0.507-0.027c0.135-0.022,0.24-0.053,0.304-0.097
			c0.067-0.049,0.097-0.108,0.097-0.176c-0.004-0.065-0.036-0.126-0.105-0.176c-0.065-0.049-0.161-0.083-0.284-0.099
			c-0.117-0.018-0.32-0.027-0.612-0.027c-0.318,0-0.482,0.009-0.803,0.009C409.581,253.257,409.584,253.378,409.593,253.615z
			 M409.627,254.536c0.403,0,0.603-0.003,1.01-0.003c0.17,0,0.298-0.004,0.364-0.016c0.123-0.006,0.229-0.025,0.31-0.055
			c0.087-0.022,0.149-0.062,0.198-0.111c0.052-0.044,0.076-0.099,0.076-0.168c-0.004-0.071-0.046-0.136-0.128-0.192
			c-0.078-0.055-0.187-0.092-0.324-0.11c-0.143-0.026-0.335-0.034-0.592-0.034c-0.377,0.006-0.561,0.006-0.935,0.009
			C409.614,254.125,409.616,254.264,409.627,254.536z"/>
		<path fill="#FFFFFF" d="M412.459,254.758c0.587-0.797,0.875-1.198,1.446-1.995c0.229,0,0.351-0.006,0.581-0.006
			c0.706,0.797,1.06,1.186,1.779,1.977c-0.243,0.003-0.366,0.003-0.61,0.006c-0.208-0.244-0.309-0.358-0.512-0.599
			c-0.68,0.006-1.021,0.006-1.697,0.006c-0.166,0.247-0.248,0.364-0.412,0.609C412.802,254.758,412.689,254.758,412.459,254.758z
			 M413.587,253.936c0.547-0.006,0.827-0.006,1.376-0.012c-0.181-0.216-0.269-0.328-0.454-0.546
			c-0.138-0.164-0.308-0.411-0.308-0.411c-0.011,0-0.111,0.253-0.198,0.383C413.839,253.581,413.755,253.702,413.587,253.936z"/>
		<path fill="#FFFFFF" d="M416.676,254.734c-0.057-0.797-0.079-1.196-0.134-1.989c0.208,0,0.318,0,0.531-0.004
			c0.05,0.702,0.071,1.054,0.124,1.752c0.802-0.01,1.202-0.01,2.003-0.018c0.006,0.092,0.006,0.142,0.017,0.235
			C418.197,254.721,417.692,254.721,416.676,254.734z"/>
		<path fill="#FFFFFF" d="M419.408,254.709c0.558-0.801,0.84-1.199,1.385-2.003c0.229,0,0.345-0.006,0.572-0.006
			c0.732,0.791,1.107,1.181,1.852,1.971c-0.247,0-0.372,0-0.617,0.006c-0.213-0.241-0.322-0.361-0.532-0.599
			c-0.68,0.006-1.017,0.012-1.696,0.018c-0.154,0.248-0.234,0.366-0.391,0.606C419.752,254.706,419.638,254.706,419.408,254.709z
			 M420.511,253.882c0.548-0.008,0.823-0.008,1.37-0.014c-0.189-0.219-0.282-0.33-0.47-0.547c-0.143-0.166-0.324-0.405-0.324-0.405
			c-0.006,0-0.105,0.251-0.187,0.377C420.747,253.529,420.665,253.647,420.511,253.882z"/>
		<path fill="#FFFFFF" d="M423.645,254.665c-0.087-0.797-0.128-1.192-0.213-1.989c0.219,0,0.333,0,0.549-0.006
			c0.913,0.617,1.372,0.92,2.297,1.538c-0.071-0.627-0.108-0.939-0.182-1.563c0.206,0,0.307-0.004,0.511-0.006
			c0.095,0.794,0.141,1.192,0.236,1.983c-0.219,0.006-0.329,0.01-0.551,0.01c-0.924-0.613-1.388-0.918-2.302-1.533
			c0.067,0.621,0.102,0.936,0.17,1.56C423.952,254.659,423.847,254.665,423.645,254.665z"/>
		<path fill="#FFFFFF" d="M430.551,253.874c0.219,0.026,0.33,0.038,0.549,0.062c-0.082,0.219-0.259,0.386-0.534,0.5
			c-0.28,0.117-0.631,0.18-1.054,0.186c-0.436,0.006-0.805-0.031-1.088-0.117c-0.286-0.081-0.51-0.204-0.674-0.364
			c-0.161-0.168-0.26-0.344-0.281-0.532c-0.023-0.21,0.032-0.393,0.172-0.547c0.141-0.154,0.356-0.275,0.64-0.362
			c0.286-0.086,0.608-0.126,0.966-0.13c0.4-0.006,0.747,0.037,1.033,0.136c0.292,0.097,0.499,0.235,0.633,0.414
			c-0.207,0.025-0.309,0.043-0.515,0.075c-0.118-0.145-0.266-0.248-0.453-0.315c-0.184-0.062-0.412-0.089-0.681-0.087
			c-0.309,0.006-0.562,0.046-0.762,0.123c-0.201,0.075-0.329,0.174-0.4,0.299c-0.07,0.127-0.099,0.254-0.079,0.38
			c0.016,0.174,0.088,0.318,0.205,0.445c0.12,0.123,0.284,0.21,0.503,0.275c0.221,0.059,0.46,0.083,0.705,0.083
			c0.303-0.006,0.552-0.049,0.748-0.136C430.378,254.171,430.501,254.042,430.551,253.874z"/>
		<path fill="#FFFFFF" d="M431.862,254.554c-0.117-0.797-0.173-1.192-0.287-1.989c1.162-0.012,1.746-0.025,2.908-0.047
			c0.018,0.097,0.024,0.139,0.043,0.238c-0.951,0.012-1.431,0.025-2.382,0.037c0.034,0.247,0.053,0.364,0.089,0.611
			c0.896-0.018,1.344-0.024,2.24-0.039c0.012,0.089,0.016,0.138,0.034,0.231c-0.896,0.018-1.347,0.025-2.244,0.037
			c0.041,0.273,0.056,0.408,0.099,0.68c0.995-0.018,1.495-0.027,2.497-0.043c0.012,0.093,0.018,0.142,0.037,0.235
			C433.685,254.523,433.073,254.536,431.862,254.554z"/>
		<path fill="#FFFFFF" d="M436.929,253.825c0.204-0.016,0.299-0.018,0.5-0.031c0.037,0.099,0.109,0.179,0.207,0.241
			c0.103,0.061,0.245,0.111,0.437,0.148c0.194,0.034,0.401,0.05,0.633,0.046c0.203-0.004,0.386-0.022,0.534-0.055
			c0.151-0.034,0.265-0.078,0.328-0.127c0.071-0.056,0.099-0.111,0.086-0.174c-0.012-0.065-0.061-0.117-0.148-0.16
			c-0.081-0.049-0.204-0.083-0.38-0.111c-0.114-0.015-0.361-0.049-0.739-0.087c-0.379-0.033-0.646-0.067-0.8-0.104
			c-0.201-0.047-0.358-0.105-0.466-0.18c-0.105-0.071-0.171-0.148-0.186-0.241c-0.019-0.103,0.028-0.198,0.126-0.285
			c0.103-0.092,0.257-0.164,0.47-0.209c0.213-0.05,0.454-0.078,0.725-0.084c0.297-0.002,0.568,0.016,0.807,0.059
			c0.231,0.044,0.423,0.109,0.565,0.198c0.136,0.093,0.226,0.192,0.253,0.309c-0.203,0.012-0.308,0.018-0.51,0.031
			c-0.049-0.129-0.163-0.219-0.33-0.284c-0.166-0.056-0.405-0.084-0.717-0.078c-0.324,0.004-0.55,0.038-0.69,0.099
			c-0.138,0.065-0.203,0.133-0.188,0.217c0.012,0.071,0.081,0.127,0.192,0.17c0.111,0.049,0.389,0.087,0.828,0.13
			c0.445,0.037,0.751,0.075,0.918,0.109c0.243,0.049,0.429,0.111,0.553,0.188c0.129,0.083,0.21,0.176,0.231,0.284
			c0.022,0.105-0.027,0.207-0.132,0.303c-0.105,0.093-0.275,0.17-0.498,0.225c-0.22,0.056-0.476,0.084-0.763,0.09
			c-0.37,0.012-0.68-0.014-0.939-0.056c-0.257-0.049-0.467-0.126-0.627-0.222C437.052,254.078,436.96,253.961,436.929,253.825z"/>
		<path fill="#FFFFFF" d="M443.269,252.348c0.209-0.006,0.314-0.006,0.524-0.012c0.099,0.455,0.148,0.686,0.241,1.143
			c0.044,0.201,0.032,0.362-0.037,0.482c-0.071,0.117-0.217,0.216-0.441,0.291c-0.226,0.079-0.534,0.126-0.924,0.136
			c-0.383,0.006-0.704-0.018-0.958-0.075c-0.253-0.061-0.441-0.151-0.568-0.271c-0.13-0.117-0.216-0.285-0.253-0.488
			c-0.09-0.463-0.129-0.692-0.223-1.149c0.217-0.006,0.322-0.006,0.541-0.012c0.083,0.46,0.127,0.686,0.216,1.143
			c0.034,0.172,0.095,0.296,0.172,0.379c0.078,0.084,0.204,0.143,0.374,0.182c0.167,0.044,0.37,0.059,0.599,0.05
			c0.396-0.006,0.674-0.056,0.819-0.145c0.151-0.093,0.198-0.263,0.146-0.51C443.404,253.034,443.36,252.803,443.269,252.348z"/>
		<path fill="#FFFFFF" d="M445.088,254.295c-0.168-0.791-0.251-1.186-0.42-1.981c0.322-0.006,0.482-0.009,0.807-0.021
			c0.5,0.553,0.753,0.828,1.257,1.384c0.121,0.126,0.257,0.287,0.257,0.287c0.006,0,0.087-0.18,0.152-0.322
			c0.265-0.559,0.398-0.84,0.658-1.4c0.283-0.012,0.425-0.012,0.71-0.019c0.186,0.789,0.275,1.187,0.457,1.977
			c-0.204,0.01-0.309,0.012-0.52,0.016c-0.144-0.664-0.229-0.998-0.377-1.659c-0.315,0.674-0.476,1.014-0.803,1.687
			c-0.191,0.006-0.287,0.006-0.482,0.012c-0.617-0.664-0.927-0.995-1.538-1.663c0.145,0.677,0.216,1.014,0.361,1.691
			C445.4,254.289,445.294,254.295,445.088,254.295z"/>
		<path fill="#FFFFFF" d="M449.817,254.184c-0.185-0.797-0.277-1.186-0.466-1.983c0.322-0.006,0.482-0.012,0.803-0.019
			c0.516,0.55,0.769,0.824,1.287,1.378c0.123,0.126,0.267,0.287,0.267,0.287c0.006,0,0.079-0.182,0.142-0.325
			c0.257-0.561,0.383-0.84,0.627-1.405c0.287-0.006,0.423-0.01,0.707-0.019c0.204,0.79,0.31,1.189,0.51,1.98
			c-0.207,0.006-0.305,0.006-0.516,0.012c-0.17-0.66-0.253-0.992-0.419-1.656c-0.303,0.676-0.451,1.014-0.76,1.69
			c-0.191,0.004-0.29,0.01-0.486,0.016c-0.639-0.668-0.954-0.995-1.578-1.659c0.161,0.674,0.241,1.016,0.402,1.686
			C450.126,254.175,450.027,254.177,449.817,254.184z"/>
		<path fill="#FFFFFF" d="M454.115,254.066c0.421-0.81,0.627-1.214,1.034-2.02c0.232-0.006,0.344-0.012,0.575-0.018
			c0.868,0.771,1.311,1.154,2.193,1.927c-0.247,0.01-0.371,0.012-0.611,0.024c-0.253-0.237-0.383-0.358-0.636-0.593
			c-0.68,0.026-1.017,0.034-1.693,0.053c-0.115,0.247-0.176,0.368-0.291,0.611C454.457,254.06,454.34,254.06,454.115,254.066z
			 M455.072,253.22c0.547-0.012,0.828-0.025,1.375-0.038c-0.229-0.215-0.346-0.324-0.568-0.537
			c-0.176-0.164-0.396-0.402-0.396-0.402c-0.006,0-0.059,0.26-0.114,0.384C455.248,252.868,455.187,252.985,455.072,253.22z"/>
		<path fill="#FFFFFF" d="M458.356,253.943c-0.225-0.788-0.33-1.186-0.553-1.977c0.714-0.024,1.072-0.031,1.783-0.055
			c0.358-0.01,0.636,0,0.834,0.031c0.194,0.031,0.364,0.087,0.5,0.17c0.136,0.089,0.222,0.188,0.26,0.293
			c0.037,0.138-0.02,0.265-0.174,0.364c-0.16,0.105-0.809,0.21-0.809,0.21c0,0.006,0.265,0.061,0.35,0.089
			c0.176,0.065,0.349,0.148,0.525,0.247c0.344,0.207,0.516,0.312,0.862,0.516c-0.265,0.012-0.401,0.016-0.674,0.025
			c-0.259-0.16-0.395-0.241-0.658-0.395c-0.194-0.111-0.342-0.198-0.463-0.259c-0.117-0.062-0.225-0.103-0.316-0.123
			c-0.083-0.022-0.17-0.038-0.256-0.05c-0.062,0-0.161,0-0.303,0c-0.247,0.006-0.37,0.012-0.617,0.022
			c0.098,0.349,0.15,0.528,0.247,0.88C458.678,253.936,458.566,253.936,458.356,253.943z M458.585,252.824
			c0.457-0.012,0.686-0.021,1.143-0.037c0.247-0.006,0.433-0.024,0.565-0.055c0.133-0.026,0.22-0.075,0.275-0.13
			c0.056-0.06,0.081-0.118,0.063-0.18c-0.028-0.093-0.121-0.174-0.273-0.222c-0.16-0.055-0.389-0.083-0.686-0.075
			c-0.512,0.02-0.763,0.028-1.275,0.04C458.473,252.429,458.51,252.559,458.585,252.824z"/>
		<path fill="#FFFFFF" d="M463.484,253.785c-0.104-0.336-0.154-0.506-0.253-0.838c-0.759-0.438-1.143-0.654-1.896-1.093
			c0.259-0.01,0.386-0.012,0.646-0.018c0.386,0.225,0.581,0.34,0.973,0.568c0.182,0.111,0.512,0.322,0.512,0.322
			c0.032-0.006,0.204-0.229,0.334-0.366c0.241-0.243,0.358-0.364,0.599-0.605c0.248-0.009,0.374-0.012,0.619-0.022
			c-0.498,0.48-0.742,0.714-1.252,1.196c0.103,0.334,0.152,0.501,0.257,0.835C463.805,253.776,463.7,253.776,463.484,253.785z"/>
	</g>
	<g>
		<path fill="#FFFFFF" d="M280.331,293.783c1.155-0.742,1.722-1.113,2.861-1.86c0.28,0.019,0.417,0.025,0.697,0.037
			c0.406,0.828,0.61,1.242,1.031,2.07c-0.296-0.016-0.44-0.024-0.738-0.044c-0.109-0.247-0.173-0.373-0.284-0.617
			c-0.817-0.049-1.223-0.069-2.037-0.117c-0.339,0.232-0.505,0.346-0.84,0.565C280.746,293.804,280.606,293.795,280.331,293.783z
			 M282.149,293.053c0.663,0.038,0.998,0.056,1.66,0.093c-0.098-0.231-0.144-0.342-0.238-0.575
			c-0.076-0.172-0.143-0.419-0.143-0.419c-0.012-0.006-0.281,0.241-0.452,0.358C282.646,292.725,282.477,292.838,282.149,293.053z"
			/>
		<path fill="#FFFFFF" d="M289.257,293.551c0.246,0.037,0.368,0.059,0.616,0.099c-0.235,0.204-0.558,0.356-0.964,0.453
			c-0.408,0.087-0.863,0.124-1.372,0.099c-0.528-0.031-0.945-0.093-1.231-0.197c-0.288-0.105-0.479-0.245-0.57-0.414
			c-0.095-0.174-0.095-0.352-0.004-0.538c0.098-0.203,0.285-0.377,0.55-0.525c0.27-0.136,0.604-0.241,0.998-0.299
			c0.394-0.059,0.808-0.077,1.235-0.056c0.484,0.022,0.872,0.091,1.162,0.21c0.282,0.117,0.446,0.271,0.493,0.46
			c-0.27,0.01-0.405,0.02-0.671,0.026c-0.044-0.149-0.156-0.26-0.341-0.34c-0.184-0.074-0.439-0.117-0.762-0.136
			c-0.373-0.02-0.704,0-0.989,0.059c-0.29,0.059-0.512,0.148-0.669,0.268c-0.161,0.111-0.271,0.238-0.336,0.362
			c-0.078,0.17-0.092,0.324-0.032,0.448c0.059,0.131,0.202,0.236,0.433,0.309c0.224,0.077,0.484,0.123,0.781,0.139
			c0.363,0.015,0.695-0.01,0.987-0.077C288.859,293.826,289.09,293.711,289.257,293.551z"/>
		<path fill="#FFFFFF" d="M294.192,293.795c0.242,0.043,0.367,0.059,0.612,0.099c-0.229,0.209-0.546,0.358-0.951,0.454
			c-0.403,0.095-0.859,0.127-1.372,0.105c-0.528-0.028-0.94-0.095-1.23-0.194c-0.291-0.105-0.483-0.241-0.577-0.415
			c-0.099-0.172-0.109-0.352-0.021-0.537c0.099-0.204,0.28-0.378,0.545-0.526c0.263-0.139,0.597-0.241,0.99-0.299
			c0.391-0.065,0.805-0.083,1.235-0.065c0.484,0.028,0.866,0.099,1.152,0.216c0.285,0.114,0.462,0.265,0.511,0.451
			c-0.265,0.012-0.402,0.018-0.665,0.033c-0.05-0.151-0.171-0.265-0.356-0.336c-0.183-0.077-0.433-0.123-0.762-0.139
			c-0.373-0.021-0.701,0-0.987,0.059c-0.286,0.059-0.505,0.151-0.663,0.266c-0.16,0.117-0.265,0.241-0.324,0.371
			c-0.079,0.166-0.09,0.318-0.027,0.445c0.065,0.132,0.21,0.237,0.436,0.308c0.226,0.077,0.489,0.123,0.784,0.136
			c0.364,0.02,0.696-0.012,0.984-0.08C293.798,294.073,294.029,293.961,294.192,293.795z"/>
		<path fill="#FFFFFF" d="M295.557,293.587c0.144-0.324,0.476-0.567,0.99-0.735c0.52-0.16,1.12-0.231,1.806-0.194
			c0.45,0.018,0.833,0.081,1.154,0.185c0.323,0.105,0.548,0.238,0.67,0.402c0.125,0.166,0.144,0.342,0.059,0.538
			c-0.084,0.203-0.259,0.377-0.528,0.525c-0.265,0.149-0.6,0.253-1.004,0.316c-0.404,0.068-0.818,0.089-1.243,0.068
			c-0.461-0.02-0.853-0.084-1.182-0.192c-0.32-0.105-0.537-0.241-0.659-0.408C295.498,293.927,295.479,293.761,295.557,293.587z
			 M296.223,293.622c-0.105,0.241-0.029,0.433,0.23,0.587c0.259,0.149,0.62,0.239,1.098,0.26c0.487,0.025,0.919-0.026,1.294-0.149
			c0.375-0.126,0.617-0.314,0.729-0.562c0.065-0.16,0.059-0.306-0.023-0.432c-0.082-0.123-0.242-0.229-0.47-0.303
			c-0.229-0.081-0.505-0.123-0.823-0.142c-0.456-0.019-0.877,0.024-1.261,0.136C296.607,293.128,296.354,293.332,296.223,293.622z"
			/>
		<path fill="#FFFFFF" d="M304.686,292.986c0.254,0.006,0.38,0.012,0.636,0.028c-0.183,0.453-0.276,0.682-0.46,1.133
			c-0.082,0.197-0.199,0.352-0.357,0.466c-0.16,0.109-0.404,0.198-0.726,0.257c-0.315,0.059-0.712,0.081-1.187,0.059
			c-0.46-0.018-0.82-0.071-1.086-0.145c-0.266-0.077-0.436-0.179-0.509-0.302c-0.073-0.123-0.07-0.299,0.02-0.507
			c0.191-0.457,0.29-0.68,0.479-1.136c0.259,0.015,0.386,0.018,0.643,0.031c-0.191,0.451-0.284,0.682-0.473,1.137
			c-0.071,0.17-0.086,0.296-0.042,0.379c0.042,0.084,0.154,0.158,0.33,0.214c0.175,0.049,0.405,0.079,0.683,0.093
			c0.476,0.021,0.834-0.007,1.07-0.084c0.236-0.077,0.412-0.237,0.511-0.488C304.407,293.662,304.499,293.437,304.686,292.986z"/>
		<path fill="#FFFFFF" d="M305.601,295.03c0.318-0.79,0.469-1.186,0.791-1.977c0.262,0.016,0.396,0.022,0.663,0.032
			c0.775,0.664,1.169,0.998,1.956,1.655c0.24-0.617,0.361-0.927,0.599-1.544c0.248,0.012,0.368,0.012,0.615,0.027
			c-0.305,0.789-0.453,1.18-0.758,1.968c-0.265-0.01-0.403-0.016-0.666-0.025c-0.795-0.668-1.181-0.995-1.956-1.663
			c-0.249,0.625-0.374,0.93-0.62,1.551C305.974,295.043,305.851,295.036,305.601,295.03z"/>
		<path fill="#FFFFFF" d="M311.813,295.291c0.259-0.698,0.386-1.044,0.646-1.74c-0.639-0.028-0.961-0.04-1.605-0.067
			c0.034-0.09,0.053-0.139,0.087-0.232c1.545,0.062,2.318,0.095,3.865,0.154c-0.035,0.097-0.055,0.143-0.09,0.235
			c-0.644-0.027-0.966-0.039-1.612-0.067c-0.259,0.698-0.385,1.05-0.647,1.742C312.196,295.309,312.073,295.299,311.813,295.291z"/>
		<path fill="#FFFFFF" d="M315.61,295.442c1.041-0.758,1.559-1.143,2.581-1.9c0.284,0.009,0.414,0.012,0.694,0.025
			c0.52,0.818,0.783,1.229,1.322,2.052c-0.297-0.013-0.444-0.02-0.741-0.032c-0.145-0.247-0.219-0.37-0.362-0.615
			c-0.82-0.033-1.233-0.049-2.054-0.083c-0.298,0.235-0.45,0.35-0.751,0.581C316.023,295.457,315.889,295.454,315.61,295.442z
			 M317.319,294.684c0.663,0.028,0.994,0.038,1.657,0.068c-0.128-0.229-0.193-0.34-0.318-0.571c-0.099-0.17-0.207-0.424-0.207-0.424
			c-0.01,0-0.234,0.248-0.391,0.372C317.765,294.352,317.614,294.461,317.319,294.684z"/>
		<path fill="#FFFFFF" d="M324.457,295.068c0.248,0.037,0.377,0.055,0.625,0.086c-0.202,0.216-0.501,0.366-0.891,0.471
			c-0.39,0.098-0.84,0.142-1.352,0.123c-0.529-0.02-0.952-0.078-1.253-0.18c-0.298-0.099-0.505-0.235-0.624-0.401
			c-0.117-0.174-0.144-0.352-0.082-0.544c0.069-0.204,0.226-0.38,0.472-0.526c0.246-0.148,0.561-0.253,0.949-0.314
			c0.38-0.068,0.794-0.099,1.22-0.081c0.487,0.018,0.88,0.081,1.181,0.198c0.298,0.111,0.485,0.259,0.555,0.444
			c-0.263,0.02-0.391,0.026-0.653,0.04c-0.065-0.148-0.199-0.255-0.395-0.33c-0.193-0.075-0.452-0.117-0.78-0.129
			c-0.373-0.012-0.696,0.012-0.971,0.074c-0.28,0.067-0.486,0.154-0.631,0.278c-0.14,0.117-0.236,0.241-0.275,0.374
			c-0.06,0.166-0.045,0.314,0.033,0.441c0.078,0.136,0.236,0.235,0.469,0.303c0.24,0.073,0.502,0.114,0.8,0.123
			c0.366,0.012,0.686-0.016,0.97-0.093C324.098,295.352,324.314,295.232,324.457,295.068z"/>
		<path fill="#FFFFFF" d="M326.934,295.853c0.216-0.699,0.324-1.044,0.544-1.744c-0.643-0.025-0.968-0.031-1.609-0.055
			c0.027-0.093,0.044-0.139,0.073-0.235c1.545,0.055,2.323,0.081,3.865,0.129c-0.027,0.099-0.042,0.142-0.071,0.238
			c-0.644-0.022-0.972-0.034-1.615-0.056c-0.218,0.702-0.323,1.048-0.538,1.746C327.32,295.867,327.192,295.865,326.934,295.853z"/>
		<path fill="#FFFFFF" d="M329.984,295.951c0.24-0.784,0.356-1.182,0.594-1.973c0.255,0.009,0.39,0.015,0.647,0.022
			c-0.237,0.79-0.355,1.189-0.591,1.98C330.378,295.973,330.247,295.963,329.984,295.951z"/>
		<path fill="#FFFFFF" d="M333.188,296.062c-0.535-0.818-0.801-1.229-1.323-2.042c0.279,0.01,0.417,0.012,0.696,0.022
			c0.339,0.593,0.515,0.884,0.862,1.477c0.07,0.117,0.163,0.334,0.163,0.334c0.01,0,0.225-0.21,0.357-0.315
			c0.695-0.562,1.037-0.84,1.721-1.4c0.263,0.01,0.397,0.016,0.66,0.022c-0.981,0.767-1.477,1.149-2.47,1.918
			C333.589,296.072,333.457,296.068,333.188,296.062z"/>
		<path fill="#FFFFFF" d="M336.472,296.155c0.216-0.785,0.325-1.184,0.54-1.977c0.26,0.01,0.385,0.012,0.644,0.025
			c-0.216,0.785-0.322,1.184-0.534,1.975C336.863,296.167,336.731,296.167,336.472,296.155z"/>
		<path fill="#FFFFFF" d="M339.52,296.248c0.181-0.698,0.27-1.044,0.453-1.749c-0.644-0.018-0.965-0.024-1.604-0.046
			c0.023-0.095,0.035-0.139,0.061-0.238c1.543,0.05,2.317,0.075,3.866,0.117c-0.026,0.087-0.039,0.137-0.062,0.229
			c-0.647-0.015-0.967-0.025-1.618-0.043c-0.177,0.698-0.266,1.048-0.446,1.748C339.914,296.26,339.779,296.254,339.52,296.248z"/>
		<path fill="#FFFFFF" d="M343.848,296.365c0.083-0.334,0.122-0.506,0.204-0.84c-0.647-0.476-0.97-0.714-1.605-1.193
			c0.315,0.01,0.475,0.012,0.787,0.026c0.329,0.247,0.493,0.371,0.821,0.62c0.151,0.115,0.4,0.35,0.414,0.35
			c0.047,0,0.373-0.216,0.616-0.34c0.434-0.223,0.651-0.33,1.082-0.556c0.3,0.006,0.452,0.012,0.753,0.016
			c-0.884,0.441-1.33,0.658-2.219,1.097c-0.082,0.334-0.119,0.5-0.201,0.84C344.242,296.377,344.107,296.371,343.848,296.365z"/>
	</g>
	<g>
		<path fill="#231F20" d="M253.149,334.299c4.539-8.531,6.805-12.794,11.344-21.313c93.081,4.909,185.368,4.863,278.431-0.121
			c4.572,8.456,6.852,12.679,11.421,21.141c0.034,0.061,0.055,0.095,0.095,0.166C453.778,339.591,353.831,339.64,253.149,334.299
			L253.149,334.299z M553.847,334.03c-0.031-0.069-0.049-0.105-0.087-0.174C553.798,333.925,553.816,333.962,553.847,334.03
			L553.847,334.03z M254.324,334.018c99.887,5.257,199.064,5.215,298.93-0.131c-4.424-8.248-6.643-12.376-11.066-20.624
			c-92.574,4.925-184.363,4.961-276.95,0.111C260.874,321.633,258.685,325.76,254.324,334.018L254.324,334.018z"/>
	</g>
	<path fill="#231F20" d="M545.802,319.182c-94.977,5.097-189.29,5.137-284.286,0.111c1.323-2.489,1.982-3.738,3.307-6.234
		c92.811,4.888,184.834,4.85,277.63-0.111C543.794,315.442,544.462,316.693,545.802,319.182z"/>
	<g>
		<path fill="#FFFFFF" d="M269.11,317.1c0.397-0.784,0.597-1.176,0.99-1.961c1.442,0.077,2.163,0.12,3.603,0.195
			c-0.047,0.093-0.07,0.136-0.115,0.229c-1.158-0.061-1.739-0.093-2.897-0.154c-0.126,0.241-0.185,0.365-0.309,0.605
			c1.004,0.055,1.512,0.083,2.52,0.139c-0.049,0.092-0.071,0.138-0.121,0.231c-1.004-0.055-1.506-0.083-2.513-0.139
			c-0.181,0.36-0.27,0.538-0.45,0.894C269.536,317.126,269.391,317.112,269.11,317.1z"/>
		<path fill="#FFFFFF" d="M273.777,317.355c0.386-0.789,0.576-1.181,0.963-1.966c0.282,0.016,0.421,0.022,0.703,0.038
			c-0.381,0.785-0.572,1.177-0.955,1.965C274.202,317.373,274.06,317.367,273.777,317.355z"/>
		<path fill="#FFFFFF" d="M275.735,317.452c0.377-0.784,0.566-1.174,0.948-1.965c0.29,0.02,0.433,0.022,0.725,0.038
			c0.828,0.676,1.24,1.012,2.081,1.686c0.285-0.617,0.429-0.921,0.718-1.538c0.274,0.012,0.408,0.018,0.676,0.034
			c-0.361,0.781-0.545,1.176-0.91,1.961c-0.291-0.012-0.435-0.025-0.727-0.037c-0.844-0.674-1.263-1.014-2.09-1.687
			c-0.297,0.619-0.446,0.927-0.738,1.545C276.144,317.478,276.007,317.468,275.735,317.452z"/>
		<path fill="#FFFFFF" d="M280.577,317.699c1.191-0.747,1.78-1.118,2.956-1.86c0.306,0.014,0.461,0.02,0.762,0.034
			c0.52,0.831,0.785,1.246,1.317,2.074c-0.322-0.016-0.49-0.026-0.812-0.038c-0.143-0.253-0.219-0.377-0.359-0.63
			c-0.901-0.04-1.35-0.062-2.245-0.105c-0.349,0.225-0.518,0.34-0.866,0.562C281.027,317.725,280.88,317.719,280.577,317.699z
			 M282.498,316.971c0.729,0.037,1.088,0.056,1.818,0.093c-0.126-0.232-0.191-0.35-0.315-0.575
			c-0.095-0.173-0.198-0.427-0.198-0.427c-0.009,0-0.275,0.244-0.452,0.358C283.009,316.643,282.839,316.748,282.498,316.971z"/>
		<path fill="#FFFFFF" d="M286.175,317.972c0.344-0.785,0.522-1.174,0.869-1.965c0.288,0.012,0.43,0.022,0.723,0.034
			c0.85,0.672,1.279,1.006,2.143,1.677c0.265-0.619,0.396-0.927,0.659-1.545c0.271,0.01,0.406,0.02,0.675,0.032
			c-0.33,0.784-0.498,1.18-0.833,1.965c-0.292-0.006-0.44-0.02-0.732-0.032c-0.867-0.674-1.296-1.004-2.148-1.677
			c-0.269,0.618-0.408,0.93-0.676,1.548C286.583,317.994,286.448,317.99,286.175,317.972z"/>
		<path fill="#FFFFFF" d="M295.731,317.707c0.272,0.043,0.407,0.059,0.68,0.098c-0.233,0.21-0.572,0.359-1.004,0.455
			c-0.433,0.095-0.926,0.132-1.487,0.105c-0.581-0.028-1.04-0.09-1.362-0.188c-0.328-0.105-0.551-0.244-0.673-0.414
			c-0.121-0.18-0.142-0.356-0.062-0.544c0.086-0.203,0.265-0.379,0.545-0.525c0.274-0.136,0.626-0.241,1.05-0.303
			c0.425-0.061,0.878-0.083,1.351-0.061c0.532,0.025,0.957,0.092,1.279,0.209c0.327,0.117,0.526,0.273,0.598,0.457
			c-0.289,0.012-0.435,0.02-0.725,0.032c-0.068-0.151-0.207-0.263-0.413-0.34c-0.21-0.071-0.497-0.121-0.85-0.136
			c-0.411-0.02-0.768,0.006-1.07,0.065c-0.308,0.059-0.544,0.144-0.709,0.265c-0.161,0.114-0.273,0.238-0.325,0.368
			c-0.068,0.166-0.061,0.314,0.021,0.444c0.082,0.133,0.246,0.239,0.501,0.315c0.257,0.069,0.549,0.117,0.877,0.13
			c0.396,0.018,0.756-0.012,1.065-0.08C295.327,317.984,295.563,317.87,295.731,317.707z"/>
		<path fill="#FFFFFF" d="M297.046,318.47c0.315-0.789,0.476-1.184,0.789-1.971c1.549,0.067,2.319,0.101,3.864,0.164
			c-0.036,0.092-0.048,0.142-0.084,0.235c-1.263-0.059-1.897-0.087-3.163-0.137c-0.092,0.242-0.144,0.366-0.237,0.606
			c1.185,0.049,1.78,0.073,2.965,0.123c-0.038,0.092-0.05,0.138-0.09,0.229c-1.185-0.047-1.778-0.075-2.965-0.123
			c-0.105,0.265-0.158,0.401-0.266,0.672c1.323,0.056,1.985,0.084,3.305,0.139c-0.033,0.089-0.053,0.139-0.088,0.232
			C299.466,318.571,298.654,318.54,297.046,318.47z"/>
		<path fill="#FFFFFF" d="M308.23,318.225c0.275,0.037,0.417,0.056,0.692,0.093c-0.226,0.207-0.555,0.362-0.984,0.459
			c-0.423,0.097-0.916,0.133-1.48,0.111c-0.581-0.021-1.042-0.083-1.368-0.188c-0.333-0.099-0.561-0.235-0.692-0.407
			c-0.128-0.168-0.155-0.35-0.087-0.538c0.078-0.21,0.249-0.383,0.518-0.526c0.269-0.142,0.616-0.247,1.037-0.308
			c0.423-0.068,0.869-0.09,1.339-0.074c0.539,0.024,0.966,0.093,1.294,0.204c0.329,0.117,0.542,0.265,0.621,0.457
			c-0.29,0.012-0.438,0.018-0.726,0.031c-0.073-0.148-0.21-0.259-0.427-0.334c-0.21-0.073-0.499-0.117-0.856-0.129
			c-0.411-0.019-0.764,0.004-1.067,0.065c-0.301,0.062-0.537,0.152-0.694,0.273c-0.155,0.114-0.257,0.243-0.306,0.371
			c-0.062,0.164-0.05,0.314,0.037,0.447c0.084,0.127,0.26,0.232,0.523,0.303c0.257,0.077,0.549,0.117,0.88,0.132
			c0.397,0.016,0.748-0.021,1.05-0.089C307.842,318.503,308.076,318.385,308.23,318.225z"/>
		<path fill="#FFFFFF" d="M309.602,318.979c0.275-0.791,0.413-1.181,0.688-1.977c0.282,0.012,0.427,0.018,0.709,0.031
			c-0.116,0.322-0.169,0.482-0.282,0.806c1.115,0.047,1.674,0.065,2.79,0.105c0.107-0.324,0.16-0.485,0.268-0.809
			c0.286,0.006,0.427,0.016,0.713,0.028c-0.265,0.785-0.4,1.184-0.666,1.971c-0.282-0.006-0.426-0.012-0.709-0.024
			c0.126-0.374,0.191-0.556,0.315-0.933c-1.115-0.038-1.677-0.062-2.792-0.105c-0.131,0.377-0.193,0.559-0.322,0.933
			C310.028,318.992,309.888,318.992,309.602,318.979z"/>
		<path fill="#FFFFFF" d="M314.418,319.158c1.091-0.757,1.635-1.143,2.711-1.903c0.302,0.012,0.458,0.019,0.762,0.025
			c0.623,0.822,0.938,1.232,1.576,2.052c-0.329-0.013-0.487-0.016-0.812-0.026c-0.174-0.253-0.261-0.371-0.436-0.617
			c-0.899-0.031-1.352-0.049-2.251-0.081c-0.315,0.229-0.475,0.346-0.788,0.575C314.875,319.17,314.721,319.17,314.418,319.158z
			 M316.236,318.401c0.732,0.028,1.099,0.04,1.828,0.065c-0.154-0.225-0.232-0.34-0.384-0.568c-0.119-0.173-0.249-0.419-0.249-0.419
			c-0.014,0-0.249,0.247-0.413,0.371C316.709,318.071,316.551,318.176,316.236,318.401z"/>
		<path fill="#FFFFFF" d="M320.042,319.352c0.243-0.791,0.372-1.182,0.617-1.973c0.949,0.031,1.425,0.043,2.373,0.079
			c0.476,0.014,0.833,0.038,1.065,0.087c0.237,0.037,0.424,0.111,0.545,0.204c0.121,0.099,0.168,0.198,0.135,0.309
			c-0.043,0.138-0.201,0.253-0.476,0.343c-0.271,0.089-1.193,0.145-1.193,0.145s0.314,0.074,0.4,0.111
			c0.184,0.073,0.353,0.17,0.508,0.281c0.313,0.231,0.47,0.342,0.783,0.571c-0.358-0.012-0.543-0.018-0.896-0.031
			c-0.24-0.174-0.362-0.253-0.598-0.433c-0.17-0.123-0.315-0.223-0.427-0.29c-0.119-0.068-0.226-0.117-0.321-0.145
			c-0.099-0.028-0.204-0.05-0.313-0.065c-0.074-0.006-0.207-0.012-0.39-0.022c-0.328-0.009-0.497-0.012-0.824-0.028
			c-0.108,0.352-0.166,0.532-0.276,0.884C320.47,319.365,320.324,319.365,320.042,319.352z M321.099,318.274
			c0.61,0.02,0.914,0.028,1.528,0.05c0.325,0.006,0.585,0.006,0.775-0.012c0.19-0.018,0.339-0.056,0.45-0.105
			c0.108-0.05,0.173-0.109,0.192-0.174c0.027-0.095-0.042-0.173-0.207-0.235c-0.167-0.073-0.449-0.111-0.844-0.123
			c-0.681-0.024-1.012-0.031-1.692-0.055C321.223,317.883,321.177,318.009,321.099,318.274z"/>
		<path fill="#FFFFFF" d="M328.209,318.834c0.027-0.089,0.044-0.139,0.07-0.232c0.908,0.028,1.361,0.038,2.27,0.065
			c-0.078,0.293-0.112,0.439-0.197,0.736c-0.374,0.095-0.762,0.158-1.148,0.2c-0.388,0.037-0.775,0.055-1.169,0.043
			c-0.532-0.015-0.996-0.073-1.405-0.172c-0.408-0.093-0.703-0.226-0.879-0.39c-0.174-0.166-0.23-0.345-0.177-0.537
			c0.059-0.192,0.224-0.371,0.49-0.532c0.262-0.154,0.61-0.271,1.042-0.343c0.434-0.071,0.917-0.09,1.451-0.077
			c0.384,0.012,0.726,0.049,1.027,0.098c0.301,0.056,0.528,0.131,0.682,0.217c0.158,0.09,0.257,0.204,0.315,0.34
			c-0.263,0.018-0.391,0.025-0.653,0.047c-0.053-0.105-0.132-0.182-0.234-0.247c-0.103-0.059-0.263-0.114-0.473-0.154
			c-0.21-0.046-0.458-0.062-0.727-0.071c-0.322-0.012-0.61,0-0.853,0.025c-0.246,0.027-0.454,0.067-0.616,0.123
			c-0.161,0.055-0.292,0.117-0.395,0.192c-0.17,0.11-0.271,0.247-0.314,0.389c-0.053,0.176-0.012,0.324,0.119,0.451
			c0.131,0.123,0.345,0.222,0.642,0.29c0.302,0.062,0.633,0.099,0.988,0.111c0.312,0.012,0.615,0,0.922-0.037
			c0.303-0.037,0.542-0.075,0.705-0.117c0.041-0.148,0.056-0.223,0.099-0.374C329.158,318.862,328.843,318.849,328.209,318.834z"/>
		<path fill="#FFFFFF" d="M331.344,319.708c0.213-0.791,0.318-1.186,0.531-1.981c1.548,0.047,2.324,0.071,3.871,0.111
			c-0.026,0.093-0.038,0.142-0.059,0.232c-1.269-0.034-1.896-0.056-3.163-0.087c-0.065,0.241-0.098,0.362-0.164,0.611
			c1.188,0.028,1.78,0.05,2.971,0.081c-0.023,0.093-0.034,0.136-0.056,0.229c-1.187-0.037-1.789-0.043-2.98-0.081
			c-0.07,0.269-0.105,0.402-0.177,0.674c1.325,0.037,1.982,0.056,3.307,0.087c-0.027,0.099-0.033,0.145-0.059,0.235
			C333.758,319.775,332.952,319.757,331.344,319.708z"/>
		<path fill="#FFFFFF" d="M338.359,319.259c0.27,0,0.407,0,0.68,0c0.006,0.099,0.055,0.184,0.16,0.251
			c0.099,0.065,0.269,0.121,0.503,0.168c0.236,0.043,0.516,0.073,0.817,0.08c0.276,0.006,0.512,0,0.729-0.027
			c0.216-0.022,0.388-0.062,0.499-0.109c0.111-0.049,0.17-0.105,0.191-0.166c0.012-0.062-0.027-0.117-0.111-0.168
			c-0.087-0.049-0.243-0.089-0.461-0.126c-0.137-0.028-0.446-0.069-0.932-0.123c-0.484-0.056-0.819-0.105-1.01-0.152
			c-0.243-0.059-0.419-0.123-0.531-0.198c-0.105-0.077-0.149-0.164-0.126-0.253c0.027-0.099,0.126-0.192,0.296-0.271
			c0.174-0.087,0.417-0.149,0.721-0.183c0.308-0.037,0.637-0.051,0.998-0.043c0.4,0.01,0.741,0.043,1.033,0.099
			c0.292,0.052,0.51,0.127,0.653,0.225c0.138,0.097,0.204,0.202,0.191,0.319c-0.275,0-0.413,0-0.69,0.003
			c-0.006-0.123-0.105-0.225-0.301-0.29c-0.198-0.069-0.499-0.117-0.913-0.123c-0.429-0.006-0.744,0.006-0.954,0.061
			c-0.21,0.05-0.325,0.123-0.345,0.204c-0.017,0.071,0.038,0.132,0.17,0.186c0.125,0.045,0.466,0.098,1.03,0.163
			c0.566,0.065,0.952,0.115,1.159,0.158c0.303,0.062,0.522,0.136,0.653,0.22c0.132,0.085,0.179,0.182,0.155,0.287
			s-0.128,0.197-0.313,0.29c-0.183,0.089-0.44,0.158-0.76,0.201c-0.315,0.047-0.663,0.062-1.05,0.056
			c-0.486-0.012-0.891-0.053-1.214-0.115c-0.314-0.061-0.559-0.144-0.715-0.256C338.405,319.516,338.337,319.393,338.359,319.259z"
			/>
		<path fill="#FFFFFF" d="M347.422,318.136c0.286,0.003,0.427,0.006,0.713,0.012c-0.097,0.46-0.143,0.686-0.234,1.146
			c-0.04,0.198-0.138,0.352-0.282,0.469c-0.15,0.117-0.391,0.204-0.725,0.273c-0.335,0.065-0.764,0.092-1.284,0.079
			c-0.505-0.009-0.908-0.049-1.217-0.123c-0.309-0.067-0.522-0.172-0.633-0.296c-0.109-0.123-0.138-0.291-0.092-0.498
			c0.105-0.463,0.15-0.69,0.249-1.146c0.288,0.006,0.429,0.012,0.715,0.012c-0.103,0.457-0.151,0.692-0.249,1.146
			c-0.04,0.17-0.026,0.299,0.042,0.386c0.07,0.081,0.204,0.148,0.408,0.194c0.202,0.053,0.462,0.077,0.77,0.087
			c0.526,0.009,0.902-0.022,1.142-0.105c0.242-0.077,0.39-0.251,0.443-0.498C347.285,318.812,347.329,318.596,347.422,318.136z"/>
		<path fill="#FFFFFF" d="M348.892,320.153c0.157-0.789,0.236-1.187,0.399-1.977c0.429,0.012,0.64,0.012,1.065,0.021
			c0.4,0.572,0.598,0.856,1.001,1.434c0.09,0.132,0.199,0.293,0.199,0.293c0.014,0,0.192-0.168,0.349-0.306
			c0.624-0.548,0.929-0.819,1.542-1.36c0.381,0.009,0.575,0.015,0.955,0.022c-0.147,0.796-0.213,1.188-0.357,1.983
			c-0.276-0.004-0.413-0.006-0.688-0.012c0.117-0.668,0.184-1.001,0.307-1.663c-0.747,0.649-1.121,0.977-1.877,1.625
			c-0.259-0.003-0.386-0.003-0.646-0.009c-0.493-0.69-0.735-1.036-1.225-1.721c-0.131,0.674-0.199,1.013-0.334,1.687
			C349.305,320.162,349.168,320.162,348.892,320.153z"/>
		<path fill="#FFFFFF" d="M355.171,320.289c0.143-0.797,0.21-1.19,0.352-1.987c0.43,0.01,0.641,0.012,1.066,0.022
			c0.411,0.571,0.621,0.858,1.031,1.427c0.099,0.136,0.213,0.299,0.213,0.299c0.011,0,0.187-0.176,0.341-0.314
			c0.607-0.538,0.907-0.813,1.506-1.357c0.382,0.006,0.572,0.012,0.951,0.022c-0.123,0.787-0.19,1.183-0.314,1.981
			c-0.275-0.006-0.41-0.01-0.681-0.012c0.104-0.668,0.156-0.999,0.265-1.663c-0.732,0.652-1.1,0.977-1.835,1.631
			c-0.259-0.006-0.394-0.006-0.649-0.006c-0.51-0.692-0.76-1.034-1.261-1.72c-0.119,0.676-0.183,1.01-0.302,1.687
			C355.58,320.295,355.449,320.295,355.171,320.289z"/>
		<path fill="#FFFFFF" d="M360.88,320.394c0.954-0.781,1.427-1.168,2.365-1.953c0.308,0.006,0.46,0.009,0.768,0.012
			c0.762,0.806,1.143,1.214,1.916,2.021c-0.324-0.007-0.484-0.01-0.813-0.02c-0.216-0.241-0.322-0.361-0.538-0.605
			c-0.899-0.016-1.351-0.022-2.252-0.037c-0.275,0.237-0.416,0.352-0.688,0.587C361.335,320.394,361.183,320.394,360.88,320.394z
			 M362.561,319.603c0.732,0.012,1.097,0.019,1.827,0.028c-0.196-0.223-0.29-0.338-0.484-0.56c-0.146-0.166-0.324-0.413-0.324-0.413
			c-0.013,0-0.2,0.247-0.341,0.374C362.969,319.259,362.835,319.371,362.561,319.603z"/>
		<path fill="#FFFFFF" d="M366.51,320.481c0.107-0.797,0.16-1.193,0.271-1.984c0.949,0.012,1.424,0.02,2.376,0.032
			c0.476,0.006,0.84,0.031,1.083,0.067c0.243,0.038,0.434,0.105,0.571,0.194c0.137,0.097,0.204,0.196,0.19,0.31
			c-0.015,0.139-0.154,0.257-0.412,0.35c-0.257,0.092-1.163,0.17-1.163,0.17c0,0.003,0.323,0.071,0.413,0.101
			c0.202,0.071,0.388,0.164,0.558,0.271c0.349,0.223,0.526,0.331,0.873,0.556c-0.359-0.006-0.537-0.012-0.898-0.015
			c-0.265-0.168-0.397-0.251-0.663-0.418c-0.193-0.123-0.353-0.219-0.479-0.287c-0.125-0.065-0.242-0.108-0.347-0.132
			c-0.099-0.028-0.21-0.05-0.318-0.062c-0.08-0.002-0.208-0.012-0.391-0.012c-0.328-0.003-0.493-0.006-0.827-0.012
			c-0.043,0.352-0.072,0.526-0.118,0.884C366.939,320.487,366.795,320.487,366.51,320.481z M367.376,319.381
			c0.61,0.006,0.916,0.012,1.526,0.022c0.328,0.006,0.584-0.01,0.771-0.028c0.187-0.022,0.328-0.059,0.429-0.111
			c0.102-0.053,0.158-0.111,0.164-0.176c0.013-0.095-0.069-0.176-0.242-0.238c-0.179-0.061-0.469-0.092-0.867-0.098
			c-0.675-0.012-1.016-0.016-1.696-0.026C367.426,318.986,367.411,319.115,367.376,319.381z"/>
		<path fill="#FFFFFF" d="M373.33,320.57c0.04-0.338,0.053-0.504,0.093-0.84c-0.781-0.471-1.168-0.702-1.939-1.171
			c0.345,0.003,0.522,0.006,0.863,0.012c0.396,0.241,0.598,0.368,0.994,0.611c0.185,0.115,0.483,0.34,0.509,0.34
			c0.053,0,0.377-0.213,0.624-0.34c0.439-0.229,0.657-0.346,1.096-0.575c0.335,0.004,0.499,0.004,0.832,0.01
			c-0.904,0.447-1.354,0.676-2.262,1.121c-0.032,0.34-0.059,0.501-0.09,0.84C373.762,320.576,373.62,320.572,373.33,320.57z"/>
	</g>
	<g>
		<path fill="#231F20" d="M240.523,358.009c4.538-8.527,6.809-12.79,11.347-21.316c101.544,5.381,202.337,5.338,303.861-0.129
			c4.567,8.454,6.855,12.681,11.424,21.134c0.037,0.071,0.05,0.101,0.089,0.17C458.168,363.802,349.62,363.851,240.523,358.009
			L240.523,358.009z M566.617,357.728c-0.037-0.065-0.061-0.101-0.098-0.17C566.556,357.626,566.581,357.663,566.617,357.728
			L566.617,357.728z M241.79,357.728c108.29,5.737,215.921,5.688,324.186-0.132c-4.424-8.252-6.636-12.38-11.066-20.631
			c-100.968,5.403-201.22,5.443-302.213,0.13C248.339,345.35,246.153,349.476,241.79,357.728L241.79,357.728z"/>
	</g>
	<path fill="#231F20" d="M558.568,342.884c-103.405,5.58-206.213,5.619-309.639,0.121c1.325-2.493,1.982-3.737,3.307-6.228
		c101.251,5.344,201.746,5.31,302.977-0.127C556.553,339.14,557.226,340.388,558.568,342.884z"/>
	<g>
		<path fill="#FFFFFF" d="M261.562,340.376c0.296,0.043,0.446,0.067,0.742,0.105c-0.266,0.207-0.637,0.355-1.113,0.444
			c-0.476,0.087-1.023,0.121-1.631,0.084c-0.63-0.034-1.13-0.105-1.479-0.21c-0.351-0.109-0.584-0.251-0.707-0.423
			c-0.125-0.174-0.141-0.352-0.047-0.544c0.103-0.204,0.303-0.377,0.615-0.516c0.308-0.139,0.704-0.238,1.171-0.293
			c0.466-0.056,0.955-0.065,1.471-0.037c0.577,0.031,1.039,0.105,1.384,0.222c0.352,0.123,0.558,0.284,0.63,0.466
			c-0.316,0.01-0.473,0.016-0.794,0.022c-0.065-0.148-0.204-0.267-0.427-0.346c-0.227-0.075-0.539-0.123-0.926-0.145
			c-0.446-0.028-0.84-0.01-1.175,0.046c-0.339,0.053-0.593,0.142-0.78,0.253c-0.181,0.121-0.309,0.241-0.374,0.37
			c-0.083,0.17-0.087,0.315,0,0.449c0.077,0.132,0.262,0.237,0.538,0.318c0.275,0.081,0.583,0.123,0.945,0.142
			c0.429,0.025,0.82,0.004,1.162-0.061C261.11,340.647,261.373,340.534,261.562,340.376z"/>
		<path fill="#FFFFFF" d="M262.311,341.121c1.286-0.732,1.92-1.103,3.19-1.845c0.335,0.018,0.501,0.028,0.834,0.043
			c0.576,0.835,0.873,1.252,1.462,2.089c-0.353-0.022-0.531-0.032-0.886-0.046c-0.158-0.251-0.24-0.374-0.4-0.627
			c-0.978-0.05-1.47-0.075-2.446-0.13c-0.375,0.229-0.56,0.34-0.931,0.563C262.806,341.147,262.639,341.141,262.311,341.121z
			 M264.394,340.406c0.794,0.037,1.185,0.061,1.978,0.099c-0.14-0.229-0.209-0.344-0.347-0.575
			c-0.105-0.174-0.224-0.427-0.224-0.427c-0.012,0-0.298,0.241-0.492,0.358C264.943,340.079,264.762,340.19,264.394,340.406z"/>
		<path fill="#FFFFFF" d="M268.427,341.439c0.365-0.785,0.548-1.18,0.911-1.969c1.036,0.056,1.555,0.083,2.586,0.133
			c0.519,0.025,0.91,0.062,1.162,0.111c0.257,0.049,0.44,0.12,0.565,0.216c0.117,0.099,0.151,0.197,0.103,0.308
			c-0.064,0.143-0.251,0.254-0.562,0.338c-0.308,0.077-1.319,0.117-1.319,0.117c0,0.003,0.329,0.087,0.421,0.126
			c0.194,0.075,0.371,0.174,0.525,0.291c0.312,0.229,0.467,0.352,0.775,0.584c-0.387-0.016-0.581-0.028-0.971-0.047
			c-0.237-0.18-0.356-0.272-0.592-0.451c-0.174-0.124-0.318-0.223-0.435-0.293c-0.115-0.071-0.234-0.121-0.333-0.155
			c-0.105-0.027-0.216-0.053-0.33-0.065c-0.082-0.012-0.227-0.025-0.431-0.031c-0.353-0.018-0.531-0.031-0.885-0.049
			c-0.164,0.349-0.249,0.525-0.413,0.877C268.893,341.463,268.736,341.457,268.427,341.439z M269.714,340.382
			c0.666,0.031,0.99,0.046,1.656,0.079c0.356,0.02,0.642,0.02,0.852,0.006c0.209-0.012,0.377-0.049,0.505-0.095
			c0.124-0.053,0.207-0.105,0.236-0.166c0.039-0.097-0.027-0.176-0.198-0.247c-0.173-0.072-0.478-0.115-0.911-0.139
			c-0.736-0.034-1.103-0.056-1.841-0.089C269.89,339.989,269.835,340.115,269.714,340.382z"/>
		<path fill="#FFFFFF" d="M274.331,341.732c0.351-0.787,0.521-1.183,0.873-1.968c0.803,0.038,1.203,0.056,2.008,0.099
			c0.453,0.018,0.797,0.044,1.028,0.077c0.32,0.04,0.587,0.097,0.794,0.176c0.265,0.103,0.446,0.229,0.54,0.378
			c0.095,0.138,0.101,0.299,0.029,0.469c-0.065,0.148-0.17,0.278-0.324,0.389c-0.155,0.115-0.333,0.204-0.522,0.265
			c-0.197,0.071-0.4,0.127-0.61,0.155c-0.216,0.037-0.467,0.061-0.748,0.071c-0.282,0.009-0.598,0.003-0.951-0.01
			C275.597,341.793,275.18,341.772,274.331,341.732z M275.209,341.534c0.503,0.022,0.751,0.034,1.25,0.059
			c0.388,0.018,0.697,0.024,0.925,0.012c0.23-0.015,0.417-0.043,0.568-0.077c0.21-0.055,0.394-0.133,0.541-0.231
			c0.145-0.099,0.251-0.223,0.315-0.378c0.089-0.203,0.059-0.364-0.094-0.484c-0.151-0.121-0.368-0.202-0.637-0.257
			c-0.195-0.037-0.519-0.068-0.982-0.087c-0.486-0.025-0.728-0.037-1.22-0.061C275.607,340.631,275.475,340.931,275.209,341.534z"/>
		<path fill="#FFFFFF" d="M280.265,342.009c0.335-0.791,0.499-1.182,0.834-1.973c0.309,0.018,0.47,0.025,0.778,0.037
			c-0.134,0.328-0.203,0.488-0.34,0.813c1.216,0.055,1.821,0.083,3.035,0.138c0.134-0.322,0.197-0.488,0.331-0.809
			c0.306,0.012,0.464,0.018,0.77,0.031c-0.322,0.791-0.486,1.183-0.806,1.972c-0.309-0.014-0.461-0.02-0.768-0.032
			c0.149-0.377,0.225-0.559,0.38-0.933c-1.221-0.055-1.824-0.081-3.04-0.132c-0.156,0.37-0.236,0.553-0.394,0.927
			C280.738,342.031,280.577,342.025,280.265,342.009z"/>
		<path fill="#FFFFFF" d="M286.31,341.303c0.136-0.328,0.499-0.569,1.096-0.732c0.589-0.164,1.299-0.226,2.119-0.195
			c0.539,0.025,1.011,0.092,1.404,0.195c0.402,0.105,0.683,0.243,0.855,0.405c0.164,0.166,0.21,0.349,0.131,0.547
			c-0.076,0.2-0.259,0.374-0.56,0.516c-0.299,0.154-0.694,0.259-1.159,0.322c-0.472,0.061-0.965,0.08-1.473,0.061
			c-0.551-0.024-1.033-0.092-1.431-0.2c-0.397-0.108-0.68-0.243-0.844-0.411C286.29,341.649,286.242,341.475,286.31,341.303z
			 M287.111,341.339c-0.095,0.241,0.021,0.433,0.345,0.587c0.324,0.16,0.774,0.244,1.348,0.265c0.583,0.028,1.095-0.018,1.526-0.142
			c0.429-0.123,0.696-0.309,0.794-0.565c0.062-0.158,0.029-0.306-0.081-0.427c-0.116-0.127-0.313-0.231-0.598-0.312
			c-0.284-0.081-0.614-0.13-1.001-0.142c-0.544-0.026-1.043,0.021-1.485,0.13C287.512,340.845,287.232,341.048,287.111,341.339z"/>
		<path fill="#FFFFFF" d="M292.508,342.544c0.301-0.784,0.45-1.182,0.753-1.973c0.307,0.012,0.458,0.018,0.77,0.034
			c-0.265,0.698-0.397,1.044-0.659,1.736c1.155,0.049,1.736,0.073,2.889,0.117c-0.036,0.098-0.05,0.142-0.084,0.235
			C294.711,342.634,293.976,342.606,292.508,342.544z"/>
		<path fill="#FFFFFF" d="M297.099,342.73c0.289-0.788,0.434-1.186,0.719-1.971c0.804,0.028,1.204,0.046,2.009,0.077
			c0.452,0.016,0.797,0.04,1.026,0.069c0.329,0.04,0.598,0.099,0.808,0.17c0.28,0.105,0.466,0.229,0.571,0.371
			c0.105,0.145,0.132,0.299,0.071,0.475c-0.053,0.152-0.153,0.278-0.295,0.395c-0.147,0.109-0.315,0.204-0.501,0.269
			c-0.191,0.068-0.391,0.127-0.601,0.161c-0.21,0.033-0.452,0.059-0.734,0.071c-0.282,0.012-0.598,0.012-0.951-0.006
			C298.371,342.778,297.946,342.766,297.099,342.73z M297.962,342.529c0.503,0.015,0.751,0.027,1.25,0.049
			c0.389,0.012,0.697,0.012,0.923,0c0.232-0.022,0.417-0.046,0.56-0.087c0.21-0.053,0.385-0.132,0.526-0.231
			c0.139-0.101,0.23-0.223,0.282-0.371c0.072-0.21,0.03-0.37-0.131-0.495c-0.164-0.117-0.378-0.203-0.651-0.247
			c-0.199-0.037-0.528-0.061-0.988-0.079c-0.488-0.02-0.737-0.032-1.226-0.044C298.287,341.623,298.182,341.926,297.962,342.529z"/>
		<path fill="#FFFFFF" d="M303.035,342.958c0.272-0.788,0.411-1.186,0.68-1.971c1.69,0.061,2.534,0.087,4.221,0.154
			c-0.034,0.093-0.047,0.136-0.076,0.232c-1.381-0.05-2.068-0.077-3.447-0.133c-0.082,0.244-0.123,0.364-0.205,0.611
			c1.291,0.046,1.942,0.068,3.235,0.115c-0.033,0.093-0.05,0.142-0.079,0.231c-1.296-0.039-1.942-0.067-3.239-0.117
			c-0.088,0.273-0.134,0.402-0.226,0.671c1.44,0.055,2.16,0.083,3.597,0.132c-0.027,0.093-0.047,0.143-0.076,0.235
			C305.667,343.054,304.788,343.027,303.035,342.958z"/>
		<path fill="#FFFFFF" d="M308.505,343.159c0.257-0.794,0.388-1.19,0.644-1.98c1.036,0.037,1.548,0.055,2.586,0.089
			c0.517,0.022,0.907,0.049,1.168,0.095c0.262,0.044,0.458,0.115,0.598,0.204c0.131,0.099,0.179,0.204,0.143,0.316
			c-0.039,0.142-0.213,0.253-0.511,0.336c-0.3,0.083-1.301,0.145-1.301,0.145c0,0.002,0.341,0.081,0.44,0.114
			c0.204,0.077,0.391,0.174,0.561,0.281c0.341,0.229,0.51,0.346,0.851,0.575c-0.394-0.015-0.588-0.018-0.978-0.031
			c-0.263-0.18-0.388-0.265-0.647-0.439c-0.191-0.126-0.347-0.223-0.476-0.296c-0.126-0.062-0.249-0.111-0.355-0.143
			c-0.112-0.031-0.218-0.049-0.331-0.067c-0.086-0.006-0.23-0.018-0.429-0.018c-0.362-0.016-0.543-0.016-0.905-0.038
			c-0.114,0.358-0.166,0.532-0.278,0.884C308.971,343.175,308.817,343.169,308.505,343.159z M309.637,342.074
			c0.665,0.028,1.001,0.038,1.666,0.062c0.352,0.012,0.641,0.012,0.846-0.006c0.208-0.018,0.368-0.056,0.49-0.105
			c0.117-0.049,0.19-0.105,0.21-0.17c0.026-0.095-0.047-0.176-0.231-0.245c-0.18-0.067-0.49-0.105-0.924-0.12
			c-0.738-0.024-1.109-0.034-1.847-0.065C309.765,341.688,309.722,341.821,309.637,342.074z"/>
		<path fill="#FFFFFF" d="M316.693,343.434c0.231-0.791,0.351-1.186,0.587-1.977c0.315,0.01,0.473,0.016,0.791,0.024
			c1.045,0.662,1.565,0.992,2.621,1.649c0.177-0.617,0.265-0.933,0.44-1.553c0.295,0.012,0.446,0.012,0.745,0.021
			c-0.224,0.791-0.328,1.187-0.552,1.981c-0.319-0.01-0.482-0.016-0.801-0.022c-1.059-0.664-1.581-0.994-2.629-1.655
			c-0.181,0.621-0.275,0.933-0.456,1.556C317.143,343.452,316.991,343.443,316.693,343.434z"/>
		<path fill="#FFFFFF" d="M322.647,343.62c0.216-0.791,0.322-1.19,0.539-1.981c1.69,0.049,2.536,0.071,4.227,0.121
			c-0.027,0.095-0.034,0.142-0.061,0.237c-1.378-0.04-2.07-0.059-3.451-0.099c-0.066,0.245-0.099,0.362-0.165,0.603
			c1.292,0.04,1.943,0.055,3.236,0.095c-0.023,0.093-0.039,0.139-0.062,0.232c-1.296-0.034-1.946-0.056-3.239-0.093
			c-0.073,0.269-0.111,0.402-0.185,0.674c1.445,0.043,2.163,0.061,3.603,0.105c-0.02,0.093-0.036,0.139-0.059,0.231
			C325.276,343.697,324.401,343.675,322.647,343.62z"/>
		<path fill="#FFFFFF" d="M329.129,343.804c-0.423-0.81-0.627-1.214-1.046-2.02c0.318,0.003,0.478,0.009,0.794,0.019
			c0.224,0.528,0.339,0.794,0.565,1.322c0.059,0.143,0.144,0.414,0.144,0.414c0.02,0.003,0.322-0.328,0.361-0.358
			c0.578-0.526,0.86-0.785,1.437-1.31c0.374,0.012,0.559,0.018,0.931,0.027c0.237,0.405,0.362,0.615,0.602,1.023
			c0.148,0.256,0.285,0.713,0.285,0.713c0.01,0,0.237-0.262,0.395-0.423c0.493-0.5,0.731-0.747,1.22-1.248
			c0.308,0.006,0.466,0.014,0.774,0.019c-0.824,0.776-1.24,1.169-2.074,1.94c-0.302-0.006-0.45-0.009-0.747-0.019
			c-0.356-0.621-0.522-0.92-0.867-1.544c-0.072-0.123-0.131-0.238-0.131-0.238c-0.011,0-0.158,0.17-0.227,0.232
			c-0.646,0.587-0.967,0.883-1.618,1.47C329.61,343.817,329.447,343.81,329.129,343.804z"/>
		<path fill="#FFFFFF" d="M335.74,343.338c0.296,0,0.44,0,0.736-0.004c0.014,0.103,0.076,0.186,0.19,0.247
			c0.112,0.072,0.292,0.131,0.551,0.17c0.257,0.046,0.561,0.071,0.893,0.084c0.298,0.006,0.564,0,0.797-0.026
			c0.234-0.024,0.411-0.061,0.532-0.111c0.122-0.049,0.192-0.104,0.204-0.166c0.017-0.062-0.029-0.117-0.128-0.164
			c-0.099-0.052-0.263-0.093-0.503-0.133c-0.151-0.021-0.495-0.065-1.02-0.123c-0.532-0.053-0.9-0.108-1.103-0.15
			c-0.268-0.056-0.466-0.121-0.588-0.202c-0.117-0.071-0.166-0.154-0.147-0.247c0.02-0.099,0.131-0.188,0.322-0.271
			c0.187-0.083,0.44-0.148,0.77-0.182c0.333-0.034,0.699-0.053,1.095-0.047c0.431,0.012,0.806,0.047,1.121,0.099
			c0.322,0.059,0.565,0.13,0.723,0.229c0.153,0.095,0.229,0.203,0.219,0.32c-0.297,0-0.449,0-0.752,0
			c-0.012-0.126-0.123-0.225-0.34-0.293c-0.218-0.071-0.545-0.114-0.998-0.12c-0.466-0.012-0.814,0.006-1.04,0.065
			c-0.226,0.053-0.351,0.117-0.372,0.201c-0.012,0.068,0.056,0.129,0.198,0.18c0.138,0.053,0.511,0.108,1.136,0.173
			c0.616,0.062,1.039,0.117,1.267,0.161c0.328,0.055,0.564,0.132,0.709,0.215c0.143,0.084,0.209,0.182,0.186,0.287
			c-0.023,0.105-0.138,0.202-0.337,0.293c-0.198,0.087-0.473,0.155-0.821,0.196c-0.347,0.047-0.726,0.065-1.147,0.055
			c-0.534-0.012-0.974-0.049-1.322-0.114c-0.347-0.059-0.61-0.149-0.794-0.257C335.798,343.591,335.72,343.47,335.74,343.338z"/>
	</g>
	<path fill="#231F20" d="M568.333,365.658c-37.125,1.997-74.196,3.399-111.509,4.233c-0.031-0.186-0.043-0.277-0.075-0.463
		c37.26-0.828,74.276-2.234,111.345-4.227C568.193,365.387,568.234,365.479,568.333,365.658z"/>
	<g>
		<path fill="#231F20" d="M497.213,368.284c-1.245-0.68-1.742-1.439-2.576-2.094l0,0c-3.037-0.269-6.679-0.408-10.095-0.312l0,0
			c-1.616,0.047-3.183,0.144-4.613,0.302l0,0c0.287,0.103,0.603,0.202,0.949,0.299l0,0c3.63,0.708,7.006,1.607,10.534,1.638l0,0
			c0.037,0.179,0.049,0.265,0.087,0.454c-0.17,0.01-0.328,0.016-0.488,0.022l0,0c-3.788,0.093-8.141-0.872-10.992-1.73l0,0
			c-1.205-0.235-2.398-0.445-3.597-0.569l0,0c-0.581,0.704-3.503,1.04-6.098,1.152l0,0c-1.026,0.38-2.228,0.683-3.096,0.819l0,0
			c-0.245-0.168-0.37-0.253-0.617-0.414c0.391-0.049,1-0.191,1.625-0.389l0,0c-0.581-0.016-1.128-0.053-1.622-0.105l0,0
			c-0.896-0.107-1.708-0.336-1.764-0.674l0,0c-0.033-0.166,0.105-0.346,0.384-0.525l0,0c0.686-0.405,2.397-0.874,4.296-0.946l0,0
			c0.724-0.012,1.53,0.056,2.107,0.254l0,0c0.449,0.145,0.68,0.334,0.714,0.519l0,0c0.022,0.309-0.316,0.627-0.84,0.927l0,0
			c0.741-0.061,1.465-0.148,2.036-0.251l0,0c1.078-0.188,1.564-0.403,1.499-0.589l0,0c0-0.012-0.007-0.031-0.007-0.046l0,0
			c-0.055-0.133-0.08-0.204-0.132-0.336c0.419,0.031,0.627,0.043,1.047,0.08c0.603,0.05,1.193,0.117,1.78,0.194l0,0
			c0.265-0.037,0.399-0.053,0.668-0.089c1.86-0.253,3.916-0.395,6.018-0.457l0,0c3.159-0.086,6.437,0.006,9.353,0.223l0,0
			c-0.12-0.061-0.253-0.123-0.389-0.179l0,0l0,0l0,0l0,0c-0.006-0.006-0.012-0.01-0.018-0.01l0,0
			c0.463-0.117,0.692-0.176,1.155-0.293c0.334,0.127,0.575,0.259,0.785,0.392l0,0c0.142,0.077,0.271,0.158,0.399,0.243l0,0
			c0.053,0.032,0.105,0.066,0.16,0.093l0,0c0.37,0.204,0.559,0.306,0.93,0.51c-0.143-0.014-0.222-0.021-0.366-0.034
			c0.597,0.532,1.038,1.07,1.793,1.523l0,0c1.613-0.213,4.122-0.838,6.054-1.455l0,0c-0.392-0.154-0.66-0.344-0.757-0.568l0,0
			c-0.034-0.095-0.015-0.195,0.028-0.296l0,0c0.028-0.062,0.043-0.087,0.071-0.149c0.176-0.015,0.263-0.021,0.439-0.037
			c0.476-0.053,1.022-0.087,1.582-0.105l0,0c0.707-0.025,1.411-0.031,2.044,0.01l0,0c0.386,0.015,0.584,0.027,0.973,0.051
			c-0.185,0.109-0.281,0.168-0.463,0.275c-0.393,0.226-1.001,0.492-1.742,0.764l0,0c0.853,0.124,2.021,0.176,3.13,0.13l0,0
			c1.761-0.062,3.185-0.34,3.42-0.718l0,0c0.055-0.08,0.083-0.117,0.138-0.191c0.251,0,0.368,0.003,0.619,0.006
			c4.476,0.067,8.814,1.174,12.391,1l0,0c-0.345-0.201-0.553-0.389-0.623-0.567l0,0c-0.16-0.352,0.352-0.668,1.121-0.872l0,0
			c0.763-0.217,1.758-0.371,2.857-0.538l0,0c4.295-0.652,10.767-1.68,16.689-1.983l0,0c1.829-0.089,3.624-0.111,5.295-0.025l0,0
			c0.287-0.074,0.432-0.111,0.723-0.182c0.223,0.083,0.284,0.176,0.303,0.231l0,0c0.006,0.014,0.012,0.022,0.018,0.028l0,0h0.006
			l0,0c0,0.006,0,0.006-0.006,0.01c0.006,0.006,0.006,0.012,0.006,0.018l0,0c-0.006,0-0.018,0-0.028,0.006
			c-0.148,0.16-0.219,0.253-0.37,0.421c-0.091-0.006-0.17-0.016-0.257-0.028l0,0c-1.625-0.127-3.491-0.127-5.48-0.022l0,0
			c-5.568,0.279-11.969,1.291-16.266,1.947l0,0c-1.083,0.16-1.98,0.309-2.502,0.457l0,0c-0.522,0.158-0.696,0.263-0.633,0.47l0,0
			c0.061,0.151,0.334,0.37,0.939,0.649l0,0c0.223,0.101,0.328,0.16,0.55,0.255c-0.38,0.044-0.568,0.059-0.949,0.097
			c-0.392,0.037-0.791,0.073-1.196,0.086l0,0c-4.337,0.161-8.483-0.874-12.091-0.988l0,0c-0.736,0.55-2.651,0.828-4.514,0.896l0,0
			c-1.467,0.053-3.102-0.014-4.33-0.235l0,0c-2.266,0.735-5.259,1.455-7.357,1.649l0,0c-0.225,0.022-0.336,0.037-0.559,0.055
			C497.387,368.377,497.324,368.339,497.213,368.284L497.213,368.284z M504.995,365.813c0.034,0.102,0.139,0.191,0.312,0.271l0,0
			c0.352-0.123,0.674-0.247,0.939-0.364l0,0c-0.154,0.006-0.299,0.006-0.457,0.012l0,0c-0.277,0.012-0.555,0.025-0.809,0.043l0,0
			C504.986,365.788,504.993,365.801,504.995,365.813L504.995,365.813z M466.565,366.362c-0.204,0.131-0.257,0.222-0.245,0.287l0,0
			c0.034,0.117,0.223,0.196,0.838,0.273l0,0c0.565,0.071,1.424,0.101,2.357,0.083l0,0c0.852-0.35,1.492-0.729,1.364-0.983l0,0
			c-0.027-0.098-0.117-0.172-0.32-0.241l0,0c-0.273-0.085-0.532-0.111-0.933-0.098l0,0c-0.026,0-0.046-0.008-0.075-0.008l0,0
			C468.489,365.705,466.865,366.131,466.565,366.362L466.565,366.362z M467.229,368.272c0-0.006,0-0.006,0-0.006l0,0V368.272
			c-0.006,0-0.006,0-0.006,0H467.229z"/>
	</g>
	<path fill="#231F20" d="M352.16,260.752c-18.819-0.599-37.492-1.368-56.248-2.329c0.382-0.729,0.571-1.094,0.951-1.827
		c18.527,1.045,37.12,1.815,55.747,2.311C352.43,259.639,352.341,260.011,352.16,260.752z"/>
	<path fill="#231F20" d="M380.349,265.923c-29.01-0.334-57.983-1.313-86.807-2.938c0.378-0.729,0.565-1.097,0.945-1.827
		c28.571,1.61,57.299,2.583,86.057,2.911C380.466,264.805,380.429,265.181,380.349,265.923z"/>
	<path fill="#231F20" d="M376.467,273.281c-28.981-0.377-57.932-1.374-86.729-2.997c0.379-0.729,0.568-1.093,0.949-1.828
		c28.558,1.613,57.263,2.604,86.005,2.977C376.602,272.172,376.56,272.543,376.467,273.281z"/>
	<path fill="#231F20" d="M372.863,269.37c-27.121-0.407-54.199-1.371-81.145-2.884c0.382-0.73,0.569-1.1,0.948-1.826
		c26.822,1.363,53.513,2.308,80.456,2.861C373.023,268.261,372.965,268.635,372.863,269.37z"/>
	<path fill="#231F20" d="M379.234,276.559c-30.533-0.498-60.787-1.516-91.159-3.08c0.378-0.732,0.571-1.097,0.948-1.823
		c30.128,1.545,60.128,2.558,90.405,3.049C379.349,275.448,379.31,275.818,379.234,276.559z"/>
	<path fill="#231F20" d="M364.505,287.31c-27.419-0.492-54.798-1.498-82.054-3.037c0.382-0.729,0.571-1.093,0.951-1.819
		c27.039,1.517,54.202,2.525,81.403,3.009C364.685,286.205,364.626,286.572,364.505,287.31z"/>
	<path fill="#231F20" d="M375.201,283.921c-30.443-0.537-60.635-1.581-90.932-3.141c0.382-0.732,0.575-1.096,0.951-1.826
		c30.054,1.548,59.999,2.583,90.201,3.12C375.333,282.81,375.291,283.18,375.201,283.921z"/>
	<path fill="#231F20" d="M371.396,280.01c-28.453-0.431-56.866-1.445-85.142-3.036c0.381-0.726,0.572-1.09,0.951-1.82
		c28.044,1.576,56.224,2.583,84.444,3.003C371.546,278.898,371.5,279.269,371.396,280.01z"/>
	<path fill="#231F20" d="M467.207,260.325c-18.817,0.544-37.528,0.896-56.373,1.078c-0.029-0.745-0.039-1.113-0.068-1.854
		c18.638-0.077,37.273-0.433,55.864-1.062C466.859,259.222,466.976,259.592,467.207,260.325z"/>
	<path fill="#231F20" d="M497.683,263.261c-28.795,1.415-57.732,2.187-86.684,2.307c-0.027-0.741-0.046-1.113-0.076-1.85
		c28.699-0.123,57.384-0.884,85.932-2.286C497.189,262.166,497.353,262.531,497.683,263.261z"/>
	<path fill="#231F20" d="M492.388,267.563c-27.095,1.085-54.044,1.749-81.231,2.015c-0.032-0.742-0.046-1.109-0.073-1.851
		c26.951-0.265,53.675-0.927,80.539-1.998C491.93,266.464,492.079,266.832,492.388,267.563z"/>
	<path fill="#231F20" d="M440.392,302.921c-53.522,0.617-106.436-0.356-159.698-2.944c0.359-0.73,0.544-1.094,0.905-1.826
		c52.869,2.565,105.391,3.535,158.506,2.923C440.222,301.814,440.278,302.185,440.392,302.921z"/>
	<path fill="#231F20" d="M523.541,304.259c-81.876,3.877-163.029,3.827-244.882-0.17c0.361-0.729,0.544-1.097,0.906-1.827
		c81.292,3.94,161.776,3.996,243.092,0.17C523.009,303.158,523.189,303.526,523.541,304.259z"/>
	<path fill="#231F20" d="M447.816,352.084c-64.017,0.794-127.458-0.374-191.156-3.525c0.362-0.732,0.543-1.097,0.902-1.825
		c63.308,3.129,126.357,4.294,189.976,3.503C447.648,350.975,447.704,351.346,447.816,352.084z"/>
	<path fill="#231F20" d="M546.951,352.869c-97.65,4.699-194.698,4.628-292.319-0.194c0.361-0.736,0.539-1.101,0.899-1.833
		c97.03,4.801,193.483,4.863,290.54,0.201C546.426,351.772,546.599,352.139,546.951,352.869z"/>
	<path fill="#231F20" d="M505.475,309.176c-76.551,2.975-152.364,2.604-228.774-1.127c0.362-0.729,0.539-1.093,0.901-1.825
		c75.865,3.701,151.135,4.074,227.137,1.115C505.036,308.073,505.184,308.441,505.475,309.176z"/>
	<path fill="#231F20" d="M534.328,326.659c-89.145,4.257-177.624,4.199-266.742-0.18c0.362-0.735,0.538-1.097,0.9-1.828
		c88.526,4.343,176.407,4.405,264.956,0.178C533.798,325.566,533.974,325.93,534.328,326.659z"/>
	<path fill="#231F20" d="M514.514,331.663c-83.248,3.26-165.792,2.861-248.883-1.226c0.362-0.732,0.538-1.097,0.898-1.825
		c82.545,4.053,164.546,4.454,247.249,1.216C514.073,330.558,514.217,330.928,514.514,331.663z"/>
	<path fill="#231F20" d="M494.022,285.707c-27.319,1.162-54.736,1.803-82.161,1.921c-0.029-0.737-0.042-1.109-0.071-1.85
		c27.209-0.115,54.407-0.751,81.512-1.912C493.589,284.601,493.735,284.971,494.022,285.707z"/>
	<path fill="#231F20" d="M502.728,281.731c-30.34,1.295-60.553,2.073-91.007,2.351c-0.029-0.742-0.044-1.113-0.07-1.853
		c30.208-0.267,60.182-1.044,90.271-2.329C502.246,280.628,502.41,280.996,502.728,281.731z"/>
	<path fill="#231F20" d="M496.8,278.113c-28.329,1.283-56.773,1.989-85.225,2.113c-0.029-0.747-0.048-1.112-0.075-1.854
		c28.222-0.117,56.433-0.822,84.533-2.097C496.343,277.008,496.493,277.378,496.8,278.113z"/>
	<path fill="#FFFFFF" d="M422.278,223.099l117.754,75.037l-35.058-68.206c0,0-5.715-11.236-21.006-8.94L422.278,223.099z"/>
	<g>
		<g>
			<path fill="#231F20" d="M343.664,238.012c2.426,0.589,3.647,0.892,6.102,1.498c-1.527,1.866-3.604,3.191-6.243,3.948
				c-2.631,0.76-5.802,1.005-9.435,0.779c-4.503-0.277-7.906-1.263-10.108-2.972c-2.206-1.708-2.652-3.91-1.453-6.62
				c1.269-2.867,3.622-5.024,6.958-6.457c3.342-1.437,7.109-2.023,11.413-1.77c3.754,0.223,6.588,1.032,8.584,2.416
				c1.181,0.822,1.949,1.955,2.27,3.386c-2.621,0.186-3.946,0.271-6.59,0.445c-0.088-0.914-0.642-1.671-1.647-2.262
				c-1.004-0.587-2.329-0.935-4.007-1.034c-2.313-0.139-4.366,0.219-6.182,1.05c-1.814,0.831-3.146,2.274-3.977,4.322
				c-0.881,2.165-0.774,3.76,0.368,4.77c1.138,1.008,2.946,1.588,5.372,1.736c1.791,0.111,3.438-0.087,4.918-0.595
				C341.49,240.134,342.71,239.25,343.664,238.012z"/>
			<path fill="#231F20" d="M354.149,245.317c1.766-6.923,2.648-10.626,4.41-17.565c5.237,0.29,7.854,0.432,13.098,0.673
				c3.291,0.161,5.657,0.42,7.111,0.797c1.455,0.371,2.582,0.983,3.399,1.833c0.817,0.846,1.176,1.807,1.065,2.854
				c-0.143,1.331-0.96,2.382-2.486,3.185c-1.528,0.809-6.628,1.384-6.628,1.384c-0.033,0.053,2.458,1.101,3.317,1.718
				c0.861,0.611,1.992,1.699,3.442,3.244c1.471,1.545,2.226,2.327,3.755,3.77c-3.279-0.142-4.916-0.229-8.191-0.408
				c-1.775-1.637-2.645-2.521-4.338-4.25c-1.503-1.545-2.506-2.521-3.07-2.923c-0.562-0.407-1.185-0.698-1.858-0.871
				c-0.669-0.18-1.758-0.312-3.268-0.396c-0.534-0.031-0.803-0.049-1.338-0.079c-0.631,2.989-0.943,4.622-1.576,7.526
				C358.256,245.611,356.885,245.513,354.149,245.317z M363.182,235.484c1.921,0.108,2.874,0.16,4.795,0.259
				c3.109,0.161,5.067,0.182,5.86,0.077c0.8-0.105,1.443-0.328,1.929-0.654c0.486-0.328,0.764-0.766,0.84-1.292
				c0.086-0.599-0.131-1.087-0.644-1.482c-0.511-0.39-1.279-0.665-2.277-0.797c-0.499-0.071-2.048-0.155-4.611-0.285
				c-1.978-0.101-2.962-0.158-4.938-0.265C363.754,232.824,363.566,233.726,363.182,235.484z"/>
			<path fill="#231F20" d="M388.327,247.35c0.524-7.022,0.787-11.174,1.309-18.26c9.148,0.225,13.644,0.219,22.924,0.126
				c0.076,1.19,0.121,1.798,0.213,3.009c-6.913,0.105-10.258,0.117-17.027,0.012c-0.06,1.588-0.092,2.388-0.15,3.948
				c6.437,0.099,9.604,0.105,16.206-0.025c0.049,1.174,0.082,1.761,0.151,3.041c-6.724,0.117-9.934,0.123-16.473,0.015
				c-0.076,2.042-0.112,3.148-0.184,5.231c7.461,0.154,11.111,0.114,18.886,0.006c0.087,1.303,0.131,1.949,0.224,3.151
				C403.592,247.68,398.648,247.724,388.327,247.35z"/>
			<path fill="#231F20" d="M418.518,229.135c4.657-0.079,7.003-0.129,11.702-0.271c2.649-0.081,4.694-0.049,6.14,0.105
				c1.946,0.204,3.709,0.637,5.336,1.289c1.615,0.652,3.036,1.479,4.189,2.462c1.155,0.994,1.868,1.933,2.449,3.787
				c0.51,1.631,0.562,3.12,0.18,4.387c-0.47,1.558-1.425,2.855-2.857,3.862c-1.084,0.759-2.667,1.38-4.761,1.847
				c-1.56,0.346-3.729,0.569-6.475,0.652c-5.597,0.17-8.396,0.213-13.897,0.287C419.647,240.257,419.247,236.081,418.518,229.135z
				 M425.432,231.91c0.889,4.578,1.129,6.994,1.92,12.251c2.159-0.071,3.239-0.104,5.413-0.185c2.026-0.081,3.485-0.214,4.356-0.383
				c1.136-0.217,2.057-0.544,2.736-0.989c0.683-0.439,1.161-1.125,1.424-2.07c0.263-0.943,0.201-2.208-0.204-3.723
				c-0.405-1.51-0.818-2.271-1.483-2.912c-0.67-0.649-1.486-1.153-2.418-1.495c-0.939-0.35-2.046-0.562-3.318-0.649
				c-0.951-0.061-2.779-0.043-5.464,0.056C427.208,231.854,426.617,231.872,425.432,231.91z"/>
			<path fill="#231F20" d="M457.235,246.087c-2.744-7.993-4.427-11.91-6.831-18.11c2.558-0.151,3.832-0.225,6.37-0.411
				c2.689,6.105,4.724,9.984,7.656,17.918C461.581,245.744,460.139,245.871,457.235,246.087z"/>
			<path fill="#231F20" d="M478.702,243.875c-2.422-6.145-3.46-9.37-7.254-14.759c-3.725,0.352-5.61,0.51-9.41,0.803
				c-0.668-1.075-1.002-1.615-1.48-2.638c9.944-0.787,14.844-1.267,24.285-2.811c0.528,1.084,0.951,1.675,1.859,2.885
				c-3.533,0.5-5.338,0.71-8.977,1.113c4.094,5.555,5.307,8.736,7.528,14.47C482.688,243.334,481.371,243.526,478.702,243.875z"/>
		</g>
	</g>
	<path fill="#231F20" d="M464.56,249.754c0,0,17.21,1.334,27.562-8.607c0,0,3.327,4.016,2.076,7.458c0,0-3.12,9.12-22.305,7.266
		L464.56,249.754z"/>
	<g>
		<path fill="#FFFFFF" d="M504.464,228.908c0,0-1.88-4.425-6.947-8.44c-4.709-3.735-8.861-3.541-8.861-3.541
			s22.695,6.627,13.766,26.516c-8.922,19.885-27.408,13.258-27.408,13.258l65.784,42.707L504.464,228.908z"/>
		<path fill="#231F20" d="M505.165,228.611c-0.081-0.186-2.011-4.658-7.177-8.746c-4.875-3.865-5.193-1.841-7.368-2.138
			l-3.954,0.099c0.101,0.028,12.123,2.95,15.773,10.872c1.94,4.201,1.699,9.057-0.713,14.43
			c-8.523,18.99-25.725,13.111-26.457,12.855l-0.674,1.358l65.787,42.707l2.412,1.569l-1.319-2.558
			C541.477,299.059,505.141,228.558,505.165,228.611z M541.214,298.769l-65.784-42.707l-0.676,1.359
			c0.192,0.071,19.259,6.637,28.366-13.667c2.602-5.799,2.839-11.084,0.708-15.706c-3.948-8.557-9.5-9.891-9.945-10.025
			l-4.151,0.099c0.037-0.004,2.91-0.544,7.309,2.938c4.838,3.837,6.7,8.106,6.716,8.149c0.028,0.047,36.361,70.547,36.361,70.547
			L541.214,298.769z"/>
	</g>
	<g>
		<g>
			<path fill="#FFFFFF" d="M462.15,313.411l28.653,21.064c0,0,13.559,25.428,18.687,31.739c0,0-27.062-10.856-31.952-8.248
				l-29.399-24.359C448.14,333.607,456.802,317.515,462.15,313.411z"/>
			<path fill="#231F20" d="M461.693,314.024l28.657,21.065l-0.223-0.259c0.559,1.044,13.658,25.571,18.77,31.866l0.878-1.192
				c-2.805-1.125-27.544-10.911-32.598-8.224l0.846,0.089l-29.398-24.351l0.186,0.949c0.086-0.16,8.649-15.99,13.803-19.956
				L461.693,314.024z M447.648,334.197l29.399,24.35l0.395,0.328l0.451-0.241c3.359-1.786,20.566,3.979,31.314,8.288l2.737,1.099
				l-1.859-2.289c-5.02-6.185-18.468-31.362-18.604-31.623l-0.081-0.148l-0.142-0.105l-28.657-21.069l-0.464-0.336l-0.457,0.348
				c-5.409,4.158-13.859,19.784-14.217,20.442l-0.297,0.554L447.648,334.197z"/>
		</g>
		<g>
			<path fill="#231F20" d="M482.577,342.13c1.368-0.044,2.501,1.04,2.546,2.406c0.033,1.372-1.05,2.511-2.416,2.546
				c-1.372,0.037-2.503-1.041-2.54-2.419C480.127,343.298,481.205,342.161,482.577,342.13z"/>
		</g>
		<g>
			<g>
				<polygon fill="#231F20" points="507.185,364.852 483.771,346.499 484.078,346.115 507.495,364.46 507.185,364.852 				"/>
			</g>
		</g>
		<g>
			<g>
				<path fill="#FFFFFF" d="M463.714,314.981c-12.377-21.014-39.412-49.225-58.37-64.616c-11.892-7.309-24.656-2.588-31.917,6.166
					c-7.285,8.777-8.37,23.146,1.007,33.482c18.477,15.678,49.846,36,72.594,44.286
					C464.556,335.389,468.026,331.639,463.714,314.981z"/>
				<path fill="#231F20" d="M465.032,314.208c-12.261-20.824-39.487-49.42-58.723-65.029l-0.078-0.062l-0.086-0.049
					c-12.969-7.983-26.665-2.234-33.897,6.484c-7.213,8.697-9.296,24.088,1.053,35.488l0.07,0.077l0.076,0.062
					c17.958,15.242,49.667,36.039,73.056,44.563l0.207,0.067l0.222,0.018c8.496,0.526,14.792,0.099,17.924-3.695
					c2.638-3.193,2.737-8.276,0.337-17.531l-0.053-0.207L465.032,314.208z M447.55,332.863
					c-23.056-8.397-54.367-28.941-72.124-44.013l0.143,0.132c-9.193-10.12-7.357-23.768-0.963-31.477
					c6.63-7.991,18.46-12.894,29.935-5.836l-0.161-0.117c19.026,15.443,45.929,43.687,58.015,64.209l-0.164-0.39
					c2.094,8.07,2.171,12.506,0.265,14.814c-1.947,2.364-6.546,3.136-15.379,2.588L447.55,332.863z"/>
			</g>
		</g>
		<g>
			<path fill="#231F20" d="M405.177,250.278c18.461,15.935,42.101,41.221,53.432,60.474c4.316,16.654,0.841,20.399-16.686,19.314
				c-20.829-7.588-48.865-25.265-67.634-40.231c0.053,0.059,0.092,0.12,0.144,0.178c18.477,15.678,49.667,36.216,72.412,44.501
				c17.528,1.085,21.118-3.197,16.799-19.851c-12.374-21.014-39.344-48.908-58.301-64.298
				C405.288,250.335,405.233,250.31,405.177,250.278z"/>
		</g>
		<g>
			<path fill="#231F20" d="M439.017,310.953c6.475-7.8,16.126-10.472,21.557-5.969l-3.991-3.315
				c-5.435-4.507-17.248-3.623-23.719,4.18c-6.475,7.8-5.161,19.571,0.271,24.078l3.998,3.315
				C431.702,328.735,432.542,318.757,439.017,310.953z"/>
		</g>
		<g>
			<path fill="#231F20" d="M370.572,290.279c-1.625-1.352-1.85-3.76-0.501-5.387l30.933-37.282c1.351-1.625,3.76-1.847,5.387-0.504
				l0,0c1.625,1.353,1.851,3.76,0.503,5.385l-30.937,37.289C374.608,291.404,372.196,291.626,370.572,290.279L370.572,290.279z"/>
		</g>
		<g>
			<path fill="#231F20" d="M390.535,251.842c1.349-1.629,3.761-1.851,5.385-0.5l37.286,30.936c1.623,1.347,1.847,3.757,0.498,5.382
				l0,0c-1.35,1.625-3.759,1.853-5.386,0.504l-37.281-30.934C389.411,255.877,389.187,253.467,390.535,251.842L390.535,251.842z"/>
		</g>
	</g>
</g>
</svg>
