<?xml version="1.0" encoding="utf-8"?>
<!-- Generator: Adobe Illustrator 17.0.0, SVG Export Plug-In . SVG Version: 6.00 Build 0)  -->
<!DOCTYPE svg PUBLIC "-//W3C//DTD SVG 1.1//EN" "http://www.w3.org/Graphics/SVG/1.1/DTD/svg11.dtd">
<svg version="1.1" id="Layer_1" xmlns="http://www.w3.org/2000/svg" xmlns:xlink="http://www.w3.org/1999/xlink" x="0px" y="0px"
	 width="800px" height="600px" viewBox="0 0 800 600" enable-background="new 0 0 800 600" xml:space="preserve">
<g>
	<path d="M219.815,422.412c5.268-2.466,8.625-2.543,13.152-5.151c-0.012,0.007-0.022,0.015-0.038,0.022
		c6.584-2.298,13.096-5.667,17.154-11.626c11.648-17.118,12.055-46.643,8.833-69.267c-3.248-4.067-9.72-12.061-14.17-19.433
		c-2.604-0.626-5.044-1.5-7.396-2.51c-0.66-0.359-1.335-0.657-2.022-0.876c-2.748-1.333-5.331-2.91-7.744-4.715
		c-5.581-6.938-11.936-13.01-15.836-21.419c-2.36-5.09-5.806-15.472-8.642-24.099c-2.834-8.626-8.075-43.601,1.957-69.643
		c5.359-13.923,13.438-32.679,21.911-44.995c11.994-17.436,29.625-25.304,30.498-26.93c6.782-4.32,16.846-9.773,23.495-13.37
		c6.649-3.597,14.101-5.767,25.556-10.557c11.451-4.791,33.075-12.091,33.751-27.846c0.73-17.071-11.463-23.895-20.609-16.931
		c7.689-20.324,28.017-6.094,28.974,12.749c1.014,19.943-10.393,30.376-25.104,39.051c27.089-1.597,91.078-5.92,98.044-6.063
		c20.909-5.371,35.286-35.704,25.157-58.559c-1.078-2.434-4.513-9.433-9.297-10.692c-3.98-1.048-9.371,2.345-9.763,6.51
		c-0.743,7.864,5.488,11.397,13.866,10.028c-0.678,4.594-8.892,9.233-16.245,7.18c-13.492-3.767-13.732-23.951-5.641-31.463
		c11.969-11.117,28.724-1.539,36.252,11.97c8.764,15.73,11.579,41.399,8.029,58.512c-3.448,16.605-13.884,25.178-28.824,31.172
		c5.746,2.996,60.644,36.416,97.773,60.172c37.128,23.755,99.577,75.887,109.273,102.368c-13.397,6.129-31.311,9.477-35.035,25.276
		c-25.271,2.812-52.855,21.875-63.222,28.832c7.232,6.581,14.383,14.602,15.509,18.114c1.129,3.513,2.028,6.499-1.505,9.909
		c-7.9-8.155-14.297-14.924-23.448-23.449c-19.556,13.446-37.365,31.214-56.478,45.108c-17.921-33.899-47.329-84.042-68.437-106.868
		c0.155,5.17-2.784,11.408-7.38,14.309c0.357,12.779,2.587,25.737,5.492,38.573c6.042-1.555,11.465-6.572,13.976-10.575
		c7.4,11.409,1.549,21.676-10.871,25.14c-12.423,3.467-25.673-4.54-22.211-18.627c3.46,3.346,9.912,6.089,15.413,4.645
		c-2.258-11.734-4.196-29.409-4.434-38.853c-1.694,0-3.875-0.968-5.329-2.991c-15.996,56.382-60.532,90.888-73.609,91.86
		c-6.871,0.505-23.871-10.283-32.147-17.746c-5.853,13.322-14.449,32.852-11.402,56.992c4.133,32.647,14.426,63.719,32.391,89.558
		c9.469,6.368,13.336,16.677,15.35,26.323c-23.152,17.185-43.352,35.023-75.871,25.914c-26.248-7.354-50.244-22.58-65.347-45.107
		c-0.043-1.802-0.079-3.606-0.101-5.412C183.106,487.295,196.514,433.313,219.815,422.412z"/>
	<path fill-rule="evenodd" clip-rule="evenodd" fill="#D3BD6D" d="M390.82,336.399c0,8.006,9.073,13.495,19.107,11.228
		c10.029-2.271,13.046-10.946,11.343-17.197C415.406,336.87,402.522,344.405,390.82,336.399z"/>
	<path fill-rule="evenodd" clip-rule="evenodd" fill="#732E21" d="M607.529,298.749c-13.079-19.856-49.884-51.092-67.805-62.231
		c15.641,12.722,48.67,46.732,64.172,67.311C605.027,300.767,606.314,300.2,607.529,298.749z"/>
	<path fill-rule="evenodd" clip-rule="evenodd" fill="#823324" d="M541.112,234.11c14.66,10.265,51.322,37.007,69.269,63.226
		c7.216-5.496,17.863-11.835,25.131-13.589c-8.273-19.681-54.718-64.293-95.255-91.316
		c-42.996-28.661-108.462-66.656-108.462-66.656s-30.114,5.282-41.777,0.012c6.21-0.696,14.866,0.053,27.896-1.858
		c13.03-1.916,25.686-8.075,31.818-13.562c6.134-5.489,8.909-10.411,10.961-21.012c2.055-10.602,0.843-33.351-3.73-46.785
		C451.119,25.396,432.586,12,420.339,25.227c-8.552,9.232-1.196,34.029,17.1,23.086c-7.868,0.513-14.537-4.789-12.656-13.681
		c1.421-6.706,9.813-12.017,17.615-5.471c13.037,10.945,12.052,38.653,4.89,51.072c-7.424,12.866-17.904,20.098-29.126,25.01
		c-11.221,4.911-22.248,7.626-24.291,8.364c0.322-1.287,5.225-3.238,8.043-4.825c2.817-1.587,14.612-5.678,17.695-7.079
		c-15.891,0.213-34.629,1.853-52.372,2.698c-12.459,0.595-26.896,1.606-36.261,2.129c-9.366,0.525-16.264,1.476-18.018,0.162
		c8.366-1.643,14.669-7.116,20.351-11.809c9.147-7.55,13.647-19.11,12.921-29.618c-0.726-10.6-12.921-27.585-22.644-15.531
		c11.319-4.068,18.291,6.965,18.869,16.839c1.386,23.532-37.735,34.728-44.137,36.741c-6.401,2.015-12.304,4.859-19.583,8.622
		c-7.281,3.763-30.432,18.266-42.214,30.913c-4.238,2.867-12.765,16.95-17.508,26.581c-4.742,9.63-20.525,42.397-16.584,73.144
		c6.055,47.216,22.762,65.861,40.196,69.012c-8.474-16.953-17.918-34.87-22.762-56.906c1.212-11.138,13.319-33.795,35.594-37.048
		c29.299-4.276,53.774-0.33,73.527,3.148c-13.944-9.21-40.679-20.338-51.472-25.721c13.059-2.367,70.199,23.782,104.747,54.134
		c34.544,30.349,74.23,82.103,97.659,133.103c17.69-13.459,33.605-28.086,50.908-41.751c-4.143-4.512-8.026-8.65-12.493-13.452
		c5.591,0.912,28.039,26.493,38.196,35.521c1.096-1.576,0.752-4.137-4.893-10.78c-5.639-6.649-88.691-81.001-127.679-106.101
		c14.448,3.675,25.863,13.677,37.656,23.245c22.553,18.292,74.352,62.291,79.117,67.934c27.832-19.817,53.395-27.774,60.934-29.841
		c-35.548-49.218-82.264-88.754-136.798-118.987c4.893,0.622,15.301,5.509,23.95,10.654
		C497.466,203.88,526.453,223.843,541.112,234.11z"/>
	<path fill-rule="evenodd" clip-rule="evenodd" fill="#5BA4D8" d="M343.026,246.236c-1.885,0.589-5.411,2.351-6.121,3.762
		c11.758,16.931,30.455,7.523,29.28-3.293c-0.768-1.869-4.447-3.263-7.169-3.173C361.83,255.642,344.43,258.699,343.026,246.236z"/>
	<path fill-rule="evenodd" clip-rule="evenodd" fill="#FFFFFF" d="M350.9,244.119c-2.468,1.528,0,4.943,2.351,3.528
		C355.601,246.236,353.366,242.589,350.9,244.119z"/>
	<path fill-rule="evenodd" clip-rule="evenodd" fill="#FFFFFF" d="M335.145,252c-2.388,1.947-3.806,3.847-5.29,6.7
		c8.225,11.819,34.323,14.932,52.198-0.707c-3.408-3.878-7.524-7.051-12.698-10.226C367.71,264.693,343.845,266.93,335.145,252z"/>
	<path fill-rule="evenodd" clip-rule="evenodd" fill="#E7B886" d="M319.866,381.316c10.151-0.264,36.623-24.996,48.184-42.376
		c14.231-21.376,23.126-42.305,24.443-67.025c2.767,2.993,2.148,18.512,2.148,18.512s1.076,3.939,4.536,4.297
		c-0.24-3.225-0.713-8.239-0.713-8.239h2.266c0,0,0.556,5.298,0.718,7.641c6.089-4.06,4.378-12.812,4.378-12.812
		s-15.47-19.25-20.923-21.172c-1.718,1.725,0.802,5.421,1.646,7.185c-0.7,0.635-1.587,1.016-2.158,0.954
		c-1.145-2.415-2.684-5.64-4.601-4.42c-2.762,1.749,1.237,4.67,1.428,7.271c-0.317,0.317-1.208,1.016-1.776,0.953
		c-0.954-2.159-2.924-5.841-5.208-4.697c-2.285,1.143,0.124,4.504,1.013,7.047c-0.378,0.445-1.968,1.201-2.342,0.826
		c-0.829-2.097-1.146-6.286-4.448-5.335c-3.295,0.956-0.166,3.359,0.004,6.473c-0.762,0.509-1.781,0.824-2.858,0.57
		c-0.505-2.79-0.765-5.784-2.854-5.395c-3.047,0.568-1.903,4.067-1.522,6.413c-0.955,0.445-2.351,0.254-2.351,0.254
		s0.569-6.096-2.663-5.905c-1.744,0.106-0.954,3.938-0.703,6.03c-0.763,0.445-2.301,0.073-2.471,0
		c-0.13-1.715,0.502-6.222-1.589-6.475c-2.217-0.266-2.158,3.619-2.601,6.159c-0.954,0.005-2.032-0.189-2.6-0.636
		c0.503-2.283,1.953-6.224,0-6.661c-3.109-0.701-3.782,4.218-4.192,6.217c-0.951-0.062-1.703-0.299-2.41-0.888
		c-0.372-1.906,2.982-6.221,0.381-7.173c-2.605-0.95-3.385,3.518-4.446,6.223c-0.696-0.128-1.585-0.192-2.282-1.019
		c0.317-3.995,3.774-6.617,1.609-7.655c-2.705-1.291-4.452,3.574-5.036,6.515c-0.827,0-1.404-0.436-1.969-1.142
		c-0.003-3.017,3.636-7.285,1.399-8.125c-2.824-1.058-3.682,7.11-3.682,7.11s-1.282-0.174-2.221-0.763
		c-0.236-3.64-0.018-6.995,2.092-11.985c2.109-4.991,13.816-23.221,37.559-16.518c-8.012-6.315-17.8-11.688-27.775-15.525
		c-36.073-5.757-66.766-7.655-86.125-0.749c-12.31,4.394-23.918,20.808-24.174,32.544
		C249.566,344.107,312.588,381.507,319.866,381.316z"/>
	<path fill-rule="evenodd" clip-rule="evenodd" fill="#E7B886" d="M273.325,430.297c-3.748-22.528,2.603-46.908,8.223-61.168
		c-4.852-4.453-13.296-11.438-16.581-16.581c0.859,14.039-2.026,41.247-7.283,49.742c-5.254,8.492-9.407,17.236-28.384,22.278
		c1.82,26.041,8.316,55.803,17.529,78.715c6.729,16.744,23.431,35.755,45.561,26.506c-2.329-14.38-13.39-18.491-23.932-26.089
		c4.403-0.983,9.89,5.045,12.109,5.045c2.223,0,1.618-3.832,1.82-8.272c1.882,3.22,2.421,6.458,2.219,9.889
		c5.047,3.835,10.095,10.495,11.965,17.566c4.388-2.228,7.817-7.073,9.43-11.106C286.424,488.155,277.546,455.657,273.325,430.297z"
		/>
	<path fill-rule="evenodd" clip-rule="evenodd" fill="#C84E6C" d="M248.913,567.447c-14.905-4.182-29.076-10.908-41.321-20.051
		c-2.816-21.502-1.63-67.372-0.7-93.553c-4.841,10.701-5.995,43.057-5.624,64.784c0.124,7.591,0.903,16.325,2.089,25.436
		c-5.928-4.887-11.318-10.394-16.032-16.501c0.646-20.82,3.646-41.262,8.87-58.987c5.654-19.175,17.765-44.008,29.07-42.793
		c2.345,33.114,12.037,83.812,32.718,101.676c15.726,13.583,39.141,11.567,51.05-6.387c5.873,4.405,9.873,12.679,11.015,23.997
		C298.801,561.041,279.2,575.929,248.913,567.447z"/>
	<path fill-rule="evenodd" clip-rule="evenodd" d="M281.206,191.08c44.545,3.619,87.971,30.543,120.903,48.611
		c-6.616-9.226-51.815-33.112-67.309-38.602c-15.497-5.492-26.984-9.062-38.688-11.148
		C287.986,188.498,283.79,188.817,281.206,191.08z"/>
	<path fill-rule="evenodd" clip-rule="evenodd" d="M237.73,276.097c0.301,0.601,1.301,0.801,2.212,0.601
		c-0.508-1.708-0.604-5.324,1.906-4.824c2.514,0.5,1.408,4.522,1.508,5.928c0.503,0.504,1.408,0.806,1.91,0.705
		c0.678-0.861-0.501-5.023,2.01-4.421c2.513,0.602,1.411,4.018,1.411,5.827c0.602,0.605,1.906,0.502,1.906,0.502
		s-0.8-5.327,1.607-4.924c2.414,0.404,1.406,4.621,1.406,5.731c0.304,0.399,1.508,0.503,2.212,0.399c0-1.608-0.711-5.865,1.51-5.625
		c2.814,0.299,1.995,3.974,2.111,5.829c0.503,0.402,1.206,0.301,1.909,0.1c0.203-1.305-1.004-5.528,2.314-5.426
		c3.315,0.101,1.895,3.733,2.414,5.326c0.704,0.503,1.604,0.197,2.208-0.1c-0.052-2.451-0.399-5.231,2.212-5.529
		c2.611-0.301,3.214,2.297,3.415,5.126c1.005,0.099,2.013-0.1,2.413-0.301c-0.156-2.901-1.206-5.53,1.612-6.134
		c2.814-0.601,4.137,2.445,4.519,4.927c0.603,0.1,1.408-0.404,1.913-0.603c-0.489-2.937-1.51-5.726,1.201-6.432
		c2.717-0.704,4.426,2.511,4.626,4.421c0.473,0.657,1.644-0.392,2.514-0.501c-0.604-2.11-2.514-5.025,0.102-6.032
		c2.613-1.004,3.72,1.806,4.421,3.619c0.423,0.345,1.708-0.2,2.216-0.903c-0.409-1.709-3.103-4.993-0.548-6.266
		c2.553-1.272,3.959,1.944,4.463,4.154c0.584,0.413,2.109-0.503,2.511-0.901c-1.007-1.811-2.61-5.933-0.301-6.838
		c2.31-0.903,3.42,2.109,4.222,4.927c0.921,0.408,1.789,0.045,2.314-0.404c-1.731-19.988-25.376-30.905-44.564-28.025
		C248.356,242.908,235.643,260.565,237.73,276.097z"/>
	<path fill-rule="evenodd" clip-rule="evenodd" fill="#5BA4D8" d="M280.882,244.268c1.924,0.003,6.844,1.484,8.475,2.662
		c-0.966,15.737-24.937,24.942-37.53,6.78c1.208-2.661,4.494-4.854,6.803-5.66C262.856,261.323,282.577,260.731,280.882,244.268z"/>
	<path fill-rule="evenodd" clip-rule="evenodd" fill="#FFFFFF" d="M273.008,245.841c1.304,1.912-0.807,4.623-2.914,4.424
		c-2.112-0.201-3.184-2.103-2.345-4.066C268.585,244.234,271.698,243.931,273.008,245.841z"/>
	<path fill-rule="evenodd" clip-rule="evenodd" fill="#FFFFFF" d="M292.103,247.953c6.229,1.811,10.326,6.244,13.477,10.361
		c-9.769,13.065-44.836,20.898-62.929,10.648c0.488-4.918,2.817-10.153,6.51-13.313
		C263.205,275.502,290.167,266.114,292.103,247.953z"/>
	<path fill-rule="evenodd" clip-rule="evenodd" d="M405.826,242.479c33.574,26.407,63.924,59.66,75.222,70.314
		C476.852,296.326,417.447,244.671,405.826,242.479z"/>
	<path fill-rule="evenodd" clip-rule="evenodd" d="M321.507,284.973c0.073,5.977,6.308,13.79,10.398,17.475
		c-0.648,2.827-5.667,5.768-9.41,7.742c7.094,3.738,13.395-4.142,15.169-7.686C333.638,298.421,326.634,292.068,321.507,284.973z"/>
	<path fill-rule="evenodd" clip-rule="evenodd" d="M294.71,351.73c1.196,0.015,2.989-0.733,4.65-0.932
		c4.226,5.281,13.679,10.601,24.511,9.416c10.838-1.181,17.925-6.894,21.471-16.15c-2.364-7.682-9.102-17.748-27.773-16.151
		C301.422,329.292,293.541,341.896,294.71,351.73z"/>
	<path fill-rule="evenodd" clip-rule="evenodd" fill="#97111D" d="M341.205,342.687c-11.9-7.922-31.218-3.776-41.845,3
		C303.192,328.111,334.902,325.947,341.205,342.687z"/>
	<path fill-rule="evenodd" clip-rule="evenodd" fill="#C0001F" d="M339.83,346.226c-5.517,12.018-27.971,13.79-36.44,2.566
		C308.68,344.054,330.178,337.562,339.83,346.226z"/>
	<path fill-rule="evenodd" clip-rule="evenodd" fill="#D6899F" d="M267.032,542.237c-7.71-3.423-22.502-4.089-27.273,2.731
		c-4.779,6.814,6.133,19.095,20.452,23.184C274.529,572.243,285.442,550.422,267.032,542.237z"/>
	<path fill-rule="evenodd" clip-rule="evenodd" fill="#D6899F" d="M301.028,558.55c-1.151-0.586-2.095-1.461-2.627-2.672
		c-2.73-6.137,4.39-15.561,8.178-17.73c4.382-2.501,8.143,3.066,8.213,10.851C310.215,552.396,305.67,555.661,301.028,558.55z"/>
	<path fill-rule="evenodd" clip-rule="evenodd" fill="#D6899F" d="M193.812,535.175c1.523-8.918,3.665-13.504,3.665-9.3
		c0,3.357,0.58,8.522,1.381,14.267C197.124,538.541,195.435,536.894,193.812,535.175z"/>
	<path fill-rule="evenodd" clip-rule="evenodd" fill="#D6899F" d="M219.87,430.489c-2.412,0.903-8.739,6.188-9.83,10.925
		c-1.096,4.732,4.734,10.192,8.373,2.185C222.056,435.584,222.786,429.396,219.87,430.489z"/>
	<path fill-rule="evenodd" clip-rule="evenodd" fill="#EFCFA5" d="M277.405,513.881c-3.312-2.648-9.104-4-12.741-2.911
		c-3.641,1.089,2.547,9.831,10.562,12.016C283.234,525.174,282.872,518.253,277.405,513.881z"/>
	<path fill-rule="evenodd" clip-rule="evenodd" fill="#EFCFA5" d="M324.382,300.854c-4.732-0.363-6.913,1.458-9.103,3.64
		c-2.181,2.183,6.192,2.911,9.832,1.096C328.753,303.77,328.753,301.192,324.382,300.854z"/>
	<path fill-rule="evenodd" clip-rule="evenodd" fill="#C68A92" d="M310.18,254.606c0,0-14.201-20.757-41.514-16.753
		c-27.31,4.006-30.949,20.757-30.949,20.757s0.007-26.527,30.584-30.223C301.442,224.382,310.18,254.606,310.18,254.606z"/>
	<path fill-rule="evenodd" clip-rule="evenodd" fill="#C68A92" d="M358.614,239.312c0,0-3.638-2.552-6.19-4.007
		c-2.551-1.459-6.92-3.275-6.92-3.275s-9.832,0-16.75,8.739c-6.915,8.74-6.553,21.121-6.553,21.121s5.097-14.203,16.746-19.667
		C350.608,236.763,358.614,239.312,358.614,239.312z"/>
	<path fill-rule="evenodd" clip-rule="evenodd" fill="#E3B097" d="M311.534,347.069c-1.985,0.419-2.854,2.848-1.5,3.554
		c2.869,1.508,7.104,0.547,7.649-1.502C318.177,347.268,314.817,346.388,311.534,347.069z"/>
	<path fill-rule="evenodd" clip-rule="evenodd" fill="#9E4A39" d="M419.222,246.229c0,0-33.679-28.45-70.678-44.244
		c-51.142-21.837-78.721-16.666-78.721-16.666s13.789-17.81,77.573,7.471C401.471,214.225,419.222,246.229,419.222,246.229z"/>
	<path fill-rule="evenodd" clip-rule="evenodd" fill="#9E4A39" d="M464.616,305.988c0,0-31.487-40.391-64.358-62.634
		c-56.883-38.496-95.384-45.967-95.384-45.967s65.503,31.601,92.515,51.713C424.391,269.213,464.616,305.988,464.616,305.988z"/>
	<path fill-rule="evenodd" clip-rule="evenodd" fill="#9E4A39" d="M417.497,236.46c0,0-27.005-33.328-68.953-48.266
		c-41.949-14.942-51.142-12.643-51.142-12.643s24.712-7.471,64.358,12.066C401.412,207.154,417.497,236.46,417.497,236.46z"/>
	<path fill-rule="evenodd" clip-rule="evenodd" fill="#5E2121" d="M315.172,216.92c0,0-29.785-6.737-56.531-1.957
		c-26.746,4.786-34.353,22.4-34.353,22.4s-2.612-23.049,32.612-27.835C292.126,204.744,315.172,216.92,315.172,216.92z"/>
	<path fill-rule="evenodd" clip-rule="evenodd" fill="#5E2121" d="M219.067,256.711c0,0,3.257,13.7,8.044,25.224
		c4.781,11.525,12.608,26.747,12.608,26.747s-9.131-3.482-16.088-21.313C216.673,269.537,219.067,256.711,219.067,256.711z"/>
	<path fill-rule="evenodd" clip-rule="evenodd" fill="#5E2121" d="M487.181,357.668c0,0-22.6-45.847-46.489-68.446
		c-23.89-22.597-65.86-50.366-65.86-50.366s39.389,34.226,57.467,53.597C450.378,311.821,487.181,357.668,487.181,357.668z"/>
	<path fill-rule="evenodd" clip-rule="evenodd" fill="#5E2121" d="M533.027,327.324c0,0-38.743-34.87-58.759-51.012
		c-20.017-16.146-33.576-25.831-40.03-29.058c-6.462-3.23-12.273-5.165-12.273-5.165s9.042-9.044,43.91,20.015
		C500.742,291.158,533.027,327.324,533.027,327.324z"/>
	<path fill-rule="evenodd" clip-rule="evenodd" fill="#9E4A39" d="M279.911,174.934c0,0-26.472,5.812-38.741,16.788
		c-12.264,10.978-19.37,23.245-21.307,30.994c-1.936,7.748-3.229,14.853-3.229,14.853s-8.817-24.345,10.976-42.617
		C252.792,171.707,279.911,174.934,279.911,174.934z"/>
	<path fill-rule="evenodd" clip-rule="evenodd" fill="#5E2121" d="M293.171,206.547c0,0-20.844-3.645-40.27,0.808
		c-19.43,4.457-24.284,11.131-24.284,11.131s0.807-13.152,23.471-16.188C274.757,199.262,293.171,206.547,293.171,206.547z"/>
	<path fill-rule="evenodd" clip-rule="evenodd" fill="#5E2121" d="M527.646,317.061c0,0-35.302-39.31-57.506-56.775
		c-22.201-17.471-28.39-19.658-28.39-19.658s11.65-3.274,35.669,16.379C501.439,276.662,527.646,317.061,527.646,317.061z"/>
	<path fill-rule="evenodd" clip-rule="evenodd" fill="#5E2121" d="M596.798,305.054c0,0-23.657-28.392-39.671-45.499
		c-16.016-17.105-32.029-29.843-44.041-38.577c-12.01-8.738-26.932-17.111-26.932-17.111s29.843,28.392,57.14,54.235
		C570.592,283.94,596.798,305.054,596.798,305.054z"/>
	<path fill-rule="evenodd" clip-rule="evenodd" fill="#5E2121" d="M592.431,306.144c0,0-24.752-20.016-50.592-44.402
		c-25.842-24.388-53.136-53.14-53.136-53.14s24.023,36.4,57.142,65.876C578.964,303.962,592.431,306.144,592.431,306.144z"/>
	<path fill-rule="evenodd" clip-rule="evenodd" fill="#5E2121" d="M609.54,291.951c0,0-11.938-18.764-46.589-45.13
		c-33.485-25.479-71.336-49.863-71.336-49.863s38.215,14.922,80.434,48.044C614.264,278.118,609.54,291.951,609.54,291.951z"/>
	<path fill-rule="evenodd" clip-rule="evenodd" fill="#5E2121" d="M610.269,280.668c0,0-4.375-13.103-32.761-35.666
		c-28.388-22.568-59.326-38.944-59.326-38.944s37.85,13.098,71.333,41.851C623.006,276.666,610.269,280.668,610.269,280.668z"/>
	<path fill-rule="evenodd" clip-rule="evenodd" fill="#5E2121" d="M423.557,234.444c0,0-21.472-28.754-45.137-41.855
		c-23.653-13.103-36.031-16.74-36.031-16.74s26.432,1.497,49.137,17.832C421.371,215.15,423.557,234.444,423.557,234.444z"/>
	<path fill-rule="evenodd" clip-rule="evenodd" fill="#9E4A39" d="M420.402,106.631c0,0,10.998-4.743,20.987-14.591
		c13.992-13.79,12.395-36.178,12.395-36.178s5.795,22.984-7.598,37.979C432.795,108.829,420.402,106.631,420.402,106.631z"/>
	<path fill-rule="evenodd" clip-rule="evenodd" fill="#9E4A39" d="M434.593,24.883c0,0-10.591-1.196-11.992,9.396
		c-1.397,10.595,5.196,13.39,5.196,13.39s-12.048-0.976-8.993-15.79C421.404,19.287,434.593,24.883,434.593,24.883z"/>
	<path fill-rule="evenodd" clip-rule="evenodd" fill="#9E4A39" d="M338.453,82.848c0,0-5.601,7.196-14.791,11.992
		c-6.839,3.567-21.387,8.597-21.387,8.597s14.393,0.999,26.981-7.997C341.849,86.444,338.453,82.848,338.453,82.848z"/>
	<path fill-rule="evenodd" clip-rule="evenodd" fill="#9E4A39" d="M505.191,270.05c0,0-19.634-27.488-54.187-53.401
		c-34.555-25.916-59.684-35.341-59.684-35.341s31.409,3.928,65.966,32.985C491.843,243.349,505.191,270.05,505.191,270.05z"/>
	<path fill-rule="evenodd" clip-rule="evenodd" fill="#9E4A39" d="M410.241,181.845c0,0,34.44,12.273,59.33,37.507
		c24.889,25.233,32.05,36.823,32.05,36.823s-9.735-25.066-33.756-45.69C429.335,177.414,410.241,181.845,410.241,181.845z"/>
	<path fill-rule="evenodd" clip-rule="evenodd" fill="#9E4A39" d="M435.473,185.257c0,0,21.821,9.544,41.258,30.004
		c19.434,20.458,22.161,25.574,22.161,25.574s-7.984-20.692-26.937-36.485C447.404,183.89,435.473,185.257,435.473,185.257z"/>
	<path fill-rule="evenodd" clip-rule="evenodd" fill="#5E2121" d="M578.682,304.936c0,0-21.821-14.661-39.212-31.028
		c-17.39-16.366-32.735-36.483-32.735-36.483s6.822,18.756,31.712,42.624C563.335,303.916,578.682,304.936,578.682,304.936z"/>
	<path fill-rule="evenodd" clip-rule="evenodd" fill="#5E2121" d="M540.833,330.849c0,0-20.117-31.026-37.846-50.801
		c-17.732-19.779-25.916-26.257-25.916-26.257s16.025,7.159,37.507,33.415C536.058,313.463,540.833,330.849,540.833,330.849z"/>
	<path fill-rule="evenodd" clip-rule="evenodd" fill="#5E2121" d="M597.779,251.407c0,0-25.055-22.349-46.035-35.464
		c-30.004-18.755-66.15-30.005-66.15-30.005s23.61-2.182,57.285,18.07C589.932,232.31,597.779,251.407,597.779,251.407z"/>
	<path fill-rule="evenodd" clip-rule="evenodd" fill="#5E2121" d="M427.554,292.458c0,0,29.664,31.7,41.452,47.957
		c11.788,16.255,13.008,36.985,13.008,36.985s-14.631-28.448-25.199-43.896C446.249,318.063,427.554,292.458,427.554,292.458z"/>
	<path fill-rule="evenodd" clip-rule="evenodd" fill="#5E2121" d="M434.462,259.536c0,0,22.35,17.074,41.861,39.425
		c19.507,22.352,31.701,49.585,31.701,49.585s2.44-20.728-24.386-49.994C464.388,277.553,434.462,259.536,434.462,259.536z"/>
	<path fill-rule="evenodd" clip-rule="evenodd" fill="#5E2121" d="M483.231,250.601c0,0-18.693-18.294-38.2-33.734
		c-19.511-15.444-39.018-26.01-39.018-26.01s12.599,12.191,36.172,30.48C465.755,239.623,483.231,250.601,483.231,250.601z"/>
	<path fill-rule="evenodd" clip-rule="evenodd" fill="#D59967" d="M335.703,227.84c0,0-20.322-3.659-41.858-4.878
		c-14.658-0.83-34.145,0.812-34.145,0.812s29.673,4.473,47.145,6.505C324.321,232.307,335.703,227.84,335.703,227.84z"/>
	<path fill-rule="evenodd" clip-rule="evenodd" fill="#D59967" d="M334.733,358.341c0,0-4.72,3.397-12.644,3.397
		c-7.932,0-11.892-1.7-11.892-1.7s2.075,8.499,13.024,7.363C334.166,366.27,334.733,358.341,334.733,358.341z"/>
	<path fill-rule="evenodd" clip-rule="evenodd" fill="#D59967" d="M280.592,369.406c-1.379-0.959-4.241-3.508-7.851-6.757
		c-3.607-3.248-6.945-7.72-6.945-7.72s0.216,5.372,0.216,8.621c0,3.25-0.535,8.94-0.535,8.94s2.575,4.593,5.464,6.759
		c2.885,2.166,5.769,2.166,5.769,2.166S278.786,374.09,280.592,369.406z"/>
	<path fill-rule="evenodd" clip-rule="evenodd" fill="#5E2121" d="M390.16,165.707c0,0-15.609-9.952-47.275-13.448
		c-28.572-3.151-40.547-0.84-40.547-0.84s9.365-6.744,40.34-2.729C383.225,153.943,390.16,165.707,390.16,165.707z"/>
	<path fill-rule="evenodd" clip-rule="evenodd" fill="#5E2121" d="M346.667,148.059c0,0,18.701,2.102,32.358,7.984
		c13.656,5.884,16.387,9.247,16.387,9.247s2.802-5.072-12.814-10.929C359.067,145.54,346.667,148.059,346.667,148.059z"/>
	<path fill-rule="evenodd" clip-rule="evenodd" fill="#5E2121" d="M397.937,165.076c0,0,1.046-2.94-4.625-6.722
		c-5.672-3.783-14.914-6.725-14.914-6.725s10.712,0.419,17.434,5.885C402.555,162.975,397.937,165.076,397.937,165.076z"/>
	<path fill-rule="evenodd" clip-rule="evenodd" fill="#5E2121" d="M364.557,135.149c0,0-18.709-7.073-37.42-6.843
		c-18.708,0.227-36.96,2.05-36.96,2.05s11.409-7.757,39.242-5.244C357.258,127.618,364.557,135.149,364.557,135.149z"/>
	<path fill-rule="evenodd" clip-rule="evenodd" fill="#5E2121" d="M355.888,134.467c0,0-13.693-4.337-27.15-4.792
		c-13.461-0.46-24.874,1.368-24.874,1.368s11.185,1.596,24.185,2.053C335.839,133.368,344.706,134.467,355.888,134.467z"/>
	<path fill-rule="evenodd" clip-rule="evenodd" fill="#5E2121" d="M323.719,122.83c0,0,13,1.365,25.324,4.562
		c12.321,3.195,18.481,7.3,18.481,7.3s-0.458-6.386-15.519-9.81C336.949,121.457,323.719,122.83,323.719,122.83z"/>
</g>
</svg>
