<?xml version="1.0" encoding="utf-8"?>
<!-- Generator: Adobe Illustrator 17.0.0, SVG Export Plug-In . SVG Version: 6.00 Build 0)  -->
<!DOCTYPE svg PUBLIC "-//W3C//DTD SVG 1.1//EN" "http://www.w3.org/Graphics/SVG/1.1/DTD/svg11.dtd">
<svg version="1.1" id="Layer_1" xmlns="http://www.w3.org/2000/svg" xmlns:xlink="http://www.w3.org/1999/xlink" x="0px" y="0px"
	 width="173.5px" height="214.5px" viewBox="0 0 173.5 214.5" enable-background="new 0 0 173.5 214.5" xml:space="preserve">
<g>
	<path fill="#4A007D" d="M94.61,36.359c0,0,5.882-6.469,13.524-6.271l0.786,4.506l0.783,0.396c0,0,9.017,8.621,9.605,12.149
		c0,0,2.94,18.032,0.392,28.025c0,0-1.179,7.054-5.685,8.231l3.527,14.109l-7.642,0.198l-13.13-0.979l-18.034,0.781l1.766-10.971
		l0.393-2.156c0,0-9.801-5.094-9.801-7.449c0,0-2.937-6.861,5.878-7.64c0,0,2.55,2.349,6.469,2.349c0,0-3.527-12.348,5.098-25.087
		C88.538,46.549,91.084,37.342,94.61,36.359z"/>
	<path d="M109.9,97.701l-13.13-0.979l-16.859,0.73c-0.043,2.51-0.47,38.116,8.04,60.416l18.029,0.786l1.761-23.124l7.057,23.124
		c0,0,0-27.634,1.374-29.789c0,0,7.443-18.9,0.118-31.326L109.9,97.701z"/>
	<path fill="#FDCC8A" d="M94.61,203.734c0,0,4.23-3.26,7.658-3.433c-0.066-0.162-0.131-0.326-0.208-0.486
		c0,0-3.531-8.824-2.744-10.98c0,0,6.022-22.258,3.097-30.334l-14.131-0.616c-0.14,3.87-0.364,15.021,1.234,22.526
		c0,0,1.372,20.184-2.351,26.458l-0.98,1.172C86.185,208.04,90.102,208.633,94.61,203.734z"/>
	<path d="M82.656,212.942c0,0,7.054,1.372,10.582,1.177l5.683-5.686l0.198,6.076l1.374-0.196l2.545-8.426
		c0,0,0.351-2.799-0.769-5.587c-3.428,0.172-7.658,3.433-7.658,3.433c-4.508,4.899-8.426,4.306-8.426,4.306
		S80.696,210.397,82.656,212.942z"/>
	<path fill="#FDCC8A" d="M109.036,201.766c0.13-0.911,0.081-1.368,0.081-1.368c-1.571-7.25,0.783-15.089,0.783-15.089
		c4.898-12.74,5.092-25.282,5.092-25.282l-0.189-3.158c-0.006,1.126-0.006,1.785-0.006,1.785l-7.057-23.124l-1.761,23.124
		l-3.567-0.153c1.643,4.542,0.458,13.58-0.896,20.613c1.956,5.147,0.152,10.899,0.152,10.899l-1.836,3.211
		c0.84,3.12,2.228,6.591,2.228,6.591c0.261,0.559,0.458,1.125,0.604,1.677C104.239,201.037,107.385,201.483,109.036,201.766z"/>
	<path d="M103.082,205.264c1.917,2.04,1.917,9.051,1.917,9.051h1.177c-0.592-2.551,1.761-8.622,1.761-8.622
		c0.675-1.739,0.97-3.043,1.098-3.926c-1.651-0.283-4.797-0.73-6.371-0.274C103.082,203.051,103.108,204.482,103.082,205.264z"/>
	<path fill="#FDCC8A" d="M74.144,69.856c0.772-0.27,1.701-0.47,2.828-0.569c0,0,2.55,2.349,6.469,2.349c0,0-0.65-2.287-0.709-5.898
		l-2.035-1.747c0,0-8.233-0.783-6.859,3.726L74.144,69.856z"/>
	<path fill="#FDCC8A" d="M106.958,21.856c2.354-5.684-3.528-3.528-3.528-3.528l-0.976,2.551h-1.375l-0.587-3.923l-1.963-6.271
		l-1.957-0.587l-2.937-0.588c-7.256-0.98-8.041,9.017-8.041,9.017l0.393,1.567c0,0,0.395,7.645,1.375,9.21l0.193,1.765l1.178,0.393
		l3.723,0.39c0,0,1.276,2.027,1.947,4.585c0.072-0.032,0.14-0.055,0.208-0.076c0,0,5.287-5.808,12.348-6.245v-2.769
		c0,0,0.053-0.029,0.134-0.077l-0.915-3.058L106.958,21.856z"/>
	<path d="M111.077,20.681c0,0,9.796-8.624,0.389-14.895h-2.937c0,0-12.153-7.252-21.167,2.35c0,0-5.686,5.684-1.768,10.39
		c0,0,0.786-9.997,8.041-9.017l2.937,0.588l1.957,0.587l1.963,6.271l0.587,3.923h1.375l0.976-2.551c0,0,5.882-2.155,3.528,3.528
		l-0.781,2.354l0.915,3.058C107.782,26.862,111.077,24.718,111.077,20.681z"/>
</g>
</svg>
