<?xml version="1.0" encoding="utf-8"?>
<!-- Generator: Adobe Illustrator 17.0.0, SVG Export Plug-In . SVG Version: 6.00 Build 0)  -->
<!DOCTYPE svg PUBLIC "-//W3C//DTD SVG 1.1//EN" "http://www.w3.org/Graphics/SVG/1.1/DTD/svg11.dtd">
<svg version="1.1" id="Layer_1" xmlns="http://www.w3.org/2000/svg" xmlns:xlink="http://www.w3.org/1999/xlink" x="0px" y="0px"
	 width="800px" height="600px" viewBox="0 0 800 600" enable-background="new 0 0 800 600" xml:space="preserve">
<g>
	<path d="M258.115,281.511c6.193-12.238,12.301-22.771,20.842-33.567c-16.663,3.791-26.455-1.517-31.355-9.965
		c-5.578-9.613-6.837-22.782,0.969-31.113c9.923-10.593,25.146-7.425,35.309,0.838c7.97-50.268,53.252-114.866,125.178-110.18
		c12.312-15.901,33.38-15.944,48.336-11.304c32.344,10.025,64.533,35.784,83.224,62.616c21.187,30.416,19.819,78.471,20.833,94.322
		c25.922,7.705,30.197,51.443-1.034,49.76c3.559,11.4,15.479,54.378,17.26,66.868c3.536,24.803,3.282,55.113-6.793,78.602
		c-10.26,23.933-27.248,37.624-51.846,47.266c-12.562,4.927-36.9,9.087-60.39,2.597c1.26,25.716-45.195,34.591-63.367,24.203
		c-9.548-5.457-14.227-13.901-16.045-24.342c-19.078,5.034-44.163,2.661-55.107-0.206c-45.256-11.865-72.797-49.202-81.64-90.503
		C234.308,359.196,240.674,315.994,258.115,281.511z"/>
	<path fill="#EDC7A1" d="M255.929,216.692c-4.711,6.863,0.27,32.374,33.421,18.182c-1.813-3.883-1.14-8.533,0.307-12.902
		C284.134,217.154,265.275,203.1,255.929,216.692z"/>
	<path fill="#6E3A1E" d="M292.214,215.694c0.064-0.132,0.132-0.281,0.199-0.423c5.151-10.856,12.951-20.928,20.984-29.883
		c20.189-22.505,48.299-41.212,78.949-46.349c-8.027-1.286-16.864,2.337-24.305,4.64c-12.098,3.744-23.821,8.796-34.322,15.798
		c-9.672,6.458-18.007,14.792-25.491,23.525c-7.832,9.137-12.746,18.995-16.754,30.015
		C291.787,213.903,292.048,214.806,292.214,215.694z"/>
	<path fill="#874723" d="M538.661,162.897c-10.983-21.631-36.621-44.104-60.267-56.481c-23.648-12.377-49.783-20.221-64.576,3.393
		c-41.514-11.393-108.755,24.899-122.109,95.508c3.684-8.608,8.227-16.395,14.538-23.968c8.406-10.093,18.344-19.176,29.537-26.267
		c10.934-6.931,23.41-11.435,35.799-15.144c5.138-1.542,10.692-3.311,16.166-3.595c-12.046-2.597-29.246-1.19-25.575-2.451
		c17.766-6.1,32.703-6.853,47.951-2.448c13.54,3.911,21.589,8.444,32.579,16.757c10.575,8.004,23.966,21.816,29.965,26.082
		c3.21,2.277,7.433,5.265,12.829,7.986c-5.537-4.877-9.712-11.528-13.715-17.332c-7.022-10.185-15.962-17.865-25.623-25.645
		c-11.292-9.091-28.923-17.947-43.997-18.469c-1.666-0.057,2.835-1.883,4.5-1.623c12.367,1.936,20.967,4.213,30.02,10.085
		c10.292,6.668,20.67,14.785,29.095,23.617c6.928,7.268,11.516,16.359,18.079,23.933c4.942,5.702,10.806,8.767,18.188,10.526
		c3.252,0.778,6.217,0.977,9.069,0.817c-9.637-3.041-16.439-10.483-23.387-19.169c-10.989-13.744-24.954-35.12-42.45-41.543
		c-1.577-0.575,2.411-0.377,3.981,0.199c14.464,5.311,24.278,19.173,33.271,30.676c9.822,12.558,19.064,27.294,36.006,28.633
		c2.434-0.6,4.888-1.354,7.475-2.167c1.607-0.821,2.957-1.602,4.074-2.171c5.677-2.895,3.104,3.261-2.504,8.661
		c-1.949,11.766-2.189,23.819,2.84,34.875c3.587,7.89,10.658,18.562,20.297,18.572c0.559-0.22,1.058-0.508,1.475-0.87
		C553.18,230.387,549.649,184.524,538.661,162.897z"/>
	<path d="M517.427,197.651c1.922,24.977,12.115,38.8,21.208,44.466c-3.412-3.02-6.243-6.97-8.466-10.789
		c-6.743-11.556-7.402-24.562-5.643-37.432C522.335,195.541,519.911,196.93,517.427,197.651z"/>
	<path fill="#EDC7A1" d="M255.431,400.376c10.317,40.576,40.48,68.346,73.163,77.178c21.443,5.79,41.133,2.707,50.697-0.568
		c1.847-5.698,11.76-15.382,10.879-10.878c-4.071,20.814,4.661,38.804,21.803,40.157c12.597,0.384,35.256-5.773,35.619-19.986
		c0.316-12.394-11.274-20.917-15.616-24.579c-5.608-4.725,13.935-1.03,23.826,14.732c55.284,7.162,97.758-23.113,105.192-53.348
		c5.48-22.274,6.698-48.786,2.781-71.149c-4.015-22.928-13.427-58.243-17.081-70.676c6.093,1.993,21.391,5.947,24.205-4.917
		c2.81-10.864-7.098-24.587-14.111-23.116c-7.008,1.474-5.409,6.48-3.072,11.045c1.507,2.945-11.552,2.057-9.327-10.895
		c-4.666-0.181-35.85-13.24-33.908-55.77c-10.504-0.355-20.653-3.673-29.935-8.576c-24.269-12.828-45.976-36.48-72.256-45.671
		c-17.714,6.071-49.407,24.839-77.176,55.618c-16.056,17.794-42.976,52.765-55.3,71.284
		C250.466,308.367,244.316,356.656,255.431,400.376z"/>
	<path fill="#E3AA84" d="M411.974,506.265c-15.367-1.211-23.943-15.805-22.627-33.812c0.62-0.469,1.336-0.839,2.193-1.041
		c5.06-1.215,10.437,1.915,14.156,5.076c6.026,5.123,10.768,11.986,12.616,19.78c0.867,3.659,0.615,7.08-0.617,9.766
		C415.656,506.233,413.713,506.322,411.974,506.265z"/>
	<path fill="#E3AA84" d="M422.884,505.267c-0.67,0.128-1.343,0.252-2.006,0.359c0.722-2.178,0.887-4.743,0.314-7.68
		c-2.185-11.183-9.761-23.091-20.6-27.645c-2.885-1.208-5.39-1.613-7.528-1.378C409.525,461.799,429.818,490.364,422.884,505.267z"
		/>
	<path fill="#E3AA84" d="M523.207,424.345c9.087-10.601,19.03-20.69,30.498-28.736c2.068-1.446,7.381-5.854,12.209-8.384
		c-0.483,12.316-2.156,24.622-4.919,35.859c-5.399,21.961-29.294,43.926-63.148,51.568c-6.343-6.668,1.684-18.743,6.196-25.159
		C510.097,440.889,516.359,432.338,523.207,424.345z"/>
	<path fill="#E3AA84" d="M494.724,475.323c-1.479,0.291-2.978,0.551-4.49,0.785c-7.08-12.366,7.715-39.862,16.23-49.973
		c11.849-14.078,26.078-26.057,42.205-34.96c4.998-2.76,10.944-6.185,16.799-6.59c-3.085,1.78-24.732,14.583-44.798,37.805
		c-8.66,10.025-19.059,22.914-25.384,34.647C492.362,462.47,489.25,470.236,494.724,475.323z"/>
	<path fill="#E3AA84" d="M429.462,190.507c2.001-2.65,8.149-8.48,10.444-2.888c0.312,0.76,0.586,1.535,0.859,2.305
		c-0.645,0.036-1.269,0.558-1.207,1.325c0.069,0.895,0.15,1.794,0.288,2.679c-0.025,0.11-0.064,0.22-0.056,0.33
		c0.119,1.588,0.234,3.158-0.1,4.729c-0.324,1.538,2.001,2,2.404,0.554c0.115,0.114,0.248,0.196,0.401,0.245
		c0.409,0.448,1.113,0.533,1.604,0.27c0.762,1.901,1.725,3.695,3.167,5.261c7.367,8.007,17.659,17.059,28.592,20.647
		c-10.125,7.492-25.51,7.947-36.587,2.323C425.641,221.367,419.713,203.409,429.462,190.507z"/>
	<path fill="#E3AA84" d="M359.142,207.168c2.823,0.107,5.639,0.316,8.458,0.536c4.802,0.369,9.703,0.959,14.529,0.806
		c5.508-0.174,11.052-2.295,15.237-5.855c0.507,0.121,1.091-0.011,1.429-0.579c0.41-0.675,0.806-1.385,1.202-2.089
		c1.181-1.432,2.165-3.016,2.901-4.743c0.331-0.462,0.661-0.931,1.029-1.357c6.447-7.464,8.689,6.789,7.622,10.448
		c-2.545,8.725-8.651,15.062-17.283,17.876c-13.133,4.281-30.57,3.218-37.862-10.473
		C354.386,207.957,355.776,207.047,359.142,207.168z"/>
	<path fill="#E3AA84" d="M405.127,154.019c-21.05,13.577-55.633,33.649-72.76,43.614c27.467-29.965,58.475-48.292,75.924-54.275
		c23.98,8.387,44.16,28.793,65.945,42.051C473.107,184.862,438.749,171.117,405.127,154.019z"/>
	<path fill="#E3AA84" d="M555.668,271.386c1.831,2.991,4.168,7.528,5.595,12.153c-4.073,0.341-8.59-0.558-11.959-1.492
		c-1.502-3.673-2.442-7.663-1.592-10.906C549.331,264.967,553.202,267.358,555.668,271.386z"/>
	<path fill="#E3AA84" d="M348.616,288.708c17.496,6.842,35.995,11.364,54.708,13.176c16.473,1.599,33.75,1.99,50.044-1.449
		c8.469-1.783,16.802-4.568,23.59-9.57c-2.815,5.361-5.919,10.601-10.201,14.817c-6.422,6.334-14.816,10.387-23.5,12.661
		c-16.745,4.38-33.811,3.123-50.646-0.114c-18.077-3.474-33.823-9.787-48.403-21.098c-10.587-8.213-24.971-19.148-23.261-33.706
		C325.43,275.681,336.462,283.951,348.616,288.708z"/>
	<path fill="#E3AA84" d="M532.239,247.687c-8.796-1.734-16.463-7.687-21.347-16.018c-6.458-11.009-6.825-22.558-6.524-34.64
		c2.024,0.288,4.062,0.511,6.114,0.575C509.222,225.197,521.9,240.369,532.239,247.687z"/>
	<path fill="#E3AA84" d="M303.84,466.85c-1.736-3.524-3-7.311-2.931-11.272c0.037-2.124,0.096-5.201,1.312-7.112
		c2.733-4.299,5.859-0.405,8.272,1.719c4.686,4.124,9.711,7.858,15.437,10.448c23.621,10.689,38.636-0.156,38.806,0.028
		c3.257,3.542,0.333,9.574-1.223,12.05c-1.976,3.144-3.945,5.78-6.606,8.011c-8.462,0.306-18.184-0.437-28.312-3.169
		C320.065,475.245,311.718,471.628,303.84,466.85z"/>
	<path d="M378.064,173.469c6.95-6.839,15.159-3.35,16.427,5.783c0.226,1.631-0.632,3.933-0.856,2.316
		c-0.744-5.375-4.667-11.737-11.317-8.331c-3.406,1.741-6.127,6.434-7.993,9.46c-3.919,6.348-6.763,13.983-6.705,21.436
		c0.011,1.634-1.637-1.886-1.442-3.52C367.346,190.741,370.11,181.302,378.064,173.469z"/>
	<path d="M364.134,233.105c17.475,0.629,32.857,9.62,21.301,8.22c-27.818-3.382-51.503,3.08-55.793,11.741
		c-5.894,11.901,4.64,22.377,16.286,28.942c-1.529-1.819-2.401-4.341-2.161-6.181c0.867-6.654,13.802,1.116,15.989,2.313
		c17.551,9.645,8.51,12.693,7.908,12.842c23.184,7.492,47.317,9.197,71.184,5.734c0.067-0.075,0.139-0.135,0.226-0.195
		c-2.331-0.728-3.447-1.652-4.961-3.482c-1.968-2.384-1.761-5.4,0.062-7.378c2.425-2.629,7.607-4.011,11.018-4.529
		c4.799-0.739,15.617-0.38,14.224,7.091c-0.334,1.798-1.823,4.032-3.167,5.364c8.849-2.306,19.133-6.394,24.302-13.311
		c7.525-12.348-18.243-24.761-39.452-31.802c-3.676-1.222,4.542-3.435,17.354-0.941c15.471,3.02,34.974,17.418,32.779,30.992
		c-1.225,14.576-19.43,21.855-32.122,24.949c-43.401,10.576-89.849-0.476-108.488-8.999c-14.803-6.775-32.124-16.078-32.989-33.738
		C316.517,237.918,346.893,232.486,364.134,233.105z"/>
	<path fill="#E3AA84" d="M457.34,288.587c1.638-6.061-9.433-5.648-12.805-5.091c-6.238,1.027-12.712,4.395-7.912,9.347
		c3.054,3.151,7.966,3.552,12.209,2.75C453.074,294.786,456.193,292.847,457.34,288.587z"/>
	<path fill="#E3AA84" d="M345.877,275.478c-2.16,2.398,2.416,7.169,7.062,10.086c4.643,2.92,13.261,5.531,15.399,2.686
		C370.589,285.255,348.041,273.07,345.877,275.478z"/>
	<path d="M267.186,321.394c3.823-16.81,11.436-30.452,25.478-48.09c17.354,14.832,45.952,28.399,68.77,35.319
		c22.824,6.924,80.803,17.833,119.576,10.91c11.938-2.135-2.095,9.62-24.112,11.428c5.052,67.32-47.847,134.454-119.077,113.15
		c-32.643-9.773-54.212-30.985-65.556-61.991C265.909,364.752,263.081,339.462,267.186,321.394z"/>
	<path fill="#FFFFFF" d="M447.032,330.823c-24.823,0.121-104.716-7.173-153.493-46.15c-3.263,3.417-10.538,15.794-13.248,22.704
		c41.851,48.825,126.748,65.33,163.651,62.321C446.094,361.644,448.278,341.764,447.032,330.823z"/>
	<path fill="#FFFFFF" d="M355.925,437.912c23.531,3.073,45.684-7.727,62.087-24.391c-40.751-1.233-81.066-11.46-121.91-9.009
		C310.79,422.377,331.638,434.747,355.925,437.912z"/>
	<path fill="#6E3A1E" d="M291.701,233.826c0.12-0.057,0.231-0.103,0.352-0.156c16.796-29.457,41.557-62.659,96.051-91.292
		c-25.689,5.538-48.717,20.743-67.079,38.768c-8.078,7.926-15.119,16.8-21.184,26.267c-2.201,3.435-5.646,8.799-7.625,14.224
		c-0.061,0.21-0.132,0.398-0.207,0.561C290.575,226.358,290.059,230.511,291.701,233.826z"/>
	<path d="M434.289,185.984c2.723-2.316,8.229-0.696,8.101,3.204c-0.126,3.584-1.937,4.217-0.093,8.029
		c3.441,6.004,17.315,18.128,31.006,25.4c0.308-9.059-2.302-18.682-5.594-26.96c-1.704-4.277-4.135-9.258-8.326-11.72
		c-5.189-3.044-10.018,3.066-12.613,6.654c-0.977,1.347-0.036-1.687,0.934-3.02c2.732-3.78,5.23-7.364,9.698-6.91
		c4.917,0.501,7.946,4.863,10.212,8.789c5.632,9.73,8.88,23.148,8.233,34.455c1.556,0.753,3.107,1.46,4.629,2.057
		c5.408,2.117-5.688,2.174-17.33-1.659c-11.64-3.837-25.958-12.977-30.448-23.901C430.967,196.187,430.292,189.377,434.289,185.984z
		"/>
	<path d="M367.363,211.591c-8.326-0.991-14.84-4.522-11.495-4.465c14.222,0.245,27.79-2.906,34.874-7.29
		c4.666-2.888,5.823-9.663,6.519-12.537c0.696-2.881,12.246-1.688,11.673,2.817c-0.569,4.498-1.652,8.295-8.985,14.21
		C392.612,210.241,375.686,212.585,367.363,211.591z"/>
	<path d="M364.803,212.941c12.834,1.35,35.029-1.062,42.826-13.634c0.866-1.4-0.309,3.524-1.368,4.807
		c-8.313,10.043-23.187,12.281-37.444,10.778C367.14,214.717,363.134,212.77,364.803,212.941z"/>
	<path d="M431.288,203.733c4.921,9.29,13.26,15.588,22.858,19.954c1.528,0.689-0.957,0.945-2.487,0.249
		c-9.959-4.522-15.381-7.954-20.487-17.603C430.406,204.891,430.519,202.273,431.288,203.733z"/>
	<path d="M307.702,446.69c16.203,14.903,33.906,22.423,56.372,13.475c4.708-1.872-2.266,5.851-6.974,7.631
		c-22.877,8.661-34.973,0.025-44.754-11.233C309.093,452.811,304.02,443.301,307.702,446.69z"/>
	<path fill="#F1D3B2" d="M372.756,251.176c-13.337-3.471-26.322-3.666-32.691,1.705c-7.857,6.625,11.908,13.727,31.116,16.59
		c19.208,2.863,30.905,3.318,32.233-0.583C404.744,264.992,389.641,255.574,372.756,251.176z"/>
	<path fill="#F1D3B2" d="M355.063,218.632c-5.078-3.979-17.464-4.895-22.34-1.261C327.847,220.998,358.528,221.353,355.063,218.632z
		"/>
	<path fill="#F1D3B2" d="M466.927,234.167c2.202-1.322,27.857-8.114,28.937-1.14C496.943,239.993,463.298,236.344,466.927,234.167z"
		/>
	<path fill="#F1D3B2" d="M277.07,216.77c-4.457-3.435-12.862-4.981-17.674-0.54c-6.045,5.577-2.284,12.654,2.219,11.222
		C266.119,226.021,279.954,218.983,277.07,216.77z"/>
	<path fill="#F1D3B2" d="M339.574,447.404c-8.642-3.712-29.684-5.034-18.17,3.57c11.513,8.608,19.561,10.97,27.879,9.791
		C357.601,459.578,351.354,452.463,339.574,447.404z"/>
	<path fill="#A05B28" d="M473.551,114.16c-11.206-5.13-23.246-9.649-35.784-8.327c-5.269,0.551-10.448,1.67-15.443,3.311
		c2.132-3.307,6.569-8.984,12.423-9.929c8.335-1.346,19.363-4.305,53.997,16.238c23.982,14.228,36.023,31.049,41.165,40.061
		C514.108,138.168,494.955,123.965,473.551,114.16z"/>
	<path fill="#A05B28" d="M439.829,108.171c12.961-0.501,25.182,4.398,36.593,10.135c20.956,10.537,39.524,24.775,54.794,42.473
		c-6.043-3.769-26.882-16.466-62.802-35.322c-19.088-10.018-40.749-13.13-46.188-13.784
		C427.932,109.66,433.902,108.402,439.829,108.171z"/>
	<path fill="#A05B28" d="M394.192,111.478c0,0-31.731-1.073-62.603,27.326c-30.872,28.395-27.43,36.573-27.43,36.573
		s25.279-27.969,49.91-46.04C376.069,113.191,394.192,111.478,394.192,111.478z"/>
</g>
</svg>
