<?xml version="1.0" encoding="utf-8"?>
<!-- Generator: Adobe Illustrator 17.0.0, SVG Export Plug-In . SVG Version: 6.00 Build 0)  -->
<!DOCTYPE svg PUBLIC "-//W3C//DTD SVG 1.1//EN" "http://www.w3.org/Graphics/SVG/1.1/DTD/svg11.dtd">
<svg version="1.1" id="Layer_1" xmlns="http://www.w3.org/2000/svg" xmlns:xlink="http://www.w3.org/1999/xlink" x="0px" y="0px"
	 width="800px" height="600px" viewBox="0 0 800 600" enable-background="new 0 0 800 600" xml:space="preserve">
<g>
	<path d="M581.86,295.088c1.925-19.348-0.596-38.449-6.8-52.961c-11.542-26.986-29.754-50.768-51.656-66.85
		c-5.84-4.205-9.502-3.939-17.662-12.339c-8.164-8.402-26.669-13.618-39.582-9.504c-16.002-7.909-33.597-9.731-49.481,2.791
		c-5.838-3.274-16.719-4.869-31.982-3.071c-12.689,1.501-35.939,10.011-53.859,22.622c-17.924,12.613-33.686,25.362-44.583,38.741
		c-10.903,13.386-19.378,25.687-29.655,48.013c-7.544,16.39-14.017,49.441-12.673,54.478c13.401,16.025,29.455,25.59,44.633,29.882
		c16.524,4.668,28.174,5.027,39.668,1.858c6.582,10.303,13.386,18.066,20.574,27.302c-0.275,8.566-2.703,27.071-2.818,27.84
		c6.747,28.45,29.379,40.905,57.876,38.108c14.489-1.424,31.636-3.994,44.724-11.879c8.028-4.84,14.344-11.512,20.178-18.879
		c-1.713-6.098-9.109-32.56-22.02-40.731c5.122-4.59,27.999-30.257,30.657-35.627c10.221,10.11,26.191,18.186,36.651,21.971
		c11.589,4.195,23.882,7.426,34.529,10.264c0,0,8.66-7.71,17.991-24.306C575.896,326.202,580.203,311.724,581.86,295.088z"/>
	<path fill="#8E4C1B" d="M525.459,181.765c21.474,17.498,44.938,53.129,49.161,72.363c4.23,19.232,6.017,37.347,0.124,57.862
		c-7.814,27.148-25.363,50.482-26.839,51.1c-17.638-2.461-27.499-8.824-27.499-8.824c25.284-24.918,28.9-68.436,22.648-100.872
		c-0.698-0.513-1.213,0.258-1.818,0.389c2.432,21.415,2.355,46.958-4.138,65.487c-6.495,18.528-11.344,25.667-19.409,34.503
		c-0.787-0.233-4.501-0.84-4.426-2.053c8.757-10.368,13.494-24.403,15.983-38.497c4.668-32.894,5.503-67.241-13.717-95.188
		c-3.509-4.438-9.688-7.51-15.149-6.351c-1.719,1.033-4.658,2.323-3.6,4.487l0.881,1.807c1.901-1.6,4.387-4.254,7.176-3.12
		c12.436,4.931,18.217,21.782,21.098,34.992c5.124,31.485,6.311,69.517-14.778,98.458c-6.642,4.211-26.346-13.102-30.373-17.697
		c8.741-12.224,15.852-28,18.757-43.508c0,0,2.132,21.669-0.607,41.209c1.79-3.175,3.494-6.992,4.068-10.838
		c1.3-8.863,1.327-20.675,0.901-27.839c-0.435-7.167-3.244-20.044-6.406-29.872c-5.652-17.569-13.812-34.82-20.296-52.192
		c3.887-1.617,9.561,0.771,12.148,1.039c-3.613-6.942-15.049-5.607-21.202-4.96c-14.461,1.874-30.172,7.286-44.452,10.455
		c-2.631-4.209-0.755-13.725-0.755-13.725c-3.046-1.221-4.748,4.755-4.874,7.534c-12.95-3.232-25.742,1.619-38.489,1.531
		c-6.311-8.356-14.182-16.259-25.634-16.879c-13.453-1.532-23.746,12.09-29.99,22.592c13.654-5.826,28.84-14.906,43.728-7.7
		c-12.065,3.41-36.503,9.988-46.993,20.46c4.216,0.319,7.67-2.6,10.873-3.519c-5.051,7.455-8.226,17.823-9.105,26.008
		c-1.994,0.024-4.643-0.631-4.513-3.97c0.131-3.339,3.655-4.173,3.655-4.173s0.221-3.215-0.295-3.647
		c-4.837,1.183-6.723,7.818-6.287,10.707c0.44,2.885,3.518,4.988,3.518,4.988s-3.834,1.298-6.487-0.805
		c-2.65-2.104,1.426-6.526,1.426-6.526l-0.604-2.613c-2.342,0.229-4.51,2.412-5.215,6.52c-0.45,2.639,0.257,5.522,2.483,6.743
		c2.221,1.223,5.598,0.489,5.598,0.489c-3.691,4.771-5.731,9.232-7.626,15.611c0.605,3.189,1.79,6.167,3.074,8.24
		c-0.362,20.632,4.461,41.865,14.043,62.777c0,0-19.884,3.268-36.805-3.319c-27.53-10.715-40.374-27.44-40.374-27.44
		c2.131-8.794,5.484-30.452,12.734-47.733c7.245-17.271,18.022-32.984,27.397-44.769c9.378-11.79,21.712-23.523,31.15-30.866
		c18.652-14.514,46.852-30.819,69.357-32.824c9.563-0.856,18.872-0.564,26.624,3.899c15.53-11.09,38.356-11.084,49.616-3.396
		c12.908-4.801,30.878,0.365,39.272,8.725C512.592,175.377,518.728,175.74,525.459,181.765z"/>
	<path d="M467.189,181.114c1.6,2.519,1.793,6.272,1.793,6.272s-5.191-1.146-11.219-0.639c-6.025,0.513-17.979,5.386-25.622,13.918
		c2.923-12.719,15.759-19.863,26.249-23.395C462.91,175.755,465.59,178.594,467.189,181.114z"/>
	<path fill="#FFFFFF" d="M465.608,184.717c-4.753-3.083-17.173,0.562-26.111,7.077c6.284-8.804,19.254-12.4,21.669-11.96
		C463.584,180.282,465.608,184.717,465.608,184.717z"/>
	<path fill="#F1D6B6" d="M498.743,274.515c-4.905-14.254-18.301-51.652-25.432-66.947c-15.3,3.596-37.976,8.325-53.462,12.682
		c-1.265-2.594-2.381-5.706-2.953-8.917c-14.253-3.621-26.291,4.069-39.917,3.112c-2.354-1.18-7.433-4.148-7.433-4.148
		s-22.869,7.021-32.376,11.999c-7.359,6.264-12.198,20.963-10.857,26c0,0,2.9-2.637,5.63-3.694
		c-0.964-1.984-1.994-5.483-0.281-8.351c1.719-2.868,5.307-4.615,7.399-3.992c-0.04,1.864-0.761,3.146-0.761,3.146
		s-3.908-0.221-4.301,3.422c-0.386,3.637,2.083,2.86,4.032,2.692c1.949-0.17,3.89-0.905,5.378-2.049
		c-3.959-4.469,1.099-11.039,5.671-12.492c1.634,0.402,2.242,2.059,2.242,2.059s-12.198,4.739-3.673,9.534
		c2.472-0.59,4.629-0.887,7.581-0.947c0,0-2.82-3.28-0.588-7.311c2.232-4.027,7.606-4.12,7.606-4.12
		c0.177,2.308-0.394,3.639-0.394,3.639s-10.899,0.704-1.892,8.382c12.564,0.98,31.983,8.887,38.577,20.111
		c-9.147,15.504-22.127,28.637-38.801,36.966c-15.972,7.919-34.317,1.848-45.519-10.128c0.263,18.531,6.266,41.025,12.39,52.819
		c6.129,11.788,12.537,19.218,20.193,28.426c7.286,8.769,15.633,15.449,31.821,21.024c8.826,3.041,23.033,2.86,33.439-1.217
		c11.231-4.402,23.544-11.343,39.145-27.379c11.119-11.427,22.563-25.188,29.997-37.548
		C488.639,308.919,496.04,292.711,498.743,274.515z M362.357,343.099c-0.231-0.905,0.797-2.933,1.573-3.635
		c8.447,3.676,13.683,6.619,27.857,6.956c14.174,0.321,31.678-10.558,38.489-15.472c6.811-4.911,10.521-10.421,8.757-14.035
		c5.193-1.337,4.498,5.735,3.425,7.976c-2.635,5.508-19.113,16.425-26.704,19.738c-7.592,3.313-13.303,5.388-20.787,5.996
		C386.292,351.321,369.089,349.392,362.357,343.099z"/>
	<path fill="#FFFFFF" d="M376.061,209.456c-7.299-5.169-13.66-7.893-23.211-7.733c-7.105,0.122-21.304,7.175-21.304,7.175
		c2.213-4.584,9.166-10.642,14.989-12.256C354.465,194.454,364.711,194.914,376.061,209.456z"/>
	<path d="M464.971,235.298c-0.656,2.751-3.118,4.763-5.834,6.7c1.387,0.211,3.248,0.623,4.029,0.854
		c3.299-1.761,6.951-7.057,4.622-11.516c0.427-0.495,1.574-1.489,2.182-1.623c1.101,3.073,1.582,5.483,0.416,8.155
		c-1.172,2.668-2.354,4.1-4.364,5.558c1.462-0.043,3.387-0.481,5.486-2.558c1.338-1.312,1.677-4.16,1.894-5.948
		c0.589,0.4,1.502,1.308,1.482,2.225c-0.038,1.655-0.795,3.736-2.056,5.221c-1.255,1.473-2.137,1.895-4.31,2.418
		c1.147,0.963,3.857,1.012,5.563-0.065c1.704-1.065,2.326-2.611,3.003-4.591c0.362,1.653,0.285,3.716-1.262,5.526
		c-1.547,1.797-3.69,1.923-3.69,1.923c6.791,4.633,15.212,13.792,15.362,24.505c-3.576,8.205-28.909,26.896-50.235,26.275
		c-12.222-0.359-29.389-19.922-34.823-35.71c3.387-4.662,13.509-15.159,26.753-19.894c6.622-4.28,13.948-10.169,13.951-15.985
		c2.085,0.621,2.967,1.629,3.133,2.808c0.711,4.978-6.869,9.078-10.23,11.788c2.997-0.467,6.118-0.568,8.268-0.544
		c2.596-4.676,7.39-3.708,9.766-7.047c2.309-3.235-0.246-5.09-0.595-5.812l3.571-1.002c1.286,2.637,1.574,5.061-0.72,8.232
		c-2.619,3.617-6.776,2.491-8.072,5.789c2.433-0.057,5.554,0.258,7.678,0.542c3.99-1.848,9.225-4.824,4.826-12.005l2.316-1.647
		C464.177,229.113,465.731,232.093,464.971,235.298z"/>
	<path fill="#FFFFFF" d="M483.369,270.866c-5.234,7.096-14.41,14.216-22.835,17.618c3.156-5.854,4.244-13.806,2.017-21.415
		c-2.223-7.603-8.876-15.396-21.376-16.861c-12.504-1.465-24.476,7.161-30.321,19.062c-1.057-2.164-3.95-5.52-3.986-6.921
		c11.085-11.055,22.935-18.098,38.595-17.476c19.983,0.799,26.54,6.404,30.929,11.258
		C480.781,260.987,482.463,265.316,483.369,270.866z"/>
	<path fill="#B8D4B4" d="M455.76,288.299c-3.163,4.933-8.632,4.236-13.049,4.775c4.312-3.045,7.166-8.881,7.246-14.837
		c0.108-8.518-4.682-16.496-15.058-17.139c-12.088-0.755-19.129,14.705-19.129,14.705c-1.211,0.256-2.629-2.876-2.555-4.09
		c3.136-8.64,9.94-15.033,18.851-17.32c10.212-2.844,21.804,3.315,25.984,11.619C462.235,274.31,458.241,283.789,455.76,288.299z"/>
	<path fill="#FFFFFF" d="M393.345,258.638c-5.982,10.579-14.145,19.89-24.844,26.281c2.613-8.796,3.565-17.009-3.47-25.18
		c-7.03-8.177-19.295-8.857-30.861-4.179c-11.569,4.672-19.752,15.808-16.598,26.421c-1.317-2.248-5.865-7.455-5.023-10.287
		c3.335-16.003,23.77-26.259,30.065-27.669c6.291-1.402,14.333-3.315,20.854-1.373C374.683,245.982,385.126,250.94,393.345,258.638z
		"/>
	<path fill="#FFFFFF" d="M429.829,273.304c-0.925,3.106-4.493,4.668-6.457,3.148c-1.964-1.519,0.588-5.459,1.949-6.558
		C426.682,268.801,430.752,270.198,429.829,273.304z"/>
	<path fill="#FFFFFF" d="M440.019,281.964c0.12,1.909-0.535,5.28-2.214,6.284c-1.68,1.006-5.423,0.266-7.912-1.223
		c-2.489-1.493-3.626-4.641-1.91-7.514c1.717-2.866,4.396-3.763,7.089-2.96C437.768,277.351,439.898,280.051,440.019,281.964z"/>
	<path fill="#B8D4B4" d="M365.684,274.438c1.156,13.52-15.811,19.805-19.196,19.719c6.3-3.996,8.798-11.741,8.803-16.1
		c0.005-4.365-1.655-8.913-7.886-10.609c-6.235-1.698-12.835-0.698-17.921,3.874c-5.083,4.578-5.569,14.433-5.292,16.368
		c0,0-6.739-6.793-3.718-14.985c4.681-12.693,20.088-17.9,29.116-16.466C358.621,257.676,364.52,260.918,365.684,274.438z"/>
	<path fill="#FFFFFF" d="M336.279,277.597c0.124,2.483-0.491,4.552-2.595,4.674c-2.105,0.128-3.484-1.033-3.814-2.262
		c-0.326-1.217-0.396-3.304,1.224-4.698C332.719,273.915,336.153,275.122,336.279,277.597z"/>
	<path fill="#FFFFFF" d="M349.569,280.836c0.088,2.238-4.112,6.191-7.58,6.4c-1.996,0.024-3.044-1.217-3.322-3.152
		c0.75-3.479,3.629-5.254,5.946-5.511C346.932,278.325,349.475,278.601,349.569,280.836z"/>
	
		<linearGradient id="SVGID_1_" gradientUnits="userSpaceOnUse" x1="404.577" y1="634.7872" x2="404.577" y2="347.6682" gradientTransform="matrix(0.9586 0.2849 -0.2849 0.9586 129.9717 -82.9907)">
		<stop  offset="0" style="stop-color:#A96270"/>
		<stop  offset="0.3313" style="stop-color:#BC768A"/>
		<stop  offset="0.6691" style="stop-color:#C9738E"/>
		<stop  offset="1" style="stop-color:#D07190"/>
	</linearGradient>
	<path fill="url(#SVGID_1_)" d="M403.861,441.998c14.489-1.424,31.636-3.994,44.724-11.879c7.092-4.278,12.839-9.991,18.107-16.342
		c-7.188-27.308-23.77-41.071-23.77-41.071c-21.909,16.5-36.407,21.892-51.349,21.522c-14.942-0.363-27.045-4.236-39.187-14.95
		c-0.877,4.321-2.581,17.358-4.38,31.367C356.559,434.287,377.735,444.566,403.861,441.998z"/>
	<path fill="#D4AC8A" d="M377.535,303.837c6.226,0.351,17.106,1.791,23.021-0.075c1.047,8.818-6.568,11.07-9.724,10.766
		C379.025,313.376,377.535,303.837,377.535,303.837z"/>
	<path fill="#AC6126" d="M543.521,207.608c0,0,18.717,15.021,27.164,54.847c4.676,22.062-3.335,59.971-10.757,71.956
		c-7.426,11.989-16.415,12.993-16.415,12.993s9.615-17.64,14.153-36.262c4.033-16.579,5.684-36.789,3.398-52.076
		C556.477,228.338,543.521,207.608,543.521,207.608z"/>
	<path fill="#AC6126" d="M508.361,220.285c0,0,13.966,11.508,16.983,37.106c3.023,25.6,0.696,48.033-2.015,58.79
		c-2.714,10.755-5.779,14.573-5.779,14.573s3.584-47.81,0.448-69.769C514.864,239.034,508.361,220.285,508.361,220.285z"/>
</g>
</svg>
