<?xml version="1.0" encoding="utf-8"?>
<!-- Generator: Adobe Illustrator 17.0.0, SVG Export Plug-In . SVG Version: 6.00 Build 0)  -->
<!DOCTYPE svg PUBLIC "-//W3C//DTD SVG 1.1//EN" "http://www.w3.org/Graphics/SVG/1.1/DTD/svg11.dtd">
<svg version="1.1" id="Layer_1" xmlns="http://www.w3.org/2000/svg" xmlns:xlink="http://www.w3.org/1999/xlink" x="0px" y="0px"
	 width="800px" height="600px" viewBox="0 0 800 600" enable-background="new 0 0 800 600" xml:space="preserve">
<g>
	<path d="M569.885,399.275c-7.018-4.249-17.434-1.735-18.826,3.661c7.037-1.424,11.256,0.527,9.637,6.507
		c-3.934,14.516-19.017,26.088-29.938,25.844c-4.629-0.103-12.689-3.579-15.287-9.977c-2.6-6.398-1.693-13.311-1.365-16.089
		c0.708-4.701,2.163-9.238,4.001-13.626c6.7-15.346,17.221-28.759,26.428-42.673c4.31-6.507,8.36-13.166,11.416-20.341
		c2.571-6.037,3.978-12.601,5.108-19.03c5.341-30.385,2.336-63.007-7.509-92.217c-4.869-14.45-11.746-28.302-21.446-40.215
		c-9.855-12.107-22.937-20.617-37.72-25.834c-11.25-3.971-23.277-5.881-35.359-5.882c-23.052-0.001-46.32,6.951-64.896,19.815
		c-4.792,3.32-9.292,7.055-13.39,11.181c-0.177,0.179-0.326,0.365-0.455,0.551c-12.633-5.117-26.133-8.573-39.537-8.574
		c-9.958,0-19.859,1.904-29.318,6.445c-20.856,10.013-33.902,30.629-42.154,51.198c-9.409,23.46-13.447,49.027-14.699,74.114
		c-0.547,10.958-0.473,21.949,0.274,32.895c1.081,15.911,3.953,31.849,2.486,47.871c-1.051,11.483-3.795,20.933-13.98,30.767
		c-9.152,8.837-29.608,20.021-36.825,37.027c42.505,13.693,88.927-1.928,108.124-35.096c7.253-12.534,9.01-25.651,10.577-34.136
		c7.818,9.164,31.466,28.352,50.566,32.803c19.744,4.602,30.331,0.296,38.906-5.176c8.573-5.469,18.158-12.901,26.169-20.704
		c9.561-9.315,18.276-21.007,25.76-32.046c-0.013,0.674,0.294,11.368,0.645,16.024c0.687,9.129,1.695,18.056,3.974,26.951
		c2.31,9.017,12.762,36.247,24.934,51.146c7.738,9.473,19.314,15.569,35.306,16.049c19.887,0.599,30.62-8.072,37.804-17.356
		c6.268-8.099,9.794-16.972,10.383-28.35C580.225,412.195,577.522,403.904,569.885,399.275z"/>
	<path fill="#E8AE30" d="M311.325,409.882c-6.703,13.418-16.257,22.756-30.36,31.242c-6.22,3.741-20.616,7.486-27.831,8.507
		c-13.499,1.907-31.912,1.134-35.046-0.601c20.371-5.207,35.65-15.041,49.301-30.711c9.766-11.204,15.123-25.306,18.219-39.635
		c3.111-14.409,3.623-29.028,4.277-43.683c0.06-1.353,0.129-2.708,0.205-4.06c2.203,5.144,4.766,10.139,7.499,14.964
		c6.374,11.25,13.655,22.882,22.355,32.542C319.33,387.386,316.553,399.418,311.325,409.882z"/>
	<path fill="#FFD4B8" d="M453.724,366.113c-8.62,11.647-18.186,22.235-29.738,31.126c-5.826,4.407-12.041,8.372-18.8,11.244
		c-3.481,1.409-7.086,2.499-10.811,3.043c-3.602,0.424-7.25,0.277-10.845-0.164c-5.588-0.783-11-2.373-16.208-4.501
		c-7.936-3.367-15.292-7.904-22.141-13.075c-10.797-8.293-20.325-18.108-28.721-28.74c-8.643-11.084-16.16-23.115-21.72-35.989
		c-1.411-3.34-2.693-6.747-3.764-10.212c0.464-5.14,1.034-10.271,1.71-15.386c0.023-0.183,0.047-0.363,0.072-0.544
		c1.586-11.551,3.67-23.139,6.642-34.481c1.637,1.382,3.66,2.292,5.891,2.546c-1.441,5.236-1.606,12.201-1.214,16.056
		c1.038,10.213,6.802,20.572,6.644,14.531c-0.032-1.21,0.078-3.911,0.247-7.001c10.176,4.514,21.599,6.333,32.515,3.411
		c5.395-1.443,10.295-4.214,14.473-7.841c4.084-3.546,7.941-8.158,9.075-12.437c1.258,1.554,3.836,4.398,4.686,5.951
		c1.197,2.189,3.273-2.865,2.061-7.4c-1.508-5.642-5.401-11.363-10.167-15.266c-1.739-4.382-4.717-8.309-7.765-11.855
		c-4.386-5.098-9.576-9.584-15.232-13.271c-5.542-3.615-12.696-6.768-19.442-6.768c-2.398,0-4.742,0.4-6.945,1.319
		c1.939-3.35,4.062-6.593,6.435-9.666c2.97-3.723,6.3-7.157,10.077-10.094c2.812-2.082,5.833-3.861,9.057-5.251
		c3.035-1.207,6.192-2.051,9.43-2.53c3.75-0.441,7.528-0.391,11.276,0.061c5.393,0.78,10.618,2.345,15.652,4.386
		c7.472,3.163,14.468,7.308,21.109,11.915c3.765,2.614-1.124-7.983-6.565-12.472c4.071-3.995,15.235-12.673,32.368-10.57
		c10.746,1.319,20.143,7.403,23.827,10.147c3.762,2.933,7.152,6.274,10.128,9.979c4.398,5.751,7.564,12.276,10.427,18.878
		c4.482,10.597,7.734,21.612,10.086,32.826c-0.084,1.109-0.233,2.218-0.504,3.325c-0.998,4.064-4.296,7.4-8.362,7.652
		c-0.788-0.895-1.594-1.785-2.418-2.666c3.325-0.71,6.03-4.455,5.961-7.908c-0.011-0.454-0.634-0.504-0.83-0.151
		c-1.659,2.983-3.136,6.117-6.297,6.837c-1.178-1.214-2.394-2.399-3.653-3.531c0.756-0.395,1.42-0.977,1.991-1.584
		c1.42-1.517,2.775-4.445,1.136-6.245c-0.231-0.254-0.676-0.042-0.725,0.256c-0.305,1.878-0.691,3.619-1.926,5.136
		c-0.445,0.548-1.061,1.019-1.75,1.319c-1.223-1.044-2.487-2.029-3.791-2.947c0.204-0.166,0.401-0.347,0.597-0.552
		c1.596-1.693,2.403-4.462,0.859-6.4c-0.219-0.273-0.729-0.242-0.786,0.157c-0.212,1.506-0.33,3.153-1.103,4.497
		c-0.281,0.491-0.657,0.922-1.09,1.277c-1.556-1.002-3.174-1.895-4.85-2.651c0.021-0.021,0.044-0.042,0.065-0.063
		c1.718-1.75,1.802-4.474,0.052-6.203c-0.307-0.3-0.765,0.038-0.748,0.395c0.067,1.315,0.403,2.781-0.254,4.003
		c-0.187,0.349-0.504,0.746-0.891,1.13c-1.191-0.454-2.413-0.832-3.665-1.132c0.086-0.227,0.158-0.47,0.208-0.731
		c0.401-2.067-1.021-3.594-2.915-4.121c-0.428-0.12-0.603,0.412-0.368,0.685c0.723,0.836,1.569,1.867,1.676,2.997
		c0.025,0.286-0.011,0.573-0.094,0.857c-6.123-0.807-14.422,0.815-18.859,2.487c3.362-3.518,6.827-6.936,10.705-9.941
		c2.781-2.092,5.73-3.934,8.939-5.327c2.214-0.89,4.495-1.533,6.862-1.888c2.191-0.25,4.371-0.242,6.562,0.015
		c2.846,0.391,9.977,1.197,13.13,10.03c0.733,2.059,1.162-2.193,0.242-4.178c-3.153-6.801-10.546-9.309-16.547-9.42
		c-5.566-0.101-10.952,1.682-15.84,4.455c-8.7,4.932-15.218,12.433-21.972,19.641c-5.972,2.831-11.108,5.734-15.593,8.839
		c-6.758,4.676-6.332,13.8-4.487,12.771c3.638-2.029,6.063-3.462,9.044-5.056c9.619,8.671,20.495,17.203,33.144,20.803
		c5.913,1.683,12.491,1.897,18.253-0.431c7.234-2.92,14.056-8.389,17.633-15.077c-0.363-0.956-0.727-1.911-1.3-2.831
		c2.428-0.164,5.787-2.063,6.95-5.163c1.019,6.324,2.453,22.162,2.932,32.069C477.675,330.082,464.707,351.275,453.724,366.113z"/>
	<path fill="#F0C2A6" d="M390.867,228.8c11.135-9.547,24.746-16.526,39.958-15.484c17.925,1.229,30.681,14.404,38.692,29.245
		c0.92,1.708,1.79,3.441,2.626,5.19c-1.393-4.241-2.949-8.431-4.694-12.559c-2.863-6.602-6.028-13.127-10.427-18.878
		c-2.976-3.705-6.366-7.046-10.128-9.979c-3.684-2.744-13.082-8.828-23.827-10.147c-17.133-2.104-28.297,6.575-32.368,10.57
		c5.441,4.49,10.33,15.087,6.565,12.472c-6.642-4.606-13.637-8.751-21.109-11.915c-5.034-2.041-10.259-3.605-15.652-4.386
		c-3.748-0.451-7.526-0.502-11.276-0.061c-3.238,0.479-6.395,1.323-9.43,2.53c-3.224,1.391-6.246,3.169-9.057,5.251
		c-3.776,2.936-7.107,6.371-10.077,10.094c-0.861,1.117-1.679,2.261-2.479,3.42C338.139,205.532,373.021,207.5,390.867,228.8z"/>
	<path fill="#F0C2A6" d="M386.101,330.189c-5.17,6.847-12.152,10.905-21.07,11.343c-4.69,0.229-10.334-0.431-14.077-3.51
		c-2.995-2.462-4.658-6.224-7.628-8.66c-0.072,0.227-0.196,0.395-0.351,0.508c-1.329,5.984,0.824,12.342,5.55,16.375
		c5.077,4.331,12.176,5.406,18.68,4.371c5.815-0.926,13.14-3.125,17.094-7.728C387.138,339.584,390.045,333.506,386.101,330.189z"/>
	<path fill="#F0C2A6" d="M383.187,372.351c-7.407,0.924-16.89,3.657-22.03,9.517c0.804,0.353,1.672,0.416,2.589,0.449
		c1.431,0.048,1.437,2.241,0,2.191c-0.686-0.023-1.331-0.086-1.946-0.206c-0.031,0.019-0.058,0.04-0.093,0.057
		c-2.996,1.437-5.942,3.982-3.622,7.442c1.259,1.88,2.915,3.3,4.964,4.31c4.545,2.239,9.828,2.966,14.864,2.989
		c4.45,0.023,9.259-0.258,13.441-1.903c5.201-2.042,10.532-6.852,11.432-12.533C404.543,373.565,391.394,371.328,383.187,372.351z"
		/>
	<path fill="#F0C2A6" d="M479.706,298.953c-0.038,6.112-0.538,12.216-1.567,18.244c-0.933,5.467-2.241,10.84-3.793,16.146
		c3.579-6.887,6.585-13.703,8.515-19.889c-0.479-9.908-1.914-25.745-2.932-32.069c-0.26,0.693-0.634,1.323-1.079,1.89
		C479.15,288.504,479.738,293.717,479.706,298.953z"/>
	<path fill="#F0C2A6" d="M448.376,356.298c-8.578,3.8-13.915,12.143-17.74,20.255c-3.441,7.301-6.316,14.93-9.137,22.517
		c0.836-0.601,1.666-1.21,2.487-1.83c11.552-8.891,21.118-19.479,29.738-31.126c3.245-4.382,6.661-9.322,9.998-14.531
		C458.736,353.384,453.232,354.147,448.376,356.298z"/>
	<path fill="#F0C2A6" d="M438.393,304.887c-12.649-3.6-23.525-12.132-33.144-20.803c-0.459,0.246-0.903,0.487-1.342,0.727
		c3.563,5.402,7.619,10.574,12.687,14.665c5.966,4.82,13.001,7.671,20.676,8.469c9.297,0.968,19.45-0.765,25.928-6.919
		c-2.086,1.365-4.3,2.521-6.551,3.43C450.884,306.784,444.306,306.57,438.393,304.887z"/>
	<path fill="#F0C2A6" d="M343.994,301.972c9.921-3.905,21.01-11.336,25.325-21.546c-0.844-1.015-1.708-2.008-2.288-2.726
		c-1.134,4.279-4.991,8.891-9.075,12.437c-4.178,3.628-9.078,6.398-14.473,7.841c-10.916,2.922-22.339,1.103-32.515-3.411
		c-0.068,1.239-0.126,2.414-0.169,3.455C318.871,307.324,333.165,306.236,343.994,301.972z"/>
	<path fill="#F0C2A6" d="M311.834,357.839c-5.335-10.763-10.06-21.794-14.657-32.876c-1.937-4.671-3.85-9.473-5.359-14.38
		c-0.31,2.749-0.592,5.503-0.84,8.261c1.071,3.466,2.353,6.873,3.764,10.212c4.916,11.384,11.365,22.107,18.766,32.101
		C312.946,360.053,312.385,358.948,311.834,357.839z"/>
	<path fill="#FF9D90" d="M466.251,276.329c0.823,0.88,1.63,1.771,2.418,2.666c4.066-0.252,7.364-3.588,8.362-7.652
		c0.025-0.103,0.044-0.206,0.067-0.309c-1.138-5.299-3.216-10.494-5.932-15.169c-0.008,1.407-0.334,2.378-0.765,1.168
		c-3.153-8.832-10.284-9.639-13.13-10.03c-2.191-0.256-4.371-0.265-6.562-0.015c-2.367,0.355-4.648,0.998-6.862,1.888
		c-3.21,1.393-6.159,3.235-8.939,5.327c-3.878,3.006-7.343,6.423-10.705,9.941c4.437-1.672,12.736-3.294,18.859-2.487
		c0.084-0.283,0.12-0.571,0.094-0.857c-0.107-1.13-0.953-2.161-1.676-2.997c-0.235-0.273-0.061-0.804,0.368-0.685
		c1.895,0.527,3.317,2.054,2.915,4.121c-0.05,0.26-0.122,0.504-0.208,0.731c1.252,0.3,2.474,0.678,3.665,1.132
		c0.387-0.384,0.704-0.781,0.891-1.13c0.657-1.223,0.321-2.689,0.254-4.003c-0.017-0.357,0.441-0.695,0.748-0.395
		c1.75,1.729,1.666,4.453-0.052,6.203c-0.021,0.021-0.044,0.042-0.065,0.063c1.676,0.756,3.294,1.649,4.85,2.651
		c0.433-0.355,0.809-0.786,1.09-1.277c0.773-1.344,0.891-2.991,1.103-4.497c0.057-0.399,0.567-0.431,0.786-0.157
		c1.544,1.939,0.737,4.707-0.859,6.4c-0.195,0.206-0.393,0.386-0.597,0.552c1.304,0.918,2.569,1.903,3.791,2.947
		c0.689-0.3,1.304-0.771,1.75-1.319c1.235-1.517,1.622-3.258,1.926-5.136c0.048-0.298,0.494-0.51,0.725-0.256
		c1.638,1.8,0.283,4.728-1.136,6.245c-0.571,0.607-1.235,1.189-1.991,1.584c1.258,1.132,2.474,2.317,3.653,3.531
		c3.161-0.72,4.638-3.854,6.297-6.837c0.195-0.353,0.819-0.302,0.83,0.151C472.281,271.874,469.576,275.619,466.251,276.329z"/>
	<path fill="#9FC9D3" d="M327.224,270.4c6.184,0.599,11.396-6.564,6.546-11.817c2.789-0.357,5.822,0.523,6.975,0.817
		c3.331,6.585-0.307,13.626-4.064,16.014c-3.758,2.388-8.487,2.745-10.79,2.266c-2.303-0.477-4.607-1.55-6.276-3.888
		c-1.545-2.163-2.7-4.117-2.816-6.854c0.727-1.55,1.819-3.342,3.926-4.18C320.313,266.938,323.686,270.06,327.224,270.4z"/>
	<path fill="#FFFFFF" d="M330.174,258.91c2.245,0,2.245,3.428,0,3.428C327.929,262.338,327.929,258.91,330.174,258.91z"/>
	<path fill="#FFFFFF" d="M331.952,282.696c10.062-2.149,17.458-11.221,13.14-21.933c3.712,0.447,11.713,4.982,16.746,11.21
		c-2.003,7.139-7.503,13.632-16.876,17.549c-9.373,3.915-25.74,2.363-33.511-2.542c0.193-2.709,0.384-5.014,0.512-6.097
		c0.456-2.999,1.166-5.938,2.229-8.782C316.555,282.097,326.09,283.946,331.952,282.696z"/>
	<path fill="#FF9D90" d="M335.185,249.12c-0.3-0.861-0.484-1.731-0.255-2.586c0.061-0.229-0.271-0.328-0.379-0.137
		c-0.481,0.842-0.672,1.775-0.609,2.695c-0.045,0-0.089-0.002-0.134-0.002c-0.707,0-1.417,0.021-2.129,0.061
		c-0.72,0.042-1.435,0.109-2.145,0.199c-0.508-1.485-0.762-3.035-0.584-4.621c0.023-0.202-0.282-0.357-0.371-0.134
		c-0.656,1.653-0.789,3.369-0.436,4.968c-1.521,0.265-3.015,0.636-4.467,1.124c-1.179-1.878-2.01-3.865-1.667-6.337
		c0.029-0.212-0.261-0.338-0.372-0.132c-1.146,2.155-0.721,4.791,0.501,7.028c-1.134,0.45-2.241,0.962-3.308,1.548
		c-0.247-0.185-0.489-0.376-0.718-0.586c-1.733-1.592-2.462-3.623-2.942-5.875c-0.045-0.214-0.357-0.164-0.404,0.021
		c-0.581,2.336,0.543,5.421,2.498,7.36c-1.03,0.655-2.021,1.374-2.961,2.161c-2.663-1.565-4.62-4.577-4.441-7.681
		c0.014-0.225-0.329-0.242-0.382-0.038c-0.917,3.459,0.327,6.446,3.065,8.784c0.096,0.084,0.197,0.164,0.3,0.243
		c-0.394,0.38-0.779,0.769-1.152,1.176c-0.139,0.151-0.272,0.309-0.407,0.464c-1.199-0.176-6.337-0.561-6.975-6.329
		c0.827-2.21,2.784-7.492,3.705-9.666c0.817-1.888,1.678-3.76,2.583-5.612c0.671-0.771,1.396-1.485,2.197-2.134
		c0.903-0.662,1.859-1.216,2.884-1.674c1.131-0.435,2.29-0.734,3.488-0.914c1.533-0.162,3.06-0.132,4.592,0.041
		c2.54,0.372,4.991,1.116,7.366,2.074c4.171,1.781,8.027,4.174,11.634,6.885c4.604,3.545,8.804,7.606,12.408,12.138
		c0.676,0.872,1.329,1.762,1.95,2.672C350.47,252.155,343.05,249.41,335.185,249.12z"/>
	<path fill="#FF9D90" d="M304.948,258.263c1.109,1.342,2.968,1.993,4.96,2.342c-0.853,1.224-1.611,2.558-2.279,3.97
		c-0.171-0.006-0.342-0.009-0.516-0.025c-0.368-0.073-0.711-0.17-1.058-0.3c-0.321-0.16-0.616-0.334-0.906-0.54
		c-0.359-0.302-0.673-0.628-0.97-0.987c-0.395-0.552-0.721-1.132-1.006-1.745c-0.361-0.882-0.624-1.788-0.832-2.707
		c0.376-1.183,0.764-2.365,1.164-3.541C303.698,256.033,304.118,257.257,304.948,258.263z"/>
	<path fill="#FF9D90" d="M302.609,263.68c1.154,1.607,2.654,2.376,4.277,2.581c-0.398,0.97-0.756,1.968-1.081,2.987
		c-0.2-0.011-0.4-0.013-0.602-0.031c-0.737-0.122-1.434-0.303-2.136-0.555c-0.767-0.334-1.471-0.733-2.155-1.218
		c-0.354-0.288-0.682-0.592-0.998-0.909c0.463-1.703,0.941-3.403,1.447-5.096C301.699,262.227,302.106,262.981,302.609,263.68z"/>
	<path fill="#DC867E" d="M442.268,258.78c-0.252-0.349-0.527-0.674-0.788-0.977c-0.235-0.273-0.061-0.804,0.368-0.685
		c0.624,0.174,1.197,0.46,1.67,0.834c2.004-1.267,4.127-2.325,6.179-3.189c5.052-2.124,10.553-3.382,16.054-2.491
		c0.851,0.139,1.674,0.323,2.479,0.544c-3.535-4.907-8.652-5.499-10.958-5.814c-2.191-0.256-4.371-0.265-6.562-0.015
		c-2.367,0.355-4.648,0.998-6.862,1.888c-3.21,1.393-6.159,3.235-8.939,5.327c-3.878,3.006-7.343,6.423-10.705,9.941
		c3.509-1.321,9.434-2.609,14.788-2.691C440,260.484,441.102,259.593,442.268,258.78z"/>
	<path fill="#DC867E" d="M307.676,257.803c0.539-1.831,1.128-3.648,1.773-5.446c-0.355-1.302-0.364-2.707,0.031-4.201
		c0.054-0.204,0.396-0.187,0.382,0.038c-0.045,0.794,0.05,1.584,0.262,2.344c1.367-3.571,2.958-7.055,4.819-10.403
		c1.461-2.632,3.023-5.243,4.812-7.684c-0.195,0.015-0.392,0.024-0.588,0.044c-1.197,0.18-2.357,0.479-3.488,0.914
		c-1.025,0.458-1.981,1.012-2.884,1.674c-0.801,0.649-1.526,1.363-2.197,2.134c-0.904,1.853-1.765,3.724-2.583,5.612
		c-0.921,2.174-2.879,7.457-3.705,9.666C304.635,255.436,306.13,256.976,307.676,257.803z"/>
	<path fill="#DC867E" d="M304.18,262.723c0.297,0.359,0.611,0.685,0.97,0.987c0.274,0.195,0.553,0.359,0.855,0.513
		c0.097-0.42,0.184-0.838,0.286-1.256c0.255-1.057,0.527-2.107,0.814-3.157c-0.856-0.374-1.6-0.874-2.156-1.546
		c-0.831-1.006-1.251-2.231-1.443-3.535c-0.4,1.176-0.788,2.359-1.164,3.541c0.208,0.92,0.47,1.825,0.832,2.707
		C303.459,261.591,303.785,262.17,304.18,262.723z"/>
	<path fill="#DC867E" d="M304.976,269.169c0.196-1.071,0.408-2.138,0.633-3.203c-1.126-0.386-2.155-1.111-2.999-2.285
		c-0.503-0.699-0.91-1.453-1.248-2.241c-0.506,1.693-0.984,3.392-1.447,5.096c0.315,0.317,0.644,0.622,0.998,0.909
		c0.684,0.485,1.388,0.884,2.155,1.218C303.696,268.887,304.325,269.049,304.976,269.169z"/>
	<path d="M477.806,274.596c0.265-0.498,0.504-1.023,0.722-1.563c0.208,1.12,0.41,2.239,0.603,3.363
		c-0.851,3.88-2.313,7.394-6.654,8.316c-0.985-2.016-2.126-3.772-2.542-4.258C473.161,280.171,476.22,277.577,477.806,274.596z"/>
	<path fill="#9FC9D3" d="M436.091,281.381c5.68,0,8.355-6.612,6.305-10.382c2.67-0.111,4.606,0.953,6.425,2.386
		c0.242,5.251-3.457,10.376-8.244,12.413c-4.486,1.909-8.244,0.716-11.153-0.956c-2.55-1.464-6.062-5.967-5.819-10.145
		c1.212-0.477,3.502-1.466,5.153-1.966C427.512,276.455,430.915,281.381,436.091,281.381z"/>
	<path fill="#75B1C0" d="M341.98,263.554c-0.149-1.374-0.538-2.775-1.236-4.155c-1.152-0.294-4.185-1.174-6.975-0.817
		c1.336,1.447,1.905,3.039,1.904,4.573C337.809,263.042,339.925,263.166,341.98,263.554z"/>
	<path fill="#75B1C0" d="M319.447,268.608c0.778-0.498,1.58-0.975,2.401-1.422c-0.831-1.229-1.29-2.739-1.124-4.428
		c-2.107,0.838-3.199,2.63-3.926,4.18c0.048,1.143,0.286,2.142,0.648,3.086C318.136,269.463,318.859,268.986,319.447,268.608z"/>
	<path fill="#75B1C0" d="M320.837,275.189c0.912-2.054,1.982-4.026,3.365-5.795c-0.3-0.179-0.59-0.378-0.864-0.597
		c-0.181,0.095-0.363,0.185-0.543,0.284c-0.848,0.462-3.063,1.567-4.435,2.804c0.374,0.634,0.794,1.262,1.254,1.907
		C319.992,274.321,320.402,274.781,320.837,275.189z"/>
	<path fill="#75B1C0" d="M325.928,277.688c0.161-2.445,0.613-4.873,1.289-7.288c-0.4-0.04-0.798-0.118-1.188-0.227
		c-1.542,1.853-2.674,3.978-3.626,6.192c1.104,0.659,2.296,1.069,3.488,1.315C325.901,277.684,325.916,277.686,325.928,277.688z"/>
	<path fill="#75B1C0" d="M443.077,274.006c0.166,0.042,0.33,0.082,0.491,0.124c1.668,0.45,3.38,1.025,5.073,1.722
		c0.149-0.813,0.219-1.638,0.181-2.468c-1.819-1.433-3.756-2.498-6.425-2.386C442.877,271.885,443.096,272.929,443.077,274.006z"/>
	<path fill="#75B1C0" d="M428.504,274.483c-0.015-0.599,0.065-1.189,0.254-1.752c-1.651,0.5-3.941,1.489-5.153,1.966
		c-0.048,0.836,0.059,1.685,0.273,2.518C425.273,276.033,426.834,275.134,428.504,274.483z"/>
	<path fill="#75B1C0" d="M429.317,277.384c-0.149-0.273-0.282-0.554-0.391-0.84c-1.561,0.645-3.006,1.559-4.271,2.787
		c0.423,0.88,0.946,1.712,1.516,2.464C426.96,280.131,427.954,278.585,429.317,277.384z"/>
	<path fill="#75B1C0" d="M431.26,279.684c-0.292-0.235-0.569-0.481-0.819-0.748c-1.294,1.189-2.191,2.766-2.898,4.428
		c0.573,0.565,1.149,1.023,1.691,1.359C429.604,282.904,430.214,281.167,431.26,279.684z"/>
	<path fill="#75B1C0" d="M434.253,281.158c-0.477-0.115-0.935-0.267-1.363-0.462c-1.036,1.426-1.584,3.148-1.901,4.944
		c0.821,0.37,1.697,0.676,2.628,0.878C433.53,284.687,433.665,282.876,434.253,281.158z"/>
	<path fill="#FFFFFF" d="M438.51,271.227c2.245,0,2.245,3.428,0,3.428C436.265,274.655,436.265,271.227,438.51,271.227z"/>
	<path fill="#FFFFFF" d="M435.486,291.169c8.828,1.071,16.396-7.198,17.942-14.919c3.76,2.149,8.727,5.728,12.607,12.294
		c-3.151,5.371-6.912,7.627-12.97,9.668s-14.669,0.477-21.336-2.745c-6.669-3.224-15.277-8.713-20.489-14.802
		c2.666-1.455,5.387-2.972,8.122-4.295C421.181,284.366,426.637,290.096,435.486,291.169z"/>
	<path fill="#E8AE30" d="M475.89,403.36c-2.586-8.769-3.835-17.694-4.503-26.781c-0.338-4.596-0.861-19.664-0.349-25.031
		c5.058-8.225,9.759-19.288,12.269-25.749c0.378,35.002-7.517,70.953,4.541,105.606C483.685,423.31,478.431,411.978,475.89,403.36z"
		/>
	<path fill="#FFCD44" d="M575.096,425.232c-1.76,10.849-6.778,20.521-16.965,28.812c-8.958,7.295-26.797,8.742-36.823,5.978
		c-16.247-4.478-27.612-25.258-30.385-40.276c-5.921-32.063,2.632-59.594-1.518-116.197c-1.477-20.129-4.44-40.299-10.971-59.485
		c-5.774-16.97-13.617-33.206-28.45-44.172c-9.238-6.83-20.809-11.056-32.422-11.056c-0.956,0-1.91,0.028-2.864,0.086
		c-11.973,0.729-22.368,6.218-30.492,14.425c-9.496-4.582-19.692-7.682-29.881-7.682c-7.225-0.001-14.441,1.555-21.408,5.246
		c-19.213,10.175-29.515,32.056-36.112,51.484c-7.565,22.273-11.262,45.861-13.194,69.214c-1.224,14.812-1.039,29.698-2.996,44.456
		c-1.441,10.208-6.769,34.55-17.475,48.251c-7.835,10.03-25.072,22.565-41.918,29.314c2.155-5.978,16.846-14.077,27.227-23.72
		c7.679-7.133,11.166-14.464,12.925-21.227c4.907-18.849,2.748-37.503,1.028-56.359c-1.882-20.587-1.277-41.469,1.476-61.955
		c2.442-17.547,6.541-35.008,13.471-51.391c3.798-8.772,8.449-17.211,14.333-24.803c3.807-4.775,8.099-9.158,12.941-12.922
		c4.05-3.037,8.435-5.599,13.107-7.592c4.702-1.896,9.615-3.186,14.64-3.897c6.134-0.747,12.328-0.633,18.457,0.133
		c9.464,1.326,30.701,7.313,37.674,11.682c2.153,1.349,1.958-4.822-1.277-7.618c8.131-8.775,21.691-15.762,29.424-19.033
		c8.995-3.67,18.428-6.163,28.072-7.484c9.395-1.17,18.9-1.213,28.297-0.035c8.207,1.144,16.247,3.224,23.918,6.333
		c6.129,2.592,12.002,5.804,17.324,9.775c5.098,3.957,9.614,8.56,13.619,13.582c6.02,7.761,10.811,16.362,14.701,25.33
		c6.075,14.362,9.906,29.585,12.046,44.981c2.17,16.415,2.477,33.147,0.296,49.575c-1.122,8.007-2.705,16.182-5.829,23.678
		c-6.465,14.701-16.972,27.499-25.705,40.913c-8.406,12.916-16.818,28.001-16.648,43.92c0.153,14.42,9.282,26.062,23.382,26.014
		c14.329-0.046,22.021-8.366,28.99-16.97c5.932-7.326,9.597-19.671,4.505-22.949c2.348-1.351,5.879,1.609,7.704,3.831
		C575.754,410.821,576.163,418.668,575.096,425.232z"/>
	<path d="M379.139,341.223c5.37-3.077,6.708-5.701,7.93-9.124c1.575-4.417-0.93-10.114-2.398-6.364
		c-1.604,4.094-3.664,6.364-6.099,8.372c-1.896,1.384-3.941,2.527-6.099,3.466c-2.573,1.023-5.246,1.752-7.99,2.164
		c-2.203,0.254-4.414,0.296-6.622,0.059c-1.435-0.22-2.834-0.567-4.192-1.079c-0.872-0.395-1.699-0.855-2.483-1.403
		c-0.572-0.473-1.098-0.987-1.579-1.55c-0.418-0.584-0.777-1.195-1.086-1.842c-0.313-0.828-0.538-1.676-0.691-2.548
		c-0.083-0.798,0.025-4.409,2.779-6.558c2.755-2.147,6.653-3.535,9.964-5.331c4.127-2.241,7.837-5.703,11.091-9.026
		c6.886-7.032,11.039-16.556,12.008-22.286c0.58-3.422-1.749-6.612-2.261-5.455c-2.97,6.715-6.161,13.367-10.646,19.246
		c-3.096,3.863-6.688,7.249-10.606,10.296c-5.571,4.071-13.084,5.501-17.077,11.515c-3.498,5.266-1.404,13.09,2.87,17.293
		C354.458,349.429,369.86,346.541,379.139,341.223z"/>
	<path d="M416.866,348.53c-5.545,3.808-13.252,7.597-19.677,9.744c-1.69-7.765-8.589-9.202-14.286-7.65
		c-3.912,1.065-6.259,3.798-8.032,6.942c-0.862-2.714-2.419-7.133-8.423-7.133c-6.463,0-10.241,6.98-11.557,10.412
		c-0.001,0.006-4.439-1.768-5.399-2.355c-3.487-2.124,3.131,7.286,4.486,7.877c-6.325,12.842,4.646,20.196,15.801,21.091
		c6.146,0.494,15.493-0.082,20.751-3.187c4.753-2.808,11.887-8.549,9.463-20.244c6.926-2.791,9.371-4.365,14.117-8.162
		C417.991,352.762,418.352,347.509,416.866,348.53z"/>
	<path fill="#C03021" d="M384.531,354.075c5.817-0.597,7.978,3.661,8.452,5.694c-4.988,1.703-12.577,4.212-17.649,4.354
		C375.436,362.191,378.71,354.672,384.531,354.075z"/>
	<path fill="#C03021" d="M366.324,353.624c5.354-0.504,6.87,10.185,6.803,10.664c-4.844,0.649-11.754-0.426-14.785-1.739
		C359.038,359.469,360.97,354.126,366.324,353.624z"/>
	<path fill="#9F141C" d="M384.527,357.304c-3.816,1.044-5.968,4.008-8.381,6.774c4.965-0.353,11.884-2.619,16.61-4.23
		C390.461,357.808,387.597,356.466,384.527,357.304z"/>
	<path fill="#9F141C" d="M364.497,359.551c-2.358,0.265-3.736,2.065-5.524,3.247c2.987,1.088,8.511,1.928,12.899,1.613
		C370.278,361.755,367.874,359.173,364.497,359.551z"/>
	<path fill="#FF5144" d="M391.115,377.485c-6.897,5.959-18.709,5.594-24.043,4.76c-5.334-0.836-8.192-3.121-9.891-5.722
		c-1.699-2.604-1.117-5.94,0.649-7.61c9.114,2.708,19.153,1.836,28.388-0.42c3.343-0.817,5.383-1.458,8.635-2.626
		C394.855,365.88,396.839,372.538,391.115,377.485z"/>
	<path fill="#FFB69A" d="M386.386,373.105c2.468-2.735,6.172-3.342,5.555-1.063c-0.617,2.277-3.241,5.467-4.937,5.467
		C384.991,377.51,384.273,375.445,386.386,373.105z"/>
	<path fill="#FFE8D9" d="M374.803,310.733c3.435-4.348,8.13-10.244,10.081-17.608c1.951-7.364,3.251,7.364,0.976,12.166
		C383.583,310.094,370.25,316.496,374.803,310.733z"/>
	<path fill="#FFE8D9" d="M443.093,312.014c16.911-1.6,26.092,3.245,27.316,9.286C472.036,329.303,416.479,314.534,443.093,312.014z"
		/>
	<path fill="#FFE8D9" d="M305.535,308.813c5.129-0.918,17.561,2.241,20.813,10.565C329.6,327.702,287.65,312.014,305.535,308.813z"
		/>
	<path fill="#FFE184" d="M512.36,179.783c-29.257-21.674-60.877-17.887-72.829-15.213c14.546,0.584,28.942,2.696,42.954,6.788
		c12.477,3.643,23.094,10.073,31.362,20.082c6.692,8.1,11.681,17.365,15.615,27.031c4.128,10.14,7.688,20.875,9.786,31.617
		c1.395,7.137,2.084,14.373,2.497,21.626c0.418,7.305,1.08,14.655,1.187,21.971c0.046,3.098-0.122,6.144-0.481,9.162
		c2.315-7.473,4.635-17.745,5.356-27.333C549.109,258.226,546.507,205.077,512.36,179.783z"/>
	<path fill="#FFE184" d="M538.015,311.898c2.014-7.465,2.548-14.808,2.115-22.504c-0.863-15.289-1.073-30.818-5.121-45.695
		c-5.459-20.075-12.857-41.704-28.604-56.357c-3.922-3.648-8.29-6.833-13.122-9.221c-5.772-2.852-12.065-4.553-18.307-6.088
		c-12.859-3.161-25.934-4.684-39.144-4.979c7.36,2.212,40.837,7.104,69.374,35.462c34.118,33.901,30.49,107.982,32.343,111.015
		C537.706,312.988,537.868,312.444,538.015,311.898z"/>
	<path fill="#FFE184" d="M272.04,260.79c4.178-11.28,9.398-22.193,14.881-32.913c4.825-9.431,10.296-18.915,18.04-26.354
		c7.825-7.519,17.338-12.062,28.159-13.578c9.828-1.378,21.038-1.735,30.47,2.051c-1.043-1.16-5.834-3.005-18.055-5.09
		c-24.389-4.162-42.926,10.246-55.934,28.175c-9.678,13.339-15.857,37.47-18.58,50.547
		C271.358,262.681,271.692,261.733,272.04,260.79z"/>
	<path fill="#FFE184" d="M344.219,189.175c-11.604,0.181-23.248,2.419-32.656,9.478c-8.881,6.663-15.161,16.037-20.351,25.633
		c-8.465,15.654-15.58,31.875-20.959,48.698c4.038-6.018,21.576-49.302,41.461-65.345c20.848-16.819,41.951-17.93,47.48-16.649
		c0.555,0.128,1.105,0.211,1.624,0.252C355.516,189.522,349.717,189.09,344.219,189.175z"/>
	<path fill="#E8AE30" d="M456.616,196.348c0,0,22.681,12.966,30.73,60.509c8.049,47.544,8.78,79.96,8.78,79.96
		s10.244-66.994-4.39-107.333C476.766,188.219,456.616,196.348,456.616,196.348z"/>
	<path fill="#E8AE30" d="M490.337,218.474c0,0,8.78,10.085,10.975,38.899c2.195,28.814,0.731,53.307,0.731,53.307
		s11.708-39.621,7.318-63.392C503.507,215.593,490.337,218.474,490.337,218.474z"/>
	<path fill="#E8AE30" d="M507.539,447.988c0,0,12.139,17.198,36.418,10.057c24.281-7.142,28.721-30.9,28.721-30.9
		s-13.768,19.967-33.015,22.882C520.417,452.943,507.539,447.988,507.539,447.988z"/>
</g>
</svg>
