<?xml version="1.0" encoding="utf-8"?>
<!-- Generator: Adobe Illustrator 17.0.0, SVG Export Plug-In . SVG Version: 6.00 Build 0)  -->
<!DOCTYPE svg PUBLIC "-//W3C//DTD SVG 1.1//EN" "http://www.w3.org/Graphics/SVG/1.1/DTD/svg11.dtd">
<svg version="1.1" id="Layer_1" xmlns="http://www.w3.org/2000/svg" xmlns:xlink="http://www.w3.org/1999/xlink" x="0px" y="0px"
	 width="800px" height="600px" viewBox="0 0 800 600" enable-background="new 0 0 800 600" xml:space="preserve">
<path fill-rule="evenodd" clip-rule="evenodd" fill="#010101" d="M548.825,134.86c9.899,9.307,11.42,30.321,15.676,42.961
	c8.73,25.907,16.181,56.217,3.936,82.333c-3.442,7.342-9.761,18.744-13.221,27.973c-4.22,11.235-4.151,28.614-5.807,42.958
	c-2.778,24.028-0.802,44.739,0,67.344c-1.558,1.932-2.847,4.125-4.067,6.391c-3.613,2.382-9.343,2.651-15.672,2.324
	c-5.055-3.079-4.521-8.388-5.225-14.518c-1.903-16.449-3.032-38.095-5.81-55.153c-22.158,36.605-22.855,91.691-52.247,121.918
	c-10.502,10.807-34.097,22.506-53.409,24.388c-51.825,5.011-74.619-29.624-87.666-63.867
	c-48.074,17.038-89.823-23.857-87.662-66.764c0.712-14.109,7.706-24.789,13.937-33.669c2.175-3.114,5.904-6.903,9.282-9.291
	c-0.519-3.479,0.069-6.723,1.162-9.289c2.368-5.549,9.924-11.369,17.419-9.291c3.566-8.04,10.291-12.929,22.06-12.771
	c16.675-13.242,30.361-31.084,45.282-48.185c15.258-17.49,28.898-39.339,41.803-58.057c10.912-15.827,29.395-44.795,45.863-53.991
	c30.568-17.065,48.27,17.439,59.219,35.993C500.791,139.119,529.848,117.012,548.825,134.86z M551.73,158.663
	c-4.612,23.966-14.747,42.729-23.222,66.763c-15.491,43.927-18.97,93.006-44.12,124.823c-11.562,14.621-39.766,29.473-64.444,15.674
	c-0.182,2.527-1.522,3.895-1.743,6.384c21.915-3.419,18.203,30.691-4.644,23.226c12.702,19.122-23.719,31.454-24.384,7.546
	c-15.055,19.347-38.219-17.074-13.349-20.902c-20.684-11.813,5.135-43.497,19.159-22.641c0.657-3.404,3.834-4.287,5.222-6.966
	c-11.98-5.507-17.492-23.877-13.356-40.06c-19.122,24.898-46.411,49.807-45.859,91.15c0.018,1.373,0.142,4.234,0.577,5.803
	c10.008,35.949,57.875,47.664,96.374,30.771c21.98-16.915,40.775-37.017,53.412-63.282c8.889-34.117,28.389-60.359,50.507-85.917
	c14.997-17.334,28-43.238,24.384-77.217C564.04,193.096,555.688,178.718,551.73,158.663z M534.891,303.801
	c6.598-2.887,12.339-6.629,13.933-14.513C545.665,291,538.617,298.789,534.891,303.801z M540.117,140.085
	c4.648,9.594,2.455,22.46-1.158,33.093c-8.12,17.822-18.574,41.438-26.127,62.116c-15.055,41.251-15.07,93.717-48.764,116.694
	c-21.817,14.874-61.532-0.739-65.022-26.125c-2.767-20.095,12.034-32.452,21.475-43.542c20.35-23.888,37.504-51.845,55.736-76.634
	c7.894-8.559,16.834-19.173,25.546-31.931c7.709-11.295,19.58-33.658,36.574-26.125c-0.41-9.833-9.227-11.616-18-6.38
	c-12.826,7.651-23.886,28.986-35.408,41.796c-12.444,13.83-21.73,29.148-32.511,44.705c-11.014,15.881-22.347,29.346-33.676,43.539
	c-10.916,13.683-33.459,33.408-30.187,56.313c1.427,10.006,8.04,18.058,12.771,24.386c8.777-4.39,19.939,1.994,20.32,11.611
	c34.308,17.152,59.676-8.043,73.148-34.255c16.116-31.347,19.906-73.707,31.933-107.4c6.329-17.741,14.801-33.547,19.732-49.349
	c2.179-6.954,4.067-19.233,0.585-24.965C545.382,144.624,543.926,141.115,540.117,140.085z M545.927,301.478
	c-7.916,5.246-19.307,7.017-22.067,17.417C531.976,313.846,541.653,310.369,545.927,301.478z M544.765,309.027
	c-6.336,4.693-12.059,10.003-20.32,12.771c0.312,1.623,0.853,3.017,1.158,4.646C533.599,322.245,542.531,318.99,544.765,309.027z
	 M543.603,318.315c-4.379,6.267-14.783,6.509-16.834,15.093C534.43,330.434,542.786,328.148,543.603,318.315z M543.022,395.531
	c-1.972,0.741-3.355,2.063-5.222,2.898C539.583,399.802,543.091,397.942,543.022,395.531z M543.022,389.148
	c-3.421,2.571-7.43,4.568-10.455,7.538c0.567,0.022,0.454,0.712,0.585,1.169C537.499,396.011,541.867,394.18,543.022,389.148z
	 M543.022,328.186c-5.069,2.865-9.082,6.787-15.091,8.708c-0.403,2.333,0.552,3.312,0.577,5.225
	C534.535,338.659,541.631,336.273,543.022,328.186z M542.441,336.894c-4.848,2.504-7.713,6.992-13.933,8.125
	c0,1.743,0,3.484,0,5.229C534.241,346.882,542.531,346.075,542.441,336.894z M541.86,381.594c-4.024,1.591-6.91,4.314-10.451,6.391
	c0,1.351,0,2.701,0,4.06C535.135,391.058,542.198,388.559,541.86,381.594z M541.86,346.184c-4.201,2.762-8.704,5.225-13.352,7.542
	c-0.458,2.393,0.889,2.981,0.577,5.229C533.751,355.106,541.261,354.092,541.86,346.184z M541.275,371.725
	c-4.488,0.93-6.337,4.496-10.443,5.81c0,2.321,0,4.641,0,6.965C535.56,381.485,542.078,380.265,541.275,371.725z M541.275,354.888
	c-3.537,4.2-11.631,3.846-11.605,11.616C534.129,363.22,540.473,361.824,541.275,354.888z M540.701,362.436
	c-3.297,2.515-5.621,5.995-10.454,6.968c0,1.551,0,3.097,0,4.644C534.884,371.329,541.384,370.479,540.701,362.436z
	 M537.215,151.698c-1.776,1.817,0.712,4.288,0,6.965C537.953,159.149,539.362,152.604,537.215,151.698z M530.832,148.214
	c-1.1,6.549,3.537,17.337,2.901,27.283C537.56,168.402,535.509,153.728,530.832,148.214z M526.768,149.374
	c-1.507,0.817-2.684,1.964-4.067,2.903c3.813,9.928,5.759,21.72,6.969,34.255C534.823,176.385,528.344,160.26,526.768,149.374z
	 M520.377,155.18c-1.943,0.376-2.164,2.471-3.482,3.482c3.853,11.243,7.324,22.868,9.289,35.995
	c0.494,0.107,0.548-0.227,0.585-0.579C527.698,180.329,523.98,166.325,520.377,155.18z M514.575,162.147
	c-1.812,1.088-2.252,3.553-4.06,4.643c5.076,11.95,8.559,25.497,11.028,40.06C527.309,193.741,518.26,174.961,514.575,162.147z
	 M508.768,170.275c-2.582,0.127-2.593,2.827-4.063,4.063c5.345,12.141,10.149,27.683,12.19,41.222
	c2.277,0.334,1.485-2.393,2.905-2.905C517.029,197.617,513.925,182.92,508.768,170.275z M516.318,219.622c0-0.389,0-0.773,0-1.159
	c-7.756,0.385-14.035,4.107-18.581,8.704c-31.211,31.592-37.137,94.278-67.342,124.821c17.041,4.174,29.726,0.176,40.06-9.87
	c25.884-25.175,29.907-87.854,45.863-121.918C516.318,220.009,516.318,219.815,516.318,219.622z M502.962,177.821
	c-1.877,1.407-2.767,3.816-4.644,5.225c4.238,10.467,8.152,21.267,10.451,33.673c2.368,0.43,1.997-1.87,4.644-1.158
	C512.407,200.504,507.094,189.75,502.962,177.821z M497.159,187.108c-10.607,5.34,3.834,21.626,2.902,33.675
	C512.378,215.553,497.962,197.376,497.159,187.108z M490.191,194.657c-1.921,0.982-2.68,3.128-4.063,4.642
	c3.555,8.252,5.603,18.013,8.708,26.706C501.026,218.179,491.578,204.231,490.191,194.657z M491.934,382.756
	c-0.988,2.317-4.895,5.207-2.324,7.546C491.218,388.625,491.981,386.097,491.934,382.756z M484.388,202.784
	c-2.451,0.263-2.785,2.634-4.067,4.065c3.351,8.067,7.208,15.624,8.708,25.542C495.311,224.828,485.775,211.921,484.388,202.784z
	 M486.127,391.464c-1.805,2.818-0.617,4.931,1.162,6.965C489.308,396.316,489.181,392.583,486.127,391.464z M483.222,397.855
	c-1.456,0.857-2.037,2.607-2.901,4.06c1.416,2.259,2.204,5.149,4.648,6.391C486.905,404.058,485.804,400.463,483.222,397.855z
	 M478.578,209.753c-1.481,1.224-2.567,2.849-3.482,4.642c3.083,8.143,7.633,14.821,9.292,24.386
	C489.171,229.013,480.884,218.143,478.578,209.753z M467.55,133.119c-3.751,40.416-27.002,64.272-42.961,94.05
	c-20.288,37.854-34.355,73.442-69.775,93.448c-2.923,1.651-7.095,3.994-10.345,5.247c-8.838,3.417-21.78,2.502-29.602-1.745
	c-2.4,6.135-11.468,9.763-18.581,7.553c4.786,19.587-25.825,23.124-26.123,4.06c-7.586,1.196-9.448-3.321-12.775-6.387
	c-10.887,5.146-14.278,25.244-8.708,37.16c12.026,25.722,61.829,23.115,85.342,9.287c5.186-14.748,13.323-27.625,22.641-39.481
	c18.312-23.287,36.781-44.86,54.574-69.085c8.708-11.856,19.761-21.584,28.444-33.092c16.853-22.323,30.372-47.555,46.447-71.409
	C482.496,150.681,475.143,139.266,467.55,133.119z M478.578,404.82c-1.543,0.581-1.91,2.339-2.901,3.486
	c1.75,2.702,3.174,5.723,5.81,7.546C484.657,411.349,479.816,408.357,478.578,404.82z M473.352,217.297
	c-7.382,7.704,5.414,20.883,6.391,31.352C486.156,239.828,476.301,227.168,473.352,217.297z M473.352,411.204
	c-0.93,1.779-3.079,2.339-3.479,4.648c3.726,1.881,4.663,6.558,8.127,8.708C480.942,418.771,476.268,414.537,473.352,411.204z
	 M467.55,223.686c-2.262,1.22-3.094,3.875-4.644,5.805c3.293,10.06,7.949,18.761,10.447,29.609
	C482.107,249.351,469.936,234.712,467.55,223.686z M466.969,417.587c-0.352,2.164-2.669,2.367-2.901,4.648
	c3.816,2.571,5.752,7.023,8.708,10.451C478.901,428.292,471.228,420.34,466.969,417.587z M472.775,262.584
	c-0.941-1.062-1.841,0.408-2.901-1.162c0.29-10.476-6.322-18.752-8.711-28.445c-2.077,1.018-2.771,3.419-4.06,5.222
	c3.65,11.762,9.107,19.462,11.028,33.672C470.408,269.499,470.499,264.949,472.775,262.584z M461.162,424.56
	c-4.913,4.67,6.184,8.875,6.968,15.092C474.613,435.163,465.07,427.632,461.162,424.56z M454.198,430.362
	c0.439,5.607,6.943,10.051,8.123,16.842C471.414,443.202,459.085,429.055,454.198,430.362z M455.36,241.101
	c-2.386,1.289-3.192,4.164-4.648,6.387c4.724,11.918,7.64,25.651,11.609,38.315C471.824,272.148,458.62,254.57,455.36,241.101z
	 M453.613,120.927c12.934,17.989-9.859,44.347-16.835,59.796c-25.081,28.811-39.177,85.166-67.345,114.949
	c-12.314,13.033-53.372,34.446-59.796,1.745c-1.053,2.93-3.914,6.759-4.06,8.704c9.242,0.098,11.515,7.388,10.447,16.257
	c16.087,5.004,34.831-1.521,44.701-9.87c24.674-20.856,36.668-43.304,55.155-75.468c5.193-9.038,9.75-18.861,15.092-27.866
	c5.585-9.409,12.967-17.562,17.416-25.548c6.62-11.861,16.388-38.295,16.257-49.928C464.554,125.19,459.329,122.868,453.613,120.927
	z M462.321,287.547c-0.196-2.872-1.521,0.481-2.901,0c-2.742-13.125-7.248-24.486-10.447-37.155
	c-1.79,1.498-3.025,3.555-4.067,5.804c4.615,12.804,9.296,25.542,12.775,39.475C460.327,294.065,460.258,289.738,462.321,287.547z
	 M451.296,433.848c-2.447,0.065-2.938,2.092-4.644,2.898c2.948,5.759,7.52,9.899,9.87,16.254
	C465.055,449.143,453.671,439.274,451.296,433.848z M443.166,259.681c-7.255,4.804,1.075,16.25,4.064,25.544
	c2.643,8.209,3.065,16.049,5.229,22.639C460.335,293.235,446.017,274.754,443.166,259.681z M454.775,139.506
	c-0.138-1.022-0.995-1.324-2.317-1.162c-0.494,1.447-0.763,3.11-0.584,5.225C453.766,143.135,453.642,140.691,454.775,139.506z
	 M307.317,289.867c1.343,1.948,3.471,3.11,4.06,5.804c1.979-1.703,1.714-2.872,4.648-6.384
	c20.691-20.462,40.598-44.688,62.123-70.824c20.154-24.491,35.343-59.46,60.374-77.213c3.203-2.277,9.321-4.023,14.514-5.229
	c0.991,0.025,1.503-0.431,1.739-1.162c-0.944-22.763-17.372-5.814-24.961,2.324c-16.388,17.566-30.444,38.754-42.965,58.053
	C362.214,233.232,334.544,259.519,307.317,289.867z M443.747,439.651c-1.765-0.029-2.259,1.227-3.482,1.743
	c2.811,6.471,7.844,10.734,10.447,17.416C458.377,453.965,447.302,444.169,443.747,439.651z M436.779,266.647
	c-2.063,1.418-3.13,3.829-4.644,5.804c6.551,13.768,11.384,29.259,15.095,45.863c2.277-1.391,4.913-5.639,1.743-7.548
	C448.86,296.658,442.048,279.449,436.779,266.647z M448.972,140.085c-5.16,1.153-0.2,9.641-1.743,15.095
	C450.283,152.624,448.493,145.22,448.972,140.085z M436.779,443.711c-1.405,0.726-2.818,1.438-4.644,1.743
	c3.573,5.723,8.541,10.044,11.032,16.842C453.61,459.325,439.393,448.286,436.779,443.711z M430.972,275.934
	c-3.025,0.65-3.443,3.913-5.225,5.808c6.762,14.523,12.521,30.054,15.676,48.185C449.688,312.964,434.705,292.191,430.972,275.934z
	 M443.747,142.407c-2.549-0.61-1.906,1.965-4.067,1.741c0.959,6.398,1.874,12.838,1.743,20.322
	C445.955,159.941,444.092,150.006,443.747,142.407z M440.846,464.031c-4.201-5.984-7.121-15.942-15.099-16.254
	c3.039,6.638,7.858,11.497,10.451,18.578C437.781,465.614,439.026,464.547,440.846,464.031z M437.941,331.672
	c-0.973-15.413-8.341-32.567-13.933-47.027c-9.187,4.312-0.272,14.95,3.483,24.382c4.245,10.652,6.347,18.191,8.708,29.604
	C437.563,337.15,444.164,330.132,437.941,331.672z M437.36,146.472c-1.22,0.715-2.262,1.605-3.479,2.32
	c1.474,7.235,2.647,14.767,2.898,23.224C440.929,167.837,436.641,154.681,437.36,146.472z M431.557,152.277
	c-2.135,0.382-2.89,2.141-4.067,3.486c4.089,5.033,2.563,18.687,5.806,22.637C435.014,169.682,432.149,160.611,431.557,152.277z
	 M422.264,448.94c-2.32-0.196-3.217,1.039-5.803,0.581c4.013,7.016,9.133,12.927,12.19,20.902
	C439.273,466.464,424.229,455.026,422.264,448.94z M417.624,293.35c-2.419-0.679-4.419,3.573-5.806,5.808
	c7.132,13.975,16.058,32.298,15.092,50.507c-6.115-15.749-9.376-34.355-16.834-48.766c-8.781,9.901,10.465,31.014,8.127,46.444
	c4.034-0.161,4.812,2.931,8.13,3.484c3.399-1.047,4.412-4.49,6.387-6.966C432.207,322.505,422.86,309.981,417.624,293.35z
	 M410.074,376.95c2.447,4.514,0.094,9.801-2.321,12.771c4.866,5.505,18.865,4.249,22.06-1.162
	C435.842,378.355,420.714,371.285,410.074,376.95z M425.747,158.663c-1.078,2.015-3.501,2.689-4.06,5.225
	c3.352,6.515,3.849,15.892,5.803,23.803C431.978,180.804,426.84,167.283,425.747,158.663z M425.747,471.584
	c-3.559-8.054-7.974-15.251-13.348-21.482c-3.109,1.147-7.204,1.314-11.032,1.736c5.396,5.643,7.223,14.837,11.613,21.49
	c1.158,0,2.32,0,3.482,0c-1.194-8.875-7.313-12.818-9.87-20.328c7.049,1.503,10.335,11.707,12.771,19.74
	C421.876,472.739,423.049,471.395,425.747,471.584z M419.944,166.21c-6.13,6.238,2.701,18.71,2.905,27.868
	C427.337,186.032,420.136,175.308,419.944,166.21z M415.3,173.178c-5.204,5.578,3.664,18.601,3.483,28.445
	C422.806,193.354,415.049,183.319,415.3,173.178z M397.303,369.984c5.567,0.236,9.009,2.605,12.19,5.227
	c12.484-4.127,8.864-24.364-4.644-21.484C399.315,354.91,395.767,362.058,397.303,369.984z M410.655,179.562
	c-1.895-0.152-1.231,2.253-2.901,2.324c1.812,9.794,4.841,18.38,6.384,28.449C418.524,200.916,411.992,188.9,410.655,179.562z
	 M415.3,345.019c-2.996-11.517-6.064-22.964-10.451-33.09c-4.049,9.416,6.235,18.16,5.225,30.19
	C411.701,343.203,412.91,344.704,415.3,345.019z M406.011,392.045c-2.949,1.569-8.701,2.556-12.771,1.162
	c-2.825,7.408-0.657,19.594,6.965,20.894C413.462,416.382,415.917,398.182,406.011,392.045z M405.43,186.532
	c-1.725,0.785-2.411,2.618-3.482,4.06c3.025,8.977,6.166,17.831,7.546,28.447C413.843,210.297,406.922,196.711,405.43,186.532z
	 M409.493,473.328c-4.982-7.793-5.694-19.848-16.834-21.49c3.083,6.79,9.031,13.806,9.87,20.902
	C403.712,474.075,407.351,472.957,409.493,473.328z M391.497,375.211c-3.715,3.5-4.162,9.107-1.739,12.775
	C407.354,402.779,415.379,364.197,391.497,375.211z M399.623,194.078c-1.333,0.795-1.866,2.389-2.901,3.483
	c3.951,8.818,5.625,19.917,7.542,30.768C411.007,220.053,401.857,204.208,399.623,194.078z M394.983,201.624
	c-2.266,0.057-2.302,2.346-3.486,3.484c3.188,8.036,4.928,17.524,6.968,26.703C405.524,226.171,395.989,210.435,394.983,201.624z
	 M401.367,235.295c-27.903,14.48-47.784,47.041-65.022,76.055C372.734,300.714,385.393,266.346,401.367,235.295z M399.623,473.328
	c-3.969-8.999-5.646-20.284-16.254-22.645c4.205,6.827,6.409,15.651,10.451,22.645C396.279,472.804,397.928,474.845,399.623,473.328
	z M395.564,234.717c-1.093-9.556-3.37-17.922-6.391-25.544c-2.607,6.204,3.925,16.998,4.067,26.121
	C394.282,235.371,394.463,234.589,395.564,234.717z M394.402,371.144c-1.598-8.158-4.045-15.914-12.778-15.673
	c-15.269,0.418-13.011,28.084,4.067,26.704C387.415,377.32,388.381,371.703,394.402,371.144z M385.113,214.974
	c-1.729,0.792-2.411,2.621-3.49,4.065c2.665,6.244,4.673,13.135,5.81,20.903C393.839,234.736,386.366,221.812,385.113,214.974z
	 M389.757,472.739c-4.176-9.173-5.944-20.764-15.095-24.961c1.115,8.562,7.252,15.193,7.546,22.644
	C384.067,471.853,387.328,471.882,389.757,472.739z M386.275,384.5c-18.636-8.49-25.746,21.889-7.549,20.902
	C388.915,404.842,391.704,392.568,386.275,384.5z M379.307,222.524c-1.217,0.721-2.186,1.685-2.905,2.901
	c1.874,6.447,3.235,13.412,5.222,19.743C388.196,240.057,380.654,228.846,379.307,222.524z M379.307,469.842
	c-4.492-9.057-5.037-22.056-13.933-26.704c2.912,7.786,7.883,16.413,8.127,24.961C376.089,468.026,377.099,469.529,379.307,469.842z
	 M373.5,228.911c-6.572,4.692,2.204,13.812,1.739,21.481C381.707,246.141,374.742,234.632,373.5,228.911z M368.275,235.879
	c-5.029,3.517,2.996,13.953,1.743,19.155C375.207,252.899,369.23,241.07,368.275,235.879z M371.18,466.936
	c-3.635-10.109-6.965-20.517-12.771-28.447c-1.609,7.502,8.283,17.525,4.641,23.226C365.617,463.596,368.028,465.636,371.18,466.936
	z M368.856,257.936c-3.225-3.934-3.141-11.179-5.225-16.254c-1.834,0.49-1.652,2.994-3.482,3.486
	c1.932,5.033,3.66,10.267,4.06,16.836C366.815,261.707,366.848,258.829,368.856,257.936z M363.05,266.064
	c-4.023-3.519-2.128-12.965-5.225-17.416c-7.364,4.123,1.296,14.471,0.585,22.641C360.697,270.291,360.762,267.066,363.05,266.064z
	 M360.148,459.391c-1.765-8.316-6.376-24.947-11.032-28.447c2.597,7.27,5.962,13.777,6.384,23.225
	C356.837,456.122,358.856,457.401,360.148,459.391z M352.018,255.614c-1.681,0.837-2.876,2.153-3.479,4.067
	c2.273,5.663,3.326,12.535,4.645,19.157C357.479,272.672,353.125,261.983,352.018,255.614z M350.275,443.711
	c-3.38-8.163-4.673-18.345-7.542-25.542C342.911,426.702,344.726,438.62,350.275,443.711z M346.212,262.584
	c-1.925,0.203-2.517,1.739-3.479,2.903c1.278,7.043,3.512,13.127,4.644,20.317C353.732,281.721,347.21,269.73,346.212,262.584z
	 M340.409,268.388c-6.108,5.193,1.358,17.112,1.743,24.961C347.624,286.933,340.775,277.357,340.409,268.388z M339.247,426.295
	c1.02-1.249-0.363-5.025-0.581-6.965C337.362,420.87,339.145,424.247,339.247,426.295z M335.183,275.351
	c-1.906,0.612-2.542,2.495-3.482,4.069c2.335,6.949,3.366,15.208,5.225,22.641C343.219,295.372,335.038,284.798,335.183,275.351z
	 M329.377,282.904c-2.07,0.635-3.428,1.988-4.063,4.062c4.677,6.159,1.848,19.827,7.546,24.963
	C335.303,301.847,331.421,291.93,329.377,282.904z M328.219,381.594c-0.094,0.683-1.06,0.494-1.743,0.581
	c0.832,2.647,2.306,4.663,4.645,5.81C331.57,384.013,331.526,382.589,328.219,381.594z M323.571,383.918
	c-1.696-0.152-1.779,1.315-3.479,1.162c4.154,3.588,5.93,9.55,9.866,13.349C332.111,391.21,326.036,389.453,323.571,383.918z
	 M329.377,407.144c-4.143-8.185-6.177-21.119-18-19.747c4.002,8.003,11.173,12.833,15.099,20.909
	C327.583,408.052,327.931,407.05,329.377,407.144z M327.053,310.767c-0.352-8.156-1.761-15.27-4.06-21.479
	c-6.308,3.953,1.318,12.956,0,20.9C324.351,310.373,325.168,311.105,327.053,310.767z M322.993,410.042
	c-5.621-8.185-9.728-20.756-20.902-21.482c4.18,8.599,12.611,12.934,15.095,23.226C319.721,411.806,320.611,410.18,322.993,410.042z
	 M318.926,308.449c1.507-4.227-0.821-9.623-1.739-13.356C313.628,298.146,316.675,305.832,318.926,308.449z M314.285,412.947
	c-4.804-9.478-10.244-20.902-20.324-23.226c5.026,8.141,12.219,14.104,15.099,24.38C310.61,413.535,312.117,412.91,314.285,412.947z
	 M293.961,309.027c2.175-2.475,5.479-3.815,9.292-4.644c1.493-3.386,3.846-7.544,2.324-12.192c-1.456-1.632-3.032-2.754-4.648-2.903
	c-9.158-0.454-12.139,5.278-13.933,12.19c6.587,2.929,10.661,17.069,4.648,23.803c11.78,12.481,30.19-8.286,17.416-15.674
	C304.031,306.698,298.057,310.825,293.961,309.027z M305.578,414.101c-4.909-9.797-9.02-20.393-19.743-24.38
	c2.73,7.836,15.44,17.038,10.451,24.968C298.9,416.309,302.389,413.84,305.578,414.101z M295.708,415.271
	c-3.598-11.315-8.726-21.083-17.996-26.712c4.02,8.555,9.982,15.179,11.609,26.13C290.951,415.38,293.326,415.322,295.708,415.271z
	 M288.736,326.445c-3.148,2.402-10.204,2.273-12.19-1.164c-5.418,6.382-4.728,18.665,4.067,20.903
	C292.614,347.802,297.32,332.019,288.736,326.445z M286.419,304.963c-2.97-0.454-4.285-0.498-6.968,0.583
	c-3.577,3.027-6.736,11.932-2.324,16.832C289.418,332.095,296.732,310.8,286.419,304.963z M285.835,413.528
	c-3.762-11.329-7.873-22.318-17.416-27.866c0.643,8.693,10.719,15.927,10.451,25.542
	C281.557,411.618,283.147,413.121,285.835,413.528z M283.511,302.061c-6.725-9.743-19.032,6.534-12.19,12.192
	C274.487,309.289,274.894,301.567,283.511,302.061z M275.387,409.461c-3.33-9.725-10.178-23.095-17.416-29.028
	C261.995,389.576,266.262,403.491,275.387,409.461z M274.229,322.961c-8.04-12.232-21.878,11.591-4.067,9.287
	C271.146,328.783,272.134,325.317,274.229,322.961z"/>
</svg>
