<?xml version="1.0" encoding="utf-8"?>
<!-- Generator: Adobe Illustrator 17.0.0, SVG Export Plug-In . SVG Version: 6.00 Build 0)  -->
<!DOCTYPE svg PUBLIC "-//W3C//DTD SVG 1.1//EN" "http://www.w3.org/Graphics/SVG/1.1/DTD/svg11.dtd">
<svg version="1.1" id="Layer_1" xmlns="http://www.w3.org/2000/svg" xmlns:xlink="http://www.w3.org/1999/xlink" x="0px" y="0px"
	 width="800px" height="600px" viewBox="0 0 800 600" enable-background="new 0 0 800 600" xml:space="preserve">
<g>
	<path fill-rule="evenodd" clip-rule="evenodd" d="M420.76,250.003c-27.272,1.176-37.633,34.414-31.898,74.598
		c5.734,40.184,32.503,71.816,59.773,70.64c27.27-1.176,44.736-34.721,39-74.905C481.902,280.152,448.03,248.827,420.76,250.003
		L420.76,250.003z"/>
	<path fill-rule="evenodd" clip-rule="evenodd" fill="#F5F6F6" d="M421.181,257.134c-23.76,0.999-32.81,29.998-27.842,65.075
		c4.969,35.078,28.264,62.715,52.026,61.712c23.758-0.998,38.999-30.257,34.033-65.334
		C474.428,283.508,444.941,256.134,421.181,257.134L421.181,257.134z"/>
	<path fill-rule="evenodd" clip-rule="evenodd" fill="#FFFFFF" d="M424.148,264.44c-19.984,0.822-27.594,24.635-23.416,53.442
		c4.178,28.806,23.772,51.5,43.756,50.677c19.984-0.823,32.801-24.848,28.622-53.654
		C468.933,286.099,444.131,263.617,424.148,264.44L424.148,264.44z"/>
	<path fill-rule="evenodd" clip-rule="evenodd" fill="#00A0C6" d="M420.125,268.854c-13.013,0.931-17.143,17.686-13.405,37.713
		c3.741,20.027,17.326,35.513,30.339,34.583c13.011-0.931,20.532-17.926,16.793-37.953
		C450.113,283.169,433.136,267.923,420.125,268.854L420.125,268.854z"/>
	<path fill-rule="evenodd" clip-rule="evenodd" d="M418.667,269.143c-12.443,0.504-17.116,13.17-14.434,28.446
		c2.681,15.274,14.946,27.254,27.386,26.746c12.44-0.505,20.355-13.301,17.674-28.575
		C446.613,280.483,431.108,268.638,418.667,269.143L418.667,269.143z"/>
	<path fill-rule="evenodd" clip-rule="evenodd" d="M303.614,287.589c10.921-26.902,25.984-44.681,49.478-58.147
		c22.909-13.128,14.333-23.636-8.57-11.024C318.154,232.927,308.647,258.497,303.614,287.589L303.614,287.589z"/>
	<path fill-rule="evenodd" clip-rule="evenodd" fill="#EBF1F5" d="M408.669,330.645c3.754,12.764,26.036,30.546,39.298,25.902
		c-4.762,4.067-3.607,7.527-1.602,10.901C426.69,364.99,407.88,343.311,408.669,330.645L408.669,330.645z"/>
	<path fill-rule="evenodd" clip-rule="evenodd" fill="#FFFFFF" d="M410.937,270.821c4.678,0,8.47,3.792,8.47,8.472
		c0,4.673-3.792,8.465-8.47,8.465c-4.676,0-8.469-3.792-8.469-8.465C402.468,274.613,406.261,270.821,410.937,270.821z"/>
	<g>
		<path fill-rule="evenodd" clip-rule="evenodd" d="M359.419,252.425c25.551,1.101,35.256,32.238,29.883,69.885
			c-5.37,37.647-30.45,67.283-56,66.182c-25.548-1.104-41.913-32.526-36.54-70.174C302.137,280.668,333.868,251.321,359.419,252.425
			L359.419,252.425z"/>
		<path fill-rule="evenodd" clip-rule="evenodd" fill="#F5F6F6" d="M359.024,259.1c22.26,0.938,30.739,28.106,26.087,60.972
			c-4.656,32.862-26.483,58.753-48.744,57.815c-22.258-0.934-36.538-28.348-31.884-61.211
			C309.136,283.811,336.763,258.165,359.024,259.1L359.024,259.1z"/>
		<path fill-rule="evenodd" clip-rule="evenodd" fill="#FFFFFF" d="M356.243,265.949c18.725,0.768,25.855,23.08,21.94,50.068
			c-3.913,26.987-22.272,48.248-40.994,47.481c-18.723-0.774-30.732-23.282-26.817-50.271
			C314.288,286.24,337.521,265.181,356.243,265.949L356.243,265.949z"/>
		<path fill-rule="evenodd" clip-rule="evenodd" fill="#00A0C6" d="M360.015,270.084c12.19,0.87,16.061,16.566,12.557,35.331
			c-3.504,18.763-16.232,33.27-28.424,32.401c-12.188-0.873-19.235-16.794-15.733-35.557
			C331.918,283.493,347.823,269.211,360.015,270.084L360.015,270.084z"/>
		<path fill-rule="evenodd" clip-rule="evenodd" d="M361.38,270.355c11.655,0.472,16.034,12.338,13.523,26.648
			c-2.513,14.311-14.003,25.533-25.658,25.062c-11.655-0.478-19.07-12.464-16.559-26.776
			C335.197,280.978,349.722,269.878,361.38,270.355L361.38,270.355z"/>
		<path fill-rule="evenodd" clip-rule="evenodd" fill="#EBF1F5" d="M370.746,327.975c-4.366,8.008-17.998,23.589-29.047,23.943
			c4.462,3.811,3.378,7.051,1.501,10.216C359.813,355.594,370.661,337.916,370.746,327.975L370.746,327.975z"/>
		<path fill-rule="evenodd" clip-rule="evenodd" fill="#FFFFFF" d="M346.3,273.242c4.677,0,8.47,3.789,8.47,8.468
			c0,4.677-3.793,8.466-8.47,8.466c-4.677,0-8.467-3.789-8.467-8.466C337.833,277.031,341.623,273.242,346.3,273.242z"/>
		<circle fill-rule="evenodd" clip-rule="evenodd" fill="#FFFFFF" cx="371.188" cy="309.016" r="4.665"/>
	</g>
	<circle fill-rule="evenodd" clip-rule="evenodd" fill="#FFFFFF" cx="444.812" cy="286.203" r="4.666"/>
	<path fill-rule="evenodd" clip-rule="evenodd" d="M394.473,219.551c0.172,5.792,4.418,4.006,6.485,0.498
		c23.351-39.548,71.002,41.892,71.844,52.955C471.327,221.802,392.48,153.209,394.473,219.551L394.473,219.551z"/>
	<path fill-rule="evenodd" clip-rule="evenodd" d="M332.109,415.376c1.995,2.829,3.99,5.661,5.986,8.492
		c45.046-25.928,88.524-29.674,129.717-0.997c0.665-1.667,1.33-3.331,1.995-4.998C430.948,391.935,385.739,388.633,332.109,415.376
		L332.109,415.376z"/>
	<path fill-rule="evenodd" clip-rule="evenodd" d="M320.133,404.886c12.641,13.153,21.586,26.311,23.947,39.462
		C344.462,422.229,337.928,415.436,320.133,404.886L320.133,404.886z"/>
	<path fill-rule="evenodd" clip-rule="evenodd" d="M479.784,407.072c-8.811,10.898-14.559,21.799-14.851,32.697
		C461.819,421.441,466.372,415.813,479.784,407.072L479.784,407.072z"/>
	<path fill-rule="evenodd" clip-rule="evenodd" d="M366.533,431.859c17.247-20.914,50.316-21.25,73.839-7.494
		C415.094,418.873,390.479,421.372,366.533,431.859L366.533,431.859z"/>
</g>
</svg>
