<?xml version="1.0" encoding="utf-8"?>
<!-- Generator: Adobe Illustrator 17.0.0, SVG Export Plug-In . SVG Version: 6.00 Build 0)  -->
<!DOCTYPE svg PUBLIC "-//W3C//DTD SVG 1.1//EN" "http://www.w3.org/Graphics/SVG/1.1/DTD/svg11.dtd">
<svg version="1.1" id="Layer_1" xmlns="http://www.w3.org/2000/svg" xmlns:xlink="http://www.w3.org/1999/xlink" x="0px" y="0px"
	 width="800px" height="600px" viewBox="0 0 800 600" enable-background="new 0 0 800 600" xml:space="preserve">
<g>
	<path fill="none" d="M565.373,360.168c-8.749,0.19-17.177,2.708-25.851,2.254c0.596,3.939,1.004,7.878,1.79,11.779
		c11.666-2.67,23.701-0.985,35.595-1.695C576.347,364.847,574.966,359.961,565.373,360.168z"/>
	<path fill="none" d="M561.623,251.574c11.372-7.159,13.086-22.092,7.547-33.692c-3.797-7.944-10.634-15.548-19.043-13.152
		c-0.132,0.823-0.624,1.562-1.647,2.055c-1.713,0.795-3.295,1.799-4.801,2.935c0.871,0.294,1.619,0.966,1.903,2.159
		c1.904,8.389,4.375,16.609,7.074,24.781c1.345,4.073-5.066,5.796-6.402,1.752c-2.671-8.068-5.103-16.212-7.007-24.506
		c-5.805,6.685-8.731,15.946-7.036,24.847C534.958,253.166,548.499,259.842,561.623,251.574z"/>
	<path fill="none" d="M568.886,433.935c-10.293,1.288-20.643,2.377-31.059,3.276C539.133,448.498,569.71,441.264,568.886,433.935z"
		/>
	<path fill="none" d="M254.429,445.677c-2.263,9.355,17.841,7.698,25.652,6.003c0.218-1.761,0.474-3.522,0.588-5.312
		c0.01-0.066,0.038-0.105,0.056-0.161C272.146,446.444,263.103,446.529,254.429,445.677z"/>
	<path fill="none" d="M241.428,205.573c2.822,7.007,3.598,15.094,3.778,23.123c0.417-8.683,1.496-17.214,3.504-25.51
		c-1.099-1.174-1.402-2.935,0.189-4.28c9.555-7.954,22.073-8.466,34.146-7.85c23.607,1.202,47.167,3.503,70.859,2.756
		c29.062-0.9,58.056-3.485,87.136-4.365c13.134-0.398,33.19-4.498,45.491,0.975c1.724,0.777,1.979,2.301,1.45,3.636
		c5.653,5.832,6.534,13.788,6.836,22.423c0.758,21.628,5.881,42.204,8.409,63.529c0.171,1.45,0.284,2.869,0.435,4.319
		c-0.464-30.18,0.171-60.5-5.302-89.826c-1.042-0.36-1.762-1.26-1.742-2.642c-0.502-0.511-0.872-1.193-0.918-2.102
		c-0.048-1.117-0.54-2.168-1.231-3.106c-1.269,0.341-2.727,0.038-3.626-1.411c-5.947-9.536-26.097-1.714-35.178-1.013
		c-16.951,1.288-33.891,2.112-50.879,2.102c-25.113-0.018-50.178-1.146-75.272-1.23c-10.378-0.039-95.119,0.814-87.78,17.13
		C242.29,203.489,242.034,204.645,241.428,205.573z"/>
	<path fill="none" d="M260.698,383.104c-11.411-15.776-8.266-51.078-9.45-68.142c-1.099-15.936-3.428-32.707-4.914-49.562
		c1.296,20.786,3.181,41.532,3.39,62.394c0.151,16.401-1.108,34.572,2.935,50.594c3.513,13.92,13.096,16.25,23.806,16.184
		c-5.502-0.975-10.625-3.173-15.17-7.803C260.149,385.613,260.13,384.221,260.698,383.104z"/>
	<path fill="none" d="M546.236,320.853c10.549,3.011,21.694-1.289,26.381-11.61c4.942-10.871,0.559-20.814-8.769-26.902
		c-0.085-0.019-0.151,0.01-0.228-0.019c-5.274-1.486-10.918-1.202-16.05,0.502c1.259,7.31,4.233,14.175,6.846,21.078
		c1.524,4.015-4.886,5.729-6.392,1.761c-2.48-6.524-5.236-13.01-6.609-19.876c-3.343,2.188-6.241,5.095-8.21,8.778
		C526.88,306.326,533.897,317.33,546.236,320.853z"/>
	<path fill="none" d="M221.296,422.155c11.373,20.15,42.281,15.113,61.816,16.25c16.373,0.947,32.177-0.341,48.521-1.174
		c36.997-1.875,74.003-1.723,111.037-2.349c34.402-0.568,69.003-1.477,103.187-5.757c8.987-1.127,63.397-0.852,53.824-20.019
		c-0.739-1.477-0.312-2.897,0.587-3.845c2.283-24.695-3.891-49.42-5.236-74.106c-1.638-29.942-1.979-59.922-2.651-89.902
		c-0.483-21.24,5.606-87.118-16.287-97.307c-0.256-0.113-0.417-0.294-0.616-0.455c-72.516-0.966-145.951-0.066-218.391,3.22
		c-26.125,1.174-51.901,3.645-78.055,2.802c-22.281-0.71-57.166-3.778-67.668,20.634c0.398,0.501,0.711,1.098,0.739,1.912
		c1.468,44.212-2.046,88.576,2.764,132.656c4.129,37.763,2.67,76.843,7.727,114.229
		C222.782,420.337,222.176,421.416,221.296,422.155z M580.429,378.899c-13.54,1.439-27.508-1.553-40.708,2.528
		c-1.733,0.54-3.618-0.616-4.081-2.311c-1.449-5.255-1.79-10.558-2.651-15.927c-0.152-0.919,0.084-1.695,0.483-2.349
		c-1.468-2.017,0.284-5.862,3.598-5.275c12.129,2.159,27.441-6.514,39.004-0.322c7.282,3.892,7.254,13.106,7.67,20.331
		C583.857,377.526,582.133,378.719,580.429,378.899z M541.008,203.461c0.095-0.9,0.521-1.771,1.468-2.414
		c29.193-19.743,52.459,43.341,20.681,57.232c-15.397,6.704-33.512,2.33-37.025-16.059
		C523.338,227.532,528.49,211.69,541.008,203.461z M527.467,291.223c7.471-12.055,21.032-18.437,34.818-15.899
		c0.852-0.454,1.903-0.559,3.002,0.048c13.4,7.433,20.728,22.774,13.068,37.224c-7.017,13.219-22.471,19.895-36.599,13.617
		C527.741,319.981,518.348,305.957,527.467,291.223z M315.563,178.5c36.523-0.35,73.036,2.282,109.56,0.843
		c19.413-0.757,38.617-4.507,57.943-4.848c1.8-0.018,3.362,0.208,4.81,0.568c0.455-0.057,0.928-0.076,1.401,0
		c3.23,0.426,6.212,1.78,8.608,3.769c1.677-0.644,3.769-0.161,4.328,2.083c8.039,32.064,5.776,65.452,7.206,98.216
		c0.852,19.858,0.473,40.472,4.678,59.979c2.955,13.749,6.344,26.779,5.937,40.888c-0.416,14.317-15.151,17.593-26.636,16.514
		c-32.205-3.012-63.786,2.386-96.019,3.078c-40.567,0.843-82.241,2.945-122.751,1.705c-11.988-0.369-23.796-3.021-27.129-16.259
		c-7.661-30.359-3.987-63.378-5.786-94.447c-0.88-14.981-2.613-29.971-3.011-44.97c-0.323-12.301,1.486-28.967-4.47-40.027
		c-0.805-1.515-0.36-2.925,0.568-3.863C230.064,176.379,303.045,178.614,315.563,178.5z"/>
	<path fill="none" d="M507.146,375.319c0.673,0.208,1.326,0.55,1.818,1.241c0.123,0.123,0.256,0.255,0.379,0.378
		c2.216,1.383,2.064,4.328,0,5.73c-10.815,7.442-33.503-0.483-45.718,0.331c-28.578,1.875-57.308,2.378-85.839,4.745
		c-23.872,1.989-47.773,3.485-71.607,5.757c23.967-0.435,47.924,0,71.901-0.245c30.888-0.323,61.816-5.275,92.629-5.066
		c9.346,0.066,19.014,2.623,28.313,1.884c25.322-2.027,10.644-37.006,8.675-49.183c-0.322-1.989-0.568-3.987-0.844-5.985
		c0.399,5.103,0.881,10.208,1.582,15.312C509.655,359.174,510.688,367.508,507.146,375.319z"/>
	<path fill="none" d="M498.813,376.56c9.508-13.058,0.928-28.531,0.427-42.575c-0.53-14.942,0.171-30.197-1.591-45.054
		c-2.121-17.888-7.13-35.425-8.38-53.426c-0.719-10.521,1.922-31.732-7.85-38.455c-0.786-0.55-1.193-1.269-1.363-2.027
		c-15.672-4.612-43.511,1.117-58.464,1.913c-19.299,1.041-38.625,2.613-57.962,3.219c-20.908,0.644-42.034,0.521-62.895-1.25
		c-13.21-1.118-33.379-4.678-45.387,3.428c0.114,0.473,0.133,1.004-0.009,1.572c-7.661,30.302-0.313,63.047,1.458,93.737
		c0.909,15.795,3.569,31.542,4.213,47.299c0.445,10.739-1.515,28.134,6.742,36.249c0.957,0.938,1.099,2.045,0.824,3.012
		c14.734,10.009,47.593,1.449,63.709,0.378c25.037-1.657,49.998-4.072,75.082-5.057c23.598-0.909,49.572-6.088,73.074-3.73
		c6.088,0.615,25.358,9.516,23.238,4.905C500.953,382.611,496.531,379.676,498.813,376.56z M277.8,223.716
		c27.726,7.31,63.207,0.815,91.72-0.739c30.813-1.685,61.446-5.19,92.335-5.568c4.29-0.048,4.28,6.571,0,6.629
		c-33.843,0.416-67.412,4.848-101.218,5.947c-27.272,0.88-57.999,7.14-84.607,0.132C271.89,229.019,273.651,222.636,277.8,223.716z
		 M275.148,260.76c36.694-2.708,73.501-4.782,110.232-6.951c28.361-1.657,58.189-0.038,86.2-3.656c4.242-0.549,4.195,6.089,0,6.629
		c-31.145,4.034-64.041,2.046-95.565,4.423c-33.598,2.538-67.27,3.712-100.867,6.202
		C270.867,267.711,270.905,261.082,275.148,260.76z M278.68,296.156c63.624,6.212,131.103-1.118,194.679-6.193
		c4.262-0.34,4.234,6.297,0,6.638c-63.577,5.075-131.055,12.385-194.679,6.193C274.457,302.387,274.428,295.739,278.68,296.156z
		 M283.992,335.094c34.687,0.057,68.852-7.888,103.528-7.074c34.014,0.795,67.876,0.559,101.767-2.661
		c4.262-0.407,4.214,6.231,0,6.629c-37.195,3.532-74.012,1.136-111.169,2.651c-31.504,1.269-62.554,7.141-94.126,7.093
		C279.712,341.723,279.712,335.094,283.992,335.094z M490.167,360.188c-31.419,7.499-62.905,1.212-94.673,3.674
		c-37.186,2.85-74.164,7.31-111.502,5.303c-4.261-0.228-4.28-6.875,0-6.648c37.556,2.027,74.117-3.911,111.502-5.302
		c30.993-1.136,62.384,3.863,92.903-3.409C492.563,352.812,494.334,359.203,490.167,360.188z"/>
	<path fill="#0C0A0A" d="M214.762,424.153c6.259,12.736,18.778,18.352,33.105,20.691c-3.467,17.272,26.012,16.088,36.116,12.689
		c1.486-0.502,2.329-1.648,2.433-3.201c0.19-2.67,0.711-5.284,0.9-7.964c0.01-0.143-0.047-0.237-0.056-0.36
		c5.321-0.18,10.349-0.332,14.81-0.256c56.57,0.928,114.626-3.295,171.29-4.914c19.091-0.54,38.418-1.506,57.688-3.02
		c1.013,19.658,47.119,12.745,44.496-4.716c1.667-0.217,3.362-0.378,5.019-0.615c15.179-2.169,32.508-7.387,25.927-24.223
		c0.105-0.256,0.228-0.511,0.266-0.824c3.551-31.409-4.669-64.675-6.08-96.207c-1.335-29.876-1.24-59.789-2.263-89.665
		c-0.644-18.835,3.021-68.889-16.637-81.881c-0.218-1.458-1.23-2.775-3.115-2.803c-86.512-1.231-174.5-0.53-260.813,5.426
		c-33.493,2.311-100.224-13.702-114.039,28.872c-0.587,1.8,0.379,3.106,1.714,3.693c1.25,43.293-1.762,86.663,2.717,129.843
		c3.94,38.029,2.86,77.346,7.841,114.996C214.734,420.583,213.854,422.306,214.762,424.153z M280.669,446.368
		c-0.113,1.79-0.369,3.551-0.588,5.312c-7.812,1.695-27.915,3.352-25.652-6.003c8.675,0.852,17.718,0.767,26.296,0.53
		C280.707,446.263,280.678,446.302,280.669,446.368z M537.827,437.211c10.416-0.9,20.766-1.989,31.059-3.276
		C569.71,441.264,539.133,448.498,537.827,437.211z M214.866,304.717c-4.81-44.08-1.296-88.443-2.764-132.656
		c-0.028-0.815-0.341-1.411-0.739-1.912c10.501-24.412,45.387-21.344,67.668-20.634c26.155,0.843,51.93-1.628,78.055-2.802
		c72.44-3.286,145.875-4.186,218.391-3.22c0.199,0.161,0.36,0.341,0.616,0.455c21.893,10.189,15.804,76.067,16.287,97.307
		c0.672,29.98,1.013,59.96,2.651,89.902c1.345,24.686,7.519,49.411,5.236,74.106c-0.899,0.947-1.326,2.368-0.587,3.845
		c9.573,19.166-44.837,18.892-53.824,20.019c-34.184,4.28-68.785,5.189-103.187,5.757c-37.034,0.625-74.04,0.473-111.037,2.349
		c-16.344,0.833-32.148,2.122-48.521,1.174c-19.535-1.136-50.443,3.901-61.816-16.25c0.88-0.739,1.486-1.818,1.297-3.21
		C217.536,381.56,218.995,342.48,214.866,304.717z"/>
	<path fill="#0C0A0A" d="M234.231,205.591c5.957,11.061,4.147,27.726,4.47,40.027c0.398,14.999,2.13,29.989,3.011,44.97
		c1.799,31.069-1.875,64.088,5.786,94.447c3.333,13.238,15.141,15.89,27.129,16.259c40.51,1.24,82.184-0.862,122.751-1.705
		c32.233-0.691,63.814-6.089,96.019-3.078c11.486,1.079,26.221-2.197,26.636-16.514c0.407-14.109-2.983-27.14-5.937-40.888
		c-4.204-19.508-3.825-40.122-4.678-59.979c-1.43-32.764,0.833-66.152-7.206-98.216c-0.559-2.244-2.651-2.727-4.328-2.083
		c-2.395-1.989-5.378-3.343-8.608-3.769c-0.473-0.076-0.947-0.057-1.401,0c-1.449-0.36-3.011-0.587-4.81-0.568
		c-19.326,0.341-38.53,4.091-57.943,4.848c-36.523,1.439-73.037-1.193-109.56-0.843c-12.518,0.113-85.499-2.122-80.764,23.228
		C233.871,202.666,233.426,204.077,234.231,205.591z M252.658,378.387c-4.043-16.022-2.784-34.193-2.935-50.594
		c-0.209-20.861-2.094-41.608-3.39-62.394c1.486,16.856,3.816,33.626,4.914,49.562c1.184,17.064-1.961,52.365,9.45,68.142
		c-0.568,1.117-0.549,2.509,0.596,3.664c4.546,4.63,9.668,6.827,15.17,7.803C265.754,394.637,256.171,392.308,252.658,378.387z
		 M507.696,340.89c1.969,12.177,16.647,47.156-8.675,49.183c-9.299,0.739-18.966-1.818-28.313-1.884
		c-30.813-0.208-61.74,4.744-92.629,5.066c-23.977,0.245-47.934-0.19-71.901,0.245c23.834-2.272,47.735-3.768,71.607-5.757
		c28.531-2.367,57.261-2.869,85.839-4.745c12.216-0.814,34.904,7.111,45.718-0.331c2.064-1.402,2.216-4.347,0-5.73
		c-0.123-0.123-0.256-0.255-0.379-0.378c-0.493-0.691-1.145-1.033-1.818-1.241c3.542-7.812,2.509-16.145,1.288-25.102
		c-0.7-5.104-1.183-10.209-1.582-15.312C507.127,336.902,507.374,338.901,507.696,340.89z M480.442,375.793
		c-23.503-2.358-49.477,2.822-73.074,3.73c-25.084,0.985-50.046,3.4-75.082,5.057c-16.117,1.07-48.975,9.631-63.709-0.378
		c0.274-0.967,0.133-2.074-0.824-3.012c-8.257-8.115-6.297-25.51-6.742-36.249c-0.644-15.757-3.305-31.504-4.213-47.299
		c-1.772-30.69-9.119-63.435-1.458-93.737c0.142-0.568,0.123-1.099,0.009-1.572c12.007-8.105,32.177-4.546,45.387-3.428
		c20.861,1.771,41.987,1.894,62.895,1.25c19.337-0.606,38.663-2.178,57.962-3.219c14.952-0.796,42.792-6.525,58.464-1.913
		c0.171,0.757,0.577,1.477,1.363,2.027c9.772,6.723,7.131,27.934,7.85,38.455c1.25,18.001,6.259,35.538,8.38,53.426
		c1.762,14.857,1.061,30.112,1.591,45.054c0.501,14.044,9.081,29.516-0.427,42.575c-2.282,3.116,2.14,6.051,4.868,4.138
		C505.801,385.31,486.531,376.408,480.442,375.793z M329.511,185.101c25.094,0.084,50.158,1.212,75.272,1.23
		c16.987,0.01,33.928-0.815,50.879-2.102c9.081-0.701,29.231-8.522,35.178,1.013c0.9,1.449,2.357,1.752,3.626,1.411
		c0.691,0.938,1.184,1.989,1.231,3.106c0.047,0.91,0.416,1.591,0.918,2.102c-0.019,1.383,0.7,2.283,1.742,2.642
		c5.473,29.326,4.839,59.647,5.302,89.826c-0.151-1.45-0.265-2.869-0.435-4.319c-2.528-21.325-7.651-41.901-8.409-63.529
		c-0.303-8.636-1.183-16.591-6.836-22.423c0.529-1.335,0.274-2.86-1.45-3.636c-12.3-5.474-32.356-1.373-45.491-0.975
		c-29.08,0.88-58.075,3.466-87.136,4.365c-23.692,0.748-47.251-1.553-70.859-2.756c-12.073-0.616-24.591-0.104-34.146,7.85
		c-1.591,1.345-1.288,3.106-0.189,4.28c-2.008,8.295-3.087,16.826-3.504,25.51c-0.179-8.03-0.956-16.117-3.778-23.123
		c0.606-0.928,0.862-2.084,0.303-3.342C234.392,185.914,319.133,185.062,329.511,185.101z"/>
	<path fill="#0C0A0A" d="M276.029,230.117c26.609,7.008,57.336,0.749,84.607-0.132c33.806-1.099,67.375-5.531,101.218-5.947
		c4.28-0.057,4.29-6.676,0-6.629c-30.888,0.378-61.522,3.883-92.335,5.568c-28.513,1.553-63.993,8.049-91.72,0.739
		C273.651,222.636,271.89,229.019,276.029,230.117z"/>
	<path fill="#0C0A0A" d="M471.58,256.783c4.195-0.539,4.242-7.177,0-6.629c-28.01,3.618-57.839,1.998-86.2,3.656
		c-36.732,2.168-73.539,4.242-110.232,6.951c-4.242,0.322-4.28,6.951,0,6.647c33.598-2.49,67.27-3.664,100.867-6.202
		C407.539,258.828,440.434,260.816,471.58,256.783z"/>
	<path fill="#0C0A0A" d="M473.359,296.602c4.234-0.341,4.262-6.979,0-6.638c-63.577,5.075-131.055,12.405-194.679,6.193
		c-4.252-0.417-4.223,6.231,0,6.638C342.304,308.987,409.783,301.677,473.359,296.602z"/>
	<path fill="#0C0A0A" d="M283.992,341.732c31.571,0.047,62.621-5.824,94.126-7.093c37.157-1.515,73.974,0.881,111.169-2.651
		c4.214-0.398,4.262-7.036,0-6.629c-33.891,3.219-67.753,3.456-101.767,2.661c-34.677-0.815-68.842,7.131-103.528,7.074
		C279.712,335.094,279.712,341.723,283.992,341.732z"/>
	<path fill="#0C0A0A" d="M488.397,353.805c-30.519,7.272-61.91,2.273-92.903,3.409c-37.385,1.391-73.946,7.329-111.502,5.302
		c-4.28-0.227-4.261,6.42,0,6.648c37.338,2.007,74.316-2.453,111.502-5.303c31.769-2.462,63.255,3.825,94.673-3.674
		C494.334,359.203,492.563,352.812,488.397,353.805z"/>
	<path fill="#0C0A0A" d="M563.157,258.279c31.779-13.891,8.513-76.975-20.681-57.232c-0.947,0.644-1.373,1.515-1.468,2.414
		c-12.518,8.229-17.67,24.071-14.877,38.758C529.645,260.609,547.76,264.983,563.157,258.279z M539.247,213.906
		c1.903,8.294,4.336,16.439,7.007,24.506c1.335,4.043,7.746,2.32,6.402-1.752c-2.699-8.171-5.17-16.391-7.074-24.781
		c-0.284-1.194-1.033-1.866-1.903-2.159c1.506-1.136,3.087-2.14,4.801-2.935c1.023-0.493,1.516-1.231,1.647-2.055
		c8.409-2.396,15.246,5.208,19.043,13.152c5.54,11.6,3.825,26.533-7.547,33.692c-13.124,8.267-26.666,1.591-29.412-12.821
		C530.517,229.852,533.442,220.591,539.247,213.906z"/>
	<path fill="#0C0A0A" d="M541.757,326.212c14.128,6.279,29.581-0.398,36.599-13.617c7.66-14.45,0.332-29.791-13.068-37.224
		c-1.099-0.606-2.15-0.501-3.002-0.048c-13.787-2.538-27.347,3.845-34.818,15.899C518.348,305.957,527.741,319.981,541.757,326.212z
		 M533.205,294.565c1.969-3.684,4.868-6.591,8.21-8.778c1.373,6.866,4.129,13.352,6.609,19.876c1.506,3.968,7.916,2.254,6.392-1.761
		c-2.613-6.903-5.587-13.768-6.846-21.078c5.132-1.705,10.776-1.989,16.05-0.502c0.076,0.029,0.142,0,0.228,0.019
		c9.327,6.088,13.711,16.031,8.769,26.902c-4.687,10.321-15.832,14.62-26.381,11.61C533.897,317.33,526.88,306.326,533.205,294.565z
		"/>
	<path fill="#0C0A0A" d="M576.073,355.244c-11.562-6.192-26.874,2.481-39.004,0.322c-3.314-0.587-5.066,3.258-3.598,5.275
		c-0.398,0.654-0.635,1.429-0.483,2.349c0.861,5.369,1.202,10.672,2.651,15.927c0.464,1.695,2.349,2.851,4.081,2.311
		c13.2-4.081,27.168-1.089,40.708-2.528c1.705-0.18,3.429-1.373,3.314-3.324C583.327,368.35,583.355,359.137,576.073,355.244z
		 M541.312,374.202c-0.786-3.901-1.194-7.841-1.79-11.779c8.674,0.454,17.102-2.064,25.851-2.254
		c9.593-0.207,10.975,4.679,11.534,12.339C565.013,373.217,552.978,371.532,541.312,374.202z"/>
	<g>
		<path fill="#0C0A0A" d="M222.366,167.317c-12.083,18.692-5.161,41.835-7.083,62.563c-0.189,2.093,3.078,2.074,3.267,0
			c1.866-20.065-5.037-42.848,6.638-60.916C226.343,167.184,223.511,165.547,222.366,167.317L222.366,167.317z"/>
	</g>
	<g>
		<path fill="#0C0A0A" d="M224.109,197.543c-0.029,26.249-2.055,52.763,2.017,78.831c0.322,2.074,3.475,1.194,3.153-0.861
			c-4.025-25.757-1.932-52.043-1.903-77.97C227.375,195.431,224.109,195.431,224.109,197.543L224.109,197.543z"/>
	</g>
	<g>
		<path fill="#0C0A0A" d="M217.309,243.052c1.733,7.746,0.208,15.757,1.96,23.522c0.455,2.055,3.608,1.184,3.145-0.871
			c-1.742-7.747-0.218-15.757-1.961-23.522C219.998,240.135,216.845,241.007,217.309,243.052L217.309,243.052z"/>
	</g>
	<g>
		<path fill="#0C0A0A" d="M235.387,180.328c7.168-5.132,14.412-10.473,23.133-12.575c2.045-0.493,1.174-3.646-0.871-3.153
			c-9.006,2.168-16.505,7.604-23.911,12.907C232.043,178.718,233.672,181.558,235.387,180.328L235.387,180.328z"/>
	</g>
	<g>
		<path fill="#0C0A0A" d="M232.441,168.567c3.731-2.708,7.908-4.554,12.358-5.72c2.035-0.53,1.165-3.674-0.872-3.144
			c-4.697,1.222-9.194,3.181-13.134,6.042C229.108,166.966,230.737,169.807,232.441,168.567L232.441,168.567z"/>
	</g>
	<g>
		<path fill="#0C0A0A" d="M258.908,160.726c8.248-4.006,18.229-5.085,27.225-5.909c9.185-0.833,19.402-1.468,28.361,1.174
			c2.026,0.596,2.888-2.557,0.871-3.153c-9.271-2.736-19.725-2.093-29.231-1.278c-9.612,0.815-20.094,2.083-28.873,6.344
			C255.367,158.823,257.024,161.635,258.908,160.726L258.908,160.726z"/>
	</g>
	<g>
		<path fill="#0C0A0A" d="M276.55,167.582c3.702-1.733,7.547-1.552,11.477-0.815c2.064,0.398,2.945-2.755,0.871-3.144
			c-4.867-0.928-9.431-1.004-13.996,1.136C272.989,165.66,274.656,168.472,276.55,167.582L276.55,167.582z"/>
	</g>
	<g>
		<path fill="#0C0A0A" d="M323.205,161.872c3.352-1.363,8.513,0.171,11.865,0.975c2.055,0.493,2.917-2.651,0.872-3.144
			c-3.883-0.946-9.716-2.557-13.607-0.984C320.411,159.495,321.244,162.658,323.205,161.872L323.205,161.872z"/>
	</g>
	<g>
		<path fill="#0C0A0A" d="M523.244,208.47c-7.093,13.607-7.141,29.847-3.097,44.383c0.56,2.026,3.713,1.165,3.145-0.862
			c-3.788-13.674-3.912-29.052,2.774-41.874C527.041,208.262,524.228,206.605,523.244,208.47L523.244,208.47z"/>
	</g>
	<g>
		<path fill="#0C0A0A" d="M518.348,199.654c-2.13,3.4-2.869,7.396-4.081,11.165c-0.654,2.017,2.5,2.869,3.144,0.871
			c1.136-3.494,1.78-7.235,3.759-10.387C522.297,199.513,519.465,197.874,518.348,199.654L518.348,199.654z"/>
	</g>
	<g>
		<path fill="#0C0A0A" d="M531.52,188.396c2.102,0,2.102-3.276,0-3.276C529.408,185.119,529.408,188.396,531.52,188.396
			L531.52,188.396z"/>
	</g>
	<g>
		<path fill="#0C0A0A" d="M534.636,193.793c5.852-5.701,13.152-9.175,21.382-9.317c2.111-0.038,2.111-3.314,0-3.276
			c-9.091,0.171-17.225,3.978-23.693,10.284C530.81,192.96,533.13,195.261,534.636,193.793L534.636,193.793z"/>
	</g>
	<g>
		<path fill="#0C0A0A" d="M558.413,193.234c13.086-5.198,19.592,17.585,22.499,26.296c0.654,1.989,3.817,1.136,3.145-0.871
			c-3.485-10.454-11.023-34.733-26.505-28.579C555.61,190.848,556.453,194.011,558.413,193.234L558.413,193.234z"/>
	</g>
	<g>
		<path fill="#0C0A0A" d="M577.967,193.073c0.966,4.83,1.961,9.64,4.081,14.109c0.91,1.903,3.722,0.246,2.822-1.647
			c-1.988-4.195-2.85-8.806-3.75-13.333C580.704,190.138,577.559,191.009,577.967,193.073L577.967,193.073z"/>
	</g>
	<g>
		<path fill="#0C0A0A" d="M527.429,270.874c-5.331,4.223-11.088,8.702-9.242,16.286c0.493,2.046,3.646,1.174,3.144-0.871
			c-1.487-6.136,4.224-9.792,8.399-13.115C531.387,271.867,529.058,269.566,527.429,270.874L527.429,270.874z"/>
	</g>
	<g>
		<path fill="#0C0A0A" d="M566.642,271.47c-1.07,0.578-1.156-0.038,0.028,0.748c0.795,0.521,1.544,1.118,2.282,1.724
			c2.046,1.647,3.987,3.428,5.899,5.246c3.437,3.257,8.286,7.31,9.981,11.893c0.72,1.951,3.883,1.108,3.145-0.871
			c-2.084-5.625-7.604-10.331-11.856-14.318c-2.168-2.035-4.422-3.977-6.79-5.776c-1.155-0.871-2.812-2.272-4.337-1.458
			C563.138,269.642,564.786,272.464,566.642,271.47L566.642,271.47z"/>
	</g>
	<g>
		<path fill="#0C0A0A" d="M576.991,267.559c1.051,4.204,2.263,8.276,5.313,11.495c1.458,1.534,3.759-0.777,2.311-2.311
			c-2.642-2.784-3.57-6.43-4.479-10.056C579.624,264.643,576.47,265.513,576.991,267.559L576.991,267.559z"/>
	</g>
	<g>
		<path fill="#0C0A0A" d="M530.365,326.098c3.655,3.513,7.972,5.947,13.077,6.468c5.842,0.587,11.676-0.578,17.48-1.089
			c2.084-0.19,2.102-3.447,0-3.268c-10.16,0.9-20.103,3.409-28.247-4.422C531.16,322.329,528.84,324.64,530.365,326.098
			L530.365,326.098z"/>
	</g>
	<g>
		<path fill="#0C0A0A" d="M538.536,343.01c3.211,1.363,6.923,0.227,10.076-0.815c1.997-0.644,1.146-3.807-0.862-3.144
			c-2.055,0.672-5.417,2.045-7.566,1.136C538.272,339.384,536.595,342.196,538.536,343.01L538.536,343.01z"/>
	</g>
	<g>
		<path fill="#0C0A0A" d="M471.731,156.049c31.685,0.076,64.089,6.268,95.507-0.057c2.065-0.417,1.184-3.561-0.872-3.153
			c-31.078,6.259-63.283,0.01-94.636-0.057C469.629,152.772,469.629,156.049,471.731,156.049L471.731,156.049z"/>
	</g>
	<g>
		<path fill="#0C0A0A" d="M439.393,159.969c1.033,0,2.897-0.256,3.75,0.501c1.563,1.392,3.883-0.909,2.311-2.311
			c-1.667-1.486-3.948-1.458-6.06-1.458C437.291,156.701,437.291,159.969,439.393,159.969L439.393,159.969z"/>
	</g>
	<g>
		<path fill="#0C0A0A" d="M403.788,164.211c0.01-0.18,0-0.143-0.028,0.113c0.019-0.105,0.161-0.427-0.018-0.029
			c0.038-0.066,0.076-0.142,0.113-0.199c0.189-0.331-0.237,0.256,0.028-0.038c0.048-0.056,0.104-0.104,0.161-0.151
			c-0.303,0.266-0.048,0.038,0.047-0.01c0.332-0.199-0.341,0.105,0.018-0.009c0.361-0.114-0.368,0.018,0,0
			c0.89-0.039,1.639-0.72,1.639-1.629c0-0.872-0.749-1.667-1.639-1.639c-1.932,0.067-3.522,1.657-3.589,3.59
			c-0.038,0.89,0.767,1.638,1.629,1.638C403.069,165.849,403.75,165.101,403.788,164.211L403.788,164.211z"/>
	</g>
	<g>
		<path fill="#0C0A0A" d="M229.487,376.712c-8.125,7.519-4.432,22.773-0.256,31.381c2.727,5.635,7.036,10.199,12.736,12.812
			c5.54,2.538,11.761,3.267,17.641,4.602c2.055,0.464,2.926-2.689,0.871-3.153c-10.434-2.357-20.737-3.418-26.95-13.228
			c-2.926-4.64-4.488-10.189-5.151-15.596c-0.596-4.896-0.455-10.918,3.418-14.507C233.35,377.592,231.03,375.281,229.487,376.712
			L229.487,376.712z"/>
	</g>
	<g>
		<path fill="#0C0A0A" d="M273.216,424.523c3.371-1.099,6.79-1.837,10.35-1.895c2.102-0.038,2.102-3.305,0-3.275
			c-3.835,0.066-7.575,0.833-11.221,2.026C270.356,422.022,271.209,425.185,273.216,424.523L273.216,424.523z"/>
	</g>
	<g>
		<path fill="#0C0A0A" d="M222.148,339.64c0,3.692,0.199,7.414,2.188,10.625c1.099,1.799,3.92,0.151,2.812-1.648
			c-1.675-2.717-1.733-5.862-1.733-8.976C225.415,337.538,222.148,337.538,222.148,339.64L222.148,339.64z"/>
	</g>
	<g>
		<path fill="#0C0A0A" d="M477.072,424.523c15.605-5.966,33.152-4.81,49.552-4.584c15.151,0.208,32.092,0.928,45.898-6.363
			c1.865-0.975,0.218-3.797-1.648-2.823c-13.806,7.292-31.107,6.108-46.22,5.891c-16.041-0.228-33.19-1.108-48.455,4.734
			C474.249,422.117,475.102,425.28,477.072,424.523L477.072,424.523z"/>
	</g>
	<g>
		<path fill="#0C0A0A" d="M538.811,409.825c10.048-3.825,20.947-2.935,31.363-4.905c2.074-0.389,1.194-3.542-0.871-3.144
			c-10.426,1.969-21.297,1.07-31.363,4.895C535.999,407.421,536.842,410.574,538.811,409.825L538.811,409.825z"/>
	</g>
	<g>
		<path fill="#0C0A0A" d="M582.91,402.213c1.941-2.841,4.479-5.17,7.85-6.108c2.027-0.559,1.165-3.712-0.872-3.153
			c-4.213,1.165-7.376,4.072-9.8,7.614C578.904,402.307,581.736,403.936,582.91,402.213L582.91,402.213z"/>
	</g>
	<g>
		<path fill="#0C0A0A" d="M588.033,410.205c-0.018,0.473-0.038,0.237,0.019,0.076c-0.143,0.445,0.018,0,0.085-0.113
			c0.038-0.066,0.368-0.502,0.132-0.218c0.123-0.142,0.256-0.284,0.389-0.426c0.104-0.095,0.208-0.189,0.322-0.284
			c0.142-0.123,0.142-0.133-0.01-0.019c0.066-0.047,0.142-0.094,0.218-0.151c0.132-0.095,0.274-0.171,0.416-0.237
			c-0.416,0.208,0.332,0.038-0.265,0.066c0.89-0.038,1.638-0.7,1.638-1.628c0-0.852-0.748-1.686-1.638-1.629
			c-1.184,0.057-2.168,0.777-2.992,1.572c-0.815,0.795-1.516,1.837-1.582,2.992c-0.047,0.89,0.786,1.638,1.638,1.638
			C587.333,411.842,587.985,411.095,588.033,410.205L588.033,410.205z"/>
	</g>
	<g>
		<path fill="#0C0A0A" d="M440.378,421.644c2.613,0.056,4.962,1.07,7.405,1.903c1.997,0.682,2.85-2.472,0.861-3.153
			c-2.736-0.928-5.331-1.951-8.266-2.017C438.266,418.329,438.266,421.596,440.378,421.644L440.378,421.644z"/>
	</g>
</g>
</svg>
