<?xml version="1.0" encoding="utf-8"?>
<!-- Generator: Adobe Illustrator 17.0.0, SVG Export Plug-In . SVG Version: 6.00 Build 0)  -->
<!DOCTYPE svg PUBLIC "-//W3C//DTD SVG 1.1//EN" "http://www.w3.org/Graphics/SVG/1.1/DTD/svg11.dtd">
<svg version="1.1" id="Layer_1" xmlns="http://www.w3.org/2000/svg" xmlns:xlink="http://www.w3.org/1999/xlink" x="0px" y="0px"
	 width="800px" height="600px" viewBox="0 0 800 600" enable-background="new 0 0 800 600" xml:space="preserve">
<g>
	<path d="M193.944,383.432c4.227,5.208,21.744,15.888,32.537,14.189c12.668-1.997,15.946-10.384,16.726-20.833
		c1.048-13.998-2.013-30.027-4.406-43.824c-6.296-36.228-23.572-67.916-32.911-103.447c-13.752-52.349-21.692-114.227,18.02-162.716
		c38.12-46.557,99.798-52.625,155.511-29.454c27.328,11.365,51.388,31.353,67.284,55.671c14.773,22.601,26.749,55.154,20.59,82.255
		c9.143,13.831,15.527,26.377,21.661,41.663c9.048,22.53,19.381,51.046,8.791,74.446c56.19,16.74,110.333,42.376,133.887,98.478
		c4.075,9.694,9.17,26.853,6.872,31.336c-15.384-6.813-42.488-20.483-57.324-28.366c-28.326-15.054-57.47-31.215-87.766-42.264
		c-8.95,41.851,0.015,97.978,5.104,124.344c5.089,26.359,12.584,55.652,13.235,58.187c21.636,6.469,21.324,25.342,9.677,35.561
		c-24.952,21.886-86,14.681-104.879,11.44c-39.198-6.711-65.165-22.382-85.561-57.534c-14.106-24.314-21.102-47.166-24.823-75.119
		c-15.271,14.575-43.837,5.807-61.751-0.235C204.419,433.724,190.08,406.957,193.944,383.432z"/>
	<path fill="#ECC4A1" d="M311.727,326.002c-2.591,71.319-6.911,201.94,77.384,237.578c33.908,13.795,104.827,17.266,128.047-2.401
		c6.001-5.083,3.504-14.9-1.586-18.131c-5.088-3.239-10.436-3.481-16.799-0.996c-6.365,2.49-11.2,5.471-12.98,6.713
		c-1.784,1.244-0.256-11.686,19.466-14.837c-10.696-41.621-22.143-83.633-23.539-126.665c-0.511-15.665-1.021-35.811,3.551-60.427
		c-15.611-5.486-36.865-13.135-47.347-26.607c-4.214-5.431-8.143-16.411,2.29-20.146c9.604-3.431,20.475-1.292,29.018,3.979
		c4.839,2.985,4.819,9.11,2.301,7.707c-7.932-4.414-26.48-8.704-28.258-2.488c-1.784,6.223,6.667,11.382,10.202,13.799
		c8.937,6.086,19.193,10.215,29.375,13.85c20.256,7.222,39.381,15.536,58.299,25.69c29.273,15.703,58.082,32.345,88.518,45.865
		c-10.632-36.928-36.436-65.017-70.235-83.658c-17.624-9.721-37.39-18.116-56.59-24.245c-13.593-4.341-25.971-6.717-30.546-7.709
		c-4.587-0.998,8.145-4.477,16.701-3.422c5.187-9.758,3.883-28.995,2.795-35.656c-2.063-12.618-6.063-24.862-11.009-36.665
		c-8.816-21.042-20.925-41.961-35.592-59.552c-21.03-27.955-58.625-62.641-97.985-58.109c-44.443,6.2-56.851,53.891-59.491,90.844
		c-0.738,10.359-1.488,18.993-0.959,31.115c0.169,3.802,2.015,23.937,4.306,35.877c15.271,0.246,19.087,16.163,15.892,24.168
		c-0.89,2.23-2.803,1.305-3.166-1.292c-1.099-7.872-7.189-19.446-17.032-13.643c-15.944,9.404-17.613,33.806-5.515,46.621
		c6.361,6.742,24.583,10.048,34.766-2.634C317.946,308.109,316.26,319.977,311.727,326.002z"/>
	<path fill="#DAA782" d="M432.339,331.915c-2.682-4.452-4.644-9.744-3.664-14.983c0.49-2.637,1.371-5.179,2.807-7.486
		c0.777-1.242,1.613-2.44,2.553-3.574c-1.532,4.75,1.1,10.765,3.889,14.356c10.483,13.472,31.736,21.121,47.347,26.607
		c-1.307,7.065-2.172,13.718-2.764,20.042c-7.068-3.034-13.987-6.38-20.629-10.188C450.976,350.45,438.907,342.815,432.339,331.915z
		"/>
	<path fill="#DAA782" d="M456.087,533.38c9.277-1.599,21.167-7.426,22.741-17.282c2.778,5.613,1.29,15.54-0.127,20.502
		c-2.313,8.091-7.165,15.738-16.726,16.104c-18.712,0.723-36.932-13.543-33.741-32.328
		C434.736,529.022,444.559,535.362,456.087,533.38z"/>
	<path fill="#DAA782" d="M383.471,172.498c22.028-6.869,45.859-4.025,64.987,8.522c-21.151-4.923-42.328-8.806-63.156,0.473
		c-8.318,3.708-17.514,8.956-23.235,16.123c-2.28,2.843-4.367,5.832-6.69,8.645c-1.722,2.074-6.384,8.46-8.018,2.974
		C342.212,191.942,369.715,176.79,383.471,172.498z"/>
	<path fill="#DAA782" d="M484.99,261.905c-0.352,0.033-0.702,0.213-0.94,0.6c-5.087,8.395-16.555,3.681-24.375,2.549
		c-4.764-0.69-9.304-0.388-13.216,1.93C450.226,249.712,476.87,245.785,484.99,261.905z"/>
	<path fill="#DAA782" d="M393.848,248.853c9.85-4.973,19.721-3.097,27.978,2.974c-8.068,0.379-14.55,4.043-20.165,10.084
		c-3.693,3.978-16.801,22.687-23.843,17.484c-4.971-3.67,1.211-14.721,3.477-18.256C384.442,256.24,388.488,251.55,393.848,248.853z
		"/>
	<path fill="#DAA782" d="M339.194,411.106c13.276,21.125,22.918,44.368,28.695,68.504c6.273,26.232,11.075,53.112,13.195,80.137
		c-60.163-31.959-70.102-116.615-70.382-184.727C322.106,385.537,331.499,398.855,339.194,411.106z"/>
	<path fill="#DAA782" d="M351.635,269.962c3.139-0.886,6.419-0.979,9.681-1.171c-1.419,2.958-2.088,6.373-3.308,9.343
		c-0.979,2.372-2.182,5.275-4.506,6.697c-2.124,1.298-6.949,3.979-8.122,0.073C343.823,279.727,345.689,271.636,351.635,269.962z"/>
	<path fill="#DAA782" d="M326.366,116.815c-8.816,16.357-12.395,34.425-12.974,52.778c-0.665,21.18,1.161,45.225-9.129,64.692
		c-3.56,6.738-8.622,11.534-14.468,15.39c-1.67-11.459-2.904-25.173-3.039-28.245c-0.529-12.122,0.221-20.756,0.959-31.115
		c2.478-34.758,13.622-79.026,51.932-89.302C333.921,105.064,329.653,110.717,326.366,116.815z"/>
	<path fill="#DAA782" d="M292.129,301.223c-7.718-2.08-10.171-12.653-4.385-18.124c4.644-4.391,10.93-4.929,16.353-1.786
		c0.306,0.761,0.761,1.234,1.249,1.361c0.223,1.759,0.327,3.526,0.217,5.235C305.14,294.501,300.549,303.493,292.129,301.223z"/>
	<path fill="#7C4726" d="M269.672,256.688c-0.135,6.582-0.35,13.168-0.525,19.752c1.678-3.774,3.931-7.328,6.732-10.486
		c2.945-3.337,6.965-6.332,11.374-7.749c-5.356-13.581-7.587-55.948-7.236-66.999c1.021-32.409,9.093-65.686,34.512-85.459
		c-3.426-5.175-7.782-9.642-14.2-11.163c-7.007-1.659-14.05,2.641-19.085,6.886c-10.196,8.583-17.203,22.013-19.352,34.886
		c-3.447,20.633,1.079,40.913,4.541,61.234C269.765,217.157,270.09,236.894,269.672,256.688z"/>
	<path fill="#65391B" d="M304.859,436.213c-4.025-36.267-2.232-73.723-0.817-108.283c-2.228,0.196-4.391,0.169-6.515,0.012
		c5.586,39.516,11.445,93.995-27.315,118.079C283.861,448.217,297.581,446.817,304.859,436.213z"/>
	<path fill="#6F3C1A" d="M266.276,445.295c40.677-22.791,34.168-78.343,28.572-117.655c-1.955-0.288-3.87-0.692-5.698-1.282
		c1.567,27.043,3.82,52.862-2.459,79.679c-2.238,9.55-8.564,20.527-16.526,26.528c-4.256,3.208-12.284,8.07-21.49,8.185
		C253.888,442.765,260.195,444.018,266.276,445.295z"/>
	<path fill="#7C4726" d="M244.842,438.436c3.952,0.127,11.892-1.386,18.47-4.835c11.096-5.817,18.428-18.318,21.138-29.877
		c6.04-25.813,3.476-52.318,2.007-78.378c-6.576-2.776-12.094-7.611-15.925-14.279c-0.508-0.875-0.971-1.774-1.394-2.676
		c0.117,2.841,0.267,5.684,0.477,8.528c1.186,15.828,3.816,31.503,4.654,47.368c0.746,14.164,0.148,29.452-5.706,42.659
		c-4.914,11.073-13.633,23.08-36.301,25.846C234.772,434.07,243.563,437.893,244.842,438.436z"/>
	<path fill="#8B512C" d="M228.365,430.145c18.537,0.69,32.368-13.537,36.436-21.294c7.684-14.675,7.589-32.416,6.607-48.46
		c-0.971-15.694-3.272-31.271-4.677-46.942c-1.884-20.925,0.194-50.321,0.398-61.847c0.377-21.113-1.117-41.659-4.842-62.464
		c-3.178-17.768-5.946-35.469-2.939-53.466c2.989-17.893,19.193-47.17,41.68-43.572c6.82,1.092,11.878,6.436,15.594,12.02
		c1.682-1.213,3.42-2.378,5.248-3.476c6.321-3.789,12.726-6.244,19.152-7.655c-5.063-15.569-32.376-17.493-45.882-15.642
		c-21.332,2.918-36.426,18.804-44.381,37.453c-8.92,20.882-0.609,41.846,5.557,62.147c6.863,22.57,6.784,41.202,0.621,63.9
		c-0.436,1.603-3.304,4.733-2.87,3.12c4.018-14.792,5.809-29.662,4.379-44.937c-1.165-12.461-5.669-24.429-9.356-36.328
		c-3.247-10.492-5.573-21.128-4.835-32.139c0.771-11.513,5.882-22.518,12.436-31.946c11.39-16.396,30.55-25.55,50.779-24.418
		c12.895,0.717,31.642,4.923,36.032,18.27c16.274-2.855,32.599,1.127,47.868,8.829c-5.434-20.104-25.984-30.567-45.986-35.317
		c-22.372-5.317-47.176-5.136-68.527,3.747c-12.436,5.167-23.674,13.187-32.259,23.393c-9.758,11.592-12.851,25.513-11.296,40.209
		c3.06,28.804,18.816,49.479,20.919,78.681c0.123,1.657-1.296,5.108-1.413,3.456c-2.386-33.105-23.937-60.479-22.537-94.281
		c1.119-27.076,26.603-46.84,50.461-55.752c22.199-8.289,48.685-6.732,71.203-0.431c19.852,5.546,38.182,17.728,42.528,37.909
		c10.496,5.69,20.45,13.062,29.473,21.078c0.798-10.058-9.967-23.437-16.582-30.679c-7.322-8.01-13.543-12.71-21.957-19.608
		c-21.054-17.255-46.476-24.871-73.925-24.248c-26.473,0.605-51.817,12.651-69.518,31.761c-8.608,9.291-14.452,21.555-17.559,33.633
		c-3.337,12.945-1.657,22.824,2.67,35.104c0.559,1.569-0.162,5.367-0.713,3.801c-4.177-11.842-7.149-23.66-5.204-36.213
		c1.917-12.405,8.493-25.709,16.563-35.373c17.584-21.073,44.091-33.495,71.645-35.202c28.889-1.794,57.759,8.485,79.933,26.161
		c10.331,8.231,18.42,15.225,27.943,28.068c5.456,7.362,10.677,15.844,9.079,24.956c8.687,7.966,16.467,16.453,22.953,24.473
		c0.077,0.104,0.15,0.198,0.223,0.292c-5.098-47.926-43.322-86.965-88.612-103.397c-23.372-8.481-49.271-10.486-73.416-4.043
		c-28.835,7.705-54.204,29.073-67.27,55.146c-0.748,1.5-1.19-1.865-0.446-3.351c13.28-26.507,36.398-44.788,65.092-53.731
		c24.896-7.743,52.472-4.992,76.74,3.485c47.714,16.672,87.43,59.235,90.884,109.702c3.13,4.016,6.19,8.083,9.116,12.263
		c4.273-30.094-13.839-63.36-32.203-86.025c-19.958-24.635-49.573-39.673-80.231-47.428
		c-63.408-16.039-126.373,19.952-142.365,81.724c-8.116,31.351-4.191,65.877,2.178,97.116
		c7.134,35.015,22.582,67.286,32.735,101.403c4.079,13.714,5.279,22.53,7.399,36.607c1.521,10.085,2.082,24.627-0.181,34.66
		c-1.807,7.985-7.318,15.454-15.259,18.312c-12.295,4.423-21.921,1.015-31.726-5.617c-0.338,6.586,2.438,12.42,6.836,17.547
		c11.344,3.428,22.12,0.942,29.742-3.585c7.407-4.387,11.878-12.215,14.664-19.975c5.594-15.592,5.085-33.218,3.483-49.431
		c-2.616-26.661-12.04-52.19-16.121-78.622c-4.367-28.218-0.729-57.197-9.552-84.783c-0.511-1.593,2.353,1.09,2.857,2.674
		c9.765,30.523,4.829,59.735,10.938,90.882c5.165,26.273,13.654,51.892,15.219,78.747c0.984,16.84,0.083,35.402-8.477,50.471
		c-7.218,12.72-24.666,20.932-39.481,17.03C217.264,423.666,222.035,426.7,228.365,430.145z"/>
	<path fill="#A45F2E" d="M439.448,110.26c-12.982-24.306-34.425-44.429-59.479-57.311c-28.158-16.211-61.722-23.45-93.22-11.94
		c-0.632,0.183-1.282,0.346-1.913,0.534c-13.514,4.216-25.765,10.521-36.357,18.756c-9.237,5.969-18.051,12.741-26.127,20.181
		c26.519-39.629,76.503-59.662,126.79-46.94c30.657,7.755,60.273,22.793,80.231,47.428c18.364,22.664,36.476,55.93,32.203,86.025
		c-1.221-1.74-2.48-3.454-3.737-5.162C456.549,143.551,449.561,126.081,439.448,110.26z"/>
	<path fill="#A45F2E" d="M254.438,90.537c8.91-6.926,18.501-12.932,28.508-17.722c27.553-13.195,57.132-10.757,82.351,3.574
		c9.289,7.237,17.693,15.861,25.11,24.454c-6.688-3.295-13.562-5.875-20.552-7.468c-9.671-13.847-35.7-18.026-51.046-19.312
		c-5.813-0.488-11.57-0.413-17.241,0.129c-5.623,0.244-11.111,1.253-16.307,3.01c-11.517,3.168-22.37,8.475-32.128,15.573
		C253.74,92.046,254.178,91.302,254.438,90.537z"/>
	<path fill="#A45F2E" d="M258.446,199.032c1.311,14.075-0.129,27.803-3.493,41.447c-3.101-18.618-7.472-37.011-10.077-55.705
		c-0.211-1.509-0.39-3.041-0.552-4.587c4.031,11.388,7.589,22.934,8.483,35.283c0.117,1.651,1.536-1.799,1.413-3.456
		c-1.082-15.035-5.775-27.816-10.49-40.607c-0.233-7.453,0.286-15.013,1.886-22.268c0.886,4.558,2.082,9.075,3.474,13.566
		C252.777,174.602,257.281,186.571,258.446,199.032z"/>
	<path fill="#A45F2E" d="M249.701,422.328c31.292-21.473,17.186-66.742,13.67-97.182c-2.77-23.945-3.529-48.072-6.538-71.994
		c-0.407-3.287-0.896-6.565-1.411-9.829c0.65-0.769,1.325-1.767,1.515-2.476c6.163-22.699,6.242-41.33-0.621-63.9
		c-3.426-11.286-7.51-22.77-8.939-34.337c2.459-7.539,6.261-14.579,11.892-20.602c2.534-2.707,5.094-5.102,7.678-7.234
		c-3.929,7.103-6.561,14.685-7.599,20.896c-3.007,17.997-0.238,35.698,2.939,53.466c3.726,20.806,5.219,41.352,4.842,62.464
		c-0.204,11.526-2.282,40.923-0.398,61.847c1.405,15.671,3.706,31.248,4.677,46.942c0.982,16.044,1.077,33.785-6.607,48.46
		c-3.576,6.817-14.687,18.62-29.906,20.915C240.101,427.911,245.086,425.492,249.701,422.328z"/>
	<path d="M349.89,283.87c1.699-4.531,3.172-7.76,8.477-10.108c1.424-0.632,4.346-0.538,2.912,0.1
		c-4.892,2.163-6.719,6.969-9.273,11.219C351.208,286.408,349.348,285.327,349.89,283.87z"/>
	<path d="M455.422,512.757c-7.27,4.012-16.221-0.561-22.141-4.946c-13.487-10.008-21.465-24.366-28.285-39.271
		c-16.309-35.625-22.286-75.954-22.639-114.829c-0.167-18.566,1.105-47.91,12.051-58.105c1.547,19.362,9.885,51.311,19.262,68.81
		c4.048,7.551,8.887,16.153,16.766,20.394c3.329,1.797,7.882,2.649,11.388,1.851c4.266-0.961,9.093-4.016,13.933-8.995
		c1.759-1.809,1.269,9.204-9.17,15.175c9.789,23.797,20.225,80.663,18.143,99.587C463.602,502.684,462.344,508.934,455.422,512.757z
		"/>
	<path fill="#FFFFFF" d="M439.609,393.77c-9.692,2.416-21.888-8.718-29.417-21.634c-8.635-14.792-15.042-33.825-18.351-61.186
		c-5.6,10.446-4.364,60.521-0.486,80.648c16.234,25.381,44.32,22.699,54.727,20.386C445.305,409.166,442.769,399.958,439.609,393.77
		z"/>
	<path d="M465.203,249.826c9.977-0.744,22.922,9.873,22.115,13.943c-0.65,3.253-3.781,4.329-5.53,1.801
		c-5.431-7.849-12.801-11.003-20.438-10.002c6.844,1.044,13.791,4.037,16.548,9.698c0.671,1.38,0.384,3.737-0.294,2.345
		c-3.868-7.951-15.973-11.286-24.633-8.401c-5.233,3.103-5.069,7.359-7.145,5.554C444.338,263.476,448.367,251.089,465.203,249.826z
		"/>
	<path d="M371.005,271.417c6.644-11.803,17.293-29.154,32.561-30.782c7.818-0.834,14.935,3.354,19.9,8.956
		c4.508,5.088,0.884,8.16-2.078,4.235c-0.019-0.021-0.035-0.035-0.052-0.06c-13.451-6.601-24.737,4.239-31.219,15.337
		c-0.782,1.334-0.825-1.747-0.04-3.093c6.273-10.742,14.598-18.631,26.795-16.277c-8.879-5.715-19.723-0.265-27.316,8.162
		c-4.712,5.221-8.556,11.186-11.982,17.272C375.218,279.339,368.715,275.491,371.005,271.417z"/>
	<path d="M345.532,201.838c2.038-6.463,7.126-14.172,17.86-21.494c15.2-10.358,31.911-13.797,49.46-12.226
		c-20.944-4.846-42.622-3.572-62.612,6.501c-1.401,0.711,0.904-2.105,2.303-2.816c26.63-13.595,54.64-10.844,82.493,1.182
		c0.106,0.042,0.169,0.108,0.244,0.169c3.443,1.299,6.974,2.835,10.288,4.56c7.637,3.979,14.312,10.919,11.457,9.452
		c-6.05-3.106-20.423-9.229-26.993-11.065c-26.038-7.278-49.996-2.801-68.579,14.36c-5.754,5.311-9.794,13.554-11.595,22.07
		C348.356,219.63,343.496,208.305,345.532,201.838z"/>
	<path d="M447.608,207.817c5.286-1.038,12.462,7.12,16.032,11.442c9.675,11.686,13.762,21.148,16.421,21.609
		c1.73,0.29-1.401-5.694-3.691-10.421c-2.291-4.725-10.546-19.131-18.583-25.611c-5.857-4.729-10.09-5.875-14.227-3.608
		c-3.845,2.109-5.119,8.331-4.356,10.317C439.905,213.361,442.514,208.809,447.608,207.817z"/>
	<path d="M371.983,247.344c0.784-6.451,6.913-26.674,10.459-33.556c2.903-5.64,6.592-10.865,12.741-13.643
		c3.243-1.196,8.13,0.959,11.949,6.428c1.43,2.051,3.055-2.24,0.792-6.536c-2.634-5.008-7.67-8.879-14.281-7.145
		c-5.596,1.476-10.692,7.215-14,14.179C365.249,237.373,371.677,249.862,371.983,247.344z"/>
	<path d="M429.911,519.299c10.783,18.06,42.459,12.699,45.875-8.064c0.498-3.037,2.897,1.407,2.401,4.425
		c-4.11,24.994-36.113,29.366-48.852,8.012C427.736,520.996,428.327,516.629,429.911,519.299z"/>
	<path fill="#F1D3BA" d="M600.307,365.923c-6.223-9.727-29.629-29.638-50.79-40.667c-21.161-11.019-45.148-20.669-62.076-24.806
		c-16.93-4.133,26.1,24.806,46.555,33.768C554.451,343.18,603.836,371.436,600.307,365.923z"/>
	<path fill="#F1D3BA" d="M429.594,143.315c-6.659-8.574-21.163-23.426-40.208-32.389c-19.045-8.958-33.156-10.34-41.62-7.58
		C339.303,106.1,445.115,163.303,429.594,143.315z"/>
	<path fill="#F1D3BA" d="M358.029,267.344c-3.529,0-10.536-2.947-13.923,0.261c-3.397,3.212-6.922,7.347-6.922,10.104
		s-5.642-8.958,3.526-15.853C349.882,254.966,363.671,267.344,358.029,267.344z"/>
	<path d="M344.105,267.605c7.484-5.34,17.345-1.728,17.486-1.547c0.855-0.211,1.724-0.367,2.607-0.465
		c1.571-0.169,1.551,2.224,0,2.389c-6.061,0.657-13.368,6.198-16.884,10.892c-0.923,1.225-0.223-1.78,0.709-3.026
		c2.836-3.783,5.531-6.496,10.006-8.504c-5.19-1.113-10.144-0.529-14.608,2.882C342.191,271.163,342.829,268.513,344.105,267.605z"
		/>
	<path fill="#F1D3BA" d="M496.608,546.481c-9.406,1.027-15.517,11.036-16.223,15.165
		C479.678,565.781,534.703,542.35,496.608,546.481z"/>
</g>
</svg>
