<?xml version="1.0" encoding="utf-8"?>
<!-- Generator: Adobe Illustrator 17.0.0, SVG Export Plug-In . SVG Version: 6.00 Build 0)  -->
<!DOCTYPE svg PUBLIC "-//W3C//DTD SVG 1.1//EN" "http://www.w3.org/Graphics/SVG/1.1/DTD/svg11.dtd">
<svg version="1.1" id="Layer_1" xmlns="http://www.w3.org/2000/svg" xmlns:xlink="http://www.w3.org/1999/xlink" x="0px" y="0px"
	 width="800px" height="600px" viewBox="0 0 800 600" enable-background="new 0 0 800 600" xml:space="preserve">
<g>
	<path d="M583.702,282.938c-10.189,6.371-17.186,11.217-25.412,17.24c-0.701,25.865-7.081,56.056-14.264,73.982
		c-9.2,22.973-24.471,50.096-40.683,68.901c-15.379,17.836-34.462,32.391-53.587,45.933c-8.6,6.089-50.749,32.811-66.716,51.403
		c-9.742-37.495-32.667-74.331-48.777-109.149c-7.498-16.206-14.657-34.121-16.015-58.691c-0.881-15.907,0.426-36.874,2.457-44.987
		c-11.735-1.936-22.017-5.055-33.249-8.531c-15.724-4.864-27.168-10.357-41.271-18.84c-12.943-7.788-25.103-12.613-38.478-28.415
		c-9.194-10.857-14.669-26.802-15.184-40.674c-0.381-10.324,1.549-18.906,10.558-23.012c15.709-7.159,33.929,10.042,17.878,25.718
		c1.142-5.991-1.247-9.772-4.666-11.04c-7.51-2.802-9.481,7.09-7.95,11.93c2.523,8.001,6.446,11.663,11.274,15.229
		c8.307,6.134,18.975,7.68,28.987,8.208c18.505,0.977,37.348-1.36,54.975,5.898c8.211-11.936,24.237-18.481,37.686-21.717
		c17.294-4.163,35.313-2.604,53.03-1.726c-0.045-0.096-0.075-0.207-0.072-0.336c0.087-10.818,1.49-20.183,3.719-30.734
		c-3.41-0.59-10.503-1.52-10.995-1.936c-0.491-0.414-0.348-6.14,4.133-5.568c1.966,0.249,7.768,0.908,8.771,1.085
		c-0.057-0.108,0.516-4.567,1.064-7.288c-2.718,3.209-9.982,3.083-15.715,2.442c-8.583-0.953-17.588-1.912-20.77-11.849
		c-3.066-9.556,1.783-20.896,9.811-27.905c3.941-3.44,8.514-6.914,14.043-8.574c0.638-18.577,1.795-37.785-9.515-53.65
		c-5.008-7.027-13.557-12.913-21.843-7.429c-3.955,2.619-6.455,9.251-8.618,14.861c19.041-2.053,17.989,29.814,15.835,42.874
		c-4.75,28.801-36.027,55.933-65.304,43.117c-28.891-12.652-53.218-44.981-37.89-76.572c6.446-13.287,18.376-24.585,32.083-30.006
		c14.833-5.861,27.021,1.373,37.42,11.669c3.042,3.015,6.119,5.868,9.632,8.31c5.13-14.561,17.576-27.537,31.112-34.166
		c15.805-7.732,34.57-8.007,51.121-3.419c20.899,5.802,38.849,21.25,53.348,36.713c14.468,15.427,30.827,35.592,36.41,54.237
		c9.64,3.581,22.194,6.826,27.345,22.143c3.377,10.06-4.013,19.374-12.781,23.629c0.003,0.908,0.455,1.909,0.74,3.269
		c3.06-1.519,6.77-2.149,10.012-0.527c3.599,1.807,4.954,7.177,4.285,10.818c-0.602,3.27-3.473,5.376-6.596,5.793
		c-1.474,0.198-2.841-0.162-4.058-0.845c2.568,6.278,6.524,12.068,8.199,18.714c0,0.006,0,0.009,0,0.012
		c11.603-0.782,23.234-0.485,34.855-1.187c8.28-0.497,16.011-2.221,23.815-4.891c7.363-2.517,10.162-5.981,11.322-7.669
		c5.724-8.355-9.437-8.739-11.223,2.988c-0.674-0.105-1.187-6.008-1.238-6.871c-1.231-21.088,28.205-19.44,31.687-0.587
		C634.08,251.884,604.116,270.181,583.702,282.938z"/>
	<path fill="#FFFCEB" d="M323.531,381.362c2.451,18.166,9.883,38.301,17.836,54.708c15.331,31.633,34.534,61.516,43.833,95.709
		c17.953-16.509,36.88-30.576,56.907-44.453c19.802-13.719,39.254-28.016,55.925-45.514c17.417-18.289,29.107-40.183,39.059-63.194
		c10.558-24.408,16.179-49.455,16.23-76.059c-6.287,4.588-29.482,20.467-44.097,26.314c-14.651,32.964-36.209,36.254-65.781,32.646
		c-26.59-3.242-48.73-13.152-69.197-36.788c-20.219,6.824-38.978,5.85-48.478,3.165
		C323.552,334.868,319.836,353.969,323.531,381.362z"/>
	<path fill="#FFFFFF" d="M502.65,330.826c-28.505,10.959-48.172,11.642-80.162,7.549c-20.953-2.679-35.325-10.231-39.955-11.208
		c11.331,13.344,31.672,25.337,54.109,29.544C467.127,362.426,491.928,357.373,502.65,330.826z"/>
	<path fill="#EAC295" d="M395.754,240.262c0,0.165-0.054,0.291-0.126,0.401c2.478,0.114,4.954,0.216,7.417,0.282
		c-1.319-1.16-2.469-2.517-3.383-4.072c-4.321-7.363-2.029-17.501,5.049-22.227c2.448-1.639,4.98-2.601,7.465-2.982
		c-4.052-1.172-8.097-1.756-12.2-2.565C397.762,219.564,395.847,229.531,395.754,240.262z"/>
	<path fill="#FFFFFF" d="M420.954,240.388c3.629-1.729,9.287-9.275,6.008-17.609c-3.285-8.334-13.761-10.977-21.681-4.702
		c-5.247,4.156-5.795,11.576-2.97,17.249C403.762,238.216,410.681,245.282,420.954,240.388z"/>
	<path fill="#F6E6D2" d="M390.294,203.367c-1.405,0-1.657,2.161-1.27,2.418c0.38,0.252,8.181,1.13,15.415,2.547
		c7.729,1.516,19.368,5.352,21.534,5.223c2.164-0.129,2.481-2.104,1.54-2.739C424.568,208.842,396.665,203.367,390.294,203.367z"/>
	<path fill="#FFFFFF" d="M339.716,106.504c-0.114-0.042-0.221-0.063-0.345-0.144c-0.024-0.015-0.042-0.033-0.069-0.045
		c-0.156-0.075-0.309-0.153-0.468-0.225c-0.222-0.096-0.381-0.269-0.504-0.461c-10.866-7.687-18.28-20.525-32.727-21.585
		c-13.659-0.992-26.308,9.529-34.546,19.239c-9.742,11.483-14.15,25.37-10.791,40.156c3.557,15.664,15.253,28.589,28.247,37.318
		c14.324,9.619,30.237,12.583,45.67,3.788c12.445-7.09,22.155-21.025,26.095-34.633c3.458-11.945,5.202-49.26-16.032-42.34
		c-0.09,0.03-0.165,0.015-0.255,0.03c-0.081,0.012-0.15,0.051-0.246,0.054c-0.042,0-0.081-0.012-0.129-0.012
		c-0.015,0-0.03-0.003-0.045-0.006C342.177,107.616,340.948,107.083,339.716,106.504z"/>
	<path fill="#C0001F" d="M476.162,108.53c-13.446-14.936-28.436-28.814-47.204-36.671c-15.721-6.581-34.049-7.753-50.261-2.478
		c-15.382,5.007-30.602,19.55-35.858,35.1c0.243,0.06,0.494,0.078,0.749,0.087c0.851-0.272,1.675-0.473,2.464-0.632
		c2.583-6.185,4.558-13.012,10.195-17.093c6.632-4.807,15.107-1.286,20.447,3.605c15.981,14.642,15.068,39.293,14.384,59.152
		c6.614-1.816,13.62-2.727,19.464-3.506c16.572-2.209,32.745-1.528,49.254,1.004c15.961,2.448,32.349,5.188,48.013,9.374
		C502.629,137.586,488.976,122.755,476.162,108.53z"/>
	<path fill="#FFFFFF" d="M529.66,170.139c-7.866-7.714-20.243-10.362-30.63-12.601c-24.297-5.238-49.634-10.914-74.597-9.74
		c-18.789,0.884-44.753,3.231-54.687,21.529c-4.927,9.08-3.039,20.866,4.114,23.458c8.792,3.189,16.691,3.317,20.258,3.057
		c3.569-0.252,5.859-1.145,7.516-3.182c0.371-1.666,1.18-5.586,1.528-7.255c-2.658,1.522-12.823,4.813-12.823-0.812
		c0-8.268,16.338-10.956,21.84-12.352c15.987-4.063,34.366-1.463,50.492,0.698c18.655,2.49,44.974,7.45,53.365,10.408
		c3.653,4.264,6.772,10.336,9.113,15.85C537.22,193.631,539.084,179.381,529.66,170.139z"/>
	<path d="M403.974,180.757c0.003-0.165,0.057-0.288,0.126-0.402c0.147-0.938,0.272-1.885,0.384-2.832
		c-2.44,0.788-4.822,1.714-7.108,2.964c-0.734,0.399-5.439,4.168-1.699,4.087c2.059-0.048,4.369-0.845,6.108-1.912
		c0.03-0.015,0.054-0.015,0.081-0.033c0.363-0.222,0.731-0.428,1.061-0.683C403.228,181.706,403.974,181.191,403.974,180.757z"/>
	<path fill="#EAC295" d="M525.593,214.724c-0.306-1.933,1.597-2.062,2.439-0.276c1.507,3.194,3.947,4.063,6.617,4.108
		c2.101,0.03,3.575-1.687,4.064-3.569c0.674-2.595-0.914-6.659-3.485-7.623c-2.499-0.932-6.596-0.959-10.674,1.717
		c-2.242-8.627-5.82-16.676-10.027-23.431c-20.83-5.1-59.428-10.135-71.424-11.453c-12.925-1.415-26.176-0.527-37.024,2.823
		c-1.768,9.649-3.77,26.095-3.935,26.215c10.959,2.173,20.827,3.974,26.143,6.254c3.09,1.327,2.131,5.115-0.686,5.643
		c-0.111,0.057-0.231,0.09-0.39,0.066c-0.021-0.003-0.042-0.003-0.066-0.009c-0.147,0.006-0.288,0.021-0.447,0.009
		c-0.162-0.006-0.282-0.066-0.389-0.141c-0.773-0.114-1.54-0.243-2.305-0.389c1.498,1.112,2.871,2.484,4.066,4.12
		c2.922-9.76,13.26-16.584,23.839-15.04c11.63,1.693,21.193,14.123,19.095,25.993c-3.908,22.143-32.616,19.41-41.459,3.479
		c-0.887,4.264-3.213,7.54-7.045,9.817c-4.522,2.694-9.779,2.832-14.315,1.055c-28.385-0.201-59.419-6.107-85.523,8.313
		c-4.81,2.655-9.278,5.93-13.291,9.688c-6.368,5.957-8.076,12.604,0.192,17.627c10.986,6.677,24.972,10.542,37.399,13.183
		c13.737,2.922,28.307,3.386,42.305,4.183c14.762,0.842,29.667,0.578,44.042-3.174c7.051-1.843,13.722-4.645,18.771-10.018
		c8.019-8.514,4.966-20.473-4.204-26.446c-6.257-4.076-14.405-4.171-21.45-2.658c-3.8,0.824-7.732,2.934-10.387,5.766
		c-1.57,1.672-7.36,8.66-3.782,10.983c1.654,1.076-0.078,3.982-1.549,2.649c-7.288-6.608,3.539-18.199,12.61-21.642
		c13.536-5.136,30.95,0.575,35.906,14.441c20.938-16.191,46.012-24.468,75.883-27.294
		C532.704,230.897,527.025,223.828,525.593,214.724z"/>
	<path fill="#FFFFFF" d="M430.462,226.897c1.37,14.052,29.568,23.515,36.829,5.334c3.905-9.769-3.692-21.492-12.784-24.843
		C443.57,203.361,429.093,212.84,430.462,226.897z"/>
	<path fill="#FFFCEB" d="M585.431,276.924c10.755-6.479,20.962-14.013,29.08-23.662c8.031-9.544,15.083-25.868,7.177-37.156
		c-7.075-10.093-22.302-8.154-22.302,3.186c5.415-4.477,16.719-3.674,13.863,4.84c-4.163,12.401-23.003,15.376-33.875,16.752
		c-20.716,2.628-41.408,0.707-62.128,4.486c-20.644,3.758-40.623,11.609-57.114,24.744c-0.024,0.015-0.048,0.027-0.063,0.042
		c2.134,15.352-12.769,23.686-24.18,27.045c-19.131,5.628-40.848,4.246-60.42,2.679c-20.516-1.636-41.22-5.535-60.42-13.152
		c-9.667-3.836-18.061-9.817-13.054-20.021c-14.756-5.835-30.938-5.313-46.521-5.34c-13.632-0.021-27.878-2.376-39.617-10.423
		c-11.978-8.211-14.145-24.519-6.494-29.871c5.625-3.941,11.516-0.524,13.71,4.642c2.044-6.857-1.891-13.788-9.44-15.673
		c-9.083-2.259-17.27,4.534-17.908,14.219c-0.863,13.069,2.151,25.856,10.83,40.261c6.811,11.316,18.358,18.553,29.248,25.274
		c23.015,14.204,47.183,24.798,73.608,30.788c15.418,3.494,31.882,6.859,47.633,4.052c13.045-2.325,17.854-9.254,31.462-5.811
		c1.918,0.483,6.074,3.95,4.156,3.467c-5.918-1.495-11.229-1.145-16.491,0.027c8.196,1.019,16.539,4.978,24.087,6.994
		c17.087,4.576,34.69,6.967,52.383,6.818c34.894-0.294,67.992-13.779,95.682-34.402C560.391,292.74,572.56,284.671,585.431,276.924z
		"/>
	<path d="M443.067,222.869c7.914,0,7.914,12.275,0,12.275C435.149,235.144,435.149,222.869,443.067,222.869z"/>
	<path d="M415.701,227.985c5.94,0,5.94,9.209,0,9.209C409.764,237.194,409.764,227.985,415.701,227.985z"/>
	<path d="M439.404,376.99c37.938,5.886,61.511-6.479,77.055-33.234c0.995-1.711,2.652-1.013,1.744,0.749
		c-16.641,32.311-45.056,41.867-79.982,33.944C436.291,378.018,437.451,376.69,439.404,376.99z"/>
	<path d="M441.388,187.562c1.133-2.463,3.932-7.102,7.252-6.856c11.735,0.866,25.043,10.339,31.864,21.001
		c0.258,3.06-4.255,8.397-7.261,9.811C468.811,206.834,452.857,191.257,441.388,187.562z"/>
	<path fill="#F6E6D2" d="M473.3,208.557c2.574-1.267,4.318-3.185,4.825-6.089c0.021-0.105,0.06-0.186,0.105-0.261
		c-6.638-10.123-18.19-17.402-29.91-19.997c-2.05,0.557-3.509,2.398-4.483,4.249C455.623,191.017,464.415,199.897,473.3,208.557z"/>
	<path fill="#FFFFFF" d="M442.039,231.707c3.153,0,3.153-4.882,0-4.882C438.895,226.825,438.895,231.707,442.039,231.707z"/>
	<path fill="#FFFFFF" d="M415.191,234.35c2.604,0,2.604-4.033,0-4.033C412.587,230.316,412.587,234.35,415.191,234.35z"/>
	<path fill="#E4EAEE" d="M313.303,157.032c-13.755-4.156-40.92-10.98-37.926,0c2.997,10.974,16.964,27.935,41.415,26.943
		C341.245,182.977,339.746,165.012,313.303,157.032z"/>
	<path fill="#E4EAEE" d="M406.108,170.502c-8.394,2.334-18.96,5.987-18.96,12.973c0,6.985-5.988,6.985-8.978-0.497
		c-3-7.486,3.935-17.174,16.464-20.462c30.435-7.983,57.876,1.996,44.903,3.494C426.564,167.511,415.089,168.006,406.108,170.502z"
		/>
	<path fill="#D37B62" d="M470.687,107.826c-8.364-8.475-28.861-27.657-45.694-33.668c-16.833-6.011-31.744-5.292-40.645-2.403
		c-8.894,2.883,23.812,10.821,38.238,17.318C437.016,95.563,488.242,125.623,470.687,107.826z"/>
	<path fill="#AD001E" d="M483.798,150.394c-8.091-1.834-34.549-7.12-51.723-6.701c-17.177,0.417-27.018,1.466-30.998,2.514
		c-3.977,1.043-2.727-14.66,25.55-15.289C454.901,130.286,501.391,154.37,483.798,150.394z"/>
	<path fill="#F4E0C8" d="M385.458,249.27c-7.192-1.253-32.487-2.982-54.037,4.639c-13.464,4.768,1.324,12.931,33.812,11.936
		C397.723,264.853,406.345,252.917,385.458,249.27z"/>
	<path fill="#F4E0C8" d="M433.202,257.889c-3.641,0.234-14.591,3.32-15.913,9.284c-1.331,5.969,10.276,8.619,20.881,5.304
		C448.781,269.162,449.117,256.894,433.202,257.889z"/>
	<path fill="#F4E0C8" d="M469.998,240.982c-1.858,0.533,7.291-8.948,14.585-9.278c7.297-0.336,7.956,2.982,3.983,4.639
		C484.583,237.997,474.64,239.654,469.998,240.982z"/>
	<path fill="#E2AC7F" d="M393.864,286.777c-19.784-1.022-81.936-4.327-58.127,2.166c23.809,6.491,67.711,8.346,83.794,6.491
		C435.608,293.583,429.725,288.635,393.864,286.777z"/>
	<path fill="#E2AC7F" d="M438.697,174.85c2.164,0,21.336,2.166,29.682,3.71c8.346,1.546,28.445,4.636,36.791,6.185
		c8.349,1.546-6.182,9.583-29.371,2.161C452.611,179.489,434.059,174.85,438.697,174.85z"/>
	<path fill="#F3EFCE" d="M444.361,315.878c-14.648,2.673-29.05,6.443-42.997,11.468c-0.95-0.318-1.435-0.516-1.435-0.516
		s24.696-11.196,51.828-15.136c16.605-2.406,32.101-2.02,45.697-3.275C480.274,312.792,461.556,312.744,444.361,315.878z"/>
	<path fill="#F3EFCE" d="M448.533,317.212c19.919-3.248,41.645-2.862,60.56-10.479c5.124-1.091,9.889-2.688,14.213-5.127
		c17.89-10.09,26.602-19.724,42.194-27.977c13.276-7.03,33.845-13.051,39.68-14.696c-9.161,3.188-18.493,5.61-27.132,10.339
		c-10.659,5.837-20.425,13.063-30.306,20.099c-18.891,13.44-38.528,24.351-61.534,28.852c-12.892,2.52-26.032,4.205-39.122,5.298
		c-11.684,0.974-23.344,1.666-34.867,4.019c-1.966,0.401-3.914,0.842-5.862,1.3c-0.668-0.177-1.265-0.348-1.825-0.509
		C418.817,323.331,433.579,319.654,448.533,317.212z"/>
	<path fill="#F3EFCE" d="M416.294,328.83c23.962-4.187,48.469-3.779,72.323-9.038c21.834-4.807,40.647-14.786,58.75-27.669
		c9.826-6.994,19.514-14.417,30.117-20.222c7.989-4.375,16.41-6.925,24.834-9.79c-5.044,4.001-13.443,10.387-20.306,14.267
		c-10.548,5.966-24.303,15.136-37.147,24.768c-12.841,9.634-27.066,17.887-49.997,25.226c-22.928,7.339-41.735,9.173-63.29,6.877
		c-8.87-0.944-15.769-2.193-20.851-3.341C412.575,329.519,414.43,329.153,416.294,328.83z"/>
	<path fill="#F3EFCE" d="M327.93,315.096c-10.324-3.911-20.542-8.1-31.052-11.504c-19.002-6.161-38.987-8.292-56.146-19.218
		c-8.397-5.346-15.996-11.78-22.859-18.978c4.504,3.794,9.94,7.704,16.479,11.441c18.888,10.788,37.612,7.797,66.964,19.263
		c24.879,9.715,43.818,22.394,49.02,26.041C342.644,320.736,335.167,317.835,327.93,315.096z"/>
	<path fill="#F3EFCE" d="M324.253,321.605c-7.15-2.445-13.794-6.197-20.743-9.149c-12.748-5.409-26.383-7.153-39.79-10.081
		c-7.078-3.344-13.578-6.758-19.275-9.943c-15.595-8.715-28.744-17.54-33.944-24.309c-6.82-8.879-9.922-18.082-11.184-22.847
		c10.339,15.963,23.395,30.036,39.197,40.096c7.6,4.836,15.811,8.882,24.498,11.348c11.082,3.143,22.359,5.202,33.33,8.834
		c10.983,3.635,21.681,8.004,32.508,12.053c5.913,2.208,11.954,4.465,18.148,5.897C341.946,323.568,333.906,323.076,324.253,321.605
		z"/>
	<path fill="#F3EFCE" d="M305.841,315.704c2.883,1.322,5.756,2.781,8.666,4.156c-3.225-0.656-6.551-1.426-9.955-2.307
		c-11.343-2.946-22.346-6.994-32.46-11.382C283.579,308.479,295.011,310.736,305.841,315.704z"/>
	<path fill="#F3EFCE" d="M416.837,434.536c11.636-16.344,28.849-29.919,35.079-49.362c7.86,0.557,16.119-0.165,26.422-3.518
		c-8.115,24.219-31.333,41.891-48.684,59.323c-15.978,16.056-28.921,34.594-37.995,55.109
		C396.983,474.41,404.067,452.48,416.837,434.536z"/>
	<path fill="#F3EFCE" d="M414.286,398.114c-5.304,9.197-9.85,18.822-13.509,28.789c-1.633,4.447-3.093,8.945-4.453,13.467
		c0.177-10.099,0.947-22.077,3.545-34.417c4.615-21.93,14.234-35.014,14.234-35.014s6.018,4.345,14.534,7.729
		C424.466,385.45,418.215,391.305,414.286,398.114z"/>
	<path fill="#F3EFCE" d="M396.285,447.614c1.861-6.814,3.959-13.554,6.452-20.168c4.1-10.881,9.005-21.489,15.146-31.376
		c3.635-5.862,8.87-10.86,12.58-16.713c2.592,0.941,5.37,1.777,8.268,2.359c3.755,0.752,7.396,1.372,11.094,1.744
		c-6.65,20.021-25.1,33.242-36.293,50.812c-8.661,13.581-14.708,28.583-19.416,44.019c1.265-7.09,2.29-14.18,2.29-18.472
		C396.405,456.523,396.306,452.369,396.285,447.614z"/>
	<path fill="#F3EFCE" d="M436.591,438.515c16.976-16.497,38.457-34.171,45.688-57.681c0.614-0.219,1.22-0.425,1.852-0.659
		c5.76-2.158,10.509-4.468,14.319-6.626c-2.721,13.042-9.682,24.867-18.001,35.352c-10.258,12.934-21.876,24.789-33.983,35.99
		c-12.364,11.442-25.718,21.81-36.533,34.819c-4.852,5.838-9.383,11.924-13.818,18.073c-0.902,0.836-1.687,1.564-2.373,2.202
		C403.522,476.759,418.284,456.301,436.591,438.515z"/>
	<path fill="#F3EFCE" d="M414.718,477.266c11.762-13.105,25.898-23.821,38.574-36.012c19.416-18.687,42.661-41.352,47.516-69.092
		c6.758-4.121,9.874-7.375,9.874-7.375s-4.621,25.391-18.088,45.781c-13.464,20.393-36.551,37.711-55.406,51.945
		c-10.671,8.061-24.055,19.814-33.662,28.505C407.085,486.292,410.771,481.671,414.718,477.266z"/>
</g>
</svg>
