<?xml version="1.0" encoding="utf-8"?>
<!-- Generator: Adobe Illustrator 17.0.0, SVG Export Plug-In . SVG Version: 6.00 Build 0)  -->
<!DOCTYPE svg PUBLIC "-//W3C//DTD SVG 1.1//EN" "http://www.w3.org/Graphics/SVG/1.1/DTD/svg11.dtd">
<svg version="1.1" id="Layer_1" xmlns="http://www.w3.org/2000/svg" xmlns:xlink="http://www.w3.org/1999/xlink" x="0px" y="0px"
	 width="800px" height="600px" viewBox="0 0 800 600" enable-background="new 0 0 800 600" xml:space="preserve">
<g>
	<path fill="#141112" d="M601.369,178.611c-10.93-3.171-30.698-4.806-41.994-5.836c3.195-6.758,8.699-19.698,11.232-26.726
		c-12.64,1.113-28.523,2.003-37.781,1.392c0.198-8.71-0.423-38.546-4.51-50.43c-11.503,15.92-22.036,42.497-26.813,58.084
		c-4.776-22.821-10.113-53.853-35.713-79.438c-12.14-12.132-28.065-22.132-45.344-24.225c-17.619-2.133-35.199,3.601-49.183,13.986
		c-26.718,19.843-39.969,46.666-46.447,69.289c-12.319,43.032-16.852,105.896-5.865,150.118
		c-32.861,22.917-78.695,85.173-73.888,107.895c6.593,3.266,25.155,0.679,35.464-2.764c19.998-6.678,37.069-19.56,54.814-30.475
		c6.509,31.426,30.303,56.146,48.983,81.132c8.24,11.021,13.482,22.01,14.42,23.811c-13.046,10.067-17.498,29.332-14.67,39.401
		c7.547,26.865,43.489,24.168,62.356,12.122c11.902-7.598,34.582-30.298,45.019-57.104c11.4-8.435,23.543-22.239,31.55-33.364
		c8.005-11.128,14.142-28.478,19.227-43.406c9.501-27.873,20.233-74.882-11.649-94.921c13.354-9.919,16.763-28.132,12.017-43.441
		c18.602-1.228,38.688-8.603,42.199-20.014c-9.551-3.34-18.399-7.236-22.753-11.132
		C574.539,209.225,600.246,195.866,601.369,178.611z"/>
	<path fill="#ECC7AC" d="M524.857,279.854c-7.343,4.098-16.332,5.628-24.76,2.149c-2.217-0.916,0.126,6.81,3.794,8.628
		c5.057,2.505,12.079,4.453,17.555,0.835c6.739,3.01,12.679,11.366,15.7,17.974c6.43,15.831,4.253,34.261,0.69,50.504
		c-3.532,16.114-5.735,31.82-16.309,49.374c-10.573,17.55-22.736,32.022-28.704,36.873c1.237-6.258-1.311-22.158-2.748-19.184
		c-1.509,3.128-3.303,15.257-8.652,27.622c-3.986,9.21-9.364,18.333-15.056,26.604c-10.447,15.186-25.388,30.186-44.411,33.39
		c-7.115-2.514-15.458-5.25-13.509-14.56c1.34-6.404,7.803-11.18,13.47-13.64c1.45-0.628-1.87-0.766-3.306-0.143
		c-7.495,3.254-12.148,7.631-12.975,16.037c-0.665,6.794,4.509,10.238,10.115,12.588c-6.698-0.195-13.543-2.031-18.291-6.767
		c-7.349-7.331-4.755-19.087-2.148-25.21c2.607-6.123,8.499-12.41,15.242-16.463c8.314-5,17.524-6.351,15.106-7.348
		c-4.943-2.041-13.323-1.434-18.95,0.545c-1.069-1.967-8.93-15.857-11.477-19.539c-5.532-8.004-11.498-15.7-17.39-23.445
		c-11.268-14.81-23.009-30.274-29.357-47.912c-1.643-4.562-2.944-9.245-3.815-14.012c5.871-3.397,9.444-5.847,14.111-8.024
		c4.667-2.176,23.347-8.844,19.638-11.293c-5.57-3.678-26.199,3.507-30.36,5.49c-8.807,4.197-17.117,9.328-25.314,14.58
		c-20.264,12.984-48.701,31.905-67.051,28.564c-0.33-11.218,26.254-53.758,48.264-74.505c11.16-10.518,38.123-29.817,43.834-33.178
		c5.713-3.361-16.814,0.263-20.6,2.857c-6.578-40.247-4.923-92.977,0.722-121.157c6.695-33.413,17.792-57.113,35.977-73.594
		c18.185-16.481,42.058-34.783,77.789-15.043c34.12,18.849,43.39,57.534,52.238,96.637c-7.865,1.531-16.432,0.696-20.364,0.418
		c-0.281,16.559,17.868,32.273,23.036,37.154c-4.741,1.076-16.436,3.2-26.549,5.01c6.712,8.558,25.16,19.1,35.672,20.483
		c-2.058,4.242-3.173,9.978-2.1,15.001c0.982,4.592,7.662,8.829,7.162,5.288c-0.842-5.984-1.803-15.475,5.699-18.244
		c7.503-2.769,12.681,3.587,15.93,12.399C537.74,258.069,532.198,275.757,524.857,279.854z"/>
	<path fill="#E6B494" d="M454.456,84.675c6.719,12.121,12.625,25.745,14.36,39.594c1.889,15.082,1.346,30.351,3.109,45.447
		c1.501,12.852,4.429,27.102,14.291,36.007c4.395-0.824,8.151-1.559,10.371-2.064c-5.168-4.881-23.316-20.595-23.036-37.154
		c3.932,0.278,12.499,1.113,20.364-0.418c-8.458-37.377-17.317-74.359-47.88-94.013C449.227,76.014,452.027,80.295,454.456,84.675z"
		/>
	<path fill="#E6B494" d="M505.087,283.435c6.889,1.299,13.861-0.284,19.77-3.581c7.341-4.097,12.883-21.785,7.545-36.258
		c-0.131-0.353-0.269-0.695-0.404-1.04C533.409,259.482,521.572,279.501,505.087,283.435z"/>
	<path fill="#E6B494" d="M537.835,359.944c3.552-16.187,5.721-34.546-0.63-50.34c-2.146,1.143-4.579,4.184-6.025,6.128
		c-2.426,3.259-4.824,6.699-6.589,10.374c-7.93,16.524-11.717,36.996-13.751,55.079c-1.116,9.906-1.677,19.939-0.98,29.901
		c0.314,4.505,0.247,9.579,0.944,14.379c3.561-4.893,7.229-10.345,10.723-16.147C532.1,391.764,534.303,376.057,537.835,359.944z"/>
	<path fill="#E6B494" d="M515.97,325.84c-6.037,15.428-10.288,31.629-12.11,48.115c-2.129,19.246-1.465,38.722,2.381,57.543
		c0.906-1.151,1.822-2.338,2.752-3.58c-0.93-4.765-1.075-9.743-1.411-14.558c-0.918-13.114-0.252-26.274,1.784-39.259
		c2.091-13.33,5.076-26.567,9.449-39.345c2.202-6.433,4.434-11.995,8.323-17.564c1.829-2.62,5.614-7.336,9.132-9.515
		c-0.407-0.796-0.854-1.608-1.33-2.423C526.905,306.295,518.328,319.818,515.97,325.84z"/>
	<path fill="#E6B494" d="M433.281,511.173c13.708-6.028,24.811-17.914,33.086-29.941c3.042-4.42,5.974-9.094,8.673-13.885
		C454.975,453.99,430.94,489.964,433.281,511.173z"/>
	<path fill="#E6B494" d="M476.876,433.909c-1.503,5.469-3.796,11.163-8.502,14.586c-4.744,3.449-10.424,4.28-16.128,4.301
		C459.234,476.94,495.124,445.222,476.876,433.909z"/>
	<path fill="#E6B494" d="M381.007,292.917c-14.058-6.5-24.871,13.09-28.3,25.454c5.809-4.886,13.539-9.33,20.974-8.758
		c8.183,0.629,11.408,6.841,12.166,14.145C397.443,318.732,390.365,297.244,381.007,292.917z"/>
	<path fill="#E6B494" d="M369.486,334.722c-10.667-6.821-24.826-8.501-36.262-2.353c-9.2,4.945-16.044,13.383-22.273,21.57
		c-5.1,6.703-10.153,13.179-15.999,18.574c9.798-5.376,19.484-11.682,27.793-17.007c8.197-5.252,16.507-10.383,25.314-14.58
		C350.889,339.578,361.337,335.827,369.486,334.722z"/>
	<path fill="#978F85" d="M545.5,210.67c6.708,5.374,15.838,10.801,26.509,14.753c-5.531,4.761-16.991,8.572-33.961,8.305
		c-1.71-6.413-12.667-19.494-24.606-11.979c-9.693-0.974-21.161-4.464-27.39-9.88c3.728-0.473,16.155-2.087,24.44-5.844
		c-9.13-5.984-24.299-22.961-27.25-32.006c2.788,0.71,12.361,0.278,19.383-0.557c3.932-15.029,14.75-43.138,22.334-55.94
		c0.704,9.602,0.14,26.161-0.687,36.843c10.519,0.868,25.69,0.451,35.379-0.384c-1.92,4.893-5.928,17.292-10.112,24.491
		c9.132,0.139,34.799,4.213,40.172,5.427C586.618,191.831,564.989,206.442,545.5,210.67z"/>
	<path fill="#B5AA9D" d="M514.476,172.344c0,0,3.992-38.19,5.471-45.187c-6.489,13.691-14.013,34.245-17.322,46.305
		C503.099,173.567,514.476,172.344,514.476,172.344z"/>
	<path fill="#78726B" d="M549.084,154.613c1.472,6.311,2.483,12.73,2.79,19.315c3.285-7.066,6.218-15.978,7.776-19.948
		C556.58,154.245,552.933,154.46,549.084,154.613z"/>
	<path fill="#78726B" d="M589.378,184.557c-10.048,4.978-20.224,9.691-30.671,13.754c-14.589,5.673-30.633,12.386-46.278,14.121
		c-1.263,0.141-1.577-1.689-0.614-2.269c6.587-3.969,12.441-8.883,17.995-14.152c-16.254,2.727-32.391-5.327-44.103-16.827
		c5.445,9.297,17.192,21.865,24.785,26.842c-8.285,3.757-20.712,5.371-24.44,5.844c6.229,5.416,17.696,8.906,27.39,9.88
		c11.939-7.514,22.895,5.566,24.606,11.979c16.97,0.267,28.43-3.544,33.961-8.305c-10.671-3.952-19.801-9.379-26.509-14.753
		C564.475,206.554,585.429,192.611,589.378,184.557z"/>
	<path fill="#141112" d="M446.352,222.13c4.919-6.71,4.66-17.092-2.875-22.774c-1.261-0.953-2.482,1.164-1.238,2.103
		c6.852,5.17,6.324,15.51,0.768,20.974c-0.382,0.064-0.766,0.121-1.141,0.208c6.348-9.679,0-21.09-9.614-25.58
		c-11.612-5.424-27.514-2.708-33.511,9.524c-6.793,13.859,1.1,28.573,12.189,29.067c-9.165,6.582-16.818,19.866-10.402,14.882
		c5.081-3.946,19.163-11.809,23.627-14.336c9.409-5.328,25.651-9.364,36.391-10.292C463.013,225.691,454.639,221.969,446.352,222.13
		z"/>
	<path fill="#FFFFFF" d="M407.12,226.723c-8.651-7.347-5.218-25.716,10.712-25.579c-7.14,11.973,11.674,18.913,18.131,5.035
		c5.445,4.945,4.254,12.79-0.963,17.96C429.782,229.309,415.77,234.07,407.12,226.723z"/>
	<path fill="#141112" d="M379.297,249.972c9.863-16.487-3.352-42.433-24.639-34.848c-16.109,5.74-25.35,30.866-7.923,41.623
		c-4.886-0.622-8.713-4.684-10.12-9.359c-0.451-1.502-2.826-0.862-2.372,0.647c1.479,4.915,5.313,9.298,10.229,10.731
		c-3.617,2.91-8.743,8.028-5.06,6.464c4.807-2.041,31.587-8.844,53.014-9.797C395.542,255.295,387.343,249.583,379.297,249.972z"/>
	<path fill="#FFFFFF" d="M371.549,249.447c-5.357,3.673-15.098,4.601-19.915,2.312c-4.816-2.288-9.414-8.273-8.874-14.942
		c0.766-9.472,10.797-23.02,24.944-15.672c-9.477,0.543-11.674,9.389-8.654,14.151c3.021,4.762,11.674,6.531,16.618-0.817
		C378.005,238.017,376.905,245.774,371.549,249.447z"/>
	<path fill="#FFFFFF" d="M375.019,226.715c0,1.723-1.412,3.122-3.153,3.122c-1.737,0-3.15-1.399-3.15-3.122s1.413-3.122,3.15-3.122
		C373.607,223.593,375.019,224.991,375.019,226.715z"/>
	<ellipse fill="#FFFFFF" cx="427.486" cy="203.572" rx="3.151" ry="3.122"/>
	<path fill="#141112" d="M474.866,339.06c-2.639-15.871-7.921-41.045-8.975-47.15c-1.009-5.841-7.671-31.719-7.671-31.719
		c-9.063,11.429-27.741,38.765-32.766,47.256c-9.59,16.207-19.705,37.376-55.551,51.799c0.113,2.545,26.761,46.623,37.964,58.645
		c10.019,10.757,23.81,21.746,39.167,22.864c12.466,0.909,21.407-7.503,26.312-18.102c5.407-11.689,6.821-24.81,6.613-37.533
		C479.787,374.812,477.504,354.93,474.866,339.06z"/>
	<path fill="#FFFFFF" d="M382.959,363.192c21.321-8.014,43.4-36.329,49.717-51.296c6.317-14.967,21.974-32.521,21.974-32.521
		c1.616,12.229,7.878,42.508,8.378,45.174c-19.09,43.268-50.955,61.501-63.314,64.631
		C393.907,380.684,387.775,372.275,382.959,363.192z"/>
	<path fill="#FFFFFF" d="M458.63,426.915c-10.12,7.12-21.422,3.673-31.371-3.711c12.895-10.048,28.084-16.48,42.841-23.407
		C469.072,409.741,466.244,420.607,458.63,426.915z"/>
	<path fill="#141112" d="M440.107,105.959c-6.481-2.103-12.937-3.191-23.408-2.18c-10.131,0.979-18.026,2.713-27.364,6.603
		c-9.616,4.125-23.124,10.915-31.189,17.548c-7.995,6.576-12.706,10.682-16.31,14.826c-0.795,0.915,1.635-4.624,2.42-5.518
		c15.16-17.279,42.886-34.732,69.054-37.383c8.913-0.902,18.666,0.056,25.633,3.036C440.955,103.75,443.854,107.175,440.107,105.959
		z"/>
	<path fill="#141112" d="M335.647,205.232c0.773,3.45,3.095,8.05,3.095,3.832c0-2.432,0.387-11.498,4.643-19.547
		c4.257-8.05,10.446-13.416,17.796-16.482c4.953-2.067-7.405-8.033-9.672-6.517C336.036,176.867,334.874,201.782,335.647,205.232z"
		/>
	<path fill="#141112" d="M395.14,154.328c3.573-3.059,10.673-2.039,14.69-0.573c9.772,3.566,17.625,9.747,21.506,18.053
		c4.514,9.66,3.354,16.943,2.194,13.876c-1.449-3.83-4.643-8.816-11.221-14.565c-6.675-5.835-14.7-8.817-23.988-7.667
		C394.541,163.921,392.445,156.637,395.14,154.328z"/>
	<path fill="#141112" d="M351.983,314.854c-2.154,2.299-2.725,7.843-0.564,5.534c9.404-10.044,34.197-15.284,33.537,4.762
		c-0.104,3.144,3.502,0.466,3.606-2.666C389.367,298.018,364.488,301.497,351.983,314.854z"/>
	<path fill="#141112" d="M425.53,87.112c-11.186-5.423-27.986,1.901-37.35,8.392c-3.851,2.67-4.801,5.048-3.465,4.196
		c8.711-5.535,29.647-14.496,42.74-8.774C428.899,91.557,426.956,87.802,425.53,87.112z"/>
	<path fill="#141112" d="M520.202,258.27c-2.141-2.865-6.346-2.042-7.605-0.234c-0.89,1.28-0.109,2.394,0.89,1.176
		c0.561-0.68,1.981-1.043,2.826-0.777c0.73,0.229,1.375,1.22,1.649,1.747c0.74,1.418,0.906,3.391,0.466,4.911
		c-0.383,1.317-1.444,2.433-2.65,3.027c-2.229,1.098-4.001-2.134-4.075-0.57c-0.097,2.133,1.936,3.436,4.163,3.374
		c2.079-0.058,4.332-1.405,5.228-3.531C522.186,264.801,522.221,260.978,520.202,258.27z"/>
	<path fill="#141112" d="M474.63,435.189c-2.397,11.418-17.465,17.888-26.534,13.192c-1.402-0.728-0.344,1.837,0.865,2.859
		c10.95,9.268,27.38,1.399,27.38-14.13C476.342,434.851,474.951,433.654,474.63,435.189z"/>
	<path fill="#B5AA9D" d="M524.828,155.902c0,0,5.176,0.913,9.134,0.913s11.57-1.218,11.57-1.218s-9.743,8.221-12.788,8.221
		C529.7,163.819,524.828,155.902,524.828,155.902z"/>
	<path fill="#B5AA9D" d="M530.309,177.825c0,0,16.746,0.913,29.839,2.74s22.836,3.654,22.836,3.654s-26.185,3.958-30.752,3.654
		S530.309,177.825,530.309,177.825z"/>
	<path fill="#F3DBC7" d="M362.847,90.44c8.301-9.339,26.794-24.967,43.845-25.576c17.051-0.609-21.922,32.275-36.537,40.8
		S343.36,112.362,362.847,90.44z"/>
	<path fill="#F3DBC7" d="M422.524,239.634c9.304-7.976,40.191-14.615,56.024-11.57C494.381,231.108,413.999,246.941,422.524,239.634
		z"/>
	<path fill="#F3DBC7" d="M276.375,348.027c13.139-18.852,28.621-38.364,48.716-52.979s4.872,17.051-1.827,24.358
		C316.566,326.714,262.369,368.123,276.375,348.027z"/>
	<path fill="#F3DBC7" d="M402.429,477.735c4.153-5.761,16.442-14.006,26.794-15.833c10.352-1.827,2.436,11.57-3.045,15.224
		C420.697,480.779,394.304,489.005,402.429,477.735z"/>
</g>
</svg>
