<?xml version="1.0" encoding="utf-8"?>
<!-- Generator: Adobe Illustrator 17.0.0, SVG Export Plug-In . SVG Version: 6.00 Build 0)  -->
<!DOCTYPE svg PUBLIC "-//W3C//DTD SVG 1.1//EN" "http://www.w3.org/Graphics/SVG/1.1/DTD/svg11.dtd">
<svg version="1.1" id="Layer_1" xmlns="http://www.w3.org/2000/svg" xmlns:xlink="http://www.w3.org/1999/xlink" x="0px" y="0px"
	 width="800px" height="600px" viewBox="0 0 800 600" enable-background="new 0 0 800 600" xml:space="preserve">
<g>
	<g>
		<path fill="#FEDBAA" d="M412.305,80.61c1.645-2.785,2.727-5.282,2.217-8.658c-0.508-3.332-0.309-6.282-3.461-8.285l1.657-2.761
			c-1.999-2.083-3.017-3.589-6.262-4.11c-4.192-0.666-8.556,0.295-12.518,1.76c-4.868,1.803-9.256,3.68-12.882,7.489
			c-3.464,3.633-7.744,8.651-9.219,13.506c-1.41,4.639-1.62,9.726-2.756,14.493c-0.772,3.235-0.088,5.989,0,9.27
			c0.064,2.425-0.243,4.949,0.034,7.368c0.642,5.74,2.99,11.928,6.055,16.843c1.276,2.047,3.051,3.763,4.364,5.799
			c0.934,1.438,1.526,2.808,3.289,3.451c2.489,0.906,7.206,0.463,9.837-0.048c6.192-1.2,6.34-6.707,5.89-11.924
			c-0.254-2.933-0.396-6.209-0.575-9.023c-0.219-3.508-0.175-5.014,3.149-6.069c2.964-0.944,3.279-2.947,4.236-5.711
			c1.072-3.11,3.584-4.902,5.568-7.513c1.915-2.517,1.723-4.547,1.425-7.592C412.024,85.599,410.513,83.647,412.305,80.61z"/>
		<path d="M472.01,204.263c0.426-3.259,0.162-7.761-1.593-10.298c-0.582-0.846-2.704-1.962-4.584-2.598
			c-0.061-0.142-0.111-0.275-0.177-0.42c-3.258-7.602-10.855-0.544-10.314-2.717c0.544-2.171-4.341,0-2.714-2.716
			c1.63-2.712-7.056-0.541-4.885-3.255c2.171-2.709-3.255-1.085-2.714-4.337c0.542-3.261-3.253-1.092-4.344-4.347
			c-1.082-3.258,0,0-4.339-7.599c-4.344-7.597-8.143-11.941-18.455-21.167c-10.311-9.232-19.54-21.713-19.54-21.713
			s-0.541,9.226-3.799,6.512c-1.524-1.271-0.221-2.141-3.908-5.04c-0.199-0.366-2.795-2.805-2.99-3.164
			c-1.241-2.237-3.952-3.609-3.952-3.894c0-3.248-1.021-9.716-0.19-12.873c-2.865-2.269-5.94-4.056-6.677-7.707
			c-0.826-4.079,0.602-8.118,1.773-12.034c0.92-3.105,2.132-5.736,5.17-6.901c3.934-1.502,5.92-3.189,8.735-6.37
			c2.382-2.682,3.958-6.665,7.476-7.713c11.997-3.562,12.365,2.408,13.018,1.102c1.086-2.171,0-7.599-9.77-13.569
			c-9.774-5.971-16.287-7.058-26.6-1.627c-10.312,5.426-13.025,15.737-16.279,33.654c-1.289,7.081-1.221,11.692-1.273,15.766
			c-0.01,0.057-0.023,0.115-0.03,0.172c-0.213,1.384-0.226,2.513-0.101,3.569c-0.329,4.76-1.502,9.598-6.198,17.939
			c-9.77,17.369,3.255,14.118,0,18.458c-3.258,4.344,3.255,28.77,10.315,46.68c7.053,17.912,13.025,32.026,14.107,52.651
			c1.089,20.63-7.054,49.939-7.054,49.939s4.885-8.144,5.971,3.799c1.082,11.94,6.515,12.484,10.852,26.061
			c4.344,13.566-1.086,53.728-1.086,53.728l0.157,0.951c2.023,8.594,21.089,6.447,21.669,7.056
			c0.578,0.615-0.292,9.818-3.468,16.869c-3.176,7.056-13.288,16.561-19.355,38.652c-6.068,22.086-8.034,38.129-9.401,42.924
			c-1.36,4.79-7.832,8.497-9.878,10.314c-2.043,1.806-3.833,7.501-3.488,10.844c0.339,3.343,0.423,6.145,0,11.214
			c-0.43,5.069-1.367,10.124-1.367,10.124s0.769,1.082,1.533,1.179c0.767,0.097,1.62,0.097,1.704-1.361
			c0.085-1.446,3.238-11.303,3.238-11.303s0.595,0.905,1.701,2.808c1.106,1.902,3.235,9.674,4.686,14.111
			c1.445,4.425,2.47,8.047,6.64,10.758c4.172,2.716,14.226,4.248,24.362,5.872c10.136,1.629,4.259-3.975,1.617-7.045
			c-2.642-3.087-6.05-8.508-6.05-8.508s-1.279-5.063-2.469-7.233c-1.195-2.169-2.473-13.109-2.473-13.109s1.704,0.085,3.491,0.632
			c1.79,0.541,5.795,5.969,8.265,9.312c2.469,3.347,7.324,11.121,9.286,11.759c1.959,0.638,16.946,2.534,26.912,1.082
			c9.969-1.447-1.959-6.789-5.538-9.038c-3.58-2.265-7.835-4.623-7.835-4.623l-8.826-12.922c-5.2-8.896-5.2-19.637-3.468-30.674
			c1.733-11.043,6.357-26.385,10.691-45.094c4.334-18.708,4.909-22.08,5.49-22.701c0.579-0.615,6.354-5.205,8.09-10.433
			c1.227-3.696,1.436-11.561,1.458-15.815c5.362-1.902,8.308-4.425,8.308-4.425s0.542-8.691-4.344-21.71
			c-4.885-13.025-5.422-30.944-5.422-30.944s1.623-10.311,2.712-24.426c1.084-14.115,0-17.91,0-17.91l5.426-2.171
			c0,0-1.082-14.114-4.885-21.171c-3.799-7.056-6.515-16.828-6.515-16.828l8.143-1.623l4.889-14.658c0,0,0,0,9.224-0.541
			c7.982-0.47,8.651-4.194,8.336-10.815C470.839,209.886,471.675,206.823,472.01,204.263z"/>
		<path fill="#FFFFFF" d="M383.588,117.39c0,0,14.441,9.959,20.968,16.346c6.532,6.39,10.535,8.902,10.535,8.902l-21.472-10.163
			l-7.67,4.875C385.948,137.35,390.587,126.853,383.588,117.39z"/>
	</g>
	<polygon fill="#FFFFFF" points="398.282,121.378 397.535,127.745 414.579,140.479 	"/>
</g>
</svg>
