<?xml version="1.0" encoding="utf-8"?>
<!-- Generator: Adobe Illustrator 17.0.0, SVG Export Plug-In . SVG Version: 6.00 Build 0)  -->
<!DOCTYPE svg PUBLIC "-//W3C//DTD SVG 1.1//EN" "http://www.w3.org/Graphics/SVG/1.1/DTD/svg11.dtd">
<svg version="1.1" id="Layer_1" xmlns="http://www.w3.org/2000/svg" xmlns:xlink="http://www.w3.org/1999/xlink" x="0px" y="0px"
	 width="800px" height="600px" viewBox="0 0 800 600" enable-background="new 0 0 800 600" xml:space="preserve">
<g>
	<path fill="#231F20" d="M393.785,163.059c101.618,0,106.196-12.846,121.139-14.86l0.597,32.901l-26.917,246.457
		c0,0,2.695,13.882-2.092,15.679c0,0-81.842,47.509-178.403-1.842c0,0-2.552-10.847,0.436-12.044L284.617,180.5l0.6-32.301
		C285.217,148.199,294.468,163.059,393.785,163.059z"/>
	<path fill="#FFFFFF" d="M398.551,452.681c-47.619,0-86.577-10.697-89.768-24.224c-0.141,0.59-0.239,1.186-0.239,1.793
		c0,14.368,40.298,26.021,90.007,26.021s90.007-11.653,90.007-26.021c0-0.607-0.101-1.204-0.241-1.793
		C485.126,441.984,446.172,452.681,398.551,452.681z"/>
	<path fill="#FFFFFF" d="M399.765,171.774c-82.839,0-114.552-7.92-114.552-6.873c0,5.282,51.288,9.567,114.552,9.567
		c63.276,0,114.558-4.284,114.558-9.567C514.324,163.854,483.795,171.774,399.765,171.774z"/>
	<g>
		<path fill="#FFFFFF" d="M390.497,440.117c0,3.719-2.508,6.734-5.607,6.734l0,0c-3.1,0-5.61-3.015-5.61-6.734V188.427
			c0-3.719,2.51-6.73,5.61-6.73l0,0c3.098,0,5.607,3.011,5.607,6.73V440.117z"/>
		<path fill="#231F20" d="M381.525,440.117V188.427c0-3.252,1.926-5.97,4.485-6.594c-0.361-0.087-0.738-0.136-1.12-0.136
			c-3.1,0-5.61,3.011-5.61,6.73v251.691c0,3.719,2.51,6.734,5.61,6.734c0.382,0,0.759-0.049,1.12-0.14
			C383.451,446.091,381.525,443.376,381.525,440.117z"/>
	</g>
	<g>
		<path fill="#FFFFFF" d="M412.932,440.7c0,3.726-2.512,6.744-5.612,6.744l0,0c-3.095,0-5.607-3.018-5.607-6.744V188.444
			c0-3.726,2.512-6.747,5.607-6.747l0,0c3.1,0,5.612,3.021,5.612,6.747V440.7z"/>
		<path fill="#231F20" d="M403.959,440.7v-126.13V188.444c0-1.633,0.48-3.13,1.28-4.295c0.802-1.165,1.926-2.003,3.201-2.317
			c-0.361-0.087-0.735-0.136-1.12-0.136c-0.775,0-1.511,0.192-2.18,0.53c-0.673,0.342-1.279,0.837-1.783,1.448
			c-1.015,1.218-1.643,2.906-1.643,4.769v126.126V440.7c0,1.863,0.628,3.552,1.643,4.769c0.504,0.607,1.11,1.106,1.783,1.448
			c0.67,0.342,1.406,0.527,2.18,0.527c0.385,0,0.759-0.045,1.12-0.133c-1.275-0.314-2.399-1.151-3.201-2.317
			C404.439,443.829,403.959,442.333,403.959,440.7z"/>
	</g>
	<g>
		<path fill="#FFFFFF" d="M426.592,441.527c-0.079,0.876-0.618,1.546-1.204,1.497c-2.324,0-4.206-2.261-4.206-5.049
			c-0.589-0.053,3.337-189.298,3.416-190.177c0-2.788,1.265-64.305,3.588-64.305c0.079-0.883,2.207-2.17,2.793-2.121
			c2.325,0,4.204,2.261,4.204,5.049c0.588,0.053-4.079,187.316-4.155,188.199C431.028,377.407,428.915,441.527,426.592,441.527z"/>
		<path fill="#231F20" d="M432.029,181.526c-0.338-0.091-0.689-0.143-1.05-0.154c-0.762-0.014-1.499,0.182-2.161,0.548
			c-0.649,0.352-1.228,0.862-1.718,1.489c-0.914,1.176-1.497,2.76-1.532,4.511l-2.652,124.183l-2.653,121.559
			c-0.026,0.304,0.002,3.217,0.08,3.468c0.146,1.87,0.979,3.409,2.069,4.414c0.48,0.439,0.984,0.827,1.553,1.068
			c0.35,0.195,0.766,0.213,1.233,0.07c0.235-0.073,0.474-0.185,0.712-0.332c-1.104-0.531-2.011-1.535-2.578-2.812
			c-0.6-0.876-0.869-3.049-0.869-4.274l2.559-123.119l2.652-124.19c0.036-1.581,0.504-3.025,1.265-4.152
			C429.723,182.638,430.806,181.815,432.029,181.526z"/>
	</g>
	<path fill="#FFFFFF" d="M445.863,436.196c-0.16,1.766-1.233,3.109-2.407,3.001c-1.551,0-2.803-1.504-2.803-3.363
		c-1.172-0.105,4.126-127.051,4.283-128.813c0-1.856,5.745-122.972,7.297-122.972c0.154-1.758,1.23-3.102,2.404-3.001
		c1.547,0,2.803,1.507,2.803,3.37c1.173,0.101-4.872,127.428-5.026,129.183C452.414,315.457,447.41,436.196,445.863,436.196z"/>
	<path fill="#231F20" d="M455.615,181.222c-0.314-0.101-0.642-0.157-0.979-0.174c-0.754-0.024-1.476,0.174-2.135,0.565
		c-0.625,0.37-1.186,0.907-1.657,1.563c-0.818,1.138-1.354,2.631-1.418,4.298l-5.307,123.653l-5.308,121.897
		c-0.053,0.614,0.009,2.955,0.162,3.465c0.291,1.898,1.287,3.311,2.498,4.11c0.426,0.279,0.846,0.558,1.322,0.701
		c0.026,0.045,0.106-0.101,0.284-0.401c0.089-0.143,0.194-0.314,0.293-0.527c-0.921-0.757-1.617-1.94-1.945-3.346
		c-0.403-0.59-0.453-3.482-0.453-4.302l5.118-121.517l5.307-123.66c0.065-1.552,0.527-2.962,1.242-4.068
		C453.401,182.31,454.446,181.494,455.615,181.222z"/>
	<g>
		<path fill="#FFFFFF" d="M465.131,430.875c-0.236,2.638-1.849,4.651-3.609,4.497c-0.775,0-1.403-0.754-1.403-1.682
			c-1.757-0.157,2.226-65.404,2.462-68.045c0-0.932,11.33-180.425,12.105-180.425c0.237-2.638,1.849-4.651,3.607-4.494
			c0.776,0,1.404,0.753,1.404,1.682c1.757,0.16-1.268,62.7-1.861,68.38C477.836,251.72,465.906,430.875,465.131,430.875z"/>
		<path fill="#231F20" d="M479.2,180.911c-0.291-0.101-0.593-0.171-0.907-0.185c-0.743-0.045-1.462,0.16-2.114,0.572
			c-0.6,0.38-1.141,0.928-1.589,1.602c-0.724,1.074-1.21,2.463-1.307,4.005l-7.958,120.861l-7.964,119.985
			c-0.08,0.907,0.012,2.645,0.24,3.395c0.438,1.895,1.561,3.2,2.927,3.733c0.359,0.136,0.712,0.279,1.09,0.321
			c-0.295-0.101-0.536-0.394-0.661-0.862c-0.059-0.202-0.096-0.443-0.124-0.715c-0.743-0.966-1.225-2.31-1.32-3.817
			c-0.195-0.289-0.033-3.845-0.033-4.253l7.676-117.676l7.96-120.861c0.098-1.49,0.546-2.844,1.223-3.897
			C477.081,181.958,478.091,181.156,479.2,180.911z"/>
	</g>
	<g>
		<path fill="#FFFFFF" d="M484.4,425.548c-0.314,3.524-2.463,6.207-4.813,5.997l0,0c-2.343-0.209-3.991-3.224-3.677-6.748
			l21.23-238.401c0.31-3.521,2.465-6.203,4.81-5.994l0,0c2.347,0.209,3.995,3.231,3.681,6.751L484.4,425.548z"/>
		<path fill="#231F20" d="M477.609,424.944l10.612-119.2l10.613-119.197c0.277-3.081,1.964-5.519,3.955-5.942
			c-0.267-0.105-0.546-0.178-0.839-0.203c-2.344-0.209-4.499,2.474-4.81,5.994l-10.615,119.197L475.91,424.797
			c-0.314,3.524,1.335,6.538,3.677,6.748c0.292,0.028,0.581,0.01,0.864-0.045C478.562,430.729,477.337,428.028,477.609,424.944z"/>
	</g>
	<g>
		<path fill="#FFFFFF" d="M321.281,424.808c0.31,3.521-1.336,6.542-3.683,6.748l0,0c-2.344,0.209-4.497-2.477-4.81-6.001
			l-21.016-238.412c-0.312-3.524,1.336-6.546,3.683-6.751l0,0c2.348-0.206,4.499,2.477,4.81,5.997L321.281,424.808z"/>
		<path fill="#231F20" d="M314.486,425.401l-10.507-119.204L293.47,186.989c-0.272-3.081,0.96-5.785,2.844-6.549
			c-0.283-0.056-0.567-0.077-0.858-0.049c-2.347,0.206-3.995,3.227-3.683,6.751l10.509,119.2l10.507,119.211
			c0.312,3.524,2.465,6.21,4.81,6.001c0.292-0.024,0.572-0.094,0.836-0.199C316.442,430.935,314.76,428.492,314.486,425.401z"/>
	</g>
	<g>
		<path fill="#FFFFFF" d="M335.516,429.504c0.165,3.527-1.607,6.479-3.958,6.591l0,0c-2.352,0.112-4.391-2.658-4.557-6.193
			l-11.177-239.078c-0.165-3.534,1.605-6.482,3.957-6.594l0,0c2.353-0.108,4.396,2.662,4.56,6.193L335.516,429.504z"/>
		<path fill="#231F20" d="M328.702,429.821l-5.589-119.542l-5.588-119.536c-0.143-3.095,1.197-5.743,3.11-6.423
			c-0.279-0.07-0.562-0.105-0.855-0.091c-2.352,0.112-4.122,3.06-3.957,6.594l5.588,119.539l5.589,119.539
			c0.165,3.534,2.205,6.305,4.557,6.193c0.291-0.014,0.574-0.073,0.844-0.168C330.43,435.425,328.848,432.916,328.702,429.821z"/>
	</g>
	<g>
		<path fill="#FFFFFF" d="M349.613,430.955c0.049,3.534-1.814,6.423-4.171,6.458l0,0c-2.352,0.035-4.302-2.801-4.356-6.339
			l-3.466-239.312c-0.05-3.534,1.813-6.43,4.169-6.462l0,0c2.352-0.035,4.305,2.802,4.358,6.336L349.613,430.955z"/>
		<path fill="#231F20" d="M342.792,431.05l-1.734-119.658l-1.734-119.654c-0.042-3.098,1.382-5.701,3.318-6.319
			c-0.279-0.084-0.56-0.122-0.853-0.119c-2.357,0.031-4.22,2.927-4.169,6.462l1.736,119.658l1.73,119.654
			c0.054,3.538,2.005,6.374,4.356,6.339c0.289,0,0.576-0.052,0.855-0.136C344.338,436.709,342.837,434.144,342.792,431.05z"/>
	</g>
	<g>
		<path fill="#FFFFFF" d="M366.958,432.152c0.053,3.534-1.814,6.427-4.171,6.454l0,0c-2.352,0.039-4.3-2.798-4.356-6.332
			l-3.464-239.312c-0.051-3.538,1.812-6.43,4.169-6.465l0,0c2.352-0.031,4.305,2.802,4.356,6.336L366.958,432.152z"/>
		<path fill="#231F20" d="M360.139,432.246l-1.734-119.658l-1.736-119.654c-0.039-3.098,1.383-5.701,3.32-6.319
			c-0.279-0.084-0.56-0.122-0.853-0.119c-2.357,0.035-4.22,2.927-4.169,6.465l1.734,119.654l1.73,119.658
			c0.056,3.534,2.005,6.371,4.356,6.332c0.289,0,0.577-0.052,0.851-0.129C361.683,437.902,360.184,435.341,360.139,432.246z"/>
	</g>
	<path fill="#231F20" d="M516.553,148.96c0,8.806-51.879,15.941-115.87,15.941c-63.993,0-115.872-7.135-115.872-15.941
		c0-8.806,51.879-15.941,115.872-15.941C464.674,133.019,516.553,140.153,516.553,148.96z"/>
	<g>
		<path fill="#231F20" d="M514.195,147.892c0.059,8.806-51.81,10.23-115.801,10.648c-63.993,0.422-115.888-1.699-115.946-10.498
			c-0.059-8.806,51.742-20.955,115.733-21.377C462.174,126.239,514.139,139.096,514.195,147.892z"/>
		<path fill="#FFFFFF" d="M512.81,147.215c0.054,8.031-51.014,9.438-114.025,9.849c-63.009,0.419-114.101-1.465-114.155-9.501
			c-0.051-8.035,50.953-19.179,113.962-19.594C461.602,127.558,512.757,139.173,512.81,147.215z M398.593,128.211
			c-61.973,0.408-112.139,12.218-112.099,18.648c0.052,7.909,50.313,10.38,112.29,9.968c61.971-0.401,112.207-1.696,112.156-9.602
			C510.887,139.323,460.567,127.799,398.593,128.211z"/>
		<path fill="#FFFFFF" d="M421.425,142.069c0.009,0.886-2.08,1.619-4.661,1.64c-2.584,0.014-4.679-0.694-4.686-1.58
			c-0.007-0.89,2.081-1.622,4.666-1.64C419.326,140.471,421.423,141.179,421.425,142.069z"/>
		<path fill="#FFFFFF" d="M375.144,142.369c0.003,0.89-2.083,1.622-4.665,1.64c-2.582,0.018-4.682-0.687-4.686-1.573
			c-0.009-0.893,2.083-1.626,4.661-1.643C373.038,140.775,375.135,141.483,375.144,142.369z"/>
		<polygon fill="#FFFFFF" points="368.862,142.948 365.402,129.941 422.421,130.182 418.823,142.773 413.918,142.805 
			416.624,134.208 371.251,133.277 372.534,142.002 		"/>
	</g>
</g>
</svg>
