<?xml version="1.0" encoding="utf-8"?>
<!-- Generator: Adobe Illustrator 17.0.0, SVG Export Plug-In . SVG Version: 6.00 Build 0)  -->
<!DOCTYPE svg PUBLIC "-//W3C//DTD SVG 1.1//EN" "http://www.w3.org/Graphics/SVG/1.1/DTD/svg11.dtd">
<svg version="1.1" id="Layer_1" xmlns="http://www.w3.org/2000/svg" xmlns:xlink="http://www.w3.org/1999/xlink" x="0px" y="0px"
	 width="800px" height="600px" viewBox="0 0 800 600" enable-background="new 0 0 800 600" xml:space="preserve">
<g>
	<g>
		<g>
			<path fill="#231F20" d="M366.366,79.708c6.273-7.516,7.451-14.418,7.499-14.707l0,0l-5.033-0.833
				c-0.003,0-0.003,0.024-0.037,0.172l0,0c-0.028,0.155-0.088,0.387-0.168,0.702l0,0c-0.17,0.627-0.454,1.555-0.916,2.701l0,0
				c-0.913,2.281-2.525,5.414-5.26,8.692l0,0c-5.496,6.537-15.46,13.784-34.152,16.035l0,0c-0.902,0.106-1.824,0.204-2.778,0.291
				l0,0l0.457,5.08c0.993-0.089,1.969-0.19,2.928-0.304l0,0c0.028-0.001,0.057-0.003,0.085-0.008l0,0
				C348.721,95.175,360.115,87.222,366.366,79.708L366.366,79.708z"/>
		</g>
	</g>
	<g>
		<path fill="#231F20" d="M349.626,393.857c-2.159,25.195-4.318,50.387-6.497,75.584c10.972,1.609,16.462,2.444,27.439,4.188
			c16.187-1.193,24.284-1.712,40.468-2.617c-13.454-26.385-26.895-52.783-40.326-79.179
			C362.274,392.603,358.058,393.009,349.626,393.857z"/>
	</g>
	<g>
		<path fill="#231F20" d="M388.581,57.285c0,4.919-4.4,8.913-9.831,8.954c-15.412,0.117-23.121,0.24-38.533,0.626
			c-5.428,0.139-9.806-3.71-9.786-8.627l0,0c0.026-4.914,4.44-9.033,9.859-9.171c15.392-0.39,23.087-0.515,38.479-0.63
			C384.192,48.395,388.584,52.371,388.581,57.285L388.581,57.285z"/>
	</g>
	<g>
		<path fill="#231F20" d="M300.336,117.472c18.38-1.62,27.573-2.327,45.953-3.559c-3.115,5.357-4.679,8.03-7.806,13.395
			c-18.269,0.304-27.53,0.526-45.788,1.21C295.703,124.086,297.337,121.897,300.336,117.472z"/>
	</g>
	<g>
		<path fill="#231F20" d="M308.244,117.917c-1.901,3.467-2.857,5.201-4.752,8.674c16.099,86.852,32.447,173.662,49.028,260.423
			c11.613,3.396,17.418,5.131,29.04,8.681c-21.943-91.773-43.569-183.628-64.883-275.55
			C313.305,119.25,311.617,118.8,308.244,117.917z"/>
	</g>
	<g>
		<path fill="#FFFFFF" d="M331.09,117.974c24.619,87.38,49.539,174.672,74.734,261.88c-12.759,1.295-19.143,1.989-31.914,3.466
			c-21.433-88.149-42.593-176.361-63.484-264.64C318.685,118.36,322.825,118.22,331.09,117.974z"/>
		<path fill="#231F20" d="M373.184,384.37l-0.201-0.823c-21.399-88.024-42.761-177.061-63.49-264.646l-0.267-1.132l1.161-0.045
			c8.268-0.321,12.407-0.46,20.675-0.707l0.749-0.02l0.198,0.718c24.245,86.031,49.386,174.137,74.734,261.874l0.32,1.101
			l-1.143,0.116c-12.81,1.301-19.072,1.982-31.897,3.466L373.184,384.37z M311.626,119.591
			c20.576,86.941,41.779,175.313,63.016,262.68c11.9-1.373,18.156-2.051,29.947-3.251c-25.172-87.13-50.143-174.625-74.218-260.065
			C322.986,119.173,318.886,119.312,311.626,119.591z"/>
	</g>
	<g>
		<path fill="#231F20" d="M389.838,475.394c-0.003,3.873-9.823,7.035-21.929,7.222c-12.11,0.187-21.915-2.67-21.907-6.547
			c0.009-3.876,9.823-7.3,21.924-7.487C380.027,468.394,389.838,471.52,389.838,475.394z"/>
	</g>
	<g>
		<path fill="#FFFFFF" d="M333.788,451.51c-1.875,0.39-4.174,1.068-7.658,1.753c9.857,0.99,18.36,9.359,20.55,21.768
			c2.19,12.4-2.919,24.192-11.769,29.119c1.839,0.183,3.717,0.125,5.595-0.27c12.01-2.49,19.648-16.314,17.044-31.022
			C354.946,458.152,345.753,449.031,333.788,451.51z"/>
		<path fill="#231F20" d="M336.875,505.205L336.875,505.205c-0.692,0-1.373-0.034-2.057-0.103l-3.039-0.304l2.667-1.484
			c8.719-4.855,13.361-16.415,11.292-28.118c-2.043-11.57-9.965-20.003-19.705-20.983l-6.426-0.646l6.338-1.243
			c2.111-0.417,3.782-0.83,5.187-1.175c0.916-0.226,1.722-0.426,2.46-0.578c1.359-0.284,2.715-0.427,4.037-0.427
			c10.404,0,18.397,8.639,20.86,22.546c2.684,15.123-5.3,29.536-17.79,32.124C339.468,505.075,338.177,505.205,336.875,505.205z
			 M330.636,453.245c8.523,2.79,15.106,10.97,16.987,21.62c1.995,11.273-1.912,22.463-9.619,28.391
			c0.786-0.052,1.555-0.155,2.307-0.312c11.488-2.382,18.797-15.802,16.297-29.919c-2.295-12.931-9.567-20.963-18.979-20.963
			c-1.189,0-2.415,0.129-3.649,0.385c-0.718,0.149-1.498,0.343-2.395,0.562C331.285,453.084,330.965,453.162,330.636,453.245z"/>
	</g>
	<g>
		<path fill="#231F20" d="M347.623,474.834c2.596,14.71-4.767,28.539-14.68,30.633c-9.913,2.092-20.008-8.065-22.565-22.783
			c-2.562-14.714,3.359-28.41,13.239-30.494C333.493,450.101,345.029,460.129,347.623,474.834z"/>
	</g>
	<g>
		<path fill="#FFFFFF" d="M340.543,476.276c1.844,10.455-2.383,20.096-9.42,21.585c-7.039,1.488-14.22-5.75-16.039-16.206
			c-1.821-10.455,2.375-20.173,9.397-21.657C331.51,458.518,338.702,465.823,340.543,476.276z"/>
	</g>
	<g>
		<path fill="#231F20" d="M333.467,477.74c1.087,6.195-1.419,11.92-5.592,12.805c-4.165,0.887-8.413-3.405-9.497-9.604
			c-1.081-6.198,1.425-11.952,5.581-12.832C328.122,467.228,332.381,471.547,333.467,477.74z"/>
	</g>
	<g>
		<path fill="#FFFFFF" d="M436.401,252.209c8.991,31.369,18.088,95.544-29.32,99.679c0,0-25.771-7.759-50.651,5.385
			c0,0-40.378,2.091-39.163-0.667c9.831-22.301,17.356-71.806,5.311-104.439C360.509,251.209,398.469,251.217,436.401,252.209z"/>
		<path fill="#231F20" d="M330.38,358.99c-12.859,0-13.483-0.958-13.894-1.589c-0.233-0.359-0.267-0.789-0.094-1.179
			c9.692-21.99,17.154-71.577,5.289-103.724l-0.462-1.254l1.339-0.033c18.655-0.474,37.566-0.712,56.195-0.712
			c19.166,0,38.567,0.254,57.676,0.752l0.698,0.02l0.193,0.674c8.069,28.147,11.775,65.381-2.031,85.458
			c-6.304,9.168-15.764,14.36-28.126,15.439l-0.185,0.017l-0.173-0.054c-0.077-0.023-7.567-2.233-18.15-2.233
			c-11.604,0-22.292,2.538-31.775,7.55l-0.403,0.106C356.333,358.235,341.664,358.99,330.38,358.99z M318.399,356.405
			c0.928,0.264,3.703,0.67,11.982,0.67c10.498,0,23.958-0.654,25.794-0.748c9.712-5.089,20.638-7.671,32.481-7.671
			c10.095,0,17.279,1.911,18.519,2.261c11.676-1.06,20.602-5.971,26.534-14.599c13.321-19.371,9.777-55.527,1.963-83.171
			c-18.862-0.488-38.008-0.735-56.919-0.735c-18.17,0-36.61,0.229-54.825,0.68C335.388,285.838,328.216,333.599,318.399,356.405z"/>
	</g>
	<g>
		<path fill="#FFFFFF" d="M301.378,161.43c0,0,9.471-22.749,47.085,5.273c13.577-0.63,20.369-0.893,33.945-1.308
			c0,0,8.166-24.73,34.867-11.796c28.35,13.74,32.127,65.462,19.126,98.61c-36.737,0.932-73.381,2.569-110.058,4.927
			C317.984,225.244,309.66,193.342,301.378,161.43z"/>
		<path fill="#231F20" d="M325.616,258.14l-0.201-0.762c-8.356-31.894-16.683-63.795-24.962-95.707l-0.082-0.312l0.125-0.297
			c0.156-0.38,4.012-9.302,16.189-9.302c8.773,0,19.566,4.701,32.073,13.971c13.199-0.61,19.867-0.87,32.98-1.273
			c1.212-3.002,7.13-15.56,21.232-15.56c4.508,0,9.468,1.291,14.725,3.839c27.8,13.474,33.364,64.724,19.597,99.821l-0.232,0.59
			l-0.633,0.017c-36.595,0.927-73.611,2.583-110.021,4.923L325.616,258.14z M302.391,161.522
			c8.183,31.545,16.417,63.082,24.676,94.606c35.977-2.301,72.527-3.936,108.676-4.86c13.171-34.314,7.865-83.845-18.888-96.807
			c-4.991-2.422-9.672-3.65-13.886-3.65c-14.536,0-19.453,14.276-19.654,14.883l-0.21,0.635l-0.669,0.023
			c-13.642,0.417-20.304,0.674-33.931,1.305l-0.343,0.018l-0.272-0.206c-12.288-9.155-22.786-13.796-31.205-13.796
			C306.842,153.674,303.108,160.074,302.391,161.522z"/>
	</g>
	<g>
		<path fill="#231F20" d="M468.292,368.321c0,0,3.373,35.694,12.35,41.691c-29.471,3.086-58.854,6.582-88.228,10.505
			c-1.152,17.295-1.733,25.947-2.897,43.243c0,0-28.858-8.786-29.139-26.303c-0.054-21.003-0.111-42.003-0.17-63.005
			C396.222,371.724,432.205,369.681,468.292,368.321z"/>
	</g>
	<g>
		<path fill="#FFFFFF" d="M571.019,521.25c-0.02,39.481-89.724,44.25-120.457,43.496c-28.728-0.701-121.243-7.073-120.962-49.458
			c0.289-43.91,89.931-50.014,120.585-50.007C484.311,465.291,571.039,481.199,571.019,521.25z"/>
		<path fill="#231F20" d="M456.602,566.732c-2.216,0-4.256-0.026-6.089-0.071c-20.562-0.505-123.132-5.346-122.829-51.386
			c0.335-50.453,109.944-51.91,122.44-51.91c17.458,0.007,47.99,4.101,73.908,13.075c31.999,11.083,48.906,26.576,48.901,44.809
			C572.906,564.536,476.024,566.732,456.602,566.732z M450.185,467.194c-43.992,0-118.42,10.132-118.669,48.106
			c-0.281,42.46,99.157,47.045,119.095,47.533c1.805,0.042,3.81,0.071,5.992,0.071c11.511,0,112.481-1.172,112.501-41.656
			c0.014-20.78-25.186-33.87-46.324-41.189C497.281,471.229,467.271,467.201,450.185,467.194z"/>
	</g>
	<g>
		<path fill="#231F20" d="M533.541,499.611c0.426,30.074-61.629,34.015-82.778,33.491c-22.171-0.553-83.198-7.415-83.124-37.604
			c0.079-30.79,60.511-37.123,82.837-36.574C473.788,459.501,533.104,468.682,533.541,499.611z"/>
	</g>
	<g>
		<path fill="#FFFFFF" d="M513.626,474.212c-19.611,7.543-41.456,9.391-61.773,8.699c-21.549-0.736-43.135-6.958-63.28-16.139
			c-0.008,8.051-0.789,14.687-0.026,18.041c3.972,17.324,43.64,21.535,63.396,22.043c19.189,0.492,59.342-1.915,63.2-18.835
			C515.902,484.695,514.188,483.57,513.626,474.212z"/>
	</g>
	<g>
		<path fill="#231F20" d="M511.498,424.235c0.173,20.803,2.077,29.495,2.253,50.298c-41.958,17.246-84.673,12.352-125.192-5.967
			c-1.277-19.667-1.915-29.498-3.178-49.162C424.592,429.588,473.13,441.813,511.498,424.235z"/>
	</g>
	<g>
		<path fill="#231F20" d="M450.548,561.928c-35.037-0.868-101.89-3.635-119.949-43.161c-0.655,2.295-1.141,4.741-1.047,6.976
			c2.02,45.88,88.083,53.524,121.073,54.264c29.528,0.664,120.111-1.458,120.528-48.302c0.017-2.311-0.429-4.704-1.095-7.031
			C552.219,563.611,484.311,562.757,450.548,561.928z"/>
	</g>
	<g>
		<path fill="#FFFFFF" d="M383.781,418.003c31.468-3.92,63.019-7.178,94.618-9.772c0,0,56.221,14.91,23.161,22.175
			C466.913,438.026,414.52,439.3,383.781,418.003z"/>
		<path fill="#231F20" d="M454.253,436.422c-20.791,0-49.979-3.06-71.017-17.632l-2.06-1.427l2.486-0.309
			c31.341-3.905,63.189-7.193,94.657-9.774l0.162-0.014l0.164,0.042c5.751,1.524,34.451,9.531,34.286,17.299
			c-0.065,2.935-3.612,5.075-11.167,6.736C486.859,434.618,469.989,436.422,454.253,436.422z M386.459,418.634
			c20.448,13.074,47.979,15.874,67.794,15.874c15.602,0,32.334-1.79,47.099-5.036c8.356-1.836,9.644-3.862,9.664-4.904
			c0.105-4.829-19.935-11.968-32.702-15.368C447.781,411.705,416.892,414.879,386.459,418.634z"/>
	</g>
	<g>
		<path fill="#231F20" d="M468.292,368.321c-35.245,2.038-70.385,4.728-105.53,8.068c-6.886-2.725-10.328-4.071-17.202-6.744
			C380.115,361.39,436.373,346.784,468.292,368.321z"/>
	</g>
	<g>
		<path fill="#FFFFFF" d="M362.762,376.388c0.579,22.6-0.375,50.69,0.213,73.286c-10.836-23.118-17.798-54.242-17.415-80.03
			C352.435,372.317,355.876,373.663,362.762,376.388z"/>
		<path fill="#231F20" d="M364.056,454.225l-1.946-4.147c-11.012-23.491-17.883-55.07-17.506-80.448l0.02-1.375l1.285,0.498
			c6.875,2.673,10.316,4.019,17.202,6.746l0.59,0.233l0.017,0.632c0.289,11.274,0.196,24.116,0.105,36.533
			c-0.091,12.502-0.184,25.428,0.111,36.753L364.056,454.225z M346.502,371.039c-0.105,23.342,5.833,51.678,15.418,73.945
			c-0.168-10.152-0.091-21.285-0.012-32.099c0.091-12.172,0.179-24.75-0.091-35.839
			C355.754,374.646,352.358,373.317,346.502,371.039z"/>
	</g>
	<g>
		<path fill="#231F20" d="M272.991,178.933c13.267-9.217,19.892-13.771,33.125-22.783c48.16-0.584,23.887,81.46,24.974,99.996
			c1.206,20.549,28.387,91.21-13.823,100.461C302.373,297.418,287.62,238.19,272.991,178.933z"/>
	</g>
	<g>
		<g>
			<path fill="#FFFFFF" d="M300.648,117.53c-5.953-24.341-11.434-48.468-17.35-72.816c0,0-9.786,1.417-10.555,18.691
				c6.702,21.719,13.386,42.431,20.128,64.138C295.973,123.13,297.559,121.928,300.648,117.53z"/>
		</g>
		<g>
			<path fill="#231F20" d="M292.704,128.613l-0.286-0.928c-3.124-10.056-6.233-19.895-9.341-29.722
				c-3.538-11.187-7.195-22.756-10.787-34.416l-0.028-0.08l0.003-0.081c0.777-17.472,10.549-19.085,10.969-19.146l0.431-0.062
				l0.099,0.424c2.817,11.58,5.575,23.3,8.245,34.636c2.939,12.494,5.987,25.415,9.102,38.178l0.054,0.211l-0.125,0.178
				c-1.552,2.213-2.749,3.642-3.904,5.026c-1.146,1.373-2.332,2.793-3.873,4.985L292.704,128.613z M273.226,63.344
				c3.589,11.628,7.241,23.169,10.765,34.331c3.01,9.528,6.026,19.068,9.054,28.802c1.294-1.79,2.338-3.043,3.359-4.26
				c1.109-1.331,2.258-2.705,3.728-4.784c-3.101-12.701-6.132-25.548-9.054-37.977c-2.639-11.182-5.357-22.74-8.129-34.167
				C281.114,45.825,273.899,48.84,273.226,63.344z"/>
		</g>
	</g>
	<g>
		<path fill="#231F20" d="M282.861,44.494c17.747-8.851,38.644-9.377,56.184,0.791c2.4,22.971,4.826,45.937,7.244,68.909
			c-18.414,1.258-27.624,1.985-46.032,3.632C294.443,93.389,288.635,68.948,282.861,44.494z"/>
	</g>
	<g>
		<g>
			<path fill="#FFFFFF" d="M328.491,59.081c1.084,7.659-4.335,14.809-12.098,16.016c-7.768,1.212-14.927-3.964-15.996-11.612
				c-1.075-7.651,4.341-14.894,12.092-16.117S327.401,51.413,328.491,59.081z"/>
		</g>
		<g>
			<path fill="#231F20" d="M314.245,70.573c-4.662,0-8.506-3.305-9.15-7.859c-0.712-5.09,2.894-9.892,8.044-10.705
				c0.494-0.077,0.996-0.117,1.49-0.117c4.653,0,8.501,3.324,9.15,7.901c0.718,5.077-2.885,9.859-8.035,10.662
				C315.246,70.532,314.744,70.573,314.245,70.573z M314.628,52.85c-0.445,0-0.894,0.033-1.339,0.104
				c-4.636,0.732-7.89,5.049-7.244,9.626c0.57,4.076,4.02,7.038,8.2,7.038c0.451,0,0.905-0.035,1.35-0.106
				c4.636-0.723,7.882-5.022,7.232-9.581C322.249,55.827,318.799,52.85,314.628,52.85z"/>
		</g>
		<g>
			<path fill="#231F20" d="M320.575,60.281c0.476,3.348-1.89,6.48-5.277,7.011c-3.399,0.531-6.532-1.739-6.994-5.084
				c-0.471-3.344,1.892-6.496,5.286-7.029C316.977,54.643,320.104,56.934,320.575,60.281z"/>
		</g>
		<g>
			<path fill="#FFFFFF" d="M314.083,61.149c0.204,0.36-0.789,1.312-2.21,2.132c-1.427,0.818-2.752,1.197-2.954,0.843
				c-0.207-0.353,0.78-1.311,2.207-2.131C312.551,61.172,313.876,60.796,314.083,61.149z"/>
		</g>
		<g>
			<path fill="#231F20" d="M312.798,48.76c0.202,0.291,0.298,0.433,0.508,0.726c0.358-0.006,0.539-0.007,0.902-0.01
				c-0.224,0.281-0.332,0.429-0.556,0.716c0.111,0.335,0.167,0.506,0.278,0.843c-0.341-0.115-0.511-0.169-0.851-0.285
				c-0.289,0.214-0.44,0.319-0.735,0.533c0.011-0.359,0.026-0.535,0.031-0.893c-0.289-0.207-0.44-0.308-0.729-0.515
				c0.349-0.103,0.517-0.159,0.868-0.267C312.622,49.268,312.684,49.102,312.798,48.76z"/>
		</g>
		<g>
			<path fill="#231F20" d="M316.004,71.507c0.202,0.294,0.301,0.436,0.502,0.728c0.366-0.004,0.553-0.006,0.905-0.007
				c-0.218,0.285-0.332,0.43-0.55,0.716c0.108,0.336,0.167,0.504,0.269,0.843c-0.335-0.115-0.505-0.176-0.845-0.288
				c-0.295,0.211-0.44,0.319-0.732,0.535c0.011-0.361,0.014-0.535,0.026-0.894c-0.289-0.207-0.44-0.308-0.729-0.515
				c0.346-0.106,0.519-0.156,0.865-0.265C315.828,72.02,315.885,71.849,316.004,71.507z"/>
		</g>
		<g>
			<path fill="#231F20" d="M307.583,50.789c0.309,0.18,0.46,0.271,0.775,0.444c0.326-0.156,0.494-0.236,0.823-0.393
				c-0.082,0.352-0.125,0.525-0.204,0.877c0.247,0.257,0.366,0.387,0.61,0.644c-0.358,0.04-0.539,0.06-0.891,0.101
				c-0.182,0.313-0.275,0.468-0.445,0.782c-0.142-0.322-0.216-0.482-0.352-0.806c-0.357-0.064-0.539-0.098-0.891-0.156
				c0.269-0.24,0.408-0.364,0.678-0.604C307.645,51.325,307.625,51.145,307.583,50.789z"/>
		</g>
		<g>
			<path fill="#231F20" d="M320.223,69.875c0.312,0.18,0.468,0.268,0.78,0.445c0.327-0.153,0.491-0.231,0.817-0.381
				c-0.079,0.346-0.114,0.518-0.193,0.871c0.247,0.259,0.357,0.39,0.604,0.648c-0.357,0.037-0.531,0.054-0.888,0.092
				c-0.182,0.315-0.275,0.471-0.457,0.784c-0.142-0.326-0.207-0.487-0.349-0.811c-0.355-0.065-0.533-0.096-0.891-0.162
				c0.272-0.238,0.411-0.357,0.687-0.601C320.291,70.407,320.263,70.229,320.223,69.875z"/>
		</g>
		<g>
			<path fill="#231F20" d="M303.679,54.806c0.357,0.026,0.536,0.044,0.891,0.072c0.236-0.281,0.355-0.416,0.582-0.695
				c0.079,0.348,0.122,0.521,0.196,0.866c0.332,0.129,0.502,0.194,0.84,0.325c-0.318,0.183-0.477,0.277-0.788,0.463
				c-0.029,0.357-0.034,0.536-0.065,0.894c-0.264-0.234-0.403-0.347-0.67-0.579c-0.352,0.094-0.531,0.14-0.882,0.231
				c0.148-0.329,0.224-0.497,0.374-0.829C303.965,55.258,303.866,55.107,303.679,54.806z"/>
		</g>
		<g>
			<path fill="#231F20" d="M323.389,66.652c0.361,0.031,0.539,0.047,0.902,0.08c0.23-0.275,0.343-0.416,0.576-0.688
				c0.082,0.345,0.119,0.521,0.199,0.868c0.332,0.132,0.497,0.193,0.831,0.323c-0.312,0.186-0.471,0.275-0.78,0.46
				c-0.031,0.358-0.043,0.538-0.065,0.892c-0.275-0.231-0.406-0.347-0.672-0.586c-0.352,0.092-0.528,0.136-0.883,0.224
				c0.145-0.328,0.216-0.492,0.361-0.818C323.67,67.105,323.577,66.954,323.389,66.652z"/>
		</g>
		<g>
			<path fill="#231F20" d="M301.803,60.047c0.343-0.126,0.511-0.191,0.854-0.316c0.091-0.346,0.148-0.521,0.235-0.867
				c0.224,0.278,0.329,0.42,0.545,0.696c0.361-0.02,0.539-0.035,0.9-0.06c-0.204,0.301-0.301,0.448-0.508,0.743
				c0.122,0.332,0.187,0.499,0.312,0.824c-0.346-0.091-0.516-0.142-0.862-0.233c-0.278,0.23-0.423,0.343-0.704,0.573
				c-0.009-0.356-0.009-0.536-0.014-0.888C302.254,60.329,302.104,60.235,301.803,60.047z"/>
		</g>
		<g>
			<path fill="#231F20" d="M324.893,62.43c0.338-0.121,0.516-0.184,0.86-0.305c0.094-0.346,0.139-0.519,0.233-0.868
				c0.213,0.285,0.332,0.426,0.553,0.705c0.358-0.02,0.536-0.031,0.897-0.053c-0.204,0.297-0.309,0.444-0.516,0.741
				c0.128,0.333,0.19,0.499,0.318,0.831c-0.343-0.101-0.517-0.149-0.86-0.248c-0.284,0.227-0.429,0.336-0.704,0.566
				c-0.014-0.356-0.014-0.533-0.02-0.89C325.353,62.718,325.197,62.623,324.893,62.43z"/>
		</g>
		<g>
			<path fill="#231F20" d="M302.331,65.517c0.255-0.252,0.386-0.381,0.647-0.635c-0.06-0.349-0.099-0.526-0.153-0.877
				c0.318,0.16,0.474,0.238,0.792,0.399c0.32-0.172,0.482-0.261,0.803-0.433c-0.062,0.35-0.096,0.526-0.153,0.881
				c0.255,0.244,0.386,0.365,0.644,0.609c-0.358,0.057-0.539,0.088-0.894,0.143c-0.165,0.326-0.239,0.489-0.4,0.817
				c-0.162-0.32-0.244-0.476-0.406-0.794C302.859,65.58,302.683,65.561,302.331,65.517z"/>
		</g>
		<g>
			<path fill="#231F20" d="M324.465,57.998c0.264-0.255,0.391-0.379,0.65-0.631c-0.06-0.352-0.094-0.529-0.15-0.878
				c0.315,0.163,0.482,0.244,0.806,0.406c0.312-0.172,0.471-0.257,0.791-0.427c-0.06,0.353-0.094,0.532-0.156,0.884
				c0.255,0.244,0.389,0.367,0.647,0.611c-0.358,0.06-0.536,0.085-0.894,0.143c-0.159,0.321-0.236,0.482-0.4,0.804
				c-0.156-0.319-0.236-0.48-0.395-0.796C325.01,58.068,324.825,58.044,324.465,57.998z"/>
		</g>
		<g>
			<path fill="#231F20" d="M305.143,70.204c0.128-0.336,0.19-0.505,0.32-0.841c-0.204-0.289-0.312-0.434-0.516-0.722
				c0.369,0.008,0.542,0.013,0.908,0.021c0.216-0.288,0.323-0.43,0.542-0.722c0.099,0.342,0.148,0.511,0.236,0.852
				c0.34,0.112,0.51,0.17,0.851,0.281c-0.301,0.202-0.454,0.302-0.757,0.505c-0.003,0.356-0.011,0.533-0.023,0.892
				c-0.281-0.218-0.417-0.328-0.698-0.546C305.659,70.039,305.486,70.094,305.143,70.204z"/>
		</g>
		<g>
			<path fill="#231F20" d="M322.183,54.185c0.13-0.336,0.196-0.501,0.329-0.836c-0.204-0.289-0.315-0.436-0.522-0.729
				c0.36,0.013,0.539,0.016,0.9,0.031c0.218-0.288,0.338-0.429,0.55-0.714c0.099,0.339,0.139,0.511,0.233,0.854
				c0.34,0.114,0.514,0.17,0.857,0.284c-0.301,0.198-0.454,0.299-0.755,0.501c-0.008,0.358-0.011,0.535-0.023,0.89
				c-0.275-0.216-0.425-0.331-0.706-0.551C322.703,54.025,322.529,54.077,322.183,54.185z"/>
		</g>
		<g>
			<path fill="#231F20" d="M309.725,73.227c-0.028-0.353-0.034-0.532-0.06-0.891c-0.312-0.175-0.471-0.261-0.783-0.433
				c0.335-0.14,0.502-0.211,0.834-0.353c0.085-0.35,0.119-0.526,0.196-0.877c0.232,0.27,0.346,0.404,0.579,0.67
				c0.363-0.041,0.548-0.067,0.905-0.106c-0.19,0.305-0.284,0.46-0.479,0.767c0.147,0.323,0.213,0.491,0.363,0.814
				c-0.355-0.077-0.531-0.117-0.885-0.197C310.128,72.866,309.992,72.983,309.725,73.227z"/>
		</g>
		<g>
			<path fill="#231F20" d="M318.475,51.72c-0.026-0.356-0.037-0.533-0.06-0.888c-0.318-0.177-0.468-0.264-0.78-0.44
				c0.329-0.142,0.505-0.214,0.834-0.353c0.079-0.349,0.111-0.526,0.193-0.874c0.227,0.27,0.346,0.406,0.579,0.674
				c0.357-0.041,0.545-0.064,0.902-0.105c-0.187,0.308-0.289,0.461-0.476,0.767c0.142,0.324,0.218,0.488,0.36,0.811
				c-0.346-0.079-0.528-0.121-0.877-0.198C318.881,51.356,318.742,51.478,318.475,51.72z"/>
		</g>
	</g>
	<g>
		<path fill="#231F20" d="M283.125,61.856c-0.039,4.917-4.471,9.128-9.899,9.431c-15.398,0.866-23.087,1.366-38.474,2.503
			c-5.419,0.402-9.766-3.24-9.703-8.156l0,0c0.06-4.917,4.497-9.251,9.908-9.649c15.37-1.137,23.053-1.636,38.431-2.501
			C278.807,53.184,283.165,56.941,283.125,61.856L283.125,61.856z"/>
	</g>
	<g>
		<path fill="#FFFFFF" d="M241.298,64.208c-0.051,4.96-3.83,9.24-8.43,9.587c-4.605,0.343-8.276-3.382-8.22-8.34
			c0.06-4.955,3.839-9.271,8.432-9.614C237.678,55.497,241.355,59.253,241.298,64.208z"/>
		<path fill="#231F20" d="M232.281,74.296c-2.122,0-4.114-0.833-5.606-2.339c-1.643-1.667-2.531-3.978-2.503-6.509
			c0.062-5.198,4.038-9.723,8.872-10.085c2.361-0.193,4.574,0.661,6.211,2.318c1.654,1.674,2.554,3.993,2.522,6.533
			c-0.057,5.179-4.035,9.694-8.872,10.058C232.698,74.287,232.486,74.296,232.281,74.296z M233.666,56.296
			c-0.184,0-0.363,0.007-0.548,0.021c-4.349,0.328-7.939,4.426-7.99,9.143c-0.023,2.273,0.763,4.341,2.23,5.825
			c1.441,1.453,3.433,2.193,5.47,2.033c4.358-0.328,7.942-4.418,7.99-9.116c0.028-2.28-0.772-4.357-2.244-5.849
			C237.264,57.026,235.519,56.296,233.666,56.296z"/>
	</g>
	<g>
		<path fill="#231F20" d="M236.583,64.405c-0.023,2.38-1.841,4.445-4.052,4.609c-2.21,0.169-3.975-1.624-3.944-4.008
			c0.031-2.38,1.836-4.45,4.049-4.618C234.843,60.227,236.611,62.027,236.583,64.405z"/>
	</g>
	<g>
		<path fill="#231F20" d="M399.519,157.567c-4.526,1.422-17.296,7.94-17.296,7.94s9.289-29.847,41.546-7.868
			C423.769,157.639,409.453,154.448,399.519,157.567z"/>
	</g>
	<g>
		<g>
			<path fill="#231F20" d="M249.728,86.988c-7.122-6.716-9.113-13.433-9.196-13.714l0,0l4.906-1.424c0,0,0.003,0.024,0.051,0.17l0,0
				c0.051,0.148,0.136,0.375,0.253,0.675l0,0c0.244,0.6,0.635,1.491,1.234,2.573l0,0c1.172,2.161,3.141,5.079,6.253,8.005l0,0
				c6.228,5.848,16.978,11.856,35.809,11.877l0,0c0.908,0,1.836-0.016,2.795-0.041l0,0l0.148,5.102
				c-0.999,0.031-1.978,0.044-2.942,0.047l0,0c-0.031,0-0.06,0-0.088,0l0,0C269.075,100.258,256.827,93.708,249.728,86.988
				L249.728,86.988z"/>
		</g>
	</g>
	<g>
		<ellipse fill="#FFFFFF" cx="287.824" cy="185.815" rx="6.818" ry="13.636"/>
	</g>
	<g>
		<path fill="#FFFFFF" d="M308.147,181.521c-1.016,4.046-3.473,6.915-5.49,6.408c-2.026-0.506-2.849-4.196-1.836-8.239
			c1.018-4.043,3.473-6.91,5.493-6.402C308.335,173.791,309.16,177.478,308.147,181.521z"/>
	</g>
</g>
</svg>
