<?xml version="1.0" encoding="utf-8"?>
<!-- Generator: Adobe Illustrator 17.0.0, SVG Export Plug-In . SVG Version: 6.00 Build 0)  -->
<!DOCTYPE svg PUBLIC "-//W3C//DTD SVG 1.1//EN" "http://www.w3.org/Graphics/SVG/1.1/DTD/svg11.dtd">
<svg version="1.1" id="Layer_1" xmlns="http://www.w3.org/2000/svg" xmlns:xlink="http://www.w3.org/1999/xlink" x="0px" y="0px"
	 width="800px" height="600px" viewBox="0 0 800 600" enable-background="new 0 0 800 600" xml:space="preserve">
<g>
	<path fill-rule="evenodd" clip-rule="evenodd" fill="#FCFCFC" d="M320.099,312.07c-22.318,18.453-62.213,1.792-75.383-27.053
		C267.899,272.196,297.629,296.613,320.099,312.07z"/>
	<path fill-rule="evenodd" clip-rule="evenodd" fill="#FCFCFC" d="M238.354,309.833c4.726,2.693,9.127,6.336,13.71,9.458
		c18.516-2.57,33.773,14.228,53.25,12.741c-12.523,20.69-15.695,47.06-4.607,70.886c-28.505,18.519-71.459-6.622-82.342-36.246
		c5.194,7.258,38.607,38.801,27.199,13.609c1.273-1.238,3.724-1.542,4.115-3.84c-0.766-2.493-2.293-2.738-3.116-5.078
		c2.457-0.065,3.551,0.039,5.549-0.942c-1.601-8.629-15.323-16.912-19.19-26.602c5.749,1.709,13.733,15.2,18.305,5.376
		c-1.041-1.505-3.414-3.312-3.36-4.353c2.612-0.731,2.987-2.215,3.635-3.605c-1.354-4.729-4.118-5.28-6.974-5.573
		c-3.423-5.543-7.448-12.848-10.791-15.719c5.474-1.78,13.689,15.985,19.02,6.825C247.874,318.763,241.216,319.623,238.354,309.833z
		"/>
	<path fill-rule="evenodd" clip-rule="evenodd" fill="#FCFCFC" d="M224.453,349.815c6.941,4.076,14.351,11.972,21.385,21.304
		C237.912,367.252,227.685,356.345,224.453,349.815z"/>
	<path fill-rule="evenodd" clip-rule="evenodd" fill="#FCFCFC" d="M408.748,274.781c-46.538,48.405,38.774,142.512,88.383,98.243
		c-1.56,7.803-4.615,14.359-9.24,20.225C430.529,414.058,348.312,310.693,408.748,274.781z"/>
	<path fill-rule="evenodd" clip-rule="evenodd" fill="#FCFCFC" d="M234.501,372.526c3.489,2.09,8.653,5.206,10.093,9.443
		C240.727,380.314,237.611,376.42,234.501,372.526z"/>
	<path fill-rule="evenodd" clip-rule="evenodd" fill="#FCFCFC" d="M450.467,276.388c2.83,1.178,1.989,5.608,2.618,8.93
		C448.985,283.947,452.179,279.477,450.467,276.388z"/>
	<path fill-rule="evenodd" clip-rule="evenodd" fill="#FCFCFC" d="M405.274,300.575c0.716-0.525,1.059,0.045,1.688-0.238
		c1.59,9.66,3.79,19.524,4.717,28.961C403.923,320.8,404.171,309.363,405.274,300.575z"/>
	<path fill-rule="evenodd" clip-rule="evenodd" fill="#FCFCFC" d="M305.961,415.963c0.492-2.364,1.166-5.024,3.157-5.779
		c0.844,19.828-27.392,12.404-40.801,12.389c-20.514-9.303-64.276-26.605-62.272-51.603
		C231.239,409.434,268.996,429.25,305.961,415.963z"/>
	<path fill-rule="evenodd" clip-rule="evenodd" fill="#FCFCFC" d="M441.71,295.164c-0.247-4.016-0.307-11.864-1.863-17.13
		c8.238,10.013,3.011,30.985,17.479,34.072c4.588-8.638-9.044-16.685-4.246-25.58c2.579,3.116,2.421,10.645,6.461,14.253
		c11.471-2.957-3.98-24.381,1.092-34.245c5.945,9.795,2.889,26.212,13.164,26.579c4.604-10.797-8.835-28.216-2.996-36.428
		c1.3,8.134,2.12,24.06,12.449,23.919c-1.941-8.045-0.057-24.882-8.82-27.524c1.732-2.499,1.398-5.698,4.613-7.701
		c3.426,2.716,4.216,11.357,9.115,13.542c2.477-1.848,2.874-4.392,3.161-6.986c14.53,13.385,29.467,25.571,44.958,36.105
		c-25.848,18.155-35.548,39.913-38.35,65.937c-21.853,32.348-66.724,18.493-82.178-16.464c2.96-1.908,5.391-3.059,5.817-6.491
		c-5.456-13.379-6.873-25.392-6.861-36.922c6.172,8.226,4.049,41.276,17.708,38.169c1.145-2.565-1.059-6.262-1.655-9.41
		c4.562,5.402,13.349,5.068,10.623-4.058c1.339,0.015,1.98,2.096,3.37,1.938C452.531,315.722,441.734,299.964,441.71,295.164z"/>
	<path fill-rule="evenodd" clip-rule="evenodd" fill="#FCFCFC" d="M421.45,296.777c3.175-3.626-0.725-9.634-0.432-14.232
		c3.429,2.818,1.869,11.566,5.981,13.286c-0.113,8.042,2.261,17.455,4.005,25.099C423.182,317.747,427.636,299.869,421.45,296.777z"
		/>
	<path fill-rule="evenodd" clip-rule="evenodd" d="M322.944,380.428c47.042,35.282-19.401,61.622-49.123,45.399
		c-11.933,19.083-10.791,44.141-21.459,62.376c-14.819-14.199,6.097-46.052,4.356-67.75c-24.212-0.841-71.065-59.351-31.826-66.682
		c17.105-26.039,18.925-56.959,22.032-86.737c37.679-15.18,70.603,13.757,101.159,34.14c3.829,10.818-6.103,16.992-9.017,25.532
		C320.741,338.774,321.489,360.385,322.944,380.428z M263.036,278.911c13.17,28.845,53.065,45.506,75.383,27.053
		C315.949,290.506,286.218,266.09,263.036,278.911z M271.075,320.663c-5.332,9.16-13.546-8.605-19.02-6.825
		c3.343,2.871,7.368,10.176,10.791,15.719c2.857,0.292,5.62,0.844,6.974,5.573c-0.647,1.39-1.023,2.874-3.635,3.605
		c-0.054,1.041,2.32,2.847,3.36,4.353c-4.571,9.825-12.556-3.667-18.305-5.376c3.867,9.69,17.589,17.973,19.19,26.602
		c-1.998,0.981-3.092,0.877-5.549,0.942c0.823,2.341,2.35,2.585,3.116,5.078c-0.391,2.298-2.842,2.603-4.115,3.84
		c11.408,25.192-22.005-6.351-27.199-13.609c10.884,29.623,53.837,54.765,82.342,36.246c-11.089-23.827-7.916-50.196,4.607-70.886
		c-19.477,1.488-34.734-15.311-53.25-12.741c-4.583-3.122-8.984-6.765-13.71-9.458C259.535,313.516,266.194,312.657,271.075,320.663
		z M264.157,365.013c-7.034-9.333-14.444-17.228-21.385-21.304C246.005,350.238,256.232,361.146,264.157,365.013z M224.364,364.864
		c-2.004,24.998,41.758,42.301,62.272,51.603c13.409,0.015,41.645,7.44,40.801-12.389c-1.991,0.755-2.665,3.414-3.157,5.779
		C287.316,423.143,249.559,403.327,224.364,364.864z M262.913,375.863c-1.44-4.237-6.604-7.353-10.093-9.443
		C255.931,370.314,259.046,374.208,262.913,375.863z"/>
	<path fill-rule="evenodd" clip-rule="evenodd" fill="#FCFCFC" d="M435.13,313.466c-0.09-4.139-2.937-14.789-2.567-22.193
		c4.919,7.413,5.289,19.172,8.581,27.041C438.135,317.407,435.657,315.729,435.13,313.466z"/>
	<path fill-rule="evenodd" clip-rule="evenodd" d="M386.466,419.98c-6.736-20.391,28.165-36.743,33.982-57.755
		c-29.155-24.733-38.92-87.545-4.201-102.033c11.7-4.878,18.251,0.812,28.931,2.52c25.463,4.085,41.651-30.324,52.019-44.421
		c-14.121-100.408,135.263,19.727,92.136,62.088c-1.744,1.712-4.314,2.976-5.561,3.354c-34.71,10.543-60.516,36.934-60.317,70.195
		c0.128,20.738,4.237,41.765-21.155,47.195c-8.796-0.704-22.243,0.721-34.721-3.265c-6.918-2.215-27.548-23.105-33.195-22.074
		C415.993,379.146,404.952,418.272,386.466,419.98z M512.969,191.824c-0.125-1.386,3.664-1.446,1.944-3.372
		C512.844,188.858,510.539,191.238,512.969,191.824z M560.634,215.156c-12.923-8.065-29.375-36.018-41.428-14.386
		c-8.718,30.869,18.8,62.946,43.622,73.48C603.12,279.704,578.587,230.053,560.634,215.156z M506.21,387.143
		c4.625-5.865,7.681-12.422,9.24-20.225c-49.609,44.269-134.921-49.839-88.383-98.243
		C366.631,304.586,448.848,407.952,506.21,387.143z M463.068,314.631c-1.39,0.158-2.03-1.924-3.37-1.938
		c2.725,9.127-6.061,9.461-10.623,4.058c0.596,3.148,2.8,6.845,1.655,9.41c-13.659,3.107-11.536-29.943-17.708-38.169
		c-0.012,11.53,1.404,23.543,6.861,36.922c-0.426,3.432-2.857,4.583-5.817,6.491c15.454,34.957,60.325,48.813,82.178,16.464
		c2.803-26.024,12.502-47.781,38.351-65.937c-15.49-10.534-30.428-22.72-44.958-36.105c-0.286,2.594-0.683,5.137-3.161,6.986
		c-4.899-2.186-5.689-10.826-9.115-13.542c-3.214,2.004-2.88,5.203-4.613,7.701c8.763,2.642,6.879,19.479,8.82,27.524
		c-10.328,0.14-11.149-15.785-12.449-23.919c-5.838,8.212,7.6,25.631,2.996,36.428c-10.275-0.367-7.218-16.784-13.164-26.579
		c-5.072,9.864,10.379,31.287-1.092,34.245c-4.04-3.608-3.882-11.136-6.461-14.253c-4.797,8.895,8.835,16.942,4.246,25.58
		c-14.467-3.086-9.24-24.059-17.479-34.072c1.556,5.266,1.616,13.114,1.863,17.13C460.053,293.858,470.85,309.616,463.068,314.631z
		 M449.322,314.825c-1.744-7.645-4.118-17.058-4.005-25.099c-4.111-1.721-2.552-10.469-5.981-13.286
		c-0.292,4.598,3.608,10.606,0.432,14.232C445.956,293.762,441.501,311.64,449.322,314.825z M471.405,279.212
		c-0.629-3.322,0.212-7.752-2.618-8.93C470.498,273.37,467.305,277.84,471.405,279.212z M429.998,323.191
		c-0.928-9.437-3.128-19.3-4.717-28.961c-0.629,0.283-0.972-0.286-1.688,0.238C422.49,303.256,422.242,314.694,429.998,323.191z
		 M459.463,312.207c-3.292-7.869-3.662-19.628-8.581-27.041c-0.37,7.404,2.477,18.054,2.567,22.193
		C453.977,309.622,456.455,311.301,459.463,312.207z"/>
</g>
</svg>
