<?xml version="1.0" encoding="utf-8"?>
<!-- Generator: Adobe Illustrator 17.0.0, SVG Export Plug-In . SVG Version: 6.00 Build 0)  -->
<!DOCTYPE svg PUBLIC "-//W3C//DTD SVG 1.1//EN" "http://www.w3.org/Graphics/SVG/1.1/DTD/svg11.dtd">
<svg version="1.1" id="Layer_1" xmlns="http://www.w3.org/2000/svg" xmlns:xlink="http://www.w3.org/1999/xlink" x="0px" y="0px"
	 width="800px" height="600px" viewBox="0 0 800 600" enable-background="new 0 0 800 600" xml:space="preserve">
<path fill="#120E0F" d="M523.411,215.144c-0.833-4.172-2.556-8.157-4.936-11.675c-3.182-4.704-7.716-8.754-12.801-11.287
	c-6.354-3.164-13.53-3.639-20.489-2.863c-0.151-0.026-0.271-0.008-0.343,0.071c-5.032,5.533-10.036,11.093-15.031,16.66
	c-0.102-0.001-0.203-0.008-0.305-0.009c-0.38-0.003-0.394,0.283-0.262,0.641c-1.071,1.194-2.14,2.388-3.21,3.582
	c-0.225-0.028-0.451-0.059-0.675-0.084c-1.041-0.117-0.802,0.675-0.432,1.32c-1.241,1.387-2.486,2.771-3.727,4.159
	c-0.52-0.042-1.039-0.078-1.559-0.098c-0.312-0.012,0.194,0.638,0.63,1.139c-1.336,1.495-2.667,2.995-4.001,4.492
	c-0.684,0.007-1.366,0.027-2.042,0.075c-1.662,0.119-1.502,1.47-0.606,2.897c-15.987,17.95-31.874,35.989-47.617,54.153
	c-20.511,23.665-40.828,47.512-60.514,71.869c-8.324,10.299-16.537,20.696-24.438,31.325c-5.747,7.731-11.435,15.581-16.332,23.886
	c-4.081,6.922-6.286,15.178-8.276,22.89c-0.764,2.962-1.41,5.962-1.979,8.981c-0.08,0.036-0.161,0.065-0.241,0.103
	c-0.138,0.067-0.089,0.328,0.087,0.694c-1.051,5.73-1.809,11.529-2.448,17.286c-0.128,1.152,3.391,4.318,4.505,3.956
	c5.473-1.78,10.829-4.001,16.081-6.399c0.452,0.164,0.824,0.156,0.852-0.3c0.002-0.031,0.002-0.062,0.003-0.093
	c1.58-0.729,3.153-1.47,4.715-2.221c7.167-3.448,14.357-7.207,20.908-11.748c4.36-3.023,8.376-6.66,12.294-10.218
	c5.532-5.024,10.797-10.355,15.753-15.949c13.504-15.242,26.414-31.033,39.411-46.706c19.379-23.369,38.614-46.858,57.685-70.479
	c10.346-12.814,20.693-25.639,30.862-38.601c0.849,0.098,1.608-0.176,1.451-1.358c-0.019-0.142-0.039-0.283-0.058-0.424
	c1.309-1.673,2.619-3.345,3.921-5.023c0.547,0.405,1.308,0.92,1.246,0.611c-0.115-0.577-0.246-1.151-0.389-1.721
	c1.141-1.473,2.277-2.948,3.412-4.424c0.051,0.034,0.102,0.067,0.151,0.098c0.608,0.388,2.091,1.108,1.809-0.232
	c-0.13-0.619-0.279-1.231-0.441-1.838c0.94-1.228,1.871-2.463,2.806-3.694c0.559,0.282,1.613,0.631,1.313-0.354
	c-0.098-0.322-0.206-0.644-0.31-0.966c0.61-0.805,1.225-1.606,1.833-2.413c0.149-0.197,0.299-0.395,0.448-0.592
	c0.276,0.183,0.506,0.3,0.477,0.162c-0.043-0.206-0.089-0.41-0.134-0.614c3.614-4.77,7.343-9.569,10.371-14.727
	C523.723,217.577,523.755,216.866,523.411,215.144z M323.465,388.453c16.641-22.708,34.681-44.41,52.793-65.949
	c20.07-23.867,40.514-47.419,61.126-70.819c7.089-8.048,14.201-16.075,21.335-24.084c1.881-0.103,3.794-0.042,5.702,0.176
	c-7.443,8.703-14.872,17.418-22.294,26.139c-18.139,21.316-36.229,42.674-54.231,64.105c-17.362,20.669-34.706,41.362-51.634,62.389
	c-5.827,7.238-12.055,14.435-17.07,22.281c-0.053,0.012-0.1,0.033-0.138,0.069c-2.807,2.72-6.129,5.808-9.993,7.02
	C313.357,402.363,318.406,395.355,323.465,388.453z M338.1,417.712c-0.151,0.154-0.115,0.432,0.048,0.776
	c-3.321,1.325-6.768,2.424-10.367,2.541c-1.22,0.04-2.468-0.1-3.63-0.478c-0.329-0.107-0.638-0.253-0.94-0.416
	c-0.026-0.04-0.056-0.089-0.092-0.15c-2.357-3.988-1.451-9.677-0.554-13.95c0.008-0.039,0.003-0.088-0.003-0.137
	c3.437-5.38,7.58-10.362,11.534-15.359c7.012-8.861,14.171-17.605,21.354-26.327c18.543-22.52,37.323-44.844,56.149-67.127
	c15.836-18.744,31.724-37.445,47.65-56.113c3.473-4.071,6.949-8.141,10.428-12.207c2.86,0.748,5.623,1.82,8.149,3.164
	c2.087,1.109,3.989,2.559,5.746,4.132c1.285,1.151,2.167,2.169,3.062,3.63c0.288,0.471,0.544,0.961,0.775,1.465
	c-8.376,10.146-16.771,20.275-25.173,30.399c-18.363,22.127-36.769,44.22-55.254,66.245c-17.504,20.856-35.024,41.708-52.923,62.228
	C348.847,406.005,343.663,412.054,338.1,417.712z M299.17,441.988c2.266-1.093,5.614-1.379,7.897-0.183
	c0.005,0.008,0.009,0.014,0.014,0.023c0.233,0.404,0.362,0.897,0.508,1.336c0.297,0.898,0.421,1.841,0.519,2.778
	c0.09,0.86,0.118,1.744,0.064,2.608c-0.004,0.064,0,0.13,0.006,0.196c-3.64,1.661-7.334,3.205-11.071,4.59
	c0.494-3.767,1.072-7.527,1.754-11.265C298.97,442.06,299.074,442.034,299.17,441.988z M312.571,446.678
	c-0.785-2.4-2.168-4.58-4.111-6.409c-2.356-2.217-5.353-3.693-8.452-3.95c0.081-0.372,0.156-0.746,0.239-1.117
	c1.296-5.81,3.126-11.5,5.14-17.097c0.611-1.698,1.185-3.44,1.931-5.093c0.694,0.32,1.436,0.527,2.223,0.57
	c3.034,0.165,6.007-1.513,8.598-3.556c-0.03,3.424,0.689,6.769,2.975,9.524c1.998,2.409,4.648,4.217,7.761,4.721
	c2.254,0.365,4.602,0.084,6.896-0.496c-1.086,2.244-2.021,4.557-2.59,6.953c-0.358,1.509-0.397,2.83,0.417,4.175
	c0.014,0.023,0.03,0.046,0.044,0.069c-3.724,2.592-7.792,4.772-11.759,6.918C318.829,443.541,315.722,445.147,312.571,446.678z
	 M419.175,340.627c-15.908,19.338-31.861,38.647-48.108,57.702c-5.93,6.955-11.895,13.827-18.407,20.254
	c-4.921,4.857-10.078,9.545-15.544,13.798c0.273-0.83,0.604-1.646,0.922-2.436c1.094-2.711,2.459-5.318,3.876-7.875
	c0.395,0.17,0.715,0.203,0.889,0.027c5.274-5.365,10.197-11.09,15.146-16.751c8.044-9.202,15.984-18.496,23.9-27.808
	c19.48-22.913,38.782-45.977,58.041-69.076c15.031-18.028,30.027-36.087,44.99-54.172c1.501-1.814,3-3.629,4.5-5.443
	c0.138,0.974,0.259,1.939,0.383,2.873c0.055,0.415,0.197,0.822,0.395,1.214c-4.458,5.593-8.945,11.156-13.391,16.729
	C457.77,293.48,438.529,317.101,419.175,340.627z M492.223,240.544c-2.792-5.09-7.725-9.24-12.542-12.325
	c-4.662-2.985-10.195-5.243-15.865-6.325c0.673-0.754,1.346-1.507,2.02-2.26c5.081,0.551,10.196,2.227,14.711,4.421
	c8.434,4.097,13.907,11.586,16.253,20.479c-0.659,0.842-1.321,1.683-1.982,2.523C494.195,244.818,493.372,242.639,492.223,240.544z
	 M468.289,216.889c0.583-0.651,1.164-1.304,1.747-1.955c5.542,0.757,11.119,2.372,16.101,4.844
	c7.643,3.792,12.777,11.09,15.01,19.152c-0.802,1.044-1.606,2.086-2.414,3.125C493.113,229.964,481.232,220.318,468.289,216.889z
	 M487.01,217.412c-4.153-2.68-9.004-4.599-13.956-5.839c0.496-0.553,0.993-1.104,1.489-1.656c6.899,0.34,14.338,2.528,19.817,6.576
	c5.227,3.862,8.818,10.562,11.034,16.838c-0.599,0.798-1.198,1.596-1.801,2.391C499.993,228.235,494.016,221.932,487.01,217.412z
	 M495.51,215.089c-5.121-4.169-11.565-6.976-18.195-8.254c0.491-0.546,0.982-1.093,1.474-1.639c4.729-0.254,9.733,1.292,13.871,3.22
	c8.731,4.067,13.666,11.545,16.098,20.385c-0.489,0.667-0.981,1.331-1.473,1.995C504.466,224.786,500.504,219.155,495.51,215.089z
	 M518.901,213.973c-0.957,1.887-2.21,3.641-3.41,5.378c-1.703,2.465-3.439,4.909-5.199,7.338c-0.908-2.258-2.02-4.432-3.39-6.501
	c-2.954-4.463-7.087-8.212-11.409-11.314c-4.009-2.878-9.135-5.373-14.348-6.299c0.115-0.128,0.23-0.256,0.345-0.383
	c2.589-2.871,5.179-5.741,7.78-8.601c7.425-0.827,16.264-0.483,22.411,4.339c0.831,0.652,1.258,1.079,2.013,1.988
	c0.764,0.919,1.424,1.93,2.014,2.967c1.064,1.872,1.898,3.877,2.515,5.938c0.387,1.291,0.687,2.613,0.882,3.947
	C519.218,213.545,519.246,213.293,518.901,213.973z"/>
</svg>
