<?xml version="1.0" encoding="utf-8"?>
<!-- Generator: Adobe Illustrator 17.0.0, SVG Export Plug-In . SVG Version: 6.00 Build 0)  -->
<!DOCTYPE svg PUBLIC "-//W3C//DTD SVG 1.1//EN" "http://www.w3.org/Graphics/SVG/1.1/DTD/svg11.dtd">
<svg version="1.1" id="Layer_1" xmlns="http://www.w3.org/2000/svg" xmlns:xlink="http://www.w3.org/1999/xlink" x="0px" y="0px"
	 width="800px" height="600px" viewBox="0 0 800 600" enable-background="new 0 0 800 600" xml:space="preserve">
<g>
	<g>
		<path fill="#333333" d="M243.518,162.064c-0.256,0.512-0.512,0.767-0.768,1.025c0,0.512,0,0.767,0,1.022c-0.256,0-0.767,0-1.023,0
			l0,0c-0.256,0.257-0.256,0.257-0.256,0.512c-0.256,0-0.256,0.257,0,0.257c0.256,0.255,0.768,0.255,1.279,0.255
			c0,1.025,0,2.047,0,3.326c-0.256,0.512-0.256,1.279-0.256,2.047c0,0-0.255,0-0.255,0.257c-0.768,10.491-1.279,21.493-1.279,32.241
			c0.255,14.074,0.511,27.893,1.023,41.71c0.256,0,0.511-0.255,0.767-0.51c0,4.606,0,9.211,0,13.817c0,7.164,0,14.331,0,21.496
			c-0.256,0-0.256,0-0.256,0.255c-0.255,6.91-0.511,14.331-0.511,21.238c0,14.074-0.256,27.893-0.256,41.712
			c-0.256,8.444,0,16.888,0.256,25.332c-0.256,10.236-0.512,20.471-0.768,30.964c0,12.282,0.256,24.565,1.025,36.847
			c-0.256-0.255-0.512-0.255-0.512-0.255h-0.256c0.256,0,0.512,0.255,0.768,0.255c0.255,1.537,0.255,3.071,0.255,4.606
			c0.256,0,0.256,0,0.256,0s0,0,0,0.257c0.256,0,0.256,0,0.256,0c0,0.255,0,0.255-0.256,0.512c0.256,0.255,0.256,0.767,0.512,1.022
			l0,0c0.256,0.257,0.256,0.512,0.256,0.512c0,0.255,0,0.512,0,0.767c0.255-0.255,0.511-0.255,0.511-0.512
			c0.256,0,0.256-0.255,0.256-0.255c2.047,0,4.094,0.255,6.141,0.255c2.303,0.257,4.351,0.512,6.397,0.77c0.256,0,0.512,0,0.512,0
			c11.259,2.814,23.03,3.838,35.569,2.814c0.512,0,1.023,0,1.792,0c4.862,0,9.98,0,15.097,0c2.047-0.255,3.582-0.512,4.349-1.534
			c0.512,0,1.025,0,1.536,0c0.768,0,1.536-0.257,2.559-0.257c-0.256,0.257-0.256,0.512-0.256,0.767c0.256,0,0.512,0,0.768-0.255
			c0.256,0,0.256-0.255,0.256-0.255c0.511-0.257,0.767-0.512,1.023-0.512c0-0.257,0-0.257,0-0.257c0-0.255,0.256-0.255,0.511-0.255
			l0,0c0,0,0.256,0,0.256-0.255c0.256,0,0.256,0,0.256,0c0.256-0.257,0.512-0.257,0.512-0.512c2.047,0.255,3.838,0.255,5.885,0.512
			c2.047,0.255,4.094,0.51,6.397,0.51c0,0,0.256,0,0.512,0.257c11.259,2.814,23.03,3.581,35.313,2.814
			c0.767-0.255,1.279-0.255,1.792-0.255c5.118,0.255,10.236,0.255,15.097,0c2.303,0,3.582-0.512,4.606-1.279
			c0.256-0.257,0.768-0.257,1.279-0.257c1.023,0,1.792,0,2.559-0.255c0,0.255,0,0.512,0,1.025c0.256-0.257,0.512-0.257,0.768-0.257
			c0-0.255,0-0.255,0.255-0.512c0.256,0,0.512-0.255,0.768-0.51c0,0,0,0,0-0.257c1.79-0.512,3.07-1.534,3.838-2.814
			c-0.768,0.255-1.536,0.512-2.559,0.512c-0.256,0-0.512,0-0.768,0.255c0-1.025-0.511-1.534-1.023-2.304
			c-0.256-1.279-0.511-2.814-1.023-4.348c0-0.257,0-0.512,0-0.77c0-6.14,0.256-12.025,0.256-17.912c0-14.074,0-27.891,0-41.71
			c-0.256-13.817-0.256-27.891-0.256-41.71c0-13.819,0-27.636,0-41.71c0-13.819,0-27.636,0-41.71
			c0-13.819,0.256-27.638,0.256-41.712c0-3.069,0-6.397,0-9.466c2.815,8.186,6.141,16.376,9.467,24.819
			c5.374,12.795,11.004,25.334,16.889,38.129c0.256-0.512,0.256-0.767,0.512-0.767c1.536,4.093,3.326,8.444,5.118,12.795
			c2.303,5.63,4.606,11.003,6.908,16.376c-0.511-0.255-0.511-0.51-1.023-0.51c-0.767,0.51-0.511,1.279,1.279,2.301
			c0.256,0.257,0.512,0.257,0.512,0.512c0.256,0.255,0.511,0.512,0.511,1.025c0,0,0,0,0,0.255c0.768,2.559,2.048,5.373,3.071,8.189
			c-0.256-0.257-0.512-0.512-0.767-0.512h-0.256c0.256,0.255,0.767,0.767,1.279,1.025c1.279,3.838,3.07,7.419,4.606,11.003
			c5.118,13.049,10.236,25.844,15.353,38.639c3.071,7.934,6.653,15.611,10.236,23.288c3.327,9.466,6.91,19.192,11.004,28.658
			c4.606,11.515,9.723,22.775,15.097,33.778c-0.256,0-0.512,0-0.768,0c0.256,0,0.512,0,0.768,0c0.767,1.537,1.279,2.816,2.047,4.096
			c0,0,0,0,0.256,0c0,0,0,0,0,0.255c0.256,0,0.256,0,0.256,0v0.255c0,0.512,0.511,0.77,0.767,0.77c0,0,0,0,0.256,0.255
			c0,0,0,0.255,0.256,0.255c0,0.257,0,0.512,0.256,0.77c0.255-0.257,0.255-0.512,0.511-0.77c0,0,0-0.255-0.256-0.255
			c2.048-0.767,4.095-1.534,5.886-2.047c2.303-0.767,4.349-1.279,6.397-1.792c0-0.255,0-0.255,0.256-0.255
			c11.515-1.537,22.774-5.375,34.033-11.005c0.256-0.255,1.023-0.51,1.536-0.767c4.606-1.792,9.212-3.581,13.818-5.63
			c2.047-1.022,3.071-2.047,3.582-3.069c0.512-0.257,1.023-0.512,1.279-0.77c0.768-0.255,1.536-0.767,2.303-1.022
			c0,0.255,0,0.512,0.256,0.767c0-0.255,0.256-0.512,0.512-0.512c0-0.255,0-0.255,0-0.512c0.256-0.255,0.511-0.51,0.767-0.767
			c0-0.255,0-0.255,0-0.255c1.023-1.279,1.792-2.559,2.303-4.096c-0.511,0.512-1.279,1.025-2.047,1.537
			c-0.256,0-0.512,0.255-0.767,0.255c-0.512-0.767-1.025-1.279-1.792-1.534c-1.023-1.279-1.536-2.559-2.559-3.583
			c-0.256-0.255-0.256-0.512-0.512-0.767c-2.047-5.63-4.349-11.26-6.397-16.633c-5.629-12.795-10.747-25.589-16.121-38.384
			c-5.374-13.049-10.748-25.844-16.121-38.384c-5.374-12.795-10.492-25.589-15.866-38.639
			c-5.374-12.795-10.748-25.589-16.121-38.384c-5.374-12.795-10.492-25.589-15.61-38.641c-5.118-12.027-10.236-24.052-15.61-35.825
			c0.256,0.512,1.023,0.512,1.536,0.257c0-0.257,0-0.257-0.256-0.512c-0.256-0.257-0.512-0.512-1.023-0.767
			c0.256,0,0.256,0,0.511-0.257c0,0-0.255,0-0.511-0.255c-0.256,0-0.768,0-1.279,0c0-0.257,0-0.512,0-0.512
			c-0.256-0.255-0.256-0.255-0.512,0c-0.256-0.512-0.511-0.767-0.767-1.279c-0.512,0-0.512,0-0.512,0.255
			c0.256,0.512,0.256,0.77,0.256,1.279c0,0,0,0,0,0.257c-0.256-0.257-0.256-0.257-0.512-0.512c-0.511,0-0.511,0-0.767-0.255
			l-0.256,0.255c-0.511-1.025-1.023-2.047-1.279-3.071c0,1.025,0.256,2.047,0.512,3.326c-0.512,0.257-1.279,0.512-1.536,0.77
			c-1.279,0-2.303,0-3.326,0.255h-0.256c0.511-0.255,1.023-0.512,1.279-0.767c0.256,0,0.256-0.257,0.256-0.512
			c-0.256,0-0.256-0.255-0.512-0.255c-1.792,0.51-3.582,1.279-4.862,2.301c-1.279,0.512-2.048,1.025-3.327,1.537
			c-0.511,0.255-1.279,0.51-2.047,0.767c-9.98,2.814-19.192,6.652-28.404,11.515c-4.862,2.047-9.723,4.351-14.585,6.91
			c0,0-0.256,0-0.256,0.255c0.767-0.255,1.536-0.512,2.559-0.512c-2.559,0.767-5.118,1.792-7.677,2.559
			c-0.256-5.373-0.256-11.003-0.512-16.376c0.256,0.255,0.768,0.51,1.279,0.51c0,0,0-0.255,0-0.51
			c-0.256-0.257-0.511-0.512-0.511-0.77c0-0.255,0.255-0.255,0.255-0.255c0-0.255,0-0.255,0-0.512c-0.511,0-0.767-0.255-1.279-0.512
			c0,0,0-0.255,0-0.51c0-0.257-0.255-0.257-0.255-0.257c-0.256-0.512-0.256-1.022-0.256-1.279c-0.512-0.255-0.768-0.255-0.768,0
			c0,0.512,0,0.767,0,1.279c-0.255,0-0.255,0-0.255,0v0.257c-0.256-0.257-0.256-0.512-0.256-0.77c-0.256,0-0.512-0.255-0.768-0.51
			h-0.255c0-1.025,0-2.049,0-3.329c-0.256,1.279-0.512,2.304-0.512,3.329c-0.767,0-1.536,0.255-2.047,0.255
			c-1.025-0.512-2.048-1.025-3.071-1.025v-0.255c0.512,0,1.023,0,1.279,0c0.256,0,0.256-0.255,0.512-0.512
			c-0.256,0-0.512-0.255-0.512-0.512c-1.792,0-3.582,0-5.374,0.257c-1.279,0.255-2.559,0.255-3.582,0.512
			c-0.767-0.257-1.536-0.257-2.303-0.257c-9.98-1.279-20.215-1.279-30.707-0.255c-5.118,0-10.492,0.255-16.122,0.512
			c0,0-0.255,0-0.255,0.255c0.767,0,1.534,0.255,2.559,0.512c-3.327-0.257-6.653-0.512-9.725-0.512
			c0.256-0.767,0.768-1.534,1.023-2.304c0,0-0.255,0-0.255,0.257c-0.256,0-0.512,0.255-0.512,0.512c0-0.257,0-0.512,0-0.77
			c0-0.255-0.256-0.51-0.512-0.51h-0.255c-0.256,0-0.512,0-0.512,0c-0.256,0-0.256,0-0.256,0c-0.256,0.255-0.256,0.255-0.256,0.51
			c-0.255,0.257-0.511,0.512-0.767,1.025c0,0.255,0,0.512,0,1.025c-0.512-0.257-0.767-0.257-1.279-0.257v0.257l-0.256,0.255
			c0,0.255,0,0.255,0,0.512c0.512,0,1.023,0,1.536,0.255c-0.256,1.025-0.256,2.047-0.256,3.071c0,0.255,0,0.512,0,0.767
			c0,0,0-0.255-0.256-0.255c0-0.512-0.255-0.767-0.511-1.025c0.256,0,0.256,0,0.511-0.255c0,0,0-0.257-0.255-0.257
			c-0.256-0.255-0.768-0.51-1.025-0.51c0-0.257,0-0.512,0-0.77c-0.255,0-0.255,0-0.511,0c0-0.51,0-1.022-0.256-1.534
			c-0.256,0-0.512,0-0.512,0.255c0,0.257,0,0.77-0.255,1.025c0,0,0,0-0.256,0.255l0,0c0-0.255,0-0.51-0.256-0.51
			c-0.256-0.257-0.512-0.512-0.767-0.512l0,0c0-1.279,0-2.304-0.256-3.326c0,1.022-0.256,2.047-0.512,3.326
			c-0.767,0-1.279,0-2.047,0.255c-0.768-0.767-1.792-1.022-2.815-1.279l0,0c0.256,0,0.767,0,1.279-0.255c0,0,0.256,0,0.256-0.257
			c0-0.255-0.256-0.51-0.512-0.51c-1.79-0.257-3.582,0-5.118,0.255c-1.279,0-2.559,0.255-3.838,0.255
			c-0.767,0-1.536-0.255-2.047-0.255c-10.236-1.025-20.471-1.279-30.707-0.255c-5.374,0.255-10.748,0.255-16.122,0.767
			c-0.255,0-0.255,0-0.511,0c1.023,0.255,1.79,0.512,2.559,0.512c-3.071,0-6.397-0.257-9.725-0.512
			c0.512-0.767,0.768-1.537,1.279-2.047c-0.255,0-0.255,0-0.511,0c0,0.255-0.256,0.51-0.512,0.767
			c0.256-0.512,0.256-0.767,0.256-1.025c-0.256,0-0.512-0.255-0.512-0.512c-0.255,0-0.255,0-0.511,0c0,0-0.256,0-0.512,0
			c0,0,0,0-0.256,0.257C243.773,161.809,243.773,162.064,243.518,162.064z M245.052,167.439h0.256
			c-0.256,0.255-0.256,0.51-0.256,0.767C245.052,167.949,245.052,167.694,245.052,167.439z M245.821,165.648
			c-0.256,0.255-0.256,0.255-0.256,0.255c-0.256,0-0.256,0-0.512,0.257c0-0.257,0-0.512,0-0.512
			C245.308,165.648,245.565,165.648,245.821,165.648z M246.077,165.902c0,0,0,0,0-0.255c0.767,0.255,1.279,0.255,1.79,0.255
			C247.356,165.902,246.844,165.902,246.077,165.902L246.077,165.902z M245.821,171.278c-0.256-1.279-0.256-2.559,0-3.838
			c15.865-0.257,31.73,0,47.596,1.022c0-0.255,0-0.255-0.256-0.255c-3.838-0.512-7.677-1.025-11.771-1.537
			c6.653,0,13.051,0.257,19.704,0.77c1.79,0.255,3.582,0,5.373-0.512c-0.767,0-1.534-0.257-2.047-0.512c0.767,0,1.536,0,2.303,0
			c0.768,0,1.279,0,1.792,0.255c0.256,0,0.256,0,0.511,0v0.257c-0.255,0-0.511,0-0.767,0.255c0.256,0,0.512,0,0.767,0
			c0,0,0,0,0,0.257c0,0,0,0.255,0,0.51c0,0.257,0,0.512,0,0.77c0,0.767,0,1.789,0,2.814c-0.767,0.512-0.767,1.025-0.511,1.792
			c0.256,0,0.511,0,0.767,0c-0.511,1.534-0.767,3.581-0.767,5.63c-0.256-0.77-0.512-1.537-0.768-2.049c-0.511-0.255-0.511,0-0.511,0
			c0.511,1.279,0.767,2.304,1.279,3.329c0,1.534,0,3.069,0.256,4.86c-0.768-1.022-1.536-2.047-2.559-3.071
			c-0.256-0.255-0.512,0-0.256,0c0.767,1.537,1.79,3.071,2.815,4.351c0,1.537,0,3.071,0,4.606c-1.792-2.047-3.583-4.093-5.374-6.14
			h-0.256c1.792,2.814,3.582,5.373,5.63,7.932c0,1.025,0,2.047,0,3.071c-2.048-2.047-4.095-4.351-6.142-6.652l-0.255,0.255
			c2.047,2.559,4.093,5.118,6.397,7.677c0,1.534,0,3.071,0,4.863c-3.071-3.071-5.886-6.397-8.445-9.726
			c-0.767,0.257-0.511,1.025,0.512,2.304c2.303,3.326,5.118,6.397,7.933,9.469c0,5.63,0,11.515,0,17.145c0,14.074,0,27.891,0,41.71
			c0,14.074,0,27.891,0.255,41.71c0,13.819,0,27.893,0,41.967c-0.255,13.817-0.255,27.636-0.255,41.452c0,1.279,0,2.816,0,4.608
			c-0.256-1.279-0.768-2.559-1.025-3.838l-0.255,0.255c0.255,1.792,0.767,3.584,1.279,5.373c0.255,5.63,0.255,11.26,0.255,16.633
			c-0.511-3.069-1.534-6.14-2.814-8.956h-0.256c1.536,5.375,2.559,10.748,3.326,16.378c0,1.025,0,2.047,0.256,3.071
			c-1.023-2.816-1.792-5.63-2.559-8.444h-0.256c0.256,3.581,1.279,7.164,2.559,10.491c0.256,0,0.256,0,0.256,0
			c0,1.792,0,3.838,0.256,5.885c0.256-2.814,0.511-5.885,0.511-9.211c0-6.91,0-13.819,0-20.729c1.025,3.329,1.792,6.655,2.815,9.726
			c-0.256,0.51-0.511,0.767-0.767,1.279c0.511-0.257,1.023-0.257,1.536-0.257c0,7.422,0,14.586,0,21.751
			c0,3.838,0.255,7.164,1.023,9.981c0-0.512,0-0.767,0.256-1.025c0,0.257,0.255,0.512,0.255,0.767
			c-0.767,0.77-1.79,1.025-3.07,1.279c-0.256,0-0.512,0-0.768,0c-0.255,0-0.511,0-0.767,0c0,0,0,0-0.256-0.255
			c-1.023-0.255-2.047-0.767-3.07-1.025c-3.584-1.279-7.166-2.814-11.004-4.093v0.255c2.048,1.025,4.351,2.304,6.91,3.329
			c-0.512,0-0.768,0-1.023,0c-1.279,0-2.304,0-3.327,0c-2.559-1.279-4.862-2.559-7.421-4.096c-0.512,0-1.023,0-1.536-0.255
			l-0.256,0.255c2.304,1.537,4.863,3.071,7.166,4.351c-1.279,0-2.559,0-3.838,0c-4.607-2.304-9.212-4.351-13.818-6.652h-0.256
			c3.582,2.559,7.677,4.606,11.771,6.652c-1.279,0-2.559,0-3.583,0c-5.118-2.304-10.236-4.863-15.097-7.422h-0.511
			c4.093,3.071,8.7,5.63,13.562,7.422c-1.279,0-2.303,0-3.326,0c-6.653-2.814-13.563-5.63-20.727-7.932h-0.256
			c3.838,1.534,7.933,3.326,11.771,5.885c1.023,0.767,2.303,1.534,3.326,2.047c-0.767,0-1.536,0-2.303,0
			c-2.047-0.767-4.351-1.534-6.653-2.047h-0.256c1.279,0.512,2.815,1.279,4.095,1.792c0,0-0.256,0-0.511,0
			c-5.118-2.049-10.236-4.096-15.099-6.397c-1.023,0.51-0.511,1.022,1.279,1.534c3.838,1.534,7.422,3.071,11.26,4.863
			c-0.256,0-0.256,0-0.256,0c-1.279,0-2.559,0-3.582-0.257c-1.536-0.255-3.071-0.512-4.607-0.767
			c-2.559-0.767-5.118-1.279-7.421-1.792l-0.256,0.257c1.536,0.255,3.071,0.767,4.607,1.279c-0.256,0-0.256,0-0.256,0.255
			c-3.071-1.279-5.886-2.047-8.956-3.071c0-0.767,0-1.534,0-2.301c-0.256-13.819-0.768-27.638-1.536-41.455
			c-0.256,0.512-0.512,0.767-0.512,1.022c0-5.628,0-11.515,0-17.143c0-13.052,0-26.101,0-38.896V306.13c0-3.069,0-6.397,0-9.466
			c0-14.074,0-27.893,0.256-41.967c0-6.652,0-13.307-0.256-19.959c0-4.096,0-8.189,0.256-12.027
			c0.256,0.512,0.768,1.025,1.279,1.279c0-0.255,0-0.512,0-0.767c-0.767-5.118-1.023-10.236-1.279-15.354
			c0-3.583,0-7.422-0.256-11.003c1.025,1.279,2.048,2.559,3.071,3.838c-0.256,11.258-0.512,22.518-0.512,33.776
			c0,7.167,0.256,14.074,0.768,20.216c0.256-5.373,0.511-11.003,0.511-16.378c0-12.537,0-24.819-0.255-37.104
			c1.79,2.559,3.582,5.118,5.118,7.677c0.767,0,1.534,0.257,2.047,0.512c0-0.255,0-0.255-0.256-0.512
			c-2.047-3.069-4.606-6.14-6.908-8.956c-0.256-0.767-0.256-1.279,0-1.789c0.767,1.279,1.79,2.559,3.07,3.838
			c0.256,0,0.768-0.257,1.279-0.512v-0.257c-0.767,0.257-1.279,0-1.536-0.51c-0.255-0.257-0.255-0.512-0.511-0.512
			c-0.768-1.279-1.536-2.304-2.559-3.326v-0.257h-0.256l0,0c-1.023-1.022-2.047-2.301-3.071-3.326c0-1.025,0-1.792,0-2.814
			c2.559,3.069,5.374,5.885,7.933,8.699c0.256,0,0.512-0.255,0.512-0.255c0-0.257,0-0.257,0-0.512c-0.256,0-0.256-0.255-0.512-0.512
			c-2.303-2.814-5.118-5.63-7.933-8.189c-0.255-1.534-0.255-3.069-0.255-4.348c3.07,4.606,6.908,8.699,11.003,12.282
			c0,0,0-0.257-0.256-0.257c-3.326-4.348-6.908-8.699-10.747-13.049c0-1.279,0-2.559,0-3.583c1.79,2.816,4.349,5.375,7.421,8.189
			c0.511,0,0.767,0,1.279,0h0.256c0-0.255,0-0.255-0.256-0.255c-3.071-2.559-6.141-5.375-8.7-8.444c0-0.257,0-0.257,0-0.257
			c0-2.814,0.255-5.63,0.255-8.444c0.256,1.279,0.512,2.304,1.279,3.584c0-0.257,0-0.512,0-0.512
			c-0.255-0.767-0.255-1.537-0.511-2.304c2.303,3.071,5.118,5.885,7.933,8.701c0.255-0.257,0.511-0.257,0.511-0.512v-0.255
			c-0.256-0.257-0.511-0.512-0.767-0.77C250.939,176.65,248.38,173.837,245.821,171.278z M245.052,195.842c0-0.767,0-1.534,0-2.304
			c1.025,1.537,2.048,2.816,3.071,4.096c0,0.767,0,1.279,0,1.792C247.1,198.146,246.077,197.122,245.052,195.842z M338.965,169.998
			c-0.256-0.257-0.512-0.257-0.767-0.512c-1.025-0.512-2.048-1.025-3.071-1.537c2.047,0,4.094,0,5.885,0
			c2.559,1.792,5.118,2.816,7.677,3.583c0-0.255,0-0.255-0.255-0.512c-1.792-0.767-3.583-1.792-5.118-3.071
			c1.534,0,3.326,0,5.118,0.257c1.534,1.022,3.326,1.792,5.118,2.301c0.255,0,0.511,0,0.511-0.255c0.256,0,0.256-0.255,0.256-0.255
			c0.256-0.257,0.256-0.512,0.256-0.512c1.536,0,3.326,0.255,5.374,1.022l0.255,0.257l0.256,0.255c0.512,0,0.768,0,1.023,0
			c0.256,0,0.256,0,0.512-0.255c0,0-0.256,0-0.256-0.257c-0.256-0.255-0.511-0.51-0.767-0.51c4.349,2.301,8.188,4.86,11.771,7.677
			c0-0.257-0.256-0.512-0.512-0.512c-3.582-3.584-7.677-6.397-12.282-8.701c2.047,0.257,4.093,0.257,6.397,0.257
			c0.767,0.767,1.534,1.534,2.303,2.301c1.536,0.512,2.815,0.257,4.349-0.255c-1.023-0.512-2.303-1.025-3.838-0.767
			c-0.255-0.257-0.255-0.257-0.511-0.257c-0.256-0.255-0.768-0.512-1.023-0.767c0.767,0,1.79,0,2.814,0c-0.255,0-0.255,0-0.255,0
			c-1.025-0.255-2.048-0.255-3.071-0.512c-0.256,0-0.512-0.255-0.767-0.512c-0.512,0-0.768,0-0.768,0.257
			c-1.023,0-2.303-0.257-3.582-0.512l0,0c-0.256,0-0.512-0.255-0.767-0.255c5.629,0,11.259,0.255,16.633,0.767
			c2.047,0,3.838-0.257,5.373-0.512c-0.511-0.255-1.279-0.512-2.047-0.512c0.767,0,1.536,0,2.559,0c0.512,0,1.023,0,1.792,0
			c0,0,0.255,0,0.255,0.257l0,0c-0.255,0.255-0.511,0.255-0.511,0.255s0.256,0,0.511,0c0,0.255,0,0.255,0,0.255
			c0,0.257,0,0.512,0,0.512c0,0.257,0,0.512,0,0.767c0,1.025,0,2.049,0,3.071c-0.511,0.512-0.767,1.025-0.255,1.537
			c0,0,0.255,0,0.511,0c-0.256,1.789-0.511,3.581-0.511,5.628c-0.512-0.51-0.768-1.279-1.025-2.047c-0.255,0-0.511,0-0.255,0.257
			c0.255,1.022,0.767,2.047,1.279,3.069c0,1.792,0,3.329,0,4.863c-0.768-1.025-1.536-2.047-2.304-3.071
			c-0.511,0-0.511,0-0.511,0.257c1.023,1.534,1.79,2.814,2.815,4.348c0,1.537,0,3.071,0,4.608c-1.536-2.049-3.327-4.096-5.118-6.142
			h-0.256c1.79,2.559,3.582,5.118,5.374,7.932c0,1.025,0,2.049,0.255,3.071c-2.047-2.301-4.093-4.606-6.397-6.652h-0.255
			c2.047,2.814,4.349,5.373,6.652,7.932c-0.255,1.537-0.255,3.071,0,4.606c-3.07-3.069-5.885-6.14-8.444-9.723
			c-0.767,0.512-0.767,1.279,0.256,2.559c2.559,3.071,5.118,6.142,8.188,9.214c0,5.885,0,11.515,0,17.4c0,13.817,0,27.636,0,41.71
			c0,13.819,0,27.893,0,41.71c0.256,13.819,0.256,27.636,0,41.71c0,13.819,0,27.638,0,41.712c0,1.279,0,2.814,0,4.348
			c-0.511-1.279-0.767-2.559-1.279-3.581h-0.255c0.511,1.792,1.023,3.581,1.534,5.63c0,5.373,0,11.003,0.256,16.633
			c-0.767-3.071-1.79-6.142-2.815-9.214l-0.255,0.257c1.279,5.373,2.559,10.745,3.326,16.121c0,1.022,0,2.047,0,3.071
			c-1.023-2.816-1.792-5.63-2.303-8.446l-0.512,0.257c0.512,3.581,1.279,6.91,2.815,10.491c0-0.255,0-0.255,0-0.255
			c0.256,2.047,0.256,4.093,0.256,6.14c0.511-3.069,0.767-6.14,0.767-9.211c0-6.91,0-13.819,0-20.726
			c0.768,3.069,1.792,6.397,2.815,9.723c-0.256,0.255-0.512,0.767-1.023,1.022c0.511,0,1.023,0,1.536,0c0,7.167,0,14.331,0,21.751
			c0,3.583,0.511,6.91,1.279,9.726c0-0.257,0-0.512,0-1.025c0.255,0.512,0.255,0.767,0.511,1.025
			c-1.023,0.51-2.047,1.022-3.07,1.022c-0.256,0-0.512,0-0.768,0.257c-0.256,0-0.511,0-0.767,0
			c-0.256-0.257-0.256-0.257-0.256-0.257c-1.023-0.512-2.047-0.767-3.071-1.022c-3.838-1.537-7.421-2.816-11.003-4.096h-0.256
			c2.303,1.279,4.607,2.304,6.91,3.326c-0.256,0-0.512,0-1.023,0c-1.025,0-2.048,0-3.071,0.257
			c-2.559-1.279-5.118-2.816-7.421-4.096c-0.768-0.255-1.279-0.255-1.792-0.255h-0.256c2.559,1.792,4.863,3.071,7.422,4.351
			c-1.536,0-2.815,0-4.095,0c-4.351-2.047-8.956-4.351-13.563-6.397h-0.511c3.838,2.301,7.677,4.606,11.771,6.652
			c-1.025-0.255-2.304-0.255-3.583,0c-4.862-2.559-9.98-5.118-15.097-7.677l-0.511,0.257c4.349,2.814,8.956,5.373,13.562,7.419
			c-1.023,0-2.047,0-3.071,0c-6.908-3.071-13.818-5.63-20.726-8.189l-0.512,0.257c4.094,1.279,7.933,3.326,11.771,5.885
			c1.279,0.767,2.303,1.279,3.582,1.792c-0.767,0-1.536,0-2.303,0c-2.303-0.512-4.607-1.279-6.653-2.047h-0.512
			c1.536,0.767,2.815,1.279,4.351,2.047c-0.256,0-0.512,0-0.767,0c-4.863-2.047-9.981-4.351-15.099-6.397
			c-0.767,0.255-0.255,0.767,1.279,1.534c3.838,1.279,7.677,3.071,11.26,4.606c0,0,0,0-0.256,0c-1.023,0-2.303,0-3.582,0
			c-1.536-0.51-3.071-0.767-4.607-1.022c-1.279-0.257-2.559-0.512-4.095-1.025c0,0-0.255,0-0.255-0.255
			c-2.815-1.792-5.374-3.838-7.933-6.142c0-2.047,0-4.351,0-6.397c0.256,0,0.511,0.257,0.767,0.512
			c0.512,0.767,0.768,1.279,1.536,2.047c2.303,2.304,4.605,3.584,6.653,3.838c-0.256,0-0.256-0.255-0.512-0.255
			c-3.326-2.047-6.141-4.351-8.444-7.164c-0.256-2.049-0.256-4.351-0.256-6.397c3.326,3.581,6.91,6.907,10.492,10.236
			c0.256,0,0.511-0.257,0.511-0.257c0-0.255,0-0.255,0-0.512c-0.255,0-0.511-0.255-0.767-0.51c-3.582-3.071-6.91-6.397-10.236-9.726
			c-0.256-3.069-0.256-6.397-0.512-9.466c2.559,5.118,5.886,9.466,10.236,13.049c0-0.255,0-0.512-0.255-0.512
			c-3.838-4.351-7.166-8.956-9.981-13.817c0-3.329-0.255-6.397-0.511-9.981c3.07,4.351,6.653,7.422,10.747,9.981
			c-0.255-0.257-0.255-0.257-0.511-0.512c-3.838-3.071-7.166-6.655-10.236-10.493c0-1.022,0-1.789-0.256-3.069
			c-0.256,0.51-0.256,0.767-0.512,1.279c0-3.071,0-5.888,0-8.701c1.025,2.304,2.048,4.351,3.583,6.397c0.511,0,1.023,0,1.534,0
			c-0.255,0-0.255,0-0.255-0.255c-1.792-1.792-3.327-3.838-4.351-6.397c-0.256-0.257-0.256-0.257-0.512,0c0-1.025,0-1.792,0-2.559
			c1.536,1.789,3.327,3.838,5.118,5.885c0.768,0,1.536,0.512,2.048,1.279c0.256-0.257,0.511-0.257,0.511-0.257
			c0-0.255,0-0.51,0-0.51c-0.255,0-0.511-0.512-0.767-0.512c-2.303-2.559-4.606-4.863-6.91-7.422c0-1.534,0-3.071,0-4.351
			c0-0.51,0-1.279,0-1.789c1.536,1.789,2.815,3.581,4.095,5.373c2.048,2.559,3.838,4.351,5.886,5.373
			c-0.256-0.255-0.256-0.255-0.512-0.51c-3.582-3.838-6.653-8.446-9.469-12.795c0-1.279,0-3.071,0-4.351
			c1.279,2.302,2.815,4.351,4.863,6.397c0-0.257,0-0.512,0-0.512c-1.536-2.814-3.071-5.373-4.863-7.932c0-2.816,0-5.63,0-8.189
			c2.304,3.071,4.351,6.14,6.397,9.469c0.256-0.257,0.512-0.512,0.768-0.512c0-0.257,0-0.257,0-0.512
			c-0.256,0-0.256-0.255-0.512-0.255c-1.79-3.584-4.095-6.655-6.653-9.726c0-3.581,0-7.419,0-10.745
			c3.583,3.581,7.166,7.164,11.004,10.49c0,0,0.256,0,0.256-0.255c0.255,0,0,0,0-0.512c-0.256,0-0.512-0.257-0.512-0.512
			c-3.582-3.326-7.164-6.652-10.748-10.236c0-2.304,0-4.351,0-6.652v-3.838c2.815,3.581,6.142,6.652,9.981,9.211
			c-0.256,0-0.256-0.255-0.512-0.255c-2.815-3.584-5.885-6.91-9.469-9.981v-10.491c3.583,3.838,6.91,7.677,10.748,11.515
			c0.767,0.767,1.536,1.022,2.047,0.51c-0.255-0.255-0.511-0.51-0.767-0.51c-4.095-4.096-7.933-8.446-12.027-12.54l0.256-10.236
			c1.536,2.559,3.071,5.118,4.862,7.677c0.512-0.255,1.025-0.255,1.279-0.255c-0.255,0-0.511-0.512-0.511-0.512
			c-2.048-2.559-3.838-5.118-5.374-7.677c-0.256,0-0.256,0-0.256,0v-4.351c2.048,4.863,5.118,8.444,8.956,10.748
			c0,0-0.256-0.257-0.256-0.512c-3.326-3.583-6.141-7.164-8.7-11.26c0-3.069,0-6.14,0-8.956c0-0.51,0-1.279,0-1.789
			c2.303,2.301,4.351,4.86,6.141,7.677c1.792,2.301,3.327,3.581,4.607,3.838c-3.582-4.608-7.166-8.956-10.748-13.307
			c0-5.375,0-10.748,0-16.121c1.792,2.559,3.838,4.86,5.63,7.164c0.256,0.255,0.511,0.255,1.023,0.255c0,0,0.256,0,0.256-0.255
			c0,0,0,0-0.256-0.257c-2.047-2.302-4.351-4.86-6.653-7.419c0-7.164,0-14.331,0-21.496c0-1.022,0-2.047,0-2.814
			c2.815,3.071,5.374,6.652,7.677,10.236c0.256,0,0.512,0,0.512-0.257c0.256,0,0.256-0.255,0-0.255c0-0.255-0.256-0.512-0.256-0.767
			c-2.303-3.326-4.862-6.397-7.677-9.214h-0.256c0.256-5.628,0-11.258,0-16.888c0-4.093,0-7.932,0-12.027
			c0.768,1.279,1.536,2.304,2.559,3.583c-0.256,1.022-0.256,1.792-0.256,2.814c-0.255-0.767-0.767-1.279-1.279-2.047
			c-0.255,0-0.511,0-0.511,0c0.767,1.279,1.279,2.304,1.79,3.326c0,1.279,0,2.559,0,3.838c0,1.279,0,2.559,0,3.838
			c-0.511-1.792-1.023-3.581-1.279-5.373c0,0,0,0-0.255,0.255c-0.256,0-0.512,0.257-0.768,0.512
			c0.256,3.326,1.023,6.142,2.559,8.701c0,4.348,0.256,8.444,0.768,12.537c0-3.581,0.255-7.164,0.255-10.748
			c1.279,1.792,2.815,3.583,4.863,4.863c0-0.255,0.255-0.512,0.255-0.767c0,0-0.255-0.257-0.255-0.512
			c-2.048-2.047-3.583-4.093-4.863-6.652c0-0.77,0-1.792,0-2.816c0-1.792,0-3.581,0.256-5.373c1.023,1.534,2.048,3.326,3.327,4.86
			c0.255,0.257,0.511,0.257,1.023,0.257v-0.257c0-0.255-0.256-0.51-0.256-0.51c-1.279-2.049-2.815-4.096-4.095-6.142
			c0-1.025,0-1.792,0-2.814c0.768,1.279,1.536,2.559,2.303,3.581c0.512,0,1.025,0,1.536-0.255c0,0,0,0-0.256-0.257
			c-1.023-1.534-2.303-3.069-3.582-4.606c0-1.279,0-2.301,0-3.581c1.023,1.279,2.048,2.047,3.327,2.047c0,0,0-0.257-0.256-0.257
			c-1.023-1.534-2.048-3.069-3.071-4.606c-0.256-1.534-0.256-3.071-0.256-4.606c0.512,0,0.768,0.255,1.279,0.512
			c0.256,0,0.512,0,0.768,0c-0.256-0.257-0.512-0.512-0.768-0.767c-0.511-0.257-0.767-0.77-1.279-1.025c0-2.559,0-4.863,0-7.164
			c1.279,1.792,2.559,3.326,4.095,4.606c0.256,0,0.512,0,0.512-0.255c0.256,0,0.256-0.257,0.256-0.512
			c-0.256,0-0.256-0.257-0.256-0.512c-1.536-1.792-3.071-3.838-4.607-5.373c-0.255-1.279-0.255-2.559-0.255-3.838
			c1.79,2.301,3.582,4.86,5.373,7.419c0.512,0.257,1.279,0.512,2.048,0.512l-0.256-0.255c-2.303-3.071-4.606-6.142-7.164-9.214
			c0-0.512,0-1.022,0-1.534c1.023,1.279,2.047,2.559,3.07,3.838c0.512-0.257,1.023-0.512,1.536-0.512l-0.256-0.255
			c-0.511,0.255-1.023,0-1.536-0.77c0,0-0.255-0.255-0.255-0.51c-1.025-1.025-1.792-2.049-2.559-3.071c0-0.257,0-0.257,0-0.512
			h-0.256v0.255c-1.023-1.279-2.048-2.301-3.071-3.581c-0.256-0.767-0.256-1.792-0.256-2.559c2.815,2.814,5.374,5.63,8.189,8.444
			c0.256,0,0.256,0,0.512-0.255c0,0,0-0.257-0.256-0.257c0-0.255-0.256-0.512-0.256-0.512c-2.559-3.069-5.118-5.885-8.189-8.186
			c0-1.537,0-3.071,0-4.608c3.071,4.863,6.653,8.956,11.004,12.54c0-0.255-0.256-0.255-0.256-0.512
			c-3.582-4.351-7.164-8.699-10.748-12.795c-0.255-1.279-0.255-2.559-0.255-3.838c2.047,2.816,4.349,5.63,7.677,8.189
			c0.255,0.255,0.767,0.255,1.023,0.255c0.256,0,0.256,0,0.511-0.255c-0.255,0-0.255,0-0.255-0.255
			c-3.327-2.559-6.142-5.375-8.956-8.446c0,0,0,0,0-0.255c0.255-2.559,0.255-5.373,0.511-8.189c0,1.025,0.512,2.304,1.023,3.326
			c0,0,0-0.255,0-0.51c0-0.77-0.255-1.537-0.255-2.304c2.303,3.326,4.862,6.142,7.932,8.701c0.256,0,0.256-0.257,0.256-0.257
			c0.256-0.255,0.256-0.255,0-0.512c-0.256,0-0.511-0.255-0.511-0.51c-2.559-2.816-5.118-5.63-7.933-8.446c0-1.279,0-2.559,0-3.838
			c3.838,0,7.421,0,11.259,0c0,0.257,0.256,0.257,0.767,0.257c1.536,0.767,2.815,1.534,3.838,2.814c1.025,0,2.048,0,3.071-0.255
			C340.501,170.508,339.732,170.253,338.965,169.998z M315.422,170.253c0,0,0.256-0.255,0.256-0.512c0,0.767,0,1.279,0,1.792
			c0,0.255,0,0.255-0.256,0.512C315.422,171.278,315.422,170.765,315.422,170.253z M323.099,166.67c-0.255,0-0.255,0-0.255,0
			c0-0.255,0-0.255,0.255-0.255c0.512,0,1.025,0,1.792,0C324.124,166.415,323.612,166.415,323.099,166.67z M322.588,166.67
			c-0.256,0-0.512,0-0.512,0c-0.256,0-0.256-0.255,0-0.51c0,0,0.256,0,0.512,0.255C322.588,166.415,322.588,166.415,322.588,166.67z
			 M319.517,169.998c-0.256,0.255-0.256,0.767,0,1.279c-0.256,0-0.256,0-0.256,0c-0.511,3.581-0.767,7.164-0.767,10.49
			c-0.256-4.093-0.256-8.189-0.512-12.54C318.494,169.741,318.75,169.998,319.517,169.998z M322.076,167.949c0,0.257,0,0.512,0,0.77
			C322.076,168.461,322.076,168.206,322.076,167.949L322.076,167.949z M307.491,164.88h-0.256l0,0l0,0H307.491z M310.817,170.253
			c0-0.255-0.256-0.255-0.256-0.512c0.768,0,1.536,0,2.303,0c0.256,1.279,0.512,2.816,0.768,4.096c0,2.559-0.256,5.373-0.256,8.186
			c0.256,6.397,0.256,13.052,0.256,19.449c0,0,0,0-0.256-0.257c-0.767-0.767-1.536-1.789-2.303-2.814
			c-0.256-0.767-0.256-1.792-0.256-2.814c0.767,1.022,1.279,1.022,1.536,0c-0.256,0-0.256-0.257-0.256-0.512
			c-0.512-0.512-0.767-1.025-1.279-1.279c0-1.537,0-3.071,0-4.351c0.512,0.767,1.279,1.534,2.047,2.304c0,0,0-0.257-0.255-0.257
			c-0.512-1.279-1.279-2.301-2.048-3.581c0-1.537,0-3.071,0-4.608c0.256,0.257,0.512,0.77,1.023,1.279c0.512,0,1.025,0,1.536,0
			c-0.256-0.255-0.256-0.255-0.256-0.255c-1.023-0.767-1.79-1.534-2.303-2.559c-0.256-2.814-0.256-5.63-0.511-8.701c0,0,0,0,0.255,0
			c0-0.255,0-0.51,0-0.51c0.256-0.257,0.256-0.512,0.256-0.512c0.512-0.512,0.768-1.025,0.768-1.792
			C311.329,170.253,311.073,170.253,310.817,170.253z M315.679,174.346L315.679,174.346c0,0.257,0,0.77,0,1.025
			C315.679,175.116,315.679,174.859,315.679,174.346z M313.12,201.985c0.256,0,0.512,0,0.512,0c0,1.534,0,3.069,0,4.606
			c-0.768-0.767-1.792-1.537-2.559-2.559c-0.256-1.537-0.256-3.071,0-4.351C311.584,200.448,312.353,201.215,313.12,201.985z
			 M322.076,196.609c0-0.767,0-1.534,0-2.301c0.768,1.279,1.792,2.559,3.071,4.093c0,0.512,0,1.025,0,1.534
			C324.124,198.913,323.099,197.634,322.076,196.609z M323.099,203.007l-0.511,0.257c0.767,1.022,1.536,2.301,2.303,3.581
			c-0.256,2.304-0.256,4.863-0.256,7.164c-0.767-0.767-1.536-1.534-2.303-2.047c0-1.279,0-2.301-0.256-3.326
			c0-3.838,0-7.422,0-11.26c1.023,1.279,2.048,2.559,2.815,3.838c0,1.279,0,2.559,0,3.838
			C324.379,204.286,323.612,203.774,323.099,203.007z M310.817,211.963c0-2.047,0-3.838,0.256-5.885
			c0.767,0.767,1.79,1.279,2.559,1.534c0,5.375,0,10.748,0,16.123c0,13.817,0,27.636,0,41.71c0,13.817,0,27.636,0,41.455
			c0,9.978,0,19.959,0,29.682c0-1.025,0-2.304,0-3.326c-0.256-5.118-0.256-10.236-0.256-15.353v-1.025
			c0.512-29.17-0.256-58.088-2.559-86.746c0,0.255,0,0.51,0,0.51C310.817,224.503,310.817,218.105,310.817,211.963z
			 M322.588,216.314c0-1.279,0-2.559-0.256-3.583c0.767,1.025,1.536,1.792,2.303,2.816c0,1.022,0,2.301,0,3.838
			C324.124,218.36,323.355,217.338,322.588,216.314z M323.355,223.99c0-1.534-0.256-3.071-0.256-4.606
			c0.256,0.767,0.512,1.534,1.279,2.559c0,0,0,0.255,0.256,0.255c0,1.279,0,2.304,0,3.584c-0.511-0.512-0.767-1.025-1.023-1.279
			C323.355,224.245,323.355,223.99,323.355,223.99z M319.006,245.486c0.255-0.257,0.511-0.512,0.511-0.512c0,4.605,0,9.211,0,13.817
			c0.256,7.167,0.256,14.331,0,21.241c0,0.255,0,0.255-0.256,0.255c0,3.838-0.255,7.677-0.255,11.77
			c-0.256-3.581-0.512-7.164-0.512-10.745c0-10.493,0-20.984,0-31.219c0-5.885,0-11.515,0-17.145
			C318.75,237.04,318.75,241.136,319.006,245.486z M311.329,334.279c0,0.512,0,0.77,0,1.279v1.537
			c0.255,3.071,0.255,6.14,0.511,9.469c0,2.814,0,5.628,0,8.444c0,15.353,0.768,30.195,2.048,45.036c0,0.257,0,0.257,0,0.257
			c-1.025-3.838-2.048-7.677-3.327-11.515l-0.256,0.255c0.768,4.093,1.792,8.444,2.815,12.54c0.256,0,0.512-0.257,0.768-0.512
			c0,2.814,0,5.63,0,8.699c-1.279-4.348-2.304-8.186-3.583-12.537c0-6.397,0-12.282,0-18.68c0.256-13.819,0.256-27.638,0.256-41.455
			c0-5.63,0-11.003,0-16.378C310.561,325.067,310.817,329.93,311.329,334.279z M318.494,333.511c0-0.767,0-1.022,0-1.792
			c0,0.77,0,2.049,0.256,2.816c0,2.559,0,5.118-0.256,7.677l0,0C318.494,339.396,318.494,336.328,318.494,333.511z M318.494,342.725
			c0,0,0,0.255,0,0.51c0,3.583,0,7.167,0,10.493l0,0c0-3.838,0-7.677,0-11.26C318.494,342.725,318.494,342.725,318.494,342.725z
			 M318.494,354.24L318.494,354.24c0,4.86,0.256,9.723,0.512,14.329c-0.256,3.071-0.256,6.142-0.512,9.469c0-1.025,0-2.047,0-3.071
			C318.494,368.057,318.494,361.147,318.494,354.24z M246.588,436.893c-0.767,0-1.536-0.257-2.047-0.512
			c0.256-5.63,0.511-11.77,0.511-17.658c0-4.86,0-9.723,0-14.584C245.308,414.884,245.821,425.89,246.588,436.893z M246.332,440.473
			c-0.511-0.255-0.767-0.255-1.023-0.255v0.255l0,0c-0.511-0.255-0.767-0.51-1.023-0.767c0-1.022,0-2.047,0.256-2.814
			c0.511,0,1.279,0.255,2.047,0.767c0,0.255,0,0.767,0,1.279c0-0.255,0.256-0.512,0.512-0.767v-0.257
			c3.07,1.025,6.141,2.049,9.212,2.816c-2.304,0-4.607,0-6.653-0.257C248.38,440.219,247.356,440.219,246.332,440.473z
			 M328.985,439.194c0,0,0,0-0.256,0l0,0c0.256,0.257,0.512,0.257,0.767,0.257c0,0,0,0,0.256,0.255
			c-0.511-0.255-0.767-0.255-1.023-0.512c-1.536-0.51-3.071-1.022-4.606-1.279c-0.256-0.767-0.256-1.534-0.256-2.301
			c0-0.257,0-0.512,0-0.767C325.403,436.38,327.194,437.915,328.985,439.194z M333.08,440.731c-0.512,0-0.768-0.257-1.025-0.257
			c0-0.255,0-0.255,0-0.255c0.512,0.255,0.768,0.255,1.025,0.255C333.08,440.731,333.08,440.731,333.08,440.731z M322.588,417.701
			c-0.256-0.257-0.512-0.512-0.768-0.512c0-4.351,0-8.444,0-12.54C322.076,408.999,322.332,413.35,322.588,417.701z M321.82,419.235
			c0-0.512,0-1.022,0-1.534c0.256,0.255,0.512,0.512,0.768,0.512c0,2.302,0,4.348,0.256,6.397c-0.512-0.257-0.768-0.77-1.025-1.025
			C321.82,422.051,321.82,420.772,321.82,419.235z M323.099,432.542c-0.511-0.512-1.023-1.025-1.279-1.534c0-1.792,0-3.838,0-5.888
			c0.256,0.257,0.512,0.512,1.025,1.025C322.844,428.191,323.099,430.495,323.099,432.542z M318.494,427.679
			c0,0.257,0,0.257,0.256,0.512c0,2.559,0.256,5.375,0.511,8.189c-0.255,0-0.255,0-0.511,0c0-1.792-0.256-3.326-0.256-4.863
			C318.494,430.238,318.494,428.958,318.494,427.679z M318.75,427.424h-0.256c0-1.279,0-2.814,0-4.093
			C318.494,424.61,318.494,426.145,318.75,427.424z M315.422,432.542c0.256-2.304,0.256-4.863,0.256-7.164
			c0.256,3.071,0.256,6.14,0.512,9.211C315.935,433.821,315.679,433.309,315.422,432.542z M315.168,437.147c0-0.255,0-0.512,0-0.512
			h0.255c0,0,0,0,0,0.257c0,0,0,0,0,0.255C315.168,437.147,315.168,437.147,315.168,437.147z M318.75,436.38
			c0.256,0,0.256,0,0.511,0.255c0,1.025,0,2.049,0.256,3.329h-0.256c0-1.025-0.255-1.792-0.511-2.559
			C318.75,437.147,318.75,436.635,318.75,436.38z M321.053,440.219c0.256-0.767,0.256-1.792,0.256-2.814
			c0.767,0.255,1.536,0.51,2.047,0.767c0,0.512,0,1.022,0,1.534c0.256-0.255,0.512-0.512,0.768-0.767c0-0.255,0-0.255,0-0.512
			c2.814,1.025,5.885,2.047,9.211,3.071c-2.303-0.255-4.605-0.255-6.908-0.255c-1.023-0.512-2.303-0.512-3.327-0.257
			c-0.255,0-0.511,0-0.767,0l0,0l-0.256,0.257C321.82,440.986,321.565,440.731,321.053,440.219z M323.355,437.66
			c-0.511-0.255-1.279-0.512-2.047-0.512c0.256-1.792,0.256-3.326,0.256-4.86c0.511,0.51,1.023,1.022,1.534,1.789
			C323.355,435.101,323.355,436.38,323.355,437.66z M451.301,163.343h0.256v0.257c-0.256-0.257-0.256-0.257-0.256,0V163.343z
			 M453.86,164.623c-0.256,0.257-0.511,0.512-0.767,0.512c0.256,0,0.511,0,0.767-0.255c0,0.255,0,0.255,0.256,0.255
			c0,0.255,0,0.512,0,0.512c0.256,0.255,0.256,0.512,0.256,0.767c0.511,0.767,0.767,1.792,1.279,2.814
			c-0.512,0.512-0.256,1.279,0.256,1.537c0.255,0,0.255-0.257,0.511-0.257c0.256,1.792,0.768,3.583,1.536,5.375
			c-0.512-0.257-1.023-0.767-1.536-1.537c-0.256,0.257-0.511,0.257-0.256,0.257c0.768,1.022,1.536,1.792,2.304,2.559
			c0.767,1.534,1.279,3.071,2.047,4.351c-1.279-0.512-2.303-1.279-3.582-1.792c-0.256,0-0.256,0,0,0.255
			c1.279,1.025,2.559,2.047,3.838,3.071c0.767,1.279,1.279,2.814,2.047,4.093c-2.303-1.279-4.862-2.559-7.164-3.581h-0.256
			c2.559,1.792,5.374,3.581,7.933,5.118c0.511,1.022,1.023,2.047,1.279,2.814c-2.559-1.279-5.374-2.559-8.189-3.581v0.255
			c2.815,1.534,5.63,3.071,8.7,4.606c0.768,1.279,1.279,2.816,2.048,4.351c-4.094-1.534-7.933-3.583-11.515-5.63
			c-0.768,0.512-0.256,1.279,1.279,2.047c3.326,1.792,7.164,3.838,11.003,5.63c2.048,5.118,4.351,10.493,6.653,15.866
			c5.118,12.795,10.492,25.589,15.866,38.384c5.373,12.795,10.747,25.589,16.121,38.384c5.374,12.795,10.748,25.589,16.121,38.639
			c5.118,12.795,10.492,25.589,15.61,38.384c0.512,1.279,1.279,2.559,1.792,4.096c-0.768-1.025-1.536-2.047-2.559-2.816l0,0
			c1.023,1.537,2.047,3.071,3.326,4.608c2.048,5.118,4.351,10.236,6.654,15.354c-1.792-2.559-3.838-5.118-6.141-7.422l-0.256,0.255
			c3.582,4.608,6.653,8.956,9.212,13.819c0.511,1.025,1.023,1.792,1.279,2.814c-1.792-2.301-3.838-4.348-5.374-6.907l-0.256,0.255
			c1.792,3.071,4.095,6.142,6.653,8.701v-0.257c0.767,1.792,1.536,3.583,2.559,5.375c-1.023-2.816-1.792-5.888-3.071-8.701
			c-2.559-6.397-5.118-12.795-7.932-19.192c2.047,2.814,4.349,5.373,6.397,7.932c-0.256,0.512-0.256,1.025-0.256,1.537
			c0.256-0.257,0.767-0.512,1.279-0.767c2.559,6.652,5.629,13.304,8.188,19.959c1.536,3.581,3.071,6.397,4.863,8.699
			c-0.256-0.255-0.256-0.767-0.256-1.022c0,0.255,0.511,0.512,0.767,0.767c-0.767,0.767-1.536,1.534-2.303,2.304
			c-0.256,0-0.512,0.255-1.023,0.255c0,0.255-0.256,0.255-0.512,0.255l0,0c-0.256,0-0.256,0-0.256,0c-1.023,0-2.047,0-3.326,0.257
			c-3.838,0-7.677,0-11.515,0.255l-0.256,0.257c2.559,0.255,5.118,0.255,7.677,0.51c-0.256,0-0.767,0.257-0.767,0.257
			c-1.279,0.512-2.048,1.022-3.071,1.534c-2.815-0.512-5.629-0.767-8.444-1.022c-0.512,0-1.279,0.255-1.536,0.255l-0.256,0.255
			c2.815,0.77,5.63,1.025,8.189,1.279c-1.279,0.512-2.559,1.025-3.582,1.537c-4.863-0.257-9.981-0.512-14.842-0.767l-0.511,0.255
			c4.349,0.767,8.7,1.279,13.306,1.534c-1.023,0.257-2.047,0.77-3.326,1.279c-5.374-0.255-11.004-0.767-16.633-1.022l-0.512,0.255
			c5.118,1.025,10.236,1.537,15.353,1.537c-1.023,0.51-2.047,0.767-2.815,1.279c-7.421,0-14.841,0.255-22.262,0.51l-0.256,0.257
			c4.094-0.257,8.444,0,13.051,1.022c1.279,0,2.559,0.257,3.838,0.512c-0.768,0.257-1.536,0.512-2.048,0.767
			c-2.303,0.257-4.606,0.512-6.908,0.77h-0.256c1.279,0.255,2.815,0.255,4.605,0.255c-0.511,0-0.511,0-0.767,0.255
			c-5.374,0-10.748,0-16.377-0.255c-0.512,0.767,0,1.025,1.79,1.025c4.094-0.257,8.189,0,12.284,0c0,0,0,0-0.256,0
			c-1.023,0.51-2.303,1.022-3.582,1.279c-1.279,0.255-2.815,0.767-4.351,1.022c-2.559,0.257-5.118,0.767-7.421,1.279v0.257
			c1.536-0.257,2.815-0.512,4.605-0.512c-0.255,0-0.255,0-0.255,0.255c-3.071,0-6.397,0.257-9.468,0.512
			c-0.256-0.512-0.512-1.279-1.023-2.047c-5.374-12.54-11.004-25.334-17.145-37.617c0,0.255,0,1.025,0,1.279
			c-2.303-5.373-4.606-10.748-6.653-16.121c-5.118-11.773-9.98-23.797-14.841-35.825l-12.282-29.685
			c-1.279-2.814-2.559-5.885-3.584-8.956c-0.511-0.51-0.511-1.022-0.767-1.534c4.862,3.838,9.723,7.932,14.586,12.027
			c0.255-0.257,0.511-0.257,0.767-0.257c-0.256-0.255-0.512-0.255-0.512-0.51c-5.118-4.096-10.236-8.446-15.353-12.285
			c-1.279-3.581-3.07-6.907-4.349-10.236c2.559,2.049,5.374,4.351,7.677,6.91c5.118,4.863,10.236,8.444,15.865,10.748
			c0,0-0.255-0.255-0.511-0.255c-0.512-0.512-1.279-1.025-1.792-1.537c-7.164-6.14-14.33-12.282-22.007-17.912
			c-3.326-7.932-6.397-15.866-9.467-23.543c-0.768-2.047-1.536-3.838-2.303-5.628c1.279,0.767,2.814,1.534,4.349,2.559
			c0.256,0.51,0.512,1.022,0.768,1.789c-0.256-0.51-0.256-1.022-0.512-1.534c9.212,5.373,17.912,11.77,26.612,18.937
			c0.256-0.257,0.512-0.257,0.768-0.512c-0.256,0-0.512-0.257-0.512-0.512c-8.444-7.932-17.656-14.586-27.636-19.704
			c-1.279-3.838-2.815-7.677-4.351-11.258c4.862,4.348,9.979,7.677,15.61,9.466c-0.512-0.255-0.768-0.51-1.023-0.51
			c-0.256-0.257-0.256-0.257-0.512-0.257c0-0.255,0-0.255,0-0.255c-5.118-5.63-10.748-10.493-16.633-15.099
			c-0.512-1.022-1.023-2.047-1.279-3.071c3.838,3.838,7.933,7.422,12.282,11.005c0.512,0.255,0.768,0.51,0.768,1.022
			c0.511,0.512,1.023,0.512,1.279-0.255c0-0.257,0-0.257-0.256-0.512c-4.862-3.838-9.723-7.932-14.586-12.027
			c-0.767-2.047-1.534-3.838-2.303-5.885c5.886,4.863,12.027,9.211,18.425,13.049c0-0.255,0-0.255,0-0.255
			c-6.397-5.63-13.051-10.748-19.704-15.866c-0.511-1.022-1.023-2.301-1.536-3.581c4.607,4.093,9.212,7.932,14.074,11.258
			c0.768,0,1.536,0,2.304-0.255c-0.256,0-0.256,0-0.256-0.257c-5.63-3.838-11.515-7.932-16.889-12.537
			c-0.767-1.279-1.279-2.816-1.792-4.351c4.607,2.814,8.956,5.885,13.307,9.211c-0.256,0-0.512,0.257-0.767,0.512
			c0.511,0.257,1.023,0.257,1.279,0h0.255c0.512,0.257,1.025,0.767,1.792,1.279c-0.767,0.512-1.279,1.279-1.536,2.047
			c1.023-0.255,1.792-0.51,2.815-1.022c0.256,0.255,0.767,0.512,1.023,0.767c-0.256,0-0.256,0.255-0.256,0.255
			c-0.255,0-0.511,0.257-0.511,0.512c0.511,0,0.767-0.255,1.023-0.512c0.767,0.512,1.279,1.025,1.792,1.537
			c2.047,0.767,2.814,0.767,2.559-0.257c-0.256,0-0.256,0-0.512-0.255c0.256,0,1.023-0.255,1.536-0.512
			c3.838-1.792,7.677-3.581,11.259-5.373c5.118-2.816,10.236-5.63,14.841-8.956v-0.257c0,0,0.256-0.255,0.512-0.51
			c-0.512-0.257-1.023-0.512-1.536-0.512c2.303-1.279,4.351-2.816,6.397-4.606c-0.256,0-0.256-0.257-0.256-0.257
			c-0.255-0.255-0.511-0.255-0.767-0.512c-1.279,0.77-2.559,1.279-3.838,1.792c-1.792,0.512-3.582,1.279-5.374,1.792
			c0-0.255,0.256-0.512,0.512-0.767c1.023-0.512,1.79-1.279,2.559-2.047v-0.257c0-0.512,0-0.767,0-1.022v-0.257
			c-0.256,0.257-0.768,0.512-1.279,0.767l0,0c-0.512,0.257-1.279,0.77-1.792,1.279c-0.256-0.255-0.256-0.255-0.256-0.255
			c-0.511-0.255-0.511-0.255-0.767-0.255c1.536-1.025,3.582-2.304,5.374-3.329c0-0.51,0-0.767-0.256-1.279c0,0,0-0.255-0.256-0.51
			l0,0l0,0c0.512-0.512,1.279-0.77,1.792-1.279h-0.256c0-0.257,0-0.512-0.256-0.512c0-0.257,0-0.257-0.256-0.512
			c-7.421,3.326-15.097,6.652-22.518,10.236c-2.303,1.279-4.862,2.559-6.91,4.093c-0.255,0-0.255,0.257-0.511,0.512v0.257
			c0,0.255,0,0.255,0.256,0.51c1.79-0.51,3.582-1.279,5.118-1.789c-1.025,0.51-2.048,1.279-3.327,1.789
			c-1.536,1.025-3.326,2.304-4.862,3.838l-0.256,0.257c0.512-0.257,1.536-0.512,2.048-0.767c-1.536,1.022-2.815,2.047-4.095,3.326
			c-5.118-3.838-10.236-7.164-15.866-10.236c-0.511-1.025-1.023-2.304-1.536-3.584c2.559,1.537,5.118,3.326,7.677,4.863
			c0.512,0,1.279,0,2.048-0.257l-0.256-0.255c-3.326-2.047-6.653-3.838-10.236-5.63c-0.256-0.512-0.512-1.022-0.512-1.534
			c1.279,0.767,2.815,1.534,4.351,2.301c0.256-0.255,0.767-0.51,1.023-1.022l-0.256-0.257c-0.511,0.512-1.023,0.512-1.534,0
			c-0.256,0-0.512,0-0.512-0.255c-1.279-0.767-2.559-1.279-3.582-2.047c-0.256,0-0.256,0-0.256-0.257h-0.256v0.257
			c-1.279-0.767-2.815-1.537-4.095-2.047c-0.511-0.77-0.767-1.537-1.023-2.304c3.327,1.534,6.91,3.071,10.748,4.606l0.256-0.255
			c0-0.257-0.256-0.257-0.256-0.257c-0.256-0.255-0.512-0.255-0.512-0.51c-3.582-1.792-7.164-3.329-10.747-4.351
			c-0.512-1.537-1.025-2.816-1.792-4.096c4.862,3.071,9.723,5.63,15.097,7.167c-0.256,0-0.256-0.257-0.511-0.257
			c-4.863-2.559-9.981-5.118-14.842-7.677c-0.511-1.279-1.023-2.301-1.536-3.581c0.512,0.51,1.025,0.767,1.536,1.022
			c0.512,0.512,1.279,1.025,1.792,1.537c1.536,1.279,3.07,2.301,4.606,3.581c1.792,1.792,3.327,2.559,4.607,2.304
			c0,0-0.256-0.257-0.512-0.257c-2.047-1.534-4.351-3.326-6.141-4.86c0.767,0.255,1.79,0.512,2.815,1.022
			c2.303,1.792,4.349,3.838,6.652,5.888c0.256,0,0.768,0,1.279,0.255c0.256-0.255,0.512-0.512,0.512-0.512
			c0.256-0.255,0.256-0.255,0.256-0.512c-0.256-0.255-0.512-0.51-0.768-0.51c-1.79-1.537-3.582-3.071-5.373-4.608
			c0,0,0,0,0.255-0.255c-0.255,0-0.255,0-0.255,0c-0.256,0-0.256,0-0.256,0c-4.094-3.583-7.933-6.91-11.771-9.981
			c-0.256-0.255-0.256-0.255-0.256-0.255c-0.511-0.512-0.767-1.279-1.279-2.047c2.303,1.534,4.607,2.559,7.166,3.581
			c3.326,3.329,6.397,6.397,9.723,9.726c0.256,0,0.767,0.255,1.279,0.255c0.767,0.255,1.536,0.255,2.559,0
			c0-0.255-0.256-0.255-0.256-0.255c-0.767-0.512-1.536-0.77-2.303-1.025c-0.256,0-0.256-0.255-0.512-0.255
			c-2.559-2.559-5.118-5.118-7.932-7.422c0.255,0.255,0.767,0.255,1.023,0.512c0.256-0.257,0.256-0.512,0.256-0.512
			c0-0.255,0-0.255-0.256-0.512c-0.256,0-0.512,0-0.768-0.255c-1.023-0.512-2.047-1.025-3.07-1.279
			c-0.768-0.767-1.536-1.537-2.559-2.047h-0.256c0.256,0.51,0.512,0.767,1.023,1.022c-2.047-0.767-3.838-1.534-5.629-2.301
			c-0.512-1.279-1.025-2.304-1.279-3.584c14.585-6.397,29.428-12.027,44.269-17.4c0,0,0,0-0.256,0
			c-3.838,1.022-7.677,2.047-11.515,3.071c6.141-2.559,12.027-4.863,18.425-6.655c1.79-0.767,3.326-1.534,4.862-2.559
			c-0.767,0-1.536,0.257-2.303,0.257c0.767-0.257,1.536-0.512,2.303-1.025c0.512-0.255,1.023-0.512,1.536-0.512
			C453.349,164.623,453.604,164.623,453.86,164.623L453.86,164.623z M406.009,216.059c-0.256-0.77-0.512-1.537-1.025-2.049
			c1.536,0.77,3.071,1.537,4.607,2.559c0,0.512,0.256,1.025,0.511,1.537C408.823,217.338,407.543,216.568,406.009,216.059z
			 M406.264,216.826c1.536,0.767,2.815,1.534,4.351,2.301c0.256,1.279,0.767,2.559,1.279,3.583c0,0,0,0-0.256,0h-0.256
			c-0.255,0-0.511,0-0.767,0.255v0.257c0,0.255,0.256,0.512,0.512,0.512c0.511,0.255,1.023,0.51,1.534,1.022
			c0.512,1.279,1.025,2.559,1.536,3.838c-1.536-1.279-2.815-2.559-4.349-3.838C408.823,222.199,407.543,219.385,406.264,216.826z
			 M407.032,204.798c-1.279-0.512-2.303-1.025-3.327-1.279c-1.79-1.792-3.582-3.326-5.118-5.118
			c-0.511-1.025-0.767-1.792-1.023-2.559C400.635,198.913,403.705,201.727,407.032,204.798z M392.19,171.02
			c0.256-0.255,0.256-0.512,0.512-0.512c0,0.512,0,1.025,0,1.792c-0.256,0-0.256,0.257-0.256,0.257
			C392.19,172.045,392.19,171.533,392.19,171.02z M384.258,165.39c-0.256,0-0.256,0-0.256,0H384.258L384.258,165.39L384.258,165.39z
			 M388.352,171.02c-0.255,0-0.511,0-0.511-0.255c-0.256,0-0.256-0.257-0.512-0.512c1.023,0,1.792,0,2.559,0
			c0.256,1.534,0.512,2.814,0.768,4.351c-0.256,2.559-0.256,5.118-0.256,7.932c0,6.655,0,13.052,0.256,19.704
			c-0.256-0.255-0.256-0.255-0.256-0.255c-1.023-1.025-1.792-2.049-2.559-2.816c0-1.022,0-2.047,0-2.814
			c0.511,0.767,1.023,0.767,1.279,0c0-0.257,0-0.512-0.256-0.512c-0.256-0.512-0.767-1.025-1.023-1.534
			c-0.256-1.537-0.256-2.816-0.256-4.351c0.767,1.022,1.536,1.792,2.047,2.559c0-0.257,0-0.257,0-0.512
			c-0.767-1.025-1.279-2.304-2.047-3.326c0-1.537,0-3.071-0.256-4.863c0.512,0.512,0.768,1.025,1.023,1.279c0.512,0,1.025,0,1.536,0
			c0,0,0,0-0.256-0.255c-0.767-0.767-1.534-1.537-2.303-2.304c0-3.071-0.256-5.885-0.256-8.699c0-0.257,0-0.257,0-0.257
			c0.256,0,0.256-0.255,0.256-0.512c0,0,0-0.255,0-0.51C387.841,172.045,388.097,171.533,388.352,171.02z M392.446,176.138
			c0-0.512,0-0.767,0-1.022v-0.257C392.446,175.371,392.446,175.626,392.446,176.138z M352.272,168.719
			c-0.512-0.257-0.768-0.257-1.025-0.512c0.768,0,1.279,0,1.792,0c0.256,0.255,0.256,0.255,0.256,0.512
			c-0.256,0-0.512,0-0.768,0.255C352.527,168.719,352.272,168.719,352.272,168.719z M359.949,167.439c0,0,0,0,0.255,0.255
			c-0.767-0.255-1.279-0.255-1.79-0.255C358.924,167.439,359.436,167.439,359.949,167.439z M358.157,168.461
			c0.512,0.257,1.023,0.512,1.536,0.767c-0.768-0.255-1.536-0.51-2.303-0.767C357.645,168.461,357.901,168.461,358.157,168.461z
			 M397.308,195.075c-0.255-0.512-0.511-1.025-0.511-1.537c0.256,0.512,0.511,1.025,1.023,1.537
			C397.564,195.075,397.308,195.075,397.308,195.075z M395.517,187.911c0,0,0,0,0-0.257c0.511,0,1.023-0.255,1.536-0.512
			C396.541,187.398,396.028,187.653,395.517,187.911L395.517,187.911z M390.143,202.752c0,0,0.256,0,0.512,0
			c-0.256,1.534-0.256,3.071,0,4.606c-1.025-1.025-1.792-1.792-2.815-2.559c0-1.534,0-3.071,0-4.606
			C388.608,200.96,389.376,201.727,390.143,202.752z M399.356,200.96c0.256,0.255,0.511,0.512,0.767,0.767c0,0-0.256,0-0.511-0.255
			c0,0,0,0,0-0.257C399.356,201.215,399.356,200.96,399.356,200.96z M387.841,212.475c0-1.792,0-3.838,0-5.63
			c1.023,0.767,1.79,1.279,2.815,1.279c0,5.375,0,10.748,0,16.121c0,14.074,0,27.893,0,41.712c0,14.074,0,27.636,0,41.71
			c0,13.817,0,27.636,0,41.71c0,13.819,0,27.893,0,41.71c0,3.326,0,6.655,0,9.981c-1.025-3.838-2.048-7.677-3.071-11.515h-0.256
			c0.768,4.351,1.536,8.444,2.815,12.795c0.256-0.257,0.512-0.512,0.512-0.512c0,2.814,0,5.63,0,8.444
			c-1.025-4.093-2.304-8.189-3.327-12.537c0-6.142,0-12.285,0-18.425c0-13.819,0-27.636,0-41.71c0-13.819,0-27.638,0-41.712
			c0.256-13.817,0.256-27.636,0.256-41.71C387.584,240.368,387.584,226.549,387.841,212.475z M429.806,234.226
			c0-0.255,0-0.255,0-0.255V234.226L429.806,234.226z M431.086,235.251c0.256-0.257,0.767-0.257,1.023-0.257
			C431.853,234.993,431.342,235.251,431.086,235.251L431.086,235.251z M441.065,228.853c-3.326,1.789-6.908,3.326-10.236,4.86
			c5.118-2.559,10.236-5.373,15.097-7.932C444.137,226.804,442.857,227.829,441.065,228.853z M434.668,238.064
			c-0.256,0-0.511-0.255-0.767-0.512c7.421-3.326,14.841-7.164,21.751-11.258c0.511-0.257,1.023-0.257,1.279-0.512
			c-3.838,2.301-7.677,4.351-11.515,6.91C442.089,234.481,438.507,236.273,434.668,238.064z M433.389,237.04
			c-0.256-0.255-0.256-0.255-0.511-0.255c0.511-0.255,1.023-0.512,1.534-0.767v0.255C433.901,236.53,433.645,236.785,433.389,237.04
			z M410.871,227.061c-0.256-0.512-0.512-1.025-0.512-1.279c1.279,1.279,2.815,2.814,4.607,4.351
			c0.255,1.022,0.767,2.301,1.279,3.581c-1.025-0.767-2.304-1.534-3.327-2.301C412.15,229.875,411.382,228.341,410.871,227.061z
			 M418.291,241.136c-0.256,0-0.256-0.257-0.512-0.512c-1.279-2.047-2.303-4.351-3.582-6.652c1.023,0.767,2.048,1.789,3.327,2.559
			c1.279,3.326,2.559,6.652,3.838,9.978c-0.256-0.255-0.768-0.512-1.025-0.767c-0.511-0.255-0.511-0.255-0.511,0
			c0.767,0.512,1.279,1.279,2.047,1.792c0.256,1.022,0.768,2.047,1.279,3.071c2.048,5.118,4.351,9.978,6.653,14.584
			c-1.279-0.51-2.303-1.022-3.326-1.534c-0.256,0-0.256,0-0.512,0c-1.536-4.093-3.326-7.932-5.118-11.77
			c-1.536-3.838-3.071-7.677-4.606-11.26C417.012,240.878,417.524,241.136,418.291,241.136z M424.176,249.834
			c4.607,4.351,9.469,8.446,14.586,12.285c-4.606-2.559-8.956-5.63-13.051-8.446C425.201,252.138,424.689,250.859,424.176,249.834z
			 M456.931,167.182c-0.256-0.255-0.512-0.255-0.512-0.512h-0.256c0.768-0.255,1.536-0.51,2.304-0.767
			c0.767,1.025,1.534,2.304,2.303,3.583c1.023,2.301,1.79,4.86,3.07,7.419c2.559,6.142,5.118,12.027,7.677,17.912
			c-0.255,0-0.511,0-0.511,0c-1.279-0.767-2.048-1.279-3.327-1.789c-0.511-0.77-0.767-1.537-1.023-2.559
			c0.768,0.51,1.279,0.51,1.279-0.512c-0.256,0-0.256-0.257-0.511-0.257c-0.512-0.51-1.025-0.767-1.536-1.022
			c-0.768-1.279-1.279-2.559-1.792-3.838c0.768,0.512,1.792,1.022,2.815,1.534c0-0.255-0.256-0.255-0.256-0.512
			c-1.023-0.767-2.047-1.534-3.326-2.301c-0.512-1.279-1.279-2.816-1.792-4.351c0.256,0.255,0.768,0.512,1.279,0.767
			c0.512-0.255,1.023-0.512,1.536-0.512c0,0-0.256,0-0.256-0.255c-1.279-0.255-2.303-0.767-3.326-1.279
			c-1.279-2.559-2.559-5.373-3.582-7.932c0,0,0,0,0.255,0c0-0.257,0-0.512-0.255-0.512c0-0.257,0-0.512,0-0.512
			c0.255-0.767,0.255-1.279,0.255-2.047C457.187,167.182,456.931,167.182,456.931,167.182z M462.816,169.228v-0.255
			c0,0.512,0.256,0.767,0.512,1.025C463.072,169.741,462.816,169.486,462.816,169.228z M461.281,164.88
			c0,0.51,0.256,1.022,0.512,1.534c0,0.255,0,0.512,0,0.512c-0.256-0.512-0.512-1.025-0.767-1.537
			C461.026,165.135,461.026,164.88,461.281,164.88z M471.005,195.587c0.256,0,0.511,0,0.511-0.257
			c0.512,1.537,1.279,2.816,1.792,4.351c-1.023-0.512-2.303-1.025-3.582-1.279c-0.512-1.534-1.023-2.814-1.536-4.351
			C469.214,194.563,470.237,195.075,471.005,195.587z M470.749,200.193c1.023,0.255,2.047,0.512,2.815,0.255
			c2.303,4.863,4.349,9.981,6.397,14.841c5.118,12.795,10.492,25.589,15.865,38.641c5.374,12.537,10.748,25.332,16.122,38.126
			c5.118,12.795,10.492,25.589,15.864,38.641c5.374,12.795,10.748,25.589,16.122,38.384c1.279,3.071,2.559,6.14,3.838,9.211
			c-2.559-3.326-5.118-6.14-7.421-9.469l-0.256,0.257c2.559,3.581,4.862,7.164,7.677,10.748c0-0.257,0-0.512,0.256-0.77
			c1.023,2.559,2.047,5.118,3.326,7.934c-2.815-3.326-5.374-6.91-8.189-10.493c-2.303-5.628-4.606-11.258-6.908-16.888
			c-5.374-12.795-10.492-25.589-15.866-38.384c-5.374-13.049-10.747-25.844-16.121-38.639c-5.118-12.795-10.492-25.589-15.61-38.384
			c-5.374-13.052-10.748-25.847-15.866-38.641C472.029,203.774,471.261,201.985,470.749,200.193z M392.958,435.101
			c-0.256-0.512-0.512-1.279-0.512-1.792c0-2.559,0-4.86,0.256-7.419C392.702,428.958,392.958,432.03,392.958,435.101z
			 M392.19,437.405L392.19,437.405c0,0.255,0,0.255,0,0.255s0,0,0,0.255c0-0.255,0-0.51,0-0.767V437.405z M500.433,439.706
			c0-0.255,0-0.512,0.256-1.022c-0.256,0-0.256-0.257-0.256-0.257c3.326-0.255,6.397-0.512,9.723-0.767
			c-2.047,0.767-4.095,1.534-6.397,2.304c-1.023,0.255-2.047,0.51-3.07,1.022c-0.256,0.257-0.512,0.257-0.768,0.257v0.255l0,0
			c-0.511,0-1.023-0.255-1.279-0.255c-0.511-1.025-0.767-2.049-1.023-2.816c0.767,0,1.536,0,2.303,0
			C499.92,438.684,500.177,439.194,500.433,439.706z M499.664,437.915c-0.767,0-1.534,0-2.047,0.257
			c-2.047-5.63-4.095-11.26-6.397-16.633c-1.792-4.606-3.582-8.956-5.63-13.562C490.197,417.956,494.803,427.936,499.664,437.915z
			 M561.591,407.208c-1.023-2.047-1.792-4.348-2.559-6.652c1.279,2.814,2.559,5.63,3.838,8.189
			C562.358,408.232,561.847,407.72,561.591,407.208z M563.126,411.558c0,0,0-0.255-0.256-0.512h0.256c0,0.257,0,0.257,0,0.257
			C563.126,411.558,563.126,411.558,563.126,411.558z"/>
		<path fill="#333333" d="M301.861,177.163c-0.256,0-0.256-0.257-0.256-0.257c-3.838-1.789-7.677-3.838-11.259-5.885
			c-1.023,0-1.023,0.257-0.256,1.025C293.928,174.346,297.766,176.138,301.861,177.163z"/>
		<path fill="#333333" d="M301.348,218.36c0-0.255,0-0.512,0-0.512c0-0.255,0-0.255,0-0.51c-8.188-0.77-16.377-1.792-24.565-2.559
			c-2.815,0-5.374,0-8.189,0c0,0.255-0.256,0.255-0.512,0.255c0,0.255,0,0.255-0.255,0.512c0,0,0,0.255,0,0.512
			c1.79,0.255,3.582,0.51,5.373,0.767c-1.279,0-2.559,0-3.838,0c-1.79,0.255-3.838,0.512-6.141,0.767l-0.256,0.255
			c0.768,0.257,1.536,0.257,2.048,0.512c-2.559,0.257-5.374,0.512-7.933,0.767c0.256,0.512,0.767,0.77,1.023,0.77
			c0.768,0,1.536,0,2.303,0.255c0,0-0.255,0-0.511,0c0,0.255-0.256,0.255-0.256,0.512c0,0,0,0.255,0,0.512
			c0.767,0.255,1.536,0.51,2.303,0.767c-0.511,0-1.023,0-1.536-0.257c-1.279,0-2.559,0.512-3.326,1.279
			c2.047,0.512,4.095,0.77,6.397,1.279c-1.279,0-2.303,0.257-3.582,0.512c0,0-0.256,0-0.512,0.257
			c8.956,0.767,18.169,1.279,27.381,1.279c0.256,0,0.767,0,1.279,0.255c-4.351-0.255-8.7,0-13.051,0.255
			c-4.351-0.255-8.7-0.51-12.795-0.767c-1.023,1.025,0,1.792,2.815,2.047c4.349,0.512,8.444,1.025,12.538,1.025
			c5.63,0.255,11.259,0.255,17.145-0.255c0-0.257,0-0.257,0-0.257c0.255-0.255,0.511-0.255,0.767-0.255
			c-0.256-0.512-0.512-1.025-1.023-1.279c2.559,0,5.118-0.257,7.677-0.767c0,0,0-0.257,0-0.512c0,0-0.256-0.257-0.256-0.512
			c-1.536-0.255-2.815-0.255-4.351-0.512c-1.79-0.512-3.582-0.767-5.629-1.022c0.256-0.257,0.511-0.257,1.023-0.512
			c1.023,0,2.047-0.257,3.326-0.257c0-0.255,0-0.51,0-0.51c0-0.257,0.256-0.512,0.512-0.77c0,0,0.256,0,0.256-0.255
			c-0.512,0-1.023,0-1.536,0.255c0-0.255,0-0.255,0-0.255c-0.767,0-1.536,0-2.303,0c-0.256,0-0.256,0-0.256-0.255
			c0,0-0.256-0.257-0.512-0.512c2.304,0,4.351,0,6.397-0.257c0.256-0.255,0.256-0.767,0.512-1.022c0-0.257,0-0.257,0-0.512v-0.255
			c0.512,0,1.279,0,2.303,0C301.348,218.36,301.348,218.36,301.348,218.36z M278.574,220.919c-1.79,0-3.838,0.257-5.629,0.257
			c-3.838-0.257-7.677-0.512-11.515-1.025C267.315,220.407,272.945,220.664,278.574,220.919z"/>
		<path fill="#333333" d="M279.854,168.206h-0.256c3.584,4.093,8.189,6.652,13.563,7.677c0,0,0,0-0.256,0
			C288.299,173.837,283.948,171.278,279.854,168.206z"/>
		<path fill="#333333" d="M278.574,177.93c0,0,0-0.255-0.256-0.255c-6.397-2.816-12.795-5.888-19.192-9.214v0.257
			c0,0-0.255,0-0.255,0.255c0,0,0,0.255,0,0.512c3.07,0.767,6.141,2.047,8.7,4.351C271.154,176.65,274.736,177.93,278.574,177.93z"
			/>
		<path fill="#333333" d="M280.622,175.371c-0.256-0.255-0.256-0.255-0.512-0.512c-2.815-1.792-5.63-3.581-8.7-5.373h-0.512
			c4.095,4.351,9.212,6.91,15.097,7.677c-0.511,0-0.767-0.257-1.279-0.512C283.436,176.138,281.902,175.626,280.622,175.371z"/>
		<path fill="#333333" d="M248.891,168.974c0.768,0.255,1.536,0.767,2.304,1.279c1.534,2.304,3.582,4.093,6.141,5.63
			c-0.256-0.257-0.256-0.512-0.256-0.512c-1.536-1.534-3.071-3.071-4.606-4.351c6.652,3.838,13.818,7.164,20.726,9.723
			c-0.255-0.255-0.511-0.255-0.767-0.51c-7.677-4.096-15.354-7.934-23.543-11.515C248.891,168.719,248.636,168.719,248.891,168.974z
			"/>
		<path fill="#333333" d="M255.8,178.442c0.256-0.257,0.256-0.257,0.256-0.512c-0.256,0-0.512-0.255-0.512-0.512
			c-2.559-3.071-5.374-5.885-8.444-8.699c-0.512,0-0.512,0-0.512,0c3.071,3.326,5.886,6.652,8.7,9.978
			C255.544,178.697,255.8,178.442,255.8,178.442z"/>
		<path fill="#333333" d="M253.497,186.119c0-0.257,0-0.512,0-0.512c-2.048-2.559-4.351-4.863-6.397-7.164
			c-0.512-0.257-0.512-0.257-0.512,0C248.636,181.513,250.939,184.072,253.497,186.119z"/>
		<path fill="#333333" d="M277.551,246.508c0.512,0,1.023,0,1.279,0.257c-6.653-0.257-13.562-0.257-20.471,0
			c0,0-0.256,0-0.512,0.255c10.748,1.534,22.007,2.304,33.266,1.792c0.256-0.257,0.512-0.512,0.512-1.025
			c2.559,0.257,4.862-0.255,6.91-0.767c0-0.255,0-0.512,0-0.512c0-0.255,0-0.512,0-0.512c0.255-0.51,0.511-0.767,0.767-1.279
			c0,0,0-0.255,0-0.51c0,0,0-0.257,0-0.512c-1.279,0-2.559-0.257-3.838-0.512c0.256,0,0.256-0.255,0.256-0.512
			c0,0,0-0.255-0.256-0.512c-1.279-0.767-2.815-1.279-4.606-1.279c-8.189-0.51-16.378-0.767-24.31-1.022
			c-0.768,0.255-1.536,0.512-2.304,0.767c-0.255,0.255-0.511,0.255-0.767,0.255c0,0.257,0,0.512-0.256,0.512
			c-0.511,0-1.279,0-1.79,0l0,0c-0.256,0.257-0.512,0.512-0.768,0.512c0,0.255,0,0.512-0.256,0.512c0,0.255,0,0.512,0,0.512
			c0.512,0.51,1.025,0.51,1.792,0.51c-0.256,0.257-0.256,0.512-0.512,0.77c0,0,0,0.255,0.256,0.255c0,0.255,0.256,0.512,0.256,0.767
			c1.792,0.257,3.582,0.512,5.63,0.512c0,0,0,0,0,0.255c1.023,0,2.047,0.257,2.814,0.257c0.512,0,0.768,0,1.279,0
			C273.713,246.253,275.504,246.508,277.551,246.508z"/>
		<path fill="#333333" d="M262.198,265.7c0,0,0,0.257,0,0.512l0,0c-1.023,0-2.047,0-3.071,0c0,0-0.255,0.255-0.511,0.255v0.257
			c0.511,0,1.023,0,1.536,0.255c-0.512,0-0.512,0.512-0.512,0.767c4.094,0.77,8.189,1.279,12.538,1.537
			c7.421,0.767,14.842,0.767,22.263,0.255c0-0.255,0-0.255,0.256-0.512c0,0,0.255-0.255,0.255-0.51c0.256,0,0.512-0.257,0.768-0.257
			s0.256,0,0.256,0c1.279-0.255,2.559-0.255,3.838-0.512h-0.256c-0.768-0.255-1.792-0.255-2.815-0.255c0,0,0-0.255,0.256-0.512
			c0,0,0-0.255-0.256-0.512c0,0,0-0.255-0.256-0.255c-0.511,0-1.023-0.255-1.279-0.512c2.303-0.255,4.607-0.255,6.91-0.512
			c0-0.255,0-0.255,0.256-0.51c0.255-0.257,0.511-0.77,0.767-1.025c0.256-0.255,0.256-0.512,0.256-0.512
			c-0.256-0.255-0.512-0.512-0.768-0.512c-0.255,0-0.767,0-1.023,0c-1.79,0-3.582,0-5.118-0.255c0,0,0-0.255-0.256-0.255
			c0-0.257-0.255-0.512-0.255-0.512c-4.863-1.279-9.981-2.047-15.099-2.047c-1.279-0.257-2.559,0-4.093,0.255
			c-2.304,0.512-4.607,0.767-6.91,1.025c0,0,0,0-0.256,0.255c-2.303-0.255-4.606-0.512-6.653-0.512l0,0
			c-2.047,0.257-3.838,0.257-5.885,0.257c-0.256,0.51-0.512,0.767-1.023,1.279c0,0,0,0.255-0.256,0.51
			c0.256,0,0.256,0.257,0.256,0.257c0.256,0.255,0.511,0.512,1.023,0.512c1.536,0.767,3.326,1.279,5.118,1.789
			c0.256,0,0.512,0,0.767,0C262.71,265.445,262.454,265.445,262.198,265.7z M263.477,263.653c-0.256,0-0.512,0-0.512-0.255
			c-0.511,0-1.023-0.257-1.534-0.257C262.454,262.886,263.221,262.886,263.477,263.653z"/>
		<path fill="#333333" d="M248.38,263.141c-0.256-0.255-0.512,0-0.768,0.512c-0.255,13.819-0.511,27.893-0.255,41.71
			c0,13.819,0,27.636,0,41.71c0.255,13.819,0.255,27.638,0,41.712c0,13.817,0.255,27.636,1.023,41.452c0-0.255,0-0.255,0-0.51
			c0.511-13.819,0.511-27.638,0.511-41.455c0.256-14.074,0.256-27.636,0.256-41.71c0-14.074,0-27.893,0.256-41.712
			C249.403,290.777,249.147,276.96,248.38,263.141z"/>
		<path fill="#333333" d="M253.754,407.72c0.255-4.093-0.768-7.932-3.071-11.258h-0.256c1.536,3.838,2.303,8.186,2.559,12.537
			c0.256,0,0.512-0.255,0.768-0.255c0-0.257,0-0.257,0-0.512C253.754,408.232,253.754,407.977,253.754,407.72z"/>
		<path fill="#333333" d="M249.147,400.555l-0.256,0.255c1.792,6.142,3.327,12.285,4.863,18.682c0.255-0.257,0.511-0.512,1.023-0.77
			c0-0.255,0-0.51-0.256-0.51C253.241,412.071,251.45,406.44,249.147,400.555z"/>
		<path fill="#333333" d="M305.443,416.676c-0.256,0-0.511,0-0.511,0.257c1.279,8.444,3.838,16.633,7.677,24.31
			c0.255-0.257,0.255-0.257,0.255-0.512c0.256-0.257,0.256-0.512,0.256-1.025c-0.256-0.255-0.256-0.512-0.256-0.512
			C309.281,432.03,306.722,424.61,305.443,416.676z"/>
		<path fill="#333333" d="M308.002,439.451h-0.256c1.279,1.022,2.815,1.792,4.607,1.534c-0.512-0.255-0.768-0.255-1.023-0.512
			C310.305,440.219,309.281,439.706,308.002,439.451z"/>
		<path fill="#333333" d="M328.217,168.206h-0.255c3.07,2.301,6.397,4.351,9.98,6.14c0.511,0,1.023,0,1.79,0h0.256
			c0,0,0-0.255-0.256-0.255C335.894,172.557,332.055,170.508,328.217,168.206z"/>
		<path fill="#333333" d="M327.706,170.765c0-0.257,0-0.512-0.256-0.767c-0.512-1.025-1.536-1.792-3.071-1.792
			c-0.511,0.255-0.511,0.255-0.511,0.255c1.279,1.025,2.047,2.047,2.815,3.326c1.279,0.512,2.559,1.279,3.582,2.304
			c0.511,0,1.023-0.255,1.536-0.255c0.255,0,0.511-0.257,0.511-0.512C331.032,172.3,329.496,171.278,327.706,170.765z"/>
		<path fill="#333333" d="M340.244,218.618c0.767,0.255,1.536,0.255,2.047,0.51c-2.559,0.257-5.373,0.512-7.932,0.77
			c0.255,0.51,0.767,0.767,1.023,0.767c0.767,0,1.536,0,2.303,0.255c0,0-0.256,0-0.512,0c0,0.257-0.255,0.257-0.255,0.512
			c0,0,0,0.255,0,0.512c0.767,0.255,1.534,0.512,2.303,0.767c-0.512,0-1.023,0-1.536-0.255c-1.279,0-2.559,0.51-3.326,1.279
			c2.047,0.51,4.093,0.767,6.397,1.279c-1.279,0-2.304,0.255-3.584,0.51c0,0-0.255,0-0.511,0.257
			c8.956,0.767,18.169,1.279,27.38,1.279c0.256,0,0.768,0,1.279,0.255c-4.349-0.255-8.7,0-13.049,0.257
			c-4.351-0.257-8.701-0.512-12.795-0.77c-1.025,1.025,0,1.792,2.814,2.049c4.351,0.51,8.445,1.022,12.54,1.022
			c5.629,0.257,11.259,0.257,17.144-0.255c0-0.257,0-0.257,0-0.257c0.256-0.255,0.512-0.255,0.768-0.255
			c-0.256-0.512-0.512-1.025-1.025-1.279c2.559,0,5.118-0.255,7.677-0.767c0,0,0-0.257,0-0.512c0,0-0.255-0.255-0.255-0.512
			c-1.536-0.255-2.815-0.255-4.351-0.512c-1.792-0.51-3.582-0.767-5.63-1.022c0.256-0.257,0.512-0.257,1.025-0.512
			c1.023,0,2.047-0.255,3.326-0.255c0-0.257,0-0.512,0-0.512c0-0.257,0.256-0.512,0.512-0.767c0,0,0.255,0,0.255-0.257
			c-0.511,0-1.023,0-1.534,0.257c0-0.257,0-0.257,0-0.257c-0.768,0-1.536,0-2.304,0c-0.255,0-0.255,0-0.255-0.255
			c0,0-0.256-0.257-0.512-0.512c2.303,0,4.351,0,6.397-0.255c0.256-0.257,0.256-0.77,0.512-1.025c0-0.255,0-0.255,0-0.512v-0.255
			c0.511,0,1.279,0,2.303,0c-0.256-0.257-0.256-0.257-0.256-0.257c0-0.255,0-0.51,0-0.51c0-0.257,0-0.257,0-0.512
			c-8.189-0.767-16.377-1.792-24.566-2.559c-2.815,0-5.374,0-8.188,0c0,0.255-0.256,0.255-0.512,0.255c0,0.257,0,0.257-0.256,0.512
			c0,0,0,0.255,0,0.512c1.792,0.255,3.582,0.512,5.374,0.767c-1.279,0-2.559,0-3.838,0c-1.792,0.255-3.838,0.512-6.141,0.767
			L340.244,218.618z M350.224,221.944c-3.838-0.257-7.677-0.512-11.515-1.025c5.886,0.257,11.515,0.512,17.145,0.767
			C354.062,221.686,352.016,221.944,350.224,221.944z"/>
		<path fill="#333333" d="M335.639,247.533c0,0-0.256,0-0.512,0.255c10.748,1.537,22.007,2.304,33.266,1.792
			c0.256-0.255,0.512-0.512,0.512-1.025c2.559,0.257,4.862-0.255,6.908-0.767c0-0.255,0-0.512,0-0.512c0-0.255,0-0.51,0-0.51
			c0.256-0.512,0.512-0.77,0.768-1.279c0,0,0-0.257,0-0.512c0,0,0-0.257,0-0.512c-1.279,0-2.559-0.255-3.838-0.512
			c0.255,0,0.255-0.255,0.255-0.512c0,0,0-0.255-0.255-0.51c-1.279-0.77-2.815-1.279-4.607-1.279
			c-8.188-0.512-16.377-0.77-24.31-1.025c-0.767,0.255-1.536,0.512-2.303,0.767c-0.256,0.257-0.512,0.257-0.767,0.257
			c0,0.255,0,0.51-0.256,0.51c-0.512,0-1.279,0-1.792,0l0,0c-0.256,0.257-0.511,0.512-0.767,0.512c0,0.257,0,0.512-0.256,0.512
			c0,0.255,0,0.512,0,0.512c0.512,0.512,1.023,0.512,1.792,0.512c-0.256,0.255-0.256,0.51-0.512,0.767c0,0,0,0.255,0.256,0.255
			c0,0.257,0.256,0.512,0.256,0.767c1.79,0.257,3.582,0.512,5.629,0.512c0,0,0,0,0,0.257c1.023,0,2.048,0.255,2.815,0.255
			c0.512,0,0.767,0,1.279,0c1.792,0,3.582,0.255,5.63,0.255c0.511,0,1.023,0,1.279,0.257
			C349.457,247.275,342.547,247.275,335.639,247.533z"/>
		<path fill="#333333" d="M322.332,258.023h-0.256c1.536,3.583,3.838,6.91,6.91,9.981c1.023,0.512,1.536,0.255,1.536-0.512
			c-0.256-0.255-0.512-0.255-0.768-0.512c0,0-0.256,0-0.511-0.255l-0.256-0.257C326.427,263.908,324.124,261.095,322.332,258.023z"
			/>
		<path fill="#333333" d="M323.099,267.747c-0.511,0-0.511,0-0.511,0.257c1.536,2.814,3.07,5.118,5.118,7.164
			c0.256,0,0.767,0,1.279,0c0,0,0,0-0.256-0.255C326.427,272.865,324.635,270.563,323.099,267.747z"/>
		<path fill="#333333" d="M323.099,274.914h-0.255c1.023,1.789,2.559,3.838,3.838,5.628c1.79,2.304,3.326,3.583,4.606,3.583
			c-0.256,0-0.256-0.255-0.256-0.255C328.473,280.799,325.658,277.727,323.099,274.914z"/>
		<path fill="#333333" d="M323.099,281.566c-0.511-0.255-0.511-0.255-0.511,0.255c2.815,4.096,5.885,8.189,9.467,12.285
			c0.256,0,0.512,0,1.025,0h0.255l0.256-0.512C329.753,289.755,326.427,285.659,323.099,281.566z"/>
		<path fill="#333333" d="M325.147,268.516c1.536,2.047,3.326,3.069,4.606,3.326c0-0.257,0-0.257-0.256-0.512
			c-2.814-2.304-5.373-4.863-7.164-8.189C322.332,264.678,323.355,266.212,325.147,268.516z"/>
		<path fill="#333333" d="M332.568,297.432c-0.256,0-0.256-0.257-0.512-0.257c-3.326-3.069-6.397-6.652-8.956-10.491
			c-0.511-0.255-0.511-0.255-0.511,0C325.147,291.802,328.473,295.385,332.568,297.432z"/>
		<path fill="#333333" d="M323.868,317.903c-0.512,0-0.512,0-0.512,0.512c1.023,3.069,2.815,5.373,5.63,7.164
			c0,0,0-0.257-0.256-0.257C326.938,323.021,325.147,320.717,323.868,317.903z"/>
		<path fill="#333333" d="M324.379,340.676h-0.255c2.047,3.329,4.349,5.888,7.164,8.446c0.256,0,0.256,0,0.512-0.257
			c0-0.255,0-0.255-0.256-0.512c0-0.255-0.256-0.51-0.512-0.51C328.729,345.539,326.427,343.235,324.379,340.676z"/>
		<path fill="#333333" d="M328.729,372.407c-0.256,0-0.512-0.255-0.512-0.255c-1.79-2.559-3.07-4.863-4.349-7.422l-0.512,0.255
			c1.023,3.071,2.815,5.888,4.862,8.446C328.473,372.92,328.473,372.662,328.729,372.407z"/>
		<path fill="#333333" d="M408.568,186.886c-0.256,0-0.512,0-0.512,0c0.512,0.767,1.023,1.279,1.536,1.792
			c-0.256,0.255-0.256,0.255,0,0.512c0,0,0.256,0,0.511,0c2.048,2.047,4.351,3.838,7.166,4.86v-0.255
			c-1.792-1.279-3.327-2.559-5.118-3.838c4.606,1.279,8.7,2.814,12.795,4.86c0.256,0,0.511,0,0.511-0.255
			c0,0-0.255-0.255-0.511-0.255c-4.607-2.816-9.469-4.608-14.586-5.888C409.847,187.911,409.335,187.398,408.568,186.886z"/>
		<path fill="#333333" d="M417.524,202.752l-0.256-0.257c-4.094-3.069-7.933-6.14-11.515-9.723h-0.256
			c0,1.025,0.512,2.047,1.279,3.071C410.358,199.168,413.941,201.472,417.524,202.752z"/>
		<path fill="#333333" d="M420.338,200.193c0-0.257,0-0.257,0-0.512c-4.862-3.326-9.723-6.652-14.585-9.723l-0.512-0.257
			C409.591,194.308,414.453,197.634,420.338,200.193z"/>
		<path fill="#333333" d="M428.783,269.284c0.256,0,0.256,0.255,0.256,0.255c7.421,6.655,15.353,12.54,23.541,18.17
			c0.512,0,0.512,0,1.023,0c0.256,0,0.256,0,0.512,0c0,0-0.256,0-0.256-0.257c-7.933-6.14-16.121-12.282-23.797-18.68
			c-0.256,0-0.256,0-0.512,0c0,0-0.256,0-0.511,0l0,0C429.039,269.026,429.039,269.026,428.783,269.284z"/>
		<path fill="#333333" d="M434.924,278.24h-0.512c8.445,7.164,17.401,14.074,26.869,20.471c0.256,0,0.512,0,0.768,0
			c-0.256-0.257-0.512-0.512-0.768-0.512C452.837,291.547,443.881,284.637,434.924,278.24z"/>
		<path fill="#333333" d="M467.934,310.226c0,0,0,0-0.256-0.257c-10.236-7.932-20.471-15.863-31.218-23.54
			c-1.023,0.51-0.512,1.534,1.279,2.814c4.606,2.814,8.956,6.142,12.795,9.981C455.652,304.341,461.537,308.18,467.934,310.226z"/>
	</g>
</g>
</svg>
