<?xml version="1.0" encoding="utf-8"?>
<!-- Generator: Adobe Illustrator 17.0.0, SVG Export Plug-In . SVG Version: 6.00 Build 0)  -->
<!DOCTYPE svg PUBLIC "-//W3C//DTD SVG 1.1//EN" "http://www.w3.org/Graphics/SVG/1.1/DTD/svg11.dtd">
<svg version="1.1" id="Layer_1" xmlns="http://www.w3.org/2000/svg" xmlns:xlink="http://www.w3.org/1999/xlink" x="0px" y="0px"
	 width="800px" height="600px" viewBox="0 0 800 600" enable-background="new 0 0 800 600" xml:space="preserve">
<g>
	<path fill="#120E0F" d="M594.754,117.405c-0.013-1.501-2.782-3.203-3.97-4.155c-2.077-1.666-4.154-3.331-6.232-4.996
		c-2.123-1.702-4.246-3.404-6.369-5.107c-0.533-1.452-3.376-3.571-4.315-2.97c-2.229-0.374-4.49-0.599-6.738-0.822
		c-18.521-1.84-37.264-1.752-55.843-1.138c-18.494,0.611-36.967,1.93-55.39,3.78c-5.427-4.305-11.634-6.759-18.585-7.627
		c-0.037-0.005-0.074-0.008-0.111-0.012c0.637-1.144,1.155-2.392,1.681-3.508c1.466-3.107,2.741-6.312,3.799-9.581
		c0.917-2.835,1.712-5.821,1.631-8.824c-0.067-2.466-2.084-4.418-4.181-5.422c-2.64-1.264-5.753-1.365-8.624-1.303
		c-3.561,0.078-7.118,0.591-10.611,1.259c-2.551,0.488-5.506,0.824-7.659,2.389c-1.862,1.354-3.056,3.521-4.051,5.54
		c-3.446,6.987-4.893,15.325-5.669,23.085c-2.143,0.556-4.279,1.145-6.408,1.751c-2.913,0.829-13.455,2.953-10.475,7.998
		c0.633,1.073,1.484,2.113,2.46,3.075c-33.391,5.391-66.586,12.473-99.039,22.022c-8.837,2.6-17.729,5.27-26.325,8.603
		c-0.224,0.087,2.808,4.581,4.295,4.005c14.207-5.508,29.076-9.57,43.785-13.455c27.274-7.205,54.937-12.812,82.784-17.289
		c0.157,0.075,0.314,0.15,0.469,0.219c0.104,0.046,0.055-0.079-0.069-0.282c12.285-1.97,24.605-3.723,36.943-5.293
		c9.274-1.18,18.57-2.253,27.88-3.197c0.164,0.075,0.256,0.084,0.214-0.022c24.431-2.474,48.969-4.037,73.514-4.127
		c13.338-0.049,26.825,0.175,40.096,1.758c0.002,0.094,0.004,0.187,0.006,0.281c0.004,0.216,0.005,0.265,0.005,0.273
		c0-0.008-0.001-0.027,0.003,0.194c0.005,0.288,0.008,0.576,0.012,0.865c0.009,0.718,0.016,1.436,0.021,2.153
		c0.013,1.73,0.013,3.461,0.005,5.191c-0.049,11.166-0.456,22.33-1.084,33.478c-2.089,37.108-6.522,74.294-13.754,110.756
		c-6.406,32.296-15.12,64.152-24.419,95.721c-2.921,9.916-5.897,19.821-9.06,29.663c-0.522,0.141-1.047,0.244-1.57,0.26
		c-4.043,0.125-8.093,0.099-12.138,0.044c-3.151-0.043-6.302-0.114-9.453-0.209c-0.412-0.228-0.864-0.364-1.348-0.344
		c-0.317,0.013-0.555,0.117-0.727,0.276c-9.391-0.315-18.778-0.845-28.153-1.535c-0.339-0.121-0.627-0.152-0.822-0.059
		c-2.297-0.171-4.594-0.355-6.889-0.544c-0.345-0.275-0.718-0.507-1.098-0.682c-0.79-0.364-2.157-0.469-2.519,0.377
		c-7.035-0.607-14.062-1.288-21.078-2.022c-0.639-0.067-1.278-0.139-1.917-0.207c-0.072-0.021-0.133-0.027-0.183-0.02
		c-18.172-1.932-36.316-4.247-54.408-6.93c-0.594-0.466-1.549-1.129-1.605-0.603c-0.012,0.119-0.025,0.238-0.038,0.356
		c-5.174-0.774-10.343-1.577-15.507-2.411c-1.264-1.094-2.864-1.772-2.993-0.781c-0.012,0.096-0.025,0.192-0.038,0.288
		c-11.247-1.841-22.471-3.817-33.664-5.933c-0.712-0.426-1.422-0.622-1.875-0.36c-4.617-0.879-9.228-1.778-13.834-2.703
		c-25.075-5.036-50.352-10.602-74.477-19.236c-4.318-1.545-8.615-3.206-12.755-5.188c1.133-4.087,2.266-8.174,3.4-12.261
		c17.339,4.675,34.944,8.474,52.517,12.133c42.923,8.936,86.241,16.07,129.796,21.101c33.15,3.83,66.45,6.591,99.789,8.087
		c4.543,0.204,9.09,0.399,13.636,0.503c0.067-0.021,0.135-0.042,0.202-0.063c7.954-24.398,14.6-49.301,20.484-74.268
		c9.969-42.305,16.137-85.329,19.772-128.623c1.389-16.551,2.589-33.201,2.758-49.818c0.013-1.347-2.912-3.716-4.141-3.862
		c-11.275-1.334-22.803-1.327-34.133-1.296c-33.746,0.094-67.483,3.015-100.933,7.317c-41.827,5.38-83.286,13.328-124.14,23.783
		c-11.263,2.882-22.483,5.948-33.619,9.289c-2.157,0.647-4.312,1.305-6.459,1.987c-0.84,0.267-1.1,1.667-1.429,2.407
		c-4.377,9.866-7.792,20.181-10.815,30.531c-5.894,20.179-9.986,40.916-12.507,61.78c-2.178,18.029-3.143,36.213-3.094,54.371
		c0.021,7.498,0.137,15.037,0.726,22.517c0.033,0.415,0.288,0.848,0.628,1.257c-0.832-0.204-1.664-0.407-2.495-0.613
		c-0.743-8.403-1.016-16.867-1.158-25.296c-0.324-19.359,0.491-38.818,3.253-57.995c2.721-18.892,7.089-37.68,12.565-55.959
		c3.046-10.166,6.506-20.251,10.743-29.989c0.694-1.595,1.396-3.194,2.188-4.743c0.744-1.455-2.667-4.175-3.575-2.398
		c-2.306,4.511-4.151,9.293-5.948,14.021c-5.118,13.46-9.156,27.329-12.547,41.317c-4.876,20.109-8.315,40.473-9.63,61.132
		c-1.04,16.343-1.027,32.77-0.166,49.121c0.174,3.297,0.369,6.598,0.669,9.887c-0.27-0.068-0.541-0.134-0.812-0.203
		c-1.956-0.494-3.912-0.99-5.859-1.518c-0.18-0.105-0.357-0.111-0.531-0.018c-1.302,4.694-2.603,9.388-3.905,14.083
		c-0.324,1.17,2.046,2.904,2.824,3.449c1.448,1.014,3.066,1.792,4.647,2.565c4.557,2.227,9.322,4.036,14.099,5.73
		c16.917,5.999,34.39,10.518,51.961,14.417c-8.501,16.263-15.701,33.3-22.823,50.179c-12.427,29.448-23.239,59.475-33.605,89.7
		c-1.35,3.936-2.692,7.875-4.024,11.816c-0.442,1.307-1.794,3.59-1.151,4.984c1.278,2.77,3.743,5.077,6.078,6.941
		c5.12,4.087,11.675,5.922,18.113,6.401c0.261,0.069,0.493,0.021,0.698-0.145c7.474-15.47,14.949-30.94,22.423-46.411
		c0.398-0.824,0.796-1.648,1.194-2.472c0.22,0.055,0.372,0.042,0.42-0.063c0.852-1.868,1.703-3.736,2.555-5.605
		c2.708,1.166,5.542,2.095,8.32,3.041c11.305,3.85,22.844,7.025,34.4,10.021c33.846,8.773,68.228,16.016,102.861,20.9
		c3.752,0.529,7.513,1.05,11.281,1.477c1.407,15.882,2.813,31.765,4.219,47.647c0.369,4.172,0.739,8.344,1.108,12.515
		c0.153,1.728-0.104,4.262,0.928,5.771c1.917,2.801,5.505,4.747,8.544,5.986c3.817,1.556,7.906,2.069,11.988,1.895
		c1.066,0.552,2.126,0.65,2.53-0.191c2.215-0.242,4.41-0.666,6.541-1.217c1.015-0.263,2.017-0.575,3.015-0.896
		c0.245-0.052,0.384-0.201,0.418-0.448c0.824-23.132,1.216-46.291,1.249-69.437c0.053-37.079-1.879-74.065-5.297-110.982
		c9.329,22.759,20.081,44.976,31.553,66.692c7.634,14.449,15.536,28.759,23.618,42.962c0.748,1.315,1.498,2.628,2.253,3.94
		c0.968,1.684,2.455,2.602,4.182,3.418c3.612,1.705,7.293,1.169,10.862-0.274c3.085-1.248,6.487-3.222,8.282-6.117
		c1.893-3.053,0.187-6.603-0.773-9.712c-1.953-6.317-4.044-12.591-6.235-18.829c-6.719-19.131-14.749-37.641-23.866-55.748
		c-6.694-13.294-13.702-26.541-21.506-39.237c3.518,0.11,7.036,0.194,10.555,0.24c3.937,0.052,7.879,0.072,11.815-0.052
		c0.462-0.014,0.931-0.094,1.401-0.209c0.246,0.014,0.457-0.038,0.616-0.17c1.034-0.315,2.061-0.755,3.02-1.049
		c5.09-1.56,10.18-3.12,15.269-4.681c0.451-0.138,1.161-0.161,1.332-0.636c0.255-0.706,0.505-1.414,0.753-2.122
		c1.192-3.399,2.339-6.814,3.463-10.236c4.428-13.476,8.464-27.082,12.213-40.762c11.705-42.711,20.394-86.201,24.801-130.286
		C593.269,170.329,594.986,143.796,594.754,117.405z M437.814,68.64c1.06,0.135,2.301,0.349,3.216,0.943
		c0.633,0.411,0.473,1.626,0.439,2.285c-0.226,4.435-2.012,8.902-3.665,12.968c-1.179,2.901-2.4,6.564-4.507,8.959
		c-0.059,0.067-0.096,0.143-0.118,0.224c-1.436-0.067-2.875-0.079-4.315-0.046c1.819-4.463,2.683-9.325,3.262-14.079
		c0.444-3.646,0.734-7.347,0.711-11.024c-0.001-0.137-0.039-0.281-0.102-0.427C434.433,68.38,436.133,68.426,437.814,68.64z
		 M407.67,91.372c1.046-5.48,2.381-11.285,5.261-16.125c1.063-1.786,2.508-3.589,4.538-4.279c3.163-1.077,6.669-1.57,9.966-2.031
		c0.832-0.116,1.67-0.219,2.511-0.302c-0.033,2.945-0.264,5.896-0.58,8.818c-0.605,5.597-1.633,11.614-4.237,16.701
		c-3.312,0.244-6.61,0.692-9.857,1.249c-2.882,0.495-5.739,1.109-8.579,1.793C406.967,95.247,407.302,93.303,407.67,91.372z
		 M395.178,109.851c-1.39,0.216-2.78,0.44-4.17,0.661c0.003-0.142,0.018-0.286,0.046-0.432c0.194-1.014,1.126-1.766,1.915-2.326
		c2.7-1.917,6.181-2.623,9.318-3.516c2.722-0.775,5.452-1.521,8.2-2.203c13.665-3.392,29.743-6.073,43.02,0.094
		c0.06,0.028,0.119,0.058,0.179,0.086C434.114,104.227,414.598,106.835,395.178,109.851z M241.773,296.576
		c0.121-21.04,1.657-42.1,4.838-62.902c2.97-19.42,7.342-38.681,13.368-57.387c2.57-7.977,5.38-15.97,8.954-23.563
		c0.37-0.786,1.439-0.816,2.23-1.062c3.173-0.988,6.359-1.934,9.55-2.864c12.937-3.773,25.972-7.211,39.06-10.419
		c42.093-10.318,84.806-17.915,127.859-22.876c31.071-3.58,62.399-5.867,93.693-5.547c7.596,0.077,15.282,0.177,22.877,0.843
		c-0.353,19.878-1.991,39.794-3.896,59.562c-2.121,21.997-4.885,43.957-8.481,65.762c-3.582,21.723-8.361,43.246-13.748,64.588
		c-3.945,15.629-8.251,31.171-12.904,46.604c-1.104,3.661-2.229,7.317-3.391,10.961c-0.11,0.345-0.221,0.69-0.332,1.035
		c-0.075,0.232-0.136,0.277-0.067,0.285c-0.352-0.008-0.704-0.018-1.056-0.028c-23.77-0.68-47.53-2.349-71.214-4.411
		c-44.761-3.898-89.277-9.945-133.482-17.981c-24.525-4.458-48.996-9.407-73.239-15.245
		C241.792,313.503,241.725,305.015,241.773,296.576z M439.962,467.699c0.192,5.676,0.399,11.352,0.629,17.027
		c0.01,0.253,0.021,0.505,0.031,0.757c-0.234-0.013-0.469-0.028-0.704-0.042c-2.297-0.14-4.593-0.305-6.888-0.48
		c-8.428-0.645-16.845-1.479-25.221-2.624c-9.225-1.262-18.386-3.048-27.534-4.773c-1.703-0.321-3.405-0.644-5.106-0.973
		c1.374-12.951,2.747-25.902,4.121-38.853c2.06-19.421,4.119-38.841,6.179-58.262c0.168-1.587,0.337-3.174,0.505-4.76
		c17.123,2.55,34.293,4.776,51.49,6.66C438.388,410.147,438.987,438.929,439.962,467.699z M349.872,467.278
		c-0.195,1.491-0.39,2.982-0.584,4.474c-11.591-2.714-23.131-5.668-34.631-8.741c-6.862-1.834-13.7-3.803-20.408-6.144
		c-0.517-0.18-1.031-0.369-1.545-0.556c0.971-2.13,1.942-4.261,2.914-6.391c0.128-0.279,0.083-0.614-0.076-0.973
		c11.336-25.776,21.711-51.96,33.181-77.681c0.867-1.943,1.737-3.885,2.614-5.824c10.347,1.971,20.72,3.825,31.114,5.559
		c-1.67,12.784-3.34,25.569-5.01,38.354C354.916,428.662,352.394,447.97,349.872,467.278z M237.857,516.727
		c-0.025-0.038-0.053-0.075-0.077-0.113v0C237.606,516.293,237.754,516.447,237.857,516.727z M238.294,517.357
		C238.566,517.692,238.414,517.509,238.294,517.357L238.294,517.357z M240.102,519.106c-0.035-0.026-0.333-0.268-0.427-0.34
		c-0.14-0.123-0.28-0.247-0.417-0.373c-0.095-0.087-0.186-0.18-0.278-0.27c-0.023-0.031-0.35-0.372-0.425-0.458
		c-0.104-0.118-0.203-0.241-0.303-0.362c-0.012-0.016-0.023-0.03-0.032-0.042c-0.07-0.094-0.132-0.194-0.197-0.29
		c0.149-0.446,0.299-0.892,0.449-1.339c3.359-9.982,6.783-19.943,10.256-29.886c11.068-31.687,23.032-62.964,36.671-93.645
		c4.851-10.912,9.747-21.888,15.374-32.431c0.062-0.115,0.095-0.241,0.107-0.372c3.931,0.843,7.864,1.662,11.795,2.462
		c-11.835,24.073-23.207,48.425-33.651,73.132c-11.391,26.949-21.799,54.328-32.072,81.719c-0.638,1.702-1.274,3.404-1.908,5.107
		c-0.702-0.257-1.397-0.544-2.082-0.863C241.821,520.325,240.947,519.742,240.102,519.106z M258.11,515.126
		c-1.364,2.823-2.728,5.646-4.092,8.469c-1.735-0.15-3.45-0.394-5.134-0.766c7.819-21.006,15.863-41.936,24.184-62.748
		c12.335-30.852,26.126-61.064,40.617-90.958c1.054-2.174,2.111-4.347,3.178-6.515c0.566,0.114,1.131,0.229,1.696,0.342
		c2.411,0.483,4.824,0.958,7.239,1.428c-12.033,26.754-22.808,54.037-34.622,80.885c-0.271-0.084-0.459-0.082-0.513,0.037
		c-4.413,9.68-8.826,19.361-13.239,29.042c-0.106,0.232-0.092,0.503,0.006,0.793C270.991,488.466,264.55,501.795,258.11,515.126z
		 M382.7,495.23c-19.967-3.948-39.837-8.467-59.534-13.6c-11.063-2.883-22.104-5.951-32.916-9.677
		c-1.34-0.462-2.693-0.922-4.035-1.411c1.719-3.772,3.439-7.545,5.159-11.317c1.436,0.588,2.899,1.116,4.359,1.633
		c6.791,2.401,13.734,4.377,20.689,6.243c12.09,3.245,24.233,6.325,36.425,9.168c0.357,0.083,0.824-0.113,0.877-0.514
		c1.831-14.019,3.663-28.038,5.494-42.057c2.522-19.308,5.045-38.616,7.567-57.924c0.173-1.323,0.346-2.647,0.519-3.971
		c4.583,0.747,9.169,1.475,13.759,2.176c-1.349,12.719-2.698,25.438-4.047,38.156c-2.06,19.421-4.119,38.841-6.179,58.262
		c-0.194,1.827-0.388,3.653-0.581,5.48c-0.074,0.694,1.49,1.954,1.907,2.342c0.646,0.602,1.556,1.553,2.469,1.739
		c21.921,4.458,43.944,8.072,66.263,9.58c0.234,5.049,0.468,10.099,0.701,15.148C421.836,502.765,402.151,499.076,382.7,495.23z
		 M455.973,577.114c-0.977-0.311-1.926-0.706-2.848-1.151c0.238,0.115-0.657-0.372-0.854-0.488c-0.074-0.043-0.145-0.09-0.218-0.136
		c-1.469-16.593-2.939-33.187-4.408-49.78c-0.509-5.749-1.018-11.497-1.527-17.245c-0.016-0.181-0.07-0.373-0.152-0.569
		c-0.277-5.985-0.554-11.97-0.831-17.955c0.076-0.023,0.104-0.092,0.076-0.213c-1.297-30.859-1.834-61.747-2.793-92.618
		c-0.156-5.034-0.315-10.069-0.482-15.103c0.856,0.091,1.713,0.186,2.57,0.276c5.463,0.569,10.934,1.104,16.409,1.596
		c2.905,27.297,4.729,54.756,5.808,82.176c1.394,35.419,0.921,70.944-0.57,106.354c-0.083,1.967-0.17,3.934-0.267,5.9
		C462.539,578.394,459.182,578.136,455.973,577.114z M477.226,471.58c0.95,31.51,0.395,63.083-0.499,94.588
		c-0.093,3.283-0.19,6.566-0.306,9.848c-1.602,0.505-3.25,0.956-4.924,1.317c1.203-24.978,1.58-50.026,1.418-75.025
		c-0.242-37.308-2.499-74.603-6.127-111.731c-0.208-2.132-0.422-4.263-0.65-6.393c1.684,0.142,3.369,0.282,5.054,0.415
		c0.028,0.075,0.058,0.149,0.086,0.224C474.364,413.631,476.353,442.63,477.226,471.58z M538.002,512.335
		c-15.624-27.11-30.67-54.677-43.853-83.059c-6.576-14.157-12.874-28.509-18.413-43.111c-0.043-0.41-0.087-0.819-0.131-1.229
		c3.081,0.227,6.164,0.437,9.248,0.629c3.174,5.586,6.183,11.271,9.189,16.947c8.588,16.226,16.894,32.606,24.919,49.117
		c9.665,19.887,19.045,39.921,28.161,60.066c-0.91,0.399-1.835,0.741-2.741,1.035C542.214,513.434,539.904,513.391,538.002,512.335z
		 M513.275,407.246c9.62,17.652,18.654,35.708,26.113,54.387c5.073,12.701,9.597,25.638,13.612,38.712
		c0.336,1.094,0.667,2.189,0.99,3.287c0.506,1.723-0.043,2.907-1.246,4.245c-0.635,0.706-1.365,1.332-2.154,1.891
		c-10.635-23.466-21.594-46.802-33.044-69.88c-9.019-18.177-18.142-36.409-28.18-54.057c3.999,0.223,8,0.411,12.002,0.562
		C505.552,393.213,509.449,400.224,513.275,407.246z M586.385,191.655c-4.328,44.401-13.074,88.187-24.834,131.197
		c-3.741,13.682-7.791,27.284-12.213,40.762c-1.123,3.422-2.272,6.836-3.463,10.235c-0.248,0.708-0.499,1.416-0.753,2.122
		c-0.074,0.205-0.186,0.283,0.102,0.195c-0.461,0.141-0.921,0.282-1.382,0.424c-3.998,1.225-7.995,2.451-11.992,3.676
		c5.161-16.364,9.942-32.858,14.528-49.389c4.588-16.539,8.907-33.158,12.761-49.885c4.22-18.314,7.593-36.77,10.351-55.359
		c4.819-32.478,7.928-65.275,8.752-98.107c0.187-7.46,0.322-14.952,0.082-22.417c4.015,3.219,8.03,6.438,12.044,9.657
		C590.562,140.402,588.87,166.163,586.385,191.655z"/>
	<path fill="#120E0F" d="M231.724,323.932c-0.844,2.388-1.688,4.777-2.532,7.165c-0.321,0.909,1.873,2.52,2.517,2.782
		c10.683,4.347,21.817,7.473,32.88,10.678c6.382,1.849,12.774,3.676,19.198,5.373c0.967,0.256,0.319-0.953,0.086-1.269
		c-0.569-0.774-1.456-1.644-2.414-1.898c-6.253-1.652-12.475-3.431-18.688-5.226c-9.932-2.869-19.94-5.657-29.606-9.354
		c0.659-1.864,1.317-3.728,1.976-5.591C235.497,325.583,232.094,322.885,231.724,323.932z"/>
	<path fill="#120E0F" d="M311.733,143.596c-7.669,2.059-15.338,4.118-23.007,6.177c-4.684,1.258-9.368,2.515-14.052,3.773
		c-1.125,0.302-2.25,0.604-3.374,0.906c-0.624,0.168-0.627,0.664-0.851,1.265c-2.947,7.898-5.893,15.797-8.84,23.696
		c-0.377,1.01,2.786,2.983,2.893,2.698c2.928-7.849,5.856-15.698,8.784-23.547c0.149-0.4,0.298-0.8,0.448-1.2
		c0.031-0.084-0.17-0.02,0.236-0.129c1.171-0.314,2.341-0.629,3.512-0.943c4.727-1.269,9.453-2.538,14.18-3.807
		c7.559-2.03,15.118-4.059,22.677-6.089C314.925,146.238,312.634,143.354,311.733,143.596z"/>
	<path fill="#120E0F" d="M294.013,325.245c-14.908-3.036-29.817-6.072-44.726-9.109c0-10.789,0-21.577,0-32.366
		c0-2.05-5.111-5.49-5.111-2.516c0,11.765,0,23.531,0,35.297c0,1.523,2.013,3.341,3.403,3.624
		c15.846,3.227,31.691,6.454,47.537,9.681c0.197,0.04,0.394,0.08,0.591,0.12c1.233,0.251,2.036-0.392,1.572-1.686
		C296.813,326.989,295.41,325.529,294.013,325.245z"/>
	<path fill="#120E0F" d="M487.77,354.025c10.578,0.309,21.156,0.618,31.734,0.926c0.399,0.012,0.758-0.137,0.873-0.551
		c3.522-12.636,7.045-25.271,10.568-37.907c0.47-1.686-3.632-4.79-4.151-2.929c-3.469,12.445-6.939,24.89-10.408,37.335
		c-10.34-0.302-20.68-0.604-31.02-0.905c-1.197-0.035-0.936,1.244-0.524,1.935C485.41,352.885,486.584,353.991,487.77,354.025z"/>
	<path fill="#120E0F" d="M525.919,115.744c10.539,0.392,21.078,0.784,31.617,1.176c-0.726,12.706-1.451,25.413-2.177,38.119
		c-0.065,1.138,3.276,3.242,3.31,2.65c0.778-13.627,1.557-27.255,2.335-40.882c0.059-1.042-2.132-2.848-3.093-2.884
		c-11.622-0.432-23.245-0.865-34.867-1.297c-0.711-0.026,0.538,1.499,0.617,1.584C524.185,114.779,525.074,115.712,525.919,115.744z
		"/>
</g>
</svg>
