<?xml version="1.0" encoding="utf-8"?>
<!-- Generator: Adobe Illustrator 17.0.0, SVG Export Plug-In . SVG Version: 6.00 Build 0)  -->
<!DOCTYPE svg PUBLIC "-//W3C//DTD SVG 1.1//EN" "http://www.w3.org/Graphics/SVG/1.1/DTD/svg11.dtd">
<svg version="1.1" id="Layer_1" xmlns="http://www.w3.org/2000/svg" xmlns:xlink="http://www.w3.org/1999/xlink" x="0px" y="0px"
	 width="800px" height="600px" viewBox="0 0 800 600" enable-background="new 0 0 800 600" xml:space="preserve">
<g>
	<path fill-rule="evenodd" clip-rule="evenodd" fill="#FCFCFC" d="M213.093,285.523c0.438,1.401,1.195,2.468,1.497,3.999
		c-2.547-0.282-3.736-1.923-5.488-2.994C209.215,284.978,211.586,285.678,213.093,285.523z"/>
	<path fill-rule="evenodd" clip-rule="evenodd" fill="#FCFCFC" d="M244.507,290.015c-1.062,2.097-4.604,1.707-6.982,2.495
		c-2.224-2.094-3.973-4.668-6.979-5.982C235.967,284.16,241.776,286.645,244.507,290.015z"/>
	<path fill-rule="evenodd" clip-rule="evenodd" fill="#FCFCFC" d="M477.372,285.523c0.477,2.184,2.101,3.227,2.992,4.99
		c-2.361-0.964-4.541-2.11-5.484-4.484C475.456,285.607,476.215,285.369,477.372,285.523z"/>
	<path fill-rule="evenodd" clip-rule="evenodd" fill="#FCFCFC" d="M494.826,285.523c-0.21,2.826,0.875,3.579,1.495,6.486
		c-3.37,0.306-7.786-3.771-8.477-5.979C489.332,285.025,492.548,285.745,494.826,285.523z"/>
	<path fill-rule="evenodd" clip-rule="evenodd" fill="#FCFCFC" d="M500.808,285.523c6.462-0.802,10.318,0.989,10.968,5.99
		C506.489,291.773,501.32,291.24,500.808,285.523z"/>
	<path fill-rule="evenodd" clip-rule="evenodd" fill="#FCFCFC" d="M669.348,285.523c0.611,0.222,1.025,0.645,0.996,1.501
		c-1.86,1.051-4.072,1.791-6.479,0.997C664.084,284.716,669.129,287.913,669.348,285.523z"/>
	<path fill-rule="evenodd" clip-rule="evenodd" fill="#FCFCFC" d="M202.124,286.528c0,1,0,1.994,0,2.994
		c-2.811-0.022-4.591-1.067-5.488-2.994C198.331,285.664,200.293,286.176,202.124,286.528z"/>
	<path fill-rule="evenodd" clip-rule="evenodd" fill="#FCFCFC" d="M423.021,286.528c1.316-0.799,4.789,0.507,7.479,0
		c0.216,3.27,4.642,2.338,5.484,4.985C431.068,291.779,423.342,293.567,423.021,286.528z"/>
	<path fill-rule="evenodd" clip-rule="evenodd" fill="#FCFCFC" d="M579.597,286.528c-0.03,3.514,3.914,3.064,4.482,5.982
		c-5.726,1.181-10.773-0.466-13.459-4.982C572.931,285.951,575.429,286.42,579.597,286.528z"/>
	<path fill-rule="evenodd" clip-rule="evenodd" fill="#FCFCFC" d="M293.372,291.015c-0.856,0.97-2.581,1.073-4.485,0.994
		c0.826-3.652-3.754-1.899-4.489-3.988C289.597,286.303,292.005,286.588,293.372,291.015z"/>
	<path fill-rule="evenodd" clip-rule="evenodd" fill="#FCFCFC" d="M356.204,287.528c-0.362,1.52,0.857,1.463,0.497,2.985
		c-4.002-0.228-6.116-0.103-7.977-2.985C350.917,286.076,353.354,287.211,356.204,287.528z"/>
	<path fill-rule="evenodd" clip-rule="evenodd" fill="#FCFCFC" d="M383.628,286.528c1.327,0,2.659,0,3.988,0
		c-0.454,2.449,2.088,1.899,1.997,3.985C386.805,289.999,384.492,288.991,383.628,286.528z"/>
	<path fill-rule="evenodd" clip-rule="evenodd" fill="#FCFCFC" d="M417.535,286.528c-0.229,2.555,2.226,2.427,1.997,4.985
		c-3.469,0.133-6.173-3.129-6.483-4.489C413.875,286.187,415.976,286.629,417.535,286.528z"/>
	<path fill-rule="evenodd" clip-rule="evenodd" fill="#FCFCFC" d="M439.477,286.528c1.162,0,2.325,0,3.489,0
		c1.252,1.073,1.309,3.335,2.99,3.985c-0.633,1.523-1.623,0.255-3.489,1C441.777,289.544,440.513,288.146,439.477,286.528z"/>
	<path fill-rule="evenodd" clip-rule="evenodd" fill="#FCFCFC" d="M450.446,287.024c4.199-1.536,10.045-0.406,10.471,3.49
		C456.852,293.114,452.414,289.62,450.446,287.024z"/>
	<path fill-rule="evenodd" clip-rule="evenodd" fill="#FCFCFC" d="M516.764,287.024c0.37-1.122,2.8-0.195,3.988-0.496
		c0.192,2.601,4.501,3.284,3.492,5.481C520.057,292.036,520,287.943,516.764,287.024z"/>
	<path fill-rule="evenodd" clip-rule="evenodd" fill="#FCFCFC" d="M536.71,287.024c1.198,1.46,1.112,4.199,2.991,4.985
		c-1.819,1.276-3.666,0.902-5.982,0.501c0.436-3.595-3.342-2.969-4.489-4.982C531.182,284.93,534.143,288.295,536.71,287.024z"/>
	<path fill-rule="evenodd" clip-rule="evenodd" fill="#FCFCFC" d="M556.158,286.528c2.434,0.054,5.256-0.266,6.982,0.496
		c-0.173,3.498,2.351,4.292,3.985,5.985c-0.368,1.124-2.796,0.195-3.985,0.499C562.276,289.72,557.832,289.508,556.158,286.528z"/>
	<path fill-rule="evenodd" clip-rule="evenodd" fill="#FCFCFC" d="M607.515,286.528c3.258,0.344,6.555,1.089,10.477,0
		c-0.268,2.089,0.866,2.783,0.994,4.487C614.548,296.322,609.873,291.056,607.515,286.528z"/>
	<path fill-rule="evenodd" clip-rule="evenodd" fill="#FCFCFC" d="M708.739,288.021c-6.783,16.635-5.932,36.02,3.49,48.371
		c-7.426,0.379-16.583-1.479-24.429,0.994c-16.811-11.379-12.487-35.719,0-48.864C695.161,287.704,703.628,286.303,708.739,288.021z
		"/>
	<path fill-rule="evenodd" clip-rule="evenodd" fill="#FCFCFC" d="M549.175,287.024c0.945,2.013,3.935,4.199,3.491,5.985
		c-4.214-0.106-6.113-2.53-7.48-5.481C546.794,287.631,547.299,286.645,549.175,287.024z"/>
	<path fill-rule="evenodd" clip-rule="evenodd" fill="#FCFCFC" d="M595.049,293.009c-2.175,0.631-2.216,0.149-3.987-0.499
		c0.94-3.27-1.817-2.834-1.992-4.982C592.137,286.404,593.699,290.779,595.049,293.009z"/>
	<path fill-rule="evenodd" clip-rule="evenodd" fill="#FCFCFC" d="M637.934,294.504c-1.991,0.276-1.501,0.276-3.492,0
		c0.325-3.644-3.422-3.229-4.483-5.483C632.842,283.992,636.207,292.139,637.934,294.504z"/>
	<path fill-rule="evenodd" clip-rule="evenodd" fill="#FCFCFC" d="M173.203,287.528c0.997,0,1.994,0,2.992,0
		c0.898,2.758,4.962,2.343,5.484,5.481c-1.548-0.653-1.424,0.135-3.492,0C177.527,290.175,173.821,290.394,173.203,287.528z"/>
	<path fill-rule="evenodd" clip-rule="evenodd" fill="#FCFCFC" d="M265.448,287.528c4.262,1.035,12.903-1.539,15.459,3.487
		c-4.668,0.219-7.583,0-12.963,0.499C267.394,289.893,265.554,289.579,265.448,287.528z"/>
	<path fill-rule="evenodd" clip-rule="evenodd" fill="#FCFCFC" d="M300.355,287.528c0.997,0,1.994,0,2.991,0
		c1.058,1.094,1.206,3.107,2.994,3.487c-0.374,1.124-2.797,0.195-3.991,0.499C302.444,289.422,299.9,289.972,300.355,287.528z"/>
	<path fill-rule="evenodd" clip-rule="evenodd" fill="#FCFCFC" d="M323.793,287.528c3.324,0.07,7.158-0.201,8.976,2.487
		C330.438,293.586,324.609,291.015,323.793,287.528z"/>
	<path fill-rule="evenodd" clip-rule="evenodd" fill="#FCFCFC" d="M651.398,287.528c5.898-0.428,9.381,1.951,13.461,4.481
		c-0.835,1.493-1.311,3.343-3.991,2.988c-0.479-2.504-1.254-4.72-4.481-4.484c-1.487,0.008-0.645,2.355-1.502,2.994
		C652.478,292.762,651.723,290.359,651.398,287.528z"/>
	<path fill-rule="evenodd" clip-rule="evenodd" fill="#FCFCFC" d="M641.423,288.021c1.822-0.157,3.247,0.079,4.487,0.501
		c0.032,1.634,1.422,1.907,1.005,3.988C644.575,291.521,642.772,289.999,641.423,288.021z"/>
	<path fill-rule="evenodd" clip-rule="evenodd" fill="#FCFCFC" d="M314.816,289.021c0.906-1.04,3.036,0.921,2.992,2.492
		c-0.666,0-1.332,0-1.995,0C314.951,291.21,315.852,289.148,314.816,289.021z"/>
	<path fill-rule="evenodd" clip-rule="evenodd" fill="#FCFCFC" d="M719.213,288.522c0.886,6.169-7.605,19.152,0,22.937
		c7.228,0.049,11.226-5.711,15.954,0.496c3.723-0.103,4.192-3.457,4.985-6.478c1.593-0.428,1.547,0.783,2.497,1
		c2.188-0.813,2.881-3.105,4.989-3.996c0.862,11.647,1.395,23.359,3.49,32.416c-8.572-0.103-16.195-0.542-25.436,1.994
		C714.016,325.853,706.88,305.496,719.213,288.522z"/>
	<path fill-rule="evenodd" clip-rule="evenodd" fill="#FCFCFC" d="M151.261,289.522c2.575,1.246,6.249,1.395,7.48,3.986
		C156.651,292.868,152.359,292.532,151.261,289.522z"/>
	<path fill-rule="evenodd" clip-rule="evenodd" fill="#FCFCFC" d="M126.33,290.513c2.705,0.791,5.137,1.842,7.48,2.994
		C130.822,294.984,128.117,291.895,126.33,290.513z"/>
	<path fill-rule="evenodd" clip-rule="evenodd" fill="#FCFCFC" d="M141.288,291.015c1.678-1.804,2.297,1.661,3.494,1.994
		c-0.484,1.013-1.917,1.078-3.494,0.997C140.748,292.727,142.804,291.627,141.288,291.015z"/>
	<path fill-rule="evenodd" clip-rule="evenodd" fill="#FCFCFC" d="M97.409,294.006c1.764,2.644-2.658,6.313-3.492,8.475
		c-0.029-3.121-1.752-4.562-3.489-5.982C91.709,294.618,95.378,295.133,97.409,294.006z"/>
	<path fill-rule="evenodd" clip-rule="evenodd" fill="#FCFCFC" d="M673.338,294.504c-3.64,12.468-10.295,35.112,4.986,42.882
		c-1.032,0.298-3.273-0.615-3.49,0.501C659.778,331.226,662.377,303.835,673.338,294.504z"/>
	<path fill-rule="evenodd" clip-rule="evenodd" fill="#FCFCFC" d="M658.878,302.48c-1.235,4.356-2.107,14.356-2.491,20.943
		c-185.225-3.034-363.065-0.455-554.493-5.979c-1.192-5.757-1.327-9.388,1-14.459C290.629,295.415,456.792,296.813,658.878,302.48z
		 M590.564,308.47c1.253-1.249-0.572-1.959-0.498-3.498c-5.741,0.55-9.938,11.468-3.491,13.964c2.263-1.097,6.23-4.66,7.979-0.501
		c1.162,0,2.326,0,3.487,0c1.05-1.273,1.793-2.858,2.497-4.487c7.323,6.315,20.28,4.579,30.915,4.487
		c0.335-2.49-0.463-3.853-0.5-5.974c-3.703-0.501-9.112-2.102-12.961-4.99c-1.408,0.249-2.12,1.205-3.495,1.49
		c-3.881-3.154-7.055-0.309-12.464-0.992c-0.562-1.268-1.225-2.433-1.995-3.495C595.697,302.272,594.559,307.547,590.564,308.47z"/>
	<path fill-rule="evenodd" clip-rule="evenodd" fill="#FCFCFC" d="M763.094,296c0.499,0,0.994,0,1.496,0
		c-1.75,6.399-3.622,12.674-5.486,18.946C757.171,308.831,761.401,301.659,763.094,296z"/>
	<path fill-rule="evenodd" clip-rule="evenodd" fill="#FCFCFC" d="M92.421,305.477c1.96,0.293,0.588-2.739,2.992-1.999
		c1.303,10.886-2.072,24.906,7.977,28.927c-15.548-4.384-31.248-10.767-45.874-14.46c1.417-2.284,0.628-4.335,0.5-7.48
		c3.912,0.572,4.909,4.064,8.974,4.481c3.125-4.156-3.236-6.92-4.985-9.469c2.891-2.322,6.632,2.498,6.982,5.982
		c0.875,0.45,2.487,0.176,2.991,1.002c3.675-2.596-0.55-7.789-1.996-9.981c0.454-1.038,1.473-1.517,2.992-1.49
		c1.605,5.034,5.318,7.971,8.477,11.471c2.255-0.079,2.005-2.655,1.994-4.99c1.406,0.417,1.374,2.278,2.994,2.492
		c0.401-0.268,0.81-0.523,1.495-0.499c3.17-4.72-2.429-7.827-3.992-10.973C88.33,297.338,88.816,304.203,92.421,305.477z"/>
	<path fill-rule="evenodd" clip-rule="evenodd" d="M600.037,304.474c0.771,1.062,1.433,2.227,1.995,3.495
		c5.409,0.683,8.583-2.162,12.464,0.992c1.375-0.285,2.087-1.241,3.495-1.49c3.848,2.888,9.258,4.489,12.961,4.99
		c0.037,2.121,0.834,3.484,0.5,5.974c-10.635,0.092-23.592,1.829-30.915-4.487c-0.703,1.628-1.447,3.213-2.497,4.487
		c-1.161,0-2.325,0-3.487,0c-1.749-4.159-5.715-0.596-7.979,0.501c-6.447-2.495-2.25-13.414,3.491-13.964
		c-0.073,1.539,1.751,2.249,0.498,3.498C594.559,307.547,595.697,302.272,600.037,304.474z"/>
	<path fill-rule="evenodd" clip-rule="evenodd" fill="#FCFCFC" d="M658.378,331.404c-0.175,3.332,2.801,3.517,2.49,6.976
		c-184.24-4.592-368.619-3.725-540.023-3.983c-2.07-3.083-5.517-4.79-7.481-7.979C285.219,327.644,479.708,327.113,658.378,331.404z
		"/>
	<path fill-rule="evenodd" clip-rule="evenodd" d="M762.097,346.368c-122.964,3.866-281.595-10.401-422.349-5.489
		c-74.056,2.585-160.796,7.098-224.387,3.988c-18.019-0.878-42.189-15.933-61.335-21.444c-14.635-4.21-32.258-1.152-39.89-11.964
		c81.393-34.557,201.107-36.526,298.684-31.913c152.047,7.19,300.913-3.964,448.281-1.493
		C793.161,283.456,780.417,336.024,762.097,346.368z M209.102,286.528c1.752,1.07,2.941,2.712,5.488,2.994
		c-0.302-1.531-1.059-2.598-1.497-3.999C211.586,285.678,209.215,284.978,209.102,286.528z M230.546,286.528
		c3.006,1.314,4.755,3.888,6.979,5.982c2.378-0.788,5.92-0.398,6.982-2.495C241.776,286.645,235.967,284.16,230.546,286.528z
		 M474.88,286.03c0.943,2.373,3.122,3.519,5.484,4.484c-0.891-1.764-2.516-2.807-2.992-4.99
		C476.215,285.369,475.456,285.607,474.88,286.03z M487.844,286.03c0.691,2.208,5.107,6.286,8.477,5.979
		c-0.62-2.907-1.705-3.66-1.495-6.486C492.548,285.745,489.332,285.025,487.844,286.03z M511.776,291.513
		c-0.65-5.001-4.507-6.792-10.968-5.99C501.32,291.24,506.489,291.773,511.776,291.513z M663.865,288.021
		c2.407,0.794,4.619,0.054,6.479-0.997c0.03-0.856-0.385-1.279-0.996-1.501C669.129,287.913,664.084,284.716,663.865,288.021z
		 M196.637,286.528c0.897,1.926,2.677,2.972,5.488,2.994c0-1,0-1.994,0-2.994C200.293,286.176,198.331,285.664,196.637,286.528z
		 M435.984,291.513c-0.841-2.647-5.268-1.715-5.484-4.985c-2.69,0.507-6.163-0.799-7.479,0
		C423.342,293.567,431.068,291.779,435.984,291.513z M570.62,287.528c2.686,4.516,7.734,6.164,13.459,4.982
		c-0.569-2.918-4.512-2.468-4.482-5.982C575.429,286.42,572.931,285.951,570.62,287.528z M284.398,288.021
		c0.735,2.089,5.316,0.336,4.489,3.988c1.905,0.079,3.629-0.024,4.485-0.994C292.005,286.588,289.597,286.303,284.398,288.021z
		 M348.724,287.528c1.861,2.882,3.976,2.758,7.977,2.985c0.36-1.523-0.859-1.466-0.497-2.985
		C353.354,287.211,350.917,286.076,348.724,287.528z M389.613,290.513c0.091-2.086-2.451-1.536-1.997-3.985
		c-1.329,0-2.661,0-3.988,0C384.492,288.991,386.805,289.999,389.613,290.513z M413.048,287.024c0.31,1.36,3.014,4.622,6.483,4.489
		c0.229-2.558-2.226-2.43-1.997-4.985C415.976,286.629,413.875,286.187,413.048,287.024z M442.467,291.513
		c1.867-0.745,2.857,0.523,3.489-1c-1.681-0.65-1.738-2.912-2.99-3.985c-1.165,0-2.327,0-3.489,0
		C440.513,288.146,441.777,289.544,442.467,291.513z M460.917,290.513c-0.427-3.896-6.272-5.026-10.471-3.49
		C452.414,289.62,456.852,293.114,460.917,290.513z M524.245,292.009c1.009-2.197-3.3-2.88-3.492-5.481
		c-1.188,0.301-3.618-0.626-3.988,0.496C520,287.943,520.057,292.036,524.245,292.009z M529.229,287.528
		c1.147,2.013,4.925,1.387,4.489,4.982c2.317,0.401,4.163,0.775,5.982-0.501c-1.879-0.786-1.794-3.525-2.991-4.985
		C534.143,288.295,531.182,284.93,529.229,287.528z M563.14,293.507c1.189-0.303,3.617,0.626,3.985-0.499
		c-1.634-1.693-4.159-2.487-3.985-5.985c-1.726-0.761-4.548-0.441-6.982-0.496C557.832,289.508,562.276,289.72,563.14,293.507z
		 M618.986,291.015c-0.129-1.704-1.263-2.398-0.994-4.487c-3.922,1.089-7.219,0.344-10.477,0
		C609.873,291.056,614.548,296.322,618.986,291.015z M687.8,288.522c-12.487,13.145-16.811,37.485,0,48.864
		c7.846-2.474,17.003-0.615,24.429-0.994c-9.421-12.352-10.272-31.736-3.49-48.371C703.628,286.303,695.161,287.704,687.8,288.522z
		 M545.186,287.528c1.367,2.95,3.266,5.375,7.48,5.481c0.444-1.786-2.545-3.972-3.491-5.985
		C547.299,286.645,546.794,287.631,545.186,287.528z M589.07,287.528c0.176,2.148,2.933,1.712,1.992,4.982
		c1.771,0.648,1.811,1.13,3.987,0.499C593.699,290.779,592.137,286.404,589.07,287.528z M629.96,289.021
		c1.061,2.254,4.808,1.839,4.483,5.483c1.991,0.276,1.501,0.276,3.492,0C636.207,292.139,632.842,283.992,629.96,289.021z
		 M178.187,293.009c2.069,0.135,1.944-0.653,3.492,0c-0.522-3.137-4.586-2.723-5.484-5.481c-0.998,0-1.995,0-2.992,0
		C173.821,290.394,177.527,290.175,178.187,293.009z M267.945,291.513c5.379-0.499,8.294-0.279,12.963-0.499
		c-2.556-5.026-11.198-2.452-15.459-3.487C265.554,289.579,267.394,289.893,267.945,291.513z M302.349,291.513
		c1.193-0.304,3.617,0.626,3.991-0.499c-1.788-0.379-1.936-2.392-2.994-3.487c-0.997,0-1.994,0-2.991,0
		C299.9,289.972,302.444,289.422,302.349,291.513z M332.769,290.015c-1.818-2.688-5.651-2.417-8.976-2.487
		C324.609,291.015,330.438,293.586,332.769,290.015z M654.885,293.507c0.858-0.639,0.015-2.986,1.502-2.994
		c3.227-0.236,4.002,1.981,4.481,4.484c2.68,0.355,3.156-1.496,3.991-2.988c-4.08-2.53-7.563-4.909-13.461-4.481
		C651.723,290.359,652.478,292.762,654.885,293.507z M646.914,292.51c0.417-2.081-0.973-2.355-1.005-3.988
		c-1.24-0.423-2.665-0.658-4.487-0.501C642.772,289.999,644.575,291.521,646.914,292.51z M315.813,291.513c0.664,0,1.329,0,1.995,0
		c0.043-1.571-2.086-3.533-2.992-2.492C315.852,289.148,314.951,291.21,315.813,291.513z M725.691,336.891
		c9.241-2.536,16.864-2.097,25.436-1.994c-2.094-9.057-2.628-20.769-3.49-32.416c-2.108,0.891-2.801,3.183-4.989,3.996
		c-0.95-0.217-0.904-1.428-2.497-1c-0.793,3.021-1.263,6.375-4.985,6.478c-4.728-6.207-8.725-0.447-15.954-0.496
		c-7.605-3.785,0.886-16.768,0-22.937C706.88,305.496,714.016,325.853,725.691,336.891z M158.741,293.507
		c-1.231-2.59-4.905-2.739-7.48-3.986C152.359,292.532,156.651,292.868,158.741,293.507z M133.811,293.507
		c-2.344-1.152-4.775-2.203-7.48-2.994C128.117,291.895,130.822,294.984,133.811,293.507z M141.288,294.006
		c1.577,0.081,3.01,0.016,3.494-0.997c-1.196-0.333-1.815-3.799-3.494-1.994C142.804,291.627,140.748,292.727,141.288,294.006z
		 M90.427,296.498c1.738,1.42,3.461,2.861,3.489,5.982c0.835-2.162,5.256-5.83,3.492-8.475
		C95.378,295.133,91.709,294.618,90.427,296.498z M674.834,337.888c0.217-1.116,2.457-0.203,3.49-0.501
		c-15.282-7.77-8.626-30.414-4.986-42.882C662.377,303.835,659.778,331.226,674.834,337.888z M102.894,302.984
		c-2.327,5.072-2.192,8.702-1,14.459c191.428,5.524,369.268,2.945,554.493,5.979c0.385-6.586,1.256-16.586,2.491-20.943
		C456.792,296.813,290.629,295.415,102.894,302.984z M759.103,314.946c1.864-6.272,3.736-12.547,5.486-18.946
		c-0.501,0-0.997,0-1.496,0C761.401,301.659,757.171,308.831,759.103,314.946z M83.944,298.492
		c1.563,3.145,7.162,6.253,3.992,10.973c-0.685-0.024-1.094,0.23-1.495,0.499c-1.62-0.214-1.588-2.075-2.994-2.492
		c0.011,2.335,0.261,4.912-1.994,4.99c-3.159-3.5-6.872-6.437-8.477-11.471c-1.52-0.027-2.538,0.452-2.992,1.49
		c1.445,2.192,5.671,7.385,1.996,9.981c-0.504-0.826-2.116-0.553-2.991-1.002c-0.349-3.484-4.091-8.304-6.982-5.982
		c1.749,2.549,8.11,5.313,4.985,9.469c-4.065-0.417-5.062-3.91-8.974-4.481c0.128,3.145,0.917,5.196-0.5,7.48
		c14.626,3.693,30.326,10.076,45.874,14.46c-10.05-4.021-6.674-18.041-7.977-28.927c-2.404-0.74-1.032,2.292-2.992,1.999
		C88.816,304.203,88.33,297.338,83.944,298.492z M113.364,326.419c1.964,3.189,5.412,4.896,7.481,7.979
		c171.404,0.257,355.783-0.609,540.023,3.983c0.312-3.46-2.664-3.644-2.49-6.976C479.708,327.113,285.219,327.644,113.364,326.419z"
		/>
</g>
</svg>
