<?xml version="1.0" encoding="utf-8"?>
<!-- Generator: Adobe Illustrator 17.0.0, SVG Export Plug-In . SVG Version: 6.00 Build 0)  -->
<!DOCTYPE svg PUBLIC "-//W3C//DTD SVG 1.1//EN" "http://www.w3.org/Graphics/SVG/1.1/DTD/svg11.dtd">
<svg version="1.1" id="Layer_1" xmlns="http://www.w3.org/2000/svg" xmlns:xlink="http://www.w3.org/1999/xlink" x="0px" y="0px"
	 width="800px" height="600px" viewBox="0 0 800 600" enable-background="new 0 0 800 600" xml:space="preserve">
<path fill="#231F20" d="M471.995,338.617c0-23.585,6.545-42.949,14.902-45.02v-0.075h0.323l1.15-0.119l1.157,0.119h50.951v90.32
	h-53.581v-0.181C478.54,381.569,471.995,362.206,471.995,338.617z"/>
<path fill="#FFFFFF" d="M545.818,383.841h-33.292c-7.176-6.758-12.311-24.305-12.311-44.914c0-21.128,5.403-39.054,12.886-45.406
	h31.158L545.818,383.841z"/>
<path fill="#231F20" d="M527.104,291.076v-0.04h19.107l-0.394,95.723h-17.083l-0.961,0.064c-10.42,0-18.871-21.443-18.871-47.895
	C508.903,313.034,517.015,291.962,527.104,291.076z"/>
<path fill="#231F20" d="M533.098,338.928c0,26.452,5.844,47.895,13.043,47.895c7.191,0,13.027-21.443,13.027-47.895
	c0-26.448-5.836-47.891-13.027-47.891C538.943,291.037,533.098,312.48,533.098,338.928z"/>
<path fill="#FFFFFF" d="M529.625,338.928c0,24.755,5.167,51.38,16.517,51.38c11.349,0,16.508-26.626,16.508-51.38
	c0-24.747-5.159-51.373-16.508-51.373C534.791,287.555,529.625,314.181,529.625,338.928z M546.142,294.522
	c2.772,0,9.538,15.567,9.538,44.406c0,28.846-6.766,44.409-9.538,44.409c-2.781,0-9.554-15.563-9.554-44.409
	C536.587,310.089,543.361,294.522,546.142,294.522z"/>
<path fill="#FFFFFF" d="M543.779,463.017c0,26.247-60.56,47.513-135.258,47.513s-135.234-21.266-135.234-47.513
	c0-26.239,60.537-47.517,135.234-47.517S543.779,436.777,543.779,463.017z"/>
<path fill="#231F20" d="M540.297,463.017c0,21.266-52.943,44.024-131.776,44.024c-78.801,0-131.769-22.758-131.769-44.024
	c0-21.257,52.968-44.035,131.769-44.035C487.353,418.982,540.297,441.759,540.297,463.017z M408.521,412.023
	c-77.793,0-138.715,22.4-138.715,50.994c0,28.598,60.922,50.995,138.715,50.995c77.801,0,138.739-22.396,138.739-50.995
	C547.259,434.422,486.322,412.023,408.521,412.023z"/>
<path fill="#231F20" d="M529.397,447.359c0,23.928-55.228,43.327-123.333,43.327c-68.137,0-123.357-19.399-123.357-43.327
	c0-23.939,55.219-43.338,123.357-43.338C474.168,404.021,529.397,423.42,529.397,447.359z"/>
<path fill="#FFFFFF" d="M509.548,436.687c0,20.777-46.784,37.616-104.501,37.616c-57.685,0-104.478-16.839-104.478-37.616
	c0-20.782,46.793-37.629,104.478-37.629C462.764,399.058,509.548,415.905,509.548,436.687z"/>
<path fill="#231F20" d="M492.67,435.888V250.581H315.96V435.88l-0.244,1.299c0,10.157,39.681,18.383,88.608,18.383
	c48.919,0,88.583-8.227,88.583-18.383L492.67,435.888z"/>
<path fill="#FFFFFF" d="M401.117,267.711c-34.576,0-65.364-6.435-85.157-16.438v32.261c19.793,10.007,50.573,16.43,85.157,16.43
	c38.586,0,72.422-8.002,91.553-20.037v-32.261C473.539,259.709,439.703,267.711,401.117,267.711z"/>
<path fill="#231F20" d="M401.117,264.226c-32.922,0-63.38-5.848-83.574-16.056l-5.056-2.563v5.667v32.261v2.139l1.914,0.961
	c21.124,10.684,52.746,16.808,86.716,16.808c38.019,0,72.918-7.684,93.396-20.565l1.623-1.024v-1.926v-32.261v-6.313l-5.325,3.355
	C471.404,256.929,437.875,264.226,401.117,264.226z M489.181,247.666v32.261l1.63-2.953c-19.406,12.22-52.936,19.502-89.694,19.502
	c-32.922,0-63.38-5.848-83.574-16.059l1.914,3.119v-32.261l-5.056,3.112c21.124,10.676,52.746,16.804,86.716,16.804
	c38.019,0,72.918-7.692,93.396-20.573L489.181,247.666z"/>
<path fill="#231F20" d="M509.288,202.769h-45.39c-17.706-5.009-39.373-7.964-62.781-7.964c-23.408,0-45.076,2.954-62.788,7.964
	h-44.327l-0.843,32.619c-0.095,0.72-0.158,1.461-0.158,2.194c0,23.632,48.407,42.787,108.117,42.787s108.1-19.155,108.1-42.787
	l-0.015-0.382h0.086V202.769z"/>
<path fill="#FFFFFF" d="M508.989,204.147c0,23.621-48.241,42.779-107.762,42.779c-59.529,0-107.801-19.159-107.801-42.779
	c0-23.621,48.273-42.779,107.801-42.779C460.748,161.367,508.989,180.526,508.989,204.147z"/>
<path fill="#231F20" d="M507.257,204.147c0,22.636-47.556,41.038-106.029,41.038c-58.481,0-106.061-18.402-106.061-41.038
	c0-22.629,47.58-41.035,106.061-41.035C459.7,163.112,507.257,181.518,507.257,204.147z M401.227,159.634
	c-61.411,0-109.55,19.552-109.55,44.513c0,24.963,48.139,44.524,109.55,44.524c61.41,0,109.51-19.561,109.51-44.524
	C510.738,179.187,462.638,159.634,401.227,159.634z"/>
<path fill="#231F20" d="M501.57,198.613c0,16.772-43.886,30.386-98.019,30.386c-54.118,0-98.004-13.614-98.004-30.386
	c0-16.792,43.886-30.386,98.004-30.386C457.684,168.227,501.57,181.822,501.57,198.613z"/>
<path fill="#231F20" d="M497.144,189.347c-2.812-49.01-43.39-87.918-93.136-87.918c-49.707,0-90.284,38.908-93.081,87.93
	c-0.449,1.004-0.701,2.024-0.701,3.063c0,14.241,42.004,25.783,93.781,25.783c51.817,0,93.806-11.542,93.806-25.783
	C497.813,191.376,497.561,190.351,497.144,189.347z"/>
<path fill="#FFFFFF" d="M385.199,114.346c0,0-57.512,21.403-49.707,95.841l7.277,2.052
	C342.77,212.24,326.773,156.779,385.199,114.346z"/>
<path fill="#FFFFFF" d="M421.138,114.346c0,0,57.512,21.403,49.683,95.841l-7.222,2.052
	C463.599,212.24,479.588,156.779,421.138,114.346z"/>
<path fill="#FFFFFF" d="M431.236,110.495c0,5.793-11.413,10.48-25.495,10.48c-14.067,0-25.496-4.687-25.496-10.48
	c0-5.796,11.428-10.49,25.496-10.49C419.823,100.004,431.236,104.698,431.236,110.495z"/>
<path fill="#FFFFFF" d="M428.644,93.372h-44.666v14.886c0,5.072,9.987,9.184,22.337,9.184c12.311,0,22.329-4.112,22.329-9.184
	V93.372z"/>
<path fill="#231F20" d="M428.644,91.636h-44.666h-1.749v1.736v14.886c0,6.234,10.341,10.932,24.085,10.932
	c13.712,0,24.062-4.699,24.062-10.932V93.372v-1.736H428.644z M426.896,108.258c0,3.509-8.814,7.439-20.581,7.439
	c-11.806,0-20.612-3.93-20.612-7.439V93.372l-1.725,1.744h44.666l-1.749-1.744V108.258z"/>
<path fill="#231F20" d="M430.945,93.454c0,5.065-11.051,9.156-24.684,9.156c-13.61,0-24.66-4.091-24.66-9.156
	c0-5.06,11.05-9.156,24.66-9.156C419.894,84.299,430.945,88.394,430.945,93.454z"/>
<path fill="#FFFFFF" d="M473.31,374.918c0,35.494-28.772,64.277-64.293,64.277c-35.482,0-64.262-28.783-64.262-64.277
	c0-35.506,28.78-64.274,64.262-64.274C444.538,310.644,473.31,339.412,473.31,374.918z"/>
<path fill="#231F20" d="M469.332,374.918c0,32.477-26.322,58.816-58.811,58.816c-32.481,0-58.827-26.339-58.827-58.816
	c0-32.486,26.346-58.824,58.827-58.824C443.01,316.094,469.332,342.432,469.332,374.918z"/>
<path fill="#FFFFFF" d="M451.454,375.41c0,22.069-17.879,39.956-39.956,39.956c-22.053,0-39.94-17.887-39.94-39.956
	c0-22.065,17.886-39.952,39.94-39.952C433.575,335.458,451.454,353.345,451.454,375.41z"/>
<path fill="#231F20" d="M385.562,385.736c0-18.856,15.28-34.151,34.151-34.151c8.506,0,16.296,3.131,22.274,8.286
	c-5.513-11.428-17.226-19.305-30.757-19.305c-18.871,0-34.159,15.288-34.159,34.131c0,10.342,4.6,19.612,11.877,25.87
	C386.758,396.085,385.562,391.048,385.562,385.736z"/>
<path fill="#231F20" d="M340.785,351.273c0-23.585-6.892-45.032-15.256-45.032l-53.242-0.063v90.328l53.605-0.197
	C336.005,396.309,340.785,374.874,340.785,351.273z"/>
<path fill="#FFFFFF" d="M344.259,351.273c0-23.845-6.994-48.509-18.73-48.509l-53.227-0.071l-3.497-0.004v3.489v90.328v3.497
	l3.497-0.007l53.605-0.201C342.943,399.795,344.259,362.662,344.259,351.273z M325.884,392.832l-53.597,0.185l3.489,3.489v-90.328
	l-3.489,3.486l53.242,0.067c4.057,0,11.767,16.173,11.767,41.542C337.296,377.28,331.5,392.832,325.884,392.832z"/>
<path fill="#FFFFFF" d="M266.939,396.506h33.316c7.168-6.769,12.279-24.317,12.279-44.922c0-21.136-5.395-39.054-12.854-45.406
	h-31.158L266.939,396.506z"/>
<path fill="#FFFFFF" d="M285.66,303.737v-0.052h-25.795l0.669,95.736h23.503l0.961,0.059c10.413,0,18.856-21.443,18.856-47.895
	C303.854,325.688,295.757,304.611,285.66,303.737z"/>
<path fill="#231F20" d="M287.393,303.685v-1.74h-1.732h-25.795h-1.756l0.032,1.761l0.645,95.731l0.008,1.721h1.74h23.503
	l-0.252-0.019l1.212,0.086c11.547,0,20.604-21.797,20.604-49.64c0-27.287-8.506-48.604-19.793-49.588L287.393,303.685z
	 M302.105,351.585c0,27.61-8.844,46.159-17.107,46.159l-0.716-0.04l-0.126-0.027h-0.119h-23.503l1.733,1.728l-0.654-95.727
	l-1.749,1.756h25.795l-1.733-1.749v1.607l1.583,0.181C293.536,306.178,302.105,324.869,302.105,351.585z"/>
<path fill="#231F20" d="M279.643,351.585c0,27.894-8.427,50.506-18.848,50.506c-10.405,0-18.864-22.612-18.864-50.506
	c0-27.889,8.459-50.514,18.864-50.514C271.215,301.071,279.643,323.695,279.643,351.585z"/>
<path fill="#FFFFFF" d="M406.237,120.45c0,0,21.171,47.324,0.582,98.125h-5.796C401.023,218.576,376.638,177.923,406.237,120.45z"/>
</svg>
