<?xml version="1.0" encoding="utf-8"?>
<!-- Generator: Adobe Illustrator 17.0.0, SVG Export Plug-In . SVG Version: 6.00 Build 0)  -->
<!DOCTYPE svg PUBLIC "-//W3C//DTD SVG 1.1//EN" "http://www.w3.org/Graphics/SVG/1.1/DTD/svg11.dtd">
<svg version="1.1" id="Layer_1" xmlns="http://www.w3.org/2000/svg" xmlns:xlink="http://www.w3.org/1999/xlink" x="0px" y="0px"
	 width="800px" height="600px" viewBox="0 0 800 600" enable-background="new 0 0 800 600" xml:space="preserve">
<path fill="#231F20" d="M237.197,121.86c28.975-23.349,44.144-84.854,82.069-58.771c18.658,12.832,33.138,31.869,47.946,48.701
	c17.709,20.079,35.972,39.56,55.996,57.348c36.04,32.002,76.395,58.644,113.104,89.861c38.764,32.999,77.617,65.615,116.92,97.975
	c32.62,26.837,73.35,61.856,61.573,108.591c-11.176,44.287-58.126,80.375-102.133,87.496
	c-52.309,8.463-93.995-28.042-128.738-62.764c-43.782-43.758-86.035-87.902-134.419-126.752
	c-73.138-58.726-196.729-128.867-154.769-238.752C198.536,114.862,237.197,121.86,237.197,121.86z"/>
<path fill="#FFFFFF" d="M372.203,123.846c-2.683-2.949-5.353-5.919-8.002-8.895c-14.869-16.781-29.438-35.73-48.008-48.639
	c-29.076-20.256-50.882,5.977-68.414,26.035c-7.728,8.831-15.012,15.658-26.557,18.679c-11.333,2.966-22.878,7.882-28.428,18.685
	c-5.209,10.145-5.312,22.779-5.147,34.101c0.307,21.168,5.12,40.908,15.723,59.72c6.021,10.684,13.402,20.925,21.307,30.322
	C280.638,174.776,365.567,127.461,372.203,123.846z"/>
<path fill="#231F20" d="M374.415,121.835l-7.967-8.882l-8.513-9.787c-12.152-14.08-24.701-28.656-40.027-39.327
	c-30.606-21.3-54.05,5.533-71.158,25.124l-1.243,1.42c-8.035,9.193-14.719,15.044-25.048,17.73
	c-9.886,2.594-23.785,7.503-30.326,20.229c-5.393,10.472-5.666,22.779-5.475,35.515c0.341,22.498,5.598,42.502,16.099,61.15
	c5.741,10.179,13.019,20.536,21.621,30.78l2.506,2.973l2.239-3.178c56.064-79.208,142.843-127.1,146.516-129.087l3.319-1.833
	L374.415,121.835z M226.977,251.925c-8.377-9.961-15.436-20.01-21-29.861c-9.995-17.758-15.026-36.829-15.333-58.297
	c-0.178-11.94,0.068-23.434,4.82-32.688c5.448-10.582,17.737-14.856,26.524-17.149c13.039-3.414,20.986-11.545,28.038-19.594
	l1.229-1.423c17.368-19.867,37.023-42.389,63.232-24.147c14.685,10.224,27.015,24.502,38.907,38.324l8.568,9.838l8.015,8.933
	l0.778-4.639c-9.325,5.09-92.636,51.924-148.53,130.909L226.977,251.925z"/>
<path fill="#231F20" d="M291.93,87.154c0,0,38.573,12.275,62.1,61.239c23.533,48.957,137.21,129.222,137.21,129.222
	s110.756,57.334,178.296,160.232l-6.65,6.431c0,0-57.907-91.066-176.93-157.866C366.932,219.606,346.95,153.418,346.95,153.418
	s-15.757-38.084-59.819-58.866L291.93,87.154z"/>
<polygon fill="#231F20" points="287.909,96.6 280.754,92.824 286.305,82.307 293.452,86.099 "/>
<polygon fill="#FFFFFF" points="292.906,96.439 290.571,95.217 293.487,89.649 295.829,90.889 "/>
<polygon fill="#FFFFFF" points="293.193,96.576 290.865,95.343 293.787,89.806 296.122,91.035 "/>
<polygon fill="#FFFFFF" points="294.06,96.988 291.739,95.76 294.667,90.227 297.009,91.462 "/>
<rect x="294.438" y="91.188" transform="matrix(0.8828 0.4697 -0.4697 0.8828 78.9561 -127.8658)" fill="#FFFFFF" width="2.645" height="6.261"/>
<polygon fill="#FFFFFF" points="297.303,98.719 294.975,97.47 297.952,91.95 300.273,93.203 "/>
<polygon fill="#FFFFFF" points="299.597,100.044 297.283,98.777 300.252,93.275 302.573,94.527 "/>
<polygon fill="#FFFFFF" points="302.266,101.665 299.945,100.405 302.949,94.906 305.25,96.152 "/>
<polygon fill="#FFFFFF" points="305.263,103.611 302.956,102.351 305.953,96.855 308.267,98.121 "/>
<polygon fill="#FFFFFF" points="308.567,105.891 306.253,104.621 309.264,99.125 311.571,100.398 "/>
<polygon fill="#FFFFFF" points="312.097,108.486 309.776,107.215 312.807,101.747 315.108,103.017 "/>
<polygon fill="#FFFFFF" points="315.825,111.434 313.504,110.154 316.542,104.693 318.843,105.973 "/>
<polygon fill="#FFFFFF" points="319.682,114.732 317.368,113.452 320.44,107.994 322.727,109.28 "/>
<polygon fill="#FFFFFF" points="323.649,118.388 321.354,117.094 324.413,111.653 326.707,112.94 "/>
<polygon fill="#FFFFFF" points="327.656,122.406 325.376,121.112 328.441,115.681 330.735,116.961 "/>
<polygon fill="#FFFFFF" points="331.677,126.788 329.411,125.492 332.483,120.057 334.763,121.354 "/>
<polygon fill="#FFFFFF" points="334.749,130.953 332.469,129.649 335.562,124.232 337.849,125.532 "/>
<polygon fill="#FFFFFF" points="336.982,134.653 334.709,133.339 337.815,127.925 340.095,129.239 "/>
<rect x="338.353" y="131.859" transform="matrix(0.8663 0.4995 -0.4995 0.8663 112.8238 -151.6167)" fill="#FFFFFF" width="2.624" height="6.223"/>
<polygon fill="#FFFFFF" points="341.522,141.982 339.248,140.661 342.382,135.264 344.649,136.592 "/>
<polygon fill="#FFFFFF" points="343.802,145.625 341.542,144.3 344.676,138.91 346.956,140.235 "/>
<polygon fill="#FFFFFF" points="346.109,149.222 343.83,147.908 346.997,142.515 349.25,143.856 "/>
<polygon fill="#FFFFFF" points="348.41,152.796 346.144,151.461 349.318,146.089 351.571,147.431 "/>
<polygon fill="#FFFFFF" points="350.725,156.329 348.472,155.002 351.64,149.635 353.906,150.967 "/>
<polygon fill="#FFFFFF" points="353.039,159.835 350.793,158.49 353.968,153.141 356.227,154.486 "/>
<polygon fill="#FFFFFF" points="355.353,163.296 353.094,161.935 356.296,156.592 358.548,157.948 "/>
<polygon fill="#FFFFFF" points="357.654,166.693 355.415,165.341 358.624,160.006 360.87,161.364 "/>
<polygon fill="#FFFFFF" points="359.955,170.038 357.723,168.683 360.938,163.368 363.184,164.727 "/>
<polygon fill="#FFFFFF" points="362.263,173.339 360.023,171.984 363.26,166.656 365.499,168.024 "/>
<polygon fill="#FFFFFF" points="364.549,176.575 362.304,175.213 365.553,169.908 367.799,171.264 "/>
<polygon fill="#FFFFFF" points="366.816,179.76 364.577,178.377 367.834,173.087 370.066,174.455 "/>
<polygon fill="#FFFFFF" points="369.069,182.87 366.844,181.487 370.12,176.193 372.339,177.572 "/>
<polygon fill="#FFFFFF" points="371.302,185.887 369.076,184.512 372.367,179.22 374.578,180.614 "/>
<polygon fill="#FFFFFF" points="373.507,188.85 371.295,187.458 374.578,182.184 376.797,183.576 "/>
<polygon fill="#FFFFFF" points="375.691,191.735 373.479,190.345 376.777,185.075 379.002,186.464 "/>
<polygon fill="#FFFFFF" points="377.849,194.527 375.644,193.131 378.948,187.874 381.174,189.266 "/>
<polygon fill="#FFFFFF" points="379.979,197.234 377.76,195.824 381.098,190.581 383.304,191.984 "/>
<polygon fill="#FFFFFF" points="382.068,199.841 379.856,198.442 383.194,193.209 385.406,194.605 "/>
<polygon fill="#FFFFFF" points="384.122,202.361 381.924,200.961 385.263,195.722 387.461,197.142 "/>
<polygon fill="#FFFFFF" points="386.123,204.791 383.932,203.371 387.304,198.145 389.496,199.569 "/>
<rect x="387.392" y="200.679" transform="matrix(0.8399 0.5428 -0.5428 0.8399 172.8482 -178.344)" fill="#FFFFFF" width="2.609" height="6.215"/>
<polygon fill="#FFFFFF" points="390.035,209.311 387.844,207.887 391.229,202.678 393.408,204.109 "/>
<polygon fill="#FFFFFF" points="391.905,211.407 389.721,209.98 393.127,204.785 395.319,206.208 "/>
<polygon fill="#FFFFFF" points="393.735,213.4 391.544,211.963 394.957,206.772 397.142,208.205 "/>
<polygon fill="#FFFFFF" points="395.511,215.257 393.332,213.817 396.746,208.638 398.931,210.075 "/>
<polygon fill="#FFFFFF" points="397.217,216.985 395.053,215.551 398.494,210.369 400.658,211.827 "/>
<polygon fill="#FFFFFF" points="398.883,218.602 396.712,217.152 400.153,211.987 402.33,213.448 "/>
<polygon fill="#FFFFFF" points="400.542,220.149 398.371,218.691 401.819,213.551 404.003,214.994 "/>
<polygon fill="#FFFFFF" points="402.283,221.719 400.112,220.258 403.587,215.131 405.751,216.575 "/>
<polygon fill="#FFFFFF" points="404.105,223.323 401.942,221.859 405.43,216.718 407.573,218.19 "/>
<polygon fill="#FFFFFF" points="405.997,224.942 403.853,223.484 407.335,218.357 409.499,219.821 "/>
<polygon fill="#FFFFFF" points="407.983,226.597 405.826,225.126 409.321,220.016 411.472,221.483 "/>
<polygon fill="#FFFFFF" points="410.025,228.273 407.888,226.791 411.397,221.688 413.541,223.17 "/>
<polygon fill="#FFFFFF" points="412.155,229.98 409.997,228.492 413.534,223.395 415.684,224.877 "/>
<polygon fill="#FFFFFF" points="414.332,231.71 412.196,230.202 415.732,225.123 417.869,226.614 "/>
<polygon fill="#FFFFFF" points="416.599,233.452 414.462,231.963 418.005,226.877 420.135,228.369 "/>
<polygon fill="#FFFFFF" points="418.927,235.213 416.783,233.721 420.333,228.662 422.477,230.164 "/>
<rect x="420.717" y="230.647" transform="matrix(0.8173 0.5762 -0.5762 0.8173 211.7759 -200.4636)" fill="#FFFFFF" width="2.606" height="6.186"/>
<polygon fill="#FFFFFF" points="423.747,238.838 421.624,237.326 425.208,232.284 427.338,233.789 "/>
<polygon fill="#FFFFFF" points="426.253,240.681 424.129,239.176 427.734,234.127 429.857,235.633 "/>
<polygon fill="#FFFFFF" points="428.834,242.548 426.703,241.023 430.308,235.998 432.424,237.517 "/>
<polygon fill="#FFFFFF" points="431.434,244.43 429.331,242.91 432.943,237.882 435.053,239.404 "/>
<polygon fill="#FFFFFF" points="434.124,246.334 432.014,244.812 435.64,239.79 437.743,241.337 "/>
<polygon fill="#FFFFFF" points="436.835,248.27 434.739,246.734 438.378,241.726 440.487,243.262 "/>
<polygon fill="#FFFFFF" points="439.613,250.212 437.524,248.676 441.163,243.678 443.293,245.218 "/>
<polygon fill="#FFFFFF" points="442.446,252.182 440.357,250.635 444.01,245.638 446.112,247.191 "/>
<polygon fill="#FFFFFF" points="445.314,254.162 443.224,252.615 446.891,247.638 448.987,249.191 "/>
<polygon fill="#FFFFFF" points="448.229,256.172 446.154,254.619 449.827,249.649 451.915,251.202 "/>
<polygon fill="#FFFFFF" points="451.199,258.193 449.103,256.64 452.796,251.683 454.885,253.226 "/>
<polygon fill="#FFFFFF" points="454.176,260.237 452.1,258.674 455.807,253.721 457.903,255.284 "/>
<polygon fill="#FFFFFF" points="457.22,262.299 455.145,260.732 458.866,255.786 460.941,257.353 "/>
<polygon fill="#FFFFFF" points="460.293,264.375 458.21,262.811 461.945,257.875 464.02,259.445 "/>
<polygon fill="#FFFFFF" points="463.399,266.484 461.323,264.907 465.065,259.975 467.147,261.541 "/>
<polygon fill="#FFFFFF" points="466.532,268.59 464.47,267.007 468.225,262.084 470.294,263.675 "/>
<polygon fill="#FFFFFF" points="469.707,270.72 467.645,269.147 471.4,264.221 473.482,265.815 "/>
<polygon fill="#FFFFFF" points="472.909,272.871 470.84,271.27 474.623,266.371 476.684,267.962 "/>
<polygon fill="#FFFFFF" points="476.124,275.025 474.076,273.427 477.865,268.536 479.92,270.133 "/>
<polygon fill="#FFFFFF" points="479.374,277.203 477.326,275.608 481.121,270.717 483.19,272.318 "/>
<polygon fill="#FFFFFF" points="482.651,279.401 480.603,277.787 484.412,272.908 486.453,274.52 "/>
<polygon fill="#FFFFFF" points="485.949,281.6 483.9,279.999 487.724,275.12 489.771,276.728 "/>
<rect x="488.842" y="277.489" transform="matrix(0.7847 0.6199 -0.6199 0.7847 279.4821 -243.4304)" fill="#FFFFFF" width="2.61" height="6.192"/>
<polygon fill="#FFFFFF" points="492.592,286.054 490.55,284.436 494.394,279.585 496.442,281.214 "/>
<polygon fill="#FFFFFF" points="495.923,288.303 493.888,286.685 497.753,281.841 499.793,283.46 "/>
<polygon fill="#FFFFFF" points="499.282,290.574 497.247,288.932 501.118,284.098 503.153,285.73 "/>
<polygon fill="#FFFFFF" points="502.654,292.833 500.607,291.205 504.511,286.379 506.546,288.013 "/>
<polygon fill="#FFFFFF" points="506.027,295.123 503.992,293.475 507.89,288.665 509.918,290.307 "/>
<polygon fill="#FFFFFF" points="509.42,297.421 507.379,295.779 511.298,290.962 513.325,292.608 "/>
<polygon fill="#FFFFFF" points="512.799,299.728 510.778,298.076 514.704,293.277 516.718,294.929 "/>
<polygon fill="#FFFFFF" points="516.199,302.047 514.165,300.388 518.097,295.609 520.124,297.261 "/>
<polygon fill="#FFFFFF" points="519.585,304.375 517.571,302.719 521.518,297.94 523.532,299.596 "/>
<polygon fill="#FFFFFF" points="522.978,306.706 520.958,305.051 524.918,300.281 526.939,301.94 "/>
<polygon fill="#FFFFFF" points="526.365,309.061 524.364,307.388 528.317,302.63 530.331,304.303 "/>
<polygon fill="#FFFFFF" points="529.751,311.423 527.744,309.744 531.724,304.986 533.731,306.672 "/>
<polygon fill="#FFFFFF" points="533.13,313.779 531.13,312.116 535.117,307.365 537.131,309.047 "/>
<polygon fill="#FFFFFF" points="536.49,316.161 534.503,314.475 538.504,309.747 540.504,311.43 "/>
<polygon fill="#FFFFFF" points="539.848,318.558 537.868,316.861 541.883,312.133 543.863,313.83 "/>
<polygon fill="#FFFFFF" points="543.2,320.94 541.213,319.251 545.248,314.53 547.228,316.216 "/>
<polygon fill="#FFFFFF" points="546.532,323.34 544.552,321.64 548.58,316.93 550.566,318.629 "/>
<polygon fill="#FFFFFF" points="549.864,325.746 547.877,324.044 551.911,319.336 553.905,321.04 "/>
<polygon fill="#FFFFFF" points="553.141,328.16 551.168,326.443 555.229,321.753 557.209,323.46 "/>
<polygon fill="#FFFFFF" points="556.431,330.58 554.451,328.867 558.534,324.176 560.5,325.893 "/>
<polygon fill="#FFFFFF" points="559.688,333 557.708,331.294 561.79,326.613 563.757,328.327 "/>
<polygon fill="#FFFFFF" points="562.917,335.437 560.958,333.711 565.047,329.044 567.013,330.765 "/>
<polygon fill="#FFFFFF" points="566.125,337.868 564.153,336.144 568.276,331.485 570.228,333.205 "/>
<polygon fill="#FFFFFF" points="569.287,340.323 567.334,338.575 571.457,333.929 573.41,335.667 "/>
<polygon fill="#FFFFFF" points="572.672,342.93 570.714,341.189 574.837,336.557 576.796,338.288 "/>
<polygon fill="#FFFFFF" points="576.728,346.194 574.789,344.453 578.933,339.824 580.872,341.572 "/>
<polygon fill="#FFFFFF" points="580.749,349.525 578.804,347.774 582.955,343.159 584.893,344.906 "/>
<polygon fill="#FFFFFF" points="584.702,352.929 582.777,351.174 586.928,346.559 588.88,348.313 "/>
<polygon fill="#FFFFFF" points="588.614,356.4 586.675,354.639 590.853,350.037 592.785,351.795 "/>
<polygon fill="#FFFFFF" points="592.45,359.899 590.512,358.138 594.711,353.543 596.636,355.308 "/>
<polygon fill="#FFFFFF" points="596.212,363.449 594.287,361.691 598.486,357.097 600.425,358.865 "/>
<rect x="599.749" y="360.74" transform="matrix(0.7366 0.6764 -0.6764 0.7366 404.4472 -310.6862)" fill="#FFFFFF" width="2.614" height="6.224"/>
<polygon fill="#FFFFFF" points="603.538,370.628 601.613,368.846 605.839,364.285 607.764,366.06 "/>
<polygon fill="#FFFFFF" points="607.081,374.242 605.17,372.444 609.389,367.893 611.321,369.675 "/>
<polygon fill="#FFFFFF" points="610.549,377.854 608.638,376.066 612.877,371.512 614.795,373.297 "/>
<polygon fill="#FFFFFF" points="613.929,381.452 612.017,379.656 616.271,375.113 618.189,376.909 "/>
<polygon fill="#FFFFFF" points="617.233,385.04 615.328,383.244 619.602,378.708 621.5,380.51 "/>
<polygon fill="#FFFFFF" points="620.442,388.596 618.537,386.794 622.832,382.272 624.723,384.077 "/>
<polygon fill="#FFFFFF" points="623.548,392.122 621.65,390.317 625.951,385.794 627.836,387.61 "/>
<polygon fill="#FFFFFF" points="626.565,395.605 624.681,393.785 628.969,389.276 630.873,391.092 "/>
<polygon fill="#FFFFFF" points="629.481,399.025 627.597,397.202 631.911,392.717 633.802,394.529 "/>
<polygon fill="#FFFFFF" points="632.307,402.38 630.423,400.561 634.738,396.076 636.636,397.902 "/>
<polygon fill="#FFFFFF" points="635.024,405.671 633.133,403.848 637.475,399.363 639.359,401.196 "/>
<rect x="637.542" y="402.601" transform="matrix(0.7168 0.6973 -0.6973 0.7168 463.8438 -330.5598)" fill="#FFFFFF" width="2.619" height="6.249"/>
<polygon fill="#FFFFFF" points="640.104,411.996 638.219,410.163 642.596,405.698 644.466,407.535 "/>
<polygon fill="#FFFFFF" points="642.487,415.004 640.609,413.153 644.971,408.713 646.849,410.549 "/>
<polygon fill="#FFFFFF" points="644.739,417.912 642.869,416.068 647.245,411.617 649.115,413.461 "/>
<polygon fill="#FFFFFF" points="646.856,420.691 644.992,418.84 649.389,414.41 651.259,416.257 "/>
<polygon fill="#FFFFFF" points="648.87,423.34 646.999,421.482 651.403,417.062 653.28,418.909 "/>
<polygon fill="#FFFFFF" points="650.747,425.855 648.89,423.998 653.301,419.578 655.165,421.438 "/>
<polygon fill="#FFFFFF" points="652.495,428.217 650.624,426.364 655.069,421.957 656.933,423.817 "/>
<polygon fill="#FFFFFF" points="654.106,430.436 652.249,428.558 656.68,424.156 658.544,426.04 "/>
<polygon fill="#FFFFFF" points="655.574,432.478 653.717,430.607 658.168,426.214 660.032,428.088 "/>
<polygon fill="#FFFFFF" points="656.891,434.341 655.049,432.467 659.513,428.091 661.37,429.965 "/>
<polygon fill="#FFFFFF" points="658.073,436.031 656.243,434.14 660.722,429.764 662.558,431.655 "/>
<polygon fill="#FFFFFF" points="659.117,437.519 657.274,435.628 661.779,431.259 663.596,433.15 "/>
<polygon fill="#FFFFFF" points="659.991,438.803 658.168,436.912 662.674,432.55 664.504,434.45 "/>
<polygon fill="#FFFFFF" points="660.729,439.871 658.892,437.98 663.411,433.631 665.241,435.526 "/>
<polygon fill="#FFFFFF" points="661.302,440.725 659.472,438.813 663.998,434.481 665.822,436.383 "/>
<rect x="661.747" y="435.091" transform="matrix(0.6908 0.7231 -0.7231 0.6908 521.9139 -343.9355)" fill="#FFFFFF" width="2.639" height="6.268"/>
<polygon fill="#FFFFFF" points="661.957,441.711 660.127,439.803 664.681,435.482 666.504,437.403 "/>
<polygon fill="#FFFFFF" points="662.018,441.841 660.223,439.922 664.777,435.605 666.6,437.536 "/>
<path fill="#231F20" d="M668.661,443.182c2.806-2.252,3.455-5.359,1.898-6.304c-2.642-1.588-4.028-2.284-6.308-4.168
	c-1.359-1.123-3.263-1.468-4.52-0.526l-0.765,0.563c-1.27,0.932-1.495,2.867-0.812,4.478c1.154,2.731,1.42,4.267,2.178,7.243
	c0.451,1.762,3.619,2.052,6.568,0.01C667.631,443.981,667.979,443.718,668.661,443.182z"/>
<path fill="#FFFFFF" d="M668.893,443.473c1.844-1.472,2.963-3.482,2.861-5.127c-0.048-0.792-0.417-1.434-0.997-1.796l-1.372-0.805
	c-1.837-1.093-3.059-1.816-4.901-3.325c-1.557-1.3-3.646-1.523-4.978-0.549l-0.287,0.222l-0.477,0.345
	c-1.311,0.997-1.707,3.059-0.922,4.933c0.908,2.199,1.249,3.57,1.775,5.656l0.369,1.539c0.171,0.669,0.669,1.198,1.434,1.478
	c1.536,0.574,3.788,0.089,5.728-1.259C667.815,444.302,668.19,444.029,668.893,443.473z M666.702,444.166
	c-1.986,1.365-3.96,1.58-5.045,1.174l-0.956-0.972l-0.382-1.516c-0.505-2.055-0.874-3.526-1.809-5.779
	c-0.663-1.55-0.369-3.242,0.682-4.025l0.471-0.365l0.28-0.205c1.058-0.789,2.766-0.563,4.076,0.519
	c1.864,1.55,3.175,2.328,4.997,3.393l1.352,0.809l0.635,1.195c0.082,1.16-0.696,2.99-2.581,4.499
	C667.733,443.435,667.392,443.684,666.702,444.166z"/>
<path fill="#FFFFFF" d="M667.774,442.247c2.437-1.936,2.983-4.626,1.625-5.428c-2.246-1.356-3.461-1.969-5.421-3.598
	c-1.154-0.972-2.806-1.253-3.898-0.447l-0.649,0.484c-1.086,0.809-1.276,2.465-0.689,3.847c0.99,2.362,1.208,3.69,1.864,6.25
	c0.382,1.509,3.126,1.765,5.673-0.01L667.774,442.247z"/>
<path fill="#FFFFFF" d="M665.746,451.645c0.908-4.536,1.065-6.892,2.608-11.19c0.484-1.335,0.294-2.738-0.56-3.175
	c-0.669-0.348-0.997-0.529-1.666-0.887c-0.86-0.437-2.109,0.205-2.935,1.365c-2.656,3.707-4.485,5.182-7.708,8.5
	c-0.997,1.028-0.417,3.314,1.529,4.629c1.536,1.021,2.348,1.454,4.069,2.127C663.275,453.873,665.473,453.051,665.746,451.645z
	 M666.088,438.437c0.758,0.393,0.956,1.564,0.416,2.588c-0.546,1.014-1.59,1.512-2.355,1.109c-0.785-0.406-0.956-1.56-0.417-2.573
	C664.251,438.533,665.323,438.025,666.088,438.437z M659.513,450.972c-2.007-1.044-2.977-3.096-2.198-4.601
	c0.798-1.485,3.038-1.86,5.031-0.809c1.987,1.048,2.977,3.106,2.192,4.598C663.759,451.658,661.5,452.013,659.513,450.972z"/>
<path fill="#231F20" d="M665.473,451.15c0.826-4.164,0.963-6.325,2.389-10.268c0.437-1.222,0.287-2.506-0.519-2.912l-1.522-0.819
	c-0.792-0.396-1.939,0.187-2.704,1.242c-2.417,3.403-4.109,4.772-7.066,7.814c-0.921,0.938-0.389,3.045,1.407,4.246
	c1.399,0.942,2.143,1.342,3.734,1.953C663.193,453.187,665.22,452.437,665.473,451.15z M666.088,438.437
	c0.758,0.393,0.956,1.564,0.416,2.588c-0.546,1.014-1.59,1.512-2.355,1.109c-0.785-0.406-0.956-1.56-0.417-2.573
	C664.251,438.533,665.323,438.025,666.088,438.437z M659.513,450.972c-2.007-1.044-2.977-3.096-2.198-4.601
	c0.798-1.485,3.038-1.86,5.031-0.809c1.987,1.048,2.977,3.106,2.192,4.598C663.759,451.658,661.5,452.013,659.513,450.972z"/>
<path fill="#FFFFFF" d="M665.842,451.211c0.198-1.024,0.368-1.902,0.519-2.748c0.471-2.625,0.792-4.499,1.85-7.448
	c0.539-1.474,0.245-2.895-0.696-3.379l-1.482-0.782l-0.041-0.024c-0.935-0.489-2.26,0.082-3.168,1.351
	c-1.809,2.54-3.223,3.946-5.052,5.745c-0.614,0.615-1.249,1.246-1.994,2.024c-0.41,0.431-0.601,1.055-0.539,1.772
	c0.129,1.13,0.887,2.297,2.007,3.041c1.414,0.956,2.205,1.365,3.802,1.987c1.243,0.495,2.629,0.457,3.639-0.085L665.842,451.211z
	 M661.315,452.061c-1.549-0.618-2.266-0.99-3.652-1.918c-0.942-0.625-1.57-1.588-1.673-2.503l0.314-1.177
	c0.752-0.751,1.393-1.386,2.021-2.004c1.816-1.827,3.256-3.263,5.107-5.848c0.662-0.925,1.638-1.423,2.212-1.119l0.048,0.013
	l1.488,0.782c0.56,0.317,0.71,1.396,0.321,2.461c-1.079,3.011-1.413,5.018-1.878,7.571c-0.157,0.861-0.314,1.727-0.512,2.752
	l-0.778,0.932C663.5,452.446,662.36,452.453,661.315,452.061z"/>
<path fill="#FFFFFF" d="M665.91,438.762c0.573,0.301,0.696,1.26,0.259,2.09c-0.444,0.833-1.277,1.266-1.844,0.956l-0.464-0.587
	l0.184-1.478l1.112-1.017L665.91,438.762z M663.384,439.387c-0.354,0.669-0.45,1.423-0.238,2.058l0.819,1.024
	c0.949,0.498,2.246-0.075,2.875-1.27c0.621-1.212,0.368-2.608-0.58-3.103l-1.325-0.078
	C664.299,438.219,663.739,438.711,663.384,439.387z"/>
<path fill="#FFFFFF" d="M659.683,450.644c-1.802-0.949-2.717-2.782-2.027-4.092c0.683-1.304,2.717-1.597,4.52-0.662
	c1.037,0.556,1.844,1.447,2.15,2.383l-0.116,1.713l-1.352,1.068C661.916,451.34,660.729,451.197,659.683,450.644z M664.865,450.33
	c0.362-0.676,0.41-1.461,0.164-2.277c-0.362-1.14-1.27-2.174-2.506-2.819c-2.171-1.137-4.65-0.7-5.537,0.966
	c-0.888,1.679,0.171,3.97,2.348,5.107c1.236,0.645,2.601,0.805,3.735,0.447C663.903,451.508,664.511,451.01,664.865,450.33z"/>
<path fill="#231F20" d="M663.364,440.752c0.526,0.693,1.523,0.854,2.226,0.331c0.689-0.519,0.833-1.513,0.321-2.206l-3.202-4.332
	c-0.533-0.686-1.516-0.84-2.206-0.328c-0.703,0.529-0.853,1.516-0.334,2.208L663.364,440.752z"/>
<path fill="#231F20" d="M158.461,177.231c0,0,13.224-23.308,26.393-18.058l6.363-25.489c0,0-113.302,2.945-67.977,33.401
	C123.24,167.085,140.69,187.14,158.461,177.231z"/>
<path fill="#231F20" d="M277.375,238.237c0,0-111.452-50.67-132.862-67.27c0,0-29.82-13.648-28.974-20.468
	c0,0-8.834,30.101,7.312,45.151c0,0,137.552,54.033,148.332,54.839L277.375,238.237z"/>
<path fill="#231F20" d="M321.088,293.458c0,0,0.232-17.839,5.094-12.197c0,0,1.079,13.634,17.996,28.981
	c0,0,19.737,21.355,19.894,30.487C364.072,340.729,318.296,332.147,321.088,293.458z"/>
<path fill="#FFFFFF" d="M322.583,293.486L322.583,293.486c0.076-5.551,1.045-11.217,2.021-11.882l-0.232,0.044l0.669,0.591
	l-0.348-0.857c0.041,0.577,1.331,14.395,18.473,29.974c5.298,5.731,19.287,22.376,19.417,29.401l1.761-1.499
	C362.536,338.913,319.914,330.457,322.583,293.486z M365.581,340.698c-0.171-9.431-18.235-29.247-20.311-31.466
	c-16.371-14.886-17.593-27.96-17.593-28.094l-0.034-0.495l-0.321-0.365c-1.549-1.785-2.901-1.782-3.782-1.465
	c-3.277,1.198-3.884,9.688-3.946,14.624c-2.861,39.474,43.734,48.674,44.212,48.759l1.795,0.338L365.581,340.698z"/>
<path fill="#231F20" d="M434.336,426.903c0,0-15.505-41.105-32.122-39.587c0,0,17.184,19.665,18.583,37.184
	C420.798,424.5,429.639,429.689,434.336,426.903z"/>
<path fill="#FFFFFF" d="M437.948,444.804c0,0,7.086-18.03-11.327-23.396l-15.934-2.396c0,0-10.186,2.748,17.027,26.967l4.404-1.351
	c0,0-23.984-21.103-10.623-17.372c0,0,2.779-1.71,6.93,1.468c0,0,6.841,4.178,5.209,15.917
	C433.633,444.64,435.497,446.066,437.948,444.804z"/>
<path fill="#231F20" d="M438.644,445.077c0.143-0.352,3.249-8.458-0.259-15.62c-2.055-4.171-5.946-7.134-11.552-8.769l-0.048-0.014
	l-0.055-0.007l-15.941-2.396l-0.143-0.017l-0.164,0.045c-0.076,0.017-1.803,0.502-2.28,2.58
	c-1.154,4.776,5.243,13.419,19.013,25.659l0.314,0.266l0.403-0.113l4.383-1.342l1.297-0.389l-1.01-0.891
	c-8.534-7.513-15.115-14.996-14.385-16.344c0.007-0.01,0.41-0.484,3.073,0.246l0.32,0.082l0.28-0.164
	c0.082-0.051,2.437-1.369,6.083,1.417L428,429.33l0.027,0.024c0.273,0.164,6.418,4.103,4.861,15.177l-0.062,0.437l0.355,0.266
	c0.089,0.065,2.28,1.704,5.12,0.225l0.246-0.129L438.644,445.077z M434.37,444.746c1.693-12.098-5.243-16.487-5.536-16.668
	l0.055,0.048c-4.52-3.447-7.66-1.597-7.79-1.518l0.594-0.082c-1.686-0.477-4.015-0.932-4.793,0.482
	c-1.727,3.195,9.708,13.78,14.712,18.194l0.273-1.284l-4.39,1.338l0.71,0.154c-17.389-15.456-19.089-21.775-18.549-24.161
	c0.245-1.209,1.195-1.502,1.235-1.516l-0.327,0.03l15.948,2.396l-0.102-0.031c5.202,1.509,8.766,4.199,10.623,7.984
	c3.236,6.564,0.259,14.327,0.219,14.419l0.361-0.399c-1.98,1.024-3.461-0.048-3.53-0.089L434.37,444.746z"/>
<path fill="#231F20" d="M467.154,498.758l-8.732-17.208l-7.114,0.577c0,0,10.691,22.13,13.852,22.622
	C465.16,504.749,470.513,504.104,467.154,498.758z"/>
<path fill="#FFFFFF" d="M519.163,520.345c0,0-21.621-22.874-21.752-8.701C497.261,525.82,519.163,520.345,519.163,520.345z"/>
<path fill="#231F20" d="M510.417,514.853c0,0-32.176-32.056-42.895-17.593c-10.705,14.453,23.219,31.479,24.495,30.65l2.137-1.997
	c0,0-26.373-13.651-22.167-24.526c4.206-10.865,35.453,15.368,35.453,15.368S512.362,519.345,510.417,514.853z"/>
<path fill="#231F20" d="M519.163,520.345c0,0-12.391,2.151-21.355-10.496l-10.268,12.493c0,0,11.088,17.119,23.199,10.329
	L519.163,520.345z"/>
<path fill="#231F20" d="M471.659,502.093c0,0,13.477,4.994,1.249-12.872c0,0-7.577-8.855-14.487-7.67l-7.182-13.306
	c0,0,9.975,6.414,18.351,10.719c0,0,23.929,18.341,10.93,27.592c0,0-1.27,2.778-9.087-0.085
	C471.434,506.469,471.004,504.691,471.659,502.093z"/>
<polygon fill="#231F20" points="458.422,481.55 442.979,452.569 434.582,454.519 449.165,482.879 "/>
<path fill="#231F20" d="M445.928,450.959c-0.826-1.611-2.594-2.847-3.974-2.755l-11.934,0.867c-1.359,0.103-1.844,1.499-1.031,3.113
	c0.799,1.622,2.581,2.861,3.974,2.759l11.906-0.864C446.27,453.973,446.734,452.587,445.928,450.959z"/>
<path fill="#FFFFFF" d="M446.583,450.624c-0.928-1.898-2.997-3.294-4.676-3.168l-11.94,0.86c-0.799,0.072-1.448,0.454-1.809,1.096
	c-0.464,0.829-0.41,1.955,0.15,3.117c0.956,1.895,3.017,3.273,4.703,3.164l11.92-0.87c0.812-0.051,1.447-0.451,1.823-1.089
	C447.212,452.901,447.171,451.781,446.583,450.624z M445.259,451.293c0.396,0.812,0.348,1.4,0.178,1.697l-0.621,0.341l-11.92,0.863
	c-1.072,0.082-2.574-1.014-3.243-2.338c-0.389-0.803-0.362-1.396-0.198-1.69l0.629-0.342l11.926-0.877
	C443.068,448.869,444.59,449.968,445.259,451.293z"/>
<path fill="#231F20" d="M442.412,446.043c-0.71-1.413-2.259-2.482-3.454-2.403l-10.384,0.754c-1.201,0.096-1.618,1.304-0.901,2.714
	c0.69,1.413,2.239,2.488,3.448,2.403l10.377-0.751C442.713,448.668,443.115,447.449,442.412,446.043z"/>
<path fill="#FFFFFF" d="M443.075,445.712c-0.826-1.686-2.663-2.915-4.165-2.817l-10.398,0.758c-0.731,0.041-1.311,0.406-1.653,0.986
	c-0.43,0.752-0.375,1.782,0.123,2.799c0.833,1.693,2.669,2.919,4.185,2.82l10.377-0.748c0.738-0.068,1.338-0.417,1.679-1.007
	C443.634,447.753,443.594,446.739,443.075,445.712z M441.743,446.364c0.315,0.683,0.301,1.158,0.178,1.39l-0.484,0.259
	l-10.377,0.747c-0.798,0.065-2.123-0.744-2.724-1.983c-0.342-0.662-0.321-1.157-0.171-1.4l0.458-0.236l10.391-0.754
	C439.811,444.336,441.122,445.145,441.743,446.364z"/>
<path fill="#231F20" d="M438.603,441.479c-0.696-1.423-2.02-2.509-2.935-2.434l-7.824,0.56c-0.908,0.072-1.072,1.263-0.382,2.68
	c0.703,1.403,2.013,2.499,2.922,2.438l7.831-0.574C439.135,444.077,439.299,442.882,438.603,441.479z"/>
<path fill="#FFFFFF" d="M439.265,441.138c-0.717-1.451-2.239-2.946-3.639-2.844l-7.831,0.556l-1.263,0.785
	c-0.424,0.741-0.321,1.82,0.266,2.973c0.724,1.461,2.239,2.953,3.639,2.857l7.852-0.58l1.229-0.765
	C439.948,443.397,439.859,442.302,439.265,441.138z M437.927,441.803c0.478,0.959,0.362,1.523,0.287,1.594l-0.041,0.007
	l-7.838,0.577c-0.464,0.024-1.563-0.747-2.205-2.038c-0.464-0.956-0.348-1.512-0.28-1.584l-0.006,0.004l0.048-0.01l7.838-0.574
	C436.213,439.745,437.285,440.523,437.927,441.803z"/>
<path fill="#231F20" d="M428.594,429.163c0,0-7.803-7.479-24.441-39.662l-20.761-5.219c0,0,9.564,34.063,30.571,45.523
	C413.964,429.805,423.549,437.796,428.594,429.163z"/>
<path fill="#FFFFFF" d="M429.625,428.088l0.007,0.004c-0.082-0.089-7.919-7.882-24.147-39.28l-0.314-0.608l-0.662-0.15
	l-20.768-5.216l-2.499-0.624l0.703,2.478c0.389,1.414,9.975,34.794,31.309,46.434l-0.252-0.164
	c0.225,0.185,5.482,4.506,10.739,3.584c2.547-0.44,4.608-2.004,6.131-4.625l0.6-1.028L429.625,428.088z M414.687,428.498
	c-20.215-11.026-29.766-44.277-29.862-44.619l-1.802,1.864l20.768,5.206l-0.97-0.761c16.576,32.025,24.4,39.747,24.714,40.064
	l-0.246-1.843c-1.078,1.853-2.417,2.891-4.069,3.188c-3.229,0.567-7.08-1.925-8.309-2.928l-0.095-0.099L414.687,428.498z"/>
<path fill="#FFFFFF" d="M404.283,390.402c0,0-33.862-48.697-43.249-53.941c0,0,0.103,16.959,23.041,49.241
	C384.075,385.702,398.336,401.998,404.283,390.402z"/>
<path fill="#231F20" d="M510.546,532.508c0,0,10.446,22.621,54.781,15.521l-11.374-8.892c0,0-11.756,9.985-34.79-18.792
	L510.546,532.508z"/>
<path fill="#FFFFFF" d="M323.28,283.108l2.71-2.096c0,0-26.53-45.868-39.959-43.168l-12.937,20.153
	C273.094,257.998,296.375,263.334,323.28,283.108z"/>
<path fill="#FFFFFF" d="M285.342,231.389l-16.153-12.719c-3.325-2.625-6.786-3.182-7.756-1.239l-12.213,24.649
	c-0.949,1.929,0.956,5.609,4.288,8.227l16.146,12.722c3.312,2.615,6.786,3.175,7.735,1.242l12.227-24.652
	C290.571,237.684,288.653,234.007,285.342,231.389z M280.652,234.172c2.348,1.84,3.714,4.441,3.031,5.813l-8.637,17.413
	c-0.669,1.362-3.127,0.976-5.455-0.881l-11.422-8.992c-2.348-1.837-3.693-4.444-3.024-5.816l8.637-17.416
	c0.682-1.358,3.113-0.966,5.461,0.881L280.652,234.172z"/>
<path fill="#FFFFFF" d="M267.455,246.624c-5.08-4.366-9.906-5.83-10.917-4.257c-0.99,1.567,3.352,4.479,8.439,8.841
	c5.086,4.373,8.684,8.291,9.68,6.714C275.661,256.346,272.555,250.99,267.455,246.624z"/>
<path fill="#FFFFFF" d="M256.354,242.258l9.872-18.727c0,0,10.889,4.393,18.132,15.354l-9.762,19.157
	C274.596,258.042,269.694,243.016,256.354,242.258z"/>
<path fill="#231F20" d="M257.016,242.617l9.872-18.737l-0.935,0.345c0.096,0.048,10.767,4.455,17.778,15.075l-0.041-0.758
	l-9.749,19.164l1.372,0.106c-0.055-0.157-5.223-15.528-18.931-16.289L257.016,242.617z M275.265,258.388l9.756-19.157l0.205-0.396
	l-0.246-0.362c-7.292-11.029-18.023-15.453-18.474-15.627l-0.621-0.259l-0.328,0.601l-9.879,18.727l-0.533,1.028l1.154,0.078
	c12.698,0.689,17.552,15.108,17.593,15.258l0.559,1.711L275.265,258.388z"/>
<path fill="#FFFFFF" d="M704.23,460.96c0,0-66.038-14.753-127.386,84.154C576.844,545.114,685.094,550.422,704.23,460.96z"/>
</svg>
