<?xml version="1.0" encoding="utf-8"?>
<!-- Generator: Adobe Illustrator 17.0.0, SVG Export Plug-In . SVG Version: 6.00 Build 0)  -->
<!DOCTYPE svg PUBLIC "-//W3C//DTD SVG 1.1//EN" "http://www.w3.org/Graphics/SVG/1.1/DTD/svg11.dtd">
<svg version="1.1" id="Layer_1" xmlns="http://www.w3.org/2000/svg" xmlns:xlink="http://www.w3.org/1999/xlink" x="0px" y="0px"
	 width="800px" height="600px" viewBox="0 0 800 600" enable-background="new 0 0 800 600" xml:space="preserve">
<g>
	
		<linearGradient id="SVGID_1_" gradientUnits="userSpaceOnUse" x1="2533.8689" y1="476.1826" x2="2533.8689" y2="416.0615" gradientTransform="matrix(1 0 0 1 -2129.4082 0)">
		<stop  offset="0" style="stop-color:#FFFFFF"/>
		<stop  offset="0.1275" style="stop-color:#FAFDFF"/>
		<stop  offset="0.2733" style="stop-color:#ECF8FE"/>
		<stop  offset="0.4281" style="stop-color:#D6EFFC"/>
		<stop  offset="0.5892" style="stop-color:#B5E3F9"/>
		<stop  offset="0.7552" style="stop-color:#8CD3F6"/>
		<stop  offset="0.9228" style="stop-color:#5AC0F2"/>
		<stop  offset="1" style="stop-color:#41B6F0"/>
	</linearGradient>
	<path fill="url(#SVGID_1_)" d="M425.332,472.128c4.137-1.274,5.295-0.819,7.637-1.759c2.947-1.192,2.807-2.015,2.705-3.473
		c-0.205-3.186-3.277-10.109-4.49-11.918l-1.656,0.369c-0.898-1.395-1.145-2.041-1.145-5.32c0-6.625-2.822-13.561-4.715-15.797
		c-3.85-4.604-8.447-9.021-9.68-9.353c0,0-1.072,0.773-2.676,2.367c-1.529,1.519-0.17,3.691,0.588,5.252
		c3.619,7.451,0.139,17.035-0.332,18.079c0,0-3.391-4.603-3.877-5.277c-0.492-0.668-3.131,1.635-3.131,1.635
		s-1.068-4.557-1.435-6.804c-0.145-0.897-4.586-1.608-4.586-1.608c2.842-2.836,5.652-3.087,5.291-7.849l-23.402-14.61
		c-0.314,2.024-0.496,4.058-0.061,5.372c0.119,0.794,1.371,4.063,1.539,5.424c-0.266,1.515-1.719,7.018-2.27,8.431
		c-2.787,7.187-2.055,6.306-1.303,9.096c1.351,5.051,5.168,16.136,5.848,18.324c-3.699,3.787-7.99,10.152-10.975,13.475h48.674
		C422.727,475.704,424.477,472.596,425.332,472.128z"/>
	<path d="M382.598,153.435c-0.297-0.843-0.033-1.355-0.678-2.544c-0.647-1.19-0.647-3.469-0.199-4.464
		c0.443-0.992,1.809-4.273,2.279-4.853c1.484-1.836,3.271-4.066,5.154-4.857c1.885-0.794,3.473-1.241,5.904-1.538
		c2.422-0.294,6.496-0.235,8.967,0.401c2.33,0.592,4.244,1.513,4.543,3.431c2.594,0.13,4.465,1.572,4.377,5.04
		c-0.094,3.868,0.348,6.744-0.201,10.159c0,0,1.094,0.112,0.943,1.589c-0.295,2.973-1.535,6.263-2.08,7.4
		c-0.334,0.7-0.545,1.142-1.686,1.914c-0.141,1.054-0.914,2.633-1.055,3.871c0.031,2.179-0.006,3.692,0.1,4.823
		c3.102,1.193,3.691,3.389,6.256,4.641c5.762,2.822,20.594,8.887,22.699,9.365c2.621,0.596,4.719,3.15,4.912,5.031
		c0.203,1.881,3.264,22.758,3.662,26.327c0.393,3.57,4.328,24.35,3.664,27.127c-0.66,2.773-4.799,13.105-5.861,15.099
		c-4.693,8.796-7.236,12.52-8.729,15.252c0,7,3,23.278,3.656,26.184c0.664,2.908-8.719,3.834-13.08,1.456
		c-1.512-0.828-1.793-0.845-3.771-0.548c-3.211,20.196-5.09,38.511-5.85,42.845c-1.891,10.759-3.588,17.932-5.1,26.806
		c0.756,0.593,4.004,2.51,5.256,3.055c0.283,0.123,0.561,0.997,0.74,0.997c0.99,0,6.609,0,8.328,0.463
		c1.719,0.458,2.115,0.662,2.908,0.849c0.793,0.208,0.658-0.067,2.6,0.345c1.551,0.335,1.791,0.551,2.033,2.405
		c0.266,2.047-0.389,4.05-1.215,8.279c-0.424,2.173-1.838,6.69-2.051,7.475c-0.109,0.408-3.004-0.563-3.086-0.029
		c-0.135,0.864-1.059,8.631-1.322,9.823c-0.264,1.18-1.602,6.389-2.215,8.022c-1.85,4.94-7.168,12.589-8.027,12.787
		c-0.863,0.205-3.037-0.48-3.336-1.469c-0.275-0.65,0.17-1.338-0.309-1.92c-0.283-0.346-1.027-0.548-0.035-3.666
		c0.533-1.679,1.098-4.41,1.398-6.245c0.299-1.83-0.406-5.872-0.793-7.578c-0.693-3.077-2.113-7.206-2.576-7.932
		c-0.695,3.156-2.123,7.228-3.322,8.278c-0.4,0.348-3.457-0.449-3.92-0.914c0.088,5.87,0.088,5.324-5.35,7.951
		c0.277,1.09-0.018,2.496,0.893,4.313c0.853,1.698,1.986,3.702,5.23,9.016c0.596,0.984,0.719,1.51,0.621,2.304
		c-0.102,0.792,0.471,0.77,0.199,1.911c-0.289,1.187-1.979,1.769-4.854,2.01c-2.873,0.246-5.266-0.179-6.959-0.643
		c-2.158-0.593-5.205-3.133-6.164-4.46c-0.779-1.067-1.107-1.91-0.861-3.104c0.246-1.185,0.105-3.566-0.758-4.656
		c-0.441-0.56-0.627,1.056-1.271,0.577c-0.645-0.475-2.715-3.099-2.889-3.454c-0.266-0.529-0.145-1.71,0.094-2.649
		c0.156-0.63,1.195-2.296,1.389-3.722c-1.047-1.212-1.689-2.637-2.484-4.022c-1.541-2.676-0.756-3.292,0.271-5.964
		c3.211-8.345,3.256-9.856,4.182-13.29c-6.74-5.027-14.457-12.218-22.123-21.335c-2.736-3.26-11.209-13.482-13.164-16.563
		c-1.295-2.171-0.118-6.754,0.877-11.587c1.057-5.152,6.801-33.418,7.395-37.435c-1.748-0.497-4.051-1.524-3.535-3.071
		c1.191-3.575,6.723-28.372,8.096-36.715c0.359-2.19,1.291-10.174,1.389-11.665c-2.643,0.265-5.055,0.102-6.738-0.393
		c-1.686-0.497-4.693-4.105-5.873-6.044c-4.065-6.64-5.594-10.113-6.585-12.198c-0.695-3.665-0.267-8.751,1.19-11.992
		c1.386-2.972,16.91-28.169,17.613-30.672c0.461-1.631,9.174-2.04,21.211-8.483c1.148-0.615,4.094-2.839,5.451-4.061
		c-1.289-1.865-3.719-7.364-4.34-9.189c-0.733-2.114-1.322-4.045-1.227-5.085c0.084-0.928,0.297-1.893,0.045-2.811
		c-0.326-1.225-0.574-1.886-0.957-2.675C382.035,155.598,382.463,154.804,382.598,153.435z M429.291,235.202
		c0,0-1.002,5.225-0.978,7.279c0.025,2.055,0.053,7.722,0.053,7.722c0.502-1.629,0.926-4.839,0.926-4.839
		S429.586,241.508,429.291,235.202z M381.838,330.013c-0.891,1.865-5.627,12.255-5.33,13.051c0.299,0.796,4.275,3.837,5.668,4.691
		c1.291,0.794,6.172,6.555,8.949,8.872c0.359-11.4,0.043-12.734,0.043-25.293c0-2.016-1.418-19.644-1.418-19.644
		C385.207,322.681,383.621,326.245,381.838,330.013z"/>
	<path fill="#FFFFFF" d="M420.299,269.996c-0.316,0.337-0.633,0.378-0.754,0.878c-0.432,1.767,0.717,4.387,1.273,6.864
		c0.68,3.039,1.797,4.668,3.162,6.082C422.488,281.341,420.299,275.143,420.299,269.996z"/>
	<path fill="#FFFFFF" d="M352.826,225.841c-1.842,1.378-3.513,2.216-4.461,2.151c-1.355-0.088-3.335-4.197-3.701-4.658
		c0.091,2.742,2.199,7.861,3.502,8.657C350.011,232.278,352.164,226.881,352.826,225.841z"/>
	<path fill="#FFFFFF" d="M411.209,177.725c0.113-2.115-0.848-4.632-1.352-7.028c-0.147-0.672-0.98-0.909-0.98-0.909
		s-0.047,1.123-0.01,1.772c0.031,0.641-6.574,7.597-9.758,8.897c-2.469,1.063-2.367,0.827-4.254,0.316
		c-0.738-0.195-2.477-2.246-2.477-2.246c-2.158-0.147-3.225-1.963-3.225-1.963c-3.701,9.959-11.045,25.46-11.652,32.512
		c-0.301,3.393-1.375,15.624-1.678,26.854c-0.18,6.709-0.305,13.897-1.27,25.167c4.102,0.758,8.082,1.448,13.65,1.545
		c0.352,0.006,1.037-0.724,1.389-0.711c1.871,0.06,3.822,0.098,5.75,0.113c0.328,0.002,1.193,0.656,1.521,0.661
		c6.914,0.173,12.586-0.868,17.633-1.532c-1.625-18.709-4.75-48.339-4.389-54.554C411.256,186.781,411.043,180.695,411.209,177.725z
		"/>
	<path fill="#387BB8" d="M376.158,261.389c0.965-11.273,0.789-18.749,0.971-25.458c0.303-11.231,0.705-21.083,0.98-24.48
		c0.68-8.32,9.004-27.575,9.897-31.899c-3.891,9.853-9.955,23.146-10.504,29.525c-0.301,3.393-1.375,15.624-1.678,26.854
		c-0.18,6.709-0.305,13.897-1.27,25.167L376.158,261.389z"/>
	<path fill="#387BB8" d="M395.654,186.064c0,0-6.523,0.488-5.959,0.151c2.568-2.684,3.453-3.466,3.453-3.466s7.898,0.569,8.42,1.038
		c0.379,0.346,1.303,1.175,2.984,3.179c0.805,0.788-1.463,0.431-3.73-0.018c-0.635,0.8-1.24,1.496-1.287,1.999
		c-0.094,1.044-0.123,1.992-0.082,2.985c0.16,3.626,0.959,7.595,0.959,8.732c0,0.411-0.15,14.563-0.051,27.635
		c0.088,11.234,0.398,22.347,0.396,22.444c-0.037,1.101-6.627,8.194-7.664,8.194c-1.043,0-7.053-9.123-7.053-9.123L395.654,186.064z
		"/>
	<path d="M387.758,217.026c0.469-6.716,2.475-15.688,2.668-16.883c0.156-0.989,3.488-6.616,3.9-8.919
		c0.123-0.693,0.559-2.267,0.43-3.009c-0.123-0.741-2.285-3.211-1.608-5.467c1.233-1.109,2.127-1.645,4.068-1.614
		c2.092,0.029,3.533,1.663,4.352,2.652c-0.213,1.943-2.697,3.792-2.795,4.836c-0.094,1.038-0.121,1.991-0.08,2.983
		c0.156,3.629,0.957,7.596,0.957,8.73c0,0.78,0.133,9.592-0.068,20.569c-0.014,0.759-0.033,29.946-0.039,30.154
		c-0.033,1.105-6.33,7.598-7.373,7.598c-1.039,0-6.865-6.514-6.834-8.375C385.353,249.424,387.705,217.705,387.758,217.026z"/>
	<g>
		<path fill="#004D9F" d="M337.857,191.555c-0.672-2.224-0.068-3.448,1.057-3.952l18.758-1.857c1.982-0.107,2.613,1.822,3.287,3.327
			l12.385,27.566c1.98,4.317-7.936,3.805-10.094,3.887l-11.098,0.396c-0.965,0.011-1.288-0.832-1.288-0.832L337.857,191.555z"/>
		
			<linearGradient id="SVGID_2_" gradientUnits="userSpaceOnUse" x1="371.6851" y1="218.454" x2="340.5451" y2="190.1448" gradientTransform="matrix(1 0 0 1 -0.002 0)">
			<stop  offset="0" style="stop-color:#45BDFF"/>
			<stop  offset="0.4348" style="stop-color:#49C7FF"/>
			<stop  offset="1" style="stop-color:#50DAFF"/>
		</linearGradient>
		<path fill="url(#SVGID_2_)" d="M373.018,217.061c-0.641-1.35-13.143-29.25-13.143-29.25c-0.732-1.854-2.445-1.577-2.445-1.577
			l-17.451,1.787c-0.234,0.037-0.726,0.066-1.245,0.165c-0.647,0.497-0.949,1.489-0.442,3.173l13.265,29.107l17.727-0.637
			c1.021-0.076,1.877-0.274,2.727-0.819C372.693,218.595,373.447,217.988,373.018,217.061z"/>
		<path fill="#90E7FF" d="M356.473,190.413c0.061,0.136,0.203,0.22,0.324,0.198c0.129-0.017,0.174-0.146,0.109-0.278
			c-0.057-0.133-0.205-0.224-0.326-0.206C356.459,190.155,356.406,190.279,356.473,190.413z"/>
		<path fill="#90E7FF" d="M339.29,191.825c0.065,0.136,0.21,0.223,0.332,0.202c0.124-0.019,0.168-0.149,0.107-0.278
			c-0.057-0.131-0.208-0.225-0.327-0.203C339.28,191.564,339.233,191.69,339.29,191.825z"/>
		<path fill="#90E7FF" d="M368.645,218.769c0.063,0.139,0.209,0.225,0.33,0.2c0.123-0.016,0.168-0.145,0.109-0.277
			c-0.059-0.132-0.209-0.222-0.332-0.199C368.631,218.515,368.584,218.641,368.645,218.769z"/>
		<polygon fill="#2896E4" points="361.492,219.218 361.191,219.232 360.162,216.887 360.465,216.873 		"/>
		<polygon fill="#2896E4" points="360.434,219.242 360.129,219.271 359.109,216.93 359.41,216.901 		"/>
		<polygon fill="#77DDFF" points="355.734,204.501 351.512,204.818 350.777,203.234 355.008,202.919 		"/>
		<polygon fill="#2896E4" points="359.377,219.275 359.07,219.299 358.053,216.956 358.352,216.941 		"/>
		<polygon fill="#2896E4" points="358.318,219.308 358.016,219.332 356.994,216.994 357.293,216.97 		"/>
		<path fill="#74DAFF" d="M373.018,217.061c-0.641-1.35-13.143-29.25-13.143-29.25c-0.732-1.854-2.445-1.577-2.445-1.577
			l-17.339,1.777c0,0-2.441,0.641-1.955,2.656c2.094-0.219,18.046-1.527,18.046-1.527c0.842-0.106,1.283,0.027,1.578,0.57
			l13.445,29.716C372.336,218.984,373.447,217.988,373.018,217.061z"/>
		<path fill="#97E7FF" d="M373.018,217.061l-13.143-29.25c-0.732-1.854-2.445-1.577-2.445-1.577l-19.3,2.901
			c-0.084,0.293-0.112,0.645-0.071,1.062l18.163-1.527c0.842-0.1,1.504-0.214,1.795,0.328l13.619,30.235
			C372.387,218.845,373.447,217.988,373.018,217.061z"/>
		<path fill="#D7FCFF" d="M357.385,186.233l-18.229,1.722c-0.66,0.254-1.121,0.858-1.116,1.911l18.243-1.662
			c0.836-0.103,1.75-0.261,2.035,0.285h0.004c1.076,0.066,0.971-0.873,1.553-0.678C359.148,185.873,357.385,186.233,357.385,186.233
			z"/>
		<path fill="#BCF3FF" d="M358.322,188.488l13.688,30.522c0.684-0.415,1.438-1.022,1.008-1.949l-13.143-29.25
			C359.289,187.613,359.357,188.474,358.322,188.488z"/>
	</g>
	<path d="M346.58,223.747c-0.195-0.741-0.597-1.882-1.142-2.626c-0.54-0.745-1.037-1.689-1.533-1.983
		c-0.497-0.299-1.387-1.534-1.191-2.275c0.201-0.748,0.35-1.64-0.148-1.99c-0.495-0.344-0.937-1.98-0.241-2.871
		c0.688-0.898,0.331-1.09,0.343-1.666c0.015-0.977-0.084-1.606,0.213-2.596c0.297-0.991,0.629-1.787,0.678-2.777
		c0.048-0.988,1.287-2.18,1.583-2.777c0.296-0.593,3.072-3.217,3.622-3.865c0.546-0.64,2.029-0.442,2.13,0.946
		c0.1,1.382-1.737,3.096-2.13,4.083c-0.397,0.994-1.193,2.058-1.388,3.596c-0.199,1.534-0.15,1.613-0.15,1.957
		c0.47-0.299,1.563-1.039,1.931-1.24c0.375-0.2,1.938-0.914,2.457-1.115c0.518-0.197,3.569-1.586,4.536-1.881
		c0.963-0.298,2.576-0.818,2.945,0.594c0.371,1.415-1.309,2.227-2.125,2.578c-0.82,0.345-2.732,1.413-3.275,1.76
		c-0.543,0.346-3.889,2.501-4.364,2.874c-0.47,0.372-0.519,1.064,0.648,0.821c1.161-0.252,2.303-0.797,2.918-0.797
		c0.625,0,3.176-0.469,3.67-0.549c0.498-0.069,2.752-0.685,3.918-0.74c1.164-0.049,2.131,0.914,1.559,1.884
		c-0.463,0.961-2.279,1.215-2.578,1.29c1.244,0,2.506-0.05,2.754,0.544c0.246,0.591,0.445,1.56-1.139,2.178
		c-1.59,0.626-3.5,0.995-4.191,1.194c-0.695,0.197-3.07,1.041-3.295,1.263c-0.225,0.225-0.141,0.438-0.006,0.967
		c0.131,0.524,0.33,1.057,0.197,1.621L346.58,223.747z"/>
</g>
</svg>
