<?xml version="1.0" encoding="utf-8"?>
<!-- Generator: Adobe Illustrator 17.0.0, SVG Export Plug-In . SVG Version: 6.00 Build 0)  -->
<!DOCTYPE svg PUBLIC "-//W3C//DTD SVG 1.1//EN" "http://www.w3.org/Graphics/SVG/1.1/DTD/svg11.dtd">
<svg version="1.1" id="Layer_1" xmlns="http://www.w3.org/2000/svg" xmlns:xlink="http://www.w3.org/1999/xlink" x="0px" y="0px"
	 width="800px" height="600px" viewBox="0 0 800 600" enable-background="new 0 0 800 600" xml:space="preserve">
<path fill="#231F20" d="M356.636,138.681c-23.518,9.243-18.27,28.641-18.27,28.641l90.577,209.125l3.803,8.799l24.752-12.517
	l-3.854-9.752L379.948,151.45C379.948,151.45,375.551,131.251,356.636,138.681z"/>
<path fill="#231F20" d="M456.945,368.186c3.551-1.511,7.657,0.146,9.167,3.702l3.944,9.288c1.506,3.551-0.146,7.662-3.702,9.173
	L434.188,404c-3.551,1.511-7.656-0.151-9.168-3.702l-3.939-9.294c-1.506-3.546,0.151-7.651,3.702-9.158L456.945,368.186z"/>
<path fill="#FFFFFF" d="M455.177,388.622c1.929-0.816,4.161,0.08,4.987,2.015l2.141,5.052c0.821,1.929-0.075,4.161-2.015,4.987
	l-17.494,7.425c-1.929,0.826-4.155-0.086-4.982-2.015l-2.151-5.047c-0.816-1.939,0.086-4.171,2.02-4.991L455.177,388.622z"/>
<path fill="#231F20" d="M455.404,389.155c1.632-0.69,3.526,0.076,4.221,1.708l2.146,5.052c0.338,0.796,0.342,1.672,0.015,2.468
	c-0.313,0.791-0.932,1.415-1.723,1.753l-17.489,7.43c-0.796,0.332-1.673,0.337-2.469,0.02c-0.796-0.322-1.415-0.932-1.753-1.728
	l-2.146-5.052c-0.333-0.791-0.342-1.667-0.025-2.463c0.328-0.796,0.932-1.426,1.728-1.753L455.404,389.155z M437.452,395.512
	c-1.073,0.459-1.914,1.31-2.342,2.393c-0.443,1.083-0.433,2.277,0.025,3.355l2.146,5.052c0.453,1.083,1.305,1.914,2.393,2.357
	c1.083,0.438,2.277,0.423,3.354-0.03l17.494-7.43c2.222-0.947,3.264-3.516,2.312-5.752l-2.141-5.047
	c-0.942-2.231-3.525-3.269-5.742-2.322L437.452,395.512z"/>
<path fill="#FFFFFF" d="M412.316,325.759c3.405-8.437,13.011-12.512,21.443-9.107c1.939,0.786,3.632,1.889,5.072,3.229
	c-1.683-3.743-4.745-6.866-8.855-8.528c-8.432-3.405-18.033,0.675-21.443,9.112c-2.629,6.503-0.801,13.691,4.035,18.214
	C410.795,334.725,410.569,330.09,412.316,325.759z"/>
<path fill="#FFFFFF" d="M418.447,339.047c3.269-8.079,12.457-11.984,20.536-8.72c1.853,0.746,3.476,1.814,4.856,3.093
	c-1.612-3.582-4.549-6.578-8.483-8.166c-8.074-3.264-17.272,0.645-20.526,8.714c-2.518,6.226-0.775,13.112,3.864,17.439
	C416.991,347.635,416.78,343.187,418.447,339.047z"/>
<path fill="#FFFFFF" d="M423.841,351.74c3.128-7.772,11.978-11.525,19.741-8.387c1.783,0.726,3.344,1.743,4.664,2.977
	c-1.542-3.451-4.367-6.322-8.145-7.858c-7.778-3.133-16.608,0.62-19.756,8.387c-2.418,5.989-0.73,12.608,3.723,16.769
	C422.431,360.001,422.224,355.73,423.841,351.74z"/>
<path fill="#231F20" d="M455.918,402.72c-3.44,8.341-7.671,16.416-12.24,24.183c-7.263,12.351-16.295,25.714-29.145,32.761
	c-14.26,7.818-28.036-1.35-35.396-14.078c-6.905-11.948-3.344-25.76,7.279-33.769c11.218-8.447,25.9-12.497,39.345-15.736
	c7.923-1.904,15.998-3.486,24.092-4.468c0.352-0.051,1.002,6.896,0.312,6.971c-10.366,1.269-20.692,3.461-30.761,6.181
	c-13.943,3.768-32.988,9.318-40.806,22.677c-2.12,3.632-2.211,5.122-1.173,8.014c1.647,4.568,4.881,8.573,8.196,12.028
	c4.916,5.123,11.364,8.609,18.582,8.256c14.149-0.695,25.22-15.026,32.6-25.558c7.394-10.563,13.716-22.254,18.627-34.192
	C455.046,396.933,456.668,400.897,455.918,402.72z"/>
</svg>
