<?xml version="1.0" encoding="utf-8"?>
<!-- Generator: Adobe Illustrator 17.0.0, SVG Export Plug-In . SVG Version: 6.00 Build 0)  -->
<!DOCTYPE svg PUBLIC "-//W3C//DTD SVG 1.1//EN" "http://www.w3.org/Graphics/SVG/1.1/DTD/svg11.dtd">
<svg version="1.1" id="Layer_1" xmlns="http://www.w3.org/2000/svg" xmlns:xlink="http://www.w3.org/1999/xlink" x="0px" y="0px"
	 width="355px" height="402px" viewBox="0 0 355 402" enable-background="new 0 0 355 402" xml:space="preserve">
<g>
	<path fill="#09080B" d="M133.917,312.697c-0.649,2.818-0.975,4.877-2.385,7.261c-1.407,2.384-2.275,3.688-3.901,5.419
		c-1.625,1.735-4.333,4.877-3.144,7.694c0,0-0.866,0.653-0.759,1.519c0.109,0.869,0.436,2.602,5.744,3.036
		c5.311,0.432,12.141-1.301,13.441-5.202c1.3-3.902,0.65-4.121,1.519-4.878c0,0,1.082-0.433,2.707-1.082
		c1.625-0.65,2.928-2.817,3.036-4.877c0.108-2.059-1.735-4.12,0.325-8.889H133.917z"/>
	<path fill="#09080B" d="M183.018,309.663c0,0-0.655,3.684-0.655,6.284c0,2.605-0.433,4.662,0.329,5.853
		c0.757,1.192,0.651,1.192,0.542,3.361c-0.113,2.168-0.871,4.12,1.842,6.612c2.71,2.488,4.55,2.601,8.884,2.488
		c4.337-0.104,8.02-3.246,8.239-5.74c0.219-2.495-0.976-3.035-0.976-3.035s0.325-1.735-1.191-3.9
		c-1.518-2.169-2.929-4.986-2.929-6.721c0-1.734,0.437-6.721,0.437-6.721L183.018,309.663z"/>
	<path fill="#252027" d="M160.824,161.071c-3.933,13.725-7.417,26.152-8.7,35.009c-1.298,8.996-1.841,11.161-2.273,14.196
		c-0.437,3.035-0.435,2.061-0.326,4.12c0.109,2.06-0.22,2.06-0.651,4.661c-0.434,2.601-0.867,3.682-0.434,6.934
		c0.434,3.253,0.434,4.012-0.433,6.937c-0.868,2.927-1.626,4.877-1.84,6.938c-0.218,2.06-0.653,2.817-1.953,5.528
		c-1.3,2.708-2.818,3.469-3.143,8.347c-0.324,4.874-0.65,11.161-1.627,15.603c-0.974,4.443-1.733,11.921-1.95,15.392
		c-0.218,3.466-0.648,3.575,0.217,8.344c0,0-0.866,1.624-2.928,2.925c-2.057,1.303-3.466,3.362-2.493,5.746
		c0.978,2.382,0.978,3.793,0.651,4.55c-0.326,0.761-0.326,0,0.214,1.411c0.546,1.409,0.33,0.541-0.104,2.925
		c-0.437,2.384-0.326,3.794-0.762,4.336c-0.434,0.542-1.082,0.974,0.436,2.386c0,0,0.43-1.085,2.49-0.326
		c2.06,0.757,2.601,0.215,4.552-0.761c1.951-0.974,4.228-1.516,6.398-1.19c2.165,0.325,3.574,0.976,3.574,0.976
		s0.542-0.327,0.652-0.976c0.106-0.651-0.11-1.087,0.647-1.304c0.759-0.216,0.871-0.866,0.871-1.519c0-0.645-0.433-0.433,0.435-1.19
		c0.861-0.758,0.104-1.624,0.104-1.624s0.977-0.544,0.977-1.627c0-1.082-0.109-1.303,0.65-2.06c0.759-0.757,1.083-2.275,0.541-2.926
		c-0.541-0.65-0.758-3.034,0.219-4.444c0.976-1.408,1.191-1.626,0.868-2.494c-0.326-0.864,0.539-4.767,1.839-8.452
		c1.303-3.686,2.71-8.996,3.47-13.551c0.756-4.55,2.384-10.187,4.01-15.17c1.628-4.983,2.602-11.706,4.011-18.751
		c0,0,1.52-2.6,4.119-7.261c2.601-4.661,4.446-9.972,6.612-16.583c1.483-4.528,3.375-13.992,6.791-20.899
		c0.386,2.034,0.643,3.598,0.577,6.052c-0.107,4.011-0.325,10.295,0.544,16.148c0.867,5.852,0.216,6.721,0.867,11.053
		c0.648,4.336,0.43,5.204,0.215,6.939c-0.215,1.734-0.433,2.275,0.215,5.742c0.65,3.471,0.871,4.554,0.871,6.721
		c0,2.17,0.435,2.818,0.435,3.144c0,0.324,0,1.515-0.871,3.359c-0.865,1.843-1.516,3.578-1.191,5.418
		c0.327,1.843-0.109,2.713-0.109,4.552c0,1.843-1.189,5.854-0.543,13.442c0,0-0.433,1.838-1.298,3.683
		c-0.866,1.844-1.301,4.444-1.412,6.286c-0.107,1.845-0.216,2.058-0.866,3.252c-0.647,1.194-2.277,1.735-1.735,7.804
		c0,0-1.624,0.107-3.032,3.036c-1.412,2.923-1.52,3.467-1.412,4.116c0.11,0.65-0.648,0.763-0.648,1.628c0,0.866,0,2.493,1.734,4.012
		c1.733,1.516,3.466,3.034,3.466,3.034s1.627-2.277,6.288-2.494c4.661-0.216,6.721-1.193,8.998-1.843
		c2.278-0.652,4.769-3.25,3.358-6.18c0,0,1.08-0.215,2.71-6.177c1.626-5.958,3.575-13.764,4.336-22.975
		c0.759-9.214,0.865-19.941,1.299-21.894c0.432-1.951,0.868-4.878,0.975-10.189c0.109-5.309,2.275-14.848,3.684-21.565
		c1.41-6.723,3.255-15.932,3.363-22.869c0.09-5.967-0.293-30.611-0.409-37.394H160.824z"/>
	<path fill="#4C4A57" d="M189.384,64.554c-4.597,0.149-6.894-0.073-8.152,1.411c-1.259,1.482-2.596,2.073-3.115,2.963
		c0,0-3.038,0.74-7.115,1.926c-4.075,1.187-14.97,3.78-15.119,4.744c0,0-2.223,0.815-2.743,3.631
		c-0.517,2.815-1.704,3.779-1.63,5.483c0.076,1.705-0.59,3.484-1.481,5.781c-0.889,2.298-2.52,5.04-1.927,9.042
		c0.593,4.003-0.075,5.262,0.227,8.595c0.292,3.338-0.67,12.674-0.746,16.677c-0.074,4.001,0.149,6.892,1.261,11.041
		c1.112,4.151,3.111,11.116,6.669,18.897c0,0-2.075,4.298-3.78,16.749c-1.704,12.451-1.332,17.057-1.037,22.684
		c0.295,5.627-0.446,6.886,1.183,7.849c1.633,0.962,5.264,3.112,9.268-0.148c4.002-3.261,9.557-13.267,13.485-21.937
		c0,0,5.265-1.409,10.821-6.152l9.41-0.74c0,0,3.485,7.854,7.115,16.748c3.629,8.894,7.709,16.675,10.378,17.415
		c2.663,0.742,4.297-0.666,7.257-1.852c2.965-1.186,3.932-0.963,5.042-3.483c1.11-2.52,2.148-4.224,1.927-6.003
		c-0.222-1.779-0.37-3.259-0.222-4.372c0.146-1.113-0.002-3.632-0.297-4.52c-0.298-0.89,0.149-7.117-0.147-12.672
		c-0.299-5.558-1.189-14.006-1.854-19.489c0,0,2.893-3.337,4.816-7.711c1.926-4.373,2.148-5.704,2.742-6.668
		c0.592-0.963,1.038-2.001,1.109-3.039c0.08-1.037,0.595-2.964,1.34-4.296c0.738-1.334,1.479-1.557,0.959-6.3
		c-0.517-4.743-0.44-8.97-0.44-11.487c0-2.518-0.45-4.818-0.52-6.744c-0.077-1.928-0.523-4.447-0.892-6.225
		c-0.368-1.778-0.669-3.853-0.669-5.336c0-1.482-0.666-4.596-1.106-6.078c-0.446-1.482-0.746-3.855-1.116-6.595
		c-0.371-2.743-0.888-5.041-2.596-4.892c0,0-0.514-0.668-2.743-1.706c-2.22-1.037-7.776-3.408-11.707-4.742
		c-3.929-1.334-8.152-2.814-8.152-2.814s-1.333-1.708-2.446-2.523c-1.11-0.814-0.964-4.295-8.74-3.779L189.384,64.554z"/>
	<path fill="#E5E9EE" d="M185.898,64.26c-2.374,0.443-4.594,0.37-4.445,5.04c0.146,4.669,0.22,8.596,0.22,11.856
		c0,3.261,0.148,8.004,0.746,16.97c0.59,8.97,1.034,14.896,1.406,18.306c0.369,3.41,1.034,16.75,0.59,24.826
		c-0.443,8.08-1.629,15.413-1.629,15.413s3.707,5.633,4.521,7.562c0.816,1.928,3.115,1.703,2.814,0.519
		c-0.294-1.187-0.738-1.558,1.41-3.706c2.148-2.15,4.15-4.15,4.15-4.15s-0.891-3.483-1.705-6.744
		c-0.817-3.262-0.52-7.707-0.52-11.561s0.666-7.114,1.628-15.266c0.964-8.154,2.229-18.008,3.486-27.939
		c1.26-9.932,1.85-12.896,2.074-16.75c0.225-3.853,0.742-6.299,0.593-8.67c-0.146-2.372,0.814-5.635-4.816-6.15
		C190.79,63.297,185.898,64.26,185.898,64.26z"/>
	<path fill="#2B2F4A" d="M195.682,156.896c0,0-0.891-3.483-1.705-6.744c-0.513-2.051-0.586-4.574-0.568-7.122
		c-0.775-9.274-0.342-23.507-0.395-30.599c-0.075-10.004-0.519-12.376-1.114-18.674c-0.589-6.3-0.589-9.339-0.589-9.339
		c0.668-0.444,1.038-2.223,1.038-2.223c-0.966-1.039-1.706-2.594-1.706-2.594c-1.334,0.888-2.814,0.519-2.814,0.519l-2.003,1.925
		c0.964,0.89,1.185,1.708,1.113,2.671c-0.076,0.963,0.443,1.259,0.443,1.259c-1.406,3.705-2.74,12.08-3.035,17.415
		c-0.182,3.247-0.473,7.922-0.605,12.236c0.029,0.281,0.056,0.553,0.086,0.806c0.369,3.41,1.034,16.75,0.59,24.826
		c-0.443,8.08-1.629,15.413-1.629,15.413s3.707,5.633,4.521,7.562c0.816,1.928,3.115,1.703,2.814,0.519
		c-0.294-1.187-0.738-1.558,1.41-3.706C193.68,158.896,195.682,156.896,195.682,156.896z"/>
	<path fill="#C1955A" d="M199.393,182.883c-0.036-1.152-1.332-5.299-2.111-7.449c-0.776-2.149-12.597-8.522-12.597-8.522
		s-6.521,4.002-6.447,5.003c0,0,1.628,2.223,2.148,3.78c0.497,1.487,2.35,5.146,4.102,7.018c0.5,2.35,1.19,4.752,2.531,4.653
		c0.857-0.066,1.292-0.17,1.496-0.503c0.37,0.851,0.844,1.697,1.989,1.612c1.522-0.112,1.855-1.368,1.855-1.368
		s0.328,0.959,1.665,0.888c1.333-0.076,2.077-1.633,1.891-3.001c0,0,0.555,0.886,1.78,0.702
		C198.915,185.514,199.431,184.031,199.393,182.883z"/>
	<path fill="#DCAD6E" d="M182.535,168.802c0,0-0.964,0.739-1.775,0.963c0,0-1.039,1.075-3.52,1.222
		c-2.486,0.148-4.483-0.63-3.891-2.333c0,0-0.482-0.706,2.892-0.927c0,0,0.701-0.371,0.999-0.667
		c0.297-0.297,0.887-0.778,1.333-0.741c0.447,0.036,2.409-1.112,3.334-1.89c0.93-0.778,1.596-1.186,2.334-1.037
		c0.74,0.147,2.777,0.184,3.816-0.149c1.038-0.332,3.187-0.479,5.224,1.003c2.037,1.481,4.816,4.704,5.522,5.854
		c0.705,1.147,0.816,1.815,0.816,1.815s-0.852,0.889-1.038,1.964c-0.186,1.075-0.888,2.925-2.778,4.594
		c-1.891,1.667-3.483,3.373-4.632,4.446c-1.15,1.076-2.262,2.185-2.52,2.558c-0.261,0.37-1.149,0.886-1.929,0.962
		c-0.776,0.073-1.702,0.185-2.147-0.077c-0.444-0.259-1.632-0.11-1.738-0.886c0,0-0.224-0.521,0.59-1.001
		c0,0-1.429,0.738-2.325-0.445c-0.898-1.185,0-2.26,0-2.26s-1.235,0.704-2.379-0.741c-1.15-1.445,0.184-2.519,0.184-2.519
		s-1.259,0.258-1.889-1.298c-0.633-1.555,0.036-2.223,0.59-2.557c0.557-0.332,1.188-0.927,1.518-1.482
		c0.336-0.556,0.67-0.593,1.19-1.075c0.517-0.482,0.701-0.852,1.332-1.444C182.277,170.061,182.429,170.1,182.535,168.802z"/>
	<path fill="#C1955A" d="M180.785,59.372c0.824,2.982,1.11,4.371,1.334,6.666c0.222,2.298,0.592,4.67,2.74,7.485
		c2.149,2.816,3.409,4.299,5.335,4.818c0,0,0,0.296,1.261-0.741c1.261-1.038,2.521-1.558,4.52-3.409
		c2.003-1.853,4.151-4.372,4.446-7.708c0.297-3.334,0.89-6.594,1.631-9.558c0.744-2.966-3.185-4.819-10.375-3.633
		C184.489,54.478,179.82,55.886,180.785,59.372z"/>
	<path fill="#DCAD6E" d="M206.128,46.546c-0.153-1.043-0.894-1.337-1.786-1.216c0.143-0.917,0.28-1.739,0.379-2.414
		c0.446-2.89,0-7.114-1.702-8.967c-1.706-1.854-5.189-4.892-7.413-5.633c-2.224-0.74-5.335-1.702-9.414,0.297
		c-4.072,2.001-6.372,2.519-7.332,4.891c-1.123,2.769-2.003,5.484-1.559,9.19c0.098,0.801,0.217,1.612,0.349,2.421
		c-0.726,0.404-1.196,1.052-1.237,2.025c-0.075,1.853-0.151,2.816-0.372,3.558c-0.218,0.742-0.147,0.592-0.072,1.186
		c0.072,0.592-0.372,1.63,0.293,2.444c0.531,0.646,1.288,1.892,2.464,1.028c0.057,2.665,0.35,5.476,1.837,6.903
		c1.851,1.777,2.744,2.444,3.853,3.408c1.112,0.964,3.926,1.481,5.633,1.481c1.705,0,5.487-0.371,7.635-2.371
		c2.144-2.002,2.371-2.37,3.183-3.113c0.814-0.737,1.846-2.803,2.148-6.486c1.422,1.39,2.27-0.505,2.671-0.851
		c0.515-0.443,0.59-1.037,0.441-2.296c-0.143-1.26-0.073-1.26,0.225-2.372C206.65,48.548,206.424,48.548,206.128,46.546z"/>
	<path fill="#8D766D" d="M206.863,45.377c-0.068-0.008-0.133-0.008-0.202-0.028c-0.206-0.35-0.175-0.76-0.148-1.167
		c0.194,0.087,0.364,0.052,0.573,0.052c-0.415-0.285-0.391-0.716-0.497-1.163c0.146,0.069,0.296,0.084,0.442,0.14
		c-0.403-0.091-0.336-1.463-0.285-2.631c0.113-0.348,0.194-0.703,0.198-1.073c0.009-0.568-0.103-1.102-0.227-1.627
		c-0.056-0.246-0.204-0.448-0.271-0.689c-0.11-0.358-0.035-0.36-0.022-0.723c0.054-1.034-0.721-2.068-1.276-2.885
		c-0.583-0.861-1.285-1.964-2.295-2.287c-0.617-0.195-1.249-0.325-1.884-0.445c-0.173-0.334-0.396-0.626-0.624-0.813
		c-0.743-0.61-1.443-1.151-2.128-1.873c-1.389-1.458-3.195-2.492-5.029-3.113c0.138,0.139,0.226,0.319,0.257,0.515
		c-0.794-0.548-2.274-0.765-3.249-0.732c-0.604,0.019-1.131,0.159-1.7,0.368c-0.643,0.233-1.092,0.257-1.775,0.313
		c0.215,0.231,0.612,0.347,0.936,0.355c-1.625,0-3.065,0.299-4.577,0.89c-1.903,0.745-3.102,2.129-4.564,3.474
		c0.277-0.101,0.558-0.185,0.837-0.293c-0.618,0.368-1.445,1.011-1.807,1.579c-0.443,0.686-1.238,1.715-1.418,2.491
		c0.238-0.002,0.442-0.117,0.628-0.291c-0.311,0.363-0.493,0.83-0.686,1.257c0.082-0.021,0.188-0.007,0.273-0.035
		c-0.025,0.954-0.648,1.941-0.431,2.845c0.012,0.064,0.029,0.133,0.04,0.204c-0.346,0.381-0.753,0.718-1.07,1.134
		c0.284,0.044,0.56-0.12,0.777-0.274c-0.164,0.205-0.347,0.491-0.422,0.719c0.229-0.075,0.479-0.276,0.741-0.403
		c-0.696,0.77-0.097,3.18,0.08,4.104c0.208,1.075,0.686,2.845-0.289,3.724c0.32-0.018,0.621-0.219,0.834-0.455
		c-0.252,0.293-0.486,0.677-0.63,1.03c0.333,0.012,0.593-0.259,0.831-0.494c0.346,0.366,0.537,1.197,0.724,1.692
		c0.115,0.313,0.158,0.68,0.27,0.982c0.134,0.34,0.482,0.585,0.542,0.925c0-0.535-0.007-1.019-0.155-1.506
		c0.08,0.078,0.155,0.116,0.217,0.188c-0.097-1.272-0.674-2.095-0.268-3.386c0.37-1.18-0.021-2.319-0.163-3.5
		c-0.118-0.935-0.11-1.936-0.013-2.946c0.086-0.384,0.155-0.736,0.231-0.987c0.401-1.349,1.167-2.545,1.984-3.718
		c0.986-1.413,2.18-2.548,3.579-3.46c-0.297,0.391-0.557,0.8-0.677,1.154c0.313-0.288,0.717-0.636,1.114-0.778
		c-0.29,0.514-0.648,1.062-0.665,1.67c0.537-1.555,2.083-1.938,3.484-1.679c1.141,0.212,2.151-0.371,3.335-0.374
		c0.575,0,1.188,0.024,1.707,0.222c0.542,0.205,0.785,0.737,1.331,0.817c0.702,0.103,1.212-0.381,1.852-0.505
		c0.617-0.119,1.225,0.069,1.784,0.208c0.666,0.167,1.381,0.29,2.108,0.345c0.113,0.21,0.244,0.419,0.391,0.621
		c0.588,0.824,1.245,1.538,1.922,2.313c0.684,0.777,1.407,1.727,1.598,2.709c0.221,1.171-0.474,1.957-0.61,3.053
		c-0.118,0.905,0.272,1.585,0.592,2.377c0.325,0.806,0.116,1.465,0.217,2.292c0.093,0.715-0.048,1.561-0.277,2.24
		c-0.229,0.691-0.384,1.688-0.073,2.407c0.227-0.625,0.275-1.313,0.588-1.891c0.486-0.115,0.888,0.199,1.365-0.086
		c-0.266-0.256-0.319-0.692-0.326-1.027c0.225-0.037,0.424-0.093,0.646-0.175c-0.19-0.206-0.311-0.517-0.378-0.871
		c0.203,0.1,0.45,0.128,0.751,0.057c-0.102-0.117-0.122-0.278-0.212-0.403c0.342,0.091,0.963,0.147,1.172-0.16
		c-0.195-0.078-0.288-0.249-0.28-0.453C206.441,45.553,206.703,45.533,206.863,45.377z"/>
</g>
</svg>
