<?xml version="1.0" encoding="utf-8"?>
<!-- Generator: Adobe Illustrator 17.0.0, SVG Export Plug-In . SVG Version: 6.00 Build 0)  -->
<!DOCTYPE svg PUBLIC "-//W3C//DTD SVG 1.1//EN" "http://www.w3.org/Graphics/SVG/1.1/DTD/svg11.dtd">
<svg version="1.1" id="Layer_1" xmlns="http://www.w3.org/2000/svg" xmlns:xlink="http://www.w3.org/1999/xlink" x="0px" y="0px"
	 width="800px" height="600px" viewBox="0 0 800 600" enable-background="new 0 0 800 600" xml:space="preserve">
<g>
	<path fill="#120E0F" d="M504.983,349.533c-0.088-2.972-1.071-5.946-1.708-8.832c-1.352-6.133-2.705-12.267-4.058-18.4
		c-0.674-3.058-1.142-6.26-2.084-9.251c-0.431-1.368-0.966-2.703-1.519-4.026c-0.918-2.199-1.824-4.824-3.404-6.639
		c-1.846-2.12-4.28-4.399-7.251-3.145c-4.049,1.709-8.848,1.948-12.73,4.03c-2.485,1.333-1.592,4.023-1.073,6.089
		c0.646,2.575,1.292,5.15,1.938,7.725c-0.015,0.004-0.03,0.008-0.046,0.012c-0.285,0.073-0.362,0.315-0.276,0.574
		c-1.988,0.483-4.047,1.162-4.697,3.32c-0.188,0.625-0.077,0.515-0.8,0.679c-0.616,0.14-1.233,0.28-1.849,0.42
		c-0.58-0.493-1.189-0.936-1.771-1.314c-1.034-0.674-1.956-0.518-2.671,0.04c-0.231,0.165-0.466,0.387-0.588,0.599
		c-0.384,0.506-0.663,1.135-0.811,1.767c-0.649-0.503-1.336-0.938-2.039-1.266c-0.883-0.413-1.743-0.374-2.455-0.042
		c0,0-0.244,0.07-0.495,0.292c-0.764,0.569-1.256,1.522-1.253,2.601c-0.805-0.619-1.669-1.153-2.622-1.498
		c-1.886-0.683-3.638,0.704-3.706,2.564c-0.612-0.458-1.254-0.854-1.905-1.141c-0.86-0.379-1.709-0.312-2.395,0.039
		c-1.088,0.686-1.459,1.604-1.474,2.384c-0.547-0.435-1.112-0.817-1.679-1.098c-0.84-0.416-1.614-0.469-2.263-0.254
		c-1.165,0.421-1.772,1.808-1.871,2.631c-0.798-0.626-1.656-1.14-2.536-1.432c-2.141-0.71-3.517,1.231-3.602,3.105
		c-0.57-0.455-1.163-0.866-1.762-1.2c-2.069-1.157-3.581,0.413-4.319,2.255c-0.545-0.447-1.111-0.841-1.674-1.132
		c-0.879-0.455-1.727-0.399-2.403-0.024c-1.209,0.919-1.455,1.693-1.45,2.674c-0.836-0.618-1.749-1.102-2.741-1.305
		c-1.831-0.374-3.648,0.929-3.642,2.701c-0.546-0.403-1.123-0.733-1.721-0.942c-0.807-0.282-1.499-0.129-2.043,0.266
		c-0.045,0.03-0.107,0.111-0.182,0.148c-0.609,0.536-1.003,1.385-1.122,2.226c-0.018,0.128-0.068,0.236-0.13,0.336
		c-0.782,0.429-1.354,1.023-1.494,1.159c-0.63,0.614-0.985,1.499-1.224,2.326c-0.521,1.797-0.35,3.874-0.22,5.71
		c0.323,4.575,1.438,9.313,3.289,13.512c0.98,2.222,3.118,5.005,5.67,5.378c0.1,0.082,0.199,0.161,0.294,0.234
		c0.091,0.07,0.695,0.467,1.259,0.7c0.445,0.35,0.895,0.662,1.318,0.926c1.75,1.094,2.831-0.501,3.153-2.063
		c0.517,0.409,1.045,0.743,1.535,0.953c2.085,0.893,3.651-0.725,3.592-2.664c0.734,0.577,1.515,1.065,2.318,1.391
		c0.719,0.292,1.875-0.061,2.621-0.429c0.638-0.544,1.087-1.371,1.255-2.226c0.546,0.437,1.107,0.804,1.643,1.057
		c1.937,0.912,3.652-0.211,3.95-2.043c0.56,0.443,1.134,0.811,1.67,1.052c2.353,1.063,4.04-0.608,4.409-2.758
		c0.658,0.539,1.352,1.009,2.028,1.378c1.881,1.023,3.538-0.64,3.788-2.403c0.459,0.353,0.922,0.659,1.355,0.897
		c1.077,0.593,3.502,1.025,4.508-2.149c0.829,0.668,1.719,1.146,2.536,1.198c1.836,0.117,3.025-1.18,3.252-2.814
		c0.489,0.382,0.984,0.721,1.448,1.001c2.183,1.314,3.931-0.346,4.268-2.39c0.712,0.561,1.46,1.025,2.165,1.327
		c2.317,0.992,4.033-1.033,4.214-3.114c0.762,0.614,1.583,1.124,2.414,1.462c0.966,0.393,3.043,0.106,3.977-2.518
		c0.667,0.804,2.026,2.359,2.604,2.19c0.452-0.132,0.901-0.271,1.349-0.413c0.426,1.12,0.851,2.24,1.277,3.359
		c0.313,0.824,0.626,1.648,0.94,2.471c0.681,1.791,1.443,2.904,2.881,4.212c1.335,1.214,2.782,2.399,4.65,2.005
		c2.738-0.578,5.476-1.156,8.214-1.734c1.127-0.238,2.254-0.476,3.381-0.714c1.017-0.215,1.25-0.947,1.617-1.923
		C505.174,356.505,505.079,352.8,504.983,349.533z M501.856,351.703c-0.027,0.417-0.055,0.981-0.107,1.609
		c-0.584-2.165-1.168-4.331-1.752-6.496c-0.002-0.027-0.004-0.053-0.003-0.081c0.003-0.37,0.006-0.74,0.009-1.109
		c0.011-1.358,0.022-2.717,0.034-4.075c0.012-1.45,0.024-2.9,0.036-4.35c0.3,1.362,0.601,2.724,0.901,4.086
		C501.795,345.009,502.115,347.765,501.856,351.703z M495.669,343.87c-4.023,1.107-8.045,2.214-12.068,3.322
		c-0.548-9.043-3.02-18.255-6.679-26.445c4.665-1.202,9.329-2.404,13.994-3.607c0.327,0.559,0.66,1.098,0.915,1.599
		c1.348,2.637,2.696,5.275,4.044,7.912c0.147,0.288,0.295,0.577,0.442,0.865c-0.006,0.685-0.011,1.369-0.017,2.053
		c-0.026,3.072-0.051,6.144-0.076,9.215c-0.014,1.706-0.028,3.411-0.042,5.117C495.993,343.845,495.818,343.829,495.669,343.87z
		 M499.997,346.817C500.114,347.257,500.015,347.077,499.997,346.817L499.997,346.817z M494.31,311.07
		c0.877,3.975,1.753,7.95,2.63,11.925c-0.347-0.678-0.694-1.357-1.04-2.035c-0.604-1.182-1.208-2.364-1.812-3.545
		c-0.178-0.348-0.355-0.695-0.533-1.043c-0.022-0.043-0.04-0.077-0.056-0.106c-0.319-2.4-0.637-4.801-0.955-7.202
		c-0.18-1.355-0.359-2.709-0.539-4.064c0.051,0.116,0.103,0.234,0.155,0.35C492.969,307.168,493.878,309.11,494.31,311.07z
		 M474.524,313.42c-0.474-1.89-1.313-3.685-0.713-5.528c0.738-2.271,3.936-2.679,5.9-3.278c2.632-0.802,5.264-1.605,7.895-2.407
		c0.159-0.048,0.314-0.1,0.47-0.152c0.478,3.6,0.955,7.2,1.433,10.8c-0.004,0.001-0.009,0.001-0.014,0.002
		c-4.732,1.219-9.463,2.439-14.194,3.658C475.042,315.484,474.783,314.452,474.524,313.42z M453.134,325.982
		c0.768,0.083,2.82,0.671,3.167,1.715c2.404,7.544,5.213,15.082,9.046,21.923c0.29,0.517,0.693,0.992,1.134,1.432
		c-0.651,0.521-1.6,0.654-2.394,0.566c-0.314-0.39-0.763-0.747-1.079-1.043c-0.121-0.113-1.67-1.228-1.671-1.261
		c0.017,0.573-0.055,1.139-0.226,1.673c-3.91-7.418-6.871-15.541-8.624-23.684c-0.084-0.391-0.388-0.799-0.757-1.179
		C452.182,325.97,452.683,325.933,453.134,325.982z M437.182,330.782c0.02,0.017,0.172,0.13,0.363,0.269
		c2.342,8.429,5.459,16.991,10.323,24.086c0.101,0.147,0.208,0.292,0.318,0.436c-0.487,0.206-1.066,0.232-1.603,0.149
		c-0.309-0.351-0.72-0.676-0.996-0.933c-0.158-0.147-1.655-1.157-1.671-1.261c0.12,0.794-0.022,1.584-0.414,2.268
		c-4.177-7.65-7.182-16.159-9.039-24.613c-0.074-0.335-0.399-0.712-0.778-1.067c0.209-0.123,0.435-0.224,0.666-0.31
		C435.609,329.337,436.602,330.271,437.182,330.782z M429.998,331.495c0.345,0.358,0.722,0.693,1.082,1.01
		c0.076,0.066,1.261,0.884,1.261,0.89c0-0.005,0-0.01,0-0.015c2.186,7.917,5.384,15.718,9.621,22.647
		c0.154,0.251,0.34,0.488,0.541,0.716c-0.489,0.228-1.061,0.304-1.575,0.26c-0.316-0.395-0.746-0.75-1.084-1.065
		c-0.109-0.102-1.671-1.256-1.671-1.261c-0.013,0.564-0.11,1.121-0.29,1.648c-2.554-4.169-4.209-9.018-5.773-13.556
		c-1.197-3.471-2.298-6.988-3.239-10.539c-0.08-0.303-0.214-0.596-0.385-0.876c0.147-0.042,0.302-0.072,0.467-0.089
		C429.321,331.278,429.668,331.357,429.998,331.495z M423.956,332.595c0.653,0.596,1.531,1.353,1.927,1.662
		c0.701,2.311,1.452,4.607,2.245,6.885c2.042,5.866,4.294,12.136,8.126,17.104c0.017,0.022,0.035,0.044,0.052,0.066
		c-0.47,0.191-1.004,0.239-1.508,0.194c-0.315-0.39-0.773-0.75-1.081-1.038c-0.14-0.13-1.664-1.19-1.671-1.261
		c0.067,0.694-0.056,1.371-0.344,1.995c-4.363-7.896-7.511-16.686-9.602-25.413c0.246-0.136,0.513-0.239,0.777-0.322
		C423.255,332.407,423.615,332.452,423.956,332.595z M406.145,347.058c-0.095-1.759-0.114-3.658,0.521-5.292
		c1.887,6.361,3.184,12.975,3.649,19.535c-0.291,0.054-0.583,0.079-0.88,0.078c-0.453-0.998-0.809-2.047-1.149-3.08
		C407.093,354.676,406.351,350.863,406.145,347.058z M414.62,362.604c-0.03,0.054-0.066,0.099-0.1,0.147
		c-0.446-4.787-1.291-9.584-2.473-14.284c1.575,4.365,3.415,8.677,5.96,12.522c0.252,0.381,0.561,0.743,0.896,1.089
		c-0.302,0.133-0.637,0.201-0.97,0.213c-0.318-0.379-0.788-0.741-1.061-0.995c-0.122-0.114-1.67-1.227-1.671-1.261
		C415.23,360.934,415.055,361.815,414.62,362.604z M421.439,359.776c-0.103-0.091-1.299-1.054-1.246-0.796
		c0.135,0.658,0.061,1.318-0.199,1.908c-2.193-4.179-3.747-8.769-5.226-13.184c-1.171-3.496-2.252-7.033-3.183-10.6
		c-0.091-0.348-0.361-0.716-0.7-1.072c0.004-0.002,0.008-0.004,0.012-0.005c0.292-0.119,0.601-0.159,0.912-0.181
		c0.478-0.034,0.702,0.091,0.847,0.281c0.167,0.152,0.336,0.302,0.501,0.447c0.095,0.084,1.129,0.898,1.237,0.83
		c2.207,8.181,5.36,16.321,9.812,23.434c-0.066,0.021-0.132,0.041-0.199,0.06C422.639,361.278,422.021,360.288,421.439,359.776z
		 M429.139,359.547c-0.301-0.343-0.676-0.654-0.972-0.93c-0.117-0.109-1.671-1.237-1.671-1.261c0.008,0.629-0.13,1.238-0.385,1.8
		c-4.199-7.451-6.94-15.997-8.806-24.253c-0.057-0.254-0.166-0.501-0.3-0.741c0.43-0.051,0.858-0.023,1.284,0.095
		c0.44,0.09,0.778,0.279,1.185,0.593c0.034,0.026,0.27,0.196,0.53,0.378c2.386,8.415,5.777,16.719,10.262,24.138
		c0.008,0.013,0.017,0.026,0.025,0.038c-0.116,0.039-0.233,0.074-0.35,0.104C429.597,359.598,429.333,359.589,429.139,359.547z
		 M452.758,354.392c-0.092-0.015-0.183-0.029-0.275-0.043c-0.303-0.336-0.685-0.644-0.961-0.901
		c-0.123-0.115-1.67-1.224-1.671-1.261c0.018,0.489-0.036,0.973-0.165,1.432c-2.285-4.289-3.954-8.966-5.473-13.521
		c-1.136-3.406-2.179-6.859-3.041-10.345c-0.108-0.439-0.348-0.863-0.652-1.263c0.119-0.025,0.239-0.047,0.356-0.065
		c0.392-0.01,0.765,0.062,1.121,0.211c0.343,0.354,0.717,0.685,1.073,0.999c0.029,0.025,0.147,0.122,0.298,0.24
		c0.642,2.243,1.334,4.473,2.07,6.682c1.945,5.837,4.186,12.071,8.326,16.745c0.166,0.187,0.339,0.377,0.517,0.566
		c-0.192,0.128-0.399,0.239-0.611,0.338C453.376,354.317,453.072,354.38,452.758,354.392z M458.329,352.928
		c-0.315-0.382-0.771-0.738-1.064-1.012c-0.133-0.124-1.667-1.204-1.671-1.261c0.05,0.685-0.086,1.352-0.341,1.981
		c-0.835-1.43-1.509-2.997-2.145-4.455c-1.256-2.877-2.298-5.847-3.27-8.83c-1.141-3.502-2.174-7.054-3.036-10.636
		c-0.102-0.423-0.383-0.85-0.738-1.258c0.02-0.007,0.04-0.015,0.06-0.022c1.429-0.516,2.111,0.254,2.688,0.762
		c0.057,0.05,0.682,0.48,1.03,0.723c2.201,8,5.52,15.832,9.686,22.91c0.153,0.26,0.338,0.51,0.541,0.751
		C459.577,352.908,458.927,352.989,458.329,352.928z M470.666,349.965c-0.334-0.09-0.719-0.598-1.34-1.112
		c-0.151-0.125-1.663-1.184-1.671-1.261c0.062,0.576,0.02,1.153-0.129,1.699c-3.71-7.607-6.386-15.861-8.781-23.908
		c-0.074-0.249-0.223-0.501-0.417-0.75c0.072-0.024,0.143-0.048,0.215-0.069c1.344-0.401,2.656,0.06,3.149,1.038
		c0.678,2.106,1.386,4.203,2.12,6.289c1.957,5.565,3.962,11.716,7.555,16.48c0.326,0.431,0.681,0.844,1.054,1.243
		c-0.221,0.152-0.464,0.269-0.726,0.358C471.354,350.047,471.011,350.045,470.666,349.965z M469.111,336.509
		c-1.335-3.768-2.58-7.576-3.697-11.415c-0.161-0.553-0.63-1.123-1.175-1.654c0.281-0.128,0.593-0.195,0.914-0.243
		c0.167,0.046,0.31,0.08,0.431,0.102c0.741,0.856,1.814,1.877,2.294,1.768c0.194-0.044,0.509-0.085,0.867-0.136
		c0.566,1.344,1.057,2.719,1.509,4.104c1.886,5.78,2.846,11.836,3.311,17.885c0.019,0.246,0.125,0.516,0.289,0.791
		c-0.062,0.123-0.127,0.246-0.196,0.365C471.772,344.385,470.446,340.279,469.111,336.509z M478.087,349.067
		c-0.662-8.517-2.17-17.851-6.268-25.491c-0.104-0.193-0.233-0.389-0.383-0.58c0.556-1.009,1.612-1.609,2.749-2.013
		c3.501,8.671,5.637,18.271,5.531,27.521c0,0.004,0.002,0.009,0.002,0.013C479.177,348.711,478.633,348.892,478.087,349.067z
		 M491.129,360.426c-1.416,0.299-3.15,1.024-4.637,0.761c-0.079-0.247-0.141-0.501-0.205-0.749
		c-0.053-0.208-0.158-0.415-0.234-0.615c-0.504-1.326-1.008-2.653-1.513-3.98c-0.491-1.292-0.982-2.583-1.473-3.875
		c0.123,0.013,0.24,0.013,0.346-0.016c4.529-1.246,9.057-2.493,13.585-3.74c0.272,0.816,0.555,1.613,0.752,2.345
		c0.625,2.318,1.25,4.635,1.875,6.953c0.084,0.311,0.218,0.605,0.385,0.883c-0.199,0.143-0.42,0.247-0.667,0.299
		C496.605,359.27,493.867,359.848,491.129,360.426z"/>
	<path fill="#120E0F" d="M338.872,301.97c-0.242-0.482-0.595-0.965-1.009-1.428c0.44-0.262-0.068-1.242-0.349-1.635
		c-0.121-0.169-0.259-0.348-0.41-0.527c-1.022-2.782-4.185-4.961-6.534-6.377c-4.305-2.596-9.423-4.156-14.364-4.95
		c-1.289-0.207-2.85-0.485-4.129-0.099c-0.83,0.251-1.306,1.187-1.582,1.977c-0.069-0.033-0.139-0.065-0.207-0.098
		c-0.738-0.357-1.177-0.117-1.141,0.414c-2.303-0.062-2.523,2.321-1.306,3.731c0.214,0.248,0.438,0.495,0.666,0.74
		c-1.789-0.053-3.226,1.145-2.84,3.197c0.128,0.679,0.688,1.341,1.297,1.92c-1.423,0.356-2.628,1.219-2.941,2.524
		c-0.137,0.904,0.011,1.474,0.054,1.631c0.178,0.648,0.622,1.321,1.188,1.96c-1.92,0.157-3.571,1.602-2.932,3.717
		c0.164,0.543,0.532,1.113,1.009,1.663c-1.688,0.155-3.485,1.29-3.125,3.222c0.186,1.002,0.812,1.985,1.614,2.868
		c-2.087,0.142-3.906,1.604-3.118,3.934c0.177,0.523,0.54,1.08,1.005,1.619c-1.324,0.161-2.684,0.99-2.995,2.252
		c-0.206,1.864,0.872,2.967,1.401,3.566c-2.274,0.217-4.029,2.429-2.356,4.616c0.279,0.364,0.583,0.734,0.908,1.097
		c-1.725,0.073-3.749,1.26-3.222,3.253c0.223,0.841,0.76,1.67,1.443,2.429c-2.127,0.165-3.827,1.896-3.181,4.219
		c0.201,0.724,0.725,1.484,1.395,2.195c-1.352,0.208-2.706,0.899-3.121,2.168c-0.112,0.32-0.134,0.814-0.134,0.868
		c0.011,0.902,0.541,1.837,1.145,2.64c-0.147,0.133-0.235,0.337-0.233,0.631c-0.842,0.141-1.684,0.283-2.526,0.424
		c-1.016,0.171-0.574,2.788-1.076,3.174c-0.231-0.085-0.459-0.119-0.615-0.017c-2.533-0.397-5.067-0.793-7.6-1.19
		c-2.326-0.364-4.827-1.088-6.423,1.222c-0.256,0.37-0.332,0.943-0.467,1.362c-0.439,1.369-0.878,2.737-1.317,4.105
		c-0.758,2.362-1.515,4.723-2.273,7.085c-0.225,0.702,1.013,1.93,1.415,2.41c1.27,1.512,2.824,2.812,4.369,4.032
		c3.062,2.418,6.407,4.289,10.105,5.439c10.183,3.166,20.366,6.332,30.549,9.498c1.078,0.335,2.165,0.541,3.283,0.723
		c1.991,0.324,4.001,0.516,6.012,0.666c2.104,0.157,4.211,0.435,5.551-1.494c0.815-1.173,0.968-3.22,1.275-4.576
		c0.643-2.84,1.285-5.679,1.928-8.519c0.417-1.843,0.28-3.241-0.972-4.75c-0.967-1.166-2.541-2.878-4.072-3.306
		c-2.356-0.659-4.713-1.318-7.069-1.977c0.272-1.325,0.302-2.677-0.489-3.859c-0.229-0.343-0.488-0.68-0.768-1.009
		c0.27-0.889,0.54-1.778,0.811-2.666c0.105-0.346,1.804-0.5,2.247-0.756c0.559-0.323,0.879-0.842,1.105-1.636
		c0.03-0.988-0.693-2.111-1.563-3.097c1.512-0.261,2.902-1.249,3.306-2.618c0.143,0.033,0.287,0.066,0.43,0.099
		c0.181,0.043-0.026-0.284-0.318-0.664c0.034-0.404-0.015-0.833-0.168-1.28c-0.198-0.58-0.61-1.179-1.126-1.75
		c1.675-0.614,3.742-1.99,3.205-3.969c-0.188-0.695-0.621-1.412-1.178-2.082c1.246-0.3,2.753-1.843,2.888-2.873
		c0.06-0.467,0.009-0.965-0.196-1.481c-0.173-0.435-0.488-0.905-0.882-1.369c1.197-0.269,2.307-0.909,2.776-1.965
		c0.044,0.012,0.295-0.72,0.235-1.269c-0.086-0.786-0.579-1.637-1.31-2.423c2.027-0.461,3.793-2.11,2.924-4.336
		c-0.238-0.61-0.686-1.239-1.237-1.835c1.138-0.244,2.188-0.809,2.845-1.802c0.775-1.172-0.332-2.915-1.225-4.017
		c1.749-0.157,3.254-1.08,3.236-2.719c0.031-0.933-0.779-2.181-1.286-2.751c2.023-0.699,3.494-2.696,2.731-4.885
		c-0.156-0.447-0.479-0.946-0.894-1.442c1.031-0.297,1.863-0.968,2.144-1.865c0.002,0,0.004,0.001,0.007,0.002
		c0.063,0.017,0.065-0.026,0.027-0.105C339.263,303.256,339.206,302.637,338.872,301.97z M326.263,326.81
		c0.179-0.021,2.305,2.448,2.763,2.727c-0.84-0.512-1.501-0.74-1.732-0.805c-3.577-1.014-7.21-1.846-10.853-2.584
		c-4.326-0.876-8.785-1.66-13.244-1.934c-0.231-0.276-0.488-0.553-0.534-0.598c-0.318-0.314-0.687-0.719-1.085-1.06
		c-0.055-0.274-0.049-0.557,0.004-0.837c0.312,0.264,0.634,0.47,0.892,0.462c8.844-0.264,17.971,1.058,26.556,3.452
		c-0.002,0.002-0.003,0.003-0.005,0.005C328.346,326.333,327.208,326.697,326.263,326.81z M328.765,321.852
		c0.349,0.344,0.728,0.743,1.138,1.082c0.001,0.002,0.001,0.003,0.002,0.005c0.153,0.392,0.144,0.795,0.04,1.181
		c-0.389-0.365-0.807-0.692-1.217-0.82c-7.497-2.337-15.498-3.869-23.427-4.264c-0.266-0.329-0.732-0.921-0.79-0.978
		c-0.531-0.524-1.103-1.101-1.742-1.499c0.615,0.397,1.426,0.629,1.74,0.585c5.965-0.831,12.268,0.379,18.125,1.476
		c2.398,0.449,4.792,0.952,7.172,1.509c-0.64,0.302-1.38,0.465-2.015,0.528C327.755,320.659,328.71,321.797,328.765,321.852z
		 M330.353,315.261c0.515,0.574,0.904,1.241,1.053,1.921c-0.195-0.085-0.394-0.161-0.598-0.215
		c-3.78-1.003-7.614-1.822-11.457-2.541c-4.019-0.752-8.253-1.51-12.444-1.663c-0.254-0.322-0.634-0.73-0.691-0.786
		c-0.273-0.269-0.568-0.579-0.883-0.866c-0.021-0.124-0.063-0.281-0.128-0.477c-0.009-0.084-0.009-0.167-0.006-0.249
		c0.228,0.108,0.459,0.173,0.683,0.168c8.891-0.221,18.007,1.062,26.674,3.307c-0.046,0.039-0.093,0.078-0.14,0.114
		c-0.642,0.498-1.608,0.701-2.404,0.759C329.926,314.739,330.398,315.312,330.353,315.261z M331.505,309.413
		c0.098-0.021,1.473,1.514,2.347,2.34c-0.069-0.027-0.21-0.075-0.58-0.183c-7.93-2.292-16.341-3.83-24.661-4.187
		c-0.262-0.328-0.591-0.746-0.641-0.796c-0.238-0.235-0.896-1.029-0.964-1.345c0.185,0.043,0.373,0.064,0.563,0.055
		c6.4-0.323,12.82,0.598,19.082,1.851c2.222,0.445,4.429,0.962,6.624,1.525C332.723,309.032,332.089,309.287,331.505,309.413z
		 M311.268,295.479c-0.013-0.014-0.023-0.024-0.029-0.031c-0.34-0.336-0.698-0.695-1.081-1.015c0.007-0.123-0.028-0.319-0.109-0.594
		c-0.016-0.566,0.415-1.052,0.813-1.385c0.181-0.152,0.405-0.246,0.645-0.305c0.251,0.164,0.508,0.314,0.769,0.44
		c4.04,1.955,8.291,3.603,12.635,4.957c-0.293-0.06-0.586-0.123-0.88-0.181C319.868,296.535,315.564,295.737,311.268,295.479z
		 M322.63,290.606c2.711,0.661,5.364,1.581,7.91,2.721c1.173,0.525,2.299,1.142,3.378,1.837c0.01,0.065,0.044,0.159,0.113,0.293
		c0.172,0.333,0.271,0.684,0.323,1.043c-6.841-1.241-13.693-3.187-20.137-5.896C316.079,288.616,320.201,290.014,322.63,290.606z
		 M322.584,346.966c-0.239-0.154-0.479-0.271-0.712-0.325c-8.311-1.94-16.939-3.72-25.521-4.244
		c0.691-0.332,1.529-0.452,2.217-0.376c0.265,0.029-0.783-1.091-0.881-1.188c-0.341-0.337-1.167-1.277-1.196-1.466
		c0.361,0.284,0.723,0.488,1.021,0.484c8.552-0.113,17.365,1.002,25.692,3.257c-0.696,0.573-1.622,0.967-2.469,1.21
		C320.766,344.31,322.506,345.795,322.584,346.966z M317.956,362.409c-0.004,0.057-0.009,0.115-0.014,0.172
		c-0.062,0.756-0.294,1.525-0.518,2.263c-0.108-0.031-0.21-0.056-0.296-0.063c-0.21-0.019,0.035,0.006-0.422-0.046
		c-0.699-0.079-1.396-0.174-2.092-0.274c-2.428-0.348-4.839-0.81-7.233-1.343c-5.841-1.3-11.666-3.131-17.008-5.874
		c0.107-0.971,0.307-1.969,1.173-2.114c0.459-0.077,0.918-0.154,1.377-0.231c0.107,0.062,0.214,0.12,0.319,0.17
		C300.773,358.629,309.471,362.038,317.956,362.409z M312.425,381.242c-1.374-0.339-3.095-0.138-4.417-0.199
		c-2.959-0.136-5.917-0.273-8.876-0.409c-0.286-0.013-0.573-0.026-0.859-0.039c-0.574-0.334-1.149-0.668-1.723-1.002
		c-2.656-1.544-5.311-3.089-7.966-4.633c-0.671-0.39-1.341-0.78-2.012-1.17c1.214-4.757,2.428-9.513,3.642-14.27
		c7.874,4.363,16.849,7.179,25.818,8.495C314.829,372.424,313.627,376.833,312.425,381.242z M272.737,367.103
		c0.855-2.665,1.71-5.33,2.565-7.995c0.755-2.355,3.037-2.528,5.206-2.189c1.785,0.28,3.571,0.559,5.356,0.838
		c-1.168,4.576-2.336,9.151-3.504,13.727c-0.005,0.018-0.005,0.037-0.008,0.056c-1.581-0.526-3.447-0.741-4.915-1.124
		c-1.773-0.462-3.545-0.924-5.318-1.387C272.325,368.388,272.531,367.745,272.737,367.103z M282.875,377.558
		c-3.656-1.137-6.625-2.449-9.83-4.727c-0.296-0.21-0.623-0.445-0.895-0.712c4.19,1.093,8.38,2.185,12.57,3.278
		c-1.054-0.275,0.481,0.341,0.849,0.555c1.174,0.683,2.349,1.366,3.523,2.049c1.836,1.068,3.672,2.135,5.507,3.203
		C290.692,379.988,286.783,378.773,282.875,377.558z M318.144,387.728c-1.823-0.196-3.765-0.375-5.528-0.924
		c-2.516-0.783-5.033-1.565-7.549-2.347c1.375,0.063,2.75,0.126,4.126,0.19c1.326,0.061,2.651,0.122,3.977,0.183
		c0.39,0.018,0.78,0.036,1.17,0.054c0.049,0.002,0.088,0.003,0.121,0.003c2.243,0.913,4.485,1.826,6.728,2.739
		c0.413,0.168,0.827,0.337,1.24,0.505C320.952,388.121,319.398,387.862,318.144,387.728z M330.958,371.077
		c0.551,0.241,0.066,0.384-0.508-0.147c0.02,0.006,0.039,0.011,0.059,0.017C330.656,370.987,330.818,371.015,330.958,371.077z
		 M330.134,370.841c0.112,0.537,0.062,1.103-0.013,1.645c-0.575,4.12-2.152,8.096-2.744,12.216c-0.14,0.976-0.493,1.688-0.992,2.203
		c-0.147-0.078-0.296-0.15-0.447-0.211c-3.044-1.239-6.088-2.478-9.132-3.717c1.34-4.913,2.679-9.825,4.019-14.737
		c2.091,0.585,4.182,1.169,6.273,1.754C328.109,370.275,329.122,370.558,330.134,370.841z M317.579,355.651
		c-0.377,0.011-0.748,1.597-0.967,2.528c-0.205-0.06-0.412-0.099-0.62-0.104c-6.847-0.179-13.876-2.588-20.204-5.387
		c5.413-0.453,11.153,0.779,16.417,1.726c2.025,0.365,4.047,0.756,6.064,1.176C318.031,355.625,317.796,355.645,317.579,355.651z
		 M318.922,350.393c0.071-0.009,1.412,1.754,1.623,2.426c-0.516-0.439-1.054-0.799-1.571-0.923
		c-3.888-0.932-7.813-1.729-11.746-2.446c-3.431-0.626-7.06-1.348-10.675-1.667c-0.231-0.286-0.466-0.575-0.501-0.609
		c-0.406-0.401-0.869-0.903-1.374-1.275c-0.081-0.241-0.113-0.488-0.103-0.738c0.541,0.53,1.215,1.118,1.765,1.122
		c8.259,0.065,16.638,1.52,24.772,3.303C320.485,350.034,319.655,350.302,318.922,350.393z M322.743,338.192
		c-0.036,0.004,0.92,1.142,0.975,1.196c0.326,0.322,0.888,0.527,0.755,1.856c-0.001,0.008-0.003,0.016-0.004,0.024
		c-0.388-0.316-0.8-0.585-1.229-0.721c-7.622-2.411-22.739-4.121-22.99-4.179c-0.815-0.189-1.498-1.812-1.839-2.113
		c-0.074-0.157-0.18-0.451-0.202-0.885c0.649,0.622,1.539,1.383,2.17,1.251c5.671-1.186,12.055,0.245,17.627,1.366
		c2.254,0.453,4.502,0.962,6.737,1.52C324.142,337.894,323.395,338.124,322.743,338.192z M324.343,332.492
		c-0.033,0.003,0.919,1.141,0.975,1.196c0.264,0.261,0.584,0.618,0.93,0.938c0.013,0.09,0.016,0.182,0.015,0.274
		c-0.41-0.3-0.838-0.547-1.278-0.674c-3.759-1.091-7.582-1.988-11.415-2.773c-3.954-0.81-8.26-1.708-12.465-1.784
		c-0.11-0.121-0.196-0.211-0.221-0.236c-0.164-0.162-0.333-0.331-0.507-0.498c0.171,0.054,0.336,0.082,0.491,0.069
		c8.216-0.677,17.315,0.941,25.373,2.983C325.654,332.27,324.971,332.432,324.343,332.492z M333.139,303.072
		c-0.035,0.004,0.92,1.142,0.975,1.196c0.245,0.242,0.562,0.603,0.906,0.927c0.036,0.26,0.026,0.528-0.02,0.795
		c-0.119-0.054-0.238-0.106-0.357-0.142c-7.701-2.349-15.896-4.116-24.034-4.504c-0.259-0.328-0.8-0.965-0.84-1.004
		c-0.325-0.321-0.734-0.788-1.172-1.15c-0.015-0.223,0.007-0.45,0.062-0.672c0.516,0.497,1.128,1.002,1.574,0.972
		c6.111-0.406,12.347,0.781,18.315,1.971c1.996,0.398,3.989,0.83,5.974,1.296C334.084,302.931,333.602,303.025,333.139,303.072z"/>
	<path fill="#120E0F" d="M408.254,304.355c-0.733-1.708-2.43-3.183-3.611-4.563c-1.066-1.246-2.131-2.491-3.197-3.737
		c1.676-1.488,3.104-3.312,2.584-5.558c0.605-0.494,1.211-0.989,1.816-1.485c1.191,0.559,2.581,0.843,3.652,0.124
		c0.101-0.068,0.195-0.14,0.284-0.215c0.2,0.007,0.4-0.014,0.597-0.073c0.81-0.246,0.749-1.042,0.445-1.794
		c0.083-0.469,0.078-0.965,0.011-1.459c1.373,0.319,2.76,0.181,4.054-0.672c1.185-0.782,1.272-2.165,0.953-3.448
		c1.282,0.227,2.626,0.192,3.758-0.445c1.33-0.748,1.612-2.091,1.36-3.398c1.293,0.255,2.595,0.059,3.769-0.814
		c1.011-0.751,1.148-1.844,0.889-2.918c0.897,0.216,1.826,0.261,2.731,0.014c1.768-0.483,2.095-2.198,1.816-3.767
		c1.383,0.336,2.795,0.229,4.048-0.696c1.095-0.808,1.138-2.19,0.8-3.474c1.026,0.26,2.094,0.292,3.107-0.085
		c1.36-0.505,1.669-2.212,1.636-3.664c1.073,0.361,2.25,0.492,3.171-0.052c0.192-0.114,0.356-0.243,0.505-0.379
		c0.26,0.061,0.517,0.074,0.762,0.015c0.789-0.187,0.52-1.024,0.125-1.724c0.073-0.511,0.035-1.052-0.085-1.584
		c1.482,0.215,2.962-0.131,4.159-1.164c0.955-0.824,1.143-1.937,0.913-3.019c1.001,0.189,1.987,0.049,2.893-0.685
		c0.002-0.001,0.004-0.001,0.005-0.002c0.401-0.156,0.598-0.442,0.662-0.782c0.48-0.922,0.313-2.134-0.037-3.137
		c1.538-2.19,1.012-4.653,0.035-7.009c-1.41-3.396-3.664-6.472-5.973-9.304c-2.009-2.465-4.274-4.854-6.848-6.737
		c-1.753-1.283-3.638-1.888-5.424-0.717c-1.026-0.645-2.192-1.005-3.365-0.685c-1.436,0.392-1.665,1.781-1.443,3.119
		c-0.941-0.307-1.908-0.324-2.708,0.241c-1.348,0.952-1.579,2.231-1.247,3.5c-1.227-0.273-2.478-0.198-3.635,0.523
		c-1.151,0.718-1.386,2.153-1.183,3.48c-1.152-0.327-2.356-0.268-3.511,0.408c-0.113,0.067-0.216,0.139-0.31,0.217
		c-0.128,0.056-0.229,0.146-0.285,0.283c-0.546,0.654-0.623,1.555-0.466,2.449c-1.099-0.366-2.248-0.399-3.241,0.273
		c-1.398,0.945-1.728,2.414-1.479,3.895c-1.211-0.431-2.506-0.522-3.478,0.273c-1.105,0.903-1.453,2.084-1.283,3.278
		c-0.984-0.264-2.017-0.24-3.029,0.258c-1.474,0.725-1.841,2.182-1.609,3.61c-1.271-0.386-2.585-0.262-3.769,0.866
		c-0.825,0.786-0.937,1.911-0.724,3.008c-0.964-0.283-1.978-0.292-2.969,0.157c-1.523,0.69-1.821,2.208-1.552,3.666
		c-1.321-0.358-2.707-0.211-3.971,0.662c-1.238,0.854-1.34,2.347-0.99,3.744c-1.225-0.394-2.521-0.454-3.625,0.273
		c-0.172,0.113-0.322,0.244-0.457,0.385c-0.649-0.014-1.184,0.262-1.055,1.182c0.033,0.233,0.098,0.463,0.184,0.69
		c-0.089,0.505-0.107,1.034-0.087,1.547c-0.731-0.33-1.462-0.66-2.192-0.99c-0.286-0.129-0.718-0.191-0.973,0.044
		c-0.562,0.52-1.11,1.053-1.651,1.594c-1.192-1.101-2.385-2.202-3.577-3.303c-2.088-1.929-4.094-4.481-7.138-4.668
		c-1.901-0.117-3,1.104-4.38,2.197c-2.319,1.837-4.637,3.673-6.955,5.51c-0.35,0.278-1.253,0.731-1.355,1.228
		c-0.335,1.635,0.063,3.326,0.533,4.893c0.911,3.037,2.355,5.908,3.911,8.661c0.482,0.853,1.214,1.611,1.826,2.37
		c1.497,1.855,2.994,3.711,4.491,5.566c3.939,4.882,7.879,9.764,11.818,14.646c1.959,2.428,3.81,4.986,6.044,7.173
		c1.349,1.32,2.796,2.533,4.251,3.733c1.955,1.612,4.027,3.56,6.61,3.978c2.135,0.346,3.619-1.406,4.999-2.712
		c2.149-2.034,4.298-4.067,6.447-6.101C408.063,309.156,409.511,307.281,408.254,304.355z M384.788,306.391
		c0.028,0.021,0.056,0.041,0.084,0.062C385.593,306.985,385.416,307.111,384.788,306.391z M385.075,303.729
		c-1.564-1.238-3.297-2.333-4.873-3.498c-1.659-1.226-3.319-2.452-4.978-3.678c-2.205-4.523-4.41-9.045-6.614-13.568
		c0.116-0.014,0.219-0.053,0.302-0.126c3.513-3.146,7.025-6.293,10.538-9.44c4.393,7.636,10.441,14.597,17.068,20.393
		C392.703,297.117,388.889,300.423,385.075,303.729z M392.217,265.774c0.129,0.203-0.129-0.284-0.204-0.462
		c-0.098-0.236-0.138-0.478-0.144-0.722c4.624,3.289,8.809,7.194,12.884,11.126c1.867,1.801,3.699,3.637,5.508,5.495
		c0.268,0.275,0.532,0.553,0.798,0.83c-0.579,0.29-1.306,0.29-1.913,0.218c-0.175-0.021-2.476-0.805-2.171,0.233
		c-1.975-2.056-3.986-4.079-6.03-6.064c-3.627-3.522-7.471-7.341-11.782-10.205c0.412-0.011,0.884,0.132,1.419,0.489
		C391.734,267.48,393.302,267.484,392.217,265.774z M387.037,269.35c0.007-0.081,0.015-0.162,0.025-0.244
		c3.96,2.207,8.06,6.321,11.613,9.756c1.943,1.878,3.844,3.8,5.72,5.745c0.342,0.355,0.683,0.711,1.023,1.068
		c0.098,0.103,0.196,0.206,0.294,0.31c0.012,0.013,0.025,0.027,0.037,0.04c-0.361,0.092-0.712,0.073-0.945-0.096
		c-0.451-0.328-1.344-0.922-1.897-0.47c-0.553,0.452-1.105,0.903-1.658,1.355c-0.035-0.031-0.09-0.077-0.177-0.15
		c-1.253-1.047-2.432-2.181-3.576-3.343c-4.047-4.112-7.42-8.891-10.372-13.83C387.097,269.443,387.067,269.396,387.037,269.35z
		 M412.948,277.852c-1.276-0.408-0.645,1.826-0.613,1.986c0.011,0.053,0.012,0.104,0.017,0.156
		c-5.984-6.311-12.336-12.54-19.391-17.59c0.785-0.484,1.85-0.598,2.511-0.049c0.65,0.54,2.693,1.036,1.874-0.503
		c-0.205-0.385-0.334-0.777-0.397-1.183c7.033,4.775,13.546,10.706,18.929,17.288c-0.009,0.003-0.018,0.008-0.027,0.012
		C414.984,278.288,413.814,278.128,412.948,277.852z M401.905,258.929c0.176-0.193-0.455-1.995-0.456-2.258
		c0.136,0.07,0.273,0.135,0.411,0.191c4.905,1.983,9.022,6.541,12.656,10.227c2.184,2.215,4.296,4.518,6.319,6.885
		c-0.076,0.045-0.152,0.087-0.224,0.123c-0.638,0.316-1.839,0.147-2.135-0.008c-1.278-0.669-1.015,1.583-1.248,1.22
		c-5.479-6.413-11.93-12.235-18.858-17.007c0.231-0.076,0.464-0.119,0.678-0.125C399.52,258.162,401.533,259.339,401.905,258.929z
		 M403.998,254.269c0.52,0.438,3.389,1.814,2.35-0.107c-0.272-0.504-0.405-1.013-0.406-1.561c4.92,2.961,9.192,7.057,13.231,11.082
		c2.157,2.149,4.257,4.37,6.263,6.666c-0.713,0.331-1.638,0.335-2.456-0.104c-1.531-0.822-1.665,0.215-1.129,1.218
		c-2.062-2.314-4.202-4.561-6.383-6.758c-3.705-3.732-7.803-7.763-12.503-10.403C403.335,254.088,403.709,254.025,403.998,254.269z
		 M410.848,251.426c0.717-0.179,0.216-1.198-0.024-1.543c-0.273-0.393-0.332-0.835-0.24-1.258
		c7.437,4.756,14.165,11.162,19.739,18.006c-0.822,0.397-2.025,0.243-2.585-0.04c-0.808-0.408-1.965-0.423-1.399,0.81
		c0.109,0.238,0.175,0.463,0.219,0.68c-5.639-6.429-11.975-12.782-19.152-17.405c0.199-0.082,0.399-0.147,0.583-0.196
		C408.536,250.335,410.094,251.614,410.848,251.426z M413.819,247.233c0.695,0.521,2.612,1.08,1.874-0.503
		c-0.247-0.529-0.365-1.09-0.37-1.663c4.904,2.521,9.048,6.651,12.94,10.466c2.312,2.267,4.563,4.607,6.718,7.025
		c-0.83,0.339-2.029,0.05-2.549-0.227c-1.297-0.689-1.215,1.261-1.072,1.598c-5.487-6.411-11.864-12.279-18.812-17.057
		C412.97,246.83,413.412,246.927,413.819,247.233z M420.255,242.194c-0.213-0.346-0.247-0.723-0.166-1.088
		c7.363,4.734,14.043,10.985,19.751,17.652c-0.151,0.099-0.309,0.184-0.476,0.239c-0.556,0.183-1.299-0.072-1.789-0.349
		c-0.554-0.314-1.677-0.608-1.53,0.416c0.055,0.384,0.074,0.785,0.051,1.185c-2.129-2.316-4.335-4.565-6.579-6.765
		c-3.855-3.779-8.016-7.752-12.717-10.588c0.043-0.019,0.084-0.041,0.127-0.059C417.523,242.587,421.573,244.331,420.255,242.194z
		 M433.87,231.693c-0.258-0.481-0.398-0.958-0.489-1.496c-0.095-0.569,0.209-0.993,0.584-1.36c0.071-0.07,0.137-0.123,0.198-0.167
		c4.101,6.747,9.282,12.924,14.91,18.446c-0.01,0.051-0.013,0.104-0.012,0.157c-1.604-1.732-3.239-3.436-4.899-5.112
		c-3.258-3.288-6.685-6.649-10.442-9.474C434.084,232.648,434.237,232.379,433.87,231.693z M428.526,235.751
		c1.783,0.894,1.078-1.078,0.877-1.77c4.473,2.828,8.347,6.635,12.068,10.348c2.323,2.318,4.286,4.367,6.292,6.621
		c-0.334,0.025-0.704-0.043-1.099-0.248c-1.73-0.895-0.875,1.612-0.94,2.231c-0.011,0.109-0.038,0.215-0.072,0.317
		c-5.569-6.599-11.996-12.84-19.17-17.674C427.137,235.388,427.872,235.422,428.526,235.751z M424.952,239.126
		c-0.381-0.75-0.408-1.437-0.205-2.008c7.324,4.585,13.804,11.037,19.314,17.681c-0.076,0.037-0.152,0.074-0.224,0.105
		c-0.76,0.32-1.751,0.246-2.51-0.053c-0.75-0.295-1.017-0.003-1.02,0.441c-5.378-5.911-11.422-11.371-17.956-15.937
		c0.255,0.023,0.504,0.104,0.726,0.274C423.741,240.136,425.751,240.698,424.952,239.126z M440.443,229.504
		c1.725,1.381,3.196,3.154,4.585,4.857c1.931,2.368,5.322,6.473,5.13,9.949c-1.124-1.172-2.22-2.371-3.295-3.588
		c-3.036-3.435-5.926-7.077-8.243-11.042c-0.137-0.235-0.289-0.465-0.448-0.692C439,228.467,439.499,228.749,440.443,229.504z
		 M383.226,269.805c0.196,0.089,0.392,0.177,0.588,0.266c4.371,7.217,9.8,14.703,16.664,19.771
		c-0.331,1.139-1.478,2.235-2.427,3.044c-0.139-0.124-0.279-0.246-0.417-0.37c-1.732-1.556-3.396-3.186-4.998-4.876
		c-4.499-4.745-8.497-9.995-11.435-15.85c0.011-0.01,0.023-0.017,0.034-0.027C381.88,271.091,382.548,270.443,383.226,269.805z
		 M363.052,268.288c1.944-1.54,3.888-3.08,5.832-4.62c0.029-0.023,0.01-0.022-0.002-0.02c0.017-0.004,0.089-0.023,0.327-0.101
		c0.618-0.202,1.529-0.308,2.003,0.232c0.643,0.733,1.42,1.364,2.134,2.023c1.113,1.027,2.225,2.055,3.338,3.082
		c-3.696,3.31-7.392,6.621-11.088,9.932c-0.44-0.472-0.882-0.937-1.299-1.408c-1.757-1.982-3.514-3.964-5.271-5.946
		c0.164-0.144,0.379-0.286,0.646-0.498C360.798,270.073,361.925,269.181,363.052,268.288z M364.838,281.325
		c-0.486-0.624-0.335-0.688-0.087-0.178C364.78,281.206,364.809,281.266,364.838,281.325z M362.512,282.914
		c-0.045-0.056-0.091-0.112-0.136-0.168C362.209,282.538,362.17,282.345,362.512,282.914z M363.34,283.941
		c-0.272-0.337-0.545-0.675-0.817-1.012c-0.14-0.243-0.265-0.468-0.387-0.695c-1.231-2.277-2.682-4.934-3.253-7.603
		c1.993,2.248,3.986,4.496,5.979,6.745c0.125,0.257,0.25,0.513,0.375,0.77c0.595,1.221,1.191,2.442,1.786,3.663
		c1.107,2.271,2.214,4.542,3.321,6.813C368.01,289.728,365.675,286.834,363.34,283.941z M385.079,310.73
		c-0.186-0.179-0.368-0.362-0.55-0.545c-0.003-0.004-0.005-0.005-0.009-0.009c-0.04-0.043-0.08-0.086-0.117-0.132
		c-0.28-0.347-0.56-0.694-0.841-1.042c-2.343-2.904-4.686-5.808-7.03-8.712c1.272,0.94,2.544,1.88,3.817,2.821
		c1.131,0.836,2.263,1.672,3.394,2.508c0.298,0.22,0.597,0.441,0.895,0.662c1.07,1.586,2.141,3.172,3.212,4.758
		c1.075,1.593,2.15,3.186,3.225,4.778c-0.407-0.289-0.792-0.637-1.172-0.93C388.222,313.59,386.609,312.204,385.079,310.73z
		 M404.09,306.521c-2.745,3.159-6.291,5.635-9.151,8.695c-0.274,0.293-0.582,0.524-0.916,0.718
		c-1.035-1.533-2.069-3.065-3.104-4.598c-0.774-1.146-1.516-2.485-2.338-3.745c3.841-3.329,7.682-6.658,11.523-9.988
		c0.863,1.009,1.726,2.018,2.589,3.027c0.758,0.887,1.517,1.773,2.275,2.66C405.46,304.46,404.873,305.62,404.09,306.521z
		 M405.043,303.377C405.306,303.69,405.203,303.62,405.043,303.377L405.043,303.377z"/>
</g>
</svg>
