<?xml version="1.0" encoding="utf-8"?>
<!-- Generator: Adobe Illustrator 17.0.0, SVG Export Plug-In . SVG Version: 6.00 Build 0)  -->
<!DOCTYPE svg PUBLIC "-//W3C//DTD SVG 1.1//EN" "http://www.w3.org/Graphics/SVG/1.1/DTD/svg11.dtd">
<svg version="1.1" id="Layer_1" xmlns="http://www.w3.org/2000/svg" xmlns:xlink="http://www.w3.org/1999/xlink" x="0px" y="0px"
	 width="800px" height="600px" viewBox="0 0 800 600" enable-background="new 0 0 800 600" xml:space="preserve">
<g>
	<path fill="#00B3FF" d="M308.348,108.989c0.586-0.123,0.978,0.479,1.119,1.494c0.166,1.008,0.713,0.021,1.261,2.048
		c0.52,2.029,3.627,13.913,3.774,15.109l-2.017,0.661c-0.55-2.242-1.812-6.975-2.001-7.635c-0.168-0.687-1.772-5.936-2.032-6.753
		c-0.384,0.152,0.05,3.868,1.716,6.616c1.219,1.995-3.16-1.786-2.266-7.902c0.133-1.005,0.207-1.138,0.061-1.723
		C307.844,110.317,307.512,109.183,308.348,108.989z"/>
	<linearGradient id="SVGID_1_" gradientUnits="userSpaceOnUse" x1="369.9178" y1="533.6382" x2="369.9178" y2="405.2375">
		<stop  offset="0" style="stop-color:#FAFCFF"/>
		<stop  offset="0.092" style="stop-color:#F4FAFF"/>
		<stop  offset="0.2099" style="stop-color:#E4F4FD"/>
		<stop  offset="0.3421" style="stop-color:#CAEAFB"/>
		<stop  offset="0.4846" style="stop-color:#A5DCF8"/>
		<stop  offset="0.6336" style="stop-color:#77CAF4"/>
		<stop  offset="0.7813" style="stop-color:#41B6F0"/>
	</linearGradient>
	<path fill="url(#SVGID_1_)" d="M387.607,462.214c-1.114-0.202-0.35-17.384-0.35-17.384c10.354,0.533,34.453,4.258,53.23,6.539
		l-3.239-10.551c-22.708-3.87-46.031-9.402-46.538-10.604c-1.427-3.321,21.322-22.203,21.322-22.203l-7.585-2.774
		c0,0-26.245,17.207-35.261,21.816c-1.81,0.914-16.73-5.863-27.113-10.544l-7.898,5.502c8.266,5.1,26.358,15.697,26.939,16.858
		c0.75,1.526-24.592,15.949-44.803,17.719c0.779-5.191-0.882-10.551-4.676-10.462c-2.16,0.027-3.012,1.272-3.107,2.217l-2.092,0.431
		c-0.35-1.123-3.446-2.029-5.076-0.67c-3.002,2.504-2.431,9.057,0.339,12.973c0.872,1.208,2.736,0.899,2.736,0.899
		s0.964,3.526,2.687,3.974c5.131,1.282,14.154,1.318,25.778-0.831c0,0-14.766,13.511-14.855,13.821
		c-0.511,1.755-0.179,5.51,0.161,5.77c0.861,0.682,0.756,3.256,3.444,4.152c0,0,7.271,3.434,10.236,4.213
		c1.723,7.78-1.374,8.31-1.63,13.78c-0.231,5.499,0.424,14.477-0.682,26.783h29.231c-1.167-13.181-0.832-21.365-0.159-33.365
		c0.743-12.431,1.299-17.769,1.012-29.455c-0.024-1.256-2.019-3.133-2.019-3.133c-0.268-2.477,0.75-3.989,0.795-6.615
		c0,0,0.077-3.384,0.077-3.476c2.131-0.771,3.5-1.078,5.683-2.019l-0.325,36.779c0,2.827,1.827,1.967,1.911,4.353l0.002,36.931
		h15.544v-37.102c0.087-2.099,1.646-1.993,1.646-4.246l0.046-14.433c0,0,2.376-0.347,5.134-3.03c0.627-0.81,1.721-0.272,1.728-4.33
		C389.884,465.202,389.299,462.52,387.607,462.214z"/>
	<linearGradient id="SVGID_2_" gradientUnits="userSpaceOnUse" x1="455.3803" y1="533.6382" x2="455.3803" y2="484.9059">
		<stop  offset="0" style="stop-color:#FAFCFF"/>
		<stop  offset="0.1388" style="stop-color:#F6FAFF"/>
		<stop  offset="0.2862" style="stop-color:#E9F6FE"/>
		<stop  offset="0.4375" style="stop-color:#D4EEFC"/>
		<stop  offset="0.5915" style="stop-color:#B6E2F9"/>
		<stop  offset="0.7477" style="stop-color:#90D4F6"/>
		<stop  offset="0.9034" style="stop-color:#62C2F3"/>
		<stop  offset="1" style="stop-color:#41B6F0"/>
	</linearGradient>
	<path fill="url(#SVGID_2_)" d="M424.076,484.924c-0.663,0.894-0.179,5.329-0.179,6.324c0,0.961,0.627,2.143,0.74,5.35
		c0.097,2.624-0.236,3.899,0.879,8.973c0,0-2.034,2.899-2.328,6.182c-0.284,3.119-0.684,15.156-0.467,21.885h35.286
		c0,0-0.636-2.817-0.636-4.042c0-1.248-1.923-1.277-2.355-1.554c-0.178-0.728,24.694-3.489,28.345-4.659
		c4.039-1.289,2.559-3.413,3.972-4.069c0.515-0.26,1.208-1.622,0.391-3.403C487.726,515.91,424.733,484.035,424.076,484.924z"/>
	<path d="M487.237,512.805c-1.07-1.07-0.231-2.822-1.665-4.688c-2.374-3.09-14.751-15.203-25.683-35.225
		c-1.858-3.444-4.205-7.49-5.958-10.97c0.743-0.424,7.225-1.142,7.225-3.158c0-2.02,1.437-26.108,1.143-36.04
		c-0.082-2.907,0.714-28.841,0.294-31.417c-0.429-2.602,0.583-34.182,1.164-36.331c0.557-2.179-0.292-9.801-1.008-12.696
		c-0.742-2.894-5.63-8.498-12.853-20.767c-3.242-5.502-11.523-19.175-13.117-23.213l40.018-37.767c0,0,5.745-14.792,1.807-16.347
		c-1.907-0.735-4.273-2.536-6.305-3.569c-9.09-4.772-27.253-17.261-28.262-18.564c-1.008-1.302,0.041-2.188-1.55-6.565
		c-0.591-1.619-2.137-4.709-2.716-6.247c-9.729-26.448-12.886-43.084-15.237-52.167c-0.504-1.937-3.065-3.976-4.984-4.302
		c-1.921-0.354-21.442-3.7-34.159-9.277c-2.347-1.026-7.994-4.43-12.146-6.117c0.291-1.056,2.015-6.857,2.389-9.878
		c0.171-1.583-0.296-5.018-0.374-5.919c-0.08-0.851,0.944-1.979,1.448-3.398c0.302-0.838-0.409-1.697-0.631-2.702
		c-0.144-0.67-1.043-5.059-1.415-7.079c0.07-2.772,0.502-3.222-0.191-7.664c-0.299-1.949-2.254-6.827-3.131-9.004
		c-0.851-2.152-1.966-5.577-6.298-9.187c-3.521-2.93-8.139-4.143-12.869-3.622c-4.849,0.562-9.607,0.499-14.258,2.294
		c-6.527,2.506-9.267,6.598-9.503,9.784c-4.634,1.802-3.909,4.634-3.909,7.56c-0.214,2.484,0.867,7.481,1.267,9.081
		c0.538,2.174,1.73,5.611,2.256,7.729c-4.039-0.559-0.412,5.823,0.017,6.77c0.448,0.974,2.506,4.721,3.089,5.924
		c0.559,1.203,5.274,2.736,5.895,3.123c0.45,0.275,1.172,3.224,1.579,5.046c-4.495,1.554-4.846,4.348-18.687,9.819
		c-0.164-0.214-0.843-1.337-1.253-3.044c-0.154-0.714-0.034-2.056-0.265-2.931c0.135,0.132,1.046,0.62,2.02,0.815
		c0.945,0.193,2.186-0.779,1.856-1.338c-0.33-0.583-1.106-1.631-1.595-2.078c0.294,0.094,1.207-0.754,1.073-1.207
		c-0.159-0.422-1.4-2.017-1.692-2.477c-0.292-0.487-1.625-2.311-2.345-2.991c0.291-0.038,0.72-0.425,1.694-1.242
		c0.944-0.814,0.909-2.697,0.193-2.697c-0.745,0-2.607,0.325-3.675,0.325c-1.044,0-3.781,1.01-4.268,1.171
		c-0.489,0.132-2.736,1.434-2.736,1.434s0,0-1.261-0.137c-1.241-0.155-2.056,0.658-2.482,1.569c-0.451,0.161-1.07,0.913-1.203,1.79
		c-0.161,0.877-1.303,5.863-1.692,6.676c-0.39,0.814-1.303,3.087-2.15,4.461c-0.876,1.398-0.452,2.7-0.099,3.417
		c0.328,0.718,0.914,2.603,1.665,4.326c0.171,0.379,0.402,1.014,0.682,1.801c-0.538,0.219-0.909,0.345-1.027,0.397
		c-1.087,0.292-4.117,3.027-4.037,4.249c0.081,1.222-0.608,17.859-1.432,30.328c-0.372,5.416-0.193,11.185-1.595,13.704
		c-1.807,3.241-4.405,7.083-4.968,10.284c-0.279,1.501,0.214,6.951-0.291,9.182c-0.719,0.851-2.619,3.841-2.699,4.639
		c-0.076,0.798-0.097,2.774,0.388,5.765c0.31,1.919,2.622,8.107,3.551,10.288c0.933,2.15,4.524,7.486,5.473,8.302
		c0.973,0.815,4.816,2.506,5.436,3.353c-1.205-0.133-3.73,0.708-3.822,1.453c-0.094,0.716,0.982,2.374,1.281,3.249
		c0.295,0.848,0.88,4.068,1.102,5.95c0.223,1.86,2.04,20.193,1.695,37.56c-0.055,1.648,0.036,7.898,0.164,10.578
		c0.161,2.656,2.075,4.553,2.913,5.297c1.405,1.225,4.518,2.702,4.518,2.702c-4.401,7.678-7.033,15.891-7.888,16.978
		c-1.221,1.513-3.806,3.318-3.689,5.336c0.305,5.22-1.94,7.553,0.714,12.033c0.744,1.21,2.392,7.143,2.765,8.285
		c0.344,1.169,1.521,7.929,2.971,11.411c7.326,17.497,9.689,27.503,13.904,38.411l-12.725,7.081
		c-1.725,0.815-2.637,2.796-3.027,3.81c-0.345,0.846-2.311,6.222-1.788,7.522c0.301,0.709,1.384,1.593,1.169,2.02
		c-0.207,0.402-1.461,1.557-2.02,2.371c-0.586,0.814-0.681,2.15-0.596,3.974c0.196,1.892,0.145,3.285,0.729,5.242
		c0.541,1.897,1.611,2.49,3.399,2.442c1.514-0.019,2.34-0.815,2.463-1.726c0.133-0.034,2.019-0.752,3.453-0.326
		c0.805,1.294,1.983,1.106,3.222,0.848c1.265-0.229,1.793-1.569,1.981-2.637c0.292-1.629,0-4.035-0.255-6.514
		c-0.232-2.507-1.648-3.673-2.152-4.1c-0.506-0.426-0.682-1.22-0.814-2.735c-0.162-1.514,3.027-3.188,3.027-3.188l6.962-3.256
		c0.638,2.521,4.9,17.267,5.563,19.692c0.308,1.167,3.232,0.817,3.232,0.817c-1.301,6.704-3.125,11.103-8.693,21.584
		c-0.658,1.212-2.027,2.844-2.639,4.948c-1.104,3.805-0.272,11.881,1.666,13.607c1.964,1.726,5.76,2.846,11.064,2.832
		c13.351-0.062,14.838-2.53,17.813-6.186c1.495-1.853,2.796-4.524,3.417-6.346c0.419-1.263-0.195-4.234-0.292-5.668
		c-0.109-1.708-1.14-8.818-0.655-11.004c0.15-0.771,0.637-2.603,1.222-2.603c0.581,0,1.61,1.762,1.938,1.337
		c0.4-0.513,1.814-2.697,2.54-3.976c1.075-1.885,1.576-3.478,1.494-4.618c-0.077-1.169-0.711-4.463-1.299-5.926
		c-0.152-0.417-0.307-0.926-0.422-1.468c-0.106-0.494,2.6-2.309,2.21-3.574c-0.39-1.637-2.073-8.536-2.21-9.508
		c-1.075-6.738-2.542-12.245-2.606-13.933c1.496-0.099,1.921-1.203,4.393-1.203c2.443,0,6.281,0.714,7.295,1.203
		c1.008,0.485,5.471,5.647,6.186,8.168c0.562,1.914,4.331,15.14,6.215,23.211c0.21,1.706,0.154,3.41-0.504,4.967
		c-0.906-0.304-3.381,0.06-5.032,1.202c-1.979,1.347-2.198,5.437-0.928,9.5c0.95,3.123,3.333,4.364,6.063,4.699
		c2.635,0.304,3.338-2.482,5.239-2.213c2.957,0.402,6.013-1.978,6.082-3.186c0.137-3.225-0.063-5.377-0.063-6.888
		c0-1.514,0.612-4.767,0.612-6.683c0-1.907-3.977-18.181-5.996-30.237c-0.299-1.766,0.718-4.594,2.54-4.851
		c1.824-0.231,16.573,0.718,20.382,1.072c3.805,0.326,17.641,3.841,17.641,3.841s0.762,5.292,0.444,18.377
		c-0.142,6.292-1.109,20.873-0.911,22.307c0.193,1.432,4.885,3.818,4.885,3.818c0,0.754-0.285,3.241-0.576,4.249
		c-0.292,1.008-1.299,2.817-1.627,3.665c-0.356,0.877-0.877,4.003-0.911,6.151c-0.063,2.154-0.586,1.921-0.65,2.542
		c-0.033,0.62-0.655,3.186-0.655,5.145c0,1.983-0.273,1.938,0.313,3.4c0.585,1.432,3.316,3.531,4.463,4.755
		c1.167,1.222,4.827,3.512,5.841,4.148c1.007,0.665,1.692,0.525,2.798-1.919c2.866,1.691,4.266,4.331,4.982,6.054
		c0.72,1.728,1.143,4.835,1.434,6.059c0.292,1.219,0.797,4.167,2.895,6.348c2.097,2.15,5.471,3.822,8.365,5.334
		c2.87,1.513,6.11,2.523,10.809,3.082c4.675,0.583,9.216,0.212,12.325-0.055c3.121-0.291,9.426-2.468,9.505-3.902
		C488.112,514.982,488.112,513.683,487.237,512.805z M311.477,144.028c-0.08-0.347,0.185-1.516,0.291-2.046
		c0.106-0.559,0.292-0.797,0.533-1.328c0.236,1.354,1.354,2.07,1.379,3.186c0.084,0.665-0.227,2.415-0.265,2.683
		c-0.053,1.096-2.072,0.32-2.019-0.373C311.477,145.459,311.556,144.397,311.477,144.028z M308.047,297.152
		c-0.096-1.69-2.017-31.492-2.017-31.492s5.107,5.844,5.203,8.58C311.329,276.975,308.144,298.846,308.047,297.152z M347.702,401.53
		c-0.718-1.531-0.938-4.022-0.938-4.022c2.229,0.667,5.967,2.201,5.967,2.201L347.702,401.53z M364.938,354.818
		c0,1.807-1.169,0.716-1.169,2.682c0,1.938-0.636-0.159-0.636,4.251c0,0,0.291,27.65,0.291,28.872c0,1.224-1.089,0.798-2.311,0.347
		c-1.22-0.427-9.404-2.772-11.074-2.772c-1.648,0-3.109,0.133-3.745,0.133c-2.152-9.51-1.754-14.474-1.489-16.359
		c0.292-1.861,1.562-5.476,1.35-8.585c-0.239-3.106-1.48-6.898-1.774-8.12c-0.292-1.248-1.954-5.943-0.993-7.045
		c2.087-2.318,4.145-4.401,7.821-11.093c0,0,12.559-0.337,13.939-0.282C365.148,339.527,364.938,353.25,364.938,354.818z
		 M404.216,399.141l-8.329-1.614c0,0,7.319-0.673,8.461-0.964c1.169-0.292,1.384,0.557,1.384,0.848
		C405.732,397.705,404.347,398.423,404.216,399.141z M414.927,401.664c0.718-1.858,0.523-4.692-0.407-6.056
		c-0.583-0.822,0.292-2.738,0-3.453c-0.718-1.805-1.602-5.642-4.497-5.74c-2.866-0.099-25.096,2.571-26.961,3.208
		c-1.222,0.421-2.579,0.67-2.579-0.576c0-1.222,0-27.298,0-27.298c0-4.41-0.665-2.312-0.665-4.251c0-1.966-1.14-0.875-1.14-2.682
		c0-1.567-0.212-16.089-0.212-18.769c0,0,21.917-1.015,27.31-1.732c0,0,4.334,5.943,6.355,7.671
		c2.017,1.725,4.328,3.239,3.613,4.834c-0.721,1.593-1.73,11.233-0.88,13.199c0.88,1.94,5.208,8.63,4.782,15.35
		c-0.573,8.7,3.372,25.655,3.584,29.109C421.798,404.134,414.927,401.664,414.927,401.664z M432.987,270.472l-8.551,0.121
		c-0.294-1.073-3.275-8.655-4.022-12.571c-0.721-3.888-2.131-13.865-2.131-13.865s4.565,5.854,5.204,6.738
		c1.26,1.566,6.712,4.982,7.881,5.957c-0.099,0.851-0.697,3.858-0.349,6.784C431.318,266.038,432.987,270.472,432.987,270.472z"/>
	<path fill="#FFFFFF" d="M473.151,258.967c-1.897-1.284,2.926-13.681,4.652-12.828c0.526,0.263,4.787,2.032,5.003,2.174
		c0.243,0.169-4.856,11.064-4.856,11.064L473.151,258.967z"/>
	<path fill="#FFFFFF" d="M373.51,136.453c0,0,1.771,6.666,1.969,9.102c0.403,5.03,1.393,13.918,4.844,49.107
		c0.391,3.936,0.33,9.924,0.985,14.253c1.215,8.601-3.329,25.018-8.669,32.738c-3.227-7.473-12.805-44.33-15.851-54.337
		c-4.17-13.703-7.688-22.103-9.814-27.761c-2.83-7.549-10.589-18.958-10.787-20.692c0,0,0.349-3.526,0.908-4.328
		c0.191-0.28,0.72-0.535,0.942-0.593c2.314,8.435,10.481,18.538,15.733,20.992c4.56,2.137,5.172,1.938,6.946,0.166
		c0.93-1.008,1.306-1.569,1.928-3.094c2.326,0,3.841-0.837,4.972-2.237C371.125,145.462,372.238,140.712,373.51,136.453z"/>
	<path fill="#46A9D7" d="M381.307,208.915c-0.655-4.329-0.593-10.317-0.985-14.253c-3.451-35.189-4.374-43.812-4.844-49.107
		c0,0-0.294,8.683,3.702,47.632c0.4,3.933,0.856,11.676,1.213,16.032c0.538,6.808-2.624,17.859-6.439,28.465l0.779,0.431
		C379.088,229.654,382.348,216.374,381.307,208.915z"/>
	<path fill="#46A9D7" d="M374.021,164.501c-0.795-0.901-6.23-5.023-7.421-5.705l-14.88,2.153c-0.696,0.673-2.41,2.171-3.181,2.817
		c0.186,0.371,0.968,2.386,1.405,3.675c0.894-0.371,1.687-0.615,2.786-0.891c1.543,1.518,3.383,2.395,3.485,2.998
		c0.559,3.015-0.631,7.611-1.617,10.78l0.511,1.554l5.907-3.126l-0.993-13.433C366.685,164.544,374.792,165.405,374.021,164.501z"/>
	<path d="M373.961,218.331c-0.492-3.95-4.141-32.085-5.358-37.232c-1.22-5.143-3.94-7.201-4.859-12.881
		c-0.202-1.249,3.424-5.309,2.856-9.423c-1.569-0.921-5.235-2.961-8.091-2.535c-2.711,0.407-4.734,2.518-6.789,4.688
		c0.191,3.075,5.449,7.167,5.649,8.281c0.661,3.791-1.677,9.842-2.468,12.747c1.166,3.058,8.782,35.136,12.552,44.933
		c1.055,2.806,3.603,12.1,5.196,15.26c0,0,3.601-5.352,4.16-8.008C376.808,234.163,374.33,221.168,373.961,218.331z"/>
	<g>
		<path fill="#00B3FF" d="M430.262,268.804c-0.52-0.287-1.224-0.183-1.224-0.183l-53.881,12.26l41.816,27.506l52.261-19.922
			L430.262,268.804z"/>
		<path fill="#0075FE" d="M430.177,274.239c0,0-0.579-0.333-1.323-0.09l-35.422,8.382c0,0-1.28,0.407,0.106,1.161l31.678,20.435
			l30.68-16.049L430.177,274.239z"/>
		<linearGradient id="SVGID_3_" gradientUnits="userSpaceOnUse" x1="420.2865" y1="306.8552" x2="497.3165" y2="246.8885">
			<stop  offset="0" style="stop-color:#00A6F3"/>
			<stop  offset="0.593" style="stop-color:#1BCBFB"/>
			<stop  offset="1" style="stop-color:#2ADFFF"/>
		</linearGradient>
		<path fill="url(#SVGID_3_)" d="M500.24,244.485L441.977,259.5l-23.608,48.733l0.978,3.526l58.383-19.222
			c0.646-0.294,0.911-0.843,0.911-0.843l22.57-45.12C501.211,246.575,502.632,243.865,500.24,244.485z"/>
		<polygon fill="#5EE6FF" points="466.94,276.734 459.753,278.806 458.669,280.883 466.115,278.474 		"/>
		<path fill="#B0F5FF" d="M499.16,242.928c-0.516-0.297-1.629,0.014-1.778,0.05c-6.916,1.993-43.915,12.559-53.202,15.34l2.67,1.68
			l54.062-15.518c0.144-0.085,0.4,0,0.4,0S500.447,243.644,499.16,242.928z"/>
		<path fill="#0058D2" d="M440.244,261.618c-5.731,10.224-22.799,46.54-22.799,46.54c-0.265,0.193-0.492,0.229-0.72,0.121
			l-41.429-27.363c-0.716-0.444-1.143,2.095,0.205,2.945l41.214,27.44c0,0,1.755,0.908,2.632,0.458l0.251-1.374
			c0.058-0.113,17.456-37.131,23.179-47.249L440.244,261.618z"/>
		
			<linearGradient id="SVGID_4_" gradientUnits="userSpaceOnUse" x1="413.6016" y1="161.672" x2="415.6587" y2="157.2606" gradientTransform="matrix(0.9938 0.1111 -0.1111 0.9938 49.2039 56.2388)">
			<stop  offset="0" style="stop-color:#0058D2"/>
			<stop  offset="0.3572" style="stop-color:#4A9AE5"/>
			<stop  offset="0.657" style="stop-color:#81CBF3"/>
			<stop  offset="0.8795" style="stop-color:#A3EAFC"/>
			<stop  offset="1" style="stop-color:#B0F5FF"/>
		</linearGradient>
		<path fill="url(#SVGID_4_)" d="M442.92,258.694c-0.743,0.222-1.302,0.574-2.01,1.781l-0.667,1.143l2.533,1.518l0.543-0.937
			c0.653-1.078,1.327-1.525,2.267-1.815l1.263-0.386l-2.67-1.68L442.92,258.694z"/>
	</g>
	<path d="M499.107,250.814c0,0,3.116,2.752,2.974,4.018c-0.084,0.908-0.167,1.809-0.538,2.019c-0.373,0.214-1.169,0.904-1.508,1.249
		c0.61,0.928,0.79,1.814,0.79,2.478c0,0.639-0.79,2.825-1.692,3.063c0.215,1.707-1.239,3.203-2.542,3.711
		c0.215,1.142,0.179,2.718-0.803,3.487c-0.983,0.795-1.179,1.065-0.824,1.699c0.465,0.921-0.969,2.921-1.791,3.042
		c-1.93,0.296-4.83,1.296-5.061,1.359c-0.255,0.034-3.182,0.326-5.027,0.053c-1.249-0.161-2.055-1.957-0.699-2.754
		c-1.843,0.116-2.429-2.654-0.392-3.224c1.514-0.438,3.126-0.504,3.593-0.538c0.446-0.061,2.458-0.477,4.136-0.797l0.94-1.935
		c-0.109-0.044-1.239,0.061-2.418,0.051c-1.321-0.009-2.714-0.142-3.056-0.299c-0.993-0.402-1.413-2.875,0.128-3.427
		c1.866-0.62,3.097-0.603,4.425-0.74c1.326-0.128,2.449-0.431,3.348-0.591l1.793-3.504c-1.487-0.133-3.453-1.012-3.213-2.258
		c0.151-1.509,1.196-2.389,2.603-2.791c1.41-0.369,2.904-0.52,3.439-0.663L499.107,250.814z"/>
	<path fill="#FFFFFF" d="M304.6,170.08c0-0.444-0.01-1.294-0.01-1.294c-0.326,0.053-0.596,0.09-0.696,0.183
		c-0.373,0.301-0.728,3.687-0.728,3.687c-0.116,1.145,3.119,3.54,7.174,4.362c4.36,0.897,9.115,0.113,9.689-1.485
		c0,0,0.237-3.222,0.246-3.666c0.007-0.711,0-1.504-1.265-1.885c0,0-0.205,1.217-0.248,1.478c-0.097,0.952-3.126,2.118-7.232,1.665
		C308.139,172.784,304.601,171.24,304.6,170.08z"/>
</g>
</svg>
