<?xml version="1.0" encoding="utf-8"?>
<!-- Generator: Adobe Illustrator 17.0.0, SVG Export Plug-In . SVG Version: 6.00 Build 0)  -->
<!DOCTYPE svg PUBLIC "-//W3C//DTD SVG 1.1//EN" "http://www.w3.org/Graphics/SVG/1.1/DTD/svg11.dtd">
<svg version="1.1" id="Layer_1" xmlns="http://www.w3.org/2000/svg" xmlns:xlink="http://www.w3.org/1999/xlink" x="0px" y="0px"
	 width="800px" height="600px" viewBox="0 0 800 600" enable-background="new 0 0 800 600" xml:space="preserve">
<g>
	
		<linearGradient id="SVGID_1_" gradientUnits="userSpaceOnUse" x1="-2046.6541" y1="326.667" x2="-2046.6541" y2="284.6334" gradientTransform="matrix(-0.9774 -0.1216 0 1 -1580.2213 -69.1913)">
		<stop  offset="0" style="stop-color:#FFFFFF"/>
		<stop  offset="0.1391" style="stop-color:#FBFDFF"/>
		<stop  offset="0.262" style="stop-color:#F1F8FD"/>
		<stop  offset="0.3789" style="stop-color:#DFF0FB"/>
		<stop  offset="0.4919" style="stop-color:#C5E4F8"/>
		<stop  offset="0.6024" style="stop-color:#A4D5F3"/>
		<stop  offset="0.7108" style="stop-color:#7CC2EE"/>
		<stop  offset="0.8176" style="stop-color:#4CACE8"/>
		<stop  offset="0.9205" style="stop-color:#1693E1"/>
		<stop  offset="0.9588" style="stop-color:#0089DE"/>
	</linearGradient>
	<path fill="url(#SVGID_1_)" d="M406.852,479.48c0.219-1.985,1.396-4.561,2.424-9.557c0.151-0.736-0.331-3.634-0.506-4.293
		c-0.133-0.51,0.023-2.174-0.029-2.637c-0.121-1.061,22.986,9.271,24.619,11.533c0.287,0.394,0.167,1.679-0.014,1.79
		c-0.182,0.11-0.545,0.11-0.594,0.676c-0.115,1.447-8.36,2.131-8.478,3.223c-0.294,2.72,2.862,8.433,2.645,10.07
		c-0.207,1.577-1.174,10.943-1.174,14.474h-18.356C407.834,491.11,406.635,481.43,406.852,479.48z"/>
	
		<linearGradient id="SVGID_2_" gradientUnits="userSpaceOnUse" x1="-1961.9124" y1="504.7575" x2="-1961.9124" y2="472.7935" gradientTransform="matrix(-1 0 0 1 -1592.9131 0)">
		<stop  offset="0" style="stop-color:#FFFFFF"/>
		<stop  offset="0.1391" style="stop-color:#FBFDFF"/>
		<stop  offset="0.262" style="stop-color:#F1F8FD"/>
		<stop  offset="0.3789" style="stop-color:#DFF0FB"/>
		<stop  offset="0.4919" style="stop-color:#C5E4F8"/>
		<stop  offset="0.6024" style="stop-color:#A4D5F3"/>
		<stop  offset="0.7108" style="stop-color:#7CC2EE"/>
		<stop  offset="0.8176" style="stop-color:#4CACE8"/>
		<stop  offset="0.9205" style="stop-color:#1693E1"/>
		<stop  offset="0.9588" style="stop-color:#0089DE"/>
	</linearGradient>
	<path fill="url(#SVGID_2_)" d="M357.415,491.608c0.535-2.904,2.524-2.021,3.884-8.111c-0.152-1.435-2.165-4.45-2.524-7.289
		c-0.086-0.684,0.144-1.971,0.263-2.626l18.308-0.788c0.065,0.715,0.173,1.689,0.142,2.331c-0.14,2.774-1.132,4.703-1.193,6.316
		c0.588,2.205,1.372,5.096,3.65,9.287c0.601,1.103,0.837,2.312,0.515,3.457c-1.241,4.41-0.872,8.968-1.323,10.574h-19.869
		C358.186,500.86,357.239,492.562,357.415,491.608z"/>
	<path d="M451.575,335.34c-0.637-3.382-4.365-22.138-6.111-33.114c-0.245-1.538-1.975-11.339-2.372-22.257
		c-0.074-2.007-0.149-22.591,0.047-24.847c0.198-2.255,1.174-14.181,1.239-15.656c0.159-3.591-19.44-10.228-27.184-19.36
		l-0.642-0.868l0.32-1.802c0,0,1.386-0.863,1.666-1.226c0.409-0.525,1.57-1.94,1.766-2.234c0.196-0.294,1.617-0.392,2.106-0.882
		c0.251-0.251,1.797-2.887,2.402-4.314c0.686-1.617,0.099-1.667-0.195-1.813c0.391-1.322,1.497-5.057,1.841-6.085
		c0.344-1.028,0.829-5.743,0.975-7.213c0.404-4.047-2.25-7.247-5.933-9.555c-3.008-1.884-5.844-2.155-10.074-2.366
		c-4.85-0.241-5.854-0.28-7.342,2.4c-3.645-0.454-3.645,1.157-4.556,2.138c-1.214,1.227-1.831,2.461-2.006,4.214
		c-0.106,1.061-0.523,6.955-0.596,7.615c0,0-0.771-0.361-0.981,0.375c-0.148,0.515,0.184,4.231,0.762,7.141
		c0.185,0.929,1.277,1.72,1.595,2.26c0,0.294,0.155,3.151,0.204,4.23c0.027,0.62-0.367,2.561-0.367,2.561s-2.75,0.012-3.639,0.012
		c-2.263,0-3.416-2.162-5.064-4.508c-1.457-2.076-3.371-5.394-5.338-5.124c-4.521,0.626-6.401,0.497-6.821-0.237
		c-5.49-9.607-9.266-18.261-9.901-19.683c-1.086-2.42-2.548-6.175-6.224-17.643c-3.925-12.242-7.103-25.081-7.417-26.056
		c-0.209-0.651-1.54-0.96-3.629-0.773c-0.641-1.716-1.099-3.021-1.152-3.372c-0.217-1.455,0.469-2.223,0.521-2.783
		c0.16-1.764,0.399-3.328,0.541-4.553c0.224-1.908,0.151-3.022,0.068-3.488c0.005-0.186-0.873-2.061-1.065-2.296
		c0,0-0.007-1.492-0.064-2.354c-0.079-1.25-0.748-1.715-1.094-2.25c-0.344-0.534-2.383-3.337-3.19-3.322
		c-0.805,0.014-2.344,0.326-2.533,1.205c-0.828-0.51-0.906-0.593-1.549-0.614c-0.642-0.02-2.465,0.401-2.619,1.362
		c-0.573-0.985-3.275,0.021-3.444,0.734c-0.058,0.577-0.272,0.957-0.174,1.683c-0.961-0.433-2.6,1.341-2.651,2.131
		c-0.044,0.661-0.157,2.313-0.029,3.907c0.105,1.315-0.191,2.839,1.097,4.267c0,0,0.128,0.623,0.294,1.617
		c0.383,2.311,0.939,3.655,1.733,5.25c0.467,0.941,1.665,2.589,2.249,3.212c0.397,0.425,0.866,1.767,1.253,2.951
		c-0.984,0.425-5.298,3.856-4.968,5.103c0.38,1.486,11.22,38.836,11.404,41.277c0.102,1.36,4.622,10.815,9.016,20.386
		c6.347,13.822,9.687,20.241,11.751,22.696c0.811,1.838-1.853,13.08-2.353,18.141c-0.177,1.784-1.907,9.728-4.47,16.204
		c-0.89,2.249-2.866,5.088-3.275,6.708c-0.094,0.37,0.701,1.326,0.603,1.628c-2.156,6.629-7.817,21.221-15.242,37.025
		c-0.909,1.936-0.284,5.936,6.68,10.027c4.75,2.792,9.562,0.237,15.36,5.933c-0.054,1.838,0.343,33.72,0.356,35.423
		c0.014,1.707-0.318,21.875-0.293,24.896c0.024,3.018-0.103,16.58-0.904,34.926c-0.196,4.466-0.064,9-0.281,11.074
		c-0.391,3.748-4.285,15.645-3.924,17.521c0.6,3.112,4.368,6.485,5.72,9.28c-0.845,3.122-1.434,4.851-2.769,7.57
		c-0.735,1.177-2.01,2.598-1.617,4.976c0.493,2.992,1.405,4.003,3.135,4.436c3.333,0.833,8.21,0.735,11.077,0.146
		c1.399-0.287,2.579-1.955,3.431-3.579c1.029-1.958,0.662-4.055,0.147-5.045c-0.686-1.568-0.721-2.855-1.127-8.479
		c2.3-1.693,5.145-6.272,6.469-8.257c0.469-0.706,0.526-7.122,0.445-8.759c-0.078-1.641-1.053-8.221-0.957-9.368
		c0.241-2.889,4.702-40.315,5.437-46.784c0.281-2.477,6.052-26.366,7.57-38.96c1.276,11.538,6.372,52.555,6.667,56.358
		c0.292,3.806,4.057,29.425,4.023,30.309c0,0-1.719,11.2-1.427,14.043c0.293,2.842,5.048,7.007,5.439,7.499
		c-0.185,0.955-0.518,1.755-0.586,2.315c-0.087,0.686-0.063,1.188-0.063,2.315c0,0.448,1.725,2.186,2.696,2.671
		c0.124,0.062,0.856-0.649,1.066-0.491c1.005,0.769,1.445,1.089,1.789,2.697c0.205,0.96-0.196,2.719,0.148,3.6
		c0.341,0.885,3.664,3.822,5.316,4.192c3.062,0.687,5.537,0.637,7.693,0.49c1.567-0.107,4.14-0.367,5.316-0.92
		c0.749-0.351,0.735-0.647,0.748-1.248c0.013-0.514-0.028-0.795-0.435-1.177c-0.558-0.525-0.391-2.151-0.993-2.94
		c-0.599-0.79-5.641-7.719-6.706-12.645c0.552-0.184,0.981-0.285,0.977-0.758c-0.011-2.792,0.651-6.174,0.846-8.329
		c0.123-1.357-1.285-3.861-1.871-6.414c0.302-2.227,0.998-9.306,0.668-10.602c-1.42-5.586-2.331-15.389-2.497-17.255
		c-0.686-7.745-0.33-63.307-0.33-63.307s5.549-1.47,5.624-2.315c0.259-2.985-0.736-14.995-0.514-22.051
		c-0.097-5.257-0.739-18.876-0.587-20.446c0,0,2.821,15.352,8.077,32.769c0.21,0.698,1.824,0.987,3.772,1.029
		c0.125,0.901,0.491,2.869,0.595,3.367c0.147,0.697,0.773,1.139,0.939,2.665c0.056,0.533-0.147,1.526-0.166,2.316
		c-0.009,0.404,0.091,1.8,0.256,2.611c0.092,0.449,0.368,1.157,0.515,1.469c-0.686,0.055-1.434,0.728-1.189,1.194
		c-0.502,0.209-0.747,1.507-0.195,1.569c0.33,0.036,2.578,0.03,3.601,0.085c0.588,0.032,2.181-0.415,2.623-0.515
		c0.441-0.098,1.642-1.152,2.792-1.763c0.439-0.233,0.528-0.847,0.676-1.546c0.092-0.443,0.438-4.625,0.476-5.659
		c0.074-1.948,0.7-2.684,0.183-3.934c-0.204-0.498-0.747-2.521-1.067-3.727C450.655,337.085,451.656,336.034,451.575,335.34z
		 M444.768,350.647c0-0.098,0.085-0.931,0.085-1.544c0-0.612,0.009-0.993-0.085-1.728c-0.08-0.65-0.294-1.115-0.311-2.37
		l0.641,0.035c0.149,0.492,0.277,2.04,0.369,3.088C445.514,348.642,445.193,350.094,444.768,350.647z"/>
	<path fill="#FFFFFF" d="M398.48,212.807c0,0-0.311,0.043-0.546,0.217c-0.235,0.173-1.081,1.415-1.357,2.312
		c-0.411,5.397,0.132,21.463-0.692,28.805c-1.403,12.475-8.971,33.99-12.755,54.875c0,0,5.269,1.823,15.016,2.447
		c0.251,0.016,0.813-0.562,1.068-0.546c1.754,0.102,4.073,0.214,5.885,0.078c0.265-0.021,0.614,0.477,0.876,0.468
		c2.849-0.085,12.745-0.837,14.429-1.645c0.117-20.145,2.195-37.235,1.484-53.89c-0.355-8.307-1.787-5.046-4.534-26.756
		c-0.099-0.784-0.655-0.848-0.655-0.848c-0.245,0.858-1.061,2.212-2.372,2.984c-2.087,1.229-5.517,2.785-6.567,2.793
		c-1.232,0.011-5.868-4.172-7.253-5.686C399.562,217.385,398.54,214.628,398.48,212.807z"/>
	<path fill="#3D85CC" d="M384.176,299.359c3.786-20.885,11.078-43.898,12.479-56.375c0.825-7.341-0.078-27.648-0.078-27.648
		c-0.411,5.397,0.132,21.463-0.692,28.805c-1.403,12.475-8.971,33.99-12.755,54.875L384.176,299.359z"/>
	<path fill="#FFFFFF" d="M351.308,141.821c0.179,0.575-1.821,2.69-5.301,4.12c-3.677,1.513-7.049,1.696-8.775,1.18
		c-0.289-1.658-0.499-2.143-0.534-2.895c-0.022-0.467,0.557-1.125,1.101-1.71c0.191,0.375,0.5,1.44,0.5,1.44
		c1.903,0.813,4.352,0.113,7.017-1.066c2.78-1.23,3.676-2.591,4.211-3.585c0.032-0.059-0.301-1.048-0.301-1.048
		c0.375,0.259,0.748,0.418,0.909,0.66C350.283,139.141,350.64,140.314,351.308,141.821z"/>
	<path fill="#3D85CC" d="M410.794,230.071c2.245,0.092,4.127,0.126,3.927-0.035c-0.443-0.357-2.34-2.393-3.36-3.806l-7.591-0.399
		c-0.375,0.515-1.187,1.489-3.408,3.199c-0.303,0.263,2.519,0.679,3.801,0.723c0.447,0.014,1.523,0.072,2.827,0.139l-7.825,61.868
		c0,0,4.93,7.695,6.291,6.924c0.977-0.553,6.763-4.743,6.996-6.342c0.112-0.769,0.308-12.13,0.289-23.339
		c-0.023-12.116,0.276-26.544-0.077-27.701c-0.355-1.157-1.696-5.664-2.183-7.49c-0.248-0.93-0.339-2.244-0.262-2.655
		C410.271,230.869,410.493,230.484,410.794,230.071z"/>
	<path d="M403.777,225.771c1.092-1.275,2.59-1.969,3.969-1.919c1.46,0.052,2.877,1.379,3.614,2.378
		c-0.249,2.313-1.791,3.668-1.791,4.543c-0.001,0.824-0.148,1.53,0.175,2.725c0.809,2.994,2.469,7.159,2.541,8.542
		c0.048,0.954,0.27,14.939-0.07,26.352c-0.342,11.613-0.12,23.353-0.253,23.962c-0.265,1.208-6.298,6.355-7.329,6.344
		c-1.151-0.013-6.164-5.607-6.28-7.214c-0.055-0.773,1.876-12.408,2.719-23.583c0.911-12.08,1.403-25.339,1.541-25.967
		c0.262-1.206,2.363-7.792,2.742-8.674c0.381-0.881,0.12-2.144,0.148-2.785C405.528,229.835,403.476,227.215,403.777,225.771z"/>
	<path fill="#FFFFFF" d="M450.315,337.153c0,0,0.033,0.55,0.069,1.125c0.014,0.282,0.026,0.514-0.419,0.786
		c-0.24,0.145-2.326,1.398-5.389,1.676c-1.762,0.16-4.164,0.155-6.098-0.295c-0.362-0.086-0.575-1.094-0.575-1.094
		C441.736,339.496,446.901,339.244,450.315,337.153z"/>
</g>
</svg>
