<?xml version="1.0" encoding="utf-8"?>
<!-- Generator: Adobe Illustrator 17.0.0, SVG Export Plug-In . SVG Version: 6.00 Build 0)  -->
<!DOCTYPE svg PUBLIC "-//W3C//DTD SVG 1.1//EN" "http://www.w3.org/Graphics/SVG/1.1/DTD/svg11.dtd">
<svg version="1.1" id="Layer_1" xmlns="http://www.w3.org/2000/svg" xmlns:xlink="http://www.w3.org/1999/xlink" x="0px" y="0px"
	 width="800px" height="600px" viewBox="0 0 800 600" enable-background="new 0 0 800 600" xml:space="preserve">
<path fill="#231F20" d="M530.404,407.808c-3.606-1.06-7.258-1.022-10.643-0.131l0.998-1.035l-18.905-78.503l58.466-56.005
	c2.085,1.821,4.579,3.244,7.424,4.08c10.488,3.083,21.509-2.921,24.596-13.424c3.078-10.5-2.932-21.513-13.429-24.599
	c-9.455-2.778-19.297,1.831-23.428,10.429l-77.445-23.082l-19.367-76.982c5.5-2.161,9.994-6.735,11.792-12.844
	c3.083-10.5-2.932-21.513-13.424-24.596c-10.503-3.088-21.513,2.924-24.602,13.424c-1.723,5.873-0.599,11.91,2.564,16.625
	l-57.891,56.053l-76.569-23.476c1.557-9.699-4.286-19.272-13.972-22.113c-10.492-3.088-21.504,2.921-24.581,13.422
	c-3.088,10.5,2.917,21.508,13.414,24.593c2.076,0.607,4.161,0.854,6.216,0.789l18.264,78.022l-58.022,55.955
	c-1.874-1.433-4.025-2.572-6.427-3.279c-10.492-3.082-21.508,2.927-24.591,13.426c-3.088,10.503,2.932,21.509,13.419,24.591
	c9.983,2.937,20.41-2.36,24.072-11.905l77.647,22.816l19.327,79.936c-5.752,2.068-10.487,6.74-12.336,13.044
	c-3.088,10.505,2.927,21.521,13.424,24.606c10.492,3.086,21.513-2.926,24.601-13.431c1.99-6.785,0.166-13.776-4.196-18.71
	l59.886-55.186l77.697,23.498l1.068-1.125c-2.151,10.044,3.753,20.191,13.776,23.138c10.498,3.086,21.513-2.919,24.596-13.421
	C546.911,421.907,540.897,410.891,530.404,407.808z"/>
<path fill="#FFFFFF" d="M487.72,324.65c-13.908,47.329-63.553,74.423-110.886,60.516c-47.334-13.907-74.424-63.556-60.521-110.884
	c13.912-47.329,63.558-74.423,110.891-60.515C474.528,227.674,501.627,277.322,487.72,324.65z M425.759,218.67
	c-44.619-13.112-91.428,12.434-104.535,57.052c-13.112,44.619,12.432,91.428,57.055,104.542
	c44.619,13.109,91.423-12.439,104.53-57.058C495.92,278.587,470.382,231.784,425.759,218.67z"/>
<path fill="#FFFFFF" d="M404.618,351.554c-5.083,0-10.15-0.733-15.066-2.179c-28.228-8.296-44.447-38.012-36.156-66.243
	c6.634-22.569,27.679-38.329,51.177-38.329c5.078,0,10.15,0.733,15.066,2.178c13.681,4.017,24.974,13.122,31.799,25.632
	c6.83,12.512,8.377,26.933,4.352,40.611C449.161,335.793,428.121,351.554,404.618,351.554z M404.573,249.961
	c-21.227,0-40.236,14.24-46.23,34.627c-7.49,25.501,7.163,52.346,32.66,59.841c4.448,1.304,9.026,1.967,13.615,1.967
	c21.226,0,40.236-14.24,46.225-34.628c3.632-12.353,2.237-25.382-3.934-36.685c-6.165-11.301-16.366-19.524-28.722-23.156
	C413.74,250.623,409.161,249.961,404.573,249.961z"/>
<path fill="#FFFFFF" d="M398.745,334.79c-3.692,0-7.505-0.569-11.338-1.698c-1.305-0.559-28.148-13.001-12.85-65.075l0.368-1.249
	l72.534,21.987l-0.433,1.264C446.401,291.849,431.335,334.79,398.745,334.79z M376.672,269.993
	c-13.877,48.865,11.354,60.568,11.616,60.682c3.44,1,7.011,1.537,10.457,1.537c27.739,0,42.624-34.683,45.374-41.773
	L376.672,269.993z"/>
<path fill="#FFFFFF" d="M382.273,276.184l53.897,16.34c0,0-14.19,41.483-44.674,32.527
	C391.496,325.051,370.607,315.901,382.273,276.184z M392.897,322.671c26.797,7.873,39.274-28.596,39.274-28.596l-47.379-14.363
	C374.526,314.627,392.897,322.671,392.897,322.671z"/>
<path fill="#FFFFFF" d="M451.498,362.096l-6.019,3.128c-1.183,0.614-2.226,0.952-3.123,1.01c-0.902,0.06-1.738-0.093-2.534-0.444
	c-0.786-0.357-1.496-0.876-2.126-1.564c-0.63-0.682-1.174-1.478-1.642-2.37c-0.73-1.4-1.133-2.571-1.219-3.508
	c-0.081-0.937,0.025-1.813,0.322-2.626c0.292-0.819,0.725-1.481,1.284-1.993c0.761-0.7,1.506-1.239,2.226-1.612l6.015-3.128
	L451.498,362.096z M445.907,361.235l-3.728-7.16l-0.987,0.512c-0.851,0.44-1.4,0.848-1.662,1.224
	c-0.262,0.372-0.368,0.843-0.327,1.423c0.04,0.572,0.332,1.378,0.876,2.43c0.72,1.388,1.441,2.219,2.161,2.499
	c0.725,0.277,1.602,0.141,2.655-0.405L445.907,361.235z"/>
<polygon fill="#FFFFFF" points="434.78,370.027 422.968,373.165 422.152,370.115 429.556,368.153 428.952,365.887 422.087,367.708 
	421.316,364.796 428.181,362.973 427.436,360.159 419.815,362.179 418.958,358.95 430.997,355.755 "/>
<path fill="#FFFFFF" d="M417.754,373.933l-7.581,0.353c-1.652,0.075-2.901-0.262-3.763-1.007c-0.856-0.743-1.325-1.841-1.385-3.294
	c-0.071-1.486,0.322-2.675,1.179-3.554c0.856-0.879,2.206-1.362,4.04-1.448l2.499-0.113l-0.252-5.475l4.579-0.211L417.754,373.933z
	 M412.884,367.856l-1.118,0.051c-0.876,0.043-1.491,0.224-1.828,0.544c-0.342,0.32-0.499,0.721-0.483,1.199l0.524,1.153
	c0.318,0.312,0.907,0.443,1.758,0.408l1.299-0.063L412.884,367.856z"/>
<path fill="#FFFFFF" d="M395.093,360.819l5.123,0.766l1.068-2.305l4.614,0.688l-7.671,13.784l-4.926-0.736l-3.309-15.423l4.73,0.705
	L395.093,360.819z M395.556,364.116l0.826,5.488l2.377-5.009L395.556,364.116z"/>
<path fill="#FFFFFF" d="M389.265,357.203l-5.395,13.751l-7.082-2.776c-1.315-0.516-2.272-1.02-2.871-1.519
	c-0.614-0.499-1.007-1.134-1.188-1.912c-0.192-0.776-0.111-1.602,0.232-2.476c0.297-0.763,0.715-1.36,1.264-1.786
	c0.539-0.426,1.164-0.7,1.864-0.816c0.448-0.08,1.018-0.063,1.708,0.04l-0.907-0.939c-0.111-0.176-0.242-0.509-0.393-0.99
	c-0.156-0.488-0.242-0.852-0.262-1.09l-0.498-4.793l4.805,1.886l0.625,5.09c0.066,0.657,0.186,1.111,0.348,1.36l0.922,0.728
	l0.368,0.149l2.196-5.579L389.265,357.203z M381.785,363.708l-1.788-0.703c-0.191-0.076-0.594-0.159-1.199-0.252l-0.856,0.161
	l-0.579,0.693l0.02,1.186c0.186,0.35,0.665,0.677,1.441,0.979l1.869,0.73L381.785,363.708z"/>
<polygon fill="#FFFFFF" points="367.908,364.247 356.388,356.521 358.423,353.49 362.281,356.082 368.482,346.847 372.275,349.393 
	366.074,358.626 369.943,361.217 "/>
<polygon fill="#FFFFFF" points="352.489,353.355 348.465,348.899 353.587,341.162 345.377,345.474 341.362,341.019 352.328,331.126 
	354.827,333.904 346.465,341.447 356.761,336.044 359.027,338.553 352.585,348.229 360.952,340.689 363.455,343.467 "/>
<polygon fill="#FFFFFF" points="338.32,336.203 332.522,325.436 335.297,323.943 338.929,330.683 340.994,329.57 337.63,323.313 
	340.284,321.89 343.649,328.141 346.208,326.764 342.48,319.825 345.422,318.241 351.325,329.204 "/>
<polygon fill="#FFFFFF" points="330.447,320.485 329.329,316.372 335.756,308.862 327.873,311.005 326.745,306.857 340.994,302.981 
	342.123,307.132 335.746,314.596 343.573,312.468 344.702,316.604 "/>
<polygon fill="#FFFFFF" points="326.044,302.2 325.531,288.336 329.172,288.197 329.344,292.851 340.455,292.433 340.632,296.997 
	329.515,297.413 329.691,302.062 "/>
<path fill="#FFFFFF" d="M387.729,225.684l7.55-0.738c1.642-0.159,2.912,0.11,3.808,0.811c0.896,0.703,1.41,1.781,1.557,3.221
	c0.141,1.483-0.187,2.687-0.998,3.609c-0.816,0.924-2.136,1.476-3.969,1.655l-2.484,0.242l0.529,5.455l-4.559,0.448L387.729,225.684
	z M392.902,231.507l1.113-0.108c0.872-0.086,1.471-0.3,1.798-0.637c0.322-0.34,0.464-0.745,0.418-1.219l-0.574-1.131
	c-0.342-0.289-0.932-0.395-1.783-0.312l-1.295,0.128L392.902,231.507z"/>
<path fill="#FFFFFF" d="M403.772,231.752c0.317-2.388,1.229-4.163,2.74-5.319c1.506-1.156,3.445-1.576,5.827-1.262
	c2.428,0.325,4.226,1.224,5.37,2.707c1.148,1.486,1.561,3.403,1.249,5.76c-0.226,1.713-0.7,3.075-1.42,4.095
	c-0.721,1.022-1.662,1.763-2.836,2.226c-1.169,0.466-2.564,0.592-4.191,0.378c-1.653-0.219-2.982-0.665-3.995-1.334
	c-1.013-0.667-1.783-1.617-2.302-2.841C403.696,234.932,403.545,233.464,403.772,231.752z M408.29,232.368
	c-0.191,1.478-0.06,2.579,0.408,3.297c0.459,0.715,1.169,1.138,2.105,1.267c0.977,0.128,1.773-0.091,2.388-0.652
	c0.619-0.562,1.033-1.662,1.249-3.299c0.186-1.378,0.04-2.423-0.433-3.133c-0.474-0.708-1.184-1.123-2.136-1.252
	c-0.917-0.119-1.687,0.106-2.327,0.677C408.91,229.848,408.496,230.88,408.29,232.368z"/>
<polygon fill="#FFFFFF" points="424.726,227.868 429.008,229.437 425.185,239.889 431.874,242.337 430.625,245.754 419.648,241.737 
	"/>
<rect x="435.524" y="234.086" transform="matrix(-0.8747 -0.4847 0.4847 -0.8747 703.7057 664.893)" fill="#FFFFFF" width="4.573" height="14.772"/>
<path fill="#FFFFFF" d="M450.113,251.663l2.368,3.443c-0.907,0.708-1.823,1.174-2.746,1.4c-0.917,0.227-1.833,0.222-2.74-0.012
	c-0.912-0.234-1.879-0.769-2.916-1.592c-1.254-1.007-2.131-2.007-2.635-3.007c-0.499-1-0.675-2.189-0.514-3.566
	c0.151-1.38,0.806-2.783,1.945-4.214c1.531-1.909,3.208-2.969,5.042-3.184c1.838-0.214,3.682,0.423,5.536,1.906
	c1.451,1.164,2.363,2.37,2.72,3.622c0.368,1.256,0.262,2.649-0.307,4.188l-3.712-1.814l0.277-1.05l-0.226-1.214l-0.796-0.994
	c-0.806-0.645-1.683-0.816-2.635-0.511c-0.71,0.224-1.481,0.851-2.307,1.884c-1.018,1.277-1.522,2.309-1.516,3.093
	c0.01,0.783,0.363,1.456,1.063,2.02c0.685,0.544,1.355,0.765,2.01,0.662C448.678,252.62,449.372,252.265,450.113,251.663z"/>
<polygon fill="#FFFFFF" points="461.99,250.85 469.652,260.388 467.194,262.36 462.398,256.391 460.565,257.859 465.008,263.397 
	462.66,265.281 458.218,259.743 455.946,261.566 460.877,267.711 458.273,269.802 450.476,260.09 "/>
</svg>
