<?xml version="1.0" encoding="utf-8"?>
<!-- Generator: Adobe Illustrator 17.0.0, SVG Export Plug-In . SVG Version: 6.00 Build 0)  -->
<!DOCTYPE svg PUBLIC "-//W3C//DTD SVG 1.1//EN" "http://www.w3.org/Graphics/SVG/1.1/DTD/svg11.dtd">
<svg version="1.1" id="Layer_1" xmlns="http://www.w3.org/2000/svg" xmlns:xlink="http://www.w3.org/1999/xlink" x="0px" y="0px"
	 width="800px" height="600px" viewBox="0 0 800 600" enable-background="new 0 0 800 600" xml:space="preserve">
<g>
	<g opacity="0.4">
		<path fill="#1D1D1B" d="M382.325,213.708c0.035,0,0.035-0.054,0-0.054C382.29,213.654,382.29,213.708,382.325,213.708
			L382.325,213.708z"/>
	</g>
	<g opacity="0.4">
		<path fill="#1D1D1B" d="M382.325,213.799c0.228,0.013,0.306,0.15,0.505,0.232c0.176,0.072,0.374,0.089,0.562,0.117
			c0.462,0.07,1.005,0.054,1.409-0.201c0.199-0.125,0.199-0.407,0-0.532c-0.404-0.254-0.947-0.27-1.409-0.201
			c-0.188,0.028-0.386,0.045-0.562,0.117c-0.2,0.081-0.277,0.219-0.505,0.232C382.173,213.572,382.173,213.791,382.325,213.799
			L382.325,213.799z"/>
	</g>
	<g opacity="0.4">
		<path fill="#1D1D1B" d="M371.976,220.985c47.522-18.396,96.159,20.421,104.094,67.286c4.027,23.785-4.719,48.732-20.891,66.268
			c-15.951,17.298-38.731,25.193-61.946,23.787c-3.254-0.197-6.507-0.622-9.748-0.965c-0.601-0.064-0.671,0.849-0.137,1.015
			c20.262,6.303,43.187,0.395,60.352-11.224c17.691-11.975,29.422-31.135,33.823-51.852c8.987-42.315-21.307-87.779-62.483-98.734
			c-14.617-3.889-29.545-2.055-43.337,3.774C371.336,220.494,371.603,221.129,371.976,220.985L371.976,220.985z"/>
	</g>
	<g opacity="0.4">
		<path fill="#1D1D1B" d="M392.189,382.12c-20.663,0.016-40.686-12.351-54.722-26.687c-15.211-15.536-22.533-37.331-23.006-58.778
			c-0.492-22.277,7.41-43.127,22.81-59.179c7.591-7.913,15.795-13.624,26.493-16.356c9.283-2.371,19.256-2.476,28.092-6.435
			c0.433-0.194,0.23-0.972-0.247-0.912c-9.929,1.237-20.204,2.778-29.904,5.26c-10.563,2.702-18.715,8.974-26.2,16.678
			c-15.943,16.41-23.407,38.253-23.114,60.945c0.282,21.815,8.975,44.041,23.997,59.856c14.232,14.984,34.716,26.722,55.8,26.406
			C392.702,382.91,392.703,382.119,392.189,382.12L392.189,382.12z"/>
	</g>
	<g opacity="0.4">
		<path fill="#1D1D1B" d="M354.878,221.499c-16.363,8.416-30.621,20.442-39.509,36.753c-9.281,17.033-10.196,37.287-6.705,56.027
			c3.604,19.348,13.323,37.666,28.224,50.627c16.669,14.5,40.537,16.467,61.683,13.977c0.547-0.064,0.549-0.789,0-0.852
			c-10.417-1.197-20.929-0.426-31.336-1.927c-10.762-1.552-20.388-5.87-28.743-12.802c-14.595-12.109-23.51-29.86-27.506-48.143
			c-4.076-18.65-2.741-38.823,6.048-55.934c8.282-16.123,22.936-27.946,38.201-37.116
			C355.627,221.873,355.281,221.291,354.878,221.499L354.878,221.499z"/>
	</g>
	<g opacity="0.4">
		<path fill="#1D1D1B" d="M446.854,370.914c0.018-1.104,0.177-2.015-0.011-3.093c-0.14-0.806-1.457-0.613-1.418,0.192
			c0.145,2.971,1.489,5.711,2.947,8.252c1.332,2.321,3.11,5.613,5.472,6.981c0.651,0.377,1.418-0.238,1.238-0.952
			c-0.607-2.409-2.842-4.394-4.266-6.4c-1.789-2.52-2.8-5.247-3.973-8.073c-0.44,0.185-0.88,0.371-1.319,0.556
			c0.641,0.703,1,1.548,1.077,2.537C446.606,371.078,446.851,371.079,446.854,370.914L446.854,370.914z"/>
	</g>
	<g opacity="0.4">
		<path fill="#1D1D1B" d="M453.415,382.049c-4.502,2.708-8.999,4.417-14.23,5.044c-1.527,0.183-1.623,2.483,0,2.456
			c5.36-0.091,10.787-1.745,13.882-6.376c0.674-1.009-0.429-2.125-1.462-1.902c-2.89,0.623-5.484,1.824-8.112,3.148
			c-3.824,1.926-7.565,3.151-11.579,4.524c-1.279,0.438-0.989,2.156,0.309,2.279c7.194,0.684,13.34-5.89,20.071-7.454
			c-0.487-0.634-0.975-1.268-1.462-1.902c-2.556,3.873-7.267,5.051-11.646,5.228c0.109,0.804,0.218,1.608,0.326,2.412
			c5.42-0.778,10.695-2.57,14.563-6.601C454.498,382.461,453.954,381.725,453.415,382.049L453.415,382.049z"/>
	</g>
	<g opacity="0.4">
		<path fill="#1D1D1B" d="M431.651,377.543c-1.382,1.949-1.098,4.268-0.442,6.445c0.593,1.968,2.111,5.541,4.494,5.647
			c0.401,0.018,0.733-0.348,0.734-0.734c0.005-1.745-1.751-3.204-2.556-4.682c-1.003-1.841-1.738-4.102-1.022-6.165
			C433.122,377.298,432.058,376.969,431.651,377.543L431.651,377.543z"/>
	</g>
	<g opacity="0.4">
		<path fill="#1D1D1B" d="M352.402,377.543c-2.871,3.251-6.078,6.165-8.577,9.737c-0.553,0.791,0.496,1.653,1.247,1.247
			c3.862-2.086,5.946-5.839,7.487-9.799c0.441-1.133-1.258-1.697-1.866-0.786c-1.359,2.036-2.434,4.283-3.746,6.361
			c-1.199,1.9-2.819,3.848-3.227,6.093c-0.169,0.931,0.819,1.51,1.546,0.9c1.73-1.454,2.776-3.761,3.914-5.687
			c1.277-2.162,2.748-4.43,3.379-6.879c-0.656-0.181-1.312-0.362-1.969-0.543c-1.103,3.517-3.164,6.92-6.438,8.767
			c0.416,0.416,0.832,0.831,1.247,1.247c2.343-3.482,5.042-6.72,7.669-9.99C353.441,377.746,352.811,377.081,352.402,377.543
			L352.402,377.543z"/>
	</g>
	<g opacity="0.4">
		<path fill="#1D1D1B" d="M344.984,388.529c-3.88-3.313-10.931-11.667-16.669-7.673c0.506,0.656,1.012,1.312,1.518,1.968
			c3.06-2.595,5.527-5.983,7.881-9.212c-0.43-0.251-0.859-0.502-1.289-0.754c-1.684,2.981-3.423,5.383-6.067,7.59
			c0.673,0.52,1.347,1.039,2.02,1.559c2.286-3.62,4.335-7.29,6.075-11.203c0.395-0.889-0.727-2.003-1.462-1.128
			c-2.339,2.786-4.961,5.81-6.336,9.192c-0.204,0.503,0.5,1.035,0.932,0.717c2.967-2.188,4.741-5.823,6.865-8.781
			c-0.536-0.313-1.071-0.626-1.607-0.939c-1.763,3.897-4.244,7.356-6.689,10.844c-0.896,1.278,0.974,2.431,2.02,1.559
			c2.806-2.339,4.943-5.188,5.612-8.834c0.152-0.829-0.884-1.302-1.364-0.575c-2.27,3.435-5.191,5.675-8.364,8.194
			c-1.112,0.883,0.366,2.796,1.518,1.968c4.006-2.88,11.206,4.601,14.767,6.334C344.854,389.601,345.465,388.939,344.984,388.529
			L344.984,388.529z"/>
	</g>
	<g opacity="0.4">
		<path fill="#1D1D1B" d="M335.957,369.443c-1.811,2.549-4.337,5.792-4.59,9.014c-0.032,0.408,0.555,0.652,0.82,0.34
			c1.003-1.179,1.611-2.619,2.316-3.986c0.821-1.592,1.718-3.142,2.518-4.746C337.38,369.347,336.415,368.798,335.957,369.443
			L335.957,369.443z"/>
	</g>
	<g opacity="0.4">
		<path fill="#1D1D1B" d="M394.918,304.151c-0.758,0.15-1.511,0.292-2.287,0.283c-0.205-0.003-0.409-0.023-0.61-0.061
			c-0.46-0.081-0.198-0.233-0.261,0.169c0.114-0.718,1.614-1.405,2.146-1.716c-0.541-0.22-1.082-0.44-1.623-0.661
			c0.49,2.216,0.186,4.794-2.198,4.87c-0.456,0.014-0.584-0.019-1.092-0.208c-0.078-0.029-0.322-0.263-0.344-0.297
			c-0.056-0.088-0.048-0.114-0.029,0.036c-0.048-0.364-0.059-0.071,0.054-0.452c0.149-0.504,0.914-1.204,1.441-1.653
			c0.949-0.808,2.262-1.442,3.263-0.792c0.603,0.391,0.842,1.469,0.816,2.206c-0.011,0.297-0.159,0.588-0.243,0.681
			c-0.081,0.089-0.184,0.107-0.107,0.08c-0.471,0.166-0.998,0.225-1.494,0.238c-2.355,0.06-2.788-2.651-2.594-4.423
			c-0.269,0.469-0.538,0.938-0.807,1.407c0.2-0.066,0.349-0.183,0.445-0.351c-0.223-0.072-0.211-0.045,0.036,0.083
			c0.39,0.246,0.855,0.41,1.296,0.534c1.091,0.308,1.911-1.098,1.103-1.894c-0.885-0.871-1.253-1.799-2.678-1.828
			c-0.7-0.014-1.691,0.412-2.177,0.897c-0.634,0.634-0.589,1.75-0.561,2.581c0.103,3.002,2.163,5.766,5.228,6.148
			c2.329,0.29,4.558-0.494,5.468-2.726c0.64-1.571,0.15-3.673-0.797-5.01c-2.936-4.148-9.272-1.071-10.581,3.012
			c-1.141,3.559,3.237,5.268,5.979,4.294c3.416-1.213,3.835-5.009,2.703-8.02c-0.312-0.829-1.168-1.025-1.847-0.488
			c-0.999,0.792-3.058,2.366-2.353,3.903c0.751,1.64,3.824,0.675,5.047,0.4C396.075,305.209,395.726,303.992,394.918,304.151
			L394.918,304.151z"/>
	</g>
	<g opacity="0.4">
		<path fill="#1D1D1B" d="M395.084,304.03c-0.341,0.903-0.921,2.316-2.101,2.077c-1.197-0.243-1.635-2.089-1.76-3.076
			c-0.224,0.39-0.447,0.78-0.671,1.17c1.187-0.623,2.52-0.996,3.766-0.327c1.317,0.707,1.58,2.464,1.589,3.799
			c0.368-0.483,0.736-0.967,1.104-1.451c-0.842,0.208-2.221,0.595-2.961-0.076c-0.803-0.728-0.85-2.33-1.162-3.308
			c-0.192-0.602-0.986-0.716-1.326-0.173c-1.102,1.761-1.069,4.05,0.33,5.639c1.458,1.656,4.044,1.355,5.918,0.819
			c0.624-0.178,1.133-0.781,1.104-1.451c-0.103-2.44-0.901-4.588-2.909-6.062c-2.029-1.489-4.804-0.858-6.821,0.25
			c-0.578,0.318-0.71,0.931-0.623,1.53c0.358,2.452,1.68,4.805,4.319,5.152c2.353,0.309,3.499-2.502,3.396-4.352
			C396.238,303.485,395.325,303.394,395.084,304.03L395.084,304.03z"/>
	</g>
	<g opacity="0.4">
		<path fill="#1D1D1B" d="M392.626,302.331c-1.833-10.026-2.906-20.14-3.216-30.326c-0.304-9.984-0.614-21.962,3.011-31.411
			c0.348-0.907-1.079-1.462-1.54-0.649c-2.145,3.788-4.123,7.61-5.461,11.762c-0.346,1.073,1.342,1.805,1.832,0.772
			c2.244-4.728,3.534-9.673,4.674-14.763c-0.61-0.083-1.219-0.165-1.829-0.248c0.436,4.952,1.346,10.945,5.901,13.775
			c0.456,0.283,0.884-0.258,0.682-0.682c-2.118-4.462-3.839-8.454-4.754-13.34c-0.171-0.911-1.597-0.872-1.796,0
			c-1.121,4.924-2.448,9.661-4.609,14.247c0.611,0.257,1.221,0.515,1.832,0.772c1.267-4,3.258-7.639,4.982-11.445
			c-0.513-0.216-1.026-0.433-1.54-0.649c-1.377,10.203-3.02,19.852-2.93,30.235c0.093,10.786,1.203,21.731,3.885,32.19
			C391.899,303.145,392.729,302.897,392.626,302.331L392.626,302.331z"/>
	</g>
	<g opacity="0.4">
		<path fill="#1D1D1B" d="M392.515,305.025c-13.581-11.506-33.064-10.137-47.976-19.108c-0.691-0.416-1.832,0.288-1.477,1.136
			c1.537,3.672,2.943,7.395,4.467,11.072c0.567,1.369,2.713,0.886,2.288-0.631c-1.315-4.684-3.497-8.851-5.882-13.071
			c-0.245,0.603-0.491,1.206-0.736,1.81c4.892-1.28,9.764-0.829,14.758-1.061c0.784-0.036,0.979-1.175,0.188-1.389
			c-5.206-1.41-10.462-1.851-15.601,0.074c-0.74,0.277-1.159,1.072-0.736,1.81c2.301,4.009,4.436,7.991,5.722,12.458
			c0.723-0.305,1.445-0.609,2.168-0.914c-1.55-3.673-2.899-7.42-4.798-10.932c-0.459,0.459-0.917,0.917-1.376,1.376
			c15.019,8.929,34.073,7.802,48.43,18.097C392.382,306.057,392.915,305.363,392.515,305.025L392.515,305.025z"/>
	</g>
	<g opacity="0.4">
		<path fill="#1D1D1B" d="M395.953,208.365c5.345-3.731,8.648-12.818,4.172-18.262c-3.998-4.863-11.793,0.405-11.862,5.593
			c-0.005,0.378,0.494,0.601,0.758,0.314c2.356-2.552,6.674-8.36,9.962-3.465c3.156,4.699-1.323,11.106-3.799,15.051
			C394.895,208.057,395.485,208.692,395.953,208.365L395.953,208.365z"/>
	</g>
	<g opacity="0.4">
		<path fill="#1D1D1B" d="M384.562,192.977c1.259,4.449,3.877,8.402,3.851,13.161c0.953-0.129,1.905-0.258,2.858-0.387
			c-0.908-4.719-1.316-10.36,0.101-15.024c-0.616,0-1.231,0-1.847,0c1.703,4.743,2.186,9.794,4.319,14.399
			c0.437,0.943,2.057,0.945,2.493,0c1.876-4.064,3.141-8.38,4.877-12.504c-1.007-0.136-2.013-0.272-3.02-0.409
			c-0.103,4.716-1.425,9.637-0.42,14.304c0.347,1.613,2.784,1.197,2.806-0.38c0.01-0.736,0.131-1.455,0.23-2.183
			c0.048-0.351-0.22-0.783-0.636-0.636c-1.194,0.423-1.958,1.264-2.401,2.439c0.935,0.127,1.871,0.253,2.806,0.38
			c-0.023-4.666,0.625-9.268,0.689-13.925c0.026-1.867-2.399-1.916-3.02-0.409c-1.652,4.014-3.036,8.142-4.551,12.209
			c0.88-0.115,1.759-0.23,2.639-0.345c-2.484-4.11-3.386-8.959-4.965-13.451c-0.327-0.931-1.505-0.888-1.847,0
			c-2.053,5.33-2.547,10.723-1.06,16.307c0.413,1.551,3.011,1.279,2.858-0.387c-0.459-4.997-2.884-9.497-5.502-13.692
			C385.412,191.791,384.345,192.21,384.562,192.977L384.562,192.977z"/>
	</g>
	<g opacity="0.4">
		<path fill="#1D1D1B" d="M403.792,188.062c-6.115-0.334-12.416,0.371-18.566,0.31c-1.966-0.02-1.957,2.987,0,3.043
			c5.116,0.146,10.029,2.131,15.085,2.068c0.562-0.007,0.965-0.771,0.487-1.176c-4.089-3.468-10.41-3.894-15.572-3.935
			c0,1.014,0,2.029,0,3.043c6.078-0.064,13.225,0.427,18.905-2.103C404.788,189.02,404.397,188.095,403.792,188.062L403.792,188.062
			z"/>
	</g>
	<g opacity="0.4">
		<path fill="#1D1D1B" d="M399.178,193.374c0.279,3.038-0.039,6.201-0.272,9.234c-0.125,1.627-1.334,5.658,0.095,6.927
			c0.321,0.285,0.874,0.449,1.258,0.162c1.68-1.254,1.048-5.253,1.094-7.09c0.078-3.102,0.289-6.67-1.146-9.513
			C399.968,192.618,399.128,192.827,399.178,193.374L399.178,193.374z"/>
	</g>
	<g opacity="0.4">
		<path fill="#1D1D1B" d="M400.563,206.869c-4.52-2.71-10.233-2.651-15.337-2.683c-1.63-0.01-1.762,2.175-0.365,2.696
			c1.352,0.504,2.31,0.479,3.572-0.219c0.402-0.222,0.387-0.823,0-1.049c-0.818-0.477-1.665-0.824-2.515-1.241
			c-0.231,0.852-0.462,1.705-0.693,2.557c4.977-0.026,10.057-0.173,14.953,0.849C400.723,207.894,401.063,207.168,400.563,206.869
			L400.563,206.869z"/>
	</g>
	<g opacity="0.4">
		<path fill="#1D1D1B" d="M395.18,209.04c0.005,0.057,0.008,0.115,0.011,0.172c0.051-0.122,0.101-0.244,0.152-0.367
			c-0.093,0.098-0.17,0.2-0.237,0.317c0.094-0.094,0.187-0.187,0.281-0.281c-0.444,0.315-0.526,0.809-0.565,1.319
			c-0.004,0.046-0.044,0.368-0.003,0.076c-0.012,0.083-0.03,0.166-0.046,0.248c-0.093,0.466,0.003,0.925,0.35,1.264
			c0.346,0.339,0.934,0.451,1.356,0.175c0.69-0.451,0.709-1.15,0.495-1.865c-0.148-0.493-0.423-1.165-0.983-1.297
			c0.115,0.067,0.23,0.134,0.346,0.201c-0.157-0.124-0.303-0.214-0.489-0.292c0.121,0.121,0.241,0.241,0.362,0.362
			c-0.038-0.094-0.077-0.188-0.118-0.281C395.9,208.346,395.143,208.571,395.18,209.04L395.18,209.04z"/>
	</g>
	<g opacity="0.4">
		<path fill="#1D1D1B" d="M391.625,206.97c-0.87,1.519-0.766,3.463,1.033,4.213c0.291,0.121,0.61-0.234,0.513-0.513
			c-0.191-0.547-0.444-1.074-0.583-1.637c-0.123-0.498,0.056-1.098,0.23-1.559C393.085,206.767,391.984,206.342,391.625,206.97
			L391.625,206.97z"/>
	</g>
	<g opacity="0.4">
		<path fill="#1D1D1B" d="M425.549,212.932c-0.242-0.717-0.484-1.434-0.727-2.151c-0.412,0.171-0.823,0.341-1.235,0.511
			c3.228,3.164,7.606,4.847,11.616,6.804c5.248,2.561,10.252,5.936,15.082,9.203c10.29,6.958,19.647,15.262,28.43,24.017
			c0.618-0.801,1.236-1.602,1.854-2.403c-8.09-5.89-15.697-12.377-24.925-16.453c-0.497-0.219-0.893,0.423-0.43,0.736
			c8.311,5.619,15.682,12.489,23.811,18.359c1.437,1.038,3.061-1.209,1.854-2.403c-8.172-8.081-16.853-15.562-26.21-22.241
			c-9.487-6.772-19.709-11.805-30.206-16.755c-0.653-0.308-1.337,0.319-0.99,0.99c0.715,1.381,0.445,0.955,1.548,2.193
			C425.287,213.635,425.718,213.257,425.549,212.932L425.549,212.932z"/>
	</g>
	<g opacity="0.4">
		<path fill="#1D1D1B" d="M423.33,210.429c3.773-5.536,12.127-5.595,18.089-5.488c6.677,0.12,13.027,1.331,19.064,4.182
			c7.29,3.443,13.446,8.857,17.484,15.842c4.298,7.433,3.774,15.301,3.815,23.529c0.005,1.089,1.443,1.173,1.799,0.243
			c7.085-18.506-8.124-36.528-24.109-43.459c-6.628-2.874-14.38-3.432-21.522-3.173c-5.63,0.204-13.884,1.541-15.45,7.975
			C422.377,210.594,423.044,210.849,423.33,210.429L423.33,210.429z"/>
	</g>
	<g opacity="0.4">
		<path fill="#1D1D1B" d="M473.713,245.674c2.603-7.369,7.251-15.151,3.583-22.943c-0.242-0.515-0.917-0.118-0.845,0.356
			c1.219,8.086-2.089,14.64-3.333,22.423C473.057,245.899,473.579,246.054,473.713,245.674L473.713,245.674z"/>
	</g>
	<g opacity="0.4">
		<path fill="#1D1D1B" d="M465.774,211.941c0.218-2.55,3.268-5.084,5.031-6.672c0.76-0.684,0.2-2.206-0.87-2.101
			c-1.786,0.174-3.518,0.859-4.704,2.247c-1.057,1.236-1.909,3.403-1.26,4.991c0.204,0.499,0.856,0.811,1.288,0.34
			c0.829-0.904,1.062-2.211,1.657-3.272c0.703-1.254,2.072-1.537,3.347-1.888c-0.399-0.686-0.798-1.372-1.198-2.057
			c-2.152,2.454-4.195,5.028-4.252,8.413C464.802,212.569,465.722,212.548,465.774,211.941L465.774,211.941z"/>
	</g>
	<g opacity="0.4">
		<path fill="#1D1D1B" d="M361,214.326c-9.619-1.363-18.979,4.744-26.432,10.053c-8.872,6.32-17.622,14.248-23.558,23.465
			c0.784,0.33,1.568,0.661,2.352,0.991c3.603-10.243,12.833-17.611,21.586-23.406c8.388-5.554,17.736-10.058,27.398-12.881
			c0.718-0.21,1.2-1.139,0.736-1.809c-7.811-11.297-21.357-10.644-32.729-5.415c-10.823,4.976-24.825,17.205-23.707,30.405
			c0.074,0.879,1.45,1.205,1.638,0.222c2.254-11.791,10.311-20.764,20.443-26.752c10.239-6.051,24.54-8.24,32.228,2.784
			c0.245-0.603,0.491-1.206,0.736-1.809c-10.793,3.201-21.034,8.365-30.32,14.693c-8.536,5.817-16.852,13.374-20.49,23.285
			c-0.527,1.436,1.585,2.147,2.352,0.992c5.649-8.515,13.434-15.653,21.479-21.861c7.11-5.487,16.748-12.203,26.146-11.905
			C361.451,215.395,361.603,214.411,361,214.326L361,214.326z"/>
	</g>
	<g opacity="0.4">
		<path fill="#1D1D1B" d="M307.997,243.271c-0.704-5.635,2.004-11.21,2.348-16.826c0.081-1.32-1.826-1.455-2.208-0.299
			c-2.109,6.383-2.468,13.376-3.091,20.025c0.849,0,1.699,0,2.548,0c0.156-5.514,2.065-10.251,3.338-15.514
			c0.123-0.508-0.58-1.036-0.954-0.556c-3.546,4.545-4.812,10.408-4.932,16.069c-0.035,1.665,2.409,1.611,2.548,0
			c0.568-6.556,1.21-13.01,2.711-19.428c-0.736-0.1-1.472-0.199-2.208-0.299c-0.063,5.792-2.291,11.172-1.115,16.963
			C307.097,243.975,308.069,243.851,307.997,243.271L307.997,243.271z"/>
	</g>
	<g opacity="0.4">
		<path fill="#1D1D1B" d="M322.627,206.344c-0.719-1.488-1.67-3.057-3.28-3.681c-1.285-0.498-2.382,0.393-2.838,1.529
			c-0.585,1.458,0.083,3.179,0.767,4.47c0.974,1.837,3.558,4.876,5.869,4.602c0.455-0.054,0.878-0.437,0.717-0.941
			c-0.52-1.622-2.465-2.687-3.553-3.948c-0.79-0.915-1.436-1.996-1.611-3.205c-0.035-0.24-0.002-0.513,0.02-0.561
			c0.061-0.126-0.018-0.079,0.106-0.056c1.119,0.206,1.98,1.681,2.518,2.54C321.857,207.915,323.041,207.2,322.627,206.344
			L322.627,206.344z"/>
	</g>
	<g opacity="0.4">
		<path fill="#1D1D1B" d="M333.153,223.98c0.627,0.677,1.536,1.2,1.705,2.175c0.216,1.237,2.144,0.911,2.141-0.29
			c-0.001-0.235-0.019-0.465-0.03-0.699c-0.005-0.107,0.073-0.384-0.029-0.177c-0.168,0.122-0.336,0.244-0.504,0.366
			c-0.199,0.017-0.229,0.026-0.092,0.027c0.284,0.013,0.543-0.066,0.772-0.23c-0.262,0.034-0.525,0.069-0.787,0.103
			c0.536,0.119,1.144,0.362,1.654,0.021c0.345-0.231,0.458-0.73,0.134-1.039c-0.164-0.156,0.399,0.347-0.104-0.128
			c-0.08-0.075-0.156-0.152-0.23-0.232c-0.18-0.193-0.441-0.35-0.667-0.488c0.156,0.203,0.313,0.407,0.469,0.61
			c-0.357-1.065-1.624-1.303-2.446-0.592c-0.751,0.649-0.593,1.925-0.282,2.748c0.607-0.354,1.215-0.707,1.822-1.061
			c-0.83-0.76-1.796-1.276-2.656-1.986C333.419,222.609,332.604,223.388,333.153,223.98L333.153,223.98z"/>
	</g>
	<g opacity="0.4">
		<path fill="#1D1D1B" d="M388.935,215.444c3.209,1.784,6.741,1.773,10.335,1.867c5.757,0.15,11.418,1.225,16.959,2.754
			c10.514,2.901,20.067,8.568,28.598,15.251c15.257,11.951,25.956,28.589,31.151,47.211c5.254,18.831,3.325,39.01-6.128,56.175
			c-4.277,7.767-10.318,14.364-17.109,19.998c-7.509,6.23-16.275,10.308-24.528,15.377c-0.988,0.607-0.352,2.268,0.803,1.906
			c17.092-5.359,32.908-18.123,42.414-33.179c10.673-16.905,12.905-37.62,8.871-56.911c-4.122-19.712-15.312-38.12-30.694-51.048
			c-7.965-6.695-16.77-12.161-26.466-15.957c-5.107-1.999-10.581-3.409-16.024-4.089c-5.783-0.722-12.022,0.73-17.646-0.629
			C388.716,213.986,388.227,215.051,388.935,215.444L388.935,215.444z"/>
	</g>
	<g opacity="0.4">
		<path fill="#1D1D1B" d="M335.69,234.193c-29.458,20.191-36.596,59.153-26.401,91.875c5.088,16.333,14.863,31.065,28.429,41.537
			c6.966,5.377,15.041,9.209,23.483,11.614c12.995,3.702,28.169,7.631,41.637,4.623c0.858-0.192,0.656-1.524-0.205-1.514
			c-13.889,0.163-27.2-2.702-40.559-6.274c-7.901-2.113-15.249-5.864-21.852-10.65c-13.456-9.752-22.698-24.575-27.767-40.209
			c-10.229-31.547-2.58-68.855,23.764-90.32C336.6,234.564,336.096,233.915,335.69,234.193L335.69,234.193z"/>
	</g>
	<g opacity="0.4">
		<path fill="#1D1D1B" d="M404.373,382.02c10.709,0.032,21.233-2.192,29.318-9.637c0.364-0.335-0.111-0.95-0.527-0.684
			c-9.054,5.794-18.001,8.732-28.79,8.997C403.521,380.717,403.518,382.017,404.373,382.02L404.373,382.02z"/>
	</g>
	<g opacity="0.4">
		<path fill="#1D1D1B" d="M394.509,220.471c28.698,0.992,54.015,17.133,67.339,42.487c6.54,12.445,9.427,26.584,9.024,40.583
			c-0.5,17.401-7.059,31.943-16.359,46.29c-0.243,0.375,0.307,0.788,0.612,0.472c21.839-22.552,22.145-60.324,9.081-87.215
			c-12.948-26.653-40.055-43.922-69.697-43.433C393.982,219.664,393.985,220.453,394.509,220.471L394.509,220.471z"/>
	</g>
	<g opacity="0.4">
		<path fill="#1D1D1B" d="M350.995,232.61c-10.468-0.352-18.272,9.246-23.514,17.207c-5.864,8.905-11.607,20.844-11.588,31.747
			c0,0.319,0.509,0.406,0.57,0.077c1.822-9.832,5.29-19.21,10.218-27.914c5.279-9.323,13.181-18.923,24.372-20.69
			C351.304,232.998,351.23,232.618,350.995,232.61L350.995,232.61z"/>
	</g>
	<g opacity="0.4">
		<path fill="#1D1D1B" d="M327.655,306.677c-0.438,0.585-0.2,1.516-0.598,2.007c0.417-0.054,0.834-0.108,1.252-0.161
			c-0.613-0.45-2.713-1.785-2.501-2.665c0.121-0.502,1.373-0.799,1.906-0.919c0.397-0.089,0.773-0.125,1.213-0.141
			c0.189-0.007,0.378,0.002,0.566,0.018c-0.216-0.033-0.246-0.033-0.088-0.001c0.78,0.265,0.583-0.439-0.591-2.111
			c-0.643,0.747-0.724,1.673-0.598,2.61c0.055,0.412,0.139,0.816,0.23,1.221c0.132,0.588,0.225,0.225-0.129,0.507
			c0.404-0.167,0.808-0.335,1.212-0.502c-0.807,0.016-1.609,0.159-2.417,0.195c-0.259,0.012-0.855,0.021-0.966-0.028
			c0.19,0.085,0.273,0.858,0.34,0.571c0.07-0.3,0.278-0.614,0.403-0.896c0.366-0.826,0.704-2.092,1.265-2.706
			c0.523-0.573,2.25-0.545,3.026-0.966c0.526-0.286,0.661-1.116,0.196-1.523c-1.684-1.476-4.489-1.396-5.988,0.321
			c-0.724,0.829-1.072,1.888-1.475,2.893c-0.456,1.137-1.241,2.306-0.893,3.591c0.625,2.303,3.185,2.351,5.132,2.127
			c1.084-0.125,1.975-0.143,2.854-0.872c1.049-0.87,0.964-2.43,0.697-3.609c-0.069-0.304-0.348-1.001-0.325-1.146
			c0.079-0.487,0.504-0.805,0.269-1.399c-0.27-0.684-0.759-1.191-1.512-1.294c-1.466-0.2-2.904,0.225-4.237,0.81
			c-1.354,0.595-2.511,1.673-2.613,3.212c-0.14,2.118,2.405,3.682,3.983,4.484c0.482,0.245,1.142,0.15,1.413-0.371
			c0.402-0.773,0.012-1.745,0.401-2.426C329.621,306.561,328.276,305.847,327.655,306.677L327.655,306.677z"/>
	</g>
	<g opacity="0.4">
		<path fill="#1D1D1B" d="M453.981,297.521c-0.626,0.71-1.385,1.28-2.352,1.383c-0.316,0.034-0.631,0-0.946-0.021
			c-0.358-0.024-0.464-0.274-0.199,0.094c0.138,0.313,0.135,0.593-0.007,0.842c0.261-0.267,0.517-0.525,0.796-0.772
			c0.124-0.11,0.812-0.441,0.67-0.47c-0.678-0.136-0.339-0.754-0.61,0.073c-0.188,0.573-0.654,1.12-1.027,1.579
			c0.836,0.221,1.673,0.442,2.509,0.662c-0.316-0.833-0.707-2.055-0.59-2.791c0.033-0.21,0.185-0.409-0.02-0.154
			c-0.062,0.047-0.131,0.076-0.208,0.086c0.173-0.048,0.197-0.055,0.073-0.019c0.628-0.031,1.204,0.54,1.784,0.719
			c-0.318-0.098-0.513-0.789-0.523-0.912c-0.015-0.201,0.255-0.572,0.044-0.341c-0.24,0.263-0.563,0.467-0.95,0.627
			c-1.072,0.444-2.234,0.604-3.379,0.646c-0.598,0.022-1.002,0.663-0.689,1.2c2.505,4.294,10.554-1.107,7.409-3.662
			c-1.436-1.167-4.443-2.166-5.819-0.402c-1.29,1.654-0.737,4.012-0.028,5.801c0.363,0.918,1.731,1.647,2.509,0.663
			c1.244-1.575,2.673-3.99,1.169-5.85c-1.512-1.87-4.3,0.65-5.088,1.959c-0.901,1.496,0.63,2.547,2.002,2.509
			c1.727-0.047,3.428-1.433,4.109-2.956C454.797,297.623,454.311,297.147,453.981,297.521L453.981,297.521z"/>
	</g>
	<g opacity="0.4">
		<path fill="#1D1D1B" d="M392.189,229.782c-0.295-0.02-0.528-0.276-0.766-0.431c-0.11-0.072-0.045-0.034-0.106-0.258
			c0.067,0.246,0.011-0.032,0.015-0.105c-0.012,0.271,0.034-0.051,0.051-0.105c-0.078,0.24,0.06-0.081,0.08-0.115
			c-0.112,0.182,0.147-0.151,0.197-0.197c-0.175,0.162,0.128-0.07,0.15-0.083c0.321-0.185-0.194,0.049,0.168-0.058
			c0.169-0.05,0.251-0.051,0.566,0.034c0.733,0.197,1.369,1.009,1.803,1.656c0.441-0.768,0.882-1.537,1.323-2.305
			c-0.544,0.072-1.087,0.147-1.631,0.214c-0.189,0.023-0.376,0.042-0.566,0.049c-0.158,0.005,0.116,0.051,0.245,0.109
			c-0.199-0.089,0.262,0.266-0.047-0.044c-0.123-0.123-0.233-0.261-0.345-0.394c-0.373-0.441-0.755-0.869-1.158-1.283
			c0,0.76,0,1.52,0,2.28c0.296-0.286,0.587-0.582,0.927-0.815c0.402-0.275-0.166,0.002,0.195-0.109
			c-0.077,0.024-0.588-0.063-0.28,0.015c0.413,0.105-0.109-0.068,0.331,0.13c0.45,0.202,0.902,0.248,1.388,0.245
			c0.422-0.002,0.966-0.241,1.143-0.656c-0.153,0.214-0.137,0.198,0.047-0.046c0.141-0.241,0.14-0.474,0.097-0.741
			c0.066,0.233,0.063,0.155-0.01-0.233c-0.08-0.29-0.258-0.49-0.45-0.708c-0.437-0.495-0.93-0.888-1.568-1.099
			c-1.644-0.545-3.017,0.661-4.1,1.737c-0.623,0.62-0.619,1.66,0,2.28c0.689,0.69,1.373,1.827,2.3,2.229
			c1.262,0.548,2.603,0.111,3.889-0.151c1.254-0.255,1.317-1.734,0.676-2.56c-1-1.288-2.318-2.4-3.993-2.575
			c-1.141-0.119-2.355,0.35-3.074,1.255c-0.719,0.904-1.021,2.084-0.504,3.164c0.209,0.437,0.633,0.795,1.066,0.995
			c0.692,0.32,1.223,0.146,1.941,0.13C393.131,231.21,393.114,229.845,392.189,229.782L392.189,229.782z"/>
	</g>
	<g opacity="0.4">
		<path fill="#1D1D1B" d="M394.839,360.822c-0.18,0.977-0.35,2.125-1.11,2.838c-0.09,0.084,0.047,0.033-0.069,0
			c0.072,0.02-0.22-0.226-0.394-0.426c-0.652-0.754-0.812-2.295-0.103-3.021c0.145-0.149,0.629-0.386,0.616-0.382
			c0.3-0.106-0.068-0.009-0.186-0.033c-0.188-0.039-0.307-0.169-0.413-0.315c0.211,0.293-0.081-0.295,0.046,0.083
			c0.045,0.135,0.07,0.277,0.095,0.416c-0.06-0.325,0.006,0.196,0.008,0.216c0.013,0.23,0.013,0.461,0.013,0.691
			c0.002,0.712-0.093,1.568-0.154,1.97c-0.039,0.255-0.085,0.51-0.136,0.763c-0.122,0.612-0.324,0.442,0.294-0.23
			c0.864,0.111,1.729,0.223,2.593,0.334c0.223,0.955,0.277,1.077,0.161,0.366c-0.087-0.318-0.266-0.588-0.51-0.804
			c-0.341-0.302-0.728-0.499-1.169-0.615c-0.626-0.165-1.274-0.108-1.906-0.031c-0.239,0.029-0.478,0.058-0.718,0.076
			c-0.121,0.009-0.242,0.007-0.363,0c0.63,0.032,1.075,0.544,1.128,1.187c0.033,0.394,0.13-0.345,0.182-0.542
			c0.154-0.582,0.359-1.119,0.323-1.734c-0.034-0.578-0.534-0.989-1.113-0.848c-1.78,0.436-4.076,3.643-1.714,4.927
			c0.675,0.367,1.386,0.363,2.125,0.28c0.305-0.034,0.609-0.07,0.915-0.087c0.547-0.031,0.413,0.092,0.061-0.203
			c-0.161-0.389-0.322-0.778-0.484-1.168c0.026,0.334,0.053,0.571,0.231,0.861c0.526,0.857,1.875,1.159,2.593,0.334
			c0.608-0.698,0.625-1.71,0.734-2.585c0.148-1.184,0.166-2.346,0.001-3.528c-0.17-1.215-0.782-2.197-1.928-2.671
			c-1.319-0.545-2.961,0.703-3.693,1.673c-1.498,1.985-0.846,5.384,1.126,6.836c0.927,0.682,2.104,0.739,3.021,0.022
			c1.24-0.97,1.435-2.987,1.588-4.423C396.634,360.086,395.014,359.872,394.839,360.822L394.839,360.822z"/>
	</g>
	<g opacity="0.4">
		<path fill="#1D1D1B" d="M430.924,350.906c-0.039-0.1-0.072-0.198-0.098-0.303c0.038,0.154-0.002,0.264-0.067,0.404
			c-0.019,0.039-0.331,0.285-0.146,0.156c0.074-0.051,0.148-0.095,0.227-0.138c0.281-0.151-0.207,0.073,0.13-0.059
			c0.165-0.065,0.328-0.125,0.491-0.195c0.423-0.181,0.663-0.421,0.84-0.853c-0.135,0.175-0.27,0.351-0.405,0.526
			c0.301-0.231,0.541-0.432,0.771-0.735c0.21-0.277-0.02-0.671-0.309-0.759c-0.303-0.093-0.592-0.117-0.906-0.146
			c0.148,0.04,0.296,0.08,0.444,0.12c-0.605-0.438-1.914-0.095-2.49,0.332c-0.846,0.628-0.909,1.583-0.422,2.468
			C429.555,352.757,431.367,352.041,430.924,350.906L430.924,350.906z"/>
	</g>
	<g opacity="0.4">
		<path fill="#1D1D1B" d="M439.373,338.032c0.416-0.4,0.829-0.663,1.278-1.115c0.59-0.595,1.102-1.275,0.921-2.153
			c-0.068-0.326-0.502-0.604-0.825-0.469c-0.598,0.251-0.949,0.706-1.457,1.08c-0.493,0.363-1.012,0.691-1.455,1.118
			C436.823,337.469,438.363,339.005,439.373,338.032L439.373,338.032z"/>
	</g>
	<g opacity="0.4">
		<path fill="#1D1D1B" d="M444.025,261.838c0.015-0.123,0.094-0.147-0.057-0.015c0.268-0.236-0.185,0.012-0.292,0.074
			c0.138-0.038,0.277-0.075,0.415-0.112c-0.044-0.003-0.088-0.005-0.132-0.008c-0.557-0.034-0.962,0.673-0.652,1.137
			c0.19,0.285,0.321,0.503,0.668,0.625c0.352,0.125,0.765,0.089,1.095-0.094c0.589-0.325,0.858-0.959,0.877-1.607
			c0.016-0.524-0.449-0.961-0.961-0.961C444.415,260.877,444.088,261.318,444.025,261.838L444.025,261.838z"/>
	</g>
	<g opacity="0.4">
		<path fill="#1D1D1B" d="M431.635,254.557c-0.059-0.345-0.197-0.58-0.411-0.855c-0.323-0.415-1.163-0.415-1.486,0
			c-0.214,0.275-0.352,0.51-0.411,0.855c-0.129,0.755,0.318,1.515,1.154,1.515C431.317,256.072,431.765,255.312,431.635,254.557
			L431.635,254.557z"/>
	</g>
	<g opacity="0.4">
		<path fill="#1D1D1B" d="M356.543,239.79c-0.062,0.734-0.08,1.475-0.21,2.193c-0.063,0.349,0.213,0.697,0.591,0.591
			c1.165-0.326,1.373-1.749,1.286-2.784C358.121,238.716,356.634,238.717,356.543,239.79L356.543,239.79z"/>
	</g>
	<g opacity="0.4">
		<path fill="#1D1D1B" d="M341.304,256.036c0.036,0.614,0.263,1.023,0.757,1.381c0.089,0.063,0.101,0.07,0.034,0.021
			c-0.125-0.105,0.328,0.297,0.3,0.281c0.29,0.17,0.591,0.138,0.881,0c0.37-0.177,0.469-0.623,0.401-0.986
			c-0.038-0.202-0.13-0.391-0.242-0.563c-0.035-0.05-0.069-0.101-0.102-0.153c-0.094-0.145-0.082-0.275-0.053,0.019
			c-0.053-0.536-0.409-0.988-0.988-0.988C341.777,255.048,341.272,255.497,341.304,256.036L341.304,256.036z"/>
	</g>
	<g opacity="0.4">
		<path fill="#1D1D1B" d="M341.802,330.881c0.032-0.203,0.001-0.181-0.093,0.066c0.071-0.067,0.122-0.145,0.155-0.235
			c0.08-0.124,0.047-0.102-0.098,0.069c-0.13,0.017-0.261,0.035-0.391,0.052c0.25,0.025,0.302,0.035,0.157,0.029
			c0.323,0.075,0.81,0.365,1.221,0.448c0.338,0.068,0.623-0.203,0.546-0.547c-0.191-0.86-0.969-1.714-1.924-1.571
			c-0.877,0.131-0.937,1.003-0.915,1.689C340.488,331.753,341.74,331.737,341.802,330.881L341.802,330.881z"/>
	</g>
	<g opacity="0.4">
		<path fill="#1D1D1B" d="M351.437,350.745c0.908,0.871,2.404,1.136,3.037-0.178c0.324-0.672-0.199-1.352-0.931-1.212
			c-0.183,0.035-0.399,0.018-0.592,0.082c0.024-0.04,0.066-0.036,0.124,0.013c-0.078-0.033-0.145-0.08-0.201-0.142
			C351.901,348.447,350.485,349.832,351.437,350.745L351.437,350.745z"/>
	</g>
	<g>
		<path fill="#1D1D1B" d="M370.457,218.283c44.366-20.105,98.147,17.481,107.675,62.188c9.897,46.441-23.658,94.573-71.167,99.386
			c-3.364,0.341-6.759,0.395-10.135,0.531c-1.25,0.05-1.25,1.89,0,1.94c43.774,1.764,79.516-33.268,84.689-75.662
			c5.33-43.679-28.047-85.024-70.041-94.679c-14.14-3.251-28.881-1.757-41.652,5.216
			C369.105,217.596,369.737,218.609,370.457,218.283L370.457,218.283z"/>
	</g>
	<g>
		<path fill="#1D1D1B" d="M392.769,380.814c-20.625,1.928-39.506-2.768-55.28-16.599c-14.985-13.139-24.319-32.1-27.671-51.555
			c-3.907-22.68-1.138-48.709,13.75-66.892c14.951-18.259,35.621-27.375,58.302-31.632c0.541-0.102,0.388-0.911-0.125-0.926
			c-23.151-0.686-45.702,13.385-60.221,30.513c-15.705,18.526-18.013,45.001-14.371,68.277
			c6.229,39.808,42.302,79.823,85.761,69.882C393.505,381.747,393.384,380.757,392.769,380.814L392.769,380.814z"/>
	</g>
	<g>
		<path fill="#1D1D1B" d="M434.867,233.664c24.536,21.069,43.13,52.003,34.654,85.346c-4.093,16.099-15.139,28.908-27.832,39.067
			c-13.478,10.787-28.27,17.659-45.439,19.464c-0.354,0.037-0.483,0.566-0.089,0.659c7.218,1.708,15.036-0.784,21.737-3.369
			c8.695-3.354,16.782-8.275,24.211-13.854c13.573-10.193,24.663-23.495,29.607-39.93c9.668-32.137-8.123-71.122-36.411-87.953
			C434.958,232.888,434.549,233.392,434.867,233.664L434.867,233.664z"/>
	</g>
	<g>
		<path fill="#1D1D1B" d="M384.066,378.203c-26.641-0.479-47.966-22.147-59.936-44.406c-12.411-23.079-9.557-54.955,1.563-77.87
			c0.432-0.891-0.78-2.02-1.467-1.132c-8.915,11.532-10.28,27.876-10.548,42.001c-0.243,12.824,2.309,25.307,7.978,36.831
			c6.128,12.455,16.066,23.846,26.647,32.715c10.095,8.462,22.459,13.641,35.763,12.368
			C384.386,378.68,384.399,378.209,384.066,378.203L384.066,378.203z"/>
	</g>
	<g>
		<path fill="#1D1D1B" d="M329.854,247.66c12.757-13.804,29.358-24.104,48.278-26.032c9.443-0.962,20.153-0.633,29.389,1.537
			c8.205,1.928,15.305,6.781,23.413,8.966c0.535,0.144,0.83-0.591,0.37-0.878c-7.506-4.689-16.051-8.621-24.687-10.654
			c-9.544-2.247-20.585-2.073-30.283-1.131c-19.083,1.853-35.424,12.861-47.134,27.538
			C328.838,247.46,329.441,248.107,329.854,247.66L329.854,247.66z"/>
	</g>
	<g>
		<path fill="#1D1D1B" d="M391.654,305.352c-0.467-0.732-0.74-0.637-0.82,0.287c-0.676,1.766,0.65,0.195,0.194,0.153
			c0.434,0.434,0.868,0.867,1.301,1.301c0.161-1.4,0.313-3.116,0.042-4.509c-0.69,0.53-1.38,1.061-2.07,1.591
			c0.807,0.391,2.114,1.03,2.558,1.813c0.174-0.664,0.348-1.327,0.522-1.991c-0.063,0.032-0.125,0.064-0.188,0.096
			c-0.598,0.306-0.806,1.031-0.67,1.646c-0.322-0.976-0.377-1.148-0.163-0.514c0.228,0.561,0.457,1.122,0.685,1.683
			c0.188-0.613,0.341-1.235,0.461-1.864c0.241-0.809-0.048-0.656-0.867,0.458c0.972,0.062,1.925-0.184,2.861-0.401
			c-0.634-0.634-1.267-1.268-1.901-1.901c-0.405,1.511-0.811,1.834-2.2,2.542c0.784,0.45,1.569,0.9,2.353,1.35
			c-0.151-1.359-0.414-2.705-0.565-4.061c-0.666,0.508-1.332,1.015-1.998,1.522c-1.184-0.187-0.268,0.435,0.048,1.221
			c0.63,1.567,3.158,1.499,3.121-0.422c-0.111-5.633-0.802-11.124-0.709-16.808c0.093-5.71,0.121-11.423,0.139-17.134
			c0.035-11.329-0.49-22.703-1.948-33.941c-0.114-0.88-1.294-1.141-1.595-0.216c-1.628,5.005-3.079,10.065-4.759,15.053
			c0.6,0.165,1.201,0.331,1.801,0.497c0.793-4.722,2.254-9.305,3.649-13.879c-0.712,0-1.424,0-2.136,0
			c1.095,5.133,3.516,10.07,7.591,13.489c1.403,1.177,3.419-0.758,2.039-2.038c-3.559-3.299-6.023-7.426-7.494-12.04
			c-0.316-0.992-1.886-1.121-2.136,0c-1.047,4.691-2.641,9.194-3.314,13.971c-0.164,1.162,1.429,1.677,1.801,0.497
			c1.579-5.018,2.893-10.116,4.524-15.118c-0.532-0.072-1.064-0.144-1.595-0.216c1.37,11.288,1.497,22.587,1.534,33.941
			c0.019,5.711-0.048,11.423-0.078,17.134c-0.029,5.593-0.642,11.261-0.491,16.808c1.04-0.141,2.08-0.281,3.12-0.422
			c-0.44-1.071-0.892-3.214-2.272-3.421c-0.897-0.135-2.132,0.398-1.999,1.522c0.161,1.359,0.435,2.705,0.596,4.061
			c0.14,1.183,1.217,1.939,2.353,1.35c2.208-1.146,2.978-2.022,3.602-4.42c0.303-1.165-0.755-2.176-1.901-1.901
			c-3.414,0.819-3.619,0.37-4.508,3.995c-0.154,0.63,0.086,1.366,0.685,1.683c1.464,0.774,3.01-0.354,4.134-1.29
			c0.397-0.331,0.492-0.947,0.375-1.419c-0.01-0.042-0.021-0.084-0.031-0.126c-0.223,0.549-0.446,1.097-0.67,1.646
			c0.062-0.034,0.124-0.067,0.186-0.101c0.691-0.375,0.919-1.326,0.522-1.991c-0.745-1.246-2.363-2.191-3.648-2.778
			c-1.126-0.513-2.349,0.314-2.07,1.591c0.253,1.157-0.065,2.559,0.072,3.76c0.075,0.651,0.537,1.372,1.301,1.301
			c0.193-0.018,0.387-0.036,0.58-0.054c0.5-0.046,1.125-0.341,1.203-0.916c0.12-0.883,0.224-1.768,0.338-2.652
			c0.058-0.45-0.344-0.78-0.705-0.926c-0.911-0.368-1.045-0.369-1.887,0.052c-0.301,0.15-0.442,0.551-0.351,0.863
			c0.073,0.253,0.146,0.505,0.22,0.758C390.628,306.219,391.608,306.045,391.654,305.352L391.654,305.352z"/>
	</g>
	<g>
		<path fill="#1D1D1B" d="M388.575,238.149c-1.358,0.314-1.611,2.08-2.005,3.208c-0.819,2.346-1.332,4.849-2.394,7.103
			c-0.658,1.398,1.35,2.625,2.099,1.227c2.186-4.077,2.431-9.013,5.274-12.734c-0.734,0-1.469,0-2.203,0
			c2.836,5.132,5.581,10.374,9.336,14.91c0.481-0.826,0.962-1.652,1.443-2.478c-4.79-1.687-9.953-1.911-14.729-0.059
			c0.581,0.756,1.162,1.512,1.743,2.268c1.217-2.209,2.883-4.063,4.424-6.046c-0.826-0.637-1.652-1.275-2.478-1.912
			c-1.249,1.996-2.247,4.208-2.182,6.598c0.033,1.21,1.648,1.68,2.281,0.618c1.067-1.792,1.526-3.831,2.626-5.623
			c1.096-1.784-1.529-3.158-2.725-1.593c-1.607,2.103-3.349,4.059-4.612,6.399c-0.582,1.078,0.398,2.803,1.744,2.268
			c4.313-1.715,8.766-1.55,13.12-0.059c1.524,0.522,2.32-1.438,1.443-2.478c-3.645-4.327-6.478-9.177-9.23-14.1
			c-0.512-0.915-1.654-0.726-2.203,0c-2.862,3.784-3.022,8.67-5.17,12.795c0.7,0.409,1.4,0.818,2.099,1.227
			c0.855-1.874,1.389-3.876,1.953-5.852c0.469-1.643,1.167-3.534,0.978-5.205C389.169,238.303,388.917,238.07,388.575,238.149
			L388.575,238.149z"/>
	</g>
	<g>
		<path fill="#1D1D1B" d="M389.562,302.562c-12.792-8.249-29.666-7.186-43.255-13.788c-0.997-0.484-1.883,0.474-1.447,1.447
			c1.52,3.394,3.096,6.73,4.305,10.254c0.546,1.591,2.81,0.95,2.5-0.689c-0.787-4.167-2.855-7.615-4.678-11.389
			c-0.28,0.688-0.56,1.377-0.84,2.065c2.563-0.538,5.129-0.939,7.749-1.029c-0.428-0.746-0.856-1.492-1.284-2.238
			c-1.774,3.537-3.47,7.069-4.819,10.791c-0.583,1.608,2.083,2.74,2.771,1.168c1.122-2.566,1.825-5.181,2.493-7.899
			c-1.006-0.136-2.011-0.272-3.017-0.408c-0.005,1.992,0.04,3.586,0.583,5.484c0.27,0.944,1.636,0.944,1.906,0
			c0.543-1.898,0.588-3.492,0.583-5.484c-0.004-1.716-2.606-2.116-3.017-0.408c-0.589,2.452-1.143,4.856-2.149,7.186
			c0.924,0.389,1.847,0.779,2.771,1.168c1.243-3.484,2.825-6.786,4.464-10.096c0.475-0.958-0.087-2.285-1.285-2.238
			c-2.888,0.113-5.694,0.587-8.496,1.292c-0.9,0.226-1.27,1.286-0.84,2.065c1.893,3.431,3.811,6.78,4.605,10.659
			c0.833-0.23,1.667-0.46,2.5-0.689c-1.384-3.68-3.08-7.19-4.978-10.633c-0.482,0.482-0.965,0.965-1.447,1.447
			c6.603,2.837,13.42,4.562,20.427,6.085c8.102,1.761,15.708,4.006,23.477,6.871C389.746,303.778,390.058,302.882,389.562,302.562
			L389.562,302.562z"/>
	</g>
	<g>
		<path fill="#1D1D1B" d="M391.01,227.606c0.009,0.427,0.26,0.677,0.604,0.889c0.623,0.384,0.675,0.676,0.613,1.432
			c0.473-0.361,0.947-0.721,1.42-1.082c-0.749-0.285-1.513-0.498-2.285-0.712c-0.804-0.222-1.572,0.399-1.592,1.213
			c-0.001,0.038-0.002,0.077-0.003,0.116c-0.04,1.627,2.481,1.623,2.521,0c0.015-0.619,0.027-1.238,0.053-1.856
			c-0.128,0.31-0.257,0.619-0.385,0.929c0.202-0.185,0.404-0.37,0.605-0.555c-0.318,0.132-0.636,0.263-0.954,0.395
			c0.387,0.017,0.773,0.036,1.16,0.043c-0.328-0.792-0.656-1.584-0.984-2.376c-1.119,1.422-2.273,2.197-3.538,3.424
			c0.694,0.694,1.389,1.389,2.083,2.083c0.498-0.597,1.008-1.135,1.703-1.496c0.316-0.164,0.287-0.146,0.637-0.028
			c-0.194-0.085-0.219-0.09-0.075-0.014c0.301,0.17-0.234-0.219,0.01,0.012c0.245,0.231-0.178-0.279,0.001-0.004
			c0.065,0.1,0.141,0.37,0.001-0.027c0.138,0.39,0.029-0.285,0.005,0.114c0.026-0.436-0.096,0.008,0.088-0.368
			c-0.132,0.27,0.246-0.255,0.023-0.039c0.122-0.118,0.367-0.172,0.023-0.096c0.272-0.06-0.334-0.049-0.39-0.061
			c-0.351-0.071-0.691-0.198-1.025-0.326c-0.184-0.071-0.36-0.163-0.546-0.231c0.428,0.156,0.255,0.113,0.142,0.041
			c0.471,0.299,0.714,0.871,0.565,1.42c-0.019,0.069-0.354,0.586-0.278,0.501c0.078-0.087,0.282-0.226-0.137,0.091
			c0.098-0.074,0.205-0.134,0.311-0.193c0.106-0.059,0.659-0.302,0.199-0.11c0.769-0.321,1.587-0.532,2.402-0.697
			c0.193-0.039,0.386-0.072,0.58-0.103c0.396-0.063-0.361,0.043,0.028-0.004c0.108-0.013,0.216-0.023,0.324-0.032
			c0.345-0.03,0.693-0.04,1.038-0.009c-0.551-0.049-0.145-0.018,0,0.026c-0.137-0.041-0.39-0.185-0.575-0.471
			c-0.195-0.303-0.176-0.751-0.148-0.841c0.133-0.438,0.12-0.27,0.032-0.126c-0.165,0.272,0.255-0.3,0.021-0.024
			c-0.879,1.033-2.116,1.686-3.329,2.418c0.645,0.083,1.289,0.166,1.934,0.249c-0.734-0.772,0.022,0.585-0.657,1.056
			c0.331-0.23,0.561-0.473,0.762-0.822c0.312-0.541,0.525-1.066,0.299-1.689c-0.285-0.788-1.34-1.008-1.806-0.236
			c0.053-0.088,0.213-0.152,0.316-0.149c-0.248-0.005-0.358-0.057-0.644,0.032c-0.545,0.168-1.008,0.46-1.327,0.942
			c-0.745,1.124,0.012,2.294,0.801,3.124c0.487,0.512,1.332,0.613,1.934,0.25c1.394-0.842,2.972-1.739,4.041-2.996
			c0.759-0.892,1.24-2.37,0.153-3.258c-1.592-1.3-4.23-0.576-5.996-0.029c-0.95,0.294-1.848,0.673-2.634,1.285
			c-1.104,0.86-0.796,2.34,0.222,3.08c0.998,0.725,3.065,1.205,4.422,0.787c1.412-0.436,2.098-1.823,1.774-3.223
			c-0.321-1.384-1.616-2.139-2.926-2.301c-1.747-0.216-3.382,1.257-4.384,2.494c-1.171,1.445,0.71,3.454,2.083,2.083
			c1.286-1.284,2.555-2.335,3.642-3.82c0.635-0.868-0.223-2.112-1.202-2.095c-1.061,0.019-1.773,0.066-2.526,0.886
			c-0.746,0.813-0.501,1.915-0.476,2.942c0.04,1.623,2.562,1.627,2.521,0c-0.001-0.039-0.002-0.077-0.003-0.116
			c-0.531,0.404-1.062,0.809-1.592,1.213c0.883,0.198,1.757,0.374,2.655,0.489c0.796,0.102,1.18-0.788,1.082-1.42
			c-0.134-0.859-0.487-1.563-1.213-2.057c-0.206-0.141-0.48-0.219-0.721-0.276c-0.496-0.116-0.392-0.128-0.311,0.152
			C392,226.804,390.996,226.921,391.01,227.606L391.01,227.606z"/>
	</g>
	<g>
		<path fill="#1D1D1B" d="M452.529,300.81c-0.425-0.031-0.925-0.185-0.873-0.68c-0.494,0.204-0.987,0.409-1.481,0.614
			c1.003,1.044,2.826,0.443,4.095,0.525c-0.366-0.48-0.732-0.961-1.098-1.441c-0.222,0.555-0.449,1.104-0.756,1.618
			c-0.246,0.412-0.194,0.109,0.212,0.19c0.27,0.054-0.106-0.072-0.006,0.006c-0.199-0.156-0.367-0.352-0.536-0.538
			c-0.471-0.515-0.851-1.109-1.235-1.688c-0.407,0.71-0.815,1.42-1.222,2.129c0.544,0.001,1.087-0.01,1.631-0.031
			c0.188-0.007,0.377-0.014,0.566-0.017c0.428-0.005-0.092-0.047,0.1-0.006c0.081,0.018-0.096-0.06-0.185-0.129
			c0.125,0.097,0.235,0.215,0.345,0.327c0.392,0.397,0.767,0.811,1.157,1.21c0.472-0.81,0.943-1.621,1.415-2.431
			c-0.618-0.103-1.24-0.192-1.865-0.245c-0.162-0.013-0.324-0.021-0.486-0.03c-0.441-0.024,0.289,0.089-0.036-0.002
			c0.097,0.027,0.605,0.432,0.375,0.179c0.343,0.376-0.057-0.093-0.129-0.196c-0.398-0.574-0.822-1.128-1.252-1.679
			c-0.352,0.849-0.703,1.698-1.055,2.546c0.569-0.062,1.624-0.137,1.931-0.08c0.181,0.056,0.183,0.046,0.006-0.03
			c0.031,0.018,0.063,0.035,0.094,0.053c-0.211-0.119-0.348-0.304-0.413-0.556c0.048,0.113,0.031-0.308-0.012-0.106
			c-0.26,1.223-0.978,2.08-0.412,3.367c0.265,0.602,1.261,0.861,1.786,0.468c1.09-0.814,1.838-2.984,1.602-4.359
			c-0.36-2.095-3.03-1.934-4.581-1.741c-1.336,0.166-1.915,1.476-1.055,2.546c0.588,0.73,1.075,1.724,1.884,2.235
			c0.76,0.481,1.99,0.303,2.846,0.433c1.352,0.206,2.539-1.315,1.415-2.431c-0.744-0.738-1.444-1.692-2.457-2.068
			c-0.955-0.355-2.228-0.071-3.213-0.059c-1.011,0.012-1.846,1.216-1.222,2.129c0.998,1.461,2.083,3.211,3.978,3.462
			c1.955,0.259,2.715-2.493,2.983-3.874c0.126-0.645-0.309-1.54-1.098-1.441c-0.529,0.066-1.041,0.171-1.562,0.279
			c-0.413,0.086-1.083,0.332-1.482,0.11c-0.652-0.364-1.493,0.233-1.275,0.98c0.338,1.155,1.482,1.461,2.577,1.41
			C453.152,301.743,453.144,300.855,452.529,300.81L452.529,300.81z"/>
	</g>
	<g>
		<path fill="#1D1D1B" d="M390.475,363.952c-0.014,0.861,0.194,1.618-0.265,2.423c0.273-0.156,0.545-0.313,0.818-0.469
			c-0.143-0.017-0.286-0.034-0.43-0.051c-0.41-0.049,0.634,0.308,0.194,0.008c-0.299-0.205-0.62-0.385-0.928-0.577
			c0.175,0.431,0.351,0.861,0.526,1.292c0.172-0.594,0.325-1.16,0.647-1.692c0.079-0.131,0.147-0.194,0.271-0.314
			c-0.009,0.008,0.121-0.063,0.141-0.069c0.069-0.021,0.111-0.001,0.176,0.031c0.06,0.032,0.117,0.066,0.174,0.104
			c0.284,0.18-0.196-0.176,0.052,0.048c0.049,0.046,0.097,0.095,0.142,0.145c0.232,0.245-0.152-0.228,0.035,0.043
			c0.05,0.073,0.233,0.459,0.081,0.092c0.021,0.055,0.04,0.11,0.056,0.167c0.089,0.29-0.016-0.331,0.001-0.043
			c0.005,0.086,0.041-0.167,0.096-0.28c0.158-0.183,0.187-0.221,0.087-0.116c-0.195,0.2-0.357,0.451-0.549,0.658
			c-0.017,0.019-0.425,0.349-0.331,0.31c-0.185,0.05-0.196,0.056-0.03,0.018c0.139-0.005,0.247,0.038,0.351,0.127
			c-0.134-0.116-0.059-0.041-0.13-0.262c-0.094-0.295-0.073-0.353-0.07-0.668c0.002-0.195,0.044-0.329,0.105-0.548
			c-0.023-0.125,0-0.187,0.069-0.187c0.051-0.121,0.102-0.243,0.154-0.364c0.102-0.626,0.061-0.543-0.121,0.251
			c-0.499,0.426-0.637,0.57-0.412,0.431c-0.285,0.11-0.353,0.14-0.204,0.091c0.358-0.113-0.389,0.017,0.038-0.01
			c0.121-0.008,0.243-0.004,0.365,0c0.108,0.003,0.678,0.072,0.199,0.004c0.353,0.05,0.7,0.136,1.039,0.245
			c0.421,0.136-0.139-0.078,0.093,0.028c0.135,0.062,0.262,0.138,0.384,0.221c-0.206-0.167-0.252-0.198-0.137-0.094
			c0.205,0.192-0.212-0.329-0.081-0.099c-0.227-0.398-0.164-0.764-0.027-1.026c-0.086,0.164,0.258-0.255-0.06,0.024
			c0.299-0.262-0.272,0.135-0.379,0.19c-0.607,0.315-1.329,0.504-2.012,0.697c0.675,0.514,1.349,1.028,2.024,1.542
			c-0.018,0.223,0.11-0.475,0.127-0.558c0.084-0.395,0.131-0.801,0.134-1.204c0.006-0.907-0.473-1.733-1.284-2.125
			c-0.688-0.332-1.429-0.053-1.678,0.683c-0.192,0.568-0.219,1.118-0.264,1.712c-0.038,0.501-0.203,0.986-0.234,1.492
			c-0.064,1.031,1.071,1.829,2.024,1.542c1.498-0.451,3.424-0.991,4.306-2.414c0.747-1.206,0.008-2.568-1.109-3.185
			c-1.612-0.891-5.506-1.522-5.726,1.156c0.069-0.256,0.139-0.513,0.208-0.769c-0.922,2.037-0.796,5.087,1.654,5.958
			c2.1,0.747,4.49-2.032,4.076-3.998c-0.306-1.454-1.771-2.427-3.152-2.602c-2.152-0.273-3.289,2.303-3.526,4.008
			c-0.093,0.669,0.158,1.158,0.799,1.407c0.737,0.286,1.252,0.519,2.045,0.424c0.429-0.051,0.787-0.253,0.913-0.695
			c0.181-0.634,0.193-1.218,0.074-1.864c-0.09-0.488-0.374-0.934-0.454-1.435C391.461,363.171,390.485,363.349,390.475,363.952
			L390.475,363.952z"/>
	</g>
	<g>
		<path fill="#1D1D1B" d="M327.033,302.982c-0.519,0.215-0.917,0.557-1.336,0.925c0.151-0.109,0.098-0.097-0.159,0.037
			c-0.217,0.134,0.147,0.017,0.297,0.081c-0.439-0.187-0.733-0.696-1.004-1.06c-0.255,0.627-0.51,1.254-0.765,1.881
			c0.665-0.155,1.331-0.312,1.998-0.46c0.263-0.058,0.284-0.06,0.434-0.071c0.334-0.025,0.186,0.035,0.041-0.043
			c-0.122-0.065-0.139-0.159-0.049-0.027c0.114,0.167,0.202,0.352,0.292,0.532c0.313,0.625,0.581,1.276,0.867,1.913
			c0.686-0.686,1.372-1.372,2.058-2.058c-0.518-0.227-1.038-0.445-1.567-0.645c-0.083-0.031-0.658-0.259-0.2-0.064
			c-0.142-0.06-0.407-0.288-0.018,0.04c-0.154-0.13,0.209,0.35,0.001-0.025c-0.085-0.155-0.154-0.32-0.226-0.48
			c-0.273-0.61-0.549-1.218-0.841-1.82c-0.463,0.807-0.926,1.614-1.389,2.421c0.799,0.006,1.598,0.012,2.397,0.017
			c2.098,0.015,2.097-3.238,0-3.253c-0.026,0-0.051,0-0.077-0.001c-1.146-0.008-1.731,1.039-1.569,2.059
			c0.185,1.163,0.371,2.325,0.556,3.488c0.142-0.536,0.283-1.072,0.425-1.608c-0.671,0.654,0.703,0.084,0.008,0.087
			c0.478,0.274,0.957,0.549,1.435,0.823c-0.269-0.353-0.6-0.768-0.695-1.12c0.094,0.346-0.021,0.663-0.254,0.908
			c-0.105,0.11-0.288,0.177-0.169,0.147c0.489-0.125,0.772-0.392,1.054-0.781c-0.838,1.158,0.208-0.056-0.3,0.324
			c0.172-0.129,0.324-0.222,0.425-0.421c-0.403,0.164-0.805,0.328-1.208,0.492c0.003,0.001,0.006,0.001,0.009,0.002
			c1.348,0.257,1.923-1.805,0.569-2.063c-0.003-0.001-0.006-0.001-0.009-0.002c0.249,0.249,0.498,0.498,0.747,0.747
			c-0.03-0.21-0.209-0.404-0.332-0.56c0.148,0.187,0.08,0.069-0.196-0.258c-0.569-0.672-1.769-0.511-2.468-0.215
			c-2.047,0.868-0.951,3.322,0.002,4.538c0.71,0.907,2.017,0.992,2.958,0.36c0.93-0.624,1.341-1.393,1.148-2.499
			c-0.189-1.084-0.377-2.169-0.566-3.253c-0.523,0.686-1.046,1.373-1.569,2.059c0.026,0,0.051,0,0.077,0
			c2.097-0.015,2.098-3.268,0-3.253c-0.799,0.006-1.598,0.011-2.397,0.017c-1.275,0.009-1.932,1.345-1.389,2.421
			c0.475,0.943,0.827,2.186,1.599,2.947c0.72,0.71,1.956,0.852,2.872,1.172c1.309,0.457,2.291-1.123,1.698-2.209
			c-0.603-1.106-1.139-2.8-2.374-3.379c-1.439-0.676-3.106,0.11-4.487,0.583c-0.928,0.318-1.238,1.404-0.565,2.141
			c0.826,0.904,2.049,2.038,3.36,1.431c0.816-0.378,0.72-1.291,1.356-1.773C328.069,303.771,327.777,302.675,327.033,302.982
			L327.033,302.982z"/>
	</g>
	<g>
		<path fill="#1D1D1B" d="M441.051,333.467c0.08,0.167,0.109,0.143,0.088-0.071c-0.104,0.537,0.072-0.19,0.29-0.272
			c-0.255,0.096-0.516,0.17-0.777,0.248c0.421,0.239,0.842,0.478,1.263,0.717c-0.275-1.002-0.604-1.98-0.954-2.958
			c-0.399,0.524-0.798,1.047-1.197,1.571c0.065,0.003,0.13,0.008,0.195,0.013c0.054,0.004,0.108,0.009,0.163,0.015
			c0.323,0.032-0.286-0.048,0.067,0.011c0.096,0.016,0.59,0.185,0.302,0.05c0.128,0.077,0.111,0.058-0.051-0.058
			c-0.095-0.231-0.189-0.461-0.284-0.692c0.015,0.176,0.042,0.349,0.082,0.52c-0.02-0.118-0.025-0.101-0.016,0.053
			c0-0.301-0.103,0.107,0.065-0.221c0.103-0.202,0.473-0.367,0.117-0.166c0.24-0.091,0.289-0.117,0.146-0.078
			c0.082-0.012,0.165-0.024,0.247-0.037c-0.151-0.005-0.089,0.005,0.188,0.03c0.724,0.151-0.521-0.103-0.566-0.105
			c-0.693-0.029-1.409,0.638-1.352,1.352c0.1,1.244,1.222,1.719,2.323,1.543c1.048-0.168,1.647-1.21,1.642-2.198
			c-0.004-1.056-0.536-1.971-1.539-2.321c-0.531-0.185-1.168-0.211-1.729-0.193c-1.012,0.033-1.451,1.013-1.072,1.867
			c0.42,0.947,0.855,1.88,1.345,2.793c0.244,0.455,0.966,0.693,1.405,0.368c0.43-0.318,1.105-0.694,1.198-1.282
			c0.051-0.325-0.008-0.603-0.228-0.852c-0.178-0.202-0.431-0.223-0.643-0.366C441.338,332.454,440.76,333.035,441.051,333.467
			L441.051,333.467z"/>
	</g>
	<g>
		<path fill="#1D1D1B" d="M430.834,352.326c-0.719-0.419-1.211-1.076-1.96-1.442c0.123,0.123,0.247,0.247,0.37,0.37
			c-0.018-0.029-0.037-0.058-0.055-0.087c0.04,0.306,0.08,0.612,0.12,0.918c0.046-0.306,0.145-0.604,0.231-0.9
			c0.093-0.317,0.119-0.691,0.244-0.992c0.318-0.765-0.275-1.673-1.021-1.879c-0.939-0.258-1.64,0.419-1.925,1.233
			c-0.46,1.314,1.476,2.483,2.382,1.387c0.035-0.041,0.069-0.083,0.102-0.125c0.365-0.447,0.294-0.398-0.214,0.146
			c-0.371,0.049-0.742,0.097-1.113,0.146c0.005,0.002,0.011,0.004,0.017,0.006c-0.287-0.221-0.575-0.442-0.863-0.663
			c-0.169-0.406-0.161-0.388,0.024,0.052c-0.258-0.447-0.142-0.761-0.152-0.391c-0.005,0.208-0.025,0.415-0.038,0.622
			c-0.021,0.343-0.046,0.698-0.015,1.042c0.112,1.221,1.505,1.573,2.22,0.601c0.018-0.025,0.037-0.05,0.055-0.075
			c-0.205,0.158-0.411,0.316-0.616,0.474c0.017-0.003,0.034-0.007,0.051-0.01c0.278-0.056,0.33-0.056,0.158,0.001
			c0.096,0.031,0.182,0.082,0.262,0.138c0.336,0.235,0.658,0.455,1.03,0.633C430.931,353.915,431.621,352.785,430.834,352.326
			L430.834,352.326z"/>
	</g>
	<g>
		<path fill="#1D1D1B" d="M446.368,259.158c-0.28,0.302-0.756,0.96-1.181,1.065c0.161,0,0.321,0,0.482,0
			c-0.297-0.041-0.515-0.026-0.798,0.054c0.339,0.09,0.679,0.18,1.019,0.269c-0.241-0.23-0.567-0.44-0.919-0.409
			c-0.265,0.023,0.392,0.187,0.159,0.057c0.238,0.133,0.2,0.192,0.054-0.078c-0.129-0.238-0.302-0.447-0.473-0.655
			c-0.715-0.871-1.932-0.077-2.007,0.831c-0.058,0.696,0.246,1.429,0.775,1.889c0.639,0.555,1.363,0.563,2.111,0.24
			c0.382-0.165,0.607-0.667,0.607-1.059c0-0.026,0-0.051,0-0.077c-0.102,0.247-0.204,0.494-0.307,0.74
			c0.281-0.28,0.397-0.535,0.445-0.93c-0.041,0.153-0.083,0.305-0.124,0.458c0.26-0.605,0.67-1.177,0.954-1.781
			C447.398,259.278,446.784,258.709,446.368,259.158L446.368,259.158z"/>
	</g>
	<g>
		<path fill="#1D1D1B" d="M434.283,254.929c-0.027-0.047-0.054-0.094-0.079-0.142c0.159,0.294-0.063-0.17-0.115-0.262
			c-0.101-0.179-0.223-0.35-0.334-0.523c-0.256-0.397-0.519-0.733-0.897-1.019c-0.67-0.507-1.929-0.024-2.058,0.814
			c-0.062,0.407-0.069,0.785,0.148,1.154c0.068,0.088,0.135,0.175,0.203,0.263c-0.122-0.157-0.142-0.163-0.06-0.017
			c0.102,0.211,0.318,0.381,0.526,0.475c0.567,0.257,1.155,0.148,1.507-0.395c0.186-0.287,0.215-0.572,0.207-0.901
			c-0.057,0.21-0.114,0.42-0.171,0.63c0.066-0.116,0.119-0.238,0.161-0.365c0.045-0.245-0.051-0.103-0.288,0.427
			c-0.195,0.114-0.391,0.228-0.586,0.342c0.008-0.002,0.016-0.003,0.024-0.005c-0.236,0-0.472,0-0.708,0
			c-0.27-0.121-0.342-0.149-0.217-0.085c0.077,0.04,0.243,0.18-0.043-0.048c0.125,0.099,0.242,0.209,0.36,0.317
			c0.129,0.118,0.257,0.237,0.385,0.355c0.183,0.167,0.357,0.268,0.588,0.359c-0.26-0.102-0.027,0.023,0.02,0.052
			C433.763,256.91,434.794,255.823,434.283,254.929L434.283,254.929z"/>
	</g>
	<g>
		<path fill="#1D1D1B" d="M341.303,257.403c0.073-0.283,0.171-0.558,0.239-0.842c0.082-0.339,0.053-0.278,0.218-0.558
			c0.162-0.275-0.152,0.149,0.079-0.089c0.197-0.203,0.015,0.121-0.392,0.024c0.247,0.059-0.002-0.029,0.238,0.129
			c0.198,0.131,0.535,0.261,0.766,0.295c0.849,0.125,1.479-0.461,1.328-1.328c-0.147-0.843-0.887-1.363-1.624-1.664
			c-0.848-0.346-1.716,0.348-2.174,0.967c-0.68,0.92-0.439,2.057-0.181,3.065C339.99,258.149,341.111,258.148,341.303,257.403
			L341.303,257.403z"/>
	</g>
	<g>
		<path fill="#1D1D1B" d="M353.669,240.37c-0.005,0.098-0.011,0.196-0.018,0.294c0.037-0.138,0.075-0.277,0.112-0.415
			c-0.064,0.127-0.144,0.255-0.183,0.393c-0.01,0.036-0.02,0.072-0.031,0.108c0.158-0.249,0.135-0.233-0.067,0.047
			c-0.037,0.087-0.073,0.173-0.11,0.26c0.042-0.096,0.035-0.088-0.02,0.024c-0.017,0.028-0.035,0.056-0.052,0.083
			c0.131-0.233,0.357-0.349,0.678-0.345c-0.815,0.087-1.476,0.753-1.237,1.623c0.219,0.797,1.169,1.187,1.884,0.766
			c0.57-0.335,0.834-0.905,0.88-1.544c0.021-0.281,0.031-0.629-0.143-0.867c0.097,0.133-0.001-0.1-0.01-0.155
			c-0.018-0.11-0.119-0.28-0.169-0.393c0.037,0.138,0.075,0.277,0.112,0.415c-0.004-0.098-0.009-0.196-0.014-0.294
			C355.228,239.33,353.725,239.331,353.669,240.37L353.669,240.37z"/>
	</g>
	<g>
		<path fill="#1D1D1B" d="M341.416,332.86c0.008-0.038,0.189-0.511,0.095-0.3c-0.161,0.359,0.22-0.407,0.231-0.448
			c-0.168,0.218-0.336,0.436-0.503,0.655c0.197-0.126,0.337-0.246,0.478-0.439c-0.272,0.156-0.543,0.311-0.815,0.467
			c0.035-0.001,0.07-0.002,0.105-0.003c0.551-0.017,0.997-0.54,0.833-1.094c-0.009-0.032-0.019-0.064-0.029-0.097
			c0,0.167,0,0.334,0,0.502c0.001-0.005,0.003-0.01,0.004-0.016c0.097-0.347,0.001-0.762-0.267-1.011
			c-0.35-0.325-0.751-0.417-1.208-0.298c-0.509,0.133-0.793,0.587-0.828,1.087c-0.025,0.361,0.111,0.713,0.171,0.995
			C339.869,333.721,341.23,333.717,341.416,332.86L341.416,332.86z"/>
	</g>
	<g>
		<path fill="#1D1D1B" d="M355.234,352.862c-0.465-0.107,0.408,0.169-0.183-0.103c-0.126-0.058-0.242-0.121-0.359-0.193
			c-0.126-0.078-0.343-0.297-0.39-0.363c-0.063-0.088-0.109-0.19-0.164-0.283c0.13,0.219-0.07-0.177-0.117-0.249
			c-0.276-0.424-0.65-0.527-1.124-0.457c-0.341,0.05-0.599,0.392-0.695,0.695c-0.261,0.819,0.36,1.496,0.968,1.934
			c0.276,0.199,0.643,0.307,0.974,0.374c0.223,0.045,0.488,0.092,0.713,0.03c0.24-0.091,0.26-0.106,0.059-0.046
			c0.106-0.013,0.212-0.028,0.318-0.044C355.903,354.057,355.849,353.003,355.234,352.862L355.234,352.862z"/>
	</g>
	<g>
		<path fill="#1D1D1B" d="M445.748,366.62c-1.039,1.533,0.681,4.176,1.35,5.585c1.523,3.205,3.363,6.246,5.533,9.051
			c0.101-0.784,0.202-1.567,0.303-2.35c-6.006,2.882-12.044,5.701-18.018,8.649c0.711,0.711,1.422,1.422,2.133,2.133
			c0.816-1.074,0.808-1.056,1.129-2.325c0.144-0.568-0.368-1.081-0.937-0.937c-1.269,0.321-1.251,0.313-2.325,1.129
			c-1.573,1.196-0.266,3.609,1.574,2.692c5.959-2.971,12.029-5.719,17.955-8.757c0.928-0.476,0.877-1.648,0.303-2.35
			c-2.078-2.545-3.789-5.393-5.412-8.243c-0.795-1.397-1.472-3.829-3.066-4.489C446.072,366.326,445.854,366.463,445.748,366.62
			L445.748,366.62z"/>
	</g>
	<g>
		<path fill="#1D1D1B" d="M430.385,376.947c-1.664,0.571-1.503,2.366-1.105,3.753c0.394,1.372,1.05,2.668,1.652,3.956
			c0.568,1.214,0.967,2.754,1.77,3.822c0.799,1.062,2.781,0.857,2.72-0.737c-0.074-1.927-1.56-3.83-2.495-5.45
			c-0.313-0.543-2.737-4.488-2.349-4.644C431.001,377.476,430.835,376.792,430.385,376.947L430.385,376.947z"/>
	</g>
	<g>
		<path fill="#1D1D1B" d="M448.333,379.128c-4.782,1.891-10.093,2.48-14.046,6.036c-0.871,0.784,0.037,2.348,1.15,1.976
			c4.923-1.646,9.464-3.957,13.749-6.874c1.5-1.021,0.16-3.405-1.437-2.458c-2.411,1.43-4.978,2.404-7.594,3.385
			c-2.189,0.822-4.682,1.621-5.987,3.668c-0.566,0.887,0.359,1.787,1.249,1.625c2.459-0.448,4.849-2.027,7.199-2.919
			c2.319-0.88,4.577-1.797,6.57-3.301c-0.575-0.745-1.15-1.49-1.725-2.235c-3.561,3.335-8.524,5.067-12.935,6.948
			c0.478,0.619,0.955,1.238,1.433,1.857c3.572-3.429,8.788-3.979,12.765-6.78C449.161,379.747,448.903,378.902,448.333,379.128
			L448.333,379.128z"/>
	</g>
	<g>
		<path fill="#1D1D1B" d="M431.134,373.235c-0.163,1.357-0.619,2.826-0.866,4.195c-0.255,1.415-0.977,3.434-0.241,4.773
			c0.176,0.32,0.573,0.313,0.826,0.106c1.2-0.981,1.158-3.186,1.322-4.622c0.178-1.56,0.106-2.934-0.025-4.453
			C432.092,372.573,431.212,372.591,431.134,373.235L431.134,373.235z"/>
	</g>
	<g>
		<path fill="#1D1D1B" d="M435.163,371.179c-0.847,1.566-5.373,14.042-3.062,14.678c1.898,0.522,4.133-12.68,4.227-14.362
			C436.364,370.871,435.453,370.642,435.163,371.179L435.163,371.179z"/>
	</g>
	<g>
		<path fill="#1D1D1B" d="M441.781,371.19c0.563-0.508-0.335,0.726-0.503,1.217c-0.517,1.51-1.059,3.01-1.621,4.504
			c-1.001,2.658-2.184,5.41-2.691,8.217c-0.253,1.403,1.928,1.96,2.116,0.583c0.149-1.094,0.532-2.008,1.011-3
			c0.147-0.303-0.188-0.777-0.521-0.521c-0.915,0.704-1.492,1.65-2.324,2.454c0.611,0.356,1.223,0.712,1.834,1.068
			c0.813-4.077,2.511-7.967,3.506-12.006c0.239-0.97,0.574-4.892-1.359-3.066C440.862,370.986,441.41,371.525,441.781,371.19
			L441.781,371.19z"/>
	</g>
	<g>
		<path fill="#1D1D1B" d="M444.719,371.678c0.089-0.185,0.169-0.381,0.276-0.557c-0.274-0.074-0.548-0.148-0.822-0.223
			c-0.02,0.299-0.605,1.295-0.781,1.772c-0.476,1.289-0.91,2.589-1.322,3.9c-0.655,2.083-1.499,4.641-1.156,6.852
			c0.161,1.042,1.774,1.178,2.222,0.29c1.638-3.245,2.866-6.684,4.704-9.827c-0.784-0.331-1.569-0.661-2.353-0.992
			c-0.607,2.67-0.69,5.419-1.243,8.1c-0.328,1.587,1.591,2.296,2.51,1.058c1.16-1.563,2.515-2.949,3.894-4.316
			c-0.82-0.34-1.64-0.679-2.459-1.019c0.046,1.287,0.259,2.468,0.663,3.696c0.252,0.768,1.303,0.768,1.556,0
			c0.403-1.228,0.616-2.408,0.663-3.696c0.046-1.268-1.598-1.892-2.459-1.019c-1.538,1.56-3.006,3.144-4.229,4.967
			c0.837,0.353,1.674,0.706,2.51,1.058c0.424-2.705,0.501-5.468,1.077-8.146c0.3-1.394-1.606-2.305-2.353-0.992
			c-1.8,3.164-3.03,6.612-4.579,9.9c0.741,0.097,1.481,0.194,2.222,0.29c-0.457-2.089,0.584-4.942,0.976-6.993
			c0.273-1.43,1.078-3.529,0.806-5.002c-0.083-0.451-0.732-0.391-0.851,0c-0.061,0.2-0.091,0.413-0.132,0.617
			C443.98,371.78,444.532,372.069,444.719,371.678L444.719,371.678z"/>
	</g>
	<g>
		<path fill="#1D1D1B" d="M351.323,378.607c-2.966,1.832-5.206,6.02-6.698,9.043c0.765,0,1.531,0,2.296,0
			c-3.017-5.187-8.778-8.055-13.702-11.125c-0.426-0.266-1.161-0.323-1.581,0c-0.821,0.632-1.377,0.974-1.446,2.058
			c-0.049,0.767,0.751,1.667,1.559,1.559c1.052-0.141,1.519-0.504,2.312-1.21c0.34-0.303,0.204-0.827-0.136-1.054
			c-0.567-0.379-1.085-0.693-1.762-0.799c0.382,0.501,0.763,1.002,1.145,1.503c0.008-0.066,0.016-0.133,0.025-0.199
			c-0.258,0.45-0.517,0.901-0.775,1.351c0.22-0.168,0.44-0.336,0.66-0.505c-0.527,0-1.054,0-1.581,0
			c4.487,2.758,9.878,5.358,12.987,9.762c0.695,0.984,2.002,0.784,2.43-0.318c1.284-3.299,4.171-6.054,5.001-9.504
			C352.155,378.758,351.709,378.368,351.323,378.607L351.323,378.607z"/>
	</g>
	<g>
		<path fill="#1D1D1B" d="M336.737,368.841c-0.152,0.144-0.932,0.323-1.282,0.662c-0.688,0.667-1.285,1.416-1.862,2.179
			c-1.256,1.661-2.901,3.564-3.437,5.62c-0.311,1.194,1.252,2.223,2.138,1.245c1.264-1.396,2.174-3.209,3.154-4.807
			c0.536-0.874,1.1-1.736,1.563-2.652c0.158-0.312,0.444-1.643,0.392-1.58C337.78,369.044,337.187,368.414,336.737,368.841
			L336.737,368.841z"/>
	</g>
	<g>
		<path fill="#1D1D1B" d="M348.235,377.553c0.73,1.004,0.863,2.041,0.738,3.225c0.564-0.076,1.128-0.153,1.692-0.229
			c-0.701-1.78-1.631-3.443-2.365-5.21c-0.336-0.809-1.589-0.768-1.602,0.217c-0.034,2.62-0.459,5.169-0.019,7.773
			c0.527-0.222,1.054-0.445,1.582-0.667c-1.491-3.313-2.237-6.819-3.485-10.212c-0.289-0.785-1.523-0.709-1.514,0.205
			c0.048,4.452,0.415,8.892,0.392,13.345c0.628-0.085,1.256-0.17,1.884-0.255c-1.108-5.214-1.217-10.576-2.928-15.658
			c-0.28-0.831-1.572-0.945-1.796,0c-1.111,4.676-0.785,9.406-0.82,14.172c0.759,0,1.517,0,2.276,0
			c0.013-4.987-0.516-9.978-1.786-14.806c-0.351-1.336-2.073-0.888-2.226,0.301c-0.458,3.559-0.629,7.153-1.225,10.694
			c0.813,0.11,1.627,0.22,2.44,0.33c-0.451-3.478-0.532-6.941-0.536-10.444c-0.002-1.416-2.261-1.8-2.526-0.342
			c-0.551,3.026-1.304,6.055-3.716,8.15c0.705,0.41,1.41,0.821,2.115,1.231c1.312-3.506,3.715-6.413,5.678-9.559
			c0.869-1.393-1.33-2.668-2.192-1.281c-2.085,3.357-4.513,6.44-5.926,10.168c-0.488,1.289,1.248,1.978,2.115,1.231
			c2.74-2.36,3.764-5.807,4.407-9.256c-0.842-0.114-1.684-0.228-2.526-0.342c0.002,3.619,0.082,7.196,0.668,10.774
			c0.249,1.517,2.273,0.919,2.44-0.33c0.49-3.661,0.561-7.362,1.052-11.024c-0.742,0.1-1.484,0.201-2.226,0.301
			c0.996,4.702,1.584,9.398,1.695,14.204c0.034,1.465,2.314,1.468,2.276,0c-0.117-4.523-0.787-9.236,0.34-13.677
			c-0.599,0-1.198,0-1.796,0c1.441,5.145,1.602,10.502,2.874,15.673c0.259,1.052,1.913,0.828,1.884-0.255
			c-0.119-4.457-0.72-8.886-0.769-13.345c-0.505,0.068-1.009,0.137-1.514,0.205c1.298,3.527,1.862,7.262,3.477,10.675
			c0.443,0.937,1.761,0.241,1.582-0.667c-0.479-2.421-0.111-4.872-0.019-7.313c-0.534,0.072-1.068,0.145-1.602,0.217
			c0.658,1.794,1.585,3.453,2.277,5.234c0.395,1.016,1.93,0.642,1.661-0.458c-0.334-1.367-0.66-2.564-1.632-3.611
			C348.646,376.521,347.893,377.082,348.235,377.553L348.235,377.553z"/>
	</g>
	<g>
		<path fill="#1D1D1B" d="M402.378,195.115c0.051-0.637,0.089-1.321,0.426-1.881c0.581-0.967-0.979-1.869-1.504-0.879
			c-1.843,3.47-1.728,7.639-1.883,11.463c-0.077,1.899,2.908,1.902,2.95,0c0.102-4.582,0.637-9.07,1.659-13.54
			c0.242-1.059-0.68-2.081-1.778-1.778c-4.227,1.166-8.651,1.299-12.758,2.923c0.462,0.122,0.923,0.244,1.385,0.366
			c-0.387-0.387-0.774-0.774-1.16-1.16c-0.462,0.793-0.923,1.586-1.385,2.379c3.393,0.644,6.797,0.694,10.242,0.707
			c0-0.999,0-1.999,0-2.998c-1.808-0.006-3.392,0.026-5.021,0.849c-0.491,0.248-0.491,1.051,0,1.299
			c1.629,0.823,3.213,0.855,5.021,0.85c1.933-0.006,1.934-3.003,0-2.998c-3.158,0.008-6.359,0.062-9.485-0.454
			c-1.333-0.22-2.47,1.294-1.385,2.379c0.387,0.387,0.774,0.774,1.16,1.16c0.329,0.329,0.927,0.547,1.385,0.366
			c4.102-1.622,8.524-1.809,12.77-2.88c-0.593-0.593-1.186-1.186-1.778-1.778c-1.184,4.699-1.836,9.458-1.822,14.309
			c0.983,0,1.967,0,2.95,0c-0.146-3.735,0.185-7.316,0.556-11.024c-0.541,0.147-1.082,0.293-1.623,0.44
			c0.336,0.56,0.375,1.244,0.426,1.881C401.759,195.535,402.345,195.535,402.378,195.115L402.378,195.115z"/>
	</g>
	<g>
		<path fill="#1D1D1B" d="M387.428,190.861c-0.495,1.986-0.587,3.956-0.69,5.995c-0.103,2.039-0.348,4.159,0.061,6.168
			c0.269,1.32,2.389,1.32,2.657,0c0.409-2.01,0.164-4.129,0.061-6.168c-0.103-2.039-0.195-4.009-0.69-5.995
			C388.654,190.167,387.601,190.167,387.428,190.861L387.428,190.861z"/>
	</g>
	<g>
		<path fill="#1D1D1B" d="M392.801,193.634c-0.891,1.953-1.715,3.936-2.621,5.883c-0.804,1.728-1.806,3.383-2.319,5.228
			c-0.264,0.949,1.131,1.565,1.603,0.676c1.746-3.289,5.123-7.193,8.457-8.851c-0.409-0.531-0.819-1.061-1.228-1.592
			c-2.574,2.743-4.321,6.12-6.239,9.325c-0.71,1.186,0.674,2.446,1.828,1.828c4.024-2.155,6.732-6.038,9.229-9.735
			c-0.8-0.468-1.6-0.936-2.401-1.403c-1.682,2.784-4.391,6.567-3.985,9.985c0.122,1.026,1.503,1.641,2.095,0.567
			c0.758-1.375,1.054-2.922,1.678-4.362c0.722-1.666,1.688-3.229,2.613-4.787c0.924-1.555-1.417-2.883-2.401-1.403
			c-2.216,3.333-4.582,6.865-8.177,8.831c0.609,0.609,1.219,1.219,1.828,1.828c1.848-3.152,3.563-6.359,5.523-9.446
			c0.631-0.993-0.778-2.015-1.592-1.228c-1.345,1.301-2.606,2.74-3.77,4.208c-1.335,1.683-2.761,3.95-4.659,5.035
			c0.4,0.4,0.8,0.8,1.2,1.2c2.331-3.04,3.925-7.548,4.496-11.298C394.06,193.474,393.125,192.924,392.801,193.634L392.801,193.634z"
			/>
	</g>
	<g>
		<path fill="#1D1D1B" d="M400.102,204.344c-1.712-0.938-4.183-0.712-6.073-0.824c-1.712-0.102-4.131-0.467-5.78,0.107
			c-1.332,0.464-1.332,2.237,0,2.701c1.67,0.582,4.046,0.178,5.78,0.107c1.873-0.076,4.381,0.103,6.073-0.824
			C400.579,205.351,400.579,204.606,400.102,204.344L400.102,204.344z"/>
	</g>
	<g>
		<path fill="#1D1D1B" d="M390.582,206.596c-0.355,1.61,0.362,3.134,0.201,4.765c-0.137,1.378,2.031,1.943,2.619,0.709
			c0.742-1.555,2.104-2.56,2.989-4.01c-0.936-0.254-1.873-0.507-2.809-0.761c0.086,1.695,0.36,3.374,1.539,4.61
			c0.767,0.804,2.476,0.5,2.669-0.705c0.144-0.899,0.615-1.703,1.017-2.509c-1.005-0.272-2.01-0.544-3.014-0.816
			c0.087,1.367,1.206,5.375,3.369,4.569c2.48-0.924-0.033-3.055-0.134-4.569c-0.1-1.482-2.247-2.365-3.014-0.816
			c-0.599,1.208-1.209,2.365-1.361,3.717c0.909-0.376,1.817-0.753,2.726-1.129c-0.099-0.094-0.198-0.189-0.297-0.283
			c-0.293-0.285-0.273-0.259,0.058,0.079c-0.112-0.736-0.469-1.392-0.543-2.148c-0.137-1.392-2.031-2.184-2.809-0.761
			c-0.879,1.607-2.374,2.634-2.955,4.449c0.904,0,1.807,0,2.711,0c-0.379-1.666-1.436-2.86-2.07-4.391
			C391.316,206.214,390.692,206.1,390.582,206.596L390.582,206.596z"/>
	</g>
	<g>
		<path fill="#1D1D1B" d="M421.477,211.297c13.192,9.782,28.363,16.537,41.313,26.77c4.883,3.858,10.927,8.079,14.506,13.246
			c0.994,1.436,3.637,3.28,4.044,0.346c0.157-1.13-1.125-1.706-1.823-0.768c0.722-0.971,2.121,1.561,1.02-0.468
			c-0.356-0.656-0.847-1.291-1.307-1.878c-1.646-2.103-3.798-3.795-5.71-5.658c-4.411-4.3-9.477-7.975-14.47-11.564
			c-5.73-4.118-11.84-7.663-17.911-11.244c-6.155-3.63-12.48-7.398-19.203-9.876C421.25,209.95,420.975,210.925,421.477,211.297
			L421.477,211.297z"/>
	</g>
	<g>
		<path fill="#1D1D1B" d="M421.918,209.334c1.316-0.029,2.433-1.418,3.696-1.863c2.89-1.018,6.023-1.164,9.058-1.249
			c5.959-0.167,12.304,0.174,18.053,1.856c16.871,4.938,33.243,24.164,29.632,42.321c-0.389,1.953,2.475,2.787,3.007,0.829
			c5.135-18.903-12.287-37.93-28.322-44.936c-6.256-2.733-13.408-3.188-20.15-3.275c-4.448-0.057-13.299-0.27-15.805,4.46
			c-0.197,0.371-0.252,0.876,0,1.242C421.295,209.023,421.5,209.344,421.918,209.334L421.918,209.334z"/>
	</g>
	<g>
		<path fill="#1D1D1B" d="M463.403,209.775c0.541-0.371,1.006-0.769,1.471-1.231c0.396-0.394,0.827-0.89,1.358-1.107
			c1.576-0.644,1.021-2.977-0.716-2.597c-0.867,0.19-1.681,0.793-2.398,1.291c-0.848,0.59-2.011,1.349-2.24,2.428
			c-0.197,0.93,0.539,1.546,1.419,1.419c0.849-0.123,1.591-0.887,2.271-1.366c0.737-0.519,1.586-0.918,2.258-1.521
			c-0.544-0.705-1.088-1.41-1.632-2.115c-1.32,0.929-2.101,2.3-2.957,3.634C461.786,209.311,462.694,210.261,463.403,209.775
			L463.403,209.775z"/>
	</g>
	<g>
		<path fill="#1D1D1B" d="M481.149,229.927c0.292,3.698,0.637,7.393,0.855,11.096c0.19,3.226-0.601,6.658-0.238,9.791
			c0.032,0.277,0.376,0.505,0.604,0.25c1.692-1.898,1.285-5.164,1.21-7.522c-0.144-4.568-1.126-9.087-1.651-13.615
			C481.872,229.438,481.109,229.419,481.149,229.927L481.149,229.927z"/>
	</g>
	<g>
		<path fill="#1D1D1B" d="M477.918,225.324c0.627,3.625,0.248,7.869,0.3,11.556c0.051,3.599-1.25,8.962-0.026,12.316
			c0.105,0.287,0.539,0.504,0.773,0.204c2.279-2.929,1.118-9.078,0.918-12.52c-0.232-3.986-0.715-7.788-1.685-11.633
			C478.151,225.062,477.886,225.143,477.918,225.324L477.918,225.324z"/>
	</g>
	<g>
		<path fill="#1D1D1B" d="M473.032,222.608c3.362,6.094,2.184,14.904-1.012,20.766c0.587,0.159,1.174,0.318,1.76,0.477
			c-0.04-0.36,0.035-2.295-0.002-2.901c-0.026-0.42-0.57-0.48-0.712-0.096c-0.334,0.847-0.682,1.687-1.046,2.521
			c-0.384,0.897,0.739,2.047,1.484,1.145c4.685-5.675,4.13-16.449,0.296-22.359C473.489,221.681,472.754,222.104,473.032,222.608
			L473.032,222.608z"/>
	</g>
	<g>
		<path fill="#1D1D1B" d="M464.267,211.483c1.445,3.809,1.79,7.945,1.806,11.989c0.017,4.271-1.605,7.525-2.587,11.498
			c-0.171,0.689,0.617,1.069,1.121,0.653c6.223-5.141,3.341-18.344,0.505-24.496C464.894,210.653,464.082,210.994,464.267,211.483
			L464.267,211.483z"/>
	</g>
	<g>
		<path fill="#1D1D1B" d="M461.313,211.361c-0.44,7.221-0.286,14.243-3.218,20.99c0.576,0.075,1.151,0.15,1.727,0.226
			c-1.081-3.866-1.108-7.947-1.337-11.933c-0.011-0.199-0.297-0.199-0.308,0c-0.228,4.069-0.12,8.116-0.21,12.184
			c-0.017,0.764,1.086,1.333,1.613,0.668c4.571-5.769,3.199-15.347,2.731-22.135C462.267,210.719,461.353,210.717,461.313,211.361
			L461.313,211.361z"/>
	</g>
	<g>
		<path fill="#1D1D1B" d="M456.908,211.678c-1.838,1.554-2.062,4.777-2.437,6.958c-0.703,4.091-1.43,8.139-2.283,12.197
			c0.615,0,1.229,0,1.844,0c-0.333-1.04-0.463-1.623-1.233-2.336c-0.257-0.238-0.783-0.008-0.636,0.37
			c0.009,0.655,0.017,1.31,0.026,1.965c-0.28,1.024,1.263,1.731,1.747,0.737c1.323-2.716,1.476-6.114,1.846-9.077
			c0.221-1.77,0.45-3.539,0.659-5.31c0.133-1.128,0.126-4.066,0.994-4.979C457.768,211.851,457.27,211.372,456.908,211.678
			L456.908,211.678z"/>
	</g>
	<g>
		<path fill="#1D1D1B" d="M450.907,209.35c-2.62,4.8-2.217,11.069-3.986,16.249c0.645,0,1.289,0,1.934,0
			c-0.402-1.878-0.822-3.748-1.215-5.627c-0.086-0.411-0.637-0.266-0.677,0.092c-0.216,1.929,0.148,3.859-0.078,5.802
			c-0.12,1.028,1.405,1.318,1.869,0.506c2.692-4.706,2.329-11.382,3.131-16.609C451.97,209.2,451.219,208.777,450.907,209.35
			L450.907,209.35z"/>
	</g>
	<g>
		<path fill="#1D1D1B" d="M446.255,208.91c-1.466,3.929-1.906,8.114-3.41,12.044c0.654,0,1.308,0,1.962,0
			c-1.583-5.119-0.85-10.496-3.81-15.196c-0.362-0.576-1.165-0.436-1.381,0.181c-1.308,3.73-1.538,7.725-2.631,11.518
			c0.693,0,1.386,0,2.079,0c-0.586-3.992-1.04-7.992-2.69-11.709c-0.26-0.585-1.331-0.465-1.418,0.185
			c-0.375,2.793-1.87,5.341-2.618,8.041c0.71,0.096,1.419,0.192,2.129,0.288c-0.276-2.634-1.614-4.744-2.416-7.235
			c-0.242-0.752-1.5-1.126-1.875-0.245c-0.592,1.391-0.871,2.85-1.315,4.292c-0.41,1.331,1.705,1.913,2.081,0.574
			c0.381-1.36,0.588-2.76,1.109-4.076c-0.659,0-1.319,0-1.978,0c0.682,2.243,2.008,4.329,2.226,6.69
			c0.108,1.174,1.786,1.529,2.129,0.288c0.757-2.74,1.956-5.544,2.052-8.411c-0.482,0.131-0.964,0.261-1.446,0.392
			c1.597,3.58,1.476,7.398,1.913,11.212c0.134,1.168,1.74,1.516,2.117,0.286c1.154-3.765,1.346-7.821,2.01-11.689
			c-0.421,0.111-0.842,0.222-1.263,0.333c3.575,3.864,2.373,9.748,2.998,14.551c0.149,1.146,1.563,1.377,1.998,0.27
			c1.548-3.934,1.762-8.181,2.392-12.324C447.293,208.549,446.478,208.311,446.255,208.91L446.255,208.91z"/>
	</g>
	<g>
		<path fill="#1D1D1B" d="M317.997,210.274c-10.706,11.16-13.626,30.907-9.926,45.498c0.286,1.126,2.027,1.153,2.298,0
			c5.028-21.446,27.687-40.227,48.556-45.325c1.858-0.454,1.044-3.124-0.776-2.815c-10.801,1.837-19.796,8.806-27.673,16.029
			c-8.606,7.892-16.173,17-23.499,26.069c-1.229,1.522,0.927,3.704,2.166,2.166c0.63-0.782,1.101-1.405,1.659-2.238
			c0.641-0.957-0.631-2.229-1.588-1.588c-0.833,0.558-1.456,1.029-2.238,1.66c0.722,0.722,1.444,1.444,2.166,2.166
			c6.972-8.137,13.671-16.438,21.331-23.958c7.869-7.726,17.308-15.483,28.451-17.491c-0.259-0.938-0.517-1.876-0.776-2.815
			c-21.802,5.617-44.276,25.356-50.078,47.506c0.766,0,1.532,0,2.298,0c-3.369-14.599-0.297-31.936,8.753-43.997
			C319.617,210.482,318.549,209.698,317.997,210.274L317.997,210.274z"/>
	</g>
	<g>
		<path fill="#1D1D1B" d="M320.967,208.395c11.968-1.876,27.113-9.784,37.666-0.031c0-0.71,0-1.42,0-2.13
			c-8.815,9.546-20.771,15.185-31.021,22.951c-4.158,3.15-8.185,6.625-12.122,10.046c-2.551,2.216-7.201,6.006-6.741,9.842
			c0.098,0.815,1.122,1.515,1.795,0.744c3.141-3.598,5.598-7.149,9.343-10.305c4.243-3.575,8.501-7.201,13.026-10.41
			c9.466-6.713,19.91-12.092,27.849-20.738c0.537-0.585,0.623-1.558,0-2.13c-10.817-9.942-28.579-4.618-40.208,1.184
			C319.968,207.71,320.412,208.482,320.967,208.395L320.967,208.395z"/>
	</g>
	<g>
		<path fill="#1D1D1B" d="M318.646,208.975c9.936-2.436,19.509-1.361,29.077,1.991c0.124-0.914,0.248-1.828,0.371-2.742
			c-1.146,0.068-2.589,0.037-3.547,0.74c-1.213,0.89-0.527,2.866,1.05,2.49c0.163-0.039,0.326-0.078,0.49-0.117
			c0.955-0.228,1.201-1.702,0.281-2.154c-0.149-0.073-0.297-0.146-0.446-0.219c-0.109,0.83-0.217,1.66-0.325,2.49
			c0.785-0.285,1.677-0.37,2.497-0.437c1.56-0.128,1.914-2.24,0.371-2.742c-10.082-3.283-20.107-4.387-30.103-0.33
			C317.738,208.197,317.959,209.144,318.646,208.975L318.646,208.975z"/>
	</g>
	<g>
		<path fill="#1D1D1B" d="M317.923,213.609c2.897-0.219,5.497-0.104,8.255,0.931c1.659,0.623,3.158,1.629,4.491,2.778
			c1.086,0.936,1.815,2.176,3.121,2.815c0.512,0.251,1.117-0.052,1.132-0.65c0.087-3.382-4.551-6.034-7.267-7.095
			c-3.206-1.253-7.187-1.913-10.09,0.354C317.217,213.013,317.505,213.64,317.923,213.609L317.923,213.609z"/>
	</g>
	<g>
		<path fill="#1D1D1B" d="M327.799,215.845c-0.361,1.957-0.924,3.81-1.58,5.686c0.659,0,1.317,0,1.976,0
			c-0.744-2.806-1.534-5.51-1.71-8.431c-0.066-1.097-1.753-1.449-2.001-0.271c-1.002,4.762-0.698,9.788-2.764,14.282
			c0.596,0.078,1.193,0.156,1.789,0.234c-0.904-5.214-1.258-10.458-2.461-15.627c-0.218-0.936-1.623-0.703-1.638,0.222
			c-0.123,7.317-0.109,14.768-2.468,21.777c0.654,0,1.308,0,1.962,0c-1.59-6.388-0.624-12.961-0.537-19.456
			c0.016-1.185-1.671-1.357-2.012-0.272c-2.868,9.124-4.421,19.715-4.47,29.282c-0.005,0.914,1.386,1.122,1.603,0.217
			c2.287-9.55,1.863-19.475,4.843-28.954c-0.671-0.091-1.341-0.182-2.012-0.272c-0.09,6.678-1.073,13.442,0.624,19.997
			c0.262,1.011,1.661,0.929,1.962,0c2.329-7.196,2.291-14.832,2.174-22.318c-0.546,0.074-1.092,0.148-1.638,0.222
			c1.154,5.052,1.897,10.265,2.146,15.444c0.044,0.915,1.357,1.411,1.824,0.494c2.343-4.601,1.99-9.779,3.038-14.728
			c-0.667-0.09-1.334-0.181-2.001-0.271c0.182,3.089,0.985,5.994,1.771,8.975c0.258,0.978,1.719,0.98,1.976,0
			c0.542-2.069,0.847-3.933,0.762-6.074C328.931,215.365,327.924,215.166,327.799,215.845L327.799,215.845z"/>
	</g>
	<g>
		<path fill="#1D1D1B" d="M342.863,202.658c-0.1,2.278-0.316,4.41,0.179,6.655c0.159,0.721,1.225,1.036,1.717,0.454
			c0.508-0.601,0.792-1.299,1.093-2.02c0.18-0.431,0.364-0.854,0.585-1.265c-0.755-0.244-0.987-0.171-0.698,0.219
			c0.049,0.094,0.074,0.217,0.104,0.319c0.263,0.894,1.605,1.172,2.066,0.27c0.552-1.079,0.784-2.285,1.614-3.202
			c-0.669-0.177-1.339-0.354-2.008-0.53c0.599,2.03-0.02,4.612,1.152,6.406c0.286,0.438,0.888,0.438,1.174,0
			c1.218-1.868,0.61-5.027-0.009-7.045c-0.25-0.817-1.385-1.234-2.008-0.53c-1.079,1.218-1.403,2.556-1.981,4.03
			c0.727,0,1.454,0,2.18,0c-0.388-0.955-1.084-2.37-2.366-2.018c-1.589,0.437-1.494,2.836-2.352,3.912
			c0.573,0.151,1.145,0.302,1.718,0.453c-0.509-2.026-0.888-4.021-0.982-6.109C344.007,201.898,342.896,201.898,342.863,202.658
			L342.863,202.658z"/>
	</g>
	<g>
		<path fill="#1D1D1B" d="M317.186,208.707c0.027-0.06,0.076-0.113,0.156-0.19c0.404-0.392-0.327,0.154,0.159-0.131
			c0.257-0.151,0.388-0.415,0.494-0.679c0.083-0.191,0.038-0.13-0.133,0.183c0.199-0.224,0.282-0.438,0.305-0.736
			c0.129-1.681-1.764-2.746-3.004-3.407c-0.984-0.524-2.085,0.136-2.145,1.231c-0.097,1.781,0.348,3.618,1.793,4.782
			c1.122,0.904,3.082,1.997,4.494,1.321c-0.32,0.042-0.639,0.084-0.959,0.126c0.908,0.131,1.984-0.292,1.674-1.42
			c-0.056-0.2-0.157-0.374-0.304-0.521c0.04,0.092,0.081,0.183,0.121,0.275c-0.067-0.24-0.188-0.448-0.364-0.624
			c-0.381-0.381-0.896-0.629-1.389-0.825c-0.562-0.224-1.121-0.465-1.542-0.876c-0.547-0.534-0.609-1.525-0.673-2.236
			c-0.602,0.458-1.203,0.916-1.804,1.374c0.726,0.262,1.554,0.567,2.095,1.142c0.06,0.064,0.259,0.84,0.071,0.119
			c0.01,0.037,0.11,0.478,0.273,0.672c-0.074-0.18-0.149-0.36-0.224-0.54c0.018,0.286-0.063,0.559,0.012,0.844
			C316.391,208.972,317.005,209.104,317.186,208.707L317.186,208.707z"/>
	</g>
	<g>
		<path fill="#1D1D1B" d="M466.987,211.508c0.065-0.165-0.026,0.135-0.003,0.124c0.127-0.058,0.358-0.305,0.411-0.43
			c0.17-0.402,0.335-0.782,0.458-1.203c0.306-1.055,0.495-2.181,0.522-3.279c0.017-0.719-0.623-1.356-1.341-1.34
			c-1.074,0.023-2.19,0.34-2.68,1.394c-0.388,0.834-0.367,1.804-0.48,2.7c-0.102,0.809,0.882,1.109,1.464,0.84
			c0.634-0.293,1.081-0.94,1.252-1.608c0.064-0.252,0.113-0.504,0.193-0.752c-0.074,0.229-0.213,0.128,0.251,0.107
			c-0.447-0.447-0.894-0.894-1.34-1.34c-0.002,0.992-0.077,1.982-0.1,2.973c-0.009,0.391-0.076,0.906,0.061,1.282
			c0.07,0.191,0.127,0.372,0.274,0.521c-0.056-0.057-0.026-0.296-0.028-0.135C465.891,212.026,466.77,212.058,466.987,211.508
			L466.987,211.508z"/>
	</g>
	<g>
		<path fill="#1D1D1B" d="M462.526,212.202c1.412,3.212,1.508,6.465,1.221,9.929c-0.243,2.94-1.97,6.267-1.509,9.159
			c0.074,0.462,0.745,0.725,1.119,0.455c2.828-2.04,2.881-7.436,3.064-10.608c0.17-2.938,0.054-8.258-3.188-9.642
			C462.744,211.286,462.309,211.708,462.526,212.202L462.526,212.202z"/>
	</g>
	<g>
		<path fill="#1D1D1B" d="M478.693,231.812c0.36,1.751,0.408,16.76,2.945,16.063c1.519-0.418,0.381-4.189,0.253-5.049
			c-0.561-3.778-0.968-7.653-2.149-11.303C479.526,230.852,478.552,231.126,478.693,231.812L478.693,231.812z"/>
	</g>
	<g>
		<path fill="#1D1D1B" d="M482.735,244.432c-0.205,3.642-0.471,7.262-1.718,10.72c0.748,0.101,1.496,0.202,2.244,0.304
			c-0.108-5.796-6.087-11.375-11.147-13.516c-0.733-0.31-1.705,0.372-1.191,1.191c2.932,4.663,8.419,7.004,10.093,12.629
			c0.315,1.058,1.922,1.124,2.203,0c0.934-3.733,0.813-7.514,0.603-11.327C483.785,243.73,482.775,243.731,482.735,244.432
			L482.735,244.432z"/>
	</g>
	<g>
		<path fill="#1D1D1B" d="M393.929,383.733c23.573-1.705,46.901-7.727,63.564-25.405c15.819-16.783,24.31-39.988,23.387-62.947
			c-0.793-19.716-9.347-38.889-21.49-54.184c-12.07-15.204-30.848-28.361-50.956-27.978c-1.135,0.022-1.473,1.855-0.277,2.048
			c19.363,3.117,35.315,12.265,47.958,27.277c12.332,14.642,20.245,33.705,21.34,52.838c1.272,22.214-7.528,44.191-22.361,60.548
			c-16.244,17.914-38.849,21.483-61.488,25.418C392.256,381.582,392.57,383.832,393.929,383.733L393.929,383.733z"/>
	</g>
	<g>
		<path fill="#1D1D1B" d="M323.966,241.771c-18.817,17.933-21.682,49.011-16.269,73.231c2.835,12.684,7.933,25.074,14.672,36.173
			c3.009,4.956,6.561,9.61,10.645,13.727c5.071,5.111,10.961,7.713,17.702,9.918c1.165,0.381,1.765-1.287,0.803-1.906
			c-5.533-3.56-11.364-5.652-16.211-10.308c-3.988-3.83-7.212-8.405-10.138-13.07c-6.54-10.429-11.133-22.121-14.187-34.015
			c-6.182-24.074-2.466-53.505,13.66-73.071C325.033,241.98,324.422,241.336,323.966,241.771L323.966,241.771z"/>
	</g>
	<g>
		<path fill="#1D1D1B" d="M346.052,373.536c10.645,12.391,30.895,14.097,46.064,13.535c8.771-0.325,17.534-1.875,25.897-4.519
			c7.196-2.275,15.208-5.574,20.129-11.52c0.684-0.826-0.179-2.165-1.197-1.552c-6.442,3.877-12.621,7.522-19.796,9.939
			c-8.059,2.715-16.563,4.039-25.033,4.492c-16.115,0.862-31.834-2.444-45.548-11.045
			C346.137,372.597,345.75,373.185,346.052,373.536L346.052,373.536z"/>
	</g>
	<g>
		<path fill="#1D1D1B" d="M314.834,312.213c-1.168,0.272-5.211,1.294-4.351,3.214c0.388,0.867,1.587,0.072,2.034-0.267
			c0.884-0.672,1.852-1.198,2.863-1.655C316.138,313.162,315.582,312.039,314.834,312.213L314.834,312.213z"/>
	</g>
	<g>
		<path fill="#1D1D1B" d="M315.693,318.439c-1.752,1.189-3.883,3.255-3.411,5.595c0.07,0.348,0.497,0.385,0.727,0.192
			c1.429-1.202,2.1-3,3.663-4.112C317.678,319.4,316.738,317.731,315.693,318.439L315.693,318.439z"/>
	</g>
	<g>
		<path fill="#1D1D1B" d="M316.575,326.138c-1.065,0.331-1.927,0.945-2.73,1.706c-0.593,0.561-1.714,1.554-1.624,2.457
			c0.028,0.278,0.199,0.458,0.48,0.48c0.827,0.067,1.497-0.87,1.991-1.411c0.717-0.785,1.433-1.517,2.428-1.94
			C317.864,327.114,317.329,325.904,316.575,326.138L316.575,326.138z"/>
	</g>
	<g>
		<path fill="#1D1D1B" d="M361.711,342.177c-1.292,1.372-2.358,3.043-2.803,4.891c-0.056,0.231,0.289,0.398,0.398,0.168
			c0.776-1.642,1.728-3.154,3.021-4.444C362.724,342.395,362.095,341.768,361.711,342.177L361.711,342.177z"/>
	</g>
	<g>
		<path fill="#1D1D1B" d="M369.157,343.241c-4.411,5.577-9.101,11.535-11.489,18.31c-0.115,0.327,0.378,0.515,0.547,0.23
			c3.669-6.174,7.257-12.095,11.75-17.733C370.419,343.479,369.613,342.665,369.157,343.241L369.157,343.241z"/>
	</g>
	<g>
		<path fill="#1D1D1B" d="M386.034,335.17c-11.215,10.034-23.755,22.967-28.963,37.401c-0.127,0.352,0.394,0.536,0.58,0.244
			c8.599-13.495,17.204-26.031,29.088-36.94C387.215,335.438,386.511,334.743,386.034,335.17L386.034,335.17z"/>
	</g>
	<g>
		<path fill="#1D1D1B" d="M381.966,350.249c-5.371,5.298-14.153,12.663-15.052,20.666c-0.038,0.34,0.452,0.421,0.608,0.165
			c2.232-3.66,3.919-7.344,6.597-10.764c2.605-3.326,5.605-6.342,8.565-9.348C383.144,350.5,382.433,349.788,381.966,350.249
			L381.966,350.249z"/>
	</g>
	<g>
		<path fill="#1D1D1B" d="M375.578,366.488c-1.169,1.25-2.238,3.267-2.264,5.007c-0.005,0.33,0.405,0.389,0.574,0.156
			c0.499-0.686,0.717-1.525,1.049-2.298c0.339-0.786,0.779-1.513,1.371-2.134C376.768,366.736,376.033,366.001,375.578,366.488
			L375.578,366.488z"/>
	</g>
	<g>
		<path fill="#1D1D1B" d="M429.254,275.004c-2.009,4.946-6.828,8.269-8.345,13.443c-0.1,0.34,0.362,0.501,0.547,0.23
			c2.968-4.349,7.062-8.418,9.091-13.317C430.878,274.563,429.576,274.211,429.254,275.004L429.254,275.004z"/>
	</g>
	<g>
		<path fill="#1D1D1B" d="M432.278,280.677c-2.361,4.835-5.69,9.171-7.865,14.076c-0.131,0.295,0.238,0.661,0.484,0.374
			c3.474-4.072,6.335-8.919,8.429-13.836C433.626,280.589,432.627,279.961,432.278,280.677L432.278,280.677z"/>
	</g>
	<g>
		<path fill="#1D1D1B" d="M433.739,286.175c-4.327-3.274-9.211-7.499-14.862-7.911c-0.383-0.028-0.564,0.583-0.201,0.743
			c5.228,2.307,9.756,4.98,14.349,8.389C433.761,287.943,434.455,286.717,433.739,286.175L433.739,286.175z"/>
	</g>
	<g>
		<path fill="#1D1D1B" d="M424.679,292.249c-1.216-1.76-3.41-4.324-5.801-4.131c-0.416,0.033-0.542,0.52-0.206,0.76
			c0.846,0.604,1.835,0.951,2.665,1.602c0.863,0.677,1.573,1.542,2.183,2.446C424.002,293.641,425.171,292.962,424.679,292.249
			L424.679,292.249z"/>
	</g>
	<g>
		<path fill="#1D1D1B" d="M351.521,316.586c-0.58,1.165-1.172,2.318-1.879,3.412c-0.722,1.116-1.638,2.095-2.41,3.176
			c-0.16,0.224,0.107,0.583,0.368,0.479c2.667-1.055,3.977-3.917,5.189-6.326C353.214,316.483,351.943,315.738,351.521,316.586
			L351.521,316.586z"/>
	</g>
	<g>
		<path fill="#1D1D1B" d="M355.056,323.601c-2.472,0.063-4.799,0.67-6.671,2.35c-0.329,0.295,0.027,0.75,0.397,0.682
			c2.132-0.395,4.075-1.223,6.274-1.236C356.214,325.389,356.213,323.572,355.056,323.601L355.056,323.601z"/>
	</g>
	<g>
		<path fill="#1D1D1B" d="M441.725,392.586c-1.59-0.701-3.048-1.607-4.55-2.478c-0.208,0.355-0.416,0.711-0.623,1.066
			c8.956,4.891,19.587-2.009,28.741-2.883c-0.1-0.741-0.201-1.482-0.301-2.223c-16.059,2.175-32.247,2.76-48.436,2.232
			c0.105,0.773,0.209,1.545,0.314,2.318c20.181-3.186,39.832,5.529,60.027,4.669c1.317-0.056,1.583-1.896,0.31-2.289
			c-16.112-4.977-33.289-0.823-49.626,0.734c-0.498,0.047-0.506,0.743,0,0.78c16.448,1.205,32.807-4.279,49.007,0.734
			c0.103-0.763,0.207-1.526,0.31-2.289c-20.438,0.861-40.192-7.835-60.654-4.614c-1.363,0.215-0.961,2.276,0.314,2.318
			c16.417,0.543,32.766-0.103,49.037-2.41c1.259-0.178,0.964-2.352-0.301-2.223c-9.423,0.958-18.723,7.073-28.266,4.018
			c-0.759-0.243-1.09,0.962-0.328,1.191c1.616,0.484,3.043,1.446,4.586,2.101C441.793,393.553,442.24,392.814,441.725,392.586
			L441.725,392.586z"/>
	</g>
	<g>
		<path fill="#1D1D1B" d="M361.438,391.756c-12.515,0.047-25-2.392-37.404,0.222c0.181,0.656,0.362,1.312,0.543,1.968
			c13.682-3.844,28.857,3.75,41.987-2.477c0.615-0.292,0.64-1.373,0-1.657c-15.509-6.867-31.662,4.115-47.218-0.702
			c0,0.633,0,1.266,0,1.9c5.471-2.127,11.186-1.309,16.848-0.545c5.442,0.734,10.858,0.789,16.343,0.757
			c11.309-0.067,22.473,0.004,33.726,1.25c18.171,2.012,39.061,6.906,56.667-0.29c1.155-0.472,0.742-2.277-0.53-1.922
			c-2.804,0.784-1.501,1.43-2.236,3.652c-0.281,0.85,1.028,1.398,1.442,0.608c0.387-0.739,0.471-2.099,1.324-2.338
			c-0.177-0.641-0.353-1.281-0.53-1.922c-17.724,7.263-39.203,2.218-57.521,0.113c-11.421-1.313-22.754-1.242-34.229-1.144
			c-5.907,0.05-11.61-0.38-17.46-1.119c-4.883-0.616-9.721-0.801-14.369,1.001c-0.887,0.344-0.986,1.593,0,1.9
			c15.406,4.785,31.55-6.202,46.774,0.459c0-0.552,0-1.105,0-1.657c-12.87,6.173-28.079-1.727-41.561,2.165
			c-1.27,0.367-0.738,2.247,0.543,1.968c12.193-2.66,24.547-0.15,36.861-0.939C362.236,392.956,362.251,391.753,361.438,391.756
			L361.438,391.756z"/>
	</g>
</g>
</svg>
