<?xml version="1.0" encoding="utf-8"?>
<!-- Generator: Adobe Illustrator 17.0.0, SVG Export Plug-In . SVG Version: 6.00 Build 0)  -->
<!DOCTYPE svg PUBLIC "-//W3C//DTD SVG 1.1//EN" "http://www.w3.org/Graphics/SVG/1.1/DTD/svg11.dtd">
<svg version="1.1" id="Layer_1" xmlns="http://www.w3.org/2000/svg" xmlns:xlink="http://www.w3.org/1999/xlink" x="0px" y="0px"
	 width="355px" height="402px" viewBox="0 0 355 402" enable-background="new 0 0 355 402" xml:space="preserve">
<g>
	<path fill="#131110" d="M143.235,51.123c0,0,0,0,0-0.003l0,0V51.123z M226.402,47.927c-0.722-0.493-1.462-0.921-2.208-1.365
		c-0.663-0.401-1.22-0.888-1.856-1.312c-0.661-0.437-1.338-0.763-2.038-1.016c-0.074-0.132-0.153-0.26-0.237-0.378
		c-0.682-0.954-1.486-1.664-2.416-2.167c0.401-0.842,0.534-1.69,0.492-2.676c-0.044-1.049-0.286-2.581,0.212-3.564
		c0.366-0.727,1.263-1.272,1.267-2.17c0.232,0,0.437-0.02,0.644-0.092c0.556-0.2,0.791-0.667,0.97-1.223
		c0.136-0.418,0.15-1.204,0.345-1.549c0.191-0.332,0.907-0.648,1.197-0.931c0.321-0.319,0.571-0.648,0.758-1.045
		c0.235-0.473,0.24-1.147,0.077-1.736c0.917-0.082,2.02-0.237,2.027-1.135c0.013-0.809-0.337-1.924-1.106-2.252
		c-0.196-0.086-0.408-0.145-0.626-0.191c0.092-0.128,0.159-0.267,0.184-0.428c0.159-0.878-0.002-1.924-0.694-2.529
		c-0.567-0.5-1.185-0.792-1.833-0.93c-0.112-0.352-0.217-0.694-0.294-1.006c-0.191-0.756-0.406-1.522-0.641-2.252
		c1.167-0.566,0.919-2.012,0.668-3.032c-0.242-1.026-0.584-2.67-1.723-3.094c-0.955-0.355-2.287,0.362-3.201,0.655
		c-0.255,0.079-0.579,0.26-0.852,0.24c-0.252-0.016-0.406-0.221-0.666-0.243c-0.492-0.056-1.136,0.368-1.595,0.536
		c-0.24,0.082-0.487,0.174-0.725,0.26c-0.509-0.457-0.999-0.395-1.762-0.023c-0.603,0.302-0.459,0.592-0.375,1.194
		c-0.659,0.315-1.748,0.546-2.094,0.654c-0.981,0.312-1.922,0.447-1.822,1.568c0.051,0.582,0.155,1.154,0.298,1.723
		c-0.085,0.033-0.174,0.066-0.255,0.102c-0.653,0.276-0.6,0.664-0.704,1.312c-0.13,0.779-0.276,1.595-0.441,2.387
		c-0.503,0.467-1.005,0.93-1.503,1.401c-0.613,0.582-1.365,1.075-1.915,1.687c-0.985,1.088-0.385,3.015-0.077,4.32
		c0.23,0.973,0.603,1.937,0.778,2.91c0.097,0.556,0.046,1.167,0.176,1.69c0.197,0.802,0.664,1.371,1.182,1.904
		c-0.002,0.197-0.008,0.395-0.016,0.595c-0.252,0.135-0.498,0.266-0.728,0.414c-1.027,0.638-2.134,1.845-2.198,3.097
		c-0.062,1.249,0.608,1.881,1.756,1.407c0.372-0.151,0.732-0.312,1.093-0.477c0.01,0.148,0.016,0.296,0.03,0.447
		c0.044,0.773,0.049,1.539,0.035,2.311c-0.447,0.201-0.799,0.523-0.88,1.092c-0.105,0.684-0.067,1.424-0.02,2.144
		c-0.064,0.033-0.125,0.066-0.184,0.105c-0.636,0.424-0.737,1.355-0.914,2.039c-0.245,0.944-0.426,1.917-0.561,2.874
		c-0.45,3.262-1.874,6.247-2.057,9.562c-0.072,1.368,0.159,2.861-0.054,4.192c-0.192,1.21-1.731,1.263-2.303,2.364
		c-0.511,0.987-0.37,2.203,0.02,3.206c-0.577,0.76-1.559,1.095-2.211,1.835c-0.403,0.46-0.421,0.911-0.245,1.332
		c-0.232,0.138-0.455,0.296-0.654,0.47c-0.386,0.352-0.791,0.599-1.105,0.983c-0.832-0.467-1.578-1.177-2.563-0.49
		c-0.189-0.454-0.958-0.306-1.328-0.2c-0.546,0.161-0.598,0.375-0.954-0.125c-0.299-0.431-0.5-0.746-0.978-1.012
		c-0.48-0.29-0.779-0.25-1.32-0.306c-1.141-0.131-1.598-1.187-2.366-1.91c-0.787-0.753-1.508-1.424-2.366-2.068
		c-1.45-1.085-2.943-2.19-4.634-2.91c-0.59-0.253-1.207-0.506-1.835-0.753c-0.585-0.868-1.299-1.272-2.19-1.927
		c-0.492-0.362-0.967-0.753-1.445-1.141c0.406-0.809,0.894-1.572,1.401-2.321c0.061-0.075,0.123-0.148,0.189-0.217
		c1.1-1.154,2.26-2.259,3.566-3.183c0.811-0.562,1.427-0.349,2.32-0.595c1.674-0.464,2.106-3.022,1.583-4.373
		c-0.291-0.753-1.009-1.243-1.309-1.963c-0.376-0.898,0.567-1.394,0.444-2.266c-0.153-1.045-0.796-1.266-1.608-1.197
		c0.186-0.598,0.281-1.197,0.352-1.828c0.398-0.174,0.738-0.424,0.85-0.934l-0.002,0.007c0.079-0.194,0.113-0.417,0.058-0.638
		c0.053,0.033,0.21,0.053,0.289,0.102c-0.094-0.444-0.477-0.99-0.449-1.434c0.072,0.033,0.184,0.033,0.248,0.063
		c-0.181-0.562-0.383-1.049-0.7-1.467c1.286-0.312,2.308-0.99,2.218-2.587c-0.048-0.862-0.141-1.904-0.922-2.41
		c-0.801-0.52-1.545-1.02-2.288-1.621c-0.748-0.608-1.498-1.003-2.331-1.45c-0.372-0.201-0.671-0.431-0.891-0.71
		c0.12-0.25,0.245-0.49,0.378-0.723c0.329-0.572,0.733-1.318,0.455-1.996c-0.007-0.013-0.062,0.043-0.081,0.043
		c0.008-0.102-0.053-0.227-0.058-0.303c-0.051,0.049-0.109,0.092-0.156,0.145c-0.09-0.194-0.021-0.431-0.005-0.644
		c-0.105,0.135-0.25,0.266-0.388,0.296c-0.146-1.21-1.802-2.101-2.573-2.976c-1.151-1.299-1.675-2.93-2.91-4.182
		c-0.797-0.802-1.623-1.733-2.558-2.469c0.136-0.691,0.163-1.364,0.031-1.979c-0.09,0.253-0.11,0.536-0.247,0.776
		c0.007-0.441-0.449-0.914-0.654-1.282c-0.288-0.526-0.554-0.963-0.944-1.41c0.044,0.161,0.082,0.335,0.112,0.5
		c-0.395-0.431-0.827-0.539-1.337-0.756c-0.587-0.246-0.972-0.891-1.649-1.062c0.113,0.112,0.194,0.26,0.279,0.391
		c-0.482-0.207-1.161-0.358-1.692-0.279c-0.521,0.069-1.004,0.467-1.519,0.444c0.095,0.161,0.303,0.221,0.485,0.23
		c-0.863,0.043-1.79-0.069-2.658,0.066c-0.914,0.138-1.841,0.46-2.778,0.401c-2.02-0.105-3.992,1.726-6.058,0.815
		c0.13,0.243,0.13,0.602,0.467,0.595c-0.69,0.02-1.519,0.424-2.173,0.651c-0.278,0.105-0.496,0.224-0.791,0.263
		c-0.284,0.026-0.714-0.181-0.899,0.043c0.043,0.039,0.105,0.148,0.153,0.194c-0.622-0.092-1.151,0.253-1.609,0.473
		c-0.431,0.21-0.96,0.266-1.411,0.437c-0.615,0.237-1.07,0.763-1.649,1.016c-0.405,0.177-0.753,0.148-1.171,0.444
		c-0.375,0.27-0.654,0.635-1.004,0.911c-0.344,0.266-0.51,0.625-0.817,0.908c-0.319,0.293-0.812,0.431-1.144,0.697
		c0.15,0.082,0.323,0.145,0.498,0.168c0.041,0.266-0.128,0.447-0.263,0.694c-0.003,0.01-0.007,0.02-0.011,0.027
		c-0.51-0.112-0.806-0.221-1.143,0.171c-0.602,0.707-0.879,1.647-1.674,2.216c0.148-0.029,0.265-0.003,0.418-0.075
		c-0.411,0.625-1.021,0.973-1.467,1.601c-0.62,0.878-0.616,2.078-1.18,3.005c0.171-0.033,0.312-0.135,0.391-0.286
		c-0.914,1.749-0.036,4.659,0.464,6.425c0.077-0.122,0.156-0.158,0.188-0.332c-0.182,1.634,1.493,2.63,1.618,4.159
		c0.069-0.039,0.12-0.016,0.196-0.079c0.187,0.625,0.62,1.516,1.006,2.048c0.243,0.332,0.533,0.552,0.707,0.957
		c0.23,0.536,0.166,1.243,0.403,1.723c0.062-0.128,0.131-0.273,0.094-0.45c0.1,0.322,0.191,0.635,0.359,0.927
		c0.047-0.148,0.067-0.322,0.059-0.487c0.143,0.375,0.391,0.904,0.738,1.154c0.021-0.263-0.069-0.51-0.12-0.763
		c1.21,1.94,3.709,3.397,4.112,5.735c0.056-0.158,0.091-0.345,0.091-0.523c0.069,0.214,0.196,0.286,0.357,0.105
		c0.165,0.276,0.515,0.388,0.745,0.674c0.245,0.303,0.419,0.76,0.613,1.075c0.005-0.053,0.095-0.197,0.1-0.29
		c0.47,0.45,0.503,0.842,0.696,1.437c0.039-0.276-0.046-0.549-0.043-0.825l0,0v0.003c0,0,0-0.003,0-0.007l0,0l0,0
		c0.038-0.086,0.074-0.177,0.105-0.266c0.13,0.184,0.252,0.372,0.349,0.575c0.197,0.411,0.261,0.95,0.518,1.315
		c0.143-0.243,0.149-0.516,0.2-0.782c0.105,0.279,0.23,0.569,0.342,0.832c0.03-0.056,0.081-0.115,0.11-0.171
		c0.171,0.286,0.309,0.661,0.311,0.983c0.184-0.108,0.14-0.417,0.426-0.437c0.039,0.184,0.061,0.362,0.036,0.556
		c0.227-0.108,0.411-0.276,0.61-0.424c-0.038,0.056-0.067,0.118-0.104,0.174c0.215,0.053,0.464,0.046,0.715,0
		c0.084,0.526,0.084,1.033,0.011,1.523c-0.98-0.24-2.116-0.809-3.074-0.73c-1.1,0.089-1.598,2.127-1.948,3.005
		c-0.44,1.101-0.814,2.163-1.465,3.137c-0.505,0.756-0.35,1.355,0.138,1.92c-0.748,1.318-1.549,2.644-1.791,4.136
		c-0.156,0.993-0.023,2.039-0.143,3.038c-0.117,0.993-0.222,1.917-0.191,2.92c0.064,2.022,0.651,4.005,0.977,5.994
		c-0.018,0.201-0.046,0.401-0.081,0.599c-0.311,1.706-0.475,3.396-0.475,5.149c0,2.022,0.309,4.07,0.572,6.083
		c0.263,2.039,0.819,3.942,1.299,5.938c0.942,3.867,1.899,7.727,2.935,11.574c0.662,2.456,1.42,4.919,2.586,7.184
		c0.146,0.605,0.302,1.207,0.534,1.789c0.311,0.779,0.7,1.519,1.024,2.292c0.672,1.611,1.457,3.229,1.978,4.889
		c0.266,0.835,0.327,1.707,0.681,2.512c0.306,0.694,0.608,1.23,0.764,1.989c0.26,1.276,1.078,2.213,1.417,3.426
		c0.145,0.536,0.319,1.019,0.424,1.549c-0.283,0.171-0.554,0.355-0.76,0.582c-0.342,0.362-0.386,0.865-0.549,1.302
		c-0.237,0.651-0.605,1.266-0.86,1.91c-0.533,1.345,0.199,2.631,0.81,3.817c0.452,0.862,0.483,1.835,0.814,2.752
		c0.432,1.177,1.328,2.131,1.646,3.357c0.298,1.154,0.538,2.328,0.955,3.446c0.344,0.914,0.861,1.743,1.443,2.532
		c-0.018,0.293-0.036,0.575-0.056,0.868c-0.051,0.546-0.136,1.082-0.251,1.604c-0.362,0.52-0.771,1.016-1.243,1.499
		c-1.276,1.325-2.68,2.489-2.908,4.429c-0.155,1.292,0.135,2.548,0.298,3.82c0.081,0.668,0.036,1.351,0.041,2.026
		c0.016,1.473,0.283,2.943,0.283,4.422c-0.007,0.947,0.117,1.874,0.286,2.798c0.298,1.628,0.401,3.259,0.676,4.899
		c0.092,0.526,0.169,1.065,0.255,1.618c0.016,0.312,0.044,0.618,0.085,0.937c0.238,1.782,0.763,3.627,1.21,5.373
		c0.475,1.884,0.952,3.742,1.241,5.672c0.232,1.509,0.286,3.124,0.75,4.567c0.184,0.575,0.439,0.655,1.029,0.655
		c0.498,0,1.003-0.013,1.504-0.027c0.184,0.717,0.506,1.378,1.121,1.917c0.362,0.312,0.761,0.52,1.192,0.674
		c0.173,0.95,0.015,1.877,0.13,2.857c0.155,1.309,0.72,2.551,1.656,3.472c1.074,1.052,1.031,2.193,0.572,3.656
		c-0.469,1.503-1.522,2.591-1.335,4.251c0.084,0.763,0.344,1.45,0.717,2.114c0.266,0.477,0.449,0.98,0.649,1.476
		c0.018,0.326,0.038,0.667,0.051,1.003c0.039,0.894-0.076,1.746-0.15,2.637c-0.136,1.634,0.495,3.133,0.766,4.702
		c0.242,1.355,0.067,2.686,0,4.057c-0.074,1.618,0.47,3.268,0.939,4.807c0.018,0.072,0.039,0.148,0.059,0.22
		c-0.016,0.039-0.041,0.075-0.059,0.108c-0.557,0.97-1.149,1.904-1.754,2.841c-1.177,1.828-1.547,3.985-1.953,6.086
		c-0.429,2.219-0.751,4.554-0.635,6.822c-0.455,2.604-0.587,5.271-1.097,7.872c-0.699,3.515-1.18,7.007-1.761,10.515
		c-0.293,1.749-0.661,3.495-0.939,5.257c-0.358,2.325-0.485,4.689-0.931,7c-0.549,2.907-1.251,5.902-1.43,8.855
		c-0.197,0.983-0.383,1.969-0.556,2.952c-0.278,1.578-0.473,3.15-0.695,4.722c-0.138,0.224-0.283,0.454-0.427,0.684
		c-1.049,1.654-2.206,3.232-3.378,4.778c-1.797,2.371-2.313,5.747-2.851,8.605c-0.141,0.753-0.449,1.434-0.717,2.157
		c-0.608,1.621-0.909,3.364-1.304,5.041c-0.467,1.933-0.88,3.877-1.325,5.823c-0.246,1.056-0.171,1.973-0.238,3.028
		c-0.108,1.713-1.246,3.426-1.767,5.047c-0.242,0.75-0.541,1.539-0.689,2.312c-0.086,0.451,0.071,0.766,0.345,1.012
		c-0.031,0.224-0.051,0.444-0.056,0.674c-0.026,0.99,0,1.957,0.138,2.913c-0.051,0.006-0.102,0.01-0.158,0.016
		c-0.391,0.029-0.5-0.076-0.671,0.263c-0.104,0.194-0.059,0.736-0.069,0.95c-0.018,0.49,0.006,0.99,0.006,1.476
		c0,0.707-0.189,1.512-0.103,2.206c0.097,0.756,0.907,1.023,1.516,1.308c0.889,0.424,1.808,0.724,2.762,0.967
		c1.734,0.437,3.597,0.516,5.366,0.582c0.858,0.023,1.716,0.01,2.542-0.036c1.044-0.066,1.623-0.483,2.501-1.089
		c0.447-0.315,0.863-0.677,1.264-1.052c1.236,0.464,2.445,1.019,3.694,1.523c4.168,1.67,7.541,1.973,15.136,2.226
		c1.143,0.036,2.3-0.079,3.439-0.099c2.842-0.059,6.061-0.401,8.856-0.911c1.422-0.257,2.553-0.48,3.972-0.753
		c1.228-0.237,2.42-0.503,3.627-0.812c0.483-0.128,1.125-0.319,1.511-0.644c0.189-0.164,0.266-0.338,0.279-0.539
		c2.361-0.414,4.713-0.894,7.081-1.282c2.121-0.339,4.202-0.891,6.321-1.213c0.672-0.099,0.829-0.105,0.825-0.746
		c0-0.303,0.046-0.924-0.168-1.167c0-0.006,0-0.017,0-0.023c-0.23-0.168-0.567-0.204-0.857-0.217c-0.12-0.006-0.24-0.013-0.36-0.013
		c0.002-0.086,0.008-0.161,0.015-0.23c0.092-0.927-0.13-2.312-0.794-3.032c-0.944-1.013-2.68-0.96-3.974-0.908
		c-1.718,0.072-3.553,0.658-5.246,0.316c-0.631-0.118-1.236-0.286-1.891-0.326c-0.722-0.036-1.55-0.079-2.241-0.352
		c-0.47-0.181-0.709-0.592-1.105-0.891c-0.518-0.391-1.103-0.671-1.664-1.006c-0.472-0.289-0.947-0.615-1.409-0.921
		c-0.224-0.151-0.411-0.319-0.585-0.51c0.159-0.138,0.281-0.286,0.324-0.444c0.09-0.342-0.14-0.904-0.199-1.249
		c-0.067-0.487-0.069-1.019-0.092-1.519c-0.067-1.315-0.145-2.535-0.367-3.827c-0.335-1.94-0.531-3.919-0.733-5.872
		c-0.14-1.361-0.641-2.391-1.11-3.646c-0.853-2.322-1.208-4.699-1.294-7.102c2.224-2.811,4.521-5.787,5.565-9.249
		c0.651-2.15,1.032-4.376,1.47-6.592c0.722-2.104,1.44-4.202,2.244-6.29c0.449-1.18,0.738-2.407,1.159-3.58
		c0.541-1.49,1.136-3.005,1.512-4.544c0.692-2.831,1.736-5.564,2.211-8.424c0.381-2.292,0.986-4.594,1.269-6.918
		c0.097-0.756,0.186-1.516,0.271-2.269c0.008-0.069,0.02-0.132,0.033-0.197c0.396-2.104,0.855-4.192,1.161-6.293
		c0.353-2.407,0.835-4.804,1.156-7.237c0.196-1.433,0.186-2.933,0.253-4.376c0.066-1.443,0.23-2.854,0.349-4.294
		c0.541-6.388,1.258-12.81,1.258-19.264c0-0.783-0.023-1.529-0.118-2.275c0.044-0.724,0.041-1.437-0.03-2.134
		c-0.201-2.098,0.076-4.123,0.367-6.231c0.288-2.108,0.376-4.199,0.602-6.306c0.125-1.21,0.279-2.44,0.283-3.656
		c0-0.782-0.084-1.591-0.046-2.384c0.043-0.904,0.344-1.808,0.495-2.712c0.163-0.931,0.247-1.855,0.324-2.785
		c0.035-0.431,0.09-0.858,0.155-1.282c0.482-0.006,0.963-0.115,1.443-0.155c0.442-0.039,0.88,0.072,1.307,0.056
		c0.738-0.029,1.541-0.26,2.188-0.608c1.243-0.671,2.348-1.398,3.459-2.279c1.014-0.805,1.606-1.891,2.157-3.068
		c0.771-1.661,1.421-3.328,1.777-5.129c0.789-3.946,1.232-8.036,1.098-12.077c-0.071-2.002-0.311-4.001-0.667-5.971
		c-0.286-1.555-0.5-3.127-0.96-4.649c-0.832-2.765-2.326-5.399-3.61-7.963c-0.173-0.339-0.36-0.667-0.561-0.983
		c-0.01-0.026-0.02-0.049-0.033-0.075c-1.832-4.64-3.85-9.19-5.346-13.961c-1.406-4.458-2.223-9.124-4.028-13.455
		c-0.1-0.237-0.201-0.47-0.306-0.704c-0.386-3.11-0.99-6.257-1.718-9.282c-0.383-1.582-1.281-3.018-1.9-4.524
		c-1.062-2.555-1.965-5.136-2.586-7.832c1.555-0.286,2.727-0.618,3.875-1.742c1.443-1.421,3.229-2.466,4.634-3.919
		c0.319-0.332,0.559-0.697,0.753-1.085c0.61-0.237,1.203-0.509,1.794-0.825c1.491-0.812,2.849-1.887,4.229-2.861
		c0.998-0.707,1.767-1.361,2.601-2.229c1.001-1.039,2.323-1.917,2.913-3.324c0.547-1.302,0.533-2.88,0.777-4.274
		c0.347-1.97,0.347-4.002,0.755-5.945c0.207-0.999,0.558-1.956,0.691-2.959c0.113-0.852,0.214-1.697,0.47-2.522
		c0.528-1.713,0.666-3.383,0.99-5.139c0.135-0.713,0.317-1.43,0.478-2.147c0.033-0.075,0.064-0.155,0.091-0.233
		c0.498-1.463,0.694-3.064,0.978-4.58c0.158-0.812,0.285-1.631,0.47-2.443c0.137-0.605,0.414-1.223,0.452-1.822
		C228.651,49.367,227.293,48.522,226.402,47.927z"/>
</g>
</svg>
