<?xml version="1.0" encoding="utf-8"?>
<!-- Generator: Adobe Illustrator 17.0.0, SVG Export Plug-In . SVG Version: 6.00 Build 0)  -->
<!DOCTYPE svg PUBLIC "-//W3C//DTD SVG 1.1//EN" "http://www.w3.org/Graphics/SVG/1.1/DTD/svg11.dtd">
<svg version="1.1" id="Layer_1" xmlns="http://www.w3.org/2000/svg" xmlns:xlink="http://www.w3.org/1999/xlink" x="0px" y="0px"
	 width="173.5px" height="214.5px" viewBox="0 0 173.5 214.5" enable-background="new 0 0 173.5 214.5" xml:space="preserve">
<g>
	<path d="M90.164,25.322l15.313,8.449l1.849,3.961l4.488,10.298c0,0,2.377,39.604,2.377,40.396c0,0.79,1.32,22.97,1.32,22.97
		l-6.073,2.639l-17.689,3.698l-16.635,1.847L73,118.524l-0.79-11.617l-1.056,0.795l-4.487-1.849l-4.754-3.962l0.264-1.847
		l5.543-11.618l1.849-1.849l-0.791-2.904c0,0-2.904-8.714,1.583-19.01l5.281-20.595C75.642,44.069,83.034,25.588,90.164,25.322z"/>
	<path fill="#F2F2F2" d="M89.457,25.409l-2.462-2.462c0,0-10.298,8.712-13.73,15.313l-0.791,1.32l3.407,3.911
		C77.15,40.492,83.306,26.64,89.457,25.409z"/>
	<path fill="#FDCC8A" d="M79.603,21.89l-2.641-1.849c-1.582-2.376-4.752-1.32-4.752-1.32l-0.265,1.847L67.72,21.89l-2.902-1.585
		l-0.266-6.6l-1.32-1.059l-3.167,2.114l-2.04,2.412l0.455,0.229l2.112,6.863l1.32,1.849l0.529,5.282l1.847,0.263l1.584,1.847
		l2.906,3.696l2.375,1.321l2.112-0.264c3.431-6.601,13.73-15.313,13.73-15.313l-1.321-1.849c0,0-0.054-0.31-0.176-0.836
		l-3.519,1.098L79.603,21.89z"/>
	<path d="M75.379,5.521c0,0-12.938-2.643-17.956,11.353l0.601,0.298l2.04-2.412l3.167-2.114l1.32,1.059l0.266,6.6l2.902,1.585
		l4.225-1.321l0.265-1.847c0,0,3.169-1.057,4.752,1.32l2.641,1.849l2.376-0.53l3.519-1.098C84.823,17.328,82.093,7.535,75.379,5.521
		z"/>
	<polygon fill="#FDCC8A" points="66.667,105.853 61.912,101.891 61.12,104.268 56.368,108.756 54.256,113.247 55.839,116.681 
		56.896,118.528 58.48,118.528 61.384,119.055 62.441,117.735 63.496,117.735 63.761,114.301 68.512,109.549 69.04,106.829 	"/>
	<path d="M143.233,174.502l-13.201-21.65l-6.339-7.392l-4.222-5.811l-2.643-1.583l-2.112-2.905l-2.639-15.577v-6.696l-2.64,1.147
		l-17.689,3.698l-16.635,1.847l-0.929-0.464l-2.241,6.276l-1.32,3.168l-4.488,16.372l-1.055,3.959l-1.849,21.385l-8.975,13.202
		c0,0-1.059,2.639-0.264,2.905c0.79,0.263,6.598,3.168,6.598,3.168l13.466-0.53v-8.183l1.849-3.433l1.321-4.754l2.112-3.696
		l0.263-4.487l1.849-3.697l0.263-1.583l1.586-1.85l10.56-20.329l16.636,24.819l14.256,17.688l5.282,8.713l0.792,5.807l1.318,1.324
		l9.769-2.114l7.13-6.864l0.264-1.586L143.233,174.502z"/>
	<path d="M73.793,190.609l-0.687-1.548l-12.516,0.491c0,0-2.78-1.39-4.755-2.335l-2.373,1.279l-1.847,1.583l-6.075-0.265
		c0,0-7.391,3.171,2.112,5.283l14.259,2.376l3.696,1.056l8.714,0.528l-0.266-5.281L73.793,190.609z"/>
	<path d="M149.306,184.799l-0.264,1.586l-7.13,6.864l-9.377,2.028l-1.184,6.158c0,0-8.975-0.792-7.657,5.544
		c0,0,15.581,3.697,18.485-1.321l4.224-6.336l1.586,0.792l6.862-6.075C154.849,194.038,151.416,184.537,149.306,184.799z"/>
	<path fill="#F2F2F2" d="M68.542,109.41l0.498-2.581l-2.373-0.976l-4.754-3.962l-0.792,2.377l-0.276,0.261
		C62.023,106.178,64.349,108.467,68.542,109.41z"/>
	<path fill="#604B3B" d="M140.984,91.716c1.117-7.073-11.909-17.496-11.909-17.496l-0.746-2.605l-20.91-33.668l4.395,10.084
		c0,0,0.112,1.861,0.285,4.782l6.182,8.754l5.954,11.166l-1.859,0.744l-7.075,0.744l-1.904,0.383
		c0.437,7.389,0.794,13.516,0.794,13.824c0,0.79,1.32,22.97,1.32,22.97l-3.916,1.701l0.483,6.487l17.741-8.145l13.027-12.281
		l1.117-2.606L140.984,91.716z"/>
</g>
</svg>
