<?xml version="1.0" encoding="utf-8"?>
<!-- Generator: Adobe Illustrator 17.0.0, SVG Export Plug-In . SVG Version: 6.00 Build 0)  -->
<!DOCTYPE svg PUBLIC "-//W3C//DTD SVG 1.1//EN" "http://www.w3.org/Graphics/SVG/1.1/DTD/svg11.dtd">
<svg version="1.1" id="Layer_1" xmlns="http://www.w3.org/2000/svg" xmlns:xlink="http://www.w3.org/1999/xlink" x="0px" y="0px"
	 width="800px" height="600px" viewBox="0 0 800 600" enable-background="new 0 0 800 600" xml:space="preserve">
<g>
	<linearGradient id="SVGID_1_" gradientUnits="userSpaceOnUse" x1="352.7243" y1="498.2601" x2="352.7243" y2="404.4782">
		<stop  offset="0.0218" style="stop-color:#81CFFF"/>
		<stop  offset="0.501" style="stop-color:#0F7CDC"/>
	</linearGradient>
	<path fill="url(#SVGID_1_)" d="M356.442,498.26l0.007-16.898c0.064-2.089,0.646-1.258,0.646-3.386c0-1.66,1.021-0.621,1.021-3.112
		v-13.68c10.113,8.056,23.286,15.67,27.156,15.046c2.476-0.466,5.49-3.172,8.701-6.713c0.554-0.706,1.689-0.922,1.689-4.477
		c0.007-4.667-0.69-7.021-2.163-7.291c-0.984-0.178-2.041-0.234-2.902,0.788l-4.041,0.01c-0.896-0.829-1.939-1.195-3.379-0.628
		c-1.429,0.557-2.02,3.247-2.216,5.605c-0.011,0.122-9.944-6.396-15.695-13.147c-0.182-0.222,0.071-0.55,0.406-0.538
		c28.287,0.504,43.982-1.55,52.254-4.414c1.51-0.415,2.954-4.845,2.954-4.845s1.655,0.273,2.41-0.79
		c2.444-3.44,2.412-9.784,0.3-11.39c-1.488-1.145-4.142-0.415-4.463,0.575l-1.835-0.381c-0.087-0.822-0.839-1.92-2.727-1.957
		c-3.348-0.063-3.913,5.112-3.718,6.913c0.199,1.722,1.106,2.18,0.851,3.842c-8.91,3.223-35.555,1.882-54.415-0.963
		c-0.321-0.047-1.324-1.376-1.371-1.744c-0.707-5.298-2.685-30.207-2.685-30.207l-9.092,0.213c0,0-0.544,23.973-2.888,30.268
		c-0.131,0.351-0.862,0.851-1.226,0.926c-17.079,3.655-44.87-0.851-44.87-0.851c3.405-3.716,1.528-7.149,0.342-8.705
		c-1.666-2.162-4.89-2.78-7.196-2.057c-2.305,0.72-2.131,1.841-3.5,1.895c-1.365,0.055-2.781,0.547-3.267,1.918
		c-0.405,1.129-1.062,5.363-1.224,6.815c-0.249,1.416,2.916,7.916,4.366,8.292c4.579,1.267,30.238,6.324,48.246,5.956
		c0.339-0.007,0.399,0.43,0.094,0.652c-6.762,4.951-17.013,8.078-27.692,12.035c0.769-1.375,0.51-5.211-1.3-6.708
		c-0.831-0.686-2.219-1.429-3.585,0.7l-3.314,0.702c-1.177-2.467-5.747-0.808-6.464,2.602c-0.851,4,0.204,9.845,5.734,10.356
		c1.852,1.686,4.552,3.814,6.45,3.569c5.845-0.739,25.601-5.731,37.559-12.718v14.624c0,1.991,1.219,1.24,1.219,3.216
		c0,2.222,0.483,1.345,0.547,3.185v16.898H356.442z"/>
	
		<linearGradient id="SVGID_2_" gradientUnits="userSpaceOnUse" x1="440.7645" y1="518.8262" x2="440.7645" y2="463.3385" gradientTransform="matrix(1.003 -0.03 0 1 0.4838 -4.8325)">
		<stop  offset="0.0218" style="stop-color:#81CFFF"/>
		<stop  offset="0.2555" style="stop-color:#5CB4F4"/>
		<stop  offset="0.5629" style="stop-color:#3396E7"/>
		<stop  offset="0.8045" style="stop-color:#1983DF"/>
		<stop  offset="0.9486" style="stop-color:#0F7CDC"/>
	</linearGradient>
	<path fill="url(#SVGID_2_)" d="M413.198,446.166c0.837-0.237-7.437,7.078-7.437,8.419c0,1.884-0.217,4.984-0.217,5.893
		c0,0.91,1.402,2.29,1.538,5.226c0.112,2.413-0.243,7.171,1.044,11.643c0,0-2.361,0.328-2.231,3.346
		c0.129,3.018,1.183,19.929,1.183,19.929h40.458c0.181-1.677-0.075-6.082,0-8.213c0.07-2.125-4.971-3.551-5.944-3.844
		c-0.287-0.994,19.432-6.439,31.812-9.086c4.799-1.145,3.113-3.329,5.061-4.206c0.675-0.256,1.699-2.697,0.748-4.182
		L413.198,446.166z"/>
	<path d="M533.511,333.009c-1.222-1.014-9.923-5.683-15.03-7.037c-1.824-0.487-4.662-0.845-6.02-1.219
		c-1.356-0.374-10.893-3.652-13.06-4.261c-2.162-0.609-7.92-3.93-9.948-4.67c-2.026-0.748-5.348-2.984-6.903-3.316
		c-1.558-0.338-3.314-0.138-4.395-0.815c-1.089-0.677-3.592-3.514-6.16-4.062c-2.572-0.54-9.421-1.604-11.461-2.67
		c-1.827-0.954-3.923-1.214-4.469-1.423c-0.54-1.467,0.087-2.099-2.346-3.855c-2.437-1.756-15.293-8.561-18.675-10.859
		c-3.383-2.302-8.66-4.94-9.271-5.21c0.544-1.356,1.554-2.035,1.217-3.454c-0.333-1.418-1.281-4.463-1.688-5.958
		c-0.412-1.486-1.162-3.179-1.22-3.582c-0.118-0.891-0.051-2.526-0.957-3.054c-2.922-1.714-6.22-3.138-8.007-4.456
		c-0.339-1.386-1.033-4.157-1.859-5.376c-1.078-1.609-1.304-2.128-2.112-2.976c-0.814-0.841-11.556-5.635-12.917-6.679
		c-2.906-2.23-14.508-6.815-15.584-7.397c-1.803-0.787-5.24-5.571-5.17-7.062c0.158-0.969-0.936-4.277-2.062-4.814
		c-1.311-0.619-4.862-3.736-5.852-5.74c-0.525-1.069-8.234-28.896-10.22-34.308c-1.989-5.413-5.63-10.865-8.664-13.898
		c-2.345-2.342-6.2-1.285-24.11-4.799c-1.369-0.276-8.123-2.983-8.123-2.983l-0.808-2.773c0.344-1.683,4.125-10.014,3.815-13.149
		c-0.273-2.707-0.2-5.267-0.132-6.35c0.716-2.923,0.976-5.348,1.114-6.024c0.139-0.673,0.328-5.095-0.398-6.539
		c-0.72-1.447-1.673-6.012-1.893-7.008c-0.229-0.99-1.648-5.369-3.792-7.399c-1.741-1.601-7.518-4.349-9.68-4.893
		c-2.957-0.747-8.437-1.955-15.093-0.835c-1.937,0.327-7.906,1.044-8.592,5.322c-5.318,0.249-5.525,1.893-6.835,4.967
		c-1.46,3.422-0.855,5.771-0.587,7.708c0.271,1.946,0.719,5.643,1.06,7.154c0.479,2.116,0.879,3.696,1.216,5.86
		c-1.145-0.249-3.064,0.705-1.754,3.275c1.692,3.316,2.324,5.758,4.432,9.551c0.737,1.319,4.022,1.727,4.362,2.067
		c0.341,0.338,1.825,3.453,2.506,5.142l-1.405,3.53c-3.094,2.479-4.477,6.875-7.376,9.289c-1.217,1.004-7.465,6.983-18.572,15.738
		c-3.571,2.821-7.019,7.751-7.152,9.443c-0.137,1.69,2.083,8.468,2.952,10.406c1.497,3.338,6.637,11.925,6.637,15.371
		c0,1.977-1.339,6.804-1.001,8.839c0.338,2.028,2.636,4.873,2.636,6.021c0,1.149,0.541,8.058,1.401,11.208
		c5.368,19.716,10.441,30.4,10.441,30.4c-1.187,0.835-2.713,2.719-2.953,3.834c-0.786,3.746-0.195,6.524,2.166,11.318
		c1,2.025,4.811,7.372,6.278,9.889c2.873,4.946,6.727,15.349,6.727,18.275c0,3.255-0.456,13.039,0.879,16.245
		c1.352,3.251,2.351,5.417,6.235,6.947c3.883,1.535,6.191,1.957,9.582,1.915c2.937-0.031,3.616-0.303,4.937-0.501
		c1.142-0.175,0.408-2.355,1.541-2.543c1.488-0.233,2.405-0.501,3.145-0.501c2.035,0.54,8.973,2.196,11.07,2.875
		c2.094,0.678,12.676,5.251,15.472,5.798c0.401,0.072,1.001,0.143,1.737,0.202c0,5.424,0,10.184,0,10.862
		c0,1.666-0.912,1.814-0.912,2.586c0,0.769,0,2.538,0,2.538c0,0.753-0.9,1.04-0.9,2.542v21.256c-2.355,0-2.673,2.788-4.461,2.717
		c-10.592-0.415-33.606-1.221-50.614,3.415c-4.399,1.196-5.699,7.377-5.633,8.755c0.082,1.704,0.588,1.584,0.625,2.916
		c0.043,1.336-0.656,6.826,2.959,7.758c2.295,0.409,2.504,0.125,3.211,0.874c0.706,0.748,3.629,2.123,5.836,1.292
		c2.21-0.834,4.9-3.899,3.763-8.093c-0.51-1.879-1.504-3.754-5.135-4.419c-1.376-0.244-0.145-0.92,2.374-1.332
		c2.753-0.375,18.257-2.873,31.19,1.004c-3.422,1.937-25.06,20.262-26.311,21.701c-1.247,1.436-3.45,4.621-4.068,8.629
		c-2.81,0.374-3.477,1.676-4.089,2.852c-0.75,1.435-1.832,9.91,2.525,11.407c1.723,0.592,3.355-0.293,3.775-1.395l3.666-0.663
		c0.812,1.564,2.378,1.432,3.504,0.307c1.758-1.749,2.253-7.816,0.065-11.004c3.003-2.125,24.074-24.018,39.089-24.018v1.345
		c0,2.689,11.444,2.818,11.444,0v-1.472c0,0,11.927,5.843,28.773,25.04c0.562,0.642,0.183,1.794,0.169,2.338
		c-3.927-0.233-3.2,11.418,0.578,11.519c1.504,0.048,2.47-0.278,2.878-1.31l4.173,0.085c0,0,0.418,1.362,2.166,1.295
		c1.602-0.071,3.048-3.153,2.209-8.593c-0.217-1.399-1.001-2.122-1.497-2.622c0.084-0.838-0.121-6.582-1.795-8.467
		c-5.94-6.663-20.324-23.662-22.456-25.158c5.86-1.344,12.403-1.93,17.82-1.666c4.312,0.217,15.975,1.143,21.977,2.493
		c-0.689,3.051-1.75,6.532-2.574,11.193c-0.305,1.747,1.705,3.653,4.207,4.531c0,0-0.169,0.206-0.747,1.827
		c-1.239,3.513-3.246,11.302-3.382,13.266c-0.138,1.966,0.337,2.504-0.202,3.253c-0.545,0.737-0.747,2.496-0.947,4.324
		c-0.207,1.824-0.771,3.436,0.339,4.24c4.461,3.257,16.06,6,16.959,6.049c0.899,0.041,0.722-3.432,1.76-3.025
		c1.037,0.409,5.956,2.976,7.176,4.334c1.216,1.354,4.049,5.294,6.626,6.538c4.17,2.024,12.041,4.419,13.932,4.906
		c9.532,2.429,16.991,0.95,18.154,0.653c2.699-0.672,6.716-3.483,7.572-4.341c0.859-0.858,1.132-1.716,0.945-2.525
		c-0.355-1.564-1.811-2.064-1.976-2.717c-0.224-0.926-0.135-2.241-1.923-3.231c-3.466-1.926-15.141-8.17-22.208-14.104
		c-1.158-0.946-1.423-1.52-3.565-3.736c-1.682-1.737-5.632-7.924-6.37-8.332c-0.746-0.403-3.314-1.692-3.523-2.507
		c0,0,5.584,0.143,5.443-2.025c-0.138-2.163-0.254-13.191-0.078-14.999c0.182-1.808,1.653-17.395,1.653-20.465
		c0-3.067,1.378-14.278,2.456-17.522c1.086-3.251,4.199-20.169,5.008-25.72c0.817-5.551,1.856-20.844-0.217-26.974
		c1.619-1.808,3.254-0.957,3.527-2.584c2.434,0.631,6.066,1.915,7.333,4.623c1.257,2.704,3.393,4.816,3.933,6.078
		c0.538,1.266,4.376,4.146,7.126,5.413c2.977,1.374,5.123,2.391,5.869,2.643c0.571,0.188,1.006-0.379,1.527-1.02
		c2.375,1.365,4.437,2.886,6.387,4.514c3.018,2.508,5.609,5.505,8.954,6.225c11.201,2.422,24.139,0.649,26.895-0.997
		c3.167-1.892,4.728-3.873,6.896-8.475C534.539,339.706,536.154,335.214,533.511,333.009z M295.771,316.702
		c-0.381,2.241-0.057,3.135-1.623,2.994c-1.129-0.097-2.058-3.345-2.756-5.16c-0.798-2.278-5.238-11.484-10.474-20.046
		c2.706,0.615,6.443,1.205,9.744,0.462c2.527,5.778,7.275,12.633,8.894,14.079C297.937,311.486,296.258,313.793,295.771,316.702z
		 M304.199,345.73c-1.216,0-3.486-0.878-3.115-2.317c0.268-1.051,1.628-0.76,2.409-0.729c0,0,4.531,1.557,5.341,1.896
		C307.685,345.16,305.42,345.73,304.199,345.73z M361.83,399.649c-1.882,0.01-1.514-2.717-3.622-2.717c0,0,0-20.005,0-21.256
		c0-1.25-0.913-0.959-0.913-2.542c0,0,0-1.814,0-2.538c0-0.734-0.831-0.42-0.831-2.586c0-0.957,0-5.748,0-10.799
		c1.918-0.102,3.655-0.246,4.954-0.45c5.231-0.81,16.239-2.837,22.466-4.196c6.23-1.351,22.604-5.545,24.635-6.02
		c1.081,0.743,2.297,1.22,3.446,1.288c-1.219,3.287,0.462,9.188,0.479,12.531c0.011,2.978-0.656,15.276,0.639,18.723
		c2.054,5.45-0.535,10.306-0.996,16.273c-0.318,4.079-0.753,7.176-1.116,9.69c-7.963-1.936-17.853-3.622-22.737-4.146
		C381.208,400.153,371.667,399.626,361.83,399.649z"/>
	<path fill="#FFFFFF" d="M399.628,262.47c0,0-0.361-3.653,5.689-3.605c6.041,0.044,8.656,3.696,10.151,4.42
		c-1.173-1.893-7.23-8.302-14.539-6.947c-4.115,0.757-4.172,3.706-3.812,4.791C398.065,261.899,399.628,262.47,399.628,262.47z"/>
	<path fill="#FFFFFF" d="M302.721,233.837c0,0,5.883,7.41,8.521,8.559c1.626-1.216,2.67-5.687,3.211-8.392
		c0.34,4.467,0.067,13.403-3.145,14.278c-5.068-2.375-9.593-11.734-10.657-14.772C300.812,232.942,302.721,233.837,302.721,233.837z
		"/>
	<path fill="#FFFFFF" d="M287.384,163.152c1.381,2.219,6.927,7.122,13.011,10.553c2.301,1.297,5.251,1.274,7.305,1.081
		c0.241-0.02,5.287,3.174,6.525,3.228c1.639-0.224,1.462-0.524,1.724-2.702c0.277-2.28,0.381-5.659,0.294-6.845
		c0.933-2.378,1.446-4.45,1.446-4.45c0.577,0.78,1.193,3.095,1.771,4.514c0.572,1.418,2.97,4.96,4.645,6.419
		c2.933,2.544,7.708,6.322,8.822,9.653c7.312,21.862,16.016,36.326,17.348,47.688c-9.153-10.328-26.459-21.375-35.505-35.554
		c-4.072-6.373-14.261-14.57-17.505-17.277c-2.619-2.182-9.347-7.492-11.399-11.364c-0.352-0.665,0.258-3.245,0.436-4.058
		C286.435,163.428,287.155,163.217,287.384,163.152z"/>
	<path fill="#3A97CD" d="M316.531,184.33c3.807-1.131,8.13-2.189,11.424-2.236c0.945-0.031-9.711-3.849-11.349-3.987l-3.677,0.545
		c-2.55,1.128-5.471,7.926-5.2,8.382c0.108,0.126,1.802-0.163,3.687-1.006c1.68,1.058,4.568,2.454,6.413,3.345
		c2.226,1.084,11.193,24.307,11.193,24.307l3.588-10.009L316.531,184.33z"/>
	<path d="M349.71,231.667c-3.728-8.403-14.539-31.839-15.322-32.828c-3.16-3.95-10.119-12.407-10.63-12.937
		c-2.087-2.176-2.969-6.36-3.956-6.95c-0.998-0.587-3.055-0.998-3.595-1.088c-0.193-0.037-1.55-0.32-3.241,0.527
		c-1.23,0.618-3.416,4.216-3.416,4.216c1.339,1.864,5.821,4.206,8.524,5.736c2.146,1.219,4.424,7.339,5.326,9.555
		c0.898,2.223,3.444,7.659,6.991,15.403C337.436,221.074,349.71,231.667,349.71,231.667z"/>
	<g>
		
			<linearGradient id="SVGID_3_" gradientUnits="userSpaceOnUse" x1="356.7755" y1="217.2647" x2="356.7755" y2="182.7507" gradientTransform="matrix(1.0027 -1.000000e-004 0.0652 0.9973 -22.6215 1.1486)">
			<stop  offset="0" style="stop-color:#007AF9"/>
			<stop  offset="0.2817" style="stop-color:#1D9CFC"/>
			<stop  offset="0.5521" style="stop-color:#32B5FD"/>
			<stop  offset="0.7988" style="stop-color:#3FC4FF"/>
			<stop  offset="1" style="stop-color:#43C9FF"/>
		</linearGradient>
		<path fill="url(#SVGID_3_)" d="M378.926,183.371c-2.29,0.126-54.331,1.993-54.331,1.993c-3.065-0.026-3.49,2.568-3.49,2.568
			l-5.846,25.801c-0.07,0.339-0.243,1.004-0.342,1.754c0.611,1.327,2.922,2.199,5.923,2.307c2.616,0,49.033-1.882,49.033-1.882
			c3.605-0.227,4.403-2.711,4.403-2.711l6.886-22.942c0.383-1.503,0.513-2.818,0.123-4.332
			C381.011,184.708,380.499,183.282,378.926,183.371z"/>
		<polygon fill="#36C5FF" points="349.035,206.614 350.579,200.623 353.168,200.495 351.636,206.496 		"/>
		<path fill="#7CDDFF" d="M326.759,191.69c0.229-0.007,0.426-0.159,0.446-0.349c0.035-0.189-0.124-0.327-0.355-0.314
			c-0.223,0.007-0.418,0.168-0.455,0.348C326.373,191.565,326.531,191.706,326.759,191.69z"/>
		<path fill="#90E7FF" d="M320.488,216.886c0.224-0.016,0.432-0.17,0.457-0.352c0.023-0.186-0.131-0.325-0.354-0.313
			c-0.232,0.01-0.433,0.168-0.46,0.352C320.112,216.757,320.267,216.893,320.488,216.886z"/>
		<path fill="#90E7FF" d="M379.302,190.561c0.226-0.013,0.428-0.169,0.449-0.357c0.036-0.186-0.131-0.327-0.354-0.317
			c-0.217,0.014-0.422,0.172-0.45,0.356C378.923,190.427,379.082,190.569,379.302,190.561z"/>
		<polygon fill="#2E8CFA" points="376.482,200.968 376.359,201.397 372.433,201.512 372.562,201.075 		"/>
		<polygon fill="#2E8CFA" points="376.012,202.488 375.896,202.93 371.974,203.033 372.085,202.594 		"/>
		<polygon fill="#2E8CFA" points="375.545,204.005 375.433,204.444 371.51,204.549 371.625,204.114 		"/>
		<polygon fill="#2E8CFA" points="375.079,205.522 374.968,205.962 371.045,206.071 371.163,205.635 		"/>
		<path fill="#62D3FF" d="M378.926,183.371c-2.29,0.126-54.331,1.993-54.331,1.993c-3.065-0.026-3.49,2.568-3.49,2.568
			l-5.808,25.631c0,0-0.204,2.028,1.03,3.237c0.514,0.268,1.136,0.494,1.845,0.656c0.866-3.744,6.579-26.088,6.579-26.088
			c0.254-1.244,0.66-1.798,1.604-1.905l55.149-2.16C381.404,185.441,380.499,183.282,378.926,183.371z"/>
		<path fill="#8DE1FF" d="M378.926,183.371l-54.331,1.993c-3.065-0.026-3.49,2.568-3.49,2.568l-5.946,25.659
			c0,0-0.144,1.81,0.793,2.988c0.456,0.29,1.021,0.543,1.68,0.737l6.446-26.276c0.26-1.249,0.423-2.253,1.352-2.355l55.994-2.106
			C381.225,185.293,380.499,183.282,378.926,183.371z"/>
		<path fill="#9EE7FF" d="M321.075,188.001l-6.328,26.856c0.057,0.936,0.883,1.71,2.206,2.229l6.478-26.399
			c0.257-1.251,0.463-2.625,1.401-2.721l0.011-0.003c0.616-1.636-0.249-2.599-0.249-2.599
			C321.404,185.28,321.075,188.001,321.075,188.001z"/>
		<path fill="#CDF1FF" d="M324.843,187.963l56.441-2.037c-0.274-1.219-0.785-2.645-2.359-2.555l-54.579,1.998
			c0,0-1.124-0.072-1.976,0.585C322.497,186.794,323.651,187.019,324.843,187.963z"/>
	</g>
	<path d="M302.046,216.545c0.271-0.811,1.305-2.845,1.784-3.658c0.473-0.808,2.908-3.92,3.924-4.869
		c1.017-0.949,3.543-3.792,4.581-4.69c1.038-0.901,1.979-2.258,2.657-2.528c0.677-0.268,2.986-2.043,3.656-2.493
		c0,0-0.453,2.023-0.547,2.589c0.07,0.158,1.741-0.503,2.439-0.726c0.703-0.227,4.535-1.933,5.142-2.305
		c0.608-0.371,2.577-1.626,2.946-1.795c0.374-0.168,2.203-0.93,3.015-1.156c0.805-0.23,3.089-0.971,3.582-1.241
		c0.499-0.27,3.841-1.714,4.69-1.854c0.861-0.132,2.686-0.49,3.592,0.545c0.707,0.81,0.879,1.96,0.31,2.798
		c-0.558,0.829-2.297,1.778-3.266,2.297c-0.969,0.519-4.288,2.033-4.96,2.417c-0.676,0.385-3.095,1.621-3.659,2.006
		c-0.561,0.386-5.12,3.466-5.265,3.63c-0.71,0.778,5.095-1.152,5.993-1.348c2.118-0.48,3.481-0.818,4.667-1.057
		c1.18-0.233,2.933-0.628,4.092-0.81c1.561-0.241,3.551-0.588,4.267-0.621c0.71-0.03,1.98,0.472,2.166,1.339
		c0.192,0.898,0.101,2.04-1.516,2.64c-1.043,0.378-2.483,0.686-3.537,1.173c-0.892,0.433-2.173,0.676-3.253,1.165
		c-1.402,0.633-3.221,1.052-6.735,2.649c0.835,0.196,2.851,0.079,4.241-0.119c1.385-0.207,2.923-0.456,3.7-0.595
		c0.778-0.136,2.499-0.165,3.244-0.22c2.044-0.145,3.177,2.535,1.507,3.334c-0.56,0.267-2.196,0.994-3.003,1.334
		c0.27,0.207,0.476,1.797-0.741,2.403c-1.22,0.612-2.777,1.423-3.625,1.591c-0.845,0.168-3.042,0.947-3.859,1.315
		c-0.807,0.378-3.716,1.728-4.26,2.105c-0.541,0.369-2.638,2.497-3.487,2.838c-0.848,0.338-2.197,1.423-3.045,1.764
		c-0.847,0.334-2.466,1.996-3.922,2.467c-1.457,0.473-1.966,0.947-3.354,1.018c-1.388,0.068-2.196,1.385-2.467,1.996
		L302.046,216.545z"/>
</g>
</svg>
