<?xml version="1.0" encoding="utf-8"?>
<!-- Generator: Adobe Illustrator 17.0.0, SVG Export Plug-In . SVG Version: 6.00 Build 0)  -->
<!DOCTYPE svg PUBLIC "-//W3C//DTD SVG 1.1//EN" "http://www.w3.org/Graphics/SVG/1.1/DTD/svg11.dtd">
<svg version="1.1" id="Layer_1" xmlns="http://www.w3.org/2000/svg" xmlns:xlink="http://www.w3.org/1999/xlink" x="0px" y="0px"
	 width="800px" height="600px" viewBox="0 0 800 600" enable-background="new 0 0 800 600" xml:space="preserve">
<path fill="#231F20" d="M360.127,310.011c0.162,32.433-14.957,58.801-33.768,58.896c-18.813,0.093-34.198-26.12-34.363-58.549
	c-0.164-32.433,14.957-58.799,33.77-58.896C344.577,251.365,359.962,277.581,360.127,310.011z"/>
<path fill="#FFFFFF" d="M366.935,311.48c0.165,32.435-14.952,58.802-33.77,58.898c-18.813,0.091-34.195-26.118-34.361-58.553
	c-0.163-32.431,14.954-58.797,33.77-58.892C351.39,252.838,366.773,279.054,366.935,311.48z"/>
<path fill="#231F20" d="M449.708,260.892c2.097,6.48-2.838,13.589-11.039,15.875c-8.196,2.286-16.107-1.24-17.657-7.878
	c-9.33-39.835-18.671-79.668-27.997-119.505c-1.552-6.636,1.174-13.124,6.095-14.499c4.919-1.369,10.615,2.769,12.716,9.255
	C424.454,183.057,437.08,221.976,449.708,260.892z"/>
<path fill="#231F20" d="M438.496,276.146c8.201-2.292,13.138-9.399,11.035-15.881c-7.562-23.304-15.121-46.611-22.686-69.915
	c-7.504-3.131-17.446-1.201-22.877,5.746c6.027,25.734,10.842,46.435,16.867,72.173
	C422.387,274.902,430.296,278.432,438.496,276.146z"/>
<path fill="#231F20" d="M485.845,311.614c-8.187-15.698-20.248-33.28-34.954-47.822c-0.382-4.269-1.138-8.569-2.331-12.852
	c-10.464-37.539-49.173-59.548-86.454-49.153c-37.281,10.395-59.02,49.253-48.552,86.794c1.191,4.279,2.769,8.347,4.653,12.195
	c-5.074,20.055-6.299,41.349-5.173,59.018c3.55,55.81,62.344,104.561,117.948,89.062
	C486.579,433.361,511.697,361.186,485.845,311.614z"/>
<path fill="#FFFFFF" d="M473.485,313.668c-7.079-13.774-17.482-29.226-30.119-42.027c-0.35-3.741-1.02-7.502-2.072-11.255
	c-9.168-32.888-42.31-52.38-74.026-43.535c-31.718,8.843-49.998,42.669-40.826,75.556c1.044,3.751,2.418,7.315,4.047,10.692
	c-4.194,17.497-5.098,36.108-4.029,51.561c3.395,48.816,53.837,91.819,101.147,78.636
	C474.905,420.117,495.852,357.179,473.485,313.668z"/>
<path fill="#231F20" d="M449.058,285.417c1.434,1.808,2.022,4.242,1.701,7.036c-0.644,5.539-4.765,11.933-10.767,16.69
	c-9.442,7.486-20.735,9.024-25.177,3.428c-4.438-5.6-0.366-16.243,9.074-23.731C433.329,281.356,444.622,279.818,449.058,285.417z
	 M422.906,287.598c-10.117,8.032-14.307,19.675-9.33,25.955c4.98,6.279,17.273,4.862,27.398-3.17
	c6.415-5.086,10.655-11.72,11.356-17.748c0.37-3.219-0.329-6.053-2.032-8.197C445.317,278.157,433.033,279.574,422.906,287.598z"/>
<path fill="#231F20" d="M414.236,309.816c3.889,5.023,14.309,3.462,23.287-3.489c8.973-6.945,13.1-16.649,9.213-21.668
	c-3.887-5.023-14.311-3.458-23.285,3.489C414.471,295.099,410.348,304.804,414.236,309.816z"/>
<path fill="#FFFFFF" d="M419.2,305.996c3.196,4.129,11.771,2.845,19.152-2.873c7.384-5.716,10.777-13.695,7.581-17.824
	c-3.2-4.127-11.775-2.841-19.159,2.873C419.398,293.882,416.003,301.867,419.2,305.996z"/>
<path fill="#231F20" d="M375.331,322.326c-0.26,2.29-1.567,4.428-3.771,6.175c-4.368,3.462-11.807,5.068-19.414,4.19
	c-11.97-1.384-21.046-8.284-20.225-15.379c0.821-7.095,11.226-11.746,23.194-10.367
	C367.082,308.329,376.154,315.229,375.331,322.326z M355.297,305.375c-12.833-1.481-24.025,3.793-24.947,11.754
	c-0.918,7.965,8.776,15.649,21.615,17.131c8.13,0.939,15.822-0.75,20.579-4.521c2.54-2.014,4.049-4.513,4.362-7.234
	C377.822,314.549,368.13,306.858,355.297,305.375z"/>
<path fill="#231F20" d="M374.254,320.965c-0.727,6.305-10.458,10.362-21.733,9.062c-11.275-1.3-19.823-7.471-19.095-13.776
	c0.725-6.307,10.456-10.365,21.731-9.06C366.431,308.493,374.982,314.662,374.254,320.965z"/>
<path fill="#FFFFFF" d="M368.029,320.262c-0.599,5.19-8.603,8.526-17.876,7.453c-9.276-1.073-16.31-6.144-15.713-11.332
	c0.602-5.185,8.607-8.524,17.881-7.453C361.596,310.007,368.626,315.075,368.029,320.262z"/>
<rect x="347.297" y="314.07" transform="matrix(0.9631 -0.269 0.269 0.9631 -72.8437 105.7954)" fill="#231F20" width="4.622" height="9.245"/>
<path fill="#231F20" d="M373.082,352.071c4.441,5.596,0.37,16.241-9.068,23.726c-9.438,7.485-20.732,9.024-25.173,3.428
	c-4.438-5.6-0.366-16.249,9.074-23.732C357.353,348.005,368.646,346.473,373.082,352.071z M346.934,354.254
	c-10.125,8.028-14.311,19.668-9.333,25.955c4.982,6.276,17.271,4.854,27.394-3.172c10.125-8.028,14.309-19.669,9.33-25.949
	C369.341,344.809,357.059,346.228,346.934,354.254z"/>
<path fill="#231F20" d="M371.359,351.874c3.944,4.974-0.067,14.721-8.956,21.778c-8.898,7.046-19.301,8.731-23.247,3.757
	c-3.948-4.972,0.063-14.719,8.959-21.776C357.01,348.585,367.411,346.9,371.359,351.874z"/>
<path fill="#FFFFFF" d="M366.46,355.779c3.243,4.09-0.055,12.11-7.372,17.909c-7.315,5.801-15.881,7.187-19.122,3.092
	c-3.243-4.088,0.059-12.106,7.375-17.907C354.655,353.073,363.215,351.689,366.46,355.779z"/>
<rect x="428.865" y="291.325" transform="matrix(0.9631 -0.2691 0.2691 0.9631 -63.7335 126.9425)" fill="#231F20" width="4.622" height="9.25"/>
<rect x="435.898" y="289.369" transform="matrix(0.9633 -0.2684 0.2684 0.9633 -62.8199 128.3763)" fill="#231F20" width="4.62" height="9.245"/>
<path fill="#231F20" d="M474.495,339.134c-0.264,2.296-1.571,4.427-3.776,6.177c-4.366,3.463-11.807,5.07-19.417,4.19
	c-11.967-1.384-21.038-8.282-20.217-15.377c0.815-7.098,11.224-11.746,23.192-10.367
	C466.245,325.141,475.316,332.039,474.495,339.134z M454.461,322.186c-12.836-1.481-24.029,3.793-24.949,11.754
	c-0.916,7.961,8.776,15.648,21.609,17.129c8.134,0.941,15.828-0.749,20.581-4.523c2.538-2.012,4.051-4.511,4.364-7.227
	C476.986,331.358,467.292,323.67,454.461,322.186z"/>
<path fill="#231F20" d="M432.616,331.767c-0.805,6.293,7.673,12.561,18.931,13.994c11.261,1.432,21.042-2.508,21.839-8.804
	c0.804-6.301-7.671-12.565-18.931-13.996C443.194,321.526,433.423,325.466,432.616,331.767z"/>
<path fill="#FFFFFF" d="M438.83,332.573c-0.658,5.177,6.313,10.334,15.572,11.511c9.265,1.181,17.305-2.06,17.964-7.244
	c0.66-5.181-6.311-10.334-15.572-11.515C447.532,324.149,439.492,327.39,438.83,332.573z"/>
<path fill="#231F20" d="M422.251,328.959c2.698,9.682-2.209,19.541-10.942,21.979l-13.833,3.85
	c-8.735,2.436-18.031-3.461-20.734-13.14c-2.696-9.682,2.209-19.539,10.944-21.973l13.831-3.86
	C410.249,313.384,419.551,319.279,422.251,328.959z M401.095,314.294l-13.835,3.857c-9.574,2.666-14.975,13.4-12.041,23.921
	c2.934,10.521,13.11,16.911,22.682,14.24l13.833-3.857c9.57-2.668,14.975-13.398,12.043-23.921
	C420.843,318.015,410.666,311.624,401.095,314.294z"/>
<path fill="#231F20" d="M418.413,327.884c2.193,7.863-2.408,16.015-10.269,18.209l-11.866,3.308
	c-7.866,2.194-16.017-2.404-18.21-10.269c-2.188-7.864,2.408-16.013,10.269-18.208l11.866-3.312
	C408.065,315.424,416.217,320.022,418.413,327.884z"/>
<path fill="#231F20" d="M420.307,252.249c4.123,14.784-4.552,30.163-19.333,34.282l-26.88,7.493
	c-14.778,4.123-30.157-4.549-34.278-19.333c-4.12-14.782,4.552-30.159,19.331-34.284l26.878-7.492
	c7.16-1.997,14.67-1.083,21.146,2.568C413.646,239.133,418.314,245.091,420.307,252.249z M385.816,232.152l-26.879,7.496
	c-15.201,4.236-24.12,20.055-19.88,35.253c4.235,15.209,20.051,24.127,35.255,19.884l26.876-7.492
	c15.198-4.241,24.118-20.055,19.882-35.255c-2.054-7.362-6.852-13.488-13.51-17.243C400.9,231.04,393.177,230.101,385.816,232.152z"
	/>
<path fill="#231F20" d="M418.344,252.795c3.946,14.152-4.328,28.82-18.478,32.766l-25.324,7.063
	c-14.154,3.94-28.818-4.33-32.762-18.482c-3.946-14.148,4.326-28.814,18.474-32.76l25.33-7.063
	C399.73,230.376,414.4,238.647,418.344,252.795z"/>
<rect x="369.587" y="290.021" transform="matrix(0.9633 -0.2685 0.2685 0.9633 -64.3945 110.7098)" fill="#FFFFFF" width="5.841" height="1.461"/>
<rect x="375.81" y="286.635" transform="matrix(0.9632 -0.2688 0.2688 0.9632 -63.5166 112.3925)" fill="#FFFFFF" width="5.837" height="3.082"/>
<polygon fill="#FFFFFF" points="389.493,286.774 383.861,288.339 382.384,283.034 388.008,281.463 "/>
<rect x="389.951" y="278.063" transform="matrix(0.9633 -0.2682 0.2682 0.9633 -61.2141 115.7185)" fill="#FFFFFF" width="5.841" height="7.625"/>
<rect x="397.28" y="271.886" transform="matrix(0.9633 -0.2685 0.2685 0.9633 -59.872 117.6471)" fill="#FFFFFF" width="5.843" height="11.68"/>
<path fill="#231F20" d="M467.059,380.339c5.555,19.915-12.508,42.411-40.264,50.145c-27.755,7.738-54.853-2.164-60.406-22.074
	c-5.551-19.921,12.51-42.415,40.265-50.155C434.412,350.513,461.507,360.424,467.059,380.339z M406.23,356.728
	c-28.595,7.975-47.148,31.35-41.361,52.101c5.785,20.754,33.756,31.153,62.35,23.18c28.595-7.971,47.148-31.344,41.363-52.097
	C462.794,359.156,434.825,348.757,406.23,356.728z"/>
<path fill="#231F20" d="M464.449,382.297c5.267,18.895-11.683,40.126-37.866,47.428c-26.181,7.296-51.675-2.101-56.944-20.995
	c-5.269-18.896,11.683-40.132,37.864-47.428C433.687,353.999,459.181,363.401,464.449,382.297z"/>
<path fill="#FFFFFF" d="M388.187,379.593c0.455,1.638-0.502,3.337-2.141,3.798c-1.642,0.455-3.34-0.504-3.796-2.141
	c-0.457-1.64,0.5-3.342,2.14-3.796C386.031,376.992,387.728,377.951,388.187,379.593z"/>
<path fill="#FFFFFF" d="M398.56,376.702c0.455,1.638-0.5,3.337-2.137,3.796c-1.644,0.457-3.341-0.5-3.794-2.14
	c-0.459-1.644,0.494-3.342,2.136-3.799C396.404,374.101,398.104,375.058,398.56,376.702z"/>
<path fill="#FFFFFF" d="M408.937,373.806c0.457,1.642-0.502,3.342-2.142,3.796c-1.637,0.459-3.336-0.502-3.793-2.14
	c-0.457-1.64,0.498-3.342,2.138-3.797C406.783,371.207,408.479,372.168,408.937,373.806z"/>
<path fill="#FFFFFF" d="M419.313,370.915c0.457,1.637-0.502,3.34-2.141,3.798c-1.644,0.457-3.339-0.504-3.798-2.142
	c-0.457-1.64,0.5-3.34,2.141-3.798C417.16,368.314,418.852,369.275,419.313,370.915z"/>
<circle fill="#FFFFFF" cx="426.718" cy="368.852" r="3.081"/>
<path fill="#FFFFFF" d="M440.063,365.13c0.459,1.638-0.5,3.341-2.138,3.796c-1.644,0.459-3.344-0.5-3.802-2.141
	c-0.457-1.638,0.502-3.337,2.142-3.798C437.905,362.529,439.606,363.488,440.063,365.13z"/>
<path fill="#FFFFFF" d="M390.757,388.813c0.455,1.636-0.502,3.334-2.141,3.796c-1.642,0.453-3.339-0.504-3.796-2.14
	c-0.461-1.646,0.498-3.344,2.139-3.798C388.602,386.213,390.298,387.172,390.757,388.813z"/>
<path fill="#FFFFFF" d="M401.13,385.92c0.457,1.64-0.5,3.337-2.138,3.798c-1.642,0.455-3.34-0.502-3.8-2.143
	c-0.453-1.64,0.504-3.337,2.14-3.796C398.976,383.321,400.675,384.279,401.13,385.92z"/>
<circle fill="#FFFFFF" cx="408.539" cy="383.853" r="3.081"/>
<path fill="#FFFFFF" d="M421.881,380.133c0.457,1.642-0.496,3.339-2.139,3.8c-1.642,0.453-3.337-0.504-3.798-2.142
	c-0.455-1.646,0.5-3.342,2.143-3.798C419.73,377.535,421.422,378.494,421.881,380.133z"/>
<path fill="#FFFFFF" d="M432.261,377.24c0.455,1.642-0.502,3.34-2.144,3.798c-1.64,0.457-3.34-0.502-3.8-2.14
	c-0.453-1.642,0.506-3.34,2.144-3.8C430.105,374.643,431.799,375.601,432.261,377.24z"/>
<path fill="#FFFFFF" d="M442.635,374.349c0.453,1.642-0.504,3.338-2.141,3.796c-1.644,0.459-3.341-0.498-3.802-2.14
	c-0.453-1.64,0.504-3.338,2.146-3.798C440.477,371.75,442.176,372.709,442.635,374.349z"/>
<path fill="#FFFFFF" d="M450.368,372.193c0.459,1.64-0.504,3.34-2.139,3.793c-1.644,0.457-3.343-0.502-3.8-2.137
	c-0.457-1.64,0.502-3.341,2.143-3.798C448.209,369.596,449.911,370.549,450.368,372.193z"/>
<path fill="#FFFFFF" d="M382.747,391.049c0.457,1.64-0.5,3.336-2.141,3.793c-1.64,0.455-3.339-0.502-3.793-2.14
	c-0.459-1.644,0.496-3.338,2.139-3.796C380.59,388.448,382.291,389.407,382.747,391.049z"/>
<circle fill="#FFFFFF" cx="449.588" cy="380.872" r="3.082"/>
<path fill="#FFFFFF" d="M460.408,377.854c0.455,1.64-0.5,3.338-2.139,3.796c-1.64,0.459-3.341-0.5-3.796-2.138
	c-0.461-1.642,0.498-3.34,2.142-3.798C458.252,375.253,459.949,376.216,460.408,377.854z"/>
<path fill="#FFFFFF" d="M462.859,386.644c0.455,1.642-0.496,3.336-2.14,3.798c-1.64,0.455-3.338-0.504-3.8-2.142
	c-0.455-1.64,0.502-3.336,2.146-3.798C460.705,384.045,462.399,385.006,462.859,386.644z"/>
<path fill="#FFFFFF" d="M376.849,401.151c0.455,1.642-0.5,3.342-2.139,3.796c-1.638,0.461-3.342-0.5-3.798-2.14
	c-0.459-1.637,0.5-3.338,2.141-3.798C374.697,398.555,376.396,399.511,376.849,401.151z"/>
<circle fill="#FFFFFF" cx="376.331" cy="410.768" r="3.082"/>
<circle fill="#FFFFFF" cx="381.967" cy="399.726" r="3.082"/>
<path fill="#FFFFFF" d="M455.01,388.834c0.455,1.638-0.504,3.339-2.142,3.796c-1.642,0.457-3.34-0.5-3.8-2.141
	c-0.457-1.64,0.5-3.337,2.142-3.796C452.849,386.235,454.55,387.194,455.01,388.834z"/>
<path fill="#FFFFFF" d="M387.389,407.684c0.455,1.644-0.502,3.34-2.144,3.802c-1.637,0.455-3.336-0.502-3.796-2.143
	c-0.453-1.64,0.498-3.341,2.142-3.796C385.233,405.087,386.933,406.046,387.389,407.684z"/>
<path fill="#FFFFFF" d="M457.523,397.858c0.459,1.64-0.502,3.34-2.142,3.798c-1.64,0.459-3.34-0.506-3.796-2.142
	c-0.455-1.637,0.502-3.342,2.141-3.798C455.363,395.259,457.068,396.218,457.523,397.858z"/>
<path fill="#FFFFFF" d="M389.906,416.71c0.453,1.644-0.504,3.34-2.141,3.798c-1.646,0.459-3.344-0.5-3.798-2.142
	c-0.457-1.637,0.498-3.337,2.141-3.798C387.746,414.112,389.445,415.07,389.906,416.71z"/>
<path fill="#FFFFFF" d="M392.933,396.622c0.457,1.642-0.498,3.342-2.14,3.802c-1.64,0.455-3.34-0.504-3.796-2.146
	c-0.457-1.636,0.498-3.339,2.142-3.796C390.782,394.025,392.476,394.988,392.933,396.622z"/>
<path fill="#FFFFFF" d="M403.308,393.731c0.457,1.64-0.498,3.34-2.137,3.796c-1.64,0.461-3.344-0.5-3.798-2.142
	c-0.457-1.637,0.5-3.336,2.141-3.798C401.15,391.132,402.853,392.095,403.308,393.731z"/>
<path fill="#FFFFFF" d="M413.685,390.838c0.459,1.642-0.5,3.344-2.143,3.8c-1.632,0.455-3.332-0.504-3.794-2.142
	c-0.451-1.64,0.502-3.34,2.142-3.798C411.529,388.243,413.228,389.2,413.685,390.838z"/>
<path fill="#FFFFFF" d="M424.056,387.944c0.459,1.642-0.492,3.34-2.136,3.799c-1.642,0.457-3.34-0.502-3.798-2.143
	c-0.455-1.64,0.496-3.338,2.143-3.796C421.906,385.347,423.603,386.31,424.056,387.944z"/>
<path fill="#FFFFFF" d="M434.439,385.052c0.455,1.642-0.504,3.341-2.143,3.802c-1.64,0.453-3.339-0.504-3.798-2.146
	c-0.457-1.64,0.5-3.339,2.143-3.798C432.281,382.454,433.981,383.413,434.439,385.052z"/>
<path fill="#FFFFFF" d="M444.811,382.159c0.455,1.642-0.502,3.342-2.142,3.798c-1.644,0.459-3.338-0.502-3.798-2.141
	c-0.457-1.638,0.5-3.339,2.144-3.796C442.658,379.563,444.354,380.524,444.811,382.159z"/>
<path fill="#FFFFFF" d="M395.503,405.845c0.457,1.64-0.498,3.339-2.139,3.798c-1.642,0.453-3.339-0.504-3.798-2.139
	c-0.457-1.642,0.5-3.345,2.143-3.8C393.35,403.244,395.044,404.207,395.503,405.845z"/>
<path fill="#FFFFFF" d="M405.88,402.951c0.457,1.642-0.5,3.34-2.14,3.793c-1.64,0.464-3.34-0.496-3.798-2.139
	c-0.457-1.638,0.498-3.339,2.142-3.798C403.721,400.353,405.425,401.314,405.88,402.951z"/>
<path fill="#FFFFFF" d="M416.255,400.056c0.459,1.644-0.5,3.344-2.142,3.8c-1.634,0.457-3.336-0.504-3.791-2.143
	c-0.459-1.638,0.498-3.341,2.139-3.796C414.099,397.459,415.798,398.42,416.255,400.056z"/>
<path fill="#FFFFFF" d="M426.628,397.167c0.461,1.637-0.494,3.338-2.133,3.793c-1.646,0.461-3.344-0.5-3.798-2.14
	c-0.457-1.64,0.496-3.342,2.14-3.796C424.474,394.566,426.175,395.527,426.628,397.167z"/>
<path fill="#FFFFFF" d="M437.007,394.271c0.457,1.644-0.502,3.342-2.142,3.798c-1.64,0.459-3.338-0.5-3.796-2.14
	c-0.459-1.642,0.498-3.34,2.142-3.8C434.851,391.674,436.552,392.634,437.007,394.271z"/>
<path fill="#FFFFFF" d="M447.381,391.378c0.457,1.642-0.502,3.342-2.139,3.798c-1.646,0.461-3.344-0.498-3.798-2.142
	c-0.459-1.637,0.5-3.338,2.141-3.796C445.224,388.779,446.925,389.742,447.381,391.378z"/>
<path fill="#FFFFFF" d="M397.859,414.285c0.455,1.636-0.5,3.339-2.142,3.796c-1.642,0.457-3.338-0.502-3.796-2.141
	c-0.457-1.64,0.502-3.342,2.14-3.796C395.705,411.684,397.399,412.648,397.859,414.285z"/>
<path fill="#FFFFFF" d="M408.233,411.392c0.455,1.638-0.498,3.339-2.139,3.793c-1.642,0.459-3.343-0.5-3.798-2.141
	c-0.455-1.638,0.5-3.337,2.139-3.796C406.078,408.791,407.776,409.754,408.233,411.392z"/>
<path fill="#FFFFFF" d="M418.61,408.496c0.455,1.64-0.504,3.342-2.144,3.8c-1.637,0.453-3.336-0.506-3.791-2.143
	c-0.457-1.638,0.5-3.339,2.138-3.798C416.452,405.902,418.151,406.859,418.61,408.496z"/>
<path fill="#FFFFFF" d="M428.983,405.607c0.457,1.637-0.494,3.338-2.14,3.796c-1.644,0.459-3.338-0.504-3.798-2.141
	c-0.455-1.642,0.5-3.341,2.143-3.8C426.831,403.004,428.528,403.967,428.983,405.607z"/>
<path fill="#FFFFFF" d="M439.362,402.71c0.453,1.64-0.5,3.342-2.146,3.802c-1.64,0.455-3.339-0.504-3.796-2.142
	c-0.455-1.642,0.502-3.342,2.143-3.801C437.202,400.113,438.904,401.074,439.362,402.71z"/>
<path fill="#FFFFFF" d="M449.737,399.818c0.453,1.642-0.506,3.34-2.142,3.798c-1.644,0.457-3.342-0.502-3.802-2.142
	c-0.455-1.637,0.5-3.338,2.148-3.796C447.577,397.22,449.277,398.181,449.737,399.818z"/>
<path fill="#FFFFFF" d="M400.427,423.504c0.457,1.635-0.5,3.336-2.14,3.793c-1.64,0.457-3.34-0.502-3.796-2.138
	c-0.461-1.646,0.498-3.344,2.143-3.802C398.271,420.901,399.97,421.862,400.427,423.504z"/>
<path fill="#FFFFFF" d="M410.804,420.611c0.455,1.64-0.502,3.336-2.14,3.793c-1.642,0.459-3.342-0.5-3.798-2.142
	c-0.455-1.637,0.496-3.338,2.14-3.796C408.646,418.01,410.346,418.969,410.804,420.611z"/>
<path fill="#FFFFFF" d="M421.177,417.715c0.459,1.642-0.498,3.338-2.14,3.796c-1.637,0.459-3.336-0.5-3.793-2.138
	c-0.457-1.646,0.5-3.344,2.138-3.8C419.023,415.114,420.721,416.079,421.177,417.715z"/>
<path fill="#FFFFFF" d="M431.555,414.826c0.457,1.638-0.502,3.337-2.139,3.792c-1.644,0.459-3.343-0.5-3.796-2.142
	c-0.457-1.636,0.496-3.338,2.141-3.796C429.398,412.223,431.094,413.184,431.555,414.826z"/>
<path fill="#FFFFFF" d="M441.932,411.928c0.453,1.642-0.506,3.341-2.142,3.8c-1.646,0.457-3.342-0.5-3.8-2.138
	c-0.459-1.646,0.498-3.344,2.144-3.801C439.774,409.329,441.473,410.293,441.932,411.928z"/>
<path fill="#FFFFFF" d="M452.307,409.039c0.455,1.636-0.504,3.337-2.141,3.796c-1.644,0.457-3.34-0.5-3.8-2.141
	c-0.455-1.638,0.502-3.343,2.146-3.8C450.151,406.434,451.848,407.397,452.307,409.039z"/>
<path fill="#FFFFFF" d="M407.848,142.05c0.963,3.452-1.057,7.035-4.511,7.998c-3.45,0.961-7.033-1.059-7.996-4.509
	c-0.963-3.454,1.059-7.038,4.511-7.998C403.306,136.578,406.882,138.6,407.848,142.05z"/>
<path fill="#FFFFFF" d="M404.507,199.022c5.557-7.104,15.719-9.079,23.395-5.874c0.037,0.118-0.435-1.731-0.796-2.855
	c-7.675-3.2-17.84-1.229-23.395,5.876C403.979,197.289,404.533,199.121,404.507,199.022z"/>
<polygon fill="#231F20" points="460.028,333.671 458.778,335.891 454.906,333.709 456.157,331.488 453.622,330.054 451.437,333.926 
	460.384,338.972 462.566,335.103 "/>
<polygon fill="#231F20" points="355.22,366.215 356.843,363.334 352.972,361.152 351.347,364.029 348.811,362.598 346.625,366.475 
	355.573,371.522 357.754,367.65 "/>
</svg>
