<?xml version="1.0" encoding="utf-8"?>
<!-- Generator: Adobe Illustrator 17.0.0, SVG Export Plug-In . SVG Version: 6.00 Build 0)  -->
<!DOCTYPE svg PUBLIC "-//W3C//DTD SVG 1.1//EN" "http://www.w3.org/Graphics/SVG/1.1/DTD/svg11.dtd">
<svg version="1.1" id="Layer_1" xmlns="http://www.w3.org/2000/svg" xmlns:xlink="http://www.w3.org/1999/xlink" x="0px" y="0px"
	 width="800px" height="600px" viewBox="0 0 800 600" enable-background="new 0 0 800 600" xml:space="preserve">
<g>
	<path fill="#FFFFFF" d="M399.714,234.417c0.535-4.915-0.476-70.716-1.387-80.272c-0.914-9.555,1.472-23.49,2.714-26.437
		c1.244-2.954,2.096-5.423,2.096-5.423s5.752,9.07,9.645,11.541c0,0,21.38-11.137,22.194-20.529c0,0-0.57-0.11-0.516,0.248
		c0.245,1.649,1.458,6.753,0.498,8.349c-1.165,1.943-6.493,12.626-9.297,17.974c-2.805,5.351-9.764,19.583-11.134,24.983
		c-1.367,5.399-3.474,14.864-5.037,23.865c-1.56,9-6.549,17.646-6.549,17.646S399.176,239.331,399.714,234.417z"/>
	<path d="M316.477,522.924c-0.02-1.626,1.202-2.56,1.202-2.56s1.934-0.982,5.929-2.791c3.992-1.803,8.751-1.939,12.179-4.562
		c3.423-2.625,9.721-5.866,12.21-8.338c1.145-1.136,1.973-2.093,2.822-2.865c-0.065-0.037-0.097-0.054-0.097-0.054
		s9.323-27.593,9.562-34.461c0.234-6.863-2.568-79.654,1.019-91.537c3.591-11.885,8.745-35.62,9.505-40.98
		c0.76-5.359,5.134-15.686,5.402-17.132c-0.695,0.416-8.249-5.575-9.696-4.86c-1.056,0.52-1.367-6.851,1.111-13.522
		c2.472-6.669,0.023-12.283,0.023-12.283s-2.566-3.652-3.164-7.787c-0.396-2.732,0.017-4.967-1.766-8.619
		c-1.782-3.654,0.373-7.391-1.259-11.394c-1.634-4.005-1.19-5.06,0.282-11.323c1.475-6.262-0.592-9.041-0.732-16.398
		c-0.139-7.357,2.999-6.535,1.304-8.822c-1.689-2.289,0.495-13.393,1.136-19.262c0.646-5.863,0.962-14.108,2.062-20.86
		c1.096-6.753,2.514-11.301,1.882-15.711c-0.635-4.412,2.483-14.381,3.785-18.063c1.301-3.683,4.382-3.715,6.35-5.042
		c1.971-1.328,5.786-0.833,11.182-7.07c5.203-6.018,5.755-6.339,14.024-13.769c1.372,0.081-4.134,11.322-4.28,23.922
		c-0.031,2.607,1.985,20.689,3.315,40.014c0.088-0.732,0.188-1.463,0.307-2.195c2.253-14.037,6.803-38.769,6.803-38.769
		s-0.299-2.905-0.561-4.216c-1.219,1.791-2.153,3.364-2.153,3.364s-0.382-1.864,1.045-5.043c1.418-3.179,5.57-6.109,5.57-6.109
		l3.594,11.254c0,0-0.846-1.699-1.714-3.547c-0.487,0.161-2.401,0.955-2.819,3.676c-0.262,1.711-0.609,15.639-0.863,27.846
		c2.155-6.371,4.587-12.545,7.324-18.839c7.737-17.808,16.339-32.933,16.65-36.036c0.31-3.103-1.005-5.886,0.501-3.846
		c0,0,2.207,2.039,5.069,5.193c2.862,3.154,2.474,3.779,4.812,4.14c2.335,0.36,3.024,1.77,6.658,3.589
		c3.628,1.817,2.939,3.06,9.206,3.248c6.262,0.191,8.884,0.961,9.684,1.421c0.803,0.464,0.991-1.864,5.268,0.683
		c4.277,2.547,4.906,4.303,8.713,15.36c3.81,11.056,3.309,12.545,6.507,15.589c3.195,3.047,3.95,2.739,3.736,6.01
		c-0.216,3.268,0.083,5.217-1.392,7.543c-1.475,2.322-3.056,0.457-1.048,4.863c1.999,4.408,0.98,5.848,2.796,13.949
		c1.814,8.106,0.211,11.037,1.734,13.421c1.529,2.382,1.13,1.55,0.74,6.031c-0.393,4.478-2.415,5.042-1.034,7.777
		c1.378,2.732-0.239,8.151,0.664,12.719c0.897,4.563-0.239,6.78,0.561,9.898c0.806,3.117-0.091,5.145-1.583,9.868
		c-1.487,4.723-3.24,13.23-3.175,18.108c0.06,4.879-2.084,12.642-2.278,16.252c-0.191,3.608-7.392,17.809-7.392,17.809l-2.232,3.874
		l0.447,6.807c0,0-2.153,3.48-7.839,3.622c-0.78,2.176,0.114,0.01,0.026,3.868c-0.088,3.861-1.281,36.735-1.873,51.16
		c-0.601,14.428,1.851,25.659,1.432,31.001c-0.422,5.336,2.921,6.743,0.558,25.571c-2.361,18.819,0.344,32.604-4.901,44.086
		c-5.248,11.481-8.494,30.48-8.571,30.526c0.279,0.718,0.555,1.595,0.72,2.623c0.43,2.628,0.649,3.383,0.649,3.383
		s0.288-0.877,0.658,2.181c0.373,3.061,0.923,3.625-0.194,4.895c-1.116,1.27-1.837,2.002-2.83,2.586
		c-0.985,0.581-2.176,0.743-2.176,0.743s-1.697,2.847-4.513,5.604c-2.819,2.753-13.919,7.164-23.72,6.609
		c-9.801-0.558-10.912-1.854-11.555-2.5c-0.641-0.641-0.988-0.957-0.823-2.084c0.117-0.797,1.33-1.777,1.33-1.777
		s1.486-1.674,3.163-4.234c2.475-3.765,4.963-7.765,7.327-12.321c1.8-3.471,5.94-43.986,7.686-48.642
		c1.754-4.653-0.319-84.598-3.893-90.788c-3.576-6.188-8.722-25.893-8.722-25.893s-6.495,14.558-11.464,23.706
		c-4.966,9.149-9.149,22.439-12.788,28.333c-3.642,5.892-8.785,89.39-9.719,93.476c-0.928,4.086-0.868,5.029-0.458,7.395
		c0.416,2.375,0.718,5.695,0.718,5.695s-0.114,0.048-0.316,0.128c0.162,0.547,0.322,1.227,0.461,2.087
		c0.712,4.323,0.695,5.354,0.695,5.354s0.991,0.789,0.985,3.277c-0.009,2.48,0.47,4.59-5.003,5.977
		c-5.479,1.387-11.982,1.469-13.87,1.424c-1.885-0.048-3.921,0.256-3.921,0.256l-0.461-1.768c0,0-8.437-0.646-17.683,2.016
		c-9.246,2.66-17.532,2.947-22.626,2.338c-5.094-0.607-8.56-1.239-10.26-2.324C316.443,524.986,316.5,524.553,316.477,522.924z"/>
	<path fill="#FEDBAA" d="M390.665,88.021c-0.359-1.603-0.476-4.679,1.221-3.592c1.697,1.089,2.335,2.932,2.811,3.671
		c0.476,0.739,0.188-6.263,0.883-9.994c0.701-3.726,0.251-7.983,2.332-11.544c2.076-3.561,8.497-6.209,14.491-4.889
		c6,1.321,13.557,1.596,17.9,1.226c4.343-0.369,8.062-1.126,8.13,6.49l1.424,15.152c0,0,0.455,0.399,1.284,0
		c0.832-0.396,2.036-0.302,2.181,0.629c0.148,0.931-0.47,0.631-0.786,2.365c-0.313,1.733-0.572,3.037-0.84,5.45
		c-0.27,2.416-0.968,2.204-1.267,4.194c-0.296,1.989-0.231,3.013-1.202,3.849c-0.977,0.833-1.931,0.641-1.931,0.641
		s-1.045,4.948-1.714,7.819c-0.669,2.872-1.307,6.253-5.015,11.034c-3.71,4.783-17.814,14.01-17.814,14.01s-7.014-3.283-8.688-7.989
		c-1.956-5.506-1.455-10.439-2.845-13.348c-1.39-2.906-2.814-3.756-3.443-6.797c-0.629-3.043-0.954-4.135-0.954-4.135
		s-1.882,1.323-3.184-1.503c-1.296-2.828-2.358-4.643-2.657-6.594C390.684,92.216,391.026,89.626,390.665,88.021z"/>
	<g>
		<path d="M393.224,76.122c-0.416-2.372,0.498-8.086,1.321-9.938c0.817-1.854,3.446-3.567,3.446-3.567s1.11-4.013,6.33-6.667
			c5.222-2.655,8.474-1.411,13.244-1.808c4.77-0.399,11.159-2.19,16.228,1.932c5.066,4.123,6,3.974,7.076,11.273
			c1.079,7.293,1.509,8.634,0.795,12.106c-0.718,3.475-0.524,5.087-0.524,5.087s-1.116-0.097-2.107,3.138
			c-0.578,1.899-0.994,4.494-1.239,6.315c0.208-2.033,0.387-4.862-0.088-5.628c-0.766-1.234-0.083-5.221-1.33-7.278
			c-1.25-2.059-1.76-3.313-1.76-3.313s4.909-11.37-1.447-12.922c-6.356-1.553-10.866,0.113-17.194,0.271
			c-6.333,0.16-10.567-0.42-11.891-1.018c-1.324-0.6-1.782-1.084-3.833,1.622c-2.048,2.702-3.406,4.163-3.48,8.363
			c-0.063,4.2-0.846,6.649-0.632,9.891c0.211,3.242-0.706,4.928-0.607,6.461c0.1,1.539,0.607,6.643,0.607,6.643
			s-1.21-6.684-1.395-8.216c-0.182-1.529-1.515-3.498-1.515-3.498S393.637,78.491,393.224,76.122z"/>
		<path d="M437.794,93.993c-0.125,1.236-0.262,2.176-0.262,2.176S437.623,95.27,437.794,93.993z"/>
	</g>
	<path fill="#FEDBAA" d="M457.066,306.753c0,0,2.221-2.855,2.415-6.464c0.188-3.609,0.043-5.827,0.857-6.48
		c0.814-0.653,16.894,9.427,15.616,10.881c0,0-1.62,1.392-2.446,4.444c-0.832,3.053-3.149,4.233-4.681,6.988
		c-1.532,2.754-2.227,2.628-3.895,4.624c-1.666,1.992-2.062,2.532-3.138,3.117c-1.073,0.584-1.495,0.697-1.469-0.246
		c0.026-0.944-0.461-1.77-1.036-4.043c-0.575-2.274-1.33-5.907-1.504-7.268c-0.176-1.358-0.219-2.04-0.219-2.04L457.066,306.753z"/>
	<polygon fill="#F2F2F2" points="460.93,289.744 478.634,297.192 477.227,303.877 459.908,293.794 	"/>
</g>
</svg>
