<?xml version="1.0" encoding="utf-8"?>
<!-- Generator: Adobe Illustrator 17.0.0, SVG Export Plug-In . SVG Version: 6.00 Build 0)  -->
<!DOCTYPE svg PUBLIC "-//W3C//DTD SVG 1.1//EN" "http://www.w3.org/Graphics/SVG/1.1/DTD/svg11.dtd">
<svg version="1.1" id="Layer_1" xmlns="http://www.w3.org/2000/svg" xmlns:xlink="http://www.w3.org/1999/xlink" x="0px" y="0px"
	 width="800px" height="600px" viewBox="0 0 800 600" enable-background="new 0 0 800 600" xml:space="preserve">
<g>
	<linearGradient id="SVGID_1_" gradientUnits="userSpaceOnUse" x1="405.3018" y1="501.6222" x2="405.3018" y2="386.0898">
		<stop  offset="0.0218" style="stop-color:#81CFFF"/>
		<stop  offset="0.501" style="stop-color:#0F7CDC"/>
	</linearGradient>
	<path fill="url(#SVGID_1_)" d="M470.114,420.603c-0.746-1.817-2.168-1.923-3.012-1.862c-0.501,0.041-1.158,0.56-1.44,0.885
		l-1.746,0.217c0,0-4.258-2.184-5.421-0.705c-1.303,1.662-1.57,4.534-0.653,6.441c-0.256,0.795-1.367,2.135-1.724,2.104
		c-17.747-1.658-45.111-5.595-45.292-6.228c-0.175-0.625,4.87-15.55,9.767-25.484c0.981-2.473,1.066-6.9,0.31-8.603
		c-0.765-1.743-3.097-1.496-3.922-0.23l-1.861-0.155c-0.459-0.115-0.239-1.089-1.668-0.856c-2.234,0.371-1.822,5.366-1.033,6.116
		c-5.718,11.34-17.12,26.849-17.616,27.048c-0.494,0.196-35.94-3.26-39.898-4.471c-1.358-0.473-1.003-4.77-0.955-5.934
		c0.021-0.533-1.657-1.332-1.788-1.758c-1.437-4.598-6.38-4.629-8.109-3.883c-0.865,0.382-2.002,1.321-2.133,2.561
		c-0.143,0.143-0.575,0.51-0.575,0.51c-0.896,0.024-2.672,6.975,4.879,8.57c0.37,1.747,1.832,6.018,3.26,6.38
		c12.253,3.131,36.134,8.38,36.384,8.875c0.571,1.163-22.002,8.977-33.127,9.664c0.572-3.929-0.664-7.98-3.531-7.917
		c-1.608,0.035-2.258,0.98-2.328,1.679l-1.571,0.327c-0.273-0.848-2.596-1.534-3.824-0.494c-2.252,1.885-1.239,7.852,0.262,9.789
		c0.685,0.881,2.058,0.677,2.058,0.677s1.481,2.673,2.864,2.93c8.172,1.52,23.321,0.496,44.116-4.515v29.76
		c0,2.132,1.377,1.5,1.435,3.292l0.002,26.291h11.696v-26.418c0.059-1.577,1.239-1.493,1.239-3.204l0.017-27.281
		c2.572,5.15,6.087,12.205,6.581,13.278c0.791,1.72,3.431,1.551,3.431,1.551s3.438,0.283,6.195-2.765
		c0.476-0.615,3.686-1.358,3.686-4.423c0.011-4.024-0.262-5.859-1.532-6.089c-0.482-0.085-12.521-10.957-12.266-12.111
		c0.256-1.148,35.686,0.829,48.771,1.023c1.764,0.033,4.085-4.341,5.692-4.912c1.211-0.433,3.153-1.942,3.709-3.031
		C469.96,426.054,470.938,422.61,470.114,420.603z"/>
	<path fill="#3797F5" d="M364.194,138.514c0.006-0.301,0.509-0.561,0.514-0.662l0.029-1.22c-0.075-0.385,1.149-0.379,1.165-0.054
		l-0.013,1.334c0,0.078,0.501,0.996,0.684,1.344c0.303,0.58,0.258,5.069-0.466,7.243c-0.179,5.015-0.193,8.637-0.182,9.132
		c-0.935-0.392-1.428-0.482-2.138-0.457C363.857,154.559,364.031,142.866,364.194,138.514z M366.079,139.663
		c-0.09-0.172-0.183,1.281-0.237,2.667c-0.052,1.382,0.02,3.209,0.063,3.388c0.088,0.376,0.411-2.035,0.464-3.416
		C366.421,140.916,366.173,139.845,366.079,139.663z"/>
	
		<linearGradient id="SVGID_2_" gradientUnits="userSpaceOnUse" x1="2610.667" y1="501.6222" x2="2610.667" y2="453.362" gradientTransform="matrix(-1 0 0 1 2990.1855 0)">
		<stop  offset="0.0218" style="stop-color:#81CFFF"/>
		<stop  offset="0.2555" style="stop-color:#5CB4F4"/>
		<stop  offset="0.5629" style="stop-color:#3396E7"/>
		<stop  offset="0.8045" style="stop-color:#1983DF"/>
		<stop  offset="0.9486" style="stop-color:#0F7CDC"/>
	</linearGradient>
	<path fill="url(#SVGID_2_)" d="M397.957,453.362c0.121,1.454,0.196,6.487,0.196,7.123c0,0.632-0.388,1.464-0.459,3.555
		c-0.063,1.706,0.586,2.599-0.097,5.997c0,0,2.342,2.27,2.53,4.359c0.168,2-0.583,22.837-0.721,27.226h-31.192
		c0,0-0.624-6.109-0.574-6.967c0.388-1.761,5.392-3.059,5.392-3.059c-3.558-0.405-8.137-1.898-11.097-2.569
		c-2.481-0.55-1.376-2.582-2.393-2.92c-0.368-0.165-0.968-1.717-0.469-2.954C359.215,482.819,397.957,453.362,397.957,453.362z"/>
	<path d="M474.469,240.68c-0.636-1.406-3.829-25.493-3.447-28.557c0.384-3.064-1.874-20.002-2.128-22.125
		c-0.256-2.133-0.934-7.748-1.702-9.453c-0.766-1.699-2.714-2.924-4-3.147c-1.874-0.327-26.211-10.188-29.874-11.555
		c-3.204-1.139-7.241-5.314-13.325-7.002c0.001-2.106,0.02-3.29,0.123-4.802c0.07-1.024-0.226-3.015-0.192-3.525
		c0.029-0.513,1.269-0.646,1.722-1.345c0.64-0.993,0.932-3.435,1.219-5.571c0.219-1.533,0.761-4.29,0.695-5.504
		c-0.063-1.21-0.174-3.236-1.494-2.609c-0.067-0.381-0.07-3.535-1.089-10.217c-0.391-2.544-1.11-3.67-2.151-6.835
		c-0.957-2.741-5.466-6.105-9.808-5.035c-2.872-2.304-7.67-2.777-12.651-1.665c-4.137,0.926-6.797,3.068-9.222,4.595
		c-2.424,1.535-2.381,2.388-4.807,4.73c-2.226,2.141-2.152,4.845-2.278,6.123c-0.127,1.278,0.544,5.251,1.02,6.666
		c1.599,4.699,1.788,5.376,2.682,7.866c-0.66-0.102-1.149,0.237-1.405,0.579c-0.463,0.705,0.596,3.338,1.044,4.42
		c0.449,1.088,1.572,3.109,2.405,5.576c0.582,1.731,2.979,2.061,3.618,2.831c0.635,0.767,1.807,3.66,2.636,5.575
		c0.83,1.915,4.128,4.711,4.128,4.711c0.032,0.311-0.326,1.322-0.326,1.322c-2.848,1.128-5.172,3.92-8.171,5.355
		c-8.402,4.005-16.628,7.336-21.656,9.288c0.35-0.879,0.631-1.635,0.726-1.972c0.286-1.027,0.372-2.268,0.498-2.843
		c0.13-0.572,0.512-1.756,0.992-2.486c0.479-0.739,0.351-2.047,0.193-2.302c-0.161-0.259-0.705-2.008-0.833-2.676
		c-0.125-0.67,0-1.979-0.071-2.426c0.232,0.018,0.686-0.17,0.999-0.699c0.213-0.372,0.445-0.987,0.114-1.244
		c-0.185-0.152-0.593-0.729-0.849-1.05c-0.257-0.317-0.724-1.702-0.702-2.233c0.021-0.534,0.172-1.855,0.232-2.385
		c0.151,0,0.981-0.256,1.448-0.298c0.768-0.07,0.928-0.359,1.298-1.088c0.297-0.614,0.16-1.362-0.063-1.507
		c-0.224-0.145-0.957-0.17-1.15-0.237c0.099-0.077,0.318-0.165,0.384-0.766c0.066-0.572-0.712-0.834-1.318-0.818
		c-0.801,0.021-4.461,0.139-4.883,0.368c-0.427,0.233-3.013,1.747-3.693,1.966c-0.682,0.21-1.744,1.231-2.042,1.659
		c-0.3,0.423-2.128,3.402-2.342,3.658c-0.213,0.257-3.361,3.152-3.916,3.62c-0.555,0.466-1.957,1.234-2.935,1.831
		c-0.98,0.591-0.213,2.932,0,3.659c0.21,0.721,0.594,6.316,0.722,7.529c0.127,1.212,1.151,4.086,0.957,4.664
		c-0.19,0.57-0.317,2.344-0.541,3.696c-0.069,0.416-0.289,1.345-0.517,2.29c-2.322-0.058-4.307,0.222-4.444,1.383
		c-0.559,4.737-7.517,29.386-7.714,32.458c-0.251,4.027-1.403,11.705-1.403,14.113c0,2.038,1.089,6.122,1.574,8.805
		c0.64,3.53,0.426,4.855,3.598,7.404c-1.087-0.51-4.149-0.445-6.514-1.341c-2.36-0.895-7.85-0.126-10.531,0.45
		c-2.679,0.571-6.576,2.231-7.85,4.21c-1.276,1.983-5.81,8.741-5.683,12.447c0.077,2.238,0.066,6.002,2.298,9.13
		c2.994,4.189,7.508,8.437,10.727,11.745c2.411,2.479,14.423,11.359,20.235,15.576c0,0-6.151,1.662-11.063,4.332
		c-1.886,1.018-0.094,7.791,1.327,8.492c0.459,0.229-0.095,1.271,0.459,2.04c3.341,5.005,18.552,9.011,29.256,10.836
		c1.082,7.727-1.375,13.799,0.152,21.309c1.208,6.16,3.295,10.822,3.421,20.151c0,0-0.204,4.596-0.456,9.869
		c-3.633,0.531-9.46,1.379-10.269,1.487c-1.188,0.166-3.868,0.598-6.131,1.153c-1.429,0.352-3.264,6.132-3.639,7.877
		c-7.55,1.594-5.771,8.545-4.876,8.568c0,0,0.43,0.372,0.575,0.513c0.129,1.234,1.265,2.18,2.132,2.561
		c1.728,0.744,6.672,0.714,8.11-3.883c0.131-0.423,2.084-1.638,2.065-2.172c-0.046-1.165-0.353-6.28,1.006-6.758
		c1.167-0.206,6.619-1.213,10.642-1.572c-0.171,3.258-0.333,5.97-0.435,7.032c-0.068,0.69-0.168,1.785-0.288,3.087
		c-7.174,3.606-19.18,10.147-22.116,11.996c-2.129,1.104-1.788,8.4-3.455,11.872c-0.717,1.337-0.634,5.025-0.305,6.271
		c0.647,2.41,2.773,3.534,4.02,3.589c1.242,0.07,2.367-0.563,3.052-1.513l2.086-0.186c0.626,0.533,1.09,0.759,2.733,0.197
		c2.147-2.032,1.13-6.672,0.706-7.571c-0.879-1.858-2.596-2.788-3.734-3.199c0.054-0.917,0.099-1.744,0.148-2.173
		c0.141-0.075,8.414-4.149,15.807-7.299c-0.114,1.296-0.188,2.126-0.188,2.126c-0.879,8.866-2.41,19.62-1.916,20.294
		c1.437,1.957,3.471,4.791,9.788,6.356c-0.391,1.964-0.525,8.406-1.28,11.424c-3.471,13.864-5.691,17.76-7.038,20.478
		c-1.671,3.365-3.131,4.262-3.915,6.615c-0.808,2.417-0.538,4.959,1.087,5.802c3.392,1.768,12.2,1.956,15.327,1.635
		c8.238-0.854,13.8-6.527,16.523-9.207c1.125-1.094,3.136-3.653,3.527-5.936c0.325-1.871,0.283-6.992,0.132-10.309
		c0,0,1.087,0,1.219-0.351c0.177-0.482,0.826-6.378,0.736-8.285c-0.063-1.433-0.104-2.561-0.44-3.718
		c-0.093-0.321-0.248-0.203-0.506-0.932c-0.254-0.729-0.425-2.008-0.682-2.645c-1.178-3.916-1.722-0.199-2.155-6.466
		c0,0,2.938-0.783,3.131-1.956c0.223-1.324-0.022-8.981,0.357-11.188c1.087-6.254,0.993-11.771,0.749-14.975
		c-0.25-3.209,0.294-8.259,0.849-7.958c1.925,1.038,12.787,20.036,13.739,21.56c2.39,4.484,1.162,7.757,1.198,9.035
		c-3.319,5.687-0.438,12.33,0.638,12.94c2.093,1.192,3.986-0.168,4.163-0.717l2.702-0.568c0.293,0.354,0.913,0.665,1.678,0.645
		c0.82-0.031,1.997,0.233,2.565-1.321c1.619-4.423-0.131-9.613-1.234-11.063c-0.512-2.085-1.177-7.835-1.532-8.931
		c-0.271-0.829-5.28-11.11-10.47-22.77c-0.869-1.949,4.381-2.777,8.086-2.957c14.555-0.703,35.015,4.873,36.493,5.447
		c1.17,0.469,1.542,2.437,1.436,3.606c-0.083,0.918-0.351,2.139-0.744,3.337c-0.451,1.673-0.148,4.253,0.496,5.963
		c0.66,1.744,2.428,2.787,3.874,2.626c1.697-0.186,2.19-1.197,2.308-1.732c0.244-0.034,1.218-0.283,1.218-0.283
		c0.233,0.365,0.659,0.891,1.153,0.996c0.822,0.196,2.27,0.307,3.246-1.399c0.98-1.697,0.372-5.458-0.138-6.957
		c-0.467-1.567-2.18-2.591-3.309-3.064c-1.038-0.429-0.161-1.754-0.161-2.521c0-0.766-1.464-6.267-3-7.12
		c-1.531-0.844-16.236-7.858-50.557-11.582c-0.917-0.102-3.58-0.875-5.274-1.484c1.694-0.692,3.586-1.463,3.858-1.51
		c0,0,0.282,2.614,1.784,2.614c1.927,0,1.352-0.656,1.871-0.716l1.697,0.196c0.742,1.517,3.304,1.041,3.893-0.611
		c1.153-3.22,0.198-5.045-0.845-5.937c-0.174-1.682-2.524-4.531-3.525-4.574c-2.004-0.075-7.023,2.145-10.161,3.048v-18.627
		c-0.128-2.426-2.615-5.592-1.722-6.424c0.893-0.827,1.637-5.044,2.404-6.761c0.766-1.727,12.152-5.886,12.152-5.886
		c0.41,2.04,1.861,4.811,2.601,9.252c0.695,4.179,1.7,7.11,0.695,13.992c-0.159,1.25-1.528,9.12-1.878,11.691
		c-0.136,1.014,1.563,2.69,1.904,3.118c0.964,1.206-0.583,2.386,2.529,4.513c1.958,1.341,7.027-6.616,7.872-7.698
		c3.356-4.335,8.923-14.079,11.021-18.05c0.664-1.257,2.504-4.054,2.025-6.889c-0.596-3.521,2.231-7.028,2.867-8.43
		c0.232-0.51,2.839-0.169,3.275-0.804c0.955-1.405,3.759-8.146,4.211-9.538c0.422-1.298-2.264-2.044-4.164-3.361
		c-1.109-0.768-2.109-0.359-3.152-0.851c-0.568-0.267-2.583-1.199-3.148-1.575c6.533-0.596,7.958-1.998,9.832-3.405
		c1.872-1.402,4.142-4.753,4.724-7.363c0.564-2.55,0.552-10.555,0.621-13.954c0.07-3.403,3.185-14.923,3.594-16.38
		c0.403-1.436,2.561-6.667,3.124-7.863c1.028-3.358,1.109-9.299,1.109-9.299c1.239-0.885,4.443-4.038,6.297-7.284
		c0.95-1.66,2.103-7.029,2.231-8.823C477.573,249.088,475.108,242.08,474.469,240.68z M363.717,160.098
		c-0.384,0.361-0.128,1.195-0.128,1.195l-1.126-0.682C362.823,160.59,364.102,159.735,363.717,160.098z M361.802,168.183
		c0.533,0.131,0.854,0.216,1.021,0.239c0.168,0.018-0.15,1.04-0.212,1.187c-0.065,0.151-0.533,0.084-0.533,0.084
		c-0.3-0.232-1.508-1.379-1.616-1.767C360.356,167.547,361.272,168.059,361.802,168.183z M362.078,255.829
		c-0.17,1.447-4.85,2.682-6.51,0.388c0,0,5.704-1.878,7.703-2.815C364.345,252.904,362.213,254.761,362.078,255.829z
		 M447.234,320.057c-1.958,0.324-2.271-0.617-1.984-1.528c0,0,3.488-0.879,5.772-1.923
		C450.106,318.561,449.952,319.619,447.234,320.057z M452.843,303.9c0,0-3.192-2.641-5.475-3.489c1.03-2.302,1.99-4.973,2.052-6.897
		c0.033-1.156-0.097-7.281-0.358-10.198c1.192,2.633,3.902,9.13,3.902,15.269C452.963,300.738,452.843,303.9,452.843,303.9z
		 M461.673,273.731c-0.185,1.098-3.153,10.558-3.632,12.396c-0.481,1.842-0.821,2.764-0.961,1.901
		c-0.214-1.313-2.135-7.275-2.457-8.785c-0.473-2.224,0.213-4.53,1.228-6.558c0.768-1.541,5.021-3.214,5.983-3.214
		C461.834,269.927,462.023,271.656,461.673,273.731z"/>
	<path fill="#FFFFFF" d="M420.013,155.551c-0.096,1.234,0.059,3.077-0.025,3.418c-0.086,0.341-2.841,7.281-6.457,12.475
		c-2.462,3.525-5.194,6.335-7.49,6.335c-2.299,0-4.662-1.831-5.704-3.746c-0.746-1.219-3.826-6.92-4.167-8.411
		c-0.128,0.017-0.369,0.084-0.433,0.227c-0.137,0.313-0.399,1.143-0.436,1.72c-0.133,2.234-1.719,6.487-1.719,11.274
		c0,8.571,1.699,12.343,1.855,36.353l21.942,0.346c0.896-6.89,1.3-26.311,2.323-32.95c0.894-5.825,3.582-18.035,3.454-20.949
		c-0.088-2.05-1.73-4.383-2.394-5.92C420.688,155.563,420.129,155.461,420.013,155.551z"/>
	<path fill="#3A97CD" d="M416.355,185.367c-1.276-1.51-2.688-3.802-4.898-5.476l-10.617,0.063c-2.334,2.043-4.047,4.782-4.088,4.863
		c-0.261,0.509,2.284-0.112,4.425-0.312c0.651,1.095,1.591,2.01,1.563,2.486c-0.049,0.777-0.512,6.36-3.407,13.194l-2.123,15.187
		l9.698-30.777C409.46,184.594,417.103,186.246,416.355,185.367z"/>
	<path d="M411.541,179.952c-0.13,3.099-2.558,5.047-2.699,6.968c-0.225,3.111,1.099,6.481,1.278,11.796l-0.455,14.945l-11.529,1.403
		l1.882-15.107c2.729-7.049,3.367-12.08,3.416-12.85c0.063-0.993-3.008-3.876-2.69-7.005
		C401.698,178.972,405.798,175.656,411.541,179.952z"/>
	<linearGradient id="SVGID_3_" gradientUnits="userSpaceOnUse" x1="390.993" y1="245.4219" x2="398.4836" y2="192.1229">
		<stop  offset="0" style="stop-color:#009BF5"/>
		<stop  offset="0.0476" style="stop-color:#10A3F6"/>
		<stop  offset="0.1644" style="stop-color:#32B4F9"/>
		<stop  offset="0.2895" style="stop-color:#4EC2FB"/>
		<stop  offset="0.4241" style="stop-color:#63CDFD"/>
		<stop  offset="0.5723" style="stop-color:#72D4FE"/>
		<stop  offset="0.7449" style="stop-color:#7BD9FF"/>
		<stop  offset="1" style="stop-color:#7EDAFF"/>
	</linearGradient>
	<path fill="url(#SVGID_3_)" d="M371.177,193.47c1.41,0.395,8.108,1.368,14.161,1.588c6.05,0.217,32.422,0.869,34.152,0.869
		c1.728,0-0.827,14.508-0.613,20.434c0.332,9.333-1.865,24.273-1.334,32.189c0.118,1.734-0.648,7.946-0.648,7.946
		c-5.679-1.528-27.097-8.451-39.447-11.639c-1.501-0.382-2.595-12.042-4.326-19.747c-0.849-3.96-0.972-12.472-1.297-15.404
		C371.503,206.777,369.773,193.068,371.177,193.47z"/>
	<path d="M430.106,248.47c0,0-3.383-1.534-5.596-1.452c-1.191,0.05-2.599-0.124-3.406-0.511c-0.809-0.378-3.234-1.697-4.212-2.037
		c-0.981-0.342-4.086-1.972-5.427-2.514c-1.339-0.54-4.02-1.791-5.172-2.199c-1.148-0.416-3.351-0.834-3.859-0.739
		c-0.512,0.097-1.82,0.986-1.374,2.105c0.445,1.118,2.778,2.653,3.512,2.97c0.735,0.32,2.427,1.212,2.969,1.504
		c0.543,0.283,2.767,1.53,3.09,1.797c0.592,0.501,1.748,1.082,2.647,1.283c0.723,0.166,2.784,1.511,3.008,1.707
		c0.223,0.189,0.223,1.05-0.957,0.54c-1.182-0.508-2.65-1.087-3.13-1.403c-0.479-0.321-3.574-1.723-4.052-2.044
		c-0.478-0.315-2.906-1.851-3.384-2.041c-0.481-0.187-2.618-1.213-3.001-1.372c-0.383-0.162-2.384-0.903-3.191-0.685
		c-0.915,0.257-1.47,1.726-1.084,2.364c0.383,0.643,1.212,1.382,1.766,1.639c0.552,0.256,1.872,1.148,2.352,1.373
		c-0.607,0.286-0.991,0.825-0.768,1.372c0.224,0.541,0.447,1.595,1.148,2.203c-0.731,0.321-0.668,1.469-0.285,2.236
		c0.384,0.768,0.766,2.241,1.49,2.797c0.725,0.55,2.596,2.426,3.233,2.805c0.639,0.388,3.321,2.172,3.83,2.599
		c0.512,0.425,2.172,1.574,2.768,2.169c0.596,0.599,3.02,1.916,4.682,2.258c1.66,0.338,6.168,0.465,7.49,0.294
		c1.318-0.17,5.533-0.125,7.404-0.381C434.466,266.852,430.106,248.47,430.106,248.47z"/>
	<path fill="#FFFFFF" d="M346.802,191.03c1.123,1.366,4.029,2.47,6.667,2.892c3.464,0.548,7.113,0.085,8.694-0.649
		c0.085-1.23,0.453-3.052,0.391-3.493c0.014-0.166-0.932-0.8-1.114-0.832l-0.06,0.555c-0.109,1.234-12.916-0.639-12.354-1.422
		c0.148-0.234,0.197-0.922,0.232-1.089c-0.69,0.077-1.197,0.503-1.338,0.933C347.779,188.261,347.083,189.97,346.802,191.03z"/>
	<path fill="#FFFFFF" d="M427.073,270.098c-1.91,3.03-4.147,1.99-4.999,1.294c-1.082-0.885-3.054-2.949-3.959-4.358
		c0,0-0.276,1.571,0.898,3.577c1.459,2.501,2.815,3.632,4.471,5.045c1.657,1.415,1.992,1.18,2.741,0.365
		c1.584-1.726,1.656-2.298,3.106-5.402c0.688-1.467,1.282-3.898,1.447-5.96c0.233-2.899-0.175-5.385-0.175-5.385
		S429.306,266.554,427.073,270.098z"/>
</g>
</svg>
