<?xml version="1.0" encoding="utf-8"?>
<!-- Generator: Adobe Illustrator 17.0.0, SVG Export Plug-In . SVG Version: 6.00 Build 0)  -->
<!DOCTYPE svg PUBLIC "-//W3C//DTD SVG 1.1//EN" "http://www.w3.org/Graphics/SVG/1.1/DTD/svg11.dtd">
<svg version="1.1" id="Layer_1" xmlns="http://www.w3.org/2000/svg" xmlns:xlink="http://www.w3.org/1999/xlink" x="0px" y="0px"
	 width="355px" height="402px" viewBox="0 0 355 402" enable-background="new 0 0 355 402" xml:space="preserve">
<path fill="#131110" d="M239.952,146.78c0.219-1.825,1-3.459,0.681-5.406c-0.242-1.486-0.262-3.045-0.437-4.659
	c-0.123-1.151-0.35-2.233-0.671-3.314c0.235-1.932,0.113-3.944,0.025-5.811c-0.201-4.064-0.677-8.248-1.089-12.358
	c-0.368-3.707-0.842-7.34-1.629-10.903c0.107-3.058-0.984-6.437-1.981-9.19c-0.829-2.284-2.42-4.704-4.807-5.603
	c-0.699-0.963-1.971-1.532-2.969-2.211c-1.434-0.973-2.976-2.088-4.531-2.847c-1.496-0.724-3.226-1.158-4.802-1.682
	c-1.593-0.52-3.008-1.414-4.549-1.976c-2.04-0.741-4.322-1.445-6.625-1.772c-0.636-1.419-1.776-2.433-2.683-3.684
	c-0.801-1.103-1.24-2.923-2.277-3.793c-0.965-0.806-3.239-1.22-4.472-1.276c-0.092-0.008-0.188-0.008-0.276-0.012
	c-0.676-1.328-1.277-2.814-1.592-4.269c0.449-1.005,0.076-2.17,0.232-3.258c0.169-1.138,0.717-2.242,0.947-3.405
	c0.25-1.269,0.26-2.372-0.531-3.424c-0.182-0.234-0.413-0.538-0.672-0.825c-0.135-1.836-0.746-3.523-1.251-5.327
	c-1.335-4.804-4.516-8.795-8.961-11.143c-2.249-1.182-4.478-1.771-7.086-1.426c-2.463,0.324-5.082,0.547-7.303,1.82
	c-2.211,1.277-3.59,3.331-5.161,5.264c-1.586,1.955-2.66,4.174-3.641,6.435c-1.072,2.438-0.944,5.119-0.462,7.679
	c0.217,1.162,0.58,2.358,0.638,3.56c0.031,0.643,0.007,1.131,0.076,1.595l-1.815,1.887c0,0-0.238,0-0.952,0.234
	c-0.713,0.243,0.238,1.746,1.266,3.488c0.713,1.212,2.538,1.35,3.987,1.19c0.125,0.312,0.276,0.628,0.449,0.935
	c0.528,0.977,1.047,1.963,1.522,2.941c0.508,1.057,0.702,2.091,1.228,3.165c0.686,1.398,1.708,2.59,2.796,3.704
	c-0.521,0.475-1.055,0.89-1.754,1.263c-4.562,2.437-9.557,4.153-14.167,6.532c-0.153,0.08-0.293,0.159-0.431,0.248
	c-0.227-0.015-0.454,0-0.68,0.046c-0.914,0.177-2.407,1.308-2.866,2.131c-0.59,1.064-0.584,2.563-0.87,3.729
	c-0.301,1.256-0.806,2.379-1.171,3.641c-0.33,1.152-0.38,2.552-0.393,3.8c-0.031,2.846-0.549,5.53-0.945,8.287
	c-0.35,2.471-0.826,4.961-1.093,7.47c-0.291,2.761-0.901,5.764-0.625,8.607c-0.293,0.196-0.583,0.38-0.879,0.57
	c-1.791,1.139-4.689,2.006-5.698,3.988c-0.722,1.412-0.774,3.329-0.879,5.029c-1.207-0.513-2.405-0.993-3.577-1.433
	c-1.389-0.526-3.753-1.44-4.638,0.217c-0.883,1.664,0.193,2.795,1.462,3.896c0.975,0.845,1.795,1.529,2.206,2.802
	c0.475,1.483,0.605,2.89,1.484,4.343c0.616,1.009,1.442,2.144,2.54,2.693c0.059,1.901,0.209,3.801,0.589,5.567
	c0.597,2.789,1.825,5.31,2.773,7.996c0.158,0.447,0.296,1.204,0.615,1.598c0.392,0.474,0.811,0.303,1.523,0.368
	c1.435,0.151,2.66-0.158,4.039-0.289c1.389-0.138,2.407-0.217,3.715-0.73c1.473-0.579,2.558-1.388,3.707-2.46
	c0.728-0.677,1.619-1.394,1.896-2.387c0.347-1.249,0.755-2.275,1.381-3.482c0.068-0.125,0.137-0.253,0.201-0.378
	c0.171,1.644,0.326,3.281,0.475,4.925c0.569,6.28,1.343,12.952-0.354,19.11c-0.69,2.512-2.043,4.847-2.686,7.375
	c-0.225,0.888-0.436,1.9-0.321,2.719c0.117,0.848,0.628,1.45,0.76,2.278c0.312,1.93-0.079,4.14-0.193,6.043
	c-0.2,3.413-0.686,6.813-1.001,10.229c-0.286,3.084-0.541,6.162-1.111,9.19c-0.143,0.776-0.684,2.144-0.326,2.874
	c0.266,0.539,1.139,0.839,1.659,1.135c0.546,0.329,1.111,0.625,1.693,0.881c0.428,9.535,1.702,18.992,2.091,28.546
	c0.23,5.639,0.876,11.179,0.876,16.891c0,4.425-0.312,8.802,0.549,13.047c0.684,3.387,0.456,7.474,0.618,10.959
	c0.158,3.298,0.365,6.356,1.243,9.42c0.033,1.194,0.122,2.394,0.278,3.597c0.58,4.521,1.034,9.147,1.434,13.665
	c0.25,2.854,0.462,5.731,0.861,8.585c-0.809,6.28-2.208,12.672-0.748,18.853c0.345,1.47,0.833,3.163,1.516,4.564
	c0.481,0.993,1.231,1.739,1.869,2.607c-0.038,0.108-0.072,0.217-0.108,0.326c-0.488,1.555-1.304,2.509-2.226,3.791
	c-1.264,1.756-0.242,1.769,1.113,1.891c-0.622,0.868-1.305,1.697-2.031,2.469c-1.877,1.979-4.838,2.716-7.354,3.535
	c-1.512,0.493-3.002,0.825-4.546,1.184c-1.305,0.303-2.703,0.52-3.917,1.089c-0.34,0.158-1.018,0.358-1.281,0.569
	c-0.326,0.263-0.314,0.773-0.365,1.164c-0.127,1-0.204,2.295,0.821,2.841c0.735,0.395,1.721,0.49,2.54,0.684
	c1.493,0.362,3.035,0.454,4.59,0.473c4.472,0.046,9.022,0.24,13.465-0.151c1.675-0.151,3.498-0.348,5.109-0.862
	c1.327-0.427,2.56-1.207,3.775-1.897c0.437,0.056,0.873,0.118,1.31,0.184c2.366,0.385,4.651,1.243,7.03,1.056
	c1.432-0.115,2.959-0.506,4.356-0.874c0.756-0.201,1.536-0.385,2.269-0.658c0.406-0.155,0.839-0.496,1.268-0.496
	c-0.01-0.237,0.048-0.428,0.061-0.661c0.097-1.983-0.031-3.959-0.497-5.872c-0.011-0.059-0.028-0.112-0.041-0.174
	c0.038-0.02,0.08-0.046,0.115-0.076c1.059-0.743,0.177-3.758-0.092-5.086c-0.542-2.683-1.085-5.445-1.488-8.171
	c0.334-0.243,0.634-0.496,0.83-0.73c0.934-1.085,0.947-3.311,1.217-4.662c0.787-3.955,1.126-8.023,1.686-12.037
	c0.008-0.076,0.02-0.158,0.033-0.24c0.189,0.855,0.404,1.693,0.644,2.522c1.011,3.466,1.432,7.434,1.3,11.061
	c-0.14,3.853-0.176,8.105,1.979,11.472c0.855,1.341,1.598,2.653,2.331,4.034c0.372,0.697,0.885,1.115,1.248,1.707
	c0.572,0.921,0.347,1.364,1.381,1.66c0.163,0.046,0.326,0.086,0.492,0.122c-0.074,0.47-0.204,0.937-0.27,1.407
	c-0.135,0.951-0.199,2.009-0.199,2.976c0,0.983,0.318,1.614-0.473,2.364c-0.526,0.49-1.246,1.447-0.896,2.229
	c0.329,0.73,1.443,1.013,2.126,1.065c2.022,0.151,4.038,0.184,5.968,0.151c2.882-0.049,5.516-0.049,8.294-0.049
	c1.354,0,2.683-0.092,3.991-0.306c0.724-0.118,1.902-0.273,2.029-1.21c0.102-0.75-0.697-1.421-1.078-1.973
	c-0.452-0.671-0.289-1.578-0.289-2.377c0-0.848-0.025-1.716-0.196-2.529c-0.214-0.94-0.49-1.592-0.408-2.584
	c0.005-0.086,0.015-0.181,0.025-0.276c0.372,0,0.727,0.082,1.037,0.293c0.14-0.069,0.232-0.188,0.354-0.283
	c1.024-0.789,0.778-3.768,1.106-4.879c0.268-0.911,0.904-1.618,1.248-2.496c0.359-0.914,0.592-1.973,0.766-2.927
	c0.748-4.047,0.653-8.157,0.457-12.343c-0.594-12.636-1.374-25.226-1.928-37.878c-0.278-6.366-0.702-12.79-1.628-19.018
	c-0.49-3.298-1.082-6.615-1.614-9.933c0.727-3.206,1.438-6.389,1.917-9.558c0.547-3.646,1.037-7.332,1.083-11.064
	c0.047-3.725-0.421-7.589-0.766-11.285c-0.442-4.777-0.817-9.506-1.517-14.221c-0.046-0.312-0.104-0.625-0.16-0.931
	c0.279-1.572,0.533-3.12,0.763-4.679c0.677-0.214,1.345-0.451,1.991-0.7c0.799-0.322,1.432-0.47,1.752-1.272
	c0.161-0.411,0.011-0.753,0.243-1.171c0.143-0.257,0.485-0.398,0.651-0.648c0.804-1.243-0.074-3.35-0.27-4.801
	c-0.273-2.009-0.424-4.071-0.544-6.099c-0.246-4.327-0.128-8.634-0.302-12.991c-0.188-4.939-0.832-9.877-1.297-14.73
	c-0.372-3.84-0.978-7.609-0.978-11.515c0-2.953-0.115-5.843-0.174-8.756c0.559-0.02,1.128-0.036,1.697-0.036
	c1.726,0,3.786,0.273,5.42-0.204c1.859-0.559,3.452-1.674,4.802-3.021c0.501-0.5,0.934-1.046,1.3-1.631
	c0.52-0.825,0.301-1.43,0.508-2.203c0.199-0.756,0.893-1.401,1.093-2.157C240.082,148.411,239.868,147.51,239.952,146.78z
	 M162.41,64.517c0.097,0.174,0.219,0.355,0.376,0.553c0.027,0.028,0.049,0.061,0.071,0.091c-0.666,0.11-1.157,0.207-1.157,0.207
	L162.41,64.517z M160.911,68.14c-0.715-1.034-0.399-1.425,0.393-1.907c0.331-0.196,1.118-0.408,1.924-0.589
	c0.513,0.743,0.651,1.281,0.766,2.412c0.066,0.649,0.206,1.258,0.409,1.851C161.661,70.196,161.505,69,160.911,68.14z
	 M197.865,281.825c-0.429,2.437-0.988,4.876-1.361,7.319c-0.315,2.094-0.273,4.218-0.669,6.27c-0.347,1.802-0.908,3.502-1.09,5.317
	c-0.172,1.729-0.325,3.406-0.503,5.109c-0.046-1.404-0.095-2.811-0.148-4.218c-0.072-1.986-0.136-4.015-0.214-5.994
	c-0.082-1.969-0.424-3.732-0.538-5.645c-0.113-1.822,0.169-3.633-0.577-5.419c-0.281-0.671-0.561-1.341-0.847-2.019
	c0.715-3.166,1.142-6.28,1.31-9.585c0.092-1.937-0.219-3.811-0.219-5.754c0-1.825,0.112-3.551,0.219-5.317
	c0.072-1.187,0.194-2.358,0.329-3.525c0.153,0.526,0.296,1.052,0.434,1.575c1.789,6.905,3.242,13.941,4.021,21.076
	C197.962,281.286,197.911,281.559,197.865,281.825z"/>
<path fill="#FFFFFF" d="M196.45,69.556c0,0,1.818,2.379-0.717,5.627c-2.533,3.244-6.173,6.329-8.309,7.995
	c-2.137,1.661-5.068,3.484-5.068,3.484l-1.979,0.233l-1.58-0.87c0,0-3.165,0.156-5.46-2.375c0,0-2.372,5.857-3.247,11.792
	c-0.87,5.941-2.295,9.82-3.324,14.249c-1.028,4.437-3.087,21.634,3.242,35.731c0,0,5.547-20.197,9.816-29.472
	c4.274-9.265,10.528-22.327,14.01-27.789c3.484-5.462,5.935-9.89,6.571-12.425c0,0-0.952-2.141-1.901-4.199
	C197.551,69.48,196.764,68.85,196.45,69.556z"/>
<path fill="#131110" d="M180.934,94.808c0,0,0.473,0,0.553-0.472c0.077-0.473,1.348-1.268,2.535-1.979
	c1.189-0.71,1.425-1.661,1.425-1.661c-0.715-0.715-2.931-3.957-2.931-3.957c-0.021-0.054-0.039-0.097-0.058-0.138
	c-0.061,0.036-0.102,0.061-0.102,0.061l-1.979,0.233l-0.184-0.105c-0.344,0.444-0.738,0.898-1.08,1.134
	c-0.791,0.554-1.185,1.266-1.185,1.266s-0.158,1.66-0.556,3.086c-0.395,1.424-0.314,2.219-0.314,2.219s-0.319,0.791-0.95,2.294
	c-0.633,1.506-0.553,1.506-2.298,3.722c-1.739,2.216-1.901,3.482-4.985,12.659c-1.563,4.657-2.496,10.019-3.038,14.183
	c0.408,5.805,1.588,12.207,4.222,18.069c0,0,5.547-20.197,9.816-29.472c0.113-0.243,0.23-0.501,0.35-0.758
	c0.74-3.345,1.547-7.191,2.026-10.485C183.071,98.691,180.934,94.808,180.934,94.808z"/>
<polyline fill="#1760A9" points="110.026,113.143 142.242,105.229 171.859,139.099 141.379,146.366 110.026,113.143 "/>
<path fill="#131110" d="M147.799,145.267c-0.572-0.25-1.171-0.233-1.78-0.289c-1.147-0.125-2.394,0.086-3.556,0.141
	c-1.93,0.095-4.026-0.112-5.894,0.302c-0.003-0.099,0.025-0.194,0.092-0.266c0.169-0.177,0.616-0.148,0.852-0.177
	c1.512-0.233,3.17-0.066,4.603-0.651c1.023-0.421,0.842-2.137,0.312-2.906c-0.603-0.871-2.234-0.697-3.175-0.658
	c-1.175,0.043-2.32,0.04-3.454,0.24c-1.042,0.184-2.351,0.408-3.023,1.361c-0.648,0.917-0.5,1.937,0.016,2.864
	c0.271,0.5,0.636,0.973,1.037,1.434c-0.362,0.309-0.64,0.671-0.717,1.111c-0.092,0.506,0.228,0.957,0.52,1.332
	c0.355,0.464,0.48,0.901,0.562,1.46c0.181,1.194,0.884,2.019,1.848,2.788c0.907,0.72,1.703,1.246,2.828,1.47
	c1.597,0.309,3.07,0.309,4.603-0.437c1.322-0.634,2.257-1.996,1.72-3.439c-0.074-0.201-0.146-0.398-0.24-0.595
	c0.046-0.013,0.046,0.02,0.09,0.03l-1.328-1.075c0.531,0.197,1.435-0.043,1.983-0.105c0.606-0.072,1.197-0.184,1.725-0.513
	c0.749-0.474,2.042-1.592,1.54-2.598C148.759,145.688,148.19,145.438,147.799,145.267z M184.156,136.87
	c0.165-1.069,0.263-2.15-0.228-3.078c-0.342-0.651-0.967-0.763-1.562-1.098c-0.649-0.368-1.296-0.76-1.981-1.067
	c-0.74-0.335-1.468-0.691-2.203-1.034c-0.63-0.289-1.235-0.677-1.884-0.896c-1.221-0.408-2.565-0.427-3.908-0.349
	c-1.789,0.102-3.556,0.164-5.338,0.066c-1.47-0.072-2.571,0.431-3.941,0.88c-1.123,0.362-2.385,0.653-3.375,1.3
	c-0.912,0.594-1.978,1.478-1.578,2.714c0.148,0.464,0.459,1.032,0.977,1.114c0.539,0.082,1.175-0.132,1.708-0.214
	c1.346-0.2,2.637-0.733,3.942-1.009c1.687-0.352,3.341-0.289,5.003-0.086c-0.041,0.043-0.082,0.082-0.13,0.112
	c-0.426,0.316-1.195,0.243-1.697,0.29c-2.579,0.25-5.044,1.003-7.536,1.572c-0.574,0.125-1.143,0.243-1.708,0.414
	c-0.526,0.165-1.199,0.257-1.639,0.599c-0.898,0.671-0.71,1.96,0.165,2.584c0.252,0.184,0.572,0.273,0.917,0.316
	c-0.495,0.927-0.46,2.075,0.664,2.433c1.06,0.339,2.234,0.29,3.38,0.237c0.725-0.04,1.45-0.063,2.175-0.069
	c0.174,0.533,0.765,1.029,1.105,1.305c0.807,0.655,1.427,1.49,2.343,2.012c1.195,0.687,2.438,1.177,3.829,1.184
	c0.891,0.013,1.789-0.165,2.644-0.461c0.036,0.02,0.074,0.036,0.113,0.056c0.931,0.441,2.027,0.586,2.939,0.059
	c0.664-0.378,1.21-0.865,1.672-1.421c0.033-0.013,0.072-0.026,0.105-0.036c1.682-0.717,2.958-1.756,3.901-3.321
	c0.825-1.361,1.336-3.15,1.174-4.741C184.192,137.107,184.176,136.995,184.156,136.87z"/>
</svg>
