<?xml version="1.0" encoding="utf-8"?>
<!-- Generator: Adobe Illustrator 17.0.0, SVG Export Plug-In . SVG Version: 6.00 Build 0)  -->
<!DOCTYPE svg PUBLIC "-//W3C//DTD SVG 1.1//EN" "http://www.w3.org/Graphics/SVG/1.1/DTD/svg11.dtd">
<svg version="1.1" id="Layer_1" xmlns="http://www.w3.org/2000/svg" xmlns:xlink="http://www.w3.org/1999/xlink" x="0px" y="0px"
	 width="173.5px" height="203px" viewBox="0 0 173.5 203" enable-background="new 0 0 173.5 203" xml:space="preserve">
<g>
	<path d="M101.429,118.345l2.727-1.635l0.727-1.636l1.816,0.182l1.092,0.911l1.817,0.18l1.671-0.944l0.148-0.147l-0.186-6.178
		c0,0,2.728-5.817,2.546-8.359c0,0,3.092-7.271,2.546-12.903l-0.908-2.183l0.727-2.362l-1.456-2.363l1.456-1.819l-2.909-2.908
		c0,0,0.547-7.268-2.363-12.72l-1.453-5.999c0,0,0-4.544-8.904-7.453l-1.092-1.581l-0.363,0.488c0,0-3.818,0.362-9.634-7.271v-1.092
		l-0.546,1.999l-1.272,1.456c0,0-3.453,4.543-5.996,5.27c0,0-5.818,0.183-6.908,7.453l-0.363,10.36l0.18,2.544l2.365,10.359
		l1.817,2.181l-1.817,32.898v0.909l2.727,1.818l0.011,0.61C83.715,119.046,95.35,120.571,101.429,118.345z"/>
	<path fill="#FDCC8A" d="M103.792,28.922c-0.04-0.58-0.152-1.095-0.304-1.572l-3.149,0.123l-6.179-0.545l-2.184,0.182v4.179
		l-2.726,3.816l-0.738-1.687c0.006,0.027,0.011,0.046,0.011,0.046c-4.362,0.547,0.909,7.088,0.909,7.088v1.092
		c5.815,7.633,9.634,7.271,9.634,7.271l1.09-1.455l1.271-1.091l0.548-2.182c1.453-1.455,2.907-6.361,2.907-6.361l0.18-0.727v-2.908
		l-0.727-0.728L103.792,28.922z"/>
	<path d="M91.977,31.289V27.11l2.184-0.182l6.179,0.545l3.149-0.123c-1.317-4.157-6.423-4.607-6.423-4.607
		c-10.67,0.175-8.712,9.941-8.552,10.676l0.738,1.687L91.977,31.289z"/>
	<path fill="#FFFFFF" d="M106.335,75.273l1.819,5.815c0,0,0.546-15.085-6.725-27.808v-2.955c-0.292-0.107-0.592-0.214-0.907-0.316
		l-1.092-1.581l-0.363,0.488c0,0-3.818,0.362-9.634-7.271v-1.092l-0.546,1.999l-0.214,0.245c0.359,0.861,0.824,1.842,1.125,1.942
		c0.544,0.181,4.179,6.724,4.179,6.724l4.545,5.088l1.817,3.818L106.335,75.273z"/>
	<path fill="#EFDD00" d="M101.429,53.28V51.9l-2.362-1.89l-0.912,2.727l0.729,0.727l1.081,6.121l0.374,0.786l5.995,14.904
		l1.819,5.815C108.154,81.088,108.7,66.003,101.429,53.28z"/>
	<polygon fill="none" points="91.796,177.235 91.796,178.505 91.613,180.321 93.069,178.87 93.796,175.415 93.249,173.78 	"/>
	<path d="M91.613,180.321l0.182-1.817v-1.27l1.453-3.454l0.547,1.635l1.999,0.366l5.449-1.274l4.728-1.636l1.59-1.501l-1.043-1.045
		l-0.91-1.454l2.002-2.725l2.36-28.898v-8.541l0.909-12.906l0.398-0.398l-1.671,0.944l-1.817-0.18l-1.092-0.911l-1.816-0.182
		l-0.727,1.636l-2.727,1.635c-6.079,2.225-17.714,0.701-21.798,0.064l0.533,30.832l1.09,20.902l0.546,3.818l-0.18,2.363
		l-1.999,1.271l1.27,2.543l1.456,1.638l4.362-1.453L91.613,180.321z"/>
	<path d="M91.068,191.228c0,0,3.092-0.363,2.002-5.635l-0.91-2.726l-0.546-2.546l-4.906,0.002l-4.362,1.453v4.725
		C82.346,186.502,83.255,191.954,91.068,191.228z"/>
	<path d="M101.244,174.507l-5.449,1.274l-1.999-0.366l0.18,1.453l5.635,0.909l0.727-0.183c0,0,4.725,0.181,6.724,2.543
		c0,0,10.18,1.821,10.18-2.724c0,0-1.092-3.817-6.362-3.817l-1.817-0.727l-1.502-1.501l-1.59,1.501L101.244,174.507z"/>
	<path fill="#FDCC8A" d="M114.696,97.447c0,0-1.27-5.636-5.088-2.547l-1.817,1.455l-1.819,0.544l-1.273,0.727l0.548,1.456
		l1.271,0.361l0.724-0.543l-2.36,4.362l-0.908,0.908l-0.183,1.273l0.544,0.182l1.09,1.637l0.366,1.089v1.455l1.819,1.091h1.634
		l1.817-1.091l0.191-0.442l-0.011-0.284c0,0,2.728-5.817,2.546-8.359c0,0,0.489-1.154,1.039-2.882L114.696,97.447z"/>
</g>
</svg>
