<?xml version="1.0" encoding="utf-8"?>
<!-- Generator: Adobe Illustrator 17.0.0, SVG Export Plug-In . SVG Version: 6.00 Build 0)  -->
<!DOCTYPE svg PUBLIC "-//W3C//DTD SVG 1.1//EN" "http://www.w3.org/Graphics/SVG/1.1/DTD/svg11.dtd">
<svg version="1.1" id="Layer_1" xmlns="http://www.w3.org/2000/svg" xmlns:xlink="http://www.w3.org/1999/xlink" x="0px" y="0px"
	 width="800px" height="600px" viewBox="0 0 800 600" enable-background="new 0 0 800 600" xml:space="preserve">
<path fill-rule="evenodd" clip-rule="evenodd" fill="#221E1F" d="M363.735,17.037c44.698,0,43.683,0,88.385,0v204.92
	c-14.436,1.119-26.87,9.361-33.789,21.224c-1.176,2.013-1.931,2.412-1.604,4.627c2.701,18.107,5.398,36.205,8.095,54.303
	c-8.929,4.951-25.483,4.951-34.412,0c2.697-18.098,5.394-36.196,8.095-54.303c0.383-2.599-0.195-3.396-1.611-5.679
	c-7.032-11.292-19.154-19.091-33.158-20.172V17.037L363.735,17.037z M372.879,38.967v182.329
	c12.832,3.17,24.026,11.134,31.238,22.26c2.539,0,5.083,0,7.618,0c7.212-11.127,18.406-19.09,31.238-22.26V38.967
	C419.608,38.967,396.243,38.967,372.879,38.967L372.879,38.967z M369.224,219.011V37.066h-1.829v181.63
	C368.007,218.794,368.619,218.891,369.224,219.011L369.224,219.011z M446.628,37.066v181.946c0.605-0.12,1.217-0.218,1.829-0.315
	V37.066H446.628L446.628,37.066z M402.287,247.214c-1.874,12.591-6.638,62.672,18.516,52.747
	c-2.622-17.58-5.241-35.168-7.862-52.747h-1.206c-2.536,0-5.079,0-7.618,0H402.287L402.287,247.214z"/>
<path fill-rule="evenodd" clip-rule="evenodd" fill="#221E1F" d="M445.333,564.947v-12.93c-11.593,1.969-27.253,2.374-36.911,2.374
	h-0.489h-0.511c-9.65,0-25.31-0.405-36.903-2.374v12.93c2.619,1.006,9.087,1.916,11.187,2.163c8.392,1.015,17.25,1.36,25.743,1.36
	h0.951c8.497,0,17.358-0.345,25.747-1.36C436.249,566.863,442.718,565.953,445.333,564.947L445.333,564.947z M445.333,524.385
	v-91.589c0-13.898-5.233-26.993-7.69-40.659c-0.868-4.808-1.281-9.744-0.683-14.582c2.179-17.655-2.66-43.815-23.812-19.331
	c-19.147,22.162-0.192,101.393,5.124,129.175C422.906,511.621,441.317,561.799,445.333,524.385L445.333,524.385z M407.929,572.49
	h-0.469c-23.496,0-42.552-2.855-42.552-6.371v-19.601c7.081,2.261,23.451,3.854,42.511,3.854h0.511h0.508
	c19.06,0,35.426-1.592,42.507-3.854v19.601c0,3.516-19.052,6.371-42.548,6.371H407.929L407.929,572.49z M364.908,542.093V432.796
	c0-14.815,5.124-26.641,7.738-41.17c0.872-4.838,1.183-9.459,0.658-13.726c-3.463-28.045-15.984-47.992,34.157-47.992h0.469h0.466
	c50.137,0,37.62,19.947,34.157,47.992c-0.525,4.267-0.218,8.888,0.654,13.726c2.614,14.529,7.738,26.355,7.738,41.17v109.297
	c-9.601,1.57-25.036,2.592-42.44,2.592h-0.575h-0.582C389.944,544.685,374.513,543.663,364.908,542.093L364.908,542.093z"/>
<path fill-rule="evenodd" clip-rule="evenodd" fill="#221E1F" d="M407.929,312.441c15.991,0,28.962,1.195,28.962,2.675v16.333
	c-5.804-2.735-14.812-4.23-28.496-4.23l-0.466,0.008l-0.469-0.008c-13.685,0-22.696,1.495-28.5,4.23v-16.333
	C378.96,313.635,391.931,312.441,407.929,312.441L407.929,312.441z"/>
</svg>
