<?xml version="1.0" encoding="utf-8"?>
<!-- Generator: Adobe Illustrator 17.0.0, SVG Export Plug-In . SVG Version: 6.00 Build 0)  -->
<!DOCTYPE svg PUBLIC "-//W3C//DTD SVG 1.1//EN" "http://www.w3.org/Graphics/SVG/1.1/DTD/svg11.dtd">
<svg version="1.1" id="Layer_1" xmlns="http://www.w3.org/2000/svg" xmlns:xlink="http://www.w3.org/1999/xlink" x="0px" y="0px"
	 width="355px" height="402px" viewBox="0 0 355 402" enable-background="new 0 0 355 402" xml:space="preserve">
<g>
	<path fill="#ED9366" d="M243.433,140.52c0.061-5.064-0.132-17.852-0.132-17.852l1.965-1.139c0,0-2.34-12.914-3.737-17.598
		c-1.388-4.684-2.026-10.539-5.915-14.307c-3.895-3.768-9.653-5.571-13.643-7.409c-3.991-1.833-10.762-2.719-12.377-3.256
		c-1.61-0.542-6.254-2.056-6.254-2.056l-0.846,0.314c0,0-2.087-0.846-3.606-2.765c-0.674-0.851-0.942-2.107-1.028-3.231
		c-0.111-1.403,0.056-2.613,0.056-2.613s1.307,4.598,1.307,4.852c0,0.253,0.886-2.573,1.013-3.039
		c0.127-0.461,0.972,3.504,0.972,3.504l0.633-2.446l0.841,3.302c-0.036-0.441-0.446-5.308-0.122-7.566
		c0.334-2.365,0.673-8.862,0.967-13.38c0.299-4.512-0.547-8.736-2.532-13.714c-1.98-4.978-5.318-4.644-5.318-4.644
		s-1.053-4.259-8.057-6.457c-7.009-2.193-17.431,2.112-19.963,3.864c-2.532,1.752-4.345,5.718-4.897,6.963
		c-0.547,1.246,0.866,3.732,0.866,3.732l0.213-3.479c0,0,0.188,3.145,0.932,1.372c0.593-1.408,1.611-1.762,2.005-1.854
		c0.101-0.02,0.162-0.025,0.162-0.025s-0.588,1.666-2.026,3.945c-1.433,2.279-1.919,3.185-2.254,5.257
		c-0.339,2.066,1.56,3.185,1.074,4.659c-0.486,1.479-1.985,2.912-2.385,4.791c-0.4,1.879,2.552,2.851,2.552,2.851
		s0.045,1.16-0.461,1.919c-0.506,0.76,0.906,1.56,1.2,2.385c0.299,0.82-0.506,1.074-0.36,1.601c0.147,0.527,1.246,1.393,0.886,2.345
		c-0.36,0.947-0.38,3.206-0.187,4.517c0.187,1.307,3.818,1.367,5.93,1.494c2.107,0.127,1.6,4.011,1.6,4.011
		s-3.839,1.646-7.298,3.332c-3.464,1.691-7.389,2.238-15.659,5.697c-8.27,3.464-12.321,14.099-13.76,18.485
		c-1.433,4.391-4.132,17.811-4.132,17.811l1.433,2.026c0,0-0.927,11.562-1.859,16.039c-0.927,4.472-0.76,10.969-0.42,18.991
		c0.339,8.017,4.897,16.034,6.077,24.562c1.18,8.523,5.657,10.382,5.657,12.853c0,0.203,0.005,0.547,0.015,1.013
		c0.137,5.206,1.018,25.661,2.178,35.425c1.266,10.635,7.343,31.145,4.431,41.78c-2.912,10.635-1.139,28.487-2.912,34.564
		s2.152,18.358-0.633,21.143c-1.935,1.935-3.444,7.627-4.178,10.924c-0.329,1.448-0.506,2.436-0.506,2.436l1.833,1.327
		c0,0-0.375,2.152-1.641,5.125c-1.266,2.978-2.092,2.279-5.51,5.824s-3.099,6.968-3.418,10.321
		c-0.319,3.353,4.998,4.811,12.342,4.365c7.343-0.441,10.447-3.606,10.321-7.151c-0.127-3.545,2.087-3.353,6.898-4.811
		c4.811-1.458,4.497-3.484,4.497-3.484l-0.739-6.594l-0.02-0.177c0,0,4.365,1.266,4.431,0.826c0.056-0.385,0.775-2.481,1.342-5.586
		c0.086-0.481,0.167-0.982,0.243-1.504c0.567-3.93,0.82-25.514,0.441-36.529c-0.38-11.015,3.292-36.716,4.178-43.3
		c0.886-6.584,5.571-36.843,6.204-40.134c0.633-3.292,3.418-1.14,5.064,3.165c1.646,4.305,6.457,10.129,7.47,18.991
		c1.013,8.863,5.318,24.435,7.976,33.171c2.659,8.736,2.026,30.892,5.951,42.667s0.82,14.241-1.013,15.639
		c-0.83,0.628-0.101,2.973,0.942,5.348c1.261,2.871,2.983,5.793,2.983,5.793s1.332-0.891,1.96,0
		c0.071,0.101,0.147,0.258,0.223,0.466c0.593,1.596,1.251,6.016,1.363,8.204c0.127,2.471,3.292,6.71,3.732,9.369
		c0.446,2.659-2.593,2.34,2.664,6.583c5.252,4.244,11.516,2.532,15.507,0c3.991-2.532,2.785-4.558,3.231-7.536
		c0.441-2.973,1.833-3.986-1.773-8.356c-3.611-4.365-4.051-8.731-4.051-8.731l0.431-0.192l1.149-0.506c0,0,0.015-0.75-0.015-2.087
		c-0.055-2.426-0.263-6.786-0.997-12.093c-1.139-8.23-1.393-7.47-1.393-12.281c0-4.811,0-23.296-2.152-33.044
		c-2.152-9.749-4.938-20.004-5.444-33.551c-0.506-13.547-0.127-13.674,0-27.094c0.117-12.443-2.487-25.651-4.279-31.9
		c-0.142-0.491-0.278-0.937-0.405-1.337c1.205-3.732,7.47-12.215,11.587-19.497c4.112-7.277,6.077-13.289,8.478-18.859
		C243.94,151.727,243.367,145.584,243.433,140.52z M148.539,164.322c0,0-0.283-1.347-0.643-3.059c0-0.005,0-0.005,0-0.01
		c-0.451-2.158-1.013-4.898-1.256-6.234c-0.425-2.335,2.127-20.409,2.299-21.584c0-0.02,0-0.041,0.005-0.055
		c0.056,0.202,1.251,4.598,1.621,6.887C150.944,142.611,148.539,164.322,148.539,164.322z M223.11,155.713
		c-1.362,2.254-7.014,12.666-9.84,17.887c-0.983,1.818-1.621,3.003-1.621,3.003l-0.375-2.218c0,0,10.822-38.549,11.455-37.476
		c0.289,0.491,0.633,1.935,1.043,3.575c0.492,1.95,1.084,4.178,1.803,5.419C226.908,148.182,224.949,152.674,223.11,155.713z"/>
	<path fill="#3F1F09" d="M202.559,67.214c-0.324,2.259,0.086,7.126,0.122,7.566l-0.841-3.302l-0.633,2.446
		c0,0-0.846-3.965-0.972-3.504c-0.127,0.466-1.013,3.292-1.013,3.039c0-0.253-1.307-4.852-1.307-4.852s-0.167,1.21-0.056,2.613
		c-0.304-1.19-0.456-2.259-0.537-2.36c-0.167-0.213-0.334-3.545-0.461-4.684c-0.127-1.14-0.886,1.813-1.393,1.56
		c-0.506-0.253,0.167-2.573,0.127-4.305c-0.046-1.727-3.378,2.405-3.504,2.365c-0.122-0.041,1.185-3.732,1.261-3.955
		c-0.122,0.167-1.727,2.466-1.727,2.182c0-0.294,0.339-1.772,1.058-3.165c0.714-1.393,2.532-4.305,3.039-5.864
		c0.506-1.565,0.587-4.097-1.773-5.49c-2.365-1.393-4.938,2.704-5.404,2.998c-0.466,0.294-1.053,0.886-1.225,0.592
		c-0.167-0.299-0.506-0.045-1.053,0.167c-0.547,0.213-0.886-0.127-0.886-1.013c0-0.886-1.053-4.811-3.206-8.27
		c-2.152-3.464-4.224-3.798-5.024-4.223c-0.8-0.421-6.837,1.985-7.05,1.818c-0.208-0.172,0.972-1.185,0.846-1.185
		c-0.127,0-2.026,1.266-2.446,1.226c-0.425-0.041,0.334-1.479,0.334-1.479l-1.813,1.266l-0.248,0.218
		c-0.395,0.092-1.413,0.446-2.005,1.854c-0.744,1.773-0.932-1.372-0.932-1.372l-0.213,3.479c0,0-1.413-2.487-0.866-3.732
		c0.552-1.246,2.365-5.211,4.897-6.963c2.532-1.752,12.954-6.057,19.963-3.864c7.004,2.198,8.057,6.457,8.057,6.457
		s3.337-0.334,5.318,4.644c1.985,4.978,2.831,9.202,2.532,13.714C203.233,58.352,202.894,64.849,202.559,67.214z"/>
	<path fill="#2D2724" d="M141.449,344.013c7.647,0.668,19.133,1.64,29.829,2.42c-0.567,3.105-1.286,5.201-1.342,5.586
		c-0.066,0.441-4.431-0.826-4.431-0.826l0.02,0.177l0.739,6.594c0,0,0.314,2.026-4.497,3.484c-4.811,1.459-7.024,1.266-6.898,4.811
		c0.127,3.545-2.978,6.71-10.321,7.151c-7.343,0.446-12.661-1.013-12.342-4.365c0.319-3.353,0-6.776,3.418-10.321
		s4.244-2.846,5.51-5.824c1.266-2.973,1.641-5.125,1.641-5.125l-1.833-1.327C140.942,346.449,141.119,345.461,141.449,344.013z"/>
	<path fill="#2D2724" d="M240.395,366.827c-0.446,2.978,0.76,5.003-3.231,7.536c-3.991,2.532-10.255,4.244-15.507,0
		c-5.257-4.244-2.218-3.925-2.664-6.583c-0.441-2.659-3.606-6.898-3.732-9.369c-0.111-2.188-0.77-6.609-1.363-8.204
		c-0.076-0.208-0.152-0.364-0.223-0.466c-0.628-0.891-1.96,0-1.96,0s-1.722-2.922-2.983-5.793c5.768-1.935,12.058-3.91,13.997-4.107
		c1.782-0.177,7.966,3.555,13.405,7.115c0.031,1.337,0.015,2.087,0.015,2.087l-1.149,0.506l-0.431,0.192
		c0,0,0.441,4.366,4.051,8.731C242.228,362.842,240.835,363.855,240.395,366.827z"/>
	<path fill="#0F0F0E" d="M236.151,349.042l-1.149,0.506c-2.183,0.015-5.571,0.4-9.02,1.433c-4.224,1.266-10.048,0.213-12.078-0.775
		h-0.005c-0.076-0.208-0.152-0.364-0.223-0.466c-0.628-0.891-1.96,0-1.96,0s-5.758-9.754-3.925-11.141
		c1.833-1.398,4.938-3.864,1.013-15.639s-3.292-33.931-5.951-42.667c-2.659-8.736-6.963-24.309-7.976-33.171
		c-1.013-8.862-5.824-14.686-7.47-18.991c-1.646-4.305-4.431-6.457-5.064-3.165c-0.633,3.292-5.318,33.551-6.204,40.134
		c-0.886,6.583-4.558,32.285-4.178,43.3c0.38,11.015,0.127,32.599-0.441,36.529c-0.572,3.92-1.519,6.644-1.585,7.09
		c-0.066,0.441-4.431-0.826-4.431-0.826l0.02,0.177c-2.259-1.514-10.655-1.23-15.932-1.276c-5.272-0.041-6.817-2.32-6.817-2.32
		l-1.833-1.327c0,0,1.899-10.574,4.684-13.36c2.785-2.785-1.14-15.066,0.633-21.143s0-23.929,2.912-34.564
		c2.912-10.635-3.165-31.145-4.431-41.78c-1.16-9.764-2.041-30.219-2.178-35.425c12.559-1.666,11.82-8.23,13.319-11.865
		c1.61-3.905,37.162-11.648,41.147-1.894c3.986,9.744,11.521,13.289,17.725,12.747c2.745-0.238,5.211-1.185,7.115-2.173
		c1.793,6.249,4.396,19.457,4.279,31.9c-0.127,13.42-0.506,13.547,0,27.094c0.506,13.547,3.292,23.802,5.444,33.551
		c2.152,9.749,2.152,28.233,2.152,33.044c0,4.811,0.253,4.051,1.393,12.281C236.277,343.091,236.151,349.042,236.151,349.042z"/>
	<path fill="#AAAFBA" d="M245.266,121.529l-1.965,1.139c0,0-6.138-2.026-9.85-1.94c-3.717,0.081-6.502-0.425-8.781,0
		c-2.279,0.42-2.699,1.94-2.699,5.991c0,4.051,1.858,13.588,1.858,13.588s-0.02,0.061-0.056,0.177
		c-0.42,1.418-3.312,11.06-6.274,18.394c-1.98,4.892-3.089,10.65-4.228,14.722c-0.704,2.532-1.418,4.416-2.355,5.029
		c-2.451,1.605-0.76,11.734-0.76,11.734s-6.756,0-8.949-0.76c-2.193-0.76-4.644,0-9.455,0.674
		c-4.811,0.674-21.184-0.506-24.729-0.76c-3.545-0.253-3.378,1.686-5.15,2.365c-1.773,0.674-3.626-1.013-6.158-0.086
		c-2.532,0.927-3.798,0.506-3.798,0.506s-1.859-5.318-2.957-9.283c-1.094-3.97-1.094-16.459-1.094-19.33
		c0-0.537,0.01-1.377,0.031-2.426c0-0.005,0-0.005,0-0.01c0.086-4.558,0.319-13.026,0.39-17.482
		c0.036-2.314,0.329-6.396,0.653-10.336c0-0.02,0-0.041,0.005-0.055c0.441-5.389,0.947-10.499,0.947-10.499
		s-2.152-0.593-3.504-0.172c-1.352,0.425-4.011,1.393-9.328,1.438c-5.318,0.041-3.965,2.573-3.965,2.573l-1.433-2.026
		c0,0,2.699-13.42,4.132-17.811c1.438-4.386,5.49-15.021,13.76-18.485c8.27-3.459,12.195-4.006,15.659-5.697
		c3.459-1.686,7.298-3.332,7.298-3.332c1.438,3.484,4.33,4.781,13.886,4.274s16.099-6.427,16.099-6.427l0.846-0.314
		c0,0,4.644,1.514,6.254,2.056c1.616,0.537,8.387,1.423,12.377,3.256c3.99,1.838,9.749,3.641,13.643,7.409
		c3.889,3.768,4.527,9.622,5.915,14.307C242.927,108.615,245.266,121.529,245.266,121.529z"/>
	<path fill="#5B5B5B" d="M231.615,352.113c4.119,1.527,3.798,4.399,5.149,7.86c1.351,3.461-0.541,5.824-0.608,9.031
		c-0.067,3.207-2.008,6.921-7.494,4.136c-5.486-2.785-6.33,0-7.512-5.74c-1.182-5.74-5.064-7.006-3.461-10.804
		c1.604-3.798,3.292-2.279,6.837-2.785C228.07,353.304,229.082,351.174,231.615,352.113z"/>
	<path fill="#5B5B5B" d="M160.715,352.545c2.589,3.198-5.233,1.688-8.187,6.837c-2.954,5.149-5.699,9.791-11.585,9.116
		s-8.25-4.637-2.51-9.746c5.739-5.109,5.993-7.81,5.993-7.81s2.785,0.943,6.752,0.936
		C155.144,351.869,159.28,350.772,160.715,352.545z"/>
	<path fill="#262626" d="M233.83,345.391c-0.908,2.754-2.216-4.592-6.141-1.378c-3.925,3.214-9.432,4.164-11.774,2.075
		c-2.342-2.089-0.633-6.963,1.646-8.356c2.279-1.393,4.621-3.482,1.519-9.685c-3.102-6.204-4.241-15.446-4.684-23.106
		c-0.443-7.66-0.38-18.991-4.051-25.068s-7.976-6.077-7.85-18.611c0.127-12.534,2.279-28.74-2.405-34.944
		c-4.684-6.204-10.129-20.764-9.622-25.068c0.506-4.305,3.165-10.382,5.824-8.103c2.659,2.279,5.064,5.824,9.116,7.09
		s9.116,2.856,12.028,2.441c2.912-0.415,3.418-0.921,3.418,3.89s-1.646,29.246-3.039,36.969c-1.393,7.723-4.178,15.193,0.886,27.347
		c5.064,12.154,4.764,20.51,6.18,30.512c1.416,10.002,0.277,18.611,3.062,23.929c2.785,5.318,0.76,11.395,0.76,11.395
		S235.252,341.079,233.83,345.391z"/>
	<path fill="#262626" d="M150.27,329.882c-0.701,4.132-8.166,7.786-6.584,13.357c1.583,5.571,4.558,6.33,8.989,5.507
		c4.431-0.823,11.205-1.646,13.8-0.57c2.595,1.076,2.152-1.646-0.696-4.874c-2.849-3.228-2.089-8.736-0.317-14.18
		c1.773-5.444-4.115-29.12-2.216-37.729c1.899-8.609,3.178-29.879,4.944-34.944c1.766-5.064-0.639-19.877-1.399-27.98
		c-0.76-8.103,0.506-23.929-2.152-27.854c-2.659-3.925-10.762-3.165-14.686,0c-3.925,3.165-4.558,9.875-2.659,25.448
		c1.899,15.573,6.077,21.903,6.077,39.881c0,17.978-6.33,18.231-4.305,30.765C151.093,309.245,151.472,322.792,150.27,329.882z"/>
	<path fill="#F3B294" d="M187.302,61.939c0.597,4.178-0.633,8.314-6.288,9.496c-5.655,1.182-12.703,3.376-13.927,2.237
		c-1.224-1.14-1.139-4.473-1.182-6.33c-0.042-1.857-1.224-3.629-0.802-4.811c0.422-1.182,1.097-1.688-0.127-2.152
		s-2.912-2.152-2.068-3.967c0.844-1.815,2.363-2.279,1.604-3.925c-0.76-1.646-0.928-4.178-0.042-6.583
		c0.886-2.406,1.435-5.782,3.503-5.74c2.068,0.042,4.853,0.338,6.795-0.38c1.941-0.717,5.36,0.506,6.879,3.587
		c1.519,3.081,1.139,6.499,2.701,9.875C185.909,56.622,186.838,58.69,187.302,61.939z"/>
	<path fill="#F3B294" d="M193.21,66.961c2.956,2.881,3.545,8.656,4.727,9.941c1.182,1.285-2.701,3.817-4.769,4.408
		c-2.068,0.591-7.807,2.195-10.972,1.139c-3.165-1.055-0.928-4.811,1.604-6.246c2.532-1.435,5.191-2.448,6.119-4.558
		C190.847,69.536,191.565,65.358,193.21,66.961z"/>
	<path fill="#F3B294" d="M225.538,123.892c-0.957,5.146-1.013,13.083,1.688,18.147c2.701,5.064,2.701,9.031-1.435,16.965
		c-4.136,7.934-10.551,14.686-12.07,20.51c-1.519,5.824-0.928,10.909-3.123,12.882c-2.195,1.973-8.441-1.298-7.934,0
		c0.506,1.298,1.453,4.295,6.584,4.758c14.011,1.266,10.466-8.103,12.492-10.382c2.026-2.279,3.292-1.941,6.752-9.285
		c3.461-7.343,11.901-17.472,10.297-27.432c-1.604-9.96,3.794-12.745,2.616-20.51C240.228,121.782,226.213,120.263,225.538,123.892z
		"/>
	<path fill="#F3B294" d="M149.489,192.651c-1.2,3.357-8.187,3.154-9.622-0.728c-1.435-3.883,0-6.752-1.519-12.492
		c-1.519-5.739-7.046-15.362-6.688-24.646c0.358-9.285,2.299-15.792,2.299-20.135c0-4.343-0.591-9.07,4.052-9.238
		c4.642-0.169,8.103-1.35,8.778-0.591c0.675,0.76,0.338,8.187-1.351,16.543c-1.688,8.356-1.604,16.797-0.338,21.945
		s2.532,11.817,2.11,16.374s-0.253,6.246,0.422,8.525C148.307,190.488,150.164,190.762,149.489,192.651z"/>
	<path fill="#C9CED3" d="M237.439,96.798c-4.115-10.318-10.445-8.926-15.334-12.344c-4.888-3.418-11.444-3.735-17.901-4.305
		c-6.457-0.57-9.875,4.938-16.766,7.85c-6.89,2.912-12.86-1.393-15.899-4.241c-3.039-2.849-2.532-1.013-7.217,1.456
		c-4.684,2.469-10.508,3.165-15.889,5.191c-5.381,2.026-10.255,12.281-12.154,19.371c-1.899,7.09-0.38,11.141-0.38,11.141
		s7.533-2.912,11.901-1.709c0,0,1.857-8.23,1.833-10.593c-0.023-2.363,0.868,1.857,0,6.752c-0.867,4.896,1.542,9.285,4.075,14.518
		c1.218,2.517,6.418,2.806,11.714,2.43c-0.605,2.507,0.284,5.949,0.103,8.036c-0.337,3.883-4.051,6.246-5.571,13.843
		c-1.519,7.597-2.532,10.635,0,16.881c2.532,6.246,0.169,9.791-2.363,5.74c-2.532-4.051-6.921-8.947-7.957-5.74
		c-1.036,3.207-0.252,13.417,2.049,15.531c2.301,2.114,7.597,1.688,9.791,0.675c2.195-1.013,15.699,0.675,22.62,0
		c6.921-0.675,7.09,0,9.116-0.169c2.026-0.169,12.154,0.169,12.154,0.169s-1.857-4.895,2.195-8.778
		c4.052-3.883-1.519-3.039-6.415-5.064c-4.896-2.026-0.844-7.765,2.441-8.778c3.285-1.013,1.442-4.051-4.297-9.453
		c-5.159-4.856-0.977-18.056,0.412-24.207c2.52-0.448,4.841-1.171,6.678-2.296c8.272-5.064,11.627-16.079,11.943-17.725
		c0.317-1.646,2.152-7.533,2.659-6.9c0.506,0.633,3.735,4.431,3.039,7.47c-0.696,3.039-3.355,9.052,1.203,6.71
		c4.558-2.342,16.649,1.773,16.712,0.443C241.996,117.372,241.553,107.117,237.439,96.798z"/>
</g>
</svg>
