<?xml version="1.0" encoding="utf-8"?>
<!-- Generator: Adobe Illustrator 17.0.0, SVG Export Plug-In . SVG Version: 6.00 Build 0)  -->
<!DOCTYPE svg PUBLIC "-//W3C//DTD SVG 1.1//EN" "http://www.w3.org/Graphics/SVG/1.1/DTD/svg11.dtd">
<svg version="1.1" id="Layer_1" xmlns="http://www.w3.org/2000/svg" xmlns:xlink="http://www.w3.org/1999/xlink" x="0px" y="0px"
	 width="800px" height="600px" viewBox="0 0 800 600" enable-background="new 0 0 800 600" xml:space="preserve">
<path fill-rule="evenodd" clip-rule="evenodd" fill="#221E1F" d="M298.596,195.811c1.225-2.232,0.668-3.49-0.721-5.239
	c-3.362-4.247-6.725-8.502-10.088-12.755c14.725-6.996,39.201,1.213,55.029,3.334c0.61-2.397,1.216-4.792,1.826-7.192
	c-4.301-3.904-13.385-6.197-21.999-8.647c8.278,0.999,16.555,1.999,24.829,3.006c0.287-2.708,0.57-5.411,0.852-8.118
	c-18.128-5.48-35.561-8.106-52.964-9.707c-12.48-1.147-24.043,1.057-34.032,6.811c-9.617,5.534-18.943,11.538-28.343,17.436
	c-5.025,3.15-5.75,3.06-6.885,8.835c-0.34,1.733-0.684,3.458-1.024,5.186c-10.018,7.635-20.041,15.265-30.067,22.9
	c-4.109,3.133-5.551,3.694-2.969,9.052c3.416,7.11,12.439,16.089,18.701,18.591c4.633,1.851,6.099-1.085,9.007-4.112
	c7.164-7.459,14.229-15.008,21.491-22.372c3.518-3.568,7.081-4.264,11.698-1.012c3.752,2.646,7.746,4.923,11.747,7.175
	c5.218,2.937,6.369,4.235,12.222,3.31c1.684-0.267,3.367-0.533,5.051-0.799c10.964,16.527,27.008,27.028,41.704,40.361
	c15.581,14.143,27.016,30.117,40.766,43.756c1.335,1.319,3.978-0.479,5.342-1.762c7.097-6.644,14.077-13.598,19.615-21.598
	c0.926-1.351-0.172-3.649-1.434-4.714c-14.72-12.562-31.452-22.7-45.862-35.626c-11.095-9.949-20.172-21.954-30.399-32.795
	C307.414,204.593,302.958,200.246,298.596,195.811L298.596,195.811z M274.606,220.866c0.606-0.037,1.278-0.111,2.04-0.234
	c1.684-0.266,3.363-0.528,5.046-0.799l1.065-0.168l0.598,0.901c10.784,16.248,27.209,27.14,41.429,40.045
	c7.611,6.906,14.459,14.483,21.213,22.208c6.385,7.307,12.692,14.733,19.59,21.577c0.717,0.122,2.552-1.327,3.031-1.77
	c7-6.557,13.902-13.418,19.37-21.331c0.385-0.549-0.696-2.114-1.122-2.475c-14.753-12.583-31.452-22.687-45.91-35.655
	c-11.153-10.01-20.234-22.019-30.494-32.893c-4.264-4.522-8.711-8.856-13.07-13.283l-0.877-0.893l0.602-1.097
	c0.611-1.106,0.578-1.709,0.119-2.454l-22.368,20.61L274.606,220.866L274.606,220.866z M205.73,225.084
	c5.599,5.919,8.929,11.858,7.438,13.262c-1.486,1.409-7.229-2.252-12.824-8.171c-5.599-5.918-8.929-11.861-7.442-13.266
	C194.388,215.5,200.135,219.161,205.73,225.084L205.73,225.084z M271.854,211.875c-11.591-7.27-23.175-14.54-34.766-21.802
	c-2.212-3.056-4.428-6.103-6.644-9.155c-1.209,2.769-2.417,5.534-3.629,8.303c10.178,3.359,15.99,9.392,21.319,18.755
	c4.362-0.266,14.974,7.164,23.989,12.628C272.038,217.691,271.943,214.784,271.854,211.875L271.854,211.875z M278.804,167.008
	c5.53-5.005,12.005-8.069,19.464-8.716c12.12-1.044,24.846,0.242,36.936,1.335c3.604,0.331,7.213,0.651,10.822,0.934
	c1.069,0.078,0.966,1.421-0.102,1.34c-3.617-0.278-7.229-0.602-10.842-0.93c-12.001-1.085-24.669-2.376-36.695-1.339
	c-7.164,0.622-13.374,3.567-18.678,8.376C278.919,168.725,278.014,167.73,278.804,167.008L278.804,167.008z M294.086,166.362
	c18.431-1.798,31.03,0.357,48.938,7.475c-16.179-1.434-32.509-2.265-49.179-1.647C287.745,172.416,288.728,166.886,294.086,166.362
	L294.086,166.362z"/>
<path fill-rule="evenodd" clip-rule="evenodd" fill="#221E1F" d="M390.323,280.318c5.792,4.919,12.526,10.678,19.423,16.633
	l-3.76,3.272c-6.266-5.406-12.378-10.641-17.76-15.216c0.591-0.782,1.155-1.569,1.705-2.371
	C390.396,281.96,390.479,281.141,390.323,280.318L390.323,280.318z M426.31,311.311c9.986,8.724,18.98,16.683,24.387,21.667
	c15.18,14.004,28.295,30.142,43.326,44.305c9.543,8.991,20.193,16.72,30.285,25.08c5.169,4.272,6.996,5.222,7.43,12.193
	c0.23,3.792-0.483,7.307-2.31,10.653c-4.432,8.114-9.346,13.516-15.662,14.336c-7.102,0.922-9.847-3.035-14.368-7.553
	c-7.553-7.561-14.819-15.413-22.659-22.683c-18.497-17.166-37.846-33.397-56.319-50.596c-4.497-4.182-11.861-11.211-20.151-19.161
	l15.818-17.153c8.331,7.999,15.769,15.089,20.291,19.296c18.464,17.194,37.822,33.43,56.318,50.592
	c7.831,7.27,15.106,15.126,22.667,22.687c4.161,4.174,6.824,7.864,12.796,7.68c0.237-1.458,0.294-2.953,0.205-4.493
	c-0.435-6.98-2.269-7.925-7.43-12.193c-10.093-8.36-20.742-16.093-30.285-25.084c-15.032-14.163-28.147-30.301-43.326-44.305
	c-5.399-4.981-14.385-12.922-24.362-21.634L426.31,311.311L426.31,311.311z M381.546,321.514
	c-5.485-5.304-10.765-10.416-15.307-14.827c1.496-0.294,3.089-1.499,3.99-2.343c4.579-4.288,9.11-8.7,13.239-13.447
	c4.726,4.583,10.149,9.838,15.736,15.241L381.546,321.514L381.546,321.514z"/>
<path fill-rule="evenodd" clip-rule="evenodd" fill="#221E1F" d="M517.681,195.811c-1.229-2.232-0.664-3.49,0.721-5.239
	c3.367-4.247,6.726-8.502,10.092-12.755c-14.737-6.996-39.206,1.213-55.032,3.334c-0.606-2.397-1.221-4.792-1.835-7.192
	c4.309-3.904,13.402-6.197,22.011-8.647c-8.282,0.999-16.555,1.999-24.837,3.006c-0.287-2.708-0.565-5.411-0.852-8.118
	c18.121-5.48,35.561-8.106,52.968-9.707c12.476-1.147,24.034,1.057,34.028,6.811c9.617,5.534,18.948,11.538,28.352,17.436
	c5.014,3.15,5.743,3.06,6.881,8.835c0.336,1.733,0.68,3.458,1.024,5.186c10.018,7.635,20.046,15.265,30.064,22.9
	c4.112,3.133,5.554,3.694,2.974,9.052c-3.416,7.11-12.443,16.089-18.702,18.591c-4.636,1.851-6.103-1.085-9.011-4.112
	c-7.159-7.459-14.229-15.008-21.488-22.372c-3.522-3.568-7.094-4.264-11.698-1.012c-3.752,2.646-7.741,4.923-11.747,7.175
	c-5.21,2.937-6.365,4.235-12.222,3.31c-1.688-0.267-3.367-0.533-5.054-0.799c-10.961,16.527-27.009,27.028-41.696,40.361
	c-15.589,14.147-27.025,30.117-40.779,43.756c-1.327,1.319-3.973-0.479-5.332-1.762c-7.102-6.644-14.082-13.598-19.611-21.598
	c-0.934-1.351,0.172-3.649,1.425-4.714c14.721-12.562,31.456-22.7,45.874-35.626c11.091-9.949,20.168-21.954,30.391-32.795
	C508.858,204.593,513.314,200.246,517.681,195.811L517.681,195.811z M541.674,220.866c-0.614-0.034-1.278-0.111-2.04-0.234
	c-1.687-0.266-3.366-0.528-5.054-0.799l-1.065-0.168l-0.591,0.901c-10.788,16.248-27.213,27.14-41.434,40.045
	c-7.61,6.906-14.458,14.483-21.217,22.208c-6.382,7.307-12.689,14.733-19.587,21.577c-0.721,0.122-2.556-1.327-3.022-1.77
	c-7.004-6.557-13.91-13.418-19.382-21.331c-0.377-0.549,0.705-2.114,1.122-2.475c14.762-12.583,31.456-22.687,45.907-35.651
	c11.165-10.014,20.242-22.024,30.506-32.898c4.26-4.522,8.7-8.856,13.057-13.283l0.877-0.893L519.154,195
	c-0.606-1.106-0.565-1.709-0.114-2.454l22.372,20.61L541.674,220.866L541.674,220.866z M610.55,225.08
	c-5.603,5.923-8.929,11.862-7.446,13.266c1.483,1.409,7.234-2.252,12.828-8.171c5.603-5.918,8.929-11.861,7.439-13.266
	C621.879,215.5,616.138,219.161,610.55,225.08L610.55,225.08z M544.426,211.875c11.583-7.27,23.174-14.54,34.766-21.802
	c2.211-3.056,4.423-6.103,6.635-9.155c1.212,2.769,2.424,5.534,3.637,8.303c-10.191,3.359-15.991,9.392-21.323,18.755
	c-4.366-0.266-14.983,7.164-23.994,12.628C544.238,217.691,544.336,214.784,544.426,211.875L544.426,211.875z M537.471,167.008
	c-5.529-5.005-12-8.069-19.472-8.711c-12.107-1.049-24.837,0.237-36.92,1.331c-3.613,0.331-7.217,0.651-10.829,0.934
	c-1.065,0.078-0.967,1.421,0.098,1.34c3.62-0.278,7.233-0.602,10.845-0.93c12.01-1.085,24.666-2.376,36.692-1.339
	c7.168,0.622,13.377,3.567,18.685,8.376C537.357,168.729,538.258,167.73,537.471,167.008L537.471,167.008z M522.186,166.362
	c-18.423-1.798-31.023,0.357-48.938,7.475c16.187-1.434,32.513-2.265,49.184-1.647C528.534,172.416,527.551,166.886,522.186,166.362
	L522.186,166.362z"/>
<path fill-rule="evenodd" clip-rule="evenodd" fill="#221E1F" d="M425.949,280.321c-19.095,16.216-48.45,41.668-60.369,52.657
	c-15.183,14.004-28.294,30.138-43.326,44.305c-9.543,8.991-20.192,16.72-30.289,25.08c-5.161,4.272-6.992,5.222-7.422,12.193
	c-0.233,3.792,0.475,7.307,2.302,10.653c4.436,8.114,9.347,13.516,15.663,14.336c7.107,0.922,9.85-3.035,14.364-7.553
	c7.557-7.561,14.831-15.413,22.666-22.683c18.497-17.166,37.85-33.397,56.315-50.596c10.641-9.904,37.404-35.733,54.18-52.031
	c-1.491-0.29-3.08-1.495-3.981-2.339c-4.588-4.288-9.109-8.7-13.246-13.447c-16.826,16.338-42.532,41.135-52.906,50.797
	c-18.464,17.194-37.817,33.43-56.319,50.592c-7.831,7.27-15.106,15.126-22.663,22.687c-4.169,4.174-6.827,7.864-12.807,7.68
	c-0.23-1.458-0.287-2.953-0.193-4.493c0.43-6.98,2.257-7.925,7.418-12.193c10.1-8.36,20.754-16.093,30.293-25.084
	c15.032-14.163,28.143-30.301,43.327-44.305c11.656-10.748,39.996-35.327,59.091-51.572c-0.574-0.782-1.147-1.569-1.704-2.371
	C425.875,281.96,425.794,281.141,425.949,280.321L425.949,280.321z"/>
</svg>
