<?xml version="1.0" encoding="utf-8"?>
<!-- Generator: Adobe Illustrator 17.0.0, SVG Export Plug-In . SVG Version: 6.00 Build 0)  -->
<!DOCTYPE svg PUBLIC "-//W3C//DTD SVG 1.1//EN" "http://www.w3.org/Graphics/SVG/1.1/DTD/svg11.dtd">
<svg version="1.1" id="Layer_1" xmlns="http://www.w3.org/2000/svg" xmlns:xlink="http://www.w3.org/1999/xlink" x="0px" y="0px"
	 width="800px" height="600px" viewBox="0 0 800 600" enable-background="new 0 0 800 600" xml:space="preserve">
<g>
	<linearGradient id="SVGID_1_" gradientUnits="userSpaceOnUse" x1="383.184" y1="496.424" x2="383.184" y2="391.4443">
		<stop  offset="0.0495" style="stop-color:#25A7FA"/>
		<stop  offset="0.501" style="stop-color:#00398F"/>
	</linearGradient>
	<path fill="url(#SVGID_1_)" d="M439.183,420.553c-0.377,0.171-3.454,2.022-2.143,5.153c-0.637,0.769-1.387,1.336-2.68,1.124
		c-15.501-3.286-41.848-8.317-42.321-9.415c-1.18-2.739,31.238-23.906,31.238-23.906l-8.09-2.065c0,0-31.679,18.746-40.778,22.62
		c-1.844,0.786-20.654-0.758-30.406-3.032c-0.327-0.077-1.14-1.799-1.14-1.799c2.544-7.741-5.667-12.055-10.117-8.527
		c-2.765,2.19-2.594,5.463-2.187,7.579c0,0-1.277,0.891,0,3.188c0.349,0.788,1.726,1.374,3.717,1.737
		c1.48,0.269,2.928,3.758,3.472,4.141c2.547,1.824,25.792,6.445,26.425,7.709c0.633,1.263-17.993,9.898-34.69,11.373
		c0.633-4.297-0.724-8.724-3.875-8.656c-1.766,0.033-2.479,1.069-2.555,1.831l-0.792,0.363c-0.301-0.932-2.846-1.678-4.197-0.545
		c-2.472,2.065-2.01,7.476,0.289,10.703c0.707,0.996,2.262,0.738,2.262,0.738s0.782,2.91,2.209,3.297
		c7.532,1.862,25.299,0.737,47.148-8.361l-0.274,26.239c0,2.335,1.506,1.64,1.572,3.6l0.004,30.783h12.839v-30.918
		c0.063-1.725,1.365-1.635,1.365-3.505l0.022-2.27c0,0,0.092,0.799,3.117-2.534c0.525-0.671,3.783-1.554,3.991-4.904
		c0.252-4.042-0.317-4.675-1.515-6.129c-0.597-0.723-2.032-16.209-2.032-16.209c9.602,0.506,34.272,4.63,49.82,5.621
		c1.92,0.122,3.336-2.764,5.567-5.419c4.952-0.547,6.001-4.904,5.33-7.244c-0.196-0.681-0.758,0.441-1.326-1.263
		C448.451,421.649,441.413,419.541,439.183,420.553z"/>
	<linearGradient id="SVGID_2_" gradientUnits="userSpaceOnUse" x1="460.9208" y1="496.424" x2="460.9208" y2="428.6273">
		<stop  offset="0.0495" style="stop-color:#25A7FA"/>
		<stop  offset="0.2407" style="stop-color:#1986DA"/>
		<stop  offset="0.547" style="stop-color:#0756AC"/>
		<stop  offset="0.6994" style="stop-color:#00439A"/>
	</linearGradient>
	<path fill="url(#SVGID_2_)" d="M433.521,441.867c2.05-0.982,8.553-4.782,8.942-4.454c0.39,0.33,1.285,1.126,1.791,1.213
		c0.504,0.082,7.617-5.694,9.656-6.459c4.589-1.721,10.591-2.762,14.834-3.197c9.589-0.984,13.417,0.399,14.917,1.066
		c1.474,0.656,3.809,1.662,4.456,2.544c0.348,0.474,0.229,2.081-0.19,2.337c-1.476,0.902,0.985,2.401-2.65,4.297
		c-3.636,1.895-21.013,9.287-26.45,16.967c3.445-1.477,5.412-1.694,5.984,0.684c0.575,2.377,4.607,18.717,8.114,27.18
		c1.322,3.191,1.702,7.235,3.609,12.378l-35.227-0.003c-1.119-2.617-6.74-15.224-6.74-15.839L433.521,441.867z"/>
	<linearGradient id="SVGID_3_" gradientUnits="userSpaceOnUse" x1="424.8579" y1="496.424" x2="424.8579" y2="455.297">
		<stop  offset="0.0495" style="stop-color:#25A7FA"/>
		<stop  offset="0.3292" style="stop-color:#1986DA"/>
		<stop  offset="0.7771" style="stop-color:#0756AC"/>
		<stop  offset="1" style="stop-color:#00439A"/>
	</linearGradient>
	<path fill="url(#SVGID_3_)" d="M436.446,496.424h-34.249c-0.456-1.373-1.732-8.791-1.761-9.778
		c-0.041-1.48-1.256-3.536-1.217-5.049c0,0-0.803-3.161-0.432-5.396c0.101-0.615,4.079-4.82,5.194-5.274l2.473,0.762
		c2.781-3.202,2.68-5.938,3.835-7.491c1.152-1.555,3.586-3.686,4.782-4.316c5.36-2.818,15.709-4.864,19.129-4.555
		c5.588,0.504,16.904,4.874,16.823,7.036c-0.056,1.509-0.521,2.391-0.989,2.557c-2.064,0.718,0.089,2.59-1.805,3.705
		c-7.028,4.145-18.247,17.551-17.836,20.913c6.391,1.681,5.975,2.043,6.033,3.772L436.446,496.424z"/>
	<path d="M487.43,429.33c-1.476-0.9,1.27-2.602-5.819-4.897c-3.79-1.226-18.113-5.429-22.785-14.69
		c3.445,1.474,5.329,2.787,5.901,0.408c0.574-2.376,7.54-26.308,8.196-28.275c0.656-1.966,8.851-30.817,10-34.094
		c1.147-3.28,7.21-26.883,6.393-30.816c-0.819-3.934-3.275-8.597-7.214-10.327c-5.408-2.377-11.637-4.835-16.146-6.064
		c-4.507-1.23-16.392-5.901-39.093-13.81c0,0,7.131-7.5,10.941-10.944c2.614-2.359,1.824-8.353,0.369-11.678
		c-1.721-3.934-3.689-3.687-5.163-3.811c-0.481-0.04-0.985-0.042-2.875-0.221c-0.87-0.078-1.188-1.266-2.772-1.346
		c-1.581-0.078-4.509-0.156-7.41-0.179c4.498-2.496,19.484-12.334,25.417-16.994c2.672-2.101,0.123-11.63-1.187-14.007
		c-1.311-2.377-7.077-7.002-7.077-7.002s-12.034,6.407-15.039,8.277c-3.749,2.336-9.547,3.608-11.349,4.263
		c-3.689-4.796-9.098-21.556-10.082-24.998c-0.984-3.442-7.72-17.258-8.997-19.22c-2.15-3.75-15.059-4.734-33.683-12.785
		c0,0,2.957-0.351,3.504-0.636c0.984-0.471,1.528-1.555,1.558-2.294c0.041-1.006,0.163-2.48,0.492-3.013
		c0.327-0.532,1.269-2.376,1.435-3.319c0.162-0.943,1.378-4.512,1.762-9.302c0.204-2.561-0.083-5.04,0.019-5.737
		c0.103-0.697,1.188-2.854,1.291-4.076c0.144-1.681-1.044-1.847-1.515-6.866c-0.097-1.033,1.68-0.859,0.819-3.564
		c-0.86-2.706-1.926-6.189-2.499-7.13c-1.503-2.468-4.345-5.738-6.392-6.803c-2.05-1.065-11.558-7.048-16.475-2.705
		c-3.771-1.721-5.326-1.64-9.097,0.573c-3.771,2.214-7.13,5.738-8.113,9.508c-0.984,3.771-1.974,6.699-1.476,10.49
		c0.655,5,2.131,7.542,2.97,13.484c0.438,3.108,2.209,4.555,3.339,6.349c1.045,1.661,3.005,1.743,3.73,3.361
		c1.044,2.336,1.241,4.397,1.487,5.135c0,0-1.493,0.312-2.087,1.104c-0.503,0.669-3.382,4.067-4.564,5.039
		c-3.317,2.736-10.815,6.788-25.076,12.197c-2.161,0.819-5.026,6.17-5.086,7.892c-0.062,1.72-0.036,18.15,1.028,27.394
		c1.566,13.639,3.465,26.461,8.103,40.95c1.933,6.036,1.484,12.53,5.747,16.257c-2.418,1.926-2.214,5.41-0.329,8.114
		c1.887,2.706,7.703,10.409,8.687,12.54c0.984,2.131,3.853,8.524,4.1,9.753c-2.542,2.214-3.279,4.427-2.295,6.392
		c0.984,1.968,2.295,6.066,3.114,7.296c0.819,1.229,0.574,0,1.065,0.574c0,0.818,1.241,5.146,3.198,6.884
		c2.213,1.966,5.167,3.43,9.26,3.687c2.622,0.164,5.777-0.214,7.13-0.573c0.615-0.164,0.697-1.558,0.574-2.542
		c2.294-0.327,1.721-0.41,3.279-0.573c2.376,0.573,9.875,2.213,10.778,2.458c-1.067,0.615-5,3.32-6.026,3.771
		c-1.023,0.451-2.783,0.614-4.138,0.943c-3.114,0.755-8.893,3.156-9.587,3.85c-0.699,0.697-0.985,2.624,1.474,3.976
		c2.457,1.352,3.687,0.449,5.367-0.614c1.68-1.066,2.542-1.599,3.69-2.91c1.147-1.311,2.787-3.073,3.442-3.565
		c0.655-0.492,7.621-4.426,8.031-4.672c1.026,0.303,5.582,1.935,8.895,2.891c0.045,5.726,0.162,19.621,0.162,19.621
		c0,2.773-1.687,1.757-1.687,3.254c0,0.963,0,23.121,0,23.121c0.059,1.444-18.395-4.896-31.676-1.451
		c-2.458,0.639-3.16,5.93-3.52,7.621c-7.302,1.544-5.584,8.268-4.716,8.288c0,0,0.414,0.358,0.558,0.5
		c0.125,1.192,0.97,1.995,2.062,2.473c-6.093,2.905-11.589,5.819-14.784,7.832c-2.042,1.052-3.791,10.788-3.49,11.878
		c-0.688,1.287-0.426,4.294-0.11,5.488c0.617,2.305,2.655,3.379,3.848,3.44c1.189,0.06,2.266-0.544,2.92-1.455l1.999-0.175
		c0.6,0.508,1.045,0.73,2.612,0.191c2.059-1.951,1.087-6.384,0.677-7.251c-0.836-1.779-2.479-2.666-3.569-3.058
		c0.052-0.884,0.092-1.669,0.14-2.083c0.384-0.197,35.786-18.365,49.671-11.744c1.892,0.904,6.465,24.091,6.791,25.712
		c0.284,1.402,0.969,3.531,1.022,5.318c-3.963,4.903-1.525,11.314-0.599,12.043c1.81,1.427,3.565,0.307,3.81-0.192l2.638-0.141
		c0.227,0.377,0.767,0.76,1.496,0.847c0.78,0.093,1.815,0.211,2.775-1.04c3.15-4.12,0.669-10.483-0.64-11.219
		c-0.617-1.236-0.196-3.443-0.708-6.23c-0.173-0.825-2.436-16.198-3.391-24.677c-0.275-2.451,3.561-4.013,5.896-3.58
		c3.099,0.575,6.863,1.252,10.875,1.992c0,0.005,0,0.014,0,0.018c-0.123,2.213-0.615,7.91,0.123,9.263
		c0.737,1.351-1.557,9.753-0.861,12.088c-0.41,0.41-1.517,4.098-1.557,5.573c-0.042,1.477-1.251,3.404-1.21,4.919
		c0,0-0.799,3.073-0.43,5.347c0.101,0.627,4.057,5.267,5.163,5.84c1.107,0.574,1.028-2.303,2.459-0.492
		c2.765,3.505,2.662,6.229,3.809,7.909c1.15,1.68,3.565,4.076,4.756,4.837c5.326,3.401,15.613,6.576,19.014,6.638
		c5.553,0.101,16.801-3.032,16.719-5.205c-0.056-1.514-0.519-2.448-0.984-2.664c-2.048-0.943,0.075-2.029-3.689-5.041
		c-11.474-9.179-17.375-19.628-16.964-22.947c6.351-0.985,5.736-1.558,7.129-1.885c2.048,0.982,3.034,1.64,4.18,1.885
		c1.147,0.245,0.554-4.53,4.57-2.151c4.015,2.376,6.014,5.648,8.053,6.414c4.589,1.719,10.591,2.759,14.834,3.195
		c9.589,0.982,13.417-0.399,14.917-1.066c1.474-0.655,4.182-3.197,4.426-4.263C488.331,430.559,487.85,429.586,487.43,429.33z
		 M333.326,307.383c0,0-1.041,0.443-2.806,0.813c-2.868-9.323-7.62-16.731-9.63-19.28c-1.596-2.028-1.351-5.534,4.12-4.119
		c2.458,3.075,5.592,9.405,6.167,11.186c0.299,0.928,2.376,8.279,2.746,9.139C333.854,305.878,333.606,306.682,333.326,307.383z
		 M341.254,398.086c0.003-0.022,0.008-0.047,0.008-0.063c0-0.541,2.17-1.377,2.291-2.521c0.119-1.143-0.485-5.456,0.902-5.818
		c1.385-0.363,6.31,0,13.194,2.294C353.256,393.142,347.292,395.444,341.254,398.086z M443.665,330.324
		c3.524-0.574,5.082-0.819,5.409,0.247c0.327,1.066,1.228,2.868,1.639,3.606c0.41,0.736-0.984,6.392-0.984,8.114
		c0,1.72-3.032,6.554-3.605,8.605c-0.574,2.048-2.705,7.785-2.051,10c0.656,2.213-1.392,6.063-1.147,7.456
		c0.247,1.394-5.245,9.179-5.245,9.917c-0.411-5.737-1.311-9.509-1.066-10.737c0.248-1.229,3.035-17.621,2.869-19.996
		c-0.164-2.379,0.411-12.458-1.557-14.425c-1.968-1.967-2.295-2.869-3.114-3.524C434.813,329.587,440.141,330.897,443.665,330.324z
		 M426.891,265.653c0.949,0,1.584-0.829,1.9-0.79c0,0,1.418,0.167,1.802,0.304c2.07,0.75,2.772,5.014,2.58,6.232
		c-0.408,2.621-9.997,10.653-10.655,10.898c-5.041-7.287-5.012-10.504-6.471-17.119C416.047,265.178,420.63,265.653,426.891,265.653
		z M386.099,384.367l-0.004-23.338c0-1.025-1.202-1.025-1.324-2.895c-0.086-1.335-0.234-12.511-0.31-18.761
		c2.135-0.008,4.161-0.174,5.521-0.647c0.922,1.145,2.52,2.99,3.073,3.236c0.554,0.245,4.207,6.751,4.671,7.683
		c0.985,1.969,4.796,2.89,5.656,2.645c-2.581,2.026-2.447,4.556-2.275,6.332c0.184,1.905,0.307,6.023,0.245,7.315
		c-0.062,1.289-1.373,3.974-0.492,7.805c0.307,1.34,1.436,5.908,1.122,7.938C399.472,381.564,389.878,383.068,386.099,384.367z"/>
	<path fill="#FFFFFF" d="M354.637,184.42c-11.016-2.607-15.456-11.141-20.003-15.631c0,0-0.406-0.115-0.506,0.134
		c-0.232,0.569-0.282,1.692-0.282,1.692c2.048,5.142,15.568,19.151,18.762,26.938c1.992,4.846,16.556,41.471,17.828,45.815
		c1.269,4.343,5.035,28.483,5.527,32.911l3.382-0.614c0.845-0.282,0.837-1.298,1.603-1.425c1.476-0.245,4.944-0.952,6.173-1.385
		c1.196-0.418,1.566,0.84,2.247,0.817c3.937-0.134,8.339-2.398,9.221-3.994c-8.381-27.86-8.634-36.454-12.263-44.889
		c-4.123-9.575-7.547-14.287-11.312-22.442c-7.64-16.549-12.942-19.162-16.652-26.283c-0.286,0.027-0.843,0.075-1.48,0.119
		c0.197,1.347,0.085,5.498-1.228,8.113C355.592,184.432,354.796,184.456,354.637,184.42z"/>
	<path fill="#FFFFFF" d="M361.092,270.966c0,0-0.969-0.554-1.933-1.217c-5.105-3.516-9.232,5.703-11.529,13.695
		c-0.614-5.101,0.562-8.516,1.537-10.881c1.598-3.872,6.207-5.962,7.439-5.47C360.866,269.551,361.092,270.966,361.092,270.966z"/>
	<path fill="#FFFFFF" d="M414.323,225.419c6.047-9.604,12.657-19.454,16.964-27.291c10.587-19.257,14.705-31.893,15.491-35.038
		c6.517-0.369,11.679,1.352,21.021-1.476c-1.72,6.395-9.957,32.087-14.875,45.856c-1.192,3.342-10.512,17.027-12.323,19.085
		C430.552,225.583,425.141,227.548,414.323,225.419z"/>
	<path d="M386.718,261.185c-7.372-24.58-9.583-33.553-15.114-49.166c-2.41-6.798-3.728-9.057-4.427-9.527
		c-5.648-3.821-5.901-7.028-6.678-8.791c-0.278-0.628,0.204-3.523,0.204-3.523s2.523-1.457,5.431-0.882
		c-3.172-1.243-4.894-4.241-10.453-5.067c-0.011,0.021-1.132,0.166-1.177,0.156c-2.702,0.848-3.62,4.722-5.945,6.338
		c0.351,0.507,0.725,1.072,1.048,1.562c0.685-0.218,1.394-0.308,2.286-0.428c0,0,1.455,1.228,3.236,2.827
		c0.981,0.88,4.242,5.082,1.784,11.066c-0.2,0.482,0.211,2.266,1,5.071c4.871,13.262,11.629,29.666,12.471,32.547
		c1,3.419,3.284,18.191,4.627,26.717c4.79,4.185,6.586,4.557,7.295,3.556C384.305,271.049,387.313,263.167,386.718,261.185z"/>
	<path d="M450.561,203.075c0.19-0.437,1.995-1.998,2.794-2.244c0.802-0.247,3.443-0.093,4.059,0
		c0.615,0.092,1.843,1.906,1.474,2.673c-0.369,0.769-2.213,2.52-2.61,2.953c1.689,0.889,1.167,1.474,1.995,2.088
		c0.832,0.615,1.078,2.368,0.585,3.32c-0.492,0.952,0.737,1.413,1.167,2.151c0.432,0.737,0,1.783-0.584,2.335
		c-0.584,0.555,0.154,1.23,0.491,1.936c0.34,0.708-0.245,2.214-0.951,2.89c-0.708,0.677-4.302,3.75-5.009,4.304
		c-0.708,0.552-4.075,3.051-5.089,3.113c-1.015,0.062-6.107,4.449-6.57,4.816c-0.84,0.667-2.284-5.778-2.132-6.515
		c0.862-0.799,3.956-5.327,3.956-5.327c0.044-0.451,0.392-0.771,0.739-0.943c-1.199,0.214-2.154-1.976-0.739-2.952
		c0.891-0.614,1.721-1.198,2.765-1.691c0.31-0.145,0.873-0.389,1.517-0.67c0,0,2.875-4.415,2.705-4.364
		c-1.089,0.321-3.316,0.925-4.005,0.977c-0.799,0.062-1.659-0.182-1.906-1.321c-0.247-1.137,0.155-1.689,1.107-2.059
		c0.952-0.369,3.105-1.259,4.179-1.413c0.788-0.114,1.937-0.473,2.787-0.658l0.406-1.192c-0.356,0.063-0.515,0.342-1.226,0.342
		C451.48,205.625,449.729,204.95,450.561,203.075z"/>
	<path fill="#FFFFFF" d="M444.004,231.461c0,0,1.562-0.656,2.057-1.088c0,0,0.299,2.018,0.101,4.056
		c-0.111,1.155,0.315,1.643-2.891,3.049c-3.798-6.303-3.798-11.023-3.798-11.023l1.03,0.06l1.378-1.744
		C441.375,226.909,442.769,230.642,444.004,231.461z"/>
	<path fill="#0092FF" d="M378.811,295.493c-0.153,0.94-2.505,2.75-3.335,1.291c-0.103-0.181-0.153-0.63-0.308-1.167
		c-0.114-0.396-1.347-1.909-1.348-1.925c-1.069-1.148-1.192-1.683-1.602-2.266c-0.408-0.586-1.537-2.634-2.069-3.575
		c0.107,0.7,1.466,6.935,1.352,8.053c-0.067,0.644,1.147,9.384,2.275,9.295c1.129-0.091,0.756-8.146,0.47-9.05
		c-0.174-0.552-0.31-1.363-0.407-2.292c0.226,0.371,1.154,1.387,1.291,1.865c0.155,0.541,0.206,0.993,0.31,1.177
		c0.836,1.472,3.206-0.355,3.36-1.302c0.041-0.248,0.127-0.53,0.156-0.853C378.919,295.023,378.845,295.271,378.811,295.493z"/>
	<path fill="#0092FF" d="M380.994,288.319c-2.298-0.885-4.857-2.824-5.26-3.258c-0.403-0.434-1.894-1.49-2.328-2.11
		c-0.343-0.489-0.896-2.128-1.115-2.797c0,0,0.586-5.716-2.04-9.924c-0.207-0.333-0.134-0.649-0.159-0.758
		c-0.036-0.185-0.536-0.51-0.578-0.758c-0.245-1.436-0.574-2.605-1.234-2.52c-0.663,0.081-0.437,1.658-0.406,2.685
		c0.005,0.211-0.342,0.606-0.325,0.739c0,0,0.305,2.844,0.511,6.203c0,0-2.499-1.552-2.808-1.846
		c-0.437-0.417-2.228-2.227-2.791-2.395c-0.562-0.164-2.002-0.93-2.002-0.93s0.351,0.248,0.397,0.311
		c0.047,0.066,1.1,0.563,1.566,0.702c0.555,0.166,2.318,1.947,2.749,2.357c0.356,0.341,2.432,1.577,3.393,2.22l2.347,1.935
		c-0.358-2.179-0.489-4.871-0.333-5.445c0.385,0.371,1.328,4.619,1.248,6.937l0.43,0.449c0.193,0.574,0.771,2.357,1.129,2.869
		c0.432,0.614,1.906,1.658,2.306,2.088c0.4,0.432,2.935,2.353,5.209,3.228c1.544,0.595,1.267,2.576-1.299,3.101
		C382.245,290.979,382.556,288.92,380.994,288.319z"/>
</g>
</svg>
