<?xml version="1.0" encoding="utf-8"?>
<!-- Generator: Adobe Illustrator 17.0.0, SVG Export Plug-In . SVG Version: 6.00 Build 0)  -->
<!DOCTYPE svg PUBLIC "-//W3C//DTD SVG 1.1//EN" "http://www.w3.org/Graphics/SVG/1.1/DTD/svg11.dtd">
<svg version="1.1" id="Layer_1" xmlns="http://www.w3.org/2000/svg" xmlns:xlink="http://www.w3.org/1999/xlink" x="0px" y="0px"
	 width="355px" height="402px" viewBox="0 0 355 402" enable-background="new 0 0 355 402" xml:space="preserve">
<g>
	<g>
		<path fill="#0B090A" d="M208.513,356.374c-0.669-1.712-2.147-2.735-3.188-4.218c-1.298-1.857-0.853-3.612-0.559-5.7
			c0.346-2.466,0.528-5.078-0.139-7.554c-0.537-2.009-1.183-4.783-3.52-5.169c-0.723-0.12-1.541-0.246-2.363-0.292
			c-0.45-0.882-1.016-1.72-1.73-2.507c-1.131-1.249-3.888-3.167-5.267-1.79c-1.105,1.099-1.92,2.781-2.564,4.405
			c-3.374,1.237-5.46,5.059-5.695,8.576c-0.151,2.275,0.068,4.395,0.391,6.599c0.158,1.084,0.323,2.143,0.448,3.183
			c0.118,0.971,0,2.248,0.311,3.183c0.254,0.759,1.119,1.309,2.066,1.792c0.035,0.076,0.064,0.152,0.101,0.226
			c0.403,0.861,1.242,1.582,1.47,2.484c0.269,1.047-0.401,2.27,0.205,3.258c0.37,0.593,1.419,1.31,1.963,1.813
			c1.628,1.501,3.796,1.126,5.797,0.833c2.137-0.313,4.277-0.684,6.4-1.183c2.097-0.488,4.357-0.893,5.905-2.618
			C209.974,360.108,209.216,358.175,208.513,356.374z"/>
		<path fill="#0B090A" d="M161.238,336.567c-0.936-0.743-2.307-1.137-3.466-1.153c-1.378-0.018-2.166,1.043-3.353,1.12l-2.618,1.118
			c-0.047-0.094-0.097-0.188-0.146-0.28c-1.788-3.333-5.21-1.761-7.642,0.299c-1.155,0.982-2.238,2.133-3.254,3.364
			c-0.921-0.847-1.923-1.429-2.726-1.182c-1.991,0.616-2.75,3.616-3.57,5.203c-1.027,1.986-2.203,3.134-4.091,4.303
			c-3.556,2.201-6.242,4.955-9.397,7.686c-1.576,1.363-3.162,3.024-4.963,4.122c-0.834,0.508-1.713,0.824-2.554,1.329
			c-1.06,0.638-1.47,0.905-0.665,1.822c1.308,1.488,3.876,1.924,5.702,2.41c1.942,0.516,4.117,1.125,6.145,1.254
			c0.624,0.04,1.249-0.008,1.862-0.118c0.662-0.066,1.315-0.2,1.885-0.333c1.899-0.439,3.713-1.447,5.589-2.237
			c1.777-0.751,3.643-1.477,5.174-2.657c1.675-1.288,2.041-3.365,3.28-4.973c1.272-1.644,3.094-2.434,4.833-3.269
			c0.382,0.223,0.745,0.476,1.105,0.763c1.023,0.815,1.503,0.848,2.835,0.663c1.767-0.242,4.751-0.591,6.143-1.852
			c1.169-1.052,1.715-3.638,2.557-5.129c1.131-2.008,2.337-4.048,2.653-6.268C162.829,340.64,162.958,337.939,161.238,336.567z"/>
		<path fill="#100D11" d="M232.798,206.611c-0.054-1.182-0.297-2.262-0.617-3.392c-0.603-2.108-1.03-4.315-2.085-6.266
			c-0.372-0.696-0.834-1.301-1.357-1.858c0.417-3.883,0.332-7.812,0.332-11.981c0-4.082-0.266-14.039-4.164-16.338
			c-1.956-1.155-6.767-0.483-9.124-0.371c-4.421,0.211-8.78,1.201-13.207,1.434c-8.224,0.432-16.652,0.523-24.77,0.085
			c-4.934-0.264-13.12-0.833-15.943,3.419c-2.639,3.963-3.98,9.031-4.689,13.716c-0.146,0.476-0.266,0.951-0.382,1.35
			c-0.893,3.005-1.23,6.188-1.923,9.257c-1.522,6.699-2.13,13.797-2.13,20.654c0,2.246,0.389,4.751-0.002,6.849
			c-0.377,2.041-0.867,4.012-1.117,6.152c-0.127,1.057-0.422,2.164-0.415,3.214c0,1.135,0.563,1.82,0.313,2.83
			c-0.29,1.169-0.594,1.919-0.594,3.182c0,1.148,0.221,2.182,0.28,3.214c0.061,1.097-0.365,2.086-0.419,3.214
			c-0.064,1.205,0,2.433,0,3.638c0,2.347-0.002,4.689,0.172,6.987c0.087,1.204-0.071,1.992-0.422,3.106
			c-0.16,0.514-0.257,0.947-0.306,1.507c-0.045,0.569,0.174,1.169,0.153,1.677c-0.052,0.912-0.773,1.99-0.966,2.937
			c-0.226,1.119-0.346,2.126-0.2,3.245c0.108,0.837,0.144,1.631,0.139,2.41c-0.174,0.309-0.36,0.614-0.563,0.91
			c-2.5,3.686-3.615,7.65-3.888,12.023c-0.283,4.604-1.221,8.726-1.499,13.28c-0.297,4.942-1.044,9.852-1.708,14.678
			c-0.523,3.791-1.023,7.577-1.803,11.302c-0.172,0.709-0.363,1.41-0.603,2.112c-0.669,1.97-1.671,3.7-2.585,5.486
			c-2.052,3.982-2.71,7.717-2.698,12.27c0.007,2.429-0.431,4.286,1.402,5.974c0.702,0.65,1.35,1.212,2.201,1.607
			c0.789,0.368,2.109,0.45,2.293,1.479c1.661,0.12,3.122-0.023,4.729,0.172c1.03,0.125,2.078,0.543,3.07,0.554
			c1.159,0.017,2.333-0.188,3.502-0.275c1.994-0.144,4.463-0.448,6.315-1.092c1.723-0.594,3.525-2.541,4.446-4.086
			c1.197-2.017,1.956-4.405,2.234-6.71c0.276-2.249,0.08-4.333,1.013-6.431c1.025-2.302,2.092-4.273,2.905-6.717
			c1.55-4.695,1.355-9.867,2.241-14.664c0.895-4.853,1.357-9.585,1.798-14.552c0.007-0.023,0.007-0.047,0.012-0.072
			c0.792-3.076,1.258-6.247,2.203-9.145c0.358-1.08,0.217-2.109,0.483-3.214c0.262-1.096,1.115-2.171,1.543-3.22
			c0.851-2.106,1.105-4.514,1.369-6.696c0.547-4.507,2.019-9.027,3.172-13.429c1.145-4.364,2.446-8.512,3.537-12.861
			c0.516-2.075,1.081-4.193,1.673-6.28c0.591-2.074,1.68-3.895,2.545-5.877c1.237-2.835,2.142-5.654,3.332-8.445
			c-0.021,0.384-0.045,0.771-0.071,1.162c-0.08,1.457-0.636,2.882-0.933,4.294c-0.318,1.54-0.021,3.169-0.021,4.724
			c0,3.153-0.507,6.165,0.476,9.119c0.452,1.365,0.978,2.611,1.452,3.96c0.339,0.979,0.476,1.905,0.514,2.858
			c-0.262,0.767-0.591,1.507-0.917,2.196c-0.665,1.422-1.041,2.776-1.025,4.372c0.005,0.728,0.188,1.728,0.573,2.346
			c0.339,0.549,0.851,0.833,1.039,1.447c0.224,0.716,0.141,1.577,0.266,2.297c0.125,0.705,0.526,1.442,0.474,2.164
			c-0.104,1.513-1.666,2.13-2.3,3.321c-0.646,1.2,0.549,3.064,0.782,4.274c0.306,1.61-0.65,3.078-1.258,4.555
			c-0.573,1.394-0.806,2.919-0.834,4.463c-0.007,0.808-0.052,1.568-0.092,2.375c-0.04,0.812-0.41,1.56-0.358,2.373
			c0.054,0.851,0.118,1.417-0.043,2.276c-0.134,0.734-0.229,1.421-0.266,2.186c-0.076,1.641,0.097,3.298,0,4.937
			c-0.094,1.618-0.299,3.236-0.542,4.857c-0.25,0.647-0.523,1.291-0.808,1.958c-0.745,1.718-1.308,3.378-1.779,5.146
			c-0.606,2.283-1.409,4.612-1.81,6.931c-0.537,3.086-0.99,6.128-1.798,9.118c-0.306,1.138-0.634,2.315-0.768,3.512
			c-0.716,2.876-0.217,6.181,0.106,9.105c0.174,1.564,0.462,3.034,0.657,4.563c0.181,1.401,0.54,2.625,1.807,3.51
			c1.117,0.78,2.71,0.905,3.989,1.142c0.702,0.128,1.444,0.165,2.182,0.305c0.629,0.122,1.317,0.478,1.894,0.55
			c0.639,0.08,1.555-0.191,2.279-0.191c0.766,0,1.565-0.056,2.281-0.098c1.737-0.107,3.494,0.117,5.203-0.112
			c1.265-0.172,3.191-1.201,3.982-2.287c0.752-1.025,0.716-2.805,0.966-4.055c1.503-7.52,4.126-14.961,5.733-22.595
			c1.529-3.987,2.161-8.254,2.934-12.321c0.313-1.658,0.631-3.412,1.331-5.03c0.669-1.55,1.03-2.629,0.549-4.293
			c-0.782-2.684-2.104-6.52,0.356-8.664c1.426-1.244,0.935-3.231,0.474-4.816c-0.474-1.638-0.608-2.721,0.377-4.274
			c0.238-0.374,0.424-0.716,0.57-1.04c0.509-0.269,0.735-0.743,0.693-1.618c-0.085-1.601-0.858-2.839-0.858-4.459
			c0-1.546,0.596-2.857,0.853-4.371c0.332-1.95,0.73-3.951,1.056-5.926c0.455-2.797,0.316-5.676,0.471-8.519
			c0.134-2.453,0.092-4.925,0.087-7.39c-0.002-1.725,0.535-3.306,0.665-5.015c0.137-1.712-0.052-3.987-0.471-5.614
			c-0.441-1.724-0.132-3.125,0.36-4.769c0.076-0.277,0.16-0.542,0.231-0.803c0.181-0.19,0.311-0.411,0.394-0.678
			c0.203-0.65,0.09-1.467,0.045-2.144c-0.024-0.414-0.061-0.701,0.146-1.075c0.181-0.334,0.509-0.522,0.74-0.803
			c0.462-0.574,0.13-1.49,0.328-2.149c0.224-0.746,1.07-1.073,1.607-1.612c0.95-0.95,1.871-2.009,2.778-3.001
			c0.558-0.624,1.046-1.452,1.327-2.237c0.273-0.755,0.097-1.566,0.28-2.282c0.071-0.289,0.337-0.591,0.502-0.839
			c0.243-0.365,0.398-0.73,0.58-1.131c0.594-1.274,0.844-2.716,1.023-4.113C232.649,209.291,232.864,207.984,232.798,206.611z"/>
		<path fill="#E5EAF3" d="M205.947,96.358c0.349-8.397-0.961-12.849-2.599-16.06c-1.635-3.212-1.023-4.853-8.063-4.99
			c-7.038-0.137-12.92,1.367-14.492,1.845c-1.572,0.478-2.665,1.778-2.941,3.076c-0.271,1.299-2.392,7.108-3.761,10.457
			c-1.365,3.351-2.526,28.23-3.551,37.73c-1.027,9.501-1.437,31.58-2.665,38.413c-1.233,6.835,0,10.117,5.674,10.595
			c5.672,0.478,5.464,0.75,9.157,0.89c3.69,0.134,5.061,0.201,5.061,0.201s-0.483,0.481,1.296,0.342
			c1.777-0.136,3.692-0.136,4.852,0c1.162,0.139,0.817-0.342,1.913-0.136c1.096,0.206,2.87,0.478,5.884,0
			c3.002-0.477,3.959-11.071,4.849-27.681C207.448,134.431,205.396,109.418,205.947,96.358z"/>
		<path fill="#3B3D52" d="M181.281,92.795c0,0,0.429-0.933,1.089-2.022c0.665-1.086,1.48-2.641,2.024-2.6
			c0.542,0.038,2.33,2.989,2.33,2.989s0.153,0.467,0.464,0.39c0.313-0.079,4.548-1.751,5.87-1.282l0.815-0.311
			c0,0,1.708,1.786,2.406,2.915c0,0-0.853,1.825-1.784,2.951c-0.935,1.127-1.362,1.515-1.437,2.37
			c-0.08,0.857-0.584,1.476-0.584,1.476s-0.078,1.012,0.815,2.254c0.895,1.243,2.099,2.293,2.99,4.819
			c0.895,2.525,2.448,6.294,2.448,6.294s3.617,55.445,0.624,58.281c-2.99,2.836-4.084,3.963-4.234,4.002
			c-0.155,0.038-3.073-1.905-5.208-3.613c-2.135-1.71-4.698-3.962-5.13-4.351c-0.426-0.39-0.853-0.351-0.815-1.126
			c0.04-0.779-0.311-5.634-0.542-10.882c-0.236-5.244-0.544-9.712-0.737-13.249c-0.198-3.536-0.349-13.442-0.042-20.864
			c0.311-7.42,0.349-8.976,1.322-13.21c0.971-4.236,1.091-5.012,1.319-5.557c0.236-0.543,0.584-1.282,1.4-2.604
			c0,0-0.391-0.116-0.113-0.854c0.269-0.736,0.153-1.593,0.035-2.642c-0.116-1.047-0.66-2.175-0.66-2.175s-1.051,0.543-2.41-0.079
			C182.179,93.494,181.281,92.795,181.281,92.795z"/>
		<path fill="#312A38" d="M177.648,81.458c0,0-0.134,1.505-0.408,2.803c-0.276,1.299-0.412,2.052-0.137,4.785
			c0.273,2.736,0.068,5.606,0,7.792c-0.066,2.188,0.41,6.084,0.613,10.322c0.207,4.238,0.681,12.098,1.298,20.299
			c0.62,8.204,1.027,18.798,1.162,23.034c0.141,4.238,0.071,7.929-0.683,13.741c-0.752,5.808-1.228,9.635-1.228,12.028
			c0,2.394-0.068,6.357-1.503,14.083c-1.435,7.722-2.67,14.078-3.827,18.042c-1.166,3.966-3.216,10.938-7.727,11.073
			c-4.51,0.137-10.665,0.137-11.758,1.434c0,0-1.433-0.545-2.389-0.545c-0.956,0-1.506-0.272-1.301-1.23
			c0.203-0.956,0-3.69,0.481-6.355c0.476-2.666,1.364-10.595,1.982-16.2c0.615-5.605,1.503-11.961,1.503-11.961
			s-0.752-0.344-1.159-0.55c-0.412-0.201-1.027-0.271-0.549-1.571c0.479-1.297,2.118-7.858,2.118-7.858s-0.617-0.344,0.205-1.163
			c0,0-0.686-0.479-0.269-2.599c0.403-2.118-0.071-8.814-0.278-13.26c0,0-6.56,1.848-8.202,2.462c-1.64,0.617-2.394,1.3-4.376,0.617
			c-1.982-0.685-3.273-0.821-4.92-1.301c-1.642-0.477-2.531-0.548-4.647-2.255c-2.118-1.71-2.696-2.256-3.4-2.394
			c-0.702-0.135-0.499-0.067-1.044-0.545c-0.549-0.477-0.342-0.547-1.296-0.615c-0.959-0.068-2.052-0.478-2.597-0.821
			c-0.551-0.342-5.405-1.229-3.626-8.473c1.777-7.247,11.963-11.212,15.177-7.792c0,0,1.023,1.434,1.984,1.367
			c0,0,0.269-3.007,1.096-4.717c0.815-1.707,1.433-2.117,1.975-3.827c0.551-1.71,1.576-3.281,2.804-4.991
			c1.23-1.707,2.118-1.573,3.963-4.032c0,0-1.437-2.05-0.549-7.452c0.888-5.397,1.305-7.448,1.574-9.91
			c0.276-2.461,1.437-5.4,2.531-5.468c0,0,0.066-0.684,4.783-2.119c4.717-1.436,5.742-1.981,9.159-3.553
			c3.419-1.572,7.517-2.94,7.517-2.94s0.412-0.479,1.984-1.844c1.574-1.369,2.05-2.598,2.599-3.556
			C176.827,82.485,176.964,81.458,177.648,81.458z"/>
		<path fill="#312A38" d="M241.488,151.861c-0.137-1.435,0.478-1.913,0.959-3.007c0.476-1.094,0-1.162-1.162-3.146
			c-1.164-1.982-0.276-2.39,0.066-3.965c0.342-1.571-0.823-1.847-1.367-2.87c-0.547-1.024-0.066-1.573,0.205-2.732
			c0.276-1.164-0.271-1.779-0.681-3.829c-0.415-2.05-0.071-1.845,0.205-2.531c0.271-0.683-0.62-2.39-1.576-3.348
			c-0.954-0.957-0.683-2.802-0.954-4.237c-0.276-1.437,0.478-1.642,0.954-3.486c0.481-1.846-0.203-1.367-0.886-2.392
			c-0.686-1.025-0.478-3.487-0.617-6.561c-0.134-3.077,0-1.984,0.071-3.077c0.068-1.092-0.481-3.485-1.503-5.469
			c-1.03-1.981-0.82-1.707-1.433-2.733c-0.62-1.025-0.551-1.367-1.03-2.255c-0.464-0.865-1.642-2.243-3.407-3.075
			c-0.49-0.434-1.159-0.798-2.057-1.094c-6.018-1.983-10.941-3.418-13.262-4.716c-2.323-1.3-5.127-2.736-5.677-2.937
			c-0.546-0.207-1.706-1.506-2.941-2.871c-1.223-1.369-1.977-2.256-2.663-2.188c0,0,1.572,3.008,0.412,6.356
			c-1.164,3.348-3.758,13.191-5.055,20.778c-1.308,7.587-2.672,9.706-3.834,22.761c-1.164,13.055-0.549,15.037-0.818,17.773
			c-0.273,2.734-0.483,5.126,0.405,11.961c0.888,6.836,4.72,24.946,6.704,33.149c1.977,8.204,3.827,12.988,4.915,16.541
			c1.098,3.554,4.279,7.714,7.182,7.384c1.487-0.172,2.205,0.41,10.707-7.868c3.091-0.27,5.686,0.715,7.316,5.203
			c0.723,1.994,0.841,2.082,1.501,1.33c2.594-2.955,1.8-7.963,4.121-13.362c2.326-5.402,0.891-7.52,1.096-8.885
			c0.207-1.369-0.278-2.735-0.683-4.649c-0.412-1.913,0.405-1.572,1.708-2.733c1.301-1.164,0.137-3.009-0.137-5.742
			c-0.273-2.735,0.273-2.119,1.369-3.281c1.094-1.162-0.888-2.323-1.303-3.828c-0.408-1.503,0.62-1.64,2.667-3.691
			c2.05-2.051,1.777-9.294,0.82-12.371C240.871,153.09,241.625,153.296,241.488,151.861z"/>
		<path fill="#E5EAF3" d="M123.734,150.134c1.23,0.844,3.591,0.827,4.97-0.415c1.376-1.243,2.394-2.3,3.172-2.897
			c0.78-0.6,2.071-4.049,2.394-5.798c0.32-1.746-5.702-8.601-10.302-1.423C119.366,146.776,120.655,148.017,123.734,150.134z"/>
		<path fill="#B98451" d="M120.655,145.533c1.515,1.315,3.127,2.027,4.925,1.886c1.791-0.139,2.345-0.276,3.492-0.92
			c1.15-0.644,1.378-1.24,2.297-2.07c0.921-0.827,2.715-3.175,3.082-4.875c0.37-1.704,0.189-3.727-1.008-4.416
			c-1.197-0.69-1.793-1.058-2.161-1.655c-0.368-0.6-0.276-2.07-3.638-2.67c-3.356-0.597-9.428-1.195-8.596,2.117
			c0,0-3.176,0.506-1.982,4.047c0,0-2.21,0.966-0.964,3.542C117.344,143.096,119.274,144.338,120.655,145.533z"/>
		<path fill="#E5EAF3" d="M122.172,158.689l0.551,0.091l5.749-20.605c0,0-2.114-0.092-1.793-2.529
			c0.257-1.93,1.336-2.439,2.943-2.162l8.235-31.095l-5.106-14.903l-0.645-0.092l-14.718,59.061L122.172,158.689z"/>
		<path fill="#B98451" d="M185.443,64.849c8.629,2.466,14.765-1.367,14.626,3.351c-0.137,4.716,0,6.358,0.481,7.86
			c0.476,1.505,1.501,2.188-0.276,4.034c-1.774,1.845-3.143,2.937-4.307,4.648c-1.162,1.707-1.433,2.323-2.872,3.143
			c-1.433,0.82-3.685,1.641-3.685,1.641s-0.349-0.684-1.303-0.959c-0.954-0.272-1.572-0.819-2.597-0.682c0,0-1.23-1.298-2.731-2.393
			c-1.508-1.092-3.492-2.666-3.697-4.579c-0.2-1.912-1.567-6.561-2.389-9.021c-0.818-2.46-1.704-2.872-3.209-5.606
			c-1.506-2.732,2.802-6.834,6.899-6.699C184.486,59.722,183.048,64.166,185.443,64.849z"/>
		<path fill="#D2A474" d="M202.865,57.263c-0.146-0.58,0.158-0.969,0.144-1.502c-0.021-0.796-0.688-0.882-1.352-0.734
			c-0.085-1.442-0.132-2.83-0.768-5.487c-0.749-3.143-1.025-4.239-3.007-7.654c-1.626-2.798-9.154-4.358-14.23-4.196
			c-1.294-0.217-2.58-0.158-3.817,0.23c-8.082,2.542-12.745,9.372-9.899,20.259c-0.994-0.346-1.119-0.469-1.649-0.232
			c-0.615,0.273-0.891,0.754-1.025,2.325c-0.137,1.573,0.679,2.188,1.025,3.351c0.344,1.162,1.093,1.979,2.184,3.142
			c1.096,1.162,2.257,1.231,3.763,1.096c1.501-0.139,1.779,0.408,2.321,1.845c0.549,1.433,1.918,4.101,4.854,6.56
			c2.938,2.46,7.448,3.555,12.437,3.213c5.005-0.343,5.337-4.101,6.362-6.151c1.023-2.05,1.296-3.486,1.364-5.059
			c0.035-0.821,0.109-1.758,0.189-2.796c0.007,0,0.009-0.001,0.014-0.001c1.708-0.324,0.822-2.41,0.822-3.559
			c0-1.161,0.295-2.072,0.478-3.144C203.178,58.144,203.014,57.841,202.865,57.263z"/>
		<path fill="#6F4734" d="M202.592,49.962c-0.099-0.912-0.245-1.858-0.526-2.691c-0.297-0.877-1.058-1.542-1.237-2.433
			c0.04-0.008,0.073-0.018,0.113-0.025c0.092-1.135-1.093-2.712-1.711-3.613c-0.394-0.573-0.867-0.979-1.487-1.28
			c-0.462-0.224-1.091-0.372-1.426-0.755c0.141-0.032,0.235-0.103,0.394-0.098c-0.441-0.2-0.94-0.276-1.456-0.27
			c0.092-0.472-0.005-0.857,0.017-1.349c-0.248,0.112-0.476,0.291-0.733,0.398c0.009-0.322,0.226-0.727,0.325-1.01
			c-0.464,0.065-0.905,0.517-1.416,0.456c0.078-0.409,0.266-0.727,0.264-1.195c-0.507,0.424-1.093,0.749-1.704,1.034
			c-0.269-0.391-0.801-0.431-0.912-0.983c-0.377,0.325-0.57,0.04-0.872-0.212c-0.365-0.309-0.651-0.255-0.907-0.478
			c-0.212-0.191-0.32-0.997-0.598-0.48c-0.045,0.079-0.064,0.225-0.066,0.392c-0.087-0.084-0.181-0.165-0.278-0.242
			c-0.391-0.305-0.9-0.594-1.367-0.739c-0.243,0.7-0.243,0.994-1.009,0.573c-0.587-0.325-1.249-0.462-1.795-0.776
			c0.113,0.27,0.038,0.59,0.113,0.871c-0.214-0.335-0.624-0.824-0.999-0.984c-0.584-0.253-1.211,0.248-1.833,0.301
			c-0.014,0.114-0.016,0.23-0.021,0.345c-0.455-0.254-0.914-0.456-1.343-0.554c0.014,0.19-0.059,0.358-0.198,0.461
			c-0.813-0.7-0.563,0.891-0.822,1.165c-0.163-0.362-0.408-0.666-0.577-1.01c-0.344,0.364-0.83,0.878-1.032,1.352
			c-0.292-0.241-1.192,0.052-1.619,0.074c-0.499,0.029-1.11,0.163-1.484,0.496c-0.445,0.389-0.688,1.031-1.044,1.489
			c-0.445,0.561-1.049,0.938-1.638,1.314c0.16,0.103,0.405,0.232,0.54,0.381c-0.806,0.236-1.362,0.338-1.845,1.105
			c-0.403,0.655-0.726,1.357-1.204,1.989c0.25-0.047,0.502-0.11,0.778-0.076c-0.417,0.186-0.952,0.591-1.204,0.947
			c0.266-0.032,0.551-0.059,0.82-0.126c-0.596,0.112-1.692,1.674-1.991,2.295c-0.443,0.906-0.511,1.839-0.813,2.744
			c0.271-0.217,0.563-0.445,0.716-0.74c-0.754,1.598-0.344,4.121,0.047,5.752c0.372,1.575,0.87,3.683,2.295,4.707
			c0.007-0.065,0.021-0.131,0.035-0.198c0.073,0.016,0.158,0.02,0.252,0.002c0.45-0.073,0.872-0.74,1.242-1.01
			c0.181-0.127,0.523-0.25,0.655-0.439c0.115-0.174,0.101-0.596,0.167-0.808c0.17-0.574,0.436-1.127,0.598-1.707
			c0.146-0.523,0.412-1.067,0.53-1.589c0.106-0.492-0.148-0.881-0.174-1.399c-0.012-0.323,0.132-0.474-0.099-0.756
			c-0.134-0.168-0.464-0.208-0.617-0.408c-0.403-0.534-0.002-1.045,0.08-1.581c-1.588-0.055-0.973-1.662-0.351-2.947
			c0.448-0.393,0.999-0.713,1.567-1.165c-0.24-0.022-0.441-0.113-0.653-0.222c0.377-0.475,1.145-1.11,1.765-1.159
			c-0.052-0.032-0.125-0.141-0.177-0.179c0.785,0.04,1.567-0.218,2.371-0.213c0.608,0.001,1.268,0.053,1.876,0.026
			c0.683,0.147,1.364,0.286,2.031,0.502c0.528,0.17,1.213,0.219,1.682,0.421c-0.071-0.218-0.259-0.401-0.32-0.597
			c0.589-0.011,1.317,0.239,1.92,0.331c0.598,0.089,1.378,0.207,1.833,0.658c0.057-0.556-0.269-0.962-0.544-1.4
			c0.448,0.068,1.051,0.732,1.362,1.032c0.448,0.432,0.528,0.878,0.945,0.633c0.054,0.116,0.123,0.22,0.198,0.296
			c0.094-0.119,0.186-0.236,0.285-0.352c-0.007,0.258,0.005,0.502,0.021,0.699c0.464-0.319,0.865-0.683,1.312-1.003
			c1.659-0.607,3.577-0.868,5.344-0.833c-0.073-0.035-0.149-0.107-0.219-0.144c0.763,0.015,1.477-0.027,2.003,0.633
			c0.41,0.512,0.65,1.145,0.994,1.692c0.45,0.721,0.507,1.439,0.79,2.204c0.106,0.289,0.278,0.617,0.401,0.951
			c0.262,0.299,0.507,0.622,0.759,0.953c0.17,0.222,0.346,0.435,0.516,0.649c0.101,0.304,0.217,0.607,0.335,0.917
			c0.377,0.947,0.535,1.958,0.669,3.01c0.047,0.375,0.021,1.336,0.561,0.903c0,0.06,0,0.121,0,0.179
			c0.608-0.146,0.54-0.014,0.669-0.735c0.085-0.438,0.214-0.803,0.327-1.237C203.042,52.071,202.712,50.98,202.592,49.962z"/>
	</g>
</g>
</svg>
