<?xml version="1.0" encoding="utf-8"?>
<!-- Generator: Adobe Illustrator 17.0.0, SVG Export Plug-In . SVG Version: 6.00 Build 0)  -->
<!DOCTYPE svg PUBLIC "-//W3C//DTD SVG 1.1//EN" "http://www.w3.org/Graphics/SVG/1.1/DTD/svg11.dtd">
<svg version="1.1" id="Layer_1" xmlns="http://www.w3.org/2000/svg" xmlns:xlink="http://www.w3.org/1999/xlink" x="0px" y="0px"
	 width="800px" height="600px" viewBox="0 0 800 600" enable-background="new 0 0 800 600" xml:space="preserve">
<g>
	<g>
		<path fill="#333333" d="M581.617,229.809c-2.261-2.64-4.901-4.148-8.294-5.278c-2.263-0.377-4.525-0.755-7.541-0.755
			c0,0,0,0-0.377,0c-6.033-1.13-12.442-1.885-18.852-1.885c-8.296-0.753-16.59-0.753-24.886,0c-0.753,0-1.13,0-1.885,0
			c-2.263-0.753-4.901-0.753-7.541-0.753c-13.197,0-26.394,0-39.968,0c-9.426,0-18.853,0-27.901-0.377l-0.377-0.377
			c-0.753,0-1.885,0-3.016,0c-1.508,0-3.016,0-4.901-0.377c-2.263,0-4.903,0-7.165,0c-3.393,0-6.786,0-10.179,0
			c-3.017,0-6.033,1.132-8.673,3.018c-0.376,0.376-0.376,0.376-0.376,0.376s0,0.377-0.377,0.377
			c-0.377,1.132-0.755,1.885-1.508,2.263c0,0.377,0,0.377-0.377,0.755c0,0.376,0,1.13,0.377,1.508c0,0.377,0,0.377,0,0.753v0.377
			c0,0.755,0.376,1.132,0.376,1.885c-0.753,0.377-1.13,1.132-1.13,1.885c-3.393,9.049-5.278,18.853-5.656,28.656
			c-0.755,10.557,0.377,20.36,3.016,29.787c0,2.64,0,5.278,0.377,7.918c-0.377,1.508-0.377,2.64-0.377,3.771c0,0,0,0-0.376-0.377
			c0,0,0,0-0.377,0c0,0.377-0.377,0.755-0.755,0.755c0.377,11.689,0.377,23.376,0,35.065c0,15.082,0,30.164,0.377,44.869
			c0.377-0.376,0.755-0.753,1.13-0.753v-0.377c0.377,3.016,1.132,6.033,1.885,9.049c-0.376-9.426,0-18.853,0-28.279
			c0.377-13.197,0.755-25.639,0.755-38.458c0,0,0,0,0.377-0.377c-0.377-3.393-0.377-6.788-0.377-10.181
			c4.148,1.508,8.671,1.885,13.952,1.508c0.376,0,0.753,0,0.753,0c0.377,0,0.755,0,1.508,0c0,0.377,0,0.755,0,1.132
			c-0.376,1.13-0.376,2.638-0.376,3.771c0,1.508,0.376,3.016,0.376,4.148c-1.13-1.132-1.885-2.64-2.638-4.148l-0.377,0.377
			c0.377,2.261,1.885,4.523,3.393,6.409c0.377,1.132,0.755,2.263,1.132,3.018c0.376,1.885,0.753,3.771,1.13,5.278
			c0,0.377-0.377,0.377-0.377,0.377c0,1.13,0,2.261,0.755,3.393c0.753,2.638,2.263,4.901,3.771,7.164v0.377
			c0,0.377,0.377,0.377,0.377,0.753c1.13,2.263,1.885,4.903,2.638,7.165c0,0.376,0.377,0.376,0.377,0.376
			c0.377,0.377,0.755,0.377,0.755,0.377c0.376-0.377,0.376-0.753,0-1.13v-0.377c0,0,0,0,0,0.377
			c0.376,0.753,0.753,1.508,1.508,2.638c0,0.755,0.377,0.755,1.13,0c0.755,0.377,1.885,0.755,3.018,0.755
			c1.508,1.13,3.016,1.885,5.278,2.64c-1.132-0.755-1.885-1.51-3.017-2.64c1.51,1.13,3.017,1.885,4.525,2.263
			c3.393,1.508,6.411,1.508,8.671-0.377c0.755,0,1.885,0,2.64,0c-3.771,1.885-7.918,2.263-12.819,1.885
			c0,0.377-0.377,0.755-0.755,1.13c6.411,2.64,12.444,1.885,18.475-1.885c0.755-0.376,1.51-1.13,2.64-1.885
			c1.13,0,2.263-0.376,3.771-1.13c9.426-3.393,13.197-10.181,11.689-19.607c0,0,0,0,0-0.376c0.377,0,0.377,0,0.377-0.377
			c0.376-1.885,0.753-4.148,0.753-6.033c0.377-3.393,0.755-6.786,1.132-10.181c0,0.377,0,0.377,0,0.377
			c2.638,3.393,5.656,6.788,9.049,9.804c0.377-0.377,1.13-0.755,1.508-0.755c0-0.376-0.377-0.376-0.755-0.753
			c-3.016-3.018-6.031-6.411-9.049-9.426c-0.377,0-0.753,0-0.753,0.377l0,0c0-1.132,0-2.263,0-3.771
			c6.031,0.376,12.064,0.376,18.475,0.376c0,1.885,0,3.771,0.377,5.656c-0.755-0.753-1.51-1.13-2.263-1.508
			c-0.377-0.377-0.377-0.377-0.377,0c0.755,0.755,1.885,1.508,3.016,2.263c0,0.755,0,1.508,0.377,1.885
			c1.508,6.786,3.771,13.197,6.033,19.983c0.377,0.755,0.755,1.51,0.755,2.263c0.376,0.377,0.753,0.755,1.13,1.508
			c0.377,0.377,0.377,0.755,0.755,1.132c-0.377,0-0.377,0-0.377,0c-0.377,0-0.377,0-0.377,0.377c0,0.753,0.377,1.508,1.13,1.885
			c1.51,1.13,3.018,1.885,4.148,2.261c0.377,0.755,0.377,1.132,0.755,1.885c0.377,0,0.753,0.377,0.753,0.377
			c0,0.377-0.376,0.377-0.376,0.377c1.508,1.13,3.016,1.885,4.523,3.016c1.132,0,2.263,0,3.393,0
			c3.017,1.132,6.033,1.885,9.051,2.263c2.261,0,4.146,0,6.031-0.377c1.885-0.753,3.395-1.13,4.148-2.261
			c1.132-0.377,1.885-0.755,2.64-1.132c1.508-0.377,3.016-1.508,4.524-3.016c1.885-2.263,3.395-4.525,4.525-6.788
			c-0.755,1.51-1.508,3.018-2.263,4.903c0.377,0.753,1.132,1.13,2.263,0.377c1.508-3.018,3.016-6.411,4.148-10.181
			c0-0.755,0.377-1.508,0.753-2.263l0,0c1.885-3.393,3.017-7.164,3.395-10.934c0.376,0,0.753-0.377,1.13-0.377
			c0-0.377-0.377-0.753-0.755-0.753c0-0.377,0-0.755,0-1.132c0.377-3.771,0.755-7.918,0.755-12.065c1.885,0,3.771,0,5.656,0
			c3.393,0,6.786-0.755,9.804-1.51c1.885,0,3.771,0,5.278-0.376c0.377,3.016,0.377,6.031,0.755,9.049
			c-0.377,3.771-0.755,7.164-0.755,10.557c-0.377,6.788-0.377,12.819,0,19.23c-0.377-0.377-0.377-0.755-0.377-1.13
			c-0.753,0.376-1.13,1.13-0.753,1.885c0.753,1.885,1.13,3.771,1.508,5.278v0.377c0,3.771,0,7.917-0.377,12.064
			c0,0.755-0.377,1.132-0.377,1.885c0-0.753,0-1.13,0-1.508c-1.13,0.377-1.508,1.508-1.885,3.016c0,1.51-0.377,3.395-0.753,5.28
			c-0.377,0.753-0.755,1.508-1.132,2.261c-1.508,3.771-3.771,7.541-6.409,11.312c0,0,0,0.377-0.377,0.377
			c0,0.377-0.377,0.377-0.377,0.755c-0.755,0-1.13,0-1.508,0.377c-1.508,0.376-3.017,1.13-4.903,1.508
			c-2.638,0-4.901,0.377-7.164,0.753c0.377,0.377,0.377,0.377,0.755,0.755c-3.771,0.377-7.918,0.755-11.689,0.755h0.377
			c-5.278,0.376-10.558,0.376-15.459,0c-3.771-0.377-7.164-0.377-10.934-0.377c-0.377,0-0.755,0-1.132,0
			c-1.885-0.377-3.771-0.377-5.278-0.377c0.377,0,1.132,0,1.885,0.377c-9.049,0-18.098,0-27.147,0
			c-3.018-1.885-6.033-3.771-9.051-5.278c-0.376,0-0.376,0.376-0.376,0.753c0.376,0.755,0.753,0.755,1.508,0.755
			c1.885,1.508,4.148,3.016,6.409,3.771c-3.393,0-6.409,0-9.802,0c-3.018-2.263-6.033-4.525-8.673-7.541
			c-0.753,0-0.753,0-0.377,0.377c1.885,2.638,4.148,4.901,6.788,7.164c-2.263,0-4.148,0-6.033,0
			c-3.771-2.263-6.786-4.525-10.181-6.788c0,0,0,0-0.376,0h-0.377l-0.377,0.377c0,0,0,0.377,0.377,0.377
			c2.263,2.263,4.901,4.148,7.918,6.033c-1.132,0-1.885,0-2.64,0c-1.508-1.508-3.771-2.263-6.033-3.018c0,0-0.377,0-0.377-0.376
			c-2.261-1.132-4.523-2.263-6.409-4.148c-1.132,0-1.132,0.377-0.377,0.753c2.64,1.885,4.901,3.771,7.164,5.28
			c1.132,0.376,1.885,0.376,2.64,0.753c0.377,0.377,1.13,0.377,1.885,0.755c-1.132,0-2.64,0-4.148,0c-1.508,0-3.016,0-4.148-0.377
			c-4.901-1.508-9.049-4.525-12.064-8.296c-0.755-0.376-0.755,0-0.377,0.377c2.638,3.771,6.409,6.411,10.557,7.918
			c-2.263,0-4.523,0-6.786,0c-4.903-3.016-9.804-6.411-14.705-9.804h-0.377c4.148,4.148,8.671,7.541,13.95,9.804
			c-6.031,0-12.065,0.377-18.098,0.755c-1.885,0-3.771-0.377-5.278-0.755c-8.673-1.885-13.574-6.786-15.082-14.705
			c-0.377,0-0.377,0-0.755,0.377c0,1.508,0,3.016-0.377,4.146c1.132,1.51,1.885,2.64,3.018,4.148
			c3.393,3.771,7.164,6.411,11.689,7.918c-1.132,0-1.885,0-2.64,0c-4.148-1.13-7.541-3.393-10.181-6.786v-0.377
			c0.377-0.377,0.377-0.755,0-1.132c0,0,0,0-0.376,0c0,0-0.377,0-0.755,0.377c0,0,0,0.377-0.377,0.377c0,0.755-0.377,1.13,0,1.508
			c-2.638-3.393-4.148-7.164-4.523-11.312c-0.377,0-0.755,0-1.132-0.377c-1.13,3.395-0.753,7.165,1.132,11.312
			c3.016,6.033,8.294,9.051,15.082,9.051c0.376,0,0.376-0.377,0.376-0.377c0.377-0.377,0.377-0.377,0-0.755
			c-0.376,0-0.753-0.377-0.753-0.753c0.377,0.376,0.753,0.376,1.508,0.376c0.755,0,1.885,0,3.016,0
			c-0.753,0.377-1.508,0.377-2.638,0.377c0,0.377,0,0.377-0.377,0.377c0.755,0.377,1.508,0.755,2.263,0.755
			c49.017,0.753,98.033,1.13,147.05,0.376c1.13,0.755,2.263,1.132,3.393,0.755c2.64-1.13,4.901-2.64,7.164-4.525
			c0.755-1.13,1.508-1.885,2.263-2.638c0,0,0,0,0.377,0c-0.377,0-0.377,0-0.377,0c1.508-1.885,3.016-3.771,4.148-6.033
			c0.753-0.755,1.508-1.885,2.263-2.64c4.146-5.278,5.656-10.179,4.146-15.082c-1.13-6.409-1.508-12.442-1.13-18.853
			c0-6.786,0.377-13.572,0.377-20.36l0.377-2.638c0-2.263,0-4.148,0-6.033v-3.018c0-4.523,0-8.671,0-12.819
			c-0.377-15.082-1.132-29.787-2.263-44.491c-0.377,0.377-0.755,0.753-1.132,1.885c-0.376-4.525-0.753-8.673-1.13-12.819
			c-0.377-3.771-0.377-7.541-0.755-10.936C586.897,238.105,585.012,233.202,581.617,229.809z M576.338,228.679
			c2.64,1.885,4.903,3.771,6.033,6.409c1.508,11.312,2.263,23,1.885,34.689c0,4.901,0,10.179,0.377,15.459
			c0,3.016,0,6.409,0.377,9.802c0.753,5.28,1.13,10.181,1.508,15.082c-2.263,0-4.148,0-6.033,0c1.508-0.376,3.016-0.753,4.525-0.753
			c0-0.377,0-0.377,0-0.377c-3.018-1.13-6.033-1.508-9.426-1.13c-0.377,0.376-0.755,0.376-1.132,0.376
			c-3.016,0-6.033,0.377-8.671,0.755c0.377-3.771,0.377-7.541,0.377-11.311c0.376-8.296-2.263-15.082-7.165-20.738c0,0,0,0,0-0.377
			c0,0,0-0.377-0.376-0.377c-2.64-6.409-7.165-10.557-13.197-12.442c-2.64-2.263-6.033-3.393-10.559-4.148
			c-1.13,0-2.638,0.377-4.523,0.755c-1.51,0.377-3.018,1.13-4.525,2.263c-1.508,0-3.016,0.376-4.148,1.13
			c-1.885,1.508-3.393,3.016-4.901,4.525c0.753-1.885,1.508-4.148,2.638-6.033c-1.508,1.508-3.016,3.393-4.146,5.656
			c-1.132,1.885-1.885,3.771-2.64,5.656h-0.377c-0.753,0.753-1.508,1.885-2.638,2.638c0,1.132-0.377,2.263-0.377,3.395
			c-3.771,7.164-5.656,15.082-5.278,22.999c-0.377,0.755-0.377,1.132-0.377,1.51c0,2.638,0,5.278,0.377,7.917
			c-0.377,0-0.377,0-0.377,0c-0.377-3.016-0.377-6.409,0-9.802c-1.132,3.016-1.885,6.409-1.885,9.802c-6.411,0-12.444,0-18.475,0
			c-0.377-8.294-1.51-16.59-3.771-24.508c0,0,0,0-0.377,0l0,0c-0.377-2.261-0.755-4.523-1.885-6.786
			c-0.377-1.13-0.755-2.263-1.132-3.016c0,0,0-0.377,0.377-0.377v-0.377c0-0.377,0-0.377-0.377-0.755
			c-2.638-6.409-7.164-10.557-13.572-11.687c-3.771-1.885-8.673-2.64-14.329-2.64c-0.377,0.377-0.753,0.755-1.13,0.755
			c-1.885,0.376-3.393,0.753-4.903,1.508c-0.376-0.377-0.376-0.755-0.376-0.755s0,0-0.377,0h-0.377c0,0,0,0-0.377,0
			c0,0.377,0,0.377,0,0.377c-0.377,0.755-0.753,1.13-1.13,1.508c0,0.377,0,0.377-0.377,0.755c-0.755,0.377-1.508,1.508-2.263,2.638
			c0.377,0,0.377,0.377,0.377,0.755c-1.885,2.64-3.016,5.278-4.525,7.918c-0.376,1.13-1.13,2.263-1.885,3.016
			c0.377-1.508,0.755-3.016,1.132-4.523c-0.377,0-0.377,0-0.377,0c-1.13,1.885-1.885,3.393-3.016,4.901
			c-0.755,2.263-1.132,4.148-1.132,6.033c-0.377,0.377-0.377,0.377-0.377,0.377c0,1.13-0.376,2.261-0.376,3.016
			c-1.132,2.64-1.51,5.656-1.885,8.671c-0.377,3.018-0.755,6.411-1.132,9.426c0,1.132-0.377,2.263-0.377,3.395v0.376
			c-1.508,0-2.638,0-3.771,0c-0.376,0-1.13,0-1.885,0c-1.885-0.376-4.146-0.376-6.409-0.753c-0.755,0-1.508,0-1.885,0h-0.377
			c0,0,0,0.377,0.377,0.377h-0.377c0,0.376,0,0.376-0.377,0.376c0.377,0,0.755,0.377,1.132,0.377
			c0.376,0.377,0.753,0.377,1.13,0.377c-1.13,0-2.263,0-3.771-0.377c0-10.557,0-21.115,0.377-32.049
			c0.377-2.638,0.377-5.278,0.377-8.294c0-3.395,0.376-7.165,0.753-10.559c-0.377,0.377-0.377,0.755-0.753,1.508
			c0-1.13,0-2.261,0-3.016c0.376-0.377,0.376-0.377,0.376-0.377c0.377,0,0.377,0,0.377,0c-0.377-1.13-0.377-1.885-0.753-2.638
			c0-4.148,0-8.296,0-12.444c0.376-2.638,0.753-5.656,1.508-8.294c0.377-0.377,1.13-1.132,1.508-1.51
			c0.377-0.376,0.377-0.376,0.377-0.376c0.377,0,0.377,0,0-0.377c1.13-0.755,2.263-1.885,3.393-2.64c0,0.377,0,0.377,0,0.377
			c0,0.377,0,0.377,0,0.755c0.377,0,0.377-0.377,0.755-0.377v-0.377c0.376-0.377,0.376-0.377,0.376-0.755c0,0,0,0,0-0.376
			c0.755-0.755,1.885-1.132,3.017-1.885c24.886-0.377,49.394-0.755,73.902-0.755c0.376,0,0.376,0,0.376,0
			c-2.261-1.13-5.278-1.508-8.294-1.508c-5.278-0.377-10.559-0.377-15.459-0.377c0.377,0,1.13,0,1.508,0
			c1.508-0.377,3.018-0.377,4.525-0.377c3.016,0,5.656,0,8.294,0c12.066,0.377,23.755,1.132,35.82,2.263
			c3.018,0.377,6.411,0.755,9.426,0.755c3.771,0.376,7.541,0,11.312-0.377c7.165-0.377,13.952-0.755,21.115-0.755
			c0.377,0,0.755,0,1.132,0c3.771,0.377,7.164,0.755,10.557,0.755c-0.377,0-1.13-0.377-1.508-0.755
			C572.945,227.924,574.83,228.301,576.338,228.679z M555.601,273.925c0.377,0.753,0.755,1.508,1.508,2.261h-0.376l0,0
			C556.355,275.433,555.978,274.678,555.601,273.925z M554.093,273.17c-0.377,0-0.377,0-0.377,0.377
			c-0.753-1.132-1.508-2.263-2.263-3.018c-0.376-0.753-0.753-1.13-1.13-1.508c0,0,0,0,0.377,0c1.508,1.132,2.638,2.64,4.148,3.771
			C554.47,272.793,554.093,272.793,554.093,273.17z M562.764,290.892c0,0,0,0.376,0,0.753c-1.13-4.901-3.016-9.804-5.656-14.705
			C560.503,280.711,562.011,285.237,562.764,290.892z M555.601,295.038c0.377,1.132,0.377,1.885,0.377,2.64
			c0,3.771,0.377,7.918,0.755,11.311c0,0.377,0,0.377,0,0.755c-7.541,0.376-15.082,1.13-22.623,1.508
			c-1.885,0.377-3.771,0.377-5.656,0.753c-6.411-0.376-12.821-0.376-18.853-1.13c-0.377-5.278,0-10.934,0.376-16.212
			c0.377-4.525,1.51-9.051,2.64-13.197c0.377-1.132,1.13-1.885,1.508-2.64c1.132-1.13,1.885-2.263,3.018-3.393l0,0
			c2.261-2.64,4.523-4.525,7.164-6.411c1.13-0.377,2.263-0.753,3.393-1.13c-0.377,0.377-0.377,0.753-0.377,1.13
			c-1.13,0.377-1.508,0.755-1.885,1.885v0.377c0.377,0,0.755,0,1.132,0c0,0,0-0.377,0.376-0.377
			c4.525-0.377,9.426-0.377,14.329-0.377c0,0.377,0.377,0.755,0.753,1.51c0,0.376,0.377,0.753,0.377,1.13c0.377,0,0.755,0,0.755,0
			c0.377,0,0.377,0,0.753,0c0-0.755,0-1.13-0.376-1.508c0.753,0.753,1.13,1.508,1.13,2.263c0.755-0.377,0.755-1.132,0.755-1.885
			c-0.377-0.377-0.377-0.755-0.377-1.132c0.377,0.377,0.377,0.377,0.377,0.755c0.376-0.377,0.376-0.377,0.376-0.377
			c0-0.377,0-0.377-0.376-0.377c0.376,0,0.376,0,0.376,0s0,0,0.377,0.377c0,0.377,0.377,0.755,0.377,1.508
			c0.377,1.132,0.755,1.885,1.508,2.64c0-0.377,0-0.755,0-1.132c0-0.376,0-0.376,0-0.376c2.64,4.523,4.903,9.049,6.788,14.327
			c0,1.13,0.376,2.263,0.376,3.771C555.601,292.778,555.601,293.908,555.601,295.038z M517.142,225.661c-0.377,0-0.755,0-1.51-0.377
			c3.018,0,5.656,0,8.673-0.376c5.656,0.376,11.689,0.376,17.72,0.753C533.732,226.416,525.436,226.416,517.142,225.661z
			 M514.125,276.186c0-0.376,0-0.376,0-0.376c0.755-1.51,1.508-2.64,2.263-3.395c0,0,0,0.377,0,0.755v0.377
			C515.633,274.301,514.88,275.055,514.125,276.186z M477.928,294.285c0.377,1.508,0.755,3.393,1.51,5.278h-0.377
			c0,0.377,0,0.755,0,0.755c0,1.13,0,1.885,0,2.638C478.683,299.941,478.305,296.924,477.928,294.285z M530.339,268.269
			c0.376-0.377,0.753-0.755,0.753-0.755c1.885,0,3.771,0.377,5.656,0.755C534.485,268.269,532.224,268.269,530.339,268.269z
			 M517.895,270.154c-0.377,0.376-0.753,0.753-1.13,1.13c0.377,0,0.377-0.377,0.753-0.755L517.895,270.154z M548.437,323.695v0.377
			c1.508,1.885,3.771,4.148,6.411,6.411c0.376,0,0.753,0,1.13,0v0.376c0,0.377,0,0.755-0.377,1.51c0,0.376,0,0.753,0,1.13
			c-0.377,0.377-0.377,1.13-0.377,1.508l0.377,0.377c-0.377,0-0.377,0.377-0.377,0.755c-2.638,7.541-6.409,13.572-12.442,17.72
			c-0.755,0.377-1.508,0.755-2.263,0.755c0-0.377-0.377-0.755-0.753-1.132c-0.377,0.377-0.755,0.755-1.132,0.755
			c0,0.377,0,0.755,0,0.755c0,0.376-0.377,0.376-0.753,0.376v-0.376c-0.377,0-0.377-0.377-0.755-0.377l-0.377,0.377
			c0,0.376,0,0.376,0,0.376c-0.753,0-1.13,0-1.508,0.377c0-0.377,0-0.377,0.377-0.377c-2.64-0.376-5.278-1.13-7.918-1.885
			c-5.656-1.885-10.181-4.901-13.197-8.294c-1.508-4.903-2.64-9.804-3.393-14.705c0-0.755,0.377-1.132,0-1.885
			c0-0.755,0-1.132-0.377-0.755c-0.377-1.13-0.377-2.263-0.755-3.771c2.64,1.885,4.903,3.771,7.165,5.656
			c0.376,0,0.376-0.377,0.753-0.377l-0.377-0.377c0-0.376,0-0.376-0.376-0.376c-2.64-1.885-4.903-3.771-7.165-6.033
			c0-0.755,0-1.885-0.376-2.64c0-0.753,0-1.508,0-2.263c15.835,0,31.294,0,47.131-0.376c0,3.016,0,5.656-0.377,8.671
			c-0.377-0.755-1.132-1.508-1.508-1.885c-0.377-0.377-0.755-0.377-0.377,0c0.377,0.755,1.13,1.885,1.885,3.016
			c0,1.132,0,1.885-0.377,3.018c-2.263-1.885-4.525-3.771-6.411-6.033C549.192,324.072,548.814,324.072,548.437,323.695z
			 M515.257,353.106L515.257,353.106c0,0,0,0-0.377-0.377c0,0,0,0,0-0.377C514.88,352.728,515.257,352.728,515.257,353.106z
			 M513.748,312.383c-1.508,0-3.016,0-4.146,0v-0.377C510.732,312.383,512.24,312.383,513.748,312.383z M503.946,317.661
			c0,0,0,0,0.376,0c0,2.263,0.377,4.903,0.755,7.541C504.321,322.564,503.946,319.924,503.946,317.661z M480.568,317.286h0.377
			c0,4.523-0.377,8.671-0.377,12.819c-0.755,1.885-1.508,4.148-1.885,6.409c0,1.132-0.377,1.885-0.755,3.018
			c0.755-2.64,1.132-4.903,1.132-7.541c1.13-3.393,1.508-7.164,1.885-10.934c-0.377-0.377-0.377-0.377-0.377-0.377
			C480.568,319.547,480.568,318.416,480.568,317.286z M480.945,312.006c-0.377-0.376-0.377-0.376-0.377,0c0-1.508,0-2.638,0-4.146
			C480.945,309.367,480.945,310.498,480.945,312.006z M480.19,340.662c-0.377,2.64-1.508,5.278-3.016,7.541
			c-1.885,4.148-4.525,6.788-7.918,8.296c2.64-1.508,4.901-4.148,7.164-7.541c0,0,0-0.377-0.377-0.377c0-0.377,0-0.755,0-1.508
			C477.928,345.187,479.437,342.924,480.19,340.662z M509.977,342.547c0,0,0,0,0.377,0.377c0,0,0,0.377,0,0.755
			C510.354,343.302,510.354,342.924,509.977,342.547z M545.421,355.366c0,0,0.376,0,0.753-0.376v0.376c0,0,0.377,0,0.755,0.377
			c-0.377,0.377-0.755,0.755-1.132,1.132C545.421,356.121,545.421,355.744,545.421,355.366z M543.912,355.744c0,0,0,0,0.377,0
			c-0.377,0.377-0.377,0.755-0.377,1.132c-0.376,0-1.13,0-1.508,0C542.781,356.499,543.159,356.121,543.912,355.744z M532.6,360.269
			c-2.261,0-4.524,0-6.786-0.377c-2.263-0.755-3.771-1.508-5.278-2.263C524.306,358.761,528.454,359.892,532.6,360.269z
			 M529.584,356.876c-0.377,0-0.755,0-1.508-0.377c2.263,0.753,4.148,0.753,5.656,0c0.377,0.377,0.377,0.377,0.753,0.753
			C532.6,357.252,531.092,357.252,529.584,356.876z M585.387,313.515c-0.376,0-0.753-0.377-1.508-0.377
			c-4.148-0.755-8.294-1.132-12.819-1.132c-0.377,0-0.755,0-1.508,0c-1.132-0.376-2.64-0.376-4.148-0.376
			c1.13,0,2.263-0.377,3.393-0.377c6.033,0.753,11.689,0.753,17.722,0.753c0,0.377,0,0.755,0,0.755v0.755
			c0,0.376,0,0.753,0.377,1.508c-0.377,0-0.377,0-0.377,0v-0.377h-0.377v0.377c-0.377,0-0.755,0-1.508-0.377c0,0,0,0,0.377-0.377
			C585.012,314.268,585.387,313.891,585.387,313.515z M586.897,315.401c0,0.376,0,0.753,0,1.508
			c-0.377-0.755-0.377-1.132-0.377-1.508H586.897z M589.535,330.105v-3.018c0-0.376,0-0.376,0-0.753
			c0.377-3.018,0.377-6.033,0.377-9.426c0,3.016,0,6.033,0,9.049v3.393c0,0.755,0,1.508,0,2.263
			C589.535,331.236,589.535,330.858,589.535,330.105z M560.879,331.236c0,0,0,0,0.377,0c-0.377,1.508-0.753,3.393-0.753,5.278
			c0-1.508,0-2.638,0-3.771c0-0.376,0-0.753,0.376-0.753C560.879,331.613,560.879,331.236,560.879,331.236z M561.634,329.35
			c-0.377,0.377-0.377,0.755-0.377,1.132l0,0C561.256,330.105,561.256,329.728,561.634,329.35z M586.519,354.991
			c0,0.376,0,0.376,0,0.753v-0.377C586.519,355.366,586.519,355.366,586.519,354.991z M591.043,369.695c0-0.377,0-0.377-0.376-0.377
			c0-0.377,0-0.377,0-0.377S590.667,369.318,591.043,369.695z M586.142,377.236L586.142,377.236
			c-0.377,0.377-0.377,0.753-0.755,1.508c0-0.377,0-0.377,0-0.377C585.765,377.989,585.765,377.614,586.142,377.236z
			 M588.782,375.729c0.376-0.755,0.376-1.51,0.376-1.885c0,1.508,0,3.016-0.376,4.523
			C588.782,377.236,588.782,376.482,588.782,375.729z M587.65,383.27c0.377-0.755,0.377-1.132,0.755-1.51
			c-0.377,1.51-0.755,2.64-1.132,3.771c0-0.376,0-0.753,0-1.13C587.272,384.023,587.65,383.645,587.65,383.27z M585.387,379.499
			c-0.376,0.753-0.376,1.508-0.376,2.261C585.012,381.007,585.012,380.252,585.387,379.499z M585.765,387.416
			c0,0.755,0,1.132,0,1.51c-0.377,1.13-0.753,1.885-1.508,2.638c-0.755,0.755-1.508,1.508-2.64,2.263
			C583.502,391.564,584.634,389.678,585.765,387.416z M576.716,400.237c0-0.377,0-0.377,0.377-0.377c0-0.377,0-0.377,0-0.377
			C577.093,399.86,576.716,399.86,576.716,400.237z M580.109,397.219c-0.377,0.377-0.753,0.755-1.508,1.132c0,0-0.377,0-0.755,0
			c0.377,0,0.377-0.377,0.755-0.377C578.978,397.597,579.731,397.219,580.109,397.219z M570.305,401.745c-1.13,0-2.261,0-3.771,0
			c1.885,0,3.395-0.377,4.903-0.755c-0.377,0.377-0.377,0.755-0.755,0.755C570.683,401.745,570.683,401.745,570.305,401.745z
			 M456.814,225.284c-0.755,0-1.132,0-1.51,0c1.51,0.377,3.017,0.755,4.903,0.755c-2.64,0-4.903,0-7.541,0
			c-2.263-0.755-4.525-1.13-6.788-1.13C449.649,224.908,453.044,224.908,456.814,225.284z M430.043,223.776
			c0.377,0.377,0.377,0.377,0.377,0.377c2.261,0.377,4.146,0.377,6.031,0.377c-1.885,0-4.146,0.377-6.409,0.377
			c-0.377,0.376-1.132,0.376-1.885,0.376l0,0c-1.132-0.376-2.263-0.753-3.393-0.753c-0.755,0-2.263,0.377-3.395,1.13
			c-0.753,0-1.13,0.377-1.508,0.377c0,0,0,0-0.377,0c-1.13,0.377-2.638,0.755-3.771,1.13c-1.13,0.377-2.638,1.132-4.146,1.51v0.376
			c0-0.376,0-0.376,0-0.753c0.376,0,0.753,0,1.13-0.377c0.377,0,0.377,0,0.377,0c0-0.377,0-0.377,0-0.377
			c-0.755,0-1.132-0.377-1.885-0.753c-0.755,1.13-1.508,2.261-2.263,3.393c0,0.377-0.377,0.377-0.377,0.753
			c0-3.393,1.508-5.656,4.148-7.164C418.732,223.776,424.388,223.776,430.043,223.776z M409.683,234.335
			c0-0.377,0-0.755,0.376-0.755v0.377C409.683,233.957,409.683,233.957,409.683,234.335z M411.191,231.695
			c0.377,0,0.377-0.377,0.377-0.377c0.376-0.377,1.13-0.753,1.885-1.13c-0.755,0.753-1.51,1.508-2.263,2.263
			C411.191,232.072,411.191,232.072,411.191,231.695z M438.715,270.53c0.377-0.753,0.755-1.508,1.132-2.261
			c0.753-0.755,1.885-1.132,3.016-1.51l0,0c-0.377,0.377-0.755,0.755-1.13,0.755C440.6,268.645,439.47,269.4,438.715,270.53z
			 M438.715,275.81c-0.753,0.376-1.508,0.753-2.263,1.508v-0.377c0.377,0,0.377-0.377,0.377-0.377
			c2.263-1.508,4.525-3.016,6.411-4.901c1.508-0.755,2.638-1.508,3.771-2.263c2.263-0.377,4.148-0.377,6.409-0.377
			C448.141,270.53,443.24,272.793,438.715,275.81z M435.699,281.842c0.377,0,0.377,0,0.377-0.376
			c6.031-6.033,13.572-9.804,22.246-11.312c1.508,0.376,3.016,0.753,4.148,1.508c2.638,1.508,4.523,3.016,5.656,5.278
			c1.13,1.508,2.261,2.64,3.393,3.016c0.377,1.132,1.13,2.263,1.885,3.395c0,1.885,0.377,3.771,0.753,5.656
			c0.755,3.771,1.132,7.541,1.885,11.312c-0.376-0.377-0.376-0.377-0.376-0.755c-0.755,0-0.755,0-0.755,0.755
			c0.377,3.771,1.13,7.541,1.508,11.687c-5.278-0.376-10.557-0.376-16.212-0.376c-9.426,0.376-18.853,0.376-28.279,0.376
			C431.551,301.449,433.059,291.645,435.699,281.842z M404.403,287.497c0-0.753,0-1.508-0.376-1.885
			c0-4.146-0.377-7.917-0.377-12.065c-0.377-10.559,0.753-20.738,3.016-30.541c-1.13,12.442-1.885,24.886-2.263,37.705
			C404.403,282.974,404.403,285.237,404.403,287.497z M430.421,291.645c0.753-1.885,1.13-4.148,1.885-6.033
			c0-0.376,0-0.376,0.376-0.376c0-0.377,0-0.377,0.377-0.377c-2.263,7.541-3.771,15.459-4.523,23.753
			C428.911,302.957,429.289,297.301,430.421,291.645z M460.96,268.269h-0.376c-1.51-0.755-3.395-1.132-5.28-1.51
			c0.377,0,1.132,0,1.885,0C458.322,267.137,459.453,267.892,460.96,268.269z M448.141,266.007c-0.377,0-0.753,0-1.13-0.377
			c0.753,0,1.508,0,2.263,0C448.896,265.629,448.518,266.007,448.141,266.007z M441.355,332.368c0-0.377,0-0.377,0-0.755
			c0,0,0-0.377-0.377-0.377c-2.64-2.638-5.278-4.901-7.918-7.164c-0.377-0.755-0.377-1.508-0.377-1.885
			c-0.376-1.885-0.376-3.771-0.753-5.656c4.524,0.377,8.671,0.377,12.819,0.377c10.557,0,20.738,0.377,31.294,0.377
			c-1.885,10.179-3.771,20.36-6.409,30.54c-0.755,0.755-1.132,1.51-1.885,2.64c-0.755,0.755-1.508,1.508-2.64,2.263
			c-2.263,1.13-5.278,1.508-7.918,1.885c-0.376-0.377-0.753-0.755-1.13-1.132c-0.377,0.377-0.755,0.755-1.13,0.755
			c0,1.13,0.376,1.885,1.13,2.263c-2.263,0-4.525-0.755-6.786-1.132c0-0.376,0-0.376-0.377-0.753c0,0.377,0,0.377,0,0.753
			c-1.508-0.753-3.017-1.13-4.525-1.885c-0.377-0.376-0.753-1.13-1.13-1.508c-1.132-1.13-1.885-2.263-2.64-3.016
			c0.377,0,0.755,0,1.132-0.377c-4.148-7.164-7.165-14.705-8.296-22.246c1.885,2.263,4.525,4.523,6.786,6.409
			c0.377,0,0.377,0,0.755,0C440.978,332.743,440.978,332.368,441.355,332.368z M440.6,348.203c-0.377,0-0.377,0-0.377,0
			c-4.146-5.278-7.164-10.557-9.049-16.59c-0.753-2.64-0.753-5.278-0.753-8.296h0.376c0,0,0,0,0,0.377c0,0,0,0,0,0.377
			C432.682,332.743,435.699,340.662,440.6,348.203z M473.404,345.565c0.377-0.755,0.753-1.51,1.13-2.263
			c0.377-0.377,0.755-0.755,0.755-1.132c-0.377,1.51-1.132,3.018-1.508,4.525c-0.377,0-0.377,0-0.377,0.377
			C473.404,346.318,473.404,345.94,473.404,345.565z M471.519,351.973c0,0,0-0.377,0.377-0.377l0,0L471.519,351.973z
			 M432.682,341.417c0,0,0,0,0-0.377c0.755,1.13,1.51,2.263,1.885,3.393c0.755,1.132,1.51,1.885,1.885,2.64
			c0.755,1.13,1.51,2.263,2.263,3.016c-0.377,0-0.753-0.377-1.13-0.753c-1.132-0.755-1.885-1.885-3.017-2.64
			c-0.376-0.377-0.376-0.755-0.753-1.13c0-0.377,0-0.755-0.377-0.755h0.377c-0.377-0.377-0.377-0.755-0.377-0.755
			C433.059,342.924,432.682,342.17,432.682,341.417z M459.453,356.499v0.377V356.499L459.453,356.499z"/>
		<path fill="#333333" d="M557.863,247.531c0-0.377,0-0.377,0-0.377c-2.64-0.755-4.901-2.64-6.786-4.525
			c-0.377-0.377-0.755,0-0.377,0C552.585,245.646,554.848,247.154,557.863,247.531z"/>
		<path fill="#333333" d="M529.962,235.465c-0.377,0-0.377,0-0.377,0c3.016,4.525,7.164,7.164,11.689,9.049c0-0.377,0-0.377,0-0.377
			C537.125,241.498,533.355,238.481,529.962,235.465z"/>
		<path fill="#333333" d="M518.65,235.465c-1.132,0.377-1.132,0.755,0,1.508c3.393,3.018,6.409,5.656,9.804,8.673
			c1.13,0,2.261,0,3.771,0.376c0,0,0,0,0-0.376C527.322,242.629,522.798,239.236,518.65,235.465z"/>
		<path fill="#333333" d="M539.766,238.858c-0.377-0.377-0.755-0.377-0.377,0c3.771,3.771,7.918,7.164,12.442,10.181
			c0-0.377-0.377-0.377-0.377-0.377C547.307,245.269,543.536,241.876,539.766,238.858z"/>
		<path fill="#333333" d="M483.583,234.71L483.583,234.71c0,0.377,0,0.377-0.376,0.377c0,0.377,0,0.377,0,0.377
			c0.753,0.377,1.13,0.377,1.508,0.377c4.901,1.885,9.426,4.148,14.327,7.164c0-0.377-0.377-0.377-0.377-0.377
			C493.765,238.858,488.864,236.22,483.583,234.71z"/>
		<path fill="#333333" d="M496.027,235.465l-0.377,0.377c3.393,3.771,7.164,7.164,11.689,10.179c0.377,0,0.377-0.376,0.753-0.376
			l-0.376-0.377c0-0.377-0.377-0.377-0.377-0.755C503.568,241.876,499.798,238.858,496.027,235.465z"/>
		<path fill="#333333" d="M486.224,241.498c0-0.377,0-0.377,0-0.377c-3.771-2.64-7.541-5.278-11.312-7.541h-0.377
			C478.305,236.973,482.076,239.613,486.224,241.498z"/>
		<path fill="#333333" d="M451.534,238.481c-0.376,0-0.376,0-0.376,0c2.261,3.018,5.278,5.656,8.671,7.541
			c0-0.376,0-0.376-0.377-0.376C457.19,243.006,454.174,240.743,451.534,238.481z"/>
		<path fill="#333333" d="M452.289,244.514c0-0.377-0.377-0.377-0.377-0.377c-2.638-1.508-4.901-3.393-7.164-5.278
			c-0.755,0-1.13,0-1.885-0.377v0.377c0.377,0,1.13,0.377,1.508,0.755c0.377,0.377,0.755,0.753,1.132,0.753
			C447.388,242.251,449.649,243.384,452.289,244.514z"/>
		<path fill="#333333" d="M443.24,244.514c0.753,0,1.508,0,1.885,0c0.377,0,0.377,0,0.377,0c0-0.377,0-0.377,0-0.377
			c-3.771-1.885-7.541-4.146-11.312-6.031h-0.377C437.207,239.99,440.223,241.876,443.24,244.514z"/>
		<path fill="#333333" d="M423.633,239.613c-0.753,0-0.753,0.377,0.377,0.753c3.393,2.263,6.786,4.903,9.426,7.918
			c0.755,0.377,1.508,0.377,1.885,0c0.377,0,0.377,0,0.377,0c0-0.377,0-0.377-0.377-0.377c0-0.376-0.377-0.376-1.13-0.753
			c0,0,0,0-0.377-0.377C430.796,244.136,427.403,241.498,423.633,239.613z"/>
		<path fill="#333333" d="M551.077,330.105c-3.771-1.508-6.788-4.148-9.051-7.918h-0.376c1.508,4.901,4.523,7.541,9.426,8.296
			C551.077,330.105,551.077,330.105,551.077,330.105z"/>
		<path fill="#333333" d="M516.765,325.202L516.765,325.202c0,0.377,0,0.377-0.377,0.377c0,0.377,0,0.377,0,0.377
			c0,0.377,0,0.377,0,0.755c0.377,0,0.377,0,0.755,0c0.376,0,0.753,0,1.13,0s0.755,0.376,1.13,0.376
			c2.64,2.64,5.28,3.771,8.296,4.525c-0.377-0.377-0.755-0.377-1.13-0.755C523.551,328.597,520.536,326.712,516.765,325.202z"/>
		<path fill="#333333" d="M532.6,322.942L532.6,322.942c3.017,4.523,7.541,7.164,12.444,9.049c0-0.377,0-0.377-0.377-0.377
			c-4.148-2.263-7.918-5.278-10.934-8.671C533.355,322.942,532.977,322.942,532.6,322.942z"/>
		<path fill="#333333" d="M528.454,324.449c-0.377,0-0.755,0-0.755,0.377c-0.377,0-0.377,0-0.377,0.376
			c0.377,0,0.377,0.377,0.377,0.377c1.885,3.393,4.525,5.656,8.296,7.541c0.376-0.377,1.13-0.753,1.508-0.753
			c0-0.377-0.377-0.377-0.755-0.755C533.732,329.728,531.092,327.088,528.454,324.449z"/>
		<path fill="#333333" d="M465.108,325.58h-0.377c0,0.377,0.377,1.132,1.132,1.885c0.753,0,1.13,0,1.508,0c0-0.377,0-0.377,0-0.377
			C466.241,326.712,465.486,325.957,465.108,325.58z"/>
		<path fill="#333333" d="M463.601,329.35c0,0-0.377-0.377-0.755-0.377c-3.016-2.638-6.409-4.901-9.802-7.541h-0.377
			c2.638,3.395,6.033,6.033,10.179,8.296C463.223,329.728,463.601,329.728,463.601,329.35z"/>
		<path fill="#333333" d="M444.748,328.597c-0.377-0.377-0.755-0.377-1.13-0.755c-2.263-1.885-4.903-3.771-7.165-5.656
			c-0.753,0-1.13,0.377-0.376,0.755c1.885,2.261,3.771,4.523,6.409,6.409c0.377,0,0.755,0,1.132,0c0.376,0,0.753,0,0.753-0.377
			C444.748,328.973,444.748,328.597,444.748,328.597z"/>
		<path fill="#333333" d="M448.896,324.449c-0.377-0.377-0.377-0.377-0.377-0.755l-0.377,0.377c0.755,3.016,3.018,5.656,6.411,7.164
			c0.377,0,0.753-0.377,1.13-0.753c-2.263-1.885-4.523-3.771-6.786-5.656V324.449z"/>
		<path fill="#333333" d="M500.551,328.597c-0.376,0-0.753,0-0.753-0.377c-3.393-2.64-6.788-5.656-9.804-9.049h-0.377
			c2.263,3.393,4.903,6.031,7.918,9.049c0.755,0.377,1.508,0.753,2.263,1.508c0.753,0,1.13-0.377,1.508-0.755c0,0,0,0-0.377-0.376
			C500.928,328.597,500.928,328.597,500.551,328.597L500.551,328.597z"/>
		<path fill="#333333" d="M494.519,396.466c0.376,0,0.753,0,0.753,0.376c1.885,0.755,3.393,1.132,5.278,1.132
			c-0.376-0.377-0.753-0.377-1.508-0.755c-2.638-1.885-5.656-3.393-9.049-4.901c-0.377,0-0.755,0-0.755,0.377
			c-0.376,0-0.376,0-0.376,0.376c0.376,0,0.376,0.377,0.376,0.377c0,0.377,0.377,0.377,0.377,0.377
			C491.502,393.826,493.01,394.957,494.519,396.466z"/>
		<path fill="#333333" d="M511.487,387.793L511.487,387.793c-0.377,0.377-0.377,0.755-0.377,1.132c0,0.376,0.377,0.376,1.508,0.376
			c4.901,3.395,10.181,6.033,15.837,7.165c-0.377-0.377-0.755-0.377-1.51-0.755C521.666,393.449,516.765,390.433,511.487,387.793z"
			/>
		<path fill="#333333" d="M501.306,385.155c-0.377-0.377-0.755,0-0.377,0c4.525,5.656,10.181,9.049,16.214,10.934
			c0-0.377,0-0.377-0.377-0.377C511.487,392.319,506.207,388.548,501.306,385.155z"/>
		<path fill="#333333" d="M523.174,386.285c0,0,0,0-0.376,0h-0.377l-0.377,0.377c3.016,5.278,7.918,7.918,13.952,8.671
			c0-0.377,0-0.377,0-0.377C530.715,393.071,526.569,390.056,523.174,386.285z"/>
		<path fill="#333333" d="M551.077,388.171c-0.755-0.377-0.755,0-0.377,0.377c1.13,1.885,3.016,3.771,4.901,5.278
			c0.755,0,1.508,0,2.263,0c-0.377-0.377-1.13-0.755-1.885-0.755c0-0.376,0-0.376-0.377-0.376
			C554.093,391.186,552.207,389.678,551.077,388.171z"/>
		<path fill="#333333" d="M541.273,388.171l-0.377-0.377c4.148,3.018,8.296,5.656,12.442,8.296c0-0.377,0-0.377-0.376-0.377
			C549.567,392.696,545.421,390.056,541.273,388.171z"/>
		<path fill="#333333" d="M545.797,396.842c0-0.376,0-0.376,0-0.376c-4.146-1.885-7.917-4.525-11.312-7.541
			c-0.376-0.377-0.753-0.377-0.376,0C537.503,392.696,541.273,395.334,545.797,396.842z"/>
		<path fill="#333333" d="M576.716,328.22c0.377,0,0.755,0,1.13,0c0.377,0,0.377,0,0.377-0.377c0,0-0.377-0.377-0.753-0.377
			c-2.64-1.885-4.903-3.393-7.541-5.278c-0.755,0-0.755,0-0.377,0.377C571.06,325.202,573.7,327.088,576.716,328.22z"/>
		<path fill="#333333" d="M565.404,324.827h-0.377c1.132,1.508,2.263,2.638,3.393,4.146c1.132,0,1.885,0.377,3.017,0.755
			c-0.377-1.13-1.132-1.885-2.64-1.508v-0.377C567.667,326.712,566.535,325.58,565.404,324.827z"/>
		<path fill="#333333" d="M569.93,384.4c-0.377-0.377-0.377-0.377-0.755-0.755c-0.755-0.376-1.508-1.13-2.263-1.508
			c-0.377-0.377-0.753-0.377-0.377,0C567.289,383.645,568.42,384.4,569.93,384.4z"/>
		<path fill="#333333" d="M558.618,388.925c-0.377-0.377-0.755,0-0.755,0c0.377,0.753,0.377,1.13,0.755,1.508
			c0.376,0.377,0.376,0.753,0.753,0.753c0.755,1.132,1.132,1.132,1.508,0.377c0,0,0,0-0.376-0.377
			C559.748,390.811,558.994,389.678,558.618,388.925z"/>
		<path fill="#333333" d="M559.371,382.137c-0.377-0.377-0.377-0.377-0.377,0c2.263,3.393,5.656,6.033,9.426,7.918
			c0-0.377-0.376-0.377-0.376-0.377C565.027,387.416,562.011,384.777,559.371,382.137z"/>
		<path fill="#333333" d="M365.567,227.924c-0.377-0.377-0.755,0-0.755,0c0,1.13,0,1.885,0,3.016
			c-1.508-0.753-3.393-1.13-5.278-1.885c-2.263-1.508-5.278-2.638-8.671-2.638c-0.755-0.377-1.508-0.755-2.263-1.132
			c-1.885,0-3.771,0-5.656,0.377c-0.377,0-1.13,0-1.885,0l0,0c0,0,0,0-0.377,0c-2.263,0-4.523,0-6.409,0
			c-5.656-0.753-10.936-1.508-16.592-1.508c-14.705-0.377-29.409-0.377-44.491-0.755c-9.426,0.377-18.853,0.755-28.279,1.132
			c-11.689-0.377-23.378-1.132-35.065-1.508c-3.018,0.376-6.411,0.376-9.426,1.13c-1.885,0.377-3.771,0.377-5.656,0.377
			c0.753-0.755,1.885-1.508,2.638-1.885c0-0.377,0-0.377,0-0.377c-0.753,0-1.13-0.377-1.885-0.377
			c-0.753,0.377-1.885,0.755-2.263,1.885c-0.376-0.377-0.753-0.377-1.508-0.753c-1.885,0.753-3.016,1.885-3.771,4.146
			c-3.393,11.312-5.656,23-6.033,35.444c0,10.557,0.377,21.491,1.885,31.672c0,2.263,0,4.148,0,6.033
			c0,4.146,1.132,7.541,2.64,10.179c0,0.377,0,0.755,0.377,1.508c-0.755,0-1.132,0-1.508,0c0.376,0,1.13,0,1.508,0.377
			c0.377,1.132,0.377,2.263,0.753,3.393c-1.13-0.376-2.261-0.376-3.393-0.376v0.376c0.755,0,1.508,0,2.263,0.377h-0.377
			c0,0.377,0,0.755,0,1.508c-0.377-0.376-0.753,0-0.753,0.377c-0.377,2.263-0.377,4.525-0.755,6.788
			c-0.755,3.016-0.755,6.409-1.13,9.802c-0.377,10.936-0.755,22.247-0.755,33.182c0,6.409,0.377,12.442,1.13,18.098
			c0,0.377-0.376,0.755,0,1.508c0,0,0,0,0.377,0.377c0,0.377,0,0.755,0.377,1.508h-0.377h-0.377l-0.376,0.377
			c3.771,6.788,9.049,10.934,15.082,12.819c0.753,0,1.13,0.377,1.885,0.755c0-0.377,0.376-0.377,0.376-0.377
			c1.885,0,3.395,0.377,5.28,0.377c47.507,1.13,95.016,1.508,142.524,0c0.755,0,1.508,0,2.263-0.377c0.377,0,0.377,0,0.377,0
			c0-0.377,0-0.377,0-0.377h0.376c0.377-0.376,0.755-0.376,1.132-0.376c1.508,0,3.016-0.377,4.524-0.755
			c1.51-0.755,2.64-1.508,3.771-2.64c0-0.376,0.377-0.753,0.377-0.753c1.132,0,1.885-0.755,2.263-1.508
			c0.377-0.377,0.377-0.755,0.377-1.132c1.508-1.508,3.016-3.016,4.148-4.901c0,1.13,0,2.638,0.376,4.148
			c0-1.132,0.377-2.263,0.377-3.395c0.377-1.508,0.377-2.638,0.755-3.771c0.377-0.753,0.753-1.508,1.13-2.638
			c0,0.753,0,1.508,0,2.263c0.755-8.296,0.755-16.592,0.377-24.886c0-5.278-0.755-10.181-1.508-15.459
			c-0.377-1.13-0.377-2.64-0.755-4.148c0.377-3.393,0.377-6.786,0-10.179c0.377,1.13,0.755,2.261,1.132,3.016
			c0.753-2.64,0.753-5.278,0.376-7.918c-0.376-7.918-1.13-15.835-1.885-23.376c0-1.885,0.377-3.395,1.132-4.903
			c-0.377-3.016-0.755-6.409-1.132-9.804l0,0c0.377,0,0.377-0.376,0.755-0.376c-0.377-5.656-0.377-10.936-0.755-16.592
			C367.83,257.711,366.698,242.629,365.567,227.924z M364.813,230.94c0,1.51,0,3.018,0,4.525c-0.753-2.263-2.261-3.771-3.771-5.278
			c1.132,0.377,2.263,0.377,3.395,0.753C364.813,230.94,364.813,230.94,364.813,230.94z M362.552,240.366
			c0.753,1.51,1.13,3.018,1.885,4.903c-0.377,0-0.377,0.377-0.755,0.377c0,0.376,0,0.376-0.377,0.753c0.377,0,0.377,0,0.377,0
			c0.377,0,0.755-0.377,1.13-0.377c0.377,5.28,0.377,10.559,0.755,15.837c0-0.755-0.377-1.508-0.377-2.263
			C364.06,252.81,363.305,246.399,362.552,240.366z M364.06,238.481L364.06,238.481c0.377,0.377,0.377,0.755,0.377,0.755
			C364.06,238.858,364.06,238.481,364.06,238.481z M348.6,229.432c0,0,0.377,0,0.755,0c1.13,0.377,2.261,1.132,3.771,1.508
			c1.885,1.51,3.393,3.395,5.278,5.656c0,0.755,0.377,1.51,0.377,2.263c1.13,2.263,1.885,4.525,2.638,7.164
			c0,0.755,0.377,1.885,0.755,2.64c0.753,2.64,1.13,5.278,1.885,7.918c-0.377,3.016-0.377,6.409,0.377,10.179
			c0,1.51,0.376,3.018,0.376,4.525c0.377,1.13,0.377,2.263,0.377,3.016c0,3.018,0,5.656,0.377,8.296c-0.377,0-0.755,0-0.755,0
			c0,0.377,0,0.377-0.376,0.377c0.376,1.885,0.753,3.771,0.753,6.033c-0.753,1.13-0.753,3.016-0.753,5.278
			c0.753,5.278,1.13,10.934,1.508,16.212c0,0.377,0,0.755,0,1.132c-0.377,0-0.755,0-1.132,0h-0.376
			c-0.377-2.64-0.755-5.656-1.132-8.673h-0.377c0.377,2.64,0.755,5.656,1.132,8.673c-3.017-1.132-6.411-1.51-10.181-1.51
			c-9.804,0-19.983,0-30.164,0.377c0-0.377,0.377-0.753,0.377-1.13c8.671,0,17.345,0,26.016,0c1.132,0,2.263,0,3.393,0
			c-0.753-0.755-1.885-1.132-3.393-1.132c-8.294,0-16.967,0-25.639,0c4.901-0.753,9.426-1.508,13.95-2.261c-2.261,0-4.523,0-6.409,0
			c-2.263,0-4.525,0.376-6.788,0.376c1.132-2.261,2.263-4.901,3.018-7.541c4.523-8.294,8.294-16.967,12.442-25.639
			c0,0,0-0.377,0.377-0.755c0-0.376,0.377-0.376,0.377-0.753c0.753-0.755,1.13-1.508,1.508-2.64
			c-0.377-0.377-0.377-0.377-0.377-0.377c0.377-0.376,0.377-0.753,0.377-1.13s0-0.377,0-0.755l0,0
			c0.377-0.376,0.755-0.376,1.13-0.376c0.377,0,0.377,0,0.377,0c0.377-0.755,0.377-1.132,0.377-1.885v-0.377
			c-1.13-1.132-2.64-1.885-4.148-2.263l0,0c0.377-0.755,0.377-1.13,0.377-1.885v-0.377c-0.377-0.377-0.377-0.377-0.377-0.377
			c-4.523-0.376-8.671-0.376-13.197-0.753c-14.327,1.13-28.656,1.885-43.738,1.885c0,0.377,0,0.377-0.376,0.377
			c0,0.376,0,0.376,0,0.753v0.377c3.393,1.508,7.541,2.263,12.064,1.508v0.377l0.377,0.377c-3.771,0-7.918,0.377-12.066,0.377
			c-0.753,0.376-1.508,0.376-2.261,0c-2.263-0.377-3.771,0.376-3.771,2.261c0.753,0.377,1.13,0.377,1.508,0.377
			c1.13-0.377,2.638-0.377,4.148-0.377c0.753,0,1.508,0,2.638,0c-1.885,0.377-3.771,1.132-5.278,1.51
			c2.263,1.13,4.148,1.13,6.411,1.13l0,0c0,0.377,0,0.377,0.376,0.755c8.296,0.376,16.967,0.753,25.641,1.13
			c2.638,0,4.901,0.377,7.164,1.13c3.016,1.132,6.033,1.132,8.671,0.755c-1.885,2.263-3.393,4.525-4.523,7.164
			c-1.132,0.755-1.508,1.508-1.885,2.64c-0.755,1.508-1.132,3.016-1.508,4.523c-3.018,6.411-5.656,13.197-7.541,19.985
			c-5.28,0.377-10.181,0.753-15.082,0.753c-11.689,0.377-23.378,0.755-34.689,1.51c0-3.771,0-7.541,0-11.312
			c-0.377-0.377-0.377-0.377-0.755-0.755c0,0,0,0-0.376,0c-0.377-3.016-0.755-6.033-1.132-9.049c0.377,0,0.377,0,0.377-0.377
			c-0.377-1.13-0.377-2.263-0.755-3.393c-0.376-2.263-0.753-4.903-1.13-7.541c-0.377-0.377-0.377-0.377-0.755-0.755
			c0,0-0.376,0-0.753,0c0,0.377,0,0.377-0.377,0.377c0,0,0,0,0,0.377c0,0,0,0,0,0.377c-1.508-3.395-3.393-5.656-5.656-7.918
			c-1.508-1.508-2.64-3.018-4.148-3.771c-0.753-1.132-1.508-1.885-2.263-2.263c-1.885-2.263-4.146-4.148-7.164-5.278
			c-0.753-0.377-1.885-0.377-2.638-0.377c-1.132-0.377-2.263-0.377-3.771-0.377c-1.885,0-3.771,1.132-5.28,2.64
			c-0.376,0.377-0.753,0.753-1.13,1.508c-2.263,0.377-4.525,1.885-6.411,3.393c-0.376,0.377-0.753,0.755-1.13,1.508
			c-5.278,2.263-10.181,6.411-13.952,11.312c0,0.377,0,0.377,0,0.755c0,1.13,0,2.263,0.377,3.393c0,0,0,0,0.377,0
			c-0.377,1.508-0.755,2.64-1.13,4.148c-0.755,8.296-1.132,16.59-0.755,25.263c-4.148,0-7.918,0-12.066,0.376
			c-1.13-9.426-1.885-18.853-1.885-28.654c-0.376,0-0.376-0.377-0.376-0.377c-0.377-0.377-0.755-0.755-0.755-1.132h-0.377l0,0
			c0-13.95,0.377-27.901,1.132-41.476c-0.755,0.755-1.132,1.885-1.51,3.018c0.377-3.018,0.755-6.033,1.51-9.049
			c1.508-3.018,4.523-5.28,8.294-6.411c0-0.377,0-0.377,0-0.377c-0.753,0-1.508-0.377-2.638-0.753
			c-1.132,0.376-2.263,0.753-3.395,1.885c0,0-0.376,0.376-0.753,0.753c0.377-0.753,1.13-1.508,1.508-2.263
			c4.148-0.376,7.918-0.753,11.689-0.753c6.409,0.753,12.819,1.13,19.606,0.753c4.525-0.376,9.051-0.376,13.952-0.376
			c4.901,0.376,9.804,0.753,14.705,1.508c7.541,0.753,15.082,1.13,22.246,1.13c-1.13-0.377-2.638-0.377-3.771-0.377
			c13.197,0.755,26.394,0.755,39.215,0C322.961,229.054,335.781,229.054,348.6,229.432z M358.781,230.187
			c0.376,0.377,0.753,0.753,1.13,1.13c0.377,0.755,0.755,1.508,1.13,2.64c-0.753-0.755-1.13-1.508-1.885-1.885
			C359.157,231.317,359.157,230.94,358.781,230.187z M358.404,230.187c0,0,0,0.377,0,0.753c-0.377-0.376-0.377-0.376-0.377-0.753
			c-0.377,0-0.377,0-0.377,0.377c-0.377-0.377-0.377-0.377-0.753-0.755C357.649,229.809,358.026,229.809,358.404,230.187z
			 M353.125,227.547c1.13,0,2.261,0.377,3.016,0.755c-0.377,0-1.13,0-1.885-0.377C353.878,227.924,353.501,227.547,353.125,227.547z
			 M360.666,236.973c0,0.377,0,0.377,0.376,0.755c-0.376,0-0.376,0.377-0.376,0.377C360.666,237.728,360.666,237.35,360.666,236.973
			z M339.929,267.137c0.753,0,1.13,0,1.508,0c-0.755,0.755-1.508,1.885-2.263,3.393c-0.377,0-0.377,0-0.377,0
			C339.174,269.4,339.551,268.269,339.929,267.137z M325.222,270.154c0,0,0,0,0.377,0c-1.13,0-1.885,0-2.638,0
			c-0.755,0-1.51,0-2.64,0C321.829,270.154,323.337,270.154,325.222,270.154z M325.6,296.548c-0.377,0.753-0.753,1.508-1.13,2.261
			c0.377-0.376,0.377-0.753,0.377-1.13C325.222,297.301,325.6,296.924,325.6,296.548z M367.453,308.613c0,0.755,0,1.132,0,1.885
			c0-0.753,0-1.13,0-1.508V308.613L367.453,308.613z M367.83,313.891c0,0,0,0,0.377,0c0,1.51,0,3.018,0,4.525c0,0,0,0-0.377,0
			C367.83,316.908,367.83,315.401,367.83,313.891z M367.83,312.006c0-0.753,0-1.13,0-1.508
			C367.83,310.875,367.83,311.253,367.83,312.006L367.83,312.006z M363.682,313.891c0.377,0,0.377,0,0.377,0
			S364.06,313.891,363.682,313.891z M365.19,313.891h0.377c0,0.377,0,0.377,0,0.377h-0.377
			C364.813,313.891,364.813,313.891,365.19,313.891z M365.19,315.401c0,0,0-0.377,0-0.755h0.377c0,0.377,0,0.755,0,1.13
			C365.19,315.401,365.19,315.401,365.19,315.401z M365.567,316.531c-0.377,0-0.377,0-0.377,0l0,0H365.567z M364.06,314.646
			c0,0.377,0,0.377,0,0.755c-0.755-0.377-1.885-0.377-3.017-0.755C362.174,314.646,363.305,314.646,364.06,314.646z
			 M364.437,316.531c-0.377,0.377-0.377,0.755,0,1.508c-4.903,0-9.426-0.377-14.329-0.377c-3.771-0.376-7.541-0.376-11.312-0.753
			C347.47,316.908,355.764,316.531,364.437,316.531z M367.83,319.547c0.377-0.376,0.377-0.376,0.377-0.376c0,1.885,0,3.771,0,5.656
			c0-1.132,0-1.885,0-2.64C367.83,321.056,367.83,320.301,367.83,319.547z M364.06,327.465c-0.377,0.377-0.755,0.755-0.755,0.755
			c0.377,1.885,1.132,3.393,1.508,5.278c0,7.918,0.377,16.212,0.755,24.131c0.377,0,0.377,0,0.755-0.377
			c-1.132,8.673-1.885,16.967-2.64,25.641l0,0c-1.885,4.523-3.771,9.049-6.411,13.197c-1.13,0.753-2.261,1.508-3.393,2.263
			c-0.377-0.377-0.753-0.755-1.13-1.132c-0.377,0.377-0.755,0.755-1.132,0.755c0,0.377,0,0.753,0.377,1.508
			c-0.753,0-1.13,0-1.885,0.377c0-0.377,0-0.377,0-0.755l0,0c7.164-7.164,11.312-15.459,12.444-25.261c-0.377-0.377-0.755,0-0.755,0
			c-1.885,9.802-6.033,18.098-11.689,25.261c-0.377,0-0.753,0-1.13,0v0.377c0,0.377,0,0.377,0,0.755c-1.132,0-2.263,0-3.017,0
			c0,0,0.377,0.376,0.755,0.376c-0.755,0.377-1.885,0.377-2.64,0.755c-3.393,0-6.786,0-9.802,0
			c-3.018-1.885-6.411-3.771-9.804-5.278c-0.377,0-0.377-0.377-0.377-0.377c-0.377-0.755-1.13-1.508-1.508-1.885h-0.377
			c0,0.377,0,0.377,0,0.755c0.377,0.753,0.755,1.508,1.13,2.261c3.395,1.885,6.788,3.018,9.804,4.525c-1.508,0-3.393,0-5.278,0
			c-18.853,0-37.705,0-56.558,0c0-0.377,0-0.377,0-0.377c-6.033-2.263-11.312-5.278-15.837-9.049c-0.376-0.377-0.753,0-0.376,0
			c4.146,4.148,9.426,7.164,14.705,9.426c-7.541,0-15.082,0-23,0c-13.197-0.755-26.394-0.377-39.59,0.377
			c-1.13,0-2.263,0-3.393-0.377l0,0c-0.377,0-0.377,0-0.377-0.377c-1.13,0-2.263-0.377-3.393-0.753
			c-2.263-1.132-4.148-2.263-6.033-3.395c-1.13-1.13-1.885-1.885-2.64-3.016l-0.376,0.377c-2.64-2.64-4.525-5.278-6.033-8.673
			c0-1.13,0-2.261,0-3.393c0.377,2.263,1.13,4.148,1.508,6.411c0.755,0.377,1.13,1.13,1.508,1.508
			c-1.508-11.312-2.263-23-1.13-35.065c0.753-12.821,0.753-26.018,0-38.837c0.377,0,0.377,0,0.753,0l0,0
			c1.132,0.377,2.64,0.377,3.771,0.377c0.377,0.755,0.377,1.508,0.755,1.885v-0.377c0-0.753,0-1.13,0-1.508
			c2.263,0.377,4.901,0.377,7.541,0.377c1.13,0,2.64,0,3.771,0.377c0,0,0,0.376,0,0.753l0,0c-3.016,0.377-6.033,0.755-9.049,0.755
			c-0.755,0.377-1.885,0.377-3.018,0.753c3.771,0.377,7.918,0.377,12.444,0c0,1.132,0,2.263,0.377,3.395
			c0,3.016,0.376,6.409,1.13,9.802c0.377,1.885,0.755,3.395,1.508,4.903c-0.377,0.377-0.377,0.377,0,1.13
			c0,0.377,0.377,0.755,0.755,1.132c0.753,2.638,1.508,5.278,3.016,7.917c-1.13-0.376-1.885-1.13-2.638-1.508c0,0,0,0-0.377,0
			c0,0-0.377,0-0.377,0.377c-0.377,0-0.377,0-0.377,0.377c1.508,1.13,3.018,2.263,4.903,3.393c0,0.377,0.376,0.755,0.376,1.508
			c0.377,0,0.377,0.377,0.377,0.755c-0.377-0.377-0.753-0.755-1.508-1.132c-0.377-0.376-0.755-0.376-0.377,0
			c0.755,1.132,1.885,1.885,3.018,3.018c1.508,1.885,3.393,3.393,5.278,4.523c-0.377-0.376-0.377-0.753-0.377-1.13
			c2.64,1.508,5.656,2.64,9.049,3.771c3.393,0.755,6.788,1.13,10.181,0.377c2.638,0.377,5.656,0,8.671-0.755
			c7.164-1.885,11.689-6.033,13.197-12.442c4.525-6.411,6.033-13.574,4.903-21.87l0,0c0-0.376,0-0.753,0-1.13
			c1.13,1.13,2.261,1.508,3.771,2.263c0-0.377,0-0.377-0.377-0.377c-0.755-1.13-1.885-1.885-3.393-2.64
			c0.376-2.261,0.376-4.523,0-6.786c15.458,0,30.54,0,45.999,0.377c-0.377,0.753-0.377,1.885-0.753,3.016l0,0
			c-0.377-0.377-0.755-0.377-0.377,0c0,0,0,0,0.377,0.377c-2.263,10.557-2.64,21.115-1.885,31.672
			c0.753-1.13,1.13-2.263,1.508-3.771c0,1.132,0,2.263,0.377,3.771c0,0,0,0,0,0.377c0,0,0,0-0.377,0c0,1.13,0,1.885,0.377,2.263l0,0
			c0,0.753,0,1.508,0.376,2.263c0.377,0,0.755,0,0.755,0.376c0.377-0.376,0.755-0.753,1.13-1.13c0,0,0,0,0-0.377
			c0.377,0,0.377,0,0.755-0.377l0,0c0,0.377,0,1.132,0.377,1.885c0.377,0.377,0.753,0.755,1.13,1.132
			c0.377,0,0.755-0.377,1.508-0.755c0,0,0-0.377-0.376-0.377c0-0.376-0.377-0.376-0.377-0.753c0-0.377,0-1.132,0-1.508
			c0,0,0,0,0.377,0c0-9.426,1.13-18.1,3.016-27.148l0,0c1.885,0.755,3.393,1.508,5.656,2.263c0-0.377,0-0.377-0.377-0.377
			c-1.508-0.755-3.393-1.885-4.901-2.64c0.377-3.393,1.508-6.786,2.263-10.179c1.885,0.377,3.393,0.377,4.901,0
			c7.541,0,15.082,0,22.623,1.13c5.278,0.377,10.557,0.755,15.837,0c0,2.64,0.376,5.278,0.753,7.918c0,0.377,0,0.755,0,1.13
			C364.813,328.597,364.437,327.842,364.06,327.465z M368.207,351.973c0-0.377,0-0.753,0-1.13c0,1.508,0,3.016,0.376,4.901
			C368.207,354.236,368.207,353.106,368.207,351.973z M362.174,391.186c-0.755,1.132-1.885,2.263-2.64,3.018
			c1.508-3.018,3.018-6.411,4.148-9.804c-0.377,0.377-0.377,0.755-0.377,1.13c0.377-0.376,0.755-0.753,0.755-0.753
			c0.753-5.278,1.508-10.181,1.885-15.082c-0.377,6.409-1.132,12.819-2.263,19.23C363.305,389.678,362.927,390.433,362.174,391.186z
			 M368.207,356.121c0.376-0.377,0.376-0.377,0.376-0.377c0.377,5.278,0.755,10.181,1.132,15.459c0,0.377-0.377,1.13-0.755,1.885
			c0-1.508-0.377-2.64-0.377-4.148l-0.376,0.377C368.207,364.793,368.583,360.269,368.207,356.121z M370.468,380.63
			c0,1.13,0,2.263,0,3.393c0,0-0.376,0-0.376,0.377C370.093,382.892,370.093,381.76,370.468,380.63z M367.83,386.285
			c0,0.377,0,0.755,0,1.13c-0.377,0.377-0.755,0.755-0.755,1.132C367.075,387.793,367.453,387.04,367.83,386.285z M257.731,300.319
			c0,0,0,0,0-0.377c-0.377-2.263-0.753-4.525-0.753-6.788c0.376,0.755,0.753,1.132,0.753,1.885
			C258.108,296.548,258.108,298.433,257.731,300.319z M248.304,275.055c2.263,3.771,4.525,7.918,6.411,12.442
			c0,7.541,0.377,15.082,1.13,22.247c-13.95,0.753-28.279,1.13-42.229,1.508c0-8.296-0.755-16.59-1.132-24.886
			c0.377-0.755,0.755-1.885,1.132-2.64c3.771-7.917,9.802-13.197,17.343-16.212c2.263-1.13,4.148-1.508,6.033-2.263
			c1.885,1.132,3.771,2.263,5.278,3.771C244.534,270.907,246.419,272.793,248.304,275.055z M194.387,224.531
			c0.753,0,1.13,0,1.508,0.377c-0.377,0-1.13,0-1.508,0C194.387,224.531,194.387,224.531,194.387,224.531z M190.239,227.169
			L190.239,227.169h0.377c-1.508,2.64-2.64,4.903-3.771,7.918C187.223,232.072,188.354,229.432,190.239,227.169z M185.714,252.055
			c0,0.377,0.377,1.132,0.377,1.885c0,1.885-0.377,4.148-0.377,6.411c0-2.263,0-4.525-0.376-6.788
			C185.338,253.187,185.338,252.432,185.714,252.055z M206.076,278.448c0.376-0.377,0.753-0.753,1.508-1.13
			c-0.755,0.753-1.132,1.508-1.508,2.638c0-0.376,0-0.753,0-0.753C206.076,278.826,206.076,278.826,206.076,278.448z
			 M187.976,283.351c0-0.377,0-0.755,0.377-1.132c0.755,6.033,1.13,12.066,1.13,18.1c-0.376,4.146,0,7.917,0.755,11.687
			c-0.755,0-1.885,0-2.64,0c0-0.753,0-1.508,0-2.261c0.377,0.753,1.132,1.13,1.885,0.753c0-0.377-0.376-1.13-0.753-1.885
			c0.377,0,0.753-0.377,0.753-0.377c-1.13-7.917-1.508-15.458-1.508-23.376C187.976,284.482,187.976,284.104,187.976,283.351z
			 M187.223,300.694c0.376,1.885,0.753,4.148,1.13,6.411c-0.377-1.13-0.755-2.263-1.13-3.016v-0.377
			C187.223,302.957,187.223,301.826,187.223,300.694z M207.206,305.974c-0.377-1.51-0.377-3.018-0.377-4.525
			c0.377-1.13,0.377-1.885,0.377-2.64c0,0,0,0.377,0.377,0.377c-0.377,2.64-0.377,5.278-0.377,7.918
			C207.206,306.727,207.206,306.35,207.206,305.974z M244.156,267.514c0,0,0.377,0,0.377,0.377c0,0,0,0,0,0.377
			c-0.377-0.755-1.13-1.132-1.508-1.51C243.403,267.137,243.781,267.137,244.156,267.514z M225.681,266.007
			c-1.13,0.377-1.885,0.753-2.638,1.13c0,0,0,0,0.376-0.377C224.173,266.384,224.928,266.007,225.681,266.007z M228.321,263.744
			c0,0,0,0-0.377,0v-0.377c0.377,0,0.755-0.377,1.13-0.753C228.699,262.989,228.699,263.366,228.321,263.744z M209.846,277.695
			c0.753-1.51,1.13-2.64,1.885-4.148c0.753-0.755,1.885-1.508,3.016-2.263c-0.377,0.755-1.13,1.885-1.508,2.64
			C211.731,275.055,210.977,276.186,209.846,277.695z M210.222,292.4c0.377-1.508,0.755-2.64,1.51-4.148
			c-0.377,7.541-0.755,15.459-0.755,23c-0.755,0-1.13,0-1.885,0C209.091,304.842,209.469,298.809,210.222,292.4z M242.271,313.515
			c1.132,0,2.263,0,3.395,0c-4.525,0.753-9.051,1.13-13.952,1.885c-3.771-0.377-7.541-0.377-11.312-0.377c0,0-0.377,0-0.755,0
			c0,0,0,0-0.376,0l0,0c-1.885,0-3.77,0-5.656,0c0-0.377,0-0.377,0-0.755c7.541-0.377,14.705-0.753,22.246-1.13
			C237.748,313.138,240.01,313.138,242.271,313.515z M210.599,314.268c0,0.377,0,0.755,0,0.755s0,0-0.377,0v-0.377c0,0,0,0-0.376,0
			l-0.377,0.377c-0.377,0-0.377-0.377,0-0.755C209.846,314.268,210.222,314.268,210.599,314.268z M209.846,318.794
			c0,0,0.376,0,0.753,0c0,3.016,0,6.409,0,9.804c-0.377-0.755-0.377-1.132-0.377-1.132c0-0.377,0-0.377,0-0.377
			c-0.376-0.376-0.376-0.753-0.376-1.13c-0.377-0.377-0.377-1.13-0.377-1.885c0.377-0.377,0.377-0.755,0.377-1.13
			c0-1.132,0-1.885,0-3.018C209.846,319.547,209.846,319.171,209.846,318.794z M209.846,317.286c0.376,0,0.753,0,0.753,0
			S210.222,317.286,209.846,317.286z M213.992,318.416c2.64-0.377,5.28-0.755,7.918-0.755c11.689,0,23.378,0.377,34.689,0.377
			c0.377,1.132,0.753,1.885,0.753,3.018c0.377,4.523,0,9.049-1.508,13.197c-1.508,4.523-3.393,9.049-5.656,13.197
			c-1.508,1.885-3.016,3.771-4.901,5.656c0-0.377-0.377-0.377-0.755-0.377c0,0,0-0.377-0.377-0.377c0-0.377,0-0.755,0-1.13
			c-0.753,0.376-1.13,1.13-1.508,1.508l0,0c-0.377,0-0.377,0-0.753,0c-0.377,0.377-0.755,0.377-1.132,0.753
			c-3.016,0.755-6.033,1.132-9.049,1.132c-3.016-0.377-6.411-1.508-9.049-3.018c-1.885-2.261-3.771-4.523-5.278-6.786
			c-0.377-0.377-0.377-0.755-0.755-0.755c0-0.376,0-0.376,0.377-0.376c-0.755-1.132-1.508-2.263-2.64-3.771
			c0-0.377-0.377-0.755-0.753-1.132c0-0.377,0-1.13,0-1.508c0.376-0.377,0.376-0.377,0.753-0.377
			c-0.377-0.377-0.377-0.753-0.377-0.753c0-1.885,0-3.771,0-5.28C213.992,326.712,213.992,322.564,213.992,318.416z
			 M210.977,340.284c0.377,0.377,0.755,0.755,0.755,1.51c0.753,1.885,1.885,3.771,2.638,6.031c0-0.376,0-0.376,0-0.376
			C212.862,344.81,211.731,342.547,210.977,340.284z M217.763,353.859c0.377,0.377,0.755,0.377,1.132,0.755
			c0.753,0.753,1.508,1.508,2.263,2.263c-1.132-0.377-2.263-0.755-3.77-1.51c-0.377-0.753-1.132-1.508-1.51-2.261
			c0.377,0.376,0.755,0.753,1.132,1.13C217.01,354.236,217.387,354.236,217.763,353.859z M247.551,351.596
			c-0.377,0.755-1.132,1.132-1.885,1.51c1.13-0.755,1.885-1.51,2.638-2.263c0,0.377-0.377,0.753-0.377,0.753H247.551z
			 M203.436,315.401c-1.13,0-2.263,0-3.393,0c-2.64,0.376-5.278,0.376-7.918,0.376c-0.377-0.753-0.377-1.508-0.377-2.261
			c3.771,0.376,7.541,0.753,11.689,0.753C203.436,314.646,203.436,315.023,203.436,315.401z M187.599,312.383
			c1.132,0.377,1.885,0.755,3.018,0.755c0,0.753,0.377,1.508,0.753,2.638c-1.508,0-2.638,0-3.771,0
			C187.599,314.646,187.599,313.515,187.599,312.383z M207.584,333.876c0,0,0,0,0.377,0.377c0,0.376,0,1.13,0,1.508
			C207.961,335.006,207.961,334.253,207.584,333.876z M184.583,388.548c0.377,0.377,0.377,0.753,0.755,1.508
			c-0.377-0.377-0.377-0.755-0.755-0.755C184.583,388.925,184.583,388.548,184.583,388.548z M243.026,359.137
			c0.755-0.376,1.13-0.376,1.508-0.376c0.377-0.377,0.377-0.377,0.377-0.377c1.13,0,2.263,0,3.393-0.377
			c-1.885,0.755-3.393,1.13-4.901,1.508C243.403,359.137,243.403,359.137,243.026,359.137z M245.666,357.252L245.666,357.252
			c0,0,0,0,0.376,0C245.666,357.252,245.666,357.252,245.666,357.252z M247.551,356.876c-0.377,0-0.377,0-0.377,0
			s0.377-0.377,0.753-0.755C247.551,356.499,247.551,356.499,247.551,356.876z M233.6,359.514c-0.377-0.377-0.755-0.377-1.13,0
			c-0.377-0.377-0.755-0.377-1.132-0.377C232.092,359.137,232.845,359.137,233.6,359.514z M223.043,356.121
			c0.376,0.755,1.13,1.13,2.261,1.885c0,0,0.377,0.377,0.755,0.377c-0.755,0-1.885-0.377-2.64-0.755
			c-0.753-0.753-1.13-1.508-1.885-1.885C221.911,355.744,222.288,356.121,223.043,356.121z M312.78,310.12
			c-0.377,0-0.377,0-0.377,0.377c-2.638,0-5.656,0-8.671,0C306.747,310.12,309.765,310.12,312.78,310.12z M312.403,350.466
			c0-1.13,0-1.885,0.377-3.016c-0.377,3.393,0,6.409,0,9.426c0-0.755-0.377-1.51-0.377-2.263c0-0.755,0-1.508,0-1.885
			c0-0.377,0-0.755,0-0.755C312.403,351.22,312.403,350.843,312.403,350.466z M274.698,313.515c-2.638,0-4.901,0.376-7.541,0.376
			c-1.508,0-2.638,0-3.771,0.377c0-0.377,0-0.377,0-0.377c1.132-0.376,1.885-0.376,3.018-0.376
			C269.042,313.515,271.682,313.515,274.698,313.515z M279.223,310.498c-3.771,0-7.541,0.377-11.689,0.755
			c-1.13,0-2.64,0-3.771,0.377c0-0.377,0-0.377,0-0.755C268.665,310.875,273.945,310.498,279.223,310.498z M263.009,318.794v-0.377
			h0.377C263.009,318.416,263.009,318.794,263.009,318.794z M258.485,318.039c0.377,0,0.377,0,0.753,0
			c0,1.132,0.377,2.263,0.377,3.018c0,0.753,0,1.13,0,1.508c-0.377-1.132-0.753-2.263-0.753-3.393
			C258.485,318.794,258.485,318.416,258.485,318.039z M254.337,311.63c0.377,0,1.13,0,1.885,0c-0.377,0-0.377,0,0,0
			c-0.755,0-1.508,0-1.885,0.376V311.63z M250.944,312.006c0.753,0,1.508,0,2.263-0.376v0.376
			C252.452,312.006,251.697,312.006,250.944,312.006z M263.009,334.253c-0.376,1.13-0.753,2.638-0.753,4.146
			c-0.755,3.018-1.508,5.656-2.263,7.918h-0.377c0,0-0.377,0-0.753,0.377c-0.377,1.13-0.755,2.263-1.132,3.016
			c-1.508,2.263-3.393,3.771-5.656,5.28c2.263-2.64,4.148-5.656,5.656-9.051c0.755-1.13,1.132-2.261,1.508-3.393
			C260.748,339.909,262.256,336.891,263.009,334.253z M252.075,347.45c0,0,0.377-0.377,0.377-0.755
			c-0.377,1.885-1.508,3.393-2.263,4.901c-0.377,0.377-0.753,0.755-1.13,0.755C250.189,350.843,250.944,349.335,252.075,347.45z"/>
		<path fill="#333333" d="M341.436,249.417c-0.377-0.377-0.755-0.377-0.755-0.755c-3.393-3.016-7.164-5.656-11.311-7.918
			l-0.377,0.377C332.763,244.514,336.911,247.154,341.436,249.417z"/>
		<path fill="#333333" d="M324.469,250.17c0.377,0,0.753,0,1.13,0.377c-0.377-1.13-1.13-1.508-2.263-1.508l-0.376-0.377
			c-3.771-3.016-7.541-6.033-11.689-9.426h-0.377c3.393,3.771,7.164,7.541,11.689,10.557
			C323.337,250.17,324.092,250.17,324.469,250.17z"/>
		<path fill="#333333" d="M333.896,250.547c0-0.377,0-0.377,0-0.377c-4.148-2.638-7.918-5.656-12.066-8.671
			c-0.377,0-0.753,0-0.377,0c3.395,3.016,6.788,6.033,10.181,9.049C332.388,250.547,333.141,250.547,333.896,250.547z"/>
		<path fill="#333333" d="M286.764,236.595h-0.377c5.278,3.395,10.934,6.788,17.345,10.181c0-0.377,0-0.377-0.377-0.377
			C298.076,242.629,292.42,239.613,286.764,236.595z"/>
		<path fill="#333333" d="M315.796,247.531c0-0.377,0-0.377,0-0.377c-5.278-2.263-10.179-4.903-14.327-8.296
			C304.862,242.629,309.765,245.646,315.796,247.531z"/>
		<path fill="#333333" d="M211.731,246.399c-0.377-0.377-0.755-0.377-1.132-0.753c-2.263-2.263-4.523-4.148-7.164-6.033
			c-0.377-0.377-0.755-0.377-0.377,0C205.698,242.629,208.337,244.891,211.731,246.399z"/>
		<path fill="#333333" d="M205.321,247.907c-1.13-1.13-2.64-2.261-4.148-3.016c-0.377-0.377-0.377-0.377-0.377,0
			c1.132,1.508,3.018,2.64,4.903,3.393C205.698,247.907,205.698,247.907,205.321,247.907z"/>
		<path fill="#333333" d="M192.124,241.121c-0.377-0.377-0.755-0.377-0.377,0c2.64,4.148,6.033,7.164,10.181,9.049
			c-0.377-0.377-0.377-0.377-0.377-0.377C197.78,247.154,194.764,244.136,192.124,241.121z"/>
		<path fill="#333333" d="M364.06,335.383c0-0.377,0-0.377-0.377-0.755c-1.508-1.885-3.393-4.146-4.901-6.031
			c-0.377-0.377-0.755,0-0.377,0C359.912,331.613,361.797,333.876,364.06,335.383z"/>
		<path fill="#333333" d="M324.847,326.335h-0.377c1.885,3.771,4.901,6.786,9.426,8.671c0.753,0,1.13,0,1.508,0
			c0-0.377,0-0.377,0-0.377C330.502,332.743,327.107,330.105,324.847,326.335z"/>
		<path fill="#333333" d="M333.141,327.088c-0.377-0.376-0.753,0-0.377,0c0.755,2.263,1.885,4.148,3.395,5.656
			c0.376-0.376,0.753-0.376,1.13-0.753l-0.377-0.377C335.026,330.483,333.896,328.973,333.141,327.088z"/>
		<path fill="#333333" d="M336.158,325.58c-0.377-0.377-0.755,0-0.377,0c1.885,3.771,4.523,6.033,7.918,7.918
			c0-0.377,0-0.377-0.377-0.377C340.682,330.858,338.043,328.22,336.158,325.58z"/>
		<path fill="#333333" d="M355.764,335.006c0-0.377,0-0.377-0.377-0.377c-4.901-2.261-8.671-5.656-11.687-9.802
			c-0.377-0.377-0.755,0-0.377,0C345.96,330.105,350.108,333.498,355.764,335.006z"/>
		<path fill="#333333" d="M356.519,371.958l-0.377,0.376c-0.377,6.411-2.263,12.444-5.656,18.1c-0.377,0-0.755,0.377-0.755,0.377
			c-2.638-1.885-5.278-3.771-7.541-5.656c-0.376-0.377-0.753-0.377-0.376,0c1.885,2.261,4.523,4.146,7.164,6.031
			c0,0.755,0.753,0.755,1.13,0.755c0.755,0.377,1.508,0.755,2.64,1.13c0-0.376-0.377-0.376-0.377-0.376
			c-0.755-0.377-1.13-0.755-1.508-1.132c0,0,0,0,0-0.377C355.386,385.53,357.272,379.122,356.519,371.958z"/>
		<path fill="#333333" d="M340.682,384.777c-0.377,0.377-0.377,0.377-0.377,0.377c-0.376,0.753-0.376,1.13-0.376,1.508
			c3.016,4.148,6.786,7.541,11.312,10.179c0.376,0,0.753-0.376,0.753-0.753c-4.148-2.263-7.918-5.656-10.934-9.426
			c0-0.377,0-0.377,0-0.755C340.682,385.53,340.682,385.155,340.682,384.777z"/>
		<path fill="#333333" d="M339.174,393.826c-0.377,0-0.755,0-0.377,0.377c1.132,2.263,3.018,3.771,5.656,4.901
			c0-0.377-0.377-0.377-0.377-0.377C342.19,397.219,340.682,395.712,339.174,393.826z"/>
		<path fill="#333333" d="M339.551,400.237c-1.508-1.51-3.393-3.018-5.656-3.771h-0.377c1.885,1.508,3.771,3.016,6.411,4.146
			C339.929,400.237,339.929,400.237,339.551,400.237z"/>
		<path fill="#333333" d="M196.649,322.942l-0.377,0.376c1.13,1.51,2.263,3.395,3.393,4.903c1.508,1.13,3.016,1.508,4.525,1.508
			c0-0.377,0-0.377,0-0.377C201.173,327.842,198.535,325.957,196.649,322.942z"/>
		<path fill="#333333" d="M192.879,325.58c-0.377-0.377-0.755-0.377-0.377,0c1.885,3.393,4.148,5.656,7.164,6.788
			c-0.377-0.377-0.377-0.377-0.377-0.755C196.649,330.105,194.764,327.842,192.879,325.58z"/>
		<path fill="#333333" d="M189.861,318.794c-1.13,5.656-1.13,11.689-0.377,18.098c0.377,6.411,0.755,13.197,0.377,19.607
			c0,7.918,0.755,15.459,3.018,22.246c-0.755-5.278-1.132-10.181-1.132-15.459C191.369,348.58,190.616,333.498,189.861,318.794z"/>
		<path fill="#333333" d="M191.369,387.793c-0.753,0-1.13,0-0.376,0.755c4.901,5.656,11.312,9.426,18.475,12.064
			c0-0.376,0-0.376-0.377-0.376C202.681,396.842,196.649,393.071,191.369,387.793z"/>
		<path fill="#333333" d="M202.681,390.433h-0.376c3.771,3.771,7.917,6.409,12.442,8.671c0.755,0,1.508,0,2.263,0
			c0.377,0,0.753,0,0.753,0c0-0.377,0-0.377,0-0.377c-2.638-0.376-4.523-1.885-6.031-3.771c0,0.755,0.753,1.51,1.13,2.263
			C209.091,395.334,205.698,393.071,202.681,390.433z"/>
		<path fill="#333333" d="M216.632,394.581v0.376c1.885,0.755,4.148,1.885,6.411,2.64c0.376,0,0.753,0,0.753-0.377
			c0,0-0.377-0.377-0.753-0.377C221.158,395.712,218.895,395.334,216.632,394.581z"/>
		<path fill="#333333" d="M224.551,390.056c0,0,0,0-0.377,0h-0.377l-0.377,0.377v0.377c5.656,4.146,12.066,6.786,18.477,8.294
			c0-0.377,0-0.377,0-0.377C235.862,396.089,230.207,393.071,224.551,390.056z"/>
		<path fill="#333333" d="M235.862,389.301c-0.377,0-0.755,0-0.377,0c4.148,4.148,8.671,7.165,13.952,8.673
			c-0.377-0.377-0.755-0.377-1.51-0.755C243.781,394.957,240.01,392.319,235.862,389.301z"/>
		<path fill="#333333" d="M307.502,330.483c0-0.377,0-0.377-0.377-0.377c-3.016-3.018-5.656-6.033-7.918-9.426l-0.377,0.377
			C299.961,325.58,302.977,328.597,307.502,330.483z"/>
		<path fill="#333333" d="M294.683,331.99c0-0.377-0.377-0.377-0.377-0.377c-3.017-2.64-6.033-4.901-9.426-7.164c0,0,0,0-0.377,0
			c0,0.377,0,0.377-0.377,0.377c0,0.376,0,0.376,0,0.753v0.377c0,0.377,0,0.377,0.377,0.377c0,0.377,0,0.377,0,0
			c0.377,0,0.377,0,0.377-0.377c0.753,0.377,1.13,0.755,1.885,1.13C289.027,328.973,291.665,330.858,294.683,331.99z"/>
		<path fill="#333333" d="M272.435,324.827c-0.376-0.755-0.753-1.51-1.13-2.263c0.377,3.771,3.016,6.409,7.541,7.164
			c-1.13-1.13-2.263-1.508-3.771-2.263c-0.377-1.13-1.13-1.885-2.263-2.263C272.813,325.202,272.813,324.827,272.435,324.827z"/>
		<path fill="#333333" d="M284.879,328.973c-0.755-0.753-1.885-1.13-3.393-1.13c0-0.377-0.377-0.377-0.377-0.377
			c-1.885-1.508-3.393-3.393-4.525-5.278h-0.377C277.338,326.712,280.354,328.973,284.879,328.973z"/>
		<path fill="#333333" d="M253.207,395.712c-0.377-0.377-0.377-0.377-0.377,0c2.263,1.885,4.524,3.393,7.164,4.525
			c-0.377-0.377-0.377-0.377-0.377-0.755C257.353,398.352,255.468,396.842,253.207,395.712z"/>
		<path fill="#333333" d="M264.519,391.186c-0.377-0.376-0.755,0-0.377,0c3.771,3.771,8.294,6.033,13.197,7.165
			c0-0.377,0-0.377,0-0.377C272.435,396.466,268.289,394.204,264.519,391.186z"/>
		<path fill="#333333" d="M276.583,390.056l-0.377,0.377c4.903,3.771,10.559,7.541,16.967,10.179c0.377,0,0.755-0.376,1.132-0.753
			c-3.771-2.263-7.541-4.148-11.689-5.278c-0.377-0.377-0.377-0.377-0.377-0.377C280.354,392.696,278.468,391.186,276.583,390.056z"
			/>
		<path fill="#333333" d="M298.453,392.319c-0.377,0-0.377,0-0.377,0c3.016,4.148,7.541,6.786,13.197,8.294
			c0.377,0,0.753,0,0.753-0.376c0,0-0.376,0-0.753-0.377C306.37,397.974,302.224,395.712,298.453,392.319z"/>
		<path fill="#333333" d="M286.764,392.319v0.377c4.524,2.261,9.804,4.523,15.459,6.409c-0.377-0.377-0.377-0.377-0.377-0.377
			C296.568,396.466,291.665,394.204,286.764,392.319z"/>
		<path fill="#333333" d="M316.551,399.105c0-0.377,0-0.377,0-0.377c-3.016-0.376-5.278-1.885-6.786-3.771
			C310.518,397.597,313.158,399.105,316.551,399.105z"/>
		<path fill="#333333" d="M327.862,401.367c0-0.377,0-0.377,0-0.377c-4.525-1.13-8.296-3.771-11.312-6.786
			c-0.755-0.377-0.755,0-0.377,0.377C319.191,398.727,322.961,400.99,327.862,401.367z"/>
		<path fill="#333333" d="M229.074,328.597l-0.376-0.377c0-0.377-0.377-0.377-0.755-0.755c-1.13-0.753-2.263-1.508-3.393-2.638
			h-0.377c1.13,1.885,2.64,3.016,4.148,4.146C228.699,328.973,228.699,328.597,229.074,328.597z"/>
		<path fill="#333333" d="M233.222,325.957c0-0.377-0.377-0.377-0.753-0.377c-0.755-0.377-1.51-0.753-2.263-1.13v0.377
			c1.13,0.376,1.885,0.753,2.638,1.885c0.377,0,0.377-0.377,0.755-0.377L233.222,325.957z"/>
		<path fill="#333333" d="M215.502,322.942l-0.377,0.376c2.263,3.018,5.278,4.903,8.671,6.033c-0.377-0.377-0.377-0.377-0.377-0.377
			C220.403,327.088,217.763,325.202,215.502,322.942z"/>
		<path fill="#333333" d="M250.189,322.942l-0.377,0.376c0.755,2.64,2.263,5.28,4.903,7.165c0.753,0.376,1.13,0.376,1.508,0.753
			c0.377-0.377,0.377-0.753,0.377-0.753c0-0.377-0.377-0.377-0.755-0.755C253.207,327.842,251.322,325.58,250.189,322.942z"/>
		<path fill="#333333" d="M379.519,276.563c-4.525,0.755-6.411,3.393-6.033,7.918c0.377,3.771,1.13,7.164,2.263,10.557
			c0.376,0.755,1.13,1.51,1.885,2.263c4.901,3.771,10.179,4.148,16.212,0.377c0.755-1.13,1.13-2.263,1.508-3.393
			c0.377-1.132,0.377-2.64,0.377-3.771c0.377,0,0.377,0,0.755-0.377c0,0,0,0,0-0.377c0,0,0-0.377-0.377-0.377
			c0-0.376-0.377-0.753-0.377-0.753C394.224,280.334,388.945,276.186,379.519,276.563z M387.813,282.974c-1.13,0-1.13,0-0.753,0.377
			c2.261,0.753,4.146,2.261,5.656,3.771c0.376,1.508,0.376,3.393,0,4.901c-3.018-3.393-6.033-7.164-9.051-10.557h-0.376
			c1.885,4.901,4.901,8.671,9.426,11.312c-0.755,0.376-1.51,0.753-1.885,1.13c-0.377-0.377-0.377-0.755-0.377-0.755
			c-0.377,0-0.755,0-1.132-0.376c0,0,0,0-0.376-0.377c-3.018-2.64-6.033-5.656-8.296-9.426c0,0,0,0-0.377,0
			c-0.753,0-1.13,0.377-0.753,1.13c0,0.377,0,0.377,0,0.755c2.261,3.016,4.523,6.033,7.541,8.294
			c0.376,0.377,0.376,0.377,0.376,0.755c0,0,0,0.377,0.377,0.377c0,0.377,0.377,0.377,0.377,0.377c0,0.376-0.377,0.376-0.755,0.376
			c-3.393-3.771-6.786-7.164-10.179-10.557c1.13-1.13,2.638-2.263,4.148-3.016c3.016-0.755,5.656-0.755,7.917,0
			c0.377,0.753,0.755,1.13,1.132,1.508c0.753,0.753,1.13,1.508,1.508,2.263C390.831,284.482,389.321,283.727,387.813,282.974z
			 M376.124,281.466c0-0.377,0-1.132,0.377-1.51c0-0.376,0.377-0.376,0.755-0.753c0.377,0,0.753-0.377,1.13-0.377
			c3.018-1.13,5.656-0.755,8.296,0.377c-4.148,0-7.918,1.13-10.559,4.148C376.124,282.596,376.124,282.219,376.124,281.466z
			 M376.501,289.007c0-1.132,0-2.263,0-3.018c2.64,3.018,5.278,6.411,8.296,9.049c-1.885,0-3.771-0.753-5.656-1.885v-0.376
			c0-0.377,0-0.377-0.377-0.755c0,0-0.377-0.377-0.755-0.377c0-0.377-0.376-0.377-0.753-0.377
			C376.879,290.515,376.879,289.76,376.501,289.007z M391.961,295.038c0.377,0,0.755,0,0.755,0l0,0
			c-0.377,0.377-0.377,0.755-0.377,1.132c-0.755,0.753-1.508,1.13-2.263,1.508c-0.377-0.377-0.755-0.755-0.755-0.755
			C390.076,296.171,390.831,295.793,391.961,295.038z M384.797,297.678c0.753,0,1.508,0,2.263,0c0.376,0,0.753,0.377,0.753,0.755
			c-1.13,0-2.638,0-4.148-0.755C384.042,297.678,384.42,297.678,384.797,297.678z"/>
		<path fill="#333333" d="M390.453,322.564c-1.508,0-2.64,0-4.148-0.377c0,0.377-0.377,0.377-0.755,0.377
			c-3.016,1.508-5.656,3.771-7.164,6.033c-1.13,1.508-2.263,2.638-3.393,4.523c0.377,1.508,0.377,3.018,0.755,4.148
			c0.376,1.508,0.753,3.016,0.376,4.148c0.755,0.753,0.755,1.13,1.132,1.885c0,0,0,0,0.377,0c0-1.132,0-1.885-0.377-3.018
			c0-0.753-0.377-1.508-0.377-2.261c-0.377,0-0.377-0.377-0.377-0.377c-0.377-0.377-0.377-0.377-0.377-0.755v-0.377
			c0.377-0.753,0.377-1.13,0.377-1.885c0-0.376,0-0.753,0-1.13c0.377,0,0.377,0,0.377-0.377c0,1.132-0.377,2.263,0,3.771
			c0,2.64,1.508,4.903,3.771,6.033c2.64,1.508,4.901,2.263,6.786,2.64c0.755,0,1.132,0.376,1.51,0.753
			c0.376,0,0.753-0.377,1.13-0.753c-0.377,0-0.377,0-0.377,0c4.148-0.377,7.541-2.64,10.559-6.788
			c0.376-0.377,0.376-0.377,0.376-0.753c0-1.132,0-2.64,0-3.771c-0.376-0.755-0.376-1.132-0.376-1.885
			c-0.755-0.755-1.51-1.885-2.263-2.64C396.109,326.712,393.469,324.449,390.453,322.564z M387.813,324.072c0,0-0.377,0-0.377,0.377
			c-1.13-0.377-1.885-0.377-2.638-0.377c0.377-0.377,0.753-0.377,0.753-0.755c0.377,0,0.377,0,0.377,0c1.508,0,3.018,0,4.525,0
			c0,0.377,0,0.377,0.377,0.377c0,0.377,0.376,0.377,0.376,0.755h0.377C390.453,324.449,389.321,324.072,387.813,324.072
			L387.813,324.072z M383.665,328.973c-0.376,0-0.753,0-0.376,0.377c2.638,4.525,6.409,8.296,10.179,12.066
			c-0.753,0.377-1.885,0.753-2.638,1.13c-4.525-3.771-7.918-7.918-10.559-12.442c0-0.377,0-0.377,0-0.377
			c1.132-1.13,2.64-1.885,3.771-2.64c0.755,0,1.508,0,2.263,0h0.377c3.016,4.148,6.409,7.918,10.179,11.689
			c-0.753,0.755-1.508,1.132-1.885,1.508C391.206,336.514,387.436,332.743,383.665,328.973z M390.453,327.088c0,0,0,0,0.377,0
			c1.13,0.755,2.638,1.885,3.771,2.64c1.508,1.508,2.261,3.016,1.885,5.278c0.376,0,0.376,0.377,0.753,0.377
			c0,0.377,0,0.377,0,0.755c0,0.376,0,0.753,0,1.508c-3.016-3.771-6.033-7.164-9.426-10.559
			C388.568,327.088,389.321,327.088,390.453,327.088z M396.862,330.858c-0.753-0.753-1.885-1.508-2.638-2.261
			c-1.132-0.377-1.885-1.132-2.64-1.885c1.508,0.753,3.018,1.508,4.525,2.638C396.109,329.728,396.486,330.483,396.862,330.858z
			 M378.387,331.236c0.377,0,0.377,0,0.755-0.377c-0.377,0.377-0.377,0.377-0.377,0.377c0.377,0.377,0.377,0.377,0.377,0.755
			c0,0.377,0,1.13,0,1.885c0-0.377-0.377-0.755-0.755-1.132l0,0C378.387,331.99,378.387,331.613,378.387,331.236z M378.009,336.514
			c0-0.753,0-1.13,0-1.885c0.755,1.132,1.132,1.885,1.51,2.64c0.376,1.508,0.753,2.64,1.13,3.771c-1.13-1.13-1.885-2.263-2.64-4.148
			V336.514z M379.895,334.629c-0.376-0.753-0.376-1.508,0-1.885c1.51,1.885,3.018,4.148,4.525,6.033
			c1.508,1.885,2.64,3.393,4.148,4.148c-0.377,0-1.132,0-1.508,0.377C384.042,340.662,381.78,337.646,379.895,334.629z
			 M399.125,333.498c0,0.377,0,0.377,0.377,0.755c0,1.13,0,2.638-0.377,3.771v-0.377
			C399.502,336.138,399.502,335.006,399.125,333.498z M394.977,341.794h0.377c-0.377,1.13-1.508,1.885-2.263,2.261
			c-0.376,0-0.376,0-0.376,0c0-0.376-0.377-0.376-0.755-0.376C393.091,342.924,394.224,342.547,394.977,341.794z M384.42,342.924
			c-0.377,0-1.13,0-1.885-0.377c-1.13-1.13-1.508-2.638-1.885-4.148C381.78,340.284,382.912,341.794,384.42,342.924z
			 M388.568,344.432c0.753,0,1.508-0.377,2.263-0.377c0.376,0,0.753,0.377,1.508,0.377c-1.132,0.377-1.885,0.377-3.393,0.377
			C388.945,344.81,388.945,344.81,388.568,344.432z"/>
		<path fill="#333333" d="M424.388,330.483c0-0.377,0-0.377-0.377-0.377c-4.148-3.018-7.918-6.788-10.934-10.934
			c-1.132,0-1.132,0.376-0.377,1.13c1.885,2.64,3.771,5.278,6.033,7.541C420.995,330.483,422.88,331.236,424.388,330.483z"/>
		<path fill="#333333" d="M409.306,319.171h-0.377c0,0,0,0-0.377,0c0,0.376,0,0.376,0,0.376s0,0,0,0.377v0.377
			c1.885,3.393,4.148,6.411,6.788,9.804c0.376-0.377,0.753-0.377,1.13-0.755c0,0,0-0.377-0.377-0.377
			C413.829,325.58,411.568,322.564,409.306,319.171z"/>
		<path fill="#333333" d="M415.339,385.53c-0.755,0-0.755,0-0.755,0.377c-0.377,0.755-0.377,1.132-0.377,1.885
			c4.148,3.771,8.673,7.541,13.197,10.559c0.377,0,0.755,0,0.755-0.377c0,0-0.377-0.377-0.755-0.377
			C422.88,393.826,418.732,389.678,415.339,385.53z"/>
		<path fill="#333333" d="M425.141,387.793c-0.753,0.755,0,1.885,1.885,3.393c4.903,3.395,9.804,6.033,15.082,7.541
			c-0.376,0-0.376,0-0.376-0.376C436.077,394.957,430.796,391.186,425.141,387.793z"/>
	</g>
</g>
</svg>
