<?xml version="1.0" encoding="utf-8"?>
<!-- Generator: Adobe Illustrator 17.0.0, SVG Export Plug-In . SVG Version: 6.00 Build 0)  -->
<!DOCTYPE svg PUBLIC "-//W3C//DTD SVG 1.1//EN" "http://www.w3.org/Graphics/SVG/1.1/DTD/svg11.dtd">
<svg version="1.1" id="Layer_1" xmlns="http://www.w3.org/2000/svg" xmlns:xlink="http://www.w3.org/1999/xlink" x="0px" y="0px"
	 width="355px" height="402px" viewBox="0 0 355 402" enable-background="new 0 0 355 402" xml:space="preserve">
<g>
	<g>
		<path fill="#131110" d="M133.354,174.985c0.702,1.779,0.119,3.791,0.364,5.652c0.174,1.315,0.626,2.397,1.236,3.541
			c0.36,0.671,0.87,1.315,1.057,2.062c0.265,1.029,0.149,2.167,0.456,3.232c0.282,0.964,0.731,1.881,1.042,2.841
			c0.478,1.47,0.439,2.818,0.368,4.37c-0.161,3.387,0.878,7.184,2.382,10.186c0.138,0.29,0.285,0.575,0.429,0.865
			c1.701,8.424,6.99,16.259,7.109,24.946c0.034,2.338,2.407,3.903,3.005,6.02c0.457,1.628,0.638,3.426,0.917,5.093
			c0.339,1.966,0.908,3.988,0.927,5.987c0.015,1.378-0.09,2.706,0.171,4.077c0.25,1.332,1.203,2.39,1.542,3.699
			c0.603,2.298-0.445,5.106,0.462,7.303c0.071,0.174,0.169,0.339,0.279,0.503c0.143,0.766,0.322,1.529,0.388,2.262
			c0.199,2.259,0.123,4.587-0.169,6.849c-0.363,2.825-0.161,5.764-0.296,8.621c-0.122,2.798,0.141,5.685,0.391,8.46
			c0.403,4.37,1.401,8.726,3.328,12.712c0.015,0.026,0.03,0.053,0.046,0.085c0.107,0.45,0.209,0.904,0.321,1.351
			c0.207,0.819,0.345,1.618,0.307,2.463c-0.087,1.726-1.021,3.525-1.462,5.221c-0.432,1.644-0.858,3.374-0.94,5.09
			c-0.076,1.539-0.049,2.943-0.904,4.245c-1.567,2.38-2.744,5.198-4.557,7.451c-0.648,0.805-1.514,1.332-2.196,2.095
			c-0.539,0.608-0.589,1.377-0.387,2.137c-1.105,0.713-2.236,1.348-3.419,1.864c-1.453,0.631-2.4,0.977-3.983,0.977
			c-1.739,0-3.392,0.069-5.075,0.326c-1.443,0.224-3.163,0.26-4.526,0.69c-0.746,0.243-1.736,1.361-1.678,2.348
			c-0.257,0.138-0.182,0.302-0.102,0.865c0.076,0.493,0.194,0.901,0.316,1.378c1.695,0.473,3.419,1.164,5.146,1.473
			c1.744,0.329,3.52,0.306,5.32,0.306c4.169,0,8.378-0.046,12.544,0.155c2.106,0.099,3.972-0.164,6.043-0.477
			c0.777-0.122,3.891-0.953,4.031,0.237c1.96,0.339,4.025,0.217,6.044,0.312c2.213,0.102,4.483,0.191,6.732,0.079
			c0.664-0.023,1.552,0.013,2.195-0.165c0-0.006,0.002-0.006,0.002-0.006c-0.298,0.671-0.421,1.47-0.368,2.173
			c0.058,0.904,0.646,0.845,1.534,1.056c1.23,0.299,2.499,0.552,3.768,0.562c3.02,0.023,6.05,0.109,9.066,0.234
			c3.739,0.155,7.679-0.444,11.309-0.921c-0.02,0.197,0.107,0.329,0.104,0.52c2.354,0.122,4.699-0.135,7.046-0.21
			c1.5-0.059,2.982-0.24,4.48-0.24c0.743,0.003,1.665,0.105,2.303-0.234c1.475-0.749,1.641-3.508,1.698-4.919
			c0.011-0.26,0.018-0.526,0.021-0.782c0.373,0.016,0.746,0.023,1.12,0c0.066-1.634,0.758-3.268,0.863-4.909
			c0.127-1.96-0.061-4.37-0.252-6.405c-0.309-3.311-0.432-7.03-1.31-10.213c-0.144-0.529-0.442-0.901-0.794-1.223
			c-0.077-0.227-0.146-0.464-0.205-0.694c-0.076-0.299-0.143-0.622-0.217-0.931c0.286-0.553,0.493-1.21,0.699-1.674
			c0.451-1.026,1.009-2.084,1.291-3.17c0.641-2.545,0.868-5.323,0.875-8.065c0.279-3.637,0.084-7.319-0.246-10.939
			c-0.221-2.397-0.224-4.873-0.709-7.207c-0.834-4.008-1.517-8.043-2.732-11.949c-0.224-0.723-0.71-1.697-0.561-2.384
			c0.062-0.289,0.376-0.404,0.391-0.769c0.01-0.224-0.245-0.615-0.329-0.842c-0.322-0.874-0.123-0.917,0.099-1.785
			c0.16-0.651,0.138-1.355-0.212-1.917c-0.294-0.454-1.008-0.907-0.955-1.529c0.072-0.799,1.061-0.924,1.343-1.542
			c0.289-0.638-0.324-0.907-0.97-1.085c0.041-0.118,0.086-0.237,0.117-0.362c0.273-0.954,0.099-1.24-0.405-2.095
			c-0.445-0.756-0.74-1.009-0.307-1.844c0.355-0.677,0.947-1.568,0.867-2.305c-0.089-0.76-0.914-1.611-1.255-2.308
			c-0.411-0.868-0.681-1.746-0.883-2.657c0.164-0.625,0.321-1.259,0.44-1.9c0.372-1.957,0.017-3.673-0.416-5.616
			c-0.567-2.532-1.023-5.106-1.276-7.678c-0.638-6.428-0.291-12.938-0.779-19.386c-0.235-3.005-0.082-6.093-0.082-9.095
			c0-1.131-0.039-2.272-0.07-3.416c0.71-0.016,1.422-0.043,2.129-0.102c4.246-0.362,7.618-2.338,10.786-5.097
			c1.595-1.394,1.202-2.341,0.462-4.196c-1.182-2.982-2.298-5.971-3.304-9.016c-1.715-5.208-3.226-10.551-4.309-15.93
			c-0.651-3.236-1.037-6.481-1.554-9.733c0.424-0.352,0.903-0.552,1.338-0.858c0.358-0.257,1.045-0.868,1.197-1.269
			c0.309-0.789-0.189-1.861-0.054-2.676c0.128-0.776,0.533-0.884,1.225-1.253c1.087-0.582,1.33-1.111,1.924-2.213
			c0.866-1.631,2.423-3.551,2.691-5.379c0.196-1.279-0.72-2.538,0.309-3.521c0.61-0.585,1.021-0.674,1.368-1.46
			c0.268-0.618,0.692-0.993,1.251-1.559c1.065-1.075,1.649-2.861,2.053-4.31c0.538-1.93-0.144-3.38-0.595-5.29
			c-0.393-1.667-0.214-3.462-0.518-5.185c-0.408-2.318-1.227-4.597-1.884-6.852c-0.761-2.62-1.166-5.389-1.751-8.056
			c-0.37-1.703-0.774-3.403-1.248-5.077c-0.284-0.99-0.538-2.009-1.014-2.913c-0.603-3.864-1.948-7.342-3.341-11.035
			c-1.419-3.781-1.896-7.23-2.185-11.189c-0.23-3.13-1.102-6.307-2.543-9.101c-0.666-1.289-1.633-2.305-3.134-2.305
			c-0.103,0-0.21,0.01-0.321,0.023c-0.513-0.812-1.192-1.473-2.066-1.864c-1.325-0.598-2.698-0.894-4.094-1.154
			c-1.455-0.273-2.798-0.727-4.217-1.059c-1.453-0.352-2.88-0.7-4.246-1.421c-1.644-0.871-3.084-1.881-4.769-2.617
			c-1.167-0.51-2.331-0.806-3.556-0.75c-0.136-0.263-0.293-0.51-0.485-0.717c-0.531-0.562-1.406-1.213-2.014-1.545
			c-0.919-1.026-2.119-1.802-2.982-2.907c-0.473-0.608-0.49-0.934-1.33-0.911c-0.433,0.013-0.886,0.109-1.305,0.237
			c-0.232-0.24-0.464-0.48-0.702-0.717c0.011-1.522,0.11-3.045,0.253-4.521c0.131-1.318,0.69-2.713,1.082-4.005
			c0.077-0.26,0.144-0.529,0.209-0.805c0.1,0.049,0.204,0.086,0.311,0.122c1.327,0.362,2.732-0.391,3.229-1.621
			c0.242-0.582,0.242-1.22,0.441-1.785c0.225-0.628,0.575-1.174,0.732-1.832c0.309-1.312,0.429-2.509,0.848-3.827
			c0.437-1.381,0.319-2.686-1.486-2.486c-0.21,0.027-0.411,0.072-0.613,0.122c0.26-1.332,0.315-2.703,0.076-4.011
			c0.085,0.079,0.228,0.131,0.296,0.197c0.102-0.605-0.23-1.171-0.293-1.763c-0.041-0.47-0.003-0.937-0.079-1.391
			c-0.151-0.96-0.396-1.805-0.459-2.837c-0.102-1.628-0.572-1.884-1.692-2.986c-0.745-0.723-1.267-1.802-1.978-2.62
			c0.564-0.086,1.098,0.221,1.526,0.572c-0.855-1.102-1.583-1.986-2.954-2.437c-0.531-0.168-1.54-0.52-2.33-0.52
			c-0.248-0.253-0.51-0.487-0.804-0.651c-0.584-0.332-1.72-0.819-2.372-0.812c-0.022,0.246,0.023,0.506,0.14,0.733
			c-0.485-0.358-0.817-1.098-1.526-0.967c0.03,0.214-0.018,0.454,0.071,0.661c-0.559-0.766-2.04-0.845-2.908-0.98
			c-0.526-0.079-0.975-0.02-1.483,0c-0.501,0.02-0.929-0.122-1.442-0.148c-3.827-0.243-7.903,2.285-10.939,4.248
			c-0.299,0.191-0.62,0.246-0.789,0.516c-0.233,0.355,0.039,0.513-0.289,0.766c-0.345,0.263-0.599,0.026-0.923,0.385
			c-0.194,0.217-0.185,0.694-0.325,0.924c-0.539,0.934-1.886,1.624-2.284,2.542c0.217,0.099,0.316,0.24,0.587,0.227
			c-0.303,0.21-0.616,0.5-0.753,0.851c-0.171,0.464-0.016,0.319,0,0.773c0.035,0.73-0.094,1.512-0.171,2.278
			c-0.127,1.365-0.151,2.749-0.059,4.1c0.094,1.276,0.23,2.847,0.561,4.074c0.102,0.388,0.315,0.937,0.595,1.236
			c0.191,0.2,0.534,0.516,0.862,0.799c-0.023,1.055,0.011,2.104,0.21,3.127c0.49,2.482,1.534,4.899,1.933,7.382
			c0.395,2.453,2.076,4.988,3.709,6.905c0.546,0.628,1.146,1.082,1.807,1.414c-0.003,0.049-0.008,0.099-0.017,0.148
			c-0.025,0.177-0.053,0.352-0.086,0.526c-0.189,0.973-0.559,1.91-1.282,2.834c-0.082,0.102-0.15,0.21-0.219,0.315
			c-0.077,0.02-0.156,0.053-0.225,0.089c-0.899,0.47-1.023,1.989-1.361,2.851c-0.131,0.322-0.27,0.647-0.411,0.973
			c-0.253,0.086-0.506,0.174-0.77,0.253c-1.17,0.368-2.277,0.901-3.378,1.539c-1.36,0.789-2.816,1.282-4.232,1.851
			c-2.57,1.029-5.271,1.805-7.709,3.127c-1.682,0.911-3.661,1.7-4.835,3.219c-0.143-0.072-0.289-0.122-0.454-0.122
			c-1.211-0.007-1.822,3.482-2.14,4.465c-0.451,1.378-0.843,2.765-1.249,4.156c-0.597,2.052-0.434,4.14-0.459,6.307
			c-0.028,2.137-0.206,4.12-0.623,6.165c-0.317,1.572,0.227,3.032,0.16,4.62c-0.085,1.973-0.682,3.913-0.771,5.849
			c-0.043,0.907,0.174,1.766,0.075,2.68c-0.103,0.976-0.238,1.937-0.378,2.916c-0.237,1.628-0.96,3.492-0.712,5.08
			c0.102,0.651,0.511,1.263,0.551,1.92c0.046,0.651-0.293,1.253-0.554,1.855c-0.583,1.332-0.879,2.4-0.733,3.84
			c0.094,0.924-0.138,1.772-0.263,2.689c-0.038,0.299-0.064,0.562-0.056,0.793c-0.62,0.651-1.161,1.368-1.161,2.289
			c-0.005,1.598,1.448,2.913,1.905,4.389c0.753,2.436,0.4,4.909,0.164,7.398c-0.136,1.512,0.393,2.676,0.469,4.133
			c0.084,1.565-0.332,2.489,0.255,4.057c0.483,1.309,0.099,2.614,0.365,3.86c0.177,0.809,0.051,1.69,0.171,2.489
			c0.092,0.648,0.212,1.282,0.363,1.91c-0.237,0.553-0.477,1.102-0.705,1.608c-0.492,1.072-0.704,1.713-0.695,2.844
			c0.008,0.694-0.193,1.292-0.365,2.002c-0.5,2.006,0.725,4.547,1.522,6.385C131.378,171.309,132.599,173.054,133.354,174.985z
			 M178.262,260.545c-0.031-0.618,0.733-1.174,1.023-1.69c0.644-1.147,0.107-2.058-0.375-3.038c0.02-0.056,0.048-0.119,0.067-0.177
			c0.227-0.687-0.243-1.236-0.159-1.841c0.077-0.533,0.833-1.082,1.059-1.552c0.391-0.815,0.053-1.657-0.058-2.535
			c-0.199-1.611-0.403-3.222-0.615-4.837c-0.204-1.536-0.169-3.114-0.398-4.639c-0.148-1-0.388-1.92-0.388-2.94
			c0.003-2.732,0.296-5.418,0.4-8.154c0.069-1.756,0.174-3.515,0.286-5.268c0.536,0.96,1.042,1.946,1.389,2.995
			c0.586,1.749,1.437,3.394,2.059,5.126c0.516,1.424,0.975,2.854,1.562,4.242c1.036,2.459,1.688,5.001,2.478,7.539
			c1.33,4.258,2.267,8.572,3.345,12.905c0.447,1.825,0.312,3.755,0.96,5.465c0.691,1.818,1.116,3.633,1.373,5.573
			c0.189,1.45,0.174,2.969,0.82,4.31c0.375,0.763,0.783,1.506,1.213,2.236c0.546,6.201,1.154,12.458,2.366,18.597
			c1.161,5.892,1.654,11.745,1.072,17.769c-0.161,1.7-0.375,3.4-0.584,5.1c-0.603,2.108-1.322,4.156-2.181,6.208
			c-0.309,0.727-0.649,1.526-0.477,2.308c0.186,0.862,0.801,1.44,0.843,2.302c0.082,1.49-0.094,3.041-0.155,4.538
			c-0.044,1.085,0.378,2.949-0.209,3.87c-0.495,0.782-1.483,1.197-2.003,1.983c-0.207,0.319-0.988,1.308-1.008,1.611
			c-0.005,0.118,0.044,0.246,0.13,0.395c-0.23,0.118-0.455,0.237-0.679,0.378c-1.3,0.799-2.472,1.811-3.829,2.472
			c-1.323,0.664-3.102,0.865-4.555,1.065c-1.034,0.158-2.011,0.03-2.918,0.392c0.871-1.375,1.05-2.456,1.216-4.159
			c0.053-0.506,0.061-1.023,0.043-1.539c0.426-0.23,0.393-0.605,0.275-1.519c-0.464-3.472-1.294-6.994-1.463-10.486
			c-0.153-2.969-0.143-6.01,0-8.976c0.108-2.315,0.169-4.327,0.94-6.504c0.862-2.43,1.708-4.912,2.185-7.464
			c0.421-1.565,0.572-2.88,0.411-4.59c-0.299-3.344-0.534-6.724-0.944-10.081c-0.431-3.607-0.986-7.214-1.363-10.828
			c-0.357-3.492-0.662-7.102-1.673-10.479c-0.191-0.634-0.439-1.246-0.404-1.923c0.043-0.848,0.233-1.536-0.061-2.387
			C179.094,261.762,178.287,261.131,178.262,260.545z"/>
		<path fill="#FFFFFF" d="M139.108,152.846c1.304-1.23,2.92-3.689,2.92-3.689s-0.153-2.769-0.153-7.924
			c0-5.152,0.613-7.921,1.845-12.307c1.233-4.38,0.463-6.928,0.384-12.004c-0.077-5.077,1.156-9.841,2.155-15.227
			c0.998-5.389,3.313-12.156,4.771-15.855c1.463-3.689,1.383-6.609,2.925-9.995c1.535-3.387,3.226-7.309,3.459-8.309
			c0.232-0.996,0.664-6.846,0.618-9.226c-0.034-1.572,0.852-2.048,1.901-2.075c-0.02,0.963-0.143,1.848-0.291,2.456
			c-0.387,1.614,2.236,4.307,3.386,5.612c1.158,1.312,1.697,2.696,2.463,2.538c0.771-0.151,2.923-1.844,4.383-3.229
			c1.465-1.384,4.23-2.693,7.771-6.461c2.214-2.358,2.409-3.364,2.231-4.159c0.151,0,0.232,0.003,0.232,0.003
			c3.536,1.309,0.079,5.537-1.462,8.618c-1.539,3.074-2.155,7.612-4.462,16.309c-2.31,8.693-4.385,14.615-4.693,25.844
			c-0.308,11.232,4.772,25.62,8.621,34.62c3.839,9.003,13.53,22.46,13.53,22.46s-3.305,0.618-6.379,0.536
			c-3.081-0.076-10.234,0.312-14.002,0.391c-3.771,0.072-11.62,0.385-13.232,0c-1.613-0.391-1.845,0.072-2.849,0.385
			c-0.998,0.309-2.001,0.309-4.462,0.23c-2.46-0.079-4.769-1.618-5.766-2.617c-0.998-0.996-1.463-1.223-2.692-1.693
			c-1.233-0.464-2.541-0.769-4.003-1.924C136.797,155,137.794,154.083,139.108,152.846z"/>
		<path fill="#131110" d="M150.415,127.696c0.843-8.851,1.228-12.001,2.846-16.614c1.613-4.62,1.919-8.161,2.695-11.311
			c0.766-3.16,1.999-4.544,2.767-9.233c0.769-4.699,2.152-8.539,1.609-11.308c-0.263-1.384-0.455-2.834-0.225-4.163
			c-0.421-0.145-0.725-0.45-0.769-0.76c0,0,2.154-4.311,5.075-6.471l1.312,0.158c0,0,1.692,1.542,3,5.544
			c0,0-2.236,0.996-2.387,2.305c0,0-0.225,0.174-0.534,0.161c0.112,1.2,0.266,2.433,0.459,3.147
			c0.46,1.693,2.226,5.918,1.305,11.689c-0.923,5.77-2.612,11.929-2.538,16.085c0.079,4.156-0.766,9.611-1.307,13.389
			c-0.538,3.768-1.31,14.612-1.233,18.686c0.079,4.08,0.232,12.156,0.232,12.156s-1.614,1.999-3.229,4.235
			c-1.616,2.226-3.464,4.077-3.768,3.998c-0.309-0.072-2.078-1.927-3.543-3.772c-1.463-1.848-2.765-3.692-2.765-3.692
			S149.569,136.538,150.415,127.696z"/>
		<path fill="#FFFFFF" d="M203.364,180.176c0,0-2.971-2.262-6.116-5.504c-3.143-3.248-5.039-5.044-5.039-5.044
			s-0.745,0.309-1.419,0.911c-0.676,0.611-1.013,1.121,0.674,2.407c1.692,1.279,6.352,4.797,7.849,6.218
			c1.49,1.421,2.798,2.676,3.138,2.131C202.79,180.752,203.364,180.176,203.364,180.176z"/>
	</g>
</g>
</svg>
