<?xml version="1.0" encoding="utf-8"?>
<!-- Generator: Adobe Illustrator 17.0.0, SVG Export Plug-In . SVG Version: 6.00 Build 0)  -->
<!DOCTYPE svg PUBLIC "-//W3C//DTD SVG 1.1//EN" "http://www.w3.org/Graphics/SVG/1.1/DTD/svg11.dtd">
<svg version="1.1" id="Layer_1" xmlns="http://www.w3.org/2000/svg" xmlns:xlink="http://www.w3.org/1999/xlink" x="0px" y="0px"
	 width="800px" height="600px" viewBox="0 0 800 600" enable-background="new 0 0 800 600" xml:space="preserve">
<g>
	
		<linearGradient id="SVGID_1_" gradientUnits="userSpaceOnUse" x1="4324.332" y1="471.8621" x2="4324.332" y2="429.7035" gradientTransform="matrix(-1 0 0 1 4734.6621 0)">
		<stop  offset="0" style="stop-color:#FFFFFF"/>
		<stop  offset="0.2411" style="stop-color:#FDFEFF"/>
		<stop  offset="0.3759" style="stop-color:#F5FBFD"/>
		<stop  offset="0.4845" style="stop-color:#E7F5FB"/>
		<stop  offset="0.5792" style="stop-color:#D3ECF8"/>
		<stop  offset="0.6649" style="stop-color:#BAE2F5"/>
		<stop  offset="0.7439" style="stop-color:#9AD4F0"/>
		<stop  offset="0.818" style="stop-color:#75C4EA"/>
		<stop  offset="0.8881" style="stop-color:#49B2E4"/>
		<stop  offset="0.9527" style="stop-color:#1A9EDD"/>
		<stop  offset="0.9839" style="stop-color:#0093D9"/>
	</linearGradient>
	<path fill="url(#SVGID_1_)" d="M403.382,444.938c-0.814-1.676-2.765-3.59-3.928-5.614c-0.52-0.906-0.614-3.395-0.507-5.042
		c0.048-0.73,19.555-4.578,19.555-4.578c0.396,1.455,0.345,3.174-0.055,4.955c-0.205,0.92-0.52,4.15-0.746,6.724
		c1.607,2.044,4.584,7.992,3.971,9.558c-3.331,8.459-0.362,16.54,0.01,20.922h-18.725c-0.536-8.794-1.731-15.209-1.819-17.533
		C401.059,452.203,401.05,450.824,403.382,444.938z"/>
	
		<linearGradient id="SVGID_2_" gradientUnits="userSpaceOnUse" x1="4362.5938" y1="471.8621" x2="4362.5938" y2="418.9164" gradientTransform="matrix(-1 0 0 1 4734.6621 0)">
		<stop  offset="0" style="stop-color:#FFFFFF"/>
		<stop  offset="0.2411" style="stop-color:#FDFEFF"/>
		<stop  offset="0.3759" style="stop-color:#F5FBFD"/>
		<stop  offset="0.4845" style="stop-color:#E7F5FB"/>
		<stop  offset="0.5792" style="stop-color:#D3ECF8"/>
		<stop  offset="0.6649" style="stop-color:#BAE2F5"/>
		<stop  offset="0.7439" style="stop-color:#9AD4F0"/>
		<stop  offset="0.818" style="stop-color:#75C4EA"/>
		<stop  offset="0.8881" style="stop-color:#49B2E4"/>
		<stop  offset="0.9527" style="stop-color:#1A9EDD"/>
		<stop  offset="0.9839" style="stop-color:#0093D9"/>
	</linearGradient>
	<path fill="url(#SVGID_2_)" d="M369.836,467.055c0.297-1.704-1.898-11.851-2.057-15.911c-0.158-4.057,2.591-8.253,2.102-13.887
		c-3.73-4.969-12.63-4.779-15.448-5.801c-1.803-0.609-0.83-1.948-1.662-2.449c-0.654-0.393-1.087-1.645-0.529-2.262
		c0.558-0.623,38.16-8.952,38.954-7.701c0.677,1.062,0.385,3.695,0.354,4.77c0.331,3.08-1.894,7.313-0.307,10.84
		c1.012,2.429-0.951,8.833,0.338,12.582c1.45,4.233-0.33,11.353-0.21,24.625h-21.678
		C369.712,469.461,369.745,467.593,369.836,467.055z"/>
	<path d="M421.057,346.674c0.038,1.922,0.689,13.469,0.735,15.719c0.044,2.244-1.419,29.223-1.741,35
		c0.225,1.14,0.688,6.146,1.175,8.824c0.583,2.998,1.209,4.714,0.323,6.512c-1.271,2.579-3.593,5.249-4.244,6.945
		c0.04,0.725,0.246,6.865,0.633,7.692c2.733,5.861-3.433,9.504-5.616,10.458c-2.538,1.118-9.773,0.603-12.333-0.453
		c-0.838-0.351-1.137-1.846-1.118-2.542c0.085-3.618,1.011-3.468,2.578-8.369c0.636-2.146,2.177-6.724,2.115-7.766
		c-1.086-0.093-3.335-5.515-3.969-6.54c-0.688-1.529-0.638-3.446-0.108-5.099c0.531-1.659,1.294-11.083,1.591-12.373
		c0.296-1.291-2.312-28.263-2.818-34.9c-1.106-14.488-4.226-35.46-4.802-37.698c-0.661,4.404-1.937,21.45-1.676,41.609
		c0.018,2.034-1.135,14.177-1.425,15.891c-0.29,1.721,1.103,17.673,0.814,19.288c-0.292,1.611-0.204,11.761-0.412,14.815
		c0.069,1.062,0.534,3.519,0.521,4.759c-0.02,1.466-5.478,3.267-8.123,3.533c-1.001,0.096-0.749-1.801-1.871-1.532
		c-0.718,0.173-3.699,1.532-4.871,3.426c-0.427,0.691-3.995,3.086-5.311,3.392c-1.322,0.309-6.019,2.336-11.928,1.758
		c-2.048-0.198-6.297-1.806-6.871-2.398c-0.571-0.592-0.195-1.84,0.444-2.254c0.8-0.524-0.636-1.591,2.347-2.978
		c2.673-1.234,10.552-5.617,14.037-10.662c0.494-2.862,1.886-4.677,1.334-5.685c-0.555-1.008-2.974-9.13-2.854-11.774
		c0.15-3.414,1.782-10.641,1.559-12.355c-0.149-1.207-0.347-17.533-0.766-20.546c-1.242-8.871-3.162-38.529-5.74-58.518
		c-3.798-1.036-5.225-1.498-4.746-4.741c0.479-3.325,1.43-10.151,1.442-12.909c-1.68-4-4.296-9.888-5.163-12.662
		c-0.975-3.109-2.087-8.948-1.919-11.227c0.376-5.256,1.091-5.461,0.995-10.201c-0.214-10.75,2.649-22.326,2.796-30.687
		c0.412-23.583,2.83-26.359,5.763-27.27c5.341-1.659,9.583-3.509,16.949-7.902c1.86-1.108,3.947-4.149,5.691-4.64l-0.04-0.616
		c-0.527-0.023-3.396-0.412-3.774-1.369c-0.368-0.94-1.05-3.344-1.407-4.322c-0.354-0.98-1.503-6.996-1.45-8.339
		c0.044-1.005,0.367-2.442,0.477-3.266c0.067-0.518-0.327-1.876-0.536-2.331c-0.561-1.232,0.266-2.463,0.473-3.227
		c0.212-0.767,0.463-2.122,0.57-3.264c-0.201-1.737-1.168-2.143,1.932-6.604c3.968-5.718,9.94-5.119,13.699-5.481
		c3.746-0.348,10.58,1.291,10.7,4.519c3.244,0.072,4.71,1.993,5.014,5.771c0.164,2.02-0.2,3.989-0.17,6.701
		c0.04,3.683-0.575,5.824-1.16,7.634c-0.498,1.54-1.762,3.553-2.227,4.52c-0.385,0.797-1.703,2.698-3.954,5.221
		c-0.147,0.957-0.072,3.338-0.072,3.338s0.824,0.347,1.938,1.301c1.737,1.491,2.163,2.381,3.518,3.092
		c7.248,3.782,10.116,5.056,21.385,8.345c2.246,0.651,3.188,2.02,3.188,4.475c0,2.456,1.171,8.566,1.207,9.603
		c0.521,14.847,3.022,42.537,2.95,44.627c-0.571,17.242-3.441,48.717-3.726,51.186c-0.385,3.359-11.627,2.969-11.627,2.969
		S421.02,344.749,421.057,346.674z"/>
	<path fill="#FFFFFF" d="M384.171,178.978c0,0-1.056,1.25-2.653,4.186c-0.798,1.467-4.884,9.184-5.484,11.442
		c-0.598,2.265-6.315,9.516-7.841,38.518c-0.378,7.178-0.548,21.682-1.808,30.014c3.249,0.883,4.499,0.89,10.038,1.169
		c1.072,0.054,1.168-0.554,2.026-0.571c0.852-0.018,3.454,0.061,4.443,0.151c0.582,0.051,0.932,0.886,2.221,0.991
		c2.167,0.184,6.098,0.164,6.417,0.16c0.447-21.488,0.51-44.48,2.589-58.811c0.481-3.342,7.249-16.674,9.699-26.02
		c0,0-0.401-2.544-0.657-3.448c-0.146-0.521-0.491-0.559-0.61-0.542c-0.118,0.017-2.029,3.509-3.341,4.596
		c-3.918,3.243-8.583,6.444-11.323,6.144c-1.315-0.143-1.839-2.045-2.438-3.6c-0.678-1.764-0.716-3.26-0.711-4.291
		C384.395,178.957,384.171,178.978,384.171,178.978z"/>
	<path fill="#588EBF" d="M367.665,263.452c1.118-30.452,1.662-37.937,2.922-47.858c1.937-15.29,9.248-28.3,9.64-30.047
		c-1.529,2.656-3.587,7.236-4.199,8.844c-0.909,2.408-6.309,9.729-7.835,38.732c-0.378,7.178-0.599,21.716-1.808,30.014
		L367.665,263.452z"/>
	<path fill="#588EBF" d="M388.01,186.424c2.91,0.52,2.838,4.081,6.619,6.79c0.694,0.457-3.845-0.531-4.193-0.48
		c-0.341,0.232-1.82,0.827-2.082,1.928c-0.933,3.948,1.009,5.931,0.921,8.181c-0.207,5.478-1.152,17.9-1.526,26.359
		c-0.511,11.775,0.041,23.034-0.084,24.321c-0.262,2.746-6.42,7.875-7.774,7.79c-3.073-0.188,6.579-70.161,6.579-70.161
		s-4.487,0.561-6.752-0.379C383.869,188.854,384.027,185.72,388.01,186.424z"/>
	<path d="M387.874,193.921c-0.771,3.972,1.299,7.201,0.919,9.568c-0.372,2.364-1.459,24.444-1.742,28.028
		c-0.277,3.589-0.009,20.091,0.119,21.822c0.123,1.74-6.236,7.667-7.406,7.787c-1.179,0.123-5.631-6.345-5.651-8.191
		c-0.017-1.846,1.767-20.653,2.098-24.775c0.569-7.065,3.641-24.515,4.07-26.157c0.565-2.176,3.073-4.309,4.044-8.543
		c0.289-1.257-1.028-3.239-0.677-5.611c0.712-0.784,2.017-1.966,4.333-1.526c1.615,0.306,2.598,1.784,3.303,3.124
		C390.768,191.714,388.082,192.857,387.874,193.921z"/>
	<g>
		<path fill="#005ABE" d="M406.352,344.389c0.82,0.87,2.504,0.415,3.6-0.582l21.409-18.831c2.03-1.551,2.375-2.96,2.39-3.446
			l-0.082-13.163c0.116-1.554-0.678-3.257-1.524-4.117c-0.735-0.738-1.537-0.893-2.156-0.408
			c-0.214,0.173-21.159,17.123-23.037,18.657c-1.88,1.523-2.687,3.22-2.446,5.076l1.503,16.139
			C406.067,344.001,406.148,344.171,406.352,344.389z"/>
		
			<linearGradient id="SVGID_3_" gradientUnits="userSpaceOnUse" x1="4315.4766" y1="321.4412" x2="4315.4766" y2="344.5968" gradientTransform="matrix(-1 0 0 1 4734.6621 0)">
			<stop  offset="0" style="stop-color:#76CFFF"/>
			<stop  offset="0.3942" style="stop-color:#78D6FF"/>
			<stop  offset="1" style="stop-color:#7ADAFF"/>
		</linearGradient>
		<path fill="url(#SVGID_3_)" d="M404.86,327.53c-0.236-1.554,0.418-3.192,2.317-4.748l26.381-1.341c0,0-0.221,1.822-2.454,3.492
			l-21.273,18.639c-1.244,1.135-3.196,1.478-3.455,0.248C406.374,343.82,404.933,328.016,404.86,327.53z"/>
		<path fill="#C3FCFF" d="M405.201,325.184c0.375-0.805,1.018-1.617,1.976-2.402c1.903-1.557,23.034-18.659,23.034-18.659
			c1.292-1.011,3.267,1.975,3.096,4.255l0.25,13.063c0,0-0.221,1.822-2.454,3.492l-21.704,1.626
			C407.872,323.431,406.676,326.686,405.201,325.184z"/>
		
			<linearGradient id="SVGID_4_" gradientUnits="userSpaceOnUse" x1="4325.4385" y1="343.3485" x2="4303.6157" y2="305.5507" gradientTransform="matrix(-1 0 0 1 4734.6621 0)">
			<stop  offset="0" style="stop-color:#62C1FB"/>
			<stop  offset="7.024407e-004" style="stop-color:#62C1FB"/>
			<stop  offset="0.339" style="stop-color:#77D2FD"/>
			<stop  offset="0.6741" style="stop-color:#83DDFF"/>
			<stop  offset="1" style="stop-color:#87E0FF"/>
		</linearGradient>
		<path fill="url(#SVGID_4_)" d="M407.04,327.806c-0.181-1.362,0.723-2.81,2.456-4.213l21.471-17.393
			c1.093-0.827,2.126,0.862,2.191,2.196l0.164,13.447c0,0-0.163,1.309-2.157,3.017l-21.03,17.906
			c-0.25,0.208-1.679,0.861-1.909-0.422C408.226,342.342,407.089,328.226,407.04,327.806z"/>
		
			<linearGradient id="SVGID_5_" gradientUnits="userSpaceOnUse" x1="3939.7612" y1="1380.4075" x2="3950.9805" y2="1339.5291" gradientTransform="matrix(-0.7028 -0.7114 -0.7114 0.7028 4160.7046 2175.5234)">
			<stop  offset="0" style="stop-color:#0084F9"/>
			<stop  offset="0.1841" style="stop-color:#0E96FB"/>
			<stop  offset="0.4603" style="stop-color:#1DABFD"/>
			<stop  offset="0.7339" style="stop-color:#27B7FF"/>
			<stop  offset="1" style="stop-color:#2ABBFF"/>
		</linearGradient>
		<path fill="url(#SVGID_5_)" d="M407.755,328.174c-0.205-1.435,0.706-2.927,2.491-4.381c0,0,18.949-15.499,20.403-16.647
			c1.254-0.995,2.288-0.173,2.374,2.048l0.034,12.708c-0.003,0.293-0.505,1.546-1.132,2.183c-0.824,0.825-20.99,17.818-20.99,17.818
			c-1.314,1.079-2.118,1.001-2.271-0.478C408.663,341.423,407.822,328.618,407.755,328.174z"/>
		<polygon fill="#9FEEFF" points="432.063,317.279 432.063,317.482 430.644,318.63 430.641,318.45 		"/>
		<polygon fill="#9FEEFF" points="432.063,316.577 432.063,316.775 430.64,317.93 430.636,317.747 		"/>
		<polygon fill="#9FEEFF" points="421,325.558 420.874,322.82 421.725,322.065 421.854,324.764 		"/>
		<polygon fill="#9FEEFF" points="432.063,315.865 432.063,316.062 430.633,317.223 430.632,317.043 		"/>
		<polygon fill="#9FEEFF" points="432.063,315.16 432.063,315.358 430.624,316.522 430.623,316.342 		"/>
		<polygon fill="#9FEEFF" points="432.063,314.393 432.063,314.588 430.622,315.761 430.619,315.578 		"/>
	</g>
	<path d="M429.846,301.92c0,0,0.204,3.039,0.561,5.151c0.224,1.315-0.214,1.611-0.602,2.111c-0.389,0.497-1.658,1.829-1.853,2.111
		c-0.191,0.276-0.796,2.186-0.906,2.466c-0.105,0.28-1.004,1.338-1.608,1.897c-0.235,0.712-0.651,1.451-0.886,1.668
		c-0.239,0.212-0.927,1.335-1.25,1.914c-0.327,0.58-0.798,1.971-0.907,2.322c-0.323,1.033-1.908,0.473-1.806-0.473
		c0.085-0.813,0.212-1.871,0.303-2.3c-0.348,0.882-0.951,2.733-1.035,3.317c-0.086,0.582-0.5,1.486-1.079,1.617
		c-0.582,0.127-1.571-0.774-1.443-1.919c0.13-1.14,0.362-2.346,0.579-3.576c0.218-1.223,0.67-3.487,0.777-4.199
		c0.108-0.711,0.365-2.456,0.365-2.929c-0.321-0.02-1.349,0.954-1.584,1.166c-0.086-0.517-0.118-0.777-0.157-1.077
		c-0.048-0.304-0.028-1.185-0.048-1.854c-0.02-0.667-0.21-2.624-0.344-3.12c-0.127-0.497-0.344-1.166,0.023-1.982
		c0.37-0.818,2.307-6.462,2.307-6.462L429.846,301.92z"/>
	<path fill="#FFFFFF" d="M430.353,303.881c-0.042,0.365-0.268,0.682-0.268,0.682s-0.152-1.459-0.16-1.641
		c-0.163-0.736-1.987-1.672-4.986-2.217c-2.782-0.51-6.185,0.229-6.311,0.484l-0.176,1.324c0,0-0.49-1.045-0.463-1.454
		c0.041-0.644,0.132-1.564,0.132-1.564c0.144-0.221,3.746-1.515,7.004-0.883c2.76,0.538,4.971,1.867,5.389,2.419
		C430.622,301.809,430.353,303.377,430.353,303.881z"/>
</g>
</svg>
