<?xml version="1.0" encoding="utf-8"?>
<!-- Generator: Adobe Illustrator 17.0.0, SVG Export Plug-In . SVG Version: 6.00 Build 0)  -->
<!DOCTYPE svg PUBLIC "-//W3C//DTD SVG 1.1//EN" "http://www.w3.org/Graphics/SVG/1.1/DTD/svg11.dtd">
<svg version="1.1" id="Layer_1" xmlns="http://www.w3.org/2000/svg" xmlns:xlink="http://www.w3.org/1999/xlink" x="0px" y="0px"
	 width="800px" height="600px" viewBox="0 0 800 600" enable-background="new 0 0 800 600" xml:space="preserve">
<g>
	<g>
		<g>
			<defs>
				<path id="SVGID_1_" d="M339.567,541.19c5.451-6.897,12.47-14.616,23.328-24.712c11.254-10.464,22.455-23.322,27.364-29.172
					c2.406-2.868,5.639-6.483,8.307-9.422c5.147-5.78,10.818-12.716,13.175-15.525c4.28-5.101,25.565-30.452,27.84-35.336
					c2.275-4.885,8.391-12.027,8.742-14.066c0.352-2.041,2.933-3.57,8.444-7.522c4.69-3.364,9.461-5.911,10.888-7.611
					c1.427-1.7,2.244-3.11,2.244-3.11s0.978-2.408-0.045-3.768c-1.024-1.36-2.998-1.225-5.606-1.098
					c-15.105,0.732-17.485,4.963-21.236,7.004c-3.753,2.041-6.558,8.625-7.93,10.666c-1.372,2.041-5.357,3.401-7.859,4.761
					s-4.889,4.205-5.35,5.565c-0.461,1.36-2.458,3.741-5.027,6.801c-2.568,3.06-24.567,27.53-28.956,31.95
					c-4.013,4.041-15.66,16.318-19.853,21.027c-6.666,7.455-18.68,20.828-22.5,24.684c-5.387,5.438-5.946,7.087-13.475,14.587
					c-7.529,7.498-16.722,17.471-19.556,20.848c-1.387,1.654-2.161,2.201-3.663,3.452H339.567z"/>
			</defs>
			<clipPath id="SVGID_2_">
				<use xlink:href="#SVGID_1_"  overflow="visible"/>
			</clipPath>
			<g clip-path="url(#SVGID_2_)">
				<g>
					<defs>
						<path id="SVGID_3_" d="M339.567,541.19c5.451-6.897,12.47-14.616,23.328-24.712c11.254-10.464,22.455-23.322,27.364-29.172
							c2.406-2.868,5.639-6.483,8.307-9.422c5.147-5.78,10.818-12.716,13.175-15.525c4.28-5.101,25.565-30.452,27.84-35.336
							c2.275-4.885,8.391-12.027,8.742-14.066c0.352-2.041,2.933-3.57,8.444-7.522c4.69-3.364,9.461-5.911,10.888-7.611
							c1.427-1.7,2.244-3.11,2.244-3.11s0.978-2.408-0.045-3.768c-1.024-1.36-2.998-1.225-5.606-1.098
							c-15.105,0.732-17.485,4.963-21.236,7.004c-3.753,2.041-6.558,8.625-7.93,10.666c-1.372,2.041-5.357,3.401-7.859,4.761
							s-4.889,4.205-5.35,5.565c-0.461,1.36-2.458,3.741-5.027,6.801c-2.568,3.06-24.567,27.53-28.956,31.95
							c-4.013,4.041-15.66,16.318-19.853,21.027c-6.666,7.455-18.68,20.828-22.5,24.684c-5.387,5.438-5.946,7.087-13.475,14.587
							c-7.529,7.498-16.722,17.471-19.556,20.848c-1.387,1.654-2.161,2.201-3.663,3.452H339.567z"/>
					</defs>
					<clipPath id="SVGID_4_">
						<use xlink:href="#SVGID_3_"  overflow="visible"/>
					</clipPath>
					<g clip-path="url(#SVGID_4_)">
						<polygon fill="#FFFFFF" points="308.843,389.771 470.321,389.771 470.321,541.19 308.843,541.19 308.843,389.771 						"/>
						<path fill="#FFFFFF" d="M20.683,236.892c-174.197,77.559-134.343,202.775,89.017,279.682
							c223.359,76.908,545.634,76.38,719.831-1.178c174.196-77.559,134.342-202.775-89.018-279.683
							C517.154,158.806,194.879,159.333,20.683,236.892z"/>
						<path fill="#FFFFFF" d="M55.851,249.12c-159.027,70.805-122.645,185.118,81.264,255.329s498.12,69.729,657.147-1.076
							c159.027-70.805,122.645-185.118-81.265-255.329C509.088,177.833,214.878,178.314,55.851,249.12z"/>
						<path fill="#FFFFFF" d="M91.272,261.255c-143.773,64.013-110.88,167.36,73.469,230.836
							c184.349,63.476,450.338,63.039,594.11-0.973c143.773-64.014,110.879-167.361-73.47-230.836
							C501.032,196.806,235.045,197.242,91.272,261.255z"/>
						<path fill="#FEFEFE" d="M93.811,262.152c-142.653,63.514-110.018,166.058,72.897,229.039
							c182.913,62.981,446.832,62.548,589.486-0.966c142.655-63.515,110.018-166.058-72.897-229.04
							C500.383,198.204,236.466,198.637,93.811,262.152z"/>
						<path fill="#FCFCFC" d="M96.472,263.049c-141.535,63.017-109.155,164.755,72.326,227.243
							c181.48,62.488,443.328,62.058,584.863-0.959c141.535-63.017,109.154-164.755-72.326-227.243S238.007,200.032,96.472,263.049z
							"/>
						<path fill="#FBFBFB" d="M99.062,263.945C-41.355,326.464-9.229,427.398,170.816,489.392
							c180.045,61.993,439.822,61.568,580.239-0.951c140.416-62.518,108.291-163.452-71.754-225.446
							C499.255,201.001,239.478,201.427,99.062,263.945z"/>
						<path fill="#F9FAFA" d="M101.652,264.842c-139.297,62.02-107.429,162.15,71.182,223.65
							c178.609,61.499,436.316,61.077,575.614-0.943c139.297-62.02,107.428-162.15-71.182-223.65
							C498.655,202.401,240.948,202.823,101.652,264.842z"/>
						<path fill="#F8F8F8" d="M104.241,265.739c-138.177,61.522-106.565,160.847,70.61,221.853
							c177.175,61.006,432.812,60.588,570.99-0.934c138.177-61.522,106.564-160.847-70.61-221.853
							C498.056,203.799,242.419,204.217,104.241,265.739z"/>
						<path fill="#F7F7F7" d="M106.831,266.636C-30.228,327.659,1.129,426.181,176.868,486.692
							c175.741,60.512,429.307,60.097,566.366-0.926c137.059-61.023,105.702-159.545-70.038-220.056
							C497.457,205.197,243.889,205.612,106.831,266.636z"/>
						<path fill="#F5F5F6" d="M109.421,267.583c-135.939,60.526-104.839,158.243,69.467,218.26
							c174.305,60.018,425.801,59.606,561.74-0.919c135.94-60.526,104.839-158.243-69.466-218.262
							C496.857,206.645,245.361,207.057,109.421,267.583z"/>
						<path fill="#F4F4F4" d="M112.082,268.48C-22.739,328.508,8.106,425.42,180.976,484.943
							c172.871,59.524,422.297,59.116,557.118-0.912c134.82-60.028,103.975-156.941-68.895-216.465
							C496.328,208.043,246.902,208.451,112.082,268.48z"/>
						<path fill="#F3F3F3" d="M114.671,269.306c-133.701,59.53-103.113,155.637,68.323,214.666
							c171.436,59.029,418.792,58.624,552.493-0.906S838.6,327.429,667.164,268.4C495.728,209.371,248.373,209.776,114.671,269.306z
							"/>
						<path fill="#F1F1F1" d="M117.211,270.202c-132.583,59.031-102.251,154.334,67.75,212.87
							c170.001,58.535,415.287,58.133,547.87-0.898c132.583-59.031,102.251-154.334-67.75-212.87
							C495.079,210.769,249.794,211.171,117.211,270.202z"/>
						<path fill="#F0F0F0" d="M119.801,271.099C-11.663,329.632,18.413,424.13,186.979,482.172
							c168.566,58.041,411.781,57.642,543.245-0.89c131.464-58.533,101.387-153.032-67.178-211.073
							C494.48,212.168,251.265,212.566,119.801,271.099z"/>
						<path fill="#EEEFEF" d="M122.391,271.996C-7.954,330.03,21.865,423.725,188.996,481.272
							c167.131,57.547,408.276,57.152,538.621-0.882c130.344-58.035,100.524-151.729-66.606-209.276
							C493.88,213.567,252.735,213.961,122.391,271.996z"/>
						<path fill="#EDEDED" d="M125.051,272.893c-129.225,57.536-99.661,150.426,66.035,207.48
							c165.696,57.053,404.771,56.661,533.997-0.875c129.226-57.536,99.662-150.426-66.036-207.48
							C493.351,214.965,254.276,215.357,125.051,272.893z"/>
						<path fill="#ECECEC" d="M127.641,273.789c-128.107,57.039-98.798,149.124,65.463,205.684
							c164.261,56.559,401.265,56.17,529.373-0.867c128.106-57.038,98.797-149.123-65.464-205.683
							C492.751,216.364,255.747,216.751,127.641,273.789z"/>
						<path fill="#EAEBEB" d="M130.23,274.686c-126.987,56.54-97.935,147.821,64.892,203.887
							c162.827,56.065,397.761,55.681,524.748-0.859c126.987-56.539,97.935-147.821-64.892-203.886
							C492.152,217.762,257.217,218.147,130.23,274.686z"/>
						<path fill="#E9E9E9" d="M132.82,275.583c-125.868,56.042-97.072,146.519,64.32,202.09
							c161.391,55.571,394.255,55.191,520.124-0.851c125.868-56.042,97.071-146.518-64.321-202.09
							C491.552,219.161,258.689,219.542,132.82,275.583z"/>
						<path fill="#E7E8E8" d="M135.41,276.529c-124.749,55.544-96.208,145.217,63.748,200.294
							c159.956,55.078,390.749,54.699,515.499-0.844c124.749-55.544,96.208-145.217-63.748-200.294
							C490.952,220.608,260.16,220.987,135.41,276.529z"/>
						<path fill="#E6E7E7" d="M138.02,277.356C14.39,332.401,42.674,421.27,201.196,475.852
							c158.522,54.583,387.246,54.207,510.877-0.837c123.631-55.046,95.347-143.914-63.176-198.497
							C490.375,221.936,261.651,222.31,138.02,277.356z"/>
						<path fill="#E5E5E5" d="M140.61,278.252c-122.512,54.547-94.483,142.611,62.603,196.7
							c157.088,54.088,383.742,53.717,506.253-0.83c122.512-54.547,94.483-142.61-62.605-196.7
							C489.775,223.334,263.122,223.706,140.61,278.252z"/>
						<path fill="#E3E4E4" d="M143.2,279.149c-121.393,54.049-93.621,141.308,62.031,194.903
							c155.652,53.595,380.236,53.227,501.628-0.822c121.393-54.048,93.621-141.308-62.032-194.903
							C489.175,224.732,264.593,225.101,143.2,279.149z"/>
						<path fill="#E2E3E3" d="M145.789,280.046c-120.273,53.551-92.757,140.005,61.46,193.106
							c154.217,53.1,376.73,52.736,497.004-0.814c120.273-53.55,92.757-140.005-61.46-193.106
							C488.576,226.132,266.063,226.496,145.789,280.046z"/>
						<path fill="#E1E1E1" d="M148.38,280.943c-119.154,53.052-91.895,138.703,60.888,191.31s373.225,52.246,492.379-0.806
							c119.154-53.052,91.895-138.703-60.888-191.31C487.976,227.53,267.534,227.891,148.38,280.943z"/>
						<path fill="#DFE0E0" d="M151.04,281.84c-118.035,52.553-91.03,137.4,60.317,189.513s369.72,51.755,487.756-0.799
							c118.035-52.554,91.03-137.4-60.317-189.513S269.075,229.285,151.04,281.84z"/>
						<path fill="#DEDEDF" d="M153.63,282.737c-116.916,52.055-90.168,136.097,59.745,187.716
							c149.913,51.618,366.215,51.264,483.131-0.791c116.916-52.056,90.168-136.098-59.745-187.716
							C486.848,230.327,270.546,230.681,153.63,282.737z"/>
						<path fill="#DCDDDD" d="M156.219,283.633C40.422,335.19,66.915,418.428,215.393,469.553
							c148.478,51.125,362.71,50.773,478.506-0.784c115.797-51.557,89.305-134.794-59.173-185.92
							C486.248,231.725,272.016,232.076,156.219,283.633z"/>
						<path fill="#DBDCDC" d="M158.809,284.58c-114.678,51.06-88.442,133.494,58.601,184.124
							c147.043,50.631,359.204,50.284,473.882-0.776c114.678-51.06,88.441-133.493-58.602-184.124
							C485.648,233.173,273.488,233.52,158.809,284.58z"/>
						<path fill="#DADADB" d="M161.349,285.476c-113.559,50.561-87.58,132.191,58.029,182.328
							c145.608,50.137,355.699,49.793,469.258-0.768c113.56-50.561,87.58-132.19-58.028-182.327
							C484.999,234.571,274.909,234.915,161.349,285.476z"/>
						<path fill="#D8D9D9" d="M164.009,286.303c-112.44,50.063-86.715,130.888,57.458,180.531
							c144.174,49.642,352.195,49.3,464.636-0.762c112.44-50.063,86.715-130.888-57.459-180.53
							C484.471,235.899,276.45,236.24,164.009,286.303z"/>
						<path fill="#D7D8D8" d="M166.599,287.199c-111.321,49.565-85.853,129.585,56.885,178.733
							c142.739,49.149,348.69,48.811,460.011-0.754c111.321-49.564,85.853-129.584-56.886-178.732
							C483.871,237.298,277.921,237.635,166.599,287.199z"/>
						<path fill="#D5D6D6" d="M169.189,288.096c-110.203,49.066-84.99,128.282,56.313,176.936
							c141.304,48.654,345.185,48.32,455.386-0.746c110.203-49.066,84.99-128.282-56.314-176.936
							C483.271,238.697,279.391,239.03,169.189,288.096z"/>
						<path fill="#D4D5D5" d="M171.778,288.993c-109.083,48.569-84.127,126.98,55.742,175.14
							c139.87,48.161,341.679,47.829,450.763-0.739c109.083-48.568,84.126-126.979-55.742-175.14
							C482.671,240.095,280.862,240.425,171.778,288.993z"/>
						<path fill="#D3D4D4" d="M174.369,289.89c-107.965,48.07-83.265,125.677,55.169,173.343
							c138.434,47.666,338.173,47.339,446.138-0.73c107.963-48.07,83.264-125.676-55.17-173.343
							C482.072,241.493,282.332,241.82,174.369,289.89z"/>
						<path fill="#D1D2D2" d="M177.029,290.787c-106.844,47.572-82.4,124.374,54.599,171.547
							c137,47.172,334.669,46.849,441.514-0.723c106.845-47.572,82.4-124.374-54.599-171.547
							C481.544,242.892,283.874,243.215,177.029,290.787z"/>
						<path fill="#D0D1D1" d="M179.619,291.684c-105.726,47.073-81.538,123.071,54.027,169.75
							c135.565,46.678,331.164,46.358,436.89-0.715c105.725-47.074,81.537-123.071-54.028-169.75
							C480.944,244.29,285.344,244.611,179.619,291.684z"/>
						<path fill="#CFD0D0" d="M182.208,292.581c-104.606,46.574-80.674,121.768,53.455,167.953
							c134.13,46.184,327.659,45.867,432.265-0.707c104.606-46.575,80.674-121.769-53.455-167.953
							C480.344,245.689,286.815,246.005,182.208,292.581z"/>
						<path fill="#CDCECE" d="M184.748,293.526C81.26,339.604,104.935,413.995,237.63,459.685
							c132.694,45.69,324.153,45.377,427.641-0.701c103.489-46.077,79.813-120.467-52.882-166.158
							C479.695,247.136,288.236,247.45,184.748,293.526z"/>
						<path fill="#CCCDCD" d="M187.338,294.353c-102.369,45.578-78.95,119.163,52.311,164.359
							c131.259,45.197,320.647,44.886,423.017-0.693c102.369-45.579,78.949-119.164-52.31-164.36
							C479.095,248.464,289.708,248.774,187.338,294.353z"/>
						<path fill="#CACCCC" d="M189.998,295.25c-101.25,45.081-78.085,117.861,51.74,162.562
							c129.825,44.702,317.144,44.395,418.393-0.685s78.086-117.861-51.739-162.563C478.567,249.862,291.248,250.17,189.998,295.25z
							"/>
						<path fill="#C9CACA" d="M192.588,296.146c-100.131,44.583-77.223,116.559,51.168,160.767
							c128.389,44.208,313.638,43.904,413.769-0.678c100.131-44.583,77.222-116.559-51.168-160.767
							C477.967,251.26,292.719,251.564,192.588,296.146z"/>
						<path fill="#C8C9C9" d="M195.178,297.043c-99.012,44.084-76.36,115.256,50.595,158.97
							c126.955,43.714,310.132,43.414,409.144-0.671c99.012-44.083,76.359-115.255-50.596-158.969
							C477.367,252.66,294.19,252.96,195.178,297.043z"/>
						<path fill="#C6C7C8" d="M197.767,297.94c-97.892,43.586-75.497,113.953,50.024,157.173
							c125.52,43.22,306.627,42.923,404.52-0.663c97.892-43.585,75.497-113.953-50.023-157.172
							C476.767,254.058,295.66,254.354,197.767,297.94z"/>
						<path fill="#C5C6C6" d="M200.358,298.837c-96.774,43.087-74.634,112.651,49.452,155.377
							c124.085,42.725,303.121,42.432,399.895-0.655c96.775-43.087,74.634-112.65-49.452-155.377
							C476.167,255.457,297.131,255.75,200.358,298.837z"/>
						<path fill="#C3C5C5" d="M203.018,299.734c-95.655,42.589-73.77,111.348,48.88,153.58
							c122.651,42.232,299.618,41.941,395.273-0.647c95.654-42.589,73.77-111.348-48.881-153.58
							C475.639,256.855,298.672,257.145,203.018,299.734z"/>
						<path fill="#C2C3C4" d="M205.608,300.63c-94.535,42.091-72.908,110.045,48.308,151.783
							c121.217,41.737,296.113,41.452,390.648-0.639s72.908-110.045-48.309-151.783C475.039,258.253,300.143,258.539,205.608,300.63
							z"/>
						<path fill="#C1C2C2" d="M208.147,301.527c-93.417,41.593-72.045,108.742,47.736,149.987
							c119.781,41.243,292.608,40.961,386.024-0.631c93.417-41.592,72.045-108.743-47.736-149.987S301.564,259.935,208.147,301.527z
							"/>
						<path fill="#BFC1C1" d="M210.737,302.474c-92.298,41.095-71.183,107.441,47.163,148.191s289.102,40.47,381.4-0.625
							c92.297-41.094,71.182-107.44-47.164-148.19S303.035,261.379,210.737,302.474z"/>
						<path fill="#BEBFC0" d="M213.327,303.3c-91.178,40.596-70.319,106.138,46.592,146.393s285.596,39.978,376.775-0.618
							c91.179-40.596,70.319-106.137-46.592-146.392C473.192,262.427,304.506,262.704,213.327,303.3z"/>
						<path fill="#BDBEBE" d="M215.987,304.197c-90.059,40.098-69.455,104.835,46.022,144.596
							c115.477,39.761,282.092,39.488,372.151-0.61c90.06-40.098,69.456-104.835-46.021-144.597
							C472.662,263.826,306.047,264.099,215.987,304.197z"/>
						<path fill="#BBBDBD" d="M218.577,305.094c-88.941,39.599-68.592,103.532,45.449,142.799
							c114.042,39.268,278.587,38.998,367.527-0.602c88.941-39.6,68.592-103.532-45.449-142.8
							C472.062,265.225,307.518,265.494,218.577,305.094z"/>
						<path fill="#BABBBC" d="M221.167,305.99c-87.822,39.102-67.73,102.23,44.877,141.003
							c112.606,38.773,275.081,38.508,362.902-0.594c87.822-39.102,67.729-102.23-44.877-141.003
							C471.463,266.623,308.988,266.889,221.167,305.99z"/>
						<path fill="#B8BABA" d="M223.756,306.887c-86.703,38.604-66.866,100.927,44.306,139.207
							c111.171,38.279,271.576,38.017,358.278-0.587c86.703-38.603,66.866-100.926-44.305-139.206
							C470.863,268.021,310.459,268.284,223.756,306.887z"/>
						<path fill="#B7B9B9" d="M226.347,307.784c-85.584,38.105-66.003,99.624,43.732,137.41
							c109.738,37.786,268.071,37.526,353.655-0.579C709.316,406.51,689.737,344.99,580,307.205
							C470.263,269.42,311.93,269.679,226.347,307.784z"/>
						<path fill="#B6B7B7" d="M229.007,308.681c-84.464,37.607-65.14,98.322,43.163,135.613
							c108.302,37.291,264.566,37.036,349.03-0.571c84.464-37.607,65.14-98.321-43.162-135.612
							C469.735,270.818,313.471,271.074,229.007,308.681z"/>
						<path fill="#B4B6B6" d="M231.547,309.577c-83.345,37.108-64.278,97.019,42.589,133.817
							c106.868,36.797,261.062,36.545,344.408-0.564c83.345-37.108,64.277-97.019-42.591-133.816
							C469.086,272.217,314.892,272.469,231.547,309.577z"/>
						<path fill="#B3B4B5" d="M234.136,310.524c-82.226,36.611-63.415,95.717,42.017,132.021
							c105.432,36.303,257.557,36.054,339.783-0.557c82.226-36.611,63.415-95.717-42.017-132.021
							C468.486,273.665,316.362,273.914,234.136,310.524z"/>
						<path fill="#B1B3B3" d="M236.726,311.35c-81.107,36.113-62.553,94.414,41.445,130.224
							c103.997,35.808,254.051,35.562,335.158-0.55c81.108-36.113,62.553-94.414-41.445-130.224
							C467.887,274.992,317.833,275.238,236.726,311.35z"/>
						<path fill="#B0B2B2" d="M239.317,312.247c-79.989,35.614-61.69,93.111,40.873,128.427
							c102.563,35.314,250.545,35.072,330.534-0.543c79.988-35.613,61.688-93.111-40.874-128.426
							C467.287,276.391,319.305,276.633,239.317,312.247z"/>
						<path fill="#AFB0B1" d="M241.977,313.144c-78.869,35.116-60.826,91.809,40.302,126.63
							c101.128,34.82,247.041,34.581,325.91-0.535c78.869-35.116,60.826-91.808-40.302-126.629
							C466.758,277.789,320.846,278.028,241.977,313.144z"/>
						<path fill="#ADAFAF" d="M244.566,314.041c-77.75,34.617-59.962,90.506,39.731,124.833
							c99.693,34.327,243.535,34.091,321.285-0.526c77.751-34.617,59.963-90.506-39.731-124.833
							C466.159,279.188,322.317,279.424,244.566,314.041z"/>
						<path fill="#ACAEAE" d="M247.156,314.938c-76.632,34.119-59.1,89.203,39.158,123.036c98.258,33.832,240.03,33.6,316.662-0.518
							c76.631-34.12,59.099-89.203-39.16-123.037C465.558,280.586,323.787,280.818,247.156,314.938z"/>
						<path fill="#ABACAD" d="M249.745,315.834c-75.511,33.621-58.236,87.901,38.587,121.24s236.525,33.11,312.037-0.51
							c75.512-33.621,58.237-87.901-38.587-121.24C464.96,281.984,325.258,282.214,249.745,315.834z"/>
						<path fill="#A9ABAB" d="M252.286,316.731c-74.394,33.123-57.375,86.598,38.014,119.444
							c95.388,32.845,233.019,32.62,307.413-0.504c74.394-33.123,57.374-86.598-38.014-119.443S326.679,283.608,252.286,316.731z"/>
						<path fill="#A8AAAA" d="M254.946,317.627c-73.275,32.625-56.511,85.296,37.444,117.647
							c93.954,32.351,229.515,32.129,302.79-0.496c73.274-32.624,56.511-85.295-37.444-117.646S328.22,285.004,254.946,317.627z"/>
						<path fill="#A6A8A9" d="M257.536,318.524c-72.155,32.126-55.648,83.993,36.87,115.85
							c92.519,31.857,226.011,31.639,298.166-0.488c72.155-32.125,55.648-83.992-36.871-115.849
							C463.182,286.181,329.691,286.399,257.536,318.524z"/>
						<path fill="#A5A7A7" d="M260.125,319.471c-71.036,31.629-54.785,82.691,36.299,114.055
							c91.084,31.363,222.506,31.148,293.541-0.481c71.036-31.628,54.785-82.691-36.299-114.055
							C462.582,287.628,331.161,287.843,260.125,319.471z"/>
						<path fill="#A4A6A6" d="M262.716,320.297c-69.917,31.13-53.921,81.388,35.726,112.257c89.65,30.868,219,30.656,288.917-0.474
							s53.921-81.388-35.728-112.257C461.983,288.956,332.633,289.168,262.716,320.297z"/>
						<path fill="#A2A4A5" d="M265.305,321.194c-68.797,30.632-53.058,80.085,35.155,110.46
							c88.214,30.374,215.494,30.165,284.292-0.466c68.798-30.632,53.059-80.086-35.155-110.46
							C461.383,290.354,334.103,290.563,265.305,321.194z"/>
						<path fill="#A1A3A3" d="M267.966,322.091c-67.679,30.134-52.195,78.783,34.584,108.664
							c86.78,29.88,211.99,29.675,279.669-0.458c67.679-30.134,52.195-78.783-34.585-108.663
							C460.854,291.752,335.645,291.958,267.966,322.091z"/>
						<path fill="#9FA2A2" d="M270.555,322.988c-66.56,29.635-51.332,77.48,34.013,106.866
							c85.345,29.387,208.485,29.185,275.044-0.45c66.56-29.635,51.332-77.48-34.013-106.866
							C460.255,293.151,337.115,293.353,270.555,322.988z"/>
						<path fill="#9EA0A1" d="M273.145,323.885c-65.441,29.137-50.47,76.177,33.44,105.069
							c83.91,28.893,204.979,28.694,270.42-0.442c65.441-29.137,50.469-76.177-33.44-105.069
							C459.655,294.549,338.586,294.748,273.145,323.885z"/>
						<path fill="#9D9F9F" d="M275.684,324.781c-64.322,28.638-49.606,74.874,32.868,103.273
							c82.475,28.398,201.474,28.204,265.796-0.435c64.323-28.638,49.607-74.874-32.867-103.273
							C459.006,295.949,340.007,296.143,275.684,324.781z"/>
						<path fill="#9B9D9E" d="M278.275,325.678c-63.204,28.14-48.745,73.571,32.295,101.476
							c81.039,27.905,197.968,27.713,261.172-0.427c63.202-28.141,48.744-73.572-32.296-101.477
							C458.406,297.347,341.477,297.538,278.275,325.678z"/>
						<path fill="#9A9C9C" d="M280.864,326.574c-62.083,27.642-47.88,72.269,31.724,99.68
							c79.605,27.41,194.463,27.222,256.547-0.419c62.084-27.642,47.881-72.269-31.724-99.68
							C457.806,298.745,342.948,298.933,280.864,326.574z"/>
						<path fill="#999B9B" d="M283.525,327.521c-60.965,27.144-47.018,70.968,31.153,97.885
							c78.17,26.917,190.959,26.732,251.923-0.413c60.965-27.143,47.018-70.967-31.153-97.884
							C457.277,300.193,344.489,300.378,283.525,327.521z"/>
						<path fill="#97999A" d="M286.114,328.348c-59.845,26.646-46.154,69.664,30.582,96.086
							c76.735,26.422,187.453,26.24,247.299-0.406c59.845-26.646,46.154-69.664-30.582-96.086
							C456.678,301.52,345.961,301.702,286.114,328.348z"/>
						<path fill="#969898" d="M288.705,329.245c-58.727,26.147-45.292,68.361,30.009,94.289
							c75.3,25.928,183.947,25.749,242.674-0.398c58.727-26.147,45.291-68.362-30.009-94.289
							C456.078,302.919,347.431,303.097,288.705,329.245z"/>
						<path fill="#949797" d="M291.294,330.141c-57.607,25.65-44.429,67.059,29.438,92.494
							c73.865,25.434,180.442,25.258,238.049-0.39c57.608-25.65,44.429-67.059-29.437-92.494
							C455.479,304.317,348.902,304.492,291.294,330.141z"/>
						<path fill="#939596" d="M293.884,331.038c-56.489,25.151-43.565,65.757,28.866,90.697
							c72.43,24.94,176.936,24.768,233.425-0.383c56.488-25.151,43.565-65.757-28.865-90.697
							C454.879,305.716,350.372,305.887,293.884,331.038z"/>
						<path fill="#929494" d="M296.544,331.935c-55.369,24.653-42.702,64.454,28.295,88.899
							c70.996,24.446,173.433,24.279,228.801-0.375c55.37-24.653,42.702-64.454-28.294-88.899
							C454.351,307.114,351.914,307.282,296.544,331.935z"/>
						<path fill="#909393" d="M299.084,332.832c-54.251,24.154-41.84,63.151,27.721,87.103
							c69.561,23.953,169.928,23.788,224.18-0.367c54.251-24.154,41.839-63.151-27.722-87.103
							C453.702,308.513,353.335,308.677,299.084,332.832z"/>
						<path fill="#8F9192" d="M301.673,333.728c-53.131,23.656-40.976,61.848,27.15,85.306
							c68.126,23.458,166.423,23.298,219.555-0.359c53.132-23.656,40.977-61.848-27.149-85.306
							C453.102,309.912,354.806,310.072,301.673,333.728z"/>
						<path fill="#8D9090" d="M304.264,334.625c-52.012,23.158-40.113,60.545,26.577,83.51
							c66.692,22.964,162.917,22.807,214.93-0.351c52.013-23.158,40.115-60.546-26.577-83.51
							C452.502,311.31,356.276,311.467,304.264,334.625z"/>
						<path fill="#8C8F8F" d="M306.854,335.522c-50.894,22.659-39.251,59.243,26.005,81.713
							c65.257,22.469,159.411,22.316,210.306-0.343c50.894-22.66,39.25-59.243-26.006-81.713
							C451.902,312.708,357.747,312.862,306.854,335.522z"/>
						<path fill="#8B8D8E" d="M309.514,336.468c-49.774,22.163-38.388,57.942,25.434,79.918
							c63.822,21.976,155.908,21.825,205.682-0.336c49.774-22.163,38.387-57.942-25.435-79.918
							C451.374,314.156,359.288,314.307,309.514,336.468z"/>
						<path fill="#898C8C" d="M312.103,337.295c-48.655,21.663-37.524,56.638,24.863,78.12
							c62.387,21.481,152.402,21.334,201.057-0.331c48.655-21.663,37.524-56.638-24.863-78.12
							C450.774,315.484,360.758,315.631,312.103,337.295z"/>
						<path fill="#888B8B" d="M314.694,338.192c-47.536,21.165-36.661,55.335,24.291,76.323s148.896,20.843,196.433-0.323
							c47.536-21.165,36.661-55.335-24.292-76.323C450.174,316.882,362.23,317.026,314.694,338.192z"/>
						<path fill="#87898A" d="M317.283,339.089c-46.417,20.667-35.797,54.032,23.719,74.526
							c59.517,20.493,145.391,20.352,191.808-0.315c46.417-20.667,35.798-54.033-23.719-74.526
							C449.574,318.28,363.701,318.421,317.283,339.089z"/>
						<path fill="#858888" d="M319.873,339.985c-45.298,20.169-34.935,52.73,23.147,72.731
							c58.082,19.999,141.886,19.861,187.183-0.307c45.299-20.169,34.935-52.73-23.147-72.73
							C448.975,319.679,365.171,319.816,319.873,339.985z"/>
						<path fill="#848687" d="M322.483,340.882c-44.18,19.671-34.072,51.428,22.576,70.933
							c56.647,19.505,138.382,19.372,182.562-0.298c44.179-19.671,34.072-51.428-22.576-70.934
							C448.397,321.078,366.663,321.212,322.483,340.882z"/>
						<path fill="#828586" d="M325.073,341.779c-43.061,19.172-33.21,50.125,22.002,69.136
							c55.213,19.012,134.877,18.881,177.937-0.291c43.061-19.171,33.209-50.124-22.003-69.136
							C447.797,322.477,368.133,322.606,325.073,341.779z"/>
						<path fill="#828586" d="M375.09,359.021c-21.53,9.587-16.605,25.064,11.001,34.57c27.607,9.506,67.438,9.441,88.968-0.145
							c21.531-9.587,16.605-25.064-11.001-34.57C436.453,349.37,396.621,349.435,375.09,359.021z"/>
					</g>
				</g>
			</g>
		</g>
	</g>
	<g>
		<g>
			<defs>
				<path id="SVGID_5_" d="M305.546,539.082c8.334-10.801,13.352-16.293,15.534-19.687c2.701-4.201,16.521-17.139,18.53-20.024
					c1.496-2.149,11.235-17.17,16.109-24.699c18.056-21.751,35.121-46.958,37.049-49.728c3.315-4.761,11.741-16.57,11.741-16.57
					s0.637-2.381,2.458-3.741c1.821-1.36,4.782-3.524,7.171-6.925c2.39-3.401,5.006-6.794,1.141-6.794
					c-3.865,0-8.874,1.043-8.874,1.043s-4.361,1.996-5.871,0.391c-2.513-2.672-7.017-1.565-9.507-2.246
					c-2.489-0.68-16.134,0.379-17.494,0.379s-4.019,3.486-4.019,3.486s-1.191,1.806,0.873,2.689
					c2.742,1.174,4.863,3.827,4.863,3.827s-0.535,8.475-4.156,15.052c-3.62,6.576-2.658,11.005-7.257,15.434
					c-4.595,4.426-27.209,30.341-35.459,39.466c-0.953,1.144-18.462,23.115-20.69,27.207c-2.288,4.201-3.807,7.087-10.444,12.937
					c-5.384,4.746-19.281,21.316-25.257,28.501H305.546z"/>
			</defs>
			<clipPath id="SVGID_6_">
				<use xlink:href="#SVGID_5_"  overflow="visible"/>
			</clipPath>
			<g clip-path="url(#SVGID_6_)">
				<g>
					<defs>
						<path id="SVGID_7_" d="M305.546,539.082c8.334-10.801,13.352-16.293,15.534-19.687c2.701-4.201,16.521-17.139,18.53-20.024
							c1.496-2.149,11.235-17.17,16.109-24.699c18.056-21.751,35.121-46.958,37.049-49.728c3.315-4.761,11.741-16.57,11.741-16.57
							s0.637-2.381,2.458-3.741c1.821-1.36,4.782-3.524,7.171-6.925c2.39-3.401,5.006-6.794,1.141-6.794
							c-3.865,0-8.874,1.043-8.874,1.043s-4.361,1.996-5.871,0.391c-2.513-2.672-7.017-1.565-9.507-2.246
							c-2.489-0.68-16.134,0.379-17.494,0.379s-4.019,3.486-4.019,3.486s-1.191,1.806,0.873,2.689
							c2.742,1.174,4.863,3.827,4.863,3.827s-0.535,8.475-4.156,15.052c-3.62,6.576-2.658,11.005-7.257,15.434
							c-4.595,4.426-27.209,30.341-35.459,39.466c-0.953,1.144-18.462,23.115-20.69,27.207c-2.288,4.201-3.807,7.087-10.444,12.937
							c-5.384,4.746-19.281,21.316-25.257,28.501H305.546z"/>
					</defs>
					<clipPath id="SVGID_8_">
						<use xlink:href="#SVGID_7_"  overflow="visible"/>
					</clipPath>
					<g clip-path="url(#SVGID_8_)">
						<polygon fill="#FFFFFF" points="271.986,389.875 417.247,389.875 417.247,539.082 271.986,539.082 271.986,389.875 						"/>
						<path fill="#FFFFFF" d="M12.766,251.182c-171.65,76.425-147.918,194.461,53.011,263.644
							c200.927,69.184,502.954,63.313,674.605-13.112c171.651-76.425,147.917-194.461-53.011-263.644
							C486.443,168.886,184.417,174.756,12.766,251.182z"/>
						<path fill="#FFFFFF" d="M44.392,262.185c-156.703,69.77-135.037,177.528,48.393,240.687
							c183.431,63.16,459.156,57.801,615.859-11.97c156.703-69.77,135.037-177.528-48.394-240.688
							C476.819,187.055,201.095,192.414,44.392,262.185z"/>
						<path fill="#FFFFFF" d="M76.25,273.159c-141.672,63.079-122.084,160.5,43.751,217.601
							c165.834,57.101,415.111,52.255,556.783-10.822c141.671-63.078,122.083-160.499-43.752-217.601
							C467.197,205.237,217.921,210.082,76.25,273.159z"/>
						<path fill="#FEFEFE" d="M78.527,273.896c-140.569,62.587-121.134,159.25,43.41,215.906
							c164.544,56.655,411.88,51.847,552.45-10.74c140.569-62.587,121.134-159.249-43.41-215.905
							C466.434,206.501,219.097,211.31,78.527,273.896z"/>
						<path fill="#FCFCFC" d="M80.927,274.702c-139.467,62.096-120.185,158,43.069,214.212
							c163.254,56.212,408.65,51.441,548.116-10.654c139.467-62.096,120.184-158-43.069-214.212
							C465.789,207.837,220.393,212.607,80.927,274.702z"/>
						<path fill="#FBFBFB" d="M83.255,275.509C-55.108,337.114-35.979,432.26,125.984,488.027
							c161.963,55.767,405.419,51.035,543.783-10.57C808.131,415.852,789,320.706,627.038,264.939
							C465.075,209.172,221.619,213.904,83.255,275.509z"/>
						<path fill="#F9FAFA" d="M85.583,276.315C-51.677,337.429-32.7,431.818,127.972,487.14
							c160.672,55.323,402.188,50.628,539.448-10.486c137.262-61.114,118.283-155.501-42.389-210.824
							C464.361,210.508,222.845,215.201,85.583,276.315z"/>
						<path fill="#F8F8F8" d="M87.912,277.122C-48.246,337.745-29.421,431.374,129.96,486.252
							c159.381,54.879,398.957,50.222,535.116-10.4c136.158-60.623,117.332-154.253-42.049-209.131
							C463.646,211.842,224.07,216.499,87.912,277.122z"/>
						<path fill="#F7F7F7" d="M90.31,277.928C-44.745,338.06-26.072,430.932,132.019,485.365
							c158.091,54.435,395.727,49.816,530.782-10.316c135.056-60.132,116.382-153.004-41.709-207.437
							C463.002,213.178,225.366,217.796,90.31,277.928z"/>
						<path fill="#F5F5F6" d="M92.639,278.786C-41.313,338.426-22.793,430.54,134.007,484.529
							c156.8,53.99,392.495,49.408,526.448-10.233c133.953-59.642,115.431-151.755-41.368-205.745
							C462.287,214.562,226.592,219.144,92.639,278.786z"/>
						<path fill="#F4F4F4" d="M94.968,279.591c-132.85,59.151-114.482,150.506,41.027,204.051
							c155.509,53.545,389.264,49.001,522.114-10.148c132.85-59.151,114.481-150.506-41.027-204.052
							C461.573,215.898,227.818,220.441,94.968,279.591z"/>
						<path fill="#F3F3F3" d="M97.296,280.398c-131.748,58.659-113.531,149.256,40.686,202.357
							c154.219,53.101,386.034,48.595,517.78-10.065c131.748-58.659,113.531-149.256-40.687-202.357
							C460.858,217.233,229.044,221.738,97.296,280.398z"/>
						<path fill="#F1F1F1" d="M99.575,281.204C-31.07,339.372-13.008,429.211,139.92,481.867
							c152.927,52.657,382.802,48.189,513.448-9.979s112.583-148.007-40.346-200.664C460.095,218.567,230.22,223.036,99.575,281.204
							z"/>
						<path fill="#F0F0F0" d="M101.973,281.94C-27.57,339.618-9.659,428.697,141.979,480.91
							c151.637,52.211,379.571,47.781,509.114-9.897c129.543-57.677,111.631-146.757-40.005-198.968
							C459.45,219.832,231.516,224.263,101.973,281.94z"/>
						<path fill="#EEEFEF" d="M104.302,282.746C-24.138,339.933-6.38,428.255,143.966,480.023
							c150.346,51.767,376.34,47.374,504.781-9.812c128.44-57.186,110.681-145.508-39.665-197.275
							C458.736,221.168,232.742,225.56,104.302,282.746z"/>
						<path fill="#EDEDED" d="M106.631,283.553C-20.707,340.248-3.101,427.812,145.955,479.135
							c149.055,51.323,373.109,46.968,500.446-9.728c127.337-56.694,109.731-144.258-39.324-195.582
							C458.022,222.503,233.967,226.858,106.631,283.553z"/>
						<path fill="#ECECEC" d="M108.958,284.359c-126.234,56.205-108.781,143.01,38.984,193.888
							c147.764,50.879,369.879,46.562,496.113-9.643c126.235-56.204,108.781-143.01-38.984-193.887
							C457.307,223.838,235.193,228.156,108.958,284.359z"/>
						<path fill="#EAEBEB" d="M111.287,285.166C-13.844,340.88,3.456,426.926,149.93,477.36
							c146.473,50.434,366.647,46.154,491.778-9.559c125.133-55.713,107.831-141.761-38.642-192.195S236.42,229.453,111.287,285.166
							z"/>
						<path fill="#E9E9E9" d="M113.686,285.972c-124.028,55.222-106.88,140.511,38.304,190.5
							c145.183,49.991,363.416,45.748,487.445-9.474c124.029-55.221,106.88-140.511-38.303-190.5
							C455.948,226.508,237.715,230.75,113.686,285.972z"/>
						<path fill="#E7E8E8" d="M116.015,286.829C-6.912,341.561,10.084,426.092,153.977,475.638
							c143.892,49.545,360.185,45.34,483.112-9.391c122.926-54.731,105.93-139.263-37.963-188.808
							C455.234,227.893,238.941,232.097,116.015,286.829z"/>
						<path fill="#E6E7E7" d="M118.293,287.635C-3.531,341.876,13.312,425.649,155.913,474.75
							c142.602,49.102,356.955,44.935,478.779-9.306c121.823-54.241,104.981-138.014-37.621-187.115
							C454.47,229.228,240.117,233.394,118.293,287.635z"/>
						<path fill="#E5E5E5" d="M120.622,288.441C-0.1,342.192,16.591,425.206,157.902,473.863
							c141.31,48.656,353.724,44.528,474.445-9.222c120.721-53.749,104.031-136.764-37.28-185.42
							C453.755,230.563,241.343,234.692,120.622,288.441z"/>
						<path fill="#E3E4E4" d="M122.95,289.248C3.332,342.507,19.869,424.763,159.889,472.975
							c140.02,48.212,350.493,44.121,470.111-9.138c119.619-53.258,103.081-135.515-36.939-183.727
							C453.041,231.898,242.569,235.989,122.95,289.248z"/>
						<path fill="#E2E3E3" d="M125.349,289.984c-118.515,52.768-102.13,134.265,36.6,182.032
							c138.73,47.767,347.263,43.714,465.778-9.054c118.516-52.768,102.129-134.265-36.6-182.032
							C452.397,233.163,243.864,237.217,125.349,289.984z"/>
						<path fill="#E1E1E1" d="M127.677,290.791c-117.413,52.277-101.18,133.016,36.26,180.339
							c137.439,47.323,344.03,43.308,461.443-8.969c117.414-52.277,101.18-133.016-36.259-180.339
							C451.682,234.498,245.09,238.514,127.677,290.791z"/>
						<path fill="#DFE0E0" d="M130.006,291.597c-116.31,51.785-100.229,131.766,35.918,178.646
							c136.148,46.878,340.8,42.9,457.11-8.885c116.31-51.786,100.229-131.767-35.919-178.646
							C450.968,235.834,246.316,239.812,130.006,291.597z"/>
						<path fill="#DEDEDF" d="M132.335,292.404c-115.208,51.295-99.279,130.517,35.577,176.952
							c134.857,46.434,337.569,42.493,452.776-8.801c115.207-51.295,99.279-130.518-35.578-176.951
							C450.253,237.168,247.542,241.109,132.335,292.404z"/>
						<path fill="#DCDDDD" d="M134.663,293.21C20.559,344.014,36.334,422.478,169.9,468.468
							c133.566,45.99,334.338,42.088,448.443-8.716c114.105-50.804,98.328-129.269-35.238-175.258
							C449.539,238.504,248.768,242.406,134.663,293.21z"/>
						<path fill="#DBDCDC" d="M137.062,294.066C24.06,344.38,39.684,422.086,171.959,467.632
							c132.276,45.546,331.108,41.681,444.109-8.632c113.002-50.314,97.378-128.021-34.898-173.565
							C448.895,239.888,250.063,243.753,137.062,294.066z"/>
						<path fill="#DADADB" d="M139.339,294.873c-111.9,49.823-96.428,126.771,34.556,171.872s327.877,41.274,439.776-8.549
							c111.9-49.823,96.429-126.771-34.556-171.872C448.131,241.224,251.239,245.051,139.339,294.873z"/>
						<path fill="#D8D9D9" d="M141.668,295.679C30.871,345.011,46.19,421.201,175.884,465.858
							c129.693,44.657,324.645,40.867,435.442-8.464c110.798-49.332,95.478-125.522-34.216-170.179
							C447.417,242.559,252.466,246.348,141.668,295.679z"/>
						<path fill="#D7D8D8" d="M143.997,296.485c-109.694,48.84-94.528,124.272,33.875,168.485
							c128.403,44.211,321.414,40.461,431.108-8.38c109.694-48.84,94.529-124.272-33.875-168.484
							C446.702,243.894,253.691,247.645,143.997,296.485z"/>
						<path fill="#D5D6D6" d="M146.325,297.292C37.733,345.641,52.747,420.315,179.86,464.083
							c127.112,43.768,318.183,40.055,426.775-8.295c108.591-48.349,93.578-123.023-33.535-166.791
							C445.987,245.229,254.917,248.943,146.325,297.292z"/>
						<path fill="#D4D5D5" d="M148.724,298.098c-107.489,47.859-92.628,121.774,33.194,165.098
							c125.823,43.323,314.953,39.647,422.442-8.21c107.49-47.859,92.628-121.774-33.194-165.098
							C445.343,246.565,256.213,250.241,148.724,298.098z"/>
						<path fill="#D3D4D4" d="M151.052,298.835c-106.386,47.367-91.678,120.524,32.854,163.402
							c124.531,42.879,311.721,39.24,418.108-8.127c106.385-47.367,91.677-120.523-32.855-163.402
							C444.629,247.829,257.438,251.468,151.052,298.835z"/>
						<path fill="#D1D2D2" d="M153.381,299.641C48.097,346.517,62.654,418.916,185.895,461.35
							c123.24,42.434,308.49,38.834,413.773-8.042s90.727-119.274-32.514-161.709C443.914,249.165,258.665,252.765,153.381,299.641z
							"/>
						<path fill="#D0D1D1" d="M155.71,300.448c-104.18,46.385-89.777,118.025,32.173,160.015
							c121.949,41.99,305.259,38.427,409.44-7.959c104.18-46.385,89.776-118.024-32.173-160.014
							C443.199,250.499,259.89,254.063,155.71,300.448z"/>
						<path fill="#CFD0D0" d="M158.039,301.254C54.96,347.148,69.212,418.03,189.87,459.576
							c120.659,41.545,302.028,38.02,405.106-7.874c103.078-45.894,88.827-116.776-31.832-158.322
							C442.485,251.835,261.116,255.36,158.039,301.254z"/>
						<path fill="#CDCECE" d="M160.387,302.111C58.411,347.515,72.51,417.638,191.878,458.74
							c119.368,41.101,298.798,37.613,400.774-7.79c101.976-45.404,87.877-115.528-31.491-156.629
							C441.792,253.219,262.362,256.707,160.387,302.111z"/>
						<path fill="#CCCDCD" d="M162.714,302.917c-100.872,44.912-86.926,114.279,31.152,154.935
							c118.077,40.657,295.567,37.207,396.439-7.706c100.873-44.912,86.927-114.278-31.151-154.935
							C441.077,254.555,263.588,258.004,162.714,302.917z"/>
						<path fill="#CACCCC" d="M165.044,303.723c-99.771,44.422-85.977,113.03,30.81,153.242
							c116.786,40.213,292.336,36.801,392.106-7.621c99.77-44.422,85.976-113.03-30.811-153.242
							C440.363,255.889,264.814,259.301,165.044,303.723z"/>
						<path fill="#C9CACA" d="M167.372,304.53c-98.667,43.931-85.026,111.78,30.47,151.548
							c115.495,39.768,289.104,36.393,387.772-7.537c98.667-43.931,85.026-111.78-30.469-151.548
							C439.648,257.225,266.039,260.6,167.372,304.53z"/>
						<path fill="#C8C9C9" d="M169.701,305.336c-97.564,43.44-84.076,110.531,30.129,149.855
							c114.205,39.323,285.873,35.987,383.438-7.453c97.564-43.439,84.075-110.531-30.13-149.854
							C438.934,258.56,267.266,261.897,169.701,305.336z"/>
						<path fill="#C6C7C8" d="M172.099,306.142c-96.462,42.949-83.125,109.281,29.79,148.161s282.643,35.581,379.105-7.368
							c96.463-42.949,83.125-109.281-29.789-148.161C438.29,259.896,268.562,263.194,172.099,306.142z"/>
						<path fill="#C5C6C6" d="M174.428,306.879c-95.359,42.458-82.175,108.031,29.448,146.466
							c111.624,38.434,279.413,35.173,374.771-7.285c95.359-42.458,82.175-108.031-29.449-146.466
							C437.575,261.16,269.787,264.421,174.428,306.879z"/>
						<path fill="#C3C5C5" d="M176.756,307.685C82.5,349.652,95.532,414.468,205.865,452.458
							c110.332,37.989,276.18,34.766,370.437-7.2c94.257-41.967,81.224-106.783-29.109-144.773
							C436.86,262.496,271.013,265.719,176.756,307.685z"/>
						<path fill="#C2C3C4" d="M179.085,308.492c-93.154,41.475-80.274,105.533,28.767,143.078
							c109.042,37.546,272.95,34.36,366.103-7.116c93.154-41.475,80.274-105.533-28.767-143.078
							C436.146,263.83,272.239,267.016,179.085,308.492z"/>
						<path fill="#C1C2C2" d="M181.363,309.298c-92.052,40.985-79.325,104.284,28.426,141.385
							c107.75,37.101,269.718,33.954,361.77-7.031c92.052-40.985,79.325-104.284-28.426-141.385
							C435.382,265.166,273.415,268.313,181.363,309.298z"/>
						<path fill="#BFC1C1" d="M183.762,310.155c-90.949,40.494-78.374,103.036,28.087,139.693
							c106.46,36.657,266.488,33.546,357.437-6.948c90.949-40.495,78.374-103.036-28.086-139.693
							C434.738,266.55,274.711,269.661,183.762,310.155z"/>
						<path fill="#BEBFC0" d="M186.091,310.961c-89.847,40.003-77.424,101.787,27.745,137.999
							c105.17,36.212,263.258,33.139,353.103-6.864c89.847-40.002,77.424-101.786-27.745-137.998
							C434.024,267.885,275.936,270.958,186.091,310.961z"/>
						<path fill="#BDBEBE" d="M188.418,311.767c-88.743,39.513-76.473,100.537,27.405,136.306
							c103.879,35.768,260.026,32.732,348.77-6.779c88.743-39.513,76.473-100.537-27.405-136.306
							C433.309,269.22,277.162,272.256,188.418,311.767z"/>
						<path fill="#BBBDBD" d="M190.748,312.574c-87.641,39.021-75.524,99.288,27.064,134.611
							c102.588,35.324,256.795,32.327,344.435-6.695c87.641-39.021,75.524-99.287-27.064-134.611
							C432.594,270.555,278.388,273.553,190.748,312.574z"/>
						<path fill="#BABBBC" d="M193.076,313.38c-86.537,38.53-74.573,98.039,26.724,132.918
							c101.298,34.88,253.564,31.92,340.102-6.611c86.538-38.53,74.573-98.038-26.724-132.918
							C431.88,271.891,279.614,274.85,193.076,313.38z"/>
						<path fill="#B8BABA" d="M195.475,314.187c-85.436,38.04-73.623,96.789,26.383,131.224
							c100.008,34.435,250.334,31.513,335.769-6.526c85.436-38.04,73.623-96.789-26.384-131.225
							C431.236,273.226,280.91,276.148,195.475,314.187z"/>
						<path fill="#B7B9B9" d="M197.803,314.923c-84.333,37.548-72.673,95.539,26.044,129.529
							c98.716,33.99,247.101,31.106,331.435-6.442c84.332-37.548,72.672-95.539-26.044-129.529
							C430.521,274.491,282.135,277.375,197.803,314.923z"/>
						<path fill="#B6B7B7" d="M200.132,315.729c-83.229,37.057-71.722,94.29,25.703,127.836
							c97.425,33.546,243.871,30.7,327.101-6.358c83.229-37.057,71.722-94.29-25.704-127.836
							C429.807,275.825,283.362,278.672,200.132,315.729z"/>
						<path fill="#B4B6B6" d="M202.41,316.536c-82.128,36.566-70.774,93.041,25.362,126.142
							c96.134,33.101,240.64,30.292,322.767-6.273c82.128-36.566,70.773-93.041-25.362-126.142
							C429.043,277.161,284.538,279.97,202.41,316.536z"/>
						<path fill="#B3B4B5" d="M204.739,317.392c-81.025,36.076-69.823,91.793,25.02,124.45
							c94.843,32.656,237.409,29.885,318.435-6.191c81.025-36.076,69.822-91.793-25.021-124.45
							C428.328,278.546,285.763,281.317,204.739,317.392z"/>
						<path fill="#B1B3B3" d="M207.137,318.199c-79.922,35.585-68.873,90.544,24.681,122.756
							c93.553,32.213,234.179,29.479,314.101-6.105c79.922-35.585,68.872-90.544-24.681-122.757
							C427.685,279.881,287.059,282.614,207.137,318.199z"/>
						<path fill="#B0B2B2" d="M209.466,319.005c-78.82,35.093-67.922,89.295,24.34,121.062
							c92.263,31.768,230.948,29.073,309.767-6.021c78.82-35.093,67.922-89.294-24.34-121.062
							C426.97,281.215,288.286,283.912,209.466,319.005z"/>
						<path fill="#AFB0B1" d="M211.795,319.812c-77.716,34.602-66.972,88.045,24,119.369s227.716,28.666,305.433-5.937
							c77.716-34.602,66.971-88.045-24-119.369C426.255,282.551,289.511,285.209,211.795,319.812z"/>
						<path fill="#ADAFAF" d="M214.123,320.618c-76.614,34.112-66.022,86.796,23.658,117.675
							c89.681,30.88,224.485,28.259,301.099-5.852c76.614-34.112,66.021-86.796-23.659-117.675S290.737,286.506,214.123,320.618z"/>
						<path fill="#ACAEAE" d="M216.452,321.424c-75.512,33.62-65.072,85.546,23.318,115.982
							c88.39,30.435,221.254,27.853,296.764-5.768c75.512-33.62,65.071-85.546-23.318-115.981
							C424.826,285.222,291.962,287.804,216.452,321.424z"/>
						<path fill="#ABACAD" d="M218.85,322.231c-74.409,33.129-64.121,84.297,22.979,114.288
							c87.099,29.99,218.023,27.446,292.432-5.683s64.121-84.297-22.979-114.288C424.182,286.556,293.259,289.101,218.85,322.231z"
							/>
						<path fill="#A9ABAB" d="M221.128,322.967c-73.306,32.639-63.171,83.047,22.638,112.593
							c85.809,29.546,214.793,27.038,288.1-5.6c73.306-32.639,63.171-83.047-22.638-112.593
							C423.419,287.822,294.435,290.328,221.128,322.967z"/>
						<path fill="#A8AAAA" d="M223.457,323.773c-72.204,32.147-62.221,81.799,22.296,110.899
							c84.518,29.101,211.563,26.632,283.766-5.515c72.203-32.148,62.221-81.798-22.297-110.9
							C422.704,289.156,295.66,291.626,223.457,323.773z"/>
						<path fill="#A6A8A9" d="M225.785,324.58c-71.101,31.656-61.271,80.549,21.956,109.206
							c83.227,28.657,208.33,26.226,279.431-5.431c71.101-31.656,61.271-80.548-21.956-109.205
							C421.989,290.492,296.886,292.924,225.785,324.58z"/>
						<path fill="#A5A7A7" d="M228.184,325.436c-69.998,31.167-60.32,79.301,21.617,107.513
							c81.936,28.212,205.101,25.818,275.098-5.348c69.998-31.166,60.32-79.301-21.617-107.513
							C421.346,291.876,298.182,294.271,228.184,325.436z"/>
						<path fill="#A4A6A6" d="M230.512,326.243c-68.895,30.675-59.37,78.052,21.276,105.82
							c80.646,27.768,201.869,25.412,270.765-5.263c68.895-30.676,59.37-78.052-21.276-105.82
							C420.631,293.212,299.408,295.568,230.512,326.243z"/>
						<path fill="#A2A4A5" d="M232.841,327.049c-67.792,30.184-58.42,76.802,20.935,104.126
							c79.355,27.323,198.638,25.005,266.43-5.18c67.793-30.184,58.42-76.802-20.934-104.125
							C419.916,294.546,300.633,296.865,232.841,327.049z"/>
						<path fill="#A1A3A3" d="M235.17,327.856c-66.69,29.693-57.469,75.553,20.594,102.432c78.064,26.88,195.408,24.6,262.097-5.094
							c66.69-29.694,57.469-75.553-20.595-102.432C419.202,295.882,301.859,298.162,235.17,327.856z"/>
						<path fill="#9FA2A2" d="M237.498,328.662c-65.587,29.202-56.519,74.304,20.254,100.738
							c76.772,26.436,192.175,24.192,257.762-5.009c65.587-29.203,56.519-74.304-20.254-100.739
							C418.487,297.217,303.086,299.46,237.498,328.662z"/>
						<path fill="#9EA0A1" d="M239.897,329.468c-64.485,28.711-55.568,73.054,19.915,99.045
							c75.482,25.991,188.945,23.785,253.429-4.926c64.484-28.711,55.568-73.054-19.915-99.045
							C417.843,298.553,304.381,300.757,239.897,329.468z"/>
						<path fill="#9D9F9F" d="M242.175,330.275c-63.382,28.22-54.619,71.805,19.572,97.352
							c74.192,25.546,185.714,23.378,249.097-4.841c63.383-28.221,54.619-71.805-19.572-97.352
							C417.08,299.887,305.558,302.055,242.175,330.275z"/>
						<path fill="#9B9D9E" d="M244.504,331.011c-62.28,27.729-53.67,70.555,19.231,95.656
							c72.902,25.101,182.484,22.972,244.763-4.758c62.28-27.729,53.669-70.555-19.232-95.656
							C416.365,301.153,306.783,303.283,244.504,331.011z"/>
						<path fill="#9A9C9C" d="M246.832,331.818c-61.176,27.238-52.718,69.305,18.892,93.963
							c71.611,24.656,179.252,22.565,240.429-4.673c61.177-27.238,52.719-69.306-18.892-93.963
							C415.65,302.487,308.008,304.58,246.832,331.818z"/>
						<path fill="#999B9B" d="M249.16,332.674c-60.073,26.747-51.769,68.058,18.551,92.27c70.32,24.212,176.021,22.158,236.095-4.59
							c60.074-26.747,51.769-68.058-18.551-92.27C414.936,303.872,309.235,305.927,249.16,332.674z"/>
						<path fill="#97999A" d="M251.559,333.481c-58.971,26.257-50.818,66.808,18.211,90.577
							c69.029,23.768,172.792,21.751,231.763-4.506c58.971-26.257,50.818-66.809-18.211-90.577
							C414.292,305.207,310.531,307.224,251.559,333.481z"/>
						<path fill="#969898" d="M253.888,334.287c-57.868,25.766-49.868,65.559,17.871,88.883
							c67.738,23.324,169.56,21.344,227.428-4.421c57.869-25.766,49.868-65.56-17.87-88.884
							C413.577,306.542,311.756,308.521,253.888,334.287z"/>
						<path fill="#949797" d="M256.216,335.093c-56.765,25.274-48.918,64.31,17.53,87.189
							c66.448,22.88,166.329,20.938,223.094-4.337c56.766-25.274,48.918-64.31-17.53-87.189
							C412.863,307.877,312.982,309.819,256.216,335.093z"/>
						<path fill="#939596" d="M258.545,335.9c-55.663,24.783-47.967,63.061,17.19,85.496c65.157,22.435,163.097,20.531,218.76-4.252
							c55.663-24.783,47.967-63.061-17.19-85.496C412.148,309.213,314.208,311.116,258.545,335.9z"/>
						<path fill="#929494" d="M260.874,336.706c-54.56,24.293-47.017,61.811,16.848,83.803
							c63.865,21.99,159.866,20.124,214.426-4.169c54.56-24.292,47.017-61.811-16.848-83.802
							C411.434,310.548,315.434,312.413,260.874,336.706z"/>
						<path fill="#909393" d="M263.222,337.512c-53.458,23.801-46.067,60.562,16.508,82.108
							c62.575,21.547,156.636,19.719,210.095-4.083c53.458-23.801,46.067-60.562-16.508-82.108
							C410.741,311.883,316.68,313.711,263.222,337.512z"/>
						<path fill="#8F9192" d="M265.551,338.319c-52.356,23.31-45.117,59.313,16.167,80.415
							c61.285,21.102,153.406,19.312,205.761-3.998c52.356-23.31,45.117-59.313-16.167-80.415
							C410.026,313.218,317.906,315.009,265.551,338.319z"/>
						<path fill="#8D9090" d="M267.879,339.055c-51.253,22.82-44.167,58.063,15.827,78.72
							c59.994,20.657,150.174,18.904,201.426-3.916c51.253-22.82,44.167-58.063-15.827-78.72
							C409.311,314.483,319.132,316.236,267.879,339.055z"/>
						<path fill="#8C8F8F" d="M270.208,339.862c-50.15,22.328-43.217,56.813,15.485,77.026
							c58.704,20.213,146.943,18.498,197.093-3.83c50.15-22.329,43.216-56.814-15.486-77.027
							C408.597,315.818,320.358,317.533,270.208,339.862z"/>
						<path fill="#8B8D8E" d="M272.536,340.718c-49.048,21.838-42.267,55.566,15.145,75.334
							c57.411,19.768,143.712,18.09,192.758-3.747c49.048-21.838,42.266-55.566-15.145-75.334
							C407.883,317.202,321.583,318.88,272.536,340.718z"/>
						<path fill="#898C8C" d="M274.935,341.525c-47.945,21.346-41.316,54.317,14.806,73.64
							c56.121,19.324,140.481,17.684,188.425-3.663c47.944-21.346,41.315-54.316-14.806-73.64
							C407.238,318.538,322.879,320.177,274.935,341.525z"/>
						<path fill="#888B8B" d="M277.264,342.331c-46.842,20.856-40.366,53.067,14.465,71.947
							c54.831,18.879,137.251,17.277,184.092-3.578c46.842-20.856,40.365-53.068-14.466-71.947
							C406.524,319.872,324.105,321.475,277.264,342.331z"/>
						<path fill="#87898A" d="M279.591,343.138c-45.739,20.365-39.415,51.818,14.124,70.253
							c53.54,18.435,134.02,16.87,179.758-3.494c45.74-20.365,39.415-51.819-14.124-70.253
							C405.81,321.208,325.331,322.773,279.591,343.138z"/>
						<path fill="#858888" d="M281.92,343.944c-44.636,19.873-38.464,50.569,13.784,68.559
							c52.25,17.991,130.788,16.465,175.424-3.409c44.636-19.873,38.464-50.569-13.784-68.559
							C405.095,322.543,326.556,324.07,281.92,343.944z"/>
						<path fill="#848687" d="M284.199,344.75c-43.534,19.383-37.515,49.319,13.442,66.866
							c50.958,17.547,127.557,16.058,171.091-3.325c43.534-19.384,37.515-49.32-13.442-66.867
							C404.332,323.879,327.732,325.367,284.199,344.75z"/>
						<path fill="#828586" d="M286.597,345.557c-42.431,18.892-36.565,48.07,13.103,65.172
							c49.668,17.102,124.327,15.651,166.758-3.241c42.431-18.892,36.565-48.07-13.104-65.172
							C403.687,325.213,329.028,326.665,286.597,345.557z"/>
						<path fill="#828586" d="M331.585,361.062c-21.216,9.446-18.282,24.036,6.551,32.588c24.834,8.551,62.163,7.826,83.38-1.621
							c21.215-9.447,18.282-24.036-6.552-32.587C390.13,350.891,352.801,351.615,331.585,361.062z"/>
					</g>
				</g>
			</g>
		</g>
	</g>
	<g>
		<g>
			<polygon fill="#FFFFFF" points="399.225,131.119 444.92,131.119 444.92,176.814 399.225,176.814 399.225,131.119 			"/>
		</g>
	</g>
	<g>
		
			<path fill-rule="evenodd" clip-rule="evenodd" fill="none" stroke="#1A171B" stroke-width="0.4223" stroke-miterlimit="3.8637" d="
			M415.136,65.27c-0.326-0.418-0.601-0.786-0.793-1.108"/>
	</g>
	<g>
		<path fill-rule="evenodd" clip-rule="evenodd" fill="#FFFFFF" d="M417.553,81.664c0,0,0.139,0.11-0.087,0.742
			c-0.352,0.987-0.707,1.892-0.918,2.216c-0.211,0.323-2.836,7.634-5.236,13.109c-2.398,5.476-5.235,20.461-5.714,23.1
			c-0.48,2.639-2.626,18.554-2.34,19.428c0.769,2.359-0.095,1.759-0.476,2.092c-0.379,0.333-0.285,1.521-0.475,1.855
			c-0.19,0.332,0.048,0.808,0.143,1.283c0.095,0.475,0.285,1.35-0.238,1.731c-0.522,0.381-0.693,0.617-1.141,2.471
			c-0.446,1.855-1.872,8.72-1.968,9.099c-0.095,0.381,0.518,1.959,0.518,1.959s1.827-0.563,3.513-1.195
			c1.687-0.632,6.465-2.388,1.687,0.774c-4.778,3.161-5.552,3.793-3.935,4.215c1.616,0.422,3.935-0.211,4.777,0.843
			c0.843,1.054,3.161,0.422,6.042-0.21c2.881-0.632,7.518,0.21,13.139,0.21s13.138,1.265,13.981-0.421
			c0.844-1.687,0.211-3.514-0.631-5.621c-0.844-2.107-4.146-22.484-4.778-27.12c-0.632-4.637,0.362-26.687,2.359-34.361
			c1.997-7.672,7.673-20.356,7.673-22.354c0-1.997-0.552-4.028-0.843-4.706c-0.034-0.081-0.112-0.161-0.085-0.24l-0.334-1.922
			L427.39,81.532l-8.194-3.271L417.553,81.664z"/>
	</g>
	<g>
		<path fill-rule="evenodd" clip-rule="evenodd" fill="#1A171B" d="M478.254,202.311c0-1.738,1.447-2.185-0.724-3.488
			c-2.172-1.304-8.571-4.792-10.163-5.806c-1.593-1.014-3.028-2.317-4.779-1.448c-1.751,0.869-7.399,6.978-7.254,9.44
			c0.145,2.461,0.434,6.964,1.447,9.281c1.014,2.317,2.331,2.185-1.014,5.227c-3.343,3.041-3.91,5.384,0.725,4.647
			c4.634-0.738,6.806-1.317,9.281-1.461c2.475-0.145,8.895-2.815,8.895-2.815s2.363-1.949,2.363-4.836
			C477.032,208.162,478.254,202.311,478.254,202.311z"/>
	</g>
	<g>
		<path fill-rule="evenodd" clip-rule="evenodd" fill="#1A171B" d="M417.748,85.086c-0.071,0.493-0.211,1.88-0.565,2.867
			c-0.352,0.987-0.211,0.353,1.552,0.071c1.762-0.282,3.713-0.282,3.925,0.141c0.211,0.424,1.057,0.424,0.423,1.481
			c-0.634,1.057-2.399,3.93-3.378,7.865c-0.979,3.935-3.894,14.739-5.284,23.37c-1.39,8.632-2.369,18.634-2.565,23.939
			c-0.196,5.304,0.763,5.696,1.761,6.871c0.998,1.174,1.39,0,1.978-0.784c0.587-0.783,1.37-3.739,1.174-6.087
			c-0.196-2.348,0.391-7.653,0.391-7.653s0.196,5.479,0.196,7.653c0,2.173,0.587,9.239,0.587,9.239s2.369,2.154,3.739,3.132
			c1.37,0.978,2.74-2.72,3.327-3.719c0.587-0.998-0.783-6.674-1.174-11.196c-0.392-4.522-0.587-20.807,0-27.482
			c0.587-6.674-0.392-14.935,0.783-17.283c1.174-2.35,2.349-4.131,2.545-6.48c0.196-2.349,2.172-5.304,3.543-6.087
			c1.37-0.783,2.956-1.565,3.935-2.348c0.978-0.783,2.153-0.196,3.131,0c0.978,0.196,0.607-1.35-1.761-2.349
			c-2.369-0.998-2.565,0.391-4.13,1.566c-1.566,1.174-0.959,2.153-3.523,2.544c-2.565,0.391-4.305,0.783-5.891,0.978
			C420.879,85.531,417.748,85.086,417.748,85.086z"/>
		
			<path fill-rule="evenodd" clip-rule="evenodd" fill="none" stroke="#1A171B" stroke-width="0.1061" stroke-miterlimit="3.8637" d="
			M417.748,85.086c-0.071,0.493-0.211,1.88-0.565,2.867c-0.352,0.987-0.211,0.353,1.552,0.071c1.762-0.282,3.713-0.282,3.925,0.141
			c0.211,0.424,1.057,0.424,0.423,1.481c-0.634,1.057-2.399,3.93-3.378,7.865c-0.979,3.935-3.894,14.739-5.284,23.37
			c-1.39,8.632-2.369,18.634-2.565,23.939c-0.196,5.304,0.763,5.696,1.761,6.871c0.998,1.174,1.39,0,1.978-0.784
			c0.587-0.783,1.37-3.739,1.174-6.087c-0.196-2.348,0.391-7.653,0.391-7.653s0.196,5.479,0.196,7.653
			c0,2.173,0.587,9.239,0.587,9.239s2.369,2.154,3.739,3.132c1.37,0.978,2.74-2.72,3.327-3.719
			c0.587-0.998-0.783-6.674-1.174-11.196c-0.392-4.522-0.587-20.807,0-27.482c0.587-6.674-0.392-14.935,0.783-17.283
			c1.174-2.35,2.349-4.131,2.545-6.48c0.196-2.349,2.172-5.304,3.543-6.087c1.37-0.783,2.956-1.565,3.935-2.348
			c0.978-0.783,2.153-0.196,3.131,0c0.978,0.196,0.607-1.35-1.761-2.349c-2.369-0.998-2.565,0.391-4.13,1.566
			c-1.566,1.174-0.959,2.153-3.523,2.544c-2.565,0.391-4.305,0.783-5.891,0.978C420.879,85.531,417.748,85.086,417.748,85.086z"/>
	</g>
	<g>
		<path fill-rule="evenodd" clip-rule="evenodd" fill="#1A171B" d="M414.342,64.162c-0.962-1.315-1.137-1.857-1.137-1.857
			s-1.066,1.706-2.559,0.64c-1.493-1.067-2.346-5.395-2.346-6.675c0-1.279,0.791-1.982-0.916-4.541
			c-1.706-2.56,0.062-13.776,1.129-16.122c1.066-2.346,4.328-4.968,7.315-6.675c2.986-1.706,6.035-3.111,7.741-2.622
			c1.706,0.489,2.408,0.213,4.755,0c2.346-0.213,4.203,0.062,5.759,1.769c1.556,1.706,1.556,3.777,3.689,4.48
			c2.133,0.702,3.902,1.555,3.689,3.475c-0.213,1.92-0.64,2.195,0.853,4.328c1.494,2.133,2.133,3.137,1.706,5.759
			c-0.426,2.623-0.639,3.902,0.214,4.542c0.854,0.639,0.64,2.195,0,3.901c-0.639,1.706-0.853,4.329-1.28,5.608
			c-0.427,1.279-2.408,2.346-2.835,1.279c-0.427-1.066,0,2.134-0.213,3.2c-0.214,1.067-1.067,1.983-1.067,3.049
			c0,1.067,0.213,4.266,0.213,4.266s-4.114,5.333-6.034,6.674c-1.92,1.342-5.822,4.542-5.822,4.542l-4.053,0.213l-4.329-4.968
			c0,0,0.427-4.329,0.213-6.462c-0.213-2.133-1.004-3.049-3.199-5.822l-0.692-0.874c-0.39,0.41-0.892,0.555-1.465,0.555
			c-0.684,0-1.709-0.205-1.367-0.205c0.342,0,0.82-0.137,1.299-0.41C413.905,65.037,414.17,64.619,414.342,64.162z"/>
	</g>
	<g>
		<path fill-rule="evenodd" clip-rule="evenodd" fill="#1A171B" d="M440.796,309.341c-0.411-7.455-1.203-20.828-1.787-24.684
			c-0.825-5.438,0-7.087-1.237-14.586c-1.236-7.499-2.061-17.472-2.061-20.849c0-3.377-1.316-2.14-2.965-11.7
			c-1.648-9.56-2.395-17.138-4.122-0.412c-1.728,16.726-0.903,24.146-1.728,28.347c-0.824,4.201,2.141,17.138,1.728,20.024
			c-0.307,2.15-3.172,17.17-4.615,24.699c-0.195,21.751-4.282,46.959-4.677,49.728c-0.681,4.761-2.164,16.571-2.164,16.571
			s-1.36,2.38-0.681,3.74c0.681,1.361,1.825,3.524,1.361,6.925c-0.464,3.401,0.464,4.421-3.401,4.421
			c-3.865,0-8.626,0.681-8.626,0.681s-1.158-2.335-4.015-0.73c-4.757,2.672-10.391,2.554-13.452,3.233
			c-3.06,0.681-15.817-0.378-17.177-0.378c-1.36,0-1.094-3.486-1.094-3.486s1.36-4.42,3.865-4.761
			c2.505-0.34,7.339-1.756,7.339-1.756s6.577-8.475,8.475-15.051c1.898-6.577,6.577-11.006,5.695-15.435
			c-0.882-4.426-1.75-30.341-2.343-39.466c0.006-1.143,0.933-23.115,2.138-27.207c1.236-4.201,2.14-7.086,0.412-12.937
			c-1.728-5.85-1.316-29.663-1.316-31.724c0-2.061-0.317-8.832-0.317-8.832s-2.897-0.085-6.276-2.28
			c-3.38-2.197-4.478-2.27-5.263-4.551c-0.784-2.28-3.536-5.021-3.536-6.203c0-1.183,0.628-7.701,0.628-7.701
			s-2.354-1.568-2.982-2.667c-0.627-1.098,0.828-6.266,2.451-9.694c1.624-3.428,2.976-11.996,5.863-19.483
			c2.887-7.486,5.593-15.695,6.675-21.828c1.082-6.133,0.811-7.757,0.811-13.62c0-5.863,2.076-33.191,3.428-37.16
			c1.353-3.97,1.083-4.87,1.894-7.487c0.811-2.617,4.308-6.062,6.816-7.754c2.89-1.95,7.473-4.159,9.283-6.463
			c1.809-2.303,2.374-3.22,2.867-3.925c0.493-0.705,0.775-1.199,0.775-1.199s0.353-0.282,0,0.705
			c-0.352,0.987-0.707,1.892-0.918,2.216c-0.211,0.323-2.836,7.634-5.236,13.109c-2.398,5.476-5.235,20.461-5.714,23.1
			c-0.48,2.639-2.626,18.554-2.34,19.428c0.769,2.359-0.095,1.759-0.476,2.092c-0.379,0.333-0.285,1.521-0.475,1.855
			c-0.19,0.332,0.048,0.808,0.143,1.283c0.095,0.475,0.285,1.35-0.238,1.731c-0.522,0.381-0.693,0.617-1.141,2.471
			c-0.446,1.855-1.872,8.72-1.968,9.099c-0.095,0.381,0.518,1.959,0.518,1.959s1.827-0.563,3.513-1.195
			c1.687-0.632,6.465-2.388,1.687,0.774c-4.778,3.161-5.552,3.793-3.935,4.215c1.616,0.422,3.935-0.211,4.777,0.843
			c0.843,1.054,3.161,0.422,6.042-0.21c2.881-0.632,7.518,0.21,13.139,0.21s13.138,1.265,13.981-0.421
			c0.844-1.687,0.211-3.514-0.631-5.621c-0.844-2.107-4.146-22.484-4.778-27.12c-0.632-4.637,0.362-26.687,2.359-34.361
			c1.997-7.672,7.673-20.356,7.673-22.354c0-1.997-0.552-4.028-0.843-4.706c-0.291-0.679-0.194-1.454,1.647,0.096
			c1.842,1.551,4.059,2.992,4.834,3.38c0.775,0.387,1.466,0.387,4.652,0.775c3.185,0.387,17.02,1.745,18.182,1.453
			c1.163-0.29,2.41-0.096,3.186,0.97c0.775,1.066,4.77,9.935,6.671,23.285c1.902,13.349,1.902,24.369,2.445,29.687
			c0.544,5.316,2.716,11.603,1.63,16.493c-1.087,4.889-2.989,42.064-2.989,44.666c0,2.6,1.931,6.939-0.397,8.995
			c-2.329,2.057-4.331,2.344-4.331,2.344l0.317-3.128c0,0,1.964-1.646,1.71-2.343c-0.253-0.696-1.939-2.194-3.927-3.293
			c-1.987-1.1-4.308-3.127-6.801-3.635c-2.494-0.507-3.508-0.57-5.472,0.507c-1.964,1.076-3.698,1.646-5.914,8.511
			c-2.217,6.864-1.52,10.182-1.268,10.626c0.254,0.443,0.76,1.14,1.141,1.9c0.38,0.76,1.077,2.05-0.38,3.444
			c-1.457,1.393-2.66,2.28-2.66,2.28s-0.633,1.393,1.204,1.52c1.837,0.127,4.648-1.837,5.408-2.533
			c0.76-0.697,1.267-1.584,1.773-1.647c0.507-0.064,1.078,0.317,0.951,1.013c-0.127,0.697-0.001,2.091,1.647,2.091
			c0.886,0,0.886,0.103,0.823,1.52c-0.064,1.417-0.568,18.157-0.98,25.244c-0.412,7.086,0.079,14.999,2.552,25.462
			c2.474,10.463,2.886,23.321,2.886,29.171c0,2.868,0.199,6.482,0.401,9.422c0.297,5.78,0.147,12.716,0.147,15.525
			c0,5.101,0.015,30.452-1.81,35.336c-1.824,4.886-1.7,12.027-3.06,14.067c-1.36,2.04-0.063,3.569,2.132,7.522
			c1.868,3.363,4.502,5.911,4.502,7.611c0,1.7-0.366,3.11-0.366,3.11s-1.043,2.408-3.208,3.768c-2.163,1.36-4.026,1.225-6.527,1.099
			c-14.491-0.731-13.32-4.964-15.361-7.005c-2.04-2.04,0.681-8.625,1.02-10.666c0.34-2.04-2.504-3.401-3.864-4.76
			c-1.361-1.36-1.361-4.204-0.681-5.565c0.681-1.36,0.681-3.741,0.681-6.801s-1.468-27.529-2.148-31.95
			C442.383,326.327,441.038,314.051,440.796,309.341z"/>
	</g>
	<g>
		<path fill-rule="evenodd" clip-rule="evenodd" fill="#1A171B" d="M427.105,229.864c-1.468-0.326-19.924-0.49-20.576-0.979
			c-0.653-0.49-6.478-6.804-8.437-7.131c-1.958-0.326-8.674-3.352-12.869-1.932c-4.193,1.419-7.457,5.499-8.273,5.662
			c-0.815,0.163-3.791,1.329-3.791,1.329s-12.303-0.326-14.262-0.326c-1.958,0-3.214-0.701-3.54,2.235
			c-0.326,2.937-0.816,22.421-0.979,24.167c-0.163,1.746,0.816,3.051,0.816,3.051s-1.469,24.444-1.469,25.096
			c0,0.653,0.767,2.284,3.705,2.611c2.937,0.326,61.942,5.336,63.524,5.336c1.583,0,2.073-1.305,2.726-2.121
			c0.652-0.816,2.822-0.653,4.079-0.653c1.257,0,1.419-54.713,1.419-55.691C429.177,229.537,428.574,230.19,427.105,229.864z"/>
	</g>
</g>
</svg>
