<?xml version="1.0" encoding="utf-8"?>
<!-- Generator: Adobe Illustrator 17.0.0, SVG Export Plug-In . SVG Version: 6.00 Build 0)  -->
<!DOCTYPE svg PUBLIC "-//W3C//DTD SVG 1.1//EN" "http://www.w3.org/Graphics/SVG/1.1/DTD/svg11.dtd">
<svg version="1.1" id="Layer_1" xmlns="http://www.w3.org/2000/svg" xmlns:xlink="http://www.w3.org/1999/xlink" x="0px" y="0px"
	 width="355px" height="402px" viewBox="0 0 355 402" enable-background="new 0 0 355 402" xml:space="preserve">
<g>
	<g>
		<path fill="#0D0A0A" d="M167.246,361.313c0,0,2.008,6.016,1.469,13.635c0,0-7.217,3.345-8.287,3.611
			c-1.068,0.268-4.816-0.401-4.816-0.401s-1.469,1.472-1.87,3.209c-0.401,1.739-2.138,3.074-5.615,4.412
			c-3.477,1.337-9.628,0.936-13.902,0.537c-4.282-0.401-5.081-2.806-4.683-4.814c0,0,2.409-1.472,3.076-3.879
			c0.669-2.404,2.94-4.008,4.813-4.946c1.873-0.936,2.943-1.868,3.211-2.805c0.268-0.938,2.003-3.076,2.805-3.21
			c0.802-0.134,1.336-1.871,2.273-4.143C146.656,360.243,167.246,361.313,167.246,361.313z"/>
		<path fill="#010810" d="M135.158,187.106c-0.667,4.011-3.742,20.99-3.609,24.866c0.135,3.877,0.669,4.011-0.133,5.75
			c-0.802,1.736-0.802,7.218,0,20.722c0.802,13.505,2.003,25.004,2.003,28.481c0,3.473,0,8.821,0.404,10.556
			c0.404,1.741,0.404,2.677,0.266,4.146c-0.133,1.472,0.537,7.89,0.938,10.432c0.401,2.537,0.401,4.011,0.401,5.479
			c0,1.473,0.536,5.616,2.138,11.099c1.607,5.479,2.542,8.821,2.675,9.893c0.135,1.068,0.268,6.952,1.068,11.767
			c0.805,4.811,0.938,6.281,0.805,8.421c-0.135,2.138-0.667,5.214,0,8.289c0.669,3.076,2.008,5.615,2.943,6.952
			c0.935,1.335,0.935,1.871,0.935,2.673c0,0.803-0.268,2.542-0.669,4.41c-0.401,1.874-0.938,3.345-0.802,3.746
			c0.133,0.4,2.94,0.13,6.417,1.201c3.477,1.07,7.623,1.605,11.896,1.207c4.282-0.403,5.751-1.607,5.751-1.607s0.401-1.335,0-3.21
			c-0.398-1.871-0.667-3.61-0.935-4.144c-0.268-0.534-0.534-1.471-0.534-1.471s0.401-1.871,1.339-3.877
			c0.935-2.005,1.333-3.877,0.802-4.944c-0.539-1.07-0.672-2.008-0.672-2.008s0.401-4.545-1.203-10.562
			c-1.601-6.016-2.805-9.359-2.138-11.364c0.667-2.005,1.339-4.143,1.471-6.017c0.133-1.872,0.935-0.935,0.133-6.951
			c-0.802-6.015-1.068-9.627-0.802-10.829c0.266-1.202,0-3.478-0.534-4.277c-0.534-0.803-1.604-1.604-0.669-3.211
			c0.938-1.604,1.74-3.076,1.604-5.078c-0.135-2.008,0-4.011,0.268-4.948c0.268-0.936,0.935-5.881,0.667-8.42
			c-0.265-2.542,0.938-4.681,0.672-8.024c-0.271-3.343-0.805-5.481-0.404-7.087c0.404-1.604,0.404-3.475,0.404-5.347
			c0-1.873,0.799-4.948,0.799-4.948s0.133,1.872,0.669,2.809c0.537,0.938,0.537,1.202,0.537,2.139c0,0.936,0.133,1.201,0.534,2.807
			c0.401,1.603,0.401,5.749,1.737,8.688c1.336,2.943,1.068,4.28,1.604,6.151c0.534,1.873,0,2.406,0.935,3.744
			c0.938,1.337,0.802,3.877,1.872,6.416c1.071,2.542,0.537,4.948,2.005,11.367c1.474,6.416,2.542,18.849,2.808,22.46
			c0.268,3.612,1.206,5.885,1.737,7.352c0.537,1.471,0.133,2.809,0,4.414c-0.133,1.604,0.133,4.413,0.537,8.023
			c0.398,3.607,1.333,13.902,1.333,13.902s-2.003,2.139-3.607,4.681c-1.604,2.542-3.076,4.278-2.406,6.817
			c0.669,2.541,1.873,3.612,2.141,4.947c0.266,1.337,0.935,2.942,2.271,4.678c1.339,1.741,2.409,2.809,2.409,2.809
			s8.552-2.27,16.04-0.401c0,0,0.536,0.134,1.74-2.672c1.203-2.806,2.539-6.685,2.138-7.219c-0.401-0.534-0.802-1.604-0.802-1.604
			s1.071-2.81,2.542-4.948c1.469-2.138,3.073-7.086,2.807-8.691c-0.268-1.604,0-5.882,0.398-8.157
			c0.401-2.27-0.263-17.112-1.336-23.263c-1.068-6.149-2.003-9.492-1.602-11.23c0.398-1.736,0.263-3.742-0.268-4.678
			c-0.537-0.938-0.669-4.011-0.268-5.216c0.398-1.202,0.536-4.946,0.398-13.634c-0.13-8.693-0.667-13.505-0.667-14.575
			c0-1.071,0.268-3.473,0.537-4.677c0.268-1.205,1.737-8.826,2.138-17.384c0.401-8.555,1.74-16.177-0.669-28.878
			c-2.406-12.701-7.487-40.105-7.487-40.105L135.158,187.106z"/>
		<path fill="#0C1524" d="M167.53,67.75c-4.715,1.267-7.341,3.171-8.247,4.983c-0.906,1.814-1.995,1.995-1.995,1.995
			s-4.351,1.36-10.696,5.076c-6.343,3.716-8.882,4.078-10.242,4.71c-1.357,0.638-3.262,2.539-3.262,2.539s-1.902,0.182-1.634,5.53
			c0.274,5.348,0.725,8.34,0.454,10.514c-0.271,2.174-0.545,3.626-0.364,5.438c0.183,1.814,0,7.341-1.538,13.142
			c-1.54,5.801-2.539,8.792-2.268,9.879c0.274,1.091,0.183,2.63-0.09,3.356c-0.271,0.722-0.451,0.813-0.271,1.904
			c0.181,1.085-0.635,1.539-1.543,2.537c-0.906,0.997-1.902,1.811-1.538,3.081c0.361,1.27,0.271,2.174-0.181,2.809
			c-0.454,0.636-0.632,0.818-0.545,1.722c0.09,0.907-0.183,2.084-0.725,3.171c-0.545,1.09-1.177,2.539-0.908,3.356
			c0.274,0.813-0.545,1.538-0.181,2.627c0.361,1.088,0.818,0.815,0.545,1.995c-0.274,1.179-0.999,2.537-0.364,3.353
			c0.638,0.815,1.179,0.635,0.999,1.632c-0.181,0.995-0.545,0.09,0.09,1.63c0.635,1.544,0.545,3.446,0.999,4.895
			c0.451,1.45-0.364,3.627,0.722,6.526c1.086,2.899,1.541,5.076,3.081,6.8c1.543,1.72,2.178,3.081,2.449,3.806
			c0.271,0.722,0.635,0.907,0.908,0.27c0.268-0.632,1.267-2.718,1.267-2.718s-0.545,5.53-1.267,12.963
			c-0.725,7.434-0.908,14.956-1.001,15.954c-0.088,0.995-0.358,1.902,1.36,2.627c1.724,0.725,5.711,2.357,8.433,3.806
			c2.717,1.452,14.319,3.988,17.129-24.564c0,0,0.544,10.243,4.167,18.308c3.626,8.069,4.17,10.243,21.121,9.882
			c16.951-0.365,26.375-1.995,28.914-2.448c2.537-0.454,3.535-1.087,3.535-1.449c0-0.365-0.906-13.778-1.543-19.036
			c-0.632-5.258-4.08-26.286-4.895-30.001c0,0,4.077-1.267,5.078-1.904c0.996-0.632,2.879-0.632,3.535-1.539
			c0.651-0.907,1.628-1.904,2.988-3.171c1.363-1.27,3.355-3.174,4.808-10.336c1.447-7.158,2.353-13.955,2.714-17.854
			c0.367-3.898,0.545-10.786,0.274-16.407c-0.274-5.618-0.815-9.336-1.631-12.416c-0.815-3.081-0.451-4.351-0.722-5.983
			c-0.274-1.631-0.093-2.174-0.457-2.718c-0.361-0.544-0.271-2.449-0.545-4.531c-0.271-2.084-0.361-2.991-1.086-5.167
			c-0.725-2.177-1.45-4.262-3.262-3.809c0,0-3.716-2.355-6.887-3.624c-3.174-1.267-9.974-4.983-12.784-6.073
			c-2.808-1.087-4.351-1.631-4.351-1.631s-1.087-1.813-2.901-2.81c-1.811-0.996-2.356-0.907-3.442-3.716
			c-1.086-2.809,0.093-5.258-5.62-3.806C178.407,64.304,167.53,67.75,167.53,67.75z"/>
		<path fill="#DCE3E6" d="M130.361,163.443c0,0-3.841,1.076-4.338,5.618c-0.494,4.545-0.908,5.534-0.247,6.031
			c0.659,0.493,2.149,1.073,2.313,1.652c0.165,0.578-0.332,0.867,0.908,0.907c1.238,0.043,1.902,0.786,2.685,0.95
			c0.784,0.166,0.906,0.083,1.073,0.579c0.165,0.497,0.329,1.486,0.948,1.364c0.621-0.125,2.975-0.701,3.182-0.951
			c0.205-0.247,0.04-13.297-0.369-13.59C136.101,165.716,130.361,163.443,130.361,163.443z"/>
		<path fill="#B86F19" d="M149.041,160.924c0,0,0.178-0.181,1.631-0.635c1.45-0.453,2.356-1.177,4.351-0.722
			c1.995,0.45,6.616,0.542,6.616,0.542s1.177,3.806,1.995,7.343c0.815,3.534,1.089,6.255,1.089,6.255s-2.539,2.265-5.076,2.99
			c-2.539,0.725-4.441,0.997-6.255,1.902c-1.814,0.91-12.688,5.167-14.956,0.997c-2.266-4.169-4.985-5.618-1.54-8.792
			c3.442-3.172,7.07-7.068,7.07-7.068s-2.175-0.365-4.263-0.635c-2.082-0.272-2.173-2.812-1.718-3.446c0,0,1.45-0.181,2.266,0.182
			c0.813,0.363,1.721-0.454,2.81,0.09c1.086,0.545,1.267,0.272,2.444,0.363C146.683,160.379,147.769,160.471,149.041,160.924z"/>
		<path fill="#DCE3E6" d="M161.145,159.617l1.023-0.258c0,0,0.951,3.484,2.332,8.097c1.384,4.61,1.796,9.143,1.796,9.143
			l-1.695,0.028c0,0-0.329-5.149-1.28-8.635C162.375,164.508,161.145,159.617,161.145,159.617z"/>
		<path fill="#C88531" d="M127.923,170.879c-0.892-1.181-1.402-3.015-1.113-4.09c0.287-1.073,1.897-3.013,3.469-3.922
			c1.57-0.91,2.478-1.406,4.914-1.446c2.436-0.041,3.923-0.041,5.328,0.742c1.402,0.786,2.106,1.033,2.643,1.943
			c0.537,0.907,0.372,0.989,1.238,1.486c0.868,0.497,1.158,0.66,1.447,1.405c0.292,0.744,0.372,0.867,1.487,1.774
			c1.115,0.908,1.817,1.652,0.414,2.809c-1.408,1.155-5.124,0-6.858-2.479c0,0-0.866-0.247-1.362-0.497c0,0,0.125,1.159,0.082,1.653
			c-0.042,0.498,0.414,0.703,0.866,1.035c0.454,0.328,1.033,0.907,1.408,1.651c0.369,0.742,0.616,1.239,0.826,1.365
			c0.205,0.123,1.482,0.989,1.899,2.27c0,0,2.89-0.207,4.045,0.537c0,0,0.744-0.163,3.222-0.163c2.478,0,3.182,0.453,3.057,1.486
			c-0.125,1.032-1.859,1.859-3.429,2.025c0,0,0.292,1.071-1.445,1.939c-1.732,0.87-1.981,1.199-1.981,1.199s0.003,1.071-1.323,1.32
			c-1.32,0.247-3.965-0.786-3.965-0.786s-1.402-0.163-2.356-0.329c-0.946-0.165-2.433-0.204-2.643-0.33
			c-0.202-0.124-0.866,0.044-2.393-2.272c-1.527-2.312-2.478-2.849-3.883-5.284C130.114,173.479,128.956,172.24,127.923,170.879z"/>
		<path fill="#DCE3E6" d="M160.579,76.033c0,0-0.226-9.308,1.695-9.367c1.915-0.054,19.743-4.906,21.828-5.017
			c2.087-0.113,3.442,0.166,4.061,3.042c0.621,2.879,1.862,4.177-0.789,8.689s-7.163,14.554-8.462,17.995
			c-1.296,3.438-6.263,15.342-9.14,23.352s-9.248,25.834-9.248,25.834s-1.864-13.368-2.706-20.081
			c-0.847-6.711-2.369-14.721-0.847-26.4C158.492,82.409,158.659,79.923,160.579,76.033z"/>
		<path fill="#2A2334" d="M169.039,77.781c-3.777-0.396-5.02,1.635-5.02,1.635s0.056,1.134,0.566,1.693
			c0.507,0.559,0.621,1.521,0.507,2.539c-0.112,1.015,0.847,1.183,0.847,1.183s-0.677,2.258-1.692,4.23
			c-1.015,1.975,0,1.582-1.804,8.124c-1.806,6.544-1.639,11.452-2.539,21.041c-0.444,4.721-0.81,7.979-1.063,10.069
			c0.818,6.076,1.681,12.267,1.681,12.267s5.049-14.113,8.186-22.867c0.13-7.413,1.171-26.03,1.121-27.957
			c-0.058-2.143-0.058-4.116-0.058-4.116s1.187-0.396,1.639-0.96c0.452-0.564,4.005-4.113,4.005-4.113
			c-1.976-1.857-4.234-2.6-4.234-2.6L169.039,77.781z"/>
		<path fill="#B86F19" d="M156.125,48.366c1.071,5.339,2.319,11.25,3.344,14.316c1.02,3.068,2.181,5.59,2.927,7.428
			c0.752,1.845,2.932,4.638,6.884,7.364c0,0,0.685,0.135,1.774,0.135c0,0,0.205-0.75,2.454-1.975
			c2.25-1.228,7.907-5.794,10.088-7.43c2.183-1.637,2.932-3.612,3.137-5.454c0.205-1.839-0.751-7.224,0.409-15.746
			c0.558-4.109,1.224-15.472-12.136-14.452C161.65,33.575,154.218,38.824,156.125,48.366z"/>
		<path fill="#C88531" d="M191.99,42.032c-0.361-1.437-0.451-2.968-1.36-3.416c-0.908-0.451-2.725,1.259-3.631,1.259
			c-0.223,0-0.486-0.264-0.76-0.657c-0.013-2.64,0.327-5.82,0.393-7.618c0.09-2.34-0.358-11.154-7.806-11.693
			s-19.065,0.719-21.429,2.699c-2.359,1.976-3.177,6.565-3.357,9.804c-0.207,3.683-0.183,6.655,0.181,8.275
			c0.082,0.373,0.135,0.73,0.17,1.082c-0.778-0.226-1.344-0.052-1.344,1.076c0,1.799-1.078,3.238-0.537,4.588
			c0.537,1.349,0.898,3.237,0.898,4.496c0,1.171,0.157,3.9,2.861,3.041c0.478,1.837,0.799,3.534,1.038,4.604
			c0.361,1.617,0.908,3.778,3.814,4.769c2.906,0.989,5.084,1.078,7.719,1.169c2.632,0.088,6.263-1.438,9.078-2.159
			c2.813-0.717,7.081-2.967,8.356-10.164c0.231-1.317,0.39-2.454,0.497-3.446c0.808,0.579,1.538,0.748,1.95,0.748
			c0.911,0,2.452-2.337,3.089-3.957C192.444,44.913,192.354,43.472,191.99,42.032z"/>
		<path fill="#170B0A" d="M153.137,35.288c0.292,2.323-0.181,4.135,0.451,6.744c0.63,2.609,0.63,3.06,0.991,1.171
			c0.356-1.89,0.539-3.598,0.178-5.129c-0.361-1.527-0.629-1.617,0-3.416c0.627-1.801,1.081-2.968,0.898-4.679
			c-0.178-1.709,1.442-5.846,3.779-5.486c2.337,0.36,5.304,1.351,7.464,1.078c2.159-0.267,6.656-1.527,7.195-2.068
			c0,0,3.777-1.8,5.758-0.539c1.976,1.259,2.069,4.138,2.069,4.138s-1.711,0.179-0.451,2.786c1.259,2.607,2.701,2.607,3.147,4.769
			c0.449,2.158,0.813,5.396,1.53,6.924c0,0,0.449-0.809,1.259-1.617c0.81-0.81,2.072-1.262,2.072-1.262s0.085-0.988-0.274-1.529
			c-0.356-0.539,0-1.527,0-2.247c0-0.721,0.359-5.396-0.446-7.194c-0.813-1.802-1.081-4.769-4.68-7.737
			c-3.596-2.97-6.927-4.947-12.141-4.677c-5.217,0.27-12.502,2.609-15.201,5.665c-2.699,3.06-3.238,5.396-3.418,8.365
			C153.137,32.321,152.776,32.409,153.137,35.288z"/>
		<path d="M183.722,37.535c-2.35-1.138-2.996-0.98-3.171-0.823c-0.717-0.232-2.112-0.215-4.837-0.076
			c-5.307,0.27-6.656,1.798-8.545,1.888c-1.889,0.092-1.437-0.45-6.744-0.538c-5.307-0.089-7.198,1.619-7.198,1.619
			c-0.271,0.989,0,1.438,0.629,4.045c0.63,2.609,1.798,2.25,2.786,2.339c0.991,0.09,2.969,0.181,5.309-0.179
			c2.34-0.36,3.06-1.081,3.687-3.058c0.632-1.977,1.171-2.428,1.886-2.607c0.725-0.179,0.994,0.45,1.713,1.978
			c0.722,1.529,1.349,2.337,2.608,2.519c1.259,0.181,3.777,0.108,6.927-0.36c3.506-0.525,2.738-4.207,2.699-5.932
			c0.805-0.197,1.91-0.056,2.876,0.267c1.617,0.539,2.247,1.078,2.247,1.078l0.175-1.145
			C186.742,38.633,186.439,38.858,183.722,37.535z M165.188,41.942c-0.717,2.971-1.886,3.059-6.024,3.416
			c-4.141,0.361-4.167-1.136-4.707-3.203c-0.255-0.975-0.507-3.27,4.797-3.452C164.561,38.524,165.913,38.973,165.188,41.942z
			 M177.515,43.742c-3.867,0.36-5.846,1.347-7.65-1.89c-0.898-1.621-2.784-3.058,2.343-3.955c4.908-0.864,7.703-1.037,8.032,1.011
			c-0.011,0.082,0.027,0.279,0.058,0.385C180.388,41.63,181.382,43.381,177.515,43.742z"/>
	</g>
</g>
</svg>
