<?xml version="1.0" encoding="utf-8"?>
<!-- Generator: Adobe Illustrator 17.0.0, SVG Export Plug-In . SVG Version: 6.00 Build 0)  -->
<!DOCTYPE svg PUBLIC "-//W3C//DTD SVG 1.1//EN" "http://www.w3.org/Graphics/SVG/1.1/DTD/svg11.dtd">
<svg version="1.1" id="Layer_1" xmlns="http://www.w3.org/2000/svg" xmlns:xlink="http://www.w3.org/1999/xlink" x="0px" y="0px"
	 width="355px" height="402px" viewBox="0 0 355 402" enable-background="new 0 0 355 402" xml:space="preserve">
<g>
	
		<rect x="246.03" y="68.553" transform="matrix(0.6093 -0.7929 0.7929 0.6093 56.2349 252.8522)" fill="#C6320C" width="77.356" height="1.614"/>
	<path fill="#2D2724" d="M226.188,346.911c0.908,3.254,4.238,11.503,7.114,13.395c2.876,1.892,8.552,3.784,10.519,8.249
		s0.151,6.281-6.66,7.189c-6.811,0.908-14.378,0.53-19.6-4.843c-5.222-5.373-4.54-2.951-9.081-3.859
		c-4.541-0.908-11.352-2.422-11.276-4.843s1.135-4.995,1.135-4.995s-2.649-7.416,0.832-10.292
		C202.652,344.035,226.188,346.911,226.188,346.911z"/>
	<path fill="#2D2724" d="M149.073,347.743c-0.227,5.297-0.984,8.779,0,11.957c0.984,3.178,2.043,14.076,0,15.287
		c-2.043,1.211-9.384,2.657-16.649,1.139c-7.265-1.518-8.249-8.883-5.978-13.866c2.27-4.982-1.06-12.171,2.195-15.047
		C131.895,344.338,149.073,347.743,149.073,347.743z"/>
	<path fill="#0F0F0E" d="M228.685,350.467c0,0-2.245,2.169-11.73,3.027c-9.485,0.858-21.492,0-21.492,0s0.605-10.747-4.44-14.782
		c-5.045-4.036-9.282-23.612-10.09-31.28c-0.808-7.668-12.008-29.664-13.219-35.719s-8.979-25.226-12.511-28.657
		c-3.532-3.431-5.247-5.65-5.247-5.65s-5.147,16.145-4.944,26.941c0.202,10.796-1.211,28.858-1.11,38.847
		c0.101,9.989,5.751,23.812,7.063,29.362c1.312,5.55,0.807,18.566,0.807,18.566s-2.623,0.504-6.76,0.303
		c-4.137-0.202-18.109,3.028-19.649-1.11c-1.54-4.137,1.742-15.942,0-21.492c-1.742-5.55-8.907-21.593-7.494-49.038
		c1.413-27.445-5.146-48.333-4.439-57.716c0.706-9.384-1.311-29.16,0.908-31.986c2.219-2.825,52.873-1.816,54.487-2.018
		c1.614-0.202,9.182-9.383,13.319,1.312c4.137,10.695,7.063,22.703,10.998,38.343c3.935,15.64,2.724,19.877,5.045,33.903
		c2.321,14.025,2.825,21.392,6.861,30.876c4.036,9.484,8.981,30.573,13.824,35.719C223.715,333.365,227.197,342.446,228.685,350.467
		z"/>
	<path fill="#ED9366" d="M159.918,58.459c1.138,1.865,1.538,2.749,1.059,4.262c-0.478,1.514-3.027,2.27-2.167,4.286
		c0.86,2.022-0.327,3.081-0.63,3.584c-0.303,0.502-0.279,1.186-0.176,1.435c0.097,0.254,2.246,4.389-0.987,6.66
		c-1.459,1.289-2.083,5.364-2.083,5.364s-2.912,5.739-16.933,1.901c-6.46-2.089-9.438-5.576-9.438-5.576s0.793-8.512,0.793-9.723
		c0-0.926-0.95-2.803-1.428-3.735c-0.151-0.284-0.254-0.484-0.273-0.539c-0.073-0.224-1.029,2.289-0.89,2.797
		c-0.236-0.424-1.496-2.61-1.496-2.61v3.712l-0.793-3.064c0,0-0.678,2.682-0.678,2.567c0-0.109-2.01-12.671-2.083-14.905
		c-0.079-2.234-0.187-9.499,2.537-13.016c2.724-3.517,5.976-8.44,9.457-9.045c3.481-0.605,5.109-3.481,11.012-2.797
		c5.903,0.678,14.53,5.067,15.892,7.676c1.362,2.616,0.339,8.367,0.339,8.367s0.073,0.412,0.194,1.041
		c0.309,1.677,0.92,4.892,1.168,5.69c0.339,1.102-0.151,2.313-1.06,3.178C160.348,56.843,158.786,56.588,159.918,58.459z"/>
	<path fill="#2D1E12" d="M160.953,46.06c0,0,0.073,0.412,0.194,1.041c-1.574-1.968-2.664-6.151-2.664-6.151
		s-1.314,5.043-1.259,4.238c0.049-0.805-1.616-4.341-1.616-4.341v2.373l-1.968-1.06v1.162c0,0-3.227-2.779-5.297-3.935
		c-2.071-1.162-2.573-0.454-5.043,0c-2.476,0.454-2.325,3.124-3.081,4.995c-0.757,1.865-3.53,12.611-3.53,12.611l-2.119,1.211
		c0,0,0.048-1.713-0.309-2.978c-0.364-1.259-2.519-2.216-3.881-3.227c-1.362-1.011-2.924,0.049-3.53,0.503
		c-0.605,0.454-0.805,3.481-0.502,5.552c0.303,2.07,2.064,5.346,1.865,7.114c-0.049,0.436-0.151,1.06-0.284,1.75
		c-0.151-0.284-0.254-0.484-0.273-0.539c-0.073-0.224-1.029,2.289-0.89,2.797c-0.236-0.424-1.496-2.61-1.496-2.61v3.712
		l-0.793-3.064c0,0-0.678,2.682-0.678,2.567c0-0.109-2.01-12.671-2.083-14.905c-0.079-2.234-0.187-9.499,2.537-13.016
		c2.724-3.517,5.976-8.44,9.457-9.045c3.481-0.605,5.109-3.481,11.012-2.797c5.903,0.678,14.53,5.067,15.892,7.676
		C161.976,40.309,160.953,46.06,160.953,46.06z"/>
	<path fill="#1F2934" d="M154.825,79.319c0,0,4.086,3.784,5.6,4.011c1.514,0.227,20.357,1.135,22.4,2.8
		c2.043,1.665,8.476,10.973,13.016,13.773c4.54,2.8,14.53,9.914,17.935,9.46c3.406-0.454,10.292-3.784,13.243-4.995
		c2.951-1.211,11.352-4.692,11.352-4.692l1.665,0.303c0,0,5.978,6.13,6.205,15.06c0.227,8.93-0.908,10.443-3.632,11.578
		c-2.725,1.135-18.617,3.406-22.476,5.222c-3.86,1.816-7.719,1.665-11.957,0c-4.238-1.665-20.508-7.416-20.508-7.416
		s4.238,27.395,6.054,33.449c1.816,6.054,3.86,9.687,3.86,9.687l-1.589,1.816c0,0,4.692,15.892,6.811,21.643
		c2.119,5.751,3.481,15.438,3.481,15.438s-9.308,3.935-12.033,3.784c-2.724-0.151-8.4-5.297-9.611-10.216
		c-1.211-4.919-11.049-22.173-12.033-28c-0.984-5.827-3.103-23.077-3.481-27.241c-0.378-4.165-6.205-20.132-6.205-26.716
		c0-6.584-6.205-17.708-5.449-24.065c0.757-6.357-3.633-12.562-3.633-12.562L154.825,79.319z"/>
	<path fill="#1F2934" d="M127.505,143.794c3.56-7.338,7.041-23.684,6.738-31.179c-0.303-7.489-0.987-11.878-3.481-20.584
		c-2.5-8.7-1.592-16.649-1.592-16.649c-1.968,0.079-8.022,6.054-8.022,6.054s-10.365,2.876-13.47,3.33
		c-3.1,0.454-12.484,0.381-14.076,3.862c-1.586,3.481-8.548,13.543-12.181,21.341c-3.632,7.792-9.535,19.979-10.976,25.651
		c-1.435,5.679-2.876,7.87,1.441,18.998c4.311,11.122,9.535,19.749,11.503,25.579c1.968,5.824,5.219,14.227,5.219,14.227
		l-4.462,16.346c0,0,28.606,6.357,32.39,7.035c3.784,0.684-5.376-22.927-5.376-22.927s0.454-13.924,2.803-19.603
		C116.305,169.602,123.951,151.137,127.505,143.794z M104.451,145.786c-0.103,5.552-2.627,13.016-5.049,16.752
		c-2.422,3.735-2.216,3.33-2.821-5.751c-0.605-9.081-5.146-11.4-3.13-14.124c2.016-2.724,8.185-13.119,8.185-13.119
		S104.548,140.24,104.451,145.786z"/>
	<path fill="#FFFFFF" d="M185.095,189.428c-3.33,3.63-1.741,4.162-12.941,5.6s-38.746-0.908-42.454-1.589
		c-3.708-0.681-20.735-4.011-20.735-4.011s6.508-29.211,7.038-29.363c0.53-0.151,12.714-47.374,12.714-47.374l-3.027-20.811
		l2.385-16.122l1.02-2.798c0,0,5.373,6.584,11.957,7.568c6.584,0.984,10.595,0.227,12.411-0.605
		c1.816-0.832,2.951-1.211,2.951-1.211s-0.378,3.405-0.454,4.314c-0.076,0.908,4.314,10.67,5.449,12.487
		c1.135,1.816,11.049,28.984,11.049,28.984l12.638,53.503V189.428z"/>
	<path fill="#C7D5DB" d="M185.042,178.098v11.43c-3.33,3.627-1.738,4.159-12.938,5.6c-11.2,1.435-38.746-0.908-42.458-1.592
		c-3.705-0.678-20.735-4.008-20.735-4.008s3.148-14.13,5.242-22.787c0.594,2.228,2.761,5.86,2.204,7.071
		c-0.551,1.211-3.275,5.6-1.61,7.265c1.665,1.665,6.526,6.284,13.392,8.451c6.871,2.173,22.963,3.657,25.373,3.657
		c2.403,0,10.274-0.757,14.814-1.211c4.541-0.454,10.897-1.665,11.957-2.27c1.06-0.605,2.876-1.895,2.876-3.07
		c0-1.168-1.211-7.071-2.119-10.098s0.303,0.303-0.303-7.568c-0.605-7.87-1.665-6.962-3.481-14.227
		c-1.816-7.265-0.605-7.84-3.027-13.61c-2.422-5.763-3.481-11.666-4.54-15.45c-1.06-3.784-2.379-9.305-3.179-14.227
		c-0.478-2.967-2.367-7.041-2.621-9.698c3.3,8.542,8.518,22.842,8.518,22.842L185.042,178.098z"/>
	<path fill="#C7D5DB" d="M114.426,165.609c0.787-3.191,1.381-5.4,1.526-5.443c0.527-0.151,12.714-47.373,12.714-47.373
		l-3.027-20.814l0.763-5.14l0.757,2.246c0,4.51,0.757,9.202,1.968,14.651s1.211,9.935,1.211,13.973
		c0,4.038-3.027,10.546-3.178,15.087c-0.151,4.541,2.234,6.962-1.308,11.2c-3.536,4.238-5.63,4.238-4.886,7.568
		c0.745,3.33,1.375,9.232,0,10.443C119.839,162.999,115.613,164.047,114.426,165.609z"/>
	<path fill="#ED9366" d="M97.21,187.586c0,0,12.99-7.377,14.505-8.728c1.514-1.35,3.985-1.968,5.827-2.17
		c1.842-0.202,6.458-1.892,10.318-0.731c3.859,1.161,7.492,4.061,7.517,4.919c0.025,0.858-0.909,1.437-2.75,1.564
		c-1.841,0.126-7.946-3.178-8.753-3.052c-0.807,0.126-2.447,0.908-2.447,0.908s5.171,2.446,7.467,3.733
		c2.296,1.286,5.625,4.793,6.281,5.55c0.656,0.757,0.858,2.144-1.463,2.497c-2.321,0.353-8.451-4.944-8.451-4.944
		s6.988,6.483,6.483,7.896c-0.504,1.413-2.194,1.842-3.531,0c-1.337-1.842-4.768-4.516-6.281-5.247s-2.195-0.151-2.195-0.151
		s6.634,5.322,6.71,6.407c0.076,1.085,0.303,2.347-3.406,0.682c-3.708-1.665-6.458-4.415-8.653-4.44
		c-2.195-0.025-4.389,1.237-9.207,0.429C100.363,191.9,97.21,187.586,97.21,187.586z"/>
	<path fill="#ED9366" d="M236.584,119.049c0,0,0.453-13.369,1.413-15.438c0.959-2.069,5.903-2.977,8.224-5.247
		c2.321-2.27,6.054-5.095,9.384-5.196c3.33-0.101,7.971,1.866,10.342,1.715c2.371-0.151,2.12,0.857,1.615,1.866
		c-0.505,1.009,1.059,1.968,1.917,2.927c0.858,0.958-0.051,3.33-1.968,3.935c-1.917,0.605-2.371,0-2.371,0s0.555,1.16-0.555,2.825
		c-1.11,1.665-1.815,1.311-2.321,3.027c-0.505,1.716-0.251,1.816-1.665,3.431c-1.413,1.615-3.835,3.179-6.155,3.582
		c-2.32,0.403-6.104-3.229-8.324-2.472C243.899,114.761,236.584,119.049,236.584,119.049z"/>
	<path fill="#C6320C" d="M249.146,110.321c0,0-3.834,4.188-3.077,5.701c0.757,1.514,3.83,2.154,6.205,1.211s2.068-3.734,2.068-3.734
		s-0.081-1.009-1.755-1.968c-1.675-0.958-1.201-3.482,0-3.582c1.201-0.1,0.847-0.403,0.847-0.403s-1.008-1.765,0.202-2.573
		C251.315,106.764,249.146,110.321,249.146,110.321z"/>
	<g>
		<path fill="#C7D5DB" d="M147.581,81.816l2.195,7.719c0,0,5.897-3.76,5.522-6.913c1.137,2.859,0.485,1.918,0.017,3.507
			c-0.468,1.589-5.766,5.449-6.296,5.07c-0.53-0.378-1.438-8.173-1.438-8.173V81.816z"/>
		<path fill="#C7D5DB" d="M142.587,82.724l-2.05,6.887c0,0-11.345-3.784-13.313-10.292c0.076,3.405,1.589,5.55,3.557,7.202
			s10.67,4.705,10.67,4.705L142.587,82.724z"/>
		<path fill="#C6320C" d="M142.375,84.316c1.045-0.646,5.19-0.83,5.918,0c0.727,0.83,1.9,4.479,0.349,5.776
			s-6.707,1.524-7.553-0.179C140.241,88.211,142.375,84.316,142.375,84.316z"/>
		<path fill="#C6320C" d="M147.581,89.081c1.968,5.751,9.384,22.805,9.838,36.678c0.454,13.874,0,27.344,0,27.344l-6.962,20.91
			l-6.558-20.304c0,0,2.912-26.184,2.162-34.66c-0.75-8.476-2.162-26.133-3.474-28.706C141.275,87.77,147.581,89.081,147.581,89.081
			z"/>
	</g>
	<path fill="#FFFFFF" d="M241.869,99.975c0,0-1.907,6.405,1.524,18.615c-1.816,1.816-6.809,3.118-6.809,3.118
		s-0.758-7.457,0.15-14.167c0.908-5.247,1.816-5.499,1.816-5.499L241.869,99.975z"/>
	<path fill="#FFFFFF" d="M112.446,178.162c0,0-7.355,7.203-9.827,8.615c-2.472,1.412-6.541,5.802-6.541,5.802l-1.885-4.137
		c0,0,14.28-9.384,16.373-9.838C112.659,178.15,112.446,178.162,112.446,178.162z"/>
	<path fill="#262626" d="M144.934,347.646c-5.449,1.211-14.328,1.009-14.934,0c-0.605-1.009,9.687-1.412,2.22-15.741
		c-7.467-14.328-12.31-24.015-10.292-34.912c2.018-10.897,6.861-27.446,5.045-39.15c-1.816-11.704-5.156-20.786-5.504-29.261
		c-0.348-8.476-0.661-12.109,0-16.145c0.661-4.036,6.917-9.282,8.733-4.641c1.816,4.641,4.238,10.898,6.458,18.364
		c2.219,7.467,4.232,14.328,1.208,22.199c-3.024,7.87-5.888,21.593-4.86,27.445c1.028,5.852,0.594,13.723,1.315,17.961
		c0.722,4.238,2.331,7.669,3.544,18.162c1.214,10.494,0.205,21.795,2.425,25.629C142.512,341.39,144.934,347.646,144.934,347.646z"
		/>
	<path fill="#262626" d="M200.026,350.673c0,0,9.283-5.247,6.054-11.099c-3.229-5.853-7.669-6.256-9.687-11.503
		c-2.018-5.247-4.44-20.987-5.247-29.867c-0.807-8.88-12.511-15.135-14.328-30.069c-1.816-14.934-2.422-24.822-2.422-34.508
		c0-9.687-3.632-25.831,0-26.84c3.633-1.009,12.79,8.475,15.375,18.566c2.585,10.09,4.402,18.567,4.402,25.63
		c0,7.063,1.347,18.694,3.095,27.711c1.748,9.017,1.748,15.677,5.179,22.538c3.431,6.861,2.826,15.942,6.862,22.602
		c4.036,6.66,9.964,11.704,11.642,14.732c1.677,3.027,7.731,6.715,2.283,9.916C217.785,351.682,200.026,350.673,200.026,350.673z"/>
	<path fill="#5B5B5B" d="M145.338,370.449c-7.389,0.825-19.373,0.909-18.162-2.825c1.211-3.734,4.541-9.889,3.734-10.999
		c-0.808-1.11,1.933-2.523,5.305-3.128c3.372-0.605,11.748-2.016,10.133,0.758c-1.615,2.774-6.861,4.893-3.935,8.727
		C145.338,366.817,147.944,370.158,145.338,370.449z"/>
	<path fill="#5B5B5B" d="M207.039,358.291c1.194-0.518,6.66-2.573,10.443-2.573s7.585-2.104,9.687-1.462
		c2.101,0.641,2.27,6.036,3.935,7.003c1.665,0.967,9.233,4.297,9.384,5.205c0.151,0.908,1.665,6.508-2.27,6.811
		c-3.935,0.303-13.319-1.665-16.043-3.935c-2.724-2.27-3.481-5.336-7.416-5.62C210.823,363.437,204.834,359.248,207.039,358.291z"/>
	<path fill="#516272" d="M105.699,178.014c0,0-8.677-5.651-9.787-9.687c-1.11-4.036,1.412-10.493-1.917-16.144
		c-3.33-5.651-5.247-11.907-4.036-16.145c1.211-4.238,3.33-16.851,5.55-20.584c2.219-3.733,3.43-5.448,4.944-8.879
		c1.514-3.431,2.422-12.513,4.137-11.1c1.715,1.413,5.348,15.439,5.449,17.154c0.101,1.715,0.238,16.548-0.688,18.969
		c-0.926,2.422-1.431,11.704-0.825,14.732c0.605,3.027,4.339,2.983,5.751,1.139s8.476-22.126,10.191-28.079
		c1.715-5.953,1.917-12.511,0.404-19.272c-1.513-6.761-1.816-9.99-1.615-12.815c0.202-2.825,2.826-6.463,3.027-7.116
		s-4.843,2.778-6.861,3.686c-2.018,0.908-6.313,1.816-11.481,2.825c-5.168,1.009-10.718-1.11-13.442,3.734
		c-2.724,4.843-6.861,12.613-9.586,18.264c-2.724,5.65-8.88,19.676-9.182,23.611s-2.119,16.345-0.908,19.07
		c1.211,2.724,3.028-4.54,6.458,2.321c3.43,6.861,4.339,12.108,6.357,15.538c2.018,3.431,5.449,7.265,5.348,9.788
		c-0.101,2.523,1.11,6.053,1.11,6.053S102.974,178.519,105.699,178.014z"/>
	<path fill="#516272" d="M162.809,85.992c0,0,16.448,0.567,19.273,2.15c2.825,1.583,8.173,11.573,9.484,13.692
		c1.312,2.119,14.126,8.678,19.676,9.788c5.55,1.11,14.228-2.624,16.548-4.036c2.32-1.412,7.164-3.748,7.164-3.748
		s1.11,5.161,0.605,6.877c-0.504,1.715,0.908,8.673-3.431,7.767c-4.338-0.906-4.136-3.429-8.576-2.117
		c-4.44,1.312-4.137,1.469-8.577,2.198c-4.439,0.728-9.888,0.123-12.31-1.391c-2.422-1.514-5.449-3.329-7.669-5.549
		c-2.22-2.22-3.834-0.706-5.65-5.247c-1.816-4.541-6.156-5.247-5.954-0.303c0.202,4.945,1.01,22.098,3.229,27.647
		c2.219,5.549,2.724,18.767,2.522,20.079c-0.202,1.312,7.437,11.745,7.437,11.745l-4.41,4.804l-6.256-3.33
		c0,0-8.576-39.755-12.007-46.516c-3.431-6.761-6.913-24.239-7.114-26.963C166.594,90.813,162.809,85.992,162.809,85.992z"/>
	<path fill="#F3B294" d="M160.811,49.018c-1.257-1.625-4.541-2.573-6.667-3.557c-2.126-0.984-7.939-4.389-9.452-3.935
		c-1.514,0.454-3.254,4.238-4.011,7.492c-0.757,3.254-2.939,9.338-3.784,9.896c-2.497,1.647-3.859,8.645-3.859,11.294
		c0,2.649,3.33,6.205,5.297,7.189c1.968,0.984,4.162-0.378,5.524-4.54c1.362-4.162,3.633-4.238,4.995-6.433
		c1.362-2.195-0.757-3.557-1.522-4.843s-2.034-4.995,0-6.508c2.034-1.514,5.987-1.362,7.728-0.832c0.04,0.012,0.087,0.02,0.13,0.031
		c0.148,1.232,0.821,3.91,0.702,5.322c-0.151,1.797-1.06,2.82-1.06,4.106c0,1.287,3.178,0.908,4.062-0.378
		c0.883-1.287-0.354-2.573-1.11-4.087c-0.757-1.514-0.41-2.952-0.353-4.313c0.008-0.179-0.101-0.363-0.271-0.536
		c1.771-0.115,3.802-0.638,4.467-1.054C162.594,52.726,162.068,50.643,160.811,49.018z"/>
	<path fill="#F3B294" d="M103.201,188.897c0.279-1.055,1.766-2.777,3.532-4.239c1.765-1.462,4.844-3.934,5.878-4.993
		c1.033-1.059,0.782-1.463,2.749-1.766c1.968-0.303,3.599-0.462,5.196-1.11c1.597-0.648,2.674-0.756,4.086-0.504
		c1.413,0.252,3.329,0.807,3.683,1.06c0.353,0.252,0.151,0.908-2.119,1.06c-2.27,0.151-3.733-0.555-4.893,0.151
		c-1.161,0.706-3.28,0.454-3.28,0.908c0,0.454-1.968-0.05-1.564,1.211c0.404,1.261-0.706,1.867-1.412,2.876
		c-0.706,1.009-0.958,2.391-3.027,3.44c-2.069,1.049-4.995,3.219-5.852,3.32C105.32,190.41,102.747,190.612,103.201,188.897z"/>
	<path fill="#F3B294" d="M242.534,101.452c2.043-1.287,4.389-1.514,6.13-3.406c1.741-1.892,5.825-4.388,8.324-4.389
		c2.499-0.001,5.524,1.589,6.281,1.741c0.757,0.151,2.876,0.303,3.254,0.303c0.378,0-0.227,0.908-1.211,0.908
		c-0.984,0-3.721-0.303-4.812-0.681c-1.091-0.378-3.512-0.151-4.345,0.984c-0.832,1.135-1.059,4.011-4.238,5.827
		c-3.178,1.816-7.137,1.135-8.525,1.06C242.004,103.722,242.534,101.452,242.534,101.452z"/>
	<path fill="#F3B294" d="M257.594,98.821c-0.454-0.093-1.135-2.061,0.605-2.061c1.741,0,2.876,0.623,4.843,1.031
		s4.447,0.618,5.222,1.031c0.775,0.413,1.287,1.071,0.605,1.7c-0.681,0.628-2.8,0.628-3.86,0.628
		C263.951,101.149,257.594,98.821,257.594,98.821z"/>
	<path fill="#F3B294" d="M255.021,102.284c0.53-1.284-0.303-1.711,1.741-1.764c2.043-0.053,4.843,0.075,5.6,0.882
		c0.757,0.806,1.892,1.563,2.119,2.017c0.227,0.454-1.286,1.368-2.119,1.554c-0.832,0.186-4.087-1.403-4.843-1.479
		C256.761,103.419,254.806,102.806,255.021,102.284z"/>
	<path fill="#F88C7D" d="M151.256,170.782c0,0,3.33-44.602,1.009-54.489c-2.321-9.886-5.708-24.316-5.708-24.316h-2.465
		c0,0,2.219,13.218,3.229,27.95s-1.917,33.399-1.917,33.399L151.256,170.782z"/>
</g>
</svg>
