<?xml version="1.0" encoding="utf-8"?>
<!-- Generator: Adobe Illustrator 17.0.0, SVG Export Plug-In . SVG Version: 6.00 Build 0)  -->
<!DOCTYPE svg PUBLIC "-//W3C//DTD SVG 1.1//EN" "http://www.w3.org/Graphics/SVG/1.1/DTD/svg11.dtd">
<svg version="1.1" id="Layer_1" xmlns="http://www.w3.org/2000/svg" xmlns:xlink="http://www.w3.org/1999/xlink" x="0px" y="0px"
	 width="800px" height="600px" viewBox="0 0 800 600" enable-background="new 0 0 800 600" xml:space="preserve">
<g>
	<g>
		<path fill="#1A171B" d="M344.819,97.992c-1.563-0.521-8.172-1.215-11.297-0.868c-3.125,0.347-8.693,2.951-10.083,3.993
			c-1.389,1.042-4.868,8.52-5.042,9.909c-0.173,1.389-0.867,6.082,0,7.825c0.868,1.742,0.521,4.168,0.521,5.388
			c0,1.222-1.041,1.563-1.563,1.215c-0.52-0.347-1.742,0.348-1.568,2.258c0.174,1.91,0,4.868,0.527,5.735
			c0.527,0.868,1.389,2.958,1.91,4.001c0.521,1.041,1.215,2.257,1.737,2.257c0.52,0,1.569-0.521,1.743,1.221
			c0.173,1.742-0.174,9.382-0.354,10.076c-0.18,0.695-0.52,1.048-0.52,1.048l-3.125,5.041c-0.868,1.394-1.916,2.778-1.916,1.91
			c0-0.868-1.563,0.695-4.688,2.258c-3.125,1.562-8.172,3.999-10.083,4.867c-1.91,0.868-14.428,8.52-15.991,8.867
			c-1.563,0.347-4.347,1.736-4.347,2.257s-2.431,3.479-3.473,7.826c-1.041,4.347-3.131,20.159-3.304,22.248
			c-0.174,2.09-4.348,33.372-4.521,35.976c-0.174,2.605,0.173,13.208-1.042,17.034c-1.214,3.825-0.867,9.908-1.041,12.165
			c-0.173,2.257-1.041,9.909-1.041,13.04c0,3.131,1.736,10.077,1.389,13.902c-0.347,3.826-0.694,21.033,0.174,20.513
			c0.868-0.521,0.868,0,0.868,1.041c0,1.041,0,2.778,1.215,2.958c1.214,0.179,0.867,0.52,0.52,2.257
			c-0.347,1.736-1.736,7.993-1.91,10.082c-0.174,2.09-0.521,7.473,0.347,9.383c0.868,1.91,0.694,4.174,1.563,5.388
			c0.868,1.215,1.568,2.784,2.264,2.958c0.694,0.174,1.388,0,1.736,1.041c0.347,1.042,5.389,2.784,7.993,4
			c2.605,1.215,2.437-2.263-0.347-4.694s-1.91-4.174-2.084-5.562c-0.173-1.39-0.173-3.652,1.042-6.778
			c1.214-3.125,1.742-4.521,1.742-2.958c0,1.564,0.174,9.041,0.174,10.083c0,1.041,1.91,2.257,3.298,2.084
			c1.389-0.174,1.042-0.868,1.215-4.341c0.174-3.472,0.174-10.256,0.521-13.735c0.347-3.478-2.084-7.472-2.431-8.34
			c-0.347-0.867-2.257-2.784-1.388-2.61c0.868,0.173,0.868-0.521,0.694-1.389c-0.174-0.867,0-3.652-0.174-6.256
			c-0.173-2.604,0.348-9.561,1.911-13.214c1.563-3.652,0.52-7.472,1.569-11.471c1.047-4,0.835-12.86,1.702-15.812
			c0.868-2.952,0.695-15.124,0.868-18.776c0.174-3.652,3.339-0.347,3.513,2.784c0.173,3.131-1.048,11.992-0.701,15.818
			c0.347,3.826-0.521,9.556-0.521,12.861s-2.778,14.076-3.645,15.471c-0.868,1.395-2.264,6.083-2.437,8.514
			c-0.174,2.43,0.694,7.125,2.437,9.214c1.742,2.089,1.562,8.686,1.041,12.86c-0.521,4.173,2.084,22.422,2.778,29.2
			c0.694,6.777,0.347,30.941,0.347,32.851c0,1.91-0.347,5.736,0.527,7.478c0.874,1.742,2.084,2.605,3.125,3.821
			c1.041,1.215,1.389,3.131-0.347,4.52c-1.737,1.39-1.737,5.042-0.521,7.125c1.215,2.084,1.91,4.868,2.605,8.694
			c0.694,3.825,0.873,9.387,1.22,10.777c0.348,1.388,3.821,3.825,6.083,6.256c2.264,2.431,2.431,2.61,1.91,3.478
			c-0.52,0.868-1.562,2.778-2.604,4.694c-1.041,1.917,0.694,9.035,1.042,11.124c0.347,2.09,2.257,3.646,3.472,3.646
			c1.214,0,3.478,0.694,3.478,1.215c0,0.521-2.778,10.083-3.478,14.255c-0.701,4.173,3.478,14.249,4.867,18.944
			c1.39,4.694,4.868,7.998,5.562,7.998c0.695,0,3.826-0.347,3.826-0.347s0,1.91,1.041,2.258c1.041,0.347,3.825,1.91,3.652,2.437
			c-0.174,0.526-1.736,7.992-1.563,9.729c0.174,1.737,0.694,2.784,0.694,4.173c0,1.389,0.521,4.867,0.694,5.388
			c0.174,0.521,3.126,1.215,3.826,1.737c0.7,0.52,0.521,1.742,0.521,2.784c0,1.041,0.52,1.562,1.736,2.604
			c1.215,1.042,8.861,2.611,11.992,2.437c1.82-0.101,5.167-0.908,7.65-1.702c1.754,1.145,6.491,0.812,11.019,0.497
			c5.616-0.394,13.502,0.13,19.761-2.995c6.259-3.125,8.666-3.294,8.74-2.224c0.075,1.07,0.933,1.816,6.023,1.191
			c5.09-0.625,14.155-2.064,14.155-2.064s-0.088-5.1-0.047-8.356c0.041-3.255,2.253-10.452,3.043-14.539
			c0.789-4.086,4.819-12.189,4.443-17.565c-0.377-5.376,0.613-48.879,0.846-53.224c0.234-4.344,3.099-13.736,3.484-15.913
			l11.312-62.314c0,0,6.333,36.754,7.625,43.707c1.292,6.953,3.868,24.565,3.535,31.335c-0.333,6.77-3.064,25.346-3.394,28.326
			c-0.329,2.979-3.938,28.631-3.713,31.841c0.224,3.209,2.956,19.225,3.088,21.098c0.131,1.872,1.222,5.558-1.29,8.449
			c-2.513,2.891-6.384,5.58-7.933,6.494c-1.548,0.915-0.787,4.115-0.675,5.719c0.112,1.605,6.984,3.005,10.71,2.476
			c3.725-0.529,18.019-0.991,20.849-2.802c2.829-1.81,4.847-4.102,6.202-3.928c1.356,0.174,2.454,0.097,5.93-0.146
			c3.477-0.243,3.563-3.261,3.225-8.075c-0.336-4.814-2.32-13.572-2.373-18.164c-0.052-4.593-2.819-13.026-0.935-17.217
			c1.885-4.191,3.776-46.71,3.102-56.365c-0.676-9.655-1.729-40.088-1.608-46.037c0.122-5.949,3.684-55.331,3.59-56.667
			c-0.093-1.338,1.825-1.203,4.768-1.408c2.941-0.206,4.583,0.216,4.111-2.706c-0.473-2.924,1.579-4.707,2.574-5.852
			c0.994-1.145,0.675-5.718,0.581-7.056c-0.093-1.336,1.807-0.664,2.942-0.205c1.135,0.458,3.315-2.946,3.719-4.856
			c0.403-1.91,13.58-34.258,16.006-45.156c2.426-10.897,4.387-22.293,3.179-31.977c-1.209-9.682-8.205-39.885-7.906-43.196
			c0.3-3.311-5.233-12.589-5.536-16.921c-0.303-4.331-2.37-11.093-4.333-16.37c-1.963-5.278-4.371-7.868-7.052-8.212
			c-2.68-0.343-26.362-7.923-28.763-10.412c-2.401-2.488-9.578-10.898-9.578-10.898l-6.115-0.119c0,0-0.76-2.913-1.035-4.19
			c-0.275-1.278,2.457-1.831,2.538-3.32c0.082-1.488-0.232-3.319-0.232-3.319s1.124-2.479,1.656-5.481
			c0.531-3.003,0.076-6.863-1.172-8.805c-1.248-1.942-1.853-2.641-1.575-3.958c0.278-1.317,0.27-4.087-0.399-5.708
			c-0.669-1.621-0.956-3.075-0.888-4.747c0.069-1.673-3.143-5.331-4.628-8.008c-1.485-2.676-10.672-9.614-15.522-10.201
			c-4.851-0.588-6.608,0.647-7.518,0.896c-0.91,0.249-2.64-0.312-2.64-0.312c-3.312-0.116-5.982,1.504-8.277,4.1
			c-2.296,2.595-3.705,4.823-3.646,5.689c0.061,0.865-3.045-0.657-4.035,0.108c-0.99,0.765-5.088,6.834-5.164,8.231
			c-0.077,1.396,0.108,4.035,0.168,4.9c0.061,0.865,0.83-0.58,0.999,1.843c0.169,2.423,0.35,7.496,1.091,8.141
			c0.742,0.644,2.677,5.943,3.59,6.574c0.915,0.632,2.639,2.293,3.367,2.763c0.728,0.471,1.28,0.912,1.775,3.007
			c0.495,2.095,4.039,9.89,5.235,12.067c1.196,2.177,4.459,5.949,6.511,7.935c2.051,1.986,2.47,3,3.187,3.298
			c0.716,0.298,1.171,1.831,1.171,1.831s-3.838,2.92-4.619,4.192c-0.781,1.272-2.554,3.267-3.887,4.098
			c-1.333,0.832-8.888,6.17-10.13,7.628c-1.241,1.458-3.24,4.017-4.291,4.359c-1.05,0.342-1.664,3.1-1.496,5.507
			c0.168,2.407,1.085,19.357,1.517,25.536c0.432,6.179,0.406,13.491,0.743,18.306c0.337,4.814,0.827,11.822,2.102,14.689
			c1.275,2.867,1.657,4.481-0.066,6.751c-1.722,2.271-1.182,5.754-2.472,6.919c-1.289,1.166-4.045,4.046-3.302,6.977
			c0.743,2.932,0.852,8.327-0.623,10.312c-0.348,0.469-0.648,1.011-0.904,1.605c0.254-5.195,0.318-10.864,0.221-13.275
			c-0.173-4.347-2.257-11.645-2.604-14.597c-0.347-2.952-4.521-27.637-4.521-30.074c0-2.436-1.216-5.735-1.736-7.992
			c-0.521-2.258-3.826-9.041-4.173-10.257c-0.347-1.215-2.951-3.131-4.868-4c-1.916-0.868-28.158-16.512-29.373-17.38
			c-1.215-0.868-3.998-3.478-3.998-4.172c0-0.695,0.346-2.431,0.346-3.647s0.348-1.742,1.396-2.958s1.91-1.91,3.125-3.825
			c1.215-1.916,1.215-4.515,2.084-4.862c0.868-0.347,0.874-0.347,1.047-0.874c0.174-0.527,0.347-1.388,1.216-2.778
			c0.868-1.388,1.389-6.603,1.562-7.819c0.174-1.215-0.347-1.569-1.215-1.569c-0.868,0,0-1.39,0.174-3.299
			c0.173-1.91,1.041-3.999,1.562-5.736c0.521-1.736-1.042-7.304-2.605-8.867c-1.563-1.563-2.957-4.173-3.304-5.909
			C352.986,102.165,346.381,98.512,344.819,97.992z"/>
	</g>
	<g>
		<path fill="none" stroke="#1A171B" stroke-width="1.5" stroke-miterlimit="3.8637" d="M395.506,275.117
			c0.322-1.383,1.115-3.43,1.824-5.524c-0.215,1.566-0.495,3.031-0.803,4.083C396.353,274.271,395.974,274.725,395.506,275.117z"/>
	</g>
	<g>
		<path fill="#FFFFFF" d="M357.199,531.115c-0.644-1.896-1.526-4.145-2.124-5.538c-1.041-2.43-2.436-7.825-2.957-10.082
			c-0.521-2.257,1.737-1.215,4-1.388c2.263-0.174,2.604-3.653,3.125-5.563c0.521-1.91,0-18.081,0.521-21.38
			c0.52-3.298-0.868-13.561,1.047-19.123c1.916-5.562,3.473-10.424,3.473-12.513c0-2.09,0-8.861,0.347-12.687
			c0.348-3.826,0.695-23.985,0.695-24.859c0-0.874,1.742-4.688,2.089-6.777c0.348-2.09,0.695-9.556,1.042-14.249
			c0.347-4.694,1.91-15.992,3.125-22.248c1.215-6.256,3.74-19.207,6.266-31.46c1.133-5.496,1.782-8.596,2.948-14.085l1.563-20.68
			l0.874-2.437l0.676-0.675l-0.1,2.417c-0.217,4.585,1.474,6.106,3.505,7.845c2.031,1.739,2.831,1.655,2.429,3.592
			c-0.402,1.937,1.445,47.957-0.263,54.285c-1.707,6.328-2.745,18.791-2.805,21.779c-0.06,2.988-1.255,12.802-1.031,16.011
			c0.224,3.21,0.255,33.983-0.177,35.894c-0.432,1.912-4.234,43.999-4.506,47.809c-0.27,3.809-0.847,7.102-0.927,9.795
			c-0.08,2.694,0.339,4.841,0.949,5.874c0.61,1.033-1.994,6.079-1.994,6.079s-8.97,10.867-10.804,11.533
			C366.855,528.765,361.352,530.116,357.199,531.115z"/>
	</g>
	<g>
		<path fill-rule="evenodd" clip-rule="evenodd" fill="#FFFFFF" d="M455.517,128.127c0.86,1.882-4.538,8.009-6.983,10.122
			c-2.446,2.112-10.439,9.315-12.176,11.136s-2.256,3.722-1.473,5.609c0.784,1.887-0.33,5.684-1.735,6.433
			c-1.404,0.749-5.529,6.621-5.855,5.43c-0.326-1.191,0.026-10.043,0.065-12.959c0.038-2.916,1.923-6.127,1.923-6.127l-3.325-6.973
			c0,0-5.725,3.799-6.202,7.396c-0.477,3.598-0.278,13.384-0.126,15.557c0.151,2.174-1.341,8.591-1.644,11.206
			c-0.303,2.614-4.039,10.567-1.529,29.095c2.51,18.529,3.842,23.7,3.842,23.7s5.443-24.106,7.599-31.462
			c2.156-7.357,11.048-30.733,16.218-39.029c5.169-8.295,13.194-21.978,14.415-24.247c1.221-2.271,1.264-2.759,0.454-3.916
			C458.175,127.942,455.517,128.127,455.517,128.127z"/>
	</g>
	<g>
		<path fill-rule="evenodd" clip-rule="evenodd" fill="#FFFFFF" d="M498.784,314.509c-1.83-1.123-14.008-7.111-17.795-8.375
			c-3.786-1.265-3.93-1.339-4.323,0.997c-0.392,2.335,0.01,1.333,1.524,1.923c1.514,0.589,8.946,2.293,11.089,3.116
			c2.143,0.824,7.681,3.299,8.411,3.805C498.421,316.48,498.784,314.509,498.784,314.509z"/>
	</g>
	<g>
		<g>
			<path fill-rule="evenodd" clip-rule="evenodd" fill="#FFFFFF" d="M348.216,156.937c0,0-6.862,16.01-8.498,16.623
				c-1.637,0.615-6.011-3.349-7.851-5.805c-1.841-2.454-8.67-8.465-10.921-11.534c-2.25-3.068-2.814-0.137-2.814-0.137
				c0.05,0.335,0.076,0.778,0.076,1.34c0,3.812,0.587,7.078,3.226,12.062c2.638,4.985,9.651,36.816,11.855,47.37
				c2.242,10.742,4.111,17.209,5.951,30.324c0.865,6.159,5.146,30.219,5.146,30.219l5.3-0.68c0,0,6.322-39.584,6.266-46.329
				c-0.079-9.697,0.388-18.155-1.492-24.816c-1.879-6.66-3.879-20.623-4.819-23.443c-0.812-2.436-1.907-7.811-1.424-8.766V156.937z"
				/>
		</g>
		<g>
			<path fill-rule="evenodd" clip-rule="evenodd" fill="#1A171B" d="M347.777,174.88c-0.673,1.557-2.019,3.98-2.745,4.705
				c-0.726,0.726-0.997,1.36-0.907,2.901c0.09,1.542-0.181,3.355-0.363,3.809c-0.181,0.453-0.09,0.735,0.726,3.818
				c0.816,3.082,3.209,14.941,4.014,29.05c0.805,14.109,1.208,37.119,1.208,37.119l1.201,33.017l-4.45,4.45l-5.635-4.048
				c0,0,1.214-31.407,1.214-41.09c0-9.682-1.208-41.971-2.013-48.411c-0.804-6.439-1.61-14.914-1.61-14.914s-1.88-1.976-2.465-3.616
				c-0.586-1.639-0.82-2.574-1.991-3.277c-1.171-0.703-3.28-1.873-3.28-1.873l-3.63,0.468c0,0,1.639-1.522,3.396-2.576
				c1.757-1.054,2.694-1.522,2.694-1.522s0.352,1.405,1.406,3.045c1.053,1.639,1.403,1.524,2.691,2.576
				c1.288,1.052,0.117,0.586,2.576,0.468c2.459-0.117,3.279-0.234,3.279-0.234s1.523-1.639,2.812-2.811
				c1.288-1.171,1.052-1.757,1.637-2.108C348.128,173.475,348.449,173.323,347.777,174.88z"/>
		</g>
	</g>
	<g>
		<path fill-rule="evenodd" clip-rule="evenodd" fill="#FFFFFF" d="M331.452,407.881c0-1.469,0.135-2.829,0.359-4.047
			c0.972-1,0.964-1.784,0.709-2.689c0.181-0.509,0.377-0.97,0.58-1.377c0.903-1.807,2.107-5.261,1.505-11.727
			c-0.603-6.465-1.807-8.572-2.107-1.806c-0.302,6.767-0.745,8.114-0.745,11.426c0,1.522,0.509,2.567,0.767,3.484
			c-0.28,0.788-0.524,1.69-0.709,2.689c-0.183,0.189-0.401,0.385-0.66,0.592c-3.011,2.408-4.516,2.709-3.914,5.863
			s1.061,3.154-1.046,4.659c-2.107,1.505,1.347,4.516,1.648,6.766c0.301,2.251,1.807,7.512,1.807,10.221
			c0,2.709,0.301,4.215-0.301,7.068c-0.603,2.853,2.408,11.425,2.408,11.425c1.347-6.767,1.347-15.038,2.853-18.192
			c1.505-3.154,2.107-5.103,0.602-8.716C333.702,419.909,331.452,411.336,331.452,407.881z"/>
	</g>
	<g>
		<path fill-rule="evenodd" clip-rule="evenodd" fill="#FFFFFF" d="M369.996,244.846c0.247,3.973,0.422,8.282,0.209,9.405
			c-0.371,1.965,1.129,3.204,1.976,5.169c0.848,1.965,2.259,8.178,0.282,10.338c-1.976,2.161-1.411,4.776-0.565,6.741
			c0.848,1.964,3.388,3.794,3.388,3.794s0.282-2.751,0.282-4.776c0-2.026,0.282-12.561,0.282-13.936c0-1.376,0.282-6.605,0-10.143
			c-0.108-1.358-0.633-3.875-1.271-6.593H369.996z"/>
	</g>
	<g>
		<path fill-rule="evenodd" clip-rule="evenodd" fill="#FFFFFF" d="M484.944,231.232c0.12,1.715-1.114,16.925-0.915,19.784
			c0.2,2.858,0.504,19.526,0.675,21.97c0.171,2.445,1.766,0.611,1.821-2.712c0.055-3.322,2.105-5.03,1.894-8.046
			c-0.211-3.016-0.503-7.176,0.422-10.399c0.923-3.223-0.214-7.165-0.385-9.61c-0.171-2.445-1.237-5.371-1.614-6.653
			C486.465,234.284,484.944,231.232,484.944,231.232z"/>
	</g>
</g>
</svg>
