<?xml version="1.0" encoding="utf-8"?>
<!-- Generator: Adobe Illustrator 17.0.0, SVG Export Plug-In . SVG Version: 6.00 Build 0)  -->
<!DOCTYPE svg PUBLIC "-//W3C//DTD SVG 1.1//EN" "http://www.w3.org/Graphics/SVG/1.1/DTD/svg11.dtd">
<svg version="1.1" id="Layer_1" xmlns="http://www.w3.org/2000/svg" xmlns:xlink="http://www.w3.org/1999/xlink" x="0px" y="0px"
	 width="800px" height="600px" viewBox="0 0 800 600" enable-background="new 0 0 800 600" xml:space="preserve">
<g>
	<path fill="#120E0F" d="M464.118,463.771c-1.844-14.837-7.703-28.829-14.566-41.992c0.142-0.092,0.24-0.235,0.24-0.465
		c0-12.923,0-25.845,0-38.768c0-9.236,0-18.472,0-27.708c0-2.955,0.256-6.022-0.363-8.932c-0.603-2.836-1.789-5.577-3.022-8.188
		c-3.447-7.302-7.902-14.151-12.284-20.916c-5.083-7.846-10.33-15.584-15.328-23.486c-4.355-6.885-8.637-13.913-11.802-21.44
		c-1.13-2.687-2.049-5.476-2.44-8.373c-0.522-3.86-0.06-8.025,0.06-11.908c0.648-20.964,3.013-41.854,5.125-62.708
		c1.406-13.885,2.857-27.774,3.995-41.685c0.984-12.032,1.192-24.191-0.089-36.209c-1.445-13.551-5.14-28.295-15.359-38.006
		c-5.564-5.288-14.034-9.203-21.241-4.791c-3.495,2.14-5.715,5.901-7.376,9.529c-2.316,5.059-3.665,10.515-4.695,15.964
		c-2.822,14.941-3.217,30.359-3.257,45.523c-0.089,33.212,2.766,66.328,4.82,99.45c0.347,5.591,0.669,11.186,0.81,16.786
		c0.147,5.827-2.367,11.024-5.118,16.037c-8.71,15.87-20.285,30.044-29.902,45.355c-4.186,6.664-8.284,13.644-10.726,21.167
		c-1.938,5.969-1.364,12.3-1.364,18.487c0,17.017,0,34.034,0,51.05c0,3.224,0,6.447,0,9.67c0,0.255,0.039,0.505,0.103,0.75
		c-6.668,13.509-10.978,29.083-11.533,44.09c-0.204,5.499,0.268,11.031,1.583,16.378c1.328,5.4,2.619,10.753,3.426,16.263
		c1.835,12.535,1.372,25.24-0.385,37.754c-0.416,2.96-0.925,5.907-1.474,8.845c-0.167,0.895,4.277,5.127,5.011,4.673
		c4.92-3.038,11.618-6.242,17.517-5.219c0.357,0.062,0.702,0.169,1.045,0.282c0.421,0.496,0.86,0.975,1.324,1.44
		c1.786,1.793,3.887,3.754,6.441,4.288c4.088,0.856,8.314-2.614,11.678-4.394c4.925-2.607,9.37,0.529,13.893,2.633
		c4.926,2.291,9.419,2.204,14.504,0.549c4.605-1.499,8.906-3.422,13.851-2.375c5.871,1.243,9.869,6.575,15.715,8.142
		c3.025,0.81,6.042,0.08,8.197-2.194c0.939-0.991,1.564-2.215,2.327-3.334c1.491-2.185,3.71-3.701,6.279-4.279
		c7.322-1.648,15.69,10.68,22.783,4.233c3.191-2.901,2.569-8.228,2.388-12.055c-0.162-3.405,0.246-6.813,0.993-10.132
		c1.566-6.966,4.379-13.598,6.059-20.544C465.03,490.335,465.726,476.709,464.118,463.771z M382.409,416.401
		c-18.711,0.058-37.422,0.117-56.133,0.176c0-1.145,0-2.289,0-3.433c20.329-0.028,40.658-0.055,60.987-0.082
		c18.829-0.026,37.658-0.051,56.488-0.076c0,0.423,0,0.847,0,1.271c0,0.651,0,1.302,0,1.952
		C423.304,416.273,402.856,416.337,382.409,416.401z M336.1,347.857c0-0.633,0-1.266,0-1.899c0-0.034,0.001-0.063,0.001-0.092
		c0.224-0.351,0.447-0.702,0.671-1.053c4.005-6.268,8.048-12.51,12.12-18.735c5.973-9.131,12.009-18.224,18.227-27.191
		c2.934-4.231,5.872-8.479,9.067-12.519c2.43-3.071,5.236-6.387,8.932-7.937c6.736-2.826,12.791,5.104,15.861,10.009
		c2.303,3.679,4.606,7.359,6.91,11.038c7.663,12.241,15.326,24.482,22.989,36.722c1.762,2.814,3.523,5.628,5.285,8.443
		c0,2.813,0,5.627,0,8.441c-22.058,0-44.116,0-66.174,0c-11.297,0-22.593,0-33.89,0C336.1,351.341,336.1,349.598,336.1,347.857z
		 M336.104,345.771C336.124,345.348,336.203,345.468,336.104,345.771L336.104,345.771z M416.859,365.088
		c-0.863,0.567-2.002,0.654-2.99,0.493c-1.358-0.221-1.648-1.391-1.712-2.571c-0.212-3.941,6.661-6.64,6.924-1.747
		C418.991,362.93,418.24,364.18,416.859,365.088z M359.266,361.263c-0.09,1.667-0.841,2.917-2.222,3.825
		c-0.863,0.567-2.002,0.654-2.99,0.493c-1.358-0.221-1.648-1.391-1.712-2.571C352.129,359.07,359.002,356.37,359.266,361.263z
		 M361.479,363.01c-0.126-2.351-1.598-4.292-3.538-5.494c14.778,0,29.556,0,44.333,0c3.198,0,6.396,0,9.594,0
		c-1.098,0.894-1.844,2.264-1.924,3.748c-0.122,2.267,1.598,4.272,3.517,5.472c-17.03,0-34.06,0-51.09,0c-0.93,0-1.86,0-2.79,0
		C360.664,365.841,361.4,364.482,361.479,363.01z M395.661,370.938c16.03,0,32.06,0,48.09,0c0,8.174,0,16.349,0,24.523
		c-20.953,0-41.906,0-62.86,0c-18.205,0-36.41,0-54.615,0c0-3.388,0-6.776,0-10.164c0-4.786,0-9.573,0-14.359
		C349.404,370.938,372.533,370.938,395.661,370.938z M326.276,400.663c20.92,0,41.84,0,62.759,0c18.239,0,36.477,0,54.716,0
		c0,2.404,0,4.808,0,7.212c-20.329,0.028-40.658,0.055-60.987,0.082c-18.829,0.026-37.659,0.051-56.488,0.076
		C326.276,405.577,326.276,403.12,326.276,400.663z M328.156,340.977c2.733-7.695,7.213-14.791,11.606-21.625
		c5.131-7.981,10.637-15.715,16.003-23.538c4.743-6.915,9.506-13.894,13.367-21.351c2.637-5.092,4.391-9.912,4.224-15.668
		c-0.383-13.18-1.461-26.346-2.35-39.498c-1.159-17.141-2.242-34.29-2.829-51.462c-0.575-16.8-0.758-33.671,0.473-50.446
		c0.874-11.917,2.004-25.184,7.482-36.028c1.663-3.291,4.128-6.76,7.457-8.347c1.417-0.676,3.389-1.059,4.591-1.035
		c0.673,0.013,1.342,0.095,2.004,0.212c0.288,0.051,0.574,0.118,0.859,0.188c-0.238-0.05,0.758,0.248,0.952,0.319
		c0.261,0.095,0.517,0.202,0.772,0.313c-0.088-0.03,0.695,0.346,0.864,0.439c0.148,0.082,0.655,0.402,0.824,0.503
		c0.335,0.235,0.665,0.478,0.987,0.73c0.011,0.008,0.016,0.013,0.026,0.02c0.161,0.14,0.319,0.282,0.477,0.425
		c0.146,0.133,0.713,0.706,0.837,0.822c0.278,0.306,0.551,0.616,0.817,0.932c0.183,0.217,0.36,0.439,0.536,0.662
		c0.034,0.043,0.057,0.071,0.075,0.093c0.032,0.047,0.101,0.145,0.238,0.336c3.445,4.776,5.599,10.87,7.071,16.944
		c5.713,23.57,2.221,48.501-0.102,72.265c-2.2,22.511-4.86,45.002-6.261,67.582c-0.289,4.663-0.503,9.33-0.633,14
		c-0.107,3.837-0.43,7.829,0.086,11.646c0.918,6.788,4.471,13.341,7.726,19.252c8.786,15.954,19.741,30.577,29.157,46.146
		c3.176,5.252,6.736,10.978,8.01,16.967c0.594,2.794,0.249,5.989,0.249,9.014c0,4.459,0,8.918,0,13.378c0,0.523,0,1.045,0,1.567
		c-8.118,0-16.237,0-24.355,0c1.083-0.894,1.819-2.253,1.898-3.725c-0.126-2.351-1.598-4.292-3.538-5.494c7.361,0,14.722,0,22.084,0
		c0.712,0,0.937-0.335,0.937-1.005c0-3.276,0-6.552,0-9.828c0-0.369-0.211-0.808-0.54-1.245
		c-11.726-18.731-23.452-37.461-35.177-56.192c-3.811-6.088-9.205-12.546-16.083-15.183c-8.007-3.069-14.237,4.609-18.501,10.212
		c-12.357,16.24-23.252,33.718-34.297,50.861c-1.103,1.712-2.204,3.427-3.302,5.143c-0.396,0.62-1.215,1.483-1.382,2.233
		c-0.374,1.683-0.007,3.835-0.007,5.543c0,2.011,0,4.022,0,6.033c0,1.442,2.293,3.428,3.676,3.428c5.63,0,11.26,0,16.89,0
		c-1.098,0.894-1.844,2.264-1.924,3.748c-0.122,2.267,1.598,4.272,3.517,5.472c-9.123,0-18.247,0-27.37,0c0-2.526,0-5.052,0-7.578
		C326.276,352.866,326.02,346.993,328.156,340.977z M334.275,539.424c0.136,0.19,0.277,0.374,0.417,0.56
		C334.559,539.813,334.421,539.628,334.275,539.424z M335.655,541.072c0.01,0.003,0.021,0.006,0.031,0.01
		C336.903,541.486,336.764,542.133,335.655,541.072z M337.933,541.907C337.071,541.581,337.096,541.049,337.933,541.907
		L337.933,541.907z M338.553,542.628c0.115,0.147,0.236,0.31,0.366,0.492C338.801,542.953,338.676,542.792,338.553,542.628z
		 M459.232,484.582c-0.842,8.838-3.041,17.291-5.804,25.698c-2.059,6.265-3.759,12.422-3.517,19.08
		c0.149,4.098,0.662,9.287-2.949,12.177c-2.713,2.172-6.772,1.037-9.57-0.319c-4.599-2.23-8.316-5.71-13.801-4.087
		c-4.045,1.197-5.188,5.074-7.892,7.748c-2.65,2.62-6.287,2.32-9.522,1.059c-3.022-1.179-5.477-3.39-8.181-5.114
		c-2.345-1.495-5.011-2.455-7.783-2.678c-4.499-0.362-8.732,1.763-12.913,3.066c-2.354,0.733-4.773,1.129-7.24,0.939
		c-3.072-0.237-5.994-1.882-8.702-3.209c-2.545-1.248-5.151-2.542-8.051-2.414c-2.479,0.11-4.966,2.073-7.042,3.245
		c-2.311,1.304-4.906,2.639-7.637,2.304c-0.243-0.03-0.451-0.081-0.627-0.141c-0.134-0.159-0.262-0.323-0.405-0.475
		c-1.228-1.314-2.537-2.591-4.003-3.64c-4.406-3.152-10.191-2.049-15.294,0.131c1.483-10.195,2.118-20.483,1.394-30.795
		c-0.393-5.6-1.245-11.161-2.413-16.649c-1.171-5.504-2.818-10.807-3.305-16.441c-0.959-11.092,1.215-22.396,4.364-32.991
		c1.892-6.363,4.239-12.645,7.107-18.636c0.012-0.026,0.025-0.051,0.038-0.077c0.154,0.012,0.292,0,0.41-0.039
		c2.249-0.007,4.499-0.014,6.748-0.021c0.923,9.05,1.601,18.133,2.104,27.212c0.462,8.349,0.745,16.723,0.537,25.084
		c-0.15,6.04-0.226,12.7-2.417,18.419c-0.189,0.494-0.418,0.971-0.675,1.432c-0.523,0.938,3.603,3.853,3.784,3.529
		c2.591-4.653,2.699-10.922,2.98-16.092c0.445-8.182,0.216-16.405-0.149-24.586c-0.522-11.689-1.434-23.375-2.676-35.01
		c4.46-0.014,8.921-0.028,13.381-0.042c0.253,7.67,0.767,15.34,1.45,22.978c0.694,7.764,1.626,15.517,3.01,23.19
		c1.194,6.621,2.711,13.346,5.449,19.519c0.618,1.394,2.019,2.696,3.451,3.218c1.227,0.448,1.89-0.271,1.363-1.461
		c-2.657-5.991-4.017-12.52-5.175-18.94c-1.351-7.489-2.222-15.064-2.911-22.64c-0.782-8.599-1.341-17.245-1.523-25.881
		c7.71-0.024,15.419-0.048,23.129-0.073c0.115,6.145,0.101,12.296,0.001,18.439c-0.198,12.217-0.28,25.029-3.239,36.956
		c-0.206,0.831,1.662,2.305,2.15,2.76c0.117,0.11,2.813,2.319,2.904,1.952c2.946-11.873,3.024-24.618,3.25-36.782
		c0.144-7.776,0.137-15.566-0.094-23.341c1.631-0.005,3.261-0.01,4.892-0.016c14.525-0.045,29.05-0.091,43.575-0.136
		c0.84,3.763,1.356,7.718,1.747,11.583c1.138,11.248,0.439,22.673-2.707,33.556c-0.703,2.434,5.042,6.774,5.828,4.055
		c4.5-15.571,4.598-33.429,0.375-49.21c3.466-0.011,6.932-0.022,10.397-0.032c4.7,9.524,8.676,19.415,10.963,29.814
		C460.164,462.523,460.273,473.646,459.232,484.582z"/>
	<path fill="#120E0F" d="M409.185,491.216c-1.24-8.136-1.849-16.37-2.299-24.582c-0.578-10.533-0.856-21.107-0.752-31.657
		c0.014-1.391-2.426-3.249-3.342-4.005c-0.221-0.182-2.918-2.333-2.929-1.167c-0.106,10.722,0.193,21.464,0.78,32.167
		c0.458,8.352,1.123,16.716,2.412,24.984c0.916,5.881,1.998,12.337,5.291,17.423c1.038,1.604,2.714,3.092,4.352,4.058
		c1.315,0.776,1.69,0.263,0.897-0.962C411.013,503.488,409.978,496.417,409.185,491.216z"/>
	<path fill="#120E0F" d="M384.097,83.998c1.182-0.991,2.778-1.545,4.305-1.596c4.448-0.148,6.13,5.564,7.182,8.921
		c2.966,9.463,3.383,19.806,3.427,29.663c0.043,9.551-0.527,19.102-1.22,28.624c-1.559,21.429-4.004,42.782-5.646,64.205
		c-0.727,9.485-1.306,18.994-1.352,28.509c-0.034,7.095,0.177,14.31,1.642,21.276c0.115,0.548,0.247,1.092,0.385,1.634
		c0.195,0.771,2.767,2.599,2.511,1.587c-1.724-6.806-1.921-13.982-1.956-20.967c-0.046-9.404,0.525-18.809,1.213-28.183
		c1.571-21.422,4.017-42.77,5.646-64.187c1.451-19.066,3.165-39.371-1.462-58.138c-1.597-6.477-7.145-18.96-15.926-14.441
		c-0.426,0.219-0.853,0.477-1.222,0.786C381.092,82.139,383.422,84.564,384.097,83.998z"/>
</g>
</svg>
