<?xml version="1.0" encoding="utf-8"?>
<!-- Generator: Adobe Illustrator 17.0.0, SVG Export Plug-In . SVG Version: 6.00 Build 0)  -->
<!DOCTYPE svg PUBLIC "-//W3C//DTD SVG 1.1//EN" "http://www.w3.org/Graphics/SVG/1.1/DTD/svg11.dtd">
<svg version="1.1" id="Layer_1" xmlns="http://www.w3.org/2000/svg" xmlns:xlink="http://www.w3.org/1999/xlink" x="0px" y="0px"
	 width="800px" height="600px" viewBox="0 0 800 600" enable-background="new 0 0 800 600" xml:space="preserve">
<g>
	<linearGradient id="SVGID_1_" gradientUnits="userSpaceOnUse" x1="390.1998" y1="496.424" x2="390.1998" y2="387.5832">
		<stop  offset="0.0495" style="stop-color:#25A7FA"/>
		<stop  offset="0.501" style="stop-color:#00398F"/>
	</linearGradient>
	<path fill="url(#SVGID_1_)" d="M446.199,417.449c-0.377,0.173-3.455,2.024-2.142,5.153c-0.639,0.77-1.135,1.148-2.429,0.934
		c-15.502-3.286-44.918-10.213-45.389-11.311c-1.18-2.738,23.843-22.242,23.843-22.242l-9.099-2.401c0,0-23.8,18.493-31.257,22.285
		c-1.786,0.908-18.956,0.337-28.708-1.939c-0.327-0.075-0.506-1.23-0.506-1.23c3.034-7.695-5.836-12.292-10.287-8.762
		c-2.764,2.19-2.593,5.463-2.186,7.577c0,0-1.277,0.889,0,3.19c0.349,0.787,1.262,1.04,3.254,1.403c1.48,0.27,2.928,3.76,3.47,4.141
		c2.548,1.825,25.908,5.984,26.54,7.247c0.631,1.265-22.369,10.574-33.87,11.837c0.633-4.296-0.724-8.724-3.876-8.655
		c-1.766,0.033-2.478,1.067-2.555,1.829l-1.724,0.365c-0.301-0.933-2.847-1.68-4.198-0.545c-2.471,2.064-2.01,7.474,0.288,10.703
		c0.708,0.995,2.262,0.737,2.262,0.737s0.784,2.91,2.209,3.297c7.533,1.862,25.413,1.244,47.149-9.246l-0.275,32.531
		c0,2.335,1.509,1.642,1.574,3.601l0.003,28.478h12.839V467.81c0.066-1.725,1.365-1.636,1.365-3.505l0.023-7.678
		c0,0,0.091,0.8,3.117-2.534c0.523-0.671,2.371-1.022,2.375-4.375c0.01-4.391-0.292-6.4-1.685-6.656
		c-0.925-0.167-2.443-18.788-2.443-18.788c11.627,2.106,35.91,6.987,51.459,7.979c1.919,0.121,3.893-2.544,6.126-5.197
		c4.95-0.549,6.001-4.904,5.329-7.247c-0.195-0.68-0.758,0.443-1.327-1.265C455.466,418.544,448.43,416.439,446.199,417.449z"/>
	<linearGradient id="SVGID_2_" gradientUnits="userSpaceOnUse" x1="419.5374" y1="496.424" x2="419.5374" y2="455.55">
		<stop  offset="0.0495" style="stop-color:#25A7FA"/>
		<stop  offset="0.2407" style="stop-color:#1986DA"/>
		<stop  offset="0.547" style="stop-color:#0756AC"/>
		<stop  offset="0.6994" style="stop-color:#00439A"/>
	</linearGradient>
	<path fill="url(#SVGID_2_)" d="M400.908,455.55c0.11,1.313-0.117,3.364-0.117,3.99c0,0.621,0.394,1.432,0.468,3.476
		c0.061,1.674-0.152,2.464,0.536,5.786c0,0-2.997-0.085-3.18,1.961c-0.171,1.954,0.772,21.371,0.91,25.661h27.085
		c0,0-0.295-5.442-0.295-6.221c0-0.784-4.023-0.925-4.297-1.14c-0.027-0.133,2.766-0.016,4.129-0.169
		c3.594-0.4,8.214-0.782,11.205-1.433c2.502-0.541,1.618-3.858,2.645-3.628c0.353,0.079,0.749-0.913,0.239-2.117
		c-0.137-0.333-21.043-19.169-21.043-19.169L400.908,455.55z"/>
	<path d="M487.453,348.408c-0.272-2.018-1.859-6.387-3.719-8.085c-1.859-1.696-5.336-2.344-7.922-4.527
		c0.242-0.241,2.101-1.292,1.94-2.424c-0.162-1.132-0.81-7.762-2.668-8.571c-1.935-0.841-5.618-4.021-7.236-3.094
		c-2.427-1.94-8.53-4.204-10.592-5.092c-2.936-1.267-3.274,0.828-6.508-2.244c-0.845-0.803-3.476-4.001-5.092-6.266
		c-0.141-13.501,1.657-21.992,2.02-24.537c0.189-1.325,0.242-6.063,0.849-7.759c0.606-1.699,0.97-5.822,1.213-7.035
		c0.242-1.214,1.454-2.79-1.147-5.1c2.059-1.072,3.965-3.173,5.391-4.602c2.102-2.102,6.63-11.803,6.306-13.259
		c-0.322-1.455,0.324-3.717-1.13-6.791c-1.456-3.072-3.719-9.701-5.336-14.229c-1.617-4.527-5.498-21.342-6.63-25.222
		c-1.132-3.882,1.132-14.716-3.234-15.363c-4.366-0.647-35.209-12.086-35.209-12.935c0-0.849-0.122-2.124,0.545-3.639
		c0.667-1.515,1.091-4.548,1.274-7.033c0.182-2.487,1.88-4.548,2.486-5.094c0.606-0.545,1.637-2.363,1.819-3.517
		c0.182-1.151,0.789-4.242,1.091-5.94c0.303-1.698,0.06-3.154-2.061-1.821c0.242-2.305-0.303-8.246-0.788-12.207
		c-0.486-3.963-2.749-5.538-4.285-7.884c-1.536-2.343-2.748-3.313-7.438-3.475c-3.355-4.124-10.672-1.698-15.119-0.242
		c-4.446,1.454-9.419,6.264-10.913,8.407c-1.497,2.142-0.81,6.427-0.486,7.64c0.324,1.213,0.324,3.758,0.646,5.699
		c0.348,2.083,0.89,3.154,1.415,4.408c-0.606-0.647-1.737-1.214-2.224,0.121c-0.484,1.335,2.143,7.559,2.871,9.46
		c0.728,1.9,3.597,1.536,3.759,2.021c0.162,0.485,1.253,3.273,1.374,4.607c0.122,1.334,1.577,2.547,2.183,3.438
		c0.606,0.889,0.505,1.899,0.506,2.99c0,0-0.758-0.301-1.274,0.304c-1.176,1.384-4.487,3.457-6.336,4.002
		c-2.568,0.758-12.906,2.525-17.757,3.739c-7.69,1.922-17.381,2.183-17.786,7.276c-0.258,3.241-6.306,16.979-7.922,22.799
		c-1.618,5.82-8.894,24.658-9.218,26.519c-0.323,1.858-3.618,5.7-4.345,7.093c-0.728,1.395-1.456,7.155-2.062,8.429
		c-0.607,1.273-3.396,3.698-4.184,4.304c-0.789,0.608-1.942,2.607-2.85,4.186c-0.909,1.576-7.52,8.973-8.429,12.307
		c-0.454,1.668,0.79,2.196,1.466,3.142c-1.015,2.562-1.37,4.974-1.527,5.256c-0.303,0.819-1.121,3.487-1.364,4.457
		c-0.243,0.97,0.061,3.062,0.425,3.699c0.364,0.637,0.848,4.396,1.03,5.062c0.182,0.669,0.121,1.88,0.637,2.244
		c0.516,0.364,1.637,2.183,3.305,3.79c1.668,1.607,8.882,5.155,9.641,5.003c0.758-0.152,0.818-0.819,0.88-1.274
		c0.242,0,1.091,0.304,1.728,0.092c0.637-0.212,0.606-1.365,0.575-2.001c-0.029-0.637-1.061-1.335-1.545-1.669
		c-0.486-0.333-1.759-3.334-2.275-4.366c-0.514-1.03-0.706-2.798-1.072-3.647c-0.869-1.254,0.425-2.143,0.425-3.354
		c0-0.877,0.295-2.457,0.595-3.412c0.51,0.391,1.014,0.774,1.509,1.148c-0.071,1.369-0.105,3.294,0.322,3.92
		c0.606,0.889,1.657,2.992,3.031,3.314c1.375,0.325,3.032-0.282,2.588-1.091c-0.36-0.652-0.764-1.415-0.804-2.448
		c1.276,0.096,1.835,1.141,2.057,1.114c2.263,2.102-3.558,9.701-3.801,16.089c-0.184,4.726,0.789,11.855,4.609,16.493
		c1.132,1.374,3.027-1.789,3.234-1.455c0.982,1.578,1.536,1.858,3.275,2.142c0.404,0.97,0.808,1.577,1.334,2.546
		c0.81,1.496,6.023,5.257,10.025,6.348c-0.445,0.081-1.172,0.403-1.9,0.526c-0.728,0.121-1.738,0.766-1.9,1.615
		c-0.161,0.848-0.283,1.9,0.606,2.344c0.89,0.444,0.931-0.566,1.698-0.889c0.769-0.323,4.407-0.969,7.6-1.818
		c1.779,0.243,14.27,1.454,17.545,1.617c1.817,0.089,6.687,0.317,11.759,0.396c0.041,5.072,0.165,20.092,0.165,20.092
		c0,2.736-1.663,1.733-1.663,3.212c0,0.949,0,22.805,0,22.805c0.059,1.424-18.143-4.829-31.247-1.431
		c-2.424,0.629-3.116,5.851-3.471,7.516c-7.205,1.524-5.509,8.157-4.654,8.177c0,0,0.41,0.354,0.55,0.495
		c0.124,1.177,0.958,1.968,2.034,2.439c-6.01,2.865-11.432,5.738-14.584,7.727c-2.011,1.037-3.739,10.639-3.441,11.716
		c-0.679,1.267-0.422,4.235-0.107,5.412c0.607,2.275,2.618,3.335,3.793,3.395c1.174,0.059,2.238-0.538,2.883-1.436l1.972-0.174
		c0.591,0.503,1.029,0.722,2.577,0.188c2.029-1.924,1.07-6.297,0.666-7.154c-0.826-1.752-2.445-2.629-3.522-3.016
		c0.052-0.871,0.092-1.646,0.139-2.053c0.379-0.196,35.302-18.118,48.997-11.584c1.866,0.888,6.164,19.742,6.602,21.249
		c1.533,5.283,0.764,8.76,0.612,9.963c-3.912,4.831-1.078,10.627-0.164,11.348c1.783,1.41,3.516,0.306,3.759-0.188l2.602-0.138
		c0.224,0.374,0.758,0.752,1.476,0.837c0.767,0.093,1.79,0.211,2.735-1.022c3.112-4.064,0.271-11.163,0.114-11.627
		c-0.154-0.466-0.817-4.901-1.032-5.974c-0.163-0.804-2.749-15.672-3.69-24.036c-0.227-2.007,2.344-3.406,4.542-3.58
		c0.372,6.332,1.772,31.287,1.572,33.3c-0.203,2.021,1.981,2.749,3.678,3.88c0.082,0.971-0.131,5.023-0.678,6.055
		c-0.545,1.029-0.697,3.425-0.789,5.486c-0.091,2.061-0.635,1.577-0.758,2.698c-0.153,1.421-0.636,4.73,0.032,5.912
		c0.691,1.223,2.092,2.879,4.637,5.457c2.29,2.317,1.395-1.425,2.031-0.637c1.346,1.666,1.274,6.699,1.304,8.702
		c0.043,2.79,1.01,5.335,3.395,9.399c1.173,1.995,6.065,5.84,8.57,6.285c6.898,1.224,14.595-0.243,17.019-1.092
		c1.684-0.591,3.032-1.981,2.991-2.547c-0.173-2.431-1.049-1.97-0.806-3.532c0.441-2.842-0.633-3.665-3.031-8.017
		c-8.653-15.69-8.597-21.491-12.13-27.902c-1.411-2.56-1.784-3.671-2.014-4.542c4.791,0.253,6.054-0.419,5.658-3.15
		c-0.713-4.915,1.482-26.902,2.157-29.581c5.257,1.202,9.43,2.368,11.138,3.357c0.893,0.517,0.081,3.275,0.122,6.063
		c0.069,0.874,0.767,1.909,0.888,2.629c0.93,5.536,4.333,5.771,6.064,5.94c1.084,0.108,2.507-0.404,3.234-1.98
		c0.223-0.121,0.601-0.212,0.808-0.284c0.808,0.081,2.627-0.444,2.951-1.777c0.675-1.177,1.171-0.488,0.93-2.506
		c-0.597-4.974-5.174-6.106-6.145-6.63c-0.322-0.229-0.647-6.952-3.234-8.529c-0.894-0.545-8.414-3.599-16.47-6.777
		c-0.085-5.833-0.277-12.27-0.145-14.325c0.243-3.757-0.301-11.364-0.133-18.274c0.168-6.907,2.76-12.932,2.599-15.034
		c-0.162-2.103,1.211-5.822,1.535-7.277c0.324-1.454,1.173-7.964,0.205-9.95c1.817,1.14,2.949,1.543,6.262,3.161
		c3.316,1.616,3.073,0.726,5.902,3.779c13,14.022,14.938,20.003,18.029,26.699c3.88,8.409,4.911,5.2,6.408,7.621
		c1.152,1.696,2.781,2.843,4.002,1.939c6.063-4.486,11.097-15.401,11.703-17.099C487.546,353.903,487.695,350.206,487.453,348.408z
		 M348.07,395.018c0.001-0.02,0.007-0.044,0.007-0.062c0-0.534,2.14-1.357,2.259-2.486c0.119-1.128-0.477-5.382,0.89-5.741
		c1.367-0.358,6.224,0,13.016,2.264C359.909,390.143,354.026,392.413,348.07,395.018z M395,380.618
		c-0.933,0.219-1.777,0.452-2.468,0.689l-0.229-22.845c0-1.01-1.188-1.01-1.308-2.854c-0.081-1.256-0.217-11.351-0.294-17.63
		c1.005,5.366,2.533,14.899,2.146,17.507c-0.486,3.276,1.706,11.374,2.239,18.874C395.178,375.675,394.613,378.471,395,380.618z
		 M439.369,300.85c-0.97-1.154-3.274-8.671-3.517-9.702c-0.242-1.032-0.607-3.153-0.607-4.79s-2.425-7.246-3.032-9.125
		c-0.606-1.88-1.849-5.426-1.849-5.943c0-0.515,1.092-2.79,1-3.578c-0.215-1.873-0.06-6.095,0.364-8.276
		c0.818,0.031,6.832,2.014,7.914,2.788c-2.093,1.154-0.578,4.124-0.334,5.396c0.242,1.273-0.062,8.672,0,10.855
		c0.06,2.183,0.242,12.552,0.363,14.978C439.793,295.878,439.551,297.94,439.369,300.85z"/>
	<path fill="#FFFFFF" d="M404.99,173.941c-0.728,2.747-7.641,8.306-9.46,8.184c-5.222-0.347-10.065-9.278-10.106-12.803
		c0-0.048-0.012-0.74-0.012-0.74c-0.151-0.162-0.573-0.055-0.653,0.267c-1.199,4.791-5.359,17.499-3.214,35.732
		c2.041,17.366-0.458,26.435,1.442,46.607c0.295,2.791-1.342,6.186-2.979,10.796c1.313,0.97,2.546,1.798,5.457,2.405
		c-0.886-2.05-1.041-4.307-1.438-6.629C400.476,233.234,405.713,171.206,404.99,173.941z"/>
	<path d="M396.11,182.033c-0.386-0.132-1.144-0.208-1.574-0.077c-3.079,0.486-5.224,5.071-10.922,8.775
		c1.648-0.221,5.695-0.649,5.741-0.596c0.969,1.28,1.704,2.446,1.974,3.431c0.367,1.33-1.506,4.228-3.878,7.559
		c-1.737,2.438-0.35,5.629-1.219,16.877c-0.653,8.465-0.326,18.466-3.336,32.179c-0.488,2.035-1.626,3.804-0.977,6.613
		c0,0,2.258,8.269,2.848,8.227c0.232,0.059,0.482-0.378,0.715-0.841c-0.699-1.617-0.512-7.015-0.373-7.232
		c7.393-11.452,12.087-30.425,15.356-47.41c0.068-2.576-0.242-4.165-0.477-4.557c-3.168-5.278-3.048-9.468-3.133-11.553
		c-0.044-1.095,1.977-3.441,2.305-3.83c1.018,0.09,7.197,1.088,7.321,0.126C401.238,187.321,399.471,182.67,396.11,182.033z"/>
	<path fill="#FFFFFF" d="M402.888,153.81c0,0,45.113,1.455,51.256,0.807c-0.97,5.984-12.449,66.78-12.935,69.53
		c-4.366,0-29.267-5.013-37.351-5.013s-10.995-1.94-12.127-3.072c-1.132-1.132,2.263-11.641,2.91-17.623
		C395.287,192.455,402.402,163.673,402.888,153.81z"/>
	<path d="M448.688,199.932c-0.324-0.403-1.214-0.85-2.062-0.767c-0.85,0.081-6.995,0.122-7.842,0.243
		c-0.85,0.122-3.881,1.011-4.487,1.617c-0.606,0.606-0.606,2.587,0.647,2.869c1.253,0.284,1.616,0.486,1.939,0.526
		c-1.939,0.162-3.477,0.405-4.002,0.486c-0.525,0.08-2.79,0.444-3.475,0.848c-0.888,0.522-1.311,1.924-0.486,2.749
		c0.647,0.647,2.142,0.808,3.476,0.726c1.335-0.08,3.437-0.201,3.963-0.201c0.525,0,5.538,0.526,6.549,0.728
		c1.01,0.203,2.425,0.526,3.193,0.97c0.769,0.444-0.889,0.85-2.061,0.485c-1.172-0.362-3.071-0.16-3.719,0.122
		c-0.646,0.282-2.384,1.01-3.395,1.252c-1.01,0.245-5.457,1.981-6.144,2.305c-0.689,0.323-0.85,2.951,0.727,3.356
		c-0.97,0.889-0.445,2.262,0.808,2.385c1.253,0.121,5.175-0.243,5.74-0.284c0.566-0.04,4.422,0.204,4.972,0.325
		c-0.97,1.333-1.537,3.232-1.861,3.679c-1.05-0.082-0.606,0.685-0.444,1.251c0.162,0.566,1.01,2.547,0.829,3.457
		c-0.182,0.91,8.125,2.486,8.247,0.667c0.119-1.82,0.847-5.277,1.393-6.064c0.546-0.789,2.911-4.386,2.427-5.537
		c-0.486-1.154,2.708-2.385,1.515-4.952c-0.837-1.802,2.122-2.731,0.909-4.852c-0.473-0.83-1.826-1.147-1.96-1.758
		c-0.223-1.011,0.586-2.344-0.93-3.314C451.638,202.278,448.688,199.932,448.688,199.932z"/>
	<path fill="#0092FF" d="M315.432,290.882c0,0,7.207-5.747,8.922-7.522c0.084-0.086,0.554,0.032,0.716-0.064
		c0.788-0.464,1.957-1.293,2.268-0.838c0.324,0.471-0.654,1.432-1.423,2.21c-0.158,0.16-0.226,0.506-0.352,0.614
		c-0.077,0.064-0.348,0.147-0.525,0.449c-2.007,3.461-5.474,5.113-6.662,5.712c-0.723,0.443-1.67,1.045-2.399,1.568
		C315.978,293.01,315.59,292.025,315.432,290.882z M318.528,290.934c1.636-0.427,5.135-3.928,5.239-4.496
		C323.039,286.678,320.1,288.984,318.528,290.934z"/>
	<path fill="#0092FF" d="M311.717,296.363c0,0-2.713,1.698-3.522,2.547c-0.581,0.61-6.488,4.183-7.084,3.425
		c-0.597-0.758,5.209-5.01,5.74-5.237c0.919-0.392,2.932-2.068,3.432-2.453C311.065,295.555,311.51,296.255,311.717,296.363z"/>
	<path fill="#FFFFFF" d="M443.869,232.626c-1.271-1.432-2.329-3.284-2.296-5.004c0,0-0.708-1.555-1.093-2.222
		c-0.404-0.122,0.223,3.478,0.648,5.052c0.526,1.953,1.469,3.447,3.773,5.166c3.643-3.517,5.625-9.39,5.605-10.298
		c0,0-1.071,1.615-1.9,1.859c-0.405,1.171-1.321,3.932-2.636,5.166C445.58,232.711,445.304,234.243,443.869,232.626z"/>
	<path fill="#FFFFFF" d="M305.729,270.714c0,0,2.729-3.88,7.579-3.213c4.852,0.666,5.76,2.909,7.337,5.456
		c-0.91-3.941-3.941-6.791-8.307-6.791C307.974,266.167,305.85,269.684,305.729,270.714z"/>
</g>
</svg>
